EXTRACT: control_change channel=1 control=121 value=0 time=0.35095510416666664
EXTRACT: control_change channel=2 control=121 value=0 time=0.004807604166666667
EXTRACT: control_change channel=3 control=121 value=0 time=0.004807604166666667
EXTRACT: control_change channel=4 control=121 value=0 time=0
EXTRACT: control_change channel=5 control=121 value=0 time=0.0144228125
EXTRACT: control_change channel=10 control=121 value=0 time=0
EXTRACT: control_change channel=6 control=121 value=0 time=0.004807604166666667
EXTRACT: control_change channel=7 control=121 value=0 time=0.004807604166666667
EXTRACT: control_change channel=9 control=121 value=0 time=0.004807604166666667
EXTRACT: control_change channel=8 control=121 value=0 time=0.004807604166666667
EXTRACT: control_change channel=11 control=121 value=0 time=0.009615208333333333
EXTRACT: control_change channel=15 control=121 value=0 time=0
EXTRACT: control_change channel=12 control=121 value=0 time=0.004807604166666667
EXTRACT: control_change channel=13 control=121 value=0 time=0.004807604166666667
EXTRACT: control_change channel=14 control=121 value=0 time=0.004807604166666667
EXTRACT: program_change channel=1 program=33 time=0.09615208333333333
EXTRACT: control_change channel=1 control=7 value=100 time=0.004807604166666667
EXTRACT: control_change channel=1 control=10 value=64 time=0.004807604166666667
EXTRACT: control_change channel=1 control=11 value=127 time=0.004807604166666667
EXTRACT: control_change channel=1 control=91 value=12 time=0.004807604166666667
EXTRACT: control_change channel=1 control=93 value=28 time=0.004807604166666667
EXTRACT: program_change channel=2 program=29 time=0.0144228125
EXTRACT: control_change channel=2 control=7 value=100 time=0.004807604166666667
EXTRACT: control_change channel=2 control=10 value=59 time=0.004807604166666667
EXTRACT: control_change channel=2 control=11 value=127 time=0.004807604166666667
EXTRACT: control_change channel=2 control=91 value=118 time=0.004807604166666667
EXTRACT: control_change channel=2 control=93 value=106 time=0.004807604166666667
EXTRACT: program_change channel=3 program=81 time=0.0144228125
EXTRACT: program_change channel=4 program=17 time=0
EXTRACT: control_change channel=3 control=7 value=100 time=0.004807604166666667
EXTRACT: control_change channel=4 control=7 value=100 time=0
EXTRACT: control_change channel=3 control=10 value=64 time=0.004807604166666667
EXTRACT: control_change channel=4 control=10 value=64 time=0
EXTRACT: control_change channel=3 control=11 value=127 time=0.004807604166666667
EXTRACT: control_change channel=4 control=11 value=127 time=0
EXTRACT: control_change channel=3 control=91 value=120 time=0.004807604166666667
EXTRACT: control_change channel=4 control=91 value=120 time=0
EXTRACT: control_change channel=3 control=93 value=100 time=0.004807604166666667
EXTRACT: control_change channel=4 control=93 value=100 time=0
EXTRACT: program_change channel=5 program=24 time=0.09134447916666666
EXTRACT: program_change channel=10 program=99 time=0
EXTRACT: control_change channel=5 control=7 value=94 time=0.004807604166666667
EXTRACT: control_change channel=10 control=7 value=94 time=0
EXTRACT: control_change channel=5 control=10 value=78 time=0.004807604166666667
EXTRACT: control_change channel=10 control=10 value=64 time=0
EXTRACT: control_change channel=5 control=11 value=127 time=0.004807604166666667
EXTRACT: control_change channel=10 control=11 value=127 time=0
EXTRACT: control_change channel=5 control=91 value=67 time=0.004807604166666667
EXTRACT: control_change channel=10 control=91 value=41 time=0
EXTRACT: control_change channel=5 control=93 value=55 time=0.004807604166666667
EXTRACT: control_change channel=10 control=93 value=91 time=0
EXTRACT: program_change channel=6 program=90 time=0.0144228125
EXTRACT: control_change channel=6 control=7 value=80 time=0.004807604166666667
EXTRACT: control_change channel=6 control=10 value=48 time=0.004807604166666667
EXTRACT: control_change channel=6 control=11 value=127 time=0.004807604166666667
EXTRACT: control_change channel=6 control=91 value=103 time=0.004807604166666667
EXTRACT: control_change channel=6 control=93 value=82 time=0.004807604166666667
EXTRACT: program_change channel=7 program=87 time=0.0144228125
EXTRACT: control_change channel=7 control=7 value=94 time=0.004807604166666667
EXTRACT: control_change channel=7 control=10 value=70 time=0.004807604166666667
EXTRACT: control_change channel=7 control=11 value=127 time=0.004807604166666667
EXTRACT: control_change channel=7 control=91 value=123 time=0.004807604166666667
EXTRACT: control_change channel=7 control=93 value=115 time=0.004807604166666667
EXTRACT: program_change channel=9 program=0 time=0.0144228125
EXTRACT: control_change channel=9 control=7 value=100 time=0.004807604166666667
EXTRACT: control_change channel=9 control=10 value=64 time=0.004807604166666667
EXTRACT: control_change channel=9 control=11 value=127 time=0.004807604166666667
EXTRACT: control_change channel=9 control=91 value=79 time=0.004807604166666667
EXTRACT: control_change channel=9 control=93 value=72 time=0.004807604166666667
EXTRACT: program_change channel=8 program=80 time=0.0144228125
EXTRACT: control_change channel=8 control=7 value=98 time=0.004807604166666667
EXTRACT: control_change channel=8 control=10 value=55 time=0.004807604166666667
EXTRACT: control_change channel=8 control=11 value=127 time=0.004807604166666667
EXTRACT: control_change channel=8 control=91 value=60 time=0.004807604166666667
EXTRACT: control_change channel=8 control=93 value=51 time=0.004807604166666667
EXTRACT: program_change channel=11 program=87 time=0.05288364583333333
EXTRACT: program_change channel=15 program=81 time=0
EXTRACT: control_change channel=11 control=7 value=88 time=0.004807604166666667
EXTRACT: control_change channel=15 control=7 value=101 time=0
EXTRACT: control_change channel=11 control=10 value=50 time=0.004807604166666667
EXTRACT: control_change channel=15 control=10 value=60 time=0
EXTRACT: control_change channel=11 control=11 value=127 time=0.004807604166666667
EXTRACT: control_change channel=15 control=11 value=127 time=0
EXTRACT: control_change channel=11 control=91 value=114 time=0.004807604166666667
EXTRACT: control_change channel=15 control=91 value=125 time=0
EXTRACT: control_change channel=11 control=93 value=52 time=0.004807604166666667
EXTRACT: control_change channel=15 control=1 value=127 time=0
EXTRACT: control_change channel=15 control=93 value=52 time=0
EXTRACT: program_change channel=12 program=27 time=0.0144228125
EXTRACT: control_change channel=12 control=7 value=88 time=0.004807604166666667
EXTRACT: control_change channel=12 control=10 value=80 time=0.004807604166666667
EXTRACT: control_change channel=12 control=11 value=127 time=0.004807604166666667
EXTRACT: control_change channel=12 control=91 value=57 time=0.004807604166666667
EXTRACT: control_change channel=12 control=93 value=99 time=0.004807604166666667
EXTRACT: program_change channel=13 program=119 time=0.0144228125
EXTRACT: control_change channel=13 control=7 value=88 time=0.004807604166666667
EXTRACT: control_change channel=13 control=10 value=68 time=0.004807604166666667
EXTRACT: control_change channel=13 control=11 value=127 time=0.004807604166666667
EXTRACT: control_change channel=13 control=91 value=58 time=0.004807604166666667
EXTRACT: control_change channel=13 control=93 value=49 time=0.004807604166666667
EXTRACT: program_change channel=14 program=63 time=0.0144228125
EXTRACT: control_change channel=14 control=7 value=91 time=0.004807604166666667
EXTRACT: control_change channel=14 control=10 value=57 time=0.004807604166666667
EXTRACT: control_change channel=14 control=11 value=127 time=0.004807604166666667
EXTRACT: control_change channel=14 control=91 value=104 time=0.004807604166666667
EXTRACT: control_change channel=14 control=93 value=55 time=0.004807604166666667
EXTRACT: note_on channel=10 note=46 velocity=66 time=0.7692166666666667
EXTRACT: note_on channel=10 note=53 velocity=64 time=0
EXTRACT: note_on channel=10 note=58 velocity=73 time=0
EXTRACT: note_on channel=10 note=62 velocity=71 time=0
EXTRACT: note_on channel=10 note=65 velocity=76 time=0
EXTRACT: note_on channel=10 note=70 velocity=82 time=0.230765
EXTRACT: note_off channel=10 note=65 velocity=0 time=0.36537791666666664
EXTRACT: note_off channel=10 note=62 velocity=0 time=0.02163421875
EXTRACT: note_off channel=10 note=46 velocity=0 time=0.06490265625
EXTRACT: note_on channel=10 note=62 velocity=41 time=0.009615208333333333
EXTRACT: note_on channel=10 note=65 velocity=65 time=0
EXTRACT: note_off channel=10 note=53 velocity=0 time=0.00721140625
EXTRACT: note_off channel=10 note=70 velocity=0 time=0.0144228125
EXTRACT: note_off channel=10 note=62 velocity=0 time=0.05288364583333333
EXTRACT: note_off channel=10 note=58 velocity=0 time=0.036057031249999996
EXTRACT: note_off channel=10 note=65 velocity=0 time=0.009615208333333333
EXTRACT: note_on channel=10 note=46 velocity=64 time=0.11057489583333333
EXTRACT: note_on channel=10 note=53 velocity=65 time=0
EXTRACT: note_on channel=10 note=58 velocity=62 time=0
EXTRACT: note_on channel=10 note=62 velocity=64 time=0
EXTRACT: note_on channel=10 note=65 velocity=71 time=0
EXTRACT: note_off channel=10 note=62 velocity=0 time=0.14903572916666666
EXTRACT: note_on channel=10 note=62 velocity=58 time=0.08172927083333334
EXTRACT: note_on channel=10 note=70 velocity=88 time=0
EXTRACT: note_off channel=10 note=65 velocity=0 time=0.3918197395833333
EXTRACT: note_on channel=10 note=65 velocity=71 time=0.06971026041666667
EXTRACT: note_off channel=10 note=53 velocity=0 time=0.0432684375
EXTRACT: note_off channel=10 note=46 velocity=0 time=0.05047984375
EXTRACT: note_off channel=10 note=70 velocity=0 time=0.012019010416666667
EXTRACT: note_off channel=10 note=62 velocity=0 time=0.019230416666666666
EXTRACT: note_off channel=10 note=58 velocity=0 time=0.026441822916666666
EXTRACT: note_on channel=10 note=48 velocity=64 time=0.07932546875
EXTRACT: note_on channel=10 note=51 velocity=66 time=0
EXTRACT: note_on channel=10 note=55 velocity=64 time=0
EXTRACT: note_on channel=10 note=58 velocity=57 time=0
EXTRACT: note_on channel=10 note=63 velocity=80 time=0
EXTRACT: note_on channel=10 note=67 velocity=70 time=0
EXTRACT: note_off channel=10 note=65 velocity=0 time=0.04086463541666667
EXTRACT: note_on channel=10 note=70 velocity=88 time=0.18990036458333334
EXTRACT: note_off channel=10 note=63 velocity=0 time=0.40864635416666667
EXTRACT: note_off channel=10 note=67 velocity=0 time=0.009615208333333333
EXTRACT: note_on channel=10 note=63 velocity=71 time=0.0432684375
EXTRACT: note_on channel=10 note=67 velocity=74 time=0
EXTRACT: note_off channel=10 note=70 velocity=0 time=0.012019010416666667
EXTRACT: note_off channel=10 note=63 velocity=0 time=0.09134447916666666
EXTRACT: note_off channel=10 note=67 velocity=0 time=0.04567223958333333
EXTRACT: note_off channel=10 note=58 velocity=0 time=0.0024038020833333333
EXTRACT: note_on channel=10 note=58 velocity=68 time=0.07932546875
EXTRACT: note_on channel=10 note=63 velocity=74 time=0
EXTRACT: note_on channel=10 note=67 velocity=58 time=0
EXTRACT: note_on channel=10 note=70 velocity=88 time=0.230765
EXTRACT: note_off channel=10 note=67 velocity=0 time=0.23557260416666667
EXTRACT: note_off channel=10 note=70 velocity=0 time=0.2163421875
EXTRACT: note_on channel=10 note=67 velocity=76 time=0.009615208333333333
EXTRACT: note_off channel=10 note=51 velocity=0 time=0.031249427083333333
EXTRACT: note_off channel=10 note=55 velocity=0 time=0.004807604166666667
EXTRACT: note_off channel=10 note=48 velocity=0 time=0.028845625
EXTRACT: note_off channel=10 note=63 velocity=0 time=0.062498854166666666
EXTRACT: note_off channel=10 note=58 velocity=0 time=0.0024038020833333333
EXTRACT: note_off channel=10 note=67 velocity=0 time=0.09134447916666666
EXTRACT: note_on channel=10 note=50 velocity=64 time=0.009615208333333333
EXTRACT: note_on channel=10 note=53 velocity=70 time=0
EXTRACT: note_on channel=10 note=57 velocity=62 time=0
EXTRACT: note_on channel=10 note=62 velocity=71 time=0
EXTRACT: note_on channel=10 note=65 velocity=76 time=0
EXTRACT: note_on channel=10 note=69 velocity=91 time=0.230765
EXTRACT: note_off channel=10 note=62 velocity=0 time=0.3798007291666667
EXTRACT: note_off channel=10 note=65 velocity=0 time=0.026441822916666666
EXTRACT: note_on channel=10 note=62 velocity=68 time=0.05528744791666666
EXTRACT: note_on channel=10 note=65 velocity=82 time=0
EXTRACT: note_off channel=10 note=69 velocity=0 time=0.04567223958333333
EXTRACT: note_off channel=10 note=57 velocity=0 time=0.05528744791666666
EXTRACT: note_off channel=10 note=53 velocity=0 time=0.004807604166666667
EXTRACT: note_off channel=10 note=50 velocity=0 time=0.004807604166666667
EXTRACT: note_off channel=10 note=62 velocity=0 time=0.04567223958333333
EXTRACT: note_off channel=10 note=65 velocity=0 time=0.016826614583333333
EXTRACT: note_on channel=10 note=50 velocity=73 time=0.05769125
EXTRACT: note_on channel=10 note=53 velocity=66 time=0
EXTRACT: note_on channel=10 note=57 velocity=76 time=0
EXTRACT: note_on channel=10 note=62 velocity=61 time=0
EXTRACT: note_on channel=10 note=65 velocity=80 time=0
EXTRACT: note_on channel=10 note=69 velocity=95 time=0.230765
EXTRACT: note_off channel=10 note=65 velocity=0 time=0.29326385416666667
EXTRACT: note_off channel=10 note=50 velocity=0 time=0.08172927083333334
EXTRACT: note_off channel=10 note=53 velocity=0 time=0.033653229166666666
EXTRACT: note_on channel=10 note=65 velocity=82 time=0.05288364583333333
EXTRACT: note_off channel=10 note=57 velocity=0 time=0.016826614583333333
EXTRACT: note_off channel=10 note=69 velocity=0 time=0.0024038020833333333
EXTRACT: note_off channel=10 note=62 velocity=0 time=0.026441822916666666
EXTRACT: note_on channel=10 note=51 velocity=67 time=0.18509276041666667
EXTRACT: note_on channel=10 note=55 velocity=70 time=0
EXTRACT: note_on channel=10 note=58 velocity=74 time=0
EXTRACT: note_on channel=10 note=63 velocity=82 time=0
EXTRACT: note_on channel=10 note=67 velocity=76 time=0
EXTRACT: note_off channel=10 note=65 velocity=0 time=0.0144228125
EXTRACT: note_on channel=10 note=70 velocity=82 time=0.2163421875
EXTRACT: note_off channel=10 note=63 velocity=0 time=0.3605703125
EXTRACT: note_off channel=10 note=58 velocity=0 time=0
EXTRACT: note_off channel=10 note=70 velocity=0 time=0.05047984375
EXTRACT: note_off channel=10 note=67 velocity=0 time=0
EXTRACT: note_on channel=10 note=58 velocity=71 time=0.05047984375
EXTRACT: note_on channel=10 note=63 velocity=80 time=0
EXTRACT: note_on channel=10 note=67 velocity=95 time=0
EXTRACT: note_off channel=10 note=55 velocity=0 time=0.0432684375
EXTRACT: note_off channel=10 note=51 velocity=0 time=0.004807604166666667
EXTRACT: note_off channel=10 note=58 velocity=0 time=0.06490265625
EXTRACT: note_off channel=10 note=63 velocity=0 time=0.0024038020833333333
EXTRACT: note_off channel=10 note=67 velocity=0 time=0.04086463541666667
EXTRACT: note_on channel=10 note=51 velocity=62 time=0.07451786458333333
EXTRACT: note_on channel=10 note=55 velocity=70 time=0
EXTRACT: note_on channel=10 note=58 velocity=67 time=0
EXTRACT: note_on channel=10 note=63 velocity=80 time=0
EXTRACT: note_on channel=10 note=67 velocity=76 time=0
EXTRACT: note_on channel=10 note=70 velocity=82 time=0.230765
EXTRACT: note_off channel=10 note=67 velocity=0 time=0.36297411458333334
EXTRACT: note_off channel=10 note=63 velocity=0 time=0.004807604166666667
EXTRACT: note_off channel=10 note=70 velocity=0 time=0.05288364583333333
EXTRACT: note_on channel=10 note=63 velocity=80 time=0.04086463541666667
EXTRACT: note_on channel=10 note=67 velocity=70 time=0
EXTRACT: note_off channel=10 note=55 velocity=0 time=0.07692166666666667
EXTRACT: note_off channel=10 note=58 velocity=0 time=0.016826614583333333
EXTRACT: note_off channel=10 note=51 velocity=0 time=0.0024038020833333333
EXTRACT: note_off channel=10 note=63 velocity=0 time=0.016826614583333333
EXTRACT: note_off channel=10 note=67 velocity=0 time=0.036057031249999996
EXTRACT: note_on channel=7 note=65 velocity=62 time=0.08172927083333334
EXTRACT: note_on channel=10 note=46 velocity=66 time=0
EXTRACT: note_on channel=10 note=53 velocity=64 time=0
EXTRACT: note_on channel=10 note=58 velocity=73 time=0
EXTRACT: note_on channel=10 note=62 velocity=71 time=0
EXTRACT: note_on channel=10 note=65 velocity=76 time=0
EXTRACT: note_on channel=10 note=70 velocity=82 time=0.230765
EXTRACT: note_off channel=10 note=65 velocity=0 time=0.36537791666666664
EXTRACT: note_off channel=10 note=62 velocity=0 time=0.02163421875
EXTRACT: note_off channel=10 note=46 velocity=0 time=0.06490265625
EXTRACT: note_on channel=10 note=62 velocity=41 time=0.009615208333333333
EXTRACT: note_on channel=10 note=65 velocity=65 time=0
EXTRACT: note_off channel=10 note=53 velocity=0 time=0.00721140625
EXTRACT: note_off channel=10 note=70 velocity=0 time=0.0144228125
EXTRACT: note_off channel=10 note=62 velocity=0 time=0.05288364583333333
EXTRACT: note_off channel=10 note=58 velocity=0 time=0.036057031249999996
EXTRACT: note_off channel=10 note=65 velocity=0 time=0.009615208333333333
EXTRACT: note_on channel=10 note=46 velocity=64 time=0.11057489583333333
EXTRACT: note_on channel=10 note=53 velocity=65 time=0
EXTRACT: note_on channel=10 note=58 velocity=62 time=0
EXTRACT: note_on channel=10 note=62 velocity=64 time=0
EXTRACT: note_on channel=10 note=65 velocity=71 time=0
EXTRACT: note_off channel=10 note=62 velocity=0 time=0.14903572916666666
EXTRACT: note_on channel=10 note=62 velocity=58 time=0.08172927083333334
EXTRACT: note_on channel=10 note=70 velocity=88 time=0
EXTRACT: note_off channel=10 note=65 velocity=0 time=0.3918197395833333
EXTRACT: note_on channel=10 note=65 velocity=71 time=0.06971026041666667
EXTRACT: note_off channel=10 note=53 velocity=0 time=0.0432684375
EXTRACT: note_off channel=10 note=46 velocity=0 time=0.05047984375
EXTRACT: note_off channel=10 note=70 velocity=0 time=0.012019010416666667
EXTRACT: note_off channel=10 note=62 velocity=0 time=0.019230416666666666
EXTRACT: note_off channel=10 note=58 velocity=0 time=0.026441822916666666
EXTRACT: note_on channel=10 note=48 velocity=64 time=0.07932546875
EXTRACT: note_on channel=10 note=51 velocity=66 time=0
EXTRACT: note_on channel=10 note=55 velocity=64 time=0
EXTRACT: note_on channel=10 note=58 velocity=57 time=0
EXTRACT: note_on channel=10 note=63 velocity=80 time=0
EXTRACT: note_on channel=10 note=67 velocity=70 time=0
EXTRACT: note_off channel=10 note=65 velocity=0 time=0.04086463541666667
EXTRACT: note_on channel=10 note=70 velocity=88 time=0.18990036458333334
EXTRACT: note_off channel=10 note=63 velocity=0 time=0.40864635416666667
EXTRACT: note_off channel=10 note=67 velocity=0 time=0.009615208333333333
EXTRACT: note_on channel=10 note=63 velocity=71 time=0.0432684375
EXTRACT: note_on channel=10 note=67 velocity=74 time=0
EXTRACT: note_off channel=10 note=70 velocity=0 time=0.012019010416666667
EXTRACT: note_off channel=10 note=63 velocity=0 time=0.09134447916666666
EXTRACT: note_off channel=10 note=67 velocity=0 time=0.04567223958333333
EXTRACT: note_off channel=10 note=58 velocity=0 time=0.0024038020833333333
EXTRACT: note_on channel=10 note=58 velocity=71 time=0.07932546875
EXTRACT: note_on channel=10 note=63 velocity=74 time=0
EXTRACT: note_on channel=10 note=67 velocity=58 time=0
EXTRACT: note_on channel=10 note=70 velocity=88 time=0.230765
EXTRACT: note_off channel=10 note=67 velocity=0 time=0.23557260416666667
EXTRACT: note_off channel=10 note=70 velocity=0 time=0.2163421875
EXTRACT: note_on channel=10 note=67 velocity=76 time=0.009615208333333333
EXTRACT: note_off channel=10 note=51 velocity=0 time=0.031249427083333333
EXTRACT: note_off channel=10 note=55 velocity=0 time=0.004807604166666667
EXTRACT: note_off channel=10 note=48 velocity=0 time=0.028845625
EXTRACT: note_off channel=10 note=63 velocity=0 time=0.062498854166666666
EXTRACT: note_off channel=10 note=58 velocity=0 time=0.0024038020833333333
EXTRACT: note_off channel=10 note=67 velocity=0 time=0.09134447916666666
EXTRACT: note_on channel=10 note=50 velocity=64 time=0.009615208333333333
EXTRACT: note_on channel=10 note=53 velocity=70 time=0
EXTRACT: note_on channel=10 note=57 velocity=62 time=0
EXTRACT: note_on channel=10 note=62 velocity=71 time=0
EXTRACT: note_on channel=10 note=65 velocity=76 time=0
EXTRACT: note_on channel=10 note=69 velocity=91 time=0.230765
EXTRACT: note_off channel=10 note=62 velocity=0 time=0.3798007291666667
EXTRACT: note_off channel=10 note=65 velocity=0 time=0.026441822916666666
EXTRACT: note_on channel=10 note=62 velocity=68 time=0.05528744791666666
EXTRACT: note_on channel=10 note=65 velocity=82 time=0
EXTRACT: note_off channel=10 note=69 velocity=0 time=0.04567223958333333
EXTRACT: note_off channel=10 note=57 velocity=0 time=0.05528744791666666
EXTRACT: note_off channel=10 note=53 velocity=0 time=0.004807604166666667
EXTRACT: note_off channel=10 note=50 velocity=0 time=0.004807604166666667
EXTRACT: note_off channel=10 note=62 velocity=0 time=0.04567223958333333
EXTRACT: note_off channel=10 note=65 velocity=0 time=0.016826614583333333
EXTRACT: note_on channel=10 note=50 velocity=73 time=0.05769125
EXTRACT: note_on channel=10 note=53 velocity=66 time=0
EXTRACT: note_on channel=10 note=57 velocity=76 time=0
EXTRACT: note_on channel=10 note=62 velocity=61 time=0
EXTRACT: note_on channel=10 note=65 velocity=80 time=0
EXTRACT: note_on channel=10 note=69 velocity=95 time=0.230765
EXTRACT: note_off channel=10 note=65 velocity=0 time=0.29326385416666667
EXTRACT: note_off channel=10 note=50 velocity=0 time=0.08172927083333334
EXTRACT: note_off channel=10 note=53 velocity=0 time=0.033653229166666666
EXTRACT: note_on channel=10 note=65 velocity=82 time=0.05288364583333333
EXTRACT: note_off channel=10 note=57 velocity=0 time=0.016826614583333333
EXTRACT: note_off channel=10 note=69 velocity=0 time=0.0024038020833333333
EXTRACT: note_off channel=10 note=62 velocity=0 time=0.026441822916666666
EXTRACT: note_off channel=7 note=65 velocity=0 time=0.06730645833333333
EXTRACT: note_on channel=7 note=67 velocity=70 time=0.11778630208333334
EXTRACT: note_on channel=10 note=51 velocity=67 time=0
EXTRACT: note_on channel=10 note=55 velocity=70 time=0
EXTRACT: note_on channel=10 note=58 velocity=74 time=0
EXTRACT: note_on channel=10 note=63 velocity=82 time=0
EXTRACT: note_on channel=10 note=67 velocity=76 time=0
EXTRACT: note_off channel=10 note=65 velocity=0 time=0.0144228125
EXTRACT: note_on channel=10 note=70 velocity=82 time=0.2163421875
EXTRACT: note_off channel=10 note=63 velocity=0 time=0.3605703125
EXTRACT: note_off channel=10 note=58 velocity=0 time=0
EXTRACT: note_off channel=10 note=70 velocity=0 time=0.05047984375
EXTRACT: note_off channel=10 note=67 velocity=0 time=0
EXTRACT: note_on channel=10 note=58 velocity=71 time=0.05047984375
EXTRACT: note_on channel=10 note=63 velocity=80 time=0
EXTRACT: note_on channel=10 note=67 velocity=95 time=0
EXTRACT: note_off channel=10 note=55 velocity=0 time=0.0432684375
EXTRACT: note_off channel=10 note=51 velocity=0 time=0.004807604166666667
EXTRACT: note_off channel=10 note=58 velocity=0 time=0.06490265625
EXTRACT: note_off channel=10 note=63 velocity=0 time=0.0024038020833333333
EXTRACT: note_off channel=10 note=67 velocity=0 time=0.04086463541666667
EXTRACT: note_on channel=10 note=51 velocity=62 time=0.07451786458333333
EXTRACT: note_on channel=10 note=55 velocity=70 time=0
EXTRACT: note_on channel=10 note=58 velocity=67 time=0
EXTRACT: note_on channel=10 note=63 velocity=80 time=0
EXTRACT: note_on channel=10 note=67 velocity=76 time=0
EXTRACT: note_on channel=10 note=70 velocity=82 time=0.230765
EXTRACT: note_off channel=10 note=67 velocity=0 time=0.36297411458333334
EXTRACT: note_off channel=10 note=63 velocity=0 time=0.004807604166666667
EXTRACT: note_off channel=10 note=70 velocity=0 time=0.05288364583333333
EXTRACT: note_on channel=10 note=63 velocity=80 time=0.04086463541666667
EXTRACT: note_on channel=10 note=67 velocity=70 time=0
EXTRACT: note_off channel=7 note=67 velocity=0 time=0.060095052083333336
EXTRACT: note_off channel=10 note=55 velocity=0 time=0.016826614583333333
EXTRACT: note_off channel=10 note=58 velocity=0 time=0.016826614583333333
EXTRACT: note_off channel=10 note=51 velocity=0 time=0.0024038020833333333
EXTRACT: note_off channel=10 note=63 velocity=0 time=0.016826614583333333
EXTRACT: note_off channel=10 note=67 velocity=0 time=0.036057031249999996
EXTRACT: note_on channel=7 note=65 velocity=67 time=0.08172927083333334
EXTRACT: note_on channel=10 note=46 velocity=66 time=0
EXTRACT: note_on channel=10 note=53 velocity=64 time=0
EXTRACT: note_on channel=10 note=58 velocity=73 time=0
EXTRACT: note_on channel=10 note=62 velocity=71 time=0
EXTRACT: note_on channel=10 note=65 velocity=76 time=0
EXTRACT: note_on channel=10 note=70 velocity=82 time=0.230765
EXTRACT: note_off channel=10 note=65 velocity=0 time=0.36537791666666664
EXTRACT: note_off channel=10 note=62 velocity=0 time=0.02163421875
EXTRACT: note_off channel=10 note=46 velocity=0 time=0.06490265625
EXTRACT: note_on channel=10 note=62 velocity=41 time=0.009615208333333333
EXTRACT: note_on channel=10 note=65 velocity=65 time=0
EXTRACT: note_off channel=10 note=53 velocity=0 time=0.00721140625
EXTRACT: note_off channel=10 note=70 velocity=0 time=0.0144228125
EXTRACT: note_off channel=10 note=62 velocity=0 time=0.05288364583333333
EXTRACT: note_off channel=10 note=58 velocity=0 time=0.036057031249999996
EXTRACT: note_off channel=10 note=65 velocity=0 time=0.009615208333333333
EXTRACT: note_on channel=10 note=46 velocity=64 time=0.11057489583333333
EXTRACT: note_on channel=10 note=53 velocity=65 time=0
EXTRACT: note_on channel=10 note=58 velocity=62 time=0
EXTRACT: note_on channel=10 note=62 velocity=64 time=0
EXTRACT: note_on channel=10 note=65 velocity=71 time=0
EXTRACT: note_off channel=10 note=62 velocity=0 time=0.14903572916666666
EXTRACT: note_on channel=10 note=62 velocity=58 time=0.08172927083333334
EXTRACT: note_on channel=10 note=70 velocity=88 time=0
EXTRACT: note_off channel=10 note=65 velocity=0 time=0.3918197395833333
EXTRACT: note_on channel=10 note=65 velocity=71 time=0.06971026041666667
EXTRACT: note_off channel=10 note=53 velocity=0 time=0.0432684375
EXTRACT: note_off channel=10 note=46 velocity=0 time=0.05047984375
EXTRACT: note_off channel=10 note=70 velocity=0 time=0.012019010416666667
EXTRACT: note_off channel=10 note=62 velocity=0 time=0.019230416666666666
EXTRACT: note_off channel=10 note=58 velocity=0 time=0.026441822916666666
EXTRACT: note_on channel=10 note=48 velocity=64 time=0.07932546875
EXTRACT: note_on channel=10 note=51 velocity=66 time=0
EXTRACT: note_on channel=10 note=55 velocity=64 time=0
EXTRACT: note_on channel=10 note=58 velocity=57 time=0
EXTRACT: note_on channel=10 note=63 velocity=80 time=0
EXTRACT: note_on channel=10 note=67 velocity=70 time=0
EXTRACT: note_off channel=10 note=65 velocity=0 time=0.04086463541666667
EXTRACT: note_on channel=10 note=70 velocity=88 time=0.18990036458333334
EXTRACT: note_off channel=10 note=63 velocity=0 time=0.40864635416666667
EXTRACT: note_off channel=10 note=67 velocity=0 time=0.009615208333333333
EXTRACT: note_on channel=10 note=63 velocity=71 time=0.0432684375
EXTRACT: note_on channel=10 note=67 velocity=74 time=0
EXTRACT: note_off channel=10 note=70 velocity=0 time=0.012019010416666667
EXTRACT: note_off channel=10 note=63 velocity=0 time=0.09134447916666666
EXTRACT: note_off channel=10 note=67 velocity=0 time=0.04567223958333333
EXTRACT: note_off channel=10 note=58 velocity=0 time=0.0024038020833333333
EXTRACT: note_on channel=10 note=58 velocity=71 time=0.07932546875
EXTRACT: note_on channel=10 note=63 velocity=74 time=0
EXTRACT: note_on channel=10 note=67 velocity=58 time=0
EXTRACT: note_on channel=10 note=70 velocity=88 time=0.230765
EXTRACT: note_off channel=10 note=67 velocity=0 time=0.23557260416666667
EXTRACT: note_off channel=10 note=70 velocity=0 time=0.2163421875
EXTRACT: note_on channel=10 note=67 velocity=76 time=0.009615208333333333
EXTRACT: note_off channel=10 note=51 velocity=0 time=0.031249427083333333
EXTRACT: note_off channel=10 note=55 velocity=0 time=0.004807604166666667
EXTRACT: note_off channel=7 note=65 velocity=0 time=0.026441822916666666
EXTRACT: note_off channel=10 note=48 velocity=0 time=0.0024038020833333333
EXTRACT: note_off channel=10 note=63 velocity=0 time=0.062498854166666666
EXTRACT: note_off channel=10 note=58 velocity=0 time=0.0024038020833333333
EXTRACT: note_off channel=10 note=67 velocity=0 time=0.09134447916666666
EXTRACT: note_on channel=7 note=65 velocity=60 time=0.009615208333333333
EXTRACT: note_on channel=10 note=50 velocity=64 time=0
EXTRACT: note_on channel=10 note=53 velocity=70 time=0
EXTRACT: note_on channel=10 note=57 velocity=62 time=0
EXTRACT: note_on channel=10 note=62 velocity=71 time=0
EXTRACT: note_on channel=10 note=65 velocity=76 time=0
EXTRACT: note_on channel=10 note=69 velocity=91 time=0.230765
EXTRACT: note_off channel=10 note=62 velocity=0 time=0.3798007291666667
EXTRACT: note_off channel=10 note=65 velocity=0 time=0.026441822916666666
EXTRACT: note_on channel=10 note=62 velocity=68 time=0.05528744791666666
EXTRACT: note_on channel=10 note=65 velocity=82 time=0
EXTRACT: note_off channel=10 note=69 velocity=0 time=0.04567223958333333
EXTRACT: note_off channel=10 note=57 velocity=0 time=0.05528744791666666
EXTRACT: note_off channel=10 note=53 velocity=0 time=0.004807604166666667
EXTRACT: note_off channel=10 note=50 velocity=0 time=0.004807604166666667
EXTRACT: note_off channel=10 note=62 velocity=0 time=0.04567223958333333
EXTRACT: note_off channel=10 note=65 velocity=0 time=0.016826614583333333
EXTRACT: note_on channel=10 note=50 velocity=73 time=0.05769125
EXTRACT: note_on channel=10 note=53 velocity=66 time=0
EXTRACT: note_on channel=10 note=57 velocity=76 time=0
EXTRACT: note_on channel=10 note=62 velocity=61 time=0
EXTRACT: note_on channel=10 note=65 velocity=80 time=0
EXTRACT: note_on channel=10 note=69 velocity=95 time=0.230765
EXTRACT: note_off channel=10 note=65 velocity=0 time=0.29326385416666667
EXTRACT: note_off channel=10 note=50 velocity=0 time=0.08172927083333334
EXTRACT: note_off channel=10 note=53 velocity=0 time=0.033653229166666666
EXTRACT: note_on channel=10 note=65 velocity=82 time=0.05288364583333333
EXTRACT: note_off channel=10 note=57 velocity=0 time=0.016826614583333333
EXTRACT: note_off channel=10 note=69 velocity=0 time=0.0024038020833333333
EXTRACT: note_off channel=10 note=62 velocity=0 time=0.026441822916666666
EXTRACT: note_off channel=7 note=65 velocity=0 time=0.031249427083333333
EXTRACT: note_on channel=7 note=67 velocity=79 time=0.15384333333333333
EXTRACT: note_on channel=10 note=51 velocity=67 time=0
EXTRACT: note_on channel=10 note=55 velocity=70 time=0
EXTRACT: note_on channel=10 note=58 velocity=74 time=0
EXTRACT: note_on channel=10 note=63 velocity=82 time=0
EXTRACT: note_on channel=10 note=67 velocity=76 time=0
EXTRACT: note_off channel=10 note=65 velocity=0 time=0.0144228125
EXTRACT: note_on channel=10 note=70 velocity=82 time=0.2163421875
EXTRACT: note_off channel=10 note=63 velocity=0 time=0.3605703125
EXTRACT: note_off channel=10 note=58 velocity=0 time=0
EXTRACT: note_off channel=10 note=70 velocity=0 time=0.05047984375
EXTRACT: note_off channel=10 note=67 velocity=0 time=0
EXTRACT: note_on channel=10 note=58 velocity=71 time=0.05047984375
EXTRACT: note_on channel=10 note=63 velocity=80 time=0
EXTRACT: note_on channel=10 note=67 velocity=95 time=0
EXTRACT: note_off channel=10 note=55 velocity=0 time=0.0432684375
EXTRACT: note_off channel=10 note=51 velocity=0 time=0.004807604166666667
EXTRACT: note_off channel=10 note=58 velocity=0 time=0.06490265625
EXTRACT: note_off channel=10 note=63 velocity=0 time=0.0024038020833333333
EXTRACT: note_off channel=10 note=67 velocity=0 time=0.04086463541666667
EXTRACT: note_on channel=10 note=51 velocity=62 time=0.07451786458333333
EXTRACT: note_on channel=10 note=55 velocity=70 time=0
EXTRACT: note_on channel=10 note=58 velocity=67 time=0
EXTRACT: note_on channel=10 note=63 velocity=80 time=0
EXTRACT: note_on channel=10 note=67 velocity=76 time=0
EXTRACT: note_on channel=10 note=70 velocity=82 time=0.230765
EXTRACT: note_off channel=10 note=67 velocity=0 time=0.36297411458333334
EXTRACT: note_off channel=10 note=63 velocity=0 time=0.004807604166666667
EXTRACT: note_off channel=10 note=70 velocity=0 time=0.05288364583333333
EXTRACT: note_on channel=10 note=63 velocity=80 time=0.04086463541666667
EXTRACT: note_on channel=10 note=67 velocity=70 time=0
EXTRACT: note_off channel=10 note=55 velocity=0 time=0.07692166666666667
EXTRACT: note_off channel=7 note=67 velocity=0 time=0.004807604166666667
EXTRACT: note_off channel=10 note=58 velocity=0 time=0.012019010416666667
EXTRACT: note_off channel=10 note=51 velocity=0 time=0.0024038020833333333
EXTRACT: note_off channel=10 note=63 velocity=0 time=0.016826614583333333
EXTRACT: note_off channel=10 note=67 velocity=0 time=0.036057031249999996
EXTRACT: note_on channel=9 note=36 velocity=125 time=0.08172927083333334
EXTRACT: note_on channel=9 note=44 velocity=111 time=0
EXTRACT: note_on channel=9 note=49 velocity=80 time=0
EXTRACT: note_on channel=9 note=57 velocity=89 time=0
EXTRACT: note_on channel=1 note=34 velocity=95 time=0
EXTRACT: note_on channel=2 note=77 velocity=105 time=0
EXTRACT: note_on channel=7 note=70 velocity=73 time=0
EXTRACT: note_on channel=10 note=46 velocity=91 time=0
EXTRACT: note_on channel=10 note=53 velocity=85 time=0
EXTRACT: note_on channel=10 note=58 velocity=88 time=0
EXTRACT: note_on channel=10 note=60 velocity=78 time=0
EXTRACT: note_on channel=10 note=65 velocity=78 time=0
EXTRACT: note_on channel=12 note=58 velocity=74 time=0
EXTRACT: note_on channel=14 note=46 velocity=70 time=0
EXTRACT: note_off channel=9 note=49 velocity=0 time=0.07692166666666667
EXTRACT: note_off channel=14 note=46 velocity=0 time=0.009615208333333333
EXTRACT: note_off channel=9 note=57 velocity=0 time=0.0024038020833333333
EXTRACT: note_off channel=9 note=36 velocity=0 time=0.0144228125
EXTRACT: note_off channel=1 note=34 velocity=0 time=0
EXTRACT: note_on channel=14 note=58 velocity=66 time=0.012019010416666667
EXTRACT: note_off channel=14 note=58 velocity=0 time=0.11297869791666666
EXTRACT: note_on channel=9 note=46 velocity=75 time=0.0024038020833333333
EXTRACT: note_on channel=1 note=34 velocity=82 time=0
EXTRACT: note_on channel=12 note=65 velocity=65 time=0
EXTRACT: note_on channel=14 note=46 velocity=68 time=0
EXTRACT: note_off channel=9 note=44 velocity=0 time=0.026441822916666666
EXTRACT: note_off channel=14 note=46 velocity=0 time=0.04567223958333333
EXTRACT: note_on channel=14 note=58 velocity=65 time=0.0432684375
EXTRACT: note_off channel=14 note=58 velocity=0 time=0.08413307291666666
EXTRACT: control_change channel=2 control=1 value=3 time=0.0024038020833333333
EXTRACT: note_off channel=12 note=65 velocity=0 time=0.016826614583333333
EXTRACT: note_on channel=9 note=36 velocity=107 time=0.012019010416666667
EXTRACT: note_on channel=9 note=39 velocity=78 time=0
EXTRACT: note_on channel=9 note=40 velocity=74 time=0
EXTRACT: note_on channel=9 note=44 velocity=92 time=0
EXTRACT: note_on channel=12 note=70 velocity=74 time=0
EXTRACT: note_on channel=14 note=46 velocity=68 time=0
EXTRACT: control_change channel=2 control=1 value=8 time=0.009615208333333333
EXTRACT: control_change channel=2 control=1 value=15 time=0.03846083333333333
EXTRACT: note_off channel=12 note=58 velocity=0 time=0.028845625
EXTRACT: control_change channel=2 control=1 value=19 time=0.009615208333333333
EXTRACT: note_off channel=14 note=46 velocity=0 time=0
EXTRACT: note_off channel=9 note=46 velocity=0 time=0.026441822916666666
EXTRACT: note_on channel=14 note=58 velocity=65 time=0.0024038020833333333
EXTRACT: control_change channel=2 control=1 value=22 time=0.009615208333333333
EXTRACT: note_off channel=9 note=36 velocity=0 time=0.00721140625
EXTRACT: note_off channel=1 note=34 velocity=0 time=0.04567223958333333
EXTRACT: control_change channel=2 control=1 value=23 time=0.00721140625
EXTRACT: note_off channel=14 note=58 velocity=0 time=0.016826614583333333
EXTRACT: note_on channel=9 note=46 velocity=63 time=0.028845625
EXTRACT: note_on channel=1 note=34 velocity=73 time=0
EXTRACT: note_on channel=12 note=58 velocity=68 time=0
EXTRACT: note_on channel=14 note=46 velocity=66 time=0
EXTRACT: control_change channel=2 control=1 value=25 time=0.031249427083333333
EXTRACT: note_off channel=9 note=44 velocity=0 time=0.004807604166666667
EXTRACT: control_change channel=2 control=1 value=27 time=0.033653229166666666
EXTRACT: note_off channel=14 note=46 velocity=0 time=0.016826614583333333
EXTRACT: note_off channel=12 note=70 velocity=0 time=0.028845625
EXTRACT: note_on channel=14 note=58 velocity=65 time=0
EXTRACT: note_off channel=1 note=34 velocity=0 time=0.009615208333333333
EXTRACT: control_change channel=2 control=1 value=28 time=0.0024038020833333333
EXTRACT: control_change channel=2 control=1 value=30 time=0.03846083333333333
EXTRACT: note_off channel=14 note=58 velocity=0 time=0.033653229166666666
EXTRACT: control_change channel=2 control=1 value=32 time=0.004807604166666667
EXTRACT: note_on channel=9 note=36 velocity=93 time=0.026441822916666666
EXTRACT: note_on channel=9 note=44 velocity=85 time=0
EXTRACT: note_on channel=1 note=34 velocity=63 time=0
EXTRACT: note_on channel=12 note=65 velocity=66 time=0
EXTRACT: note_on channel=14 note=46 velocity=67 time=0
EXTRACT: control_change channel=2 control=1 value=33 time=0.012019010416666667
EXTRACT: control_change channel=2 control=1 value=36 time=0.05769125
EXTRACT: note_off channel=9 note=46 velocity=0 time=0.00721140625
EXTRACT: note_off channel=14 note=46 velocity=0 time=0.0144228125
EXTRACT: control_change channel=2 control=1 value=40 time=0.016826614583333333
EXTRACT: note_off channel=1 note=34 velocity=0 time=0.004807604166666667
EXTRACT: note_on channel=14 note=58 velocity=65 time=0.0024038020833333333
EXTRACT: control_change channel=2 control=1 value=43 time=0.031249427083333333
EXTRACT: note_off channel=14 note=58 velocity=0 time=0.060095052083333336
EXTRACT: note_on channel=9 note=46 velocity=71 time=0.024038020833333333
EXTRACT: note_on channel=1 note=34 velocity=74 time=0
EXTRACT: note_on channel=12 note=70 velocity=71 time=0
EXTRACT: note_on channel=14 note=46 velocity=66 time=0
EXTRACT: note_off channel=12 note=65 velocity=0 time=0.012019010416666667
EXTRACT: note_off channel=9 note=36 velocity=0 time=0.016826614583333333
EXTRACT: note_off channel=12 note=58 velocity=0 time=0.016826614583333333
EXTRACT: note_off channel=9 note=44 velocity=0 time=0.0432684375
EXTRACT: control_change channel=2 control=1 value=45 time=0
EXTRACT: note_off channel=14 note=46 velocity=0 time=0.0024038020833333333
EXTRACT: note_off channel=9 note=39 velocity=0 time=0.0024038020833333333
EXTRACT: note_off channel=9 note=40 velocity=0 time=0.009615208333333333
EXTRACT: note_on channel=14 note=58 velocity=65 time=0.012019010416666667
EXTRACT: control_change channel=2 control=1 value=48 time=0.0144228125
EXTRACT: control_change channel=2 control=1 value=50 time=0.03846083333333333
EXTRACT: control_change channel=2 control=1 value=51 time=0.03846083333333333
EXTRACT: note_off channel=14 note=58 velocity=0 time=0.0024038020833333333
EXTRACT: note_on channel=9 note=36 velocity=125 time=0.02163421875
EXTRACT: note_on channel=9 note=39 velocity=62 time=0
EXTRACT: note_on channel=9 note=40 velocity=66 time=0
EXTRACT: note_on channel=9 note=44 velocity=101 time=0
EXTRACT: note_on channel=12 note=58 velocity=68 time=0
EXTRACT: note_on channel=14 note=46 velocity=68 time=0
EXTRACT: control_change channel=2 control=1 value=53 time=0.0144228125
EXTRACT: control_change channel=2 control=1 value=55 time=0.03846083333333333
EXTRACT: control_change channel=2 control=1 value=56 time=0.03846083333333333
EXTRACT: note_off channel=14 note=46 velocity=0 time=0.004807604166666667
EXTRACT: note_off channel=9 note=46 velocity=0 time=0.00721140625
EXTRACT: note_on channel=14 note=58 velocity=65 time=0.012019010416666667
EXTRACT: note_off channel=1 note=34 velocity=0 time=0.04086463541666667
EXTRACT: control_change channel=2 control=1 value=57 time=0.012019010416666667
EXTRACT: note_off channel=12 note=70 velocity=0 time=0.00721140625
EXTRACT: control_change channel=2 control=1 value=58 time=0.031249427083333333
EXTRACT: note_off channel=14 note=58 velocity=0 time=0.009615208333333333
EXTRACT: note_on channel=9 note=46 velocity=70 time=0.0144228125
EXTRACT: note_on channel=1 note=34 velocity=71 time=0
EXTRACT: note_on channel=12 note=65 velocity=58 time=0
EXTRACT: note_on channel=14 note=46 velocity=68 time=0
EXTRACT: control_change channel=2 control=1 value=61 time=0.036057031249999996
EXTRACT: control_change channel=2 control=1 value=62 time=0.03846083333333333
EXTRACT: note_off channel=9 note=44 velocity=0 time=0.009615208333333333
EXTRACT: note_off channel=9 note=36 velocity=0 time=0.0024038020833333333
EXTRACT: note_off channel=14 note=46 velocity=0 time=0.00721140625
EXTRACT: control_change channel=2 control=1 value=63 time=0.019230416666666666
EXTRACT: note_on channel=14 note=58 velocity=64 time=0.0024038020833333333
EXTRACT: note_off channel=1 note=34 velocity=0 time=0.016826614583333333
EXTRACT: note_off channel=9 note=46 velocity=0 time=0.026441822916666666
EXTRACT: control_change channel=2 control=1 value=66 time=0.012019010416666667
EXTRACT: control_change channel=2 control=1 value=68 time=0.03846083333333333
EXTRACT: note_off channel=14 note=58 velocity=0 time=0.00721140625
EXTRACT: note_on channel=9 note=36 velocity=118 time=0.0144228125
EXTRACT: note_on channel=9 note=44 velocity=111 time=0
EXTRACT: note_on channel=1 note=34 velocity=67 time=0
EXTRACT: note_on channel=12 note=70 velocity=68 time=0
EXTRACT: note_on channel=14 note=46 velocity=68 time=0
EXTRACT: control_change channel=2 control=1 value=70 time=0.016826614583333333
EXTRACT: note_off channel=12 note=65 velocity=0 time=0.00721140625
EXTRACT: control_change channel=2 control=1 value=72 time=0.031249427083333333
EXTRACT: note_off channel=12 note=58 velocity=0 time=0.033653229166666666
EXTRACT: control_change channel=2 control=1 value=74 time=0.004807604166666667
EXTRACT: note_off channel=14 note=46 velocity=0 time=0
EXTRACT: note_on channel=14 note=58 velocity=65 time=0.02163421875
EXTRACT: note_off channel=1 note=34 velocity=0 time=0.0144228125
EXTRACT: control_change channel=2 control=1 value=76 time=0.0024038020833333333
EXTRACT: control_change channel=2 control=1 value=77 time=0.03846083333333333
EXTRACT: control_change channel=2 control=1 value=80 time=0.04086463541666667
EXTRACT: note_off channel=14 note=58 velocity=0 time=0.009615208333333333
EXTRACT: note_on channel=9 note=46 velocity=75 time=0.009615208333333333
EXTRACT: note_on channel=1 note=34 velocity=80 time=0
EXTRACT: note_on channel=12 note=58 velocity=67 time=0
EXTRACT: note_on channel=14 note=46 velocity=67 time=0
EXTRACT: control_change channel=2 control=1 value=82 time=0.019230416666666666
EXTRACT: note_off channel=9 note=44 velocity=0 time=0.00721140625
EXTRACT: control_change channel=2 control=1 value=85 time=0.031249427083333333
EXTRACT: note_off channel=9 note=36 velocity=0 time=0.019230416666666666
EXTRACT: note_off channel=14 note=46 velocity=0 time=0.00721140625
EXTRACT: note_off channel=9 note=40 velocity=0 time=0.012019010416666667
EXTRACT: control_change channel=2 control=1 value=87 time=0
EXTRACT: note_off channel=9 note=39 velocity=0 time=0.009615208333333333
EXTRACT: note_on channel=14 note=58 velocity=65 time=0.009615208333333333
EXTRACT: note_off channel=12 note=70 velocity=0 time=0.028845625
EXTRACT: control_change channel=2 control=1 value=89 time=0.009615208333333333
EXTRACT: control_change channel=2 control=1 value=90 time=0.03846083333333333
EXTRACT: note_off channel=14 note=58 velocity=0 time=0.028845625
EXTRACT: note_on channel=9 note=36 velocity=118 time=0.009615208333333333
EXTRACT: note_on channel=9 note=39 velocity=66 time=0
EXTRACT: note_on channel=9 note=40 velocity=74 time=0
EXTRACT: note_on channel=9 note=44 velocity=92 time=0
EXTRACT: control_change channel=2 control=1 value=93 time=0
EXTRACT: note_on channel=12 note=65 velocity=66 time=0
EXTRACT: note_on channel=14 note=46 velocity=68 time=0
EXTRACT: control_change channel=2 control=1 value=95 time=0.03846083333333333
EXTRACT: control_change channel=2 control=1 value=97 time=0.04086463541666667
EXTRACT: note_off channel=14 note=46 velocity=0 time=0.019230416666666666
EXTRACT: note_off channel=9 note=46 velocity=0 time=0.0144228125
EXTRACT: note_on channel=14 note=58 velocity=65 time=0.0024038020833333333
EXTRACT: control_change channel=2 control=1 value=99 time=0.0024038020833333333
EXTRACT: note_off channel=1 note=34 velocity=0 time=0.03846083333333333
EXTRACT: control_change channel=2 control=1 value=100 time=0
EXTRACT: note_off channel=14 note=58 velocity=0 time=0.05288364583333333
EXTRACT: note_on channel=9 note=46 velocity=63 time=0.02163421875
EXTRACT: note_on channel=1 note=34 velocity=68 time=0
EXTRACT: note_on channel=12 note=70 velocity=73 time=0
EXTRACT: note_on channel=14 note=46 velocity=67 time=0
EXTRACT: note_off channel=12 note=65 velocity=0 time=0.02163421875
EXTRACT: note_off channel=9 note=44 velocity=0 time=0.0144228125
EXTRACT: note_off channel=12 note=58 velocity=0 time=0.026441822916666666
EXTRACT: note_off channel=14 note=46 velocity=0 time=0.026441822916666666
EXTRACT: note_on channel=14 note=58 velocity=65 time=0.026441822916666666
EXTRACT: note_off channel=1 note=34 velocity=0 time=0.0024038020833333333
EXTRACT: control_change channel=2 control=1 value=96 time=0
EXTRACT: note_off channel=9 note=36 velocity=0 time=0.024038020833333333
EXTRACT: control_change channel=2 control=1 value=92 time=0.0144228125
EXTRACT: control_change channel=2 control=1 value=85 time=0.03846083333333333
EXTRACT: note_off channel=14 note=58 velocity=0 time=0.016826614583333333
EXTRACT: note_on channel=9 note=36 velocity=125 time=0.019230416666666666
EXTRACT: note_on channel=9 note=44 velocity=85 time=0
EXTRACT: note_on channel=1 note=34 velocity=68 time=0
EXTRACT: note_on channel=12 note=58 velocity=68 time=0
EXTRACT: note_on channel=14 note=46 velocity=68 time=0
EXTRACT: control_change channel=2 control=1 value=75 time=0.0024038020833333333
EXTRACT: control_change channel=2 control=1 value=61 time=0.03846083333333333
EXTRACT: note_off channel=9 note=46 velocity=0 time=0.036057031249999996
EXTRACT: control_change channel=2 control=1 value=43 time=0.004807604166666667
EXTRACT: note_off channel=14 note=46 velocity=0 time=0.00721140625
EXTRACT: note_on channel=14 note=58 velocity=64 time=0.026441822916666666
EXTRACT: note_off channel=1 note=34 velocity=0 time=0.004807604166666667
EXTRACT: control_change channel=2 control=1 value=27 time=0
EXTRACT: note_off channel=12 note=70 velocity=0 time=0.028845625
EXTRACT: control_change channel=2 control=1 value=11 time=0.009615208333333333
EXTRACT: control_change channel=2 control=1 value=1 time=0.03846083333333333
EXTRACT: note_off channel=14 note=58 velocity=0 time=0.02163421875
EXTRACT: note_on channel=9 note=46 velocity=71 time=0.012019010416666667
EXTRACT: note_on channel=1 note=34 velocity=91 time=0
EXTRACT: note_on channel=2 note=80 velocity=107 time=0
EXTRACT: note_on channel=12 note=65 velocity=65 time=0
EXTRACT: note_on channel=14 note=46 velocity=67 time=0
EXTRACT: control_change channel=2 control=1 value=0 time=0.004807604166666667
EXTRACT: note_off channel=2 note=77 velocity=0 time=0.02163421875
EXTRACT: note_off channel=9 note=44 velocity=0 time=0.062498854166666666
EXTRACT: note_off channel=9 note=39 velocity=0 time=0.0024038020833333333
EXTRACT: note_off channel=9 note=40 velocity=0 time=0.0024038020833333333
EXTRACT: note_off channel=14 note=46 velocity=0 time=0
EXTRACT: note_off channel=9 note=36 velocity=0 time=0.019230416666666666
EXTRACT: note_on channel=14 note=58 velocity=65 time=0.0024038020833333333
EXTRACT: note_off channel=14 note=58 velocity=0 time=0.1009596875
EXTRACT: note_on channel=9 note=36 velocity=122 time=0.0144228125
EXTRACT: note_on channel=9 note=39 velocity=65 time=0
EXTRACT: note_on channel=9 note=40 velocity=63 time=0
EXTRACT: note_on channel=9 note=44 velocity=101 time=0
EXTRACT: note_on channel=12 note=70 velocity=73 time=0
EXTRACT: note_on channel=14 note=46 velocity=68 time=0
EXTRACT: note_off channel=12 note=65 velocity=0 time=0.033653229166666666
EXTRACT: note_off channel=12 note=58 velocity=0 time=0.05288364583333333
EXTRACT: note_off channel=14 note=46 velocity=0 time=0.004807604166666667
EXTRACT: note_off channel=9 note=46 velocity=0 time=0.012019010416666667
EXTRACT: note_on channel=14 note=58 velocity=65 time=0.012019010416666667
EXTRACT: note_off channel=1 note=34 velocity=0 time=0.07692166666666667
EXTRACT: note_off channel=14 note=58 velocity=0 time=0.019230416666666666
EXTRACT: note_on channel=9 note=46 velocity=70 time=0.019230416666666666
EXTRACT: note_on channel=1 note=32 velocity=88 time=0
EXTRACT: note_on channel=12 note=58 velocity=68 time=0
EXTRACT: note_on channel=14 note=46 velocity=67 time=0
EXTRACT: note_off channel=9 note=44 velocity=0 time=0.08413307291666666
EXTRACT: note_off channel=14 note=46 velocity=0 time=0.009615208333333333
EXTRACT: note_on channel=14 note=58 velocity=66 time=0.02163421875
EXTRACT: note_off channel=9 note=36 velocity=0 time=0.0024038020833333333
EXTRACT: note_off channel=9 note=46 velocity=0 time=0.04086463541666667
EXTRACT: note_off channel=12 note=70 velocity=0 time=0.009615208333333333
EXTRACT: note_off channel=1 note=32 velocity=0 time=0.031249427083333333
EXTRACT: note_off channel=14 note=58 velocity=0 time=0.009615208333333333
EXTRACT: note_on channel=9 note=36 velocity=118 time=0.02163421875
EXTRACT: note_on channel=9 note=44 velocity=111 time=0
EXTRACT: note_on channel=1 note=34 velocity=95 time=0
EXTRACT: note_on channel=12 note=65 velocity=66 time=0
EXTRACT: note_on channel=14 note=46 velocity=70 time=0
EXTRACT: note_off channel=14 note=46 velocity=0 time=0.086536875
EXTRACT: note_off channel=1 note=34 velocity=0 time=0.016826614583333333
EXTRACT: note_on channel=14 note=58 velocity=66 time=0.012019010416666667
EXTRACT: note_off channel=2 note=80 velocity=0 time=0.033653229166666666
EXTRACT: note_off channel=14 note=58 velocity=0 time=0.07932546875
EXTRACT: note_on channel=9 note=46 velocity=75 time=0.0024038020833333333
EXTRACT: note_on channel=1 note=34 velocity=82 time=0
EXTRACT: note_on channel=2 note=82 velocity=99 time=0
EXTRACT: note_on channel=12 note=70 velocity=73 time=0
EXTRACT: note_on channel=14 note=46 velocity=68 time=0
EXTRACT: note_off channel=9 note=44 velocity=0 time=0.026441822916666666
EXTRACT: note_off channel=12 note=65 velocity=0 time=0.009615208333333333
EXTRACT: note_off channel=9 note=39 velocity=0 time=0.031249427083333333
EXTRACT: note_off channel=12 note=58 velocity=0 time=0
EXTRACT: note_off channel=14 note=46 velocity=0 time=0.004807604166666667
EXTRACT: note_off channel=9 note=40 velocity=0 time=0.0024038020833333333
EXTRACT: note_off channel=9 note=36 velocity=0 time=0.026441822916666666
EXTRACT: note_on channel=14 note=58 velocity=65 time=0.0144228125
EXTRACT: note_off channel=10 note=58 velocity=0 time=0.028845625
EXTRACT: note_off channel=10 note=65 velocity=0 time=0.0024038020833333333
EXTRACT: note_off channel=10 note=60 velocity=0 time=0.012019010416666667
EXTRACT: note_off channel=14 note=58 velocity=0 time=0.04086463541666667
EXTRACT: note_off channel=10 note=46 velocity=0 time=0.009615208333333333
EXTRACT: note_off channel=10 note=53 velocity=0 time=0.004807604166666667
EXTRACT: note_on channel=9 note=36 velocity=118 time=0.016826614583333333
EXTRACT: note_on channel=9 note=39 velocity=62 time=0
EXTRACT: note_on channel=9 note=40 velocity=63 time=0
EXTRACT: note_on channel=9 note=44 velocity=92 time=0
EXTRACT: note_on channel=12 note=58 velocity=67 time=0
EXTRACT: note_on channel=14 note=46 velocity=68 time=0
EXTRACT: note_off channel=14 note=46 velocity=0 time=0.086536875
EXTRACT: note_off channel=9 note=46 velocity=0 time=0.026441822916666666
EXTRACT: note_on channel=14 note=58 velocity=65 time=0.0024038020833333333
EXTRACT: note_off channel=12 note=70 velocity=0 time=0.019230416666666666
EXTRACT: note_off channel=1 note=34 velocity=0 time=0.0432684375
EXTRACT: note_off channel=14 note=58 velocity=0 time=0.024038020833333333
EXTRACT: note_on channel=9 note=46 velocity=63 time=0.028845625
EXTRACT: note_on channel=1 note=34 velocity=73 time=0
EXTRACT: note_on channel=12 note=65 velocity=66 time=0
EXTRACT: note_on channel=14 note=46 velocity=66 time=0
EXTRACT: note_off channel=9 note=44 velocity=0 time=0.036057031249999996
EXTRACT: note_off channel=14 note=46 velocity=0 time=0.05047984375
EXTRACT: note_on channel=14 note=58 velocity=65 time=0.028845625
EXTRACT: note_off channel=1 note=34 velocity=0 time=0.009615208333333333
EXTRACT: note_off channel=9 note=36 velocity=0 time=0.012019010416666667
EXTRACT: control_change channel=2 control=1 value=1 time=0.0432684375
EXTRACT: note_off channel=14 note=58 velocity=0 time=0.019230416666666666
EXTRACT: note_on channel=9 note=36 velocity=125 time=0.031249427083333333
EXTRACT: note_on channel=9 note=44 velocity=85 time=0
EXTRACT: note_on channel=1 note=34 velocity=63 time=0
EXTRACT: note_on channel=12 note=70 velocity=73 time=0
EXTRACT: note_on channel=14 note=46 velocity=67 time=0
EXTRACT: control_change channel=2 control=1 value=2 time=0.00721140625
EXTRACT: note_off channel=12 note=65 velocity=0 time=0.019230416666666666
EXTRACT: control_change channel=2 control=1 value=3 time=0.019230416666666666
EXTRACT: note_off channel=12 note=58 velocity=0 time=0
EXTRACT: note_off channel=9 note=46 velocity=0 time=0.031249427083333333
EXTRACT: control_change channel=2 control=1 value=7 time=0.009615208333333333
EXTRACT: note_off channel=14 note=46 velocity=0 time=0.004807604166666667
EXTRACT: note_off channel=1 note=34 velocity=0 time=0.02163421875
EXTRACT: note_on channel=14 note=58 velocity=65 time=0.0024038020833333333
EXTRACT: control_change channel=2 control=1 value=9 time=0.009615208333333333
EXTRACT: control_change channel=2 control=1 value=11 time=0.03846083333333333
EXTRACT: control_change channel=2 control=1 value=13 time=0.03846083333333333
EXTRACT: note_off channel=14 note=58 velocity=0 time=0.004807604166666667
EXTRACT: note_on channel=9 note=46 velocity=71 time=0.024038020833333333
EXTRACT: note_on channel=1 note=34 velocity=74 time=0
EXTRACT: note_on channel=12 note=58 velocity=68 time=0
EXTRACT: note_on channel=14 note=46 velocity=66 time=0
EXTRACT: control_change channel=2 control=1 value=16 time=0.009615208333333333
EXTRACT: control_change channel=2 control=1 value=18 time=0.03846083333333333
EXTRACT: note_off channel=9 note=44 velocity=0 time=0.04086463541666667
EXTRACT: control_change channel=2 control=1 value=22 time=0
EXTRACT: note_off channel=9 note=40 velocity=0 time=0.0024038020833333333
EXTRACT: note_off channel=14 note=46 velocity=0 time=0
EXTRACT: note_off channel=9 note=36 velocity=0 time=0.0024038020833333333
EXTRACT: note_off channel=9 note=39 velocity=0 time=0
EXTRACT: note_on channel=14 note=58 velocity=65 time=0.02163421875
EXTRACT: control_change channel=2 control=1 value=26 time=0.012019010416666667
EXTRACT: note_off channel=12 note=70 velocity=0 time=0
EXTRACT: control_change channel=2 control=1 value=28 time=0.03846083333333333
EXTRACT: control_change channel=2 control=1 value=31 time=0.03846083333333333
EXTRACT: note_off channel=14 note=58 velocity=0 time=0.004807604166666667
EXTRACT: note_on channel=9 note=36 velocity=125 time=0.02163421875
EXTRACT: note_on channel=9 note=39 velocity=66 time=0
EXTRACT: note_on channel=9 note=40 velocity=65 time=0
EXTRACT: note_on channel=9 note=44 velocity=101 time=0
EXTRACT: note_on channel=12 note=65 velocity=65 time=0
EXTRACT: note_on channel=14 note=46 velocity=68 time=0
EXTRACT: control_change channel=2 control=1 value=34 time=0.012019010416666667
EXTRACT: control_change channel=2 control=1 value=36 time=0.03846083333333333
EXTRACT: control_change channel=2 control=1 value=37 time=0.03846083333333333
EXTRACT: note_off channel=14 note=46 velocity=0 time=0.00721140625
EXTRACT: note_off channel=9 note=46 velocity=0 time=0.00721140625
EXTRACT: note_on channel=14 note=58 velocity=65 time=0.012019010416666667
EXTRACT: control_change channel=2 control=1 value=38 time=0.012019010416666667
EXTRACT: note_off channel=1 note=34 velocity=0 time=0.028845625
EXTRACT: control_change channel=2 control=1 value=41 time=0.028845625
EXTRACT: note_off channel=14 note=58 velocity=0 time=0.031249427083333333
EXTRACT: control_change channel=2 control=1 value=42 time=0.009615208333333333
EXTRACT: note_on channel=9 note=46 velocity=70 time=0.004807604166666667
EXTRACT: note_on channel=1 note=34 velocity=71 time=0
EXTRACT: note_on channel=12 note=70 velocity=74 time=0
EXTRACT: note_on channel=14 note=46 velocity=68 time=0
EXTRACT: control_change channel=2 control=1 value=44 time=0.033653229166666666
EXTRACT: note_off channel=12 note=58 velocity=0 time=0.0024038020833333333
EXTRACT: note_off channel=12 note=65 velocity=0 time=0.004807604166666667
EXTRACT: note_off channel=9 note=44 velocity=0 time=0.0432684375
EXTRACT: note_off channel=9 note=36 velocity=0 time=0.00721140625
EXTRACT: control_change channel=2 control=1 value=46 time=0
EXTRACT: note_off channel=14 note=46 velocity=0 time=0.0024038020833333333
EXTRACT: note_on channel=14 note=58 velocity=64 time=0.02163421875
EXTRACT: control_change channel=2 control=1 value=47 time=0.0144228125
EXTRACT: note_off channel=1 note=34 velocity=0 time=0.0024038020833333333
EXTRACT: note_off channel=9 note=46 velocity=0 time=0.026441822916666666
EXTRACT: control_change channel=2 control=1 value=48 time=0.009615208333333333
EXTRACT: note_off channel=14 note=58 velocity=0 time=0.048076041666666666
EXTRACT: control_change channel=2 control=1 value=49 time=0.009615208333333333
EXTRACT: note_on channel=9 note=36 velocity=125 time=0.004807604166666667
EXTRACT: note_on channel=9 note=44 velocity=111 time=0
EXTRACT: note_on channel=1 note=34 velocity=67 time=0
EXTRACT: note_on channel=12 note=58 velocity=67 time=0
EXTRACT: note_on channel=14 note=46 velocity=68 time=0
EXTRACT: control_change channel=2 control=1 value=50 time=0.033653229166666666
EXTRACT: control_change channel=2 control=1 value=51 time=0.05769125
EXTRACT: note_off channel=14 note=46 velocity=0 time=0.0024038020833333333
EXTRACT: note_on channel=14 note=58 velocity=65 time=0.02163421875
EXTRACT: note_off channel=1 note=34 velocity=0 time=0.0144228125
EXTRACT: note_off channel=12 note=70 velocity=0 time=0.02163421875
EXTRACT: control_change channel=2 control=1 value=52 time=0.036057031249999996
EXTRACT: note_off channel=14 note=58 velocity=0 time=0.033653229166666666
EXTRACT: note_on channel=9 note=46 velocity=75 time=0.009615208333333333
EXTRACT: note_on channel=1 note=34 velocity=80 time=0
EXTRACT: note_on channel=12 note=65 velocity=64 time=0
EXTRACT: note_on channel=14 note=46 velocity=67 time=0
EXTRACT: control_change channel=2 control=1 value=53 time=0.0144228125
EXTRACT: note_off channel=9 note=44 velocity=0 time=0.012019010416666667
EXTRACT: note_off channel=9 note=39 velocity=0 time=0.012019010416666667
EXTRACT: note_off channel=9 note=40 velocity=0 time=0.00721140625
EXTRACT: control_change channel=2 control=1 value=55 time=0.00721140625
EXTRACT: note_off channel=14 note=46 velocity=0 time=0.031249427083333333
EXTRACT: control_change channel=2 control=1 value=56 time=0.00721140625
EXTRACT: note_off channel=9 note=36 velocity=0 time=0.012019010416666667
EXTRACT: note_on channel=14 note=58 velocity=65 time=0.012019010416666667
EXTRACT: control_change channel=2 control=1 value=58 time=0.09134447916666666
EXTRACT: note_off channel=14 note=58 velocity=0 time=0.0144228125
EXTRACT: note_on channel=9 note=36 velocity=122 time=0.009615208333333333
EXTRACT: note_on channel=9 note=39 velocity=65 time=0
EXTRACT: note_on channel=9 note=40 velocity=65 time=0
EXTRACT: note_on channel=9 note=44 velocity=92 time=0
EXTRACT: note_on channel=12 note=70 velocity=71 time=0
EXTRACT: note_on channel=14 note=46 velocity=68 time=0
EXTRACT: control_change channel=2 control=1 value=59 time=0.033653229166666666
EXTRACT: note_off channel=12 note=58 velocity=0 time=0.0144228125
EXTRACT: note_off channel=12 note=65 velocity=0 time=0.0144228125
EXTRACT: note_off channel=14 note=46 velocity=0 time=0.036057031249999996
EXTRACT: note_off channel=9 note=46 velocity=0 time=0.0144228125
EXTRACT: note_on channel=14 note=58 velocity=65 time=0.0024038020833333333
EXTRACT: note_off channel=1 note=34 velocity=0 time=0.04086463541666667
EXTRACT: note_off channel=14 note=58 velocity=0 time=0.05288364583333333
EXTRACT: note_on channel=9 note=46 velocity=63 time=0.02163421875
EXTRACT: note_on channel=1 note=34 velocity=68 time=0
EXTRACT: note_on channel=12 note=58 velocity=68 time=0
EXTRACT: note_on channel=14 note=46 velocity=67 time=0
EXTRACT: control_change channel=2 control=1 value=60 time=0.033653229166666666
EXTRACT: note_off channel=9 note=44 velocity=0 time=0.0024038020833333333
EXTRACT: note_off channel=14 note=46 velocity=0 time=0.05288364583333333
EXTRACT: note_on channel=14 note=58 velocity=65 time=0.026441822916666666
EXTRACT: note_off channel=9 note=36 velocity=0 time=0.0024038020833333333
EXTRACT: note_off channel=1 note=34 velocity=0 time=0
EXTRACT: note_off channel=12 note=70 velocity=0 time=0.012019010416666667
EXTRACT: note_off channel=14 note=58 velocity=0 time=0.08172927083333334
EXTRACT: note_on channel=9 note=36 velocity=125 time=0.019230416666666666
EXTRACT: note_on channel=9 note=44 velocity=85 time=0
EXTRACT: note_on channel=1 note=34 velocity=68 time=0
EXTRACT: note_on channel=12 note=65 velocity=68 time=0
EXTRACT: note_on channel=14 note=46 velocity=68 time=0
EXTRACT: note_off channel=9 note=46 velocity=0 time=0.07692166666666667
EXTRACT: note_off channel=14 note=46 velocity=0 time=0.012019010416666667
EXTRACT: note_on channel=14 note=58 velocity=64 time=0.026441822916666666
EXTRACT: note_off channel=1 note=34 velocity=0 time=0.004807604166666667
EXTRACT: note_off channel=14 note=58 velocity=0 time=0.09855588541666667
EXTRACT: note_on channel=9 note=46 velocity=71 time=0.012019010416666667
EXTRACT: note_on channel=1 note=34 velocity=91 time=0
EXTRACT: note_on channel=12 note=70 velocity=73 time=0
EXTRACT: note_on channel=14 note=46 velocity=67 time=0
EXTRACT: note_off channel=12 note=58 velocity=0 time=0.03846083333333333
EXTRACT: note_off channel=12 note=65 velocity=0 time=0.026441822916666666
EXTRACT: note_off channel=9 note=40 velocity=0 time=0.004807604166666667
EXTRACT: note_off channel=9 note=39 velocity=0 time=0
EXTRACT: note_off channel=9 note=44 velocity=0 time=0.019230416666666666
EXTRACT: note_off channel=14 note=46 velocity=0 time=0.004807604166666667
EXTRACT: note_off channel=9 note=36 velocity=0 time=0.00721140625
EXTRACT: note_on channel=14 note=58 velocity=65 time=0.0144228125
EXTRACT: control_change channel=2 control=1 value=58 time=0.07211406249999999
EXTRACT: note_off channel=14 note=58 velocity=0 time=0.028845625
EXTRACT: control_change channel=2 control=1 value=56 time=0.012019010416666667
EXTRACT: note_on channel=9 note=36 velocity=125 time=0.0024038020833333333
EXTRACT: note_on channel=9 note=39 velocity=65 time=0
EXTRACT: note_on channel=9 note=40 velocity=64 time=0
EXTRACT: note_on channel=9 note=44 velocity=101 time=0
EXTRACT: note_on channel=12 note=58 velocity=68 time=0
EXTRACT: note_on channel=14 note=46 velocity=68 time=0
EXTRACT: control_change channel=2 control=1 value=52 time=0.036057031249999996
EXTRACT: control_change channel=2 control=1 value=45 time=0.03846083333333333
EXTRACT: note_off channel=14 note=46 velocity=0 time=0.016826614583333333
EXTRACT: note_off channel=9 note=46 velocity=0 time=0.012019010416666667
EXTRACT: control_change channel=2 control=1 value=38 time=0.009615208333333333
EXTRACT: note_on channel=14 note=58 velocity=65 time=0.0024038020833333333
EXTRACT: note_off channel=12 note=70 velocity=0 time=0.012019010416666667
EXTRACT: control_change channel=2 control=1 value=31 time=0.024038020833333333
EXTRACT: control_change channel=2 control=1 value=26 time=0.03846083333333333
EXTRACT: note_off channel=1 note=34 velocity=0 time=0.0024038020833333333
EXTRACT: note_off channel=14 note=58 velocity=0 time=0.019230416666666666
EXTRACT: control_change channel=2 control=1 value=21 time=0.016826614583333333
EXTRACT: note_on channel=9 note=46 velocity=70 time=0.0024038020833333333
EXTRACT: note_on channel=1 note=32 velocity=88 time=0
EXTRACT: note_on channel=12 note=65 velocity=71 time=0
EXTRACT: note_on channel=14 note=46 velocity=67 time=0
EXTRACT: control_change channel=2 control=1 value=13 time=0.036057031249999996
EXTRACT: control_change channel=2 control=1 value=5 time=0.04086463541666667
EXTRACT: note_off channel=9 note=44 velocity=0 time=0.00721140625
EXTRACT: note_off channel=14 note=46 velocity=0 time=0.009615208333333333
EXTRACT: note_off channel=9 note=36 velocity=0 time=0.0144228125
EXTRACT: control_change channel=2 control=1 value=1 time=0.00721140625
EXTRACT: note_on channel=14 note=58 velocity=66 time=0
EXTRACT: note_off channel=9 note=46 velocity=0 time=0.0432684375
EXTRACT: control_change channel=2 control=1 value=0 time=0.0144228125
EXTRACT: note_off channel=1 note=32 velocity=0 time=0.026441822916666666
EXTRACT: note_off channel=14 note=58 velocity=0 time=0.009615208333333333
EXTRACT: note_on channel=9 note=36 velocity=122 time=0.02163421875
EXTRACT: note_on channel=9 note=44 velocity=111 time=0
EXTRACT: note_on channel=1 note=34 velocity=95 time=0
EXTRACT: note_on channel=12 note=70 velocity=73 time=0
EXTRACT: note_on channel=14 note=46 velocity=70 time=0
EXTRACT: note_off channel=12 note=65 velocity=0 time=0.07692166666666667
EXTRACT: note_off channel=12 note=58 velocity=0 time=0.009615208333333333
EXTRACT: note_off channel=14 note=46 velocity=0 time=0
EXTRACT: note_off channel=1 note=34 velocity=0 time=0.016826614583333333
EXTRACT: control_change channel=2 control=1 value=1 time=0.012019010416666667
EXTRACT: note_on channel=14 note=58 velocity=66 time=0
EXTRACT: control_change channel=2 control=1 value=4 time=0.05769125
EXTRACT: control_change channel=2 control=1 value=10 time=0.03846083333333333
EXTRACT: note_off channel=14 note=58 velocity=0 time=0.016826614583333333
EXTRACT: note_on channel=9 note=46 velocity=75 time=0.0024038020833333333
EXTRACT: note_on channel=1 note=34 velocity=82 time=0
EXTRACT: note_on channel=12 note=58 velocity=67 time=0
EXTRACT: note_on channel=14 note=46 velocity=68 time=0
EXTRACT: control_change channel=2 control=1 value=15 time=0.019230416666666666
EXTRACT: note_off channel=9 note=44 velocity=0 time=0.00721140625
EXTRACT: note_off channel=9 note=39 velocity=0 time=0.02163421875
EXTRACT: note_off channel=9 note=40 velocity=0 time=0.004807604166666667
EXTRACT: control_change channel=2 control=1 value=18 time=0.004807604166666667
EXTRACT: note_off channel=14 note=46 velocity=0 time=0.0144228125
EXTRACT: note_off channel=9 note=36 velocity=0 time=0.0144228125
EXTRACT: control_change channel=2 control=1 value=22 time=0.012019010416666667
EXTRACT: note_on channel=14 note=58 velocity=65 time=0.016826614583333333
EXTRACT: control_change channel=2 control=1 value=26 time=0.02163421875
EXTRACT: note_off channel=12 note=70 velocity=0 time=0.033653229166666666
EXTRACT: control_change channel=2 control=1 value=29 time=0.004807604166666667
EXTRACT: note_off channel=14 note=58 velocity=0 time=0.024038020833333333
EXTRACT: control_change channel=2 control=1 value=31 time=0.0144228125
EXTRACT: note_on channel=9 note=36 velocity=118 time=0.016826614583333333
EXTRACT: note_on channel=9 note=39 velocity=71 time=0
EXTRACT: note_on channel=9 note=40 velocity=72 time=0
EXTRACT: note_on channel=9 note=44 velocity=92 time=0
EXTRACT: note_on channel=12 note=65 velocity=62 time=0
EXTRACT: note_on channel=14 note=46 velocity=68 time=0
EXTRACT: control_change channel=2 control=1 value=33 time=0.02163421875
EXTRACT: control_change channel=2 control=1 value=36 time=0.03846083333333333
EXTRACT: note_off channel=14 note=46 velocity=0 time=0.026441822916666666
EXTRACT: note_off channel=9 note=46 velocity=0 time=0.026441822916666666
EXTRACT: note_on channel=14 note=58 velocity=65 time=0.0024038020833333333
EXTRACT: control_change channel=2 control=1 value=38 time=0.0024038020833333333
EXTRACT: control_change channel=2 control=1 value=41 time=0.05769125
EXTRACT: note_off channel=1 note=34 velocity=0 time=0.0024038020833333333
EXTRACT: note_off channel=14 note=58 velocity=0 time=0.024038020833333333
EXTRACT: note_off channel=12 note=58 velocity=0 time=0.019230416666666666
EXTRACT: note_on channel=9 note=46 velocity=63 time=0.009615208333333333
EXTRACT: note_on channel=1 note=34 velocity=73 time=0
EXTRACT: note_on channel=12 note=70 velocity=71 time=0
EXTRACT: note_on channel=14 note=46 velocity=66 time=0
EXTRACT: control_change channel=2 control=1 value=43 time=0.004807604166666667
EXTRACT: note_off channel=9 note=44 velocity=0 time=0.031249427083333333
EXTRACT: note_off channel=12 note=65 velocity=0 time=0.012019010416666667
EXTRACT: control_change channel=2 control=1 value=45 time=0.0144228125
EXTRACT: note_off channel=14 note=46 velocity=0 time=0.024038020833333333
EXTRACT: control_change channel=2 control=1 value=46 time=0.0144228125
EXTRACT: note_off channel=9 note=36 velocity=0 time=0.004807604166666667
EXTRACT: note_on channel=14 note=58 velocity=65 time=0.009615208333333333
EXTRACT: note_off channel=1 note=34 velocity=0 time=0.009615208333333333
EXTRACT: control_change channel=2 control=1 value=48 time=0.0144228125
EXTRACT: control_change channel=2 control=1 value=49 time=0.03846083333333333
EXTRACT: note_off channel=14 note=58 velocity=0 time=0.02163421875
EXTRACT: control_change channel=2 control=1 value=50 time=0.016826614583333333
EXTRACT: note_on channel=9 note=36 velocity=125 time=0.0144228125
EXTRACT: note_on channel=9 note=44 velocity=85 time=0
EXTRACT: note_on channel=1 note=34 velocity=63 time=0
EXTRACT: note_on channel=12 note=58 velocity=67 time=0
EXTRACT: note_on channel=14 note=46 velocity=67 time=0
EXTRACT: control_change channel=2 control=1 value=51 time=0.024038020833333333
EXTRACT: note_off channel=9 note=46 velocity=0 time=0.05288364583333333
EXTRACT: control_change channel=2 control=1 value=52 time=0.004807604166666667
EXTRACT: note_off channel=14 note=46 velocity=0 time=0.009615208333333333
EXTRACT: note_off channel=1 note=34 velocity=0 time=0.02163421875
EXTRACT: note_on channel=14 note=58 velocity=65 time=0.0024038020833333333
EXTRACT: note_off channel=12 note=70 velocity=0 time=0.0024038020833333333
EXTRACT: control_change channel=2 control=1 value=53 time=0.0024038020833333333
EXTRACT: control_change channel=2 control=1 value=54 time=0.03846083333333333
EXTRACT: control_change channel=2 control=1 value=55 time=0.03846083333333333
EXTRACT: note_off channel=14 note=58 velocity=0 time=0.009615208333333333
EXTRACT: note_on channel=9 note=46 velocity=71 time=0.024038020833333333
EXTRACT: note_on channel=1 note=34 velocity=74 time=0
EXTRACT: note_on channel=12 note=65 velocity=68 time=0
EXTRACT: note_on channel=14 note=46 velocity=66 time=0
EXTRACT: control_change channel=2 control=1 value=56 time=0.004807604166666667
EXTRACT: note_off channel=9 note=39 velocity=0 time=0.009615208333333333
EXTRACT: note_off channel=9 note=40 velocity=0 time=0.0024038020833333333
EXTRACT: note_off channel=9 note=36 velocity=0 time=0.06971026041666667
EXTRACT: note_off channel=9 note=44 velocity=0 time=0.0024038020833333333
EXTRACT: note_off channel=14 note=46 velocity=0 time=0.0024038020833333333
EXTRACT: note_on channel=14 note=58 velocity=65 time=0.024038020833333333
EXTRACT: control_change channel=2 control=1 value=57 time=0.004807604166666667
EXTRACT: control_change channel=2 control=1 value=59 time=0.060095052083333336
EXTRACT: note_off channel=14 note=58 velocity=0 time=0.028845625
EXTRACT: note_on channel=9 note=36 velocity=122 time=0.02163421875
EXTRACT: note_on channel=9 note=39 velocity=62 time=0
EXTRACT: note_on channel=9 note=40 velocity=68 time=0
EXTRACT: note_on channel=9 note=44 velocity=101 time=0
EXTRACT: note_on channel=12 note=70 velocity=74 time=0
EXTRACT: note_on channel=14 note=46 velocity=68 time=0
EXTRACT: note_off channel=12 note=65 velocity=0 time=0.04567223958333333
EXTRACT: note_off channel=12 note=58 velocity=0 time=0.00721140625
EXTRACT: control_change channel=2 control=1 value=60 time=0.009615208333333333
EXTRACT: note_off channel=14 note=46 velocity=0 time=0.033653229166666666
EXTRACT: control_change channel=2 control=1 value=61 time=0.004807604166666667
EXTRACT: note_off channel=9 note=46 velocity=0 time=0.0024038020833333333
EXTRACT: note_on channel=14 note=58 velocity=65 time=0.012019010416666667
EXTRACT: note_off channel=1 note=34 velocity=0 time=0.04086463541666667
EXTRACT: control_change channel=2 control=1 value=62 time=0.0432684375
EXTRACT: note_off channel=14 note=58 velocity=0 time=0.016826614583333333
EXTRACT: note_on channel=9 note=46 velocity=70 time=0.0144228125
EXTRACT: note_on channel=1 note=34 velocity=71 time=0
EXTRACT: note_on channel=12 note=58 velocity=67 time=0
EXTRACT: note_on channel=14 note=46 velocity=68 time=0
EXTRACT: control_change channel=2 control=1 value=64 time=0.00721140625
EXTRACT: control_change channel=2 control=1 value=65 time=0.05769125
EXTRACT: note_off channel=9 note=44 velocity=0 time=0.019230416666666666
EXTRACT: note_off channel=14 note=46 velocity=0 time=0.009615208333333333
EXTRACT: note_off channel=9 note=36 velocity=0 time=0.00721140625
EXTRACT: note_on channel=14 note=58 velocity=64 time=0.0144228125
EXTRACT: note_off channel=12 note=70 velocity=0 time=0.009615208333333333
EXTRACT: note_off channel=1 note=34 velocity=0 time=0.00721140625
EXTRACT: control_change channel=2 control=1 value=66 time=0.009615208333333333
EXTRACT: note_off channel=9 note=46 velocity=0 time=0.016826614583333333
EXTRACT: control_change channel=2 control=1 value=67 time=0.02163421875
EXTRACT: note_off channel=14 note=58 velocity=0 time=0.036057031249999996
EXTRACT: note_on channel=9 note=36 velocity=122 time=0.0144228125
EXTRACT: note_on channel=9 note=44 velocity=111 time=0
EXTRACT: note_on channel=1 note=34 velocity=67 time=0
EXTRACT: note_on channel=12 note=65 velocity=65 time=0
EXTRACT: note_on channel=14 note=46 velocity=68 time=0
EXTRACT: control_change channel=2 control=1 value=68 time=0.00721140625
EXTRACT: note_off channel=14 note=46 velocity=0 time=0.086536875
EXTRACT: control_change channel=2 control=1 value=70 time=0.009615208333333333
EXTRACT: note_on channel=14 note=58 velocity=65 time=0.012019010416666667
EXTRACT: note_off channel=1 note=34 velocity=0 time=0.0144228125
EXTRACT: control_change channel=2 control=1 value=71 time=0.012019010416666667
EXTRACT: note_off channel=14 note=58 velocity=0 time=0.07932546875
EXTRACT: note_on channel=9 note=46 velocity=75 time=0.009615208333333333
EXTRACT: note_on channel=1 note=34 velocity=80 time=0
EXTRACT: note_on channel=12 note=70 velocity=74 time=0
EXTRACT: note_on channel=14 note=46 velocity=67 time=0
EXTRACT: note_off channel=12 note=58 velocity=0 time=0.019230416666666666
EXTRACT: note_off channel=9 note=44 velocity=0 time=0.00721140625
EXTRACT: note_off channel=12 note=65 velocity=0 time=0.033653229166666666
EXTRACT: note_off channel=14 note=46 velocity=0 time=0.024038020833333333
EXTRACT: note_off channel=9 note=40 velocity=0 time=0.0024038020833333333
EXTRACT: note_off channel=9 note=39 velocity=0 time=0.00721140625
EXTRACT: note_off channel=9 note=36 velocity=0 time=0.00721140625
EXTRACT: note_on channel=14 note=58 velocity=65 time=0.0144228125
EXTRACT: note_off channel=14 note=58 velocity=0 time=0.10576729166666667
EXTRACT: note_on channel=9 note=36 velocity=122 time=0.009615208333333333
EXTRACT: note_on channel=9 note=39 velocity=66 time=0
EXTRACT: note_on channel=9 note=40 velocity=66 time=0
EXTRACT: note_on channel=9 note=44 velocity=92 time=0
EXTRACT: note_on channel=12 note=58 velocity=68 time=0
EXTRACT: note_on channel=14 note=46 velocity=68 time=0
EXTRACT: note_off channel=12 note=70 velocity=0 time=0.09615208333333333
EXTRACT: note_off channel=14 note=46 velocity=0 time=0.0024038020833333333
EXTRACT: control_change channel=2 control=1 value=69 time=0.004807604166666667
EXTRACT: note_off channel=9 note=46 velocity=0 time=0.009615208333333333
EXTRACT: note_on channel=14 note=58 velocity=65 time=0.0024038020833333333
EXTRACT: control_change channel=2 control=1 value=67 time=0.026441822916666666
EXTRACT: note_off channel=1 note=34 velocity=0 time=0.0144228125
EXTRACT: control_change channel=2 control=1 value=66 time=0.024038020833333333
EXTRACT: note_off channel=14 note=58 velocity=0 time=0.028845625
EXTRACT: control_change channel=2 control=1 value=65 time=0.009615208333333333
EXTRACT: note_on channel=9 note=46 velocity=63 time=0.012019010416666667
EXTRACT: note_on channel=1 note=34 velocity=68 time=0
EXTRACT: note_on channel=12 note=65 velocity=64 time=0
EXTRACT: note_on channel=14 note=46 velocity=67 time=0
EXTRACT: control_change channel=2 control=1 value=64 time=0.026441822916666666
EXTRACT: note_off channel=9 note=44 velocity=0 time=0.009615208333333333
EXTRACT: control_change channel=2 control=1 value=61 time=0.031249427083333333
EXTRACT: note_off channel=14 note=46 velocity=0 time=0.02163421875
EXTRACT: control_change channel=2 control=1 value=59 time=0.016826614583333333
EXTRACT: note_on channel=14 note=58 velocity=65 time=0.009615208333333333
EXTRACT: note_off channel=1 note=34 velocity=0 time=0.0024038020833333333
EXTRACT: control_change channel=2 control=1 value=55 time=0.026441822916666666
EXTRACT: note_off channel=9 note=36 velocity=0 time=0.009615208333333333
EXTRACT: control_change channel=2 control=1 value=48 time=0.028845625
EXTRACT: note_off channel=14 note=58 velocity=0 time=0.028845625
EXTRACT: control_change channel=2 control=1 value=41 time=0.009615208333333333
EXTRACT: note_on channel=9 note=36 velocity=118 time=0.009615208333333333
EXTRACT: note_on channel=9 note=44 velocity=85 time=0
EXTRACT: note_on channel=1 note=34 velocity=68 time=0
EXTRACT: note_on channel=12 note=70 velocity=71 time=0
EXTRACT: note_on channel=14 note=46 velocity=68 time=0
EXTRACT: control_change channel=2 control=1 value=32 time=0.028845625
EXTRACT: note_off channel=12 note=58 velocity=0 time=0.012019010416666667
EXTRACT: note_off channel=12 note=65 velocity=0 time=0.02163421875
EXTRACT: control_change channel=2 control=1 value=20 time=0.004807604166666667
EXTRACT: note_off channel=9 note=46 velocity=0 time=0.009615208333333333
EXTRACT: note_off channel=14 note=46 velocity=0 time=0.012019010416666667
EXTRACT: control_change channel=2 control=1 value=7 time=0.016826614583333333
EXTRACT: note_on channel=14 note=58 velocity=64 time=0.009615208333333333
EXTRACT: note_off channel=1 note=34 velocity=0 time=0.004807604166666667
EXTRACT: control_change channel=2 control=1 value=0 time=0.026441822916666666
EXTRACT: note_off channel=14 note=58 velocity=0 time=0.07211406249999999
EXTRACT: note_on channel=9 note=46 velocity=71 time=0.012019010416666667
EXTRACT: note_on channel=1 note=34 velocity=91 time=0
EXTRACT: note_on channel=12 note=58 velocity=67 time=0
EXTRACT: note_on channel=14 note=46 velocity=67 time=0
EXTRACT: note_off channel=9 note=40 velocity=0 time=0.086536875
EXTRACT: note_off channel=9 note=39 velocity=0 time=0
EXTRACT: note_off channel=9 note=44 velocity=0 time=0.0024038020833333333
EXTRACT: note_off channel=14 note=46 velocity=0 time=0.004807604166666667
EXTRACT: note_off channel=9 note=36 velocity=0 time=0.0024038020833333333
EXTRACT: note_off channel=12 note=70 velocity=0 time=0.00721140625
EXTRACT: note_on channel=14 note=58 velocity=65 time=0.012019010416666667
EXTRACT: note_off channel=14 note=58 velocity=0 time=0.1009596875
EXTRACT: note_on channel=9 note=36 velocity=122 time=0.0144228125
EXTRACT: note_on channel=9 note=39 velocity=71 time=0
EXTRACT: note_on channel=9 note=40 velocity=72 time=0
EXTRACT: note_on channel=9 note=44 velocity=101 time=0
EXTRACT: note_on channel=12 note=65 velocity=66 time=0
EXTRACT: note_on channel=14 note=46 velocity=68 time=0
EXTRACT: note_off channel=14 note=46 velocity=0 time=0.09134447916666666
EXTRACT: note_off channel=9 note=46 velocity=0 time=0.012019010416666667
EXTRACT: note_on channel=14 note=58 velocity=65 time=0.012019010416666667
EXTRACT: note_off channel=1 note=34 velocity=0 time=0.07692166666666667
EXTRACT: note_off channel=14 note=58 velocity=0 time=0.019230416666666666
EXTRACT: note_off channel=12 note=58 velocity=0 time=0.009615208333333333
EXTRACT: note_on channel=9 note=46 velocity=70 time=0.009615208333333333
EXTRACT: note_on channel=1 note=32 velocity=88 time=0
EXTRACT: note_on channel=12 note=70 velocity=73 time=0
EXTRACT: note_on channel=14 note=46 velocity=67 time=0
EXTRACT: note_off channel=12 note=65 velocity=0 time=0.033653229166666666
EXTRACT: note_off channel=2 note=82 velocity=0 time=0.009615208333333333
EXTRACT: note_off channel=9 note=44 velocity=0 time=0.04086463541666667
EXTRACT: note_off channel=14 note=46 velocity=0 time=0.009615208333333333
EXTRACT: note_off channel=9 note=36 velocity=0 time=0.012019010416666667
EXTRACT: note_on channel=14 note=58 velocity=66 time=0.009615208333333333
EXTRACT: note_off channel=9 note=46 velocity=0 time=0.0432684375
EXTRACT: note_off channel=1 note=32 velocity=0 time=0.04086463541666667
EXTRACT: note_off channel=14 note=58 velocity=0 time=0.009615208333333333
EXTRACT: note_on channel=9 note=36 velocity=122 time=0.02163421875
EXTRACT: note_on channel=9 note=44 velocity=111 time=0
EXTRACT: note_on channel=1 note=34 velocity=95 time=0
EXTRACT: note_on channel=7 note=68 velocity=67 time=0
EXTRACT: note_on channel=12 note=58 velocity=68 time=0
EXTRACT: note_on channel=14 note=46 velocity=70 time=0
EXTRACT: note_off channel=14 note=46 velocity=0 time=0.086536875
EXTRACT: note_off channel=1 note=34 velocity=0 time=0.016826614583333333
EXTRACT: note_off channel=12 note=70 velocity=0 time=0.0024038020833333333
EXTRACT: note_on channel=14 note=58 velocity=66 time=0.009615208333333333
EXTRACT: note_off channel=7 note=70 velocity=0 time=0.009615208333333333
EXTRACT: note_off channel=14 note=58 velocity=0 time=0.10336348958333333
EXTRACT: note_on channel=9 note=46 velocity=75 time=0.0024038020833333333
EXTRACT: note_on channel=1 note=34 velocity=82 time=0
EXTRACT: note_on channel=12 note=65 velocity=68 time=0
EXTRACT: note_on channel=14 note=46 velocity=68 time=0
EXTRACT: note_off channel=9 note=44 velocity=0 time=0.026441822916666666
EXTRACT: note_off channel=9 note=40 velocity=0 time=0.026441822916666666
EXTRACT: note_off channel=9 note=39 velocity=0 time=0
EXTRACT: note_off channel=14 note=46 velocity=0 time=0.019230416666666666
EXTRACT: note_off channel=9 note=36 velocity=0 time=0.031249427083333333
EXTRACT: note_on channel=14 note=58 velocity=65 time=0.012019010416666667
EXTRACT: note_off channel=14 note=58 velocity=0 time=0.08413307291666666
EXTRACT: note_on channel=9 note=36 velocity=122 time=0.031249427083333333
EXTRACT: note_on channel=9 note=39 velocity=76 time=0
EXTRACT: note_on channel=9 note=40 velocity=74 time=0
EXTRACT: note_on channel=9 note=44 velocity=92 time=0
EXTRACT: note_on channel=2 note=80 velocity=107 time=0
EXTRACT: note_off channel=12 note=58 velocity=0 time=0
EXTRACT: note_on channel=12 note=70 velocity=74 time=0
EXTRACT: note_on channel=14 note=46 velocity=68 time=0
EXTRACT: note_off channel=12 note=65 velocity=0 time=0.05769125
EXTRACT: note_off channel=14 note=46 velocity=0 time=0.028845625
EXTRACT: note_off channel=9 note=46 velocity=0 time=0.026441822916666666
EXTRACT: note_on channel=14 note=58 velocity=65 time=0.0024038020833333333
EXTRACT: control_change channel=2 control=1 value=1 time=0.012019010416666667
EXTRACT: note_off channel=1 note=34 velocity=0 time=0.05047984375
EXTRACT: note_off channel=14 note=58 velocity=0 time=0.024038020833333333
EXTRACT: control_change channel=2 control=1 value=6 time=0.0024038020833333333
EXTRACT: note_on channel=9 note=46 velocity=63 time=0.026441822916666666
EXTRACT: note_on channel=1 note=34 velocity=73 time=0
EXTRACT: note_on channel=12 note=58 velocity=71 time=0
EXTRACT: note_on channel=14 note=46 velocity=66 time=0
EXTRACT: control_change channel=2 control=1 value=13 time=0.0144228125
EXTRACT: note_off channel=9 note=44 velocity=0 time=0.02163421875
EXTRACT: control_change channel=2 control=1 value=21 time=0.016826614583333333
EXTRACT: note_off channel=12 note=70 velocity=0 time=0.019230416666666666
EXTRACT: note_off channel=14 note=46 velocity=0 time=0.0144228125
EXTRACT: note_off channel=9 note=36 velocity=0 time=0.004807604166666667
EXTRACT: control_change channel=2 control=1 value=28 time=0
EXTRACT: note_on channel=14 note=58 velocity=65 time=0.024038020833333333
EXTRACT: note_off channel=1 note=34 velocity=0 time=0.009615208333333333
EXTRACT: control_change channel=2 control=1 value=31 time=0.004807604166666667
EXTRACT: note_off channel=2 note=80 velocity=0 time=0.024038020833333333
EXTRACT: note_off channel=14 note=58 velocity=0 time=0.04567223958333333
EXTRACT: note_on channel=9 note=36 velocity=122 time=0.031249427083333333
EXTRACT: note_on channel=9 note=44 velocity=85 time=0
EXTRACT: note_on channel=1 note=34 velocity=63 time=0
EXTRACT: note_on channel=2 note=80 velocity=99 time=0
EXTRACT: note_on channel=12 note=65 velocity=64 time=0
EXTRACT: note_on channel=14 note=46 velocity=67 time=0
EXTRACT: note_off channel=9 note=46 velocity=0 time=0.07692166666666667
EXTRACT: note_off channel=14 note=46 velocity=0 time=0.0144228125
EXTRACT: note_off channel=1 note=34 velocity=0 time=0.02163421875
EXTRACT: note_on channel=14 note=58 velocity=65 time=0.0024038020833333333
EXTRACT: control_change channel=2 control=1 value=32 time=0.036057031249999996
EXTRACT: note_off channel=14 note=58 velocity=0 time=0.05528744791666666
EXTRACT: control_change channel=2 control=1 value=34 time=0.0024038020833333333
EXTRACT: note_off channel=12 note=58 velocity=0 time=0.0144228125
EXTRACT: note_on channel=9 note=46 velocity=71 time=0.00721140625
EXTRACT: note_on channel=1 note=34 velocity=74 time=0
EXTRACT: note_on channel=12 note=70 velocity=80 time=0
EXTRACT: note_on channel=14 note=46 velocity=66 time=0
EXTRACT: control_change channel=2 control=1 value=35 time=0.016826614583333333
EXTRACT: note_off channel=12 note=65 velocity=0 time=0.024038020833333333
EXTRACT: control_change channel=2 control=1 value=36 time=0.0144228125
EXTRACT: note_off channel=9 note=44 velocity=0 time=0.033653229166666666
EXTRACT: note_off channel=9 note=39 velocity=0 time=0.0024038020833333333
EXTRACT: note_off channel=14 note=46 velocity=0 time=0
EXTRACT: note_off channel=9 note=40 velocity=0 time=0.0024038020833333333
EXTRACT: control_change channel=2 control=1 value=38 time=0
EXTRACT: note_off channel=2 note=80 velocity=0 time=0.0024038020833333333
EXTRACT: note_on channel=14 note=58 velocity=65 time=0.019230416666666666
EXTRACT: note_off channel=9 note=36 velocity=0 time=0.009615208333333333
EXTRACT: control_change channel=2 control=1 value=40 time=0.009615208333333333
EXTRACT: control_change channel=2 control=1 value=42 time=0.03846083333333333
EXTRACT: note_off channel=14 note=58 velocity=0 time=0.036057031249999996
EXTRACT: control_change channel=2 control=1 value=44 time=0.0024038020833333333
EXTRACT: note_on channel=9 note=36 velocity=122 time=0.019230416666666666
EXTRACT: note_on channel=9 note=39 velocity=72 time=0
EXTRACT: note_on channel=9 note=40 velocity=74 time=0
EXTRACT: note_on channel=9 note=44 velocity=101 time=0
EXTRACT: note_on channel=2 note=80 velocity=103 time=0
EXTRACT: note_on channel=12 note=58 velocity=71 time=0
EXTRACT: note_on channel=14 note=46 velocity=68 time=0
EXTRACT: control_change channel=2 control=1 value=45 time=0.019230416666666666
EXTRACT: note_off channel=12 note=70 velocity=0 time=0.05288364583333333
EXTRACT: note_off channel=14 note=46 velocity=0 time=0.024038020833333333
EXTRACT: note_off channel=9 note=46 velocity=0 time=0.00721140625
EXTRACT: note_on channel=14 note=58 velocity=65 time=0.012019010416666667
EXTRACT: note_off channel=1 note=34 velocity=0 time=0.04086463541666667
EXTRACT: note_off channel=14 note=58 velocity=0 time=0.060095052083333336
EXTRACT: note_on channel=9 note=46 velocity=70 time=0.0144228125
EXTRACT: note_on channel=1 note=34 velocity=71 time=0
EXTRACT: note_on channel=12 note=65 velocity=66 time=0
EXTRACT: note_on channel=14 note=46 velocity=68 time=0
EXTRACT: note_off channel=9 note=36 velocity=0 time=0.07692166666666667
EXTRACT: note_off channel=9 note=44 velocity=0 time=0.00721140625
EXTRACT: note_off channel=14 note=46 velocity=0 time=0.009615208333333333
EXTRACT: note_off channel=2 note=80 velocity=0 time=0.016826614583333333
EXTRACT: control_change channel=2 control=1 value=41 time=0.004807604166666667
EXTRACT: note_on channel=14 note=58 velocity=64 time=0
EXTRACT: note_off channel=1 note=34 velocity=0 time=0.016826614583333333
EXTRACT: control_change channel=2 control=1 value=29 time=0.024038020833333333
EXTRACT: note_off channel=9 note=46 velocity=0 time=0.0024038020833333333
EXTRACT: control_change channel=2 control=1 value=9 time=0.036057031249999996
EXTRACT: note_off channel=14 note=58 velocity=0 time=0.02163421875
EXTRACT: note_on channel=9 note=36 velocity=125 time=0.0144228125
EXTRACT: note_on channel=9 note=44 velocity=111 time=0
EXTRACT: note_on channel=1 note=34 velocity=67 time=0
EXTRACT: note_on channel=2 note=80 velocity=99 time=0
EXTRACT: note_on channel=12 note=70 velocity=74 time=0
EXTRACT: note_on channel=14 note=46 velocity=68 time=0
EXTRACT: control_change channel=2 control=1 value=0 time=0.0024038020833333333
EXTRACT: note_off channel=12 note=58 velocity=0 time=0.024038020833333333
EXTRACT: note_off channel=12 note=65 velocity=0 time=0.024038020833333333
EXTRACT: note_off channel=14 note=46 velocity=0 time=0.0432684375
EXTRACT: note_on channel=14 note=58 velocity=65 time=0.02163421875
EXTRACT: note_off channel=1 note=34 velocity=0 time=0.0144228125
EXTRACT: note_off channel=14 note=58 velocity=0 time=0.09134447916666666
EXTRACT: note_on channel=9 note=46 velocity=75 time=0.009615208333333333
EXTRACT: note_on channel=1 note=34 velocity=80 time=0
EXTRACT: note_on channel=12 note=58 velocity=71 time=0
EXTRACT: note_on channel=14 note=46 velocity=67 time=0
EXTRACT: note_off channel=9 note=44 velocity=0 time=0.026441822916666666
EXTRACT: note_off channel=9 note=40 velocity=0 time=0.031249427083333333
EXTRACT: note_off channel=9 note=39 velocity=0 time=0
EXTRACT: note_off channel=14 note=46 velocity=0 time=0.026441822916666666
EXTRACT: note_off channel=12 note=70 velocity=0 time=0.016826614583333333
EXTRACT: note_off channel=2 note=80 velocity=0 time=0.004807604166666667
EXTRACT: note_off channel=9 note=36 velocity=0 time=0.00721140625
EXTRACT: note_on channel=14 note=58 velocity=65 time=0.0024038020833333333
EXTRACT: note_off channel=14 note=58 velocity=0 time=0.10576729166666667
EXTRACT: note_on channel=9 note=36 velocity=122 time=0.009615208333333333
EXTRACT: note_on channel=9 note=39 velocity=80 time=0
EXTRACT: note_on channel=9 note=40 velocity=78 time=0
EXTRACT: note_on channel=9 note=44 velocity=92 time=0
EXTRACT: note_on channel=2 note=80 velocity=98 time=0
EXTRACT: note_on channel=12 note=65 velocity=62 time=0
EXTRACT: note_on channel=14 note=46 velocity=68 time=0
EXTRACT: note_off channel=14 note=46 velocity=0 time=0.09855588541666667
EXTRACT: note_off channel=9 note=46 velocity=0 time=0.0144228125
EXTRACT: note_off channel=2 note=80 velocity=0 time=0
EXTRACT: note_on channel=14 note=58 velocity=65 time=0.0024038020833333333
EXTRACT: note_off channel=1 note=34 velocity=0 time=0.04086463541666667
EXTRACT: note_off channel=14 note=58 velocity=0 time=0.05288364583333333
EXTRACT: note_on channel=9 note=46 velocity=63 time=0.02163421875
EXTRACT: note_on channel=1 note=34 velocity=68 time=0
EXTRACT: note_on channel=2 note=80 velocity=96 time=0
EXTRACT: note_on channel=12 note=70 velocity=78 time=0
EXTRACT: note_on channel=14 note=46 velocity=67 time=0
EXTRACT: note_off channel=12 note=58 velocity=0 time=0.00721140625
EXTRACT: note_off channel=9 note=44 velocity=0 time=0.028845625
EXTRACT: note_off channel=12 note=65 velocity=0 time=0.012019010416666667
EXTRACT: note_off channel=14 note=46 velocity=0 time=0.04086463541666667
EXTRACT: note_off channel=9 note=36 velocity=0 time=0.026441822916666666
EXTRACT: note_on channel=14 note=58 velocity=65 time=0
EXTRACT: note_off channel=1 note=34 velocity=0 time=0.0024038020833333333
EXTRACT: note_off channel=2 note=80 velocity=0 time=0
EXTRACT: note_off channel=14 note=58 velocity=0 time=0.09374828125
EXTRACT: note_on channel=9 note=36 velocity=125 time=0.019230416666666666
EXTRACT: note_on channel=9 note=44 velocity=85 time=0
EXTRACT: note_on channel=1 note=34 velocity=68 time=0
EXTRACT: note_on channel=2 note=80 velocity=103 time=0
EXTRACT: note_on channel=12 note=58 velocity=73 time=0
EXTRACT: note_on channel=14 note=46 velocity=68 time=0
EXTRACT: note_off channel=12 note=70 velocity=0 time=0.0144228125
EXTRACT: control_change channel=2 control=1 value=2 time=0.05288364583333333
EXTRACT: note_off channel=9 note=46 velocity=0 time=0.009615208333333333
EXTRACT: note_off channel=14 note=46 velocity=0 time=0.012019010416666667
EXTRACT: control_change channel=2 control=1 value=10 time=0.016826614583333333
EXTRACT: note_on channel=14 note=58 velocity=64 time=0.009615208333333333
EXTRACT: note_off channel=1 note=34 velocity=0 time=0.004807604166666667
EXTRACT: control_change channel=2 control=1 value=20 time=0.024038020833333333
EXTRACT: control_change channel=2 control=1 value=29 time=0.03846083333333333
EXTRACT: note_off channel=14 note=58 velocity=0 time=0.036057031249999996
EXTRACT: control_change channel=2 control=1 value=38 time=0.004807604166666667
EXTRACT: note_on channel=9 note=46 velocity=71 time=0.00721140625
EXTRACT: note_on channel=1 note=34 velocity=91 time=0
EXTRACT: note_on channel=12 note=65 velocity=65 time=0
EXTRACT: note_on channel=14 note=46 velocity=67 time=0
EXTRACT: control_change channel=2 control=1 value=45 time=0.031249427083333333
EXTRACT: note_off channel=9 note=40 velocity=0 time=0.02163421875
EXTRACT: note_off channel=9 note=39 velocity=0 time=0.0024038020833333333
EXTRACT: control_change channel=2 control=1 value=53 time=0.0144228125
EXTRACT: note_off channel=9 note=36 velocity=0 time=0.016826614583333333
EXTRACT: note_off channel=9 note=44 velocity=0 time=0.0024038020833333333
EXTRACT: note_off channel=14 note=46 velocity=0 time=0.004807604166666667
EXTRACT: control_change channel=2 control=1 value=59 time=0.0144228125
EXTRACT: note_on channel=14 note=58 velocity=65 time=0.00721140625
EXTRACT: control_change channel=2 control=1 value=63 time=0.031249427083333333
EXTRACT: control_change channel=2 control=1 value=66 time=0.03846083333333333
EXTRACT: note_off channel=14 note=58 velocity=0 time=0.031249427083333333
EXTRACT: control_change channel=2 control=1 value=71 time=0.00721140625
EXTRACT: note_on channel=9 note=36 velocity=122 time=0.00721140625
EXTRACT: note_on channel=9 note=39 velocity=86 time=0
EXTRACT: note_on channel=9 note=40 velocity=86 time=0
EXTRACT: note_on channel=9 note=44 velocity=101 time=0
EXTRACT: note_off channel=12 note=58 velocity=0 time=0
EXTRACT: note_on channel=12 note=70 velocity=74 time=0
EXTRACT: note_on channel=14 note=46 velocity=68 time=0
EXTRACT: note_off channel=12 note=65 velocity=0 time=0.028845625
EXTRACT: control_change channel=2 control=1 value=76 time=0.0024038020833333333
EXTRACT: control_change channel=2 control=1 value=79 time=0.03846083333333333
EXTRACT: note_off channel=14 note=46 velocity=0 time=0.02163421875
EXTRACT: note_off channel=7 note=68 velocity=0 time=0.004807604166666667
EXTRACT: note_off channel=9 note=46 velocity=0 time=0.00721140625
EXTRACT: note_on channel=14 note=58 velocity=65 time=0.012019010416666667
EXTRACT: note_off channel=9 note=36 velocity=0 time=0.016826614583333333
EXTRACT: control_change channel=2 control=1 value=74 time=0.036057031249999996
EXTRACT: note_off channel=1 note=34 velocity=0 time=0.024038020833333333
EXTRACT: control_change channel=2 control=1 value=58 time=0.0144228125
EXTRACT: note_off channel=14 note=58 velocity=0 time=0.004807604166666667
EXTRACT: note_on channel=9 note=36 velocity=122 time=0.019230416666666666
EXTRACT: note_on channel=9 note=46 velocity=70 time=0
EXTRACT: note_on channel=1 note=32 velocity=88 time=0
EXTRACT: note_on channel=12 note=58 velocity=73 time=0
EXTRACT: note_on channel=14 note=46 velocity=67 time=0
EXTRACT: note_off channel=2 note=80 velocity=0 time=0.012019010416666667
EXTRACT: control_change channel=2 control=1 value=23 time=0.0024038020833333333
EXTRACT: note_off channel=12 note=70 velocity=0 time=0.036057031249999996
EXTRACT: control_change channel=2 control=1 value=0 time=0.0024038020833333333
EXTRACT: note_off channel=9 note=39 velocity=0 time=0.004807604166666667
EXTRACT: note_off channel=9 note=40 velocity=0 time=0.004807604166666667
EXTRACT: note_off channel=9 note=44 velocity=0 time=0.02163421875
EXTRACT: note_off channel=14 note=46 velocity=0 time=0.009615208333333333
EXTRACT: note_on channel=14 note=58 velocity=66 time=0.02163421875
EXTRACT: note_off channel=9 note=36 velocity=0 time=0.02163421875
EXTRACT: note_off channel=9 note=46 velocity=0 time=0.02163421875
EXTRACT: note_off channel=12 note=58 velocity=0 time=0.031249427083333333
EXTRACT: note_off channel=1 note=32 velocity=0 time=0.009615208333333333
EXTRACT: note_off channel=14 note=58 velocity=0 time=0.009615208333333333
EXTRACT: note_on channel=9 note=36 velocity=125 time=0.02163421875
EXTRACT: note_on channel=9 note=44 velocity=111 time=0
EXTRACT: note_on channel=9 note=49 velocity=80 time=0
EXTRACT: note_on channel=9 note=57 velocity=89 time=0
EXTRACT: note_on channel=1 note=34 velocity=104 time=0
EXTRACT: note_on channel=12 note=53 velocity=88 time=0
EXTRACT: note_on channel=12 note=58 velocity=78 time=0
EXTRACT: note_on channel=12 note=62 velocity=76 time=0
EXTRACT: note_on channel=14 note=46 velocity=70 time=0
EXTRACT: note_off channel=9 note=49 velocity=0 time=0.07692166666666667
EXTRACT: note_off channel=14 note=46 velocity=0 time=0.009615208333333333
EXTRACT: note_off channel=9 note=57 velocity=0 time=0.0024038020833333333
EXTRACT: note_off channel=12 note=58 velocity=0 time=0.00721140625
EXTRACT: note_off channel=9 note=36 velocity=0 time=0.00721140625
EXTRACT: note_off channel=12 note=62 velocity=0 time=0.009615208333333333
EXTRACT: note_on channel=14 note=58 velocity=66 time=0.0024038020833333333
EXTRACT: note_off channel=12 note=53 velocity=0 time=0.00721140625
EXTRACT: note_off channel=14 note=58 velocity=0 time=0.10576729166666667
EXTRACT: note_on channel=9 note=46 velocity=75 time=0.0024038020833333333
EXTRACT: note_on channel=14 note=46 velocity=68 time=0
EXTRACT: note_off channel=9 note=44 velocity=0 time=0.026441822916666666
EXTRACT: note_off channel=14 note=46 velocity=0 time=0.04567223958333333
EXTRACT: note_on channel=14 note=58 velocity=65 time=0.0432684375
EXTRACT: note_off channel=1 note=34 velocity=0 time=0.07932546875
EXTRACT: note_off channel=14 note=58 velocity=0 time=0.004807604166666667
EXTRACT: note_on channel=9 note=36 velocity=107 time=0.031249427083333333
EXTRACT: note_on channel=9 note=39 velocity=78 time=0
EXTRACT: note_on channel=9 note=40 velocity=74 time=0
EXTRACT: note_on channel=9 note=44 velocity=92 time=0
EXTRACT: note_on channel=1 note=29 velocity=73 time=0
EXTRACT: note_on channel=3 note=62 velocity=97 time=0
EXTRACT: note_on channel=4 note=74 velocity=87 time=0
EXTRACT: note_on channel=12 note=53 velocity=80 time=0
EXTRACT: note_on channel=12 note=58 velocity=73 time=0
EXTRACT: note_on channel=12 note=62 velocity=73 time=0
EXTRACT: note_on channel=14 note=46 velocity=68 time=0
EXTRACT: note_off channel=14 note=46 velocity=0 time=0.086536875
EXTRACT: note_off channel=12 note=62 velocity=0 time=0.016826614583333333
EXTRACT: note_off channel=9 note=46 velocity=0 time=0.009615208333333333
EXTRACT: note_off channel=12 note=58 velocity=0 time=0
EXTRACT: note_on channel=14 note=58 velocity=65 time=0.0024038020833333333
EXTRACT: note_off channel=12 note=53 velocity=0 time=0.00721140625
EXTRACT: note_off channel=9 note=36 velocity=0 time=0.009615208333333333
EXTRACT: note_off channel=3 note=62 velocity=0 time=0.026441822916666666
EXTRACT: note_off channel=4 note=74 velocity=0 time=0
EXTRACT: note_off channel=1 note=29 velocity=0 time=0.009615208333333333
EXTRACT: note_off channel=14 note=58 velocity=0 time=0.033653229166666666
EXTRACT: note_on channel=9 note=46 velocity=63 time=0.028845625
EXTRACT: note_on channel=1 note=27 velocity=88 time=0
EXTRACT: note_on channel=3 note=62 velocity=97 time=0
EXTRACT: note_on channel=4 note=74 velocity=87 time=0
EXTRACT: note_on channel=12 note=53 velocity=76 time=0
EXTRACT: note_on channel=12 note=58 velocity=74 time=0
EXTRACT: note_on channel=12 note=63 velocity=74 time=0
EXTRACT: note_on channel=14 note=46 velocity=66 time=0
EXTRACT: note_off channel=9 note=44 velocity=0 time=0.036057031249999996
EXTRACT: note_off channel=14 note=46 velocity=0 time=0.05047984375
EXTRACT: note_off channel=12 note=53 velocity=0 time=0.026441822916666666
EXTRACT: note_on channel=14 note=58 velocity=65 time=0.0024038020833333333
EXTRACT: note_off channel=12 note=58 velocity=0 time=0.016826614583333333
EXTRACT: note_off channel=12 note=63 velocity=0 time=0.012019010416666667
EXTRACT: note_off channel=14 note=58 velocity=0 time=0.05528744791666666
EXTRACT: note_on channel=9 note=36 velocity=93 time=0.031249427083333333
EXTRACT: note_on channel=9 note=44 velocity=85 time=0
EXTRACT: note_on channel=3 note=62 velocity=97 time=0
EXTRACT: note_on channel=4 note=74 velocity=87 time=0
EXTRACT: note_on channel=14 note=46 velocity=67 time=0
EXTRACT: note_off channel=3 note=62 velocity=0 time=0.030047526041666668
EXTRACT: note_off channel=4 note=74 velocity=0 time=0
EXTRACT: note_off channel=9 note=46 velocity=0 time=0.046874140625
EXTRACT: note_off channel=14 note=46 velocity=0 time=0.0144228125
EXTRACT: note_on channel=14 note=58 velocity=65 time=0.024038020833333333
EXTRACT: note_off channel=3 note=62 velocity=0 time=0.0432684375
EXTRACT: note_off channel=4 note=74 velocity=0 time=0.0012019010416666667
EXTRACT: note_off channel=1 note=27 velocity=0 time=0.020432317708333335
EXTRACT: note_off channel=14 note=58 velocity=0 time=0.026441822916666666
EXTRACT: note_on channel=9 note=46 velocity=71 time=0.024038020833333333
EXTRACT: note_on channel=1 note=27 velocity=95 time=0
EXTRACT: note_on channel=3 note=62 velocity=97 time=0
EXTRACT: note_on channel=4 note=74 velocity=87 time=0
EXTRACT: note_on channel=12 note=53 velocity=71 time=0
EXTRACT: note_on channel=12 note=58 velocity=78 time=0
EXTRACT: note_on channel=12 note=63 velocity=78 time=0
EXTRACT: note_on channel=14 note=46 velocity=66 time=0
EXTRACT: note_off channel=9 note=36 velocity=0 time=0.028845625
EXTRACT: note_off channel=9 note=44 velocity=0 time=0.060095052083333336
EXTRACT: note_off channel=14 note=46 velocity=0 time=0.0024038020833333333
EXTRACT: note_off channel=9 note=39 velocity=0 time=0.0024038020833333333
EXTRACT: note_off channel=9 note=40 velocity=0 time=0.009615208333333333
EXTRACT: note_on channel=14 note=58 velocity=65 time=0.012019010416666667
EXTRACT: note_off channel=14 note=58 velocity=0 time=0.09374828125
EXTRACT: note_on channel=9 note=36 velocity=125 time=0.02163421875
EXTRACT: note_on channel=9 note=39 velocity=62 time=0
EXTRACT: note_on channel=9 note=40 velocity=66 time=0
EXTRACT: note_on channel=9 note=44 velocity=101 time=0
EXTRACT: note_on channel=14 note=46 velocity=68 time=0
EXTRACT: note_off channel=14 note=46 velocity=0 time=0.09615208333333333
EXTRACT: note_off channel=9 note=46 velocity=0 time=0.00721140625
EXTRACT: note_off channel=12 note=53 velocity=0 time=0.004807604166666667
EXTRACT: note_on channel=14 note=58 velocity=65 time=0.00721140625
EXTRACT: note_off channel=12 note=58 velocity=0 time=0.00721140625
EXTRACT: note_off channel=12 note=63 velocity=0 time=0.0144228125
EXTRACT: note_off channel=14 note=58 velocity=0 time=0.07932546875
EXTRACT: note_off channel=1 note=27 velocity=0 time=0.012019010416666667
EXTRACT: note_off channel=3 note=62 velocity=0 time=0
EXTRACT: note_off channel=4 note=74 velocity=0 time=0
EXTRACT: note_on channel=9 note=46 velocity=70 time=0.0024038020833333333
EXTRACT: note_on channel=1 note=31 velocity=62 time=0
EXTRACT: note_on channel=3 note=65 velocity=97 time=0
EXTRACT: note_on channel=4 note=77 velocity=87 time=0
EXTRACT: note_on channel=12 note=53 velocity=71 time=0
EXTRACT: note_on channel=12 note=58 velocity=73 time=0
EXTRACT: note_on channel=12 note=63 velocity=68 time=0
EXTRACT: note_on channel=14 note=46 velocity=68 time=0
EXTRACT: note_off channel=9 note=44 velocity=0 time=0.08413307291666666
EXTRACT: note_off channel=9 note=36 velocity=0 time=0.0024038020833333333
EXTRACT: note_off channel=14 note=46 velocity=0 time=0.00721140625
EXTRACT: note_on channel=14 note=58 velocity=64 time=0.02163421875
EXTRACT: note_off channel=12 note=53 velocity=0 time=0.00721140625
EXTRACT: note_off channel=12 note=58 velocity=0 time=0.012019010416666667
EXTRACT: note_off channel=9 note=46 velocity=0 time=0.024038020833333333
EXTRACT: note_off channel=12 note=63 velocity=0 time=0.004807604166666667
EXTRACT: note_off channel=1 note=31 velocity=0 time=0.016826614583333333
EXTRACT: note_off channel=14 note=58 velocity=0 time=0.036057031249999996
EXTRACT: note_on channel=9 note=36 velocity=118 time=0.0144228125
EXTRACT: note_on channel=9 note=44 velocity=111 time=0
EXTRACT: note_on channel=1 note=34 velocity=82 time=0
EXTRACT: note_on channel=12 note=53 velocity=74 time=0
EXTRACT: note_on channel=12 note=58 velocity=73 time=0
EXTRACT: note_on channel=12 note=62 velocity=71 time=0
EXTRACT: note_on channel=14 note=46 velocity=68 time=0
EXTRACT: note_off channel=12 note=58 velocity=0 time=0.09374828125
EXTRACT: note_off channel=14 note=46 velocity=0 time=0
EXTRACT: note_off channel=12 note=62 velocity=0 time=0.012019010416666667
EXTRACT: note_off channel=12 note=53 velocity=0 time=0.004807604166666667
EXTRACT: note_on channel=14 note=58 velocity=65 time=0.004807604166666667
EXTRACT: note_off channel=3 note=65 velocity=0 time=0.05047984375
EXTRACT: note_off channel=4 note=77 velocity=0 time=0
EXTRACT: note_off channel=14 note=58 velocity=0 time=0.05528744791666666
EXTRACT: note_on channel=9 note=46 velocity=75 time=0.009615208333333333
EXTRACT: note_on channel=3 note=65 velocity=97 time=0
EXTRACT: note_on channel=4 note=77 velocity=87 time=0
EXTRACT: note_on channel=14 note=46 velocity=67 time=0
EXTRACT: note_off channel=9 note=44 velocity=0 time=0.026441822916666666
EXTRACT: note_off channel=9 note=36 velocity=0 time=0.05047984375
EXTRACT: note_off channel=14 note=46 velocity=0 time=0.00721140625
EXTRACT: note_off channel=9 note=40 velocity=0 time=0.012019010416666667
EXTRACT: note_off channel=9 note=39 velocity=0 time=0.009615208333333333
EXTRACT: note_on channel=14 note=58 velocity=65 time=0.009615208333333333
EXTRACT: note_off channel=14 note=58 velocity=0 time=0.10576729166666667
EXTRACT: note_off channel=1 note=34 velocity=0 time=0.004807604166666667
EXTRACT: note_on channel=9 note=36 velocity=118 time=0.004807604166666667
EXTRACT: note_on channel=9 note=39 velocity=66 time=0
EXTRACT: note_on channel=9 note=40 velocity=74 time=0
EXTRACT: note_on channel=9 note=44 velocity=92 time=0
EXTRACT: note_on channel=1 note=29 velocity=76 time=0
EXTRACT: note_on channel=12 note=53 velocity=82 time=0
EXTRACT: note_on channel=12 note=58 velocity=78 time=0
EXTRACT: note_on channel=12 note=62 velocity=73 time=0
EXTRACT: note_on channel=14 note=46 velocity=68 time=0
EXTRACT: note_off channel=14 note=46 velocity=0 time=0.09855588541666667
EXTRACT: note_off channel=9 note=46 velocity=0 time=0.0144228125
EXTRACT: note_on channel=14 note=58 velocity=65 time=0.0024038020833333333
EXTRACT: note_off channel=12 note=62 velocity=0 time=0.033653229166666666
EXTRACT: note_off channel=12 note=58 velocity=0 time=0
EXTRACT: note_off channel=12 note=53 velocity=0 time=0
EXTRACT: note_off channel=3 note=65 velocity=0 time=0.037258932291666665
EXTRACT: note_off channel=4 note=77 velocity=0 time=0
EXTRACT: note_off channel=14 note=58 velocity=0 time=0.022836119791666665
EXTRACT: note_off channel=1 note=29 velocity=0 time=0.016826614583333333
EXTRACT: note_on channel=9 note=46 velocity=63 time=0.004807604166666667
EXTRACT: note_on channel=1 note=27 velocity=91 time=0
EXTRACT: note_on channel=3 note=65 velocity=97 time=0
EXTRACT: note_on channel=4 note=77 velocity=87 time=0
EXTRACT: note_on channel=12 note=53 velocity=82 time=0
EXTRACT: note_on channel=12 note=58 velocity=80 time=0
EXTRACT: note_on channel=12 note=63 velocity=80 time=0
EXTRACT: note_on channel=14 note=46 velocity=67 time=0
EXTRACT: note_off channel=9 note=44 velocity=0 time=0.036057031249999996
EXTRACT: note_off channel=14 note=46 velocity=0 time=0.05288364583333333
EXTRACT: note_on channel=14 note=58 velocity=65 time=0.026441822916666666
EXTRACT: note_off channel=12 note=58 velocity=0 time=0.019230416666666666
EXTRACT: note_off channel=12 note=63 velocity=0 time=0.004807604166666667
EXTRACT: note_off channel=9 note=36 velocity=0 time=0.0024038020833333333
EXTRACT: note_off channel=12 note=53 velocity=0 time=0.00721140625
EXTRACT: note_off channel=14 note=58 velocity=0 time=0.062498854166666666
EXTRACT: note_on channel=9 note=36 velocity=125 time=0.019230416666666666
EXTRACT: note_on channel=9 note=44 velocity=85 time=0
EXTRACT: note_on channel=14 note=46 velocity=68 time=0
EXTRACT: note_off channel=9 note=46 velocity=0 time=0.07692166666666667
EXTRACT: note_off channel=14 note=46 velocity=0 time=0.012019010416666667
EXTRACT: note_off channel=1 note=27 velocity=0 time=0.019230416666666666
EXTRACT: note_on channel=14 note=58 velocity=64 time=0.00721140625
EXTRACT: note_off channel=14 note=58 velocity=0 time=0.10336348958333333
EXTRACT: note_on channel=9 note=46 velocity=71 time=0.012019010416666667
EXTRACT: note_on channel=1 note=27 velocity=95 time=0
EXTRACT: note_on channel=3 note=62 velocity=97 time=0
EXTRACT: note_on channel=4 note=74 velocity=87 time=0
EXTRACT: note_on channel=12 note=53 velocity=80 time=0
EXTRACT: note_on channel=12 note=58 velocity=78 time=0
EXTRACT: note_on channel=12 note=63 velocity=80 time=0
EXTRACT: note_on channel=14 note=46 velocity=67 time=0
EXTRACT: note_off channel=9 note=44 velocity=0 time=0.08894067708333334
EXTRACT: note_off channel=9 note=39 velocity=0 time=0.0024038020833333333
EXTRACT: note_off channel=9 note=40 velocity=0 time=0.0024038020833333333
EXTRACT: note_off channel=14 note=46 velocity=0 time=0
EXTRACT: note_off channel=3 note=65 velocity=0 time=0.003605703125
EXTRACT: note_off channel=4 note=77 velocity=0 time=0
EXTRACT: note_off channel=9 note=36 velocity=0 time=0.015624713541666667
EXTRACT: note_on channel=14 note=58 velocity=65 time=0.0024038020833333333
EXTRACT: note_off channel=3 note=62 velocity=0 time=0.061296953125
EXTRACT: note_off channel=4 note=74 velocity=0 time=0
EXTRACT: note_off channel=14 note=58 velocity=0 time=0.039662734375
EXTRACT: note_on channel=9 note=36 velocity=122 time=0.0144228125
EXTRACT: note_on channel=9 note=39 velocity=65 time=0
EXTRACT: note_on channel=9 note=40 velocity=63 time=0
EXTRACT: note_on channel=9 note=44 velocity=101 time=0
EXTRACT: note_on channel=3 note=60 velocity=97 time=0
EXTRACT: note_on channel=4 note=72 velocity=87 time=0
EXTRACT: note_on channel=14 note=46 velocity=68 time=0
EXTRACT: note_off channel=14 note=46 velocity=0 time=0.09134447916666666
EXTRACT: note_off channel=9 note=46 velocity=0 time=0.012019010416666667
EXTRACT: note_on channel=14 note=58 velocity=65 time=0.012019010416666667
EXTRACT: note_off channel=14 note=58 velocity=0 time=0.09615208333333333
EXTRACT: note_on channel=9 note=46 velocity=70 time=0.019230416666666666
EXTRACT: note_on channel=1 note=31 velocity=85 time=0
EXTRACT: note_on channel=14 note=46 velocity=67 time=0
EXTRACT: note_off channel=1 note=27 velocity=0 time=0.00721140625
EXTRACT: note_off channel=12 note=58 velocity=0 time=0.00721140625
EXTRACT: note_off channel=12 note=63 velocity=0 time=0.00721140625
EXTRACT: note_off channel=12 note=53 velocity=0 time=0.004807604166666667
EXTRACT: note_off channel=9 note=44 velocity=0 time=0.05769125
EXTRACT: note_off channel=14 note=46 velocity=0 time=0.009615208333333333
EXTRACT: note_on channel=14 note=58 velocity=66 time=0.02163421875
EXTRACT: note_off channel=9 note=36 velocity=0 time=0.0024038020833333333
EXTRACT: note_off channel=9 note=46 velocity=0 time=0.04086463541666667
EXTRACT: note_off channel=1 note=31 velocity=0 time=0.031249427083333333
EXTRACT: note_off channel=14 note=58 velocity=0 time=0.019230416666666666
EXTRACT: note_on channel=9 note=36 velocity=118 time=0.02163421875
EXTRACT: note_on channel=9 note=44 velocity=111 time=0
EXTRACT: note_on channel=1 note=34 velocity=104 time=0
EXTRACT: note_on channel=3 note=62 velocity=97 time=0
EXTRACT: note_on channel=4 note=74 velocity=87 time=0
EXTRACT: note_on channel=14 note=46 velocity=70 time=0
EXTRACT: note_off channel=3 note=60 velocity=0 time=0.00721140625
EXTRACT: note_off channel=4 note=72 velocity=0 time=0
EXTRACT: note_off channel=14 note=46 velocity=0 time=0.07932546875
EXTRACT: note_on channel=14 note=58 velocity=66 time=0.028845625
EXTRACT: note_off channel=14 note=58 velocity=0 time=0.11297869791666666
EXTRACT: note_on channel=9 note=46 velocity=75 time=0.0024038020833333333
EXTRACT: note_on channel=12 note=53 velocity=85 time=0
EXTRACT: note_on channel=12 note=58 velocity=80 time=0
EXTRACT: note_on channel=12 note=62 velocity=76 time=0
EXTRACT: note_on channel=14 note=46 velocity=68 time=0
EXTRACT: note_off channel=9 note=44 velocity=0 time=0.026441822916666666
EXTRACT: note_off channel=9 note=39 velocity=0 time=0.04086463541666667
EXTRACT: note_off channel=14 note=46 velocity=0 time=0.004807604166666667
EXTRACT: note_off channel=9 note=40 velocity=0 time=0.0024038020833333333
EXTRACT: note_off channel=12 note=58 velocity=0 time=0.019230416666666666
EXTRACT: note_off channel=9 note=36 velocity=0 time=0.00721140625
EXTRACT: note_off channel=12 note=62 velocity=0 time=0
EXTRACT: note_off channel=12 note=53 velocity=0 time=0.0144228125
EXTRACT: note_on channel=14 note=58 velocity=65 time=0
EXTRACT: note_off channel=1 note=34 velocity=0 time=0.07932546875
EXTRACT: note_off channel=14 note=58 velocity=0 time=0.004807604166666667
EXTRACT: note_on channel=9 note=36 velocity=118 time=0.031249427083333333
EXTRACT: note_on channel=9 note=39 velocity=62 time=0
EXTRACT: note_on channel=9 note=40 velocity=63 time=0
EXTRACT: note_on channel=9 note=44 velocity=92 time=0
EXTRACT: note_on channel=1 note=29 velocity=73 time=0
EXTRACT: note_on channel=14 note=46 velocity=68 time=0
EXTRACT: note_off channel=14 note=46 velocity=0 time=0.086536875
EXTRACT: note_off channel=9 note=46 velocity=0 time=0.026441822916666666
EXTRACT: note_on channel=14 note=58 velocity=65 time=0.0024038020833333333
EXTRACT: note_off channel=1 note=29 velocity=0 time=0.05288364583333333
EXTRACT: note_off channel=14 note=58 velocity=0 time=0.033653229166666666
EXTRACT: note_on channel=9 note=46 velocity=63 time=0.028845625
EXTRACT: note_on channel=1 note=27 velocity=88 time=0
EXTRACT: note_on channel=12 note=53 velocity=80 time=0
EXTRACT: note_on channel=12 note=58 velocity=78 time=0
EXTRACT: note_on channel=12 note=62 velocity=68 time=0
EXTRACT: note_on channel=14 note=46 velocity=66 time=0
EXTRACT: note_off channel=9 note=44 velocity=0 time=0.036057031249999996
EXTRACT: note_off channel=12 note=62 velocity=0 time=0.04567223958333333
EXTRACT: note_off channel=12 note=58 velocity=0 time=0.0024038020833333333
EXTRACT: note_off channel=14 note=46 velocity=0 time=0.0024038020833333333
EXTRACT: note_off channel=12 note=53 velocity=0 time=0.012019010416666667
EXTRACT: note_on channel=14 note=58 velocity=65 time=0.016826614583333333
EXTRACT: note_off channel=9 note=36 velocity=0 time=0.02163421875
EXTRACT: note_off channel=14 note=58 velocity=0 time=0.062498854166666666
EXTRACT: note_on channel=9 note=36 velocity=125 time=0.031249427083333333
EXTRACT: note_on channel=9 note=44 velocity=85 time=0
EXTRACT: note_on channel=3 note=60 velocity=97 time=0
EXTRACT: note_on channel=4 note=72 velocity=87 time=0
EXTRACT: note_on channel=12 note=53 velocity=85 time=0
EXTRACT: note_on channel=12 note=58 velocity=82 time=0
EXTRACT: note_on channel=12 note=63 velocity=82 time=0
EXTRACT: note_on channel=14 note=46 velocity=67 time=0
EXTRACT: note_off channel=9 note=46 velocity=0 time=0.07692166666666667
EXTRACT: note_off channel=14 note=46 velocity=0 time=0.0144228125
EXTRACT: note_on channel=14 note=58 velocity=65 time=0.024038020833333333
EXTRACT: note_off channel=1 note=27 velocity=0 time=0.06490265625
EXTRACT: note_off channel=12 note=58 velocity=0 time=0.0144228125
EXTRACT: note_off channel=14 note=58 velocity=0 time=0.012019010416666667
EXTRACT: note_off channel=12 note=63 velocity=0 time=0.004807604166666667
EXTRACT: note_off channel=3 note=62 velocity=0 time=0.015624713541666667
EXTRACT: note_off channel=4 note=74 velocity=0 time=0
EXTRACT: note_on channel=9 note=46 velocity=71 time=0.003605703125
EXTRACT: note_on channel=1 note=27 velocity=95 time=0
EXTRACT: note_on channel=3 note=58 velocity=97 time=0
EXTRACT: note_on channel=4 note=70 velocity=87 time=0
EXTRACT: note_on channel=14 note=46 velocity=66 time=0
EXTRACT: note_off channel=3 note=60 velocity=0 time=0.054085546875
EXTRACT: note_off channel=4 note=72 velocity=0 time=0
EXTRACT: note_off channel=12 note=53 velocity=0 time=0.006009505208333333
EXTRACT: note_off channel=9 note=44 velocity=0 time=0.028845625
EXTRACT: note_off channel=9 note=40 velocity=0 time=0.0024038020833333333
EXTRACT: note_off channel=14 note=46 velocity=0 time=0
EXTRACT: note_off channel=9 note=36 velocity=0 time=0.0024038020833333333
EXTRACT: note_off channel=9 note=39 velocity=0 time=0
EXTRACT: note_on channel=14 note=58 velocity=65 time=0.02163421875
EXTRACT: note_off channel=14 note=58 velocity=0 time=0.09374828125
EXTRACT: note_on channel=9 note=36 velocity=125 time=0.02163421875
EXTRACT: note_on channel=9 note=39 velocity=66 time=0
EXTRACT: note_on channel=9 note=40 velocity=65 time=0
EXTRACT: note_on channel=9 note=44 velocity=101 time=0
EXTRACT: note_on channel=12 note=53 velocity=82 time=0
EXTRACT: note_on channel=12 note=58 velocity=88 time=0
EXTRACT: note_on channel=12 note=63 velocity=82 time=0
EXTRACT: note_on channel=14 note=46 velocity=68 time=0
EXTRACT: note_off channel=3 note=58 velocity=0 time=0.090142578125
EXTRACT: note_off channel=4 note=70 velocity=0 time=0
EXTRACT: note_off channel=14 note=46 velocity=0 time=0.006009505208333333
EXTRACT: note_off channel=9 note=46 velocity=0 time=0.00721140625
EXTRACT: note_on channel=14 note=58 velocity=65 time=0.012019010416666667
EXTRACT: note_off channel=12 note=53 velocity=0 time=0.0432684375
EXTRACT: note_off channel=12 note=58 velocity=0 time=0.04086463541666667
EXTRACT: note_off channel=12 note=63 velocity=0 time=0.016826614583333333
EXTRACT: note_off channel=14 note=58 velocity=0 time=0
EXTRACT: note_off channel=1 note=27 velocity=0 time=0.012019010416666667
EXTRACT: note_on channel=9 note=46 velocity=70 time=0.0024038020833333333
EXTRACT: note_on channel=1 note=31 velocity=62 time=0
EXTRACT: note_on channel=12 note=53 velocity=82 time=0
EXTRACT: note_on channel=12 note=58 velocity=73 time=0
EXTRACT: note_on channel=12 note=62 velocity=73 time=0
EXTRACT: note_on channel=14 note=46 velocity=68 time=0
EXTRACT: note_off channel=9 note=44 velocity=0 time=0.08413307291666666
EXTRACT: note_off channel=12 note=62 velocity=0 time=0.0024038020833333333
EXTRACT: note_off channel=9 note=36 velocity=0 time=0.004807604166666667
EXTRACT: note_off channel=14 note=46 velocity=0 time=0.0024038020833333333
EXTRACT: note_off channel=12 note=58 velocity=0 time=0.016826614583333333
EXTRACT: note_off channel=12 note=53 velocity=0 time=0
EXTRACT: note_on channel=14 note=58 velocity=64 time=0.004807604166666667
EXTRACT: note_off channel=9 note=46 velocity=0 time=0.0432684375
EXTRACT: note_off channel=1 note=31 velocity=0 time=0.02163421875
EXTRACT: note_off channel=14 note=58 velocity=0 time=0.036057031249999996
EXTRACT: note_on channel=9 note=36 velocity=125 time=0.0144228125
EXTRACT: note_on channel=9 note=44 velocity=111 time=0
EXTRACT: note_on channel=1 note=34 velocity=82 time=0
EXTRACT: note_on channel=3 note=62 velocity=97 time=0
EXTRACT: note_on channel=4 note=74 velocity=87 time=0
EXTRACT: note_on channel=14 note=46 velocity=68 time=0
EXTRACT: note_off channel=14 note=46 velocity=0 time=0.09374828125
EXTRACT: note_off channel=3 note=62 velocity=0 time=0.020432317708333335
EXTRACT: note_off channel=4 note=74 velocity=0 time=0
EXTRACT: note_on channel=14 note=58 velocity=65 time=0.0012019010416666667
EXTRACT: note_off channel=14 note=58 velocity=0 time=0.10576729166666667
EXTRACT: note_on channel=9 note=46 velocity=75 time=0.009615208333333333
EXTRACT: note_on channel=3 note=62 velocity=97 time=0
EXTRACT: note_on channel=4 note=74 velocity=87 time=0
EXTRACT: note_on channel=12 note=53 velocity=82 time=0
EXTRACT: note_on channel=12 note=58 velocity=82 time=0
EXTRACT: note_on channel=12 note=62 velocity=73 time=0
EXTRACT: note_on channel=14 note=46 velocity=67 time=0
EXTRACT: note_off channel=9 note=44 velocity=0 time=0.026441822916666666
EXTRACT: note_off channel=9 note=39 velocity=0 time=0.012019010416666667
EXTRACT: note_off channel=9 note=40 velocity=0 time=0.00721140625
EXTRACT: note_off channel=14 note=46 velocity=0 time=0.03846083333333333
EXTRACT: note_off channel=12 note=58 velocity=0 time=0.012019010416666667
EXTRACT: note_off channel=12 note=62 velocity=0 time=0.0024038020833333333
EXTRACT: note_off channel=9 note=36 velocity=0 time=0.004807604166666667
EXTRACT: note_off channel=12 note=53 velocity=0 time=0.0024038020833333333
EXTRACT: note_on channel=14 note=58 velocity=65 time=0.009615208333333333
EXTRACT: note_off channel=14 note=58 velocity=0 time=0.10576729166666667
EXTRACT: note_off channel=1 note=34 velocity=0 time=0.004807604166666667
EXTRACT: note_on channel=9 note=36 velocity=122 time=0.004807604166666667
EXTRACT: note_on channel=9 note=39 velocity=65 time=0
EXTRACT: note_on channel=9 note=40 velocity=65 time=0
EXTRACT: note_on channel=9 note=44 velocity=92 time=0
EXTRACT: note_on channel=1 note=29 velocity=76 time=0
EXTRACT: note_on channel=14 note=46 velocity=68 time=0
EXTRACT: note_off channel=14 note=46 velocity=0 time=0.09855588541666667
EXTRACT: note_off channel=9 note=46 velocity=0 time=0.0144228125
EXTRACT: note_on channel=14 note=58 velocity=65 time=0.0024038020833333333
EXTRACT: note_off channel=14 note=58 velocity=0 time=0.09374828125
EXTRACT: note_off channel=1 note=29 velocity=0 time=0.016826614583333333
EXTRACT: note_on channel=9 note=46 velocity=63 time=0.004807604166666667
EXTRACT: note_on channel=1 note=27 velocity=91 time=0
EXTRACT: note_on channel=3 note=60 velocity=97 time=0
EXTRACT: note_on channel=4 note=72 velocity=87 time=0
EXTRACT: note_on channel=12 note=53 velocity=88 time=0
EXTRACT: note_on channel=12 note=58 velocity=78 time=0
EXTRACT: note_on channel=12 note=63 velocity=74 time=0
EXTRACT: note_on channel=14 note=46 velocity=67 time=0
EXTRACT: note_off channel=3 note=62 velocity=0 time=0.02163421875
EXTRACT: note_off channel=4 note=74 velocity=0 time=0
EXTRACT: note_off channel=9 note=44 velocity=0 time=0.0144228125
EXTRACT: note_off channel=14 note=46 velocity=0 time=0.05288364583333333
EXTRACT: note_off channel=12 note=58 velocity=0 time=0.02163421875
EXTRACT: note_on channel=14 note=58 velocity=65 time=0.004807604166666667
EXTRACT: note_off channel=9 note=36 velocity=0 time=0.0024038020833333333
EXTRACT: note_off channel=12 note=63 velocity=0 time=0.004807604166666667
EXTRACT: note_off channel=12 note=53 velocity=0 time=0
EXTRACT: note_off channel=14 note=58 velocity=0 time=0.08894067708333334
EXTRACT: note_on channel=9 note=36 velocity=125 time=0.019230416666666666
EXTRACT: note_on channel=9 note=44 velocity=85 time=0
EXTRACT: note_on channel=14 note=46 velocity=68 time=0
EXTRACT: note_off channel=9 note=46 velocity=0 time=0.07692166666666667
EXTRACT: note_off channel=14 note=46 velocity=0 time=0.012019010416666667
EXTRACT: note_off channel=1 note=27 velocity=0 time=0.019230416666666666
EXTRACT: note_on channel=14 note=58 velocity=64 time=0.00721140625
EXTRACT: note_off channel=14 note=58 velocity=0 time=0.10336348958333333
EXTRACT: note_on channel=9 note=46 velocity=71 time=0.012019010416666667
EXTRACT: note_on channel=1 note=27 velocity=95 time=0
EXTRACT: note_on channel=3 note=58 velocity=97 time=0
EXTRACT: note_on channel=4 note=70 velocity=87 time=0
EXTRACT: note_on channel=12 note=53 velocity=85 time=0
EXTRACT: note_on channel=12 note=58 velocity=88 time=0
EXTRACT: note_on channel=12 note=63 velocity=88 time=0
EXTRACT: note_on channel=14 note=46 velocity=67 time=0
EXTRACT: note_off channel=3 note=60 velocity=0 time=0.06730645833333333
EXTRACT: note_off channel=4 note=72 velocity=0 time=0
EXTRACT: note_off channel=9 note=40 velocity=0 time=0.0024038020833333333
EXTRACT: note_off channel=9 note=39 velocity=0 time=0
EXTRACT: note_off channel=9 note=44 velocity=0 time=0.019230416666666666
EXTRACT: note_off channel=14 note=46 velocity=0 time=0.004807604166666667
EXTRACT: note_off channel=9 note=36 velocity=0 time=0.00721140625
EXTRACT: note_on channel=14 note=58 velocity=65 time=0.0144228125
EXTRACT: note_off channel=14 note=58 velocity=0 time=0.1009596875
EXTRACT: note_on channel=9 note=36 velocity=125 time=0.0144228125
EXTRACT: note_on channel=9 note=39 velocity=65 time=0
EXTRACT: note_on channel=9 note=40 velocity=64 time=0
EXTRACT: note_on channel=9 note=44 velocity=101 time=0
EXTRACT: note_on channel=14 note=46 velocity=68 time=0
EXTRACT: note_off channel=14 note=46 velocity=0 time=0.09134447916666666
EXTRACT: note_off channel=9 note=46 velocity=0 time=0.012019010416666667
EXTRACT: note_on channel=14 note=58 velocity=65 time=0.012019010416666667
EXTRACT: note_off channel=12 note=58 velocity=0 time=0.0144228125
EXTRACT: note_off channel=12 note=63 velocity=0 time=0.009615208333333333
EXTRACT: note_off channel=12 note=53 velocity=0 time=0
EXTRACT: note_off channel=14 note=58 velocity=0 time=0.07211406249999999
EXTRACT: note_on channel=9 note=46 velocity=70 time=0.019230416666666666
EXTRACT: note_on channel=1 note=31 velocity=85 time=0
EXTRACT: note_on channel=12 note=53 velocity=78 time=0
EXTRACT: note_on channel=12 note=58 velocity=80 time=0
EXTRACT: note_on channel=12 note=63 velocity=82 time=0
EXTRACT: note_on channel=14 note=46 velocity=67 time=0
EXTRACT: note_off channel=1 note=27 velocity=0 time=0.00721140625
EXTRACT: note_off channel=9 note=44 velocity=0 time=0.07692166666666667
EXTRACT: note_off channel=12 note=58 velocity=0 time=0.004807604166666667
EXTRACT: note_off channel=14 note=46 velocity=0 time=0.004807604166666667
EXTRACT: note_off channel=12 note=63 velocity=0 time=0.012019010416666667
EXTRACT: note_off channel=12 note=53 velocity=0 time=0
EXTRACT: note_off channel=9 note=36 velocity=0 time=0.0024038020833333333
EXTRACT: note_on channel=14 note=58 velocity=66 time=0.00721140625
EXTRACT: note_off channel=9 note=46 velocity=0 time=0.0432684375
EXTRACT: note_off channel=1 note=31 velocity=0 time=0.031249427083333333
EXTRACT: note_off channel=14 note=58 velocity=0 time=0.019230416666666666
EXTRACT: note_on channel=9 note=36 velocity=122 time=0.02163421875
EXTRACT: note_on channel=9 note=44 velocity=111 time=0
EXTRACT: note_on channel=1 note=34 velocity=104 time=0
EXTRACT: note_on channel=3 note=62 velocity=97 time=0
EXTRACT: note_on channel=4 note=74 velocity=87 time=0
EXTRACT: note_on channel=12 note=53 velocity=88 time=0
EXTRACT: note_on channel=12 note=58 velocity=78 time=0
EXTRACT: note_on channel=12 note=62 velocity=76 time=0
EXTRACT: note_on channel=14 note=46 velocity=70 time=0
EXTRACT: note_off channel=3 note=58 velocity=0 time=0.00721140625
EXTRACT: note_off channel=4 note=70 velocity=0 time=0
EXTRACT: note_off channel=14 note=46 velocity=0 time=0.07932546875
EXTRACT: note_off channel=12 note=58 velocity=0 time=0.009615208333333333
EXTRACT: note_off channel=12 note=62 velocity=0 time=0.016826614583333333
EXTRACT: note_on channel=14 note=58 velocity=66 time=0.0024038020833333333
EXTRACT: note_off channel=12 note=53 velocity=0 time=0.00721140625
EXTRACT: note_off channel=14 note=58 velocity=0 time=0.10576729166666667
EXTRACT: note_on channel=9 note=46 velocity=75 time=0.0024038020833333333
EXTRACT: note_on channel=14 note=46 velocity=68 time=0
EXTRACT: note_off channel=9 note=44 velocity=0 time=0.026441822916666666
EXTRACT: note_off channel=9 note=39 velocity=0 time=0.02163421875
EXTRACT: note_off channel=9 note=40 velocity=0 time=0.004807604166666667
EXTRACT: note_off channel=14 note=46 velocity=0 time=0.019230416666666666
EXTRACT: note_off channel=9 note=36 velocity=0 time=0.0144228125
EXTRACT: note_on channel=14 note=58 velocity=65 time=0.028845625
EXTRACT: note_off channel=1 note=34 velocity=0 time=0.07932546875
EXTRACT: note_off channel=14 note=58 velocity=0 time=0.004807604166666667
EXTRACT: note_on channel=9 note=36 velocity=118 time=0.031249427083333333
EXTRACT: note_on channel=9 note=39 velocity=71 time=0
EXTRACT: note_on channel=9 note=40 velocity=72 time=0
EXTRACT: note_on channel=9 note=44 velocity=92 time=0
EXTRACT: note_on channel=1 note=29 velocity=73 time=0
EXTRACT: note_on channel=12 note=53 velocity=80 time=0
EXTRACT: note_on channel=12 note=58 velocity=73 time=0
EXTRACT: note_on channel=12 note=62 velocity=73 time=0
EXTRACT: note_on channel=14 note=46 velocity=68 time=0
EXTRACT: note_off channel=14 note=46 velocity=0 time=0.086536875
EXTRACT: note_off channel=12 note=62 velocity=0 time=0.016826614583333333
EXTRACT: note_off channel=9 note=46 velocity=0 time=0.009615208333333333
EXTRACT: note_off channel=12 note=58 velocity=0 time=0
EXTRACT: note_on channel=14 note=58 velocity=65 time=0.0024038020833333333
EXTRACT: note_off channel=12 note=53 velocity=0 time=0.00721140625
EXTRACT: note_off channel=1 note=29 velocity=0 time=0.04567223958333333
EXTRACT: note_off channel=14 note=58 velocity=0 time=0.033653229166666666
EXTRACT: note_on channel=9 note=46 velocity=63 time=0.028845625
EXTRACT: note_on channel=1 note=27 velocity=88 time=0
EXTRACT: note_on channel=3 note=58 velocity=97 time=0
EXTRACT: note_on channel=4 note=70 velocity=87 time=0
EXTRACT: note_on channel=12 note=53 velocity=76 time=0
EXTRACT: note_on channel=12 note=58 velocity=74 time=0
EXTRACT: note_on channel=12 note=63 velocity=74 time=0
EXTRACT: note_on channel=14 note=46 velocity=66 time=0
EXTRACT: note_off channel=9 note=44 velocity=0 time=0.036057031249999996
EXTRACT: note_off channel=14 note=46 velocity=0 time=0.05047984375
EXTRACT: note_off channel=9 note=36 velocity=0 time=0.019230416666666666
EXTRACT: note_off channel=12 note=53 velocity=0 time=0.00721140625
EXTRACT: note_on channel=14 note=58 velocity=65 time=0.0024038020833333333
EXTRACT: note_off channel=3 note=62 velocity=0 time=0.009615208333333333
EXTRACT: note_off channel=4 note=74 velocity=0 time=0
EXTRACT: note_off channel=12 note=58 velocity=0 time=0.00721140625
EXTRACT: note_off channel=12 note=63 velocity=0 time=0.012019010416666667
EXTRACT: note_off channel=14 note=58 velocity=0 time=0.05528744791666666
EXTRACT: note_on channel=9 note=36 velocity=125 time=0.031249427083333333
EXTRACT: note_on channel=9 note=44 velocity=85 time=0
EXTRACT: note_on channel=14 note=46 velocity=67 time=0
EXTRACT: note_off channel=9 note=46 velocity=0 time=0.07692166666666667
EXTRACT: note_off channel=14 note=46 velocity=0 time=0.0144228125
EXTRACT: note_on channel=14 note=58 velocity=65 time=0.024038020833333333
EXTRACT: note_off channel=1 note=27 velocity=0 time=0.06490265625
EXTRACT: note_off channel=14 note=58 velocity=0 time=0.026441822916666666
EXTRACT: note_on channel=9 note=46 velocity=71 time=0.024038020833333333
EXTRACT: note_on channel=1 note=27 velocity=95 time=0
EXTRACT: note_on channel=12 note=53 velocity=71 time=0
EXTRACT: note_on channel=12 note=58 velocity=78 time=0
EXTRACT: note_on channel=12 note=63 velocity=78 time=0
EXTRACT: note_on channel=14 note=46 velocity=66 time=0
EXTRACT: note_off channel=9 note=39 velocity=0 time=0.0144228125
EXTRACT: note_off channel=9 note=40 velocity=0 time=0.0024038020833333333
EXTRACT: note_off channel=9 note=36 velocity=0 time=0.06971026041666667
EXTRACT: note_off channel=9 note=44 velocity=0 time=0.0024038020833333333
EXTRACT: note_off channel=14 note=46 velocity=0 time=0.0024038020833333333
EXTRACT: note_on channel=14 note=58 velocity=65 time=0.024038020833333333
EXTRACT: note_off channel=14 note=58 velocity=0 time=0.09374828125
EXTRACT: note_on channel=9 note=36 velocity=122 time=0.02163421875
EXTRACT: note_on channel=9 note=39 velocity=62 time=0
EXTRACT: note_on channel=9 note=40 velocity=68 time=0
EXTRACT: note_on channel=9 note=44 velocity=101 time=0
EXTRACT: note_on channel=14 note=46 velocity=68 time=0
EXTRACT: note_off channel=14 note=46 velocity=0 time=0.09615208333333333
EXTRACT: note_off channel=9 note=46 velocity=0 time=0.00721140625
EXTRACT: note_off channel=12 note=53 velocity=0 time=0.004807604166666667
EXTRACT: note_on channel=14 note=58 velocity=65 time=0.00721140625
EXTRACT: note_off channel=12 note=58 velocity=0 time=0.00721140625
EXTRACT: note_off channel=12 note=63 velocity=0 time=0.0144228125
EXTRACT: note_off channel=14 note=58 velocity=0 time=0.07932546875
EXTRACT: note_off channel=1 note=27 velocity=0 time=0.012019010416666667
EXTRACT: note_on channel=9 note=46 velocity=70 time=0.0024038020833333333
EXTRACT: note_on channel=1 note=31 velocity=62 time=0
EXTRACT: note_on channel=12 note=53 velocity=71 time=0
EXTRACT: note_on channel=12 note=58 velocity=73 time=0
EXTRACT: note_on channel=12 note=63 velocity=68 time=0
EXTRACT: note_on channel=14 note=46 velocity=68 time=0
EXTRACT: note_off channel=3 note=58 velocity=0 time=0.046874140625
EXTRACT: note_off channel=4 note=70 velocity=0 time=0
EXTRACT: note_off channel=9 note=44 velocity=0 time=0.037258932291666665
EXTRACT: note_off channel=14 note=46 velocity=0 time=0.009615208333333333
EXTRACT: note_off channel=9 note=36 velocity=0 time=0.00721140625
EXTRACT: note_on channel=14 note=58 velocity=64 time=0.0144228125
EXTRACT: note_off channel=12 note=53 velocity=0 time=0.00721140625
EXTRACT: note_off channel=12 note=58 velocity=0 time=0.012019010416666667
EXTRACT: note_off channel=9 note=46 velocity=0 time=0.024038020833333333
EXTRACT: note_off channel=12 note=63 velocity=0 time=0.004807604166666667
EXTRACT: note_off channel=1 note=31 velocity=0 time=0.016826614583333333
EXTRACT: note_off channel=14 note=58 velocity=0 time=0.036057031249999996
EXTRACT: note_on channel=9 note=36 velocity=122 time=0.0144228125
EXTRACT: note_on channel=9 note=44 velocity=111 time=0
EXTRACT: note_on channel=1 note=34 velocity=82 time=0
EXTRACT: note_on channel=3 note=62 velocity=97 time=0
EXTRACT: note_on channel=4 note=74 velocity=87 time=0
EXTRACT: note_on channel=12 note=53 velocity=74 time=0
EXTRACT: note_on channel=12 note=58 velocity=73 time=0
EXTRACT: note_on channel=12 note=62 velocity=71 time=0
EXTRACT: note_on channel=14 note=46 velocity=68 time=0
EXTRACT: note_off channel=12 note=58 velocity=0 time=0.09374828125
EXTRACT: note_off channel=14 note=46 velocity=0 time=0
EXTRACT: note_off channel=12 note=62 velocity=0 time=0.012019010416666667
EXTRACT: note_off channel=12 note=53 velocity=0 time=0.004807604166666667
EXTRACT: note_on channel=14 note=58 velocity=65 time=0.004807604166666667
EXTRACT: note_off channel=3 note=62 velocity=0 time=0.06730645833333333
EXTRACT: note_off channel=4 note=74 velocity=0 time=0
EXTRACT: note_off channel=14 note=58 velocity=0 time=0.03846083333333333
EXTRACT: note_on channel=9 note=46 velocity=75 time=0.009615208333333333
EXTRACT: note_on channel=14 note=46 velocity=67 time=0
EXTRACT: note_off channel=9 note=44 velocity=0 time=0.026441822916666666
EXTRACT: note_off channel=14 note=46 velocity=0 time=0.05769125
EXTRACT: note_off channel=9 note=40 velocity=0 time=0.0024038020833333333
EXTRACT: note_off channel=9 note=39 velocity=0 time=0.00721140625
EXTRACT: note_off channel=9 note=36 velocity=0 time=0.00721140625
EXTRACT: note_on channel=14 note=58 velocity=65 time=0.0144228125
EXTRACT: note_off channel=14 note=58 velocity=0 time=0.10576729166666667
EXTRACT: note_off channel=1 note=34 velocity=0 time=0.004807604166666667
EXTRACT: note_on channel=9 note=36 velocity=122 time=0.004807604166666667
EXTRACT: note_on channel=9 note=39 velocity=66 time=0
EXTRACT: note_on channel=9 note=40 velocity=66 time=0
EXTRACT: note_on channel=9 note=44 velocity=92 time=0
EXTRACT: note_on channel=1 note=29 velocity=76 time=0
EXTRACT: note_on channel=3 note=62 velocity=97 time=0
EXTRACT: note_on channel=4 note=74 velocity=87 time=0
EXTRACT: note_on channel=12 note=53 velocity=82 time=0
EXTRACT: note_on channel=12 note=58 velocity=78 time=0
EXTRACT: note_on channel=12 note=62 velocity=73 time=0
EXTRACT: note_on channel=14 note=46 velocity=68 time=0
EXTRACT: note_off channel=14 note=46 velocity=0 time=0.09855588541666667
EXTRACT: note_off channel=9 note=46 velocity=0 time=0.0144228125
EXTRACT: note_on channel=14 note=58 velocity=65 time=0.0024038020833333333
EXTRACT: note_off channel=12 note=62 velocity=0 time=0.033653229166666666
EXTRACT: note_off channel=12 note=58 velocity=0 time=0
EXTRACT: note_off channel=12 note=53 velocity=0 time=0
EXTRACT: note_off channel=14 note=58 velocity=0 time=0.060095052083333336
EXTRACT: note_off channel=1 note=29 velocity=0 time=0.016826614583333333
EXTRACT: note_on channel=9 note=46 velocity=63 time=0.004807604166666667
EXTRACT: note_on channel=1 note=27 velocity=91 time=0
EXTRACT: note_on channel=3 note=60 velocity=97 time=0
EXTRACT: note_on channel=4 note=72 velocity=87 time=0
EXTRACT: note_on channel=12 note=53 velocity=82 time=0
EXTRACT: note_on channel=12 note=58 velocity=80 time=0
EXTRACT: note_on channel=12 note=63 velocity=80 time=0
EXTRACT: note_on channel=14 note=46 velocity=67 time=0
EXTRACT: note_off channel=9 note=44 velocity=0 time=0.036057031249999996
EXTRACT: note_off channel=3 note=62 velocity=0 time=0.018028515624999998
EXTRACT: note_off channel=4 note=74 velocity=0 time=0
EXTRACT: note_off channel=14 note=46 velocity=0 time=0.034855130208333335
EXTRACT: note_on channel=14 note=58 velocity=65 time=0.026441822916666666
EXTRACT: note_off channel=12 note=58 velocity=0 time=0.019230416666666666
EXTRACT: note_off channel=12 note=63 velocity=0 time=0.004807604166666667
EXTRACT: note_off channel=12 note=53 velocity=0 time=0.009615208333333333
EXTRACT: note_off channel=9 note=36 velocity=0 time=0.004807604166666667
EXTRACT: note_off channel=14 note=58 velocity=0 time=0.05769125
EXTRACT: note_on channel=9 note=36 velocity=118 time=0.019230416666666666
EXTRACT: note_on channel=9 note=44 velocity=85 time=0
EXTRACT: note_on channel=14 note=46 velocity=68 time=0
EXTRACT: note_off channel=9 note=46 velocity=0 time=0.07692166666666667
EXTRACT: note_off channel=14 note=46 velocity=0 time=0.012019010416666667
EXTRACT: note_off channel=1 note=27 velocity=0 time=0.019230416666666666
EXTRACT: note_on channel=14 note=58 velocity=64 time=0.00721140625
EXTRACT: note_off channel=14 note=58 velocity=0 time=0.10336348958333333
EXTRACT: note_on channel=9 note=46 velocity=71 time=0.012019010416666667
EXTRACT: note_on channel=1 note=27 velocity=95 time=0
EXTRACT: note_on channel=3 note=58 velocity=97 time=0
EXTRACT: note_on channel=4 note=70 velocity=87 time=0
EXTRACT: note_on channel=12 note=53 velocity=80 time=0
EXTRACT: note_on channel=12 note=58 velocity=78 time=0
EXTRACT: note_on channel=12 note=63 velocity=80 time=0
EXTRACT: note_on channel=14 note=46 velocity=67 time=0
EXTRACT: note_off channel=3 note=60 velocity=0 time=0.06971026041666667
EXTRACT: note_off channel=4 note=72 velocity=0 time=0
EXTRACT: note_off channel=9 note=40 velocity=0 time=0.016826614583333333
EXTRACT: note_off channel=9 note=39 velocity=0 time=0
EXTRACT: note_off channel=9 note=44 velocity=0 time=0.0024038020833333333
EXTRACT: note_off channel=14 note=46 velocity=0 time=0.004807604166666667
EXTRACT: note_off channel=9 note=36 velocity=0 time=0.0024038020833333333
EXTRACT: note_on channel=14 note=58 velocity=65 time=0.019230416666666666
EXTRACT: note_off channel=3 note=58 velocity=0 time=0.028845625
EXTRACT: note_off channel=4 note=70 velocity=0 time=0
EXTRACT: note_off channel=14 note=58 velocity=0 time=0.07211406249999999
EXTRACT: note_on channel=9 note=36 velocity=122 time=0.0144228125
EXTRACT: note_on channel=9 note=39 velocity=71 time=0
EXTRACT: note_on channel=9 note=40 velocity=72 time=0
EXTRACT: note_on channel=9 note=44 velocity=101 time=0
EXTRACT: note_on channel=3 note=62 velocity=97 time=0
EXTRACT: note_on channel=4 note=74 velocity=87 time=0
EXTRACT: note_on channel=14 note=46 velocity=68 time=0
EXTRACT: note_off channel=14 note=46 velocity=0 time=0.09134447916666666
EXTRACT: note_off channel=9 note=46 velocity=0 time=0.012019010416666667
EXTRACT: note_on channel=14 note=58 velocity=65 time=0.012019010416666667
EXTRACT: note_off channel=14 note=58 velocity=0 time=0.09615208333333333
EXTRACT: note_on channel=9 note=46 velocity=70 time=0.019230416666666666
EXTRACT: note_on channel=1 note=31 velocity=85 time=0
EXTRACT: note_on channel=14 note=46 velocity=67 time=0
EXTRACT: note_off channel=1 note=27 velocity=0 time=0.00721140625
EXTRACT: note_off channel=12 note=58 velocity=0 time=0.00721140625
EXTRACT: note_off channel=12 note=63 velocity=0 time=0.00721140625
EXTRACT: note_off channel=12 note=53 velocity=0 time=0.004807604166666667
EXTRACT: note_off channel=9 note=44 velocity=0 time=0.05769125
EXTRACT: note_off channel=14 note=46 velocity=0 time=0.009615208333333333
EXTRACT: note_off channel=9 note=36 velocity=0 time=0.012019010416666667
EXTRACT: note_on channel=14 note=58 velocity=66 time=0.009615208333333333
EXTRACT: note_off channel=9 note=46 velocity=0 time=0.0432684375
EXTRACT: note_off channel=1 note=31 velocity=0 time=0.031249427083333333
EXTRACT: note_off channel=14 note=58 velocity=0 time=0.019230416666666666
EXTRACT: note_on channel=9 note=36 velocity=122 time=0.02163421875
EXTRACT: note_on channel=9 note=44 velocity=111 time=0
EXTRACT: note_on channel=1 note=34 velocity=104 time=0
EXTRACT: note_on channel=14 note=46 velocity=70 time=0
EXTRACT: note_off channel=14 note=46 velocity=0 time=0.086536875
EXTRACT: note_on channel=14 note=58 velocity=66 time=0.028845625
EXTRACT: note_off channel=14 note=58 velocity=0 time=0.11297869791666666
EXTRACT: note_on channel=9 note=46 velocity=75 time=0.0024038020833333333
EXTRACT: note_on channel=12 note=53 velocity=85 time=0
EXTRACT: note_on channel=12 note=58 velocity=80 time=0
EXTRACT: note_on channel=12 note=62 velocity=76 time=0
EXTRACT: note_on channel=14 note=46 velocity=68 time=0
EXTRACT: note_off channel=9 note=44 velocity=0 time=0.026441822916666666
EXTRACT: note_off channel=9 note=40 velocity=0 time=0.026441822916666666
EXTRACT: note_off channel=9 note=39 velocity=0 time=0
EXTRACT: note_off channel=14 note=46 velocity=0 time=0.019230416666666666
EXTRACT: note_off channel=12 note=58 velocity=0 time=0.02163421875
EXTRACT: note_off channel=12 note=62 velocity=0 time=0.00721140625
EXTRACT: note_off channel=9 note=36 velocity=0 time=0.0024038020833333333
EXTRACT: note_off channel=12 note=53 velocity=0 time=0.012019010416666667
EXTRACT: note_on channel=14 note=58 velocity=65 time=0
EXTRACT: note_off channel=1 note=34 velocity=0 time=0.07932546875
EXTRACT: note_off channel=14 note=58 velocity=0 time=0.004807604166666667
EXTRACT: note_on channel=9 note=36 velocity=122 time=0.031249427083333333
EXTRACT: note_on channel=9 note=39 velocity=76 time=0
EXTRACT: note_on channel=9 note=40 velocity=74 time=0
EXTRACT: note_on channel=9 note=44 velocity=92 time=0
EXTRACT: note_on channel=1 note=29 velocity=73 time=0
EXTRACT: note_on channel=14 note=46 velocity=68 time=0
EXTRACT: note_off channel=14 note=46 velocity=0 time=0.086536875
EXTRACT: note_off channel=9 note=46 velocity=0 time=0.026441822916666666
EXTRACT: note_on channel=14 note=58 velocity=65 time=0.0024038020833333333
EXTRACT: note_off channel=1 note=29 velocity=0 time=0.05288364583333333
EXTRACT: note_off channel=14 note=58 velocity=0 time=0.033653229166666666
EXTRACT: note_on channel=9 note=46 velocity=63 time=0.028845625
EXTRACT: note_on channel=1 note=27 velocity=88 time=0
EXTRACT: note_on channel=12 note=53 velocity=80 time=0
EXTRACT: note_on channel=12 note=58 velocity=78 time=0
EXTRACT: note_on channel=12 note=62 velocity=68 time=0
EXTRACT: note_on channel=14 note=46 velocity=66 time=0
EXTRACT: note_off channel=9 note=44 velocity=0 time=0.036057031249999996
EXTRACT: note_off channel=12 note=62 velocity=0 time=0.04567223958333333
EXTRACT: note_off channel=12 note=58 velocity=0 time=0.0024038020833333333
EXTRACT: note_off channel=14 note=46 velocity=0 time=0.0024038020833333333
EXTRACT: note_off channel=9 note=36 velocity=0 time=0.004807604166666667
EXTRACT: note_off channel=12 note=53 velocity=0 time=0.00721140625
EXTRACT: note_on channel=14 note=58 velocity=65 time=0.016826614583333333
EXTRACT: note_off channel=14 note=58 velocity=0 time=0.08413307291666666
EXTRACT: note_on channel=9 note=36 velocity=122 time=0.031249427083333333
EXTRACT: note_on channel=9 note=44 velocity=85 time=0
EXTRACT: note_on channel=12 note=53 velocity=85 time=0
EXTRACT: note_on channel=12 note=58 velocity=82 time=0
EXTRACT: note_on channel=12 note=63 velocity=82 time=0
EXTRACT: note_on channel=14 note=46 velocity=67 time=0
EXTRACT: note_off channel=9 note=46 velocity=0 time=0.07692166666666667
EXTRACT: note_off channel=14 note=46 velocity=0 time=0.0144228125
EXTRACT: note_off channel=3 note=62 velocity=0 time=0.0024038020833333333
EXTRACT: note_off channel=4 note=74 velocity=0 time=0
EXTRACT: note_on channel=14 note=58 velocity=65 time=0.02163421875
EXTRACT: note_off channel=1 note=27 velocity=0 time=0.06490265625
EXTRACT: note_off channel=12 note=58 velocity=0 time=0.0144228125
EXTRACT: note_off channel=14 note=58 velocity=0 time=0.012019010416666667
EXTRACT: note_off channel=12 note=63 velocity=0 time=0.004807604166666667
EXTRACT: note_on channel=9 note=46 velocity=71 time=0.019230416666666666
EXTRACT: note_on channel=1 note=27 velocity=95 time=0
EXTRACT: note_on channel=14 note=46 velocity=66 time=0
EXTRACT: note_off channel=12 note=53 velocity=0 time=0.060095052083333336
EXTRACT: note_off channel=9 note=44 velocity=0 time=0.028845625
EXTRACT: note_off channel=9 note=39 velocity=0 time=0.0024038020833333333
EXTRACT: note_off channel=14 note=46 velocity=0 time=0
EXTRACT: note_off channel=9 note=40 velocity=0 time=0.0024038020833333333
EXTRACT: note_on channel=14 note=58 velocity=65 time=0.02163421875
EXTRACT: note_off channel=9 note=36 velocity=0 time=0.009615208333333333
EXTRACT: note_off channel=14 note=58 velocity=0 time=0.08413307291666666
EXTRACT: note_on channel=9 note=36 velocity=122 time=0.02163421875
EXTRACT: note_on channel=9 note=39 velocity=72 time=0
EXTRACT: note_on channel=9 note=40 velocity=74 time=0
EXTRACT: note_on channel=9 note=44 velocity=101 time=0
EXTRACT: note_on channel=12 note=53 velocity=82 time=0
EXTRACT: note_on channel=12 note=58 velocity=88 time=0
EXTRACT: note_on channel=12 note=63 velocity=82 time=0
EXTRACT: note_on channel=14 note=46 velocity=68 time=0
EXTRACT: note_off channel=14 note=46 velocity=0 time=0.09615208333333333
EXTRACT: note_off channel=9 note=46 velocity=0 time=0.00721140625
EXTRACT: note_on channel=14 note=58 velocity=65 time=0.012019010416666667
EXTRACT: note_off channel=12 note=53 velocity=0 time=0.0432684375
EXTRACT: note_off channel=12 note=58 velocity=0 time=0.04086463541666667
EXTRACT: note_off channel=12 note=63 velocity=0 time=0.016826614583333333
EXTRACT: note_off channel=14 note=58 velocity=0 time=0
EXTRACT: note_off channel=1 note=27 velocity=0 time=0.012019010416666667
EXTRACT: note_on channel=9 note=46 velocity=70 time=0.0024038020833333333
EXTRACT: note_on channel=1 note=31 velocity=62 time=0
EXTRACT: note_on channel=12 note=53 velocity=82 time=0
EXTRACT: note_on channel=12 note=58 velocity=73 time=0
EXTRACT: note_on channel=12 note=62 velocity=73 time=0
EXTRACT: note_on channel=14 note=46 velocity=68 time=0
EXTRACT: note_off channel=9 note=36 velocity=0 time=0.07692166666666667
EXTRACT: note_off channel=9 note=44 velocity=0 time=0.00721140625
EXTRACT: note_off channel=12 note=62 velocity=0 time=0.0024038020833333333
EXTRACT: note_off channel=14 note=46 velocity=0 time=0.00721140625
EXTRACT: note_off channel=12 note=58 velocity=0 time=0.016826614583333333
EXTRACT: note_off channel=12 note=53 velocity=0 time=0
EXTRACT: note_on channel=14 note=58 velocity=64 time=0.004807604166666667
EXTRACT: note_off channel=9 note=46 velocity=0 time=0.0432684375
EXTRACT: note_off channel=1 note=31 velocity=0 time=0.02163421875
EXTRACT: note_off channel=14 note=58 velocity=0 time=0.036057031249999996
EXTRACT: note_on channel=9 note=36 velocity=125 time=0.0144228125
EXTRACT: note_on channel=9 note=44 velocity=111 time=0
EXTRACT: note_on channel=1 note=34 velocity=82 time=0
EXTRACT: note_on channel=14 note=46 velocity=68 time=0
EXTRACT: note_off channel=14 note=46 velocity=0 time=0.09374828125
EXTRACT: note_on channel=14 note=58 velocity=65 time=0.02163421875
EXTRACT: note_off channel=14 note=58 velocity=0 time=0.10576729166666667
EXTRACT: note_on channel=9 note=46 velocity=75 time=0.009615208333333333
EXTRACT: note_on channel=12 note=53 velocity=82 time=0
EXTRACT: note_on channel=12 note=58 velocity=82 time=0
EXTRACT: note_on channel=12 note=62 velocity=73 time=0
EXTRACT: note_on channel=14 note=46 velocity=67 time=0
EXTRACT: note_off channel=9 note=44 velocity=0 time=0.026441822916666666
EXTRACT: note_off channel=9 note=40 velocity=0 time=0.031249427083333333
EXTRACT: note_off channel=9 note=39 velocity=0 time=0
EXTRACT: note_off channel=14 note=46 velocity=0 time=0.026441822916666666
EXTRACT: note_off channel=12 note=58 velocity=0 time=0.012019010416666667
EXTRACT: note_off channel=12 note=62 velocity=0 time=0.0024038020833333333
EXTRACT: note_off channel=12 note=53 velocity=0 time=0.00721140625
EXTRACT: note_off channel=9 note=36 velocity=0 time=0.00721140625
EXTRACT: note_on channel=14 note=58 velocity=65 time=0.0024038020833333333
EXTRACT: note_off channel=14 note=58 velocity=0 time=0.10576729166666667
EXTRACT: note_off channel=1 note=34 velocity=0 time=0.004807604166666667
EXTRACT: note_on channel=9 note=36 velocity=122 time=0.004807604166666667
EXTRACT: note_on channel=9 note=39 velocity=80 time=0
EXTRACT: note_on channel=9 note=40 velocity=78 time=0
EXTRACT: note_on channel=9 note=44 velocity=92 time=0
EXTRACT: note_on channel=1 note=29 velocity=76 time=0
EXTRACT: note_on channel=14 note=46 velocity=68 time=0
EXTRACT: note_off channel=14 note=46 velocity=0 time=0.09855588541666667
EXTRACT: note_off channel=9 note=46 velocity=0 time=0.0144228125
EXTRACT: note_on channel=14 note=58 velocity=65 time=0.0024038020833333333
EXTRACT: note_off channel=14 note=58 velocity=0 time=0.09374828125
EXTRACT: note_off channel=1 note=29 velocity=0 time=0.016826614583333333
EXTRACT: note_on channel=9 note=46 velocity=63 time=0.004807604166666667
EXTRACT: note_on channel=1 note=27 velocity=91 time=0
EXTRACT: note_on channel=12 note=53 velocity=88 time=0
EXTRACT: note_on channel=12 note=58 velocity=78 time=0
EXTRACT: note_on channel=12 note=63 velocity=74 time=0
EXTRACT: note_on channel=14 note=46 velocity=67 time=0
EXTRACT: note_off channel=9 note=44 velocity=0 time=0.036057031249999996
EXTRACT: note_off channel=14 note=46 velocity=0 time=0.05288364583333333
EXTRACT: note_off channel=12 note=58 velocity=0 time=0.02163421875
EXTRACT: note_off channel=9 note=36 velocity=0 time=0.004807604166666667
EXTRACT: note_on channel=14 note=58 velocity=65 time=0
EXTRACT: note_off channel=12 note=63 velocity=0 time=0.00721140625
EXTRACT: note_off channel=12 note=53 velocity=0 time=0
EXTRACT: note_off channel=14 note=58 velocity=0 time=0.08894067708333334
EXTRACT: note_on channel=9 note=36 velocity=125 time=0.019230416666666666
EXTRACT: note_on channel=9 note=44 velocity=85 time=0
EXTRACT: note_on channel=14 note=46 velocity=68 time=0
EXTRACT: note_off channel=9 note=46 velocity=0 time=0.07692166666666667
EXTRACT: note_off channel=14 note=46 velocity=0 time=0.012019010416666667
EXTRACT: note_off channel=1 note=27 velocity=0 time=0.019230416666666666
EXTRACT: note_on channel=14 note=58 velocity=64 time=0.00721140625
EXTRACT: note_off channel=14 note=58 velocity=0 time=0.10336348958333333
EXTRACT: note_on channel=9 note=46 velocity=71 time=0.012019010416666667
EXTRACT: note_on channel=1 note=27 velocity=95 time=0
EXTRACT: note_on channel=12 note=53 velocity=85 time=0
EXTRACT: note_on channel=12 note=58 velocity=88 time=0
EXTRACT: note_on channel=12 note=63 velocity=88 time=0
EXTRACT: note_on channel=14 note=46 velocity=67 time=0
EXTRACT: note_off channel=9 note=40 velocity=0 time=0.05288364583333333
EXTRACT: note_off channel=9 note=39 velocity=0 time=0.0024038020833333333
EXTRACT: note_off channel=9 note=36 velocity=0 time=0.031249427083333333
EXTRACT: note_off channel=9 note=44 velocity=0 time=0.0024038020833333333
EXTRACT: note_off channel=14 note=46 velocity=0 time=0.004807604166666667
EXTRACT: note_on channel=14 note=58 velocity=65 time=0.02163421875
EXTRACT: note_off channel=14 note=58 velocity=0 time=0.1009596875
EXTRACT: note_on channel=9 note=36 velocity=122 time=0.0144228125
EXTRACT: note_on channel=9 note=39 velocity=86 time=0
EXTRACT: note_on channel=9 note=40 velocity=86 time=0
EXTRACT: note_on channel=9 note=44 velocity=101 time=0
EXTRACT: note_on channel=14 note=46 velocity=68 time=0
EXTRACT: note_off channel=14 note=46 velocity=0 time=0.09134447916666666
EXTRACT: note_off channel=9 note=46 velocity=0 time=0.012019010416666667
EXTRACT: note_on channel=14 note=58 velocity=65 time=0.012019010416666667
EXTRACT: note_off channel=12 note=58 velocity=0 time=0.0144228125
EXTRACT: note_off channel=9 note=36 velocity=0 time=0.0024038020833333333
EXTRACT: note_off channel=12 note=63 velocity=0 time=0.00721140625
EXTRACT: note_off channel=12 note=53 velocity=0 time=0
EXTRACT: note_off channel=14 note=58 velocity=0 time=0.07211406249999999
EXTRACT: note_on channel=9 note=36 velocity=122 time=0.019230416666666666
EXTRACT: note_on channel=9 note=46 velocity=70 time=0
EXTRACT: note_on channel=1 note=31 velocity=85 time=0
EXTRACT: note_on channel=12 note=53 velocity=78 time=0
EXTRACT: note_on channel=12 note=58 velocity=80 time=0
EXTRACT: note_on channel=12 note=63 velocity=82 time=0
EXTRACT: note_on channel=14 note=46 velocity=67 time=0
EXTRACT: note_off channel=1 note=27 velocity=0 time=0.00721140625
EXTRACT: note_off channel=9 note=39 velocity=0 time=0.05047984375
EXTRACT: note_off channel=9 note=40 velocity=0 time=0.004807604166666667
EXTRACT: note_off channel=9 note=44 velocity=0 time=0.02163421875
EXTRACT: note_off channel=12 note=58 velocity=0 time=0.004807604166666667
EXTRACT: note_off channel=14 note=46 velocity=0 time=0.004807604166666667
EXTRACT: note_off channel=12 note=63 velocity=0 time=0.012019010416666667
EXTRACT: note_off channel=12 note=53 velocity=0 time=0
EXTRACT: note_on channel=14 note=58 velocity=66 time=0.009615208333333333
EXTRACT: note_off channel=9 note=36 velocity=0 time=0.02163421875
EXTRACT: note_off channel=9 note=46 velocity=0 time=0.02163421875
EXTRACT: note_off channel=1 note=31 velocity=0 time=0.031249427083333333
EXTRACT: note_off channel=14 note=58 velocity=0 time=0.019230416666666666
EXTRACT: note_on channel=9 note=36 velocity=125 time=0.02163421875
EXTRACT: note_on channel=9 note=44 velocity=111 time=0
EXTRACT: note_on channel=9 note=49 velocity=80 time=0
EXTRACT: note_on channel=9 note=57 velocity=89 time=0
EXTRACT: note_on channel=1 note=34 velocity=104 time=0
EXTRACT: note_on channel=12 note=53 velocity=84 time=0
EXTRACT: note_on channel=12 note=58 velocity=74 time=0
EXTRACT: note_on channel=12 note=62 velocity=72 time=0
EXTRACT: note_on channel=14 note=46 velocity=70 time=0
EXTRACT: note_off channel=9 note=49 velocity=0 time=0.07692166666666667
EXTRACT: note_off channel=14 note=46 velocity=0 time=0.009615208333333333
EXTRACT: note_off channel=9 note=57 velocity=0 time=0.0024038020833333333
EXTRACT: note_off channel=12 note=58 velocity=0 time=0.00721140625
EXTRACT: note_off channel=9 note=36 velocity=0 time=0.00721140625
EXTRACT: note_off channel=12 note=62 velocity=0 time=0.009615208333333333
EXTRACT: note_on channel=14 note=58 velocity=66 time=0.0024038020833333333
EXTRACT: note_off channel=12 note=53 velocity=0 time=0.00721140625
EXTRACT: note_off channel=14 note=58 velocity=0 time=0.10576729166666667
EXTRACT: note_on channel=9 note=46 velocity=75 time=0.0024038020833333333
EXTRACT: note_on channel=3 note=62 velocity=97 time=0
EXTRACT: note_on channel=4 note=74 velocity=87 time=0
EXTRACT: note_on channel=6 note=60 velocity=63 time=0
EXTRACT: note_on channel=6 note=65 velocity=68 time=0
EXTRACT: note_on channel=14 note=46 velocity=68 time=0
EXTRACT: note_off channel=9 note=44 velocity=0 time=0.026441822916666666
EXTRACT: note_off channel=14 note=46 velocity=0 time=0.04567223958333333
EXTRACT: note_on channel=14 note=58 velocity=65 time=0.0432684375
EXTRACT: note_off channel=3 note=62 velocity=0 time=0.004807604166666667
EXTRACT: note_off channel=4 note=74 velocity=0 time=0
EXTRACT: note_off channel=6 note=60 velocity=0 time=0.026441822916666666
EXTRACT: note_off channel=1 note=34 velocity=0 time=0.048076041666666666
EXTRACT: note_off channel=14 note=58 velocity=0 time=0.004807604166666667
EXTRACT: note_on channel=9 note=36 velocity=107 time=0.031249427083333333
EXTRACT: note_on channel=9 note=39 velocity=78 time=0
EXTRACT: note_on channel=9 note=40 velocity=74 time=0
EXTRACT: note_on channel=9 note=44 velocity=92 time=0
EXTRACT: note_on channel=1 note=29 velocity=73 time=0
EXTRACT: note_on channel=3 note=62 velocity=97 time=0
EXTRACT: note_on channel=4 note=74 velocity=87 time=0
EXTRACT: note_on channel=6 note=63 velocity=56 time=0
EXTRACT: note_on channel=6 note=68 velocity=63 time=0
EXTRACT: note_on channel=12 note=53 velocity=76 time=0
EXTRACT: note_on channel=12 note=58 velocity=69 time=0
EXTRACT: note_on channel=12 note=62 velocity=69 time=0
EXTRACT: note_on channel=14 note=46 velocity=68 time=0
EXTRACT: note_off channel=6 note=65 velocity=0 time=0.028845625
EXTRACT: note_off channel=14 note=46 velocity=0 time=0.05769125
EXTRACT: note_off channel=12 note=62 velocity=0 time=0.016826614583333333
EXTRACT: note_off channel=9 note=46 velocity=0 time=0.009615208333333333
EXTRACT: note_off channel=12 note=58 velocity=0 time=0
EXTRACT: note_on channel=14 note=58 velocity=65 time=0.0024038020833333333
EXTRACT: note_off channel=3 note=62 velocity=0 time=0.00721140625
EXTRACT: note_off channel=4 note=74 velocity=0 time=0
EXTRACT: note_off channel=12 note=53 velocity=0 time=0
EXTRACT: note_off channel=9 note=36 velocity=0 time=0.009615208333333333
EXTRACT: note_off channel=1 note=29 velocity=0 time=0.036057031249999996
EXTRACT: note_off channel=14 note=58 velocity=0 time=0.033653229166666666
EXTRACT: note_off channel=6 note=63 velocity=0 time=0.0024038020833333333
EXTRACT: note_off channel=6 note=68 velocity=0 time=0.016826614583333333
EXTRACT: note_on channel=9 note=46 velocity=63 time=0.009615208333333333
EXTRACT: note_on channel=1 note=27 velocity=88 time=0
EXTRACT: note_on channel=3 note=62 velocity=97 time=0
EXTRACT: note_on channel=4 note=74 velocity=87 time=0
EXTRACT: note_on channel=6 note=60 velocity=55 time=0
EXTRACT: note_on channel=6 note=65 velocity=69 time=0
EXTRACT: note_on channel=12 note=53 velocity=72 time=0
EXTRACT: note_on channel=12 note=58 velocity=70 time=0
EXTRACT: note_on channel=12 note=63 velocity=70 time=0
EXTRACT: note_on channel=14 note=46 velocity=66 time=0
EXTRACT: note_off channel=9 note=44 velocity=0 time=0.036057031249999996
EXTRACT: note_off channel=6 note=65 velocity=0 time=0.028845625
EXTRACT: note_off channel=6 note=60 velocity=0 time=0.02163421875
EXTRACT: note_off channel=14 note=46 velocity=0 time=0
EXTRACT: note_off channel=12 note=53 velocity=0 time=0.026441822916666666
EXTRACT: note_on channel=14 note=58 velocity=65 time=0.0024038020833333333
EXTRACT: note_off channel=3 note=62 velocity=0 time=0.0012019010416666667
EXTRACT: note_off channel=4 note=74 velocity=0 time=0
EXTRACT: note_off channel=12 note=58 velocity=0 time=0.015624713541666667
EXTRACT: note_off channel=12 note=63 velocity=0 time=0.012019010416666667
EXTRACT: note_off channel=14 note=58 velocity=0 time=0.05528744791666666
EXTRACT: note_on channel=9 note=36 velocity=93 time=0.031249427083333333
EXTRACT: note_on channel=9 note=44 velocity=85 time=0
EXTRACT: note_on channel=3 note=62 velocity=97 time=0
EXTRACT: note_on channel=4 note=74 velocity=87 time=0
EXTRACT: note_on channel=14 note=46 velocity=67 time=0
EXTRACT: note_off channel=9 note=46 velocity=0 time=0.07692166666666667
EXTRACT: note_off channel=14 note=46 velocity=0 time=0.0144228125
EXTRACT: note_on channel=14 note=58 velocity=65 time=0.024038020833333333
EXTRACT: note_off channel=1 note=27 velocity=0 time=0.06490265625
EXTRACT: note_off channel=14 note=58 velocity=0 time=0.026441822916666666
EXTRACT: note_on channel=9 note=46 velocity=71 time=0.024038020833333333
EXTRACT: note_on channel=1 note=27 velocity=95 time=0
EXTRACT: note_on channel=6 note=60 velocity=58 time=0
EXTRACT: note_on channel=6 note=65 velocity=63 time=0
EXTRACT: note_on channel=12 note=53 velocity=67 time=0
EXTRACT: note_on channel=12 note=58 velocity=74 time=0
EXTRACT: note_on channel=12 note=63 velocity=74 time=0
EXTRACT: note_on channel=14 note=46 velocity=66 time=0
EXTRACT: note_off channel=9 note=36 velocity=0 time=0.028845625
EXTRACT: note_off channel=9 note=44 velocity=0 time=0.060095052083333336
EXTRACT: note_off channel=14 note=46 velocity=0 time=0.0024038020833333333
EXTRACT: note_off channel=9 note=39 velocity=0 time=0.0024038020833333333
EXTRACT: note_off channel=9 note=40 velocity=0 time=0.009615208333333333
EXTRACT: note_on channel=14 note=58 velocity=65 time=0.012019010416666667
EXTRACT: note_off channel=6 note=60 velocity=0 time=0.0024038020833333333
EXTRACT: note_off channel=14 note=58 velocity=0 time=0.09134447916666666
EXTRACT: note_on channel=9 note=36 velocity=125 time=0.02163421875
EXTRACT: note_on channel=9 note=39 velocity=62 time=0
EXTRACT: note_on channel=9 note=40 velocity=66 time=0
EXTRACT: note_on channel=9 note=44 velocity=101 time=0
EXTRACT: note_on channel=3 note=60 velocity=97 time=0
EXTRACT: note_on channel=4 note=72 velocity=87 time=0
EXTRACT: note_on channel=6 note=63 velocity=57 time=0
EXTRACT: note_on channel=6 note=68 velocity=68 time=0
EXTRACT: note_on channel=14 note=46 velocity=68 time=0
EXTRACT: note_off channel=6 note=65 velocity=0 time=0.004807604166666667
EXTRACT: note_off channel=14 note=46 velocity=0 time=0.09134447916666666
EXTRACT: note_off channel=9 note=46 velocity=0 time=0.00721140625
EXTRACT: note_off channel=12 note=53 velocity=0 time=0.004807604166666667
EXTRACT: note_off channel=3 note=62 velocity=0 time=0.003605703125
EXTRACT: note_off channel=4 note=74 velocity=0 time=0
EXTRACT: note_on channel=14 note=58 velocity=65 time=0.003605703125
EXTRACT: note_off channel=12 note=58 velocity=0 time=0.00721140625
EXTRACT: note_off channel=12 note=63 velocity=0 time=0.0144228125
EXTRACT: note_off channel=3 note=60 velocity=0 time=0.013220911458333333
EXTRACT: note_off channel=4 note=72 velocity=0 time=0
EXTRACT: note_off channel=6 note=68 velocity=0 time=0.04447033854166667
EXTRACT: note_off channel=6 note=63 velocity=0 time=0.009615208333333333
EXTRACT: note_off channel=14 note=58 velocity=0 time=0.012019010416666667
EXTRACT: note_off channel=1 note=27 velocity=0 time=0.012019010416666667
EXTRACT: note_on channel=9 note=46 velocity=70 time=0.0024038020833333333
EXTRACT: note_on channel=1 note=31 velocity=62 time=0
EXTRACT: note_on channel=3 note=65 velocity=97 time=0
EXTRACT: note_on channel=4 note=77 velocity=87 time=0
EXTRACT: note_on channel=6 note=60 velocity=58 time=0
EXTRACT: note_on channel=6 note=65 velocity=62 time=0
EXTRACT: note_on channel=12 note=53 velocity=67 time=0
EXTRACT: note_on channel=12 note=58 velocity=69 time=0
EXTRACT: note_on channel=12 note=63 velocity=64 time=0
EXTRACT: note_on channel=14 note=46 velocity=68 time=0
EXTRACT: note_off channel=6 note=65 velocity=0 time=0.06730645833333333
EXTRACT: note_off channel=6 note=60 velocity=0 time=0.0144228125
EXTRACT: note_off channel=9 note=44 velocity=0 time=0.0024038020833333333
EXTRACT: note_off channel=9 note=36 velocity=0 time=0.0024038020833333333
EXTRACT: note_off channel=14 note=46 velocity=0 time=0.00721140625
EXTRACT: note_on channel=14 note=58 velocity=64 time=0.02163421875
EXTRACT: note_off channel=12 note=53 velocity=0 time=0.00721140625
EXTRACT: note_off channel=12 note=58 velocity=0 time=0.012019010416666667
EXTRACT: note_off channel=9 note=46 velocity=0 time=0.024038020833333333
EXTRACT: note_off channel=12 note=63 velocity=0 time=0.004807604166666667
EXTRACT: note_off channel=1 note=31 velocity=0 time=0.016826614583333333
EXTRACT: note_off channel=14 note=58 velocity=0 time=0.036057031249999996
EXTRACT: note_on channel=9 note=36 velocity=118 time=0.0144228125
EXTRACT: note_on channel=9 note=44 velocity=111 time=0
EXTRACT: note_on channel=1 note=34 velocity=82 time=0
EXTRACT: note_on channel=12 note=53 velocity=70 time=0
EXTRACT: note_on channel=12 note=58 velocity=69 time=0
EXTRACT: note_on channel=12 note=62 velocity=67 time=0
EXTRACT: note_on channel=14 note=46 velocity=68 time=0
EXTRACT: note_off channel=12 note=58 velocity=0 time=0.09374828125
EXTRACT: note_off channel=14 note=46 velocity=0 time=0
EXTRACT: note_off channel=12 note=62 velocity=0 time=0.012019010416666667
EXTRACT: note_off channel=12 note=53 velocity=0 time=0.004807604166666667
EXTRACT: note_on channel=14 note=58 velocity=65 time=0.004807604166666667
EXTRACT: note_off channel=3 note=65 velocity=0 time=0.008413307291666667
EXTRACT: note_off channel=4 note=77 velocity=0 time=0
EXTRACT: note_off channel=14 note=58 velocity=0 time=0.097353984375
EXTRACT: note_on channel=9 note=46 velocity=75 time=0.009615208333333333
EXTRACT: note_on channel=3 note=65 velocity=97 time=0
EXTRACT: note_on channel=4 note=77 velocity=87 time=0
EXTRACT: note_on channel=6 note=60 velocity=62 time=0
EXTRACT: note_on channel=6 note=65 velocity=71 time=0
EXTRACT: note_on channel=14 note=46 velocity=67 time=0
EXTRACT: note_off channel=9 note=44 velocity=0 time=0.026441822916666666
EXTRACT: note_off channel=9 note=36 velocity=0 time=0.05047984375
EXTRACT: note_off channel=14 note=46 velocity=0 time=0.00721140625
EXTRACT: note_off channel=9 note=40 velocity=0 time=0.012019010416666667
EXTRACT: note_off channel=9 note=39 velocity=0 time=0.009615208333333333
EXTRACT: note_on channel=14 note=58 velocity=65 time=0.009615208333333333
EXTRACT: note_off channel=6 note=60 velocity=0 time=0.09134447916666666
EXTRACT: note_off channel=14 note=58 velocity=0 time=0.0144228125
EXTRACT: note_off channel=1 note=34 velocity=0 time=0.004807604166666667
EXTRACT: note_on channel=9 note=36 velocity=118 time=0.004807604166666667
EXTRACT: note_on channel=9 note=39 velocity=66 time=0
EXTRACT: note_on channel=9 note=40 velocity=74 time=0
EXTRACT: note_on channel=9 note=44 velocity=92 time=0
EXTRACT: note_on channel=1 note=29 velocity=76 time=0
EXTRACT: note_on channel=6 note=63 velocity=66 time=0
EXTRACT: note_on channel=6 note=68 velocity=68 time=0
EXTRACT: note_on channel=12 note=53 velocity=78 time=0
EXTRACT: note_on channel=12 note=58 velocity=74 time=0
EXTRACT: note_on channel=12 note=62 velocity=69 time=0
EXTRACT: note_on channel=14 note=46 velocity=68 time=0
EXTRACT: note_off channel=6 note=65 velocity=0 time=0.033653229166666666
EXTRACT: note_off channel=14 note=46 velocity=0 time=0.06490265625
EXTRACT: note_off channel=6 note=68 velocity=0 time=0.012019010416666667
EXTRACT: note_off channel=9 note=46 velocity=0 time=0.0024038020833333333
EXTRACT: note_on channel=14 note=58 velocity=65 time=0.0024038020833333333
EXTRACT: note_off channel=12 note=62 velocity=0 time=0.033653229166666666
EXTRACT: note_off channel=12 note=58 velocity=0 time=0
EXTRACT: note_off channel=12 note=53 velocity=0 time=0
EXTRACT: note_off channel=14 note=58 velocity=0 time=0.060095052083333336
EXTRACT: note_off channel=6 note=63 velocity=0 time=0.00721140625
EXTRACT: note_off channel=1 note=29 velocity=0 time=0.009615208333333333
EXTRACT: note_on channel=9 note=46 velocity=63 time=0.004807604166666667
EXTRACT: note_on channel=1 note=27 velocity=91 time=0
EXTRACT: note_on channel=3 note=62 velocity=97 time=0
EXTRACT: note_on channel=4 note=74 velocity=87 time=0
EXTRACT: note_on channel=6 note=60 velocity=48 time=0
EXTRACT: note_on channel=6 note=65 velocity=62 time=0
EXTRACT: note_on channel=12 note=53 velocity=78 time=0
EXTRACT: note_on channel=12 note=58 velocity=76 time=0
EXTRACT: note_on channel=12 note=63 velocity=76 time=0
EXTRACT: note_on channel=14 note=46 velocity=67 time=0
EXTRACT: note_off channel=3 note=65 velocity=0 time=0.02764372395833333
EXTRACT: note_off channel=4 note=77 velocity=0 time=0
EXTRACT: note_off channel=9 note=44 velocity=0 time=0.008413307291666667
EXTRACT: note_off channel=14 note=46 velocity=0 time=0.05288364583333333
EXTRACT: note_off channel=6 note=60 velocity=0 time=0.0024038020833333333
EXTRACT: note_off channel=6 note=65 velocity=0 time=0.024038020833333333
EXTRACT: note_on channel=14 note=58 velocity=65 time=0
EXTRACT: note_off channel=12 note=58 velocity=0 time=0.019230416666666666
EXTRACT: note_off channel=12 note=63 velocity=0 time=0.004807604166666667
EXTRACT: note_off channel=9 note=36 velocity=0 time=0.0024038020833333333
EXTRACT: note_off channel=12 note=53 velocity=0 time=0.00721140625
EXTRACT: note_off channel=14 note=58 velocity=0 time=0.062498854166666666
EXTRACT: note_on channel=9 note=36 velocity=125 time=0.019230416666666666
EXTRACT: note_on channel=9 note=44 velocity=85 time=0
EXTRACT: note_on channel=14 note=46 velocity=68 time=0
EXTRACT: note_off channel=9 note=46 velocity=0 time=0.07692166666666667
EXTRACT: note_off channel=14 note=46 velocity=0 time=0.012019010416666667
EXTRACT: note_off channel=1 note=27 velocity=0 time=0.019230416666666666
EXTRACT: note_on channel=14 note=58 velocity=64 time=0.00721140625
EXTRACT: note_off channel=3 note=62 velocity=0 time=0.062498854166666666
EXTRACT: note_off channel=4 note=74 velocity=0 time=0
EXTRACT: note_off channel=14 note=58 velocity=0 time=0.04086463541666667
EXTRACT: note_on channel=9 note=46 velocity=71 time=0.012019010416666667
EXTRACT: note_on channel=1 note=27 velocity=95 time=0
EXTRACT: note_on channel=3 note=60 velocity=97 time=0
EXTRACT: note_on channel=4 note=72 velocity=87 time=0
EXTRACT: note_on channel=6 note=60 velocity=56 time=0
EXTRACT: note_on channel=6 note=65 velocity=71 time=0
EXTRACT: note_on channel=12 note=53 velocity=76 time=0
EXTRACT: note_on channel=12 note=58 velocity=74 time=0
EXTRACT: note_on channel=12 note=63 velocity=76 time=0
EXTRACT: note_on channel=14 note=46 velocity=67 time=0
EXTRACT: note_off channel=9 note=44 velocity=0 time=0.08894067708333334
EXTRACT: note_off channel=9 note=39 velocity=0 time=0.0024038020833333333
EXTRACT: note_off channel=9 note=40 velocity=0 time=0.0024038020833333333
EXTRACT: note_off channel=14 note=46 velocity=0 time=0
EXTRACT: note_off channel=9 note=36 velocity=0 time=0.019230416666666666
EXTRACT: note_on channel=14 note=58 velocity=65 time=0.0024038020833333333
EXTRACT: note_off channel=6 note=60 velocity=0 time=0.09615208333333333
EXTRACT: note_off channel=14 note=58 velocity=0 time=0.004807604166666667
EXTRACT: note_on channel=9 note=36 velocity=122 time=0.0144228125
EXTRACT: note_on channel=9 note=39 velocity=65 time=0
EXTRACT: note_on channel=9 note=40 velocity=63 time=0
EXTRACT: note_on channel=9 note=44 velocity=101 time=0
EXTRACT: note_on channel=6 note=63 velocity=54 time=0
EXTRACT: note_on channel=6 note=68 velocity=61 time=0
EXTRACT: note_on channel=14 note=46 velocity=68 time=0
EXTRACT: note_off channel=6 note=65 velocity=0 time=0.060095052083333336
EXTRACT: note_off channel=14 note=46 velocity=0 time=0.031249427083333333
EXTRACT: note_off channel=9 note=46 velocity=0 time=0.012019010416666667
EXTRACT: note_on channel=14 note=58 velocity=65 time=0.012019010416666667
EXTRACT: note_off channel=14 note=58 velocity=0 time=0.09615208333333333
EXTRACT: note_off channel=6 note=63 velocity=0 time=0.00721140625
EXTRACT: note_off channel=6 note=68 velocity=0 time=0.004807604166666667
EXTRACT: note_on channel=9 note=46 velocity=70 time=0.00721140625
EXTRACT: note_on channel=1 note=31 velocity=85 time=0
EXTRACT: note_on channel=3 note=62 velocity=97 time=0
EXTRACT: note_on channel=4 note=74 velocity=87 time=0
EXTRACT: note_on channel=6 note=60 velocity=52 time=0
EXTRACT: note_on channel=6 note=65 velocity=57 time=0
EXTRACT: note_on channel=14 note=46 velocity=67 time=0
EXTRACT: note_off channel=3 note=60 velocity=0 time=0.003605703125
EXTRACT: note_off channel=4 note=72 velocity=0 time=0
EXTRACT: note_off channel=1 note=27 velocity=0 time=0.003605703125
EXTRACT: note_off channel=12 note=58 velocity=0 time=0.00721140625
EXTRACT: note_off channel=12 note=63 velocity=0 time=0.00721140625
EXTRACT: note_off channel=12 note=53 velocity=0 time=0.004807604166666667
EXTRACT: note_off channel=6 note=65 velocity=0 time=0.048076041666666666
EXTRACT: note_off channel=6 note=60 velocity=0 time=0.00721140625
EXTRACT: note_off channel=9 note=44 velocity=0 time=0.0024038020833333333
EXTRACT: note_off channel=14 note=46 velocity=0 time=0.009615208333333333
EXTRACT: note_on channel=14 note=58 velocity=66 time=0.02163421875
EXTRACT: note_off channel=9 note=36 velocity=0 time=0.0024038020833333333
EXTRACT: note_off channel=9 note=46 velocity=0 time=0.04086463541666667
EXTRACT: note_off channel=1 note=31 velocity=0 time=0.031249427083333333
EXTRACT: note_off channel=14 note=58 velocity=0 time=0.019230416666666666
EXTRACT: note_on channel=9 note=36 velocity=118 time=0.02163421875
EXTRACT: note_on channel=9 note=44 velocity=111 time=0
EXTRACT: note_on channel=1 note=34 velocity=104 time=0
EXTRACT: note_on channel=14 note=46 velocity=70 time=0
EXTRACT: note_off channel=14 note=46 velocity=0 time=0.086536875
EXTRACT: note_on channel=14 note=58 velocity=66 time=0.028845625
EXTRACT: note_off channel=14 note=58 velocity=0 time=0.11297869791666666
EXTRACT: note_on channel=9 note=46 velocity=75 time=0.0024038020833333333
EXTRACT: note_on channel=6 note=60 velocity=69 time=0
EXTRACT: note_on channel=6 note=65 velocity=75 time=0
EXTRACT: note_on channel=12 note=53 velocity=81 time=0
EXTRACT: note_on channel=12 note=58 velocity=76 time=0
EXTRACT: note_on channel=12 note=62 velocity=72 time=0
EXTRACT: note_on channel=14 note=46 velocity=68 time=0
EXTRACT: note_off channel=9 note=44 velocity=0 time=0.026441822916666666
EXTRACT: note_off channel=9 note=39 velocity=0 time=0.04086463541666667
EXTRACT: note_off channel=14 note=46 velocity=0 time=0.004807604166666667
EXTRACT: note_off channel=9 note=40 velocity=0 time=0.0024038020833333333
EXTRACT: note_off channel=12 note=58 velocity=0 time=0.019230416666666666
EXTRACT: note_off channel=9 note=36 velocity=0 time=0.00721140625
EXTRACT: note_off channel=12 note=62 velocity=0 time=0
EXTRACT: note_off channel=12 note=53 velocity=0 time=0.0144228125
EXTRACT: note_on channel=14 note=58 velocity=65 time=0
EXTRACT: note_off channel=6 note=60 velocity=0 time=0.04086463541666667
EXTRACT: note_off channel=1 note=34 velocity=0 time=0.03846083333333333
EXTRACT: note_off channel=14 note=58 velocity=0 time=0.004807604166666667
EXTRACT: note_on channel=9 note=36 velocity=118 time=0.031249427083333333
EXTRACT: note_on channel=9 note=39 velocity=62 time=0
EXTRACT: note_on channel=9 note=40 velocity=63 time=0
EXTRACT: note_on channel=9 note=44 velocity=92 time=0
EXTRACT: note_on channel=1 note=29 velocity=73 time=0
EXTRACT: note_on channel=6 note=63 velocity=55 time=0
EXTRACT: note_on channel=6 note=68 velocity=63 time=0
EXTRACT: note_on channel=14 note=46 velocity=68 time=0
EXTRACT: note_off channel=6 note=65 velocity=0 time=0.05047984375
EXTRACT: note_off channel=14 note=46 velocity=0 time=0.036057031249999996
EXTRACT: note_off channel=9 note=46 velocity=0 time=0.026441822916666666
EXTRACT: note_off channel=6 note=63 velocity=0 time=0.0024038020833333333
EXTRACT: note_on channel=14 note=58 velocity=65 time=0
EXTRACT: note_off channel=1 note=29 velocity=0 time=0.05288364583333333
EXTRACT: note_off channel=14 note=58 velocity=0 time=0.033653229166666666
EXTRACT: note_off channel=6 note=68 velocity=0 time=0.0144228125
EXTRACT: note_on channel=9 note=46 velocity=63 time=0.0144228125
EXTRACT: note_on channel=1 note=27 velocity=88 time=0
EXTRACT: note_on channel=3 note=60 velocity=97 time=0
EXTRACT: note_on channel=4 note=72 velocity=87 time=0
EXTRACT: note_on channel=6 note=60 velocity=60 time=0
EXTRACT: note_on channel=6 note=65 velocity=71 time=0
EXTRACT: note_on channel=12 note=53 velocity=76 time=0
EXTRACT: note_on channel=12 note=58 velocity=74 time=0
EXTRACT: note_on channel=12 note=62 velocity=64 time=0
EXTRACT: note_on channel=14 note=46 velocity=66 time=0
EXTRACT: note_off channel=9 note=44 velocity=0 time=0.036057031249999996
EXTRACT: note_off channel=12 note=62 velocity=0 time=0.04567223958333333
EXTRACT: note_off channel=12 note=58 velocity=0 time=0.0024038020833333333
EXTRACT: note_off channel=14 note=46 velocity=0 time=0.0024038020833333333
EXTRACT: note_off channel=6 note=60 velocity=0 time=0.00721140625
EXTRACT: note_off channel=12 note=53 velocity=0 time=0.004807604166666667
EXTRACT: note_off channel=6 note=65 velocity=0 time=0.009615208333333333
EXTRACT: note_on channel=14 note=58 velocity=65 time=0.00721140625
EXTRACT: note_off channel=9 note=36 velocity=0 time=0.02163421875
EXTRACT: note_off channel=3 note=62 velocity=0 time=0.039662734375
EXTRACT: note_off channel=4 note=74 velocity=0 time=0
EXTRACT: note_off channel=14 note=58 velocity=0 time=0.022836119791666665
EXTRACT: note_on channel=9 note=36 velocity=125 time=0.031249427083333333
EXTRACT: note_on channel=9 note=44 velocity=85 time=0
EXTRACT: note_on channel=6 note=60 velocity=60 time=0
EXTRACT: note_on channel=6 note=63 velocity=73 time=0
EXTRACT: note_on channel=12 note=53 velocity=81 time=0
EXTRACT: note_on channel=12 note=58 velocity=78 time=0
EXTRACT: note_on channel=12 note=63 velocity=78 time=0
EXTRACT: note_on channel=14 note=46 velocity=67 time=0
EXTRACT: note_off channel=9 note=46 velocity=0 time=0.07692166666666667
EXTRACT: note_off channel=6 note=60 velocity=0 time=0.004807604166666667
EXTRACT: note_off channel=14 note=46 velocity=0 time=0.009615208333333333
EXTRACT: note_off channel=6 note=63 velocity=0 time=0.016826614583333333
EXTRACT: note_on channel=14 note=58 velocity=65 time=0.00721140625
EXTRACT: note_off channel=1 note=27 velocity=0 time=0.06490265625
EXTRACT: note_off channel=12 note=58 velocity=0 time=0.0144228125
EXTRACT: note_off channel=14 note=58 velocity=0 time=0.012019010416666667
EXTRACT: note_off channel=12 note=63 velocity=0 time=0.004807604166666667
EXTRACT: note_on channel=9 note=46 velocity=71 time=0.019230416666666666
EXTRACT: note_on channel=1 note=27 velocity=95 time=0
EXTRACT: note_on channel=3 note=58 velocity=97 time=0
EXTRACT: note_on channel=4 note=70 velocity=87 time=0
EXTRACT: note_on channel=6 note=60 velocity=58 time=0
EXTRACT: note_on channel=6 note=62 velocity=63 time=0
EXTRACT: note_on channel=14 note=46 velocity=66 time=0
EXTRACT: note_off channel=12 note=53 velocity=0 time=0.060095052083333336
EXTRACT: note_off channel=9 note=44 velocity=0 time=0.028845625
EXTRACT: note_off channel=9 note=40 velocity=0 time=0.0024038020833333333
EXTRACT: note_off channel=14 note=46 velocity=0 time=0
EXTRACT: note_off channel=9 note=36 velocity=0 time=0.0024038020833333333
EXTRACT: note_off channel=9 note=39 velocity=0 time=0
EXTRACT: note_off channel=3 note=60 velocity=0 time=0.018028515624999998
EXTRACT: note_off channel=4 note=72 velocity=0 time=0
EXTRACT: note_on channel=14 note=58 velocity=65 time=0.003605703125
EXTRACT: note_off channel=6 note=62 velocity=0 time=0.016826614583333333
EXTRACT: note_off channel=6 note=60 velocity=0 time=0.0144228125
EXTRACT: note_off channel=14 note=58 velocity=0 time=0.062498854166666666
EXTRACT: note_on channel=9 note=36 velocity=125 time=0.02163421875
EXTRACT: note_on channel=9 note=39 velocity=66 time=0
EXTRACT: note_on channel=9 note=40 velocity=65 time=0
EXTRACT: note_on channel=9 note=44 velocity=101 time=0
EXTRACT: note_on channel=12 note=53 velocity=78 time=0
EXTRACT: note_on channel=12 note=58 velocity=84 time=0
EXTRACT: note_on channel=12 note=63 velocity=78 time=0
EXTRACT: note_on channel=14 note=46 velocity=68 time=0
EXTRACT: note_off channel=14 note=46 velocity=0 time=0.09615208333333333
EXTRACT: note_off channel=9 note=46 velocity=0 time=0.00721140625
EXTRACT: note_on channel=14 note=58 velocity=65 time=0.012019010416666667
EXTRACT: note_off channel=12 note=53 velocity=0 time=0.0432684375
EXTRACT: note_off channel=12 note=58 velocity=0 time=0.04086463541666667
EXTRACT: note_off channel=12 note=63 velocity=0 time=0.016826614583333333
EXTRACT: note_off channel=14 note=58 velocity=0 time=0
EXTRACT: note_off channel=1 note=27 velocity=0 time=0.012019010416666667
EXTRACT: note_on channel=9 note=46 velocity=70 time=0.0024038020833333333
EXTRACT: note_on channel=1 note=31 velocity=62 time=0
EXTRACT: note_on channel=12 note=53 velocity=78 time=0
EXTRACT: note_on channel=12 note=58 velocity=69 time=0
EXTRACT: note_on channel=12 note=62 velocity=69 time=0
EXTRACT: note_on channel=14 note=46 velocity=68 time=0
EXTRACT: note_off channel=9 note=44 velocity=0 time=0.08413307291666666
EXTRACT: note_off channel=12 note=62 velocity=0 time=0.0024038020833333333
EXTRACT: note_off channel=9 note=36 velocity=0 time=0.004807604166666667
EXTRACT: note_off channel=14 note=46 velocity=0 time=0.0024038020833333333
EXTRACT: note_off channel=12 note=58 velocity=0 time=0.016826614583333333
EXTRACT: note_off channel=12 note=53 velocity=0 time=0
EXTRACT: note_on channel=14 note=58 velocity=64 time=0.004807604166666667
EXTRACT: note_off channel=9 note=46 velocity=0 time=0.0432684375
EXTRACT: note_off channel=1 note=31 velocity=0 time=0.02163421875
EXTRACT: note_off channel=14 note=58 velocity=0 time=0.036057031249999996
EXTRACT: note_on channel=9 note=36 velocity=125 time=0.0144228125
EXTRACT: note_on channel=9 note=44 velocity=111 time=0
EXTRACT: note_on channel=1 note=34 velocity=82 time=0
EXTRACT: note_on channel=3 note=62 velocity=97 time=0
EXTRACT: note_on channel=4 note=74 velocity=87 time=0
EXTRACT: note_on channel=14 note=46 velocity=68 time=0
EXTRACT: note_off channel=3 note=58 velocity=0 time=0.037258932291666665
EXTRACT: note_off channel=4 note=70 velocity=0 time=0
EXTRACT: note_off channel=14 note=46 velocity=0 time=0.05648934895833333
EXTRACT: note_on channel=14 note=58 velocity=65 time=0.02163421875
EXTRACT: note_off channel=14 note=58 velocity=0 time=0.10576729166666667
EXTRACT: note_on channel=9 note=46 velocity=75 time=0.009615208333333333
EXTRACT: note_on channel=6 note=58 velocity=73 time=0
EXTRACT: note_on channel=6 note=63 velocity=68 time=0
EXTRACT: note_on channel=12 note=53 velocity=78 time=0
EXTRACT: note_on channel=12 note=58 velocity=78 time=0
EXTRACT: note_on channel=12 note=62 velocity=69 time=0
EXTRACT: note_on channel=14 note=46 velocity=67 time=0
EXTRACT: note_off channel=9 note=44 velocity=0 time=0.026441822916666666
EXTRACT: note_off channel=9 note=39 velocity=0 time=0.012019010416666667
EXTRACT: note_off channel=9 note=40 velocity=0 time=0.00721140625
EXTRACT: note_off channel=14 note=46 velocity=0 time=0.03846083333333333
EXTRACT: note_off channel=12 note=58 velocity=0 time=0.012019010416666667
EXTRACT: note_off channel=12 note=62 velocity=0 time=0.0024038020833333333
EXTRACT: note_off channel=9 note=36 velocity=0 time=0.004807604166666667
EXTRACT: note_off channel=6 note=58 velocity=0 time=0.0024038020833333333
EXTRACT: note_off channel=12 note=53 velocity=0 time=0
EXTRACT: note_on channel=14 note=58 velocity=65 time=0.009615208333333333
EXTRACT: note_off channel=3 note=62 velocity=0 time=0.05047984375
EXTRACT: note_off channel=4 note=74 velocity=0 time=0
EXTRACT: note_off channel=6 note=63 velocity=0 time=0.048076041666666666
EXTRACT: note_off channel=14 note=58 velocity=0 time=0.00721140625
EXTRACT: note_off channel=1 note=34 velocity=0 time=0.004807604166666667
EXTRACT: note_on channel=9 note=36 velocity=122 time=0.004807604166666667
EXTRACT: note_on channel=9 note=39 velocity=65 time=0
EXTRACT: note_on channel=9 note=40 velocity=65 time=0
EXTRACT: note_on channel=9 note=44 velocity=92 time=0
EXTRACT: note_on channel=1 note=29 velocity=76 time=0
EXTRACT: note_on channel=3 note=62 velocity=97 time=0
EXTRACT: note_on channel=4 note=74 velocity=87 time=0
EXTRACT: note_on channel=6 note=58 velocity=69 time=0
EXTRACT: note_on channel=6 note=62 velocity=69 time=0
EXTRACT: note_on channel=14 note=46 velocity=68 time=0
EXTRACT: note_off channel=14 note=46 velocity=0 time=0.09855588541666667
EXTRACT: note_off channel=9 note=46 velocity=0 time=0.0144228125
EXTRACT: note_on channel=14 note=58 velocity=65 time=0.0024038020833333333
EXTRACT: note_off channel=6 note=62 velocity=0 time=0.08172927083333334
EXTRACT: note_off channel=6 note=58 velocity=0 time=0.012019010416666667
EXTRACT: note_off channel=14 note=58 velocity=0 time=0
EXTRACT: note_off channel=1 note=29 velocity=0 time=0.016826614583333333
EXTRACT: note_on channel=9 note=46 velocity=63 time=0.004807604166666667
EXTRACT: note_on channel=1 note=27 velocity=91 time=0
EXTRACT: note_on channel=3 note=60 velocity=97 time=0
EXTRACT: note_on channel=4 note=72 velocity=87 time=0
EXTRACT: note_on channel=12 note=53 velocity=84 time=0
EXTRACT: note_on channel=12 note=58 velocity=74 time=0
EXTRACT: note_on channel=12 note=63 velocity=70 time=0
EXTRACT: note_on channel=14 note=46 velocity=67 time=0
EXTRACT: note_off channel=9 note=44 velocity=0 time=0.036057031249999996
EXTRACT: note_off channel=3 note=62 velocity=0 time=0.018028515624999998
EXTRACT: note_off channel=4 note=74 velocity=0 time=0
EXTRACT: note_off channel=14 note=46 velocity=0 time=0.034855130208333335
EXTRACT: note_off channel=12 note=58 velocity=0 time=0.02163421875
EXTRACT: note_on channel=14 note=58 velocity=65 time=0.004807604166666667
EXTRACT: note_off channel=9 note=36 velocity=0 time=0.0024038020833333333
EXTRACT: note_off channel=12 note=63 velocity=0 time=0.004807604166666667
EXTRACT: note_off channel=12 note=53 velocity=0 time=0
EXTRACT: note_off channel=14 note=58 velocity=0 time=0.08894067708333334
EXTRACT: note_on channel=9 note=36 velocity=125 time=0.019230416666666666
EXTRACT: note_on channel=9 note=44 velocity=85 time=0
EXTRACT: note_on channel=14 note=46 velocity=68 time=0
EXTRACT: note_off channel=9 note=46 velocity=0 time=0.07692166666666667
EXTRACT: note_off channel=14 note=46 velocity=0 time=0.012019010416666667
EXTRACT: note_off channel=1 note=27 velocity=0 time=0.019230416666666666
EXTRACT: note_on channel=14 note=58 velocity=64 time=0.00721140625
EXTRACT: note_off channel=14 note=58 velocity=0 time=0.10336348958333333
EXTRACT: note_on channel=9 note=46 velocity=71 time=0.012019010416666667
EXTRACT: note_on channel=1 note=27 velocity=95 time=0
EXTRACT: note_on channel=3 note=58 velocity=97 time=0
EXTRACT: note_on channel=4 note=70 velocity=87 time=0
EXTRACT: note_on channel=6 note=60 velocity=69 time=0
EXTRACT: note_on channel=6 note=65 velocity=77 time=0
EXTRACT: note_on channel=12 note=53 velocity=81 time=0
EXTRACT: note_on channel=12 note=58 velocity=84 time=0
EXTRACT: note_on channel=12 note=63 velocity=84 time=0
EXTRACT: note_on channel=14 note=46 velocity=67 time=0
EXTRACT: note_off channel=9 note=40 velocity=0 time=0.06971026041666667
EXTRACT: note_off channel=9 note=39 velocity=0 time=0
EXTRACT: note_off channel=3 note=60 velocity=0 time=0.003605703125
EXTRACT: note_off channel=4 note=72 velocity=0 time=0
EXTRACT: note_off channel=9 note=44 velocity=0 time=0.015624713541666667
EXTRACT: note_off channel=14 note=46 velocity=0 time=0.004807604166666667
EXTRACT: note_off channel=9 note=36 velocity=0 time=0.00721140625
EXTRACT: note_on channel=14 note=58 velocity=65 time=0.0144228125
EXTRACT: note_off channel=6 note=60 velocity=0 time=0.02163421875
EXTRACT: note_off channel=14 note=58 velocity=0 time=0.07932546875
EXTRACT: note_on channel=9 note=36 velocity=125 time=0.0144228125
EXTRACT: note_on channel=9 note=39 velocity=65 time=0
EXTRACT: note_on channel=9 note=40 velocity=64 time=0
EXTRACT: note_on channel=9 note=44 velocity=101 time=0
EXTRACT: note_on channel=6 note=63 velocity=62 time=0
EXTRACT: note_on channel=6 note=68 velocity=68 time=0
EXTRACT: note_on channel=14 note=46 velocity=68 time=0
EXTRACT: note_off channel=6 note=65 velocity=0 time=0.05528744791666666
EXTRACT: note_off channel=14 note=46 velocity=0 time=0.036057031249999996
EXTRACT: note_off channel=9 note=46 velocity=0 time=0.012019010416666667
EXTRACT: note_on channel=14 note=58 velocity=65 time=0.012019010416666667
EXTRACT: note_off channel=12 note=58 velocity=0 time=0.0144228125
EXTRACT: note_off channel=12 note=63 velocity=0 time=0.009615208333333333
EXTRACT: note_off channel=12 note=53 velocity=0 time=0
EXTRACT: note_off channel=14 note=58 velocity=0 time=0.07211406249999999
EXTRACT: note_off channel=6 note=68 velocity=0 time=0.004807604166666667
EXTRACT: note_on channel=9 note=46 velocity=70 time=0.0144228125
EXTRACT: note_on channel=1 note=31 velocity=85 time=0
EXTRACT: note_on channel=6 note=60 velocity=57 time=0
EXTRACT: note_on channel=6 note=65 velocity=71 time=0
EXTRACT: note_on channel=12 note=53 velocity=74 time=0
EXTRACT: note_on channel=12 note=58 velocity=76 time=0
EXTRACT: note_on channel=12 note=63 velocity=78 time=0
EXTRACT: note_on channel=14 note=46 velocity=67 time=0
EXTRACT: note_off channel=1 note=27 velocity=0 time=0.00721140625
EXTRACT: note_off channel=6 note=63 velocity=0 time=0.009615208333333333
EXTRACT: note_off channel=9 note=44 velocity=0 time=0.06730645833333333
EXTRACT: note_off channel=12 note=58 velocity=0 time=0.004807604166666667
EXTRACT: note_off channel=6 note=65 velocity=0 time=0.004807604166666667
EXTRACT: note_off channel=6 note=60 velocity=0 time=0
EXTRACT: note_off channel=14 note=46 velocity=0 time=0
EXTRACT: note_off channel=12 note=63 velocity=0 time=0.012019010416666667
EXTRACT: note_off channel=12 note=53 velocity=0 time=0
EXTRACT: note_off channel=9 note=36 velocity=0 time=0.0024038020833333333
EXTRACT: note_on channel=14 note=58 velocity=66 time=0.00721140625
EXTRACT: note_off channel=9 note=46 velocity=0 time=0.0432684375
EXTRACT: note_off channel=1 note=31 velocity=0 time=0.031249427083333333
EXTRACT: note_off channel=14 note=58 velocity=0 time=0.019230416666666666
EXTRACT: note_on channel=9 note=36 velocity=122 time=0.02163421875
EXTRACT: note_on channel=9 note=44 velocity=111 time=0
EXTRACT: note_on channel=1 note=34 velocity=104 time=0
EXTRACT: note_on channel=3 note=62 velocity=97 time=0
EXTRACT: note_on channel=4 note=74 velocity=87 time=0
EXTRACT: note_on channel=12 note=53 velocity=84 time=0
EXTRACT: note_on channel=12 note=58 velocity=74 time=0
EXTRACT: note_on channel=12 note=62 velocity=72 time=0
EXTRACT: note_on channel=14 note=46 velocity=70 time=0
EXTRACT: note_off channel=3 note=58 velocity=0 time=0.034855130208333335
EXTRACT: note_off channel=4 note=70 velocity=0 time=0
EXTRACT: note_off channel=14 note=46 velocity=0 time=0.051681744791666664
EXTRACT: note_off channel=12 note=58 velocity=0 time=0.009615208333333333
EXTRACT: note_off channel=12 note=62 velocity=0 time=0.016826614583333333
EXTRACT: note_on channel=14 note=58 velocity=66 time=0.0024038020833333333
EXTRACT: note_off channel=12 note=53 velocity=0 time=0.00721140625
EXTRACT: note_off channel=14 note=58 velocity=0 time=0.10576729166666667
EXTRACT: note_on channel=9 note=46 velocity=75 time=0.0024038020833333333
EXTRACT: note_on channel=6 note=60 velocity=69 time=0
EXTRACT: note_on channel=6 note=65 velocity=73 time=0
EXTRACT: note_on channel=14 note=46 velocity=68 time=0
EXTRACT: note_off channel=9 note=44 velocity=0 time=0.026441822916666666
EXTRACT: note_off channel=9 note=39 velocity=0 time=0.02163421875
EXTRACT: note_off channel=9 note=40 velocity=0 time=0.004807604166666667
EXTRACT: note_off channel=14 note=46 velocity=0 time=0.019230416666666666
EXTRACT: note_off channel=9 note=36 velocity=0 time=0.0144228125
EXTRACT: note_on channel=14 note=58 velocity=65 time=0.028845625
EXTRACT: note_off channel=1 note=34 velocity=0 time=0.07932546875
EXTRACT: note_off channel=14 note=58 velocity=0 time=0.004807604166666667
EXTRACT: note_off channel=6 note=60 velocity=0 time=0.024038020833333333
EXTRACT: note_on channel=9 note=36 velocity=118 time=0.00721140625
EXTRACT: note_on channel=9 note=39 velocity=71 time=0
EXTRACT: note_on channel=9 note=40 velocity=72 time=0
EXTRACT: note_on channel=9 note=44 velocity=92 time=0
EXTRACT: note_on channel=1 note=29 velocity=73 time=0
EXTRACT: note_on channel=6 note=63 velocity=66 time=0
EXTRACT: note_on channel=6 note=68 velocity=66 time=0
EXTRACT: note_on channel=12 note=53 velocity=76 time=0
EXTRACT: note_on channel=12 note=58 velocity=69 time=0
EXTRACT: note_on channel=12 note=62 velocity=69 time=0
EXTRACT: note_on channel=14 note=46 velocity=68 time=0
EXTRACT: note_off channel=6 note=65 velocity=0 time=0.06971026041666667
EXTRACT: note_off channel=14 note=46 velocity=0 time=0.016826614583333333
EXTRACT: note_off channel=12 note=62 velocity=0 time=0.016826614583333333
EXTRACT: note_off channel=9 note=46 velocity=0 time=0.009615208333333333
EXTRACT: note_off channel=12 note=58 velocity=0 time=0
EXTRACT: note_on channel=14 note=58 velocity=65 time=0.0024038020833333333
EXTRACT: note_off channel=12 note=53 velocity=0 time=0.00721140625
EXTRACT: note_off channel=1 note=29 velocity=0 time=0.04567223958333333
EXTRACT: note_off channel=14 note=58 velocity=0 time=0.033653229166666666
EXTRACT: note_off channel=6 note=68 velocity=0 time=0.0024038020833333333
EXTRACT: note_off channel=6 note=63 velocity=0 time=0.016826614583333333
EXTRACT: note_on channel=9 note=46 velocity=63 time=0.009615208333333333
EXTRACT: note_on channel=1 note=27 velocity=88 time=0
EXTRACT: note_on channel=3 note=58 velocity=97 time=0
EXTRACT: note_on channel=4 note=70 velocity=87 time=0
EXTRACT: note_on channel=6 note=60 velocity=59 time=0
EXTRACT: note_on channel=6 note=65 velocity=69 time=0
EXTRACT: note_on channel=12 note=53 velocity=72 time=0
EXTRACT: note_on channel=12 note=58 velocity=70 time=0
EXTRACT: note_on channel=12 note=63 velocity=70 time=0
EXTRACT: note_on channel=14 note=46 velocity=66 time=0
EXTRACT: note_off channel=9 note=44 velocity=0 time=0.036057031249999996
EXTRACT: note_off channel=14 note=46 velocity=0 time=0.05047984375
EXTRACT: note_off channel=6 note=60 velocity=0 time=0.00721140625
EXTRACT: note_off channel=6 note=65 velocity=0 time=0.004807604166666667
EXTRACT: note_off channel=9 note=36 velocity=0 time=0.00721140625
EXTRACT: note_off channel=12 note=53 velocity=0 time=0.00721140625
EXTRACT: note_on channel=14 note=58 velocity=65 time=0.0024038020833333333
EXTRACT: note_off channel=12 note=58 velocity=0 time=0.016826614583333333
EXTRACT: note_off channel=12 note=63 velocity=0 time=0.012019010416666667
EXTRACT: note_off channel=3 note=62 velocity=0 time=0.025239921875
EXTRACT: note_off channel=4 note=74 velocity=0 time=0
EXTRACT: note_off channel=14 note=58 velocity=0 time=0.030047526041666668
EXTRACT: note_on channel=9 note=36 velocity=125 time=0.031249427083333333
EXTRACT: note_on channel=9 note=44 velocity=85 time=0
EXTRACT: note_on channel=14 note=46 velocity=67 time=0
EXTRACT: note_off channel=9 note=46 velocity=0 time=0.07692166666666667
EXTRACT: note_off channel=14 note=46 velocity=0 time=0.0144228125
EXTRACT: note_on channel=14 note=58 velocity=65 time=0.024038020833333333
EXTRACT: note_off channel=1 note=27 velocity=0 time=0.06490265625
EXTRACT: note_off channel=14 note=58 velocity=0 time=0.026441822916666666
EXTRACT: note_on channel=9 note=46 velocity=71 time=0.024038020833333333
EXTRACT: note_on channel=1 note=27 velocity=95 time=0
EXTRACT: note_on channel=6 note=60 velocity=69 time=0
EXTRACT: note_on channel=6 note=65 velocity=73 time=0
EXTRACT: note_on channel=12 note=53 velocity=67 time=0
EXTRACT: note_on channel=12 note=58 velocity=74 time=0
EXTRACT: note_on channel=12 note=63 velocity=74 time=0
EXTRACT: note_on channel=14 note=46 velocity=66 time=0
EXTRACT: note_off channel=9 note=39 velocity=0 time=0.0144228125
EXTRACT: note_off channel=9 note=40 velocity=0 time=0.0024038020833333333
EXTRACT: note_off channel=9 note=36 velocity=0 time=0.06971026041666667
EXTRACT: note_off channel=9 note=44 velocity=0 time=0.0024038020833333333
EXTRACT: note_off channel=14 note=46 velocity=0 time=0.0024038020833333333
EXTRACT: note_on channel=14 note=58 velocity=65 time=0.024038020833333333
EXTRACT: note_off channel=6 note=60 velocity=0 time=0.05047984375
EXTRACT: note_off channel=14 note=58 velocity=0 time=0.0432684375
EXTRACT: note_on channel=9 note=36 velocity=122 time=0.02163421875
EXTRACT: note_on channel=9 note=39 velocity=62 time=0
EXTRACT: note_on channel=9 note=40 velocity=68 time=0
EXTRACT: note_on channel=9 note=44 velocity=101 time=0
EXTRACT: note_on channel=6 note=63 velocity=57 time=0
EXTRACT: note_on channel=6 note=68 velocity=68 time=0
EXTRACT: note_on channel=14 note=46 velocity=68 time=0
EXTRACT: note_off channel=6 note=65 velocity=0 time=0.05288364583333333
EXTRACT: note_off channel=14 note=46 velocity=0 time=0.0432684375
EXTRACT: note_off channel=9 note=46 velocity=0 time=0.00721140625
EXTRACT: note_off channel=12 note=53 velocity=0 time=0.004807604166666667
EXTRACT: note_on channel=14 note=58 velocity=65 time=0.00721140625
EXTRACT: note_off channel=12 note=58 velocity=0 time=0.00721140625
EXTRACT: note_off channel=12 note=63 velocity=0 time=0.0144228125
EXTRACT: note_off channel=14 note=58 velocity=0 time=0.07932546875
EXTRACT: note_off channel=6 note=68 velocity=0 time=0.0024038020833333333
EXTRACT: note_off channel=6 note=63 velocity=0 time=0.0024038020833333333
EXTRACT: note_off channel=1 note=27 velocity=0 time=0.00721140625
EXTRACT: note_on channel=9 note=46 velocity=70 time=0.0024038020833333333
EXTRACT: note_on channel=1 note=31 velocity=62 time=0
EXTRACT: note_on channel=6 note=60 velocity=61 time=0
EXTRACT: note_on channel=6 note=65 velocity=71 time=0
EXTRACT: note_on channel=12 note=53 velocity=67 time=0
EXTRACT: note_on channel=12 note=58 velocity=69 time=0
EXTRACT: note_on channel=12 note=63 velocity=64 time=0
EXTRACT: note_on channel=14 note=46 velocity=68 time=0
EXTRACT: note_off channel=6 note=65 velocity=0 time=0.07211406249999999
EXTRACT: note_off channel=3 note=58 velocity=0 time=0.008413307291666667
EXTRACT: note_off channel=4 note=70 velocity=0 time=0
EXTRACT: note_off channel=9 note=44 velocity=0 time=0.003605703125
EXTRACT: note_off channel=6 note=60 velocity=0 time=0.004807604166666667
EXTRACT: note_off channel=14 note=46 velocity=0 time=0.004807604166666667
EXTRACT: note_off channel=9 note=36 velocity=0 time=0.00721140625
EXTRACT: note_on channel=14 note=58 velocity=64 time=0.0144228125
EXTRACT: note_off channel=12 note=53 velocity=0 time=0.00721140625
EXTRACT: note_off channel=12 note=58 velocity=0 time=0.012019010416666667
EXTRACT: note_off channel=9 note=46 velocity=0 time=0.024038020833333333
EXTRACT: note_off channel=12 note=63 velocity=0 time=0.004807604166666667
EXTRACT: note_off channel=1 note=31 velocity=0 time=0.016826614583333333
EXTRACT: note_off channel=14 note=58 velocity=0 time=0.036057031249999996
EXTRACT: note_on channel=9 note=36 velocity=122 time=0.0144228125
EXTRACT: note_on channel=9 note=44 velocity=111 time=0
EXTRACT: note_on channel=1 note=34 velocity=82 time=0
EXTRACT: note_on channel=3 note=62 velocity=97 time=0
EXTRACT: note_on channel=4 note=74 velocity=87 time=0
EXTRACT: note_on channel=12 note=53 velocity=70 time=0
EXTRACT: note_on channel=12 note=58 velocity=69 time=0
EXTRACT: note_on channel=12 note=62 velocity=67 time=0
EXTRACT: note_on channel=14 note=46 velocity=68 time=0
EXTRACT: note_off channel=12 note=58 velocity=0 time=0.09374828125
EXTRACT: note_off channel=14 note=46 velocity=0 time=0
EXTRACT: note_off channel=12 note=62 velocity=0 time=0.012019010416666667
EXTRACT: note_off channel=12 note=53 velocity=0 time=0.004807604166666667
EXTRACT: note_on channel=14 note=58 velocity=65 time=0.004807604166666667
EXTRACT: note_off channel=14 note=58 velocity=0 time=0.10576729166666667
EXTRACT: note_on channel=9 note=46 velocity=75 time=0.009615208333333333
EXTRACT: note_on channel=6 note=60 velocity=77 time=0
EXTRACT: note_on channel=6 note=65 velocity=83 time=0
EXTRACT: note_on channel=14 note=46 velocity=67 time=0
EXTRACT: note_off channel=9 note=44 velocity=0 time=0.026441822916666666
EXTRACT: note_off channel=14 note=46 velocity=0 time=0.05769125
EXTRACT: note_off channel=9 note=40 velocity=0 time=0.0024038020833333333
EXTRACT: note_off channel=9 note=39 velocity=0 time=0.00721140625
EXTRACT: note_off channel=9 note=36 velocity=0 time=0.00721140625
EXTRACT: note_on channel=14 note=58 velocity=65 time=0.0144228125
EXTRACT: note_off channel=3 note=62 velocity=0 time=0.04086463541666667
EXTRACT: note_off channel=4 note=74 velocity=0 time=0
EXTRACT: note_off channel=6 note=60 velocity=0 time=0.0432684375
EXTRACT: note_off channel=14 note=58 velocity=0 time=0.02163421875
EXTRACT: note_off channel=1 note=34 velocity=0 time=0.004807604166666667
EXTRACT: note_on channel=9 note=36 velocity=122 time=0.004807604166666667
EXTRACT: note_on channel=9 note=39 velocity=66 time=0
EXTRACT: note_on channel=9 note=40 velocity=66 time=0
EXTRACT: note_on channel=9 note=44 velocity=92 time=0
EXTRACT: note_on channel=1 note=29 velocity=76 time=0
EXTRACT: note_on channel=3 note=62 velocity=97 time=0
EXTRACT: note_on channel=4 note=74 velocity=87 time=0
EXTRACT: note_on channel=6 note=63 velocity=63 time=0
EXTRACT: note_on channel=6 note=68 velocity=69 time=0
EXTRACT: note_on channel=12 note=53 velocity=78 time=0
EXTRACT: note_on channel=12 note=58 velocity=74 time=0
EXTRACT: note_on channel=12 note=62 velocity=69 time=0
EXTRACT: note_on channel=14 note=46 velocity=68 time=0
EXTRACT: note_off channel=6 note=65 velocity=0 time=0.06730645833333333
EXTRACT: note_off channel=14 note=46 velocity=0 time=0.031249427083333333
EXTRACT: note_off channel=9 note=46 velocity=0 time=0.0144228125
EXTRACT: note_on channel=14 note=58 velocity=65 time=0.0024038020833333333
EXTRACT: note_off channel=12 note=62 velocity=0 time=0.033653229166666666
EXTRACT: note_off channel=12 note=58 velocity=0 time=0
EXTRACT: note_off channel=12 note=53 velocity=0 time=0
EXTRACT: note_off channel=14 note=58 velocity=0 time=0.060095052083333336
EXTRACT: note_off channel=1 note=29 velocity=0 time=0.016826614583333333
EXTRACT: note_off channel=6 note=68 velocity=0 time=0
EXTRACT: note_on channel=9 note=46 velocity=63 time=0.004807604166666667
EXTRACT: note_on channel=1 note=27 velocity=91 time=0
EXTRACT: note_on channel=3 note=60 velocity=97 time=0
EXTRACT: note_on channel=4 note=72 velocity=87 time=0
EXTRACT: note_on channel=6 note=60 velocity=62 time=0
EXTRACT: note_on channel=6 note=65 velocity=75 time=0
EXTRACT: note_on channel=12 note=53 velocity=78 time=0
EXTRACT: note_on channel=12 note=58 velocity=76 time=0
EXTRACT: note_on channel=12 note=63 velocity=76 time=0
EXTRACT: note_on channel=14 note=46 velocity=67 time=0
EXTRACT: note_off channel=6 note=63 velocity=0 time=0.009615208333333333
EXTRACT: note_off channel=9 note=44 velocity=0 time=0.026441822916666666
EXTRACT: note_off channel=3 note=62 velocity=0 time=0.018028515624999998
EXTRACT: note_off channel=4 note=74 velocity=0 time=0
EXTRACT: note_off channel=6 note=65 velocity=0 time=0.032451328125
EXTRACT: note_off channel=6 note=60 velocity=0 time=0
EXTRACT: note_off channel=14 note=46 velocity=0 time=0.0024038020833333333
EXTRACT: note_on channel=14 note=58 velocity=65 time=0.026441822916666666
EXTRACT: note_off channel=12 note=58 velocity=0 time=0.019230416666666666
EXTRACT: note_off channel=12 note=63 velocity=0 time=0.004807604166666667
EXTRACT: note_off channel=12 note=53 velocity=0 time=0.009615208333333333
EXTRACT: note_off channel=9 note=36 velocity=0 time=0.004807604166666667
EXTRACT: note_off channel=14 note=58 velocity=0 time=0.05769125
EXTRACT: note_on channel=9 note=36 velocity=118 time=0.019230416666666666
EXTRACT: note_on channel=9 note=44 velocity=85 time=0
EXTRACT: note_on channel=14 note=46 velocity=68 time=0
EXTRACT: note_off channel=9 note=46 velocity=0 time=0.07692166666666667
EXTRACT: note_off channel=14 note=46 velocity=0 time=0.012019010416666667
EXTRACT: note_off channel=1 note=27 velocity=0 time=0.019230416666666666
EXTRACT: note_on channel=14 note=58 velocity=64 time=0.00721140625
EXTRACT: note_off channel=14 note=58 velocity=0 time=0.10336348958333333
EXTRACT: note_on channel=9 note=46 velocity=71 time=0.012019010416666667
EXTRACT: note_on channel=1 note=27 velocity=95 time=0
EXTRACT: note_on channel=3 note=58 velocity=97 time=0
EXTRACT: note_on channel=4 note=70 velocity=87 time=0
EXTRACT: note_on channel=6 note=58 velocity=69 time=0
EXTRACT: note_on channel=6 note=63 velocity=77 time=0
EXTRACT: note_on channel=12 note=53 velocity=76 time=0
EXTRACT: note_on channel=12 note=58 velocity=74 time=0
EXTRACT: note_on channel=12 note=63 velocity=76 time=0
EXTRACT: note_on channel=14 note=46 velocity=67 time=0
EXTRACT: note_off channel=9 note=40 velocity=0 time=0.086536875
EXTRACT: note_off channel=9 note=39 velocity=0 time=0
EXTRACT: note_off channel=9 note=44 velocity=0 time=0.0024038020833333333
EXTRACT: note_off channel=14 note=46 velocity=0 time=0.004807604166666667
EXTRACT: note_off channel=9 note=36 velocity=0 time=0.0024038020833333333
EXTRACT: note_off channel=3 note=60 velocity=0 time=0.0012019010416666667
EXTRACT: note_off channel=4 note=72 velocity=0 time=0
EXTRACT: note_on channel=14 note=58 velocity=65 time=0.018028515624999998
EXTRACT: note_off channel=3 note=58 velocity=0 time=0.004807604166666667
EXTRACT: note_off channel=4 note=70 velocity=0 time=0
EXTRACT: note_off channel=6 note=58 velocity=0 time=0.012019010416666667
EXTRACT: note_off channel=14 note=58 velocity=0 time=0.08413307291666666
EXTRACT: note_on channel=9 note=36 velocity=122 time=0.0144228125
EXTRACT: note_on channel=9 note=39 velocity=71 time=0
EXTRACT: note_on channel=9 note=40 velocity=72 time=0
EXTRACT: note_on channel=9 note=44 velocity=101 time=0
EXTRACT: note_on channel=3 note=62 velocity=97 time=0
EXTRACT: note_on channel=4 note=74 velocity=87 time=0
EXTRACT: note_on channel=6 note=58 velocity=66 time=0
EXTRACT: note_on channel=6 note=62 velocity=69 time=0
EXTRACT: note_on channel=14 note=46 velocity=68 time=0
EXTRACT: note_off channel=6 note=63 velocity=0 time=0.02163421875
EXTRACT: note_off channel=14 note=46 velocity=0 time=0.06971026041666667
EXTRACT: note_off channel=9 note=46 velocity=0 time=0.012019010416666667
EXTRACT: note_off channel=6 note=58 velocity=0 time=0
EXTRACT: note_on channel=14 note=58 velocity=65 time=0.012019010416666667
EXTRACT: note_off channel=6 note=62 velocity=0 time=0.02163421875
EXTRACT: note_off channel=14 note=58 velocity=0 time=0.07451786458333333
EXTRACT: note_on channel=9 note=46 velocity=70 time=0.019230416666666666
EXTRACT: note_on channel=1 note=31 velocity=85 time=0
EXTRACT: note_on channel=14 note=46 velocity=67 time=0
EXTRACT: note_off channel=1 note=27 velocity=0 time=0.00721140625
EXTRACT: note_off channel=12 note=58 velocity=0 time=0.00721140625
EXTRACT: note_off channel=12 note=63 velocity=0 time=0.00721140625
EXTRACT: note_off channel=12 note=53 velocity=0 time=0.004807604166666667
EXTRACT: note_off channel=9 note=44 velocity=0 time=0.05769125
EXTRACT: note_off channel=14 note=46 velocity=0 time=0.009615208333333333
EXTRACT: note_off channel=9 note=36 velocity=0 time=0.012019010416666667
EXTRACT: note_on channel=14 note=58 velocity=66 time=0.009615208333333333
EXTRACT: note_off channel=9 note=46 velocity=0 time=0.0432684375
EXTRACT: note_off channel=1 note=31 velocity=0 time=0.031249427083333333
EXTRACT: note_off channel=14 note=58 velocity=0 time=0.019230416666666666
EXTRACT: note_on channel=9 note=36 velocity=122 time=0.02163421875
EXTRACT: note_on channel=9 note=44 velocity=111 time=0
EXTRACT: note_on channel=1 note=34 velocity=104 time=0
EXTRACT: note_on channel=6 note=58 velocity=75 time=0
EXTRACT: note_on channel=6 note=63 velocity=75 time=0
EXTRACT: note_on channel=14 note=46 velocity=70 time=0
EXTRACT: note_off channel=14 note=46 velocity=0 time=0.086536875
EXTRACT: note_on channel=14 note=58 velocity=66 time=0.028845625
EXTRACT: note_off channel=6 note=58 velocity=0 time=0.08413307291666666
EXTRACT: note_off channel=14 note=58 velocity=0 time=0.028845625
EXTRACT: note_on channel=9 note=46 velocity=75 time=0.0024038020833333333
EXTRACT: note_on channel=6 note=62 velocity=68 time=0
EXTRACT: note_on channel=12 note=53 velocity=81 time=0
EXTRACT: note_on channel=12 note=58 velocity=76 time=0
EXTRACT: note_on channel=12 note=62 velocity=72 time=0
EXTRACT: note_on channel=14 note=46 velocity=68 time=0
EXTRACT: note_off channel=9 note=44 velocity=0 time=0.026441822916666666
EXTRACT: note_off channel=9 note=40 velocity=0 time=0.026441822916666666
EXTRACT: note_off channel=9 note=39 velocity=0 time=0
EXTRACT: note_off channel=6 note=63 velocity=0 time=0
EXTRACT: note_off channel=14 note=46 velocity=0 time=0.019230416666666666
EXTRACT: note_off channel=12 note=58 velocity=0 time=0.02163421875
EXTRACT: note_off channel=12 note=62 velocity=0 time=0.00721140625
EXTRACT: note_off channel=9 note=36 velocity=0 time=0.0024038020833333333
EXTRACT: note_off channel=12 note=53 velocity=0 time=0.012019010416666667
EXTRACT: note_on channel=14 note=58 velocity=65 time=0
EXTRACT: note_off channel=6 note=62 velocity=0 time=0.07211406249999999
EXTRACT: note_off channel=1 note=34 velocity=0 time=0.00721140625
EXTRACT: note_off channel=14 note=58 velocity=0 time=0.004807604166666667
EXTRACT: note_on channel=9 note=36 velocity=122 time=0.031249427083333333
EXTRACT: note_on channel=9 note=39 velocity=76 time=0
EXTRACT: note_on channel=9 note=40 velocity=74 time=0
EXTRACT: note_on channel=9 note=44 velocity=92 time=0
EXTRACT: note_on channel=1 note=29 velocity=73 time=0
EXTRACT: note_on channel=6 note=58 velocity=77 time=0
EXTRACT: note_on channel=14 note=46 velocity=68 time=0
EXTRACT: note_off channel=14 note=46 velocity=0 time=0.086536875
EXTRACT: note_off channel=6 note=58 velocity=0 time=0.004807604166666667
EXTRACT: note_off channel=9 note=46 velocity=0 time=0.02163421875
EXTRACT: note_on channel=14 note=58 velocity=65 time=0.0024038020833333333
EXTRACT: note_off channel=1 note=29 velocity=0 time=0.05288364583333333
EXTRACT: note_off channel=14 note=58 velocity=0 time=0.033653229166666666
EXTRACT: note_on channel=9 note=46 velocity=63 time=0.028845625
EXTRACT: note_on channel=1 note=27 velocity=88 time=0
EXTRACT: note_on channel=3 note=63 velocity=97 time=0
EXTRACT: note_on channel=4 note=75 velocity=87 time=0
EXTRACT: note_on channel=6 note=58 velocity=77 time=0
EXTRACT: note_on channel=12 note=53 velocity=76 time=0
EXTRACT: note_on channel=12 note=58 velocity=74 time=0
EXTRACT: note_on channel=12 note=62 velocity=64 time=0
EXTRACT: note_on channel=14 note=46 velocity=66 time=0
EXTRACT: note_off channel=9 note=44 velocity=0 time=0.036057031249999996
EXTRACT: note_off channel=12 note=62 velocity=0 time=0.04567223958333333
EXTRACT: note_off channel=12 note=58 velocity=0 time=0.0024038020833333333
EXTRACT: note_off channel=14 note=46 velocity=0 time=0.0024038020833333333
EXTRACT: note_off channel=9 note=36 velocity=0 time=0.004807604166666667
EXTRACT: note_off channel=12 note=53 velocity=0 time=0.00721140625
EXTRACT: note_on channel=14 note=58 velocity=65 time=0.016826614583333333
EXTRACT: note_off channel=14 note=58 velocity=0 time=0.08413307291666666
EXTRACT: note_on channel=9 note=36 velocity=122 time=0.031249427083333333
EXTRACT: note_on channel=9 note=44 velocity=85 time=0
EXTRACT: note_on channel=12 note=53 velocity=81 time=0
EXTRACT: note_on channel=12 note=58 velocity=78 time=0
EXTRACT: note_on channel=12 note=63 velocity=78 time=0
EXTRACT: note_on channel=14 note=46 velocity=67 time=0
EXTRACT: note_off channel=3 note=63 velocity=0 time=0.022836119791666665
EXTRACT: note_off channel=3 note=62 velocity=0 time=0.031249427083333333
EXTRACT: note_off channel=4 note=75 velocity=0 time=0
EXTRACT: note_off channel=4 note=74 velocity=0 time=0
EXTRACT: note_on channel=3 note=62 velocity=97 time=0.003605703125
EXTRACT: note_on channel=4 note=74 velocity=87 time=0
EXTRACT: note_off channel=9 note=46 velocity=0 time=0.019230416666666666
EXTRACT: note_off channel=14 note=46 velocity=0 time=0.0144228125
EXTRACT: note_off channel=6 note=58 velocity=0 time=0.004807604166666667
EXTRACT: note_on channel=14 note=58 velocity=65 time=0.019230416666666666
EXTRACT: note_off channel=1 note=27 velocity=0 time=0.06490265625
EXTRACT: note_off channel=12 note=58 velocity=0 time=0.0144228125
EXTRACT: note_off channel=14 note=58 velocity=0 time=0.012019010416666667
EXTRACT: note_off channel=12 note=63 velocity=0 time=0.004807604166666667
EXTRACT: note_on channel=9 note=46 velocity=71 time=0.019230416666666666
EXTRACT: note_on channel=1 note=27 velocity=95 time=0
EXTRACT: note_on channel=6 note=60 velocity=65 time=0
EXTRACT: note_on channel=6 note=65 velocity=75 time=0
EXTRACT: note_on channel=14 note=46 velocity=66 time=0
EXTRACT: note_off channel=12 note=53 velocity=0 time=0.060095052083333336
EXTRACT: note_off channel=9 note=44 velocity=0 time=0.028845625
EXTRACT: note_off channel=9 note=39 velocity=0 time=0.0024038020833333333
EXTRACT: note_off channel=14 note=46 velocity=0 time=0
EXTRACT: note_off channel=9 note=40 velocity=0 time=0.0024038020833333333
EXTRACT: note_on channel=14 note=58 velocity=65 time=0.02163421875
EXTRACT: note_off channel=9 note=36 velocity=0 time=0.009615208333333333
EXTRACT: note_off channel=6 note=60 velocity=0 time=0.02163421875
EXTRACT: note_off channel=14 note=58 velocity=0 time=0.062498854166666666
EXTRACT: note_on channel=9 note=36 velocity=122 time=0.02163421875
EXTRACT: note_on channel=9 note=39 velocity=72 time=0
EXTRACT: note_on channel=9 note=40 velocity=74 time=0
EXTRACT: note_on channel=9 note=44 velocity=101 time=0
EXTRACT: note_on channel=6 note=63 velocity=66 time=0
EXTRACT: note_on channel=6 note=68 velocity=69 time=0
EXTRACT: note_on channel=12 note=53 velocity=78 time=0
EXTRACT: note_on channel=12 note=58 velocity=84 time=0
EXTRACT: note_on channel=12 note=63 velocity=78 time=0
EXTRACT: note_on channel=14 note=46 velocity=68 time=0
EXTRACT: note_off channel=6 note=65 velocity=0 time=0.03846083333333333
EXTRACT: note_off channel=14 note=46 velocity=0 time=0.05769125
EXTRACT: note_off channel=9 note=46 velocity=0 time=0.00721140625
EXTRACT: note_on channel=14 note=58 velocity=65 time=0.012019010416666667
EXTRACT: note_off channel=6 note=68 velocity=0 time=0.016826614583333333
EXTRACT: note_off channel=6 note=63 velocity=0 time=0
EXTRACT: note_off channel=12 note=53 velocity=0 time=0.026441822916666666
EXTRACT: note_off channel=12 note=58 velocity=0 time=0.04086463541666667
EXTRACT: note_off channel=12 note=63 velocity=0 time=0.016826614583333333
EXTRACT: note_off channel=14 note=58 velocity=0 time=0
EXTRACT: note_off channel=1 note=27 velocity=0 time=0.012019010416666667
EXTRACT: note_on channel=9 note=46 velocity=70 time=0.0024038020833333333
EXTRACT: note_on channel=1 note=31 velocity=62 time=0
EXTRACT: note_on channel=3 note=63 velocity=97 time=0
EXTRACT: note_on channel=4 note=75 velocity=87 time=0
EXTRACT: note_on channel=6 note=60 velocity=68 time=0
EXTRACT: note_on channel=6 note=65 velocity=69 time=0
EXTRACT: note_on channel=12 note=53 velocity=78 time=0
EXTRACT: note_on channel=12 note=58 velocity=69 time=0
EXTRACT: note_on channel=12 note=62 velocity=69 time=0
EXTRACT: note_on channel=14 note=46 velocity=68 time=0
EXTRACT: note_off channel=9 note=36 velocity=0 time=0.07692166666666667
EXTRACT: note_off channel=9 note=44 velocity=0 time=0.00721140625
EXTRACT: note_off channel=12 note=62 velocity=0 time=0.0024038020833333333
EXTRACT: note_off channel=14 note=46 velocity=0 time=0.00721140625
EXTRACT: note_off channel=12 note=58 velocity=0 time=0.016826614583333333
EXTRACT: note_off channel=12 note=53 velocity=0 time=0
EXTRACT: note_on channel=14 note=58 velocity=64 time=0.004807604166666667
EXTRACT: note_off channel=6 note=60 velocity=0 time=0.004807604166666667
EXTRACT: note_off channel=6 note=65 velocity=0 time=0.012019010416666667
EXTRACT: note_off channel=9 note=46 velocity=0 time=0.026441822916666666
EXTRACT: note_off channel=1 note=31 velocity=0 time=0.02163421875
EXTRACT: note_off channel=14 note=58 velocity=0 time=0.036057031249999996
EXTRACT: note_off channel=3 note=62 velocity=0 time=0.010817109375
EXTRACT: note_off channel=4 note=74 velocity=0 time=0
EXTRACT: note_on channel=9 note=36 velocity=125 time=0.003605703125
EXTRACT: note_on channel=9 note=44 velocity=111 time=0
EXTRACT: note_on channel=1 note=34 velocity=82 time=0
EXTRACT: note_on channel=3 note=62 velocity=97 time=0
EXTRACT: note_on channel=4 note=74 velocity=87 time=0
EXTRACT: note_on channel=14 note=46 velocity=68 time=0
EXTRACT: note_off channel=3 note=63 velocity=0 time=0.054085546875
EXTRACT: note_off channel=4 note=75 velocity=0 time=0
EXTRACT: note_off channel=14 note=46 velocity=0 time=0.039662734375
EXTRACT: note_on channel=14 note=58 velocity=65 time=0.02163421875
EXTRACT: note_off channel=14 note=58 velocity=0 time=0.10576729166666667
EXTRACT: note_on channel=3 note=63 velocity=97 time=0.009615208333333333
EXTRACT: note_on channel=4 note=75 velocity=87 time=0
EXTRACT: note_on channel=6 note=60 velocity=80 time=0
EXTRACT: note_on channel=6 note=65 velocity=86 time=0
EXTRACT: note_on channel=12 note=53 velocity=78 time=0
EXTRACT: note_on channel=12 note=58 velocity=78 time=0
EXTRACT: note_on channel=12 note=62 velocity=69 time=0
EXTRACT: note_on channel=14 note=46 velocity=67 time=0
EXTRACT: note_off channel=9 note=44 velocity=0 time=0.026441822916666666
EXTRACT: note_off channel=3 note=62 velocity=0 time=0.02764372395833333
EXTRACT: note_off channel=4 note=74 velocity=0 time=0
EXTRACT: note_off channel=9 note=40 velocity=0 time=0.003605703125
EXTRACT: note_off channel=9 note=39 velocity=0 time=0
EXTRACT: note_off channel=14 note=46 velocity=0 time=0.026441822916666666
EXTRACT: note_off channel=12 note=58 velocity=0 time=0.012019010416666667
EXTRACT: note_off channel=12 note=62 velocity=0 time=0.0024038020833333333
EXTRACT: note_off channel=12 note=53 velocity=0 time=0.00721140625
EXTRACT: note_off channel=9 note=36 velocity=0 time=0.00721140625
EXTRACT: note_on channel=14 note=58 velocity=65 time=0.0024038020833333333
EXTRACT: note_off channel=6 note=60 velocity=0 time=0.07692166666666667
EXTRACT: note_off channel=14 note=58 velocity=0 time=0.028845625
EXTRACT: note_off channel=1 note=34 velocity=0 time=0.004807604166666667
EXTRACT: note_on channel=3 note=62 velocity=97 time=0.004807604166666667
EXTRACT: note_on channel=4 note=74 velocity=87 time=0
EXTRACT: note_on channel=6 note=63 velocity=59 time=0
EXTRACT: note_on channel=6 note=68 velocity=66 time=0
EXTRACT: note_on channel=14 note=46 velocity=68 time=0
EXTRACT: note_off channel=6 note=65 velocity=0 time=0.05288364583333333
EXTRACT: note_off channel=3 note=63 velocity=0 time=0.0012019010416666667
EXTRACT: note_off channel=4 note=75 velocity=0 time=0
EXTRACT: note_off channel=14 note=46 velocity=0 time=0.04447033854166667
EXTRACT: note_on channel=14 note=58 velocity=65 time=0.016826614583333333
EXTRACT: note_off channel=6 note=63 velocity=0 time=0.07692166666666667
EXTRACT: note_off channel=14 note=58 velocity=0 time=0.016826614583333333
EXTRACT: note_off channel=6 note=68 velocity=0 time=0.009615208333333333
EXTRACT: note_on channel=3 note=63 velocity=97 time=0.012019010416666667
EXTRACT: note_on channel=4 note=75 velocity=87 time=0
EXTRACT: note_on channel=6 note=60 velocity=75 time=0
EXTRACT: note_on channel=6 note=65 velocity=83 time=0
EXTRACT: note_on channel=12 note=53 velocity=84 time=0
EXTRACT: note_on channel=12 note=58 velocity=74 time=0
EXTRACT: note_on channel=12 note=63 velocity=70 time=0
EXTRACT: note_on channel=14 note=46 velocity=67 time=0
EXTRACT: note_off channel=3 note=62 velocity=0 time=0.054085546875
EXTRACT: note_off channel=4 note=74 velocity=0 time=0
EXTRACT: note_off channel=6 note=65 velocity=0 time=0.018028515624999998
EXTRACT: note_off channel=6 note=60 velocity=0 time=0.0024038020833333333
EXTRACT: note_off channel=14 note=46 velocity=0 time=0.0144228125
EXTRACT: note_off channel=12 note=58 velocity=0 time=0.02163421875
EXTRACT: note_on channel=14 note=58 velocity=65 time=0.004807604166666667
EXTRACT: note_off channel=12 note=63 velocity=0 time=0.00721140625
EXTRACT: note_off channel=12 note=53 velocity=0 time=0
EXTRACT: note_off channel=14 note=58 velocity=0 time=0.08894067708333334
EXTRACT: note_on channel=3 note=62 velocity=97 time=0.019230416666666666
EXTRACT: note_on channel=4 note=74 velocity=87 time=0
EXTRACT: note_on channel=14 note=46 velocity=68 time=0
EXTRACT: note_off channel=3 note=63 velocity=0 time=0.054085546875
EXTRACT: note_off channel=4 note=75 velocity=0 time=0
EXTRACT: note_off channel=14 note=46 velocity=0 time=0.034855130208333335
EXTRACT: note_on channel=14 note=58 velocity=64 time=0.026441822916666666
EXTRACT: note_off channel=3 note=62 velocity=0 time=0.0432684375
EXTRACT: note_off channel=4 note=74 velocity=0 time=0
EXTRACT: note_off channel=14 note=58 velocity=0 time=0.060095052083333336
EXTRACT: note_on channel=3 note=70 velocity=97 time=0.012019010416666667
EXTRACT: note_on channel=4 note=82 velocity=87 time=0
EXTRACT: note_on channel=6 note=58 velocity=75 time=0
EXTRACT: note_on channel=6 note=63 velocity=77 time=0
EXTRACT: note_on channel=12 note=53 velocity=81 time=0
EXTRACT: note_on channel=12 note=58 velocity=84 time=0
EXTRACT: note_on channel=12 note=63 velocity=84 time=0
EXTRACT: note_on channel=14 note=46 velocity=67 time=0
EXTRACT: note_off channel=14 note=46 velocity=0 time=0.09374828125
EXTRACT: note_off channel=6 note=58 velocity=0 time=0.02163421875
EXTRACT: note_on channel=14 note=58 velocity=65 time=0
EXTRACT: note_off channel=3 note=70 velocity=0 time=0.004807604166666667
EXTRACT: note_off channel=4 note=82 velocity=0 time=0
EXTRACT: note_off channel=6 note=63 velocity=0 time=0.05528744791666666
EXTRACT: note_off channel=14 note=58 velocity=0 time=0.04086463541666667
EXTRACT: note_on channel=3 note=70 velocity=97 time=0.0144228125
EXTRACT: note_on channel=4 note=82 velocity=87 time=0
EXTRACT: note_on channel=6 note=58 velocity=68 time=0
EXTRACT: note_on channel=6 note=62 velocity=68 time=0
EXTRACT: note_on channel=14 note=46 velocity=68 time=0
EXTRACT: note_off channel=14 note=46 velocity=0 time=0.09134447916666666
EXTRACT: note_on channel=14 note=58 velocity=65 time=0.024038020833333333
EXTRACT: note_off channel=12 note=58 velocity=0 time=0.0144228125
EXTRACT: note_off channel=12 note=63 velocity=0 time=0.009615208333333333
EXTRACT: note_off channel=12 note=53 velocity=0 time=0
EXTRACT: note_off channel=3 note=70 velocity=0 time=0.028845625
EXTRACT: note_off channel=4 note=82 velocity=0 time=0
EXTRACT: note_off channel=14 note=58 velocity=0 time=0.0432684375
EXTRACT: note_off channel=6 note=58 velocity=0 time=0.00721140625
EXTRACT: note_on channel=3 note=72 velocity=97 time=0.012019010416666667
EXTRACT: note_on channel=4 note=84 velocity=87 time=0
EXTRACT: note_on channel=12 note=53 velocity=74 time=0
EXTRACT: note_on channel=12 note=58 velocity=76 time=0
EXTRACT: note_on channel=12 note=63 velocity=78 time=0
EXTRACT: note_on channel=14 note=46 velocity=67 time=0
EXTRACT: note_off channel=6 note=62 velocity=0 time=0.0144228125
EXTRACT: note_off channel=12 note=58 velocity=0 time=0.07451786458333333
EXTRACT: note_off channel=14 note=46 velocity=0 time=0.004807604166666667
EXTRACT: note_off channel=12 note=63 velocity=0 time=0.012019010416666667
EXTRACT: note_off channel=12 note=53 velocity=0 time=0
EXTRACT: note_on channel=14 note=58 velocity=66 time=0.009615208333333333
EXTRACT: note_off channel=14 note=58 velocity=0 time=0.09374828125
EXTRACT: note_on channel=9 note=36 velocity=125 time=0.02163421875
EXTRACT: note_on channel=9 note=44 velocity=111 time=0
EXTRACT: note_on channel=9 note=49 velocity=80 time=0
EXTRACT: note_on channel=9 note=57 velocity=89 time=0
EXTRACT: note_on channel=1 note=34 velocity=104 time=0
EXTRACT: note_on channel=3 note=70 velocity=97 time=0
EXTRACT: note_on channel=4 note=82 velocity=87 time=0
EXTRACT: note_on channel=12 note=53 velocity=88 time=0
EXTRACT: note_on channel=12 note=58 velocity=78 time=0
EXTRACT: note_on channel=12 note=62 velocity=76 time=0
EXTRACT: note_on channel=14 note=46 velocity=89 time=0
EXTRACT: note_off channel=3 note=72 velocity=0 time=0.054085546875
EXTRACT: note_off channel=4 note=84 velocity=0 time=0
EXTRACT: note_off channel=9 note=49 velocity=0 time=0.022836119791666665
EXTRACT: note_off channel=14 note=46 velocity=0 time=0.009615208333333333
EXTRACT: note_off channel=9 note=57 velocity=0 time=0.0024038020833333333
EXTRACT: note_off channel=12 note=58 velocity=0 time=0.00721140625
EXTRACT: note_off channel=9 note=36 velocity=0 time=0.00721140625
EXTRACT: note_off channel=12 note=62 velocity=0 time=0.009615208333333333
EXTRACT: note_on channel=14 note=58 velocity=85 time=0.0024038020833333333
EXTRACT: note_off channel=12 note=53 velocity=0 time=0.00721140625
EXTRACT: note_off channel=14 note=58 velocity=0 time=0.10576729166666667
EXTRACT: note_on channel=9 note=46 velocity=75 time=0.0024038020833333333
EXTRACT: note_on channel=14 note=46 velocity=87 time=0
EXTRACT: note_off channel=9 note=44 velocity=0 time=0.026441822916666666
EXTRACT: note_off channel=14 note=46 velocity=0 time=0.04567223958333333
EXTRACT: note_on channel=14 note=58 velocity=84 time=0.0432684375
EXTRACT: note_off channel=1 note=34 velocity=0 time=0.07932546875
EXTRACT: note_off channel=14 note=58 velocity=0 time=0.004807604166666667
EXTRACT: note_on channel=9 note=36 velocity=107 time=0.031249427083333333
EXTRACT: note_on channel=9 note=39 velocity=78 time=0
EXTRACT: note_on channel=9 note=40 velocity=74 time=0
EXTRACT: note_on channel=9 note=44 velocity=92 time=0
EXTRACT: note_on channel=1 note=29 velocity=73 time=0
EXTRACT: note_on channel=5 note=62 velocity=78 time=0
EXTRACT: note_on channel=5 note=65 velocity=85 time=0
EXTRACT: note_on channel=6 note=62 velocity=82 time=0
EXTRACT: note_on channel=6 note=65 velocity=89 time=0
EXTRACT: note_on channel=12 note=53 velocity=80 time=0
EXTRACT: note_on channel=12 note=58 velocity=73 time=0
EXTRACT: note_on channel=12 note=62 velocity=73 time=0
EXTRACT: note_on channel=14 note=46 velocity=87 time=0
EXTRACT: note_off channel=14 note=46 velocity=0 time=0.086536875
EXTRACT: note_off channel=12 note=62 velocity=0 time=0.016826614583333333
EXTRACT: note_off channel=9 note=46 velocity=0 time=0.009615208333333333
EXTRACT: note_off channel=12 note=58 velocity=0 time=0
EXTRACT: note_on channel=14 note=58 velocity=84 time=0.0024038020833333333
EXTRACT: note_off channel=12 note=53 velocity=0 time=0.00721140625
EXTRACT: note_off channel=9 note=36 velocity=0 time=0.009615208333333333
EXTRACT: note_off channel=1 note=29 velocity=0 time=0.036057031249999996
EXTRACT: note_off channel=5 note=62 velocity=0 time=0.012019010416666667
EXTRACT: note_off channel=6 note=62 velocity=0 time=0
EXTRACT: note_off channel=5 note=65 velocity=0 time=0.004807604166666667
EXTRACT: note_off channel=6 note=65 velocity=0 time=0
EXTRACT: note_off channel=14 note=58 velocity=0 time=0.016826614583333333
EXTRACT: note_on channel=9 note=46 velocity=63 time=0.028845625
EXTRACT: note_on channel=1 note=27 velocity=88 time=0
EXTRACT: note_on channel=12 note=53 velocity=76 time=0
EXTRACT: note_on channel=12 note=58 velocity=74 time=0
EXTRACT: note_on channel=12 note=63 velocity=74 time=0
EXTRACT: note_on channel=14 note=46 velocity=85 time=0
EXTRACT: note_off channel=9 note=44 velocity=0 time=0.036057031249999996
EXTRACT: note_off channel=14 note=46 velocity=0 time=0.05047984375
EXTRACT: note_off channel=3 note=70 velocity=0 time=0.004807604166666667
EXTRACT: note_off channel=4 note=82 velocity=0 time=0
EXTRACT: note_off channel=12 note=53 velocity=0 time=0.02163421875
EXTRACT: note_on channel=14 note=58 velocity=84 time=0.0024038020833333333
EXTRACT: note_off channel=12 note=58 velocity=0 time=0.016826614583333333
EXTRACT: note_off channel=12 note=63 velocity=0 time=0.012019010416666667
EXTRACT: note_off channel=14 note=58 velocity=0 time=0.05528744791666666
EXTRACT: note_on channel=9 note=36 velocity=93 time=0.031249427083333333
EXTRACT: note_on channel=9 note=44 velocity=85 time=0
EXTRACT: note_on channel=5 note=63 velocity=82 time=0
EXTRACT: note_on channel=5 note=67 velocity=82 time=0
EXTRACT: note_on channel=6 note=63 velocity=86 time=0
EXTRACT: note_on channel=6 note=67 velocity=86 time=0
EXTRACT: note_on channel=14 note=46 velocity=86 time=0
EXTRACT: note_off channel=9 note=46 velocity=0 time=0.07692166666666667
EXTRACT: note_off channel=14 note=46 velocity=0 time=0.0144228125
EXTRACT: note_off channel=5 note=63 velocity=0 time=0.00721140625
EXTRACT: note_off channel=6 note=63 velocity=0 time=0
EXTRACT: note_off channel=5 note=67 velocity=0 time=0.012019010416666667
EXTRACT: note_off channel=6 note=67 velocity=0 time=0
EXTRACT: note_on channel=14 note=58 velocity=84 time=0.004807604166666667
EXTRACT: note_off channel=1 note=27 velocity=0 time=0.06490265625
EXTRACT: note_off channel=14 note=58 velocity=0 time=0.026441822916666666
EXTRACT: note_on channel=9 note=36 velocity=120 time=0.024038020833333333
EXTRACT: note_on channel=9 note=46 velocity=71 time=0
EXTRACT: note_on channel=1 note=27 velocity=95 time=0
EXTRACT: note_on channel=3 note=70 velocity=97 time=0
EXTRACT: note_on channel=4 note=82 velocity=87 time=0
EXTRACT: note_on channel=5 note=63 velocity=80 time=0
EXTRACT: note_on channel=5 note=68 velocity=82 time=0
EXTRACT: note_on channel=6 note=63 velocity=84 time=0
EXTRACT: note_on channel=6 note=68 velocity=86 time=0
EXTRACT: note_on channel=12 note=53 velocity=71 time=0
EXTRACT: note_on channel=12 note=58 velocity=78 time=0
EXTRACT: note_on channel=12 note=63 velocity=78 time=0
EXTRACT: note_on channel=14 note=46 velocity=85 time=0
EXTRACT: note_off channel=9 note=36 velocity=0 time=0.028845625
EXTRACT: note_off channel=9 note=36 velocity=64 time=0.028845625
EXTRACT: note_off channel=9 note=44 velocity=0 time=0.031249427083333333
EXTRACT: note_off channel=14 note=46 velocity=0 time=0.0024038020833333333
EXTRACT: note_off channel=9 note=39 velocity=0 time=0.0024038020833333333
EXTRACT: note_off channel=9 note=40 velocity=0 time=0.009615208333333333
EXTRACT: note_on channel=14 note=58 velocity=84 time=0.012019010416666667
EXTRACT: note_off channel=3 note=70 velocity=0 time=0.013220911458333333
EXTRACT: note_off channel=4 note=82 velocity=0 time=0
EXTRACT: note_off channel=14 note=58 velocity=0 time=0.08052736979166666
EXTRACT: note_on channel=9 note=36 velocity=125 time=0.02163421875
EXTRACT: note_on channel=9 note=39 velocity=62 time=0
EXTRACT: note_on channel=9 note=40 velocity=66 time=0
EXTRACT: note_on channel=9 note=44 velocity=101 time=0
EXTRACT: note_on channel=3 note=70 velocity=97 time=0
EXTRACT: note_on channel=4 note=82 velocity=87 time=0
EXTRACT: note_on channel=14 note=46 velocity=87 time=0
EXTRACT: note_off channel=14 note=46 velocity=0 time=0.09615208333333333
EXTRACT: note_off channel=9 note=46 velocity=0 time=0.00721140625
EXTRACT: note_off channel=12 note=53 velocity=0 time=0.004807604166666667
EXTRACT: note_on channel=14 note=58 velocity=84 time=0.00721140625
EXTRACT: note_off channel=12 note=58 velocity=0 time=0.00721140625
EXTRACT: note_off channel=12 note=63 velocity=0 time=0.0144228125
EXTRACT: note_off channel=3 note=70 velocity=0 time=0.061296953125
EXTRACT: note_off channel=4 note=82 velocity=0 time=0
EXTRACT: note_off channel=14 note=58 velocity=0 time=0.018028515624999998
EXTRACT: note_off channel=1 note=27 velocity=0 time=0.012019010416666667
EXTRACT: note_on channel=9 note=46 velocity=70 time=0.0024038020833333333
EXTRACT: note_on channel=1 note=31 velocity=62 time=0
EXTRACT: note_on channel=3 note=72 velocity=97 time=0
EXTRACT: note_on channel=4 note=84 velocity=87 time=0
EXTRACT: note_on channel=12 note=53 velocity=71 time=0
EXTRACT: note_on channel=12 note=58 velocity=73 time=0
EXTRACT: note_on channel=12 note=63 velocity=68 time=0
EXTRACT: note_on channel=14 note=46 velocity=87 time=0
EXTRACT: note_off channel=5 note=63 velocity=0 time=0.02163421875
EXTRACT: note_off channel=6 note=63 velocity=0 time=0
EXTRACT: note_off channel=5 note=68 velocity=0 time=0.016826614583333333
EXTRACT: note_off channel=6 note=68 velocity=0 time=0
EXTRACT: note_off channel=9 note=44 velocity=0 time=0.04567223958333333
EXTRACT: note_off channel=9 note=36 velocity=0 time=0.0024038020833333333
EXTRACT: note_off channel=14 note=46 velocity=0 time=0.00721140625
EXTRACT: note_on channel=14 note=58 velocity=83 time=0.02163421875
EXTRACT: note_off channel=12 note=53 velocity=0 time=0.00721140625
EXTRACT: note_off channel=12 note=58 velocity=0 time=0.012019010416666667
EXTRACT: note_off channel=9 note=46 velocity=0 time=0.024038020833333333
EXTRACT: note_off channel=12 note=63 velocity=0 time=0.004807604166666667
EXTRACT: note_off channel=1 note=31 velocity=0 time=0.016826614583333333
EXTRACT: note_off channel=14 note=58 velocity=0 time=0.036057031249999996
EXTRACT: note_on channel=9 note=36 velocity=118 time=0.0144228125
EXTRACT: note_on channel=9 note=44 velocity=111 time=0
EXTRACT: note_on channel=1 note=34 velocity=82 time=0
EXTRACT: note_on channel=12 note=53 velocity=74 time=0
EXTRACT: note_on channel=12 note=58 velocity=73 time=0
EXTRACT: note_on channel=12 note=62 velocity=71 time=0
EXTRACT: note_on channel=14 note=46 velocity=87 time=0
EXTRACT: note_off channel=12 note=58 velocity=0 time=0.09374828125
EXTRACT: note_off channel=14 note=46 velocity=0 time=0
EXTRACT: note_off channel=12 note=62 velocity=0 time=0.012019010416666667
EXTRACT: note_off channel=12 note=53 velocity=0 time=0.004807604166666667
EXTRACT: note_on channel=14 note=58 velocity=84 time=0.004807604166666667
EXTRACT: note_off channel=3 note=72 velocity=0 time=0.05889315104166667
EXTRACT: note_off channel=4 note=84 velocity=0 time=0
EXTRACT: note_off channel=14 note=58 velocity=0 time=0.046874140625
EXTRACT: note_on channel=9 note=46 velocity=75 time=0.009615208333333333
EXTRACT: note_on channel=3 note=74 velocity=97 time=0
EXTRACT: note_on channel=4 note=86 velocity=87 time=0
EXTRACT: note_on channel=14 note=46 velocity=86 time=0
EXTRACT: note_off channel=9 note=44 velocity=0 time=0.026441822916666666
EXTRACT: note_off channel=9 note=36 velocity=0 time=0.05047984375
EXTRACT: note_off channel=14 note=46 velocity=0 time=0.00721140625
EXTRACT: note_off channel=9 note=40 velocity=0 time=0.012019010416666667
EXTRACT: note_off channel=9 note=39 velocity=0 time=0.009615208333333333
EXTRACT: note_on channel=14 note=58 velocity=84 time=0.009615208333333333
EXTRACT: note_off channel=14 note=58 velocity=0 time=0.10576729166666667
EXTRACT: note_off channel=1 note=34 velocity=0 time=0.004807604166666667
EXTRACT: note_on channel=9 note=36 velocity=118 time=0.004807604166666667
EXTRACT: note_on channel=9 note=39 velocity=66 time=0
EXTRACT: note_on channel=9 note=40 velocity=74 time=0
EXTRACT: note_on channel=9 note=44 velocity=92 time=0
EXTRACT: note_on channel=1 note=29 velocity=76 time=0
EXTRACT: note_on channel=5 note=62 velocity=78 time=0
EXTRACT: note_on channel=5 note=65 velocity=80 time=0
EXTRACT: note_on channel=6 note=62 velocity=82 time=0
EXTRACT: note_on channel=6 note=65 velocity=84 time=0
EXTRACT: note_on channel=12 note=53 velocity=82 time=0
EXTRACT: note_on channel=12 note=58 velocity=78 time=0
EXTRACT: note_on channel=12 note=62 velocity=73 time=0
EXTRACT: note_on channel=14 note=46 velocity=87 time=0
EXTRACT: note_off channel=5 note=65 velocity=0 time=0.07692166666666667
EXTRACT: note_off channel=6 note=65 velocity=0 time=0
EXTRACT: note_off channel=5 note=62 velocity=0 time=0.009615208333333333
EXTRACT: note_off channel=6 note=62 velocity=0 time=0
EXTRACT: note_off channel=14 note=46 velocity=0 time=0.012019010416666667
EXTRACT: note_off channel=9 note=46 velocity=0 time=0.0144228125
EXTRACT: note_on channel=14 note=58 velocity=84 time=0.0024038020833333333
EXTRACT: note_off channel=12 note=62 velocity=0 time=0.033653229166666666
EXTRACT: note_off channel=12 note=58 velocity=0 time=0
EXTRACT: note_off channel=12 note=53 velocity=0 time=0
EXTRACT: note_off channel=14 note=58 velocity=0 time=0.060095052083333336
EXTRACT: note_off channel=1 note=29 velocity=0 time=0.016826614583333333
EXTRACT: note_on channel=9 note=46 velocity=63 time=0.004807604166666667
EXTRACT: note_on channel=1 note=27 velocity=91 time=0
EXTRACT: note_on channel=3 note=70 velocity=97 time=0
EXTRACT: note_on channel=4 note=82 velocity=87 time=0
EXTRACT: note_on channel=5 note=62 velocity=68 time=0
EXTRACT: note_on channel=5 note=65 velocity=74 time=0
EXTRACT: note_on channel=6 note=62 velocity=72 time=0
EXTRACT: note_on channel=6 note=65 velocity=78 time=0
EXTRACT: note_on channel=12 note=53 velocity=82 time=0
EXTRACT: note_on channel=12 note=58 velocity=80 time=0
EXTRACT: note_on channel=12 note=63 velocity=80 time=0
EXTRACT: note_on channel=14 note=46 velocity=86 time=0
EXTRACT: note_off channel=9 note=44 velocity=0 time=0.036057031249999996
EXTRACT: note_off channel=3 note=74 velocity=0 time=0.031249427083333333
EXTRACT: note_off channel=4 note=86 velocity=0 time=0
EXTRACT: note_off channel=5 note=62 velocity=0 time=0.012019010416666667
EXTRACT: note_off channel=6 note=62 velocity=0 time=0
EXTRACT: note_off channel=5 note=65 velocity=0 time=0.00721140625
EXTRACT: note_off channel=6 note=65 velocity=0 time=0
EXTRACT: note_off channel=14 note=46 velocity=0 time=0.0024038020833333333
EXTRACT: note_on channel=14 note=58 velocity=84 time=0.026441822916666666
EXTRACT: note_off channel=12 note=58 velocity=0 time=0.019230416666666666
EXTRACT: note_off channel=12 note=63 velocity=0 time=0.004807604166666667
EXTRACT: note_off channel=9 note=36 velocity=0 time=0.0024038020833333333
EXTRACT: note_off channel=12 note=53 velocity=0 time=0.00721140625
EXTRACT: note_off channel=14 note=58 velocity=0 time=0.062498854166666666
EXTRACT: note_on channel=9 note=36 velocity=125 time=0.019230416666666666
EXTRACT: note_on channel=9 note=44 velocity=85 time=0
EXTRACT: note_on channel=5 note=63 velocity=63 time=0
EXTRACT: note_on channel=5 note=67 velocity=73 time=0
EXTRACT: note_on channel=6 note=63 velocity=67 time=0
EXTRACT: note_on channel=6 note=67 velocity=77 time=0
EXTRACT: note_on channel=14 note=46 velocity=87 time=0
EXTRACT: note_off channel=3 note=70 velocity=0 time=0.030047526041666668
EXTRACT: note_off channel=4 note=82 velocity=0 time=0
EXTRACT: note_off channel=5 note=63 velocity=0 time=0.010817109375
EXTRACT: note_off channel=6 note=63 velocity=0 time=0
EXTRACT: note_off channel=5 note=67 velocity=0 time=0.028845625
EXTRACT: note_off channel=6 note=67 velocity=0 time=0
EXTRACT: note_off channel=9 note=46 velocity=0 time=0.00721140625
EXTRACT: note_off channel=14 note=46 velocity=0 time=0.012019010416666667
EXTRACT: note_off channel=1 note=27 velocity=0 time=0.019230416666666666
EXTRACT: note_on channel=14 note=58 velocity=83 time=0.00721140625
EXTRACT: note_off channel=14 note=58 velocity=0 time=0.10336348958333333
EXTRACT: note_on channel=9 note=36 velocity=120 time=0.012019010416666667
EXTRACT: note_on channel=9 note=46 velocity=71 time=0
EXTRACT: note_on channel=1 note=27 velocity=95 time=0
EXTRACT: note_on channel=3 note=68 velocity=97 time=0
EXTRACT: note_on channel=4 note=80 velocity=87 time=0
EXTRACT: note_on channel=5 note=63 velocity=74 time=0
EXTRACT: note_on channel=5 note=68 velocity=73 time=0
EXTRACT: note_on channel=6 note=63 velocity=78 time=0
EXTRACT: note_on channel=6 note=68 velocity=77 time=0
EXTRACT: note_on channel=12 note=53 velocity=80 time=0
EXTRACT: note_on channel=12 note=58 velocity=78 time=0
EXTRACT: note_on channel=12 note=63 velocity=80 time=0
EXTRACT: note_on channel=14 note=46 velocity=86 time=0
EXTRACT: note_off channel=9 note=36 velocity=64 time=0.05769125
EXTRACT: note_off channel=9 note=44 velocity=0 time=0.031249427083333333
EXTRACT: note_off channel=9 note=39 velocity=0 time=0.0024038020833333333
EXTRACT: note_off channel=9 note=40 velocity=0 time=0.0024038020833333333
EXTRACT: note_off channel=14 note=46 velocity=0 time=0
EXTRACT: note_off channel=9 note=36 velocity=0 time=0.019230416666666666
EXTRACT: note_on channel=14 note=58 velocity=84 time=0.0024038020833333333
EXTRACT: note_off channel=14 note=58 velocity=0 time=0.1009596875
EXTRACT: note_on channel=9 note=36 velocity=122 time=0.0144228125
EXTRACT: note_on channel=9 note=39 velocity=65 time=0
EXTRACT: note_on channel=9 note=40 velocity=63 time=0
EXTRACT: note_on channel=9 note=44 velocity=101 time=0
EXTRACT: note_on channel=3 note=70 velocity=97 time=0
EXTRACT: note_on channel=4 note=82 velocity=87 time=0
EXTRACT: note_on channel=14 note=46 velocity=87 time=0
EXTRACT: note_off channel=3 note=68 velocity=0 time=0.054085546875
EXTRACT: note_off channel=4 note=80 velocity=0 time=0
EXTRACT: note_off channel=14 note=46 velocity=0 time=0.037258932291666665
EXTRACT: note_off channel=9 note=46 velocity=0 time=0.012019010416666667
EXTRACT: note_on channel=14 note=58 velocity=84 time=0.012019010416666667
EXTRACT: note_off channel=14 note=58 velocity=0 time=0.09615208333333333
EXTRACT: note_on channel=9 note=46 velocity=70 time=0.019230416666666666
EXTRACT: note_on channel=1 note=31 velocity=85 time=0
EXTRACT: note_on channel=3 note=72 velocity=97 time=0
EXTRACT: note_on channel=4 note=84 velocity=87 time=0
EXTRACT: note_on channel=14 note=46 velocity=86 time=0
EXTRACT: note_off channel=1 note=27 velocity=0 time=0.00721140625
EXTRACT: note_off channel=12 note=58 velocity=0 time=0.00721140625
EXTRACT: note_off channel=12 note=63 velocity=0 time=0.00721140625
EXTRACT: note_off channel=12 note=53 velocity=0 time=0.004807604166666667
EXTRACT: note_off channel=5 note=63 velocity=0 time=0.0144228125
EXTRACT: note_off channel=6 note=63 velocity=0 time=0
EXTRACT: note_off channel=3 note=70 velocity=0 time=0.013220911458333333
EXTRACT: note_off channel=4 note=82 velocity=0 time=0
EXTRACT: note_off channel=5 note=68 velocity=0 time=0.003605703125
EXTRACT: note_off channel=6 note=68 velocity=0 time=0
EXTRACT: note_off channel=9 note=44 velocity=0 time=0.026441822916666666
EXTRACT: note_off channel=14 note=46 velocity=0 time=0.009615208333333333
EXTRACT: note_on channel=14 note=58 velocity=85 time=0.02163421875
EXTRACT: note_off channel=9 note=36 velocity=0 time=0.0024038020833333333
EXTRACT: note_off channel=9 note=46 velocity=0 time=0.04086463541666667
EXTRACT: note_off channel=1 note=31 velocity=0 time=0.031249427083333333
EXTRACT: note_off channel=14 note=58 velocity=0 time=0.019230416666666666
EXTRACT: note_on channel=9 note=36 velocity=118 time=0.02163421875
EXTRACT: note_on channel=9 note=44 velocity=111 time=0
EXTRACT: note_on channel=1 note=34 velocity=104 time=0
EXTRACT: note_on channel=3 note=70 velocity=97 time=0
EXTRACT: note_on channel=4 note=82 velocity=87 time=0
EXTRACT: note_on channel=14 note=46 velocity=89 time=0
EXTRACT: note_off channel=3 note=72 velocity=0 time=0.054085546875
EXTRACT: note_off channel=4 note=84 velocity=0 time=0
EXTRACT: note_off channel=14 note=46 velocity=0 time=0.032451328125
EXTRACT: note_on channel=14 note=58 velocity=85 time=0.028845625
EXTRACT: note_off channel=14 note=58 velocity=0 time=0.11297869791666666
EXTRACT: note_on channel=9 note=46 velocity=75 time=0.0024038020833333333
EXTRACT: note_on channel=12 note=53 velocity=85 time=0
EXTRACT: note_on channel=12 note=58 velocity=80 time=0
EXTRACT: note_on channel=12 note=62 velocity=76 time=0
EXTRACT: note_on channel=14 note=46 velocity=87 time=0
EXTRACT: note_off channel=9 note=44 velocity=0 time=0.026441822916666666
EXTRACT: note_off channel=9 note=39 velocity=0 time=0.04086463541666667
EXTRACT: note_off channel=14 note=46 velocity=0 time=0.004807604166666667
EXTRACT: note_off channel=9 note=40 velocity=0 time=0.0024038020833333333
EXTRACT: note_off channel=12 note=58 velocity=0 time=0.019230416666666666
EXTRACT: note_off channel=9 note=36 velocity=0 time=0.00721140625
EXTRACT: note_off channel=12 note=62 velocity=0 time=0
EXTRACT: note_off channel=12 note=53 velocity=0 time=0.0144228125
EXTRACT: note_on channel=14 note=58 velocity=84 time=0
EXTRACT: note_off channel=1 note=34 velocity=0 time=0.07932546875
EXTRACT: note_off channel=14 note=58 velocity=0 time=0.004807604166666667
EXTRACT: note_on channel=9 note=36 velocity=118 time=0.031249427083333333
EXTRACT: note_on channel=9 note=39 velocity=62 time=0
EXTRACT: note_on channel=9 note=40 velocity=63 time=0
EXTRACT: note_on channel=9 note=44 velocity=92 time=0
EXTRACT: note_on channel=1 note=29 velocity=73 time=0
EXTRACT: note_on channel=5 note=62 velocity=76 time=0
EXTRACT: note_on channel=5 note=65 velocity=80 time=0
EXTRACT: note_on channel=6 note=62 velocity=80 time=0
EXTRACT: note_on channel=6 note=65 velocity=84 time=0
EXTRACT: note_on channel=14 note=46 velocity=87 time=0
EXTRACT: note_off channel=14 note=46 velocity=0 time=0.086536875
EXTRACT: note_off channel=5 note=62 velocity=0 time=0.009615208333333333
EXTRACT: note_off channel=6 note=62 velocity=0 time=0
EXTRACT: note_off channel=5 note=65 velocity=0 time=0.00721140625
EXTRACT: note_off channel=6 note=65 velocity=0 time=0
EXTRACT: note_off channel=9 note=46 velocity=0 time=0.009615208333333333
EXTRACT: note_on channel=14 note=58 velocity=84 time=0.0024038020833333333
EXTRACT: note_off channel=1 note=29 velocity=0 time=0.05288364583333333
EXTRACT: note_off channel=14 note=58 velocity=0 time=0.033653229166666666
EXTRACT: note_on channel=9 note=46 velocity=63 time=0.028845625
EXTRACT: note_on channel=1 note=27 velocity=88 time=0
EXTRACT: note_on channel=12 note=53 velocity=80 time=0
EXTRACT: note_on channel=12 note=58 velocity=78 time=0
EXTRACT: note_on channel=12 note=62 velocity=68 time=0
EXTRACT: note_on channel=14 note=46 velocity=85 time=0
EXTRACT: note_off channel=9 note=44 velocity=0 time=0.036057031249999996
EXTRACT: note_off channel=12 note=62 velocity=0 time=0.04567223958333333
EXTRACT: note_off channel=12 note=58 velocity=0 time=0.0024038020833333333
EXTRACT: note_off channel=14 note=46 velocity=0 time=0.0024038020833333333
EXTRACT: note_off channel=12 note=53 velocity=0 time=0.012019010416666667
EXTRACT: note_on channel=14 note=58 velocity=84 time=0.016826614583333333
EXTRACT: note_off channel=9 note=36 velocity=0 time=0.02163421875
EXTRACT: note_off channel=3 note=70 velocity=0 time=0.024038020833333333
EXTRACT: note_off channel=4 note=82 velocity=0 time=0
EXTRACT: note_off channel=14 note=58 velocity=0 time=0.03846083333333333
EXTRACT: note_on channel=9 note=36 velocity=125 time=0.031249427083333333
EXTRACT: note_on channel=9 note=44 velocity=85 time=0
EXTRACT: note_on channel=5 note=63 velocity=80 time=0
EXTRACT: note_on channel=5 note=67 velocity=74 time=0
EXTRACT: note_on channel=6 note=63 velocity=84 time=0
EXTRACT: note_on channel=6 note=67 velocity=78 time=0
EXTRACT: note_on channel=12 note=53 velocity=85 time=0
EXTRACT: note_on channel=12 note=58 velocity=82 time=0
EXTRACT: note_on channel=12 note=63 velocity=82 time=0
EXTRACT: note_on channel=14 note=46 velocity=86 time=0
EXTRACT: note_off channel=9 note=46 velocity=0 time=0.07692166666666667
EXTRACT: note_off channel=5 note=63 velocity=0 time=0.00721140625
EXTRACT: note_off channel=6 note=63 velocity=0 time=0
EXTRACT: note_off channel=14 note=46 velocity=0 time=0.00721140625
EXTRACT: note_off channel=5 note=67 velocity=0 time=0.004807604166666667
EXTRACT: note_off channel=6 note=67 velocity=0 time=0
EXTRACT: note_on channel=14 note=58 velocity=84 time=0.019230416666666666
EXTRACT: note_off channel=1 note=27 velocity=0 time=0.06490265625
EXTRACT: note_off channel=12 note=58 velocity=0 time=0.0144228125
EXTRACT: note_off channel=14 note=58 velocity=0 time=0.012019010416666667
EXTRACT: note_off channel=12 note=63 velocity=0 time=0.004807604166666667
EXTRACT: note_on channel=9 note=36 velocity=120 time=0.019230416666666666
EXTRACT: note_on channel=9 note=46 velocity=71 time=0
EXTRACT: note_on channel=1 note=27 velocity=95 time=0
EXTRACT: note_on channel=5 note=63 velocity=71 time=0
EXTRACT: note_on channel=5 note=68 velocity=78 time=0
EXTRACT: note_on channel=6 note=63 velocity=75 time=0
EXTRACT: note_on channel=6 note=68 velocity=82 time=0
EXTRACT: note_on channel=14 note=46 velocity=85 time=0
EXTRACT: note_off channel=9 note=36 velocity=64 time=0.05769125
EXTRACT: note_off channel=12 note=53 velocity=0 time=0.0024038020833333333
EXTRACT: note_off channel=9 note=44 velocity=0 time=0.028845625
EXTRACT: note_off channel=9 note=40 velocity=0 time=0.0024038020833333333
EXTRACT: note_off channel=14 note=46 velocity=0 time=0
EXTRACT: note_off channel=9 note=36 velocity=0 time=0.0024038020833333333
EXTRACT: note_off channel=9 note=39 velocity=0 time=0
EXTRACT: note_on channel=14 note=58 velocity=84 time=0.02163421875
EXTRACT: note_off channel=14 note=58 velocity=0 time=0.09374828125
EXTRACT: note_on channel=9 note=36 velocity=125 time=0.02163421875
EXTRACT: note_on channel=9 note=39 velocity=66 time=0
EXTRACT: note_on channel=9 note=40 velocity=65 time=0
EXTRACT: note_on channel=9 note=44 velocity=101 time=0
EXTRACT: note_on channel=12 note=53 velocity=82 time=0
EXTRACT: note_on channel=12 note=58 velocity=88 time=0
EXTRACT: note_on channel=12 note=63 velocity=82 time=0
EXTRACT: note_on channel=14 note=46 velocity=87 time=0
EXTRACT: note_off channel=14 note=46 velocity=0 time=0.09615208333333333
EXTRACT: note_off channel=9 note=46 velocity=0 time=0.00721140625
EXTRACT: note_off channel=5 note=63 velocity=0 time=0.012019010416666667
EXTRACT: note_off channel=6 note=63 velocity=0 time=0
EXTRACT: note_on channel=14 note=58 velocity=84 time=0
EXTRACT: note_off channel=5 note=68 velocity=0 time=0.016826614583333333
EXTRACT: note_off channel=6 note=68 velocity=0 time=0
EXTRACT: note_off channel=12 note=53 velocity=0 time=0.026441822916666666
EXTRACT: note_off channel=12 note=58 velocity=0 time=0.04086463541666667
EXTRACT: note_off channel=12 note=63 velocity=0 time=0.016826614583333333
EXTRACT: note_off channel=14 note=58 velocity=0 time=0
EXTRACT: note_off channel=1 note=27 velocity=0 time=0.012019010416666667
EXTRACT: note_on channel=9 note=46 velocity=70 time=0.0024038020833333333
EXTRACT: note_on channel=1 note=31 velocity=62 time=0
EXTRACT: note_on channel=12 note=53 velocity=82 time=0
EXTRACT: note_on channel=12 note=58 velocity=73 time=0
EXTRACT: note_on channel=12 note=62 velocity=73 time=0
EXTRACT: note_on channel=14 note=46 velocity=87 time=0
EXTRACT: note_off channel=9 note=44 velocity=0 time=0.08413307291666666
EXTRACT: note_off channel=12 note=62 velocity=0 time=0.0024038020833333333
EXTRACT: note_off channel=9 note=36 velocity=0 time=0.004807604166666667
EXTRACT: note_off channel=14 note=46 velocity=0 time=0.0024038020833333333
EXTRACT: note_off channel=12 note=58 velocity=0 time=0.016826614583333333
EXTRACT: note_off channel=12 note=53 velocity=0 time=0
EXTRACT: note_on channel=14 note=58 velocity=83 time=0.004807604166666667
EXTRACT: note_off channel=9 note=46 velocity=0 time=0.0432684375
EXTRACT: note_off channel=1 note=31 velocity=0 time=0.02163421875
EXTRACT: note_off channel=14 note=58 velocity=0 time=0.036057031249999996
EXTRACT: note_on channel=9 note=36 velocity=125 time=0.0144228125
EXTRACT: note_on channel=9 note=44 velocity=111 time=0
EXTRACT: note_on channel=1 note=34 velocity=82 time=0
EXTRACT: note_on channel=14 note=46 velocity=87 time=0
EXTRACT: note_off channel=14 note=46 velocity=0 time=0.09374828125
EXTRACT: note_on channel=14 note=58 velocity=84 time=0.02163421875
EXTRACT: note_off channel=14 note=58 velocity=0 time=0.10576729166666667
EXTRACT: note_on channel=9 note=46 velocity=75 time=0.009615208333333333
EXTRACT: note_on channel=5 note=62 velocity=78 time=0
EXTRACT: note_on channel=5 note=65 velocity=85 time=0
EXTRACT: note_on channel=6 note=62 velocity=82 time=0
EXTRACT: note_on channel=6 note=65 velocity=89 time=0
EXTRACT: note_on channel=12 note=53 velocity=82 time=0
EXTRACT: note_on channel=12 note=58 velocity=82 time=0
EXTRACT: note_on channel=12 note=62 velocity=73 time=0
EXTRACT: note_on channel=14 note=46 velocity=86 time=0
EXTRACT: note_off channel=9 note=44 velocity=0 time=0.026441822916666666
EXTRACT: note_off channel=9 note=39 velocity=0 time=0.012019010416666667
EXTRACT: note_off channel=9 note=40 velocity=0 time=0.00721140625
EXTRACT: note_off channel=5 note=62 velocity=0 time=0.02163421875
EXTRACT: note_off channel=6 note=62 velocity=0 time=0
EXTRACT: note_off channel=5 note=65 velocity=0 time=0.009615208333333333
EXTRACT: note_off channel=6 note=65 velocity=0 time=0
EXTRACT: note_off channel=14 note=46 velocity=0 time=0.00721140625
EXTRACT: note_off channel=12 note=58 velocity=0 time=0.012019010416666667
EXTRACT: note_off channel=12 note=62 velocity=0 time=0.0024038020833333333
EXTRACT: note_off channel=9 note=36 velocity=0 time=0.004807604166666667
EXTRACT: note_off channel=12 note=53 velocity=0 time=0.0024038020833333333
EXTRACT: note_on channel=14 note=58 velocity=84 time=0.009615208333333333
EXTRACT: note_off channel=14 note=58 velocity=0 time=0.10576729166666667
EXTRACT: note_off channel=1 note=34 velocity=0 time=0.004807604166666667
EXTRACT: note_on channel=9 note=36 velocity=122 time=0.004807604166666667
EXTRACT: note_on channel=9 note=39 velocity=65 time=0
EXTRACT: note_on channel=9 note=40 velocity=65 time=0
EXTRACT: note_on channel=9 note=44 velocity=92 time=0
EXTRACT: note_on channel=1 note=29 velocity=76 time=0
EXTRACT: note_on channel=14 note=46 velocity=87 time=0
EXTRACT: note_off channel=14 note=46 velocity=0 time=0.09855588541666667
EXTRACT: note_off channel=9 note=46 velocity=0 time=0.0144228125
EXTRACT: note_on channel=14 note=58 velocity=84 time=0.0024038020833333333
EXTRACT: note_off channel=14 note=58 velocity=0 time=0.09374828125
EXTRACT: note_off channel=1 note=29 velocity=0 time=0.016826614583333333
EXTRACT: note_on channel=9 note=46 velocity=63 time=0.004807604166666667
EXTRACT: note_on channel=1 note=27 velocity=91 time=0
EXTRACT: note_on channel=5 note=63 velocity=88 time=0
EXTRACT: note_on channel=5 note=67 velocity=85 time=0
EXTRACT: note_on channel=6 note=63 velocity=92 time=0
EXTRACT: note_on channel=6 note=67 velocity=89 time=0
EXTRACT: note_on channel=12 note=53 velocity=88 time=0
EXTRACT: note_on channel=12 note=58 velocity=78 time=0
EXTRACT: note_on channel=12 note=63 velocity=74 time=0
EXTRACT: note_on channel=14 note=46 velocity=86 time=0
EXTRACT: note_off channel=9 note=44 velocity=0 time=0.036057031249999996
EXTRACT: note_off channel=5 note=63 velocity=0 time=0.028845625
EXTRACT: note_off channel=6 note=63 velocity=0 time=0
EXTRACT: note_off channel=5 note=67 velocity=0 time=0.016826614583333333
EXTRACT: note_off channel=6 note=67 velocity=0 time=0
EXTRACT: note_off channel=14 note=46 velocity=0 time=0.00721140625
EXTRACT: note_off channel=12 note=58 velocity=0 time=0.02163421875
EXTRACT: note_on channel=14 note=58 velocity=84 time=0.004807604166666667
EXTRACT: note_off channel=9 note=36 velocity=0 time=0.0024038020833333333
EXTRACT: note_off channel=12 note=63 velocity=0 time=0.004807604166666667
EXTRACT: note_off channel=12 note=53 velocity=0 time=0
EXTRACT: note_off channel=14 note=58 velocity=0 time=0.08894067708333334
EXTRACT: note_on channel=9 note=36 velocity=125 time=0.019230416666666666
EXTRACT: note_on channel=9 note=44 velocity=85 time=0
EXTRACT: note_on channel=14 note=46 velocity=87 time=0
EXTRACT: note_off channel=9 note=46 velocity=0 time=0.07692166666666667
EXTRACT: note_off channel=14 note=46 velocity=0 time=0.012019010416666667
EXTRACT: note_off channel=1 note=27 velocity=0 time=0.019230416666666666
EXTRACT: note_on channel=14 note=58 velocity=83 time=0.00721140625
EXTRACT: note_off channel=14 note=58 velocity=0 time=0.10336348958333333
EXTRACT: note_on channel=9 note=36 velocity=120 time=0.012019010416666667
EXTRACT: note_on channel=9 note=46 velocity=71 time=0
EXTRACT: note_on channel=1 note=27 velocity=95 time=0
EXTRACT: note_on channel=3 note=70 velocity=97 time=0
EXTRACT: note_on channel=4 note=82 velocity=87 time=0
EXTRACT: note_on channel=5 note=63 velocity=82 time=0
EXTRACT: note_on channel=5 note=68 velocity=82 time=0
EXTRACT: note_on channel=6 note=63 velocity=86 time=0
EXTRACT: note_on channel=6 note=68 velocity=86 time=0
EXTRACT: note_on channel=12 note=53 velocity=85 time=0
EXTRACT: note_on channel=12 note=58 velocity=88 time=0
EXTRACT: note_on channel=12 note=63 velocity=88 time=0
EXTRACT: note_on channel=14 note=46 velocity=86 time=0
EXTRACT: note_off channel=9 note=36 velocity=64 time=0.05769125
EXTRACT: note_off channel=9 note=40 velocity=0 time=0.012019010416666667
EXTRACT: note_off channel=9 note=39 velocity=0 time=0
EXTRACT: note_off channel=9 note=44 velocity=0 time=0.019230416666666666
EXTRACT: note_off channel=14 note=46 velocity=0 time=0.004807604166666667
EXTRACT: note_off channel=9 note=36 velocity=0 time=0.00721140625
EXTRACT: note_on channel=14 note=58 velocity=84 time=0.0144228125
EXTRACT: note_off channel=3 note=70 velocity=0 time=0.013220911458333333
EXTRACT: note_off channel=4 note=82 velocity=0 time=0
EXTRACT: note_off channel=14 note=58 velocity=0 time=0.08773877604166666
EXTRACT: note_on channel=9 note=36 velocity=125 time=0.0144228125
EXTRACT: note_on channel=9 note=39 velocity=65 time=0
EXTRACT: note_on channel=9 note=40 velocity=64 time=0
EXTRACT: note_on channel=9 note=44 velocity=101 time=0
EXTRACT: note_on channel=3 note=70 velocity=97 time=0
EXTRACT: note_on channel=4 note=82 velocity=87 time=0
EXTRACT: note_on channel=14 note=46 velocity=87 time=0
EXTRACT: note_off channel=14 note=46 velocity=0 time=0.09134447916666666
EXTRACT: note_off channel=9 note=46 velocity=0 time=0.012019010416666667
EXTRACT: note_on channel=14 note=58 velocity=84 time=0.012019010416666667
EXTRACT: note_off channel=12 note=58 velocity=0 time=0.0144228125
EXTRACT: note_off channel=12 note=63 velocity=0 time=0.009615208333333333
EXTRACT: note_off channel=12 note=53 velocity=0 time=0
EXTRACT: note_off channel=3 note=70 velocity=0 time=0.010817109375
EXTRACT: note_off channel=4 note=82 velocity=0 time=0
EXTRACT: note_off channel=14 note=58 velocity=0 time=0.061296953125
EXTRACT: note_on channel=9 note=46 velocity=70 time=0.019230416666666666
EXTRACT: note_on channel=1 note=31 velocity=85 time=0
EXTRACT: note_on channel=3 note=72 velocity=97 time=0
EXTRACT: note_on channel=4 note=84 velocity=87 time=0
EXTRACT: note_on channel=12 note=53 velocity=78 time=0
EXTRACT: note_on channel=12 note=58 velocity=80 time=0
EXTRACT: note_on channel=12 note=63 velocity=82 time=0
EXTRACT: note_on channel=14 note=46 velocity=86 time=0
EXTRACT: note_off channel=1 note=27 velocity=0 time=0.00721140625
EXTRACT: note_off channel=5 note=63 velocity=0 time=0.036057031249999996
EXTRACT: note_off channel=6 note=63 velocity=0 time=0
EXTRACT: note_off channel=5 note=68 velocity=0 time=0.016826614583333333
EXTRACT: note_off channel=6 note=68 velocity=0 time=0
EXTRACT: note_off channel=9 note=44 velocity=0 time=0.024038020833333333
EXTRACT: note_off channel=12 note=58 velocity=0 time=0.004807604166666667
EXTRACT: note_off channel=14 note=46 velocity=0 time=0.004807604166666667
EXTRACT: note_off channel=12 note=63 velocity=0 time=0.012019010416666667
EXTRACT: note_off channel=12 note=53 velocity=0 time=0
EXTRACT: note_off channel=9 note=36 velocity=0 time=0.0024038020833333333
EXTRACT: note_on channel=14 note=58 velocity=85 time=0.00721140625
EXTRACT: note_off channel=9 note=46 velocity=0 time=0.0432684375
EXTRACT: note_off channel=1 note=31 velocity=0 time=0.031249427083333333
EXTRACT: note_off channel=14 note=58 velocity=0 time=0.019230416666666666
EXTRACT: note_on channel=9 note=36 velocity=122 time=0.02163421875
EXTRACT: note_on channel=9 note=44 velocity=111 time=0
EXTRACT: note_on channel=1 note=34 velocity=104 time=0
EXTRACT: note_on channel=3 note=70 velocity=97 time=0
EXTRACT: note_on channel=4 note=82 velocity=87 time=0
EXTRACT: note_on channel=12 note=53 velocity=88 time=0
EXTRACT: note_on channel=12 note=58 velocity=78 time=0
EXTRACT: note_on channel=12 note=62 velocity=76 time=0
EXTRACT: note_on channel=14 note=46 velocity=89 time=0
EXTRACT: note_off channel=3 note=72 velocity=0 time=0.054085546875
EXTRACT: note_off channel=4 note=84 velocity=0 time=0
EXTRACT: note_off channel=14 note=46 velocity=0 time=0.032451328125
EXTRACT: note_off channel=12 note=58 velocity=0 time=0.009615208333333333
EXTRACT: note_off channel=12 note=62 velocity=0 time=0.016826614583333333
EXTRACT: note_on channel=14 note=58 velocity=85 time=0.0024038020833333333
EXTRACT: note_off channel=12 note=53 velocity=0 time=0.00721140625
EXTRACT: note_off channel=14 note=58 velocity=0 time=0.10576729166666667
EXTRACT: note_on channel=9 note=46 velocity=75 time=0.0024038020833333333
EXTRACT: note_on channel=5 note=62 velocity=73 time=0
EXTRACT: note_on channel=5 note=65 velocity=71 time=0
EXTRACT: note_on channel=6 note=62 velocity=77 time=0
EXTRACT: note_on channel=6 note=65 velocity=75 time=0
EXTRACT: note_on channel=14 note=46 velocity=87 time=0
EXTRACT: note_off channel=9 note=44 velocity=0 time=0.026441822916666666
EXTRACT: note_off channel=9 note=39 velocity=0 time=0.02163421875
EXTRACT: note_off channel=9 note=40 velocity=0 time=0.004807604166666667
EXTRACT: note_off channel=5 note=65 velocity=0 time=0
EXTRACT: note_off channel=6 note=65 velocity=0 time=0
EXTRACT: note_off channel=5 note=62 velocity=0 time=0.012019010416666667
EXTRACT: note_off channel=6 note=62 velocity=0 time=0
EXTRACT: note_off channel=14 note=46 velocity=0 time=0.00721140625
EXTRACT: note_off channel=9 note=36 velocity=0 time=0.0144228125
EXTRACT: note_on channel=14 note=58 velocity=84 time=0.028845625
EXTRACT: note_off channel=1 note=34 velocity=0 time=0.07932546875
EXTRACT: note_off channel=14 note=58 velocity=0 time=0.004807604166666667
EXTRACT: note_on channel=9 note=36 velocity=118 time=0.031249427083333333
EXTRACT: note_on channel=9 note=39 velocity=71 time=0
EXTRACT: note_on channel=9 note=40 velocity=72 time=0
EXTRACT: note_on channel=9 note=44 velocity=92 time=0
EXTRACT: note_on channel=1 note=29 velocity=73 time=0
EXTRACT: note_on channel=5 note=62 velocity=67 time=0
EXTRACT: note_on channel=5 note=65 velocity=82 time=0
EXTRACT: note_on channel=6 note=62 velocity=71 time=0
EXTRACT: note_on channel=6 note=65 velocity=86 time=0
EXTRACT: note_on channel=12 note=53 velocity=80 time=0
EXTRACT: note_on channel=12 note=58 velocity=73 time=0
EXTRACT: note_on channel=12 note=62 velocity=73 time=0
EXTRACT: note_on channel=14 note=46 velocity=87 time=0
EXTRACT: note_off channel=14 note=46 velocity=0 time=0.086536875
EXTRACT: note_off channel=12 note=62 velocity=0 time=0.016826614583333333
EXTRACT: note_off channel=5 note=62 velocity=0 time=0.0024038020833333333
EXTRACT: note_off channel=6 note=62 velocity=0 time=0
EXTRACT: note_off channel=9 note=46 velocity=0 time=0.00721140625
EXTRACT: note_off channel=12 note=58 velocity=0 time=0
EXTRACT: note_on channel=14 note=58 velocity=84 time=0.0024038020833333333
EXTRACT: note_off channel=5 note=65 velocity=0 time=0.004807604166666667
EXTRACT: note_off channel=6 note=65 velocity=0 time=0
EXTRACT: note_off channel=12 note=53 velocity=0 time=0.0024038020833333333
EXTRACT: note_off channel=3 note=70 velocity=0 time=0.013220911458333333
EXTRACT: note_off channel=4 note=82 velocity=0 time=0
EXTRACT: note_off channel=1 note=29 velocity=0 time=0.032451328125
EXTRACT: note_off channel=14 note=58 velocity=0 time=0.033653229166666666
EXTRACT: note_on channel=9 note=46 velocity=63 time=0.028845625
EXTRACT: note_on channel=1 note=27 velocity=88 time=0
EXTRACT: note_on channel=12 note=53 velocity=76 time=0
EXTRACT: note_on channel=12 note=58 velocity=74 time=0
EXTRACT: note_on channel=12 note=63 velocity=74 time=0
EXTRACT: note_on channel=14 note=46 velocity=85 time=0
EXTRACT: note_off channel=9 note=44 velocity=0 time=0.036057031249999996
EXTRACT: note_off channel=14 note=46 velocity=0 time=0.05047984375
EXTRACT: note_off channel=9 note=36 velocity=0 time=0.019230416666666666
EXTRACT: note_off channel=12 note=53 velocity=0 time=0.00721140625
EXTRACT: note_on channel=14 note=58 velocity=84 time=0.0024038020833333333
EXTRACT: note_off channel=12 note=58 velocity=0 time=0.016826614583333333
EXTRACT: note_off channel=12 note=63 velocity=0 time=0.012019010416666667
EXTRACT: note_off channel=14 note=58 velocity=0 time=0.05528744791666666
EXTRACT: note_on channel=9 note=36 velocity=125 time=0.031249427083333333
EXTRACT: note_on channel=9 note=44 velocity=85 time=0
EXTRACT: note_on channel=5 note=63 velocity=82 time=0
EXTRACT: note_on channel=5 note=67 velocity=85 time=0
EXTRACT: note_on channel=6 note=63 velocity=86 time=0
EXTRACT: note_on channel=6 note=67 velocity=89 time=0
EXTRACT: note_on channel=14 note=46 velocity=86 time=0
EXTRACT: note_off channel=9 note=46 velocity=0 time=0.07692166666666667
EXTRACT: note_off channel=5 note=63 velocity=0 time=0.00721140625
EXTRACT: note_off channel=6 note=63 velocity=0 time=0
EXTRACT: note_off channel=5 note=67 velocity=0 time=0.00721140625
EXTRACT: note_off channel=6 note=67 velocity=0 time=0
EXTRACT: note_off channel=14 note=46 velocity=0 time=0
EXTRACT: note_on channel=14 note=58 velocity=84 time=0.024038020833333333
EXTRACT: note_off channel=1 note=27 velocity=0 time=0.06490265625
EXTRACT: note_off channel=14 note=58 velocity=0 time=0.026441822916666666
EXTRACT: note_on channel=9 note=36 velocity=120 time=0.024038020833333333
EXTRACT: note_on channel=9 note=46 velocity=71 time=0
EXTRACT: note_on channel=1 note=27 velocity=95 time=0
EXTRACT: note_on channel=3 note=70 velocity=97 time=0
EXTRACT: note_on channel=4 note=82 velocity=87 time=0
EXTRACT: note_on channel=5 note=63 velocity=78 time=0
EXTRACT: note_on channel=5 note=68 velocity=78 time=0
EXTRACT: note_on channel=6 note=63 velocity=82 time=0
EXTRACT: note_on channel=6 note=68 velocity=82 time=0
EXTRACT: note_on channel=12 note=53 velocity=71 time=0
EXTRACT: note_on channel=12 note=58 velocity=78 time=0
EXTRACT: note_on channel=12 note=63 velocity=78 time=0
EXTRACT: note_on channel=14 note=46 velocity=85 time=0
EXTRACT: note_off channel=9 note=39 velocity=0 time=0.0144228125
EXTRACT: note_off channel=9 note=40 velocity=0 time=0.0024038020833333333
EXTRACT: note_off channel=9 note=36 velocity=64 time=0.04086463541666667
EXTRACT: note_off channel=9 note=36 velocity=0 time=0.028845625
EXTRACT: note_off channel=9 note=44 velocity=0 time=0.0024038020833333333
EXTRACT: note_off channel=14 note=46 velocity=0 time=0.0024038020833333333
EXTRACT: note_on channel=14 note=58 velocity=84 time=0.024038020833333333
EXTRACT: note_off channel=3 note=70 velocity=0 time=0.06490265625
EXTRACT: note_off channel=4 note=82 velocity=0 time=0
EXTRACT: note_off channel=14 note=58 velocity=0 time=0.028845625
EXTRACT: note_on channel=9 note=36 velocity=122 time=0.02163421875
EXTRACT: note_on channel=9 note=39 velocity=62 time=0
EXTRACT: note_on channel=9 note=40 velocity=68 time=0
EXTRACT: note_on channel=9 note=44 velocity=101 time=0
EXTRACT: note_on channel=3 note=70 velocity=97 time=0
EXTRACT: note_on channel=4 note=82 velocity=87 time=0
EXTRACT: note_on channel=14 note=46 velocity=87 time=0
EXTRACT: note_off channel=14 note=46 velocity=0 time=0.09615208333333333
EXTRACT: note_off channel=9 note=46 velocity=0 time=0.00721140625
EXTRACT: note_off channel=12 note=53 velocity=0 time=0.004807604166666667
EXTRACT: note_on channel=14 note=58 velocity=84 time=0.00721140625
EXTRACT: note_off channel=12 note=58 velocity=0 time=0.00721140625
EXTRACT: note_off channel=12 note=63 velocity=0 time=0.0144228125
EXTRACT: note_off channel=14 note=58 velocity=0 time=0.07932546875
EXTRACT: note_off channel=3 note=70 velocity=0 time=0.006009505208333333
EXTRACT: note_off channel=4 note=82 velocity=0 time=0
EXTRACT: note_off channel=1 note=27 velocity=0 time=0.006009505208333333
EXTRACT: note_on channel=9 note=46 velocity=70 time=0.0024038020833333333
EXTRACT: note_on channel=1 note=31 velocity=62 time=0
EXTRACT: note_on channel=3 note=72 velocity=97 time=0
EXTRACT: note_on channel=4 note=84 velocity=87 time=0
EXTRACT: note_on channel=12 note=53 velocity=71 time=0
EXTRACT: note_on channel=12 note=58 velocity=73 time=0
EXTRACT: note_on channel=12 note=63 velocity=68 time=0
EXTRACT: note_on channel=14 note=46 velocity=87 time=0
EXTRACT: note_off channel=5 note=63 velocity=0 time=0.004807604166666667
EXTRACT: note_off channel=6 note=63 velocity=0 time=0
EXTRACT: note_off channel=5 note=68 velocity=0 time=0.004807604166666667
EXTRACT: note_off channel=6 note=68 velocity=0 time=0
EXTRACT: note_off channel=9 note=44 velocity=0 time=0.07451786458333333
EXTRACT: note_off channel=14 note=46 velocity=0 time=0.009615208333333333
EXTRACT: note_off channel=9 note=36 velocity=0 time=0.00721140625
EXTRACT: note_on channel=14 note=58 velocity=83 time=0.0144228125
EXTRACT: note_off channel=12 note=53 velocity=0 time=0.00721140625
EXTRACT: note_off channel=12 note=58 velocity=0 time=0.012019010416666667
EXTRACT: note_off channel=9 note=46 velocity=0 time=0.024038020833333333
EXTRACT: note_off channel=12 note=63 velocity=0 time=0.004807604166666667
EXTRACT: note_off channel=1 note=31 velocity=0 time=0.016826614583333333
EXTRACT: note_off channel=14 note=58 velocity=0 time=0.036057031249999996
EXTRACT: note_on channel=9 note=36 velocity=122 time=0.0144228125
EXTRACT: note_on channel=9 note=44 velocity=111 time=0
EXTRACT: note_on channel=1 note=34 velocity=82 time=0
EXTRACT: note_on channel=12 note=53 velocity=74 time=0
EXTRACT: note_on channel=12 note=58 velocity=73 time=0
EXTRACT: note_on channel=12 note=62 velocity=71 time=0
EXTRACT: note_on channel=14 note=46 velocity=87 time=0
EXTRACT: note_off channel=12 note=58 velocity=0 time=0.09374828125
EXTRACT: note_off channel=14 note=46 velocity=0 time=0
EXTRACT: note_off channel=12 note=62 velocity=0 time=0.012019010416666667
EXTRACT: note_off channel=12 note=53 velocity=0 time=0.004807604166666667
EXTRACT: note_on channel=14 note=58 velocity=84 time=0.004807604166666667
EXTRACT: note_off channel=14 note=58 velocity=0 time=0.10576729166666667
EXTRACT: note_on channel=9 note=46 velocity=75 time=0.009615208333333333
EXTRACT: note_on channel=3 note=74 velocity=97 time=0
EXTRACT: note_on channel=4 note=86 velocity=87 time=0
EXTRACT: note_on channel=5 note=62 velocity=76 time=0
EXTRACT: note_on channel=5 note=65 velocity=85 time=0
EXTRACT: note_on channel=6 note=62 velocity=80 time=0
EXTRACT: note_on channel=6 note=65 velocity=89 time=0
EXTRACT: note_on channel=14 note=46 velocity=86 time=0
EXTRACT: note_off channel=3 note=72 velocity=0 time=0.02163421875
EXTRACT: note_off channel=4 note=84 velocity=0 time=0
EXTRACT: note_off channel=9 note=44 velocity=0 time=0.004807604166666667
EXTRACT: note_off channel=5 note=65 velocity=0 time=0.05047984375
EXTRACT: note_off channel=6 note=65 velocity=0 time=0
EXTRACT: note_off channel=5 note=62 velocity=0 time=0.00721140625
EXTRACT: note_off channel=6 note=62 velocity=0 time=0
EXTRACT: note_off channel=14 note=46 velocity=0 time=0
EXTRACT: note_off channel=9 note=40 velocity=0 time=0.0024038020833333333
EXTRACT: note_off channel=9 note=39 velocity=0 time=0.00721140625
EXTRACT: note_off channel=9 note=36 velocity=0 time=0.00721140625
EXTRACT: note_on channel=14 note=58 velocity=84 time=0.0144228125
EXTRACT: note_off channel=14 note=58 velocity=0 time=0.10576729166666667
EXTRACT: note_off channel=1 note=34 velocity=0 time=0.004807604166666667
EXTRACT: note_on channel=9 note=36 velocity=122 time=0.004807604166666667
EXTRACT: note_on channel=9 note=39 velocity=66 time=0
EXTRACT: note_on channel=9 note=40 velocity=66 time=0
EXTRACT: note_on channel=9 note=44 velocity=92 time=0
EXTRACT: note_on channel=1 note=29 velocity=76 time=0
EXTRACT: note_on channel=12 note=53 velocity=82 time=0
EXTRACT: note_on channel=12 note=58 velocity=78 time=0
EXTRACT: note_on channel=12 note=62 velocity=73 time=0
EXTRACT: note_on channel=14 note=46 velocity=87 time=0
EXTRACT: note_off channel=3 note=74 velocity=0 time=0.06971026041666667
EXTRACT: note_off channel=4 note=86 velocity=0 time=0
EXTRACT: note_off channel=14 note=46 velocity=0 time=0.028845625
EXTRACT: note_off channel=9 note=46 velocity=0 time=0.0144228125
EXTRACT: note_on channel=14 note=58 velocity=84 time=0.0024038020833333333
EXTRACT: note_off channel=12 note=62 velocity=0 time=0.033653229166666666
EXTRACT: note_off channel=12 note=58 velocity=0 time=0
EXTRACT: note_off channel=12 note=53 velocity=0 time=0
EXTRACT: note_off channel=14 note=58 velocity=0 time=0.060095052083333336
EXTRACT: note_off channel=1 note=29 velocity=0 time=0.016826614583333333
EXTRACT: note_on channel=9 note=46 velocity=63 time=0.004807604166666667
EXTRACT: note_on channel=1 note=27 velocity=91 time=0
EXTRACT: note_on channel=3 note=75 velocity=97 time=0
EXTRACT: note_on channel=4 note=87 velocity=87 time=0
EXTRACT: note_on channel=5 note=63 velocity=88 time=0
EXTRACT: note_on channel=5 note=67 velocity=80 time=0
EXTRACT: note_on channel=6 note=63 velocity=92 time=0
EXTRACT: note_on channel=6 note=67 velocity=84 time=0
EXTRACT: note_on channel=12 note=53 velocity=82 time=0
EXTRACT: note_on channel=12 note=58 velocity=80 time=0
EXTRACT: note_on channel=12 note=63 velocity=80 time=0
EXTRACT: note_on channel=14 note=46 velocity=86 time=0
EXTRACT: note_off channel=9 note=44 velocity=0 time=0.036057031249999996
EXTRACT: note_off channel=14 note=46 velocity=0 time=0.05288364583333333
EXTRACT: note_off channel=5 note=63 velocity=0 time=0.0024038020833333333
EXTRACT: note_off channel=6 note=63 velocity=0 time=0
EXTRACT: note_off channel=5 note=67 velocity=0 time=0.0144228125
EXTRACT: note_off channel=6 note=67 velocity=0 time=0
EXTRACT: note_on channel=14 note=58 velocity=84 time=0.009615208333333333
EXTRACT: note_off channel=12 note=58 velocity=0 time=0.019230416666666666
EXTRACT: note_off channel=12 note=63 velocity=0 time=0.004807604166666667
EXTRACT: note_off channel=12 note=53 velocity=0 time=0.009615208333333333
EXTRACT: note_off channel=9 note=36 velocity=0 time=0.004807604166666667
EXTRACT: note_off channel=14 note=58 velocity=0 time=0.05769125
EXTRACT: note_on channel=9 note=36 velocity=118 time=0.019230416666666666
EXTRACT: note_on channel=9 note=44 velocity=85 time=0
EXTRACT: note_on channel=3 note=74 velocity=97 time=0
EXTRACT: note_on channel=4 note=86 velocity=87 time=0
EXTRACT: note_on channel=14 note=46 velocity=87 time=0
EXTRACT: note_off channel=3 note=75 velocity=0 time=0.054085546875
EXTRACT: note_off channel=4 note=87 velocity=0 time=0
EXTRACT: note_off channel=9 note=46 velocity=0 time=0.022836119791666665
EXTRACT: note_off channel=14 note=46 velocity=0 time=0.012019010416666667
EXTRACT: note_off channel=1 note=27 velocity=0 time=0.019230416666666666
EXTRACT: note_on channel=14 note=58 velocity=83 time=0.00721140625
EXTRACT: note_off channel=14 note=58 velocity=0 time=0.10336348958333333
EXTRACT: note_on channel=9 note=36 velocity=120 time=0.012019010416666667
EXTRACT: note_on channel=9 note=46 velocity=71 time=0
EXTRACT: note_on channel=1 note=27 velocity=95 time=0
EXTRACT: note_on channel=3 note=75 velocity=97 time=0
EXTRACT: note_on channel=4 note=87 velocity=87 time=0
EXTRACT: note_on channel=5 note=63 velocity=80 time=0
EXTRACT: note_on channel=5 note=68 velocity=82 time=0
EXTRACT: note_on channel=6 note=63 velocity=84 time=0
EXTRACT: note_on channel=6 note=68 velocity=86 time=0
EXTRACT: note_on channel=12 note=53 velocity=80 time=0
EXTRACT: note_on channel=12 note=58 velocity=78 time=0
EXTRACT: note_on channel=12 note=63 velocity=80 time=0
EXTRACT: note_on channel=14 note=46 velocity=86 time=0
EXTRACT: note_off channel=3 note=74 velocity=0 time=0.054085546875
EXTRACT: note_off channel=4 note=86 velocity=0 time=0
EXTRACT: note_off channel=9 note=36 velocity=64 time=0.003605703125
EXTRACT: note_off channel=9 note=40 velocity=0 time=0.028845625
EXTRACT: note_off channel=9 note=39 velocity=0 time=0
EXTRACT: note_off channel=9 note=44 velocity=0 time=0.0024038020833333333
EXTRACT: note_off channel=14 note=46 velocity=0 time=0.004807604166666667
EXTRACT: note_off channel=9 note=36 velocity=0 time=0.0024038020833333333
EXTRACT: note_on channel=14 note=58 velocity=84 time=0.019230416666666666
EXTRACT: note_off channel=14 note=58 velocity=0 time=0.1009596875
EXTRACT: note_on channel=9 note=36 velocity=122 time=0.0144228125
EXTRACT: note_on channel=9 note=39 velocity=71 time=0
EXTRACT: note_on channel=9 note=40 velocity=72 time=0
EXTRACT: note_on channel=9 note=44 velocity=101 time=0
EXTRACT: note_on channel=3 note=74 velocity=97 time=0
EXTRACT: note_on channel=4 note=86 velocity=87 time=0
EXTRACT: note_on channel=14 note=46 velocity=87 time=0
EXTRACT: note_off channel=3 note=75 velocity=0 time=0.054085546875
EXTRACT: note_off channel=4 note=87 velocity=0 time=0
EXTRACT: note_off channel=14 note=46 velocity=0 time=0.037258932291666665
EXTRACT: note_off channel=9 note=46 velocity=0 time=0.012019010416666667
EXTRACT: note_on channel=14 note=58 velocity=84 time=0.012019010416666667
EXTRACT: note_off channel=14 note=58 velocity=0 time=0.09615208333333333
EXTRACT: note_on channel=9 note=46 velocity=70 time=0.019230416666666666
EXTRACT: note_on channel=1 note=31 velocity=85 time=0
EXTRACT: note_on channel=3 note=75 velocity=97 time=0
EXTRACT: note_on channel=4 note=87 velocity=87 time=0
EXTRACT: note_on channel=14 note=46 velocity=86 time=0
EXTRACT: note_off channel=1 note=27 velocity=0 time=0.00721140625
EXTRACT: note_off channel=12 note=58 velocity=0 time=0.00721140625
EXTRACT: note_off channel=12 note=63 velocity=0 time=0.00721140625
EXTRACT: note_off channel=12 note=53 velocity=0 time=0.004807604166666667
EXTRACT: note_off channel=3 note=74 velocity=0 time=0.02764372395833333
EXTRACT: note_off channel=4 note=86 velocity=0 time=0
EXTRACT: note_off channel=5 note=63 velocity=0 time=0.008413307291666667
EXTRACT: note_off channel=6 note=63 velocity=0 time=0
EXTRACT: note_off channel=5 note=68 velocity=0 time=0.012019010416666667
EXTRACT: note_off channel=6 note=68 velocity=0 time=0
EXTRACT: note_off channel=9 note=44 velocity=0 time=0.009615208333333333
EXTRACT: note_off channel=14 note=46 velocity=0 time=0.009615208333333333
EXTRACT: note_off channel=9 note=36 velocity=0 time=0.012019010416666667
EXTRACT: note_on channel=14 note=58 velocity=85 time=0.009615208333333333
EXTRACT: note_off channel=9 note=46 velocity=0 time=0.0432684375
EXTRACT: note_off channel=1 note=31 velocity=0 time=0.031249427083333333
EXTRACT: note_off channel=14 note=58 velocity=0 time=0.019230416666666666
EXTRACT: note_on channel=9 note=36 velocity=122 time=0.02163421875
EXTRACT: note_on channel=9 note=44 velocity=111 time=0
EXTRACT: note_on channel=1 note=34 velocity=104 time=0
EXTRACT: note_on channel=3 note=74 velocity=97 time=0
EXTRACT: note_on channel=4 note=86 velocity=87 time=0
EXTRACT: note_on channel=14 note=46 velocity=89 time=0
EXTRACT: note_off channel=3 note=75 velocity=0 time=0.04206653645833333
EXTRACT: note_off channel=4 note=87 velocity=0 time=0
EXTRACT: note_off channel=14 note=46 velocity=0 time=0.04447033854166667
EXTRACT: note_on channel=14 note=58 velocity=85 time=0.028845625
EXTRACT: note_off channel=14 note=58 velocity=0 time=0.11297869791666666
EXTRACT: note_on channel=9 note=46 velocity=75 time=0.0024038020833333333
EXTRACT: note_on channel=5 note=62 velocity=73 time=0
EXTRACT: note_on channel=5 note=65 velocity=80 time=0
EXTRACT: note_on channel=6 note=62 velocity=77 time=0
EXTRACT: note_on channel=6 note=65 velocity=84 time=0
EXTRACT: note_on channel=12 note=53 velocity=85 time=0
EXTRACT: note_on channel=12 note=58 velocity=80 time=0
EXTRACT: note_on channel=12 note=62 velocity=76 time=0
EXTRACT: note_on channel=14 note=46 velocity=87 time=0
EXTRACT: note_off channel=9 note=44 velocity=0 time=0.026441822916666666
EXTRACT: note_off channel=9 note=40 velocity=0 time=0.026441822916666666
EXTRACT: note_off channel=9 note=39 velocity=0 time=0
EXTRACT: note_off channel=5 note=65 velocity=0 time=0.016826614583333333
EXTRACT: note_off channel=6 note=65 velocity=0 time=0
EXTRACT: note_off channel=14 note=46 velocity=0 time=0.0024038020833333333
EXTRACT: note_off channel=5 note=62 velocity=0 time=0.00721140625
EXTRACT: note_off channel=6 note=62 velocity=0 time=0
EXTRACT: note_off channel=12 note=58 velocity=0 time=0.0144228125
EXTRACT: note_off channel=12 note=62 velocity=0 time=0.00721140625
EXTRACT: note_off channel=9 note=36 velocity=0 time=0.0024038020833333333
EXTRACT: note_off channel=12 note=53 velocity=0 time=0.012019010416666667
EXTRACT: note_on channel=14 note=58 velocity=84 time=0
EXTRACT: note_off channel=1 note=34 velocity=0 time=0.07932546875
EXTRACT: note_off channel=14 note=58 velocity=0 time=0.004807604166666667
EXTRACT: note_on channel=9 note=36 velocity=122 time=0.031249427083333333
EXTRACT: note_on channel=9 note=39 velocity=76 time=0
EXTRACT: note_on channel=9 note=40 velocity=74 time=0
EXTRACT: note_on channel=9 note=44 velocity=92 time=0
EXTRACT: note_on channel=1 note=29 velocity=73 time=0
EXTRACT: note_on channel=5 note=62 velocity=71 time=0
EXTRACT: note_on channel=5 note=65 velocity=80 time=0
EXTRACT: note_on channel=6 note=62 velocity=75 time=0
EXTRACT: note_on channel=6 note=65 velocity=84 time=0
EXTRACT: note_on channel=14 note=46 velocity=87 time=0
EXTRACT: note_off channel=14 note=46 velocity=0 time=0.086536875
EXTRACT: note_off channel=9 note=46 velocity=0 time=0.026441822916666666
EXTRACT: note_on channel=14 note=58 velocity=84 time=0.0024038020833333333
EXTRACT: note_off channel=5 note=62 velocity=0 time=0.024038020833333333
EXTRACT: note_off channel=6 note=62 velocity=0 time=0
EXTRACT: note_off channel=5 note=65 velocity=0 time=0.009615208333333333
EXTRACT: note_off channel=6 note=65 velocity=0 time=0
EXTRACT: note_off channel=1 note=29 velocity=0 time=0.019230416666666666
EXTRACT: note_off channel=14 note=58 velocity=0 time=0.033653229166666666
EXTRACT: note_on channel=9 note=46 velocity=63 time=0.028845625
EXTRACT: note_on channel=1 note=27 velocity=88 time=0
EXTRACT: note_on channel=3 note=72 velocity=97 time=0
EXTRACT: note_on channel=4 note=84 velocity=87 time=0
EXTRACT: note_on channel=12 note=53 velocity=80 time=0
EXTRACT: note_on channel=12 note=58 velocity=78 time=0
EXTRACT: note_on channel=12 note=62 velocity=68 time=0
EXTRACT: note_on channel=14 note=46 velocity=85 time=0
EXTRACT: note_off channel=9 note=44 velocity=0 time=0.036057031249999996
EXTRACT: note_off channel=12 note=62 velocity=0 time=0.04567223958333333
EXTRACT: note_off channel=12 note=58 velocity=0 time=0.0024038020833333333
EXTRACT: note_off channel=14 note=46 velocity=0 time=0.0024038020833333333
EXTRACT: note_off channel=9 note=36 velocity=0 time=0.004807604166666667
EXTRACT: note_off channel=12 note=53 velocity=0 time=0.00721140625
EXTRACT: note_on channel=14 note=58 velocity=84 time=0.016826614583333333
EXTRACT: note_off channel=3 note=74 velocity=0 time=0.006009505208333333
EXTRACT: note_off channel=4 note=86 velocity=0 time=0
EXTRACT: note_off channel=14 note=58 velocity=0 time=0.07812356770833333
EXTRACT: note_on channel=9 note=36 velocity=122 time=0.031249427083333333
EXTRACT: note_on channel=9 note=44 velocity=85 time=0
EXTRACT: note_on channel=5 note=63 velocity=82 time=0
EXTRACT: note_on channel=5 note=67 velocity=80 time=0
EXTRACT: note_on channel=6 note=63 velocity=86 time=0
EXTRACT: note_on channel=6 note=67 velocity=84 time=0
EXTRACT: note_on channel=12 note=53 velocity=85 time=0
EXTRACT: note_on channel=12 note=58 velocity=82 time=0
EXTRACT: note_on channel=12 note=63 velocity=82 time=0
EXTRACT: note_on channel=14 note=46 velocity=86 time=0
EXTRACT: note_off channel=9 note=46 velocity=0 time=0.07692166666666667
EXTRACT: note_off channel=5 note=63 velocity=0 time=0.0144228125
EXTRACT: note_off channel=6 note=63 velocity=0 time=0
EXTRACT: note_off channel=14 note=46 velocity=0 time=0
EXTRACT: note_off channel=5 note=67 velocity=0 time=0.004807604166666667
EXTRACT: note_off channel=6 note=67 velocity=0 time=0
EXTRACT: note_on channel=14 note=58 velocity=84 time=0.019230416666666666
EXTRACT: note_off channel=1 note=27 velocity=0 time=0.06490265625
EXTRACT: note_off channel=12 note=58 velocity=0 time=0.0144228125
EXTRACT: note_off channel=14 note=58 velocity=0 time=0.012019010416666667
EXTRACT: note_off channel=12 note=63 velocity=0 time=0.004807604166666667
EXTRACT: note_on channel=9 note=36 velocity=120 time=0.019230416666666666
EXTRACT: note_on channel=9 note=46 velocity=71 time=0
EXTRACT: note_on channel=1 note=27 velocity=95 time=0
EXTRACT: note_on channel=3 note=70 velocity=97 time=0
EXTRACT: note_on channel=4 note=82 velocity=87 time=0
EXTRACT: note_on channel=5 note=63 velocity=80 time=0
EXTRACT: note_on channel=5 note=68 velocity=80 time=0
EXTRACT: note_on channel=6 note=63 velocity=84 time=0
EXTRACT: note_on channel=6 note=68 velocity=84 time=0
EXTRACT: note_on channel=14 note=46 velocity=85 time=0
EXTRACT: note_off channel=9 note=36 velocity=64 time=0.05769125
EXTRACT: note_off channel=12 note=53 velocity=0 time=0.0024038020833333333
EXTRACT: note_off channel=9 note=44 velocity=0 time=0.028845625
EXTRACT: note_off channel=9 note=39 velocity=0 time=0.0024038020833333333
EXTRACT: note_off channel=14 note=46 velocity=0 time=0
EXTRACT: note_off channel=9 note=40 velocity=0 time=0.0024038020833333333
EXTRACT: note_off channel=3 note=72 velocity=0 time=0
EXTRACT: note_off channel=4 note=84 velocity=0 time=0
EXTRACT: note_on channel=14 note=58 velocity=84 time=0.02163421875
EXTRACT: note_off channel=9 note=36 velocity=0 time=0.009615208333333333
EXTRACT: note_off channel=14 note=58 velocity=0 time=0.08413307291666666
EXTRACT: note_on channel=9 note=36 velocity=122 time=0.02163421875
EXTRACT: note_on channel=9 note=39 velocity=72 time=0
EXTRACT: note_on channel=9 note=40 velocity=74 time=0
EXTRACT: note_on channel=9 note=44 velocity=101 time=0
EXTRACT: note_on channel=12 note=53 velocity=82 time=0
EXTRACT: note_on channel=12 note=58 velocity=88 time=0
EXTRACT: note_on channel=12 note=63 velocity=82 time=0
EXTRACT: note_on channel=14 note=46 velocity=87 time=0
EXTRACT: note_off channel=14 note=46 velocity=0 time=0.09615208333333333
EXTRACT: note_off channel=9 note=46 velocity=0 time=0.00721140625
EXTRACT: note_on channel=14 note=58 velocity=84 time=0.012019010416666667
EXTRACT: note_off channel=5 note=63 velocity=0 time=0.02163421875
EXTRACT: note_off channel=6 note=63 velocity=0 time=0
EXTRACT: note_off channel=5 note=68 velocity=0 time=0.0144228125
EXTRACT: note_off channel=6 note=68 velocity=0 time=0
EXTRACT: note_off channel=12 note=53 velocity=0 time=0.00721140625
EXTRACT: note_off channel=12 note=58 velocity=0 time=0.04086463541666667
EXTRACT: note_off channel=12 note=63 velocity=0 time=0.016826614583333333
EXTRACT: note_off channel=14 note=58 velocity=0 time=0
EXTRACT: note_off channel=1 note=27 velocity=0 time=0.012019010416666667
EXTRACT: note_on channel=9 note=46 velocity=70 time=0.0024038020833333333
EXTRACT: note_on channel=1 note=31 velocity=62 time=0
EXTRACT: note_on channel=3 note=68 velocity=97 time=0
EXTRACT: note_on channel=4 note=80 velocity=87 time=0
EXTRACT: note_on channel=5 note=62 velocity=85 time=0
EXTRACT: note_on channel=5 note=65 velocity=91 time=0
EXTRACT: note_on channel=6 note=62 velocity=89 time=0
EXTRACT: note_on channel=6 note=65 velocity=95 time=0
EXTRACT: note_on channel=12 note=53 velocity=82 time=0
EXTRACT: note_on channel=12 note=58 velocity=73 time=0
EXTRACT: note_on channel=12 note=62 velocity=73 time=0
EXTRACT: note_on channel=14 note=46 velocity=87 time=0
EXTRACT: note_off channel=5 note=65 velocity=0 time=0.07451786458333333
EXTRACT: note_off channel=6 note=65 velocity=0 time=0
EXTRACT: note_off channel=9 note=36 velocity=0 time=0.0024038020833333333
EXTRACT: note_off channel=5 note=62 velocity=0 time=0.004807604166666667
EXTRACT: note_off channel=6 note=62 velocity=0 time=0
EXTRACT: note_off channel=9 note=44 velocity=0 time=0.0024038020833333333
EXTRACT: note_off channel=12 note=62 velocity=0 time=0.0024038020833333333
EXTRACT: note_off channel=14 note=46 velocity=0 time=0.00721140625
EXTRACT: note_off channel=12 note=58 velocity=0 time=0.016826614583333333
EXTRACT: note_off channel=12 note=53 velocity=0 time=0
EXTRACT: note_off channel=3 note=70 velocity=0 time=0.0012019010416666667
EXTRACT: note_off channel=4 note=82 velocity=0 time=0
EXTRACT: note_on channel=14 note=58 velocity=83 time=0.003605703125
EXTRACT: note_off channel=9 note=46 velocity=0 time=0.0432684375
EXTRACT: note_off channel=1 note=31 velocity=0 time=0.02163421875
EXTRACT: note_off channel=14 note=58 velocity=0 time=0.036057031249999996
EXTRACT: note_on channel=9 note=36 velocity=125 time=0.0144228125
EXTRACT: note_on channel=9 note=44 velocity=111 time=0
EXTRACT: note_on channel=1 note=34 velocity=82 time=0
EXTRACT: note_on channel=14 note=46 velocity=87 time=0
EXTRACT: note_off channel=14 note=46 velocity=0 time=0.09374828125
EXTRACT: note_on channel=14 note=58 velocity=84 time=0.02163421875
EXTRACT: note_off channel=14 note=58 velocity=0 time=0.10576729166666667
EXTRACT: note_on channel=9 note=46 velocity=75 time=0.009615208333333333
EXTRACT: note_on channel=3 note=67 velocity=97 time=0
EXTRACT: note_on channel=4 note=79 velocity=87 time=0
EXTRACT: note_on channel=5 note=62 velocity=82 time=0
EXTRACT: note_on channel=5 note=65 velocity=91 time=0
EXTRACT: note_on channel=6 note=62 velocity=86 time=0
EXTRACT: note_on channel=6 note=65 velocity=95 time=0
EXTRACT: note_on channel=12 note=53 velocity=82 time=0
EXTRACT: note_on channel=12 note=58 velocity=82 time=0
EXTRACT: note_on channel=12 note=62 velocity=73 time=0
EXTRACT: note_on channel=14 note=46 velocity=86 time=0
EXTRACT: note_off channel=9 note=44 velocity=0 time=0.026441822916666666
EXTRACT: note_off channel=9 note=40 velocity=0 time=0.031249427083333333
EXTRACT: note_off channel=9 note=39 velocity=0 time=0
EXTRACT: note_off channel=5 note=65 velocity=0 time=0.024038020833333333
EXTRACT: note_off channel=5 note=62 velocity=0 time=0
EXTRACT: note_off channel=6 note=65 velocity=0 time=0
EXTRACT: note_off channel=6 note=62 velocity=0 time=0
EXTRACT: note_off channel=14 note=46 velocity=0 time=0.0024038020833333333
EXTRACT: note_off channel=12 note=58 velocity=0 time=0.012019010416666667
EXTRACT: note_off channel=12 note=62 velocity=0 time=0.0024038020833333333
EXTRACT: note_off channel=3 note=68 velocity=0 time=0.0012019010416666667
EXTRACT: note_off channel=4 note=80 velocity=0 time=0
EXTRACT: note_off channel=12 note=53 velocity=0 time=0.006009505208333333
EXTRACT: note_off channel=9 note=36 velocity=0 time=0.00721140625
EXTRACT: note_on channel=14 note=58 velocity=84 time=0.0024038020833333333
EXTRACT: note_off channel=14 note=58 velocity=0 time=0.10576729166666667
EXTRACT: note_off channel=1 note=34 velocity=0 time=0.004807604166666667
EXTRACT: note_on channel=9 note=36 velocity=122 time=0.004807604166666667
EXTRACT: note_on channel=9 note=39 velocity=80 time=0
EXTRACT: note_on channel=9 note=40 velocity=78 time=0
EXTRACT: note_on channel=9 note=44 velocity=92 time=0
EXTRACT: note_on channel=1 note=29 velocity=76 time=0
EXTRACT: note_on channel=14 note=46 velocity=87 time=0
EXTRACT: note_off channel=14 note=46 velocity=0 time=0.09855588541666667
EXTRACT: note_off channel=9 note=46 velocity=0 time=0.0144228125
EXTRACT: note_on channel=14 note=58 velocity=84 time=0.0024038020833333333
EXTRACT: note_off channel=14 note=58 velocity=0 time=0.09374828125
EXTRACT: note_off channel=1 note=29 velocity=0 time=0.016826614583333333
EXTRACT: note_on channel=9 note=46 velocity=63 time=0.004807604166666667
EXTRACT: note_on channel=1 note=27 velocity=91 time=0
EXTRACT: note_on channel=3 note=65 velocity=97 time=0
EXTRACT: note_on channel=4 note=77 velocity=87 time=0
EXTRACT: note_on channel=5 note=63 velocity=91 time=0
EXTRACT: note_on channel=5 note=67 velocity=82 time=0
EXTRACT: note_on channel=6 note=63 velocity=95 time=0
EXTRACT: note_on channel=6 note=67 velocity=86 time=0
EXTRACT: note_on channel=12 note=53 velocity=88 time=0
EXTRACT: note_on channel=12 note=58 velocity=78 time=0
EXTRACT: note_on channel=12 note=63 velocity=74 time=0
EXTRACT: note_on channel=14 note=46 velocity=86 time=0
EXTRACT: note_off channel=9 note=44 velocity=0 time=0.036057031249999996
EXTRACT: note_off channel=14 note=46 velocity=0 time=0.05288364583333333
EXTRACT: note_off channel=5 note=63 velocity=0 time=0.00721140625
EXTRACT: note_off channel=6 note=63 velocity=0 time=0
EXTRACT: note_off channel=3 note=67 velocity=0 time=0.0012019010416666667
EXTRACT: note_off channel=4 note=79 velocity=0 time=0
EXTRACT: note_off channel=5 note=67 velocity=0 time=0.010817109375
EXTRACT: note_off channel=6 note=67 velocity=0 time=0
EXTRACT: note_off channel=12 note=58 velocity=0 time=0.0024038020833333333
EXTRACT: note_off channel=9 note=36 velocity=0 time=0.004807604166666667
EXTRACT: note_on channel=14 note=58 velocity=84 time=0
EXTRACT: note_off channel=12 note=63 velocity=0 time=0.00721140625
EXTRACT: note_off channel=12 note=53 velocity=0 time=0
EXTRACT: note_off channel=14 note=58 velocity=0 time=0.08894067708333334
EXTRACT: note_on channel=9 note=36 velocity=125 time=0.019230416666666666
EXTRACT: note_on channel=9 note=44 velocity=85 time=0
EXTRACT: note_on channel=14 note=46 velocity=87 time=0
EXTRACT: note_off channel=9 note=46 velocity=0 time=0.07692166666666667
EXTRACT: note_off channel=14 note=46 velocity=0 time=0.012019010416666667
EXTRACT: note_off channel=1 note=27 velocity=0 time=0.019230416666666666
EXTRACT: note_on channel=14 note=58 velocity=83 time=0.00721140625
EXTRACT: note_off channel=14 note=58 velocity=0 time=0.10336348958333333
EXTRACT: note_on channel=9 note=36 velocity=120 time=0.012019010416666667
EXTRACT: note_on channel=9 note=46 velocity=71 time=0
EXTRACT: note_on channel=1 note=27 velocity=95 time=0
EXTRACT: note_on channel=5 note=63 velocity=88 time=0
EXTRACT: note_on channel=5 note=68 velocity=88 time=0
EXTRACT: note_on channel=6 note=63 velocity=92 time=0
EXTRACT: note_on channel=6 note=68 velocity=92 time=0
EXTRACT: note_on channel=12 note=53 velocity=85 time=0
EXTRACT: note_on channel=12 note=58 velocity=88 time=0
EXTRACT: note_on channel=12 note=63 velocity=88 time=0
EXTRACT: note_on channel=14 note=46 velocity=86 time=0
EXTRACT: note_off channel=9 note=40 velocity=0 time=0.05288364583333333
EXTRACT: note_off channel=9 note=39 velocity=0 time=0.0024038020833333333
EXTRACT: note_off channel=9 note=36 velocity=64 time=0.0024038020833333333
EXTRACT: note_off channel=9 note=36 velocity=0 time=0.028845625
EXTRACT: note_off channel=9 note=44 velocity=0 time=0.0024038020833333333
EXTRACT: note_off channel=14 note=46 velocity=0 time=0.004807604166666667
EXTRACT: note_on channel=14 note=58 velocity=84 time=0.02163421875
EXTRACT: note_off channel=14 note=58 velocity=0 time=0.1009596875
EXTRACT: note_on channel=9 note=36 velocity=122 time=0.0144228125
EXTRACT: note_on channel=9 note=39 velocity=86 time=0
EXTRACT: note_on channel=9 note=40 velocity=86 time=0
EXTRACT: note_on channel=9 note=44 velocity=101 time=0
EXTRACT: note_on channel=14 note=46 velocity=87 time=0
EXTRACT: note_off channel=14 note=46 velocity=0 time=0.09134447916666666
EXTRACT: note_off channel=9 note=46 velocity=0 time=0.012019010416666667
EXTRACT: note_on channel=14 note=58 velocity=84 time=0.012019010416666667
EXTRACT: note_off channel=12 note=58 velocity=0 time=0.0144228125
EXTRACT: note_off channel=9 note=36 velocity=0 time=0.0024038020833333333
EXTRACT: note_off channel=12 note=63 velocity=0 time=0.00721140625
EXTRACT: note_off channel=12 note=53 velocity=0 time=0
EXTRACT: note_off channel=3 note=65 velocity=0 time=0.009615208333333333
EXTRACT: note_off channel=4 note=77 velocity=0 time=0
EXTRACT: note_off channel=5 note=63 velocity=0 time=0.048076041666666666
EXTRACT: note_off channel=6 note=63 velocity=0 time=0
EXTRACT: note_off channel=5 note=68 velocity=0 time=0.0144228125
EXTRACT: note_off channel=6 note=68 velocity=0 time=0
EXTRACT: note_off channel=14 note=58 velocity=0 time=0
EXTRACT: note_on channel=9 note=36 velocity=122 time=0.019230416666666666
EXTRACT: note_on channel=9 note=46 velocity=70 time=0
EXTRACT: note_on channel=1 note=31 velocity=85 time=0
EXTRACT: note_on channel=12 note=53 velocity=78 time=0
EXTRACT: note_on channel=12 note=58 velocity=80 time=0
EXTRACT: note_on channel=12 note=63 velocity=82 time=0
EXTRACT: note_on channel=14 note=46 velocity=86 time=0
EXTRACT: note_off channel=1 note=27 velocity=0 time=0.00721140625
EXTRACT: note_off channel=9 note=39 velocity=0 time=0.05047984375
EXTRACT: note_off channel=9 note=40 velocity=0 time=0.004807604166666667
EXTRACT: note_off channel=9 note=44 velocity=0 time=0.02163421875
EXTRACT: note_off channel=12 note=58 velocity=0 time=0.004807604166666667
EXTRACT: note_off channel=14 note=46 velocity=0 time=0.004807604166666667
EXTRACT: note_off channel=12 note=63 velocity=0 time=0.012019010416666667
EXTRACT: note_off channel=12 note=53 velocity=0 time=0
EXTRACT: note_on channel=14 note=58 velocity=85 time=0.009615208333333333
EXTRACT: note_off channel=9 note=36 velocity=0 time=0.02163421875
EXTRACT: note_off channel=9 note=46 velocity=0 time=0.02163421875
EXTRACT: note_off channel=1 note=31 velocity=0 time=0.031249427083333333
EXTRACT: note_off channel=14 note=58 velocity=0 time=0.019230416666666666
EXTRACT: note_on channel=9 note=36 velocity=123 time=0.02163421875
EXTRACT: note_on channel=9 note=54 velocity=95 time=0
EXTRACT: note_on channel=9 note=55 velocity=91 time=0
EXTRACT: note_on channel=9 note=57 velocity=95 time=0
EXTRACT: note_on channel=1 note=34 velocity=82 time=0
EXTRACT: note_on channel=6 note=58 velocity=119 time=0
EXTRACT: note_on channel=6 note=65 velocity=116 time=0
EXTRACT: note_on channel=14 note=46 velocity=89 time=0
EXTRACT: note_off channel=14 note=46 velocity=0 time=0.086536875
EXTRACT: note_off channel=9 note=54 velocity=0 time=0.02163421875
EXTRACT: note_on channel=14 note=58 velocity=85 time=0.00721140625
EXTRACT: note_off channel=9 note=36 velocity=0 time=0.07692166666666667
EXTRACT: note_off channel=14 note=58 velocity=0 time=0.036057031249999996
EXTRACT: note_on channel=9 note=38 velocity=87 time=0.0024038020833333333
EXTRACT: note_on channel=9 note=54 velocity=63 time=0
EXTRACT: note_on channel=14 note=46 velocity=87 time=0
EXTRACT: note_off channel=9 note=38 velocity=0 time=0.0024038020833333333
EXTRACT: note_off channel=14 note=46 velocity=0 time=0.06971026041666667
EXTRACT: note_on channel=14 note=58 velocity=84 time=0.0432684375
EXTRACT: note_off channel=9 note=54 velocity=0 time=0.0024038020833333333
EXTRACT: note_on channel=9 note=38 velocity=78 time=0.016826614583333333
EXTRACT: note_off channel=6 note=58 velocity=0 time=0.016826614583333333
EXTRACT: note_off channel=6 note=65 velocity=0 time=0.024038020833333333
EXTRACT: note_off channel=14 note=58 velocity=0 time=0.024038020833333333
EXTRACT: note_off channel=9 note=38 velocity=0 time=0.026441822916666666
EXTRACT: note_on channel=9 note=36 velocity=116 time=0.004807604166666667
EXTRACT: note_on channel=9 note=54 velocity=78 time=0
EXTRACT: note_on channel=6 note=63 velocity=100 time=0
EXTRACT: note_on channel=6 note=67 velocity=100 time=0
EXTRACT: note_on channel=14 note=46 velocity=87 time=0
EXTRACT: note_off channel=9 note=55 velocity=0 time=0.08172927083333334
EXTRACT: note_off channel=9 note=57 velocity=0 time=0.004807604166666667
EXTRACT: note_off channel=14 note=46 velocity=0 time=0
EXTRACT: note_on channel=14 note=58 velocity=84 time=0.028845625
EXTRACT: note_off channel=9 note=54 velocity=0 time=0.0024038020833333333
EXTRACT: note_off channel=6 note=67 velocity=0 time=0.060095052083333336
EXTRACT: note_off channel=9 note=36 velocity=0 time=0.02163421875
EXTRACT: note_off channel=14 note=58 velocity=0 time=0.0024038020833333333
EXTRACT: note_off channel=1 note=34 velocity=0 time=0.02163421875
EXTRACT: note_on channel=9 note=38 velocity=94 time=0.00721140625
EXTRACT: note_on channel=9 note=54 velocity=68 time=0
EXTRACT: note_on channel=1 note=26 velocity=80 time=0
EXTRACT: note_on channel=6 note=58 velocity=92 time=0
EXTRACT: note_on channel=6 note=65 velocity=90 time=0
EXTRACT: note_on channel=14 note=46 velocity=85 time=0
EXTRACT: note_off channel=6 note=63 velocity=0 time=0.05047984375
EXTRACT: note_off channel=6 note=58 velocity=0 time=0.028845625
EXTRACT: note_off channel=9 note=38 velocity=0 time=0.004807604166666667
EXTRACT: note_off channel=14 note=46 velocity=0 time=0.0024038020833333333
EXTRACT: note_off channel=9 note=54 velocity=0 time=0.028845625
EXTRACT: note_on channel=14 note=58 velocity=84 time=0
EXTRACT: note_off channel=1 note=26 velocity=0 time=0.016826614583333333
EXTRACT: note_on channel=9 note=36 velocity=116 time=0.0024038020833333333
EXTRACT: note_off channel=6 note=65 velocity=0 time=0.016826614583333333
EXTRACT: note_off channel=14 note=58 velocity=0 time=0.048076041666666666
EXTRACT: note_on channel=9 note=54 velocity=80 time=0.031249427083333333
EXTRACT: note_on channel=1 note=27 velocity=82 time=0
EXTRACT: note_on channel=6 note=63 velocity=103 time=0
EXTRACT: note_on channel=6 note=67 velocity=97 time=0
EXTRACT: note_on channel=14 note=46 velocity=86 time=0
EXTRACT: note_off channel=9 note=36 velocity=0 time=0.05528744791666666
EXTRACT: note_off channel=14 note=46 velocity=0 time=0.036057031249999996
EXTRACT: note_off channel=6 note=63 velocity=0 time=0.00721140625
EXTRACT: note_off channel=6 note=67 velocity=0 time=0.009615208333333333
EXTRACT: note_on channel=14 note=58 velocity=84 time=0.00721140625
EXTRACT: note_off channel=9 note=54 velocity=0 time=0.0024038020833333333
EXTRACT: note_off channel=1 note=27 velocity=0 time=0.00721140625
EXTRACT: note_on channel=9 note=38 velocity=94 time=0.009615208333333333
EXTRACT: note_off channel=14 note=58 velocity=0 time=0.07211406249999999
EXTRACT: note_off channel=9 note=38 velocity=0 time=0.009615208333333333
EXTRACT: note_on channel=9 note=36 velocity=116 time=0.0144228125
EXTRACT: note_on channel=9 note=54 velocity=68 time=0
EXTRACT: note_on channel=1 note=27 velocity=88 time=0
EXTRACT: note_on channel=6 note=63 velocity=116 time=0
EXTRACT: note_on channel=6 note=68 velocity=116 time=0
EXTRACT: note_on channel=14 note=46 velocity=85 time=0
EXTRACT: note_off channel=14 note=46 velocity=0 time=0.09134447916666666
EXTRACT: note_off channel=9 note=54 velocity=0 time=0.016826614583333333
EXTRACT: note_on channel=14 note=58 velocity=84 time=0.00721140625
EXTRACT: note_off channel=14 note=58 velocity=0 time=0.09374828125
EXTRACT: note_on channel=9 note=38 velocity=100 time=0.02163421875
EXTRACT: note_on channel=9 note=54 velocity=91 time=0
EXTRACT: note_on channel=14 note=46 velocity=87 time=0
EXTRACT: note_off channel=9 note=36 velocity=0 time=0.031249427083333333
EXTRACT: note_off channel=14 note=46 velocity=0 time=0.06490265625
EXTRACT: note_off channel=9 note=38 velocity=0 time=0.0024038020833333333
EXTRACT: note_on channel=14 note=58 velocity=84 time=0.016826614583333333
EXTRACT: note_off channel=9 note=54 velocity=0 time=0.004807604166666667
EXTRACT: note_off channel=14 note=58 velocity=0 time=0.09615208333333333
EXTRACT: note_on channel=9 note=38 velocity=105 time=0.0144228125
EXTRACT: note_on channel=9 note=54 velocity=80 time=0
EXTRACT: note_on channel=14 note=46 velocity=87 time=0
EXTRACT: note_off channel=9 note=38 velocity=0 time=0.07932546875
EXTRACT: note_off channel=14 note=46 velocity=0 time=0.0144228125
EXTRACT: note_on channel=14 note=58 velocity=83 time=0.02163421875
EXTRACT: note_off channel=9 note=54 velocity=0 time=0.0024038020833333333
EXTRACT: note_off channel=6 note=63 velocity=0 time=0.0144228125
EXTRACT: note_on channel=9 note=38 velocity=87 time=0.0024038020833333333
EXTRACT: note_off channel=1 note=27 velocity=0 time=0
EXTRACT: note_off channel=6 note=68 velocity=0 time=0
EXTRACT: note_off channel=14 note=58 velocity=0 time=0.08172927083333334
EXTRACT: note_off channel=9 note=38 velocity=0 time=0.004807604166666667
EXTRACT: note_on channel=9 note=36 velocity=123 time=0.009615208333333333
EXTRACT: note_on channel=9 note=54 velocity=95 time=0
EXTRACT: note_on channel=1 note=34 velocity=82 time=0
EXTRACT: note_on channel=6 note=58 velocity=116 time=0
EXTRACT: note_on channel=6 note=65 velocity=110 time=0
EXTRACT: note_on channel=8 note=58 velocity=104 time=0
EXTRACT: note_on channel=8 note=65 velocity=85 time=0
EXTRACT: note_on channel=8 note=70 velocity=91 time=0
EXTRACT: note_on channel=11 note=58 velocity=109 time=0
EXTRACT: note_on channel=11 note=65 velocity=95 time=0
EXTRACT: note_on channel=14 note=46 velocity=87 time=0
EXTRACT: note_off channel=9 note=36 velocity=0 time=0.07451786458333333
EXTRACT: note_off channel=14 note=46 velocity=0 time=0.019230416666666666
EXTRACT: note_on channel=14 note=58 velocity=84 time=0.02163421875
EXTRACT: note_off channel=9 note=54 velocity=0 time=0.004807604166666667
EXTRACT: note_off channel=14 note=58 velocity=0 time=0.1009596875
EXTRACT: note_on channel=9 note=38 velocity=87 time=0.009615208333333333
EXTRACT: note_on channel=9 note=54 velocity=78 time=0
EXTRACT: note_on channel=14 note=46 velocity=86 time=0
EXTRACT: note_off channel=9 note=38 velocity=0 time=0.0024038020833333333
EXTRACT: note_off channel=14 note=46 velocity=0 time=0.08172927083333334
EXTRACT: note_on channel=14 note=58 velocity=84 time=0.031249427083333333
EXTRACT: note_off channel=9 note=54 velocity=0 time=0.0024038020833333333
EXTRACT: note_on channel=9 note=38 velocity=78 time=0.016826614583333333
EXTRACT: note_off channel=6 note=58 velocity=0 time=0.016826614583333333
EXTRACT: note_off channel=6 note=65 velocity=0 time=0.00721140625
EXTRACT: note_off channel=14 note=58 velocity=0 time=0.062498854166666666
EXTRACT: note_off channel=9 note=38 velocity=0 time=0.004807604166666667
EXTRACT: note_on channel=9 note=36 velocity=116 time=0.004807604166666667
EXTRACT: note_on channel=9 note=54 velocity=91 time=0
EXTRACT: note_on channel=6 note=63 velocity=103 time=0
EXTRACT: note_on channel=6 note=67 velocity=103 time=0
EXTRACT: note_on channel=14 note=46 velocity=87 time=0
EXTRACT: note_off channel=14 note=46 velocity=0 time=0.09855588541666667
EXTRACT: note_on channel=14 note=58 velocity=84 time=0.016826614583333333
EXTRACT: note_off channel=9 note=54 velocity=0 time=0.019230416666666666
EXTRACT: note_off channel=6 note=67 velocity=0 time=0.03846083333333333
EXTRACT: note_off channel=9 note=36 velocity=0 time=0.026441822916666666
EXTRACT: note_off channel=14 note=58 velocity=0 time=0.009615208333333333
EXTRACT: note_off channel=1 note=34 velocity=0 time=0.00721140625
EXTRACT: note_on channel=9 note=38 velocity=94 time=0.0144228125
EXTRACT: note_on channel=9 note=54 velocity=73 time=0
EXTRACT: note_on channel=1 note=26 velocity=78 time=0
EXTRACT: note_on channel=6 note=58 velocity=94 time=0
EXTRACT: note_on channel=6 note=65 velocity=88 time=0
EXTRACT: note_on channel=14 note=46 velocity=86 time=0
EXTRACT: note_off channel=6 note=63 velocity=0 time=0.036057031249999996
EXTRACT: note_off channel=6 note=58 velocity=0 time=0.04086463541666667
EXTRACT: note_off channel=9 note=38 velocity=0 time=0.00721140625
EXTRACT: note_off channel=14 note=46 velocity=0 time=0.004807604166666667
EXTRACT: note_on channel=14 note=58 velocity=84 time=0.026441822916666666
EXTRACT: note_off channel=6 note=65 velocity=0 time=0.0024038020833333333
EXTRACT: note_off channel=9 note=54 velocity=0 time=0.0024038020833333333
EXTRACT: note_off channel=1 note=26 velocity=0 time=0
EXTRACT: note_on channel=9 note=36 velocity=116 time=0.0144228125
EXTRACT: note_off channel=14 note=58 velocity=0 time=0.07692166666666667
EXTRACT: note_on channel=9 note=54 velocity=95 time=0.019230416666666666
EXTRACT: note_on channel=1 note=27 velocity=88 time=0
EXTRACT: note_on channel=6 note=63 velocity=107 time=0
EXTRACT: note_on channel=6 note=67 velocity=107 time=0
EXTRACT: note_on channel=13 note=68 velocity=91 time=0
EXTRACT: note_on channel=14 note=46 velocity=87 time=0
EXTRACT: note_off channel=9 note=36 velocity=0 time=0.05528744791666666
EXTRACT: note_off channel=14 note=46 velocity=0 time=0.033653229166666666
EXTRACT: note_off channel=6 note=67 velocity=0 time=0.0144228125
EXTRACT: note_off channel=1 note=27 velocity=0 time=0.004807604166666667
EXTRACT: note_on channel=14 note=58 velocity=83 time=0.00721140625
EXTRACT: note_off channel=6 note=63 velocity=0 time=0.0024038020833333333
EXTRACT: note_off channel=9 note=54 velocity=0 time=0.009615208333333333
EXTRACT: note_on channel=9 note=38 velocity=94 time=0.00721140625
EXTRACT: note_off channel=9 note=38 velocity=0 time=0.08172927083333334
EXTRACT: note_off channel=14 note=58 velocity=0 time=0.0024038020833333333
EXTRACT: note_on channel=9 note=36 velocity=116 time=0.012019010416666667
EXTRACT: note_on channel=9 note=54 velocity=78 time=0
EXTRACT: note_on channel=1 note=27 velocity=91 time=0
EXTRACT: note_on channel=6 note=63 velocity=107 time=0
EXTRACT: note_on channel=6 note=68 velocity=119 time=0
EXTRACT: note_on channel=14 note=46 velocity=86 time=0
EXTRACT: note_off channel=14 note=46 velocity=0 time=0.09374828125
EXTRACT: note_on channel=14 note=58 velocity=84 time=0.02163421875
EXTRACT: note_off channel=9 note=54 velocity=0 time=0.00721140625
EXTRACT: note_off channel=14 note=58 velocity=0 time=0.09374828125
EXTRACT: note_on channel=9 note=38 velocity=100 time=0.0144228125
EXTRACT: note_on channel=9 note=54 velocity=91 time=0
EXTRACT: note_on channel=14 note=46 velocity=87 time=0
EXTRACT: note_off channel=9 note=36 velocity=0 time=0.031249427083333333
EXTRACT: note_off channel=14 note=46 velocity=0 time=0.060095052083333336
EXTRACT: note_off channel=9 note=38 velocity=0 time=0.00721140625
EXTRACT: note_on channel=14 note=58 velocity=84 time=0.016826614583333333
EXTRACT: note_off channel=9 note=54 velocity=0 time=0.004807604166666667
EXTRACT: note_off channel=6 note=63 velocity=0 time=0.00721140625
EXTRACT: note_off channel=6 note=68 velocity=0 time=0.016826614583333333
EXTRACT: note_off channel=14 note=58 velocity=0 time=0.06730645833333333
EXTRACT: note_off channel=8 note=70 velocity=0 time=0.016826614583333333
EXTRACT: note_on channel=9 note=38 velocity=105 time=0.0024038020833333333
EXTRACT: note_on channel=9 note=54 velocity=82 time=0
EXTRACT: note_on channel=6 note=63 velocity=107 time=0
EXTRACT: note_on channel=6 note=67 velocity=110 time=0
EXTRACT: note_on channel=14 note=46 velocity=86 time=0
EXTRACT: note_off channel=8 note=65 velocity=0 time=0.031249427083333333
EXTRACT: note_off channel=9 note=38 velocity=0 time=0.048076041666666666
EXTRACT: note_off channel=14 note=46 velocity=0 time=0.0144228125
EXTRACT: note_on channel=14 note=58 velocity=85 time=0.02163421875
EXTRACT: note_off channel=9 note=54 velocity=0 time=0.0024038020833333333
EXTRACT: note_off channel=1 note=27 velocity=0 time=0.0024038020833333333
EXTRACT: note_on channel=9 note=38 velocity=87 time=0.0144228125
EXTRACT: note_off channel=6 note=67 velocity=0 time=0.00721140625
EXTRACT: note_off channel=6 note=63 velocity=0 time=0.00721140625
EXTRACT: note_off channel=8 note=58 velocity=0 time=0.048076041666666666
EXTRACT: note_off channel=14 note=58 velocity=0 time=0.012019010416666667
EXTRACT: note_off channel=9 note=38 velocity=0 time=0.012019010416666667
EXTRACT: note_on channel=9 note=36 velocity=123 time=0.009615208333333333
EXTRACT: note_on channel=9 note=54 velocity=109 time=0
EXTRACT: note_on channel=1 note=34 velocity=88 time=0
EXTRACT: note_on channel=6 note=58 velocity=119 time=0
EXTRACT: note_on channel=6 note=65 velocity=116 time=0
EXTRACT: note_on channel=8 note=65 velocity=109 time=0
EXTRACT: note_on channel=8 note=70 velocity=95 time=0
EXTRACT: note_on channel=8 note=77 velocity=85 time=0
EXTRACT: note_on channel=11 note=70 velocity=109 time=0
EXTRACT: note_on channel=14 note=46 velocity=89 time=0
EXTRACT: note_off channel=14 note=46 velocity=0 time=0.086536875
EXTRACT: note_on channel=14 note=58 velocity=85 time=0.028845625
EXTRACT: note_off channel=9 note=54 velocity=0 time=0.016826614583333333
EXTRACT: note_off channel=9 note=36 velocity=0 time=0.060095052083333336
EXTRACT: note_off channel=14 note=58 velocity=0 time=0.036057031249999996
EXTRACT: note_on channel=9 note=38 velocity=87 time=0.0024038020833333333
EXTRACT: note_on channel=9 note=54 velocity=73 time=0
EXTRACT: note_on channel=14 note=46 velocity=87 time=0
EXTRACT: note_off channel=9 note=38 velocity=0 time=0.0024038020833333333
EXTRACT: note_off channel=14 note=46 velocity=0 time=0.06971026041666667
EXTRACT: note_off channel=9 note=54 velocity=0 time=0.04086463541666667
EXTRACT: note_on channel=14 note=58 velocity=84 time=0.0024038020833333333
EXTRACT: note_on channel=9 note=38 velocity=78 time=0.019230416666666666
EXTRACT: note_off channel=6 note=58 velocity=0 time=0.016826614583333333
EXTRACT: note_off channel=6 note=65 velocity=0 time=0.024038020833333333
EXTRACT: note_off channel=14 note=58 velocity=0 time=0.024038020833333333
EXTRACT: note_off channel=9 note=38 velocity=0 time=0.026441822916666666
EXTRACT: note_on channel=9 note=36 velocity=116 time=0.004807604166666667
EXTRACT: note_on channel=9 note=54 velocity=95 time=0
EXTRACT: note_on channel=6 note=63 velocity=100 time=0
EXTRACT: note_on channel=6 note=67 velocity=100 time=0
EXTRACT: note_on channel=11 note=77 velocity=95 time=0
EXTRACT: note_on channel=14 note=46 velocity=87 time=0
EXTRACT: note_off channel=14 note=46 velocity=0 time=0.086536875
EXTRACT: note_on channel=14 note=58 velocity=84 time=0.028845625
EXTRACT: note_off channel=9 note=54 velocity=0 time=0.019230416666666666
EXTRACT: note_off channel=6 note=67 velocity=0 time=0.0432684375
EXTRACT: note_off channel=9 note=36 velocity=0 time=0.02163421875
EXTRACT: note_off channel=14 note=58 velocity=0 time=0.0024038020833333333
EXTRACT: note_on channel=9 note=38 velocity=94 time=0.028845625
EXTRACT: note_on channel=9 note=54 velocity=74 time=0
EXTRACT: note_on channel=1 note=26 velocity=82 time=0
EXTRACT: note_on channel=6 note=58 velocity=92 time=0
EXTRACT: note_on channel=6 note=65 velocity=90 time=0
EXTRACT: note_on channel=14 note=46 velocity=85 time=0
EXTRACT: note_off channel=1 note=34 velocity=0 time=0.028845625
EXTRACT: note_off channel=6 note=63 velocity=0 time=0.02163421875
EXTRACT: note_off channel=6 note=58 velocity=0 time=0.028845625
EXTRACT: note_off channel=9 note=38 velocity=0 time=0.004807604166666667
EXTRACT: note_off channel=14 note=46 velocity=0 time=0.0024038020833333333
EXTRACT: note_off channel=9 note=54 velocity=0 time=0.028845625
EXTRACT: note_on channel=14 note=58 velocity=84 time=0
EXTRACT: note_off channel=1 note=26 velocity=0 time=0.0024038020833333333
EXTRACT: note_on channel=9 note=36 velocity=116 time=0.016826614583333333
EXTRACT: note_off channel=6 note=65 velocity=0 time=0.016826614583333333
EXTRACT: note_off channel=14 note=58 velocity=0 time=0.048076041666666666
EXTRACT: note_on channel=9 note=54 velocity=104 time=0.031249427083333333
EXTRACT: note_on channel=1 note=27 velocity=91 time=0
EXTRACT: note_on channel=6 note=63 velocity=103 time=0
EXTRACT: note_on channel=6 note=67 velocity=97 time=0
EXTRACT: note_on channel=14 note=46 velocity=86 time=0
EXTRACT: note_off channel=9 note=36 velocity=0 time=0.05528744791666666
EXTRACT: note_off channel=14 note=46 velocity=0 time=0.036057031249999996
EXTRACT: note_off channel=6 note=63 velocity=0 time=0.00721140625
EXTRACT: note_off channel=6 note=67 velocity=0 time=0.009615208333333333
EXTRACT: note_off channel=1 note=27 velocity=0 time=0.00721140625
EXTRACT: note_on channel=14 note=58 velocity=84 time=0
EXTRACT: note_off channel=9 note=54 velocity=0 time=0.016826614583333333
EXTRACT: note_on channel=9 note=38 velocity=94 time=0.0024038020833333333
EXTRACT: note_off channel=14 note=58 velocity=0 time=0.07211406249999999
EXTRACT: note_off channel=9 note=38 velocity=0 time=0.009615208333333333
EXTRACT: note_on channel=9 note=36 velocity=116 time=0.0144228125
EXTRACT: note_on channel=9 note=54 velocity=80 time=0
EXTRACT: note_on channel=1 note=27 velocity=91 time=0
EXTRACT: note_on channel=6 note=63 velocity=116 time=0
EXTRACT: note_on channel=6 note=68 velocity=116 time=0
EXTRACT: note_on channel=14 note=46 velocity=85 time=0
EXTRACT: note_off channel=14 note=46 velocity=0 time=0.09134447916666666
EXTRACT: note_off channel=9 note=54 velocity=0 time=0.019230416666666666
EXTRACT: note_on channel=14 note=58 velocity=84 time=0.004807604166666667
EXTRACT: note_off channel=14 note=58 velocity=0 time=0.09374828125
EXTRACT: note_on channel=9 note=38 velocity=100 time=0.02163421875
EXTRACT: note_on channel=9 note=54 velocity=109 time=0
EXTRACT: note_on channel=14 note=46 velocity=87 time=0
EXTRACT: note_off channel=9 note=36 velocity=0 time=0.031249427083333333
EXTRACT: note_off channel=11 note=58 velocity=0 time=0.012019010416666667
EXTRACT: note_off channel=11 note=65 velocity=0 time=0.03846083333333333
EXTRACT: note_off channel=14 note=46 velocity=0 time=0.0144228125
EXTRACT: note_off channel=9 note=38 velocity=0 time=0.0024038020833333333
EXTRACT: note_on channel=14 note=58 velocity=84 time=0.016826614583333333
EXTRACT: note_off channel=9 note=54 velocity=0 time=0.00721140625
EXTRACT: note_off channel=11 note=70 velocity=0 time=0.033653229166666666
EXTRACT: note_off channel=11 note=77 velocity=0 time=0.016826614583333333
EXTRACT: note_off channel=14 note=58 velocity=0 time=0.0432684375
EXTRACT: note_on channel=9 note=38 velocity=105 time=0.0144228125
EXTRACT: note_on channel=9 note=54 velocity=91 time=0
EXTRACT: note_on channel=14 note=46 velocity=87 time=0
EXTRACT: note_off channel=8 note=70 velocity=0 time=0.060095052083333336
EXTRACT: note_off channel=9 note=38 velocity=0 time=0.019230416666666666
EXTRACT: note_off channel=8 note=77 velocity=0 time=0.0024038020833333333
EXTRACT: note_off channel=14 note=46 velocity=0 time=0.012019010416666667
EXTRACT: note_off channel=9 note=54 velocity=0 time=0.012019010416666667
EXTRACT: note_on channel=14 note=58 velocity=83 time=0.009615208333333333
EXTRACT: note_off channel=1 note=27 velocity=0 time=0.004807604166666667
EXTRACT: note_off channel=6 note=63 velocity=0 time=0.012019010416666667
EXTRACT: note_on channel=9 note=38 velocity=87 time=0.0024038020833333333
EXTRACT: note_off channel=6 note=68 velocity=0 time=0
EXTRACT: note_off channel=8 note=65 velocity=0 time=0.036057031249999996
EXTRACT: note_off channel=14 note=58 velocity=0 time=0.04567223958333333
EXTRACT: note_off channel=9 note=38 velocity=0 time=0.004807604166666667
EXTRACT: note_on channel=9 note=54 velocity=114 time=0.009615208333333333
EXTRACT: note_on channel=1 note=34 velocity=91 time=0
EXTRACT: note_on channel=6 note=58 velocity=116 time=0
EXTRACT: note_on channel=6 note=65 velocity=110 time=0
EXTRACT: note_on channel=8 note=68 velocity=114 time=0
EXTRACT: note_on channel=8 note=70 velocity=104 time=0
EXTRACT: note_on channel=8 note=75 velocity=91 time=0
EXTRACT: note_on channel=11 note=68 velocity=104 time=0
EXTRACT: note_on channel=11 note=70 velocity=95 time=0
EXTRACT: note_on channel=11 note=75 velocity=88 time=0
EXTRACT: note_on channel=14 note=46 velocity=87 time=0
EXTRACT: note_off channel=14 note=46 velocity=0 time=0.09374828125
EXTRACT: note_on channel=14 note=58 velocity=84 time=0.02163421875
EXTRACT: note_off channel=9 note=54 velocity=0 time=0.060095052083333336
EXTRACT: note_off channel=14 note=58 velocity=0 time=0.04567223958333333
EXTRACT: note_off channel=11 note=75 velocity=0 time=0.009615208333333333
EXTRACT: note_off channel=11 note=70 velocity=0 time=0
EXTRACT: note_off channel=11 note=68 velocity=0 time=0
EXTRACT: note_on channel=14 note=46 velocity=86 time=0
EXTRACT: note_off channel=8 note=70 velocity=0 time=0.026441822916666666
EXTRACT: note_off channel=8 note=68 velocity=0 time=0.016826614583333333
EXTRACT: note_off channel=8 note=75 velocity=0 time=0.0024038020833333333
EXTRACT: note_off channel=14 note=46 velocity=0 time=0.03846083333333333
EXTRACT: note_on channel=8 note=68 velocity=109 time=0.031249427083333333
EXTRACT: note_on channel=8 note=70 velocity=104 time=0
EXTRACT: note_on channel=8 note=75 velocity=95 time=0
EXTRACT: note_on channel=11 note=68 velocity=78 time=0
EXTRACT: note_on channel=11 note=70 velocity=80 time=0
EXTRACT: note_on channel=11 note=75 velocity=73 time=0
EXTRACT: note_on channel=14 note=58 velocity=84 time=0
EXTRACT: note_on channel=9 note=54 velocity=114 time=0.009615208333333333
EXTRACT: note_off channel=6 note=58 velocity=0 time=0.026441822916666666
EXTRACT: note_off channel=6 note=65 velocity=0 time=0.00721140625
EXTRACT: note_off channel=14 note=58 velocity=0 time=0.062498854166666666
EXTRACT: note_on channel=6 note=63 velocity=103 time=0.009615208333333333
EXTRACT: note_on channel=6 note=67 velocity=103 time=0
EXTRACT: note_on channel=14 note=46 velocity=87 time=0
EXTRACT: note_off channel=9 note=54 velocity=0 time=0.086536875
EXTRACT: note_off channel=14 note=46 velocity=0 time=0.012019010416666667
EXTRACT: note_off channel=8 note=70 velocity=0 time=0.0024038020833333333
EXTRACT: note_on channel=14 note=58 velocity=84 time=0.0144228125
EXTRACT: note_off channel=11 note=70 velocity=0 time=0.004807604166666667
EXTRACT: note_off channel=8 note=75 velocity=0 time=0.0024038020833333333
EXTRACT: note_off channel=8 note=68 velocity=0 time=0
EXTRACT: note_off channel=11 note=75 velocity=0 time=0.004807604166666667
EXTRACT: note_off channel=11 note=68 velocity=0 time=0.004807604166666667
EXTRACT: note_off channel=6 note=67 velocity=0 time=0.04086463541666667
EXTRACT: note_off channel=1 note=34 velocity=0 time=0.033653229166666666
EXTRACT: note_off channel=14 note=58 velocity=0 time=0.0024038020833333333
EXTRACT: note_on channel=9 note=54 velocity=114 time=0.02163421875
EXTRACT: note_on channel=1 note=26 velocity=85 time=0
EXTRACT: note_on channel=6 note=58 velocity=94 time=0
EXTRACT: note_on channel=6 note=65 velocity=88 time=0
EXTRACT: note_on channel=8 note=68 velocity=109 time=0
EXTRACT: note_on channel=8 note=70 velocity=109 time=0
EXTRACT: note_on channel=8 note=75 velocity=95 time=0
EXTRACT: note_on channel=11 note=68 velocity=88 time=0
EXTRACT: note_on channel=11 note=70 velocity=95 time=0
EXTRACT: note_on channel=11 note=75 velocity=80 time=0
EXTRACT: note_on channel=14 note=46 velocity=86 time=0
EXTRACT: note_off channel=6 note=63 velocity=0 time=0.036057031249999996
EXTRACT: note_off channel=6 note=58 velocity=0 time=0.04086463541666667
EXTRACT: note_off channel=14 note=46 velocity=0 time=0.012019010416666667
EXTRACT: note_on channel=14 note=58 velocity=84 time=0.026441822916666666
EXTRACT: note_off channel=6 note=65 velocity=0 time=0.0024038020833333333
EXTRACT: note_off channel=1 note=26 velocity=0 time=0.031249427083333333
EXTRACT: note_off channel=9 note=54 velocity=0 time=0.031249427083333333
EXTRACT: note_off channel=8 note=70 velocity=0 time=0
EXTRACT: note_off channel=11 note=70 velocity=0 time=0.0144228125
EXTRACT: note_off channel=11 note=75 velocity=0 time=0.00721140625
EXTRACT: note_off channel=14 note=58 velocity=0 time=0.009615208333333333
EXTRACT: note_off channel=11 note=68 velocity=0 time=0.009615208333333333
EXTRACT: note_on channel=9 note=54 velocity=127 time=0.009615208333333333
EXTRACT: note_on channel=1 note=27 velocity=95 time=0
EXTRACT: note_on channel=6 note=63 velocity=107 time=0
EXTRACT: note_on channel=6 note=67 velocity=107 time=0
EXTRACT: note_on channel=8 note=65 velocity=82 time=0
EXTRACT: note_on channel=8 note=70 velocity=114 time=0
EXTRACT: note_on channel=8 note=77 velocity=98 time=0
EXTRACT: note_on channel=11 note=68 velocity=91 time=0
EXTRACT: note_on channel=14 note=46 velocity=87 time=0
EXTRACT: note_off channel=8 note=75 velocity=0 time=0.00721140625
EXTRACT: note_off channel=8 note=68 velocity=0 time=0
EXTRACT: note_off channel=14 note=46 velocity=0 time=0.08172927083333334
EXTRACT: note_off channel=6 note=67 velocity=0 time=0.0144228125
EXTRACT: note_off channel=1 note=27 velocity=0 time=0.009615208333333333
EXTRACT: note_on channel=11 note=70 velocity=95 time=0.0024038020833333333
EXTRACT: note_on channel=11 note=77 velocity=85 time=0
EXTRACT: note_on channel=14 note=58 velocity=83 time=0
EXTRACT: note_off channel=6 note=63 velocity=0 time=0.0024038020833333333
EXTRACT: note_off channel=14 note=58 velocity=0 time=0.1009596875
EXTRACT: note_on channel=1 note=27 velocity=95 time=0.012019010416666667
EXTRACT: note_on channel=6 note=63 velocity=107 time=0
EXTRACT: note_on channel=6 note=68 velocity=119 time=0
EXTRACT: note_off channel=11 note=68 velocity=0 time=0
EXTRACT: note_on channel=14 note=46 velocity=86 time=0
EXTRACT: note_off channel=9 note=54 velocity=0 time=0.026441822916666666
EXTRACT: note_off channel=14 note=46 velocity=0 time=0.06730645833333333
EXTRACT: note_off channel=11 note=70 velocity=0 time=0.019230416666666666
EXTRACT: note_on channel=14 note=58 velocity=84 time=0.0024038020833333333
EXTRACT: note_off channel=11 note=77 velocity=0 time=0.009615208333333333
EXTRACT: note_off channel=14 note=58 velocity=0 time=0.09134447916666666
EXTRACT: note_on channel=11 note=68 velocity=91 time=0.0144228125
EXTRACT: note_on channel=11 note=70 velocity=80 time=0
EXTRACT: note_on channel=11 note=77 velocity=64 time=0
EXTRACT: note_on channel=14 note=46 velocity=87 time=0
EXTRACT: note_off channel=14 note=46 velocity=0 time=0.09134447916666666
EXTRACT: note_on channel=14 note=58 velocity=84 time=0.024038020833333333
EXTRACT: note_off channel=6 note=63 velocity=0 time=0.012019010416666667
EXTRACT: note_off channel=6 note=68 velocity=0 time=0.016826614583333333
EXTRACT: note_off channel=8 note=70 velocity=0 time=0.048076041666666666
EXTRACT: note_off channel=11 note=70 velocity=0 time=0.004807604166666667
EXTRACT: note_off channel=11 note=77 velocity=0 time=0.00721140625
EXTRACT: note_off channel=14 note=58 velocity=0 time=0.00721140625
EXTRACT: note_off channel=11 note=68 velocity=0 time=0.0144228125
EXTRACT: note_on channel=6 note=63 velocity=107 time=0.004807604166666667
EXTRACT: note_on channel=6 note=67 velocity=110 time=0
EXTRACT: note_on channel=11 note=68 velocity=91 time=0
EXTRACT: note_on channel=11 note=70 velocity=88 time=0
EXTRACT: note_on channel=11 note=77 velocity=66 time=0
EXTRACT: note_on channel=14 note=46 velocity=86 time=0
EXTRACT: note_off channel=8 note=77 velocity=0 time=0.0024038020833333333
EXTRACT: note_off channel=8 note=65 velocity=0 time=0.0024038020833333333
EXTRACT: note_off channel=13 note=68 velocity=0 time=0.016826614583333333
EXTRACT: note_off channel=14 note=46 velocity=0 time=0.07211406249999999
EXTRACT: note_on channel=14 note=58 velocity=85 time=0.02163421875
EXTRACT: note_off channel=1 note=27 velocity=0 time=0.009615208333333333
EXTRACT: note_off channel=6 note=67 velocity=0 time=0.016826614583333333
EXTRACT: note_off channel=11 note=70 velocity=0 time=0.004807604166666667
EXTRACT: note_off channel=6 note=63 velocity=0 time=0.0024038020833333333
EXTRACT: note_off channel=11 note=68 velocity=0 time=0.019230416666666666
EXTRACT: note_off channel=11 note=77 velocity=0 time=0.019230416666666666
EXTRACT: note_off channel=14 note=58 velocity=0 time=0.02163421875
EXTRACT: note_on channel=9 note=36 velocity=125 time=0.02163421875
EXTRACT: note_on channel=9 note=44 velocity=111 time=0
EXTRACT: note_on channel=9 note=49 velocity=80 time=0
EXTRACT: note_on channel=9 note=57 velocity=89 time=0
EXTRACT: note_on channel=1 note=34 velocity=104 time=0
EXTRACT: note_on channel=12 note=53 velocity=88 time=0
EXTRACT: note_on channel=12 note=58 velocity=78 time=0
EXTRACT: note_on channel=12 note=62 velocity=76 time=0
EXTRACT: note_off channel=9 note=49 velocity=0 time=0.07692166666666667
EXTRACT: note_off channel=9 note=57 velocity=0 time=0.012019010416666667
EXTRACT: note_off channel=12 note=58 velocity=0 time=0.00721140625
EXTRACT: note_off channel=9 note=36 velocity=0 time=0.00721140625
EXTRACT: note_off channel=12 note=62 velocity=0 time=0.009615208333333333
EXTRACT: note_off channel=12 note=53 velocity=0 time=0.009615208333333333
EXTRACT: note_on channel=9 note=46 velocity=75 time=0.10817109375
EXTRACT: note_off channel=9 note=44 velocity=0 time=0.026441822916666666
EXTRACT: note_off channel=1 note=34 velocity=0 time=0.16826614583333332
EXTRACT: note_on channel=9 note=36 velocity=107 time=0.036057031249999996
EXTRACT: note_on channel=9 note=39 velocity=78 time=0
EXTRACT: note_on channel=9 note=40 velocity=74 time=0
EXTRACT: note_on channel=9 note=44 velocity=92 time=0
EXTRACT: note_on channel=1 note=29 velocity=73 time=0
EXTRACT: note_on channel=3 note=62 velocity=97 time=0
EXTRACT: note_on channel=4 note=74 velocity=87 time=0
EXTRACT: note_on channel=12 note=53 velocity=80 time=0
EXTRACT: note_on channel=12 note=58 velocity=73 time=0
EXTRACT: note_on channel=12 note=62 velocity=73 time=0
EXTRACT: note_off channel=12 note=62 velocity=0 time=0.10336348958333333
EXTRACT: note_off channel=9 note=46 velocity=0 time=0.009615208333333333
EXTRACT: note_off channel=12 note=58 velocity=0 time=0
EXTRACT: note_off channel=3 note=62 velocity=0 time=0.0012019010416666667
EXTRACT: note_off channel=4 note=74 velocity=0 time=0
EXTRACT: note_off channel=12 note=53 velocity=0 time=0.008413307291666667
EXTRACT: note_off channel=9 note=36 velocity=0 time=0.009615208333333333
EXTRACT: note_off channel=1 note=29 velocity=0 time=0.036057031249999996
EXTRACT: note_on channel=9 note=46 velocity=63 time=0.062498854166666666
EXTRACT: note_on channel=1 note=27 velocity=88 time=0
EXTRACT: note_on channel=3 note=62 velocity=97 time=0
EXTRACT: note_on channel=4 note=74 velocity=87 time=0
EXTRACT: note_on channel=12 note=53 velocity=76 time=0
EXTRACT: note_on channel=12 note=58 velocity=74 time=0
EXTRACT: note_on channel=12 note=63 velocity=74 time=0
EXTRACT: note_off channel=9 note=44 velocity=0 time=0.036057031249999996
EXTRACT: note_off channel=12 note=53 velocity=0 time=0.07692166666666667
EXTRACT: note_off channel=3 note=62 velocity=0 time=0.003605703125
EXTRACT: note_off channel=4 note=74 velocity=0 time=0
EXTRACT: note_off channel=12 note=58 velocity=0 time=0.015624713541666667
EXTRACT: note_off channel=12 note=63 velocity=0 time=0.012019010416666667
EXTRACT: note_on channel=9 note=36 velocity=93 time=0.086536875
EXTRACT: note_on channel=9 note=44 velocity=85 time=0
EXTRACT: note_on channel=3 note=62 velocity=97 time=0
EXTRACT: note_on channel=4 note=74 velocity=87 time=0
EXTRACT: note_off channel=9 note=46 velocity=0 time=0.07692166666666667
EXTRACT: note_off channel=3 note=62 velocity=0 time=0.037258932291666665
EXTRACT: note_off channel=4 note=74 velocity=0 time=0
EXTRACT: note_off channel=1 note=27 velocity=0 time=0.06610455729166667
EXTRACT: note_on channel=9 note=46 velocity=71 time=0.05047984375
EXTRACT: note_on channel=1 note=27 velocity=95 time=0
EXTRACT: note_on channel=3 note=62 velocity=97 time=0
EXTRACT: note_on channel=4 note=74 velocity=87 time=0
EXTRACT: note_on channel=12 note=53 velocity=71 time=0
EXTRACT: note_on channel=12 note=58 velocity=78 time=0
EXTRACT: note_on channel=12 note=63 velocity=78 time=0
EXTRACT: note_off channel=9 note=36 velocity=0 time=0.028845625
EXTRACT: note_off channel=9 note=44 velocity=0 time=0.060095052083333336
EXTRACT: note_off channel=9 note=39 velocity=0 time=0.004807604166666667
EXTRACT: note_off channel=9 note=40 velocity=0 time=0.009615208333333333
EXTRACT: note_on channel=9 note=36 velocity=125 time=0.12740151041666667
EXTRACT: note_on channel=9 note=39 velocity=62 time=0
EXTRACT: note_on channel=9 note=40 velocity=66 time=0
EXTRACT: note_on channel=9 note=44 velocity=101 time=0
EXTRACT: note_off channel=9 note=46 velocity=0 time=0.10336348958333333
EXTRACT: note_off channel=12 note=53 velocity=0 time=0.004807604166666667
EXTRACT: note_off channel=12 note=58 velocity=0 time=0.0144228125
EXTRACT: note_off channel=12 note=63 velocity=0 time=0.0144228125
EXTRACT: note_off channel=3 note=62 velocity=0 time=0.031249427083333333
EXTRACT: note_off channel=4 note=74 velocity=0 time=0
EXTRACT: note_off channel=1 note=27 velocity=0 time=0.060095052083333336
EXTRACT: note_on channel=9 note=46 velocity=70 time=0.0024038020833333333
EXTRACT: note_on channel=1 note=31 velocity=62 time=0
EXTRACT: note_on channel=3 note=65 velocity=97 time=0
EXTRACT: note_on channel=4 note=77 velocity=87 time=0
EXTRACT: note_on channel=12 note=53 velocity=71 time=0
EXTRACT: note_on channel=12 note=58 velocity=73 time=0
EXTRACT: note_on channel=12 note=63 velocity=68 time=0
EXTRACT: note_off channel=9 note=44 velocity=0 time=0.08413307291666666
EXTRACT: note_off channel=9 note=36 velocity=0 time=0.0024038020833333333
EXTRACT: note_off channel=12 note=53 velocity=0 time=0.036057031249999996
EXTRACT: note_off channel=12 note=58 velocity=0 time=0.012019010416666667
EXTRACT: note_off channel=9 note=46 velocity=0 time=0.024038020833333333
EXTRACT: note_off channel=12 note=63 velocity=0 time=0.004807604166666667
EXTRACT: note_off channel=1 note=31 velocity=0 time=0.016826614583333333
EXTRACT: note_on channel=9 note=36 velocity=118 time=0.05047984375
EXTRACT: note_on channel=9 note=44 velocity=111 time=0
EXTRACT: note_on channel=1 note=34 velocity=82 time=0
EXTRACT: note_on channel=12 note=53 velocity=74 time=0
EXTRACT: note_on channel=12 note=58 velocity=73 time=0
EXTRACT: note_on channel=12 note=62 velocity=71 time=0
EXTRACT: note_off channel=12 note=58 velocity=0 time=0.09374828125
EXTRACT: note_off channel=12 note=62 velocity=0 time=0.012019010416666667
EXTRACT: note_off channel=12 note=53 velocity=0 time=0.004807604166666667
EXTRACT: note_off channel=3 note=65 velocity=0 time=0.0432684375
EXTRACT: note_off channel=4 note=77 velocity=0 time=0
EXTRACT: note_on channel=9 note=46 velocity=75 time=0.07692166666666667
EXTRACT: note_on channel=3 note=65 velocity=97 time=0
EXTRACT: note_on channel=4 note=77 velocity=87 time=0
EXTRACT: note_off channel=9 note=44 velocity=0 time=0.026441822916666666
EXTRACT: note_off channel=9 note=36 velocity=0 time=0.05047984375
EXTRACT: note_off channel=9 note=40 velocity=0 time=0.019230416666666666
EXTRACT: note_off channel=9 note=39 velocity=0 time=0.009615208333333333
EXTRACT: note_off channel=1 note=34 velocity=0 time=0.12019010416666667
EXTRACT: note_on channel=9 note=36 velocity=118 time=0.004807604166666667
EXTRACT: note_on channel=9 note=39 velocity=66 time=0
EXTRACT: note_on channel=9 note=40 velocity=74 time=0
EXTRACT: note_on channel=9 note=44 velocity=92 time=0
EXTRACT: note_on channel=1 note=29 velocity=76 time=0
EXTRACT: note_on channel=12 note=53 velocity=82 time=0
EXTRACT: note_on channel=12 note=58 velocity=78 time=0
EXTRACT: note_on channel=12 note=62 velocity=73 time=0
EXTRACT: note_off channel=9 note=46 velocity=0 time=0.11297869791666666
EXTRACT: note_off channel=12 note=62 velocity=0 time=0.036057031249999996
EXTRACT: note_off channel=12 note=58 velocity=0 time=0
EXTRACT: note_off channel=12 note=53 velocity=0 time=0
EXTRACT: note_off channel=3 note=65 velocity=0 time=0.010817109375
EXTRACT: note_off channel=4 note=77 velocity=0 time=0
EXTRACT: note_off channel=1 note=29 velocity=0 time=0.06610455729166667
EXTRACT: note_on channel=9 note=46 velocity=63 time=0.004807604166666667
EXTRACT: note_on channel=1 note=27 velocity=91 time=0
EXTRACT: note_on channel=3 note=65 velocity=97 time=0
EXTRACT: note_on channel=4 note=77 velocity=87 time=0
EXTRACT: note_on channel=12 note=53 velocity=82 time=0
EXTRACT: note_on channel=12 note=58 velocity=80 time=0
EXTRACT: note_on channel=12 note=63 velocity=80 time=0
EXTRACT: note_off channel=9 note=44 velocity=0 time=0.036057031249999996
EXTRACT: note_off channel=12 note=58 velocity=0 time=0.09855588541666667
EXTRACT: note_off channel=12 note=63 velocity=0 time=0.004807604166666667
EXTRACT: note_off channel=9 note=36 velocity=0 time=0.0024038020833333333
EXTRACT: note_off channel=12 note=53 velocity=0 time=0.00721140625
EXTRACT: note_on channel=9 note=36 velocity=125 time=0.08172927083333334
EXTRACT: note_on channel=9 note=44 velocity=85 time=0
EXTRACT: note_off channel=9 note=46 velocity=0 time=0.07692166666666667
EXTRACT: note_off channel=1 note=27 velocity=0 time=0.031249427083333333
EXTRACT: note_on channel=9 note=46 velocity=71 time=0.12259390625
EXTRACT: note_on channel=1 note=27 velocity=95 time=0
EXTRACT: note_on channel=3 note=62 velocity=97 time=0
EXTRACT: note_on channel=4 note=74 velocity=87 time=0
EXTRACT: note_on channel=12 note=53 velocity=80 time=0
EXTRACT: note_on channel=12 note=58 velocity=78 time=0
EXTRACT: note_on channel=12 note=63 velocity=80 time=0
EXTRACT: note_off channel=3 note=65 velocity=0 time=0.039662734375
EXTRACT: note_off channel=4 note=77 velocity=0 time=0
EXTRACT: note_off channel=9 note=44 velocity=0 time=0.049277942708333335
EXTRACT: note_off channel=9 note=39 velocity=0 time=0.0024038020833333333
EXTRACT: note_off channel=9 note=40 velocity=0 time=0.0024038020833333333
EXTRACT: note_off channel=9 note=36 velocity=0 time=0.019230416666666666
EXTRACT: note_on channel=9 note=36 velocity=122 time=0.11778630208333334
EXTRACT: note_on channel=9 note=39 velocity=65 time=0
EXTRACT: note_on channel=9 note=40 velocity=63 time=0
EXTRACT: note_on channel=9 note=44 velocity=101 time=0
EXTRACT: note_on channel=3 note=60 velocity=97 time=0
EXTRACT: note_on channel=4 note=72 velocity=87 time=0
EXTRACT: note_off channel=3 note=62 velocity=0 time=0.02764372395833333
EXTRACT: note_off channel=4 note=74 velocity=0 time=0
EXTRACT: note_off channel=9 note=46 velocity=0 time=0.075719765625
EXTRACT: note_off channel=3 note=60 velocity=0 time=0.028845625
EXTRACT: note_off channel=4 note=72 velocity=0 time=0
EXTRACT: note_on channel=9 note=46 velocity=70 time=0.09855588541666667
EXTRACT: note_on channel=1 note=31 velocity=85 time=0
EXTRACT: note_on channel=3 note=62 velocity=97 time=0
EXTRACT: note_on channel=4 note=74 velocity=87 time=0
EXTRACT: note_off channel=1 note=27 velocity=0 time=0.00721140625
EXTRACT: note_off channel=12 note=58 velocity=0 time=0.00721140625
EXTRACT: note_off channel=12 note=63 velocity=0 time=0.00721140625
EXTRACT: note_off channel=12 note=53 velocity=0 time=0.004807604166666667
EXTRACT: note_off channel=9 note=44 velocity=0 time=0.05769125
EXTRACT: note_off channel=9 note=36 velocity=0 time=0.033653229166666666
EXTRACT: note_off channel=9 note=46 velocity=0 time=0.04086463541666667
EXTRACT: note_off channel=1 note=31 velocity=0 time=0.031249427083333333
EXTRACT: note_on channel=9 note=36 velocity=118 time=0.04086463541666667
EXTRACT: note_on channel=9 note=44 velocity=111 time=0
EXTRACT: note_on channel=1 note=34 velocity=104 time=0
EXTRACT: note_on channel=9 note=46 velocity=75 time=0.230765
EXTRACT: note_on channel=12 note=53 velocity=85 time=0
EXTRACT: note_on channel=12 note=58 velocity=80 time=0
EXTRACT: note_on channel=12 note=62 velocity=76 time=0
EXTRACT: note_off channel=9 note=44 velocity=0 time=0.026441822916666666
EXTRACT: note_off channel=9 note=39 velocity=0 time=0.04086463541666667
EXTRACT: note_off channel=9 note=40 velocity=0 time=0.00721140625
EXTRACT: note_off channel=12 note=58 velocity=0 time=0.019230416666666666
EXTRACT: note_off channel=9 note=36 velocity=0 time=0.00721140625
EXTRACT: note_off channel=12 note=62 velocity=0 time=0
EXTRACT: note_off channel=12 note=53 velocity=0 time=0.0144228125
EXTRACT: note_off channel=1 note=34 velocity=0 time=0.07932546875
EXTRACT: note_on channel=9 note=36 velocity=118 time=0.036057031249999996
EXTRACT: note_on channel=9 note=39 velocity=62 time=0
EXTRACT: note_on channel=9 note=40 velocity=63 time=0
EXTRACT: note_on channel=9 note=44 velocity=92 time=0
EXTRACT: note_on channel=1 note=29 velocity=73 time=0
EXTRACT: note_off channel=9 note=46 velocity=0 time=0.11297869791666666
EXTRACT: note_off channel=1 note=29 velocity=0 time=0.05528744791666666
EXTRACT: note_on channel=9 note=46 velocity=63 time=0.062498854166666666
EXTRACT: note_on channel=1 note=27 velocity=88 time=0
EXTRACT: note_on channel=12 note=53 velocity=80 time=0
EXTRACT: note_on channel=12 note=58 velocity=78 time=0
EXTRACT: note_on channel=12 note=62 velocity=68 time=0
EXTRACT: note_off channel=9 note=44 velocity=0 time=0.036057031249999996
EXTRACT: note_off channel=12 note=62 velocity=0 time=0.04567223958333333
EXTRACT: note_off channel=12 note=58 velocity=0 time=0.0024038020833333333
EXTRACT: note_off channel=12 note=53 velocity=0 time=0.0144228125
EXTRACT: note_off channel=9 note=36 velocity=0 time=0.03846083333333333
EXTRACT: note_on channel=9 note=36 velocity=125 time=0.09374828125
EXTRACT: note_on channel=9 note=44 velocity=85 time=0
EXTRACT: note_on channel=3 note=60 velocity=97 time=0
EXTRACT: note_on channel=4 note=72 velocity=87 time=0
EXTRACT: note_on channel=12 note=53 velocity=85 time=0
EXTRACT: note_on channel=12 note=58 velocity=82 time=0
EXTRACT: note_on channel=12 note=63 velocity=82 time=0
EXTRACT: note_off channel=9 note=46 velocity=0 time=0.07692166666666667
EXTRACT: note_off channel=1 note=27 velocity=0 time=0.10336348958333333
EXTRACT: note_off channel=3 note=62 velocity=0 time=0.012019010416666667
EXTRACT: note_off channel=4 note=74 velocity=0 time=0
EXTRACT: note_off channel=12 note=58 velocity=0 time=0.0024038020833333333
EXTRACT: note_off channel=12 note=63 velocity=0 time=0.016826614583333333
EXTRACT: note_on channel=9 note=46 velocity=71 time=0.019230416666666666
EXTRACT: note_on channel=1 note=27 velocity=95 time=0
EXTRACT: note_on channel=3 note=58 velocity=97 time=0
EXTRACT: note_on channel=4 note=70 velocity=87 time=0
EXTRACT: note_off channel=3 note=60 velocity=0 time=0.054085546875
EXTRACT: note_off channel=4 note=72 velocity=0 time=0
EXTRACT: note_off channel=12 note=53 velocity=0 time=0.006009505208333333
EXTRACT: note_off channel=9 note=44 velocity=0 time=0.028845625
EXTRACT: note_off channel=9 note=40 velocity=0 time=0.0024038020833333333
EXTRACT: note_off channel=9 note=36 velocity=0 time=0.0024038020833333333
EXTRACT: note_off channel=9 note=39 velocity=0 time=0
EXTRACT: note_on channel=9 note=36 velocity=125 time=0.13701671875
EXTRACT: note_on channel=9 note=39 velocity=66 time=0
EXTRACT: note_on channel=9 note=40 velocity=65 time=0
EXTRACT: note_on channel=9 note=44 velocity=101 time=0
EXTRACT: note_on channel=12 note=53 velocity=82 time=0
EXTRACT: note_on channel=12 note=58 velocity=88 time=0
EXTRACT: note_on channel=12 note=63 velocity=82 time=0
EXTRACT: note_off channel=9 note=46 velocity=0 time=0.10336348958333333
EXTRACT: note_off channel=3 note=58 velocity=0 time=0.008413307291666667
EXTRACT: note_off channel=4 note=70 velocity=0 time=0
EXTRACT: note_off channel=12 note=53 velocity=0 time=0.046874140625
EXTRACT: note_off channel=12 note=58 velocity=0 time=0.04086463541666667
EXTRACT: note_off channel=12 note=63 velocity=0 time=0.016826614583333333
EXTRACT: note_off channel=1 note=27 velocity=0 time=0.012019010416666667
EXTRACT: note_on channel=9 note=46 velocity=70 time=0.0024038020833333333
EXTRACT: note_on channel=1 note=31 velocity=62 time=0
EXTRACT: note_on channel=12 note=53 velocity=82 time=0
EXTRACT: note_on channel=12 note=58 velocity=73 time=0
EXTRACT: note_on channel=12 note=62 velocity=73 time=0
EXTRACT: note_off channel=9 note=44 velocity=0 time=0.08413307291666666
EXTRACT: note_off channel=12 note=62 velocity=0 time=0.0024038020833333333
EXTRACT: note_off channel=9 note=36 velocity=0 time=0.004807604166666667
EXTRACT: note_off channel=12 note=58 velocity=0 time=0.019230416666666666
EXTRACT: note_off channel=12 note=53 velocity=0 time=0
EXTRACT: note_off channel=9 note=46 velocity=0 time=0.048076041666666666
EXTRACT: note_off channel=1 note=31 velocity=0 time=0.02163421875
EXTRACT: note_on channel=9 note=36 velocity=125 time=0.05047984375
EXTRACT: note_on channel=9 note=44 velocity=111 time=0
EXTRACT: note_on channel=1 note=34 velocity=82 time=0
EXTRACT: note_on channel=3 note=62 velocity=97 time=0
EXTRACT: note_on channel=4 note=74 velocity=87 time=0
EXTRACT: note_off channel=3 note=62 velocity=0 time=0.12860341145833334
EXTRACT: note_off channel=4 note=74 velocity=0 time=0
EXTRACT: note_on channel=9 note=46 velocity=75 time=0.10216158854166667
EXTRACT: note_on channel=3 note=62 velocity=97 time=0
EXTRACT: note_on channel=4 note=74 velocity=87 time=0
EXTRACT: note_on channel=12 note=53 velocity=82 time=0
EXTRACT: note_on channel=12 note=58 velocity=82 time=0
EXTRACT: note_on channel=12 note=62 velocity=73 time=0
EXTRACT: note_off channel=9 note=44 velocity=0 time=0.026441822916666666
EXTRACT: note_off channel=9 note=39 velocity=0 time=0.012019010416666667
EXTRACT: note_off channel=9 note=40 velocity=0 time=0.00721140625
EXTRACT: note_off channel=12 note=58 velocity=0 time=0.05047984375
EXTRACT: note_off channel=12 note=62 velocity=0 time=0.0024038020833333333
EXTRACT: note_off channel=9 note=36 velocity=0 time=0.004807604166666667
EXTRACT: note_off channel=12 note=53 velocity=0 time=0.0024038020833333333
EXTRACT: note_off channel=1 note=34 velocity=0 time=0.12019010416666667
EXTRACT: note_on channel=9 note=36 velocity=122 time=0.004807604166666667
EXTRACT: note_on channel=9 note=39 velocity=65 time=0
EXTRACT: note_on channel=9 note=40 velocity=65 time=0
EXTRACT: note_on channel=9 note=44 velocity=92 time=0
EXTRACT: note_on channel=1 note=29 velocity=76 time=0
EXTRACT: note_off channel=9 note=46 velocity=0 time=0.11297869791666666
EXTRACT: note_off channel=1 note=29 velocity=0 time=0.11297869791666666
EXTRACT: note_on channel=9 note=46 velocity=63 time=0.004807604166666667
EXTRACT: note_on channel=1 note=27 velocity=91 time=0
EXTRACT: note_on channel=3 note=60 velocity=97 time=0
EXTRACT: note_on channel=4 note=72 velocity=87 time=0
EXTRACT: note_on channel=12 note=53 velocity=88 time=0
EXTRACT: note_on channel=12 note=58 velocity=78 time=0
EXTRACT: note_on channel=12 note=63 velocity=74 time=0
EXTRACT: note_off channel=3 note=62 velocity=0 time=0.025239921875
EXTRACT: note_off channel=4 note=74 velocity=0 time=0
EXTRACT: note_off channel=9 note=44 velocity=0 time=0.010817109375
EXTRACT: note_off channel=12 note=58 velocity=0 time=0.07451786458333333
EXTRACT: note_off channel=9 note=36 velocity=0 time=0.00721140625
EXTRACT: note_off channel=12 note=63 velocity=0 time=0.004807604166666667
EXTRACT: note_off channel=12 note=53 velocity=0 time=0
EXTRACT: note_on channel=9 note=36 velocity=125 time=0.10817109375
EXTRACT: note_on channel=9 note=44 velocity=85 time=0
EXTRACT: note_off channel=9 note=46 velocity=0 time=0.07692166666666667
EXTRACT: note_off channel=1 note=27 velocity=0 time=0.031249427083333333
EXTRACT: note_on channel=9 note=46 velocity=71 time=0.12259390625
EXTRACT: note_on channel=1 note=27 velocity=95 time=0
EXTRACT: note_on channel=3 note=58 velocity=97 time=0
EXTRACT: note_on channel=4 note=70 velocity=87 time=0
EXTRACT: note_on channel=12 note=53 velocity=85 time=0
EXTRACT: note_on channel=12 note=58 velocity=88 time=0
EXTRACT: note_on channel=12 note=63 velocity=88 time=0
EXTRACT: note_off channel=3 note=60 velocity=0 time=0.0012019010416666667
EXTRACT: note_off channel=4 note=72 velocity=0 time=0
EXTRACT: note_off channel=9 note=40 velocity=0 time=0.068508359375
EXTRACT: note_off channel=9 note=39 velocity=0 time=0
EXTRACT: note_off channel=9 note=44 velocity=0 time=0.019230416666666666
EXTRACT: note_off channel=9 note=36 velocity=0 time=0.012019010416666667
EXTRACT: note_on channel=9 note=36 velocity=125 time=0.1298053125
EXTRACT: note_on channel=9 note=39 velocity=65 time=0
EXTRACT: note_on channel=9 note=40 velocity=64 time=0
EXTRACT: note_on channel=9 note=44 velocity=101 time=0
EXTRACT: note_off channel=9 note=46 velocity=0 time=0.10336348958333333
EXTRACT: note_off channel=12 note=58 velocity=0 time=0.026441822916666666
EXTRACT: note_off channel=12 note=63 velocity=0 time=0.009615208333333333
EXTRACT: note_off channel=12 note=53 velocity=0 time=0
EXTRACT: note_off channel=3 note=58 velocity=0 time=0.08894067708333334
EXTRACT: note_off channel=4 note=70 velocity=0 time=0
EXTRACT: note_on channel=9 note=46 velocity=70 time=0.0024038020833333333
EXTRACT: note_on channel=1 note=31 velocity=85 time=0
EXTRACT: note_on channel=3 note=62 velocity=97 time=0
EXTRACT: note_on channel=4 note=74 velocity=87 time=0
EXTRACT: note_on channel=12 note=53 velocity=78 time=0
EXTRACT: note_on channel=12 note=58 velocity=80 time=0
EXTRACT: note_on channel=12 note=63 velocity=82 time=0
EXTRACT: note_off channel=1 note=27 velocity=0 time=0.00721140625
EXTRACT: note_off channel=9 note=44 velocity=0 time=0.07692166666666667
EXTRACT: note_off channel=12 note=58 velocity=0 time=0.004807604166666667
EXTRACT: note_off channel=12 note=63 velocity=0 time=0.016826614583333333
EXTRACT: note_off channel=12 note=53 velocity=0 time=0
EXTRACT: note_off channel=9 note=36 velocity=0 time=0.0024038020833333333
EXTRACT: note_off channel=9 note=46 velocity=0 time=0.05047984375
EXTRACT: note_off channel=1 note=31 velocity=0 time=0.031249427083333333
EXTRACT: note_on channel=9 note=36 velocity=122 time=0.04086463541666667
EXTRACT: note_on channel=9 note=44 velocity=111 time=0
EXTRACT: note_on channel=1 note=34 velocity=104 time=0
EXTRACT: note_on channel=12 note=53 velocity=88 time=0
EXTRACT: note_on channel=12 note=58 velocity=78 time=0
EXTRACT: note_on channel=12 note=62 velocity=76 time=0
EXTRACT: note_off channel=12 note=58 velocity=0 time=0.09615208333333333
EXTRACT: note_off channel=12 note=62 velocity=0 time=0.016826614583333333
EXTRACT: note_off channel=12 note=53 velocity=0 time=0.009615208333333333
EXTRACT: note_on channel=9 note=46 velocity=75 time=0.10817109375
EXTRACT: note_off channel=9 note=44 velocity=0 time=0.026441822916666666
EXTRACT: note_off channel=9 note=39 velocity=0 time=0.02163421875
EXTRACT: note_off channel=9 note=40 velocity=0 time=0.004807604166666667
EXTRACT: note_off channel=9 note=36 velocity=0 time=0.033653229166666666
EXTRACT: note_off channel=1 note=34 velocity=0 time=0.10817109375
EXTRACT: note_on channel=9 note=36 velocity=118 time=0.036057031249999996
EXTRACT: note_on channel=9 note=39 velocity=71 time=0
EXTRACT: note_on channel=9 note=40 velocity=72 time=0
EXTRACT: note_on channel=9 note=44 velocity=92 time=0
EXTRACT: note_on channel=1 note=29 velocity=73 time=0
EXTRACT: note_on channel=12 note=53 velocity=80 time=0
EXTRACT: note_on channel=12 note=58 velocity=73 time=0
EXTRACT: note_on channel=12 note=62 velocity=73 time=0
EXTRACT: note_off channel=12 note=62 velocity=0 time=0.10336348958333333
EXTRACT: note_off channel=9 note=46 velocity=0 time=0.009615208333333333
EXTRACT: note_off channel=12 note=58 velocity=0 time=0
EXTRACT: note_off channel=12 note=53 velocity=0 time=0.009615208333333333
EXTRACT: note_off channel=1 note=29 velocity=0 time=0.04567223958333333
EXTRACT: note_on channel=9 note=46 velocity=63 time=0.062498854166666666
EXTRACT: note_on channel=1 note=27 velocity=88 time=0
EXTRACT: note_on channel=3 note=58 velocity=97 time=0
EXTRACT: note_on channel=4 note=70 velocity=87 time=0
EXTRACT: note_on channel=12 note=53 velocity=76 time=0
EXTRACT: note_on channel=12 note=58 velocity=74 time=0
EXTRACT: note_on channel=12 note=63 velocity=74 time=0
EXTRACT: note_off channel=9 note=44 velocity=0 time=0.036057031249999996
EXTRACT: note_off channel=9 note=36 velocity=0 time=0.06971026041666667
EXTRACT: note_off channel=12 note=53 velocity=0 time=0.00721140625
EXTRACT: note_off channel=12 note=58 velocity=0 time=0.019230416666666666
EXTRACT: note_off channel=12 note=63 velocity=0 time=0.012019010416666667
EXTRACT: note_off channel=3 note=62 velocity=0 time=0.034855130208333335
EXTRACT: note_off channel=4 note=74 velocity=0 time=0
EXTRACT: note_on channel=9 note=36 velocity=125 time=0.051681744791666664
EXTRACT: note_on channel=9 note=44 velocity=85 time=0
EXTRACT: note_off channel=9 note=46 velocity=0 time=0.07692166666666667
EXTRACT: note_off channel=1 note=27 velocity=0 time=0.10336348958333333
EXTRACT: note_on channel=9 note=46 velocity=71 time=0.05047984375
EXTRACT: note_on channel=1 note=27 velocity=95 time=0
EXTRACT: note_on channel=12 note=53 velocity=71 time=0
EXTRACT: note_on channel=12 note=58 velocity=78 time=0
EXTRACT: note_on channel=12 note=63 velocity=78 time=0
EXTRACT: note_off channel=9 note=39 velocity=0 time=0.0144228125
EXTRACT: note_off channel=9 note=40 velocity=0 time=0.0024038020833333333
EXTRACT: note_off channel=9 note=36 velocity=0 time=0.06971026041666667
EXTRACT: note_off channel=9 note=44 velocity=0 time=0.0024038020833333333
EXTRACT: note_on channel=9 note=36 velocity=122 time=0.14182432291666666
EXTRACT: note_on channel=9 note=39 velocity=62 time=0
EXTRACT: note_on channel=9 note=40 velocity=68 time=0
EXTRACT: note_on channel=9 note=44 velocity=101 time=0
EXTRACT: note_off channel=9 note=46 velocity=0 time=0.10336348958333333
EXTRACT: note_off channel=12 note=53 velocity=0 time=0.004807604166666667
EXTRACT: note_off channel=12 note=58 velocity=0 time=0.0144228125
EXTRACT: note_off channel=12 note=63 velocity=0 time=0.0144228125
EXTRACT: note_off channel=1 note=27 velocity=0 time=0.09134447916666666
EXTRACT: note_on channel=9 note=46 velocity=70 time=0.0024038020833333333
EXTRACT: note_on channel=1 note=31 velocity=62 time=0
EXTRACT: note_on channel=12 note=53 velocity=71 time=0
EXTRACT: note_on channel=12 note=58 velocity=73 time=0
EXTRACT: note_on channel=12 note=63 velocity=68 time=0
EXTRACT: note_off channel=9 note=44 velocity=0 time=0.08413307291666666
EXTRACT: note_off channel=9 note=36 velocity=0 time=0.016826614583333333
EXTRACT: note_off channel=12 note=53 velocity=0 time=0.02163421875
EXTRACT: note_off channel=3 note=58 velocity=0 time=0.0024038020833333333
EXTRACT: note_off channel=4 note=70 velocity=0 time=0
EXTRACT: note_off channel=12 note=58 velocity=0 time=0.009615208333333333
EXTRACT: note_off channel=9 note=46 velocity=0 time=0.024038020833333333
EXTRACT: note_off channel=12 note=63 velocity=0 time=0.004807604166666667
EXTRACT: note_off channel=1 note=31 velocity=0 time=0.016826614583333333
EXTRACT: note_on channel=9 note=36 velocity=122 time=0.05047984375
EXTRACT: note_on channel=9 note=44 velocity=111 time=0
EXTRACT: note_on channel=1 note=34 velocity=82 time=0
EXTRACT: note_on channel=3 note=62 velocity=97 time=0
EXTRACT: note_on channel=4 note=74 velocity=87 time=0
EXTRACT: note_on channel=12 note=53 velocity=74 time=0
EXTRACT: note_on channel=12 note=58 velocity=73 time=0
EXTRACT: note_on channel=12 note=62 velocity=71 time=0
EXTRACT: note_off channel=12 note=58 velocity=0 time=0.09374828125
EXTRACT: note_off channel=12 note=62 velocity=0 time=0.012019010416666667
EXTRACT: note_off channel=12 note=53 velocity=0 time=0.004807604166666667
EXTRACT: note_on channel=9 note=46 velocity=75 time=0.12019010416666667
EXTRACT: note_off channel=9 note=44 velocity=0 time=0.026441822916666666
EXTRACT: note_off channel=9 note=40 velocity=0 time=0.060095052083333336
EXTRACT: note_off channel=9 note=39 velocity=0 time=0.00721140625
EXTRACT: note_off channel=9 note=36 velocity=0 time=0.00721140625
EXTRACT: note_off channel=3 note=62 velocity=0 time=0.118988203125
EXTRACT: note_off channel=4 note=74 velocity=0 time=0
EXTRACT: note_off channel=1 note=34 velocity=0 time=0.006009505208333333
EXTRACT: note_on channel=9 note=36 velocity=122 time=0.004807604166666667
EXTRACT: note_on channel=9 note=39 velocity=66 time=0
EXTRACT: note_on channel=9 note=40 velocity=66 time=0
EXTRACT: note_on channel=9 note=44 velocity=92 time=0
EXTRACT: note_on channel=1 note=29 velocity=76 time=0
EXTRACT: note_on channel=3 note=62 velocity=97 time=0
EXTRACT: note_on channel=4 note=74 velocity=87 time=0
EXTRACT: note_on channel=12 note=53 velocity=82 time=0
EXTRACT: note_on channel=12 note=58 velocity=78 time=0
EXTRACT: note_on channel=12 note=62 velocity=73 time=0
EXTRACT: note_off channel=9 note=46 velocity=0 time=0.11297869791666666
EXTRACT: note_off channel=12 note=62 velocity=0 time=0.036057031249999996
EXTRACT: note_off channel=12 note=58 velocity=0 time=0
EXTRACT: note_off channel=12 note=53 velocity=0 time=0
EXTRACT: note_off channel=1 note=29 velocity=0 time=0.07692166666666667
EXTRACT: note_on channel=9 note=46 velocity=63 time=0.004807604166666667
EXTRACT: note_on channel=1 note=27 velocity=91 time=0
EXTRACT: note_on channel=3 note=60 velocity=97 time=0
EXTRACT: note_on channel=4 note=72 velocity=87 time=0
EXTRACT: note_on channel=12 note=53 velocity=82 time=0
EXTRACT: note_on channel=12 note=58 velocity=80 time=0
EXTRACT: note_on channel=12 note=63 velocity=80 time=0
EXTRACT: note_off channel=9 note=44 velocity=0 time=0.036057031249999996
EXTRACT: note_off channel=3 note=62 velocity=0 time=0.015624713541666667
EXTRACT: note_off channel=4 note=74 velocity=0 time=0
EXTRACT: note_off channel=12 note=58 velocity=0 time=0.082931171875
EXTRACT: note_off channel=12 note=63 velocity=0 time=0.004807604166666667
EXTRACT: note_off channel=12 note=53 velocity=0 time=0.009615208333333333
EXTRACT: note_off channel=9 note=36 velocity=0 time=0.004807604166666667
EXTRACT: note_on channel=9 note=36 velocity=118 time=0.07692166666666667
EXTRACT: note_on channel=9 note=44 velocity=85 time=0
EXTRACT: note_off channel=9 note=46 velocity=0 time=0.07692166666666667
EXTRACT: note_off channel=1 note=27 velocity=0 time=0.031249427083333333
EXTRACT: note_on channel=9 note=46 velocity=71 time=0.12259390625
EXTRACT: note_on channel=1 note=27 velocity=95 time=0
EXTRACT: note_on channel=3 note=58 velocity=97 time=0
EXTRACT: note_on channel=4 note=70 velocity=87 time=0
EXTRACT: note_on channel=12 note=53 velocity=80 time=0
EXTRACT: note_on channel=12 note=58 velocity=78 time=0
EXTRACT: note_on channel=12 note=63 velocity=80 time=0
EXTRACT: note_off channel=3 note=60 velocity=0 time=0.051681744791666664
EXTRACT: note_off channel=4 note=72 velocity=0 time=0
EXTRACT: note_off channel=9 note=40 velocity=0 time=0.034855130208333335
EXTRACT: note_off channel=9 note=39 velocity=0 time=0
EXTRACT: note_off channel=9 note=44 velocity=0 time=0.0024038020833333333
EXTRACT: note_off channel=9 note=36 velocity=0 time=0.00721140625
EXTRACT: note_off channel=3 note=58 velocity=0 time=0.03846083333333333
EXTRACT: note_off channel=4 note=70 velocity=0 time=0
EXTRACT: note_on channel=9 note=36 velocity=122 time=0.09615208333333333
EXTRACT: note_on channel=9 note=39 velocity=71 time=0
EXTRACT: note_on channel=9 note=40 velocity=72 time=0
EXTRACT: note_on channel=9 note=44 velocity=101 time=0
EXTRACT: note_on channel=3 note=62 velocity=97 time=0
EXTRACT: note_on channel=4 note=74 velocity=87 time=0
EXTRACT: note_off channel=9 note=46 velocity=0 time=0.10336348958333333
EXTRACT: note_on channel=9 note=46 velocity=70 time=0.12740151041666667
EXTRACT: note_on channel=1 note=31 velocity=85 time=0
EXTRACT: note_off channel=1 note=27 velocity=0 time=0.00721140625
EXTRACT: note_off channel=12 note=58 velocity=0 time=0.00721140625
EXTRACT: note_off channel=12 note=63 velocity=0 time=0.00721140625
EXTRACT: note_off channel=12 note=53 velocity=0 time=0.004807604166666667
EXTRACT: note_off channel=9 note=44 velocity=0 time=0.05769125
EXTRACT: note_off channel=9 note=36 velocity=0 time=0.02163421875
EXTRACT: note_off channel=9 note=46 velocity=0 time=0.05288364583333333
EXTRACT: note_off channel=1 note=31 velocity=0 time=0.031249427083333333
EXTRACT: note_on channel=9 note=36 velocity=122 time=0.04086463541666667
EXTRACT: note_on channel=9 note=44 velocity=111 time=0
EXTRACT: note_on channel=1 note=34 velocity=104 time=0
EXTRACT: note_on channel=14 note=46 velocity=70 time=0
EXTRACT: note_off channel=14 note=46 velocity=0 time=0.086536875
EXTRACT: note_on channel=14 note=58 velocity=66 time=0.028845625
EXTRACT: note_off channel=14 note=58 velocity=0 time=0.11297869791666666
EXTRACT: note_on channel=9 note=46 velocity=75 time=0.0024038020833333333
EXTRACT: note_on channel=12 note=53 velocity=85 time=0
EXTRACT: note_on channel=12 note=58 velocity=80 time=0
EXTRACT: note_on channel=12 note=62 velocity=76 time=0
EXTRACT: note_on channel=14 note=46 velocity=68 time=0
EXTRACT: note_off channel=9 note=44 velocity=0 time=0.026441822916666666
EXTRACT: note_off channel=9 note=40 velocity=0 time=0.026441822916666666
EXTRACT: note_off channel=9 note=39 velocity=0 time=0
EXTRACT: note_off channel=14 note=46 velocity=0 time=0.019230416666666666
EXTRACT: note_off channel=12 note=58 velocity=0 time=0.02163421875
EXTRACT: note_off channel=12 note=62 velocity=0 time=0.00721140625
EXTRACT: note_off channel=9 note=36 velocity=0 time=0.0024038020833333333
EXTRACT: note_off channel=12 note=53 velocity=0 time=0.012019010416666667
EXTRACT: note_on channel=14 note=58 velocity=65 time=0
EXTRACT: note_off channel=1 note=34 velocity=0 time=0.07932546875
EXTRACT: note_off channel=14 note=58 velocity=0 time=0.004807604166666667
EXTRACT: note_on channel=9 note=36 velocity=122 time=0.031249427083333333
EXTRACT: note_on channel=9 note=39 velocity=76 time=0
EXTRACT: note_on channel=9 note=40 velocity=74 time=0
EXTRACT: note_on channel=9 note=44 velocity=92 time=0
EXTRACT: note_on channel=1 note=29 velocity=73 time=0
EXTRACT: note_on channel=6 note=68 velocity=101 time=0
EXTRACT: note_on channel=14 note=46 velocity=68 time=0
EXTRACT: note_off channel=14 note=46 velocity=0 time=0.086536875
EXTRACT: note_off channel=9 note=46 velocity=0 time=0.026441822916666666
EXTRACT: note_on channel=14 note=58 velocity=65 time=0.0024038020833333333
EXTRACT: note_off channel=1 note=29 velocity=0 time=0.05288364583333333
EXTRACT: note_off channel=14 note=58 velocity=0 time=0.033653229166666666
EXTRACT: note_on channel=9 note=46 velocity=63 time=0.028845625
EXTRACT: note_on channel=1 note=27 velocity=88 time=0
EXTRACT: note_on channel=6 note=62 velocity=81 time=0
EXTRACT: note_on channel=12 note=53 velocity=80 time=0
EXTRACT: note_on channel=12 note=58 velocity=78 time=0
EXTRACT: note_on channel=12 note=62 velocity=68 time=0
EXTRACT: note_on channel=14 note=46 velocity=66 time=0
EXTRACT: note_off channel=6 note=68 velocity=0 time=0.009615208333333333
EXTRACT: note_off channel=9 note=44 velocity=0 time=0.026441822916666666
EXTRACT: note_off channel=3 note=62 velocity=0 time=0.0024038020833333333
EXTRACT: note_off channel=4 note=74 velocity=0 time=0
EXTRACT: note_off channel=12 note=62 velocity=0 time=0.0432684375
EXTRACT: note_off channel=12 note=58 velocity=0 time=0.0024038020833333333
EXTRACT: note_off channel=14 note=46 velocity=0 time=0.0024038020833333333
EXTRACT: note_off channel=9 note=36 velocity=0 time=0.004807604166666667
EXTRACT: note_off channel=12 note=53 velocity=0 time=0.00721140625
EXTRACT: note_on channel=14 note=58 velocity=65 time=0.016826614583333333
EXTRACT: note_off channel=6 note=62 velocity=0 time=0.009615208333333333
EXTRACT: note_off channel=14 note=58 velocity=0 time=0.07451786458333333
EXTRACT: note_on channel=9 note=36 velocity=122 time=0.031249427083333333
EXTRACT: note_on channel=9 note=44 velocity=85 time=0
EXTRACT: note_on channel=6 note=68 velocity=88 time=0
EXTRACT: note_on channel=12 note=53 velocity=85 time=0
EXTRACT: note_on channel=12 note=58 velocity=82 time=0
EXTRACT: note_on channel=12 note=63 velocity=82 time=0
EXTRACT: note_on channel=14 note=46 velocity=67 time=0
EXTRACT: note_off channel=9 note=46 velocity=0 time=0.07692166666666667
EXTRACT: note_off channel=14 note=46 velocity=0 time=0.0144228125
EXTRACT: note_on channel=14 note=58 velocity=65 time=0.024038020833333333
EXTRACT: note_off channel=1 note=27 velocity=0 time=0.06490265625
EXTRACT: note_off channel=12 note=58 velocity=0 time=0.0144228125
EXTRACT: note_off channel=14 note=58 velocity=0 time=0.012019010416666667
EXTRACT: note_off channel=12 note=63 velocity=0 time=0.004807604166666667
EXTRACT: note_on channel=9 note=46 velocity=71 time=0.019230416666666666
EXTRACT: note_on channel=1 note=27 velocity=95 time=0
EXTRACT: note_on channel=6 note=62 velocity=80 time=0
EXTRACT: note_on channel=14 note=46 velocity=66 time=0
EXTRACT: note_off channel=6 note=68 velocity=0 time=0.012019010416666667
EXTRACT: note_off channel=12 note=53 velocity=0 time=0.048076041666666666
EXTRACT: note_off channel=9 note=44 velocity=0 time=0.028845625
EXTRACT: note_off channel=9 note=39 velocity=0 time=0.0024038020833333333
EXTRACT: note_off channel=14 note=46 velocity=0 time=0
EXTRACT: note_off channel=9 note=40 velocity=0 time=0.0024038020833333333
EXTRACT: note_on channel=14 note=58 velocity=65 time=0.02163421875
EXTRACT: note_off channel=9 note=36 velocity=0 time=0.009615208333333333
EXTRACT: note_off channel=6 note=62 velocity=0 time=0.062498854166666666
EXTRACT: note_off channel=14 note=58 velocity=0 time=0.02163421875
EXTRACT: note_on channel=9 note=36 velocity=122 time=0.02163421875
EXTRACT: note_on channel=9 note=39 velocity=72 time=0
EXTRACT: note_on channel=9 note=40 velocity=74 time=0
EXTRACT: note_on channel=9 note=44 velocity=101 time=0
EXTRACT: note_on channel=12 note=53 velocity=82 time=0
EXTRACT: note_on channel=12 note=58 velocity=88 time=0
EXTRACT: note_on channel=12 note=63 velocity=82 time=0
EXTRACT: note_on channel=14 note=46 velocity=68 time=0
EXTRACT: note_off channel=14 note=46 velocity=0 time=0.09615208333333333
EXTRACT: note_off channel=9 note=46 velocity=0 time=0.00721140625
EXTRACT: note_on channel=14 note=58 velocity=65 time=0.012019010416666667
EXTRACT: note_off channel=12 note=53 velocity=0 time=0.0432684375
EXTRACT: note_off channel=12 note=58 velocity=0 time=0.04086463541666667
EXTRACT: note_off channel=12 note=63 velocity=0 time=0.016826614583333333
EXTRACT: note_off channel=14 note=58 velocity=0 time=0
EXTRACT: note_off channel=1 note=27 velocity=0 time=0.012019010416666667
EXTRACT: note_on channel=9 note=46 velocity=70 time=0.0024038020833333333
EXTRACT: note_on channel=1 note=31 velocity=62 time=0
EXTRACT: note_on channel=12 note=53 velocity=82 time=0
EXTRACT: note_on channel=12 note=58 velocity=73 time=0
EXTRACT: note_on channel=12 note=62 velocity=73 time=0
EXTRACT: note_on channel=14 note=46 velocity=68 time=0
EXTRACT: note_off channel=9 note=36 velocity=0 time=0.07692166666666667
EXTRACT: note_off channel=9 note=44 velocity=0 time=0.00721140625
EXTRACT: note_off channel=12 note=62 velocity=0 time=0.0024038020833333333
EXTRACT: note_off channel=14 note=46 velocity=0 time=0.00721140625
EXTRACT: note_off channel=12 note=58 velocity=0 time=0.016826614583333333
EXTRACT: note_off channel=12 note=53 velocity=0 time=0
EXTRACT: note_on channel=14 note=58 velocity=64 time=0.004807604166666667
EXTRACT: note_off channel=9 note=46 velocity=0 time=0.0432684375
EXTRACT: note_off channel=1 note=31 velocity=0 time=0.02163421875
EXTRACT: note_off channel=14 note=58 velocity=0 time=0.036057031249999996
EXTRACT: note_on channel=9 note=36 velocity=125 time=0.0144228125
EXTRACT: note_on channel=9 note=44 velocity=111 time=0
EXTRACT: note_on channel=1 note=34 velocity=82 time=0
EXTRACT: note_on channel=14 note=46 velocity=68 time=0
EXTRACT: note_off channel=14 note=46 velocity=0 time=0.09374828125
EXTRACT: note_on channel=14 note=58 velocity=65 time=0.02163421875
EXTRACT: note_off channel=14 note=58 velocity=0 time=0.10576729166666667
EXTRACT: note_on channel=9 note=46 velocity=75 time=0.009615208333333333
EXTRACT: note_on channel=12 note=53 velocity=82 time=0
EXTRACT: note_on channel=12 note=58 velocity=82 time=0
EXTRACT: note_on channel=12 note=62 velocity=73 time=0
EXTRACT: note_on channel=14 note=46 velocity=67 time=0
EXTRACT: note_off channel=9 note=44 velocity=0 time=0.026441822916666666
EXTRACT: note_off channel=9 note=40 velocity=0 time=0.031249427083333333
EXTRACT: note_off channel=9 note=39 velocity=0 time=0
EXTRACT: note_off channel=14 note=46 velocity=0 time=0.026441822916666666
EXTRACT: note_off channel=12 note=58 velocity=0 time=0.012019010416666667
EXTRACT: note_off channel=12 note=62 velocity=0 time=0.0024038020833333333
EXTRACT: note_off channel=12 note=53 velocity=0 time=0.00721140625
EXTRACT: note_off channel=9 note=36 velocity=0 time=0.00721140625
EXTRACT: note_on channel=14 note=58 velocity=65 time=0.0024038020833333333
EXTRACT: note_off channel=14 note=58 velocity=0 time=0.10576729166666667
EXTRACT: note_off channel=1 note=34 velocity=0 time=0.004807604166666667
EXTRACT: note_on channel=9 note=36 velocity=122 time=0.004807604166666667
EXTRACT: note_on channel=9 note=39 velocity=80 time=0
EXTRACT: note_on channel=9 note=40 velocity=78 time=0
EXTRACT: note_on channel=9 note=44 velocity=92 time=0
EXTRACT: note_on channel=1 note=29 velocity=76 time=0
EXTRACT: note_on channel=6 note=68 velocity=101 time=0
EXTRACT: note_on channel=14 note=46 velocity=68 time=0
EXTRACT: note_off channel=14 note=46 velocity=0 time=0.09855588541666667
EXTRACT: note_off channel=9 note=46 velocity=0 time=0.0144228125
EXTRACT: note_on channel=14 note=58 velocity=65 time=0.0024038020833333333
EXTRACT: note_off channel=14 note=58 velocity=0 time=0.09374828125
EXTRACT: note_off channel=1 note=29 velocity=0 time=0.016826614583333333
EXTRACT: note_on channel=9 note=46 velocity=63 time=0.004807604166666667
EXTRACT: note_on channel=1 note=27 velocity=91 time=0
EXTRACT: note_on channel=6 note=62 velocity=78 time=0
EXTRACT: note_on channel=12 note=53 velocity=88 time=0
EXTRACT: note_on channel=12 note=58 velocity=78 time=0
EXTRACT: note_on channel=12 note=63 velocity=74 time=0
EXTRACT: note_on channel=14 note=46 velocity=67 time=0
EXTRACT: note_off channel=6 note=68 velocity=0 time=0.02163421875
EXTRACT: note_off channel=9 note=44 velocity=0 time=0.0144228125
EXTRACT: note_off channel=14 note=46 velocity=0 time=0.05288364583333333
EXTRACT: note_off channel=6 note=62 velocity=0 time=0.012019010416666667
EXTRACT: note_off channel=12 note=58 velocity=0 time=0.009615208333333333
EXTRACT: note_off channel=9 note=36 velocity=0 time=0.004807604166666667
EXTRACT: note_on channel=14 note=58 velocity=65 time=0
EXTRACT: note_off channel=12 note=63 velocity=0 time=0.00721140625
EXTRACT: note_off channel=12 note=53 velocity=0 time=0
EXTRACT: note_off channel=14 note=58 velocity=0 time=0.08894067708333334
EXTRACT: note_on channel=9 note=36 velocity=125 time=0.019230416666666666
EXTRACT: note_on channel=9 note=44 velocity=85 time=0
EXTRACT: note_on channel=6 note=68 velocity=92 time=0
EXTRACT: note_on channel=14 note=46 velocity=68 time=0
EXTRACT: note_off channel=9 note=46 velocity=0 time=0.07692166666666667
EXTRACT: note_off channel=14 note=46 velocity=0 time=0.012019010416666667
EXTRACT: note_off channel=1 note=27 velocity=0 time=0.019230416666666666
EXTRACT: note_on channel=14 note=58 velocity=64 time=0.00721140625
EXTRACT: note_off channel=14 note=58 velocity=0 time=0.10336348958333333
EXTRACT: note_on channel=9 note=46 velocity=71 time=0.012019010416666667
EXTRACT: note_on channel=1 note=27 velocity=95 time=0
EXTRACT: note_on channel=6 note=62 velocity=76 time=0
EXTRACT: note_on channel=12 note=53 velocity=85 time=0
EXTRACT: note_on channel=12 note=58 velocity=88 time=0
EXTRACT: note_on channel=12 note=63 velocity=88 time=0
EXTRACT: note_on channel=14 note=46 velocity=67 time=0
EXTRACT: note_off channel=6 note=68 velocity=0 time=0.019230416666666666
EXTRACT: note_off channel=9 note=40 velocity=0 time=0.033653229166666666
EXTRACT: note_off channel=9 note=39 velocity=0 time=0.0024038020833333333
EXTRACT: note_off channel=9 note=36 velocity=0 time=0.031249427083333333
EXTRACT: note_off channel=9 note=44 velocity=0 time=0.0024038020833333333
EXTRACT: note_off channel=14 note=46 velocity=0 time=0.004807604166666667
EXTRACT: note_off channel=6 note=62 velocity=0 time=0.012019010416666667
EXTRACT: note_on channel=14 note=58 velocity=65 time=0.009615208333333333
EXTRACT: note_off channel=14 note=58 velocity=0 time=0.1009596875
EXTRACT: note_on channel=9 note=36 velocity=122 time=0.0144228125
EXTRACT: note_on channel=9 note=39 velocity=86 time=0
EXTRACT: note_on channel=9 note=40 velocity=86 time=0
EXTRACT: note_on channel=9 note=44 velocity=101 time=0
EXTRACT: note_on channel=6 note=68 velocity=92 time=0
EXTRACT: note_on channel=14 note=46 velocity=68 time=0
EXTRACT: note_off channel=14 note=46 velocity=0 time=0.09134447916666666
EXTRACT: note_off channel=9 note=46 velocity=0 time=0.012019010416666667
EXTRACT: note_on channel=14 note=58 velocity=65 time=0.012019010416666667
EXTRACT: note_off channel=12 note=58 velocity=0 time=0.0144228125
EXTRACT: note_off channel=9 note=36 velocity=0 time=0.0024038020833333333
EXTRACT: note_off channel=12 note=63 velocity=0 time=0.00721140625
EXTRACT: note_off channel=12 note=53 velocity=0 time=0
EXTRACT: note_off channel=14 note=58 velocity=0 time=0.07211406249999999
EXTRACT: note_on channel=9 note=36 velocity=122 time=0.019230416666666666
EXTRACT: note_on channel=9 note=46 velocity=70 time=0
EXTRACT: note_on channel=1 note=31 velocity=85 time=0
EXTRACT: note_on channel=12 note=53 velocity=78 time=0
EXTRACT: note_on channel=12 note=58 velocity=80 time=0
EXTRACT: note_on channel=12 note=63 velocity=82 time=0
EXTRACT: note_on channel=14 note=46 velocity=67 time=0
EXTRACT: note_off channel=1 note=27 velocity=0 time=0.00721140625
EXTRACT: note_off channel=9 note=39 velocity=0 time=0.05047984375
EXTRACT: note_off channel=9 note=40 velocity=0 time=0.004807604166666667
EXTRACT: note_off channel=9 note=44 velocity=0 time=0.02163421875
EXTRACT: note_off channel=12 note=58 velocity=0 time=0.004807604166666667
EXTRACT: note_off channel=14 note=46 velocity=0 time=0.004807604166666667
EXTRACT: note_off channel=12 note=63 velocity=0 time=0.012019010416666667
EXTRACT: note_off channel=12 note=53 velocity=0 time=0
EXTRACT: note_on channel=14 note=58 velocity=66 time=0.009615208333333333
EXTRACT: note_off channel=9 note=36 velocity=0 time=0.02163421875
EXTRACT: note_off channel=6 note=68 velocity=0 time=0.009615208333333333
EXTRACT: note_off channel=9 note=46 velocity=0 time=0.012019010416666667
EXTRACT: note_off channel=1 note=31 velocity=0 time=0.031249427083333333
EXTRACT: note_off channel=14 note=58 velocity=0 time=0.019230416666666666
EXTRACT: note_on channel=9 note=36 velocity=125 time=0.02163421875
EXTRACT: note_on channel=9 note=44 velocity=111 time=0
EXTRACT: note_on channel=9 note=49 velocity=80 time=0
EXTRACT: note_on channel=9 note=57 velocity=89 time=0
EXTRACT: note_on channel=1 note=34 velocity=104 time=0
EXTRACT: note_on channel=12 note=53 velocity=88 time=0
EXTRACT: note_on channel=12 note=58 velocity=78 time=0
EXTRACT: note_on channel=12 note=62 velocity=76 time=0
EXTRACT: note_on channel=14 note=46 velocity=70 time=0
EXTRACT: note_off channel=9 note=49 velocity=0 time=0.07692166666666667
EXTRACT: note_off channel=14 note=46 velocity=0 time=0.009615208333333333
EXTRACT: note_off channel=9 note=57 velocity=0 time=0.0024038020833333333
EXTRACT: note_off channel=12 note=58 velocity=0 time=0.00721140625
EXTRACT: note_off channel=9 note=36 velocity=0 time=0.00721140625
EXTRACT: note_off channel=12 note=62 velocity=0 time=0.009615208333333333
EXTRACT: note_on channel=14 note=58 velocity=66 time=0.0024038020833333333
EXTRACT: note_off channel=12 note=53 velocity=0 time=0.00721140625
EXTRACT: note_off channel=14 note=58 velocity=0 time=0.10576729166666667
EXTRACT: note_on channel=9 note=46 velocity=75 time=0.0024038020833333333
EXTRACT: note_on channel=14 note=46 velocity=68 time=0
EXTRACT: note_off channel=9 note=44 velocity=0 time=0.026441822916666666
EXTRACT: note_off channel=14 note=46 velocity=0 time=0.04567223958333333
EXTRACT: note_on channel=14 note=58 velocity=65 time=0.0432684375
EXTRACT: note_off channel=1 note=34 velocity=0 time=0.07932546875
EXTRACT: note_off channel=14 note=58 velocity=0 time=0.004807604166666667
EXTRACT: note_on channel=9 note=36 velocity=107 time=0.031249427083333333
EXTRACT: note_on channel=9 note=39 velocity=78 time=0
EXTRACT: note_on channel=9 note=40 velocity=74 time=0
EXTRACT: note_on channel=9 note=44 velocity=92 time=0
EXTRACT: note_on channel=1 note=29 velocity=73 time=0
EXTRACT: note_on channel=3 note=74 velocity=97 time=0
EXTRACT: note_on channel=4 note=86 velocity=87 time=0
EXTRACT: note_on channel=6 note=58 velocity=105 time=0
EXTRACT: note_on channel=6 note=62 velocity=95 time=0
EXTRACT: note_on channel=12 note=53 velocity=80 time=0
EXTRACT: note_on channel=12 note=58 velocity=73 time=0
EXTRACT: note_on channel=12 note=62 velocity=73 time=0
EXTRACT: note_on channel=14 note=46 velocity=68 time=0
EXTRACT: note_off channel=14 note=46 velocity=0 time=0.086536875
EXTRACT: note_off channel=12 note=62 velocity=0 time=0.016826614583333333
EXTRACT: note_off channel=9 note=46 velocity=0 time=0.009615208333333333
EXTRACT: note_off channel=12 note=58 velocity=0 time=0
EXTRACT: note_on channel=14 note=58 velocity=65 time=0.0024038020833333333
EXTRACT: note_off channel=12 note=53 velocity=0 time=0.00721140625
EXTRACT: note_off channel=9 note=36 velocity=0 time=0.009615208333333333
EXTRACT: note_off channel=6 note=58 velocity=0 time=0.0024038020833333333
EXTRACT: note_off channel=6 note=62 velocity=0 time=0.0024038020833333333
EXTRACT: note_off channel=3 note=74 velocity=0 time=0.013220911458333333
EXTRACT: note_off channel=4 note=86 velocity=0 time=0
EXTRACT: note_off channel=1 note=29 velocity=0 time=0.018028515624999998
EXTRACT: note_off channel=14 note=58 velocity=0 time=0.033653229166666666
EXTRACT: note_on channel=9 note=46 velocity=63 time=0.028845625
EXTRACT: note_on channel=1 note=27 velocity=88 time=0
EXTRACT: note_on channel=3 note=74 velocity=97 time=0
EXTRACT: note_on channel=4 note=86 velocity=87 time=0
EXTRACT: note_on channel=6 note=58 velocity=84 time=0
EXTRACT: note_on channel=6 note=63 velocity=101 time=0
EXTRACT: note_on channel=12 note=53 velocity=76 time=0
EXTRACT: note_on channel=12 note=58 velocity=74 time=0
EXTRACT: note_on channel=12 note=63 velocity=74 time=0
EXTRACT: note_on channel=14 note=46 velocity=66 time=0
EXTRACT: note_off channel=9 note=44 velocity=0 time=0.036057031249999996
EXTRACT: note_off channel=14 note=46 velocity=0 time=0.05047984375
EXTRACT: note_off channel=12 note=53 velocity=0 time=0.026441822916666666
EXTRACT: note_on channel=14 note=58 velocity=65 time=0.0024038020833333333
EXTRACT: note_off channel=12 note=58 velocity=0 time=0.016826614583333333
EXTRACT: note_off channel=12 note=63 velocity=0 time=0.012019010416666667
EXTRACT: note_off channel=14 note=58 velocity=0 time=0.05528744791666666
EXTRACT: note_on channel=9 note=36 velocity=93 time=0.031249427083333333
EXTRACT: note_on channel=9 note=44 velocity=85 time=0
EXTRACT: note_on channel=3 note=72 velocity=97 time=0
EXTRACT: note_on channel=4 note=84 velocity=87 time=0
EXTRACT: note_on channel=14 note=46 velocity=67 time=0
EXTRACT: note_off channel=3 note=74 velocity=0 time=0.054085546875
EXTRACT: note_off channel=4 note=86 velocity=0 time=0
EXTRACT: note_off channel=6 note=58 velocity=0 time=0.006009505208333333
EXTRACT: note_off channel=9 note=46 velocity=0 time=0.016826614583333333
EXTRACT: note_off channel=14 note=46 velocity=0 time=0.0144228125
EXTRACT: note_off channel=6 note=63 velocity=0 time=0.0024038020833333333
EXTRACT: note_off channel=3 note=72 velocity=0 time=0.0144228125
EXTRACT: note_off channel=4 note=84 velocity=0 time=0
EXTRACT: note_on channel=14 note=58 velocity=65 time=0.00721140625
EXTRACT: note_off channel=1 note=27 velocity=0 time=0.06490265625
EXTRACT: note_off channel=14 note=58 velocity=0 time=0.026441822916666666
EXTRACT: note_on channel=9 note=46 velocity=71 time=0.024038020833333333
EXTRACT: note_on channel=1 note=27 velocity=95 time=0
EXTRACT: note_on channel=3 note=72 velocity=97 time=0
EXTRACT: note_on channel=4 note=84 velocity=87 time=0
EXTRACT: note_on channel=6 note=58 velocity=92 time=0
EXTRACT: note_on channel=6 note=63 velocity=98 time=0
EXTRACT: note_on channel=12 note=53 velocity=71 time=0
EXTRACT: note_on channel=12 note=58 velocity=78 time=0
EXTRACT: note_on channel=12 note=63 velocity=78 time=0
EXTRACT: note_on channel=14 note=46 velocity=66 time=0
EXTRACT: note_off channel=9 note=36 velocity=0 time=0.028845625
EXTRACT: note_off channel=9 note=44 velocity=0 time=0.060095052083333336
EXTRACT: note_off channel=14 note=46 velocity=0 time=0.0024038020833333333
EXTRACT: note_off channel=9 note=39 velocity=0 time=0.0024038020833333333
EXTRACT: note_off channel=9 note=40 velocity=0 time=0.009615208333333333
EXTRACT: note_on channel=14 note=58 velocity=65 time=0.012019010416666667
EXTRACT: note_off channel=14 note=58 velocity=0 time=0.09374828125
EXTRACT: note_on channel=9 note=36 velocity=125 time=0.02163421875
EXTRACT: note_on channel=9 note=39 velocity=62 time=0
EXTRACT: note_on channel=9 note=40 velocity=66 time=0
EXTRACT: note_on channel=9 note=44 velocity=101 time=0
EXTRACT: note_on channel=14 note=46 velocity=68 time=0
EXTRACT: note_off channel=14 note=46 velocity=0 time=0.09615208333333333
EXTRACT: note_off channel=9 note=46 velocity=0 time=0.00721140625
EXTRACT: note_off channel=12 note=53 velocity=0 time=0.004807604166666667
EXTRACT: note_on channel=14 note=58 velocity=65 time=0.00721140625
EXTRACT: note_off channel=12 note=58 velocity=0 time=0.00721140625
EXTRACT: note_off channel=12 note=63 velocity=0 time=0.0144228125
EXTRACT: note_off channel=6 note=58 velocity=0 time=0.02163421875
EXTRACT: note_off channel=6 note=63 velocity=0 time=0.009615208333333333
EXTRACT: note_off channel=14 note=58 velocity=0 time=0.048076041666666666
EXTRACT: note_off channel=1 note=27 velocity=0 time=0.012019010416666667
EXTRACT: note_on channel=9 note=46 velocity=70 time=0.0024038020833333333
EXTRACT: note_on channel=1 note=31 velocity=62 time=0
EXTRACT: note_on channel=3 note=70 velocity=97 time=0
EXTRACT: note_on channel=4 note=82 velocity=87 time=0
EXTRACT: note_on channel=12 note=53 velocity=71 time=0
EXTRACT: note_on channel=12 note=58 velocity=73 time=0
EXTRACT: note_on channel=12 note=63 velocity=68 time=0
EXTRACT: note_on channel=14 note=46 velocity=68 time=0
EXTRACT: note_off channel=9 note=44 velocity=0 time=0.08413307291666666
EXTRACT: note_off channel=9 note=36 velocity=0 time=0.0024038020833333333
EXTRACT: note_off channel=14 note=46 velocity=0 time=0.00721140625
EXTRACT: note_off channel=3 note=72 velocity=0 time=0.006009505208333333
EXTRACT: note_off channel=4 note=84 velocity=0 time=0
EXTRACT: note_on channel=14 note=58 velocity=64 time=0.015624713541666667
EXTRACT: note_off channel=12 note=53 velocity=0 time=0.00721140625
EXTRACT: note_off channel=12 note=58 velocity=0 time=0.012019010416666667
EXTRACT: note_off channel=9 note=46 velocity=0 time=0.024038020833333333
EXTRACT: note_off channel=12 note=63 velocity=0 time=0.004807604166666667
EXTRACT: note_off channel=1 note=31 velocity=0 time=0.016826614583333333
EXTRACT: note_off channel=14 note=58 velocity=0 time=0.036057031249999996
EXTRACT: note_on channel=9 note=36 velocity=118 time=0.0144228125
EXTRACT: note_on channel=9 note=44 velocity=111 time=0
EXTRACT: note_on channel=1 note=34 velocity=82 time=0
EXTRACT: note_on channel=12 note=53 velocity=74 time=0
EXTRACT: note_on channel=12 note=58 velocity=73 time=0
EXTRACT: note_on channel=12 note=62 velocity=71 time=0
EXTRACT: note_on channel=14 note=46 velocity=68 time=0
EXTRACT: note_off channel=12 note=58 velocity=0 time=0.09374828125
EXTRACT: note_off channel=14 note=46 velocity=0 time=0
EXTRACT: note_off channel=12 note=62 velocity=0 time=0.012019010416666667
EXTRACT: note_off channel=12 note=53 velocity=0 time=0.004807604166666667
EXTRACT: note_on channel=14 note=58 velocity=65 time=0.004807604166666667
EXTRACT: note_off channel=3 note=70 velocity=0 time=0.022836119791666665
EXTRACT: note_off channel=4 note=82 velocity=0 time=0
EXTRACT: note_off channel=14 note=58 velocity=0 time=0.082931171875
EXTRACT: note_on channel=9 note=46 velocity=75 time=0.009615208333333333
EXTRACT: note_on channel=3 note=70 velocity=97 time=0
EXTRACT: note_on channel=4 note=82 velocity=87 time=0
EXTRACT: note_on channel=14 note=46 velocity=67 time=0
EXTRACT: note_off channel=9 note=44 velocity=0 time=0.026441822916666666
EXTRACT: note_off channel=9 note=36 velocity=0 time=0.05047984375
EXTRACT: note_off channel=14 note=46 velocity=0 time=0.00721140625
EXTRACT: note_off channel=9 note=40 velocity=0 time=0.012019010416666667
EXTRACT: note_off channel=9 note=39 velocity=0 time=0.009615208333333333
EXTRACT: note_on channel=14 note=58 velocity=65 time=0.009615208333333333
EXTRACT: note_off channel=14 note=58 velocity=0 time=0.10576729166666667
EXTRACT: note_off channel=1 note=34 velocity=0 time=0.004807604166666667
EXTRACT: note_on channel=9 note=36 velocity=118 time=0.004807604166666667
EXTRACT: note_on channel=9 note=39 velocity=66 time=0
EXTRACT: note_on channel=9 note=40 velocity=74 time=0
EXTRACT: note_on channel=9 note=44 velocity=92 time=0
EXTRACT: note_on channel=1 note=29 velocity=76 time=0
EXTRACT: note_on channel=6 note=58 velocity=88 time=0
EXTRACT: note_on channel=6 note=62 velocity=90 time=0
EXTRACT: note_on channel=12 note=53 velocity=82 time=0
EXTRACT: note_on channel=12 note=58 velocity=78 time=0
EXTRACT: note_on channel=12 note=62 velocity=73 time=0
EXTRACT: note_on channel=14 note=46 velocity=68 time=0
EXTRACT: note_off channel=14 note=46 velocity=0 time=0.09855588541666667
EXTRACT: note_off channel=9 note=46 velocity=0 time=0.0144228125
EXTRACT: note_on channel=14 note=58 velocity=65 time=0.0024038020833333333
EXTRACT: note_off channel=12 note=62 velocity=0 time=0.033653229166666666
EXTRACT: note_off channel=12 note=58 velocity=0 time=0
EXTRACT: note_off channel=12 note=53 velocity=0 time=0
EXTRACT: note_off channel=6 note=58 velocity=0 time=0.009615208333333333
EXTRACT: note_off channel=6 note=62 velocity=0 time=0.009615208333333333
EXTRACT: note_off channel=14 note=58 velocity=0 time=0.04086463541666667
EXTRACT: note_off channel=1 note=29 velocity=0 time=0.016826614583333333
EXTRACT: note_on channel=9 note=46 velocity=63 time=0.004807604166666667
EXTRACT: note_on channel=1 note=27 velocity=91 time=0
EXTRACT: note_on channel=3 note=68 velocity=97 time=0
EXTRACT: note_on channel=4 note=80 velocity=87 time=0
EXTRACT: note_on channel=6 note=58 velocity=84 time=0
EXTRACT: note_on channel=6 note=63 velocity=105 time=0
EXTRACT: note_on channel=12 note=53 velocity=82 time=0
EXTRACT: note_on channel=12 note=58 velocity=80 time=0
EXTRACT: note_on channel=12 note=63 velocity=80 time=0
EXTRACT: note_on channel=14 note=46 velocity=67 time=0
EXTRACT: note_off channel=9 note=44 velocity=0 time=0.036057031249999996
EXTRACT: note_off channel=3 note=70 velocity=0 time=0.051681744791666664
EXTRACT: note_off channel=4 note=82 velocity=0 time=0
EXTRACT: note_off channel=14 note=46 velocity=0 time=0.0012019010416666667
EXTRACT: note_on channel=14 note=58 velocity=65 time=0.026441822916666666
EXTRACT: note_off channel=12 note=58 velocity=0 time=0.019230416666666666
EXTRACT: note_off channel=12 note=63 velocity=0 time=0.004807604166666667
EXTRACT: note_off channel=9 note=36 velocity=0 time=0.0024038020833333333
EXTRACT: note_off channel=12 note=53 velocity=0 time=0.00721140625
EXTRACT: note_off channel=14 note=58 velocity=0 time=0.062498854166666666
EXTRACT: note_on channel=9 note=36 velocity=125 time=0.019230416666666666
EXTRACT: note_on channel=9 note=44 velocity=85 time=0
EXTRACT: note_on channel=14 note=46 velocity=68 time=0
EXTRACT: note_off channel=6 note=63 velocity=0 time=0.06490265625
EXTRACT: note_off channel=6 note=58 velocity=0 time=0
EXTRACT: note_off channel=9 note=46 velocity=0 time=0.012019010416666667
EXTRACT: note_off channel=14 note=46 velocity=0 time=0.012019010416666667
EXTRACT: note_off channel=1 note=27 velocity=0 time=0.019230416666666666
EXTRACT: note_on channel=14 note=58 velocity=64 time=0.00721140625
EXTRACT: note_off channel=14 note=58 velocity=0 time=0.10336348958333333
EXTRACT: note_on channel=9 note=46 velocity=71 time=0.012019010416666667
EXTRACT: note_on channel=1 note=27 velocity=95 time=0
EXTRACT: note_on channel=3 note=67 velocity=97 time=0
EXTRACT: note_on channel=4 note=79 velocity=87 time=0
EXTRACT: note_on channel=6 note=58 velocity=98 time=0
EXTRACT: note_on channel=6 note=65 velocity=95 time=0
EXTRACT: note_on channel=12 note=53 velocity=80 time=0
EXTRACT: note_on channel=12 note=58 velocity=78 time=0
EXTRACT: note_on channel=12 note=63 velocity=80 time=0
EXTRACT: note_on channel=14 note=46 velocity=67 time=0
EXTRACT: note_off channel=9 note=44 velocity=0 time=0.08894067708333334
EXTRACT: note_off channel=9 note=39 velocity=0 time=0.0024038020833333333
EXTRACT: note_off channel=9 note=40 velocity=0 time=0.0024038020833333333
EXTRACT: note_off channel=14 note=46 velocity=0 time=0
EXTRACT: note_off channel=3 note=68 velocity=0 time=0.009615208333333333
EXTRACT: note_off channel=4 note=80 velocity=0 time=0
EXTRACT: note_off channel=9 note=36 velocity=0 time=0.009615208333333333
EXTRACT: note_on channel=14 note=58 velocity=65 time=0.0024038020833333333
EXTRACT: note_off channel=14 note=58 velocity=0 time=0.1009596875
EXTRACT: note_on channel=9 note=36 velocity=122 time=0.0144228125
EXTRACT: note_on channel=9 note=39 velocity=65 time=0
EXTRACT: note_on channel=9 note=40 velocity=63 time=0
EXTRACT: note_on channel=9 note=44 velocity=101 time=0
EXTRACT: note_on channel=14 note=46 velocity=68 time=0
EXTRACT: note_off channel=14 note=46 velocity=0 time=0.09134447916666666
EXTRACT: note_off channel=9 note=46 velocity=0 time=0.012019010416666667
EXTRACT: note_on channel=14 note=58 velocity=65 time=0.012019010416666667
EXTRACT: note_off channel=14 note=58 velocity=0 time=0.09615208333333333
EXTRACT: note_off channel=6 note=58 velocity=0 time=0.004807604166666667
EXTRACT: note_on channel=9 note=46 velocity=70 time=0.0144228125
EXTRACT: note_on channel=1 note=31 velocity=85 time=0
EXTRACT: note_on channel=3 note=68 velocity=97 time=0
EXTRACT: note_on channel=4 note=80 velocity=87 time=0
EXTRACT: note_off channel=6 note=65 velocity=0 time=0
EXTRACT: note_on channel=14 note=46 velocity=67 time=0
EXTRACT: note_off channel=1 note=27 velocity=0 time=0.00721140625
EXTRACT: note_off channel=12 note=58 velocity=0 time=0.00721140625
EXTRACT: note_off channel=12 note=63 velocity=0 time=0.00721140625
EXTRACT: note_off channel=12 note=53 velocity=0 time=0.004807604166666667
EXTRACT: note_off channel=3 note=67 velocity=0 time=0.034855130208333335
EXTRACT: note_off channel=4 note=79 velocity=0 time=0
EXTRACT: note_off channel=9 note=44 velocity=0 time=0.022836119791666665
EXTRACT: note_off channel=14 note=46 velocity=0 time=0.009615208333333333
EXTRACT: note_on channel=14 note=58 velocity=66 time=0.02163421875
EXTRACT: note_off channel=9 note=36 velocity=0 time=0.0024038020833333333
EXTRACT: note_off channel=9 note=46 velocity=0 time=0.04086463541666667
EXTRACT: note_off channel=1 note=31 velocity=0 time=0.031249427083333333
EXTRACT: note_off channel=14 note=58 velocity=0 time=0.019230416666666666
EXTRACT: note_on channel=9 note=36 velocity=118 time=0.02163421875
EXTRACT: note_on channel=9 note=44 velocity=111 time=0
EXTRACT: note_on channel=1 note=34 velocity=104 time=0
EXTRACT: note_on channel=3 note=67 velocity=97 time=0
EXTRACT: note_on channel=4 note=79 velocity=87 time=0
EXTRACT: note_on channel=14 note=46 velocity=70 time=0
EXTRACT: note_off channel=3 note=68 velocity=0 time=0.054085546875
EXTRACT: note_off channel=4 note=80 velocity=0 time=0
EXTRACT: note_off channel=14 note=46 velocity=0 time=0.032451328125
EXTRACT: note_on channel=14 note=58 velocity=66 time=0.028845625
EXTRACT: note_off channel=14 note=58 velocity=0 time=0.11297869791666666
EXTRACT: note_on channel=9 note=46 velocity=75 time=0.0024038020833333333
EXTRACT: note_on channel=12 note=53 velocity=85 time=0
EXTRACT: note_on channel=12 note=58 velocity=80 time=0
EXTRACT: note_on channel=12 note=62 velocity=76 time=0
EXTRACT: note_on channel=14 note=46 velocity=68 time=0
EXTRACT: note_off channel=9 note=44 velocity=0 time=0.026441822916666666
EXTRACT: note_off channel=9 note=39 velocity=0 time=0.04086463541666667
EXTRACT: note_off channel=14 note=46 velocity=0 time=0.004807604166666667
EXTRACT: note_off channel=9 note=40 velocity=0 time=0.0024038020833333333
EXTRACT: note_off channel=12 note=58 velocity=0 time=0.019230416666666666
EXTRACT: note_off channel=9 note=36 velocity=0 time=0.00721140625
EXTRACT: note_off channel=12 note=62 velocity=0 time=0
EXTRACT: note_off channel=12 note=53 velocity=0 time=0.0144228125
EXTRACT: note_on channel=14 note=58 velocity=65 time=0
EXTRACT: note_off channel=1 note=34 velocity=0 time=0.07932546875
EXTRACT: note_off channel=14 note=58 velocity=0 time=0.004807604166666667
EXTRACT: note_on channel=9 note=36 velocity=118 time=0.031249427083333333
EXTRACT: note_on channel=9 note=39 velocity=62 time=0
EXTRACT: note_on channel=9 note=40 velocity=63 time=0
EXTRACT: note_on channel=9 note=44 velocity=92 time=0
EXTRACT: note_on channel=1 note=29 velocity=73 time=0
EXTRACT: note_on channel=6 note=58 velocity=88 time=0
EXTRACT: note_on channel=6 note=62 velocity=90 time=0
EXTRACT: note_on channel=14 note=46 velocity=68 time=0
EXTRACT: note_off channel=14 note=46 velocity=0 time=0.086536875
EXTRACT: note_off channel=9 note=46 velocity=0 time=0.026441822916666666
EXTRACT: note_on channel=14 note=58 velocity=65 time=0.0024038020833333333
EXTRACT: note_off channel=6 note=58 velocity=0 time=0.028845625
EXTRACT: note_off channel=6 note=62 velocity=0 time=0.012019010416666667
EXTRACT: note_off channel=1 note=29 velocity=0 time=0.012019010416666667
EXTRACT: note_off channel=14 note=58 velocity=0 time=0.033653229166666666
EXTRACT: note_on channel=9 note=46 velocity=63 time=0.028845625
EXTRACT: note_on channel=1 note=27 velocity=88 time=0
EXTRACT: note_on channel=3 note=65 velocity=97 time=0
EXTRACT: note_on channel=4 note=77 velocity=87 time=0
EXTRACT: note_on channel=6 note=58 velocity=90 time=0
EXTRACT: note_on channel=6 note=63 velocity=105 time=0
EXTRACT: note_on channel=12 note=53 velocity=80 time=0
EXTRACT: note_on channel=12 note=58 velocity=78 time=0
EXTRACT: note_on channel=12 note=62 velocity=68 time=0
EXTRACT: note_on channel=14 note=46 velocity=66 time=0
EXTRACT: note_off channel=9 note=44 velocity=0 time=0.036057031249999996
EXTRACT: note_off channel=12 note=62 velocity=0 time=0.04567223958333333
EXTRACT: note_off channel=12 note=58 velocity=0 time=0.0024038020833333333
EXTRACT: note_off channel=14 note=46 velocity=0 time=0.0024038020833333333
EXTRACT: note_off channel=12 note=53 velocity=0 time=0.012019010416666667
EXTRACT: note_on channel=14 note=58 velocity=65 time=0.016826614583333333
EXTRACT: note_off channel=9 note=36 velocity=0 time=0.02163421875
EXTRACT: note_off channel=3 note=67 velocity=0 time=0.030047526041666668
EXTRACT: note_off channel=4 note=79 velocity=0 time=0
EXTRACT: note_off channel=14 note=58 velocity=0 time=0.032451328125
EXTRACT: note_on channel=9 note=36 velocity=125 time=0.031249427083333333
EXTRACT: note_on channel=9 note=44 velocity=85 time=0
EXTRACT: note_on channel=12 note=53 velocity=85 time=0
EXTRACT: note_on channel=12 note=58 velocity=82 time=0
EXTRACT: note_on channel=12 note=63 velocity=82 time=0
EXTRACT: note_on channel=14 note=46 velocity=67 time=0
EXTRACT: note_off channel=6 note=58 velocity=0 time=0.012019010416666667
EXTRACT: note_off channel=6 note=63 velocity=0 time=0.019230416666666666
EXTRACT: note_off channel=9 note=46 velocity=0 time=0.04567223958333333
EXTRACT: note_off channel=14 note=46 velocity=0 time=0.0144228125
EXTRACT: note_on channel=14 note=58 velocity=65 time=0.024038020833333333
EXTRACT: note_off channel=1 note=27 velocity=0 time=0.06490265625
EXTRACT: note_off channel=12 note=58 velocity=0 time=0.0144228125
EXTRACT: note_off channel=14 note=58 velocity=0 time=0.012019010416666667
EXTRACT: note_off channel=12 note=63 velocity=0 time=0.004807604166666667
EXTRACT: note_on channel=9 note=46 velocity=71 time=0.019230416666666666
EXTRACT: note_on channel=1 note=27 velocity=95 time=0
EXTRACT: note_on channel=6 note=58 velocity=90 time=0
EXTRACT: note_on channel=6 note=63 velocity=101 time=0
EXTRACT: note_on channel=14 note=46 velocity=66 time=0
EXTRACT: note_off channel=12 note=53 velocity=0 time=0.060095052083333336
EXTRACT: note_off channel=9 note=44 velocity=0 time=0.028845625
EXTRACT: note_off channel=9 note=40 velocity=0 time=0.0024038020833333333
EXTRACT: note_off channel=14 note=46 velocity=0 time=0
EXTRACT: note_off channel=9 note=36 velocity=0 time=0.0024038020833333333
EXTRACT: note_off channel=9 note=39 velocity=0 time=0
EXTRACT: note_on channel=14 note=58 velocity=65 time=0.02163421875
EXTRACT: note_off channel=14 note=58 velocity=0 time=0.09374828125
EXTRACT: note_on channel=9 note=36 velocity=125 time=0.02163421875
EXTRACT: note_on channel=9 note=39 velocity=66 time=0
EXTRACT: note_on channel=9 note=40 velocity=65 time=0
EXTRACT: note_on channel=9 note=44 velocity=101 time=0
EXTRACT: note_on channel=12 note=53 velocity=82 time=0
EXTRACT: note_on channel=12 note=58 velocity=88 time=0
EXTRACT: note_on channel=12 note=63 velocity=82 time=0
EXTRACT: note_on channel=14 note=46 velocity=68 time=0
EXTRACT: note_off channel=14 note=46 velocity=0 time=0.09615208333333333
EXTRACT: note_off channel=9 note=46 velocity=0 time=0.00721140625
EXTRACT: note_on channel=14 note=58 velocity=65 time=0.012019010416666667
EXTRACT: note_off channel=6 note=58 velocity=0 time=0.028845625
EXTRACT: note_off channel=6 note=63 velocity=0 time=0.012019010416666667
EXTRACT: note_off channel=12 note=53 velocity=0 time=0.0024038020833333333
EXTRACT: note_off channel=12 note=58 velocity=0 time=0.04086463541666667
EXTRACT: note_off channel=12 note=63 velocity=0 time=0.016826614583333333
EXTRACT: note_off channel=14 note=58 velocity=0 time=0
EXTRACT: note_off channel=1 note=27 velocity=0 time=0.012019010416666667
EXTRACT: note_on channel=9 note=46 velocity=70 time=0.0024038020833333333
EXTRACT: note_on channel=1 note=31 velocity=62 time=0
EXTRACT: note_on channel=12 note=53 velocity=82 time=0
EXTRACT: note_on channel=12 note=58 velocity=73 time=0
EXTRACT: note_on channel=12 note=62 velocity=73 time=0
EXTRACT: note_on channel=14 note=46 velocity=68 time=0
EXTRACT: note_off channel=9 note=44 velocity=0 time=0.08413307291666666
EXTRACT: note_off channel=12 note=62 velocity=0 time=0.0024038020833333333
EXTRACT: note_off channel=9 note=36 velocity=0 time=0.004807604166666667
EXTRACT: note_off channel=14 note=46 velocity=0 time=0.0024038020833333333
EXTRACT: note_off channel=12 note=58 velocity=0 time=0.016826614583333333
EXTRACT: note_off channel=12 note=53 velocity=0 time=0
EXTRACT: note_on channel=14 note=58 velocity=64 time=0.004807604166666667
EXTRACT: note_off channel=9 note=46 velocity=0 time=0.0432684375
EXTRACT: note_off channel=1 note=31 velocity=0 time=0.02163421875
EXTRACT: note_off channel=14 note=58 velocity=0 time=0.036057031249999996
EXTRACT: note_on channel=9 note=36 velocity=125 time=0.0144228125
EXTRACT: note_on channel=9 note=44 velocity=111 time=0
EXTRACT: note_on channel=1 note=34 velocity=82 time=0
EXTRACT: note_on channel=3 note=62 velocity=97 time=0
EXTRACT: note_on channel=4 note=74 velocity=87 time=0
EXTRACT: note_on channel=14 note=46 velocity=68 time=0
EXTRACT: note_off channel=14 note=46 velocity=0 time=0.09374828125
EXTRACT: note_on channel=14 note=58 velocity=65 time=0.02163421875
EXTRACT: note_off channel=3 note=62 velocity=0 time=0.013220911458333333
EXTRACT: note_off channel=4 note=74 velocity=0 time=0
EXTRACT: note_off channel=3 note=65 velocity=0 time=0.04567223958333333
EXTRACT: note_off channel=4 note=77 velocity=0 time=0
EXTRACT: note_off channel=14 note=58 velocity=0 time=0.046874140625
EXTRACT: note_on channel=9 note=46 velocity=75 time=0.009615208333333333
EXTRACT: note_on channel=3 note=62 velocity=97 time=0
EXTRACT: note_on channel=4 note=74 velocity=87 time=0
EXTRACT: note_on channel=6 note=58 velocity=92 time=0
EXTRACT: note_on channel=6 note=62 velocity=92 time=0
EXTRACT: note_on channel=12 note=53 velocity=82 time=0
EXTRACT: note_on channel=12 note=58 velocity=82 time=0
EXTRACT: note_on channel=12 note=62 velocity=73 time=0
EXTRACT: note_on channel=14 note=46 velocity=67 time=0
EXTRACT: note_off channel=9 note=44 velocity=0 time=0.026441822916666666
EXTRACT: note_off channel=9 note=39 velocity=0 time=0.012019010416666667
EXTRACT: note_off channel=9 note=40 velocity=0 time=0.00721140625
EXTRACT: note_off channel=14 note=46 velocity=0 time=0.03846083333333333
EXTRACT: note_off channel=6 note=58 velocity=0 time=0.00721140625
EXTRACT: note_off channel=6 note=62 velocity=0 time=0.0024038020833333333
EXTRACT: note_off channel=12 note=58 velocity=0 time=0.0024038020833333333
EXTRACT: note_off channel=12 note=62 velocity=0 time=0.0024038020833333333
EXTRACT: note_off channel=9 note=36 velocity=0 time=0.004807604166666667
EXTRACT: note_off channel=12 note=53 velocity=0 time=0.0024038020833333333
EXTRACT: note_on channel=14 note=58 velocity=65 time=0.009615208333333333
EXTRACT: note_off channel=14 note=58 velocity=0 time=0.10576729166666667
EXTRACT: note_off channel=1 note=34 velocity=0 time=0.004807604166666667
EXTRACT: note_on channel=9 note=36 velocity=122 time=0.004807604166666667
EXTRACT: note_on channel=9 note=39 velocity=65 time=0
EXTRACT: note_on channel=9 note=40 velocity=65 time=0
EXTRACT: note_on channel=9 note=44 velocity=92 time=0
EXTRACT: note_on channel=1 note=29 velocity=76 time=0
EXTRACT: note_on channel=6 note=58 velocity=84 time=0
EXTRACT: note_on channel=6 note=62 velocity=86 time=0
EXTRACT: note_on channel=14 note=46 velocity=68 time=0
EXTRACT: note_off channel=14 note=46 velocity=0 time=0.09855588541666667
EXTRACT: note_off channel=6 note=58 velocity=0 time=0.004807604166666667
EXTRACT: note_off channel=6 note=62 velocity=0 time=0.00721140625
EXTRACT: note_off channel=9 note=46 velocity=0 time=0.0024038020833333333
EXTRACT: note_on channel=14 note=58 velocity=65 time=0.0024038020833333333
EXTRACT: note_off channel=14 note=58 velocity=0 time=0.09374828125
EXTRACT: note_off channel=1 note=29 velocity=0 time=0.016826614583333333
EXTRACT: note_on channel=9 note=46 velocity=63 time=0.004807604166666667
EXTRACT: note_on channel=1 note=27 velocity=91 time=0
EXTRACT: note_on channel=3 note=60 velocity=97 time=0
EXTRACT: note_on channel=4 note=72 velocity=87 time=0
EXTRACT: note_on channel=6 note=58 velocity=98 time=0
EXTRACT: note_on channel=6 note=63 velocity=105 time=0
EXTRACT: note_on channel=12 note=53 velocity=88 time=0
EXTRACT: note_on channel=12 note=58 velocity=78 time=0
EXTRACT: note_on channel=12 note=63 velocity=74 time=0
EXTRACT: note_on channel=14 note=46 velocity=67 time=0
EXTRACT: note_off channel=9 note=44 velocity=0 time=0.036057031249999996
EXTRACT: note_off channel=3 note=62 velocity=0 time=0.025239921875
EXTRACT: note_off channel=4 note=74 velocity=0 time=0
EXTRACT: note_off channel=14 note=46 velocity=0 time=0.02764372395833333
EXTRACT: note_off channel=12 note=58 velocity=0 time=0.02163421875
EXTRACT: note_on channel=14 note=58 velocity=65 time=0.004807604166666667
EXTRACT: note_off channel=9 note=36 velocity=0 time=0.0024038020833333333
EXTRACT: note_off channel=12 note=63 velocity=0 time=0.004807604166666667
EXTRACT: note_off channel=12 note=53 velocity=0 time=0
EXTRACT: note_off channel=6 note=58 velocity=0 time=0.07211406249999999
EXTRACT: note_off channel=14 note=58 velocity=0 time=0.016826614583333333
EXTRACT: note_on channel=9 note=36 velocity=125 time=0.019230416666666666
EXTRACT: note_on channel=9 note=44 velocity=85 time=0
EXTRACT: note_on channel=14 note=46 velocity=68 time=0
EXTRACT: note_off channel=6 note=63 velocity=0 time=0.004807604166666667
EXTRACT: note_off channel=9 note=46 velocity=0 time=0.07211406249999999
EXTRACT: note_off channel=14 note=46 velocity=0 time=0.012019010416666667
EXTRACT: note_off channel=1 note=27 velocity=0 time=0.019230416666666666
EXTRACT: note_on channel=14 note=58 velocity=64 time=0.00721140625
EXTRACT: note_off channel=14 note=58 velocity=0 time=0.10336348958333333
EXTRACT: note_on channel=9 note=46 velocity=71 time=0.012019010416666667
EXTRACT: note_on channel=1 note=27 velocity=95 time=0
EXTRACT: note_on channel=3 note=58 velocity=97 time=0
EXTRACT: note_on channel=4 note=70 velocity=87 time=0
EXTRACT: note_on channel=6 note=58 velocity=101 time=0
EXTRACT: note_on channel=6 note=65 velocity=98 time=0
EXTRACT: note_on channel=12 note=53 velocity=85 time=0
EXTRACT: note_on channel=12 note=58 velocity=88 time=0
EXTRACT: note_on channel=12 note=63 velocity=88 time=0
EXTRACT: note_on channel=14 note=46 velocity=67 time=0
EXTRACT: note_off channel=3 note=60 velocity=0 time=0.033653229166666666
EXTRACT: note_off channel=4 note=72 velocity=0 time=0
EXTRACT: note_off channel=9 note=40 velocity=0 time=0.036057031249999996
EXTRACT: note_off channel=9 note=39 velocity=0 time=0
EXTRACT: note_off channel=9 note=44 velocity=0 time=0.019230416666666666
EXTRACT: note_off channel=14 note=46 velocity=0 time=0.004807604166666667
EXTRACT: note_off channel=9 note=36 velocity=0 time=0.00721140625
EXTRACT: note_on channel=14 note=58 velocity=65 time=0.0144228125
EXTRACT: note_off channel=14 note=58 velocity=0 time=0.1009596875
EXTRACT: note_on channel=9 note=36 velocity=125 time=0.0144228125
EXTRACT: note_on channel=9 note=39 velocity=65 time=0
EXTRACT: note_on channel=9 note=40 velocity=64 time=0
EXTRACT: note_on channel=9 note=44 velocity=101 time=0
EXTRACT: note_on channel=14 note=46 velocity=68 time=0
EXTRACT: note_off channel=14 note=46 velocity=0 time=0.09134447916666666
EXTRACT: note_off channel=9 note=46 velocity=0 time=0.012019010416666667
EXTRACT: note_on channel=14 note=58 velocity=65 time=0.012019010416666667
EXTRACT: note_off channel=12 note=58 velocity=0 time=0.0144228125
EXTRACT: note_off channel=12 note=63 velocity=0 time=0.009615208333333333
EXTRACT: note_off channel=12 note=53 velocity=0 time=0
EXTRACT: note_off channel=14 note=58 velocity=0 time=0.07211406249999999
EXTRACT: note_on channel=9 note=46 velocity=70 time=0.019230416666666666
EXTRACT: note_on channel=1 note=31 velocity=85 time=0
EXTRACT: note_on channel=12 note=53 velocity=78 time=0
EXTRACT: note_on channel=12 note=58 velocity=80 time=0
EXTRACT: note_on channel=12 note=63 velocity=82 time=0
EXTRACT: note_on channel=14 note=46 velocity=67 time=0
EXTRACT: note_off channel=1 note=27 velocity=0 time=0.00721140625
EXTRACT: note_off channel=6 note=58 velocity=0 time=0.012019010416666667
EXTRACT: note_off channel=6 note=65 velocity=0 time=0.02163421875
EXTRACT: note_off channel=9 note=44 velocity=0 time=0.0432684375
EXTRACT: note_off channel=12 note=58 velocity=0 time=0.004807604166666667
EXTRACT: note_off channel=14 note=46 velocity=0 time=0.004807604166666667
EXTRACT: note_off channel=12 note=63 velocity=0 time=0.012019010416666667
EXTRACT: note_off channel=12 note=53 velocity=0 time=0
EXTRACT: note_off channel=9 note=36 velocity=0 time=0.0024038020833333333
EXTRACT: note_on channel=14 note=58 velocity=66 time=0.00721140625
EXTRACT: note_off channel=9 note=46 velocity=0 time=0.0432684375
EXTRACT: note_off channel=1 note=31 velocity=0 time=0.031249427083333333
EXTRACT: note_off channel=14 note=58 velocity=0 time=0.019230416666666666
EXTRACT: note_on channel=9 note=36 velocity=122 time=0.02163421875
EXTRACT: note_on channel=9 note=44 velocity=111 time=0
EXTRACT: note_on channel=1 note=34 velocity=104 time=0
EXTRACT: note_on channel=3 note=62 velocity=97 time=0
EXTRACT: note_on channel=4 note=74 velocity=87 time=0
EXTRACT: note_on channel=12 note=53 velocity=88 time=0
EXTRACT: note_on channel=12 note=58 velocity=78 time=0
EXTRACT: note_on channel=12 note=62 velocity=76 time=0
EXTRACT: note_on channel=14 note=46 velocity=70 time=0
EXTRACT: note_off channel=14 note=46 velocity=0 time=0.086536875
EXTRACT: note_off channel=12 note=58 velocity=0 time=0.009615208333333333
EXTRACT: note_off channel=12 note=62 velocity=0 time=0.016826614583333333
EXTRACT: note_on channel=14 note=58 velocity=66 time=0.0024038020833333333
EXTRACT: note_off channel=3 note=58 velocity=0 time=0.003605703125
EXTRACT: note_off channel=4 note=70 velocity=0 time=0
EXTRACT: note_off channel=12 note=53 velocity=0 time=0.003605703125
EXTRACT: note_off channel=14 note=58 velocity=0 time=0.10576729166666667
EXTRACT: note_on channel=9 note=46 velocity=75 time=0.0024038020833333333
EXTRACT: note_on channel=14 note=46 velocity=68 time=0
EXTRACT: note_off channel=9 note=44 velocity=0 time=0.026441822916666666
EXTRACT: note_off channel=9 note=39 velocity=0 time=0.02163421875
EXTRACT: note_off channel=9 note=40 velocity=0 time=0.004807604166666667
EXTRACT: note_off channel=14 note=46 velocity=0 time=0.019230416666666666
EXTRACT: note_off channel=9 note=36 velocity=0 time=0.0144228125
EXTRACT: note_on channel=14 note=58 velocity=65 time=0.028845625
EXTRACT: note_off channel=1 note=34 velocity=0 time=0.07932546875
EXTRACT: note_off channel=14 note=58 velocity=0 time=0.004807604166666667
EXTRACT: note_on channel=9 note=36 velocity=118 time=0.031249427083333333
EXTRACT: note_on channel=9 note=39 velocity=71 time=0
EXTRACT: note_on channel=9 note=40 velocity=72 time=0
EXTRACT: note_on channel=9 note=44 velocity=92 time=0
EXTRACT: note_on channel=1 note=29 velocity=73 time=0
EXTRACT: note_on channel=6 note=58 velocity=88 time=0
EXTRACT: note_on channel=6 note=62 velocity=90 time=0
EXTRACT: note_on channel=12 note=53 velocity=80 time=0
EXTRACT: note_on channel=12 note=58 velocity=73 time=0
EXTRACT: note_on channel=12 note=62 velocity=73 time=0
EXTRACT: note_on channel=14 note=46 velocity=68 time=0
EXTRACT: note_off channel=14 note=46 velocity=0 time=0.086536875
EXTRACT: note_off channel=12 note=62 velocity=0 time=0.016826614583333333
EXTRACT: note_off channel=9 note=46 velocity=0 time=0.009615208333333333
EXTRACT: note_off channel=12 note=58 velocity=0 time=0
EXTRACT: note_on channel=14 note=58 velocity=65 time=0.0024038020833333333
EXTRACT: note_off channel=12 note=53 velocity=0 time=0.00721140625
EXTRACT: note_off channel=6 note=58 velocity=0 time=0.009615208333333333
EXTRACT: note_off channel=6 note=62 velocity=0 time=0.004807604166666667
EXTRACT: note_off channel=1 note=29 velocity=0 time=0.031249427083333333
EXTRACT: note_off channel=14 note=58 velocity=0 time=0.033653229166666666
EXTRACT: note_on channel=9 note=46 velocity=63 time=0.028845625
EXTRACT: note_on channel=1 note=27 velocity=88 time=0
EXTRACT: note_on channel=3 note=65 velocity=97 time=0
EXTRACT: note_on channel=4 note=77 velocity=87 time=0
EXTRACT: note_on channel=6 note=58 velocity=92 time=0
EXTRACT: note_on channel=6 note=63 velocity=101 time=0
EXTRACT: note_on channel=12 note=53 velocity=76 time=0
EXTRACT: note_on channel=12 note=58 velocity=74 time=0
EXTRACT: note_on channel=12 note=63 velocity=74 time=0
EXTRACT: note_on channel=14 note=46 velocity=66 time=0
EXTRACT: note_off channel=9 note=44 velocity=0 time=0.036057031249999996
EXTRACT: note_off channel=3 note=62 velocity=0 time=0.0012019010416666667
EXTRACT: note_off channel=4 note=74 velocity=0 time=0
EXTRACT: note_off channel=14 note=46 velocity=0 time=0.049277942708333335
EXTRACT: note_off channel=9 note=36 velocity=0 time=0.019230416666666666
EXTRACT: note_off channel=12 note=53 velocity=0 time=0.00721140625
EXTRACT: note_on channel=14 note=58 velocity=65 time=0.0024038020833333333
EXTRACT: note_off channel=12 note=58 velocity=0 time=0.016826614583333333
EXTRACT: note_off channel=12 note=63 velocity=0 time=0.012019010416666667
EXTRACT: note_off channel=14 note=58 velocity=0 time=0.05528744791666666
EXTRACT: note_on channel=9 note=36 velocity=125 time=0.031249427083333333
EXTRACT: note_on channel=9 note=44 velocity=85 time=0
EXTRACT: note_on channel=14 note=46 velocity=67 time=0
EXTRACT: note_off channel=6 note=58 velocity=0 time=0.06730645833333333
EXTRACT: note_off channel=9 note=46 velocity=0 time=0.009615208333333333
EXTRACT: note_off channel=6 note=63 velocity=0 time=0
EXTRACT: note_off channel=14 note=46 velocity=0 time=0.0144228125
EXTRACT: note_on channel=14 note=58 velocity=65 time=0.024038020833333333
EXTRACT: note_off channel=1 note=27 velocity=0 time=0.06490265625
EXTRACT: note_off channel=14 note=58 velocity=0 time=0.026441822916666666
EXTRACT: note_on channel=9 note=46 velocity=71 time=0.024038020833333333
EXTRACT: note_on channel=1 note=27 velocity=95 time=0
EXTRACT: note_on channel=6 note=58 velocity=90 time=0
EXTRACT: note_on channel=6 note=63 velocity=98 time=0
EXTRACT: note_on channel=12 note=53 velocity=71 time=0
EXTRACT: note_on channel=12 note=58 velocity=78 time=0
EXTRACT: note_on channel=12 note=63 velocity=78 time=0
EXTRACT: note_on channel=14 note=46 velocity=66 time=0
EXTRACT: note_off channel=9 note=39 velocity=0 time=0.0144228125
EXTRACT: note_off channel=9 note=40 velocity=0 time=0.0024038020833333333
EXTRACT: note_off channel=9 note=36 velocity=0 time=0.06971026041666667
EXTRACT: note_off channel=9 note=44 velocity=0 time=0.0024038020833333333
EXTRACT: note_off channel=14 note=46 velocity=0 time=0.0024038020833333333
EXTRACT: note_on channel=14 note=58 velocity=65 time=0.024038020833333333
EXTRACT: note_off channel=14 note=58 velocity=0 time=0.09374828125
EXTRACT: note_on channel=9 note=36 velocity=122 time=0.02163421875
EXTRACT: note_on channel=9 note=39 velocity=62 time=0
EXTRACT: note_on channel=9 note=40 velocity=68 time=0
EXTRACT: note_on channel=9 note=44 velocity=101 time=0
EXTRACT: note_on channel=14 note=46 velocity=68 time=0
EXTRACT: note_off channel=14 note=46 velocity=0 time=0.09615208333333333
EXTRACT: note_off channel=9 note=46 velocity=0 time=0.00721140625
EXTRACT: note_off channel=12 note=53 velocity=0 time=0.004807604166666667
EXTRACT: note_on channel=14 note=58 velocity=65 time=0.00721140625
EXTRACT: note_off channel=12 note=58 velocity=0 time=0.00721140625
EXTRACT: note_off channel=12 note=63 velocity=0 time=0.0144228125
EXTRACT: note_off channel=6 note=58 velocity=0 time=0.004807604166666667
EXTRACT: note_off channel=6 note=63 velocity=0 time=0.016826614583333333
EXTRACT: note_off channel=14 note=58 velocity=0 time=0.05769125
EXTRACT: note_off channel=1 note=27 velocity=0 time=0.012019010416666667
EXTRACT: note_on channel=9 note=46 velocity=70 time=0.0024038020833333333
EXTRACT: note_on channel=1 note=31 velocity=62 time=0
EXTRACT: note_on channel=12 note=53 velocity=71 time=0
EXTRACT: note_on channel=12 note=58 velocity=73 time=0
EXTRACT: note_on channel=12 note=63 velocity=68 time=0
EXTRACT: note_on channel=14 note=46 velocity=68 time=0
EXTRACT: note_off channel=9 note=44 velocity=0 time=0.08413307291666666
EXTRACT: note_off channel=14 note=46 velocity=0 time=0.009615208333333333
EXTRACT: note_off channel=9 note=36 velocity=0 time=0.00721140625
EXTRACT: note_on channel=14 note=58 velocity=64 time=0.0144228125
EXTRACT: note_off channel=12 note=53 velocity=0 time=0.00721140625
EXTRACT: note_off channel=12 note=58 velocity=0 time=0.012019010416666667
EXTRACT: note_off channel=9 note=46 velocity=0 time=0.024038020833333333
EXTRACT: note_off channel=12 note=63 velocity=0 time=0.004807604166666667
EXTRACT: note_off channel=1 note=31 velocity=0 time=0.016826614583333333
EXTRACT: note_off channel=14 note=58 velocity=0 time=0.036057031249999996
EXTRACT: note_on channel=9 note=36 velocity=122 time=0.0144228125
EXTRACT: note_on channel=9 note=44 velocity=111 time=0
EXTRACT: note_on channel=1 note=34 velocity=82 time=0
EXTRACT: note_on channel=3 note=62 velocity=97 time=0
EXTRACT: note_on channel=4 note=74 velocity=87 time=0
EXTRACT: note_on channel=12 note=53 velocity=74 time=0
EXTRACT: note_on channel=12 note=58 velocity=73 time=0
EXTRACT: note_on channel=12 note=62 velocity=71 time=0
EXTRACT: note_on channel=14 note=46 velocity=68 time=0
EXTRACT: note_off channel=12 note=58 velocity=0 time=0.09374828125
EXTRACT: note_off channel=14 note=46 velocity=0 time=0
EXTRACT: note_off channel=12 note=62 velocity=0 time=0.012019010416666667
EXTRACT: note_off channel=12 note=53 velocity=0 time=0.004807604166666667
EXTRACT: note_on channel=14 note=58 velocity=65 time=0.004807604166666667
EXTRACT: note_off channel=3 note=65 velocity=0 time=0.09495018229166667
EXTRACT: note_off channel=4 note=77 velocity=0 time=0
EXTRACT: note_off channel=14 note=58 velocity=0 time=0.010817109375
EXTRACT: note_on channel=9 note=46 velocity=75 time=0.009615208333333333
EXTRACT: note_on channel=14 note=46 velocity=67 time=0
EXTRACT: note_off channel=3 note=62 velocity=0 time=0.024038020833333333
EXTRACT: note_off channel=4 note=74 velocity=0 time=0
EXTRACT: note_off channel=9 note=44 velocity=0 time=0.0024038020833333333
EXTRACT: note_off channel=14 note=46 velocity=0 time=0.05769125
EXTRACT: note_off channel=9 note=40 velocity=0 time=0.0024038020833333333
EXTRACT: note_off channel=9 note=39 velocity=0 time=0.00721140625
EXTRACT: note_off channel=9 note=36 velocity=0 time=0.00721140625
EXTRACT: note_on channel=14 note=58 velocity=65 time=0.0144228125
EXTRACT: note_off channel=14 note=58 velocity=0 time=0.10576729166666667
EXTRACT: note_off channel=1 note=34 velocity=0 time=0.004807604166666667
EXTRACT: note_on channel=9 note=36 velocity=122 time=0.004807604166666667
EXTRACT: note_on channel=9 note=39 velocity=66 time=0
EXTRACT: note_on channel=9 note=40 velocity=66 time=0
EXTRACT: note_on channel=9 note=44 velocity=92 time=0
EXTRACT: note_on channel=1 note=29 velocity=76 time=0
EXTRACT: note_on channel=3 note=62 velocity=97 time=0
EXTRACT: note_on channel=4 note=74 velocity=87 time=0
EXTRACT: note_on channel=6 note=58 velocity=90 time=0
EXTRACT: note_on channel=6 note=62 velocity=95 time=0
EXTRACT: note_on channel=12 note=53 velocity=82 time=0
EXTRACT: note_on channel=12 note=58 velocity=78 time=0
EXTRACT: note_on channel=12 note=62 velocity=73 time=0
EXTRACT: note_on channel=14 note=46 velocity=68 time=0
EXTRACT: note_off channel=14 note=46 velocity=0 time=0.09855588541666667
EXTRACT: note_off channel=9 note=46 velocity=0 time=0.0144228125
EXTRACT: note_on channel=14 note=58 velocity=65 time=0.0024038020833333333
EXTRACT: note_off channel=6 note=58 velocity=0 time=0.019230416666666666
EXTRACT: note_off channel=6 note=62 velocity=0 time=0.012019010416666667
EXTRACT: note_off channel=12 note=62 velocity=0 time=0.0024038020833333333
EXTRACT: note_off channel=12 note=58 velocity=0 time=0
EXTRACT: note_off channel=12 note=53 velocity=0 time=0
EXTRACT: note_off channel=14 note=58 velocity=0 time=0.060095052083333336
EXTRACT: note_off channel=1 note=29 velocity=0 time=0.016826614583333333
EXTRACT: note_on channel=9 note=46 velocity=63 time=0.004807604166666667
EXTRACT: note_on channel=1 note=27 velocity=91 time=0
EXTRACT: note_on channel=3 note=60 velocity=97 time=0
EXTRACT: note_on channel=4 note=72 velocity=87 time=0
EXTRACT: note_on channel=6 note=58 velocity=101 time=0
EXTRACT: note_on channel=6 note=63 velocity=105 time=0
EXTRACT: note_on channel=12 note=53 velocity=82 time=0
EXTRACT: note_on channel=12 note=58 velocity=80 time=0
EXTRACT: note_on channel=12 note=63 velocity=80 time=0
EXTRACT: note_on channel=14 note=46 velocity=67 time=0
EXTRACT: note_off channel=9 note=44 velocity=0 time=0.036057031249999996
EXTRACT: note_off channel=3 note=62 velocity=0 time=0.018028515624999998
EXTRACT: note_off channel=4 note=74 velocity=0 time=0
EXTRACT: note_off channel=14 note=46 velocity=0 time=0.034855130208333335
EXTRACT: note_on channel=14 note=58 velocity=65 time=0.026441822916666666
EXTRACT: note_off channel=12 note=58 velocity=0 time=0.019230416666666666
EXTRACT: note_off channel=12 note=63 velocity=0 time=0.004807604166666667
EXTRACT: note_off channel=12 note=53 velocity=0 time=0.009615208333333333
EXTRACT: note_off channel=9 note=36 velocity=0 time=0.004807604166666667
EXTRACT: note_off channel=14 note=58 velocity=0 time=0.05769125
EXTRACT: note_on channel=9 note=36 velocity=118 time=0.019230416666666666
EXTRACT: note_on channel=9 note=44 velocity=85 time=0
EXTRACT: note_on channel=14 note=46 velocity=68 time=0
EXTRACT: note_off channel=6 note=58 velocity=0 time=0.033653229166666666
EXTRACT: note_off channel=6 note=63 velocity=0 time=0.012019010416666667
EXTRACT: note_off channel=9 note=46 velocity=0 time=0.031249427083333333
EXTRACT: note_off channel=14 note=46 velocity=0 time=0.012019010416666667
EXTRACT: note_off channel=1 note=27 velocity=0 time=0.019230416666666666
EXTRACT: note_on channel=14 note=58 velocity=64 time=0.00721140625
EXTRACT: note_off channel=3 note=60 velocity=0 time=0.086536875
EXTRACT: note_off channel=4 note=72 velocity=0 time=0
EXTRACT: note_off channel=14 note=58 velocity=0 time=0.016826614583333333
EXTRACT: note_on channel=9 note=46 velocity=71 time=0.012019010416666667
EXTRACT: note_on channel=1 note=27 velocity=95 time=0
EXTRACT: note_on channel=3 note=58 velocity=97 time=0
EXTRACT: note_on channel=4 note=70 velocity=87 time=0
EXTRACT: note_on channel=6 note=58 velocity=105 time=0
EXTRACT: note_on channel=6 note=65 velocity=101 time=0
EXTRACT: note_on channel=12 note=53 velocity=80 time=0
EXTRACT: note_on channel=12 note=58 velocity=78 time=0
EXTRACT: note_on channel=12 note=63 velocity=80 time=0
EXTRACT: note_on channel=14 note=46 velocity=67 time=0
EXTRACT: note_off channel=9 note=40 velocity=0 time=0.086536875
EXTRACT: note_off channel=9 note=39 velocity=0 time=0
EXTRACT: note_off channel=9 note=44 velocity=0 time=0.0024038020833333333
EXTRACT: note_off channel=14 note=46 velocity=0 time=0.004807604166666667
EXTRACT: note_off channel=9 note=36 velocity=0 time=0.0024038020833333333
EXTRACT: note_on channel=14 note=58 velocity=65 time=0.019230416666666666
EXTRACT: note_off channel=14 note=58 velocity=0 time=0.1009596875
EXTRACT: note_on channel=9 note=36 velocity=122 time=0.0144228125
EXTRACT: note_on channel=9 note=39 velocity=71 time=0
EXTRACT: note_on channel=9 note=40 velocity=72 time=0
EXTRACT: note_on channel=9 note=44 velocity=101 time=0
EXTRACT: note_on channel=14 note=46 velocity=68 time=0
EXTRACT: note_off channel=14 note=46 velocity=0 time=0.09134447916666666
EXTRACT: note_off channel=9 note=46 velocity=0 time=0.012019010416666667
EXTRACT: note_on channel=14 note=58 velocity=65 time=0.012019010416666667
EXTRACT: note_off channel=6 note=58 velocity=0 time=0.09134447916666666
EXTRACT: note_off channel=6 note=65 velocity=0 time=0.004807604166666667
EXTRACT: note_off channel=14 note=58 velocity=0 time=0
EXTRACT: note_on channel=9 note=46 velocity=70 time=0.019230416666666666
EXTRACT: note_on channel=1 note=31 velocity=85 time=0
EXTRACT: note_on channel=14 note=46 velocity=67 time=0
EXTRACT: note_off channel=1 note=27 velocity=0 time=0.00721140625
EXTRACT: note_off channel=12 note=58 velocity=0 time=0.00721140625
EXTRACT: note_off channel=12 note=63 velocity=0 time=0.00721140625
EXTRACT: note_off channel=12 note=53 velocity=0 time=0.004807604166666667
EXTRACT: note_off channel=9 note=44 velocity=0 time=0.05769125
EXTRACT: note_off channel=14 note=46 velocity=0 time=0.009615208333333333
EXTRACT: note_off channel=9 note=36 velocity=0 time=0.012019010416666667
EXTRACT: note_on channel=14 note=58 velocity=66 time=0.009615208333333333
EXTRACT: note_off channel=9 note=46 velocity=0 time=0.0432684375
EXTRACT: note_off channel=1 note=31 velocity=0 time=0.031249427083333333
EXTRACT: note_off channel=14 note=58 velocity=0 time=0.019230416666666666
EXTRACT: note_on channel=9 note=36 velocity=122 time=0.02163421875
EXTRACT: note_on channel=9 note=44 velocity=111 time=0
EXTRACT: note_on channel=1 note=34 velocity=104 time=0
EXTRACT: note_on channel=3 note=62 velocity=97 time=0
EXTRACT: note_on channel=4 note=74 velocity=87 time=0
EXTRACT: note_on channel=14 note=46 velocity=70 time=0
EXTRACT: note_off channel=3 note=58 velocity=0 time=0.04086463541666667
EXTRACT: note_off channel=4 note=70 velocity=0 time=0
EXTRACT: note_off channel=14 note=46 velocity=0 time=0.04567223958333333
EXTRACT: note_on channel=14 note=58 velocity=66 time=0.028845625
EXTRACT: note_off channel=14 note=58 velocity=0 time=0.11297869791666666
EXTRACT: note_on channel=9 note=46 velocity=75 time=0.0024038020833333333
EXTRACT: note_on channel=12 note=53 velocity=85 time=0
EXTRACT: note_on channel=12 note=58 velocity=80 time=0
EXTRACT: note_on channel=12 note=62 velocity=76 time=0
EXTRACT: note_on channel=14 note=46 velocity=68 time=0
EXTRACT: note_off channel=9 note=44 velocity=0 time=0.026441822916666666
EXTRACT: note_off channel=9 note=40 velocity=0 time=0.026441822916666666
EXTRACT: note_off channel=9 note=39 velocity=0 time=0
EXTRACT: note_off channel=14 note=46 velocity=0 time=0.019230416666666666
EXTRACT: note_off channel=12 note=58 velocity=0 time=0.02163421875
EXTRACT: note_off channel=12 note=62 velocity=0 time=0.00721140625
EXTRACT: note_off channel=9 note=36 velocity=0 time=0.0024038020833333333
EXTRACT: note_off channel=12 note=53 velocity=0 time=0.012019010416666667
EXTRACT: note_on channel=14 note=58 velocity=65 time=0
EXTRACT: note_off channel=1 note=34 velocity=0 time=0.07932546875
EXTRACT: note_off channel=14 note=58 velocity=0 time=0.004807604166666667
EXTRACT: note_on channel=9 note=36 velocity=122 time=0.031249427083333333
EXTRACT: note_on channel=9 note=39 velocity=76 time=0
EXTRACT: note_on channel=9 note=40 velocity=74 time=0
EXTRACT: note_on channel=9 note=44 velocity=92 time=0
EXTRACT: note_on channel=1 note=29 velocity=73 time=0
EXTRACT: note_on channel=6 note=58 velocity=92 time=0
EXTRACT: note_on channel=6 note=62 velocity=92 time=0
EXTRACT: note_on channel=14 note=46 velocity=68 time=0
EXTRACT: note_off channel=14 note=46 velocity=0 time=0.086536875
EXTRACT: note_off channel=9 note=46 velocity=0 time=0.026441822916666666
EXTRACT: note_off channel=6 note=58 velocity=0 time=0.0024038020833333333
EXTRACT: note_on channel=14 note=58 velocity=65 time=0
EXTRACT: note_off channel=6 note=62 velocity=0 time=0.004807604166666667
EXTRACT: note_off channel=1 note=29 velocity=0 time=0.048076041666666666
EXTRACT: note_off channel=14 note=58 velocity=0 time=0.033653229166666666
EXTRACT: note_on channel=9 note=46 velocity=63 time=0.028845625
EXTRACT: note_on channel=1 note=27 velocity=88 time=0
EXTRACT: note_on channel=3 note=63 velocity=97 time=0
EXTRACT: note_on channel=4 note=75 velocity=87 time=0
EXTRACT: note_on channel=6 note=58 velocity=92 time=0
EXTRACT: note_on channel=6 note=63 velocity=101 time=0
EXTRACT: note_on channel=12 note=53 velocity=80 time=0
EXTRACT: note_on channel=12 note=58 velocity=78 time=0
EXTRACT: note_on channel=12 note=62 velocity=68 time=0
EXTRACT: note_on channel=14 note=46 velocity=66 time=0
EXTRACT: note_off channel=9 note=44 velocity=0 time=0.036057031249999996
EXTRACT: note_off channel=12 note=62 velocity=0 time=0.04567223958333333
EXTRACT: note_off channel=12 note=58 velocity=0 time=0.0024038020833333333
EXTRACT: note_off channel=14 note=46 velocity=0 time=0.0024038020833333333
EXTRACT: note_off channel=9 note=36 velocity=0 time=0.004807604166666667
EXTRACT: note_off channel=12 note=53 velocity=0 time=0.00721140625
EXTRACT: note_on channel=14 note=58 velocity=65 time=0.016826614583333333
EXTRACT: note_off channel=3 note=62 velocity=0 time=0.054085546875
EXTRACT: note_off channel=4 note=74 velocity=0 time=0
EXTRACT: note_off channel=14 note=58 velocity=0 time=0.030047526041666668
EXTRACT: note_on channel=9 note=36 velocity=122 time=0.031249427083333333
EXTRACT: note_on channel=9 note=44 velocity=85 time=0
EXTRACT: note_on channel=3 note=62 velocity=97 time=0
EXTRACT: note_on channel=4 note=74 velocity=87 time=0
EXTRACT: note_on channel=12 note=53 velocity=85 time=0
EXTRACT: note_on channel=12 note=58 velocity=82 time=0
EXTRACT: note_on channel=12 note=63 velocity=82 time=0
EXTRACT: note_on channel=14 note=46 velocity=67 time=0
EXTRACT: note_off channel=6 note=58 velocity=0 time=0.03846083333333333
EXTRACT: note_off channel=3 note=63 velocity=0 time=0.00721140625
EXTRACT: note_off channel=4 note=75 velocity=0 time=0
EXTRACT: note_off channel=6 note=63 velocity=0 time=0.004807604166666667
EXTRACT: note_off channel=9 note=46 velocity=0 time=0.026441822916666666
EXTRACT: note_off channel=14 note=46 velocity=0 time=0.0144228125
EXTRACT: note_on channel=14 note=58 velocity=65 time=0.024038020833333333
EXTRACT: note_off channel=1 note=27 velocity=0 time=0.06490265625
EXTRACT: note_off channel=12 note=58 velocity=0 time=0.0144228125
EXTRACT: note_off channel=14 note=58 velocity=0 time=0.012019010416666667
EXTRACT: note_off channel=12 note=63 velocity=0 time=0.004807604166666667
EXTRACT: note_on channel=9 note=46 velocity=71 time=0.019230416666666666
EXTRACT: note_on channel=1 note=27 velocity=95 time=0
EXTRACT: note_on channel=6 note=58 velocity=98 time=0
EXTRACT: note_on channel=6 note=63 velocity=101 time=0
EXTRACT: note_on channel=14 note=46 velocity=66 time=0
EXTRACT: note_off channel=12 note=53 velocity=0 time=0.060095052083333336
EXTRACT: note_off channel=9 note=44 velocity=0 time=0.028845625
EXTRACT: note_off channel=9 note=39 velocity=0 time=0.0024038020833333333
EXTRACT: note_off channel=14 note=46 velocity=0 time=0
EXTRACT: note_off channel=9 note=40 velocity=0 time=0.0024038020833333333
EXTRACT: note_on channel=14 note=58 velocity=65 time=0.02163421875
EXTRACT: note_off channel=9 note=36 velocity=0 time=0.009615208333333333
EXTRACT: note_off channel=14 note=58 velocity=0 time=0.08413307291666666
EXTRACT: note_on channel=9 note=36 velocity=122 time=0.02163421875
EXTRACT: note_on channel=9 note=39 velocity=72 time=0
EXTRACT: note_on channel=9 note=40 velocity=74 time=0
EXTRACT: note_on channel=9 note=44 velocity=101 time=0
EXTRACT: note_on channel=12 note=53 velocity=82 time=0
EXTRACT: note_on channel=12 note=58 velocity=88 time=0
EXTRACT: note_on channel=12 note=63 velocity=82 time=0
EXTRACT: note_on channel=14 note=46 velocity=68 time=0
EXTRACT: note_off channel=6 note=63 velocity=0 time=0.07451786458333333
EXTRACT: note_off channel=6 note=58 velocity=0 time=0.012019010416666667
EXTRACT: note_off channel=14 note=46 velocity=0 time=0.009615208333333333
EXTRACT: note_off channel=9 note=46 velocity=0 time=0.00721140625
EXTRACT: note_on channel=14 note=58 velocity=65 time=0.012019010416666667
EXTRACT: note_off channel=12 note=53 velocity=0 time=0.0432684375
EXTRACT: note_off channel=12 note=58 velocity=0 time=0.04086463541666667
EXTRACT: note_off channel=12 note=63 velocity=0 time=0.016826614583333333
EXTRACT: note_off channel=14 note=58 velocity=0 time=0
EXTRACT: note_off channel=1 note=27 velocity=0 time=0.012019010416666667
EXTRACT: note_on channel=9 note=46 velocity=70 time=0.0024038020833333333
EXTRACT: note_on channel=1 note=31 velocity=62 time=0
EXTRACT: note_on channel=3 note=63 velocity=97 time=0
EXTRACT: note_on channel=4 note=75 velocity=87 time=0
EXTRACT: note_on channel=12 note=53 velocity=82 time=0
EXTRACT: note_on channel=12 note=58 velocity=73 time=0
EXTRACT: note_on channel=12 note=62 velocity=73 time=0
EXTRACT: note_on channel=14 note=46 velocity=68 time=0
EXTRACT: note_off channel=9 note=36 velocity=0 time=0.07692166666666667
EXTRACT: note_off channel=9 note=44 velocity=0 time=0.00721140625
EXTRACT: note_off channel=12 note=62 velocity=0 time=0.0024038020833333333
EXTRACT: note_off channel=14 note=46 velocity=0 time=0.00721140625
EXTRACT: note_off channel=12 note=58 velocity=0 time=0.016826614583333333
EXTRACT: note_off channel=12 note=53 velocity=0 time=0
EXTRACT: note_on channel=14 note=58 velocity=64 time=0.004807604166666667
EXTRACT: note_off channel=9 note=46 velocity=0 time=0.0432684375
EXTRACT: note_off channel=3 note=62 velocity=0 time=0.010817109375
EXTRACT: note_off channel=4 note=74 velocity=0 time=0
EXTRACT: note_off channel=1 note=31 velocity=0 time=0.010817109375
EXTRACT: note_off channel=14 note=58 velocity=0 time=0.036057031249999996
EXTRACT: note_on channel=9 note=36 velocity=125 time=0.0144228125
EXTRACT: note_on channel=9 note=44 velocity=111 time=0
EXTRACT: note_on channel=1 note=34 velocity=82 time=0
EXTRACT: note_on channel=3 note=62 velocity=97 time=0
EXTRACT: note_on channel=4 note=74 velocity=87 time=0
EXTRACT: note_on channel=14 note=46 velocity=68 time=0
EXTRACT: note_off channel=3 note=63 velocity=0 time=0.02163421875
EXTRACT: note_off channel=4 note=75 velocity=0 time=0
EXTRACT: note_off channel=14 note=46 velocity=0 time=0.07211406249999999
EXTRACT: note_on channel=14 note=58 velocity=65 time=0.02163421875
EXTRACT: note_off channel=14 note=58 velocity=0 time=0.10576729166666667
EXTRACT: note_on channel=9 note=46 velocity=75 time=0.009615208333333333
EXTRACT: note_on channel=3 note=63 velocity=97 time=0
EXTRACT: note_on channel=4 note=75 velocity=87 time=0
EXTRACT: note_on channel=6 note=58 velocity=92 time=0
EXTRACT: note_on channel=6 note=62 velocity=92 time=0
EXTRACT: note_on channel=12 note=53 velocity=82 time=0
EXTRACT: note_on channel=12 note=58 velocity=82 time=0
EXTRACT: note_on channel=12 note=62 velocity=73 time=0
EXTRACT: note_on channel=14 note=46 velocity=67 time=0
EXTRACT: note_off channel=9 note=44 velocity=0 time=0.026441822916666666
EXTRACT: note_off channel=3 note=62 velocity=0 time=0.02764372395833333
EXTRACT: note_off channel=4 note=74 velocity=0 time=0
EXTRACT: note_off channel=9 note=40 velocity=0 time=0.003605703125
EXTRACT: note_off channel=9 note=39 velocity=0 time=0
EXTRACT: note_off channel=6 note=62 velocity=0 time=0.026441822916666666
EXTRACT: note_off channel=14 note=46 velocity=0 time=0
EXTRACT: note_off channel=6 note=58 velocity=0 time=0.004807604166666667
EXTRACT: note_off channel=12 note=58 velocity=0 time=0.00721140625
EXTRACT: note_off channel=12 note=62 velocity=0 time=0.0024038020833333333
EXTRACT: note_off channel=12 note=53 velocity=0 time=0.00721140625
EXTRACT: note_off channel=9 note=36 velocity=0 time=0.00721140625
EXTRACT: note_on channel=14 note=58 velocity=65 time=0.0024038020833333333
EXTRACT: note_off channel=14 note=58 velocity=0 time=0.10576729166666667
EXTRACT: note_off channel=1 note=34 velocity=0 time=0.004807604166666667
EXTRACT: note_on channel=9 note=36 velocity=122 time=0.004807604166666667
EXTRACT: note_on channel=9 note=39 velocity=80 time=0
EXTRACT: note_on channel=9 note=40 velocity=78 time=0
EXTRACT: note_on channel=9 note=44 velocity=92 time=0
EXTRACT: note_on channel=3 note=62 velocity=97 time=0
EXTRACT: note_on channel=4 note=74 velocity=87 time=0
EXTRACT: note_on channel=6 note=58 velocity=88 time=0
EXTRACT: note_on channel=6 note=62 velocity=88 time=0
EXTRACT: note_on channel=14 note=46 velocity=68 time=0
EXTRACT: note_off channel=3 note=63 velocity=0 time=0.015624713541666667
EXTRACT: note_off channel=4 note=75 velocity=0 time=0
EXTRACT: note_off channel=14 note=46 velocity=0 time=0.082931171875
EXTRACT: note_off channel=6 note=58 velocity=0 time=0.00721140625
EXTRACT: note_off channel=9 note=46 velocity=0 time=0.00721140625
EXTRACT: note_on channel=14 note=58 velocity=65 time=0.0024038020833333333
EXTRACT: note_off channel=6 note=62 velocity=0 time=0.00721140625
EXTRACT: note_off channel=14 note=58 velocity=0 time=0.086536875
EXTRACT: note_on channel=9 note=46 velocity=63 time=0.02163421875
EXTRACT: note_on channel=3 note=63 velocity=97 time=0
EXTRACT: note_on channel=4 note=75 velocity=87 time=0
EXTRACT: note_on channel=6 note=58 velocity=98 time=0
EXTRACT: note_on channel=6 note=63 velocity=105 time=0
EXTRACT: note_on channel=12 note=53 velocity=88 time=0
EXTRACT: note_on channel=12 note=58 velocity=78 time=0
EXTRACT: note_on channel=12 note=63 velocity=74 time=0
EXTRACT: note_on channel=14 note=46 velocity=67 time=0
EXTRACT: note_off channel=9 note=44 velocity=0 time=0.036057031249999996
EXTRACT: note_off channel=3 note=62 velocity=0 time=0.018028515624999998
EXTRACT: note_off channel=4 note=74 velocity=0 time=0
EXTRACT: note_off channel=14 note=46 velocity=0 time=0.034855130208333335
EXTRACT: note_off channel=12 note=58 velocity=0 time=0.02163421875
EXTRACT: note_off channel=9 note=36 velocity=0 time=0.004807604166666667
EXTRACT: note_on channel=14 note=58 velocity=65 time=0
EXTRACT: note_off channel=12 note=63 velocity=0 time=0.00721140625
EXTRACT: note_off channel=12 note=53 velocity=0 time=0
EXTRACT: note_off channel=14 note=58 velocity=0 time=0.08894067708333334
EXTRACT: note_off channel=6 note=58 velocity=0 time=0.012019010416666667
EXTRACT: note_on channel=9 note=36 velocity=125 time=0.00721140625
EXTRACT: note_on channel=9 note=44 velocity=85 time=0
EXTRACT: note_on channel=3 note=62 velocity=97 time=0
EXTRACT: note_on channel=4 note=74 velocity=87 time=0
EXTRACT: note_on channel=14 note=46 velocity=68 time=0
EXTRACT: note_off channel=3 note=63 velocity=0 time=0.015624713541666667
EXTRACT: note_off channel=4 note=75 velocity=0 time=0
EXTRACT: note_off channel=6 note=63 velocity=0 time=0.025239921875
EXTRACT: note_off channel=9 note=46 velocity=0 time=0.036057031249999996
EXTRACT: note_off channel=14 note=46 velocity=0 time=0.012019010416666667
EXTRACT: note_on channel=14 note=58 velocity=64 time=0.026441822916666666
EXTRACT: note_off channel=14 note=58 velocity=0 time=0.10336348958333333
EXTRACT: note_off channel=3 note=62 velocity=0 time=0.003605703125
EXTRACT: note_off channel=4 note=74 velocity=0 time=0
EXTRACT: note_on channel=9 note=46 velocity=71 time=0.008413307291666667
EXTRACT: note_on channel=3 note=70 velocity=97 time=0
EXTRACT: note_on channel=4 note=82 velocity=87 time=0
EXTRACT: note_on channel=6 note=58 velocity=105 time=0
EXTRACT: note_on channel=6 note=65 velocity=101 time=0
EXTRACT: note_on channel=12 note=53 velocity=85 time=0
EXTRACT: note_on channel=12 note=58 velocity=88 time=0
EXTRACT: note_on channel=12 note=63 velocity=88 time=0
EXTRACT: note_on channel=14 note=46 velocity=67 time=0
EXTRACT: note_off channel=9 note=40 velocity=0 time=0.05288364583333333
EXTRACT: note_off channel=9 note=39 velocity=0 time=0.0024038020833333333
EXTRACT: note_off channel=9 note=36 velocity=0 time=0.031249427083333333
EXTRACT: note_off channel=9 note=44 velocity=0 time=0.0024038020833333333
EXTRACT: note_off channel=14 note=46 velocity=0 time=0.004807604166666667
EXTRACT: note_on channel=14 note=58 velocity=65 time=0.02163421875
EXTRACT: note_off channel=3 note=70 velocity=0 time=0.00721140625
EXTRACT: note_off channel=4 note=82 velocity=0 time=0
EXTRACT: note_off channel=14 note=58 velocity=0 time=0.09374828125
EXTRACT: note_on channel=9 note=36 velocity=122 time=0.0144228125
EXTRACT: note_on channel=9 note=39 velocity=86 time=0
EXTRACT: note_on channel=9 note=40 velocity=86 time=0
EXTRACT: note_on channel=9 note=44 velocity=101 time=0
EXTRACT: note_on channel=3 note=70 velocity=97 time=0
EXTRACT: note_on channel=4 note=82 velocity=87 time=0
EXTRACT: note_on channel=14 note=46 velocity=68 time=0
EXTRACT: note_off channel=14 note=46 velocity=0 time=0.09134447916666666
EXTRACT: note_off channel=9 note=46 velocity=0 time=0.012019010416666667
EXTRACT: note_on channel=14 note=58 velocity=65 time=0.012019010416666667
EXTRACT: note_off channel=12 note=58 velocity=0 time=0.0144228125
EXTRACT: note_off channel=9 note=36 velocity=0 time=0.0024038020833333333
EXTRACT: note_off channel=12 note=63 velocity=0 time=0.00721140625
EXTRACT: note_off channel=12 note=53 velocity=0 time=0
EXTRACT: note_off channel=3 note=70 velocity=0 time=0.013220911458333333
EXTRACT: note_off channel=4 note=82 velocity=0 time=0
EXTRACT: note_off channel=6 note=58 velocity=0 time=0.034855130208333335
EXTRACT: note_off channel=14 note=58 velocity=0 time=0.024038020833333333
EXTRACT: note_off channel=6 note=65 velocity=0 time=0.00721140625
EXTRACT: note_on channel=9 note=36 velocity=122 time=0.012019010416666667
EXTRACT: note_on channel=9 note=46 velocity=70 time=0
EXTRACT: note_on channel=3 note=72 velocity=97 time=0
EXTRACT: note_on channel=4 note=84 velocity=87 time=0
EXTRACT: note_on channel=12 note=53 velocity=78 time=0
EXTRACT: note_on channel=12 note=58 velocity=80 time=0
EXTRACT: note_on channel=12 note=63 velocity=82 time=0
EXTRACT: note_on channel=14 note=46 velocity=67 time=0
EXTRACT: note_off channel=9 note=39 velocity=0 time=0.05769125
EXTRACT: note_off channel=9 note=40 velocity=0 time=0.004807604166666667
EXTRACT: note_off channel=9 note=44 velocity=0 time=0.02163421875
EXTRACT: note_off channel=12 note=58 velocity=0 time=0.004807604166666667
EXTRACT: note_off channel=14 note=46 velocity=0 time=0.004807604166666667
EXTRACT: note_off channel=12 note=63 velocity=0 time=0.012019010416666667
EXTRACT: note_off channel=12 note=53 velocity=0 time=0
EXTRACT: note_on channel=14 note=58 velocity=66 time=0.009615208333333333
EXTRACT: note_off channel=9 note=36 velocity=0 time=0.02163421875
EXTRACT: note_off channel=9 note=46 velocity=0 time=0.02163421875
EXTRACT: note_off channel=14 note=58 velocity=0 time=0.05047984375
EXTRACT: note_on channel=9 note=36 velocity=125 time=0.02163421875
EXTRACT: note_on channel=9 note=44 velocity=111 time=0
EXTRACT: note_on channel=9 note=49 velocity=80 time=0
EXTRACT: note_on channel=9 note=57 velocity=89 time=0
EXTRACT: note_on channel=1 note=34 velocity=104 time=0
EXTRACT: note_on channel=3 note=70 velocity=97 time=0
EXTRACT: note_on channel=4 note=82 velocity=87 time=0
EXTRACT: note_on channel=12 note=53 velocity=88 time=0
EXTRACT: note_on channel=12 note=58 velocity=78 time=0
EXTRACT: note_on channel=12 note=62 velocity=76 time=0
EXTRACT: note_on channel=14 note=46 velocity=89 time=0
EXTRACT: note_off channel=3 note=72 velocity=0 time=0.054085546875
EXTRACT: note_off channel=4 note=84 velocity=0 time=0
EXTRACT: note_off channel=9 note=49 velocity=0 time=0.022836119791666665
EXTRACT: note_off channel=14 note=46 velocity=0 time=0.009615208333333333
EXTRACT: note_off channel=9 note=57 velocity=0 time=0.0024038020833333333
EXTRACT: note_off channel=12 note=58 velocity=0 time=0.00721140625
EXTRACT: note_off channel=9 note=36 velocity=0 time=0.00721140625
EXTRACT: note_off channel=12 note=62 velocity=0 time=0.009615208333333333
EXTRACT: note_on channel=14 note=58 velocity=85 time=0.0024038020833333333
EXTRACT: note_off channel=12 note=53 velocity=0 time=0.00721140625
EXTRACT: note_off channel=14 note=58 velocity=0 time=0.10576729166666667
EXTRACT: note_on channel=9 note=46 velocity=75 time=0.0024038020833333333
EXTRACT: note_on channel=14 note=46 velocity=87 time=0
EXTRACT: note_off channel=9 note=44 velocity=0 time=0.026441822916666666
EXTRACT: note_off channel=14 note=46 velocity=0 time=0.04567223958333333
EXTRACT: note_on channel=14 note=58 velocity=84 time=0.0432684375
EXTRACT: note_off channel=1 note=34 velocity=0 time=0.07932546875
EXTRACT: note_off channel=14 note=58 velocity=0 time=0.004807604166666667
EXTRACT: note_on channel=9 note=36 velocity=107 time=0.031249427083333333
EXTRACT: note_on channel=9 note=39 velocity=78 time=0
EXTRACT: note_on channel=9 note=40 velocity=74 time=0
EXTRACT: note_on channel=9 note=44 velocity=92 time=0
EXTRACT: note_on channel=1 note=29 velocity=73 time=0
EXTRACT: note_on channel=5 note=62 velocity=78 time=0
EXTRACT: note_on channel=5 note=65 velocity=85 time=0
EXTRACT: note_on channel=6 note=58 velocity=117 time=0
EXTRACT: note_on channel=6 note=62 velocity=98 time=0
EXTRACT: note_on channel=6 note=65 velocity=108 time=0
EXTRACT: note_on channel=12 note=53 velocity=80 time=0
EXTRACT: note_on channel=12 note=58 velocity=73 time=0
EXTRACT: note_on channel=12 note=62 velocity=73 time=0
EXTRACT: note_on channel=14 note=46 velocity=87 time=0
EXTRACT: note_off channel=14 note=46 velocity=0 time=0.086536875
EXTRACT: note_off channel=12 note=62 velocity=0 time=0.016826614583333333
EXTRACT: note_off channel=9 note=46 velocity=0 time=0.009615208333333333
EXTRACT: note_off channel=12 note=58 velocity=0 time=0
EXTRACT: note_on channel=14 note=58 velocity=84 time=0.0024038020833333333
EXTRACT: note_off channel=12 note=53 velocity=0 time=0.00721140625
EXTRACT: note_off channel=9 note=36 velocity=0 time=0.009615208333333333
EXTRACT: note_off channel=1 note=29 velocity=0 time=0.036057031249999996
EXTRACT: note_off channel=5 note=62 velocity=0 time=0.012019010416666667
EXTRACT: note_off channel=6 note=58 velocity=0 time=0
EXTRACT: note_off channel=6 note=62 velocity=0 time=0.0024038020833333333
EXTRACT: note_off channel=3 note=70 velocity=0 time=0.0012019010416666667
EXTRACT: note_off channel=4 note=82 velocity=0 time=0
EXTRACT: note_off channel=5 note=65 velocity=0 time=0.0012019010416666667
EXTRACT: note_off channel=6 note=65 velocity=0 time=0.0024038020833333333
EXTRACT: note_off channel=14 note=58 velocity=0 time=0.0144228125
EXTRACT: note_on channel=9 note=46 velocity=63 time=0.028845625
EXTRACT: note_on channel=1 note=27 velocity=88 time=0
EXTRACT: note_on channel=12 note=53 velocity=76 time=0
EXTRACT: note_on channel=12 note=58 velocity=74 time=0
EXTRACT: note_on channel=12 note=63 velocity=74 time=0
EXTRACT: note_on channel=14 note=46 velocity=85 time=0
EXTRACT: note_off channel=9 note=44 velocity=0 time=0.036057031249999996
EXTRACT: note_off channel=14 note=46 velocity=0 time=0.05047984375
EXTRACT: note_off channel=12 note=53 velocity=0 time=0.026441822916666666
EXTRACT: note_on channel=14 note=58 velocity=84 time=0.0024038020833333333
EXTRACT: note_off channel=12 note=58 velocity=0 time=0.016826614583333333
EXTRACT: note_off channel=12 note=63 velocity=0 time=0.012019010416666667
EXTRACT: note_off channel=14 note=58 velocity=0 time=0.05528744791666666
EXTRACT: note_on channel=9 note=36 velocity=93 time=0.031249427083333333
EXTRACT: note_on channel=9 note=44 velocity=85 time=0
EXTRACT: note_on channel=5 note=63 velocity=82 time=0
EXTRACT: note_on channel=5 note=67 velocity=82 time=0
EXTRACT: note_on channel=14 note=46 velocity=86 time=0
EXTRACT: note_off channel=9 note=46 velocity=0 time=0.07692166666666667
EXTRACT: note_off channel=14 note=46 velocity=0 time=0.0144228125
EXTRACT: note_off channel=5 note=63 velocity=0 time=0.00721140625
EXTRACT: note_off channel=5 note=67 velocity=0 time=0.012019010416666667
EXTRACT: note_on channel=14 note=58 velocity=84 time=0.004807604166666667
EXTRACT: note_off channel=1 note=27 velocity=0 time=0.06490265625
EXTRACT: note_off channel=14 note=58 velocity=0 time=0.026441822916666666
EXTRACT: note_on channel=9 note=36 velocity=120 time=0.024038020833333333
EXTRACT: note_on channel=9 note=46 velocity=71 time=0
EXTRACT: note_on channel=1 note=27 velocity=95 time=0
EXTRACT: note_on channel=3 note=70 velocity=97 time=0
EXTRACT: note_on channel=4 note=82 velocity=87 time=0
EXTRACT: note_on channel=5 note=63 velocity=80 time=0
EXTRACT: note_on channel=5 note=68 velocity=82 time=0
EXTRACT: note_on channel=6 note=58 velocity=105 time=0
EXTRACT: note_on channel=6 note=63 velocity=101 time=0
EXTRACT: note_on channel=6 note=68 velocity=101 time=0
EXTRACT: note_on channel=12 note=53 velocity=71 time=0
EXTRACT: note_on channel=12 note=58 velocity=78 time=0
EXTRACT: note_on channel=12 note=63 velocity=78 time=0
EXTRACT: note_on channel=14 note=46 velocity=85 time=0
EXTRACT: note_off channel=9 note=36 velocity=0 time=0.028845625
EXTRACT: note_off channel=9 note=36 velocity=64 time=0.028845625
EXTRACT: note_off channel=9 note=44 velocity=0 time=0.031249427083333333
EXTRACT: note_off channel=14 note=46 velocity=0 time=0.0024038020833333333
EXTRACT: note_off channel=9 note=39 velocity=0 time=0.0024038020833333333
EXTRACT: note_off channel=9 note=40 velocity=0 time=0.009615208333333333
EXTRACT: note_on channel=14 note=58 velocity=84 time=0.012019010416666667
EXTRACT: note_off channel=3 note=70 velocity=0 time=0.016826614583333333
EXTRACT: note_off channel=4 note=82 velocity=0 time=0
EXTRACT: note_off channel=14 note=58 velocity=0 time=0.07692166666666667
EXTRACT: note_on channel=9 note=36 velocity=125 time=0.02163421875
EXTRACT: note_on channel=9 note=39 velocity=62 time=0
EXTRACT: note_on channel=9 note=40 velocity=66 time=0
EXTRACT: note_on channel=9 note=44 velocity=101 time=0
EXTRACT: note_on channel=3 note=70 velocity=97 time=0
EXTRACT: note_on channel=4 note=82 velocity=87 time=0
EXTRACT: note_on channel=14 note=46 velocity=87 time=0
EXTRACT: note_off channel=14 note=46 velocity=0 time=0.09615208333333333
EXTRACT: note_off channel=9 note=46 velocity=0 time=0.00721140625
EXTRACT: note_off channel=12 note=53 velocity=0 time=0.004807604166666667
EXTRACT: note_on channel=14 note=58 velocity=84 time=0.00721140625
EXTRACT: note_off channel=12 note=58 velocity=0 time=0.00721140625
EXTRACT: note_off channel=12 note=63 velocity=0 time=0.0144228125
EXTRACT: note_off channel=3 note=70 velocity=0 time=0.049277942708333335
EXTRACT: note_off channel=4 note=82 velocity=0 time=0
EXTRACT: note_off channel=14 note=58 velocity=0 time=0.030047526041666668
EXTRACT: note_off channel=1 note=27 velocity=0 time=0.012019010416666667
EXTRACT: note_on channel=9 note=46 velocity=70 time=0.0024038020833333333
EXTRACT: note_on channel=1 note=31 velocity=62 time=0
EXTRACT: note_on channel=3 note=72 velocity=97 time=0
EXTRACT: note_on channel=4 note=84 velocity=87 time=0
EXTRACT: note_on channel=12 note=53 velocity=71 time=0
EXTRACT: note_on channel=12 note=58 velocity=73 time=0
EXTRACT: note_on channel=12 note=63 velocity=68 time=0
EXTRACT: note_on channel=14 note=46 velocity=87 time=0
EXTRACT: note_off channel=6 note=63 velocity=0 time=0.00721140625
EXTRACT: note_off channel=5 note=63 velocity=0 time=0.0144228125
EXTRACT: note_off channel=6 note=68 velocity=0 time=0
EXTRACT: note_off channel=6 note=58 velocity=0 time=0.0024038020833333333
EXTRACT: note_off channel=5 note=68 velocity=0 time=0.0144228125
EXTRACT: note_off channel=9 note=44 velocity=0 time=0.04567223958333333
EXTRACT: note_off channel=9 note=36 velocity=0 time=0.0024038020833333333
EXTRACT: note_off channel=14 note=46 velocity=0 time=0.00721140625
EXTRACT: note_on channel=14 note=58 velocity=83 time=0.02163421875
EXTRACT: note_off channel=12 note=53 velocity=0 time=0.00721140625
EXTRACT: note_off channel=12 note=58 velocity=0 time=0.012019010416666667
EXTRACT: note_off channel=9 note=46 velocity=0 time=0.024038020833333333
EXTRACT: note_off channel=12 note=63 velocity=0 time=0.004807604166666667
EXTRACT: note_off channel=1 note=31 velocity=0 time=0.016826614583333333
EXTRACT: note_off channel=14 note=58 velocity=0 time=0.036057031249999996
EXTRACT: note_on channel=9 note=36 velocity=118 time=0.0144228125
EXTRACT: note_on channel=9 note=44 velocity=111 time=0
EXTRACT: note_on channel=1 note=34 velocity=82 time=0
EXTRACT: note_on channel=12 note=53 velocity=74 time=0
EXTRACT: note_on channel=12 note=58 velocity=73 time=0
EXTRACT: note_on channel=12 note=62 velocity=71 time=0
EXTRACT: note_on channel=14 note=46 velocity=87 time=0
EXTRACT: note_off channel=12 note=58 velocity=0 time=0.09374828125
EXTRACT: note_off channel=14 note=46 velocity=0 time=0
EXTRACT: note_off channel=12 note=62 velocity=0 time=0.012019010416666667
EXTRACT: note_off channel=12 note=53 velocity=0 time=0.004807604166666667
EXTRACT: note_on channel=14 note=58 velocity=84 time=0.004807604166666667
EXTRACT: note_off channel=3 note=72 velocity=0 time=0.04086463541666667
EXTRACT: note_off channel=4 note=84 velocity=0 time=0
EXTRACT: note_off channel=14 note=58 velocity=0 time=0.06490265625
EXTRACT: note_on channel=9 note=46 velocity=75 time=0.009615208333333333
EXTRACT: note_on channel=3 note=74 velocity=97 time=0
EXTRACT: note_on channel=4 note=86 velocity=87 time=0
EXTRACT: note_on channel=6 note=58 velocity=105 time=0
EXTRACT: note_on channel=6 note=62 velocity=90 time=0
EXTRACT: note_on channel=6 note=65 velocity=95 time=0
EXTRACT: note_on channel=14 note=46 velocity=86 time=0
EXTRACT: note_off channel=9 note=44 velocity=0 time=0.026441822916666666
EXTRACT: note_off channel=6 note=65 velocity=0 time=0.048076041666666666
EXTRACT: note_off channel=9 note=36 velocity=0 time=0.0024038020833333333
EXTRACT: note_off channel=6 note=62 velocity=0 time=0.004807604166666667
EXTRACT: note_off channel=6 note=58 velocity=0 time=0.0024038020833333333
EXTRACT: note_off channel=14 note=46 velocity=0 time=0
EXTRACT: note_off channel=9 note=40 velocity=0 time=0.012019010416666667
EXTRACT: note_off channel=9 note=39 velocity=0 time=0.009615208333333333
EXTRACT: note_on channel=14 note=58 velocity=84 time=0.009615208333333333
EXTRACT: note_off channel=14 note=58 velocity=0 time=0.10576729166666667
EXTRACT: note_off channel=1 note=34 velocity=0 time=0.004807604166666667
EXTRACT: note_on channel=9 note=36 velocity=118 time=0.004807604166666667
EXTRACT: note_on channel=9 note=39 velocity=66 time=0
EXTRACT: note_on channel=9 note=40 velocity=74 time=0
EXTRACT: note_on channel=9 note=44 velocity=92 time=0
EXTRACT: note_on channel=1 note=29 velocity=76 time=0
EXTRACT: note_on channel=5 note=62 velocity=78 time=0
EXTRACT: note_on channel=5 note=65 velocity=80 time=0
EXTRACT: note_on channel=12 note=53 velocity=82 time=0
EXTRACT: note_on channel=12 note=58 velocity=78 time=0
EXTRACT: note_on channel=12 note=62 velocity=73 time=0
EXTRACT: note_on channel=14 note=46 velocity=87 time=0
EXTRACT: note_off channel=5 note=65 velocity=0 time=0.07692166666666667
EXTRACT: note_off channel=5 note=62 velocity=0 time=0.009615208333333333
EXTRACT: note_off channel=14 note=46 velocity=0 time=0.012019010416666667
EXTRACT: note_off channel=9 note=46 velocity=0 time=0.0144228125
EXTRACT: note_on channel=14 note=58 velocity=84 time=0.0024038020833333333
EXTRACT: note_off channel=12 note=62 velocity=0 time=0.033653229166666666
EXTRACT: note_off channel=12 note=58 velocity=0 time=0
EXTRACT: note_off channel=12 note=53 velocity=0 time=0
EXTRACT: note_off channel=14 note=58 velocity=0 time=0.060095052083333336
EXTRACT: note_off channel=1 note=29 velocity=0 time=0.016826614583333333
EXTRACT: note_on channel=9 note=46 velocity=63 time=0.004807604166666667
EXTRACT: note_on channel=1 note=27 velocity=91 time=0
EXTRACT: note_on channel=3 note=70 velocity=97 time=0
EXTRACT: note_on channel=4 note=82 velocity=87 time=0
EXTRACT: note_on channel=5 note=62 velocity=68 time=0
EXTRACT: note_on channel=5 note=65 velocity=74 time=0
EXTRACT: note_on channel=6 note=58 velocity=92 time=0
EXTRACT: note_on channel=6 note=62 velocity=90 time=0
EXTRACT: note_on channel=6 note=65 velocity=98 time=0
EXTRACT: note_on channel=12 note=53 velocity=82 time=0
EXTRACT: note_on channel=12 note=58 velocity=80 time=0
EXTRACT: note_on channel=12 note=63 velocity=80 time=0
EXTRACT: note_on channel=14 note=46 velocity=86 time=0
EXTRACT: note_off channel=9 note=44 velocity=0 time=0.036057031249999996
EXTRACT: note_off channel=6 note=62 velocity=0 time=0.012019010416666667
EXTRACT: note_off channel=6 note=65 velocity=0 time=0.0024038020833333333
EXTRACT: note_off channel=6 note=58 velocity=0 time=0.026441822916666666
EXTRACT: note_off channel=5 note=62 velocity=0 time=0.0024038020833333333
EXTRACT: note_off channel=5 note=65 velocity=0 time=0.00721140625
EXTRACT: note_off channel=14 note=46 velocity=0 time=0.0024038020833333333
EXTRACT: note_off channel=3 note=74 velocity=0 time=0.022836119791666665
EXTRACT: note_off channel=4 note=86 velocity=0 time=0
EXTRACT: note_on channel=14 note=58 velocity=84 time=0.003605703125
EXTRACT: note_off channel=12 note=58 velocity=0 time=0.019230416666666666
EXTRACT: note_off channel=12 note=63 velocity=0 time=0.004807604166666667
EXTRACT: note_off channel=9 note=36 velocity=0 time=0.0024038020833333333
EXTRACT: note_off channel=12 note=53 velocity=0 time=0.00721140625
EXTRACT: note_off channel=14 note=58 velocity=0 time=0.062498854166666666
EXTRACT: note_on channel=9 note=36 velocity=125 time=0.019230416666666666
EXTRACT: note_on channel=9 note=44 velocity=85 time=0
EXTRACT: note_on channel=5 note=63 velocity=63 time=0
EXTRACT: note_on channel=5 note=67 velocity=73 time=0
EXTRACT: note_on channel=14 note=46 velocity=87 time=0
EXTRACT: note_off channel=5 note=63 velocity=0 time=0.04086463541666667
EXTRACT: note_off channel=5 note=67 velocity=0 time=0.028845625
EXTRACT: note_off channel=9 note=46 velocity=0 time=0.00721140625
EXTRACT: note_off channel=14 note=46 velocity=0 time=0.012019010416666667
EXTRACT: note_off channel=1 note=27 velocity=0 time=0.019230416666666666
EXTRACT: note_on channel=14 note=58 velocity=83 time=0.00721140625
EXTRACT: note_off channel=14 note=58 velocity=0 time=0.10336348958333333
EXTRACT: note_on channel=9 note=36 velocity=120 time=0.012019010416666667
EXTRACT: note_on channel=9 note=46 velocity=71 time=0
EXTRACT: note_on channel=1 note=27 velocity=95 time=0
EXTRACT: note_on channel=3 note=68 velocity=97 time=0
EXTRACT: note_on channel=4 note=80 velocity=87 time=0
EXTRACT: note_on channel=5 note=63 velocity=74 time=0
EXTRACT: note_on channel=5 note=68 velocity=73 time=0
EXTRACT: note_on channel=6 note=58 velocity=98 time=0
EXTRACT: note_on channel=6 note=63 velocity=101 time=0
EXTRACT: note_on channel=6 note=68 velocity=98 time=0
EXTRACT: note_on channel=12 note=53 velocity=80 time=0
EXTRACT: note_on channel=12 note=58 velocity=78 time=0
EXTRACT: note_on channel=12 note=63 velocity=80 time=0
EXTRACT: note_on channel=14 note=46 velocity=86 time=0
EXTRACT: note_off channel=9 note=36 velocity=64 time=0.05769125
EXTRACT: note_off channel=9 note=44 velocity=0 time=0.031249427083333333
EXTRACT: note_off channel=9 note=39 velocity=0 time=0.0024038020833333333
EXTRACT: note_off channel=9 note=40 velocity=0 time=0.0024038020833333333
EXTRACT: note_off channel=14 note=46 velocity=0 time=0
EXTRACT: note_off channel=3 note=70 velocity=0 time=0.018028515624999998
EXTRACT: note_off channel=4 note=82 velocity=0 time=0
EXTRACT: note_off channel=9 note=36 velocity=0 time=0.0012019010416666667
EXTRACT: note_on channel=14 note=58 velocity=84 time=0.0024038020833333333
EXTRACT: note_off channel=14 note=58 velocity=0 time=0.1009596875
EXTRACT: note_on channel=9 note=36 velocity=122 time=0.0144228125
EXTRACT: note_on channel=9 note=39 velocity=65 time=0
EXTRACT: note_on channel=9 note=40 velocity=63 time=0
EXTRACT: note_on channel=9 note=44 velocity=101 time=0
EXTRACT: note_on channel=3 note=70 velocity=97 time=0
EXTRACT: note_on channel=4 note=82 velocity=87 time=0
EXTRACT: note_on channel=14 note=46 velocity=87 time=0
EXTRACT: note_off channel=3 note=68 velocity=0 time=0.054085546875
EXTRACT: note_off channel=4 note=80 velocity=0 time=0
EXTRACT: note_off channel=14 note=46 velocity=0 time=0.037258932291666665
EXTRACT: note_off channel=9 note=46 velocity=0 time=0.012019010416666667
EXTRACT: note_on channel=14 note=58 velocity=84 time=0.012019010416666667
EXTRACT: note_off channel=14 note=58 velocity=0 time=0.09615208333333333
EXTRACT: note_on channel=9 note=46 velocity=70 time=0.019230416666666666
EXTRACT: note_on channel=1 note=31 velocity=85 time=0
EXTRACT: note_on channel=3 note=72 velocity=97 time=0
EXTRACT: note_on channel=4 note=84 velocity=87 time=0
EXTRACT: note_on channel=14 note=46 velocity=86 time=0
EXTRACT: note_off channel=1 note=27 velocity=0 time=0.00721140625
EXTRACT: note_off channel=12 note=58 velocity=0 time=0.00721140625
EXTRACT: note_off channel=12 note=63 velocity=0 time=0.00721140625
EXTRACT: note_off channel=12 note=53 velocity=0 time=0.004807604166666667
EXTRACT: note_off channel=5 note=63 velocity=0 time=0.0144228125
EXTRACT: note_off channel=3 note=70 velocity=0 time=0.013220911458333333
EXTRACT: note_off channel=4 note=82 velocity=0 time=0
EXTRACT: note_off channel=5 note=68 velocity=0 time=0.003605703125
EXTRACT: note_off channel=6 note=63 velocity=0 time=0.009615208333333333
EXTRACT: note_off channel=9 note=44 velocity=0 time=0.016826614583333333
EXTRACT: note_off channel=6 note=68 velocity=0 time=0
EXTRACT: note_off channel=6 note=58 velocity=0 time=0.0024038020833333333
EXTRACT: note_off channel=14 note=46 velocity=0 time=0.00721140625
EXTRACT: note_on channel=14 note=58 velocity=85 time=0.02163421875
EXTRACT: note_off channel=9 note=36 velocity=0 time=0.0024038020833333333
EXTRACT: note_off channel=9 note=46 velocity=0 time=0.04086463541666667
EXTRACT: note_off channel=1 note=31 velocity=0 time=0.031249427083333333
EXTRACT: note_off channel=14 note=58 velocity=0 time=0.019230416666666666
EXTRACT: note_on channel=9 note=36 velocity=118 time=0.02163421875
EXTRACT: note_on channel=9 note=44 velocity=111 time=0
EXTRACT: note_on channel=1 note=34 velocity=104 time=0
EXTRACT: note_on channel=3 note=70 velocity=97 time=0
EXTRACT: note_on channel=4 note=82 velocity=87 time=0
EXTRACT: note_on channel=14 note=46 velocity=89 time=0
EXTRACT: note_off channel=3 note=72 velocity=0 time=0.054085546875
EXTRACT: note_off channel=4 note=84 velocity=0 time=0
EXTRACT: note_off channel=14 note=46 velocity=0 time=0.032451328125
EXTRACT: note_on channel=14 note=58 velocity=85 time=0.028845625
EXTRACT: note_off channel=14 note=58 velocity=0 time=0.11297869791666666
EXTRACT: note_on channel=9 note=46 velocity=75 time=0.0024038020833333333
EXTRACT: note_on channel=12 note=53 velocity=85 time=0
EXTRACT: note_on channel=12 note=58 velocity=80 time=0
EXTRACT: note_on channel=12 note=62 velocity=76 time=0
EXTRACT: note_on channel=14 note=46 velocity=87 time=0
EXTRACT: note_off channel=9 note=44 velocity=0 time=0.026441822916666666
EXTRACT: note_off channel=9 note=39 velocity=0 time=0.04086463541666667
EXTRACT: note_off channel=14 note=46 velocity=0 time=0.004807604166666667
EXTRACT: note_off channel=9 note=40 velocity=0 time=0.0024038020833333333
EXTRACT: note_off channel=12 note=58 velocity=0 time=0.019230416666666666
EXTRACT: note_off channel=9 note=36 velocity=0 time=0.00721140625
EXTRACT: note_off channel=12 note=62 velocity=0 time=0
EXTRACT: note_off channel=12 note=53 velocity=0 time=0.0144228125
EXTRACT: note_on channel=14 note=58 velocity=84 time=0
EXTRACT: note_off channel=1 note=34 velocity=0 time=0.07932546875
EXTRACT: note_off channel=14 note=58 velocity=0 time=0.004807604166666667
EXTRACT: note_on channel=9 note=36 velocity=118 time=0.031249427083333333
EXTRACT: note_on channel=9 note=39 velocity=62 time=0
EXTRACT: note_on channel=9 note=40 velocity=63 time=0
EXTRACT: note_on channel=9 note=44 velocity=92 time=0
EXTRACT: note_on channel=1 note=29 velocity=73 time=0
EXTRACT: note_on channel=5 note=62 velocity=76 time=0
EXTRACT: note_on channel=5 note=65 velocity=80 time=0
EXTRACT: note_on channel=6 note=58 velocity=117 time=0
EXTRACT: note_on channel=6 note=62 velocity=98 time=0
EXTRACT: note_on channel=6 note=65 velocity=108 time=0
EXTRACT: note_on channel=14 note=46 velocity=87 time=0
EXTRACT: note_off channel=14 note=46 velocity=0 time=0.086536875
EXTRACT: note_off channel=5 note=62 velocity=0 time=0.009615208333333333
EXTRACT: note_off channel=5 note=65 velocity=0 time=0.00721140625
EXTRACT: note_off channel=9 note=46 velocity=0 time=0.009615208333333333
EXTRACT: note_on channel=14 note=58 velocity=84 time=0.0024038020833333333
EXTRACT: note_off channel=1 note=29 velocity=0 time=0.05288364583333333
EXTRACT: note_off channel=6 note=58 velocity=0 time=0.012019010416666667
EXTRACT: note_off channel=6 note=62 velocity=0 time=0.0024038020833333333
EXTRACT: note_off channel=6 note=65 velocity=0 time=0.004807604166666667
EXTRACT: note_off channel=14 note=58 velocity=0 time=0.0144228125
EXTRACT: note_on channel=9 note=46 velocity=63 time=0.028845625
EXTRACT: note_on channel=1 note=27 velocity=88 time=0
EXTRACT: note_on channel=12 note=53 velocity=80 time=0
EXTRACT: note_on channel=12 note=58 velocity=78 time=0
EXTRACT: note_on channel=12 note=62 velocity=68 time=0
EXTRACT: note_on channel=14 note=46 velocity=85 time=0
EXTRACT: note_off channel=9 note=44 velocity=0 time=0.036057031249999996
EXTRACT: note_off channel=3 note=70 velocity=0 time=0.0432684375
EXTRACT: note_off channel=4 note=82 velocity=0 time=0
EXTRACT: note_off channel=12 note=62 velocity=0 time=0.0024038020833333333
EXTRACT: note_off channel=12 note=58 velocity=0 time=0.0024038020833333333
EXTRACT: note_off channel=14 note=46 velocity=0 time=0.0024038020833333333
EXTRACT: note_off channel=12 note=53 velocity=0 time=0.012019010416666667
EXTRACT: note_on channel=14 note=58 velocity=84 time=0.016826614583333333
EXTRACT: note_off channel=9 note=36 velocity=0 time=0.02163421875
EXTRACT: note_off channel=14 note=58 velocity=0 time=0.062498854166666666
EXTRACT: note_on channel=9 note=36 velocity=125 time=0.031249427083333333
EXTRACT: note_on channel=9 note=44 velocity=85 time=0
EXTRACT: note_on channel=5 note=63 velocity=80 time=0
EXTRACT: note_on channel=5 note=67 velocity=74 time=0
EXTRACT: note_on channel=12 note=53 velocity=85 time=0
EXTRACT: note_on channel=12 note=58 velocity=82 time=0
EXTRACT: note_on channel=12 note=63 velocity=82 time=0
EXTRACT: note_on channel=14 note=46 velocity=86 time=0
EXTRACT: note_off channel=9 note=46 velocity=0 time=0.07692166666666667
EXTRACT: note_off channel=5 note=63 velocity=0 time=0.00721140625
EXTRACT: note_off channel=14 note=46 velocity=0 time=0.00721140625
EXTRACT: note_off channel=5 note=67 velocity=0 time=0.004807604166666667
EXTRACT: note_on channel=14 note=58 velocity=84 time=0.019230416666666666
EXTRACT: note_off channel=1 note=27 velocity=0 time=0.06490265625
EXTRACT: note_off channel=12 note=58 velocity=0 time=0.0144228125
EXTRACT: note_off channel=14 note=58 velocity=0 time=0.012019010416666667
EXTRACT: note_off channel=12 note=63 velocity=0 time=0.004807604166666667
EXTRACT: note_on channel=9 note=36 velocity=120 time=0.019230416666666666
EXTRACT: note_on channel=9 note=46 velocity=71 time=0
EXTRACT: note_on channel=1 note=27 velocity=95 time=0
EXTRACT: note_on channel=5 note=63 velocity=71 time=0
EXTRACT: note_on channel=5 note=68 velocity=78 time=0
EXTRACT: note_on channel=6 note=58 velocity=105 time=0
EXTRACT: note_on channel=6 note=63 velocity=101 time=0
EXTRACT: note_on channel=6 note=68 velocity=101 time=0
EXTRACT: note_on channel=14 note=46 velocity=85 time=0
EXTRACT: note_off channel=9 note=36 velocity=64 time=0.05769125
EXTRACT: note_off channel=12 note=53 velocity=0 time=0.0024038020833333333
EXTRACT: note_off channel=9 note=44 velocity=0 time=0.028845625
EXTRACT: note_off channel=9 note=40 velocity=0 time=0.0024038020833333333
EXTRACT: note_off channel=14 note=46 velocity=0 time=0
EXTRACT: note_off channel=9 note=36 velocity=0 time=0.0024038020833333333
EXTRACT: note_off channel=9 note=39 velocity=0 time=0
EXTRACT: note_on channel=14 note=58 velocity=84 time=0.02163421875
EXTRACT: note_off channel=14 note=58 velocity=0 time=0.09374828125
EXTRACT: note_on channel=9 note=36 velocity=125 time=0.02163421875
EXTRACT: note_on channel=9 note=39 velocity=66 time=0
EXTRACT: note_on channel=9 note=40 velocity=65 time=0
EXTRACT: note_on channel=9 note=44 velocity=101 time=0
EXTRACT: note_on channel=12 note=53 velocity=82 time=0
EXTRACT: note_on channel=12 note=58 velocity=88 time=0
EXTRACT: note_on channel=12 note=63 velocity=82 time=0
EXTRACT: note_on channel=14 note=46 velocity=87 time=0
EXTRACT: note_off channel=14 note=46 velocity=0 time=0.09615208333333333
EXTRACT: note_off channel=9 note=46 velocity=0 time=0.00721140625
EXTRACT: note_off channel=5 note=63 velocity=0 time=0.012019010416666667
EXTRACT: note_on channel=14 note=58 velocity=84 time=0
EXTRACT: note_off channel=5 note=68 velocity=0 time=0.016826614583333333
EXTRACT: note_off channel=12 note=53 velocity=0 time=0.026441822916666666
EXTRACT: note_off channel=12 note=58 velocity=0 time=0.04086463541666667
EXTRACT: note_off channel=12 note=63 velocity=0 time=0.016826614583333333
EXTRACT: note_off channel=14 note=58 velocity=0 time=0
EXTRACT: note_off channel=1 note=27 velocity=0 time=0.012019010416666667
EXTRACT: note_on channel=9 note=46 velocity=70 time=0.0024038020833333333
EXTRACT: note_on channel=1 note=31 velocity=62 time=0
EXTRACT: note_on channel=12 note=53 velocity=82 time=0
EXTRACT: note_on channel=12 note=58 velocity=73 time=0
EXTRACT: note_on channel=12 note=62 velocity=73 time=0
EXTRACT: note_on channel=14 note=46 velocity=87 time=0
EXTRACT: note_off channel=6 note=63 velocity=0 time=0.00721140625
EXTRACT: note_off channel=6 note=68 velocity=0 time=0.0144228125
EXTRACT: note_off channel=6 note=58 velocity=0 time=0.0024038020833333333
EXTRACT: note_off channel=9 note=44 velocity=0 time=0.060095052083333336
EXTRACT: note_off channel=12 note=62 velocity=0 time=0.0024038020833333333
EXTRACT: note_off channel=9 note=36 velocity=0 time=0.004807604166666667
EXTRACT: note_off channel=14 note=46 velocity=0 time=0.0024038020833333333
EXTRACT: note_off channel=12 note=58 velocity=0 time=0.016826614583333333
EXTRACT: note_off channel=12 note=53 velocity=0 time=0
EXTRACT: note_on channel=14 note=58 velocity=83 time=0.004807604166666667
EXTRACT: note_off channel=9 note=46 velocity=0 time=0.0432684375
EXTRACT: note_off channel=1 note=31 velocity=0 time=0.02163421875
EXTRACT: note_off channel=14 note=58 velocity=0 time=0.036057031249999996
EXTRACT: note_on channel=9 note=36 velocity=125 time=0.0144228125
EXTRACT: note_on channel=9 note=44 velocity=111 time=0
EXTRACT: note_on channel=1 note=34 velocity=82 time=0
EXTRACT: note_on channel=14 note=46 velocity=87 time=0
EXTRACT: note_off channel=14 note=46 velocity=0 time=0.09374828125
EXTRACT: note_on channel=14 note=58 velocity=84 time=0.02163421875
EXTRACT: note_off channel=14 note=58 velocity=0 time=0.10576729166666667
EXTRACT: note_on channel=9 note=46 velocity=75 time=0.009615208333333333
EXTRACT: note_on channel=5 note=62 velocity=78 time=0
EXTRACT: note_on channel=5 note=65 velocity=85 time=0
EXTRACT: note_on channel=6 note=58 velocity=105 time=0
EXTRACT: note_on channel=6 note=62 velocity=90 time=0
EXTRACT: note_on channel=6 note=65 velocity=95 time=0
EXTRACT: note_on channel=12 note=53 velocity=82 time=0
EXTRACT: note_on channel=12 note=58 velocity=82 time=0
EXTRACT: note_on channel=12 note=62 velocity=73 time=0
EXTRACT: note_on channel=14 note=46 velocity=86 time=0
EXTRACT: note_off channel=9 note=44 velocity=0 time=0.026441822916666666
EXTRACT: note_off channel=9 note=39 velocity=0 time=0.012019010416666667
EXTRACT: note_off channel=9 note=40 velocity=0 time=0.00721140625
EXTRACT: note_off channel=5 note=62 velocity=0 time=0.02163421875
EXTRACT: note_off channel=6 note=65 velocity=0 time=0.00721140625
EXTRACT: note_off channel=5 note=65 velocity=0 time=0.0024038020833333333
EXTRACT: note_off channel=6 note=62 velocity=0 time=0.004807604166666667
EXTRACT: note_off channel=6 note=58 velocity=0 time=0.0024038020833333333
EXTRACT: note_off channel=14 note=46 velocity=0 time=0
EXTRACT: note_off channel=12 note=58 velocity=0 time=0.012019010416666667
EXTRACT: note_off channel=12 note=62 velocity=0 time=0.0024038020833333333
EXTRACT: note_off channel=9 note=36 velocity=0 time=0.004807604166666667
EXTRACT: note_off channel=12 note=53 velocity=0 time=0.0024038020833333333
EXTRACT: note_on channel=14 note=58 velocity=84 time=0.009615208333333333
EXTRACT: note_off channel=14 note=58 velocity=0 time=0.10576729166666667
EXTRACT: note_off channel=1 note=34 velocity=0 time=0.004807604166666667
EXTRACT: note_on channel=9 note=36 velocity=122 time=0.004807604166666667
EXTRACT: note_on channel=9 note=39 velocity=65 time=0
EXTRACT: note_on channel=9 note=40 velocity=65 time=0
EXTRACT: note_on channel=9 note=44 velocity=92 time=0
EXTRACT: note_on channel=1 note=29 velocity=76 time=0
EXTRACT: note_on channel=14 note=46 velocity=87 time=0
EXTRACT: note_off channel=14 note=46 velocity=0 time=0.09855588541666667
EXTRACT: note_off channel=9 note=46 velocity=0 time=0.0144228125
EXTRACT: note_on channel=14 note=58 velocity=84 time=0.0024038020833333333
EXTRACT: note_off channel=14 note=58 velocity=0 time=0.09374828125
EXTRACT: note_off channel=1 note=29 velocity=0 time=0.016826614583333333
EXTRACT: note_on channel=9 note=46 velocity=63 time=0.004807604166666667
EXTRACT: note_on channel=1 note=27 velocity=91 time=0
EXTRACT: note_on channel=5 note=63 velocity=88 time=0
EXTRACT: note_on channel=5 note=67 velocity=85 time=0
EXTRACT: note_on channel=6 note=58 velocity=92 time=0
EXTRACT: note_on channel=6 note=62 velocity=90 time=0
EXTRACT: note_on channel=6 note=65 velocity=98 time=0
EXTRACT: note_on channel=12 note=53 velocity=88 time=0
EXTRACT: note_on channel=12 note=58 velocity=78 time=0
EXTRACT: note_on channel=12 note=63 velocity=74 time=0
EXTRACT: note_on channel=14 note=46 velocity=86 time=0
EXTRACT: note_off channel=9 note=44 velocity=0 time=0.036057031249999996
EXTRACT: note_off channel=6 note=62 velocity=0 time=0.012019010416666667
EXTRACT: note_off channel=6 note=65 velocity=0 time=0.0024038020833333333
EXTRACT: note_off channel=5 note=63 velocity=0 time=0.0144228125
EXTRACT: note_off channel=6 note=58 velocity=0 time=0.012019010416666667
EXTRACT: note_off channel=5 note=67 velocity=0 time=0.004807604166666667
EXTRACT: note_off channel=14 note=46 velocity=0 time=0.00721140625
EXTRACT: note_off channel=12 note=58 velocity=0 time=0.02163421875
EXTRACT: note_on channel=14 note=58 velocity=84 time=0.004807604166666667
EXTRACT: note_off channel=9 note=36 velocity=0 time=0.0024038020833333333
EXTRACT: note_off channel=12 note=63 velocity=0 time=0.004807604166666667
EXTRACT: note_off channel=12 note=53 velocity=0 time=0
EXTRACT: note_off channel=14 note=58 velocity=0 time=0.08894067708333334
EXTRACT: note_on channel=9 note=36 velocity=125 time=0.019230416666666666
EXTRACT: note_on channel=9 note=44 velocity=85 time=0
EXTRACT: note_on channel=14 note=46 velocity=87 time=0
EXTRACT: note_off channel=9 note=46 velocity=0 time=0.07692166666666667
EXTRACT: note_off channel=14 note=46 velocity=0 time=0.012019010416666667
EXTRACT: note_off channel=1 note=27 velocity=0 time=0.019230416666666666
EXTRACT: note_on channel=14 note=58 velocity=83 time=0.00721140625
EXTRACT: note_off channel=14 note=58 velocity=0 time=0.10336348958333333
EXTRACT: note_on channel=9 note=36 velocity=120 time=0.012019010416666667
EXTRACT: note_on channel=9 note=46 velocity=71 time=0
EXTRACT: note_on channel=1 note=27 velocity=95 time=0
EXTRACT: note_on channel=3 note=70 velocity=97 time=0
EXTRACT: note_on channel=4 note=82 velocity=87 time=0
EXTRACT: note_on channel=5 note=63 velocity=82 time=0
EXTRACT: note_on channel=5 note=68 velocity=82 time=0
EXTRACT: note_on channel=6 note=58 velocity=98 time=0
EXTRACT: note_on channel=6 note=63 velocity=101 time=0
EXTRACT: note_on channel=6 note=68 velocity=98 time=0
EXTRACT: note_on channel=12 note=53 velocity=85 time=0
EXTRACT: note_on channel=12 note=58 velocity=88 time=0
EXTRACT: note_on channel=12 note=63 velocity=88 time=0
EXTRACT: note_on channel=14 note=46 velocity=86 time=0
EXTRACT: note_off channel=9 note=36 velocity=64 time=0.05769125
EXTRACT: note_off channel=9 note=40 velocity=0 time=0.012019010416666667
EXTRACT: note_off channel=9 note=39 velocity=0 time=0
EXTRACT: note_off channel=9 note=44 velocity=0 time=0.019230416666666666
EXTRACT: note_off channel=14 note=46 velocity=0 time=0.004807604166666667
EXTRACT: note_off channel=9 note=36 velocity=0 time=0.00721140625
EXTRACT: note_on channel=14 note=58 velocity=84 time=0.0144228125
EXTRACT: note_off channel=14 note=58 velocity=0 time=0.1009596875
EXTRACT: note_on channel=9 note=36 velocity=125 time=0.0144228125
EXTRACT: note_on channel=9 note=39 velocity=65 time=0
EXTRACT: note_on channel=9 note=40 velocity=64 time=0
EXTRACT: note_on channel=9 note=44 velocity=101 time=0
EXTRACT: note_on channel=3 note=68 velocity=97 time=0
EXTRACT: note_on channel=4 note=80 velocity=87 time=0
EXTRACT: note_on channel=14 note=46 velocity=87 time=0
EXTRACT: note_off channel=3 note=70 velocity=0 time=0.054085546875
EXTRACT: note_off channel=4 note=82 velocity=0 time=0
EXTRACT: note_off channel=14 note=46 velocity=0 time=0.037258932291666665
EXTRACT: note_off channel=9 note=46 velocity=0 time=0.012019010416666667
EXTRACT: note_on channel=14 note=58 velocity=84 time=0.012019010416666667
EXTRACT: note_off channel=12 note=58 velocity=0 time=0.0144228125
EXTRACT: note_off channel=12 note=63 velocity=0 time=0.009615208333333333
EXTRACT: note_off channel=12 note=53 velocity=0 time=0
EXTRACT: note_off channel=3 note=68 velocity=0 time=0.028845625
EXTRACT: note_off channel=4 note=80 velocity=0 time=0
EXTRACT: note_off channel=14 note=58 velocity=0 time=0.0432684375
EXTRACT: note_on channel=9 note=46 velocity=70 time=0.019230416666666666
EXTRACT: note_on channel=1 note=31 velocity=85 time=0
EXTRACT: note_on channel=3 note=72 velocity=97 time=0
EXTRACT: note_on channel=4 note=84 velocity=87 time=0
EXTRACT: note_on channel=12 note=53 velocity=78 time=0
EXTRACT: note_on channel=12 note=58 velocity=80 time=0
EXTRACT: note_on channel=12 note=63 velocity=82 time=0
EXTRACT: note_on channel=14 note=46 velocity=86 time=0
EXTRACT: note_off channel=1 note=27 velocity=0 time=0.00721140625
EXTRACT: note_off channel=5 note=63 velocity=0 time=0.036057031249999996
EXTRACT: note_off channel=5 note=68 velocity=0 time=0.016826614583333333
EXTRACT: note_off channel=6 note=63 velocity=0 time=0.00721140625
EXTRACT: note_off channel=9 note=44 velocity=0 time=0.016826614583333333
EXTRACT: note_off channel=6 note=68 velocity=0 time=0
EXTRACT: note_off channel=6 note=58 velocity=0 time=0.0024038020833333333
EXTRACT: note_off channel=12 note=58 velocity=0 time=0.0024038020833333333
EXTRACT: note_off channel=14 note=46 velocity=0 time=0.004807604166666667
EXTRACT: note_off channel=12 note=63 velocity=0 time=0.012019010416666667
EXTRACT: note_off channel=12 note=53 velocity=0 time=0
EXTRACT: note_off channel=9 note=36 velocity=0 time=0.0024038020833333333
EXTRACT: note_on channel=14 note=58 velocity=85 time=0.00721140625
EXTRACT: note_off channel=9 note=46 velocity=0 time=0.0432684375
EXTRACT: note_off channel=1 note=31 velocity=0 time=0.031249427083333333
EXTRACT: note_off channel=14 note=58 velocity=0 time=0.019230416666666666
EXTRACT: note_on channel=9 note=36 velocity=122 time=0.02163421875
EXTRACT: note_on channel=9 note=44 velocity=111 time=0
EXTRACT: note_on channel=1 note=34 velocity=104 time=0
EXTRACT: note_on channel=3 note=70 velocity=97 time=0
EXTRACT: note_on channel=4 note=82 velocity=87 time=0
EXTRACT: note_on channel=12 note=53 velocity=88 time=0
EXTRACT: note_on channel=12 note=58 velocity=78 time=0
EXTRACT: note_on channel=12 note=62 velocity=76 time=0
EXTRACT: note_on channel=14 note=46 velocity=89 time=0
EXTRACT: note_off channel=3 note=72 velocity=0 time=0.054085546875
EXTRACT: note_off channel=4 note=84 velocity=0 time=0
EXTRACT: note_off channel=14 note=46 velocity=0 time=0.032451328125
EXTRACT: note_off channel=12 note=58 velocity=0 time=0.009615208333333333
EXTRACT: note_off channel=12 note=62 velocity=0 time=0.016826614583333333
EXTRACT: note_on channel=14 note=58 velocity=85 time=0.0024038020833333333
EXTRACT: note_off channel=12 note=53 velocity=0 time=0.00721140625
EXTRACT: note_off channel=14 note=58 velocity=0 time=0.10576729166666667
EXTRACT: note_on channel=9 note=46 velocity=75 time=0.0024038020833333333
EXTRACT: note_on channel=5 note=62 velocity=73 time=0
EXTRACT: note_on channel=5 note=65 velocity=71 time=0
EXTRACT: note_on channel=14 note=46 velocity=87 time=0
EXTRACT: note_off channel=9 note=44 velocity=0 time=0.026441822916666666
EXTRACT: note_off channel=9 note=39 velocity=0 time=0.02163421875
EXTRACT: note_off channel=9 note=40 velocity=0 time=0.004807604166666667
EXTRACT: note_off channel=5 note=65 velocity=0 time=0
EXTRACT: note_off channel=5 note=62 velocity=0 time=0.012019010416666667
EXTRACT: note_off channel=14 note=46 velocity=0 time=0.00721140625
EXTRACT: note_off channel=9 note=36 velocity=0 time=0.0144228125
EXTRACT: note_on channel=14 note=58 velocity=84 time=0.028845625
EXTRACT: note_off channel=1 note=34 velocity=0 time=0.07932546875
EXTRACT: note_off channel=14 note=58 velocity=0 time=0.004807604166666667
EXTRACT: note_on channel=9 note=36 velocity=118 time=0.031249427083333333
EXTRACT: note_on channel=9 note=39 velocity=71 time=0
EXTRACT: note_on channel=9 note=40 velocity=72 time=0
EXTRACT: note_on channel=9 note=44 velocity=92 time=0
EXTRACT: note_on channel=1 note=29 velocity=73 time=0
EXTRACT: note_on channel=5 note=62 velocity=67 time=0
EXTRACT: note_on channel=5 note=65 velocity=82 time=0
EXTRACT: note_on channel=6 note=58 velocity=117 time=0
EXTRACT: note_on channel=6 note=62 velocity=98 time=0
EXTRACT: note_on channel=6 note=65 velocity=108 time=0
EXTRACT: note_on channel=12 note=53 velocity=80 time=0
EXTRACT: note_on channel=12 note=58 velocity=73 time=0
EXTRACT: note_on channel=12 note=62 velocity=73 time=0
EXTRACT: note_on channel=14 note=46 velocity=87 time=0
EXTRACT: note_off channel=3 note=70 velocity=0 time=0.033653229166666666
EXTRACT: note_off channel=4 note=82 velocity=0 time=0
EXTRACT: note_off channel=14 note=46 velocity=0 time=0.05288364583333333
EXTRACT: note_off channel=12 note=62 velocity=0 time=0.016826614583333333
EXTRACT: note_off channel=5 note=62 velocity=0 time=0.0024038020833333333
EXTRACT: note_off channel=9 note=46 velocity=0 time=0.00721140625
EXTRACT: note_off channel=12 note=58 velocity=0 time=0
EXTRACT: note_on channel=14 note=58 velocity=84 time=0.0024038020833333333
EXTRACT: note_off channel=5 note=65 velocity=0 time=0.004807604166666667
EXTRACT: note_off channel=12 note=53 velocity=0 time=0.0024038020833333333
EXTRACT: note_off channel=1 note=29 velocity=0 time=0.04567223958333333
EXTRACT: note_off channel=6 note=58 velocity=0 time=0.012019010416666667
EXTRACT: note_off channel=6 note=62 velocity=0 time=0.0024038020833333333
EXTRACT: note_off channel=6 note=65 velocity=0 time=0.004807604166666667
EXTRACT: note_off channel=14 note=58 velocity=0 time=0.0144228125
EXTRACT: note_on channel=9 note=46 velocity=63 time=0.028845625
EXTRACT: note_on channel=1 note=27 velocity=88 time=0
EXTRACT: note_on channel=12 note=53 velocity=76 time=0
EXTRACT: note_on channel=12 note=58 velocity=74 time=0
EXTRACT: note_on channel=12 note=63 velocity=74 time=0
EXTRACT: note_on channel=14 note=46 velocity=85 time=0
EXTRACT: note_off channel=9 note=44 velocity=0 time=0.036057031249999996
EXTRACT: note_off channel=14 note=46 velocity=0 time=0.05047984375
EXTRACT: note_off channel=9 note=36 velocity=0 time=0.019230416666666666
EXTRACT: note_off channel=12 note=53 velocity=0 time=0.00721140625
EXTRACT: note_on channel=14 note=58 velocity=84 time=0.0024038020833333333
EXTRACT: note_off channel=12 note=58 velocity=0 time=0.016826614583333333
EXTRACT: note_off channel=12 note=63 velocity=0 time=0.012019010416666667
EXTRACT: note_off channel=14 note=58 velocity=0 time=0.05528744791666666
EXTRACT: note_on channel=9 note=36 velocity=125 time=0.031249427083333333
EXTRACT: note_on channel=9 note=44 velocity=85 time=0
EXTRACT: note_on channel=5 note=63 velocity=82 time=0
EXTRACT: note_on channel=5 note=67 velocity=85 time=0
EXTRACT: note_on channel=14 note=46 velocity=86 time=0
EXTRACT: note_off channel=9 note=46 velocity=0 time=0.07692166666666667
EXTRACT: note_off channel=5 note=63 velocity=0 time=0.00721140625
EXTRACT: note_off channel=5 note=67 velocity=0 time=0.00721140625
EXTRACT: note_off channel=14 note=46 velocity=0 time=0
EXTRACT: note_on channel=14 note=58 velocity=84 time=0.024038020833333333
EXTRACT: note_off channel=1 note=27 velocity=0 time=0.06490265625
EXTRACT: note_off channel=14 note=58 velocity=0 time=0.026441822916666666
EXTRACT: note_on channel=9 note=36 velocity=120 time=0.024038020833333333
EXTRACT: note_on channel=9 note=46 velocity=71 time=0
EXTRACT: note_on channel=1 note=27 velocity=95 time=0
EXTRACT: note_on channel=3 note=70 velocity=97 time=0
EXTRACT: note_on channel=4 note=82 velocity=87 time=0
EXTRACT: note_on channel=5 note=63 velocity=78 time=0
EXTRACT: note_on channel=5 note=68 velocity=78 time=0
EXTRACT: note_on channel=6 note=58 velocity=105 time=0
EXTRACT: note_on channel=6 note=63 velocity=101 time=0
EXTRACT: note_on channel=6 note=68 velocity=101 time=0
EXTRACT: note_on channel=12 note=53 velocity=71 time=0
EXTRACT: note_on channel=12 note=58 velocity=78 time=0
EXTRACT: note_on channel=12 note=63 velocity=78 time=0
EXTRACT: note_on channel=14 note=46 velocity=85 time=0
EXTRACT: note_off channel=9 note=39 velocity=0 time=0.0144228125
EXTRACT: note_off channel=9 note=40 velocity=0 time=0.0024038020833333333
EXTRACT: note_off channel=9 note=36 velocity=64 time=0.04086463541666667
EXTRACT: note_off channel=9 note=36 velocity=0 time=0.028845625
EXTRACT: note_off channel=9 note=44 velocity=0 time=0.0024038020833333333
EXTRACT: note_off channel=14 note=46 velocity=0 time=0.0024038020833333333
EXTRACT: note_on channel=14 note=58 velocity=84 time=0.024038020833333333
EXTRACT: note_off channel=3 note=70 velocity=0 time=0.0432684375
EXTRACT: note_off channel=4 note=82 velocity=0 time=0
EXTRACT: note_off channel=14 note=58 velocity=0 time=0.05047984375
EXTRACT: note_on channel=9 note=36 velocity=122 time=0.02163421875
EXTRACT: note_on channel=9 note=39 velocity=62 time=0
EXTRACT: note_on channel=9 note=40 velocity=68 time=0
EXTRACT: note_on channel=9 note=44 velocity=101 time=0
EXTRACT: note_on channel=3 note=70 velocity=97 time=0
EXTRACT: note_on channel=4 note=82 velocity=87 time=0
EXTRACT: note_on channel=14 note=46 velocity=87 time=0
EXTRACT: note_off channel=14 note=46 velocity=0 time=0.09615208333333333
EXTRACT: note_off channel=9 note=46 velocity=0 time=0.00721140625
EXTRACT: note_off channel=12 note=53 velocity=0 time=0.004807604166666667
EXTRACT: note_on channel=14 note=58 velocity=84 time=0.00721140625
EXTRACT: note_off channel=12 note=58 velocity=0 time=0.00721140625
EXTRACT: note_off channel=12 note=63 velocity=0 time=0.0144228125
EXTRACT: note_off channel=3 note=70 velocity=0 time=0.07932546875
EXTRACT: note_off channel=4 note=82 velocity=0 time=0
EXTRACT: note_off channel=14 note=58 velocity=0 time=0
EXTRACT: note_off channel=1 note=27 velocity=0 time=0.012019010416666667
EXTRACT: note_on channel=9 note=46 velocity=70 time=0.0024038020833333333
EXTRACT: note_on channel=1 note=31 velocity=62 time=0
EXTRACT: note_on channel=3 note=72 velocity=97 time=0
EXTRACT: note_on channel=4 note=84 velocity=87 time=0
EXTRACT: note_on channel=12 note=53 velocity=71 time=0
EXTRACT: note_on channel=12 note=58 velocity=73 time=0
EXTRACT: note_on channel=12 note=63 velocity=68 time=0
EXTRACT: note_on channel=14 note=46 velocity=87 time=0
EXTRACT: note_off channel=5 note=63 velocity=0 time=0.004807604166666667
EXTRACT: note_off channel=6 note=63 velocity=0 time=0.0024038020833333333
EXTRACT: note_off channel=5 note=68 velocity=0 time=0.0024038020833333333
EXTRACT: note_off channel=6 note=68 velocity=0 time=0.012019010416666667
EXTRACT: note_off channel=6 note=58 velocity=0 time=0.0024038020833333333
EXTRACT: note_off channel=9 note=44 velocity=0 time=0.060095052083333336
EXTRACT: note_off channel=14 note=46 velocity=0 time=0.009615208333333333
EXTRACT: note_off channel=9 note=36 velocity=0 time=0.00721140625
EXTRACT: note_on channel=14 note=58 velocity=83 time=0.0144228125
EXTRACT: note_off channel=12 note=53 velocity=0 time=0.00721140625
EXTRACT: note_off channel=12 note=58 velocity=0 time=0.012019010416666667
EXTRACT: note_off channel=9 note=46 velocity=0 time=0.024038020833333333
EXTRACT: note_off channel=12 note=63 velocity=0 time=0.004807604166666667
EXTRACT: note_off channel=1 note=31 velocity=0 time=0.016826614583333333
EXTRACT: note_off channel=14 note=58 velocity=0 time=0.036057031249999996
EXTRACT: note_on channel=9 note=36 velocity=122 time=0.0144228125
EXTRACT: note_on channel=9 note=44 velocity=111 time=0
EXTRACT: note_on channel=1 note=34 velocity=82 time=0
EXTRACT: note_on channel=12 note=53 velocity=74 time=0
EXTRACT: note_on channel=12 note=58 velocity=73 time=0
EXTRACT: note_on channel=12 note=62 velocity=71 time=0
EXTRACT: note_on channel=14 note=46 velocity=87 time=0
EXTRACT: note_off channel=12 note=58 velocity=0 time=0.09374828125
EXTRACT: note_off channel=14 note=46 velocity=0 time=0
EXTRACT: note_off channel=12 note=62 velocity=0 time=0.012019010416666667
EXTRACT: note_off channel=12 note=53 velocity=0 time=0.004807604166666667
EXTRACT: note_on channel=14 note=58 velocity=84 time=0.004807604166666667
EXTRACT: note_off channel=3 note=72 velocity=0 time=0.09495018229166667
EXTRACT: note_off channel=4 note=84 velocity=0 time=0
EXTRACT: note_off channel=14 note=58 velocity=0 time=0.010817109375
EXTRACT: note_on channel=9 note=46 velocity=75 time=0.009615208333333333
EXTRACT: note_on channel=3 note=74 velocity=97 time=0
EXTRACT: note_on channel=4 note=86 velocity=87 time=0
EXTRACT: note_on channel=5 note=62 velocity=76 time=0
EXTRACT: note_on channel=5 note=65 velocity=85 time=0
EXTRACT: note_on channel=6 note=58 velocity=105 time=0
EXTRACT: note_on channel=6 note=62 velocity=90 time=0
EXTRACT: note_on channel=6 note=65 velocity=95 time=0
EXTRACT: note_on channel=14 note=46 velocity=86 time=0
EXTRACT: note_off channel=9 note=44 velocity=0 time=0.026441822916666666
EXTRACT: note_off channel=6 note=65 velocity=0 time=0.048076041666666666
EXTRACT: note_off channel=5 note=65 velocity=0 time=0.0024038020833333333
EXTRACT: note_off channel=6 note=62 velocity=0 time=0.004807604166666667
EXTRACT: note_off channel=5 note=62 velocity=0 time=0.0024038020833333333
EXTRACT: note_off channel=6 note=58 velocity=0 time=0
EXTRACT: note_off channel=14 note=46 velocity=0 time=0
EXTRACT: note_off channel=9 note=40 velocity=0 time=0.0024038020833333333
EXTRACT: note_off channel=9 note=39 velocity=0 time=0.00721140625
EXTRACT: note_off channel=9 note=36 velocity=0 time=0.00721140625
EXTRACT: note_on channel=14 note=58 velocity=84 time=0.0144228125
EXTRACT: note_off channel=14 note=58 velocity=0 time=0.10576729166666667
EXTRACT: note_off channel=1 note=34 velocity=0 time=0.004807604166666667
EXTRACT: note_on channel=9 note=36 velocity=122 time=0.004807604166666667
EXTRACT: note_on channel=9 note=39 velocity=66 time=0
EXTRACT: note_on channel=9 note=40 velocity=66 time=0
EXTRACT: note_on channel=9 note=44 velocity=92 time=0
EXTRACT: note_on channel=1 note=29 velocity=76 time=0
EXTRACT: note_on channel=12 note=53 velocity=82 time=0
EXTRACT: note_on channel=12 note=58 velocity=78 time=0
EXTRACT: note_on channel=12 note=62 velocity=73 time=0
EXTRACT: note_on channel=14 note=46 velocity=87 time=0
EXTRACT: note_off channel=14 note=46 velocity=0 time=0.09855588541666667
EXTRACT: note_off channel=9 note=46 velocity=0 time=0.0144228125
EXTRACT: note_on channel=14 note=58 velocity=84 time=0.0024038020833333333
EXTRACT: note_off channel=12 note=62 velocity=0 time=0.033653229166666666
EXTRACT: note_off channel=12 note=58 velocity=0 time=0
EXTRACT: note_off channel=12 note=53 velocity=0 time=0
EXTRACT: note_off channel=3 note=74 velocity=0 time=0.0012019010416666667
EXTRACT: note_off channel=4 note=86 velocity=0 time=0
EXTRACT: note_off channel=14 note=58 velocity=0 time=0.05889315104166667
EXTRACT: note_off channel=1 note=29 velocity=0 time=0.016826614583333333
EXTRACT: note_on channel=9 note=46 velocity=63 time=0.004807604166666667
EXTRACT: note_on channel=1 note=27 velocity=91 time=0
EXTRACT: note_on channel=3 note=75 velocity=97 time=0
EXTRACT: note_on channel=4 note=87 velocity=87 time=0
EXTRACT: note_on channel=5 note=63 velocity=88 time=0
EXTRACT: note_on channel=5 note=67 velocity=80 time=0
EXTRACT: note_on channel=6 note=58 velocity=92 time=0
EXTRACT: note_on channel=6 note=62 velocity=90 time=0
EXTRACT: note_on channel=6 note=65 velocity=98 time=0
EXTRACT: note_on channel=12 note=53 velocity=82 time=0
EXTRACT: note_on channel=12 note=58 velocity=80 time=0
EXTRACT: note_on channel=12 note=63 velocity=80 time=0
EXTRACT: note_on channel=14 note=46 velocity=86 time=0
EXTRACT: note_off channel=9 note=44 velocity=0 time=0.036057031249999996
EXTRACT: note_off channel=6 note=62 velocity=0 time=0.012019010416666667
EXTRACT: note_off channel=6 note=65 velocity=0 time=0.0024038020833333333
EXTRACT: note_off channel=6 note=58 velocity=0 time=0.026441822916666666
EXTRACT: note_off channel=14 note=46 velocity=0 time=0.012019010416666667
EXTRACT: note_off channel=5 note=63 velocity=0 time=0.0024038020833333333
EXTRACT: note_off channel=5 note=67 velocity=0 time=0.0144228125
EXTRACT: note_on channel=14 note=58 velocity=84 time=0.009615208333333333
EXTRACT: note_off channel=12 note=58 velocity=0 time=0.019230416666666666
EXTRACT: note_off channel=12 note=63 velocity=0 time=0.004807604166666667
EXTRACT: note_off channel=12 note=53 velocity=0 time=0.009615208333333333
EXTRACT: note_off channel=9 note=36 velocity=0 time=0.004807604166666667
EXTRACT: note_off channel=14 note=58 velocity=0 time=0.05769125
EXTRACT: note_on channel=9 note=36 velocity=118 time=0.019230416666666666
EXTRACT: note_on channel=9 note=44 velocity=85 time=0
EXTRACT: note_on channel=14 note=46 velocity=87 time=0
EXTRACT: note_off channel=9 note=46 velocity=0 time=0.07692166666666667
EXTRACT: note_off channel=14 note=46 velocity=0 time=0.012019010416666667
EXTRACT: note_off channel=1 note=27 velocity=0 time=0.019230416666666666
EXTRACT: note_on channel=14 note=58 velocity=83 time=0.00721140625
EXTRACT: note_off channel=14 note=58 velocity=0 time=0.10336348958333333
EXTRACT: note_on channel=9 note=36 velocity=120 time=0.012019010416666667
EXTRACT: note_on channel=9 note=46 velocity=71 time=0
EXTRACT: note_on channel=1 note=27 velocity=95 time=0
EXTRACT: note_on channel=3 note=74 velocity=97 time=0
EXTRACT: note_on channel=4 note=86 velocity=87 time=0
EXTRACT: note_on channel=5 note=63 velocity=80 time=0
EXTRACT: note_on channel=5 note=68 velocity=82 time=0
EXTRACT: note_on channel=6 note=58 velocity=98 time=0
EXTRACT: note_on channel=6 note=63 velocity=101 time=0
EXTRACT: note_on channel=6 note=68 velocity=98 time=0
EXTRACT: note_on channel=12 note=53 velocity=80 time=0
EXTRACT: note_on channel=12 note=58 velocity=78 time=0
EXTRACT: note_on channel=12 note=63 velocity=80 time=0
EXTRACT: note_on channel=14 note=46 velocity=86 time=0
EXTRACT: note_off channel=9 note=36 velocity=64 time=0.05769125
EXTRACT: note_off channel=9 note=40 velocity=0 time=0.028845625
EXTRACT: note_off channel=9 note=39 velocity=0 time=0
EXTRACT: note_off channel=9 note=44 velocity=0 time=0.0024038020833333333
EXTRACT: note_off channel=14 note=46 velocity=0 time=0.004807604166666667
EXTRACT: note_off channel=9 note=36 velocity=0 time=0.0024038020833333333
EXTRACT: note_off channel=3 note=75 velocity=0 time=0.015624713541666667
EXTRACT: note_off channel=4 note=87 velocity=0 time=0
EXTRACT: note_on channel=14 note=58 velocity=84 time=0.003605703125
EXTRACT: note_off channel=3 note=74 velocity=0 time=0.031249427083333333
EXTRACT: note_off channel=4 note=86 velocity=0 time=0
EXTRACT: note_off channel=14 note=58 velocity=0 time=0.06971026041666667
EXTRACT: note_on channel=9 note=36 velocity=122 time=0.0144228125
EXTRACT: note_on channel=9 note=39 velocity=71 time=0
EXTRACT: note_on channel=9 note=40 velocity=72 time=0
EXTRACT: note_on channel=9 note=44 velocity=101 time=0
EXTRACT: note_on channel=3 note=75 velocity=97 time=0
EXTRACT: note_on channel=4 note=87 velocity=87 time=0
EXTRACT: note_on channel=14 note=46 velocity=87 time=0
EXTRACT: note_off channel=14 note=46 velocity=0 time=0.09134447916666666
EXTRACT: note_off channel=9 note=46 velocity=0 time=0.012019010416666667
EXTRACT: note_on channel=14 note=58 velocity=84 time=0.012019010416666667
EXTRACT: note_off channel=14 note=58 velocity=0 time=0.09615208333333333
EXTRACT: note_on channel=9 note=46 velocity=70 time=0.019230416666666666
EXTRACT: note_on channel=1 note=31 velocity=85 time=0
EXTRACT: note_on channel=3 note=74 velocity=97 time=0
EXTRACT: note_on channel=4 note=86 velocity=87 time=0
EXTRACT: note_on channel=14 note=46 velocity=86 time=0
EXTRACT: note_off channel=1 note=27 velocity=0 time=0.00721140625
EXTRACT: note_off channel=12 note=58 velocity=0 time=0.00721140625
EXTRACT: note_off channel=12 note=63 velocity=0 time=0.00721140625
EXTRACT: note_off channel=12 note=53 velocity=0 time=0.004807604166666667
EXTRACT: note_off channel=3 note=75 velocity=0 time=0.02764372395833333
EXTRACT: note_off channel=4 note=87 velocity=0 time=0
EXTRACT: note_off channel=5 note=63 velocity=0 time=0.008413307291666667
EXTRACT: note_off channel=6 note=63 velocity=0 time=0.004807604166666667
EXTRACT: note_off channel=5 note=68 velocity=0 time=0.00721140625
EXTRACT: note_off channel=9 note=44 velocity=0 time=0.009615208333333333
EXTRACT: note_off channel=6 note=68 velocity=0 time=0
EXTRACT: note_off channel=6 note=58 velocity=0 time=0.0024038020833333333
EXTRACT: note_off channel=14 note=46 velocity=0 time=0.00721140625
EXTRACT: note_off channel=9 note=36 velocity=0 time=0.012019010416666667
EXTRACT: note_on channel=14 note=58 velocity=85 time=0.009615208333333333
EXTRACT: note_off channel=3 note=74 velocity=0 time=0.010817109375
EXTRACT: note_off channel=4 note=86 velocity=0 time=0
EXTRACT: note_off channel=9 note=46 velocity=0 time=0.032451328125
EXTRACT: note_off channel=1 note=31 velocity=0 time=0.031249427083333333
EXTRACT: note_off channel=14 note=58 velocity=0 time=0.019230416666666666
EXTRACT: note_on channel=9 note=36 velocity=122 time=0.02163421875
EXTRACT: note_on channel=9 note=44 velocity=111 time=0
EXTRACT: note_on channel=1 note=34 velocity=104 time=0
EXTRACT: note_on channel=3 note=75 velocity=97 time=0
EXTRACT: note_on channel=4 note=87 velocity=87 time=0
EXTRACT: note_on channel=14 note=46 velocity=89 time=0
EXTRACT: note_off channel=14 note=46 velocity=0 time=0.086536875
EXTRACT: note_on channel=14 note=58 velocity=85 time=0.028845625
EXTRACT: note_off channel=14 note=58 velocity=0 time=0.11297869791666666
EXTRACT: note_on channel=9 note=46 velocity=75 time=0.0024038020833333333
EXTRACT: note_on channel=3 note=74 velocity=97 time=0
EXTRACT: note_on channel=4 note=86 velocity=87 time=0
EXTRACT: note_on channel=5 note=62 velocity=73 time=0
EXTRACT: note_on channel=5 note=65 velocity=80 time=0
EXTRACT: note_on channel=12 note=53 velocity=85 time=0
EXTRACT: note_on channel=12 note=58 velocity=80 time=0
EXTRACT: note_on channel=12 note=62 velocity=76 time=0
EXTRACT: note_on channel=14 note=46 velocity=87 time=0
EXTRACT: note_off channel=9 note=44 velocity=0 time=0.026441822916666666
EXTRACT: note_off channel=9 note=40 velocity=0 time=0.026441822916666666
EXTRACT: note_off channel=9 note=39 velocity=0 time=0
EXTRACT: note_off channel=3 note=75 velocity=0 time=0.0012019010416666667
EXTRACT: note_off channel=4 note=87 velocity=0 time=0
EXTRACT: note_off channel=5 note=65 velocity=0 time=0.015624713541666667
EXTRACT: note_off channel=14 note=46 velocity=0 time=0.0024038020833333333
EXTRACT: note_off channel=5 note=62 velocity=0 time=0.00721140625
EXTRACT: note_off channel=12 note=58 velocity=0 time=0.0144228125
EXTRACT: note_off channel=12 note=62 velocity=0 time=0.00721140625
EXTRACT: note_off channel=9 note=36 velocity=0 time=0.0024038020833333333
EXTRACT: note_off channel=12 note=53 velocity=0 time=0.012019010416666667
EXTRACT: note_on channel=14 note=58 velocity=84 time=0
EXTRACT: note_off channel=1 note=34 velocity=0 time=0.07932546875
EXTRACT: note_off channel=14 note=58 velocity=0 time=0.004807604166666667
EXTRACT: note_on channel=9 note=36 velocity=122 time=0.031249427083333333
EXTRACT: note_on channel=9 note=39 velocity=76 time=0
EXTRACT: note_on channel=9 note=40 velocity=74 time=0
EXTRACT: note_on channel=9 note=44 velocity=92 time=0
EXTRACT: note_on channel=1 note=29 velocity=73 time=0
EXTRACT: note_on channel=5 note=62 velocity=71 time=0
EXTRACT: note_on channel=5 note=65 velocity=80 time=0
EXTRACT: note_on channel=6 note=58 velocity=117 time=0
EXTRACT: note_on channel=6 note=62 velocity=98 time=0
EXTRACT: note_on channel=6 note=65 velocity=108 time=0
EXTRACT: note_on channel=14 note=46 velocity=87 time=0
EXTRACT: note_off channel=14 note=46 velocity=0 time=0.086536875
EXTRACT: note_off channel=9 note=46 velocity=0 time=0.026441822916666666
EXTRACT: note_on channel=14 note=58 velocity=84 time=0.0024038020833333333
EXTRACT: note_off channel=5 note=62 velocity=0 time=0.024038020833333333
EXTRACT: note_off channel=5 note=65 velocity=0 time=0.009615208333333333
EXTRACT: note_off channel=1 note=29 velocity=0 time=0.019230416666666666
EXTRACT: note_off channel=6 note=58 velocity=0 time=0.012019010416666667
EXTRACT: note_off channel=6 note=62 velocity=0 time=0.0024038020833333333
EXTRACT: note_off channel=6 note=65 velocity=0 time=0.004807604166666667
EXTRACT: note_off channel=14 note=58 velocity=0 time=0.0144228125
EXTRACT: note_on channel=9 note=46 velocity=63 time=0.028845625
EXTRACT: note_on channel=1 note=27 velocity=88 time=0
EXTRACT: note_on channel=3 note=72 velocity=97 time=0
EXTRACT: note_on channel=3 note=74 velocity=94 time=0
EXTRACT: note_on channel=4 note=84 velocity=87 time=0
EXTRACT: note_on channel=4 note=86 velocity=84 time=0
EXTRACT: note_on channel=12 note=53 velocity=80 time=0
EXTRACT: note_on channel=12 note=58 velocity=78 time=0
EXTRACT: note_on channel=12 note=62 velocity=68 time=0
EXTRACT: note_on channel=14 note=46 velocity=85 time=0
EXTRACT: note_off channel=3 note=74 velocity=0 time=0.019230416666666666
EXTRACT: note_off channel=4 note=86 velocity=0 time=0
EXTRACT: note_off channel=9 note=44 velocity=0 time=0.016826614583333333
EXTRACT: note_off channel=3 note=74 velocity=0 time=0.0144228125
EXTRACT: note_off channel=4 note=86 velocity=0 time=0
EXTRACT: note_off channel=12 note=62 velocity=0 time=0.031249427083333333
EXTRACT: note_off channel=12 note=58 velocity=0 time=0.0024038020833333333
EXTRACT: note_off channel=14 note=46 velocity=0 time=0.0024038020833333333
EXTRACT: note_off channel=9 note=36 velocity=0 time=0.004807604166666667
EXTRACT: note_off channel=12 note=53 velocity=0 time=0.00721140625
EXTRACT: note_on channel=14 note=58 velocity=84 time=0.016826614583333333
EXTRACT: note_off channel=14 note=58 velocity=0 time=0.08413307291666666
EXTRACT: note_on channel=9 note=36 velocity=122 time=0.031249427083333333
EXTRACT: note_on channel=9 note=44 velocity=85 time=0
EXTRACT: note_on channel=5 note=63 velocity=82 time=0
EXTRACT: note_on channel=5 note=67 velocity=80 time=0
EXTRACT: note_on channel=12 note=53 velocity=85 time=0
EXTRACT: note_on channel=12 note=58 velocity=82 time=0
EXTRACT: note_on channel=12 note=63 velocity=82 time=0
EXTRACT: note_on channel=14 note=46 velocity=86 time=0
EXTRACT: note_off channel=9 note=46 velocity=0 time=0.07692166666666667
EXTRACT: note_off channel=5 note=63 velocity=0 time=0.0144228125
EXTRACT: note_off channel=14 note=46 velocity=0 time=0
EXTRACT: note_off channel=5 note=67 velocity=0 time=0.004807604166666667
EXTRACT: note_on channel=14 note=58 velocity=84 time=0.019230416666666666
EXTRACT: note_off channel=1 note=27 velocity=0 time=0.06490265625
EXTRACT: note_off channel=12 note=58 velocity=0 time=0.0144228125
EXTRACT: note_off channel=14 note=58 velocity=0 time=0.012019010416666667
EXTRACT: note_off channel=12 note=63 velocity=0 time=0.004807604166666667
EXTRACT: note_on channel=9 note=36 velocity=120 time=0.019230416666666666
EXTRACT: note_on channel=9 note=46 velocity=71 time=0
EXTRACT: note_on channel=1 note=27 velocity=95 time=0
EXTRACT: note_on channel=3 note=70 velocity=97 time=0
EXTRACT: note_on channel=4 note=82 velocity=87 time=0
EXTRACT: note_on channel=5 note=63 velocity=80 time=0
EXTRACT: note_on channel=5 note=68 velocity=80 time=0
EXTRACT: note_on channel=6 note=58 velocity=105 time=0
EXTRACT: note_on channel=6 note=63 velocity=101 time=0
EXTRACT: note_on channel=6 note=68 velocity=101 time=0
EXTRACT: note_on channel=14 note=46 velocity=85 time=0
EXTRACT: note_off channel=3 note=72 velocity=0 time=0.037258932291666665
EXTRACT: note_off channel=4 note=84 velocity=0 time=0
EXTRACT: note_off channel=9 note=36 velocity=64 time=0.020432317708333335
EXTRACT: note_off channel=12 note=53 velocity=0 time=0.0024038020833333333
EXTRACT: note_off channel=9 note=44 velocity=0 time=0.028845625
EXTRACT: note_off channel=9 note=39 velocity=0 time=0.0024038020833333333
EXTRACT: note_off channel=14 note=46 velocity=0 time=0
EXTRACT: note_off channel=9 note=40 velocity=0 time=0.0024038020833333333
EXTRACT: note_on channel=14 note=58 velocity=84 time=0.02163421875
EXTRACT: note_off channel=9 note=36 velocity=0 time=0.009615208333333333
EXTRACT: note_off channel=14 note=58 velocity=0 time=0.08413307291666666
EXTRACT: note_on channel=9 note=36 velocity=122 time=0.02163421875
EXTRACT: note_on channel=9 note=39 velocity=72 time=0
EXTRACT: note_on channel=9 note=40 velocity=74 time=0
EXTRACT: note_on channel=9 note=44 velocity=101 time=0
EXTRACT: note_on channel=12 note=53 velocity=82 time=0
EXTRACT: note_on channel=12 note=58 velocity=88 time=0
EXTRACT: note_on channel=12 note=63 velocity=82 time=0
EXTRACT: note_on channel=14 note=46 velocity=87 time=0
EXTRACT: note_off channel=14 note=46 velocity=0 time=0.09615208333333333
EXTRACT: note_off channel=9 note=46 velocity=0 time=0.00721140625
EXTRACT: note_on channel=14 note=58 velocity=84 time=0.012019010416666667
EXTRACT: note_off channel=5 note=63 velocity=0 time=0.02163421875
EXTRACT: note_off channel=5 note=68 velocity=0 time=0.0144228125
EXTRACT: note_off channel=12 note=53 velocity=0 time=0.00721140625
EXTRACT: note_off channel=12 note=58 velocity=0 time=0.04086463541666667
EXTRACT: note_off channel=12 note=63 velocity=0 time=0.016826614583333333
EXTRACT: note_off channel=14 note=58 velocity=0 time=0
EXTRACT: note_off channel=1 note=27 velocity=0 time=0.012019010416666667
EXTRACT: note_on channel=9 note=46 velocity=70 time=0.0024038020833333333
EXTRACT: note_on channel=1 note=31 velocity=62 time=0
EXTRACT: note_on channel=3 note=68 velocity=97 time=0
EXTRACT: note_on channel=4 note=80 velocity=87 time=0
EXTRACT: note_on channel=5 note=62 velocity=85 time=0
EXTRACT: note_on channel=5 note=65 velocity=91 time=0
EXTRACT: note_on channel=12 note=53 velocity=82 time=0
EXTRACT: note_on channel=12 note=58 velocity=73 time=0
EXTRACT: note_on channel=12 note=62 velocity=73 time=0
EXTRACT: note_on channel=14 note=46 velocity=87 time=0
EXTRACT: note_off channel=6 note=63 velocity=0 time=0.00721140625
EXTRACT: note_off channel=6 note=68 velocity=0 time=0.0144228125
EXTRACT: note_off channel=6 note=58 velocity=0 time=0.0024038020833333333
EXTRACT: note_off channel=5 note=65 velocity=0 time=0.05047984375
EXTRACT: note_off channel=9 note=36 velocity=0 time=0.0024038020833333333
EXTRACT: note_off channel=5 note=62 velocity=0 time=0.004807604166666667
EXTRACT: note_off channel=9 note=44 velocity=0 time=0.0024038020833333333
EXTRACT: note_off channel=12 note=62 velocity=0 time=0.0024038020833333333
EXTRACT: note_off channel=14 note=46 velocity=0 time=0.00721140625
EXTRACT: note_off channel=12 note=58 velocity=0 time=0.016826614583333333
EXTRACT: note_off channel=12 note=53 velocity=0 time=0
EXTRACT: note_off channel=3 note=70 velocity=0 time=0.0012019010416666667
EXTRACT: note_off channel=4 note=82 velocity=0 time=0
EXTRACT: note_on channel=14 note=58 velocity=83 time=0.003605703125
EXTRACT: note_off channel=9 note=46 velocity=0 time=0.0432684375
EXTRACT: note_off channel=1 note=31 velocity=0 time=0.02163421875
EXTRACT: note_off channel=14 note=58 velocity=0 time=0.036057031249999996
EXTRACT: note_on channel=9 note=36 velocity=125 time=0.0144228125
EXTRACT: note_on channel=9 note=44 velocity=111 time=0
EXTRACT: note_on channel=1 note=34 velocity=82 time=0
EXTRACT: note_on channel=14 note=46 velocity=87 time=0
EXTRACT: note_off channel=14 note=46 velocity=0 time=0.09374828125
EXTRACT: note_on channel=14 note=58 velocity=84 time=0.02163421875
EXTRACT: note_off channel=14 note=58 velocity=0 time=0.10576729166666667
EXTRACT: note_on channel=9 note=46 velocity=75 time=0.009615208333333333
EXTRACT: note_on channel=3 note=67 velocity=97 time=0
EXTRACT: note_on channel=4 note=79 velocity=87 time=0
EXTRACT: note_on channel=5 note=62 velocity=82 time=0
EXTRACT: note_on channel=5 note=65 velocity=91 time=0
EXTRACT: note_on channel=6 note=58 velocity=105 time=0
EXTRACT: note_on channel=6 note=62 velocity=90 time=0
EXTRACT: note_on channel=6 note=65 velocity=95 time=0
EXTRACT: note_on channel=12 note=53 velocity=82 time=0
EXTRACT: note_on channel=12 note=58 velocity=82 time=0
EXTRACT: note_on channel=12 note=62 velocity=73 time=0
EXTRACT: note_on channel=14 note=46 velocity=86 time=0
EXTRACT: note_off channel=9 note=44 velocity=0 time=0.026441822916666666
EXTRACT: note_off channel=9 note=40 velocity=0 time=0.031249427083333333
EXTRACT: note_off channel=9 note=39 velocity=0 time=0
EXTRACT: note_off channel=3 note=68 velocity=0 time=0.012019010416666667
EXTRACT: note_off channel=4 note=80 velocity=0 time=0
EXTRACT: note_off channel=6 note=65 velocity=0 time=0.004807604166666667
EXTRACT: note_off channel=5 note=65 velocity=0 time=0.00721140625
EXTRACT: note_off channel=5 note=62 velocity=0 time=0
EXTRACT: note_off channel=6 note=62 velocity=0 time=0
EXTRACT: note_off channel=6 note=58 velocity=0 time=0.0024038020833333333
EXTRACT: note_off channel=14 note=46 velocity=0 time=0
EXTRACT: note_off channel=12 note=58 velocity=0 time=0.012019010416666667
EXTRACT: note_off channel=12 note=62 velocity=0 time=0.0024038020833333333
EXTRACT: note_off channel=12 note=53 velocity=0 time=0.00721140625
EXTRACT: note_off channel=9 note=36 velocity=0 time=0.00721140625
EXTRACT: note_on channel=14 note=58 velocity=84 time=0.0024038020833333333
EXTRACT: note_off channel=14 note=58 velocity=0 time=0.10576729166666667
EXTRACT: note_off channel=1 note=34 velocity=0 time=0.004807604166666667
EXTRACT: note_on channel=9 note=36 velocity=122 time=0.004807604166666667
EXTRACT: note_on channel=9 note=39 velocity=80 time=0
EXTRACT: note_on channel=9 note=40 velocity=78 time=0
EXTRACT: note_on channel=9 note=44 velocity=92 time=0
EXTRACT: note_on channel=1 note=29 velocity=76 time=0
EXTRACT: note_on channel=14 note=46 velocity=87 time=0
EXTRACT: note_off channel=14 note=46 velocity=0 time=0.09855588541666667
EXTRACT: note_off channel=9 note=46 velocity=0 time=0.0144228125
EXTRACT: note_on channel=14 note=58 velocity=84 time=0.0024038020833333333
EXTRACT: note_off channel=14 note=58 velocity=0 time=0.09374828125
EXTRACT: note_off channel=1 note=29 velocity=0 time=0.016826614583333333
EXTRACT: note_on channel=9 note=46 velocity=63 time=0.004807604166666667
EXTRACT: note_on channel=1 note=27 velocity=91 time=0
EXTRACT: note_on channel=3 note=65 velocity=97 time=0
EXTRACT: note_on channel=4 note=77 velocity=87 time=0
EXTRACT: note_on channel=5 note=63 velocity=91 time=0
EXTRACT: note_on channel=5 note=67 velocity=82 time=0
EXTRACT: note_on channel=6 note=58 velocity=92 time=0
EXTRACT: note_on channel=6 note=62 velocity=90 time=0
EXTRACT: note_on channel=6 note=65 velocity=98 time=0
EXTRACT: note_on channel=12 note=53 velocity=88 time=0
EXTRACT: note_on channel=12 note=58 velocity=78 time=0
EXTRACT: note_on channel=12 note=63 velocity=74 time=0
EXTRACT: note_on channel=14 note=46 velocity=86 time=0
EXTRACT: note_off channel=9 note=44 velocity=0 time=0.036057031249999996
EXTRACT: note_off channel=6 note=62 velocity=0 time=0.012019010416666667
EXTRACT: note_off channel=6 note=65 velocity=0 time=0.0024038020833333333
EXTRACT: note_off channel=3 note=67 velocity=0 time=0.025239921875
EXTRACT: note_off channel=4 note=79 velocity=0 time=0
EXTRACT: note_off channel=6 note=58 velocity=0 time=0.0012019010416666667
EXTRACT: note_off channel=14 note=46 velocity=0 time=0.012019010416666667
EXTRACT: note_off channel=5 note=63 velocity=0 time=0.00721140625
EXTRACT: note_off channel=5 note=67 velocity=0 time=0.012019010416666667
EXTRACT: note_off channel=12 note=58 velocity=0 time=0.0024038020833333333
EXTRACT: note_off channel=9 note=36 velocity=0 time=0.004807604166666667
EXTRACT: note_on channel=14 note=58 velocity=84 time=0
EXTRACT: note_off channel=12 note=63 velocity=0 time=0.00721140625
EXTRACT: note_off channel=12 note=53 velocity=0 time=0
EXTRACT: note_off channel=14 note=58 velocity=0 time=0.08894067708333334
EXTRACT: note_on channel=9 note=36 velocity=125 time=0.019230416666666666
EXTRACT: note_on channel=9 note=44 velocity=85 time=0
EXTRACT: note_on channel=14 note=46 velocity=87 time=0
EXTRACT: note_off channel=9 note=46 velocity=0 time=0.07692166666666667
EXTRACT: note_off channel=14 note=46 velocity=0 time=0.012019010416666667
EXTRACT: note_off channel=1 note=27 velocity=0 time=0.019230416666666666
EXTRACT: note_on channel=14 note=58 velocity=83 time=0.00721140625
EXTRACT: note_off channel=14 note=58 velocity=0 time=0.10336348958333333
EXTRACT: note_on channel=9 note=36 velocity=120 time=0.012019010416666667
EXTRACT: note_on channel=9 note=46 velocity=71 time=0
EXTRACT: note_on channel=1 note=27 velocity=95 time=0
EXTRACT: note_on channel=5 note=63 velocity=88 time=0
EXTRACT: note_on channel=5 note=68 velocity=88 time=0
EXTRACT: note_on channel=6 note=58 velocity=98 time=0
EXTRACT: note_on channel=6 note=63 velocity=101 time=0
EXTRACT: note_on channel=6 note=68 velocity=98 time=0
EXTRACT: note_on channel=12 note=53 velocity=85 time=0
EXTRACT: note_on channel=12 note=58 velocity=88 time=0
EXTRACT: note_on channel=12 note=63 velocity=88 time=0
EXTRACT: note_on channel=14 note=46 velocity=86 time=0
EXTRACT: note_off channel=9 note=40 velocity=0 time=0.05288364583333333
EXTRACT: note_off channel=9 note=39 velocity=0 time=0.0024038020833333333
EXTRACT: note_off channel=9 note=36 velocity=64 time=0.0024038020833333333
EXTRACT: note_off channel=9 note=36 velocity=0 time=0.028845625
EXTRACT: note_off channel=9 note=44 velocity=0 time=0.0024038020833333333
EXTRACT: note_off channel=14 note=46 velocity=0 time=0.004807604166666667
EXTRACT: note_on channel=14 note=58 velocity=84 time=0.02163421875
EXTRACT: note_off channel=14 note=58 velocity=0 time=0.1009596875
EXTRACT: note_on channel=9 note=36 velocity=122 time=0.0144228125
EXTRACT: note_on channel=9 note=39 velocity=86 time=0
EXTRACT: note_on channel=9 note=40 velocity=86 time=0
EXTRACT: note_on channel=9 note=44 velocity=101 time=0
EXTRACT: note_on channel=14 note=46 velocity=87 time=0
EXTRACT: note_off channel=14 note=46 velocity=0 time=0.09134447916666666
EXTRACT: note_off channel=9 note=46 velocity=0 time=0.012019010416666667
EXTRACT: note_on channel=14 note=58 velocity=84 time=0.012019010416666667
EXTRACT: note_off channel=12 note=58 velocity=0 time=0.0144228125
EXTRACT: note_off channel=9 note=36 velocity=0 time=0.0024038020833333333
EXTRACT: note_off channel=12 note=63 velocity=0 time=0.00721140625
EXTRACT: note_off channel=12 note=53 velocity=0 time=0
EXTRACT: note_off channel=5 note=63 velocity=0 time=0.05769125
EXTRACT: note_off channel=5 note=68 velocity=0 time=0.0144228125
EXTRACT: note_off channel=14 note=58 velocity=0 time=0
EXTRACT: note_off channel=3 note=65 velocity=0 time=0.012019010416666667
EXTRACT: note_off channel=4 note=77 velocity=0 time=0
EXTRACT: note_on channel=9 note=36 velocity=122 time=0.00721140625
EXTRACT: note_on channel=9 note=46 velocity=70 time=0
EXTRACT: note_on channel=1 note=31 velocity=85 time=0
EXTRACT: note_on channel=12 note=53 velocity=78 time=0
EXTRACT: note_on channel=12 note=58 velocity=80 time=0
EXTRACT: note_on channel=12 note=63 velocity=82 time=0
EXTRACT: note_on channel=14 note=46 velocity=86 time=0
EXTRACT: note_off channel=1 note=27 velocity=0 time=0.00721140625
EXTRACT: note_off channel=9 note=39 velocity=0 time=0.05047984375
EXTRACT: note_off channel=9 note=40 velocity=0 time=0.004807604166666667
EXTRACT: note_off channel=6 note=63 velocity=0 time=0.004807604166666667
EXTRACT: note_off channel=9 note=44 velocity=0 time=0.016826614583333333
EXTRACT: note_off channel=6 note=68 velocity=0 time=0
EXTRACT: note_off channel=6 note=58 velocity=0 time=0.0024038020833333333
EXTRACT: note_off channel=12 note=58 velocity=0 time=0.0024038020833333333
EXTRACT: note_off channel=14 note=46 velocity=0 time=0.004807604166666667
EXTRACT: note_off channel=12 note=63 velocity=0 time=0.012019010416666667
EXTRACT: note_off channel=12 note=53 velocity=0 time=0
EXTRACT: note_on channel=14 note=58 velocity=85 time=0.009615208333333333
EXTRACT: note_off channel=9 note=36 velocity=0 time=0.02163421875
EXTRACT: note_off channel=9 note=46 velocity=0 time=0.02163421875
EXTRACT: note_off channel=1 note=31 velocity=0 time=0.031249427083333333
EXTRACT: note_off channel=14 note=58 velocity=0 time=0.019230416666666666
EXTRACT: note_on channel=9 note=36 velocity=125 time=0.02163421875
EXTRACT: note_on channel=9 note=44 velocity=111 time=0
EXTRACT: note_on channel=9 note=49 velocity=80 time=0
EXTRACT: note_on channel=9 note=57 velocity=89 time=0
EXTRACT: note_on channel=1 note=34 velocity=104 time=0
EXTRACT: note_on channel=6 note=68 velocity=117 time=0
EXTRACT: note_on channel=6 note=73 velocity=109 time=0
EXTRACT: note_off channel=9 note=49 velocity=0 time=0.07692166666666667
EXTRACT: note_off channel=6 note=68 velocity=0 time=0.00721140625
EXTRACT: note_off channel=9 note=57 velocity=0 time=0.004807604166666667
EXTRACT: note_off channel=6 note=73 velocity=0 time=0.012019010416666667
EXTRACT: note_off channel=9 note=36 velocity=0 time=0.0024038020833333333
EXTRACT: note_on channel=9 note=46 velocity=75 time=0.12740151041666667
EXTRACT: note_on channel=6 note=68 velocity=109 time=0
EXTRACT: note_on channel=6 note=73 velocity=100 time=0
EXTRACT: note_off channel=9 note=44 velocity=0 time=0.026441822916666666
EXTRACT: note_off channel=1 note=34 velocity=0 time=0.16826614583333332
EXTRACT: note_on channel=9 note=36 velocity=107 time=0.036057031249999996
EXTRACT: note_on channel=9 note=39 velocity=78 time=0
EXTRACT: note_on channel=9 note=40 velocity=74 time=0
EXTRACT: note_on channel=9 note=44 velocity=92 time=0
EXTRACT: note_on channel=1 note=29 velocity=73 time=0
EXTRACT: note_on channel=5 note=62 velocity=78 time=0
EXTRACT: note_on channel=5 note=65 velocity=85 time=0
EXTRACT: note_on channel=6 note=58 velocity=117 time=0
EXTRACT: note_on channel=6 note=62 velocity=98 time=0
EXTRACT: note_on channel=6 note=65 velocity=108 time=0
EXTRACT: note_on channel=12 note=53 velocity=95 time=0
EXTRACT: note_on channel=12 note=58 velocity=91 time=0
EXTRACT: note_on channel=12 note=62 velocity=88 time=0
EXTRACT: note_off channel=6 note=68 velocity=0 time=0.09134447916666666
EXTRACT: note_off channel=6 note=73 velocity=0 time=0.00721140625
EXTRACT: note_off channel=12 note=53 velocity=0 time=0.00721140625
EXTRACT: note_off channel=9 note=46 velocity=0 time=0.00721140625
EXTRACT: note_off channel=12 note=58 velocity=0 time=0.00721140625
EXTRACT: note_off channel=9 note=36 velocity=0 time=0.012019010416666667
EXTRACT: note_off channel=12 note=62 velocity=0 time=0.009615208333333333
EXTRACT: note_off channel=1 note=29 velocity=0 time=0.026441822916666666
EXTRACT: note_off channel=5 note=62 velocity=0 time=0.012019010416666667
EXTRACT: note_off channel=6 note=58 velocity=0 time=0
EXTRACT: note_off channel=6 note=62 velocity=0 time=0.0024038020833333333
EXTRACT: note_off channel=5 note=65 velocity=0 time=0.0024038020833333333
EXTRACT: note_off channel=6 note=65 velocity=0 time=0.0024038020833333333
EXTRACT: note_on channel=9 note=46 velocity=63 time=0.0432684375
EXTRACT: note_on channel=1 note=27 velocity=88 time=0
EXTRACT: note_on channel=3 note=58 velocity=97 time=0
EXTRACT: note_on channel=4 note=70 velocity=87 time=0
EXTRACT: note_on channel=12 note=58 velocity=95 time=0
EXTRACT: note_on channel=12 note=63 velocity=95 time=0
EXTRACT: note_off channel=9 note=44 velocity=0 time=0.036057031249999996
EXTRACT: note_on channel=9 note=36 velocity=93 time=0.19470796875
EXTRACT: note_on channel=9 note=44 velocity=85 time=0
EXTRACT: note_on channel=5 note=63 velocity=82 time=0
EXTRACT: note_on channel=5 note=67 velocity=82 time=0
EXTRACT: note_off channel=12 note=58 velocity=0 time=0.0144228125
EXTRACT: note_off channel=12 note=63 velocity=0 time=0.02163421875
EXTRACT: note_off channel=9 note=46 velocity=0 time=0.04086463541666667
EXTRACT: note_off channel=5 note=63 velocity=0 time=0.02163421875
EXTRACT: note_off channel=5 note=67 velocity=0 time=0.012019010416666667
EXTRACT: note_off channel=1 note=27 velocity=0 time=0.06971026041666667
EXTRACT: note_on channel=9 note=36 velocity=120 time=0.05047984375
EXTRACT: note_on channel=9 note=46 velocity=71 time=0
EXTRACT: note_on channel=1 note=27 velocity=95 time=0
EXTRACT: note_on channel=5 note=63 velocity=80 time=0
EXTRACT: note_on channel=5 note=68 velocity=82 time=0
EXTRACT: note_on channel=6 note=58 velocity=105 time=0
EXTRACT: note_on channel=6 note=63 velocity=101 time=0
EXTRACT: note_on channel=6 note=68 velocity=101 time=0
EXTRACT: note_on channel=12 note=58 velocity=109 time=0
EXTRACT: note_on channel=12 note=63 velocity=109 time=0
EXTRACT: note_off channel=9 note=36 velocity=0 time=0.028845625
EXTRACT: pitchwheel channel=3 pitch=-512 time=0
EXTRACT: pitchwheel channel=4 pitch=-512 time=0
EXTRACT: pitchwheel channel=3 pitch=-1024 time=0.019230416666666666
EXTRACT: pitchwheel channel=4 pitch=-1024 time=0
EXTRACT: note_off channel=9 note=36 velocity=64 time=0.009615208333333333
EXTRACT: pitchwheel channel=3 pitch=-1280 time=0.012019010416666667
EXTRACT: pitchwheel channel=4 pitch=-1280 time=0
EXTRACT: note_off channel=9 note=44 velocity=0 time=0.019230416666666666
EXTRACT: note_off channel=9 note=39 velocity=0 time=0.004807604166666667
EXTRACT: note_off channel=9 note=40 velocity=0 time=0.009615208333333333
EXTRACT: pitchwheel channel=3 pitch=-1024 time=0.08172927083333334
EXTRACT: pitchwheel channel=4 pitch=-1024 time=0
EXTRACT: pitchwheel channel=3 pitch=-512 time=0.019230416666666666
EXTRACT: pitchwheel channel=4 pitch=-512 time=0
EXTRACT: pitchwheel channel=3 pitch=0 time=0.019230416666666666
EXTRACT: pitchwheel channel=4 pitch=0 time=0
EXTRACT: note_on channel=9 note=36 velocity=125 time=0.00721140625
EXTRACT: note_on channel=9 note=39 velocity=62 time=0
EXTRACT: note_on channel=9 note=40 velocity=66 time=0
EXTRACT: note_on channel=9 note=44 velocity=101 time=0
EXTRACT: note_off channel=9 note=46 velocity=0 time=0.10336348958333333
EXTRACT: note_off channel=1 note=27 velocity=0 time=0.12499770833333333
EXTRACT: note_on channel=9 note=46 velocity=70 time=0.0024038020833333333
EXTRACT: note_on channel=1 note=31 velocity=62 time=0
EXTRACT: note_off channel=6 note=63 velocity=0 time=0.00721140625
EXTRACT: note_off channel=12 note=58 velocity=0 time=0.00721140625
EXTRACT: note_off channel=5 note=63 velocity=0 time=0.00721140625
EXTRACT: note_off channel=6 note=68 velocity=0 time=0
EXTRACT: note_off channel=6 note=58 velocity=0 time=0.0024038020833333333
EXTRACT: note_off channel=12 note=63 velocity=0 time=0.00721140625
EXTRACT: note_off channel=5 note=68 velocity=0 time=0.00721140625
EXTRACT: note_off channel=9 note=44 velocity=0 time=0.04567223958333333
EXTRACT: note_off channel=9 note=36 velocity=0 time=0.0024038020833333333
EXTRACT: note_off channel=9 note=46 velocity=0 time=0.07211406249999999
EXTRACT: note_off channel=1 note=31 velocity=0 time=0.02163421875
EXTRACT: note_on channel=9 note=36 velocity=118 time=0.05047984375
EXTRACT: note_on channel=9 note=44 velocity=111 time=0
EXTRACT: note_on channel=1 note=34 velocity=82 time=0
EXTRACT: note_on channel=6 note=68 velocity=117 time=0
EXTRACT: note_on channel=6 note=73 velocity=109 time=0
EXTRACT: note_off channel=6 note=68 velocity=0 time=0.08413307291666666
EXTRACT: note_off channel=6 note=73 velocity=0 time=0.016826614583333333
EXTRACT: note_on channel=9 note=46 velocity=75 time=0.1298053125
EXTRACT: note_on channel=6 note=58 velocity=105 time=0
EXTRACT: note_on channel=6 note=62 velocity=90 time=0
EXTRACT: note_on channel=6 note=65 velocity=95 time=0
EXTRACT: note_on channel=6 note=68 velocity=109 time=0
EXTRACT: note_on channel=6 note=73 velocity=100 time=0
EXTRACT: note_off channel=9 note=44 velocity=0 time=0.026441822916666666
EXTRACT: note_off channel=6 note=65 velocity=0 time=0.048076041666666666
EXTRACT: note_off channel=9 note=36 velocity=0 time=0.0024038020833333333
EXTRACT: note_off channel=6 note=62 velocity=0 time=0.004807604166666667
EXTRACT: note_off channel=6 note=58 velocity=0 time=0.0024038020833333333
EXTRACT: note_off channel=9 note=40 velocity=0 time=0.012019010416666667
EXTRACT: note_off channel=9 note=39 velocity=0 time=0.009615208333333333
EXTRACT: note_off channel=1 note=34 velocity=0 time=0.12019010416666667
EXTRACT: note_on channel=9 note=36 velocity=118 time=0.004807604166666667
EXTRACT: note_on channel=9 note=39 velocity=66 time=0
EXTRACT: note_on channel=9 note=40 velocity=74 time=0
EXTRACT: note_on channel=9 note=44 velocity=92 time=0
EXTRACT: note_on channel=1 note=29 velocity=76 time=0
EXTRACT: note_on channel=5 note=62 velocity=78 time=0
EXTRACT: note_on channel=5 note=65 velocity=80 time=0
EXTRACT: note_on channel=12 note=53 velocity=95 time=0
EXTRACT: note_on channel=12 note=58 velocity=95 time=0
EXTRACT: note_on channel=12 note=62 velocity=85 time=0
EXTRACT: note_off channel=5 note=65 velocity=0 time=0.07692166666666667
EXTRACT: note_off channel=5 note=62 velocity=0 time=0.009615208333333333
EXTRACT: note_off channel=6 note=68 velocity=0 time=0.004807604166666667
EXTRACT: note_off channel=6 note=73 velocity=0 time=0.00721140625
EXTRACT: note_off channel=9 note=46 velocity=0 time=0.0144228125
EXTRACT: note_off channel=12 note=58 velocity=0 time=0.05288364583333333
EXTRACT: note_off channel=12 note=62 velocity=0 time=0.009615208333333333
EXTRACT: note_off channel=1 note=29 velocity=0 time=0.05047984375
EXTRACT: note_on channel=9 note=46 velocity=63 time=0.004807604166666667
EXTRACT: note_on channel=1 note=27 velocity=91 time=0
EXTRACT: note_on channel=5 note=62 velocity=68 time=0
EXTRACT: note_on channel=5 note=65 velocity=74 time=0
EXTRACT: note_on channel=6 note=58 velocity=92 time=0
EXTRACT: note_on channel=6 note=62 velocity=90 time=0
EXTRACT: note_on channel=6 note=65 velocity=98 time=0
EXTRACT: note_on channel=12 note=58 velocity=95 time=0
EXTRACT: note_on channel=12 note=63 velocity=104 time=0
EXTRACT: note_off channel=12 note=53 velocity=0 time=0.012019010416666667
EXTRACT: note_off channel=9 note=44 velocity=0 time=0.024038020833333333
EXTRACT: note_off channel=6 note=62 velocity=0 time=0.012019010416666667
EXTRACT: note_off channel=6 note=65 velocity=0 time=0.0024038020833333333
EXTRACT: note_off channel=6 note=58 velocity=0 time=0.026441822916666666
EXTRACT: note_off channel=5 note=62 velocity=0 time=0.0024038020833333333
EXTRACT: note_off channel=5 note=65 velocity=0 time=0.00721140625
EXTRACT: note_off channel=12 note=58 velocity=0 time=0.04567223958333333
EXTRACT: note_off channel=9 note=36 velocity=0 time=0.009615208333333333
EXTRACT: note_off channel=12 note=63 velocity=0 time=0.019230416666666666
EXTRACT: note_on channel=9 note=36 velocity=125 time=0.06971026041666667
EXTRACT: note_on channel=9 note=44 velocity=85 time=0
EXTRACT: note_on channel=5 note=63 velocity=63 time=0
EXTRACT: note_on channel=5 note=67 velocity=73 time=0
EXTRACT: note_off channel=5 note=63 velocity=0 time=0.04086463541666667
EXTRACT: note_off channel=5 note=67 velocity=0 time=0.028845625
EXTRACT: note_off channel=9 note=46 velocity=0 time=0.00721140625
EXTRACT: note_off channel=1 note=27 velocity=0 time=0.031249427083333333
EXTRACT: note_on channel=9 note=36 velocity=120 time=0.12259390625
EXTRACT: note_on channel=9 note=46 velocity=71 time=0
EXTRACT: note_on channel=1 note=27 velocity=95 time=0
EXTRACT: note_on channel=5 note=63 velocity=74 time=0
EXTRACT: note_on channel=5 note=68 velocity=73 time=0
EXTRACT: note_on channel=6 note=58 velocity=98 time=0
EXTRACT: note_on channel=6 note=63 velocity=101 time=0
EXTRACT: note_on channel=6 note=68 velocity=98 time=0
EXTRACT: note_on channel=12 note=58 velocity=104 time=0
EXTRACT: note_on channel=12 note=63 velocity=95 time=0
EXTRACT: note_off channel=9 note=36 velocity=64 time=0.05769125
EXTRACT: note_off channel=9 note=44 velocity=0 time=0.031249427083333333
EXTRACT: note_off channel=9 note=39 velocity=0 time=0.0024038020833333333
EXTRACT: note_off channel=9 note=40 velocity=0 time=0.0024038020833333333
EXTRACT: note_off channel=9 note=36 velocity=0 time=0.019230416666666666
EXTRACT: note_on channel=9 note=36 velocity=122 time=0.11778630208333334
EXTRACT: note_on channel=9 note=39 velocity=65 time=0
EXTRACT: note_on channel=9 note=40 velocity=63 time=0
EXTRACT: note_on channel=9 note=44 velocity=101 time=0
EXTRACT: note_off channel=9 note=46 velocity=0 time=0.10336348958333333
EXTRACT: note_off channel=12 note=58 velocity=0 time=0.028845625
EXTRACT: note_off channel=12 note=63 velocity=0 time=0.019230416666666666
EXTRACT: note_on channel=9 note=46 velocity=70 time=0.07932546875
EXTRACT: note_on channel=1 note=31 velocity=85 time=0
EXTRACT: note_on channel=12 note=58 velocity=104 time=0
EXTRACT: note_on channel=12 note=63 velocity=104 time=0
EXTRACT: note_off channel=1 note=27 velocity=0 time=0.00721140625
EXTRACT: note_off channel=5 note=63 velocity=0 time=0.033653229166666666
EXTRACT: note_off channel=5 note=68 velocity=0 time=0.016826614583333333
EXTRACT: note_off channel=6 note=63 velocity=0 time=0.009615208333333333
EXTRACT: note_off channel=9 note=44 velocity=0 time=0.016826614583333333
EXTRACT: note_off channel=6 note=68 velocity=0 time=0
EXTRACT: note_off channel=6 note=58 velocity=0 time=0.0024038020833333333
EXTRACT: note_off channel=12 note=58 velocity=0 time=0.0024038020833333333
EXTRACT: note_off channel=9 note=36 velocity=0 time=0.028845625
EXTRACT: note_off channel=12 note=63 velocity=0 time=0.0024038020833333333
EXTRACT: note_off channel=9 note=46 velocity=0 time=0.03846083333333333
EXTRACT: note_off channel=1 note=31 velocity=0 time=0.031249427083333333
EXTRACT: note_on channel=9 note=35 velocity=120 time=0.04086463541666667
EXTRACT: note_on channel=9 note=36 velocity=118 time=0
EXTRACT: note_on channel=9 note=44 velocity=111 time=0
EXTRACT: note_on channel=1 note=34 velocity=104 time=0
EXTRACT: note_on channel=6 note=68 velocity=117 time=0
EXTRACT: note_on channel=6 note=73 velocity=109 time=0
EXTRACT: note_off channel=3 note=58 velocity=0 time=0.022836119791666665
EXTRACT: note_off channel=4 note=70 velocity=0 time=0
EXTRACT: note_off channel=6 note=68 velocity=0 time=0.061296953125
EXTRACT: note_off channel=6 note=73 velocity=0 time=0.016826614583333333
EXTRACT: note_on channel=9 note=46 velocity=75 time=0.1298053125
EXTRACT: note_on channel=6 note=68 velocity=109 time=0
EXTRACT: note_on channel=6 note=73 velocity=100 time=0
EXTRACT: note_off channel=9 note=44 velocity=0 time=0.026441822916666666
EXTRACT: note_off channel=9 note=39 velocity=0 time=0.04086463541666667
EXTRACT: note_off channel=9 note=40 velocity=0 time=0.00721140625
EXTRACT: note_off channel=9 note=36 velocity=0 time=0.026441822916666666
EXTRACT: note_off channel=1 note=34 velocity=0 time=0.09374828125
EXTRACT: note_on channel=9 note=36 velocity=118 time=0.036057031249999996
EXTRACT: note_on channel=9 note=39 velocity=62 time=0
EXTRACT: note_on channel=9 note=40 velocity=63 time=0
EXTRACT: note_on channel=9 note=44 velocity=92 time=0
EXTRACT: note_on channel=1 note=29 velocity=73 time=0
EXTRACT: note_on channel=5 note=62 velocity=76 time=0
EXTRACT: note_on channel=5 note=65 velocity=80 time=0
EXTRACT: note_on channel=6 note=58 velocity=117 time=0
EXTRACT: note_on channel=6 note=62 velocity=98 time=0
EXTRACT: note_on channel=6 note=65 velocity=108 time=0
EXTRACT: note_on channel=12 note=53 velocity=104 time=0
EXTRACT: note_on channel=12 note=58 velocity=95 time=0
EXTRACT: note_on channel=12 note=62 velocity=91 time=0
EXTRACT: note_off channel=9 note=35 velocity=0 time=0.07692166666666667
EXTRACT: note_off channel=6 note=68 velocity=0 time=0.0144228125
EXTRACT: note_off channel=5 note=62 velocity=0 time=0.004807604166666667
EXTRACT: note_off channel=6 note=73 velocity=0 time=0.0024038020833333333
EXTRACT: note_off channel=5 note=65 velocity=0 time=0.004807604166666667
EXTRACT: note_off channel=9 note=46 velocity=0 time=0.009615208333333333
EXTRACT: note_off channel=12 note=58 velocity=0 time=0.05288364583333333
EXTRACT: note_off channel=1 note=29 velocity=0 time=0.0024038020833333333
EXTRACT: note_off channel=6 note=58 velocity=0 time=0.012019010416666667
EXTRACT: note_off channel=6 note=62 velocity=0 time=0.0024038020833333333
EXTRACT: note_off channel=12 note=62 velocity=0 time=0.0024038020833333333
EXTRACT: note_off channel=6 note=65 velocity=0 time=0.0024038020833333333
EXTRACT: note_off channel=9 note=40 velocity=0 time=0.033653229166666666
EXTRACT: note_off channel=12 note=53 velocity=0 time=0.004807604166666667
EXTRACT: note_on channel=9 note=35 velocity=63 time=0.004807604166666667
EXTRACT: note_on channel=9 note=46 velocity=63 time=0
EXTRACT: note_on channel=1 note=27 velocity=88 time=0
EXTRACT: note_on channel=12 note=58 velocity=95 time=0
EXTRACT: note_on channel=12 note=63 velocity=95 time=0
EXTRACT: note_off channel=9 note=44 velocity=0 time=0.036057031249999996
EXTRACT: note_off channel=9 note=35 velocity=0 time=0.031249427083333333
EXTRACT: note_on channel=9 note=40 velocity=87 time=0.06730645833333333
EXTRACT: note_off channel=9 note=36 velocity=0 time=0.0024038020833333333
EXTRACT: note_off channel=12 note=58 velocity=0 time=0.048076041666666666
EXTRACT: note_off channel=12 note=63 velocity=0 time=0.016826614583333333
EXTRACT: note_off channel=9 note=40 velocity=0 time=0.019230416666666666
EXTRACT: note_on channel=9 note=35 velocity=110 time=0.009615208333333333
EXTRACT: note_on channel=9 note=36 velocity=125 time=0
EXTRACT: note_on channel=9 note=44 velocity=85 time=0
EXTRACT: note_on channel=5 note=63 velocity=80 time=0
EXTRACT: note_on channel=5 note=67 velocity=74 time=0
EXTRACT: note_off channel=9 note=46 velocity=0 time=0.07692166666666667
EXTRACT: note_off channel=5 note=63 velocity=0 time=0.00721140625
EXTRACT: note_off channel=9 note=35 velocity=0 time=0.009615208333333333
EXTRACT: note_off channel=5 note=67 velocity=0 time=0.0024038020833333333
EXTRACT: note_off channel=1 note=27 velocity=0 time=0.08413307291666666
EXTRACT: note_on channel=9 note=36 velocity=120 time=0.05047984375
EXTRACT: note_on channel=9 note=35 velocity=94 time=0
EXTRACT: note_on channel=9 note=46 velocity=71 time=0
EXTRACT: note_on channel=1 note=27 velocity=95 time=0
EXTRACT: note_on channel=5 note=63 velocity=71 time=0
EXTRACT: note_on channel=5 note=68 velocity=78 time=0
EXTRACT: note_on channel=6 note=58 velocity=105 time=0
EXTRACT: note_on channel=6 note=63 velocity=101 time=0
EXTRACT: note_on channel=6 note=68 velocity=101 time=0
EXTRACT: note_on channel=12 note=58 velocity=104 time=0
EXTRACT: note_on channel=12 note=63 velocity=104 time=0
EXTRACT: note_off channel=9 note=36 velocity=64 time=0.05769125
EXTRACT: note_off channel=9 note=44 velocity=0 time=0.031249427083333333
EXTRACT: note_off channel=9 note=36 velocity=0 time=0.004807604166666667
EXTRACT: note_off channel=9 note=39 velocity=0 time=0
EXTRACT: note_on channel=9 note=36 velocity=125 time=0.13701671875
EXTRACT: note_on channel=9 note=39 velocity=66 time=0
EXTRACT: note_on channel=9 note=40 velocity=65 time=0
EXTRACT: note_on channel=9 note=44 velocity=101 time=0
EXTRACT: note_off channel=9 note=35 velocity=0 time=0.07211406249999999
EXTRACT: note_off channel=9 note=40 velocity=0 time=0.028845625
EXTRACT: note_off channel=9 note=46 velocity=0 time=0.0024038020833333333
EXTRACT: note_off channel=5 note=63 velocity=0 time=0.012019010416666667
EXTRACT: note_off channel=5 note=68 velocity=0 time=0.016826614583333333
EXTRACT: note_off channel=1 note=27 velocity=0 time=0.09615208333333333
EXTRACT: note_on channel=9 note=35 velocity=110 time=0.0024038020833333333
EXTRACT: note_on channel=9 note=46 velocity=70 time=0
EXTRACT: note_on channel=1 note=31 velocity=62 time=0
EXTRACT: note_off channel=6 note=63 velocity=0 time=0.00721140625
EXTRACT: note_off channel=6 note=68 velocity=0 time=0.0144228125
EXTRACT: note_off channel=6 note=58 velocity=0 time=0.0024038020833333333
EXTRACT: note_off channel=9 note=35 velocity=0 time=0.05528744791666666
EXTRACT: note_off channel=9 note=44 velocity=0 time=0.004807604166666667
EXTRACT: note_off channel=12 note=58 velocity=0 time=0.0024038020833333333
EXTRACT: note_off channel=9 note=36 velocity=0 time=0.004807604166666667
EXTRACT: note_off channel=12 note=63 velocity=0 time=0.0144228125
EXTRACT: note_on channel=9 note=40 velocity=87 time=0.028845625
EXTRACT: note_off channel=9 note=46 velocity=0 time=0.024038020833333333
EXTRACT: note_off channel=1 note=31 velocity=0 time=0.02163421875
EXTRACT: note_off channel=9 note=40 velocity=0 time=0.04086463541666667
EXTRACT: note_on channel=9 note=35 velocity=120 time=0.009615208333333333
EXTRACT: note_on channel=9 note=36 velocity=125 time=0
EXTRACT: note_on channel=9 note=44 velocity=111 time=0
EXTRACT: note_on channel=1 note=34 velocity=82 time=0
EXTRACT: note_on channel=6 note=68 velocity=117 time=0
EXTRACT: note_on channel=6 note=73 velocity=109 time=0
EXTRACT: note_off channel=6 note=68 velocity=0 time=0.08413307291666666
EXTRACT: note_off channel=9 note=35 velocity=0 time=0.00721140625
EXTRACT: note_off channel=6 note=73 velocity=0 time=0.009615208333333333
EXTRACT: note_on channel=9 note=35 velocity=120 time=0.1298053125
EXTRACT: note_on channel=9 note=46 velocity=75 time=0
EXTRACT: note_on channel=5 note=62 velocity=78 time=0
EXTRACT: note_on channel=5 note=65 velocity=85 time=0
EXTRACT: note_on channel=6 note=58 velocity=105 time=0
EXTRACT: note_on channel=6 note=62 velocity=90 time=0
EXTRACT: note_on channel=6 note=65 velocity=95 time=0
EXTRACT: note_on channel=6 note=68 velocity=109 time=0
EXTRACT: note_on channel=6 note=73 velocity=100 time=0
EXTRACT: note_off channel=9 note=44 velocity=0 time=0.026441822916666666
EXTRACT: note_off channel=9 note=39 velocity=0 time=0.012019010416666667
EXTRACT: note_off channel=5 note=62 velocity=0 time=0.028845625
EXTRACT: note_off channel=6 note=65 velocity=0 time=0.00721140625
EXTRACT: note_off channel=5 note=65 velocity=0 time=0.0024038020833333333
EXTRACT: note_off channel=6 note=62 velocity=0 time=0.004807604166666667
EXTRACT: note_off channel=6 note=58 velocity=0 time=0.0024038020833333333
EXTRACT: note_off channel=9 note=36 velocity=0 time=0.019230416666666666
EXTRACT: note_off channel=1 note=34 velocity=0 time=0.12259390625
EXTRACT: note_on channel=9 note=36 velocity=122 time=0.004807604166666667
EXTRACT: note_on channel=9 note=39 velocity=65 time=0
EXTRACT: note_on channel=9 note=40 velocity=65 time=0
EXTRACT: note_on channel=9 note=44 velocity=92 time=0
EXTRACT: note_on channel=1 note=29 velocity=76 time=0
EXTRACT: note_on channel=12 note=53 velocity=104 time=0
EXTRACT: note_on channel=12 note=58 velocity=91 time=0
EXTRACT: note_on channel=12 note=62 velocity=91 time=0
EXTRACT: note_off channel=9 note=35 velocity=0 time=0.04086463541666667
EXTRACT: note_off channel=9 note=40 velocity=0 time=0.03846083333333333
EXTRACT: note_off channel=6 note=68 velocity=0 time=0.012019010416666667
EXTRACT: note_off channel=6 note=73 velocity=0 time=0.00721140625
EXTRACT: note_off channel=9 note=46 velocity=0 time=0.0144228125
EXTRACT: note_off channel=12 note=58 velocity=0 time=0.05769125
EXTRACT: note_off channel=12 note=62 velocity=0 time=0.00721140625
EXTRACT: note_off channel=1 note=29 velocity=0 time=0.048076041666666666
EXTRACT: note_on channel=9 note=40 velocity=100 time=0.004807604166666667
EXTRACT: note_on channel=9 note=46 velocity=63 time=0
EXTRACT: note_on channel=1 note=27 velocity=91 time=0
EXTRACT: note_on channel=5 note=63 velocity=88 time=0
EXTRACT: note_on channel=5 note=67 velocity=85 time=0
EXTRACT: note_on channel=6 note=58 velocity=92 time=0
EXTRACT: note_on channel=6 note=62 velocity=90 time=0
EXTRACT: note_on channel=6 note=65 velocity=98 time=0
EXTRACT: note_on channel=12 note=58 velocity=91 time=0
EXTRACT: note_on channel=12 note=63 velocity=95 time=0
EXTRACT: note_off channel=12 note=53 velocity=0 time=0.019230416666666666
EXTRACT: note_off channel=9 note=44 velocity=0 time=0.016826614583333333
EXTRACT: note_off channel=6 note=62 velocity=0 time=0.012019010416666667
EXTRACT: note_off channel=6 note=65 velocity=0 time=0.0024038020833333333
EXTRACT: note_off channel=5 note=63 velocity=0 time=0.0144228125
EXTRACT: note_off channel=9 note=40 velocity=0 time=0.00721140625
EXTRACT: note_off channel=6 note=58 velocity=0 time=0.004807604166666667
EXTRACT: note_off channel=5 note=67 velocity=0 time=0.004807604166666667
EXTRACT: note_off channel=9 note=36 velocity=0 time=0.036057031249999996
EXTRACT: note_off channel=12 note=58 velocity=0 time=0.036057031249999996
EXTRACT: note_off channel=12 note=63 velocity=0 time=0.031249427083333333
EXTRACT: note_on channel=9 note=35 velocity=105 time=0.04567223958333333
EXTRACT: note_on channel=9 note=36 velocity=125 time=0
EXTRACT: note_on channel=9 note=44 velocity=85 time=0
EXTRACT: note_off channel=9 note=46 velocity=0 time=0.07692166666666667
EXTRACT: note_off channel=9 note=35 velocity=0 time=0.004807604166666667
EXTRACT: note_off channel=1 note=27 velocity=0 time=0.026441822916666666
EXTRACT: note_on channel=9 note=36 velocity=120 time=0.12259390625
EXTRACT: note_on channel=9 note=35 velocity=116 time=0
EXTRACT: note_on channel=9 note=46 velocity=71 time=0
EXTRACT: note_on channel=1 note=27 velocity=95 time=0
EXTRACT: note_on channel=5 note=63 velocity=82 time=0
EXTRACT: note_on channel=5 note=68 velocity=82 time=0
EXTRACT: note_on channel=6 note=58 velocity=98 time=0
EXTRACT: note_on channel=6 note=63 velocity=101 time=0
EXTRACT: note_on channel=6 note=68 velocity=98 time=0
EXTRACT: note_on channel=12 note=58 velocity=104 time=0
EXTRACT: note_on channel=12 note=63 velocity=104 time=0
EXTRACT: note_off channel=9 note=36 velocity=64 time=0.05769125
EXTRACT: note_off channel=9 note=39 velocity=0 time=0.012019010416666667
EXTRACT: note_off channel=9 note=44 velocity=0 time=0.019230416666666666
EXTRACT: note_off channel=9 note=36 velocity=0 time=0.012019010416666667
EXTRACT: note_on channel=9 note=36 velocity=125 time=0.1298053125
EXTRACT: note_on channel=9 note=39 velocity=65 time=0
EXTRACT: note_on channel=9 note=40 velocity=64 time=0
EXTRACT: note_on channel=9 note=44 velocity=101 time=0
EXTRACT: note_off channel=9 note=35 velocity=0 time=0.026441822916666666
EXTRACT: note_off channel=9 note=40 velocity=0 time=0.07451786458333333
EXTRACT: note_off channel=9 note=46 velocity=0 time=0.0024038020833333333
EXTRACT: note_off channel=12 note=58 velocity=0 time=0.016826614583333333
EXTRACT: note_off channel=12 note=63 velocity=0 time=0.016826614583333333
EXTRACT: note_on channel=9 note=35 velocity=110 time=0.09374828125
EXTRACT: note_on channel=9 note=46 velocity=70 time=0
EXTRACT: note_on channel=1 note=31 velocity=85 time=0
EXTRACT: note_on channel=12 note=58 velocity=104 time=0
EXTRACT: note_on channel=12 note=63 velocity=109 time=0
EXTRACT: note_off channel=1 note=27 velocity=0 time=0.00721140625
EXTRACT: note_off channel=5 note=63 velocity=0 time=0.036057031249999996
EXTRACT: note_off channel=5 note=68 velocity=0 time=0.016826614583333333
EXTRACT: note_off channel=6 note=63 velocity=0 time=0.00721140625
EXTRACT: note_off channel=9 note=35 velocity=0 time=0.004807604166666667
EXTRACT: note_off channel=9 note=44 velocity=0 time=0.012019010416666667
EXTRACT: note_off channel=6 note=68 velocity=0 time=0
EXTRACT: note_off channel=6 note=58 velocity=0 time=0.0024038020833333333
EXTRACT: note_off channel=9 note=36 velocity=0 time=0.02163421875
EXTRACT: note_off channel=12 note=58 velocity=0 time=0
EXTRACT: note_on channel=9 note=40 velocity=84 time=0.026441822916666666
EXTRACT: note_off channel=12 note=63 velocity=0 time=0.009615208333333333
EXTRACT: note_off channel=9 note=46 velocity=0 time=0.0144228125
EXTRACT: note_off channel=1 note=31 velocity=0 time=0.031249427083333333
EXTRACT: note_off channel=9 note=40 velocity=0 time=0.024038020833333333
EXTRACT: note_on channel=9 note=35 velocity=120 time=0.016826614583333333
EXTRACT: note_on channel=9 note=36 velocity=122 time=0
EXTRACT: note_on channel=9 note=44 velocity=111 time=0
EXTRACT: note_on channel=9 note=49 velocity=109 time=0
EXTRACT: note_on channel=9 note=55 velocity=114 time=0
EXTRACT: note_on channel=1 note=34 velocity=104 time=0
EXTRACT: note_off channel=9 note=55 velocity=0 time=0.086536875
EXTRACT: note_off channel=9 note=35 velocity=0 time=0.0024038020833333333
EXTRACT: note_off channel=9 note=49 velocity=0 time=0.012019010416666667
EXTRACT: note_on channel=9 note=35 velocity=120 time=0.1298053125
EXTRACT: note_on channel=9 note=46 velocity=75 time=0
EXTRACT: note_on channel=5 note=62 velocity=73 time=0
EXTRACT: note_on channel=5 note=65 velocity=71 time=0
EXTRACT: note_off channel=9 note=44 velocity=0 time=0.026441822916666666
EXTRACT: note_off channel=9 note=39 velocity=0 time=0.02163421875
EXTRACT: note_off channel=5 note=65 velocity=0 time=0.004807604166666667
EXTRACT: note_off channel=5 note=62 velocity=0 time=0.012019010416666667
EXTRACT: note_off channel=9 note=36 velocity=0 time=0.02163421875
EXTRACT: note_off channel=1 note=34 velocity=0 time=0.10817109375
EXTRACT: note_on channel=9 note=36 velocity=118 time=0.036057031249999996
EXTRACT: note_on channel=9 note=39 velocity=71 time=0
EXTRACT: note_on channel=9 note=40 velocity=72 time=0
EXTRACT: note_on channel=9 note=44 velocity=92 time=0
EXTRACT: note_on channel=1 note=29 velocity=73 time=0
EXTRACT: note_on channel=3 note=74 velocity=97 time=0
EXTRACT: note_on channel=4 note=86 velocity=87 time=0
EXTRACT: note_on channel=5 note=62 velocity=67 time=0
EXTRACT: note_on channel=5 note=65 velocity=82 time=0
EXTRACT: note_on channel=12 note=53 velocity=104 time=0
EXTRACT: note_on channel=12 note=58 velocity=95 time=0
EXTRACT: note_on channel=12 note=62 velocity=91 time=0
EXTRACT: note_off channel=9 note=35 velocity=0 time=0.019230416666666666
EXTRACT: note_off channel=9 note=40 velocity=0 time=0.07451786458333333
EXTRACT: note_off channel=5 note=62 velocity=0 time=0.012019010416666667
EXTRACT: note_off channel=9 note=46 velocity=0 time=0.00721140625
EXTRACT: note_off channel=5 note=65 velocity=0 time=0.00721140625
EXTRACT: note_off channel=3 note=74 velocity=0 time=0.024038020833333333
EXTRACT: note_off channel=4 note=86 velocity=0 time=0
EXTRACT: note_off channel=12 note=58 velocity=0 time=0.00721140625
EXTRACT: note_off channel=1 note=29 velocity=0 time=0.016826614583333333
EXTRACT: note_off channel=12 note=62 velocity=0 time=0
EXTRACT: note_on channel=9 note=46 velocity=63 time=0.062498854166666666
EXTRACT: note_on channel=1 note=27 velocity=88 time=0
EXTRACT: note_on channel=3 note=74 velocity=97 time=0
EXTRACT: note_on channel=4 note=86 velocity=87 time=0
EXTRACT: note_on channel=12 note=58 velocity=95 time=0
EXTRACT: note_on channel=12 note=63 velocity=95 time=0
EXTRACT: note_off channel=12 note=53 velocity=0 time=0.031249427083333333
EXTRACT: note_off channel=9 note=44 velocity=0 time=0.004807604166666667
EXTRACT: note_off channel=9 note=36 velocity=0 time=0.06971026041666667
EXTRACT: note_on channel=9 note=40 velocity=100 time=0.028845625
EXTRACT: note_off channel=12 note=58 velocity=0 time=0.02163421875
EXTRACT: note_off channel=12 note=63 velocity=0 time=0.0144228125
EXTRACT: note_off channel=9 note=40 velocity=0 time=0.060095052083333336
EXTRACT: note_on channel=9 note=35 velocity=116 time=0
EXTRACT: note_on channel=9 note=36 velocity=125 time=0
EXTRACT: note_on channel=9 note=44 velocity=85 time=0
EXTRACT: note_on channel=3 note=72 velocity=97 time=0
EXTRACT: note_on channel=4 note=84 velocity=87 time=0
EXTRACT: note_on channel=5 note=63 velocity=82 time=0
EXTRACT: note_on channel=5 note=67 velocity=85 time=0
EXTRACT: note_off channel=3 note=74 velocity=0 time=0.051681744791666664
EXTRACT: note_off channel=4 note=86 velocity=0 time=0
EXTRACT: note_off channel=9 note=46 velocity=0 time=0.025239921875
EXTRACT: note_off channel=5 note=63 velocity=0 time=0.00721140625
EXTRACT: note_off channel=5 note=67 velocity=0 time=0.00721140625
EXTRACT: note_off channel=9 note=35 velocity=0 time=0.012019010416666667
EXTRACT: note_off channel=3 note=72 velocity=0 time=0.031249427083333333
EXTRACT: note_off channel=4 note=84 velocity=0 time=0
EXTRACT: note_off channel=1 note=27 velocity=0 time=0.04567223958333333
EXTRACT: note_on channel=9 note=36 velocity=120 time=0.05047984375
EXTRACT: note_on channel=9 note=35 velocity=110 time=0
EXTRACT: note_on channel=9 note=46 velocity=71 time=0
EXTRACT: note_on channel=1 note=27 velocity=95 time=0
EXTRACT: note_on channel=3 note=72 velocity=97 time=0
EXTRACT: note_on channel=4 note=84 velocity=87 time=0
EXTRACT: note_on channel=5 note=63 velocity=78 time=0
EXTRACT: note_on channel=5 note=68 velocity=78 time=0
EXTRACT: note_on channel=12 note=58 velocity=104 time=0
EXTRACT: note_on channel=12 note=63 velocity=104 time=0
EXTRACT: note_off channel=9 note=39 velocity=0 time=0.0144228125
EXTRACT: note_off channel=9 note=36 velocity=64 time=0.0432684375
EXTRACT: note_off channel=9 note=36 velocity=0 time=0.028845625
EXTRACT: note_off channel=9 note=44 velocity=0 time=0.0024038020833333333
EXTRACT: note_on channel=9 note=36 velocity=122 time=0.14182432291666666
EXTRACT: note_on channel=9 note=39 velocity=62 time=0
EXTRACT: note_on channel=9 note=40 velocity=68 time=0
EXTRACT: note_on channel=9 note=44 velocity=101 time=0
EXTRACT: note_off channel=9 note=35 velocity=0 time=0.00721140625
EXTRACT: note_off channel=9 note=46 velocity=0 time=0.09615208333333333
EXTRACT: note_off channel=9 note=40 velocity=0 time=0.03846083333333333
EXTRACT: note_off channel=1 note=27 velocity=0 time=0.086536875
EXTRACT: note_on channel=9 note=35 velocity=105 time=0.0024038020833333333
EXTRACT: note_on channel=9 note=46 velocity=70 time=0
EXTRACT: note_on channel=1 note=31 velocity=62 time=0
EXTRACT: note_on channel=3 note=70 velocity=97 time=0
EXTRACT: note_on channel=4 note=82 velocity=87 time=0
EXTRACT: note_off channel=5 note=63 velocity=0 time=0.004807604166666667
EXTRACT: note_off channel=5 note=68 velocity=0 time=0.004807604166666667
EXTRACT: note_off channel=3 note=72 velocity=0 time=0.036057031249999996
EXTRACT: note_off channel=4 note=84 velocity=0 time=0
EXTRACT: note_off channel=9 note=35 velocity=0 time=0.024038020833333333
EXTRACT: note_off channel=9 note=44 velocity=0 time=0.0144228125
EXTRACT: note_off channel=12 note=58 velocity=0 time=0
EXTRACT: note_off channel=12 note=63 velocity=0 time=0.004807604166666667
EXTRACT: note_off channel=9 note=36 velocity=0 time=0.012019010416666667
EXTRACT: note_on channel=9 note=40 velocity=91 time=0.033653229166666666
EXTRACT: note_off channel=9 note=46 velocity=0 time=0.024038020833333333
EXTRACT: note_off channel=1 note=31 velocity=0 time=0.02163421875
EXTRACT: note_off channel=9 note=40 velocity=0 time=0.028845625
EXTRACT: note_on channel=9 note=35 velocity=120 time=0.02163421875
EXTRACT: note_on channel=9 note=36 velocity=122 time=0
EXTRACT: note_on channel=9 note=44 velocity=111 time=0
EXTRACT: note_on channel=1 note=34 velocity=82 time=0
EXTRACT: note_off channel=9 note=35 velocity=0 time=0.086536875
EXTRACT: note_off channel=3 note=70 velocity=0 time=0.037258932291666665
EXTRACT: note_off channel=4 note=82 velocity=0 time=0
EXTRACT: note_on channel=9 note=35 velocity=123 time=0.10696919270833333
EXTRACT: note_on channel=9 note=46 velocity=75 time=0
EXTRACT: note_on channel=3 note=70 velocity=97 time=0
EXTRACT: note_on channel=4 note=82 velocity=87 time=0
EXTRACT: note_on channel=5 note=62 velocity=76 time=0
EXTRACT: note_on channel=5 note=65 velocity=85 time=0
EXTRACT: note_off channel=9 note=44 velocity=0 time=0.026441822916666666
EXTRACT: note_off channel=5 note=65 velocity=0 time=0.05047984375
EXTRACT: note_off channel=5 note=62 velocity=0 time=0.00721140625
EXTRACT: note_off channel=9 note=39 velocity=0 time=0.009615208333333333
EXTRACT: note_off channel=9 note=36 velocity=0 time=0.00721140625
EXTRACT: note_off channel=1 note=34 velocity=0 time=0.12499770833333333
EXTRACT: note_on channel=9 note=36 velocity=122 time=0.004807604166666667
EXTRACT: note_on channel=9 note=39 velocity=66 time=0
EXTRACT: note_on channel=9 note=40 velocity=66 time=0
EXTRACT: note_on channel=9 note=44 velocity=92 time=0
EXTRACT: note_on channel=1 note=29 velocity=76 time=0
EXTRACT: note_on channel=12 note=53 velocity=104 time=0
EXTRACT: note_on channel=12 note=58 velocity=91 time=0
EXTRACT: note_on channel=12 note=62 velocity=95 time=0
EXTRACT: note_off channel=9 note=35 velocity=0 time=0.026441822916666666
EXTRACT: note_off channel=9 note=40 velocity=0 time=0.060095052083333336
EXTRACT: note_off channel=9 note=46 velocity=0 time=0.026441822916666666
EXTRACT: note_off channel=12 note=58 velocity=0 time=0.06730645833333333
EXTRACT: note_off channel=12 note=62 velocity=0 time=0.0144228125
EXTRACT: note_off channel=1 note=29 velocity=0 time=0.031249427083333333
EXTRACT: note_on channel=9 note=35 velocity=116 time=0.004807604166666667
EXTRACT: note_on channel=9 note=46 velocity=63 time=0
EXTRACT: note_on channel=1 note=27 velocity=91 time=0
EXTRACT: note_on channel=3 note=68 velocity=97 time=0
EXTRACT: note_on channel=4 note=80 velocity=87 time=0
EXTRACT: note_on channel=5 note=63 velocity=88 time=0
EXTRACT: note_on channel=5 note=67 velocity=80 time=0
EXTRACT: note_on channel=12 note=58 velocity=95 time=0
EXTRACT: note_on channel=12 note=63 velocity=95 time=0
EXTRACT: note_off channel=9 note=44 velocity=0 time=0.036057031249999996
EXTRACT: note_off channel=12 note=53 velocity=0 time=0.00721140625
EXTRACT: note_off channel=3 note=70 velocity=0 time=0.012019010416666667
EXTRACT: note_off channel=4 note=82 velocity=0 time=0
EXTRACT: note_off channel=9 note=35 velocity=0 time=0.026441822916666666
EXTRACT: note_off channel=5 note=63 velocity=0 time=0.009615208333333333
EXTRACT: note_off channel=5 note=67 velocity=0 time=0.0144228125
EXTRACT: note_off channel=12 note=58 velocity=0 time=0.036057031249999996
EXTRACT: note_off channel=9 note=36 velocity=0 time=0.012019010416666667
EXTRACT: note_off channel=12 note=63 velocity=0 time=0.0024038020833333333
EXTRACT: note_on channel=9 note=35 velocity=120 time=0.07451786458333333
EXTRACT: note_on channel=9 note=36 velocity=118 time=0
EXTRACT: note_on channel=9 note=44 velocity=85 time=0
EXTRACT: note_off channel=9 note=46 velocity=0 time=0.07692166666666667
EXTRACT: note_off channel=1 note=27 velocity=0 time=0.031249427083333333
EXTRACT: note_off channel=9 note=35 velocity=0 time=0.0024038020833333333
EXTRACT: note_on channel=9 note=36 velocity=120 time=0.12019010416666667
EXTRACT: note_on channel=9 note=40 velocity=110 time=0
EXTRACT: note_on channel=9 note=46 velocity=71 time=0
EXTRACT: note_on channel=1 note=27 velocity=95 time=0
EXTRACT: note_on channel=5 note=63 velocity=80 time=0
EXTRACT: note_on channel=5 note=68 velocity=82 time=0
EXTRACT: note_on channel=12 note=58 velocity=104 time=0
EXTRACT: note_on channel=12 note=63 velocity=104 time=0
EXTRACT: note_off channel=9 note=36 velocity=64 time=0.05769125
EXTRACT: note_off channel=9 note=40 velocity=0 time=0.028845625
EXTRACT: note_off channel=9 note=39 velocity=0 time=0
EXTRACT: note_off channel=9 note=44 velocity=0 time=0.0024038020833333333
EXTRACT: note_off channel=9 note=36 velocity=0 time=0.00721140625
EXTRACT: note_off channel=12 note=58 velocity=0 time=0.062498854166666666
EXTRACT: note_off channel=12 note=63 velocity=0 time=0.019230416666666666
EXTRACT: note_on channel=9 note=36 velocity=122 time=0.05288364583333333
EXTRACT: note_on channel=9 note=39 velocity=71 time=0
EXTRACT: note_on channel=9 note=40 velocity=72 time=0
EXTRACT: note_on channel=9 note=44 velocity=101 time=0
EXTRACT: note_off channel=9 note=40 velocity=0 time=0.086536875
EXTRACT: note_off channel=9 note=46 velocity=0 time=0.016826614583333333
EXTRACT: note_on channel=9 note=35 velocity=120 time=0.12740151041666667
EXTRACT: note_on channel=9 note=46 velocity=70 time=0
EXTRACT: note_on channel=1 note=31 velocity=85 time=0
EXTRACT: note_on channel=12 note=58 velocity=104 time=0
EXTRACT: note_on channel=12 note=63 velocity=104 time=0
EXTRACT: note_off channel=1 note=27 velocity=0 time=0.00721140625
EXTRACT: note_off channel=3 note=68 velocity=0 time=0.00721140625
EXTRACT: note_off channel=4 note=80 velocity=0 time=0
EXTRACT: note_off channel=5 note=63 velocity=0 time=0.048076041666666666
EXTRACT: note_off channel=5 note=68 velocity=0 time=0.012019010416666667
EXTRACT: note_off channel=9 note=35 velocity=0 time=0.0024038020833333333
EXTRACT: note_off channel=9 note=44 velocity=0 time=0.00721140625
EXTRACT: note_off channel=9 note=36 velocity=0 time=0.02163421875
EXTRACT: note_off channel=12 note=58 velocity=0 time=0.033653229166666666
EXTRACT: note_off channel=9 note=46 velocity=0 time=0.019230416666666666
EXTRACT: note_off channel=12 note=63 velocity=0 time=0.004807604166666667
EXTRACT: note_off channel=1 note=31 velocity=0 time=0.026441822916666666
EXTRACT: note_on channel=9 note=35 velocity=120 time=0.04086463541666667
EXTRACT: note_on channel=9 note=36 velocity=122 time=0
EXTRACT: note_on channel=9 note=44 velocity=111 time=0
EXTRACT: note_on channel=1 note=34 velocity=104 time=0
EXTRACT: note_off channel=9 note=35 velocity=0 time=0.16826614583333332
EXTRACT: note_on channel=9 note=35 velocity=56 time=0.062498854166666666
EXTRACT: note_on channel=9 note=46 velocity=75 time=0
EXTRACT: note_on channel=5 note=62 velocity=73 time=0
EXTRACT: note_on channel=5 note=65 velocity=80 time=0
EXTRACT: note_off channel=9 note=44 velocity=0 time=0.026441822916666666
EXTRACT: note_off channel=9 note=39 velocity=0 time=0.026441822916666666
EXTRACT: note_off channel=9 note=35 velocity=0 time=0.0024038020833333333
EXTRACT: note_off channel=5 note=65 velocity=0 time=0.0144228125
EXTRACT: note_off channel=5 note=62 velocity=0 time=0.009615208333333333
EXTRACT: note_off channel=9 note=36 velocity=0 time=0.024038020833333333
EXTRACT: note_off channel=1 note=34 velocity=0 time=0.09134447916666666
EXTRACT: note_on channel=9 note=36 velocity=122 time=0.036057031249999996
EXTRACT: note_on channel=9 note=39 velocity=76 time=0
EXTRACT: note_on channel=9 note=40 velocity=74 time=0
EXTRACT: note_on channel=9 note=44 velocity=92 time=0
EXTRACT: note_on channel=1 note=29 velocity=73 time=0
EXTRACT: note_on channel=3 note=74 velocity=97 time=0
EXTRACT: note_on channel=4 note=86 velocity=87 time=0
EXTRACT: note_on channel=5 note=62 velocity=71 time=0
EXTRACT: note_on channel=5 note=65 velocity=80 time=0
EXTRACT: note_on channel=12 note=53 velocity=114 time=0
EXTRACT: note_on channel=12 note=58 velocity=104 time=0
EXTRACT: note_on channel=12 note=62 velocity=91 time=0
EXTRACT: note_off channel=9 note=40 velocity=0 time=0.08894067708333334
EXTRACT: note_off channel=9 note=46 velocity=0 time=0.024038020833333333
EXTRACT: note_off channel=5 note=62 velocity=0 time=0.026441822916666666
EXTRACT: note_off channel=5 note=65 velocity=0 time=0.009615208333333333
EXTRACT: note_off channel=3 note=74 velocity=0 time=0.0012019010416666667
EXTRACT: note_off channel=4 note=86 velocity=0 time=0
EXTRACT: note_off channel=1 note=29 velocity=0 time=0.018028515624999998
EXTRACT: note_off channel=12 note=58 velocity=0 time=0
EXTRACT: note_off channel=12 note=62 velocity=0 time=0.026441822916666666
EXTRACT: note_on channel=9 note=35 velocity=105 time=0.036057031249999996
EXTRACT: note_on channel=9 note=46 velocity=63 time=0
EXTRACT: note_on channel=1 note=27 velocity=88 time=0
EXTRACT: note_on channel=3 note=74 velocity=97 time=0
EXTRACT: note_on channel=4 note=86 velocity=87 time=0
EXTRACT: note_on channel=12 note=58 velocity=95 time=0
EXTRACT: note_on channel=12 note=63 velocity=95 time=0
EXTRACT: note_off channel=9 note=44 velocity=0 time=0.036057031249999996
EXTRACT: note_off channel=12 note=53 velocity=0 time=0.02163421875
EXTRACT: note_off channel=9 note=35 velocity=0 time=0.009615208333333333
EXTRACT: note_off channel=9 note=36 velocity=0 time=0.024038020833333333
EXTRACT: note_on channel=9 note=40 velocity=94 time=0.0432684375
EXTRACT: note_off channel=12 note=58 velocity=0 time=0.024038020833333333
EXTRACT: note_off channel=12 note=63 velocity=0 time=0.012019010416666667
EXTRACT: note_off channel=9 note=40 velocity=0 time=0.033653229166666666
EXTRACT: note_off channel=3 note=74 velocity=0 time=0.018028515624999998
EXTRACT: note_off channel=4 note=86 velocity=0 time=0
EXTRACT: note_on channel=9 note=35 velocity=120 time=0.008413307291666667
EXTRACT: note_on channel=9 note=36 velocity=122 time=0
EXTRACT: note_on channel=9 note=44 velocity=85 time=0
EXTRACT: note_on channel=3 note=72 velocity=97 time=0
EXTRACT: note_on channel=4 note=84 velocity=87 time=0
EXTRACT: note_on channel=5 note=63 velocity=82 time=0
EXTRACT: note_on channel=5 note=67 velocity=80 time=0
EXTRACT: note_off channel=9 note=35 velocity=0 time=0.07692166666666667
EXTRACT: note_off channel=9 note=46 velocity=0 time=0
EXTRACT: note_off channel=5 note=63 velocity=0 time=0.0144228125
EXTRACT: note_off channel=5 note=67 velocity=0 time=0.004807604166666667
EXTRACT: note_off channel=3 note=72 velocity=0 time=0.03846083333333333
EXTRACT: note_off channel=4 note=84 velocity=0 time=0
EXTRACT: note_off channel=1 note=27 velocity=0 time=0.04567223958333333
EXTRACT: note_on channel=9 note=36 velocity=120 time=0.05047984375
EXTRACT: note_on channel=9 note=35 velocity=120 time=0
EXTRACT: note_on channel=9 note=46 velocity=71 time=0
EXTRACT: note_on channel=1 note=27 velocity=95 time=0
EXTRACT: note_on channel=3 note=72 velocity=97 time=0
EXTRACT: note_on channel=4 note=84 velocity=87 time=0
EXTRACT: note_on channel=5 note=63 velocity=80 time=0
EXTRACT: note_on channel=5 note=68 velocity=80 time=0
EXTRACT: note_on channel=12 note=58 velocity=109 time=0
EXTRACT: note_on channel=12 note=63 velocity=114 time=0
EXTRACT: note_off channel=9 note=36 velocity=64 time=0.05769125
EXTRACT: note_off channel=9 note=44 velocity=0 time=0.031249427083333333
EXTRACT: note_off channel=9 note=39 velocity=0 time=0.0024038020833333333
EXTRACT: note_off channel=9 note=36 velocity=0 time=0.033653229166666666
EXTRACT: note_on channel=9 note=36 velocity=122 time=0.10576729166666667
EXTRACT: note_on channel=9 note=39 velocity=72 time=0
EXTRACT: note_on channel=9 note=40 velocity=74 time=0
EXTRACT: note_on channel=9 note=44 velocity=101 time=0
EXTRACT: note_off channel=9 note=35 velocity=0 time=0.012019010416666667
EXTRACT: note_off channel=9 note=40 velocity=0 time=0.08172927083333334
EXTRACT: note_off channel=9 note=46 velocity=0 time=0.009615208333333333
EXTRACT: note_off channel=5 note=63 velocity=0 time=0.033653229166666666
EXTRACT: note_off channel=5 note=68 velocity=0 time=0.0144228125
EXTRACT: note_off channel=1 note=27 velocity=0 time=0.07692166666666667
EXTRACT: note_on channel=9 note=46 velocity=70 time=0.0024038020833333333
EXTRACT: note_on channel=1 note=31 velocity=62 time=0
EXTRACT: note_on channel=3 note=70 velocity=97 time=0
EXTRACT: note_on channel=4 note=82 velocity=87 time=0
EXTRACT: note_on channel=5 note=62 velocity=85 time=0
EXTRACT: note_on channel=5 note=65 velocity=91 time=0
EXTRACT: note_off channel=3 note=72 velocity=0 time=0.05769125
EXTRACT: note_off channel=4 note=84 velocity=0 time=0
EXTRACT: note_off channel=5 note=65 velocity=0 time=0.016826614583333333
EXTRACT: note_off channel=12 note=58 velocity=0 time=0
EXTRACT: note_off channel=9 note=36 velocity=0 time=0.0024038020833333333
EXTRACT: note_off channel=5 note=62 velocity=0 time=0.004807604166666667
EXTRACT: note_off channel=9 note=44 velocity=0 time=0.0024038020833333333
EXTRACT: note_off channel=12 note=63 velocity=0 time=0
EXTRACT: note_on channel=9 note=40 velocity=70 time=0.05047984375
EXTRACT: note_off channel=9 note=46 velocity=0 time=0.024038020833333333
EXTRACT: note_off channel=1 note=31 velocity=0 time=0.02163421875
EXTRACT: note_on channel=9 note=35 velocity=120 time=0.05047984375
EXTRACT: note_on channel=9 note=36 velocity=125 time=0
EXTRACT: note_on channel=9 note=44 velocity=111 time=0
EXTRACT: note_on channel=1 note=34 velocity=82 time=0
EXTRACT: note_off channel=9 note=40 velocity=0 time=0.009615208333333333
EXTRACT: note_off channel=3 note=70 velocity=0 time=0.03846083333333333
EXTRACT: note_off channel=4 note=82 velocity=0 time=0
EXTRACT: note_off channel=9 note=35 velocity=0 time=0.05528744791666666
EXTRACT: note_on channel=9 note=35 velocity=110 time=0.12740151041666667
EXTRACT: note_on channel=9 note=46 velocity=75 time=0
EXTRACT: note_on channel=3 note=70 velocity=97 time=0
EXTRACT: note_on channel=4 note=82 velocity=87 time=0
EXTRACT: note_on channel=5 note=62 velocity=82 time=0
EXTRACT: note_on channel=5 note=65 velocity=91 time=0
EXTRACT: note_off channel=9 note=44 velocity=0 time=0.026441822916666666
EXTRACT: note_off channel=9 note=39 velocity=0 time=0.031249427083333333
EXTRACT: note_off channel=5 note=65 velocity=0 time=0.024038020833333333
EXTRACT: note_off channel=5 note=62 velocity=0 time=0
EXTRACT: note_off channel=9 note=36 velocity=0 time=0.031249427083333333
EXTRACT: note_off channel=1 note=34 velocity=0 time=0.11297869791666666
EXTRACT: note_on channel=9 note=36 velocity=122 time=0.004807604166666667
EXTRACT: note_on channel=9 note=39 velocity=80 time=0
EXTRACT: note_on channel=9 note=40 velocity=78 time=0
EXTRACT: note_on channel=9 note=44 velocity=92 time=0
EXTRACT: note_on channel=1 note=29 velocity=76 time=0
EXTRACT: note_on channel=12 note=53 velocity=109 time=0
EXTRACT: note_on channel=12 note=58 velocity=104 time=0
EXTRACT: note_on channel=12 note=62 velocity=91 time=0
EXTRACT: note_off channel=9 note=35 velocity=0 time=0.028845625
EXTRACT: note_off channel=9 note=40 velocity=0 time=0.06490265625
EXTRACT: note_off channel=9 note=46 velocity=0 time=0.019230416666666666
EXTRACT: note_off channel=12 note=58 velocity=0 time=0.03846083333333333
EXTRACT: note_off channel=12 note=62 velocity=0 time=0.026441822916666666
EXTRACT: note_off channel=1 note=29 velocity=0 time=0.048076041666666666
EXTRACT: note_on channel=9 note=35 velocity=116 time=0.004807604166666667
EXTRACT: note_on channel=9 note=46 velocity=63 time=0
EXTRACT: note_on channel=1 note=27 velocity=91 time=0
EXTRACT: note_on channel=3 note=68 velocity=97 time=0
EXTRACT: note_on channel=4 note=80 velocity=87 time=0
EXTRACT: note_on channel=5 note=63 velocity=91 time=0
EXTRACT: note_on channel=5 note=67 velocity=82 time=0
EXTRACT: note_on channel=12 note=58 velocity=91 time=0
EXTRACT: note_on channel=12 note=63 velocity=95 time=0
EXTRACT: note_off channel=3 note=70 velocity=0 time=0.031249427083333333
EXTRACT: note_off channel=4 note=82 velocity=0 time=0
EXTRACT: note_off channel=9 note=44 velocity=0 time=0.004807604166666667
EXTRACT: note_off channel=12 note=53 velocity=0 time=0.012019010416666667
EXTRACT: note_off channel=9 note=35 velocity=0 time=0.026441822916666666
EXTRACT: note_off channel=5 note=63 velocity=0 time=0.02163421875
EXTRACT: note_off channel=5 note=67 velocity=0 time=0.012019010416666667
EXTRACT: note_off channel=9 note=36 velocity=0 time=0.00721140625
EXTRACT: note_off channel=12 note=58 velocity=0 time=0.0144228125
EXTRACT: note_on channel=9 note=40 velocity=105 time=0.004807604166666667
EXTRACT: note_off channel=12 note=63 velocity=0 time=0.019230416666666666
EXTRACT: note_off channel=9 note=40 velocity=0 time=0.05769125
EXTRACT: note_on channel=9 note=35 velocity=120 time=0.019230416666666666
EXTRACT: note_on channel=9 note=36 velocity=125 time=0
EXTRACT: note_on channel=9 note=44 velocity=85 time=0
EXTRACT: note_on channel=12 note=53 velocity=52 time=0
EXTRACT: note_off channel=12 note=53 velocity=0 time=0.060095052083333336
EXTRACT: note_off channel=9 note=35 velocity=0 time=0.012019010416666667
EXTRACT: note_off channel=9 note=46 velocity=0 time=0.004807604166666667
EXTRACT: note_off channel=1 note=27 velocity=0 time=0.031249427083333333
EXTRACT: note_on channel=9 note=40 velocity=100 time=0.026441822916666666
EXTRACT: note_off channel=9 note=40 velocity=0 time=0.07692166666666667
EXTRACT: note_on channel=9 note=35 velocity=120 time=0.019230416666666666
EXTRACT: note_on channel=9 note=46 velocity=71 time=0
EXTRACT: note_on channel=1 note=27 velocity=95 time=0
EXTRACT: note_on channel=5 note=63 velocity=88 time=0
EXTRACT: note_on channel=5 note=68 velocity=88 time=0
EXTRACT: note_on channel=12 note=58 velocity=109 time=0
EXTRACT: note_on channel=12 note=63 velocity=114 time=0
EXTRACT: note_off channel=9 note=39 velocity=0 time=0.05528744791666666
EXTRACT: note_off channel=9 note=36 velocity=0 time=0.031249427083333333
EXTRACT: note_off channel=9 note=44 velocity=0 time=0.0024038020833333333
EXTRACT: note_off channel=9 note=35 velocity=0 time=0.012019010416666667
EXTRACT: note_off channel=12 note=58 velocity=0 time=0.08413307291666666
EXTRACT: note_off channel=12 note=63 velocity=0 time=0.004807604166666667
EXTRACT: note_on channel=9 note=36 velocity=122 time=0.04086463541666667
EXTRACT: note_on channel=9 note=39 velocity=86 time=0
EXTRACT: note_on channel=9 note=40 velocity=86 time=0
EXTRACT: note_on channel=9 note=44 velocity=101 time=0
EXTRACT: note_on channel=12 note=53 velocity=35 time=0
EXTRACT: note_off channel=12 note=53 velocity=0 time=0.07211406249999999
EXTRACT: note_off channel=9 note=40 velocity=0 time=0.0144228125
EXTRACT: note_off channel=9 note=46 velocity=0 time=0.016826614583333333
EXTRACT: note_off channel=9 note=36 velocity=0 time=0.028845625
EXTRACT: note_off channel=5 note=63 velocity=0 time=0.06490265625
EXTRACT: note_off channel=5 note=68 velocity=0 time=0.0144228125
EXTRACT: note_on channel=9 note=36 velocity=122 time=0.019230416666666666
EXTRACT: note_on channel=9 note=40 velocity=110 time=0
EXTRACT: note_on channel=9 note=46 velocity=70 time=0
EXTRACT: note_on channel=1 note=31 velocity=85 time=0
EXTRACT: note_on channel=12 note=58 velocity=114 time=0
EXTRACT: note_on channel=12 note=63 velocity=104 time=0
EXTRACT: note_off channel=1 note=27 velocity=0 time=0.00721140625
EXTRACT: note_off channel=3 note=68 velocity=0 time=0.031249427083333333
EXTRACT: note_off channel=4 note=80 velocity=0 time=0
EXTRACT: note_off channel=9 note=39 velocity=0 time=0.019230416666666666
EXTRACT: note_off channel=9 note=40 velocity=0 time=0.004807604166666667
EXTRACT: note_off channel=9 note=44 velocity=0 time=0.02163421875
EXTRACT: note_on channel=9 note=40 velocity=91 time=0.05047984375
EXTRACT: note_off channel=9 note=36 velocity=0 time=0.0024038020833333333
EXTRACT: note_off channel=12 note=58 velocity=0 time=0.016826614583333333
EXTRACT: note_off channel=9 note=46 velocity=0 time=0.004807604166666667
EXTRACT: note_off channel=12 note=63 velocity=0 time=0.0024038020833333333
EXTRACT: note_off channel=1 note=31 velocity=0 time=0.028845625
EXTRACT: note_off channel=9 note=40 velocity=0 time=0.028845625
EXTRACT: note_on channel=9 note=35 velocity=120 time=0.012019010416666667
EXTRACT: note_on channel=9 note=36 velocity=122 time=0
EXTRACT: note_on channel=9 note=44 velocity=111 time=0
EXTRACT: note_on channel=9 note=49 velocity=109 time=0
EXTRACT: note_on channel=9 note=55 velocity=114 time=0
EXTRACT: note_on channel=1 note=34 velocity=104 time=0
EXTRACT: note_off channel=9 note=55 velocity=0 time=0.086536875
EXTRACT: note_off channel=9 note=35 velocity=0 time=0.0024038020833333333
EXTRACT: note_off channel=9 note=49 velocity=0 time=0.012019010416666667
EXTRACT: note_on channel=9 note=35 velocity=120 time=0.1298053125
EXTRACT: note_on channel=9 note=46 velocity=75 time=0
EXTRACT: note_on channel=5 note=62 velocity=73 time=0
EXTRACT: note_on channel=5 note=65 velocity=71 time=0
EXTRACT: note_off channel=9 note=44 velocity=0 time=0.026441822916666666
EXTRACT: note_off channel=5 note=65 velocity=0 time=0.026441822916666666
EXTRACT: note_off channel=5 note=62 velocity=0 time=0.012019010416666667
EXTRACT: note_off channel=9 note=36 velocity=0 time=0.02163421875
EXTRACT: note_off channel=1 note=34 velocity=0 time=0.10817109375
EXTRACT: note_on channel=9 note=36 velocity=118 time=0.036057031249999996
EXTRACT: note_on channel=9 note=39 velocity=71 time=0
EXTRACT: note_on channel=9 note=40 velocity=72 time=0
EXTRACT: note_on channel=9 note=44 velocity=92 time=0
EXTRACT: note_on channel=1 note=29 velocity=73 time=0
EXTRACT: note_on channel=3 note=77 velocity=97 time=0
EXTRACT: note_on channel=4 note=89 velocity=87 time=0
EXTRACT: note_on channel=5 note=62 velocity=67 time=0
EXTRACT: note_on channel=5 note=65 velocity=82 time=0
EXTRACT: note_on channel=12 note=53 velocity=104 time=0
EXTRACT: note_on channel=12 note=58 velocity=95 time=0
EXTRACT: note_on channel=12 note=62 velocity=91 time=0
EXTRACT: note_off channel=9 note=35 velocity=0 time=0.019230416666666666
EXTRACT: note_off channel=9 note=40 velocity=0 time=0.07451786458333333
EXTRACT: note_off channel=5 note=62 velocity=0 time=0.012019010416666667
EXTRACT: note_off channel=9 note=46 velocity=0 time=0.00721140625
EXTRACT: note_off channel=5 note=65 velocity=0 time=0.00721140625
EXTRACT: note_off channel=12 note=58 velocity=0 time=0.031249427083333333
EXTRACT: note_off channel=3 note=77 velocity=0 time=0.00721140625
EXTRACT: note_off channel=4 note=89 velocity=0 time=0
EXTRACT: note_off channel=1 note=29 velocity=0 time=0.009615208333333333
EXTRACT: note_off channel=12 note=62 velocity=0 time=0
EXTRACT: note_on channel=9 note=46 velocity=63 time=0.062498854166666666
EXTRACT: note_on channel=1 note=27 velocity=88 time=0
EXTRACT: note_on channel=3 note=77 velocity=97 time=0
EXTRACT: note_on channel=4 note=89 velocity=87 time=0
EXTRACT: note_on channel=12 note=58 velocity=95 time=0
EXTRACT: note_on channel=12 note=63 velocity=95 time=0
EXTRACT: note_off channel=12 note=53 velocity=0 time=0.031249427083333333
EXTRACT: note_off channel=9 note=44 velocity=0 time=0.004807604166666667
EXTRACT: note_off channel=9 note=36 velocity=0 time=0.06971026041666667
EXTRACT: note_on channel=9 note=40 velocity=100 time=0.028845625
EXTRACT: note_off channel=12 note=58 velocity=0 time=0.02163421875
EXTRACT: note_off channel=12 note=63 velocity=0 time=0.0144228125
EXTRACT: note_off channel=3 note=77 velocity=0 time=0.012019010416666667
EXTRACT: note_off channel=4 note=89 velocity=0 time=0
EXTRACT: note_off channel=9 note=40 velocity=0 time=0.048076041666666666
EXTRACT: note_on channel=9 note=35 velocity=116 time=0
EXTRACT: note_on channel=9 note=36 velocity=125 time=0
EXTRACT: note_on channel=9 note=44 velocity=85 time=0
EXTRACT: note_on channel=3 note=75 velocity=97 time=0
EXTRACT: note_on channel=4 note=87 velocity=87 time=0
EXTRACT: note_on channel=5 note=63 velocity=82 time=0
EXTRACT: note_on channel=5 note=67 velocity=85 time=0
EXTRACT: note_off channel=9 note=46 velocity=0 time=0.07692166666666667
EXTRACT: note_off channel=5 note=63 velocity=0 time=0.00721140625
EXTRACT: note_off channel=5 note=67 velocity=0 time=0.00721140625
EXTRACT: note_off channel=9 note=35 velocity=0 time=0.012019010416666667
EXTRACT: note_off channel=3 note=75 velocity=0 time=0.0432684375
EXTRACT: note_off channel=4 note=87 velocity=0 time=0
EXTRACT: note_off channel=1 note=27 velocity=0 time=0.033653229166666666
EXTRACT: note_on channel=9 note=35 velocity=110 time=0.05047984375
EXTRACT: note_on channel=9 note=46 velocity=71 time=0
EXTRACT: note_on channel=1 note=27 velocity=95 time=0
EXTRACT: note_on channel=3 note=75 velocity=97 time=0
EXTRACT: note_on channel=4 note=87 velocity=87 time=0
EXTRACT: note_on channel=5 note=63 velocity=78 time=0
EXTRACT: note_on channel=5 note=68 velocity=78 time=0
EXTRACT: note_on channel=12 note=58 velocity=104 time=0
EXTRACT: note_on channel=12 note=63 velocity=104 time=0
EXTRACT: note_off channel=9 note=39 velocity=0 time=0.0144228125
EXTRACT: note_off channel=9 note=36 velocity=0 time=0.07211406249999999
EXTRACT: note_off channel=9 note=44 velocity=0 time=0.0024038020833333333
EXTRACT: note_on channel=9 note=36 velocity=122 time=0.14182432291666666
EXTRACT: note_on channel=9 note=39 velocity=62 time=0
EXTRACT: note_on channel=9 note=40 velocity=68 time=0
EXTRACT: note_on channel=9 note=44 velocity=101 time=0
EXTRACT: note_off channel=9 note=35 velocity=0 time=0.00721140625
EXTRACT: note_off channel=9 note=46 velocity=0 time=0.09615208333333333
EXTRACT: note_off channel=9 note=40 velocity=0 time=0.03846083333333333
EXTRACT: note_off channel=3 note=75 velocity=0 time=0.054085546875
EXTRACT: note_off channel=4 note=87 velocity=0 time=0
EXTRACT: note_off channel=1 note=27 velocity=0 time=0.032451328125
EXTRACT: note_on channel=9 note=35 velocity=105 time=0.0024038020833333333
EXTRACT: note_on channel=9 note=46 velocity=70 time=0
EXTRACT: note_on channel=1 note=31 velocity=62 time=0
EXTRACT: note_on channel=3 note=74 velocity=97 time=0
EXTRACT: note_on channel=4 note=86 velocity=87 time=0
EXTRACT: note_off channel=5 note=63 velocity=0 time=0.004807604166666667
EXTRACT: note_off channel=5 note=68 velocity=0 time=0.004807604166666667
EXTRACT: note_off channel=9 note=35 velocity=0 time=0.060095052083333336
EXTRACT: note_off channel=9 note=44 velocity=0 time=0.0144228125
EXTRACT: note_off channel=12 note=58 velocity=0 time=0
EXTRACT: note_off channel=12 note=63 velocity=0 time=0.004807604166666667
EXTRACT: note_off channel=9 note=36 velocity=0 time=0.012019010416666667
EXTRACT: note_on channel=9 note=40 velocity=91 time=0.033653229166666666
EXTRACT: note_off channel=9 note=46 velocity=0 time=0.024038020833333333
EXTRACT: note_off channel=1 note=31 velocity=0 time=0.02163421875
EXTRACT: note_off channel=9 note=40 velocity=0 time=0.028845625
EXTRACT: note_on channel=9 note=35 velocity=120 time=0.02163421875
EXTRACT: note_on channel=9 note=36 velocity=122 time=0
EXTRACT: note_on channel=9 note=44 velocity=111 time=0
EXTRACT: note_on channel=1 note=34 velocity=82 time=0
EXTRACT: note_off channel=9 note=35 velocity=0 time=0.086536875
EXTRACT: note_off channel=3 note=74 velocity=0 time=0.07932546875
EXTRACT: note_off channel=4 note=86 velocity=0 time=0
EXTRACT: note_on channel=9 note=35 velocity=123 time=0.06490265625
EXTRACT: note_on channel=9 note=46 velocity=75 time=0
EXTRACT: note_on channel=3 note=74 velocity=97 time=0
EXTRACT: note_on channel=4 note=86 velocity=87 time=0
EXTRACT: note_on channel=5 note=62 velocity=76 time=0
EXTRACT: note_on channel=5 note=65 velocity=85 time=0
EXTRACT: note_off channel=9 note=44 velocity=0 time=0.026441822916666666
EXTRACT: note_off channel=5 note=65 velocity=0 time=0.05047984375
EXTRACT: note_off channel=5 note=62 velocity=0 time=0.00721140625
EXTRACT: note_off channel=9 note=39 velocity=0 time=0.009615208333333333
EXTRACT: note_off channel=9 note=36 velocity=0 time=0.00721140625
EXTRACT: note_off channel=1 note=34 velocity=0 time=0.12499770833333333
EXTRACT: note_on channel=9 note=36 velocity=122 time=0.004807604166666667
EXTRACT: note_on channel=9 note=39 velocity=66 time=0
EXTRACT: note_on channel=9 note=40 velocity=66 time=0
EXTRACT: note_on channel=9 note=44 velocity=92 time=0
EXTRACT: note_on channel=1 note=29 velocity=76 time=0
EXTRACT: note_on channel=12 note=53 velocity=104 time=0
EXTRACT: note_on channel=12 note=58 velocity=91 time=0
EXTRACT: note_on channel=12 note=62 velocity=95 time=0
EXTRACT: note_off channel=9 note=35 velocity=0 time=0.026441822916666666
EXTRACT: note_off channel=9 note=40 velocity=0 time=0.060095052083333336
EXTRACT: note_off channel=9 note=46 velocity=0 time=0.026441822916666666
EXTRACT: note_off channel=12 note=58 velocity=0 time=0.06730645833333333
EXTRACT: note_off channel=12 note=62 velocity=0 time=0.0144228125
EXTRACT: note_off channel=1 note=29 velocity=0 time=0.031249427083333333
EXTRACT: note_on channel=9 note=35 velocity=116 time=0.004807604166666667
EXTRACT: note_on channel=9 note=46 velocity=63 time=0
EXTRACT: note_on channel=1 note=27 velocity=91 time=0
EXTRACT: note_on channel=3 note=72 velocity=97 time=0
EXTRACT: note_on channel=4 note=84 velocity=87 time=0
EXTRACT: note_on channel=5 note=63 velocity=88 time=0
EXTRACT: note_on channel=5 note=67 velocity=80 time=0
EXTRACT: note_on channel=12 note=58 velocity=95 time=0
EXTRACT: note_on channel=12 note=63 velocity=95 time=0
EXTRACT: note_off channel=9 note=44 velocity=0 time=0.036057031249999996
EXTRACT: note_off channel=12 note=53 velocity=0 time=0.00721140625
EXTRACT: note_off channel=3 note=74 velocity=0 time=0.0024038020833333333
EXTRACT: note_off channel=4 note=86 velocity=0 time=0
EXTRACT: note_off channel=9 note=35 velocity=0 time=0.036057031249999996
EXTRACT: note_off channel=5 note=63 velocity=0 time=0.009615208333333333
EXTRACT: note_off channel=5 note=67 velocity=0 time=0.0144228125
EXTRACT: note_off channel=12 note=58 velocity=0 time=0.036057031249999996
EXTRACT: note_off channel=9 note=36 velocity=0 time=0.012019010416666667
EXTRACT: note_off channel=12 note=63 velocity=0 time=0.0024038020833333333
EXTRACT: note_on channel=9 note=35 velocity=120 time=0.07451786458333333
EXTRACT: note_on channel=9 note=36 velocity=118 time=0
EXTRACT: note_on channel=9 note=44 velocity=85 time=0
EXTRACT: note_off channel=9 note=46 velocity=0 time=0.07692166666666667
EXTRACT: note_off channel=1 note=27 velocity=0 time=0.031249427083333333
EXTRACT: note_off channel=9 note=35 velocity=0 time=0.0024038020833333333
EXTRACT: note_off channel=3 note=72 velocity=0 time=0.10937299479166666
EXTRACT: note_off channel=4 note=84 velocity=0 time=0
EXTRACT: note_on channel=9 note=40 velocity=110 time=0.010817109375
EXTRACT: note_on channel=9 note=46 velocity=71 time=0
EXTRACT: note_on channel=1 note=27 velocity=95 time=0
EXTRACT: note_on channel=3 note=70 velocity=97 time=0
EXTRACT: note_on channel=4 note=82 velocity=87 time=0
EXTRACT: note_on channel=5 note=63 velocity=80 time=0
EXTRACT: note_on channel=5 note=68 velocity=82 time=0
EXTRACT: note_on channel=12 note=58 velocity=104 time=0
EXTRACT: note_on channel=12 note=63 velocity=104 time=0
EXTRACT: note_off channel=9 note=40 velocity=0 time=0.086536875
EXTRACT: note_off channel=9 note=39 velocity=0 time=0
EXTRACT: note_off channel=9 note=44 velocity=0 time=0.0024038020833333333
EXTRACT: note_off channel=9 note=36 velocity=0 time=0.00721140625
EXTRACT: note_off channel=12 note=58 velocity=0 time=0.062498854166666666
EXTRACT: note_off channel=12 note=63 velocity=0 time=0.019230416666666666
EXTRACT: note_on channel=9 note=36 velocity=122 time=0.05288364583333333
EXTRACT: note_on channel=9 note=39 velocity=71 time=0
EXTRACT: note_on channel=9 note=40 velocity=72 time=0
EXTRACT: note_on channel=9 note=44 velocity=101 time=0
EXTRACT: note_off channel=9 note=40 velocity=0 time=0.086536875
EXTRACT: note_off channel=9 note=46 velocity=0 time=0.016826614583333333
EXTRACT: note_on channel=9 note=35 velocity=120 time=0.12740151041666667
EXTRACT: note_on channel=9 note=46 velocity=70 time=0
EXTRACT: note_on channel=1 note=31 velocity=85 time=0
EXTRACT: note_on channel=3 note=68 velocity=97 time=0
EXTRACT: note_on channel=4 note=80 velocity=87 time=0
EXTRACT: note_on channel=12 note=58 velocity=104 time=0
EXTRACT: note_on channel=12 note=63 velocity=104 time=0
EXTRACT: note_off channel=1 note=27 velocity=0 time=0.00721140625
EXTRACT: note_off channel=5 note=63 velocity=0 time=0.05528744791666666
EXTRACT: note_off channel=5 note=68 velocity=0 time=0.012019010416666667
EXTRACT: note_off channel=9 note=35 velocity=0 time=0.0024038020833333333
EXTRACT: note_off channel=9 note=44 velocity=0 time=0.00721140625
EXTRACT: note_off channel=9 note=36 velocity=0 time=0.02163421875
EXTRACT: note_off channel=3 note=70 velocity=0 time=0.006009505208333333
EXTRACT: note_off channel=4 note=82 velocity=0 time=0
EXTRACT: note_off channel=12 note=58 velocity=0 time=0.02764372395833333
EXTRACT: note_off channel=9 note=46 velocity=0 time=0.019230416666666666
EXTRACT: note_off channel=12 note=63 velocity=0 time=0.004807604166666667
EXTRACT: note_off channel=1 note=31 velocity=0 time=0.026441822916666666
EXTRACT: note_on channel=9 note=35 velocity=120 time=0.04086463541666667
EXTRACT: note_on channel=9 note=36 velocity=122 time=0
EXTRACT: note_on channel=9 note=44 velocity=111 time=0
EXTRACT: note_on channel=1 note=34 velocity=104 time=0
EXTRACT: note_off channel=9 note=35 velocity=0 time=0.16826614583333332
EXTRACT: note_on channel=9 note=35 velocity=56 time=0.062498854166666666
EXTRACT: note_on channel=9 note=46 velocity=75 time=0
EXTRACT: note_on channel=3 note=67 velocity=97 time=0
EXTRACT: note_on channel=4 note=79 velocity=87 time=0
EXTRACT: note_on channel=5 note=62 velocity=73 time=0
EXTRACT: note_on channel=5 note=65 velocity=80 time=0
EXTRACT: note_off channel=9 note=44 velocity=0 time=0.026441822916666666
EXTRACT: note_off channel=9 note=39 velocity=0 time=0.026441822916666666
EXTRACT: note_off channel=9 note=35 velocity=0 time=0.0024038020833333333
EXTRACT: note_off channel=3 note=68 velocity=0 time=0
EXTRACT: note_off channel=4 note=80 velocity=0 time=0
EXTRACT: note_off channel=5 note=65 velocity=0 time=0.0144228125
EXTRACT: note_off channel=5 note=62 velocity=0 time=0.009615208333333333
EXTRACT: note_off channel=9 note=36 velocity=0 time=0.024038020833333333
EXTRACT: note_off channel=1 note=34 velocity=0 time=0.09134447916666666
EXTRACT: note_on channel=9 note=36 velocity=122 time=0.036057031249999996
EXTRACT: note_on channel=9 note=39 velocity=76 time=0
EXTRACT: note_on channel=9 note=40 velocity=74 time=0
EXTRACT: note_on channel=9 note=44 velocity=92 time=0
EXTRACT: note_on channel=1 note=29 velocity=73 time=0
EXTRACT: note_on channel=5 note=62 velocity=71 time=0
EXTRACT: note_on channel=5 note=65 velocity=80 time=0
EXTRACT: note_on channel=12 note=53 velocity=114 time=0
EXTRACT: note_on channel=12 note=58 velocity=104 time=0
EXTRACT: note_on channel=12 note=62 velocity=91 time=0
EXTRACT: note_off channel=9 note=40 velocity=0 time=0.08894067708333334
EXTRACT: note_off channel=9 note=46 velocity=0 time=0.024038020833333333
EXTRACT: note_off channel=5 note=62 velocity=0 time=0.026441822916666666
EXTRACT: note_off channel=5 note=65 velocity=0 time=0.009615208333333333
EXTRACT: note_off channel=1 note=29 velocity=0 time=0.019230416666666666
EXTRACT: note_off channel=12 note=58 velocity=0 time=0
EXTRACT: note_off channel=12 note=62 velocity=0 time=0.026441822916666666
EXTRACT: note_on channel=9 note=35 velocity=105 time=0.036057031249999996
EXTRACT: note_on channel=9 note=46 velocity=63 time=0
EXTRACT: note_on channel=1 note=27 velocity=88 time=0
EXTRACT: note_on channel=3 note=65 velocity=97 time=0
EXTRACT: note_on channel=4 note=77 velocity=87 time=0
EXTRACT: note_on channel=12 note=58 velocity=95 time=0
EXTRACT: note_on channel=12 note=63 velocity=95 time=0
EXTRACT: note_off channel=9 note=44 velocity=0 time=0.036057031249999996
EXTRACT: note_off channel=12 note=53 velocity=0 time=0.02163421875
EXTRACT: note_off channel=9 note=35 velocity=0 time=0.009615208333333333
EXTRACT: note_off channel=3 note=67 velocity=0 time=0.0024038020833333333
EXTRACT: note_off channel=4 note=79 velocity=0 time=0
EXTRACT: note_off channel=9 note=36 velocity=0 time=0.02163421875
EXTRACT: note_on channel=9 note=40 velocity=94 time=0.0432684375
EXTRACT: note_off channel=12 note=58 velocity=0 time=0.024038020833333333
EXTRACT: note_off channel=12 note=63 velocity=0 time=0.012019010416666667
EXTRACT: note_off channel=9 note=40 velocity=0 time=0.033653229166666666
EXTRACT: note_on channel=9 note=35 velocity=120 time=0.026441822916666666
EXTRACT: note_on channel=9 note=36 velocity=122 time=0
EXTRACT: note_on channel=9 note=44 velocity=85 time=0
EXTRACT: note_on channel=5 note=63 velocity=82 time=0
EXTRACT: note_on channel=5 note=67 velocity=80 time=0
EXTRACT: note_off channel=9 note=35 velocity=0 time=0.07692166666666667
EXTRACT: note_off channel=9 note=46 velocity=0 time=0
EXTRACT: note_off channel=5 note=63 velocity=0 time=0.0144228125
EXTRACT: note_off channel=5 note=67 velocity=0 time=0.004807604166666667
EXTRACT: note_off channel=1 note=27 velocity=0 time=0.08413307291666666
EXTRACT: note_on channel=9 note=36 velocity=120 time=0.05047984375
EXTRACT: note_on channel=9 note=35 velocity=120 time=0
EXTRACT: note_on channel=9 note=46 velocity=71 time=0
EXTRACT: note_on channel=1 note=27 velocity=95 time=0
EXTRACT: note_on channel=3 note=63 velocity=97 time=0
EXTRACT: note_on channel=4 note=75 velocity=87 time=0
EXTRACT: note_on channel=5 note=63 velocity=80 time=0
EXTRACT: note_on channel=5 note=68 velocity=80 time=0
EXTRACT: note_on channel=12 note=58 velocity=109 time=0
EXTRACT: note_on channel=12 note=63 velocity=114 time=0
EXTRACT: note_off channel=3 note=65 velocity=0 time=0.015624713541666667
EXTRACT: note_off channel=4 note=77 velocity=0 time=0
EXTRACT: note_off channel=9 note=36 velocity=64 time=0.04206653645833333
EXTRACT: note_off channel=9 note=44 velocity=0 time=0.031249427083333333
EXTRACT: note_off channel=9 note=39 velocity=0 time=0.0024038020833333333
EXTRACT: note_off channel=9 note=36 velocity=0 time=0.033653229166666666
EXTRACT: note_on channel=9 note=36 velocity=122 time=0.10576729166666667
EXTRACT: note_on channel=9 note=39 velocity=72 time=0
EXTRACT: note_on channel=9 note=40 velocity=74 time=0
EXTRACT: note_on channel=9 note=44 velocity=101 time=0
EXTRACT: note_off channel=9 note=35 velocity=0 time=0.012019010416666667
EXTRACT: note_off channel=9 note=40 velocity=0 time=0.08172927083333334
EXTRACT: note_off channel=9 note=46 velocity=0 time=0.009615208333333333
EXTRACT: note_off channel=5 note=63 velocity=0 time=0.033653229166666666
EXTRACT: note_off channel=5 note=68 velocity=0 time=0.0144228125
EXTRACT: note_off channel=1 note=27 velocity=0 time=0.07692166666666667
EXTRACT: note_on channel=9 note=46 velocity=70 time=0.0024038020833333333
EXTRACT: note_on channel=1 note=31 velocity=62 time=0
EXTRACT: note_on channel=3 note=62 velocity=97 time=0
EXTRACT: note_on channel=4 note=74 velocity=87 time=0
EXTRACT: note_on channel=5 note=62 velocity=85 time=0
EXTRACT: note_on channel=5 note=65 velocity=91 time=0
EXTRACT: note_off channel=5 note=65 velocity=0 time=0.07451786458333333
EXTRACT: note_off channel=12 note=58 velocity=0 time=0
EXTRACT: note_off channel=3 note=63 velocity=0 time=0.0012019010416666667
EXTRACT: note_off channel=4 note=75 velocity=0 time=0
EXTRACT: note_off channel=9 note=36 velocity=0 time=0.0012019010416666667
EXTRACT: note_off channel=5 note=62 velocity=0 time=0.004807604166666667
EXTRACT: note_off channel=9 note=44 velocity=0 time=0.0024038020833333333
EXTRACT: note_off channel=12 note=63 velocity=0 time=0
EXTRACT: note_on channel=9 note=40 velocity=70 time=0.05047984375
EXTRACT: note_off channel=9 note=46 velocity=0 time=0.024038020833333333
EXTRACT: note_off channel=1 note=31 velocity=0 time=0.02163421875
EXTRACT: note_on channel=9 note=35 velocity=120 time=0.05047984375
EXTRACT: note_on channel=9 note=36 velocity=125 time=0
EXTRACT: note_on channel=9 note=44 velocity=111 time=0
EXTRACT: note_on channel=1 note=34 velocity=82 time=0
EXTRACT: note_off channel=9 note=40 velocity=0 time=0.009615208333333333
EXTRACT: note_off channel=9 note=35 velocity=0 time=0.09374828125
EXTRACT: note_on channel=9 note=35 velocity=110 time=0.12740151041666667
EXTRACT: note_on channel=9 note=46 velocity=75 time=0
EXTRACT: note_on channel=3 note=63 velocity=97 time=0
EXTRACT: note_on channel=4 note=75 velocity=87 time=0
EXTRACT: note_on channel=5 note=62 velocity=82 time=0
EXTRACT: note_on channel=5 note=65 velocity=91 time=0
EXTRACT: note_off channel=9 note=44 velocity=0 time=0.026441822916666666
EXTRACT: note_off channel=9 note=39 velocity=0 time=0.031249427083333333
EXTRACT: note_off channel=3 note=62 velocity=0 time=0.003605703125
EXTRACT: note_off channel=4 note=74 velocity=0 time=0
EXTRACT: note_off channel=5 note=65 velocity=0 time=0.020432317708333335
EXTRACT: note_off channel=5 note=62 velocity=0 time=0
EXTRACT: note_off channel=9 note=36 velocity=0 time=0.031249427083333333
EXTRACT: note_off channel=1 note=34 velocity=0 time=0.11297869791666666
EXTRACT: note_on channel=9 note=36 velocity=122 time=0.004807604166666667
EXTRACT: note_on channel=9 note=39 velocity=80 time=0
EXTRACT: note_on channel=9 note=40 velocity=78 time=0
EXTRACT: note_on channel=9 note=44 velocity=92 time=0
EXTRACT: note_on channel=1 note=29 velocity=76 time=0
EXTRACT: note_on channel=12 note=53 velocity=109 time=0
EXTRACT: note_on channel=12 note=58 velocity=104 time=0
EXTRACT: note_on channel=12 note=62 velocity=91 time=0
EXTRACT: note_off channel=9 note=35 velocity=0 time=0.028845625
EXTRACT: note_off channel=9 note=40 velocity=0 time=0.06490265625
EXTRACT: note_off channel=9 note=46 velocity=0 time=0.019230416666666666
EXTRACT: note_off channel=12 note=58 velocity=0 time=0.03846083333333333
EXTRACT: note_off channel=12 note=62 velocity=0 time=0.026441822916666666
EXTRACT: note_off channel=3 note=63 velocity=0 time=0.04206653645833333
EXTRACT: note_off channel=4 note=75 velocity=0 time=0
EXTRACT: note_off channel=1 note=29 velocity=0 time=0.006009505208333333
EXTRACT: note_on channel=9 note=35 velocity=116 time=0.004807604166666667
EXTRACT: note_on channel=9 note=46 velocity=63 time=0
EXTRACT: note_on channel=1 note=27 velocity=91 time=0
EXTRACT: note_on channel=3 note=65 velocity=97 time=0
EXTRACT: note_on channel=4 note=77 velocity=87 time=0
EXTRACT: note_on channel=5 note=63 velocity=91 time=0
EXTRACT: note_on channel=5 note=67 velocity=82 time=0
EXTRACT: note_on channel=12 note=58 velocity=91 time=0
EXTRACT: note_on channel=12 note=63 velocity=95 time=0
EXTRACT: note_off channel=9 note=44 velocity=0 time=0.036057031249999996
EXTRACT: note_off channel=12 note=53 velocity=0 time=0.012019010416666667
EXTRACT: note_off channel=9 note=35 velocity=0 time=0.026441822916666666
EXTRACT: note_off channel=5 note=63 velocity=0 time=0.02163421875
EXTRACT: note_off channel=5 note=67 velocity=0 time=0.012019010416666667
EXTRACT: note_off channel=9 note=36 velocity=0 time=0.00721140625
EXTRACT: note_off channel=12 note=58 velocity=0 time=0.0144228125
EXTRACT: note_on channel=9 note=40 velocity=105 time=0.004807604166666667
EXTRACT: note_off channel=12 note=63 velocity=0 time=0.019230416666666666
EXTRACT: note_off channel=9 note=40 velocity=0 time=0.05769125
EXTRACT: note_on channel=9 note=35 velocity=120 time=0.019230416666666666
EXTRACT: note_on channel=9 note=36 velocity=125 time=0
EXTRACT: note_on channel=9 note=44 velocity=85 time=0
EXTRACT: note_on channel=12 note=53 velocity=52 time=0
EXTRACT: note_off channel=12 note=53 velocity=0 time=0.060095052083333336
EXTRACT: note_off channel=9 note=35 velocity=0 time=0.012019010416666667
EXTRACT: note_off channel=9 note=46 velocity=0 time=0.004807604166666667
EXTRACT: note_off channel=1 note=27 velocity=0 time=0.031249427083333333
EXTRACT: note_on channel=9 note=40 velocity=100 time=0.026441822916666666
EXTRACT: note_off channel=9 note=40 velocity=0 time=0.07692166666666667
EXTRACT: note_on channel=9 note=36 velocity=120 time=0.019230416666666666
EXTRACT: note_on channel=9 note=35 velocity=120 time=0
EXTRACT: note_on channel=9 note=46 velocity=71 time=0
EXTRACT: note_on channel=1 note=27 velocity=95 time=0
EXTRACT: note_on channel=3 note=70 velocity=97 time=0
EXTRACT: note_on channel=4 note=82 velocity=87 time=0
EXTRACT: note_on channel=5 note=63 velocity=88 time=0
EXTRACT: note_on channel=5 note=68 velocity=88 time=0
EXTRACT: note_on channel=12 note=58 velocity=109 time=0
EXTRACT: note_on channel=12 note=63 velocity=114 time=0
EXTRACT: note_off channel=9 note=39 velocity=0 time=0.05528744791666666
EXTRACT: note_off channel=9 note=36 velocity=64 time=0.0024038020833333333
EXTRACT: note_off channel=3 note=65 velocity=0 time=0.012019010416666667
EXTRACT: note_off channel=4 note=77 velocity=0 time=0
EXTRACT: note_off channel=9 note=36 velocity=0 time=0.016826614583333333
EXTRACT: note_off channel=9 note=44 velocity=0 time=0.0024038020833333333
EXTRACT: note_off channel=9 note=35 velocity=0 time=0.012019010416666667
EXTRACT: note_off channel=12 note=58 velocity=0 time=0.08413307291666666
EXTRACT: note_off channel=12 note=63 velocity=0 time=0.004807604166666667
EXTRACT: note_on channel=9 note=36 velocity=122 time=0.04086463541666667
EXTRACT: note_on channel=9 note=39 velocity=86 time=0
EXTRACT: note_on channel=9 note=40 velocity=86 time=0
EXTRACT: note_on channel=9 note=44 velocity=101 time=0
EXTRACT: note_on channel=3 note=65 velocity=97 time=0
EXTRACT: note_on channel=4 note=77 velocity=87 time=0
EXTRACT: note_on channel=12 note=53 velocity=35 time=0
EXTRACT: note_off channel=3 note=70 velocity=0 time=0.054085546875
EXTRACT: note_off channel=4 note=82 velocity=0 time=0
EXTRACT: note_off channel=12 note=53 velocity=0 time=0.018028515624999998
EXTRACT: note_off channel=9 note=40 velocity=0 time=0.0144228125
EXTRACT: note_off channel=9 note=46 velocity=0 time=0.016826614583333333
EXTRACT: note_off channel=9 note=36 velocity=0 time=0.028845625
EXTRACT: note_off channel=5 note=63 velocity=0 time=0.06490265625
EXTRACT: note_off channel=5 note=68 velocity=0 time=0.0144228125
EXTRACT: note_on channel=9 note=36 velocity=122 time=0.019230416666666666
EXTRACT: note_on channel=9 note=40 velocity=110 time=0
EXTRACT: note_on channel=9 note=46 velocity=70 time=0
EXTRACT: note_on channel=1 note=31 velocity=85 time=0
EXTRACT: note_on channel=12 note=58 velocity=114 time=0
EXTRACT: note_on channel=12 note=63 velocity=104 time=0
EXTRACT: note_off channel=1 note=27 velocity=0 time=0.00721140625
EXTRACT: note_off channel=9 note=39 velocity=0 time=0.05047984375
EXTRACT: note_off channel=9 note=40 velocity=0 time=0.004807604166666667
EXTRACT: note_off channel=9 note=44 velocity=0 time=0.02163421875
EXTRACT: note_off channel=3 note=65 velocity=0 time=0.012019010416666667
EXTRACT: note_off channel=4 note=77 velocity=0 time=0
EXTRACT: note_on channel=9 note=40 velocity=91 time=0.03846083333333333
EXTRACT: note_off channel=9 note=36 velocity=0 time=0.0024038020833333333
EXTRACT: note_off channel=12 note=58 velocity=0 time=0.016826614583333333
EXTRACT: note_off channel=9 note=46 velocity=0 time=0.004807604166666667
EXTRACT: note_off channel=12 note=63 velocity=0 time=0.0024038020833333333
EXTRACT: note_off channel=1 note=31 velocity=0 time=0.028845625
EXTRACT: note_off channel=9 note=40 velocity=0 time=0.028845625
EXTRACT: note_on channel=9 note=36 velocity=125 time=0.012019010416666667
EXTRACT: note_on channel=9 note=44 velocity=111 time=0
EXTRACT: note_on channel=9 note=49 velocity=80 time=0
EXTRACT: note_on channel=9 note=57 velocity=89 time=0
EXTRACT: note_on channel=1 note=34 velocity=104 time=0
EXTRACT: note_on channel=2 note=77 velocity=101 time=0
EXTRACT: note_on channel=7 note=58 velocity=101 time=0
EXTRACT: note_on channel=7 note=70 velocity=92 time=0
EXTRACT: note_on channel=11 note=70 velocity=104 time=0
EXTRACT: note_on channel=11 note=77 velocity=95 time=0
EXTRACT: note_on channel=11 note=82 velocity=95 time=0
EXTRACT: note_on channel=12 note=53 velocity=88 time=0
EXTRACT: note_on channel=12 note=58 velocity=78 time=0
EXTRACT: note_on channel=12 note=62 velocity=76 time=0
EXTRACT: note_on channel=14 note=46 velocity=94 time=0
EXTRACT: pitchwheel channel=2 pitch=-5888 time=0.0144228125
EXTRACT: pitchwheel channel=2 pitch=-5376 time=0.019230416666666666
EXTRACT: pitchwheel channel=2 pitch=-4736 time=0.019230416666666666
EXTRACT: pitchwheel channel=2 pitch=-3968 time=0.019230416666666666
EXTRACT: note_off channel=9 note=49 velocity=0 time=0.004807604166666667
EXTRACT: note_off channel=14 note=46 velocity=0 time=0.009615208333333333
EXTRACT: note_off channel=9 note=57 velocity=0 time=0.0024038020833333333
EXTRACT: pitchwheel channel=2 pitch=-3456 time=0.0024038020833333333
EXTRACT: note_off channel=12 note=58 velocity=0 time=0.004807604166666667
EXTRACT: note_off channel=9 note=36 velocity=0 time=0.00721140625
EXTRACT: pitchwheel channel=2 pitch=-3072 time=0.00721140625
EXTRACT: note_off channel=12 note=62 velocity=0 time=0.0024038020833333333
EXTRACT: note_on channel=14 note=58 velocity=90 time=0.0024038020833333333
EXTRACT: note_off channel=12 note=53 velocity=0 time=0.00721140625
EXTRACT: pitchwheel channel=2 pitch=-2816 time=0.009615208333333333
EXTRACT: pitchwheel channel=2 pitch=-2304 time=0.016826614583333333
EXTRACT: pitchwheel channel=2 pitch=-1664 time=0.02163421875
EXTRACT: pitchwheel channel=2 pitch=-1152 time=0.019230416666666666
EXTRACT: pitchwheel channel=2 pitch=-768 time=0.019230416666666666
EXTRACT: pitchwheel channel=2 pitch=-256 time=0.019230416666666666
EXTRACT: note_off channel=14 note=58 velocity=0 time=0
EXTRACT: note_on channel=9 note=46 velocity=75 time=0.0024038020833333333
EXTRACT: note_on channel=14 note=46 velocity=92 time=0
EXTRACT: pitchwheel channel=2 pitch=-128 time=0.016826614583333333
EXTRACT: note_off channel=9 note=44 velocity=0 time=0.009615208333333333
EXTRACT: note_off channel=14 note=46 velocity=0 time=0.04567223958333333
EXTRACT: pitchwheel channel=2 pitch=0 time=0.0024038020833333333
EXTRACT: pitchwheel channel=2 pitch=-128 time=0.03846083333333333
EXTRACT: note_on channel=14 note=58 velocity=89 time=0.0024038020833333333
EXTRACT: pitchwheel channel=2 pitch=-256 time=0.016826614583333333
EXTRACT: note_off channel=2 note=77 velocity=0 time=0.016826614583333333
EXTRACT: pitchwheel channel=2 pitch=-1024 time=0.0024038020833333333
EXTRACT: pitchwheel channel=2 pitch=-2176 time=0.019230416666666666
EXTRACT: pitchwheel channel=2 pitch=-3712 time=0.02163421875
EXTRACT: note_off channel=1 note=34 velocity=0 time=0.0024038020833333333
EXTRACT: note_off channel=14 note=58 velocity=0 time=0.004807604166666667
EXTRACT: pitchwheel channel=2 pitch=-5120 time=0.012019010416666667
EXTRACT: note_on channel=9 note=36 velocity=107 time=0.019230416666666666
EXTRACT: note_on channel=9 note=39 velocity=78 time=0
EXTRACT: note_on channel=9 note=40 velocity=74 time=0
EXTRACT: note_on channel=9 note=44 velocity=92 time=0
EXTRACT: note_on channel=1 note=29 velocity=73 time=0
EXTRACT: pitchwheel channel=2 pitch=-5888 time=0
EXTRACT: note_on channel=2 note=77 velocity=101 time=0
EXTRACT: note_on channel=5 note=62 velocity=78 time=0
EXTRACT: note_on channel=5 note=65 velocity=85 time=0
EXTRACT: note_on channel=6 note=58 velocity=127 time=0
EXTRACT: note_on channel=6 note=62 velocity=108 time=0
EXTRACT: note_on channel=6 note=65 velocity=118 time=0
EXTRACT: note_on channel=12 note=53 velocity=80 time=0
EXTRACT: note_on channel=12 note=58 velocity=73 time=0
EXTRACT: note_on channel=12 note=62 velocity=73 time=0
EXTRACT: note_on channel=14 note=46 velocity=92 time=0
EXTRACT: pitchwheel channel=2 pitch=-6016 time=0.019230416666666666
EXTRACT: pitchwheel channel=2 pitch=-5760 time=0.019230416666666666
EXTRACT: pitchwheel channel=2 pitch=-5248 time=0.02163421875
EXTRACT: pitchwheel channel=2 pitch=-4224 time=0.019230416666666666
EXTRACT: note_off channel=14 note=46 velocity=0 time=0.00721140625
EXTRACT: pitchwheel channel=2 pitch=-3200 time=0.012019010416666667
EXTRACT: note_off channel=12 note=62 velocity=0 time=0.004807604166666667
EXTRACT: note_off channel=9 note=46 velocity=0 time=0.009615208333333333
EXTRACT: note_off channel=12 note=58 velocity=0 time=0
EXTRACT: note_on channel=14 note=58 velocity=89 time=0.0024038020833333333
EXTRACT: pitchwheel channel=2 pitch=-1792 time=0.0024038020833333333
EXTRACT: note_off channel=12 note=53 velocity=0 time=0.004807604166666667
EXTRACT: note_off channel=9 note=36 velocity=0 time=0.009615208333333333
EXTRACT: pitchwheel channel=2 pitch=-768 time=0.004807604166666667
EXTRACT: pitchwheel channel=2 pitch=-256 time=0.019230416666666666
EXTRACT: note_off channel=1 note=29 velocity=0 time=0.012019010416666667
EXTRACT: note_off channel=5 note=62 velocity=0 time=0.012019010416666667
EXTRACT: note_off channel=6 note=58 velocity=0 time=0
EXTRACT: note_off channel=6 note=62 velocity=0 time=0.0024038020833333333
EXTRACT: note_off channel=5 note=65 velocity=0 time=0.0024038020833333333
EXTRACT: note_off channel=6 note=65 velocity=0 time=0.0024038020833333333
EXTRACT: note_off channel=14 note=58 velocity=0 time=0.0144228125
EXTRACT: note_on channel=9 note=46 velocity=63 time=0.028845625
EXTRACT: note_on channel=1 note=27 velocity=88 time=0
EXTRACT: note_on channel=12 note=53 velocity=76 time=0
EXTRACT: note_on channel=12 note=58 velocity=74 time=0
EXTRACT: note_on channel=12 note=63 velocity=74 time=0
EXTRACT: note_on channel=14 note=46 velocity=90 time=0
EXTRACT: note_off channel=9 note=44 velocity=0 time=0.036057031249999996
EXTRACT: pitchwheel channel=2 pitch=-384 time=0.024038020833333333
EXTRACT: pitchwheel channel=2 pitch=-512 time=0.019230416666666666
EXTRACT: note_off channel=14 note=46 velocity=0 time=0.00721140625
EXTRACT: pitchwheel channel=2 pitch=-768 time=0.0144228125
EXTRACT: note_off channel=12 note=53 velocity=0 time=0.012019010416666667
EXTRACT: note_on channel=14 note=58 velocity=89 time=0.0024038020833333333
EXTRACT: pitchwheel channel=2 pitch=-1280 time=0.0024038020833333333
EXTRACT: note_off channel=2 note=77 velocity=0 time=0.012019010416666667
EXTRACT: note_off channel=12 note=58 velocity=0 time=0.0024038020833333333
EXTRACT: pitchwheel channel=2 pitch=-2176 time=0.00721140625
EXTRACT: note_off channel=12 note=63 velocity=0 time=0.004807604166666667
EXTRACT: pitchwheel channel=2 pitch=-3200 time=0.0144228125
EXTRACT: pitchwheel channel=2 pitch=-4224 time=0.019230416666666666
EXTRACT: pitchwheel channel=2 pitch=-4992 time=0.019230416666666666
EXTRACT: note_off channel=14 note=58 velocity=0 time=0.0024038020833333333
EXTRACT: pitchwheel channel=2 pitch=-5504 time=0.016826614583333333
EXTRACT: note_on channel=9 note=36 velocity=93 time=0.0144228125
EXTRACT: note_on channel=9 note=44 velocity=85 time=0
EXTRACT: note_on channel=2 note=77 velocity=107 time=0
EXTRACT: note_on channel=5 note=63 velocity=82 time=0
EXTRACT: note_on channel=5 note=67 velocity=82 time=0
EXTRACT: note_on channel=14 note=46 velocity=91 time=0
EXTRACT: pitchwheel channel=2 pitch=-5248 time=0.026441822916666666
EXTRACT: pitchwheel channel=2 pitch=-4736 time=0.016826614583333333
EXTRACT: pitchwheel channel=2 pitch=-3712 time=0.02163421875
EXTRACT: note_off channel=9 note=46 velocity=0 time=0.012019010416666667
EXTRACT: pitchwheel channel=2 pitch=-2048 time=0.00721140625
EXTRACT: note_off channel=14 note=46 velocity=0 time=0.00721140625
EXTRACT: note_off channel=5 note=63 velocity=0 time=0.00721140625
EXTRACT: pitchwheel channel=2 pitch=-256 time=0.004807604166666667
EXTRACT: note_off channel=5 note=67 velocity=0 time=0.00721140625
EXTRACT: note_on channel=14 note=58 velocity=89 time=0.004807604166666667
EXTRACT: pitchwheel channel=2 pitch=-128 time=0.00721140625
EXTRACT: pitchwheel channel=2 pitch=0 time=0.03846083333333333
EXTRACT: note_off channel=1 note=27 velocity=0 time=0.019230416666666666
EXTRACT: note_off channel=14 note=58 velocity=0 time=0.026441822916666666
EXTRACT: note_on channel=9 note=36 velocity=120 time=0.024038020833333333
EXTRACT: note_on channel=9 note=46 velocity=71 time=0
EXTRACT: note_on channel=1 note=27 velocity=95 time=0
EXTRACT: note_on channel=5 note=63 velocity=80 time=0
EXTRACT: note_on channel=5 note=68 velocity=82 time=0
EXTRACT: note_on channel=6 note=58 velocity=115 time=0
EXTRACT: note_on channel=6 note=63 velocity=111 time=0
EXTRACT: note_on channel=6 note=68 velocity=111 time=0
EXTRACT: note_on channel=12 note=53 velocity=71 time=0
EXTRACT: note_on channel=12 note=58 velocity=78 time=0
EXTRACT: note_on channel=12 note=63 velocity=78 time=0
EXTRACT: note_on channel=14 note=46 velocity=90 time=0
EXTRACT: note_off channel=9 note=36 velocity=0 time=0.028845625
EXTRACT: note_off channel=9 note=36 velocity=64 time=0.028845625
EXTRACT: note_off channel=9 note=44 velocity=0 time=0.031249427083333333
EXTRACT: note_off channel=14 note=46 velocity=0 time=0.0024038020833333333
EXTRACT: note_off channel=9 note=39 velocity=0 time=0.0024038020833333333
EXTRACT: note_off channel=9 note=40 velocity=0 time=0.009615208333333333
EXTRACT: note_on channel=14 note=58 velocity=89 time=0.012019010416666667
EXTRACT: note_off channel=2 note=77 velocity=0 time=0.012019010416666667
EXTRACT: note_off channel=14 note=58 velocity=0 time=0.08172927083333334
EXTRACT: note_on channel=9 note=36 velocity=125 time=0.02163421875
EXTRACT: note_on channel=9 note=39 velocity=62 time=0
EXTRACT: note_on channel=9 note=40 velocity=66 time=0
EXTRACT: note_on channel=9 note=44 velocity=101 time=0
EXTRACT: note_on channel=2 note=80 velocity=111 time=0
EXTRACT: note_on channel=7 note=68 velocity=105 time=0
EXTRACT: note_on channel=14 note=46 velocity=92 time=0
EXTRACT: note_off channel=7 note=70 velocity=0 time=0.04086463541666667
EXTRACT: note_off channel=14 note=46 velocity=0 time=0.05528744791666666
EXTRACT: note_off channel=9 note=46 velocity=0 time=0.00721140625
EXTRACT: note_off channel=12 note=53 velocity=0 time=0.004807604166666667
EXTRACT: note_on channel=14 note=58 velocity=89 time=0.00721140625
EXTRACT: note_off channel=12 note=58 velocity=0 time=0.00721140625
EXTRACT: note_off channel=12 note=63 velocity=0 time=0.0144228125
EXTRACT: note_off channel=14 note=58 velocity=0 time=0.07932546875
EXTRACT: note_off channel=1 note=27 velocity=0 time=0.012019010416666667
EXTRACT: note_on channel=9 note=46 velocity=70 time=0.0024038020833333333
EXTRACT: note_on channel=1 note=31 velocity=62 time=0
EXTRACT: note_on channel=12 note=53 velocity=71 time=0
EXTRACT: note_on channel=12 note=58 velocity=73 time=0
EXTRACT: note_on channel=12 note=63 velocity=68 time=0
EXTRACT: note_on channel=14 note=46 velocity=92 time=0
EXTRACT: note_off channel=6 note=63 velocity=0 time=0.00721140625
EXTRACT: note_off channel=5 note=63 velocity=0 time=0.0144228125
EXTRACT: note_off channel=6 note=68 velocity=0 time=0
EXTRACT: note_off channel=6 note=58 velocity=0 time=0.0024038020833333333
EXTRACT: pitchwheel channel=2 pitch=-256 time=0.004807604166666667
EXTRACT: note_off channel=5 note=68 velocity=0 time=0.009615208333333333
EXTRACT: pitchwheel channel=2 pitch=-1024 time=0.009615208333333333
EXTRACT: pitchwheel channel=2 pitch=-1536 time=0.019230416666666666
EXTRACT: note_off channel=9 note=44 velocity=0 time=0.016826614583333333
EXTRACT: note_off channel=9 note=36 velocity=0 time=0.0024038020833333333
EXTRACT: pitchwheel channel=2 pitch=-2048 time=0
EXTRACT: note_off channel=14 note=46 velocity=0 time=0.00721140625
EXTRACT: pitchwheel channel=2 pitch=-2560 time=0.012019010416666667
EXTRACT: note_on channel=14 note=58 velocity=88 time=0.009615208333333333
EXTRACT: note_off channel=12 note=53 velocity=0 time=0.00721140625
EXTRACT: pitchwheel channel=2 pitch=-2688 time=0.004807604166666667
EXTRACT: note_off channel=12 note=58 velocity=0 time=0.00721140625
EXTRACT: pitchwheel channel=2 pitch=-2816 time=0.012019010416666667
EXTRACT: note_off channel=9 note=46 velocity=0 time=0.012019010416666667
EXTRACT: note_off channel=12 note=63 velocity=0 time=0.004807604166666667
EXTRACT: pitchwheel channel=2 pitch=-2560 time=0.0024038020833333333
EXTRACT: note_off channel=1 note=31 velocity=0 time=0.0144228125
EXTRACT: pitchwheel channel=2 pitch=-2304 time=0.004807604166666667
EXTRACT: pitchwheel channel=2 pitch=-1792 time=0.019230416666666666
EXTRACT: note_off channel=14 note=58 velocity=0 time=0.012019010416666667
EXTRACT: pitchwheel channel=2 pitch=-128 time=0.00721140625
EXTRACT: note_on channel=9 note=36 velocity=118 time=0.00721140625
EXTRACT: note_on channel=9 note=44 velocity=111 time=0
EXTRACT: note_on channel=1 note=34 velocity=82 time=0
EXTRACT: note_on channel=12 note=53 velocity=74 time=0
EXTRACT: note_on channel=12 note=58 velocity=73 time=0
EXTRACT: note_on channel=12 note=62 velocity=71 time=0
EXTRACT: note_on channel=14 note=46 velocity=92 time=0
EXTRACT: pitchwheel channel=2 pitch=0 time=0.031249427083333333
EXTRACT: note_off channel=12 note=58 velocity=0 time=0.062498854166666666
EXTRACT: note_off channel=14 note=46 velocity=0 time=0
EXTRACT: note_off channel=12 note=62 velocity=0 time=0.012019010416666667
EXTRACT: note_off channel=12 note=53 velocity=0 time=0.004807604166666667
EXTRACT: note_on channel=14 note=58 velocity=89 time=0.004807604166666667
EXTRACT: note_off channel=14 note=58 velocity=0 time=0.10576729166666667
EXTRACT: note_on channel=9 note=46 velocity=75 time=0.009615208333333333
EXTRACT: note_on channel=6 note=58 velocity=115 time=0
EXTRACT: note_on channel=6 note=62 velocity=100 time=0
EXTRACT: note_on channel=6 note=65 velocity=105 time=0
EXTRACT: note_on channel=14 note=46 velocity=91 time=0
EXTRACT: note_off channel=9 note=44 velocity=0 time=0.026441822916666666
EXTRACT: note_off channel=6 note=65 velocity=0 time=0.048076041666666666
EXTRACT: note_off channel=9 note=36 velocity=0 time=0.0024038020833333333
EXTRACT: note_off channel=6 note=62 velocity=0 time=0.004807604166666667
EXTRACT: note_off channel=6 note=58 velocity=0 time=0.0024038020833333333
EXTRACT: note_off channel=14 note=46 velocity=0 time=0
EXTRACT: note_off channel=9 note=40 velocity=0 time=0.012019010416666667
EXTRACT: note_off channel=9 note=39 velocity=0 time=0.009615208333333333
EXTRACT: note_on channel=14 note=58 velocity=89 time=0.009615208333333333
EXTRACT: note_off channel=11 note=70 velocity=0 time=0.086536875
EXTRACT: note_off channel=14 note=58 velocity=0 time=0.019230416666666666
EXTRACT: note_off channel=1 note=34 velocity=0 time=0.004807604166666667
EXTRACT: note_on channel=9 note=36 velocity=118 time=0.004807604166666667
EXTRACT: note_on channel=9 note=39 velocity=66 time=0
EXTRACT: note_on channel=9 note=40 velocity=74 time=0
EXTRACT: note_on channel=9 note=44 velocity=92 time=0
EXTRACT: note_on channel=1 note=29 velocity=76 time=0
EXTRACT: note_on channel=5 note=62 velocity=78 time=0
EXTRACT: note_on channel=5 note=65 velocity=80 time=0
EXTRACT: note_on channel=11 note=70 velocity=95 time=0
EXTRACT: note_on channel=12 note=53 velocity=82 time=0
EXTRACT: note_on channel=12 note=58 velocity=78 time=0
EXTRACT: note_on channel=12 note=62 velocity=73 time=0
EXTRACT: note_on channel=14 note=46 velocity=92 time=0
EXTRACT: note_off channel=5 note=65 velocity=0 time=0.07692166666666667
EXTRACT: note_off channel=5 note=62 velocity=0 time=0.009615208333333333
EXTRACT: note_off channel=14 note=46 velocity=0 time=0.012019010416666667
EXTRACT: note_off channel=9 note=46 velocity=0 time=0.0144228125
EXTRACT: note_on channel=14 note=58 velocity=89 time=0.0024038020833333333
EXTRACT: note_off channel=11 note=77 velocity=0 time=0.016826614583333333
EXTRACT: note_off channel=12 note=62 velocity=0 time=0.016826614583333333
EXTRACT: note_off channel=12 note=58 velocity=0 time=0
EXTRACT: note_off channel=12 note=53 velocity=0 time=0
EXTRACT: note_off channel=14 note=58 velocity=0 time=0.060095052083333336
EXTRACT: note_off channel=1 note=29 velocity=0 time=0.016826614583333333
EXTRACT: note_on channel=9 note=46 velocity=63 time=0.004807604166666667
EXTRACT: note_on channel=1 note=27 velocity=91 time=0
EXTRACT: note_on channel=2 note=70 velocity=96 time=0
EXTRACT: note_on channel=5 note=62 velocity=68 time=0
EXTRACT: note_on channel=5 note=65 velocity=74 time=0
EXTRACT: note_on channel=6 note=58 velocity=102 time=0
EXTRACT: note_on channel=6 note=62 velocity=100 time=0
EXTRACT: note_on channel=6 note=65 velocity=108 time=0
EXTRACT: note_on channel=11 note=77 velocity=70 time=0
EXTRACT: note_on channel=12 note=53 velocity=82 time=0
EXTRACT: note_on channel=12 note=58 velocity=80 time=0
EXTRACT: note_on channel=12 note=63 velocity=80 time=0
EXTRACT: note_on channel=14 note=46 velocity=91 time=0
EXTRACT: note_off channel=9 note=44 velocity=0 time=0.036057031249999996
EXTRACT: note_off channel=2 note=80 velocity=0 time=0
EXTRACT: note_off channel=6 note=62 velocity=0 time=0.012019010416666667
EXTRACT: note_off channel=6 note=65 velocity=0 time=0.0024038020833333333
EXTRACT: note_off channel=6 note=58 velocity=0 time=0.026441822916666666
EXTRACT: note_off channel=5 note=62 velocity=0 time=0.0024038020833333333
EXTRACT: note_off channel=5 note=65 velocity=0 time=0.00721140625
EXTRACT: note_off channel=14 note=46 velocity=0 time=0.0024038020833333333
EXTRACT: note_on channel=14 note=58 velocity=89 time=0.026441822916666666
EXTRACT: note_off channel=12 note=58 velocity=0 time=0.019230416666666666
EXTRACT: note_off channel=12 note=63 velocity=0 time=0.004807604166666667
EXTRACT: note_off channel=9 note=36 velocity=0 time=0.0024038020833333333
EXTRACT: note_off channel=12 note=53 velocity=0 time=0.00721140625
EXTRACT: note_off channel=14 note=58 velocity=0 time=0.062498854166666666
EXTRACT: note_on channel=9 note=36 velocity=125 time=0.019230416666666666
EXTRACT: note_on channel=9 note=44 velocity=85 time=0
EXTRACT: note_on channel=5 note=63 velocity=63 time=0
EXTRACT: note_on channel=5 note=67 velocity=73 time=0
EXTRACT: note_on channel=14 note=46 velocity=92 time=0
EXTRACT: note_off channel=5 note=63 velocity=0 time=0.04086463541666667
EXTRACT: note_off channel=5 note=67 velocity=0 time=0.028845625
EXTRACT: note_off channel=9 note=46 velocity=0 time=0.00721140625
EXTRACT: note_off channel=14 note=46 velocity=0 time=0.012019010416666667
EXTRACT: note_off channel=1 note=27 velocity=0 time=0.019230416666666666
EXTRACT: note_on channel=14 note=58 velocity=88 time=0.00721140625
EXTRACT: note_off channel=11 note=82 velocity=0 time=0.04567223958333333
EXTRACT: note_off channel=14 note=58 velocity=0 time=0.05769125
EXTRACT: note_on channel=9 note=36 velocity=120 time=0.012019010416666667
EXTRACT: note_on channel=9 note=46 velocity=71 time=0
EXTRACT: note_on channel=1 note=27 velocity=95 time=0
EXTRACT: note_on channel=5 note=63 velocity=74 time=0
EXTRACT: note_on channel=5 note=68 velocity=73 time=0
EXTRACT: note_on channel=6 note=58 velocity=108 time=0
EXTRACT: note_on channel=6 note=63 velocity=111 time=0
EXTRACT: note_on channel=6 note=68 velocity=108 time=0
EXTRACT: note_on channel=11 note=82 velocity=80 time=0
EXTRACT: note_on channel=12 note=53 velocity=80 time=0
EXTRACT: note_on channel=12 note=58 velocity=78 time=0
EXTRACT: note_on channel=12 note=63 velocity=80 time=0
EXTRACT: note_on channel=14 note=46 velocity=91 time=0
EXTRACT: note_off channel=9 note=36 velocity=64 time=0.05769125
EXTRACT: note_off channel=9 note=44 velocity=0 time=0.031249427083333333
EXTRACT: note_off channel=9 note=39 velocity=0 time=0.0024038020833333333
EXTRACT: note_off channel=9 note=40 velocity=0 time=0.0024038020833333333
EXTRACT: note_off channel=14 note=46 velocity=0 time=0
EXTRACT: note_off channel=9 note=36 velocity=0 time=0.019230416666666666
EXTRACT: note_on channel=14 note=58 velocity=89 time=0.0024038020833333333
EXTRACT: note_off channel=14 note=58 velocity=0 time=0.1009596875
EXTRACT: note_on channel=9 note=36 velocity=122 time=0.0144228125
EXTRACT: note_on channel=9 note=39 velocity=65 time=0
EXTRACT: note_on channel=9 note=40 velocity=63 time=0
EXTRACT: note_on channel=9 note=44 velocity=101 time=0
EXTRACT: note_on channel=14 note=46 velocity=92 time=0
EXTRACT: note_off channel=14 note=46 velocity=0 time=0.09134447916666666
EXTRACT: note_off channel=9 note=46 velocity=0 time=0.012019010416666667
EXTRACT: note_on channel=14 note=58 velocity=89 time=0.012019010416666667
EXTRACT: note_off channel=14 note=58 velocity=0 time=0.09615208333333333
EXTRACT: note_on channel=9 note=46 velocity=70 time=0.019230416666666666
EXTRACT: note_on channel=1 note=31 velocity=85 time=0
EXTRACT: note_on channel=14 note=46 velocity=91 time=0
EXTRACT: note_off channel=1 note=27 velocity=0 time=0.00721140625
EXTRACT: pitchwheel channel=2 pitch=-128 time=0.004807604166666667
EXTRACT: note_off channel=12 note=58 velocity=0 time=0.0024038020833333333
EXTRACT: note_off channel=12 note=63 velocity=0 time=0.00721140625
EXTRACT: note_off channel=12 note=53 velocity=0 time=0.004807604166666667
EXTRACT: note_off channel=5 note=63 velocity=0 time=0.0144228125
EXTRACT: pitchwheel channel=2 pitch=-896 time=0.012019010416666667
EXTRACT: note_off channel=5 note=68 velocity=0 time=0.004807604166666667
EXTRACT: note_off channel=6 note=63 velocity=0 time=0.009615208333333333
EXTRACT: pitchwheel channel=2 pitch=-2176 time=0.004807604166666667
EXTRACT: note_off channel=11 note=82 velocity=0 time=0.004807604166666667
EXTRACT: note_off channel=9 note=44 velocity=0 time=0.00721140625
EXTRACT: note_off channel=6 note=68 velocity=0 time=0
EXTRACT: note_off channel=6 note=58 velocity=0 time=0.0024038020833333333
EXTRACT: pitchwheel channel=2 pitch=-3456 time=0.004807604166666667
EXTRACT: note_off channel=14 note=46 velocity=0 time=0.0024038020833333333
EXTRACT: note_off channel=2 note=70 velocity=0 time=0.012019010416666667
EXTRACT: pitchwheel channel=2 pitch=-4480 time=0.004807604166666667
EXTRACT: note_on channel=14 note=58 velocity=90 time=0.004807604166666667
EXTRACT: note_off channel=9 note=36 velocity=0 time=0.0024038020833333333
EXTRACT: note_off channel=11 note=70 velocity=0 time=0.00721140625
EXTRACT: pitchwheel channel=2 pitch=-4864 time=0.004807604166666667
EXTRACT: pitchwheel channel=2 pitch=-4992 time=0.019230416666666666
EXTRACT: note_off channel=9 note=46 velocity=0 time=0.009615208333333333
EXTRACT: note_off channel=11 note=77 velocity=0 time=0
EXTRACT: pitchwheel channel=2 pitch=-4864 time=0.009615208333333333
EXTRACT: note_off channel=1 note=31 velocity=0 time=0.02163421875
EXTRACT: pitchwheel channel=2 pitch=-4992 time=0.016826614583333333
EXTRACT: note_off channel=14 note=58 velocity=0 time=0.0024038020833333333
EXTRACT: note_on channel=9 note=36 velocity=118 time=0.02163421875
EXTRACT: note_on channel=9 note=44 velocity=111 time=0
EXTRACT: note_on channel=1 note=34 velocity=104 time=0
EXTRACT: note_on channel=2 note=80 velocity=101 time=0
EXTRACT: note_on channel=11 note=70 velocity=91 time=0
EXTRACT: note_on channel=11 note=77 velocity=66 time=0
EXTRACT: note_on channel=11 note=80 velocity=109 time=0
EXTRACT: note_on channel=14 note=46 velocity=94 time=0
EXTRACT: note_off channel=11 note=77 velocity=0 time=0.04086463541666667
EXTRACT: pitchwheel channel=2 pitch=-4736 time=0.0144228125
EXTRACT: pitchwheel channel=2 pitch=-4480 time=0.019230416666666666
EXTRACT: note_off channel=14 note=46 velocity=0 time=0.012019010416666667
EXTRACT: pitchwheel channel=2 pitch=-4224 time=0.00721140625
EXTRACT: pitchwheel channel=2 pitch=-3456 time=0.019230416666666666
EXTRACT: note_on channel=14 note=58 velocity=90 time=0.0024038020833333333
EXTRACT: pitchwheel channel=2 pitch=-640 time=0.016826614583333333
EXTRACT: pitchwheel channel=2 pitch=-256 time=0.02163421875
EXTRACT: note_off channel=14 note=58 velocity=0 time=0.07451786458333333
EXTRACT: note_on channel=9 note=46 velocity=75 time=0.0024038020833333333
EXTRACT: note_on channel=11 note=77 velocity=66 time=0
EXTRACT: note_on channel=12 note=53 velocity=85 time=0
EXTRACT: note_on channel=12 note=58 velocity=80 time=0
EXTRACT: note_on channel=12 note=62 velocity=76 time=0
EXTRACT: note_on channel=14 note=46 velocity=92 time=0
EXTRACT: note_off channel=9 note=44 velocity=0 time=0.026441822916666666
EXTRACT: note_off channel=9 note=39 velocity=0 time=0.04086463541666667
EXTRACT: note_off channel=14 note=46 velocity=0 time=0.004807604166666667
EXTRACT: note_off channel=9 note=40 velocity=0 time=0.0024038020833333333
EXTRACT: note_off channel=12 note=58 velocity=0 time=0.019230416666666666
EXTRACT: note_off channel=9 note=36 velocity=0 time=0.00721140625
EXTRACT: note_off channel=12 note=62 velocity=0 time=0
EXTRACT: note_off channel=12 note=53 velocity=0 time=0.0144228125
EXTRACT: note_on channel=14 note=58 velocity=89 time=0
EXTRACT: note_off channel=1 note=34 velocity=0 time=0.07932546875
EXTRACT: note_off channel=14 note=58 velocity=0 time=0.004807604166666667
EXTRACT: note_on channel=9 note=36 velocity=118 time=0.031249427083333333
EXTRACT: note_on channel=9 note=39 velocity=62 time=0
EXTRACT: note_on channel=9 note=40 velocity=63 time=0
EXTRACT: note_on channel=9 note=44 velocity=92 time=0
EXTRACT: note_on channel=1 note=29 velocity=73 time=0
EXTRACT: note_on channel=5 note=62 velocity=76 time=0
EXTRACT: note_on channel=5 note=65 velocity=80 time=0
EXTRACT: note_on channel=6 note=58 velocity=127 time=0
EXTRACT: note_on channel=6 note=62 velocity=108 time=0
EXTRACT: note_on channel=6 note=65 velocity=118 time=0
EXTRACT: note_on channel=14 note=46 velocity=92 time=0
EXTRACT: note_off channel=14 note=46 velocity=0 time=0.086536875
EXTRACT: note_off channel=5 note=62 velocity=0 time=0.009615208333333333
EXTRACT: note_off channel=5 note=65 velocity=0 time=0.00721140625
EXTRACT: note_off channel=9 note=46 velocity=0 time=0.009615208333333333
EXTRACT: note_on channel=14 note=58 velocity=89 time=0.0024038020833333333
EXTRACT: pitchwheel channel=2 pitch=-128 time=0.03846083333333333
EXTRACT: note_off channel=1 note=29 velocity=0 time=0.0144228125
EXTRACT: note_off channel=6 note=58 velocity=0 time=0.012019010416666667
EXTRACT: note_off channel=6 note=62 velocity=0 time=0.0024038020833333333
EXTRACT: note_off channel=6 note=65 velocity=0 time=0.004807604166666667
EXTRACT: note_off channel=14 note=58 velocity=0 time=0.0144228125
EXTRACT: note_on channel=9 note=46 velocity=63 time=0.028845625
EXTRACT: note_on channel=1 note=27 velocity=88 time=0
EXTRACT: note_off channel=2 note=80 velocity=0 time=0
EXTRACT: note_on channel=2 note=80 velocity=101 time=0
EXTRACT: note_on channel=12 note=53 velocity=80 time=0
EXTRACT: note_on channel=12 note=58 velocity=78 time=0
EXTRACT: note_on channel=12 note=62 velocity=68 time=0
EXTRACT: note_on channel=14 note=46 velocity=90 time=0
EXTRACT: note_off channel=9 note=44 velocity=0 time=0.036057031249999996
EXTRACT: note_off channel=12 note=62 velocity=0 time=0.04567223958333333
EXTRACT: note_off channel=12 note=58 velocity=0 time=0.0024038020833333333
EXTRACT: note_off channel=14 note=46 velocity=0 time=0.0024038020833333333
EXTRACT: note_off channel=12 note=53 velocity=0 time=0.012019010416666667
EXTRACT: note_on channel=14 note=58 velocity=89 time=0.016826614583333333
EXTRACT: note_off channel=9 note=36 velocity=0 time=0.02163421875
EXTRACT: pitchwheel channel=2 pitch=0 time=0
EXTRACT: pitchwheel channel=2 pitch=-128 time=0.019230416666666666
EXTRACT: pitchwheel channel=2 pitch=0 time=0.03846083333333333
EXTRACT: note_off channel=14 note=58 velocity=0 time=0.004807604166666667
EXTRACT: note_on channel=9 note=36 velocity=125 time=0.031249427083333333
EXTRACT: note_on channel=9 note=44 velocity=85 time=0
EXTRACT: note_on channel=5 note=63 velocity=80 time=0
EXTRACT: note_on channel=5 note=67 velocity=74 time=0
EXTRACT: note_on channel=12 note=53 velocity=85 time=0
EXTRACT: note_on channel=12 note=58 velocity=82 time=0
EXTRACT: note_on channel=12 note=63 velocity=82 time=0
EXTRACT: note_on channel=14 note=46 velocity=91 time=0
EXTRACT: note_off channel=7 note=58 velocity=0 time=0.05047984375
EXTRACT: pitchwheel channel=2 pitch=-128 time=0.009615208333333333
EXTRACT: note_off channel=9 note=46 velocity=0 time=0.016826614583333333
EXTRACT: pitchwheel channel=2 pitch=-640 time=0.0024038020833333333
EXTRACT: note_off channel=5 note=63 velocity=0 time=0.004807604166666667
EXTRACT: note_off channel=14 note=46 velocity=0 time=0.00721140625
EXTRACT: note_off channel=5 note=67 velocity=0 time=0.004807604166666667
EXTRACT: pitchwheel channel=2 pitch=-1280 time=0.0024038020833333333
EXTRACT: note_on channel=14 note=58 velocity=89 time=0.016826614583333333
EXTRACT: pitchwheel channel=2 pitch=-2048 time=0.0024038020833333333
EXTRACT: pitchwheel channel=2 pitch=-2176 time=0.019230416666666666
EXTRACT: pitchwheel channel=2 pitch=-2048 time=0.03846083333333333
EXTRACT: note_off channel=1 note=27 velocity=0 time=0.004807604166666667
EXTRACT: pitchwheel channel=2 pitch=-1792 time=0.0144228125
EXTRACT: note_off channel=12 note=58 velocity=0 time=0
EXTRACT: note_off channel=11 note=80 velocity=0 time=0.004807604166666667
EXTRACT: note_off channel=11 note=70 velocity=0 time=0.00721140625
EXTRACT: note_off channel=14 note=58 velocity=0 time=0
EXTRACT: note_off channel=12 note=63 velocity=0 time=0.004807604166666667
EXTRACT: pitchwheel channel=2 pitch=-1152 time=0.004807604166666667
EXTRACT: note_on channel=9 note=36 velocity=120 time=0.0144228125
EXTRACT: note_on channel=9 note=46 velocity=71 time=0
EXTRACT: note_on channel=1 note=27 velocity=95 time=0
EXTRACT: note_on channel=5 note=63 velocity=71 time=0
EXTRACT: note_on channel=5 note=68 velocity=78 time=0
EXTRACT: note_on channel=6 note=58 velocity=115 time=0
EXTRACT: note_on channel=6 note=63 velocity=111 time=0
EXTRACT: note_on channel=6 note=68 velocity=111 time=0
EXTRACT: note_on channel=14 note=46 velocity=90 time=0
EXTRACT: pitchwheel channel=2 pitch=0 time=0.0024038020833333333
EXTRACT: note_off channel=9 note=36 velocity=64 time=0.05528744791666666
EXTRACT: note_off channel=12 note=53 velocity=0 time=0.0024038020833333333
EXTRACT: note_off channel=11 note=77 velocity=0 time=0.004807604166666667
EXTRACT: note_off channel=9 note=44 velocity=0 time=0.024038020833333333
EXTRACT: note_off channel=9 note=40 velocity=0 time=0.0024038020833333333
EXTRACT: note_off channel=14 note=46 velocity=0 time=0
EXTRACT: note_off channel=9 note=36 velocity=0 time=0.0024038020833333333
EXTRACT: note_off channel=9 note=39 velocity=0 time=0
EXTRACT: note_on channel=14 note=58 velocity=89 time=0.02163421875
EXTRACT: note_off channel=14 note=58 velocity=0 time=0.09374828125
EXTRACT: note_off channel=7 note=68 velocity=0 time=0.0144228125
EXTRACT: note_on channel=9 note=36 velocity=125 time=0.00721140625
EXTRACT: note_on channel=9 note=39 velocity=66 time=0
EXTRACT: note_on channel=9 note=40 velocity=65 time=0
EXTRACT: note_on channel=9 note=44 velocity=101 time=0
EXTRACT: note_on channel=7 note=67 velocity=114 time=0
EXTRACT: note_on channel=11 note=70 velocity=82 time=0
EXTRACT: note_on channel=11 note=79 velocity=98 time=0
EXTRACT: note_on channel=12 note=53 velocity=82 time=0
EXTRACT: note_on channel=12 note=58 velocity=88 time=0
EXTRACT: note_on channel=12 note=63 velocity=82 time=0
EXTRACT: note_on channel=14 note=46 velocity=92 time=0
EXTRACT: note_off channel=14 note=46 velocity=0 time=0.09615208333333333
EXTRACT: note_off channel=9 note=46 velocity=0 time=0.00721140625
EXTRACT: note_off channel=5 note=63 velocity=0 time=0.012019010416666667
EXTRACT: note_on channel=14 note=58 velocity=89 time=0
EXTRACT: note_off channel=5 note=68 velocity=0 time=0.016826614583333333
EXTRACT: note_off channel=12 note=53 velocity=0 time=0.026441822916666666
EXTRACT: note_off channel=12 note=58 velocity=0 time=0.04086463541666667
EXTRACT: note_off channel=12 note=63 velocity=0 time=0.016826614583333333
EXTRACT: note_off channel=14 note=58 velocity=0 time=0
EXTRACT: note_off channel=1 note=27 velocity=0 time=0.012019010416666667
EXTRACT: note_on channel=9 note=46 velocity=70 time=0.0024038020833333333
EXTRACT: note_on channel=1 note=31 velocity=62 time=0
EXTRACT: note_on channel=12 note=53 velocity=82 time=0
EXTRACT: note_on channel=12 note=58 velocity=73 time=0
EXTRACT: note_on channel=12 note=62 velocity=73 time=0
EXTRACT: note_on channel=14 note=46 velocity=92 time=0
EXTRACT: note_off channel=6 note=63 velocity=0 time=0.00721140625
EXTRACT: note_off channel=6 note=68 velocity=0 time=0.0144228125
EXTRACT: note_off channel=6 note=58 velocity=0 time=0.0024038020833333333
EXTRACT: note_off channel=9 note=44 velocity=0 time=0.060095052083333336
EXTRACT: note_off channel=12 note=62 velocity=0 time=0.0024038020833333333
EXTRACT: note_off channel=9 note=36 velocity=0 time=0.004807604166666667
EXTRACT: note_off channel=14 note=46 velocity=0 time=0.0024038020833333333
EXTRACT: note_off channel=12 note=58 velocity=0 time=0.016826614583333333
EXTRACT: note_off channel=12 note=53 velocity=0 time=0
EXTRACT: note_on channel=14 note=58 velocity=88 time=0.004807604166666667
EXTRACT: note_off channel=9 note=46 velocity=0 time=0.0432684375
EXTRACT: note_off channel=11 note=70 velocity=0 time=0.00721140625
EXTRACT: note_off channel=1 note=31 velocity=0 time=0.0144228125
EXTRACT: note_off channel=14 note=58 velocity=0 time=0.036057031249999996
EXTRACT: note_off channel=11 note=79 velocity=0 time=0.004807604166666667
EXTRACT: note_on channel=9 note=36 velocity=125 time=0.009615208333333333
EXTRACT: note_on channel=9 note=44 velocity=111 time=0
EXTRACT: note_on channel=1 note=34 velocity=82 time=0
EXTRACT: note_on channel=7 note=68 velocity=114 time=0
EXTRACT: note_on channel=11 note=70 velocity=91 time=0
EXTRACT: note_on channel=11 note=80 velocity=91 time=0
EXTRACT: note_on channel=14 note=46 velocity=92 time=0
EXTRACT: note_off channel=7 note=67 velocity=0 time=0.048076041666666666
EXTRACT: note_off channel=14 note=46 velocity=0 time=0.04567223958333333
EXTRACT: note_on channel=14 note=58 velocity=89 time=0.02163421875
EXTRACT: note_off channel=11 note=70 velocity=0 time=0.0432684375
EXTRACT: note_off channel=7 note=68 velocity=0 time=0.0432684375
EXTRACT: note_off channel=11 note=80 velocity=0 time=0.012019010416666667
EXTRACT: note_off channel=14 note=58 velocity=0 time=0.00721140625
EXTRACT: note_on channel=9 note=46 velocity=75 time=0.009615208333333333
EXTRACT: note_on channel=5 note=62 velocity=78 time=0
EXTRACT: note_on channel=5 note=65 velocity=85 time=0
EXTRACT: note_on channel=6 note=58 velocity=115 time=0
EXTRACT: note_on channel=6 note=62 velocity=100 time=0
EXTRACT: note_on channel=6 note=65 velocity=105 time=0
EXTRACT: note_on channel=7 note=67 velocity=117 time=0
EXTRACT: note_on channel=11 note=70 velocity=73 time=0
EXTRACT: note_on channel=11 note=79 velocity=88 time=0
EXTRACT: note_on channel=12 note=53 velocity=82 time=0
EXTRACT: note_on channel=12 note=58 velocity=82 time=0
EXTRACT: note_on channel=12 note=62 velocity=73 time=0
EXTRACT: note_on channel=14 note=46 velocity=91 time=0
EXTRACT: note_off channel=9 note=44 velocity=0 time=0.026441822916666666
EXTRACT: note_off channel=9 note=39 velocity=0 time=0.012019010416666667
EXTRACT: note_off channel=9 note=40 velocity=0 time=0.00721140625
EXTRACT: note_off channel=5 note=62 velocity=0 time=0.02163421875
EXTRACT: note_off channel=6 note=65 velocity=0 time=0.00721140625
EXTRACT: note_off channel=5 note=65 velocity=0 time=0.0024038020833333333
EXTRACT: note_off channel=6 note=62 velocity=0 time=0.004807604166666667
EXTRACT: note_off channel=6 note=58 velocity=0 time=0.0024038020833333333
EXTRACT: note_off channel=14 note=46 velocity=0 time=0
EXTRACT: note_off channel=12 note=58 velocity=0 time=0.012019010416666667
EXTRACT: note_off channel=12 note=62 velocity=0 time=0.0024038020833333333
EXTRACT: note_off channel=9 note=36 velocity=0 time=0.004807604166666667
EXTRACT: note_off channel=12 note=53 velocity=0 time=0.0024038020833333333
EXTRACT: note_on channel=14 note=58 velocity=89 time=0.009615208333333333
EXTRACT: note_off channel=14 note=58 velocity=0 time=0.10576729166666667
EXTRACT: note_off channel=1 note=34 velocity=0 time=0.004807604166666667
EXTRACT: note_on channel=9 note=36 velocity=122 time=0.004807604166666667
EXTRACT: note_on channel=9 note=39 velocity=65 time=0
EXTRACT: note_on channel=9 note=40 velocity=65 time=0
EXTRACT: note_on channel=9 note=44 velocity=92 time=0
EXTRACT: note_on channel=1 note=29 velocity=76 time=0
EXTRACT: note_on channel=14 note=46 velocity=92 time=0
EXTRACT: note_off channel=14 note=46 velocity=0 time=0.09855588541666667
EXTRACT: note_off channel=11 note=70 velocity=0 time=0.009615208333333333
EXTRACT: note_off channel=9 note=46 velocity=0 time=0.004807604166666667
EXTRACT: note_on channel=14 note=58 velocity=89 time=0.0024038020833333333
EXTRACT: note_off channel=11 note=79 velocity=0 time=0.0432684375
EXTRACT: note_off channel=7 note=67 velocity=0 time=0.031249427083333333
EXTRACT: note_off channel=2 note=80 velocity=0 time=0.019230416666666666
EXTRACT: note_off channel=14 note=58 velocity=0 time=0
EXTRACT: note_off channel=1 note=29 velocity=0 time=0.016826614583333333
EXTRACT: note_on channel=9 note=46 velocity=63 time=0.004807604166666667
EXTRACT: note_on channel=1 note=27 velocity=91 time=0
EXTRACT: note_on channel=2 note=70 velocity=82 time=0
EXTRACT: note_on channel=5 note=63 velocity=88 time=0
EXTRACT: note_on channel=5 note=67 velocity=85 time=0
EXTRACT: note_on channel=6 note=58 velocity=102 time=0
EXTRACT: note_on channel=6 note=62 velocity=100 time=0
EXTRACT: note_on channel=6 note=65 velocity=108 time=0
EXTRACT: note_on channel=7 note=65 velocity=101 time=0
EXTRACT: note_on channel=11 note=70 velocity=109 time=0
EXTRACT: note_on channel=11 note=77 velocity=88 time=0
EXTRACT: note_on channel=12 note=53 velocity=88 time=0
EXTRACT: note_on channel=12 note=58 velocity=78 time=0
EXTRACT: note_on channel=12 note=63 velocity=74 time=0
EXTRACT: note_on channel=14 note=46 velocity=91 time=0
EXTRACT: note_off channel=9 note=44 velocity=0 time=0.036057031249999996
EXTRACT: note_off channel=6 note=62 velocity=0 time=0.012019010416666667
EXTRACT: note_off channel=6 note=65 velocity=0 time=0.0024038020833333333
EXTRACT: note_off channel=5 note=63 velocity=0 time=0.0144228125
EXTRACT: note_off channel=6 note=58 velocity=0 time=0.012019010416666667
EXTRACT: note_off channel=5 note=67 velocity=0 time=0.004807604166666667
EXTRACT: note_off channel=14 note=46 velocity=0 time=0.00721140625
EXTRACT: note_off channel=12 note=58 velocity=0 time=0.02163421875
EXTRACT: note_on channel=14 note=58 velocity=89 time=0.004807604166666667
EXTRACT: note_off channel=9 note=36 velocity=0 time=0.0024038020833333333
EXTRACT: note_off channel=12 note=63 velocity=0 time=0.004807604166666667
EXTRACT: note_off channel=12 note=53 velocity=0 time=0
EXTRACT: note_off channel=14 note=58 velocity=0 time=0.08894067708333334
EXTRACT: note_on channel=9 note=36 velocity=125 time=0.019230416666666666
EXTRACT: note_on channel=9 note=44 velocity=85 time=0
EXTRACT: note_on channel=14 note=46 velocity=92 time=0
EXTRACT: note_off channel=9 note=46 velocity=0 time=0.07692166666666667
EXTRACT: note_off channel=14 note=46 velocity=0 time=0.012019010416666667
EXTRACT: note_off channel=1 note=27 velocity=0 time=0.019230416666666666
EXTRACT: note_on channel=14 note=58 velocity=88 time=0.00721140625
EXTRACT: note_off channel=14 note=58 velocity=0 time=0.10336348958333333
EXTRACT: note_on channel=9 note=36 velocity=120 time=0.012019010416666667
EXTRACT: note_on channel=9 note=46 velocity=71 time=0
EXTRACT: note_on channel=1 note=27 velocity=95 time=0
EXTRACT: note_on channel=5 note=63 velocity=82 time=0
EXTRACT: note_on channel=5 note=68 velocity=82 time=0
EXTRACT: note_on channel=6 note=58 velocity=108 time=0
EXTRACT: note_on channel=6 note=63 velocity=111 time=0
EXTRACT: note_on channel=6 note=68 velocity=108 time=0
EXTRACT: note_on channel=12 note=53 velocity=85 time=0
EXTRACT: note_on channel=12 note=58 velocity=88 time=0
EXTRACT: note_on channel=12 note=63 velocity=88 time=0
EXTRACT: note_on channel=14 note=46 velocity=91 time=0
EXTRACT: note_off channel=9 note=36 velocity=64 time=0.05769125
EXTRACT: note_off channel=9 note=40 velocity=0 time=0.012019010416666667
EXTRACT: note_off channel=9 note=39 velocity=0 time=0
EXTRACT: note_off channel=9 note=44 velocity=0 time=0.019230416666666666
EXTRACT: note_off channel=14 note=46 velocity=0 time=0.004807604166666667
EXTRACT: note_off channel=9 note=36 velocity=0 time=0.00721140625
EXTRACT: note_on channel=14 note=58 velocity=89 time=0.0144228125
EXTRACT: note_off channel=14 note=58 velocity=0 time=0.1009596875
EXTRACT: note_on channel=9 note=36 velocity=125 time=0.0144228125
EXTRACT: note_on channel=9 note=39 velocity=65 time=0
EXTRACT: note_on channel=9 note=40 velocity=64 time=0
EXTRACT: note_on channel=9 note=44 velocity=101 time=0
EXTRACT: note_on channel=14 note=46 velocity=92 time=0
EXTRACT: note_off channel=14 note=46 velocity=0 time=0.09134447916666666
EXTRACT: note_off channel=9 note=46 velocity=0 time=0.012019010416666667
EXTRACT: note_on channel=14 note=58 velocity=89 time=0.012019010416666667
EXTRACT: note_off channel=12 note=58 velocity=0 time=0.0144228125
EXTRACT: note_off channel=12 note=63 velocity=0 time=0.009615208333333333
EXTRACT: note_off channel=12 note=53 velocity=0 time=0
EXTRACT: note_off channel=14 note=58 velocity=0 time=0.07211406249999999
EXTRACT: note_on channel=9 note=46 velocity=70 time=0.019230416666666666
EXTRACT: note_on channel=1 note=31 velocity=85 time=0
EXTRACT: note_on channel=12 note=53 velocity=78 time=0
EXTRACT: note_on channel=12 note=58 velocity=80 time=0
EXTRACT: note_on channel=12 note=63 velocity=82 time=0
EXTRACT: note_on channel=14 note=46 velocity=91 time=0
EXTRACT: note_off channel=1 note=27 velocity=0 time=0.00721140625
EXTRACT: note_off channel=5 note=63 velocity=0 time=0.036057031249999996
EXTRACT: note_off channel=5 note=68 velocity=0 time=0.016826614583333333
EXTRACT: note_off channel=6 note=63 velocity=0 time=0.00721140625
EXTRACT: note_off channel=9 note=44 velocity=0 time=0.016826614583333333
EXTRACT: note_off channel=6 note=68 velocity=0 time=0
EXTRACT: note_off channel=6 note=58 velocity=0 time=0.0024038020833333333
EXTRACT: note_off channel=2 note=70 velocity=0 time=0.0024038020833333333
EXTRACT: note_off channel=12 note=58 velocity=0 time=0
EXTRACT: note_off channel=14 note=46 velocity=0 time=0.004807604166666667
EXTRACT: note_off channel=12 note=63 velocity=0 time=0.012019010416666667
EXTRACT: note_off channel=12 note=53 velocity=0 time=0
EXTRACT: note_off channel=9 note=36 velocity=0 time=0.0024038020833333333
EXTRACT: note_on channel=14 note=58 velocity=90 time=0.00721140625
EXTRACT: note_off channel=9 note=46 velocity=0 time=0.0432684375
EXTRACT: note_off channel=1 note=31 velocity=0 time=0.031249427083333333
EXTRACT: note_off channel=14 note=58 velocity=0 time=0.019230416666666666
EXTRACT: note_on channel=9 note=35 velocity=120 time=0.02163421875
EXTRACT: note_on channel=9 note=36 velocity=122 time=0
EXTRACT: note_on channel=9 note=44 velocity=111 time=0
EXTRACT: note_on channel=9 note=49 velocity=109 time=0
EXTRACT: note_on channel=9 note=55 velocity=114 time=0
EXTRACT: note_on channel=1 note=34 velocity=104 time=0
EXTRACT: note_on channel=2 note=77 velocity=96 time=0
EXTRACT: note_on channel=7 note=58 velocity=117 time=0
EXTRACT: note_on channel=12 note=53 velocity=88 time=0
EXTRACT: note_on channel=12 note=58 velocity=78 time=0
EXTRACT: note_on channel=12 note=62 velocity=76 time=0
EXTRACT: note_on channel=14 note=46 velocity=94 time=0
EXTRACT: note_off channel=9 note=55 velocity=0 time=0.086536875
EXTRACT: note_off channel=14 note=46 velocity=0 time=0
EXTRACT: note_off channel=9 note=35 velocity=0 time=0.0024038020833333333
EXTRACT: note_off channel=12 note=58 velocity=0 time=0.00721140625
EXTRACT: note_off channel=9 note=49 velocity=0 time=0.004807604166666667
EXTRACT: note_off channel=12 note=62 velocity=0 time=0.012019010416666667
EXTRACT: note_on channel=14 note=58 velocity=90 time=0.0024038020833333333
EXTRACT: note_off channel=12 note=53 velocity=0 time=0.00721140625
EXTRACT: note_off channel=14 note=58 velocity=0 time=0.10576729166666667
EXTRACT: note_on channel=9 note=35 velocity=120 time=0.0024038020833333333
EXTRACT: note_on channel=9 note=46 velocity=75 time=0
EXTRACT: note_on channel=5 note=62 velocity=73 time=0
EXTRACT: note_on channel=5 note=65 velocity=71 time=0
EXTRACT: note_on channel=14 note=46 velocity=92 time=0
EXTRACT: pitchwheel channel=2 pitch=-128 time=0.024038020833333333
EXTRACT: note_off channel=9 note=44 velocity=0 time=0.0024038020833333333
EXTRACT: pitchwheel channel=2 pitch=-1280 time=0.016826614583333333
EXTRACT: note_off channel=9 note=39 velocity=0 time=0.004807604166666667
EXTRACT: note_off channel=9 note=40 velocity=0 time=0.004807604166666667
EXTRACT: note_off channel=5 note=65 velocity=0 time=0
EXTRACT: pitchwheel channel=2 pitch=-2688 time=0.012019010416666667
EXTRACT: note_off channel=5 note=62 velocity=0 time=0
EXTRACT: note_off channel=14 note=46 velocity=0 time=0.00721140625
EXTRACT: pitchwheel channel=2 pitch=-3456 time=0.009615208333333333
EXTRACT: note_off channel=9 note=36 velocity=0 time=0.004807604166666667
EXTRACT: pitchwheel channel=2 pitch=-3584 time=0.016826614583333333
EXTRACT: note_on channel=14 note=58 velocity=89 time=0.012019010416666667
EXTRACT: pitchwheel channel=2 pitch=-3456 time=0.00721140625
EXTRACT: pitchwheel channel=2 pitch=-3328 time=0.019230416666666666
EXTRACT: pitchwheel channel=2 pitch=-2944 time=0.019230416666666666
EXTRACT: pitchwheel channel=2 pitch=-2432 time=0.019230416666666666
EXTRACT: note_off channel=1 note=34 velocity=0 time=0.0144228125
EXTRACT: pitchwheel channel=2 pitch=0 time=0.004807604166666667
EXTRACT: note_off channel=14 note=58 velocity=0 time=0
EXTRACT: note_on channel=9 note=36 velocity=118 time=0.031249427083333333
EXTRACT: note_on channel=9 note=39 velocity=71 time=0
EXTRACT: note_on channel=9 note=40 velocity=72 time=0
EXTRACT: note_on channel=9 note=44 velocity=92 time=0
EXTRACT: note_on channel=1 note=29 velocity=73 time=0
EXTRACT: note_on channel=5 note=62 velocity=67 time=0
EXTRACT: note_on channel=5 note=65 velocity=82 time=0
EXTRACT: note_on channel=6 note=58 velocity=127 time=0
EXTRACT: note_on channel=6 note=62 velocity=108 time=0
EXTRACT: note_on channel=6 note=65 velocity=118 time=0
EXTRACT: note_on channel=12 note=53 velocity=80 time=0
EXTRACT: note_on channel=12 note=58 velocity=73 time=0
EXTRACT: note_on channel=12 note=62 velocity=73 time=0
EXTRACT: note_on channel=14 note=46 velocity=92 time=0
EXTRACT: note_off channel=9 note=35 velocity=0 time=0.019230416666666666
EXTRACT: note_off channel=14 note=46 velocity=0 time=0.06730645833333333
EXTRACT: note_off channel=9 note=40 velocity=0 time=0.00721140625
EXTRACT: note_off channel=12 note=62 velocity=0 time=0.009615208333333333
EXTRACT: note_off channel=5 note=62 velocity=0 time=0.0024038020833333333
EXTRACT: note_off channel=9 note=46 velocity=0 time=0.00721140625
EXTRACT: note_off channel=12 note=58 velocity=0 time=0
EXTRACT: note_on channel=14 note=58 velocity=89 time=0.0024038020833333333
EXTRACT: note_off channel=5 note=65 velocity=0 time=0.004807604166666667
EXTRACT: note_off channel=12 note=53 velocity=0 time=0.0024038020833333333
EXTRACT: note_off channel=1 note=29 velocity=0 time=0.04567223958333333
EXTRACT: note_off channel=6 note=58 velocity=0 time=0.012019010416666667
EXTRACT: note_off channel=6 note=62 velocity=0 time=0.0024038020833333333
EXTRACT: note_off channel=6 note=65 velocity=0 time=0.004807604166666667
EXTRACT: note_off channel=14 note=58 velocity=0 time=0.0144228125
EXTRACT: note_off channel=11 note=77 velocity=0 time=0.026441822916666666
EXTRACT: note_on channel=9 note=46 velocity=63 time=0.0024038020833333333
EXTRACT: note_on channel=1 note=27 velocity=88 time=0
EXTRACT: note_on channel=7 note=53 velocity=108 time=0
EXTRACT: note_on channel=12 note=53 velocity=76 time=0
EXTRACT: note_on channel=12 note=58 velocity=74 time=0
EXTRACT: note_on channel=12 note=63 velocity=74 time=0
EXTRACT: note_on channel=14 note=46 velocity=90 time=0
EXTRACT: note_off channel=11 note=70 velocity=0 time=0.0024038020833333333
EXTRACT: note_off channel=9 note=44 velocity=0 time=0.033653229166666666
EXTRACT: note_off channel=14 note=46 velocity=0 time=0.05047984375
EXTRACT: control_change channel=14 control=1 value=24 time=0
EXTRACT: note_off channel=9 note=36 velocity=0 time=0.019230416666666666
EXTRACT: note_off channel=12 note=53 velocity=0 time=0.00721140625
EXTRACT: note_on channel=14 note=58 velocity=89 time=0.0024038020833333333
EXTRACT: control_change channel=14 control=1 value=32 time=0.009615208333333333
EXTRACT: note_off channel=12 note=58 velocity=0 time=0.00721140625
EXTRACT: note_on channel=9 note=40 velocity=100 time=0.0024038020833333333
EXTRACT: note_off channel=12 note=63 velocity=0 time=0.009615208333333333
EXTRACT: control_change channel=14 control=1 value=38 time=0.019230416666666666
EXTRACT: note_off channel=14 note=58 velocity=0 time=0.036057031249999996
EXTRACT: control_change channel=14 control=1 value=44 time=0.0024038020833333333
EXTRACT: note_off channel=9 note=40 velocity=0 time=0.028845625
EXTRACT: note_on channel=9 note=35 velocity=116 time=0
EXTRACT: note_on channel=9 note=36 velocity=125 time=0
EXTRACT: note_on channel=9 note=44 velocity=85 time=0
EXTRACT: note_on channel=5 note=63 velocity=82 time=0
EXTRACT: note_on channel=5 note=67 velocity=85 time=0
EXTRACT: note_on channel=14 note=46 velocity=91 time=0
EXTRACT: control_change channel=14 control=1 value=51 time=0.012019010416666667
EXTRACT: control_change channel=14 control=1 value=57 time=0.03846083333333333
EXTRACT: note_off channel=9 note=46 velocity=0 time=0.026441822916666666
EXTRACT: note_off channel=5 note=63 velocity=0 time=0.00721140625
EXTRACT: control_change channel=14 control=1 value=62 time=0.004807604166666667
EXTRACT: note_off channel=5 note=67 velocity=0 time=0.0024038020833333333
EXTRACT: note_off channel=14 note=46 velocity=0 time=0
EXTRACT: note_off channel=9 note=35 velocity=0 time=0.012019010416666667
EXTRACT: note_on channel=14 note=58 velocity=89 time=0.012019010416666667
EXTRACT: control_change channel=14 control=1 value=65 time=0.012019010416666667
EXTRACT: control_change channel=14 control=1 value=67 time=0.03846083333333333
EXTRACT: note_off channel=1 note=27 velocity=0 time=0.0144228125
EXTRACT: note_off channel=14 note=58 velocity=0 time=0.026441822916666666
EXTRACT: control_change channel=14 control=1 value=68 time=0.016826614583333333
EXTRACT: note_on channel=9 note=36 velocity=120 time=0.00721140625
EXTRACT: note_on channel=9 note=35 velocity=110 time=0
EXTRACT: note_on channel=9 note=46 velocity=71 time=0
EXTRACT: note_on channel=1 note=27 velocity=95 time=0
EXTRACT: note_on channel=5 note=63 velocity=78 time=0
EXTRACT: note_on channel=5 note=68 velocity=78 time=0
EXTRACT: note_on channel=6 note=58 velocity=115 time=0
EXTRACT: note_on channel=6 note=63 velocity=111 time=0
EXTRACT: note_on channel=6 note=68 velocity=111 time=0
EXTRACT: note_on channel=12 note=53 velocity=71 time=0
EXTRACT: note_on channel=12 note=58 velocity=78 time=0
EXTRACT: note_on channel=12 note=63 velocity=78 time=0
EXTRACT: note_on channel=14 note=46 velocity=90 time=0
EXTRACT: note_off channel=9 note=39 velocity=0 time=0.0144228125
EXTRACT: control_change channel=14 control=1 value=70 time=0.016826614583333333
EXTRACT: note_off channel=9 note=36 velocity=64 time=0.026441822916666666
EXTRACT: control_change channel=14 control=1 value=73 time=0.0144228125
EXTRACT: note_off channel=9 note=36 velocity=0 time=0.0144228125
EXTRACT: note_off channel=9 note=44 velocity=0 time=0.0024038020833333333
EXTRACT: note_off channel=14 note=46 velocity=0 time=0.0024038020833333333
EXTRACT: control_change channel=14 control=1 value=77 time=0.019230416666666666
EXTRACT: note_on channel=14 note=58 velocity=89 time=0.004807604166666667
EXTRACT: control_change channel=14 control=1 value=80 time=0.033653229166666666
EXTRACT: control_change channel=14 control=1 value=83 time=0.03846083333333333
EXTRACT: note_off channel=14 note=58 velocity=0 time=0.02163421875
EXTRACT: control_change channel=14 control=1 value=85 time=0.016826614583333333
EXTRACT: note_on channel=9 note=36 velocity=122 time=0.004807604166666667
EXTRACT: note_on channel=9 note=39 velocity=62 time=0
EXTRACT: note_on channel=9 note=40 velocity=68 time=0
EXTRACT: note_on channel=9 note=44 velocity=101 time=0
EXTRACT: note_on channel=14 note=46 velocity=92 time=0
EXTRACT: note_off channel=9 note=35 velocity=0 time=0.00721140625
EXTRACT: control_change channel=14 control=1 value=87 time=0.026441822916666666
EXTRACT: control_change channel=14 control=1 value=88 time=0.03846083333333333
EXTRACT: note_off channel=14 note=46 velocity=0 time=0.024038020833333333
EXTRACT: note_off channel=9 note=46 velocity=0 time=0.00721140625
EXTRACT: note_off channel=12 note=53 velocity=0 time=0.004807604166666667
EXTRACT: control_change channel=14 control=1 value=91 time=0.0024038020833333333
EXTRACT: note_on channel=14 note=58 velocity=89 time=0.004807604166666667
EXTRACT: note_off channel=12 note=58 velocity=0 time=0.00721140625
EXTRACT: note_off channel=12 note=63 velocity=0 time=0.0144228125
EXTRACT: note_off channel=9 note=40 velocity=0 time=0.004807604166666667
EXTRACT: control_change channel=14 control=1 value=93 time=0.00721140625
EXTRACT: control_change channel=14 control=1 value=94 time=0.03846083333333333
EXTRACT: note_off channel=14 note=58 velocity=0 time=0.028845625
EXTRACT: control_change channel=14 control=1 value=96 time=0.009615208333333333
EXTRACT: note_off channel=1 note=27 velocity=0 time=0.0024038020833333333
EXTRACT: note_on channel=9 note=35 velocity=105 time=0.0024038020833333333
EXTRACT: note_on channel=9 note=46 velocity=70 time=0
EXTRACT: note_on channel=1 note=31 velocity=62 time=0
EXTRACT: note_on channel=12 note=53 velocity=71 time=0
EXTRACT: note_on channel=12 note=58 velocity=73 time=0
EXTRACT: note_on channel=12 note=63 velocity=68 time=0
EXTRACT: note_on channel=14 note=46 velocity=92 time=0
EXTRACT: note_off channel=5 note=63 velocity=0 time=0.004807604166666667
EXTRACT: note_off channel=6 note=63 velocity=0 time=0.0024038020833333333
EXTRACT: note_off channel=5 note=68 velocity=0 time=0.0024038020833333333
EXTRACT: note_off channel=6 note=68 velocity=0 time=0.012019010416666667
EXTRACT: note_off channel=6 note=58 velocity=0 time=0.0024038020833333333
EXTRACT: control_change channel=14 control=1 value=97 time=0.009615208333333333
EXTRACT: note_off channel=9 note=35 velocity=0 time=0.036057031249999996
EXTRACT: note_off channel=9 note=44 velocity=0 time=0.0144228125
EXTRACT: note_off channel=14 note=46 velocity=0 time=0.009615208333333333
EXTRACT: control_change channel=14 control=1 value=98 time=0
EXTRACT: note_off channel=9 note=36 velocity=0 time=0.00721140625
EXTRACT: note_on channel=14 note=58 velocity=88 time=0.0144228125
EXTRACT: note_off channel=12 note=53 velocity=0 time=0.00721140625
EXTRACT: note_off channel=2 note=77 velocity=0 time=0.009615208333333333
EXTRACT: note_on channel=9 note=40 velocity=91 time=0.0024038020833333333
EXTRACT: note_off channel=12 note=58 velocity=0 time=0
EXTRACT: note_off channel=9 note=46 velocity=0 time=0.024038020833333333
EXTRACT: note_off channel=12 note=63 velocity=0 time=0.004807604166666667
EXTRACT: control_change channel=14 control=1 value=97 time=0.004807604166666667
EXTRACT: note_off channel=1 note=31 velocity=0 time=0.012019010416666667
EXTRACT: note_off channel=9 note=40 velocity=0 time=0.028845625
EXTRACT: note_off channel=14 note=58 velocity=0 time=0.00721140625
EXTRACT: note_on channel=9 note=35 velocity=120 time=0.0144228125
EXTRACT: note_on channel=9 note=36 velocity=122 time=0
EXTRACT: note_on channel=9 note=44 velocity=111 time=0
EXTRACT: note_on channel=1 note=34 velocity=82 time=0
EXTRACT: note_on channel=2 note=77 velocity=107 time=0
EXTRACT: note_on channel=7 note=60 velocity=117 time=0
EXTRACT: note_on channel=11 note=65 velocity=104 time=0
EXTRACT: note_on channel=11 note=70 velocity=95 time=0
EXTRACT: note_on channel=11 note=72 velocity=91 time=0
EXTRACT: note_on channel=11 note=77 velocity=91 time=0
EXTRACT: note_on channel=12 note=53 velocity=74 time=0
EXTRACT: note_on channel=12 note=58 velocity=73 time=0
EXTRACT: note_on channel=12 note=62 velocity=71 time=0
EXTRACT: note_on channel=14 note=46 velocity=92 time=0
EXTRACT: note_on channel=14 note=74 velocity=108 time=0
EXTRACT: note_on channel=14 note=77 velocity=108 time=0
EXTRACT: control_change channel=14 control=1 value=98 time=0.07211406249999999
EXTRACT: note_off channel=9 note=35 velocity=0 time=0.0144228125
EXTRACT: note_off channel=12 note=58 velocity=0 time=0.00721140625
EXTRACT: note_off channel=14 note=46 velocity=0 time=0
EXTRACT: note_off channel=12 note=62 velocity=0 time=0.012019010416666667
EXTRACT: note_off channel=12 note=53 velocity=0 time=0.004807604166666667
EXTRACT: control_change channel=14 control=1 value=99 time=0.0024038020833333333
EXTRACT: note_on channel=14 note=58 velocity=89 time=0.0024038020833333333
EXTRACT: control_change channel=14 control=1 value=102 time=0.036057031249999996
EXTRACT: control_change channel=14 control=1 value=103 time=0.03846083333333333
EXTRACT: note_off channel=14 note=58 velocity=0 time=0.031249427083333333
EXTRACT: control_change channel=14 control=1 value=104 time=0.00721140625
EXTRACT: note_on channel=9 note=35 velocity=123 time=0.0024038020833333333
EXTRACT: note_on channel=9 note=46 velocity=75 time=0
EXTRACT: note_on channel=5 note=62 velocity=76 time=0
EXTRACT: note_on channel=5 note=65 velocity=85 time=0
EXTRACT: note_on channel=6 note=58 velocity=115 time=0
EXTRACT: note_on channel=6 note=62 velocity=100 time=0
EXTRACT: note_on channel=6 note=65 velocity=105 time=0
EXTRACT: note_on channel=14 note=46 velocity=91 time=0
EXTRACT: pitchwheel channel=2 pitch=-640 time=0.009615208333333333
EXTRACT: note_off channel=9 note=44 velocity=0 time=0.016826614583333333
EXTRACT: pitchwheel channel=2 pitch=-2304 time=0
EXTRACT: control_change channel=14 control=1 value=105 time=0.009615208333333333
EXTRACT: pitchwheel channel=2 pitch=-3968 time=0.012019010416666667
EXTRACT: pitchwheel channel=2 pitch=-4608 time=0.019230416666666666
EXTRACT: note_off channel=6 note=65 velocity=0 time=0.00721140625
EXTRACT: control_change channel=14 control=1 value=106 time=0
EXTRACT: note_off channel=5 note=65 velocity=0 time=0.0024038020833333333
EXTRACT: note_off channel=6 note=62 velocity=0 time=0.004807604166666667
EXTRACT: note_off channel=5 note=62 velocity=0 time=0.0024038020833333333
EXTRACT: note_off channel=6 note=58 velocity=0 time=0
EXTRACT: note_off channel=14 note=46 velocity=0 time=0
EXTRACT: pitchwheel channel=2 pitch=-4864 time=0.0024038020833333333
EXTRACT: note_off channel=9 note=39 velocity=0 time=0.00721140625
EXTRACT: note_off channel=9 note=36 velocity=0 time=0.00721140625
EXTRACT: pitchwheel channel=2 pitch=-4736 time=0.004807604166666667
EXTRACT: note_on channel=14 note=58 velocity=89 time=0.009615208333333333
EXTRACT: pitchwheel channel=2 pitch=-4608 time=0.009615208333333333
EXTRACT: control_change channel=14 control=1 value=108 time=0.00721140625
EXTRACT: pitchwheel channel=2 pitch=-4096 time=0.012019010416666667
EXTRACT: pitchwheel channel=2 pitch=0 time=0.019230416666666666
EXTRACT: control_change channel=14 control=1 value=109 time=0.00721140625
EXTRACT: note_off channel=14 note=58 velocity=0 time=0.05047984375
EXTRACT: note_off channel=1 note=34 velocity=0 time=0.004807604166666667
EXTRACT: control_change channel=14 control=1 value=110 time=0.0024038020833333333
EXTRACT: note_on channel=9 note=36 velocity=122 time=0.0024038020833333333
EXTRACT: note_on channel=9 note=39 velocity=66 time=0
EXTRACT: note_on channel=9 note=40 velocity=66 time=0
EXTRACT: note_on channel=9 note=44 velocity=92 time=0
EXTRACT: note_on channel=1 note=29 velocity=76 time=0
EXTRACT: note_on channel=12 note=53 velocity=82 time=0
EXTRACT: note_on channel=12 note=58 velocity=78 time=0
EXTRACT: note_on channel=12 note=62 velocity=73 time=0
EXTRACT: note_on channel=14 note=46 velocity=92 time=0
EXTRACT: note_off channel=9 note=35 velocity=0 time=0.026441822916666666
EXTRACT: control_change channel=14 control=1 value=111 time=0.009615208333333333
EXTRACT: note_off channel=9 note=40 velocity=0 time=0.05047984375
EXTRACT: control_change channel=14 control=1 value=114 time=0.009615208333333333
EXTRACT: note_off channel=14 note=46 velocity=0 time=0.0024038020833333333
EXTRACT: note_off channel=9 note=46 velocity=0 time=0.0144228125
EXTRACT: note_on channel=14 note=58 velocity=89 time=0.0024038020833333333
EXTRACT: control_change channel=14 control=1 value=117 time=0.019230416666666666
EXTRACT: note_off channel=12 note=62 velocity=0 time=0.0144228125
EXTRACT: note_off channel=12 note=58 velocity=0 time=0
EXTRACT: note_off channel=12 note=53 velocity=0 time=0
EXTRACT: control_change channel=14 control=1 value=121 time=0.024038020833333333
EXTRACT: note_off channel=2 note=77 velocity=0 time=0.024038020833333333
EXTRACT: note_off channel=14 note=58 velocity=0 time=0.012019010416666667
EXTRACT: control_change channel=14 control=1 value=124 time=0.0024038020833333333
EXTRACT: note_off channel=1 note=29 velocity=0 time=0.0144228125
EXTRACT: note_on channel=9 note=35 velocity=116 time=0.004807604166666667
EXTRACT: note_on channel=9 note=46 velocity=63 time=0
EXTRACT: note_on channel=1 note=27 velocity=91 time=0
EXTRACT: note_on channel=2 note=70 velocity=101 time=0
EXTRACT: note_on channel=5 note=63 velocity=88 time=0
EXTRACT: note_on channel=5 note=67 velocity=80 time=0
EXTRACT: note_on channel=6 note=58 velocity=102 time=0
EXTRACT: note_on channel=6 note=62 velocity=100 time=0
EXTRACT: note_on channel=6 note=65 velocity=108 time=0
EXTRACT: note_on channel=12 note=53 velocity=82 time=0
EXTRACT: note_on channel=12 note=58 velocity=80 time=0
EXTRACT: note_on channel=12 note=63 velocity=80 time=0
EXTRACT: note_on channel=14 note=46 velocity=91 time=0
EXTRACT: control_change channel=14 control=1 value=126 time=0.019230416666666666
EXTRACT: note_off channel=9 note=44 velocity=0 time=0.016826614583333333
EXTRACT: note_off channel=6 note=62 velocity=0 time=0.012019010416666667
EXTRACT: note_off channel=6 note=65 velocity=0 time=0.0024038020833333333
EXTRACT: control_change channel=14 control=1 value=127 time=0.00721140625
EXTRACT: note_off channel=6 note=58 velocity=0 time=0.019230416666666666
EXTRACT: note_off channel=9 note=35 velocity=0 time=0.004807604166666667
EXTRACT: note_off channel=14 note=46 velocity=0 time=0.00721140625
EXTRACT: note_off channel=5 note=63 velocity=0 time=0.0024038020833333333
EXTRACT: note_off channel=5 note=67 velocity=0 time=0.0144228125
EXTRACT: note_on channel=14 note=58 velocity=89 time=0.009615208333333333
EXTRACT: note_off channel=12 note=58 velocity=0 time=0.019230416666666666
EXTRACT: note_off channel=12 note=63 velocity=0 time=0.004807604166666667
EXTRACT: note_off channel=12 note=53 velocity=0 time=0.009615208333333333
EXTRACT: note_off channel=9 note=36 velocity=0 time=0.004807604166666667
EXTRACT: note_off channel=14 note=58 velocity=0 time=0.05769125
EXTRACT: note_on channel=9 note=35 velocity=120 time=0.019230416666666666
EXTRACT: note_on channel=9 note=36 velocity=118 time=0
EXTRACT: note_on channel=9 note=44 velocity=85 time=0
EXTRACT: note_on channel=13 note=70 velocity=124 time=0
EXTRACT: note_on channel=14 note=46 velocity=92 time=0
EXTRACT: note_off channel=9 note=46 velocity=0 time=0.07692166666666667
EXTRACT: note_off channel=14 note=46 velocity=0 time=0.012019010416666667
EXTRACT: note_off channel=1 note=27 velocity=0 time=0.019230416666666666
EXTRACT: note_off channel=9 note=35 velocity=0 time=0.0024038020833333333
EXTRACT: note_on channel=14 note=58 velocity=88 time=0.004807604166666667
EXTRACT: note_off channel=14 note=58 velocity=0 time=0.10336348958333333
EXTRACT: note_on channel=9 note=36 velocity=120 time=0.012019010416666667
EXTRACT: note_on channel=9 note=40 velocity=110 time=0
EXTRACT: note_on channel=9 note=46 velocity=71 time=0
EXTRACT: note_on channel=1 note=27 velocity=95 time=0
EXTRACT: note_on channel=5 note=63 velocity=80 time=0
EXTRACT: note_on channel=5 note=68 velocity=82 time=0
EXTRACT: note_on channel=6 note=58 velocity=108 time=0
EXTRACT: note_on channel=6 note=63 velocity=111 time=0
EXTRACT: note_on channel=6 note=68 velocity=108 time=0
EXTRACT: note_on channel=12 note=53 velocity=80 time=0
EXTRACT: note_on channel=12 note=58 velocity=78 time=0
EXTRACT: note_on channel=12 note=63 velocity=80 time=0
EXTRACT: note_on channel=14 note=46 velocity=91 time=0
EXTRACT: note_off channel=9 note=36 velocity=64 time=0.05769125
EXTRACT: note_off channel=9 note=40 velocity=0 time=0.028845625
EXTRACT: note_off channel=9 note=39 velocity=0 time=0
EXTRACT: note_off channel=9 note=44 velocity=0 time=0.0024038020833333333
EXTRACT: note_off channel=14 note=46 velocity=0 time=0.004807604166666667
EXTRACT: note_off channel=9 note=36 velocity=0 time=0.0024038020833333333
EXTRACT: note_on channel=14 note=58 velocity=89 time=0.019230416666666666
EXTRACT: note_off channel=14 note=58 velocity=0 time=0.1009596875
EXTRACT: note_on channel=9 note=36 velocity=122 time=0.0144228125
EXTRACT: note_on channel=9 note=39 velocity=71 time=0
EXTRACT: note_on channel=9 note=40 velocity=72 time=0
EXTRACT: note_on channel=9 note=44 velocity=101 time=0
EXTRACT: note_on channel=14 note=46 velocity=92 time=0
EXTRACT: note_off channel=9 note=40 velocity=0 time=0.086536875
EXTRACT: note_off channel=14 note=46 velocity=0 time=0.004807604166666667
EXTRACT: note_off channel=9 note=46 velocity=0 time=0.012019010416666667
EXTRACT: note_on channel=14 note=58 velocity=89 time=0.012019010416666667
EXTRACT: note_off channel=14 note=58 velocity=0 time=0.09615208333333333
EXTRACT: note_on channel=9 note=35 velocity=120 time=0.019230416666666666
EXTRACT: note_on channel=9 note=46 velocity=70 time=0
EXTRACT: note_on channel=1 note=31 velocity=85 time=0
EXTRACT: note_on channel=13 note=75 velocity=109 time=0
EXTRACT: note_on channel=14 note=46 velocity=91 time=0
EXTRACT: note_off channel=1 note=27 velocity=0 time=0.00721140625
EXTRACT: note_off channel=12 note=58 velocity=0 time=0.00721140625
EXTRACT: note_off channel=12 note=63 velocity=0 time=0.00721140625
EXTRACT: note_off channel=12 note=53 velocity=0 time=0.004807604166666667
EXTRACT: note_off channel=5 note=63 velocity=0 time=0.036057031249999996
EXTRACT: note_off channel=6 note=63 velocity=0 time=0.004807604166666667
EXTRACT: note_off channel=5 note=68 velocity=0 time=0.00721140625
EXTRACT: note_off channel=9 note=35 velocity=0 time=0.0024038020833333333
EXTRACT: note_off channel=9 note=44 velocity=0 time=0.00721140625
EXTRACT: note_off channel=6 note=68 velocity=0 time=0
EXTRACT: note_off channel=6 note=58 velocity=0 time=0.0024038020833333333
EXTRACT: note_off channel=14 note=46 velocity=0 time=0.00721140625
EXTRACT: note_off channel=9 note=36 velocity=0 time=0.012019010416666667
EXTRACT: note_on channel=14 note=58 velocity=90 time=0.009615208333333333
EXTRACT: note_off channel=2 note=70 velocity=0 time=0.012019010416666667
EXTRACT: note_off channel=9 note=46 velocity=0 time=0.031249427083333333
EXTRACT: note_off channel=11 note=65 velocity=0 time=0.00721140625
EXTRACT: note_off channel=14 note=74 velocity=0 time=0
EXTRACT: note_off channel=14 note=77 velocity=0 time=0.0024038020833333333
EXTRACT: note_off channel=1 note=31 velocity=0 time=0.02163421875
EXTRACT: note_off channel=14 note=58 velocity=0 time=0.019230416666666666
EXTRACT: note_on channel=9 note=35 velocity=120 time=0.02163421875
EXTRACT: note_on channel=9 note=36 velocity=122 time=0
EXTRACT: note_on channel=9 note=44 velocity=111 time=0
EXTRACT: note_on channel=1 note=34 velocity=104 time=0
EXTRACT: note_on channel=2 note=80 velocity=111 time=0
EXTRACT: note_on channel=11 note=65 velocity=85 time=0
EXTRACT: note_on channel=14 note=46 velocity=94 time=0
EXTRACT: note_on channel=14 note=74 velocity=108 time=0
EXTRACT: note_on channel=14 note=77 velocity=108 time=0
EXTRACT: note_off channel=14 note=46 velocity=0 time=0.086536875
EXTRACT: note_off channel=11 note=70 velocity=0 time=0.0024038020833333333
EXTRACT: note_on channel=14 note=58 velocity=90 time=0.026441822916666666
EXTRACT: note_off channel=9 note=35 velocity=0 time=0.05288364583333333
EXTRACT: pitchwheel channel=2 pitch=-1408 time=0.05769125
EXTRACT: note_off channel=14 note=58 velocity=0 time=0.0024038020833333333
EXTRACT: note_on channel=9 note=35 velocity=56 time=0.0024038020833333333
EXTRACT: note_on channel=9 note=46 velocity=75 time=0
EXTRACT: note_on channel=5 note=62 velocity=73 time=0
EXTRACT: note_on channel=5 note=65 velocity=80 time=0
EXTRACT: note_on channel=11 note=70 velocity=82 time=0
EXTRACT: note_on channel=12 note=53 velocity=85 time=0
EXTRACT: note_on channel=12 note=58 velocity=80 time=0
EXTRACT: note_on channel=12 note=62 velocity=76 time=0
EXTRACT: note_on channel=14 note=46 velocity=92 time=0
EXTRACT: pitchwheel channel=2 pitch=-3200 time=0.012019010416666667
EXTRACT: note_off channel=9 note=44 velocity=0 time=0.0144228125
EXTRACT: pitchwheel channel=2 pitch=-4224 time=0.00721140625
EXTRACT: note_off channel=11 note=77 velocity=0 time=0.0144228125
EXTRACT: note_off channel=9 note=39 velocity=0 time=0.004807604166666667
EXTRACT: pitchwheel channel=2 pitch=-4736 time=0
EXTRACT: note_off channel=9 note=35 velocity=0 time=0.0024038020833333333
EXTRACT: note_off channel=5 note=65 velocity=0 time=0.0144228125
EXTRACT: pitchwheel channel=2 pitch=-4992 time=0.0024038020833333333
EXTRACT: note_off channel=14 note=46 velocity=0 time=0
EXTRACT: note_off channel=11 note=72 velocity=0 time=0.0024038020833333333
EXTRACT: note_off channel=5 note=62 velocity=0 time=0.004807604166666667
EXTRACT: pitchwheel channel=2 pitch=-4864 time=0.012019010416666667
EXTRACT: note_off channel=12 note=58 velocity=0 time=0.0024038020833333333
EXTRACT: note_off channel=12 note=62 velocity=0 time=0.00721140625
EXTRACT: note_off channel=9 note=36 velocity=0 time=0.0024038020833333333
EXTRACT: pitchwheel channel=2 pitch=-4608 time=0.00721140625
EXTRACT: note_off channel=12 note=53 velocity=0 time=0.004807604166666667
EXTRACT: note_on channel=14 note=58 velocity=89 time=0
EXTRACT: pitchwheel channel=2 pitch=-1152 time=0.0144228125
EXTRACT: pitchwheel channel=2 pitch=-768 time=0.019230416666666666
EXTRACT: pitchwheel channel=2 pitch=0 time=0.019230416666666666
EXTRACT: note_off channel=1 note=34 velocity=0 time=0.026441822916666666
EXTRACT: note_off channel=14 note=58 velocity=0 time=0.004807604166666667
EXTRACT: note_on channel=9 note=36 velocity=122 time=0.031249427083333333
EXTRACT: note_on channel=9 note=39 velocity=76 time=0
EXTRACT: note_on channel=9 note=40 velocity=74 time=0
EXTRACT: note_on channel=9 note=44 velocity=92 time=0
EXTRACT: note_on channel=1 note=29 velocity=73 time=0
EXTRACT: note_on channel=5 note=62 velocity=71 time=0
EXTRACT: note_on channel=5 note=65 velocity=80 time=0
EXTRACT: note_on channel=6 note=58 velocity=127 time=0
EXTRACT: note_on channel=6 note=62 velocity=108 time=0
EXTRACT: note_on channel=6 note=65 velocity=118 time=0
EXTRACT: note_on channel=11 note=77 velocity=88 time=0
EXTRACT: note_on channel=14 note=46 velocity=92 time=0
EXTRACT: note_off channel=14 note=46 velocity=0 time=0.086536875
EXTRACT: note_off channel=9 note=40 velocity=0 time=0.0024038020833333333
EXTRACT: note_off channel=9 note=46 velocity=0 time=0.024038020833333333
EXTRACT: note_on channel=14 note=58 velocity=89 time=0.0024038020833333333
EXTRACT: note_off channel=5 note=62 velocity=0 time=0.024038020833333333
EXTRACT: note_off channel=5 note=65 velocity=0 time=0.009615208333333333
EXTRACT: note_off channel=1 note=29 velocity=0 time=0.019230416666666666
EXTRACT: note_off channel=6 note=58 velocity=0 time=0.012019010416666667
EXTRACT: note_off channel=6 note=62 velocity=0 time=0.0024038020833333333
EXTRACT: note_off channel=6 note=65 velocity=0 time=0.004807604166666667
EXTRACT: note_off channel=14 note=58 velocity=0 time=0.0144228125
EXTRACT: note_on channel=9 note=35 velocity=105 time=0.028845625
EXTRACT: note_on channel=9 note=46 velocity=63 time=0
EXTRACT: note_on channel=1 note=27 velocity=88 time=0
EXTRACT: note_on channel=11 note=72 velocity=85 time=0
EXTRACT: note_on channel=12 note=53 velocity=80 time=0
EXTRACT: note_on channel=12 note=58 velocity=78 time=0
EXTRACT: note_on channel=12 note=62 velocity=68 time=0
EXTRACT: note_on channel=14 note=46 velocity=90 time=0
EXTRACT: note_off channel=9 note=44 velocity=0 time=0.036057031249999996
EXTRACT: note_off channel=11 note=70 velocity=0 time=0.028845625
EXTRACT: note_off channel=9 note=35 velocity=0 time=0.0024038020833333333
EXTRACT: note_off channel=12 note=62 velocity=0 time=0.0144228125
EXTRACT: note_off channel=12 note=58 velocity=0 time=0.0024038020833333333
EXTRACT: note_off channel=14 note=46 velocity=0 time=0.0024038020833333333
EXTRACT: note_off channel=9 note=36 velocity=0 time=0.004807604166666667
EXTRACT: note_off channel=12 note=53 velocity=0 time=0.00721140625
EXTRACT: note_on channel=14 note=58 velocity=89 time=0.016826614583333333
EXTRACT: note_on channel=9 note=40 velocity=94 time=0.019230416666666666
EXTRACT: note_off channel=14 note=58 velocity=0 time=0.06490265625
EXTRACT: note_off channel=9 note=40 velocity=0 time=0.004807604166666667
EXTRACT: note_on channel=9 note=35 velocity=120 time=0.026441822916666666
EXTRACT: note_on channel=9 note=36 velocity=122 time=0
EXTRACT: note_on channel=9 note=44 velocity=85 time=0
EXTRACT: note_on channel=5 note=63 velocity=82 time=0
EXTRACT: note_on channel=5 note=67 velocity=80 time=0
EXTRACT: note_on channel=11 note=70 velocity=80 time=0
EXTRACT: note_on channel=12 note=53 velocity=85 time=0
EXTRACT: note_on channel=12 note=58 velocity=82 time=0
EXTRACT: note_on channel=12 note=63 velocity=82 time=0
EXTRACT: note_on channel=14 note=46 velocity=91 time=0
EXTRACT: note_off channel=11 note=65 velocity=0 time=0.016826614583333333
EXTRACT: note_off channel=9 note=35 velocity=0 time=0.060095052083333336
EXTRACT: note_off channel=9 note=46 velocity=0 time=0
EXTRACT: note_off channel=5 note=63 velocity=0 time=0.0144228125
EXTRACT: note_off channel=14 note=46 velocity=0 time=0
EXTRACT: note_off channel=5 note=67 velocity=0 time=0.004807604166666667
EXTRACT: note_on channel=14 note=58 velocity=89 time=0.019230416666666666
EXTRACT: note_off channel=1 note=27 velocity=0 time=0.06490265625
EXTRACT: note_off channel=12 note=58 velocity=0 time=0.0144228125
EXTRACT: note_off channel=14 note=58 velocity=0 time=0.012019010416666667
EXTRACT: note_off channel=12 note=63 velocity=0 time=0.004807604166666667
EXTRACT: note_on channel=9 note=36 velocity=120 time=0.019230416666666666
EXTRACT: note_on channel=9 note=35 velocity=120 time=0
EXTRACT: note_on channel=9 note=46 velocity=71 time=0
EXTRACT: note_on channel=1 note=27 velocity=95 time=0
EXTRACT: note_on channel=5 note=63 velocity=80 time=0
EXTRACT: note_on channel=5 note=68 velocity=80 time=0
EXTRACT: note_on channel=6 note=58 velocity=115 time=0
EXTRACT: note_on channel=6 note=63 velocity=111 time=0
EXTRACT: note_on channel=6 note=68 velocity=111 time=0
EXTRACT: note_on channel=11 note=65 velocity=91 time=0
EXTRACT: note_on channel=14 note=46 velocity=90 time=0
EXTRACT: note_off channel=9 note=36 velocity=64 time=0.05769125
EXTRACT: note_off channel=12 note=53 velocity=0 time=0.0024038020833333333
EXTRACT: note_off channel=9 note=44 velocity=0 time=0.028845625
EXTRACT: note_off channel=9 note=39 velocity=0 time=0.0024038020833333333
EXTRACT: note_off channel=14 note=46 velocity=0 time=0
EXTRACT: note_on channel=14 note=58 velocity=89 time=0.024038020833333333
EXTRACT: note_off channel=9 note=36 velocity=0 time=0.009615208333333333
EXTRACT: note_off channel=11 note=77 velocity=0 time=0.0024038020833333333
EXTRACT: note_off channel=2 note=80 velocity=0 time=0.07451786458333333
EXTRACT: note_off channel=14 note=58 velocity=0 time=0.00721140625
EXTRACT: note_on channel=9 note=36 velocity=122 time=0.02163421875
EXTRACT: note_on channel=9 note=39 velocity=72 time=0
EXTRACT: note_on channel=9 note=40 velocity=74 time=0
EXTRACT: note_on channel=9 note=44 velocity=101 time=0
EXTRACT: note_on channel=2 note=79 velocity=101 time=0
EXTRACT: note_on channel=11 note=77 velocity=76 time=0
EXTRACT: note_on channel=12 note=53 velocity=82 time=0
EXTRACT: note_on channel=12 note=58 velocity=88 time=0
EXTRACT: note_on channel=12 note=63 velocity=82 time=0
EXTRACT: note_on channel=14 note=46 velocity=92 time=0
EXTRACT: note_off channel=9 note=35 velocity=0 time=0.012019010416666667
EXTRACT: note_off channel=11 note=70 velocity=0 time=0.004807604166666667
EXTRACT: note_off channel=11 note=72 velocity=0 time=0.016826614583333333
EXTRACT: note_off channel=9 note=40 velocity=0 time=0.060095052083333336
EXTRACT: note_off channel=14 note=46 velocity=0 time=0.0024038020833333333
EXTRACT: note_off channel=9 note=46 velocity=0 time=0.00721140625
EXTRACT: note_on channel=14 note=58 velocity=89 time=0.012019010416666667
EXTRACT: note_off channel=5 note=63 velocity=0 time=0.02163421875
EXTRACT: note_off channel=5 note=68 velocity=0 time=0.0144228125
EXTRACT: note_off channel=12 note=53 velocity=0 time=0.00721140625
EXTRACT: note_off channel=12 note=58 velocity=0 time=0.04086463541666667
EXTRACT: note_off channel=12 note=63 velocity=0 time=0.016826614583333333
EXTRACT: note_off channel=14 note=58 velocity=0 time=0
EXTRACT: note_off channel=1 note=27 velocity=0 time=0.012019010416666667
EXTRACT: note_on channel=9 note=46 velocity=70 time=0.0024038020833333333
EXTRACT: note_on channel=1 note=31 velocity=62 time=0
EXTRACT: note_on channel=5 note=62 velocity=85 time=0
EXTRACT: note_on channel=5 note=65 velocity=91 time=0
EXTRACT: note_on channel=11 note=72 velocity=85 time=0
EXTRACT: note_on channel=12 note=53 velocity=82 time=0
EXTRACT: note_on channel=12 note=58 velocity=73 time=0
EXTRACT: note_on channel=12 note=62 velocity=73 time=0
EXTRACT: note_on channel=14 note=46 velocity=92 time=0
EXTRACT: note_off channel=6 note=63 velocity=0 time=0.00721140625
EXTRACT: note_off channel=6 note=68 velocity=0 time=0.0144228125
EXTRACT: note_off channel=6 note=58 velocity=0 time=0.0024038020833333333
EXTRACT: note_off channel=5 note=65 velocity=0 time=0.05047984375
EXTRACT: note_off channel=9 note=36 velocity=0 time=0.0024038020833333333
EXTRACT: note_off channel=5 note=62 velocity=0 time=0.004807604166666667
EXTRACT: note_off channel=9 note=44 velocity=0 time=0.0024038020833333333
EXTRACT: note_off channel=12 note=62 velocity=0 time=0.0024038020833333333
EXTRACT: note_off channel=14 note=46 velocity=0 time=0.00721140625
EXTRACT: note_off channel=12 note=58 velocity=0 time=0.016826614583333333
EXTRACT: note_off channel=12 note=53 velocity=0 time=0
EXTRACT: note_off channel=14 note=74 velocity=0 time=0.004807604166666667
EXTRACT: note_on channel=14 note=58 velocity=88 time=0
EXTRACT: note_off channel=14 note=77 velocity=0 time=0.009615208333333333
EXTRACT: note_on channel=9 note=40 velocity=70 time=0.009615208333333333
EXTRACT: note_off channel=9 note=46 velocity=0 time=0.024038020833333333
EXTRACT: note_off channel=7 note=53 velocity=0 time=0.004807604166666667
EXTRACT: note_off channel=1 note=31 velocity=0 time=0.016826614583333333
EXTRACT: note_off channel=7 note=58 velocity=0 time=0.016826614583333333
EXTRACT: note_off channel=7 note=65 velocity=0 time=0.019230416666666666
EXTRACT: note_off channel=14 note=58 velocity=0 time=0
EXTRACT: note_off channel=7 note=60 velocity=0 time=0.004807604166666667
EXTRACT: note_on channel=9 note=35 velocity=120 time=0.009615208333333333
EXTRACT: note_on channel=9 note=36 velocity=125 time=0
EXTRACT: note_on channel=9 note=44 velocity=111 time=0
EXTRACT: note_on channel=1 note=34 velocity=82 time=0
EXTRACT: note_on channel=2 note=77 velocity=101 time=0
EXTRACT: note_on channel=11 note=70 velocity=91 time=0
EXTRACT: note_on channel=14 note=46 velocity=92 time=0
EXTRACT: note_on channel=14 note=74 velocity=108 time=0
EXTRACT: note_on channel=14 note=77 velocity=108 time=0
EXTRACT: note_off channel=9 note=40 velocity=0 time=0.009615208333333333
EXTRACT: note_off channel=2 note=79 velocity=0 time=0.026441822916666666
EXTRACT: note_off channel=11 note=65 velocity=0 time=0.026441822916666666
EXTRACT: note_off channel=14 note=46 velocity=0 time=0.031249427083333333
EXTRACT: note_off channel=9 note=35 velocity=0 time=0.009615208333333333
EXTRACT: note_on channel=14 note=58 velocity=89 time=0.012019010416666667
EXTRACT: note_off channel=14 note=58 velocity=0 time=0.10576729166666667
EXTRACT: pitchwheel channel=2 pitch=-128 time=0.00721140625
EXTRACT: note_on channel=9 note=35 velocity=110 time=0.0024038020833333333
EXTRACT: note_on channel=9 note=46 velocity=75 time=0
EXTRACT: note_on channel=5 note=62 velocity=82 time=0
EXTRACT: note_on channel=5 note=65 velocity=91 time=0
EXTRACT: note_on channel=6 note=58 velocity=115 time=0
EXTRACT: note_on channel=6 note=62 velocity=100 time=0
EXTRACT: note_on channel=6 note=65 velocity=105 time=0
EXTRACT: note_on channel=11 note=65 velocity=95 time=0
EXTRACT: note_on channel=12 note=53 velocity=82 time=0
EXTRACT: note_on channel=12 note=58 velocity=82 time=0
EXTRACT: note_on channel=12 note=62 velocity=73 time=0
EXTRACT: note_on channel=14 note=46 velocity=91 time=0
EXTRACT: pitchwheel channel=2 pitch=-1664 time=0.016826614583333333
EXTRACT: note_off channel=9 note=44 velocity=0 time=0.009615208333333333
EXTRACT: pitchwheel channel=2 pitch=-3456 time=0.012019010416666667
EXTRACT: note_off channel=9 note=39 velocity=0 time=0.019230416666666666
EXTRACT: pitchwheel channel=2 pitch=-4864 time=0
EXTRACT: note_off channel=11 note=77 velocity=0 time=0.004807604166666667
EXTRACT: note_off channel=6 note=65 velocity=0 time=0.012019010416666667
EXTRACT: pitchwheel channel=2 pitch=-5504 time=0.0024038020833333333
EXTRACT: note_off channel=5 note=65 velocity=0 time=0.004807604166666667
EXTRACT: note_off channel=5 note=62 velocity=0 time=0
EXTRACT: note_off channel=6 note=62 velocity=0 time=0
EXTRACT: note_off channel=6 note=58 velocity=0 time=0.0024038020833333333
EXTRACT: note_off channel=14 note=46 velocity=0 time=0
EXTRACT: pitchwheel channel=2 pitch=-5632 time=0.012019010416666667
EXTRACT: note_off channel=12 note=58 velocity=0 time=0
EXTRACT: note_off channel=12 note=62 velocity=0 time=0.0024038020833333333
EXTRACT: note_off channel=12 note=53 velocity=0 time=0.00721140625
EXTRACT: note_off channel=9 note=36 velocity=0 time=0.00721140625
EXTRACT: note_on channel=14 note=58 velocity=89 time=0.0024038020833333333
EXTRACT: pitchwheel channel=2 pitch=-5504 time=0.019230416666666666
EXTRACT: pitchwheel channel=2 pitch=-4096 time=0.019230416666666666
EXTRACT: pitchwheel channel=2 pitch=0 time=0.019230416666666666
EXTRACT: note_off channel=14 note=58 velocity=0 time=0.048076041666666666
EXTRACT: note_off channel=1 note=34 velocity=0 time=0.004807604166666667
EXTRACT: note_off channel=11 note=72 velocity=0 time=0.0024038020833333333
EXTRACT: note_on channel=9 note=36 velocity=122 time=0.0024038020833333333
EXTRACT: note_on channel=9 note=39 velocity=80 time=0
EXTRACT: note_on channel=9 note=40 velocity=78 time=0
EXTRACT: note_on channel=9 note=44 velocity=92 time=0
EXTRACT: note_on channel=1 note=29 velocity=76 time=0
EXTRACT: note_on channel=11 note=77 velocity=109 time=0
EXTRACT: note_on channel=14 note=46 velocity=92 time=0
EXTRACT: note_off channel=9 note=35 velocity=0 time=0.028845625
EXTRACT: note_off channel=9 note=40 velocity=0 time=0.06490265625
EXTRACT: note_off channel=14 note=46 velocity=0 time=0.004807604166666667
EXTRACT: note_off channel=9 note=46 velocity=0 time=0.0144228125
EXTRACT: note_on channel=14 note=58 velocity=89 time=0.0024038020833333333
EXTRACT: note_off channel=14 note=58 velocity=0 time=0.09374828125
EXTRACT: note_off channel=1 note=29 velocity=0 time=0.016826614583333333
EXTRACT: note_on channel=9 note=35 velocity=116 time=0.004807604166666667
EXTRACT: note_on channel=9 note=46 velocity=63 time=0
EXTRACT: note_on channel=1 note=27 velocity=91 time=0
EXTRACT: note_off channel=2 note=77 velocity=0 time=0
EXTRACT: note_on channel=2 note=70 velocity=101 time=0
EXTRACT: note_on channel=5 note=63 velocity=91 time=0
EXTRACT: note_on channel=5 note=67 velocity=82 time=0
EXTRACT: note_on channel=6 note=58 velocity=102 time=0
EXTRACT: note_on channel=6 note=62 velocity=100 time=0
EXTRACT: note_on channel=6 note=65 velocity=108 time=0
EXTRACT: note_on channel=11 note=72 velocity=98 time=0
EXTRACT: note_on channel=12 note=53 velocity=88 time=0
EXTRACT: note_on channel=12 note=58 velocity=78 time=0
EXTRACT: note_on channel=12 note=63 velocity=74 time=0
EXTRACT: note_on channel=14 note=46 velocity=91 time=0
EXTRACT: note_off channel=9 note=44 velocity=0 time=0.036057031249999996
EXTRACT: note_off channel=6 note=62 velocity=0 time=0.012019010416666667
EXTRACT: note_off channel=6 note=65 velocity=0 time=0.0024038020833333333
EXTRACT: note_off channel=9 note=35 velocity=0 time=0.024038020833333333
EXTRACT: note_off channel=11 note=70 velocity=0 time=0
EXTRACT: note_off channel=6 note=58 velocity=0 time=0.0024038020833333333
EXTRACT: note_off channel=14 note=46 velocity=0 time=0.012019010416666667
EXTRACT: note_off channel=5 note=63 velocity=0 time=0.00721140625
EXTRACT: note_off channel=5 note=67 velocity=0 time=0.012019010416666667
EXTRACT: note_off channel=12 note=58 velocity=0 time=0.0024038020833333333
EXTRACT: note_off channel=9 note=36 velocity=0 time=0.004807604166666667
EXTRACT: note_on channel=14 note=58 velocity=89 time=0
EXTRACT: note_off channel=12 note=63 velocity=0 time=0.00721140625
EXTRACT: note_off channel=12 note=53 velocity=0 time=0
EXTRACT: note_on channel=9 note=40 velocity=105 time=0.012019010416666667
EXTRACT: note_off channel=9 note=40 velocity=0 time=0.07692166666666667
EXTRACT: note_off channel=14 note=58 velocity=0 time=0
EXTRACT: note_on channel=9 note=35 velocity=120 time=0.019230416666666666
EXTRACT: note_on channel=9 note=36 velocity=125 time=0
EXTRACT: note_on channel=9 note=44 velocity=85 time=0
EXTRACT: note_on channel=11 note=70 velocity=104 time=0
EXTRACT: note_on channel=14 note=46 velocity=92 time=0
EXTRACT: note_off channel=11 note=65 velocity=0 time=0.05528744791666666
EXTRACT: note_off channel=9 note=35 velocity=0 time=0.016826614583333333
EXTRACT: note_off channel=9 note=46 velocity=0 time=0.004807604166666667
EXTRACT: note_off channel=14 note=46 velocity=0 time=0.012019010416666667
EXTRACT: note_off channel=1 note=27 velocity=0 time=0.019230416666666666
EXTRACT: note_on channel=14 note=58 velocity=88 time=0.00721140625
EXTRACT: note_on channel=9 note=40 velocity=100 time=0.019230416666666666
EXTRACT: note_off channel=9 note=40 velocity=0 time=0.07692166666666667
EXTRACT: note_off channel=14 note=58 velocity=0 time=0.00721140625
EXTRACT: note_on channel=9 note=36 velocity=120 time=0.012019010416666667
EXTRACT: note_on channel=9 note=35 velocity=120 time=0
EXTRACT: note_on channel=9 note=46 velocity=71 time=0
EXTRACT: note_on channel=1 note=27 velocity=95 time=0
EXTRACT: note_on channel=5 note=63 velocity=88 time=0
EXTRACT: note_on channel=5 note=68 velocity=88 time=0
EXTRACT: note_on channel=6 note=58 velocity=108 time=0
EXTRACT: note_on channel=6 note=63 velocity=111 time=0
EXTRACT: note_on channel=6 note=68 velocity=108 time=0
EXTRACT: note_on channel=11 note=65 velocity=109 time=0
EXTRACT: note_on channel=12 note=53 velocity=85 time=0
EXTRACT: note_on channel=12 note=58 velocity=88 time=0
EXTRACT: note_on channel=12 note=63 velocity=88 time=0
EXTRACT: note_on channel=14 note=46 velocity=91 time=0
EXTRACT: note_off channel=11 note=77 velocity=0 time=0.028845625
EXTRACT: note_off channel=9 note=39 velocity=0 time=0.026441822916666666
EXTRACT: note_off channel=9 note=36 velocity=64 time=0.0024038020833333333
EXTRACT: note_off channel=9 note=36 velocity=0 time=0.028845625
EXTRACT: note_off channel=9 note=44 velocity=0 time=0.0024038020833333333
EXTRACT: note_off channel=14 note=46 velocity=0 time=0.004807604166666667
EXTRACT: note_off channel=9 note=35 velocity=0 time=0.00721140625
EXTRACT: note_on channel=14 note=58 velocity=89 time=0.0144228125
EXTRACT: note_off channel=14 note=58 velocity=0 time=0.1009596875
EXTRACT: note_on channel=9 note=36 velocity=122 time=0.0144228125
EXTRACT: note_on channel=9 note=39 velocity=86 time=0
EXTRACT: note_on channel=9 note=40 velocity=86 time=0
EXTRACT: note_on channel=9 note=44 velocity=101 time=0
EXTRACT: note_on channel=11 note=77 velocity=109 time=0
EXTRACT: note_on channel=14 note=46 velocity=92 time=0
EXTRACT: note_off channel=2 note=70 velocity=0 time=0.0144228125
EXTRACT: note_off channel=9 note=40 velocity=0 time=0.07211406249999999
EXTRACT: note_off channel=14 note=46 velocity=0 time=0.004807604166666667
EXTRACT: note_off channel=9 note=46 velocity=0 time=0.012019010416666667
EXTRACT: note_on channel=14 note=58 velocity=89 time=0.012019010416666667
EXTRACT: note_off channel=12 note=58 velocity=0 time=0.0144228125
EXTRACT: note_off channel=9 note=36 velocity=0 time=0.0024038020833333333
EXTRACT: note_off channel=12 note=63 velocity=0 time=0.00721140625
EXTRACT: note_off channel=12 note=53 velocity=0 time=0
EXTRACT: note_off channel=14 note=74 velocity=0 time=0.0024038020833333333
EXTRACT: note_off channel=11 note=72 velocity=0 time=0.016826614583333333
EXTRACT: note_off channel=14 note=77 velocity=0 time=0.012019010416666667
EXTRACT: note_off channel=5 note=63 velocity=0 time=0.026441822916666666
EXTRACT: note_off channel=5 note=68 velocity=0 time=0.0144228125
EXTRACT: note_off channel=14 note=58 velocity=0 time=0
EXTRACT: note_on channel=9 note=36 velocity=122 time=0.019230416666666666
EXTRACT: note_on channel=9 note=40 velocity=110 time=0
EXTRACT: note_on channel=9 note=46 velocity=70 time=0
EXTRACT: note_on channel=1 note=31 velocity=85 time=0
EXTRACT: note_on channel=11 note=72 velocity=73 time=0
EXTRACT: note_on channel=12 note=53 velocity=78 time=0
EXTRACT: note_on channel=12 note=58 velocity=80 time=0
EXTRACT: note_on channel=12 note=63 velocity=82 time=0
EXTRACT: note_on channel=14 note=46 velocity=91 time=0
EXTRACT: note_off channel=1 note=27 velocity=0 time=0.00721140625
EXTRACT: note_off channel=9 note=39 velocity=0 time=0.05047984375
EXTRACT: note_off channel=9 note=40 velocity=0 time=0.004807604166666667
EXTRACT: note_off channel=6 note=63 velocity=0 time=0.004807604166666667
EXTRACT: note_off channel=9 note=44 velocity=0 time=0.016826614583333333
EXTRACT: note_off channel=6 note=68 velocity=0 time=0
EXTRACT: note_off channel=6 note=58 velocity=0 time=0.0024038020833333333
EXTRACT: note_off channel=12 note=58 velocity=0 time=0.0024038020833333333
EXTRACT: note_off channel=14 note=46 velocity=0 time=0.004807604166666667
EXTRACT: note_off channel=12 note=63 velocity=0 time=0.012019010416666667
EXTRACT: note_off channel=12 note=53 velocity=0 time=0
EXTRACT: note_on channel=14 note=58 velocity=90 time=0.009615208333333333
EXTRACT: note_on channel=9 note=40 velocity=91 time=0.019230416666666666
EXTRACT: note_off channel=9 note=36 velocity=0 time=0.0024038020833333333
EXTRACT: note_off channel=9 note=46 velocity=0 time=0.02163421875
EXTRACT: note_off channel=1 note=31 velocity=0 time=0.031249427083333333
EXTRACT: note_off channel=11 note=65 velocity=0 time=0.00721140625
EXTRACT: note_off channel=14 note=58 velocity=0 time=0.012019010416666667
EXTRACT: note_off channel=11 note=77 velocity=0 time=0.0024038020833333333
EXTRACT: note_off channel=11 note=72 velocity=0 time=0.004807604166666667
EXTRACT: note_off channel=9 note=40 velocity=0 time=0.0024038020833333333
EXTRACT: note_off channel=11 note=70 velocity=0 time=0.0024038020833333333
EXTRACT: note_on channel=5 note=46 velocity=56 time=0.009615208333333333
EXTRACT: note_on channel=5 note=53 velocity=54 time=0
EXTRACT: note_on channel=5 note=58 velocity=63 time=0
EXTRACT: note_on channel=5 note=62 velocity=61 time=0
EXTRACT: note_on channel=5 note=65 velocity=66 time=0
EXTRACT: note_on channel=10 note=46 velocity=56 time=0
EXTRACT: note_on channel=10 note=53 velocity=54 time=0
EXTRACT: note_on channel=10 note=58 velocity=63 time=0
EXTRACT: note_on channel=10 note=62 velocity=61 time=0
EXTRACT: note_on channel=10 note=65 velocity=66 time=0
EXTRACT: note_on channel=5 note=70 velocity=72 time=0.230765
EXTRACT: note_on channel=10 note=70 velocity=72 time=0
EXTRACT: note_on channel=3 note=62 velocity=97 time=0.230765
EXTRACT: note_on channel=4 note=74 velocity=87 time=0
EXTRACT: note_off channel=5 note=65 velocity=0 time=0.13461291666666667
EXTRACT: note_off channel=10 note=65 velocity=0 time=0
EXTRACT: note_off channel=3 note=62 velocity=0 time=0.003605703125
EXTRACT: note_off channel=4 note=74 velocity=0 time=0
EXTRACT: note_off channel=5 note=62 velocity=0 time=0.018028515624999998
EXTRACT: note_off channel=10 note=62 velocity=0 time=0
EXTRACT: note_off channel=5 note=46 velocity=0 time=0.06490265625
EXTRACT: note_off channel=10 note=46 velocity=0 time=0
EXTRACT: note_on channel=3 note=62 velocity=97 time=0.009615208333333333
EXTRACT: note_on channel=4 note=74 velocity=87 time=0
EXTRACT: note_on channel=5 note=62 velocity=31 time=0
EXTRACT: note_on channel=5 note=65 velocity=55 time=0
EXTRACT: note_on channel=10 note=62 velocity=31 time=0
EXTRACT: note_on channel=10 note=65 velocity=55 time=0
EXTRACT: note_off channel=5 note=53 velocity=0 time=0.00721140625
EXTRACT: note_off channel=10 note=53 velocity=0 time=0
EXTRACT: note_off channel=5 note=70 velocity=0 time=0.0144228125
EXTRACT: note_off channel=10 note=70 velocity=0 time=0
EXTRACT: note_off channel=5 note=62 velocity=0 time=0.05288364583333333
EXTRACT: note_off channel=10 note=62 velocity=0 time=0
EXTRACT: note_off channel=5 note=58 velocity=0 time=0.036057031249999996
EXTRACT: note_off channel=10 note=58 velocity=0 time=0
EXTRACT: note_off channel=5 note=65 velocity=0 time=0.009615208333333333
EXTRACT: note_off channel=10 note=65 velocity=0 time=0
EXTRACT: note_off channel=3 note=62 velocity=0 time=0.0024038020833333333
EXTRACT: note_off channel=4 note=74 velocity=0 time=0
EXTRACT: note_on channel=3 note=62 velocity=97 time=0.10817109375
EXTRACT: note_on channel=4 note=74 velocity=87 time=0
EXTRACT: note_on channel=5 note=46 velocity=54 time=0
EXTRACT: note_on channel=5 note=53 velocity=55 time=0
EXTRACT: note_on channel=5 note=58 velocity=52 time=0
EXTRACT: note_on channel=5 note=62 velocity=54 time=0
EXTRACT: note_on channel=5 note=65 velocity=61 time=0
EXTRACT: note_on channel=10 note=46 velocity=54 time=0
EXTRACT: note_on channel=10 note=53 velocity=55 time=0
EXTRACT: note_on channel=10 note=58 velocity=52 time=0
EXTRACT: note_on channel=10 note=62 velocity=54 time=0
EXTRACT: note_on channel=10 note=65 velocity=61 time=0
EXTRACT: note_off channel=3 note=62 velocity=0 time=0.126199609375
EXTRACT: note_off channel=4 note=74 velocity=0 time=0
EXTRACT: note_off channel=5 note=62 velocity=0 time=0.022836119791666665
EXTRACT: note_off channel=10 note=62 velocity=0 time=0
EXTRACT: note_on channel=3 note=62 velocity=97 time=0.08172927083333334
EXTRACT: note_on channel=4 note=74 velocity=87 time=0
EXTRACT: note_on channel=5 note=62 velocity=48 time=0
EXTRACT: note_on channel=5 note=70 velocity=78 time=0
EXTRACT: note_on channel=10 note=62 velocity=48 time=0
EXTRACT: note_on channel=10 note=70 velocity=78 time=0
EXTRACT: note_off channel=5 note=65 velocity=0 time=0.3918197395833333
EXTRACT: note_off channel=10 note=65 velocity=0 time=0
EXTRACT: note_off channel=3 note=62 velocity=0 time=0.05889315104166667
EXTRACT: note_off channel=4 note=74 velocity=0 time=0
EXTRACT: note_on channel=3 note=65 velocity=97 time=0.010817109375
EXTRACT: note_on channel=4 note=77 velocity=87 time=0
EXTRACT: note_on channel=5 note=65 velocity=61 time=0
EXTRACT: note_on channel=10 note=65 velocity=61 time=0
EXTRACT: note_off channel=5 note=53 velocity=0 time=0.0432684375
EXTRACT: note_off channel=10 note=53 velocity=0 time=0
EXTRACT: note_off channel=5 note=46 velocity=0 time=0.05047984375
EXTRACT: note_off channel=10 note=46 velocity=0 time=0
EXTRACT: note_off channel=13 note=70 velocity=0 time=0.00721140625
EXTRACT: note_off channel=5 note=70 velocity=0 time=0.004807604166666667
EXTRACT: note_off channel=10 note=70 velocity=0 time=0
EXTRACT: note_off channel=13 note=75 velocity=0 time=0.0144228125
EXTRACT: note_off channel=5 note=62 velocity=0 time=0.004807604166666667
EXTRACT: note_off channel=10 note=62 velocity=0 time=0
EXTRACT: note_off channel=5 note=58 velocity=0 time=0.026441822916666666
EXTRACT: note_off channel=10 note=58 velocity=0 time=0
EXTRACT: note_on channel=5 note=48 velocity=54 time=0.07932546875
EXTRACT: note_on channel=5 note=51 velocity=56 time=0
EXTRACT: note_on channel=5 note=55 velocity=54 time=0
EXTRACT: note_on channel=5 note=58 velocity=47 time=0
EXTRACT: note_on channel=5 note=63 velocity=70 time=0
EXTRACT: note_on channel=5 note=67 velocity=60 time=0
EXTRACT: note_on channel=10 note=48 velocity=54 time=0
EXTRACT: note_on channel=10 note=51 velocity=56 time=0
EXTRACT: note_on channel=10 note=55 velocity=54 time=0
EXTRACT: note_on channel=10 note=58 velocity=47 time=0
EXTRACT: note_on channel=10 note=63 velocity=70 time=0
EXTRACT: note_on channel=10 note=67 velocity=60 time=0
EXTRACT: note_off channel=5 note=65 velocity=0 time=0.04086463541666667
EXTRACT: note_off channel=10 note=65 velocity=0 time=0
EXTRACT: note_off channel=3 note=65 velocity=0 time=0.14302622395833334
EXTRACT: note_off channel=4 note=77 velocity=0 time=0
EXTRACT: note_on channel=3 note=65 velocity=97 time=0.046874140625
EXTRACT: note_on channel=4 note=77 velocity=87 time=0
EXTRACT: note_on channel=5 note=70 velocity=78 time=0
EXTRACT: note_on channel=10 note=70 velocity=78 time=0
EXTRACT: note_off channel=5 note=63 velocity=0 time=0.40864635416666667
EXTRACT: note_off channel=10 note=63 velocity=0 time=0
EXTRACT: note_off channel=5 note=67 velocity=0 time=0.009615208333333333
EXTRACT: note_off channel=10 note=67 velocity=0 time=0
EXTRACT: note_on channel=3 note=65 velocity=97 time=0.0432684375
EXTRACT: note_on channel=4 note=77 velocity=87 time=0
EXTRACT: note_on channel=5 note=63 velocity=61 time=0
EXTRACT: note_on channel=5 note=67 velocity=64 time=0
EXTRACT: note_on channel=10 note=63 velocity=61 time=0
EXTRACT: note_on channel=10 note=67 velocity=64 time=0
EXTRACT: note_off channel=3 note=65 velocity=0 time=0.0012019010416666667
EXTRACT: note_off channel=4 note=77 velocity=0 time=0
EXTRACT: note_off channel=5 note=70 velocity=0 time=0.010817109375
EXTRACT: note_off channel=10 note=70 velocity=0 time=0
EXTRACT: note_off channel=5 note=63 velocity=0 time=0.09134447916666666
EXTRACT: note_off channel=10 note=63 velocity=0 time=0
EXTRACT: note_off channel=5 note=67 velocity=0 time=0.04567223958333333
EXTRACT: note_off channel=10 note=67 velocity=0 time=0
EXTRACT: note_off channel=5 note=58 velocity=0 time=0.0024038020833333333
EXTRACT: note_off channel=10 note=58 velocity=0 time=0
EXTRACT: note_on channel=5 note=58 velocity=61 time=0.07932546875
EXTRACT: note_on channel=5 note=63 velocity=64 time=0
EXTRACT: note_on channel=5 note=67 velocity=48 time=0
EXTRACT: note_on channel=10 note=58 velocity=61 time=0
EXTRACT: note_on channel=10 note=63 velocity=64 time=0
EXTRACT: note_on channel=10 note=67 velocity=48 time=0
EXTRACT: note_on channel=3 note=62 velocity=97 time=0.230765
EXTRACT: note_on channel=4 note=74 velocity=87 time=0
EXTRACT: note_on channel=5 note=70 velocity=78 time=0
EXTRACT: note_on channel=10 note=70 velocity=78 time=0
EXTRACT: note_off channel=3 note=65 velocity=0 time=0.02163421875
EXTRACT: note_off channel=4 note=77 velocity=0 time=0
EXTRACT: note_off channel=5 note=67 velocity=0 time=0.21393838541666665
EXTRACT: note_off channel=10 note=67 velocity=0 time=0
EXTRACT: note_off channel=3 note=62 velocity=0 time=0.19350606770833334
EXTRACT: note_off channel=4 note=74 velocity=0 time=0
EXTRACT: note_off channel=5 note=70 velocity=0 time=0.022836119791666665
EXTRACT: note_off channel=10 note=70 velocity=0 time=0
EXTRACT: note_on channel=3 note=62 velocity=97 time=0.009615208333333333
EXTRACT: note_on channel=4 note=74 velocity=87 time=0
EXTRACT: note_on channel=5 note=67 velocity=66 time=0
EXTRACT: note_on channel=10 note=67 velocity=66 time=0
EXTRACT: note_off channel=5 note=51 velocity=0 time=0.031249427083333333
EXTRACT: note_off channel=10 note=51 velocity=0 time=0
EXTRACT: note_off channel=5 note=55 velocity=0 time=0.004807604166666667
EXTRACT: note_off channel=10 note=55 velocity=0 time=0
EXTRACT: note_off channel=5 note=48 velocity=0 time=0.028845625
EXTRACT: note_off channel=10 note=48 velocity=0 time=0
EXTRACT: note_off channel=5 note=63 velocity=0 time=0.062498854166666666
EXTRACT: note_off channel=10 note=63 velocity=0 time=0
EXTRACT: note_off channel=5 note=58 velocity=0 time=0.0024038020833333333
EXTRACT: note_off channel=10 note=58 velocity=0 time=0
EXTRACT: note_off channel=5 note=67 velocity=0 time=0.09134447916666666
EXTRACT: note_off channel=10 note=67 velocity=0 time=0
EXTRACT: note_on channel=5 note=50 velocity=54 time=0.009615208333333333
EXTRACT: note_on channel=5 note=53 velocity=60 time=0
EXTRACT: note_on channel=5 note=57 velocity=52 time=0
EXTRACT: note_on channel=5 note=62 velocity=61 time=0
EXTRACT: note_on channel=5 note=65 velocity=66 time=0
EXTRACT: note_on channel=10 note=50 velocity=54 time=0
EXTRACT: note_on channel=10 note=53 velocity=60 time=0
EXTRACT: note_on channel=10 note=57 velocity=52 time=0
EXTRACT: note_on channel=10 note=62 velocity=61 time=0
EXTRACT: note_on channel=10 note=65 velocity=66 time=0
EXTRACT: note_on channel=5 note=69 velocity=81 time=0.230765
EXTRACT: note_on channel=10 note=69 velocity=81 time=0
EXTRACT: note_off channel=5 note=62 velocity=0 time=0.3798007291666667
EXTRACT: note_off channel=10 note=62 velocity=0 time=0
EXTRACT: note_off channel=5 note=65 velocity=0 time=0.026441822916666666
EXTRACT: note_off channel=10 note=65 velocity=0 time=0
EXTRACT: note_on channel=5 note=62 velocity=58 time=0.05528744791666666
EXTRACT: note_on channel=5 note=65 velocity=72 time=0
EXTRACT: note_on channel=10 note=62 velocity=58 time=0
EXTRACT: note_on channel=10 note=65 velocity=72 time=0
EXTRACT: note_off channel=5 note=69 velocity=0 time=0.04567223958333333
EXTRACT: note_off channel=10 note=69 velocity=0 time=0
EXTRACT: note_off channel=5 note=57 velocity=0 time=0.05528744791666666
EXTRACT: note_off channel=10 note=57 velocity=0 time=0
EXTRACT: note_off channel=5 note=53 velocity=0 time=0.004807604166666667
EXTRACT: note_off channel=10 note=53 velocity=0 time=0
EXTRACT: note_off channel=5 note=50 velocity=0 time=0.004807604166666667
EXTRACT: note_off channel=10 note=50 velocity=0 time=0
EXTRACT: note_off channel=5 note=62 velocity=0 time=0.04567223958333333
EXTRACT: note_off channel=10 note=62 velocity=0 time=0
EXTRACT: note_off channel=5 note=65 velocity=0 time=0.016826614583333333
EXTRACT: note_off channel=10 note=65 velocity=0 time=0
EXTRACT: note_on channel=3 note=60 velocity=97 time=0.05769125
EXTRACT: note_on channel=4 note=72 velocity=87 time=0
EXTRACT: note_on channel=5 note=50 velocity=63 time=0
EXTRACT: note_on channel=5 note=53 velocity=56 time=0
EXTRACT: note_on channel=5 note=57 velocity=66 time=0
EXTRACT: note_on channel=5 note=62 velocity=51 time=0
EXTRACT: note_on channel=5 note=65 velocity=70 time=0
EXTRACT: note_on channel=10 note=50 velocity=63 time=0
EXTRACT: note_on channel=10 note=53 velocity=56 time=0
EXTRACT: note_on channel=10 note=57 velocity=66 time=0
EXTRACT: note_on channel=10 note=62 velocity=51 time=0
EXTRACT: note_on channel=10 note=65 velocity=70 time=0
EXTRACT: note_off channel=3 note=62 velocity=0 time=0.230765
EXTRACT: note_on channel=3 note=58 velocity=97 time=0
EXTRACT: note_off channel=4 note=74 velocity=0 time=0
EXTRACT: note_on channel=4 note=70 velocity=87 time=0
EXTRACT: note_on channel=5 note=69 velocity=85 time=0
EXTRACT: note_on channel=10 note=69 velocity=85 time=0
EXTRACT: note_off channel=3 note=60 velocity=0 time=0.054085546875
EXTRACT: note_off channel=4 note=72 velocity=0 time=0
EXTRACT: note_off channel=5 note=65 velocity=0 time=0.23917830729166667
EXTRACT: note_off channel=10 note=65 velocity=0 time=0
EXTRACT: note_off channel=5 note=50 velocity=0 time=0.08172927083333334
EXTRACT: note_off channel=10 note=50 velocity=0 time=0
EXTRACT: note_off channel=5 note=53 velocity=0 time=0.033653229166666666
EXTRACT: note_off channel=10 note=53 velocity=0 time=0
EXTRACT: note_off channel=3 note=58 velocity=0 time=0.03846083333333333
EXTRACT: note_off channel=4 note=70 velocity=0 time=0
EXTRACT: note_on channel=5 note=65 velocity=72 time=0.0144228125
EXTRACT: note_on channel=10 note=65 velocity=72 time=0
EXTRACT: note_off channel=5 note=57 velocity=0 time=0.016826614583333333
EXTRACT: note_off channel=10 note=57 velocity=0 time=0
EXTRACT: note_off channel=5 note=69 velocity=0 time=0.0024038020833333333
EXTRACT: note_off channel=10 note=69 velocity=0 time=0
EXTRACT: note_off channel=5 note=62 velocity=0 time=0.026441822916666666
EXTRACT: note_off channel=10 note=62 velocity=0 time=0
EXTRACT: note_on channel=3 note=62 velocity=97 time=0.18509276041666667
EXTRACT: note_on channel=4 note=74 velocity=87 time=0
EXTRACT: note_on channel=5 note=51 velocity=57 time=0
EXTRACT: note_on channel=5 note=55 velocity=60 time=0
EXTRACT: note_on channel=5 note=58 velocity=64 time=0
EXTRACT: note_on channel=5 note=63 velocity=72 time=0
EXTRACT: note_on channel=5 note=67 velocity=66 time=0
EXTRACT: note_on channel=10 note=51 velocity=57 time=0
EXTRACT: note_on channel=10 note=55 velocity=60 time=0
EXTRACT: note_on channel=10 note=58 velocity=64 time=0
EXTRACT: note_on channel=10 note=63 velocity=72 time=0
EXTRACT: note_on channel=10 note=67 velocity=66 time=0
EXTRACT: note_off channel=5 note=65 velocity=0 time=0.0144228125
EXTRACT: note_off channel=10 note=65 velocity=0 time=0
EXTRACT: note_off channel=3 note=62 velocity=0 time=0.13220911458333334
EXTRACT: note_off channel=4 note=74 velocity=0 time=0
EXTRACT: note_on channel=3 note=62 velocity=97 time=0.08413307291666666
EXTRACT: note_on channel=4 note=74 velocity=87 time=0
EXTRACT: note_on channel=5 note=70 velocity=72 time=0
EXTRACT: note_on channel=10 note=70 velocity=72 time=0
EXTRACT: note_off channel=5 note=63 velocity=0 time=0.3605703125
EXTRACT: note_off channel=5 note=58 velocity=0 time=0
EXTRACT: note_off channel=10 note=63 velocity=0 time=0
EXTRACT: note_off channel=10 note=58 velocity=0 time=0
EXTRACT: note_off channel=5 note=70 velocity=0 time=0.05047984375
EXTRACT: note_off channel=5 note=67 velocity=0 time=0
EXTRACT: note_off channel=10 note=70 velocity=0 time=0
EXTRACT: note_off channel=10 note=67 velocity=0 time=0
EXTRACT: note_on channel=3 note=60 velocity=97 time=0.05047984375
EXTRACT: note_on channel=4 note=72 velocity=87 time=0
EXTRACT: note_on channel=5 note=58 velocity=61 time=0
EXTRACT: note_on channel=5 note=63 velocity=70 time=0
EXTRACT: note_on channel=5 note=67 velocity=85 time=0
EXTRACT: note_on channel=10 note=58 velocity=61 time=0
EXTRACT: note_on channel=10 note=63 velocity=70 time=0
EXTRACT: note_on channel=10 note=67 velocity=85 time=0
EXTRACT: note_off channel=3 note=62 velocity=0 time=0.00721140625
EXTRACT: note_off channel=4 note=74 velocity=0 time=0
EXTRACT: note_off channel=5 note=55 velocity=0 time=0.036057031249999996
EXTRACT: note_off channel=10 note=55 velocity=0 time=0
EXTRACT: note_off channel=5 note=51 velocity=0 time=0.004807604166666667
EXTRACT: note_off channel=10 note=51 velocity=0 time=0
EXTRACT: note_off channel=5 note=58 velocity=0 time=0.06490265625
EXTRACT: note_off channel=10 note=58 velocity=0 time=0
EXTRACT: note_off channel=5 note=63 velocity=0 time=0.0024038020833333333
EXTRACT: note_off channel=10 note=63 velocity=0 time=0
EXTRACT: note_off channel=5 note=67 velocity=0 time=0.04086463541666667
EXTRACT: note_off channel=10 note=67 velocity=0 time=0
EXTRACT: note_on channel=5 note=51 velocity=52 time=0.07451786458333333
EXTRACT: note_on channel=5 note=55 velocity=60 time=0
EXTRACT: note_on channel=5 note=58 velocity=57 time=0
EXTRACT: note_on channel=5 note=63 velocity=70 time=0
EXTRACT: note_on channel=5 note=67 velocity=66 time=0
EXTRACT: note_on channel=10 note=51 velocity=52 time=0
EXTRACT: note_on channel=10 note=55 velocity=60 time=0
EXTRACT: note_on channel=10 note=58 velocity=57 time=0
EXTRACT: note_on channel=10 note=63 velocity=70 time=0
EXTRACT: note_on channel=10 note=67 velocity=66 time=0
EXTRACT: note_on channel=3 note=58 velocity=97 time=0.230765
EXTRACT: note_on channel=4 note=70 velocity=87 time=0
EXTRACT: note_on channel=5 note=70 velocity=72 time=0
EXTRACT: note_on channel=10 note=70 velocity=72 time=0
EXTRACT: note_off channel=3 note=60 velocity=0 time=0.02163421875
EXTRACT: note_off channel=4 note=72 velocity=0 time=0
EXTRACT: note_off channel=5 note=67 velocity=0 time=0.34133989583333335
EXTRACT: note_off channel=10 note=67 velocity=0 time=0
EXTRACT: note_off channel=5 note=63 velocity=0 time=0.004807604166666667
EXTRACT: note_off channel=10 note=63 velocity=0 time=0
EXTRACT: note_off channel=5 note=70 velocity=0 time=0.05288364583333333
EXTRACT: note_off channel=10 note=70 velocity=0 time=0
EXTRACT: note_on channel=5 note=63 velocity=70 time=0.04086463541666667
EXTRACT: note_on channel=5 note=67 velocity=60 time=0
EXTRACT: note_on channel=10 note=63 velocity=70 time=0
EXTRACT: note_on channel=10 note=67 velocity=60 time=0
EXTRACT: note_off channel=5 note=55 velocity=0 time=0.07692166666666667
EXTRACT: note_off channel=10 note=55 velocity=0 time=0
EXTRACT: note_off channel=5 note=58 velocity=0 time=0.016826614583333333
EXTRACT: note_off channel=10 note=58 velocity=0 time=0
EXTRACT: note_off channel=5 note=51 velocity=0 time=0.0024038020833333333
EXTRACT: note_off channel=10 note=51 velocity=0 time=0
EXTRACT: note_off channel=5 note=63 velocity=0 time=0.016826614583333333
EXTRACT: note_off channel=10 note=63 velocity=0 time=0
EXTRACT: note_off channel=5 note=67 velocity=0 time=0.036057031249999996
EXTRACT: note_off channel=10 note=67 velocity=0 time=0
EXTRACT: note_on channel=3 note=62 velocity=97 time=0.08172927083333334
EXTRACT: note_on channel=4 note=74 velocity=87 time=0
EXTRACT: note_on channel=5 note=46 velocity=56 time=0
EXTRACT: note_on channel=5 note=53 velocity=54 time=0
EXTRACT: note_on channel=5 note=58 velocity=63 time=0
EXTRACT: note_on channel=5 note=62 velocity=61 time=0
EXTRACT: note_on channel=5 note=65 velocity=66 time=0
EXTRACT: note_on channel=7 note=65 velocity=46 time=0
EXTRACT: note_on channel=10 note=46 velocity=56 time=0
EXTRACT: note_on channel=10 note=53 velocity=54 time=0
EXTRACT: note_on channel=10 note=58 velocity=63 time=0
EXTRACT: note_on channel=10 note=62 velocity=61 time=0
EXTRACT: note_on channel=10 note=65 velocity=66 time=0
EXTRACT: note_off channel=3 note=58 velocity=0 time=0.07091216145833333
EXTRACT: note_off channel=4 note=70 velocity=0 time=0
EXTRACT: note_on channel=5 note=70 velocity=72 time=0.15985283854166665
EXTRACT: note_on channel=10 note=70 velocity=72 time=0
EXTRACT: note_off channel=5 note=65 velocity=0 time=0.36537791666666664
EXTRACT: note_off channel=10 note=65 velocity=0 time=0
EXTRACT: note_off channel=5 note=62 velocity=0 time=0.02163421875
EXTRACT: note_off channel=10 note=62 velocity=0 time=0
EXTRACT: note_off channel=5 note=46 velocity=0 time=0.06490265625
EXTRACT: note_off channel=10 note=46 velocity=0 time=0
EXTRACT: note_on channel=3 note=58 velocity=97 time=0.009615208333333333
EXTRACT: note_on channel=4 note=70 velocity=87 time=0
EXTRACT: note_on channel=5 note=62 velocity=31 time=0
EXTRACT: note_on channel=5 note=65 velocity=55 time=0
EXTRACT: note_on channel=10 note=62 velocity=31 time=0
EXTRACT: note_on channel=10 note=65 velocity=55 time=0
EXTRACT: note_off channel=5 note=53 velocity=0 time=0.00721140625
EXTRACT: note_off channel=10 note=53 velocity=0 time=0
EXTRACT: note_off channel=5 note=70 velocity=0 time=0.0144228125
EXTRACT: note_off channel=10 note=70 velocity=0 time=0
EXTRACT: note_off channel=5 note=62 velocity=0 time=0.05288364583333333
EXTRACT: note_off channel=10 note=62 velocity=0 time=0
EXTRACT: note_off channel=5 note=58 velocity=0 time=0.036057031249999996
EXTRACT: note_off channel=10 note=58 velocity=0 time=0
EXTRACT: note_off channel=5 note=65 velocity=0 time=0.009615208333333333
EXTRACT: note_off channel=10 note=65 velocity=0 time=0
EXTRACT: note_off channel=3 note=62 velocity=0 time=0.037258932291666665
EXTRACT: note_off channel=4 note=74 velocity=0 time=0
EXTRACT: note_on channel=5 note=46 velocity=54 time=0.07331596354166667
EXTRACT: note_on channel=5 note=53 velocity=55 time=0
EXTRACT: note_on channel=5 note=58 velocity=52 time=0
EXTRACT: note_on channel=5 note=62 velocity=54 time=0
EXTRACT: note_on channel=5 note=65 velocity=61 time=0
EXTRACT: note_on channel=10 note=46 velocity=54 time=0
EXTRACT: note_on channel=10 note=53 velocity=55 time=0
EXTRACT: note_on channel=10 note=58 velocity=52 time=0
EXTRACT: note_on channel=10 note=62 velocity=54 time=0
EXTRACT: note_on channel=10 note=65 velocity=61 time=0
EXTRACT: note_off channel=5 note=62 velocity=0 time=0.14903572916666666
EXTRACT: note_off channel=10 note=62 velocity=0 time=0
EXTRACT: note_on channel=5 note=62 velocity=48 time=0.08172927083333334
EXTRACT: note_on channel=5 note=70 velocity=78 time=0
EXTRACT: note_on channel=10 note=62 velocity=48 time=0
EXTRACT: note_on channel=10 note=70 velocity=78 time=0
EXTRACT: note_off channel=5 note=65 velocity=0 time=0.3918197395833333
EXTRACT: note_off channel=10 note=65 velocity=0 time=0
EXTRACT: note_on channel=5 note=65 velocity=61 time=0.06971026041666667
EXTRACT: note_on channel=10 note=65 velocity=61 time=0
EXTRACT: note_off channel=5 note=53 velocity=0 time=0.0432684375
EXTRACT: note_off channel=10 note=53 velocity=0 time=0
EXTRACT: note_off channel=5 note=46 velocity=0 time=0.05047984375
EXTRACT: note_off channel=10 note=46 velocity=0 time=0
EXTRACT: note_off channel=5 note=70 velocity=0 time=0.012019010416666667
EXTRACT: note_off channel=10 note=70 velocity=0 time=0
EXTRACT: note_off channel=5 note=62 velocity=0 time=0.019230416666666666
EXTRACT: note_off channel=10 note=62 velocity=0 time=0
EXTRACT: note_off channel=5 note=58 velocity=0 time=0.026441822916666666
EXTRACT: note_off channel=10 note=58 velocity=0 time=0
EXTRACT: note_on channel=3 note=63 velocity=97 time=0.07932546875
EXTRACT: note_on channel=4 note=75 velocity=87 time=0
EXTRACT: note_on channel=5 note=48 velocity=54 time=0
EXTRACT: note_on channel=5 note=51 velocity=56 time=0
EXTRACT: note_on channel=5 note=55 velocity=54 time=0
EXTRACT: note_on channel=5 note=58 velocity=47 time=0
EXTRACT: note_on channel=5 note=63 velocity=70 time=0
EXTRACT: note_on channel=5 note=67 velocity=60 time=0
EXTRACT: note_on channel=10 note=48 velocity=54 time=0
EXTRACT: note_on channel=10 note=51 velocity=56 time=0
EXTRACT: note_on channel=10 note=55 velocity=54 time=0
EXTRACT: note_on channel=10 note=58 velocity=47 time=0
EXTRACT: note_on channel=10 note=63 velocity=70 time=0
EXTRACT: note_on channel=10 note=67 velocity=60 time=0
EXTRACT: note_off channel=3 note=58 velocity=0 time=0.03846083333333333
EXTRACT: note_off channel=4 note=70 velocity=0 time=0
EXTRACT: note_off channel=5 note=65 velocity=0 time=0.0024038020833333333
EXTRACT: note_off channel=10 note=65 velocity=0 time=0
EXTRACT: note_on channel=5 note=70 velocity=78 time=0.18990036458333334
EXTRACT: note_on channel=10 note=70 velocity=78 time=0
EXTRACT: note_on channel=3 note=62 velocity=97 time=0.230765
EXTRACT: note_on channel=4 note=74 velocity=87 time=0
EXTRACT: note_off channel=3 note=63 velocity=0 time=0.10336348958333333
EXTRACT: note_off channel=4 note=75 velocity=0 time=0
EXTRACT: note_off channel=5 note=63 velocity=0 time=0.07451786458333333
EXTRACT: note_off channel=10 note=63 velocity=0 time=0
EXTRACT: note_off channel=5 note=67 velocity=0 time=0.009615208333333333
EXTRACT: note_off channel=10 note=67 velocity=0 time=0
EXTRACT: note_on channel=3 note=60 velocity=97 time=0.0432684375
EXTRACT: note_on channel=4 note=72 velocity=87 time=0
EXTRACT: note_on channel=5 note=63 velocity=61 time=0
EXTRACT: note_on channel=5 note=67 velocity=64 time=0
EXTRACT: note_on channel=10 note=63 velocity=61 time=0
EXTRACT: note_on channel=10 note=67 velocity=64 time=0
EXTRACT: note_off channel=5 note=70 velocity=0 time=0.012019010416666667
EXTRACT: note_off channel=10 note=70 velocity=0 time=0
EXTRACT: note_off channel=3 note=62 velocity=0 time=0.030047526041666668
EXTRACT: note_off channel=4 note=74 velocity=0 time=0
EXTRACT: note_off channel=5 note=63 velocity=0 time=0.061296953125
EXTRACT: note_off channel=10 note=63 velocity=0 time=0
EXTRACT: note_off channel=5 note=67 velocity=0 time=0.04567223958333333
EXTRACT: note_off channel=10 note=67 velocity=0 time=0
EXTRACT: note_off channel=5 note=58 velocity=0 time=0.0024038020833333333
EXTRACT: note_off channel=10 note=58 velocity=0 time=0
EXTRACT: note_on channel=5 note=58 velocity=61 time=0.07932546875
EXTRACT: note_on channel=5 note=63 velocity=64 time=0
EXTRACT: note_on channel=5 note=67 velocity=48 time=0
EXTRACT: note_on channel=10 note=58 velocity=61 time=0
EXTRACT: note_on channel=10 note=63 velocity=64 time=0
EXTRACT: note_on channel=10 note=67 velocity=48 time=0
EXTRACT: note_on channel=3 note=58 velocity=97 time=0.230765
EXTRACT: note_on channel=4 note=70 velocity=87 time=0
EXTRACT: note_on channel=5 note=70 velocity=78 time=0
EXTRACT: note_on channel=10 note=70 velocity=78 time=0
EXTRACT: note_off channel=3 note=60 velocity=0 time=0.025239921875
EXTRACT: note_off channel=4 note=72 velocity=0 time=0
EXTRACT: note_off channel=3 note=58 velocity=0 time=0.14543002604166666
EXTRACT: note_off channel=4 note=70 velocity=0 time=0
EXTRACT: note_on channel=3 note=62 velocity=97 time=0.060095052083333336
EXTRACT: note_on channel=4 note=74 velocity=87 time=0
EXTRACT: note_off channel=5 note=67 velocity=0 time=0.004807604166666667
EXTRACT: note_off channel=10 note=67 velocity=0 time=0
EXTRACT: note_off channel=5 note=70 velocity=0 time=0.2163421875
EXTRACT: note_off channel=10 note=70 velocity=0 time=0
EXTRACT: note_on channel=5 note=67 velocity=66 time=0.009615208333333333
EXTRACT: note_on channel=10 note=67 velocity=66 time=0
EXTRACT: note_off channel=5 note=51 velocity=0 time=0.031249427083333333
EXTRACT: note_off channel=10 note=51 velocity=0 time=0
EXTRACT: note_off channel=5 note=55 velocity=0 time=0.004807604166666667
EXTRACT: note_off channel=10 note=55 velocity=0 time=0
EXTRACT: note_off channel=5 note=48 velocity=0 time=0.028845625
EXTRACT: note_off channel=10 note=48 velocity=0 time=0
EXTRACT: note_off channel=5 note=63 velocity=0 time=0.062498854166666666
EXTRACT: note_off channel=10 note=63 velocity=0 time=0
EXTRACT: note_off channel=5 note=58 velocity=0 time=0.0024038020833333333
EXTRACT: note_off channel=10 note=58 velocity=0 time=0
EXTRACT: note_off channel=5 note=67 velocity=0 time=0.09134447916666666
EXTRACT: note_off channel=10 note=67 velocity=0 time=0
EXTRACT: note_on channel=5 note=50 velocity=54 time=0.009615208333333333
EXTRACT: note_on channel=5 note=53 velocity=60 time=0
EXTRACT: note_on channel=5 note=57 velocity=52 time=0
EXTRACT: note_on channel=5 note=62 velocity=61 time=0
EXTRACT: note_on channel=5 note=65 velocity=66 time=0
EXTRACT: note_on channel=10 note=50 velocity=54 time=0
EXTRACT: note_on channel=10 note=53 velocity=60 time=0
EXTRACT: note_on channel=10 note=57 velocity=52 time=0
EXTRACT: note_on channel=10 note=62 velocity=61 time=0
EXTRACT: note_on channel=10 note=65 velocity=66 time=0
EXTRACT: note_on channel=5 note=69 velocity=81 time=0.230765
EXTRACT: note_on channel=10 note=69 velocity=81 time=0
EXTRACT: note_off channel=5 note=62 velocity=0 time=0.3798007291666667
EXTRACT: note_off channel=10 note=62 velocity=0 time=0
EXTRACT: note_off channel=5 note=65 velocity=0 time=0.026441822916666666
EXTRACT: note_off channel=10 note=65 velocity=0 time=0
EXTRACT: note_on channel=5 note=62 velocity=58 time=0.05528744791666666
EXTRACT: note_on channel=5 note=65 velocity=72 time=0
EXTRACT: note_on channel=10 note=62 velocity=58 time=0
EXTRACT: note_on channel=10 note=65 velocity=72 time=0
EXTRACT: note_off channel=5 note=69 velocity=0 time=0.04567223958333333
EXTRACT: note_off channel=10 note=69 velocity=0 time=0
EXTRACT: note_off channel=5 note=57 velocity=0 time=0.05528744791666666
EXTRACT: note_off channel=10 note=57 velocity=0 time=0
EXTRACT: note_off channel=5 note=53 velocity=0 time=0.004807604166666667
EXTRACT: note_off channel=10 note=53 velocity=0 time=0
EXTRACT: note_off channel=5 note=50 velocity=0 time=0.004807604166666667
EXTRACT: note_off channel=10 note=50 velocity=0 time=0
EXTRACT: note_off channel=5 note=62 velocity=0 time=0.04567223958333333
EXTRACT: note_off channel=10 note=62 velocity=0 time=0
EXTRACT: note_off channel=5 note=65 velocity=0 time=0.016826614583333333
EXTRACT: note_off channel=10 note=65 velocity=0 time=0
EXTRACT: note_on channel=5 note=50 velocity=63 time=0.05769125
EXTRACT: note_on channel=5 note=53 velocity=56 time=0
EXTRACT: note_on channel=5 note=57 velocity=66 time=0
EXTRACT: note_on channel=5 note=62 velocity=51 time=0
EXTRACT: note_on channel=5 note=65 velocity=70 time=0
EXTRACT: note_on channel=10 note=50 velocity=63 time=0
EXTRACT: note_on channel=10 note=53 velocity=56 time=0
EXTRACT: note_on channel=10 note=57 velocity=66 time=0
EXTRACT: note_on channel=10 note=62 velocity=51 time=0
EXTRACT: note_on channel=10 note=65 velocity=70 time=0
EXTRACT: note_on channel=5 note=69 velocity=85 time=0.230765
EXTRACT: note_on channel=10 note=69 velocity=85 time=0
EXTRACT: note_off channel=5 note=65 velocity=0 time=0.29326385416666667
EXTRACT: note_off channel=10 note=65 velocity=0 time=0
EXTRACT: note_off channel=5 note=50 velocity=0 time=0.08172927083333334
EXTRACT: note_off channel=10 note=50 velocity=0 time=0
EXTRACT: note_off channel=5 note=53 velocity=0 time=0.033653229166666666
EXTRACT: note_off channel=10 note=53 velocity=0 time=0
EXTRACT: note_on channel=5 note=65 velocity=72 time=0.05288364583333333
EXTRACT: note_on channel=10 note=65 velocity=72 time=0
EXTRACT: note_off channel=5 note=57 velocity=0 time=0.016826614583333333
EXTRACT: note_off channel=10 note=57 velocity=0 time=0
EXTRACT: note_off channel=5 note=69 velocity=0 time=0.0024038020833333333
EXTRACT: note_off channel=10 note=69 velocity=0 time=0
EXTRACT: note_off channel=5 note=62 velocity=0 time=0.026441822916666666
EXTRACT: note_off channel=10 note=62 velocity=0 time=0
EXTRACT: note_off channel=7 note=65 velocity=0 time=0.06730645833333333
EXTRACT: note_on channel=5 note=51 velocity=57 time=0.11778630208333334
EXTRACT: note_on channel=5 note=55 velocity=60 time=0
EXTRACT: note_on channel=5 note=58 velocity=64 time=0
EXTRACT: note_on channel=5 note=63 velocity=72 time=0
EXTRACT: note_on channel=5 note=67 velocity=66 time=0
EXTRACT: note_on channel=7 note=67 velocity=54 time=0
EXTRACT: note_on channel=10 note=51 velocity=57 time=0
EXTRACT: note_on channel=10 note=55 velocity=60 time=0
EXTRACT: note_on channel=10 note=58 velocity=64 time=0
EXTRACT: note_on channel=10 note=63 velocity=72 time=0
EXTRACT: note_on channel=10 note=67 velocity=66 time=0
EXTRACT: note_off channel=5 note=65 velocity=0 time=0.0144228125
EXTRACT: note_off channel=10 note=65 velocity=0 time=0
EXTRACT: note_on channel=5 note=70 velocity=72 time=0.2163421875
EXTRACT: note_on channel=10 note=70 velocity=72 time=0
EXTRACT: note_off channel=3 note=62 velocity=0 time=0.29446575520833335
EXTRACT: note_off channel=4 note=74 velocity=0 time=0
EXTRACT: note_off channel=5 note=63 velocity=0 time=0.06610455729166667
EXTRACT: note_off channel=5 note=58 velocity=0 time=0
EXTRACT: note_off channel=10 note=63 velocity=0 time=0
EXTRACT: note_off channel=10 note=58 velocity=0 time=0
EXTRACT: note_off channel=5 note=70 velocity=0 time=0.05047984375
EXTRACT: note_off channel=5 note=67 velocity=0 time=0
EXTRACT: note_off channel=10 note=70 velocity=0 time=0
EXTRACT: note_off channel=10 note=67 velocity=0 time=0
EXTRACT: note_on channel=5 note=58 velocity=61 time=0.05047984375
EXTRACT: note_on channel=5 note=63 velocity=70 time=0
EXTRACT: note_on channel=5 note=67 velocity=85 time=0
EXTRACT: note_on channel=10 note=58 velocity=61 time=0
EXTRACT: note_on channel=10 note=63 velocity=70 time=0
EXTRACT: note_on channel=10 note=67 velocity=85 time=0
EXTRACT: note_off channel=5 note=55 velocity=0 time=0.0432684375
EXTRACT: note_off channel=10 note=55 velocity=0 time=0
EXTRACT: note_off channel=5 note=51 velocity=0 time=0.004807604166666667
EXTRACT: note_off channel=10 note=51 velocity=0 time=0
EXTRACT: note_off channel=5 note=58 velocity=0 time=0.06490265625
EXTRACT: note_off channel=10 note=58 velocity=0 time=0
EXTRACT: note_off channel=5 note=63 velocity=0 time=0.0024038020833333333
EXTRACT: note_off channel=10 note=63 velocity=0 time=0
EXTRACT: note_off channel=5 note=67 velocity=0 time=0.04086463541666667
EXTRACT: note_off channel=10 note=67 velocity=0 time=0
EXTRACT: note_on channel=5 note=51 velocity=52 time=0.07451786458333333
EXTRACT: note_on channel=5 note=55 velocity=60 time=0
EXTRACT: note_on channel=5 note=58 velocity=57 time=0
EXTRACT: note_on channel=5 note=63 velocity=70 time=0
EXTRACT: note_on channel=5 note=67 velocity=66 time=0
EXTRACT: note_on channel=10 note=51 velocity=52 time=0
EXTRACT: note_on channel=10 note=55 velocity=60 time=0
EXTRACT: note_on channel=10 note=58 velocity=57 time=0
EXTRACT: note_on channel=10 note=63 velocity=70 time=0
EXTRACT: note_on channel=10 note=67 velocity=66 time=0
EXTRACT: note_on channel=5 note=70 velocity=72 time=0.230765
EXTRACT: note_on channel=10 note=70 velocity=72 time=0
EXTRACT: note_off channel=5 note=67 velocity=0 time=0.36297411458333334
EXTRACT: note_off channel=10 note=67 velocity=0 time=0
EXTRACT: note_off channel=5 note=63 velocity=0 time=0.004807604166666667
EXTRACT: note_off channel=10 note=63 velocity=0 time=0
EXTRACT: note_off channel=5 note=70 velocity=0 time=0.05288364583333333
EXTRACT: note_off channel=10 note=70 velocity=0 time=0
EXTRACT: note_on channel=5 note=63 velocity=70 time=0.04086463541666667
EXTRACT: note_on channel=5 note=67 velocity=60 time=0
EXTRACT: note_on channel=10 note=63 velocity=70 time=0
EXTRACT: note_on channel=10 note=67 velocity=60 time=0
EXTRACT: note_off channel=7 note=67 velocity=0 time=0.060095052083333336
EXTRACT: note_off channel=5 note=55 velocity=0 time=0.016826614583333333
EXTRACT: note_off channel=10 note=55 velocity=0 time=0
EXTRACT: note_off channel=5 note=58 velocity=0 time=0.016826614583333333
EXTRACT: note_off channel=10 note=58 velocity=0 time=0
EXTRACT: note_off channel=5 note=51 velocity=0 time=0.0024038020833333333
EXTRACT: note_off channel=10 note=51 velocity=0 time=0
EXTRACT: note_off channel=5 note=63 velocity=0 time=0.016826614583333333
EXTRACT: note_off channel=10 note=63 velocity=0 time=0
EXTRACT: note_off channel=5 note=67 velocity=0 time=0.036057031249999996
EXTRACT: note_off channel=10 note=67 velocity=0 time=0
EXTRACT: note_on channel=5 note=46 velocity=56 time=0.08172927083333334
EXTRACT: note_on channel=5 note=53 velocity=54 time=0
EXTRACT: note_on channel=5 note=58 velocity=63 time=0
EXTRACT: note_on channel=5 note=62 velocity=61 time=0
EXTRACT: note_on channel=5 note=65 velocity=66 time=0
EXTRACT: note_on channel=7 note=65 velocity=51 time=0
EXTRACT: note_on channel=10 note=46 velocity=56 time=0
EXTRACT: note_on channel=10 note=53 velocity=54 time=0
EXTRACT: note_on channel=10 note=58 velocity=63 time=0
EXTRACT: note_on channel=10 note=62 velocity=61 time=0
EXTRACT: note_on channel=10 note=65 velocity=66 time=0
EXTRACT: note_on channel=3 note=62 velocity=97 time=0.230765
EXTRACT: note_on channel=4 note=74 velocity=87 time=0
EXTRACT: note_on channel=5 note=70 velocity=72 time=0
EXTRACT: note_on channel=10 note=70 velocity=72 time=0
EXTRACT: note_off channel=3 note=62 velocity=0 time=0.126199609375
EXTRACT: note_off channel=4 note=74 velocity=0 time=0
EXTRACT: note_on channel=3 note=62 velocity=97 time=0.104565390625
EXTRACT: note_on channel=4 note=74 velocity=87 time=0
EXTRACT: note_off channel=3 note=62 velocity=0 time=0.12860341145833334
EXTRACT: note_off channel=4 note=74 velocity=0 time=0
EXTRACT: note_off channel=5 note=65 velocity=0 time=0.006009505208333333
EXTRACT: note_off channel=10 note=65 velocity=0 time=0
EXTRACT: note_off channel=5 note=62 velocity=0 time=0.02163421875
EXTRACT: note_off channel=10 note=62 velocity=0 time=0
EXTRACT: note_off channel=5 note=46 velocity=0 time=0.06490265625
EXTRACT: note_off channel=10 note=46 velocity=0 time=0
EXTRACT: note_on channel=3 note=62 velocity=97 time=0.009615208333333333
EXTRACT: note_on channel=4 note=74 velocity=87 time=0
EXTRACT: note_on channel=5 note=62 velocity=31 time=0
EXTRACT: note_on channel=5 note=65 velocity=55 time=0
EXTRACT: note_on channel=10 note=62 velocity=31 time=0
EXTRACT: note_on channel=10 note=65 velocity=55 time=0
EXTRACT: note_off channel=5 note=53 velocity=0 time=0.00721140625
EXTRACT: note_off channel=10 note=53 velocity=0 time=0
EXTRACT: note_off channel=5 note=70 velocity=0 time=0.0144228125
EXTRACT: note_off channel=10 note=70 velocity=0 time=0
EXTRACT: note_off channel=5 note=62 velocity=0 time=0.05288364583333333
EXTRACT: note_off channel=10 note=62 velocity=0 time=0
EXTRACT: note_off channel=5 note=58 velocity=0 time=0.036057031249999996
EXTRACT: note_off channel=10 note=58 velocity=0 time=0
EXTRACT: note_off channel=5 note=65 velocity=0 time=0.009615208333333333
EXTRACT: note_off channel=10 note=65 velocity=0 time=0
EXTRACT: note_off channel=3 note=62 velocity=0 time=0.006009505208333333
EXTRACT: note_off channel=4 note=74 velocity=0 time=0
EXTRACT: note_on channel=3 note=62 velocity=97 time=0.104565390625
EXTRACT: note_on channel=4 note=74 velocity=87 time=0
EXTRACT: note_on channel=5 note=46 velocity=54 time=0
EXTRACT: note_on channel=5 note=53 velocity=55 time=0
EXTRACT: note_on channel=5 note=58 velocity=52 time=0
EXTRACT: note_on channel=5 note=62 velocity=54 time=0
EXTRACT: note_on channel=5 note=65 velocity=61 time=0
EXTRACT: note_on channel=10 note=46 velocity=54 time=0
EXTRACT: note_on channel=10 note=53 velocity=55 time=0
EXTRACT: note_on channel=10 note=58 velocity=52 time=0
EXTRACT: note_on channel=10 note=62 velocity=54 time=0
EXTRACT: note_on channel=10 note=65 velocity=61 time=0
EXTRACT: note_off channel=5 note=62 velocity=0 time=0.14903572916666666
EXTRACT: note_off channel=10 note=62 velocity=0 time=0
EXTRACT: note_on channel=5 note=62 velocity=48 time=0.08172927083333334
EXTRACT: note_on channel=5 note=70 velocity=78 time=0
EXTRACT: note_on channel=10 note=62 velocity=48 time=0
EXTRACT: note_on channel=10 note=70 velocity=78 time=0
EXTRACT: note_off channel=3 note=62 velocity=0 time=0.21393838541666665
EXTRACT: note_off channel=4 note=74 velocity=0 time=0
EXTRACT: note_on channel=3 note=62 velocity=97 time=0.016826614583333333
EXTRACT: note_on channel=4 note=74 velocity=87 time=0
EXTRACT: note_off channel=5 note=65 velocity=0 time=0.16105473958333333
EXTRACT: note_off channel=10 note=65 velocity=0 time=0
EXTRACT: note_off channel=3 note=62 velocity=0 time=0.02163421875
EXTRACT: note_off channel=4 note=74 velocity=0 time=0
EXTRACT: note_on channel=3 note=65 velocity=97 time=0.048076041666666666
EXTRACT: note_on channel=4 note=77 velocity=87 time=0
EXTRACT: note_on channel=5 note=65 velocity=61 time=0
EXTRACT: note_on channel=10 note=65 velocity=61 time=0
EXTRACT: note_off channel=5 note=53 velocity=0 time=0.0432684375
EXTRACT: note_off channel=10 note=53 velocity=0 time=0
EXTRACT: note_off channel=5 note=46 velocity=0 time=0.05047984375
EXTRACT: note_off channel=10 note=46 velocity=0 time=0
EXTRACT: note_off channel=5 note=70 velocity=0 time=0.012019010416666667
EXTRACT: note_off channel=10 note=70 velocity=0 time=0
EXTRACT: note_off channel=5 note=62 velocity=0 time=0.019230416666666666
EXTRACT: note_off channel=10 note=62 velocity=0 time=0
EXTRACT: note_off channel=5 note=58 velocity=0 time=0.026441822916666666
EXTRACT: note_off channel=10 note=58 velocity=0 time=0
EXTRACT: note_on channel=5 note=48 velocity=54 time=0.07932546875
EXTRACT: note_on channel=5 note=51 velocity=56 time=0
EXTRACT: note_on channel=5 note=55 velocity=54 time=0
EXTRACT: note_on channel=5 note=58 velocity=47 time=0
EXTRACT: note_on channel=5 note=63 velocity=70 time=0
EXTRACT: note_on channel=5 note=67 velocity=60 time=0
EXTRACT: note_on channel=10 note=48 velocity=54 time=0
EXTRACT: note_on channel=10 note=51 velocity=56 time=0
EXTRACT: note_on channel=10 note=55 velocity=54 time=0
EXTRACT: note_on channel=10 note=58 velocity=47 time=0
EXTRACT: note_on channel=10 note=63 velocity=70 time=0
EXTRACT: note_on channel=10 note=67 velocity=60 time=0
EXTRACT: note_off channel=5 note=65 velocity=0 time=0.04086463541666667
EXTRACT: note_off channel=10 note=65 velocity=0 time=0
EXTRACT: note_off channel=3 note=65 velocity=0 time=0.118988203125
EXTRACT: note_off channel=4 note=77 velocity=0 time=0
EXTRACT: note_on channel=3 note=65 velocity=97 time=0.07091216145833333
EXTRACT: note_on channel=4 note=77 velocity=87 time=0
EXTRACT: note_on channel=5 note=70 velocity=78 time=0
EXTRACT: note_on channel=10 note=70 velocity=78 time=0
EXTRACT: note_off channel=3 note=65 velocity=0 time=0.40263684895833335
EXTRACT: note_off channel=4 note=77 velocity=0 time=0
EXTRACT: note_off channel=5 note=63 velocity=0 time=0.006009505208333333
EXTRACT: note_off channel=10 note=63 velocity=0 time=0
EXTRACT: note_off channel=5 note=67 velocity=0 time=0.009615208333333333
EXTRACT: note_off channel=10 note=67 velocity=0 time=0
EXTRACT: note_on channel=3 note=65 velocity=97 time=0.0432684375
EXTRACT: note_on channel=4 note=77 velocity=87 time=0
EXTRACT: note_on channel=5 note=63 velocity=61 time=0
EXTRACT: note_on channel=5 note=67 velocity=64 time=0
EXTRACT: note_on channel=10 note=63 velocity=61 time=0
EXTRACT: note_on channel=10 note=67 velocity=64 time=0
EXTRACT: note_off channel=5 note=70 velocity=0 time=0.012019010416666667
EXTRACT: note_off channel=10 note=70 velocity=0 time=0
EXTRACT: note_off channel=5 note=63 velocity=0 time=0.09134447916666666
EXTRACT: note_off channel=10 note=63 velocity=0 time=0
EXTRACT: note_off channel=5 note=67 velocity=0 time=0.04567223958333333
EXTRACT: note_off channel=10 note=67 velocity=0 time=0
EXTRACT: note_off channel=5 note=58 velocity=0 time=0.0024038020833333333
EXTRACT: note_off channel=10 note=58 velocity=0 time=0
EXTRACT: note_on channel=5 note=58 velocity=61 time=0.07932546875
EXTRACT: note_on channel=5 note=63 velocity=64 time=0
EXTRACT: note_on channel=5 note=67 velocity=48 time=0
EXTRACT: note_on channel=10 note=58 velocity=61 time=0
EXTRACT: note_on channel=10 note=63 velocity=64 time=0
EXTRACT: note_on channel=10 note=67 velocity=48 time=0
EXTRACT: note_on channel=3 note=62 velocity=97 time=0.230765
EXTRACT: note_on channel=4 note=74 velocity=87 time=0
EXTRACT: note_on channel=5 note=70 velocity=78 time=0
EXTRACT: note_on channel=10 note=70 velocity=78 time=0
EXTRACT: note_off channel=3 note=65 velocity=0 time=0.06971026041666667
EXTRACT: note_off channel=4 note=77 velocity=0 time=0
EXTRACT: note_off channel=5 note=67 velocity=0 time=0.16586234375
EXTRACT: note_off channel=10 note=67 velocity=0 time=0
EXTRACT: note_off channel=3 note=62 velocity=0 time=0.20312127604166666
EXTRACT: note_off channel=4 note=74 velocity=0 time=0
EXTRACT: note_off channel=5 note=70 velocity=0 time=0.013220911458333333
EXTRACT: note_off channel=10 note=70 velocity=0 time=0
EXTRACT: note_on channel=3 note=62 velocity=97 time=0.009615208333333333
EXTRACT: note_on channel=4 note=74 velocity=87 time=0
EXTRACT: note_on channel=5 note=67 velocity=66 time=0
EXTRACT: note_on channel=10 note=67 velocity=66 time=0
EXTRACT: note_off channel=5 note=51 velocity=0 time=0.031249427083333333
EXTRACT: note_off channel=10 note=51 velocity=0 time=0
EXTRACT: note_off channel=5 note=55 velocity=0 time=0.004807604166666667
EXTRACT: note_off channel=10 note=55 velocity=0 time=0
EXTRACT: note_off channel=7 note=65 velocity=0 time=0.026441822916666666
EXTRACT: note_off channel=5 note=48 velocity=0 time=0.0024038020833333333
EXTRACT: note_off channel=10 note=48 velocity=0 time=0
EXTRACT: note_off channel=5 note=63 velocity=0 time=0.062498854166666666
EXTRACT: note_off channel=10 note=63 velocity=0 time=0
EXTRACT: note_off channel=5 note=58 velocity=0 time=0.0024038020833333333
EXTRACT: note_off channel=10 note=58 velocity=0 time=0
EXTRACT: note_off channel=5 note=67 velocity=0 time=0.09134447916666666
EXTRACT: note_off channel=10 note=67 velocity=0 time=0
EXTRACT: note_on channel=5 note=50 velocity=54 time=0.009615208333333333
EXTRACT: note_on channel=5 note=53 velocity=60 time=0
EXTRACT: note_on channel=5 note=57 velocity=52 time=0
EXTRACT: note_on channel=5 note=62 velocity=61 time=0
EXTRACT: note_on channel=5 note=65 velocity=66 time=0
EXTRACT: note_on channel=7 note=65 velocity=44 time=0
EXTRACT: note_on channel=10 note=50 velocity=54 time=0
EXTRACT: note_on channel=10 note=53 velocity=60 time=0
EXTRACT: note_on channel=10 note=57 velocity=52 time=0
EXTRACT: note_on channel=10 note=62 velocity=61 time=0
EXTRACT: note_on channel=10 note=65 velocity=66 time=0
EXTRACT: note_on channel=5 note=69 velocity=81 time=0.230765
EXTRACT: note_on channel=10 note=69 velocity=81 time=0
EXTRACT: note_off channel=5 note=62 velocity=0 time=0.3798007291666667
EXTRACT: note_off channel=10 note=62 velocity=0 time=0
EXTRACT: note_off channel=5 note=65 velocity=0 time=0.026441822916666666
EXTRACT: note_off channel=10 note=65 velocity=0 time=0
EXTRACT: note_on channel=5 note=62 velocity=58 time=0.05528744791666666
EXTRACT: note_on channel=5 note=65 velocity=72 time=0
EXTRACT: note_on channel=10 note=62 velocity=58 time=0
EXTRACT: note_on channel=10 note=65 velocity=72 time=0
EXTRACT: note_off channel=5 note=69 velocity=0 time=0.04567223958333333
EXTRACT: note_off channel=10 note=69 velocity=0 time=0
EXTRACT: note_off channel=5 note=57 velocity=0 time=0.05528744791666666
EXTRACT: note_off channel=10 note=57 velocity=0 time=0
EXTRACT: note_off channel=5 note=53 velocity=0 time=0.004807604166666667
EXTRACT: note_off channel=10 note=53 velocity=0 time=0
EXTRACT: note_off channel=5 note=50 velocity=0 time=0.004807604166666667
EXTRACT: note_off channel=10 note=50 velocity=0 time=0
EXTRACT: note_off channel=5 note=62 velocity=0 time=0.04567223958333333
EXTRACT: note_off channel=10 note=62 velocity=0 time=0
EXTRACT: note_off channel=5 note=65 velocity=0 time=0.016826614583333333
EXTRACT: note_off channel=10 note=65 velocity=0 time=0
EXTRACT: note_on channel=5 note=50 velocity=63 time=0.05769125
EXTRACT: note_on channel=5 note=53 velocity=56 time=0
EXTRACT: note_on channel=5 note=57 velocity=66 time=0
EXTRACT: note_on channel=5 note=62 velocity=51 time=0
EXTRACT: note_on channel=5 note=65 velocity=70 time=0
EXTRACT: note_on channel=10 note=50 velocity=63 time=0
EXTRACT: note_on channel=10 note=53 velocity=56 time=0
EXTRACT: note_on channel=10 note=57 velocity=66 time=0
EXTRACT: note_on channel=10 note=62 velocity=51 time=0
EXTRACT: note_on channel=10 note=65 velocity=70 time=0
EXTRACT: note_on channel=5 note=69 velocity=85 time=0.230765
EXTRACT: note_on channel=10 note=69 velocity=85 time=0
EXTRACT: note_off channel=5 note=65 velocity=0 time=0.29326385416666667
EXTRACT: note_off channel=10 note=65 velocity=0 time=0
EXTRACT: note_off channel=5 note=50 velocity=0 time=0.08172927083333334
EXTRACT: note_off channel=10 note=50 velocity=0 time=0
EXTRACT: note_off channel=3 note=62 velocity=0 time=0.013220911458333333
EXTRACT: note_off channel=4 note=74 velocity=0 time=0
EXTRACT: note_off channel=5 note=53 velocity=0 time=0.020432317708333335
EXTRACT: note_off channel=10 note=53 velocity=0 time=0
EXTRACT: note_on channel=5 note=65 velocity=72 time=0.05288364583333333
EXTRACT: note_on channel=10 note=65 velocity=72 time=0
EXTRACT: note_off channel=5 note=57 velocity=0 time=0.016826614583333333
EXTRACT: note_off channel=10 note=57 velocity=0 time=0
EXTRACT: note_off channel=5 note=69 velocity=0 time=0.0024038020833333333
EXTRACT: note_off channel=10 note=69 velocity=0 time=0
EXTRACT: note_off channel=5 note=62 velocity=0 time=0.026441822916666666
EXTRACT: note_off channel=10 note=62 velocity=0 time=0
EXTRACT: note_off channel=7 note=65 velocity=0 time=0.031249427083333333
EXTRACT: note_on channel=3 note=62 velocity=97 time=0.15384333333333333
EXTRACT: note_on channel=4 note=74 velocity=87 time=0
EXTRACT: note_on channel=5 note=51 velocity=57 time=0
EXTRACT: note_on channel=5 note=55 velocity=60 time=0
EXTRACT: note_on channel=5 note=58 velocity=64 time=0
EXTRACT: note_on channel=5 note=63 velocity=72 time=0
EXTRACT: note_on channel=5 note=67 velocity=66 time=0
EXTRACT: note_on channel=7 note=67 velocity=63 time=0
EXTRACT: note_on channel=10 note=51 velocity=57 time=0
EXTRACT: note_on channel=10 note=55 velocity=60 time=0
EXTRACT: note_on channel=10 note=58 velocity=64 time=0
EXTRACT: note_on channel=10 note=63 velocity=72 time=0
EXTRACT: note_on channel=10 note=67 velocity=66 time=0
EXTRACT: note_off channel=5 note=65 velocity=0 time=0.0144228125
EXTRACT: note_off channel=10 note=65 velocity=0 time=0
EXTRACT: note_on channel=5 note=70 velocity=72 time=0.2163421875
EXTRACT: note_on channel=10 note=70 velocity=72 time=0
EXTRACT: note_on channel=3 note=62 velocity=97 time=0.230765
EXTRACT: note_on channel=4 note=74 velocity=87 time=0
EXTRACT: note_off channel=3 note=62 velocity=0 time=0.013220911458333333
EXTRACT: note_off channel=4 note=74 velocity=0 time=0
EXTRACT: note_off channel=5 note=63 velocity=0 time=0.11658440104166666
EXTRACT: note_off channel=5 note=58 velocity=0 time=0
EXTRACT: note_off channel=10 note=63 velocity=0 time=0
EXTRACT: note_off channel=10 note=58 velocity=0 time=0
EXTRACT: note_off channel=5 note=70 velocity=0 time=0.05047984375
EXTRACT: note_off channel=5 note=67 velocity=0 time=0
EXTRACT: note_off channel=10 note=70 velocity=0 time=0
EXTRACT: note_off channel=10 note=67 velocity=0 time=0
EXTRACT: note_on channel=3 note=60 velocity=97 time=0.05047984375
EXTRACT: note_on channel=4 note=72 velocity=87 time=0
EXTRACT: note_on channel=5 note=58 velocity=61 time=0
EXTRACT: note_on channel=5 note=63 velocity=70 time=0
EXTRACT: note_on channel=5 note=67 velocity=85 time=0
EXTRACT: note_on channel=10 note=58 velocity=61 time=0
EXTRACT: note_on channel=10 note=63 velocity=70 time=0
EXTRACT: note_on channel=10 note=67 velocity=85 time=0
EXTRACT: note_off channel=5 note=55 velocity=0 time=0.0432684375
EXTRACT: note_off channel=10 note=55 velocity=0 time=0
EXTRACT: note_off channel=5 note=51 velocity=0 time=0.004807604166666667
EXTRACT: note_off channel=10 note=51 velocity=0 time=0
EXTRACT: note_off channel=3 note=62 velocity=0 time=0.006009505208333333
EXTRACT: note_off channel=4 note=74 velocity=0 time=0
EXTRACT: note_off channel=5 note=58 velocity=0 time=0.05889315104166667
EXTRACT: note_off channel=10 note=58 velocity=0 time=0
EXTRACT: note_off channel=5 note=63 velocity=0 time=0.0024038020833333333
EXTRACT: note_off channel=10 note=63 velocity=0 time=0
EXTRACT: note_off channel=5 note=67 velocity=0 time=0.04086463541666667
EXTRACT: note_off channel=10 note=67 velocity=0 time=0
EXTRACT: note_on channel=5 note=51 velocity=52 time=0.07451786458333333
EXTRACT: note_on channel=5 note=55 velocity=60 time=0
EXTRACT: note_on channel=5 note=58 velocity=57 time=0
EXTRACT: note_on channel=5 note=63 velocity=70 time=0
EXTRACT: note_on channel=5 note=67 velocity=66 time=0
EXTRACT: note_on channel=10 note=51 velocity=52 time=0
EXTRACT: note_on channel=10 note=55 velocity=60 time=0
EXTRACT: note_on channel=10 note=58 velocity=57 time=0
EXTRACT: note_on channel=10 note=63 velocity=70 time=0
EXTRACT: note_on channel=10 note=67 velocity=66 time=0
EXTRACT: note_on channel=3 note=58 velocity=97 time=0.230765
EXTRACT: note_on channel=4 note=70 velocity=87 time=0
EXTRACT: note_on channel=5 note=70 velocity=72 time=0
EXTRACT: note_on channel=10 note=70 velocity=72 time=0
EXTRACT: note_off channel=3 note=60 velocity=0 time=0.0432684375
EXTRACT: note_off channel=4 note=72 velocity=0 time=0
EXTRACT: note_off channel=5 note=67 velocity=0 time=0.3197056770833333
EXTRACT: note_off channel=10 note=67 velocity=0 time=0
EXTRACT: note_off channel=5 note=63 velocity=0 time=0.004807604166666667
EXTRACT: note_off channel=10 note=63 velocity=0 time=0
EXTRACT: note_off channel=5 note=70 velocity=0 time=0.05288364583333333
EXTRACT: note_off channel=10 note=70 velocity=0 time=0
EXTRACT: note_on channel=5 note=63 velocity=70 time=0.04086463541666667
EXTRACT: note_on channel=5 note=67 velocity=60 time=0
EXTRACT: note_on channel=10 note=63 velocity=70 time=0
EXTRACT: note_on channel=10 note=67 velocity=60 time=0
EXTRACT: note_off channel=5 note=55 velocity=0 time=0.07692166666666667
EXTRACT: note_off channel=10 note=55 velocity=0 time=0
EXTRACT: note_off channel=7 note=67 velocity=0 time=0.004807604166666667
EXTRACT: note_off channel=5 note=58 velocity=0 time=0.012019010416666667
EXTRACT: note_off channel=10 note=58 velocity=0 time=0
EXTRACT: note_off channel=5 note=51 velocity=0 time=0.0024038020833333333
EXTRACT: note_off channel=10 note=51 velocity=0 time=0
EXTRACT: note_off channel=5 note=63 velocity=0 time=0.016826614583333333
EXTRACT: note_off channel=10 note=63 velocity=0 time=0
EXTRACT: note_off channel=5 note=67 velocity=0 time=0.036057031249999996
EXTRACT: note_off channel=10 note=67 velocity=0 time=0
EXTRACT: note_on channel=3 note=62 velocity=97 time=0.08172927083333334
EXTRACT: note_on channel=4 note=74 velocity=87 time=0
EXTRACT: note_on channel=5 note=46 velocity=56 time=0
EXTRACT: note_on channel=5 note=53 velocity=54 time=0
EXTRACT: note_on channel=5 note=58 velocity=63 time=0
EXTRACT: note_on channel=5 note=62 velocity=61 time=0
EXTRACT: note_on channel=5 note=65 velocity=66 time=0
EXTRACT: note_on channel=7 note=65 velocity=51 time=0
EXTRACT: note_on channel=10 note=46 velocity=56 time=0
EXTRACT: note_on channel=10 note=53 velocity=54 time=0
EXTRACT: note_on channel=10 note=58 velocity=63 time=0
EXTRACT: note_on channel=10 note=62 velocity=61 time=0
EXTRACT: note_on channel=10 note=65 velocity=66 time=0
EXTRACT: note_off channel=3 note=58 velocity=0 time=0.08894067708333334
EXTRACT: note_off channel=4 note=70 velocity=0 time=0
EXTRACT: note_on channel=5 note=70 velocity=72 time=0.14182432291666666
EXTRACT: note_on channel=10 note=70 velocity=72 time=0
EXTRACT: note_off channel=5 note=65 velocity=0 time=0.36537791666666664
EXTRACT: note_off channel=10 note=65 velocity=0 time=0
EXTRACT: note_off channel=5 note=62 velocity=0 time=0.02163421875
EXTRACT: note_off channel=10 note=62 velocity=0 time=0
EXTRACT: note_off channel=5 note=46 velocity=0 time=0.06490265625
EXTRACT: note_off channel=10 note=46 velocity=0 time=0
EXTRACT: note_on channel=3 note=58 velocity=97 time=0.009615208333333333
EXTRACT: note_on channel=4 note=70 velocity=87 time=0
EXTRACT: note_on channel=5 note=62 velocity=31 time=0
EXTRACT: note_on channel=5 note=65 velocity=55 time=0
EXTRACT: note_on channel=10 note=62 velocity=31 time=0
EXTRACT: note_on channel=10 note=65 velocity=55 time=0
EXTRACT: note_off channel=5 note=53 velocity=0 time=0.00721140625
EXTRACT: note_off channel=10 note=53 velocity=0 time=0
EXTRACT: note_off channel=5 note=70 velocity=0 time=0.0144228125
EXTRACT: note_off channel=10 note=70 velocity=0 time=0
EXTRACT: note_off channel=5 note=62 velocity=0 time=0.05288364583333333
EXTRACT: note_off channel=10 note=62 velocity=0 time=0
EXTRACT: note_off channel=5 note=58 velocity=0 time=0.036057031249999996
EXTRACT: note_off channel=10 note=58 velocity=0 time=0
EXTRACT: note_off channel=5 note=65 velocity=0 time=0.009615208333333333
EXTRACT: note_off channel=10 note=65 velocity=0 time=0
EXTRACT: note_off channel=3 note=62 velocity=0 time=0.04086463541666667
EXTRACT: note_off channel=4 note=74 velocity=0 time=0
EXTRACT: note_on channel=5 note=46 velocity=54 time=0.06971026041666667
EXTRACT: note_on channel=5 note=53 velocity=55 time=0
EXTRACT: note_on channel=5 note=58 velocity=52 time=0
EXTRACT: note_on channel=5 note=62 velocity=54 time=0
EXTRACT: note_on channel=5 note=65 velocity=61 time=0
EXTRACT: note_on channel=10 note=46 velocity=54 time=0
EXTRACT: note_on channel=10 note=53 velocity=55 time=0
EXTRACT: note_on channel=10 note=58 velocity=52 time=0
EXTRACT: note_on channel=10 note=62 velocity=54 time=0
EXTRACT: note_on channel=10 note=65 velocity=61 time=0
EXTRACT: note_off channel=5 note=62 velocity=0 time=0.14903572916666666
EXTRACT: note_off channel=10 note=62 velocity=0 time=0
EXTRACT: note_on channel=5 note=62 velocity=48 time=0.08172927083333334
EXTRACT: note_on channel=5 note=70 velocity=78 time=0
EXTRACT: note_on channel=10 note=62 velocity=48 time=0
EXTRACT: note_on channel=10 note=70 velocity=78 time=0
EXTRACT: note_off channel=5 note=65 velocity=0 time=0.3918197395833333
EXTRACT: note_off channel=10 note=65 velocity=0 time=0
EXTRACT: note_on channel=5 note=65 velocity=61 time=0.06971026041666667
EXTRACT: note_on channel=10 note=65 velocity=61 time=0
EXTRACT: note_off channel=5 note=53 velocity=0 time=0.0432684375
EXTRACT: note_off channel=10 note=53 velocity=0 time=0
EXTRACT: note_off channel=5 note=46 velocity=0 time=0.05047984375
EXTRACT: note_off channel=10 note=46 velocity=0 time=0
EXTRACT: note_off channel=5 note=70 velocity=0 time=0.012019010416666667
EXTRACT: note_off channel=10 note=70 velocity=0 time=0
EXTRACT: note_off channel=5 note=62 velocity=0 time=0.019230416666666666
EXTRACT: note_off channel=10 note=62 velocity=0 time=0
EXTRACT: note_off channel=5 note=58 velocity=0 time=0.026441822916666666
EXTRACT: note_off channel=10 note=58 velocity=0 time=0
EXTRACT: note_off channel=3 note=58 velocity=0 time=0.039662734375
EXTRACT: note_off channel=4 note=70 velocity=0 time=0
EXTRACT: note_on channel=3 note=62 velocity=97 time=0.039662734375
EXTRACT: note_on channel=4 note=74 velocity=87 time=0
EXTRACT: note_on channel=5 note=48 velocity=54 time=0
EXTRACT: note_on channel=5 note=51 velocity=56 time=0
EXTRACT: note_on channel=5 note=55 velocity=54 time=0
EXTRACT: note_on channel=5 note=58 velocity=47 time=0
EXTRACT: note_on channel=5 note=63 velocity=70 time=0
EXTRACT: note_on channel=5 note=67 velocity=60 time=0
EXTRACT: note_on channel=10 note=48 velocity=54 time=0
EXTRACT: note_on channel=10 note=51 velocity=56 time=0
EXTRACT: note_on channel=10 note=55 velocity=54 time=0
EXTRACT: note_on channel=10 note=58 velocity=47 time=0
EXTRACT: note_on channel=10 note=63 velocity=70 time=0
EXTRACT: note_on channel=10 note=67 velocity=60 time=0
EXTRACT: note_off channel=5 note=65 velocity=0 time=0.04086463541666667
EXTRACT: note_off channel=10 note=65 velocity=0 time=0
EXTRACT: note_off channel=3 note=62 velocity=0 time=0.10576729166666667
EXTRACT: note_off channel=4 note=74 velocity=0 time=0
EXTRACT: note_on channel=3 note=62 velocity=97 time=0.08413307291666666
EXTRACT: note_on channel=4 note=74 velocity=87 time=0
EXTRACT: note_on channel=5 note=70 velocity=78 time=0
EXTRACT: note_on channel=10 note=70 velocity=78 time=0
EXTRACT: note_on channel=13 note=70 velocity=97 time=0.230765
EXTRACT: note_off channel=5 note=63 velocity=0 time=0.17788135416666667
EXTRACT: note_off channel=10 note=63 velocity=0 time=0
EXTRACT: note_off channel=5 note=67 velocity=0 time=0.009615208333333333
EXTRACT: note_off channel=10 note=67 velocity=0 time=0
EXTRACT: note_on channel=3 note=60 velocity=97 time=0.0432684375
EXTRACT: note_on channel=4 note=72 velocity=87 time=0
EXTRACT: note_on channel=5 note=63 velocity=61 time=0
EXTRACT: note_on channel=5 note=67 velocity=64 time=0
EXTRACT: note_on channel=10 note=63 velocity=61 time=0
EXTRACT: note_on channel=10 note=67 velocity=64 time=0
EXTRACT: note_off channel=5 note=70 velocity=0 time=0.012019010416666667
EXTRACT: note_off channel=10 note=70 velocity=0 time=0
EXTRACT: note_off channel=3 note=62 velocity=0 time=0.039662734375
EXTRACT: note_off channel=4 note=74 velocity=0 time=0
EXTRACT: note_off channel=5 note=63 velocity=0 time=0.051681744791666664
EXTRACT: note_off channel=10 note=63 velocity=0 time=0
EXTRACT: note_off channel=5 note=67 velocity=0 time=0.04567223958333333
EXTRACT: note_off channel=10 note=67 velocity=0 time=0
EXTRACT: note_off channel=5 note=58 velocity=0 time=0.0024038020833333333
EXTRACT: note_off channel=10 note=58 velocity=0 time=0
EXTRACT: note_on channel=5 note=58 velocity=61 time=0.07932546875
EXTRACT: note_on channel=5 note=63 velocity=64 time=0
EXTRACT: note_on channel=5 note=67 velocity=48 time=0
EXTRACT: note_on channel=10 note=58 velocity=61 time=0
EXTRACT: note_on channel=10 note=63 velocity=64 time=0
EXTRACT: note_on channel=10 note=67 velocity=48 time=0
EXTRACT: note_on channel=3 note=58 velocity=97 time=0.230765
EXTRACT: note_on channel=4 note=70 velocity=87 time=0
EXTRACT: note_on channel=5 note=70 velocity=78 time=0
EXTRACT: note_on channel=10 note=70 velocity=78 time=0
EXTRACT: note_off channel=3 note=60 velocity=0 time=0.049277942708333335
EXTRACT: note_off channel=4 note=72 velocity=0 time=0
EXTRACT: note_off channel=3 note=58 velocity=0 time=0.10336348958333333
EXTRACT: note_off channel=4 note=70 velocity=0 time=0
EXTRACT: note_on channel=3 note=62 velocity=97 time=0.07812356770833333
EXTRACT: note_on channel=4 note=74 velocity=87 time=0
EXTRACT: note_off channel=5 note=67 velocity=0 time=0.004807604166666667
EXTRACT: note_off channel=10 note=67 velocity=0 time=0
EXTRACT: note_off channel=5 note=70 velocity=0 time=0.2163421875
EXTRACT: note_off channel=10 note=70 velocity=0 time=0
EXTRACT: note_on channel=5 note=67 velocity=66 time=0.009615208333333333
EXTRACT: note_on channel=10 note=67 velocity=66 time=0
EXTRACT: note_off channel=5 note=51 velocity=0 time=0.031249427083333333
EXTRACT: note_off channel=10 note=51 velocity=0 time=0
EXTRACT: note_off channel=5 note=55 velocity=0 time=0.004807604166666667
EXTRACT: note_off channel=10 note=55 velocity=0 time=0
EXTRACT: note_off channel=7 note=65 velocity=0 time=0.026441822916666666
EXTRACT: note_off channel=5 note=48 velocity=0 time=0.0024038020833333333
EXTRACT: note_off channel=10 note=48 velocity=0 time=0
EXTRACT: note_off channel=5 note=63 velocity=0 time=0.062498854166666666
EXTRACT: note_off channel=10 note=63 velocity=0 time=0
EXTRACT: note_off channel=5 note=58 velocity=0 time=0.0024038020833333333
EXTRACT: note_off channel=10 note=58 velocity=0 time=0
EXTRACT: note_off channel=5 note=67 velocity=0 time=0.09134447916666666
EXTRACT: note_off channel=10 note=67 velocity=0 time=0
EXTRACT: note_on channel=5 note=50 velocity=54 time=0.009615208333333333
EXTRACT: note_on channel=5 note=53 velocity=60 time=0
EXTRACT: note_on channel=5 note=57 velocity=52 time=0
EXTRACT: note_on channel=5 note=62 velocity=61 time=0
EXTRACT: note_on channel=5 note=65 velocity=66 time=0
EXTRACT: note_on channel=7 note=65 velocity=44 time=0
EXTRACT: note_on channel=10 note=50 velocity=54 time=0
EXTRACT: note_on channel=10 note=53 velocity=60 time=0
EXTRACT: note_on channel=10 note=57 velocity=52 time=0
EXTRACT: note_on channel=10 note=62 velocity=61 time=0
EXTRACT: note_on channel=10 note=65 velocity=66 time=0
EXTRACT: note_on channel=5 note=69 velocity=81 time=0.230765
EXTRACT: note_on channel=10 note=69 velocity=81 time=0
EXTRACT: note_on channel=3 note=63 velocity=97 time=0.230765
EXTRACT: note_on channel=4 note=75 velocity=87 time=0
EXTRACT: note_off channel=5 note=62 velocity=0 time=0.14903572916666666
EXTRACT: note_off channel=10 note=62 velocity=0 time=0
EXTRACT: note_off channel=5 note=65 velocity=0 time=0.026441822916666666
EXTRACT: note_off channel=10 note=65 velocity=0 time=0
EXTRACT: note_off channel=3 note=62 velocity=0 time=0.051681744791666664
EXTRACT: note_off channel=4 note=74 velocity=0 time=0
EXTRACT: note_on channel=3 note=62 velocity=97 time=0.003605703125
EXTRACT: note_on channel=4 note=74 velocity=87 time=0
EXTRACT: note_on channel=5 note=62 velocity=58 time=0
EXTRACT: note_on channel=5 note=65 velocity=72 time=0
EXTRACT: note_on channel=10 note=62 velocity=58 time=0
EXTRACT: note_on channel=10 note=65 velocity=72 time=0
EXTRACT: note_off channel=5 note=69 velocity=0 time=0.04567223958333333
EXTRACT: note_off channel=10 note=69 velocity=0 time=0
EXTRACT: note_off channel=3 note=63 velocity=0 time=0.008413307291666667
EXTRACT: note_off channel=4 note=75 velocity=0 time=0
EXTRACT: note_off channel=5 note=57 velocity=0 time=0.046874140625
EXTRACT: note_off channel=10 note=57 velocity=0 time=0
EXTRACT: note_off channel=5 note=53 velocity=0 time=0.004807604166666667
EXTRACT: note_off channel=10 note=53 velocity=0 time=0
EXTRACT: note_off channel=5 note=50 velocity=0 time=0.004807604166666667
EXTRACT: note_off channel=10 note=50 velocity=0 time=0
EXTRACT: note_off channel=5 note=62 velocity=0 time=0.04567223958333333
EXTRACT: note_off channel=10 note=62 velocity=0 time=0
EXTRACT: note_off channel=5 note=65 velocity=0 time=0.016826614583333333
EXTRACT: note_off channel=10 note=65 velocity=0 time=0
EXTRACT: note_on channel=5 note=50 velocity=63 time=0.05769125
EXTRACT: note_on channel=5 note=53 velocity=56 time=0
EXTRACT: note_on channel=5 note=57 velocity=66 time=0
EXTRACT: note_on channel=5 note=62 velocity=51 time=0
EXTRACT: note_on channel=5 note=65 velocity=70 time=0
EXTRACT: note_on channel=10 note=50 velocity=63 time=0
EXTRACT: note_on channel=10 note=53 velocity=56 time=0
EXTRACT: note_on channel=10 note=57 velocity=66 time=0
EXTRACT: note_on channel=10 note=62 velocity=51 time=0
EXTRACT: note_on channel=10 note=65 velocity=70 time=0
EXTRACT: note_on channel=5 note=69 velocity=85 time=0.230765
EXTRACT: note_on channel=10 note=69 velocity=85 time=0
EXTRACT: note_off channel=5 note=65 velocity=0 time=0.29326385416666667
EXTRACT: note_off channel=10 note=65 velocity=0 time=0
EXTRACT: note_off channel=5 note=50 velocity=0 time=0.08172927083333334
EXTRACT: note_off channel=10 note=50 velocity=0 time=0
EXTRACT: note_off channel=5 note=53 velocity=0 time=0.033653229166666666
EXTRACT: note_off channel=10 note=53 velocity=0 time=0
EXTRACT: note_on channel=3 note=63 velocity=97 time=0.05288364583333333
EXTRACT: note_on channel=4 note=75 velocity=87 time=0
EXTRACT: note_on channel=5 note=65 velocity=72 time=0
EXTRACT: note_on channel=10 note=65 velocity=72 time=0
EXTRACT: note_off channel=5 note=57 velocity=0 time=0.016826614583333333
EXTRACT: note_off channel=10 note=57 velocity=0 time=0
EXTRACT: note_off channel=5 note=69 velocity=0 time=0.0024038020833333333
EXTRACT: note_off channel=10 note=69 velocity=0 time=0
EXTRACT: note_off channel=5 note=62 velocity=0 time=0.026441822916666666
EXTRACT: note_off channel=10 note=62 velocity=0 time=0
EXTRACT: note_off channel=7 note=65 velocity=0 time=0.031249427083333333
EXTRACT: note_off channel=3 note=62 velocity=0 time=0.147833828125
EXTRACT: note_off channel=4 note=74 velocity=0 time=0
EXTRACT: note_on channel=3 note=62 velocity=97 time=0.006009505208333333
EXTRACT: note_on channel=4 note=74 velocity=87 time=0
EXTRACT: note_on channel=5 note=51 velocity=57 time=0
EXTRACT: note_on channel=5 note=55 velocity=60 time=0
EXTRACT: note_on channel=5 note=58 velocity=64 time=0
EXTRACT: note_on channel=5 note=63 velocity=72 time=0
EXTRACT: note_on channel=5 note=67 velocity=66 time=0
EXTRACT: note_on channel=7 note=67 velocity=63 time=0
EXTRACT: note_on channel=10 note=51 velocity=57 time=0
EXTRACT: note_on channel=10 note=55 velocity=60 time=0
EXTRACT: note_on channel=10 note=58 velocity=64 time=0
EXTRACT: note_on channel=10 note=63 velocity=72 time=0
EXTRACT: note_on channel=10 note=67 velocity=66 time=0
EXTRACT: note_off channel=5 note=65 velocity=0 time=0.0144228125
EXTRACT: note_off channel=10 note=65 velocity=0 time=0
EXTRACT: note_off channel=3 note=63 velocity=0 time=0.039662734375
EXTRACT: note_off channel=4 note=75 velocity=0 time=0
EXTRACT: note_on channel=3 note=63 velocity=97 time=0.176679453125
EXTRACT: note_on channel=4 note=75 velocity=87 time=0
EXTRACT: note_on channel=5 note=70 velocity=72 time=0
EXTRACT: note_on channel=10 note=70 velocity=72 time=0
EXTRACT: note_off channel=3 note=62 velocity=0 time=0.054085546875
EXTRACT: note_off channel=4 note=74 velocity=0 time=0
EXTRACT: note_on channel=3 note=62 velocity=97 time=0.176679453125
EXTRACT: note_on channel=4 note=74 velocity=87 time=0
EXTRACT: note_off channel=3 note=63 velocity=0 time=0.054085546875
EXTRACT: note_off channel=4 note=75 velocity=0 time=0
EXTRACT: note_off channel=5 note=63 velocity=0 time=0.075719765625
EXTRACT: note_off channel=5 note=58 velocity=0 time=0
EXTRACT: note_off channel=10 note=63 velocity=0 time=0
EXTRACT: note_off channel=10 note=58 velocity=0 time=0
EXTRACT: note_off channel=5 note=70 velocity=0 time=0.05047984375
EXTRACT: note_off channel=5 note=67 velocity=0 time=0
EXTRACT: note_off channel=10 note=70 velocity=0 time=0
EXTRACT: note_off channel=10 note=67 velocity=0 time=0
EXTRACT: note_on channel=3 note=63 velocity=97 time=0.05047984375
EXTRACT: note_on channel=4 note=75 velocity=87 time=0
EXTRACT: note_on channel=5 note=58 velocity=61 time=0
EXTRACT: note_on channel=5 note=63 velocity=70 time=0
EXTRACT: note_on channel=5 note=67 velocity=85 time=0
EXTRACT: note_on channel=10 note=58 velocity=61 time=0
EXTRACT: note_on channel=10 note=63 velocity=70 time=0
EXTRACT: note_on channel=10 note=67 velocity=85 time=0
EXTRACT: note_off channel=5 note=55 velocity=0 time=0.0432684375
EXTRACT: note_off channel=10 note=55 velocity=0 time=0
EXTRACT: note_off channel=5 note=51 velocity=0 time=0.004807604166666667
EXTRACT: note_off channel=10 note=51 velocity=0 time=0
EXTRACT: note_off channel=3 note=62 velocity=0 time=0.006009505208333333
EXTRACT: note_off channel=4 note=74 velocity=0 time=0
EXTRACT: note_off channel=5 note=58 velocity=0 time=0.05889315104166667
EXTRACT: note_off channel=10 note=58 velocity=0 time=0
EXTRACT: note_off channel=5 note=63 velocity=0 time=0.0024038020833333333
EXTRACT: note_off channel=10 note=63 velocity=0 time=0
EXTRACT: note_off channel=5 note=67 velocity=0 time=0.04086463541666667
EXTRACT: note_off channel=10 note=67 velocity=0 time=0
EXTRACT: note_on channel=3 note=62 velocity=97 time=0.07451786458333333
EXTRACT: note_on channel=4 note=74 velocity=87 time=0
EXTRACT: note_on channel=5 note=51 velocity=52 time=0
EXTRACT: note_on channel=5 note=55 velocity=60 time=0
EXTRACT: note_on channel=5 note=58 velocity=57 time=0
EXTRACT: note_on channel=5 note=63 velocity=70 time=0
EXTRACT: note_on channel=5 note=67 velocity=66 time=0
EXTRACT: note_on channel=10 note=51 velocity=52 time=0
EXTRACT: note_on channel=10 note=55 velocity=60 time=0
EXTRACT: note_on channel=10 note=58 velocity=57 time=0
EXTRACT: note_on channel=10 note=63 velocity=70 time=0
EXTRACT: note_on channel=10 note=67 velocity=66 time=0
EXTRACT: note_off channel=3 note=63 velocity=0 time=0.039662734375
EXTRACT: note_off channel=4 note=75 velocity=0 time=0
EXTRACT: note_on channel=3 note=70 velocity=97 time=0.191102265625
EXTRACT: note_on channel=4 note=82 velocity=87 time=0
EXTRACT: note_on channel=5 note=70 velocity=72 time=0
EXTRACT: note_on channel=10 note=70 velocity=72 time=0
EXTRACT: note_off channel=3 note=62 velocity=0 time=0.054085546875
EXTRACT: note_off channel=4 note=74 velocity=0 time=0
EXTRACT: note_off channel=3 note=70 velocity=0 time=0.07451786458333333
EXTRACT: note_off channel=4 note=82 velocity=0 time=0
EXTRACT: note_on channel=3 note=70 velocity=97 time=0.10216158854166667
EXTRACT: note_on channel=4 note=82 velocity=87 time=0
EXTRACT: note_off channel=5 note=67 velocity=0 time=0.13220911458333334
EXTRACT: note_off channel=10 note=67 velocity=0 time=0
EXTRACT: note_off channel=5 note=63 velocity=0 time=0.004807604166666667
EXTRACT: note_off channel=10 note=63 velocity=0 time=0
EXTRACT: note_off channel=5 note=70 velocity=0 time=0.05288364583333333
EXTRACT: note_off channel=10 note=70 velocity=0 time=0
EXTRACT: note_off channel=3 note=70 velocity=0 time=0.016826614583333333
EXTRACT: note_off channel=4 note=82 velocity=0 time=0
EXTRACT: note_on channel=3 note=72 velocity=97 time=0.024038020833333333
EXTRACT: note_on channel=4 note=84 velocity=87 time=0
EXTRACT: note_on channel=5 note=63 velocity=70 time=0
EXTRACT: note_on channel=5 note=67 velocity=60 time=0
EXTRACT: note_on channel=10 note=63 velocity=70 time=0
EXTRACT: note_on channel=10 note=67 velocity=60 time=0
EXTRACT: note_off channel=5 note=55 velocity=0 time=0.07692166666666667
EXTRACT: note_off channel=10 note=55 velocity=0 time=0
EXTRACT: note_off channel=7 note=67 velocity=0 time=0.004807604166666667
EXTRACT: note_off channel=5 note=58 velocity=0 time=0.012019010416666667
EXTRACT: note_off channel=10 note=58 velocity=0 time=0
EXTRACT: note_off channel=5 note=51 velocity=0 time=0.0024038020833333333
EXTRACT: note_off channel=10 note=51 velocity=0 time=0
EXTRACT: note_off channel=5 note=63 velocity=0 time=0.016826614583333333
EXTRACT: note_off channel=10 note=63 velocity=0 time=0
EXTRACT: note_off channel=5 note=67 velocity=0 time=0.036057031249999996
EXTRACT: note_off channel=10 note=67 velocity=0 time=0
EXTRACT: note_on channel=9 note=36 velocity=125 time=0.08172927083333334
EXTRACT: note_on channel=9 note=44 velocity=111 time=0
EXTRACT: note_on channel=9 note=49 velocity=80 time=0
EXTRACT: note_on channel=9 note=57 velocity=89 time=0
EXTRACT: note_on channel=1 note=34 velocity=104 time=0
EXTRACT: note_on channel=3 note=70 velocity=97 time=0
EXTRACT: note_on channel=4 note=82 velocity=87 time=0
EXTRACT: note_on channel=7 note=65 velocity=84 time=0
EXTRACT: note_on channel=7 note=68 velocity=78 time=0
EXTRACT: note_on channel=12 note=53 velocity=88 time=0
EXTRACT: note_on channel=12 note=58 velocity=78 time=0
EXTRACT: note_on channel=12 note=62 velocity=76 time=0
EXTRACT: note_on channel=14 note=46 velocity=84 time=0
EXTRACT: note_off channel=13 note=70 velocity=0 time=0.004807604166666667
EXTRACT: note_off channel=3 note=72 velocity=0 time=0.049277942708333335
EXTRACT: note_off channel=4 note=84 velocity=0 time=0
EXTRACT: note_off channel=9 note=49 velocity=0 time=0.022836119791666665
EXTRACT: note_off channel=14 note=46 velocity=0 time=0.009615208333333333
EXTRACT: note_off channel=9 note=57 velocity=0 time=0.0024038020833333333
EXTRACT: note_off channel=12 note=58 velocity=0 time=0.00721140625
EXTRACT: note_off channel=9 note=36 velocity=0 time=0.00721140625
EXTRACT: note_off channel=12 note=62 velocity=0 time=0.009615208333333333
EXTRACT: note_on channel=14 note=58 velocity=80 time=0.0024038020833333333
EXTRACT: note_off channel=12 note=53 velocity=0 time=0.00721140625
EXTRACT: note_off channel=14 note=58 velocity=0 time=0.10576729166666667
EXTRACT: note_on channel=9 note=46 velocity=75 time=0.0024038020833333333
EXTRACT: note_on channel=14 note=46 velocity=82 time=0
EXTRACT: note_off channel=9 note=44 velocity=0 time=0.026441822916666666
EXTRACT: note_off channel=14 note=46 velocity=0 time=0.04567223958333333
EXTRACT: note_on channel=14 note=58 velocity=79 time=0.0432684375
EXTRACT: note_off channel=1 note=34 velocity=0 time=0.07932546875
EXTRACT: note_off channel=14 note=58 velocity=0 time=0.004807604166666667
EXTRACT: note_on channel=9 note=36 velocity=107 time=0.031249427083333333
EXTRACT: note_on channel=9 note=39 velocity=78 time=0
EXTRACT: note_on channel=9 note=40 velocity=74 time=0
EXTRACT: note_on channel=9 note=44 velocity=92 time=0
EXTRACT: note_on channel=1 note=29 velocity=73 time=0
EXTRACT: note_on channel=5 note=62 velocity=78 time=0
EXTRACT: note_on channel=5 note=65 velocity=85 time=0
EXTRACT: note_on channel=6 note=58 velocity=127 time=0
EXTRACT: note_on channel=6 note=62 velocity=108 time=0
EXTRACT: note_on channel=6 note=65 velocity=118 time=0
EXTRACT: note_on channel=12 note=53 velocity=80 time=0
EXTRACT: note_on channel=12 note=58 velocity=73 time=0
EXTRACT: note_on channel=12 note=62 velocity=73 time=0
EXTRACT: note_on channel=14 note=46 velocity=82 time=0
EXTRACT: note_off channel=14 note=46 velocity=0 time=0.086536875
EXTRACT: note_off channel=12 note=62 velocity=0 time=0.016826614583333333
EXTRACT: note_off channel=9 note=46 velocity=0 time=0.009615208333333333
EXTRACT: note_off channel=12 note=58 velocity=0 time=0
EXTRACT: note_on channel=14 note=58 velocity=79 time=0.0024038020833333333
EXTRACT: note_off channel=12 note=53 velocity=0 time=0.00721140625
EXTRACT: note_off channel=9 note=36 velocity=0 time=0.009615208333333333
EXTRACT: note_off channel=1 note=29 velocity=0 time=0.036057031249999996
EXTRACT: note_off channel=5 note=62 velocity=0 time=0.012019010416666667
EXTRACT: note_off channel=6 note=58 velocity=0 time=0
EXTRACT: note_off channel=6 note=62 velocity=0 time=0.0024038020833333333
EXTRACT: note_off channel=5 note=65 velocity=0 time=0.0024038020833333333
EXTRACT: note_off channel=6 note=65 velocity=0 time=0.0024038020833333333
EXTRACT: note_off channel=14 note=58 velocity=0 time=0.0144228125
EXTRACT: note_on channel=9 note=46 velocity=63 time=0.028845625
EXTRACT: note_on channel=1 note=27 velocity=88 time=0
EXTRACT: note_on channel=12 note=53 velocity=76 time=0
EXTRACT: note_on channel=12 note=58 velocity=74 time=0
EXTRACT: note_on channel=12 note=63 velocity=74 time=0
EXTRACT: note_on channel=14 note=46 velocity=80 time=0
EXTRACT: note_off channel=9 note=44 velocity=0 time=0.036057031249999996
EXTRACT: note_off channel=14 note=46 velocity=0 time=0.05047984375
EXTRACT: note_off channel=12 note=53 velocity=0 time=0.026441822916666666
EXTRACT: note_on channel=14 note=58 velocity=79 time=0.0024038020833333333
EXTRACT: note_off channel=12 note=58 velocity=0 time=0.016826614583333333
EXTRACT: note_off channel=12 note=63 velocity=0 time=0.012019010416666667
EXTRACT: note_off channel=14 note=58 velocity=0 time=0.05528744791666666
EXTRACT: note_on channel=9 note=36 velocity=93 time=0.031249427083333333
EXTRACT: note_on channel=9 note=44 velocity=85 time=0
EXTRACT: note_on channel=5 note=63 velocity=82 time=0
EXTRACT: note_on channel=5 note=67 velocity=82 time=0
EXTRACT: note_on channel=14 note=46 velocity=81 time=0
EXTRACT: note_off channel=9 note=46 velocity=0 time=0.07692166666666667
EXTRACT: note_off channel=14 note=46 velocity=0 time=0.0144228125
EXTRACT: note_off channel=5 note=63 velocity=0 time=0.00721140625
EXTRACT: note_off channel=5 note=67 velocity=0 time=0.012019010416666667
EXTRACT: note_on channel=14 note=58 velocity=79 time=0.004807604166666667
EXTRACT: note_off channel=1 note=27 velocity=0 time=0.06490265625
EXTRACT: note_off channel=14 note=58 velocity=0 time=0.026441822916666666
EXTRACT: note_on channel=9 note=36 velocity=120 time=0.024038020833333333
EXTRACT: note_on channel=9 note=46 velocity=71 time=0
EXTRACT: note_on channel=1 note=27 velocity=95 time=0
EXTRACT: note_on channel=5 note=63 velocity=80 time=0
EXTRACT: note_on channel=5 note=68 velocity=82 time=0
EXTRACT: note_on channel=6 note=58 velocity=115 time=0
EXTRACT: note_on channel=6 note=63 velocity=111 time=0
EXTRACT: note_on channel=6 note=68 velocity=111 time=0
EXTRACT: note_on channel=12 note=53 velocity=71 time=0
EXTRACT: note_on channel=12 note=58 velocity=78 time=0
EXTRACT: note_on channel=12 note=63 velocity=78 time=0
EXTRACT: note_on channel=14 note=46 velocity=80 time=0
EXTRACT: note_off channel=9 note=36 velocity=0 time=0.028845625
EXTRACT: note_off channel=9 note=36 velocity=64 time=0.028845625
EXTRACT: note_off channel=9 note=44 velocity=0 time=0.031249427083333333
EXTRACT: note_off channel=14 note=46 velocity=0 time=0.0024038020833333333
EXTRACT: note_off channel=9 note=39 velocity=0 time=0.0024038020833333333
EXTRACT: note_off channel=9 note=40 velocity=0 time=0.009615208333333333
EXTRACT: note_on channel=14 note=58 velocity=79 time=0.012019010416666667
EXTRACT: note_off channel=14 note=58 velocity=0 time=0.09374828125
EXTRACT: note_on channel=9 note=36 velocity=125 time=0.02163421875
EXTRACT: note_on channel=9 note=39 velocity=62 time=0
EXTRACT: note_on channel=9 note=40 velocity=66 time=0
EXTRACT: note_on channel=9 note=44 velocity=101 time=0
EXTRACT: note_on channel=14 note=46 velocity=82 time=0
EXTRACT: note_off channel=14 note=46 velocity=0 time=0.09615208333333333
EXTRACT: note_off channel=9 note=46 velocity=0 time=0.00721140625
EXTRACT: note_off channel=12 note=53 velocity=0 time=0.004807604166666667
EXTRACT: note_on channel=14 note=58 velocity=79 time=0.00721140625
EXTRACT: note_off channel=12 note=58 velocity=0 time=0.00721140625
EXTRACT: note_off channel=12 note=63 velocity=0 time=0.0144228125
EXTRACT: note_off channel=14 note=58 velocity=0 time=0.07932546875
EXTRACT: note_off channel=1 note=27 velocity=0 time=0.012019010416666667
EXTRACT: note_on channel=9 note=46 velocity=70 time=0.0024038020833333333
EXTRACT: note_on channel=1 note=31 velocity=62 time=0
EXTRACT: note_on channel=12 note=53 velocity=71 time=0
EXTRACT: note_on channel=12 note=58 velocity=73 time=0
EXTRACT: note_on channel=12 note=63 velocity=68 time=0
EXTRACT: note_on channel=14 note=46 velocity=82 time=0
EXTRACT: note_off channel=6 note=63 velocity=0 time=0.00721140625
EXTRACT: note_off channel=5 note=63 velocity=0 time=0.0144228125
EXTRACT: note_off channel=6 note=68 velocity=0 time=0
EXTRACT: note_off channel=6 note=58 velocity=0 time=0.0024038020833333333
EXTRACT: note_off channel=5 note=68 velocity=0 time=0.0144228125
EXTRACT: note_off channel=9 note=44 velocity=0 time=0.04567223958333333
EXTRACT: note_off channel=9 note=36 velocity=0 time=0.0024038020833333333
EXTRACT: note_off channel=14 note=46 velocity=0 time=0.00721140625
EXTRACT: note_on channel=14 note=58 velocity=78 time=0.02163421875
EXTRACT: note_off channel=12 note=53 velocity=0 time=0.00721140625
EXTRACT: note_off channel=12 note=58 velocity=0 time=0.012019010416666667
EXTRACT: note_off channel=9 note=46 velocity=0 time=0.024038020833333333
EXTRACT: note_off channel=12 note=63 velocity=0 time=0.004807604166666667
EXTRACT: note_off channel=1 note=31 velocity=0 time=0.016826614583333333
EXTRACT: note_off channel=14 note=58 velocity=0 time=0.036057031249999996
EXTRACT: note_on channel=9 note=36 velocity=118 time=0.0144228125
EXTRACT: note_on channel=9 note=44 velocity=111 time=0
EXTRACT: note_on channel=1 note=34 velocity=82 time=0
EXTRACT: note_on channel=12 note=53 velocity=74 time=0
EXTRACT: note_on channel=12 note=58 velocity=73 time=0
EXTRACT: note_on channel=12 note=62 velocity=71 time=0
EXTRACT: note_on channel=14 note=46 velocity=82 time=0
EXTRACT: note_off channel=12 note=58 velocity=0 time=0.09374828125
EXTRACT: note_off channel=14 note=46 velocity=0 time=0
EXTRACT: note_off channel=12 note=62 velocity=0 time=0.012019010416666667
EXTRACT: note_off channel=12 note=53 velocity=0 time=0.004807604166666667
EXTRACT: note_on channel=14 note=58 velocity=79 time=0.004807604166666667
EXTRACT: note_off channel=14 note=58 velocity=0 time=0.10576729166666667
EXTRACT: note_on channel=9 note=46 velocity=75 time=0.009615208333333333
EXTRACT: note_on channel=6 note=58 velocity=115 time=0
EXTRACT: note_on channel=6 note=62 velocity=100 time=0
EXTRACT: note_on channel=6 note=65 velocity=105 time=0
EXTRACT: note_on channel=14 note=46 velocity=81 time=0
EXTRACT: note_off channel=9 note=44 velocity=0 time=0.026441822916666666
EXTRACT: note_off channel=6 note=65 velocity=0 time=0.048076041666666666
EXTRACT: note_off channel=9 note=36 velocity=0 time=0.0024038020833333333
EXTRACT: note_off channel=6 note=62 velocity=0 time=0.004807604166666667
EXTRACT: note_off channel=6 note=58 velocity=0 time=0.0024038020833333333
EXTRACT: note_off channel=14 note=46 velocity=0 time=0
EXTRACT: note_off channel=9 note=40 velocity=0 time=0.012019010416666667
EXTRACT: note_off channel=9 note=39 velocity=0 time=0.009615208333333333
EXTRACT: note_on channel=14 note=58 velocity=79 time=0.009615208333333333
EXTRACT: note_off channel=14 note=58 velocity=0 time=0.10576729166666667
EXTRACT: note_off channel=1 note=34 velocity=0 time=0.004807604166666667
EXTRACT: note_on channel=9 note=36 velocity=118 time=0.004807604166666667
EXTRACT: note_on channel=9 note=39 velocity=66 time=0
EXTRACT: note_on channel=9 note=40 velocity=74 time=0
EXTRACT: note_on channel=9 note=44 velocity=92 time=0
EXTRACT: note_on channel=1 note=29 velocity=76 time=0
EXTRACT: note_on channel=5 note=62 velocity=78 time=0
EXTRACT: note_on channel=5 note=65 velocity=80 time=0
EXTRACT: note_on channel=12 note=53 velocity=82 time=0
EXTRACT: note_on channel=12 note=58 velocity=78 time=0
EXTRACT: note_on channel=12 note=62 velocity=73 time=0
EXTRACT: note_on channel=14 note=46 velocity=82 time=0
EXTRACT: note_off channel=5 note=65 velocity=0 time=0.07692166666666667
EXTRACT: note_off channel=5 note=62 velocity=0 time=0.009615208333333333
EXTRACT: note_off channel=14 note=46 velocity=0 time=0.012019010416666667
EXTRACT: note_off channel=9 note=46 velocity=0 time=0.0144228125
EXTRACT: note_on channel=14 note=58 velocity=79 time=0.0024038020833333333
EXTRACT: note_off channel=12 note=62 velocity=0 time=0.033653229166666666
EXTRACT: note_off channel=12 note=58 velocity=0 time=0
EXTRACT: note_off channel=12 note=53 velocity=0 time=0
EXTRACT: note_off channel=14 note=58 velocity=0 time=0.060095052083333336
EXTRACT: note_off channel=1 note=29 velocity=0 time=0.016826614583333333
EXTRACT: note_on channel=9 note=46 velocity=63 time=0.004807604166666667
EXTRACT: note_on channel=1 note=27 velocity=91 time=0
EXTRACT: note_on channel=5 note=62 velocity=68 time=0
EXTRACT: note_on channel=5 note=65 velocity=74 time=0
EXTRACT: note_on channel=6 note=58 velocity=102 time=0
EXTRACT: note_on channel=6 note=62 velocity=100 time=0
EXTRACT: note_on channel=6 note=65 velocity=108 time=0
EXTRACT: note_on channel=12 note=53 velocity=82 time=0
EXTRACT: note_on channel=12 note=58 velocity=80 time=0
EXTRACT: note_on channel=12 note=63 velocity=80 time=0
EXTRACT: note_on channel=14 note=46 velocity=81 time=0
EXTRACT: note_off channel=9 note=44 velocity=0 time=0.036057031249999996
EXTRACT: note_off channel=6 note=62 velocity=0 time=0.012019010416666667
EXTRACT: note_off channel=6 note=65 velocity=0 time=0.0024038020833333333
EXTRACT: note_off channel=6 note=58 velocity=0 time=0.026441822916666666
EXTRACT: note_off channel=5 note=62 velocity=0 time=0.0024038020833333333
EXTRACT: note_off channel=5 note=65 velocity=0 time=0.00721140625
EXTRACT: note_off channel=14 note=46 velocity=0 time=0.0024038020833333333
EXTRACT: note_on channel=14 note=58 velocity=79 time=0.026441822916666666
EXTRACT: note_off channel=12 note=58 velocity=0 time=0.019230416666666666
EXTRACT: note_off channel=12 note=63 velocity=0 time=0.004807604166666667
EXTRACT: note_off channel=9 note=36 velocity=0 time=0.0024038020833333333
EXTRACT: note_off channel=12 note=53 velocity=0 time=0.00721140625
EXTRACT: note_off channel=14 note=58 velocity=0 time=0.062498854166666666
EXTRACT: note_on channel=9 note=36 velocity=125 time=0.019230416666666666
EXTRACT: note_on channel=9 note=44 velocity=85 time=0
EXTRACT: note_on channel=5 note=63 velocity=63 time=0
EXTRACT: note_on channel=5 note=67 velocity=73 time=0
EXTRACT: note_on channel=14 note=46 velocity=82 time=0
EXTRACT: note_off channel=5 note=63 velocity=0 time=0.04086463541666667
EXTRACT: note_off channel=5 note=67 velocity=0 time=0.028845625
EXTRACT: note_off channel=9 note=46 velocity=0 time=0.00721140625
EXTRACT: pitchwheel channel=7 pitch=-128 time=0.00721140625
EXTRACT: note_off channel=14 note=46 velocity=0 time=0.004807604166666667
EXTRACT: pitchwheel channel=7 pitch=-256 time=0.0144228125
EXTRACT: note_off channel=1 note=27 velocity=0 time=0.004807604166666667
EXTRACT: note_on channel=14 note=58 velocity=78 time=0.00721140625
EXTRACT: pitchwheel channel=7 pitch=-128 time=0.08413307291666666
EXTRACT: note_off channel=14 note=58 velocity=0 time=0.019230416666666666
EXTRACT: note_on channel=9 note=36 velocity=120 time=0.012019010416666667
EXTRACT: note_on channel=9 note=46 velocity=71 time=0
EXTRACT: note_on channel=1 note=27 velocity=95 time=0
EXTRACT: note_on channel=5 note=63 velocity=74 time=0
EXTRACT: note_on channel=5 note=68 velocity=73 time=0
EXTRACT: note_on channel=6 note=58 velocity=108 time=0
EXTRACT: note_on channel=6 note=63 velocity=111 time=0
EXTRACT: note_on channel=6 note=68 velocity=108 time=0
EXTRACT: note_on channel=12 note=53 velocity=80 time=0
EXTRACT: note_on channel=12 note=58 velocity=78 time=0
EXTRACT: note_on channel=12 note=63 velocity=80 time=0
EXTRACT: note_on channel=14 note=46 velocity=81 time=0
EXTRACT: pitchwheel channel=7 pitch=0 time=0.00721140625
EXTRACT: note_off channel=9 note=36 velocity=64 time=0.05047984375
EXTRACT: note_off channel=3 note=70 velocity=0 time=0.025239921875
EXTRACT: note_off channel=4 note=82 velocity=0 time=0
EXTRACT: note_off channel=9 note=44 velocity=0 time=0.006009505208333333
EXTRACT: note_off channel=9 note=39 velocity=0 time=0.0024038020833333333
EXTRACT: note_off channel=9 note=40 velocity=0 time=0.0024038020833333333
EXTRACT: note_off channel=14 note=46 velocity=0 time=0
EXTRACT: note_off channel=9 note=36 velocity=0 time=0.019230416666666666
EXTRACT: note_on channel=14 note=58 velocity=79 time=0.0024038020833333333
EXTRACT: note_off channel=14 note=58 velocity=0 time=0.1009596875
EXTRACT: note_on channel=9 note=36 velocity=122 time=0.0144228125
EXTRACT: note_on channel=9 note=39 velocity=65 time=0
EXTRACT: note_on channel=9 note=40 velocity=63 time=0
EXTRACT: note_on channel=9 note=44 velocity=101 time=0
EXTRACT: note_on channel=14 note=46 velocity=82 time=0
EXTRACT: note_off channel=14 note=46 velocity=0 time=0.09134447916666666
EXTRACT: note_off channel=9 note=46 velocity=0 time=0.012019010416666667
EXTRACT: note_on channel=14 note=58 velocity=79 time=0.012019010416666667
EXTRACT: note_off channel=14 note=58 velocity=0 time=0.09615208333333333
EXTRACT: note_on channel=9 note=46 velocity=70 time=0.019230416666666666
EXTRACT: note_on channel=1 note=31 velocity=85 time=0
EXTRACT: note_on channel=14 note=46 velocity=81 time=0
EXTRACT: note_off channel=1 note=27 velocity=0 time=0.00721140625
EXTRACT: note_off channel=12 note=58 velocity=0 time=0.00721140625
EXTRACT: note_off channel=12 note=63 velocity=0 time=0.00721140625
EXTRACT: note_off channel=12 note=53 velocity=0 time=0.004807604166666667
EXTRACT: note_off channel=5 note=63 velocity=0 time=0.0144228125
EXTRACT: note_off channel=5 note=68 velocity=0 time=0.016826614583333333
EXTRACT: note_off channel=6 note=63 velocity=0 time=0.009615208333333333
EXTRACT: note_off channel=9 note=44 velocity=0 time=0.016826614583333333
EXTRACT: note_off channel=6 note=68 velocity=0 time=0
EXTRACT: note_off channel=6 note=58 velocity=0 time=0.0024038020833333333
EXTRACT: note_off channel=14 note=46 velocity=0 time=0.00721140625
EXTRACT: note_on channel=14 note=58 velocity=80 time=0.02163421875
EXTRACT: note_off channel=9 note=36 velocity=0 time=0.0024038020833333333
EXTRACT: note_off channel=9 note=46 velocity=0 time=0.04086463541666667
EXTRACT: note_off channel=1 note=31 velocity=0 time=0.031249427083333333
EXTRACT: note_off channel=14 note=58 velocity=0 time=0.019230416666666666
EXTRACT: note_on channel=9 note=36 velocity=118 time=0.02163421875
EXTRACT: note_on channel=9 note=44 velocity=111 time=0
EXTRACT: note_on channel=1 note=34 velocity=104 time=0
EXTRACT: note_on channel=14 note=46 velocity=84 time=0
EXTRACT: note_off channel=14 note=46 velocity=0 time=0.086536875
EXTRACT: note_on channel=14 note=58 velocity=80 time=0.028845625
EXTRACT: note_off channel=14 note=58 velocity=0 time=0.11297869791666666
EXTRACT: note_on channel=9 note=46 velocity=75 time=0.0024038020833333333
EXTRACT: note_on channel=12 note=53 velocity=85 time=0
EXTRACT: note_on channel=12 note=58 velocity=80 time=0
EXTRACT: note_on channel=12 note=62 velocity=76 time=0
EXTRACT: note_on channel=14 note=46 velocity=82 time=0
EXTRACT: note_off channel=9 note=44 velocity=0 time=0.026441822916666666
EXTRACT: note_off channel=9 note=39 velocity=0 time=0.04086463541666667
EXTRACT: note_off channel=14 note=46 velocity=0 time=0.004807604166666667
EXTRACT: note_off channel=9 note=40 velocity=0 time=0.0024038020833333333
EXTRACT: note_off channel=12 note=58 velocity=0 time=0.019230416666666666
EXTRACT: note_off channel=9 note=36 velocity=0 time=0.00721140625
EXTRACT: note_off channel=12 note=62 velocity=0 time=0
EXTRACT: note_off channel=12 note=53 velocity=0 time=0.0144228125
EXTRACT: note_on channel=14 note=58 velocity=79 time=0
EXTRACT: note_off channel=1 note=34 velocity=0 time=0.07932546875
EXTRACT: note_off channel=14 note=58 velocity=0 time=0.004807604166666667
EXTRACT: note_on channel=9 note=36 velocity=118 time=0.031249427083333333
EXTRACT: note_on channel=9 note=39 velocity=62 time=0
EXTRACT: note_on channel=9 note=40 velocity=63 time=0
EXTRACT: note_on channel=9 note=44 velocity=92 time=0
EXTRACT: note_on channel=1 note=29 velocity=73 time=0
EXTRACT: note_on channel=5 note=62 velocity=76 time=0
EXTRACT: note_on channel=5 note=65 velocity=80 time=0
EXTRACT: note_on channel=6 note=58 velocity=127 time=0
EXTRACT: note_on channel=6 note=62 velocity=108 time=0
EXTRACT: note_on channel=6 note=65 velocity=118 time=0
EXTRACT: note_on channel=14 note=46 velocity=82 time=0
EXTRACT: note_off channel=14 note=46 velocity=0 time=0.086536875
EXTRACT: note_off channel=5 note=62 velocity=0 time=0.009615208333333333
EXTRACT: note_off channel=5 note=65 velocity=0 time=0.00721140625
EXTRACT: note_off channel=9 note=46 velocity=0 time=0.009615208333333333
EXTRACT: note_on channel=14 note=58 velocity=79 time=0.0024038020833333333
EXTRACT: note_off channel=1 note=29 velocity=0 time=0.05288364583333333
EXTRACT: note_off channel=6 note=58 velocity=0 time=0.012019010416666667
EXTRACT: note_off channel=6 note=62 velocity=0 time=0.0024038020833333333
EXTRACT: note_off channel=6 note=65 velocity=0 time=0.004807604166666667
EXTRACT: note_off channel=14 note=58 velocity=0 time=0.0144228125
EXTRACT: note_on channel=9 note=46 velocity=63 time=0.028845625
EXTRACT: note_on channel=1 note=27 velocity=88 time=0
EXTRACT: note_on channel=12 note=53 velocity=80 time=0
EXTRACT: note_on channel=12 note=58 velocity=78 time=0
EXTRACT: note_on channel=12 note=62 velocity=68 time=0
EXTRACT: note_on channel=14 note=46 velocity=80 time=0
EXTRACT: note_off channel=7 note=68 velocity=0 time=0.031249427083333333
EXTRACT: note_off channel=7 note=65 velocity=0 time=0.0024038020833333333
EXTRACT: note_off channel=9 note=44 velocity=0 time=0.0024038020833333333
EXTRACT: note_off channel=12 note=62 velocity=0 time=0.04567223958333333
EXTRACT: note_off channel=12 note=58 velocity=0 time=0.0024038020833333333
EXTRACT: note_off channel=14 note=46 velocity=0 time=0.0024038020833333333
EXTRACT: note_off channel=12 note=53 velocity=0 time=0.012019010416666667
EXTRACT: note_on channel=14 note=58 velocity=79 time=0.016826614583333333
EXTRACT: note_off channel=9 note=36 velocity=0 time=0.02163421875
EXTRACT: note_off channel=14 note=58 velocity=0 time=0.062498854166666666
EXTRACT: note_on channel=9 note=36 velocity=125 time=0.031249427083333333
EXTRACT: note_on channel=9 note=44 velocity=85 time=0
EXTRACT: note_on channel=5 note=63 velocity=80 time=0
EXTRACT: note_on channel=5 note=67 velocity=74 time=0
EXTRACT: note_on channel=12 note=53 velocity=85 time=0
EXTRACT: note_on channel=12 note=58 velocity=82 time=0
EXTRACT: note_on channel=12 note=63 velocity=82 time=0
EXTRACT: note_on channel=13 note=77 velocity=120 time=0
EXTRACT: note_on channel=14 note=46 velocity=81 time=0
EXTRACT: note_off channel=9 note=46 velocity=0 time=0.07692166666666667
EXTRACT: note_off channel=5 note=63 velocity=0 time=0.00721140625
EXTRACT: note_off channel=14 note=46 velocity=0 time=0.00721140625
EXTRACT: note_off channel=5 note=67 velocity=0 time=0.004807604166666667
EXTRACT: note_on channel=14 note=58 velocity=79 time=0.019230416666666666
EXTRACT: note_off channel=1 note=27 velocity=0 time=0.06490265625
EXTRACT: note_off channel=12 note=58 velocity=0 time=0.0144228125
EXTRACT: note_off channel=14 note=58 velocity=0 time=0.012019010416666667
EXTRACT: note_off channel=12 note=63 velocity=0 time=0.004807604166666667
EXTRACT: note_on channel=9 note=36 velocity=120 time=0.019230416666666666
EXTRACT: note_on channel=9 note=46 velocity=71 time=0
EXTRACT: note_on channel=1 note=27 velocity=95 time=0
EXTRACT: note_on channel=5 note=63 velocity=71 time=0
EXTRACT: note_on channel=5 note=68 velocity=78 time=0
EXTRACT: note_on channel=6 note=58 velocity=115 time=0
EXTRACT: note_on channel=6 note=63 velocity=111 time=0
EXTRACT: note_on channel=6 note=68 velocity=111 time=0
EXTRACT: note_on channel=7 note=62 velocity=81 time=0
EXTRACT: note_on channel=7 note=74 velocity=100 time=0
EXTRACT: note_on channel=14 note=46 velocity=80 time=0
EXTRACT: note_off channel=9 note=36 velocity=64 time=0.05769125
EXTRACT: note_off channel=12 note=53 velocity=0 time=0.0024038020833333333
EXTRACT: note_off channel=9 note=44 velocity=0 time=0.028845625
EXTRACT: note_off channel=9 note=40 velocity=0 time=0.0024038020833333333
EXTRACT: note_off channel=14 note=46 velocity=0 time=0
EXTRACT: note_off channel=9 note=36 velocity=0 time=0.0024038020833333333
EXTRACT: note_off channel=9 note=39 velocity=0 time=0
EXTRACT: note_on channel=8 note=74 velocity=76 time=0.02163421875
EXTRACT: note_on channel=14 note=58 velocity=79 time=0
EXTRACT: note_off channel=14 note=58 velocity=0 time=0.09374828125
EXTRACT: note_on channel=9 note=36 velocity=125 time=0.02163421875
EXTRACT: note_on channel=9 note=39 velocity=66 time=0
EXTRACT: note_on channel=9 note=40 velocity=65 time=0
EXTRACT: note_on channel=9 note=44 velocity=101 time=0
EXTRACT: note_on channel=12 note=53 velocity=82 time=0
EXTRACT: note_on channel=12 note=58 velocity=88 time=0
EXTRACT: note_on channel=12 note=63 velocity=82 time=0
EXTRACT: note_on channel=14 note=46 velocity=82 time=0
EXTRACT: note_off channel=7 note=62 velocity=0 time=0.012019010416666667
EXTRACT: note_off channel=7 note=74 velocity=0 time=0.016826614583333333
EXTRACT: note_off channel=14 note=46 velocity=0 time=0.06730645833333333
EXTRACT: note_off channel=9 note=46 velocity=0 time=0.00721140625
EXTRACT: note_off channel=8 note=74 velocity=0 time=0.00721140625
EXTRACT: note_off channel=5 note=63 velocity=0 time=0.004807604166666667
EXTRACT: note_on channel=7 note=62 velocity=87 time=0
EXTRACT: note_on channel=7 note=74 velocity=72 time=0
EXTRACT: note_on channel=14 note=58 velocity=79 time=0
EXTRACT: note_off channel=5 note=68 velocity=0 time=0.016826614583333333
EXTRACT: note_off channel=12 note=53 velocity=0 time=0.026441822916666666
EXTRACT: note_off channel=12 note=58 velocity=0 time=0.04086463541666667
EXTRACT: note_off channel=12 note=63 velocity=0 time=0.016826614583333333
EXTRACT: note_off channel=14 note=58 velocity=0 time=0
EXTRACT: note_off channel=1 note=27 velocity=0 time=0.012019010416666667
EXTRACT: note_on channel=9 note=46 velocity=70 time=0.0024038020833333333
EXTRACT: note_on channel=1 note=31 velocity=62 time=0
EXTRACT: note_on channel=8 note=74 velocity=76 time=0
EXTRACT: note_on channel=12 note=53 velocity=82 time=0
EXTRACT: note_on channel=12 note=58 velocity=73 time=0
EXTRACT: note_on channel=12 note=62 velocity=73 time=0
EXTRACT: note_on channel=14 note=46 velocity=82 time=0
EXTRACT: note_off channel=6 note=63 velocity=0 time=0.00721140625
EXTRACT: note_off channel=6 note=68 velocity=0 time=0.0144228125
EXTRACT: note_off channel=6 note=58 velocity=0 time=0.0024038020833333333
EXTRACT: note_off channel=9 note=44 velocity=0 time=0.060095052083333336
EXTRACT: note_off channel=12 note=62 velocity=0 time=0.0024038020833333333
EXTRACT: note_off channel=9 note=36 velocity=0 time=0.004807604166666667
EXTRACT: note_off channel=14 note=46 velocity=0 time=0.0024038020833333333
EXTRACT: note_off channel=7 note=62 velocity=0 time=0.004807604166666667
EXTRACT: note_off channel=12 note=58 velocity=0 time=0.012019010416666667
EXTRACT: note_off channel=12 note=53 velocity=0 time=0
EXTRACT: note_off channel=7 note=74 velocity=0 time=0.0024038020833333333
EXTRACT: note_on channel=14 note=58 velocity=78 time=0.0024038020833333333
EXTRACT: note_off channel=9 note=46 velocity=0 time=0.0432684375
EXTRACT: note_off channel=1 note=31 velocity=0 time=0.02163421875
EXTRACT: note_off channel=8 note=74 velocity=0 time=0.02163421875
EXTRACT: note_off channel=14 note=58 velocity=0 time=0.0144228125
EXTRACT: note_on channel=9 note=36 velocity=125 time=0.0144228125
EXTRACT: note_on channel=9 note=44 velocity=111 time=0
EXTRACT: note_on channel=1 note=34 velocity=82 time=0
EXTRACT: note_on channel=7 note=62 velocity=94 time=0
EXTRACT: note_on channel=7 note=74 velocity=103 time=0
EXTRACT: note_on channel=8 note=74 velocity=87 time=0
EXTRACT: note_on channel=14 note=46 velocity=82 time=0
EXTRACT: note_off channel=14 note=46 velocity=0 time=0.09374828125
EXTRACT: note_on channel=14 note=58 velocity=79 time=0.02163421875
EXTRACT: note_off channel=7 note=62 velocity=0 time=0.09374828125
EXTRACT: note_off channel=14 note=58 velocity=0 time=0.012019010416666667
EXTRACT: note_off channel=7 note=74 velocity=0 time=0.0024038020833333333
EXTRACT: note_off channel=8 note=74 velocity=0 time=0.0024038020833333333
EXTRACT: note_on channel=9 note=46 velocity=75 time=0.004807604166666667
EXTRACT: note_on channel=5 note=62 velocity=78 time=0
EXTRACT: note_on channel=5 note=65 velocity=85 time=0
EXTRACT: note_on channel=6 note=58 velocity=115 time=0
EXTRACT: note_on channel=6 note=62 velocity=100 time=0
EXTRACT: note_on channel=6 note=65 velocity=105 time=0
EXTRACT: note_on channel=12 note=53 velocity=82 time=0
EXTRACT: note_on channel=12 note=58 velocity=82 time=0
EXTRACT: note_on channel=12 note=62 velocity=73 time=0
EXTRACT: note_on channel=14 note=46 velocity=81 time=0
EXTRACT: note_off channel=9 note=44 velocity=0 time=0.026441822916666666
EXTRACT: note_off channel=9 note=39 velocity=0 time=0.012019010416666667
EXTRACT: note_off channel=9 note=40 velocity=0 time=0.00721140625
EXTRACT: note_off channel=5 note=62 velocity=0 time=0.02163421875
EXTRACT: note_off channel=6 note=65 velocity=0 time=0.00721140625
EXTRACT: note_off channel=5 note=65 velocity=0 time=0.0024038020833333333
EXTRACT: note_off channel=6 note=62 velocity=0 time=0.004807604166666667
EXTRACT: note_off channel=6 note=58 velocity=0 time=0.0024038020833333333
EXTRACT: note_off channel=14 note=46 velocity=0 time=0
EXTRACT: note_off channel=12 note=58 velocity=0 time=0.012019010416666667
EXTRACT: note_off channel=12 note=62 velocity=0 time=0.0024038020833333333
EXTRACT: note_off channel=9 note=36 velocity=0 time=0.004807604166666667
EXTRACT: note_off channel=12 note=53 velocity=0 time=0.0024038020833333333
EXTRACT: note_on channel=7 note=62 velocity=94 time=0.009615208333333333
EXTRACT: note_on channel=7 note=74 velocity=94 time=0
EXTRACT: note_on channel=8 note=74 velocity=87 time=0
EXTRACT: note_on channel=14 note=58 velocity=79 time=0
EXTRACT: note_off channel=14 note=58 velocity=0 time=0.10576729166666667
EXTRACT: note_off channel=1 note=34 velocity=0 time=0.004807604166666667
EXTRACT: note_on channel=9 note=36 velocity=122 time=0.004807604166666667
EXTRACT: note_on channel=9 note=39 velocity=65 time=0
EXTRACT: note_on channel=9 note=40 velocity=65 time=0
EXTRACT: note_on channel=9 note=44 velocity=92 time=0
EXTRACT: note_on channel=1 note=29 velocity=76 time=0
EXTRACT: note_on channel=14 note=46 velocity=82 time=0
EXTRACT: note_off channel=8 note=74 velocity=0 time=0.07692166666666667
EXTRACT: note_off channel=7 note=62 velocity=0 time=0.019230416666666666
EXTRACT: note_off channel=14 note=46 velocity=0 time=0.0024038020833333333
EXTRACT: note_off channel=7 note=74 velocity=0 time=0.009615208333333333
EXTRACT: note_off channel=9 note=46 velocity=0 time=0.004807604166666667
EXTRACT: note_on channel=14 note=58 velocity=79 time=0.0024038020833333333
EXTRACT: note_off channel=14 note=58 velocity=0 time=0.09374828125
EXTRACT: note_off channel=1 note=29 velocity=0 time=0.016826614583333333
EXTRACT: note_on channel=9 note=46 velocity=63 time=0.004807604166666667
EXTRACT: note_on channel=1 note=27 velocity=91 time=0
EXTRACT: note_on channel=5 note=63 velocity=88 time=0
EXTRACT: note_on channel=5 note=67 velocity=85 time=0
EXTRACT: note_on channel=6 note=58 velocity=102 time=0
EXTRACT: note_on channel=6 note=62 velocity=100 time=0
EXTRACT: note_on channel=6 note=65 velocity=108 time=0
EXTRACT: note_on channel=7 note=62 velocity=94 time=0
EXTRACT: note_on channel=7 note=74 velocity=103 time=0
EXTRACT: note_on channel=8 note=74 velocity=98 time=0
EXTRACT: note_on channel=12 note=53 velocity=88 time=0
EXTRACT: note_on channel=12 note=58 velocity=78 time=0
EXTRACT: note_on channel=12 note=63 velocity=74 time=0
EXTRACT: note_on channel=14 note=46 velocity=81 time=0
EXTRACT: note_off channel=9 note=44 velocity=0 time=0.036057031249999996
EXTRACT: note_off channel=6 note=62 velocity=0 time=0.012019010416666667
EXTRACT: note_off channel=6 note=65 velocity=0 time=0.0024038020833333333
EXTRACT: note_off channel=5 note=63 velocity=0 time=0.0144228125
EXTRACT: note_off channel=6 note=58 velocity=0 time=0.012019010416666667
EXTRACT: note_off channel=5 note=67 velocity=0 time=0.004807604166666667
EXTRACT: note_off channel=14 note=46 velocity=0 time=0.00721140625
EXTRACT: note_off channel=12 note=58 velocity=0 time=0.02163421875
EXTRACT: note_on channel=14 note=58 velocity=79 time=0.004807604166666667
EXTRACT: note_off channel=9 note=36 velocity=0 time=0.0024038020833333333
EXTRACT: note_off channel=12 note=63 velocity=0 time=0.004807604166666667
EXTRACT: note_off channel=12 note=53 velocity=0 time=0
EXTRACT: note_off channel=8 note=74 velocity=0 time=0.05288364583333333
EXTRACT: note_off channel=7 note=62 velocity=0 time=0.004807604166666667
EXTRACT: note_off channel=7 note=74 velocity=0 time=0.0024038020833333333
EXTRACT: note_off channel=14 note=58 velocity=0 time=0.028845625
EXTRACT: note_on channel=9 note=36 velocity=125 time=0.019230416666666666
EXTRACT: note_on channel=9 note=44 velocity=85 time=0
EXTRACT: note_on channel=8 note=74 velocity=92 time=0
EXTRACT: note_on channel=14 note=46 velocity=82 time=0
EXTRACT: note_off channel=9 note=46 velocity=0 time=0.07692166666666667
EXTRACT: note_off channel=14 note=46 velocity=0 time=0.012019010416666667
EXTRACT: note_off channel=1 note=27 velocity=0 time=0.019230416666666666
EXTRACT: note_on channel=7 note=62 velocity=103 time=0.00721140625
EXTRACT: note_on channel=7 note=74 velocity=103 time=0
EXTRACT: note_on channel=14 note=58 velocity=78 time=0
EXTRACT: note_off channel=8 note=74 velocity=0 time=0.08413307291666666
EXTRACT: note_off channel=14 note=58 velocity=0 time=0.019230416666666666
EXTRACT: note_on channel=9 note=36 velocity=120 time=0.012019010416666667
EXTRACT: note_on channel=9 note=46 velocity=71 time=0
EXTRACT: note_on channel=1 note=27 velocity=95 time=0
EXTRACT: note_on channel=5 note=63 velocity=82 time=0
EXTRACT: note_on channel=5 note=68 velocity=82 time=0
EXTRACT: note_on channel=6 note=58 velocity=108 time=0
EXTRACT: note_on channel=6 note=63 velocity=111 time=0
EXTRACT: note_on channel=6 note=68 velocity=108 time=0
EXTRACT: note_on channel=12 note=53 velocity=85 time=0
EXTRACT: note_on channel=12 note=58 velocity=88 time=0
EXTRACT: note_on channel=12 note=63 velocity=88 time=0
EXTRACT: note_on channel=14 note=46 velocity=81 time=0
EXTRACT: note_off channel=9 note=36 velocity=64 time=0.05769125
EXTRACT: note_off channel=9 note=40 velocity=0 time=0.012019010416666667
EXTRACT: note_off channel=9 note=39 velocity=0 time=0
EXTRACT: note_off channel=9 note=44 velocity=0 time=0.019230416666666666
EXTRACT: note_off channel=14 note=46 velocity=0 time=0.004807604166666667
EXTRACT: note_off channel=9 note=36 velocity=0 time=0.00721140625
EXTRACT: note_on channel=8 note=74 velocity=92 time=0.0144228125
EXTRACT: note_on channel=14 note=58 velocity=79 time=0
EXTRACT: note_off channel=14 note=58 velocity=0 time=0.1009596875
EXTRACT: note_on channel=9 note=36 velocity=125 time=0.0144228125
EXTRACT: note_on channel=9 note=39 velocity=65 time=0
EXTRACT: note_on channel=9 note=40 velocity=64 time=0
EXTRACT: note_on channel=9 note=44 velocity=101 time=0
EXTRACT: note_on channel=14 note=46 velocity=82 time=0
EXTRACT: note_off channel=7 note=74 velocity=0 time=0.012019010416666667
EXTRACT: note_off channel=7 note=62 velocity=0 time=0.004807604166666667
EXTRACT: note_off channel=14 note=46 velocity=0 time=0.07451786458333333
EXTRACT: note_off channel=9 note=46 velocity=0 time=0.012019010416666667
EXTRACT: note_on channel=14 note=58 velocity=79 time=0.012019010416666667
EXTRACT: note_off channel=12 note=58 velocity=0 time=0.0144228125
EXTRACT: note_off channel=12 note=63 velocity=0 time=0.009615208333333333
EXTRACT: note_off channel=12 note=53 velocity=0 time=0
EXTRACT: note_off channel=8 note=74 velocity=0 time=0.0432684375
EXTRACT: note_off channel=14 note=58 velocity=0 time=0.028845625
EXTRACT: note_on channel=9 note=46 velocity=70 time=0.019230416666666666
EXTRACT: note_on channel=1 note=31 velocity=85 time=0
EXTRACT: note_on channel=12 note=53 velocity=78 time=0
EXTRACT: note_on channel=12 note=58 velocity=80 time=0
EXTRACT: note_on channel=12 note=63 velocity=82 time=0
EXTRACT: note_on channel=14 note=46 velocity=81 time=0
EXTRACT: note_off channel=1 note=27 velocity=0 time=0.00721140625
EXTRACT: note_off channel=5 note=63 velocity=0 time=0.036057031249999996
EXTRACT: note_off channel=5 note=68 velocity=0 time=0.016826614583333333
EXTRACT: note_off channel=6 note=63 velocity=0 time=0.00721140625
EXTRACT: note_off channel=9 note=44 velocity=0 time=0.016826614583333333
EXTRACT: note_off channel=6 note=68 velocity=0 time=0
EXTRACT: note_off channel=6 note=58 velocity=0 time=0.0024038020833333333
EXTRACT: note_off channel=12 note=58 velocity=0 time=0.0024038020833333333
EXTRACT: note_off channel=14 note=46 velocity=0 time=0.004807604166666667
EXTRACT: note_off channel=12 note=63 velocity=0 time=0.012019010416666667
EXTRACT: note_off channel=12 note=53 velocity=0 time=0
EXTRACT: note_off channel=9 note=36 velocity=0 time=0.0024038020833333333
EXTRACT: note_on channel=14 note=58 velocity=80 time=0.00721140625
EXTRACT: note_off channel=9 note=46 velocity=0 time=0.0432684375
EXTRACT: note_off channel=1 note=31 velocity=0 time=0.031249427083333333
EXTRACT: note_off channel=14 note=58 velocity=0 time=0.019230416666666666
EXTRACT: note_on channel=9 note=36 velocity=125 time=0.02163421875
EXTRACT: note_on channel=9 note=44 velocity=111 time=0
EXTRACT: note_on channel=9 note=49 velocity=80 time=0
EXTRACT: note_on channel=9 note=57 velocity=89 time=0
EXTRACT: note_on channel=1 note=34 velocity=104 time=0
EXTRACT: note_on channel=12 note=53 velocity=88 time=0
EXTRACT: note_on channel=12 note=58 velocity=78 time=0
EXTRACT: note_on channel=12 note=62 velocity=76 time=0
EXTRACT: note_on channel=13 note=80 velocity=104 time=0
EXTRACT: note_on channel=14 note=46 velocity=84 time=0
EXTRACT: note_off channel=13 note=77 velocity=0 time=0.04086463541666667
EXTRACT: note_off channel=9 note=49 velocity=0 time=0.036057031249999996
EXTRACT: note_off channel=14 note=46 velocity=0 time=0.009615208333333333
EXTRACT: note_off channel=9 note=57 velocity=0 time=0.0024038020833333333
EXTRACT: note_off channel=12 note=58 velocity=0 time=0.00721140625
EXTRACT: note_off channel=9 note=36 velocity=0 time=0.00721140625
EXTRACT: note_off channel=12 note=62 velocity=0 time=0.009615208333333333
EXTRACT: note_on channel=14 note=58 velocity=80 time=0.0024038020833333333
EXTRACT: note_off channel=12 note=53 velocity=0 time=0.00721140625
EXTRACT: note_off channel=14 note=58 velocity=0 time=0.10576729166666667
EXTRACT: note_on channel=9 note=46 velocity=75 time=0.0024038020833333333
EXTRACT: note_on channel=5 note=62 velocity=73 time=0
EXTRACT: note_on channel=5 note=65 velocity=71 time=0
EXTRACT: note_on channel=14 note=46 velocity=82 time=0
EXTRACT: note_off channel=9 note=44 velocity=0 time=0.026441822916666666
EXTRACT: note_off channel=9 note=39 velocity=0 time=0.02163421875
EXTRACT: note_off channel=9 note=40 velocity=0 time=0.004807604166666667
EXTRACT: note_off channel=5 note=65 velocity=0 time=0
EXTRACT: note_off channel=5 note=62 velocity=0 time=0.012019010416666667
EXTRACT: note_off channel=14 note=46 velocity=0 time=0.00721140625
EXTRACT: note_on channel=14 note=58 velocity=79 time=0.0432684375
EXTRACT: note_off channel=1 note=34 velocity=0 time=0.07932546875
EXTRACT: note_off channel=14 note=58 velocity=0 time=0.004807604166666667
EXTRACT: note_on channel=9 note=36 velocity=107 time=0.031249427083333333
EXTRACT: note_on channel=9 note=39 velocity=78 time=0
EXTRACT: note_on channel=9 note=40 velocity=74 time=0
EXTRACT: note_on channel=9 note=44 velocity=92 time=0
EXTRACT: note_on channel=1 note=29 velocity=73 time=0
EXTRACT: note_on channel=5 note=62 velocity=67 time=0
EXTRACT: note_on channel=5 note=65 velocity=82 time=0
EXTRACT: note_on channel=6 note=58 velocity=127 time=0
EXTRACT: note_on channel=6 note=62 velocity=108 time=0
EXTRACT: note_on channel=6 note=65 velocity=118 time=0
EXTRACT: note_on channel=12 note=53 velocity=80 time=0
EXTRACT: note_on channel=12 note=58 velocity=73 time=0
EXTRACT: note_on channel=12 note=62 velocity=73 time=0
EXTRACT: note_on channel=14 note=46 velocity=82 time=0
EXTRACT: note_off channel=14 note=46 velocity=0 time=0.086536875
EXTRACT: note_off channel=12 note=62 velocity=0 time=0.016826614583333333
EXTRACT: note_off channel=5 note=62 velocity=0 time=0.0024038020833333333
EXTRACT: note_off channel=9 note=46 velocity=0 time=0.00721140625
EXTRACT: note_off channel=12 note=58 velocity=0 time=0
EXTRACT: note_on channel=14 note=58 velocity=79 time=0.0024038020833333333
EXTRACT: note_off channel=5 note=65 velocity=0 time=0.004807604166666667
EXTRACT: note_off channel=12 note=53 velocity=0 time=0.0024038020833333333
EXTRACT: note_off channel=9 note=36 velocity=0 time=0.009615208333333333
EXTRACT: note_off channel=1 note=29 velocity=0 time=0.036057031249999996
EXTRACT: note_off channel=6 note=58 velocity=0 time=0.012019010416666667
EXTRACT: note_off channel=6 note=62 velocity=0 time=0.0024038020833333333
EXTRACT: note_off channel=6 note=65 velocity=0 time=0.004807604166666667
EXTRACT: note_off channel=14 note=58 velocity=0 time=0.0144228125
EXTRACT: note_on channel=9 note=46 velocity=63 time=0.028845625
EXTRACT: note_on channel=1 note=27 velocity=88 time=0
EXTRACT: note_on channel=12 note=53 velocity=76 time=0
EXTRACT: note_on channel=12 note=58 velocity=74 time=0
EXTRACT: note_on channel=12 note=63 velocity=74 time=0
EXTRACT: note_on channel=14 note=46 velocity=80 time=0
EXTRACT: note_off channel=9 note=44 velocity=0 time=0.036057031249999996
EXTRACT: note_off channel=14 note=46 velocity=0 time=0.05047984375
EXTRACT: control_change channel=14 control=1 value=24 time=0
EXTRACT: note_off channel=12 note=53 velocity=0 time=0.026441822916666666
EXTRACT: note_on channel=14 note=58 velocity=79 time=0.0024038020833333333
EXTRACT: control_change channel=14 control=1 value=32 time=0.009615208333333333
EXTRACT: note_off channel=12 note=58 velocity=0 time=0.00721140625
EXTRACT: note_off channel=12 note=63 velocity=0 time=0.012019010416666667
EXTRACT: control_change channel=14 control=1 value=38 time=0.019230416666666666
EXTRACT: note_off channel=14 note=58 velocity=0 time=0.036057031249999996
EXTRACT: control_change channel=14 control=1 value=44 time=0.0024038020833333333
EXTRACT: note_on channel=9 note=36 velocity=93 time=0.028845625
EXTRACT: note_on channel=9 note=44 velocity=85 time=0
EXTRACT: note_on channel=5 note=63 velocity=82 time=0
EXTRACT: note_on channel=5 note=67 velocity=85 time=0
EXTRACT: note_on channel=14 note=46 velocity=81 time=0
EXTRACT: control_change channel=14 control=1 value=51 time=0.012019010416666667
EXTRACT: control_change channel=14 control=1 value=57 time=0.03846083333333333
EXTRACT: note_off channel=9 note=46 velocity=0 time=0.026441822916666666
EXTRACT: note_off channel=5 note=63 velocity=0 time=0.00721140625
EXTRACT: control_change channel=14 control=1 value=62 time=0.004807604166666667
EXTRACT: note_off channel=5 note=67 velocity=0 time=0.0024038020833333333
EXTRACT: note_off channel=14 note=46 velocity=0 time=0
EXTRACT: note_on channel=14 note=58 velocity=79 time=0.024038020833333333
EXTRACT: control_change channel=14 control=1 value=65 time=0.012019010416666667
EXTRACT: control_change channel=14 control=1 value=67 time=0.03846083333333333
EXTRACT: note_off channel=1 note=27 velocity=0 time=0.0144228125
EXTRACT: note_off channel=14 note=58 velocity=0 time=0.026441822916666666
EXTRACT: control_change channel=14 control=1 value=68 time=0.016826614583333333
EXTRACT: note_on channel=9 note=36 velocity=120 time=0.00721140625
EXTRACT: note_on channel=9 note=46 velocity=71 time=0
EXTRACT: note_on channel=1 note=27 velocity=95 time=0
EXTRACT: note_on channel=5 note=63 velocity=78 time=0
EXTRACT: note_on channel=5 note=68 velocity=78 time=0
EXTRACT: note_on channel=6 note=58 velocity=115 time=0
EXTRACT: note_on channel=6 note=63 velocity=111 time=0
EXTRACT: note_on channel=6 note=68 velocity=111 time=0
EXTRACT: note_on channel=12 note=53 velocity=71 time=0
EXTRACT: note_on channel=12 note=58 velocity=78 time=0
EXTRACT: note_on channel=12 note=63 velocity=78 time=0
EXTRACT: note_on channel=14 note=46 velocity=80 time=0
EXTRACT: note_off channel=9 note=36 velocity=0 time=0.028845625
EXTRACT: control_change channel=14 control=1 value=70 time=0.0024038020833333333
EXTRACT: note_off channel=9 note=36 velocity=64 time=0.026441822916666666
EXTRACT: control_change channel=14 control=1 value=73 time=0.0144228125
EXTRACT: note_off channel=9 note=44 velocity=0 time=0.016826614583333333
EXTRACT: note_off channel=14 note=46 velocity=0 time=0.0024038020833333333
EXTRACT: note_off channel=9 note=39 velocity=0 time=0.0024038020833333333
EXTRACT: note_off channel=9 note=40 velocity=0 time=0.009615208333333333
EXTRACT: control_change channel=14 control=1 value=77 time=0.00721140625
EXTRACT: note_on channel=14 note=58 velocity=79 time=0.004807604166666667
EXTRACT: control_change channel=14 control=1 value=80 time=0.033653229166666666
EXTRACT: control_change channel=14 control=1 value=83 time=0.03846083333333333
EXTRACT: note_off channel=14 note=58 velocity=0 time=0.02163421875
EXTRACT: control_change channel=14 control=1 value=85 time=0.016826614583333333
EXTRACT: note_on channel=9 note=36 velocity=125 time=0.004807604166666667
EXTRACT: note_on channel=9 note=39 velocity=62 time=0
EXTRACT: note_on channel=9 note=40 velocity=66 time=0
EXTRACT: note_on channel=9 note=44 velocity=101 time=0
EXTRACT: note_on channel=14 note=46 velocity=82 time=0
EXTRACT: control_change channel=14 control=1 value=87 time=0.033653229166666666
EXTRACT: control_change channel=14 control=1 value=88 time=0.03846083333333333
EXTRACT: note_off channel=14 note=46 velocity=0 time=0.024038020833333333
EXTRACT: note_off channel=9 note=46 velocity=0 time=0.00721140625
EXTRACT: note_off channel=12 note=53 velocity=0 time=0.004807604166666667
EXTRACT: control_change channel=14 control=1 value=91 time=0.0024038020833333333
EXTRACT: note_on channel=14 note=58 velocity=79 time=0.004807604166666667
EXTRACT: note_off channel=12 note=58 velocity=0 time=0.00721140625
EXTRACT: note_off channel=12 note=63 velocity=0 time=0.0144228125
EXTRACT: control_change channel=14 control=1 value=93 time=0.012019010416666667
EXTRACT: control_change channel=14 control=1 value=94 time=0.03846083333333333
EXTRACT: note_off channel=14 note=58 velocity=0 time=0.028845625
EXTRACT: control_change channel=14 control=1 value=96 time=0.009615208333333333
EXTRACT: note_off channel=1 note=27 velocity=0 time=0.0024038020833333333
EXTRACT: note_on channel=9 note=46 velocity=70 time=0.0024038020833333333
EXTRACT: note_on channel=1 note=31 velocity=62 time=0
EXTRACT: note_on channel=12 note=53 velocity=71 time=0
EXTRACT: note_on channel=12 note=58 velocity=73 time=0
EXTRACT: note_on channel=12 note=63 velocity=68 time=0
EXTRACT: note_on channel=14 note=46 velocity=82 time=0
EXTRACT: note_off channel=5 note=63 velocity=0 time=0.004807604166666667
EXTRACT: note_off channel=6 note=63 velocity=0 time=0.0024038020833333333
EXTRACT: note_off channel=5 note=68 velocity=0 time=0.0024038020833333333
EXTRACT: note_off channel=6 note=68 velocity=0 time=0.012019010416666667
EXTRACT: note_off channel=6 note=58 velocity=0 time=0.0024038020833333333
EXTRACT: control_change channel=14 control=1 value=97 time=0.009615208333333333
EXTRACT: note_off channel=9 note=44 velocity=0 time=0.05047984375
EXTRACT: note_off channel=9 note=36 velocity=0 time=0.0024038020833333333
EXTRACT: note_off channel=14 note=46 velocity=0 time=0.00721140625
EXTRACT: control_change channel=14 control=1 value=98 time=0
EXTRACT: note_on channel=14 note=58 velocity=78 time=0.02163421875
EXTRACT: note_off channel=12 note=53 velocity=0 time=0.00721140625
EXTRACT: note_off channel=12 note=58 velocity=0 time=0.012019010416666667
EXTRACT: note_off channel=9 note=46 velocity=0 time=0.024038020833333333
EXTRACT: note_off channel=12 note=63 velocity=0 time=0.004807604166666667
EXTRACT: control_change channel=14 control=1 value=97 time=0.004807604166666667
EXTRACT: note_off channel=1 note=31 velocity=0 time=0.012019010416666667
EXTRACT: note_off channel=14 note=58 velocity=0 time=0.036057031249999996
EXTRACT: note_on channel=9 note=36 velocity=118 time=0.0144228125
EXTRACT: note_on channel=9 note=44 velocity=111 time=0
EXTRACT: note_on channel=1 note=34 velocity=82 time=0
EXTRACT: note_on channel=7 note=65 velocity=95 time=0
EXTRACT: note_on channel=7 note=68 velocity=95 time=0
EXTRACT: note_on channel=12 note=53 velocity=74 time=0
EXTRACT: note_on channel=12 note=58 velocity=73 time=0
EXTRACT: note_on channel=12 note=62 velocity=71 time=0
EXTRACT: note_on channel=14 note=46 velocity=82 time=0
EXTRACT: note_on channel=14 note=74 velocity=98 time=0
EXTRACT: note_on channel=14 note=77 velocity=98 time=0
EXTRACT: control_change channel=14 control=1 value=98 time=0.07211406249999999
EXTRACT: note_off channel=12 note=58 velocity=0 time=0.02163421875
EXTRACT: note_off channel=14 note=46 velocity=0 time=0
EXTRACT: note_off channel=12 note=62 velocity=0 time=0.012019010416666667
EXTRACT: note_off channel=12 note=53 velocity=0 time=0.004807604166666667
EXTRACT: control_change channel=14 control=1 value=99 time=0.0024038020833333333
EXTRACT: note_on channel=14 note=58 velocity=79 time=0.0024038020833333333
EXTRACT: control_change channel=14 control=1 value=102 time=0.036057031249999996
EXTRACT: control_change channel=14 control=1 value=103 time=0.03846083333333333
EXTRACT: note_off channel=14 note=58 velocity=0 time=0.031249427083333333
EXTRACT: control_change channel=14 control=1 value=104 time=0.00721140625
EXTRACT: note_on channel=9 note=46 velocity=75 time=0.0024038020833333333
EXTRACT: note_on channel=5 note=62 velocity=76 time=0
EXTRACT: note_on channel=5 note=65 velocity=85 time=0
EXTRACT: note_on channel=6 note=58 velocity=115 time=0
EXTRACT: note_on channel=6 note=62 velocity=100 time=0
EXTRACT: note_on channel=6 note=65 velocity=105 time=0
EXTRACT: note_on channel=14 note=46 velocity=81 time=0
EXTRACT: note_off channel=9 note=44 velocity=0 time=0.026441822916666666
EXTRACT: control_change channel=14 control=1 value=105 time=0.009615208333333333
EXTRACT: note_off channel=6 note=65 velocity=0 time=0.03846083333333333
EXTRACT: control_change channel=14 control=1 value=106 time=0
EXTRACT: note_off channel=9 note=36 velocity=0 time=0.0024038020833333333
EXTRACT: note_off channel=5 note=65 velocity=0 time=0
EXTRACT: note_off channel=6 note=62 velocity=0 time=0.004807604166666667
EXTRACT: note_off channel=5 note=62 velocity=0 time=0.0024038020833333333
EXTRACT: note_off channel=6 note=58 velocity=0 time=0
EXTRACT: note_off channel=14 note=46 velocity=0 time=0
EXTRACT: note_off channel=9 note=40 velocity=0 time=0.012019010416666667
EXTRACT: note_off channel=9 note=39 velocity=0 time=0.009615208333333333
EXTRACT: note_on channel=14 note=58 velocity=79 time=0.009615208333333333
EXTRACT: control_change channel=14 control=1 value=108 time=0.016826614583333333
EXTRACT: control_change channel=14 control=1 value=109 time=0.03846083333333333
EXTRACT: note_off channel=14 note=58 velocity=0 time=0.05047984375
EXTRACT: note_off channel=1 note=34 velocity=0 time=0.004807604166666667
EXTRACT: control_change channel=14 control=1 value=110 time=0.0024038020833333333
EXTRACT: note_on channel=9 note=36 velocity=118 time=0.0024038020833333333
EXTRACT: note_on channel=9 note=39 velocity=66 time=0
EXTRACT: note_on channel=9 note=40 velocity=74 time=0
EXTRACT: note_on channel=9 note=44 velocity=92 time=0
EXTRACT: note_on channel=1 note=29 velocity=76 time=0
EXTRACT: note_on channel=12 note=53 velocity=82 time=0
EXTRACT: note_on channel=12 note=58 velocity=78 time=0
EXTRACT: note_on channel=12 note=62 velocity=73 time=0
EXTRACT: note_on channel=14 note=46 velocity=82 time=0
EXTRACT: control_change channel=14 control=1 value=111 time=0.036057031249999996
EXTRACT: control_change channel=14 control=1 value=114 time=0.060095052083333336
EXTRACT: note_off channel=14 note=46 velocity=0 time=0.0024038020833333333
EXTRACT: note_off channel=9 note=46 velocity=0 time=0.0144228125
EXTRACT: note_on channel=14 note=58 velocity=79 time=0.0024038020833333333
EXTRACT: control_change channel=14 control=1 value=117 time=0.019230416666666666
EXTRACT: note_off channel=12 note=62 velocity=0 time=0.0144228125
EXTRACT: note_off channel=12 note=58 velocity=0 time=0
EXTRACT: note_off channel=12 note=53 velocity=0 time=0
EXTRACT: control_change channel=14 control=1 value=121 time=0.024038020833333333
EXTRACT: note_off channel=14 note=58 velocity=0 time=0.036057031249999996
EXTRACT: control_change channel=14 control=1 value=124 time=0.0024038020833333333
EXTRACT: note_off channel=1 note=29 velocity=0 time=0.0144228125
EXTRACT: note_on channel=9 note=46 velocity=63 time=0.004807604166666667
EXTRACT: note_on channel=1 note=27 velocity=91 time=0
EXTRACT: note_on channel=5 note=63 velocity=88 time=0
EXTRACT: note_on channel=5 note=67 velocity=80 time=0
EXTRACT: note_on channel=6 note=58 velocity=102 time=0
EXTRACT: note_on channel=6 note=62 velocity=100 time=0
EXTRACT: note_on channel=6 note=65 velocity=108 time=0
EXTRACT: note_on channel=12 note=53 velocity=82 time=0
EXTRACT: note_on channel=12 note=58 velocity=80 time=0
EXTRACT: note_on channel=12 note=63 velocity=80 time=0
EXTRACT: note_on channel=14 note=46 velocity=81 time=0
EXTRACT: control_change channel=14 control=1 value=126 time=0.019230416666666666
EXTRACT: note_off channel=9 note=44 velocity=0 time=0.016826614583333333
EXTRACT: note_off channel=6 note=62 velocity=0 time=0.012019010416666667
EXTRACT: note_off channel=6 note=65 velocity=0 time=0.0024038020833333333
EXTRACT: control_change channel=14 control=1 value=127 time=0.00721140625
EXTRACT: note_off channel=6 note=58 velocity=0 time=0.019230416666666666
EXTRACT: note_off channel=14 note=46 velocity=0 time=0.012019010416666667
EXTRACT: note_off channel=5 note=63 velocity=0 time=0.0024038020833333333
EXTRACT: note_off channel=5 note=67 velocity=0 time=0.0144228125
EXTRACT: note_on channel=14 note=58 velocity=79 time=0.009615208333333333
EXTRACT: note_off channel=12 note=58 velocity=0 time=0.019230416666666666
EXTRACT: note_off channel=12 note=63 velocity=0 time=0.004807604166666667
EXTRACT: note_off channel=9 note=36 velocity=0 time=0.0024038020833333333
EXTRACT: note_off channel=12 note=53 velocity=0 time=0.00721140625
EXTRACT: note_off channel=14 note=58 velocity=0 time=0.062498854166666666
EXTRACT: note_on channel=9 note=36 velocity=125 time=0.019230416666666666
EXTRACT: note_on channel=9 note=44 velocity=85 time=0
EXTRACT: note_on channel=14 note=46 velocity=82 time=0
EXTRACT: note_off channel=9 note=46 velocity=0 time=0.07692166666666667
EXTRACT: note_off channel=14 note=46 velocity=0 time=0.012019010416666667
EXTRACT: note_off channel=1 note=27 velocity=0 time=0.019230416666666666
EXTRACT: note_on channel=14 note=58 velocity=78 time=0.00721140625
EXTRACT: note_off channel=14 note=58 velocity=0 time=0.10336348958333333
EXTRACT: note_on channel=9 note=36 velocity=120 time=0.012019010416666667
EXTRACT: note_on channel=9 note=46 velocity=71 time=0
EXTRACT: note_on channel=1 note=27 velocity=95 time=0
EXTRACT: note_on channel=5 note=63 velocity=80 time=0
EXTRACT: note_on channel=5 note=68 velocity=82 time=0
EXTRACT: note_on channel=6 note=58 velocity=108 time=0
EXTRACT: note_on channel=6 note=63 velocity=111 time=0
EXTRACT: note_on channel=6 note=68 velocity=108 time=0
EXTRACT: note_on channel=12 note=53 velocity=80 time=0
EXTRACT: note_on channel=12 note=58 velocity=78 time=0
EXTRACT: note_on channel=12 note=63 velocity=80 time=0
EXTRACT: note_on channel=14 note=46 velocity=81 time=0
EXTRACT: note_off channel=9 note=36 velocity=64 time=0.05769125
EXTRACT: note_off channel=9 note=44 velocity=0 time=0.031249427083333333
EXTRACT: note_off channel=9 note=39 velocity=0 time=0.0024038020833333333
EXTRACT: note_off channel=9 note=40 velocity=0 time=0.0024038020833333333
EXTRACT: note_off channel=14 note=46 velocity=0 time=0
EXTRACT: note_off channel=9 note=36 velocity=0 time=0.019230416666666666
EXTRACT: note_on channel=14 note=58 velocity=79 time=0.0024038020833333333
EXTRACT: note_off channel=14 note=58 velocity=0 time=0.1009596875
EXTRACT: note_on channel=9 note=36 velocity=122 time=0.0144228125
EXTRACT: note_on channel=9 note=39 velocity=65 time=0
EXTRACT: note_on channel=9 note=40 velocity=63 time=0
EXTRACT: note_on channel=9 note=44 velocity=101 time=0
EXTRACT: note_on channel=14 note=46 velocity=82 time=0
EXTRACT: note_off channel=14 note=46 velocity=0 time=0.09134447916666666
EXTRACT: note_off channel=9 note=46 velocity=0 time=0.012019010416666667
EXTRACT: note_on channel=14 note=58 velocity=79 time=0.012019010416666667
EXTRACT: note_off channel=14 note=58 velocity=0 time=0.09615208333333333
EXTRACT: note_on channel=9 note=46 velocity=70 time=0.019230416666666666
EXTRACT: note_on channel=1 note=31 velocity=85 time=0
EXTRACT: note_on channel=14 note=46 velocity=81 time=0
EXTRACT: note_off channel=1 note=27 velocity=0 time=0.00721140625
EXTRACT: note_off channel=12 note=58 velocity=0 time=0.00721140625
EXTRACT: note_off channel=12 note=63 velocity=0 time=0.00721140625
EXTRACT: note_off channel=12 note=53 velocity=0 time=0.004807604166666667
EXTRACT: note_off channel=7 note=68 velocity=0 time=0.016826614583333333
EXTRACT: note_off channel=7 note=65 velocity=0 time=0
EXTRACT: note_off channel=5 note=63 velocity=0 time=0.019230416666666666
EXTRACT: note_off channel=6 note=63 velocity=0 time=0.004807604166666667
EXTRACT: note_off channel=5 note=68 velocity=0 time=0.00721140625
EXTRACT: note_off channel=9 note=44 velocity=0 time=0.009615208333333333
EXTRACT: note_off channel=6 note=68 velocity=0 time=0
EXTRACT: note_off channel=6 note=58 velocity=0 time=0.0024038020833333333
EXTRACT: note_off channel=14 note=46 velocity=0 time=0.00721140625
EXTRACT: note_on channel=14 note=58 velocity=80 time=0.02163421875
EXTRACT: note_off channel=9 note=36 velocity=0 time=0.0024038020833333333
EXTRACT: note_off channel=9 note=46 velocity=0 time=0.04086463541666667
EXTRACT: note_off channel=14 note=74 velocity=0 time=0.00721140625
EXTRACT: note_off channel=14 note=77 velocity=0 time=0.0024038020833333333
EXTRACT: note_off channel=1 note=31 velocity=0 time=0.02163421875
EXTRACT: note_off channel=14 note=58 velocity=0 time=0.019230416666666666
EXTRACT: note_on channel=9 note=36 velocity=118 time=0.02163421875
EXTRACT: note_on channel=9 note=44 velocity=111 time=0
EXTRACT: note_on channel=1 note=34 velocity=104 time=0
EXTRACT: note_on channel=7 note=65 velocity=98 time=0
EXTRACT: note_on channel=7 note=68 velocity=104 time=0
EXTRACT: note_on channel=14 note=46 velocity=84 time=0
EXTRACT: note_on channel=14 note=74 velocity=98 time=0
EXTRACT: note_on channel=14 note=77 velocity=98 time=0
EXTRACT: note_off channel=14 note=46 velocity=0 time=0.086536875
EXTRACT: note_on channel=14 note=58 velocity=80 time=0.028845625
EXTRACT: note_off channel=14 note=58 velocity=0 time=0.11297869791666666
EXTRACT: note_on channel=9 note=46 velocity=75 time=0.0024038020833333333
EXTRACT: note_on channel=5 note=62 velocity=73 time=0
EXTRACT: note_on channel=5 note=65 velocity=80 time=0
EXTRACT: note_on channel=12 note=53 velocity=85 time=0
EXTRACT: note_on channel=12 note=58 velocity=80 time=0
EXTRACT: note_on channel=12 note=62 velocity=76 time=0
EXTRACT: note_on channel=14 note=46 velocity=82 time=0
EXTRACT: note_off channel=9 note=44 velocity=0 time=0.026441822916666666
EXTRACT: note_off channel=9 note=39 velocity=0 time=0.04086463541666667
EXTRACT: note_off channel=5 note=65 velocity=0 time=0.0024038020833333333
EXTRACT: note_off channel=14 note=46 velocity=0 time=0.0024038020833333333
EXTRACT: note_off channel=9 note=40 velocity=0 time=0.0024038020833333333
EXTRACT: note_off channel=5 note=62 velocity=0 time=0.004807604166666667
EXTRACT: note_off channel=12 note=58 velocity=0 time=0.0144228125
EXTRACT: note_off channel=9 note=36 velocity=0 time=0.00721140625
EXTRACT: note_off channel=12 note=62 velocity=0 time=0
EXTRACT: note_off channel=12 note=53 velocity=0 time=0.0144228125
EXTRACT: note_on channel=14 note=58 velocity=79 time=0
EXTRACT: note_off channel=1 note=34 velocity=0 time=0.07932546875
EXTRACT: note_off channel=14 note=58 velocity=0 time=0.004807604166666667
EXTRACT: note_on channel=9 note=36 velocity=118 time=0.031249427083333333
EXTRACT: note_on channel=9 note=39 velocity=62 time=0
EXTRACT: note_on channel=9 note=40 velocity=63 time=0
EXTRACT: note_on channel=9 note=44 velocity=92 time=0
EXTRACT: note_on channel=1 note=29 velocity=73 time=0
EXTRACT: note_on channel=5 note=62 velocity=71 time=0
EXTRACT: note_on channel=5 note=65 velocity=80 time=0
EXTRACT: note_on channel=6 note=58 velocity=127 time=0
EXTRACT: note_on channel=6 note=62 velocity=108 time=0
EXTRACT: note_on channel=6 note=65 velocity=118 time=0
EXTRACT: note_on channel=14 note=46 velocity=82 time=0
EXTRACT: note_off channel=14 note=46 velocity=0 time=0.086536875
EXTRACT: note_off channel=9 note=46 velocity=0 time=0.026441822916666666
EXTRACT: note_on channel=14 note=58 velocity=79 time=0.0024038020833333333
EXTRACT: note_off channel=5 note=62 velocity=0 time=0.024038020833333333
EXTRACT: note_off channel=5 note=65 velocity=0 time=0.009615208333333333
EXTRACT: note_off channel=1 note=29 velocity=0 time=0.019230416666666666
EXTRACT: note_off channel=6 note=58 velocity=0 time=0.012019010416666667
EXTRACT: note_off channel=6 note=62 velocity=0 time=0.0024038020833333333
EXTRACT: note_off channel=6 note=65 velocity=0 time=0.004807604166666667
EXTRACT: note_off channel=14 note=58 velocity=0 time=0.0144228125
EXTRACT: note_on channel=9 note=46 velocity=63 time=0.028845625
EXTRACT: note_on channel=1 note=27 velocity=88 time=0
EXTRACT: note_on channel=12 note=53 velocity=80 time=0
EXTRACT: note_on channel=12 note=58 velocity=78 time=0
EXTRACT: note_on channel=12 note=62 velocity=68 time=0
EXTRACT: note_on channel=14 note=46 velocity=80 time=0
EXTRACT: note_off channel=9 note=44 velocity=0 time=0.036057031249999996
EXTRACT: note_off channel=12 note=62 velocity=0 time=0.04567223958333333
EXTRACT: note_off channel=12 note=58 velocity=0 time=0.0024038020833333333
EXTRACT: note_off channel=14 note=46 velocity=0 time=0.0024038020833333333
EXTRACT: note_off channel=12 note=53 velocity=0 time=0.012019010416666667
EXTRACT: note_off channel=13 note=80 velocity=0 time=0.009615208333333333
EXTRACT: note_on channel=14 note=58 velocity=79 time=0.00721140625
EXTRACT: note_off channel=9 note=36 velocity=0 time=0.02163421875
EXTRACT: note_off channel=14 note=58 velocity=0 time=0.062498854166666666
EXTRACT: note_on channel=9 note=36 velocity=125 time=0.031249427083333333
EXTRACT: note_on channel=9 note=44 velocity=85 time=0
EXTRACT: note_on channel=5 note=63 velocity=82 time=0
EXTRACT: note_on channel=5 note=67 velocity=80 time=0
EXTRACT: note_on channel=12 note=53 velocity=85 time=0
EXTRACT: note_on channel=12 note=58 velocity=82 time=0
EXTRACT: note_on channel=12 note=63 velocity=82 time=0
EXTRACT: note_on channel=13 note=82 velocity=114 time=0
EXTRACT: note_on channel=14 note=46 velocity=81 time=0
EXTRACT: note_off channel=9 note=46 velocity=0 time=0.07692166666666667
EXTRACT: note_off channel=5 note=63 velocity=0 time=0.0144228125
EXTRACT: note_off channel=14 note=46 velocity=0 time=0
EXTRACT: note_off channel=5 note=67 velocity=0 time=0.004807604166666667
EXTRACT: note_on channel=14 note=58 velocity=79 time=0.019230416666666666
EXTRACT: note_off channel=1 note=27 velocity=0 time=0.06490265625
EXTRACT: note_off channel=12 note=58 velocity=0 time=0.0144228125
EXTRACT: note_off channel=14 note=58 velocity=0 time=0.012019010416666667
EXTRACT: note_off channel=12 note=63 velocity=0 time=0.004807604166666667
EXTRACT: note_on channel=9 note=36 velocity=120 time=0.019230416666666666
EXTRACT: note_on channel=9 note=46 velocity=71 time=0
EXTRACT: note_on channel=1 note=27 velocity=95 time=0
EXTRACT: note_on channel=5 note=63 velocity=80 time=0
EXTRACT: note_on channel=5 note=68 velocity=80 time=0
EXTRACT: note_on channel=6 note=58 velocity=115 time=0
EXTRACT: note_on channel=6 note=63 velocity=111 time=0
EXTRACT: note_on channel=6 note=68 velocity=111 time=0
EXTRACT: note_on channel=14 note=46 velocity=80 time=0
EXTRACT: note_off channel=9 note=36 velocity=64 time=0.05769125
EXTRACT: note_off channel=12 note=53 velocity=0 time=0.0024038020833333333
EXTRACT: note_off channel=9 note=44 velocity=0 time=0.028845625
EXTRACT: note_off channel=9 note=40 velocity=0 time=0.0024038020833333333
EXTRACT: note_off channel=14 note=46 velocity=0 time=0
EXTRACT: note_off channel=9 note=36 velocity=0 time=0.0024038020833333333
EXTRACT: note_off channel=9 note=39 velocity=0 time=0
EXTRACT: note_on channel=14 note=58 velocity=79 time=0.02163421875
EXTRACT: note_off channel=14 note=58 velocity=0 time=0.09374828125
EXTRACT: note_on channel=9 note=36 velocity=125 time=0.02163421875
EXTRACT: note_on channel=9 note=39 velocity=66 time=0
EXTRACT: note_on channel=9 note=40 velocity=65 time=0
EXTRACT: note_on channel=9 note=44 velocity=101 time=0
EXTRACT: note_on channel=12 note=53 velocity=82 time=0
EXTRACT: note_on channel=12 note=58 velocity=88 time=0
EXTRACT: note_on channel=12 note=63 velocity=82 time=0
EXTRACT: note_on channel=14 note=46 velocity=82 time=0
EXTRACT: note_off channel=14 note=46 velocity=0 time=0.09615208333333333
EXTRACT: note_off channel=9 note=46 velocity=0 time=0.00721140625
EXTRACT: note_on channel=14 note=58 velocity=79 time=0.012019010416666667
EXTRACT: note_off channel=5 note=63 velocity=0 time=0.02163421875
EXTRACT: note_off channel=5 note=68 velocity=0 time=0.0144228125
EXTRACT: note_off channel=12 note=53 velocity=0 time=0.00721140625
EXTRACT: note_off channel=12 note=58 velocity=0 time=0.04086463541666667
EXTRACT: note_off channel=12 note=63 velocity=0 time=0.016826614583333333
EXTRACT: note_off channel=14 note=58 velocity=0 time=0
EXTRACT: note_off channel=1 note=27 velocity=0 time=0.012019010416666667
EXTRACT: note_on channel=9 note=46 velocity=70 time=0.0024038020833333333
EXTRACT: note_on channel=1 note=31 velocity=62 time=0
EXTRACT: note_on channel=5 note=62 velocity=85 time=0
EXTRACT: note_on channel=5 note=65 velocity=91 time=0
EXTRACT: note_on channel=12 note=53 velocity=82 time=0
EXTRACT: note_on channel=12 note=58 velocity=73 time=0
EXTRACT: note_on channel=12 note=62 velocity=73 time=0
EXTRACT: note_on channel=14 note=46 velocity=82 time=0
EXTRACT: note_off channel=6 note=63 velocity=0 time=0.00721140625
EXTRACT: note_off channel=6 note=68 velocity=0 time=0.0144228125
EXTRACT: note_off channel=6 note=58 velocity=0 time=0.0024038020833333333
EXTRACT: note_off channel=5 note=65 velocity=0 time=0.05047984375
EXTRACT: note_off channel=5 note=62 velocity=0 time=0.00721140625
EXTRACT: note_off channel=9 note=44 velocity=0 time=0.0024038020833333333
EXTRACT: note_off channel=12 note=62 velocity=0 time=0.0024038020833333333
EXTRACT: note_off channel=9 note=36 velocity=0 time=0.004807604166666667
EXTRACT: note_off channel=14 note=46 velocity=0 time=0.0024038020833333333
EXTRACT: note_off channel=7 note=65 velocity=0 time=0.00721140625
EXTRACT: note_off channel=7 note=68 velocity=0 time=0.0024038020833333333
EXTRACT: note_off channel=12 note=58 velocity=0 time=0.00721140625
EXTRACT: note_off channel=12 note=53 velocity=0 time=0
EXTRACT: note_off channel=14 note=74 velocity=0 time=0.004807604166666667
EXTRACT: note_on channel=14 note=58 velocity=78 time=0
EXTRACT: note_off channel=14 note=77 velocity=0 time=0.009615208333333333
EXTRACT: note_off channel=9 note=46 velocity=0 time=0.033653229166666666
EXTRACT: note_off channel=1 note=31 velocity=0 time=0.02163421875
EXTRACT: note_off channel=14 note=58 velocity=0 time=0.036057031249999996
EXTRACT: note_on channel=9 note=35 velocity=120 time=0.0144228125
EXTRACT: note_on channel=9 note=36 velocity=125 time=0
EXTRACT: note_on channel=9 note=44 velocity=111 time=0
EXTRACT: note_on channel=1 note=34 velocity=82 time=0
EXTRACT: note_on channel=7 note=65 velocity=104 time=0
EXTRACT: note_on channel=7 note=68 velocity=95 time=0
EXTRACT: note_on channel=14 note=46 velocity=82 time=0
EXTRACT: note_on channel=14 note=74 velocity=98 time=0
EXTRACT: note_on channel=14 note=77 velocity=98 time=0
EXTRACT: note_off channel=14 note=46 velocity=0 time=0.09374828125
EXTRACT: note_off channel=9 note=35 velocity=0 time=0.009615208333333333
EXTRACT: note_on channel=14 note=58 velocity=79 time=0.012019010416666667
EXTRACT: note_off channel=14 note=58 velocity=0 time=0.10576729166666667
EXTRACT: note_on channel=9 note=35 velocity=110 time=0.009615208333333333
EXTRACT: note_on channel=9 note=46 velocity=75 time=0
EXTRACT: note_on channel=5 note=62 velocity=82 time=0
EXTRACT: note_on channel=5 note=65 velocity=91 time=0
EXTRACT: note_on channel=6 note=58 velocity=115 time=0
EXTRACT: note_on channel=6 note=62 velocity=100 time=0
EXTRACT: note_on channel=6 note=65 velocity=105 time=0
EXTRACT: note_on channel=12 note=53 velocity=82 time=0
EXTRACT: note_on channel=12 note=58 velocity=82 time=0
EXTRACT: note_on channel=12 note=62 velocity=73 time=0
EXTRACT: note_on channel=14 note=46 velocity=81 time=0
EXTRACT: note_off channel=9 note=44 velocity=0 time=0.026441822916666666
EXTRACT: note_off channel=9 note=39 velocity=0 time=0.012019010416666667
EXTRACT: note_off channel=9 note=40 velocity=0 time=0.00721140625
EXTRACT: note_off channel=6 note=65 velocity=0 time=0.028845625
EXTRACT: note_off channel=5 note=65 velocity=0 time=0.00721140625
EXTRACT: note_off channel=5 note=62 velocity=0 time=0
EXTRACT: note_off channel=6 note=62 velocity=0 time=0
EXTRACT: note_off channel=6 note=58 velocity=0 time=0.0024038020833333333
EXTRACT: note_off channel=14 note=46 velocity=0 time=0
EXTRACT: note_off channel=12 note=58 velocity=0 time=0.012019010416666667
EXTRACT: note_off channel=12 note=62 velocity=0 time=0.0024038020833333333
EXTRACT: note_off channel=12 note=53 velocity=0 time=0.00721140625
EXTRACT: note_off channel=9 note=36 velocity=0 time=0.00721140625
EXTRACT: note_on channel=14 note=58 velocity=79 time=0.0024038020833333333
EXTRACT: note_off channel=14 note=58 velocity=0 time=0.10576729166666667
EXTRACT: note_off channel=1 note=34 velocity=0 time=0.004807604166666667
EXTRACT: note_on channel=9 note=36 velocity=122 time=0.004807604166666667
EXTRACT: note_on channel=9 note=39 velocity=80 time=0
EXTRACT: note_on channel=9 note=40 velocity=78 time=0
EXTRACT: note_on channel=9 note=44 velocity=92 time=0
EXTRACT: note_on channel=1 note=29 velocity=76 time=0
EXTRACT: note_on channel=14 note=46 velocity=82 time=0
EXTRACT: note_off channel=9 note=35 velocity=0 time=0.028845625
EXTRACT: note_off channel=9 note=40 velocity=0 time=0.06490265625
EXTRACT: note_off channel=14 note=46 velocity=0 time=0.004807604166666667
EXTRACT: note_off channel=9 note=46 velocity=0 time=0.0144228125
EXTRACT: note_on channel=14 note=58 velocity=79 time=0.0024038020833333333
EXTRACT: note_off channel=14 note=58 velocity=0 time=0.09374828125
EXTRACT: note_off channel=1 note=29 velocity=0 time=0.016826614583333333
EXTRACT: note_on channel=9 note=35 velocity=116 time=0.004807604166666667
EXTRACT: note_on channel=9 note=46 velocity=63 time=0
EXTRACT: note_on channel=1 note=27 velocity=91 time=0
EXTRACT: note_on channel=5 note=63 velocity=91 time=0
EXTRACT: note_on channel=5 note=67 velocity=82 time=0
EXTRACT: note_on channel=6 note=58 velocity=102 time=0
EXTRACT: note_on channel=6 note=62 velocity=100 time=0
EXTRACT: note_on channel=6 note=65 velocity=108 time=0
EXTRACT: note_on channel=12 note=53 velocity=88 time=0
EXTRACT: note_on channel=12 note=58 velocity=78 time=0
EXTRACT: note_on channel=12 note=63 velocity=74 time=0
EXTRACT: note_on channel=14 note=46 velocity=81 time=0
EXTRACT: note_off channel=9 note=44 velocity=0 time=0.036057031249999996
EXTRACT: note_off channel=6 note=62 velocity=0 time=0.012019010416666667
EXTRACT: note_off channel=6 note=65 velocity=0 time=0.0024038020833333333
EXTRACT: note_off channel=9 note=35 velocity=0 time=0.024038020833333333
EXTRACT: note_off channel=6 note=58 velocity=0 time=0.0024038020833333333
EXTRACT: note_off channel=14 note=46 velocity=0 time=0.012019010416666667
EXTRACT: note_off channel=5 note=63 velocity=0 time=0.00721140625
EXTRACT: note_off channel=5 note=67 velocity=0 time=0.012019010416666667
EXTRACT: note_off channel=12 note=58 velocity=0 time=0.0024038020833333333
EXTRACT: note_off channel=9 note=36 velocity=0 time=0.004807604166666667
EXTRACT: note_on channel=14 note=58 velocity=79 time=0
EXTRACT: note_off channel=12 note=63 velocity=0 time=0.00721140625
EXTRACT: note_off channel=12 note=53 velocity=0 time=0
EXTRACT: note_on channel=9 note=40 velocity=105 time=0.012019010416666667
EXTRACT: note_off channel=9 note=40 velocity=0 time=0.07692166666666667
EXTRACT: note_off channel=14 note=58 velocity=0 time=0
EXTRACT: note_on channel=9 note=35 velocity=120 time=0.019230416666666666
EXTRACT: note_on channel=9 note=36 velocity=125 time=0
EXTRACT: note_on channel=9 note=44 velocity=85 time=0
EXTRACT: note_on channel=14 note=46 velocity=82 time=0
EXTRACT: note_off channel=9 note=35 velocity=0 time=0.07211406249999999
EXTRACT: note_off channel=9 note=46 velocity=0 time=0.004807604166666667
EXTRACT: note_off channel=14 note=46 velocity=0 time=0.012019010416666667
EXTRACT: note_off channel=1 note=27 velocity=0 time=0.019230416666666666
EXTRACT: note_on channel=14 note=58 velocity=78 time=0.00721140625
EXTRACT: note_on channel=9 note=40 velocity=100 time=0.019230416666666666
EXTRACT: note_off channel=9 note=40 velocity=0 time=0.07692166666666667
EXTRACT: note_off channel=14 note=58 velocity=0 time=0.00721140625
EXTRACT: note_on channel=9 note=36 velocity=120 time=0.012019010416666667
EXTRACT: note_on channel=9 note=35 velocity=120 time=0
EXTRACT: note_on channel=9 note=46 velocity=71 time=0
EXTRACT: note_on channel=1 note=27 velocity=95 time=0
EXTRACT: note_on channel=5 note=63 velocity=88 time=0
EXTRACT: note_on channel=5 note=68 velocity=88 time=0
EXTRACT: note_on channel=6 note=58 velocity=108 time=0
EXTRACT: note_on channel=6 note=63 velocity=111 time=0
EXTRACT: note_on channel=6 note=68 velocity=108 time=0
EXTRACT: note_on channel=12 note=53 velocity=85 time=0
EXTRACT: note_on channel=12 note=58 velocity=88 time=0
EXTRACT: note_on channel=12 note=63 velocity=88 time=0
EXTRACT: note_on channel=14 note=46 velocity=81 time=0
EXTRACT: note_off channel=9 note=39 velocity=0 time=0.05528744791666666
EXTRACT: note_off channel=9 note=36 velocity=64 time=0.0024038020833333333
EXTRACT: note_off channel=9 note=36 velocity=0 time=0.028845625
EXTRACT: note_off channel=9 note=44 velocity=0 time=0.0024038020833333333
EXTRACT: note_off channel=14 note=46 velocity=0 time=0.004807604166666667
EXTRACT: note_off channel=9 note=35 velocity=0 time=0.00721140625
EXTRACT: note_on channel=14 note=58 velocity=79 time=0.0144228125
EXTRACT: note_off channel=7 note=65 velocity=0 time=0.07211406249999999
EXTRACT: note_off channel=7 note=68 velocity=0 time=0.00721140625
EXTRACT: note_off channel=14 note=58 velocity=0 time=0.02163421875
EXTRACT: note_on channel=9 note=36 velocity=122 time=0.0144228125
EXTRACT: note_on channel=9 note=39 velocity=86 time=0
EXTRACT: note_on channel=9 note=40 velocity=86 time=0
EXTRACT: note_on channel=9 note=44 velocity=101 time=0
EXTRACT: note_on channel=14 note=46 velocity=82 time=0
EXTRACT: note_off channel=9 note=40 velocity=0 time=0.086536875
EXTRACT: note_off channel=14 note=46 velocity=0 time=0.004807604166666667
EXTRACT: note_off channel=9 note=46 velocity=0 time=0.012019010416666667
EXTRACT: note_on channel=14 note=58 velocity=79 time=0.012019010416666667
EXTRACT: note_off channel=12 note=58 velocity=0 time=0.0144228125
EXTRACT: note_off channel=9 note=36 velocity=0 time=0.0024038020833333333
EXTRACT: note_off channel=12 note=63 velocity=0 time=0.00721140625
EXTRACT: note_off channel=12 note=53 velocity=0 time=0
EXTRACT: note_off channel=14 note=74 velocity=0 time=0.0024038020833333333
EXTRACT: note_off channel=14 note=77 velocity=0 time=0.028845625
EXTRACT: note_off channel=5 note=63 velocity=0 time=0.026441822916666666
EXTRACT: note_off channel=5 note=68 velocity=0 time=0.0144228125
EXTRACT: note_off channel=14 note=58 velocity=0 time=0
EXTRACT: note_on channel=9 note=36 velocity=122 time=0.019230416666666666
EXTRACT: note_on channel=9 note=40 velocity=110 time=0
EXTRACT: note_on channel=9 note=46 velocity=70 time=0
EXTRACT: note_on channel=1 note=31 velocity=85 time=0
EXTRACT: note_on channel=12 note=53 velocity=78 time=0
EXTRACT: note_on channel=12 note=58 velocity=80 time=0
EXTRACT: note_on channel=12 note=63 velocity=82 time=0
EXTRACT: note_on channel=14 note=46 velocity=81 time=0
EXTRACT: note_off channel=1 note=27 velocity=0 time=0.00721140625
EXTRACT: note_off channel=9 note=39 velocity=0 time=0.05047984375
EXTRACT: note_off channel=9 note=40 velocity=0 time=0.004807604166666667
EXTRACT: note_off channel=6 note=63 velocity=0 time=0.004807604166666667
EXTRACT: note_off channel=9 note=44 velocity=0 time=0.016826614583333333
EXTRACT: note_off channel=6 note=68 velocity=0 time=0
EXTRACT: note_off channel=6 note=58 velocity=0 time=0.0024038020833333333
EXTRACT: note_off channel=12 note=58 velocity=0 time=0.0024038020833333333
EXTRACT: note_off channel=14 note=46 velocity=0 time=0.004807604166666667
EXTRACT: note_off channel=12 note=63 velocity=0 time=0.012019010416666667
EXTRACT: note_off channel=12 note=53 velocity=0 time=0
EXTRACT: note_on channel=14 note=58 velocity=80 time=0.009615208333333333
EXTRACT: note_on channel=9 note=40 velocity=91 time=0.019230416666666666
EXTRACT: note_off channel=9 note=36 velocity=0 time=0.0024038020833333333
EXTRACT: note_off channel=9 note=46 velocity=0 time=0.02163421875
EXTRACT: note_off channel=1 note=31 velocity=0 time=0.031249427083333333
EXTRACT: note_off channel=14 note=58 velocity=0 time=0.019230416666666666
EXTRACT: note_off channel=9 note=40 velocity=0 time=0.009615208333333333
EXTRACT: note_on channel=9 note=36 velocity=125 time=0.012019010416666667
EXTRACT: note_on channel=9 note=44 velocity=111 time=0
EXTRACT: note_on channel=9 note=49 velocity=80 time=0
EXTRACT: note_on channel=9 note=57 velocity=89 time=0
EXTRACT: note_on channel=1 note=34 velocity=104 time=0
EXTRACT: note_on channel=2 note=80 velocity=64 time=0
EXTRACT: note_on channel=12 note=53 velocity=88 time=0
EXTRACT: note_on channel=12 note=58 velocity=78 time=0
EXTRACT: note_on channel=12 note=62 velocity=76 time=0
EXTRACT: note_on channel=14 note=46 velocity=65 time=0
EXTRACT: note_off channel=9 note=49 velocity=0 time=0.07692166666666667
EXTRACT: note_off channel=14 note=46 velocity=0 time=0.009615208333333333
EXTRACT: note_off channel=9 note=57 velocity=0 time=0.0024038020833333333
EXTRACT: note_off channel=12 note=58 velocity=0 time=0.00721140625
EXTRACT: note_off channel=9 note=36 velocity=0 time=0.00721140625
EXTRACT: note_off channel=12 note=62 velocity=0 time=0.009615208333333333
EXTRACT: note_on channel=14 note=58 velocity=61 time=0.0024038020833333333
EXTRACT: note_off channel=12 note=53 velocity=0 time=0.00721140625
EXTRACT: pitchwheel channel=2 pitch=-384 time=0.028845625
EXTRACT: pitchwheel channel=2 pitch=-1152 time=0.019230416666666666
EXTRACT: pitchwheel channel=2 pitch=-2048 time=0.019230416666666666
EXTRACT: pitchwheel channel=2 pitch=-2816 time=0.019230416666666666
EXTRACT: note_off channel=14 note=58 velocity=0 time=0.019230416666666666
EXTRACT: note_on channel=9 note=46 velocity=75 time=0.0024038020833333333
EXTRACT: pitchwheel channel=2 pitch=-3328 time=0
EXTRACT: note_on channel=14 note=46 velocity=63 time=0
EXTRACT: pitchwheel channel=2 pitch=-3456 time=0.019230416666666666
EXTRACT: note_off channel=9 note=44 velocity=0 time=0.00721140625
EXTRACT: pitchwheel channel=2 pitch=-3200 time=0.031249427083333333
EXTRACT: note_off channel=14 note=46 velocity=0 time=0.0144228125
EXTRACT: pitchwheel channel=2 pitch=-2944 time=0.004807604166666667
EXTRACT: pitchwheel channel=2 pitch=-2176 time=0.019230416666666666
EXTRACT: pitchwheel channel=2 pitch=-1024 time=0.019230416666666666
EXTRACT: note_on channel=14 note=58 velocity=60 time=0
EXTRACT: pitchwheel channel=2 pitch=0 time=0.019230416666666666
EXTRACT: note_off channel=1 note=34 velocity=0 time=0.060095052083333336
EXTRACT: note_off channel=14 note=58 velocity=0 time=0.004807604166666667
EXTRACT: note_on channel=9 note=36 velocity=107 time=0.031249427083333333
EXTRACT: note_on channel=9 note=39 velocity=78 time=0
EXTRACT: note_on channel=9 note=40 velocity=74 time=0
EXTRACT: note_on channel=9 note=44 velocity=92 time=0
EXTRACT: note_on channel=1 note=29 velocity=73 time=0
EXTRACT: note_on channel=3 note=74 velocity=107 time=0
EXTRACT: note_on channel=4 note=86 velocity=97 time=0
EXTRACT: note_on channel=6 note=58 velocity=124 time=0
EXTRACT: note_on channel=6 note=62 velocity=111 time=0
EXTRACT: note_on channel=6 note=68 velocity=124 time=0
EXTRACT: note_on channel=12 note=53 velocity=80 time=0
EXTRACT: note_on channel=12 note=58 velocity=73 time=0
EXTRACT: note_on channel=12 note=62 velocity=73 time=0
EXTRACT: note_on channel=14 note=46 velocity=63 time=0
EXTRACT: note_off channel=14 note=46 velocity=0 time=0.086536875
EXTRACT: note_off channel=12 note=62 velocity=0 time=0.016826614583333333
EXTRACT: note_off channel=9 note=46 velocity=0 time=0.009615208333333333
EXTRACT: note_off channel=12 note=58 velocity=0 time=0
EXTRACT: note_on channel=14 note=58 velocity=60 time=0.0024038020833333333
EXTRACT: note_off channel=12 note=53 velocity=0 time=0.00721140625
EXTRACT: note_off channel=6 note=58 velocity=0 time=0.0024038020833333333
EXTRACT: note_off channel=9 note=36 velocity=0 time=0.00721140625
EXTRACT: note_off channel=3 note=74 velocity=0 time=0.006009505208333333
EXTRACT: note_off channel=4 note=86 velocity=0 time=0
EXTRACT: note_off channel=6 note=62 velocity=0 time=0.006009505208333333
EXTRACT: note_off channel=6 note=68 velocity=0 time=0.004807604166666667
EXTRACT: note_off channel=1 note=29 velocity=0 time=0.019230416666666666
EXTRACT: note_off channel=14 note=58 velocity=0 time=0.033653229166666666
EXTRACT: note_off channel=2 note=80 velocity=0 time=0.02163421875
EXTRACT: note_on channel=9 note=46 velocity=63 time=0.00721140625
EXTRACT: note_on channel=1 note=27 velocity=88 time=0
EXTRACT: note_on channel=2 note=70 velocity=46 time=0
EXTRACT: note_on channel=3 note=74 velocity=107 time=0
EXTRACT: note_on channel=4 note=86 velocity=97 time=0
EXTRACT: note_on channel=6 note=58 velocity=124 time=0
EXTRACT: note_on channel=6 note=63 velocity=124 time=0
EXTRACT: note_on channel=6 note=68 velocity=127 time=0
EXTRACT: note_on channel=12 note=53 velocity=76 time=0
EXTRACT: note_on channel=12 note=58 velocity=74 time=0
EXTRACT: note_on channel=12 note=63 velocity=74 time=0
EXTRACT: note_on channel=14 note=46 velocity=61 time=0
EXTRACT: note_off channel=9 note=44 velocity=0 time=0.036057031249999996
EXTRACT: note_off channel=14 note=46 velocity=0 time=0.05047984375
EXTRACT: note_off channel=12 note=53 velocity=0 time=0.026441822916666666
EXTRACT: note_on channel=14 note=58 velocity=60 time=0.0024038020833333333
EXTRACT: note_off channel=12 note=58 velocity=0 time=0.016826614583333333
EXTRACT: note_off channel=12 note=63 velocity=0 time=0.012019010416666667
EXTRACT: note_off channel=13 note=82 velocity=0 time=0.05047984375
EXTRACT: note_off channel=14 note=58 velocity=0 time=0.004807604166666667
EXTRACT: note_off channel=3 note=74 velocity=0 time=0.028845625
EXTRACT: note_off channel=4 note=86 velocity=0 time=0
EXTRACT: note_on channel=9 note=36 velocity=93 time=0.0024038020833333333
EXTRACT: note_on channel=9 note=44 velocity=85 time=0
EXTRACT: note_on channel=3 note=72 velocity=107 time=0
EXTRACT: note_on channel=4 note=84 velocity=97 time=0
EXTRACT: note_on channel=14 note=46 velocity=62 time=0
EXTRACT: note_off channel=9 note=46 velocity=0 time=0.07692166666666667
EXTRACT: pitchwheel channel=2 pitch=-512 time=0.0024038020833333333
EXTRACT: note_off channel=14 note=46 velocity=0 time=0.012019010416666667
EXTRACT: pitchwheel channel=2 pitch=-1408 time=0.00721140625
EXTRACT: note_on channel=14 note=58 velocity=60 time=0.016826614583333333
EXTRACT: pitchwheel channel=2 pitch=-2304 time=0.0024038020833333333
EXTRACT: note_off channel=3 note=72 velocity=0 time=0.008413307291666667
EXTRACT: note_off channel=4 note=84 velocity=0 time=0
EXTRACT: pitchwheel channel=2 pitch=-2816 time=0.010817109375
EXTRACT: pitchwheel channel=2 pitch=-3072 time=0.019230416666666666
EXTRACT: pitchwheel channel=2 pitch=-2944 time=0.019230416666666666
EXTRACT: note_off channel=1 note=27 velocity=0 time=0.004807604166666667
EXTRACT: pitchwheel channel=2 pitch=-2432 time=0.0144228125
EXTRACT: note_off channel=14 note=58 velocity=0 time=0.012019010416666667
EXTRACT: pitchwheel channel=2 pitch=-1664 time=0.00721140625
EXTRACT: note_on channel=9 note=36 velocity=120 time=0.016826614583333333
EXTRACT: note_on channel=9 note=46 velocity=71 time=0
EXTRACT: note_on channel=1 note=27 velocity=95 time=0
EXTRACT: note_on channel=3 note=72 velocity=107 time=0
EXTRACT: note_on channel=4 note=84 velocity=97 time=0
EXTRACT: note_on channel=12 note=53 velocity=71 time=0
EXTRACT: note_on channel=12 note=58 velocity=78 time=0
EXTRACT: note_on channel=12 note=63 velocity=78 time=0
EXTRACT: note_on channel=14 note=46 velocity=61 time=0
EXTRACT: pitchwheel channel=2 pitch=-768 time=0.0024038020833333333
EXTRACT: pitchwheel channel=2 pitch=0 time=0.019230416666666666
EXTRACT: note_off channel=9 note=36 velocity=0 time=0.00721140625
EXTRACT: note_off channel=9 note=36 velocity=64 time=0.028845625
EXTRACT: note_off channel=9 note=44 velocity=0 time=0.031249427083333333
EXTRACT: note_off channel=14 note=46 velocity=0 time=0.0024038020833333333
EXTRACT: note_off channel=9 note=39 velocity=0 time=0.0024038020833333333
EXTRACT: note_off channel=9 note=40 velocity=0 time=0.009615208333333333
EXTRACT: note_on channel=14 note=58 velocity=60 time=0.012019010416666667
EXTRACT: note_off channel=14 note=58 velocity=0 time=0.09374828125
EXTRACT: note_on channel=9 note=36 velocity=125 time=0.02163421875
EXTRACT: note_on channel=9 note=39 velocity=62 time=0
EXTRACT: note_on channel=9 note=40 velocity=66 time=0
EXTRACT: note_on channel=9 note=44 velocity=101 time=0
EXTRACT: note_on channel=14 note=46 velocity=63 time=0
EXTRACT: note_off channel=6 note=58 velocity=0 time=0.05288364583333333
EXTRACT: note_off channel=6 note=63 velocity=0 time=0.009615208333333333
EXTRACT: note_off channel=6 note=68 velocity=0 time=0.0144228125
EXTRACT: note_off channel=14 note=46 velocity=0 time=0.019230416666666666
EXTRACT: note_off channel=9 note=46 velocity=0 time=0.00721140625
EXTRACT: note_off channel=12 note=53 velocity=0 time=0.004807604166666667
EXTRACT: note_on channel=14 note=58 velocity=60 time=0.00721140625
EXTRACT: note_off channel=12 note=58 velocity=0 time=0.00721140625
EXTRACT: note_off channel=12 note=63 velocity=0 time=0.0144228125
EXTRACT: note_off channel=14 note=58 velocity=0 time=0.07932546875
EXTRACT: note_off channel=1 note=27 velocity=0 time=0.012019010416666667
EXTRACT: note_on channel=9 note=46 velocity=70 time=0.0024038020833333333
EXTRACT: note_on channel=1 note=31 velocity=62 time=0
EXTRACT: note_on channel=3 note=70 velocity=107 time=0
EXTRACT: note_on channel=4 note=82 velocity=97 time=0
EXTRACT: note_on channel=12 note=53 velocity=71 time=0
EXTRACT: note_on channel=12 note=58 velocity=73 time=0
EXTRACT: note_on channel=12 note=63 velocity=68 time=0
EXTRACT: note_on channel=14 note=46 velocity=63 time=0
EXTRACT: note_off channel=3 note=72 velocity=0 time=0.033653229166666666
EXTRACT: note_off channel=4 note=84 velocity=0 time=0
EXTRACT: note_off channel=9 note=44 velocity=0 time=0.05047984375
EXTRACT: note_off channel=9 note=36 velocity=0 time=0.0024038020833333333
EXTRACT: note_off channel=14 note=46 velocity=0 time=0.00721140625
EXTRACT: note_on channel=14 note=58 velocity=59 time=0.02163421875
EXTRACT: note_off channel=12 note=53 velocity=0 time=0.00721140625
EXTRACT: note_off channel=12 note=58 velocity=0 time=0.012019010416666667
EXTRACT: note_off channel=9 note=46 velocity=0 time=0.024038020833333333
EXTRACT: note_off channel=12 note=63 velocity=0 time=0.004807604166666667
EXTRACT: note_off channel=1 note=31 velocity=0 time=0.016826614583333333
EXTRACT: note_off channel=14 note=58 velocity=0 time=0.036057031249999996
EXTRACT: note_on channel=9 note=36 velocity=118 time=0.0144228125
EXTRACT: note_on channel=9 note=44 velocity=111 time=0
EXTRACT: note_on channel=1 note=34 velocity=82 time=0
EXTRACT: note_on channel=2 note=80 velocity=43 time=0
EXTRACT: note_on channel=12 note=53 velocity=74 time=0
EXTRACT: note_on channel=12 note=58 velocity=73 time=0
EXTRACT: note_on channel=12 note=62 velocity=71 time=0
EXTRACT: note_on channel=14 note=46 velocity=63 time=0
EXTRACT: note_off channel=2 note=70 velocity=0 time=0.028845625
EXTRACT: note_off channel=12 note=58 velocity=0 time=0.06490265625
EXTRACT: note_off channel=14 note=46 velocity=0 time=0
EXTRACT: note_off channel=12 note=62 velocity=0 time=0.012019010416666667
EXTRACT: note_off channel=12 note=53 velocity=0 time=0.004807604166666667
EXTRACT: note_on channel=14 note=58 velocity=60 time=0.004807604166666667
EXTRACT: note_off channel=2 note=80 velocity=0 time=0.06490265625
EXTRACT: note_off channel=3 note=70 velocity=0 time=0.012019010416666667
EXTRACT: note_off channel=4 note=82 velocity=0 time=0
EXTRACT: note_off channel=14 note=58 velocity=0 time=0.028845625
EXTRACT: note_on channel=9 note=46 velocity=75 time=0.009615208333333333
EXTRACT: note_on channel=2 note=80 velocity=46 time=0
EXTRACT: note_on channel=3 note=70 velocity=107 time=0
EXTRACT: note_on channel=4 note=82 velocity=97 time=0
EXTRACT: note_on channel=14 note=46 velocity=62 time=0
EXTRACT: note_off channel=9 note=44 velocity=0 time=0.026441822916666666
EXTRACT: note_off channel=9 note=36 velocity=0 time=0.05047984375
EXTRACT: note_off channel=14 note=46 velocity=0 time=0.00721140625
EXTRACT: note_off channel=9 note=40 velocity=0 time=0.012019010416666667
EXTRACT: note_off channel=9 note=39 velocity=0 time=0.009615208333333333
EXTRACT: note_on channel=14 note=58 velocity=60 time=0.009615208333333333
EXTRACT: note_off channel=14 note=58 velocity=0 time=0.10576729166666667
EXTRACT: note_off channel=1 note=34 velocity=0 time=0.004807604166666667
EXTRACT: note_on channel=9 note=36 velocity=118 time=0.004807604166666667
EXTRACT: note_on channel=9 note=39 velocity=66 time=0
EXTRACT: note_on channel=9 note=40 velocity=74 time=0
EXTRACT: note_on channel=9 note=44 velocity=92 time=0
EXTRACT: note_on channel=1 note=29 velocity=76 time=0
EXTRACT: note_on channel=6 note=58 velocity=115 time=0
EXTRACT: note_on channel=6 note=62 velocity=108 time=0
EXTRACT: note_on channel=6 note=65 velocity=118 time=0
EXTRACT: note_on channel=12 note=53 velocity=82 time=0
EXTRACT: note_on channel=12 note=58 velocity=78 time=0
EXTRACT: note_on channel=12 note=62 velocity=73 time=0
EXTRACT: note_on channel=14 note=46 velocity=63 time=0
EXTRACT: note_off channel=14 note=46 velocity=0 time=0.09855588541666667
EXTRACT: note_off channel=9 note=46 velocity=0 time=0.0144228125
EXTRACT: note_on channel=14 note=58 velocity=60 time=0.0024038020833333333
EXTRACT: note_off channel=12 note=62 velocity=0 time=0.033653229166666666
EXTRACT: note_off channel=12 note=58 velocity=0 time=0
EXTRACT: note_off channel=12 note=53 velocity=0 time=0
EXTRACT: note_off channel=6 note=58 velocity=0 time=0.0144228125
EXTRACT: note_off channel=6 note=62 velocity=0 time=0.019230416666666666
EXTRACT: note_off channel=14 note=58 velocity=0 time=0.026441822916666666
EXTRACT: note_off channel=1 note=29 velocity=0 time=0.016826614583333333
EXTRACT: note_on channel=9 note=46 velocity=63 time=0.004807604166666667
EXTRACT: note_on channel=1 note=27 velocity=91 time=0
EXTRACT: note_on channel=2 note=70 velocity=43 time=0
EXTRACT: note_on channel=3 note=68 velocity=107 time=0
EXTRACT: note_on channel=4 note=80 velocity=97 time=0
EXTRACT: note_on channel=6 note=58 velocity=102 time=0
EXTRACT: note_on channel=6 note=63 velocity=108 time=0
EXTRACT: note_on channel=6 note=68 velocity=111 time=0
EXTRACT: note_on channel=12 note=53 velocity=82 time=0
EXTRACT: note_on channel=12 note=58 velocity=80 time=0
EXTRACT: note_on channel=12 note=63 velocity=80 time=0
EXTRACT: note_on channel=14 note=46 velocity=62 time=0
EXTRACT: note_off channel=9 note=44 velocity=0 time=0.036057031249999996
EXTRACT: note_off channel=2 note=80 velocity=0 time=0.004807604166666667
EXTRACT: note_off channel=3 note=70 velocity=0 time=0.0144228125
EXTRACT: note_off channel=4 note=82 velocity=0 time=0
EXTRACT: note_off channel=6 note=65 velocity=0 time=0.009615208333333333
EXTRACT: note_off channel=14 note=46 velocity=0 time=0.024038020833333333
EXTRACT: note_on channel=14 note=58 velocity=60 time=0.026441822916666666
EXTRACT: note_off channel=12 note=58 velocity=0 time=0.019230416666666666
EXTRACT: note_off channel=12 note=63 velocity=0 time=0.004807604166666667
EXTRACT: note_off channel=9 note=36 velocity=0 time=0.0024038020833333333
EXTRACT: note_off channel=12 note=53 velocity=0 time=0.00721140625
EXTRACT: note_off channel=6 note=58 velocity=0 time=0.004807604166666667
EXTRACT: note_off channel=6 note=63 velocity=0 time=0.004807604166666667
EXTRACT: note_off channel=6 note=68 velocity=0 time=0.004807604166666667
EXTRACT: note_off channel=14 note=58 velocity=0 time=0.048076041666666666
EXTRACT: note_on channel=9 note=36 velocity=125 time=0.019230416666666666
EXTRACT: note_on channel=9 note=44 velocity=85 time=0
EXTRACT: note_on channel=14 note=46 velocity=63 time=0
EXTRACT: pitchwheel channel=2 pitch=-1024 time=0.028845625
EXTRACT: pitchwheel channel=2 pitch=-2176 time=0.019230416666666666
EXTRACT: pitchwheel channel=2 pitch=-2944 time=0.019230416666666666
EXTRACT: note_off channel=9 note=46 velocity=0 time=0.009615208333333333
EXTRACT: pitchwheel channel=2 pitch=-3072 time=0.009615208333333333
EXTRACT: note_off channel=14 note=46 velocity=0 time=0.0024038020833333333
EXTRACT: pitchwheel channel=2 pitch=-2816 time=0.016826614583333333
EXTRACT: note_off channel=1 note=27 velocity=0 time=0.0024038020833333333
EXTRACT: note_on channel=14 note=58 velocity=59 time=0.00721140625
EXTRACT: pitchwheel channel=2 pitch=-1920 time=0.009615208333333333
EXTRACT: pitchwheel channel=2 pitch=-1024 time=0.019230416666666666
EXTRACT: pitchwheel channel=2 pitch=0 time=0.019230416666666666
EXTRACT: note_off channel=14 note=58 velocity=0 time=0.05528744791666666
EXTRACT: note_on channel=9 note=36 velocity=120 time=0.012019010416666667
EXTRACT: note_on channel=9 note=46 velocity=71 time=0
EXTRACT: note_on channel=1 note=27 velocity=95 time=0
EXTRACT: note_on channel=3 note=67 velocity=107 time=0
EXTRACT: note_on channel=4 note=79 velocity=97 time=0
EXTRACT: note_on channel=6 note=58 velocity=108 time=0
EXTRACT: note_on channel=6 note=63 velocity=108 time=0
EXTRACT: note_on channel=6 note=68 velocity=115 time=0
EXTRACT: note_on channel=12 note=53 velocity=80 time=0
EXTRACT: note_on channel=12 note=58 velocity=78 time=0
EXTRACT: note_on channel=12 note=63 velocity=80 time=0
EXTRACT: note_on channel=14 note=46 velocity=62 time=0
EXTRACT: note_off channel=3 note=68 velocity=0 time=0.039662734375
EXTRACT: note_off channel=4 note=80 velocity=0 time=0
EXTRACT: note_off channel=9 note=36 velocity=64 time=0.018028515624999998
EXTRACT: note_off channel=9 note=44 velocity=0 time=0.031249427083333333
EXTRACT: note_off channel=9 note=39 velocity=0 time=0.0024038020833333333
EXTRACT: note_off channel=9 note=40 velocity=0 time=0.0024038020833333333
EXTRACT: note_off channel=14 note=46 velocity=0 time=0
EXTRACT: note_off channel=9 note=36 velocity=0 time=0.019230416666666666
EXTRACT: note_on channel=14 note=58 velocity=60 time=0.0024038020833333333
EXTRACT: note_off channel=14 note=58 velocity=0 time=0.1009596875
EXTRACT: note_on channel=9 note=36 velocity=122 time=0.0144228125
EXTRACT: note_on channel=9 note=39 velocity=65 time=0
EXTRACT: note_on channel=9 note=40 velocity=63 time=0
EXTRACT: note_on channel=9 note=44 velocity=101 time=0
EXTRACT: note_on channel=14 note=46 velocity=63 time=0
EXTRACT: note_off channel=14 note=46 velocity=0 time=0.09134447916666666
EXTRACT: note_off channel=9 note=46 velocity=0 time=0.012019010416666667
EXTRACT: note_on channel=14 note=58 velocity=60 time=0.012019010416666667
EXTRACT: note_off channel=14 note=58 velocity=0 time=0.09615208333333333
EXTRACT: note_off channel=1 note=27 velocity=0 time=0.016826614583333333
EXTRACT: note_on channel=9 note=46 velocity=70 time=0.0024038020833333333
EXTRACT: note_on channel=1 note=31 velocity=85 time=0
EXTRACT: note_on channel=3 note=68 velocity=107 time=0
EXTRACT: note_on channel=4 note=80 velocity=97 time=0
EXTRACT: note_on channel=14 note=46 velocity=62 time=0
EXTRACT: note_off channel=12 note=58 velocity=0 time=0.0144228125
EXTRACT: note_off channel=3 note=67 velocity=0 time=0.00721140625
EXTRACT: note_off channel=4 note=79 velocity=0 time=0
EXTRACT: note_off channel=12 note=63 velocity=0 time=0
EXTRACT: note_off channel=12 note=53 velocity=0 time=0.004807604166666667
EXTRACT: note_off channel=6 note=58 velocity=0 time=0.031249427083333333
EXTRACT: note_off channel=6 note=63 velocity=0 time=0.016826614583333333
EXTRACT: note_off channel=9 note=44 velocity=0 time=0.009615208333333333
EXTRACT: note_off channel=6 note=68 velocity=0 time=0
EXTRACT: note_off channel=14 note=46 velocity=0 time=0.009615208333333333
EXTRACT: note_on channel=14 note=58 velocity=61 time=0.02163421875
EXTRACT: note_off channel=9 note=36 velocity=0 time=0.0024038020833333333
EXTRACT: note_off channel=9 note=46 velocity=0 time=0.04086463541666667
EXTRACT: note_off channel=1 note=31 velocity=0 time=0.031249427083333333
EXTRACT: note_off channel=14 note=58 velocity=0 time=0.019230416666666666
EXTRACT: note_on channel=9 note=36 velocity=118 time=0.02163421875
EXTRACT: note_on channel=9 note=44 velocity=111 time=0
EXTRACT: note_on channel=1 note=34 velocity=104 time=0
EXTRACT: note_on channel=14 note=46 velocity=65 time=0
EXTRACT: note_off channel=14 note=46 velocity=0 time=0.086536875
EXTRACT: note_on channel=14 note=58 velocity=61 time=0.028845625
EXTRACT: note_off channel=2 note=70 velocity=0 time=0.1009596875
EXTRACT: note_off channel=14 note=58 velocity=0 time=0.012019010416666667
EXTRACT: note_on channel=9 note=46 velocity=75 time=0.0024038020833333333
EXTRACT: note_on channel=2 note=80 velocity=59 time=0
EXTRACT: note_on channel=3 note=67 velocity=107 time=0
EXTRACT: note_on channel=4 note=79 velocity=97 time=0
EXTRACT: note_on channel=12 note=53 velocity=85 time=0
EXTRACT: note_on channel=12 note=58 velocity=80 time=0
EXTRACT: note_on channel=12 note=62 velocity=76 time=0
EXTRACT: note_on channel=14 note=46 velocity=63 time=0
EXTRACT: note_off channel=9 note=44 velocity=0 time=0.026441822916666666
EXTRACT: note_off channel=3 note=68 velocity=0 time=0.004807604166666667
EXTRACT: note_off channel=4 note=80 velocity=0 time=0
EXTRACT: note_off channel=9 note=39 velocity=0 time=0.036057031249999996
EXTRACT: note_off channel=14 note=46 velocity=0 time=0.004807604166666667
EXTRACT: note_off channel=9 note=40 velocity=0 time=0.0024038020833333333
EXTRACT: note_off channel=12 note=58 velocity=0 time=0.019230416666666666
EXTRACT: note_off channel=9 note=36 velocity=0 time=0.00721140625
EXTRACT: note_off channel=12 note=62 velocity=0 time=0
EXTRACT: note_off channel=12 note=53 velocity=0 time=0.0144228125
EXTRACT: note_on channel=14 note=58 velocity=60 time=0
EXTRACT: note_off channel=1 note=34 velocity=0 time=0.07932546875
EXTRACT: note_off channel=14 note=58 velocity=0 time=0.004807604166666667
EXTRACT: note_on channel=9 note=36 velocity=118 time=0.031249427083333333
EXTRACT: note_on channel=9 note=39 velocity=62 time=0
EXTRACT: note_on channel=9 note=40 velocity=63 time=0
EXTRACT: note_on channel=9 note=44 velocity=92 time=0
EXTRACT: note_on channel=1 note=29 velocity=73 time=0
EXTRACT: note_on channel=6 note=58 velocity=108 time=0
EXTRACT: note_on channel=6 note=62 velocity=105 time=0
EXTRACT: note_on channel=6 note=65 velocity=115 time=0
EXTRACT: note_on channel=14 note=46 velocity=63 time=0
EXTRACT: pitchwheel channel=2 pitch=-384 time=0.031249427083333333
EXTRACT: pitchwheel channel=2 pitch=-1536 time=0.019230416666666666
EXTRACT: pitchwheel channel=2 pitch=-2432 time=0.019230416666666666
EXTRACT: note_off channel=14 note=46 velocity=0 time=0.016826614583333333
EXTRACT: pitchwheel channel=2 pitch=-3328 time=0.0024038020833333333
EXTRACT: pitchwheel channel=2 pitch=-3712 time=0.019230416666666666
EXTRACT: note_off channel=9 note=46 velocity=0 time=0.004807604166666667
EXTRACT: note_on channel=14 note=58 velocity=60 time=0.0024038020833333333
EXTRACT: pitchwheel channel=2 pitch=-3584 time=0.012019010416666667
EXTRACT: pitchwheel channel=2 pitch=-3072 time=0.019230416666666666
EXTRACT: pitchwheel channel=2 pitch=-2560 time=0.019230416666666666
EXTRACT: note_off channel=1 note=29 velocity=0 time=0.0024038020833333333
EXTRACT: pitchwheel channel=2 pitch=-1920 time=0.019230416666666666
EXTRACT: note_off channel=6 note=58 velocity=0 time=0
EXTRACT: note_off channel=6 note=62 velocity=0 time=0.0144228125
EXTRACT: note_off channel=14 note=58 velocity=0 time=0
EXTRACT: pitchwheel channel=2 pitch=0 time=0.0024038020833333333
EXTRACT: note_on channel=9 note=46 velocity=63 time=0.026441822916666666
EXTRACT: note_on channel=1 note=27 velocity=88 time=0
EXTRACT: note_on channel=3 note=65 velocity=107 time=0
EXTRACT: note_on channel=4 note=77 velocity=97 time=0
EXTRACT: note_on channel=6 note=58 velocity=100 time=0
EXTRACT: note_on channel=6 note=63 velocity=102 time=0
EXTRACT: note_on channel=6 note=68 velocity=111 time=0
EXTRACT: note_on channel=12 note=53 velocity=80 time=0
EXTRACT: note_on channel=12 note=58 velocity=78 time=0
EXTRACT: note_on channel=12 note=62 velocity=68 time=0
EXTRACT: note_on channel=14 note=46 velocity=61 time=0
EXTRACT: note_off channel=9 note=44 velocity=0 time=0.036057031249999996
EXTRACT: note_off channel=3 note=67 velocity=0 time=0.015624713541666667
EXTRACT: note_off channel=4 note=79 velocity=0 time=0
EXTRACT: note_off channel=6 note=65 velocity=0 time=0.010817109375
EXTRACT: note_off channel=12 note=62 velocity=0 time=0.019230416666666666
EXTRACT: note_off channel=12 note=58 velocity=0 time=0.0024038020833333333
EXTRACT: note_off channel=14 note=46 velocity=0 time=0.0024038020833333333
EXTRACT: note_off channel=12 note=53 velocity=0 time=0.012019010416666667
EXTRACT: note_on channel=14 note=58 velocity=60 time=0.016826614583333333
EXTRACT: note_off channel=9 note=36 velocity=0 time=0.02163421875
EXTRACT: note_off channel=14 note=58 velocity=0 time=0.062498854166666666
EXTRACT: note_off channel=2 note=80 velocity=0 time=0.02163421875
EXTRACT: note_on channel=9 note=36 velocity=125 time=0.009615208333333333
EXTRACT: note_on channel=9 note=44 velocity=85 time=0
EXTRACT: note_on channel=2 note=70 velocity=37 time=0
EXTRACT: note_on channel=12 note=53 velocity=85 time=0
EXTRACT: note_on channel=12 note=58 velocity=82 time=0
EXTRACT: note_on channel=12 note=63 velocity=82 time=0
EXTRACT: note_on channel=14 note=46 velocity=62 time=0
EXTRACT: note_off channel=9 note=46 velocity=0 time=0.07692166666666667
EXTRACT: note_off channel=14 note=46 velocity=0 time=0.0144228125
EXTRACT: note_on channel=14 note=58 velocity=60 time=0.024038020833333333
EXTRACT: note_off channel=1 note=27 velocity=0 time=0.06490265625
EXTRACT: note_off channel=12 note=58 velocity=0 time=0.0144228125
EXTRACT: note_off channel=14 note=58 velocity=0 time=0.012019010416666667
EXTRACT: note_off channel=12 note=63 velocity=0 time=0.004807604166666667
EXTRACT: note_on channel=9 note=36 velocity=120 time=0.019230416666666666
EXTRACT: note_on channel=9 note=46 velocity=71 time=0
EXTRACT: note_on channel=1 note=27 velocity=95 time=0
EXTRACT: note_on channel=14 note=46 velocity=61 time=0
EXTRACT: note_off channel=9 note=36 velocity=64 time=0.05769125
EXTRACT: note_off channel=12 note=53 velocity=0 time=0.0024038020833333333
EXTRACT: note_off channel=9 note=44 velocity=0 time=0.028845625
EXTRACT: note_off channel=9 note=40 velocity=0 time=0.0024038020833333333
EXTRACT: note_off channel=14 note=46 velocity=0 time=0
EXTRACT: note_off channel=9 note=36 velocity=0 time=0.0024038020833333333
EXTRACT: note_off channel=9 note=39 velocity=0 time=0
EXTRACT: note_on channel=14 note=58 velocity=60 time=0.02163421875
EXTRACT: note_off channel=14 note=58 velocity=0 time=0.09374828125
EXTRACT: note_on channel=9 note=36 velocity=125 time=0.02163421875
EXTRACT: note_on channel=9 note=39 velocity=66 time=0
EXTRACT: note_on channel=9 note=40 velocity=65 time=0
EXTRACT: note_on channel=9 note=44 velocity=101 time=0
EXTRACT: note_on channel=12 note=53 velocity=82 time=0
EXTRACT: note_on channel=12 note=58 velocity=88 time=0
EXTRACT: note_on channel=12 note=63 velocity=82 time=0
EXTRACT: note_on channel=14 note=46 velocity=63 time=0
EXTRACT: note_off channel=14 note=46 velocity=0 time=0.09615208333333333
EXTRACT: note_off channel=9 note=46 velocity=0 time=0.00721140625
EXTRACT: note_on channel=14 note=58 velocity=60 time=0.012019010416666667
EXTRACT: note_off channel=12 note=53 velocity=0 time=0.0432684375
EXTRACT: note_off channel=6 note=68 velocity=0 time=0.024038020833333333
EXTRACT: note_off channel=6 note=63 velocity=0 time=0.0024038020833333333
EXTRACT: note_off channel=6 note=58 velocity=0 time=0.00721140625
EXTRACT: note_off channel=12 note=58 velocity=0 time=0.00721140625
EXTRACT: note_off channel=12 note=63 velocity=0 time=0.016826614583333333
EXTRACT: note_off channel=14 note=58 velocity=0 time=0
EXTRACT: note_off channel=1 note=27 velocity=0 time=0.012019010416666667
EXTRACT: note_on channel=9 note=46 velocity=70 time=0.0024038020833333333
EXTRACT: note_on channel=1 note=31 velocity=62 time=0
EXTRACT: note_on channel=12 note=53 velocity=82 time=0
EXTRACT: note_on channel=12 note=58 velocity=73 time=0
EXTRACT: note_on channel=12 note=62 velocity=73 time=0
EXTRACT: note_on channel=14 note=46 velocity=63 time=0
EXTRACT: note_off channel=9 note=44 velocity=0 time=0.08413307291666666
EXTRACT: note_off channel=12 note=62 velocity=0 time=0.0024038020833333333
EXTRACT: note_off channel=9 note=36 velocity=0 time=0.004807604166666667
EXTRACT: note_off channel=14 note=46 velocity=0 time=0.0024038020833333333
EXTRACT: note_off channel=12 note=58 velocity=0 time=0.016826614583333333
EXTRACT: note_off channel=12 note=53 velocity=0 time=0
EXTRACT: note_on channel=14 note=58 velocity=59 time=0.004807604166666667
EXTRACT: note_off channel=9 note=46 velocity=0 time=0.0432684375
EXTRACT: note_off channel=1 note=31 velocity=0 time=0.02163421875
EXTRACT: note_off channel=2 note=70 velocity=0 time=0.0144228125
EXTRACT: note_off channel=14 note=58 velocity=0 time=0.02163421875
EXTRACT: note_on channel=9 note=36 velocity=125 time=0.0144228125
EXTRACT: note_on channel=9 note=44 velocity=111 time=0
EXTRACT: note_on channel=1 note=34 velocity=82 time=0
EXTRACT: note_on channel=2 note=80 velocity=46 time=0
EXTRACT: note_on channel=3 note=62 velocity=107 time=0
EXTRACT: note_on channel=4 note=74 velocity=97 time=0
EXTRACT: note_on channel=14 note=46 velocity=63 time=0
EXTRACT: pitchwheel channel=2 pitch=-256 time=0.09374828125
EXTRACT: note_off channel=14 note=46 velocity=0 time=0
EXTRACT: pitchwheel channel=2 pitch=-1408 time=0.019230416666666666
EXTRACT: note_on channel=14 note=58 velocity=60 time=0.0024038020833333333
EXTRACT: pitchwheel channel=2 pitch=-2304 time=0.016826614583333333
EXTRACT: note_off channel=3 note=62 velocity=0 time=0
EXTRACT: note_off channel=4 note=74 velocity=0 time=0
EXTRACT: pitchwheel channel=2 pitch=-2816 time=0.019230416666666666
EXTRACT: pitchwheel channel=2 pitch=-2944 time=0.019230416666666666
EXTRACT: pitchwheel channel=2 pitch=-3200 time=0.019230416666666666
EXTRACT: pitchwheel channel=2 pitch=-3072 time=0.019230416666666666
EXTRACT: note_off channel=14 note=58 velocity=0 time=0.012019010416666667
EXTRACT: note_off channel=3 note=65 velocity=0 time=0.0012019010416666667
EXTRACT: note_off channel=4 note=77 velocity=0 time=0
EXTRACT: note_on channel=9 note=46 velocity=75 time=0.008413307291666667
EXTRACT: pitchwheel channel=2 pitch=-2688 time=0
EXTRACT: note_on channel=3 note=62 velocity=107 time=0
EXTRACT: note_on channel=4 note=74 velocity=97 time=0
EXTRACT: note_on channel=6 note=58 velocity=111 time=0
EXTRACT: note_on channel=6 note=62 velocity=105 time=0
EXTRACT: note_on channel=6 note=65 velocity=115 time=0
EXTRACT: note_on channel=12 note=53 velocity=82 time=0
EXTRACT: note_on channel=12 note=58 velocity=82 time=0
EXTRACT: note_on channel=12 note=62 velocity=73 time=0
EXTRACT: note_on channel=14 note=46 velocity=62 time=0
EXTRACT: pitchwheel channel=2 pitch=-2176 time=0.016826614583333333
EXTRACT: note_off channel=9 note=44 velocity=0 time=0.009615208333333333
EXTRACT: note_off channel=9 note=39 velocity=0 time=0.012019010416666667
EXTRACT: pitchwheel channel=2 pitch=-1664 time=0
EXTRACT: note_off channel=9 note=40 velocity=0 time=0.00721140625
EXTRACT: pitchwheel channel=2 pitch=-1024 time=0.012019010416666667
EXTRACT: pitchwheel channel=2 pitch=0 time=0.019230416666666666
EXTRACT: note_off channel=14 note=46 velocity=0 time=0.00721140625
EXTRACT: note_off channel=12 note=58 velocity=0 time=0.012019010416666667
EXTRACT: note_off channel=12 note=62 velocity=0 time=0.0024038020833333333
EXTRACT: note_off channel=6 note=62 velocity=0 time=0.0024038020833333333
EXTRACT: note_off channel=9 note=36 velocity=0 time=0.0024038020833333333
EXTRACT: note_off channel=12 note=53 velocity=0 time=0.0024038020833333333
EXTRACT: note_off channel=6 note=58 velocity=0 time=0.0024038020833333333
EXTRACT: note_on channel=14 note=58 velocity=60 time=0.00721140625
EXTRACT: note_off channel=6 note=65 velocity=0 time=0.0024038020833333333
EXTRACT: note_off channel=14 note=58 velocity=0 time=0.10336348958333333
EXTRACT: note_off channel=1 note=34 velocity=0 time=0.004807604166666667
EXTRACT: note_on channel=9 note=36 velocity=122 time=0.004807604166666667
EXTRACT: note_on channel=9 note=39 velocity=65 time=0
EXTRACT: note_on channel=9 note=40 velocity=65 time=0
EXTRACT: note_on channel=9 note=44 velocity=92 time=0
EXTRACT: note_on channel=1 note=29 velocity=76 time=0
EXTRACT: note_on channel=14 note=46 velocity=63 time=0
EXTRACT: note_off channel=14 note=46 velocity=0 time=0.09855588541666667
EXTRACT: note_off channel=9 note=46 velocity=0 time=0.0144228125
EXTRACT: note_on channel=14 note=58 velocity=60 time=0.0024038020833333333
EXTRACT: note_off channel=14 note=58 velocity=0 time=0.09374828125
EXTRACT: note_off channel=1 note=29 velocity=0 time=0.016826614583333333
EXTRACT: note_on channel=9 note=46 velocity=63 time=0.004807604166666667
EXTRACT: note_on channel=1 note=27 velocity=91 time=0
EXTRACT: note_on channel=2 note=70 velocity=46 time=0
EXTRACT: note_on channel=3 note=60 velocity=107 time=0
EXTRACT: note_on channel=4 note=72 velocity=97 time=0
EXTRACT: note_on channel=6 note=58 velocity=111 time=0
EXTRACT: note_on channel=6 note=63 velocity=111 time=0
EXTRACT: note_on channel=6 note=68 velocity=115 time=0
EXTRACT: note_on channel=12 note=53 velocity=88 time=0
EXTRACT: note_on channel=12 note=58 velocity=78 time=0
EXTRACT: note_on channel=12 note=63 velocity=74 time=0
EXTRACT: note_on channel=14 note=46 velocity=62 time=0
EXTRACT: note_off channel=9 note=44 velocity=0 time=0.036057031249999996
EXTRACT: note_off channel=2 note=80 velocity=0 time=0.0024038020833333333
EXTRACT: note_off channel=3 note=62 velocity=0 time=0.022836119791666665
EXTRACT: note_off channel=4 note=74 velocity=0 time=0
EXTRACT: note_off channel=14 note=46 velocity=0 time=0.02764372395833333
EXTRACT: note_off channel=12 note=58 velocity=0 time=0.02163421875
EXTRACT: note_off channel=6 note=58 velocity=0 time=0.0024038020833333333
EXTRACT: note_on channel=14 note=58 velocity=60 time=0.0024038020833333333
EXTRACT: note_off channel=9 note=36 velocity=0 time=0.0024038020833333333
EXTRACT: note_off channel=12 note=63 velocity=0 time=0.004807604166666667
EXTRACT: note_off channel=12 note=53 velocity=0 time=0
EXTRACT: note_off channel=6 note=63 velocity=0 time=0.0024038020833333333
EXTRACT: note_off channel=6 note=68 velocity=0 time=0.016826614583333333
EXTRACT: note_off channel=14 note=58 velocity=0 time=0.06971026041666667
EXTRACT: note_on channel=9 note=36 velocity=125 time=0.019230416666666666
EXTRACT: note_on channel=9 note=44 velocity=85 time=0
EXTRACT: note_on channel=14 note=46 velocity=63 time=0
EXTRACT: note_off channel=9 note=46 velocity=0 time=0.07692166666666667
EXTRACT: note_off channel=14 note=46 velocity=0 time=0.012019010416666667
EXTRACT: note_off channel=1 note=27 velocity=0 time=0.019230416666666666
EXTRACT: note_on channel=14 note=58 velocity=59 time=0.00721140625
EXTRACT: pitchwheel channel=2 pitch=-256 time=0.019230416666666666
EXTRACT: pitchwheel channel=2 pitch=-1408 time=0.02163421875
EXTRACT: pitchwheel channel=2 pitch=-2304 time=0.019230416666666666
EXTRACT: pitchwheel channel=2 pitch=-2816 time=0.019230416666666666
EXTRACT: pitchwheel channel=2 pitch=-2944 time=0.019230416666666666
EXTRACT: note_off channel=14 note=58 velocity=0 time=0.004807604166666667
EXTRACT: note_on channel=9 note=36 velocity=120 time=0.012019010416666667
EXTRACT: note_on channel=9 note=46 velocity=71 time=0
EXTRACT: note_on channel=1 note=27 velocity=95 time=0
EXTRACT: note_on channel=3 note=58 velocity=107 time=0
EXTRACT: note_on channel=4 note=70 velocity=97 time=0
EXTRACT: note_on channel=6 note=58 velocity=111 time=0
EXTRACT: note_on channel=6 note=63 velocity=111 time=0
EXTRACT: note_on channel=6 note=68 velocity=115 time=0
EXTRACT: note_on channel=12 note=53 velocity=85 time=0
EXTRACT: note_on channel=12 note=58 velocity=88 time=0
EXTRACT: note_on channel=12 note=63 velocity=88 time=0
EXTRACT: note_on channel=14 note=46 velocity=62 time=0
EXTRACT: pitchwheel channel=2 pitch=-2816 time=0.0024038020833333333
EXTRACT: note_off channel=3 note=60 velocity=0 time=0.004807604166666667
EXTRACT: note_off channel=4 note=72 velocity=0 time=0
EXTRACT: pitchwheel channel=2 pitch=-2176 time=0.0144228125
EXTRACT: pitchwheel channel=2 pitch=-1536 time=0.019230416666666666
EXTRACT: note_off channel=9 note=36 velocity=64 time=0.016826614583333333
EXTRACT: pitchwheel channel=2 pitch=-768 time=0.0024038020833333333
EXTRACT: note_off channel=9 note=40 velocity=0 time=0.009615208333333333
EXTRACT: note_off channel=9 note=39 velocity=0 time=0
EXTRACT: pitchwheel channel=2 pitch=0 time=0.009615208333333333
EXTRACT: note_off channel=9 note=44 velocity=0 time=0.009615208333333333
EXTRACT: note_off channel=14 note=46 velocity=0 time=0.004807604166666667
EXTRACT: note_off channel=9 note=36 velocity=0 time=0.00721140625
EXTRACT: note_on channel=14 note=58 velocity=60 time=0.0144228125
EXTRACT: note_off channel=14 note=58 velocity=0 time=0.1009596875
EXTRACT: note_on channel=9 note=36 velocity=125 time=0.0144228125
EXTRACT: note_on channel=9 note=39 velocity=65 time=0
EXTRACT: note_on channel=9 note=40 velocity=64 time=0
EXTRACT: note_on channel=9 note=44 velocity=101 time=0
EXTRACT: note_on channel=14 note=46 velocity=63 time=0
EXTRACT: note_off channel=14 note=46 velocity=0 time=0.09134447916666666
EXTRACT: note_off channel=9 note=46 velocity=0 time=0.012019010416666667
EXTRACT: note_on channel=14 note=58 velocity=60 time=0.012019010416666667
EXTRACT: note_off channel=12 note=58 velocity=0 time=0.0144228125
EXTRACT: note_off channel=12 note=63 velocity=0 time=0.009615208333333333
EXTRACT: note_off channel=12 note=53 velocity=0 time=0
EXTRACT: note_off channel=2 note=70 velocity=0 time=0.03846083333333333
EXTRACT: note_off channel=14 note=58 velocity=0 time=0.033653229166666666
EXTRACT: note_off channel=1 note=27 velocity=0 time=0.016826614583333333
EXTRACT: note_on channel=9 note=46 velocity=70 time=0.0024038020833333333
EXTRACT: note_on channel=1 note=31 velocity=85 time=0
EXTRACT: note_on channel=12 note=53 velocity=78 time=0
EXTRACT: note_on channel=12 note=58 velocity=80 time=0
EXTRACT: note_on channel=12 note=63 velocity=82 time=0
EXTRACT: note_on channel=14 note=46 velocity=62 time=0
EXTRACT: note_off channel=6 note=58 velocity=0 time=0.012019010416666667
EXTRACT: note_off channel=6 note=63 velocity=0 time=0.026441822916666666
EXTRACT: note_off channel=6 note=68 velocity=0 time=0.026441822916666666
EXTRACT: note_off channel=9 note=44 velocity=0 time=0.019230416666666666
EXTRACT: note_off channel=12 note=58 velocity=0 time=0.004807604166666667
EXTRACT: note_off channel=14 note=46 velocity=0 time=0.004807604166666667
EXTRACT: note_off channel=12 note=63 velocity=0 time=0.012019010416666667
EXTRACT: note_off channel=12 note=53 velocity=0 time=0
EXTRACT: note_off channel=9 note=36 velocity=0 time=0.0024038020833333333
EXTRACT: note_on channel=14 note=58 velocity=61 time=0.00721140625
EXTRACT: note_off channel=9 note=46 velocity=0 time=0.0432684375
EXTRACT: note_off channel=1 note=31 velocity=0 time=0.031249427083333333
EXTRACT: note_off channel=14 note=58 velocity=0 time=0.019230416666666666
EXTRACT: note_on channel=9 note=36 velocity=122 time=0.02163421875
EXTRACT: note_on channel=9 note=44 velocity=111 time=0
EXTRACT: note_on channel=1 note=34 velocity=104 time=0
EXTRACT: note_on channel=2 note=80 velocity=64 time=0
EXTRACT: note_on channel=3 note=62 velocity=107 time=0
EXTRACT: note_on channel=4 note=74 velocity=97 time=0
EXTRACT: note_on channel=12 note=53 velocity=88 time=0
EXTRACT: note_on channel=12 note=58 velocity=78 time=0
EXTRACT: note_on channel=12 note=62 velocity=76 time=0
EXTRACT: note_on channel=14 note=46 velocity=65 time=0
EXTRACT: note_off channel=14 note=46 velocity=0 time=0.086536875
EXTRACT: note_off channel=3 note=58 velocity=0 time=0.0024038020833333333
EXTRACT: note_off channel=4 note=70 velocity=0 time=0
EXTRACT: note_off channel=12 note=58 velocity=0 time=0.00721140625
EXTRACT: note_off channel=12 note=62 velocity=0 time=0.016826614583333333
EXTRACT: note_on channel=14 note=58 velocity=61 time=0.0024038020833333333
EXTRACT: note_off channel=12 note=53 velocity=0 time=0.00721140625
EXTRACT: pitchwheel channel=2 pitch=-384 time=0.028845625
EXTRACT: pitchwheel channel=2 pitch=-1152 time=0.019230416666666666
EXTRACT: pitchwheel channel=2 pitch=-2048 time=0.019230416666666666
EXTRACT: pitchwheel channel=2 pitch=-2816 time=0.019230416666666666
EXTRACT: note_off channel=14 note=58 velocity=0 time=0.019230416666666666
EXTRACT: note_on channel=9 note=46 velocity=75 time=0.0024038020833333333
EXTRACT: pitchwheel channel=2 pitch=-3328 time=0
EXTRACT: note_on channel=14 note=46 velocity=63 time=0
EXTRACT: pitchwheel channel=2 pitch=-3456 time=0.019230416666666666
EXTRACT: note_off channel=9 note=44 velocity=0 time=0.00721140625
EXTRACT: note_off channel=9 note=39 velocity=0 time=0.02163421875
EXTRACT: note_off channel=9 note=40 velocity=0 time=0.004807604166666667
EXTRACT: pitchwheel channel=2 pitch=-3200 time=0.004807604166666667
EXTRACT: note_off channel=14 note=46 velocity=0 time=0.0144228125
EXTRACT: pitchwheel channel=2 pitch=-2944 time=0.004807604166666667
EXTRACT: note_off channel=9 note=36 velocity=0 time=0.009615208333333333
EXTRACT: pitchwheel channel=2 pitch=-2176 time=0.009615208333333333
EXTRACT: pitchwheel channel=2 pitch=-1024 time=0.019230416666666666
EXTRACT: note_on channel=14 note=58 velocity=60 time=0
EXTRACT: pitchwheel channel=2 pitch=0 time=0.019230416666666666
EXTRACT: note_off channel=1 note=34 velocity=0 time=0.060095052083333336
EXTRACT: note_off channel=14 note=58 velocity=0 time=0.004807604166666667
EXTRACT: note_on channel=9 note=36 velocity=118 time=0.031249427083333333
EXTRACT: note_on channel=9 note=39 velocity=71 time=0
EXTRACT: note_on channel=9 note=40 velocity=72 time=0
EXTRACT: note_on channel=9 note=44 velocity=92 time=0
EXTRACT: note_on channel=1 note=29 velocity=73 time=0
EXTRACT: note_on channel=6 note=58 velocity=124 time=0
EXTRACT: note_on channel=6 note=62 velocity=111 time=0
EXTRACT: note_on channel=6 note=68 velocity=124 time=0
EXTRACT: note_on channel=12 note=53 velocity=80 time=0
EXTRACT: note_on channel=12 note=58 velocity=73 time=0
EXTRACT: note_on channel=12 note=62 velocity=73 time=0
EXTRACT: note_on channel=14 note=46 velocity=63 time=0
EXTRACT: note_off channel=14 note=46 velocity=0 time=0.086536875
EXTRACT: note_off channel=12 note=62 velocity=0 time=0.016826614583333333
EXTRACT: note_off channel=9 note=46 velocity=0 time=0.009615208333333333
EXTRACT: note_off channel=12 note=58 velocity=0 time=0
EXTRACT: note_on channel=14 note=58 velocity=60 time=0.0024038020833333333
EXTRACT: note_off channel=12 note=53 velocity=0 time=0.00721140625
EXTRACT: note_off channel=6 note=58 velocity=0 time=0.0024038020833333333
EXTRACT: note_off channel=6 note=62 velocity=0 time=0.019230416666666666
EXTRACT: note_off channel=6 note=68 velocity=0 time=0.004807604166666667
EXTRACT: note_off channel=1 note=29 velocity=0 time=0.019230416666666666
EXTRACT: note_off channel=14 note=58 velocity=0 time=0.033653229166666666
EXTRACT: note_off channel=2 note=80 velocity=0 time=0.02163421875
EXTRACT: note_on channel=9 note=46 velocity=63 time=0.00721140625
EXTRACT: note_on channel=1 note=27 velocity=88 time=0
EXTRACT: note_on channel=2 note=70 velocity=46 time=0
EXTRACT: note_on channel=3 note=65 velocity=107 time=0
EXTRACT: note_on channel=4 note=77 velocity=97 time=0
EXTRACT: note_on channel=6 note=58 velocity=124 time=0
EXTRACT: note_on channel=6 note=63 velocity=124 time=0
EXTRACT: note_on channel=6 note=68 velocity=127 time=0
EXTRACT: note_on channel=12 note=53 velocity=76 time=0
EXTRACT: note_on channel=12 note=58 velocity=74 time=0
EXTRACT: note_on channel=12 note=63 velocity=74 time=0
EXTRACT: note_on channel=14 note=46 velocity=61 time=0
EXTRACT: note_off channel=9 note=44 velocity=0 time=0.036057031249999996
EXTRACT: note_off channel=14 note=46 velocity=0 time=0.05047984375
EXTRACT: note_off channel=9 note=36 velocity=0 time=0.019230416666666666
EXTRACT: note_off channel=12 note=53 velocity=0 time=0.00721140625
EXTRACT: note_on channel=14 note=58 velocity=60 time=0.0024038020833333333
EXTRACT: note_off channel=3 note=62 velocity=0 time=0.003605703125
EXTRACT: note_off channel=4 note=74 velocity=0 time=0
EXTRACT: note_off channel=12 note=58 velocity=0 time=0.013220911458333333
EXTRACT: note_off channel=12 note=63 velocity=0 time=0.012019010416666667
EXTRACT: note_off channel=14 note=58 velocity=0 time=0.05528744791666666
EXTRACT: note_on channel=9 note=36 velocity=125 time=0.031249427083333333
EXTRACT: note_on channel=9 note=44 velocity=85 time=0
EXTRACT: note_on channel=14 note=46 velocity=62 time=0
EXTRACT: note_off channel=9 note=46 velocity=0 time=0.07692166666666667
EXTRACT: pitchwheel channel=2 pitch=-512 time=0.0024038020833333333
EXTRACT: note_off channel=14 note=46 velocity=0 time=0.012019010416666667
EXTRACT: pitchwheel channel=2 pitch=-1408 time=0.00721140625
EXTRACT: note_on channel=14 note=58 velocity=60 time=0.016826614583333333
EXTRACT: pitchwheel channel=2 pitch=-2304 time=0.0024038020833333333
EXTRACT: pitchwheel channel=2 pitch=-2816 time=0.019230416666666666
EXTRACT: pitchwheel channel=2 pitch=-3072 time=0.019230416666666666
EXTRACT: pitchwheel channel=2 pitch=-2944 time=0.019230416666666666
EXTRACT: note_off channel=1 note=27 velocity=0 time=0.004807604166666667
EXTRACT: pitchwheel channel=2 pitch=-2432 time=0.0144228125
EXTRACT: note_off channel=14 note=58 velocity=0 time=0.012019010416666667
EXTRACT: pitchwheel channel=2 pitch=-1664 time=0.00721140625
EXTRACT: note_on channel=9 note=36 velocity=120 time=0.016826614583333333
EXTRACT: note_on channel=9 note=46 velocity=71 time=0
EXTRACT: note_on channel=1 note=27 velocity=95 time=0
EXTRACT: note_on channel=12 note=53 velocity=71 time=0
EXTRACT: note_on channel=12 note=58 velocity=78 time=0
EXTRACT: note_on channel=12 note=63 velocity=78 time=0
EXTRACT: note_on channel=14 note=46 velocity=61 time=0
EXTRACT: pitchwheel channel=2 pitch=-768 time=0.0024038020833333333
EXTRACT: note_off channel=9 note=39 velocity=0 time=0.012019010416666667
EXTRACT: note_off channel=9 note=40 velocity=0 time=0.0024038020833333333
EXTRACT: pitchwheel channel=2 pitch=0 time=0.004807604166666667
EXTRACT: note_off channel=9 note=36 velocity=64 time=0.036057031249999996
EXTRACT: note_off channel=9 note=36 velocity=0 time=0.028845625
EXTRACT: note_off channel=9 note=44 velocity=0 time=0.0024038020833333333
EXTRACT: note_off channel=14 note=46 velocity=0 time=0.0024038020833333333
EXTRACT: note_on channel=14 note=58 velocity=60 time=0.024038020833333333
EXTRACT: note_off channel=14 note=58 velocity=0 time=0.09374828125
EXTRACT: note_on channel=9 note=36 velocity=122 time=0.02163421875
EXTRACT: note_on channel=9 note=39 velocity=62 time=0
EXTRACT: note_on channel=9 note=40 velocity=68 time=0
EXTRACT: note_on channel=9 note=44 velocity=101 time=0
EXTRACT: note_on channel=14 note=46 velocity=63 time=0
EXTRACT: note_off channel=6 note=58 velocity=0 time=0.05288364583333333
EXTRACT: note_off channel=6 note=63 velocity=0 time=0.009615208333333333
EXTRACT: note_off channel=6 note=68 velocity=0 time=0.0144228125
EXTRACT: note_off channel=14 note=46 velocity=0 time=0.019230416666666666
EXTRACT: note_off channel=9 note=46 velocity=0 time=0.00721140625
EXTRACT: note_off channel=12 note=53 velocity=0 time=0.004807604166666667
EXTRACT: note_on channel=14 note=58 velocity=60 time=0.00721140625
EXTRACT: note_off channel=12 note=58 velocity=0 time=0.00721140625
EXTRACT: note_off channel=12 note=63 velocity=0 time=0.0144228125
EXTRACT: note_off channel=14 note=58 velocity=0 time=0.07932546875
EXTRACT: note_off channel=1 note=27 velocity=0 time=0.012019010416666667
EXTRACT: note_on channel=9 note=46 velocity=70 time=0.0024038020833333333
EXTRACT: note_on channel=1 note=31 velocity=62 time=0
EXTRACT: note_on channel=12 note=53 velocity=71 time=0
EXTRACT: note_on channel=12 note=58 velocity=73 time=0
EXTRACT: note_on channel=12 note=63 velocity=68 time=0
EXTRACT: note_on channel=14 note=46 velocity=63 time=0
EXTRACT: note_off channel=9 note=44 velocity=0 time=0.08413307291666666
EXTRACT: note_off channel=14 note=46 velocity=0 time=0.009615208333333333
EXTRACT: note_off channel=9 note=36 velocity=0 time=0.00721140625
EXTRACT: note_on channel=14 note=58 velocity=59 time=0.0144228125
EXTRACT: note_off channel=12 note=53 velocity=0 time=0.00721140625
EXTRACT: note_off channel=12 note=58 velocity=0 time=0.012019010416666667
EXTRACT: note_off channel=9 note=46 velocity=0 time=0.024038020833333333
EXTRACT: note_off channel=12 note=63 velocity=0 time=0.004807604166666667
EXTRACT: note_off channel=1 note=31 velocity=0 time=0.016826614583333333
EXTRACT: note_off channel=14 note=58 velocity=0 time=0.036057031249999996
EXTRACT: note_on channel=9 note=36 velocity=122 time=0.0144228125
EXTRACT: note_on channel=9 note=44 velocity=111 time=0
EXTRACT: note_on channel=1 note=34 velocity=82 time=0
EXTRACT: note_on channel=2 note=80 velocity=43 time=0
EXTRACT: note_on channel=3 note=62 velocity=107 time=0
EXTRACT: note_on channel=4 note=74 velocity=97 time=0
EXTRACT: note_on channel=12 note=53 velocity=74 time=0
EXTRACT: note_on channel=12 note=58 velocity=73 time=0
EXTRACT: note_on channel=12 note=62 velocity=71 time=0
EXTRACT: note_on channel=14 note=46 velocity=63 time=0
EXTRACT: note_off channel=2 note=70 velocity=0 time=0.028845625
EXTRACT: note_off channel=12 note=58 velocity=0 time=0.06490265625
EXTRACT: note_off channel=14 note=46 velocity=0 time=0
EXTRACT: note_off channel=12 note=62 velocity=0 time=0.012019010416666667
EXTRACT: note_off channel=12 note=53 velocity=0 time=0.004807604166666667
EXTRACT: note_on channel=14 note=58 velocity=60 time=0.004807604166666667
EXTRACT: note_off channel=3 note=65 velocity=0 time=0.013220911458333333
EXTRACT: note_off channel=4 note=77 velocity=0 time=0
EXTRACT: note_off channel=2 note=80 velocity=0 time=0.051681744791666664
EXTRACT: note_off channel=14 note=58 velocity=0 time=0.04086463541666667
EXTRACT: note_on channel=9 note=46 velocity=75 time=0.009615208333333333
EXTRACT: note_on channel=2 note=80 velocity=46 time=0
EXTRACT: note_on channel=14 note=46 velocity=62 time=0
EXTRACT: note_off channel=9 note=44 velocity=0 time=0.026441822916666666
EXTRACT: note_off channel=3 note=62 velocity=0 time=0.05769125
EXTRACT: note_off channel=4 note=74 velocity=0 time=0
EXTRACT: note_off channel=14 note=46 velocity=0 time=0
EXTRACT: note_off channel=9 note=40 velocity=0 time=0.0024038020833333333
EXTRACT: note_off channel=9 note=39 velocity=0 time=0.00721140625
EXTRACT: note_off channel=9 note=36 velocity=0 time=0.00721140625
EXTRACT: note_on channel=14 note=58 velocity=60 time=0.0144228125
EXTRACT: note_off channel=14 note=58 velocity=0 time=0.10576729166666667
EXTRACT: note_off channel=1 note=34 velocity=0 time=0.004807604166666667
EXTRACT: note_on channel=9 note=36 velocity=122 time=0.004807604166666667
EXTRACT: note_on channel=9 note=39 velocity=66 time=0
EXTRACT: note_on channel=9 note=40 velocity=66 time=0
EXTRACT: note_on channel=9 note=44 velocity=92 time=0
EXTRACT: note_on channel=1 note=29 velocity=76 time=0
EXTRACT: note_on channel=3 note=62 velocity=107 time=0
EXTRACT: note_on channel=4 note=74 velocity=97 time=0
EXTRACT: note_on channel=6 note=58 velocity=115 time=0
EXTRACT: note_on channel=6 note=62 velocity=108 time=0
EXTRACT: note_on channel=6 note=65 velocity=118 time=0
EXTRACT: note_on channel=12 note=53 velocity=82 time=0
EXTRACT: note_on channel=12 note=58 velocity=78 time=0
EXTRACT: note_on channel=12 note=62 velocity=73 time=0
EXTRACT: note_on channel=14 note=46 velocity=63 time=0
EXTRACT: note_off channel=14 note=46 velocity=0 time=0.09855588541666667
EXTRACT: note_off channel=9 note=46 velocity=0 time=0.0144228125
EXTRACT: note_on channel=14 note=58 velocity=60 time=0.0024038020833333333
EXTRACT: note_off channel=12 note=62 velocity=0 time=0.033653229166666666
EXTRACT: note_off channel=12 note=58 velocity=0 time=0
EXTRACT: note_off channel=12 note=53 velocity=0 time=0
EXTRACT: note_off channel=6 note=58 velocity=0 time=0.0144228125
EXTRACT: note_off channel=6 note=62 velocity=0 time=0.019230416666666666
EXTRACT: note_off channel=14 note=58 velocity=0 time=0.026441822916666666
EXTRACT: note_off channel=1 note=29 velocity=0 time=0.016826614583333333
EXTRACT: note_on channel=9 note=46 velocity=63 time=0.004807604166666667
EXTRACT: note_on channel=1 note=27 velocity=91 time=0
EXTRACT: note_on channel=2 note=70 velocity=43 time=0
EXTRACT: note_on channel=3 note=60 velocity=107 time=0
EXTRACT: note_on channel=4 note=72 velocity=97 time=0
EXTRACT: note_on channel=6 note=58 velocity=102 time=0
EXTRACT: note_on channel=6 note=63 velocity=108 time=0
EXTRACT: note_on channel=6 note=68 velocity=111 time=0
EXTRACT: note_on channel=12 note=53 velocity=82 time=0
EXTRACT: note_on channel=12 note=58 velocity=80 time=0
EXTRACT: note_on channel=12 note=63 velocity=80 time=0
EXTRACT: note_on channel=14 note=46 velocity=62 time=0
EXTRACT: note_off channel=9 note=44 velocity=0 time=0.036057031249999996
EXTRACT: note_off channel=2 note=80 velocity=0 time=0.004807604166666667
EXTRACT: note_off channel=3 note=62 velocity=0 time=0.013220911458333333
EXTRACT: note_off channel=4 note=74 velocity=0 time=0
EXTRACT: note_off channel=6 note=65 velocity=0 time=0.010817109375
EXTRACT: note_off channel=14 note=46 velocity=0 time=0.024038020833333333
EXTRACT: note_on channel=14 note=58 velocity=60 time=0.026441822916666666
EXTRACT: note_off channel=12 note=58 velocity=0 time=0.019230416666666666
EXTRACT: note_off channel=12 note=63 velocity=0 time=0.004807604166666667
EXTRACT: note_off channel=12 note=53 velocity=0 time=0.009615208333333333
EXTRACT: note_off channel=9 note=36 velocity=0 time=0.004807604166666667
EXTRACT: note_off channel=6 note=58 velocity=0 time=0
EXTRACT: note_off channel=6 note=63 velocity=0 time=0.004807604166666667
EXTRACT: note_off channel=6 note=68 velocity=0 time=0.004807604166666667
EXTRACT: note_off channel=14 note=58 velocity=0 time=0.048076041666666666
EXTRACT: note_on channel=9 note=36 velocity=118 time=0.019230416666666666
EXTRACT: note_on channel=9 note=44 velocity=85 time=0
EXTRACT: note_on channel=14 note=46 velocity=63 time=0
EXTRACT: pitchwheel channel=2 pitch=-1024 time=0.028845625
EXTRACT: pitchwheel channel=2 pitch=-2176 time=0.019230416666666666
EXTRACT: pitchwheel channel=2 pitch=-2944 time=0.019230416666666666
EXTRACT: note_off channel=9 note=46 velocity=0 time=0.009615208333333333
EXTRACT: pitchwheel channel=2 pitch=-3072 time=0.009615208333333333
EXTRACT: note_off channel=14 note=46 velocity=0 time=0.0024038020833333333
EXTRACT: pitchwheel channel=2 pitch=-2816 time=0.016826614583333333
EXTRACT: note_off channel=1 note=27 velocity=0 time=0.0024038020833333333
EXTRACT: note_on channel=14 note=58 velocity=59 time=0.00721140625
EXTRACT: pitchwheel channel=2 pitch=-1920 time=0.009615208333333333
EXTRACT: pitchwheel channel=2 pitch=-1024 time=0.019230416666666666
EXTRACT: pitchwheel channel=2 pitch=0 time=0.019230416666666666
EXTRACT: note_off channel=3 note=60 velocity=0 time=0.046874140625
EXTRACT: note_off channel=4 note=72 velocity=0 time=0
EXTRACT: note_off channel=14 note=58 velocity=0 time=0.008413307291666667
EXTRACT: note_on channel=9 note=36 velocity=120 time=0.012019010416666667
EXTRACT: note_on channel=9 note=46 velocity=71 time=0
EXTRACT: note_on channel=1 note=27 velocity=95 time=0
EXTRACT: note_on channel=3 note=58 velocity=107 time=0
EXTRACT: note_on channel=4 note=70 velocity=97 time=0
EXTRACT: note_on channel=6 note=58 velocity=108 time=0
EXTRACT: note_on channel=6 note=63 velocity=108 time=0
EXTRACT: note_on channel=6 note=68 velocity=115 time=0
EXTRACT: note_on channel=12 note=53 velocity=80 time=0
EXTRACT: note_on channel=12 note=58 velocity=78 time=0
EXTRACT: note_on channel=12 note=63 velocity=80 time=0
EXTRACT: note_on channel=14 note=46 velocity=62 time=0
EXTRACT: note_off channel=9 note=36 velocity=64 time=0.05769125
EXTRACT: note_off channel=9 note=40 velocity=0 time=0.028845625
EXTRACT: note_off channel=9 note=39 velocity=0 time=0
EXTRACT: note_off channel=9 note=44 velocity=0 time=0.0024038020833333333
EXTRACT: note_off channel=14 note=46 velocity=0 time=0.004807604166666667
EXTRACT: note_off channel=9 note=36 velocity=0 time=0.0024038020833333333
EXTRACT: note_on channel=14 note=58 velocity=60 time=0.019230416666666666
EXTRACT: note_off channel=14 note=58 velocity=0 time=0.1009596875
EXTRACT: note_on channel=9 note=36 velocity=122 time=0.0144228125
EXTRACT: note_on channel=9 note=39 velocity=71 time=0
EXTRACT: note_on channel=9 note=40 velocity=72 time=0
EXTRACT: note_on channel=9 note=44 velocity=101 time=0
EXTRACT: note_on channel=14 note=46 velocity=63 time=0
EXTRACT: note_off channel=14 note=46 velocity=0 time=0.09134447916666666
EXTRACT: note_off channel=9 note=46 velocity=0 time=0.012019010416666667
EXTRACT: note_on channel=14 note=58 velocity=60 time=0.012019010416666667
EXTRACT: note_off channel=14 note=58 velocity=0 time=0.09615208333333333
EXTRACT: note_off channel=1 note=27 velocity=0 time=0.016826614583333333
EXTRACT: note_on channel=9 note=46 velocity=70 time=0.0024038020833333333
EXTRACT: note_on channel=1 note=31 velocity=85 time=0
EXTRACT: note_on channel=14 note=46 velocity=62 time=0
EXTRACT: note_off channel=12 note=58 velocity=0 time=0.0144228125
EXTRACT: note_off channel=12 note=63 velocity=0 time=0.00721140625
EXTRACT: note_off channel=12 note=53 velocity=0 time=0.004807604166666667
EXTRACT: note_off channel=6 note=58 velocity=0 time=0.031249427083333333
EXTRACT: note_off channel=6 note=63 velocity=0 time=0.016826614583333333
EXTRACT: note_off channel=9 note=44 velocity=0 time=0.009615208333333333
EXTRACT: note_off channel=6 note=68 velocity=0 time=0
EXTRACT: note_off channel=14 note=46 velocity=0 time=0.009615208333333333
EXTRACT: note_off channel=9 note=36 velocity=0 time=0.012019010416666667
EXTRACT: note_on channel=14 note=58 velocity=61 time=0.009615208333333333
EXTRACT: note_off channel=9 note=46 velocity=0 time=0.0432684375
EXTRACT: note_off channel=1 note=31 velocity=0 time=0.031249427083333333
EXTRACT: note_off channel=14 note=58 velocity=0 time=0.019230416666666666
EXTRACT: note_on channel=9 note=36 velocity=122 time=0.02163421875
EXTRACT: note_on channel=9 note=44 velocity=111 time=0
EXTRACT: note_on channel=1 note=34 velocity=104 time=0
EXTRACT: note_on channel=3 note=62 velocity=107 time=0
EXTRACT: note_on channel=4 note=74 velocity=97 time=0
EXTRACT: note_on channel=14 note=46 velocity=65 time=0
EXTRACT: note_off channel=3 note=58 velocity=0 time=0.019230416666666666
EXTRACT: note_off channel=4 note=70 velocity=0 time=0
EXTRACT: note_off channel=14 note=46 velocity=0 time=0.06730645833333333
EXTRACT: note_on channel=14 note=58 velocity=61 time=0.028845625
EXTRACT: note_off channel=2 note=70 velocity=0 time=0.1009596875
EXTRACT: note_off channel=14 note=58 velocity=0 time=0.012019010416666667
EXTRACT: note_on channel=9 note=46 velocity=75 time=0.0024038020833333333
EXTRACT: note_on channel=2 note=80 velocity=59 time=0
EXTRACT: note_on channel=12 note=53 velocity=85 time=0
EXTRACT: note_on channel=12 note=58 velocity=80 time=0
EXTRACT: note_on channel=12 note=62 velocity=76 time=0
EXTRACT: note_on channel=14 note=46 velocity=63 time=0
EXTRACT: note_off channel=9 note=44 velocity=0 time=0.026441822916666666
EXTRACT: note_off channel=9 note=40 velocity=0 time=0.026441822916666666
EXTRACT: note_off channel=9 note=39 velocity=0 time=0
EXTRACT: note_off channel=14 note=46 velocity=0 time=0.019230416666666666
EXTRACT: note_off channel=12 note=58 velocity=0 time=0.02163421875
EXTRACT: note_off channel=12 note=62 velocity=0 time=0.00721140625
EXTRACT: note_off channel=9 note=36 velocity=0 time=0.0024038020833333333
EXTRACT: note_off channel=12 note=53 velocity=0 time=0.012019010416666667
EXTRACT: note_on channel=14 note=58 velocity=60 time=0
EXTRACT: note_off channel=1 note=34 velocity=0 time=0.07932546875
EXTRACT: note_off channel=14 note=58 velocity=0 time=0.004807604166666667
EXTRACT: note_on channel=9 note=36 velocity=122 time=0.031249427083333333
EXTRACT: note_on channel=9 note=39 velocity=76 time=0
EXTRACT: note_on channel=9 note=40 velocity=74 time=0
EXTRACT: note_on channel=9 note=44 velocity=92 time=0
EXTRACT: note_on channel=1 note=29 velocity=73 time=0
EXTRACT: note_on channel=6 note=58 velocity=108 time=0
EXTRACT: note_on channel=6 note=62 velocity=105 time=0
EXTRACT: note_on channel=6 note=65 velocity=115 time=0
EXTRACT: note_on channel=14 note=46 velocity=63 time=0
EXTRACT: pitchwheel channel=2 pitch=-384 time=0.031249427083333333
EXTRACT: pitchwheel channel=2 pitch=-1536 time=0.019230416666666666
EXTRACT: pitchwheel channel=2 pitch=-2432 time=0.019230416666666666
EXTRACT: note_off channel=14 note=46 velocity=0 time=0.016826614583333333
EXTRACT: pitchwheel channel=2 pitch=-3328 time=0.0024038020833333333
EXTRACT: pitchwheel channel=2 pitch=-3712 time=0.019230416666666666
EXTRACT: note_off channel=9 note=46 velocity=0 time=0.004807604166666667
EXTRACT: note_on channel=14 note=58 velocity=60 time=0.0024038020833333333
EXTRACT: pitchwheel channel=2 pitch=-3584 time=0.012019010416666667
EXTRACT: pitchwheel channel=2 pitch=-3072 time=0.019230416666666666
EXTRACT: pitchwheel channel=2 pitch=-2560 time=0.019230416666666666
EXTRACT: note_off channel=1 note=29 velocity=0 time=0.0024038020833333333
EXTRACT: pitchwheel channel=2 pitch=-1920 time=0.019230416666666666
EXTRACT: note_off channel=6 note=58 velocity=0 time=0
EXTRACT: note_off channel=6 note=62 velocity=0 time=0.0144228125
EXTRACT: note_off channel=14 note=58 velocity=0 time=0
EXTRACT: pitchwheel channel=2 pitch=0 time=0.0024038020833333333
EXTRACT: note_on channel=9 note=46 velocity=63 time=0.026441822916666666
EXTRACT: note_on channel=1 note=27 velocity=88 time=0
EXTRACT: note_on channel=3 note=63 velocity=107 time=0
EXTRACT: note_on channel=4 note=75 velocity=97 time=0
EXTRACT: note_on channel=6 note=58 velocity=100 time=0
EXTRACT: note_on channel=6 note=63 velocity=102 time=0
EXTRACT: note_on channel=6 note=68 velocity=111 time=0
EXTRACT: note_on channel=12 note=53 velocity=80 time=0
EXTRACT: note_on channel=12 note=58 velocity=78 time=0
EXTRACT: note_on channel=12 note=62 velocity=68 time=0
EXTRACT: note_on channel=14 note=46 velocity=61 time=0
EXTRACT: note_off channel=9 note=44 velocity=0 time=0.036057031249999996
EXTRACT: note_off channel=6 note=65 velocity=0 time=0.026441822916666666
EXTRACT: note_off channel=12 note=62 velocity=0 time=0.019230416666666666
EXTRACT: note_off channel=12 note=58 velocity=0 time=0.0024038020833333333
EXTRACT: note_off channel=14 note=46 velocity=0 time=0.0024038020833333333
EXTRACT: note_off channel=9 note=36 velocity=0 time=0.004807604166666667
EXTRACT: note_off channel=12 note=53 velocity=0 time=0.00721140625
EXTRACT: note_on channel=14 note=58 velocity=60 time=0.016826614583333333
EXTRACT: note_off channel=3 note=62 velocity=0 time=0.054085546875
EXTRACT: note_off channel=4 note=74 velocity=0 time=0
EXTRACT: note_off channel=14 note=58 velocity=0 time=0.030047526041666668
EXTRACT: note_off channel=2 note=80 velocity=0 time=0.02163421875
EXTRACT: note_on channel=9 note=36 velocity=122 time=0.009615208333333333
EXTRACT: note_on channel=9 note=44 velocity=85 time=0
EXTRACT: note_on channel=2 note=70 velocity=37 time=0
EXTRACT: note_on channel=3 note=62 velocity=107 time=0
EXTRACT: note_on channel=4 note=74 velocity=97 time=0
EXTRACT: note_on channel=12 note=53 velocity=85 time=0
EXTRACT: note_on channel=12 note=58 velocity=82 time=0
EXTRACT: note_on channel=12 note=63 velocity=82 time=0
EXTRACT: note_on channel=14 note=46 velocity=62 time=0
EXTRACT: note_off channel=3 note=63 velocity=0 time=0.006009505208333333
EXTRACT: note_off channel=4 note=75 velocity=0 time=0
EXTRACT: note_off channel=9 note=46 velocity=0 time=0.07091216145833333
EXTRACT: note_off channel=14 note=46 velocity=0 time=0.0144228125
EXTRACT: note_on channel=14 note=58 velocity=60 time=0.024038020833333333
EXTRACT: note_off channel=1 note=27 velocity=0 time=0.06490265625
EXTRACT: note_off channel=12 note=58 velocity=0 time=0.0144228125
EXTRACT: note_off channel=14 note=58 velocity=0 time=0.012019010416666667
EXTRACT: note_off channel=12 note=63 velocity=0 time=0.004807604166666667
EXTRACT: note_on channel=9 note=36 velocity=120 time=0.019230416666666666
EXTRACT: note_on channel=9 note=46 velocity=71 time=0
EXTRACT: note_on channel=1 note=27 velocity=95 time=0
EXTRACT: note_on channel=14 note=46 velocity=61 time=0
EXTRACT: note_off channel=9 note=36 velocity=64 time=0.05769125
EXTRACT: note_off channel=12 note=53 velocity=0 time=0.0024038020833333333
EXTRACT: note_off channel=9 note=44 velocity=0 time=0.028845625
EXTRACT: note_off channel=9 note=39 velocity=0 time=0.0024038020833333333
EXTRACT: note_off channel=14 note=46 velocity=0 time=0
EXTRACT: note_off channel=9 note=40 velocity=0 time=0.0024038020833333333
EXTRACT: note_on channel=14 note=58 velocity=60 time=0.02163421875
EXTRACT: note_off channel=9 note=36 velocity=0 time=0.009615208333333333
EXTRACT: note_off channel=14 note=58 velocity=0 time=0.08413307291666666
EXTRACT: note_on channel=9 note=36 velocity=122 time=0.02163421875
EXTRACT: note_on channel=9 note=39 velocity=72 time=0
EXTRACT: note_on channel=9 note=40 velocity=74 time=0
EXTRACT: note_on channel=9 note=44 velocity=101 time=0
EXTRACT: note_on channel=12 note=53 velocity=82 time=0
EXTRACT: note_on channel=12 note=58 velocity=88 time=0
EXTRACT: note_on channel=12 note=63 velocity=82 time=0
EXTRACT: note_on channel=14 note=46 velocity=63 time=0
EXTRACT: note_off channel=14 note=46 velocity=0 time=0.09615208333333333
EXTRACT: note_off channel=9 note=46 velocity=0 time=0.00721140625
EXTRACT: note_on channel=14 note=58 velocity=60 time=0.012019010416666667
EXTRACT: note_off channel=12 note=53 velocity=0 time=0.0432684375
EXTRACT: note_off channel=6 note=68 velocity=0 time=0.024038020833333333
EXTRACT: note_off channel=6 note=63 velocity=0 time=0.0024038020833333333
EXTRACT: note_off channel=6 note=58 velocity=0 time=0.00721140625
EXTRACT: note_off channel=12 note=58 velocity=0 time=0.00721140625
EXTRACT: note_off channel=12 note=63 velocity=0 time=0.016826614583333333
EXTRACT: note_off channel=14 note=58 velocity=0 time=0
EXTRACT: note_off channel=1 note=27 velocity=0 time=0.012019010416666667
EXTRACT: note_on channel=9 note=46 velocity=70 time=0.0024038020833333333
EXTRACT: note_on channel=1 note=31 velocity=62 time=0
EXTRACT: note_on channel=3 note=63 velocity=107 time=0
EXTRACT: note_on channel=4 note=75 velocity=97 time=0
EXTRACT: note_on channel=12 note=53 velocity=82 time=0
EXTRACT: note_on channel=12 note=58 velocity=73 time=0
EXTRACT: note_on channel=12 note=62 velocity=73 time=0
EXTRACT: note_on channel=14 note=46 velocity=63 time=0
EXTRACT: note_off channel=9 note=36 velocity=0 time=0.07692166666666667
EXTRACT: note_off channel=9 note=44 velocity=0 time=0.00721140625
EXTRACT: note_off channel=12 note=62 velocity=0 time=0.0024038020833333333
EXTRACT: note_off channel=3 note=62 velocity=0 time=0.0024038020833333333
EXTRACT: note_off channel=4 note=74 velocity=0 time=0
EXTRACT: note_off channel=14 note=46 velocity=0 time=0.004807604166666667
EXTRACT: note_off channel=12 note=58 velocity=0 time=0.016826614583333333
EXTRACT: note_off channel=12 note=53 velocity=0 time=0
EXTRACT: note_on channel=14 note=58 velocity=59 time=0.004807604166666667
EXTRACT: note_off channel=9 note=46 velocity=0 time=0.0432684375
EXTRACT: note_off channel=1 note=31 velocity=0 time=0.02163421875
EXTRACT: note_off channel=2 note=70 velocity=0 time=0.0144228125
EXTRACT: note_off channel=14 note=58 velocity=0 time=0.02163421875
EXTRACT: note_on channel=9 note=36 velocity=125 time=0.0144228125
EXTRACT: note_on channel=9 note=44 velocity=111 time=0
EXTRACT: note_on channel=1 note=34 velocity=82 time=0
EXTRACT: note_on channel=2 note=80 velocity=46 time=0
EXTRACT: note_on channel=3 note=62 velocity=107 time=0
EXTRACT: note_on channel=4 note=74 velocity=97 time=0
EXTRACT: note_on channel=14 note=46 velocity=63 time=0
EXTRACT: note_off channel=3 note=63 velocity=0 time=0.024038020833333333
EXTRACT: note_off channel=4 note=75 velocity=0 time=0
EXTRACT: pitchwheel channel=2 pitch=-256 time=0.06971026041666667
EXTRACT: note_off channel=14 note=46 velocity=0 time=0
EXTRACT: pitchwheel channel=2 pitch=-1408 time=0.019230416666666666
EXTRACT: note_on channel=14 note=58 velocity=60 time=0.0024038020833333333
EXTRACT: pitchwheel channel=2 pitch=-2304 time=0.016826614583333333
EXTRACT: pitchwheel channel=2 pitch=-2816 time=0.019230416666666666
EXTRACT: pitchwheel channel=2 pitch=-2944 time=0.019230416666666666
EXTRACT: pitchwheel channel=2 pitch=-3200 time=0.019230416666666666
EXTRACT: pitchwheel channel=2 pitch=-3072 time=0.019230416666666666
EXTRACT: note_off channel=14 note=58 velocity=0 time=0.012019010416666667
EXTRACT: note_on channel=9 note=46 velocity=75 time=0.009615208333333333
EXTRACT: pitchwheel channel=2 pitch=-2688 time=0
EXTRACT: note_on channel=3 note=63 velocity=107 time=0
EXTRACT: note_on channel=4 note=75 velocity=97 time=0
EXTRACT: note_on channel=6 note=58 velocity=111 time=0
EXTRACT: note_on channel=6 note=62 velocity=105 time=0
EXTRACT: note_on channel=6 note=65 velocity=115 time=0
EXTRACT: note_on channel=12 note=53 velocity=82 time=0
EXTRACT: note_on channel=12 note=58 velocity=82 time=0
EXTRACT: note_on channel=12 note=62 velocity=73 time=0
EXTRACT: note_on channel=14 note=46 velocity=62 time=0
EXTRACT: pitchwheel channel=2 pitch=-2176 time=0.016826614583333333
EXTRACT: note_off channel=9 note=44 velocity=0 time=0.009615208333333333
EXTRACT: pitchwheel channel=2 pitch=-1664 time=0.012019010416666667
EXTRACT: note_off channel=3 note=62 velocity=0 time=0.015624713541666667
EXTRACT: note_off channel=4 note=74 velocity=0 time=0
EXTRACT: note_off channel=9 note=40 velocity=0 time=0.003605703125
EXTRACT: note_off channel=9 note=39 velocity=0 time=0
EXTRACT: pitchwheel channel=2 pitch=-1024 time=0
EXTRACT: pitchwheel channel=2 pitch=0 time=0.019230416666666666
EXTRACT: note_off channel=14 note=46 velocity=0 time=0.00721140625
EXTRACT: note_off channel=12 note=58 velocity=0 time=0.012019010416666667
EXTRACT: note_off channel=12 note=62 velocity=0 time=0.0024038020833333333
EXTRACT: note_off channel=6 note=62 velocity=0 time=0.0024038020833333333
EXTRACT: note_off channel=12 note=53 velocity=0 time=0.004807604166666667
EXTRACT: note_off channel=6 note=58 velocity=0 time=0.0024038020833333333
EXTRACT: note_off channel=9 note=36 velocity=0 time=0.004807604166666667
EXTRACT: note_on channel=14 note=58 velocity=60 time=0.0024038020833333333
EXTRACT: note_off channel=6 note=65 velocity=0 time=0.0024038020833333333
EXTRACT: note_off channel=14 note=58 velocity=0 time=0.10336348958333333
EXTRACT: note_off channel=1 note=34 velocity=0 time=0.004807604166666667
EXTRACT: note_on channel=9 note=36 velocity=122 time=0.004807604166666667
EXTRACT: note_on channel=9 note=39 velocity=80 time=0
EXTRACT: note_on channel=9 note=40 velocity=78 time=0
EXTRACT: note_on channel=9 note=44 velocity=92 time=0
EXTRACT: note_on channel=1 note=29 velocity=76 time=0
EXTRACT: note_on channel=3 note=62 velocity=107 time=0
EXTRACT: note_on channel=4 note=74 velocity=97 time=0
EXTRACT: note_on channel=14 note=46 velocity=63 time=0
EXTRACT: note_off channel=3 note=63 velocity=0 time=0.054085546875
EXTRACT: note_off channel=4 note=75 velocity=0 time=0
EXTRACT: note_off channel=14 note=46 velocity=0 time=0.04447033854166667
EXTRACT: note_off channel=9 note=46 velocity=0 time=0.0144228125
EXTRACT: note_on channel=14 note=58 velocity=60 time=0.0024038020833333333
EXTRACT: note_off channel=14 note=58 velocity=0 time=0.09374828125
EXTRACT: note_off channel=1 note=29 velocity=0 time=0.016826614583333333
EXTRACT: note_on channel=9 note=46 velocity=63 time=0.004807604166666667
EXTRACT: note_on channel=1 note=27 velocity=91 time=0
EXTRACT: note_on channel=2 note=70 velocity=46 time=0
EXTRACT: note_on channel=3 note=63 velocity=107 time=0
EXTRACT: note_on channel=4 note=75 velocity=97 time=0
EXTRACT: note_on channel=6 note=58 velocity=111 time=0
EXTRACT: note_on channel=6 note=63 velocity=111 time=0
EXTRACT: note_on channel=6 note=68 velocity=115 time=0
EXTRACT: note_on channel=12 note=53 velocity=88 time=0
EXTRACT: note_on channel=12 note=58 velocity=78 time=0
EXTRACT: note_on channel=12 note=63 velocity=74 time=0
EXTRACT: note_on channel=14 note=46 velocity=62 time=0
EXTRACT: note_off channel=9 note=44 velocity=0 time=0.036057031249999996
EXTRACT: note_off channel=2 note=80 velocity=0 time=0.0024038020833333333
EXTRACT: note_off channel=3 note=62 velocity=0 time=0.015624713541666667
EXTRACT: note_off channel=4 note=74 velocity=0 time=0
EXTRACT: note_off channel=14 note=46 velocity=0 time=0.034855130208333335
EXTRACT: note_off channel=12 note=58 velocity=0 time=0.02163421875
EXTRACT: note_off channel=6 note=58 velocity=0 time=0.0024038020833333333
EXTRACT: note_off channel=9 note=36 velocity=0 time=0.0024038020833333333
EXTRACT: note_on channel=14 note=58 velocity=60 time=0
EXTRACT: note_off channel=12 note=63 velocity=0 time=0.00721140625
EXTRACT: note_off channel=12 note=53 velocity=0 time=0
EXTRACT: note_off channel=6 note=63 velocity=0 time=0.0024038020833333333
EXTRACT: note_off channel=6 note=68 velocity=0 time=0.016826614583333333
EXTRACT: note_off channel=14 note=58 velocity=0 time=0.06971026041666667
EXTRACT: note_on channel=9 note=36 velocity=125 time=0.019230416666666666
EXTRACT: note_on channel=9 note=44 velocity=85 time=0
EXTRACT: note_on channel=3 note=62 velocity=107 time=0
EXTRACT: note_on channel=4 note=74 velocity=97 time=0
EXTRACT: note_on channel=14 note=46 velocity=63 time=0
EXTRACT: note_off channel=3 note=63 velocity=0 time=0.036057031249999996
EXTRACT: note_off channel=4 note=75 velocity=0 time=0
EXTRACT: note_off channel=9 note=46 velocity=0 time=0.04086463541666667
EXTRACT: note_off channel=14 note=46 velocity=0 time=0.012019010416666667
EXTRACT: note_off channel=1 note=27 velocity=0 time=0.019230416666666666
EXTRACT: note_on channel=14 note=58 velocity=59 time=0.00721140625
EXTRACT: pitchwheel channel=2 pitch=-256 time=0.019230416666666666
EXTRACT: pitchwheel channel=2 pitch=-1408 time=0.02163421875
EXTRACT: pitchwheel channel=2 pitch=-2304 time=0.019230416666666666
EXTRACT: pitchwheel channel=2 pitch=-2816 time=0.019230416666666666
EXTRACT: pitchwheel channel=2 pitch=-2944 time=0.019230416666666666
EXTRACT: note_off channel=14 note=58 velocity=0 time=0.004807604166666667
EXTRACT: note_on channel=9 note=36 velocity=120 time=0.012019010416666667
EXTRACT: note_on channel=9 note=46 velocity=71 time=0
EXTRACT: note_on channel=1 note=27 velocity=95 time=0
EXTRACT: note_on channel=3 note=63 velocity=107 time=0
EXTRACT: note_on channel=4 note=75 velocity=97 time=0
EXTRACT: note_on channel=6 note=58 velocity=111 time=0
EXTRACT: note_on channel=6 note=63 velocity=111 time=0
EXTRACT: note_on channel=6 note=68 velocity=115 time=0
EXTRACT: note_on channel=12 note=53 velocity=85 time=0
EXTRACT: note_on channel=12 note=58 velocity=88 time=0
EXTRACT: note_on channel=12 note=63 velocity=88 time=0
EXTRACT: note_on channel=14 note=46 velocity=62 time=0
EXTRACT: pitchwheel channel=2 pitch=-2816 time=0.0024038020833333333
EXTRACT: pitchwheel channel=2 pitch=-2176 time=0.019230416666666666
EXTRACT: pitchwheel channel=2 pitch=-1536 time=0.019230416666666666
EXTRACT: note_off channel=9 note=40 velocity=0 time=0.012019010416666667
EXTRACT: note_off channel=3 note=62 velocity=0 time=0.0012019010416666667
EXTRACT: note_off channel=4 note=74 velocity=0 time=0
EXTRACT: note_off channel=9 note=39 velocity=0 time=0.0012019010416666667
EXTRACT: note_off channel=9 note=36 velocity=64 time=0.0024038020833333333
EXTRACT: pitchwheel channel=2 pitch=-768 time=0.0024038020833333333
EXTRACT: pitchwheel channel=2 pitch=0 time=0.019230416666666666
EXTRACT: note_off channel=9 note=36 velocity=0 time=0.00721140625
EXTRACT: note_off channel=9 note=44 velocity=0 time=0.0024038020833333333
EXTRACT: note_off channel=14 note=46 velocity=0 time=0.004807604166666667
EXTRACT: note_on channel=14 note=58 velocity=60 time=0.02163421875
EXTRACT: note_off channel=14 note=58 velocity=0 time=0.1009596875
EXTRACT: note_on channel=9 note=36 velocity=122 time=0.0144228125
EXTRACT: note_on channel=9 note=39 velocity=86 time=0
EXTRACT: note_on channel=9 note=40 velocity=86 time=0
EXTRACT: note_on channel=9 note=44 velocity=101 time=0
EXTRACT: note_on channel=3 note=62 velocity=107 time=0
EXTRACT: note_on channel=4 note=74 velocity=97 time=0
EXTRACT: note_on channel=14 note=46 velocity=63 time=0
EXTRACT: note_off channel=3 note=63 velocity=0 time=0.04206653645833333
EXTRACT: note_off channel=4 note=75 velocity=0 time=0
EXTRACT: note_off channel=14 note=46 velocity=0 time=0.049277942708333335
EXTRACT: note_off channel=9 note=46 velocity=0 time=0.012019010416666667
EXTRACT: note_on channel=14 note=58 velocity=60 time=0.012019010416666667
EXTRACT: note_off channel=12 note=58 velocity=0 time=0.0144228125
EXTRACT: note_off channel=9 note=36 velocity=0 time=0.0024038020833333333
EXTRACT: note_off channel=12 note=63 velocity=0 time=0.00721140625
EXTRACT: note_off channel=12 note=53 velocity=0 time=0
EXTRACT: note_off channel=2 note=70 velocity=0 time=0.03846083333333333
EXTRACT: note_off channel=14 note=58 velocity=0 time=0.033653229166666666
EXTRACT: note_off channel=1 note=27 velocity=0 time=0.016826614583333333
EXTRACT: note_on channel=9 note=36 velocity=122 time=0.0024038020833333333
EXTRACT: note_on channel=9 note=46 velocity=70 time=0
EXTRACT: note_on channel=1 note=31 velocity=85 time=0
EXTRACT: note_on channel=3 note=63 velocity=107 time=0
EXTRACT: note_on channel=4 note=75 velocity=97 time=0
EXTRACT: note_on channel=12 note=53 velocity=78 time=0
EXTRACT: note_on channel=12 note=58 velocity=80 time=0
EXTRACT: note_on channel=12 note=63 velocity=82 time=0
EXTRACT: note_on channel=14 note=46 velocity=62 time=0
EXTRACT: note_off channel=6 note=58 velocity=0 time=0.012019010416666667
EXTRACT: note_off channel=3 note=62 velocity=0 time=0.015624713541666667
EXTRACT: note_off channel=4 note=74 velocity=0 time=0
EXTRACT: note_off channel=6 note=63 velocity=0 time=0.010817109375
EXTRACT: note_off channel=9 note=39 velocity=0 time=0.019230416666666666
EXTRACT: note_off channel=9 note=40 velocity=0 time=0.004807604166666667
EXTRACT: note_off channel=6 note=68 velocity=0 time=0.0024038020833333333
EXTRACT: note_off channel=9 note=44 velocity=0 time=0.019230416666666666
EXTRACT: note_off channel=12 note=58 velocity=0 time=0.004807604166666667
EXTRACT: note_off channel=14 note=46 velocity=0 time=0.004807604166666667
EXTRACT: note_off channel=12 note=63 velocity=0 time=0.012019010416666667
EXTRACT: note_off channel=12 note=53 velocity=0 time=0
EXTRACT: note_on channel=14 note=58 velocity=61 time=0.009615208333333333
EXTRACT: note_off channel=9 note=36 velocity=0 time=0.02163421875
EXTRACT: note_off channel=9 note=46 velocity=0 time=0.02163421875
EXTRACT: note_off channel=1 note=31 velocity=0 time=0.031249427083333333
EXTRACT: note_off channel=3 note=63 velocity=0 time=0.016826614583333333
EXTRACT: note_off channel=4 note=75 velocity=0 time=0
EXTRACT: note_off channel=14 note=58 velocity=0 time=0.0024038020833333333
EXTRACT: note_on channel=9 note=36 velocity=125 time=0.02163421875
EXTRACT: note_on channel=9 note=44 velocity=111 time=0
EXTRACT: note_on channel=9 note=49 velocity=80 time=0
EXTRACT: note_on channel=9 note=57 velocity=89 time=0
EXTRACT: note_on channel=1 note=34 velocity=104 time=0
EXTRACT: note_on channel=2 note=80 velocity=64 time=0
EXTRACT: note_on channel=3 note=62 velocity=107 time=0
EXTRACT: note_on channel=4 note=74 velocity=97 time=0
EXTRACT: note_on channel=12 note=53 velocity=88 time=0
EXTRACT: note_on channel=12 note=58 velocity=78 time=0
EXTRACT: note_on channel=12 note=62 velocity=76 time=0
EXTRACT: note_on channel=14 note=46 velocity=65 time=0
EXTRACT: note_off channel=9 note=49 velocity=0 time=0.07692166666666667
EXTRACT: note_off channel=14 note=46 velocity=0 time=0.009615208333333333
EXTRACT: note_off channel=9 note=57 velocity=0 time=0.0024038020833333333
EXTRACT: note_off channel=12 note=58 velocity=0 time=0.00721140625
EXTRACT: note_off channel=9 note=36 velocity=0 time=0.00721140625
EXTRACT: note_off channel=12 note=62 velocity=0 time=0.009615208333333333
EXTRACT: note_on channel=14 note=58 velocity=61 time=0.0024038020833333333
EXTRACT: note_off channel=12 note=53 velocity=0 time=0.00721140625
EXTRACT: pitchwheel channel=2 pitch=-384 time=0.028845625
EXTRACT: pitchwheel channel=2 pitch=-1152 time=0.019230416666666666
EXTRACT: pitchwheel channel=2 pitch=-2048 time=0.019230416666666666
EXTRACT: pitchwheel channel=2 pitch=-2816 time=0.019230416666666666
EXTRACT: note_off channel=14 note=58 velocity=0 time=0.019230416666666666
EXTRACT: note_on channel=9 note=46 velocity=75 time=0.0024038020833333333
EXTRACT: pitchwheel channel=2 pitch=-3328 time=0
EXTRACT: note_on channel=3 note=63 velocity=107 time=0
EXTRACT: note_on channel=4 note=75 velocity=97 time=0
EXTRACT: note_on channel=14 note=46 velocity=63 time=0
EXTRACT: pitchwheel channel=2 pitch=-3456 time=0.019230416666666666
EXTRACT: note_off channel=9 note=44 velocity=0 time=0.00721140625
EXTRACT: note_off channel=3 note=62 velocity=0 time=0.02764372395833333
EXTRACT: note_off channel=4 note=74 velocity=0 time=0
EXTRACT: pitchwheel channel=2 pitch=-3200 time=0.003605703125
EXTRACT: note_off channel=14 note=46 velocity=0 time=0.0144228125
EXTRACT: pitchwheel channel=2 pitch=-2944 time=0.004807604166666667
EXTRACT: pitchwheel channel=2 pitch=-2176 time=0.019230416666666666
EXTRACT: pitchwheel channel=2 pitch=-1024 time=0.019230416666666666
EXTRACT: note_on channel=14 note=58 velocity=60 time=0
EXTRACT: pitchwheel channel=2 pitch=0 time=0.019230416666666666
EXTRACT: note_off channel=1 note=34 velocity=0 time=0.060095052083333336
EXTRACT: note_off channel=14 note=58 velocity=0 time=0.004807604166666667
EXTRACT: note_on channel=9 note=36 velocity=107 time=0.031249427083333333
EXTRACT: note_on channel=9 note=39 velocity=78 time=0
EXTRACT: note_on channel=9 note=40 velocity=74 time=0
EXTRACT: note_on channel=9 note=44 velocity=92 time=0
EXTRACT: note_on channel=1 note=29 velocity=73 time=0
EXTRACT: note_on channel=3 note=62 velocity=107 time=0
EXTRACT: note_on channel=4 note=74 velocity=97 time=0
EXTRACT: note_on channel=5 note=62 velocity=67 time=0
EXTRACT: note_on channel=5 note=65 velocity=76 time=0
EXTRACT: note_on channel=6 note=62 velocity=127 time=0
EXTRACT: note_on channel=6 note=65 velocity=127 time=0
EXTRACT: note_on channel=12 note=53 velocity=80 time=0
EXTRACT: note_on channel=12 note=58 velocity=73 time=0
EXTRACT: note_on channel=12 note=62 velocity=73 time=0
EXTRACT: note_on channel=14 note=46 velocity=63 time=0
EXTRACT: note_off channel=3 note=63 velocity=0 time=0.003605703125
EXTRACT: note_off channel=4 note=75 velocity=0 time=0
EXTRACT: note_off channel=14 note=46 velocity=0 time=0.082931171875
EXTRACT: note_off channel=12 note=62 velocity=0 time=0.016826614583333333
EXTRACT: note_off channel=3 note=62 velocity=0 time=0.004807604166666667
EXTRACT: note_off channel=4 note=74 velocity=0 time=0
EXTRACT: note_off channel=9 note=46 velocity=0 time=0.004807604166666667
EXTRACT: note_off channel=12 note=58 velocity=0 time=0
EXTRACT: note_on channel=14 note=58 velocity=60 time=0.0024038020833333333
EXTRACT: note_off channel=12 note=53 velocity=0 time=0.00721140625
EXTRACT: note_off channel=9 note=36 velocity=0 time=0.009615208333333333
EXTRACT: note_off channel=1 note=29 velocity=0 time=0.036057031249999996
EXTRACT: note_off channel=5 note=62 velocity=0 time=0.024038020833333333
EXTRACT: note_off channel=14 note=58 velocity=0 time=0.009615208333333333
EXTRACT: note_off channel=2 note=80 velocity=0 time=0.02163421875
EXTRACT: note_on channel=9 note=46 velocity=63 time=0.00721140625
EXTRACT: note_on channel=1 note=27 velocity=88 time=0
EXTRACT: note_on channel=2 note=70 velocity=46 time=0
EXTRACT: note_on channel=3 note=63 velocity=107 time=0
EXTRACT: note_on channel=4 note=75 velocity=97 time=0
EXTRACT: note_on channel=5 note=63 velocity=76 time=0
EXTRACT: note_on channel=5 note=68 velocity=70 time=0
EXTRACT: note_on channel=6 note=63 velocity=115 time=0
EXTRACT: note_on channel=6 note=68 velocity=108 time=0
EXTRACT: note_on channel=12 note=53 velocity=76 time=0
EXTRACT: note_on channel=12 note=58 velocity=74 time=0
EXTRACT: note_on channel=12 note=63 velocity=74 time=0
EXTRACT: note_on channel=14 note=46 velocity=61 time=0
EXTRACT: note_off channel=6 note=62 velocity=0 time=0.0144228125
EXTRACT: note_off channel=9 note=44 velocity=0 time=0.02163421875
EXTRACT: note_off channel=5 note=65 velocity=0 time=0.004807604166666667
EXTRACT: note_off channel=14 note=46 velocity=0 time=0.04567223958333333
EXTRACT: note_off channel=6 note=65 velocity=0 time=0.009615208333333333
EXTRACT: note_off channel=6 note=63 velocity=0 time=0.004807604166666667
EXTRACT: note_off channel=5 note=63 velocity=0 time=0.00721140625
EXTRACT: note_off channel=12 note=53 velocity=0 time=0.004807604166666667
EXTRACT: note_off channel=6 note=68 velocity=0 time=0.0024038020833333333
EXTRACT: note_on channel=14 note=58 velocity=60 time=0
EXTRACT: note_off channel=5 note=68 velocity=0 time=0.0024038020833333333
EXTRACT: note_off channel=12 note=58 velocity=0 time=0.0144228125
EXTRACT: note_off channel=12 note=63 velocity=0 time=0.012019010416666667
EXTRACT: note_off channel=14 note=58 velocity=0 time=0.05528744791666666
EXTRACT: note_on channel=9 note=36 velocity=93 time=0.031249427083333333
EXTRACT: note_on channel=9 note=44 velocity=85 time=0
EXTRACT: note_on channel=3 note=62 velocity=107 time=0
EXTRACT: note_on channel=4 note=74 velocity=97 time=0
EXTRACT: note_on channel=14 note=46 velocity=62 time=0
EXTRACT: note_off channel=3 note=63 velocity=0 time=0.054085546875
EXTRACT: note_off channel=4 note=75 velocity=0 time=0
EXTRACT: note_off channel=9 note=46 velocity=0 time=0.022836119791666665
EXTRACT: pitchwheel channel=2 pitch=-512 time=0.0024038020833333333
EXTRACT: note_off channel=14 note=46 velocity=0 time=0.012019010416666667
EXTRACT: pitchwheel channel=2 pitch=-1408 time=0.00721140625
EXTRACT: note_on channel=14 note=58 velocity=60 time=0.016826614583333333
EXTRACT: pitchwheel channel=2 pitch=-2304 time=0.0024038020833333333
EXTRACT: pitchwheel channel=2 pitch=-2816 time=0.019230416666666666
EXTRACT: note_off channel=3 note=62 velocity=0 time=0.0012019010416666667
EXTRACT: note_off channel=4 note=74 velocity=0 time=0
EXTRACT: pitchwheel channel=2 pitch=-3072 time=0.018028515624999998
EXTRACT: pitchwheel channel=2 pitch=-2944 time=0.019230416666666666
EXTRACT: note_off channel=1 note=27 velocity=0 time=0.004807604166666667
EXTRACT: pitchwheel channel=2 pitch=-2432 time=0.0144228125
EXTRACT: note_off channel=14 note=58 velocity=0 time=0.012019010416666667
EXTRACT: pitchwheel channel=2 pitch=-1664 time=0.00721140625
EXTRACT: note_on channel=9 note=36 velocity=120 time=0.016826614583333333
EXTRACT: note_on channel=9 note=46 velocity=71 time=0
EXTRACT: note_on channel=1 note=27 velocity=95 time=0
EXTRACT: note_on channel=3 note=63 velocity=107 time=0
EXTRACT: note_on channel=4 note=75 velocity=97 time=0
EXTRACT: note_on channel=5 note=63 velocity=64 time=0
EXTRACT: note_on channel=5 note=68 velocity=69 time=0
EXTRACT: note_on channel=6 note=63 velocity=124 time=0
EXTRACT: note_on channel=6 note=68 velocity=115 time=0
EXTRACT: note_on channel=12 note=53 velocity=71 time=0
EXTRACT: note_on channel=12 note=58 velocity=78 time=0
EXTRACT: note_on channel=12 note=63 velocity=78 time=0
EXTRACT: note_on channel=14 note=46 velocity=61 time=0
EXTRACT: pitchwheel channel=2 pitch=-768 time=0.0024038020833333333
EXTRACT: pitchwheel channel=2 pitch=0 time=0.019230416666666666
EXTRACT: note_off channel=9 note=36 velocity=0 time=0.00721140625
EXTRACT: note_off channel=9 note=36 velocity=64 time=0.028845625
EXTRACT: note_off channel=9 note=44 velocity=0 time=0.031249427083333333
EXTRACT: note_off channel=14 note=46 velocity=0 time=0.0024038020833333333
EXTRACT: note_off channel=9 note=39 velocity=0 time=0.0024038020833333333
EXTRACT: note_off channel=9 note=40 velocity=0 time=0.009615208333333333
EXTRACT: note_on channel=14 note=58 velocity=60 time=0.012019010416666667
EXTRACT: note_off channel=14 note=58 velocity=0 time=0.09374828125
EXTRACT: note_on channel=9 note=36 velocity=125 time=0.02163421875
EXTRACT: note_on channel=9 note=39 velocity=62 time=0
EXTRACT: note_on channel=9 note=40 velocity=66 time=0
EXTRACT: note_on channel=9 note=44 velocity=101 time=0
EXTRACT: note_on channel=3 note=62 velocity=107 time=0
EXTRACT: note_on channel=4 note=74 velocity=97 time=0
EXTRACT: note_on channel=14 note=46 velocity=63 time=0
EXTRACT: note_off channel=3 note=63 velocity=0 time=0.054085546875
EXTRACT: note_off channel=4 note=75 velocity=0 time=0
EXTRACT: note_off channel=14 note=46 velocity=0 time=0.04206653645833333
EXTRACT: note_off channel=9 note=46 velocity=0 time=0.00721140625
EXTRACT: note_off channel=12 note=53 velocity=0 time=0.004807604166666667
EXTRACT: note_on channel=14 note=58 velocity=60 time=0.00721140625
EXTRACT: note_off channel=12 note=58 velocity=0 time=0.00721140625
EXTRACT: note_off channel=3 note=62 velocity=0 time=0.003605703125
EXTRACT: note_off channel=4 note=74 velocity=0 time=0
EXTRACT: note_off channel=12 note=63 velocity=0 time=0.010817109375
EXTRACT: note_off channel=14 note=58 velocity=0 time=0.07932546875
EXTRACT: note_off channel=1 note=27 velocity=0 time=0.012019010416666667
EXTRACT: note_on channel=9 note=46 velocity=70 time=0.0024038020833333333
EXTRACT: note_on channel=1 note=31 velocity=62 time=0
EXTRACT: note_on channel=3 note=63 velocity=107 time=0
EXTRACT: note_on channel=4 note=75 velocity=97 time=0
EXTRACT: note_on channel=12 note=53 velocity=71 time=0
EXTRACT: note_on channel=12 note=58 velocity=73 time=0
EXTRACT: note_on channel=12 note=63 velocity=68 time=0
EXTRACT: note_on channel=14 note=46 velocity=63 time=0
EXTRACT: note_off channel=6 note=63 velocity=0 time=0.06490265625
EXTRACT: note_off channel=6 note=68 velocity=0 time=0.009615208333333333
EXTRACT: note_off channel=9 note=44 velocity=0 time=0.009615208333333333
EXTRACT: note_off channel=9 note=36 velocity=0 time=0.0024038020833333333
EXTRACT: note_off channel=14 note=46 velocity=0 time=0.00721140625
EXTRACT: note_on channel=14 note=58 velocity=59 time=0.02163421875
EXTRACT: note_off channel=5 note=63 velocity=0 time=0.0024038020833333333
EXTRACT: note_off channel=12 note=53 velocity=0 time=0.004807604166666667
EXTRACT: note_off channel=5 note=68 velocity=0 time=0.004807604166666667
EXTRACT: note_off channel=12 note=58 velocity=0 time=0.00721140625
EXTRACT: note_off channel=9 note=46 velocity=0 time=0.024038020833333333
EXTRACT: note_off channel=12 note=63 velocity=0 time=0.004807604166666667
EXTRACT: note_off channel=1 note=31 velocity=0 time=0.016826614583333333
EXTRACT: note_off channel=14 note=58 velocity=0 time=0.036057031249999996
EXTRACT: note_on channel=9 note=36 velocity=118 time=0.0144228125
EXTRACT: note_on channel=9 note=44 velocity=111 time=0
EXTRACT: note_on channel=1 note=34 velocity=82 time=0
EXTRACT: note_on channel=2 note=80 velocity=43 time=0
EXTRACT: note_on channel=3 note=62 velocity=107 time=0
EXTRACT: note_on channel=4 note=74 velocity=97 time=0
EXTRACT: note_on channel=12 note=53 velocity=74 time=0
EXTRACT: note_on channel=12 note=58 velocity=73 time=0
EXTRACT: note_on channel=12 note=62 velocity=71 time=0
EXTRACT: note_on channel=14 note=46 velocity=63 time=0
EXTRACT: note_off channel=2 note=70 velocity=0 time=0.028845625
EXTRACT: note_off channel=3 note=63 velocity=0 time=0.025239921875
EXTRACT: note_off channel=4 note=75 velocity=0 time=0
EXTRACT: note_off channel=12 note=58 velocity=0 time=0.039662734375
EXTRACT: note_off channel=14 note=46 velocity=0 time=0
EXTRACT: note_off channel=12 note=62 velocity=0 time=0.012019010416666667
EXTRACT: note_off channel=12 note=53 velocity=0 time=0.004807604166666667
EXTRACT: note_on channel=14 note=58 velocity=60 time=0.004807604166666667
EXTRACT: note_off channel=3 note=62 velocity=0 time=0.025239921875
EXTRACT: note_off channel=4 note=74 velocity=0 time=0
EXTRACT: note_off channel=2 note=80 velocity=0 time=0.039662734375
EXTRACT: note_off channel=14 note=58 velocity=0 time=0.04086463541666667
EXTRACT: note_on channel=9 note=46 velocity=75 time=0.009615208333333333
EXTRACT: note_on channel=2 note=80 velocity=46 time=0
EXTRACT: note_on channel=3 note=63 velocity=107 time=0
EXTRACT: note_on channel=4 note=75 velocity=97 time=0
EXTRACT: note_on channel=5 note=65 velocity=66 time=0
EXTRACT: note_on channel=5 note=70 velocity=67 time=0
EXTRACT: note_on channel=6 note=62 velocity=118 time=0
EXTRACT: note_on channel=6 note=65 velocity=127 time=0
EXTRACT: note_on channel=14 note=46 velocity=62 time=0
EXTRACT: note_off channel=9 note=44 velocity=0 time=0.026441822916666666
EXTRACT: note_off channel=9 note=36 velocity=0 time=0.05047984375
EXTRACT: note_off channel=5 note=70 velocity=0 time=0
EXTRACT: note_off channel=5 note=65 velocity=0 time=0.00721140625
EXTRACT: note_off channel=14 note=46 velocity=0 time=0
EXTRACT: note_off channel=9 note=40 velocity=0 time=0.012019010416666667
EXTRACT: note_off channel=9 note=39 velocity=0 time=0.009615208333333333
EXTRACT: note_on channel=14 note=58 velocity=60 time=0.009615208333333333
EXTRACT: note_off channel=6 note=65 velocity=0 time=0.009615208333333333
EXTRACT: note_off channel=6 note=62 velocity=0 time=0.009615208333333333
EXTRACT: note_off channel=14 note=58 velocity=0 time=0.086536875
EXTRACT: note_off channel=1 note=34 velocity=0 time=0.004807604166666667
EXTRACT: note_on channel=9 note=36 velocity=118 time=0.004807604166666667
EXTRACT: note_on channel=9 note=39 velocity=66 time=0
EXTRACT: note_on channel=9 note=40 velocity=74 time=0
EXTRACT: note_on channel=9 note=44 velocity=92 time=0
EXTRACT: note_on channel=1 note=29 velocity=76 time=0
EXTRACT: note_on channel=3 note=62 velocity=107 time=0
EXTRACT: note_on channel=4 note=74 velocity=97 time=0
EXTRACT: note_on channel=5 note=65 velocity=74 time=0
EXTRACT: note_on channel=5 note=70 velocity=76 time=0
EXTRACT: note_on channel=6 note=62 velocity=102 time=0
EXTRACT: note_on channel=6 note=65 velocity=118 time=0
EXTRACT: note_on channel=12 note=53 velocity=82 time=0
EXTRACT: note_on channel=12 note=58 velocity=78 time=0
EXTRACT: note_on channel=12 note=62 velocity=73 time=0
EXTRACT: note_on channel=14 note=46 velocity=63 time=0
EXTRACT: note_off channel=3 note=63 velocity=0 time=0.054085546875
EXTRACT: note_off channel=4 note=75 velocity=0 time=0
EXTRACT: note_off channel=14 note=46 velocity=0 time=0.04447033854166667
EXTRACT: note_off channel=9 note=46 velocity=0 time=0.0144228125
EXTRACT: note_on channel=14 note=58 velocity=60 time=0.0024038020833333333
EXTRACT: note_off channel=3 note=62 velocity=0 time=0.013220911458333333
EXTRACT: note_off channel=4 note=74 velocity=0 time=0
EXTRACT: note_off channel=6 note=65 velocity=0 time=0.010817109375
EXTRACT: note_off channel=6 note=62 velocity=0 time=0.004807604166666667
EXTRACT: note_off channel=5 note=65 velocity=0 time=0.0024038020833333333
EXTRACT: note_off channel=12 note=62 velocity=0 time=0.0024038020833333333
EXTRACT: note_off channel=12 note=58 velocity=0 time=0
EXTRACT: note_off channel=12 note=53 velocity=0 time=0
EXTRACT: note_off channel=5 note=70 velocity=0 time=0.019230416666666666
EXTRACT: note_off channel=14 note=58 velocity=0 time=0.04086463541666667
EXTRACT: note_off channel=1 note=29 velocity=0 time=0.016826614583333333
EXTRACT: note_on channel=9 note=46 velocity=63 time=0.004807604166666667
EXTRACT: note_on channel=1 note=27 velocity=91 time=0
EXTRACT: note_on channel=2 note=70 velocity=43 time=0
EXTRACT: note_on channel=3 note=63 velocity=107 time=0
EXTRACT: note_on channel=4 note=75 velocity=97 time=0
EXTRACT: note_on channel=5 note=63 velocity=74 time=0
EXTRACT: note_on channel=5 note=68 velocity=69 time=0
EXTRACT: note_on channel=6 note=63 velocity=115 time=0
EXTRACT: note_on channel=6 note=65 velocity=96 time=0
EXTRACT: note_on channel=6 note=68 velocity=115 time=0
EXTRACT: note_on channel=12 note=53 velocity=82 time=0
EXTRACT: note_on channel=12 note=58 velocity=80 time=0
EXTRACT: note_on channel=12 note=63 velocity=80 time=0
EXTRACT: note_on channel=14 note=46 velocity=62 time=0
EXTRACT: note_off channel=9 note=44 velocity=0 time=0.036057031249999996
EXTRACT: note_off channel=2 note=80 velocity=0 time=0.004807604166666667
EXTRACT: note_off channel=6 note=65 velocity=0 time=0.00721140625
EXTRACT: note_off channel=14 note=46 velocity=0 time=0.04086463541666667
EXTRACT: note_on channel=14 note=58 velocity=60 time=0.026441822916666666
EXTRACT: note_off channel=5 note=68 velocity=0 time=0.0024038020833333333
EXTRACT: note_off channel=6 note=63 velocity=0 time=0
EXTRACT: note_off channel=12 note=58 velocity=0 time=0.016826614583333333
EXTRACT: note_off channel=12 note=63 velocity=0 time=0.004807604166666667
EXTRACT: note_off channel=9 note=36 velocity=0 time=0.0024038020833333333
EXTRACT: note_off channel=5 note=63 velocity=0 time=0
EXTRACT: note_off channel=6 note=68 velocity=0 time=0
EXTRACT: note_off channel=12 note=53 velocity=0 time=0.00721140625
EXTRACT: note_off channel=14 note=58 velocity=0 time=0.062498854166666666
EXTRACT: note_on channel=9 note=36 velocity=125 time=0.019230416666666666
EXTRACT: note_on channel=9 note=44 velocity=85 time=0
EXTRACT: note_on channel=3 note=62 velocity=107 time=0
EXTRACT: note_on channel=4 note=74 velocity=97 time=0
EXTRACT: note_on channel=14 note=46 velocity=63 time=0
EXTRACT: pitchwheel channel=2 pitch=-1024 time=0.028845625
EXTRACT: pitchwheel channel=2 pitch=-2176 time=0.019230416666666666
EXTRACT: note_off channel=3 note=63 velocity=0 time=0.006009505208333333
EXTRACT: note_off channel=4 note=75 velocity=0 time=0
EXTRACT: pitchwheel channel=2 pitch=-2944 time=0.013220911458333333
EXTRACT: note_off channel=9 note=46 velocity=0 time=0.009615208333333333
EXTRACT: pitchwheel channel=2 pitch=-3072 time=0.009615208333333333
EXTRACT: note_off channel=14 note=46 velocity=0 time=0.0024038020833333333
EXTRACT: pitchwheel channel=2 pitch=-2816 time=0.016826614583333333
EXTRACT: note_off channel=1 note=27 velocity=0 time=0.0024038020833333333
EXTRACT: note_on channel=14 note=58 velocity=59 time=0.00721140625
EXTRACT: note_off channel=3 note=62 velocity=0 time=0.00721140625
EXTRACT: note_off channel=4 note=74 velocity=0 time=0
EXTRACT: pitchwheel channel=2 pitch=-1920 time=0.0024038020833333333
EXTRACT: pitchwheel channel=2 pitch=-1024 time=0.019230416666666666
EXTRACT: pitchwheel channel=2 pitch=0 time=0.019230416666666666
EXTRACT: note_off channel=14 note=58 velocity=0 time=0.05528744791666666
EXTRACT: note_on channel=9 note=36 velocity=120 time=0.012019010416666667
EXTRACT: note_on channel=9 note=46 velocity=71 time=0
EXTRACT: note_on channel=1 note=27 velocity=95 time=0
EXTRACT: note_on channel=3 note=63 velocity=107 time=0
EXTRACT: note_on channel=4 note=75 velocity=97 time=0
EXTRACT: note_on channel=5 note=63 velocity=63 time=0
EXTRACT: note_on channel=5 note=68 velocity=67 time=0
EXTRACT: note_on channel=6 note=63 velocity=127 time=0
EXTRACT: note_on channel=6 note=68 velocity=115 time=0
EXTRACT: note_on channel=12 note=53 velocity=80 time=0
EXTRACT: note_on channel=12 note=58 velocity=78 time=0
EXTRACT: note_on channel=12 note=63 velocity=80 time=0
EXTRACT: note_on channel=14 note=46 velocity=62 time=0
EXTRACT: note_off channel=9 note=36 velocity=64 time=0.05769125
EXTRACT: note_off channel=9 note=44 velocity=0 time=0.031249427083333333
EXTRACT: note_off channel=9 note=39 velocity=0 time=0.0024038020833333333
EXTRACT: note_off channel=9 note=40 velocity=0 time=0.0024038020833333333
EXTRACT: note_off channel=14 note=46 velocity=0 time=0
EXTRACT: note_off channel=9 note=36 velocity=0 time=0.019230416666666666
EXTRACT: note_on channel=14 note=58 velocity=60 time=0.0024038020833333333
EXTRACT: note_off channel=14 note=58 velocity=0 time=0.1009596875
EXTRACT: note_on channel=9 note=36 velocity=122 time=0.0144228125
EXTRACT: note_on channel=9 note=39 velocity=65 time=0
EXTRACT: note_on channel=9 note=40 velocity=63 time=0
EXTRACT: note_on channel=9 note=44 velocity=101 time=0
EXTRACT: note_on channel=3 note=62 velocity=107 time=0
EXTRACT: note_on channel=4 note=74 velocity=97 time=0
EXTRACT: note_on channel=14 note=46 velocity=63 time=0
EXTRACT: note_off channel=3 note=63 velocity=0 time=0.054085546875
EXTRACT: note_off channel=4 note=75 velocity=0 time=0
EXTRACT: note_off channel=14 note=46 velocity=0 time=0.037258932291666665
EXTRACT: note_off channel=9 note=46 velocity=0 time=0.012019010416666667
EXTRACT: note_on channel=14 note=58 velocity=60 time=0.012019010416666667
EXTRACT: note_off channel=5 note=63 velocity=0 time=0.012019010416666667
EXTRACT: note_off channel=3 note=62 velocity=0 time=0.00721140625
EXTRACT: note_off channel=4 note=74 velocity=0 time=0
EXTRACT: note_off channel=5 note=68 velocity=0 time=0.0024038020833333333
EXTRACT: note_off channel=14 note=58 velocity=0 time=0.07451786458333333
EXTRACT: note_off channel=1 note=27 velocity=0 time=0.016826614583333333
EXTRACT: note_on channel=9 note=46 velocity=70 time=0.0024038020833333333
EXTRACT: note_on channel=1 note=31 velocity=85 time=0
EXTRACT: note_on channel=3 note=63 velocity=107 time=0
EXTRACT: note_on channel=4 note=75 velocity=97 time=0
EXTRACT: note_on channel=14 note=46 velocity=62 time=0
EXTRACT: note_off channel=12 note=58 velocity=0 time=0.0144228125
EXTRACT: note_off channel=12 note=63 velocity=0 time=0.00721140625
EXTRACT: note_off channel=12 note=53 velocity=0 time=0.004807604166666667
EXTRACT: note_off channel=6 note=63 velocity=0 time=0.019230416666666666
EXTRACT: note_off channel=6 note=68 velocity=0 time=0.02163421875
EXTRACT: note_off channel=9 note=44 velocity=0 time=0.016826614583333333
EXTRACT: note_off channel=14 note=46 velocity=0 time=0.009615208333333333
EXTRACT: note_on channel=14 note=58 velocity=61 time=0.02163421875
EXTRACT: note_off channel=9 note=36 velocity=0 time=0.0024038020833333333
EXTRACT: note_off channel=9 note=46 velocity=0 time=0.04086463541666667
EXTRACT: note_off channel=1 note=31 velocity=0 time=0.031249427083333333
EXTRACT: note_off channel=14 note=58 velocity=0 time=0.019230416666666666
EXTRACT: note_on channel=9 note=36 velocity=118 time=0.02163421875
EXTRACT: note_on channel=9 note=44 velocity=111 time=0
EXTRACT: note_on channel=1 note=34 velocity=104 time=0
EXTRACT: note_on channel=3 note=62 velocity=107 time=0
EXTRACT: note_on channel=4 note=74 velocity=97 time=0
EXTRACT: note_on channel=14 note=46 velocity=65 time=0
EXTRACT: note_off channel=3 note=63 velocity=0 time=0.054085546875
EXTRACT: note_off channel=4 note=75 velocity=0 time=0
EXTRACT: note_off channel=14 note=46 velocity=0 time=0.032451328125
EXTRACT: note_on channel=14 note=58 velocity=61 time=0.028845625
EXTRACT: note_off channel=3 note=62 velocity=0 time=0.037258932291666665
EXTRACT: note_off channel=4 note=74 velocity=0 time=0
EXTRACT: note_off channel=2 note=70 velocity=0 time=0.06370075520833333
EXTRACT: note_off channel=14 note=58 velocity=0 time=0.012019010416666667
EXTRACT: note_on channel=9 note=46 velocity=75 time=0.0024038020833333333
EXTRACT: note_on channel=2 note=80 velocity=59 time=0
EXTRACT: note_on channel=3 note=63 velocity=107 time=0
EXTRACT: note_on channel=4 note=75 velocity=97 time=0
EXTRACT: note_on channel=12 note=53 velocity=85 time=0
EXTRACT: note_on channel=12 note=58 velocity=80 time=0
EXTRACT: note_on channel=12 note=62 velocity=76 time=0
EXTRACT: note_on channel=14 note=46 velocity=63 time=0
EXTRACT: note_off channel=9 note=44 velocity=0 time=0.026441822916666666
EXTRACT: note_off channel=9 note=39 velocity=0 time=0.04086463541666667
EXTRACT: note_off channel=14 note=46 velocity=0 time=0.004807604166666667
EXTRACT: note_off channel=9 note=40 velocity=0 time=0.0024038020833333333
EXTRACT: note_off channel=12 note=58 velocity=0 time=0.019230416666666666
EXTRACT: note_off channel=9 note=36 velocity=0 time=0.00721140625
EXTRACT: note_off channel=12 note=62 velocity=0 time=0
EXTRACT: note_off channel=12 note=53 velocity=0 time=0.0144228125
EXTRACT: note_on channel=14 note=58 velocity=60 time=0
EXTRACT: note_off channel=1 note=34 velocity=0 time=0.07932546875
EXTRACT: note_off channel=14 note=58 velocity=0 time=0.004807604166666667
EXTRACT: note_off channel=3 note=63 velocity=0 time=0.00721140625
EXTRACT: note_off channel=4 note=75 velocity=0 time=0
EXTRACT: note_on channel=9 note=36 velocity=118 time=0.024038020833333333
EXTRACT: note_on channel=9 note=39 velocity=62 time=0
EXTRACT: note_on channel=9 note=40 velocity=63 time=0
EXTRACT: note_on channel=9 note=44 velocity=92 time=0
EXTRACT: note_on channel=1 note=29 velocity=73 time=0
EXTRACT: note_on channel=3 note=62 velocity=107 time=0
EXTRACT: note_on channel=4 note=74 velocity=97 time=0
EXTRACT: note_on channel=5 note=62 velocity=67 time=0
EXTRACT: note_on channel=5 note=65 velocity=76 time=0
EXTRACT: note_on channel=6 note=62 velocity=127 time=0
EXTRACT: note_on channel=6 note=65 velocity=127 time=0
EXTRACT: note_on channel=14 note=46 velocity=63 time=0
EXTRACT: pitchwheel channel=2 pitch=-384 time=0.031249427083333333
EXTRACT: pitchwheel channel=2 pitch=-1536 time=0.019230416666666666
EXTRACT: pitchwheel channel=2 pitch=-2432 time=0.019230416666666666
EXTRACT: note_off channel=14 note=46 velocity=0 time=0.016826614583333333
EXTRACT: pitchwheel channel=2 pitch=-3328 time=0.0024038020833333333
EXTRACT: pitchwheel channel=2 pitch=-3712 time=0.019230416666666666
EXTRACT: note_off channel=9 note=46 velocity=0 time=0.004807604166666667
EXTRACT: note_on channel=14 note=58 velocity=60 time=0.0024038020833333333
EXTRACT: pitchwheel channel=2 pitch=-3584 time=0.012019010416666667
EXTRACT: pitchwheel channel=2 pitch=-3072 time=0.019230416666666666
EXTRACT: pitchwheel channel=2 pitch=-2560 time=0.019230416666666666
EXTRACT: note_off channel=1 note=29 velocity=0 time=0.0024038020833333333
EXTRACT: pitchwheel channel=2 pitch=-1920 time=0.019230416666666666
EXTRACT: note_off channel=5 note=62 velocity=0 time=0.004807604166666667
EXTRACT: note_off channel=14 note=58 velocity=0 time=0.009615208333333333
EXTRACT: pitchwheel channel=2 pitch=0 time=0.0024038020833333333
EXTRACT: note_on channel=9 note=46 velocity=63 time=0.026441822916666666
EXTRACT: note_on channel=1 note=27 velocity=88 time=0
EXTRACT: note_on channel=3 note=63 velocity=107 time=0
EXTRACT: note_on channel=4 note=75 velocity=97 time=0
EXTRACT: note_on channel=5 note=63 velocity=76 time=0
EXTRACT: note_on channel=5 note=68 velocity=70 time=0
EXTRACT: note_on channel=6 note=63 velocity=115 time=0
EXTRACT: note_on channel=6 note=68 velocity=108 time=0
EXTRACT: note_on channel=12 note=53 velocity=80 time=0
EXTRACT: note_on channel=12 note=58 velocity=78 time=0
EXTRACT: note_on channel=12 note=62 velocity=68 time=0
EXTRACT: note_on channel=14 note=46 velocity=61 time=0
EXTRACT: note_off channel=3 note=62 velocity=0 time=0.003605703125
EXTRACT: note_off channel=4 note=74 velocity=0 time=0
EXTRACT: note_off channel=6 note=62 velocity=0 time=0.010817109375
EXTRACT: note_off channel=9 note=44 velocity=0 time=0.02163421875
EXTRACT: note_off channel=5 note=65 velocity=0 time=0.004807604166666667
EXTRACT: note_off channel=12 note=62 velocity=0 time=0.04086463541666667
EXTRACT: note_off channel=12 note=58 velocity=0 time=0.0024038020833333333
EXTRACT: note_off channel=14 note=46 velocity=0 time=0.0024038020833333333
EXTRACT: note_off channel=6 note=65 velocity=0 time=0.009615208333333333
EXTRACT: note_off channel=12 note=53 velocity=0 time=0.0024038020833333333
EXTRACT: note_off channel=6 note=63 velocity=0 time=0.0024038020833333333
EXTRACT: note_off channel=5 note=63 velocity=0 time=0.00721140625
EXTRACT: note_off channel=6 note=68 velocity=0 time=0.00721140625
EXTRACT: note_on channel=14 note=58 velocity=60 time=0
EXTRACT: note_off channel=5 note=68 velocity=0 time=0.0024038020833333333
EXTRACT: note_off channel=9 note=36 velocity=0 time=0.019230416666666666
EXTRACT: note_off channel=14 note=58 velocity=0 time=0.062498854166666666
EXTRACT: note_off channel=2 note=80 velocity=0 time=0.02163421875
EXTRACT: note_on channel=9 note=36 velocity=125 time=0.009615208333333333
EXTRACT: note_on channel=9 note=44 velocity=85 time=0
EXTRACT: note_on channel=2 note=70 velocity=37 time=0
EXTRACT: note_on channel=3 note=62 velocity=107 time=0
EXTRACT: note_on channel=4 note=74 velocity=97 time=0
EXTRACT: note_on channel=12 note=53 velocity=85 time=0
EXTRACT: note_on channel=12 note=58 velocity=82 time=0
EXTRACT: note_on channel=12 note=63 velocity=82 time=0
EXTRACT: note_on channel=14 note=46 velocity=62 time=0
EXTRACT: note_off channel=3 note=63 velocity=0 time=0.054085546875
EXTRACT: note_off channel=4 note=75 velocity=0 time=0
EXTRACT: note_off channel=9 note=46 velocity=0 time=0.022836119791666665
EXTRACT: note_off channel=14 note=46 velocity=0 time=0.0144228125
EXTRACT: note_on channel=14 note=58 velocity=60 time=0.024038020833333333
EXTRACT: note_off channel=3 note=62 velocity=0 time=0.019230416666666666
EXTRACT: note_off channel=4 note=74 velocity=0 time=0
EXTRACT: note_off channel=1 note=27 velocity=0 time=0.04567223958333333
EXTRACT: note_off channel=12 note=58 velocity=0 time=0.0144228125
EXTRACT: note_off channel=14 note=58 velocity=0 time=0.012019010416666667
EXTRACT: note_off channel=12 note=63 velocity=0 time=0.004807604166666667
EXTRACT: note_on channel=9 note=36 velocity=120 time=0.019230416666666666
EXTRACT: note_on channel=9 note=46 velocity=71 time=0
EXTRACT: note_on channel=1 note=27 velocity=95 time=0
EXTRACT: note_on channel=3 note=63 velocity=107 time=0
EXTRACT: note_on channel=4 note=75 velocity=97 time=0
EXTRACT: note_on channel=5 note=63 velocity=64 time=0
EXTRACT: note_on channel=5 note=68 velocity=69 time=0
EXTRACT: note_on channel=6 note=63 velocity=124 time=0
EXTRACT: note_on channel=6 note=68 velocity=115 time=0
EXTRACT: note_on channel=14 note=46 velocity=61 time=0
EXTRACT: note_off channel=9 note=36 velocity=64 time=0.05769125
EXTRACT: note_off channel=12 note=53 velocity=0 time=0.0024038020833333333
EXTRACT: note_off channel=9 note=44 velocity=0 time=0.028845625
EXTRACT: note_off channel=9 note=40 velocity=0 time=0.0024038020833333333
EXTRACT: note_off channel=14 note=46 velocity=0 time=0
EXTRACT: note_off channel=9 note=36 velocity=0 time=0.0024038020833333333
EXTRACT: note_off channel=9 note=39 velocity=0 time=0
EXTRACT: note_on channel=14 note=58 velocity=60 time=0.02163421875
EXTRACT: note_off channel=14 note=58 velocity=0 time=0.09374828125
EXTRACT: note_on channel=9 note=36 velocity=125 time=0.02163421875
EXTRACT: note_on channel=9 note=39 velocity=66 time=0
EXTRACT: note_on channel=9 note=40 velocity=65 time=0
EXTRACT: note_on channel=9 note=44 velocity=101 time=0
EXTRACT: note_on channel=3 note=62 velocity=107 time=0
EXTRACT: note_on channel=4 note=74 velocity=97 time=0
EXTRACT: note_on channel=12 note=53 velocity=82 time=0
EXTRACT: note_on channel=12 note=58 velocity=88 time=0
EXTRACT: note_on channel=12 note=63 velocity=82 time=0
EXTRACT: note_on channel=14 note=46 velocity=63 time=0
EXTRACT: note_off channel=3 note=63 velocity=0 time=0.054085546875
EXTRACT: note_off channel=4 note=75 velocity=0 time=0
EXTRACT: note_off channel=14 note=46 velocity=0 time=0.04206653645833333
EXTRACT: note_off channel=9 note=46 velocity=0 time=0.00721140625
EXTRACT: note_on channel=14 note=58 velocity=60 time=0.012019010416666667
EXTRACT: note_off channel=3 note=62 velocity=0 time=0.010817109375
EXTRACT: note_off channel=4 note=74 velocity=0 time=0
EXTRACT: note_off channel=12 note=53 velocity=0 time=0.032451328125
EXTRACT: note_off channel=12 note=58 velocity=0 time=0.04086463541666667
EXTRACT: note_off channel=12 note=63 velocity=0 time=0.016826614583333333
EXTRACT: note_off channel=14 note=58 velocity=0 time=0
EXTRACT: note_off channel=1 note=27 velocity=0 time=0.012019010416666667
EXTRACT: note_on channel=9 note=46 velocity=70 time=0.0024038020833333333
EXTRACT: note_on channel=1 note=31 velocity=62 time=0
EXTRACT: note_on channel=3 note=63 velocity=107 time=0
EXTRACT: note_on channel=4 note=75 velocity=97 time=0
EXTRACT: note_on channel=12 note=53 velocity=82 time=0
EXTRACT: note_on channel=12 note=58 velocity=73 time=0
EXTRACT: note_on channel=12 note=62 velocity=73 time=0
EXTRACT: note_on channel=14 note=46 velocity=63 time=0
EXTRACT: note_off channel=6 note=63 velocity=0 time=0.06490265625
EXTRACT: note_off channel=6 note=68 velocity=0 time=0.009615208333333333
EXTRACT: note_off channel=9 note=44 velocity=0 time=0.009615208333333333
EXTRACT: note_off channel=12 note=62 velocity=0 time=0.0024038020833333333
EXTRACT: note_off channel=9 note=36 velocity=0 time=0.004807604166666667
EXTRACT: note_off channel=14 note=46 velocity=0 time=0.0024038020833333333
EXTRACT: note_off channel=12 note=58 velocity=0 time=0.016826614583333333
EXTRACT: note_off channel=12 note=53 velocity=0 time=0
EXTRACT: note_on channel=14 note=58 velocity=59 time=0.004807604166666667
EXTRACT: note_off channel=5 note=63 velocity=0 time=0.0024038020833333333
EXTRACT: note_off channel=5 note=68 velocity=0 time=0.009615208333333333
EXTRACT: note_off channel=9 note=46 velocity=0 time=0.031249427083333333
EXTRACT: note_off channel=1 note=31 velocity=0 time=0.02163421875
EXTRACT: note_off channel=2 note=70 velocity=0 time=0.0144228125
EXTRACT: note_off channel=14 note=58 velocity=0 time=0.02163421875
EXTRACT: note_on channel=9 note=36 velocity=125 time=0.0144228125
EXTRACT: note_on channel=9 note=44 velocity=111 time=0
EXTRACT: note_on channel=1 note=34 velocity=82 time=0
EXTRACT: note_on channel=2 note=80 velocity=46 time=0
EXTRACT: note_on channel=3 note=62 velocity=107 time=0
EXTRACT: note_on channel=4 note=74 velocity=97 time=0
EXTRACT: note_on channel=14 note=46 velocity=63 time=0
EXTRACT: note_off channel=3 note=63 velocity=0 time=0.054085546875
EXTRACT: note_off channel=4 note=75 velocity=0 time=0
EXTRACT: pitchwheel channel=2 pitch=-256 time=0.039662734375
EXTRACT: note_off channel=14 note=46 velocity=0 time=0
EXTRACT: pitchwheel channel=2 pitch=-1408 time=0.019230416666666666
EXTRACT: note_on channel=14 note=58 velocity=60 time=0.0024038020833333333
EXTRACT: pitchwheel channel=2 pitch=-2304 time=0.016826614583333333
EXTRACT: note_off channel=3 note=62 velocity=0 time=0.0024038020833333333
EXTRACT: note_off channel=4 note=74 velocity=0 time=0
EXTRACT: pitchwheel channel=2 pitch=-2816 time=0.016826614583333333
EXTRACT: pitchwheel channel=2 pitch=-2944 time=0.019230416666666666
EXTRACT: pitchwheel channel=2 pitch=-3200 time=0.019230416666666666
EXTRACT: pitchwheel channel=2 pitch=-3072 time=0.019230416666666666
EXTRACT: note_off channel=14 note=58 velocity=0 time=0.012019010416666667
EXTRACT: note_on channel=9 note=46 velocity=75 time=0.009615208333333333
EXTRACT: pitchwheel channel=2 pitch=-2688 time=0
EXTRACT: note_on channel=3 note=63 velocity=107 time=0
EXTRACT: note_on channel=4 note=75 velocity=97 time=0
EXTRACT: note_on channel=5 note=65 velocity=66 time=0
EXTRACT: note_on channel=5 note=70 velocity=67 time=0
EXTRACT: note_on channel=6 note=62 velocity=118 time=0
EXTRACT: note_on channel=6 note=65 velocity=127 time=0
EXTRACT: note_on channel=12 note=53 velocity=82 time=0
EXTRACT: note_on channel=12 note=58 velocity=82 time=0
EXTRACT: note_on channel=12 note=62 velocity=73 time=0
EXTRACT: note_on channel=14 note=46 velocity=62 time=0
EXTRACT: pitchwheel channel=2 pitch=-2176 time=0.016826614583333333
EXTRACT: note_off channel=9 note=44 velocity=0 time=0.009615208333333333
EXTRACT: note_off channel=9 note=39 velocity=0 time=0.012019010416666667
EXTRACT: pitchwheel channel=2 pitch=-1664 time=0
EXTRACT: note_off channel=9 note=40 velocity=0 time=0.00721140625
EXTRACT: pitchwheel channel=2 pitch=-1024 time=0.012019010416666667
EXTRACT: pitchwheel channel=2 pitch=0 time=0.019230416666666666
EXTRACT: note_off channel=5 note=70 velocity=0 time=0
EXTRACT: note_off channel=5 note=65 velocity=0 time=0.00721140625
EXTRACT: note_off channel=14 note=46 velocity=0 time=0
EXTRACT: note_off channel=12 note=58 velocity=0 time=0.012019010416666667
EXTRACT: note_off channel=12 note=62 velocity=0 time=0.0024038020833333333
EXTRACT: note_off channel=9 note=36 velocity=0 time=0.004807604166666667
EXTRACT: note_off channel=12 note=53 velocity=0 time=0.0024038020833333333
EXTRACT: note_on channel=14 note=58 velocity=60 time=0.009615208333333333
EXTRACT: note_off channel=6 note=65 velocity=0 time=0.009615208333333333
EXTRACT: note_off channel=6 note=62 velocity=0 time=0.009615208333333333
EXTRACT: note_off channel=14 note=58 velocity=0 time=0.086536875
EXTRACT: note_off channel=1 note=34 velocity=0 time=0.004807604166666667
EXTRACT: note_on channel=9 note=36 velocity=122 time=0.004807604166666667
EXTRACT: note_on channel=9 note=39 velocity=65 time=0
EXTRACT: note_on channel=9 note=40 velocity=65 time=0
EXTRACT: note_on channel=9 note=44 velocity=92 time=0
EXTRACT: note_on channel=1 note=29 velocity=76 time=0
EXTRACT: note_on channel=3 note=62 velocity=107 time=0
EXTRACT: note_on channel=4 note=74 velocity=97 time=0
EXTRACT: note_on channel=5 note=65 velocity=74 time=0
EXTRACT: note_on channel=5 note=70 velocity=76 time=0
EXTRACT: note_on channel=6 note=62 velocity=102 time=0
EXTRACT: note_on channel=6 note=65 velocity=118 time=0
EXTRACT: note_on channel=14 note=46 velocity=63 time=0
EXTRACT: note_off channel=3 note=63 velocity=0 time=0.054085546875
EXTRACT: note_off channel=4 note=75 velocity=0 time=0
EXTRACT: note_off channel=14 note=46 velocity=0 time=0.04447033854166667
EXTRACT: note_off channel=9 note=46 velocity=0 time=0.0144228125
EXTRACT: note_on channel=14 note=58 velocity=60 time=0.0024038020833333333
EXTRACT: note_off channel=3 note=62 velocity=0 time=0.004807604166666667
EXTRACT: note_off channel=4 note=74 velocity=0 time=0
EXTRACT: note_off channel=6 note=65 velocity=0 time=0.019230416666666666
EXTRACT: note_off channel=6 note=62 velocity=0 time=0.004807604166666667
EXTRACT: note_off channel=5 note=65 velocity=0 time=0.0024038020833333333
EXTRACT: note_off channel=5 note=70 velocity=0 time=0.02163421875
EXTRACT: note_off channel=14 note=58 velocity=0 time=0.04086463541666667
EXTRACT: note_off channel=1 note=29 velocity=0 time=0.016826614583333333
EXTRACT: note_on channel=9 note=46 velocity=63 time=0.004807604166666667
EXTRACT: note_on channel=1 note=27 velocity=91 time=0
EXTRACT: note_on channel=2 note=70 velocity=46 time=0
EXTRACT: note_on channel=3 note=63 velocity=107 time=0
EXTRACT: note_on channel=4 note=75 velocity=97 time=0
EXTRACT: note_on channel=5 note=63 velocity=74 time=0
EXTRACT: note_on channel=5 note=68 velocity=69 time=0
EXTRACT: note_on channel=6 note=63 velocity=115 time=0
EXTRACT: note_on channel=6 note=65 velocity=96 time=0
EXTRACT: note_on channel=6 note=68 velocity=115 time=0
EXTRACT: note_on channel=12 note=53 velocity=88 time=0
EXTRACT: note_on channel=12 note=58 velocity=78 time=0
EXTRACT: note_on channel=12 note=63 velocity=74 time=0
EXTRACT: note_on channel=14 note=46 velocity=62 time=0
EXTRACT: note_off channel=9 note=44 velocity=0 time=0.036057031249999996
EXTRACT: note_off channel=2 note=80 velocity=0 time=0.0024038020833333333
EXTRACT: note_off channel=6 note=65 velocity=0 time=0.009615208333333333
EXTRACT: note_off channel=14 note=46 velocity=0 time=0.04086463541666667
EXTRACT: note_off channel=12 note=58 velocity=0 time=0.02163421875
EXTRACT: note_on channel=14 note=58 velocity=60 time=0.004807604166666667
EXTRACT: note_off channel=9 note=36 velocity=0 time=0.0024038020833333333
EXTRACT: note_off channel=5 note=68 velocity=0 time=0
EXTRACT: note_off channel=6 note=63 velocity=0 time=0
EXTRACT: note_off channel=12 note=63 velocity=0 time=0.004807604166666667
EXTRACT: note_off channel=12 note=53 velocity=0 time=0
EXTRACT: note_off channel=5 note=63 velocity=0 time=0.019230416666666666
EXTRACT: note_off channel=6 note=68 velocity=0 time=0
EXTRACT: note_off channel=14 note=58 velocity=0 time=0.06971026041666667
EXTRACT: note_on channel=9 note=36 velocity=125 time=0.019230416666666666
EXTRACT: note_on channel=9 note=44 velocity=85 time=0
EXTRACT: note_on channel=3 note=62 velocity=107 time=0
EXTRACT: note_on channel=4 note=74 velocity=97 time=0
EXTRACT: note_on channel=14 note=46 velocity=63 time=0
EXTRACT: note_off channel=3 note=63 velocity=0 time=0.054085546875
EXTRACT: note_off channel=4 note=75 velocity=0 time=0
EXTRACT: note_off channel=9 note=46 velocity=0 time=0.022836119791666665
EXTRACT: note_off channel=14 note=46 velocity=0 time=0.012019010416666667
EXTRACT: note_off channel=1 note=27 velocity=0 time=0.019230416666666666
EXTRACT: note_off channel=3 note=62 velocity=0 time=0.006009505208333333
EXTRACT: note_off channel=4 note=74 velocity=0 time=0
EXTRACT: note_on channel=14 note=58 velocity=59 time=0.0012019010416666667
EXTRACT: pitchwheel channel=2 pitch=-256 time=0.019230416666666666
EXTRACT: pitchwheel channel=2 pitch=-1408 time=0.02163421875
EXTRACT: pitchwheel channel=2 pitch=-2304 time=0.019230416666666666
EXTRACT: pitchwheel channel=2 pitch=-2816 time=0.019230416666666666
EXTRACT: pitchwheel channel=2 pitch=-2944 time=0.019230416666666666
EXTRACT: note_off channel=14 note=58 velocity=0 time=0.004807604166666667
EXTRACT: note_on channel=9 note=36 velocity=120 time=0.012019010416666667
EXTRACT: note_on channel=9 note=46 velocity=71 time=0
EXTRACT: note_on channel=1 note=27 velocity=95 time=0
EXTRACT: note_on channel=3 note=63 velocity=107 time=0
EXTRACT: note_on channel=4 note=75 velocity=97 time=0
EXTRACT: note_on channel=5 note=63 velocity=63 time=0
EXTRACT: note_on channel=5 note=68 velocity=67 time=0
EXTRACT: note_on channel=6 note=63 velocity=127 time=0
EXTRACT: note_on channel=6 note=68 velocity=115 time=0
EXTRACT: note_on channel=12 note=53 velocity=85 time=0
EXTRACT: note_on channel=12 note=58 velocity=88 time=0
EXTRACT: note_on channel=12 note=63 velocity=88 time=0
EXTRACT: note_on channel=14 note=46 velocity=62 time=0
EXTRACT: pitchwheel channel=2 pitch=-2816 time=0.0024038020833333333
EXTRACT: pitchwheel channel=2 pitch=-2176 time=0.019230416666666666
EXTRACT: pitchwheel channel=2 pitch=-1536 time=0.019230416666666666
EXTRACT: note_off channel=9 note=36 velocity=64 time=0.016826614583333333
EXTRACT: pitchwheel channel=2 pitch=-768 time=0.0024038020833333333
EXTRACT: note_off channel=9 note=40 velocity=0 time=0.009615208333333333
EXTRACT: note_off channel=9 note=39 velocity=0 time=0
EXTRACT: pitchwheel channel=2 pitch=0 time=0.009615208333333333
EXTRACT: note_off channel=9 note=44 velocity=0 time=0.009615208333333333
EXTRACT: note_off channel=14 note=46 velocity=0 time=0.004807604166666667
EXTRACT: note_off channel=9 note=36 velocity=0 time=0.00721140625
EXTRACT: note_on channel=14 note=58 velocity=60 time=0.0144228125
EXTRACT: note_off channel=14 note=58 velocity=0 time=0.1009596875
EXTRACT: note_on channel=9 note=36 velocity=125 time=0.0144228125
EXTRACT: note_on channel=9 note=39 velocity=65 time=0
EXTRACT: note_on channel=9 note=40 velocity=64 time=0
EXTRACT: note_on channel=9 note=44 velocity=101 time=0
EXTRACT: note_on channel=3 note=62 velocity=107 time=0
EXTRACT: note_on channel=4 note=74 velocity=97 time=0
EXTRACT: note_on channel=14 note=46 velocity=63 time=0
EXTRACT: note_off channel=3 note=63 velocity=0 time=0.054085546875
EXTRACT: note_off channel=4 note=75 velocity=0 time=0
EXTRACT: note_off channel=14 note=46 velocity=0 time=0.037258932291666665
EXTRACT: note_off channel=9 note=46 velocity=0 time=0.012019010416666667
EXTRACT: note_on channel=14 note=58 velocity=60 time=0.012019010416666667
EXTRACT: note_off channel=3 note=62 velocity=0 time=0.010817109375
EXTRACT: note_off channel=4 note=74 velocity=0 time=0
EXTRACT: note_off channel=5 note=63 velocity=0 time=0.0012019010416666667
EXTRACT: note_off channel=12 note=58 velocity=0 time=0.0024038020833333333
EXTRACT: note_off channel=5 note=68 velocity=0 time=0.00721140625
EXTRACT: note_off channel=12 note=63 velocity=0 time=0.0024038020833333333
EXTRACT: note_off channel=12 note=53 velocity=0 time=0
EXTRACT: note_off channel=2 note=70 velocity=0 time=0.03846083333333333
EXTRACT: note_off channel=14 note=58 velocity=0 time=0.033653229166666666
EXTRACT: note_off channel=1 note=27 velocity=0 time=0.016826614583333333
EXTRACT: note_on channel=9 note=46 velocity=70 time=0.0024038020833333333
EXTRACT: note_on channel=1 note=31 velocity=85 time=0
EXTRACT: note_on channel=3 note=63 velocity=107 time=0
EXTRACT: note_on channel=4 note=75 velocity=97 time=0
EXTRACT: note_on channel=12 note=53 velocity=78 time=0
EXTRACT: note_on channel=12 note=58 velocity=80 time=0
EXTRACT: note_on channel=12 note=63 velocity=82 time=0
EXTRACT: note_on channel=14 note=46 velocity=62 time=0
EXTRACT: note_off channel=6 note=63 velocity=0 time=0.04567223958333333
EXTRACT: note_off channel=6 note=68 velocity=0 time=0.02163421875
EXTRACT: note_off channel=9 note=44 velocity=0 time=0.016826614583333333
EXTRACT: note_off channel=12 note=58 velocity=0 time=0.004807604166666667
EXTRACT: note_off channel=14 note=46 velocity=0 time=0.004807604166666667
EXTRACT: note_off channel=12 note=63 velocity=0 time=0.012019010416666667
EXTRACT: note_off channel=12 note=53 velocity=0 time=0
EXTRACT: note_off channel=9 note=36 velocity=0 time=0.0024038020833333333
EXTRACT: note_on channel=14 note=58 velocity=61 time=0.00721140625
EXTRACT: note_off channel=9 note=46 velocity=0 time=0.0432684375
EXTRACT: note_off channel=1 note=31 velocity=0 time=0.031249427083333333
EXTRACT: note_off channel=14 note=58 velocity=0 time=0.019230416666666666
EXTRACT: note_on channel=9 note=36 velocity=122 time=0.02163421875
EXTRACT: note_on channel=9 note=44 velocity=111 time=0
EXTRACT: note_on channel=1 note=34 velocity=104 time=0
EXTRACT: note_on channel=2 note=80 velocity=64 time=0
EXTRACT: note_on channel=3 note=65 velocity=107 time=0
EXTRACT: note_on channel=4 note=77 velocity=97 time=0
EXTRACT: note_on channel=12 note=53 velocity=88 time=0
EXTRACT: note_on channel=12 note=58 velocity=78 time=0
EXTRACT: note_on channel=12 note=62 velocity=76 time=0
EXTRACT: note_on channel=14 note=46 velocity=65 time=0
EXTRACT: note_off channel=3 note=63 velocity=0 time=0.054085546875
EXTRACT: note_off channel=4 note=75 velocity=0 time=0
EXTRACT: note_off channel=14 note=46 velocity=0 time=0.032451328125
EXTRACT: note_off channel=12 note=58 velocity=0 time=0.009615208333333333
EXTRACT: note_off channel=12 note=62 velocity=0 time=0.016826614583333333
EXTRACT: note_on channel=14 note=58 velocity=61 time=0.0024038020833333333
EXTRACT: note_off channel=12 note=53 velocity=0 time=0.00721140625
EXTRACT: pitchwheel channel=2 pitch=-384 time=0.028845625
EXTRACT: pitchwheel channel=2 pitch=-1152 time=0.019230416666666666
EXTRACT: pitchwheel channel=2 pitch=-2048 time=0.019230416666666666
EXTRACT: pitchwheel channel=2 pitch=-2816 time=0.019230416666666666
EXTRACT: note_off channel=14 note=58 velocity=0 time=0.019230416666666666
EXTRACT: note_on channel=9 note=46 velocity=75 time=0.0024038020833333333
EXTRACT: pitchwheel channel=2 pitch=-3328 time=0
EXTRACT: note_on channel=14 note=46 velocity=63 time=0
EXTRACT: pitchwheel channel=2 pitch=-3456 time=0.019230416666666666
EXTRACT: note_off channel=9 note=44 velocity=0 time=0.00721140625
EXTRACT: note_off channel=9 note=39 velocity=0 time=0.02163421875
EXTRACT: note_off channel=9 note=40 velocity=0 time=0.004807604166666667
EXTRACT: pitchwheel channel=2 pitch=-3200 time=0.004807604166666667
EXTRACT: note_off channel=14 note=46 velocity=0 time=0.0144228125
EXTRACT: pitchwheel channel=2 pitch=-2944 time=0.004807604166666667
EXTRACT: note_off channel=9 note=36 velocity=0 time=0.009615208333333333
EXTRACT: pitchwheel channel=2 pitch=-2176 time=0.009615208333333333
EXTRACT: pitchwheel channel=2 pitch=-1024 time=0.019230416666666666
EXTRACT: note_on channel=14 note=58 velocity=60 time=0
EXTRACT: pitchwheel channel=2 pitch=0 time=0.019230416666666666
EXTRACT: note_off channel=1 note=34 velocity=0 time=0.060095052083333336
EXTRACT: note_off channel=14 note=58 velocity=0 time=0.004807604166666667
EXTRACT: note_on channel=9 note=36 velocity=118 time=0.031249427083333333
EXTRACT: note_on channel=9 note=39 velocity=71 time=0
EXTRACT: note_on channel=9 note=40 velocity=72 time=0
EXTRACT: note_on channel=9 note=44 velocity=92 time=0
EXTRACT: note_on channel=1 note=29 velocity=73 time=0
EXTRACT: note_on channel=5 note=62 velocity=67 time=0
EXTRACT: note_on channel=5 note=65 velocity=76 time=0
EXTRACT: note_on channel=6 note=62 velocity=127 time=0
EXTRACT: note_on channel=6 note=65 velocity=127 time=0
EXTRACT: note_on channel=12 note=53 velocity=80 time=0
EXTRACT: note_on channel=12 note=58 velocity=73 time=0
EXTRACT: note_on channel=12 note=62 velocity=73 time=0
EXTRACT: note_on channel=14 note=46 velocity=63 time=0
EXTRACT: note_off channel=14 note=46 velocity=0 time=0.086536875
EXTRACT: note_off channel=12 note=62 velocity=0 time=0.016826614583333333
EXTRACT: note_off channel=9 note=46 velocity=0 time=0.009615208333333333
EXTRACT: note_off channel=12 note=58 velocity=0 time=0
EXTRACT: note_on channel=14 note=58 velocity=60 time=0.0024038020833333333
EXTRACT: note_off channel=12 note=53 velocity=0 time=0.00721140625
EXTRACT: note_off channel=1 note=29 velocity=0 time=0.04567223958333333
EXTRACT: note_off channel=5 note=62 velocity=0 time=0.024038020833333333
EXTRACT: note_off channel=14 note=58 velocity=0 time=0.009615208333333333
EXTRACT: note_off channel=2 note=80 velocity=0 time=0.02163421875
EXTRACT: note_on channel=9 note=46 velocity=63 time=0.00721140625
EXTRACT: note_on channel=1 note=27 velocity=88 time=0
EXTRACT: note_on channel=2 note=70 velocity=46 time=0
EXTRACT: note_on channel=5 note=63 velocity=76 time=0
EXTRACT: note_on channel=5 note=68 velocity=70 time=0
EXTRACT: note_on channel=6 note=63 velocity=115 time=0
EXTRACT: note_on channel=6 note=68 velocity=108 time=0
EXTRACT: note_on channel=12 note=53 velocity=76 time=0
EXTRACT: note_on channel=12 note=58 velocity=74 time=0
EXTRACT: note_on channel=12 note=63 velocity=74 time=0
EXTRACT: note_on channel=14 note=46 velocity=61 time=0
EXTRACT: note_off channel=6 note=62 velocity=0 time=0.0144228125
EXTRACT: note_off channel=9 note=44 velocity=0 time=0.02163421875
EXTRACT: note_off channel=5 note=65 velocity=0 time=0.004807604166666667
EXTRACT: note_off channel=14 note=46 velocity=0 time=0.04567223958333333
EXTRACT: note_off channel=6 note=65 velocity=0 time=0.009615208333333333
EXTRACT: note_off channel=6 note=63 velocity=0 time=0.004807604166666667
EXTRACT: note_off channel=9 note=36 velocity=0 time=0.004807604166666667
EXTRACT: note_off channel=5 note=63 velocity=0 time=0.0024038020833333333
EXTRACT: note_off channel=12 note=53 velocity=0 time=0.004807604166666667
EXTRACT: note_off channel=6 note=68 velocity=0 time=0.0024038020833333333
EXTRACT: note_on channel=14 note=58 velocity=60 time=0
EXTRACT: note_off channel=5 note=68 velocity=0 time=0.0024038020833333333
EXTRACT: note_off channel=12 note=58 velocity=0 time=0.0144228125
EXTRACT: note_off channel=12 note=63 velocity=0 time=0.012019010416666667
EXTRACT: note_off channel=14 note=58 velocity=0 time=0.05528744791666666
EXTRACT: note_on channel=9 note=36 velocity=125 time=0.031249427083333333
EXTRACT: note_on channel=9 note=44 velocity=85 time=0
EXTRACT: note_on channel=14 note=46 velocity=62 time=0
EXTRACT: note_off channel=9 note=46 velocity=0 time=0.07692166666666667
EXTRACT: pitchwheel channel=2 pitch=-512 time=0.0024038020833333333
EXTRACT: note_off channel=14 note=46 velocity=0 time=0.012019010416666667
EXTRACT: pitchwheel channel=2 pitch=-1408 time=0.00721140625
EXTRACT: note_on channel=14 note=58 velocity=60 time=0.016826614583333333
EXTRACT: pitchwheel channel=2 pitch=-2304 time=0.0024038020833333333
EXTRACT: pitchwheel channel=2 pitch=-2816 time=0.019230416666666666
EXTRACT: pitchwheel channel=2 pitch=-3072 time=0.019230416666666666
EXTRACT: pitchwheel channel=2 pitch=-2944 time=0.019230416666666666
EXTRACT: note_off channel=1 note=27 velocity=0 time=0.004807604166666667
EXTRACT: pitchwheel channel=2 pitch=-2432 time=0.0144228125
EXTRACT: note_off channel=14 note=58 velocity=0 time=0.012019010416666667
EXTRACT: pitchwheel channel=2 pitch=-1664 time=0.00721140625
EXTRACT: note_on channel=9 note=36 velocity=120 time=0.016826614583333333
EXTRACT: note_on channel=9 note=46 velocity=71 time=0
EXTRACT: note_on channel=1 note=27 velocity=95 time=0
EXTRACT: note_on channel=5 note=63 velocity=64 time=0
EXTRACT: note_on channel=5 note=68 velocity=69 time=0
EXTRACT: note_on channel=6 note=63 velocity=124 time=0
EXTRACT: note_on channel=6 note=68 velocity=115 time=0
EXTRACT: note_on channel=12 note=53 velocity=71 time=0
EXTRACT: note_on channel=12 note=58 velocity=78 time=0
EXTRACT: note_on channel=12 note=63 velocity=78 time=0
EXTRACT: note_on channel=14 note=46 velocity=61 time=0
EXTRACT: pitchwheel channel=2 pitch=-768 time=0.0024038020833333333
EXTRACT: note_off channel=9 note=39 velocity=0 time=0.012019010416666667
EXTRACT: note_off channel=9 note=40 velocity=0 time=0.0024038020833333333
EXTRACT: pitchwheel channel=2 pitch=0 time=0.004807604166666667
EXTRACT: note_off channel=9 note=36 velocity=64 time=0.036057031249999996
EXTRACT: note_off channel=9 note=36 velocity=0 time=0.028845625
EXTRACT: note_off channel=9 note=44 velocity=0 time=0.0024038020833333333
EXTRACT: note_off channel=14 note=46 velocity=0 time=0.0024038020833333333
EXTRACT: note_on channel=14 note=58 velocity=60 time=0.024038020833333333
EXTRACT: note_off channel=14 note=58 velocity=0 time=0.09374828125
EXTRACT: note_on channel=9 note=36 velocity=122 time=0.02163421875
EXTRACT: note_on channel=9 note=39 velocity=62 time=0
EXTRACT: note_on channel=9 note=40 velocity=68 time=0
EXTRACT: note_on channel=9 note=44 velocity=101 time=0
EXTRACT: note_on channel=14 note=46 velocity=63 time=0
EXTRACT: note_off channel=14 note=46 velocity=0 time=0.09615208333333333
EXTRACT: note_off channel=9 note=46 velocity=0 time=0.00721140625
EXTRACT: note_off channel=12 note=53 velocity=0 time=0.004807604166666667
EXTRACT: note_on channel=14 note=58 velocity=60 time=0.00721140625
EXTRACT: note_off channel=12 note=58 velocity=0 time=0.00721140625
EXTRACT: note_off channel=12 note=63 velocity=0 time=0.0144228125
EXTRACT: note_off channel=14 note=58 velocity=0 time=0.07932546875
EXTRACT: note_off channel=1 note=27 velocity=0 time=0.012019010416666667
EXTRACT: note_on channel=9 note=46 velocity=70 time=0.0024038020833333333
EXTRACT: note_on channel=1 note=31 velocity=62 time=0
EXTRACT: note_on channel=12 note=53 velocity=71 time=0
EXTRACT: note_on channel=12 note=58 velocity=73 time=0
EXTRACT: note_on channel=12 note=63 velocity=68 time=0
EXTRACT: note_on channel=14 note=46 velocity=63 time=0
EXTRACT: note_off channel=6 note=63 velocity=0 time=0.06490265625
EXTRACT: note_off channel=6 note=68 velocity=0 time=0.009615208333333333
EXTRACT: note_off channel=9 note=44 velocity=0 time=0.009615208333333333
EXTRACT: note_off channel=14 note=46 velocity=0 time=0.009615208333333333
EXTRACT: note_off channel=9 note=36 velocity=0 time=0.00721140625
EXTRACT: note_on channel=14 note=58 velocity=59 time=0.0144228125
EXTRACT: note_off channel=5 note=63 velocity=0 time=0.0024038020833333333
EXTRACT: note_off channel=12 note=53 velocity=0 time=0.004807604166666667
EXTRACT: note_off channel=5 note=68 velocity=0 time=0.004807604166666667
EXTRACT: note_off channel=12 note=58 velocity=0 time=0.00721140625
EXTRACT: note_off channel=9 note=46 velocity=0 time=0.024038020833333333
EXTRACT: note_off channel=12 note=63 velocity=0 time=0.004807604166666667
EXTRACT: note_off channel=1 note=31 velocity=0 time=0.016826614583333333
EXTRACT: note_off channel=14 note=58 velocity=0 time=0.036057031249999996
EXTRACT: note_on channel=9 note=36 velocity=122 time=0.0144228125
EXTRACT: note_on channel=9 note=44 velocity=111 time=0
EXTRACT: note_on channel=1 note=34 velocity=82 time=0
EXTRACT: note_on channel=2 note=80 velocity=43 time=0
EXTRACT: note_on channel=12 note=53 velocity=74 time=0
EXTRACT: note_on channel=12 note=58 velocity=73 time=0
EXTRACT: note_on channel=12 note=62 velocity=71 time=0
EXTRACT: note_on channel=14 note=46 velocity=63 time=0
EXTRACT: note_off channel=2 note=70 velocity=0 time=0.028845625
EXTRACT: note_off channel=12 note=58 velocity=0 time=0.06490265625
EXTRACT: note_off channel=14 note=46 velocity=0 time=0
EXTRACT: note_off channel=12 note=62 velocity=0 time=0.012019010416666667
EXTRACT: note_off channel=12 note=53 velocity=0 time=0.004807604166666667
EXTRACT: note_on channel=14 note=58 velocity=60 time=0.004807604166666667
EXTRACT: note_off channel=2 note=80 velocity=0 time=0.06490265625
EXTRACT: note_off channel=14 note=58 velocity=0 time=0.04086463541666667
EXTRACT: note_on channel=9 note=46 velocity=75 time=0.009615208333333333
EXTRACT: note_on channel=2 note=80 velocity=46 time=0
EXTRACT: note_on channel=5 note=65 velocity=66 time=0
EXTRACT: note_on channel=5 note=70 velocity=67 time=0
EXTRACT: note_on channel=6 note=62 velocity=118 time=0
EXTRACT: note_on channel=6 note=65 velocity=127 time=0
EXTRACT: note_on channel=14 note=46 velocity=62 time=0
EXTRACT: note_off channel=9 note=44 velocity=0 time=0.026441822916666666
EXTRACT: note_off channel=5 note=70 velocity=0 time=0.05047984375
EXTRACT: note_off channel=5 note=65 velocity=0 time=0.00721140625
EXTRACT: note_off channel=14 note=46 velocity=0 time=0
EXTRACT: note_off channel=9 note=40 velocity=0 time=0.0024038020833333333
EXTRACT: note_off channel=9 note=39 velocity=0 time=0.00721140625
EXTRACT: note_off channel=9 note=36 velocity=0 time=0.00721140625
EXTRACT: note_on channel=14 note=58 velocity=60 time=0.0144228125
EXTRACT: note_off channel=6 note=65 velocity=0 time=0.009615208333333333
EXTRACT: note_off channel=6 note=62 velocity=0 time=0.009615208333333333
EXTRACT: note_off channel=14 note=58 velocity=0 time=0.086536875
EXTRACT: note_off channel=1 note=34 velocity=0 time=0.004807604166666667
EXTRACT: note_on channel=9 note=36 velocity=122 time=0.004807604166666667
EXTRACT: note_on channel=9 note=39 velocity=66 time=0
EXTRACT: note_on channel=9 note=40 velocity=66 time=0
EXTRACT: note_on channel=9 note=44 velocity=92 time=0
EXTRACT: note_on channel=1 note=29 velocity=76 time=0
EXTRACT: note_on channel=5 note=65 velocity=74 time=0
EXTRACT: note_on channel=5 note=70 velocity=76 time=0
EXTRACT: note_on channel=6 note=62 velocity=102 time=0
EXTRACT: note_on channel=6 note=65 velocity=118 time=0
EXTRACT: note_on channel=12 note=53 velocity=82 time=0
EXTRACT: note_on channel=12 note=58 velocity=78 time=0
EXTRACT: note_on channel=12 note=62 velocity=73 time=0
EXTRACT: note_on channel=14 note=46 velocity=63 time=0
EXTRACT: note_off channel=14 note=46 velocity=0 time=0.09855588541666667
EXTRACT: note_off channel=9 note=46 velocity=0 time=0.0144228125
EXTRACT: note_on channel=14 note=58 velocity=60 time=0.0024038020833333333
EXTRACT: note_off channel=6 note=65 velocity=0 time=0.024038020833333333
EXTRACT: note_off channel=6 note=62 velocity=0 time=0.004807604166666667
EXTRACT: note_off channel=5 note=65 velocity=0 time=0.0024038020833333333
EXTRACT: note_off channel=12 note=62 velocity=0 time=0.0024038020833333333
EXTRACT: note_off channel=12 note=58 velocity=0 time=0
EXTRACT: note_off channel=12 note=53 velocity=0 time=0
EXTRACT: note_off channel=5 note=70 velocity=0 time=0.019230416666666666
EXTRACT: note_off channel=14 note=58 velocity=0 time=0.04086463541666667
EXTRACT: note_off channel=1 note=29 velocity=0 time=0.016826614583333333
EXTRACT: note_on channel=9 note=46 velocity=63 time=0.004807604166666667
EXTRACT: note_on channel=1 note=27 velocity=91 time=0
EXTRACT: note_on channel=2 note=70 velocity=43 time=0
EXTRACT: note_on channel=5 note=63 velocity=74 time=0
EXTRACT: note_on channel=5 note=68 velocity=69 time=0
EXTRACT: note_on channel=6 note=63 velocity=115 time=0
EXTRACT: note_on channel=6 note=65 velocity=96 time=0
EXTRACT: note_on channel=6 note=68 velocity=115 time=0
EXTRACT: note_on channel=12 note=53 velocity=82 time=0
EXTRACT: note_on channel=12 note=58 velocity=80 time=0
EXTRACT: note_on channel=12 note=63 velocity=80 time=0
EXTRACT: note_on channel=14 note=46 velocity=62 time=0
EXTRACT: note_off channel=9 note=44 velocity=0 time=0.036057031249999996
EXTRACT: note_off channel=2 note=80 velocity=0 time=0.004807604166666667
EXTRACT: note_off channel=6 note=65 velocity=0 time=0.00721140625
EXTRACT: note_off channel=14 note=46 velocity=0 time=0.04086463541666667
EXTRACT: note_on channel=14 note=58 velocity=60 time=0.026441822916666666
EXTRACT: note_off channel=5 note=68 velocity=0 time=0.0024038020833333333
EXTRACT: note_off channel=6 note=63 velocity=0 time=0
EXTRACT: note_off channel=12 note=58 velocity=0 time=0.016826614583333333
EXTRACT: note_off channel=12 note=63 velocity=0 time=0.004807604166666667
EXTRACT: note_off channel=5 note=63 velocity=0 time=0.0024038020833333333
EXTRACT: note_off channel=6 note=68 velocity=0 time=0
EXTRACT: note_off channel=12 note=53 velocity=0 time=0.00721140625
EXTRACT: note_off channel=9 note=36 velocity=0 time=0.004807604166666667
EXTRACT: note_off channel=14 note=58 velocity=0 time=0.05769125
EXTRACT: note_on channel=9 note=36 velocity=118 time=0.019230416666666666
EXTRACT: note_on channel=9 note=44 velocity=85 time=0
EXTRACT: note_on channel=14 note=46 velocity=63 time=0
EXTRACT: pitchwheel channel=2 pitch=-1024 time=0.028845625
EXTRACT: pitchwheel channel=2 pitch=-2176 time=0.019230416666666666
EXTRACT: pitchwheel channel=2 pitch=-2944 time=0.019230416666666666
EXTRACT: note_off channel=9 note=46 velocity=0 time=0.009615208333333333
EXTRACT: pitchwheel channel=2 pitch=-3072 time=0.009615208333333333
EXTRACT: note_off channel=14 note=46 velocity=0 time=0.0024038020833333333
EXTRACT: pitchwheel channel=2 pitch=-2816 time=0.016826614583333333
EXTRACT: note_off channel=1 note=27 velocity=0 time=0.0024038020833333333
EXTRACT: note_on channel=14 note=58 velocity=59 time=0.00721140625
EXTRACT: pitchwheel channel=2 pitch=-1920 time=0.009615208333333333
EXTRACT: pitchwheel channel=2 pitch=-1024 time=0.019230416666666666
EXTRACT: pitchwheel channel=2 pitch=0 time=0.019230416666666666
EXTRACT: note_off channel=14 note=58 velocity=0 time=0.05528744791666666
EXTRACT: note_on channel=9 note=36 velocity=120 time=0.012019010416666667
EXTRACT: note_on channel=9 note=46 velocity=71 time=0
EXTRACT: note_on channel=1 note=27 velocity=95 time=0
EXTRACT: note_on channel=5 note=63 velocity=63 time=0
EXTRACT: note_on channel=5 note=68 velocity=67 time=0
EXTRACT: note_on channel=6 note=63 velocity=127 time=0
EXTRACT: note_on channel=6 note=68 velocity=115 time=0
EXTRACT: note_on channel=12 note=53 velocity=80 time=0
EXTRACT: note_on channel=12 note=58 velocity=78 time=0
EXTRACT: note_on channel=12 note=63 velocity=80 time=0
EXTRACT: note_on channel=14 note=46 velocity=62 time=0
EXTRACT: note_off channel=9 note=36 velocity=64 time=0.05769125
EXTRACT: note_off channel=9 note=40 velocity=0 time=0.028845625
EXTRACT: note_off channel=9 note=39 velocity=0 time=0
EXTRACT: note_off channel=9 note=44 velocity=0 time=0.0024038020833333333
EXTRACT: note_off channel=14 note=46 velocity=0 time=0.004807604166666667
EXTRACT: note_off channel=9 note=36 velocity=0 time=0.0024038020833333333
EXTRACT: note_on channel=14 note=58 velocity=60 time=0.019230416666666666
EXTRACT: note_off channel=14 note=58 velocity=0 time=0.1009596875
EXTRACT: note_on channel=9 note=36 velocity=122 time=0.0144228125
EXTRACT: note_on channel=9 note=39 velocity=71 time=0
EXTRACT: note_on channel=9 note=40 velocity=72 time=0
EXTRACT: note_on channel=9 note=44 velocity=101 time=0
EXTRACT: note_on channel=14 note=46 velocity=63 time=0
EXTRACT: note_off channel=14 note=46 velocity=0 time=0.09134447916666666
EXTRACT: note_off channel=9 note=46 velocity=0 time=0.012019010416666667
EXTRACT: note_on channel=14 note=58 velocity=60 time=0.012019010416666667
EXTRACT: note_off channel=5 note=63 velocity=0 time=0.012019010416666667
EXTRACT: note_off channel=5 note=68 velocity=0 time=0.009615208333333333
EXTRACT: note_off channel=14 note=58 velocity=0 time=0.07451786458333333
EXTRACT: note_off channel=1 note=27 velocity=0 time=0.016826614583333333
EXTRACT: note_on channel=9 note=46 velocity=70 time=0.0024038020833333333
EXTRACT: note_on channel=1 note=31 velocity=85 time=0
EXTRACT: note_on channel=14 note=46 velocity=62 time=0
EXTRACT: note_off channel=12 note=58 velocity=0 time=0.0144228125
EXTRACT: note_off channel=12 note=63 velocity=0 time=0.00721140625
EXTRACT: note_off channel=12 note=53 velocity=0 time=0.004807604166666667
EXTRACT: note_off channel=6 note=63 velocity=0 time=0.019230416666666666
EXTRACT: note_off channel=6 note=68 velocity=0 time=0.02163421875
EXTRACT: note_off channel=9 note=44 velocity=0 time=0.016826614583333333
EXTRACT: note_off channel=14 note=46 velocity=0 time=0.009615208333333333
EXTRACT: note_off channel=9 note=36 velocity=0 time=0.012019010416666667
EXTRACT: note_on channel=14 note=58 velocity=61 time=0.009615208333333333
EXTRACT: note_off channel=9 note=46 velocity=0 time=0.0432684375
EXTRACT: note_off channel=1 note=31 velocity=0 time=0.031249427083333333
EXTRACT: note_off channel=14 note=58 velocity=0 time=0.019230416666666666
EXTRACT: note_on channel=9 note=36 velocity=122 time=0.02163421875
EXTRACT: note_on channel=9 note=44 velocity=111 time=0
EXTRACT: note_on channel=1 note=34 velocity=104 time=0
EXTRACT: note_on channel=14 note=46 velocity=65 time=0
EXTRACT: note_off channel=14 note=46 velocity=0 time=0.086536875
EXTRACT: note_on channel=14 note=58 velocity=61 time=0.028845625
EXTRACT: note_off channel=2 note=70 velocity=0 time=0.1009596875
EXTRACT: note_off channel=14 note=58 velocity=0 time=0.012019010416666667
EXTRACT: note_on channel=9 note=46 velocity=75 time=0.0024038020833333333
EXTRACT: note_on channel=2 note=80 velocity=59 time=0
EXTRACT: note_on channel=12 note=53 velocity=85 time=0
EXTRACT: note_on channel=12 note=58 velocity=80 time=0
EXTRACT: note_on channel=12 note=62 velocity=76 time=0
EXTRACT: note_on channel=14 note=46 velocity=63 time=0
EXTRACT: note_off channel=9 note=44 velocity=0 time=0.026441822916666666
EXTRACT: note_off channel=9 note=40 velocity=0 time=0.026441822916666666
EXTRACT: note_off channel=9 note=39 velocity=0 time=0
EXTRACT: note_off channel=14 note=46 velocity=0 time=0.019230416666666666
EXTRACT: note_off channel=12 note=58 velocity=0 time=0.02163421875
EXTRACT: note_off channel=12 note=62 velocity=0 time=0.00721140625
EXTRACT: note_off channel=9 note=36 velocity=0 time=0.0024038020833333333
EXTRACT: note_off channel=12 note=53 velocity=0 time=0.012019010416666667
EXTRACT: note_on channel=14 note=58 velocity=60 time=0
EXTRACT: note_off channel=1 note=34 velocity=0 time=0.07932546875
EXTRACT: note_off channel=14 note=58 velocity=0 time=0.004807604166666667
EXTRACT: note_on channel=9 note=36 velocity=122 time=0.031249427083333333
EXTRACT: note_on channel=9 note=39 velocity=76 time=0
EXTRACT: note_on channel=9 note=40 velocity=74 time=0
EXTRACT: note_on channel=9 note=44 velocity=92 time=0
EXTRACT: note_on channel=1 note=29 velocity=73 time=0
EXTRACT: note_on channel=5 note=62 velocity=67 time=0
EXTRACT: note_on channel=5 note=65 velocity=76 time=0
EXTRACT: note_on channel=6 note=62 velocity=127 time=0
EXTRACT: note_on channel=6 note=65 velocity=127 time=0
EXTRACT: note_on channel=14 note=46 velocity=63 time=0
EXTRACT: pitchwheel channel=2 pitch=-384 time=0.031249427083333333
EXTRACT: pitchwheel channel=2 pitch=-1536 time=0.019230416666666666
EXTRACT: pitchwheel channel=2 pitch=-2432 time=0.019230416666666666
EXTRACT: note_off channel=14 note=46 velocity=0 time=0.016826614583333333
EXTRACT: pitchwheel channel=2 pitch=-3328 time=0.0024038020833333333
EXTRACT: pitchwheel channel=2 pitch=-3712 time=0.019230416666666666
EXTRACT: note_off channel=9 note=46 velocity=0 time=0.004807604166666667
EXTRACT: note_on channel=14 note=58 velocity=60 time=0.0024038020833333333
EXTRACT: pitchwheel channel=2 pitch=-3584 time=0.012019010416666667
EXTRACT: pitchwheel channel=2 pitch=-3072 time=0.019230416666666666
EXTRACT: pitchwheel channel=2 pitch=-2560 time=0.019230416666666666
EXTRACT: note_off channel=1 note=29 velocity=0 time=0.0024038020833333333
EXTRACT: pitchwheel channel=2 pitch=-1920 time=0.019230416666666666
EXTRACT: note_off channel=5 note=62 velocity=0 time=0.004807604166666667
EXTRACT: note_off channel=14 note=58 velocity=0 time=0.009615208333333333
EXTRACT: pitchwheel channel=2 pitch=0 time=0.0024038020833333333
EXTRACT: note_on channel=9 note=46 velocity=63 time=0.026441822916666666
EXTRACT: note_on channel=1 note=27 velocity=88 time=0
EXTRACT: note_on channel=5 note=63 velocity=76 time=0
EXTRACT: note_on channel=5 note=68 velocity=70 time=0
EXTRACT: note_on channel=6 note=63 velocity=115 time=0
EXTRACT: note_on channel=6 note=68 velocity=108 time=0
EXTRACT: note_on channel=12 note=53 velocity=80 time=0
EXTRACT: note_on channel=12 note=58 velocity=78 time=0
EXTRACT: note_on channel=12 note=62 velocity=68 time=0
EXTRACT: note_on channel=14 note=46 velocity=61 time=0
EXTRACT: note_off channel=6 note=62 velocity=0 time=0.0144228125
EXTRACT: note_off channel=9 note=44 velocity=0 time=0.02163421875
EXTRACT: note_off channel=5 note=65 velocity=0 time=0.004807604166666667
EXTRACT: note_off channel=12 note=62 velocity=0 time=0.04086463541666667
EXTRACT: note_off channel=12 note=58 velocity=0 time=0.0024038020833333333
EXTRACT: note_off channel=14 note=46 velocity=0 time=0.0024038020833333333
EXTRACT: note_off channel=9 note=36 velocity=0 time=0.004807604166666667
EXTRACT: note_off channel=6 note=65 velocity=0 time=0.004807604166666667
EXTRACT: note_off channel=12 note=53 velocity=0 time=0.0024038020833333333
EXTRACT: note_off channel=6 note=63 velocity=0 time=0.0024038020833333333
EXTRACT: note_off channel=5 note=63 velocity=0 time=0.00721140625
EXTRACT: note_off channel=6 note=68 velocity=0 time=0.00721140625
EXTRACT: note_on channel=14 note=58 velocity=60 time=0
EXTRACT: note_off channel=5 note=68 velocity=0 time=0.0024038020833333333
EXTRACT: note_off channel=14 note=58 velocity=0 time=0.08172927083333334
EXTRACT: note_off channel=2 note=80 velocity=0 time=0.02163421875
EXTRACT: note_on channel=9 note=36 velocity=122 time=0.009615208333333333
EXTRACT: note_on channel=9 note=44 velocity=85 time=0
EXTRACT: note_on channel=2 note=70 velocity=37 time=0
EXTRACT: note_on channel=12 note=53 velocity=85 time=0
EXTRACT: note_on channel=12 note=58 velocity=82 time=0
EXTRACT: note_on channel=12 note=63 velocity=82 time=0
EXTRACT: note_on channel=14 note=46 velocity=62 time=0
EXTRACT: note_off channel=3 note=65 velocity=0 time=0.04206653645833333
EXTRACT: note_off channel=4 note=77 velocity=0 time=0
EXTRACT: note_off channel=9 note=46 velocity=0 time=0.034855130208333335
EXTRACT: note_off channel=14 note=46 velocity=0 time=0.0144228125
EXTRACT: note_on channel=14 note=58 velocity=60 time=0.024038020833333333
EXTRACT: note_off channel=1 note=27 velocity=0 time=0.06490265625
EXTRACT: note_off channel=12 note=58 velocity=0 time=0.0144228125
EXTRACT: note_off channel=14 note=58 velocity=0 time=0.012019010416666667
EXTRACT: note_off channel=12 note=63 velocity=0 time=0.004807604166666667
EXTRACT: note_on channel=9 note=36 velocity=120 time=0.019230416666666666
EXTRACT: note_on channel=9 note=46 velocity=71 time=0
EXTRACT: note_on channel=1 note=27 velocity=95 time=0
EXTRACT: note_on channel=5 note=63 velocity=64 time=0
EXTRACT: note_on channel=5 note=68 velocity=69 time=0
EXTRACT: note_on channel=6 note=63 velocity=124 time=0
EXTRACT: note_on channel=6 note=68 velocity=115 time=0
EXTRACT: note_on channel=14 note=46 velocity=61 time=0
EXTRACT: note_off channel=9 note=36 velocity=64 time=0.05769125
EXTRACT: note_off channel=12 note=53 velocity=0 time=0.0024038020833333333
EXTRACT: note_off channel=9 note=44 velocity=0 time=0.028845625
EXTRACT: note_off channel=9 note=39 velocity=0 time=0.0024038020833333333
EXTRACT: note_off channel=14 note=46 velocity=0 time=0
EXTRACT: note_off channel=9 note=40 velocity=0 time=0.0024038020833333333
EXTRACT: note_on channel=14 note=58 velocity=60 time=0.02163421875
EXTRACT: note_off channel=9 note=36 velocity=0 time=0.009615208333333333
EXTRACT: note_off channel=14 note=58 velocity=0 time=0.08413307291666666
EXTRACT: note_on channel=9 note=36 velocity=122 time=0.02163421875
EXTRACT: note_on channel=9 note=39 velocity=72 time=0
EXTRACT: note_on channel=9 note=40 velocity=74 time=0
EXTRACT: note_on channel=9 note=44 velocity=101 time=0
EXTRACT: note_on channel=12 note=53 velocity=82 time=0
EXTRACT: note_on channel=12 note=58 velocity=88 time=0
EXTRACT: note_on channel=12 note=63 velocity=82 time=0
EXTRACT: note_on channel=14 note=46 velocity=63 time=0
EXTRACT: note_off channel=14 note=46 velocity=0 time=0.09615208333333333
EXTRACT: note_off channel=9 note=46 velocity=0 time=0.00721140625
EXTRACT: note_on channel=14 note=58 velocity=60 time=0.012019010416666667
EXTRACT: note_off channel=12 note=53 velocity=0 time=0.0432684375
EXTRACT: note_off channel=12 note=58 velocity=0 time=0.04086463541666667
EXTRACT: note_off channel=12 note=63 velocity=0 time=0.016826614583333333
EXTRACT: note_off channel=14 note=58 velocity=0 time=0
EXTRACT: note_off channel=1 note=27 velocity=0 time=0.012019010416666667
EXTRACT: note_on channel=9 note=46 velocity=70 time=0.0024038020833333333
EXTRACT: note_on channel=1 note=31 velocity=62 time=0
EXTRACT: note_on channel=12 note=53 velocity=82 time=0
EXTRACT: note_on channel=12 note=58 velocity=73 time=0
EXTRACT: note_on channel=12 note=62 velocity=73 time=0
EXTRACT: note_on channel=14 note=46 velocity=63 time=0
EXTRACT: note_off channel=6 note=63 velocity=0 time=0.06490265625
EXTRACT: note_off channel=6 note=68 velocity=0 time=0.009615208333333333
EXTRACT: note_off channel=9 note=36 velocity=0 time=0.0024038020833333333
EXTRACT: note_off channel=9 note=44 velocity=0 time=0.00721140625
EXTRACT: note_off channel=12 note=62 velocity=0 time=0.0024038020833333333
EXTRACT: note_off channel=14 note=46 velocity=0 time=0.00721140625
EXTRACT: note_off channel=12 note=58 velocity=0 time=0.016826614583333333
EXTRACT: note_off channel=12 note=53 velocity=0 time=0
EXTRACT: note_on channel=14 note=58 velocity=59 time=0.004807604166666667
EXTRACT: note_off channel=5 note=63 velocity=0 time=0.0024038020833333333
EXTRACT: note_off channel=5 note=68 velocity=0 time=0.009615208333333333
EXTRACT: note_off channel=9 note=46 velocity=0 time=0.031249427083333333
EXTRACT: note_off channel=1 note=31 velocity=0 time=0.02163421875
EXTRACT: note_off channel=2 note=70 velocity=0 time=0.0144228125
EXTRACT: note_off channel=14 note=58 velocity=0 time=0.02163421875
EXTRACT: note_on channel=9 note=36 velocity=125 time=0.0144228125
EXTRACT: note_on channel=9 note=44 velocity=111 time=0
EXTRACT: note_on channel=1 note=34 velocity=82 time=0
EXTRACT: note_on channel=2 note=80 velocity=46 time=0
EXTRACT: note_on channel=14 note=46 velocity=63 time=0
EXTRACT: pitchwheel channel=2 pitch=-256 time=0.09374828125
EXTRACT: note_off channel=14 note=46 velocity=0 time=0
EXTRACT: pitchwheel channel=2 pitch=-1408 time=0.019230416666666666
EXTRACT: note_on channel=14 note=58 velocity=60 time=0.0024038020833333333
EXTRACT: pitchwheel channel=2 pitch=-2304 time=0.016826614583333333
EXTRACT: pitchwheel channel=2 pitch=-2816 time=0.019230416666666666
EXTRACT: pitchwheel channel=2 pitch=-2944 time=0.019230416666666666
EXTRACT: pitchwheel channel=2 pitch=-3200 time=0.019230416666666666
EXTRACT: pitchwheel channel=2 pitch=-3072 time=0.019230416666666666
EXTRACT: note_off channel=14 note=58 velocity=0 time=0.012019010416666667
EXTRACT: note_on channel=9 note=46 velocity=75 time=0.009615208333333333
EXTRACT: pitchwheel channel=2 pitch=-2688 time=0
EXTRACT: note_on channel=5 note=65 velocity=66 time=0
EXTRACT: note_on channel=5 note=70 velocity=67 time=0
EXTRACT: note_on channel=6 note=62 velocity=118 time=0
EXTRACT: note_on channel=6 note=65 velocity=127 time=0
EXTRACT: note_on channel=12 note=53 velocity=82 time=0
EXTRACT: note_on channel=12 note=58 velocity=82 time=0
EXTRACT: note_on channel=12 note=62 velocity=73 time=0
EXTRACT: note_on channel=14 note=46 velocity=62 time=0
EXTRACT: pitchwheel channel=2 pitch=-2176 time=0.016826614583333333
EXTRACT: note_off channel=9 note=44 velocity=0 time=0.009615208333333333
EXTRACT: pitchwheel channel=2 pitch=-1664 time=0.012019010416666667
EXTRACT: note_off channel=9 note=40 velocity=0 time=0.019230416666666666
EXTRACT: note_off channel=9 note=39 velocity=0 time=0
EXTRACT: pitchwheel channel=2 pitch=-1024 time=0
EXTRACT: pitchwheel channel=2 pitch=0 time=0.019230416666666666
EXTRACT: note_off channel=5 note=70 velocity=0 time=0
EXTRACT: note_off channel=5 note=65 velocity=0 time=0.00721140625
EXTRACT: note_off channel=14 note=46 velocity=0 time=0
EXTRACT: note_off channel=12 note=58 velocity=0 time=0.012019010416666667
EXTRACT: note_off channel=12 note=62 velocity=0 time=0.0024038020833333333
EXTRACT: note_off channel=12 note=53 velocity=0 time=0.00721140625
EXTRACT: note_off channel=9 note=36 velocity=0 time=0.00721140625
EXTRACT: note_on channel=14 note=58 velocity=60 time=0.0024038020833333333
EXTRACT: note_off channel=6 note=65 velocity=0 time=0.009615208333333333
EXTRACT: note_off channel=6 note=62 velocity=0 time=0.009615208333333333
EXTRACT: note_off channel=14 note=58 velocity=0 time=0.086536875
EXTRACT: note_off channel=1 note=34 velocity=0 time=0.004807604166666667
EXTRACT: note_on channel=9 note=36 velocity=122 time=0.004807604166666667
EXTRACT: note_on channel=9 note=39 velocity=80 time=0
EXTRACT: note_on channel=9 note=40 velocity=78 time=0
EXTRACT: note_on channel=9 note=44 velocity=92 time=0
EXTRACT: note_on channel=1 note=29 velocity=76 time=0
EXTRACT: note_on channel=5 note=65 velocity=74 time=0
EXTRACT: note_on channel=5 note=70 velocity=76 time=0
EXTRACT: note_on channel=6 note=62 velocity=102 time=0
EXTRACT: note_on channel=6 note=65 velocity=118 time=0
EXTRACT: note_on channel=14 note=46 velocity=63 time=0
EXTRACT: note_off channel=14 note=46 velocity=0 time=0.09855588541666667
EXTRACT: note_off channel=9 note=46 velocity=0 time=0.0144228125
EXTRACT: note_on channel=14 note=58 velocity=60 time=0.0024038020833333333
EXTRACT: note_off channel=6 note=65 velocity=0 time=0.024038020833333333
EXTRACT: note_off channel=6 note=62 velocity=0 time=0.004807604166666667
EXTRACT: note_off channel=5 note=65 velocity=0 time=0.0024038020833333333
EXTRACT: note_off channel=5 note=70 velocity=0 time=0.02163421875
EXTRACT: note_off channel=14 note=58 velocity=0 time=0.04086463541666667
EXTRACT: note_off channel=1 note=29 velocity=0 time=0.016826614583333333
EXTRACT: note_on channel=9 note=46 velocity=63 time=0.004807604166666667
EXTRACT: note_on channel=1 note=27 velocity=91 time=0
EXTRACT: note_on channel=2 note=70 velocity=46 time=0
EXTRACT: note_on channel=5 note=63 velocity=74 time=0
EXTRACT: note_on channel=5 note=68 velocity=69 time=0
EXTRACT: note_on channel=6 note=63 velocity=115 time=0
EXTRACT: note_on channel=6 note=65 velocity=96 time=0
EXTRACT: note_on channel=6 note=68 velocity=115 time=0
EXTRACT: note_on channel=12 note=53 velocity=88 time=0
EXTRACT: note_on channel=12 note=58 velocity=78 time=0
EXTRACT: note_on channel=12 note=63 velocity=74 time=0
EXTRACT: note_on channel=14 note=46 velocity=62 time=0
EXTRACT: note_off channel=9 note=44 velocity=0 time=0.036057031249999996
EXTRACT: note_off channel=2 note=80 velocity=0 time=0.0024038020833333333
EXTRACT: note_off channel=6 note=65 velocity=0 time=0.009615208333333333
EXTRACT: note_off channel=14 note=46 velocity=0 time=0.04086463541666667
EXTRACT: note_off channel=12 note=58 velocity=0 time=0.02163421875
EXTRACT: note_off channel=9 note=36 velocity=0 time=0.004807604166666667
EXTRACT: note_on channel=14 note=58 velocity=60 time=0
EXTRACT: note_off channel=5 note=68 velocity=0 time=0.0024038020833333333
EXTRACT: note_off channel=6 note=63 velocity=0 time=0
EXTRACT: note_off channel=12 note=63 velocity=0 time=0.004807604166666667
EXTRACT: note_off channel=12 note=53 velocity=0 time=0
EXTRACT: note_off channel=5 note=63 velocity=0 time=0.019230416666666666
EXTRACT: note_off channel=6 note=68 velocity=0 time=0
EXTRACT: note_off channel=14 note=58 velocity=0 time=0.06971026041666667
EXTRACT: note_on channel=9 note=36 velocity=125 time=0.019230416666666666
EXTRACT: note_on channel=9 note=44 velocity=85 time=0
EXTRACT: note_on channel=14 note=46 velocity=63 time=0
EXTRACT: note_off channel=9 note=46 velocity=0 time=0.07692166666666667
EXTRACT: note_off channel=14 note=46 velocity=0 time=0.012019010416666667
EXTRACT: note_off channel=1 note=27 velocity=0 time=0.019230416666666666
EXTRACT: note_on channel=14 note=58 velocity=59 time=0.00721140625
EXTRACT: pitchwheel channel=2 pitch=-256 time=0.019230416666666666
EXTRACT: pitchwheel channel=2 pitch=-1408 time=0.02163421875
EXTRACT: pitchwheel channel=2 pitch=-2304 time=0.019230416666666666
EXTRACT: pitchwheel channel=2 pitch=-2816 time=0.019230416666666666
EXTRACT: pitchwheel channel=2 pitch=-2944 time=0.019230416666666666
EXTRACT: note_off channel=14 note=58 velocity=0 time=0.004807604166666667
EXTRACT: note_on channel=9 note=36 velocity=120 time=0.012019010416666667
EXTRACT: note_on channel=9 note=46 velocity=71 time=0
EXTRACT: note_on channel=1 note=27 velocity=95 time=0
EXTRACT: note_on channel=5 note=63 velocity=63 time=0
EXTRACT: note_on channel=5 note=68 velocity=67 time=0
EXTRACT: note_on channel=6 note=63 velocity=127 time=0
EXTRACT: note_on channel=6 note=68 velocity=115 time=0
EXTRACT: note_on channel=12 note=53 velocity=85 time=0
EXTRACT: note_on channel=12 note=58 velocity=88 time=0
EXTRACT: note_on channel=12 note=63 velocity=88 time=0
EXTRACT: note_on channel=14 note=46 velocity=62 time=0
EXTRACT: pitchwheel channel=2 pitch=-2816 time=0.0024038020833333333
EXTRACT: pitchwheel channel=2 pitch=-2176 time=0.019230416666666666
EXTRACT: pitchwheel channel=2 pitch=-1536 time=0.019230416666666666
EXTRACT: note_off channel=9 note=40 velocity=0 time=0.012019010416666667
EXTRACT: note_off channel=9 note=39 velocity=0 time=0.0024038020833333333
EXTRACT: note_off channel=9 note=36 velocity=64 time=0.0024038020833333333
EXTRACT: pitchwheel channel=2 pitch=-768 time=0.0024038020833333333
EXTRACT: pitchwheel channel=2 pitch=0 time=0.019230416666666666
EXTRACT: note_off channel=9 note=36 velocity=0 time=0.00721140625
EXTRACT: note_off channel=9 note=44 velocity=0 time=0.0024038020833333333
EXTRACT: note_off channel=14 note=46 velocity=0 time=0.004807604166666667
EXTRACT: note_on channel=14 note=58 velocity=60 time=0.02163421875
EXTRACT: note_off channel=14 note=58 velocity=0 time=0.1009596875
EXTRACT: note_on channel=9 note=36 velocity=122 time=0.0144228125
EXTRACT: note_on channel=9 note=39 velocity=86 time=0
EXTRACT: note_on channel=9 note=40 velocity=86 time=0
EXTRACT: note_on channel=9 note=44 velocity=101 time=0
EXTRACT: note_on channel=14 note=46 velocity=63 time=0
EXTRACT: note_off channel=14 note=46 velocity=0 time=0.09134447916666666
EXTRACT: note_off channel=9 note=46 velocity=0 time=0.012019010416666667
EXTRACT: note_on channel=14 note=58 velocity=60 time=0.012019010416666667
EXTRACT: note_off channel=5 note=63 velocity=0 time=0.012019010416666667
EXTRACT: note_off channel=12 note=58 velocity=0 time=0.0024038020833333333
EXTRACT: note_off channel=9 note=36 velocity=0 time=0.0024038020833333333
EXTRACT: note_off channel=5 note=68 velocity=0 time=0.004807604166666667
EXTRACT: note_off channel=12 note=63 velocity=0 time=0.0024038020833333333
EXTRACT: note_off channel=12 note=53 velocity=0 time=0
EXTRACT: note_off channel=2 note=70 velocity=0 time=0.03846083333333333
EXTRACT: note_off channel=14 note=58 velocity=0 time=0.033653229166666666
EXTRACT: note_off channel=1 note=27 velocity=0 time=0.016826614583333333
EXTRACT: note_on channel=9 note=36 velocity=122 time=0.0024038020833333333
EXTRACT: note_on channel=9 note=46 velocity=70 time=0
EXTRACT: note_on channel=1 note=31 velocity=85 time=0
EXTRACT: note_on channel=12 note=53 velocity=78 time=0
EXTRACT: note_on channel=12 note=58 velocity=80 time=0
EXTRACT: note_on channel=12 note=63 velocity=82 time=0
EXTRACT: note_on channel=14 note=46 velocity=62 time=0
EXTRACT: note_off channel=6 note=63 velocity=0 time=0.04567223958333333
EXTRACT: note_off channel=9 note=39 velocity=0 time=0.012019010416666667
EXTRACT: note_off channel=9 note=40 velocity=0 time=0.004807604166666667
EXTRACT: note_off channel=6 note=68 velocity=0 time=0.004807604166666667
EXTRACT: note_off channel=9 note=44 velocity=0 time=0.016826614583333333
EXTRACT: note_off channel=12 note=58 velocity=0 time=0.004807604166666667
EXTRACT: note_off channel=14 note=46 velocity=0 time=0.004807604166666667
EXTRACT: note_off channel=12 note=63 velocity=0 time=0.012019010416666667
EXTRACT: note_off channel=12 note=53 velocity=0 time=0
EXTRACT: note_on channel=14 note=58 velocity=61 time=0.009615208333333333
EXTRACT: note_off channel=9 note=36 velocity=0 time=0.02163421875
EXTRACT: note_off channel=9 note=46 velocity=0 time=0.02163421875
EXTRACT: note_off channel=1 note=31 velocity=0 time=0.031249427083333333
EXTRACT: note_off channel=14 note=58 velocity=0 time=0.019230416666666666
EXTRACT: note_on channel=9 note=36 velocity=125 time=0.02163421875
EXTRACT: note_on channel=9 note=44 velocity=111 time=0
EXTRACT: note_on channel=9 note=49 velocity=80 time=0
EXTRACT: note_on channel=9 note=57 velocity=89 time=0
EXTRACT: note_on channel=1 note=34 velocity=104 time=0
EXTRACT: note_on channel=2 note=80 velocity=59 time=0
EXTRACT: note_on channel=12 note=53 velocity=88 time=0
EXTRACT: note_on channel=12 note=58 velocity=78 time=0
EXTRACT: note_on channel=12 note=62 velocity=76 time=0
EXTRACT: note_on channel=14 note=46 velocity=65 time=0
EXTRACT: note_off channel=9 note=49 velocity=0 time=0.07692166666666667
EXTRACT: note_off channel=14 note=46 velocity=0 time=0.009615208333333333
EXTRACT: note_off channel=9 note=57 velocity=0 time=0.0024038020833333333
EXTRACT: note_off channel=12 note=58 velocity=0 time=0.00721140625
EXTRACT: note_off channel=9 note=36 velocity=0 time=0.00721140625
EXTRACT: note_off channel=12 note=62 velocity=0 time=0.009615208333333333
EXTRACT: note_on channel=14 note=58 velocity=61 time=0.0024038020833333333
EXTRACT: note_off channel=12 note=53 velocity=0 time=0.00721140625
EXTRACT: note_off channel=14 note=58 velocity=0 time=0.10576729166666667
EXTRACT: note_on channel=9 note=46 velocity=75 time=0.0024038020833333333
EXTRACT: note_on channel=3 note=74 velocity=107 time=0
EXTRACT: note_on channel=4 note=86 velocity=97 time=0
EXTRACT: note_on channel=14 note=46 velocity=63 time=0
EXTRACT: pitchwheel channel=2 pitch=-128 time=0.02163421875
EXTRACT: note_off channel=9 note=44 velocity=0 time=0.004807604166666667
EXTRACT: pitchwheel channel=2 pitch=-1280 time=0.0144228125
EXTRACT: pitchwheel channel=2 pitch=-2048 time=0.019230416666666666
EXTRACT: note_off channel=14 note=46 velocity=0 time=0.012019010416666667
EXTRACT: pitchwheel channel=2 pitch=-2816 time=0.009615208333333333
EXTRACT: pitchwheel channel=2 pitch=-2944 time=0.019230416666666666
EXTRACT: note_on channel=14 note=58 velocity=60 time=0.0144228125
EXTRACT: pitchwheel channel=2 pitch=-2688 time=0.004807604166666667
EXTRACT: pitchwheel channel=2 pitch=-2176 time=0.019230416666666666
EXTRACT: note_off channel=3 note=74 velocity=0 time=0.00721140625
EXTRACT: note_off channel=4 note=86 velocity=0 time=0
EXTRACT: pitchwheel channel=2 pitch=-1664 time=0.012019010416666667
EXTRACT: pitchwheel channel=2 pitch=-1152 time=0.019230416666666666
EXTRACT: note_off channel=1 note=34 velocity=0 time=0.016826614583333333
EXTRACT: pitchwheel channel=2 pitch=0 time=0.0024038020833333333
EXTRACT: note_off channel=14 note=58 velocity=0 time=0.0024038020833333333
EXTRACT: note_on channel=9 note=36 velocity=107 time=0.031249427083333333
EXTRACT: note_on channel=9 note=39 velocity=78 time=0
EXTRACT: note_on channel=9 note=40 velocity=74 time=0
EXTRACT: note_on channel=9 note=44 velocity=92 time=0
EXTRACT: note_on channel=1 note=29 velocity=73 time=0
EXTRACT: note_on channel=3 note=74 velocity=107 time=0
EXTRACT: note_on channel=4 note=86 velocity=97 time=0
EXTRACT: note_on channel=6 note=58 velocity=102 time=0
EXTRACT: note_on channel=6 note=62 velocity=100 time=0
EXTRACT: note_on channel=6 note=65 velocity=105 time=0
EXTRACT: note_on channel=8 note=70 velocity=84 time=0
EXTRACT: note_on channel=8 note=74 velocity=70 time=0
EXTRACT: note_on channel=12 note=53 velocity=80 time=0
EXTRACT: note_on channel=12 note=58 velocity=73 time=0
EXTRACT: note_on channel=12 note=62 velocity=73 time=0
EXTRACT: note_on channel=14 note=46 velocity=63 time=0
EXTRACT: note_off channel=14 note=46 velocity=0 time=0.086536875
EXTRACT: note_off channel=8 note=70 velocity=0 time=0.0024038020833333333
EXTRACT: note_off channel=8 note=74 velocity=0 time=0.00721140625
EXTRACT: note_off channel=12 note=62 velocity=0 time=0.00721140625
EXTRACT: note_off channel=9 note=46 velocity=0 time=0.009615208333333333
EXTRACT: note_off channel=12 note=58 velocity=0 time=0
EXTRACT: note_on channel=14 note=58 velocity=60 time=0.0024038020833333333
EXTRACT: note_off channel=12 note=53 velocity=0 time=0.00721140625
EXTRACT: note_off channel=9 note=36 velocity=0 time=0.009615208333333333
EXTRACT: note_off channel=6 note=58 velocity=0 time=0.009615208333333333
EXTRACT: note_off channel=6 note=62 velocity=0 time=0.009615208333333333
EXTRACT: note_off channel=3 note=74 velocity=0 time=0.004807604166666667
EXTRACT: note_off channel=4 note=86 velocity=0 time=0
EXTRACT: note_off channel=1 note=29 velocity=0 time=0.012019010416666667
EXTRACT: note_off channel=6 note=65 velocity=0 time=0.02163421875
EXTRACT: note_off channel=14 note=58 velocity=0 time=0.012019010416666667
EXTRACT: note_on channel=9 note=46 velocity=63 time=0.028845625
EXTRACT: note_on channel=1 note=27 velocity=88 time=0
EXTRACT: note_on channel=3 note=74 velocity=107 time=0
EXTRACT: note_on channel=4 note=86 velocity=97 time=0
EXTRACT: note_on channel=6 note=58 velocity=100 time=0
EXTRACT: note_on channel=6 note=63 velocity=102 time=0
EXTRACT: note_on channel=6 note=68 velocity=115 time=0
EXTRACT: note_on channel=8 note=70 velocity=84 time=0
EXTRACT: note_on channel=8 note=74 velocity=70 time=0
EXTRACT: note_on channel=12 note=53 velocity=76 time=0
EXTRACT: note_on channel=12 note=58 velocity=74 time=0
EXTRACT: note_on channel=12 note=63 velocity=74 time=0
EXTRACT: note_on channel=14 note=46 velocity=61 time=0
EXTRACT: note_off channel=9 note=44 velocity=0 time=0.036057031249999996
EXTRACT: note_off channel=14 note=46 velocity=0 time=0.05047984375
EXTRACT: note_off channel=6 note=58 velocity=0 time=0.0144228125
EXTRACT: note_off channel=6 note=63 velocity=0 time=0.0024038020833333333
EXTRACT: note_off channel=8 note=74 velocity=0 time=0
EXTRACT: note_off channel=8 note=70 velocity=0 time=0.0024038020833333333
EXTRACT: note_off channel=6 note=68 velocity=0 time=0.00721140625
EXTRACT: note_off channel=12 note=53 velocity=0 time=0
EXTRACT: note_on channel=14 note=58 velocity=60 time=0.0024038020833333333
EXTRACT: note_off channel=12 note=58 velocity=0 time=0.016826614583333333
EXTRACT: note_off channel=12 note=63 velocity=0 time=0.012019010416666667
EXTRACT: note_off channel=14 note=58 velocity=0 time=0.05528744791666666
EXTRACT: note_on channel=9 note=36 velocity=93 time=0.031249427083333333
EXTRACT: note_on channel=9 note=44 velocity=85 time=0
EXTRACT: note_on channel=3 note=72 velocity=107 time=0
EXTRACT: note_on channel=4 note=84 velocity=97 time=0
EXTRACT: note_on channel=14 note=46 velocity=62 time=0
EXTRACT: note_off channel=3 note=74 velocity=0 time=0.054085546875
EXTRACT: note_off channel=4 note=86 velocity=0 time=0
EXTRACT: note_off channel=9 note=46 velocity=0 time=0.022836119791666665
EXTRACT: note_off channel=14 note=46 velocity=0 time=0.0144228125
EXTRACT: note_on channel=14 note=58 velocity=60 time=0.024038020833333333
EXTRACT: note_off channel=3 note=72 velocity=0 time=0.004807604166666667
EXTRACT: note_off channel=4 note=84 velocity=0 time=0
EXTRACT: note_off channel=1 note=27 velocity=0 time=0.060095052083333336
EXTRACT: note_off channel=14 note=58 velocity=0 time=0.026441822916666666
EXTRACT: note_on channel=9 note=36 velocity=120 time=0.024038020833333333
EXTRACT: note_on channel=9 note=46 velocity=71 time=0
EXTRACT: note_on channel=1 note=27 velocity=95 time=0
EXTRACT: note_on channel=3 note=72 velocity=107 time=0
EXTRACT: note_on channel=4 note=84 velocity=97 time=0
EXTRACT: note_on channel=6 note=58 velocity=108 time=0
EXTRACT: note_on channel=6 note=63 velocity=108 time=0
EXTRACT: note_on channel=6 note=68 velocity=115 time=0
EXTRACT: note_on channel=8 note=70 velocity=79 time=0
EXTRACT: note_on channel=8 note=74 velocity=73 time=0
EXTRACT: note_on channel=12 note=53 velocity=71 time=0
EXTRACT: note_on channel=12 note=58 velocity=78 time=0
EXTRACT: note_on channel=12 note=63 velocity=78 time=0
EXTRACT: note_on channel=14 note=46 velocity=61 time=0
EXTRACT: note_off channel=9 note=36 velocity=0 time=0.028845625
EXTRACT: note_off channel=9 note=36 velocity=64 time=0.028845625
EXTRACT: note_off channel=9 note=44 velocity=0 time=0.031249427083333333
EXTRACT: note_off channel=14 note=46 velocity=0 time=0.0024038020833333333
EXTRACT: note_off channel=9 note=39 velocity=0 time=0.0024038020833333333
EXTRACT: note_off channel=8 note=70 velocity=0 time=0.0024038020833333333
EXTRACT: note_off channel=9 note=40 velocity=0 time=0.00721140625
EXTRACT: note_off channel=8 note=74 velocity=0 time=0.0024038020833333333
EXTRACT: note_on channel=14 note=58 velocity=60 time=0.009615208333333333
EXTRACT: note_off channel=14 note=58 velocity=0 time=0.09374828125
EXTRACT: note_on channel=9 note=36 velocity=125 time=0.02163421875
EXTRACT: note_on channel=9 note=39 velocity=62 time=0
EXTRACT: note_on channel=9 note=40 velocity=66 time=0
EXTRACT: note_on channel=9 note=44 velocity=101 time=0
EXTRACT: note_on channel=2 note=79 velocity=43 time=0
EXTRACT: note_on channel=8 note=70 velocity=84 time=0
EXTRACT: note_on channel=8 note=75 velocity=84 time=0
EXTRACT: note_on channel=14 note=46 velocity=63 time=0
EXTRACT: note_off channel=2 note=80 velocity=0 time=0.036057031249999996
EXTRACT: note_off channel=3 note=72 velocity=0 time=0.033653229166666666
EXTRACT: note_off channel=4 note=84 velocity=0 time=0
EXTRACT: note_off channel=14 note=46 velocity=0 time=0.026441822916666666
EXTRACT: note_off channel=9 note=46 velocity=0 time=0.00721140625
EXTRACT: note_off channel=12 note=53 velocity=0 time=0.004807604166666667
EXTRACT: note_on channel=14 note=58 velocity=60 time=0.00721140625
EXTRACT: note_off channel=12 note=58 velocity=0 time=0.00721140625
EXTRACT: note_off channel=12 note=63 velocity=0 time=0.0144228125
EXTRACT: note_off channel=14 note=58 velocity=0 time=0.07932546875
EXTRACT: note_off channel=6 note=58 velocity=0 time=0.0024038020833333333
EXTRACT: note_off channel=1 note=27 velocity=0 time=0.009615208333333333
EXTRACT: note_on channel=9 note=46 velocity=70 time=0.0024038020833333333
EXTRACT: note_on channel=1 note=31 velocity=62 time=0
EXTRACT: note_on channel=2 note=77 velocity=25 time=0
EXTRACT: note_on channel=3 note=70 velocity=107 time=0
EXTRACT: note_on channel=4 note=82 velocity=97 time=0
EXTRACT: note_off channel=6 note=68 velocity=0 time=0
EXTRACT: note_on channel=12 note=53 velocity=71 time=0
EXTRACT: note_on channel=12 note=58 velocity=73 time=0
EXTRACT: note_on channel=12 note=63 velocity=68 time=0
EXTRACT: note_on channel=14 note=46 velocity=63 time=0
EXTRACT: note_off channel=6 note=63 velocity=0 time=0.009615208333333333
EXTRACT: note_off channel=2 note=79 velocity=0 time=0.004807604166666667
EXTRACT: note_off channel=9 note=44 velocity=0 time=0.06971026041666667
EXTRACT: note_off channel=9 note=36 velocity=0 time=0.0024038020833333333
EXTRACT: note_off channel=14 note=46 velocity=0 time=0.00721140625
EXTRACT: note_on channel=14 note=58 velocity=59 time=0.02163421875
EXTRACT: note_off channel=8 note=70 velocity=0 time=0.00721140625
EXTRACT: note_off channel=12 note=53 velocity=0 time=0
EXTRACT: note_off channel=12 note=58 velocity=0 time=0.012019010416666667
EXTRACT: note_off channel=8 note=75 velocity=0 time=0.004807604166666667
EXTRACT: note_off channel=9 note=46 velocity=0 time=0.019230416666666666
EXTRACT: note_off channel=12 note=63 velocity=0 time=0.004807604166666667
EXTRACT: note_off channel=1 note=31 velocity=0 time=0.016826614583333333
EXTRACT: note_off channel=2 note=77 velocity=0 time=0.031249427083333333
EXTRACT: note_off channel=14 note=58 velocity=0 time=0.004807604166666667
EXTRACT: note_on channel=9 note=36 velocity=118 time=0.0144228125
EXTRACT: note_on channel=9 note=44 velocity=111 time=0
EXTRACT: note_on channel=1 note=34 velocity=82 time=0
EXTRACT: note_on channel=2 note=77 velocity=36 time=0
EXTRACT: note_on channel=12 note=53 velocity=74 time=0
EXTRACT: note_on channel=12 note=58 velocity=73 time=0
EXTRACT: note_on channel=12 note=62 velocity=71 time=0
EXTRACT: note_on channel=14 note=46 velocity=63 time=0
EXTRACT: note_off channel=3 note=70 velocity=0 time=0.05769125
EXTRACT: note_off channel=4 note=82 velocity=0 time=0
EXTRACT: note_off channel=12 note=58 velocity=0 time=0.036057031249999996
EXTRACT: note_off channel=14 note=46 velocity=0 time=0
EXTRACT: note_off channel=12 note=62 velocity=0 time=0.012019010416666667
EXTRACT: note_off channel=12 note=53 velocity=0 time=0.004807604166666667
EXTRACT: note_on channel=14 note=58 velocity=60 time=0.004807604166666667
EXTRACT: note_off channel=14 note=58 velocity=0 time=0.10576729166666667
EXTRACT: note_on channel=9 note=46 velocity=75 time=0.009615208333333333
EXTRACT: note_on channel=3 note=70 velocity=107 time=0
EXTRACT: note_on channel=4 note=82 velocity=97 time=0
EXTRACT: note_on channel=6 note=58 velocity=98 time=0
EXTRACT: note_on channel=6 note=62 velocity=98 time=0
EXTRACT: note_on channel=6 note=65 velocity=102 time=0
EXTRACT: note_on channel=14 note=46 velocity=62 time=0
EXTRACT: note_off channel=9 note=44 velocity=0 time=0.026441822916666666
EXTRACT: note_off channel=9 note=36 velocity=0 time=0.05047984375
EXTRACT: note_off channel=6 note=58 velocity=0 time=0.004807604166666667
EXTRACT: note_off channel=14 note=46 velocity=0 time=0.0024038020833333333
EXTRACT: note_off channel=6 note=62 velocity=0 time=0.0024038020833333333
EXTRACT: note_off channel=9 note=40 velocity=0 time=0.009615208333333333
EXTRACT: note_off channel=9 note=39 velocity=0 time=0.009615208333333333
EXTRACT: note_off channel=6 note=65 velocity=0 time=0
EXTRACT: note_on channel=14 note=58 velocity=60 time=0.009615208333333333
EXTRACT: note_off channel=14 note=58 velocity=0 time=0.10576729166666667
EXTRACT: note_off channel=1 note=34 velocity=0 time=0.004807604166666667
EXTRACT: note_on channel=9 note=36 velocity=118 time=0.004807604166666667
EXTRACT: note_on channel=9 note=39 velocity=66 time=0
EXTRACT: note_on channel=9 note=40 velocity=74 time=0
EXTRACT: note_on channel=9 note=44 velocity=92 time=0
EXTRACT: note_on channel=1 note=29 velocity=76 time=0
EXTRACT: note_on channel=6 note=58 velocity=88 time=0
EXTRACT: note_on channel=6 note=62 velocity=93 time=0
EXTRACT: note_on channel=6 note=65 velocity=94 time=0
EXTRACT: note_on channel=8 note=70 velocity=84 time=0
EXTRACT: note_on channel=8 note=74 velocity=79 time=0
EXTRACT: note_on channel=12 note=53 velocity=82 time=0
EXTRACT: note_on channel=12 note=58 velocity=78 time=0
EXTRACT: note_on channel=12 note=62 velocity=73 time=0
EXTRACT: note_on channel=14 note=46 velocity=63 time=0
EXTRACT: note_off channel=6 note=58 velocity=0 time=0.08413307291666666
EXTRACT: note_off channel=8 note=70 velocity=0 time=0.009615208333333333
EXTRACT: note_off channel=8 note=74 velocity=0 time=0.004807604166666667
EXTRACT: note_off channel=14 note=46 velocity=0 time=0
EXTRACT: note_off channel=6 note=62 velocity=0 time=0.009615208333333333
EXTRACT: note_off channel=9 note=46 velocity=0 time=0.004807604166666667
EXTRACT: note_on channel=14 note=58 velocity=60 time=0.0024038020833333333
EXTRACT: note_off channel=6 note=65 velocity=0 time=0.009615208333333333
EXTRACT: note_off channel=12 note=62 velocity=0 time=0.024038020833333333
EXTRACT: note_off channel=12 note=58 velocity=0 time=0
EXTRACT: note_off channel=12 note=53 velocity=0 time=0
EXTRACT: note_off channel=14 note=58 velocity=0 time=0.060095052083333336
EXTRACT: note_off channel=1 note=29 velocity=0 time=0.016826614583333333
EXTRACT: note_on channel=9 note=46 velocity=63 time=0.004807604166666667
EXTRACT: note_on channel=1 note=27 velocity=91 time=0
EXTRACT: note_on channel=3 note=68 velocity=107 time=0
EXTRACT: note_on channel=4 note=80 velocity=97 time=0
EXTRACT: note_on channel=6 note=58 velocity=102 time=0
EXTRACT: note_on channel=6 note=63 velocity=102 time=0
EXTRACT: note_on channel=6 note=68 velocity=108 time=0
EXTRACT: note_on channel=8 note=70 velocity=79 time=0
EXTRACT: note_on channel=8 note=74 velocity=70 time=0
EXTRACT: note_on channel=12 note=53 velocity=82 time=0
EXTRACT: note_on channel=12 note=58 velocity=80 time=0
EXTRACT: note_on channel=12 note=63 velocity=80 time=0
EXTRACT: note_on channel=14 note=46 velocity=62 time=0
EXTRACT: note_off channel=9 note=44 velocity=0 time=0.036057031249999996
EXTRACT: note_off channel=14 note=46 velocity=0 time=0.05288364583333333
EXTRACT: note_off channel=6 note=58 velocity=0 time=0.012019010416666667
EXTRACT: note_off channel=3 note=70 velocity=0 time=0.0024038020833333333
EXTRACT: note_off channel=4 note=82 velocity=0 time=0
EXTRACT: note_on channel=14 note=58 velocity=60 time=0.012019010416666667
EXTRACT: note_off channel=6 note=63 velocity=0 time=0.0024038020833333333
EXTRACT: note_off channel=6 note=68 velocity=0 time=0.0144228125
EXTRACT: note_off channel=12 note=58 velocity=0 time=0.0024038020833333333
EXTRACT: note_off channel=12 note=63 velocity=0 time=0.004807604166666667
EXTRACT: note_off channel=9 note=36 velocity=0 time=0.0024038020833333333
EXTRACT: note_off channel=8 note=70 velocity=0 time=0.004807604166666667
EXTRACT: note_off channel=8 note=74 velocity=0 time=0.0024038020833333333
EXTRACT: note_off channel=12 note=53 velocity=0 time=0
EXTRACT: note_off channel=14 note=58 velocity=0 time=0.062498854166666666
EXTRACT: note_on channel=9 note=36 velocity=125 time=0.019230416666666666
EXTRACT: note_on channel=9 note=44 velocity=85 time=0
EXTRACT: note_on channel=2 note=75 velocity=33 time=0
EXTRACT: note_on channel=14 note=46 velocity=63 time=0
EXTRACT: note_off channel=2 note=77 velocity=0 time=0.033653229166666666
EXTRACT: note_off channel=9 note=46 velocity=0 time=0.0432684375
EXTRACT: note_off channel=14 note=46 velocity=0 time=0.012019010416666667
EXTRACT: note_off channel=1 note=27 velocity=0 time=0.019230416666666666
EXTRACT: note_on channel=14 note=58 velocity=59 time=0.00721140625
EXTRACT: note_off channel=14 note=58 velocity=0 time=0.10336348958333333
EXTRACT: note_on channel=9 note=36 velocity=120 time=0.012019010416666667
EXTRACT: note_on channel=9 note=46 velocity=71 time=0
EXTRACT: note_on channel=1 note=27 velocity=95 time=0
EXTRACT: note_on channel=6 note=58 velocity=98 time=0
EXTRACT: note_on channel=6 note=63 velocity=102 time=0
EXTRACT: note_on channel=6 note=68 velocity=102 time=0
EXTRACT: note_on channel=8 note=70 velocity=84 time=0
EXTRACT: note_on channel=8 note=75 velocity=79 time=0
EXTRACT: note_on channel=12 note=53 velocity=80 time=0
EXTRACT: note_on channel=12 note=58 velocity=78 time=0
EXTRACT: note_on channel=12 note=63 velocity=80 time=0
EXTRACT: note_on channel=14 note=46 velocity=62 time=0
EXTRACT: note_off channel=9 note=36 velocity=64 time=0.05769125
EXTRACT: note_off channel=9 note=44 velocity=0 time=0.031249427083333333
EXTRACT: pitchwheel channel=2 pitch=-512 time=0
EXTRACT: note_off channel=9 note=39 velocity=0 time=0.0024038020833333333
EXTRACT: note_off channel=9 note=40 velocity=0 time=0.0024038020833333333
EXTRACT: note_off channel=14 note=46 velocity=0 time=0
EXTRACT: pitchwheel channel=2 pitch=-1024 time=0.0144228125
EXTRACT: note_off channel=9 note=36 velocity=0 time=0.004807604166666667
EXTRACT: note_on channel=14 note=58 velocity=60 time=0.0024038020833333333
EXTRACT: pitchwheel channel=2 pitch=-1152 time=0.031249427083333333
EXTRACT: pitchwheel channel=2 pitch=-1280 time=0.03846083333333333
EXTRACT: note_off channel=14 note=58 velocity=0 time=0.031249427083333333
EXTRACT: note_on channel=9 note=36 velocity=122 time=0.0144228125
EXTRACT: note_on channel=9 note=39 velocity=65 time=0
EXTRACT: note_on channel=9 note=40 velocity=63 time=0
EXTRACT: note_on channel=9 note=44 velocity=101 time=0
EXTRACT: note_on channel=14 note=46 velocity=63 time=0
EXTRACT: pitchwheel channel=2 pitch=-1024 time=0.012019010416666667
EXTRACT: pitchwheel channel=2 pitch=-640 time=0.019230416666666666
EXTRACT: pitchwheel channel=2 pitch=0 time=0.019230416666666666
EXTRACT: note_off channel=14 note=46 velocity=0 time=0.04086463541666667
EXTRACT: note_off channel=9 note=46 velocity=0 time=0.012019010416666667
EXTRACT: note_on channel=14 note=58 velocity=60 time=0.012019010416666667
EXTRACT: note_off channel=6 note=58 velocity=0 time=0.04086463541666667
EXTRACT: note_off channel=6 note=63 velocity=0 time=0.02163421875
EXTRACT: note_off channel=6 note=68 velocity=0 time=0.024038020833333333
EXTRACT: note_off channel=14 note=58 velocity=0 time=0.009615208333333333
EXTRACT: note_off channel=1 note=27 velocity=0 time=0.016826614583333333
EXTRACT: note_on channel=9 note=46 velocity=70 time=0.0024038020833333333
EXTRACT: note_on channel=1 note=31 velocity=85 time=0
EXTRACT: note_on channel=14 note=46 velocity=62 time=0
EXTRACT: note_off channel=12 note=58 velocity=0 time=0.0144228125
EXTRACT: note_off channel=8 note=70 velocity=0 time=0.004807604166666667
EXTRACT: note_off channel=12 note=63 velocity=0 time=0.0024038020833333333
EXTRACT: note_off channel=12 note=53 velocity=0 time=0.004807604166666667
EXTRACT: note_off channel=8 note=75 velocity=0 time=0.0024038020833333333
EXTRACT: note_off channel=9 note=44 velocity=0 time=0.05528744791666666
EXTRACT: note_off channel=14 note=46 velocity=0 time=0.009615208333333333
EXTRACT: note_on channel=14 note=58 velocity=61 time=0.02163421875
EXTRACT: note_off channel=9 note=36 velocity=0 time=0.0024038020833333333
EXTRACT: note_off channel=9 note=46 velocity=0 time=0.04086463541666667
EXTRACT: note_off channel=3 note=68 velocity=0 time=0.0024038020833333333
EXTRACT: note_off channel=4 note=80 velocity=0 time=0
EXTRACT: note_off channel=1 note=31 velocity=0 time=0.028845625
EXTRACT: note_off channel=14 note=58 velocity=0 time=0.019230416666666666
EXTRACT: note_on channel=9 note=36 velocity=118 time=0.02163421875
EXTRACT: note_on channel=9 note=44 velocity=111 time=0
EXTRACT: note_on channel=1 note=34 velocity=104 time=0
EXTRACT: note_on channel=2 note=74 velocity=27 time=0
EXTRACT: note_on channel=14 note=46 velocity=65 time=0
EXTRACT: note_off channel=2 note=75 velocity=0 time=0.019230416666666666
EXTRACT: note_off channel=14 note=46 velocity=0 time=0.06730645833333333
EXTRACT: note_on channel=14 note=58 velocity=61 time=0.028845625
EXTRACT: note_off channel=14 note=58 velocity=0 time=0.11297869791666666
EXTRACT: note_on channel=9 note=46 velocity=75 time=0.0024038020833333333
EXTRACT: note_on channel=3 note=74 velocity=107 time=0
EXTRACT: note_on channel=4 note=86 velocity=97 time=0
EXTRACT: note_on channel=12 note=53 velocity=85 time=0
EXTRACT: note_on channel=12 note=58 velocity=80 time=0
EXTRACT: note_on channel=12 note=62 velocity=76 time=0
EXTRACT: note_on channel=14 note=46 velocity=63 time=0
EXTRACT: note_off channel=9 note=44 velocity=0 time=0.026441822916666666
EXTRACT: note_off channel=9 note=39 velocity=0 time=0.04086463541666667
EXTRACT: note_off channel=14 note=46 velocity=0 time=0.004807604166666667
EXTRACT: note_off channel=9 note=40 velocity=0 time=0.0024038020833333333
EXTRACT: note_off channel=12 note=58 velocity=0 time=0.019230416666666666
EXTRACT: note_off channel=9 note=36 velocity=0 time=0.00721140625
EXTRACT: note_off channel=12 note=62 velocity=0 time=0
EXTRACT: pitchwheel channel=2 pitch=-512 time=0.009615208333333333
EXTRACT: note_off channel=12 note=53 velocity=0 time=0.004807604166666667
EXTRACT: note_on channel=14 note=58 velocity=60 time=0
EXTRACT: pitchwheel channel=2 pitch=-1280 time=0.0144228125
EXTRACT: note_off channel=3 note=74 velocity=0 time=0.016826614583333333
EXTRACT: note_off channel=4 note=86 velocity=0 time=0
EXTRACT: pitchwheel channel=2 pitch=-1792 time=0.0024038020833333333
EXTRACT: pitchwheel channel=2 pitch=-1920 time=0.019230416666666666
EXTRACT: note_off channel=1 note=34 velocity=0 time=0.026441822916666666
EXTRACT: note_off channel=14 note=58 velocity=0 time=0.004807604166666667
EXTRACT: pitchwheel channel=2 pitch=-1664 time=0.00721140625
EXTRACT: pitchwheel channel=2 pitch=-1280 time=0.019230416666666666
EXTRACT: note_on channel=9 note=36 velocity=118 time=0.004807604166666667
EXTRACT: note_on channel=9 note=39 velocity=62 time=0
EXTRACT: note_on channel=9 note=40 velocity=63 time=0
EXTRACT: note_on channel=9 note=44 velocity=92 time=0
EXTRACT: note_on channel=1 note=29 velocity=73 time=0
EXTRACT: note_on channel=3 note=74 velocity=107 time=0
EXTRACT: note_on channel=4 note=86 velocity=97 time=0
EXTRACT: note_on channel=6 note=58 velocity=102 time=0
EXTRACT: note_on channel=6 note=62 velocity=100 time=0
EXTRACT: note_on channel=6 note=65 velocity=105 time=0
EXTRACT: note_on channel=8 note=70 velocity=84 time=0
EXTRACT: note_on channel=8 note=74 velocity=70 time=0
EXTRACT: note_on channel=14 note=46 velocity=63 time=0
EXTRACT: pitchwheel channel=2 pitch=-896 time=0.0144228125
EXTRACT: pitchwheel channel=2 pitch=-128 time=0.02163421875
EXTRACT: pitchwheel channel=2 pitch=0 time=0.019230416666666666
EXTRACT: note_off channel=14 note=46 velocity=0 time=0.031249427083333333
EXTRACT: note_off channel=8 note=70 velocity=0 time=0.0024038020833333333
EXTRACT: note_off channel=8 note=74 velocity=0 time=0.00721140625
EXTRACT: note_off channel=9 note=46 velocity=0 time=0.016826614583333333
EXTRACT: note_on channel=14 note=58 velocity=60 time=0.0024038020833333333
EXTRACT: note_off channel=6 note=58 velocity=0 time=0.026441822916666666
EXTRACT: note_off channel=6 note=62 velocity=0 time=0.009615208333333333
EXTRACT: note_off channel=3 note=74 velocity=0 time=0.0012019010416666667
EXTRACT: note_off channel=4 note=86 velocity=0 time=0
EXTRACT: note_off channel=1 note=29 velocity=0 time=0.015624713541666667
EXTRACT: note_off channel=6 note=65 velocity=0 time=0.02163421875
EXTRACT: note_off channel=14 note=58 velocity=0 time=0.012019010416666667
EXTRACT: note_on channel=9 note=46 velocity=63 time=0.028845625
EXTRACT: note_on channel=1 note=27 velocity=88 time=0
EXTRACT: note_on channel=3 note=74 velocity=107 time=0
EXTRACT: note_on channel=4 note=86 velocity=97 time=0
EXTRACT: note_on channel=6 note=58 velocity=100 time=0
EXTRACT: note_on channel=6 note=63 velocity=102 time=0
EXTRACT: note_on channel=6 note=68 velocity=115 time=0
EXTRACT: note_on channel=8 note=70 velocity=84 time=0
EXTRACT: note_on channel=8 note=74 velocity=70 time=0
EXTRACT: note_on channel=12 note=53 velocity=80 time=0
EXTRACT: note_on channel=12 note=58 velocity=78 time=0
EXTRACT: note_on channel=12 note=62 velocity=68 time=0
EXTRACT: note_on channel=14 note=46 velocity=61 time=0
EXTRACT: note_off channel=9 note=44 velocity=0 time=0.036057031249999996
EXTRACT: note_off channel=12 note=62 velocity=0 time=0.04567223958333333
EXTRACT: note_off channel=12 note=58 velocity=0 time=0.0024038020833333333
EXTRACT: note_off channel=14 note=46 velocity=0 time=0.0024038020833333333
EXTRACT: note_off channel=12 note=53 velocity=0 time=0.012019010416666667
EXTRACT: note_off channel=6 note=58 velocity=0 time=0.0024038020833333333
EXTRACT: note_off channel=6 note=63 velocity=0 time=0.0024038020833333333
EXTRACT: note_off channel=8 note=74 velocity=0 time=0
EXTRACT: note_off channel=8 note=70 velocity=0 time=0.0024038020833333333
EXTRACT: note_off channel=6 note=68 velocity=0 time=0.00721140625
EXTRACT: note_on channel=14 note=58 velocity=60 time=0.0024038020833333333
EXTRACT: note_off channel=9 note=36 velocity=0 time=0.02163421875
EXTRACT: note_off channel=14 note=58 velocity=0 time=0.062498854166666666
EXTRACT: note_on channel=9 note=36 velocity=125 time=0.031249427083333333
EXTRACT: note_on channel=9 note=44 velocity=85 time=0
EXTRACT: note_on channel=3 note=72 velocity=107 time=0
EXTRACT: note_on channel=4 note=84 velocity=97 time=0
EXTRACT: note_on channel=12 note=53 velocity=85 time=0
EXTRACT: note_on channel=12 note=58 velocity=82 time=0
EXTRACT: note_on channel=12 note=63 velocity=82 time=0
EXTRACT: note_on channel=14 note=46 velocity=62 time=0
EXTRACT: note_off channel=3 note=74 velocity=0 time=0.054085546875
EXTRACT: note_off channel=4 note=86 velocity=0 time=0
EXTRACT: note_off channel=9 note=46 velocity=0 time=0.022836119791666665
EXTRACT: note_off channel=14 note=46 velocity=0 time=0.0144228125
EXTRACT: note_on channel=14 note=58 velocity=60 time=0.024038020833333333
EXTRACT: note_off channel=3 note=72 velocity=0 time=0.0012019010416666667
EXTRACT: note_off channel=4 note=84 velocity=0 time=0
EXTRACT: note_off channel=1 note=27 velocity=0 time=0.06370075520833333
EXTRACT: note_off channel=12 note=58 velocity=0 time=0.0144228125
EXTRACT: note_off channel=14 note=58 velocity=0 time=0.012019010416666667
EXTRACT: note_off channel=12 note=63 velocity=0 time=0.004807604166666667
EXTRACT: note_on channel=9 note=36 velocity=120 time=0.019230416666666666
EXTRACT: note_on channel=9 note=46 velocity=71 time=0
EXTRACT: note_on channel=1 note=27 velocity=95 time=0
EXTRACT: note_on channel=3 note=72 velocity=107 time=0
EXTRACT: note_on channel=4 note=84 velocity=97 time=0
EXTRACT: note_on channel=6 note=58 velocity=108 time=0
EXTRACT: note_on channel=6 note=63 velocity=108 time=0
EXTRACT: note_on channel=6 note=68 velocity=115 time=0
EXTRACT: note_on channel=8 note=70 velocity=79 time=0
EXTRACT: note_on channel=8 note=74 velocity=73 time=0
EXTRACT: note_on channel=14 note=46 velocity=61 time=0
EXTRACT: note_off channel=9 note=36 velocity=64 time=0.05769125
EXTRACT: note_off channel=12 note=53 velocity=0 time=0.0024038020833333333
EXTRACT: note_off channel=9 note=44 velocity=0 time=0.028845625
EXTRACT: note_off channel=9 note=40 velocity=0 time=0.0024038020833333333
EXTRACT: note_off channel=14 note=46 velocity=0 time=0
EXTRACT: note_off channel=9 note=36 velocity=0 time=0.0024038020833333333
EXTRACT: note_off channel=9 note=39 velocity=0 time=0
EXTRACT: note_off channel=8 note=70 velocity=0 time=0.0024038020833333333
EXTRACT: note_off channel=8 note=74 velocity=0 time=0.009615208333333333
EXTRACT: note_on channel=14 note=58 velocity=60 time=0.009615208333333333
EXTRACT: note_off channel=14 note=58 velocity=0 time=0.09374828125
EXTRACT: note_on channel=9 note=36 velocity=125 time=0.02163421875
EXTRACT: note_on channel=9 note=39 velocity=66 time=0
EXTRACT: note_on channel=9 note=40 velocity=65 time=0
EXTRACT: note_on channel=9 note=44 velocity=101 time=0
EXTRACT: note_on channel=8 note=70 velocity=84 time=0
EXTRACT: note_on channel=8 note=75 velocity=84 time=0
EXTRACT: note_on channel=12 note=53 velocity=82 time=0
EXTRACT: note_on channel=12 note=58 velocity=88 time=0
EXTRACT: note_on channel=12 note=63 velocity=82 time=0
EXTRACT: note_on channel=14 note=46 velocity=63 time=0
EXTRACT: note_off channel=14 note=46 velocity=0 time=0.09615208333333333
EXTRACT: note_off channel=9 note=46 velocity=0 time=0.00721140625
EXTRACT: note_on channel=14 note=58 velocity=60 time=0.012019010416666667
EXTRACT: note_off channel=12 note=53 velocity=0 time=0.0432684375
EXTRACT: note_off channel=12 note=58 velocity=0 time=0.04086463541666667
EXTRACT: note_off channel=12 note=63 velocity=0 time=0.016826614583333333
EXTRACT: note_off channel=14 note=58 velocity=0 time=0
EXTRACT: note_off channel=6 note=58 velocity=0 time=0.0024038020833333333
EXTRACT: note_off channel=1 note=27 velocity=0 time=0.009615208333333333
EXTRACT: note_on channel=9 note=46 velocity=70 time=0.0024038020833333333
EXTRACT: note_on channel=1 note=31 velocity=62 time=0
EXTRACT: note_on channel=3 note=70 velocity=107 time=0
EXTRACT: note_on channel=4 note=82 velocity=97 time=0
EXTRACT: note_off channel=6 note=68 velocity=0 time=0
EXTRACT: note_on channel=12 note=53 velocity=82 time=0
EXTRACT: note_on channel=12 note=58 velocity=73 time=0
EXTRACT: note_on channel=12 note=62 velocity=73 time=0
EXTRACT: note_on channel=14 note=46 velocity=63 time=0
EXTRACT: note_off channel=6 note=63 velocity=0 time=0.009615208333333333
EXTRACT: note_off channel=9 note=44 velocity=0 time=0.07451786458333333
EXTRACT: note_off channel=12 note=62 velocity=0 time=0.0024038020833333333
EXTRACT: note_off channel=9 note=36 velocity=0 time=0.004807604166666667
EXTRACT: note_off channel=14 note=46 velocity=0 time=0.0024038020833333333
EXTRACT: note_off channel=12 note=58 velocity=0 time=0.016826614583333333
EXTRACT: note_off channel=12 note=53 velocity=0 time=0
EXTRACT: note_off channel=3 note=72 velocity=0 time=0.0012019010416666667
EXTRACT: note_off channel=4 note=84 velocity=0 time=0
EXTRACT: note_on channel=14 note=58 velocity=59 time=0.003605703125
EXTRACT: note_off channel=8 note=70 velocity=0 time=0.00721140625
EXTRACT: note_off channel=8 note=75 velocity=0 time=0.016826614583333333
EXTRACT: note_off channel=9 note=46 velocity=0 time=0.019230416666666666
EXTRACT: note_off channel=1 note=31 velocity=0 time=0.02163421875
EXTRACT: note_off channel=14 note=58 velocity=0 time=0.036057031249999996
EXTRACT: note_on channel=9 note=36 velocity=125 time=0.0144228125
EXTRACT: note_on channel=9 note=44 velocity=111 time=0
EXTRACT: note_on channel=1 note=34 velocity=82 time=0
EXTRACT: note_on channel=2 note=72 velocity=27 time=0
EXTRACT: note_on channel=14 note=46 velocity=63 time=0
EXTRACT: note_off channel=3 note=70 velocity=0 time=0.012019010416666667
EXTRACT: note_off channel=4 note=82 velocity=0 time=0
EXTRACT: note_off channel=2 note=74 velocity=0 time=0.019230416666666666
EXTRACT: note_off channel=14 note=46 velocity=0 time=0.062498854166666666
EXTRACT: note_on channel=14 note=58 velocity=60 time=0.02163421875
EXTRACT: note_off channel=14 note=58 velocity=0 time=0.10576729166666667
EXTRACT: note_on channel=9 note=46 velocity=75 time=0.009615208333333333
EXTRACT: note_on channel=3 note=70 velocity=107 time=0
EXTRACT: note_on channel=4 note=82 velocity=97 time=0
EXTRACT: note_on channel=6 note=58 velocity=98 time=0
EXTRACT: note_on channel=6 note=62 velocity=98 time=0
EXTRACT: note_on channel=6 note=65 velocity=102 time=0
EXTRACT: note_on channel=12 note=53 velocity=82 time=0
EXTRACT: note_on channel=12 note=58 velocity=82 time=0
EXTRACT: note_on channel=12 note=62 velocity=73 time=0
EXTRACT: note_on channel=14 note=46 velocity=62 time=0
EXTRACT: note_off channel=9 note=44 velocity=0 time=0.026441822916666666
EXTRACT: note_off channel=9 note=39 velocity=0 time=0.012019010416666667
EXTRACT: note_off channel=9 note=40 velocity=0 time=0.00721140625
EXTRACT: note_off channel=6 note=58 velocity=0 time=0.036057031249999996
EXTRACT: note_off channel=14 note=46 velocity=0 time=0.0024038020833333333
EXTRACT: note_off channel=6 note=62 velocity=0 time=0.0024038020833333333
EXTRACT: note_off channel=12 note=58 velocity=0 time=0.009615208333333333
EXTRACT: note_off channel=12 note=62 velocity=0 time=0.0024038020833333333
EXTRACT: note_off channel=9 note=36 velocity=0 time=0.004807604166666667
EXTRACT: note_off channel=6 note=65 velocity=0 time=0.0024038020833333333
EXTRACT: note_off channel=12 note=53 velocity=0 time=0
EXTRACT: note_on channel=14 note=58 velocity=60 time=0.009615208333333333
EXTRACT: pitchwheel channel=2 pitch=-640 time=0.036057031249999996
EXTRACT: pitchwheel channel=2 pitch=-1024 time=0.019230416666666666
EXTRACT: pitchwheel channel=2 pitch=-1536 time=0.019230416666666666
EXTRACT: pitchwheel channel=2 pitch=-1920 time=0.019230416666666666
EXTRACT: note_off channel=14 note=58 velocity=0 time=0.012019010416666667
EXTRACT: note_off channel=1 note=34 velocity=0 time=0.004807604166666667
EXTRACT: note_on channel=9 note=36 velocity=122 time=0.004807604166666667
EXTRACT: note_on channel=9 note=39 velocity=65 time=0
EXTRACT: note_on channel=9 note=40 velocity=65 time=0
EXTRACT: note_on channel=9 note=44 velocity=92 time=0
EXTRACT: note_on channel=1 note=29 velocity=76 time=0
EXTRACT: pitchwheel channel=2 pitch=-2304 time=0
EXTRACT: note_on channel=6 note=58 velocity=88 time=0
EXTRACT: note_on channel=6 note=62 velocity=93 time=0
EXTRACT: note_on channel=6 note=65 velocity=94 time=0
EXTRACT: note_on channel=8 note=70 velocity=84 time=0
EXTRACT: note_on channel=8 note=74 velocity=79 time=0
EXTRACT: note_on channel=14 note=46 velocity=63 time=0
EXTRACT: pitchwheel channel=2 pitch=-2432 time=0.019230416666666666
EXTRACT: pitchwheel channel=2 pitch=-2176 time=0.05769125
EXTRACT: note_off channel=6 note=58 velocity=0 time=0.00721140625
EXTRACT: note_off channel=8 note=70 velocity=0 time=0.009615208333333333
EXTRACT: pitchwheel channel=2 pitch=-1792 time=0.0024038020833333333
EXTRACT: note_off channel=8 note=74 velocity=0 time=0.0024038020833333333
EXTRACT: note_off channel=14 note=46 velocity=0 time=0
EXTRACT: note_off channel=6 note=62 velocity=0 time=0.009615208333333333
EXTRACT: note_off channel=9 note=46 velocity=0 time=0.004807604166666667
EXTRACT: pitchwheel channel=2 pitch=-1280 time=0.0024038020833333333
EXTRACT: note_on channel=14 note=58 velocity=60 time=0
EXTRACT: note_off channel=6 note=65 velocity=0 time=0.009615208333333333
EXTRACT: pitchwheel channel=2 pitch=0 time=0.009615208333333333
EXTRACT: note_off channel=14 note=58 velocity=0 time=0.07451786458333333
EXTRACT: note_off channel=1 note=29 velocity=0 time=0.016826614583333333
EXTRACT: note_on channel=9 note=46 velocity=63 time=0.004807604166666667
EXTRACT: note_on channel=1 note=27 velocity=91 time=0
EXTRACT: note_on channel=3 note=68 velocity=107 time=0
EXTRACT: note_on channel=4 note=80 velocity=97 time=0
EXTRACT: note_on channel=6 note=58 velocity=102 time=0
EXTRACT: note_on channel=6 note=63 velocity=102 time=0
EXTRACT: note_on channel=6 note=68 velocity=108 time=0
EXTRACT: note_on channel=8 note=70 velocity=79 time=0
EXTRACT: note_on channel=8 note=74 velocity=70 time=0
EXTRACT: note_on channel=12 note=53 velocity=88 time=0
EXTRACT: note_on channel=12 note=58 velocity=78 time=0
EXTRACT: note_on channel=12 note=63 velocity=74 time=0
EXTRACT: note_on channel=14 note=46 velocity=62 time=0
EXTRACT: note_off channel=9 note=44 velocity=0 time=0.036057031249999996
EXTRACT: note_off channel=3 note=70 velocity=0 time=0.025239921875
EXTRACT: note_off channel=4 note=82 velocity=0 time=0
EXTRACT: note_off channel=14 note=46 velocity=0 time=0.02764372395833333
EXTRACT: note_off channel=6 note=58 velocity=0 time=0.012019010416666667
EXTRACT: note_off channel=12 note=58 velocity=0 time=0.009615208333333333
EXTRACT: note_on channel=14 note=58 velocity=60 time=0.004807604166666667
EXTRACT: note_off channel=9 note=36 velocity=0 time=0.0024038020833333333
EXTRACT: note_off channel=6 note=63 velocity=0 time=0
EXTRACT: note_off channel=12 note=63 velocity=0 time=0.004807604166666667
EXTRACT: note_off channel=12 note=53 velocity=0 time=0
EXTRACT: note_off channel=6 note=68 velocity=0 time=0.009615208333333333
EXTRACT: note_off channel=8 note=70 velocity=0 time=0.0144228125
EXTRACT: note_off channel=8 note=74 velocity=0 time=0.0024038020833333333
EXTRACT: note_off channel=14 note=58 velocity=0 time=0.062498854166666666
EXTRACT: note_on channel=9 note=36 velocity=125 time=0.019230416666666666
EXTRACT: note_on channel=9 note=44 velocity=85 time=0
EXTRACT: note_on channel=14 note=46 velocity=63 time=0
EXTRACT: note_off channel=9 note=46 velocity=0 time=0.07692166666666667
EXTRACT: note_off channel=14 note=46 velocity=0 time=0.012019010416666667
EXTRACT: note_off channel=1 note=27 velocity=0 time=0.019230416666666666
EXTRACT: note_on channel=14 note=58 velocity=59 time=0.00721140625
EXTRACT: note_off channel=14 note=58 velocity=0 time=0.10336348958333333
EXTRACT: note_on channel=9 note=36 velocity=120 time=0.012019010416666667
EXTRACT: note_on channel=9 note=46 velocity=71 time=0
EXTRACT: note_on channel=1 note=27 velocity=95 time=0
EXTRACT: note_on channel=6 note=58 velocity=98 time=0
EXTRACT: note_on channel=6 note=63 velocity=102 time=0
EXTRACT: note_on channel=6 note=68 velocity=102 time=0
EXTRACT: note_on channel=8 note=70 velocity=84 time=0
EXTRACT: note_on channel=8 note=75 velocity=79 time=0
EXTRACT: note_on channel=12 note=53 velocity=85 time=0
EXTRACT: note_on channel=12 note=58 velocity=88 time=0
EXTRACT: note_on channel=12 note=63 velocity=88 time=0
EXTRACT: note_on channel=14 note=46 velocity=62 time=0
EXTRACT: note_off channel=9 note=36 velocity=64 time=0.05769125
EXTRACT: note_off channel=9 note=40 velocity=0 time=0.012019010416666667
EXTRACT: note_off channel=9 note=39 velocity=0 time=0
EXTRACT: note_off channel=9 note=44 velocity=0 time=0.019230416666666666
EXTRACT: note_off channel=14 note=46 velocity=0 time=0.004807604166666667
EXTRACT: note_off channel=9 note=36 velocity=0 time=0.00721140625
EXTRACT: note_on channel=14 note=58 velocity=60 time=0.0144228125
EXTRACT: note_off channel=14 note=58 velocity=0 time=0.1009596875
EXTRACT: note_on channel=9 note=36 velocity=125 time=0.0144228125
EXTRACT: note_on channel=9 note=39 velocity=65 time=0
EXTRACT: note_on channel=9 note=40 velocity=64 time=0
EXTRACT: note_on channel=9 note=44 velocity=101 time=0
EXTRACT: note_on channel=14 note=46 velocity=63 time=0
EXTRACT: note_off channel=14 note=46 velocity=0 time=0.09134447916666666
EXTRACT: note_off channel=9 note=46 velocity=0 time=0.012019010416666667
EXTRACT: note_on channel=14 note=58 velocity=60 time=0.012019010416666667
EXTRACT: note_off channel=12 note=58 velocity=0 time=0.0144228125
EXTRACT: note_off channel=12 note=63 velocity=0 time=0.009615208333333333
EXTRACT: note_off channel=12 note=53 velocity=0 time=0
EXTRACT: note_off channel=6 note=58 velocity=0 time=0.016826614583333333
EXTRACT: note_off channel=6 note=63 velocity=0 time=0.02163421875
EXTRACT: note_off channel=6 note=68 velocity=0 time=0.024038020833333333
EXTRACT: note_off channel=14 note=58 velocity=0 time=0.009615208333333333
EXTRACT: note_off channel=1 note=27 velocity=0 time=0.016826614583333333
EXTRACT: note_on channel=9 note=46 velocity=70 time=0.0024038020833333333
EXTRACT: note_on channel=1 note=31 velocity=85 time=0
EXTRACT: note_on channel=12 note=53 velocity=78 time=0
EXTRACT: note_on channel=12 note=58 velocity=80 time=0
EXTRACT: note_on channel=12 note=63 velocity=82 time=0
EXTRACT: note_on channel=14 note=46 velocity=62 time=0
EXTRACT: note_off channel=3 note=68 velocity=0 time=0.0144228125
EXTRACT: note_off channel=4 note=80 velocity=0 time=0
EXTRACT: note_off channel=8 note=70 velocity=0 time=0.004807604166666667
EXTRACT: note_off channel=8 note=75 velocity=0 time=0.009615208333333333
EXTRACT: note_off channel=9 note=44 velocity=0 time=0.05528744791666666
EXTRACT: note_off channel=12 note=58 velocity=0 time=0.004807604166666667
EXTRACT: note_off channel=14 note=46 velocity=0 time=0.004807604166666667
EXTRACT: note_off channel=12 note=63 velocity=0 time=0.012019010416666667
EXTRACT: note_off channel=12 note=53 velocity=0 time=0
EXTRACT: note_off channel=9 note=36 velocity=0 time=0.0024038020833333333
EXTRACT: note_on channel=14 note=58 velocity=61 time=0.00721140625
EXTRACT: note_off channel=9 note=46 velocity=0 time=0.0432684375
EXTRACT: note_off channel=1 note=31 velocity=0 time=0.031249427083333333
EXTRACT: note_off channel=14 note=58 velocity=0 time=0.019230416666666666
EXTRACT: note_on channel=9 note=36 velocity=122 time=0.02163421875
EXTRACT: note_on channel=9 note=44 velocity=111 time=0
EXTRACT: note_on channel=1 note=34 velocity=104 time=0
EXTRACT: note_on channel=2 note=70 velocity=49 time=0
EXTRACT: note_on channel=12 note=53 velocity=88 time=0
EXTRACT: note_on channel=12 note=58 velocity=78 time=0
EXTRACT: note_on channel=12 note=62 velocity=76 time=0
EXTRACT: note_on channel=14 note=46 velocity=65 time=0
EXTRACT: note_off channel=2 note=72 velocity=0 time=0.016826614583333333
EXTRACT: note_off channel=14 note=46 velocity=0 time=0.06971026041666667
EXTRACT: note_off channel=12 note=58 velocity=0 time=0.009615208333333333
EXTRACT: note_off channel=12 note=62 velocity=0 time=0.016826614583333333
EXTRACT: note_on channel=14 note=58 velocity=61 time=0.0024038020833333333
EXTRACT: note_off channel=12 note=53 velocity=0 time=0.00721140625
EXTRACT: note_off channel=14 note=58 velocity=0 time=0.10576729166666667
EXTRACT: note_on channel=9 note=46 velocity=75 time=0.0024038020833333333
EXTRACT: note_on channel=3 note=77 velocity=107 time=0
EXTRACT: note_on channel=4 note=89 velocity=97 time=0
EXTRACT: note_on channel=14 note=46 velocity=63 time=0
EXTRACT: note_off channel=9 note=44 velocity=0 time=0.026441822916666666
EXTRACT: note_off channel=9 note=39 velocity=0 time=0.02163421875
EXTRACT: note_off channel=9 note=40 velocity=0 time=0.004807604166666667
EXTRACT: note_off channel=14 note=46 velocity=0 time=0.019230416666666666
EXTRACT: note_off channel=9 note=36 velocity=0 time=0.0144228125
EXTRACT: note_on channel=14 note=58 velocity=60 time=0.028845625
EXTRACT: note_off channel=3 note=77 velocity=0 time=0.016826614583333333
EXTRACT: note_off channel=4 note=89 velocity=0 time=0
EXTRACT: pitchwheel channel=2 pitch=-128 time=0.024038020833333333
EXTRACT: pitchwheel channel=2 pitch=-1280 time=0.016826614583333333
EXTRACT: note_off channel=1 note=34 velocity=0 time=0.02163421875
EXTRACT: pitchwheel channel=2 pitch=-1920 time=0
EXTRACT: note_off channel=14 note=58 velocity=0 time=0.004807604166666667
EXTRACT: pitchwheel channel=2 pitch=-2432 time=0.0144228125
EXTRACT: note_on channel=9 note=36 velocity=118 time=0.016826614583333333
EXTRACT: note_on channel=9 note=39 velocity=71 time=0
EXTRACT: note_on channel=9 note=40 velocity=72 time=0
EXTRACT: note_on channel=9 note=44 velocity=92 time=0
EXTRACT: note_on channel=1 note=29 velocity=73 time=0
EXTRACT: note_on channel=3 note=77 velocity=107 time=0
EXTRACT: note_on channel=4 note=89 velocity=97 time=0
EXTRACT: note_on channel=6 note=58 velocity=102 time=0
EXTRACT: note_on channel=6 note=62 velocity=100 time=0
EXTRACT: note_on channel=6 note=65 velocity=105 time=0
EXTRACT: note_on channel=8 note=70 velocity=84 time=0
EXTRACT: note_on channel=8 note=74 velocity=70 time=0
EXTRACT: note_on channel=12 note=53 velocity=80 time=0
EXTRACT: note_on channel=12 note=58 velocity=73 time=0
EXTRACT: note_on channel=12 note=62 velocity=73 time=0
EXTRACT: note_on channel=14 note=46 velocity=63 time=0
EXTRACT: pitchwheel channel=2 pitch=-2560 time=0.0024038020833333333
EXTRACT: pitchwheel channel=2 pitch=-2304 time=0.019230416666666666
EXTRACT: pitchwheel channel=2 pitch=-1664 time=0.019230416666666666
EXTRACT: pitchwheel channel=2 pitch=-1152 time=0.019230416666666666
EXTRACT: pitchwheel channel=2 pitch=-512 time=0.019230416666666666
EXTRACT: note_off channel=14 note=46 velocity=0 time=0.00721140625
EXTRACT: note_off channel=8 note=70 velocity=0 time=0.0024038020833333333
EXTRACT: note_off channel=8 note=74 velocity=0 time=0.00721140625
EXTRACT: pitchwheel channel=2 pitch=0 time=0.0024038020833333333
EXTRACT: note_off channel=12 note=62 velocity=0 time=0.004807604166666667
EXTRACT: note_off channel=9 note=46 velocity=0 time=0.009615208333333333
EXTRACT: note_off channel=12 note=58 velocity=0 time=0
EXTRACT: note_on channel=14 note=58 velocity=60 time=0.0024038020833333333
EXTRACT: note_off channel=12 note=53 velocity=0 time=0.00721140625
EXTRACT: note_off channel=6 note=58 velocity=0 time=0.019230416666666666
EXTRACT: note_off channel=6 note=62 velocity=0 time=0.009615208333333333
EXTRACT: note_off channel=3 note=77 velocity=0 time=0.00721140625
EXTRACT: note_off channel=4 note=89 velocity=0 time=0
EXTRACT: note_off channel=1 note=29 velocity=0 time=0.009615208333333333
EXTRACT: note_off channel=6 note=65 velocity=0 time=0.02163421875
EXTRACT: note_off channel=14 note=58 velocity=0 time=0.012019010416666667
EXTRACT: note_on channel=9 note=46 velocity=63 time=0.028845625
EXTRACT: note_on channel=1 note=27 velocity=88 time=0
EXTRACT: note_on channel=3 note=77 velocity=107 time=0
EXTRACT: note_on channel=4 note=89 velocity=97 time=0
EXTRACT: note_on channel=6 note=58 velocity=100 time=0
EXTRACT: note_on channel=6 note=63 velocity=102 time=0
EXTRACT: note_on channel=6 note=68 velocity=115 time=0
EXTRACT: note_on channel=8 note=70 velocity=84 time=0
EXTRACT: note_on channel=8 note=74 velocity=70 time=0
EXTRACT: note_on channel=12 note=53 velocity=76 time=0
EXTRACT: note_on channel=12 note=58 velocity=74 time=0
EXTRACT: note_on channel=12 note=63 velocity=74 time=0
EXTRACT: note_on channel=14 note=46 velocity=61 time=0
EXTRACT: note_off channel=9 note=44 velocity=0 time=0.036057031249999996
EXTRACT: note_off channel=14 note=46 velocity=0 time=0.05047984375
EXTRACT: note_off channel=6 note=58 velocity=0 time=0.0144228125
EXTRACT: note_off channel=6 note=63 velocity=0 time=0.0024038020833333333
EXTRACT: note_off channel=8 note=74 velocity=0 time=0
EXTRACT: note_off channel=9 note=36 velocity=0 time=0.0024038020833333333
EXTRACT: note_off channel=8 note=70 velocity=0 time=0
EXTRACT: note_off channel=6 note=68 velocity=0 time=0.00721140625
EXTRACT: note_off channel=12 note=53 velocity=0 time=0
EXTRACT: note_on channel=14 note=58 velocity=60 time=0.0024038020833333333
EXTRACT: note_off channel=12 note=58 velocity=0 time=0.016826614583333333
EXTRACT: note_off channel=12 note=63 velocity=0 time=0.012019010416666667
EXTRACT: note_off channel=14 note=58 velocity=0 time=0.05528744791666666
EXTRACT: note_on channel=9 note=36 velocity=125 time=0.031249427083333333
EXTRACT: note_on channel=9 note=44 velocity=85 time=0
EXTRACT: note_on channel=3 note=75 velocity=107 time=0
EXTRACT: note_on channel=4 note=87 velocity=97 time=0
EXTRACT: note_on channel=14 note=46 velocity=62 time=0
EXTRACT: note_off channel=3 note=77 velocity=0 time=0.054085546875
EXTRACT: note_off channel=4 note=89 velocity=0 time=0
EXTRACT: note_off channel=9 note=46 velocity=0 time=0.022836119791666665
EXTRACT: note_off channel=14 note=46 velocity=0 time=0.0144228125
EXTRACT: note_on channel=14 note=58 velocity=60 time=0.024038020833333333
EXTRACT: note_off channel=3 note=75 velocity=0 time=0.049277942708333335
EXTRACT: note_off channel=4 note=87 velocity=0 time=0
EXTRACT: note_off channel=1 note=27 velocity=0 time=0.015624713541666667
EXTRACT: note_off channel=14 note=58 velocity=0 time=0.026441822916666666
EXTRACT: note_on channel=9 note=36 velocity=120 time=0.024038020833333333
EXTRACT: note_on channel=9 note=46 velocity=71 time=0
EXTRACT: note_on channel=1 note=27 velocity=95 time=0
EXTRACT: note_on channel=2 note=68 velocity=49 time=0
EXTRACT: note_on channel=3 note=75 velocity=107 time=0
EXTRACT: note_on channel=4 note=87 velocity=97 time=0
EXTRACT: note_on channel=6 note=58 velocity=108 time=0
EXTRACT: note_on channel=6 note=63 velocity=108 time=0
EXTRACT: note_on channel=6 note=68 velocity=115 time=0
EXTRACT: note_on channel=8 note=70 velocity=79 time=0
EXTRACT: note_on channel=8 note=74 velocity=73 time=0
EXTRACT: note_on channel=12 note=53 velocity=71 time=0
EXTRACT: note_on channel=12 note=58 velocity=78 time=0
EXTRACT: note_on channel=12 note=63 velocity=78 time=0
EXTRACT: note_on channel=14 note=46 velocity=61 time=0
EXTRACT: note_off channel=2 note=70 velocity=0 time=0.009615208333333333
EXTRACT: note_off channel=9 note=39 velocity=0 time=0.004807604166666667
EXTRACT: note_off channel=9 note=40 velocity=0 time=0.0024038020833333333
EXTRACT: note_off channel=9 note=36 velocity=64 time=0.04086463541666667
EXTRACT: note_off channel=9 note=36 velocity=0 time=0.028845625
EXTRACT: note_off channel=9 note=44 velocity=0 time=0.0024038020833333333
EXTRACT: note_off channel=14 note=46 velocity=0 time=0.0024038020833333333
EXTRACT: note_off channel=8 note=70 velocity=0 time=0.004807604166666667
EXTRACT: note_off channel=8 note=74 velocity=0 time=0.009615208333333333
EXTRACT: note_on channel=14 note=58 velocity=60 time=0.009615208333333333
EXTRACT: note_off channel=14 note=58 velocity=0 time=0.09374828125
EXTRACT: note_on channel=9 note=36 velocity=122 time=0.02163421875
EXTRACT: note_on channel=9 note=39 velocity=62 time=0
EXTRACT: note_on channel=9 note=40 velocity=68 time=0
EXTRACT: note_on channel=9 note=44 velocity=101 time=0
EXTRACT: note_on channel=8 note=70 velocity=84 time=0
EXTRACT: note_on channel=8 note=75 velocity=84 time=0
EXTRACT: note_on channel=14 note=46 velocity=63 time=0
EXTRACT: note_off channel=14 note=46 velocity=0 time=0.09615208333333333
EXTRACT: note_off channel=9 note=46 velocity=0 time=0.00721140625
EXTRACT: note_off channel=12 note=53 velocity=0 time=0.004807604166666667
EXTRACT: note_on channel=14 note=58 velocity=60 time=0.00721140625
EXTRACT: note_off channel=12 note=58 velocity=0 time=0.00721140625
EXTRACT: note_off channel=12 note=63 velocity=0 time=0.0144228125
EXTRACT: pitchwheel channel=2 pitch=-256 time=0.04086463541666667
EXTRACT: pitchwheel channel=2 pitch=-768 time=0.019230416666666666
EXTRACT: pitchwheel channel=2 pitch=-1024 time=0.019230416666666666
EXTRACT: note_off channel=14 note=58 velocity=0 time=0
EXTRACT: note_off channel=6 note=58 velocity=0 time=0.0024038020833333333
EXTRACT: note_off channel=1 note=27 velocity=0 time=0.009615208333333333
EXTRACT: note_on channel=9 note=46 velocity=70 time=0.0024038020833333333
EXTRACT: note_on channel=1 note=31 velocity=62 time=0
EXTRACT: note_on channel=3 note=74 velocity=107 time=0
EXTRACT: note_on channel=4 note=86 velocity=97 time=0
EXTRACT: note_off channel=6 note=68 velocity=0 time=0
EXTRACT: note_on channel=12 note=53 velocity=71 time=0
EXTRACT: note_on channel=12 note=58 velocity=73 time=0
EXTRACT: note_on channel=12 note=63 velocity=68 time=0
EXTRACT: note_on channel=14 note=46 velocity=63 time=0
EXTRACT: pitchwheel channel=2 pitch=-1280 time=0.004807604166666667
EXTRACT: note_off channel=6 note=63 velocity=0 time=0.004807604166666667
EXTRACT: pitchwheel channel=2 pitch=-1408 time=0.0144228125
EXTRACT: note_off channel=3 note=75 velocity=0 time=0.025239921875
EXTRACT: note_off channel=4 note=87 velocity=0 time=0
EXTRACT: pitchwheel channel=2 pitch=-1280 time=0.013220911458333333
EXTRACT: note_off channel=9 note=44 velocity=0 time=0.02163421875
EXTRACT: pitchwheel channel=2 pitch=-896 time=0
EXTRACT: note_off channel=14 note=46 velocity=0 time=0.009615208333333333
EXTRACT: note_off channel=9 note=36 velocity=0 time=0.00721140625
EXTRACT: pitchwheel channel=2 pitch=-256 time=0.0024038020833333333
EXTRACT: note_on channel=14 note=58 velocity=59 time=0.012019010416666667
EXTRACT: pitchwheel channel=2 pitch=0 time=0.00721140625
EXTRACT: note_off channel=8 note=70 velocity=0 time=0
EXTRACT: note_off channel=12 note=53 velocity=0 time=0
EXTRACT: note_off channel=12 note=58 velocity=0 time=0.012019010416666667
EXTRACT: note_off channel=8 note=75 velocity=0 time=0.004807604166666667
EXTRACT: note_off channel=9 note=46 velocity=0 time=0.019230416666666666
EXTRACT: note_off channel=12 note=63 velocity=0 time=0.004807604166666667
EXTRACT: note_off channel=1 note=31 velocity=0 time=0.016826614583333333
EXTRACT: note_off channel=14 note=58 velocity=0 time=0.036057031249999996
EXTRACT: note_on channel=9 note=36 velocity=122 time=0.0144228125
EXTRACT: note_on channel=9 note=44 velocity=111 time=0
EXTRACT: note_on channel=1 note=34 velocity=82 time=0
EXTRACT: note_on channel=12 note=53 velocity=74 time=0
EXTRACT: note_on channel=12 note=58 velocity=73 time=0
EXTRACT: note_on channel=12 note=62 velocity=71 time=0
EXTRACT: note_on channel=14 note=46 velocity=63 time=0
EXTRACT: note_off channel=3 note=74 velocity=0 time=0.08172927083333334
EXTRACT: note_off channel=4 note=86 velocity=0 time=0
EXTRACT: note_off channel=12 note=58 velocity=0 time=0.012019010416666667
EXTRACT: note_off channel=14 note=46 velocity=0 time=0
EXTRACT: note_off channel=12 note=62 velocity=0 time=0.012019010416666667
EXTRACT: note_off channel=12 note=53 velocity=0 time=0.004807604166666667
EXTRACT: note_on channel=14 note=58 velocity=60 time=0.004807604166666667
EXTRACT: note_off channel=14 note=58 velocity=0 time=0.10576729166666667
EXTRACT: note_on channel=9 note=46 velocity=75 time=0.009615208333333333
EXTRACT: note_on channel=3 note=74 velocity=107 time=0
EXTRACT: note_on channel=4 note=86 velocity=97 time=0
EXTRACT: note_on channel=6 note=58 velocity=98 time=0
EXTRACT: note_on channel=6 note=62 velocity=98 time=0
EXTRACT: note_on channel=6 note=65 velocity=102 time=0
EXTRACT: note_on channel=14 note=46 velocity=62 time=0
EXTRACT: note_off channel=9 note=44 velocity=0 time=0.026441822916666666
EXTRACT: note_off channel=6 note=58 velocity=0 time=0.05528744791666666
EXTRACT: note_off channel=14 note=46 velocity=0 time=0.0024038020833333333
EXTRACT: note_off channel=9 note=40 velocity=0 time=0.0024038020833333333
EXTRACT: note_off channel=6 note=62 velocity=0 time=0
EXTRACT: note_off channel=9 note=39 velocity=0 time=0.00721140625
EXTRACT: note_off channel=9 note=36 velocity=0 time=0.00721140625
EXTRACT: note_off channel=6 note=65 velocity=0 time=0.004807604166666667
EXTRACT: note_on channel=14 note=58 velocity=60 time=0.009615208333333333
EXTRACT: note_off channel=14 note=58 velocity=0 time=0.10576729166666667
EXTRACT: note_off channel=1 note=34 velocity=0 time=0.004807604166666667
EXTRACT: note_on channel=9 note=36 velocity=122 time=0.004807604166666667
EXTRACT: note_on channel=9 note=39 velocity=66 time=0
EXTRACT: note_on channel=9 note=40 velocity=66 time=0
EXTRACT: note_on channel=9 note=44 velocity=92 time=0
EXTRACT: note_on channel=1 note=29 velocity=76 time=0
EXTRACT: note_on channel=6 note=58 velocity=88 time=0
EXTRACT: note_on channel=6 note=62 velocity=93 time=0
EXTRACT: note_on channel=6 note=65 velocity=94 time=0
EXTRACT: note_on channel=8 note=70 velocity=84 time=0
EXTRACT: note_on channel=8 note=74 velocity=79 time=0
EXTRACT: note_on channel=12 note=53 velocity=82 time=0
EXTRACT: note_on channel=12 note=58 velocity=78 time=0
EXTRACT: note_on channel=12 note=62 velocity=73 time=0
EXTRACT: note_on channel=14 note=46 velocity=63 time=0
EXTRACT: note_off channel=6 note=58 velocity=0 time=0.08413307291666666
EXTRACT: note_off channel=8 note=70 velocity=0 time=0.009615208333333333
EXTRACT: note_off channel=8 note=74 velocity=0 time=0.004807604166666667
EXTRACT: note_off channel=14 note=46 velocity=0 time=0
EXTRACT: note_off channel=6 note=62 velocity=0 time=0.009615208333333333
EXTRACT: note_off channel=9 note=46 velocity=0 time=0.004807604166666667
EXTRACT: note_on channel=14 note=58 velocity=60 time=0.0024038020833333333
EXTRACT: note_off channel=6 note=65 velocity=0 time=0.009615208333333333
EXTRACT: note_off channel=12 note=62 velocity=0 time=0.024038020833333333
EXTRACT: note_off channel=12 note=58 velocity=0 time=0
EXTRACT: note_off channel=12 note=53 velocity=0 time=0
EXTRACT: note_off channel=14 note=58 velocity=0 time=0.060095052083333336
EXTRACT: note_off channel=1 note=29 velocity=0 time=0.016826614583333333
EXTRACT: note_on channel=9 note=46 velocity=63 time=0.004807604166666667
EXTRACT: note_on channel=1 note=27 velocity=91 time=0
EXTRACT: note_on channel=3 note=72 velocity=107 time=0
EXTRACT: note_on channel=4 note=84 velocity=97 time=0
EXTRACT: note_on channel=6 note=58 velocity=102 time=0
EXTRACT: note_on channel=6 note=63 velocity=102 time=0
EXTRACT: note_on channel=6 note=68 velocity=108 time=0
EXTRACT: note_on channel=8 note=70 velocity=79 time=0
EXTRACT: note_on channel=8 note=74 velocity=70 time=0
EXTRACT: note_on channel=12 note=53 velocity=82 time=0
EXTRACT: note_on channel=12 note=58 velocity=80 time=0
EXTRACT: note_on channel=12 note=63 velocity=80 time=0
EXTRACT: note_on channel=14 note=46 velocity=62 time=0
EXTRACT: note_off channel=9 note=44 velocity=0 time=0.036057031249999996
EXTRACT: note_off channel=14 note=46 velocity=0 time=0.05288364583333333
EXTRACT: note_off channel=3 note=74 velocity=0 time=0.008413307291666667
EXTRACT: note_off channel=4 note=86 velocity=0 time=0
EXTRACT: note_off channel=6 note=58 velocity=0 time=0.003605703125
EXTRACT: note_on channel=14 note=58 velocity=60 time=0.0144228125
EXTRACT: note_off channel=6 note=63 velocity=0 time=0.0024038020833333333
EXTRACT: note_off channel=6 note=68 velocity=0 time=0.0144228125
EXTRACT: note_off channel=12 note=58 velocity=0 time=0.0024038020833333333
EXTRACT: note_off channel=12 note=63 velocity=0 time=0.004807604166666667
EXTRACT: note_off channel=8 note=70 velocity=0 time=0.00721140625
EXTRACT: note_off channel=8 note=74 velocity=0 time=0.0024038020833333333
EXTRACT: note_off channel=12 note=53 velocity=0 time=0
EXTRACT: note_off channel=9 note=36 velocity=0 time=0.004807604166666667
EXTRACT: note_off channel=14 note=58 velocity=0 time=0.05769125
EXTRACT: note_on channel=9 note=36 velocity=118 time=0.019230416666666666
EXTRACT: note_on channel=9 note=44 velocity=85 time=0
EXTRACT: note_on channel=2 note=67 velocity=49 time=0
EXTRACT: note_on channel=14 note=46 velocity=63 time=0
EXTRACT: note_off channel=2 note=68 velocity=0 time=0.036057031249999996
EXTRACT: note_off channel=9 note=46 velocity=0 time=0.04086463541666667
EXTRACT: note_off channel=14 note=46 velocity=0 time=0.012019010416666667
EXTRACT: note_off channel=1 note=27 velocity=0 time=0.019230416666666666
EXTRACT: note_on channel=14 note=58 velocity=59 time=0.00721140625
EXTRACT: note_off channel=3 note=72 velocity=0 time=0.086536875
EXTRACT: note_off channel=4 note=84 velocity=0 time=0
EXTRACT: note_off channel=14 note=58 velocity=0 time=0.016826614583333333
EXTRACT: note_on channel=9 note=36 velocity=120 time=0.012019010416666667
EXTRACT: note_on channel=9 note=46 velocity=71 time=0
EXTRACT: note_on channel=1 note=27 velocity=95 time=0
EXTRACT: note_on channel=3 note=72 velocity=107 time=0
EXTRACT: note_on channel=4 note=84 velocity=97 time=0
EXTRACT: note_on channel=6 note=58 velocity=98 time=0
EXTRACT: note_on channel=6 note=63 velocity=102 time=0
EXTRACT: note_on channel=6 note=68 velocity=102 time=0
EXTRACT: note_on channel=8 note=70 velocity=84 time=0
EXTRACT: note_on channel=8 note=75 velocity=79 time=0
EXTRACT: note_on channel=12 note=53 velocity=80 time=0
EXTRACT: note_on channel=12 note=58 velocity=78 time=0
EXTRACT: note_on channel=12 note=63 velocity=80 time=0
EXTRACT: note_on channel=14 note=46 velocity=62 time=0
EXTRACT: note_off channel=9 note=36 velocity=64 time=0.05769125
EXTRACT: note_off channel=9 note=40 velocity=0 time=0.028845625
EXTRACT: note_off channel=9 note=39 velocity=0 time=0
EXTRACT: note_off channel=9 note=44 velocity=0 time=0.0024038020833333333
EXTRACT: note_off channel=14 note=46 velocity=0 time=0.004807604166666667
EXTRACT: note_off channel=9 note=36 velocity=0 time=0.0024038020833333333
EXTRACT: note_on channel=14 note=58 velocity=60 time=0.019230416666666666
EXTRACT: pitchwheel channel=2 pitch=-1152 time=0.026441822916666666
EXTRACT: pitchwheel channel=2 pitch=-1920 time=0.019230416666666666
EXTRACT: pitchwheel channel=2 pitch=-2432 time=0.02163421875
EXTRACT: pitchwheel channel=2 pitch=-2560 time=0.019230416666666666
EXTRACT: note_off channel=14 note=58 velocity=0 time=0.0144228125
EXTRACT: pitchwheel channel=2 pitch=-2304 time=0.004807604166666667
EXTRACT: note_on channel=9 note=36 velocity=122 time=0.009615208333333333
EXTRACT: note_on channel=9 note=39 velocity=71 time=0
EXTRACT: note_on channel=9 note=40 velocity=72 time=0
EXTRACT: note_on channel=9 note=44 velocity=101 time=0
EXTRACT: note_on channel=14 note=46 velocity=63 time=0
EXTRACT: pitchwheel channel=2 pitch=-1792 time=0.009615208333333333
EXTRACT: pitchwheel channel=2 pitch=-1280 time=0.019230416666666666
EXTRACT: pitchwheel channel=2 pitch=-768 time=0.019230416666666666
EXTRACT: pitchwheel channel=2 pitch=0 time=0.019230416666666666
EXTRACT: note_off channel=14 note=46 velocity=0 time=0.024038020833333333
EXTRACT: note_off channel=9 note=46 velocity=0 time=0.012019010416666667
EXTRACT: note_on channel=14 note=58 velocity=60 time=0.012019010416666667
EXTRACT: note_off channel=6 note=58 velocity=0 time=0.04086463541666667
EXTRACT: note_off channel=6 note=63 velocity=0 time=0.02163421875
EXTRACT: note_off channel=6 note=68 velocity=0 time=0.024038020833333333
EXTRACT: note_off channel=14 note=58 velocity=0 time=0.009615208333333333
EXTRACT: note_off channel=1 note=27 velocity=0 time=0.016826614583333333
EXTRACT: note_on channel=9 note=46 velocity=70 time=0.0024038020833333333
EXTRACT: note_on channel=1 note=31 velocity=85 time=0
EXTRACT: note_on channel=3 note=70 velocity=107 time=0
EXTRACT: note_on channel=4 note=82 velocity=97 time=0
EXTRACT: note_on channel=14 note=46 velocity=62 time=0
EXTRACT: note_off channel=12 note=58 velocity=0 time=0.0144228125
EXTRACT: note_off channel=8 note=70 velocity=0 time=0.004807604166666667
EXTRACT: note_off channel=12 note=63 velocity=0 time=0.0024038020833333333
EXTRACT: note_off channel=12 note=53 velocity=0 time=0.004807604166666667
EXTRACT: note_off channel=8 note=75 velocity=0 time=0.0024038020833333333
EXTRACT: note_off channel=9 note=44 velocity=0 time=0.05528744791666666
EXTRACT: note_off channel=3 note=72 velocity=0 time=0.00721140625
EXTRACT: note_off channel=4 note=84 velocity=0 time=0
EXTRACT: note_off channel=14 note=46 velocity=0 time=0.0024038020833333333
EXTRACT: note_off channel=9 note=36 velocity=0 time=0.012019010416666667
EXTRACT: note_on channel=14 note=58 velocity=61 time=0.009615208333333333
EXTRACT: note_off channel=9 note=46 velocity=0 time=0.0432684375
EXTRACT: note_off channel=2 note=67 velocity=0 time=0
EXTRACT: note_off channel=1 note=31 velocity=0 time=0.031249427083333333
EXTRACT: note_off channel=14 note=58 velocity=0 time=0.019230416666666666
EXTRACT: note_on channel=9 note=36 velocity=122 time=0.02163421875
EXTRACT: note_on channel=9 note=44 velocity=111 time=0
EXTRACT: note_on channel=1 note=34 velocity=104 time=0
EXTRACT: note_on channel=2 note=67 velocity=43 time=0
EXTRACT: note_on channel=14 note=46 velocity=65 time=0
EXTRACT: note_off channel=14 note=46 velocity=0 time=0.086536875
EXTRACT: note_on channel=14 note=58 velocity=61 time=0.028845625
EXTRACT: note_off channel=14 note=58 velocity=0 time=0.11297869791666666
EXTRACT: note_on channel=9 note=46 velocity=75 time=0.0024038020833333333
EXTRACT: note_on channel=12 note=53 velocity=85 time=0
EXTRACT: note_on channel=12 note=58 velocity=80 time=0
EXTRACT: note_on channel=12 note=62 velocity=76 time=0
EXTRACT: note_on channel=14 note=46 velocity=63 time=0
EXTRACT: note_off channel=9 note=44 velocity=0 time=0.026441822916666666
EXTRACT: note_off channel=9 note=40 velocity=0 time=0.026441822916666666
EXTRACT: note_off channel=9 note=39 velocity=0 time=0
EXTRACT: note_off channel=14 note=46 velocity=0 time=0.019230416666666666
EXTRACT: note_off channel=12 note=58 velocity=0 time=0.02163421875
EXTRACT: note_off channel=12 note=62 velocity=0 time=0.00721140625
EXTRACT: note_off channel=9 note=36 velocity=0 time=0.0024038020833333333
EXTRACT: note_off channel=12 note=53 velocity=0 time=0.012019010416666667
EXTRACT: note_on channel=14 note=58 velocity=60 time=0
EXTRACT: note_off channel=1 note=34 velocity=0 time=0.07932546875
EXTRACT: note_off channel=14 note=58 velocity=0 time=0.004807604166666667
EXTRACT: note_on channel=9 note=36 velocity=122 time=0.031249427083333333
EXTRACT: note_on channel=9 note=39 velocity=76 time=0
EXTRACT: note_on channel=9 note=40 velocity=74 time=0
EXTRACT: note_on channel=9 note=44 velocity=92 time=0
EXTRACT: note_on channel=1 note=29 velocity=73 time=0
EXTRACT: note_on channel=6 note=58 velocity=102 time=0
EXTRACT: note_on channel=6 note=62 velocity=100 time=0
EXTRACT: note_on channel=6 note=65 velocity=105 time=0
EXTRACT: note_on channel=8 note=70 velocity=84 time=0
EXTRACT: note_on channel=8 note=74 velocity=70 time=0
EXTRACT: note_on channel=14 note=46 velocity=63 time=0
EXTRACT: note_off channel=14 note=46 velocity=0 time=0.086536875
EXTRACT: note_off channel=8 note=70 velocity=0 time=0.0024038020833333333
EXTRACT: note_off channel=8 note=74 velocity=0 time=0.00721140625
EXTRACT: note_off channel=9 note=46 velocity=0 time=0.016826614583333333
EXTRACT: note_on channel=14 note=58 velocity=60 time=0.0024038020833333333
EXTRACT: note_off channel=6 note=58 velocity=0 time=0.026441822916666666
EXTRACT: note_off channel=6 note=62 velocity=0 time=0.009615208333333333
EXTRACT: note_off channel=1 note=29 velocity=0 time=0.016826614583333333
EXTRACT: note_off channel=6 note=65 velocity=0 time=0.02163421875
EXTRACT: note_off channel=14 note=58 velocity=0 time=0.012019010416666667
EXTRACT: note_off channel=2 note=67 velocity=0 time=0.00721140625
EXTRACT: note_on channel=9 note=46 velocity=63 time=0.02163421875
EXTRACT: note_on channel=1 note=27 velocity=88 time=0
EXTRACT: note_on channel=2 note=65 velocity=59 time=0
EXTRACT: note_on channel=6 note=58 velocity=100 time=0
EXTRACT: note_on channel=6 note=63 velocity=102 time=0
EXTRACT: note_on channel=6 note=68 velocity=115 time=0
EXTRACT: note_on channel=8 note=70 velocity=84 time=0
EXTRACT: note_on channel=8 note=74 velocity=70 time=0
EXTRACT: note_on channel=12 note=53 velocity=80 time=0
EXTRACT: note_on channel=12 note=58 velocity=78 time=0
EXTRACT: note_on channel=12 note=62 velocity=68 time=0
EXTRACT: note_on channel=14 note=46 velocity=61 time=0
EXTRACT: note_off channel=9 note=44 velocity=0 time=0.036057031249999996
EXTRACT: note_off channel=12 note=62 velocity=0 time=0.04567223958333333
EXTRACT: note_off channel=12 note=58 velocity=0 time=0.0024038020833333333
EXTRACT: note_off channel=14 note=46 velocity=0 time=0.0024038020833333333
EXTRACT: note_off channel=9 note=36 velocity=0 time=0.004807604166666667
EXTRACT: note_off channel=12 note=53 velocity=0 time=0.00721140625
EXTRACT: note_off channel=6 note=58 velocity=0 time=0.0024038020833333333
EXTRACT: note_off channel=6 note=63 velocity=0 time=0.0024038020833333333
EXTRACT: note_off channel=8 note=74 velocity=0 time=0
EXTRACT: note_off channel=8 note=70 velocity=0 time=0.0024038020833333333
EXTRACT: note_off channel=6 note=68 velocity=0 time=0.00721140625
EXTRACT: note_on channel=14 note=58 velocity=60 time=0.0024038020833333333
EXTRACT: note_off channel=14 note=58 velocity=0 time=0.08413307291666666
EXTRACT: note_on channel=9 note=36 velocity=122 time=0.031249427083333333
EXTRACT: note_on channel=9 note=44 velocity=85 time=0
EXTRACT: note_on channel=12 note=53 velocity=85 time=0
EXTRACT: note_on channel=12 note=58 velocity=82 time=0
EXTRACT: note_on channel=12 note=63 velocity=82 time=0
EXTRACT: note_on channel=14 note=46 velocity=62 time=0
EXTRACT: note_off channel=9 note=46 velocity=0 time=0.07692166666666667
EXTRACT: pitchwheel channel=2 pitch=-512 time=0.012019010416666667
EXTRACT: note_off channel=14 note=46 velocity=0 time=0.0024038020833333333
EXTRACT: pitchwheel channel=2 pitch=-1536 time=0.019230416666666666
EXTRACT: note_on channel=14 note=58 velocity=60 time=0.004807604166666667
EXTRACT: pitchwheel channel=2 pitch=-2048 time=0.0144228125
EXTRACT: pitchwheel channel=2 pitch=-2304 time=0.019230416666666666
EXTRACT: note_off channel=1 note=27 velocity=0 time=0.031249427083333333
EXTRACT: pitchwheel channel=2 pitch=-1792 time=0.00721140625
EXTRACT: note_off channel=12 note=58 velocity=0 time=0.00721140625
EXTRACT: pitchwheel channel=2 pitch=-1408 time=0.012019010416666667
EXTRACT: note_off channel=14 note=58 velocity=0 time=0
EXTRACT: note_off channel=12 note=63 velocity=0 time=0.004807604166666667
EXTRACT: pitchwheel channel=2 pitch=-1024 time=0.0144228125
EXTRACT: note_on channel=9 note=36 velocity=120 time=0.004807604166666667
EXTRACT: note_on channel=9 note=46 velocity=71 time=0
EXTRACT: note_on channel=1 note=27 velocity=95 time=0
EXTRACT: note_on channel=6 note=58 velocity=108 time=0
EXTRACT: note_on channel=6 note=63 velocity=108 time=0
EXTRACT: note_on channel=6 note=68 velocity=115 time=0
EXTRACT: note_on channel=8 note=70 velocity=79 time=0
EXTRACT: note_on channel=8 note=74 velocity=73 time=0
EXTRACT: note_on channel=14 note=46 velocity=61 time=0
EXTRACT: pitchwheel channel=2 pitch=0 time=0.0144228125
EXTRACT: note_off channel=9 note=36 velocity=64 time=0.0432684375
EXTRACT: note_off channel=12 note=53 velocity=0 time=0.0024038020833333333
EXTRACT: note_off channel=9 note=44 velocity=0 time=0.028845625
EXTRACT: note_off channel=9 note=39 velocity=0 time=0.0024038020833333333
EXTRACT: note_off channel=14 note=46 velocity=0 time=0
EXTRACT: note_off channel=9 note=40 velocity=0 time=0.0024038020833333333
EXTRACT: note_off channel=8 note=70 velocity=0 time=0.0024038020833333333
EXTRACT: note_off channel=8 note=74 velocity=0 time=0.009615208333333333
EXTRACT: note_on channel=14 note=58 velocity=60 time=0.009615208333333333
EXTRACT: note_off channel=9 note=36 velocity=0 time=0.009615208333333333
EXTRACT: note_off channel=14 note=58 velocity=0 time=0.08413307291666666
EXTRACT: note_on channel=9 note=36 velocity=122 time=0.02163421875
EXTRACT: note_on channel=9 note=39 velocity=72 time=0
EXTRACT: note_on channel=9 note=40 velocity=74 time=0
EXTRACT: note_on channel=9 note=44 velocity=101 time=0
EXTRACT: note_on channel=8 note=70 velocity=84 time=0
EXTRACT: note_on channel=8 note=75 velocity=84 time=0
EXTRACT: note_on channel=12 note=53 velocity=82 time=0
EXTRACT: note_on channel=12 note=58 velocity=88 time=0
EXTRACT: note_on channel=12 note=63 velocity=82 time=0
EXTRACT: note_on channel=14 note=46 velocity=63 time=0
EXTRACT: note_off channel=14 note=46 velocity=0 time=0.09615208333333333
EXTRACT: note_off channel=9 note=46 velocity=0 time=0.00721140625
EXTRACT: note_on channel=14 note=58 velocity=60 time=0.012019010416666667
EXTRACT: note_off channel=12 note=53 velocity=0 time=0.0432684375
EXTRACT: note_off channel=12 note=58 velocity=0 time=0.04086463541666667
EXTRACT: note_off channel=12 note=63 velocity=0 time=0.016826614583333333
EXTRACT: note_off channel=14 note=58 velocity=0 time=0
EXTRACT: note_off channel=6 note=58 velocity=0 time=0.0024038020833333333
EXTRACT: note_off channel=1 note=27 velocity=0 time=0.009615208333333333
EXTRACT: note_on channel=9 note=46 velocity=70 time=0.0024038020833333333
EXTRACT: note_on channel=1 note=31 velocity=62 time=0
EXTRACT: note_off channel=6 note=68 velocity=0 time=0
EXTRACT: note_on channel=12 note=53 velocity=82 time=0
EXTRACT: note_on channel=12 note=58 velocity=73 time=0
EXTRACT: note_on channel=12 note=62 velocity=73 time=0
EXTRACT: note_on channel=14 note=46 velocity=63 time=0
EXTRACT: note_off channel=6 note=63 velocity=0 time=0.009615208333333333
EXTRACT: note_off channel=9 note=36 velocity=0 time=0.06730645833333333
EXTRACT: note_off channel=9 note=44 velocity=0 time=0.00721140625
EXTRACT: note_off channel=12 note=62 velocity=0 time=0.0024038020833333333
EXTRACT: note_off channel=14 note=46 velocity=0 time=0.00721140625
EXTRACT: note_off channel=12 note=58 velocity=0 time=0.016826614583333333
EXTRACT: note_off channel=12 note=53 velocity=0 time=0
EXTRACT: note_on channel=14 note=58 velocity=59 time=0.004807604166666667
EXTRACT: note_off channel=8 note=70 velocity=0 time=0.00721140625
EXTRACT: note_off channel=8 note=75 velocity=0 time=0.016826614583333333
EXTRACT: note_off channel=9 note=46 velocity=0 time=0.019230416666666666
EXTRACT: note_off channel=1 note=31 velocity=0 time=0.02163421875
EXTRACT: note_off channel=14 note=58 velocity=0 time=0.036057031249999996
EXTRACT: note_on channel=9 note=36 velocity=125 time=0.0144228125
EXTRACT: note_on channel=9 note=44 velocity=111 time=0
EXTRACT: note_on channel=1 note=34 velocity=82 time=0
EXTRACT: note_on channel=2 note=70 velocity=49 time=0
EXTRACT: note_on channel=14 note=46 velocity=63 time=0
EXTRACT: note_off channel=2 note=65 velocity=0 time=0.05769125
EXTRACT: note_off channel=14 note=46 velocity=0 time=0.036057031249999996
EXTRACT: note_on channel=14 note=58 velocity=60 time=0.02163421875
EXTRACT: note_off channel=14 note=58 velocity=0 time=0.10576729166666667
EXTRACT: note_on channel=9 note=46 velocity=75 time=0.009615208333333333
EXTRACT: note_on channel=6 note=58 velocity=98 time=0
EXTRACT: note_on channel=6 note=62 velocity=98 time=0
EXTRACT: note_on channel=6 note=65 velocity=102 time=0
EXTRACT: note_on channel=12 note=53 velocity=82 time=0
EXTRACT: note_on channel=12 note=58 velocity=82 time=0
EXTRACT: note_on channel=12 note=62 velocity=73 time=0
EXTRACT: note_on channel=14 note=46 velocity=62 time=0
EXTRACT: note_off channel=9 note=44 velocity=0 time=0.026441822916666666
EXTRACT: pitchwheel channel=2 pitch=-512 time=0.009615208333333333
EXTRACT: pitchwheel channel=2 pitch=-1408 time=0.019230416666666666
EXTRACT: note_off channel=9 note=40 velocity=0 time=0.0024038020833333333
EXTRACT: note_off channel=9 note=39 velocity=0 time=0
EXTRACT: pitchwheel channel=2 pitch=-2176 time=0.016826614583333333
EXTRACT: note_off channel=6 note=58 velocity=0 time=0.00721140625
EXTRACT: note_off channel=14 note=46 velocity=0 time=0.0024038020833333333
EXTRACT: note_off channel=6 note=62 velocity=0 time=0.0024038020833333333
EXTRACT: pitchwheel channel=2 pitch=-2560 time=0.00721140625
EXTRACT: note_off channel=12 note=58 velocity=0 time=0.0024038020833333333
EXTRACT: note_off channel=12 note=62 velocity=0 time=0.0024038020833333333
EXTRACT: note_off channel=6 note=65 velocity=0 time=0.00721140625
EXTRACT: note_off channel=12 note=53 velocity=0 time=0
EXTRACT: note_off channel=9 note=36 velocity=0 time=0.00721140625
EXTRACT: pitchwheel channel=2 pitch=-2688 time=0
EXTRACT: note_on channel=14 note=58 velocity=60 time=0.0024038020833333333
EXTRACT: pitchwheel channel=2 pitch=-2304 time=0.016826614583333333
EXTRACT: pitchwheel channel=2 pitch=-1664 time=0.019230416666666666
EXTRACT: pitchwheel channel=2 pitch=-1152 time=0.019230416666666666
EXTRACT: pitchwheel channel=2 pitch=0 time=0.019230416666666666
EXTRACT: note_off channel=14 note=58 velocity=0 time=0.031249427083333333
EXTRACT: note_off channel=1 note=34 velocity=0 time=0.004807604166666667
EXTRACT: note_on channel=9 note=36 velocity=122 time=0.004807604166666667
EXTRACT: note_on channel=9 note=39 velocity=80 time=0
EXTRACT: note_on channel=9 note=40 velocity=78 time=0
EXTRACT: note_on channel=9 note=44 velocity=92 time=0
EXTRACT: note_on channel=1 note=29 velocity=76 time=0
EXTRACT: note_on channel=6 note=58 velocity=88 time=0
EXTRACT: note_on channel=6 note=62 velocity=93 time=0
EXTRACT: note_on channel=6 note=65 velocity=94 time=0
EXTRACT: note_on channel=8 note=70 velocity=84 time=0
EXTRACT: note_on channel=8 note=74 velocity=79 time=0
EXTRACT: note_on channel=14 note=46 velocity=63 time=0
EXTRACT: note_off channel=6 note=58 velocity=0 time=0.08413307291666666
EXTRACT: note_off channel=8 note=70 velocity=0 time=0.009615208333333333
EXTRACT: note_off channel=8 note=74 velocity=0 time=0.004807604166666667
EXTRACT: note_off channel=14 note=46 velocity=0 time=0
EXTRACT: note_off channel=6 note=62 velocity=0 time=0.009615208333333333
EXTRACT: note_off channel=9 note=46 velocity=0 time=0.004807604166666667
EXTRACT: note_on channel=14 note=58 velocity=60 time=0.0024038020833333333
EXTRACT: note_off channel=6 note=65 velocity=0 time=0.009615208333333333
EXTRACT: note_off channel=14 note=58 velocity=0 time=0.08413307291666666
EXTRACT: note_off channel=1 note=29 velocity=0 time=0.016826614583333333
EXTRACT: note_on channel=9 note=46 velocity=63 time=0.004807604166666667
EXTRACT: note_on channel=1 note=27 velocity=91 time=0
EXTRACT: note_on channel=2 note=77 velocity=40 time=0
EXTRACT: note_on channel=6 note=58 velocity=102 time=0
EXTRACT: note_on channel=6 note=63 velocity=102 time=0
EXTRACT: note_on channel=6 note=68 velocity=108 time=0
EXTRACT: note_on channel=8 note=70 velocity=79 time=0
EXTRACT: note_on channel=8 note=74 velocity=70 time=0
EXTRACT: note_on channel=12 note=53 velocity=88 time=0
EXTRACT: note_on channel=12 note=58 velocity=78 time=0
EXTRACT: note_on channel=12 note=63 velocity=74 time=0
EXTRACT: note_on channel=14 note=46 velocity=62 time=0
EXTRACT: note_off channel=9 note=44 velocity=0 time=0.036057031249999996
EXTRACT: note_off channel=2 note=70 velocity=0 time=0.012019010416666667
EXTRACT: note_off channel=14 note=46 velocity=0 time=0.04086463541666667
EXTRACT: note_off channel=6 note=58 velocity=0 time=0.012019010416666667
EXTRACT: note_off channel=12 note=58 velocity=0 time=0.009615208333333333
EXTRACT: note_off channel=9 note=36 velocity=0 time=0.004807604166666667
EXTRACT: note_on channel=14 note=58 velocity=60 time=0
EXTRACT: note_off channel=6 note=63 velocity=0 time=0.0024038020833333333
EXTRACT: note_off channel=12 note=63 velocity=0 time=0.004807604166666667
EXTRACT: note_off channel=12 note=53 velocity=0 time=0
EXTRACT: note_off channel=6 note=68 velocity=0 time=0.009615208333333333
EXTRACT: note_off channel=8 note=70 velocity=0 time=0.0144228125
EXTRACT: note_off channel=8 note=74 velocity=0 time=0.0024038020833333333
EXTRACT: note_off channel=14 note=58 velocity=0 time=0.062498854166666666
EXTRACT: note_on channel=9 note=36 velocity=125 time=0.019230416666666666
EXTRACT: note_on channel=9 note=44 velocity=85 time=0
EXTRACT: note_on channel=14 note=46 velocity=63 time=0
EXTRACT: note_off channel=9 note=46 velocity=0 time=0.07692166666666667
EXTRACT: pitchwheel channel=2 pitch=-896 time=0
EXTRACT: note_off channel=14 note=46 velocity=0 time=0.012019010416666667
EXTRACT: pitchwheel channel=2 pitch=-1792 time=0.00721140625
EXTRACT: note_off channel=1 note=27 velocity=0 time=0.012019010416666667
EXTRACT: note_on channel=14 note=58 velocity=59 time=0.00721140625
EXTRACT: pitchwheel channel=2 pitch=-2560 time=0.0024038020833333333
EXTRACT: pitchwheel channel=2 pitch=-2816 time=0.016826614583333333
EXTRACT: pitchwheel channel=2 pitch=-2688 time=0.02163421875
EXTRACT: pitchwheel channel=2 pitch=-2304 time=0.019230416666666666
EXTRACT: note_off channel=3 note=70 velocity=0 time=0.003605703125
EXTRACT: note_off channel=4 note=82 velocity=0 time=0
EXTRACT: pitchwheel channel=2 pitch=-1792 time=0.015624713541666667
EXTRACT: pitchwheel channel=2 pitch=-1152 time=0.019230416666666666
EXTRACT: note_off channel=14 note=58 velocity=0 time=0.004807604166666667
EXTRACT: note_on channel=9 note=36 velocity=120 time=0.012019010416666667
EXTRACT: note_on channel=9 note=46 velocity=71 time=0
EXTRACT: note_on channel=1 note=27 velocity=95 time=0
EXTRACT: note_on channel=3 note=70 velocity=107 time=0
EXTRACT: note_on channel=4 note=82 velocity=97 time=0
EXTRACT: note_on channel=6 note=58 velocity=98 time=0
EXTRACT: note_on channel=6 note=63 velocity=102 time=0
EXTRACT: note_on channel=6 note=68 velocity=102 time=0
EXTRACT: note_on channel=8 note=70 velocity=84 time=0
EXTRACT: note_on channel=8 note=75 velocity=79 time=0
EXTRACT: note_on channel=12 note=53 velocity=85 time=0
EXTRACT: note_on channel=12 note=58 velocity=88 time=0
EXTRACT: note_on channel=12 note=63 velocity=88 time=0
EXTRACT: note_on channel=14 note=46 velocity=62 time=0
EXTRACT: pitchwheel channel=2 pitch=0 time=0.0024038020833333333
EXTRACT: note_off channel=9 note=40 velocity=0 time=0.05047984375
EXTRACT: note_off channel=9 note=39 velocity=0 time=0.0024038020833333333
EXTRACT: note_off channel=9 note=36 velocity=64 time=0.0024038020833333333
EXTRACT: note_off channel=9 note=36 velocity=0 time=0.028845625
EXTRACT: note_off channel=9 note=44 velocity=0 time=0.0024038020833333333
EXTRACT: note_off channel=14 note=46 velocity=0 time=0.004807604166666667
EXTRACT: note_on channel=14 note=58 velocity=60 time=0.02163421875
EXTRACT: note_off channel=3 note=70 velocity=0 time=0.061296953125
EXTRACT: note_off channel=4 note=82 velocity=0 time=0
EXTRACT: note_off channel=14 note=58 velocity=0 time=0.039662734375
EXTRACT: note_on channel=9 note=36 velocity=122 time=0.0144228125
EXTRACT: note_on channel=9 note=39 velocity=86 time=0
EXTRACT: note_on channel=9 note=40 velocity=86 time=0
EXTRACT: note_on channel=9 note=44 velocity=101 time=0
EXTRACT: note_on channel=3 note=70 velocity=107 time=0
EXTRACT: note_on channel=4 note=82 velocity=97 time=0
EXTRACT: note_on channel=14 note=46 velocity=63 time=0
EXTRACT: note_off channel=14 note=46 velocity=0 time=0.09134447916666666
EXTRACT: note_off channel=9 note=46 velocity=0 time=0.012019010416666667
EXTRACT: note_on channel=14 note=58 velocity=60 time=0.012019010416666667
EXTRACT: note_off channel=12 note=58 velocity=0 time=0.0144228125
EXTRACT: note_off channel=9 note=36 velocity=0 time=0.0024038020833333333
EXTRACT: note_off channel=12 note=63 velocity=0 time=0.00721140625
EXTRACT: note_off channel=12 note=53 velocity=0 time=0
EXTRACT: note_off channel=6 note=58 velocity=0 time=0.016826614583333333
EXTRACT: note_off channel=6 note=63 velocity=0 time=0.02163421875
EXTRACT: note_off channel=6 note=68 velocity=0 time=0.024038020833333333
EXTRACT: note_off channel=3 note=70 velocity=0 time=0.008413307291666667
EXTRACT: note_off channel=4 note=82 velocity=0 time=0
EXTRACT: note_off channel=14 note=58 velocity=0 time=0.0012019010416666667
EXTRACT: note_off channel=1 note=27 velocity=0 time=0.016826614583333333
EXTRACT: note_on channel=9 note=36 velocity=122 time=0.0024038020833333333
EXTRACT: note_on channel=9 note=46 velocity=70 time=0
EXTRACT: note_on channel=1 note=31 velocity=85 time=0
EXTRACT: note_on channel=3 note=72 velocity=107 time=0
EXTRACT: note_on channel=4 note=84 velocity=97 time=0
EXTRACT: note_on channel=12 note=53 velocity=78 time=0
EXTRACT: note_on channel=12 note=58 velocity=80 time=0
EXTRACT: note_on channel=12 note=63 velocity=82 time=0
EXTRACT: note_on channel=14 note=46 velocity=62 time=0
EXTRACT: note_off channel=8 note=70 velocity=0 time=0.019230416666666666
EXTRACT: note_off channel=8 note=75 velocity=0 time=0.009615208333333333
EXTRACT: note_off channel=9 note=39 velocity=0 time=0.028845625
EXTRACT: note_off channel=9 note=40 velocity=0 time=0.004807604166666667
EXTRACT: note_off channel=2 note=77 velocity=0 time=0.0024038020833333333
EXTRACT: note_off channel=9 note=44 velocity=0 time=0.019230416666666666
EXTRACT: note_off channel=12 note=58 velocity=0 time=0.004807604166666667
EXTRACT: note_off channel=14 note=46 velocity=0 time=0.004807604166666667
EXTRACT: note_off channel=12 note=63 velocity=0 time=0.012019010416666667
EXTRACT: note_off channel=12 note=53 velocity=0 time=0
EXTRACT: note_on channel=14 note=58 velocity=61 time=0.009615208333333333
EXTRACT: note_off channel=9 note=36 velocity=0 time=0.02163421875
EXTRACT: note_off channel=9 note=46 velocity=0 time=0.02163421875
EXTRACT: note_off channel=1 note=31 velocity=0 time=0.031249427083333333
EXTRACT: note_off channel=14 note=58 velocity=0 time=0.019230416666666666
EXTRACT: note_on channel=9 note=36 velocity=127 time=0.02163421875
EXTRACT: note_on channel=9 note=44 velocity=120 time=0
EXTRACT: note_on channel=9 note=49 velocity=89 time=0
EXTRACT: note_on channel=9 note=57 velocity=98 time=0
EXTRACT: note_on channel=1 note=34 velocity=104 time=0
EXTRACT: note_on channel=2 note=79 velocity=62 time=0
EXTRACT: note_on channel=3 note=70 velocity=107 time=0
EXTRACT: note_on channel=4 note=82 velocity=97 time=0
EXTRACT: note_on channel=12 note=53 velocity=88 time=0
EXTRACT: note_on channel=12 note=58 velocity=78 time=0
EXTRACT: note_on channel=12 note=62 velocity=76 time=0
EXTRACT: note_on channel=14 note=46 velocity=96 time=0
EXTRACT: note_off channel=3 note=72 velocity=0 time=0.051681744791666664
EXTRACT: note_off channel=4 note=84 velocity=0 time=0
EXTRACT: note_off channel=9 note=49 velocity=0 time=0.025239921875
EXTRACT: note_off channel=14 note=46 velocity=0 time=0.009615208333333333
EXTRACT: note_off channel=9 note=57 velocity=0 time=0.0024038020833333333
EXTRACT: note_off channel=12 note=58 velocity=0 time=0.00721140625
EXTRACT: note_off channel=9 note=36 velocity=0 time=0.00721140625
EXTRACT: note_off channel=12 note=62 velocity=0 time=0.009615208333333333
EXTRACT: note_on channel=14 note=58 velocity=92 time=0.0024038020833333333
EXTRACT: note_off channel=12 note=53 velocity=0 time=0.00721140625
EXTRACT: note_off channel=14 note=58 velocity=0 time=0.10576729166666667
EXTRACT: note_on channel=9 note=46 velocity=84 time=0.0024038020833333333
EXTRACT: note_on channel=14 note=46 velocity=94 time=0
EXTRACT: note_off channel=9 note=44 velocity=0 time=0.026441822916666666
EXTRACT: note_off channel=14 note=46 velocity=0 time=0.04567223958333333
EXTRACT: note_on channel=14 note=58 velocity=91 time=0.0432684375
EXTRACT: note_off channel=1 note=34 velocity=0 time=0.07932546875
EXTRACT: note_off channel=14 note=58 velocity=0 time=0.004807604166666667
EXTRACT: note_on channel=9 note=36 velocity=116 time=0.031249427083333333
EXTRACT: note_on channel=9 note=39 velocity=87 time=0
EXTRACT: note_on channel=9 note=40 velocity=83 time=0
EXTRACT: note_on channel=9 note=44 velocity=101 time=0
EXTRACT: note_on channel=1 note=29 velocity=73 time=0
EXTRACT: note_on channel=5 note=62 velocity=78 time=0
EXTRACT: note_on channel=5 note=65 velocity=85 time=0
EXTRACT: note_on channel=6 note=58 velocity=127 time=0
EXTRACT: note_on channel=6 note=62 velocity=108 time=0
EXTRACT: note_on channel=6 note=65 velocity=118 time=0
EXTRACT: note_on channel=8 note=65 velocity=79 time=0
EXTRACT: note_on channel=8 note=74 velocity=84 time=0
EXTRACT: note_on channel=12 note=53 velocity=80 time=0
EXTRACT: note_on channel=12 note=58 velocity=73 time=0
EXTRACT: note_on channel=12 note=62 velocity=73 time=0
EXTRACT: note_on channel=14 note=46 velocity=94 time=0
EXTRACT: note_off channel=14 note=46 velocity=0 time=0.086536875
EXTRACT: note_off channel=12 note=62 velocity=0 time=0.016826614583333333
EXTRACT: note_off channel=9 note=46 velocity=0 time=0.009615208333333333
EXTRACT: note_off channel=12 note=58 velocity=0 time=0
EXTRACT: note_on channel=14 note=58 velocity=91 time=0.0024038020833333333
EXTRACT: note_off channel=12 note=53 velocity=0 time=0.00721140625
EXTRACT: note_off channel=9 note=36 velocity=0 time=0.009615208333333333
EXTRACT: note_off channel=1 note=29 velocity=0 time=0.036057031249999996
EXTRACT: note_off channel=5 note=62 velocity=0 time=0.012019010416666667
EXTRACT: note_off channel=6 note=58 velocity=0 time=0
EXTRACT: note_off channel=6 note=62 velocity=0 time=0.0024038020833333333
EXTRACT: note_off channel=5 note=65 velocity=0 time=0.0024038020833333333
EXTRACT: note_off channel=6 note=65 velocity=0 time=0.0024038020833333333
EXTRACT: note_off channel=14 note=58 velocity=0 time=0.0144228125
EXTRACT: note_on channel=9 note=46 velocity=72 time=0.028845625
EXTRACT: note_on channel=1 note=27 velocity=88 time=0
EXTRACT: note_on channel=2 note=80 velocity=49 time=0
EXTRACT: note_on channel=12 note=53 velocity=76 time=0
EXTRACT: note_on channel=12 note=58 velocity=74 time=0
EXTRACT: note_on channel=12 note=63 velocity=74 time=0
EXTRACT: note_on channel=14 note=46 velocity=92 time=0
EXTRACT: note_off channel=8 note=65 velocity=0 time=0.009615208333333333
EXTRACT: note_off channel=8 note=74 velocity=0 time=0.012019010416666667
EXTRACT: note_off channel=9 note=44 velocity=0 time=0.0144228125
EXTRACT: note_off channel=2 note=79 velocity=0 time=0.019230416666666666
EXTRACT: note_off channel=14 note=46 velocity=0 time=0.031249427083333333
EXTRACT: note_off channel=12 note=53 velocity=0 time=0.026441822916666666
EXTRACT: note_on channel=14 note=58 velocity=91 time=0.0024038020833333333
EXTRACT: note_off channel=12 note=58 velocity=0 time=0.016826614583333333
EXTRACT: note_off channel=12 note=63 velocity=0 time=0.012019010416666667
EXTRACT: note_off channel=14 note=58 velocity=0 time=0.05528744791666666
EXTRACT: note_on channel=9 note=36 velocity=102 time=0.031249427083333333
EXTRACT: note_on channel=9 note=44 velocity=94 time=0
EXTRACT: note_on channel=5 note=63 velocity=82 time=0
EXTRACT: note_on channel=5 note=67 velocity=82 time=0
EXTRACT: note_on channel=14 note=46 velocity=93 time=0
EXTRACT: pitchwheel channel=2 pitch=-1024 time=0.031249427083333333
EXTRACT: pitchwheel channel=2 pitch=-2048 time=0.019230416666666666
EXTRACT: pitchwheel channel=2 pitch=-2944 time=0.019230416666666666
EXTRACT: note_off channel=9 note=46 velocity=0 time=0.00721140625
EXTRACT: pitchwheel channel=2 pitch=-3456 time=0.0144228125
EXTRACT: note_off channel=14 note=46 velocity=0 time=0
EXTRACT: note_off channel=5 note=63 velocity=0 time=0.00721140625
EXTRACT: pitchwheel channel=2 pitch=-3840 time=0.012019010416666667
EXTRACT: note_off channel=5 note=67 velocity=0 time=0
EXTRACT: note_on channel=14 note=58 velocity=91 time=0.004807604166666667
EXTRACT: pitchwheel channel=2 pitch=-3712 time=0.0144228125
EXTRACT: pitchwheel channel=2 pitch=-2944 time=0.019230416666666666
EXTRACT: pitchwheel channel=2 pitch=-2304 time=0.019230416666666666
EXTRACT: note_off channel=1 note=27 velocity=0 time=0.012019010416666667
EXTRACT: pitchwheel channel=2 pitch=-1536 time=0.00721140625
EXTRACT: pitchwheel channel=2 pitch=0 time=0.019230416666666666
EXTRACT: note_off channel=14 note=58 velocity=0 time=0
EXTRACT: note_on channel=9 note=36 velocity=120 time=0.024038020833333333
EXTRACT: note_on channel=9 note=46 velocity=80 time=0
EXTRACT: note_on channel=1 note=27 velocity=95 time=0
EXTRACT: note_on channel=5 note=63 velocity=80 time=0
EXTRACT: note_on channel=5 note=68 velocity=82 time=0
EXTRACT: note_on channel=6 note=58 velocity=115 time=0
EXTRACT: note_on channel=6 note=63 velocity=111 time=0
EXTRACT: note_on channel=6 note=68 velocity=111 time=0
EXTRACT: note_on channel=12 note=53 velocity=71 time=0
EXTRACT: note_on channel=12 note=58 velocity=78 time=0
EXTRACT: note_on channel=12 note=63 velocity=78 time=0
EXTRACT: note_on channel=14 note=46 velocity=92 time=0
EXTRACT: note_off channel=9 note=36 velocity=0 time=0.028845625
EXTRACT: note_off channel=9 note=36 velocity=64 time=0.028845625
EXTRACT: note_off channel=9 note=44 velocity=0 time=0.031249427083333333
EXTRACT: note_off channel=14 note=46 velocity=0 time=0.0024038020833333333
EXTRACT: note_off channel=9 note=39 velocity=0 time=0.0024038020833333333
EXTRACT: note_off channel=9 note=40 velocity=0 time=0.009615208333333333
EXTRACT: note_on channel=14 note=58 velocity=91 time=0.012019010416666667
EXTRACT: note_off channel=14 note=58 velocity=0 time=0.09374828125
EXTRACT: note_on channel=9 note=36 velocity=127 time=0.02163421875
EXTRACT: note_on channel=9 note=39 velocity=71 time=0
EXTRACT: note_on channel=9 note=40 velocity=75 time=0
EXTRACT: note_on channel=9 note=44 velocity=110 time=0
EXTRACT: note_on channel=8 note=70 velocity=78 time=0
EXTRACT: note_on channel=8 note=74 velocity=84 time=0
EXTRACT: note_on channel=14 note=46 velocity=94 time=0
EXTRACT: note_off channel=14 note=46 velocity=0 time=0.09615208333333333
EXTRACT: note_off channel=9 note=46 velocity=0 time=0.00721140625
EXTRACT: note_off channel=12 note=53 velocity=0 time=0.004807604166666667
EXTRACT: note_on channel=14 note=58 velocity=91 time=0.00721140625
EXTRACT: note_off channel=12 note=58 velocity=0 time=0.00721140625
EXTRACT: note_off channel=12 note=63 velocity=0 time=0.0144228125
EXTRACT: note_off channel=14 note=58 velocity=0 time=0.07932546875
EXTRACT: note_off channel=1 note=27 velocity=0 time=0.012019010416666667
EXTRACT: note_on channel=9 note=46 velocity=79 time=0.0024038020833333333
EXTRACT: note_on channel=1 note=31 velocity=62 time=0
EXTRACT: note_on channel=12 note=53 velocity=71 time=0
EXTRACT: note_on channel=12 note=58 velocity=73 time=0
EXTRACT: note_on channel=12 note=63 velocity=68 time=0
EXTRACT: note_on channel=14 note=46 velocity=94 time=0
EXTRACT: note_off channel=6 note=63 velocity=0 time=0.00721140625
EXTRACT: note_off channel=5 note=63 velocity=0 time=0.0144228125
EXTRACT: note_off channel=6 note=68 velocity=0 time=0
EXTRACT: note_off channel=6 note=58 velocity=0 time=0.0024038020833333333
EXTRACT: note_off channel=8 note=70 velocity=0 time=0.012019010416666667
EXTRACT: note_off channel=5 note=68 velocity=0 time=0.0024038020833333333
EXTRACT: note_off channel=8 note=74 velocity=0 time=0.009615208333333333
EXTRACT: note_off channel=9 note=44 velocity=0 time=0.036057031249999996
EXTRACT: note_off channel=9 note=36 velocity=0 time=0.0024038020833333333
EXTRACT: note_off channel=14 note=46 velocity=0 time=0.00721140625
EXTRACT: note_on channel=14 note=58 velocity=90 time=0.02163421875
EXTRACT: note_off channel=12 note=53 velocity=0 time=0.00721140625
EXTRACT: note_off channel=12 note=58 velocity=0 time=0.012019010416666667
EXTRACT: note_off channel=9 note=46 velocity=0 time=0.024038020833333333
EXTRACT: note_off channel=12 note=63 velocity=0 time=0.004807604166666667
EXTRACT: note_off channel=1 note=31 velocity=0 time=0.016826614583333333
EXTRACT: note_off channel=3 note=70 velocity=0 time=0.019230416666666666
EXTRACT: note_off channel=4 note=82 velocity=0 time=0
EXTRACT: note_off channel=14 note=58 velocity=0 time=0.016826614583333333
EXTRACT: note_on channel=9 note=36 velocity=127 time=0.0144228125
EXTRACT: note_on channel=9 note=44 velocity=120 time=0
EXTRACT: note_on channel=1 note=34 velocity=82 time=0
EXTRACT: note_on channel=2 note=79 velocity=49 time=0
EXTRACT: note_on channel=12 note=53 velocity=74 time=0
EXTRACT: note_on channel=12 note=58 velocity=73 time=0
EXTRACT: note_on channel=12 note=62 velocity=71 time=0
EXTRACT: note_on channel=14 note=46 velocity=94 time=0
EXTRACT: note_off channel=2 note=80 velocity=0 time=0.00721140625
EXTRACT: note_off channel=12 note=58 velocity=0 time=0.086536875
EXTRACT: note_off channel=14 note=46 velocity=0 time=0
EXTRACT: note_off channel=12 note=62 velocity=0 time=0.012019010416666667
EXTRACT: note_off channel=12 note=53 velocity=0 time=0.004807604166666667
EXTRACT: note_on channel=14 note=58 velocity=91 time=0.004807604166666667
EXTRACT: note_off channel=14 note=58 velocity=0 time=0.10576729166666667
EXTRACT: note_on channel=9 note=46 velocity=84 time=0.009615208333333333
EXTRACT: note_on channel=6 note=58 velocity=115 time=0
EXTRACT: note_on channel=6 note=62 velocity=100 time=0
EXTRACT: note_on channel=6 note=65 velocity=105 time=0
EXTRACT: note_on channel=14 note=46 velocity=93 time=0
EXTRACT: note_off channel=9 note=44 velocity=0 time=0.026441822916666666
EXTRACT: note_off channel=6 note=65 velocity=0 time=0.048076041666666666
EXTRACT: note_off channel=9 note=36 velocity=0 time=0.0024038020833333333
EXTRACT: note_off channel=6 note=62 velocity=0 time=0.004807604166666667
EXTRACT: note_off channel=6 note=58 velocity=0 time=0.0024038020833333333
EXTRACT: note_off channel=14 note=46 velocity=0 time=0
EXTRACT: note_off channel=9 note=40 velocity=0 time=0.012019010416666667
EXTRACT: note_off channel=9 note=39 velocity=0 time=0.009615208333333333
EXTRACT: note_on channel=14 note=58 velocity=91 time=0.009615208333333333
EXTRACT: pitchwheel channel=2 pitch=-896 time=0.016826614583333333
EXTRACT: pitchwheel channel=2 pitch=-1792 time=0.019230416666666666
EXTRACT: pitchwheel channel=2 pitch=-2432 time=0.019230416666666666
EXTRACT: pitchwheel channel=2 pitch=-2816 time=0.019230416666666666
EXTRACT: note_off channel=14 note=58 velocity=0 time=0.031249427083333333
EXTRACT: note_off channel=1 note=34 velocity=0 time=0.004807604166666667
EXTRACT: pitchwheel channel=2 pitch=-2432 time=0.0024038020833333333
EXTRACT: note_on channel=9 note=36 velocity=127 time=0.0024038020833333333
EXTRACT: note_on channel=9 note=39 velocity=75 time=0
EXTRACT: note_on channel=9 note=40 velocity=83 time=0
EXTRACT: note_on channel=9 note=44 velocity=101 time=0
EXTRACT: note_on channel=1 note=29 velocity=76 time=0
EXTRACT: note_on channel=5 note=62 velocity=78 time=0
EXTRACT: note_on channel=5 note=65 velocity=80 time=0
EXTRACT: note_on channel=8 note=70 velocity=84 time=0
EXTRACT: note_on channel=8 note=74 velocity=74 time=0
EXTRACT: note_on channel=12 note=53 velocity=82 time=0
EXTRACT: note_on channel=12 note=58 velocity=78 time=0
EXTRACT: note_on channel=12 note=62 velocity=73 time=0
EXTRACT: note_on channel=14 note=46 velocity=94 time=0
EXTRACT: pitchwheel channel=2 pitch=-1920 time=0.016826614583333333
EXTRACT: pitchwheel channel=2 pitch=-1408 time=0.019230416666666666
EXTRACT: pitchwheel channel=2 pitch=0 time=0.02163421875
EXTRACT: note_off channel=5 note=65 velocity=0 time=0.019230416666666666
EXTRACT: note_off channel=5 note=62 velocity=0 time=0.009615208333333333
EXTRACT: note_off channel=14 note=46 velocity=0 time=0.012019010416666667
EXTRACT: note_off channel=9 note=46 velocity=0 time=0.0144228125
EXTRACT: note_on channel=14 note=58 velocity=91 time=0.0024038020833333333
EXTRACT: note_off channel=12 note=62 velocity=0 time=0.033653229166666666
EXTRACT: note_off channel=12 note=58 velocity=0 time=0
EXTRACT: note_off channel=12 note=53 velocity=0 time=0
EXTRACT: note_off channel=8 note=70 velocity=0 time=0.060095052083333336
EXTRACT: note_off channel=14 note=58 velocity=0 time=0
EXTRACT: note_off channel=8 note=74 velocity=0 time=0.012019010416666667
EXTRACT: note_off channel=1 note=29 velocity=0 time=0.004807604166666667
EXTRACT: note_on channel=9 note=46 velocity=72 time=0.004807604166666667
EXTRACT: note_on channel=1 note=27 velocity=91 time=0
EXTRACT: note_on channel=2 note=77 velocity=40 time=0
EXTRACT: note_on channel=5 note=62 velocity=68 time=0
EXTRACT: note_on channel=5 note=65 velocity=74 time=0
EXTRACT: note_on channel=6 note=58 velocity=102 time=0
EXTRACT: note_on channel=6 note=62 velocity=100 time=0
EXTRACT: note_on channel=6 note=65 velocity=108 time=0
EXTRACT: note_on channel=12 note=53 velocity=82 time=0
EXTRACT: note_on channel=12 note=58 velocity=80 time=0
EXTRACT: note_on channel=12 note=63 velocity=80 time=0
EXTRACT: note_on channel=14 note=46 velocity=93 time=0
EXTRACT: note_off channel=9 note=44 velocity=0 time=0.036057031249999996
EXTRACT: note_off channel=2 note=79 velocity=0 time=0.009615208333333333
EXTRACT: note_off channel=6 note=62 velocity=0 time=0.0024038020833333333
EXTRACT: note_off channel=6 note=65 velocity=0 time=0.0024038020833333333
EXTRACT: note_off channel=6 note=58 velocity=0 time=0.026441822916666666
EXTRACT: note_off channel=5 note=62 velocity=0 time=0.0024038020833333333
EXTRACT: note_off channel=5 note=65 velocity=0 time=0.00721140625
EXTRACT: note_off channel=14 note=46 velocity=0 time=0.0024038020833333333
EXTRACT: note_on channel=14 note=58 velocity=91 time=0.026441822916666666
EXTRACT: note_off channel=12 note=58 velocity=0 time=0.019230416666666666
EXTRACT: note_off channel=12 note=63 velocity=0 time=0.004807604166666667
EXTRACT: note_off channel=9 note=36 velocity=0 time=0.0024038020833333333
EXTRACT: note_off channel=12 note=53 velocity=0 time=0.00721140625
EXTRACT: note_off channel=14 note=58 velocity=0 time=0.062498854166666666
EXTRACT: note_on channel=9 note=36 velocity=127 time=0.019230416666666666
EXTRACT: note_on channel=9 note=44 velocity=94 time=0
EXTRACT: note_on channel=5 note=63 velocity=63 time=0
EXTRACT: note_on channel=5 note=67 velocity=73 time=0
EXTRACT: note_on channel=14 note=46 velocity=94 time=0
EXTRACT: note_off channel=5 note=63 velocity=0 time=0.04086463541666667
EXTRACT: note_off channel=5 note=67 velocity=0 time=0.028845625
EXTRACT: note_off channel=9 note=46 velocity=0 time=0.00721140625
EXTRACT: note_off channel=14 note=46 velocity=0 time=0.012019010416666667
EXTRACT: note_off channel=1 note=27 velocity=0 time=0.019230416666666666
EXTRACT: note_on channel=14 note=58 velocity=90 time=0.00721140625
EXTRACT: note_off channel=14 note=58 velocity=0 time=0.10336348958333333
EXTRACT: note_on channel=9 note=36 velocity=120 time=0.012019010416666667
EXTRACT: note_on channel=9 note=46 velocity=80 time=0
EXTRACT: note_on channel=1 note=27 velocity=95 time=0
EXTRACT: note_on channel=2 note=80 velocity=53 time=0
EXTRACT: note_on channel=3 note=70 velocity=107 time=0
EXTRACT: note_on channel=4 note=82 velocity=97 time=0
EXTRACT: note_on channel=5 note=63 velocity=74 time=0
EXTRACT: note_on channel=5 note=68 velocity=73 time=0
EXTRACT: note_on channel=6 note=58 velocity=108 time=0
EXTRACT: note_on channel=6 note=63 velocity=111 time=0
EXTRACT: note_on channel=6 note=68 velocity=108 time=0
EXTRACT: note_on channel=8 note=70 velocity=79 time=0
EXTRACT: note_on channel=8 note=74 velocity=72 time=0
EXTRACT: note_on channel=12 note=53 velocity=80 time=0
EXTRACT: note_on channel=12 note=58 velocity=78 time=0
EXTRACT: note_on channel=12 note=63 velocity=80 time=0
EXTRACT: note_on channel=14 note=46 velocity=93 time=0
EXTRACT: note_off channel=2 note=77 velocity=0 time=0.036057031249999996
EXTRACT: note_off channel=9 note=36 velocity=64 time=0.02163421875
EXTRACT: note_off channel=9 note=44 velocity=0 time=0.031249427083333333
EXTRACT: note_off channel=9 note=39 velocity=0 time=0.0024038020833333333
EXTRACT: note_off channel=9 note=40 velocity=0 time=0.0024038020833333333
EXTRACT: note_off channel=14 note=46 velocity=0 time=0
EXTRACT: note_off channel=9 note=36 velocity=0 time=0.019230416666666666
EXTRACT: note_on channel=14 note=58 velocity=91 time=0.0024038020833333333
EXTRACT: note_off channel=3 note=70 velocity=0 time=0.031249427083333333
EXTRACT: note_off channel=4 note=82 velocity=0 time=0
EXTRACT: note_off channel=14 note=58 velocity=0 time=0.06971026041666667
EXTRACT: note_on channel=9 note=36 velocity=127 time=0.0144228125
EXTRACT: note_on channel=9 note=39 velocity=74 time=0
EXTRACT: note_on channel=9 note=40 velocity=72 time=0
EXTRACT: note_on channel=9 note=44 velocity=110 time=0
EXTRACT: note_on channel=3 note=70 velocity=107 time=0
EXTRACT: note_on channel=4 note=82 velocity=97 time=0
EXTRACT: note_on channel=14 note=46 velocity=94 time=0
EXTRACT: note_off channel=14 note=46 velocity=0 time=0.09134447916666666
EXTRACT: note_off channel=9 note=46 velocity=0 time=0.012019010416666667
EXTRACT: note_on channel=14 note=58 velocity=91 time=0.012019010416666667
EXTRACT: note_off channel=14 note=58 velocity=0 time=0.09615208333333333
EXTRACT: note_off channel=2 note=80 velocity=0 time=0.00721140625
EXTRACT: note_on channel=9 note=46 velocity=79 time=0.012019010416666667
EXTRACT: note_on channel=1 note=31 velocity=85 time=0
EXTRACT: note_on channel=2 note=79 velocity=49 time=0
EXTRACT: note_on channel=3 note=72 velocity=107 time=0
EXTRACT: note_on channel=4 note=84 velocity=97 time=0
EXTRACT: note_on channel=14 note=46 velocity=93 time=0
EXTRACT: note_off channel=1 note=27 velocity=0 time=0.00721140625
EXTRACT: note_off channel=12 note=58 velocity=0 time=0.00721140625
EXTRACT: note_off channel=3 note=70 velocity=0 time=0.0012019010416666667
EXTRACT: note_off channel=4 note=82 velocity=0 time=0
EXTRACT: note_off channel=12 note=63 velocity=0 time=0.006009505208333333
EXTRACT: note_off channel=12 note=53 velocity=0 time=0.004807604166666667
EXTRACT: note_off channel=5 note=63 velocity=0 time=0.0144228125
EXTRACT: note_off channel=8 note=70 velocity=0 time=0.004807604166666667
EXTRACT: note_off channel=5 note=68 velocity=0 time=0.012019010416666667
EXTRACT: note_off channel=8 note=74 velocity=0 time=0.004807604166666667
EXTRACT: note_off channel=6 note=63 velocity=0 time=0.004807604166666667
EXTRACT: note_off channel=9 note=44 velocity=0 time=0.016826614583333333
EXTRACT: note_off channel=6 note=68 velocity=0 time=0
EXTRACT: note_off channel=6 note=58 velocity=0 time=0.0024038020833333333
EXTRACT: note_off channel=14 note=46 velocity=0 time=0.00721140625
EXTRACT: note_on channel=14 note=58 velocity=92 time=0.02163421875
EXTRACT: note_off channel=9 note=36 velocity=0 time=0.0024038020833333333
EXTRACT: note_off channel=9 note=46 velocity=0 time=0.04086463541666667
EXTRACT: note_off channel=1 note=31 velocity=0 time=0.031249427083333333
EXTRACT: note_off channel=14 note=58 velocity=0 time=0.019230416666666666
EXTRACT: note_off channel=2 note=79 velocity=0 time=0.012019010416666667
EXTRACT: note_on channel=9 note=36 velocity=127 time=0.009615208333333333
EXTRACT: note_on channel=9 note=44 velocity=120 time=0
EXTRACT: note_on channel=1 note=34 velocity=104 time=0
EXTRACT: note_on channel=2 note=80 velocity=46 time=0
EXTRACT: note_on channel=3 note=70 velocity=107 time=0
EXTRACT: note_on channel=4 note=82 velocity=97 time=0
EXTRACT: note_on channel=14 note=46 velocity=96 time=0
EXTRACT: note_off channel=3 note=72 velocity=0 time=0.054085546875
EXTRACT: note_off channel=4 note=84 velocity=0 time=0
EXTRACT: note_off channel=14 note=46 velocity=0 time=0.032451328125
EXTRACT: note_on channel=14 note=58 velocity=92 time=0.028845625
EXTRACT: note_off channel=14 note=58 velocity=0 time=0.11297869791666666
EXTRACT: note_on channel=9 note=46 velocity=84 time=0.0024038020833333333
EXTRACT: note_on channel=2 note=79 velocity=46 time=0
EXTRACT: note_on channel=12 note=53 velocity=85 time=0
EXTRACT: note_on channel=12 note=58 velocity=80 time=0
EXTRACT: note_on channel=12 note=62 velocity=76 time=0
EXTRACT: note_on channel=14 note=46 velocity=94 time=0
EXTRACT: note_off channel=2 note=80 velocity=0 time=0.019230416666666666
EXTRACT: note_off channel=9 note=44 velocity=0 time=0.00721140625
EXTRACT: note_off channel=9 note=39 velocity=0 time=0.04086463541666667
EXTRACT: note_off channel=14 note=46 velocity=0 time=0.004807604166666667
EXTRACT: note_off channel=9 note=40 velocity=0 time=0.0024038020833333333
EXTRACT: note_off channel=12 note=58 velocity=0 time=0.019230416666666666
EXTRACT: note_off channel=9 note=36 velocity=0 time=0.00721140625
EXTRACT: note_off channel=12 note=62 velocity=0 time=0
EXTRACT: note_off channel=12 note=53 velocity=0 time=0.0144228125
EXTRACT: note_on channel=14 note=58 velocity=91 time=0
EXTRACT: note_off channel=1 note=34 velocity=0 time=0.07932546875
EXTRACT: note_off channel=2 note=79 velocity=0 time=0.004807604166666667
EXTRACT: note_off channel=14 note=58 velocity=0 time=0
EXTRACT: note_on channel=9 note=36 velocity=127 time=0.031249427083333333
EXTRACT: note_on channel=9 note=39 velocity=71 time=0
EXTRACT: note_on channel=9 note=40 velocity=72 time=0
EXTRACT: note_on channel=9 note=44 velocity=101 time=0
EXTRACT: note_on channel=1 note=29 velocity=73 time=0
EXTRACT: note_on channel=2 note=77 velocity=38 time=0
EXTRACT: note_on channel=5 note=62 velocity=76 time=0
EXTRACT: note_on channel=5 note=65 velocity=80 time=0
EXTRACT: note_on channel=6 note=58 velocity=127 time=0
EXTRACT: note_on channel=6 note=62 velocity=108 time=0
EXTRACT: note_on channel=6 note=65 velocity=118 time=0
EXTRACT: note_on channel=8 note=70 velocity=84 time=0
EXTRACT: note_on channel=8 note=74 velocity=63 time=0
EXTRACT: note_on channel=14 note=46 velocity=94 time=0
EXTRACT: note_off channel=14 note=46 velocity=0 time=0.086536875
EXTRACT: note_off channel=5 note=62 velocity=0 time=0.009615208333333333
EXTRACT: note_off channel=5 note=65 velocity=0 time=0.00721140625
EXTRACT: note_off channel=9 note=46 velocity=0 time=0.009615208333333333
EXTRACT: note_on channel=14 note=58 velocity=91 time=0.0024038020833333333
EXTRACT: note_off channel=1 note=29 velocity=0 time=0.05288364583333333
EXTRACT: note_off channel=6 note=58 velocity=0 time=0.012019010416666667
EXTRACT: note_off channel=6 note=62 velocity=0 time=0.0024038020833333333
EXTRACT: note_off channel=6 note=65 velocity=0 time=0.004807604166666667
EXTRACT: note_off channel=14 note=58 velocity=0 time=0.0144228125
EXTRACT: note_on channel=9 note=46 velocity=72 time=0.028845625
EXTRACT: note_on channel=1 note=27 velocity=88 time=0
EXTRACT: note_on channel=12 note=53 velocity=80 time=0
EXTRACT: note_on channel=12 note=58 velocity=78 time=0
EXTRACT: note_on channel=12 note=62 velocity=68 time=0
EXTRACT: note_on channel=14 note=46 velocity=92 time=0
EXTRACT: note_off channel=9 note=44 velocity=0 time=0.036057031249999996
EXTRACT: note_off channel=8 note=70 velocity=0 time=0.0024038020833333333
EXTRACT: note_off channel=8 note=74 velocity=0 time=0.02163421875
EXTRACT: pitchwheel channel=2 pitch=-640 time=0.00721140625
EXTRACT: note_off channel=12 note=62 velocity=0 time=0.0144228125
EXTRACT: note_off channel=12 note=58 velocity=0 time=0.0024038020833333333
EXTRACT: pitchwheel channel=2 pitch=-1536 time=0.0024038020833333333
EXTRACT: note_off channel=14 note=46 velocity=0 time=0
EXTRACT: note_off channel=12 note=53 velocity=0 time=0.012019010416666667
EXTRACT: pitchwheel channel=2 pitch=-2176 time=0.00721140625
EXTRACT: note_on channel=14 note=58 velocity=91 time=0.009615208333333333
EXTRACT: pitchwheel channel=2 pitch=-2560 time=0.009615208333333333
EXTRACT: note_off channel=9 note=36 velocity=0 time=0.012019010416666667
EXTRACT: pitchwheel channel=2 pitch=-2304 time=0.026441822916666666
EXTRACT: pitchwheel channel=2 pitch=-1664 time=0.019230416666666666
EXTRACT: note_off channel=14 note=58 velocity=0 time=0.016826614583333333
EXTRACT: pitchwheel channel=2 pitch=-1152 time=0.0024038020833333333
EXTRACT: pitchwheel channel=2 pitch=-256 time=0.019230416666666666
EXTRACT: note_on channel=9 note=36 velocity=127 time=0.009615208333333333
EXTRACT: note_on channel=9 note=44 velocity=94 time=0
EXTRACT: note_on channel=5 note=63 velocity=80 time=0
EXTRACT: note_on channel=5 note=67 velocity=74 time=0
EXTRACT: note_on channel=12 note=53 velocity=85 time=0
EXTRACT: note_on channel=12 note=58 velocity=82 time=0
EXTRACT: note_on channel=12 note=63 velocity=82 time=0
EXTRACT: note_on channel=14 note=46 velocity=93 time=0
EXTRACT: pitchwheel channel=2 pitch=0 time=0.012019010416666667
EXTRACT: note_off channel=9 note=46 velocity=0 time=0.06490265625
EXTRACT: note_off channel=5 note=63 velocity=0 time=0.00721140625
EXTRACT: note_off channel=14 note=46 velocity=0 time=0.00721140625
EXTRACT: note_off channel=5 note=67 velocity=0 time=0.004807604166666667
EXTRACT: note_on channel=14 note=58 velocity=91 time=0.019230416666666666
EXTRACT: note_off channel=1 note=27 velocity=0 time=0.06490265625
EXTRACT: note_off channel=12 note=58 velocity=0 time=0.0144228125
EXTRACT: note_off channel=14 note=58 velocity=0 time=0.012019010416666667
EXTRACT: note_off channel=12 note=63 velocity=0 time=0.004807604166666667
EXTRACT: note_on channel=9 note=36 velocity=120 time=0.019230416666666666
EXTRACT: note_on channel=9 note=46 velocity=80 time=0
EXTRACT: note_on channel=1 note=27 velocity=95 time=0
EXTRACT: note_on channel=5 note=63 velocity=71 time=0
EXTRACT: note_on channel=5 note=68 velocity=78 time=0
EXTRACT: note_on channel=6 note=58 velocity=115 time=0
EXTRACT: note_on channel=6 note=63 velocity=111 time=0
EXTRACT: note_on channel=6 note=68 velocity=111 time=0
EXTRACT: note_on channel=14 note=46 velocity=92 time=0
EXTRACT: note_off channel=9 note=36 velocity=64 time=0.05769125
EXTRACT: note_off channel=12 note=53 velocity=0 time=0.0024038020833333333
EXTRACT: note_off channel=9 note=44 velocity=0 time=0.028845625
EXTRACT: note_off channel=9 note=40 velocity=0 time=0.0024038020833333333
EXTRACT: note_off channel=14 note=46 velocity=0 time=0
EXTRACT: note_off channel=9 note=36 velocity=0 time=0.0024038020833333333
EXTRACT: note_off channel=9 note=39 velocity=0 time=0
EXTRACT: note_on channel=14 note=58 velocity=91 time=0.02163421875
EXTRACT: note_off channel=3 note=70 velocity=0 time=0.049277942708333335
EXTRACT: note_off channel=4 note=82 velocity=0 time=0
EXTRACT: note_off channel=14 note=58 velocity=0 time=0.04447033854166667
EXTRACT: note_on channel=9 note=36 velocity=127 time=0.02163421875
EXTRACT: note_on channel=9 note=39 velocity=75 time=0
EXTRACT: note_on channel=9 note=40 velocity=74 time=0
EXTRACT: note_on channel=9 note=44 velocity=110 time=0
EXTRACT: note_on channel=8 note=70 velocity=79 time=0
EXTRACT: note_on channel=8 note=74 velocity=66 time=0
EXTRACT: note_on channel=12 note=53 velocity=82 time=0
EXTRACT: note_on channel=12 note=58 velocity=88 time=0
EXTRACT: note_on channel=12 note=63 velocity=82 time=0
EXTRACT: note_on channel=14 note=46 velocity=94 time=0
EXTRACT: note_off channel=14 note=46 velocity=0 time=0.09615208333333333
EXTRACT: note_off channel=9 note=46 velocity=0 time=0.00721140625
EXTRACT: note_off channel=5 note=63 velocity=0 time=0.012019010416666667
EXTRACT: note_on channel=14 note=58 velocity=91 time=0
EXTRACT: note_off channel=5 note=68 velocity=0 time=0.016826614583333333
EXTRACT: note_off channel=12 note=53 velocity=0 time=0.026441822916666666
EXTRACT: note_off channel=12 note=58 velocity=0 time=0.04086463541666667
EXTRACT: note_off channel=12 note=63 velocity=0 time=0.016826614583333333
EXTRACT: note_off channel=14 note=58 velocity=0 time=0
EXTRACT: note_off channel=1 note=27 velocity=0 time=0.012019010416666667
EXTRACT: note_on channel=9 note=46 velocity=79 time=0.0024038020833333333
EXTRACT: note_on channel=1 note=31 velocity=62 time=0
EXTRACT: note_on channel=12 note=53 velocity=82 time=0
EXTRACT: note_on channel=12 note=58 velocity=73 time=0
EXTRACT: note_on channel=12 note=62 velocity=73 time=0
EXTRACT: note_on channel=14 note=46 velocity=94 time=0
EXTRACT: note_off channel=6 note=63 velocity=0 time=0.00721140625
EXTRACT: note_off channel=6 note=68 velocity=0 time=0.0144228125
EXTRACT: note_off channel=6 note=58 velocity=0 time=0.0024038020833333333
EXTRACT: note_off channel=8 note=70 velocity=0 time=0.04086463541666667
EXTRACT: note_off channel=8 note=74 velocity=0 time=0.016826614583333333
EXTRACT: note_off channel=9 note=44 velocity=0 time=0.0024038020833333333
EXTRACT: note_off channel=12 note=62 velocity=0 time=0.0024038020833333333
EXTRACT: note_off channel=9 note=36 velocity=0 time=0.004807604166666667
EXTRACT: note_off channel=14 note=46 velocity=0 time=0.0024038020833333333
EXTRACT: note_off channel=12 note=58 velocity=0 time=0.016826614583333333
EXTRACT: note_off channel=12 note=53 velocity=0 time=0
EXTRACT: note_on channel=14 note=58 velocity=90 time=0.004807604166666667
EXTRACT: note_off channel=9 note=46 velocity=0 time=0.0432684375
EXTRACT: note_off channel=1 note=31 velocity=0 time=0.02163421875
EXTRACT: note_off channel=2 note=77 velocity=0 time=0.031249427083333333
EXTRACT: note_off channel=14 note=58 velocity=0 time=0.004807604166666667
EXTRACT: note_on channel=9 note=36 velocity=127 time=0.0144228125
EXTRACT: note_on channel=9 note=44 velocity=120 time=0
EXTRACT: note_on channel=1 note=34 velocity=82 time=0
EXTRACT: note_on channel=2 note=80 velocity=53 time=0
EXTRACT: note_on channel=14 note=46 velocity=94 time=0
EXTRACT: note_off channel=14 note=46 velocity=0 time=0.09374828125
EXTRACT: note_on channel=14 note=58 velocity=91 time=0.02163421875
EXTRACT: note_off channel=14 note=58 velocity=0 time=0.10576729166666667
EXTRACT: note_on channel=9 note=46 velocity=84 time=0.009615208333333333
EXTRACT: note_on channel=5 note=62 velocity=78 time=0
EXTRACT: note_on channel=5 note=65 velocity=85 time=0
EXTRACT: note_on channel=6 note=58 velocity=115 time=0
EXTRACT: note_on channel=6 note=62 velocity=100 time=0
EXTRACT: note_on channel=6 note=65 velocity=105 time=0
EXTRACT: note_on channel=12 note=53 velocity=82 time=0
EXTRACT: note_on channel=12 note=58 velocity=82 time=0
EXTRACT: note_on channel=12 note=62 velocity=73 time=0
EXTRACT: note_on channel=14 note=46 velocity=93 time=0
EXTRACT: note_off channel=9 note=44 velocity=0 time=0.026441822916666666
EXTRACT: note_off channel=9 note=39 velocity=0 time=0.012019010416666667
EXTRACT: note_off channel=9 note=40 velocity=0 time=0.00721140625
EXTRACT: note_off channel=5 note=62 velocity=0 time=0.02163421875
EXTRACT: note_off channel=6 note=65 velocity=0 time=0.00721140625
EXTRACT: note_off channel=5 note=65 velocity=0 time=0.0024038020833333333
EXTRACT: note_off channel=6 note=62 velocity=0 time=0.004807604166666667
EXTRACT: note_off channel=6 note=58 velocity=0 time=0.0024038020833333333
EXTRACT: note_off channel=14 note=46 velocity=0 time=0
EXTRACT: note_off channel=12 note=58 velocity=0 time=0.012019010416666667
EXTRACT: note_off channel=12 note=62 velocity=0 time=0.0024038020833333333
EXTRACT: note_off channel=9 note=36 velocity=0 time=0.004807604166666667
EXTRACT: note_off channel=12 note=53 velocity=0 time=0.0024038020833333333
EXTRACT: note_on channel=14 note=58 velocity=91 time=0.009615208333333333
EXTRACT: note_off channel=14 note=58 velocity=0 time=0.10576729166666667
EXTRACT: note_off channel=1 note=34 velocity=0 time=0.004807604166666667
EXTRACT: note_on channel=9 note=36 velocity=127 time=0.004807604166666667
EXTRACT: note_on channel=9 note=39 velocity=74 time=0
EXTRACT: note_on channel=9 note=40 velocity=74 time=0
EXTRACT: note_on channel=9 note=44 velocity=101 time=0
EXTRACT: note_on channel=1 note=29 velocity=76 time=0
EXTRACT: note_on channel=2 note=79 velocity=53 time=0
EXTRACT: note_on channel=8 note=70 velocity=79 time=0
EXTRACT: note_on channel=8 note=74 velocity=66 time=0
EXTRACT: note_on channel=14 note=46 velocity=94 time=0
EXTRACT: note_off channel=2 note=80 velocity=0 time=0.009615208333333333
EXTRACT: note_off channel=14 note=46 velocity=0 time=0.08894067708333334
EXTRACT: note_off channel=9 note=46 velocity=0 time=0.0144228125
EXTRACT: note_on channel=14 note=58 velocity=91 time=0.0024038020833333333
EXTRACT: note_off channel=14 note=58 velocity=0 time=0.09374828125
EXTRACT: note_off channel=1 note=29 velocity=0 time=0.016826614583333333
EXTRACT: note_on channel=9 note=46 velocity=72 time=0.004807604166666667
EXTRACT: note_on channel=1 note=27 velocity=91 time=0
EXTRACT: note_on channel=2 note=80 velocity=46 time=0
EXTRACT: note_on channel=5 note=63 velocity=88 time=0
EXTRACT: note_on channel=5 note=67 velocity=85 time=0
EXTRACT: note_on channel=6 note=58 velocity=102 time=0
EXTRACT: note_on channel=6 note=62 velocity=100 time=0
EXTRACT: note_on channel=6 note=65 velocity=108 time=0
EXTRACT: note_on channel=12 note=53 velocity=88 time=0
EXTRACT: note_on channel=12 note=58 velocity=78 time=0
EXTRACT: note_on channel=12 note=63 velocity=74 time=0
EXTRACT: note_on channel=14 note=46 velocity=93 time=0
EXTRACT: note_off channel=2 note=79 velocity=0 time=0.004807604166666667
EXTRACT: note_off channel=8 note=70 velocity=0 time=0.012019010416666667
EXTRACT: note_off channel=8 note=74 velocity=0 time=0.00721140625
EXTRACT: note_off channel=9 note=44 velocity=0 time=0.012019010416666667
EXTRACT: note_off channel=6 note=62 velocity=0 time=0.012019010416666667
EXTRACT: note_off channel=6 note=65 velocity=0 time=0.0024038020833333333
EXTRACT: note_off channel=5 note=63 velocity=0 time=0.0144228125
EXTRACT: note_off channel=6 note=58 velocity=0 time=0.012019010416666667
EXTRACT: note_off channel=5 note=67 velocity=0 time=0.004807604166666667
EXTRACT: note_off channel=14 note=46 velocity=0 time=0.00721140625
EXTRACT: note_off channel=12 note=58 velocity=0 time=0.02163421875
EXTRACT: note_on channel=14 note=58 velocity=91 time=0.004807604166666667
EXTRACT: note_off channel=9 note=36 velocity=0 time=0.0024038020833333333
EXTRACT: note_off channel=12 note=63 velocity=0 time=0.004807604166666667
EXTRACT: note_off channel=12 note=53 velocity=0 time=0
EXTRACT: note_off channel=14 note=58 velocity=0 time=0.08894067708333334
EXTRACT: note_on channel=9 note=36 velocity=127 time=0.019230416666666666
EXTRACT: note_on channel=9 note=44 velocity=94 time=0
EXTRACT: note_on channel=14 note=46 velocity=94 time=0
EXTRACT: note_off channel=9 note=46 velocity=0 time=0.07692166666666667
EXTRACT: note_off channel=14 note=46 velocity=0 time=0.012019010416666667
EXTRACT: note_off channel=1 note=27 velocity=0 time=0.019230416666666666
EXTRACT: note_on channel=14 note=58 velocity=90 time=0.00721140625
EXTRACT: note_off channel=14 note=58 velocity=0 time=0.10336348958333333
EXTRACT: note_on channel=9 note=36 velocity=120 time=0.012019010416666667
EXTRACT: note_on channel=9 note=46 velocity=80 time=0
EXTRACT: note_on channel=1 note=27 velocity=95 time=0
EXTRACT: note_on channel=2 note=79 velocity=56 time=0
EXTRACT: note_on channel=3 note=70 velocity=107 time=0
EXTRACT: note_on channel=4 note=82 velocity=97 time=0
EXTRACT: note_on channel=5 note=63 velocity=82 time=0
EXTRACT: note_on channel=5 note=68 velocity=82 time=0
EXTRACT: note_on channel=6 note=58 velocity=108 time=0
EXTRACT: note_on channel=6 note=63 velocity=111 time=0
EXTRACT: note_on channel=6 note=68 velocity=108 time=0
EXTRACT: note_on channel=8 note=70 velocity=84 time=0
EXTRACT: note_on channel=8 note=74 velocity=73 time=0
EXTRACT: note_on channel=12 note=53 velocity=85 time=0
EXTRACT: note_on channel=12 note=58 velocity=88 time=0
EXTRACT: note_on channel=12 note=63 velocity=88 time=0
EXTRACT: note_on channel=14 note=46 velocity=93 time=0
EXTRACT: note_off channel=2 note=80 velocity=0 time=0.004807604166666667
EXTRACT: note_off channel=9 note=36 velocity=64 time=0.05288364583333333
EXTRACT: note_off channel=9 note=40 velocity=0 time=0.012019010416666667
EXTRACT: note_off channel=9 note=39 velocity=0 time=0
EXTRACT: note_off channel=9 note=44 velocity=0 time=0.019230416666666666
EXTRACT: note_off channel=14 note=46 velocity=0 time=0.004807604166666667
EXTRACT: note_off channel=9 note=36 velocity=0 time=0.00721140625
EXTRACT: note_on channel=14 note=58 velocity=91 time=0.0144228125
EXTRACT: note_off channel=3 note=70 velocity=0 time=0.061296953125
EXTRACT: note_off channel=4 note=82 velocity=0 time=0
EXTRACT: note_off channel=14 note=58 velocity=0 time=0.039662734375
EXTRACT: note_on channel=9 note=36 velocity=127 time=0.0144228125
EXTRACT: note_on channel=9 note=39 velocity=74 time=0
EXTRACT: note_on channel=9 note=40 velocity=73 time=0
EXTRACT: note_on channel=9 note=44 velocity=110 time=0
EXTRACT: note_on channel=3 note=70 velocity=107 time=0
EXTRACT: note_on channel=4 note=82 velocity=97 time=0
EXTRACT: note_on channel=14 note=46 velocity=94 time=0
EXTRACT: note_off channel=14 note=46 velocity=0 time=0.09134447916666666
EXTRACT: note_off channel=9 note=46 velocity=0 time=0.012019010416666667
EXTRACT: note_on channel=14 note=58 velocity=91 time=0.012019010416666667
EXTRACT: note_off channel=12 note=58 velocity=0 time=0.0144228125
EXTRACT: note_off channel=12 note=63 velocity=0 time=0.009615208333333333
EXTRACT: note_off channel=12 note=53 velocity=0 time=0
EXTRACT: note_off channel=14 note=58 velocity=0 time=0.07211406249999999
EXTRACT: note_on channel=9 note=46 velocity=79 time=0.019230416666666666
EXTRACT: note_on channel=1 note=31 velocity=85 time=0
EXTRACT: note_on channel=2 note=77 velocity=49 time=0
EXTRACT: note_on channel=3 note=72 velocity=107 time=0
EXTRACT: note_on channel=4 note=84 velocity=97 time=0
EXTRACT: note_on channel=12 note=53 velocity=78 time=0
EXTRACT: note_on channel=12 note=58 velocity=80 time=0
EXTRACT: note_on channel=12 note=63 velocity=82 time=0
EXTRACT: note_on channel=14 note=46 velocity=93 time=0
EXTRACT: note_off channel=3 note=70 velocity=0 time=0.003605703125
EXTRACT: note_off channel=4 note=82 velocity=0 time=0
EXTRACT: note_off channel=1 note=27 velocity=0 time=0.003605703125
EXTRACT: note_off channel=2 note=79 velocity=0 time=0.00721140625
EXTRACT: note_off channel=5 note=63 velocity=0 time=0.028845625
EXTRACT: note_off channel=5 note=68 velocity=0 time=0.016826614583333333
EXTRACT: note_off channel=6 note=63 velocity=0 time=0.00721140625
EXTRACT: note_off channel=8 note=70 velocity=0 time=0
EXTRACT: note_off channel=8 note=74 velocity=0 time=0.004807604166666667
EXTRACT: note_off channel=9 note=44 velocity=0 time=0.012019010416666667
EXTRACT: note_off channel=6 note=68 velocity=0 time=0
EXTRACT: note_off channel=6 note=58 velocity=0 time=0.0024038020833333333
EXTRACT: note_off channel=12 note=58 velocity=0 time=0.0024038020833333333
EXTRACT: note_off channel=14 note=46 velocity=0 time=0.004807604166666667
EXTRACT: note_off channel=12 note=63 velocity=0 time=0.012019010416666667
EXTRACT: note_off channel=12 note=53 velocity=0 time=0
EXTRACT: note_off channel=9 note=36 velocity=0 time=0.0024038020833333333
EXTRACT: note_on channel=14 note=58 velocity=92 time=0.00721140625
EXTRACT: note_off channel=9 note=46 velocity=0 time=0.0432684375
EXTRACT: note_off channel=1 note=31 velocity=0 time=0.031249427083333333
EXTRACT: note_off channel=14 note=58 velocity=0 time=0.019230416666666666
EXTRACT: note_on channel=9 note=36 velocity=127 time=0.02163421875
EXTRACT: note_on channel=9 note=44 velocity=120 time=0
EXTRACT: note_on channel=9 note=49 velocity=89 time=0
EXTRACT: note_on channel=9 note=57 velocity=98 time=0
EXTRACT: note_on channel=1 note=34 velocity=104 time=0
EXTRACT: note_on channel=3 note=70 velocity=107 time=0
EXTRACT: note_on channel=4 note=82 velocity=97 time=0
EXTRACT: note_on channel=12 note=53 velocity=88 time=0
EXTRACT: note_on channel=12 note=58 velocity=78 time=0
EXTRACT: note_on channel=12 note=62 velocity=76 time=0
EXTRACT: note_on channel=14 note=46 velocity=96 time=0
EXTRACT: note_off channel=3 note=72 velocity=0 time=0.054085546875
EXTRACT: note_off channel=4 note=84 velocity=0 time=0
EXTRACT: note_off channel=9 note=49 velocity=0 time=0.022836119791666665
EXTRACT: note_off channel=14 note=46 velocity=0 time=0.009615208333333333
EXTRACT: note_off channel=9 note=57 velocity=0 time=0.0024038020833333333
EXTRACT: note_off channel=12 note=58 velocity=0 time=0.00721140625
EXTRACT: note_off channel=9 note=36 velocity=0 time=0.00721140625
EXTRACT: note_off channel=12 note=62 velocity=0 time=0.009615208333333333
EXTRACT: note_on channel=14 note=58 velocity=92 time=0.0024038020833333333
EXTRACT: note_off channel=12 note=53 velocity=0 time=0.00721140625
EXTRACT: note_off channel=14 note=58 velocity=0 time=0.10576729166666667
EXTRACT: note_on channel=9 note=46 velocity=84 time=0.0024038020833333333
EXTRACT: note_on channel=2 note=75 velocity=40 time=0
EXTRACT: note_on channel=5 note=62 velocity=73 time=0
EXTRACT: note_on channel=5 note=65 velocity=71 time=0
EXTRACT: note_on channel=14 note=46 velocity=94 time=0
EXTRACT: note_off channel=9 note=44 velocity=0 time=0.026441822916666666
EXTRACT: note_off channel=9 note=39 velocity=0 time=0.02163421875
EXTRACT: note_off channel=2 note=77 velocity=0 time=0.0024038020833333333
EXTRACT: note_off channel=9 note=40 velocity=0 time=0.0024038020833333333
EXTRACT: note_off channel=5 note=65 velocity=0 time=0
EXTRACT: note_off channel=5 note=62 velocity=0 time=0.012019010416666667
EXTRACT: note_off channel=14 note=46 velocity=0 time=0.00721140625
EXTRACT: note_on channel=14 note=58 velocity=91 time=0.0432684375
EXTRACT: note_off channel=1 note=34 velocity=0 time=0.07932546875
EXTRACT: note_off channel=14 note=58 velocity=0 time=0.004807604166666667
EXTRACT: note_on channel=9 note=36 velocity=116 time=0.031249427083333333
EXTRACT: note_on channel=9 note=39 velocity=87 time=0
EXTRACT: note_on channel=9 note=40 velocity=83 time=0
EXTRACT: note_on channel=9 note=44 velocity=101 time=0
EXTRACT: note_on channel=1 note=29 velocity=73 time=0
EXTRACT: note_on channel=5 note=62 velocity=67 time=0
EXTRACT: note_on channel=5 note=65 velocity=82 time=0
EXTRACT: note_on channel=6 note=58 velocity=127 time=0
EXTRACT: note_on channel=6 note=62 velocity=108 time=0
EXTRACT: note_on channel=6 note=65 velocity=118 time=0
EXTRACT: note_on channel=8 note=70 velocity=84 time=0
EXTRACT: note_on channel=8 note=74 velocity=70 time=0
EXTRACT: note_on channel=12 note=53 velocity=80 time=0
EXTRACT: note_on channel=12 note=58 velocity=73 time=0
EXTRACT: note_on channel=12 note=62 velocity=73 time=0
EXTRACT: note_on channel=14 note=46 velocity=94 time=0
EXTRACT: note_off channel=14 note=46 velocity=0 time=0.086536875
EXTRACT: note_off channel=12 note=62 velocity=0 time=0.016826614583333333
EXTRACT: note_off channel=5 note=62 velocity=0 time=0.0024038020833333333
EXTRACT: note_off channel=9 note=46 velocity=0 time=0.00721140625
EXTRACT: note_off channel=12 note=58 velocity=0 time=0
EXTRACT: note_on channel=14 note=58 velocity=91 time=0.0024038020833333333
EXTRACT: note_off channel=5 note=65 velocity=0 time=0.004807604166666667
EXTRACT: note_off channel=12 note=53 velocity=0 time=0.0024038020833333333
EXTRACT: note_off channel=9 note=36 velocity=0 time=0.009615208333333333
EXTRACT: note_off channel=1 note=29 velocity=0 time=0.036057031249999996
EXTRACT: note_off channel=6 note=58 velocity=0 time=0.012019010416666667
EXTRACT: note_off channel=6 note=62 velocity=0 time=0.0024038020833333333
EXTRACT: note_off channel=6 note=65 velocity=0 time=0.004807604166666667
EXTRACT: note_off channel=14 note=58 velocity=0 time=0.0144228125
EXTRACT: note_on channel=9 note=46 velocity=72 time=0.028845625
EXTRACT: note_on channel=1 note=27 velocity=88 time=0
EXTRACT: note_on channel=2 note=74 velocity=43 time=0
EXTRACT: note_on channel=12 note=53 velocity=76 time=0
EXTRACT: note_on channel=12 note=58 velocity=74 time=0
EXTRACT: note_on channel=12 note=63 velocity=74 time=0
EXTRACT: note_on channel=14 note=46 velocity=92 time=0
EXTRACT: note_off channel=2 note=75 velocity=0 time=0.016826614583333333
EXTRACT: note_off channel=9 note=44 velocity=0 time=0.019230416666666666
EXTRACT: note_off channel=8 note=70 velocity=0 time=0.026441822916666666
EXTRACT: note_off channel=8 note=74 velocity=0 time=0.019230416666666666
EXTRACT: note_off channel=14 note=46 velocity=0 time=0.004807604166666667
EXTRACT: control_change channel=14 control=1 value=24 time=0
EXTRACT: note_off channel=12 note=53 velocity=0 time=0.026441822916666666
EXTRACT: note_on channel=14 note=58 velocity=91 time=0.0024038020833333333
EXTRACT: control_change channel=14 control=1 value=32 time=0.009615208333333333
EXTRACT: note_off channel=12 note=58 velocity=0 time=0.00721140625
EXTRACT: note_off channel=12 note=63 velocity=0 time=0.012019010416666667
EXTRACT: control_change channel=14 control=1 value=38 time=0.019230416666666666
EXTRACT: note_off channel=14 note=58 velocity=0 time=0.036057031249999996
EXTRACT: control_change channel=14 control=1 value=44 time=0.0024038020833333333
EXTRACT: note_off channel=3 note=70 velocity=0 time=0.00721140625
EXTRACT: note_off channel=4 note=82 velocity=0 time=0
EXTRACT: note_on channel=9 note=36 velocity=102 time=0.02163421875
EXTRACT: note_on channel=9 note=44 velocity=94 time=0
EXTRACT: note_on channel=5 note=63 velocity=82 time=0
EXTRACT: note_on channel=5 note=67 velocity=85 time=0
EXTRACT: note_on channel=14 note=46 velocity=93 time=0
EXTRACT: control_change channel=14 control=1 value=51 time=0.012019010416666667
EXTRACT: control_change channel=14 control=1 value=57 time=0.03846083333333333
EXTRACT: note_off channel=9 note=46 velocity=0 time=0.026441822916666666
EXTRACT: note_off channel=5 note=63 velocity=0 time=0.00721140625
EXTRACT: control_change channel=14 control=1 value=62 time=0.004807604166666667
EXTRACT: note_off channel=5 note=67 velocity=0 time=0.0024038020833333333
EXTRACT: note_off channel=14 note=46 velocity=0 time=0
EXTRACT: note_on channel=14 note=58 velocity=91 time=0.024038020833333333
EXTRACT: control_change channel=14 control=1 value=65 time=0.012019010416666667
EXTRACT: control_change channel=14 control=1 value=67 time=0.03846083333333333
EXTRACT: note_off channel=1 note=27 velocity=0 time=0.0144228125
EXTRACT: note_off channel=14 note=58 velocity=0 time=0.026441822916666666
EXTRACT: control_change channel=14 control=1 value=68 time=0.016826614583333333
EXTRACT: note_on channel=9 note=36 velocity=120 time=0.00721140625
EXTRACT: note_on channel=9 note=46 velocity=80 time=0
EXTRACT: note_on channel=1 note=27 velocity=95 time=0
EXTRACT: note_on channel=2 note=72 velocity=49 time=0
EXTRACT: note_on channel=3 note=70 velocity=107 time=0
EXTRACT: note_on channel=4 note=82 velocity=97 time=0
EXTRACT: note_on channel=5 note=63 velocity=78 time=0
EXTRACT: note_on channel=5 note=68 velocity=78 time=0
EXTRACT: note_on channel=6 note=58 velocity=115 time=0
EXTRACT: note_on channel=6 note=63 velocity=111 time=0
EXTRACT: note_on channel=6 note=68 velocity=111 time=0
EXTRACT: note_on channel=12 note=53 velocity=71 time=0
EXTRACT: note_on channel=12 note=58 velocity=78 time=0
EXTRACT: note_on channel=12 note=63 velocity=78 time=0
EXTRACT: note_on channel=14 note=46 velocity=92 time=0
EXTRACT: note_off channel=2 note=74 velocity=0 time=0.019230416666666666
EXTRACT: note_off channel=9 note=36 velocity=0 time=0.009615208333333333
EXTRACT: control_change channel=14 control=1 value=70 time=0.0024038020833333333
EXTRACT: note_off channel=9 note=36 velocity=64 time=0.026441822916666666
EXTRACT: control_change channel=14 control=1 value=73 time=0.0144228125
EXTRACT: note_off channel=9 note=44 velocity=0 time=0.016826614583333333
EXTRACT: note_off channel=14 note=46 velocity=0 time=0.0024038020833333333
EXTRACT: note_off channel=9 note=39 velocity=0 time=0.0024038020833333333
EXTRACT: note_off channel=9 note=40 velocity=0 time=0.009615208333333333
EXTRACT: control_change channel=14 control=1 value=77 time=0.00721140625
EXTRACT: note_on channel=14 note=58 velocity=91 time=0.004807604166666667
EXTRACT: note_off channel=3 note=70 velocity=0 time=0.031249427083333333
EXTRACT: note_off channel=4 note=82 velocity=0 time=0
EXTRACT: control_change channel=14 control=1 value=80 time=0.0024038020833333333
EXTRACT: control_change channel=14 control=1 value=83 time=0.03846083333333333
EXTRACT: note_off channel=14 note=58 velocity=0 time=0.02163421875
EXTRACT: control_change channel=14 control=1 value=85 time=0.016826614583333333
EXTRACT: note_on channel=9 note=36 velocity=127 time=0.004807604166666667
EXTRACT: note_on channel=9 note=39 velocity=71 time=0
EXTRACT: note_on channel=9 note=40 velocity=75 time=0
EXTRACT: note_on channel=9 note=44 velocity=110 time=0
EXTRACT: note_on channel=3 note=70 velocity=107 time=0
EXTRACT: note_on channel=4 note=82 velocity=97 time=0
EXTRACT: note_on channel=8 note=70 velocity=79 time=0
EXTRACT: note_on channel=8 note=74 velocity=79 time=0
EXTRACT: note_on channel=14 note=46 velocity=94 time=0
EXTRACT: control_change channel=14 control=1 value=87 time=0.033653229166666666
EXTRACT: control_change channel=14 control=1 value=88 time=0.03846083333333333
EXTRACT: note_off channel=14 note=46 velocity=0 time=0.024038020833333333
EXTRACT: note_off channel=9 note=46 velocity=0 time=0.00721140625
EXTRACT: note_off channel=12 note=53 velocity=0 time=0.004807604166666667
EXTRACT: control_change channel=14 control=1 value=91 time=0.0024038020833333333
EXTRACT: note_on channel=14 note=58 velocity=91 time=0.004807604166666667
EXTRACT: note_off channel=12 note=58 velocity=0 time=0.00721140625
EXTRACT: note_off channel=12 note=63 velocity=0 time=0.0144228125
EXTRACT: control_change channel=14 control=1 value=93 time=0.012019010416666667
EXTRACT: control_change channel=14 control=1 value=94 time=0.03846083333333333
EXTRACT: note_off channel=3 note=70 velocity=0 time=0.010817109375
EXTRACT: note_off channel=4 note=82 velocity=0 time=0
EXTRACT: note_off channel=14 note=58 velocity=0 time=0.018028515624999998
EXTRACT: control_change channel=14 control=1 value=96 time=0.009615208333333333
EXTRACT: note_off channel=1 note=27 velocity=0 time=0.0024038020833333333
EXTRACT: note_on channel=9 note=46 velocity=79 time=0.0024038020833333333
EXTRACT: note_on channel=1 note=31 velocity=62 time=0
EXTRACT: note_on channel=2 note=70 velocity=49 time=0
EXTRACT: note_on channel=3 note=72 velocity=107 time=0
EXTRACT: note_on channel=4 note=84 velocity=97 time=0
EXTRACT: note_on channel=12 note=53 velocity=71 time=0
EXTRACT: note_on channel=12 note=58 velocity=73 time=0
EXTRACT: note_on channel=12 note=63 velocity=68 time=0
EXTRACT: note_on channel=14 note=46 velocity=94 time=0
EXTRACT: note_off channel=5 note=63 velocity=0 time=0.004807604166666667
EXTRACT: note_off channel=6 note=63 velocity=0 time=0.0024038020833333333
EXTRACT: note_off channel=5 note=68 velocity=0 time=0.0024038020833333333
EXTRACT: note_off channel=6 note=68 velocity=0 time=0.012019010416666667
EXTRACT: note_off channel=6 note=58 velocity=0 time=0.0024038020833333333
EXTRACT: control_change channel=14 control=1 value=97 time=0.009615208333333333
EXTRACT: note_off channel=2 note=72 velocity=0 time=0.012019010416666667
EXTRACT: note_off channel=8 note=70 velocity=0 time=0.0024038020833333333
EXTRACT: note_off channel=8 note=74 velocity=0 time=0.009615208333333333
EXTRACT: note_off channel=9 note=44 velocity=0 time=0.026441822916666666
EXTRACT: note_off channel=9 note=36 velocity=0 time=0.0024038020833333333
EXTRACT: note_off channel=14 note=46 velocity=0 time=0.00721140625
EXTRACT: control_change channel=14 control=1 value=98 time=0
EXTRACT: note_on channel=14 note=58 velocity=90 time=0.02163421875
EXTRACT: note_off channel=12 note=53 velocity=0 time=0.00721140625
EXTRACT: note_off channel=12 note=58 velocity=0 time=0.012019010416666667
EXTRACT: note_off channel=9 note=46 velocity=0 time=0.024038020833333333
EXTRACT: note_off channel=12 note=63 velocity=0 time=0.004807604166666667
EXTRACT: control_change channel=14 control=1 value=97 time=0.004807604166666667
EXTRACT: note_off channel=1 note=31 velocity=0 time=0.012019010416666667
EXTRACT: note_off channel=14 note=58 velocity=0 time=0.036057031249999996
EXTRACT: note_on channel=9 note=36 velocity=127 time=0.0144228125
EXTRACT: note_on channel=9 note=44 velocity=120 time=0
EXTRACT: note_on channel=1 note=34 velocity=82 time=0
EXTRACT: note_on channel=12 note=53 velocity=74 time=0
EXTRACT: note_on channel=12 note=58 velocity=73 time=0
EXTRACT: note_on channel=12 note=62 velocity=71 time=0
EXTRACT: note_on channel=14 note=46 velocity=94 time=0
EXTRACT: control_change channel=14 control=1 value=98 time=0.07211406249999999
EXTRACT: note_off channel=12 note=58 velocity=0 time=0.02163421875
EXTRACT: note_off channel=14 note=46 velocity=0 time=0
EXTRACT: note_off channel=12 note=62 velocity=0 time=0.012019010416666667
EXTRACT: note_off channel=12 note=53 velocity=0 time=0.004807604166666667
EXTRACT: control_change channel=14 control=1 value=99 time=0.0024038020833333333
EXTRACT: note_on channel=14 note=58 velocity=91 time=0.0024038020833333333
EXTRACT: control_change channel=14 control=1 value=102 time=0.036057031249999996
EXTRACT: control_change channel=14 control=1 value=103 time=0.03846083333333333
EXTRACT: note_off channel=14 note=58 velocity=0 time=0.031249427083333333
EXTRACT: control_change channel=14 control=1 value=104 time=0.00721140625
EXTRACT: note_on channel=9 note=46 velocity=84 time=0.0024038020833333333
EXTRACT: note_on channel=3 note=74 velocity=107 time=0
EXTRACT: note_on channel=4 note=86 velocity=97 time=0
EXTRACT: note_on channel=5 note=62 velocity=76 time=0
EXTRACT: note_on channel=5 note=65 velocity=85 time=0
EXTRACT: note_on channel=6 note=58 velocity=115 time=0
EXTRACT: note_on channel=6 note=62 velocity=100 time=0
EXTRACT: note_on channel=6 note=65 velocity=105 time=0
EXTRACT: note_on channel=14 note=46 velocity=93 time=0
EXTRACT: note_off channel=9 note=44 velocity=0 time=0.026441822916666666
EXTRACT: note_off channel=3 note=72 velocity=0 time=0.00721140625
EXTRACT: note_off channel=4 note=84 velocity=0 time=0
EXTRACT: control_change channel=14 control=1 value=105 time=0.0024038020833333333
EXTRACT: note_off channel=6 note=65 velocity=0 time=0.03846083333333333
EXTRACT: control_change channel=14 control=1 value=106 time=0
EXTRACT: note_off channel=9 note=36 velocity=0 time=0.0024038020833333333
EXTRACT: note_off channel=5 note=65 velocity=0 time=0
EXTRACT: note_off channel=6 note=62 velocity=0 time=0.004807604166666667
EXTRACT: note_off channel=5 note=62 velocity=0 time=0.0024038020833333333
EXTRACT: note_off channel=6 note=58 velocity=0 time=0
EXTRACT: note_off channel=14 note=46 velocity=0 time=0
EXTRACT: note_off channel=9 note=40 velocity=0 time=0.012019010416666667
EXTRACT: note_off channel=9 note=39 velocity=0 time=0.009615208333333333
EXTRACT: note_on channel=14 note=58 velocity=91 time=0.009615208333333333
EXTRACT: control_change channel=14 control=1 value=108 time=0.016826614583333333
EXTRACT: control_change channel=14 control=1 value=109 time=0.03846083333333333
EXTRACT: note_off channel=14 note=58 velocity=0 time=0.05047984375
EXTRACT: note_off channel=1 note=34 velocity=0 time=0.004807604166666667
EXTRACT: control_change channel=14 control=1 value=110 time=0.0024038020833333333
EXTRACT: note_on channel=9 note=36 velocity=127 time=0.0024038020833333333
EXTRACT: note_on channel=9 note=39 velocity=75 time=0
EXTRACT: note_on channel=9 note=40 velocity=83 time=0
EXTRACT: note_on channel=9 note=44 velocity=101 time=0
EXTRACT: note_on channel=1 note=29 velocity=76 time=0
EXTRACT: note_on channel=8 note=70 velocity=84 time=0
EXTRACT: note_on channel=8 note=74 velocity=79 time=0
EXTRACT: note_on channel=12 note=53 velocity=82 time=0
EXTRACT: note_on channel=12 note=58 velocity=78 time=0
EXTRACT: note_on channel=12 note=62 velocity=73 time=0
EXTRACT: note_on channel=14 note=46 velocity=94 time=0
EXTRACT: pitchwheel channel=2 pitch=-1024 time=0.026441822916666666
EXTRACT: control_change channel=14 control=1 value=111 time=0.009615208333333333
EXTRACT: pitchwheel channel=2 pitch=-1920 time=0.009615208333333333
EXTRACT: pitchwheel channel=2 pitch=-2688 time=0.019230416666666666
EXTRACT: pitchwheel channel=2 pitch=-2944 time=0.019230416666666666
EXTRACT: control_change channel=14 control=1 value=114 time=0.012019010416666667
EXTRACT: note_off channel=14 note=46 velocity=0 time=0.0024038020833333333
EXTRACT: note_off channel=9 note=46 velocity=0 time=0.0144228125
EXTRACT: note_on channel=14 note=58 velocity=91 time=0.0024038020833333333
EXTRACT: pitchwheel channel=2 pitch=-2432 time=0.00721140625
EXTRACT: control_change channel=14 control=1 value=117 time=0.012019010416666667
EXTRACT: pitchwheel channel=2 pitch=-1280 time=0.00721140625
EXTRACT: note_off channel=12 note=62 velocity=0 time=0.00721140625
EXTRACT: note_off channel=12 note=58 velocity=0 time=0
EXTRACT: note_off channel=12 note=53 velocity=0 time=0
EXTRACT: pitchwheel channel=2 pitch=0 time=0.012019010416666667
EXTRACT: control_change channel=14 control=1 value=121 time=0.012019010416666667
EXTRACT: note_off channel=14 note=58 velocity=0 time=0.036057031249999996
EXTRACT: control_change channel=14 control=1 value=124 time=0.0024038020833333333
EXTRACT: note_off channel=1 note=29 velocity=0 time=0.0144228125
EXTRACT: note_on channel=9 note=46 velocity=72 time=0.004807604166666667
EXTRACT: note_on channel=1 note=27 velocity=91 time=0
EXTRACT: note_on channel=3 note=75 velocity=107 time=0
EXTRACT: note_on channel=4 note=87 velocity=97 time=0
EXTRACT: note_on channel=5 note=63 velocity=88 time=0
EXTRACT: note_on channel=5 note=67 velocity=80 time=0
EXTRACT: note_on channel=6 note=58 velocity=102 time=0
EXTRACT: note_on channel=6 note=62 velocity=100 time=0
EXTRACT: note_on channel=6 note=65 velocity=108 time=0
EXTRACT: note_on channel=12 note=53 velocity=82 time=0
EXTRACT: note_on channel=12 note=58 velocity=80 time=0
EXTRACT: note_on channel=12 note=63 velocity=80 time=0
EXTRACT: note_on channel=14 note=46 velocity=93 time=0
EXTRACT: note_off channel=8 note=70 velocity=0 time=0.019230416666666666
EXTRACT: control_change channel=14 control=1 value=126 time=0
EXTRACT: note_off channel=8 note=74 velocity=0 time=0.0024038020833333333
EXTRACT: note_off channel=9 note=44 velocity=0 time=0.0144228125
EXTRACT: note_off channel=6 note=62 velocity=0 time=0.012019010416666667
EXTRACT: note_off channel=6 note=65 velocity=0 time=0.0024038020833333333
EXTRACT: control_change channel=14 control=1 value=127 time=0.00721140625
EXTRACT: note_off channel=3 note=74 velocity=0 time=0.003605703125
EXTRACT: note_off channel=4 note=86 velocity=0 time=0
EXTRACT: note_off channel=6 note=58 velocity=0 time=0.015624713541666667
EXTRACT: note_off channel=14 note=46 velocity=0 time=0.012019010416666667
EXTRACT: note_off channel=5 note=63 velocity=0 time=0.0024038020833333333
EXTRACT: note_off channel=5 note=67 velocity=0 time=0.0144228125
EXTRACT: note_on channel=14 note=58 velocity=91 time=0.009615208333333333
EXTRACT: note_off channel=12 note=58 velocity=0 time=0.019230416666666666
EXTRACT: note_off channel=12 note=63 velocity=0 time=0.004807604166666667
EXTRACT: note_off channel=9 note=36 velocity=0 time=0.0024038020833333333
EXTRACT: note_off channel=12 note=53 velocity=0 time=0.00721140625
EXTRACT: note_off channel=14 note=58 velocity=0 time=0.062498854166666666
EXTRACT: note_on channel=9 note=36 velocity=127 time=0.019230416666666666
EXTRACT: note_on channel=9 note=44 velocity=94 time=0
EXTRACT: note_on channel=14 note=46 velocity=94 time=0
EXTRACT: note_off channel=9 note=46 velocity=0 time=0.07692166666666667
EXTRACT: note_off channel=14 note=46 velocity=0 time=0.012019010416666667
EXTRACT: note_off channel=1 note=27 velocity=0 time=0.019230416666666666
EXTRACT: note_on channel=13 note=70 velocity=124 time=0.00721140625
EXTRACT: note_on channel=14 note=58 velocity=90 time=0
EXTRACT: note_off channel=14 note=58 velocity=0 time=0.10336348958333333
EXTRACT: note_on channel=9 note=36 velocity=120 time=0.012019010416666667
EXTRACT: note_on channel=9 note=46 velocity=80 time=0
EXTRACT: note_on channel=1 note=27 velocity=95 time=0
EXTRACT: note_on channel=3 note=74 velocity=107 time=0
EXTRACT: note_on channel=4 note=86 velocity=97 time=0
EXTRACT: note_on channel=5 note=63 velocity=80 time=0
EXTRACT: note_on channel=5 note=68 velocity=82 time=0
EXTRACT: note_on channel=6 note=58 velocity=108 time=0
EXTRACT: note_on channel=6 note=63 velocity=111 time=0
EXTRACT: note_on channel=6 note=68 velocity=108 time=0
EXTRACT: note_on channel=8 note=70 velocity=84 time=0
EXTRACT: note_on channel=8 note=74 velocity=73 time=0
EXTRACT: note_on channel=12 note=53 velocity=80 time=0
EXTRACT: note_on channel=12 note=58 velocity=78 time=0
EXTRACT: note_on channel=12 note=63 velocity=80 time=0
EXTRACT: note_on channel=14 note=46 velocity=93 time=0
EXTRACT: note_off channel=9 note=36 velocity=64 time=0.05769125
EXTRACT: note_off channel=3 note=75 velocity=0 time=0.012019010416666667
EXTRACT: note_off channel=4 note=87 velocity=0 time=0
EXTRACT: note_off channel=9 note=44 velocity=0 time=0.019230416666666666
EXTRACT: note_off channel=9 note=39 velocity=0 time=0.0024038020833333333
EXTRACT: note_off channel=9 note=40 velocity=0 time=0.0024038020833333333
EXTRACT: note_off channel=14 note=46 velocity=0 time=0
EXTRACT: note_off channel=9 note=36 velocity=0 time=0.019230416666666666
EXTRACT: note_on channel=14 note=58 velocity=91 time=0.0024038020833333333
EXTRACT: note_off channel=14 note=58 velocity=0 time=0.1009596875
EXTRACT: note_on channel=9 note=36 velocity=127 time=0.0144228125
EXTRACT: note_on channel=9 note=39 velocity=74 time=0
EXTRACT: note_on channel=9 note=40 velocity=72 time=0
EXTRACT: note_on channel=9 note=44 velocity=110 time=0
EXTRACT: note_off channel=3 note=74 velocity=0 time=0
EXTRACT: note_on channel=3 note=75 velocity=107 time=0
EXTRACT: note_off channel=4 note=86 velocity=0 time=0
EXTRACT: note_on channel=4 note=87 velocity=97 time=0
EXTRACT: note_on channel=14 note=46 velocity=94 time=0
EXTRACT: note_off channel=14 note=46 velocity=0 time=0.09134447916666666
EXTRACT: note_off channel=9 note=46 velocity=0 time=0.012019010416666667
EXTRACT: note_on channel=14 note=58 velocity=91 time=0.012019010416666667
EXTRACT: note_off channel=14 note=58 velocity=0 time=0.09615208333333333
EXTRACT: note_on channel=9 note=46 velocity=79 time=0.019230416666666666
EXTRACT: note_on channel=1 note=31 velocity=85 time=0
EXTRACT: note_on channel=3 note=74 velocity=107 time=0
EXTRACT: note_on channel=4 note=86 velocity=97 time=0
EXTRACT: note_on channel=14 note=46 velocity=93 time=0
EXTRACT: note_off channel=1 note=27 velocity=0 time=0.00721140625
EXTRACT: note_off channel=12 note=58 velocity=0 time=0.00721140625
EXTRACT: note_off channel=12 note=63 velocity=0 time=0.00721140625
EXTRACT: note_off channel=12 note=53 velocity=0 time=0.004807604166666667
EXTRACT: note_off channel=3 note=75 velocity=0 time=0.02764372395833333
EXTRACT: note_off channel=4 note=87 velocity=0 time=0
EXTRACT: note_off channel=5 note=63 velocity=0 time=0.008413307291666667
EXTRACT: note_off channel=8 note=70 velocity=0 time=0.0024038020833333333
EXTRACT: note_off channel=6 note=63 velocity=0 time=0.0024038020833333333
EXTRACT: note_off channel=8 note=74 velocity=0 time=0.004807604166666667
EXTRACT: note_off channel=5 note=68 velocity=0 time=0.0024038020833333333
EXTRACT: note_off channel=9 note=44 velocity=0 time=0.009615208333333333
EXTRACT: note_off channel=6 note=68 velocity=0 time=0
EXTRACT: note_off channel=6 note=58 velocity=0 time=0.0024038020833333333
EXTRACT: note_off channel=14 note=46 velocity=0 time=0.00721140625
EXTRACT: note_on channel=14 note=58 velocity=92 time=0.02163421875
EXTRACT: note_off channel=9 note=36 velocity=0 time=0.0024038020833333333
EXTRACT: note_off channel=3 note=74 velocity=0 time=0.008413307291666667
EXTRACT: note_off channel=4 note=86 velocity=0 time=0
EXTRACT: note_off channel=9 note=46 velocity=0 time=0.032451328125
EXTRACT: note_off channel=1 note=31 velocity=0 time=0.031249427083333333
EXTRACT: note_off channel=14 note=58 velocity=0 time=0.019230416666666666
EXTRACT: note_on channel=9 note=36 velocity=127 time=0.02163421875
EXTRACT: note_on channel=9 note=44 velocity=120 time=0
EXTRACT: note_on channel=1 note=34 velocity=104 time=0
EXTRACT: note_on channel=3 note=74 velocity=107 time=0
EXTRACT: note_on channel=4 note=86 velocity=97 time=0
EXTRACT: note_on channel=14 note=46 velocity=96 time=0
EXTRACT: note_off channel=14 note=46 velocity=0 time=0.086536875
EXTRACT: note_on channel=14 note=58 velocity=92 time=0.028845625
EXTRACT: note_off channel=14 note=58 velocity=0 time=0.11297869791666666
EXTRACT: note_on channel=9 note=46 velocity=84 time=0.0024038020833333333
EXTRACT: note_on channel=3 note=72 velocity=107 time=0
EXTRACT: note_on channel=4 note=84 velocity=97 time=0
EXTRACT: note_on channel=5 note=62 velocity=73 time=0
EXTRACT: note_on channel=5 note=65 velocity=80 time=0
EXTRACT: note_on channel=12 note=53 velocity=85 time=0
EXTRACT: note_on channel=12 note=58 velocity=80 time=0
EXTRACT: note_on channel=12 note=62 velocity=76 time=0
EXTRACT: note_on channel=14 note=46 velocity=94 time=0
EXTRACT: pitchwheel channel=2 pitch=-512 time=0.00721140625
EXTRACT: note_off channel=9 note=44 velocity=0 time=0.019230416666666666
EXTRACT: pitchwheel channel=2 pitch=-1152 time=0
EXTRACT: pitchwheel channel=2 pitch=-1664 time=0.019230416666666666
EXTRACT: note_off channel=3 note=74 velocity=0 time=0.008413307291666667
EXTRACT: note_off channel=4 note=86 velocity=0 time=0
EXTRACT: pitchwheel channel=2 pitch=-2048 time=0.010817109375
EXTRACT: note_off channel=9 note=39 velocity=0 time=0.0024038020833333333
EXTRACT: note_off channel=5 note=65 velocity=0 time=0.0024038020833333333
EXTRACT: note_off channel=14 note=46 velocity=0 time=0.0024038020833333333
EXTRACT: note_off channel=9 note=40 velocity=0 time=0.0024038020833333333
EXTRACT: note_off channel=5 note=62 velocity=0 time=0.004807604166666667
EXTRACT: pitchwheel channel=2 pitch=-2176 time=0.004807604166666667
EXTRACT: note_off channel=12 note=58 velocity=0 time=0.009615208333333333
EXTRACT: note_off channel=9 note=36 velocity=0 time=0.00721140625
EXTRACT: note_off channel=12 note=62 velocity=0 time=0
EXTRACT: pitchwheel channel=2 pitch=-2048 time=0.004807604166666667
EXTRACT: note_off channel=12 note=53 velocity=0 time=0.009615208333333333
EXTRACT: note_on channel=14 note=58 velocity=91 time=0
EXTRACT: pitchwheel channel=2 pitch=-1664 time=0.009615208333333333
EXTRACT: pitchwheel channel=2 pitch=-1024 time=0.019230416666666666
EXTRACT: pitchwheel channel=2 pitch=0 time=0.019230416666666666
EXTRACT: note_off channel=1 note=34 velocity=0 time=0.031249427083333333
EXTRACT: note_off channel=14 note=58 velocity=0 time=0.004807604166666667
EXTRACT: note_on channel=9 note=36 velocity=127 time=0.031249427083333333
EXTRACT: note_on channel=9 note=39 velocity=71 time=0
EXTRACT: note_on channel=9 note=40 velocity=72 time=0
EXTRACT: note_on channel=9 note=44 velocity=101 time=0
EXTRACT: note_on channel=1 note=29 velocity=73 time=0
EXTRACT: note_on channel=3 note=70 velocity=107 time=0
EXTRACT: note_on channel=4 note=82 velocity=97 time=0
EXTRACT: note_on channel=5 note=62 velocity=71 time=0
EXTRACT: note_on channel=5 note=65 velocity=80 time=0
EXTRACT: note_on channel=6 note=58 velocity=127 time=0
EXTRACT: note_on channel=6 note=62 velocity=108 time=0
EXTRACT: note_on channel=6 note=65 velocity=118 time=0
EXTRACT: note_on channel=8 note=70 velocity=89 time=0
EXTRACT: note_on channel=8 note=74 velocity=79 time=0
EXTRACT: note_on channel=14 note=46 velocity=94 time=0
EXTRACT: note_off channel=3 note=72 velocity=0 time=0.054085546875
EXTRACT: note_off channel=4 note=84 velocity=0 time=0
EXTRACT: note_off channel=14 note=46 velocity=0 time=0.032451328125
EXTRACT: pitchwheel channel=2 pitch=-1280 time=0.019230416666666666
EXTRACT: note_off channel=9 note=46 velocity=0 time=0.00721140625
EXTRACT: note_on channel=14 note=58 velocity=91 time=0.0024038020833333333
EXTRACT: pitchwheel channel=2 pitch=-2816 time=0.009615208333333333
EXTRACT: note_off channel=5 note=62 velocity=0 time=0.0144228125
EXTRACT: pitchwheel channel=2 pitch=-4352 time=0.004807604166666667
EXTRACT: note_off channel=5 note=65 velocity=0 time=0.004807604166666667
EXTRACT: pitchwheel channel=2 pitch=-4480 time=0.0144228125
EXTRACT: note_off channel=1 note=29 velocity=0 time=0.004807604166666667
EXTRACT: note_off channel=6 note=58 velocity=0 time=0.012019010416666667
EXTRACT: pitchwheel channel=2 pitch=-3968 time=0.0024038020833333333
EXTRACT: note_off channel=6 note=62 velocity=0 time=0
EXTRACT: note_off channel=6 note=65 velocity=0 time=0.004807604166666667
EXTRACT: pitchwheel channel=2 pitch=-3200 time=0.0144228125
EXTRACT: note_off channel=14 note=58 velocity=0 time=0
EXTRACT: pitchwheel channel=2 pitch=-2176 time=0.019230416666666666
EXTRACT: note_on channel=9 note=46 velocity=72 time=0.009615208333333333
EXTRACT: note_on channel=1 note=27 velocity=88 time=0
EXTRACT: note_on channel=3 note=68 velocity=107 time=0
EXTRACT: note_on channel=4 note=80 velocity=97 time=0
EXTRACT: note_on channel=12 note=53 velocity=80 time=0
EXTRACT: note_on channel=12 note=58 velocity=78 time=0
EXTRACT: note_on channel=12 note=62 velocity=68 time=0
EXTRACT: note_on channel=14 note=46 velocity=92 time=0
EXTRACT: pitchwheel channel=2 pitch=-1024 time=0.012019010416666667
EXTRACT: pitchwheel channel=2 pitch=0 time=0.016826614583333333
EXTRACT: note_off channel=9 note=44 velocity=0 time=0.00721140625
EXTRACT: note_off channel=3 note=70 velocity=0 time=0.018028515624999998
EXTRACT: note_off channel=4 note=82 velocity=0 time=0
EXTRACT: note_off channel=8 note=70 velocity=0 time=0.0012019010416666667
EXTRACT: pitchwheel channel=2 pitch=-256 time=0.0144228125
EXTRACT: note_off channel=8 note=74 velocity=0 time=0
EXTRACT: note_off channel=12 note=62 velocity=0 time=0.012019010416666667
EXTRACT: note_off channel=12 note=58 velocity=0 time=0.0024038020833333333
EXTRACT: note_off channel=14 note=46 velocity=0 time=0.0024038020833333333
EXTRACT: pitchwheel channel=2 pitch=-1280 time=0.0024038020833333333
EXTRACT: note_off channel=12 note=53 velocity=0 time=0.009615208333333333
EXTRACT: pitchwheel channel=2 pitch=-2304 time=0.009615208333333333
EXTRACT: note_on channel=14 note=58 velocity=91 time=0.00721140625
EXTRACT: pitchwheel channel=2 pitch=-3072 time=0.012019010416666667
EXTRACT: note_off channel=9 note=36 velocity=0 time=0.009615208333333333
EXTRACT: pitchwheel channel=2 pitch=-3712 time=0.009615208333333333
EXTRACT: pitchwheel channel=2 pitch=-3328 time=0.019230416666666666
EXTRACT: pitchwheel channel=2 pitch=-2304 time=0.019230416666666666
EXTRACT: note_off channel=14 note=58 velocity=0 time=0.0144228125
EXTRACT: pitchwheel channel=2 pitch=-896 time=0.004807604166666667
EXTRACT: pitchwheel channel=2 pitch=0 time=0.019230416666666666
EXTRACT: note_on channel=9 note=36 velocity=127 time=0.00721140625
EXTRACT: note_on channel=9 note=44 velocity=94 time=0
EXTRACT: note_on channel=3 note=67 velocity=107 time=0
EXTRACT: note_on channel=4 note=79 velocity=97 time=0
EXTRACT: note_on channel=5 note=63 velocity=82 time=0
EXTRACT: note_on channel=5 note=67 velocity=80 time=0
EXTRACT: note_on channel=12 note=53 velocity=85 time=0
EXTRACT: note_on channel=12 note=58 velocity=82 time=0
EXTRACT: note_on channel=12 note=63 velocity=82 time=0
EXTRACT: note_on channel=14 note=46 velocity=93 time=0
EXTRACT: note_off channel=3 note=68 velocity=0 time=0.054085546875
EXTRACT: note_off channel=4 note=80 velocity=0 time=0
EXTRACT: pitchwheel channel=2 pitch=-1024 time=0.018028515624999998
EXTRACT: note_off channel=9 note=46 velocity=0 time=0.004807604166666667
EXTRACT: pitchwheel channel=2 pitch=-2048 time=0.012019010416666667
EXTRACT: note_off channel=5 note=63 velocity=0 time=0.0024038020833333333
EXTRACT: note_off channel=14 note=46 velocity=0 time=0
EXTRACT: note_off channel=5 note=67 velocity=0 time=0.004807604166666667
EXTRACT: pitchwheel channel=2 pitch=-2944 time=0.0144228125
EXTRACT: note_on channel=14 note=58 velocity=91 time=0.004807604166666667
EXTRACT: pitchwheel channel=2 pitch=-3456 time=0.0144228125
EXTRACT: pitchwheel channel=2 pitch=-2816 time=0.019230416666666666
EXTRACT: pitchwheel channel=2 pitch=-1664 time=0.019230416666666666
EXTRACT: note_off channel=1 note=27 velocity=0 time=0.012019010416666667
EXTRACT: pitchwheel channel=2 pitch=-512 time=0.00721140625
EXTRACT: note_off channel=12 note=58 velocity=0 time=0.00721140625
EXTRACT: pitchwheel channel=2 pitch=0 time=0.012019010416666667
EXTRACT: note_off channel=14 note=58 velocity=0 time=0
EXTRACT: note_off channel=12 note=63 velocity=0 time=0.004807604166666667
EXTRACT: note_on channel=9 note=36 velocity=120 time=0.019230416666666666
EXTRACT: note_on channel=9 note=46 velocity=80 time=0
EXTRACT: note_on channel=1 note=27 velocity=95 time=0
EXTRACT: note_on channel=3 note=68 velocity=107 time=0
EXTRACT: note_on channel=4 note=80 velocity=97 time=0
EXTRACT: note_on channel=5 note=63 velocity=80 time=0
EXTRACT: note_on channel=5 note=68 velocity=80 time=0
EXTRACT: note_on channel=6 note=58 velocity=115 time=0
EXTRACT: note_on channel=6 note=63 velocity=111 time=0
EXTRACT: note_on channel=6 note=68 velocity=111 time=0
EXTRACT: note_on channel=14 note=46 velocity=92 time=0
EXTRACT: note_off channel=3 note=67 velocity=0 time=0.051681744791666664
EXTRACT: note_off channel=4 note=79 velocity=0 time=0
EXTRACT: pitchwheel channel=2 pitch=-1024 time=0.0012019010416666667
EXTRACT: note_off channel=9 note=36 velocity=64 time=0.004807604166666667
EXTRACT: note_off channel=12 note=53 velocity=0 time=0.0024038020833333333
EXTRACT: pitchwheel channel=2 pitch=-2048 time=0.012019010416666667
EXTRACT: note_off channel=9 note=44 velocity=0 time=0.016826614583333333
EXTRACT: note_off channel=9 note=40 velocity=0 time=0.0024038020833333333
EXTRACT: pitchwheel channel=2 pitch=-3072 time=0
EXTRACT: note_off channel=14 note=46 velocity=0 time=0
EXTRACT: note_off channel=9 note=36 velocity=0 time=0.0024038020833333333
EXTRACT: note_off channel=9 note=39 velocity=0 time=0
EXTRACT: pitchwheel channel=2 pitch=-3712 time=0.016826614583333333
EXTRACT: note_on channel=3 note=67 velocity=107 time=0.004807604166666667
EXTRACT: note_on channel=4 note=79 velocity=97 time=0
EXTRACT: note_on channel=14 note=58 velocity=91 time=0
EXTRACT: pitchwheel channel=2 pitch=-3200 time=0.016826614583333333
EXTRACT: note_off channel=3 note=68 velocity=0 time=0.008413307291666667
EXTRACT: note_off channel=4 note=80 velocity=0 time=0
EXTRACT: pitchwheel channel=2 pitch=-2304 time=0.010817109375
EXTRACT: pitchwheel channel=2 pitch=-1280 time=0.019230416666666666
EXTRACT: pitchwheel channel=2 pitch=-256 time=0.019230416666666666
EXTRACT: pitchwheel channel=2 pitch=0 time=0.019230416666666666
EXTRACT: note_off channel=14 note=58 velocity=0 time=0
EXTRACT: pitchwheel channel=2 pitch=-256 time=0.019230416666666666
EXTRACT: note_on channel=9 note=36 velocity=127 time=0.0024038020833333333
EXTRACT: note_on channel=9 note=39 velocity=75 time=0
EXTRACT: note_on channel=9 note=40 velocity=74 time=0
EXTRACT: note_on channel=9 note=44 velocity=110 time=0
EXTRACT: note_on channel=3 note=65 velocity=107 time=0
EXTRACT: note_on channel=4 note=77 velocity=97 time=0
EXTRACT: note_on channel=8 note=70 velocity=84 time=0
EXTRACT: note_on channel=8 note=74 velocity=73 time=0
EXTRACT: note_on channel=12 note=53 velocity=82 time=0
EXTRACT: note_on channel=12 note=58 velocity=88 time=0
EXTRACT: note_on channel=12 note=63 velocity=82 time=0
EXTRACT: note_on channel=14 note=46 velocity=94 time=0
EXTRACT: pitchwheel channel=2 pitch=-1152 time=0.016826614583333333
EXTRACT: note_off channel=3 note=67 velocity=0 time=0.008413307291666667
EXTRACT: note_off channel=4 note=79 velocity=0 time=0
EXTRACT: pitchwheel channel=2 pitch=-2048 time=0.010817109375
EXTRACT: pitchwheel channel=2 pitch=-2944 time=0.019230416666666666
EXTRACT: pitchwheel channel=2 pitch=-3840 time=0.019230416666666666
EXTRACT: pitchwheel channel=2 pitch=-3456 time=0.019230416666666666
EXTRACT: note_off channel=14 note=46 velocity=0 time=0.0024038020833333333
EXTRACT: note_off channel=9 note=46 velocity=0 time=0.00721140625
EXTRACT: note_off channel=3 note=65 velocity=0 time=0.0012019010416666667
EXTRACT: note_off channel=4 note=77 velocity=0 time=0
EXTRACT: pitchwheel channel=2 pitch=-2560 time=0.008413307291666667
EXTRACT: note_on channel=3 note=68 velocity=107 time=0.0024038020833333333
EXTRACT: note_on channel=4 note=80 velocity=97 time=0
EXTRACT: note_on channel=14 note=58 velocity=91 time=0
EXTRACT: pitchwheel channel=2 pitch=-1536 time=0.019230416666666666
EXTRACT: note_off channel=5 note=63 velocity=0 time=0.0024038020833333333
EXTRACT: pitchwheel channel=2 pitch=0 time=0.0144228125
EXTRACT: note_off channel=5 note=68 velocity=0 time=0
EXTRACT: note_off channel=12 note=53 velocity=0 time=0.00721140625
EXTRACT: note_off channel=12 note=58 velocity=0 time=0.04086463541666667
EXTRACT: note_off channel=12 note=63 velocity=0 time=0.016826614583333333
EXTRACT: note_off channel=14 note=58 velocity=0 time=0
EXTRACT: note_off channel=1 note=27 velocity=0 time=0.012019010416666667
EXTRACT: note_on channel=9 note=46 velocity=79 time=0.0024038020833333333
EXTRACT: note_on channel=1 note=31 velocity=62 time=0
EXTRACT: pitchwheel channel=2 pitch=-1024 time=0
EXTRACT: note_on channel=3 note=72 velocity=107 time=0
EXTRACT: note_on channel=4 note=84 velocity=97 time=0
EXTRACT: note_on channel=5 note=62 velocity=85 time=0
EXTRACT: note_on channel=5 note=65 velocity=91 time=0
EXTRACT: note_on channel=12 note=53 velocity=82 time=0
EXTRACT: note_on channel=12 note=58 velocity=73 time=0
EXTRACT: note_on channel=12 note=62 velocity=73 time=0
EXTRACT: note_on channel=14 note=46 velocity=94 time=0
EXTRACT: note_off channel=6 note=63 velocity=0 time=0.00721140625
EXTRACT: pitchwheel channel=2 pitch=-2048 time=0.012019010416666667
EXTRACT: note_off channel=6 note=68 velocity=0 time=0.0024038020833333333
EXTRACT: note_off channel=6 note=58 velocity=0 time=0.0024038020833333333
EXTRACT: note_off channel=3 note=68 velocity=0 time=0.0012019010416666667
EXTRACT: note_off channel=4 note=80 velocity=0 time=0
EXTRACT: pitchwheel channel=2 pitch=-2944 time=0.013220911458333333
EXTRACT: pitchwheel channel=2 pitch=-3072 time=0.019230416666666666
EXTRACT: note_off channel=8 note=70 velocity=0 time=0.00721140625
EXTRACT: note_off channel=8 note=74 velocity=0 time=0.00721140625
EXTRACT: note_off channel=5 note=65 velocity=0 time=0.0024038020833333333
EXTRACT: pitchwheel channel=2 pitch=-2176 time=0.0024038020833333333
EXTRACT: note_off channel=5 note=62 velocity=0 time=0.004807604166666667
EXTRACT: note_off channel=9 note=44 velocity=0 time=0.0024038020833333333
EXTRACT: note_off channel=12 note=62 velocity=0 time=0.0024038020833333333
EXTRACT: note_off channel=9 note=36 velocity=0 time=0.004807604166666667
EXTRACT: note_off channel=14 note=46 velocity=0 time=0.0024038020833333333
EXTRACT: pitchwheel channel=2 pitch=-896 time=0.0024038020833333333
EXTRACT: note_off channel=12 note=58 velocity=0 time=0.0144228125
EXTRACT: note_off channel=12 note=53 velocity=0 time=0
EXTRACT: pitchwheel channel=2 pitch=0 time=0.004807604166666667
EXTRACT: note_on channel=14 note=58 velocity=90 time=0
EXTRACT: note_off channel=9 note=46 velocity=0 time=0.0432684375
EXTRACT: pitchwheel channel=2 pitch=-1024 time=0.0144228125
EXTRACT: note_off channel=1 note=31 velocity=0 time=0.00721140625
EXTRACT: pitchwheel channel=2 pitch=-2304 time=0.012019010416666667
EXTRACT: pitchwheel channel=2 pitch=-3584 time=0.019230416666666666
EXTRACT: note_off channel=14 note=58 velocity=0 time=0.004807604166666667
EXTRACT: note_on channel=9 note=35 velocity=127 time=0.0144228125
EXTRACT: note_on channel=9 note=36 velocity=127 time=0
EXTRACT: note_on channel=9 note=44 velocity=120 time=0
EXTRACT: note_on channel=1 note=34 velocity=82 time=0
EXTRACT: note_on channel=3 note=77 velocity=107 time=0
EXTRACT: note_on channel=4 note=89 velocity=97 time=0
EXTRACT: note_on channel=14 note=46 velocity=94 time=0
EXTRACT: pitchwheel channel=2 pitch=-4480 time=0.0024038020833333333
EXTRACT: pitchwheel channel=2 pitch=-3968 time=0.019230416666666666
EXTRACT: pitchwheel channel=2 pitch=-2688 time=0.019230416666666666
EXTRACT: note_off channel=3 note=72 velocity=0 time=0.013220911458333333
EXTRACT: note_off channel=4 note=84 velocity=0 time=0
EXTRACT: pitchwheel channel=2 pitch=-1024 time=0.006009505208333333
EXTRACT: pitchwheel channel=2 pitch=0 time=0.019230416666666666
EXTRACT: note_off channel=14 note=46 velocity=0 time=0.0144228125
EXTRACT: note_off channel=9 note=35 velocity=0 time=0.009615208333333333
EXTRACT: note_on channel=14 note=58 velocity=91 time=0.012019010416666667
EXTRACT: pitchwheel channel=2 pitch=-1024 time=0.02163421875
EXTRACT: pitchwheel channel=2 pitch=-2048 time=0.019230416666666666
EXTRACT: pitchwheel channel=2 pitch=-2944 time=0.019230416666666666
EXTRACT: pitchwheel channel=2 pitch=-3456 time=0.019230416666666666
EXTRACT: pitchwheel channel=2 pitch=-2816 time=0.019230416666666666
EXTRACT: note_off channel=14 note=58 velocity=0 time=0.00721140625
EXTRACT: note_on channel=9 note=35 velocity=119 time=0.009615208333333333
EXTRACT: note_on channel=9 note=46 velocity=84 time=0
EXTRACT: note_on channel=5 note=62 velocity=82 time=0
EXTRACT: note_on channel=5 note=65 velocity=91 time=0
EXTRACT: note_on channel=6 note=58 velocity=115 time=0
EXTRACT: note_on channel=6 note=62 velocity=100 time=0
EXTRACT: note_on channel=6 note=65 velocity=105 time=0
EXTRACT: note_on channel=12 note=53 velocity=82 time=0
EXTRACT: note_on channel=12 note=58 velocity=82 time=0
EXTRACT: note_on channel=12 note=62 velocity=73 time=0
EXTRACT: note_on channel=14 note=46 velocity=93 time=0
EXTRACT: pitchwheel channel=2 pitch=-1664 time=0.0024038020833333333
EXTRACT: pitchwheel channel=2 pitch=0 time=0.02163421875
EXTRACT: note_off channel=9 note=44 velocity=0 time=0.0024038020833333333
EXTRACT: note_off channel=9 note=39 velocity=0 time=0.012019010416666667
EXTRACT: note_off channel=9 note=40 velocity=0 time=0.00721140625
EXTRACT: note_off channel=6 note=65 velocity=0 time=0.028845625
EXTRACT: note_off channel=5 note=65 velocity=0 time=0.00721140625
EXTRACT: note_off channel=5 note=62 velocity=0 time=0
EXTRACT: note_off channel=6 note=62 velocity=0 time=0
EXTRACT: note_off channel=6 note=58 velocity=0 time=0.0024038020833333333
EXTRACT: note_off channel=14 note=46 velocity=0 time=0
EXTRACT: note_off channel=12 note=58 velocity=0 time=0.012019010416666667
EXTRACT: note_off channel=12 note=62 velocity=0 time=0.0024038020833333333
EXTRACT: pitchwheel channel=2 pitch=-1792 time=0.0024038020833333333
EXTRACT: note_off channel=12 note=53 velocity=0 time=0.004807604166666667
EXTRACT: note_off channel=9 note=36 velocity=0 time=0.00721140625
EXTRACT: note_on channel=14 note=58 velocity=91 time=0.0024038020833333333
EXTRACT: pitchwheel channel=2 pitch=-3456 time=0.004807604166666667
EXTRACT: pitchwheel channel=2 pitch=-4736 time=0.019230416666666666
EXTRACT: pitchwheel channel=2 pitch=-3456 time=0.03846083333333333
EXTRACT: pitchwheel channel=2 pitch=-1792 time=0.019230416666666666
EXTRACT: pitchwheel channel=2 pitch=0 time=0.019230416666666666
EXTRACT: note_off channel=14 note=58 velocity=0 time=0.004807604166666667
EXTRACT: note_off channel=1 note=34 velocity=0 time=0.004807604166666667
EXTRACT: note_on channel=9 note=36 velocity=127 time=0.004807604166666667
EXTRACT: note_on channel=9 note=39 velocity=89 time=0
EXTRACT: note_on channel=9 note=40 velocity=87 time=0
EXTRACT: note_on channel=9 note=44 velocity=101 time=0
EXTRACT: note_on channel=1 note=29 velocity=76 time=0
EXTRACT: note_on channel=8 note=70 velocity=89 time=0
EXTRACT: note_on channel=8 note=74 velocity=84 time=0
EXTRACT: note_on channel=14 note=46 velocity=94 time=0
EXTRACT: pitchwheel channel=2 pitch=-128 time=0.024038020833333333
EXTRACT: note_off channel=9 note=35 velocity=0 time=0.004807604166666667
EXTRACT: pitchwheel channel=2 pitch=-1536 time=0.0144228125
EXTRACT: pitchwheel channel=2 pitch=-2816 time=0.019230416666666666
EXTRACT: pitchwheel channel=2 pitch=-3968 time=0.019230416666666666
EXTRACT: note_off channel=9 note=40 velocity=0 time=0.012019010416666667
EXTRACT: note_off channel=14 note=46 velocity=0 time=0.004807604166666667
EXTRACT: pitchwheel channel=2 pitch=-3840 time=0.0024038020833333333
EXTRACT: note_off channel=9 note=46 velocity=0 time=0.012019010416666667
EXTRACT: note_on channel=14 note=58 velocity=91 time=0.0024038020833333333
EXTRACT: pitchwheel channel=2 pitch=-2944 time=0.00721140625
EXTRACT: pitchwheel channel=2 pitch=-1792 time=0.019230416666666666
EXTRACT: pitchwheel channel=2 pitch=-768 time=0.019230416666666666
EXTRACT: pitchwheel channel=2 pitch=-1280 time=0.03846083333333333
EXTRACT: note_off channel=14 note=58 velocity=0 time=0.009615208333333333
EXTRACT: pitchwheel channel=2 pitch=-1664 time=0.009615208333333333
EXTRACT: note_off channel=1 note=29 velocity=0 time=0.00721140625
EXTRACT: note_on channel=9 note=35 velocity=125 time=0.004807604166666667
EXTRACT: note_on channel=9 note=46 velocity=72 time=0
EXTRACT: note_on channel=1 note=27 velocity=91 time=0
EXTRACT: note_on channel=3 note=82 velocity=107 time=0
EXTRACT: note_on channel=4 note=94 velocity=97 time=0
EXTRACT: note_on channel=5 note=63 velocity=91 time=0
EXTRACT: note_on channel=5 note=67 velocity=82 time=0
EXTRACT: note_on channel=6 note=58 velocity=102 time=0
EXTRACT: note_on channel=6 note=62 velocity=100 time=0
EXTRACT: note_on channel=6 note=65 velocity=108 time=0
EXTRACT: note_on channel=12 note=53 velocity=88 time=0
EXTRACT: note_on channel=12 note=58 velocity=78 time=0
EXTRACT: note_on channel=12 note=63 velocity=74 time=0
EXTRACT: note_on channel=14 note=46 velocity=93 time=0
EXTRACT: pitchwheel channel=2 pitch=-1792 time=0.00721140625
EXTRACT: note_off channel=8 note=70 velocity=0 time=0.009615208333333333
EXTRACT: note_off channel=8 note=74 velocity=0 time=0.00721140625
EXTRACT: pitchwheel channel=2 pitch=-1280 time=0.0024038020833333333
EXTRACT: note_off channel=9 note=44 velocity=0 time=0.009615208333333333
EXTRACT: pitchwheel channel=2 pitch=-512 time=0.009615208333333333
EXTRACT: note_off channel=6 note=62 velocity=0 time=0.0024038020833333333
EXTRACT: note_off channel=3 note=77 velocity=0 time=0.0012019010416666667
EXTRACT: note_off channel=4 note=89 velocity=0 time=0
EXTRACT: note_off channel=6 note=65 velocity=0 time=0.0012019010416666667
EXTRACT: pitchwheel channel=2 pitch=0 time=0.0144228125
EXTRACT: note_off channel=9 note=35 velocity=0 time=0.009615208333333333
EXTRACT: note_off channel=6 note=58 velocity=0 time=0.0024038020833333333
EXTRACT: note_off channel=14 note=46 velocity=0 time=0.012019010416666667
EXTRACT: note_off channel=5 note=63 velocity=0 time=0.00721140625
EXTRACT: note_off channel=5 note=67 velocity=0 time=0.012019010416666667
EXTRACT: note_off channel=12 note=58 velocity=0 time=0.0024038020833333333
EXTRACT: note_off channel=9 note=36 velocity=0 time=0.004807604166666667
EXTRACT: note_on channel=14 note=58 velocity=91 time=0
EXTRACT: pitchwheel channel=2 pitch=-1024 time=0.00721140625
EXTRACT: note_off channel=12 note=63 velocity=0 time=0
EXTRACT: note_off channel=12 note=53 velocity=0 time=0
EXTRACT: note_on channel=9 note=40 velocity=114 time=0.012019010416666667
EXTRACT: pitchwheel channel=2 pitch=-1536 time=0.009615208333333333
EXTRACT: pitchwheel channel=2 pitch=-1408 time=0.016826614583333333
EXTRACT: pitchwheel channel=2 pitch=-1152 time=0.02163421875
EXTRACT: pitchwheel channel=2 pitch=-768 time=0.019230416666666666
EXTRACT: note_off channel=9 note=40 velocity=0 time=0.009615208333333333
EXTRACT: note_off channel=14 note=58 velocity=0 time=0
EXTRACT: pitchwheel channel=2 pitch=0 time=0.009615208333333333
EXTRACT: note_on channel=9 note=35 velocity=127 time=0.009615208333333333
EXTRACT: note_on channel=9 note=36 velocity=127 time=0
EXTRACT: note_on channel=9 note=44 velocity=94 time=0
EXTRACT: note_on channel=14 note=46 velocity=94 time=0
EXTRACT: note_off channel=9 note=35 velocity=0 time=0.07211406249999999
EXTRACT: note_off channel=9 note=46 velocity=0 time=0.004807604166666667
EXTRACT: note_off channel=14 note=46 velocity=0 time=0.012019010416666667
EXTRACT: note_off channel=1 note=27 velocity=0 time=0.019230416666666666
EXTRACT: note_on channel=14 note=58 velocity=90 time=0.00721140625
EXTRACT: note_on channel=9 note=40 velocity=109 time=0.019230416666666666
EXTRACT: control_change channel=2 control=1 value=1 time=0.009615208333333333
EXTRACT: note_off channel=9 note=40 velocity=0 time=0.06730645833333333
EXTRACT: note_off channel=14 note=58 velocity=0 time=0.00721140625
EXTRACT: note_on channel=9 note=36 velocity=120 time=0.012019010416666667
EXTRACT: note_on channel=9 note=35 velocity=127 time=0
EXTRACT: note_on channel=9 note=46 velocity=80 time=0
EXTRACT: note_on channel=1 note=27 velocity=95 time=0
EXTRACT: note_on channel=5 note=63 velocity=88 time=0
EXTRACT: note_on channel=5 note=68 velocity=88 time=0
EXTRACT: note_on channel=6 note=58 velocity=108 time=0
EXTRACT: note_on channel=6 note=63 velocity=111 time=0
EXTRACT: note_on channel=6 note=68 velocity=108 time=0
EXTRACT: note_on channel=8 note=70 velocity=89 time=0
EXTRACT: note_on channel=8 note=74 velocity=79 time=0
EXTRACT: note_on channel=12 note=53 velocity=85 time=0
EXTRACT: note_on channel=12 note=58 velocity=88 time=0
EXTRACT: note_on channel=12 note=63 velocity=88 time=0
EXTRACT: note_on channel=14 note=46 velocity=93 time=0
EXTRACT: note_off channel=9 note=39 velocity=0 time=0.05528744791666666
EXTRACT: note_off channel=9 note=36 velocity=64 time=0.0024038020833333333
EXTRACT: note_off channel=9 note=36 velocity=0 time=0.028845625
EXTRACT: note_off channel=9 note=44 velocity=0 time=0.0024038020833333333
EXTRACT: note_off channel=14 note=46 velocity=0 time=0.004807604166666667
EXTRACT: note_off channel=9 note=35 velocity=0 time=0.00721140625
EXTRACT: note_on channel=14 note=58 velocity=91 time=0.0144228125
EXTRACT: note_off channel=14 note=58 velocity=0 time=0.1009596875
EXTRACT: note_on channel=9 note=36 velocity=127 time=0.0144228125
EXTRACT: note_on channel=9 note=39 velocity=95 time=0
EXTRACT: note_on channel=9 note=40 velocity=95 time=0
EXTRACT: note_on channel=9 note=44 velocity=110 time=0
EXTRACT: note_on channel=14 note=46 velocity=94 time=0
EXTRACT: note_off channel=2 note=70 velocity=0 time=0.024038020833333333
EXTRACT: note_off channel=9 note=40 velocity=0 time=0.062498854166666666
EXTRACT: note_off channel=14 note=46 velocity=0 time=0.004807604166666667
EXTRACT: note_off channel=9 note=46 velocity=0 time=0.012019010416666667
EXTRACT: note_on channel=14 note=58 velocity=91 time=0.012019010416666667
EXTRACT: note_off channel=12 note=58 velocity=0 time=0.0144228125
EXTRACT: note_off channel=9 note=36 velocity=0 time=0.0024038020833333333
EXTRACT: note_off channel=12 note=63 velocity=0 time=0.00721140625
EXTRACT: note_off channel=12 note=53 velocity=0 time=0
EXTRACT: note_off channel=5 note=63 velocity=0 time=0.05769125
EXTRACT: note_off channel=5 note=68 velocity=0 time=0.0144228125
EXTRACT: note_off channel=14 note=58 velocity=0 time=0
EXTRACT: note_off channel=8 note=70 velocity=0 time=0.0024038020833333333
EXTRACT: note_on channel=9 note=36 velocity=127 time=0.016826614583333333
EXTRACT: note_on channel=9 note=40 velocity=119 time=0
EXTRACT: note_on channel=9 note=46 velocity=79 time=0
EXTRACT: note_on channel=1 note=31 velocity=85 time=0
EXTRACT: note_on channel=12 note=53 velocity=78 time=0
EXTRACT: note_on channel=12 note=58 velocity=80 time=0
EXTRACT: note_on channel=12 note=63 velocity=82 time=0
EXTRACT: note_on channel=14 note=46 velocity=93 time=0
EXTRACT: note_off channel=8 note=74 velocity=0 time=0.004807604166666667
EXTRACT: note_off channel=1 note=27 velocity=0 time=0.0024038020833333333
EXTRACT: note_off channel=9 note=39 velocity=0 time=0.05047984375
EXTRACT: note_off channel=9 note=40 velocity=0 time=0.004807604166666667
EXTRACT: note_off channel=6 note=63 velocity=0 time=0.004807604166666667
EXTRACT: note_off channel=9 note=44 velocity=0 time=0.016826614583333333
EXTRACT: note_off channel=6 note=68 velocity=0 time=0
EXTRACT: note_off channel=6 note=58 velocity=0 time=0.0024038020833333333
EXTRACT: note_off channel=12 note=58 velocity=0 time=0.0024038020833333333
EXTRACT: note_off channel=14 note=46 velocity=0 time=0.004807604166666667
EXTRACT: note_off channel=12 note=63 velocity=0 time=0.012019010416666667
EXTRACT: note_off channel=12 note=53 velocity=0 time=0
EXTRACT: note_on channel=14 note=58 velocity=92 time=0.009615208333333333
EXTRACT: note_on channel=9 note=40 velocity=100 time=0.019230416666666666
EXTRACT: note_off channel=9 note=36 velocity=0 time=0.0024038020833333333
EXTRACT: note_off channel=9 note=46 velocity=0 time=0.02163421875
EXTRACT: note_off channel=1 note=31 velocity=0 time=0.031249427083333333
EXTRACT: note_off channel=14 note=58 velocity=0 time=0.019230416666666666
EXTRACT: note_off channel=9 note=40 velocity=0 time=0.009615208333333333
EXTRACT: note_on channel=9 note=35 velocity=126 time=0.012019010416666667
EXTRACT: note_on channel=9 note=44 velocity=122 time=0
EXTRACT: note_on channel=9 note=49 velocity=113 time=0
EXTRACT: note_on channel=1 note=34 velocity=104 time=0
EXTRACT: note_on channel=2 note=82 velocity=45 time=0
EXTRACT: note_on channel=6 note=58 velocity=115 time=0
EXTRACT: note_on channel=6 note=62 velocity=124 time=0
EXTRACT: note_on channel=14 note=46 velocity=84 time=0
EXTRACT: note_on channel=15 note=70 velocity=120 time=0
EXTRACT: note_on channel=15 note=82 velocity=122 time=0
EXTRACT: note_off channel=9 note=49 velocity=0 time=0.06490265625
EXTRACT: note_off channel=9 note=35 velocity=0 time=0.0144228125
EXTRACT: note_off channel=6 note=62 velocity=0 time=0.0024038020833333333
EXTRACT: note_off channel=14 note=46 velocity=0 time=0.004807604166666667
EXTRACT: note_off channel=6 note=58 velocity=0 time=0.0024038020833333333
EXTRACT: note_off channel=9 note=44 velocity=0 time=0.00721140625
EXTRACT: note_off channel=13 note=70 velocity=0 time=0.004807604166666667
EXTRACT: note_off channel=1 note=34 velocity=0 time=0.00721140625
EXTRACT: note_on channel=14 note=58 velocity=80 time=0.00721140625
EXTRACT: note_off channel=14 note=58 velocity=0 time=0.11297869791666666
EXTRACT: note_on channel=9 note=44 velocity=102 time=0.0024038020833333333
EXTRACT: note_on channel=1 note=34 velocity=82 time=0
EXTRACT: note_on channel=6 note=58 velocity=100 time=0
EXTRACT: note_on channel=6 note=62 velocity=105 time=0
EXTRACT: note_on channel=14 note=46 velocity=82 time=0
EXTRACT: pitchwheel channel=2 pitch=-640 time=0.031249427083333333
EXTRACT: pitchwheel channel=2 pitch=-1792 time=0.019230416666666666
EXTRACT: note_off channel=3 note=82 velocity=0 time=0.00721140625
EXTRACT: note_off channel=4 note=94 velocity=0 time=0
EXTRACT: pitchwheel channel=2 pitch=-2944 time=0.012019010416666667
EXTRACT: note_off channel=6 note=58 velocity=0 time=0.0024038020833333333
EXTRACT: note_off channel=14 note=46 velocity=0 time=0
EXTRACT: note_off channel=6 note=62 velocity=0 time=0.00721140625
EXTRACT: note_off channel=9 note=44 velocity=0 time=0.0024038020833333333
EXTRACT: pitchwheel channel=2 pitch=-4096 time=0.00721140625
EXTRACT: pitchwheel channel=2 pitch=-4480 time=0.019230416666666666
EXTRACT: note_on channel=14 note=58 velocity=79 time=0.00721140625
EXTRACT: note_off channel=1 note=34 velocity=0 time=0.024038020833333333
EXTRACT: pitchwheel channel=2 pitch=-4224 time=0.009615208333333333
EXTRACT: pitchwheel channel=2 pitch=-3456 time=0.016826614583333333
EXTRACT: pitchwheel channel=2 pitch=-2560 time=0.02163421875
EXTRACT: note_off channel=14 note=58 velocity=0 time=0.012019010416666667
EXTRACT: pitchwheel channel=2 pitch=-1664 time=0.00721140625
EXTRACT: pitchwheel channel=2 pitch=0 time=0.019230416666666666
EXTRACT: note_on channel=9 note=35 velocity=126 time=0.004807604166666667
EXTRACT: note_on channel=9 note=38 velocity=119 time=0
EXTRACT: note_on channel=9 note=44 velocity=122 time=0
EXTRACT: note_on channel=1 note=34 velocity=88 time=0
EXTRACT: note_on channel=6 note=58 velocity=102 time=0
EXTRACT: note_on channel=6 note=62 velocity=100 time=0
EXTRACT: note_on channel=14 note=46 velocity=82 time=0
EXTRACT: note_off channel=6 note=62 velocity=0 time=0.086536875
EXTRACT: note_off channel=14 note=46 velocity=0 time=0
EXTRACT: note_off channel=6 note=58 velocity=0 time=0.0024038020833333333
EXTRACT: note_off channel=9 note=35 velocity=0 time=0.004807604166666667
EXTRACT: note_off channel=9 note=44 velocity=0 time=0.016826614583333333
EXTRACT: note_on channel=14 note=58 velocity=79 time=0.004807604166666667
EXTRACT: note_off channel=14 note=58 velocity=0 time=0.086536875
EXTRACT: note_off channel=1 note=34 velocity=0 time=0.012019010416666667
EXTRACT: note_on channel=9 note=44 velocity=93 time=0.016826614583333333
EXTRACT: note_on channel=1 note=27 velocity=82 time=0
EXTRACT: note_on channel=6 note=58 velocity=111 time=0
EXTRACT: note_on channel=6 note=63 velocity=111 time=0
EXTRACT: note_on channel=14 note=46 velocity=80 time=0
EXTRACT: note_off channel=14 note=46 velocity=0 time=0.086536875
EXTRACT: note_off channel=9 note=44 velocity=0 time=0.00721140625
EXTRACT: note_off channel=6 note=63 velocity=0 time=0.012019010416666667
EXTRACT: note_off channel=6 note=58 velocity=0 time=0
EXTRACT: note_on channel=14 note=58 velocity=79 time=0.009615208333333333
EXTRACT: note_off channel=14 note=58 velocity=0 time=0.08413307291666666
EXTRACT: note_on channel=9 note=35 velocity=123 time=0.031249427083333333
EXTRACT: note_on channel=9 note=44 velocity=107 time=0
EXTRACT: note_on channel=14 note=46 velocity=81 time=0
EXTRACT: note_off channel=1 note=27 velocity=0 time=0.033653229166666666
EXTRACT: note_off channel=14 note=46 velocity=0 time=0.05769125
EXTRACT: note_on channel=14 note=58 velocity=79 time=0.024038020833333333
EXTRACT: note_off channel=9 note=44 velocity=0 time=0.009615208333333333
EXTRACT: note_off channel=9 note=35 velocity=0 time=0.06730645833333333
EXTRACT: note_off channel=14 note=58 velocity=0 time=0.0144228125
EXTRACT: note_on channel=9 note=44 velocity=89 time=0.024038020833333333
EXTRACT: note_on channel=1 note=27 velocity=95 time=0
EXTRACT: note_on channel=6 note=58 velocity=111 time=0
EXTRACT: note_on channel=6 note=63 velocity=108 time=0
EXTRACT: note_on channel=14 note=46 velocity=80 time=0
EXTRACT: note_off channel=9 note=38 velocity=0 time=0.07932546875
EXTRACT: note_off channel=9 note=44 velocity=0 time=0.009615208333333333
EXTRACT: note_off channel=14 note=46 velocity=0 time=0.0024038020833333333
EXTRACT: note_on channel=14 note=58 velocity=79 time=0.024038020833333333
EXTRACT: note_off channel=14 note=58 velocity=0 time=0.09374828125
EXTRACT: note_on channel=9 note=35 velocity=123 time=0.02163421875
EXTRACT: note_on channel=9 note=38 velocity=113 time=0
EXTRACT: note_on channel=9 note=44 velocity=122 time=0
EXTRACT: note_on channel=14 note=46 velocity=82 time=0
EXTRACT: note_off channel=9 note=35 velocity=0 time=0.09134447916666666
EXTRACT: note_off channel=14 note=46 velocity=0 time=0.004807604166666667
EXTRACT: note_on channel=14 note=58 velocity=79 time=0.019230416666666666
EXTRACT: note_off channel=6 note=58 velocity=0 time=0.0024038020833333333
EXTRACT: note_off channel=9 note=44 velocity=0 time=0.0024038020833333333
EXTRACT: note_off channel=6 note=63 velocity=0 time=0.0144228125
EXTRACT: note_off channel=1 note=27 velocity=0 time=0.06730645833333333
EXTRACT: note_off channel=14 note=58 velocity=0 time=0.0144228125
EXTRACT: note_on channel=9 note=35 velocity=119 time=0.0144228125
EXTRACT: note_on channel=9 note=44 velocity=102 time=0
EXTRACT: note_on channel=1 note=31 velocity=82 time=0
EXTRACT: note_on channel=6 note=58 velocity=100 time=0
EXTRACT: note_on channel=6 note=63 velocity=108 time=0
EXTRACT: note_on channel=14 note=46 velocity=82 time=0
EXTRACT: note_off channel=9 note=35 velocity=0 time=0.07692166666666667
EXTRACT: note_off channel=9 note=44 velocity=0 time=0.0144228125
EXTRACT: note_off channel=14 note=46 velocity=0 time=0.0024038020833333333
EXTRACT: note_on channel=14 note=58 velocity=78 time=0.02163421875
EXTRACT: note_off channel=6 note=58 velocity=0 time=0.004807604166666667
EXTRACT: note_off channel=6 note=63 velocity=0 time=0.07451786458333333
EXTRACT: note_off channel=1 note=31 velocity=0 time=0.02163421875
EXTRACT: note_off channel=14 note=58 velocity=0 time=0
EXTRACT: note_on channel=9 note=35 velocity=126 time=0.0144228125
EXTRACT: note_on channel=9 note=44 velocity=122 time=0
EXTRACT: note_on channel=1 note=34 velocity=95 time=0
EXTRACT: note_on channel=6 note=58 velocity=108 time=0
EXTRACT: note_on channel=6 note=62 velocity=100 time=0
EXTRACT: note_on channel=14 note=46 velocity=82 time=0
EXTRACT: note_off channel=14 note=46 velocity=0 time=0.09374828125
EXTRACT: note_off channel=6 note=62 velocity=0 time=0.004807604166666667
EXTRACT: note_off channel=6 note=58 velocity=0 time=0.004807604166666667
EXTRACT: note_off channel=9 note=44 velocity=0 time=0.0024038020833333333
EXTRACT: note_off channel=1 note=34 velocity=0 time=0.009615208333333333
EXTRACT: note_on channel=14 note=58 velocity=79 time=0
EXTRACT: note_off channel=9 note=35 velocity=0 time=0.024038020833333333
EXTRACT: note_off channel=14 note=58 velocity=0 time=0.08172927083333334
EXTRACT: note_on channel=9 note=44 velocity=107 time=0.009615208333333333
EXTRACT: note_on channel=1 note=34 velocity=91 time=0
EXTRACT: note_on channel=6 note=58 velocity=102 time=0
EXTRACT: note_on channel=6 note=62 velocity=94 time=0
EXTRACT: note_on channel=14 note=46 velocity=81 time=0
EXTRACT: note_off channel=6 note=58 velocity=0 time=0.08172927083333334
EXTRACT: note_off channel=14 note=46 velocity=0 time=0.0024038020833333333
EXTRACT: note_off channel=6 note=62 velocity=0 time=0.004807604166666667
EXTRACT: note_off channel=9 note=44 velocity=0 time=0.012019010416666667
EXTRACT: note_off channel=9 note=38 velocity=0 time=0.0144228125
EXTRACT: note_on channel=14 note=58 velocity=79 time=0
EXTRACT: note_off channel=1 note=34 velocity=0 time=0.012019010416666667
EXTRACT: note_off channel=14 note=58 velocity=0 time=0.09374828125
EXTRACT: note_on channel=9 note=35 velocity=123 time=0.009615208333333333
EXTRACT: note_on channel=9 note=38 velocity=119 time=0
EXTRACT: note_on channel=9 note=44 velocity=112 time=0
EXTRACT: note_on channel=1 note=34 velocity=95 time=0
EXTRACT: note_on channel=6 note=58 velocity=115 time=0
EXTRACT: note_on channel=6 note=62 velocity=108 time=0
EXTRACT: note_on channel=14 note=46 velocity=82 time=0
EXTRACT: note_off channel=6 note=62 velocity=0 time=0.09615208333333333
EXTRACT: note_off channel=14 note=46 velocity=0 time=0.0024038020833333333
EXTRACT: note_off channel=6 note=58 velocity=0 time=0.0024038020833333333
EXTRACT: note_on channel=14 note=58 velocity=79 time=0.0144228125
EXTRACT: note_off channel=9 note=44 velocity=0 time=0.0024038020833333333
EXTRACT: note_off channel=1 note=34 velocity=0 time=0.05528744791666666
EXTRACT: note_off channel=14 note=58 velocity=0 time=0.036057031249999996
EXTRACT: note_on channel=9 note=44 velocity=107 time=0.02163421875
EXTRACT: note_on channel=1 note=27 velocity=91 time=0
EXTRACT: note_on channel=6 note=58 velocity=115 time=0
EXTRACT: note_on channel=6 note=63 velocity=115 time=0
EXTRACT: note_on channel=14 note=46 velocity=81 time=0
EXTRACT: note_off channel=9 note=35 velocity=0 time=0.05528744791666666
EXTRACT: note_off channel=14 note=46 velocity=0 time=0.033653229166666666
EXTRACT: note_off channel=9 note=44 velocity=0 time=0.019230416666666666
EXTRACT: note_off channel=6 note=58 velocity=0 time=0.004807604166666667
EXTRACT: note_on channel=14 note=58 velocity=79 time=0.0024038020833333333
EXTRACT: note_off channel=6 note=63 velocity=0 time=0.0024038020833333333
EXTRACT: note_off channel=14 note=58 velocity=0 time=0.09374828125
EXTRACT: note_on channel=9 note=35 velocity=123 time=0.019230416666666666
EXTRACT: note_on channel=9 note=44 velocity=107 time=0
EXTRACT: note_on channel=14 note=46 velocity=82 time=0
EXTRACT: note_off channel=1 note=27 velocity=0 time=0.06490265625
EXTRACT: note_off channel=14 note=46 velocity=0 time=0.024038020833333333
EXTRACT: note_on channel=14 note=58 velocity=78 time=0.026441822916666666
EXTRACT: note_off channel=9 note=44 velocity=0 time=0.00721140625
EXTRACT: note_off channel=14 note=58 velocity=0 time=0.09615208333333333
EXTRACT: note_on channel=9 note=44 velocity=93 time=0.012019010416666667
EXTRACT: note_on channel=1 note=27 velocity=95 time=0
EXTRACT: note_on channel=6 note=58 velocity=115 time=0
EXTRACT: note_on channel=6 note=63 velocity=111 time=0
EXTRACT: note_on channel=14 note=46 velocity=81 time=0
EXTRACT: note_off channel=14 note=46 velocity=0 time=0.09374828125
EXTRACT: note_off channel=9 note=35 velocity=0 time=0.004807604166666667
EXTRACT: note_off channel=9 note=44 velocity=0 time=0.012019010416666667
EXTRACT: note_off channel=9 note=38 velocity=0 time=0.004807604166666667
EXTRACT: note_on channel=14 note=58 velocity=79 time=0
EXTRACT: note_off channel=14 note=58 velocity=0 time=0.1009596875
EXTRACT: note_on channel=9 note=35 velocity=123 time=0.0144228125
EXTRACT: note_on channel=9 note=38 velocity=108 time=0
EXTRACT: note_on channel=9 note=44 velocity=122 time=0
EXTRACT: note_on channel=2 note=70 velocity=42 time=0
EXTRACT: note_on channel=14 note=46 velocity=82 time=0
EXTRACT: note_off channel=2 note=82 velocity=0 time=0.08172927083333334
EXTRACT: note_off channel=9 note=35 velocity=0 time=0.00721140625
EXTRACT: note_off channel=14 note=46 velocity=0 time=0.0024038020833333333
EXTRACT: note_on channel=14 note=58 velocity=79 time=0.024038020833333333
EXTRACT: note_off channel=6 note=58 velocity=0 time=0.016826614583333333
EXTRACT: note_off channel=9 note=44 velocity=0 time=0.0024038020833333333
EXTRACT: note_off channel=6 note=63 velocity=0 time=0.05528744791666666
EXTRACT: note_off channel=14 note=58 velocity=0 time=0.02163421875
EXTRACT: note_on channel=9 note=35 velocity=113 time=0.019230416666666666
EXTRACT: note_on channel=9 note=44 velocity=107 time=0
EXTRACT: note_on channel=1 note=31 velocity=85 time=0
EXTRACT: note_on channel=6 note=58 velocity=115 time=0
EXTRACT: note_on channel=6 note=65 velocity=111 time=0
EXTRACT: note_on channel=14 note=46 velocity=81 time=0
EXTRACT: note_off channel=1 note=27 velocity=0 time=0.0144228125
EXTRACT: note_off channel=9 note=35 velocity=0 time=0.05528744791666666
EXTRACT: note_off channel=6 note=58 velocity=0 time=0.016826614583333333
EXTRACT: note_off channel=6 note=65 velocity=0 time=0.00721140625
EXTRACT: note_off channel=14 note=46 velocity=0 time=0
EXTRACT: note_off channel=9 note=44 velocity=0 time=0.012019010416666667
EXTRACT: note_on channel=14 note=58 velocity=80 time=0.009615208333333333
EXTRACT: note_off channel=1 note=31 velocity=0 time=0.08413307291666666
EXTRACT: note_off channel=14 note=58 velocity=0 time=0.009615208333333333
EXTRACT: note_on channel=9 note=35 velocity=123 time=0.02163421875
EXTRACT: note_on channel=9 note=44 velocity=122 time=0
EXTRACT: note_on channel=1 note=34 velocity=104 time=0
EXTRACT: note_on channel=2 note=80 velocity=45 time=0
EXTRACT: note_on channel=6 note=58 velocity=115 time=0
EXTRACT: note_on channel=6 note=62 velocity=118 time=0
EXTRACT: note_on channel=14 note=46 velocity=84 time=0
EXTRACT: note_on channel=15 note=68 velocity=114 time=0
EXTRACT: note_on channel=15 note=80 velocity=118 time=0
EXTRACT: note_off channel=2 note=70 velocity=0 time=0.026441822916666666
EXTRACT: note_off channel=15 note=70 velocity=0 time=0.0024038020833333333
EXTRACT: note_off channel=15 note=82 velocity=0 time=0.026441822916666666
EXTRACT: note_off channel=6 note=62 velocity=0 time=0.028845625
EXTRACT: note_off channel=14 note=46 velocity=0 time=0.0024038020833333333
EXTRACT: note_off channel=6 note=58 velocity=0 time=0.009615208333333333
EXTRACT: note_on channel=14 note=58 velocity=80 time=0.019230416666666666
EXTRACT: note_off channel=1 note=34 velocity=0 time=0.0024038020833333333
EXTRACT: note_off channel=9 note=44 velocity=0 time=0.016826614583333333
EXTRACT: note_off channel=9 note=35 velocity=0 time=0.016826614583333333
EXTRACT: note_off channel=14 note=58 velocity=0 time=0.07692166666666667
EXTRACT: note_on channel=9 note=44 velocity=107 time=0.0024038020833333333
EXTRACT: note_on channel=1 note=34 velocity=95 time=0
EXTRACT: note_on channel=6 note=58 velocity=108 time=0
EXTRACT: note_on channel=6 note=62 velocity=98 time=0
EXTRACT: note_on channel=14 note=46 velocity=82 time=0
EXTRACT: note_off channel=9 note=38 velocity=0 time=0.048076041666666666
EXTRACT: note_off channel=14 note=46 velocity=0 time=0.024038020833333333
EXTRACT: pitchwheel channel=2 pitch=-256 time=0.0024038020833333333
EXTRACT: note_off channel=6 note=58 velocity=0 time=0.004807604166666667
EXTRACT: note_off channel=6 note=62 velocity=0 time=0.0024038020833333333
EXTRACT: pitchwheel channel=2 pitch=-1152 time=0.012019010416666667
EXTRACT: note_off channel=9 note=44 velocity=0 time=0.009615208333333333
EXTRACT: pitchwheel channel=2 pitch=-1664 time=0.009615208333333333
EXTRACT: note_on channel=14 note=58 velocity=79 time=0.0024038020833333333
EXTRACT: note_off channel=1 note=34 velocity=0 time=0.00721140625
EXTRACT: pitchwheel channel=2 pitch=-1920 time=0.009615208333333333
EXTRACT: pitchwheel channel=2 pitch=-1792 time=0.03846083333333333
EXTRACT: pitchwheel channel=2 pitch=-1536 time=0.019230416666666666
EXTRACT: note_off channel=14 note=58 velocity=0 time=0.009615208333333333
EXTRACT: pitchwheel channel=2 pitch=-1024 time=0.009615208333333333
EXTRACT: pitchwheel channel=2 pitch=-512 time=0.019230416666666666
EXTRACT: note_on channel=9 note=35 velocity=126 time=0.0024038020833333333
EXTRACT: note_on channel=9 note=38 velocity=119 time=0
EXTRACT: note_on channel=9 note=44 velocity=112 time=0
EXTRACT: note_on channel=1 note=34 velocity=104 time=0
EXTRACT: note_on channel=6 note=58 velocity=115 time=0
EXTRACT: note_on channel=6 note=62 velocity=115 time=0
EXTRACT: note_on channel=14 note=46 velocity=82 time=0
EXTRACT: pitchwheel channel=2 pitch=0 time=0.019230416666666666
EXTRACT: note_off channel=14 note=46 velocity=0 time=0.06730645833333333
EXTRACT: note_off channel=6 note=58 velocity=0 time=0.009615208333333333
EXTRACT: note_off channel=9 note=35 velocity=0 time=0.0024038020833333333
EXTRACT: note_off channel=6 note=62 velocity=0 time=0
EXTRACT: note_on channel=14 note=58 velocity=79 time=0.016826614583333333
EXTRACT: note_off channel=9 note=44 velocity=0 time=0.019230416666666666
EXTRACT: note_off channel=1 note=34 velocity=0 time=0.03846083333333333
EXTRACT: note_off channel=14 note=58 velocity=0 time=0.028845625
EXTRACT: note_on channel=9 note=44 velocity=107 time=0.028845625
EXTRACT: note_on channel=1 note=27 velocity=95 time=0
EXTRACT: note_on channel=6 note=58 velocity=124 time=0
EXTRACT: note_on channel=6 note=63 velocity=115 time=0
EXTRACT: note_on channel=14 note=46 velocity=80 time=0
EXTRACT: note_off channel=14 note=46 velocity=0 time=0.086536875
EXTRACT: note_off channel=6 note=63 velocity=0 time=0.024038020833333333
EXTRACT: note_off channel=6 note=58 velocity=0 time=0.004807604166666667
EXTRACT: note_on channel=14 note=58 velocity=79 time=0
EXTRACT: note_off channel=9 note=44 velocity=0 time=0.00721140625
EXTRACT: note_off channel=14 note=58 velocity=0 time=0.07692166666666667
EXTRACT: note_on channel=9 note=35 velocity=126 time=0.031249427083333333
EXTRACT: note_on channel=9 note=44 velocity=107 time=0
EXTRACT: note_on channel=14 note=46 velocity=81 time=0
EXTRACT: note_off channel=1 note=27 velocity=0 time=0.07211406249999999
EXTRACT: note_off channel=14 note=46 velocity=0 time=0.019230416666666666
EXTRACT: note_on channel=14 note=58 velocity=79 time=0.024038020833333333
EXTRACT: note_off channel=9 note=44 velocity=0 time=0.0144228125
EXTRACT: note_off channel=9 note=35 velocity=0 time=0
EXTRACT: note_off channel=14 note=58 velocity=0 time=0.07692166666666667
EXTRACT: note_on channel=9 note=44 velocity=102 time=0.024038020833333333
EXTRACT: note_on channel=1 note=27 velocity=104 time=0
EXTRACT: note_on channel=6 note=58 velocity=115 time=0
EXTRACT: note_on channel=6 note=63 velocity=111 time=0
EXTRACT: note_on channel=14 note=46 velocity=80 time=0
EXTRACT: note_off channel=14 note=46 velocity=0 time=0.09134447916666666
EXTRACT: note_off channel=9 note=38 velocity=0 time=0.012019010416666667
EXTRACT: note_on channel=14 note=58 velocity=79 time=0.012019010416666667
EXTRACT: note_off channel=9 note=44 velocity=0 time=0.00721140625
EXTRACT: note_off channel=14 note=58 velocity=0 time=0.086536875
EXTRACT: note_on channel=9 note=35 velocity=126 time=0.02163421875
EXTRACT: note_on channel=9 note=38 velocity=113 time=0
EXTRACT: note_on channel=9 note=44 velocity=112 time=0
EXTRACT: note_on channel=14 note=46 velocity=82 time=0
EXTRACT: note_off channel=9 note=35 velocity=0 time=0.07692166666666667
EXTRACT: note_off channel=14 note=46 velocity=0 time=0.019230416666666666
EXTRACT: note_off channel=6 note=58 velocity=0 time=0.0144228125
EXTRACT: note_on channel=14 note=58 velocity=79 time=0.004807604166666667
EXTRACT: note_off channel=6 note=63 velocity=0 time=0.00721140625
EXTRACT: note_off channel=9 note=44 velocity=0 time=0.012019010416666667
EXTRACT: note_off channel=14 note=58 velocity=0 time=0.08172927083333334
EXTRACT: note_on channel=9 note=35 velocity=119 time=0.0144228125
EXTRACT: note_on channel=9 note=44 velocity=107 time=0
EXTRACT: note_on channel=1 note=31 velocity=88 time=0
EXTRACT: note_on channel=6 note=58 velocity=124 time=0
EXTRACT: note_on channel=6 note=63 velocity=111 time=0
EXTRACT: note_on channel=14 note=46 velocity=82 time=0
EXTRACT: note_off channel=1 note=27 velocity=0 time=0.016826614583333333
EXTRACT: note_off channel=9 note=35 velocity=0 time=0.048076041666666666
EXTRACT: note_off channel=14 note=46 velocity=0 time=0.028845625
EXTRACT: note_off channel=9 note=44 velocity=0 time=0.019230416666666666
EXTRACT: note_on channel=14 note=58 velocity=78 time=0.0024038020833333333
EXTRACT: note_off channel=6 note=58 velocity=0 time=0.016826614583333333
EXTRACT: note_off channel=1 note=31 velocity=0 time=0.060095052083333336
EXTRACT: note_off channel=14 note=58 velocity=0 time=0.024038020833333333
EXTRACT: note_on channel=9 note=35 velocity=126 time=0.0144228125
EXTRACT: note_on channel=9 note=44 velocity=122 time=0
EXTRACT: note_on channel=1 note=34 velocity=104 time=0
EXTRACT: note_on channel=6 note=58 velocity=124 time=0
EXTRACT: note_on channel=6 note=62 velocity=108 time=0
EXTRACT: note_on channel=14 note=46 velocity=82 time=0
EXTRACT: note_off channel=6 note=63 velocity=0 time=0.028845625
EXTRACT: note_off channel=6 note=62 velocity=0 time=0.05528744791666666
EXTRACT: note_off channel=14 note=46 velocity=0 time=0.009615208333333333
EXTRACT: note_off channel=6 note=58 velocity=0 time=0.00721140625
EXTRACT: note_on channel=14 note=58 velocity=79 time=0.0144228125
EXTRACT: note_off channel=9 note=44 velocity=0 time=0.004807604166666667
EXTRACT: note_off channel=1 note=34 velocity=0 time=0.0144228125
EXTRACT: note_off channel=9 note=35 velocity=0 time=0.00721140625
EXTRACT: note_off channel=14 note=58 velocity=0 time=0.07932546875
EXTRACT: note_on channel=9 note=44 velocity=107 time=0.009615208333333333
EXTRACT: note_on channel=1 note=34 velocity=91 time=0
EXTRACT: note_on channel=6 note=58 velocity=124 time=0
EXTRACT: note_on channel=6 note=62 velocity=108 time=0
EXTRACT: note_on channel=14 note=46 velocity=81 time=0
EXTRACT: note_off channel=9 note=38 velocity=0 time=0.06971026041666667
EXTRACT: note_off channel=6 note=62 velocity=0 time=0
EXTRACT: note_off channel=6 note=58 velocity=0 time=0.00721140625
EXTRACT: note_off channel=14 note=46 velocity=0 time=0.00721140625
EXTRACT: note_off channel=9 note=44 velocity=0 time=0.019230416666666666
EXTRACT: note_on channel=14 note=58 velocity=79 time=0.012019010416666667
EXTRACT: note_off channel=1 note=34 velocity=0 time=0.004807604166666667
EXTRACT: note_off channel=14 note=58 velocity=0 time=0.1009596875
EXTRACT: note_on channel=9 note=35 velocity=126 time=0.009615208333333333
EXTRACT: note_on channel=9 note=38 velocity=113 time=0
EXTRACT: note_on channel=9 note=44 velocity=122 time=0
EXTRACT: note_on channel=1 note=34 velocity=109 time=0
EXTRACT: note_on channel=6 note=58 velocity=127 time=0
EXTRACT: note_on channel=6 note=62 velocity=118 time=0
EXTRACT: note_on channel=14 note=46 velocity=82 time=0
EXTRACT: note_off channel=6 note=62 velocity=0 time=0.086536875
EXTRACT: note_off channel=6 note=58 velocity=0 time=0.004807604166666667
EXTRACT: note_off channel=14 note=46 velocity=0 time=0.00721140625
EXTRACT: note_off channel=9 note=35 velocity=0 time=0.004807604166666667
EXTRACT: note_off channel=9 note=44 velocity=0 time=0.009615208333333333
EXTRACT: note_on channel=14 note=58 velocity=79 time=0.0024038020833333333
EXTRACT: note_off channel=1 note=34 velocity=0 time=0.060095052083333336
EXTRACT: note_off channel=14 note=58 velocity=0 time=0.033653229166666666
EXTRACT: note_on channel=9 note=44 velocity=112 time=0.02163421875
EXTRACT: note_on channel=1 note=27 velocity=109 time=0
EXTRACT: note_on channel=6 note=58 velocity=127 time=0
EXTRACT: note_on channel=6 note=63 velocity=127 time=0
EXTRACT: note_on channel=14 note=46 velocity=81 time=0
EXTRACT: note_off channel=14 note=46 velocity=0 time=0.08894067708333334
EXTRACT: note_off channel=6 note=58 velocity=0 time=0.00721140625
EXTRACT: note_off channel=9 note=44 velocity=0 time=0.004807604166666667
EXTRACT: note_off channel=6 note=63 velocity=0 time=0.0024038020833333333
EXTRACT: note_on channel=14 note=58 velocity=79 time=0.012019010416666667
EXTRACT: note_off channel=2 note=80 velocity=0 time=0.04567223958333333
EXTRACT: note_off channel=15 note=68 velocity=0 time=0.00721140625
EXTRACT: note_off channel=14 note=58 velocity=0 time=0.0432684375
EXTRACT: note_on channel=9 note=35 velocity=126 time=0.019230416666666666
EXTRACT: note_on channel=9 note=44 velocity=122 time=0
EXTRACT: note_on channel=2 note=70 velocity=36 time=0
EXTRACT: note_on channel=14 note=46 velocity=82 time=0
EXTRACT: note_on channel=15 note=68 velocity=120 time=0
EXTRACT: note_off channel=15 note=80 velocity=0 time=0.00721140625
EXTRACT: note_off channel=1 note=27 velocity=0 time=0.048076041666666666
EXTRACT: note_off channel=9 note=35 velocity=0 time=0.033653229166666666
EXTRACT: note_off channel=14 note=46 velocity=0 time=0
EXTRACT: note_off channel=9 note=44 velocity=0 time=0.00721140625
EXTRACT: note_on channel=14 note=58 velocity=78 time=0.019230416666666666
EXTRACT: pitchwheel channel=2 pitch=-768 time=0.07692166666666667
EXTRACT: pitchwheel channel=2 pitch=-1664 time=0.019230416666666666
EXTRACT: note_off channel=14 note=58 velocity=0 time=0.00721140625
EXTRACT: note_on channel=9 note=44 velocity=122 time=0.012019010416666667
EXTRACT: note_on channel=1 note=27 velocity=109 time=0
EXTRACT: pitchwheel channel=2 pitch=-2304 time=0
EXTRACT: note_on channel=6 note=58 velocity=127 time=0
EXTRACT: note_on channel=6 note=63 velocity=115 time=0
EXTRACT: note_on channel=14 note=46 velocity=81 time=0
EXTRACT: pitchwheel channel=2 pitch=-2560 time=0.019230416666666666
EXTRACT: pitchwheel channel=2 pitch=-2688 time=0.019230416666666666
EXTRACT: pitchwheel channel=2 pitch=-2432 time=0.019230416666666666
EXTRACT: note_off channel=9 note=38 velocity=0 time=0.0144228125
EXTRACT: pitchwheel channel=2 pitch=-1792 time=0.004807604166666667
EXTRACT: note_off channel=14 note=46 velocity=0 time=0.016826614583333333
EXTRACT: note_off channel=9 note=44 velocity=0 time=0.0024038020833333333
EXTRACT: pitchwheel channel=2 pitch=-1536 time=0
EXTRACT: note_on channel=14 note=58 velocity=79 time=0.019230416666666666
EXTRACT: pitchwheel channel=2 pitch=-1024 time=0.0024038020833333333
EXTRACT: pitchwheel channel=2 pitch=0 time=0.016826614583333333
EXTRACT: note_off channel=14 note=58 velocity=0 time=0.08172927083333334
EXTRACT: note_on channel=9 note=35 velocity=126 time=0.0144228125
EXTRACT: note_on channel=9 note=38 velocity=119 time=0
EXTRACT: note_on channel=9 note=46 velocity=112 time=0
EXTRACT: note_on channel=14 note=46 velocity=82 time=0
EXTRACT: note_off channel=9 note=46 velocity=0 time=0.06490265625
EXTRACT: note_off channel=9 note=35 velocity=0 time=0.019230416666666666
EXTRACT: note_off channel=14 note=46 velocity=0 time=0.00721140625
EXTRACT: note_off channel=9 note=38 velocity=0 time=0.02163421875
EXTRACT: note_on channel=14 note=58 velocity=79 time=0.0024038020833333333
EXTRACT: note_off channel=6 note=58 velocity=0 time=0.004807604166666667
EXTRACT: note_off channel=6 note=63 velocity=0 time=0.009615208333333333
EXTRACT: note_off channel=2 note=70 velocity=0 time=0.033653229166666666
EXTRACT: note_off channel=1 note=27 velocity=0 time=0.03846083333333333
EXTRACT: note_off channel=14 note=58 velocity=0 time=0.009615208333333333
EXTRACT: note_on channel=9 note=35 velocity=113 time=0.019230416666666666
EXTRACT: note_on channel=9 note=38 velocity=119 time=0
EXTRACT: note_on channel=1 note=31 velocity=91 time=0
EXTRACT: note_on channel=6 note=58 velocity=127 time=0
EXTRACT: note_on channel=6 note=63 velocity=115 time=0
EXTRACT: note_on channel=14 note=46 velocity=81 time=0
EXTRACT: note_off channel=15 note=68 velocity=0 time=0.012019010416666667
EXTRACT: note_off channel=9 note=35 velocity=0 time=0.04567223958333333
EXTRACT: note_off channel=6 note=63 velocity=0 time=0.02163421875
EXTRACT: note_off channel=6 note=58 velocity=0 time=0.009615208333333333
EXTRACT: note_off channel=9 note=38 velocity=0 time=0.0024038020833333333
EXTRACT: note_off channel=14 note=46 velocity=0 time=0.0024038020833333333
EXTRACT: note_on channel=14 note=58 velocity=80 time=0.02163421875
EXTRACT: note_off channel=1 note=31 velocity=0 time=0.07932546875
EXTRACT: note_off channel=14 note=58 velocity=0 time=0.0144228125
EXTRACT: note_on channel=9 note=36 velocity=125 time=0.02163421875
EXTRACT: note_on channel=9 note=44 velocity=111 time=0
EXTRACT: note_on channel=9 note=49 velocity=80 time=0
EXTRACT: note_on channel=9 note=54 velocity=102 time=0
EXTRACT: note_on channel=9 note=57 velocity=89 time=0
EXTRACT: note_on channel=1 note=34 velocity=104 time=0
EXTRACT: note_on channel=7 note=58 velocity=75 time=0
EXTRACT: note_on channel=7 note=62 velocity=78 time=0
EXTRACT: note_on channel=7 note=65 velocity=86 time=0
EXTRACT: note_on channel=14 note=46 velocity=65 time=0
EXTRACT: note_off channel=9 note=49 velocity=0 time=0.07692166666666667
EXTRACT: note_off channel=14 note=46 velocity=0 time=0.009615208333333333
EXTRACT: note_off channel=9 note=57 velocity=0 time=0.0024038020833333333
EXTRACT: note_off channel=9 note=54 velocity=0 time=0.012019010416666667
EXTRACT: note_off channel=9 note=36 velocity=0 time=0.0024038020833333333
EXTRACT: note_on channel=14 note=58 velocity=61 time=0.012019010416666667
EXTRACT: note_off channel=14 note=58 velocity=0 time=0.11297869791666666
EXTRACT: note_on channel=9 note=54 velocity=57 time=0.0024038020833333333
EXTRACT: note_on channel=14 note=46 velocity=63 time=0
EXTRACT: note_off channel=9 note=44 velocity=0 time=0.026441822916666666
EXTRACT: note_off channel=14 note=46 velocity=0 time=0.04567223958333333
EXTRACT: note_off channel=9 note=54 velocity=0 time=0.028845625
EXTRACT: note_on channel=14 note=58 velocity=60 time=0.0144228125
EXTRACT: note_off channel=1 note=34 velocity=0 time=0.07932546875
EXTRACT: note_off channel=14 note=58 velocity=0 time=0.004807604166666667
EXTRACT: note_on channel=9 note=54 velocity=75 time=0.031249427083333333
EXTRACT: note_on channel=1 note=29 velocity=73 time=0
EXTRACT: note_on channel=3 note=65 velocity=107 time=0
EXTRACT: note_on channel=4 note=77 velocity=97 time=0
EXTRACT: note_on channel=8 note=70 velocity=89 time=0
EXTRACT: note_on channel=8 note=74 velocity=68 time=0
EXTRACT: note_on channel=14 note=46 velocity=63 time=0
EXTRACT: note_off channel=14 note=46 velocity=0 time=0.086536875
EXTRACT: note_on channel=14 note=58 velocity=60 time=0.028845625
EXTRACT: note_off channel=9 note=54 velocity=0 time=0.004807604166666667
EXTRACT: note_off channel=3 note=65 velocity=0 time=0.03846083333333333
EXTRACT: note_off channel=4 note=77 velocity=0 time=0
EXTRACT: note_off channel=1 note=29 velocity=0 time=0.009615208333333333
EXTRACT: note_off channel=14 note=58 velocity=0 time=0.033653229166666666
EXTRACT: note_on channel=9 note=54 velocity=54 time=0.028845625
EXTRACT: note_on channel=1 note=27 velocity=88 time=0
EXTRACT: note_on channel=3 note=65 velocity=107 time=0
EXTRACT: note_on channel=4 note=77 velocity=97 time=0
EXTRACT: note_on channel=14 note=46 velocity=61 time=0
EXTRACT: note_off channel=8 note=70 velocity=0 time=0.031249427083333333
EXTRACT: note_off channel=8 note=74 velocity=0 time=0.024038020833333333
EXTRACT: note_off channel=14 note=46 velocity=0 time=0.031249427083333333
EXTRACT: note_off channel=9 note=54 velocity=0 time=0.00721140625
EXTRACT: note_on channel=14 note=58 velocity=60 time=0.02163421875
EXTRACT: note_off channel=14 note=58 velocity=0 time=0.08413307291666666
EXTRACT: note_on channel=9 note=54 velocity=75 time=0.031249427083333333
EXTRACT: note_on channel=3 note=67 velocity=107 time=0
EXTRACT: note_on channel=4 note=79 velocity=97 time=0
EXTRACT: note_on channel=7 note=63 velocity=80 time=0
EXTRACT: note_on channel=14 note=46 velocity=62 time=0
EXTRACT: note_off channel=3 note=65 velocity=0 time=0.006009505208333333
EXTRACT: note_off channel=4 note=77 velocity=0 time=0
EXTRACT: note_off channel=7 note=62 velocity=0 time=0.025239921875
EXTRACT: note_off channel=14 note=46 velocity=0 time=0.060095052083333336
EXTRACT: note_on channel=14 note=58 velocity=60 time=0.024038020833333333
EXTRACT: note_off channel=9 note=54 velocity=0 time=0.02163421875
EXTRACT: note_off channel=1 note=27 velocity=0 time=0.0432684375
EXTRACT: note_off channel=14 note=58 velocity=0 time=0.026441822916666666
EXTRACT: note_off channel=3 note=67 velocity=0 time=0.018028515624999998
EXTRACT: note_off channel=4 note=79 velocity=0 time=0
EXTRACT: note_on channel=9 note=54 velocity=52 time=0.006009505208333333
EXTRACT: note_on channel=1 note=27 velocity=95 time=0
EXTRACT: note_on channel=3 note=70 velocity=107 time=0
EXTRACT: note_on channel=4 note=82 velocity=97 time=0
EXTRACT: note_on channel=14 note=46 velocity=61 time=0
EXTRACT: note_off channel=9 note=54 velocity=0 time=0.08413307291666666
EXTRACT: note_off channel=14 note=46 velocity=0 time=0.00721140625
EXTRACT: note_on channel=14 note=58 velocity=60 time=0.024038020833333333
EXTRACT: note_off channel=14 note=58 velocity=0 time=0.09374828125
EXTRACT: note_on channel=9 note=54 velocity=66 time=0.02163421875
EXTRACT: note_on channel=8 note=70 velocity=89 time=0
EXTRACT: note_on channel=8 note=75 velocity=89 time=0
EXTRACT: note_on channel=14 note=46 velocity=63 time=0
EXTRACT: note_off channel=14 note=46 velocity=0 time=0.09615208333333333
EXTRACT: note_on channel=14 note=58 velocity=60 time=0.019230416666666666
EXTRACT: note_off channel=9 note=54 velocity=0 time=0.009615208333333333
EXTRACT: note_off channel=3 note=70 velocity=0 time=0.07692166666666667
EXTRACT: note_off channel=4 note=82 velocity=0 time=0
EXTRACT: note_off channel=14 note=58 velocity=0 time=0.0144228125
EXTRACT: note_off channel=1 note=27 velocity=0 time=0.012019010416666667
EXTRACT: note_on channel=9 note=54 velocity=61 time=0.0024038020833333333
EXTRACT: note_on channel=1 note=31 velocity=62 time=0
EXTRACT: note_on channel=3 note=72 velocity=107 time=0
EXTRACT: note_on channel=4 note=84 velocity=97 time=0
EXTRACT: note_on channel=14 note=46 velocity=63 time=0
EXTRACT: note_off channel=8 note=70 velocity=0 time=0.04567223958333333
EXTRACT: note_off channel=8 note=75 velocity=0 time=0.0144228125
EXTRACT: note_off channel=14 note=46 velocity=0 time=0.033653229166666666
EXTRACT: note_off channel=9 note=54 velocity=0 time=0.0144228125
EXTRACT: note_on channel=14 note=58 velocity=59 time=0.00721140625
EXTRACT: note_off channel=1 note=31 velocity=0 time=0.06490265625
EXTRACT: note_off channel=14 note=58 velocity=0 time=0.036057031249999996
EXTRACT: note_on channel=9 note=54 velocity=60 time=0.0144228125
EXTRACT: note_on channel=1 note=34 velocity=82 time=0
EXTRACT: note_on channel=7 note=62 velocity=81 time=0
EXTRACT: note_on channel=14 note=46 velocity=63 time=0
EXTRACT: note_off channel=7 note=63 velocity=0 time=0.004807604166666667
EXTRACT: note_off channel=14 note=46 velocity=0 time=0.08894067708333334
EXTRACT: note_on channel=14 note=58 velocity=60 time=0.02163421875
EXTRACT: note_off channel=9 note=54 velocity=0 time=0.02163421875
EXTRACT: note_off channel=14 note=58 velocity=0 time=0.08413307291666666
EXTRACT: note_on channel=9 note=54 velocity=54 time=0.009615208333333333
EXTRACT: note_on channel=3 note=70 velocity=107 time=0
EXTRACT: note_on channel=4 note=82 velocity=97 time=0
EXTRACT: note_on channel=14 note=46 velocity=62 time=0
EXTRACT: note_off channel=3 note=72 velocity=0 time=0.051681744791666664
EXTRACT: note_off channel=4 note=84 velocity=0 time=0
EXTRACT: note_off channel=14 note=46 velocity=0 time=0.032451328125
EXTRACT: note_off channel=9 note=54 velocity=0 time=0.019230416666666666
EXTRACT: note_on channel=14 note=58 velocity=60 time=0.012019010416666667
EXTRACT: note_off channel=14 note=58 velocity=0 time=0.10576729166666667
EXTRACT: note_off channel=1 note=34 velocity=0 time=0.004807604166666667
EXTRACT: note_on channel=9 note=54 velocity=67 time=0.004807604166666667
EXTRACT: note_on channel=1 note=29 velocity=76 time=0
EXTRACT: note_on channel=8 note=70 velocity=84 time=0
EXTRACT: note_on channel=8 note=74 velocity=78 time=0
EXTRACT: note_on channel=14 note=46 velocity=63 time=0
EXTRACT: note_off channel=14 note=46 velocity=0 time=0.09855588541666667
EXTRACT: note_off channel=9 note=54 velocity=0 time=0.004807604166666667
EXTRACT: note_on channel=14 note=58 velocity=60 time=0.012019010416666667
EXTRACT: note_off channel=14 note=58 velocity=0 time=0.09374828125
EXTRACT: note_off channel=1 note=29 velocity=0 time=0.016826614583333333
EXTRACT: note_on channel=9 note=54 velocity=43 time=0.004807604166666667
EXTRACT: note_on channel=1 note=27 velocity=91 time=0
EXTRACT: note_on channel=3 note=67 velocity=107 time=0
EXTRACT: note_on channel=4 note=79 velocity=97 time=0
EXTRACT: note_on channel=14 note=46 velocity=62 time=0
EXTRACT: note_off channel=8 note=70 velocity=0 time=0.04086463541666667
EXTRACT: note_off channel=8 note=74 velocity=0 time=0.0144228125
EXTRACT: note_off channel=3 note=70 velocity=0 time=0.0024038020833333333
EXTRACT: note_off channel=4 note=82 velocity=0 time=0
EXTRACT: note_off channel=9 note=54 velocity=0 time=0.012019010416666667
EXTRACT: note_off channel=14 note=46 velocity=0 time=0.019230416666666666
EXTRACT: note_off channel=7 note=62 velocity=0 time=0.0024038020833333333
EXTRACT: note_on channel=14 note=58 velocity=60 time=0.024038020833333333
EXTRACT: note_off channel=14 note=58 velocity=0 time=0.09615208333333333
EXTRACT: note_on channel=9 note=54 velocity=61 time=0.019230416666666666
EXTRACT: note_on channel=14 note=46 velocity=63 time=0
EXTRACT: note_off channel=14 note=46 velocity=0 time=0.08894067708333334
EXTRACT: note_off channel=9 note=54 velocity=0 time=0.016826614583333333
EXTRACT: note_off channel=1 note=27 velocity=0 time=0.0024038020833333333
EXTRACT: note_on channel=14 note=58 velocity=59 time=0.00721140625
EXTRACT: note_off channel=3 note=67 velocity=0 time=0.09855588541666667
EXTRACT: note_off channel=4 note=79 velocity=0 time=0
EXTRACT: note_off channel=14 note=58 velocity=0 time=0.004807604166666667
EXTRACT: note_on channel=9 note=54 velocity=57 time=0.012019010416666667
EXTRACT: note_on channel=1 note=27 velocity=95 time=0
EXTRACT: note_on channel=3 note=70 velocity=107 time=0
EXTRACT: note_on channel=4 note=82 velocity=97 time=0
EXTRACT: note_on channel=14 note=46 velocity=62 time=0
EXTRACT: note_off channel=14 note=46 velocity=0 time=0.09374828125
EXTRACT: note_off channel=9 note=54 velocity=0 time=0.012019010416666667
EXTRACT: note_on channel=14 note=58 velocity=60 time=0.009615208333333333
EXTRACT: note_off channel=14 note=58 velocity=0 time=0.1009596875
EXTRACT: note_on channel=9 note=54 velocity=84 time=0.0144228125
EXTRACT: note_on channel=8 note=70 velocity=89 time=0
EXTRACT: note_on channel=8 note=75 velocity=84 time=0
EXTRACT: note_on channel=14 note=46 velocity=63 time=0
EXTRACT: note_off channel=14 note=46 velocity=0 time=0.09134447916666666
EXTRACT: note_on channel=14 note=58 velocity=60 time=0.024038020833333333
EXTRACT: note_off channel=9 note=54 velocity=0 time=0.009615208333333333
EXTRACT: note_off channel=14 note=58 velocity=0 time=0.086536875
EXTRACT: note_off channel=1 note=27 velocity=0 time=0.016826614583333333
EXTRACT: note_on channel=9 note=54 velocity=61 time=0.0024038020833333333
EXTRACT: note_on channel=1 note=31 velocity=85 time=0
EXTRACT: note_on channel=3 note=72 velocity=107 time=0
EXTRACT: note_on channel=4 note=84 velocity=97 time=0
EXTRACT: note_on channel=14 note=46 velocity=62 time=0
EXTRACT: note_off channel=3 note=70 velocity=0 time=0.0012019010416666667
EXTRACT: note_off channel=4 note=82 velocity=0 time=0
EXTRACT: note_off channel=8 note=70 velocity=0 time=0.075719765625
EXTRACT: note_off channel=8 note=75 velocity=0 time=0.012019010416666667
EXTRACT: note_off channel=14 note=46 velocity=0 time=0.004807604166666667
EXTRACT: note_off channel=9 note=54 velocity=0 time=0.016826614583333333
EXTRACT: note_on channel=14 note=58 velocity=61 time=0.004807604166666667
EXTRACT: note_off channel=7 note=58 velocity=0 time=0.012019010416666667
EXTRACT: note_off channel=7 note=65 velocity=0 time=0.012019010416666667
EXTRACT: note_off channel=1 note=31 velocity=0 time=0.05047984375
EXTRACT: note_off channel=14 note=58 velocity=0 time=0.019230416666666666
EXTRACT: note_on channel=9 note=54 velocity=61 time=0.02163421875
EXTRACT: note_on channel=1 note=34 velocity=104 time=0
EXTRACT: note_on channel=3 note=70 velocity=107 time=0
EXTRACT: note_on channel=4 note=82 velocity=97 time=0
EXTRACT: note_on channel=7 note=58 velocity=84 time=0
EXTRACT: note_on channel=7 note=62 velocity=82 time=0
EXTRACT: note_on channel=7 note=65 velocity=78 time=0
EXTRACT: note_on channel=14 note=46 velocity=65 time=0
EXTRACT: note_off channel=3 note=72 velocity=0 time=0.054085546875
EXTRACT: note_off channel=4 note=84 velocity=0 time=0
EXTRACT: note_off channel=14 note=46 velocity=0 time=0.032451328125
EXTRACT: note_on channel=14 note=58 velocity=61 time=0.028845625
EXTRACT: note_off channel=9 note=54 velocity=0 time=0.009615208333333333
EXTRACT: note_off channel=14 note=58 velocity=0 time=0.10336348958333333
EXTRACT: note_on channel=9 note=54 velocity=56 time=0.0024038020833333333
EXTRACT: note_on channel=14 note=46 velocity=63 time=0
EXTRACT: note_off channel=14 note=46 velocity=0 time=0.07211406249999999
EXTRACT: note_on channel=14 note=58 velocity=60 time=0.0432684375
EXTRACT: note_off channel=9 note=54 velocity=0 time=0.016826614583333333
EXTRACT: note_off channel=1 note=34 velocity=0 time=0.062498854166666666
EXTRACT: note_off channel=14 note=58 velocity=0 time=0.004807604166666667
EXTRACT: note_on channel=9 note=54 velocity=75 time=0.031249427083333333
EXTRACT: note_on channel=1 note=29 velocity=73 time=0
EXTRACT: note_on channel=8 note=70 velocity=89 time=0
EXTRACT: note_on channel=8 note=74 velocity=75 time=0
EXTRACT: note_on channel=14 note=46 velocity=63 time=0
EXTRACT: note_off channel=14 note=46 velocity=0 time=0.086536875
EXTRACT: note_on channel=14 note=58 velocity=60 time=0.028845625
EXTRACT: note_off channel=9 note=54 velocity=0 time=0.016826614583333333
EXTRACT: note_off channel=1 note=29 velocity=0 time=0.036057031249999996
EXTRACT: note_off channel=14 note=58 velocity=0 time=0.033653229166666666
EXTRACT: note_on channel=9 note=54 velocity=57 time=0.028845625
EXTRACT: note_on channel=1 note=27 velocity=88 time=0
EXTRACT: note_on channel=3 note=70 velocity=107 time=0
EXTRACT: note_on channel=4 note=82 velocity=97 time=0
EXTRACT: note_on channel=14 note=46 velocity=61 time=0
EXTRACT: note_off channel=3 note=70 velocity=0 time=0.0432684375
EXTRACT: note_off channel=4 note=82 velocity=0 time=0
EXTRACT: note_off channel=8 note=70 velocity=0 time=0.004807604166666667
EXTRACT: note_off channel=8 note=74 velocity=0 time=0.009615208333333333
EXTRACT: note_off channel=7 note=62 velocity=0 time=0.028845625
EXTRACT: note_off channel=14 note=46 velocity=0 time=0
EXTRACT: note_off channel=9 note=54 velocity=0 time=0.0144228125
EXTRACT: note_on channel=14 note=58 velocity=60 time=0.0144228125
EXTRACT: note_off channel=14 note=58 velocity=0 time=0.08413307291666666
EXTRACT: note_on channel=9 note=54 velocity=66 time=0.031249427083333333
EXTRACT: note_on channel=7 note=63 velocity=91 time=0
EXTRACT: note_on channel=14 note=46 velocity=62 time=0
EXTRACT: note_off channel=14 note=46 velocity=0 time=0.09134447916666666
EXTRACT: note_on channel=14 note=58 velocity=60 time=0.024038020833333333
EXTRACT: note_off channel=9 note=54 velocity=0 time=0.016826614583333333
EXTRACT: note_off channel=1 note=27 velocity=0 time=0.048076041666666666
EXTRACT: note_off channel=14 note=58 velocity=0 time=0.026441822916666666
EXTRACT: note_on channel=9 note=54 velocity=61 time=0.024038020833333333
EXTRACT: note_on channel=1 note=27 velocity=95 time=0
EXTRACT: note_on channel=14 note=46 velocity=61 time=0
EXTRACT: note_off channel=14 note=46 velocity=0 time=0.09134447916666666
EXTRACT: note_off channel=9 note=54 velocity=0 time=0.00721140625
EXTRACT: note_on channel=14 note=58 velocity=60 time=0.016826614583333333
EXTRACT: note_off channel=14 note=58 velocity=0 time=0.09374828125
EXTRACT: note_on channel=9 note=54 velocity=73 time=0.02163421875
EXTRACT: note_on channel=8 note=70 velocity=84 time=0
EXTRACT: note_on channel=8 note=75 velocity=84 time=0
EXTRACT: note_on channel=14 note=46 velocity=63 time=0
EXTRACT: note_off channel=14 note=46 velocity=0 time=0.09615208333333333
EXTRACT: note_on channel=14 note=58 velocity=60 time=0.019230416666666666
EXTRACT: note_off channel=9 note=54 velocity=0 time=0.004807604166666667
EXTRACT: note_off channel=14 note=58 velocity=0 time=0.09615208333333333
EXTRACT: note_off channel=1 note=27 velocity=0 time=0.012019010416666667
EXTRACT: note_on channel=9 note=54 velocity=64 time=0.0024038020833333333
EXTRACT: note_on channel=1 note=31 velocity=62 time=0
EXTRACT: note_on channel=3 note=67 velocity=107 time=0
EXTRACT: note_on channel=4 note=79 velocity=97 time=0
EXTRACT: note_on channel=14 note=46 velocity=63 time=0
EXTRACT: note_off channel=8 note=70 velocity=0 time=0.05528744791666666
EXTRACT: note_off channel=8 note=75 velocity=0 time=0.024038020833333333
EXTRACT: note_off channel=14 note=46 velocity=0 time=0.0144228125
EXTRACT: note_off channel=9 note=54 velocity=0 time=0.00721140625
EXTRACT: note_on channel=14 note=58 velocity=59 time=0.0144228125
EXTRACT: note_off channel=3 note=67 velocity=0 time=0.016826614583333333
EXTRACT: note_off channel=4 note=79 velocity=0 time=0
EXTRACT: note_off channel=1 note=31 velocity=0 time=0.048076041666666666
EXTRACT: note_off channel=3 note=70 velocity=0 time=0.008413307291666667
EXTRACT: note_off channel=4 note=82 velocity=0 time=0
EXTRACT: note_off channel=14 note=58 velocity=0 time=0.02764372395833333
EXTRACT: note_on channel=9 note=54 velocity=67 time=0.0144228125
EXTRACT: note_on channel=1 note=34 velocity=82 time=0
EXTRACT: note_on channel=3 note=68 velocity=107 time=0
EXTRACT: note_on channel=4 note=80 velocity=97 time=0
EXTRACT: note_on channel=7 note=62 velocity=83 time=0
EXTRACT: note_on channel=14 note=46 velocity=63 time=0
EXTRACT: note_off channel=7 note=63 velocity=0 time=0.031249427083333333
EXTRACT: note_off channel=14 note=46 velocity=0 time=0.062498854166666666
EXTRACT: note_on channel=14 note=58 velocity=60 time=0.02163421875
EXTRACT: note_off channel=9 note=54 velocity=0 time=0.009615208333333333
EXTRACT: note_off channel=3 note=68 velocity=0 time=0.033653229166666666
EXTRACT: note_off channel=4 note=80 velocity=0 time=0
EXTRACT: note_off channel=14 note=58 velocity=0 time=0.062498854166666666
EXTRACT: note_on channel=9 note=54 velocity=61 time=0.009615208333333333
EXTRACT: note_on channel=3 note=67 velocity=107 time=0
EXTRACT: note_on channel=4 note=79 velocity=97 time=0
EXTRACT: note_on channel=14 note=46 velocity=62 time=0
EXTRACT: note_off channel=14 note=46 velocity=0 time=0.08413307291666666
EXTRACT: note_off channel=9 note=54 velocity=0 time=0.0024038020833333333
EXTRACT: note_on channel=14 note=58 velocity=60 time=0.028845625
EXTRACT: note_off channel=14 note=58 velocity=0 time=0.10576729166666667
EXTRACT: note_off channel=1 note=34 velocity=0 time=0.004807604166666667
EXTRACT: note_on channel=9 note=54 velocity=75 time=0.004807604166666667
EXTRACT: note_on channel=1 note=29 velocity=76 time=0
EXTRACT: note_on channel=8 note=70 velocity=89 time=0
EXTRACT: note_on channel=8 note=74 velocity=84 time=0
EXTRACT: note_on channel=14 note=46 velocity=63 time=0
EXTRACT: note_off channel=14 note=46 velocity=0 time=0.09855588541666667
EXTRACT: note_off channel=9 note=54 velocity=0 time=0.0144228125
EXTRACT: note_on channel=14 note=58 velocity=60 time=0.0024038020833333333
EXTRACT: note_off channel=14 note=58 velocity=0 time=0.09374828125
EXTRACT: note_off channel=1 note=29 velocity=0 time=0.016826614583333333
EXTRACT: note_on channel=9 note=54 velocity=61 time=0.004807604166666667
EXTRACT: note_on channel=1 note=27 velocity=91 time=0
EXTRACT: note_on channel=3 note=65 velocity=107 time=0
EXTRACT: note_on channel=4 note=77 velocity=97 time=0
EXTRACT: note_on channel=14 note=46 velocity=62 time=0
EXTRACT: note_off channel=3 note=67 velocity=0 time=0.05769125
EXTRACT: note_off channel=4 note=79 velocity=0 time=0
EXTRACT: note_off channel=8 note=70 velocity=0 time=0.004807604166666667
EXTRACT: note_off channel=8 note=74 velocity=0 time=0.009615208333333333
EXTRACT: note_off channel=9 note=54 velocity=0 time=0.0144228125
EXTRACT: note_off channel=14 note=46 velocity=0 time=0.0024038020833333333
EXTRACT: note_on channel=14 note=58 velocity=60 time=0.026441822916666666
EXTRACT: note_off channel=7 note=58 velocity=0 time=0.009615208333333333
EXTRACT: note_off channel=14 note=58 velocity=0 time=0.086536875
EXTRACT: note_on channel=9 note=54 velocity=71 time=0.019230416666666666
EXTRACT: note_on channel=14 note=46 velocity=63 time=0
EXTRACT: note_off channel=14 note=46 velocity=0 time=0.08894067708333334
EXTRACT: note_off channel=9 note=54 velocity=0 time=0.016826614583333333
EXTRACT: note_off channel=1 note=27 velocity=0 time=0.0024038020833333333
EXTRACT: note_on channel=14 note=58 velocity=59 time=0.00721140625
EXTRACT: note_off channel=14 note=58 velocity=0 time=0.10336348958333333
EXTRACT: note_on channel=9 note=54 velocity=56 time=0.012019010416666667
EXTRACT: note_on channel=1 note=27 velocity=95 time=0
EXTRACT: note_on channel=14 note=46 velocity=62 time=0
EXTRACT: note_off channel=14 note=46 velocity=0 time=0.09374828125
EXTRACT: note_off channel=9 note=54 velocity=0 time=0.004807604166666667
EXTRACT: note_on channel=14 note=58 velocity=60 time=0.016826614583333333
EXTRACT: note_off channel=14 note=58 velocity=0 time=0.1009596875
EXTRACT: note_on channel=9 note=54 velocity=73 time=0.0144228125
EXTRACT: note_on channel=3 note=63 velocity=107 time=0
EXTRACT: note_on channel=4 note=75 velocity=97 time=0
EXTRACT: note_on channel=8 note=70 velocity=89 time=0
EXTRACT: note_on channel=8 note=75 velocity=84 time=0
EXTRACT: note_on channel=14 note=46 velocity=63 time=0
EXTRACT: note_off channel=14 note=46 velocity=0 time=0.09134447916666666
EXTRACT: note_off channel=7 note=62 velocity=0 time=0.019230416666666666
EXTRACT: note_on channel=14 note=58 velocity=60 time=0.004807604166666667
EXTRACT: note_off channel=9 note=54 velocity=0 time=0.004807604166666667
EXTRACT: note_off channel=3 note=63 velocity=0 time=0.036057031249999996
EXTRACT: note_off channel=4 note=75 velocity=0 time=0
EXTRACT: note_off channel=7 note=65 velocity=0 time=0.009615208333333333
EXTRACT: note_off channel=3 note=65 velocity=0 time=0.003605703125
EXTRACT: note_off channel=4 note=77 velocity=0 time=0
EXTRACT: note_off channel=14 note=58 velocity=0 time=0.04206653645833333
EXTRACT: note_off channel=1 note=27 velocity=0 time=0.016826614583333333
EXTRACT: note_on channel=9 note=54 velocity=60 time=0.0024038020833333333
EXTRACT: note_on channel=1 note=31 velocity=85 time=0
EXTRACT: note_on channel=3 note=65 velocity=107 time=0
EXTRACT: note_on channel=4 note=77 velocity=97 time=0
EXTRACT: note_on channel=14 note=46 velocity=62 time=0
EXTRACT: note_off channel=8 note=70 velocity=0 time=0.05047984375
EXTRACT: note_off channel=8 note=75 velocity=0 time=0.0144228125
EXTRACT: note_off channel=14 note=46 velocity=0 time=0.028845625
EXTRACT: note_off channel=9 note=54 velocity=0 time=0.0024038020833333333
EXTRACT: note_on channel=14 note=58 velocity=61 time=0.019230416666666666
EXTRACT: note_off channel=1 note=31 velocity=0 time=0.07451786458333333
EXTRACT: note_off channel=14 note=58 velocity=0 time=0.019230416666666666
EXTRACT: note_on channel=9 note=54 velocity=73 time=0.02163421875
EXTRACT: note_on channel=1 note=34 velocity=104 time=0
EXTRACT: note_on channel=7 note=58 velocity=75 time=0
EXTRACT: note_on channel=7 note=62 velocity=78 time=0
EXTRACT: note_on channel=7 note=65 velocity=86 time=0
EXTRACT: note_on channel=14 note=46 velocity=65 time=0
EXTRACT: note_off channel=14 note=46 velocity=0 time=0.086536875
EXTRACT: note_off channel=9 note=54 velocity=0 time=0.024038020833333333
EXTRACT: note_on channel=14 note=58 velocity=61 time=0.004807604166666667
EXTRACT: note_off channel=14 note=58 velocity=0 time=0.11297869791666666
EXTRACT: note_on channel=9 note=54 velocity=61 time=0.0024038020833333333
EXTRACT: note_on channel=14 note=46 velocity=63 time=0
EXTRACT: note_off channel=9 note=54 velocity=0 time=0.06730645833333333
EXTRACT: note_off channel=14 note=46 velocity=0 time=0.004807604166666667
EXTRACT: note_off channel=3 note=65 velocity=0 time=0.003605703125
EXTRACT: note_off channel=4 note=77 velocity=0 time=0
EXTRACT: note_on channel=14 note=58 velocity=60 time=0.039662734375
EXTRACT: note_off channel=1 note=34 velocity=0 time=0.07932546875
EXTRACT: note_off channel=14 note=58 velocity=0 time=0.004807604166666667
EXTRACT: note_on channel=9 note=54 velocity=84 time=0.031249427083333333
EXTRACT: note_on channel=1 note=29 velocity=73 time=0
EXTRACT: note_on channel=3 note=68 velocity=107 time=0
EXTRACT: note_on channel=4 note=80 velocity=97 time=0
EXTRACT: note_on channel=8 note=70 velocity=94 time=0
EXTRACT: note_on channel=8 note=74 velocity=89 time=0
EXTRACT: note_on channel=14 note=46 velocity=63 time=0
EXTRACT: note_off channel=14 note=46 velocity=0 time=0.086536875
EXTRACT: note_off channel=9 note=54 velocity=0 time=0.019230416666666666
EXTRACT: note_on channel=14 note=58 velocity=60 time=0.009615208333333333
EXTRACT: note_off channel=1 note=29 velocity=0 time=0.05288364583333333
EXTRACT: note_off channel=14 note=58 velocity=0 time=0.033653229166666666
EXTRACT: note_on channel=9 note=54 velocity=56 time=0.028845625
EXTRACT: note_on channel=1 note=27 velocity=88 time=0
EXTRACT: note_on channel=3 note=65 velocity=107 time=0
EXTRACT: note_on channel=4 note=77 velocity=97 time=0
EXTRACT: note_on channel=14 note=46 velocity=61 time=0
EXTRACT: note_off channel=8 note=70 velocity=0 time=0.026441822916666666
EXTRACT: note_off channel=8 note=74 velocity=0 time=0.019230416666666666
EXTRACT: note_off channel=3 note=68 velocity=0 time=0.008413307291666667
EXTRACT: note_off channel=4 note=80 velocity=0 time=0
EXTRACT: note_off channel=9 note=54 velocity=0 time=0.030047526041666668
EXTRACT: note_off channel=14 note=46 velocity=0 time=0.0024038020833333333
EXTRACT: note_on channel=14 note=58 velocity=60 time=0.028845625
EXTRACT: note_off channel=3 note=65 velocity=0 time=0.0012019010416666667
EXTRACT: note_off channel=4 note=77 velocity=0 time=0
EXTRACT: note_off channel=14 note=58 velocity=0 time=0.082931171875
EXTRACT: note_on channel=9 note=54 velocity=66 time=0.031249427083333333
EXTRACT: note_on channel=3 note=68 velocity=107 time=0
EXTRACT: note_on channel=4 note=80 velocity=97 time=0
EXTRACT: note_on channel=7 note=63 velocity=80 time=0
EXTRACT: note_on channel=14 note=46 velocity=62 time=0
EXTRACT: note_off channel=7 note=62 velocity=0 time=0.031249427083333333
EXTRACT: note_off channel=14 note=46 velocity=0 time=0.060095052083333336
EXTRACT: note_on channel=14 note=58 velocity=60 time=0.024038020833333333
EXTRACT: note_off channel=9 note=54 velocity=0 time=0.012019010416666667
EXTRACT: note_off channel=1 note=27 velocity=0 time=0.05288364583333333
EXTRACT: note_off channel=14 note=58 velocity=0 time=0.026441822916666666
EXTRACT: note_on channel=9 note=54 velocity=56 time=0.024038020833333333
EXTRACT: note_on channel=1 note=27 velocity=95 time=0
EXTRACT: note_on channel=14 note=46 velocity=61 time=0
EXTRACT: note_off channel=9 note=54 velocity=0 time=0.08894067708333334
EXTRACT: note_off channel=14 note=46 velocity=0 time=0.0024038020833333333
EXTRACT: note_on channel=14 note=58 velocity=60 time=0.024038020833333333
EXTRACT: note_off channel=14 note=58 velocity=0 time=0.09374828125
EXTRACT: note_on channel=9 note=54 velocity=75 time=0.02163421875
EXTRACT: note_on channel=3 note=65 velocity=107 time=0
EXTRACT: note_on channel=4 note=77 velocity=97 time=0
EXTRACT: note_on channel=8 note=70 velocity=89 time=0
EXTRACT: note_on channel=8 note=75 velocity=89 time=0
EXTRACT: note_on channel=14 note=46 velocity=63 time=0
EXTRACT: note_off channel=14 note=46 velocity=0 time=0.09615208333333333
EXTRACT: note_off channel=3 note=65 velocity=0 time=0.008413307291666667
EXTRACT: note_off channel=4 note=77 velocity=0 time=0
EXTRACT: note_off channel=3 note=68 velocity=0 time=0.00721140625
EXTRACT: note_off channel=4 note=80 velocity=0 time=0
EXTRACT: note_on channel=14 note=58 velocity=60 time=0.003605703125
EXTRACT: note_off channel=9 note=54 velocity=0 time=0.00721140625
EXTRACT: note_off channel=14 note=58 velocity=0 time=0.09374828125
EXTRACT: note_off channel=1 note=27 velocity=0 time=0.012019010416666667
EXTRACT: note_on channel=9 note=54 velocity=60 time=0.0024038020833333333
EXTRACT: note_on channel=1 note=31 velocity=62 time=0
EXTRACT: note_on channel=3 note=68 velocity=107 time=0
EXTRACT: note_on channel=4 note=80 velocity=97 time=0
EXTRACT: note_on channel=14 note=46 velocity=63 time=0
EXTRACT: note_off channel=8 note=70 velocity=0 time=0.048076041666666666
EXTRACT: note_off channel=8 note=75 velocity=0 time=0.019230416666666666
EXTRACT: note_off channel=9 note=54 velocity=0 time=0.016826614583333333
EXTRACT: note_off channel=14 note=46 velocity=0 time=0.009615208333333333
EXTRACT: note_on channel=14 note=58 velocity=59 time=0.02163421875
EXTRACT: note_off channel=1 note=31 velocity=0 time=0.06490265625
EXTRACT: note_off channel=14 note=58 velocity=0 time=0.036057031249999996
EXTRACT: note_on channel=9 note=54 velocity=59 time=0.0144228125
EXTRACT: note_on channel=1 note=34 velocity=82 time=0
EXTRACT: note_on channel=7 note=62 velocity=81 time=0
EXTRACT: note_on channel=14 note=46 velocity=63 time=0
EXTRACT: note_off channel=7 note=63 velocity=0 time=0.004807604166666667
EXTRACT: note_off channel=14 note=46 velocity=0 time=0.08894067708333334
EXTRACT: note_off channel=9 note=54 velocity=0 time=0.02163421875
EXTRACT: note_on channel=14 note=58 velocity=60 time=0
EXTRACT: note_off channel=3 note=68 velocity=0 time=0.020432317708333335
EXTRACT: note_off channel=4 note=80 velocity=0 time=0
EXTRACT: note_off channel=14 note=58 velocity=0 time=0.08533497395833334
EXTRACT: note_on channel=9 note=54 velocity=57 time=0.009615208333333333
EXTRACT: note_on channel=3 note=65 velocity=107 time=0
EXTRACT: note_on channel=4 note=77 velocity=97 time=0
EXTRACT: note_on channel=14 note=46 velocity=62 time=0
EXTRACT: note_off channel=14 note=46 velocity=0 time=0.08413307291666666
EXTRACT: note_off channel=9 note=54 velocity=0 time=0.016826614583333333
EXTRACT: note_on channel=14 note=58 velocity=60 time=0.0144228125
EXTRACT: note_off channel=14 note=58 velocity=0 time=0.10576729166666667
EXTRACT: note_off channel=1 note=34 velocity=0 time=0.004807604166666667
EXTRACT: note_on channel=9 note=54 velocity=84 time=0.004807604166666667
EXTRACT: note_on channel=1 note=29 velocity=76 time=0
EXTRACT: note_on channel=8 note=70 velocity=89 time=0
EXTRACT: note_on channel=8 note=74 velocity=89 time=0
EXTRACT: note_on channel=14 note=46 velocity=63 time=0
EXTRACT: note_off channel=14 note=46 velocity=0 time=0.09855588541666667
EXTRACT: note_off channel=9 note=54 velocity=0 time=0.012019010416666667
EXTRACT: note_on channel=14 note=58 velocity=60 time=0.004807604166666667
EXTRACT: note_off channel=3 note=65 velocity=0 time=0.022836119791666665
EXTRACT: note_off channel=4 note=77 velocity=0 time=0
EXTRACT: note_off channel=14 note=58 velocity=0 time=0.07091216145833333
EXTRACT: note_off channel=1 note=29 velocity=0 time=0.016826614583333333
EXTRACT: note_on channel=9 note=54 velocity=66 time=0.004807604166666667
EXTRACT: note_on channel=1 note=27 velocity=91 time=0
EXTRACT: note_on channel=3 note=68 velocity=107 time=0
EXTRACT: note_on channel=4 note=80 velocity=97 time=0
EXTRACT: note_on channel=14 note=46 velocity=62 time=0
EXTRACT: note_off channel=8 note=70 velocity=0 time=0.026441822916666666
EXTRACT: note_off channel=8 note=74 velocity=0 time=0.012019010416666667
EXTRACT: note_off channel=14 note=46 velocity=0 time=0.05047984375
EXTRACT: note_off channel=7 note=62 velocity=0 time=0.0024038020833333333
EXTRACT: note_off channel=9 note=54 velocity=0 time=0.004807604166666667
EXTRACT: note_on channel=14 note=58 velocity=60 time=0.019230416666666666
EXTRACT: note_off channel=14 note=58 velocity=0 time=0.09615208333333333
EXTRACT: note_on channel=9 note=54 velocity=60 time=0.019230416666666666
EXTRACT: note_on channel=14 note=46 velocity=63 time=0
EXTRACT: note_off channel=14 note=46 velocity=0 time=0.08894067708333334
EXTRACT: note_off channel=1 note=27 velocity=0 time=0.019230416666666666
EXTRACT: note_on channel=14 note=58 velocity=59 time=0.00721140625
EXTRACT: note_off channel=9 note=54 velocity=0 time=0.004807604166666667
EXTRACT: note_off channel=3 note=68 velocity=0 time=0.08172927083333334
EXTRACT: note_off channel=4 note=80 velocity=0 time=0
EXTRACT: note_off channel=14 note=58 velocity=0 time=0.016826614583333333
EXTRACT: note_on channel=9 note=54 velocity=56 time=0.012019010416666667
EXTRACT: note_on channel=1 note=27 velocity=95 time=0
EXTRACT: note_on channel=3 note=70 velocity=107 time=0
EXTRACT: note_on channel=4 note=82 velocity=97 time=0
EXTRACT: note_on channel=14 note=46 velocity=62 time=0
EXTRACT: note_off channel=14 note=46 velocity=0 time=0.09374828125
EXTRACT: note_off channel=9 note=54 velocity=0 time=0.009615208333333333
EXTRACT: note_on channel=14 note=58 velocity=60 time=0.012019010416666667
EXTRACT: note_off channel=14 note=58 velocity=0 time=0.1009596875
EXTRACT: note_on channel=9 note=54 velocity=81 time=0.0144228125
EXTRACT: note_on channel=8 note=70 velocity=94 time=0
EXTRACT: note_on channel=8 note=75 velocity=94 time=0
EXTRACT: note_on channel=14 note=46 velocity=63 time=0
EXTRACT: note_off channel=14 note=46 velocity=0 time=0.09134447916666666
EXTRACT: note_on channel=14 note=58 velocity=60 time=0.024038020833333333
EXTRACT: note_off channel=9 note=54 velocity=0 time=0.004807604166666667
EXTRACT: note_off channel=14 note=58 velocity=0 time=0.09134447916666666
EXTRACT: note_off channel=3 note=70 velocity=0 time=0.008413307291666667
EXTRACT: note_off channel=4 note=82 velocity=0 time=0
EXTRACT: note_off channel=1 note=27 velocity=0 time=0.008413307291666667
EXTRACT: note_on channel=9 note=54 velocity=60 time=0.0024038020833333333
EXTRACT: note_on channel=1 note=31 velocity=85 time=0
EXTRACT: note_on channel=3 note=72 velocity=107 time=0
EXTRACT: note_on channel=4 note=84 velocity=97 time=0
EXTRACT: note_on channel=14 note=46 velocity=62 time=0
EXTRACT: note_off channel=8 note=70 velocity=0 time=0.036057031249999996
EXTRACT: note_off channel=8 note=75 velocity=0 time=0.016826614583333333
EXTRACT: note_off channel=14 note=46 velocity=0 time=0.04086463541666667
EXTRACT: note_off channel=9 note=54 velocity=0 time=0.012019010416666667
EXTRACT: note_on channel=14 note=58 velocity=61 time=0.009615208333333333
EXTRACT: note_off channel=7 note=58 velocity=0 time=0.012019010416666667
EXTRACT: note_off channel=7 note=65 velocity=0 time=0.012019010416666667
EXTRACT: note_off channel=1 note=31 velocity=0 time=0.05047984375
EXTRACT: note_off channel=14 note=58 velocity=0 time=0.019230416666666666
EXTRACT: note_on channel=9 note=35 velocity=120 time=0.02163421875
EXTRACT: note_on channel=9 note=36 velocity=122 time=0
EXTRACT: note_on channel=9 note=44 velocity=111 time=0
EXTRACT: note_on channel=9 note=54 velocity=81 time=0
EXTRACT: note_on channel=1 note=34 velocity=104 time=0
EXTRACT: note_on channel=7 note=58 velocity=84 time=0
EXTRACT: note_on channel=7 note=62 velocity=82 time=0
EXTRACT: note_on channel=7 note=65 velocity=78 time=0
EXTRACT: note_on channel=14 note=46 velocity=65 time=0
EXTRACT: note_off channel=14 note=46 velocity=0 time=0.086536875
EXTRACT: note_off channel=9 note=54 velocity=0 time=0.028845625
EXTRACT: note_on channel=14 note=58 velocity=61 time=0
EXTRACT: note_off channel=9 note=35 velocity=0 time=0.05288364583333333
EXTRACT: note_off channel=14 note=58 velocity=0 time=0.060095052083333336
EXTRACT: note_on channel=9 note=35 velocity=56 time=0.0024038020833333333
EXTRACT: note_on channel=9 note=46 velocity=75 time=0
EXTRACT: note_on channel=9 note=54 velocity=60 time=0
EXTRACT: note_on channel=3 note=70 velocity=107 time=0
EXTRACT: note_on channel=4 note=82 velocity=97 time=0
EXTRACT: note_on channel=14 note=46 velocity=63 time=0
EXTRACT: note_off channel=9 note=44 velocity=0 time=0.026441822916666666
EXTRACT: note_off channel=9 note=35 velocity=0 time=0.028845625
EXTRACT: note_off channel=3 note=72 velocity=0 time=0.008413307291666667
EXTRACT: note_off channel=4 note=84 velocity=0 time=0
EXTRACT: note_off channel=14 note=46 velocity=0 time=0.008413307291666667
EXTRACT: note_off channel=9 note=36 velocity=0 time=0.031249427083333333
EXTRACT: note_off channel=9 note=54 velocity=0 time=0.0024038020833333333
EXTRACT: note_on channel=14 note=58 velocity=60 time=0.009615208333333333
EXTRACT: note_off channel=1 note=34 velocity=0 time=0.07932546875
EXTRACT: note_off channel=14 note=58 velocity=0 time=0.004807604166666667
EXTRACT: note_on channel=9 note=36 velocity=122 time=0.031249427083333333
EXTRACT: note_on channel=9 note=39 velocity=76 time=0
EXTRACT: note_on channel=9 note=40 velocity=74 time=0
EXTRACT: note_on channel=9 note=44 velocity=92 time=0
EXTRACT: note_on channel=9 note=54 velocity=84 time=0
EXTRACT: note_on channel=1 note=29 velocity=73 time=0
EXTRACT: note_on channel=8 note=70 velocity=94 time=0
EXTRACT: note_on channel=8 note=74 velocity=94 time=0
EXTRACT: note_on channel=14 note=46 velocity=63 time=0
EXTRACT: note_off channel=14 note=46 velocity=0 time=0.086536875
EXTRACT: note_off channel=9 note=40 velocity=0 time=0.0024038020833333333
EXTRACT: note_off channel=9 note=46 velocity=0 time=0.024038020833333333
EXTRACT: note_on channel=14 note=58 velocity=60 time=0.0024038020833333333
EXTRACT: note_off channel=9 note=54 velocity=0 time=0.012019010416666667
EXTRACT: note_off channel=1 note=29 velocity=0 time=0.04086463541666667
EXTRACT: note_off channel=3 note=70 velocity=0 time=0.02764372395833333
EXTRACT: note_off channel=4 note=82 velocity=0 time=0
EXTRACT: note_off channel=14 note=58 velocity=0 time=0.006009505208333333
EXTRACT: note_on channel=9 note=35 velocity=105 time=0.028845625
EXTRACT: note_on channel=9 note=46 velocity=63 time=0
EXTRACT: note_on channel=9 note=54 velocity=60 time=0
EXTRACT: note_on channel=1 note=27 velocity=88 time=0
EXTRACT: note_on channel=3 note=70 velocity=107 time=0
EXTRACT: note_on channel=4 note=82 velocity=97 time=0
EXTRACT: note_on channel=14 note=46 velocity=61 time=0
EXTRACT: note_off channel=9 note=44 velocity=0 time=0.036057031249999996
EXTRACT: note_off channel=8 note=70 velocity=0 time=0.0024038020833333333
EXTRACT: note_off channel=8 note=74 velocity=0 time=0.00721140625
EXTRACT: note_off channel=9 note=35 velocity=0 time=0.02163421875
EXTRACT: note_off channel=7 note=62 velocity=0 time=0.019230416666666666
EXTRACT: note_off channel=14 note=46 velocity=0 time=0
EXTRACT: note_off channel=9 note=36 velocity=0 time=0.004807604166666667
EXTRACT: note_off channel=9 note=54 velocity=0 time=0.012019010416666667
EXTRACT: note_on channel=14 note=58 velocity=60 time=0.012019010416666667
EXTRACT: note_on channel=9 note=40 velocity=94 time=0.019230416666666666
EXTRACT: note_off channel=14 note=58 velocity=0 time=0.06490265625
EXTRACT: note_off channel=9 note=40 velocity=0 time=0.004807604166666667
EXTRACT: note_on channel=9 note=35 velocity=120 time=0.026441822916666666
EXTRACT: note_on channel=9 note=36 velocity=122 time=0
EXTRACT: note_on channel=9 note=44 velocity=85 time=0
EXTRACT: note_on channel=9 note=54 velocity=75 time=0
EXTRACT: note_on channel=7 note=63 velocity=91 time=0
EXTRACT: note_on channel=14 note=46 velocity=62 time=0
EXTRACT: note_off channel=9 note=35 velocity=0 time=0.07692166666666667
EXTRACT: note_off channel=9 note=46 velocity=0 time=0
EXTRACT: note_off channel=14 note=46 velocity=0 time=0.0144228125
EXTRACT: note_on channel=14 note=58 velocity=60 time=0.024038020833333333
EXTRACT: note_off channel=9 note=54 velocity=0 time=0.009615208333333333
EXTRACT: note_off channel=1 note=27 velocity=0 time=0.05528744791666666
EXTRACT: note_off channel=14 note=58 velocity=0 time=0.026441822916666666
EXTRACT: note_on channel=9 note=36 velocity=120 time=0.024038020833333333
EXTRACT: note_on channel=9 note=35 velocity=120 time=0
EXTRACT: note_on channel=9 note=46 velocity=71 time=0
EXTRACT: note_on channel=9 note=54 velocity=60 time=0
EXTRACT: note_on channel=1 note=27 velocity=95 time=0
EXTRACT: note_on channel=14 note=46 velocity=61 time=0
EXTRACT: note_off channel=9 note=36 velocity=64 time=0.05769125
EXTRACT: note_off channel=9 note=54 velocity=0 time=0.028845625
EXTRACT: note_off channel=9 note=44 velocity=0 time=0.0024038020833333333
EXTRACT: note_off channel=9 note=39 velocity=0 time=0.0024038020833333333
EXTRACT: note_off channel=14 note=46 velocity=0 time=0
EXTRACT: note_on channel=14 note=58 velocity=60 time=0.024038020833333333
EXTRACT: note_off channel=9 note=36 velocity=0 time=0.009615208333333333
EXTRACT: note_off channel=14 note=58 velocity=0 time=0.08413307291666666
EXTRACT: note_on channel=9 note=36 velocity=122 time=0.02163421875
EXTRACT: note_on channel=9 note=39 velocity=72 time=0
EXTRACT: note_on channel=9 note=40 velocity=74 time=0
EXTRACT: note_on channel=9 note=44 velocity=101 time=0
EXTRACT: note_on channel=9 note=54 velocity=84 time=0
EXTRACT: note_on channel=8 note=70 velocity=89 time=0
EXTRACT: note_on channel=8 note=75 velocity=89 time=0
EXTRACT: note_on channel=14 note=46 velocity=63 time=0
EXTRACT: note_off channel=9 note=35 velocity=0 time=0.012019010416666667
EXTRACT: note_off channel=9 note=40 velocity=0 time=0.08172927083333334
EXTRACT: note_off channel=14 note=46 velocity=0 time=0.0024038020833333333
EXTRACT: note_off channel=9 note=46 velocity=0 time=0.00721140625
EXTRACT: note_on channel=14 note=58 velocity=60 time=0.012019010416666667
EXTRACT: note_off channel=9 note=54 velocity=0 time=0.02163421875
EXTRACT: note_off channel=14 note=58 velocity=0 time=0.07932546875
EXTRACT: note_off channel=1 note=27 velocity=0 time=0.012019010416666667
EXTRACT: note_on channel=9 note=46 velocity=70 time=0.0024038020833333333
EXTRACT: note_on channel=9 note=54 velocity=59 time=0
EXTRACT: note_on channel=1 note=31 velocity=62 time=0
EXTRACT: note_on channel=14 note=46 velocity=63 time=0
EXTRACT: note_off channel=8 note=70 velocity=0 time=0.05528744791666666
EXTRACT: note_off channel=9 note=36 velocity=0 time=0.02163421875
EXTRACT: note_off channel=8 note=75 velocity=0 time=0
EXTRACT: note_off channel=9 note=44 velocity=0 time=0.00721140625
EXTRACT: note_off channel=9 note=54 velocity=0 time=0.0024038020833333333
EXTRACT: note_off channel=14 note=46 velocity=0 time=0.00721140625
EXTRACT: note_on channel=14 note=58 velocity=59 time=0.02163421875
EXTRACT: note_on channel=9 note=40 velocity=70 time=0.019230416666666666
EXTRACT: note_off channel=9 note=46 velocity=0 time=0.024038020833333333
EXTRACT: note_off channel=1 note=31 velocity=0 time=0.02163421875
EXTRACT: note_off channel=14 note=58 velocity=0 time=0.036057031249999996
EXTRACT: note_on channel=9 note=35 velocity=120 time=0.0144228125
EXTRACT: note_on channel=9 note=36 velocity=125 time=0
EXTRACT: note_on channel=9 note=44 velocity=111 time=0
EXTRACT: note_on channel=9 note=54 velocity=84 time=0
EXTRACT: note_on channel=1 note=34 velocity=82 time=0
EXTRACT: note_on channel=7 note=62 velocity=83 time=0
EXTRACT: note_on channel=14 note=46 velocity=63 time=0
EXTRACT: note_off channel=9 note=40 velocity=0 time=0.009615208333333333
EXTRACT: note_off channel=7 note=63 velocity=0 time=0.02163421875
EXTRACT: note_off channel=14 note=46 velocity=0 time=0.062498854166666666
EXTRACT: note_off channel=9 note=35 velocity=0 time=0.009615208333333333
EXTRACT: note_on channel=14 note=58 velocity=60 time=0.012019010416666667
EXTRACT: note_off channel=9 note=54 velocity=0 time=0.016826614583333333
EXTRACT: note_off channel=14 note=58 velocity=0 time=0.08894067708333334
EXTRACT: note_on channel=9 note=35 velocity=110 time=0.009615208333333333
EXTRACT: note_on channel=9 note=46 velocity=75 time=0
EXTRACT: note_on channel=9 note=54 velocity=56 time=0
EXTRACT: note_on channel=14 note=46 velocity=62 time=0
EXTRACT: note_off channel=9 note=44 velocity=0 time=0.026441822916666666
EXTRACT: note_off channel=9 note=39 velocity=0 time=0.031249427083333333
EXTRACT: note_off channel=14 note=46 velocity=0 time=0.026441822916666666
EXTRACT: note_off channel=9 note=54 velocity=0 time=0.009615208333333333
EXTRACT: note_off channel=9 note=36 velocity=0 time=0.019230416666666666
EXTRACT: note_on channel=14 note=58 velocity=60 time=0.0024038020833333333
EXTRACT: note_off channel=14 note=58 velocity=0 time=0.10576729166666667
EXTRACT: note_off channel=1 note=34 velocity=0 time=0.004807604166666667
EXTRACT: note_on channel=9 note=36 velocity=122 time=0.004807604166666667
EXTRACT: note_on channel=9 note=39 velocity=80 time=0
EXTRACT: note_on channel=9 note=40 velocity=78 time=0
EXTRACT: note_on channel=9 note=44 velocity=92 time=0
EXTRACT: note_on channel=9 note=54 velocity=75 time=0
EXTRACT: note_on channel=1 note=29 velocity=76 time=0
EXTRACT: note_on channel=8 note=70 velocity=94 time=0
EXTRACT: note_on channel=8 note=74 velocity=84 time=0
EXTRACT: note_on channel=14 note=46 velocity=63 time=0
EXTRACT: note_off channel=9 note=35 velocity=0 time=0.028845625
EXTRACT: note_off channel=9 note=40 velocity=0 time=0.06490265625
EXTRACT: note_off channel=14 note=46 velocity=0 time=0.004807604166666667
EXTRACT: note_off channel=9 note=46 velocity=0 time=0.0144228125
EXTRACT: note_on channel=14 note=58 velocity=60 time=0.0024038020833333333
EXTRACT: note_off channel=9 note=54 velocity=0 time=0.016826614583333333
EXTRACT: note_off channel=14 note=58 velocity=0 time=0.07692166666666667
EXTRACT: note_off channel=1 note=29 velocity=0 time=0.016826614583333333
EXTRACT: note_on channel=9 note=35 velocity=116 time=0.004807604166666667
EXTRACT: note_on channel=9 note=46 velocity=63 time=0
EXTRACT: note_on channel=9 note=54 velocity=66 time=0
EXTRACT: note_on channel=1 note=27 velocity=91 time=0
EXTRACT: note_on channel=14 note=46 velocity=62 time=0
EXTRACT: note_off channel=9 note=44 velocity=0 time=0.036057031249999996
EXTRACT: note_off channel=8 note=70 velocity=0 time=0.012019010416666667
EXTRACT: note_off channel=8 note=74 velocity=0 time=0.012019010416666667
EXTRACT: note_off channel=9 note=35 velocity=0 time=0.0144228125
EXTRACT: note_off channel=14 note=46 velocity=0 time=0.0144228125
EXTRACT: note_off channel=9 note=54 velocity=0 time=0.009615208333333333
EXTRACT: note_off channel=9 note=36 velocity=0 time=0.016826614583333333
EXTRACT: note_on channel=14 note=58 velocity=60 time=0
EXTRACT: note_off channel=7 note=58 velocity=0 time=0.009615208333333333
EXTRACT: note_on channel=9 note=40 velocity=105 time=0.009615208333333333
EXTRACT: note_off channel=9 note=40 velocity=0 time=0.07692166666666667
EXTRACT: note_off channel=14 note=58 velocity=0 time=0
EXTRACT: note_on channel=9 note=35 velocity=120 time=0.019230416666666666
EXTRACT: note_on channel=9 note=36 velocity=125 time=0
EXTRACT: note_on channel=9 note=44 velocity=85 time=0
EXTRACT: note_on channel=9 note=54 velocity=81 time=0
EXTRACT: note_on channel=14 note=46 velocity=63 time=0
EXTRACT: note_off channel=9 note=35 velocity=0 time=0.07211406249999999
EXTRACT: note_off channel=9 note=46 velocity=0 time=0.004807604166666667
EXTRACT: note_off channel=14 note=46 velocity=0 time=0.012019010416666667
EXTRACT: note_off channel=1 note=27 velocity=0 time=0.019230416666666666
EXTRACT: note_off channel=9 note=54 velocity=0 time=0.0024038020833333333
EXTRACT: note_on channel=14 note=58 velocity=59 time=0.004807604166666667
EXTRACT: note_on channel=9 note=40 velocity=100 time=0.019230416666666666
EXTRACT: note_off channel=9 note=40 velocity=0 time=0.07692166666666667
EXTRACT: note_off channel=14 note=58 velocity=0 time=0.00721140625
EXTRACT: note_on channel=9 note=36 velocity=120 time=0.012019010416666667
EXTRACT: note_on channel=9 note=35 velocity=120 time=0
EXTRACT: note_on channel=9 note=46 velocity=71 time=0
EXTRACT: note_on channel=9 note=54 velocity=71 time=0
EXTRACT: note_on channel=1 note=27 velocity=95 time=0
EXTRACT: note_on channel=14 note=46 velocity=62 time=0
EXTRACT: note_off channel=9 note=39 velocity=0 time=0.05528744791666666
EXTRACT: note_off channel=9 note=36 velocity=64 time=0.0024038020833333333
EXTRACT: note_off channel=9 note=36 velocity=0 time=0.028845625
EXTRACT: note_off channel=9 note=44 velocity=0 time=0.0024038020833333333
EXTRACT: note_off channel=14 note=46 velocity=0 time=0.004807604166666667
EXTRACT: note_off channel=9 note=54 velocity=0 time=0.00721140625
EXTRACT: note_off channel=9 note=35 velocity=0 time=0
EXTRACT: note_on channel=14 note=58 velocity=60 time=0.0144228125
EXTRACT: note_off channel=14 note=58 velocity=0 time=0.1009596875
EXTRACT: note_on channel=9 note=36 velocity=122 time=0.0144228125
EXTRACT: note_on channel=9 note=39 velocity=86 time=0
EXTRACT: note_on channel=9 note=40 velocity=86 time=0
EXTRACT: note_on channel=9 note=44 velocity=101 time=0
EXTRACT: note_on channel=9 note=54 velocity=81 time=0
EXTRACT: note_on channel=8 note=70 velocity=94 time=0
EXTRACT: note_on channel=8 note=75 velocity=94 time=0
EXTRACT: note_on channel=14 note=46 velocity=63 time=0
EXTRACT: note_off channel=9 note=40 velocity=0 time=0.086536875
EXTRACT: note_off channel=14 note=46 velocity=0 time=0.004807604166666667
EXTRACT: note_off channel=9 note=46 velocity=0 time=0.012019010416666667
EXTRACT: note_off channel=7 note=62 velocity=0 time=0.00721140625
EXTRACT: note_on channel=14 note=58 velocity=60 time=0.004807604166666667
EXTRACT: note_off channel=9 note=54 velocity=0 time=0.0024038020833333333
EXTRACT: note_off channel=9 note=36 velocity=0 time=0.0144228125
EXTRACT: note_off channel=7 note=65 velocity=0 time=0.033653229166666666
EXTRACT: note_off channel=14 note=58 velocity=0 time=0.04567223958333333
EXTRACT: note_off channel=1 note=27 velocity=0 time=0.016826614583333333
EXTRACT: note_on channel=9 note=36 velocity=122 time=0.0024038020833333333
EXTRACT: note_on channel=9 note=40 velocity=110 time=0
EXTRACT: note_on channel=9 note=46 velocity=70 time=0
EXTRACT: note_on channel=9 note=54 velocity=84 time=0
EXTRACT: note_on channel=1 note=31 velocity=85 time=0
EXTRACT: note_on channel=14 note=46 velocity=62 time=0
EXTRACT: note_off channel=9 note=39 velocity=0 time=0.05769125
EXTRACT: note_off channel=9 note=40 velocity=0 time=0.004807604166666667
EXTRACT: note_off channel=8 note=70 velocity=0 time=0
EXTRACT: note_off channel=8 note=75 velocity=0 time=0.019230416666666666
EXTRACT: note_off channel=9 note=44 velocity=0 time=0.0024038020833333333
EXTRACT: note_off channel=14 note=46 velocity=0 time=0.009615208333333333
EXTRACT: note_off channel=9 note=54 velocity=0 time=0.012019010416666667
EXTRACT: note_off channel=3 note=70 velocity=0 time=0.006009505208333333
EXTRACT: note_off channel=4 note=82 velocity=0 time=0
EXTRACT: note_on channel=14 note=58 velocity=61 time=0.003605703125
EXTRACT: note_on channel=9 note=40 velocity=91 time=0.019230416666666666
EXTRACT: note_off channel=9 note=36 velocity=0 time=0.0024038020833333333
EXTRACT: note_off channel=9 note=46 velocity=0 time=0.02163421875
EXTRACT: note_off channel=1 note=31 velocity=0 time=0.031249427083333333
EXTRACT: note_off channel=14 note=58 velocity=0 time=0.019230416666666666
EXTRACT: note_off channel=9 note=40 velocity=0 time=0.009615208333333333
EXTRACT: note_on channel=9 note=36 velocity=125 time=0.012019010416666667
EXTRACT: note_on channel=9 note=44 velocity=111 time=0
EXTRACT: note_on channel=9 note=49 velocity=80 time=0
EXTRACT: note_on channel=9 note=57 velocity=89 time=0
EXTRACT: note_on channel=1 note=34 velocity=104 time=0
EXTRACT: note_on channel=2 note=86 velocity=84 time=0
EXTRACT: note_on channel=12 note=53 velocity=88 time=0
EXTRACT: note_on channel=12 note=58 velocity=78 time=0
EXTRACT: note_on channel=12 note=62 velocity=76 time=0
EXTRACT: note_on channel=14 note=46 velocity=65 time=0
EXTRACT: note_off channel=9 note=49 velocity=0 time=0.07692166666666667
EXTRACT: note_off channel=14 note=46 velocity=0 time=0.009615208333333333
EXTRACT: note_off channel=9 note=57 velocity=0 time=0.0024038020833333333
EXTRACT: note_off channel=12 note=58 velocity=0 time=0.00721140625
EXTRACT: note_off channel=9 note=36 velocity=0 time=0.00721140625
EXTRACT: note_off channel=12 note=62 velocity=0 time=0.009615208333333333
EXTRACT: note_on channel=14 note=58 velocity=61 time=0.0024038020833333333
EXTRACT: note_off channel=12 note=53 velocity=0 time=0.00721140625
EXTRACT: note_off channel=14 note=58 velocity=0 time=0.10576729166666667
EXTRACT: note_on channel=9 note=46 velocity=75 time=0.0024038020833333333
EXTRACT: note_on channel=6 note=58 velocity=124 time=0
EXTRACT: note_on channel=6 note=62 velocity=108 time=0
EXTRACT: note_on channel=14 note=46 velocity=63 time=0
EXTRACT: note_off channel=9 note=44 velocity=0 time=0.026441822916666666
EXTRACT: note_off channel=14 note=46 velocity=0 time=0.04567223958333333
EXTRACT: note_off channel=6 note=62 velocity=0 time=0.004807604166666667
EXTRACT: note_off channel=6 note=58 velocity=0 time=0
EXTRACT: note_on channel=14 note=58 velocity=60 time=0.03846083333333333
EXTRACT: note_off channel=1 note=34 velocity=0 time=0.07932546875
EXTRACT: note_off channel=14 note=58 velocity=0 time=0.004807604166666667
EXTRACT: note_on channel=9 note=36 velocity=107 time=0.031249427083333333
EXTRACT: note_on channel=9 note=39 velocity=78 time=0
EXTRACT: note_on channel=9 note=40 velocity=74 time=0
EXTRACT: note_on channel=9 note=44 velocity=92 time=0
EXTRACT: note_on channel=1 note=29 velocity=73 time=0
EXTRACT: note_on channel=6 note=58 velocity=98 time=0
EXTRACT: note_on channel=6 note=62 velocity=102 time=0
EXTRACT: note_on channel=12 note=53 velocity=80 time=0
EXTRACT: note_on channel=12 note=58 velocity=73 time=0
EXTRACT: note_on channel=12 note=62 velocity=73 time=0
EXTRACT: note_on channel=14 note=46 velocity=63 time=0
EXTRACT: note_off channel=14 note=46 velocity=0 time=0.086536875
EXTRACT: note_off channel=6 note=58 velocity=0 time=0.00721140625
EXTRACT: note_off channel=12 note=62 velocity=0 time=0.009615208333333333
EXTRACT: note_off channel=9 note=46 velocity=0 time=0.009615208333333333
EXTRACT: note_off channel=12 note=58 velocity=0 time=0
EXTRACT: note_on channel=14 note=58 velocity=60 time=0.0024038020833333333
EXTRACT: note_off channel=12 note=53 velocity=0 time=0.00721140625
EXTRACT: note_off channel=9 note=36 velocity=0 time=0.009615208333333333
EXTRACT: note_off channel=6 note=62 velocity=0 time=0
EXTRACT: note_off channel=1 note=29 velocity=0 time=0.036057031249999996
EXTRACT: note_off channel=14 note=58 velocity=0 time=0.033653229166666666
EXTRACT: note_on channel=9 note=46 velocity=63 time=0.028845625
EXTRACT: note_on channel=1 note=27 velocity=88 time=0
EXTRACT: note_on channel=6 note=58 velocity=102 time=0
EXTRACT: note_on channel=6 note=63 velocity=111 time=0
EXTRACT: note_on channel=12 note=53 velocity=76 time=0
EXTRACT: note_on channel=12 note=58 velocity=74 time=0
EXTRACT: note_on channel=12 note=63 velocity=74 time=0
EXTRACT: note_on channel=14 note=46 velocity=61 time=0
EXTRACT: note_off channel=9 note=44 velocity=0 time=0.036057031249999996
EXTRACT: note_off channel=14 note=46 velocity=0 time=0.05047984375
EXTRACT: note_off channel=12 note=53 velocity=0 time=0.026441822916666666
EXTRACT: note_on channel=14 note=58 velocity=60 time=0.0024038020833333333
EXTRACT: note_off channel=12 note=58 velocity=0 time=0.016826614583333333
EXTRACT: note_off channel=12 note=63 velocity=0 time=0.012019010416666667
EXTRACT: note_off channel=14 note=58 velocity=0 time=0.05528744791666666
EXTRACT: note_on channel=9 note=36 velocity=93 time=0.031249427083333333
EXTRACT: note_on channel=9 note=44 velocity=85 time=0
EXTRACT: note_on channel=14 note=46 velocity=62 time=0
EXTRACT: note_off channel=6 note=58 velocity=0 time=0.07211406249999999
EXTRACT: note_off channel=9 note=46 velocity=0 time=0.004807604166666667
EXTRACT: note_off channel=6 note=63 velocity=0 time=0.009615208333333333
EXTRACT: note_off channel=14 note=46 velocity=0 time=0.004807604166666667
EXTRACT: note_on channel=14 note=58 velocity=60 time=0.024038020833333333
EXTRACT: note_off channel=1 note=27 velocity=0 time=0.06490265625
EXTRACT: note_off channel=14 note=58 velocity=0 time=0.026441822916666666
EXTRACT: note_on channel=9 note=36 velocity=120 time=0.024038020833333333
EXTRACT: note_on channel=9 note=46 velocity=71 time=0
EXTRACT: note_on channel=1 note=27 velocity=95 time=0
EXTRACT: note_on channel=6 note=58 velocity=98 time=0
EXTRACT: note_on channel=6 note=63 velocity=111 time=0
EXTRACT: note_on channel=12 note=53 velocity=71 time=0
EXTRACT: note_on channel=12 note=58 velocity=78 time=0
EXTRACT: note_on channel=12 note=63 velocity=78 time=0
EXTRACT: note_on channel=14 note=46 velocity=61 time=0
EXTRACT: note_off channel=9 note=36 velocity=0 time=0.028845625
EXTRACT: note_off channel=9 note=36 velocity=64 time=0.028845625
EXTRACT: note_off channel=9 note=44 velocity=0 time=0.031249427083333333
EXTRACT: note_off channel=14 note=46 velocity=0 time=0.0024038020833333333
EXTRACT: note_off channel=9 note=39 velocity=0 time=0.0024038020833333333
EXTRACT: note_off channel=9 note=40 velocity=0 time=0.009615208333333333
EXTRACT: note_on channel=14 note=58 velocity=60 time=0.012019010416666667
EXTRACT: note_off channel=14 note=58 velocity=0 time=0.09374828125
EXTRACT: note_on channel=9 note=36 velocity=125 time=0.02163421875
EXTRACT: note_on channel=9 note=39 velocity=62 time=0
EXTRACT: note_on channel=9 note=40 velocity=66 time=0
EXTRACT: note_on channel=9 note=44 velocity=101 time=0
EXTRACT: note_on channel=14 note=46 velocity=63 time=0
EXTRACT: note_off channel=14 note=46 velocity=0 time=0.09615208333333333
EXTRACT: note_off channel=9 note=46 velocity=0 time=0.00721140625
EXTRACT: note_off channel=12 note=53 velocity=0 time=0.004807604166666667
EXTRACT: note_on channel=14 note=58 velocity=60 time=0.00721140625
EXTRACT: note_off channel=12 note=58 velocity=0 time=0.00721140625
EXTRACT: note_off channel=6 note=58 velocity=0 time=0.004807604166666667
EXTRACT: note_off channel=12 note=63 velocity=0 time=0.009615208333333333
EXTRACT: note_off channel=6 note=63 velocity=0 time=0.0024038020833333333
EXTRACT: note_off channel=2 note=86 velocity=0 time=0.05047984375
EXTRACT: note_off channel=14 note=58 velocity=0 time=0.026441822916666666
EXTRACT: note_off channel=1 note=27 velocity=0 time=0.012019010416666667
EXTRACT: note_on channel=9 note=46 velocity=70 time=0.0024038020833333333
EXTRACT: note_on channel=1 note=31 velocity=62 time=0
EXTRACT: note_on channel=2 note=79 velocity=84 time=0
EXTRACT: note_on channel=6 note=58 velocity=93 time=0
EXTRACT: note_on channel=6 note=63 velocity=111 time=0
EXTRACT: note_on channel=12 note=53 velocity=71 time=0
EXTRACT: note_on channel=12 note=58 velocity=73 time=0
EXTRACT: note_on channel=12 note=63 velocity=68 time=0
EXTRACT: note_on channel=14 note=46 velocity=63 time=0
EXTRACT: note_off channel=6 note=63 velocity=0 time=0.07932546875
EXTRACT: note_off channel=6 note=58 velocity=0 time=0
EXTRACT: note_off channel=9 note=44 velocity=0 time=0.004807604166666667
EXTRACT: note_off channel=9 note=36 velocity=0 time=0.0024038020833333333
EXTRACT: note_off channel=14 note=46 velocity=0 time=0.00721140625
EXTRACT: note_on channel=14 note=58 velocity=59 time=0.02163421875
EXTRACT: note_off channel=12 note=53 velocity=0 time=0.00721140625
EXTRACT: note_off channel=12 note=58 velocity=0 time=0.012019010416666667
EXTRACT: note_off channel=9 note=46 velocity=0 time=0.024038020833333333
EXTRACT: note_off channel=12 note=63 velocity=0 time=0.004807604166666667
EXTRACT: note_off channel=1 note=31 velocity=0 time=0.016826614583333333
EXTRACT: note_off channel=14 note=58 velocity=0 time=0.036057031249999996
EXTRACT: note_on channel=9 note=36 velocity=118 time=0.0144228125
EXTRACT: note_on channel=9 note=44 velocity=111 time=0
EXTRACT: note_on channel=1 note=34 velocity=82 time=0
EXTRACT: note_on channel=2 note=77 velocity=91 time=0
EXTRACT: note_on channel=12 note=53 velocity=74 time=0
EXTRACT: note_on channel=12 note=58 velocity=73 time=0
EXTRACT: note_on channel=12 note=62 velocity=71 time=0
EXTRACT: note_on channel=14 note=46 velocity=63 time=0
EXTRACT: note_off channel=2 note=79 velocity=0 time=0.028845625
EXTRACT: note_off channel=12 note=58 velocity=0 time=0.06490265625
EXTRACT: note_off channel=14 note=46 velocity=0 time=0
EXTRACT: note_off channel=12 note=62 velocity=0 time=0.012019010416666667
EXTRACT: note_off channel=12 note=53 velocity=0 time=0.004807604166666667
EXTRACT: note_on channel=14 note=58 velocity=60 time=0.004807604166666667
EXTRACT: note_off channel=14 note=58 velocity=0 time=0.10576729166666667
EXTRACT: note_on channel=9 note=46 velocity=75 time=0.009615208333333333
EXTRACT: note_on channel=6 note=58 velocity=111 time=0
EXTRACT: note_on channel=6 note=62 velocity=105 time=0
EXTRACT: note_on channel=14 note=46 velocity=62 time=0
EXTRACT: note_off channel=9 note=44 velocity=0 time=0.026441822916666666
EXTRACT: note_off channel=9 note=36 velocity=0 time=0.05047984375
EXTRACT: note_off channel=14 note=46 velocity=0 time=0.00721140625
EXTRACT: note_off channel=9 note=40 velocity=0 time=0.012019010416666667
EXTRACT: note_off channel=9 note=39 velocity=0 time=0.009615208333333333
EXTRACT: note_off channel=6 note=62 velocity=0 time=0.0024038020833333333
EXTRACT: note_off channel=6 note=58 velocity=0 time=0
EXTRACT: note_on channel=14 note=58 velocity=60 time=0.00721140625
EXTRACT: note_off channel=14 note=58 velocity=0 time=0.10576729166666667
EXTRACT: note_off channel=1 note=34 velocity=0 time=0.004807604166666667
EXTRACT: note_on channel=9 note=36 velocity=118 time=0.004807604166666667
EXTRACT: note_on channel=9 note=39 velocity=66 time=0
EXTRACT: note_on channel=9 note=40 velocity=74 time=0
EXTRACT: note_on channel=9 note=44 velocity=92 time=0
EXTRACT: note_on channel=1 note=29 velocity=76 time=0
EXTRACT: note_on channel=2 note=84 velocity=91 time=0
EXTRACT: note_on channel=6 note=58 velocity=88 time=0
EXTRACT: note_on channel=6 note=62 velocity=100 time=0
EXTRACT: note_on channel=12 note=53 velocity=82 time=0
EXTRACT: note_on channel=12 note=58 velocity=78 time=0
EXTRACT: note_on channel=12 note=62 velocity=73 time=0
EXTRACT: note_on channel=14 note=46 velocity=63 time=0
EXTRACT: note_off channel=2 note=77 velocity=0 time=0.0024038020833333333
EXTRACT: note_off channel=6 note=58 velocity=0 time=0.09374828125
EXTRACT: note_off channel=14 note=46 velocity=0 time=0.0024038020833333333
EXTRACT: note_off channel=6 note=62 velocity=0 time=0.00721140625
EXTRACT: note_off channel=9 note=46 velocity=0 time=0.00721140625
EXTRACT: note_on channel=14 note=58 velocity=60 time=0.0024038020833333333
EXTRACT: note_off channel=12 note=62 velocity=0 time=0.033653229166666666
EXTRACT: note_off channel=12 note=58 velocity=0 time=0
EXTRACT: note_off channel=12 note=53 velocity=0 time=0
EXTRACT: note_off channel=14 note=58 velocity=0 time=0.060095052083333336
EXTRACT: note_off channel=1 note=29 velocity=0 time=0.016826614583333333
EXTRACT: note_on channel=9 note=46 velocity=63 time=0.004807604166666667
EXTRACT: note_on channel=1 note=27 velocity=91 time=0
EXTRACT: note_on channel=2 note=82 velocity=87 time=0
EXTRACT: note_on channel=6 note=58 velocity=100 time=0
EXTRACT: note_on channel=6 note=63 velocity=115 time=0
EXTRACT: note_on channel=12 note=53 velocity=82 time=0
EXTRACT: note_on channel=12 note=58 velocity=80 time=0
EXTRACT: note_on channel=12 note=63 velocity=80 time=0
EXTRACT: note_on channel=14 note=46 velocity=62 time=0
EXTRACT: note_off channel=9 note=44 velocity=0 time=0.036057031249999996
EXTRACT: note_off channel=2 note=84 velocity=0 time=0.0144228125
EXTRACT: note_off channel=14 note=46 velocity=0 time=0.03846083333333333
EXTRACT: note_on channel=14 note=58 velocity=60 time=0.026441822916666666
EXTRACT: note_off channel=12 note=58 velocity=0 time=0.019230416666666666
EXTRACT: note_off channel=12 note=63 velocity=0 time=0.004807604166666667
EXTRACT: note_off channel=9 note=36 velocity=0 time=0.0024038020833333333
EXTRACT: note_off channel=12 note=53 velocity=0 time=0.00721140625
EXTRACT: note_off channel=14 note=58 velocity=0 time=0.062498854166666666
EXTRACT: note_on channel=9 note=36 velocity=125 time=0.019230416666666666
EXTRACT: note_on channel=9 note=44 velocity=85 time=0
EXTRACT: note_on channel=14 note=46 velocity=63 time=0
EXTRACT: note_off channel=9 note=46 velocity=0 time=0.07692166666666667
EXTRACT: note_off channel=14 note=46 velocity=0 time=0.012019010416666667
EXTRACT: note_off channel=1 note=27 velocity=0 time=0.019230416666666666
EXTRACT: note_on channel=14 note=58 velocity=59 time=0.00721140625
EXTRACT: note_off channel=6 note=58 velocity=0 time=0.02163421875
EXTRACT: note_off channel=6 note=63 velocity=0 time=0.009615208333333333
EXTRACT: note_off channel=14 note=58 velocity=0 time=0.07211406249999999
EXTRACT: note_off channel=2 note=82 velocity=0 time=0.0024038020833333333
EXTRACT: note_on channel=9 note=36 velocity=120 time=0.009615208333333333
EXTRACT: note_on channel=9 note=46 velocity=71 time=0
EXTRACT: note_on channel=1 note=27 velocity=95 time=0
EXTRACT: note_on channel=2 note=79 velocity=83 time=0
EXTRACT: note_on channel=6 note=58 velocity=98 time=0
EXTRACT: note_on channel=6 note=63 velocity=115 time=0
EXTRACT: note_on channel=12 note=53 velocity=80 time=0
EXTRACT: note_on channel=12 note=58 velocity=78 time=0
EXTRACT: note_on channel=12 note=63 velocity=80 time=0
EXTRACT: note_on channel=14 note=46 velocity=62 time=0
EXTRACT: note_off channel=9 note=36 velocity=64 time=0.05769125
EXTRACT: note_off channel=9 note=44 velocity=0 time=0.031249427083333333
EXTRACT: note_off channel=9 note=39 velocity=0 time=0.0024038020833333333
EXTRACT: note_off channel=9 note=40 velocity=0 time=0.0024038020833333333
EXTRACT: note_off channel=14 note=46 velocity=0 time=0
EXTRACT: note_off channel=9 note=36 velocity=0 time=0.019230416666666666
EXTRACT: note_on channel=14 note=58 velocity=60 time=0.0024038020833333333
EXTRACT: note_off channel=14 note=58 velocity=0 time=0.1009596875
EXTRACT: note_on channel=9 note=36 velocity=122 time=0.0144228125
EXTRACT: note_on channel=9 note=39 velocity=65 time=0
EXTRACT: note_on channel=9 note=40 velocity=63 time=0
EXTRACT: note_on channel=9 note=44 velocity=101 time=0
EXTRACT: note_on channel=14 note=46 velocity=63 time=0
EXTRACT: note_off channel=14 note=46 velocity=0 time=0.09134447916666666
EXTRACT: note_off channel=9 note=46 velocity=0 time=0.012019010416666667
EXTRACT: note_on channel=14 note=58 velocity=60 time=0.012019010416666667
EXTRACT: note_off channel=14 note=58 velocity=0 time=0.09615208333333333
EXTRACT: note_off channel=1 note=27 velocity=0 time=0.016826614583333333
EXTRACT: note_on channel=9 note=46 velocity=70 time=0.0024038020833333333
EXTRACT: note_on channel=1 note=31 velocity=85 time=0
EXTRACT: note_on channel=2 note=77 velocity=84 time=0
EXTRACT: note_on channel=14 note=46 velocity=62 time=0
EXTRACT: note_off channel=6 note=58 velocity=0 time=0.00721140625
EXTRACT: note_off channel=6 note=63 velocity=0 time=0.00721140625
EXTRACT: note_off channel=12 note=58 velocity=0 time=0
EXTRACT: note_off channel=2 note=79 velocity=0 time=0.004807604166666667
EXTRACT: note_off channel=12 note=63 velocity=0 time=0.0024038020833333333
EXTRACT: note_off channel=12 note=53 velocity=0 time=0.004807604166666667
EXTRACT: note_off channel=9 note=44 velocity=0 time=0.05769125
EXTRACT: note_off channel=14 note=46 velocity=0 time=0.009615208333333333
EXTRACT: note_on channel=14 note=58 velocity=61 time=0.02163421875
EXTRACT: note_off channel=9 note=36 velocity=0 time=0.0024038020833333333
EXTRACT: note_off channel=9 note=46 velocity=0 time=0.04086463541666667
EXTRACT: note_off channel=1 note=31 velocity=0 time=0.031249427083333333
EXTRACT: note_off channel=14 note=58 velocity=0 time=0.019230416666666666
EXTRACT: note_on channel=9 note=36 velocity=118 time=0.02163421875
EXTRACT: note_on channel=9 note=44 velocity=111 time=0
EXTRACT: note_on channel=1 note=34 velocity=104 time=0
EXTRACT: note_on channel=14 note=46 velocity=65 time=0
EXTRACT: note_off channel=14 note=46 velocity=0 time=0.086536875
EXTRACT: note_on channel=14 note=58 velocity=61 time=0.028845625
EXTRACT: note_off channel=14 note=58 velocity=0 time=0.11297869791666666
EXTRACT: note_on channel=9 note=46 velocity=75 time=0.0024038020833333333
EXTRACT: note_on channel=6 note=58 velocity=111 time=0
EXTRACT: note_on channel=6 note=62 velocity=105 time=0
EXTRACT: note_on channel=12 note=53 velocity=85 time=0
EXTRACT: note_on channel=12 note=58 velocity=80 time=0
EXTRACT: note_on channel=12 note=62 velocity=76 time=0
EXTRACT: note_on channel=14 note=46 velocity=63 time=0
EXTRACT: note_off channel=9 note=44 velocity=0 time=0.026441822916666666
EXTRACT: note_off channel=9 note=39 velocity=0 time=0.04086463541666667
EXTRACT: note_off channel=14 note=46 velocity=0 time=0.004807604166666667
EXTRACT: note_off channel=9 note=40 velocity=0 time=0.0024038020833333333
EXTRACT: note_off channel=12 note=58 velocity=0 time=0.019230416666666666
EXTRACT: note_off channel=6 note=62 velocity=0 time=0.004807604166666667
EXTRACT: note_off channel=6 note=58 velocity=0 time=0
EXTRACT: note_off channel=9 note=36 velocity=0 time=0.0024038020833333333
EXTRACT: note_off channel=12 note=62 velocity=0 time=0
EXTRACT: note_off channel=12 note=53 velocity=0 time=0.0144228125
EXTRACT: note_on channel=14 note=58 velocity=60 time=0
EXTRACT: note_off channel=1 note=34 velocity=0 time=0.07932546875
EXTRACT: note_off channel=14 note=58 velocity=0 time=0.004807604166666667
EXTRACT: note_on channel=9 note=36 velocity=118 time=0.031249427083333333
EXTRACT: note_on channel=9 note=39 velocity=62 time=0
EXTRACT: note_on channel=9 note=40 velocity=63 time=0
EXTRACT: note_on channel=9 note=44 velocity=92 time=0
EXTRACT: note_on channel=1 note=29 velocity=73 time=0
EXTRACT: note_on channel=6 note=58 velocity=88 time=0
EXTRACT: note_on channel=6 note=62 velocity=100 time=0
EXTRACT: note_on channel=14 note=46 velocity=63 time=0
EXTRACT: note_off channel=14 note=46 velocity=0 time=0.086536875
EXTRACT: note_off channel=6 note=58 velocity=0 time=0.019230416666666666
EXTRACT: note_off channel=9 note=46 velocity=0 time=0.00721140625
EXTRACT: note_on channel=14 note=58 velocity=60 time=0.0024038020833333333
EXTRACT: note_off channel=6 note=62 velocity=0 time=0.02163421875
EXTRACT: note_off channel=1 note=29 velocity=0 time=0.031249427083333333
EXTRACT: note_off channel=14 note=58 velocity=0 time=0.033653229166666666
EXTRACT: note_on channel=9 note=46 velocity=63 time=0.028845625
EXTRACT: note_on channel=1 note=27 velocity=88 time=0
EXTRACT: note_on channel=6 note=58 velocity=108 time=0
EXTRACT: note_on channel=6 note=63 velocity=115 time=0
EXTRACT: note_on channel=12 note=53 velocity=80 time=0
EXTRACT: note_on channel=12 note=58 velocity=78 time=0
EXTRACT: note_on channel=12 note=62 velocity=68 time=0
EXTRACT: note_on channel=14 note=46 velocity=61 time=0
EXTRACT: note_off channel=9 note=44 velocity=0 time=0.036057031249999996
EXTRACT: note_off channel=12 note=62 velocity=0 time=0.04567223958333333
EXTRACT: note_off channel=12 note=58 velocity=0 time=0.0024038020833333333
EXTRACT: note_off channel=14 note=46 velocity=0 time=0.0024038020833333333
EXTRACT: note_off channel=12 note=53 velocity=0 time=0.012019010416666667
EXTRACT: note_on channel=14 note=58 velocity=60 time=0.016826614583333333
EXTRACT: note_off channel=9 note=36 velocity=0 time=0.02163421875
EXTRACT: note_off channel=14 note=58 velocity=0 time=0.062498854166666666
EXTRACT: note_on channel=9 note=36 velocity=125 time=0.031249427083333333
EXTRACT: note_on channel=9 note=44 velocity=85 time=0
EXTRACT: note_on channel=12 note=53 velocity=85 time=0
EXTRACT: note_on channel=12 note=58 velocity=82 time=0
EXTRACT: note_on channel=12 note=63 velocity=82 time=0
EXTRACT: note_on channel=14 note=46 velocity=62 time=0
EXTRACT: note_off channel=9 note=46 velocity=0 time=0.07692166666666667
EXTRACT: note_off channel=14 note=46 velocity=0 time=0.0144228125
EXTRACT: note_on channel=14 note=58 velocity=60 time=0.024038020833333333
EXTRACT: note_off channel=6 note=58 velocity=0 time=0.004807604166666667
EXTRACT: note_off channel=6 note=63 velocity=0 time=0.012019010416666667
EXTRACT: note_off channel=1 note=27 velocity=0 time=0.048076041666666666
EXTRACT: note_off channel=12 note=58 velocity=0 time=0.0144228125
EXTRACT: note_off channel=14 note=58 velocity=0 time=0.012019010416666667
EXTRACT: note_off channel=12 note=63 velocity=0 time=0.004807604166666667
EXTRACT: note_on channel=9 note=36 velocity=120 time=0.019230416666666666
EXTRACT: note_on channel=9 note=46 velocity=71 time=0
EXTRACT: note_on channel=1 note=27 velocity=95 time=0
EXTRACT: note_on channel=6 note=58 velocity=100 time=0
EXTRACT: note_on channel=6 note=63 velocity=111 time=0
EXTRACT: note_on channel=14 note=46 velocity=61 time=0
EXTRACT: note_off channel=9 note=36 velocity=64 time=0.05769125
EXTRACT: note_off channel=12 note=53 velocity=0 time=0.0024038020833333333
EXTRACT: note_off channel=9 note=44 velocity=0 time=0.028845625
EXTRACT: note_off channel=9 note=40 velocity=0 time=0.0024038020833333333
EXTRACT: note_off channel=14 note=46 velocity=0 time=0
EXTRACT: note_off channel=9 note=36 velocity=0 time=0.0024038020833333333
EXTRACT: note_off channel=9 note=39 velocity=0 time=0
EXTRACT: note_on channel=14 note=58 velocity=60 time=0.02163421875
EXTRACT: note_off channel=14 note=58 velocity=0 time=0.09374828125
EXTRACT: note_on channel=9 note=36 velocity=125 time=0.02163421875
EXTRACT: note_on channel=9 note=39 velocity=66 time=0
EXTRACT: note_on channel=9 note=40 velocity=65 time=0
EXTRACT: note_on channel=9 note=44 velocity=101 time=0
EXTRACT: note_on channel=12 note=53 velocity=82 time=0
EXTRACT: note_on channel=12 note=58 velocity=88 time=0
EXTRACT: note_on channel=12 note=63 velocity=82 time=0
EXTRACT: note_on channel=14 note=46 velocity=63 time=0
EXTRACT: note_off channel=14 note=46 velocity=0 time=0.09615208333333333
EXTRACT: note_off channel=9 note=46 velocity=0 time=0.00721140625
EXTRACT: note_off channel=6 note=58 velocity=0 time=0.012019010416666667
EXTRACT: note_on channel=14 note=58 velocity=60 time=0
EXTRACT: note_off channel=6 note=63 velocity=0 time=0.00721140625
EXTRACT: note_off channel=12 note=53 velocity=0 time=0.036057031249999996
EXTRACT: note_off channel=12 note=58 velocity=0 time=0.04086463541666667
EXTRACT: note_off channel=12 note=63 velocity=0 time=0.016826614583333333
EXTRACT: note_off channel=14 note=58 velocity=0 time=0
EXTRACT: note_off channel=1 note=27 velocity=0 time=0.012019010416666667
EXTRACT: note_on channel=9 note=46 velocity=70 time=0.0024038020833333333
EXTRACT: note_on channel=1 note=31 velocity=62 time=0
EXTRACT: note_on channel=6 note=58 velocity=111 time=0
EXTRACT: note_on channel=6 note=63 velocity=115 time=0
EXTRACT: note_on channel=12 note=53 velocity=82 time=0
EXTRACT: note_on channel=12 note=58 velocity=73 time=0
EXTRACT: note_on channel=12 note=62 velocity=73 time=0
EXTRACT: note_on channel=14 note=46 velocity=63 time=0
EXTRACT: note_off channel=9 note=44 velocity=0 time=0.08413307291666666
EXTRACT: note_off channel=6 note=58 velocity=0 time=0
EXTRACT: note_off channel=12 note=62 velocity=0 time=0.0024038020833333333
EXTRACT: note_off channel=6 note=63 velocity=0 time=0.0024038020833333333
EXTRACT: note_off channel=9 note=36 velocity=0 time=0.0024038020833333333
EXTRACT: note_off channel=14 note=46 velocity=0 time=0.0024038020833333333
EXTRACT: note_off channel=12 note=58 velocity=0 time=0.016826614583333333
EXTRACT: note_off channel=12 note=53 velocity=0 time=0
EXTRACT: note_on channel=14 note=58 velocity=59 time=0.004807604166666667
EXTRACT: note_off channel=9 note=46 velocity=0 time=0.0432684375
EXTRACT: note_off channel=1 note=31 velocity=0 time=0.02163421875
EXTRACT: note_off channel=14 note=58 velocity=0 time=0.036057031249999996
EXTRACT: note_on channel=9 note=36 velocity=125 time=0.0144228125
EXTRACT: note_on channel=9 note=44 velocity=111 time=0
EXTRACT: note_on channel=1 note=34 velocity=82 time=0
EXTRACT: note_on channel=14 note=46 velocity=63 time=0
EXTRACT: note_off channel=14 note=46 velocity=0 time=0.09374828125
EXTRACT: note_on channel=14 note=58 velocity=60 time=0.02163421875
EXTRACT: note_off channel=14 note=58 velocity=0 time=0.10576729166666667
EXTRACT: note_on channel=9 note=46 velocity=75 time=0.009615208333333333
EXTRACT: note_on channel=6 note=58 velocity=111 time=0
EXTRACT: note_on channel=6 note=62 velocity=111 time=0
EXTRACT: note_on channel=12 note=53 velocity=82 time=0
EXTRACT: note_on channel=12 note=58 velocity=82 time=0
EXTRACT: note_on channel=12 note=62 velocity=73 time=0
EXTRACT: note_on channel=14 note=46 velocity=62 time=0
EXTRACT: note_off channel=9 note=44 velocity=0 time=0.026441822916666666
EXTRACT: note_off channel=9 note=39 velocity=0 time=0.012019010416666667
EXTRACT: note_off channel=9 note=40 velocity=0 time=0.00721140625
EXTRACT: note_off channel=14 note=46 velocity=0 time=0.03846083333333333
EXTRACT: note_off channel=6 note=62 velocity=0 time=0.012019010416666667
EXTRACT: note_off channel=6 note=58 velocity=0 time=0
EXTRACT: note_off channel=12 note=58 velocity=0 time=0
EXTRACT: note_off channel=12 note=62 velocity=0 time=0.0024038020833333333
EXTRACT: note_off channel=9 note=36 velocity=0 time=0.004807604166666667
EXTRACT: note_off channel=12 note=53 velocity=0 time=0.0024038020833333333
EXTRACT: note_on channel=14 note=58 velocity=60 time=0.009615208333333333
EXTRACT: note_off channel=14 note=58 velocity=0 time=0.10576729166666667
EXTRACT: note_off channel=1 note=34 velocity=0 time=0.004807604166666667
EXTRACT: note_on channel=9 note=36 velocity=122 time=0.004807604166666667
EXTRACT: note_on channel=9 note=39 velocity=65 time=0
EXTRACT: note_on channel=9 note=40 velocity=65 time=0
EXTRACT: note_on channel=9 note=44 velocity=92 time=0
EXTRACT: note_on channel=1 note=29 velocity=76 time=0
EXTRACT: note_on channel=6 note=58 velocity=100 time=0
EXTRACT: note_on channel=6 note=62 velocity=102 time=0
EXTRACT: note_on channel=14 note=46 velocity=63 time=0
EXTRACT: note_off channel=14 note=46 velocity=0 time=0.09855588541666667
EXTRACT: note_off channel=6 note=58 velocity=0 time=0.004807604166666667
EXTRACT: note_off channel=6 note=62 velocity=0 time=0.00721140625
EXTRACT: note_off channel=9 note=46 velocity=0 time=0.0024038020833333333
EXTRACT: note_on channel=14 note=58 velocity=60 time=0.0024038020833333333
EXTRACT: note_off channel=14 note=58 velocity=0 time=0.09374828125
EXTRACT: note_off channel=1 note=29 velocity=0 time=0.016826614583333333
EXTRACT: note_on channel=9 note=46 velocity=63 time=0.004807604166666667
EXTRACT: note_on channel=1 note=27 velocity=91 time=0
EXTRACT: note_on channel=6 note=58 velocity=108 time=0
EXTRACT: note_on channel=6 note=63 velocity=111 time=0
EXTRACT: note_on channel=12 note=53 velocity=88 time=0
EXTRACT: note_on channel=12 note=58 velocity=78 time=0
EXTRACT: note_on channel=12 note=63 velocity=74 time=0
EXTRACT: note_on channel=14 note=46 velocity=62 time=0
EXTRACT: note_off channel=9 note=44 velocity=0 time=0.036057031249999996
EXTRACT: note_off channel=14 note=46 velocity=0 time=0.05288364583333333
EXTRACT: note_off channel=12 note=58 velocity=0 time=0.02163421875
EXTRACT: note_on channel=14 note=58 velocity=60 time=0.004807604166666667
EXTRACT: note_off channel=9 note=36 velocity=0 time=0.0024038020833333333
EXTRACT: note_off channel=2 note=77 velocity=0 time=0.0024038020833333333
EXTRACT: note_off channel=12 note=63 velocity=0 time=0.0024038020833333333
EXTRACT: note_off channel=12 note=53 velocity=0 time=0
EXTRACT: note_off channel=14 note=58 velocity=0 time=0.08894067708333334
EXTRACT: note_on channel=9 note=36 velocity=125 time=0.019230416666666666
EXTRACT: note_on channel=9 note=44 velocity=85 time=0
EXTRACT: note_on channel=14 note=46 velocity=63 time=0
EXTRACT: note_off channel=6 note=58 velocity=0 time=0.05528744791666666
EXTRACT: note_off channel=6 note=63 velocity=0 time=0.009615208333333333
EXTRACT: note_off channel=9 note=46 velocity=0 time=0.012019010416666667
EXTRACT: note_off channel=14 note=46 velocity=0 time=0.012019010416666667
EXTRACT: note_off channel=1 note=27 velocity=0 time=0.019230416666666666
EXTRACT: note_on channel=14 note=58 velocity=59 time=0.00721140625
EXTRACT: note_off channel=14 note=58 velocity=0 time=0.10336348958333333
EXTRACT: note_on channel=9 note=36 velocity=120 time=0.012019010416666667
EXTRACT: note_on channel=9 note=46 velocity=71 time=0
EXTRACT: note_on channel=1 note=27 velocity=95 time=0
EXTRACT: note_on channel=6 note=58 velocity=102 time=0
EXTRACT: note_on channel=6 note=63 velocity=115 time=0
EXTRACT: note_on channel=12 note=53 velocity=85 time=0
EXTRACT: note_on channel=12 note=58 velocity=88 time=0
EXTRACT: note_on channel=12 note=63 velocity=88 time=0
EXTRACT: note_on channel=14 note=46 velocity=62 time=0
EXTRACT: note_off channel=9 note=36 velocity=64 time=0.05769125
EXTRACT: note_off channel=9 note=40 velocity=0 time=0.012019010416666667
EXTRACT: note_off channel=9 note=39 velocity=0 time=0
EXTRACT: note_off channel=9 note=44 velocity=0 time=0.019230416666666666
EXTRACT: note_off channel=14 note=46 velocity=0 time=0.004807604166666667
EXTRACT: note_off channel=9 note=36 velocity=0 time=0.00721140625
EXTRACT: note_on channel=14 note=58 velocity=60 time=0.0144228125
EXTRACT: note_off channel=14 note=58 velocity=0 time=0.1009596875
EXTRACT: note_on channel=9 note=36 velocity=125 time=0.0144228125
EXTRACT: note_on channel=9 note=39 velocity=65 time=0
EXTRACT: note_on channel=9 note=40 velocity=64 time=0
EXTRACT: note_on channel=9 note=44 velocity=101 time=0
EXTRACT: note_on channel=14 note=46 velocity=63 time=0
EXTRACT: note_off channel=14 note=46 velocity=0 time=0.09134447916666666
EXTRACT: note_off channel=9 note=46 velocity=0 time=0.012019010416666667
EXTRACT: note_on channel=14 note=58 velocity=60 time=0.012019010416666667
EXTRACT: note_off channel=12 note=58 velocity=0 time=0.0144228125
EXTRACT: note_off channel=12 note=63 velocity=0 time=0.009615208333333333
EXTRACT: note_off channel=12 note=53 velocity=0 time=0
EXTRACT: note_off channel=14 note=58 velocity=0 time=0.07211406249999999
EXTRACT: note_off channel=1 note=27 velocity=0 time=0.016826614583333333
EXTRACT: note_on channel=9 note=46 velocity=70 time=0.0024038020833333333
EXTRACT: note_on channel=1 note=31 velocity=85 time=0
EXTRACT: note_on channel=12 note=53 velocity=78 time=0
EXTRACT: note_on channel=12 note=58 velocity=80 time=0
EXTRACT: note_on channel=12 note=63 velocity=82 time=0
EXTRACT: note_on channel=14 note=46 velocity=62 time=0
EXTRACT: note_off channel=6 note=58 velocity=0 time=0.009615208333333333
EXTRACT: note_off channel=6 note=63 velocity=0 time=0.00721140625
EXTRACT: note_off channel=9 note=44 velocity=0 time=0.06730645833333333
EXTRACT: note_off channel=12 note=58 velocity=0 time=0.004807604166666667
EXTRACT: note_off channel=14 note=46 velocity=0 time=0.004807604166666667
EXTRACT: note_off channel=12 note=63 velocity=0 time=0.012019010416666667
EXTRACT: note_off channel=12 note=53 velocity=0 time=0
EXTRACT: note_off channel=9 note=36 velocity=0 time=0.0024038020833333333
EXTRACT: note_on channel=14 note=58 velocity=61 time=0.00721140625
EXTRACT: note_off channel=9 note=46 velocity=0 time=0.0432684375
EXTRACT: note_off channel=1 note=31 velocity=0 time=0.031249427083333333
EXTRACT: note_off channel=14 note=58 velocity=0 time=0.019230416666666666
EXTRACT: note_on channel=9 note=36 velocity=122 time=0.02163421875
EXTRACT: note_on channel=9 note=44 velocity=111 time=0
EXTRACT: note_on channel=1 note=34 velocity=104 time=0
EXTRACT: note_on channel=2 note=86 velocity=83 time=0
EXTRACT: note_on channel=12 note=53 velocity=88 time=0
EXTRACT: note_on channel=12 note=58 velocity=78 time=0
EXTRACT: note_on channel=12 note=62 velocity=76 time=0
EXTRACT: note_on channel=14 note=46 velocity=65 time=0
EXTRACT: note_off channel=14 note=46 velocity=0 time=0.086536875
EXTRACT: note_off channel=12 note=58 velocity=0 time=0.009615208333333333
EXTRACT: note_off channel=12 note=62 velocity=0 time=0.016826614583333333
EXTRACT: note_on channel=14 note=58 velocity=61 time=0.0024038020833333333
EXTRACT: note_off channel=12 note=53 velocity=0 time=0.00721140625
EXTRACT: note_off channel=14 note=58 velocity=0 time=0.10576729166666667
EXTRACT: note_on channel=9 note=46 velocity=75 time=0.0024038020833333333
EXTRACT: note_on channel=6 note=58 velocity=124 time=0
EXTRACT: note_on channel=6 note=62 velocity=108 time=0
EXTRACT: note_on channel=14 note=46 velocity=63 time=0
EXTRACT: note_off channel=9 note=44 velocity=0 time=0.026441822916666666
EXTRACT: note_off channel=9 note=39 velocity=0 time=0.02163421875
EXTRACT: note_off channel=9 note=40 velocity=0 time=0.004807604166666667
EXTRACT: note_off channel=14 note=46 velocity=0 time=0.019230416666666666
EXTRACT: note_off channel=6 note=62 velocity=0 time=0.004807604166666667
EXTRACT: note_off channel=6 note=58 velocity=0 time=0
EXTRACT: note_off channel=9 note=36 velocity=0 time=0.009615208333333333
EXTRACT: note_on channel=14 note=58 velocity=60 time=0.028845625
EXTRACT: note_off channel=1 note=34 velocity=0 time=0.07932546875
EXTRACT: note_off channel=14 note=58 velocity=0 time=0.004807604166666667
EXTRACT: note_on channel=9 note=36 velocity=118 time=0.031249427083333333
EXTRACT: note_on channel=9 note=39 velocity=71 time=0
EXTRACT: note_on channel=9 note=40 velocity=72 time=0
EXTRACT: note_on channel=9 note=44 velocity=92 time=0
EXTRACT: note_on channel=1 note=29 velocity=73 time=0
EXTRACT: note_on channel=6 note=58 velocity=98 time=0
EXTRACT: note_on channel=6 note=62 velocity=102 time=0
EXTRACT: note_on channel=12 note=53 velocity=80 time=0
EXTRACT: note_on channel=12 note=58 velocity=73 time=0
EXTRACT: note_on channel=12 note=62 velocity=73 time=0
EXTRACT: note_on channel=14 note=46 velocity=63 time=0
EXTRACT: note_off channel=14 note=46 velocity=0 time=0.086536875
EXTRACT: note_off channel=6 note=58 velocity=0 time=0.00721140625
EXTRACT: note_off channel=12 note=62 velocity=0 time=0.009615208333333333
EXTRACT: note_off channel=9 note=46 velocity=0 time=0.009615208333333333
EXTRACT: note_off channel=12 note=58 velocity=0 time=0
EXTRACT: note_on channel=14 note=58 velocity=60 time=0.0024038020833333333
EXTRACT: note_off channel=12 note=53 velocity=0 time=0.00721140625
EXTRACT: note_off channel=6 note=62 velocity=0 time=0.009615208333333333
EXTRACT: note_off channel=1 note=29 velocity=0 time=0.036057031249999996
EXTRACT: note_off channel=14 note=58 velocity=0 time=0.033653229166666666
EXTRACT: note_on channel=9 note=46 velocity=63 time=0.028845625
EXTRACT: note_on channel=1 note=27 velocity=88 time=0
EXTRACT: note_on channel=2 note=87 velocity=86 time=0
EXTRACT: note_on channel=6 note=58 velocity=102 time=0
EXTRACT: note_on channel=6 note=63 velocity=111 time=0
EXTRACT: note_on channel=12 note=53 velocity=76 time=0
EXTRACT: note_on channel=12 note=58 velocity=74 time=0
EXTRACT: note_on channel=12 note=63 velocity=74 time=0
EXTRACT: note_on channel=14 note=46 velocity=61 time=0
EXTRACT: note_off channel=9 note=44 velocity=0 time=0.036057031249999996
EXTRACT: note_off channel=2 note=86 velocity=0 time=0.012019010416666667
EXTRACT: note_off channel=14 note=46 velocity=0 time=0.03846083333333333
EXTRACT: note_off channel=9 note=36 velocity=0 time=0.019230416666666666
EXTRACT: note_off channel=12 note=53 velocity=0 time=0.00721140625
EXTRACT: note_on channel=14 note=58 velocity=60 time=0.0024038020833333333
EXTRACT: note_off channel=12 note=58 velocity=0 time=0.016826614583333333
EXTRACT: note_off channel=12 note=63 velocity=0 time=0.012019010416666667
EXTRACT: note_off channel=14 note=58 velocity=0 time=0.05528744791666666
EXTRACT: note_on channel=9 note=36 velocity=125 time=0.031249427083333333
EXTRACT: note_on channel=9 note=44 velocity=85 time=0
EXTRACT: note_on channel=14 note=46 velocity=62 time=0
EXTRACT: note_off channel=6 note=58 velocity=0 time=0.07211406249999999
EXTRACT: note_off channel=9 note=46 velocity=0 time=0.004807604166666667
EXTRACT: note_off channel=6 note=63 velocity=0 time=0.009615208333333333
EXTRACT: note_off channel=14 note=46 velocity=0 time=0.004807604166666667
EXTRACT: note_on channel=14 note=58 velocity=60 time=0.024038020833333333
EXTRACT: note_off channel=1 note=27 velocity=0 time=0.06490265625
EXTRACT: note_off channel=14 note=58 velocity=0 time=0.026441822916666666
EXTRACT: note_on channel=9 note=36 velocity=120 time=0.024038020833333333
EXTRACT: note_on channel=9 note=46 velocity=71 time=0
EXTRACT: note_on channel=1 note=27 velocity=95 time=0
EXTRACT: note_on channel=6 note=58 velocity=98 time=0
EXTRACT: note_on channel=6 note=63 velocity=111 time=0
EXTRACT: note_on channel=12 note=53 velocity=71 time=0
EXTRACT: note_on channel=12 note=58 velocity=78 time=0
EXTRACT: note_on channel=12 note=63 velocity=78 time=0
EXTRACT: note_on channel=14 note=46 velocity=61 time=0
EXTRACT: note_off channel=9 note=39 velocity=0 time=0.0144228125
EXTRACT: note_off channel=9 note=40 velocity=0 time=0.0024038020833333333
EXTRACT: note_off channel=9 note=36 velocity=64 time=0.04086463541666667
EXTRACT: note_off channel=9 note=36 velocity=0 time=0.028845625
EXTRACT: note_off channel=9 note=44 velocity=0 time=0.0024038020833333333
EXTRACT: note_off channel=14 note=46 velocity=0 time=0.0024038020833333333
EXTRACT: note_on channel=14 note=58 velocity=60 time=0.024038020833333333
EXTRACT: note_off channel=14 note=58 velocity=0 time=0.09374828125
EXTRACT: note_on channel=9 note=36 velocity=122 time=0.02163421875
EXTRACT: note_on channel=9 note=39 velocity=62 time=0
EXTRACT: note_on channel=9 note=40 velocity=68 time=0
EXTRACT: note_on channel=9 note=44 velocity=101 time=0
EXTRACT: note_on channel=14 note=46 velocity=63 time=0
EXTRACT: note_off channel=14 note=46 velocity=0 time=0.09615208333333333
EXTRACT: note_off channel=9 note=46 velocity=0 time=0.00721140625
EXTRACT: note_off channel=12 note=53 velocity=0 time=0.004807604166666667
EXTRACT: note_on channel=14 note=58 velocity=60 time=0.00721140625
EXTRACT: note_off channel=12 note=58 velocity=0 time=0.00721140625
EXTRACT: note_off channel=6 note=58 velocity=0 time=0.004807604166666667
EXTRACT: note_off channel=12 note=63 velocity=0 time=0.009615208333333333
EXTRACT: note_off channel=6 note=63 velocity=0 time=0.0024038020833333333
EXTRACT: note_off channel=14 note=58 velocity=0 time=0.07692166666666667
EXTRACT: note_off channel=1 note=27 velocity=0 time=0.012019010416666667
EXTRACT: note_on channel=9 note=46 velocity=70 time=0.0024038020833333333
EXTRACT: note_on channel=1 note=31 velocity=62 time=0
EXTRACT: note_on channel=6 note=58 velocity=93 time=0
EXTRACT: note_on channel=6 note=63 velocity=111 time=0
EXTRACT: note_on channel=12 note=53 velocity=71 time=0
EXTRACT: note_on channel=12 note=58 velocity=73 time=0
EXTRACT: note_on channel=12 note=63 velocity=68 time=0
EXTRACT: note_on channel=14 note=46 velocity=63 time=0
EXTRACT: note_off channel=6 note=63 velocity=0 time=0.07932546875
EXTRACT: note_off channel=6 note=58 velocity=0 time=0
EXTRACT: note_off channel=9 note=44 velocity=0 time=0.004807604166666667
EXTRACT: note_off channel=14 note=46 velocity=0 time=0.009615208333333333
EXTRACT: note_off channel=9 note=36 velocity=0 time=0.00721140625
EXTRACT: note_on channel=14 note=58 velocity=59 time=0.0144228125
EXTRACT: note_off channel=12 note=53 velocity=0 time=0.00721140625
EXTRACT: note_off channel=12 note=58 velocity=0 time=0.012019010416666667
EXTRACT: note_off channel=9 note=46 velocity=0 time=0.024038020833333333
EXTRACT: note_off channel=12 note=63 velocity=0 time=0.004807604166666667
EXTRACT: note_off channel=1 note=31 velocity=0 time=0.016826614583333333
EXTRACT: note_off channel=14 note=58 velocity=0 time=0.036057031249999996
EXTRACT: note_on channel=9 note=36 velocity=122 time=0.0144228125
EXTRACT: note_on channel=9 note=44 velocity=111 time=0
EXTRACT: note_on channel=1 note=34 velocity=82 time=0
EXTRACT: note_on channel=2 note=89 velocity=80 time=0
EXTRACT: note_on channel=12 note=53 velocity=74 time=0
EXTRACT: note_on channel=12 note=58 velocity=73 time=0
EXTRACT: note_on channel=12 note=62 velocity=71 time=0
EXTRACT: note_on channel=14 note=46 velocity=63 time=0
EXTRACT: note_off channel=2 note=87 velocity=0 time=0.0432684375
EXTRACT: note_off channel=12 note=58 velocity=0 time=0.05047984375
EXTRACT: note_off channel=14 note=46 velocity=0 time=0
EXTRACT: note_off channel=12 note=62 velocity=0 time=0.012019010416666667
EXTRACT: note_off channel=12 note=53 velocity=0 time=0.004807604166666667
EXTRACT: note_on channel=14 note=58 velocity=60 time=0.004807604166666667
EXTRACT: note_off channel=14 note=58 velocity=0 time=0.10576729166666667
EXTRACT: note_on channel=9 note=46 velocity=75 time=0.009615208333333333
EXTRACT: note_on channel=6 note=58 velocity=111 time=0
EXTRACT: note_on channel=6 note=62 velocity=105 time=0
EXTRACT: note_on channel=14 note=46 velocity=62 time=0
EXTRACT: note_off channel=9 note=44 velocity=0 time=0.026441822916666666
EXTRACT: note_off channel=14 note=46 velocity=0 time=0.05769125
EXTRACT: note_off channel=9 note=40 velocity=0 time=0.0024038020833333333
EXTRACT: note_off channel=9 note=39 velocity=0 time=0.00721140625
EXTRACT: note_off channel=9 note=36 velocity=0 time=0.00721140625
EXTRACT: note_off channel=6 note=62 velocity=0 time=0.00721140625
EXTRACT: note_off channel=6 note=58 velocity=0 time=0
EXTRACT: note_on channel=14 note=58 velocity=60 time=0.00721140625
EXTRACT: note_off channel=14 note=58 velocity=0 time=0.10576729166666667
EXTRACT: note_off channel=1 note=34 velocity=0 time=0.004807604166666667
EXTRACT: note_on channel=9 note=36 velocity=122 time=0.004807604166666667
EXTRACT: note_on channel=9 note=39 velocity=66 time=0
EXTRACT: note_on channel=9 note=40 velocity=66 time=0
EXTRACT: note_on channel=9 note=44 velocity=92 time=0
EXTRACT: note_on channel=1 note=29 velocity=76 time=0
EXTRACT: note_on channel=6 note=58 velocity=88 time=0
EXTRACT: note_on channel=6 note=62 velocity=100 time=0
EXTRACT: note_on channel=12 note=53 velocity=82 time=0
EXTRACT: note_on channel=12 note=58 velocity=78 time=0
EXTRACT: note_on channel=12 note=62 velocity=73 time=0
EXTRACT: note_on channel=14 note=46 velocity=63 time=0
EXTRACT: note_off channel=6 note=58 velocity=0 time=0.09615208333333333
EXTRACT: note_off channel=14 note=46 velocity=0 time=0.0024038020833333333
EXTRACT: note_off channel=6 note=62 velocity=0 time=0.00721140625
EXTRACT: note_off channel=9 note=46 velocity=0 time=0.00721140625
EXTRACT: note_on channel=14 note=58 velocity=60 time=0.0024038020833333333
EXTRACT: note_off channel=12 note=62 velocity=0 time=0.033653229166666666
EXTRACT: note_off channel=12 note=58 velocity=0 time=0
EXTRACT: note_off channel=12 note=53 velocity=0 time=0
EXTRACT: note_off channel=14 note=58 velocity=0 time=0.060095052083333336
EXTRACT: note_off channel=1 note=29 velocity=0 time=0.016826614583333333
EXTRACT: note_on channel=9 note=46 velocity=63 time=0.004807604166666667
EXTRACT: note_on channel=1 note=27 velocity=91 time=0
EXTRACT: note_on channel=6 note=58 velocity=100 time=0
EXTRACT: note_on channel=6 note=63 velocity=115 time=0
EXTRACT: note_on channel=12 note=53 velocity=82 time=0
EXTRACT: note_on channel=12 note=58 velocity=80 time=0
EXTRACT: note_on channel=12 note=63 velocity=80 time=0
EXTRACT: note_on channel=14 note=46 velocity=62 time=0
EXTRACT: note_off channel=9 note=44 velocity=0 time=0.036057031249999996
EXTRACT: note_off channel=14 note=46 velocity=0 time=0.05288364583333333
EXTRACT: note_on channel=14 note=58 velocity=60 time=0.026441822916666666
EXTRACT: note_off channel=12 note=58 velocity=0 time=0.019230416666666666
EXTRACT: note_off channel=12 note=63 velocity=0 time=0.004807604166666667
EXTRACT: note_off channel=12 note=53 velocity=0 time=0.009615208333333333
EXTRACT: note_off channel=9 note=36 velocity=0 time=0.004807604166666667
EXTRACT: note_off channel=14 note=58 velocity=0 time=0.05769125
EXTRACT: note_on channel=9 note=36 velocity=118 time=0.019230416666666666
EXTRACT: note_on channel=9 note=44 velocity=85 time=0
EXTRACT: note_on channel=14 note=46 velocity=63 time=0
EXTRACT: note_off channel=9 note=46 velocity=0 time=0.07692166666666667
EXTRACT: note_off channel=14 note=46 velocity=0 time=0.012019010416666667
EXTRACT: note_off channel=1 note=27 velocity=0 time=0.019230416666666666
EXTRACT: note_on channel=14 note=58 velocity=59 time=0.00721140625
EXTRACT: note_off channel=6 note=58 velocity=0 time=0.02163421875
EXTRACT: note_off channel=6 note=63 velocity=0 time=0.009615208333333333
EXTRACT: note_off channel=2 note=89 velocity=0 time=0.062498854166666666
EXTRACT: note_off channel=14 note=58 velocity=0 time=0.009615208333333333
EXTRACT: note_on channel=9 note=36 velocity=120 time=0.012019010416666667
EXTRACT: note_on channel=9 note=46 velocity=71 time=0
EXTRACT: note_on channel=1 note=27 velocity=95 time=0
EXTRACT: note_on channel=2 note=87 velocity=87 time=0
EXTRACT: note_on channel=6 note=58 velocity=98 time=0
EXTRACT: note_on channel=6 note=63 velocity=115 time=0
EXTRACT: note_on channel=12 note=53 velocity=80 time=0
EXTRACT: note_on channel=12 note=58 velocity=78 time=0
EXTRACT: note_on channel=12 note=63 velocity=80 time=0
EXTRACT: note_on channel=14 note=46 velocity=62 time=0
EXTRACT: note_off channel=9 note=36 velocity=64 time=0.05769125
EXTRACT: note_off channel=9 note=40 velocity=0 time=0.028845625
EXTRACT: note_off channel=9 note=39 velocity=0 time=0
EXTRACT: note_off channel=9 note=44 velocity=0 time=0.0024038020833333333
EXTRACT: note_off channel=14 note=46 velocity=0 time=0.004807604166666667
EXTRACT: note_off channel=9 note=36 velocity=0 time=0.0024038020833333333
EXTRACT: note_on channel=14 note=58 velocity=60 time=0.019230416666666666
EXTRACT: note_off channel=14 note=58 velocity=0 time=0.1009596875
EXTRACT: note_on channel=9 note=36 velocity=122 time=0.0144228125
EXTRACT: note_on channel=9 note=39 velocity=71 time=0
EXTRACT: note_on channel=9 note=40 velocity=72 time=0
EXTRACT: note_on channel=9 note=44 velocity=101 time=0
EXTRACT: note_on channel=2 note=86 velocity=78 time=0
EXTRACT: note_on channel=14 note=46 velocity=63 time=0
EXTRACT: note_off channel=2 note=87 velocity=0 time=0.031249427083333333
EXTRACT: note_off channel=14 note=46 velocity=0 time=0.060095052083333336
EXTRACT: note_off channel=9 note=46 velocity=0 time=0.012019010416666667
EXTRACT: note_on channel=14 note=58 velocity=60 time=0.012019010416666667
EXTRACT: note_off channel=14 note=58 velocity=0 time=0.09615208333333333
EXTRACT: note_off channel=1 note=27 velocity=0 time=0.016826614583333333
EXTRACT: note_on channel=9 note=46 velocity=70 time=0.0024038020833333333
EXTRACT: note_on channel=1 note=31 velocity=85 time=0
EXTRACT: note_on channel=2 note=84 velocity=86 time=0
EXTRACT: note_on channel=14 note=46 velocity=62 time=0
EXTRACT: note_off channel=6 note=58 velocity=0 time=0.00721140625
EXTRACT: note_off channel=2 note=86 velocity=0 time=0.004807604166666667
EXTRACT: note_off channel=6 note=63 velocity=0 time=0.0024038020833333333
EXTRACT: note_off channel=12 note=58 velocity=0 time=0
EXTRACT: note_off channel=12 note=63 velocity=0 time=0.00721140625
EXTRACT: note_off channel=12 note=53 velocity=0 time=0.004807604166666667
EXTRACT: note_off channel=9 note=44 velocity=0 time=0.05769125
EXTRACT: note_off channel=14 note=46 velocity=0 time=0.009615208333333333
EXTRACT: note_off channel=9 note=36 velocity=0 time=0.012019010416666667
EXTRACT: note_on channel=14 note=58 velocity=61 time=0.009615208333333333
EXTRACT: note_off channel=9 note=46 velocity=0 time=0.0432684375
EXTRACT: note_off channel=1 note=31 velocity=0 time=0.031249427083333333
EXTRACT: note_off channel=14 note=58 velocity=0 time=0.019230416666666666
EXTRACT: note_on channel=9 note=36 velocity=122 time=0.02163421875
EXTRACT: note_on channel=9 note=44 velocity=111 time=0
EXTRACT: note_on channel=1 note=34 velocity=104 time=0
EXTRACT: note_on channel=2 note=82 velocity=93 time=0
EXTRACT: note_on channel=13 note=70 velocity=124 time=0
EXTRACT: note_on channel=14 note=46 velocity=65 time=0
EXTRACT: note_off channel=2 note=84 velocity=0 time=0.024038020833333333
EXTRACT: note_off channel=14 note=46 velocity=0 time=0.062498854166666666
EXTRACT: note_on channel=14 note=58 velocity=61 time=0.028845625
EXTRACT: note_off channel=14 note=58 velocity=0 time=0.11297869791666666
EXTRACT: note_on channel=9 note=46 velocity=75 time=0.0024038020833333333
EXTRACT: note_on channel=6 note=58 velocity=111 time=0
EXTRACT: note_on channel=6 note=62 velocity=105 time=0
EXTRACT: note_on channel=12 note=53 velocity=85 time=0
EXTRACT: note_on channel=12 note=58 velocity=80 time=0
EXTRACT: note_on channel=12 note=62 velocity=76 time=0
EXTRACT: note_on channel=14 note=46 velocity=63 time=0
EXTRACT: note_off channel=9 note=44 velocity=0 time=0.026441822916666666
EXTRACT: note_off channel=9 note=40 velocity=0 time=0.026441822916666666
EXTRACT: note_off channel=9 note=39 velocity=0 time=0
EXTRACT: note_off channel=14 note=46 velocity=0 time=0.019230416666666666
EXTRACT: note_off channel=12 note=58 velocity=0 time=0.02163421875
EXTRACT: note_off channel=6 note=62 velocity=0 time=0.004807604166666667
EXTRACT: note_off channel=6 note=58 velocity=0 time=0
EXTRACT: note_off channel=12 note=62 velocity=0 time=0.0024038020833333333
EXTRACT: note_off channel=9 note=36 velocity=0 time=0.0024038020833333333
EXTRACT: note_off channel=12 note=53 velocity=0 time=0.012019010416666667
EXTRACT: note_on channel=14 note=58 velocity=60 time=0
EXTRACT: note_off channel=1 note=34 velocity=0 time=0.07932546875
EXTRACT: note_off channel=14 note=58 velocity=0 time=0.004807604166666667
EXTRACT: note_on channel=9 note=36 velocity=122 time=0.031249427083333333
EXTRACT: note_on channel=9 note=39 velocity=76 time=0
EXTRACT: note_on channel=9 note=40 velocity=74 time=0
EXTRACT: note_on channel=9 note=44 velocity=92 time=0
EXTRACT: note_on channel=1 note=29 velocity=73 time=0
EXTRACT: note_on channel=6 note=58 velocity=88 time=0
EXTRACT: note_on channel=6 note=62 velocity=100 time=0
EXTRACT: note_on channel=14 note=46 velocity=63 time=0
EXTRACT: note_off channel=14 note=46 velocity=0 time=0.086536875
EXTRACT: note_off channel=6 note=58 velocity=0 time=0.019230416666666666
EXTRACT: note_off channel=9 note=46 velocity=0 time=0.00721140625
EXTRACT: note_on channel=14 note=58 velocity=60 time=0.0024038020833333333
EXTRACT: note_off channel=6 note=62 velocity=0 time=0.02163421875
EXTRACT: note_off channel=1 note=29 velocity=0 time=0.031249427083333333
EXTRACT: note_off channel=14 note=58 velocity=0 time=0.033653229166666666
EXTRACT: note_on channel=9 note=46 velocity=63 time=0.028845625
EXTRACT: note_on channel=1 note=27 velocity=88 time=0
EXTRACT: note_on channel=6 note=58 velocity=108 time=0
EXTRACT: note_on channel=6 note=63 velocity=115 time=0
EXTRACT: note_on channel=12 note=53 velocity=80 time=0
EXTRACT: note_on channel=12 note=58 velocity=78 time=0
EXTRACT: note_on channel=12 note=62 velocity=68 time=0
EXTRACT: note_on channel=14 note=46 velocity=61 time=0
EXTRACT: note_off channel=9 note=44 velocity=0 time=0.036057031249999996
EXTRACT: note_off channel=12 note=62 velocity=0 time=0.04567223958333333
EXTRACT: note_off channel=12 note=58 velocity=0 time=0.0024038020833333333
EXTRACT: note_off channel=14 note=46 velocity=0 time=0.0024038020833333333
EXTRACT: note_off channel=9 note=36 velocity=0 time=0.004807604166666667
EXTRACT: note_off channel=12 note=53 velocity=0 time=0.00721140625
EXTRACT: note_on channel=14 note=58 velocity=60 time=0.016826614583333333
EXTRACT: note_off channel=14 note=58 velocity=0 time=0.08413307291666666
EXTRACT: note_on channel=9 note=36 velocity=122 time=0.031249427083333333
EXTRACT: note_on channel=9 note=44 velocity=85 time=0
EXTRACT: note_on channel=12 note=53 velocity=85 time=0
EXTRACT: note_on channel=12 note=58 velocity=82 time=0
EXTRACT: note_on channel=12 note=63 velocity=82 time=0
EXTRACT: note_on channel=14 note=46 velocity=62 time=0
EXTRACT: note_off channel=2 note=82 velocity=0 time=0.05769125
EXTRACT: note_off channel=9 note=46 velocity=0 time=0.019230416666666666
EXTRACT: note_off channel=14 note=46 velocity=0 time=0.0144228125
EXTRACT: note_on channel=14 note=58 velocity=60 time=0.024038020833333333
EXTRACT: note_off channel=6 note=58 velocity=0 time=0.004807604166666667
EXTRACT: note_off channel=6 note=63 velocity=0 time=0.012019010416666667
EXTRACT: note_off channel=1 note=27 velocity=0 time=0.048076041666666666
EXTRACT: note_off channel=12 note=58 velocity=0 time=0.0144228125
EXTRACT: note_off channel=14 note=58 velocity=0 time=0.012019010416666667
EXTRACT: note_off channel=12 note=63 velocity=0 time=0.004807604166666667
EXTRACT: note_on channel=9 note=36 velocity=120 time=0.019230416666666666
EXTRACT: note_on channel=9 note=46 velocity=71 time=0
EXTRACT: note_on channel=1 note=27 velocity=95 time=0
EXTRACT: note_on channel=6 note=58 velocity=100 time=0
EXTRACT: note_on channel=6 note=63 velocity=111 time=0
EXTRACT: note_on channel=14 note=46 velocity=61 time=0
EXTRACT: note_off channel=9 note=36 velocity=64 time=0.05769125
EXTRACT: note_off channel=12 note=53 velocity=0 time=0.0024038020833333333
EXTRACT: note_off channel=9 note=44 velocity=0 time=0.028845625
EXTRACT: note_off channel=9 note=39 velocity=0 time=0.0024038020833333333
EXTRACT: note_off channel=14 note=46 velocity=0 time=0
EXTRACT: note_off channel=9 note=40 velocity=0 time=0.0024038020833333333
EXTRACT: note_on channel=14 note=58 velocity=60 time=0.02163421875
EXTRACT: note_off channel=9 note=36 velocity=0 time=0.009615208333333333
EXTRACT: note_off channel=14 note=58 velocity=0 time=0.08413307291666666
EXTRACT: note_on channel=9 note=36 velocity=122 time=0.02163421875
EXTRACT: note_on channel=9 note=39 velocity=72 time=0
EXTRACT: note_on channel=9 note=40 velocity=74 time=0
EXTRACT: note_on channel=9 note=44 velocity=101 time=0
EXTRACT: note_on channel=12 note=53 velocity=82 time=0
EXTRACT: note_on channel=12 note=58 velocity=88 time=0
EXTRACT: note_on channel=12 note=63 velocity=82 time=0
EXTRACT: note_on channel=14 note=46 velocity=63 time=0
EXTRACT: note_off channel=14 note=46 velocity=0 time=0.09615208333333333
EXTRACT: note_off channel=9 note=46 velocity=0 time=0.00721140625
EXTRACT: note_off channel=6 note=58 velocity=0 time=0.012019010416666667
EXTRACT: note_on channel=14 note=58 velocity=60 time=0
EXTRACT: note_off channel=6 note=63 velocity=0 time=0.00721140625
EXTRACT: note_off channel=12 note=53 velocity=0 time=0.036057031249999996
EXTRACT: note_off channel=12 note=58 velocity=0 time=0.04086463541666667
EXTRACT: note_off channel=12 note=63 velocity=0 time=0.016826614583333333
EXTRACT: note_off channel=14 note=58 velocity=0 time=0
EXTRACT: note_off channel=1 note=27 velocity=0 time=0.012019010416666667
EXTRACT: note_on channel=9 note=46 velocity=70 time=0.0024038020833333333
EXTRACT: note_on channel=1 note=31 velocity=62 time=0
EXTRACT: note_on channel=2 note=92 velocity=95 time=0
EXTRACT: note_on channel=6 note=58 velocity=111 time=0
EXTRACT: note_on channel=6 note=63 velocity=115 time=0
EXTRACT: note_on channel=12 note=53 velocity=82 time=0
EXTRACT: note_on channel=12 note=58 velocity=73 time=0
EXTRACT: note_on channel=12 note=62 velocity=73 time=0
EXTRACT: note_on channel=14 note=46 velocity=63 time=0
EXTRACT: note_off channel=9 note=36 velocity=0 time=0.07692166666666667
EXTRACT: note_off channel=9 note=44 velocity=0 time=0.00721140625
EXTRACT: note_off channel=6 note=58 velocity=0 time=0
EXTRACT: note_off channel=12 note=62 velocity=0 time=0.0024038020833333333
EXTRACT: note_off channel=6 note=63 velocity=0 time=0.0024038020833333333
EXTRACT: note_off channel=14 note=46 velocity=0 time=0.004807604166666667
EXTRACT: note_off channel=12 note=58 velocity=0 time=0.016826614583333333
EXTRACT: note_off channel=12 note=53 velocity=0 time=0
EXTRACT: note_on channel=14 note=58 velocity=59 time=0.004807604166666667
EXTRACT: note_off channel=9 note=46 velocity=0 time=0.0432684375
EXTRACT: note_off channel=1 note=31 velocity=0 time=0.02163421875
EXTRACT: note_off channel=14 note=58 velocity=0 time=0.036057031249999996
EXTRACT: note_on channel=9 note=36 velocity=125 time=0.0144228125
EXTRACT: note_on channel=9 note=44 velocity=111 time=0
EXTRACT: note_on channel=1 note=34 velocity=82 time=0
EXTRACT: note_on channel=14 note=46 velocity=63 time=0
EXTRACT: pitchwheel channel=2 pitch=-1280 time=0.05528744791666666
EXTRACT: pitchwheel channel=2 pitch=-2176 time=0.019230416666666666
EXTRACT: pitchwheel channel=2 pitch=-2944 time=0.019230416666666666
EXTRACT: note_off channel=14 note=46 velocity=0 time=0
EXTRACT: pitchwheel channel=2 pitch=-3456 time=0.019230416666666666
EXTRACT: note_on channel=14 note=58 velocity=60 time=0.0024038020833333333
EXTRACT: pitchwheel channel=2 pitch=-3200 time=0.036057031249999996
EXTRACT: pitchwheel channel=2 pitch=-2688 time=0.019230416666666666
EXTRACT: pitchwheel channel=2 pitch=-2048 time=0.02163421875
EXTRACT: pitchwheel channel=2 pitch=-1280 time=0.016826614583333333
EXTRACT: note_off channel=14 note=58 velocity=0 time=0.012019010416666667
EXTRACT: note_on channel=9 note=46 velocity=75 time=0.009615208333333333
EXTRACT: pitchwheel channel=2 pitch=0 time=0
EXTRACT: note_on channel=6 note=58 velocity=111 time=0
EXTRACT: note_on channel=6 note=62 velocity=111 time=0
EXTRACT: note_on channel=12 note=53 velocity=82 time=0
EXTRACT: note_on channel=12 note=58 velocity=82 time=0
EXTRACT: note_on channel=12 note=62 velocity=73 time=0
EXTRACT: note_on channel=14 note=46 velocity=62 time=0
EXTRACT: note_off channel=9 note=44 velocity=0 time=0.026441822916666666
EXTRACT: note_off channel=9 note=40 velocity=0 time=0.031249427083333333
EXTRACT: note_off channel=9 note=39 velocity=0 time=0
EXTRACT: note_off channel=14 note=46 velocity=0 time=0.026441822916666666
EXTRACT: note_off channel=6 note=62 velocity=0 time=0.012019010416666667
EXTRACT: note_off channel=6 note=58 velocity=0 time=0
EXTRACT: note_off channel=12 note=58 velocity=0 time=0
EXTRACT: note_off channel=12 note=62 velocity=0 time=0.0024038020833333333
EXTRACT: note_off channel=12 note=53 velocity=0 time=0.00721140625
EXTRACT: note_off channel=9 note=36 velocity=0 time=0.00721140625
EXTRACT: note_on channel=14 note=58 velocity=60 time=0.0024038020833333333
EXTRACT: note_off channel=14 note=58 velocity=0 time=0.10576729166666667
EXTRACT: note_off channel=1 note=34 velocity=0 time=0.004807604166666667
EXTRACT: note_on channel=9 note=36 velocity=122 time=0.004807604166666667
EXTRACT: note_on channel=9 note=39 velocity=80 time=0
EXTRACT: note_on channel=9 note=40 velocity=78 time=0
EXTRACT: note_on channel=9 note=44 velocity=92 time=0
EXTRACT: note_on channel=1 note=29 velocity=76 time=0
EXTRACT: note_on channel=6 note=58 velocity=100 time=0
EXTRACT: note_on channel=6 note=62 velocity=102 time=0
EXTRACT: note_on channel=13 note=75 velocity=91 time=0
EXTRACT: note_on channel=14 note=46 velocity=63 time=0
EXTRACT: note_off channel=14 note=46 velocity=0 time=0.09855588541666667
EXTRACT: note_off channel=6 note=58 velocity=0 time=0.004807604166666667
EXTRACT: note_off channel=6 note=62 velocity=0 time=0.00721140625
EXTRACT: note_off channel=9 note=46 velocity=0 time=0.0024038020833333333
EXTRACT: note_on channel=14 note=58 velocity=60 time=0.0024038020833333333
EXTRACT: note_off channel=14 note=58 velocity=0 time=0.09374828125
EXTRACT: note_off channel=1 note=29 velocity=0 time=0.016826614583333333
EXTRACT: note_off channel=2 note=92 velocity=0 time=0
EXTRACT: note_on channel=9 note=46 velocity=63 time=0.004807604166666667
EXTRACT: note_on channel=1 note=27 velocity=91 time=0
EXTRACT: note_on channel=2 note=82 velocity=91 time=0
EXTRACT: note_on channel=6 note=58 velocity=108 time=0
EXTRACT: note_on channel=6 note=63 velocity=111 time=0
EXTRACT: note_on channel=12 note=53 velocity=88 time=0
EXTRACT: note_on channel=12 note=58 velocity=78 time=0
EXTRACT: note_on channel=12 note=63 velocity=74 time=0
EXTRACT: note_on channel=14 note=46 velocity=62 time=0
EXTRACT: note_off channel=9 note=44 velocity=0 time=0.036057031249999996
EXTRACT: note_off channel=14 note=46 velocity=0 time=0.05288364583333333
EXTRACT: note_off channel=12 note=58 velocity=0 time=0.02163421875
EXTRACT: note_off channel=9 note=36 velocity=0 time=0.004807604166666667
EXTRACT: note_on channel=14 note=58 velocity=60 time=0
EXTRACT: note_off channel=12 note=63 velocity=0 time=0.00721140625
EXTRACT: note_off channel=12 note=53 velocity=0 time=0
EXTRACT: note_off channel=14 note=58 velocity=0 time=0.08894067708333334
EXTRACT: note_on channel=9 note=36 velocity=125 time=0.019230416666666666
EXTRACT: note_on channel=9 note=44 velocity=85 time=0
EXTRACT: note_on channel=14 note=46 velocity=63 time=0
EXTRACT: note_off channel=6 note=58 velocity=0 time=0.05528744791666666
EXTRACT: note_off channel=6 note=63 velocity=0 time=0.009615208333333333
EXTRACT: note_off channel=9 note=46 velocity=0 time=0.012019010416666667
EXTRACT: note_off channel=14 note=46 velocity=0 time=0.012019010416666667
EXTRACT: note_off channel=1 note=27 velocity=0 time=0.019230416666666666
EXTRACT: note_on channel=14 note=58 velocity=59 time=0.00721140625
EXTRACT: note_off channel=14 note=58 velocity=0 time=0.10336348958333333
EXTRACT: note_on channel=9 note=36 velocity=120 time=0.012019010416666667
EXTRACT: note_on channel=9 note=46 velocity=71 time=0
EXTRACT: note_on channel=1 note=27 velocity=95 time=0
EXTRACT: note_on channel=6 note=58 velocity=102 time=0
EXTRACT: note_on channel=6 note=63 velocity=115 time=0
EXTRACT: note_on channel=12 note=53 velocity=85 time=0
EXTRACT: note_on channel=12 note=58 velocity=88 time=0
EXTRACT: note_on channel=12 note=63 velocity=88 time=0
EXTRACT: note_on channel=14 note=46 velocity=62 time=0
EXTRACT: note_off channel=9 note=40 velocity=0 time=0.05288364583333333
EXTRACT: note_off channel=9 note=39 velocity=0 time=0.0024038020833333333
EXTRACT: note_off channel=9 note=36 velocity=64 time=0.0024038020833333333
EXTRACT: note_off channel=9 note=36 velocity=0 time=0.028845625
EXTRACT: note_off channel=9 note=44 velocity=0 time=0.0024038020833333333
EXTRACT: note_off channel=14 note=46 velocity=0 time=0.004807604166666667
EXTRACT: note_on channel=14 note=58 velocity=60 time=0.02163421875
EXTRACT: note_off channel=14 note=58 velocity=0 time=0.1009596875
EXTRACT: note_on channel=9 note=36 velocity=122 time=0.0144228125
EXTRACT: note_on channel=9 note=39 velocity=86 time=0
EXTRACT: note_on channel=9 note=40 velocity=86 time=0
EXTRACT: note_on channel=9 note=44 velocity=101 time=0
EXTRACT: note_on channel=14 note=46 velocity=63 time=0
EXTRACT: note_off channel=14 note=46 velocity=0 time=0.09134447916666666
EXTRACT: note_off channel=9 note=46 velocity=0 time=0.012019010416666667
EXTRACT: note_on channel=14 note=58 velocity=60 time=0.012019010416666667
EXTRACT: note_off channel=12 note=58 velocity=0 time=0.0144228125
EXTRACT: note_off channel=9 note=36 velocity=0 time=0.0024038020833333333
EXTRACT: note_off channel=12 note=63 velocity=0 time=0.00721140625
EXTRACT: note_off channel=12 note=53 velocity=0 time=0
EXTRACT: note_off channel=14 note=58 velocity=0 time=0.07211406249999999
EXTRACT: note_off channel=1 note=27 velocity=0 time=0.016826614583333333
EXTRACT: note_on channel=9 note=36 velocity=122 time=0.0024038020833333333
EXTRACT: note_on channel=9 note=46 velocity=70 time=0
EXTRACT: note_on channel=1 note=31 velocity=85 time=0
EXTRACT: note_on channel=12 note=53 velocity=78 time=0
EXTRACT: note_on channel=12 note=58 velocity=80 time=0
EXTRACT: note_on channel=12 note=63 velocity=82 time=0
EXTRACT: note_on channel=14 note=46 velocity=62 time=0
EXTRACT: note_off channel=6 note=58 velocity=0 time=0.009615208333333333
EXTRACT: note_off channel=2 note=82 velocity=0 time=0.0024038020833333333
EXTRACT: note_off channel=6 note=63 velocity=0 time=0.004807604166666667
EXTRACT: note_off channel=9 note=39 velocity=0 time=0.04086463541666667
EXTRACT: note_off channel=9 note=40 velocity=0 time=0.004807604166666667
EXTRACT: note_off channel=9 note=44 velocity=0 time=0.02163421875
EXTRACT: note_off channel=12 note=58 velocity=0 time=0.004807604166666667
EXTRACT: note_off channel=14 note=46 velocity=0 time=0.004807604166666667
EXTRACT: note_off channel=12 note=63 velocity=0 time=0.012019010416666667
EXTRACT: note_off channel=12 note=53 velocity=0 time=0
EXTRACT: note_on channel=14 note=58 velocity=61 time=0.009615208333333333
EXTRACT: note_off channel=9 note=36 velocity=0 time=0.02163421875
EXTRACT: note_off channel=9 note=46 velocity=0 time=0.02163421875
EXTRACT: note_off channel=1 note=31 velocity=0 time=0.031249427083333333
EXTRACT: note_off channel=14 note=58 velocity=0 time=0.019230416666666666
EXTRACT: note_off channel=13 note=75 velocity=0 time=4.11771296875
EXTRACT: note_off channel=13 note=70 velocity=0 time=0.09374828125
EXTRACT: control_change channel=9 control=121 value=0 time=1.8413123958333333
EXTRACT: control_change channel=9 control=7 value=100 time=0
EXTRACT: control_change channel=1 control=121 value=0 time=0
EXTRACT: control_change channel=1 control=7 value=100 time=0
EXTRACT: control_change channel=2 control=121 value=0 time=0
EXTRACT: control_change channel=2 control=7 value=93 time=0
EXTRACT: control_change channel=3 control=121 value=0 time=0
EXTRACT: control_change channel=3 control=7 value=100 time=0
EXTRACT: control_change channel=4 control=121 value=0 time=0
EXTRACT: control_change channel=4 control=7 value=100 time=0
EXTRACT: control_change channel=5 control=121 value=0 time=0
EXTRACT: control_change channel=5 control=7 value=94 time=0
EXTRACT: control_change channel=6 control=121 value=0 time=0
EXTRACT: control_change channel=6 control=7 value=95 time=0
EXTRACT: control_change channel=7 control=121 value=0 time=0
EXTRACT: control_change channel=7 control=7 value=94 time=0
EXTRACT: control_change channel=8 control=121 value=0 time=0
EXTRACT: control_change channel=8 control=7 value=98 time=0
EXTRACT: control_change channel=10 control=121 value=0 time=0
EXTRACT: control_change channel=10 control=7 value=94 time=0
EXTRACT: control_change channel=11 control=121 value=0 time=0
EXTRACT: control_change channel=11 control=7 value=88 time=0
EXTRACT: control_change channel=12 control=121 value=0 time=0
EXTRACT: control_change channel=12 control=7 value=88 time=0
EXTRACT: control_change channel=13 control=121 value=0 time=0
EXTRACT: control_change channel=13 control=7 value=88 time=0
EXTRACT: control_change channel=14 control=121 value=0 time=0
EXTRACT: control_change channel=14 control=7 value=91 time=0
EXTRACT: control_change channel=15 control=121 value=0 time=0
EXTRACT: control_change channel=15 control=7 value=88 time=0
