EXTRACT: control_change channel=0 control=0 value=0 time=0
EXTRACT: note_off channel=0 note=63 velocity=0 time=0
EXTRACT: note_off channel=0 note=46 velocity=0 time=0.0010416666666666667
EXTRACT: note_off channel=0 note=46 velocity=0 time=0.0010416666666666667
EXTRACT: note_off channel=0 note=58 velocity=0 time=0.0010416666666666667
EXTRACT: note_off channel=0 note=49 velocity=0 time=0.0010416666666666667
EXTRACT: control_change channel=0 control=32 value=0 time=0.0010416666666666667
EXTRACT: note_off channel=0 note=51 velocity=0 time=0
EXTRACT: note_off channel=0 note=53 velocity=0 time=0.0010416666666666667
EXTRACT: note_off channel=0 note=55 velocity=0 time=0.0010416666666666667
EXTRACT: note_off channel=0 note=53 velocity=0 time=0.0010416666666666667
EXTRACT: note_off channel=0 note=58 velocity=0 time=0.0010416666666666667
EXTRACT: program_change channel=0 program=75 time=0.0010416666666666667
EXTRACT: note_off channel=0 note=61 velocity=0 time=0
EXTRACT: note_off channel=0 note=51 velocity=0 time=0.0010416666666666667
EXTRACT: note_off channel=0 note=61 velocity=0 time=0.0010416666666666667
EXTRACT: note_off channel=0 note=61 velocity=0 time=0.0010416666666666667
EXTRACT: note_off channel=0 note=43 velocity=0 time=0.0010416666666666667
EXTRACT: control_change channel=0 control=7 value=127 time=0.0010416666666666667
EXTRACT: note_off channel=0 note=43 velocity=0 time=0
EXTRACT: control_change channel=0 control=10 value=64 time=0.005208333333333333
EXTRACT: control_change channel=0 control=91 value=124 time=0.005208333333333333
EXTRACT: control_change channel=0 control=93 value=0 time=0.005208333333333333
EXTRACT: control_change channel=0 control=94 value=0 time=0.005208333333333333
EXTRACT: control_change channel=0 control=5 value=0 time=0.005208333333333333
EXTRACT: control_change channel=0 control=11 value=127 time=0.005208333333333333
EXTRACT: note_off channel=0 note=46 velocity=0 time=0.24375
EXTRACT: note_off channel=0 note=63 velocity=0 time=0.03229166666666666
EXTRACT: note_off channel=0 note=46 velocity=0 time=0.10416666666666667
EXTRACT: note_off channel=0 note=58 velocity=0 time=0.08333333333333333
EXTRACT: note_off channel=0 note=49 velocity=0 time=0.13020833333333334
EXTRACT: note_off channel=0 note=51 velocity=0 time=0.125
EXTRACT: note_off channel=0 note=53 velocity=0 time=0.175
EXTRACT: control_change channel=0 control=101 value=0 time=0.059375
EXTRACT: control_change channel=0 control=100 value=0 time=0.005208333333333333
EXTRACT: note_off channel=0 note=55 velocity=0 time=0.0020833333333333333
EXTRACT: control_change channel=0 control=6 value=2 time=0.003125
EXTRACT: control_change channel=0 control=101 value=127 time=0.005208333333333333
EXTRACT: control_change channel=0 control=100 value=127 time=0.005208333333333333
EXTRACT: control_change channel=1 control=0 value=0 time=0
EXTRACT: control_change channel=1 control=32 value=0 time=0.005208333333333333
EXTRACT: program_change channel=1 program=66 time=0.005208333333333333
EXTRACT: control_change channel=1 control=7 value=127 time=0.005208333333333333
EXTRACT: control_change channel=1 control=10 value=64 time=0.005208333333333333
EXTRACT: control_change channel=1 control=91 value=125 time=0.005208333333333333
EXTRACT: control_change channel=1 control=93 value=0 time=0.005208333333333333
EXTRACT: control_change channel=1 control=94 value=0 time=0.005208333333333333
EXTRACT: control_change channel=1 control=11 value=127 time=0.005208333333333333
EXTRACT: control_change channel=2 control=0 value=0 time=0
EXTRACT: control_change channel=2 control=32 value=0 time=0.005208333333333333
EXTRACT: program_change channel=2 program=52 time=0.005208333333333333
EXTRACT: control_change channel=2 control=7 value=100 time=0.005208333333333333
EXTRACT: control_change channel=2 control=10 value=64 time=0.005208333333333333
EXTRACT: control_change channel=2 control=91 value=40 time=0.005208333333333333
EXTRACT: control_change channel=2 control=93 value=0 time=0.005208333333333333
EXTRACT: control_change channel=2 control=94 value=0 time=0.005208333333333333
EXTRACT: control_change channel=2 control=11 value=127 time=0.005208333333333333
EXTRACT: control_change channel=3 control=0 value=0 time=0
EXTRACT: note_off channel=0 note=53 velocity=0 time=0
EXTRACT: control_change channel=3 control=32 value=0 time=0.005208333333333333
EXTRACT: program_change channel=3 program=35 time=0.005208333333333333
EXTRACT: control_change channel=3 control=7 value=120 time=0.005208333333333333
EXTRACT: control_change channel=3 control=10 value=64 time=0.005208333333333333
EXTRACT: control_change channel=3 control=91 value=40 time=0.005208333333333333
EXTRACT: control_change channel=3 control=93 value=0 time=0.005208333333333333
EXTRACT: control_change channel=3 control=94 value=0 time=0.005208333333333333
EXTRACT: control_change channel=3 control=11 value=127 time=0.005208333333333333
EXTRACT: control_change channel=4 control=0 value=0 time=0
EXTRACT: control_change channel=4 control=32 value=0 time=0.005208333333333333
EXTRACT: program_change channel=4 program=4 time=0.005208333333333333
EXTRACT: control_change channel=4 control=7 value=120 time=0.005208333333333333
EXTRACT: control_change channel=4 control=10 value=64 time=0.005208333333333333
EXTRACT: control_change channel=4 control=91 value=40 time=0.005208333333333333
EXTRACT: control_change channel=4 control=93 value=0 time=0.005208333333333333
EXTRACT: control_change channel=4 control=94 value=0 time=0.005208333333333333
EXTRACT: control_change channel=4 control=11 value=127 time=0.005208333333333333
EXTRACT: control_change channel=5 control=0 value=0 time=0
EXTRACT: control_change channel=5 control=32 value=0 time=0.005208333333333333
EXTRACT: program_change channel=5 program=79 time=0.005208333333333333
EXTRACT: control_change channel=5 control=7 value=100 time=0.005208333333333333
EXTRACT: control_change channel=5 control=10 value=64 time=0.005208333333333333
EXTRACT: control_change channel=5 control=91 value=40 time=0.005208333333333333
EXTRACT: control_change channel=5 control=93 value=0 time=0.005208333333333333
EXTRACT: control_change channel=5 control=94 value=0 time=0.005208333333333333
EXTRACT: control_change channel=5 control=11 value=127 time=0.005208333333333333
EXTRACT: control_change channel=6 control=0 value=0 time=0
EXTRACT: control_change channel=6 control=32 value=0 time=0.005208333333333333
EXTRACT: program_change channel=6 program=62 time=0.005208333333333333
EXTRACT: control_change channel=6 control=7 value=105 time=0.005208333333333333
EXTRACT: control_change channel=6 control=10 value=64 time=0.005208333333333333
EXTRACT: control_change channel=6 control=91 value=40 time=0.005208333333333333
EXTRACT: control_change channel=6 control=93 value=0 time=0.005208333333333333
EXTRACT: control_change channel=6 control=94 value=0 time=0.005208333333333333
EXTRACT: control_change channel=6 control=11 value=127 time=0.005208333333333333
EXTRACT: control_change channel=9 control=0 value=127 time=0
EXTRACT: note_off channel=0 note=61 velocity=0 time=0
EXTRACT: note_off channel=0 note=58 velocity=0 time=0.003125
EXTRACT: control_change channel=9 control=32 value=0 time=0.0020833333333333333
EXTRACT: program_change channel=9 program=24 time=0.005208333333333333
EXTRACT: control_change channel=9 control=7 value=127 time=0.005208333333333333
EXTRACT: control_change channel=9 control=10 value=64 time=0.005208333333333333
EXTRACT: control_change channel=9 control=91 value=95 time=0.005208333333333333
EXTRACT: control_change channel=9 control=93 value=127 time=0.005208333333333333
EXTRACT: control_change channel=9 control=94 value=0 time=0.005208333333333333
EXTRACT: control_change channel=9 control=5 value=0 time=0.005208333333333333
EXTRACT: control_change channel=9 control=11 value=127 time=0.005208333333333333
EXTRACT: control_change channel=9 control=99 value=28 time=0.005208333333333333
EXTRACT: control_change channel=9 control=98 value=28 time=0.005208333333333333
EXTRACT: control_change channel=9 control=6 value=0 time=0.005208333333333333
EXTRACT: control_change channel=9 control=99 value=29 time=0.005208333333333333
EXTRACT: control_change channel=9 control=98 value=28 time=0.005208333333333333
EXTRACT: control_change channel=9 control=6 value=127 time=0.005208333333333333
EXTRACT: control_change channel=9 control=101 value=0 time=0.005208333333333333
EXTRACT: control_change channel=9 control=100 value=0 time=0.005208333333333333
EXTRACT: control_change channel=9 control=6 value=2 time=0.005208333333333333
EXTRACT: note_off channel=0 note=51 velocity=0 time=0.0010416666666666667
EXTRACT: control_change channel=9 control=101 value=127 time=0.004166666666666667
EXTRACT: control_change channel=9 control=100 value=127 time=0.005208333333333333
EXTRACT: control_change channel=7 control=0 value=0 time=0
EXTRACT: control_change channel=7 control=32 value=0 time=0.005208333333333333
EXTRACT: program_change channel=7 program=102 time=0.005208333333333333
EXTRACT: control_change channel=7 control=7 value=127 time=0.005208333333333333
EXTRACT: control_change channel=7 control=10 value=64 time=0.005208333333333333
EXTRACT: control_change channel=7 control=91 value=40 time=0.005208333333333333
EXTRACT: control_change channel=7 control=93 value=0 time=0.005208333333333333
EXTRACT: control_change channel=7 control=94 value=0 time=0.005208333333333333
EXTRACT: note_off channel=0 note=61 velocity=0 time=0
EXTRACT: control_change channel=7 control=11 value=127 time=0.005208333333333333
EXTRACT: control_change channel=8 control=0 value=0 time=0
EXTRACT: control_change channel=8 control=32 value=0 time=0.005208333333333333
EXTRACT: program_change channel=8 program=81 time=0.005208333333333333
EXTRACT: control_change channel=8 control=7 value=30 time=0.005208333333333333
EXTRACT: control_change channel=8 control=10 value=64 time=0.005208333333333333
EXTRACT: control_change channel=8 control=91 value=40 time=0.005208333333333333
EXTRACT: control_change channel=8 control=93 value=0 time=0.005208333333333333
EXTRACT: control_change channel=8 control=94 value=0 time=0.005208333333333333
EXTRACT: control_change channel=8 control=11 value=127 time=0.005208333333333333
EXTRACT: control_change channel=10 control=0 value=0 time=0
EXTRACT: control_change channel=10 control=32 value=0 time=0.005208333333333333
EXTRACT: program_change channel=10 program=5 time=0.005208333333333333
EXTRACT: control_change channel=10 control=7 value=100 time=0.005208333333333333
EXTRACT: control_change channel=10 control=10 value=64 time=0.005208333333333333
EXTRACT: control_change channel=10 control=91 value=40 time=0.005208333333333333
EXTRACT: control_change channel=10 control=93 value=0 time=0.005208333333333333
EXTRACT: control_change channel=10 control=94 value=0 time=0.005208333333333333
EXTRACT: control_change channel=10 control=11 value=127 time=0.005208333333333333
EXTRACT: note_off channel=0 note=61 velocity=0 time=0.07604166666666666
EXTRACT: note_off channel=0 note=43 velocity=0 time=0.1
EXTRACT: note_off channel=0 note=43 velocity=0 time=0.07395833333333333
EXTRACT: note_on channel=5 note=61 velocity=127 time=0.25
EXTRACT: note_on channel=9 note=36 velocity=127 time=0
EXTRACT: note_on channel=9 note=35 velocity=127 time=0
EXTRACT: note_on channel=9 note=28 velocity=54 time=0
EXTRACT: note_on channel=9 note=38 velocity=65 time=0
EXTRACT: note_on channel=9 note=75 velocity=61 time=0
EXTRACT: note_on channel=7 note=22 velocity=127 time=0
EXTRACT: note_on channel=8 note=61 velocity=127 time=0
EXTRACT: note_off channel=9 note=75 velocity=61 time=0.11875
EXTRACT: note_off channel=9 note=28 velocity=54 time=0.07083333333333333
EXTRACT: note_off channel=9 note=38 velocity=65 time=0.034375
EXTRACT: note_off channel=9 note=36 velocity=127 time=0.005208333333333333
EXTRACT: note_off channel=9 note=35 velocity=127 time=0
EXTRACT: note_off channel=5 note=61 velocity=127 time=0.01875
EXTRACT: note_off channel=8 note=61 velocity=127 time=0
EXTRACT: note_on channel=5 note=58 velocity=127 time=0.0020833333333333333
EXTRACT: note_on channel=9 note=28 velocity=56 time=0
EXTRACT: note_on channel=9 note=75 velocity=61 time=0
EXTRACT: note_on channel=8 note=58 velocity=127 time=0
EXTRACT: note_off channel=9 note=75 velocity=61 time=0.11875
EXTRACT: note_on channel=9 note=75 velocity=61 time=0.00625
EXTRACT: note_off channel=9 note=28 velocity=56 time=0.06458333333333333
EXTRACT: note_off channel=9 note=75 velocity=61 time=0.05416666666666667
EXTRACT: note_off channel=5 note=58 velocity=127 time=0.004166666666666667
EXTRACT: note_off channel=8 note=58 velocity=127 time=0
EXTRACT: note_on channel=5 note=61 velocity=127 time=0.0020833333333333333
EXTRACT: note_on channel=9 note=37 velocity=127 time=0
EXTRACT: note_on channel=9 note=42 velocity=127 time=0
EXTRACT: note_on channel=9 note=28 velocity=52 time=0
EXTRACT: note_on channel=9 note=75 velocity=61 time=0
EXTRACT: note_on channel=9 note=62 velocity=127 time=0
EXTRACT: note_on channel=8 note=61 velocity=127 time=0
EXTRACT: note_off channel=7 note=22 velocity=127 time=0.015625
EXTRACT: note_off channel=9 note=75 velocity=61 time=0.103125
EXTRACT: note_off channel=9 note=28 velocity=52 time=0.07083333333333333
EXTRACT: note_off channel=9 note=37 velocity=127 time=0.03958333333333333
EXTRACT: note_off channel=9 note=42 velocity=127 time=0
EXTRACT: note_off channel=5 note=61 velocity=127 time=0.01875
EXTRACT: note_off channel=8 note=61 velocity=127 time=0
EXTRACT: note_on channel=5 note=58 velocity=127 time=0.0020833333333333333
EXTRACT: note_on channel=9 note=36 velocity=127 time=0
EXTRACT: note_on channel=9 note=35 velocity=127 time=0
EXTRACT: note_on channel=9 note=28 velocity=52 time=0
EXTRACT: note_on channel=9 note=38 velocity=67 time=0
EXTRACT: note_on channel=9 note=75 velocity=61 time=0
EXTRACT: note_on channel=8 note=58 velocity=127 time=0
EXTRACT: note_off channel=9 note=62 velocity=127 time=0.0010416666666666667
EXTRACT: note_off channel=9 note=75 velocity=61 time=0.11770833333333333
EXTRACT: note_off channel=9 note=28 velocity=52 time=0.07083333333333333
EXTRACT: note_off channel=9 note=38 velocity=67 time=0.034375
EXTRACT: note_off channel=9 note=36 velocity=127 time=0.005208333333333333
EXTRACT: note_off channel=9 note=35 velocity=127 time=0
EXTRACT: note_off channel=5 note=58 velocity=127 time=0.01875
EXTRACT: note_off channel=8 note=58 velocity=127 time=0
EXTRACT: note_on channel=5 note=65 velocity=127 time=0.0020833333333333333
EXTRACT: note_on channel=9 note=28 velocity=52 time=0
EXTRACT: note_on channel=8 note=65 velocity=127 time=0
EXTRACT: note_off channel=9 note=28 velocity=52 time=0.18958333333333333
EXTRACT: note_off channel=5 note=65 velocity=127 time=0.058333333333333334
EXTRACT: note_off channel=8 note=65 velocity=127 time=0
EXTRACT: note_on channel=5 note=63 velocity=127 time=0.0020833333333333333
EXTRACT: note_on channel=9 note=36 velocity=127 time=0
EXTRACT: note_on channel=9 note=35 velocity=127 time=0
EXTRACT: note_on channel=9 note=28 velocity=52 time=0
EXTRACT: note_on channel=9 note=43 velocity=43 time=0
EXTRACT: note_on channel=9 note=38 velocity=67 time=0
EXTRACT: note_on channel=9 note=75 velocity=56 time=0
EXTRACT: note_on channel=8 note=63 velocity=127 time=0
EXTRACT: note_off channel=9 note=43 velocity=43 time=0.096875
EXTRACT: note_off channel=9 note=75 velocity=56 time=0.021875
EXTRACT: note_on channel=9 note=41 velocity=43 time=0.00625
EXTRACT: note_off channel=9 note=28 velocity=52 time=0.06458333333333333
EXTRACT: note_off channel=9 note=41 velocity=43 time=0.03229166666666666
EXTRACT: note_off channel=9 note=38 velocity=67 time=0.0020833333333333333
EXTRACT: note_off channel=9 note=36 velocity=127 time=0.005208333333333333
EXTRACT: note_off channel=9 note=35 velocity=127 time=0
EXTRACT: note_off channel=5 note=63 velocity=127 time=0.01875
EXTRACT: note_off channel=8 note=63 velocity=127 time=0
EXTRACT: note_on channel=5 note=63 velocity=127 time=0.0020833333333333333
EXTRACT: note_on channel=9 note=37 velocity=127 time=0
EXTRACT: note_on channel=9 note=42 velocity=127 time=0
EXTRACT: note_on channel=9 note=28 velocity=52 time=0
EXTRACT: note_on channel=9 note=62 velocity=127 time=0
EXTRACT: note_on channel=8 note=63 velocity=127 time=0
EXTRACT: note_on channel=9 note=36 velocity=127 time=0.125
EXTRACT: note_on channel=9 note=35 velocity=127 time=0
EXTRACT: note_on channel=9 note=38 velocity=65 time=0
EXTRACT: note_off channel=9 note=28 velocity=52 time=0.06458333333333333
EXTRACT: note_off channel=9 note=37 velocity=127 time=0.03958333333333333
EXTRACT: note_off channel=9 note=42 velocity=127 time=0
EXTRACT: note_off channel=5 note=63 velocity=127 time=0.01875
EXTRACT: note_off channel=8 note=63 velocity=127 time=0
EXTRACT: note_on channel=5 note=61 velocity=127 time=0.0020833333333333333
EXTRACT: note_on channel=9 note=37 velocity=127 time=0
EXTRACT: note_on channel=9 note=42 velocity=127 time=0
EXTRACT: note_on channel=9 note=28 velocity=54 time=0
EXTRACT: note_on channel=9 note=75 velocity=60 time=0
EXTRACT: note_on channel=9 note=62 velocity=127 time=0
EXTRACT: note_on channel=8 note=61 velocity=127 time=0
EXTRACT: note_off channel=9 note=62 velocity=127 time=0.0010416666666666667
EXTRACT: note_off channel=9 note=38 velocity=65 time=0.09791666666666667
EXTRACT: note_off channel=9 note=36 velocity=127 time=0.005208333333333333
EXTRACT: note_off channel=9 note=35 velocity=127 time=0
EXTRACT: note_off channel=9 note=75 velocity=60 time=0.014583333333333334
EXTRACT: note_on channel=9 note=75 velocity=58 time=0.00625
EXTRACT: note_off channel=9 note=28 velocity=54 time=0.06458333333333333
EXTRACT: note_off channel=9 note=37 velocity=127 time=0.03958333333333333
EXTRACT: note_off channel=9 note=42 velocity=127 time=0
EXTRACT: note_off channel=9 note=75 velocity=58 time=0.014583333333333334
EXTRACT: note_off channel=5 note=61 velocity=127 time=0.004166666666666667
EXTRACT: note_off channel=8 note=61 velocity=127 time=0
EXTRACT: note_on channel=5 note=61 velocity=127 time=0.0020833333333333333
EXTRACT: note_on channel=9 note=28 velocity=54 time=0
EXTRACT: note_on channel=9 note=35 velocity=127 time=0
EXTRACT: note_on channel=9 note=36 velocity=127 time=0
EXTRACT: note_on channel=9 note=38 velocity=65 time=0
EXTRACT: note_on channel=9 note=75 velocity=61 time=0
EXTRACT: note_on channel=8 note=61 velocity=127 time=0
EXTRACT: note_off channel=9 note=62 velocity=127 time=0.0010416666666666667
EXTRACT: note_off channel=9 note=75 velocity=61 time=0.11770833333333333
EXTRACT: note_off channel=9 note=28 velocity=54 time=0.07083333333333333
EXTRACT: note_off channel=9 note=38 velocity=65 time=0.034375
EXTRACT: note_off channel=9 note=35 velocity=127 time=0.005208333333333333
EXTRACT: note_off channel=9 note=36 velocity=127 time=0
EXTRACT: note_off channel=5 note=61 velocity=127 time=0.01875
EXTRACT: note_off channel=8 note=61 velocity=127 time=0
EXTRACT: note_on channel=5 note=58 velocity=127 time=0.0020833333333333333
EXTRACT: note_on channel=9 note=28 velocity=56 time=0
EXTRACT: note_on channel=9 note=75 velocity=61 time=0
EXTRACT: note_on channel=8 note=58 velocity=127 time=0
EXTRACT: note_off channel=9 note=75 velocity=61 time=0.11875
EXTRACT: note_on channel=9 note=75 velocity=61 time=0.00625
EXTRACT: note_off channel=9 note=28 velocity=56 time=0.06458333333333333
EXTRACT: note_off channel=9 note=75 velocity=61 time=0.05416666666666667
EXTRACT: note_off channel=5 note=58 velocity=127 time=0.004166666666666667
EXTRACT: note_off channel=8 note=58 velocity=127 time=0
EXTRACT: note_on channel=5 note=61 velocity=127 time=0.0020833333333333333
EXTRACT: note_on channel=9 note=28 velocity=52 time=0
EXTRACT: note_on channel=9 note=42 velocity=127 time=0
EXTRACT: note_on channel=9 note=37 velocity=127 time=0
EXTRACT: note_on channel=9 note=62 velocity=127 time=0
EXTRACT: note_on channel=9 note=75 velocity=61 time=0
EXTRACT: note_on channel=8 note=61 velocity=127 time=0
EXTRACT: note_off channel=9 note=75 velocity=61 time=0.11875
EXTRACT: note_off channel=9 note=28 velocity=52 time=0.07083333333333333
EXTRACT: note_off channel=9 note=42 velocity=127 time=0.03958333333333333
EXTRACT: note_off channel=9 note=37 velocity=127 time=0
EXTRACT: note_off channel=5 note=61 velocity=127 time=0.01875
EXTRACT: note_off channel=8 note=61 velocity=127 time=0
EXTRACT: note_on channel=5 note=58 velocity=127 time=0.0020833333333333333
EXTRACT: note_on channel=9 note=28 velocity=52 time=0
EXTRACT: note_on channel=9 note=35 velocity=127 time=0
EXTRACT: note_on channel=9 note=36 velocity=127 time=0
EXTRACT: note_on channel=9 note=38 velocity=67 time=0
EXTRACT: note_on channel=9 note=75 velocity=61 time=0
EXTRACT: note_on channel=8 note=58 velocity=127 time=0
EXTRACT: note_off channel=9 note=62 velocity=127 time=0.0010416666666666667
EXTRACT: note_off channel=9 note=75 velocity=61 time=0.11770833333333333
EXTRACT: note_off channel=9 note=28 velocity=52 time=0.07083333333333333
EXTRACT: note_off channel=9 note=38 velocity=67 time=0.034375
EXTRACT: note_off channel=9 note=35 velocity=127 time=0.005208333333333333
EXTRACT: note_off channel=9 note=36 velocity=127 time=0
EXTRACT: note_off channel=5 note=58 velocity=127 time=0.01875
EXTRACT: note_off channel=8 note=58 velocity=127 time=0
EXTRACT: note_on channel=5 note=65 velocity=127 time=0.0020833333333333333
EXTRACT: note_on channel=9 note=28 velocity=52 time=0
EXTRACT: note_on channel=8 note=65 velocity=127 time=0
EXTRACT: note_off channel=9 note=28 velocity=52 time=0.18958333333333333
EXTRACT: note_off channel=5 note=65 velocity=127 time=0.058333333333333334
EXTRACT: note_off channel=8 note=65 velocity=127 time=0
EXTRACT: note_on channel=5 note=63 velocity=127 time=0.0020833333333333333
EXTRACT: note_on channel=9 note=43 velocity=43 time=0
EXTRACT: note_on channel=9 note=28 velocity=52 time=0
EXTRACT: note_on channel=9 note=35 velocity=127 time=0
EXTRACT: note_on channel=9 note=36 velocity=127 time=0
EXTRACT: note_on channel=9 note=38 velocity=67 time=0
EXTRACT: note_on channel=9 note=75 velocity=56 time=0
EXTRACT: note_on channel=8 note=63 velocity=127 time=0
EXTRACT: note_off channel=9 note=43 velocity=43 time=0.096875
EXTRACT: note_off channel=9 note=75 velocity=56 time=0.021875
EXTRACT: note_on channel=9 note=41 velocity=43 time=0.00625
EXTRACT: note_off channel=9 note=28 velocity=52 time=0.06458333333333333
EXTRACT: note_off channel=9 note=41 velocity=43 time=0.03229166666666666
EXTRACT: note_off channel=9 note=38 velocity=67 time=0.0020833333333333333
EXTRACT: note_off channel=9 note=35 velocity=127 time=0.005208333333333333
EXTRACT: note_off channel=9 note=36 velocity=127 time=0
EXTRACT: note_off channel=5 note=63 velocity=127 time=0.01875
EXTRACT: note_off channel=8 note=63 velocity=127 time=0
EXTRACT: note_on channel=5 note=63 velocity=127 time=0.0020833333333333333
EXTRACT: note_on channel=9 note=28 velocity=52 time=0
EXTRACT: note_on channel=9 note=42 velocity=127 time=0
EXTRACT: note_on channel=9 note=37 velocity=127 time=0
EXTRACT: note_on channel=9 note=62 velocity=127 time=0
EXTRACT: note_on channel=8 note=63 velocity=127 time=0
EXTRACT: note_on channel=9 note=35 velocity=127 time=0.125
EXTRACT: note_on channel=9 note=36 velocity=127 time=0
EXTRACT: note_on channel=9 note=38 velocity=65 time=0
EXTRACT: note_off channel=9 note=28 velocity=52 time=0.06458333333333333
EXTRACT: note_off channel=9 note=42 velocity=127 time=0.03958333333333333
EXTRACT: note_off channel=9 note=37 velocity=127 time=0
EXTRACT: note_off channel=5 note=63 velocity=127 time=0.01875
EXTRACT: note_off channel=8 note=63 velocity=127 time=0
EXTRACT: note_on channel=5 note=61 velocity=127 time=0.0020833333333333333
EXTRACT: note_on channel=9 note=28 velocity=54 time=0
EXTRACT: note_on channel=9 note=42 velocity=127 time=0
EXTRACT: note_on channel=9 note=37 velocity=127 time=0
EXTRACT: note_on channel=9 note=62 velocity=127 time=0
EXTRACT: note_on channel=9 note=75 velocity=60 time=0
EXTRACT: note_on channel=8 note=61 velocity=127 time=0
EXTRACT: note_off channel=9 note=62 velocity=127 time=0.0010416666666666667
EXTRACT: note_off channel=9 note=38 velocity=65 time=0.09791666666666667
EXTRACT: note_off channel=9 note=35 velocity=127 time=0.005208333333333333
EXTRACT: note_off channel=9 note=36 velocity=127 time=0
EXTRACT: note_off channel=9 note=75 velocity=60 time=0.014583333333333334
EXTRACT: note_on channel=9 note=75 velocity=58 time=0.00625
EXTRACT: note_off channel=9 note=28 velocity=54 time=0.06458333333333333
EXTRACT: note_off channel=9 note=42 velocity=127 time=0.03958333333333333
EXTRACT: note_off channel=9 note=37 velocity=127 time=0
EXTRACT: note_off channel=9 note=75 velocity=58 time=0.014583333333333334
EXTRACT: note_off channel=5 note=61 velocity=127 time=0.004166666666666667
EXTRACT: note_off channel=8 note=61 velocity=127 time=0
EXTRACT: note_on channel=5 note=61 velocity=127 time=0.0020833333333333333
EXTRACT: note_on channel=9 note=28 velocity=54 time=0
EXTRACT: note_on channel=9 note=35 velocity=127 time=0
EXTRACT: note_on channel=9 note=36 velocity=127 time=0
EXTRACT: note_on channel=9 note=38 velocity=65 time=0
EXTRACT: note_on channel=9 note=75 velocity=61 time=0
EXTRACT: note_on channel=8 note=61 velocity=127 time=0
EXTRACT: note_off channel=9 note=62 velocity=127 time=0.0010416666666666667
EXTRACT: note_off channel=9 note=75 velocity=61 time=0.11770833333333333
EXTRACT: note_off channel=9 note=28 velocity=54 time=0.07083333333333333
EXTRACT: note_off channel=9 note=38 velocity=65 time=0.034375
EXTRACT: note_off channel=9 note=35 velocity=127 time=0.005208333333333333
EXTRACT: note_off channel=9 note=36 velocity=127 time=0
EXTRACT: note_off channel=5 note=61 velocity=127 time=0.01875
EXTRACT: note_off channel=8 note=61 velocity=127 time=0
EXTRACT: note_on channel=5 note=58 velocity=127 time=0.0020833333333333333
EXTRACT: note_on channel=9 note=28 velocity=56 time=0
EXTRACT: note_on channel=9 note=75 velocity=61 time=0
EXTRACT: note_on channel=8 note=58 velocity=127 time=0
EXTRACT: note_off channel=9 note=75 velocity=61 time=0.11875
EXTRACT: note_on channel=9 note=75 velocity=61 time=0.00625
EXTRACT: note_off channel=9 note=28 velocity=56 time=0.06458333333333333
EXTRACT: note_off channel=9 note=75 velocity=61 time=0.05416666666666667
EXTRACT: note_off channel=5 note=58 velocity=127 time=0.004166666666666667
EXTRACT: note_off channel=8 note=58 velocity=127 time=0
EXTRACT: note_on channel=5 note=61 velocity=127 time=0.0020833333333333333
EXTRACT: note_on channel=9 note=28 velocity=52 time=0
EXTRACT: note_on channel=9 note=42 velocity=127 time=0
EXTRACT: note_on channel=9 note=37 velocity=127 time=0
EXTRACT: note_on channel=9 note=62 velocity=127 time=0
EXTRACT: note_on channel=9 note=75 velocity=61 time=0
EXTRACT: note_on channel=8 note=61 velocity=127 time=0
EXTRACT: note_off channel=9 note=75 velocity=61 time=0.11875
EXTRACT: note_off channel=9 note=28 velocity=52 time=0.07083333333333333
EXTRACT: note_off channel=9 note=42 velocity=127 time=0.03958333333333333
EXTRACT: note_off channel=9 note=37 velocity=127 time=0
EXTRACT: note_off channel=5 note=61 velocity=127 time=0.01875
EXTRACT: note_off channel=8 note=61 velocity=127 time=0
EXTRACT: note_on channel=5 note=58 velocity=127 time=0.0020833333333333333
EXTRACT: note_on channel=9 note=28 velocity=52 time=0
EXTRACT: note_on channel=9 note=35 velocity=127 time=0
EXTRACT: note_on channel=9 note=36 velocity=127 time=0
EXTRACT: note_on channel=9 note=38 velocity=67 time=0
EXTRACT: note_on channel=9 note=75 velocity=61 time=0
EXTRACT: note_on channel=8 note=58 velocity=127 time=0
EXTRACT: note_off channel=9 note=62 velocity=127 time=0.0010416666666666667
EXTRACT: note_off channel=9 note=75 velocity=61 time=0.11770833333333333
EXTRACT: note_off channel=9 note=28 velocity=52 time=0.07083333333333333
EXTRACT: note_off channel=9 note=38 velocity=67 time=0.034375
EXTRACT: note_off channel=9 note=35 velocity=127 time=0.005208333333333333
EXTRACT: note_off channel=9 note=36 velocity=127 time=0
EXTRACT: note_off channel=5 note=58 velocity=127 time=0.01875
EXTRACT: note_off channel=8 note=58 velocity=127 time=0
EXTRACT: note_on channel=5 note=65 velocity=127 time=0.0020833333333333333
EXTRACT: note_on channel=9 note=28 velocity=52 time=0
EXTRACT: note_on channel=8 note=65 velocity=127 time=0
EXTRACT: note_off channel=9 note=28 velocity=52 time=0.18958333333333333
EXTRACT: note_off channel=5 note=65 velocity=127 time=0.058333333333333334
EXTRACT: note_off channel=8 note=65 velocity=127 time=0
EXTRACT: note_on channel=5 note=63 velocity=127 time=0.0020833333333333333
EXTRACT: note_on channel=9 note=43 velocity=43 time=0
EXTRACT: note_on channel=9 note=28 velocity=52 time=0
EXTRACT: note_on channel=9 note=35 velocity=127 time=0
EXTRACT: note_on channel=9 note=36 velocity=127 time=0
EXTRACT: note_on channel=9 note=38 velocity=67 time=0
EXTRACT: note_on channel=9 note=75 velocity=56 time=0
EXTRACT: note_on channel=8 note=63 velocity=127 time=0
EXTRACT: note_off channel=9 note=43 velocity=43 time=0.096875
EXTRACT: note_off channel=9 note=75 velocity=56 time=0.021875
EXTRACT: note_on channel=9 note=41 velocity=43 time=0.00625
EXTRACT: note_off channel=9 note=28 velocity=52 time=0.06458333333333333
EXTRACT: note_off channel=9 note=41 velocity=43 time=0.03229166666666666
EXTRACT: note_off channel=9 note=38 velocity=67 time=0.0020833333333333333
EXTRACT: note_off channel=9 note=35 velocity=127 time=0.005208333333333333
EXTRACT: note_off channel=9 note=36 velocity=127 time=0
EXTRACT: note_off channel=5 note=63 velocity=127 time=0.01875
EXTRACT: note_off channel=8 note=63 velocity=127 time=0
EXTRACT: note_on channel=5 note=63 velocity=127 time=0.0020833333333333333
EXTRACT: note_on channel=9 note=28 velocity=52 time=0
EXTRACT: note_on channel=9 note=42 velocity=127 time=0
EXTRACT: note_on channel=9 note=37 velocity=127 time=0
EXTRACT: note_on channel=9 note=62 velocity=127 time=0
EXTRACT: note_on channel=8 note=63 velocity=127 time=0
EXTRACT: note_on channel=9 note=35 velocity=127 time=0.125
EXTRACT: note_on channel=9 note=36 velocity=127 time=0
EXTRACT: note_on channel=9 note=38 velocity=65 time=0
EXTRACT: note_off channel=9 note=28 velocity=52 time=0.06458333333333333
EXTRACT: note_off channel=9 note=42 velocity=127 time=0.03958333333333333
EXTRACT: note_off channel=9 note=37 velocity=127 time=0
EXTRACT: note_off channel=5 note=63 velocity=127 time=0.01875
EXTRACT: note_off channel=8 note=63 velocity=127 time=0
EXTRACT: note_on channel=5 note=61 velocity=127 time=0.0020833333333333333
EXTRACT: note_on channel=9 note=28 velocity=54 time=0
EXTRACT: note_on channel=9 note=42 velocity=127 time=0
EXTRACT: note_on channel=9 note=37 velocity=127 time=0
EXTRACT: note_on channel=9 note=62 velocity=127 time=0
EXTRACT: note_on channel=9 note=75 velocity=60 time=0
EXTRACT: note_on channel=8 note=61 velocity=127 time=0
EXTRACT: note_off channel=9 note=62 velocity=127 time=0.0010416666666666667
EXTRACT: note_off channel=9 note=38 velocity=65 time=0.09791666666666667
EXTRACT: note_off channel=9 note=35 velocity=127 time=0.005208333333333333
EXTRACT: note_off channel=9 note=36 velocity=127 time=0
EXTRACT: note_off channel=9 note=75 velocity=60 time=0.014583333333333334
EXTRACT: note_on channel=9 note=75 velocity=58 time=0.00625
EXTRACT: note_off channel=9 note=28 velocity=54 time=0.06458333333333333
EXTRACT: note_off channel=9 note=42 velocity=127 time=0.03958333333333333
EXTRACT: note_off channel=9 note=37 velocity=127 time=0
EXTRACT: note_off channel=9 note=75 velocity=58 time=0.014583333333333334
EXTRACT: note_off channel=5 note=61 velocity=127 time=0.004166666666666667
EXTRACT: note_off channel=8 note=61 velocity=127 time=0
EXTRACT: note_on channel=5 note=61 velocity=127 time=0.0020833333333333333
EXTRACT: note_on channel=9 note=28 velocity=54 time=0
EXTRACT: note_on channel=9 note=35 velocity=127 time=0
EXTRACT: note_on channel=9 note=36 velocity=127 time=0
EXTRACT: note_on channel=9 note=38 velocity=65 time=0
EXTRACT: note_on channel=9 note=75 velocity=61 time=0
EXTRACT: note_on channel=8 note=61 velocity=127 time=0
EXTRACT: note_off channel=9 note=62 velocity=127 time=0.0010416666666666667
EXTRACT: note_off channel=9 note=75 velocity=61 time=0.11770833333333333
EXTRACT: note_off channel=9 note=28 velocity=54 time=0.07083333333333333
EXTRACT: note_off channel=9 note=38 velocity=65 time=0.034375
EXTRACT: note_off channel=9 note=35 velocity=127 time=0.005208333333333333
EXTRACT: note_off channel=9 note=36 velocity=127 time=0
EXTRACT: note_off channel=5 note=61 velocity=127 time=0.01875
EXTRACT: note_off channel=8 note=61 velocity=127 time=0
EXTRACT: note_on channel=5 note=58 velocity=127 time=0.0020833333333333333
EXTRACT: note_on channel=9 note=28 velocity=56 time=0
EXTRACT: note_on channel=9 note=75 velocity=61 time=0
EXTRACT: note_on channel=8 note=58 velocity=127 time=0
EXTRACT: note_off channel=9 note=75 velocity=61 time=0.11875
EXTRACT: note_on channel=9 note=75 velocity=61 time=0.00625
EXTRACT: note_off channel=9 note=28 velocity=56 time=0.06458333333333333
EXTRACT: note_off channel=9 note=75 velocity=61 time=0.05416666666666667
EXTRACT: note_off channel=5 note=58 velocity=127 time=0.004166666666666667
EXTRACT: note_off channel=8 note=58 velocity=127 time=0
EXTRACT: note_on channel=5 note=61 velocity=127 time=0.0020833333333333333
EXTRACT: note_on channel=9 note=28 velocity=52 time=0
EXTRACT: note_on channel=9 note=42 velocity=127 time=0
EXTRACT: note_on channel=9 note=37 velocity=127 time=0
EXTRACT: note_on channel=9 note=62 velocity=127 time=0
EXTRACT: note_on channel=9 note=75 velocity=61 time=0
EXTRACT: note_on channel=8 note=61 velocity=127 time=0
EXTRACT: note_off channel=9 note=75 velocity=61 time=0.11875
EXTRACT: note_off channel=9 note=28 velocity=52 time=0.07083333333333333
EXTRACT: note_off channel=9 note=42 velocity=127 time=0.03958333333333333
EXTRACT: note_off channel=9 note=37 velocity=127 time=0
EXTRACT: note_off channel=5 note=61 velocity=127 time=0.01875
EXTRACT: note_off channel=8 note=61 velocity=127 time=0
EXTRACT: note_on channel=5 note=58 velocity=127 time=0.0020833333333333333
EXTRACT: note_on channel=9 note=28 velocity=52 time=0
EXTRACT: note_on channel=9 note=35 velocity=127 time=0
EXTRACT: note_on channel=9 note=36 velocity=127 time=0
EXTRACT: note_on channel=9 note=38 velocity=67 time=0
EXTRACT: note_on channel=9 note=75 velocity=61 time=0
EXTRACT: note_on channel=8 note=58 velocity=127 time=0
EXTRACT: note_off channel=9 note=62 velocity=127 time=0.0010416666666666667
EXTRACT: note_off channel=9 note=75 velocity=61 time=0.11770833333333333
EXTRACT: note_off channel=9 note=28 velocity=52 time=0.07083333333333333
EXTRACT: note_off channel=9 note=38 velocity=67 time=0.034375
EXTRACT: note_off channel=9 note=35 velocity=127 time=0.005208333333333333
EXTRACT: note_off channel=9 note=36 velocity=127 time=0
EXTRACT: note_off channel=5 note=58 velocity=127 time=0.01875
EXTRACT: note_off channel=8 note=58 velocity=127 time=0
EXTRACT: note_on channel=5 note=65 velocity=127 time=0.0020833333333333333
EXTRACT: note_on channel=9 note=28 velocity=52 time=0
EXTRACT: note_on channel=8 note=65 velocity=127 time=0
EXTRACT: note_off channel=9 note=28 velocity=52 time=0.18958333333333333
EXTRACT: note_off channel=5 note=65 velocity=127 time=0.058333333333333334
EXTRACT: note_off channel=8 note=65 velocity=127 time=0
EXTRACT: note_on channel=5 note=63 velocity=127 time=0.0020833333333333333
EXTRACT: note_on channel=9 note=43 velocity=43 time=0
EXTRACT: note_on channel=9 note=28 velocity=52 time=0
EXTRACT: note_on channel=9 note=35 velocity=127 time=0
EXTRACT: note_on channel=9 note=36 velocity=127 time=0
EXTRACT: note_on channel=9 note=38 velocity=67 time=0
EXTRACT: note_on channel=9 note=75 velocity=56 time=0
EXTRACT: note_on channel=8 note=63 velocity=127 time=0
EXTRACT: note_off channel=9 note=43 velocity=43 time=0.096875
EXTRACT: note_off channel=9 note=75 velocity=56 time=0.021875
EXTRACT: note_on channel=9 note=41 velocity=43 time=0.00625
EXTRACT: note_off channel=9 note=28 velocity=52 time=0.06458333333333333
EXTRACT: note_off channel=9 note=41 velocity=43 time=0.03229166666666666
EXTRACT: note_off channel=9 note=38 velocity=67 time=0.0020833333333333333
EXTRACT: note_off channel=9 note=35 velocity=127 time=0.005208333333333333
EXTRACT: note_off channel=9 note=36 velocity=127 time=0
EXTRACT: note_off channel=5 note=63 velocity=127 time=0.01875
EXTRACT: note_off channel=8 note=63 velocity=127 time=0
EXTRACT: note_on channel=5 note=63 velocity=127 time=0.0020833333333333333
EXTRACT: note_on channel=9 note=28 velocity=52 time=0
EXTRACT: note_on channel=9 note=42 velocity=127 time=0
EXTRACT: note_on channel=9 note=37 velocity=127 time=0
EXTRACT: note_on channel=9 note=62 velocity=127 time=0
EXTRACT: note_on channel=8 note=63 velocity=127 time=0
EXTRACT: note_on channel=9 note=35 velocity=127 time=0.125
EXTRACT: note_on channel=9 note=36 velocity=127 time=0
EXTRACT: note_on channel=9 note=38 velocity=65 time=0
EXTRACT: note_off channel=9 note=28 velocity=52 time=0.06458333333333333
EXTRACT: note_off channel=9 note=42 velocity=127 time=0.03958333333333333
EXTRACT: note_off channel=9 note=37 velocity=127 time=0
EXTRACT: note_off channel=5 note=63 velocity=127 time=0.01875
EXTRACT: note_off channel=8 note=63 velocity=127 time=0
EXTRACT: note_on channel=5 note=61 velocity=127 time=0.0020833333333333333
EXTRACT: note_on channel=9 note=28 velocity=54 time=0
EXTRACT: note_on channel=9 note=42 velocity=127 time=0
EXTRACT: note_on channel=9 note=37 velocity=127 time=0
EXTRACT: note_on channel=9 note=62 velocity=127 time=0
EXTRACT: note_on channel=9 note=75 velocity=60 time=0
EXTRACT: note_on channel=8 note=61 velocity=127 time=0
EXTRACT: note_off channel=9 note=62 velocity=127 time=0.0010416666666666667
EXTRACT: note_off channel=9 note=38 velocity=65 time=0.09791666666666667
EXTRACT: note_off channel=9 note=35 velocity=127 time=0.005208333333333333
EXTRACT: note_off channel=9 note=36 velocity=127 time=0
EXTRACT: note_off channel=9 note=75 velocity=60 time=0.014583333333333334
EXTRACT: note_on channel=9 note=75 velocity=58 time=0.00625
EXTRACT: note_off channel=9 note=28 velocity=54 time=0.06458333333333333
EXTRACT: note_off channel=9 note=42 velocity=127 time=0.03958333333333333
EXTRACT: note_off channel=9 note=37 velocity=127 time=0
EXTRACT: note_off channel=9 note=75 velocity=58 time=0.014583333333333334
EXTRACT: note_off channel=5 note=61 velocity=127 time=0.004166666666666667
EXTRACT: note_off channel=8 note=61 velocity=127 time=0
EXTRACT: note_on channel=5 note=61 velocity=127 time=0.0020833333333333333
EXTRACT: note_on channel=9 note=28 velocity=54 time=0
EXTRACT: note_on channel=9 note=35 velocity=127 time=0
EXTRACT: note_on channel=9 note=36 velocity=127 time=0
EXTRACT: note_on channel=9 note=38 velocity=65 time=0
EXTRACT: note_on channel=9 note=75 velocity=61 time=0
EXTRACT: note_on channel=7 note=22 velocity=127 time=0
EXTRACT: note_on channel=8 note=61 velocity=127 time=0
EXTRACT: note_off channel=9 note=62 velocity=127 time=0.0010416666666666667
EXTRACT: note_off channel=9 note=75 velocity=61 time=0.11770833333333333
EXTRACT: note_off channel=9 note=28 velocity=54 time=0.07083333333333333
EXTRACT: note_off channel=9 note=38 velocity=65 time=0.034375
EXTRACT: note_off channel=9 note=35 velocity=127 time=0.005208333333333333
EXTRACT: note_off channel=9 note=36 velocity=127 time=0
EXTRACT: note_off channel=5 note=61 velocity=127 time=0.01875
EXTRACT: note_off channel=8 note=61 velocity=127 time=0
EXTRACT: note_on channel=5 note=58 velocity=127 time=0.0020833333333333333
EXTRACT: note_on channel=9 note=28 velocity=56 time=0
EXTRACT: note_on channel=9 note=75 velocity=61 time=0
EXTRACT: note_on channel=8 note=58 velocity=127 time=0
EXTRACT: note_off channel=9 note=75 velocity=61 time=0.11875
EXTRACT: note_on channel=9 note=75 velocity=61 time=0.00625
EXTRACT: note_off channel=9 note=28 velocity=56 time=0.06458333333333333
EXTRACT: note_off channel=9 note=75 velocity=61 time=0.05416666666666667
EXTRACT: note_off channel=5 note=58 velocity=127 time=0.004166666666666667
EXTRACT: note_off channel=8 note=58 velocity=127 time=0
EXTRACT: note_on channel=5 note=61 velocity=127 time=0.0020833333333333333
EXTRACT: note_on channel=9 note=28 velocity=52 time=0
EXTRACT: note_on channel=9 note=42 velocity=127 time=0
EXTRACT: note_on channel=9 note=37 velocity=127 time=0
EXTRACT: note_on channel=9 note=62 velocity=127 time=0
EXTRACT: note_on channel=9 note=75 velocity=61 time=0
EXTRACT: note_on channel=8 note=61 velocity=127 time=0
EXTRACT: note_off channel=7 note=22 velocity=127 time=0.015625
EXTRACT: note_off channel=9 note=75 velocity=61 time=0.103125
EXTRACT: note_off channel=9 note=28 velocity=52 time=0.07083333333333333
EXTRACT: note_off channel=9 note=42 velocity=127 time=0.03958333333333333
EXTRACT: note_off channel=9 note=37 velocity=127 time=0
EXTRACT: note_off channel=5 note=61 velocity=127 time=0.01875
EXTRACT: note_off channel=8 note=61 velocity=127 time=0
EXTRACT: note_on channel=5 note=58 velocity=127 time=0.0020833333333333333
EXTRACT: note_on channel=9 note=28 velocity=52 time=0
EXTRACT: note_on channel=9 note=35 velocity=127 time=0
EXTRACT: note_on channel=9 note=36 velocity=127 time=0
EXTRACT: note_on channel=9 note=38 velocity=67 time=0
EXTRACT: note_on channel=9 note=75 velocity=61 time=0
EXTRACT: note_on channel=8 note=58 velocity=127 time=0
EXTRACT: note_off channel=9 note=62 velocity=127 time=0.0010416666666666667
EXTRACT: note_off channel=9 note=75 velocity=61 time=0.11770833333333333
EXTRACT: note_off channel=9 note=28 velocity=52 time=0.07083333333333333
EXTRACT: note_off channel=9 note=38 velocity=67 time=0.034375
EXTRACT: note_off channel=9 note=35 velocity=127 time=0.005208333333333333
EXTRACT: note_off channel=9 note=36 velocity=127 time=0
EXTRACT: note_off channel=5 note=58 velocity=127 time=0.01875
EXTRACT: note_off channel=8 note=58 velocity=127 time=0
EXTRACT: note_on channel=5 note=65 velocity=127 time=0.0020833333333333333
EXTRACT: note_on channel=9 note=28 velocity=52 time=0
EXTRACT: note_on channel=8 note=65 velocity=127 time=0
EXTRACT: note_off channel=9 note=28 velocity=52 time=0.18958333333333333
EXTRACT: note_off channel=5 note=65 velocity=127 time=0.058333333333333334
EXTRACT: note_off channel=8 note=65 velocity=127 time=0
EXTRACT: note_on channel=5 note=63 velocity=127 time=0.0020833333333333333
EXTRACT: note_on channel=9 note=43 velocity=43 time=0
EXTRACT: note_on channel=9 note=28 velocity=52 time=0
EXTRACT: note_on channel=9 note=35 velocity=127 time=0
EXTRACT: note_on channel=9 note=36 velocity=127 time=0
EXTRACT: note_on channel=9 note=38 velocity=67 time=0
EXTRACT: note_on channel=9 note=75 velocity=56 time=0
EXTRACT: note_on channel=8 note=63 velocity=127 time=0
EXTRACT: note_off channel=9 note=43 velocity=43 time=0.096875
EXTRACT: note_off channel=9 note=75 velocity=56 time=0.021875
EXTRACT: note_on channel=9 note=41 velocity=43 time=0.00625
EXTRACT: note_off channel=9 note=28 velocity=52 time=0.06458333333333333
EXTRACT: note_off channel=9 note=41 velocity=43 time=0.03229166666666666
EXTRACT: note_off channel=9 note=38 velocity=67 time=0.0020833333333333333
EXTRACT: note_off channel=9 note=35 velocity=127 time=0.005208333333333333
EXTRACT: note_off channel=9 note=36 velocity=127 time=0
EXTRACT: note_off channel=5 note=63 velocity=127 time=0.01875
EXTRACT: note_off channel=8 note=63 velocity=127 time=0
EXTRACT: note_on channel=5 note=63 velocity=127 time=0.0020833333333333333
EXTRACT: note_on channel=9 note=28 velocity=52 time=0
EXTRACT: note_on channel=9 note=42 velocity=127 time=0
EXTRACT: note_on channel=9 note=37 velocity=127 time=0
EXTRACT: note_on channel=9 note=62 velocity=127 time=0
EXTRACT: note_on channel=8 note=63 velocity=127 time=0
EXTRACT: note_on channel=9 note=35 velocity=127 time=0.125
EXTRACT: note_on channel=9 note=36 velocity=127 time=0
EXTRACT: note_on channel=9 note=38 velocity=65 time=0
EXTRACT: note_off channel=9 note=28 velocity=52 time=0.06458333333333333
EXTRACT: note_off channel=9 note=42 velocity=127 time=0.03958333333333333
EXTRACT: note_off channel=9 note=37 velocity=127 time=0
EXTRACT: note_off channel=5 note=63 velocity=127 time=0.01875
EXTRACT: note_off channel=8 note=63 velocity=127 time=0
EXTRACT: note_on channel=5 note=61 velocity=127 time=0.0020833333333333333
EXTRACT: note_on channel=9 note=28 velocity=54 time=0
EXTRACT: note_on channel=9 note=42 velocity=127 time=0
EXTRACT: note_on channel=9 note=37 velocity=127 time=0
EXTRACT: note_on channel=9 note=62 velocity=127 time=0
EXTRACT: note_on channel=9 note=75 velocity=60 time=0
EXTRACT: note_on channel=8 note=61 velocity=127 time=0
EXTRACT: note_off channel=9 note=62 velocity=127 time=0.0010416666666666667
EXTRACT: note_off channel=9 note=38 velocity=65 time=0.09791666666666667
EXTRACT: note_off channel=9 note=35 velocity=127 time=0.005208333333333333
EXTRACT: note_off channel=9 note=36 velocity=127 time=0
EXTRACT: note_off channel=9 note=75 velocity=60 time=0.014583333333333334
EXTRACT: note_on channel=9 note=75 velocity=58 time=0.00625
EXTRACT: note_off channel=9 note=28 velocity=54 time=0.06458333333333333
EXTRACT: note_off channel=9 note=42 velocity=127 time=0.03958333333333333
EXTRACT: note_off channel=9 note=37 velocity=127 time=0
EXTRACT: note_off channel=9 note=75 velocity=58 time=0.014583333333333334
EXTRACT: note_off channel=5 note=61 velocity=127 time=0.004166666666666667
EXTRACT: note_off channel=8 note=61 velocity=127 time=0
EXTRACT: note_on channel=5 note=61 velocity=127 time=0.0020833333333333333
EXTRACT: note_on channel=9 note=36 velocity=127 time=0
EXTRACT: note_on channel=9 note=35 velocity=127 time=0
EXTRACT: note_on channel=9 note=28 velocity=54 time=0
EXTRACT: note_on channel=9 note=38 velocity=65 time=0
EXTRACT: note_on channel=9 note=75 velocity=61 time=0
EXTRACT: note_on channel=8 note=61 velocity=127 time=0
EXTRACT: note_off channel=9 note=62 velocity=127 time=0.0010416666666666667
EXTRACT: note_off channel=9 note=75 velocity=61 time=0.11770833333333333
EXTRACT: note_off channel=9 note=28 velocity=54 time=0.07083333333333333
EXTRACT: note_off channel=9 note=38 velocity=65 time=0.034375
EXTRACT: note_off channel=9 note=36 velocity=127 time=0.005208333333333333
EXTRACT: note_off channel=9 note=35 velocity=127 time=0
EXTRACT: note_off channel=5 note=61 velocity=127 time=0.01875
EXTRACT: note_off channel=8 note=61 velocity=127 time=0
EXTRACT: note_on channel=5 note=58 velocity=127 time=0.0020833333333333333
EXTRACT: note_on channel=9 note=28 velocity=56 time=0
EXTRACT: note_on channel=9 note=75 velocity=61 time=0
EXTRACT: note_on channel=8 note=58 velocity=127 time=0
EXTRACT: note_off channel=9 note=75 velocity=61 time=0.11875
EXTRACT: note_on channel=9 note=75 velocity=61 time=0.00625
EXTRACT: note_off channel=9 note=28 velocity=56 time=0.06458333333333333
EXTRACT: note_off channel=9 note=75 velocity=61 time=0.05416666666666667
EXTRACT: note_off channel=5 note=58 velocity=127 time=0.004166666666666667
EXTRACT: note_off channel=8 note=58 velocity=127 time=0
EXTRACT: note_on channel=5 note=61 velocity=127 time=0.0020833333333333333
EXTRACT: note_on channel=9 note=37 velocity=127 time=0
EXTRACT: note_on channel=9 note=42 velocity=127 time=0
EXTRACT: note_on channel=9 note=28 velocity=52 time=0
EXTRACT: note_on channel=9 note=75 velocity=61 time=0
EXTRACT: note_on channel=9 note=62 velocity=127 time=0
EXTRACT: note_on channel=8 note=61 velocity=127 time=0
EXTRACT: note_off channel=9 note=75 velocity=61 time=0.11875
EXTRACT: note_off channel=9 note=28 velocity=52 time=0.07083333333333333
EXTRACT: note_off channel=9 note=37 velocity=127 time=0.03958333333333333
EXTRACT: note_off channel=9 note=42 velocity=127 time=0
EXTRACT: note_off channel=5 note=61 velocity=127 time=0.01875
EXTRACT: note_off channel=8 note=61 velocity=127 time=0
EXTRACT: note_on channel=5 note=58 velocity=127 time=0.0020833333333333333
EXTRACT: note_on channel=9 note=36 velocity=127 time=0
EXTRACT: note_on channel=9 note=35 velocity=127 time=0
EXTRACT: note_on channel=9 note=28 velocity=52 time=0
EXTRACT: note_on channel=9 note=38 velocity=67 time=0
EXTRACT: note_on channel=9 note=75 velocity=61 time=0
EXTRACT: note_on channel=8 note=58 velocity=127 time=0
EXTRACT: note_off channel=9 note=62 velocity=127 time=0.0010416666666666667
EXTRACT: note_off channel=9 note=75 velocity=61 time=0.11770833333333333
EXTRACT: note_off channel=9 note=28 velocity=52 time=0.07083333333333333
EXTRACT: note_off channel=9 note=38 velocity=67 time=0.034375
EXTRACT: note_off channel=9 note=36 velocity=127 time=0.005208333333333333
EXTRACT: note_off channel=9 note=35 velocity=127 time=0
EXTRACT: note_off channel=5 note=58 velocity=127 time=0.01875
EXTRACT: note_off channel=8 note=58 velocity=127 time=0
EXTRACT: note_on channel=5 note=65 velocity=127 time=0.0020833333333333333
EXTRACT: note_on channel=9 note=28 velocity=52 time=0
EXTRACT: note_on channel=8 note=65 velocity=127 time=0
EXTRACT: note_off channel=9 note=28 velocity=52 time=0.18958333333333333
EXTRACT: note_off channel=5 note=65 velocity=127 time=0.058333333333333334
EXTRACT: note_off channel=8 note=65 velocity=127 time=0
EXTRACT: note_on channel=5 note=63 velocity=127 time=0.0020833333333333333
EXTRACT: note_on channel=9 note=36 velocity=127 time=0
EXTRACT: note_on channel=9 note=35 velocity=127 time=0
EXTRACT: note_on channel=9 note=28 velocity=52 time=0
EXTRACT: note_on channel=9 note=43 velocity=43 time=0
EXTRACT: note_on channel=9 note=38 velocity=67 time=0
EXTRACT: note_on channel=9 note=75 velocity=56 time=0
EXTRACT: note_on channel=8 note=63 velocity=127 time=0
EXTRACT: note_off channel=9 note=43 velocity=43 time=0.096875
EXTRACT: note_off channel=9 note=75 velocity=56 time=0.021875
EXTRACT: note_on channel=9 note=41 velocity=43 time=0.00625
EXTRACT: note_off channel=9 note=28 velocity=52 time=0.06458333333333333
EXTRACT: note_off channel=9 note=41 velocity=43 time=0.03229166666666666
EXTRACT: note_off channel=9 note=38 velocity=67 time=0.0020833333333333333
EXTRACT: note_off channel=9 note=36 velocity=127 time=0.005208333333333333
EXTRACT: note_off channel=9 note=35 velocity=127 time=0
EXTRACT: note_off channel=5 note=63 velocity=127 time=0.01875
EXTRACT: note_off channel=8 note=63 velocity=127 time=0
EXTRACT: note_on channel=5 note=63 velocity=127 time=0.0020833333333333333
EXTRACT: note_on channel=9 note=37 velocity=127 time=0
EXTRACT: note_on channel=9 note=42 velocity=127 time=0
EXTRACT: note_on channel=9 note=28 velocity=52 time=0
EXTRACT: note_on channel=9 note=62 velocity=127 time=0
EXTRACT: note_on channel=8 note=63 velocity=127 time=0
EXTRACT: note_on channel=9 note=36 velocity=127 time=0.125
EXTRACT: note_on channel=9 note=35 velocity=127 time=0
EXTRACT: note_on channel=9 note=38 velocity=65 time=0
EXTRACT: note_off channel=9 note=28 velocity=52 time=0.06458333333333333
EXTRACT: note_off channel=9 note=37 velocity=127 time=0.03958333333333333
EXTRACT: note_off channel=9 note=42 velocity=127 time=0
EXTRACT: note_off channel=5 note=63 velocity=127 time=0.01875
EXTRACT: note_off channel=8 note=63 velocity=127 time=0
EXTRACT: note_on channel=5 note=61 velocity=127 time=0.0020833333333333333
EXTRACT: note_on channel=9 note=37 velocity=127 time=0
EXTRACT: note_on channel=9 note=42 velocity=127 time=0
EXTRACT: note_on channel=9 note=28 velocity=54 time=0
EXTRACT: note_on channel=9 note=75 velocity=60 time=0
EXTRACT: note_on channel=9 note=62 velocity=127 time=0
EXTRACT: note_on channel=8 note=61 velocity=127 time=0
EXTRACT: note_off channel=9 note=62 velocity=127 time=0.0010416666666666667
EXTRACT: note_off channel=9 note=38 velocity=65 time=0.09791666666666667
EXTRACT: note_off channel=9 note=36 velocity=127 time=0.005208333333333333
EXTRACT: note_off channel=9 note=35 velocity=127 time=0
EXTRACT: note_off channel=9 note=75 velocity=60 time=0.014583333333333334
EXTRACT: note_on channel=9 note=75 velocity=58 time=0.00625
EXTRACT: note_off channel=9 note=28 velocity=54 time=0.06458333333333333
EXTRACT: note_off channel=9 note=37 velocity=127 time=0.03958333333333333
EXTRACT: note_off channel=9 note=42 velocity=127 time=0
EXTRACT: note_off channel=9 note=75 velocity=58 time=0.014583333333333334
EXTRACT: note_off channel=5 note=61 velocity=127 time=0.004166666666666667
EXTRACT: note_off channel=8 note=61 velocity=127 time=0
EXTRACT: note_on channel=5 note=61 velocity=127 time=0.0020833333333333333
EXTRACT: note_on channel=9 note=36 velocity=127 time=0
EXTRACT: note_on channel=9 note=35 velocity=127 time=0
EXTRACT: note_on channel=9 note=28 velocity=54 time=0
EXTRACT: note_on channel=9 note=38 velocity=65 time=0
EXTRACT: note_on channel=9 note=75 velocity=61 time=0
EXTRACT: note_on channel=8 note=61 velocity=127 time=0
EXTRACT: note_off channel=9 note=62 velocity=127 time=0.0010416666666666667
EXTRACT: note_off channel=9 note=75 velocity=61 time=0.11770833333333333
EXTRACT: note_off channel=9 note=28 velocity=54 time=0.07083333333333333
EXTRACT: note_off channel=9 note=38 velocity=65 time=0.034375
EXTRACT: note_off channel=9 note=36 velocity=127 time=0.005208333333333333
EXTRACT: note_off channel=9 note=35 velocity=127 time=0
EXTRACT: note_off channel=5 note=61 velocity=127 time=0.01875
EXTRACT: note_off channel=8 note=61 velocity=127 time=0
EXTRACT: note_on channel=5 note=58 velocity=127 time=0.0020833333333333333
EXTRACT: note_on channel=9 note=28 velocity=56 time=0
EXTRACT: note_on channel=9 note=75 velocity=61 time=0
EXTRACT: note_on channel=8 note=58 velocity=127 time=0
EXTRACT: note_off channel=9 note=75 velocity=61 time=0.11875
EXTRACT: note_on channel=9 note=75 velocity=61 time=0.00625
EXTRACT: note_off channel=9 note=28 velocity=56 time=0.06458333333333333
EXTRACT: note_off channel=9 note=75 velocity=61 time=0.05416666666666667
EXTRACT: note_off channel=5 note=58 velocity=127 time=0.004166666666666667
EXTRACT: note_off channel=8 note=58 velocity=127 time=0
EXTRACT: note_on channel=5 note=61 velocity=127 time=0.0020833333333333333
EXTRACT: note_on channel=9 note=37 velocity=127 time=0
EXTRACT: note_on channel=9 note=42 velocity=127 time=0
EXTRACT: note_on channel=9 note=28 velocity=52 time=0
EXTRACT: note_on channel=9 note=75 velocity=61 time=0
EXTRACT: note_on channel=9 note=62 velocity=127 time=0
EXTRACT: note_on channel=8 note=61 velocity=127 time=0
EXTRACT: note_off channel=9 note=75 velocity=61 time=0.11875
EXTRACT: note_off channel=9 note=28 velocity=52 time=0.07083333333333333
EXTRACT: note_off channel=9 note=37 velocity=127 time=0.03958333333333333
EXTRACT: note_off channel=9 note=42 velocity=127 time=0
EXTRACT: note_off channel=5 note=61 velocity=127 time=0.01875
EXTRACT: note_off channel=8 note=61 velocity=127 time=0
EXTRACT: note_on channel=5 note=58 velocity=127 time=0.0020833333333333333
EXTRACT: note_on channel=9 note=36 velocity=127 time=0
EXTRACT: note_on channel=9 note=35 velocity=127 time=0
EXTRACT: note_on channel=9 note=28 velocity=52 time=0
EXTRACT: note_on channel=9 note=38 velocity=67 time=0
EXTRACT: note_on channel=9 note=75 velocity=61 time=0
EXTRACT: note_on channel=8 note=58 velocity=127 time=0
EXTRACT: note_off channel=9 note=62 velocity=127 time=0.0010416666666666667
EXTRACT: note_off channel=9 note=75 velocity=61 time=0.11770833333333333
EXTRACT: note_off channel=9 note=28 velocity=52 time=0.07083333333333333
EXTRACT: note_off channel=9 note=38 velocity=67 time=0.034375
EXTRACT: note_off channel=9 note=36 velocity=127 time=0.005208333333333333
EXTRACT: note_off channel=9 note=35 velocity=127 time=0
EXTRACT: note_off channel=5 note=58 velocity=127 time=0.01875
EXTRACT: note_off channel=8 note=58 velocity=127 time=0
EXTRACT: note_on channel=5 note=65 velocity=127 time=0.0020833333333333333
EXTRACT: note_on channel=9 note=28 velocity=52 time=0
EXTRACT: note_on channel=8 note=65 velocity=127 time=0
EXTRACT: note_off channel=9 note=28 velocity=52 time=0.18958333333333333
EXTRACT: note_off channel=5 note=65 velocity=127 time=0.058333333333333334
EXTRACT: note_off channel=8 note=65 velocity=127 time=0
EXTRACT: note_on channel=5 note=63 velocity=127 time=0.0020833333333333333
EXTRACT: note_on channel=9 note=36 velocity=127 time=0
EXTRACT: note_on channel=9 note=35 velocity=127 time=0
EXTRACT: note_on channel=9 note=28 velocity=52 time=0
EXTRACT: note_on channel=9 note=43 velocity=43 time=0
EXTRACT: note_on channel=9 note=38 velocity=67 time=0
EXTRACT: note_on channel=9 note=75 velocity=56 time=0
EXTRACT: note_on channel=8 note=63 velocity=127 time=0
EXTRACT: note_off channel=9 note=43 velocity=43 time=0.096875
EXTRACT: note_off channel=9 note=75 velocity=56 time=0.021875
EXTRACT: note_on channel=9 note=41 velocity=43 time=0.00625
EXTRACT: note_off channel=9 note=28 velocity=52 time=0.06458333333333333
EXTRACT: note_off channel=9 note=41 velocity=43 time=0.03229166666666666
EXTRACT: note_off channel=9 note=38 velocity=67 time=0.0020833333333333333
EXTRACT: note_off channel=9 note=36 velocity=127 time=0.005208333333333333
EXTRACT: note_off channel=9 note=35 velocity=127 time=0
EXTRACT: note_off channel=5 note=63 velocity=127 time=0.01875
EXTRACT: note_off channel=8 note=63 velocity=127 time=0
EXTRACT: note_on channel=5 note=63 velocity=127 time=0.0020833333333333333
EXTRACT: note_on channel=9 note=37 velocity=127 time=0
EXTRACT: note_on channel=9 note=42 velocity=127 time=0
EXTRACT: note_on channel=9 note=28 velocity=52 time=0
EXTRACT: note_on channel=9 note=62 velocity=127 time=0
EXTRACT: note_on channel=8 note=63 velocity=127 time=0
EXTRACT: note_on channel=9 note=36 velocity=127 time=0.125
EXTRACT: note_on channel=9 note=35 velocity=127 time=0
EXTRACT: note_on channel=9 note=38 velocity=65 time=0
EXTRACT: note_off channel=9 note=28 velocity=52 time=0.06458333333333333
EXTRACT: note_off channel=9 note=37 velocity=127 time=0.03958333333333333
EXTRACT: note_off channel=9 note=42 velocity=127 time=0
EXTRACT: note_off channel=5 note=63 velocity=127 time=0.01875
EXTRACT: note_off channel=8 note=63 velocity=127 time=0
EXTRACT: note_on channel=5 note=61 velocity=127 time=0.0020833333333333333
EXTRACT: note_on channel=9 note=37 velocity=127 time=0
EXTRACT: note_on channel=9 note=42 velocity=127 time=0
EXTRACT: note_on channel=9 note=28 velocity=54 time=0
EXTRACT: note_on channel=9 note=75 velocity=60 time=0
EXTRACT: note_on channel=9 note=62 velocity=127 time=0
EXTRACT: note_on channel=8 note=61 velocity=127 time=0
EXTRACT: note_off channel=9 note=62 velocity=127 time=0.0010416666666666667
EXTRACT: note_off channel=9 note=38 velocity=65 time=0.09791666666666667
EXTRACT: note_off channel=9 note=36 velocity=127 time=0.005208333333333333
EXTRACT: note_off channel=9 note=35 velocity=127 time=0
EXTRACT: note_off channel=9 note=75 velocity=60 time=0.014583333333333334
EXTRACT: note_on channel=9 note=75 velocity=58 time=0.00625
EXTRACT: note_off channel=9 note=28 velocity=54 time=0.06458333333333333
EXTRACT: note_off channel=9 note=37 velocity=127 time=0.03958333333333333
EXTRACT: note_off channel=9 note=42 velocity=127 time=0
EXTRACT: note_off channel=9 note=75 velocity=58 time=0.014583333333333334
EXTRACT: note_off channel=5 note=61 velocity=127 time=0.004166666666666667
EXTRACT: note_off channel=8 note=61 velocity=127 time=0
EXTRACT: note_on channel=5 note=61 velocity=127 time=0.0020833333333333333
EXTRACT: note_on channel=9 note=36 velocity=127 time=0
EXTRACT: note_on channel=9 note=35 velocity=127 time=0
EXTRACT: note_on channel=9 note=28 velocity=54 time=0
EXTRACT: note_on channel=9 note=38 velocity=65 time=0
EXTRACT: note_on channel=9 note=75 velocity=61 time=0
EXTRACT: note_on channel=8 note=61 velocity=127 time=0
EXTRACT: note_off channel=9 note=62 velocity=127 time=0.0010416666666666667
EXTRACT: note_off channel=9 note=75 velocity=61 time=0.11770833333333333
EXTRACT: note_off channel=9 note=28 velocity=54 time=0.07083333333333333
EXTRACT: note_off channel=9 note=38 velocity=65 time=0.034375
EXTRACT: note_off channel=9 note=36 velocity=127 time=0.005208333333333333
EXTRACT: note_off channel=9 note=35 velocity=127 time=0
EXTRACT: note_off channel=5 note=61 velocity=127 time=0.01875
EXTRACT: note_off channel=8 note=61 velocity=127 time=0
EXTRACT: note_on channel=5 note=58 velocity=127 time=0.0020833333333333333
EXTRACT: note_on channel=9 note=28 velocity=56 time=0
EXTRACT: note_on channel=9 note=75 velocity=61 time=0
EXTRACT: note_on channel=8 note=58 velocity=127 time=0
EXTRACT: note_off channel=9 note=75 velocity=61 time=0.11875
EXTRACT: note_on channel=9 note=75 velocity=61 time=0.00625
EXTRACT: note_off channel=9 note=28 velocity=56 time=0.06458333333333333
EXTRACT: note_off channel=9 note=75 velocity=61 time=0.05416666666666667
EXTRACT: note_off channel=5 note=58 velocity=127 time=0.004166666666666667
EXTRACT: note_off channel=8 note=58 velocity=127 time=0
EXTRACT: note_on channel=5 note=61 velocity=127 time=0.0020833333333333333
EXTRACT: note_on channel=9 note=37 velocity=127 time=0
EXTRACT: note_on channel=9 note=42 velocity=127 time=0
EXTRACT: note_on channel=9 note=28 velocity=52 time=0
EXTRACT: note_on channel=9 note=75 velocity=61 time=0
EXTRACT: note_on channel=9 note=62 velocity=127 time=0
EXTRACT: note_on channel=8 note=61 velocity=127 time=0
EXTRACT: note_off channel=9 note=75 velocity=61 time=0.11875
EXTRACT: note_off channel=9 note=28 velocity=52 time=0.07083333333333333
EXTRACT: note_off channel=9 note=37 velocity=127 time=0.03958333333333333
EXTRACT: note_off channel=9 note=42 velocity=127 time=0
EXTRACT: note_off channel=5 note=61 velocity=127 time=0.01875
EXTRACT: note_off channel=8 note=61 velocity=127 time=0
EXTRACT: note_on channel=5 note=58 velocity=127 time=0.0020833333333333333
EXTRACT: note_on channel=9 note=36 velocity=127 time=0
EXTRACT: note_on channel=9 note=35 velocity=127 time=0
EXTRACT: note_on channel=9 note=28 velocity=52 time=0
EXTRACT: note_on channel=9 note=38 velocity=67 time=0
EXTRACT: note_on channel=9 note=75 velocity=61 time=0
EXTRACT: note_on channel=8 note=58 velocity=127 time=0
EXTRACT: note_off channel=9 note=62 velocity=127 time=0.0010416666666666667
EXTRACT: note_off channel=9 note=75 velocity=61 time=0.11770833333333333
EXTRACT: note_off channel=9 note=28 velocity=52 time=0.07083333333333333
EXTRACT: note_off channel=9 note=38 velocity=67 time=0.034375
EXTRACT: note_off channel=9 note=36 velocity=127 time=0.005208333333333333
EXTRACT: note_off channel=9 note=35 velocity=127 time=0
EXTRACT: note_off channel=5 note=58 velocity=127 time=0.01875
EXTRACT: note_off channel=8 note=58 velocity=127 time=0
EXTRACT: note_on channel=5 note=65 velocity=127 time=0.0020833333333333333
EXTRACT: note_on channel=9 note=28 velocity=52 time=0
EXTRACT: note_on channel=8 note=65 velocity=127 time=0
EXTRACT: note_off channel=9 note=28 velocity=52 time=0.18958333333333333
EXTRACT: note_off channel=5 note=65 velocity=127 time=0.058333333333333334
EXTRACT: note_off channel=8 note=65 velocity=127 time=0
EXTRACT: note_on channel=5 note=63 velocity=127 time=0.0020833333333333333
EXTRACT: note_on channel=9 note=36 velocity=127 time=0
EXTRACT: note_on channel=9 note=35 velocity=127 time=0
EXTRACT: note_on channel=9 note=28 velocity=52 time=0
EXTRACT: note_on channel=9 note=43 velocity=43 time=0
EXTRACT: note_on channel=9 note=38 velocity=67 time=0
EXTRACT: note_on channel=9 note=75 velocity=56 time=0
EXTRACT: note_on channel=8 note=63 velocity=127 time=0
EXTRACT: note_off channel=9 note=43 velocity=43 time=0.096875
EXTRACT: note_off channel=9 note=75 velocity=56 time=0.021875
EXTRACT: note_on channel=9 note=41 velocity=43 time=0.00625
EXTRACT: note_off channel=9 note=28 velocity=52 time=0.06458333333333333
EXTRACT: note_off channel=9 note=41 velocity=43 time=0.03229166666666666
EXTRACT: note_off channel=9 note=38 velocity=67 time=0.0020833333333333333
EXTRACT: note_off channel=9 note=36 velocity=127 time=0.005208333333333333
EXTRACT: note_off channel=9 note=35 velocity=127 time=0
EXTRACT: note_off channel=5 note=63 velocity=127 time=0.01875
EXTRACT: note_off channel=8 note=63 velocity=127 time=0
EXTRACT: note_on channel=5 note=63 velocity=127 time=0.0020833333333333333
EXTRACT: note_on channel=9 note=37 velocity=127 time=0
EXTRACT: note_on channel=9 note=42 velocity=127 time=0
EXTRACT: note_on channel=9 note=28 velocity=52 time=0
EXTRACT: note_on channel=9 note=62 velocity=127 time=0
EXTRACT: note_on channel=8 note=63 velocity=127 time=0
EXTRACT: note_on channel=9 note=36 velocity=127 time=0.125
EXTRACT: note_on channel=9 note=35 velocity=127 time=0
EXTRACT: note_on channel=9 note=38 velocity=65 time=0
EXTRACT: note_off channel=9 note=28 velocity=52 time=0.06458333333333333
EXTRACT: note_off channel=9 note=37 velocity=127 time=0.03958333333333333
EXTRACT: note_off channel=9 note=42 velocity=127 time=0
EXTRACT: note_off channel=5 note=63 velocity=127 time=0.01875
EXTRACT: note_off channel=8 note=63 velocity=127 time=0
EXTRACT: note_on channel=5 note=61 velocity=127 time=0.0020833333333333333
EXTRACT: note_on channel=9 note=37 velocity=127 time=0
EXTRACT: note_on channel=9 note=42 velocity=127 time=0
EXTRACT: note_on channel=9 note=28 velocity=54 time=0
EXTRACT: note_on channel=9 note=75 velocity=60 time=0
EXTRACT: note_on channel=9 note=62 velocity=127 time=0
EXTRACT: note_on channel=8 note=61 velocity=127 time=0
EXTRACT: note_off channel=9 note=62 velocity=127 time=0.0010416666666666667
EXTRACT: note_off channel=9 note=38 velocity=65 time=0.09791666666666667
EXTRACT: note_off channel=9 note=36 velocity=127 time=0.005208333333333333
EXTRACT: note_off channel=9 note=35 velocity=127 time=0
EXTRACT: note_off channel=9 note=75 velocity=60 time=0.014583333333333334
EXTRACT: note_on channel=9 note=75 velocity=58 time=0.00625
EXTRACT: note_off channel=9 note=28 velocity=54 time=0.06458333333333333
EXTRACT: note_off channel=9 note=37 velocity=127 time=0.03958333333333333
EXTRACT: note_off channel=9 note=42 velocity=127 time=0
EXTRACT: note_off channel=9 note=75 velocity=58 time=0.014583333333333334
EXTRACT: note_off channel=5 note=61 velocity=127 time=0.004166666666666667
EXTRACT: note_off channel=8 note=61 velocity=127 time=0
EXTRACT: note_on channel=5 note=61 velocity=127 time=0.0020833333333333333
EXTRACT: note_on channel=9 note=28 velocity=54 time=0
EXTRACT: note_on channel=9 note=35 velocity=127 time=0
EXTRACT: note_on channel=9 note=36 velocity=127 time=0
EXTRACT: note_on channel=9 note=38 velocity=65 time=0
EXTRACT: note_on channel=9 note=75 velocity=61 time=0
EXTRACT: note_on channel=7 note=22 velocity=127 time=0
EXTRACT: note_on channel=8 note=61 velocity=127 time=0
EXTRACT: note_off channel=9 note=62 velocity=127 time=0.0010416666666666667
EXTRACT: note_off channel=9 note=75 velocity=61 time=0.11770833333333333
EXTRACT: note_off channel=9 note=28 velocity=54 time=0.07083333333333333
EXTRACT: note_off channel=9 note=38 velocity=65 time=0.034375
EXTRACT: note_off channel=9 note=35 velocity=127 time=0.005208333333333333
EXTRACT: note_off channel=9 note=36 velocity=127 time=0
EXTRACT: note_off channel=5 note=61 velocity=127 time=0.01875
EXTRACT: note_off channel=8 note=61 velocity=127 time=0
EXTRACT: note_on channel=5 note=58 velocity=127 time=0.0020833333333333333
EXTRACT: note_on channel=9 note=28 velocity=56 time=0
EXTRACT: note_on channel=9 note=75 velocity=61 time=0
EXTRACT: note_on channel=8 note=58 velocity=127 time=0
EXTRACT: note_off channel=9 note=75 velocity=61 time=0.11875
EXTRACT: note_on channel=9 note=75 velocity=61 time=0.00625
EXTRACT: note_off channel=9 note=28 velocity=56 time=0.06458333333333333
EXTRACT: note_off channel=9 note=75 velocity=61 time=0.05416666666666667
EXTRACT: note_off channel=5 note=58 velocity=127 time=0.004166666666666667
EXTRACT: note_off channel=8 note=58 velocity=127 time=0
EXTRACT: note_on channel=5 note=61 velocity=127 time=0.0020833333333333333
EXTRACT: note_on channel=9 note=28 velocity=52 time=0
EXTRACT: note_on channel=9 note=42 velocity=127 time=0
EXTRACT: note_on channel=9 note=37 velocity=127 time=0
EXTRACT: note_on channel=9 note=62 velocity=127 time=0
EXTRACT: note_on channel=9 note=75 velocity=61 time=0
EXTRACT: note_on channel=8 note=61 velocity=127 time=0
EXTRACT: note_off channel=7 note=22 velocity=127 time=0.015625
EXTRACT: note_off channel=9 note=75 velocity=61 time=0.103125
EXTRACT: note_off channel=9 note=28 velocity=52 time=0.07083333333333333
EXTRACT: note_off channel=9 note=42 velocity=127 time=0.03958333333333333
EXTRACT: note_off channel=9 note=37 velocity=127 time=0
EXTRACT: note_off channel=5 note=61 velocity=127 time=0.01875
EXTRACT: note_off channel=8 note=61 velocity=127 time=0
EXTRACT: note_on channel=5 note=58 velocity=127 time=0.0020833333333333333
EXTRACT: note_on channel=9 note=28 velocity=52 time=0
EXTRACT: note_on channel=9 note=35 velocity=127 time=0
EXTRACT: note_on channel=9 note=36 velocity=127 time=0
EXTRACT: note_on channel=9 note=38 velocity=67 time=0
EXTRACT: note_on channel=9 note=75 velocity=61 time=0
EXTRACT: note_on channel=8 note=58 velocity=127 time=0
EXTRACT: note_off channel=9 note=62 velocity=127 time=0.0010416666666666667
EXTRACT: note_off channel=9 note=75 velocity=61 time=0.11770833333333333
EXTRACT: note_off channel=9 note=28 velocity=52 time=0.07083333333333333
EXTRACT: note_off channel=9 note=38 velocity=67 time=0.034375
EXTRACT: note_off channel=9 note=35 velocity=127 time=0.005208333333333333
EXTRACT: note_off channel=9 note=36 velocity=127 time=0
EXTRACT: note_off channel=5 note=58 velocity=127 time=0.01875
EXTRACT: note_off channel=8 note=58 velocity=127 time=0
EXTRACT: note_on channel=5 note=65 velocity=127 time=0.0020833333333333333
EXTRACT: note_on channel=9 note=28 velocity=52 time=0
EXTRACT: note_on channel=8 note=65 velocity=127 time=0
EXTRACT: note_off channel=9 note=28 velocity=52 time=0.18958333333333333
EXTRACT: note_off channel=5 note=65 velocity=127 time=0.058333333333333334
EXTRACT: note_off channel=8 note=65 velocity=127 time=0
EXTRACT: note_on channel=5 note=63 velocity=127 time=0.0020833333333333333
EXTRACT: note_on channel=9 note=43 velocity=43 time=0
EXTRACT: note_on channel=9 note=28 velocity=52 time=0
EXTRACT: note_on channel=9 note=35 velocity=127 time=0
EXTRACT: note_on channel=9 note=36 velocity=127 time=0
EXTRACT: note_on channel=9 note=38 velocity=67 time=0
EXTRACT: note_on channel=9 note=75 velocity=56 time=0
EXTRACT: note_on channel=8 note=63 velocity=127 time=0
EXTRACT: note_off channel=9 note=43 velocity=43 time=0.096875
EXTRACT: note_off channel=9 note=75 velocity=56 time=0.021875
EXTRACT: note_on channel=9 note=41 velocity=43 time=0.00625
EXTRACT: note_off channel=9 note=28 velocity=52 time=0.06458333333333333
EXTRACT: note_off channel=9 note=41 velocity=43 time=0.03229166666666666
EXTRACT: note_off channel=9 note=38 velocity=67 time=0.0020833333333333333
EXTRACT: note_off channel=9 note=35 velocity=127 time=0.005208333333333333
EXTRACT: note_off channel=9 note=36 velocity=127 time=0
EXTRACT: note_off channel=5 note=63 velocity=127 time=0.01875
EXTRACT: note_off channel=8 note=63 velocity=127 time=0
EXTRACT: note_on channel=5 note=63 velocity=127 time=0.0020833333333333333
EXTRACT: note_on channel=9 note=28 velocity=52 time=0
EXTRACT: note_on channel=9 note=42 velocity=127 time=0
EXTRACT: note_on channel=9 note=37 velocity=127 time=0
EXTRACT: note_on channel=9 note=62 velocity=127 time=0
EXTRACT: note_on channel=8 note=63 velocity=127 time=0
EXTRACT: note_on channel=9 note=35 velocity=127 time=0.125
EXTRACT: note_on channel=9 note=36 velocity=127 time=0
EXTRACT: note_on channel=9 note=38 velocity=65 time=0
EXTRACT: note_off channel=9 note=28 velocity=52 time=0.06458333333333333
EXTRACT: note_off channel=9 note=42 velocity=127 time=0.03958333333333333
EXTRACT: note_off channel=9 note=37 velocity=127 time=0
EXTRACT: note_off channel=5 note=63 velocity=127 time=0.01875
EXTRACT: note_off channel=8 note=63 velocity=127 time=0
EXTRACT: note_on channel=5 note=61 velocity=127 time=0.0020833333333333333
EXTRACT: note_on channel=9 note=28 velocity=54 time=0
EXTRACT: note_on channel=9 note=42 velocity=127 time=0
EXTRACT: note_on channel=9 note=37 velocity=127 time=0
EXTRACT: note_on channel=9 note=62 velocity=127 time=0
EXTRACT: note_on channel=9 note=75 velocity=60 time=0
EXTRACT: note_on channel=8 note=61 velocity=127 time=0
EXTRACT: note_off channel=9 note=62 velocity=127 time=0.0010416666666666667
EXTRACT: note_off channel=9 note=38 velocity=65 time=0.09791666666666667
EXTRACT: note_off channel=9 note=35 velocity=127 time=0.005208333333333333
EXTRACT: note_off channel=9 note=36 velocity=127 time=0
EXTRACT: note_off channel=9 note=75 velocity=60 time=0.014583333333333334
EXTRACT: note_on channel=9 note=75 velocity=58 time=0.00625
EXTRACT: note_off channel=9 note=28 velocity=54 time=0.06458333333333333
EXTRACT: note_off channel=9 note=42 velocity=127 time=0.03958333333333333
EXTRACT: note_off channel=9 note=37 velocity=127 time=0
EXTRACT: note_off channel=9 note=75 velocity=58 time=0.014583333333333334
EXTRACT: note_off channel=5 note=61 velocity=127 time=0.004166666666666667
EXTRACT: note_off channel=8 note=61 velocity=127 time=0
EXTRACT: note_on channel=5 note=61 velocity=127 time=0.0020833333333333333
EXTRACT: note_on channel=9 note=36 velocity=127 time=0
EXTRACT: note_on channel=9 note=35 velocity=127 time=0
EXTRACT: note_on channel=9 note=28 velocity=54 time=0
EXTRACT: note_on channel=9 note=38 velocity=65 time=0
EXTRACT: note_on channel=9 note=75 velocity=61 time=0
EXTRACT: note_on channel=8 note=61 velocity=127 time=0
EXTRACT: note_off channel=9 note=62 velocity=127 time=0.0010416666666666667
EXTRACT: note_off channel=9 note=75 velocity=61 time=0.11770833333333333
EXTRACT: note_off channel=9 note=28 velocity=54 time=0.07083333333333333
EXTRACT: note_off channel=9 note=38 velocity=65 time=0.034375
EXTRACT: note_off channel=9 note=36 velocity=127 time=0.005208333333333333
EXTRACT: note_off channel=9 note=35 velocity=127 time=0
EXTRACT: note_off channel=5 note=61 velocity=127 time=0.01875
EXTRACT: note_off channel=8 note=61 velocity=127 time=0
EXTRACT: note_on channel=5 note=58 velocity=127 time=0.0020833333333333333
EXTRACT: note_on channel=9 note=28 velocity=56 time=0
EXTRACT: note_on channel=9 note=75 velocity=61 time=0
EXTRACT: note_on channel=8 note=58 velocity=127 time=0
EXTRACT: note_off channel=9 note=75 velocity=61 time=0.11875
EXTRACT: note_on channel=9 note=75 velocity=61 time=0.00625
EXTRACT: note_off channel=9 note=28 velocity=56 time=0.06458333333333333
EXTRACT: note_off channel=9 note=75 velocity=61 time=0.05416666666666667
EXTRACT: note_off channel=5 note=58 velocity=127 time=0.004166666666666667
EXTRACT: note_off channel=8 note=58 velocity=127 time=0
EXTRACT: note_on channel=5 note=61 velocity=127 time=0.0020833333333333333
EXTRACT: note_on channel=9 note=37 velocity=127 time=0
EXTRACT: note_on channel=9 note=42 velocity=127 time=0
EXTRACT: note_on channel=9 note=28 velocity=52 time=0
EXTRACT: note_on channel=9 note=75 velocity=61 time=0
EXTRACT: note_on channel=9 note=62 velocity=127 time=0
EXTRACT: note_on channel=8 note=61 velocity=127 time=0
EXTRACT: note_off channel=9 note=75 velocity=61 time=0.11875
EXTRACT: note_off channel=9 note=28 velocity=52 time=0.07083333333333333
EXTRACT: note_off channel=9 note=37 velocity=127 time=0.03958333333333333
EXTRACT: note_off channel=9 note=42 velocity=127 time=0
EXTRACT: note_off channel=5 note=61 velocity=127 time=0.01875
EXTRACT: note_off channel=8 note=61 velocity=127 time=0
EXTRACT: note_on channel=5 note=58 velocity=127 time=0.0020833333333333333
EXTRACT: note_on channel=9 note=36 velocity=127 time=0
EXTRACT: note_on channel=9 note=35 velocity=127 time=0
EXTRACT: note_on channel=9 note=28 velocity=52 time=0
EXTRACT: note_on channel=9 note=38 velocity=67 time=0
EXTRACT: note_on channel=9 note=75 velocity=61 time=0
EXTRACT: note_on channel=8 note=58 velocity=127 time=0
EXTRACT: note_off channel=9 note=62 velocity=127 time=0.0010416666666666667
EXTRACT: note_off channel=9 note=75 velocity=61 time=0.11770833333333333
EXTRACT: note_off channel=9 note=28 velocity=52 time=0.07083333333333333
EXTRACT: note_off channel=9 note=38 velocity=67 time=0.034375
EXTRACT: note_off channel=9 note=36 velocity=127 time=0.005208333333333333
EXTRACT: note_off channel=9 note=35 velocity=127 time=0
EXTRACT: note_off channel=5 note=58 velocity=127 time=0.01875
EXTRACT: note_off channel=8 note=58 velocity=127 time=0
EXTRACT: note_on channel=5 note=65 velocity=127 time=0.0020833333333333333
EXTRACT: note_on channel=9 note=28 velocity=52 time=0
EXTRACT: note_on channel=8 note=65 velocity=127 time=0
EXTRACT: note_off channel=9 note=28 velocity=52 time=0.18958333333333333
EXTRACT: note_off channel=5 note=65 velocity=127 time=0.058333333333333334
EXTRACT: note_off channel=8 note=65 velocity=127 time=0
EXTRACT: note_on channel=5 note=63 velocity=127 time=0.0020833333333333333
EXTRACT: note_on channel=9 note=36 velocity=127 time=0
EXTRACT: note_on channel=9 note=35 velocity=127 time=0
EXTRACT: note_on channel=9 note=28 velocity=52 time=0
EXTRACT: note_on channel=9 note=43 velocity=43 time=0
EXTRACT: note_on channel=9 note=38 velocity=67 time=0
EXTRACT: note_on channel=9 note=75 velocity=56 time=0
EXTRACT: note_on channel=8 note=63 velocity=127 time=0
EXTRACT: note_off channel=9 note=43 velocity=43 time=0.096875
EXTRACT: note_off channel=9 note=75 velocity=56 time=0.021875
EXTRACT: note_on channel=9 note=41 velocity=43 time=0.00625
EXTRACT: note_off channel=9 note=28 velocity=52 time=0.06458333333333333
EXTRACT: note_off channel=9 note=41 velocity=43 time=0.03229166666666666
EXTRACT: note_off channel=9 note=38 velocity=67 time=0.0020833333333333333
EXTRACT: note_off channel=9 note=36 velocity=127 time=0.005208333333333333
EXTRACT: note_off channel=9 note=35 velocity=127 time=0
EXTRACT: note_off channel=5 note=63 velocity=127 time=0.01875
EXTRACT: note_off channel=8 note=63 velocity=127 time=0
EXTRACT: note_on channel=5 note=63 velocity=127 time=0.0020833333333333333
EXTRACT: note_on channel=9 note=37 velocity=127 time=0
EXTRACT: note_on channel=9 note=42 velocity=127 time=0
EXTRACT: note_on channel=9 note=28 velocity=52 time=0
EXTRACT: note_on channel=9 note=62 velocity=127 time=0
EXTRACT: note_on channel=8 note=63 velocity=127 time=0
EXTRACT: note_on channel=9 note=36 velocity=127 time=0.125
EXTRACT: note_on channel=9 note=35 velocity=127 time=0
EXTRACT: note_on channel=9 note=38 velocity=65 time=0
EXTRACT: note_off channel=9 note=28 velocity=52 time=0.06458333333333333
EXTRACT: note_off channel=9 note=37 velocity=127 time=0.03958333333333333
EXTRACT: note_off channel=9 note=42 velocity=127 time=0
EXTRACT: note_off channel=5 note=63 velocity=127 time=0.01875
EXTRACT: note_off channel=8 note=63 velocity=127 time=0
EXTRACT: note_on channel=5 note=61 velocity=127 time=0.0020833333333333333
EXTRACT: note_on channel=9 note=37 velocity=127 time=0
EXTRACT: note_on channel=9 note=42 velocity=127 time=0
EXTRACT: note_on channel=9 note=28 velocity=54 time=0
EXTRACT: note_on channel=9 note=75 velocity=60 time=0
EXTRACT: note_on channel=9 note=62 velocity=127 time=0
EXTRACT: note_on channel=8 note=61 velocity=127 time=0
EXTRACT: note_off channel=9 note=62 velocity=127 time=0.0010416666666666667
EXTRACT: note_off channel=9 note=38 velocity=65 time=0.09791666666666667
EXTRACT: note_off channel=9 note=36 velocity=127 time=0.005208333333333333
EXTRACT: note_off channel=9 note=35 velocity=127 time=0
EXTRACT: note_off channel=9 note=75 velocity=60 time=0.014583333333333334
EXTRACT: note_on channel=9 note=75 velocity=58 time=0.00625
EXTRACT: note_off channel=9 note=28 velocity=54 time=0.06458333333333333
EXTRACT: note_off channel=9 note=37 velocity=127 time=0.03958333333333333
EXTRACT: note_off channel=9 note=42 velocity=127 time=0
EXTRACT: note_off channel=9 note=75 velocity=58 time=0.014583333333333334
EXTRACT: note_off channel=5 note=61 velocity=127 time=0.004166666666666667
EXTRACT: note_off channel=8 note=61 velocity=127 time=0
EXTRACT: note_on channel=5 note=61 velocity=127 time=0.0020833333333333333
EXTRACT: note_on channel=9 note=36 velocity=127 time=0
EXTRACT: note_on channel=9 note=35 velocity=127 time=0
EXTRACT: note_on channel=9 note=28 velocity=54 time=0
EXTRACT: note_on channel=9 note=38 velocity=65 time=0
EXTRACT: note_on channel=9 note=75 velocity=61 time=0
EXTRACT: note_on channel=8 note=61 velocity=127 time=0
EXTRACT: note_off channel=9 note=62 velocity=127 time=0.0010416666666666667
EXTRACT: note_off channel=9 note=75 velocity=61 time=0.11770833333333333
EXTRACT: note_off channel=9 note=28 velocity=54 time=0.07083333333333333
EXTRACT: note_off channel=9 note=38 velocity=65 time=0.034375
EXTRACT: note_off channel=9 note=36 velocity=127 time=0.005208333333333333
EXTRACT: note_off channel=9 note=35 velocity=127 time=0
EXTRACT: note_off channel=5 note=61 velocity=127 time=0.01875
EXTRACT: note_off channel=8 note=61 velocity=127 time=0
EXTRACT: note_on channel=5 note=58 velocity=127 time=0.0020833333333333333
EXTRACT: note_on channel=9 note=28 velocity=56 time=0
EXTRACT: note_on channel=9 note=75 velocity=61 time=0
EXTRACT: note_on channel=8 note=58 velocity=127 time=0
EXTRACT: note_off channel=9 note=75 velocity=61 time=0.11875
EXTRACT: note_on channel=9 note=75 velocity=61 time=0.00625
EXTRACT: note_off channel=9 note=28 velocity=56 time=0.06458333333333333
EXTRACT: note_off channel=9 note=75 velocity=61 time=0.05416666666666667
EXTRACT: note_off channel=5 note=58 velocity=127 time=0.004166666666666667
EXTRACT: note_off channel=8 note=58 velocity=127 time=0
EXTRACT: note_on channel=5 note=61 velocity=127 time=0.0020833333333333333
EXTRACT: note_on channel=9 note=37 velocity=127 time=0
EXTRACT: note_on channel=9 note=42 velocity=127 time=0
EXTRACT: note_on channel=9 note=28 velocity=52 time=0
EXTRACT: note_on channel=9 note=75 velocity=61 time=0
EXTRACT: note_on channel=9 note=62 velocity=127 time=0
EXTRACT: note_on channel=8 note=61 velocity=127 time=0
EXTRACT: note_off channel=9 note=75 velocity=61 time=0.11875
EXTRACT: note_off channel=9 note=28 velocity=52 time=0.07083333333333333
EXTRACT: note_off channel=9 note=37 velocity=127 time=0.03958333333333333
EXTRACT: note_off channel=9 note=42 velocity=127 time=0
EXTRACT: note_off channel=5 note=61 velocity=127 time=0.01875
EXTRACT: note_off channel=8 note=61 velocity=127 time=0
EXTRACT: note_on channel=5 note=58 velocity=127 time=0.0020833333333333333
EXTRACT: note_on channel=9 note=36 velocity=127 time=0
EXTRACT: note_on channel=9 note=35 velocity=127 time=0
EXTRACT: note_on channel=9 note=28 velocity=52 time=0
EXTRACT: note_on channel=9 note=38 velocity=67 time=0
EXTRACT: note_on channel=9 note=75 velocity=61 time=0
EXTRACT: note_on channel=8 note=58 velocity=127 time=0
EXTRACT: note_off channel=9 note=62 velocity=127 time=0.0010416666666666667
EXTRACT: note_off channel=9 note=75 velocity=61 time=0.11770833333333333
EXTRACT: note_off channel=9 note=28 velocity=52 time=0.07083333333333333
EXTRACT: note_off channel=9 note=38 velocity=67 time=0.034375
EXTRACT: note_off channel=9 note=36 velocity=127 time=0.005208333333333333
EXTRACT: note_off channel=9 note=35 velocity=127 time=0
EXTRACT: note_off channel=5 note=58 velocity=127 time=0.01875
EXTRACT: note_off channel=8 note=58 velocity=127 time=0
EXTRACT: note_on channel=5 note=65 velocity=127 time=0.0020833333333333333
EXTRACT: note_on channel=9 note=28 velocity=52 time=0
EXTRACT: note_on channel=8 note=65 velocity=127 time=0
EXTRACT: note_off channel=9 note=28 velocity=52 time=0.18958333333333333
EXTRACT: note_off channel=5 note=65 velocity=127 time=0.058333333333333334
EXTRACT: note_off channel=8 note=65 velocity=127 time=0
EXTRACT: note_on channel=5 note=63 velocity=127 time=0.0020833333333333333
EXTRACT: note_on channel=9 note=36 velocity=127 time=0
EXTRACT: note_on channel=9 note=35 velocity=127 time=0
EXTRACT: note_on channel=9 note=28 velocity=52 time=0
EXTRACT: note_on channel=9 note=43 velocity=43 time=0
EXTRACT: note_on channel=9 note=38 velocity=67 time=0
EXTRACT: note_on channel=9 note=75 velocity=56 time=0
EXTRACT: note_on channel=8 note=63 velocity=127 time=0
EXTRACT: note_off channel=9 note=43 velocity=43 time=0.096875
EXTRACT: note_off channel=9 note=75 velocity=56 time=0.021875
EXTRACT: note_on channel=9 note=41 velocity=43 time=0.00625
EXTRACT: note_off channel=9 note=28 velocity=52 time=0.06458333333333333
EXTRACT: note_off channel=9 note=41 velocity=43 time=0.03229166666666666
EXTRACT: note_off channel=9 note=38 velocity=67 time=0.0020833333333333333
EXTRACT: note_off channel=9 note=36 velocity=127 time=0.005208333333333333
EXTRACT: note_off channel=9 note=35 velocity=127 time=0
EXTRACT: note_off channel=5 note=63 velocity=127 time=0.01875
EXTRACT: note_off channel=8 note=63 velocity=127 time=0
EXTRACT: note_on channel=5 note=63 velocity=127 time=0.0020833333333333333
EXTRACT: note_on channel=9 note=37 velocity=127 time=0
EXTRACT: note_on channel=9 note=42 velocity=127 time=0
EXTRACT: note_on channel=9 note=28 velocity=52 time=0
EXTRACT: note_on channel=9 note=62 velocity=127 time=0
EXTRACT: note_on channel=8 note=63 velocity=127 time=0
EXTRACT: note_on channel=9 note=36 velocity=127 time=0.125
EXTRACT: note_on channel=9 note=35 velocity=127 time=0
EXTRACT: note_on channel=9 note=38 velocity=65 time=0
EXTRACT: note_off channel=9 note=28 velocity=52 time=0.06458333333333333
EXTRACT: note_off channel=9 note=37 velocity=127 time=0.03958333333333333
EXTRACT: note_off channel=9 note=42 velocity=127 time=0
EXTRACT: note_off channel=5 note=63 velocity=127 time=0.01875
EXTRACT: note_off channel=8 note=63 velocity=127 time=0
EXTRACT: note_on channel=5 note=61 velocity=127 time=0.0020833333333333333
EXTRACT: note_on channel=9 note=37 velocity=127 time=0
EXTRACT: note_on channel=9 note=42 velocity=127 time=0
EXTRACT: note_on channel=9 note=28 velocity=54 time=0
EXTRACT: note_on channel=9 note=75 velocity=60 time=0
EXTRACT: note_on channel=9 note=62 velocity=127 time=0
EXTRACT: note_on channel=8 note=61 velocity=127 time=0
EXTRACT: note_off channel=9 note=62 velocity=127 time=0.0010416666666666667
EXTRACT: note_off channel=9 note=38 velocity=65 time=0.09791666666666667
EXTRACT: note_off channel=9 note=36 velocity=127 time=0.005208333333333333
EXTRACT: note_off channel=9 note=35 velocity=127 time=0
EXTRACT: note_off channel=9 note=75 velocity=60 time=0.014583333333333334
EXTRACT: note_on channel=9 note=75 velocity=58 time=0.00625
EXTRACT: note_off channel=9 note=28 velocity=54 time=0.06458333333333333
EXTRACT: note_off channel=9 note=37 velocity=127 time=0.03958333333333333
EXTRACT: note_off channel=9 note=42 velocity=127 time=0
EXTRACT: note_off channel=9 note=75 velocity=58 time=0.014583333333333334
EXTRACT: note_off channel=5 note=61 velocity=127 time=0.004166666666666667
EXTRACT: note_off channel=8 note=61 velocity=127 time=0
EXTRACT: note_on channel=5 note=61 velocity=127 time=0.0020833333333333333
EXTRACT: note_on channel=9 note=36 velocity=127 time=0
EXTRACT: note_on channel=9 note=35 velocity=127 time=0
EXTRACT: note_on channel=9 note=28 velocity=54 time=0
EXTRACT: note_on channel=9 note=38 velocity=65 time=0
EXTRACT: note_on channel=9 note=75 velocity=61 time=0
EXTRACT: note_on channel=8 note=61 velocity=127 time=0
EXTRACT: note_off channel=9 note=62 velocity=127 time=0.0010416666666666667
EXTRACT: note_off channel=9 note=75 velocity=61 time=0.11770833333333333
EXTRACT: note_off channel=9 note=28 velocity=54 time=0.07083333333333333
EXTRACT: note_off channel=9 note=38 velocity=65 time=0.034375
EXTRACT: note_off channel=9 note=36 velocity=127 time=0.005208333333333333
EXTRACT: note_off channel=9 note=35 velocity=127 time=0
EXTRACT: note_off channel=5 note=61 velocity=127 time=0.01875
EXTRACT: note_off channel=8 note=61 velocity=127 time=0
EXTRACT: note_on channel=5 note=58 velocity=127 time=0.0020833333333333333
EXTRACT: note_on channel=9 note=28 velocity=56 time=0
EXTRACT: note_on channel=9 note=75 velocity=61 time=0
EXTRACT: note_on channel=8 note=58 velocity=127 time=0
EXTRACT: note_off channel=9 note=75 velocity=61 time=0.11875
EXTRACT: note_on channel=9 note=75 velocity=61 time=0.00625
EXTRACT: note_off channel=9 note=28 velocity=56 time=0.06458333333333333
EXTRACT: note_off channel=9 note=75 velocity=61 time=0.05416666666666667
EXTRACT: note_off channel=5 note=58 velocity=127 time=0.004166666666666667
EXTRACT: note_off channel=8 note=58 velocity=127 time=0
EXTRACT: note_on channel=5 note=61 velocity=127 time=0.0020833333333333333
EXTRACT: note_on channel=9 note=37 velocity=127 time=0
EXTRACT: note_on channel=9 note=42 velocity=127 time=0
EXTRACT: note_on channel=9 note=28 velocity=52 time=0
EXTRACT: note_on channel=9 note=75 velocity=61 time=0
EXTRACT: note_on channel=9 note=62 velocity=127 time=0
EXTRACT: note_on channel=8 note=61 velocity=127 time=0
EXTRACT: note_off channel=9 note=75 velocity=61 time=0.11875
EXTRACT: note_off channel=9 note=28 velocity=52 time=0.07083333333333333
EXTRACT: note_off channel=9 note=37 velocity=127 time=0.03958333333333333
EXTRACT: note_off channel=9 note=42 velocity=127 time=0
EXTRACT: note_off channel=5 note=61 velocity=127 time=0.01875
EXTRACT: note_off channel=8 note=61 velocity=127 time=0
EXTRACT: note_on channel=5 note=58 velocity=127 time=0.0020833333333333333
EXTRACT: note_on channel=9 note=36 velocity=127 time=0
EXTRACT: note_on channel=9 note=35 velocity=127 time=0
EXTRACT: note_on channel=9 note=28 velocity=52 time=0
EXTRACT: note_on channel=9 note=38 velocity=67 time=0
EXTRACT: note_on channel=9 note=75 velocity=61 time=0
EXTRACT: note_on channel=8 note=58 velocity=127 time=0
EXTRACT: note_off channel=9 note=62 velocity=127 time=0.0010416666666666667
EXTRACT: note_off channel=9 note=75 velocity=61 time=0.11770833333333333
EXTRACT: note_off channel=9 note=28 velocity=52 time=0.07083333333333333
EXTRACT: note_off channel=9 note=38 velocity=67 time=0.034375
EXTRACT: note_off channel=9 note=36 velocity=127 time=0.005208333333333333
EXTRACT: note_off channel=9 note=35 velocity=127 time=0
EXTRACT: note_off channel=5 note=58 velocity=127 time=0.01875
EXTRACT: note_off channel=8 note=58 velocity=127 time=0
EXTRACT: note_on channel=5 note=65 velocity=127 time=0.0020833333333333333
EXTRACT: note_on channel=9 note=28 velocity=52 time=0
EXTRACT: note_on channel=8 note=65 velocity=127 time=0
EXTRACT: note_off channel=9 note=28 velocity=52 time=0.18958333333333333
EXTRACT: note_off channel=5 note=65 velocity=127 time=0.058333333333333334
EXTRACT: note_off channel=8 note=65 velocity=127 time=0
EXTRACT: note_on channel=5 note=63 velocity=127 time=0.0020833333333333333
EXTRACT: note_on channel=9 note=36 velocity=127 time=0
EXTRACT: note_on channel=9 note=35 velocity=127 time=0
EXTRACT: note_on channel=9 note=28 velocity=52 time=0
EXTRACT: note_on channel=9 note=43 velocity=43 time=0
EXTRACT: note_on channel=9 note=38 velocity=67 time=0
EXTRACT: note_on channel=9 note=75 velocity=56 time=0
EXTRACT: note_on channel=8 note=63 velocity=127 time=0
EXTRACT: note_off channel=9 note=43 velocity=43 time=0.096875
EXTRACT: note_off channel=9 note=75 velocity=56 time=0.021875
EXTRACT: note_on channel=9 note=41 velocity=43 time=0.00625
EXTRACT: note_off channel=9 note=28 velocity=52 time=0.06458333333333333
EXTRACT: note_off channel=9 note=41 velocity=43 time=0.03229166666666666
EXTRACT: note_off channel=9 note=38 velocity=67 time=0.0020833333333333333
EXTRACT: note_off channel=9 note=36 velocity=127 time=0.005208333333333333
EXTRACT: note_off channel=9 note=35 velocity=127 time=0
EXTRACT: note_off channel=5 note=63 velocity=127 time=0.01875
EXTRACT: note_off channel=8 note=63 velocity=127 time=0
EXTRACT: note_on channel=5 note=63 velocity=127 time=0.0020833333333333333
EXTRACT: note_on channel=9 note=37 velocity=127 time=0
EXTRACT: note_on channel=9 note=42 velocity=127 time=0
EXTRACT: note_on channel=9 note=28 velocity=52 time=0
EXTRACT: note_on channel=9 note=62 velocity=127 time=0
EXTRACT: note_on channel=8 note=63 velocity=127 time=0
EXTRACT: note_on channel=9 note=36 velocity=127 time=0.125
EXTRACT: note_on channel=9 note=35 velocity=127 time=0
EXTRACT: note_on channel=9 note=38 velocity=65 time=0
EXTRACT: note_off channel=9 note=28 velocity=52 time=0.06458333333333333
EXTRACT: note_off channel=9 note=37 velocity=127 time=0.03958333333333333
EXTRACT: note_off channel=9 note=42 velocity=127 time=0
EXTRACT: note_off channel=5 note=63 velocity=127 time=0.01875
EXTRACT: note_off channel=8 note=63 velocity=127 time=0
EXTRACT: note_on channel=5 note=61 velocity=127 time=0.0020833333333333333
EXTRACT: note_on channel=9 note=37 velocity=127 time=0
EXTRACT: note_on channel=9 note=42 velocity=127 time=0
EXTRACT: note_on channel=9 note=28 velocity=54 time=0
EXTRACT: note_on channel=9 note=75 velocity=60 time=0
EXTRACT: note_on channel=9 note=62 velocity=127 time=0
EXTRACT: note_on channel=8 note=61 velocity=127 time=0
EXTRACT: note_off channel=9 note=62 velocity=127 time=0.0010416666666666667
EXTRACT: note_off channel=9 note=38 velocity=65 time=0.09791666666666667
EXTRACT: note_off channel=9 note=36 velocity=127 time=0.005208333333333333
EXTRACT: note_off channel=9 note=35 velocity=127 time=0
EXTRACT: note_off channel=9 note=75 velocity=60 time=0.014583333333333334
EXTRACT: note_on channel=9 note=75 velocity=58 time=0.00625
EXTRACT: note_off channel=9 note=28 velocity=54 time=0.06458333333333333
EXTRACT: control_change channel=2 control=7 value=29 time=0.03333333333333333
EXTRACT: note_off channel=9 note=37 velocity=127 time=0.00625
EXTRACT: note_off channel=9 note=42 velocity=127 time=0
EXTRACT: note_off channel=9 note=75 velocity=58 time=0.014583333333333334
EXTRACT: note_off channel=5 note=61 velocity=127 time=0.004166666666666667
EXTRACT: note_off channel=8 note=61 velocity=127 time=0
EXTRACT: note_on channel=2 note=77 velocity=110 time=0.0020833333333333333
EXTRACT: note_on channel=2 note=70 velocity=110 time=0
EXTRACT: note_on channel=2 note=73 velocity=110 time=0
EXTRACT: note_on channel=5 note=61 velocity=127 time=0
EXTRACT: note_on channel=9 note=28 velocity=54 time=0
EXTRACT: note_on channel=9 note=35 velocity=127 time=0
EXTRACT: note_on channel=9 note=36 velocity=127 time=0
EXTRACT: note_on channel=9 note=38 velocity=65 time=0
EXTRACT: note_on channel=9 note=75 velocity=61 time=0
EXTRACT: note_on channel=7 note=22 velocity=127 time=0
EXTRACT: note_on channel=8 note=61 velocity=127 time=0
EXTRACT: note_off channel=9 note=62 velocity=127 time=0.0010416666666666667
EXTRACT: control_change channel=2 control=7 value=31 time=0.051041666666666666
EXTRACT: control_change channel=2 control=7 value=36 time=0.040625
EXTRACT: note_off channel=9 note=75 velocity=61 time=0.026041666666666668
EXTRACT: control_change channel=2 control=7 value=38 time=0.03958333333333333
EXTRACT: control_change channel=2 control=7 value=40 time=0.013541666666666667
EXTRACT: note_off channel=9 note=28 velocity=54 time=0.017708333333333333
EXTRACT: control_change channel=2 control=7 value=43 time=0.021875
EXTRACT: note_off channel=9 note=38 velocity=65 time=0.0125
EXTRACT: note_off channel=9 note=35 velocity=127 time=0.005208333333333333
EXTRACT: note_off channel=9 note=36 velocity=127 time=0
EXTRACT: control_change channel=2 control=7 value=45 time=0.008333333333333333
EXTRACT: note_off channel=5 note=61 velocity=127 time=0.010416666666666666
EXTRACT: note_off channel=8 note=61 velocity=127 time=0
EXTRACT: note_on channel=5 note=58 velocity=127 time=0.0020833333333333333
EXTRACT: note_on channel=9 note=28 velocity=56 time=0
EXTRACT: note_on channel=9 note=75 velocity=61 time=0
EXTRACT: note_on channel=8 note=58 velocity=127 time=0
EXTRACT: control_change channel=2 control=7 value=47 time=0.027083333333333334
EXTRACT: control_change channel=2 control=7 value=49 time=0.027083333333333334
EXTRACT: control_change channel=2 control=7 value=52 time=0.026041666666666668
EXTRACT: note_off channel=9 note=75 velocity=61 time=0.03854166666666667
EXTRACT: note_on channel=9 note=75 velocity=61 time=0.00625
EXTRACT: control_change channel=2 control=7 value=54 time=0.008333333333333333
EXTRACT: control_change channel=2 control=7 value=56 time=0.026041666666666668
EXTRACT: control_change channel=2 control=7 value=58 time=0.026041666666666668
EXTRACT: note_off channel=9 note=28 velocity=56 time=0.004166666666666667
EXTRACT: control_change channel=2 control=7 value=63 time=0.009375
EXTRACT: control_change channel=2 control=7 value=65 time=0.026041666666666668
EXTRACT: note_off channel=9 note=75 velocity=61 time=0.01875
EXTRACT: note_off channel=5 note=58 velocity=127 time=0.004166666666666667
EXTRACT: note_off channel=8 note=58 velocity=127 time=0
EXTRACT: note_on channel=5 note=61 velocity=127 time=0.0020833333333333333
EXTRACT: note_on channel=9 note=28 velocity=52 time=0
EXTRACT: note_on channel=9 note=42 velocity=127 time=0
EXTRACT: note_on channel=9 note=37 velocity=127 time=0
EXTRACT: note_on channel=9 note=62 velocity=127 time=0
EXTRACT: note_on channel=9 note=75 velocity=61 time=0
EXTRACT: note_on channel=8 note=61 velocity=127 time=0
EXTRACT: control_change channel=2 control=7 value=67 time=0.0020833333333333333
EXTRACT: note_off channel=7 note=22 velocity=127 time=0.013541666666666667
EXTRACT: control_change channel=2 control=7 value=70 time=0.026041666666666668
EXTRACT: control_change channel=2 control=7 value=72 time=0.013541666666666667
EXTRACT: control_change channel=2 control=7 value=74 time=0.0125
EXTRACT: control_change channel=2 control=7 value=76 time=0.03958333333333333
EXTRACT: note_off channel=9 note=75 velocity=61 time=0.011458333333333333
EXTRACT: control_change channel=2 control=7 value=81 time=0.0020833333333333333
EXTRACT: control_change channel=2 control=7 value=83 time=0.026041666666666668
EXTRACT: control_change channel=2 control=7 value=85 time=0.013541666666666667
EXTRACT: control_change channel=2 control=7 value=88 time=0.026041666666666668
EXTRACT: note_off channel=9 note=28 velocity=52 time=0.003125
EXTRACT: control_change channel=2 control=7 value=92 time=0.010416666666666666
EXTRACT: control_change channel=2 control=7 value=94 time=0.013541666666666667
EXTRACT: control_change channel=2 control=7 value=97 time=0.013541666666666667
EXTRACT: note_off channel=9 note=42 velocity=127 time=0.0020833333333333333
EXTRACT: note_off channel=9 note=37 velocity=127 time=0
EXTRACT: note_off channel=5 note=61 velocity=127 time=0.01875
EXTRACT: note_off channel=8 note=61 velocity=127 time=0
EXTRACT: note_on channel=5 note=58 velocity=127 time=0.0020833333333333333
EXTRACT: note_on channel=9 note=28 velocity=52 time=0
EXTRACT: note_on channel=9 note=35 velocity=127 time=0
EXTRACT: note_on channel=9 note=36 velocity=127 time=0
EXTRACT: note_on channel=9 note=38 velocity=67 time=0
EXTRACT: note_on channel=9 note=75 velocity=61 time=0
EXTRACT: note_on channel=8 note=58 velocity=127 time=0
EXTRACT: note_off channel=9 note=62 velocity=127 time=0.0010416666666666667
EXTRACT: control_change channel=2 control=7 value=99 time=0.015625
EXTRACT: note_off channel=9 note=75 velocity=61 time=0.10208333333333333
EXTRACT: note_off channel=9 note=28 velocity=52 time=0.07083333333333333
EXTRACT: note_off channel=9 note=38 velocity=67 time=0.034375
EXTRACT: note_off channel=9 note=35 velocity=127 time=0.005208333333333333
EXTRACT: note_off channel=9 note=36 velocity=127 time=0
EXTRACT: note_off channel=2 note=77 velocity=110 time=0.01875
EXTRACT: note_off channel=2 note=70 velocity=110 time=0
EXTRACT: note_off channel=2 note=73 velocity=110 time=0
EXTRACT: note_off channel=5 note=58 velocity=127 time=0
EXTRACT: note_off channel=8 note=58 velocity=127 time=0
EXTRACT: note_on channel=5 note=65 velocity=127 time=0.0020833333333333333
EXTRACT: note_on channel=9 note=28 velocity=52 time=0
EXTRACT: note_on channel=8 note=65 velocity=127 time=0
EXTRACT: note_off channel=9 note=28 velocity=52 time=0.18958333333333333
EXTRACT: note_off channel=5 note=65 velocity=127 time=0.058333333333333334
EXTRACT: note_off channel=8 note=65 velocity=127 time=0
EXTRACT: note_on channel=5 note=63 velocity=127 time=0.0020833333333333333
EXTRACT: note_on channel=9 note=43 velocity=43 time=0
EXTRACT: note_on channel=9 note=28 velocity=52 time=0
EXTRACT: note_on channel=9 note=35 velocity=127 time=0
EXTRACT: note_on channel=9 note=36 velocity=127 time=0
EXTRACT: note_on channel=9 note=38 velocity=67 time=0
EXTRACT: note_on channel=9 note=75 velocity=56 time=0
EXTRACT: note_on channel=8 note=63 velocity=127 time=0
EXTRACT: note_off channel=9 note=43 velocity=43 time=0.096875
EXTRACT: note_off channel=9 note=75 velocity=56 time=0.021875
EXTRACT: note_on channel=9 note=41 velocity=43 time=0.00625
EXTRACT: note_off channel=9 note=28 velocity=52 time=0.06458333333333333
EXTRACT: note_off channel=9 note=41 velocity=43 time=0.03229166666666666
EXTRACT: note_off channel=9 note=38 velocity=67 time=0.0020833333333333333
EXTRACT: note_off channel=9 note=35 velocity=127 time=0.005208333333333333
EXTRACT: note_off channel=9 note=36 velocity=127 time=0
EXTRACT: note_off channel=5 note=63 velocity=127 time=0.01875
EXTRACT: note_off channel=8 note=63 velocity=127 time=0
EXTRACT: note_on channel=5 note=63 velocity=127 time=0.0020833333333333333
EXTRACT: note_on channel=9 note=28 velocity=52 time=0
EXTRACT: note_on channel=9 note=42 velocity=127 time=0
EXTRACT: note_on channel=9 note=37 velocity=127 time=0
EXTRACT: note_on channel=9 note=62 velocity=127 time=0
EXTRACT: note_on channel=8 note=63 velocity=127 time=0
EXTRACT: note_on channel=9 note=35 velocity=127 time=0.125
EXTRACT: note_on channel=9 note=36 velocity=127 time=0
EXTRACT: note_on channel=9 note=38 velocity=65 time=0
EXTRACT: note_off channel=9 note=28 velocity=52 time=0.06458333333333333
EXTRACT: note_off channel=9 note=42 velocity=127 time=0.03958333333333333
EXTRACT: note_off channel=9 note=37 velocity=127 time=0
EXTRACT: note_off channel=5 note=63 velocity=127 time=0.01875
EXTRACT: note_off channel=8 note=63 velocity=127 time=0
EXTRACT: note_on channel=5 note=61 velocity=127 time=0.0020833333333333333
EXTRACT: note_on channel=9 note=28 velocity=54 time=0
EXTRACT: note_on channel=9 note=42 velocity=127 time=0
EXTRACT: note_on channel=9 note=37 velocity=127 time=0
EXTRACT: note_on channel=9 note=62 velocity=127 time=0
EXTRACT: note_on channel=9 note=75 velocity=60 time=0
EXTRACT: note_on channel=8 note=61 velocity=127 time=0
EXTRACT: note_off channel=9 note=62 velocity=127 time=0.0010416666666666667
EXTRACT: note_off channel=9 note=38 velocity=65 time=0.09791666666666667
EXTRACT: note_off channel=9 note=35 velocity=127 time=0.005208333333333333
EXTRACT: note_off channel=9 note=36 velocity=127 time=0
EXTRACT: note_off channel=9 note=75 velocity=60 time=0.014583333333333334
EXTRACT: note_on channel=9 note=75 velocity=58 time=0.00625
EXTRACT: note_off channel=9 note=28 velocity=54 time=0.06458333333333333
EXTRACT: note_off channel=9 note=42 velocity=127 time=0.03958333333333333
EXTRACT: note_off channel=9 note=37 velocity=127 time=0
EXTRACT: note_off channel=9 note=75 velocity=58 time=0.014583333333333334
EXTRACT: note_off channel=5 note=61 velocity=127 time=0.004166666666666667
EXTRACT: note_off channel=8 note=61 velocity=127 time=0
EXTRACT: note_on channel=5 note=61 velocity=127 time=0.0020833333333333333
EXTRACT: note_on channel=9 note=36 velocity=127 time=0
EXTRACT: note_on channel=9 note=35 velocity=127 time=0
EXTRACT: note_on channel=9 note=28 velocity=54 time=0
EXTRACT: note_on channel=9 note=38 velocity=65 time=0
EXTRACT: note_on channel=9 note=75 velocity=61 time=0
EXTRACT: note_on channel=8 note=61 velocity=127 time=0
EXTRACT: note_off channel=9 note=62 velocity=127 time=0.0010416666666666667
EXTRACT: note_off channel=9 note=75 velocity=61 time=0.11770833333333333
EXTRACT: note_off channel=9 note=28 velocity=54 time=0.07083333333333333
EXTRACT: note_off channel=9 note=38 velocity=65 time=0.034375
EXTRACT: note_off channel=9 note=36 velocity=127 time=0.005208333333333333
EXTRACT: note_off channel=9 note=35 velocity=127 time=0
EXTRACT: note_off channel=5 note=61 velocity=127 time=0.01875
EXTRACT: note_off channel=8 note=61 velocity=127 time=0
EXTRACT: note_on channel=5 note=58 velocity=127 time=0.0020833333333333333
EXTRACT: note_on channel=9 note=28 velocity=56 time=0
EXTRACT: note_on channel=9 note=75 velocity=61 time=0
EXTRACT: note_on channel=8 note=58 velocity=127 time=0
EXTRACT: note_off channel=9 note=75 velocity=61 time=0.11875
EXTRACT: note_on channel=9 note=75 velocity=61 time=0.00625
EXTRACT: note_off channel=9 note=28 velocity=56 time=0.06458333333333333
EXTRACT: note_off channel=9 note=75 velocity=61 time=0.05416666666666667
EXTRACT: note_off channel=5 note=58 velocity=127 time=0.004166666666666667
EXTRACT: note_off channel=8 note=58 velocity=127 time=0
EXTRACT: note_on channel=5 note=61 velocity=127 time=0.0020833333333333333
EXTRACT: note_on channel=9 note=37 velocity=127 time=0
EXTRACT: note_on channel=9 note=42 velocity=127 time=0
EXTRACT: note_on channel=9 note=28 velocity=52 time=0
EXTRACT: note_on channel=9 note=75 velocity=61 time=0
EXTRACT: note_on channel=9 note=62 velocity=127 time=0
EXTRACT: note_on channel=8 note=61 velocity=127 time=0
EXTRACT: note_off channel=9 note=75 velocity=61 time=0.11875
EXTRACT: note_off channel=9 note=28 velocity=52 time=0.07083333333333333
EXTRACT: note_off channel=9 note=37 velocity=127 time=0.03958333333333333
EXTRACT: note_off channel=9 note=42 velocity=127 time=0
EXTRACT: note_off channel=5 note=61 velocity=127 time=0.01875
EXTRACT: note_off channel=8 note=61 velocity=127 time=0
EXTRACT: note_on channel=5 note=58 velocity=127 time=0.0020833333333333333
EXTRACT: note_on channel=9 note=36 velocity=127 time=0
EXTRACT: note_on channel=9 note=35 velocity=127 time=0
EXTRACT: note_on channel=9 note=28 velocity=52 time=0
EXTRACT: note_on channel=9 note=38 velocity=67 time=0
EXTRACT: note_on channel=9 note=75 velocity=61 time=0
EXTRACT: note_on channel=8 note=58 velocity=127 time=0
EXTRACT: note_off channel=9 note=62 velocity=127 time=0.0010416666666666667
EXTRACT: note_off channel=9 note=75 velocity=61 time=0.11770833333333333
EXTRACT: note_off channel=9 note=28 velocity=52 time=0.07083333333333333
EXTRACT: note_off channel=9 note=38 velocity=67 time=0.034375
EXTRACT: note_off channel=9 note=36 velocity=127 time=0.005208333333333333
EXTRACT: note_off channel=9 note=35 velocity=127 time=0
EXTRACT: note_off channel=5 note=58 velocity=127 time=0.01875
EXTRACT: note_off channel=8 note=58 velocity=127 time=0
EXTRACT: note_on channel=5 note=65 velocity=127 time=0.0020833333333333333
EXTRACT: note_on channel=9 note=28 velocity=52 time=0
EXTRACT: note_on channel=8 note=65 velocity=127 time=0
EXTRACT: note_off channel=9 note=28 velocity=52 time=0.18958333333333333
EXTRACT: note_off channel=5 note=65 velocity=127 time=0.058333333333333334
EXTRACT: note_off channel=8 note=65 velocity=127 time=0
EXTRACT: note_on channel=5 note=63 velocity=127 time=0.0020833333333333333
EXTRACT: note_on channel=9 note=36 velocity=127 time=0
EXTRACT: note_on channel=9 note=35 velocity=127 time=0
EXTRACT: note_on channel=9 note=28 velocity=52 time=0
EXTRACT: note_on channel=9 note=43 velocity=43 time=0
EXTRACT: note_on channel=9 note=38 velocity=67 time=0
EXTRACT: note_on channel=9 note=75 velocity=56 time=0
EXTRACT: note_on channel=8 note=63 velocity=127 time=0
EXTRACT: note_off channel=9 note=43 velocity=43 time=0.096875
EXTRACT: note_off channel=9 note=75 velocity=56 time=0.021875
EXTRACT: note_on channel=9 note=41 velocity=43 time=0.00625
EXTRACT: note_off channel=9 note=28 velocity=52 time=0.06458333333333333
EXTRACT: note_off channel=9 note=41 velocity=43 time=0.03229166666666666
EXTRACT: note_off channel=9 note=38 velocity=67 time=0.0020833333333333333
EXTRACT: note_off channel=9 note=36 velocity=127 time=0.005208333333333333
EXTRACT: note_off channel=9 note=35 velocity=127 time=0
EXTRACT: note_off channel=5 note=63 velocity=127 time=0.01875
EXTRACT: note_off channel=8 note=63 velocity=127 time=0
EXTRACT: note_on channel=5 note=63 velocity=127 time=0.0020833333333333333
EXTRACT: note_on channel=9 note=37 velocity=127 time=0
EXTRACT: note_on channel=9 note=42 velocity=127 time=0
EXTRACT: note_on channel=9 note=28 velocity=52 time=0
EXTRACT: note_on channel=9 note=62 velocity=127 time=0
EXTRACT: note_on channel=8 note=63 velocity=127 time=0
EXTRACT: note_on channel=9 note=36 velocity=127 time=0.125
EXTRACT: note_on channel=9 note=35 velocity=127 time=0
EXTRACT: note_on channel=9 note=38 velocity=65 time=0
EXTRACT: note_off channel=9 note=28 velocity=52 time=0.06458333333333333
EXTRACT: note_off channel=9 note=37 velocity=127 time=0.03958333333333333
EXTRACT: note_off channel=9 note=42 velocity=127 time=0
EXTRACT: note_off channel=5 note=63 velocity=127 time=0.01875
EXTRACT: note_off channel=8 note=63 velocity=127 time=0
EXTRACT: note_on channel=5 note=61 velocity=127 time=0.0020833333333333333
EXTRACT: note_on channel=9 note=37 velocity=127 time=0
EXTRACT: note_on channel=9 note=42 velocity=127 time=0
EXTRACT: note_on channel=9 note=28 velocity=54 time=0
EXTRACT: note_on channel=9 note=75 velocity=60 time=0
EXTRACT: note_on channel=9 note=62 velocity=127 time=0
EXTRACT: note_on channel=8 note=61 velocity=127 time=0
EXTRACT: note_off channel=9 note=62 velocity=127 time=0.0010416666666666667
EXTRACT: note_off channel=9 note=38 velocity=65 time=0.09791666666666667
EXTRACT: note_off channel=9 note=36 velocity=127 time=0.005208333333333333
EXTRACT: note_off channel=9 note=35 velocity=127 time=0
EXTRACT: note_off channel=9 note=75 velocity=60 time=0.014583333333333334
EXTRACT: note_on channel=9 note=75 velocity=58 time=0.00625
EXTRACT: note_off channel=9 note=28 velocity=54 time=0.06458333333333333
EXTRACT: note_off channel=9 note=37 velocity=127 time=0.03958333333333333
EXTRACT: note_off channel=9 note=42 velocity=127 time=0
EXTRACT: note_off channel=9 note=75 velocity=58 time=0.014583333333333334
EXTRACT: note_off channel=5 note=61 velocity=127 time=0.004166666666666667
EXTRACT: note_off channel=8 note=61 velocity=127 time=0
EXTRACT: note_on channel=5 note=61 velocity=127 time=0.0020833333333333333
EXTRACT: note_on channel=9 note=36 velocity=127 time=0
EXTRACT: note_on channel=9 note=35 velocity=127 time=0
EXTRACT: note_on channel=9 note=28 velocity=54 time=0
EXTRACT: note_on channel=9 note=38 velocity=65 time=0
EXTRACT: note_on channel=9 note=75 velocity=61 time=0
EXTRACT: note_on channel=8 note=61 velocity=127 time=0
EXTRACT: note_off channel=9 note=62 velocity=127 time=0.0010416666666666667
EXTRACT: note_off channel=9 note=75 velocity=61 time=0.11770833333333333
EXTRACT: note_off channel=9 note=28 velocity=54 time=0.07083333333333333
EXTRACT: note_off channel=9 note=38 velocity=65 time=0.034375
EXTRACT: note_off channel=9 note=36 velocity=127 time=0.005208333333333333
EXTRACT: note_off channel=9 note=35 velocity=127 time=0
EXTRACT: note_off channel=5 note=61 velocity=127 time=0.01875
EXTRACT: note_off channel=8 note=61 velocity=127 time=0
EXTRACT: note_on channel=5 note=58 velocity=127 time=0.0020833333333333333
EXTRACT: note_on channel=9 note=28 velocity=56 time=0
EXTRACT: note_on channel=9 note=75 velocity=61 time=0
EXTRACT: note_on channel=8 note=58 velocity=127 time=0
EXTRACT: note_off channel=9 note=75 velocity=61 time=0.11875
EXTRACT: note_on channel=9 note=75 velocity=61 time=0.00625
EXTRACT: note_off channel=9 note=28 velocity=56 time=0.06458333333333333
EXTRACT: note_off channel=9 note=75 velocity=61 time=0.05416666666666667
EXTRACT: note_off channel=5 note=58 velocity=127 time=0.004166666666666667
EXTRACT: note_off channel=8 note=58 velocity=127 time=0
EXTRACT: note_on channel=5 note=61 velocity=127 time=0.0020833333333333333
EXTRACT: note_on channel=9 note=37 velocity=127 time=0
EXTRACT: note_on channel=9 note=42 velocity=127 time=0
EXTRACT: note_on channel=9 note=28 velocity=52 time=0
EXTRACT: note_on channel=9 note=75 velocity=61 time=0
EXTRACT: note_on channel=9 note=62 velocity=127 time=0
EXTRACT: note_on channel=8 note=61 velocity=127 time=0
EXTRACT: note_off channel=9 note=75 velocity=61 time=0.11875
EXTRACT: note_off channel=9 note=28 velocity=52 time=0.07083333333333333
EXTRACT: note_off channel=9 note=37 velocity=127 time=0.03958333333333333
EXTRACT: note_off channel=9 note=42 velocity=127 time=0
EXTRACT: note_off channel=5 note=61 velocity=127 time=0.01875
EXTRACT: note_off channel=8 note=61 velocity=127 time=0
EXTRACT: note_on channel=5 note=58 velocity=127 time=0.0020833333333333333
EXTRACT: note_on channel=9 note=36 velocity=127 time=0
EXTRACT: note_on channel=9 note=35 velocity=127 time=0
EXTRACT: note_on channel=9 note=28 velocity=52 time=0
EXTRACT: note_on channel=9 note=38 velocity=67 time=0
EXTRACT: note_on channel=9 note=75 velocity=61 time=0
EXTRACT: note_on channel=8 note=58 velocity=127 time=0
EXTRACT: note_off channel=9 note=62 velocity=127 time=0.0010416666666666667
EXTRACT: note_off channel=9 note=75 velocity=61 time=0.11770833333333333
EXTRACT: note_off channel=9 note=28 velocity=52 time=0.07083333333333333
EXTRACT: note_off channel=9 note=38 velocity=67 time=0.034375
EXTRACT: note_off channel=9 note=36 velocity=127 time=0.005208333333333333
EXTRACT: note_off channel=9 note=35 velocity=127 time=0
EXTRACT: note_off channel=5 note=58 velocity=127 time=0.01875
EXTRACT: note_off channel=8 note=58 velocity=127 time=0
EXTRACT: note_on channel=5 note=65 velocity=127 time=0.0020833333333333333
EXTRACT: note_on channel=9 note=28 velocity=52 time=0
EXTRACT: note_on channel=8 note=65 velocity=127 time=0
EXTRACT: note_off channel=9 note=28 velocity=52 time=0.18958333333333333
EXTRACT: note_off channel=5 note=65 velocity=127 time=0.058333333333333334
EXTRACT: note_off channel=8 note=65 velocity=127 time=0
EXTRACT: note_on channel=5 note=63 velocity=127 time=0.0020833333333333333
EXTRACT: note_on channel=9 note=36 velocity=127 time=0
EXTRACT: note_on channel=9 note=35 velocity=127 time=0
EXTRACT: note_on channel=9 note=28 velocity=52 time=0
EXTRACT: note_on channel=9 note=43 velocity=43 time=0
EXTRACT: note_on channel=9 note=38 velocity=67 time=0
EXTRACT: note_on channel=9 note=75 velocity=56 time=0
EXTRACT: note_on channel=8 note=63 velocity=127 time=0
EXTRACT: note_off channel=9 note=43 velocity=43 time=0.096875
EXTRACT: note_off channel=9 note=75 velocity=56 time=0.021875
EXTRACT: note_on channel=9 note=41 velocity=43 time=0.00625
EXTRACT: note_off channel=9 note=28 velocity=52 time=0.06458333333333333
EXTRACT: note_off channel=9 note=41 velocity=43 time=0.03229166666666666
EXTRACT: note_off channel=9 note=38 velocity=67 time=0.0020833333333333333
EXTRACT: note_off channel=9 note=36 velocity=127 time=0.005208333333333333
EXTRACT: note_off channel=9 note=35 velocity=127 time=0
EXTRACT: note_off channel=5 note=63 velocity=127 time=0.01875
EXTRACT: note_off channel=8 note=63 velocity=127 time=0
EXTRACT: note_on channel=5 note=63 velocity=127 time=0.0020833333333333333
EXTRACT: note_on channel=9 note=37 velocity=127 time=0
EXTRACT: note_on channel=9 note=42 velocity=127 time=0
EXTRACT: note_on channel=9 note=28 velocity=52 time=0
EXTRACT: note_on channel=9 note=62 velocity=127 time=0
EXTRACT: note_on channel=8 note=63 velocity=127 time=0
EXTRACT: note_on channel=9 note=36 velocity=127 time=0.125
EXTRACT: note_on channel=9 note=35 velocity=127 time=0
EXTRACT: note_on channel=9 note=38 velocity=65 time=0
EXTRACT: note_off channel=9 note=28 velocity=52 time=0.06458333333333333
EXTRACT: note_off channel=9 note=37 velocity=127 time=0.03958333333333333
EXTRACT: note_off channel=9 note=42 velocity=127 time=0
EXTRACT: note_off channel=5 note=63 velocity=127 time=0.01875
EXTRACT: note_off channel=8 note=63 velocity=127 time=0
EXTRACT: note_on channel=5 note=61 velocity=127 time=0.0020833333333333333
EXTRACT: note_on channel=9 note=37 velocity=127 time=0
EXTRACT: note_on channel=9 note=42 velocity=127 time=0
EXTRACT: note_on channel=9 note=28 velocity=54 time=0
EXTRACT: note_on channel=9 note=75 velocity=60 time=0
EXTRACT: note_on channel=9 note=62 velocity=127 time=0
EXTRACT: note_on channel=8 note=61 velocity=127 time=0
EXTRACT: note_off channel=9 note=62 velocity=127 time=0.0010416666666666667
EXTRACT: note_off channel=9 note=38 velocity=65 time=0.09791666666666667
EXTRACT: note_off channel=9 note=36 velocity=127 time=0.005208333333333333
EXTRACT: note_off channel=9 note=35 velocity=127 time=0
EXTRACT: note_off channel=9 note=75 velocity=60 time=0.014583333333333334
EXTRACT: note_on channel=9 note=75 velocity=58 time=0.00625
EXTRACT: note_off channel=9 note=28 velocity=54 time=0.06458333333333333
EXTRACT: note_off channel=9 note=37 velocity=127 time=0.03958333333333333
EXTRACT: note_off channel=9 note=42 velocity=127 time=0
EXTRACT: note_off channel=9 note=75 velocity=58 time=0.014583333333333334
EXTRACT: note_off channel=5 note=61 velocity=127 time=0.004166666666666667
EXTRACT: note_off channel=8 note=61 velocity=127 time=0
EXTRACT: note_on channel=5 note=61 velocity=127 time=0.0020833333333333333
EXTRACT: note_on channel=9 note=36 velocity=127 time=0
EXTRACT: note_on channel=9 note=35 velocity=127 time=0
EXTRACT: note_on channel=9 note=28 velocity=54 time=0
EXTRACT: note_on channel=9 note=38 velocity=65 time=0
EXTRACT: note_on channel=9 note=75 velocity=61 time=0
EXTRACT: note_on channel=8 note=61 velocity=127 time=0
EXTRACT: note_off channel=9 note=62 velocity=127 time=0.0010416666666666667
EXTRACT: note_off channel=9 note=75 velocity=61 time=0.11770833333333333
EXTRACT: note_off channel=9 note=28 velocity=54 time=0.07083333333333333
EXTRACT: note_off channel=9 note=38 velocity=65 time=0.034375
EXTRACT: note_off channel=9 note=36 velocity=127 time=0.005208333333333333
EXTRACT: note_off channel=9 note=35 velocity=127 time=0
EXTRACT: note_off channel=5 note=61 velocity=127 time=0.01875
EXTRACT: note_off channel=8 note=61 velocity=127 time=0
EXTRACT: note_on channel=5 note=58 velocity=127 time=0.0020833333333333333
EXTRACT: note_on channel=9 note=28 velocity=56 time=0
EXTRACT: note_on channel=9 note=75 velocity=61 time=0
EXTRACT: note_on channel=8 note=58 velocity=127 time=0
EXTRACT: note_off channel=9 note=75 velocity=61 time=0.11875
EXTRACT: note_on channel=9 note=75 velocity=61 time=0.00625
EXTRACT: note_off channel=9 note=28 velocity=56 time=0.06458333333333333
EXTRACT: note_off channel=9 note=75 velocity=61 time=0.05416666666666667
EXTRACT: note_off channel=5 note=58 velocity=127 time=0.004166666666666667
EXTRACT: note_off channel=8 note=58 velocity=127 time=0
EXTRACT: note_on channel=5 note=61 velocity=127 time=0.0020833333333333333
EXTRACT: note_on channel=9 note=37 velocity=127 time=0
EXTRACT: note_on channel=9 note=42 velocity=127 time=0
EXTRACT: note_on channel=9 note=28 velocity=52 time=0
EXTRACT: note_on channel=9 note=75 velocity=61 time=0
EXTRACT: note_on channel=9 note=62 velocity=127 time=0
EXTRACT: note_on channel=8 note=61 velocity=127 time=0
EXTRACT: note_off channel=9 note=75 velocity=61 time=0.11875
EXTRACT: note_off channel=9 note=28 velocity=52 time=0.07083333333333333
EXTRACT: note_off channel=9 note=37 velocity=127 time=0.03958333333333333
EXTRACT: note_off channel=9 note=42 velocity=127 time=0
EXTRACT: note_off channel=5 note=61 velocity=127 time=0.01875
EXTRACT: note_off channel=8 note=61 velocity=127 time=0
EXTRACT: note_on channel=5 note=58 velocity=127 time=0.0020833333333333333
EXTRACT: note_on channel=9 note=36 velocity=127 time=0
EXTRACT: note_on channel=9 note=35 velocity=127 time=0
EXTRACT: note_on channel=9 note=28 velocity=52 time=0
EXTRACT: note_on channel=9 note=38 velocity=67 time=0
EXTRACT: note_on channel=9 note=75 velocity=61 time=0
EXTRACT: note_on channel=8 note=58 velocity=127 time=0
EXTRACT: note_off channel=9 note=62 velocity=127 time=0.0010416666666666667
EXTRACT: note_off channel=9 note=75 velocity=61 time=0.11770833333333333
EXTRACT: note_off channel=9 note=28 velocity=52 time=0.07083333333333333
EXTRACT: note_off channel=9 note=38 velocity=67 time=0.034375
EXTRACT: note_off channel=9 note=36 velocity=127 time=0.005208333333333333
EXTRACT: note_off channel=9 note=35 velocity=127 time=0
EXTRACT: note_off channel=5 note=58 velocity=127 time=0.01875
EXTRACT: note_off channel=8 note=58 velocity=127 time=0
EXTRACT: note_on channel=5 note=65 velocity=127 time=0.0020833333333333333
EXTRACT: note_on channel=9 note=28 velocity=52 time=0
EXTRACT: note_on channel=8 note=65 velocity=127 time=0
EXTRACT: note_off channel=9 note=28 velocity=52 time=0.18958333333333333
EXTRACT: note_off channel=5 note=65 velocity=127 time=0.058333333333333334
EXTRACT: note_off channel=8 note=65 velocity=127 time=0
EXTRACT: note_on channel=5 note=63 velocity=127 time=0.0020833333333333333
EXTRACT: note_on channel=9 note=36 velocity=127 time=0
EXTRACT: note_on channel=9 note=35 velocity=127 time=0
EXTRACT: note_on channel=9 note=28 velocity=52 time=0
EXTRACT: note_on channel=9 note=43 velocity=43 time=0
EXTRACT: note_on channel=9 note=38 velocity=67 time=0
EXTRACT: note_on channel=9 note=75 velocity=56 time=0
EXTRACT: note_on channel=8 note=63 velocity=127 time=0
EXTRACT: note_off channel=9 note=43 velocity=43 time=0.096875
EXTRACT: note_off channel=9 note=75 velocity=56 time=0.021875
EXTRACT: note_on channel=9 note=41 velocity=43 time=0.00625
EXTRACT: note_off channel=9 note=28 velocity=52 time=0.06458333333333333
EXTRACT: note_off channel=9 note=41 velocity=43 time=0.03229166666666666
EXTRACT: note_off channel=9 note=38 velocity=67 time=0.0020833333333333333
EXTRACT: note_off channel=9 note=36 velocity=127 time=0.005208333333333333
EXTRACT: note_off channel=9 note=35 velocity=127 time=0
EXTRACT: note_off channel=5 note=63 velocity=127 time=0.01875
EXTRACT: note_off channel=8 note=63 velocity=127 time=0
EXTRACT: note_on channel=5 note=63 velocity=127 time=0.0020833333333333333
EXTRACT: note_on channel=9 note=37 velocity=127 time=0
EXTRACT: note_on channel=9 note=42 velocity=127 time=0
EXTRACT: note_on channel=9 note=28 velocity=52 time=0
EXTRACT: note_on channel=9 note=62 velocity=127 time=0
EXTRACT: note_on channel=8 note=63 velocity=127 time=0
EXTRACT: note_on channel=9 note=36 velocity=127 time=0.125
EXTRACT: note_on channel=9 note=35 velocity=127 time=0
EXTRACT: note_on channel=9 note=38 velocity=65 time=0
EXTRACT: note_off channel=9 note=28 velocity=52 time=0.06458333333333333
EXTRACT: note_off channel=9 note=37 velocity=127 time=0.03958333333333333
EXTRACT: note_off channel=9 note=42 velocity=127 time=0
EXTRACT: note_off channel=5 note=63 velocity=127 time=0.01875
EXTRACT: note_off channel=8 note=63 velocity=127 time=0
EXTRACT: note_on channel=5 note=61 velocity=127 time=0.0020833333333333333
EXTRACT: note_on channel=9 note=37 velocity=127 time=0
EXTRACT: note_on channel=9 note=42 velocity=127 time=0
EXTRACT: note_on channel=9 note=28 velocity=54 time=0
EXTRACT: note_on channel=9 note=75 velocity=60 time=0
EXTRACT: note_on channel=9 note=62 velocity=127 time=0
EXTRACT: note_on channel=8 note=61 velocity=127 time=0
EXTRACT: note_off channel=9 note=62 velocity=127 time=0.0010416666666666667
EXTRACT: note_off channel=9 note=38 velocity=65 time=0.09791666666666667
EXTRACT: note_off channel=9 note=36 velocity=127 time=0.005208333333333333
EXTRACT: note_off channel=9 note=35 velocity=127 time=0
EXTRACT: note_off channel=9 note=75 velocity=60 time=0.014583333333333334
EXTRACT: note_on channel=9 note=75 velocity=58 time=0.00625
EXTRACT: note_off channel=9 note=28 velocity=54 time=0.06458333333333333
EXTRACT: note_off channel=9 note=37 velocity=127 time=0.03958333333333333
EXTRACT: note_off channel=9 note=42 velocity=127 time=0
EXTRACT: note_off channel=9 note=75 velocity=58 time=0.014583333333333334
EXTRACT: note_off channel=5 note=61 velocity=127 time=0.004166666666666667
EXTRACT: note_off channel=8 note=61 velocity=127 time=0
EXTRACT: note_on channel=3 note=30 velocity=127 time=0.0020833333333333333
EXTRACT: note_on channel=4 note=30 velocity=127 time=0
EXTRACT: note_on channel=4 note=42 velocity=127 time=0
EXTRACT: note_on channel=6 note=66 velocity=127 time=0
EXTRACT: note_on channel=6 note=70 velocity=127 time=0
EXTRACT: note_on channel=6 note=73 velocity=127 time=0
EXTRACT: note_on channel=6 note=77 velocity=127 time=0
EXTRACT: note_on channel=9 note=36 velocity=127 time=0
EXTRACT: note_on channel=9 note=35 velocity=127 time=0
EXTRACT: note_on channel=9 note=28 velocity=54 time=0
EXTRACT: note_on channel=9 note=38 velocity=65 time=0
EXTRACT: note_on channel=9 note=75 velocity=61 time=0
EXTRACT: note_on channel=10 note=77 velocity=127 time=0
EXTRACT: note_on channel=10 note=73 velocity=127 time=0
EXTRACT: note_on channel=10 note=70 velocity=127 time=0
EXTRACT: note_on channel=10 note=66 velocity=127 time=0
EXTRACT: note_off channel=9 note=62 velocity=127 time=0.0010416666666666667
EXTRACT: note_off channel=9 note=75 velocity=61 time=0.11770833333333333
EXTRACT: note_off channel=9 note=28 velocity=54 time=0.07083333333333333
EXTRACT: note_off channel=9 note=38 velocity=65 time=0.034375
EXTRACT: note_off channel=9 note=36 velocity=127 time=0.005208333333333333
EXTRACT: note_off channel=9 note=35 velocity=127 time=0
EXTRACT: note_on channel=9 note=28 velocity=56 time=0.020833333333333332
EXTRACT: note_on channel=9 note=75 velocity=61 time=0
EXTRACT: note_off channel=9 note=75 velocity=61 time=0.11875
EXTRACT: note_on channel=9 note=75 velocity=61 time=0.00625
EXTRACT: note_off channel=9 note=28 velocity=56 time=0.06458333333333333
EXTRACT: note_off channel=9 note=75 velocity=61 time=0.05416666666666667
EXTRACT: note_on channel=9 note=37 velocity=127 time=0.00625
EXTRACT: note_on channel=9 note=42 velocity=127 time=0
EXTRACT: note_on channel=9 note=28 velocity=52 time=0
EXTRACT: note_on channel=9 note=75 velocity=61 time=0
EXTRACT: note_on channel=9 note=62 velocity=127 time=0
EXTRACT: note_off channel=9 note=75 velocity=61 time=0.11875
EXTRACT: note_off channel=9 note=28 velocity=52 time=0.07083333333333333
EXTRACT: note_off channel=9 note=37 velocity=127 time=0.03958333333333333
EXTRACT: note_off channel=9 note=42 velocity=127 time=0
EXTRACT: note_on channel=1 note=46 velocity=127 time=0.020833333333333332
EXTRACT: note_on channel=1 note=58 velocity=127 time=0
EXTRACT: note_on channel=9 note=36 velocity=127 time=0
EXTRACT: note_on channel=9 note=35 velocity=127 time=0
EXTRACT: note_on channel=9 note=28 velocity=52 time=0
EXTRACT: note_on channel=9 note=38 velocity=67 time=0
EXTRACT: note_on channel=9 note=75 velocity=61 time=0
EXTRACT: note_off channel=9 note=62 velocity=127 time=0.0010416666666666667
EXTRACT: note_off channel=9 note=75 velocity=61 time=0.11770833333333333
EXTRACT: note_off channel=9 note=28 velocity=52 time=0.07083333333333333
EXTRACT: note_off channel=9 note=38 velocity=67 time=0.034375
EXTRACT: note_off channel=9 note=36 velocity=127 time=0.005208333333333333
EXTRACT: note_off channel=9 note=35 velocity=127 time=0
EXTRACT: note_off channel=1 note=46 velocity=127 time=0.01875
EXTRACT: note_off channel=1 note=58 velocity=127 time=0
EXTRACT: note_on channel=1 note=49 velocity=127 time=0.0020833333333333333
EXTRACT: note_on channel=1 note=61 velocity=127 time=0
EXTRACT: note_on channel=9 note=28 velocity=52 time=0
EXTRACT: note_off channel=9 note=28 velocity=52 time=0.18958333333333333
EXTRACT: note_off channel=1 note=49 velocity=127 time=0.058333333333333334
EXTRACT: note_off channel=1 note=61 velocity=127 time=0
EXTRACT: note_on channel=1 note=46 velocity=127 time=0.0020833333333333333
EXTRACT: note_on channel=1 note=58 velocity=127 time=0
EXTRACT: note_on channel=9 note=36 velocity=127 time=0
EXTRACT: note_on channel=9 note=35 velocity=127 time=0
EXTRACT: note_on channel=9 note=28 velocity=52 time=0
EXTRACT: note_on channel=9 note=43 velocity=43 time=0
EXTRACT: note_on channel=9 note=38 velocity=67 time=0
EXTRACT: note_on channel=9 note=75 velocity=56 time=0
EXTRACT: note_off channel=9 note=43 velocity=43 time=0.096875
EXTRACT: note_off channel=9 note=75 velocity=56 time=0.021875
EXTRACT: note_on channel=9 note=41 velocity=43 time=0.00625
EXTRACT: note_off channel=9 note=28 velocity=52 time=0.06458333333333333
EXTRACT: note_off channel=9 note=41 velocity=43 time=0.03229166666666666
EXTRACT: note_off channel=9 note=38 velocity=67 time=0.0020833333333333333
EXTRACT: note_off channel=9 note=36 velocity=127 time=0.005208333333333333
EXTRACT: note_off channel=9 note=35 velocity=127 time=0
EXTRACT: note_off channel=1 note=46 velocity=127 time=0.01875
EXTRACT: note_off channel=1 note=58 velocity=127 time=0
EXTRACT: note_off channel=3 note=30 velocity=127 time=0
EXTRACT: note_off channel=4 note=30 velocity=127 time=0
EXTRACT: note_off channel=4 note=42 velocity=127 time=0
EXTRACT: note_on channel=1 note=46 velocity=127 time=0.0020833333333333333
EXTRACT: note_on channel=1 note=58 velocity=127 time=0
EXTRACT: note_on channel=9 note=37 velocity=127 time=0
EXTRACT: note_on channel=9 note=42 velocity=127 time=0
EXTRACT: note_on channel=9 note=28 velocity=52 time=0
EXTRACT: note_on channel=9 note=62 velocity=127 time=0
EXTRACT: note_on channel=9 note=36 velocity=127 time=0.125
EXTRACT: note_on channel=9 note=35 velocity=127 time=0
EXTRACT: note_on channel=9 note=38 velocity=65 time=0
EXTRACT: note_off channel=9 note=28 velocity=52 time=0.06458333333333333
EXTRACT: note_off channel=9 note=37 velocity=127 time=0.03958333333333333
EXTRACT: note_off channel=9 note=42 velocity=127 time=0
EXTRACT: note_off channel=1 note=46 velocity=127 time=0.01875
EXTRACT: note_off channel=1 note=58 velocity=127 time=0
EXTRACT: note_on channel=1 note=46 velocity=127 time=0.0020833333333333333
EXTRACT: note_on channel=1 note=58 velocity=127 time=0
EXTRACT: note_on channel=3 note=30 velocity=97 time=0
EXTRACT: note_on channel=4 note=30 velocity=97 time=0
EXTRACT: note_on channel=4 note=42 velocity=97 time=0
EXTRACT: note_on channel=9 note=37 velocity=127 time=0
EXTRACT: note_on channel=9 note=42 velocity=127 time=0
EXTRACT: note_on channel=9 note=28 velocity=54 time=0
EXTRACT: note_on channel=9 note=75 velocity=60 time=0
EXTRACT: note_on channel=9 note=62 velocity=127 time=0
EXTRACT: note_off channel=9 note=62 velocity=127 time=0.0010416666666666667
EXTRACT: note_off channel=9 note=38 velocity=65 time=0.09791666666666667
EXTRACT: note_off channel=9 note=36 velocity=127 time=0.005208333333333333
EXTRACT: note_off channel=9 note=35 velocity=127 time=0
EXTRACT: note_off channel=9 note=75 velocity=60 time=0.014583333333333334
EXTRACT: note_off channel=3 note=30 velocity=97 time=0.004166666666666667
EXTRACT: note_off channel=4 note=30 velocity=97 time=0
EXTRACT: note_off channel=4 note=42 velocity=97 time=0
EXTRACT: note_on channel=3 note=32 velocity=97 time=0.0020833333333333333
EXTRACT: note_on channel=4 note=32 velocity=97 time=0
EXTRACT: note_on channel=4 note=44 velocity=97 time=0
EXTRACT: note_on channel=9 note=75 velocity=58 time=0
EXTRACT: note_off channel=9 note=28 velocity=54 time=0.06458333333333333
EXTRACT: note_off channel=9 note=37 velocity=127 time=0.03958333333333333
EXTRACT: note_off channel=9 note=42 velocity=127 time=0
EXTRACT: note_off channel=9 note=75 velocity=58 time=0.014583333333333334
EXTRACT: note_off channel=1 note=46 velocity=127 time=0.004166666666666667
EXTRACT: note_off channel=1 note=58 velocity=127 time=0
EXTRACT: note_off channel=3 note=32 velocity=97 time=0
EXTRACT: note_off channel=4 note=32 velocity=97 time=0
EXTRACT: note_off channel=4 note=44 velocity=97 time=0
EXTRACT: note_off channel=6 note=66 velocity=127 time=0
EXTRACT: note_off channel=6 note=70 velocity=127 time=0
EXTRACT: note_off channel=6 note=73 velocity=127 time=0
EXTRACT: note_off channel=6 note=77 velocity=127 time=0
EXTRACT: note_off channel=10 note=77 velocity=127 time=0
EXTRACT: note_off channel=10 note=73 velocity=127 time=0
EXTRACT: note_off channel=10 note=70 velocity=127 time=0
EXTRACT: note_off channel=10 note=66 velocity=127 time=0
EXTRACT: note_on channel=1 note=56 velocity=127 time=0.0020833333333333333
EXTRACT: note_on channel=1 note=44 velocity=127 time=0
EXTRACT: note_on channel=3 note=27 velocity=127 time=0
EXTRACT: note_on channel=4 note=27 velocity=127 time=0
EXTRACT: note_on channel=4 note=39 velocity=127 time=0
EXTRACT: note_on channel=6 note=63 velocity=97 time=0
EXTRACT: note_on channel=6 note=66 velocity=97 time=0
EXTRACT: note_on channel=6 note=70 velocity=97 time=0
EXTRACT: note_on channel=9 note=28 velocity=54 time=0
EXTRACT: note_on channel=9 note=35 velocity=127 time=0
EXTRACT: note_on channel=9 note=36 velocity=127 time=0
EXTRACT: note_on channel=9 note=38 velocity=65 time=0
EXTRACT: note_on channel=9 note=75 velocity=61 time=0
EXTRACT: note_on channel=10 note=70 velocity=97 time=0
EXTRACT: note_on channel=10 note=66 velocity=97 time=0
EXTRACT: note_on channel=10 note=63 velocity=97 time=0
EXTRACT: note_off channel=9 note=62 velocity=127 time=0.0010416666666666667
EXTRACT: note_off channel=9 note=75 velocity=61 time=0.11770833333333333
EXTRACT: note_off channel=9 note=28 velocity=54 time=0.07083333333333333
EXTRACT: note_off channel=9 note=38 velocity=65 time=0.034375
EXTRACT: note_off channel=9 note=35 velocity=127 time=0.005208333333333333
EXTRACT: note_off channel=9 note=36 velocity=127 time=0
EXTRACT: note_on channel=1 note=46 velocity=71 time=0.020833333333333332
EXTRACT: note_on channel=1 note=58 velocity=71 time=0
EXTRACT: note_on channel=9 note=28 velocity=56 time=0
EXTRACT: note_on channel=9 note=75 velocity=61 time=0
EXTRACT: note_off channel=9 note=75 velocity=61 time=0.11875
EXTRACT: note_on channel=9 note=75 velocity=61 time=0.00625
EXTRACT: note_off channel=9 note=28 velocity=56 time=0.06458333333333333
EXTRACT: note_off channel=1 note=56 velocity=127 time=0.04791666666666666
EXTRACT: note_off channel=9 note=75 velocity=61 time=0.00625
EXTRACT: note_off channel=1 note=46 velocity=71 time=0.004166666666666667
EXTRACT: note_off channel=1 note=58 velocity=71 time=0
EXTRACT: note_on channel=1 note=44 velocity=71 time=0.0020833333333333333
EXTRACT: note_on channel=1 note=56 velocity=71 time=0
EXTRACT: note_on channel=9 note=28 velocity=52 time=0
EXTRACT: note_on channel=9 note=42 velocity=127 time=0
EXTRACT: note_on channel=9 note=37 velocity=127 time=0
EXTRACT: note_on channel=9 note=62 velocity=127 time=0
EXTRACT: note_on channel=9 note=75 velocity=61 time=0
EXTRACT: note_off channel=1 note=44 velocity=127 time=0.019791666666666666
EXTRACT: note_off channel=9 note=75 velocity=61 time=0.09895833333333333
EXTRACT: note_off channel=9 note=28 velocity=52 time=0.07083333333333333
EXTRACT: note_off channel=9 note=42 velocity=127 time=0.03958333333333333
EXTRACT: note_off channel=9 note=37 velocity=127 time=0
EXTRACT: note_on channel=1 note=46 velocity=127 time=0.020833333333333332
EXTRACT: note_on channel=1 note=58 velocity=127 time=0
EXTRACT: note_on channel=9 note=28 velocity=52 time=0
EXTRACT: note_on channel=9 note=35 velocity=127 time=0
EXTRACT: note_on channel=9 note=36 velocity=127 time=0
EXTRACT: note_on channel=9 note=38 velocity=67 time=0
EXTRACT: note_on channel=9 note=75 velocity=61 time=0
EXTRACT: note_off channel=9 note=62 velocity=127 time=0.0010416666666666667
EXTRACT: note_off channel=9 note=75 velocity=61 time=0.11770833333333333
EXTRACT: note_off channel=9 note=28 velocity=52 time=0.07083333333333333
EXTRACT: note_off channel=9 note=38 velocity=67 time=0.034375
EXTRACT: note_off channel=9 note=35 velocity=127 time=0.005208333333333333
EXTRACT: note_off channel=9 note=36 velocity=127 time=0
EXTRACT: note_off channel=1 note=46 velocity=127 time=0.01875
EXTRACT: note_off channel=1 note=58 velocity=127 time=0
EXTRACT: note_on channel=1 note=49 velocity=127 time=0.0020833333333333333
EXTRACT: note_on channel=1 note=61 velocity=127 time=0
EXTRACT: note_on channel=9 note=28 velocity=52 time=0
EXTRACT: note_off channel=1 note=44 velocity=71 time=0.019791666666666666
EXTRACT: note_off channel=1 note=56 velocity=71 time=0
EXTRACT: note_off channel=9 note=28 velocity=52 time=0.16979166666666667
EXTRACT: note_off channel=1 note=49 velocity=127 time=0.058333333333333334
EXTRACT: note_off channel=1 note=61 velocity=127 time=0
EXTRACT: note_on channel=1 note=46 velocity=127 time=0.0020833333333333333
EXTRACT: note_on channel=1 note=58 velocity=127 time=0
EXTRACT: note_on channel=9 note=43 velocity=43 time=0
EXTRACT: note_on channel=9 note=28 velocity=52 time=0
EXTRACT: note_on channel=9 note=35 velocity=127 time=0
EXTRACT: note_on channel=9 note=36 velocity=127 time=0
EXTRACT: note_on channel=9 note=38 velocity=67 time=0
EXTRACT: note_on channel=9 note=75 velocity=56 time=0
EXTRACT: note_off channel=9 note=43 velocity=43 time=0.096875
EXTRACT: note_off channel=9 note=75 velocity=56 time=0.021875
EXTRACT: note_on channel=9 note=41 velocity=43 time=0.00625
EXTRACT: note_off channel=9 note=28 velocity=52 time=0.06458333333333333
EXTRACT: note_off channel=9 note=41 velocity=43 time=0.03229166666666666
EXTRACT: note_off channel=9 note=38 velocity=67 time=0.0020833333333333333
EXTRACT: note_off channel=9 note=35 velocity=127 time=0.005208333333333333
EXTRACT: note_off channel=9 note=36 velocity=127 time=0
EXTRACT: note_off channel=1 note=46 velocity=127 time=0.01875
EXTRACT: note_off channel=1 note=58 velocity=127 time=0
EXTRACT: note_on channel=1 note=46 velocity=127 time=0.0020833333333333333
EXTRACT: note_on channel=1 note=58 velocity=127 time=0
EXTRACT: note_on channel=9 note=28 velocity=52 time=0
EXTRACT: note_on channel=9 note=42 velocity=127 time=0
EXTRACT: note_on channel=9 note=37 velocity=127 time=0
EXTRACT: note_on channel=9 note=62 velocity=127 time=0
EXTRACT: note_on channel=9 note=35 velocity=127 time=0.125
EXTRACT: note_on channel=9 note=36 velocity=127 time=0
EXTRACT: note_on channel=9 note=38 velocity=65 time=0
EXTRACT: note_off channel=9 note=28 velocity=52 time=0.06458333333333333
EXTRACT: note_off channel=9 note=42 velocity=127 time=0.03958333333333333
EXTRACT: note_off channel=9 note=37 velocity=127 time=0
EXTRACT: note_off channel=1 note=46 velocity=127 time=0.01875
EXTRACT: note_off channel=1 note=58 velocity=127 time=0
EXTRACT: note_on channel=1 note=46 velocity=127 time=0.0020833333333333333
EXTRACT: note_on channel=1 note=58 velocity=127 time=0
EXTRACT: note_on channel=9 note=28 velocity=54 time=0
EXTRACT: note_on channel=9 note=42 velocity=127 time=0
EXTRACT: note_on channel=9 note=37 velocity=127 time=0
EXTRACT: note_on channel=9 note=62 velocity=127 time=0
EXTRACT: note_on channel=9 note=75 velocity=60 time=0
EXTRACT: note_off channel=9 note=62 velocity=127 time=0.0010416666666666667
EXTRACT: note_off channel=9 note=38 velocity=65 time=0.09791666666666667
EXTRACT: note_off channel=9 note=35 velocity=127 time=0.005208333333333333
EXTRACT: note_off channel=9 note=36 velocity=127 time=0
EXTRACT: note_off channel=9 note=75 velocity=60 time=0.014583333333333334
EXTRACT: note_on channel=9 note=75 velocity=58 time=0.00625
EXTRACT: note_off channel=9 note=28 velocity=54 time=0.06458333333333333
EXTRACT: note_off channel=9 note=42 velocity=127 time=0.03958333333333333
EXTRACT: note_off channel=9 note=37 velocity=127 time=0
EXTRACT: note_off channel=9 note=75 velocity=58 time=0.014583333333333334
EXTRACT: note_off channel=1 note=46 velocity=127 time=0.004166666666666667
EXTRACT: note_off channel=1 note=58 velocity=127 time=0
EXTRACT: note_off channel=6 note=63 velocity=97 time=0
EXTRACT: note_off channel=6 note=66 velocity=97 time=0
EXTRACT: note_off channel=6 note=70 velocity=97 time=0
EXTRACT: note_off channel=10 note=70 velocity=97 time=0
EXTRACT: note_off channel=10 note=66 velocity=97 time=0
EXTRACT: note_off channel=10 note=63 velocity=97 time=0
EXTRACT: note_on channel=1 note=44 velocity=127 time=0.0020833333333333333
EXTRACT: note_on channel=1 note=56 velocity=127 time=0
EXTRACT: note_on channel=3 note=34 velocity=127 time=0
EXTRACT: note_on channel=4 note=34 velocity=127 time=0
EXTRACT: note_on channel=4 note=46 velocity=127 time=0
EXTRACT: note_on channel=6 note=78 velocity=127 time=0
EXTRACT: note_on channel=9 note=28 velocity=54 time=0
EXTRACT: note_on channel=9 note=35 velocity=127 time=0
EXTRACT: note_on channel=9 note=36 velocity=127 time=0
EXTRACT: note_on channel=9 note=38 velocity=65 time=0
EXTRACT: note_on channel=9 note=75 velocity=61 time=0
EXTRACT: note_on channel=10 note=78 velocity=127 time=0
EXTRACT: note_off channel=9 note=62 velocity=127 time=0.0010416666666666667
EXTRACT: note_off channel=3 note=27 velocity=127 time=0.0125
EXTRACT: note_off channel=4 note=27 velocity=127 time=0
EXTRACT: note_off channel=4 note=39 velocity=127 time=0
EXTRACT: note_off channel=9 note=75 velocity=61 time=0.10520833333333333
EXTRACT: note_off channel=9 note=28 velocity=54 time=0.07083333333333333
EXTRACT: note_off channel=9 note=38 velocity=65 time=0.034375
EXTRACT: note_off channel=9 note=35 velocity=127 time=0.005208333333333333
EXTRACT: note_off channel=9 note=36 velocity=127 time=0
EXTRACT: note_on channel=1 note=46 velocity=85 time=0.020833333333333332
EXTRACT: note_on channel=1 note=58 velocity=85 time=0
EXTRACT: note_on channel=9 note=28 velocity=56 time=0
EXTRACT: note_on channel=9 note=75 velocity=61 time=0
EXTRACT: note_off channel=9 note=75 velocity=61 time=0.11875
EXTRACT: note_on channel=9 note=75 velocity=61 time=0.00625
EXTRACT: note_off channel=9 note=28 velocity=56 time=0.06458333333333333
EXTRACT: note_off channel=1 note=44 velocity=127 time=0.026041666666666668
EXTRACT: note_off channel=1 note=56 velocity=127 time=0
EXTRACT: note_off channel=9 note=75 velocity=61 time=0.028125
EXTRACT: note_off channel=1 note=46 velocity=85 time=0.004166666666666667
EXTRACT: note_off channel=1 note=58 velocity=85 time=0
EXTRACT: note_off channel=6 note=78 velocity=127 time=0
EXTRACT: note_off channel=10 note=78 velocity=127 time=0
EXTRACT: note_on channel=1 note=44 velocity=80 time=0.0020833333333333333
EXTRACT: note_on channel=1 note=56 velocity=80 time=0
EXTRACT: note_on channel=6 note=70 velocity=127 time=0
EXTRACT: note_on channel=6 note=73 velocity=127 time=0
EXTRACT: note_on channel=6 note=77 velocity=127 time=0
EXTRACT: note_on channel=9 note=28 velocity=52 time=0
EXTRACT: note_on channel=9 note=42 velocity=127 time=0
EXTRACT: note_on channel=9 note=37 velocity=127 time=0
EXTRACT: note_on channel=9 note=62 velocity=127 time=0
EXTRACT: note_on channel=9 note=75 velocity=61 time=0
EXTRACT: note_on channel=10 note=77 velocity=127 time=0
EXTRACT: note_on channel=10 note=73 velocity=127 time=0
EXTRACT: note_on channel=10 note=70 velocity=127 time=0
EXTRACT: note_off channel=9 note=75 velocity=61 time=0.11875
EXTRACT: note_off channel=9 note=28 velocity=52 time=0.07083333333333333
EXTRACT: note_off channel=9 note=42 velocity=127 time=0.03958333333333333
EXTRACT: note_off channel=9 note=37 velocity=127 time=0
EXTRACT: note_on channel=1 note=46 velocity=127 time=0.020833333333333332
EXTRACT: note_on channel=1 note=58 velocity=127 time=0
EXTRACT: note_on channel=9 note=28 velocity=52 time=0
EXTRACT: note_on channel=9 note=35 velocity=127 time=0
EXTRACT: note_on channel=9 note=36 velocity=127 time=0
EXTRACT: note_on channel=9 note=38 velocity=67 time=0
EXTRACT: note_on channel=9 note=75 velocity=61 time=0
EXTRACT: note_off channel=9 note=62 velocity=127 time=0.0010416666666666667
EXTRACT: note_off channel=9 note=75 velocity=61 time=0.11770833333333333
EXTRACT: note_off channel=9 note=28 velocity=52 time=0.07083333333333333
EXTRACT: note_off channel=9 note=38 velocity=67 time=0.034375
EXTRACT: note_off channel=9 note=35 velocity=127 time=0.005208333333333333
EXTRACT: note_off channel=9 note=36 velocity=127 time=0
EXTRACT: note_off channel=1 note=46 velocity=127 time=0.01875
EXTRACT: note_off channel=1 note=58 velocity=127 time=0
EXTRACT: note_on channel=1 note=49 velocity=127 time=0.0020833333333333333
EXTRACT: note_on channel=1 note=61 velocity=127 time=0
EXTRACT: note_on channel=9 note=28 velocity=52 time=0
EXTRACT: note_off channel=1 note=44 velocity=80 time=0.019791666666666666
EXTRACT: note_off channel=1 note=56 velocity=80 time=0
EXTRACT: note_off channel=9 note=28 velocity=52 time=0.16979166666666667
EXTRACT: note_on channel=9 note=43 velocity=43 time=0.06041666666666667
EXTRACT: note_on channel=9 note=28 velocity=52 time=0
EXTRACT: note_on channel=9 note=35 velocity=127 time=0
EXTRACT: note_on channel=9 note=36 velocity=127 time=0
EXTRACT: note_on channel=9 note=38 velocity=67 time=0
EXTRACT: note_on channel=9 note=75 velocity=56 time=0
EXTRACT: note_off channel=9 note=43 velocity=43 time=0.096875
EXTRACT: note_off channel=9 note=75 velocity=56 time=0.021875
EXTRACT: note_on channel=9 note=41 velocity=43 time=0.00625
EXTRACT: note_off channel=9 note=28 velocity=52 time=0.06458333333333333
EXTRACT: note_off channel=9 note=41 velocity=43 time=0.03229166666666666
EXTRACT: note_off channel=9 note=38 velocity=67 time=0.0020833333333333333
EXTRACT: note_off channel=9 note=35 velocity=127 time=0.005208333333333333
EXTRACT: note_off channel=9 note=36 velocity=127 time=0
EXTRACT: note_off channel=1 note=49 velocity=127 time=0.01875
EXTRACT: note_off channel=1 note=61 velocity=127 time=0
EXTRACT: note_off channel=3 note=34 velocity=127 time=0
EXTRACT: note_off channel=4 note=34 velocity=127 time=0
EXTRACT: note_off channel=4 note=46 velocity=127 time=0
EXTRACT: note_off channel=6 note=70 velocity=127 time=0
EXTRACT: note_off channel=6 note=73 velocity=127 time=0
EXTRACT: note_off channel=6 note=77 velocity=127 time=0
EXTRACT: note_off channel=10 note=77 velocity=127 time=0
EXTRACT: note_off channel=10 note=73 velocity=127 time=0
EXTRACT: note_off channel=10 note=70 velocity=127 time=0
EXTRACT: note_on channel=1 note=46 velocity=127 time=0.0020833333333333333
EXTRACT: note_on channel=1 note=58 velocity=127 time=0
EXTRACT: note_on channel=6 note=73 velocity=127 time=0
EXTRACT: note_on channel=9 note=28 velocity=52 time=0
EXTRACT: note_on channel=9 note=42 velocity=127 time=0
EXTRACT: note_on channel=9 note=37 velocity=127 time=0
EXTRACT: note_on channel=9 note=62 velocity=127 time=0
EXTRACT: note_on channel=10 note=73 velocity=127 time=0
EXTRACT: note_on channel=9 note=35 velocity=127 time=0.125
EXTRACT: note_on channel=9 note=36 velocity=127 time=0
EXTRACT: note_on channel=9 note=38 velocity=65 time=0
EXTRACT: note_off channel=9 note=28 velocity=52 time=0.06458333333333333
EXTRACT: note_off channel=9 note=42 velocity=127 time=0.03958333333333333
EXTRACT: note_off channel=9 note=37 velocity=127 time=0
EXTRACT: note_off channel=1 note=46 velocity=127 time=0.01875
EXTRACT: note_off channel=1 note=58 velocity=127 time=0
EXTRACT: note_on channel=1 note=46 velocity=127 time=0.0020833333333333333
EXTRACT: note_on channel=1 note=58 velocity=127 time=0
EXTRACT: note_on channel=3 note=36 velocity=97 time=0
EXTRACT: note_on channel=4 note=36 velocity=97 time=0
EXTRACT: note_on channel=4 note=48 velocity=97 time=0
EXTRACT: note_on channel=9 note=28 velocity=54 time=0
EXTRACT: note_on channel=9 note=42 velocity=127 time=0
EXTRACT: note_on channel=9 note=37 velocity=127 time=0
EXTRACT: note_on channel=9 note=62 velocity=127 time=0
EXTRACT: note_on channel=9 note=75 velocity=60 time=0
EXTRACT: note_off channel=9 note=62 velocity=127 time=0.0010416666666666667
EXTRACT: note_off channel=9 note=38 velocity=65 time=0.09791666666666667
EXTRACT: note_off channel=9 note=35 velocity=127 time=0.005208333333333333
EXTRACT: note_off channel=9 note=36 velocity=127 time=0
EXTRACT: note_off channel=9 note=75 velocity=60 time=0.014583333333333334
EXTRACT: note_off channel=3 note=36 velocity=97 time=0.004166666666666667
EXTRACT: note_off channel=4 note=36 velocity=97 time=0
EXTRACT: note_off channel=4 note=48 velocity=97 time=0
EXTRACT: note_on channel=3 note=37 velocity=97 time=0.0020833333333333333
EXTRACT: note_on channel=4 note=37 velocity=97 time=0
EXTRACT: note_on channel=4 note=49 velocity=97 time=0
EXTRACT: note_on channel=9 note=75 velocity=58 time=0
EXTRACT: note_off channel=9 note=28 velocity=54 time=0.06458333333333333
EXTRACT: note_off channel=9 note=42 velocity=127 time=0.03958333333333333
EXTRACT: note_off channel=9 note=37 velocity=127 time=0
EXTRACT: note_off channel=9 note=75 velocity=58 time=0.014583333333333334
EXTRACT: note_off channel=1 note=46 velocity=127 time=0.004166666666666667
EXTRACT: note_off channel=1 note=58 velocity=127 time=0
EXTRACT: note_off channel=3 note=37 velocity=97 time=0
EXTRACT: note_off channel=4 note=37 velocity=97 time=0
EXTRACT: note_off channel=4 note=49 velocity=97 time=0
EXTRACT: note_off channel=6 note=73 velocity=127 time=0
EXTRACT: note_off channel=10 note=73 velocity=127 time=0
EXTRACT: note_on channel=1 note=56 velocity=127 time=0.0020833333333333333
EXTRACT: note_on channel=1 note=44 velocity=127 time=0
EXTRACT: note_on channel=3 note=30 velocity=127 time=0
EXTRACT: note_on channel=4 note=30 velocity=127 time=0
EXTRACT: note_on channel=4 note=42 velocity=127 time=0
EXTRACT: note_on channel=6 note=66 velocity=97 time=0
EXTRACT: note_on channel=6 note=70 velocity=97 time=0
EXTRACT: note_on channel=6 note=73 velocity=97 time=0
EXTRACT: note_on channel=9 note=28 velocity=54 time=0
EXTRACT: note_on channel=9 note=35 velocity=127 time=0
EXTRACT: note_on channel=9 note=36 velocity=127 time=0
EXTRACT: note_on channel=9 note=38 velocity=65 time=0
EXTRACT: note_on channel=9 note=75 velocity=61 time=0
EXTRACT: note_on channel=10 note=73 velocity=97 time=0
EXTRACT: note_on channel=10 note=70 velocity=97 time=0
EXTRACT: note_on channel=10 note=66 velocity=97 time=0
EXTRACT: note_off channel=9 note=62 velocity=127 time=0.0010416666666666667
EXTRACT: note_off channel=9 note=75 velocity=61 time=0.11770833333333333
EXTRACT: note_off channel=9 note=28 velocity=54 time=0.07083333333333333
EXTRACT: note_off channel=9 note=38 velocity=65 time=0.034375
EXTRACT: note_off channel=9 note=35 velocity=127 time=0.005208333333333333
EXTRACT: note_off channel=9 note=36 velocity=127 time=0
EXTRACT: note_on channel=1 note=46 velocity=80 time=0.020833333333333332
EXTRACT: note_on channel=1 note=58 velocity=80 time=0
EXTRACT: note_on channel=9 note=28 velocity=56 time=0
EXTRACT: note_on channel=9 note=75 velocity=61 time=0
EXTRACT: note_off channel=9 note=75 velocity=61 time=0.11875
EXTRACT: note_on channel=9 note=75 velocity=61 time=0.00625
EXTRACT: note_off channel=1 note=56 velocity=127 time=0.0625
EXTRACT: note_off channel=9 note=28 velocity=56 time=0.0020833333333333333
EXTRACT: note_off channel=9 note=75 velocity=61 time=0.05416666666666667
EXTRACT: note_off channel=1 note=46 velocity=80 time=0.004166666666666667
EXTRACT: note_off channel=1 note=58 velocity=80 time=0
EXTRACT: note_on channel=1 note=44 velocity=58 time=0.0020833333333333333
EXTRACT: note_on channel=1 note=56 velocity=58 time=0
EXTRACT: note_on channel=1 note=46 velocity=127 time=0
EXTRACT: note_on channel=1 note=58 velocity=127 time=0
EXTRACT: note_on channel=9 note=28 velocity=52 time=0
EXTRACT: note_on channel=9 note=42 velocity=127 time=0
EXTRACT: note_on channel=9 note=37 velocity=127 time=0
EXTRACT: note_on channel=9 note=62 velocity=127 time=0
EXTRACT: note_on channel=9 note=75 velocity=61 time=0
EXTRACT: note_off channel=1 note=44 velocity=127 time=0.0020833333333333333
EXTRACT: note_off channel=9 note=75 velocity=61 time=0.11666666666666667
EXTRACT: note_off channel=9 note=28 velocity=52 time=0.07083333333333333
EXTRACT: note_off channel=9 note=42 velocity=127 time=0.03958333333333333
EXTRACT: note_off channel=9 note=37 velocity=127 time=0
EXTRACT: note_off channel=1 note=46 velocity=127 time=0.01875
EXTRACT: note_off channel=1 note=58 velocity=127 time=0
EXTRACT: note_on channel=1 note=44 velocity=127 time=0.0020833333333333333
EXTRACT: note_on channel=1 note=56 velocity=127 time=0
EXTRACT: note_on channel=9 note=28 velocity=52 time=0
EXTRACT: note_on channel=9 note=35 velocity=127 time=0
EXTRACT: note_on channel=9 note=36 velocity=127 time=0
EXTRACT: note_on channel=9 note=38 velocity=67 time=0
EXTRACT: note_on channel=9 note=75 velocity=61 time=0
EXTRACT: note_off channel=9 note=62 velocity=127 time=0.0010416666666666667
EXTRACT: note_off channel=9 note=75 velocity=61 time=0.11770833333333333
EXTRACT: note_off channel=9 note=28 velocity=52 time=0.07083333333333333
EXTRACT: note_off channel=9 note=38 velocity=67 time=0.034375
EXTRACT: note_off channel=9 note=35 velocity=127 time=0.005208333333333333
EXTRACT: note_off channel=9 note=36 velocity=127 time=0
EXTRACT: note_off channel=1 note=44 velocity=127 time=0.01875
EXTRACT: note_off channel=1 note=56 velocity=127 time=0
EXTRACT: note_on channel=1 note=49 velocity=127 time=0.0020833333333333333
EXTRACT: note_on channel=1 note=61 velocity=127 time=0
EXTRACT: note_on channel=9 note=28 velocity=52 time=0
EXTRACT: note_off channel=1 note=44 velocity=58 time=0.019791666666666666
EXTRACT: note_off channel=1 note=56 velocity=58 time=0
EXTRACT: note_off channel=9 note=28 velocity=52 time=0.16979166666666667
EXTRACT: note_off channel=1 note=49 velocity=127 time=0.058333333333333334
EXTRACT: note_off channel=1 note=61 velocity=127 time=0
EXTRACT: note_on channel=1 note=49 velocity=127 time=0.0020833333333333333
EXTRACT: note_on channel=1 note=61 velocity=127 time=0
EXTRACT: note_on channel=9 note=43 velocity=43 time=0
EXTRACT: note_on channel=9 note=28 velocity=52 time=0
EXTRACT: note_on channel=9 note=35 velocity=127 time=0
EXTRACT: note_on channel=9 note=36 velocity=127 time=0
EXTRACT: note_on channel=9 note=38 velocity=67 time=0
EXTRACT: note_on channel=9 note=75 velocity=56 time=0
EXTRACT: note_off channel=9 note=43 velocity=43 time=0.096875
EXTRACT: note_off channel=9 note=75 velocity=56 time=0.021875
EXTRACT: note_on channel=9 note=41 velocity=43 time=0.00625
EXTRACT: note_off channel=9 note=28 velocity=52 time=0.06458333333333333
EXTRACT: note_off channel=9 note=41 velocity=43 time=0.03229166666666666
EXTRACT: note_off channel=9 note=38 velocity=67 time=0.0020833333333333333
EXTRACT: note_off channel=9 note=35 velocity=127 time=0.005208333333333333
EXTRACT: note_off channel=9 note=36 velocity=127 time=0
EXTRACT: note_off channel=1 note=49 velocity=127 time=0.01875
EXTRACT: note_off channel=1 note=61 velocity=127 time=0
EXTRACT: note_on channel=1 note=46 velocity=127 time=0.0020833333333333333
EXTRACT: note_on channel=1 note=58 velocity=127 time=0
EXTRACT: note_on channel=9 note=28 velocity=52 time=0
EXTRACT: note_on channel=9 note=42 velocity=127 time=0
EXTRACT: note_on channel=9 note=37 velocity=127 time=0
EXTRACT: note_on channel=9 note=62 velocity=127 time=0
EXTRACT: note_on channel=9 note=35 velocity=127 time=0.125
EXTRACT: note_on channel=9 note=36 velocity=127 time=0
EXTRACT: note_on channel=9 note=38 velocity=65 time=0
EXTRACT: note_off channel=9 note=28 velocity=52 time=0.06458333333333333
EXTRACT: note_off channel=9 note=42 velocity=127 time=0.03958333333333333
EXTRACT: note_off channel=9 note=37 velocity=127 time=0
EXTRACT: note_off channel=1 note=46 velocity=127 time=0.01875
EXTRACT: note_off channel=1 note=58 velocity=127 time=0
EXTRACT: note_on channel=1 note=46 velocity=127 time=0.0020833333333333333
EXTRACT: note_on channel=1 note=58 velocity=127 time=0
EXTRACT: note_on channel=9 note=28 velocity=54 time=0
EXTRACT: note_on channel=9 note=42 velocity=127 time=0
EXTRACT: note_on channel=9 note=37 velocity=127 time=0
EXTRACT: note_on channel=9 note=62 velocity=127 time=0
EXTRACT: note_on channel=9 note=75 velocity=60 time=0
EXTRACT: note_off channel=9 note=62 velocity=127 time=0.0010416666666666667
EXTRACT: note_off channel=9 note=38 velocity=65 time=0.09791666666666667
EXTRACT: note_off channel=9 note=35 velocity=127 time=0.005208333333333333
EXTRACT: note_off channel=9 note=36 velocity=127 time=0
EXTRACT: note_off channel=9 note=75 velocity=60 time=0.014583333333333334
EXTRACT: note_on channel=9 note=75 velocity=58 time=0.00625
EXTRACT: note_off channel=9 note=28 velocity=54 time=0.06458333333333333
EXTRACT: note_off channel=9 note=42 velocity=127 time=0.03958333333333333
EXTRACT: note_off channel=9 note=37 velocity=127 time=0
EXTRACT: note_off channel=9 note=75 velocity=58 time=0.014583333333333334
EXTRACT: note_off channel=1 note=46 velocity=127 time=0.004166666666666667
EXTRACT: note_off channel=1 note=58 velocity=127 time=0
EXTRACT: note_off channel=3 note=30 velocity=127 time=0
EXTRACT: note_off channel=4 note=30 velocity=127 time=0
EXTRACT: note_off channel=4 note=42 velocity=127 time=0
EXTRACT: note_off channel=6 note=66 velocity=97 time=0
EXTRACT: note_off channel=6 note=70 velocity=97 time=0
EXTRACT: note_off channel=6 note=73 velocity=97 time=0
EXTRACT: note_off channel=10 note=73 velocity=97 time=0
EXTRACT: note_off channel=10 note=70 velocity=97 time=0
EXTRACT: note_off channel=10 note=66 velocity=97 time=0
EXTRACT: note_on channel=1 note=56 velocity=127 time=0.0020833333333333333
EXTRACT: note_on channel=1 note=44 velocity=45 time=0
EXTRACT: note_on channel=3 note=30 velocity=127 time=0
EXTRACT: note_on channel=4 note=30 velocity=127 time=0
EXTRACT: note_on channel=4 note=42 velocity=127 time=0
EXTRACT: note_on channel=6 note=77 velocity=127 time=0
EXTRACT: note_on channel=6 note=73 velocity=127 time=0
EXTRACT: note_on channel=6 note=70 velocity=127 time=0
EXTRACT: note_on channel=6 note=66 velocity=127 time=0
EXTRACT: note_on channel=9 note=75 velocity=61 time=0
EXTRACT: note_on channel=9 note=38 velocity=65 time=0
EXTRACT: note_on channel=9 note=28 velocity=54 time=0
EXTRACT: note_on channel=9 note=35 velocity=127 time=0
EXTRACT: note_on channel=9 note=36 velocity=127 time=0
EXTRACT: note_on channel=10 note=66 velocity=127 time=0
EXTRACT: note_on channel=10 note=70 velocity=127 time=0
EXTRACT: note_on channel=10 note=73 velocity=127 time=0
EXTRACT: note_on channel=10 note=77 velocity=127 time=0
EXTRACT: note_off channel=9 note=62 velocity=127 time=0.0010416666666666667
EXTRACT: note_off channel=9 note=75 velocity=61 time=0.11770833333333333
EXTRACT: note_off channel=9 note=28 velocity=54 time=0.07083333333333333
EXTRACT: note_off channel=9 note=38 velocity=65 time=0.034375
EXTRACT: note_off channel=9 note=35 velocity=127 time=0.005208333333333333
EXTRACT: note_off channel=9 note=36 velocity=127 time=0
EXTRACT: note_on channel=1 note=46 velocity=89 time=0.020833333333333332
EXTRACT: note_on channel=1 note=58 velocity=89 time=0
EXTRACT: note_on channel=9 note=75 velocity=61 time=0
EXTRACT: note_on channel=9 note=28 velocity=56 time=0
EXTRACT: note_off channel=9 note=75 velocity=61 time=0.11875
EXTRACT: note_on channel=9 note=75 velocity=61 time=0.00625
EXTRACT: note_off channel=9 note=28 velocity=56 time=0.06458333333333333
EXTRACT: note_off channel=1 note=56 velocity=127 time=0.030208333333333334
EXTRACT: note_off channel=9 note=75 velocity=61 time=0.02395833333333333
EXTRACT: note_off channel=1 note=46 velocity=89 time=0.004166666666666667
EXTRACT: note_off channel=1 note=58 velocity=89 time=0
EXTRACT: note_on channel=1 note=44 velocity=89 time=0.0020833333333333333
EXTRACT: note_on channel=1 note=56 velocity=89 time=0
EXTRACT: note_on channel=9 note=62 velocity=127 time=0
EXTRACT: note_on channel=9 note=75 velocity=61 time=0
EXTRACT: note_on channel=9 note=28 velocity=52 time=0
EXTRACT: note_on channel=9 note=42 velocity=127 time=0
EXTRACT: note_on channel=9 note=37 velocity=127 time=0
EXTRACT: note_off channel=1 note=44 velocity=45 time=0.0020833333333333333
EXTRACT: note_off channel=9 note=75 velocity=61 time=0.11666666666666667
EXTRACT: note_off channel=9 note=28 velocity=52 time=0.07083333333333333
EXTRACT: note_off channel=9 note=42 velocity=127 time=0.03958333333333333
EXTRACT: note_off channel=9 note=37 velocity=127 time=0
EXTRACT: note_on channel=0 note=61 velocity=127 time=0.020833333333333332
EXTRACT: note_on channel=9 note=75 velocity=61 time=0
EXTRACT: note_on channel=9 note=38 velocity=67 time=0
EXTRACT: note_on channel=9 note=28 velocity=52 time=0
EXTRACT: note_on channel=9 note=35 velocity=127 time=0
EXTRACT: note_on channel=9 note=36 velocity=127 time=0
EXTRACT: note_off channel=9 note=62 velocity=127 time=0.0010416666666666667
EXTRACT: note_off channel=9 note=75 velocity=61 time=0.11770833333333333
EXTRACT: note_off channel=9 note=28 velocity=52 time=0.07083333333333333
EXTRACT: note_off channel=9 note=38 velocity=67 time=0.034375
EXTRACT: note_off channel=9 note=35 velocity=127 time=0.005208333333333333
EXTRACT: note_off channel=9 note=36 velocity=127 time=0
EXTRACT: note_off channel=0 note=61 velocity=127 time=0.01875
EXTRACT: note_on channel=0 note=70 velocity=127 time=0.0020833333333333333
EXTRACT: note_on channel=9 note=28 velocity=52 time=0
EXTRACT: note_off channel=1 note=44 velocity=89 time=0.019791666666666666
EXTRACT: note_off channel=1 note=56 velocity=89 time=0
EXTRACT: note_off channel=9 note=28 velocity=52 time=0.16979166666666667
EXTRACT: note_off channel=0 note=70 velocity=127 time=0.058333333333333334
EXTRACT: note_on channel=0 note=70 velocity=127 time=0.0020833333333333333
EXTRACT: note_on channel=9 note=75 velocity=56 time=0
EXTRACT: note_on channel=9 note=38 velocity=67 time=0
EXTRACT: note_on channel=9 note=43 velocity=43 time=0
EXTRACT: note_on channel=9 note=28 velocity=52 time=0
EXTRACT: note_on channel=9 note=35 velocity=127 time=0
EXTRACT: note_on channel=9 note=36 velocity=127 time=0
EXTRACT: note_off channel=9 note=43 velocity=43 time=0.096875
EXTRACT: note_off channel=9 note=75 velocity=56 time=0.021875
EXTRACT: note_on channel=9 note=41 velocity=43 time=0.00625
EXTRACT: note_off channel=9 note=28 velocity=52 time=0.06458333333333333
EXTRACT: note_off channel=9 note=41 velocity=43 time=0.03229166666666666
EXTRACT: note_off channel=9 note=38 velocity=67 time=0.0020833333333333333
EXTRACT: note_off channel=9 note=35 velocity=127 time=0.005208333333333333
EXTRACT: note_off channel=9 note=36 velocity=127 time=0
EXTRACT: note_off channel=0 note=70 velocity=127 time=0.01875
EXTRACT: note_off channel=3 note=30 velocity=127 time=0
EXTRACT: note_off channel=4 note=30 velocity=127 time=0
EXTRACT: note_off channel=4 note=42 velocity=127 time=0
EXTRACT: note_on channel=0 note=70 velocity=127 time=0.0020833333333333333
EXTRACT: note_on channel=9 note=62 velocity=127 time=0
EXTRACT: note_on channel=9 note=28 velocity=52 time=0
EXTRACT: note_on channel=9 note=42 velocity=127 time=0
EXTRACT: note_on channel=9 note=37 velocity=127 time=0
EXTRACT: note_on channel=9 note=38 velocity=65 time=0.125
EXTRACT: note_on channel=9 note=35 velocity=127 time=0
EXTRACT: note_on channel=9 note=36 velocity=127 time=0
EXTRACT: note_off channel=9 note=28 velocity=52 time=0.06458333333333333
EXTRACT: note_off channel=9 note=42 velocity=127 time=0.03958333333333333
EXTRACT: note_off channel=9 note=37 velocity=127 time=0
EXTRACT: note_off channel=0 note=70 velocity=127 time=0.01875
EXTRACT: note_on channel=0 note=65 velocity=127 time=0.0020833333333333333
EXTRACT: note_on channel=3 note=30 velocity=97 time=0
EXTRACT: note_on channel=4 note=30 velocity=97 time=0
EXTRACT: note_on channel=4 note=42 velocity=97 time=0
EXTRACT: note_on channel=9 note=62 velocity=127 time=0
EXTRACT: note_on channel=9 note=75 velocity=60 time=0
EXTRACT: note_on channel=9 note=28 velocity=54 time=0
EXTRACT: note_on channel=9 note=42 velocity=127 time=0
EXTRACT: note_on channel=9 note=37 velocity=127 time=0
EXTRACT: note_off channel=9 note=62 velocity=127 time=0.0010416666666666667
EXTRACT: note_off channel=9 note=38 velocity=65 time=0.09791666666666667
EXTRACT: note_off channel=9 note=35 velocity=127 time=0.005208333333333333
EXTRACT: note_off channel=9 note=36 velocity=127 time=0
EXTRACT: note_off channel=9 note=75 velocity=60 time=0.014583333333333334
EXTRACT: note_off channel=3 note=30 velocity=97 time=0.004166666666666667
EXTRACT: note_off channel=4 note=30 velocity=97 time=0
EXTRACT: note_off channel=4 note=42 velocity=97 time=0
EXTRACT: note_on channel=3 note=32 velocity=97 time=0.0020833333333333333
EXTRACT: note_on channel=4 note=32 velocity=97 time=0
EXTRACT: note_on channel=4 note=44 velocity=97 time=0
EXTRACT: note_on channel=9 note=75 velocity=58 time=0
EXTRACT: note_off channel=9 note=28 velocity=54 time=0.06458333333333333
EXTRACT: note_off channel=9 note=42 velocity=127 time=0.03958333333333333
EXTRACT: note_off channel=9 note=37 velocity=127 time=0
EXTRACT: note_off channel=9 note=75 velocity=58 time=0.014583333333333334
EXTRACT: note_off channel=0 note=65 velocity=127 time=0.004166666666666667
EXTRACT: note_off channel=3 note=32 velocity=97 time=0
EXTRACT: note_off channel=4 note=32 velocity=97 time=0
EXTRACT: note_off channel=4 note=44 velocity=97 time=0
EXTRACT: note_off channel=6 note=77 velocity=127 time=0
EXTRACT: note_off channel=6 note=73 velocity=127 time=0
EXTRACT: note_off channel=6 note=70 velocity=127 time=0
EXTRACT: note_off channel=6 note=66 velocity=127 time=0
EXTRACT: note_off channel=10 note=66 velocity=127 time=0
EXTRACT: note_off channel=10 note=70 velocity=127 time=0
EXTRACT: note_off channel=10 note=73 velocity=127 time=0
EXTRACT: note_off channel=10 note=77 velocity=127 time=0
EXTRACT: note_on channel=0 note=63 velocity=127 time=0.0020833333333333333
EXTRACT: note_on channel=3 note=27 velocity=127 time=0
EXTRACT: note_on channel=4 note=27 velocity=127 time=0
EXTRACT: note_on channel=4 note=39 velocity=127 time=0
EXTRACT: note_on channel=6 note=70 velocity=97 time=0
EXTRACT: note_on channel=6 note=66 velocity=97 time=0
EXTRACT: note_on channel=6 note=63 velocity=97 time=0
EXTRACT: note_on channel=9 note=75 velocity=61 time=0
EXTRACT: note_on channel=9 note=38 velocity=65 time=0
EXTRACT: note_on channel=9 note=36 velocity=127 time=0
EXTRACT: note_on channel=9 note=35 velocity=127 time=0
EXTRACT: note_on channel=9 note=28 velocity=54 time=0
EXTRACT: note_on channel=10 note=63 velocity=97 time=0
EXTRACT: note_on channel=10 note=66 velocity=97 time=0
EXTRACT: note_on channel=10 note=70 velocity=97 time=0
EXTRACT: note_off channel=9 note=62 velocity=127 time=0.0010416666666666667
EXTRACT: note_off channel=9 note=75 velocity=61 time=0.11770833333333333
EXTRACT: note_off channel=9 note=28 velocity=54 time=0.07083333333333333
EXTRACT: note_off channel=9 note=38 velocity=65 time=0.034375
EXTRACT: note_off channel=9 note=36 velocity=127 time=0.005208333333333333
EXTRACT: note_off channel=9 note=35 velocity=127 time=0
EXTRACT: note_on channel=0 note=65 velocity=85 time=0.020833333333333332
EXTRACT: note_on channel=9 note=75 velocity=61 time=0
EXTRACT: note_on channel=9 note=28 velocity=56 time=0
EXTRACT: note_off channel=9 note=75 velocity=61 time=0.11875
EXTRACT: note_on channel=9 note=75 velocity=61 time=0.00625
EXTRACT: note_off channel=9 note=28 velocity=56 time=0.06458333333333333
EXTRACT: note_off channel=0 note=63 velocity=127 time=0.026041666666666668
EXTRACT: note_off channel=9 note=75 velocity=61 time=0.028125
EXTRACT: note_off channel=0 note=65 velocity=85 time=0.004166666666666667
EXTRACT: note_on channel=0 note=63 velocity=83 time=0.0020833333333333333
EXTRACT: note_on channel=9 note=75 velocity=61 time=0
EXTRACT: note_on channel=9 note=62 velocity=127 time=0
EXTRACT: note_on channel=9 note=37 velocity=127 time=0
EXTRACT: note_on channel=9 note=42 velocity=127 time=0
EXTRACT: note_on channel=9 note=28 velocity=52 time=0
EXTRACT: note_off channel=9 note=75 velocity=61 time=0.11875
EXTRACT: note_off channel=9 note=28 velocity=52 time=0.07083333333333333
EXTRACT: note_off channel=9 note=37 velocity=127 time=0.03958333333333333
EXTRACT: note_off channel=9 note=42 velocity=127 time=0
EXTRACT: note_on channel=0 note=61 velocity=127 time=0.020833333333333332
EXTRACT: note_on channel=9 note=75 velocity=61 time=0
EXTRACT: note_on channel=9 note=38 velocity=67 time=0
EXTRACT: note_on channel=9 note=36 velocity=127 time=0
EXTRACT: note_on channel=9 note=35 velocity=127 time=0
EXTRACT: note_on channel=9 note=28 velocity=52 time=0
EXTRACT: note_off channel=9 note=62 velocity=127 time=0.0010416666666666667
EXTRACT: note_off channel=9 note=75 velocity=61 time=0.11770833333333333
EXTRACT: note_off channel=9 note=28 velocity=52 time=0.07083333333333333
EXTRACT: note_off channel=0 note=63 velocity=83 time=0.026041666666666668
EXTRACT: note_off channel=9 note=38 velocity=67 time=0.008333333333333333
EXTRACT: note_off channel=9 note=36 velocity=127 time=0.005208333333333333
EXTRACT: note_off channel=9 note=35 velocity=127 time=0
EXTRACT: note_off channel=0 note=61 velocity=127 time=0.01875
EXTRACT: note_on channel=0 note=65 velocity=127 time=0.0020833333333333333
EXTRACT: note_on channel=9 note=28 velocity=52 time=0
EXTRACT: note_off channel=9 note=28 velocity=52 time=0.18958333333333333
EXTRACT: note_off channel=0 note=65 velocity=127 time=0.058333333333333334
EXTRACT: note_on channel=0 note=65 velocity=127 time=0.0020833333333333333
EXTRACT: note_on channel=9 note=75 velocity=56 time=0
EXTRACT: note_on channel=9 note=38 velocity=67 time=0
EXTRACT: note_on channel=9 note=36 velocity=127 time=0
EXTRACT: note_on channel=9 note=35 velocity=127 time=0
EXTRACT: note_on channel=9 note=28 velocity=52 time=0
EXTRACT: note_on channel=9 note=43 velocity=43 time=0
EXTRACT: note_off channel=9 note=43 velocity=43 time=0.096875
EXTRACT: note_off channel=9 note=75 velocity=56 time=0.021875
EXTRACT: note_on channel=9 note=41 velocity=43 time=0.00625
EXTRACT: note_off channel=9 note=28 velocity=52 time=0.06458333333333333
EXTRACT: note_off channel=9 note=41 velocity=43 time=0.03229166666666666
EXTRACT: note_off channel=9 note=38 velocity=67 time=0.0020833333333333333
EXTRACT: note_off channel=9 note=36 velocity=127 time=0.005208333333333333
EXTRACT: note_off channel=9 note=35 velocity=127 time=0
EXTRACT: note_off channel=0 note=65 velocity=127 time=0.01875
EXTRACT: note_on channel=0 note=63 velocity=127 time=0.0020833333333333333
EXTRACT: note_on channel=9 note=62 velocity=127 time=0
EXTRACT: note_on channel=9 note=37 velocity=127 time=0
EXTRACT: note_on channel=9 note=42 velocity=127 time=0
EXTRACT: note_on channel=9 note=28 velocity=52 time=0
EXTRACT: note_on channel=9 note=38 velocity=65 time=0.125
EXTRACT: note_on channel=9 note=36 velocity=127 time=0
EXTRACT: note_on channel=9 note=35 velocity=127 time=0
EXTRACT: note_off channel=9 note=28 velocity=52 time=0.06458333333333333
EXTRACT: note_off channel=9 note=37 velocity=127 time=0.03958333333333333
EXTRACT: note_off channel=9 note=42 velocity=127 time=0
EXTRACT: note_off channel=0 note=63 velocity=127 time=0.01875
EXTRACT: note_on channel=0 note=65 velocity=127 time=0.0020833333333333333
EXTRACT: note_on channel=9 note=75 velocity=60 time=0
EXTRACT: note_on channel=9 note=62 velocity=127 time=0
EXTRACT: note_on channel=9 note=37 velocity=127 time=0
EXTRACT: note_on channel=9 note=42 velocity=127 time=0
EXTRACT: note_on channel=9 note=28 velocity=54 time=0
EXTRACT: note_off channel=9 note=62 velocity=127 time=0.0010416666666666667
EXTRACT: note_off channel=9 note=38 velocity=65 time=0.09791666666666667
EXTRACT: note_off channel=9 note=36 velocity=127 time=0.005208333333333333
EXTRACT: note_off channel=9 note=35 velocity=127 time=0
EXTRACT: note_off channel=9 note=75 velocity=60 time=0.014583333333333334
EXTRACT: note_on channel=9 note=75 velocity=58 time=0.00625
EXTRACT: note_off channel=9 note=28 velocity=54 time=0.06458333333333333
EXTRACT: note_off channel=9 note=37 velocity=127 time=0.03958333333333333
EXTRACT: note_off channel=9 note=42 velocity=127 time=0
EXTRACT: note_off channel=9 note=75 velocity=58 time=0.014583333333333334
EXTRACT: note_off channel=6 note=70 velocity=97 time=0.004166666666666667
EXTRACT: note_off channel=6 note=66 velocity=97 time=0
EXTRACT: note_off channel=6 note=63 velocity=97 time=0
EXTRACT: note_off channel=10 note=63 velocity=97 time=0
EXTRACT: note_off channel=10 note=66 velocity=97 time=0
EXTRACT: note_off channel=10 note=70 velocity=97 time=0
EXTRACT: note_on channel=0 note=63 velocity=78 time=0.0020833333333333333
EXTRACT: note_on channel=3 note=34 velocity=127 time=0
EXTRACT: note_on channel=4 note=34 velocity=127 time=0
EXTRACT: note_on channel=4 note=46 velocity=127 time=0
EXTRACT: note_on channel=6 note=78 velocity=127 time=0
EXTRACT: note_on channel=9 note=75 velocity=61 time=0
EXTRACT: note_on channel=9 note=38 velocity=65 time=0
EXTRACT: note_on channel=9 note=36 velocity=127 time=0
EXTRACT: note_on channel=9 note=35 velocity=127 time=0
EXTRACT: note_on channel=9 note=28 velocity=54 time=0
EXTRACT: note_on channel=10 note=78 velocity=127 time=0
EXTRACT: note_off channel=9 note=62 velocity=127 time=0.0010416666666666667
EXTRACT: note_off channel=0 note=65 velocity=127 time=0.007291666666666667
EXTRACT: note_off channel=3 note=27 velocity=127 time=0.005208333333333333
EXTRACT: note_off channel=4 note=27 velocity=127 time=0
EXTRACT: note_off channel=4 note=39 velocity=127 time=0
EXTRACT: note_off channel=9 note=75 velocity=61 time=0.10520833333333333
EXTRACT: note_off channel=9 note=28 velocity=54 time=0.07083333333333333
EXTRACT: note_off channel=9 note=38 velocity=65 time=0.034375
EXTRACT: note_off channel=9 note=36 velocity=127 time=0.005208333333333333
EXTRACT: note_off channel=9 note=35 velocity=127 time=0
EXTRACT: note_off channel=0 note=63 velocity=78 time=0.01875
EXTRACT: note_on channel=0 note=65 velocity=78 time=0.0020833333333333333
EXTRACT: note_on channel=9 note=75 velocity=61 time=0
EXTRACT: note_on channel=9 note=28 velocity=56 time=0
EXTRACT: note_off channel=9 note=75 velocity=61 time=0.11875
EXTRACT: note_on channel=9 note=75 velocity=61 time=0.00625
EXTRACT: note_off channel=9 note=28 velocity=56 time=0.06458333333333333
EXTRACT: note_off channel=9 note=75 velocity=61 time=0.05416666666666667
EXTRACT: note_off channel=6 note=78 velocity=127 time=0.004166666666666667
EXTRACT: note_off channel=10 note=78 velocity=127 time=0
EXTRACT: note_on channel=6 note=77 velocity=127 time=0.0020833333333333333
EXTRACT: note_on channel=6 note=73 velocity=127 time=0
EXTRACT: note_on channel=6 note=70 velocity=127 time=0
EXTRACT: note_on channel=9 note=75 velocity=61 time=0
EXTRACT: note_on channel=9 note=62 velocity=127 time=0
EXTRACT: note_on channel=9 note=37 velocity=127 time=0
EXTRACT: note_on channel=9 note=42 velocity=127 time=0
EXTRACT: note_on channel=9 note=28 velocity=52 time=0
EXTRACT: note_on channel=10 note=70 velocity=127 time=0
EXTRACT: note_on channel=10 note=73 velocity=127 time=0
EXTRACT: note_on channel=10 note=77 velocity=127 time=0
EXTRACT: note_off channel=0 note=65 velocity=78 time=0.057291666666666664
EXTRACT: note_off channel=9 note=75 velocity=61 time=0.06145833333333333
EXTRACT: note_off channel=9 note=28 velocity=52 time=0.07083333333333333
EXTRACT: note_off channel=9 note=37 velocity=127 time=0.03958333333333333
EXTRACT: note_off channel=9 note=42 velocity=127 time=0
EXTRACT: note_on channel=0 note=61 velocity=127 time=0.020833333333333332
EXTRACT: note_on channel=9 note=75 velocity=61 time=0
EXTRACT: note_on channel=9 note=38 velocity=67 time=0
EXTRACT: note_on channel=9 note=36 velocity=127 time=0
EXTRACT: note_on channel=9 note=35 velocity=127 time=0
EXTRACT: note_on channel=9 note=28 velocity=52 time=0
EXTRACT: note_off channel=9 note=62 velocity=127 time=0.0010416666666666667
EXTRACT: note_off channel=9 note=75 velocity=61 time=0.11770833333333333
EXTRACT: note_off channel=9 note=28 velocity=52 time=0.07083333333333333
EXTRACT: note_off channel=9 note=38 velocity=67 time=0.034375
EXTRACT: note_off channel=9 note=36 velocity=127 time=0.005208333333333333
EXTRACT: note_off channel=9 note=35 velocity=127 time=0
EXTRACT: note_off channel=0 note=61 velocity=127 time=0.01875
EXTRACT: note_on channel=0 note=65 velocity=127 time=0.0020833333333333333
EXTRACT: note_on channel=9 note=28 velocity=52 time=0
EXTRACT: note_off channel=9 note=28 velocity=52 time=0.18958333333333333
EXTRACT: note_off channel=0 note=65 velocity=127 time=0.058333333333333334
EXTRACT: note_on channel=0 note=65 velocity=127 time=0.0020833333333333333
EXTRACT: note_on channel=9 note=75 velocity=56 time=0
EXTRACT: note_on channel=9 note=38 velocity=67 time=0
EXTRACT: note_on channel=9 note=36 velocity=127 time=0
EXTRACT: note_on channel=9 note=35 velocity=127 time=0
EXTRACT: note_on channel=9 note=28 velocity=52 time=0
EXTRACT: note_on channel=9 note=43 velocity=43 time=0
EXTRACT: note_off channel=9 note=43 velocity=43 time=0.096875
EXTRACT: note_off channel=9 note=75 velocity=56 time=0.021875
EXTRACT: note_on channel=9 note=41 velocity=43 time=0.00625
EXTRACT: note_off channel=9 note=28 velocity=52 time=0.06458333333333333
EXTRACT: note_off channel=9 note=41 velocity=43 time=0.03229166666666666
EXTRACT: note_off channel=9 note=38 velocity=67 time=0.0020833333333333333
EXTRACT: note_off channel=9 note=36 velocity=127 time=0.005208333333333333
EXTRACT: note_off channel=9 note=35 velocity=127 time=0
EXTRACT: note_off channel=0 note=65 velocity=127 time=0.01875
EXTRACT: note_off channel=3 note=34 velocity=127 time=0
EXTRACT: note_off channel=4 note=34 velocity=127 time=0
EXTRACT: note_off channel=4 note=46 velocity=127 time=0
EXTRACT: note_off channel=6 note=77 velocity=127 time=0
EXTRACT: note_off channel=6 note=73 velocity=127 time=0
EXTRACT: note_off channel=6 note=70 velocity=127 time=0
EXTRACT: note_off channel=10 note=70 velocity=127 time=0
EXTRACT: note_off channel=10 note=73 velocity=127 time=0
EXTRACT: note_off channel=10 note=77 velocity=127 time=0
EXTRACT: note_on channel=0 note=68 velocity=127 time=0.0020833333333333333
EXTRACT: note_on channel=6 note=73 velocity=127 time=0
EXTRACT: note_on channel=9 note=62 velocity=127 time=0
EXTRACT: note_on channel=9 note=37 velocity=127 time=0
EXTRACT: note_on channel=9 note=42 velocity=127 time=0
EXTRACT: note_on channel=9 note=28 velocity=52 time=0
EXTRACT: note_on channel=10 note=73 velocity=127 time=0
EXTRACT: note_on channel=9 note=38 velocity=65 time=0.125
EXTRACT: note_on channel=9 note=36 velocity=127 time=0
EXTRACT: note_on channel=9 note=35 velocity=127 time=0
EXTRACT: note_off channel=9 note=28 velocity=52 time=0.06458333333333333
EXTRACT: note_off channel=9 note=37 velocity=127 time=0.03958333333333333
EXTRACT: note_off channel=9 note=42 velocity=127 time=0
EXTRACT: note_off channel=0 note=68 velocity=127 time=0.01875
EXTRACT: note_on channel=0 note=65 velocity=127 time=0.0020833333333333333
EXTRACT: note_on channel=3 note=36 velocity=97 time=0
EXTRACT: note_on channel=4 note=36 velocity=97 time=0
EXTRACT: note_on channel=4 note=48 velocity=97 time=0
EXTRACT: note_on channel=9 note=75 velocity=60 time=0
EXTRACT: note_on channel=9 note=62 velocity=127 time=0
EXTRACT: note_on channel=9 note=37 velocity=127 time=0
EXTRACT: note_on channel=9 note=42 velocity=127 time=0
EXTRACT: note_on channel=9 note=28 velocity=54 time=0
EXTRACT: note_off channel=9 note=62 velocity=127 time=0.0010416666666666667
EXTRACT: note_off channel=9 note=38 velocity=65 time=0.09791666666666667
EXTRACT: note_off channel=9 note=36 velocity=127 time=0.005208333333333333
EXTRACT: note_off channel=9 note=35 velocity=127 time=0
EXTRACT: note_off channel=9 note=75 velocity=60 time=0.014583333333333334
EXTRACT: note_off channel=3 note=36 velocity=97 time=0.004166666666666667
EXTRACT: note_off channel=4 note=36 velocity=97 time=0
EXTRACT: note_off channel=4 note=48 velocity=97 time=0
EXTRACT: note_on channel=3 note=37 velocity=97 time=0.0020833333333333333
EXTRACT: note_on channel=4 note=37 velocity=97 time=0
EXTRACT: note_on channel=4 note=49 velocity=97 time=0
EXTRACT: note_on channel=9 note=75 velocity=58 time=0
EXTRACT: note_off channel=9 note=28 velocity=54 time=0.06458333333333333
EXTRACT: note_off channel=9 note=37 velocity=127 time=0.03958333333333333
EXTRACT: note_off channel=9 note=42 velocity=127 time=0
EXTRACT: note_off channel=9 note=75 velocity=58 time=0.014583333333333334
EXTRACT: note_off channel=3 note=37 velocity=97 time=0.004166666666666667
EXTRACT: note_off channel=4 note=37 velocity=97 time=0
EXTRACT: note_off channel=4 note=49 velocity=97 time=0
EXTRACT: note_off channel=6 note=73 velocity=127 time=0
EXTRACT: note_off channel=10 note=73 velocity=127 time=0
EXTRACT: note_on channel=0 note=68 velocity=71 time=0.0020833333333333333
EXTRACT: note_on channel=3 note=30 velocity=127 time=0
EXTRACT: note_on channel=4 note=30 velocity=127 time=0
EXTRACT: note_on channel=4 note=42 velocity=127 time=0
EXTRACT: note_on channel=6 note=73 velocity=97 time=0
EXTRACT: note_on channel=6 note=70 velocity=97 time=0
EXTRACT: note_on channel=6 note=66 velocity=97 time=0
EXTRACT: note_on channel=9 note=75 velocity=61 time=0
EXTRACT: note_on channel=9 note=38 velocity=65 time=0
EXTRACT: note_on channel=9 note=36 velocity=127 time=0
EXTRACT: note_on channel=9 note=35 velocity=127 time=0
EXTRACT: note_on channel=9 note=28 velocity=54 time=0
EXTRACT: note_on channel=10 note=66 velocity=97 time=0
EXTRACT: note_on channel=10 note=70 velocity=97 time=0
EXTRACT: note_on channel=10 note=73 velocity=97 time=0
EXTRACT: note_off channel=9 note=62 velocity=127 time=0.0010416666666666667
EXTRACT: note_off channel=9 note=75 velocity=61 time=0.11770833333333333
EXTRACT: note_off channel=9 note=28 velocity=54 time=0.07083333333333333
EXTRACT: note_off channel=9 note=38 velocity=65 time=0.034375
EXTRACT: note_off channel=9 note=36 velocity=127 time=0.005208333333333333
EXTRACT: note_off channel=9 note=35 velocity=127 time=0
EXTRACT: note_off channel=0 note=65 velocity=127 time=0.007291666666666667
EXTRACT: note_off channel=0 note=68 velocity=71 time=0.011458333333333333
EXTRACT: note_on channel=0 note=65 velocity=69 time=0.0020833333333333333
EXTRACT: note_on channel=9 note=75 velocity=61 time=0
EXTRACT: note_on channel=9 note=28 velocity=56 time=0
EXTRACT: note_off channel=9 note=75 velocity=61 time=0.11875
EXTRACT: note_on channel=9 note=75 velocity=61 time=0.00625
EXTRACT: note_off channel=9 note=28 velocity=56 time=0.06458333333333333
EXTRACT: note_off channel=9 note=75 velocity=61 time=0.05416666666666667
EXTRACT: note_on channel=9 note=75 velocity=61 time=0.00625
EXTRACT: note_on channel=9 note=62 velocity=127 time=0
EXTRACT: note_on channel=9 note=37 velocity=127 time=0
EXTRACT: note_on channel=9 note=42 velocity=127 time=0
EXTRACT: note_on channel=9 note=28 velocity=52 time=0
EXTRACT: note_off channel=9 note=75 velocity=61 time=0.11875
EXTRACT: note_off channel=9 note=28 velocity=52 time=0.07083333333333333
EXTRACT: note_off channel=9 note=37 velocity=127 time=0.03958333333333333
EXTRACT: note_off channel=9 note=42 velocity=127 time=0
EXTRACT: note_on channel=0 note=61 velocity=127 time=0.020833333333333332
EXTRACT: note_on channel=9 note=75 velocity=61 time=0
EXTRACT: note_on channel=9 note=38 velocity=67 time=0
EXTRACT: note_on channel=9 note=36 velocity=127 time=0
EXTRACT: note_on channel=9 note=35 velocity=127 time=0
EXTRACT: note_on channel=9 note=28 velocity=52 time=0
EXTRACT: note_off channel=9 note=62 velocity=127 time=0.0010416666666666667
EXTRACT: note_off channel=0 note=65 velocity=69 time=0.0010416666666666667
EXTRACT: note_off channel=9 note=75 velocity=61 time=0.11666666666666667
EXTRACT: note_off channel=9 note=28 velocity=52 time=0.07083333333333333
EXTRACT: note_off channel=9 note=38 velocity=67 time=0.034375
EXTRACT: note_off channel=9 note=36 velocity=127 time=0.005208333333333333
EXTRACT: note_off channel=9 note=35 velocity=127 time=0
EXTRACT: note_off channel=0 note=61 velocity=127 time=0.01875
EXTRACT: note_on channel=0 note=65 velocity=127 time=0.0020833333333333333
EXTRACT: note_on channel=9 note=28 velocity=52 time=0
EXTRACT: note_off channel=9 note=28 velocity=52 time=0.18958333333333333
EXTRACT: note_off channel=0 note=65 velocity=127 time=0.058333333333333334
EXTRACT: note_on channel=0 note=63 velocity=127 time=0.0020833333333333333
EXTRACT: note_on channel=9 note=75 velocity=56 time=0
EXTRACT: note_on channel=9 note=38 velocity=67 time=0
EXTRACT: note_on channel=9 note=36 velocity=127 time=0
EXTRACT: note_on channel=9 note=35 velocity=127 time=0
EXTRACT: note_on channel=9 note=28 velocity=52 time=0
EXTRACT: note_on channel=9 note=43 velocity=43 time=0
EXTRACT: note_off channel=9 note=43 velocity=43 time=0.096875
EXTRACT: note_off channel=9 note=75 velocity=56 time=0.021875
EXTRACT: note_on channel=9 note=41 velocity=43 time=0.00625
EXTRACT: note_off channel=9 note=28 velocity=52 time=0.06458333333333333
EXTRACT: note_off channel=9 note=41 velocity=43 time=0.03229166666666666
EXTRACT: note_off channel=9 note=38 velocity=67 time=0.0020833333333333333
EXTRACT: note_off channel=9 note=36 velocity=127 time=0.005208333333333333
EXTRACT: note_off channel=9 note=35 velocity=127 time=0
EXTRACT: note_off channel=0 note=63 velocity=127 time=0.01875
EXTRACT: note_on channel=0 note=61 velocity=127 time=0.0020833333333333333
EXTRACT: note_on channel=9 note=62 velocity=127 time=0
EXTRACT: note_on channel=9 note=37 velocity=127 time=0
EXTRACT: note_on channel=9 note=42 velocity=127 time=0
EXTRACT: note_on channel=9 note=28 velocity=52 time=0
EXTRACT: note_on channel=9 note=38 velocity=65 time=0.125
EXTRACT: note_on channel=9 note=36 velocity=127 time=0
EXTRACT: note_on channel=9 note=35 velocity=127 time=0
EXTRACT: note_off channel=9 note=28 velocity=52 time=0.06458333333333333
EXTRACT: note_off channel=9 note=37 velocity=127 time=0.03958333333333333
EXTRACT: note_off channel=9 note=42 velocity=127 time=0
EXTRACT: note_off channel=0 note=61 velocity=127 time=0.01875
EXTRACT: note_on channel=0 note=63 velocity=127 time=0.0020833333333333333
EXTRACT: note_on channel=9 note=75 velocity=60 time=0
EXTRACT: note_on channel=9 note=62 velocity=127 time=0
EXTRACT: note_on channel=9 note=37 velocity=127 time=0
EXTRACT: note_on channel=9 note=42 velocity=127 time=0
EXTRACT: note_on channel=9 note=28 velocity=54 time=0
EXTRACT: note_off channel=9 note=62 velocity=127 time=0.0010416666666666667
EXTRACT: note_off channel=9 note=38 velocity=65 time=0.09791666666666667
EXTRACT: note_off channel=9 note=36 velocity=127 time=0.005208333333333333
EXTRACT: note_off channel=9 note=35 velocity=127 time=0
EXTRACT: note_off channel=9 note=75 velocity=60 time=0.014583333333333334
EXTRACT: note_on channel=9 note=75 velocity=58 time=0.00625
EXTRACT: note_off channel=9 note=28 velocity=54 time=0.06458333333333333
EXTRACT: note_off channel=9 note=37 velocity=127 time=0.03958333333333333
EXTRACT: note_off channel=9 note=42 velocity=127 time=0
EXTRACT: note_off channel=9 note=75 velocity=58 time=0.014583333333333334
EXTRACT: note_off channel=3 note=30 velocity=127 time=0.004166666666666667
EXTRACT: note_off channel=4 note=30 velocity=127 time=0
EXTRACT: note_off channel=4 note=42 velocity=127 time=0
EXTRACT: note_off channel=6 note=73 velocity=97 time=0
EXTRACT: note_off channel=6 note=70 velocity=97 time=0
EXTRACT: note_off channel=6 note=66 velocity=97 time=0
EXTRACT: note_off channel=10 note=66 velocity=97 time=0
EXTRACT: note_off channel=10 note=70 velocity=97 time=0
EXTRACT: note_off channel=10 note=73 velocity=97 time=0
EXTRACT: note_on channel=0 note=61 velocity=76 time=0.0020833333333333333
EXTRACT: note_on channel=3 note=30 velocity=127 time=0
EXTRACT: note_on channel=4 note=30 velocity=127 time=0
EXTRACT: note_on channel=4 note=42 velocity=127 time=0
EXTRACT: note_on channel=6 note=66 velocity=127 time=0
EXTRACT: note_on channel=6 note=70 velocity=127 time=0
EXTRACT: note_on channel=6 note=73 velocity=127 time=0
EXTRACT: note_on channel=6 note=77 velocity=127 time=0
EXTRACT: note_on channel=9 note=36 velocity=127 time=0
EXTRACT: note_on channel=9 note=35 velocity=127 time=0
EXTRACT: note_on channel=9 note=28 velocity=54 time=0
EXTRACT: note_on channel=9 note=38 velocity=65 time=0
EXTRACT: note_on channel=9 note=75 velocity=61 time=0
EXTRACT: note_on channel=10 note=77 velocity=127 time=0
EXTRACT: note_on channel=10 note=73 velocity=127 time=0
EXTRACT: note_on channel=10 note=70 velocity=127 time=0
EXTRACT: note_on channel=10 note=66 velocity=127 time=0
EXTRACT: note_off channel=9 note=62 velocity=127 time=0.0010416666666666667
EXTRACT: note_off channel=9 note=75 velocity=61 time=0.11770833333333333
EXTRACT: note_off channel=0 note=63 velocity=127 time=0.05416666666666667
EXTRACT: note_off channel=9 note=28 velocity=54 time=0.016666666666666666
EXTRACT: note_off channel=9 note=38 velocity=65 time=0.034375
EXTRACT: note_off channel=9 note=36 velocity=127 time=0.005208333333333333
EXTRACT: note_off channel=9 note=35 velocity=127 time=0
EXTRACT: note_off channel=0 note=61 velocity=76 time=0.01875
EXTRACT: note_on channel=0 note=63 velocity=78 time=0.0020833333333333333
EXTRACT: note_on channel=9 note=28 velocity=56 time=0
EXTRACT: note_on channel=9 note=75 velocity=61 time=0
EXTRACT: note_off channel=9 note=75 velocity=61 time=0.11875
EXTRACT: note_on channel=9 note=75 velocity=61 time=0.00625
EXTRACT: note_off channel=9 note=28 velocity=56 time=0.06458333333333333
EXTRACT: note_off channel=9 note=75 velocity=61 time=0.05416666666666667
EXTRACT: note_off channel=0 note=63 velocity=78 time=0.00625
EXTRACT: note_on channel=9 note=37 velocity=127 time=0
EXTRACT: note_on channel=9 note=42 velocity=127 time=0
EXTRACT: note_on channel=9 note=28 velocity=52 time=0
EXTRACT: note_on channel=9 note=75 velocity=61 time=0
EXTRACT: note_on channel=9 note=62 velocity=127 time=0
EXTRACT: note_off channel=9 note=75 velocity=61 time=0.11875
EXTRACT: note_off channel=9 note=28 velocity=52 time=0.07083333333333333
EXTRACT: note_off channel=9 note=37 velocity=127 time=0.03958333333333333
EXTRACT: note_off channel=9 note=42 velocity=127 time=0
EXTRACT: note_on channel=1 note=46 velocity=127 time=0.020833333333333332
EXTRACT: note_on channel=1 note=58 velocity=127 time=0
EXTRACT: note_on channel=9 note=36 velocity=127 time=0
EXTRACT: note_on channel=9 note=35 velocity=127 time=0
EXTRACT: note_on channel=9 note=28 velocity=52 time=0
EXTRACT: note_on channel=9 note=38 velocity=67 time=0
EXTRACT: note_on channel=9 note=75 velocity=61 time=0
EXTRACT: note_off channel=9 note=62 velocity=127 time=0.0010416666666666667
EXTRACT: note_off channel=9 note=75 velocity=61 time=0.11770833333333333
EXTRACT: note_off channel=9 note=28 velocity=52 time=0.07083333333333333
EXTRACT: note_off channel=9 note=38 velocity=67 time=0.034375
EXTRACT: note_off channel=9 note=36 velocity=127 time=0.005208333333333333
EXTRACT: note_off channel=9 note=35 velocity=127 time=0
EXTRACT: note_off channel=1 note=46 velocity=127 time=0.01875
EXTRACT: note_off channel=1 note=58 velocity=127 time=0
EXTRACT: note_on channel=1 note=49 velocity=127 time=0.0020833333333333333
EXTRACT: note_on channel=1 note=61 velocity=127 time=0
EXTRACT: note_on channel=9 note=28 velocity=52 time=0
EXTRACT: note_off channel=9 note=28 velocity=52 time=0.18958333333333333
EXTRACT: note_off channel=1 note=49 velocity=127 time=0.058333333333333334
EXTRACT: note_off channel=1 note=61 velocity=127 time=0
EXTRACT: note_on channel=1 note=49 velocity=127 time=0.0020833333333333333
EXTRACT: note_on channel=1 note=61 velocity=127 time=0
EXTRACT: note_on channel=9 note=36 velocity=127 time=0
EXTRACT: note_on channel=9 note=35 velocity=127 time=0
EXTRACT: note_on channel=9 note=28 velocity=52 time=0
EXTRACT: note_on channel=9 note=43 velocity=43 time=0
EXTRACT: note_on channel=9 note=38 velocity=67 time=0
EXTRACT: note_on channel=9 note=75 velocity=56 time=0
EXTRACT: note_off channel=9 note=43 velocity=43 time=0.096875
EXTRACT: note_off channel=9 note=75 velocity=56 time=0.021875
EXTRACT: note_on channel=9 note=41 velocity=43 time=0.00625
EXTRACT: note_off channel=9 note=28 velocity=52 time=0.06458333333333333
EXTRACT: note_off channel=9 note=41 velocity=43 time=0.03229166666666666
EXTRACT: note_off channel=9 note=38 velocity=67 time=0.0020833333333333333
EXTRACT: note_off channel=9 note=36 velocity=127 time=0.005208333333333333
EXTRACT: note_off channel=9 note=35 velocity=127 time=0
EXTRACT: note_off channel=1 note=49 velocity=127 time=0.01875
EXTRACT: note_off channel=1 note=61 velocity=127 time=0
EXTRACT: note_off channel=3 note=30 velocity=127 time=0
EXTRACT: note_off channel=4 note=30 velocity=127 time=0
EXTRACT: note_off channel=4 note=42 velocity=127 time=0
EXTRACT: note_on channel=1 note=53 velocity=127 time=0.0020833333333333333
EXTRACT: note_on channel=1 note=65 velocity=127 time=0
EXTRACT: note_on channel=9 note=37 velocity=127 time=0
EXTRACT: note_on channel=9 note=42 velocity=127 time=0
EXTRACT: note_on channel=9 note=28 velocity=52 time=0
EXTRACT: note_on channel=9 note=62 velocity=127 time=0
EXTRACT: note_on channel=9 note=36 velocity=127 time=0.125
EXTRACT: note_on channel=9 note=35 velocity=127 time=0
EXTRACT: note_on channel=9 note=38 velocity=65 time=0
EXTRACT: note_off channel=9 note=28 velocity=52 time=0.06458333333333333
EXTRACT: note_off channel=9 note=37 velocity=127 time=0.03958333333333333
EXTRACT: note_off channel=9 note=42 velocity=127 time=0
EXTRACT: note_off channel=1 note=53 velocity=127 time=0.01875
EXTRACT: note_off channel=1 note=65 velocity=127 time=0
EXTRACT: note_on channel=1 note=51 velocity=127 time=0.0020833333333333333
EXTRACT: note_on channel=1 note=66 velocity=127 time=0
EXTRACT: note_on channel=1 note=63 velocity=127 time=0
EXTRACT: note_on channel=3 note=30 velocity=97 time=0
EXTRACT: note_on channel=4 note=30 velocity=97 time=0
EXTRACT: note_on channel=4 note=42 velocity=97 time=0
EXTRACT: note_on channel=9 note=37 velocity=127 time=0
EXTRACT: note_on channel=9 note=42 velocity=127 time=0
EXTRACT: note_on channel=9 note=28 velocity=54 time=0
EXTRACT: note_on channel=9 note=75 velocity=60 time=0
EXTRACT: note_on channel=9 note=62 velocity=127 time=0
EXTRACT: note_off channel=9 note=62 velocity=127 time=0.0010416666666666667
EXTRACT: note_off channel=9 note=38 velocity=65 time=0.09791666666666667
EXTRACT: note_off channel=9 note=36 velocity=127 time=0.005208333333333333
EXTRACT: note_off channel=9 note=35 velocity=127 time=0
EXTRACT: note_off channel=9 note=75 velocity=60 time=0.014583333333333334
EXTRACT: note_off channel=3 note=30 velocity=97 time=0.004166666666666667
EXTRACT: note_off channel=4 note=30 velocity=97 time=0
EXTRACT: note_off channel=4 note=42 velocity=97 time=0
EXTRACT: note_on channel=3 note=32 velocity=97 time=0.0020833333333333333
EXTRACT: note_on channel=4 note=32 velocity=97 time=0
EXTRACT: note_on channel=4 note=44 velocity=97 time=0
EXTRACT: note_on channel=9 note=75 velocity=58 time=0
EXTRACT: note_off channel=9 note=28 velocity=54 time=0.06458333333333333
EXTRACT: note_off channel=9 note=37 velocity=127 time=0.03958333333333333
EXTRACT: note_off channel=9 note=42 velocity=127 time=0
EXTRACT: note_off channel=9 note=75 velocity=58 time=0.014583333333333334
EXTRACT: note_off channel=3 note=32 velocity=97 time=0.004166666666666667
EXTRACT: note_off channel=4 note=32 velocity=97 time=0
EXTRACT: note_off channel=4 note=44 velocity=97 time=0
EXTRACT: note_off channel=6 note=66 velocity=127 time=0
EXTRACT: note_off channel=6 note=70 velocity=127 time=0
EXTRACT: note_off channel=6 note=73 velocity=127 time=0
EXTRACT: note_off channel=6 note=77 velocity=127 time=0
EXTRACT: note_off channel=10 note=77 velocity=127 time=0
EXTRACT: note_off channel=10 note=73 velocity=127 time=0
EXTRACT: note_off channel=10 note=70 velocity=127 time=0
EXTRACT: note_off channel=10 note=66 velocity=127 time=0
EXTRACT: note_on channel=3 note=27 velocity=127 time=0.0020833333333333333
EXTRACT: note_on channel=4 note=27 velocity=127 time=0
EXTRACT: note_on channel=4 note=39 velocity=127 time=0
EXTRACT: note_on channel=6 note=63 velocity=97 time=0
EXTRACT: note_on channel=6 note=66 velocity=97 time=0
EXTRACT: note_on channel=6 note=70 velocity=97 time=0
EXTRACT: note_on channel=9 note=28 velocity=54 time=0
EXTRACT: note_on channel=9 note=35 velocity=127 time=0
EXTRACT: note_on channel=9 note=36 velocity=127 time=0
EXTRACT: note_on channel=9 note=38 velocity=65 time=0
EXTRACT: note_on channel=9 note=75 velocity=61 time=0
EXTRACT: note_on channel=10 note=70 velocity=97 time=0
EXTRACT: note_on channel=10 note=66 velocity=97 time=0
EXTRACT: note_on channel=10 note=63 velocity=97 time=0
EXTRACT: note_off channel=9 note=62 velocity=127 time=0.0010416666666666667
EXTRACT: note_off channel=9 note=75 velocity=61 time=0.11770833333333333
EXTRACT: note_off channel=9 note=28 velocity=54 time=0.07083333333333333
EXTRACT: note_off channel=9 note=38 velocity=65 time=0.034375
EXTRACT: note_off channel=9 note=35 velocity=127 time=0.005208333333333333
EXTRACT: note_off channel=9 note=36 velocity=127 time=0
EXTRACT: note_off channel=1 note=51 velocity=60 time=0.01875
EXTRACT: note_off channel=1 note=66 velocity=60 time=0
EXTRACT: note_off channel=1 note=63 velocity=60 time=0
EXTRACT: note_on channel=1 note=53 velocity=127 time=0.0020833333333333333
EXTRACT: note_on channel=1 note=68 velocity=127 time=0
EXTRACT: note_on channel=1 note=65 velocity=127 time=0
EXTRACT: note_on channel=9 note=28 velocity=56 time=0
EXTRACT: note_on channel=9 note=75 velocity=61 time=0
EXTRACT: note_off channel=9 note=75 velocity=61 time=0.11875
EXTRACT: note_on channel=9 note=75 velocity=61 time=0.00625
EXTRACT: note_off channel=9 note=28 velocity=56 time=0.06458333333333333
EXTRACT: note_off channel=9 note=75 velocity=61 time=0.05416666666666667
EXTRACT: note_off channel=1 note=53 velocity=127 time=0.004166666666666667
EXTRACT: note_off channel=1 note=68 velocity=127 time=0
EXTRACT: note_off channel=1 note=65 velocity=127 time=0
EXTRACT: note_on channel=1 note=51 velocity=83 time=0.0020833333333333333
EXTRACT: note_on channel=1 note=66 velocity=83 time=0
EXTRACT: note_on channel=1 note=63 velocity=83 time=0
EXTRACT: note_on channel=9 note=28 velocity=52 time=0
EXTRACT: note_on channel=9 note=42 velocity=127 time=0
EXTRACT: note_on channel=9 note=37 velocity=127 time=0
EXTRACT: note_on channel=9 note=62 velocity=127 time=0
EXTRACT: note_on channel=9 note=75 velocity=61 time=0
EXTRACT: note_off channel=9 note=75 velocity=61 time=0.11875
EXTRACT: note_off channel=9 note=28 velocity=52 time=0.07083333333333333
EXTRACT: note_off channel=9 note=42 velocity=127 time=0.03958333333333333
EXTRACT: note_off channel=9 note=37 velocity=127 time=0
EXTRACT: note_off channel=1 note=51 velocity=83 time=0.01875
EXTRACT: note_off channel=1 note=66 velocity=83 time=0
EXTRACT: note_off channel=1 note=63 velocity=83 time=0
EXTRACT: note_on channel=1 note=53 velocity=56 time=0.0020833333333333333
EXTRACT: note_on channel=1 note=68 velocity=56 time=0
EXTRACT: note_on channel=1 note=65 velocity=56 time=0
EXTRACT: note_on channel=1 note=49 velocity=127 time=0
EXTRACT: note_on channel=1 note=65 velocity=127 time=0
EXTRACT: note_on channel=1 note=61 velocity=127 time=0
EXTRACT: note_on channel=9 note=28 velocity=52 time=0
EXTRACT: note_on channel=9 note=35 velocity=127 time=0
EXTRACT: note_on channel=9 note=36 velocity=127 time=0
EXTRACT: note_on channel=9 note=38 velocity=67 time=0
EXTRACT: note_on channel=9 note=75 velocity=61 time=0
EXTRACT: note_off channel=9 note=62 velocity=127 time=0.0010416666666666667
EXTRACT: note_off channel=9 note=75 velocity=61 time=0.11770833333333333
EXTRACT: note_off channel=9 note=28 velocity=52 time=0.07083333333333333
EXTRACT: note_off channel=9 note=38 velocity=67 time=0.034375
EXTRACT: note_off channel=9 note=35 velocity=127 time=0.005208333333333333
EXTRACT: note_off channel=9 note=36 velocity=127 time=0
EXTRACT: note_off channel=1 note=53 velocity=56 time=0.01875
EXTRACT: note_off channel=1 note=68 velocity=56 time=0
EXTRACT: note_off channel=1 note=65 velocity=56 time=0
EXTRACT: note_off channel=1 note=49 velocity=127 time=0
EXTRACT: note_off channel=1 note=65 velocity=127 time=0
EXTRACT: note_off channel=1 note=61 velocity=127 time=0
EXTRACT: note_on channel=1 note=51 velocity=127 time=0.0020833333333333333
EXTRACT: note_on channel=1 note=66 velocity=127 time=0
EXTRACT: note_on channel=1 note=63 velocity=127 time=0
EXTRACT: note_on channel=9 note=28 velocity=52 time=0
EXTRACT: note_off channel=9 note=28 velocity=52 time=0.18958333333333333
EXTRACT: note_on channel=9 note=43 velocity=43 time=0.06041666666666667
EXTRACT: note_on channel=9 note=28 velocity=52 time=0
EXTRACT: note_on channel=9 note=35 velocity=127 time=0
EXTRACT: note_on channel=9 note=36 velocity=127 time=0
EXTRACT: note_on channel=9 note=38 velocity=67 time=0
EXTRACT: note_on channel=9 note=75 velocity=56 time=0
EXTRACT: note_off channel=9 note=43 velocity=43 time=0.096875
EXTRACT: note_off channel=9 note=75 velocity=56 time=0.021875
EXTRACT: note_on channel=9 note=41 velocity=43 time=0.00625
EXTRACT: note_off channel=9 note=28 velocity=52 time=0.06458333333333333
EXTRACT: note_off channel=9 note=41 velocity=43 time=0.03229166666666666
EXTRACT: note_off channel=9 note=38 velocity=67 time=0.0020833333333333333
EXTRACT: note_off channel=9 note=35 velocity=127 time=0.005208333333333333
EXTRACT: note_off channel=9 note=36 velocity=127 time=0
EXTRACT: note_off channel=1 note=51 velocity=127 time=0.01875
EXTRACT: note_off channel=1 note=66 velocity=127 time=0
EXTRACT: note_off channel=1 note=63 velocity=127 time=0
EXTRACT: note_on channel=1 note=53 velocity=127 time=0.0020833333333333333
EXTRACT: note_on channel=1 note=68 velocity=127 time=0
EXTRACT: note_on channel=1 note=65 velocity=127 time=0
EXTRACT: note_on channel=9 note=28 velocity=52 time=0
EXTRACT: note_on channel=9 note=42 velocity=127 time=0
EXTRACT: note_on channel=9 note=37 velocity=127 time=0
EXTRACT: note_on channel=9 note=62 velocity=127 time=0
EXTRACT: note_on channel=9 note=35 velocity=127 time=0.125
EXTRACT: note_on channel=9 note=36 velocity=127 time=0
EXTRACT: note_on channel=9 note=38 velocity=65 time=0
EXTRACT: note_off channel=9 note=28 velocity=52 time=0.06458333333333333
EXTRACT: note_off channel=9 note=42 velocity=127 time=0.03958333333333333
EXTRACT: note_off channel=9 note=37 velocity=127 time=0
EXTRACT: note_off channel=1 note=53 velocity=127 time=0.01875
EXTRACT: note_off channel=1 note=68 velocity=127 time=0
EXTRACT: note_off channel=1 note=65 velocity=127 time=0
EXTRACT: note_on channel=1 note=68 velocity=127 time=0.0020833333333333333
EXTRACT: note_on channel=1 note=65 velocity=127 time=0
EXTRACT: note_on channel=1 note=53 velocity=127 time=0
EXTRACT: note_on channel=9 note=28 velocity=54 time=0
EXTRACT: note_on channel=9 note=42 velocity=127 time=0
EXTRACT: note_on channel=9 note=37 velocity=127 time=0
EXTRACT: note_on channel=9 note=62 velocity=127 time=0
EXTRACT: note_on channel=9 note=75 velocity=60 time=0
EXTRACT: note_off channel=9 note=62 velocity=127 time=0.0010416666666666667
EXTRACT: note_off channel=9 note=38 velocity=65 time=0.09791666666666667
EXTRACT: note_off channel=9 note=35 velocity=127 time=0.005208333333333333
EXTRACT: note_off channel=9 note=36 velocity=127 time=0
EXTRACT: note_off channel=9 note=75 velocity=60 time=0.014583333333333334
EXTRACT: note_on channel=9 note=75 velocity=58 time=0.00625
EXTRACT: note_off channel=9 note=28 velocity=54 time=0.06458333333333333
EXTRACT: note_off channel=9 note=42 velocity=127 time=0.03958333333333333
EXTRACT: note_off channel=9 note=37 velocity=127 time=0
EXTRACT: note_off channel=9 note=75 velocity=58 time=0.014583333333333334
EXTRACT: note_off channel=6 note=63 velocity=97 time=0.004166666666666667
EXTRACT: note_off channel=6 note=66 velocity=97 time=0
EXTRACT: note_off channel=6 note=70 velocity=97 time=0
EXTRACT: note_off channel=10 note=70 velocity=97 time=0
EXTRACT: note_off channel=10 note=66 velocity=97 time=0
EXTRACT: note_off channel=10 note=63 velocity=97 time=0
EXTRACT: note_on channel=3 note=34 velocity=127 time=0.0020833333333333333
EXTRACT: note_on channel=4 note=34 velocity=127 time=0
EXTRACT: note_on channel=4 note=46 velocity=127 time=0
EXTRACT: note_on channel=6 note=78 velocity=127 time=0
EXTRACT: note_on channel=9 note=28 velocity=54 time=0
EXTRACT: note_on channel=9 note=35 velocity=127 time=0
EXTRACT: note_on channel=9 note=36 velocity=127 time=0
EXTRACT: note_on channel=9 note=38 velocity=65 time=0
EXTRACT: note_on channel=9 note=75 velocity=61 time=0
EXTRACT: note_on channel=10 note=78 velocity=127 time=0
EXTRACT: note_off channel=9 note=62 velocity=127 time=0.0010416666666666667
EXTRACT: note_off channel=3 note=27 velocity=127 time=0.0125
EXTRACT: note_off channel=4 note=27 velocity=127 time=0
EXTRACT: note_off channel=4 note=39 velocity=127 time=0
EXTRACT: note_off channel=9 note=75 velocity=61 time=0.10520833333333333
EXTRACT: note_off channel=9 note=28 velocity=54 time=0.07083333333333333
EXTRACT: note_off channel=1 note=68 velocity=127 time=0.011458333333333333
EXTRACT: note_off channel=1 note=65 velocity=127 time=0
EXTRACT: note_off channel=1 note=53 velocity=127 time=0
EXTRACT: note_off channel=9 note=38 velocity=65 time=0.022916666666666665
EXTRACT: note_off channel=9 note=35 velocity=127 time=0.005208333333333333
EXTRACT: note_off channel=9 note=36 velocity=127 time=0
EXTRACT: note_on channel=1 note=53 velocity=80 time=0.020833333333333332
EXTRACT: note_on channel=1 note=68 velocity=80 time=0
EXTRACT: note_on channel=1 note=65 velocity=80 time=0
EXTRACT: note_on channel=9 note=28 velocity=56 time=0
EXTRACT: note_on channel=9 note=75 velocity=61 time=0
EXTRACT: note_off channel=9 note=75 velocity=61 time=0.11875
EXTRACT: note_on channel=9 note=75 velocity=61 time=0.00625
EXTRACT: note_off channel=9 note=28 velocity=56 time=0.06458333333333333
EXTRACT: note_off channel=9 note=75 velocity=61 time=0.05416666666666667
EXTRACT: note_off channel=6 note=78 velocity=127 time=0.004166666666666667
EXTRACT: note_off channel=10 note=78 velocity=127 time=0
EXTRACT: note_on channel=6 note=70 velocity=127 time=0.0020833333333333333
EXTRACT: note_on channel=6 note=73 velocity=127 time=0
EXTRACT: note_on channel=6 note=77 velocity=127 time=0
EXTRACT: note_on channel=9 note=28 velocity=52 time=0
EXTRACT: note_on channel=9 note=42 velocity=127 time=0
EXTRACT: note_on channel=9 note=37 velocity=127 time=0
EXTRACT: note_on channel=9 note=62 velocity=127 time=0
EXTRACT: note_on channel=9 note=75 velocity=61 time=0
EXTRACT: note_on channel=10 note=77 velocity=127 time=0
EXTRACT: note_on channel=10 note=73 velocity=127 time=0
EXTRACT: note_on channel=10 note=70 velocity=127 time=0
EXTRACT: note_off channel=1 note=53 velocity=80 time=0.021875
EXTRACT: note_off channel=1 note=68 velocity=80 time=0
EXTRACT: note_off channel=1 note=65 velocity=80 time=0
EXTRACT: note_off channel=9 note=75 velocity=61 time=0.096875
EXTRACT: note_off channel=9 note=28 velocity=52 time=0.07083333333333333
EXTRACT: note_off channel=9 note=42 velocity=127 time=0.03958333333333333
EXTRACT: note_off channel=9 note=37 velocity=127 time=0
EXTRACT: note_on channel=1 note=46 velocity=127 time=0.020833333333333332
EXTRACT: note_on channel=1 note=58 velocity=127 time=0
EXTRACT: note_on channel=9 note=28 velocity=52 time=0
EXTRACT: note_on channel=9 note=35 velocity=127 time=0
EXTRACT: note_on channel=9 note=36 velocity=127 time=0
EXTRACT: note_on channel=9 note=38 velocity=67 time=0
EXTRACT: note_on channel=9 note=75 velocity=61 time=0
EXTRACT: note_off channel=9 note=62 velocity=127 time=0.0010416666666666667
EXTRACT: note_off channel=9 note=75 velocity=61 time=0.11770833333333333
EXTRACT: note_off channel=9 note=28 velocity=52 time=0.07083333333333333
EXTRACT: note_off channel=9 note=38 velocity=67 time=0.034375
EXTRACT: note_off channel=9 note=35 velocity=127 time=0.005208333333333333
EXTRACT: note_off channel=9 note=36 velocity=127 time=0
EXTRACT: note_off channel=1 note=46 velocity=127 time=0.01875
EXTRACT: note_off channel=1 note=58 velocity=127 time=0
EXTRACT: note_on channel=1 note=49 velocity=127 time=0.0020833333333333333
EXTRACT: note_on channel=1 note=61 velocity=127 time=0
EXTRACT: note_on channel=9 note=28 velocity=52 time=0
EXTRACT: note_off channel=9 note=28 velocity=52 time=0.18958333333333333
EXTRACT: note_off channel=1 note=49 velocity=127 time=0.058333333333333334
EXTRACT: note_off channel=1 note=61 velocity=127 time=0
EXTRACT: note_on channel=1 note=49 velocity=127 time=0.0020833333333333333
EXTRACT: note_on channel=1 note=61 velocity=127 time=0
EXTRACT: note_on channel=9 note=43 velocity=43 time=0
EXTRACT: note_on channel=9 note=28 velocity=52 time=0
EXTRACT: note_on channel=9 note=35 velocity=127 time=0
EXTRACT: note_on channel=9 note=36 velocity=127 time=0
EXTRACT: note_on channel=9 note=38 velocity=67 time=0
EXTRACT: note_on channel=9 note=75 velocity=56 time=0
EXTRACT: note_off channel=9 note=43 velocity=43 time=0.096875
EXTRACT: note_off channel=9 note=75 velocity=56 time=0.021875
EXTRACT: note_on channel=9 note=41 velocity=43 time=0.00625
EXTRACT: note_off channel=9 note=28 velocity=52 time=0.06458333333333333
EXTRACT: note_off channel=9 note=41 velocity=43 time=0.03229166666666666
EXTRACT: note_off channel=9 note=38 velocity=67 time=0.0020833333333333333
EXTRACT: note_off channel=9 note=35 velocity=127 time=0.005208333333333333
EXTRACT: note_off channel=9 note=36 velocity=127 time=0
EXTRACT: note_off channel=1 note=49 velocity=127 time=0.01875
EXTRACT: note_off channel=1 note=61 velocity=127 time=0
EXTRACT: note_off channel=3 note=34 velocity=127 time=0
EXTRACT: note_off channel=4 note=34 velocity=127 time=0
EXTRACT: note_off channel=4 note=46 velocity=127 time=0
EXTRACT: note_off channel=6 note=70 velocity=127 time=0
EXTRACT: note_off channel=6 note=73 velocity=127 time=0
EXTRACT: note_off channel=6 note=77 velocity=127 time=0
EXTRACT: note_off channel=10 note=77 velocity=127 time=0
EXTRACT: note_off channel=10 note=73 velocity=127 time=0
EXTRACT: note_off channel=10 note=70 velocity=127 time=0
EXTRACT: note_on channel=1 note=46 velocity=127 time=0.0020833333333333333
EXTRACT: note_on channel=1 note=58 velocity=127 time=0
EXTRACT: note_on channel=6 note=73 velocity=127 time=0
EXTRACT: note_on channel=9 note=28 velocity=52 time=0
EXTRACT: note_on channel=9 note=42 velocity=127 time=0
EXTRACT: note_on channel=9 note=37 velocity=127 time=0
EXTRACT: note_on channel=9 note=62 velocity=127 time=0
EXTRACT: note_on channel=10 note=73 velocity=127 time=0
EXTRACT: note_on channel=9 note=35 velocity=127 time=0.125
EXTRACT: note_on channel=9 note=36 velocity=127 time=0
EXTRACT: note_on channel=9 note=38 velocity=65 time=0
EXTRACT: note_off channel=9 note=28 velocity=52 time=0.06458333333333333
EXTRACT: note_off channel=9 note=42 velocity=127 time=0.03958333333333333
EXTRACT: note_off channel=9 note=37 velocity=127 time=0
EXTRACT: note_off channel=1 note=46 velocity=127 time=0.01875
EXTRACT: note_off channel=1 note=58 velocity=127 time=0
EXTRACT: note_on channel=1 note=61 velocity=127 time=0.0020833333333333333
EXTRACT: note_on channel=1 note=49 velocity=127 time=0
EXTRACT: note_on channel=3 note=36 velocity=97 time=0
EXTRACT: note_on channel=4 note=36 velocity=97 time=0
EXTRACT: note_on channel=4 note=48 velocity=97 time=0
EXTRACT: note_on channel=9 note=28 velocity=54 time=0
EXTRACT: note_on channel=9 note=42 velocity=127 time=0
EXTRACT: note_on channel=9 note=37 velocity=127 time=0
EXTRACT: note_on channel=9 note=62 velocity=127 time=0
EXTRACT: note_on channel=9 note=75 velocity=60 time=0
EXTRACT: note_off channel=9 note=62 velocity=127 time=0.0010416666666666667
EXTRACT: note_off channel=9 note=38 velocity=65 time=0.09791666666666667
EXTRACT: note_off channel=9 note=35 velocity=127 time=0.005208333333333333
EXTRACT: note_off channel=9 note=36 velocity=127 time=0
EXTRACT: note_off channel=9 note=75 velocity=60 time=0.014583333333333334
EXTRACT: note_off channel=3 note=36 velocity=97 time=0.004166666666666667
EXTRACT: note_off channel=4 note=36 velocity=97 time=0
EXTRACT: note_off channel=4 note=48 velocity=97 time=0
EXTRACT: note_on channel=3 note=37 velocity=97 time=0.0020833333333333333
EXTRACT: note_on channel=4 note=37 velocity=97 time=0
EXTRACT: note_on channel=4 note=49 velocity=97 time=0
EXTRACT: note_on channel=9 note=75 velocity=58 time=0
EXTRACT: note_off channel=9 note=28 velocity=54 time=0.06458333333333333
EXTRACT: note_off channel=9 note=42 velocity=127 time=0.03958333333333333
EXTRACT: note_off channel=9 note=37 velocity=127 time=0
EXTRACT: note_off channel=9 note=75 velocity=58 time=0.014583333333333334
EXTRACT: note_off channel=3 note=37 velocity=97 time=0.004166666666666667
EXTRACT: note_off channel=4 note=37 velocity=97 time=0
EXTRACT: note_off channel=4 note=49 velocity=97 time=0
EXTRACT: note_off channel=6 note=73 velocity=127 time=0
EXTRACT: note_off channel=10 note=73 velocity=127 time=0
EXTRACT: note_on channel=1 note=46 velocity=85 time=0.0020833333333333333
EXTRACT: note_on channel=1 note=58 velocity=85 time=0
EXTRACT: note_on channel=3 note=30 velocity=127 time=0
EXTRACT: note_on channel=4 note=30 velocity=127 time=0
EXTRACT: note_on channel=4 note=42 velocity=127 time=0
EXTRACT: note_on channel=6 note=66 velocity=97 time=0
EXTRACT: note_on channel=6 note=70 velocity=97 time=0
EXTRACT: note_on channel=6 note=73 velocity=97 time=0
EXTRACT: note_on channel=9 note=28 velocity=54 time=0
EXTRACT: note_on channel=9 note=35 velocity=127 time=0
EXTRACT: note_on channel=9 note=36 velocity=127 time=0
EXTRACT: note_on channel=9 note=38 velocity=65 time=0
EXTRACT: note_on channel=9 note=75 velocity=61 time=0
EXTRACT: note_on channel=10 note=73 velocity=97 time=0
EXTRACT: note_on channel=10 note=70 velocity=97 time=0
EXTRACT: note_on channel=10 note=66 velocity=97 time=0
EXTRACT: note_off channel=9 note=62 velocity=127 time=0.0010416666666666667
EXTRACT: note_off channel=1 note=61 velocity=127 time=0.052083333333333336
EXTRACT: note_off channel=1 note=49 velocity=127 time=0
EXTRACT: note_off channel=9 note=75 velocity=61 time=0.065625
EXTRACT: note_off channel=9 note=28 velocity=54 time=0.07083333333333333
EXTRACT: note_off channel=9 note=38 velocity=65 time=0.034375
EXTRACT: note_off channel=9 note=35 velocity=127 time=0.005208333333333333
EXTRACT: note_off channel=9 note=36 velocity=127 time=0
EXTRACT: note_off channel=1 note=46 velocity=85 time=0.01875
EXTRACT: note_off channel=1 note=58 velocity=85 time=0
EXTRACT: note_on channel=1 note=49 velocity=85 time=0.0020833333333333333
EXTRACT: note_on channel=1 note=61 velocity=85 time=0
EXTRACT: note_on channel=9 note=28 velocity=56 time=0
EXTRACT: note_on channel=9 note=75 velocity=61 time=0
EXTRACT: note_off channel=9 note=75 velocity=61 time=0.11875
EXTRACT: note_on channel=9 note=75 velocity=61 time=0.00625
EXTRACT: note_off channel=9 note=28 velocity=56 time=0.06458333333333333
EXTRACT: note_off channel=9 note=75 velocity=61 time=0.05416666666666667
EXTRACT: note_on channel=1 note=49 velocity=127 time=0.00625
EXTRACT: note_on channel=1 note=61 velocity=127 time=0
EXTRACT: note_on channel=9 note=28 velocity=52 time=0
EXTRACT: note_on channel=9 note=42 velocity=127 time=0
EXTRACT: note_on channel=9 note=37 velocity=127 time=0
EXTRACT: note_on channel=9 note=62 velocity=127 time=0
EXTRACT: note_on channel=9 note=75 velocity=61 time=0
EXTRACT: note_off channel=1 note=49 velocity=85 time=0.053125
EXTRACT: note_off channel=1 note=61 velocity=85 time=0
EXTRACT: note_off channel=9 note=75 velocity=61 time=0.065625
EXTRACT: note_off channel=9 note=28 velocity=52 time=0.07083333333333333
EXTRACT: note_off channel=9 note=42 velocity=127 time=0.03958333333333333
EXTRACT: note_off channel=9 note=37 velocity=127 time=0
EXTRACT: note_off channel=1 note=49 velocity=127 time=0.01875
EXTRACT: note_off channel=1 note=61 velocity=127 time=0
EXTRACT: note_on channel=1 note=46 velocity=127 time=0.0020833333333333333
EXTRACT: note_on channel=1 note=58 velocity=127 time=0
EXTRACT: note_on channel=9 note=28 velocity=52 time=0
EXTRACT: note_on channel=9 note=35 velocity=127 time=0
EXTRACT: note_on channel=9 note=36 velocity=127 time=0
EXTRACT: note_on channel=9 note=38 velocity=67 time=0
EXTRACT: note_on channel=9 note=75 velocity=61 time=0
EXTRACT: note_off channel=9 note=62 velocity=127 time=0.0010416666666666667
EXTRACT: note_off channel=9 note=75 velocity=61 time=0.11770833333333333
EXTRACT: note_off channel=9 note=28 velocity=52 time=0.07083333333333333
EXTRACT: note_off channel=9 note=38 velocity=67 time=0.034375
EXTRACT: note_off channel=9 note=35 velocity=127 time=0.005208333333333333
EXTRACT: note_off channel=9 note=36 velocity=127 time=0
EXTRACT: note_off channel=1 note=46 velocity=127 time=0.01875
EXTRACT: note_off channel=1 note=58 velocity=127 time=0
EXTRACT: note_on channel=1 note=51 velocity=127 time=0.0020833333333333333
EXTRACT: note_on channel=1 note=63 velocity=127 time=0
EXTRACT: note_on channel=9 note=28 velocity=52 time=0
EXTRACT: note_off channel=1 note=51 velocity=127 time=0.12291666666666666
EXTRACT: note_off channel=1 note=63 velocity=127 time=0
EXTRACT: note_off channel=9 note=28 velocity=52 time=0.06666666666666667
EXTRACT: note_on channel=1 note=46 velocity=127 time=0.06041666666666667
EXTRACT: note_on channel=1 note=58 velocity=127 time=0
EXTRACT: note_on channel=9 note=43 velocity=43 time=0
EXTRACT: note_on channel=9 note=28 velocity=52 time=0
EXTRACT: note_on channel=9 note=35 velocity=127 time=0
EXTRACT: note_on channel=9 note=36 velocity=127 time=0
EXTRACT: note_on channel=9 note=38 velocity=67 time=0
EXTRACT: note_on channel=9 note=75 velocity=56 time=0
EXTRACT: note_off channel=9 note=43 velocity=43 time=0.096875
EXTRACT: note_off channel=9 note=75 velocity=56 time=0.021875
EXTRACT: note_on channel=9 note=41 velocity=43 time=0.00625
EXTRACT: note_off channel=9 note=28 velocity=52 time=0.06458333333333333
EXTRACT: note_off channel=9 note=41 velocity=43 time=0.03229166666666666
EXTRACT: note_off channel=9 note=38 velocity=67 time=0.0020833333333333333
EXTRACT: note_off channel=9 note=35 velocity=127 time=0.005208333333333333
EXTRACT: note_off channel=9 note=36 velocity=127 time=0
EXTRACT: note_off channel=1 note=46 velocity=127 time=0.01875
EXTRACT: note_off channel=1 note=58 velocity=127 time=0
EXTRACT: note_on channel=1 note=46 velocity=127 time=0.0020833333333333333
EXTRACT: note_on channel=1 note=58 velocity=127 time=0
EXTRACT: note_on channel=9 note=28 velocity=52 time=0
EXTRACT: note_on channel=9 note=42 velocity=127 time=0
EXTRACT: note_on channel=9 note=37 velocity=127 time=0
EXTRACT: note_on channel=9 note=62 velocity=127 time=0
EXTRACT: note_on channel=9 note=35 velocity=127 time=0.125
EXTRACT: note_on channel=9 note=36 velocity=127 time=0
EXTRACT: note_on channel=9 note=38 velocity=65 time=0
EXTRACT: note_off channel=9 note=28 velocity=52 time=0.06458333333333333
EXTRACT: note_off channel=9 note=42 velocity=127 time=0.03958333333333333
EXTRACT: note_off channel=9 note=37 velocity=127 time=0
EXTRACT: note_off channel=1 note=46 velocity=127 time=0.01875
EXTRACT: note_off channel=1 note=58 velocity=127 time=0
EXTRACT: note_on channel=1 note=46 velocity=127 time=0.0020833333333333333
EXTRACT: note_on channel=1 note=58 velocity=127 time=0
EXTRACT: note_on channel=9 note=28 velocity=54 time=0
EXTRACT: note_on channel=9 note=42 velocity=127 time=0
EXTRACT: note_on channel=9 note=37 velocity=127 time=0
EXTRACT: note_on channel=9 note=62 velocity=127 time=0
EXTRACT: note_on channel=9 note=75 velocity=60 time=0
EXTRACT: note_off channel=9 note=62 velocity=127 time=0.0010416666666666667
EXTRACT: note_off channel=9 note=38 velocity=65 time=0.09791666666666667
EXTRACT: note_off channel=9 note=35 velocity=127 time=0.005208333333333333
EXTRACT: note_off channel=9 note=36 velocity=127 time=0
EXTRACT: note_off channel=9 note=75 velocity=60 time=0.014583333333333334
EXTRACT: note_on channel=9 note=75 velocity=58 time=0.00625
EXTRACT: note_off channel=9 note=28 velocity=54 time=0.06458333333333333
EXTRACT: note_off channel=9 note=42 velocity=127 time=0.03958333333333333
EXTRACT: note_off channel=9 note=37 velocity=127 time=0
EXTRACT: note_off channel=9 note=75 velocity=58 time=0.014583333333333334
EXTRACT: note_off channel=1 note=46 velocity=127 time=0.004166666666666667
EXTRACT: note_off channel=1 note=58 velocity=127 time=0
EXTRACT: note_off channel=3 note=30 velocity=127 time=0
EXTRACT: note_off channel=4 note=30 velocity=127 time=0
EXTRACT: note_off channel=4 note=42 velocity=127 time=0
EXTRACT: note_off channel=6 note=66 velocity=97 time=0
EXTRACT: note_off channel=6 note=70 velocity=97 time=0
EXTRACT: note_off channel=6 note=73 velocity=97 time=0
EXTRACT: note_off channel=10 note=73 velocity=97 time=0
EXTRACT: note_off channel=10 note=70 velocity=97 time=0
EXTRACT: note_off channel=10 note=66 velocity=97 time=0
EXTRACT: note_on channel=1 note=44 velocity=127 time=0.0020833333333333333
EXTRACT: note_on channel=1 note=56 velocity=127 time=0
EXTRACT: note_on channel=3 note=30 velocity=127 time=0
EXTRACT: note_on channel=4 note=30 velocity=127 time=0
EXTRACT: note_on channel=4 note=42 velocity=127 time=0
EXTRACT: note_on channel=6 note=77 velocity=127 time=0
EXTRACT: note_on channel=6 note=73 velocity=127 time=0
EXTRACT: note_on channel=6 note=70 velocity=127 time=0
EXTRACT: note_on channel=6 note=66 velocity=127 time=0
EXTRACT: note_on channel=9 note=75 velocity=61 time=0
EXTRACT: note_on channel=9 note=38 velocity=65 time=0
EXTRACT: note_on channel=9 note=28 velocity=54 time=0
EXTRACT: note_on channel=9 note=35 velocity=127 time=0
EXTRACT: note_on channel=9 note=36 velocity=127 time=0
EXTRACT: note_on channel=10 note=66 velocity=127 time=0
EXTRACT: note_on channel=10 note=70 velocity=127 time=0
EXTRACT: note_on channel=10 note=73 velocity=127 time=0
EXTRACT: note_on channel=10 note=77 velocity=127 time=0
EXTRACT: note_off channel=9 note=62 velocity=127 time=0.0010416666666666667
EXTRACT: note_off channel=9 note=75 velocity=61 time=0.11770833333333333
EXTRACT: note_off channel=9 note=28 velocity=54 time=0.07083333333333333
EXTRACT: note_off channel=9 note=38 velocity=65 time=0.034375
EXTRACT: note_off channel=9 note=35 velocity=127 time=0.005208333333333333
EXTRACT: note_off channel=9 note=36 velocity=127 time=0
EXTRACT: note_off channel=1 note=44 velocity=127 time=0.01875
EXTRACT: note_off channel=1 note=56 velocity=127 time=0
EXTRACT: note_on channel=1 note=46 velocity=76 time=0.0020833333333333333
EXTRACT: note_on channel=1 note=58 velocity=76 time=0
EXTRACT: note_on channel=9 note=75 velocity=61 time=0
EXTRACT: note_on channel=9 note=28 velocity=56 time=0
EXTRACT: note_off channel=9 note=75 velocity=61 time=0.11875
EXTRACT: note_on channel=9 note=75 velocity=61 time=0.00625
EXTRACT: note_off channel=9 note=28 velocity=56 time=0.06458333333333333
EXTRACT: note_off channel=9 note=75 velocity=61 time=0.05416666666666667
EXTRACT: note_off channel=1 note=46 velocity=76 time=0.004166666666666667
EXTRACT: note_off channel=1 note=58 velocity=76 time=0
EXTRACT: note_on channel=1 note=44 velocity=78 time=0.0020833333333333333
EXTRACT: note_on channel=1 note=56 velocity=78 time=0
EXTRACT: note_on channel=9 note=62 velocity=127 time=0
EXTRACT: note_on channel=9 note=75 velocity=61 time=0
EXTRACT: note_on channel=9 note=28 velocity=52 time=0
EXTRACT: note_on channel=9 note=42 velocity=127 time=0
EXTRACT: note_on channel=9 note=37 velocity=127 time=0
EXTRACT: note_off channel=9 note=75 velocity=61 time=0.11875
EXTRACT: note_off channel=9 note=28 velocity=52 time=0.07083333333333333
EXTRACT: note_off channel=9 note=42 velocity=127 time=0.03958333333333333
EXTRACT: note_off channel=9 note=37 velocity=127 time=0
EXTRACT: note_off channel=1 note=44 velocity=78 time=0.01875
EXTRACT: note_off channel=1 note=56 velocity=78 time=0
EXTRACT: note_on channel=0 note=56 velocity=127 time=0.0020833333333333333
EXTRACT: note_on channel=0 note=68 velocity=127 time=0
EXTRACT: note_on channel=9 note=75 velocity=61 time=0
EXTRACT: note_on channel=9 note=38 velocity=67 time=0
EXTRACT: note_on channel=9 note=28 velocity=52 time=0
EXTRACT: note_on channel=9 note=35 velocity=127 time=0
EXTRACT: note_on channel=9 note=36 velocity=127 time=0
EXTRACT: note_off channel=9 note=62 velocity=127 time=0.0010416666666666667
EXTRACT: note_off channel=9 note=75 velocity=61 time=0.11770833333333333
EXTRACT: note_off channel=9 note=28 velocity=52 time=0.07083333333333333
EXTRACT: note_off channel=9 note=38 velocity=67 time=0.034375
EXTRACT: note_off channel=9 note=35 velocity=127 time=0.005208333333333333
EXTRACT: note_off channel=9 note=36 velocity=127 time=0
EXTRACT: note_off channel=0 note=56 velocity=127 time=0.01875
EXTRACT: note_off channel=0 note=68 velocity=127 time=0
EXTRACT: note_on channel=0 note=61 velocity=127 time=0.0020833333333333333
EXTRACT: note_on channel=0 note=73 velocity=127 time=0
EXTRACT: note_on channel=9 note=28 velocity=52 time=0
EXTRACT: note_off channel=9 note=28 velocity=52 time=0.18958333333333333
EXTRACT: note_off channel=0 note=61 velocity=127 time=0.058333333333333334
EXTRACT: note_off channel=0 note=73 velocity=127 time=0
EXTRACT: note_on channel=0 note=61 velocity=127 time=0.0020833333333333333
EXTRACT: note_on channel=0 note=73 velocity=127 time=0
EXTRACT: note_on channel=9 note=75 velocity=56 time=0
EXTRACT: note_on channel=9 note=38 velocity=67 time=0
EXTRACT: note_on channel=9 note=43 velocity=43 time=0
EXTRACT: note_on channel=9 note=28 velocity=52 time=0
EXTRACT: note_on channel=9 note=35 velocity=127 time=0
EXTRACT: note_on channel=9 note=36 velocity=127 time=0
EXTRACT: note_off channel=9 note=43 velocity=43 time=0.096875
EXTRACT: note_off channel=9 note=75 velocity=56 time=0.021875
EXTRACT: note_on channel=9 note=41 velocity=43 time=0.00625
EXTRACT: note_off channel=9 note=28 velocity=52 time=0.06458333333333333
EXTRACT: note_off channel=9 note=41 velocity=43 time=0.03229166666666666
EXTRACT: note_off channel=9 note=38 velocity=67 time=0.0020833333333333333
EXTRACT: note_off channel=9 note=35 velocity=127 time=0.005208333333333333
EXTRACT: note_off channel=9 note=36 velocity=127 time=0
EXTRACT: note_off channel=0 note=61 velocity=127 time=0.01875
EXTRACT: note_off channel=0 note=73 velocity=127 time=0
EXTRACT: note_off channel=3 note=30 velocity=127 time=0
EXTRACT: note_off channel=4 note=30 velocity=127 time=0
EXTRACT: note_off channel=4 note=42 velocity=127 time=0
EXTRACT: note_on channel=0 note=58 velocity=127 time=0.0020833333333333333
EXTRACT: note_on channel=0 note=70 velocity=127 time=0
EXTRACT: note_on channel=9 note=62 velocity=127 time=0
EXTRACT: note_on channel=9 note=28 velocity=52 time=0
EXTRACT: note_on channel=9 note=42 velocity=127 time=0
EXTRACT: note_on channel=9 note=37 velocity=127 time=0
EXTRACT: note_on channel=9 note=38 velocity=65 time=0.125
EXTRACT: note_on channel=9 note=35 velocity=127 time=0
EXTRACT: note_on channel=9 note=36 velocity=127 time=0
EXTRACT: note_off channel=9 note=28 velocity=52 time=0.06458333333333333
EXTRACT: note_off channel=9 note=42 velocity=127 time=0.03958333333333333
EXTRACT: note_off channel=9 note=37 velocity=127 time=0
EXTRACT: note_off channel=0 note=58 velocity=127 time=0.01875
EXTRACT: note_off channel=0 note=70 velocity=127 time=0
EXTRACT: note_on channel=0 note=58 velocity=127 time=0.0020833333333333333
EXTRACT: note_on channel=0 note=70 velocity=127 time=0
EXTRACT: note_on channel=3 note=30 velocity=97 time=0
EXTRACT: note_on channel=4 note=30 velocity=97 time=0
EXTRACT: note_on channel=4 note=42 velocity=97 time=0
EXTRACT: note_on channel=9 note=62 velocity=127 time=0
EXTRACT: note_on channel=9 note=75 velocity=60 time=0
EXTRACT: note_on channel=9 note=28 velocity=54 time=0
EXTRACT: note_on channel=9 note=42 velocity=127 time=0
EXTRACT: note_on channel=9 note=37 velocity=127 time=0
EXTRACT: note_off channel=9 note=62 velocity=127 time=0.0010416666666666667
EXTRACT: note_off channel=9 note=38 velocity=65 time=0.09791666666666667
EXTRACT: note_off channel=9 note=35 velocity=127 time=0.005208333333333333
EXTRACT: note_off channel=9 note=36 velocity=127 time=0
EXTRACT: note_off channel=9 note=75 velocity=60 time=0.014583333333333334
EXTRACT: note_off channel=3 note=30 velocity=97 time=0.004166666666666667
EXTRACT: note_off channel=4 note=30 velocity=97 time=0
EXTRACT: note_off channel=4 note=42 velocity=97 time=0
EXTRACT: note_on channel=3 note=32 velocity=97 time=0.0020833333333333333
EXTRACT: note_on channel=4 note=32 velocity=97 time=0
EXTRACT: note_on channel=4 note=44 velocity=97 time=0
EXTRACT: note_on channel=9 note=75 velocity=58 time=0
EXTRACT: note_off channel=9 note=28 velocity=54 time=0.06458333333333333
EXTRACT: note_off channel=9 note=42 velocity=127 time=0.03958333333333333
EXTRACT: note_off channel=9 note=37 velocity=127 time=0
EXTRACT: note_off channel=9 note=75 velocity=58 time=0.014583333333333334
EXTRACT: note_off channel=0 note=58 velocity=127 time=0.004166666666666667
EXTRACT: note_off channel=0 note=70 velocity=127 time=0
EXTRACT: note_off channel=3 note=32 velocity=97 time=0
EXTRACT: note_off channel=4 note=32 velocity=97 time=0
EXTRACT: note_off channel=4 note=44 velocity=97 time=0
EXTRACT: note_off channel=6 note=77 velocity=127 time=0
EXTRACT: note_off channel=6 note=73 velocity=127 time=0
EXTRACT: note_off channel=6 note=70 velocity=127 time=0
EXTRACT: note_off channel=6 note=66 velocity=127 time=0
EXTRACT: note_off channel=10 note=66 velocity=127 time=0
EXTRACT: note_off channel=10 note=70 velocity=127 time=0
EXTRACT: note_off channel=10 note=73 velocity=127 time=0
EXTRACT: note_off channel=10 note=77 velocity=127 time=0
EXTRACT: note_on channel=0 note=68 velocity=127 time=0.0020833333333333333
EXTRACT: note_on channel=0 note=56 velocity=127 time=0
EXTRACT: note_on channel=3 note=27 velocity=127 time=0
EXTRACT: note_on channel=4 note=27 velocity=127 time=0
EXTRACT: note_on channel=4 note=39 velocity=127 time=0
EXTRACT: note_on channel=6 note=70 velocity=97 time=0
EXTRACT: note_on channel=6 note=66 velocity=97 time=0
EXTRACT: note_on channel=6 note=63 velocity=97 time=0
EXTRACT: note_on channel=9 note=75 velocity=61 time=0
EXTRACT: note_on channel=9 note=38 velocity=65 time=0
EXTRACT: note_on channel=9 note=36 velocity=127 time=0
EXTRACT: note_on channel=9 note=35 velocity=127 time=0
EXTRACT: note_on channel=9 note=28 velocity=54 time=0
EXTRACT: note_on channel=10 note=63 velocity=97 time=0
EXTRACT: note_on channel=10 note=66 velocity=97 time=0
EXTRACT: note_on channel=10 note=70 velocity=97 time=0
EXTRACT: note_off channel=9 note=62 velocity=127 time=0.0010416666666666667
EXTRACT: note_off channel=9 note=75 velocity=61 time=0.11770833333333333
EXTRACT: note_off channel=9 note=28 velocity=54 time=0.07083333333333333
EXTRACT: note_off channel=9 note=38 velocity=65 time=0.034375
EXTRACT: note_off channel=9 note=36 velocity=127 time=0.005208333333333333
EXTRACT: note_off channel=9 note=35 velocity=127 time=0
EXTRACT: note_on channel=0 note=58 velocity=78 time=0.020833333333333332
EXTRACT: note_on channel=0 note=70 velocity=78 time=0
EXTRACT: note_on channel=9 note=75 velocity=61 time=0
EXTRACT: note_on channel=9 note=28 velocity=56 time=0
EXTRACT: note_off channel=0 note=68 velocity=127 time=0.06041666666666667
EXTRACT: note_off channel=0 note=56 velocity=127 time=0
EXTRACT: note_off channel=9 note=75 velocity=61 time=0.058333333333333334
EXTRACT: note_on channel=9 note=75 velocity=61 time=0.00625
EXTRACT: note_off channel=9 note=28 velocity=56 time=0.06458333333333333
EXTRACT: note_off channel=9 note=75 velocity=61 time=0.05416666666666667
EXTRACT: note_off channel=0 note=58 velocity=78 time=0.004166666666666667
EXTRACT: note_off channel=0 note=70 velocity=78 time=0
EXTRACT: note_on channel=0 note=56 velocity=76 time=0.0020833333333333333
EXTRACT: note_on channel=0 note=68 velocity=76 time=0
EXTRACT: note_on channel=9 note=75 velocity=61 time=0
EXTRACT: note_on channel=9 note=62 velocity=127 time=0
EXTRACT: note_on channel=9 note=37 velocity=127 time=0
EXTRACT: note_on channel=9 note=42 velocity=127 time=0
EXTRACT: note_on channel=9 note=28 velocity=52 time=0
EXTRACT: note_off channel=9 note=75 velocity=61 time=0.11875
EXTRACT: note_off channel=9 note=28 velocity=52 time=0.07083333333333333
EXTRACT: note_off channel=0 note=56 velocity=76 time=0.020833333333333332
EXTRACT: note_off channel=0 note=68 velocity=76 time=0
EXTRACT: note_off channel=9 note=37 velocity=127 time=0.01875
EXTRACT: note_off channel=9 note=42 velocity=127 time=0
EXTRACT: note_on channel=0 note=56 velocity=127 time=0.020833333333333332
EXTRACT: note_on channel=0 note=68 velocity=127 time=0
EXTRACT: note_on channel=9 note=75 velocity=61 time=0
EXTRACT: note_on channel=9 note=38 velocity=67 time=0
EXTRACT: note_on channel=9 note=36 velocity=127 time=0
EXTRACT: note_on channel=9 note=35 velocity=127 time=0
EXTRACT: note_on channel=9 note=28 velocity=52 time=0
EXTRACT: note_off channel=9 note=62 velocity=127 time=0.0010416666666666667
EXTRACT: note_off channel=9 note=75 velocity=61 time=0.11770833333333333
EXTRACT: note_off channel=9 note=28 velocity=52 time=0.07083333333333333
EXTRACT: note_off channel=9 note=38 velocity=67 time=0.034375
EXTRACT: note_off channel=9 note=36 velocity=127 time=0.005208333333333333
EXTRACT: note_off channel=9 note=35 velocity=127 time=0
EXTRACT: note_off channel=0 note=56 velocity=127 time=0.01875
EXTRACT: note_off channel=0 note=68 velocity=127 time=0
EXTRACT: note_on channel=0 note=61 velocity=127 time=0.0020833333333333333
EXTRACT: note_on channel=0 note=73 velocity=127 time=0
EXTRACT: note_on channel=9 note=28 velocity=52 time=0
EXTRACT: note_off channel=9 note=28 velocity=52 time=0.18958333333333333
EXTRACT: note_off channel=0 note=61 velocity=127 time=0.058333333333333334
EXTRACT: note_off channel=0 note=73 velocity=127 time=0
EXTRACT: note_on channel=0 note=61 velocity=127 time=0.0020833333333333333
EXTRACT: note_on channel=0 note=73 velocity=127 time=0
EXTRACT: note_on channel=9 note=75 velocity=56 time=0
EXTRACT: note_on channel=9 note=38 velocity=67 time=0
EXTRACT: note_on channel=9 note=36 velocity=127 time=0
EXTRACT: note_on channel=9 note=35 velocity=127 time=0
EXTRACT: note_on channel=9 note=28 velocity=52 time=0
EXTRACT: note_on channel=9 note=43 velocity=43 time=0
EXTRACT: note_off channel=9 note=43 velocity=43 time=0.096875
EXTRACT: note_off channel=9 note=75 velocity=56 time=0.021875
EXTRACT: note_on channel=9 note=41 velocity=43 time=0.00625
EXTRACT: note_off channel=9 note=28 velocity=52 time=0.06458333333333333
EXTRACT: note_off channel=9 note=41 velocity=43 time=0.03229166666666666
EXTRACT: note_off channel=9 note=38 velocity=67 time=0.0020833333333333333
EXTRACT: note_off channel=9 note=36 velocity=127 time=0.005208333333333333
EXTRACT: note_off channel=9 note=35 velocity=127 time=0
EXTRACT: note_off channel=0 note=61 velocity=127 time=0.01875
EXTRACT: note_off channel=0 note=73 velocity=127 time=0
EXTRACT: note_on channel=0 note=58 velocity=127 time=0.0020833333333333333
EXTRACT: note_on channel=0 note=70 velocity=127 time=0
EXTRACT: note_on channel=9 note=62 velocity=127 time=0
EXTRACT: note_on channel=9 note=37 velocity=127 time=0
EXTRACT: note_on channel=9 note=42 velocity=127 time=0
EXTRACT: note_on channel=9 note=28 velocity=52 time=0
EXTRACT: note_on channel=9 note=38 velocity=65 time=0.125
EXTRACT: note_on channel=9 note=36 velocity=127 time=0
EXTRACT: note_on channel=9 note=35 velocity=127 time=0
EXTRACT: note_off channel=9 note=28 velocity=52 time=0.06458333333333333
EXTRACT: note_off channel=9 note=37 velocity=127 time=0.03958333333333333
EXTRACT: note_off channel=9 note=42 velocity=127 time=0
EXTRACT: note_off channel=0 note=58 velocity=127 time=0.01875
EXTRACT: note_off channel=0 note=70 velocity=127 time=0
EXTRACT: note_on channel=0 note=73 velocity=127 time=0.0020833333333333333
EXTRACT: note_on channel=0 note=61 velocity=127 time=0
EXTRACT: note_on channel=9 note=75 velocity=60 time=0
EXTRACT: note_on channel=9 note=62 velocity=127 time=0
EXTRACT: note_on channel=9 note=37 velocity=127 time=0
EXTRACT: note_on channel=9 note=42 velocity=127 time=0
EXTRACT: note_on channel=9 note=28 velocity=54 time=0
EXTRACT: note_off channel=9 note=62 velocity=127 time=0.0010416666666666667
EXTRACT: note_off channel=9 note=38 velocity=65 time=0.09791666666666667
EXTRACT: note_off channel=9 note=36 velocity=127 time=0.005208333333333333
EXTRACT: note_off channel=9 note=35 velocity=127 time=0
EXTRACT: note_off channel=9 note=75 velocity=60 time=0.014583333333333334
EXTRACT: note_on channel=9 note=75 velocity=58 time=0.00625
EXTRACT: note_off channel=9 note=28 velocity=54 time=0.06458333333333333
EXTRACT: note_off channel=9 note=37 velocity=127 time=0.03958333333333333
EXTRACT: note_off channel=9 note=42 velocity=127 time=0
EXTRACT: note_off channel=9 note=75 velocity=58 time=0.014583333333333334
EXTRACT: note_off channel=6 note=70 velocity=97 time=0.004166666666666667
EXTRACT: note_off channel=6 note=66 velocity=97 time=0
EXTRACT: note_off channel=6 note=63 velocity=97 time=0
EXTRACT: note_off channel=10 note=63 velocity=97 time=0
EXTRACT: note_off channel=10 note=66 velocity=97 time=0
EXTRACT: note_off channel=10 note=70 velocity=97 time=0
EXTRACT: note_on channel=0 note=58 velocity=94 time=0.0020833333333333333
EXTRACT: note_on channel=0 note=70 velocity=94 time=0
EXTRACT: note_on channel=3 note=34 velocity=127 time=0
EXTRACT: note_on channel=4 note=34 velocity=127 time=0
EXTRACT: note_on channel=4 note=46 velocity=127 time=0
EXTRACT: note_on channel=6 note=78 velocity=127 time=0
EXTRACT: note_on channel=9 note=75 velocity=61 time=0
EXTRACT: note_on channel=9 note=38 velocity=65 time=0
EXTRACT: note_on channel=9 note=36 velocity=127 time=0
EXTRACT: note_on channel=9 note=35 velocity=127 time=0
EXTRACT: note_on channel=9 note=28 velocity=54 time=0
EXTRACT: note_on channel=10 note=78 velocity=127 time=0
EXTRACT: note_off channel=9 note=62 velocity=127 time=0.0010416666666666667
EXTRACT: note_off channel=0 note=73 velocity=127 time=0.011458333333333333
EXTRACT: note_off channel=0 note=61 velocity=127 time=0
EXTRACT: note_off channel=3 note=27 velocity=127 time=0.0010416666666666667
EXTRACT: note_off channel=4 note=27 velocity=127 time=0
EXTRACT: note_off channel=4 note=39 velocity=127 time=0
EXTRACT: note_off channel=9 note=75 velocity=61 time=0.10520833333333333
EXTRACT: note_off channel=9 note=28 velocity=54 time=0.07083333333333333
EXTRACT: note_off channel=9 note=38 velocity=65 time=0.034375
EXTRACT: note_off channel=9 note=36 velocity=127 time=0.005208333333333333
EXTRACT: note_off channel=9 note=35 velocity=127 time=0
EXTRACT: note_off channel=0 note=58 velocity=94 time=0.01875
EXTRACT: note_off channel=0 note=70 velocity=94 time=0
EXTRACT: note_on channel=0 note=61 velocity=94 time=0.0020833333333333333
EXTRACT: note_on channel=0 note=73 velocity=94 time=0
EXTRACT: note_on channel=9 note=75 velocity=61 time=0
EXTRACT: note_on channel=9 note=28 velocity=56 time=0
EXTRACT: note_off channel=9 note=75 velocity=61 time=0.11875
EXTRACT: note_on channel=9 note=75 velocity=61 time=0.00625
EXTRACT: note_off channel=9 note=28 velocity=56 time=0.06458333333333333
EXTRACT: note_off channel=9 note=75 velocity=61 time=0.05416666666666667
EXTRACT: note_off channel=6 note=78 velocity=127 time=0.004166666666666667
EXTRACT: note_off channel=10 note=78 velocity=127 time=0
EXTRACT: note_on channel=6 note=77 velocity=127 time=0.0020833333333333333
EXTRACT: note_on channel=6 note=73 velocity=127 time=0
EXTRACT: note_on channel=6 note=70 velocity=127 time=0
EXTRACT: note_on channel=9 note=75 velocity=61 time=0
EXTRACT: note_on channel=9 note=62 velocity=127 time=0
EXTRACT: note_on channel=9 note=37 velocity=127 time=0
EXTRACT: note_on channel=9 note=42 velocity=127 time=0
EXTRACT: note_on channel=9 note=28 velocity=52 time=0
EXTRACT: note_on channel=10 note=70 velocity=127 time=0
EXTRACT: note_on channel=10 note=73 velocity=127 time=0
EXTRACT: note_on channel=10 note=77 velocity=127 time=0
EXTRACT: note_off channel=0 note=61 velocity=94 time=0.0125
EXTRACT: note_off channel=0 note=73 velocity=94 time=0
EXTRACT: note_off channel=9 note=75 velocity=61 time=0.10625
EXTRACT: note_off channel=9 note=28 velocity=52 time=0.07083333333333333
EXTRACT: note_off channel=9 note=37 velocity=127 time=0.03958333333333333
EXTRACT: note_off channel=9 note=42 velocity=127 time=0
EXTRACT: note_on channel=0 note=58 velocity=127 time=0.020833333333333332
EXTRACT: note_on channel=0 note=70 velocity=127 time=0
EXTRACT: note_on channel=9 note=75 velocity=61 time=0
EXTRACT: note_on channel=9 note=38 velocity=67 time=0
EXTRACT: note_on channel=9 note=36 velocity=127 time=0
EXTRACT: note_on channel=9 note=35 velocity=127 time=0
EXTRACT: note_on channel=9 note=28 velocity=52 time=0
EXTRACT: note_off channel=9 note=62 velocity=127 time=0.0010416666666666667
EXTRACT: note_off channel=9 note=75 velocity=61 time=0.11770833333333333
EXTRACT: note_off channel=9 note=28 velocity=52 time=0.07083333333333333
EXTRACT: note_off channel=9 note=38 velocity=67 time=0.034375
EXTRACT: note_off channel=9 note=36 velocity=127 time=0.005208333333333333
EXTRACT: note_off channel=9 note=35 velocity=127 time=0
EXTRACT: note_off channel=0 note=58 velocity=127 time=0.01875
EXTRACT: note_off channel=0 note=70 velocity=127 time=0
EXTRACT: note_on channel=0 note=61 velocity=127 time=0.0020833333333333333
EXTRACT: note_on channel=0 note=73 velocity=127 time=0
EXTRACT: note_on channel=9 note=28 velocity=52 time=0
EXTRACT: note_off channel=9 note=28 velocity=52 time=0.18958333333333333
EXTRACT: note_off channel=0 note=61 velocity=127 time=0.058333333333333334
EXTRACT: note_off channel=0 note=73 velocity=127 time=0
EXTRACT: note_on channel=0 note=58 velocity=127 time=0.0020833333333333333
EXTRACT: note_on channel=0 note=70 velocity=127 time=0
EXTRACT: note_on channel=9 note=75 velocity=56 time=0
EXTRACT: note_on channel=9 note=38 velocity=67 time=0
EXTRACT: note_on channel=9 note=36 velocity=127 time=0
EXTRACT: note_on channel=9 note=35 velocity=127 time=0
EXTRACT: note_on channel=9 note=28 velocity=52 time=0
EXTRACT: note_on channel=9 note=43 velocity=43 time=0
EXTRACT: note_off channel=9 note=43 velocity=43 time=0.096875
EXTRACT: note_off channel=9 note=75 velocity=56 time=0.021875
EXTRACT: note_on channel=9 note=41 velocity=43 time=0.00625
EXTRACT: note_off channel=9 note=28 velocity=52 time=0.06458333333333333
EXTRACT: note_off channel=9 note=41 velocity=43 time=0.03229166666666666
EXTRACT: note_off channel=9 note=38 velocity=67 time=0.0020833333333333333
EXTRACT: note_off channel=9 note=36 velocity=127 time=0.005208333333333333
EXTRACT: note_off channel=9 note=35 velocity=127 time=0
EXTRACT: note_off channel=0 note=58 velocity=127 time=0.01875
EXTRACT: note_off channel=0 note=70 velocity=127 time=0
EXTRACT: note_off channel=3 note=34 velocity=127 time=0
EXTRACT: note_off channel=4 note=34 velocity=127 time=0
EXTRACT: note_off channel=4 note=46 velocity=127 time=0
EXTRACT: note_off channel=6 note=77 velocity=127 time=0
EXTRACT: note_off channel=6 note=73 velocity=127 time=0
EXTRACT: note_off channel=6 note=70 velocity=127 time=0
EXTRACT: note_off channel=10 note=70 velocity=127 time=0
EXTRACT: note_off channel=10 note=73 velocity=127 time=0
EXTRACT: note_off channel=10 note=77 velocity=127 time=0
EXTRACT: note_on channel=0 note=58 velocity=127 time=0.0020833333333333333
EXTRACT: note_on channel=0 note=70 velocity=127 time=0
EXTRACT: note_on channel=6 note=73 velocity=127 time=0
EXTRACT: note_on channel=9 note=62 velocity=127 time=0
EXTRACT: note_on channel=9 note=37 velocity=127 time=0
EXTRACT: note_on channel=9 note=42 velocity=127 time=0
EXTRACT: note_on channel=9 note=28 velocity=52 time=0
EXTRACT: note_on channel=10 note=73 velocity=127 time=0
EXTRACT: note_on channel=9 note=38 velocity=65 time=0.125
EXTRACT: note_on channel=9 note=36 velocity=127 time=0
EXTRACT: note_on channel=9 note=35 velocity=127 time=0
EXTRACT: note_off channel=9 note=28 velocity=52 time=0.06458333333333333
EXTRACT: note_off channel=9 note=37 velocity=127 time=0.03958333333333333
EXTRACT: note_off channel=9 note=42 velocity=127 time=0
EXTRACT: note_off channel=0 note=58 velocity=127 time=0.01875
EXTRACT: note_off channel=0 note=70 velocity=127 time=0
EXTRACT: note_on channel=0 note=58 velocity=127 time=0.0020833333333333333
EXTRACT: note_on channel=0 note=70 velocity=127 time=0
EXTRACT: note_on channel=3 note=36 velocity=97 time=0
EXTRACT: note_on channel=4 note=36 velocity=97 time=0
EXTRACT: note_on channel=4 note=48 velocity=97 time=0
EXTRACT: note_on channel=9 note=75 velocity=60 time=0
EXTRACT: note_on channel=9 note=62 velocity=127 time=0
EXTRACT: note_on channel=9 note=37 velocity=127 time=0
EXTRACT: note_on channel=9 note=42 velocity=127 time=0
EXTRACT: note_on channel=9 note=28 velocity=54 time=0
EXTRACT: note_off channel=9 note=62 velocity=127 time=0.0010416666666666667
EXTRACT: note_off channel=9 note=38 velocity=65 time=0.09791666666666667
EXTRACT: note_off channel=9 note=36 velocity=127 time=0.005208333333333333
EXTRACT: note_off channel=9 note=35 velocity=127 time=0
EXTRACT: note_off channel=9 note=75 velocity=60 time=0.014583333333333334
EXTRACT: note_off channel=3 note=36 velocity=97 time=0.004166666666666667
EXTRACT: note_off channel=4 note=36 velocity=97 time=0
EXTRACT: note_off channel=4 note=48 velocity=97 time=0
EXTRACT: note_on channel=3 note=37 velocity=97 time=0.0020833333333333333
EXTRACT: note_on channel=4 note=37 velocity=97 time=0
EXTRACT: note_on channel=4 note=49 velocity=97 time=0
EXTRACT: note_on channel=9 note=75 velocity=58 time=0
EXTRACT: note_off channel=9 note=28 velocity=54 time=0.06458333333333333
EXTRACT: note_off channel=9 note=37 velocity=127 time=0.03958333333333333
EXTRACT: note_off channel=9 note=42 velocity=127 time=0
EXTRACT: note_off channel=9 note=75 velocity=58 time=0.014583333333333334
EXTRACT: note_off channel=0 note=58 velocity=127 time=0.004166666666666667
EXTRACT: note_off channel=0 note=70 velocity=127 time=0
EXTRACT: note_off channel=3 note=37 velocity=97 time=0
EXTRACT: note_off channel=4 note=37 velocity=97 time=0
EXTRACT: note_off channel=4 note=49 velocity=97 time=0
EXTRACT: note_off channel=6 note=73 velocity=127 time=0
EXTRACT: note_off channel=10 note=73 velocity=127 time=0
EXTRACT: note_on channel=0 note=56 velocity=127 time=0.0020833333333333333
EXTRACT: note_on channel=0 note=68 velocity=127 time=0
EXTRACT: note_on channel=3 note=30 velocity=127 time=0
EXTRACT: note_on channel=4 note=30 velocity=127 time=0
EXTRACT: note_on channel=4 note=42 velocity=127 time=0
EXTRACT: note_on channel=6 note=73 velocity=97 time=0
EXTRACT: note_on channel=6 note=70 velocity=97 time=0
EXTRACT: note_on channel=6 note=66 velocity=97 time=0
EXTRACT: note_on channel=9 note=75 velocity=61 time=0
EXTRACT: note_on channel=9 note=38 velocity=65 time=0
EXTRACT: note_on channel=9 note=36 velocity=127 time=0
EXTRACT: note_on channel=9 note=35 velocity=127 time=0
EXTRACT: note_on channel=9 note=28 velocity=54 time=0
EXTRACT: note_on channel=10 note=66 velocity=97 time=0
EXTRACT: note_on channel=10 note=70 velocity=97 time=0
EXTRACT: note_on channel=10 note=73 velocity=97 time=0
EXTRACT: note_off channel=9 note=62 velocity=127 time=0.0010416666666666667
EXTRACT: note_off channel=9 note=75 velocity=61 time=0.11770833333333333
EXTRACT: note_off channel=9 note=28 velocity=54 time=0.07083333333333333
EXTRACT: note_off channel=9 note=38 velocity=65 time=0.034375
EXTRACT: note_off channel=9 note=36 velocity=127 time=0.005208333333333333
EXTRACT: note_off channel=9 note=35 velocity=127 time=0
EXTRACT: note_on channel=0 note=58 velocity=89 time=0.020833333333333332
EXTRACT: note_on channel=0 note=70 velocity=89 time=0
EXTRACT: note_on channel=9 note=75 velocity=61 time=0
EXTRACT: note_on channel=9 note=28 velocity=56 time=0
EXTRACT: note_off channel=0 note=56 velocity=127 time=0.028125
EXTRACT: note_off channel=0 note=68 velocity=127 time=0
EXTRACT: note_off channel=9 note=75 velocity=61 time=0.090625
EXTRACT: note_on channel=9 note=75 velocity=61 time=0.00625
EXTRACT: note_off channel=9 note=28 velocity=56 time=0.06458333333333333
EXTRACT: note_off channel=9 note=75 velocity=61 time=0.05416666666666667
EXTRACT: note_off channel=0 note=58 velocity=89 time=0.004166666666666667
EXTRACT: note_off channel=0 note=70 velocity=89 time=0
EXTRACT: note_on channel=0 note=56 velocity=92 time=0.0020833333333333333
EXTRACT: note_on channel=0 note=68 velocity=92 time=0
EXTRACT: note_on channel=9 note=75 velocity=61 time=0
EXTRACT: note_on channel=9 note=62 velocity=127 time=0
EXTRACT: note_on channel=9 note=37 velocity=127 time=0
EXTRACT: note_on channel=9 note=42 velocity=127 time=0
EXTRACT: note_on channel=9 note=28 velocity=52 time=0
EXTRACT: note_off channel=9 note=75 velocity=61 time=0.11875
EXTRACT: note_off channel=9 note=28 velocity=52 time=0.07083333333333333
EXTRACT: note_off channel=9 note=37 velocity=127 time=0.03958333333333333
EXTRACT: note_off channel=9 note=42 velocity=127 time=0
EXTRACT: note_on channel=0 note=70 velocity=127 time=0.020833333333333332
EXTRACT: note_on channel=9 note=75 velocity=61 time=0
EXTRACT: note_on channel=9 note=38 velocity=67 time=0
EXTRACT: note_on channel=9 note=36 velocity=127 time=0
EXTRACT: note_on channel=9 note=35 velocity=127 time=0
EXTRACT: note_on channel=9 note=28 velocity=52 time=0
EXTRACT: note_off channel=9 note=62 velocity=127 time=0.0010416666666666667
EXTRACT: note_off channel=0 note=56 velocity=92 time=0.027083333333333334
EXTRACT: note_off channel=0 note=68 velocity=92 time=0
EXTRACT: note_off channel=9 note=75 velocity=61 time=0.090625
EXTRACT: note_off channel=9 note=28 velocity=52 time=0.07083333333333333
EXTRACT: note_off channel=9 note=38 velocity=67 time=0.034375
EXTRACT: note_off channel=9 note=36 velocity=127 time=0.005208333333333333
EXTRACT: note_off channel=9 note=35 velocity=127 time=0
EXTRACT: note_off channel=0 note=70 velocity=127 time=0.01875
EXTRACT: note_on channel=0 note=77 velocity=127 time=0.0020833333333333333
EXTRACT: note_on channel=0 note=70 velocity=127 time=0
EXTRACT: note_on channel=0 note=73 velocity=127 time=0
EXTRACT: note_on channel=9 note=28 velocity=52 time=0
EXTRACT: note_off channel=9 note=28 velocity=52 time=0.18958333333333333
EXTRACT: note_off channel=0 note=77 velocity=127 time=0.058333333333333334
EXTRACT: note_off channel=0 note=70 velocity=127 time=0
EXTRACT: note_off channel=0 note=73 velocity=127 time=0
EXTRACT: note_on channel=0 note=77 velocity=127 time=0.0020833333333333333
EXTRACT: note_on channel=0 note=70 velocity=127 time=0
EXTRACT: note_on channel=0 note=73 velocity=127 time=0
EXTRACT: note_on channel=9 note=75 velocity=56 time=0
EXTRACT: note_on channel=9 note=38 velocity=67 time=0
EXTRACT: note_on channel=9 note=36 velocity=127 time=0
EXTRACT: note_on channel=9 note=35 velocity=127 time=0
EXTRACT: note_on channel=9 note=28 velocity=52 time=0
EXTRACT: note_on channel=9 note=43 velocity=43 time=0
EXTRACT: note_off channel=9 note=43 velocity=43 time=0.096875
EXTRACT: note_off channel=9 note=75 velocity=56 time=0.021875
EXTRACT: note_on channel=9 note=41 velocity=43 time=0.00625
EXTRACT: note_off channel=9 note=28 velocity=52 time=0.06458333333333333
EXTRACT: note_off channel=9 note=41 velocity=43 time=0.03229166666666666
EXTRACT: note_off channel=9 note=38 velocity=67 time=0.0020833333333333333
EXTRACT: note_off channel=9 note=36 velocity=127 time=0.005208333333333333
EXTRACT: note_off channel=9 note=35 velocity=127 time=0
EXTRACT: note_off channel=0 note=77 velocity=127 time=0.01875
EXTRACT: note_off channel=0 note=70 velocity=127 time=0
EXTRACT: note_off channel=0 note=73 velocity=127 time=0
EXTRACT: note_on channel=9 note=62 velocity=127 time=0.0020833333333333333
EXTRACT: note_on channel=9 note=37 velocity=127 time=0
EXTRACT: note_on channel=9 note=42 velocity=127 time=0
EXTRACT: note_on channel=9 note=28 velocity=52 time=0
EXTRACT: note_on channel=9 note=38 velocity=65 time=0.125
EXTRACT: note_on channel=9 note=36 velocity=127 time=0
EXTRACT: note_on channel=9 note=35 velocity=127 time=0
EXTRACT: note_off channel=9 note=28 velocity=52 time=0.06458333333333333
EXTRACT: note_off channel=9 note=37 velocity=127 time=0.03958333333333333
EXTRACT: note_off channel=9 note=42 velocity=127 time=0
EXTRACT: note_on channel=9 note=75 velocity=60 time=0.020833333333333332
EXTRACT: note_on channel=9 note=62 velocity=127 time=0
EXTRACT: note_on channel=9 note=37 velocity=127 time=0
EXTRACT: note_on channel=9 note=42 velocity=127 time=0
EXTRACT: note_on channel=9 note=28 velocity=54 time=0
EXTRACT: note_off channel=9 note=62 velocity=127 time=0.0010416666666666667
EXTRACT: note_off channel=9 note=38 velocity=65 time=0.09791666666666667
EXTRACT: note_off channel=9 note=36 velocity=127 time=0.005208333333333333
EXTRACT: note_off channel=9 note=35 velocity=127 time=0
EXTRACT: note_off channel=9 note=75 velocity=60 time=0.014583333333333334
EXTRACT: note_on channel=9 note=75 velocity=58 time=0.00625
EXTRACT: note_off channel=9 note=28 velocity=54 time=0.06458333333333333
EXTRACT: note_off channel=9 note=37 velocity=127 time=0.03958333333333333
EXTRACT: note_off channel=9 note=42 velocity=127 time=0
EXTRACT: note_off channel=9 note=75 velocity=58 time=0.014583333333333334
EXTRACT: note_off channel=3 note=30 velocity=127 time=0.004166666666666667
EXTRACT: note_off channel=4 note=30 velocity=127 time=0
EXTRACT: note_off channel=4 note=42 velocity=127 time=0
EXTRACT: note_off channel=6 note=73 velocity=97 time=0
EXTRACT: note_off channel=6 note=70 velocity=97 time=0
EXTRACT: note_off channel=6 note=66 velocity=97 time=0
EXTRACT: note_off channel=10 note=66 velocity=97 time=0
EXTRACT: note_off channel=10 note=70 velocity=97 time=0
EXTRACT: note_off channel=10 note=73 velocity=97 time=0
EXTRACT: note_on channel=5 note=61 velocity=127 time=0.0020833333333333333
EXTRACT: note_on channel=9 note=75 velocity=61 time=0
EXTRACT: note_on channel=9 note=38 velocity=65 time=0
EXTRACT: note_on channel=9 note=28 velocity=54 time=0
EXTRACT: note_on channel=9 note=35 velocity=127 time=0
EXTRACT: note_on channel=9 note=36 velocity=127 time=0
EXTRACT: note_on channel=7 note=22 velocity=127 time=0
EXTRACT: note_on channel=8 note=61 velocity=127 time=0
EXTRACT: note_off channel=9 note=62 velocity=127 time=0.0010416666666666667
EXTRACT: note_off channel=9 note=75 velocity=61 time=0.11770833333333333
EXTRACT: note_off channel=9 note=28 velocity=54 time=0.07083333333333333
EXTRACT: note_off channel=9 note=38 velocity=65 time=0.034375
EXTRACT: note_off channel=9 note=35 velocity=127 time=0.005208333333333333
EXTRACT: note_off channel=9 note=36 velocity=127 time=0
EXTRACT: note_off channel=5 note=61 velocity=127 time=0.01875
EXTRACT: note_off channel=8 note=61 velocity=127 time=0
EXTRACT: note_on channel=5 note=58 velocity=127 time=0.0020833333333333333
EXTRACT: note_on channel=9 note=75 velocity=61 time=0
EXTRACT: note_on channel=9 note=28 velocity=56 time=0
EXTRACT: note_on channel=8 note=58 velocity=127 time=0
EXTRACT: note_off channel=9 note=75 velocity=61 time=0.11875
EXTRACT: note_on channel=9 note=75 velocity=61 time=0.00625
EXTRACT: note_off channel=9 note=28 velocity=56 time=0.06458333333333333
EXTRACT: note_off channel=9 note=75 velocity=61 time=0.05416666666666667
EXTRACT: note_off channel=5 note=58 velocity=127 time=0.004166666666666667
EXTRACT: note_off channel=8 note=58 velocity=127 time=0
EXTRACT: note_on channel=5 note=61 velocity=127 time=0.0020833333333333333
EXTRACT: note_on channel=9 note=62 velocity=127 time=0
EXTRACT: note_on channel=9 note=75 velocity=61 time=0
EXTRACT: note_on channel=9 note=28 velocity=52 time=0
EXTRACT: note_on channel=9 note=42 velocity=127 time=0
EXTRACT: note_on channel=9 note=37 velocity=127 time=0
EXTRACT: note_on channel=8 note=61 velocity=127 time=0
EXTRACT: note_off channel=7 note=22 velocity=127 time=0.015625
EXTRACT: note_off channel=9 note=75 velocity=61 time=0.103125
EXTRACT: note_off channel=9 note=28 velocity=52 time=0.07083333333333333
EXTRACT: note_off channel=9 note=42 velocity=127 time=0.03958333333333333
EXTRACT: note_off channel=9 note=37 velocity=127 time=0
EXTRACT: note_off channel=5 note=61 velocity=127 time=0.01875
EXTRACT: note_off channel=8 note=61 velocity=127 time=0
EXTRACT: note_on channel=5 note=58 velocity=127 time=0.0020833333333333333
EXTRACT: note_on channel=9 note=75 velocity=61 time=0
EXTRACT: note_on channel=9 note=38 velocity=67 time=0
EXTRACT: note_on channel=9 note=28 velocity=52 time=0
EXTRACT: note_on channel=9 note=35 velocity=127 time=0
EXTRACT: note_on channel=9 note=36 velocity=127 time=0
EXTRACT: note_on channel=8 note=58 velocity=127 time=0
EXTRACT: note_off channel=9 note=62 velocity=127 time=0.0010416666666666667
EXTRACT: note_off channel=9 note=75 velocity=61 time=0.11770833333333333
EXTRACT: note_off channel=9 note=28 velocity=52 time=0.07083333333333333
EXTRACT: note_off channel=9 note=38 velocity=67 time=0.034375
EXTRACT: note_off channel=9 note=35 velocity=127 time=0.005208333333333333
EXTRACT: note_off channel=9 note=36 velocity=127 time=0
EXTRACT: note_off channel=5 note=58 velocity=127 time=0.01875
EXTRACT: note_off channel=8 note=58 velocity=127 time=0
EXTRACT: note_on channel=5 note=65 velocity=127 time=0.0020833333333333333
EXTRACT: note_on channel=9 note=28 velocity=52 time=0
EXTRACT: note_on channel=8 note=65 velocity=127 time=0
EXTRACT: note_off channel=9 note=28 velocity=52 time=0.18958333333333333
EXTRACT: note_off channel=5 note=65 velocity=127 time=0.058333333333333334
EXTRACT: note_off channel=8 note=65 velocity=127 time=0
EXTRACT: note_on channel=5 note=63 velocity=127 time=0.0020833333333333333
EXTRACT: note_on channel=9 note=75 velocity=56 time=0
EXTRACT: note_on channel=9 note=38 velocity=67 time=0
EXTRACT: note_on channel=9 note=43 velocity=43 time=0
EXTRACT: note_on channel=9 note=28 velocity=52 time=0
EXTRACT: note_on channel=9 note=35 velocity=127 time=0
EXTRACT: note_on channel=9 note=36 velocity=127 time=0
EXTRACT: note_on channel=8 note=63 velocity=127 time=0
EXTRACT: note_off channel=9 note=43 velocity=43 time=0.096875
EXTRACT: note_off channel=9 note=75 velocity=56 time=0.021875
EXTRACT: note_on channel=9 note=41 velocity=43 time=0.00625
EXTRACT: note_off channel=9 note=28 velocity=52 time=0.06458333333333333
EXTRACT: note_off channel=9 note=41 velocity=43 time=0.03229166666666666
EXTRACT: note_off channel=9 note=38 velocity=67 time=0.0020833333333333333
EXTRACT: note_off channel=9 note=35 velocity=127 time=0.005208333333333333
EXTRACT: note_off channel=9 note=36 velocity=127 time=0
EXTRACT: note_off channel=5 note=63 velocity=127 time=0.01875
EXTRACT: note_off channel=8 note=63 velocity=127 time=0
EXTRACT: note_on channel=5 note=63 velocity=127 time=0.0020833333333333333
EXTRACT: note_on channel=9 note=62 velocity=127 time=0
EXTRACT: note_on channel=9 note=28 velocity=52 time=0
EXTRACT: note_on channel=9 note=42 velocity=127 time=0
EXTRACT: note_on channel=9 note=37 velocity=127 time=0
EXTRACT: note_on channel=8 note=63 velocity=127 time=0
EXTRACT: note_on channel=9 note=38 velocity=65 time=0.125
EXTRACT: note_on channel=9 note=35 velocity=127 time=0
EXTRACT: note_on channel=9 note=36 velocity=127 time=0
EXTRACT: note_off channel=9 note=28 velocity=52 time=0.06458333333333333
EXTRACT: note_off channel=9 note=42 velocity=127 time=0.03958333333333333
EXTRACT: note_off channel=9 note=37 velocity=127 time=0
EXTRACT: note_off channel=5 note=63 velocity=127 time=0.01875
EXTRACT: note_off channel=8 note=63 velocity=127 time=0
EXTRACT: note_on channel=5 note=61 velocity=127 time=0.0020833333333333333
EXTRACT: note_on channel=9 note=62 velocity=127 time=0
EXTRACT: note_on channel=9 note=75 velocity=60 time=0
EXTRACT: note_on channel=9 note=28 velocity=54 time=0
EXTRACT: note_on channel=9 note=42 velocity=127 time=0
EXTRACT: note_on channel=9 note=37 velocity=127 time=0
EXTRACT: note_on channel=8 note=61 velocity=127 time=0
EXTRACT: note_off channel=9 note=62 velocity=127 time=0.0010416666666666667
EXTRACT: note_off channel=9 note=38 velocity=65 time=0.09791666666666667
EXTRACT: note_off channel=9 note=35 velocity=127 time=0.005208333333333333
EXTRACT: note_off channel=9 note=36 velocity=127 time=0
EXTRACT: note_off channel=9 note=75 velocity=60 time=0.014583333333333334
EXTRACT: note_on channel=9 note=75 velocity=58 time=0.00625
EXTRACT: note_off channel=9 note=28 velocity=54 time=0.06458333333333333
EXTRACT: note_off channel=9 note=42 velocity=127 time=0.03958333333333333
EXTRACT: note_off channel=9 note=37 velocity=127 time=0
EXTRACT: note_off channel=9 note=75 velocity=58 time=0.014583333333333334
EXTRACT: note_off channel=5 note=61 velocity=127 time=0.004166666666666667
EXTRACT: note_off channel=8 note=61 velocity=127 time=0
EXTRACT: note_on channel=5 note=61 velocity=127 time=0.0020833333333333333
EXTRACT: note_on channel=9 note=75 velocity=61 time=0
EXTRACT: note_on channel=9 note=38 velocity=65 time=0
EXTRACT: note_on channel=9 note=36 velocity=127 time=0
EXTRACT: note_on channel=9 note=35 velocity=127 time=0
EXTRACT: note_on channel=9 note=28 velocity=54 time=0
EXTRACT: note_on channel=8 note=61 velocity=127 time=0
EXTRACT: note_off channel=9 note=62 velocity=127 time=0.0010416666666666667
EXTRACT: note_off channel=9 note=75 velocity=61 time=0.11770833333333333
EXTRACT: note_off channel=9 note=28 velocity=54 time=0.07083333333333333
EXTRACT: note_off channel=9 note=38 velocity=65 time=0.034375
EXTRACT: note_off channel=9 note=36 velocity=127 time=0.005208333333333333
EXTRACT: note_off channel=9 note=35 velocity=127 time=0
EXTRACT: note_off channel=5 note=61 velocity=127 time=0.01875
EXTRACT: note_off channel=8 note=61 velocity=127 time=0
EXTRACT: note_on channel=5 note=58 velocity=127 time=0.0020833333333333333
EXTRACT: note_on channel=9 note=75 velocity=61 time=0
EXTRACT: note_on channel=9 note=28 velocity=56 time=0
EXTRACT: note_on channel=8 note=58 velocity=127 time=0
EXTRACT: note_off channel=9 note=75 velocity=61 time=0.11875
EXTRACT: note_on channel=9 note=75 velocity=61 time=0.00625
EXTRACT: note_off channel=9 note=28 velocity=56 time=0.06458333333333333
EXTRACT: note_off channel=9 note=75 velocity=61 time=0.05416666666666667
EXTRACT: note_off channel=5 note=58 velocity=127 time=0.004166666666666667
EXTRACT: note_off channel=8 note=58 velocity=127 time=0
EXTRACT: note_on channel=5 note=61 velocity=127 time=0.0020833333333333333
EXTRACT: note_on channel=9 note=75 velocity=61 time=0
EXTRACT: note_on channel=9 note=62 velocity=127 time=0
EXTRACT: note_on channel=9 note=37 velocity=127 time=0
EXTRACT: note_on channel=9 note=42 velocity=127 time=0
EXTRACT: note_on channel=9 note=28 velocity=52 time=0
EXTRACT: note_on channel=8 note=61 velocity=127 time=0
EXTRACT: note_off channel=9 note=75 velocity=61 time=0.11875
EXTRACT: note_off channel=9 note=28 velocity=52 time=0.07083333333333333
EXTRACT: note_off channel=9 note=37 velocity=127 time=0.03958333333333333
EXTRACT: note_off channel=9 note=42 velocity=127 time=0
EXTRACT: note_off channel=5 note=61 velocity=127 time=0.01875
EXTRACT: note_off channel=8 note=61 velocity=127 time=0
EXTRACT: note_on channel=5 note=58 velocity=127 time=0.0020833333333333333
EXTRACT: note_on channel=9 note=75 velocity=61 time=0
EXTRACT: note_on channel=9 note=38 velocity=67 time=0
EXTRACT: note_on channel=9 note=36 velocity=127 time=0
EXTRACT: note_on channel=9 note=35 velocity=127 time=0
EXTRACT: note_on channel=9 note=28 velocity=52 time=0
EXTRACT: note_on channel=8 note=58 velocity=127 time=0
EXTRACT: note_off channel=9 note=62 velocity=127 time=0.0010416666666666667
EXTRACT: note_off channel=9 note=75 velocity=61 time=0.11770833333333333
EXTRACT: note_off channel=9 note=28 velocity=52 time=0.07083333333333333
EXTRACT: note_off channel=9 note=38 velocity=67 time=0.034375
EXTRACT: note_off channel=9 note=36 velocity=127 time=0.005208333333333333
EXTRACT: note_off channel=9 note=35 velocity=127 time=0
EXTRACT: note_off channel=5 note=58 velocity=127 time=0.01875
EXTRACT: note_off channel=8 note=58 velocity=127 time=0
EXTRACT: note_on channel=5 note=65 velocity=127 time=0.0020833333333333333
EXTRACT: note_on channel=9 note=28 velocity=52 time=0
EXTRACT: note_on channel=8 note=65 velocity=127 time=0
EXTRACT: note_off channel=9 note=28 velocity=52 time=0.18958333333333333
EXTRACT: note_off channel=5 note=65 velocity=127 time=0.058333333333333334
EXTRACT: note_off channel=8 note=65 velocity=127 time=0
EXTRACT: note_on channel=5 note=63 velocity=127 time=0.0020833333333333333
EXTRACT: note_on channel=9 note=75 velocity=56 time=0
EXTRACT: note_on channel=9 note=38 velocity=67 time=0
EXTRACT: note_on channel=9 note=36 velocity=127 time=0
EXTRACT: note_on channel=9 note=35 velocity=127 time=0
EXTRACT: note_on channel=9 note=28 velocity=52 time=0
EXTRACT: note_on channel=9 note=43 velocity=43 time=0
EXTRACT: note_on channel=8 note=63 velocity=127 time=0
EXTRACT: note_off channel=9 note=43 velocity=43 time=0.096875
EXTRACT: note_off channel=9 note=75 velocity=56 time=0.021875
EXTRACT: note_on channel=9 note=41 velocity=43 time=0.00625
EXTRACT: note_off channel=9 note=28 velocity=52 time=0.06458333333333333
EXTRACT: note_off channel=9 note=41 velocity=43 time=0.03229166666666666
EXTRACT: note_off channel=9 note=38 velocity=67 time=0.0020833333333333333
EXTRACT: note_off channel=9 note=36 velocity=127 time=0.005208333333333333
EXTRACT: note_off channel=9 note=35 velocity=127 time=0
EXTRACT: note_off channel=5 note=63 velocity=127 time=0.01875
EXTRACT: note_off channel=8 note=63 velocity=127 time=0
EXTRACT: note_on channel=5 note=63 velocity=127 time=0.0020833333333333333
EXTRACT: note_on channel=9 note=62 velocity=127 time=0
EXTRACT: note_on channel=9 note=37 velocity=127 time=0
EXTRACT: note_on channel=9 note=42 velocity=127 time=0
EXTRACT: note_on channel=9 note=28 velocity=52 time=0
EXTRACT: note_on channel=8 note=63 velocity=127 time=0
EXTRACT: note_on channel=9 note=38 velocity=65 time=0.125
EXTRACT: note_on channel=9 note=36 velocity=127 time=0
EXTRACT: note_on channel=9 note=35 velocity=127 time=0
EXTRACT: note_off channel=9 note=28 velocity=52 time=0.06458333333333333
EXTRACT: note_off channel=9 note=37 velocity=127 time=0.03958333333333333
EXTRACT: note_off channel=9 note=42 velocity=127 time=0
EXTRACT: note_off channel=5 note=63 velocity=127 time=0.01875
EXTRACT: note_off channel=8 note=63 velocity=127 time=0
EXTRACT: note_on channel=5 note=61 velocity=127 time=0.0020833333333333333
EXTRACT: note_on channel=9 note=75 velocity=60 time=0
EXTRACT: note_on channel=9 note=62 velocity=127 time=0
EXTRACT: note_on channel=9 note=37 velocity=127 time=0
EXTRACT: note_on channel=9 note=42 velocity=127 time=0
EXTRACT: note_on channel=9 note=28 velocity=54 time=0
EXTRACT: note_on channel=8 note=61 velocity=127 time=0
EXTRACT: note_off channel=9 note=62 velocity=127 time=0.0010416666666666667
EXTRACT: note_off channel=9 note=38 velocity=65 time=0.09791666666666667
EXTRACT: note_off channel=9 note=36 velocity=127 time=0.005208333333333333
EXTRACT: note_off channel=9 note=35 velocity=127 time=0
EXTRACT: note_off channel=9 note=75 velocity=60 time=0.014583333333333334
EXTRACT: note_on channel=9 note=75 velocity=58 time=0.00625
EXTRACT: note_off channel=9 note=28 velocity=54 time=0.06458333333333333
EXTRACT: note_off channel=9 note=37 velocity=127 time=0.03958333333333333
EXTRACT: note_off channel=9 note=42 velocity=127 time=0
EXTRACT: note_off channel=9 note=75 velocity=58 time=0.014583333333333334
EXTRACT: note_off channel=5 note=61 velocity=127 time=0.004166666666666667
EXTRACT: note_off channel=8 note=61 velocity=127 time=0
EXTRACT: note_on channel=5 note=61 velocity=127 time=0.0020833333333333333
EXTRACT: note_on channel=9 note=75 velocity=61 time=0
EXTRACT: note_on channel=9 note=38 velocity=65 time=0
EXTRACT: note_on channel=9 note=36 velocity=127 time=0
EXTRACT: note_on channel=9 note=35 velocity=127 time=0
EXTRACT: note_on channel=9 note=28 velocity=54 time=0
EXTRACT: note_on channel=8 note=61 velocity=127 time=0
EXTRACT: note_off channel=9 note=62 velocity=127 time=0.0010416666666666667
EXTRACT: note_off channel=9 note=75 velocity=61 time=0.11770833333333333
EXTRACT: note_off channel=9 note=28 velocity=54 time=0.07083333333333333
EXTRACT: note_off channel=9 note=38 velocity=65 time=0.034375
EXTRACT: note_off channel=9 note=36 velocity=127 time=0.005208333333333333
EXTRACT: note_off channel=9 note=35 velocity=127 time=0
EXTRACT: note_off channel=5 note=61 velocity=127 time=0.01875
EXTRACT: note_off channel=8 note=61 velocity=127 time=0
EXTRACT: note_on channel=5 note=58 velocity=127 time=0.0020833333333333333
EXTRACT: note_on channel=9 note=75 velocity=61 time=0
EXTRACT: note_on channel=9 note=28 velocity=56 time=0
EXTRACT: note_on channel=8 note=58 velocity=127 time=0
EXTRACT: note_off channel=9 note=75 velocity=61 time=0.11875
EXTRACT: note_on channel=9 note=75 velocity=61 time=0.00625
EXTRACT: note_off channel=9 note=28 velocity=56 time=0.06458333333333333
EXTRACT: note_off channel=9 note=75 velocity=61 time=0.05416666666666667
EXTRACT: note_off channel=5 note=58 velocity=127 time=0.004166666666666667
EXTRACT: note_off channel=8 note=58 velocity=127 time=0
EXTRACT: note_on channel=5 note=61 velocity=127 time=0.0020833333333333333
EXTRACT: note_on channel=9 note=75 velocity=61 time=0
EXTRACT: note_on channel=9 note=62 velocity=127 time=0
EXTRACT: note_on channel=9 note=37 velocity=127 time=0
EXTRACT: note_on channel=9 note=42 velocity=127 time=0
EXTRACT: note_on channel=9 note=28 velocity=52 time=0
EXTRACT: note_on channel=8 note=61 velocity=127 time=0
EXTRACT: note_off channel=9 note=75 velocity=61 time=0.11875
EXTRACT: note_off channel=9 note=28 velocity=52 time=0.07083333333333333
EXTRACT: note_off channel=9 note=37 velocity=127 time=0.03958333333333333
EXTRACT: note_off channel=9 note=42 velocity=127 time=0
EXTRACT: note_off channel=5 note=61 velocity=127 time=0.01875
EXTRACT: note_off channel=8 note=61 velocity=127 time=0
EXTRACT: note_on channel=5 note=58 velocity=127 time=0.0020833333333333333
EXTRACT: note_on channel=9 note=75 velocity=61 time=0
EXTRACT: note_on channel=9 note=38 velocity=67 time=0
EXTRACT: note_on channel=9 note=36 velocity=127 time=0
EXTRACT: note_on channel=9 note=35 velocity=127 time=0
EXTRACT: note_on channel=9 note=28 velocity=52 time=0
EXTRACT: note_on channel=8 note=58 velocity=127 time=0
EXTRACT: note_off channel=9 note=62 velocity=127 time=0.0010416666666666667
EXTRACT: note_off channel=9 note=75 velocity=61 time=0.11770833333333333
EXTRACT: note_off channel=9 note=28 velocity=52 time=0.07083333333333333
EXTRACT: note_off channel=9 note=38 velocity=67 time=0.034375
EXTRACT: note_off channel=9 note=36 velocity=127 time=0.005208333333333333
EXTRACT: note_off channel=9 note=35 velocity=127 time=0
EXTRACT: note_off channel=5 note=58 velocity=127 time=0.01875
EXTRACT: note_off channel=8 note=58 velocity=127 time=0
EXTRACT: note_on channel=5 note=65 velocity=127 time=0.0020833333333333333
EXTRACT: note_on channel=9 note=28 velocity=52 time=0
EXTRACT: note_on channel=8 note=65 velocity=127 time=0
EXTRACT: note_off channel=9 note=28 velocity=52 time=0.18958333333333333
EXTRACT: note_off channel=5 note=65 velocity=127 time=0.058333333333333334
EXTRACT: note_off channel=8 note=65 velocity=127 time=0
EXTRACT: note_on channel=5 note=63 velocity=127 time=0.0020833333333333333
EXTRACT: note_on channel=9 note=75 velocity=56 time=0
EXTRACT: note_on channel=9 note=38 velocity=67 time=0
EXTRACT: note_on channel=9 note=36 velocity=127 time=0
EXTRACT: note_on channel=9 note=35 velocity=127 time=0
EXTRACT: note_on channel=9 note=28 velocity=52 time=0
EXTRACT: note_on channel=9 note=43 velocity=43 time=0
EXTRACT: note_on channel=8 note=63 velocity=127 time=0
EXTRACT: note_off channel=9 note=43 velocity=43 time=0.096875
EXTRACT: note_off channel=9 note=75 velocity=56 time=0.021875
EXTRACT: note_on channel=9 note=41 velocity=43 time=0.00625
EXTRACT: note_off channel=9 note=28 velocity=52 time=0.06458333333333333
EXTRACT: note_off channel=9 note=41 velocity=43 time=0.03229166666666666
EXTRACT: note_off channel=9 note=38 velocity=67 time=0.0020833333333333333
EXTRACT: note_off channel=9 note=36 velocity=127 time=0.005208333333333333
EXTRACT: note_off channel=9 note=35 velocity=127 time=0
EXTRACT: note_off channel=5 note=63 velocity=127 time=0.01875
EXTRACT: note_off channel=8 note=63 velocity=127 time=0
EXTRACT: note_on channel=5 note=63 velocity=127 time=0.0020833333333333333
EXTRACT: note_on channel=9 note=62 velocity=127 time=0
EXTRACT: note_on channel=9 note=37 velocity=127 time=0
EXTRACT: note_on channel=9 note=42 velocity=127 time=0
EXTRACT: note_on channel=9 note=28 velocity=52 time=0
EXTRACT: note_on channel=8 note=63 velocity=127 time=0
EXTRACT: note_on channel=9 note=38 velocity=65 time=0.125
EXTRACT: note_on channel=9 note=36 velocity=127 time=0
EXTRACT: note_on channel=9 note=35 velocity=127 time=0
EXTRACT: note_off channel=9 note=28 velocity=52 time=0.06458333333333333
EXTRACT: note_off channel=9 note=37 velocity=127 time=0.03958333333333333
EXTRACT: note_off channel=9 note=42 velocity=127 time=0
EXTRACT: note_off channel=5 note=63 velocity=127 time=0.01875
EXTRACT: note_off channel=8 note=63 velocity=127 time=0
EXTRACT: note_on channel=5 note=61 velocity=127 time=0.0020833333333333333
EXTRACT: note_on channel=9 note=75 velocity=60 time=0
EXTRACT: note_on channel=9 note=62 velocity=127 time=0
EXTRACT: note_on channel=9 note=37 velocity=127 time=0
EXTRACT: note_on channel=9 note=42 velocity=127 time=0
EXTRACT: note_on channel=9 note=28 velocity=54 time=0
EXTRACT: note_on channel=8 note=61 velocity=127 time=0
EXTRACT: note_off channel=9 note=62 velocity=127 time=0.0010416666666666667
EXTRACT: note_off channel=9 note=38 velocity=65 time=0.09791666666666667
EXTRACT: note_off channel=9 note=36 velocity=127 time=0.005208333333333333
EXTRACT: note_off channel=9 note=35 velocity=127 time=0
EXTRACT: note_off channel=9 note=75 velocity=60 time=0.014583333333333334
EXTRACT: note_on channel=9 note=75 velocity=58 time=0.00625
EXTRACT: note_off channel=9 note=28 velocity=54 time=0.06458333333333333
EXTRACT: note_off channel=9 note=37 velocity=127 time=0.03958333333333333
EXTRACT: note_off channel=9 note=42 velocity=127 time=0
EXTRACT: note_off channel=9 note=75 velocity=58 time=0.014583333333333334
EXTRACT: note_off channel=5 note=61 velocity=127 time=0.004166666666666667
EXTRACT: note_off channel=8 note=61 velocity=127 time=0
EXTRACT: note_on channel=5 note=61 velocity=127 time=0.0020833333333333333
EXTRACT: note_on channel=9 note=75 velocity=61 time=0
EXTRACT: note_on channel=9 note=38 velocity=65 time=0
EXTRACT: note_on channel=9 note=36 velocity=127 time=0
EXTRACT: note_on channel=9 note=35 velocity=127 time=0
EXTRACT: note_on channel=9 note=28 velocity=54 time=0
EXTRACT: note_on channel=8 note=61 velocity=127 time=0
EXTRACT: note_off channel=9 note=62 velocity=127 time=0.0010416666666666667
EXTRACT: note_off channel=9 note=75 velocity=61 time=0.11770833333333333
EXTRACT: note_off channel=9 note=28 velocity=54 time=0.07083333333333333
EXTRACT: note_off channel=9 note=38 velocity=65 time=0.034375
EXTRACT: note_off channel=9 note=36 velocity=127 time=0.005208333333333333
EXTRACT: note_off channel=9 note=35 velocity=127 time=0
EXTRACT: note_off channel=5 note=61 velocity=127 time=0.01875
EXTRACT: note_off channel=8 note=61 velocity=127 time=0
EXTRACT: note_on channel=5 note=58 velocity=127 time=0.0020833333333333333
EXTRACT: note_on channel=9 note=75 velocity=61 time=0
EXTRACT: note_on channel=9 note=28 velocity=56 time=0
EXTRACT: note_on channel=8 note=58 velocity=127 time=0
EXTRACT: note_off channel=9 note=75 velocity=61 time=0.11875
EXTRACT: note_on channel=9 note=75 velocity=61 time=0.00625
EXTRACT: note_off channel=9 note=28 velocity=56 time=0.06458333333333333
EXTRACT: note_off channel=9 note=75 velocity=61 time=0.05416666666666667
EXTRACT: note_off channel=5 note=58 velocity=127 time=0.004166666666666667
EXTRACT: note_off channel=8 note=58 velocity=127 time=0
EXTRACT: note_on channel=5 note=61 velocity=127 time=0.0020833333333333333
EXTRACT: note_on channel=9 note=75 velocity=61 time=0
EXTRACT: note_on channel=9 note=62 velocity=127 time=0
EXTRACT: note_on channel=9 note=37 velocity=127 time=0
EXTRACT: note_on channel=9 note=42 velocity=127 time=0
EXTRACT: note_on channel=9 note=28 velocity=52 time=0
EXTRACT: note_on channel=8 note=61 velocity=127 time=0
EXTRACT: note_off channel=9 note=75 velocity=61 time=0.11875
EXTRACT: note_off channel=9 note=28 velocity=52 time=0.07083333333333333
EXTRACT: note_off channel=9 note=37 velocity=127 time=0.03958333333333333
EXTRACT: note_off channel=9 note=42 velocity=127 time=0
EXTRACT: note_off channel=5 note=61 velocity=127 time=0.01875
EXTRACT: note_off channel=8 note=61 velocity=127 time=0
EXTRACT: note_on channel=5 note=58 velocity=127 time=0.0020833333333333333
EXTRACT: note_on channel=9 note=75 velocity=61 time=0
EXTRACT: note_on channel=9 note=38 velocity=67 time=0
EXTRACT: note_on channel=9 note=36 velocity=127 time=0
EXTRACT: note_on channel=9 note=35 velocity=127 time=0
EXTRACT: note_on channel=9 note=28 velocity=52 time=0
EXTRACT: note_on channel=8 note=58 velocity=127 time=0
EXTRACT: note_off channel=9 note=62 velocity=127 time=0.0010416666666666667
EXTRACT: note_off channel=9 note=75 velocity=61 time=0.11770833333333333
EXTRACT: note_off channel=9 note=28 velocity=52 time=0.07083333333333333
EXTRACT: note_off channel=9 note=38 velocity=67 time=0.034375
EXTRACT: note_off channel=9 note=36 velocity=127 time=0.005208333333333333
EXTRACT: note_off channel=9 note=35 velocity=127 time=0
EXTRACT: note_off channel=5 note=58 velocity=127 time=0.01875
EXTRACT: note_off channel=8 note=58 velocity=127 time=0
EXTRACT: note_on channel=5 note=65 velocity=127 time=0.0020833333333333333
EXTRACT: note_on channel=9 note=28 velocity=52 time=0
EXTRACT: note_on channel=8 note=65 velocity=127 time=0
EXTRACT: note_off channel=9 note=28 velocity=52 time=0.18958333333333333
EXTRACT: note_off channel=5 note=65 velocity=127 time=0.058333333333333334
EXTRACT: note_off channel=8 note=65 velocity=127 time=0
EXTRACT: note_on channel=5 note=63 velocity=127 time=0.0020833333333333333
EXTRACT: note_on channel=9 note=75 velocity=56 time=0
EXTRACT: note_on channel=9 note=38 velocity=67 time=0
EXTRACT: note_on channel=9 note=36 velocity=127 time=0
EXTRACT: note_on channel=9 note=35 velocity=127 time=0
EXTRACT: note_on channel=9 note=28 velocity=52 time=0
EXTRACT: note_on channel=9 note=43 velocity=43 time=0
EXTRACT: note_on channel=8 note=63 velocity=127 time=0
EXTRACT: note_off channel=9 note=43 velocity=43 time=0.096875
EXTRACT: note_off channel=9 note=75 velocity=56 time=0.021875
EXTRACT: note_on channel=9 note=41 velocity=43 time=0.00625
EXTRACT: note_off channel=9 note=28 velocity=52 time=0.06458333333333333
EXTRACT: note_off channel=9 note=41 velocity=43 time=0.03229166666666666
EXTRACT: note_off channel=9 note=38 velocity=67 time=0.0020833333333333333
EXTRACT: note_off channel=9 note=36 velocity=127 time=0.005208333333333333
EXTRACT: note_off channel=9 note=35 velocity=127 time=0
EXTRACT: note_off channel=5 note=63 velocity=127 time=0.01875
EXTRACT: note_off channel=8 note=63 velocity=127 time=0
EXTRACT: note_on channel=5 note=63 velocity=127 time=0.0020833333333333333
EXTRACT: note_on channel=9 note=62 velocity=127 time=0
EXTRACT: note_on channel=9 note=37 velocity=127 time=0
EXTRACT: note_on channel=9 note=42 velocity=127 time=0
EXTRACT: note_on channel=9 note=28 velocity=52 time=0
EXTRACT: note_on channel=8 note=63 velocity=127 time=0
EXTRACT: note_on channel=9 note=38 velocity=65 time=0.125
EXTRACT: note_on channel=9 note=36 velocity=127 time=0
EXTRACT: note_on channel=9 note=35 velocity=127 time=0
EXTRACT: note_off channel=9 note=28 velocity=52 time=0.06458333333333333
EXTRACT: note_off channel=9 note=37 velocity=127 time=0.03958333333333333
EXTRACT: note_off channel=9 note=42 velocity=127 time=0
EXTRACT: note_off channel=5 note=63 velocity=127 time=0.01875
EXTRACT: note_off channel=8 note=63 velocity=127 time=0
EXTRACT: note_on channel=5 note=61 velocity=127 time=0.0020833333333333333
EXTRACT: note_on channel=9 note=75 velocity=60 time=0
EXTRACT: note_on channel=9 note=62 velocity=127 time=0
EXTRACT: note_on channel=9 note=37 velocity=127 time=0
EXTRACT: note_on channel=9 note=42 velocity=127 time=0
EXTRACT: note_on channel=9 note=28 velocity=54 time=0
EXTRACT: note_on channel=8 note=61 velocity=127 time=0
EXTRACT: note_off channel=9 note=62 velocity=127 time=0.0010416666666666667
EXTRACT: note_off channel=9 note=38 velocity=65 time=0.09791666666666667
EXTRACT: note_off channel=9 note=36 velocity=127 time=0.005208333333333333
EXTRACT: note_off channel=9 note=35 velocity=127 time=0
EXTRACT: note_off channel=9 note=75 velocity=60 time=0.014583333333333334
EXTRACT: note_on channel=9 note=75 velocity=58 time=0.00625
EXTRACT: note_off channel=9 note=28 velocity=54 time=0.06458333333333333
EXTRACT: note_off channel=9 note=37 velocity=127 time=0.03958333333333333
EXTRACT: note_off channel=9 note=42 velocity=127 time=0
EXTRACT: note_off channel=9 note=75 velocity=58 time=0.014583333333333334
EXTRACT: note_off channel=5 note=61 velocity=127 time=0.004166666666666667
EXTRACT: note_off channel=8 note=61 velocity=127 time=0
EXTRACT: note_on channel=5 note=61 velocity=127 time=0.0020833333333333333
EXTRACT: note_on channel=9 note=75 velocity=61 time=0
EXTRACT: note_on channel=9 note=38 velocity=65 time=0
EXTRACT: note_on channel=9 note=36 velocity=127 time=0
EXTRACT: note_on channel=9 note=35 velocity=127 time=0
EXTRACT: note_on channel=9 note=28 velocity=54 time=0
EXTRACT: note_on channel=7 note=22 velocity=127 time=0
EXTRACT: note_on channel=8 note=61 velocity=127 time=0
EXTRACT: note_off channel=9 note=62 velocity=127 time=0.0010416666666666667
EXTRACT: note_off channel=9 note=75 velocity=61 time=0.11770833333333333
EXTRACT: note_off channel=9 note=28 velocity=54 time=0.07083333333333333
EXTRACT: note_off channel=9 note=38 velocity=65 time=0.034375
EXTRACT: note_off channel=9 note=36 velocity=127 time=0.005208333333333333
EXTRACT: note_off channel=9 note=35 velocity=127 time=0
EXTRACT: note_off channel=5 note=61 velocity=127 time=0.01875
EXTRACT: note_off channel=8 note=61 velocity=127 time=0
EXTRACT: note_on channel=5 note=58 velocity=127 time=0.0020833333333333333
EXTRACT: note_on channel=9 note=75 velocity=61 time=0
EXTRACT: note_on channel=9 note=28 velocity=56 time=0
EXTRACT: note_on channel=8 note=58 velocity=127 time=0
EXTRACT: note_off channel=9 note=75 velocity=61 time=0.11875
EXTRACT: note_on channel=9 note=75 velocity=61 time=0.00625
EXTRACT: note_off channel=9 note=28 velocity=56 time=0.06458333333333333
EXTRACT: note_off channel=9 note=75 velocity=61 time=0.05416666666666667
EXTRACT: note_off channel=5 note=58 velocity=127 time=0.004166666666666667
EXTRACT: note_off channel=8 note=58 velocity=127 time=0
EXTRACT: note_on channel=5 note=61 velocity=127 time=0.0020833333333333333
EXTRACT: note_on channel=9 note=75 velocity=61 time=0
EXTRACT: note_on channel=9 note=62 velocity=127 time=0
EXTRACT: note_on channel=9 note=37 velocity=127 time=0
EXTRACT: note_on channel=9 note=42 velocity=127 time=0
EXTRACT: note_on channel=9 note=28 velocity=52 time=0
EXTRACT: note_on channel=8 note=61 velocity=127 time=0
EXTRACT: note_off channel=7 note=22 velocity=127 time=0.015625
EXTRACT: note_off channel=9 note=75 velocity=61 time=0.103125
EXTRACT: note_off channel=9 note=28 velocity=52 time=0.07083333333333333
EXTRACT: note_off channel=9 note=37 velocity=127 time=0.03958333333333333
EXTRACT: note_off channel=9 note=42 velocity=127 time=0
EXTRACT: note_off channel=5 note=61 velocity=127 time=0.01875
EXTRACT: note_off channel=8 note=61 velocity=127 time=0
EXTRACT: note_on channel=5 note=58 velocity=127 time=0.0020833333333333333
EXTRACT: note_on channel=9 note=75 velocity=61 time=0
EXTRACT: note_on channel=9 note=38 velocity=67 time=0
EXTRACT: note_on channel=9 note=36 velocity=127 time=0
EXTRACT: note_on channel=9 note=35 velocity=127 time=0
EXTRACT: note_on channel=9 note=28 velocity=52 time=0
EXTRACT: note_on channel=8 note=58 velocity=127 time=0
EXTRACT: note_off channel=9 note=62 velocity=127 time=0.0010416666666666667
EXTRACT: note_off channel=9 note=75 velocity=61 time=0.11770833333333333
EXTRACT: note_off channel=9 note=28 velocity=52 time=0.07083333333333333
EXTRACT: note_off channel=9 note=38 velocity=67 time=0.034375
EXTRACT: note_off channel=9 note=36 velocity=127 time=0.005208333333333333
EXTRACT: note_off channel=9 note=35 velocity=127 time=0
EXTRACT: note_off channel=5 note=58 velocity=127 time=0.01875
EXTRACT: note_off channel=8 note=58 velocity=127 time=0
EXTRACT: note_on channel=5 note=65 velocity=127 time=0.0020833333333333333
EXTRACT: note_on channel=9 note=28 velocity=52 time=0
EXTRACT: note_on channel=8 note=65 velocity=127 time=0
EXTRACT: note_off channel=9 note=28 velocity=52 time=0.18958333333333333
EXTRACT: note_off channel=5 note=65 velocity=127 time=0.058333333333333334
EXTRACT: note_off channel=8 note=65 velocity=127 time=0
EXTRACT: note_on channel=5 note=63 velocity=127 time=0.0020833333333333333
EXTRACT: note_on channel=9 note=75 velocity=56 time=0
EXTRACT: note_on channel=9 note=38 velocity=67 time=0
EXTRACT: note_on channel=9 note=36 velocity=127 time=0
EXTRACT: note_on channel=9 note=35 velocity=127 time=0
EXTRACT: note_on channel=9 note=28 velocity=52 time=0
EXTRACT: note_on channel=9 note=43 velocity=43 time=0
EXTRACT: note_on channel=8 note=63 velocity=127 time=0
EXTRACT: note_off channel=9 note=43 velocity=43 time=0.096875
EXTRACT: note_off channel=9 note=75 velocity=56 time=0.021875
EXTRACT: note_on channel=9 note=41 velocity=43 time=0.00625
EXTRACT: note_off channel=9 note=28 velocity=52 time=0.06458333333333333
EXTRACT: note_off channel=9 note=41 velocity=43 time=0.03229166666666666
EXTRACT: note_off channel=9 note=38 velocity=67 time=0.0020833333333333333
EXTRACT: note_off channel=9 note=36 velocity=127 time=0.005208333333333333
EXTRACT: note_off channel=9 note=35 velocity=127 time=0
EXTRACT: note_off channel=5 note=63 velocity=127 time=0.01875
EXTRACT: note_off channel=8 note=63 velocity=127 time=0
EXTRACT: note_on channel=5 note=63 velocity=127 time=0.0020833333333333333
EXTRACT: note_on channel=9 note=62 velocity=127 time=0
EXTRACT: note_on channel=9 note=37 velocity=127 time=0
EXTRACT: note_on channel=9 note=42 velocity=127 time=0
EXTRACT: note_on channel=9 note=28 velocity=52 time=0
EXTRACT: note_on channel=8 note=63 velocity=127 time=0
EXTRACT: note_on channel=9 note=38 velocity=65 time=0.125
EXTRACT: note_on channel=9 note=36 velocity=127 time=0
EXTRACT: note_on channel=9 note=35 velocity=127 time=0
EXTRACT: note_off channel=9 note=28 velocity=52 time=0.06458333333333333
EXTRACT: note_off channel=9 note=37 velocity=127 time=0.03958333333333333
EXTRACT: note_off channel=9 note=42 velocity=127 time=0
EXTRACT: note_off channel=5 note=63 velocity=127 time=0.01875
EXTRACT: note_off channel=8 note=63 velocity=127 time=0
EXTRACT: note_on channel=5 note=61 velocity=127 time=0.0020833333333333333
EXTRACT: note_on channel=9 note=75 velocity=60 time=0
EXTRACT: note_on channel=9 note=62 velocity=127 time=0
EXTRACT: note_on channel=9 note=37 velocity=127 time=0
EXTRACT: note_on channel=9 note=42 velocity=127 time=0
EXTRACT: note_on channel=9 note=28 velocity=54 time=0
EXTRACT: note_on channel=8 note=61 velocity=127 time=0
EXTRACT: note_off channel=9 note=62 velocity=127 time=0.0010416666666666667
EXTRACT: note_off channel=9 note=38 velocity=65 time=0.09791666666666667
EXTRACT: note_off channel=9 note=36 velocity=127 time=0.005208333333333333
EXTRACT: note_off channel=9 note=35 velocity=127 time=0
EXTRACT: note_off channel=9 note=75 velocity=60 time=0.014583333333333334
EXTRACT: note_on channel=9 note=75 velocity=58 time=0.00625
EXTRACT: note_off channel=9 note=28 velocity=54 time=0.06458333333333333
EXTRACT: note_off channel=9 note=37 velocity=127 time=0.03958333333333333
EXTRACT: note_off channel=9 note=42 velocity=127 time=0
EXTRACT: note_off channel=9 note=75 velocity=58 time=0.014583333333333334
EXTRACT: note_off channel=5 note=61 velocity=127 time=0.004166666666666667
EXTRACT: note_off channel=8 note=61 velocity=127 time=0
EXTRACT: note_on channel=5 note=61 velocity=127 time=0.0020833333333333333
EXTRACT: note_on channel=9 note=75 velocity=61 time=0
EXTRACT: note_on channel=9 note=38 velocity=65 time=0
EXTRACT: note_on channel=9 note=28 velocity=54 time=0
EXTRACT: note_on channel=9 note=35 velocity=127 time=0
EXTRACT: note_on channel=9 note=36 velocity=127 time=0
EXTRACT: note_on channel=8 note=61 velocity=127 time=0
EXTRACT: note_off channel=9 note=62 velocity=127 time=0.0010416666666666667
EXTRACT: note_off channel=9 note=75 velocity=61 time=0.11770833333333333
EXTRACT: note_off channel=9 note=28 velocity=54 time=0.07083333333333333
EXTRACT: note_off channel=9 note=38 velocity=65 time=0.034375
EXTRACT: note_off channel=9 note=35 velocity=127 time=0.005208333333333333
EXTRACT: note_off channel=9 note=36 velocity=127 time=0
EXTRACT: note_off channel=5 note=61 velocity=127 time=0.01875
EXTRACT: note_off channel=8 note=61 velocity=127 time=0
EXTRACT: note_on channel=5 note=58 velocity=127 time=0.0020833333333333333
EXTRACT: note_on channel=9 note=75 velocity=61 time=0
EXTRACT: note_on channel=9 note=28 velocity=56 time=0
EXTRACT: note_on channel=8 note=58 velocity=127 time=0
EXTRACT: note_off channel=9 note=75 velocity=61 time=0.11875
EXTRACT: note_on channel=9 note=75 velocity=61 time=0.00625
EXTRACT: note_off channel=9 note=28 velocity=56 time=0.06458333333333333
EXTRACT: note_off channel=9 note=75 velocity=61 time=0.05416666666666667
EXTRACT: note_off channel=5 note=58 velocity=127 time=0.004166666666666667
EXTRACT: note_off channel=8 note=58 velocity=127 time=0
EXTRACT: note_on channel=5 note=61 velocity=127 time=0.0020833333333333333
EXTRACT: note_on channel=9 note=62 velocity=127 time=0
EXTRACT: note_on channel=9 note=75 velocity=61 time=0
EXTRACT: note_on channel=9 note=28 velocity=52 time=0
EXTRACT: note_on channel=9 note=42 velocity=127 time=0
EXTRACT: note_on channel=9 note=37 velocity=127 time=0
EXTRACT: note_on channel=8 note=61 velocity=127 time=0
EXTRACT: note_off channel=9 note=75 velocity=61 time=0.11875
EXTRACT: note_off channel=9 note=28 velocity=52 time=0.07083333333333333
EXTRACT: note_off channel=9 note=42 velocity=127 time=0.03958333333333333
EXTRACT: note_off channel=9 note=37 velocity=127 time=0
EXTRACT: note_off channel=5 note=61 velocity=127 time=0.01875
EXTRACT: note_off channel=8 note=61 velocity=127 time=0
EXTRACT: note_on channel=5 note=58 velocity=127 time=0.0020833333333333333
EXTRACT: note_on channel=9 note=75 velocity=61 time=0
EXTRACT: note_on channel=9 note=38 velocity=67 time=0
EXTRACT: note_on channel=9 note=28 velocity=52 time=0
EXTRACT: note_on channel=9 note=35 velocity=127 time=0
EXTRACT: note_on channel=9 note=36 velocity=127 time=0
EXTRACT: note_on channel=8 note=58 velocity=127 time=0
EXTRACT: note_off channel=9 note=62 velocity=127 time=0.0010416666666666667
EXTRACT: note_off channel=9 note=75 velocity=61 time=0.11770833333333333
EXTRACT: note_off channel=9 note=28 velocity=52 time=0.07083333333333333
EXTRACT: note_off channel=9 note=38 velocity=67 time=0.034375
EXTRACT: note_off channel=9 note=35 velocity=127 time=0.005208333333333333
EXTRACT: note_off channel=9 note=36 velocity=127 time=0
EXTRACT: note_off channel=5 note=58 velocity=127 time=0.01875
EXTRACT: note_off channel=8 note=58 velocity=127 time=0
EXTRACT: note_on channel=5 note=65 velocity=127 time=0.0020833333333333333
EXTRACT: note_on channel=9 note=28 velocity=52 time=0
EXTRACT: note_on channel=8 note=65 velocity=127 time=0
EXTRACT: note_off channel=9 note=28 velocity=52 time=0.18958333333333333
EXTRACT: note_off channel=5 note=65 velocity=127 time=0.058333333333333334
EXTRACT: note_off channel=8 note=65 velocity=127 time=0
EXTRACT: note_on channel=5 note=63 velocity=127 time=0.0020833333333333333
EXTRACT: note_on channel=9 note=75 velocity=56 time=0
EXTRACT: note_on channel=9 note=38 velocity=67 time=0
EXTRACT: note_on channel=9 note=43 velocity=43 time=0
EXTRACT: note_on channel=9 note=28 velocity=52 time=0
EXTRACT: note_on channel=9 note=35 velocity=127 time=0
EXTRACT: note_on channel=9 note=36 velocity=127 time=0
EXTRACT: note_on channel=8 note=63 velocity=127 time=0
EXTRACT: note_off channel=9 note=43 velocity=43 time=0.096875
EXTRACT: note_off channel=9 note=75 velocity=56 time=0.021875
EXTRACT: note_on channel=9 note=41 velocity=43 time=0.00625
EXTRACT: note_off channel=9 note=28 velocity=52 time=0.06458333333333333
EXTRACT: note_off channel=9 note=41 velocity=43 time=0.03229166666666666
EXTRACT: note_off channel=9 note=38 velocity=67 time=0.0020833333333333333
EXTRACT: note_off channel=9 note=35 velocity=127 time=0.005208333333333333
EXTRACT: note_off channel=9 note=36 velocity=127 time=0
EXTRACT: note_off channel=5 note=63 velocity=127 time=0.01875
EXTRACT: note_off channel=8 note=63 velocity=127 time=0
EXTRACT: note_on channel=5 note=63 velocity=127 time=0.0020833333333333333
EXTRACT: note_on channel=8 note=63 velocity=127 time=0
EXTRACT: note_off channel=5 note=63 velocity=127 time=0.24791666666666667
EXTRACT: note_off channel=8 note=63 velocity=127 time=0
EXTRACT: note_on channel=5 note=61 velocity=127 time=0.0020833333333333333
EXTRACT: note_on channel=8 note=61 velocity=127 time=0
EXTRACT: note_off channel=5 note=61 velocity=127 time=0.24791666666666667
EXTRACT: note_off channel=8 note=61 velocity=127 time=0
EXTRACT: note_on channel=5 note=61 velocity=127 time=0.0020833333333333333
EXTRACT: note_on channel=9 note=75 velocity=61 time=0
EXTRACT: note_on channel=9 note=38 velocity=65 time=0
EXTRACT: note_on channel=9 note=28 velocity=54 time=0
EXTRACT: note_on channel=9 note=35 velocity=127 time=0
EXTRACT: note_on channel=9 note=36 velocity=127 time=0
EXTRACT: note_on channel=8 note=61 velocity=127 time=0
EXTRACT: note_off channel=9 note=75 velocity=61 time=0.11875
EXTRACT: note_off channel=9 note=28 velocity=54 time=0.07083333333333333
EXTRACT: note_off channel=9 note=38 velocity=65 time=0.034375
EXTRACT: note_off channel=9 note=35 velocity=127 time=0.005208333333333333
EXTRACT: note_off channel=9 note=36 velocity=127 time=0
EXTRACT: note_off channel=5 note=61 velocity=127 time=0.01875
EXTRACT: note_off channel=8 note=61 velocity=127 time=0
EXTRACT: note_on channel=5 note=58 velocity=127 time=0.0020833333333333333
EXTRACT: note_on channel=9 note=75 velocity=61 time=0
EXTRACT: note_on channel=9 note=28 velocity=56 time=0
EXTRACT: note_on channel=8 note=58 velocity=127 time=0
EXTRACT: note_off channel=9 note=75 velocity=61 time=0.11875
EXTRACT: note_on channel=9 note=75 velocity=61 time=0.00625
EXTRACT: note_off channel=9 note=28 velocity=56 time=0.06458333333333333
EXTRACT: note_off channel=9 note=75 velocity=61 time=0.05416666666666667
EXTRACT: note_off channel=5 note=58 velocity=127 time=0.004166666666666667
EXTRACT: note_off channel=8 note=58 velocity=127 time=0
EXTRACT: note_on channel=5 note=61 velocity=127 time=0.0020833333333333333
EXTRACT: note_on channel=9 note=62 velocity=127 time=0
EXTRACT: note_on channel=9 note=75 velocity=61 time=0
EXTRACT: note_on channel=9 note=28 velocity=52 time=0
EXTRACT: note_on channel=9 note=42 velocity=127 time=0
EXTRACT: note_on channel=9 note=37 velocity=127 time=0
EXTRACT: note_on channel=8 note=61 velocity=127 time=0
EXTRACT: note_off channel=9 note=75 velocity=61 time=0.11875
EXTRACT: note_off channel=9 note=28 velocity=52 time=0.07083333333333333
EXTRACT: note_off channel=9 note=42 velocity=127 time=0.03958333333333333
EXTRACT: note_off channel=9 note=37 velocity=127 time=0
EXTRACT: note_off channel=5 note=61 velocity=127 time=0.01875
EXTRACT: note_off channel=8 note=61 velocity=127 time=0
EXTRACT: note_on channel=5 note=58 velocity=127 time=0.0020833333333333333
EXTRACT: note_on channel=9 note=75 velocity=61 time=0
EXTRACT: note_on channel=9 note=38 velocity=67 time=0
EXTRACT: note_on channel=9 note=28 velocity=52 time=0
EXTRACT: note_on channel=9 note=35 velocity=127 time=0
EXTRACT: note_on channel=9 note=36 velocity=127 time=0
EXTRACT: note_on channel=8 note=58 velocity=127 time=0
EXTRACT: note_off channel=9 note=62 velocity=127 time=0.0010416666666666667
EXTRACT: note_off channel=9 note=75 velocity=61 time=0.11770833333333333
EXTRACT: note_off channel=9 note=28 velocity=52 time=0.07083333333333333
EXTRACT: note_off channel=9 note=38 velocity=67 time=0.034375
EXTRACT: note_off channel=9 note=35 velocity=127 time=0.005208333333333333
EXTRACT: note_off channel=9 note=36 velocity=127 time=0
EXTRACT: note_off channel=5 note=58 velocity=127 time=0.01875
EXTRACT: note_off channel=8 note=58 velocity=127 time=0
EXTRACT: note_on channel=5 note=65 velocity=127 time=0.0020833333333333333
EXTRACT: note_on channel=9 note=28 velocity=52 time=0
EXTRACT: note_on channel=8 note=65 velocity=127 time=0
EXTRACT: note_off channel=9 note=28 velocity=52 time=0.18958333333333333
EXTRACT: note_off channel=5 note=65 velocity=127 time=0.058333333333333334
EXTRACT: note_off channel=8 note=65 velocity=127 time=0
EXTRACT: note_on channel=5 note=63 velocity=127 time=0.0020833333333333333
EXTRACT: note_on channel=9 note=75 velocity=56 time=0
EXTRACT: note_on channel=9 note=38 velocity=67 time=0
EXTRACT: note_on channel=9 note=43 velocity=43 time=0
EXTRACT: note_on channel=9 note=28 velocity=52 time=0
EXTRACT: note_on channel=9 note=35 velocity=127 time=0
EXTRACT: note_on channel=9 note=36 velocity=127 time=0
EXTRACT: note_on channel=8 note=63 velocity=127 time=0
EXTRACT: note_off channel=9 note=43 velocity=43 time=0.096875
EXTRACT: note_off channel=9 note=75 velocity=56 time=0.021875
EXTRACT: note_on channel=9 note=41 velocity=43 time=0.00625
EXTRACT: note_off channel=9 note=28 velocity=52 time=0.06458333333333333
EXTRACT: note_off channel=9 note=41 velocity=43 time=0.03229166666666666
EXTRACT: note_off channel=9 note=38 velocity=67 time=0.0020833333333333333
EXTRACT: note_off channel=9 note=35 velocity=127 time=0.005208333333333333
EXTRACT: note_off channel=9 note=36 velocity=127 time=0
EXTRACT: note_off channel=5 note=63 velocity=127 time=0.01875
EXTRACT: note_off channel=8 note=63 velocity=127 time=0
EXTRACT: note_on channel=5 note=61 velocity=127 time=0.5020833333333333
EXTRACT: note_on channel=9 note=75 velocity=61 time=0
EXTRACT: note_on channel=9 note=38 velocity=65 time=0
EXTRACT: note_on channel=9 note=28 velocity=54 time=0
EXTRACT: note_on channel=9 note=35 velocity=127 time=0
EXTRACT: note_on channel=9 note=36 velocity=127 time=0
EXTRACT: note_on channel=8 note=61 velocity=127 time=0
EXTRACT: note_off channel=9 note=75 velocity=61 time=0.11875
EXTRACT: note_off channel=9 note=28 velocity=54 time=0.07083333333333333
EXTRACT: note_off channel=9 note=38 velocity=65 time=0.034375
EXTRACT: note_off channel=9 note=35 velocity=127 time=0.005208333333333333
EXTRACT: note_off channel=9 note=36 velocity=127 time=0
EXTRACT: note_off channel=5 note=61 velocity=127 time=0.01875
EXTRACT: note_off channel=8 note=61 velocity=127 time=0
EXTRACT: note_on channel=5 note=58 velocity=127 time=0.0020833333333333333
EXTRACT: note_on channel=9 note=75 velocity=61 time=0
EXTRACT: note_on channel=9 note=28 velocity=56 time=0
EXTRACT: note_on channel=8 note=58 velocity=127 time=0
EXTRACT: note_off channel=9 note=75 velocity=61 time=0.11875
EXTRACT: note_on channel=9 note=75 velocity=61 time=0.00625
EXTRACT: note_off channel=9 note=28 velocity=56 time=0.06458333333333333
EXTRACT: note_off channel=9 note=75 velocity=61 time=0.05416666666666667
EXTRACT: note_off channel=5 note=58 velocity=127 time=0.004166666666666667
EXTRACT: note_off channel=8 note=58 velocity=127 time=0
EXTRACT: note_on channel=5 note=61 velocity=127 time=0.0020833333333333333
EXTRACT: note_on channel=9 note=62 velocity=127 time=0
EXTRACT: note_on channel=9 note=75 velocity=61 time=0
EXTRACT: note_on channel=9 note=28 velocity=52 time=0
EXTRACT: note_on channel=9 note=42 velocity=127 time=0
EXTRACT: note_on channel=9 note=37 velocity=127 time=0
EXTRACT: note_on channel=8 note=61 velocity=127 time=0
EXTRACT: note_off channel=9 note=75 velocity=61 time=0.11875
EXTRACT: note_off channel=9 note=28 velocity=52 time=0.07083333333333333
EXTRACT: note_off channel=9 note=42 velocity=127 time=0.03958333333333333
EXTRACT: note_off channel=9 note=37 velocity=127 time=0
EXTRACT: note_off channel=5 note=61 velocity=127 time=0.01875
EXTRACT: note_off channel=8 note=61 velocity=127 time=0
EXTRACT: note_on channel=5 note=58 velocity=127 time=0.0020833333333333333
EXTRACT: note_on channel=9 note=75 velocity=61 time=0
EXTRACT: note_on channel=9 note=38 velocity=67 time=0
EXTRACT: note_on channel=9 note=28 velocity=52 time=0
EXTRACT: note_on channel=9 note=35 velocity=127 time=0
EXTRACT: note_on channel=9 note=36 velocity=127 time=0
EXTRACT: note_on channel=8 note=58 velocity=127 time=0
EXTRACT: note_off channel=9 note=62 velocity=127 time=0.0010416666666666667
EXTRACT: note_off channel=9 note=75 velocity=61 time=0.11770833333333333
EXTRACT: note_off channel=9 note=28 velocity=52 time=0.07083333333333333
EXTRACT: note_off channel=9 note=38 velocity=67 time=0.034375
EXTRACT: note_off channel=9 note=35 velocity=127 time=0.005208333333333333
EXTRACT: note_off channel=9 note=36 velocity=127 time=0
EXTRACT: note_off channel=5 note=58 velocity=127 time=0.01875
EXTRACT: note_off channel=8 note=58 velocity=127 time=0
EXTRACT: note_on channel=5 note=65 velocity=127 time=0.0020833333333333333
EXTRACT: note_on channel=9 note=28 velocity=52 time=0
EXTRACT: note_on channel=8 note=65 velocity=127 time=0
EXTRACT: note_off channel=9 note=28 velocity=52 time=0.18958333333333333
EXTRACT: note_off channel=5 note=65 velocity=127 time=0.058333333333333334
EXTRACT: note_off channel=8 note=65 velocity=127 time=0
EXTRACT: note_on channel=5 note=63 velocity=127 time=0.0020833333333333333
EXTRACT: note_on channel=9 note=75 velocity=56 time=0
EXTRACT: note_on channel=9 note=38 velocity=67 time=0
EXTRACT: note_on channel=9 note=43 velocity=43 time=0
EXTRACT: note_on channel=9 note=28 velocity=52 time=0
EXTRACT: note_on channel=9 note=35 velocity=127 time=0
EXTRACT: note_on channel=9 note=36 velocity=127 time=0
EXTRACT: note_on channel=8 note=63 velocity=127 time=0
EXTRACT: note_off channel=9 note=43 velocity=43 time=0.096875
EXTRACT: note_off channel=9 note=75 velocity=56 time=0.021875
EXTRACT: note_on channel=9 note=41 velocity=43 time=0.00625
EXTRACT: note_off channel=9 note=28 velocity=52 time=0.06458333333333333
EXTRACT: note_off channel=9 note=41 velocity=43 time=0.03229166666666666
EXTRACT: note_off channel=9 note=38 velocity=67 time=0.0020833333333333333
EXTRACT: note_off channel=9 note=35 velocity=127 time=0.005208333333333333
EXTRACT: note_off channel=9 note=36 velocity=127 time=0
EXTRACT: note_off channel=5 note=63 velocity=127 time=0.01875
EXTRACT: note_off channel=8 note=63 velocity=127 time=0
EXTRACT: note_on channel=5 note=63 velocity=127 time=0.0020833333333333333
EXTRACT: note_on channel=9 note=62 velocity=127 time=0
EXTRACT: note_on channel=9 note=28 velocity=52 time=0
EXTRACT: note_on channel=9 note=42 velocity=127 time=0
EXTRACT: note_on channel=9 note=37 velocity=127 time=0
EXTRACT: note_on channel=8 note=63 velocity=127 time=0
EXTRACT: note_on channel=9 note=38 velocity=65 time=0.125
EXTRACT: note_on channel=9 note=35 velocity=127 time=0
EXTRACT: note_on channel=9 note=36 velocity=127 time=0
EXTRACT: note_off channel=9 note=28 velocity=52 time=0.06458333333333333
EXTRACT: note_off channel=9 note=42 velocity=127 time=0.03958333333333333
EXTRACT: note_off channel=9 note=37 velocity=127 time=0
EXTRACT: note_off channel=5 note=63 velocity=127 time=0.01875
EXTRACT: note_off channel=8 note=63 velocity=127 time=0
EXTRACT: note_on channel=5 note=61 velocity=127 time=0.0020833333333333333
EXTRACT: note_on channel=9 note=62 velocity=127 time=0
EXTRACT: note_on channel=9 note=75 velocity=60 time=0
EXTRACT: note_on channel=9 note=28 velocity=54 time=0
EXTRACT: note_on channel=9 note=42 velocity=127 time=0
EXTRACT: note_on channel=9 note=37 velocity=127 time=0
EXTRACT: note_on channel=8 note=61 velocity=127 time=0
EXTRACT: note_off channel=9 note=62 velocity=127 time=0.0010416666666666667
EXTRACT: note_off channel=9 note=38 velocity=65 time=0.09791666666666667
EXTRACT: note_off channel=9 note=35 velocity=127 time=0.005208333333333333
EXTRACT: note_off channel=9 note=36 velocity=127 time=0
EXTRACT: note_off channel=9 note=75 velocity=60 time=0.014583333333333334
EXTRACT: note_on channel=9 note=75 velocity=58 time=0.00625
EXTRACT: note_off channel=9 note=28 velocity=54 time=0.06458333333333333
EXTRACT: note_off channel=9 note=42 velocity=127 time=0.03958333333333333
EXTRACT: note_off channel=9 note=37 velocity=127 time=0
EXTRACT: note_off channel=9 note=75 velocity=58 time=0.014583333333333334
EXTRACT: note_off channel=5 note=61 velocity=127 time=0.004166666666666667
EXTRACT: note_off channel=8 note=61 velocity=127 time=0
EXTRACT: note_on channel=5 note=61 velocity=127 time=0.0020833333333333333
EXTRACT: note_on channel=9 note=75 velocity=61 time=0
EXTRACT: note_on channel=9 note=38 velocity=65 time=0
EXTRACT: note_on channel=9 note=36 velocity=127 time=0
EXTRACT: note_on channel=9 note=35 velocity=127 time=0
EXTRACT: note_on channel=9 note=28 velocity=54 time=0
EXTRACT: note_on channel=7 note=22 velocity=127 time=0
EXTRACT: note_on channel=8 note=61 velocity=127 time=0
EXTRACT: note_off channel=9 note=62 velocity=127 time=0.0010416666666666667
EXTRACT: note_off channel=9 note=75 velocity=61 time=0.11770833333333333
EXTRACT: note_off channel=9 note=28 velocity=54 time=0.07083333333333333
EXTRACT: note_off channel=9 note=38 velocity=65 time=0.034375
EXTRACT: note_off channel=9 note=36 velocity=127 time=0.005208333333333333
EXTRACT: note_off channel=9 note=35 velocity=127 time=0
EXTRACT: note_off channel=5 note=61 velocity=127 time=0.01875
EXTRACT: note_off channel=8 note=61 velocity=127 time=0
EXTRACT: note_on channel=5 note=58 velocity=127 time=0.0020833333333333333
EXTRACT: note_on channel=9 note=75 velocity=61 time=0
EXTRACT: note_on channel=9 note=28 velocity=56 time=0
EXTRACT: note_on channel=8 note=58 velocity=127 time=0
EXTRACT: note_off channel=9 note=75 velocity=61 time=0.11875
EXTRACT: note_on channel=9 note=75 velocity=61 time=0.00625
EXTRACT: note_off channel=9 note=28 velocity=56 time=0.06458333333333333
EXTRACT: note_off channel=9 note=75 velocity=61 time=0.05416666666666667
EXTRACT: note_off channel=5 note=58 velocity=127 time=0.004166666666666667
EXTRACT: note_off channel=8 note=58 velocity=127 time=0
EXTRACT: note_on channel=5 note=61 velocity=127 time=0.0020833333333333333
EXTRACT: note_on channel=9 note=75 velocity=61 time=0
EXTRACT: note_on channel=9 note=62 velocity=127 time=0
EXTRACT: note_on channel=9 note=37 velocity=127 time=0
EXTRACT: note_on channel=9 note=42 velocity=127 time=0
EXTRACT: note_on channel=9 note=28 velocity=52 time=0
EXTRACT: note_on channel=8 note=61 velocity=127 time=0
EXTRACT: note_off channel=7 note=22 velocity=127 time=0.015625
EXTRACT: note_off channel=9 note=75 velocity=61 time=0.103125
EXTRACT: note_off channel=9 note=28 velocity=52 time=0.07083333333333333
EXTRACT: note_off channel=9 note=37 velocity=127 time=0.03958333333333333
EXTRACT: note_off channel=9 note=42 velocity=127 time=0
EXTRACT: note_off channel=5 note=61 velocity=127 time=0.01875
EXTRACT: note_off channel=8 note=61 velocity=127 time=0
EXTRACT: note_on channel=5 note=58 velocity=127 time=0.0020833333333333333
EXTRACT: note_on channel=9 note=75 velocity=61 time=0
EXTRACT: note_on channel=9 note=38 velocity=67 time=0
EXTRACT: note_on channel=9 note=36 velocity=127 time=0
EXTRACT: note_on channel=9 note=35 velocity=127 time=0
EXTRACT: note_on channel=9 note=28 velocity=52 time=0
EXTRACT: note_on channel=8 note=58 velocity=127 time=0
EXTRACT: note_off channel=9 note=62 velocity=127 time=0.0010416666666666667
EXTRACT: note_off channel=9 note=75 velocity=61 time=0.11770833333333333
EXTRACT: note_off channel=9 note=28 velocity=52 time=0.07083333333333333
EXTRACT: note_off channel=9 note=38 velocity=67 time=0.034375
EXTRACT: note_off channel=9 note=36 velocity=127 time=0.005208333333333333
EXTRACT: note_off channel=9 note=35 velocity=127 time=0
EXTRACT: note_off channel=5 note=58 velocity=127 time=0.01875
EXTRACT: note_off channel=8 note=58 velocity=127 time=0
EXTRACT: note_on channel=5 note=65 velocity=127 time=0.0020833333333333333
EXTRACT: note_on channel=9 note=28 velocity=52 time=0
EXTRACT: note_on channel=8 note=65 velocity=127 time=0
EXTRACT: note_off channel=9 note=28 velocity=52 time=0.18958333333333333
EXTRACT: note_off channel=5 note=65 velocity=127 time=0.058333333333333334
EXTRACT: note_off channel=8 note=65 velocity=127 time=0
EXTRACT: note_on channel=5 note=63 velocity=127 time=0.0020833333333333333
EXTRACT: note_on channel=9 note=75 velocity=56 time=0
EXTRACT: note_on channel=9 note=38 velocity=67 time=0
EXTRACT: note_on channel=9 note=36 velocity=127 time=0
EXTRACT: note_on channel=9 note=35 velocity=127 time=0
EXTRACT: note_on channel=9 note=28 velocity=52 time=0
EXTRACT: note_on channel=9 note=43 velocity=43 time=0
EXTRACT: note_on channel=8 note=63 velocity=127 time=0
EXTRACT: note_off channel=9 note=43 velocity=43 time=0.096875
EXTRACT: note_off channel=9 note=75 velocity=56 time=0.021875
EXTRACT: note_on channel=9 note=41 velocity=43 time=0.00625
EXTRACT: note_off channel=9 note=28 velocity=52 time=0.06458333333333333
EXTRACT: note_off channel=9 note=41 velocity=43 time=0.03229166666666666
EXTRACT: note_off channel=9 note=38 velocity=67 time=0.0020833333333333333
EXTRACT: note_off channel=9 note=36 velocity=127 time=0.005208333333333333
EXTRACT: note_off channel=9 note=35 velocity=127 time=0
EXTRACT: note_off channel=5 note=63 velocity=127 time=0.01875
EXTRACT: note_off channel=8 note=63 velocity=127 time=0
EXTRACT: note_on channel=5 note=63 velocity=127 time=0.0020833333333333333
EXTRACT: note_on channel=9 note=62 velocity=127 time=0
EXTRACT: note_on channel=9 note=37 velocity=127 time=0
EXTRACT: note_on channel=9 note=42 velocity=127 time=0
EXTRACT: note_on channel=9 note=28 velocity=52 time=0
EXTRACT: note_on channel=8 note=63 velocity=127 time=0
EXTRACT: note_on channel=9 note=38 velocity=65 time=0.125
EXTRACT: note_on channel=9 note=36 velocity=127 time=0
EXTRACT: note_on channel=9 note=35 velocity=127 time=0
EXTRACT: note_off channel=9 note=28 velocity=52 time=0.06458333333333333
EXTRACT: note_off channel=9 note=37 velocity=127 time=0.03958333333333333
EXTRACT: note_off channel=9 note=42 velocity=127 time=0
EXTRACT: note_off channel=5 note=63 velocity=127 time=0.01875
EXTRACT: note_off channel=8 note=63 velocity=127 time=0
EXTRACT: note_on channel=5 note=61 velocity=127 time=0.0020833333333333333
EXTRACT: note_on channel=9 note=75 velocity=60 time=0
EXTRACT: note_on channel=9 note=62 velocity=127 time=0
EXTRACT: note_on channel=9 note=37 velocity=127 time=0
EXTRACT: note_on channel=9 note=42 velocity=127 time=0
EXTRACT: note_on channel=9 note=28 velocity=54 time=0
EXTRACT: note_on channel=8 note=61 velocity=127 time=0
EXTRACT: note_off channel=9 note=62 velocity=127 time=0.0010416666666666667
EXTRACT: note_off channel=9 note=38 velocity=65 time=0.09791666666666667
EXTRACT: note_off channel=9 note=36 velocity=127 time=0.005208333333333333
EXTRACT: note_off channel=9 note=35 velocity=127 time=0
EXTRACT: note_off channel=9 note=75 velocity=60 time=0.014583333333333334
EXTRACT: note_on channel=9 note=75 velocity=58 time=0.00625
EXTRACT: note_off channel=9 note=28 velocity=54 time=0.06458333333333333
EXTRACT: note_off channel=9 note=37 velocity=127 time=0.03958333333333333
EXTRACT: note_off channel=9 note=42 velocity=127 time=0
EXTRACT: note_off channel=9 note=75 velocity=58 time=0.014583333333333334
EXTRACT: note_off channel=5 note=61 velocity=127 time=0.004166666666666667
EXTRACT: note_off channel=8 note=61 velocity=127 time=0
EXTRACT: note_on channel=5 note=61 velocity=127 time=0.0020833333333333333
EXTRACT: note_on channel=9 note=75 velocity=61 time=0
EXTRACT: note_on channel=9 note=38 velocity=65 time=0
EXTRACT: note_on channel=9 note=28 velocity=54 time=0
EXTRACT: note_on channel=9 note=35 velocity=127 time=0
EXTRACT: note_on channel=9 note=36 velocity=127 time=0
EXTRACT: note_on channel=8 note=61 velocity=127 time=0
EXTRACT: note_off channel=9 note=62 velocity=127 time=0.0010416666666666667
EXTRACT: note_off channel=9 note=75 velocity=61 time=0.11770833333333333
EXTRACT: note_off channel=9 note=28 velocity=54 time=0.07083333333333333
EXTRACT: note_off channel=9 note=38 velocity=65 time=0.034375
EXTRACT: note_off channel=9 note=35 velocity=127 time=0.005208333333333333
EXTRACT: note_off channel=9 note=36 velocity=127 time=0
EXTRACT: note_off channel=5 note=61 velocity=127 time=0.01875
EXTRACT: note_off channel=8 note=61 velocity=127 time=0
EXTRACT: note_on channel=5 note=58 velocity=127 time=0.0020833333333333333
EXTRACT: note_on channel=9 note=75 velocity=61 time=0
EXTRACT: note_on channel=9 note=28 velocity=56 time=0
EXTRACT: note_on channel=8 note=58 velocity=127 time=0
EXTRACT: note_off channel=9 note=75 velocity=61 time=0.11875
EXTRACT: note_on channel=9 note=75 velocity=61 time=0.00625
EXTRACT: note_off channel=9 note=28 velocity=56 time=0.06458333333333333
EXTRACT: note_off channel=9 note=75 velocity=61 time=0.05416666666666667
EXTRACT: note_off channel=5 note=58 velocity=127 time=0.004166666666666667
EXTRACT: note_off channel=8 note=58 velocity=127 time=0
EXTRACT: note_on channel=5 note=61 velocity=127 time=0.0020833333333333333
EXTRACT: note_on channel=9 note=62 velocity=127 time=0
EXTRACT: note_on channel=9 note=75 velocity=61 time=0
EXTRACT: note_on channel=9 note=28 velocity=52 time=0
EXTRACT: note_on channel=9 note=42 velocity=127 time=0
EXTRACT: note_on channel=9 note=37 velocity=127 time=0
EXTRACT: note_on channel=8 note=61 velocity=127 time=0
EXTRACT: note_off channel=9 note=75 velocity=61 time=0.11875
EXTRACT: note_off channel=9 note=28 velocity=52 time=0.07083333333333333
EXTRACT: note_off channel=9 note=42 velocity=127 time=0.03958333333333333
EXTRACT: note_off channel=9 note=37 velocity=127 time=0
EXTRACT: note_off channel=5 note=61 velocity=127 time=0.01875
EXTRACT: note_off channel=8 note=61 velocity=127 time=0
EXTRACT: note_on channel=5 note=58 velocity=127 time=0.0020833333333333333
EXTRACT: note_on channel=9 note=75 velocity=61 time=0
EXTRACT: note_on channel=9 note=38 velocity=67 time=0
EXTRACT: note_on channel=9 note=28 velocity=52 time=0
EXTRACT: note_on channel=9 note=35 velocity=127 time=0
EXTRACT: note_on channel=9 note=36 velocity=127 time=0
EXTRACT: note_on channel=8 note=58 velocity=127 time=0
EXTRACT: note_off channel=9 note=62 velocity=127 time=0.0010416666666666667
EXTRACT: note_off channel=9 note=75 velocity=61 time=0.11770833333333333
EXTRACT: note_off channel=9 note=28 velocity=52 time=0.07083333333333333
EXTRACT: note_off channel=9 note=38 velocity=67 time=0.034375
EXTRACT: note_off channel=9 note=35 velocity=127 time=0.005208333333333333
EXTRACT: note_off channel=9 note=36 velocity=127 time=0
EXTRACT: note_off channel=5 note=58 velocity=127 time=0.01875
EXTRACT: note_off channel=8 note=58 velocity=127 time=0
EXTRACT: note_on channel=5 note=65 velocity=127 time=0.0020833333333333333
EXTRACT: note_on channel=9 note=28 velocity=52 time=0
EXTRACT: note_on channel=8 note=65 velocity=127 time=0
EXTRACT: note_off channel=9 note=28 velocity=52 time=0.18958333333333333
EXTRACT: note_off channel=5 note=65 velocity=127 time=0.058333333333333334
EXTRACT: note_off channel=8 note=65 velocity=127 time=0
EXTRACT: note_on channel=5 note=63 velocity=127 time=0.0020833333333333333
EXTRACT: note_on channel=9 note=75 velocity=56 time=0
EXTRACT: note_on channel=9 note=38 velocity=67 time=0
EXTRACT: note_on channel=9 note=43 velocity=43 time=0
EXTRACT: note_on channel=9 note=28 velocity=52 time=0
EXTRACT: note_on channel=9 note=35 velocity=127 time=0
EXTRACT: note_on channel=9 note=36 velocity=127 time=0
EXTRACT: note_on channel=8 note=63 velocity=127 time=0
EXTRACT: note_off channel=9 note=43 velocity=43 time=0.096875
EXTRACT: note_off channel=9 note=75 velocity=56 time=0.021875
EXTRACT: note_on channel=9 note=41 velocity=43 time=0.00625
EXTRACT: note_off channel=9 note=28 velocity=52 time=0.06458333333333333
EXTRACT: note_off channel=9 note=41 velocity=43 time=0.03229166666666666
EXTRACT: note_off channel=9 note=38 velocity=67 time=0.0020833333333333333
EXTRACT: note_off channel=9 note=35 velocity=127 time=0.005208333333333333
EXTRACT: note_off channel=9 note=36 velocity=127 time=0
EXTRACT: note_off channel=5 note=63 velocity=127 time=0.01875
EXTRACT: note_off channel=8 note=63 velocity=127 time=0
EXTRACT: note_on channel=5 note=63 velocity=127 time=0.0020833333333333333
EXTRACT: note_on channel=9 note=62 velocity=127 time=0
EXTRACT: note_on channel=9 note=28 velocity=52 time=0
EXTRACT: note_on channel=9 note=42 velocity=127 time=0
EXTRACT: note_on channel=9 note=37 velocity=127 time=0
EXTRACT: note_on channel=8 note=63 velocity=127 time=0
EXTRACT: note_on channel=9 note=38 velocity=65 time=0.125
EXTRACT: note_on channel=9 note=35 velocity=127 time=0
EXTRACT: note_on channel=9 note=36 velocity=127 time=0
EXTRACT: note_off channel=9 note=28 velocity=52 time=0.06458333333333333
EXTRACT: note_off channel=9 note=42 velocity=127 time=0.03958333333333333
EXTRACT: note_off channel=9 note=37 velocity=127 time=0
EXTRACT: note_off channel=5 note=63 velocity=127 time=0.01875
EXTRACT: note_off channel=8 note=63 velocity=127 time=0
EXTRACT: note_on channel=5 note=61 velocity=127 time=0.0020833333333333333
EXTRACT: note_on channel=9 note=62 velocity=127 time=0
EXTRACT: note_on channel=9 note=75 velocity=60 time=0
EXTRACT: note_on channel=9 note=28 velocity=54 time=0
EXTRACT: note_on channel=9 note=42 velocity=127 time=0
EXTRACT: note_on channel=9 note=37 velocity=127 time=0
EXTRACT: note_on channel=8 note=61 velocity=127 time=0
EXTRACT: note_off channel=9 note=62 velocity=127 time=0.0010416666666666667
EXTRACT: note_off channel=9 note=38 velocity=65 time=0.09791666666666667
EXTRACT: note_off channel=9 note=35 velocity=127 time=0.005208333333333333
EXTRACT: note_off channel=9 note=36 velocity=127 time=0
EXTRACT: note_off channel=9 note=75 velocity=60 time=0.014583333333333334
EXTRACT: note_on channel=9 note=75 velocity=58 time=0.00625
EXTRACT: note_off channel=9 note=28 velocity=54 time=0.06458333333333333
EXTRACT: note_off channel=9 note=42 velocity=127 time=0.03958333333333333
EXTRACT: note_off channel=9 note=37 velocity=127 time=0
EXTRACT: note_off channel=9 note=75 velocity=58 time=0.014583333333333334
EXTRACT: note_off channel=5 note=61 velocity=127 time=0.004166666666666667
EXTRACT: note_off channel=8 note=61 velocity=127 time=0
EXTRACT: note_on channel=5 note=61 velocity=127 time=0.0020833333333333333
EXTRACT: note_on channel=9 note=75 velocity=61 time=0
EXTRACT: note_on channel=9 note=38 velocity=65 time=0
EXTRACT: note_on channel=9 note=28 velocity=54 time=0
EXTRACT: note_on channel=9 note=35 velocity=127 time=0
EXTRACT: note_on channel=9 note=36 velocity=127 time=0
EXTRACT: note_on channel=8 note=61 velocity=127 time=0
EXTRACT: note_off channel=9 note=62 velocity=127 time=0.0010416666666666667
EXTRACT: note_off channel=9 note=75 velocity=61 time=0.11770833333333333
EXTRACT: note_off channel=9 note=28 velocity=54 time=0.07083333333333333
EXTRACT: note_off channel=9 note=38 velocity=65 time=0.034375
EXTRACT: note_off channel=9 note=35 velocity=127 time=0.005208333333333333
EXTRACT: note_off channel=9 note=36 velocity=127 time=0
EXTRACT: note_off channel=5 note=61 velocity=127 time=0.01875
EXTRACT: note_off channel=8 note=61 velocity=127 time=0
EXTRACT: note_on channel=5 note=58 velocity=127 time=0.0020833333333333333
EXTRACT: note_on channel=9 note=75 velocity=61 time=0
EXTRACT: note_on channel=9 note=28 velocity=56 time=0
EXTRACT: note_on channel=8 note=58 velocity=127 time=0
EXTRACT: note_off channel=9 note=75 velocity=61 time=0.11875
EXTRACT: note_on channel=9 note=75 velocity=61 time=0.00625
EXTRACT: note_off channel=9 note=28 velocity=56 time=0.06458333333333333
EXTRACT: note_off channel=9 note=75 velocity=61 time=0.05416666666666667
EXTRACT: note_off channel=5 note=58 velocity=127 time=0.004166666666666667
EXTRACT: note_off channel=8 note=58 velocity=127 time=0
EXTRACT: note_on channel=5 note=61 velocity=127 time=0.0020833333333333333
EXTRACT: note_on channel=9 note=62 velocity=127 time=0
EXTRACT: note_on channel=9 note=75 velocity=61 time=0
EXTRACT: note_on channel=9 note=28 velocity=52 time=0
EXTRACT: note_on channel=9 note=42 velocity=127 time=0
EXTRACT: note_on channel=9 note=37 velocity=127 time=0
EXTRACT: note_on channel=8 note=61 velocity=127 time=0
EXTRACT: note_off channel=9 note=75 velocity=61 time=0.11875
EXTRACT: note_off channel=9 note=28 velocity=52 time=0.07083333333333333
EXTRACT: note_off channel=9 note=42 velocity=127 time=0.03958333333333333
EXTRACT: note_off channel=9 note=37 velocity=127 time=0
EXTRACT: note_off channel=5 note=61 velocity=127 time=0.01875
EXTRACT: note_off channel=8 note=61 velocity=127 time=0
EXTRACT: note_on channel=5 note=58 velocity=127 time=0.0020833333333333333
EXTRACT: note_on channel=9 note=75 velocity=61 time=0
EXTRACT: note_on channel=9 note=38 velocity=67 time=0
EXTRACT: note_on channel=9 note=28 velocity=52 time=0
EXTRACT: note_on channel=9 note=35 velocity=127 time=0
EXTRACT: note_on channel=9 note=36 velocity=127 time=0
EXTRACT: note_on channel=8 note=58 velocity=127 time=0
EXTRACT: note_off channel=9 note=62 velocity=127 time=0.0010416666666666667
EXTRACT: note_off channel=9 note=75 velocity=61 time=0.11770833333333333
EXTRACT: note_off channel=9 note=28 velocity=52 time=0.07083333333333333
EXTRACT: note_off channel=9 note=38 velocity=67 time=0.034375
EXTRACT: note_off channel=9 note=35 velocity=127 time=0.005208333333333333
EXTRACT: note_off channel=9 note=36 velocity=127 time=0
EXTRACT: note_off channel=5 note=58 velocity=127 time=0.01875
EXTRACT: note_off channel=8 note=58 velocity=127 time=0
EXTRACT: note_on channel=5 note=65 velocity=127 time=0.0020833333333333333
EXTRACT: note_on channel=9 note=28 velocity=52 time=0
EXTRACT: note_on channel=8 note=65 velocity=127 time=0
EXTRACT: note_off channel=9 note=28 velocity=52 time=0.18958333333333333
EXTRACT: note_off channel=5 note=65 velocity=127 time=0.058333333333333334
EXTRACT: note_off channel=8 note=65 velocity=127 time=0
EXTRACT: note_on channel=5 note=63 velocity=127 time=0.0020833333333333333
EXTRACT: note_on channel=9 note=75 velocity=56 time=0
EXTRACT: note_on channel=9 note=38 velocity=67 time=0
EXTRACT: note_on channel=9 note=43 velocity=43 time=0
EXTRACT: note_on channel=9 note=28 velocity=52 time=0
EXTRACT: note_on channel=9 note=35 velocity=127 time=0
EXTRACT: note_on channel=9 note=36 velocity=127 time=0
EXTRACT: note_on channel=8 note=63 velocity=127 time=0
EXTRACT: note_off channel=9 note=43 velocity=43 time=0.096875
EXTRACT: note_off channel=9 note=75 velocity=56 time=0.021875
EXTRACT: note_on channel=9 note=41 velocity=43 time=0.00625
EXTRACT: note_off channel=9 note=28 velocity=52 time=0.06458333333333333
EXTRACT: note_off channel=9 note=41 velocity=43 time=0.03229166666666666
EXTRACT: note_off channel=9 note=38 velocity=67 time=0.0020833333333333333
EXTRACT: note_off channel=9 note=35 velocity=127 time=0.005208333333333333
EXTRACT: note_off channel=9 note=36 velocity=127 time=0
EXTRACT: note_off channel=5 note=63 velocity=127 time=0.01875
EXTRACT: note_off channel=8 note=63 velocity=127 time=0
EXTRACT: note_on channel=5 note=63 velocity=127 time=0.0020833333333333333
EXTRACT: note_on channel=9 note=62 velocity=127 time=0
EXTRACT: note_on channel=9 note=28 velocity=52 time=0
EXTRACT: note_on channel=9 note=42 velocity=127 time=0
EXTRACT: note_on channel=9 note=37 velocity=127 time=0
EXTRACT: note_on channel=8 note=63 velocity=127 time=0
EXTRACT: note_on channel=9 note=38 velocity=65 time=0.125
EXTRACT: note_on channel=9 note=35 velocity=127 time=0
EXTRACT: note_on channel=9 note=36 velocity=127 time=0
EXTRACT: note_off channel=9 note=28 velocity=52 time=0.06458333333333333
EXTRACT: note_off channel=9 note=42 velocity=127 time=0.03958333333333333
EXTRACT: note_off channel=9 note=37 velocity=127 time=0
EXTRACT: note_off channel=5 note=63 velocity=127 time=0.01875
EXTRACT: note_off channel=8 note=63 velocity=127 time=0
EXTRACT: note_on channel=5 note=61 velocity=127 time=0.0020833333333333333
EXTRACT: note_on channel=9 note=62 velocity=127 time=0
EXTRACT: note_on channel=9 note=75 velocity=60 time=0
EXTRACT: note_on channel=9 note=28 velocity=54 time=0
EXTRACT: note_on channel=9 note=42 velocity=127 time=0
EXTRACT: note_on channel=9 note=37 velocity=127 time=0
EXTRACT: note_on channel=8 note=61 velocity=127 time=0
EXTRACT: note_off channel=9 note=62 velocity=127 time=0.0010416666666666667
EXTRACT: note_off channel=9 note=38 velocity=65 time=0.09791666666666667
EXTRACT: note_off channel=9 note=35 velocity=127 time=0.005208333333333333
EXTRACT: note_off channel=9 note=36 velocity=127 time=0
EXTRACT: note_off channel=9 note=75 velocity=60 time=0.014583333333333334
EXTRACT: note_on channel=9 note=75 velocity=58 time=0.00625
EXTRACT: note_off channel=9 note=28 velocity=54 time=0.06458333333333333
EXTRACT: note_off channel=9 note=42 velocity=127 time=0.03958333333333333
EXTRACT: note_off channel=9 note=37 velocity=127 time=0
EXTRACT: note_off channel=9 note=75 velocity=58 time=0.014583333333333334
EXTRACT: note_off channel=5 note=61 velocity=127 time=0.004166666666666667
EXTRACT: note_off channel=8 note=61 velocity=127 time=0
EXTRACT: note_on channel=5 note=61 velocity=127 time=0.0020833333333333333
EXTRACT: note_on channel=8 note=61 velocity=127 time=0
EXTRACT: note_off channel=9 note=62 velocity=127 time=0.0010416666666666667
EXTRACT: note_off channel=5 note=61 velocity=127 time=0.24687499999999998
EXTRACT: note_off channel=8 note=61 velocity=127 time=0
EXTRACT: note_on channel=5 note=58 velocity=127 time=0.0020833333333333333
EXTRACT: note_on channel=8 note=58 velocity=127 time=0
EXTRACT: note_off channel=5 note=58 velocity=127 time=0.24791666666666667
EXTRACT: note_off channel=8 note=58 velocity=127 time=0
EXTRACT: note_on channel=5 note=61 velocity=127 time=0.0020833333333333333
EXTRACT: note_on channel=8 note=61 velocity=127 time=0
EXTRACT: note_off channel=5 note=61 velocity=127 time=0.24791666666666667
EXTRACT: note_off channel=8 note=61 velocity=127 time=0
EXTRACT: note_on channel=5 note=58 velocity=127 time=0.0020833333333333333
EXTRACT: note_on channel=8 note=58 velocity=127 time=0
EXTRACT: control_change channel=2 control=7 value=38 time=0.04375
EXTRACT: control_change channel=2 control=7 value=40 time=0.022916666666666665
EXTRACT: control_change channel=2 control=7 value=43 time=0.08958333333333333
EXTRACT: control_change channel=2 control=7 value=45 time=0.021875
EXTRACT: control_change channel=2 control=7 value=47 time=0.022916666666666665
EXTRACT: control_change channel=2 control=7 value=49 time=0.021875
EXTRACT: note_off channel=5 note=58 velocity=127 time=0.025
EXTRACT: note_off channel=8 note=58 velocity=127 time=0
EXTRACT: note_on channel=2 note=73 velocity=110 time=0.0020833333333333333
EXTRACT: note_on channel=2 note=70 velocity=110 time=0
EXTRACT: note_on channel=2 note=77 velocity=110 time=0
EXTRACT: note_on channel=5 note=65 velocity=127 time=0
EXTRACT: note_on channel=8 note=65 velocity=127 time=0
EXTRACT: control_change channel=2 control=7 value=52 time=0.040625
EXTRACT: control_change channel=2 control=7 value=54 time=0.021875
EXTRACT: control_change channel=2 control=7 value=56 time=0.04479166666666667
EXTRACT: control_change channel=2 control=7 value=58 time=0.04479166666666667
EXTRACT: control_change channel=2 control=7 value=61 time=0.022916666666666665
EXTRACT: control_change channel=2 control=7 value=63 time=0.04479166666666667
EXTRACT: note_off channel=5 note=65 velocity=127 time=0.028125
EXTRACT: note_off channel=8 note=65 velocity=127 time=0
EXTRACT: note_on channel=5 note=63 velocity=127 time=0.0020833333333333333
EXTRACT: note_on channel=8 note=63 velocity=127 time=0
EXTRACT: control_change channel=2 control=7 value=65 time=0.036458333333333336
EXTRACT: control_change channel=2 control=7 value=70 time=0.04479166666666667
EXTRACT: control_change channel=2 control=7 value=72 time=0.04479166666666667
EXTRACT: control_change channel=2 control=7 value=74 time=0.022916666666666665
EXTRACT: control_change channel=2 control=7 value=76 time=0.04479166666666667
EXTRACT: control_change channel=2 control=7 value=79 time=0.04375
EXTRACT: note_off channel=5 note=63 velocity=127 time=0.010416666666666666
EXTRACT: note_off channel=8 note=63 velocity=127 time=0
EXTRACT: note_on channel=5 note=63 velocity=127 time=0.0020833333333333333
EXTRACT: note_on channel=8 note=63 velocity=127 time=0
EXTRACT: control_change channel=2 control=7 value=83 time=0.03229166666666666
EXTRACT: control_change channel=2 control=7 value=85 time=0.04479166666666667
EXTRACT: control_change channel=2 control=7 value=88 time=0.04479166666666667
EXTRACT: control_change channel=2 control=7 value=90 time=0.022916666666666665
EXTRACT: control_change channel=2 control=7 value=92 time=0.021875
EXTRACT: control_change channel=2 control=7 value=94 time=0.06770833333333333
EXTRACT: note_off channel=5 note=63 velocity=127 time=0.013541666666666667
EXTRACT: note_off channel=8 note=63 velocity=127 time=0
EXTRACT: note_on channel=5 note=61 velocity=127 time=0.0020833333333333333
EXTRACT: note_on channel=8 note=61 velocity=127 time=0
EXTRACT: control_change channel=2 control=7 value=94 time=0.00625
EXTRACT: control_change channel=2 control=7 value=99 time=0.04479166666666667
EXTRACT: control_change channel=2 control=7 value=101 time=0.06770833333333333
EXTRACT: note_off channel=2 note=73 velocity=110 time=0.12916666666666665
EXTRACT: note_off channel=2 note=70 velocity=110 time=0
EXTRACT: note_off channel=2 note=77 velocity=110 time=0
EXTRACT: note_off channel=5 note=61 velocity=127 time=0
EXTRACT: note_off channel=8 note=61 velocity=127 time=0
EXTRACT: note_on channel=5 note=61 velocity=127 time=0.0020833333333333333
EXTRACT: note_on channel=9 note=75 velocity=61 time=0
EXTRACT: note_on channel=9 note=38 velocity=65 time=0
EXTRACT: note_on channel=9 note=36 velocity=127 time=0
EXTRACT: note_on channel=9 note=35 velocity=127 time=0
EXTRACT: note_on channel=9 note=28 velocity=54 time=0
EXTRACT: note_on channel=7 note=22 velocity=127 time=0
EXTRACT: note_on channel=8 note=61 velocity=127 time=0
EXTRACT: note_off channel=9 note=75 velocity=61 time=0.11875
EXTRACT: note_off channel=9 note=28 velocity=54 time=0.07083333333333333
EXTRACT: note_off channel=9 note=38 velocity=65 time=0.034375
EXTRACT: note_off channel=9 note=36 velocity=127 time=0.005208333333333333
EXTRACT: note_off channel=9 note=35 velocity=127 time=0
EXTRACT: note_off channel=5 note=61 velocity=127 time=0.01875
EXTRACT: note_off channel=8 note=61 velocity=127 time=0
EXTRACT: note_on channel=5 note=58 velocity=127 time=0.0020833333333333333
EXTRACT: note_on channel=9 note=75 velocity=61 time=0
EXTRACT: note_on channel=9 note=28 velocity=56 time=0
EXTRACT: note_on channel=8 note=58 velocity=127 time=0
EXTRACT: note_off channel=9 note=75 velocity=61 time=0.11875
EXTRACT: note_on channel=9 note=75 velocity=61 time=0.00625
EXTRACT: note_off channel=9 note=28 velocity=56 time=0.06458333333333333
EXTRACT: note_off channel=9 note=75 velocity=61 time=0.05416666666666667
EXTRACT: note_off channel=5 note=58 velocity=127 time=0.004166666666666667
EXTRACT: note_off channel=8 note=58 velocity=127 time=0
EXTRACT: note_on channel=5 note=61 velocity=127 time=0.0020833333333333333
EXTRACT: note_on channel=9 note=75 velocity=61 time=0
EXTRACT: note_on channel=9 note=62 velocity=127 time=0
EXTRACT: note_on channel=9 note=37 velocity=127 time=0
EXTRACT: note_on channel=9 note=42 velocity=127 time=0
EXTRACT: note_on channel=9 note=28 velocity=52 time=0
EXTRACT: note_on channel=8 note=61 velocity=127 time=0
EXTRACT: note_off channel=7 note=22 velocity=127 time=0.015625
EXTRACT: note_off channel=9 note=75 velocity=61 time=0.103125
EXTRACT: note_off channel=9 note=28 velocity=52 time=0.07083333333333333
EXTRACT: note_off channel=9 note=37 velocity=127 time=0.03958333333333333
EXTRACT: note_off channel=9 note=42 velocity=127 time=0
EXTRACT: note_off channel=5 note=61 velocity=127 time=0.01875
EXTRACT: note_off channel=8 note=61 velocity=127 time=0
EXTRACT: note_on channel=5 note=58 velocity=127 time=0.0020833333333333333
EXTRACT: note_on channel=9 note=75 velocity=61 time=0
EXTRACT: note_on channel=9 note=38 velocity=67 time=0
EXTRACT: note_on channel=9 note=36 velocity=127 time=0
EXTRACT: note_on channel=9 note=35 velocity=127 time=0
EXTRACT: note_on channel=9 note=28 velocity=52 time=0
EXTRACT: note_on channel=8 note=58 velocity=127 time=0
EXTRACT: note_off channel=9 note=62 velocity=127 time=0.0010416666666666667
EXTRACT: note_off channel=9 note=75 velocity=61 time=0.11770833333333333
EXTRACT: note_off channel=9 note=28 velocity=52 time=0.07083333333333333
EXTRACT: note_off channel=9 note=38 velocity=67 time=0.034375
EXTRACT: note_off channel=9 note=36 velocity=127 time=0.005208333333333333
EXTRACT: note_off channel=9 note=35 velocity=127 time=0
EXTRACT: note_off channel=5 note=58 velocity=127 time=0.01875
EXTRACT: note_off channel=8 note=58 velocity=127 time=0
EXTRACT: note_on channel=5 note=65 velocity=127 time=0.0020833333333333333
EXTRACT: note_on channel=9 note=28 velocity=52 time=0
EXTRACT: note_on channel=8 note=65 velocity=127 time=0
EXTRACT: note_off channel=9 note=28 velocity=52 time=0.18958333333333333
EXTRACT: note_off channel=5 note=65 velocity=127 time=0.058333333333333334
EXTRACT: note_off channel=8 note=65 velocity=127 time=0
EXTRACT: note_on channel=5 note=63 velocity=127 time=0.0020833333333333333
EXTRACT: note_on channel=9 note=75 velocity=56 time=0
EXTRACT: note_on channel=9 note=38 velocity=67 time=0
EXTRACT: note_on channel=9 note=36 velocity=127 time=0
EXTRACT: note_on channel=9 note=35 velocity=127 time=0
EXTRACT: note_on channel=9 note=28 velocity=52 time=0
EXTRACT: note_on channel=9 note=43 velocity=43 time=0
EXTRACT: note_on channel=8 note=63 velocity=127 time=0
EXTRACT: note_off channel=9 note=43 velocity=43 time=0.096875
EXTRACT: note_off channel=9 note=75 velocity=56 time=0.021875
EXTRACT: note_on channel=9 note=41 velocity=43 time=0.00625
EXTRACT: note_off channel=9 note=28 velocity=52 time=0.06458333333333333
EXTRACT: note_off channel=9 note=41 velocity=43 time=0.03229166666666666
EXTRACT: note_off channel=9 note=38 velocity=67 time=0.0020833333333333333
EXTRACT: note_off channel=9 note=36 velocity=127 time=0.005208333333333333
EXTRACT: note_off channel=9 note=35 velocity=127 time=0
EXTRACT: note_off channel=5 note=63 velocity=127 time=0.01875
EXTRACT: note_off channel=8 note=63 velocity=127 time=0
EXTRACT: note_on channel=5 note=63 velocity=127 time=0.0020833333333333333
EXTRACT: note_on channel=9 note=62 velocity=127 time=0
EXTRACT: note_on channel=9 note=37 velocity=127 time=0
EXTRACT: note_on channel=9 note=42 velocity=127 time=0
EXTRACT: note_on channel=9 note=28 velocity=52 time=0
EXTRACT: note_on channel=8 note=63 velocity=127 time=0
EXTRACT: note_on channel=9 note=38 velocity=65 time=0.125
EXTRACT: note_on channel=9 note=36 velocity=127 time=0
EXTRACT: note_on channel=9 note=35 velocity=127 time=0
EXTRACT: note_off channel=9 note=28 velocity=52 time=0.06458333333333333
EXTRACT: note_off channel=9 note=37 velocity=127 time=0.03958333333333333
EXTRACT: note_off channel=9 note=42 velocity=127 time=0
EXTRACT: note_off channel=5 note=63 velocity=127 time=0.01875
EXTRACT: note_off channel=8 note=63 velocity=127 time=0
EXTRACT: note_on channel=2 note=77 velocity=127 time=0.0020833333333333333
EXTRACT: note_on channel=2 note=73 velocity=127 time=0
EXTRACT: note_on channel=2 note=70 velocity=127 time=0
EXTRACT: note_on channel=5 note=61 velocity=127 time=0
EXTRACT: note_on channel=9 note=75 velocity=60 time=0
EXTRACT: note_on channel=9 note=62 velocity=127 time=0
EXTRACT: note_on channel=9 note=37 velocity=127 time=0
EXTRACT: note_on channel=9 note=42 velocity=127 time=0
EXTRACT: note_on channel=9 note=28 velocity=54 time=0
EXTRACT: note_on channel=8 note=61 velocity=127 time=0
EXTRACT: note_off channel=9 note=62 velocity=127 time=0.0010416666666666667
EXTRACT: note_off channel=9 note=38 velocity=65 time=0.09791666666666667
EXTRACT: note_off channel=9 note=36 velocity=127 time=0.005208333333333333
EXTRACT: note_off channel=9 note=35 velocity=127 time=0
EXTRACT: note_off channel=9 note=75 velocity=60 time=0.014583333333333334
EXTRACT: note_on channel=9 note=75 velocity=58 time=0.00625
EXTRACT: note_off channel=2 note=77 velocity=127 time=0.028125
EXTRACT: note_off channel=2 note=73 velocity=127 time=0
EXTRACT: note_off channel=2 note=70 velocity=127 time=0
EXTRACT: note_off channel=9 note=28 velocity=54 time=0.036458333333333336
EXTRACT: note_off channel=9 note=37 velocity=127 time=0.03958333333333333
EXTRACT: note_off channel=9 note=42 velocity=127 time=0
EXTRACT: note_off channel=9 note=75 velocity=58 time=0.014583333333333334
EXTRACT: note_off channel=5 note=61 velocity=127 time=0.004166666666666667
EXTRACT: note_off channel=8 note=61 velocity=127 time=0
EXTRACT: note_on channel=5 note=61 velocity=127 time=0.0020833333333333333
EXTRACT: note_on channel=9 note=75 velocity=61 time=0
EXTRACT: note_on channel=9 note=38 velocity=65 time=0
EXTRACT: note_on channel=9 note=28 velocity=54 time=0
EXTRACT: note_on channel=9 note=35 velocity=127 time=0
EXTRACT: note_on channel=9 note=36 velocity=127 time=0
EXTRACT: note_on channel=8 note=61 velocity=127 time=0
EXTRACT: note_off channel=9 note=62 velocity=127 time=0.0010416666666666667
EXTRACT: note_off channel=9 note=75 velocity=61 time=0.11770833333333333
EXTRACT: note_off channel=9 note=28 velocity=54 time=0.07083333333333333
EXTRACT: note_off channel=9 note=38 velocity=65 time=0.034375
EXTRACT: note_off channel=9 note=35 velocity=127 time=0.005208333333333333
EXTRACT: note_off channel=9 note=36 velocity=127 time=0
EXTRACT: note_off channel=5 note=61 velocity=127 time=0.01875
EXTRACT: note_off channel=8 note=61 velocity=127 time=0
EXTRACT: note_on channel=5 note=58 velocity=127 time=0.0020833333333333333
EXTRACT: note_on channel=9 note=75 velocity=61 time=0
EXTRACT: note_on channel=9 note=28 velocity=56 time=0
EXTRACT: note_on channel=8 note=58 velocity=127 time=0
EXTRACT: note_off channel=9 note=75 velocity=61 time=0.11875
EXTRACT: note_on channel=9 note=75 velocity=61 time=0.00625
EXTRACT: note_off channel=9 note=28 velocity=56 time=0.06458333333333333
EXTRACT: note_off channel=9 note=75 velocity=61 time=0.05416666666666667
EXTRACT: note_off channel=5 note=58 velocity=127 time=0.004166666666666667
EXTRACT: note_off channel=8 note=58 velocity=127 time=0
EXTRACT: note_on channel=5 note=61 velocity=127 time=0.0020833333333333333
EXTRACT: note_on channel=9 note=62 velocity=127 time=0
EXTRACT: note_on channel=9 note=75 velocity=61 time=0
EXTRACT: note_on channel=9 note=28 velocity=52 time=0
EXTRACT: note_on channel=9 note=42 velocity=127 time=0
EXTRACT: note_on channel=9 note=37 velocity=127 time=0
EXTRACT: note_on channel=8 note=61 velocity=127 time=0
EXTRACT: note_off channel=9 note=75 velocity=61 time=0.11875
EXTRACT: note_off channel=9 note=28 velocity=52 time=0.07083333333333333
EXTRACT: note_off channel=9 note=42 velocity=127 time=0.03958333333333333
EXTRACT: note_off channel=9 note=37 velocity=127 time=0
EXTRACT: note_off channel=5 note=61 velocity=127 time=0.01875
EXTRACT: note_off channel=8 note=61 velocity=127 time=0
EXTRACT: note_on channel=5 note=58 velocity=127 time=0.0020833333333333333
EXTRACT: note_on channel=9 note=75 velocity=61 time=0
EXTRACT: note_on channel=9 note=38 velocity=67 time=0
EXTRACT: note_on channel=9 note=28 velocity=52 time=0
EXTRACT: note_on channel=9 note=35 velocity=127 time=0
EXTRACT: note_on channel=9 note=36 velocity=127 time=0
EXTRACT: note_on channel=8 note=58 velocity=127 time=0
EXTRACT: note_off channel=9 note=62 velocity=127 time=0.0010416666666666667
EXTRACT: note_off channel=9 note=75 velocity=61 time=0.11770833333333333
EXTRACT: note_off channel=9 note=28 velocity=52 time=0.07083333333333333
EXTRACT: note_off channel=9 note=38 velocity=67 time=0.034375
EXTRACT: note_off channel=9 note=35 velocity=127 time=0.005208333333333333
EXTRACT: note_off channel=9 note=36 velocity=127 time=0
EXTRACT: note_off channel=5 note=58 velocity=127 time=0.01875
EXTRACT: note_off channel=8 note=58 velocity=127 time=0
EXTRACT: note_on channel=5 note=65 velocity=127 time=0.0020833333333333333
EXTRACT: note_on channel=9 note=28 velocity=52 time=0
EXTRACT: note_on channel=8 note=65 velocity=127 time=0
EXTRACT: note_off channel=9 note=28 velocity=52 time=0.18958333333333333
EXTRACT: note_off channel=5 note=65 velocity=127 time=0.058333333333333334
EXTRACT: note_off channel=8 note=65 velocity=127 time=0
EXTRACT: note_on channel=5 note=63 velocity=127 time=0.0020833333333333333
EXTRACT: note_on channel=9 note=75 velocity=56 time=0
EXTRACT: note_on channel=9 note=38 velocity=67 time=0
EXTRACT: note_on channel=9 note=43 velocity=43 time=0
EXTRACT: note_on channel=9 note=28 velocity=52 time=0
EXTRACT: note_on channel=9 note=35 velocity=127 time=0
EXTRACT: note_on channel=9 note=36 velocity=127 time=0
EXTRACT: note_on channel=8 note=63 velocity=127 time=0
EXTRACT: note_off channel=9 note=43 velocity=43 time=0.096875
EXTRACT: note_off channel=9 note=75 velocity=56 time=0.021875
EXTRACT: note_on channel=9 note=41 velocity=43 time=0.00625
EXTRACT: note_off channel=9 note=28 velocity=52 time=0.06458333333333333
EXTRACT: note_off channel=9 note=41 velocity=43 time=0.03229166666666666
EXTRACT: note_off channel=9 note=38 velocity=67 time=0.0020833333333333333
EXTRACT: note_off channel=9 note=35 velocity=127 time=0.005208333333333333
EXTRACT: note_off channel=9 note=36 velocity=127 time=0
EXTRACT: note_off channel=5 note=63 velocity=127 time=0.01875
EXTRACT: note_off channel=8 note=63 velocity=127 time=0
EXTRACT: note_on channel=5 note=63 velocity=127 time=0.0020833333333333333
EXTRACT: note_on channel=9 note=62 velocity=127 time=0
EXTRACT: note_on channel=9 note=28 velocity=52 time=0
EXTRACT: note_on channel=9 note=42 velocity=127 time=0
EXTRACT: note_on channel=9 note=37 velocity=127 time=0
EXTRACT: note_on channel=8 note=63 velocity=127 time=0
EXTRACT: note_on channel=9 note=38 velocity=65 time=0.125
EXTRACT: note_on channel=9 note=35 velocity=127 time=0
EXTRACT: note_on channel=9 note=36 velocity=127 time=0
EXTRACT: note_off channel=9 note=28 velocity=52 time=0.06458333333333333
EXTRACT: note_off channel=9 note=42 velocity=127 time=0.03958333333333333
EXTRACT: note_off channel=9 note=37 velocity=127 time=0
EXTRACT: note_off channel=5 note=63 velocity=127 time=0.01875
EXTRACT: note_off channel=8 note=63 velocity=127 time=0
EXTRACT: note_on channel=2 note=70 velocity=127 time=0.0020833333333333333
EXTRACT: note_on channel=2 note=73 velocity=127 time=0
EXTRACT: note_on channel=2 note=77 velocity=127 time=0
EXTRACT: note_on channel=5 note=61 velocity=127 time=0
EXTRACT: note_on channel=9 note=62 velocity=127 time=0
EXTRACT: note_on channel=9 note=75 velocity=60 time=0
EXTRACT: note_on channel=9 note=28 velocity=54 time=0
EXTRACT: note_on channel=9 note=42 velocity=127 time=0
EXTRACT: note_on channel=9 note=37 velocity=127 time=0
EXTRACT: note_on channel=8 note=61 velocity=127 time=0
EXTRACT: note_off channel=9 note=62 velocity=127 time=0.0010416666666666667
EXTRACT: note_off channel=9 note=38 velocity=65 time=0.09791666666666667
EXTRACT: note_off channel=9 note=35 velocity=127 time=0.005208333333333333
EXTRACT: note_off channel=9 note=36 velocity=127 time=0
EXTRACT: note_off channel=9 note=75 velocity=60 time=0.014583333333333334
EXTRACT: note_on channel=9 note=75 velocity=58 time=0.00625
EXTRACT: note_off channel=2 note=70 velocity=127 time=0.028125
EXTRACT: note_off channel=2 note=73 velocity=127 time=0
EXTRACT: note_off channel=2 note=77 velocity=127 time=0
EXTRACT: note_off channel=9 note=28 velocity=54 time=0.036458333333333336
EXTRACT: note_off channel=9 note=42 velocity=127 time=0.03958333333333333
EXTRACT: note_off channel=9 note=37 velocity=127 time=0
EXTRACT: note_off channel=9 note=75 velocity=58 time=0.014583333333333334
EXTRACT: note_off channel=5 note=61 velocity=127 time=0.004166666666666667
EXTRACT: note_off channel=8 note=61 velocity=127 time=0
EXTRACT: note_on channel=5 note=61 velocity=127 time=0.0020833333333333333
EXTRACT: note_on channel=9 note=75 velocity=61 time=0
EXTRACT: note_on channel=9 note=38 velocity=65 time=0
EXTRACT: note_on channel=9 note=28 velocity=54 time=0
EXTRACT: note_on channel=9 note=35 velocity=127 time=0
EXTRACT: note_on channel=9 note=36 velocity=127 time=0
EXTRACT: note_on channel=8 note=61 velocity=127 time=0
EXTRACT: note_off channel=9 note=62 velocity=127 time=0.0010416666666666667
EXTRACT: note_off channel=9 note=75 velocity=61 time=0.11770833333333333
EXTRACT: note_off channel=9 note=28 velocity=54 time=0.07083333333333333
EXTRACT: note_off channel=9 note=38 velocity=65 time=0.034375
EXTRACT: note_off channel=9 note=35 velocity=127 time=0.005208333333333333
EXTRACT: note_off channel=9 note=36 velocity=127 time=0
EXTRACT: note_off channel=5 note=61 velocity=127 time=0.01875
EXTRACT: note_off channel=8 note=61 velocity=127 time=0
EXTRACT: note_on channel=5 note=58 velocity=127 time=0.0020833333333333333
EXTRACT: note_on channel=9 note=75 velocity=61 time=0
EXTRACT: note_on channel=9 note=28 velocity=56 time=0
EXTRACT: note_on channel=8 note=58 velocity=127 time=0
EXTRACT: note_off channel=9 note=75 velocity=61 time=0.11875
EXTRACT: note_on channel=9 note=75 velocity=61 time=0.00625
EXTRACT: note_off channel=9 note=28 velocity=56 time=0.06458333333333333
EXTRACT: note_off channel=9 note=75 velocity=61 time=0.05416666666666667
EXTRACT: note_off channel=5 note=58 velocity=127 time=0.004166666666666667
EXTRACT: note_off channel=8 note=58 velocity=127 time=0
EXTRACT: note_on channel=5 note=61 velocity=127 time=0.0020833333333333333
EXTRACT: note_on channel=9 note=62 velocity=127 time=0
EXTRACT: note_on channel=9 note=75 velocity=61 time=0
EXTRACT: note_on channel=9 note=28 velocity=52 time=0
EXTRACT: note_on channel=9 note=42 velocity=127 time=0
EXTRACT: note_on channel=9 note=37 velocity=127 time=0
EXTRACT: note_on channel=8 note=61 velocity=127 time=0
EXTRACT: note_off channel=9 note=75 velocity=61 time=0.11875
EXTRACT: note_off channel=9 note=28 velocity=52 time=0.07083333333333333
EXTRACT: note_off channel=9 note=42 velocity=127 time=0.03958333333333333
EXTRACT: note_off channel=9 note=37 velocity=127 time=0
EXTRACT: note_off channel=5 note=61 velocity=127 time=0.01875
EXTRACT: note_off channel=8 note=61 velocity=127 time=0
EXTRACT: note_on channel=5 note=58 velocity=127 time=0.0020833333333333333
EXTRACT: note_on channel=9 note=75 velocity=61 time=0
EXTRACT: note_on channel=9 note=38 velocity=67 time=0
EXTRACT: note_on channel=9 note=28 velocity=52 time=0
EXTRACT: note_on channel=9 note=35 velocity=127 time=0
EXTRACT: note_on channel=9 note=36 velocity=127 time=0
EXTRACT: note_on channel=8 note=58 velocity=127 time=0
EXTRACT: note_off channel=9 note=62 velocity=127 time=0.0010416666666666667
EXTRACT: note_off channel=9 note=75 velocity=61 time=0.11770833333333333
EXTRACT: note_off channel=9 note=28 velocity=52 time=0.07083333333333333
EXTRACT: note_off channel=9 note=38 velocity=67 time=0.034375
EXTRACT: note_off channel=9 note=35 velocity=127 time=0.005208333333333333
EXTRACT: note_off channel=9 note=36 velocity=127 time=0
EXTRACT: note_off channel=5 note=58 velocity=127 time=0.01875
EXTRACT: note_off channel=8 note=58 velocity=127 time=0
EXTRACT: note_on channel=5 note=65 velocity=127 time=0.0020833333333333333
EXTRACT: note_on channel=9 note=28 velocity=52 time=0
EXTRACT: note_on channel=8 note=65 velocity=127 time=0
EXTRACT: note_off channel=9 note=28 velocity=52 time=0.18958333333333333
EXTRACT: note_off channel=5 note=65 velocity=127 time=0.058333333333333334
EXTRACT: note_off channel=8 note=65 velocity=127 time=0
EXTRACT: note_on channel=5 note=63 velocity=127 time=0.0020833333333333333
EXTRACT: note_on channel=9 note=75 velocity=56 time=0
EXTRACT: note_on channel=9 note=38 velocity=67 time=0
EXTRACT: note_on channel=9 note=43 velocity=43 time=0
EXTRACT: note_on channel=9 note=28 velocity=52 time=0
EXTRACT: note_on channel=9 note=35 velocity=127 time=0
EXTRACT: note_on channel=9 note=36 velocity=127 time=0
EXTRACT: note_on channel=8 note=63 velocity=127 time=0
EXTRACT: note_off channel=9 note=43 velocity=43 time=0.096875
EXTRACT: note_off channel=9 note=75 velocity=56 time=0.021875
EXTRACT: note_on channel=9 note=41 velocity=43 time=0.00625
EXTRACT: note_off channel=9 note=28 velocity=52 time=0.06458333333333333
EXTRACT: note_off channel=9 note=41 velocity=43 time=0.03229166666666666
EXTRACT: note_off channel=9 note=38 velocity=67 time=0.0020833333333333333
EXTRACT: note_off channel=9 note=35 velocity=127 time=0.005208333333333333
EXTRACT: note_off channel=9 note=36 velocity=127 time=0
EXTRACT: note_off channel=5 note=63 velocity=127 time=0.01875
EXTRACT: note_off channel=8 note=63 velocity=127 time=0
EXTRACT: note_on channel=5 note=63 velocity=127 time=0.0020833333333333333
EXTRACT: note_on channel=9 note=62 velocity=127 time=0
EXTRACT: note_on channel=9 note=28 velocity=52 time=0
EXTRACT: note_on channel=9 note=42 velocity=127 time=0
EXTRACT: note_on channel=9 note=37 velocity=127 time=0
EXTRACT: note_on channel=8 note=63 velocity=127 time=0
EXTRACT: note_on channel=9 note=38 velocity=65 time=0.125
EXTRACT: note_on channel=9 note=35 velocity=127 time=0
EXTRACT: note_on channel=9 note=36 velocity=127 time=0
EXTRACT: note_off channel=9 note=28 velocity=52 time=0.06458333333333333
EXTRACT: note_off channel=9 note=42 velocity=127 time=0.03958333333333333
EXTRACT: note_off channel=9 note=37 velocity=127 time=0
EXTRACT: note_off channel=5 note=63 velocity=127 time=0.01875
EXTRACT: note_off channel=8 note=63 velocity=127 time=0
EXTRACT: note_on channel=5 note=61 velocity=127 time=0.0020833333333333333
EXTRACT: note_on channel=9 note=62 velocity=127 time=0
EXTRACT: note_on channel=9 note=75 velocity=60 time=0
EXTRACT: note_on channel=9 note=28 velocity=54 time=0
EXTRACT: note_on channel=9 note=42 velocity=127 time=0
EXTRACT: note_on channel=9 note=37 velocity=127 time=0
EXTRACT: note_on channel=8 note=61 velocity=127 time=0
EXTRACT: note_off channel=9 note=62 velocity=127 time=0.0010416666666666667
EXTRACT: note_off channel=9 note=38 velocity=65 time=0.09791666666666667
EXTRACT: note_off channel=9 note=35 velocity=127 time=0.005208333333333333
EXTRACT: note_off channel=9 note=36 velocity=127 time=0
EXTRACT: note_off channel=9 note=75 velocity=60 time=0.014583333333333334
EXTRACT: note_on channel=9 note=75 velocity=58 time=0.00625
EXTRACT: note_off channel=9 note=28 velocity=54 time=0.06458333333333333
EXTRACT: note_off channel=9 note=42 velocity=127 time=0.03958333333333333
EXTRACT: note_off channel=9 note=37 velocity=127 time=0
EXTRACT: note_off channel=9 note=75 velocity=58 time=0.014583333333333334
EXTRACT: note_off channel=5 note=61 velocity=127 time=0.004166666666666667
EXTRACT: note_off channel=8 note=61 velocity=127 time=0
EXTRACT: note_on channel=5 note=61 velocity=127 time=0.0020833333333333333
EXTRACT: note_on channel=9 note=75 velocity=61 time=0
EXTRACT: note_on channel=9 note=38 velocity=65 time=0
EXTRACT: note_on channel=9 note=28 velocity=54 time=0
EXTRACT: note_on channel=9 note=35 velocity=127 time=0
EXTRACT: note_on channel=9 note=36 velocity=127 time=0
EXTRACT: note_on channel=8 note=61 velocity=127 time=0
EXTRACT: note_off channel=9 note=62 velocity=127 time=0.0010416666666666667
EXTRACT: note_off channel=9 note=75 velocity=61 time=0.11770833333333333
EXTRACT: note_off channel=9 note=28 velocity=54 time=0.07083333333333333
EXTRACT: note_off channel=9 note=38 velocity=65 time=0.034375
EXTRACT: note_off channel=9 note=35 velocity=127 time=0.005208333333333333
EXTRACT: note_off channel=9 note=36 velocity=127 time=0
EXTRACT: note_off channel=5 note=61 velocity=127 time=0.01875
EXTRACT: note_off channel=8 note=61 velocity=127 time=0
EXTRACT: note_on channel=5 note=58 velocity=127 time=0.0020833333333333333
EXTRACT: note_on channel=9 note=75 velocity=61 time=0
EXTRACT: note_on channel=9 note=28 velocity=56 time=0
EXTRACT: note_on channel=8 note=58 velocity=127 time=0
EXTRACT: note_off channel=9 note=75 velocity=61 time=0.11875
EXTRACT: note_on channel=9 note=75 velocity=61 time=0.00625
EXTRACT: note_off channel=9 note=28 velocity=56 time=0.06458333333333333
EXTRACT: note_off channel=9 note=75 velocity=61 time=0.05416666666666667
EXTRACT: note_off channel=5 note=58 velocity=127 time=0.004166666666666667
EXTRACT: note_off channel=8 note=58 velocity=127 time=0
EXTRACT: note_on channel=5 note=61 velocity=127 time=0.0020833333333333333
EXTRACT: note_on channel=9 note=62 velocity=127 time=0
EXTRACT: note_on channel=9 note=75 velocity=61 time=0
EXTRACT: note_on channel=9 note=28 velocity=52 time=0
EXTRACT: note_on channel=9 note=42 velocity=127 time=0
EXTRACT: note_on channel=9 note=37 velocity=127 time=0
EXTRACT: note_on channel=8 note=61 velocity=127 time=0
EXTRACT: note_off channel=9 note=75 velocity=61 time=0.11875
EXTRACT: note_off channel=9 note=28 velocity=52 time=0.07083333333333333
EXTRACT: note_off channel=9 note=42 velocity=127 time=0.03958333333333333
EXTRACT: note_off channel=9 note=37 velocity=127 time=0
EXTRACT: note_off channel=5 note=61 velocity=127 time=0.01875
EXTRACT: note_off channel=8 note=61 velocity=127 time=0
EXTRACT: note_on channel=5 note=58 velocity=127 time=0.0020833333333333333
EXTRACT: note_on channel=9 note=75 velocity=61 time=0
EXTRACT: note_on channel=9 note=38 velocity=67 time=0
EXTRACT: note_on channel=9 note=28 velocity=52 time=0
EXTRACT: note_on channel=9 note=35 velocity=127 time=0
EXTRACT: note_on channel=9 note=36 velocity=127 time=0
EXTRACT: note_on channel=8 note=58 velocity=127 time=0
EXTRACT: note_off channel=9 note=62 velocity=127 time=0.0010416666666666667
EXTRACT: note_off channel=9 note=75 velocity=61 time=0.11770833333333333
EXTRACT: note_off channel=9 note=28 velocity=52 time=0.07083333333333333
EXTRACT: note_off channel=9 note=38 velocity=67 time=0.034375
EXTRACT: note_off channel=9 note=35 velocity=127 time=0.005208333333333333
EXTRACT: note_off channel=9 note=36 velocity=127 time=0
EXTRACT: note_off channel=5 note=58 velocity=127 time=0.01875
EXTRACT: note_off channel=8 note=58 velocity=127 time=0
EXTRACT: note_on channel=5 note=65 velocity=127 time=0.0020833333333333333
EXTRACT: note_on channel=9 note=28 velocity=52 time=0
EXTRACT: note_on channel=8 note=65 velocity=127 time=0
EXTRACT: note_off channel=9 note=28 velocity=52 time=0.18958333333333333
EXTRACT: note_off channel=5 note=65 velocity=127 time=0.058333333333333334
EXTRACT: note_off channel=8 note=65 velocity=127 time=0
EXTRACT: note_on channel=5 note=63 velocity=127 time=0.0020833333333333333
EXTRACT: note_on channel=9 note=75 velocity=56 time=0
EXTRACT: note_on channel=9 note=38 velocity=67 time=0
EXTRACT: note_on channel=9 note=43 velocity=43 time=0
EXTRACT: note_on channel=9 note=28 velocity=52 time=0
EXTRACT: note_on channel=9 note=35 velocity=127 time=0
EXTRACT: note_on channel=9 note=36 velocity=127 time=0
EXTRACT: note_on channel=8 note=63 velocity=127 time=0
EXTRACT: note_off channel=9 note=43 velocity=43 time=0.096875
EXTRACT: note_off channel=9 note=75 velocity=56 time=0.021875
EXTRACT: note_on channel=9 note=41 velocity=43 time=0.00625
EXTRACT: note_off channel=9 note=28 velocity=52 time=0.06458333333333333
EXTRACT: note_off channel=9 note=41 velocity=43 time=0.03229166666666666
EXTRACT: note_off channel=9 note=38 velocity=67 time=0.0020833333333333333
EXTRACT: note_off channel=9 note=35 velocity=127 time=0.005208333333333333
EXTRACT: note_off channel=9 note=36 velocity=127 time=0
EXTRACT: note_off channel=5 note=63 velocity=127 time=0.01875
EXTRACT: note_off channel=8 note=63 velocity=127 time=0
EXTRACT: note_on channel=5 note=63 velocity=127 time=0.0020833333333333333
EXTRACT: note_on channel=9 note=62 velocity=127 time=0
EXTRACT: note_on channel=9 note=28 velocity=52 time=0
EXTRACT: note_on channel=9 note=42 velocity=127 time=0
EXTRACT: note_on channel=9 note=37 velocity=127 time=0
EXTRACT: note_on channel=8 note=63 velocity=127 time=0
EXTRACT: note_on channel=9 note=38 velocity=65 time=0.125
EXTRACT: note_on channel=9 note=35 velocity=127 time=0
EXTRACT: note_on channel=9 note=36 velocity=127 time=0
EXTRACT: note_off channel=9 note=28 velocity=52 time=0.06458333333333333
EXTRACT: note_off channel=9 note=42 velocity=127 time=0.03958333333333333
EXTRACT: note_off channel=9 note=37 velocity=127 time=0
EXTRACT: note_off channel=5 note=63 velocity=127 time=0.01875
EXTRACT: note_off channel=8 note=63 velocity=127 time=0
EXTRACT: note_on channel=5 note=61 velocity=127 time=0.0020833333333333333
EXTRACT: note_on channel=9 note=62 velocity=127 time=0
EXTRACT: note_on channel=9 note=75 velocity=60 time=0
EXTRACT: note_on channel=9 note=28 velocity=54 time=0
EXTRACT: note_on channel=9 note=42 velocity=127 time=0
EXTRACT: note_on channel=9 note=37 velocity=127 time=0
EXTRACT: note_on channel=8 note=61 velocity=127 time=0
EXTRACT: note_off channel=9 note=62 velocity=127 time=0.0010416666666666667
EXTRACT: note_off channel=9 note=38 velocity=65 time=0.09791666666666667
EXTRACT: note_off channel=9 note=35 velocity=127 time=0.005208333333333333
EXTRACT: note_off channel=9 note=36 velocity=127 time=0
EXTRACT: note_off channel=9 note=75 velocity=60 time=0.014583333333333334
EXTRACT: note_on channel=9 note=75 velocity=58 time=0.00625
EXTRACT: note_off channel=9 note=28 velocity=54 time=0.06458333333333333
EXTRACT: note_off channel=9 note=42 velocity=127 time=0.03958333333333333
EXTRACT: note_off channel=9 note=37 velocity=127 time=0
EXTRACT: note_off channel=9 note=75 velocity=58 time=0.014583333333333334
EXTRACT: note_off channel=5 note=61 velocity=127 time=0.004166666666666667
EXTRACT: note_off channel=8 note=61 velocity=127 time=0
EXTRACT: note_on channel=2 note=73 velocity=58 time=0.0020833333333333333
EXTRACT: note_on channel=2 note=70 velocity=58 time=0
EXTRACT: note_on channel=2 note=66 velocity=58 time=0
EXTRACT: note_on channel=2 note=65 velocity=127 time=0
EXTRACT: note_on channel=3 note=30 velocity=127 time=0
EXTRACT: note_on channel=4 note=30 velocity=127 time=0
EXTRACT: note_on channel=4 note=42 velocity=127 time=0
EXTRACT: note_on channel=6 note=77 velocity=127 time=0
EXTRACT: note_on channel=6 note=73 velocity=127 time=0
EXTRACT: note_on channel=6 note=70 velocity=127 time=0
EXTRACT: note_on channel=6 note=66 velocity=127 time=0
EXTRACT: note_on channel=10 note=66 velocity=127 time=0
EXTRACT: note_on channel=10 note=70 velocity=127 time=0
EXTRACT: note_on channel=10 note=73 velocity=127 time=0
EXTRACT: note_on channel=10 note=77 velocity=127 time=0
EXTRACT: note_off channel=9 note=62 velocity=127 time=0.0010416666666666667
EXTRACT: note_on channel=9 note=62 velocity=127 time=0.49895833333333334
EXTRACT: note_on channel=9 note=75 velocity=61 time=0
EXTRACT: note_on channel=9 note=28 velocity=52 time=0
EXTRACT: note_on channel=9 note=42 velocity=127 time=0
EXTRACT: note_on channel=9 note=37 velocity=127 time=0
EXTRACT: note_off channel=9 note=75 velocity=61 time=0.11875
EXTRACT: note_off channel=9 note=28 velocity=52 time=0.07083333333333333
EXTRACT: note_off channel=9 note=42 velocity=127 time=0.03958333333333333
EXTRACT: note_off channel=9 note=37 velocity=127 time=0
EXTRACT: note_on channel=1 note=58 velocity=127 time=0.020833333333333332
EXTRACT: note_on channel=1 note=46 velocity=127 time=0
EXTRACT: note_on channel=9 note=75 velocity=61 time=0
EXTRACT: note_on channel=9 note=38 velocity=67 time=0
EXTRACT: note_on channel=9 note=28 velocity=52 time=0
EXTRACT: note_on channel=9 note=35 velocity=127 time=0
EXTRACT: note_on channel=9 note=36 velocity=127 time=0
EXTRACT: note_off channel=9 note=62 velocity=127 time=0.0010416666666666667
EXTRACT: note_off channel=9 note=75 velocity=61 time=0.11770833333333333
EXTRACT: note_off channel=9 note=28 velocity=52 time=0.07083333333333333
EXTRACT: note_off channel=9 note=38 velocity=67 time=0.034375
EXTRACT: note_off channel=9 note=35 velocity=127 time=0.005208333333333333
EXTRACT: note_off channel=9 note=36 velocity=127 time=0
EXTRACT: note_off channel=1 note=58 velocity=127 time=0.01875
EXTRACT: note_off channel=1 note=46 velocity=127 time=0
EXTRACT: note_on channel=1 note=61 velocity=127 time=0.0020833333333333333
EXTRACT: note_on channel=1 note=49 velocity=127 time=0
EXTRACT: note_on channel=9 note=28 velocity=52 time=0
EXTRACT: note_off channel=9 note=28 velocity=52 time=0.18958333333333333
EXTRACT: note_off channel=1 note=61 velocity=127 time=0.058333333333333334
EXTRACT: note_off channel=1 note=49 velocity=127 time=0
EXTRACT: note_on channel=1 note=58 velocity=127 time=0.0020833333333333333
EXTRACT: note_on channel=1 note=46 velocity=127 time=0
EXTRACT: note_on channel=9 note=75 velocity=56 time=0
EXTRACT: note_on channel=9 note=38 velocity=67 time=0
EXTRACT: note_on channel=9 note=43 velocity=43 time=0
EXTRACT: note_on channel=9 note=28 velocity=52 time=0
EXTRACT: note_on channel=9 note=35 velocity=127 time=0
EXTRACT: note_on channel=9 note=36 velocity=127 time=0
EXTRACT: note_off channel=9 note=43 velocity=43 time=0.096875
EXTRACT: note_off channel=9 note=75 velocity=56 time=0.021875
EXTRACT: note_on channel=9 note=41 velocity=43 time=0.00625
EXTRACT: note_off channel=9 note=28 velocity=52 time=0.06458333333333333
EXTRACT: note_off channel=9 note=41 velocity=43 time=0.03229166666666666
EXTRACT: note_off channel=9 note=38 velocity=67 time=0.0020833333333333333
EXTRACT: note_off channel=9 note=35 velocity=127 time=0.005208333333333333
EXTRACT: note_off channel=9 note=36 velocity=127 time=0
EXTRACT: note_off channel=1 note=58 velocity=127 time=0.01875
EXTRACT: note_off channel=1 note=46 velocity=127 time=0
EXTRACT: note_off channel=3 note=30 velocity=127 time=0
EXTRACT: note_off channel=4 note=30 velocity=127 time=0
EXTRACT: note_off channel=4 note=42 velocity=127 time=0
EXTRACT: note_on channel=1 note=58 velocity=127 time=0.0020833333333333333
EXTRACT: note_on channel=1 note=46 velocity=127 time=0
EXTRACT: note_on channel=9 note=62 velocity=127 time=0
EXTRACT: note_on channel=9 note=28 velocity=52 time=0
EXTRACT: note_on channel=9 note=42 velocity=127 time=0
EXTRACT: note_on channel=9 note=37 velocity=127 time=0
EXTRACT: note_on channel=9 note=38 velocity=65 time=0.125
EXTRACT: note_on channel=9 note=35 velocity=127 time=0
EXTRACT: note_on channel=9 note=36 velocity=127 time=0
EXTRACT: note_off channel=9 note=28 velocity=52 time=0.06458333333333333
EXTRACT: note_off channel=9 note=42 velocity=127 time=0.03958333333333333
EXTRACT: note_off channel=9 note=37 velocity=127 time=0
EXTRACT: note_off channel=1 note=58 velocity=127 time=0.01875
EXTRACT: note_off channel=1 note=46 velocity=127 time=0
EXTRACT: note_on channel=1 note=58 velocity=127 time=0.0020833333333333333
EXTRACT: note_on channel=1 note=46 velocity=127 time=0
EXTRACT: note_on channel=3 note=30 velocity=97 time=0
EXTRACT: note_on channel=4 note=30 velocity=97 time=0
EXTRACT: note_on channel=4 note=42 velocity=97 time=0
EXTRACT: note_on channel=9 note=62 velocity=127 time=0
EXTRACT: note_on channel=9 note=75 velocity=60 time=0
EXTRACT: note_on channel=9 note=28 velocity=54 time=0
EXTRACT: note_on channel=9 note=42 velocity=127 time=0
EXTRACT: note_on channel=9 note=37 velocity=127 time=0
EXTRACT: note_off channel=9 note=62 velocity=127 time=0.0010416666666666667
EXTRACT: note_off channel=9 note=38 velocity=65 time=0.09791666666666667
EXTRACT: note_off channel=9 note=35 velocity=127 time=0.005208333333333333
EXTRACT: note_off channel=9 note=36 velocity=127 time=0
EXTRACT: note_off channel=9 note=75 velocity=60 time=0.014583333333333334
EXTRACT: note_off channel=3 note=30 velocity=97 time=0.004166666666666667
EXTRACT: note_off channel=4 note=30 velocity=97 time=0
EXTRACT: note_off channel=4 note=42 velocity=97 time=0
EXTRACT: note_on channel=3 note=32 velocity=97 time=0.0020833333333333333
EXTRACT: note_on channel=4 note=32 velocity=97 time=0
EXTRACT: note_on channel=4 note=44 velocity=97 time=0
EXTRACT: note_on channel=9 note=75 velocity=58 time=0
EXTRACT: note_off channel=9 note=28 velocity=54 time=0.06458333333333333
EXTRACT: note_off channel=9 note=42 velocity=127 time=0.03958333333333333
EXTRACT: note_off channel=9 note=37 velocity=127 time=0
EXTRACT: note_off channel=9 note=75 velocity=58 time=0.014583333333333334
EXTRACT: note_off channel=1 note=58 velocity=127 time=0.004166666666666667
EXTRACT: note_off channel=1 note=46 velocity=127 time=0
EXTRACT: note_off channel=2 note=73 velocity=58 time=0
EXTRACT: note_off channel=2 note=70 velocity=58 time=0
EXTRACT: note_off channel=2 note=66 velocity=58 time=0
EXTRACT: note_off channel=2 note=65 velocity=127 time=0
EXTRACT: note_off channel=3 note=32 velocity=97 time=0
EXTRACT: note_off channel=4 note=32 velocity=97 time=0
EXTRACT: note_off channel=4 note=44 velocity=97 time=0
EXTRACT: note_off channel=6 note=77 velocity=127 time=0
EXTRACT: note_off channel=6 note=73 velocity=127 time=0
EXTRACT: note_off channel=6 note=70 velocity=127 time=0
EXTRACT: note_off channel=6 note=66 velocity=127 time=0
EXTRACT: note_off channel=10 note=66 velocity=127 time=0
EXTRACT: note_off channel=10 note=70 velocity=127 time=0
EXTRACT: note_off channel=10 note=73 velocity=127 time=0
EXTRACT: note_off channel=10 note=77 velocity=127 time=0
EXTRACT: note_on channel=1 note=44 velocity=127 time=0.0020833333333333333
EXTRACT: note_on channel=1 note=56 velocity=127 time=0
EXTRACT: note_on channel=2 note=70 velocity=58 time=0
EXTRACT: note_on channel=2 note=66 velocity=58 time=0
EXTRACT: note_on channel=2 note=63 velocity=127 time=0
EXTRACT: note_on channel=3 note=27 velocity=127 time=0
EXTRACT: note_on channel=4 note=27 velocity=127 time=0
EXTRACT: note_on channel=4 note=39 velocity=127 time=0
EXTRACT: note_on channel=6 note=70 velocity=97 time=0
EXTRACT: note_on channel=6 note=66 velocity=97 time=0
EXTRACT: note_on channel=6 note=63 velocity=97 time=0
EXTRACT: note_on channel=9 note=75 velocity=61 time=0
EXTRACT: note_on channel=9 note=38 velocity=65 time=0
EXTRACT: note_on channel=9 note=36 velocity=127 time=0
EXTRACT: note_on channel=9 note=35 velocity=127 time=0
EXTRACT: note_on channel=9 note=28 velocity=54 time=0
EXTRACT: note_on channel=10 note=63 velocity=97 time=0
EXTRACT: note_on channel=10 note=66 velocity=97 time=0
EXTRACT: note_on channel=10 note=70 velocity=97 time=0
EXTRACT: note_off channel=9 note=62 velocity=127 time=0.0010416666666666667
EXTRACT: note_off channel=9 note=75 velocity=61 time=0.11770833333333333
EXTRACT: note_off channel=9 note=28 velocity=54 time=0.07083333333333333
EXTRACT: note_off channel=9 note=38 velocity=65 time=0.034375
EXTRACT: note_off channel=9 note=36 velocity=127 time=0.005208333333333333
EXTRACT: note_off channel=9 note=35 velocity=127 time=0
EXTRACT: note_on channel=1 note=58 velocity=85 time=0.020833333333333332
EXTRACT: note_on channel=1 note=46 velocity=85 time=0
EXTRACT: note_on channel=9 note=75 velocity=61 time=0
EXTRACT: note_on channel=9 note=28 velocity=56 time=0
EXTRACT: note_off channel=9 note=75 velocity=61 time=0.11875
EXTRACT: note_on channel=9 note=75 velocity=61 time=0.00625
EXTRACT: note_off channel=9 note=28 velocity=56 time=0.06458333333333333
EXTRACT: note_off channel=1 note=56 velocity=127 time=0.04791666666666666
EXTRACT: note_off channel=9 note=75 velocity=61 time=0.00625
EXTRACT: note_off channel=1 note=58 velocity=85 time=0.004166666666666667
EXTRACT: note_off channel=1 note=46 velocity=85 time=0
EXTRACT: note_on channel=1 note=56 velocity=87 time=0.0020833333333333333
EXTRACT: note_on channel=1 note=44 velocity=87 time=0
EXTRACT: note_on channel=9 note=75 velocity=61 time=0
EXTRACT: note_on channel=9 note=62 velocity=127 time=0
EXTRACT: note_on channel=9 note=37 velocity=127 time=0
EXTRACT: note_on channel=9 note=42 velocity=127 time=0
EXTRACT: note_on channel=9 note=28 velocity=52 time=0
EXTRACT: note_off channel=1 note=44 velocity=127 time=0.019791666666666666
EXTRACT: note_off channel=9 note=75 velocity=61 time=0.09895833333333333
EXTRACT: note_off channel=9 note=28 velocity=52 time=0.07083333333333333
EXTRACT: note_off channel=9 note=37 velocity=127 time=0.03958333333333333
EXTRACT: note_off channel=9 note=42 velocity=127 time=0
EXTRACT: note_on channel=1 note=58 velocity=127 time=0.020833333333333332
EXTRACT: note_on channel=1 note=46 velocity=127 time=0
EXTRACT: note_on channel=9 note=75 velocity=61 time=0
EXTRACT: note_on channel=9 note=38 velocity=67 time=0
EXTRACT: note_on channel=9 note=36 velocity=127 time=0
EXTRACT: note_on channel=9 note=35 velocity=127 time=0
EXTRACT: note_on channel=9 note=28 velocity=52 time=0
EXTRACT: note_off channel=9 note=62 velocity=127 time=0.0010416666666666667
EXTRACT: note_off channel=9 note=75 velocity=61 time=0.11770833333333333
EXTRACT: note_off channel=9 note=28 velocity=52 time=0.07083333333333333
EXTRACT: note_off channel=9 note=38 velocity=67 time=0.034375
EXTRACT: note_off channel=9 note=36 velocity=127 time=0.005208333333333333
EXTRACT: note_off channel=9 note=35 velocity=127 time=0
EXTRACT: note_off channel=1 note=58 velocity=127 time=0.01875
EXTRACT: note_off channel=1 note=46 velocity=127 time=0
EXTRACT: note_on channel=1 note=61 velocity=127 time=0.0020833333333333333
EXTRACT: note_on channel=1 note=49 velocity=127 time=0
EXTRACT: note_on channel=9 note=28 velocity=52 time=0
EXTRACT: note_off channel=1 note=56 velocity=87 time=0.019791666666666666
EXTRACT: note_off channel=1 note=44 velocity=87 time=0
EXTRACT: note_off channel=9 note=28 velocity=52 time=0.16979166666666667
EXTRACT: note_off channel=1 note=61 velocity=127 time=0.058333333333333334
EXTRACT: note_off channel=1 note=49 velocity=127 time=0
EXTRACT: note_on channel=1 note=58 velocity=127 time=0.0020833333333333333
EXTRACT: note_on channel=1 note=46 velocity=127 time=0
EXTRACT: note_on channel=9 note=75 velocity=56 time=0
EXTRACT: note_on channel=9 note=38 velocity=67 time=0
EXTRACT: note_on channel=9 note=36 velocity=127 time=0
EXTRACT: note_on channel=9 note=35 velocity=127 time=0
EXTRACT: note_on channel=9 note=28 velocity=52 time=0
EXTRACT: note_on channel=9 note=43 velocity=43 time=0
EXTRACT: note_off channel=9 note=43 velocity=43 time=0.096875
EXTRACT: note_off channel=9 note=75 velocity=56 time=0.021875
EXTRACT: note_on channel=9 note=41 velocity=43 time=0.00625
EXTRACT: note_off channel=9 note=28 velocity=52 time=0.06458333333333333
EXTRACT: note_off channel=9 note=41 velocity=43 time=0.03229166666666666
EXTRACT: note_off channel=9 note=38 velocity=67 time=0.0020833333333333333
EXTRACT: note_off channel=9 note=36 velocity=127 time=0.005208333333333333
EXTRACT: note_off channel=9 note=35 velocity=127 time=0
EXTRACT: note_off channel=1 note=58 velocity=127 time=0.01875
EXTRACT: note_off channel=1 note=46 velocity=127 time=0
EXTRACT: note_on channel=1 note=58 velocity=127 time=0.0020833333333333333
EXTRACT: note_on channel=1 note=46 velocity=127 time=0
EXTRACT: note_on channel=9 note=62 velocity=127 time=0
EXTRACT: note_on channel=9 note=37 velocity=127 time=0
EXTRACT: note_on channel=9 note=42 velocity=127 time=0
EXTRACT: note_on channel=9 note=28 velocity=52 time=0
EXTRACT: note_on channel=9 note=38 velocity=65 time=0.125
EXTRACT: note_on channel=9 note=36 velocity=127 time=0
EXTRACT: note_on channel=9 note=35 velocity=127 time=0
EXTRACT: note_off channel=9 note=28 velocity=52 time=0.06458333333333333
EXTRACT: note_off channel=9 note=37 velocity=127 time=0.03958333333333333
EXTRACT: note_off channel=9 note=42 velocity=127 time=0
EXTRACT: note_off channel=1 note=58 velocity=127 time=0.01875
EXTRACT: note_off channel=1 note=46 velocity=127 time=0
EXTRACT: note_on channel=1 note=58 velocity=127 time=0.0020833333333333333
EXTRACT: note_on channel=1 note=46 velocity=127 time=0
EXTRACT: note_on channel=9 note=75 velocity=60 time=0
EXTRACT: note_on channel=9 note=62 velocity=127 time=0
EXTRACT: note_on channel=9 note=37 velocity=127 time=0
EXTRACT: note_on channel=9 note=42 velocity=127 time=0
EXTRACT: note_on channel=9 note=28 velocity=54 time=0
EXTRACT: note_off channel=9 note=62 velocity=127 time=0.0010416666666666667
EXTRACT: note_off channel=9 note=38 velocity=65 time=0.09791666666666667
EXTRACT: note_off channel=9 note=36 velocity=127 time=0.005208333333333333
EXTRACT: note_off channel=9 note=35 velocity=127 time=0
EXTRACT: note_off channel=9 note=75 velocity=60 time=0.014583333333333334
EXTRACT: note_on channel=9 note=75 velocity=58 time=0.00625
EXTRACT: note_off channel=9 note=28 velocity=54 time=0.06458333333333333
EXTRACT: note_off channel=9 note=37 velocity=127 time=0.03958333333333333
EXTRACT: note_off channel=9 note=42 velocity=127 time=0
EXTRACT: note_off channel=9 note=75 velocity=58 time=0.014583333333333334
EXTRACT: note_off channel=1 note=58 velocity=127 time=0.004166666666666667
EXTRACT: note_off channel=1 note=46 velocity=127 time=0
EXTRACT: note_off channel=2 note=70 velocity=58 time=0
EXTRACT: note_off channel=2 note=66 velocity=58 time=0
EXTRACT: note_off channel=2 note=63 velocity=127 time=0
EXTRACT: note_off channel=6 note=70 velocity=97 time=0
EXTRACT: note_off channel=6 note=66 velocity=97 time=0
EXTRACT: note_off channel=6 note=63 velocity=97 time=0
EXTRACT: note_off channel=10 note=63 velocity=97 time=0
EXTRACT: note_off channel=10 note=66 velocity=97 time=0
EXTRACT: note_off channel=10 note=70 velocity=97 time=0
EXTRACT: note_on channel=1 note=56 velocity=127 time=0.0020833333333333333
EXTRACT: note_on channel=1 note=44 velocity=127 time=0
EXTRACT: note_on channel=2 note=66 velocity=127 time=0
EXTRACT: note_on channel=2 note=63 velocity=127 time=0
EXTRACT: note_on channel=3 note=34 velocity=127 time=0
EXTRACT: note_on channel=4 note=34 velocity=127 time=0
EXTRACT: note_on channel=4 note=46 velocity=127 time=0
EXTRACT: note_on channel=6 note=78 velocity=127 time=0
EXTRACT: note_on channel=9 note=75 velocity=61 time=0
EXTRACT: note_on channel=9 note=38 velocity=65 time=0
EXTRACT: note_on channel=9 note=36 velocity=127 time=0
EXTRACT: note_on channel=9 note=35 velocity=127 time=0
EXTRACT: note_on channel=9 note=28 velocity=54 time=0
EXTRACT: note_on channel=10 note=78 velocity=127 time=0
EXTRACT: note_off channel=9 note=62 velocity=127 time=0.0010416666666666667
EXTRACT: note_off channel=3 note=27 velocity=127 time=0.0125
EXTRACT: note_off channel=4 note=27 velocity=127 time=0
EXTRACT: note_off channel=4 note=39 velocity=127 time=0
EXTRACT: note_off channel=9 note=75 velocity=61 time=0.10520833333333333
EXTRACT: note_off channel=9 note=28 velocity=54 time=0.07083333333333333
EXTRACT: note_off channel=9 note=38 velocity=65 time=0.034375
EXTRACT: note_off channel=9 note=36 velocity=127 time=0.005208333333333333
EXTRACT: note_off channel=9 note=35 velocity=127 time=0
EXTRACT: note_on channel=1 note=58 velocity=87 time=0.020833333333333332
EXTRACT: note_on channel=1 note=46 velocity=87 time=0
EXTRACT: note_on channel=9 note=75 velocity=61 time=0
EXTRACT: note_on channel=9 note=28 velocity=56 time=0
EXTRACT: note_off channel=9 note=75 velocity=61 time=0.11875
EXTRACT: note_on channel=9 note=75 velocity=61 time=0.00625
EXTRACT: note_off channel=9 note=28 velocity=56 time=0.06458333333333333
EXTRACT: note_off channel=1 note=56 velocity=127 time=0.026041666666666668
EXTRACT: note_off channel=1 note=44 velocity=127 time=0
EXTRACT: note_off channel=9 note=75 velocity=61 time=0.028125
EXTRACT: note_off channel=1 note=58 velocity=87 time=0.004166666666666667
EXTRACT: note_off channel=1 note=46 velocity=87 time=0
EXTRACT: note_off channel=2 note=66 velocity=127 time=0
EXTRACT: note_off channel=2 note=63 velocity=127 time=0
EXTRACT: note_off channel=6 note=78 velocity=127 time=0
EXTRACT: note_off channel=10 note=78 velocity=127 time=0
EXTRACT: note_on channel=1 note=56 velocity=92 time=0.0020833333333333333
EXTRACT: note_on channel=1 note=44 velocity=92 time=0
EXTRACT: note_on channel=2 note=65 velocity=127 time=0
EXTRACT: note_on channel=2 note=61 velocity=127 time=0
EXTRACT: note_on channel=6 note=77 velocity=127 time=0
EXTRACT: note_on channel=6 note=73 velocity=127 time=0
EXTRACT: note_on channel=6 note=70 velocity=127 time=0
EXTRACT: note_on channel=9 note=75 velocity=61 time=0
EXTRACT: note_on channel=9 note=62 velocity=127 time=0
EXTRACT: note_on channel=9 note=37 velocity=127 time=0
EXTRACT: note_on channel=9 note=42 velocity=127 time=0
EXTRACT: note_on channel=9 note=28 velocity=52 time=0
EXTRACT: note_on channel=10 note=70 velocity=127 time=0
EXTRACT: note_on channel=10 note=73 velocity=127 time=0
EXTRACT: note_on channel=10 note=77 velocity=127 time=0
EXTRACT: note_off channel=9 note=75 velocity=61 time=0.11875
EXTRACT: note_off channel=9 note=28 velocity=52 time=0.07083333333333333
EXTRACT: note_off channel=9 note=37 velocity=127 time=0.03958333333333333
EXTRACT: note_off channel=9 note=42 velocity=127 time=0
EXTRACT: note_on channel=1 note=58 velocity=127 time=0.020833333333333332
EXTRACT: note_on channel=1 note=46 velocity=127 time=0
EXTRACT: note_on channel=9 note=75 velocity=61 time=0
EXTRACT: note_on channel=9 note=38 velocity=67 time=0
EXTRACT: note_on channel=9 note=36 velocity=127 time=0
EXTRACT: note_on channel=9 note=35 velocity=127 time=0
EXTRACT: note_on channel=9 note=28 velocity=52 time=0
EXTRACT: note_off channel=9 note=62 velocity=127 time=0.0010416666666666667
EXTRACT: note_off channel=9 note=75 velocity=61 time=0.11770833333333333
EXTRACT: note_off channel=9 note=28 velocity=52 time=0.07083333333333333
EXTRACT: note_off channel=9 note=38 velocity=67 time=0.034375
EXTRACT: note_off channel=9 note=36 velocity=127 time=0.005208333333333333
EXTRACT: note_off channel=9 note=35 velocity=127 time=0
EXTRACT: note_off channel=1 note=58 velocity=127 time=0.01875
EXTRACT: note_off channel=1 note=46 velocity=127 time=0
EXTRACT: note_on channel=1 note=61 velocity=127 time=0.0020833333333333333
EXTRACT: note_on channel=1 note=49 velocity=127 time=0
EXTRACT: note_on channel=9 note=28 velocity=52 time=0
EXTRACT: note_off channel=1 note=56 velocity=92 time=0.019791666666666666
EXTRACT: note_off channel=1 note=44 velocity=92 time=0
EXTRACT: note_off channel=9 note=28 velocity=52 time=0.16979166666666667
EXTRACT: note_on channel=9 note=75 velocity=56 time=0.06041666666666667
EXTRACT: note_on channel=9 note=38 velocity=67 time=0
EXTRACT: note_on channel=9 note=36 velocity=127 time=0
EXTRACT: note_on channel=9 note=35 velocity=127 time=0
EXTRACT: note_on channel=9 note=28 velocity=52 time=0
EXTRACT: note_on channel=9 note=43 velocity=43 time=0
EXTRACT: note_off channel=9 note=43 velocity=43 time=0.096875
EXTRACT: note_off channel=9 note=75 velocity=56 time=0.021875
EXTRACT: note_on channel=9 note=41 velocity=43 time=0.00625
EXTRACT: note_off channel=9 note=28 velocity=52 time=0.06458333333333333
EXTRACT: note_off channel=9 note=41 velocity=43 time=0.03229166666666666
EXTRACT: note_off channel=9 note=38 velocity=67 time=0.0020833333333333333
EXTRACT: note_off channel=9 note=36 velocity=127 time=0.005208333333333333
EXTRACT: note_off channel=9 note=35 velocity=127 time=0
EXTRACT: note_off channel=1 note=61 velocity=127 time=0.01875
EXTRACT: note_off channel=1 note=49 velocity=127 time=0
EXTRACT: note_off channel=2 note=65 velocity=127 time=0
EXTRACT: note_off channel=2 note=61 velocity=127 time=0
EXTRACT: note_off channel=3 note=34 velocity=127 time=0
EXTRACT: note_off channel=4 note=34 velocity=127 time=0
EXTRACT: note_off channel=4 note=46 velocity=127 time=0
EXTRACT: note_off channel=6 note=77 velocity=127 time=0
EXTRACT: note_off channel=6 note=73 velocity=127 time=0
EXTRACT: note_off channel=6 note=70 velocity=127 time=0
EXTRACT: note_off channel=10 note=70 velocity=127 time=0
EXTRACT: note_off channel=10 note=73 velocity=127 time=0
EXTRACT: note_off channel=10 note=77 velocity=127 time=0
EXTRACT: note_on channel=1 note=58 velocity=127 time=0.0020833333333333333
EXTRACT: note_on channel=1 note=46 velocity=127 time=0
EXTRACT: note_on channel=2 note=68 velocity=127 time=0
EXTRACT: note_on channel=6 note=73 velocity=127 time=0
EXTRACT: note_on channel=9 note=62 velocity=127 time=0
EXTRACT: note_on channel=9 note=37 velocity=127 time=0
EXTRACT: note_on channel=9 note=42 velocity=127 time=0
EXTRACT: note_on channel=9 note=28 velocity=52 time=0
EXTRACT: note_on channel=10 note=73 velocity=127 time=0
EXTRACT: note_on channel=9 note=38 velocity=65 time=0.125
EXTRACT: note_on channel=9 note=36 velocity=127 time=0
EXTRACT: note_on channel=9 note=35 velocity=127 time=0
EXTRACT: note_off channel=9 note=28 velocity=52 time=0.06458333333333333
EXTRACT: note_off channel=9 note=37 velocity=127 time=0.03958333333333333
EXTRACT: note_off channel=9 note=42 velocity=127 time=0
EXTRACT: note_off channel=1 note=58 velocity=127 time=0.01875
EXTRACT: note_off channel=1 note=46 velocity=127 time=0
EXTRACT: note_on channel=1 note=58 velocity=127 time=0.0020833333333333333
EXTRACT: note_on channel=1 note=46 velocity=127 time=0
EXTRACT: note_on channel=3 note=36 velocity=97 time=0
EXTRACT: note_on channel=4 note=36 velocity=97 time=0
EXTRACT: note_on channel=4 note=48 velocity=97 time=0
EXTRACT: note_on channel=9 note=75 velocity=60 time=0
EXTRACT: note_on channel=9 note=62 velocity=127 time=0
EXTRACT: note_on channel=9 note=37 velocity=127 time=0
EXTRACT: note_on channel=9 note=42 velocity=127 time=0
EXTRACT: note_on channel=9 note=28 velocity=54 time=0
EXTRACT: note_off channel=9 note=62 velocity=127 time=0.0010416666666666667
EXTRACT: note_off channel=9 note=38 velocity=65 time=0.09791666666666667
EXTRACT: note_off channel=9 note=36 velocity=127 time=0.005208333333333333
EXTRACT: note_off channel=9 note=35 velocity=127 time=0
EXTRACT: note_off channel=9 note=75 velocity=60 time=0.014583333333333334
EXTRACT: note_off channel=3 note=36 velocity=97 time=0.004166666666666667
EXTRACT: note_off channel=4 note=36 velocity=97 time=0
EXTRACT: note_off channel=4 note=48 velocity=97 time=0
EXTRACT: note_on channel=3 note=37 velocity=97 time=0.0020833333333333333
EXTRACT: note_on channel=4 note=37 velocity=97 time=0
EXTRACT: note_on channel=4 note=49 velocity=97 time=0
EXTRACT: note_on channel=9 note=75 velocity=58 time=0
EXTRACT: note_off channel=9 note=28 velocity=54 time=0.06458333333333333
EXTRACT: note_off channel=9 note=37 velocity=127 time=0.03958333333333333
EXTRACT: note_off channel=9 note=42 velocity=127 time=0
EXTRACT: note_off channel=9 note=75 velocity=58 time=0.014583333333333334
EXTRACT: note_off channel=1 note=58 velocity=127 time=0.004166666666666667
EXTRACT: note_off channel=1 note=46 velocity=127 time=0
EXTRACT: note_off channel=2 note=68 velocity=127 time=0
EXTRACT: note_off channel=3 note=37 velocity=97 time=0
EXTRACT: note_off channel=4 note=37 velocity=97 time=0
EXTRACT: note_off channel=4 note=49 velocity=97 time=0
EXTRACT: note_off channel=6 note=73 velocity=127 time=0
EXTRACT: note_off channel=10 note=73 velocity=127 time=0
EXTRACT: note_on channel=1 note=44 velocity=127 time=0.0020833333333333333
EXTRACT: note_on channel=1 note=56 velocity=127 time=0
EXTRACT: note_on channel=2 note=73 velocity=56 time=0
EXTRACT: note_on channel=2 note=70 velocity=56 time=0
EXTRACT: note_on channel=2 note=66 velocity=127 time=0
EXTRACT: note_on channel=3 note=30 velocity=127 time=0
EXTRACT: note_on channel=4 note=30 velocity=127 time=0
EXTRACT: note_on channel=4 note=42 velocity=127 time=0
EXTRACT: note_on channel=6 note=73 velocity=97 time=0
EXTRACT: note_on channel=6 note=70 velocity=97 time=0
EXTRACT: note_on channel=6 note=66 velocity=97 time=0
EXTRACT: note_on channel=9 note=75 velocity=61 time=0
EXTRACT: note_on channel=9 note=38 velocity=65 time=0
EXTRACT: note_on channel=9 note=36 velocity=127 time=0
EXTRACT: note_on channel=9 note=35 velocity=127 time=0
EXTRACT: note_on channel=9 note=28 velocity=54 time=0
EXTRACT: note_on channel=10 note=66 velocity=97 time=0
EXTRACT: note_on channel=10 note=70 velocity=97 time=0
EXTRACT: note_on channel=10 note=73 velocity=97 time=0
EXTRACT: note_off channel=9 note=62 velocity=127 time=0.0010416666666666667
EXTRACT: note_off channel=9 note=75 velocity=61 time=0.11770833333333333
EXTRACT: note_off channel=9 note=28 velocity=54 time=0.07083333333333333
EXTRACT: note_off channel=9 note=38 velocity=65 time=0.034375
EXTRACT: note_off channel=9 note=36 velocity=127 time=0.005208333333333333
EXTRACT: note_off channel=9 note=35 velocity=127 time=0
EXTRACT: note_on channel=1 note=58 velocity=78 time=0.020833333333333332
EXTRACT: note_on channel=1 note=46 velocity=78 time=0
EXTRACT: note_on channel=9 note=75 velocity=61 time=0
EXTRACT: note_on channel=9 note=28 velocity=56 time=0
EXTRACT: note_off channel=9 note=75 velocity=61 time=0.11875
EXTRACT: note_on channel=9 note=75 velocity=61 time=0.00625
EXTRACT: note_off channel=1 note=56 velocity=127 time=0.0625
EXTRACT: note_off channel=9 note=28 velocity=56 time=0.0020833333333333333
EXTRACT: note_off channel=9 note=75 velocity=61 time=0.05416666666666667
EXTRACT: note_off channel=1 note=58 velocity=78 time=0.004166666666666667
EXTRACT: note_off channel=1 note=46 velocity=78 time=0
EXTRACT: note_on channel=1 note=58 velocity=127 time=0.0020833333333333333
EXTRACT: note_on channel=1 note=46 velocity=127 time=0
EXTRACT: note_on channel=1 note=56 velocity=58 time=0
EXTRACT: note_on channel=1 note=44 velocity=58 time=0
EXTRACT: note_on channel=9 note=75 velocity=61 time=0
EXTRACT: note_on channel=9 note=62 velocity=127 time=0
EXTRACT: note_on channel=9 note=37 velocity=127 time=0
EXTRACT: note_on channel=9 note=42 velocity=127 time=0
EXTRACT: note_on channel=9 note=28 velocity=52 time=0
EXTRACT: note_off channel=1 note=44 velocity=127 time=0.0020833333333333333
EXTRACT: note_off channel=9 note=75 velocity=61 time=0.11666666666666667
EXTRACT: note_off channel=9 note=28 velocity=52 time=0.07083333333333333
EXTRACT: note_off channel=9 note=37 velocity=127 time=0.03958333333333333
EXTRACT: note_off channel=9 note=42 velocity=127 time=0
EXTRACT: note_off channel=1 note=58 velocity=127 time=0.01875
EXTRACT: note_off channel=1 note=46 velocity=127 time=0
EXTRACT: note_on channel=1 note=56 velocity=127 time=0.0020833333333333333
EXTRACT: note_on channel=1 note=44 velocity=127 time=0
EXTRACT: note_on channel=9 note=75 velocity=61 time=0
EXTRACT: note_on channel=9 note=38 velocity=67 time=0
EXTRACT: note_on channel=9 note=36 velocity=127 time=0
EXTRACT: note_on channel=9 note=35 velocity=127 time=0
EXTRACT: note_on channel=9 note=28 velocity=52 time=0
EXTRACT: note_off channel=9 note=62 velocity=127 time=0.0010416666666666667
EXTRACT: note_off channel=9 note=75 velocity=61 time=0.11770833333333333
EXTRACT: note_off channel=9 note=28 velocity=52 time=0.07083333333333333
EXTRACT: note_off channel=9 note=38 velocity=67 time=0.034375
EXTRACT: note_off channel=9 note=36 velocity=127 time=0.005208333333333333
EXTRACT: note_off channel=9 note=35 velocity=127 time=0
EXTRACT: note_off channel=1 note=56 velocity=127 time=0.01875
EXTRACT: note_off channel=1 note=44 velocity=127 time=0
EXTRACT: note_on channel=1 note=61 velocity=127 time=0.0020833333333333333
EXTRACT: note_on channel=1 note=49 velocity=127 time=0
EXTRACT: note_on channel=9 note=28 velocity=52 time=0
EXTRACT: note_off channel=1 note=56 velocity=58 time=0.019791666666666666
EXTRACT: note_off channel=1 note=44 velocity=58 time=0
EXTRACT: note_off channel=9 note=28 velocity=52 time=0.16979166666666667
EXTRACT: note_off channel=1 note=61 velocity=127 time=0.058333333333333334
EXTRACT: note_off channel=1 note=49 velocity=127 time=0
EXTRACT: note_on channel=1 note=61 velocity=127 time=0.0020833333333333333
EXTRACT: note_on channel=1 note=49 velocity=127 time=0
EXTRACT: note_on channel=9 note=75 velocity=56 time=0
EXTRACT: note_on channel=9 note=38 velocity=67 time=0
EXTRACT: note_on channel=9 note=36 velocity=127 time=0
EXTRACT: note_on channel=9 note=35 velocity=127 time=0
EXTRACT: note_on channel=9 note=28 velocity=52 time=0
EXTRACT: note_on channel=9 note=43 velocity=43 time=0
EXTRACT: note_off channel=9 note=43 velocity=43 time=0.096875
EXTRACT: note_off channel=9 note=75 velocity=56 time=0.021875
EXTRACT: note_on channel=9 note=41 velocity=43 time=0.00625
EXTRACT: note_off channel=9 note=28 velocity=52 time=0.06458333333333333
EXTRACT: note_off channel=9 note=41 velocity=43 time=0.03229166666666666
EXTRACT: note_off channel=9 note=38 velocity=67 time=0.0020833333333333333
EXTRACT: note_off channel=9 note=36 velocity=127 time=0.005208333333333333
EXTRACT: note_off channel=9 note=35 velocity=127 time=0
EXTRACT: note_off channel=1 note=61 velocity=127 time=0.01875
EXTRACT: note_off channel=1 note=49 velocity=127 time=0
EXTRACT: note_on channel=1 note=58 velocity=127 time=0.0020833333333333333
EXTRACT: note_on channel=1 note=46 velocity=127 time=0
EXTRACT: note_on channel=9 note=62 velocity=127 time=0
EXTRACT: note_on channel=9 note=37 velocity=127 time=0
EXTRACT: note_on channel=9 note=42 velocity=127 time=0
EXTRACT: note_on channel=9 note=28 velocity=52 time=0
EXTRACT: note_on channel=9 note=38 velocity=65 time=0.125
EXTRACT: note_on channel=9 note=36 velocity=127 time=0
EXTRACT: note_on channel=9 note=35 velocity=127 time=0
EXTRACT: note_off channel=9 note=28 velocity=52 time=0.06458333333333333
EXTRACT: note_off channel=9 note=37 velocity=127 time=0.03958333333333333
EXTRACT: note_off channel=9 note=42 velocity=127 time=0
EXTRACT: note_off channel=1 note=58 velocity=127 time=0.01875
EXTRACT: note_off channel=1 note=46 velocity=127 time=0
EXTRACT: note_on channel=1 note=58 velocity=127 time=0.0020833333333333333
EXTRACT: note_on channel=1 note=46 velocity=127 time=0
EXTRACT: note_on channel=9 note=75 velocity=60 time=0
EXTRACT: note_on channel=9 note=62 velocity=127 time=0
EXTRACT: note_on channel=9 note=37 velocity=127 time=0
EXTRACT: note_on channel=9 note=42 velocity=127 time=0
EXTRACT: note_on channel=9 note=28 velocity=54 time=0
EXTRACT: note_off channel=9 note=62 velocity=127 time=0.0010416666666666667
EXTRACT: note_off channel=9 note=38 velocity=65 time=0.09791666666666667
EXTRACT: note_off channel=9 note=36 velocity=127 time=0.005208333333333333
EXTRACT: note_off channel=9 note=35 velocity=127 time=0
EXTRACT: note_off channel=9 note=75 velocity=60 time=0.014583333333333334
EXTRACT: note_on channel=9 note=75 velocity=58 time=0.00625
EXTRACT: note_off channel=9 note=28 velocity=54 time=0.06458333333333333
EXTRACT: note_off channel=9 note=37 velocity=127 time=0.03958333333333333
EXTRACT: note_off channel=9 note=42 velocity=127 time=0
EXTRACT: note_off channel=9 note=75 velocity=58 time=0.014583333333333334
EXTRACT: note_off channel=1 note=58 velocity=127 time=0.004166666666666667
EXTRACT: note_off channel=1 note=46 velocity=127 time=0
EXTRACT: note_off channel=2 note=73 velocity=56 time=0
EXTRACT: note_off channel=2 note=70 velocity=56 time=0
EXTRACT: note_off channel=2 note=66 velocity=127 time=0
EXTRACT: note_off channel=3 note=30 velocity=127 time=0
EXTRACT: note_off channel=4 note=30 velocity=127 time=0
EXTRACT: note_off channel=4 note=42 velocity=127 time=0
EXTRACT: note_off channel=6 note=73 velocity=97 time=0
EXTRACT: note_off channel=6 note=70 velocity=97 time=0
EXTRACT: note_off channel=6 note=66 velocity=97 time=0
EXTRACT: note_off channel=10 note=66 velocity=97 time=0
EXTRACT: note_off channel=10 note=70 velocity=97 time=0
EXTRACT: note_off channel=10 note=73 velocity=97 time=0
EXTRACT: note_on channel=1 note=44 velocity=45 time=0.0020833333333333333
EXTRACT: note_on channel=1 note=56 velocity=127 time=0
EXTRACT: note_on channel=2 note=66 velocity=58 time=0
EXTRACT: note_on channel=2 note=70 velocity=58 time=0
EXTRACT: note_on channel=2 note=73 velocity=58 time=0
EXTRACT: note_on channel=2 note=65 velocity=127 time=0
EXTRACT: note_on channel=3 note=30 velocity=127 time=0
EXTRACT: note_on channel=4 note=30 velocity=127 time=0
EXTRACT: note_on channel=4 note=42 velocity=127 time=0
EXTRACT: note_on channel=6 note=66 velocity=127 time=0
EXTRACT: note_on channel=6 note=70 velocity=127 time=0
EXTRACT: note_on channel=6 note=73 velocity=127 time=0
EXTRACT: note_on channel=6 note=77 velocity=127 time=0
EXTRACT: note_on channel=9 note=36 velocity=127 time=0
EXTRACT: note_on channel=9 note=35 velocity=127 time=0
EXTRACT: note_on channel=9 note=28 velocity=54 time=0
EXTRACT: note_on channel=9 note=38 velocity=65 time=0
EXTRACT: note_on channel=9 note=75 velocity=61 time=0
EXTRACT: note_on channel=10 note=77 velocity=127 time=0
EXTRACT: note_on channel=10 note=73 velocity=127 time=0
EXTRACT: note_on channel=10 note=70 velocity=127 time=0
EXTRACT: note_on channel=10 note=66 velocity=127 time=0
EXTRACT: note_off channel=9 note=62 velocity=127 time=0.0010416666666666667
EXTRACT: note_off channel=9 note=75 velocity=61 time=0.11770833333333333
EXTRACT: note_off channel=9 note=28 velocity=54 time=0.07083333333333333
EXTRACT: note_off channel=9 note=38 velocity=65 time=0.034375
EXTRACT: note_off channel=9 note=36 velocity=127 time=0.005208333333333333
EXTRACT: note_off channel=9 note=35 velocity=127 time=0
EXTRACT: note_on channel=1 note=58 velocity=76 time=0.020833333333333332
EXTRACT: note_on channel=1 note=46 velocity=76 time=0
EXTRACT: note_on channel=9 note=28 velocity=56 time=0
EXTRACT: note_on channel=9 note=75 velocity=61 time=0
EXTRACT: note_off channel=9 note=75 velocity=61 time=0.11875
EXTRACT: note_on channel=9 note=75 velocity=61 time=0.00625
EXTRACT: note_off channel=9 note=28 velocity=56 time=0.06458333333333333
EXTRACT: note_off channel=1 note=56 velocity=127 time=0.030208333333333334
EXTRACT: note_off channel=9 note=75 velocity=61 time=0.02395833333333333
EXTRACT: note_off channel=1 note=58 velocity=76 time=0.004166666666666667
EXTRACT: note_off channel=1 note=46 velocity=76 time=0
EXTRACT: note_on channel=1 note=56 velocity=76 time=0.0020833333333333333
EXTRACT: note_on channel=1 note=44 velocity=76 time=0
EXTRACT: note_on channel=9 note=37 velocity=127 time=0
EXTRACT: note_on channel=9 note=42 velocity=127 time=0
EXTRACT: note_on channel=9 note=28 velocity=52 time=0
EXTRACT: note_on channel=9 note=75 velocity=61 time=0
EXTRACT: note_on channel=9 note=62 velocity=127 time=0
EXTRACT: note_off channel=1 note=44 velocity=45 time=0.0020833333333333333
EXTRACT: note_off channel=9 note=75 velocity=61 time=0.11666666666666667
EXTRACT: note_off channel=9 note=28 velocity=52 time=0.07083333333333333
EXTRACT: note_off channel=9 note=37 velocity=127 time=0.03958333333333333
EXTRACT: note_off channel=9 note=42 velocity=127 time=0
EXTRACT: note_on channel=0 note=61 velocity=127 time=0.020833333333333332
EXTRACT: note_on channel=9 note=36 velocity=127 time=0
EXTRACT: note_on channel=9 note=35 velocity=127 time=0
EXTRACT: note_on channel=9 note=28 velocity=52 time=0
EXTRACT: note_on channel=9 note=38 velocity=67 time=0
EXTRACT: note_on channel=9 note=75 velocity=61 time=0
EXTRACT: note_off channel=9 note=62 velocity=127 time=0.0010416666666666667
EXTRACT: note_off channel=9 note=75 velocity=61 time=0.11770833333333333
EXTRACT: note_off channel=9 note=28 velocity=52 time=0.07083333333333333
EXTRACT: note_off channel=9 note=38 velocity=67 time=0.034375
EXTRACT: note_off channel=9 note=36 velocity=127 time=0.005208333333333333
EXTRACT: note_off channel=9 note=35 velocity=127 time=0
EXTRACT: note_off channel=0 note=61 velocity=127 time=0.01875
EXTRACT: note_on channel=0 note=70 velocity=127 time=0.0020833333333333333
EXTRACT: note_on channel=9 note=28 velocity=52 time=0
EXTRACT: note_off channel=1 note=56 velocity=76 time=0.019791666666666666
EXTRACT: note_off channel=1 note=44 velocity=76 time=0
EXTRACT: note_off channel=9 note=28 velocity=52 time=0.16979166666666667
EXTRACT: note_off channel=0 note=70 velocity=127 time=0.058333333333333334
EXTRACT: note_on channel=0 note=70 velocity=127 time=0.0020833333333333333
EXTRACT: note_on channel=9 note=36 velocity=127 time=0
EXTRACT: note_on channel=9 note=35 velocity=127 time=0
EXTRACT: note_on channel=9 note=28 velocity=52 time=0
EXTRACT: note_on channel=9 note=43 velocity=43 time=0
EXTRACT: note_on channel=9 note=38 velocity=67 time=0
EXTRACT: note_on channel=9 note=75 velocity=56 time=0
EXTRACT: note_off channel=9 note=43 velocity=43 time=0.096875
EXTRACT: note_off channel=9 note=75 velocity=56 time=0.021875
EXTRACT: note_on channel=9 note=41 velocity=43 time=0.00625
EXTRACT: note_off channel=9 note=28 velocity=52 time=0.06458333333333333
EXTRACT: note_off channel=9 note=41 velocity=43 time=0.03229166666666666
EXTRACT: note_off channel=9 note=38 velocity=67 time=0.0020833333333333333
EXTRACT: note_off channel=9 note=36 velocity=127 time=0.005208333333333333
EXTRACT: note_off channel=9 note=35 velocity=127 time=0
EXTRACT: note_off channel=0 note=70 velocity=127 time=0.01875
EXTRACT: note_off channel=3 note=30 velocity=127 time=0
EXTRACT: note_off channel=4 note=30 velocity=127 time=0
EXTRACT: note_off channel=4 note=42 velocity=127 time=0
EXTRACT: note_on channel=0 note=70 velocity=127 time=0.0020833333333333333
EXTRACT: note_on channel=9 note=37 velocity=127 time=0
EXTRACT: note_on channel=9 note=42 velocity=127 time=0
EXTRACT: note_on channel=9 note=28 velocity=52 time=0
EXTRACT: note_on channel=9 note=62 velocity=127 time=0
EXTRACT: note_on channel=9 note=36 velocity=127 time=0.125
EXTRACT: note_on channel=9 note=35 velocity=127 time=0
EXTRACT: note_on channel=9 note=38 velocity=65 time=0
EXTRACT: note_off channel=9 note=28 velocity=52 time=0.06458333333333333
EXTRACT: note_off channel=9 note=37 velocity=127 time=0.03958333333333333
EXTRACT: note_off channel=9 note=42 velocity=127 time=0
EXTRACT: note_off channel=0 note=70 velocity=127 time=0.01875
EXTRACT: note_on channel=0 note=65 velocity=127 time=0.0020833333333333333
EXTRACT: note_on channel=3 note=30 velocity=97 time=0
EXTRACT: note_on channel=4 note=30 velocity=97 time=0
EXTRACT: note_on channel=4 note=42 velocity=97 time=0
EXTRACT: note_on channel=9 note=37 velocity=127 time=0
EXTRACT: note_on channel=9 note=42 velocity=127 time=0
EXTRACT: note_on channel=9 note=28 velocity=54 time=0
EXTRACT: note_on channel=9 note=75 velocity=60 time=0
EXTRACT: note_on channel=9 note=62 velocity=127 time=0
EXTRACT: note_off channel=9 note=62 velocity=127 time=0.0010416666666666667
EXTRACT: note_off channel=9 note=38 velocity=65 time=0.09791666666666667
EXTRACT: note_off channel=9 note=36 velocity=127 time=0.005208333333333333
EXTRACT: note_off channel=9 note=35 velocity=127 time=0
EXTRACT: note_off channel=9 note=75 velocity=60 time=0.014583333333333334
EXTRACT: note_off channel=3 note=30 velocity=97 time=0.004166666666666667
EXTRACT: note_off channel=4 note=30 velocity=97 time=0
EXTRACT: note_off channel=4 note=42 velocity=97 time=0
EXTRACT: note_on channel=3 note=32 velocity=97 time=0.0020833333333333333
EXTRACT: note_on channel=4 note=32 velocity=97 time=0
EXTRACT: note_on channel=4 note=44 velocity=97 time=0
EXTRACT: note_on channel=9 note=75 velocity=58 time=0
EXTRACT: note_off channel=9 note=28 velocity=54 time=0.06458333333333333
EXTRACT: note_off channel=9 note=37 velocity=127 time=0.03958333333333333
EXTRACT: note_off channel=9 note=42 velocity=127 time=0
EXTRACT: note_off channel=9 note=75 velocity=58 time=0.014583333333333334
EXTRACT: note_off channel=0 note=65 velocity=127 time=0.004166666666666667
EXTRACT: note_off channel=2 note=66 velocity=58 time=0
EXTRACT: note_off channel=2 note=70 velocity=58 time=0
EXTRACT: note_off channel=2 note=73 velocity=58 time=0
EXTRACT: note_off channel=2 note=65 velocity=127 time=0
EXTRACT: note_off channel=3 note=32 velocity=97 time=0
EXTRACT: note_off channel=4 note=32 velocity=97 time=0
EXTRACT: note_off channel=4 note=44 velocity=97 time=0
EXTRACT: note_off channel=6 note=66 velocity=127 time=0
EXTRACT: note_off channel=6 note=70 velocity=127 time=0
EXTRACT: note_off channel=6 note=73 velocity=127 time=0
EXTRACT: note_off channel=6 note=77 velocity=127 time=0
EXTRACT: note_off channel=10 note=77 velocity=127 time=0
EXTRACT: note_off channel=10 note=73 velocity=127 time=0
EXTRACT: note_off channel=10 note=70 velocity=127 time=0
EXTRACT: note_off channel=10 note=66 velocity=127 time=0
EXTRACT: note_on channel=0 note=63 velocity=127 time=0.0020833333333333333
EXTRACT: note_on channel=2 note=66 velocity=58 time=0
EXTRACT: note_on channel=2 note=70 velocity=58 time=0
EXTRACT: note_on channel=2 note=63 velocity=127 time=0
EXTRACT: note_on channel=3 note=27 velocity=127 time=0
EXTRACT: note_on channel=4 note=27 velocity=127 time=0
EXTRACT: note_on channel=4 note=39 velocity=127 time=0
EXTRACT: note_on channel=6 note=63 velocity=97 time=0
EXTRACT: note_on channel=6 note=66 velocity=97 time=0
EXTRACT: note_on channel=6 note=70 velocity=97 time=0
EXTRACT: note_on channel=9 note=28 velocity=54 time=0
EXTRACT: note_on channel=9 note=35 velocity=127 time=0
EXTRACT: note_on channel=9 note=36 velocity=127 time=0
EXTRACT: note_on channel=9 note=38 velocity=65 time=0
EXTRACT: note_on channel=9 note=75 velocity=61 time=0
EXTRACT: note_on channel=10 note=70 velocity=97 time=0
EXTRACT: note_on channel=10 note=66 velocity=97 time=0
EXTRACT: note_on channel=10 note=63 velocity=97 time=0
EXTRACT: note_off channel=9 note=62 velocity=127 time=0.0010416666666666667
EXTRACT: note_off channel=9 note=75 velocity=61 time=0.11770833333333333
EXTRACT: note_off channel=9 note=28 velocity=54 time=0.07083333333333333
EXTRACT: note_off channel=9 note=38 velocity=65 time=0.034375
EXTRACT: note_off channel=9 note=35 velocity=127 time=0.005208333333333333
EXTRACT: note_off channel=9 note=36 velocity=127 time=0
EXTRACT: note_on channel=0 note=65 velocity=92 time=0.020833333333333332
EXTRACT: note_on channel=9 note=28 velocity=56 time=0
EXTRACT: note_on channel=9 note=75 velocity=61 time=0
EXTRACT: note_off channel=9 note=75 velocity=61 time=0.11875
EXTRACT: note_on channel=9 note=75 velocity=61 time=0.00625
EXTRACT: note_off channel=9 note=28 velocity=56 time=0.06458333333333333
EXTRACT: note_off channel=0 note=63 velocity=127 time=0.026041666666666668
EXTRACT: note_off channel=9 note=75 velocity=61 time=0.028125
EXTRACT: note_off channel=0 note=65 velocity=92 time=0.004166666666666667
EXTRACT: note_on channel=0 note=63 velocity=89 time=0.0020833333333333333
EXTRACT: note_on channel=9 note=28 velocity=52 time=0
EXTRACT: note_on channel=9 note=42 velocity=127 time=0
EXTRACT: note_on channel=9 note=37 velocity=127 time=0
EXTRACT: note_on channel=9 note=62 velocity=127 time=0
EXTRACT: note_on channel=9 note=75 velocity=61 time=0
EXTRACT: note_off channel=9 note=75 velocity=61 time=0.11875
EXTRACT: note_off channel=9 note=28 velocity=52 time=0.07083333333333333
EXTRACT: note_off channel=9 note=42 velocity=127 time=0.03958333333333333
EXTRACT: note_off channel=9 note=37 velocity=127 time=0
EXTRACT: note_on channel=0 note=61 velocity=127 time=0.020833333333333332
EXTRACT: note_on channel=9 note=28 velocity=52 time=0
EXTRACT: note_on channel=9 note=35 velocity=127 time=0
EXTRACT: note_on channel=9 note=36 velocity=127 time=0
EXTRACT: note_on channel=9 note=38 velocity=67 time=0
EXTRACT: note_on channel=9 note=75 velocity=61 time=0
EXTRACT: note_off channel=9 note=62 velocity=127 time=0.0010416666666666667
EXTRACT: note_off channel=9 note=75 velocity=61 time=0.11770833333333333
EXTRACT: note_off channel=9 note=28 velocity=52 time=0.07083333333333333
EXTRACT: note_off channel=0 note=63 velocity=89 time=0.026041666666666668
EXTRACT: note_off channel=9 note=38 velocity=67 time=0.008333333333333333
EXTRACT: note_off channel=9 note=35 velocity=127 time=0.005208333333333333
EXTRACT: note_off channel=9 note=36 velocity=127 time=0
EXTRACT: note_off channel=0 note=61 velocity=127 time=0.01875
EXTRACT: note_on channel=0 note=65 velocity=127 time=0.0020833333333333333
EXTRACT: note_on channel=9 note=28 velocity=52 time=0
EXTRACT: note_off channel=9 note=28 velocity=52 time=0.18958333333333333
EXTRACT: note_off channel=0 note=65 velocity=127 time=0.058333333333333334
EXTRACT: note_on channel=0 note=65 velocity=127 time=0.0020833333333333333
EXTRACT: note_on channel=9 note=43 velocity=43 time=0
EXTRACT: note_on channel=9 note=28 velocity=52 time=0
EXTRACT: note_on channel=9 note=35 velocity=127 time=0
EXTRACT: note_on channel=9 note=36 velocity=127 time=0
EXTRACT: note_on channel=9 note=38 velocity=67 time=0
EXTRACT: note_on channel=9 note=75 velocity=56 time=0
EXTRACT: note_off channel=9 note=43 velocity=43 time=0.096875
EXTRACT: note_off channel=9 note=75 velocity=56 time=0.021875
EXTRACT: note_on channel=9 note=41 velocity=43 time=0.00625
EXTRACT: note_off channel=9 note=28 velocity=52 time=0.06458333333333333
EXTRACT: note_off channel=9 note=41 velocity=43 time=0.03229166666666666
EXTRACT: note_off channel=9 note=38 velocity=67 time=0.0020833333333333333
EXTRACT: note_off channel=9 note=35 velocity=127 time=0.005208333333333333
EXTRACT: note_off channel=9 note=36 velocity=127 time=0
EXTRACT: note_off channel=0 note=65 velocity=127 time=0.01875
EXTRACT: note_on channel=0 note=63 velocity=127 time=0.0020833333333333333
EXTRACT: note_on channel=9 note=28 velocity=52 time=0
EXTRACT: note_on channel=9 note=42 velocity=127 time=0
EXTRACT: note_on channel=9 note=37 velocity=127 time=0
EXTRACT: note_on channel=9 note=62 velocity=127 time=0
EXTRACT: note_on channel=9 note=35 velocity=127 time=0.125
EXTRACT: note_on channel=9 note=36 velocity=127 time=0
EXTRACT: note_on channel=9 note=38 velocity=65 time=0
EXTRACT: note_off channel=9 note=28 velocity=52 time=0.06458333333333333
EXTRACT: note_off channel=9 note=42 velocity=127 time=0.03958333333333333
EXTRACT: note_off channel=9 note=37 velocity=127 time=0
EXTRACT: note_off channel=0 note=63 velocity=127 time=0.01875
EXTRACT: note_on channel=0 note=65 velocity=127 time=0.0020833333333333333
EXTRACT: note_on channel=9 note=28 velocity=54 time=0
EXTRACT: note_on channel=9 note=42 velocity=127 time=0
EXTRACT: note_on channel=9 note=37 velocity=127 time=0
EXTRACT: note_on channel=9 note=62 velocity=127 time=0
EXTRACT: note_on channel=9 note=75 velocity=60 time=0
EXTRACT: note_off channel=9 note=62 velocity=127 time=0.0010416666666666667
EXTRACT: note_off channel=9 note=38 velocity=65 time=0.09791666666666667
EXTRACT: note_off channel=9 note=35 velocity=127 time=0.005208333333333333
EXTRACT: note_off channel=9 note=36 velocity=127 time=0
EXTRACT: note_off channel=9 note=75 velocity=60 time=0.014583333333333334
EXTRACT: note_on channel=9 note=75 velocity=58 time=0.00625
EXTRACT: note_off channel=9 note=28 velocity=54 time=0.06458333333333333
EXTRACT: note_off channel=9 note=42 velocity=127 time=0.03958333333333333
EXTRACT: note_off channel=9 note=37 velocity=127 time=0
EXTRACT: note_off channel=9 note=75 velocity=58 time=0.014583333333333334
EXTRACT: note_off channel=2 note=66 velocity=58 time=0.004166666666666667
EXTRACT: note_off channel=2 note=70 velocity=58 time=0
EXTRACT: note_off channel=2 note=63 velocity=127 time=0
EXTRACT: note_off channel=6 note=63 velocity=97 time=0
EXTRACT: note_off channel=6 note=66 velocity=97 time=0
EXTRACT: note_off channel=6 note=70 velocity=97 time=0
EXTRACT: note_off channel=10 note=70 velocity=97 time=0
EXTRACT: note_off channel=10 note=66 velocity=97 time=0
EXTRACT: note_off channel=10 note=63 velocity=97 time=0
EXTRACT: note_on channel=0 note=63 velocity=87 time=0.0020833333333333333
EXTRACT: note_on channel=2 note=63 velocity=127 time=0
EXTRACT: note_on channel=2 note=66 velocity=127 time=0
EXTRACT: note_on channel=3 note=34 velocity=127 time=0
EXTRACT: note_on channel=4 note=34 velocity=127 time=0
EXTRACT: note_on channel=4 note=46 velocity=127 time=0
EXTRACT: note_on channel=6 note=78 velocity=127 time=0
EXTRACT: note_on channel=9 note=28 velocity=54 time=0
EXTRACT: note_on channel=9 note=35 velocity=127 time=0
EXTRACT: note_on channel=9 note=36 velocity=127 time=0
EXTRACT: note_on channel=9 note=38 velocity=65 time=0
EXTRACT: note_on channel=9 note=75 velocity=61 time=0
EXTRACT: note_on channel=10 note=78 velocity=127 time=0
EXTRACT: note_off channel=9 note=62 velocity=127 time=0.0010416666666666667
EXTRACT: note_off channel=0 note=65 velocity=127 time=0.007291666666666667
EXTRACT: note_off channel=3 note=27 velocity=127 time=0.005208333333333333
EXTRACT: note_off channel=4 note=27 velocity=127 time=0
EXTRACT: note_off channel=4 note=39 velocity=127 time=0
EXTRACT: note_off channel=9 note=75 velocity=61 time=0.10520833333333333
EXTRACT: note_off channel=9 note=28 velocity=54 time=0.07083333333333333
EXTRACT: note_off channel=9 note=38 velocity=65 time=0.034375
EXTRACT: note_off channel=9 note=35 velocity=127 time=0.005208333333333333
EXTRACT: note_off channel=9 note=36 velocity=127 time=0
EXTRACT: note_off channel=0 note=63 velocity=87 time=0.01875
EXTRACT: note_on channel=0 note=65 velocity=87 time=0.0020833333333333333
EXTRACT: note_on channel=9 note=28 velocity=56 time=0
EXTRACT: note_on channel=9 note=75 velocity=61 time=0
EXTRACT: note_off channel=9 note=75 velocity=61 time=0.11875
EXTRACT: note_on channel=9 note=75 velocity=61 time=0.00625
EXTRACT: note_off channel=9 note=28 velocity=56 time=0.06458333333333333
EXTRACT: note_off channel=9 note=75 velocity=61 time=0.05416666666666667
EXTRACT: note_off channel=2 note=63 velocity=127 time=0.004166666666666667
EXTRACT: note_off channel=2 note=66 velocity=127 time=0
EXTRACT: note_off channel=6 note=78 velocity=127 time=0
EXTRACT: note_off channel=10 note=78 velocity=127 time=0
EXTRACT: note_on channel=2 note=61 velocity=127 time=0.0020833333333333333
EXTRACT: note_on channel=2 note=65 velocity=127 time=0
EXTRACT: note_on channel=6 note=70 velocity=127 time=0
EXTRACT: note_on channel=6 note=73 velocity=127 time=0
EXTRACT: note_on channel=6 note=77 velocity=127 time=0
EXTRACT: note_on channel=9 note=28 velocity=52 time=0
EXTRACT: note_on channel=9 note=42 velocity=127 time=0
EXTRACT: note_on channel=9 note=37 velocity=127 time=0
EXTRACT: note_on channel=9 note=62 velocity=127 time=0
EXTRACT: note_on channel=9 note=75 velocity=61 time=0
EXTRACT: note_on channel=10 note=77 velocity=127 time=0
EXTRACT: note_on channel=10 note=73 velocity=127 time=0
EXTRACT: note_on channel=10 note=70 velocity=127 time=0
EXTRACT: note_off channel=0 note=65 velocity=87 time=0.057291666666666664
EXTRACT: note_off channel=9 note=75 velocity=61 time=0.06145833333333333
EXTRACT: note_off channel=9 note=28 velocity=52 time=0.07083333333333333
EXTRACT: note_off channel=9 note=42 velocity=127 time=0.03958333333333333
EXTRACT: note_off channel=9 note=37 velocity=127 time=0
EXTRACT: note_on channel=0 note=61 velocity=127 time=0.020833333333333332
EXTRACT: note_on channel=9 note=28 velocity=52 time=0
EXTRACT: note_on channel=9 note=35 velocity=127 time=0
EXTRACT: note_on channel=9 note=36 velocity=127 time=0
EXTRACT: note_on channel=9 note=38 velocity=67 time=0
EXTRACT: note_on channel=9 note=75 velocity=61 time=0
EXTRACT: note_off channel=9 note=62 velocity=127 time=0.0010416666666666667
EXTRACT: note_off channel=9 note=75 velocity=61 time=0.11770833333333333
EXTRACT: note_off channel=9 note=28 velocity=52 time=0.07083333333333333
EXTRACT: note_off channel=9 note=38 velocity=67 time=0.034375
EXTRACT: note_off channel=9 note=35 velocity=127 time=0.005208333333333333
EXTRACT: note_off channel=9 note=36 velocity=127 time=0
EXTRACT: note_off channel=0 note=61 velocity=127 time=0.01875
EXTRACT: note_on channel=0 note=65 velocity=127 time=0.0020833333333333333
EXTRACT: note_on channel=9 note=28 velocity=52 time=0
EXTRACT: note_off channel=9 note=28 velocity=52 time=0.18958333333333333
EXTRACT: note_off channel=0 note=65 velocity=127 time=0.058333333333333334
EXTRACT: note_on channel=0 note=65 velocity=127 time=0.0020833333333333333
EXTRACT: note_on channel=9 note=43 velocity=43 time=0
EXTRACT: note_on channel=9 note=28 velocity=52 time=0
EXTRACT: note_on channel=9 note=35 velocity=127 time=0
EXTRACT: note_on channel=9 note=36 velocity=127 time=0
EXTRACT: note_on channel=9 note=38 velocity=67 time=0
EXTRACT: note_on channel=9 note=75 velocity=56 time=0
EXTRACT: note_off channel=9 note=43 velocity=43 time=0.096875
EXTRACT: note_off channel=9 note=75 velocity=56 time=0.021875
EXTRACT: note_on channel=9 note=41 velocity=43 time=0.00625
EXTRACT: note_off channel=9 note=28 velocity=52 time=0.06458333333333333
EXTRACT: note_off channel=9 note=41 velocity=43 time=0.03229166666666666
EXTRACT: note_off channel=9 note=38 velocity=67 time=0.0020833333333333333
EXTRACT: note_off channel=9 note=35 velocity=127 time=0.005208333333333333
EXTRACT: note_off channel=9 note=36 velocity=127 time=0
EXTRACT: note_off channel=0 note=65 velocity=127 time=0.01875
EXTRACT: note_off channel=2 note=61 velocity=127 time=0
EXTRACT: note_off channel=2 note=65 velocity=127 time=0
EXTRACT: note_off channel=3 note=34 velocity=127 time=0
EXTRACT: note_off channel=4 note=34 velocity=127 time=0
EXTRACT: note_off channel=4 note=46 velocity=127 time=0
EXTRACT: note_off channel=6 note=70 velocity=127 time=0
EXTRACT: note_off channel=6 note=73 velocity=127 time=0
EXTRACT: note_off channel=6 note=77 velocity=127 time=0
EXTRACT: note_off channel=10 note=77 velocity=127 time=0
EXTRACT: note_off channel=10 note=73 velocity=127 time=0
EXTRACT: note_off channel=10 note=70 velocity=127 time=0
EXTRACT: note_on channel=0 note=68 velocity=127 time=0.0020833333333333333
EXTRACT: note_on channel=2 note=68 velocity=127 time=0
EXTRACT: note_on channel=6 note=73 velocity=127 time=0
EXTRACT: note_on channel=9 note=28 velocity=52 time=0
EXTRACT: note_on channel=9 note=42 velocity=127 time=0
EXTRACT: note_on channel=9 note=37 velocity=127 time=0
EXTRACT: note_on channel=9 note=62 velocity=127 time=0
EXTRACT: note_on channel=10 note=73 velocity=127 time=0
EXTRACT: note_on channel=9 note=35 velocity=127 time=0.125
EXTRACT: note_on channel=9 note=36 velocity=127 time=0
EXTRACT: note_on channel=9 note=38 velocity=65 time=0
EXTRACT: note_off channel=9 note=28 velocity=52 time=0.06458333333333333
EXTRACT: note_off channel=9 note=42 velocity=127 time=0.03958333333333333
EXTRACT: note_off channel=9 note=37 velocity=127 time=0
EXTRACT: note_off channel=0 note=68 velocity=127 time=0.01875
EXTRACT: note_on channel=0 note=65 velocity=127 time=0.0020833333333333333
EXTRACT: note_on channel=3 note=36 velocity=97 time=0
EXTRACT: note_on channel=4 note=36 velocity=97 time=0
EXTRACT: note_on channel=4 note=48 velocity=97 time=0
EXTRACT: note_on channel=9 note=28 velocity=54 time=0
EXTRACT: note_on channel=9 note=42 velocity=127 time=0
EXTRACT: note_on channel=9 note=37 velocity=127 time=0
EXTRACT: note_on channel=9 note=62 velocity=127 time=0
EXTRACT: note_on channel=9 note=75 velocity=60 time=0
EXTRACT: note_off channel=9 note=62 velocity=127 time=0.0010416666666666667
EXTRACT: note_off channel=9 note=38 velocity=65 time=0.09791666666666667
EXTRACT: note_off channel=9 note=35 velocity=127 time=0.005208333333333333
EXTRACT: note_off channel=9 note=36 velocity=127 time=0
EXTRACT: note_off channel=9 note=75 velocity=60 time=0.014583333333333334
EXTRACT: note_off channel=3 note=36 velocity=97 time=0.004166666666666667
EXTRACT: note_off channel=4 note=36 velocity=97 time=0
EXTRACT: note_off channel=4 note=48 velocity=97 time=0
EXTRACT: note_on channel=3 note=37 velocity=97 time=0.0020833333333333333
EXTRACT: note_on channel=4 note=37 velocity=97 time=0
EXTRACT: note_on channel=4 note=49 velocity=97 time=0
EXTRACT: note_on channel=9 note=75 velocity=58 time=0
EXTRACT: note_off channel=9 note=28 velocity=54 time=0.06458333333333333
EXTRACT: note_off channel=9 note=42 velocity=127 time=0.03958333333333333
EXTRACT: note_off channel=9 note=37 velocity=127 time=0
EXTRACT: note_off channel=9 note=75 velocity=58 time=0.014583333333333334
EXTRACT: note_off channel=2 note=68 velocity=127 time=0.004166666666666667
EXTRACT: note_off channel=3 note=37 velocity=97 time=0
EXTRACT: note_off channel=4 note=37 velocity=97 time=0
EXTRACT: note_off channel=4 note=49 velocity=97 time=0
EXTRACT: note_off channel=6 note=73 velocity=127 time=0
EXTRACT: note_off channel=10 note=73 velocity=127 time=0
EXTRACT: note_on channel=0 note=68 velocity=78 time=0.0020833333333333333
EXTRACT: note_on channel=2 note=70 velocity=56 time=0
EXTRACT: note_on channel=2 note=73 velocity=56 time=0
EXTRACT: note_on channel=2 note=66 velocity=127 time=0
EXTRACT: note_on channel=3 note=30 velocity=127 time=0
EXTRACT: note_on channel=4 note=30 velocity=127 time=0
EXTRACT: note_on channel=4 note=42 velocity=127 time=0
EXTRACT: note_on channel=6 note=66 velocity=97 time=0
EXTRACT: note_on channel=6 note=70 velocity=97 time=0
EXTRACT: note_on channel=6 note=73 velocity=97 time=0
EXTRACT: note_on channel=9 note=28 velocity=54 time=0
EXTRACT: note_on channel=9 note=35 velocity=127 time=0
EXTRACT: note_on channel=9 note=36 velocity=127 time=0
EXTRACT: note_on channel=9 note=38 velocity=65 time=0
EXTRACT: note_on channel=9 note=75 velocity=61 time=0
EXTRACT: note_on channel=10 note=73 velocity=97 time=0
EXTRACT: note_on channel=10 note=70 velocity=97 time=0
EXTRACT: note_on channel=10 note=66 velocity=97 time=0
EXTRACT: note_off channel=9 note=62 velocity=127 time=0.0010416666666666667
EXTRACT: note_off channel=9 note=75 velocity=61 time=0.11770833333333333
EXTRACT: note_off channel=9 note=28 velocity=54 time=0.07083333333333333
EXTRACT: note_off channel=9 note=38 velocity=65 time=0.034375
EXTRACT: note_off channel=9 note=35 velocity=127 time=0.005208333333333333
EXTRACT: note_off channel=9 note=36 velocity=127 time=0
EXTRACT: note_off channel=0 note=65 velocity=127 time=0.007291666666666667
EXTRACT: note_off channel=0 note=68 velocity=78 time=0.011458333333333333
EXTRACT: note_on channel=0 note=65 velocity=80 time=0.0020833333333333333
EXTRACT: note_on channel=9 note=28 velocity=56 time=0
EXTRACT: note_on channel=9 note=75 velocity=61 time=0
EXTRACT: note_off channel=9 note=75 velocity=61 time=0.11875
EXTRACT: note_on channel=9 note=75 velocity=61 time=0.00625
EXTRACT: note_off channel=9 note=28 velocity=56 time=0.06458333333333333
EXTRACT: note_off channel=9 note=75 velocity=61 time=0.05416666666666667
EXTRACT: note_on channel=9 note=28 velocity=52 time=0.00625
EXTRACT: note_on channel=9 note=42 velocity=127 time=0
EXTRACT: note_on channel=9 note=37 velocity=127 time=0
EXTRACT: note_on channel=9 note=62 velocity=127 time=0
EXTRACT: note_on channel=9 note=75 velocity=61 time=0
EXTRACT: note_off channel=9 note=75 velocity=61 time=0.11875
EXTRACT: note_off channel=9 note=28 velocity=52 time=0.07083333333333333
EXTRACT: note_off channel=9 note=42 velocity=127 time=0.03958333333333333
EXTRACT: note_off channel=9 note=37 velocity=127 time=0
EXTRACT: note_on channel=0 note=61 velocity=127 time=0.020833333333333332
EXTRACT: note_on channel=9 note=28 velocity=52 time=0
EXTRACT: note_on channel=9 note=35 velocity=127 time=0
EXTRACT: note_on channel=9 note=36 velocity=127 time=0
EXTRACT: note_on channel=9 note=38 velocity=67 time=0
EXTRACT: note_on channel=9 note=75 velocity=61 time=0
EXTRACT: note_off channel=9 note=62 velocity=127 time=0.0010416666666666667
EXTRACT: note_off channel=0 note=65 velocity=80 time=0.0010416666666666667
EXTRACT: note_off channel=9 note=75 velocity=61 time=0.11666666666666667
EXTRACT: note_off channel=9 note=28 velocity=52 time=0.07083333333333333
EXTRACT: note_off channel=9 note=38 velocity=67 time=0.034375
EXTRACT: note_off channel=9 note=35 velocity=127 time=0.005208333333333333
EXTRACT: note_off channel=9 note=36 velocity=127 time=0
EXTRACT: note_off channel=0 note=61 velocity=127 time=0.01875
EXTRACT: note_on channel=0 note=65 velocity=127 time=0.0020833333333333333
EXTRACT: note_on channel=9 note=28 velocity=52 time=0
EXTRACT: note_off channel=9 note=28 velocity=52 time=0.18958333333333333
EXTRACT: note_off channel=0 note=65 velocity=127 time=0.058333333333333334
EXTRACT: note_on channel=0 note=63 velocity=127 time=0.0020833333333333333
EXTRACT: note_on channel=9 note=43 velocity=43 time=0
EXTRACT: note_on channel=9 note=28 velocity=52 time=0
EXTRACT: note_on channel=9 note=35 velocity=127 time=0
EXTRACT: note_on channel=9 note=36 velocity=127 time=0
EXTRACT: note_on channel=9 note=38 velocity=67 time=0
EXTRACT: note_on channel=9 note=75 velocity=56 time=0
EXTRACT: note_off channel=9 note=43 velocity=43 time=0.096875
EXTRACT: note_off channel=9 note=75 velocity=56 time=0.021875
EXTRACT: note_on channel=9 note=41 velocity=43 time=0.00625
EXTRACT: note_off channel=9 note=28 velocity=52 time=0.06458333333333333
EXTRACT: note_off channel=9 note=41 velocity=43 time=0.03229166666666666
EXTRACT: note_off channel=9 note=38 velocity=67 time=0.0020833333333333333
EXTRACT: note_off channel=9 note=35 velocity=127 time=0.005208333333333333
EXTRACT: note_off channel=9 note=36 velocity=127 time=0
EXTRACT: note_off channel=0 note=63 velocity=127 time=0.01875
EXTRACT: note_on channel=0 note=61 velocity=127 time=0.0020833333333333333
EXTRACT: note_on channel=9 note=28 velocity=52 time=0
EXTRACT: note_on channel=9 note=42 velocity=127 time=0
EXTRACT: note_on channel=9 note=37 velocity=127 time=0
EXTRACT: note_on channel=9 note=62 velocity=127 time=0
EXTRACT: note_on channel=9 note=35 velocity=127 time=0.125
EXTRACT: note_on channel=9 note=36 velocity=127 time=0
EXTRACT: note_on channel=9 note=38 velocity=65 time=0
EXTRACT: note_off channel=9 note=28 velocity=52 time=0.06458333333333333
EXTRACT: note_off channel=9 note=42 velocity=127 time=0.03958333333333333
EXTRACT: note_off channel=9 note=37 velocity=127 time=0
EXTRACT: note_off channel=0 note=61 velocity=127 time=0.01875
EXTRACT: note_on channel=0 note=63 velocity=127 time=0.0020833333333333333
EXTRACT: note_on channel=9 note=28 velocity=54 time=0
EXTRACT: note_on channel=9 note=42 velocity=127 time=0
EXTRACT: note_on channel=9 note=37 velocity=127 time=0
EXTRACT: note_on channel=9 note=62 velocity=127 time=0
EXTRACT: note_on channel=9 note=75 velocity=60 time=0
EXTRACT: note_off channel=9 note=62 velocity=127 time=0.0010416666666666667
EXTRACT: note_off channel=9 note=38 velocity=65 time=0.09791666666666667
EXTRACT: note_off channel=9 note=35 velocity=127 time=0.005208333333333333
EXTRACT: note_off channel=9 note=36 velocity=127 time=0
EXTRACT: note_off channel=9 note=75 velocity=60 time=0.014583333333333334
EXTRACT: note_on channel=9 note=75 velocity=58 time=0.00625
EXTRACT: note_off channel=9 note=28 velocity=54 time=0.06458333333333333
EXTRACT: note_off channel=9 note=42 velocity=127 time=0.03958333333333333
EXTRACT: note_off channel=9 note=37 velocity=127 time=0
EXTRACT: note_off channel=9 note=75 velocity=58 time=0.014583333333333334
EXTRACT: note_off channel=2 note=70 velocity=56 time=0.004166666666666667
EXTRACT: note_off channel=2 note=73 velocity=56 time=0
EXTRACT: note_off channel=2 note=66 velocity=127 time=0
EXTRACT: note_off channel=3 note=30 velocity=127 time=0
EXTRACT: note_off channel=4 note=30 velocity=127 time=0
EXTRACT: note_off channel=4 note=42 velocity=127 time=0
EXTRACT: note_off channel=6 note=66 velocity=97 time=0
EXTRACT: note_off channel=6 note=70 velocity=97 time=0
EXTRACT: note_off channel=6 note=73 velocity=97 time=0
EXTRACT: note_off channel=10 note=73 velocity=97 time=0
EXTRACT: note_off channel=10 note=70 velocity=97 time=0
EXTRACT: note_off channel=10 note=66 velocity=97 time=0
EXTRACT: note_on channel=0 note=61 velocity=85 time=0.0020833333333333333
EXTRACT: note_on channel=2 note=73 velocity=127 time=0
EXTRACT: note_on channel=2 note=66 velocity=58 time=0
EXTRACT: note_on channel=2 note=70 velocity=58 time=0
EXTRACT: note_on channel=2 note=73 velocity=58 time=0
EXTRACT: note_on channel=2 note=65 velocity=127 time=0
EXTRACT: note_on channel=3 note=30 velocity=127 time=0
EXTRACT: note_on channel=4 note=30 velocity=127 time=0
EXTRACT: note_on channel=4 note=42 velocity=127 time=0
EXTRACT: note_on channel=6 note=77 velocity=127 time=0
EXTRACT: note_on channel=6 note=73 velocity=127 time=0
EXTRACT: note_on channel=6 note=70 velocity=127 time=0
EXTRACT: note_on channel=6 note=66 velocity=127 time=0
EXTRACT: note_on channel=9 note=75 velocity=61 time=0
EXTRACT: note_on channel=9 note=38 velocity=65 time=0
EXTRACT: note_on channel=9 note=28 velocity=54 time=0
EXTRACT: note_on channel=9 note=35 velocity=127 time=0
EXTRACT: note_on channel=9 note=36 velocity=127 time=0
EXTRACT: note_on channel=10 note=66 velocity=127 time=0
EXTRACT: note_on channel=10 note=70 velocity=127 time=0
EXTRACT: note_on channel=10 note=73 velocity=127 time=0
EXTRACT: note_on channel=10 note=77 velocity=127 time=0
EXTRACT: note_off channel=9 note=62 velocity=127 time=0.0010416666666666667
EXTRACT: note_off channel=9 note=75 velocity=61 time=0.11770833333333333
EXTRACT: note_off channel=0 note=63 velocity=127 time=0.05416666666666667
EXTRACT: note_off channel=9 note=28 velocity=54 time=0.016666666666666666
EXTRACT: note_off channel=9 note=38 velocity=65 time=0.034375
EXTRACT: note_off channel=9 note=35 velocity=127 time=0.005208333333333333
EXTRACT: note_off channel=9 note=36 velocity=127 time=0
EXTRACT: note_off channel=0 note=61 velocity=85 time=0.01875
EXTRACT: note_on channel=0 note=63 velocity=85 time=0.0020833333333333333
EXTRACT: note_on channel=9 note=75 velocity=61 time=0
EXTRACT: note_on channel=9 note=28 velocity=56 time=0
EXTRACT: note_off channel=9 note=75 velocity=61 time=0.11875
EXTRACT: note_on channel=9 note=75 velocity=61 time=0.00625
EXTRACT: note_off channel=9 note=28 velocity=56 time=0.06458333333333333
EXTRACT: note_off channel=9 note=75 velocity=61 time=0.05416666666666667
EXTRACT: note_off channel=2 note=73 velocity=127 time=0.004166666666666667
EXTRACT: note_off channel=0 note=63 velocity=85 time=0.0020833333333333333
EXTRACT: note_on channel=2 note=72 velocity=127 time=0
EXTRACT: note_on channel=9 note=62 velocity=127 time=0
EXTRACT: note_on channel=9 note=75 velocity=61 time=0
EXTRACT: note_on channel=9 note=28 velocity=52 time=0
EXTRACT: note_on channel=9 note=42 velocity=127 time=0
EXTRACT: note_on channel=9 note=37 velocity=127 time=0
EXTRACT: note_off channel=9 note=75 velocity=61 time=0.11875
EXTRACT: note_off channel=9 note=28 velocity=52 time=0.07083333333333333
EXTRACT: note_off channel=9 note=42 velocity=127 time=0.03958333333333333
EXTRACT: note_off channel=9 note=37 velocity=127 time=0
EXTRACT: note_on channel=1 note=58 velocity=127 time=0.020833333333333332
EXTRACT: note_on channel=1 note=46 velocity=127 time=0
EXTRACT: note_on channel=9 note=75 velocity=61 time=0
EXTRACT: note_on channel=9 note=38 velocity=67 time=0
EXTRACT: note_on channel=9 note=28 velocity=52 time=0
EXTRACT: note_on channel=9 note=35 velocity=127 time=0
EXTRACT: note_on channel=9 note=36 velocity=127 time=0
EXTRACT: note_off channel=9 note=62 velocity=127 time=0.0010416666666666667
EXTRACT: note_off channel=9 note=75 velocity=61 time=0.11770833333333333
EXTRACT: note_off channel=9 note=28 velocity=52 time=0.07083333333333333
EXTRACT: note_off channel=9 note=38 velocity=67 time=0.034375
EXTRACT: note_off channel=9 note=35 velocity=127 time=0.005208333333333333
EXTRACT: note_off channel=9 note=36 velocity=127 time=0
EXTRACT: note_off channel=1 note=58 velocity=127 time=0.01875
EXTRACT: note_off channel=1 note=46 velocity=127 time=0
EXTRACT: note_off channel=2 note=72 velocity=127 time=0
EXTRACT: note_on channel=1 note=61 velocity=127 time=0.0020833333333333333
EXTRACT: note_on channel=1 note=49 velocity=127 time=0
EXTRACT: note_on channel=2 note=70 velocity=127 time=0
EXTRACT: note_on channel=9 note=28 velocity=52 time=0
EXTRACT: note_off channel=9 note=28 velocity=52 time=0.18958333333333333
EXTRACT: note_off channel=1 note=61 velocity=127 time=0.058333333333333334
EXTRACT: note_off channel=1 note=49 velocity=127 time=0
EXTRACT: note_on channel=1 note=61 velocity=127 time=0.0020833333333333333
EXTRACT: note_on channel=1 note=49 velocity=127 time=0
EXTRACT: note_on channel=9 note=75 velocity=56 time=0
EXTRACT: note_on channel=9 note=38 velocity=67 time=0
EXTRACT: note_on channel=9 note=43 velocity=43 time=0
EXTRACT: note_on channel=9 note=28 velocity=52 time=0
EXTRACT: note_on channel=9 note=35 velocity=127 time=0
EXTRACT: note_on channel=9 note=36 velocity=127 time=0
EXTRACT: note_off channel=9 note=43 velocity=43 time=0.096875
EXTRACT: note_off channel=9 note=75 velocity=56 time=0.021875
EXTRACT: note_on channel=9 note=41 velocity=43 time=0.00625
EXTRACT: note_off channel=9 note=28 velocity=52 time=0.06458333333333333
EXTRACT: note_off channel=9 note=41 velocity=43 time=0.03229166666666666
EXTRACT: note_off channel=9 note=38 velocity=67 time=0.0020833333333333333
EXTRACT: note_off channel=9 note=35 velocity=127 time=0.005208333333333333
EXTRACT: note_off channel=9 note=36 velocity=127 time=0
EXTRACT: note_off channel=1 note=61 velocity=127 time=0.01875
EXTRACT: note_off channel=1 note=49 velocity=127 time=0
EXTRACT: note_off channel=2 note=70 velocity=127 time=0
EXTRACT: note_off channel=3 note=30 velocity=127 time=0
EXTRACT: note_off channel=4 note=30 velocity=127 time=0
EXTRACT: note_off channel=4 note=42 velocity=127 time=0
EXTRACT: note_on channel=1 note=65 velocity=127 time=0.0020833333333333333
EXTRACT: note_on channel=1 note=53 velocity=127 time=0
EXTRACT: note_on channel=2 note=68 velocity=127 time=0
EXTRACT: note_on channel=9 note=62 velocity=127 time=0
EXTRACT: note_on channel=9 note=28 velocity=52 time=0
EXTRACT: note_on channel=9 note=42 velocity=127 time=0
EXTRACT: note_on channel=9 note=37 velocity=127 time=0
EXTRACT: note_on channel=9 note=38 velocity=65 time=0.125
EXTRACT: note_on channel=9 note=35 velocity=127 time=0
EXTRACT: note_on channel=9 note=36 velocity=127 time=0
EXTRACT: note_off channel=9 note=28 velocity=52 time=0.06458333333333333
EXTRACT: note_off channel=9 note=42 velocity=127 time=0.03958333333333333
EXTRACT: note_off channel=9 note=37 velocity=127 time=0
EXTRACT: note_off channel=1 note=65 velocity=127 time=0.01875
EXTRACT: note_off channel=1 note=53 velocity=127 time=0
EXTRACT: note_on channel=1 note=63 velocity=127 time=0.0020833333333333333
EXTRACT: note_on channel=1 note=66 velocity=127 time=0
EXTRACT: note_on channel=1 note=51 velocity=127 time=0
EXTRACT: note_on channel=3 note=30 velocity=97 time=0
EXTRACT: note_on channel=4 note=30 velocity=97 time=0
EXTRACT: note_on channel=4 note=42 velocity=97 time=0
EXTRACT: note_on channel=9 note=62 velocity=127 time=0
EXTRACT: note_on channel=9 note=75 velocity=60 time=0
EXTRACT: note_on channel=9 note=28 velocity=54 time=0
EXTRACT: note_on channel=9 note=42 velocity=127 time=0
EXTRACT: note_on channel=9 note=37 velocity=127 time=0
EXTRACT: note_off channel=9 note=62 velocity=127 time=0.0010416666666666667
EXTRACT: note_off channel=9 note=38 velocity=65 time=0.09791666666666667
EXTRACT: note_off channel=9 note=35 velocity=127 time=0.005208333333333333
EXTRACT: note_off channel=9 note=36 velocity=127 time=0
EXTRACT: note_off channel=9 note=75 velocity=60 time=0.014583333333333334
EXTRACT: note_off channel=3 note=30 velocity=97 time=0.004166666666666667
EXTRACT: note_off channel=4 note=30 velocity=97 time=0
EXTRACT: note_off channel=4 note=42 velocity=97 time=0
EXTRACT: note_on channel=3 note=32 velocity=97 time=0.0020833333333333333
EXTRACT: note_on channel=4 note=32 velocity=97 time=0
EXTRACT: note_on channel=4 note=44 velocity=97 time=0
EXTRACT: note_on channel=9 note=75 velocity=58 time=0
EXTRACT: note_off channel=9 note=28 velocity=54 time=0.06458333333333333
EXTRACT: note_off channel=9 note=42 velocity=127 time=0.03958333333333333
EXTRACT: note_off channel=9 note=37 velocity=127 time=0
EXTRACT: note_off channel=9 note=75 velocity=58 time=0.014583333333333334
EXTRACT: note_off channel=2 note=66 velocity=58 time=0.004166666666666667
EXTRACT: note_off channel=2 note=70 velocity=58 time=0
EXTRACT: note_off channel=2 note=73 velocity=58 time=0
EXTRACT: note_off channel=2 note=65 velocity=127 time=0
EXTRACT: note_off channel=2 note=68 velocity=127 time=0
EXTRACT: note_off channel=3 note=32 velocity=97 time=0
EXTRACT: note_off channel=4 note=32 velocity=97 time=0
EXTRACT: note_off channel=4 note=44 velocity=97 time=0
EXTRACT: note_off channel=6 note=77 velocity=127 time=0
EXTRACT: note_off channel=6 note=73 velocity=127 time=0
EXTRACT: note_off channel=6 note=70 velocity=127 time=0
EXTRACT: note_off channel=6 note=66 velocity=127 time=0
EXTRACT: note_off channel=10 note=66 velocity=127 time=0
EXTRACT: note_off channel=10 note=70 velocity=127 time=0
EXTRACT: note_off channel=10 note=73 velocity=127 time=0
EXTRACT: note_off channel=10 note=77 velocity=127 time=0
EXTRACT: note_on channel=2 note=66 velocity=58 time=0.0020833333333333333
EXTRACT: note_on channel=2 note=70 velocity=58 time=0
EXTRACT: note_on channel=2 note=63 velocity=127 time=0
EXTRACT: note_on channel=3 note=27 velocity=127 time=0
EXTRACT: note_on channel=4 note=27 velocity=127 time=0
EXTRACT: note_on channel=4 note=39 velocity=127 time=0
EXTRACT: note_on channel=6 note=70 velocity=97 time=0
EXTRACT: note_on channel=6 note=66 velocity=97 time=0
EXTRACT: note_on channel=6 note=63 velocity=97 time=0
EXTRACT: note_on channel=9 note=75 velocity=61 time=0
EXTRACT: note_on channel=9 note=38 velocity=65 time=0
EXTRACT: note_on channel=9 note=36 velocity=127 time=0
EXTRACT: note_on channel=9 note=35 velocity=127 time=0
EXTRACT: note_on channel=9 note=28 velocity=54 time=0
EXTRACT: note_on channel=10 note=63 velocity=97 time=0
EXTRACT: note_on channel=10 note=66 velocity=97 time=0
EXTRACT: note_on channel=10 note=70 velocity=97 time=0
EXTRACT: note_off channel=9 note=62 velocity=127 time=0.0010416666666666667
EXTRACT: note_off channel=9 note=75 velocity=61 time=0.11770833333333333
EXTRACT: note_off channel=9 note=28 velocity=54 time=0.07083333333333333
EXTRACT: note_off channel=9 note=38 velocity=65 time=0.034375
EXTRACT: note_off channel=9 note=36 velocity=127 time=0.005208333333333333
EXTRACT: note_off channel=9 note=35 velocity=127 time=0
EXTRACT: note_off channel=1 note=63 velocity=60 time=0.01875
EXTRACT: note_off channel=1 note=66 velocity=60 time=0
EXTRACT: note_off channel=1 note=51 velocity=60 time=0
EXTRACT: note_on channel=1 note=65 velocity=127 time=0.0020833333333333333
EXTRACT: note_on channel=1 note=68 velocity=127 time=0
EXTRACT: note_on channel=1 note=53 velocity=127 time=0
EXTRACT: note_on channel=9 note=75 velocity=61 time=0
EXTRACT: note_on channel=9 note=28 velocity=56 time=0
EXTRACT: note_off channel=9 note=75 velocity=61 time=0.11875
EXTRACT: note_on channel=9 note=75 velocity=61 time=0.00625
EXTRACT: note_off channel=9 note=28 velocity=56 time=0.06458333333333333
EXTRACT: note_off channel=9 note=75 velocity=61 time=0.05416666666666667
EXTRACT: note_off channel=1 note=65 velocity=127 time=0.004166666666666667
EXTRACT: note_off channel=1 note=68 velocity=127 time=0
EXTRACT: note_off channel=1 note=53 velocity=127 time=0
EXTRACT: note_on channel=1 note=63 velocity=83 time=0.0020833333333333333
EXTRACT: note_on channel=1 note=66 velocity=83 time=0
EXTRACT: note_on channel=1 note=51 velocity=83 time=0
EXTRACT: note_on channel=9 note=75 velocity=61 time=0
EXTRACT: note_on channel=9 note=62 velocity=127 time=0
EXTRACT: note_on channel=9 note=37 velocity=127 time=0
EXTRACT: note_on channel=9 note=42 velocity=127 time=0
EXTRACT: note_on channel=9 note=28 velocity=52 time=0
EXTRACT: note_off channel=9 note=75 velocity=61 time=0.11875
EXTRACT: note_off channel=9 note=28 velocity=52 time=0.07083333333333333
EXTRACT: note_off channel=9 note=37 velocity=127 time=0.03958333333333333
EXTRACT: note_off channel=9 note=42 velocity=127 time=0
EXTRACT: note_off channel=1 note=63 velocity=83 time=0.01875
EXTRACT: note_off channel=1 note=66 velocity=83 time=0
EXTRACT: note_off channel=1 note=51 velocity=83 time=0
EXTRACT: note_on channel=1 note=61 velocity=127 time=0.0020833333333333333
EXTRACT: note_on channel=1 note=65 velocity=127 time=0
EXTRACT: note_on channel=1 note=49 velocity=127 time=0
EXTRACT: note_on channel=1 note=65 velocity=56 time=0
EXTRACT: note_on channel=1 note=68 velocity=56 time=0
EXTRACT: note_on channel=1 note=53 velocity=56 time=0
EXTRACT: note_on channel=9 note=75 velocity=61 time=0
EXTRACT: note_on channel=9 note=38 velocity=67 time=0
EXTRACT: note_on channel=9 note=36 velocity=127 time=0
EXTRACT: note_on channel=9 note=35 velocity=127 time=0
EXTRACT: note_on channel=9 note=28 velocity=52 time=0
EXTRACT: note_off channel=9 note=62 velocity=127 time=0.0010416666666666667
EXTRACT: note_off channel=9 note=75 velocity=61 time=0.11770833333333333
EXTRACT: note_off channel=9 note=28 velocity=52 time=0.07083333333333333
EXTRACT: note_off channel=9 note=38 velocity=67 time=0.034375
EXTRACT: note_off channel=9 note=36 velocity=127 time=0.005208333333333333
EXTRACT: note_off channel=9 note=35 velocity=127 time=0
EXTRACT: note_off channel=1 note=61 velocity=127 time=0.01875
EXTRACT: note_off channel=1 note=65 velocity=127 time=0
EXTRACT: note_off channel=1 note=49 velocity=127 time=0
EXTRACT: note_off channel=1 note=65 velocity=56 time=0
EXTRACT: note_off channel=1 note=68 velocity=56 time=0
EXTRACT: note_off channel=1 note=53 velocity=56 time=0
EXTRACT: note_on channel=1 note=63 velocity=127 time=0.0020833333333333333
EXTRACT: note_on channel=1 note=66 velocity=127 time=0
EXTRACT: note_on channel=1 note=51 velocity=127 time=0
EXTRACT: note_on channel=9 note=28 velocity=52 time=0
EXTRACT: note_off channel=9 note=28 velocity=52 time=0.18958333333333333
EXTRACT: note_on channel=9 note=75 velocity=56 time=0.06041666666666667
EXTRACT: note_on channel=9 note=38 velocity=67 time=0
EXTRACT: note_on channel=9 note=36 velocity=127 time=0
EXTRACT: note_on channel=9 note=35 velocity=127 time=0
EXTRACT: note_on channel=9 note=28 velocity=52 time=0
EXTRACT: note_on channel=9 note=43 velocity=43 time=0
EXTRACT: note_off channel=9 note=43 velocity=43 time=0.096875
EXTRACT: note_off channel=9 note=75 velocity=56 time=0.021875
EXTRACT: note_on channel=9 note=41 velocity=43 time=0.00625
EXTRACT: note_off channel=9 note=28 velocity=52 time=0.06458333333333333
EXTRACT: note_off channel=9 note=41 velocity=43 time=0.03229166666666666
EXTRACT: note_off channel=9 note=38 velocity=67 time=0.0020833333333333333
EXTRACT: note_off channel=9 note=36 velocity=127 time=0.005208333333333333
EXTRACT: note_off channel=9 note=35 velocity=127 time=0
EXTRACT: note_off channel=1 note=63 velocity=127 time=0.01875
EXTRACT: note_off channel=1 note=66 velocity=127 time=0
EXTRACT: note_off channel=1 note=51 velocity=127 time=0
EXTRACT: note_on channel=1 note=65 velocity=127 time=0.0020833333333333333
EXTRACT: note_on channel=1 note=68 velocity=127 time=0
EXTRACT: note_on channel=1 note=53 velocity=127 time=0
EXTRACT: note_on channel=9 note=62 velocity=127 time=0
EXTRACT: note_on channel=9 note=37 velocity=127 time=0
EXTRACT: note_on channel=9 note=42 velocity=127 time=0
EXTRACT: note_on channel=9 note=28 velocity=52 time=0
EXTRACT: note_on channel=9 note=38 velocity=65 time=0.125
EXTRACT: note_on channel=9 note=36 velocity=127 time=0
EXTRACT: note_on channel=9 note=35 velocity=127 time=0
EXTRACT: note_off channel=9 note=28 velocity=52 time=0.06458333333333333
EXTRACT: note_off channel=9 note=37 velocity=127 time=0.03958333333333333
EXTRACT: note_off channel=9 note=42 velocity=127 time=0
EXTRACT: note_off channel=1 note=65 velocity=127 time=0.01875
EXTRACT: note_off channel=1 note=68 velocity=127 time=0
EXTRACT: note_off channel=1 note=53 velocity=127 time=0
EXTRACT: note_on channel=1 note=53 velocity=127 time=0.0020833333333333333
EXTRACT: note_on channel=1 note=65 velocity=127 time=0
EXTRACT: note_on channel=1 note=68 velocity=127 time=0
EXTRACT: note_on channel=9 note=75 velocity=60 time=0
EXTRACT: note_on channel=9 note=62 velocity=127 time=0
EXTRACT: note_on channel=9 note=37 velocity=127 time=0
EXTRACT: note_on channel=9 note=42 velocity=127 time=0
EXTRACT: note_on channel=9 note=28 velocity=54 time=0
EXTRACT: note_off channel=9 note=62 velocity=127 time=0.0010416666666666667
EXTRACT: note_off channel=9 note=38 velocity=65 time=0.09791666666666667
EXTRACT: note_off channel=9 note=36 velocity=127 time=0.005208333333333333
EXTRACT: note_off channel=9 note=35 velocity=127 time=0
EXTRACT: note_off channel=9 note=75 velocity=60 time=0.014583333333333334
EXTRACT: note_on channel=9 note=75 velocity=58 time=0.00625
EXTRACT: note_off channel=9 note=28 velocity=54 time=0.06458333333333333
EXTRACT: note_off channel=9 note=37 velocity=127 time=0.03958333333333333
EXTRACT: note_off channel=9 note=42 velocity=127 time=0
EXTRACT: note_off channel=9 note=75 velocity=58 time=0.014583333333333334
EXTRACT: note_off channel=2 note=66 velocity=58 time=0.004166666666666667
EXTRACT: note_off channel=2 note=70 velocity=58 time=0
EXTRACT: note_off channel=2 note=63 velocity=127 time=0
EXTRACT: note_off channel=6 note=70 velocity=97 time=0
EXTRACT: note_off channel=6 note=66 velocity=97 time=0
EXTRACT: note_off channel=6 note=63 velocity=97 time=0
EXTRACT: note_off channel=10 note=63 velocity=97 time=0
EXTRACT: note_off channel=10 note=66 velocity=97 time=0
EXTRACT: note_off channel=10 note=70 velocity=97 time=0
EXTRACT: note_on channel=2 note=63 velocity=127 time=0.0020833333333333333
EXTRACT: note_on channel=2 note=66 velocity=127 time=0
EXTRACT: note_on channel=3 note=34 velocity=127 time=0
EXTRACT: note_on channel=4 note=34 velocity=127 time=0
EXTRACT: note_on channel=4 note=46 velocity=127 time=0
EXTRACT: note_on channel=6 note=78 velocity=127 time=0
EXTRACT: note_on channel=9 note=75 velocity=61 time=0
EXTRACT: note_on channel=9 note=38 velocity=65 time=0
EXTRACT: note_on channel=9 note=36 velocity=127 time=0
EXTRACT: note_on channel=9 note=35 velocity=127 time=0
EXTRACT: note_on channel=9 note=28 velocity=54 time=0
EXTRACT: note_on channel=10 note=78 velocity=127 time=0
EXTRACT: note_off channel=9 note=62 velocity=127 time=0.0010416666666666667
EXTRACT: note_off channel=3 note=27 velocity=127 time=0.0125
EXTRACT: note_off channel=4 note=27 velocity=127 time=0
EXTRACT: note_off channel=4 note=39 velocity=127 time=0
EXTRACT: note_off channel=9 note=75 velocity=61 time=0.10520833333333333
EXTRACT: note_off channel=9 note=28 velocity=54 time=0.07083333333333333
EXTRACT: note_off channel=1 note=53 velocity=127 time=0.011458333333333333
EXTRACT: note_off channel=1 note=65 velocity=127 time=0
EXTRACT: note_off channel=1 note=68 velocity=127 time=0
EXTRACT: note_off channel=9 note=38 velocity=65 time=0.022916666666666665
EXTRACT: note_off channel=9 note=36 velocity=127 time=0.005208333333333333
EXTRACT: note_off channel=9 note=35 velocity=127 time=0
EXTRACT: note_on channel=1 note=65 velocity=76 time=0.020833333333333332
EXTRACT: note_on channel=1 note=68 velocity=76 time=0
EXTRACT: note_on channel=1 note=53 velocity=76 time=0
EXTRACT: note_on channel=9 note=75 velocity=61 time=0
EXTRACT: note_on channel=9 note=28 velocity=56 time=0
EXTRACT: note_off channel=9 note=75 velocity=61 time=0.11875
EXTRACT: note_on channel=9 note=75 velocity=61 time=0.00625
EXTRACT: note_off channel=9 note=28 velocity=56 time=0.06458333333333333
EXTRACT: note_off channel=9 note=75 velocity=61 time=0.05416666666666667
EXTRACT: note_off channel=2 note=63 velocity=127 time=0.004166666666666667
EXTRACT: note_off channel=2 note=66 velocity=127 time=0
EXTRACT: note_off channel=6 note=78 velocity=127 time=0
EXTRACT: note_off channel=10 note=78 velocity=127 time=0
EXTRACT: note_on channel=2 note=61 velocity=127 time=0.0020833333333333333
EXTRACT: note_on channel=2 note=65 velocity=127 time=0
EXTRACT: note_on channel=6 note=77 velocity=127 time=0
EXTRACT: note_on channel=6 note=73 velocity=127 time=0
EXTRACT: note_on channel=6 note=70 velocity=127 time=0
EXTRACT: note_on channel=9 note=75 velocity=61 time=0
EXTRACT: note_on channel=9 note=62 velocity=127 time=0
EXTRACT: note_on channel=9 note=37 velocity=127 time=0
EXTRACT: note_on channel=9 note=42 velocity=127 time=0
EXTRACT: note_on channel=9 note=28 velocity=52 time=0
EXTRACT: note_on channel=10 note=70 velocity=127 time=0
EXTRACT: note_on channel=10 note=73 velocity=127 time=0
EXTRACT: note_on channel=10 note=77 velocity=127 time=0
EXTRACT: note_off channel=1 note=65 velocity=76 time=0.021875
EXTRACT: note_off channel=1 note=68 velocity=76 time=0
EXTRACT: note_off channel=1 note=53 velocity=76 time=0
EXTRACT: note_off channel=9 note=75 velocity=61 time=0.096875
EXTRACT: note_off channel=9 note=28 velocity=52 time=0.07083333333333333
EXTRACT: note_off channel=9 note=37 velocity=127 time=0.03958333333333333
EXTRACT: note_off channel=9 note=42 velocity=127 time=0
EXTRACT: note_on channel=1 note=58 velocity=127 time=0.020833333333333332
EXTRACT: note_on channel=1 note=46 velocity=127 time=0
EXTRACT: note_on channel=9 note=75 velocity=61 time=0
EXTRACT: note_on channel=9 note=38 velocity=67 time=0
EXTRACT: note_on channel=9 note=36 velocity=127 time=0
EXTRACT: note_on channel=9 note=35 velocity=127 time=0
EXTRACT: note_on channel=9 note=28 velocity=52 time=0
EXTRACT: note_off channel=9 note=62 velocity=127 time=0.0010416666666666667
EXTRACT: note_off channel=9 note=75 velocity=61 time=0.11770833333333333
EXTRACT: note_off channel=9 note=28 velocity=52 time=0.07083333333333333
EXTRACT: note_off channel=9 note=38 velocity=67 time=0.034375
EXTRACT: note_off channel=9 note=36 velocity=127 time=0.005208333333333333
EXTRACT: note_off channel=9 note=35 velocity=127 time=0
EXTRACT: note_off channel=1 note=58 velocity=127 time=0.01875
EXTRACT: note_off channel=1 note=46 velocity=127 time=0
EXTRACT: note_on channel=1 note=61 velocity=127 time=0.0020833333333333333
EXTRACT: note_on channel=1 note=49 velocity=127 time=0
EXTRACT: note_on channel=9 note=28 velocity=52 time=0
EXTRACT: note_off channel=9 note=28 velocity=52 time=0.18958333333333333
EXTRACT: note_off channel=1 note=61 velocity=127 time=0.058333333333333334
EXTRACT: note_off channel=1 note=49 velocity=127 time=0
EXTRACT: note_on channel=1 note=61 velocity=127 time=0.0020833333333333333
EXTRACT: note_on channel=1 note=49 velocity=127 time=0
EXTRACT: note_on channel=9 note=75 velocity=56 time=0
EXTRACT: note_on channel=9 note=38 velocity=67 time=0
EXTRACT: note_on channel=9 note=36 velocity=127 time=0
EXTRACT: note_on channel=9 note=35 velocity=127 time=0
EXTRACT: note_on channel=9 note=28 velocity=52 time=0
EXTRACT: note_on channel=9 note=43 velocity=43 time=0
EXTRACT: note_off channel=9 note=43 velocity=43 time=0.096875
EXTRACT: note_off channel=9 note=75 velocity=56 time=0.021875
EXTRACT: note_on channel=9 note=41 velocity=43 time=0.00625
EXTRACT: note_off channel=9 note=28 velocity=52 time=0.06458333333333333
EXTRACT: note_off channel=9 note=41 velocity=43 time=0.03229166666666666
EXTRACT: note_off channel=9 note=38 velocity=67 time=0.0020833333333333333
EXTRACT: note_off channel=9 note=36 velocity=127 time=0.005208333333333333
EXTRACT: note_off channel=9 note=35 velocity=127 time=0
EXTRACT: note_off channel=1 note=61 velocity=127 time=0.01875
EXTRACT: note_off channel=1 note=49 velocity=127 time=0
EXTRACT: note_off channel=2 note=61 velocity=127 time=0
EXTRACT: note_off channel=2 note=65 velocity=127 time=0
EXTRACT: note_off channel=3 note=34 velocity=127 time=0
EXTRACT: note_off channel=4 note=34 velocity=127 time=0
EXTRACT: note_off channel=4 note=46 velocity=127 time=0
EXTRACT: note_off channel=6 note=77 velocity=127 time=0
EXTRACT: note_off channel=6 note=73 velocity=127 time=0
EXTRACT: note_off channel=6 note=70 velocity=127 time=0
EXTRACT: note_off channel=10 note=70 velocity=127 time=0
EXTRACT: note_off channel=10 note=73 velocity=127 time=0
EXTRACT: note_off channel=10 note=77 velocity=127 time=0
EXTRACT: note_on channel=1 note=58 velocity=127 time=0.0020833333333333333
EXTRACT: note_on channel=1 note=46 velocity=127 time=0
EXTRACT: note_on channel=2 note=68 velocity=127 time=0
EXTRACT: note_on channel=6 note=73 velocity=127 time=0
EXTRACT: note_on channel=9 note=62 velocity=127 time=0
EXTRACT: note_on channel=9 note=37 velocity=127 time=0
EXTRACT: note_on channel=9 note=42 velocity=127 time=0
EXTRACT: note_on channel=9 note=28 velocity=52 time=0
EXTRACT: note_on channel=10 note=73 velocity=127 time=0
EXTRACT: note_on channel=9 note=38 velocity=65 time=0.125
EXTRACT: note_on channel=9 note=36 velocity=127 time=0
EXTRACT: note_on channel=9 note=35 velocity=127 time=0
EXTRACT: note_off channel=9 note=28 velocity=52 time=0.06458333333333333
EXTRACT: note_off channel=9 note=37 velocity=127 time=0.03958333333333333
EXTRACT: note_off channel=9 note=42 velocity=127 time=0
EXTRACT: note_off channel=1 note=58 velocity=127 time=0.01875
EXTRACT: note_off channel=1 note=46 velocity=127 time=0
EXTRACT: note_on channel=1 note=49 velocity=127 time=0.0020833333333333333
EXTRACT: note_on channel=1 note=61 velocity=127 time=0
EXTRACT: note_on channel=3 note=36 velocity=97 time=0
EXTRACT: note_on channel=4 note=36 velocity=97 time=0
EXTRACT: note_on channel=4 note=48 velocity=97 time=0
EXTRACT: note_on channel=9 note=75 velocity=60 time=0
EXTRACT: note_on channel=9 note=62 velocity=127 time=0
EXTRACT: note_on channel=9 note=37 velocity=127 time=0
EXTRACT: note_on channel=9 note=42 velocity=127 time=0
EXTRACT: note_on channel=9 note=28 velocity=54 time=0
EXTRACT: note_off channel=9 note=62 velocity=127 time=0.0010416666666666667
EXTRACT: note_off channel=9 note=38 velocity=65 time=0.09791666666666667
EXTRACT: note_off channel=9 note=36 velocity=127 time=0.005208333333333333
EXTRACT: note_off channel=9 note=35 velocity=127 time=0
EXTRACT: note_off channel=9 note=75 velocity=60 time=0.014583333333333334
EXTRACT: note_off channel=3 note=36 velocity=97 time=0.004166666666666667
EXTRACT: note_off channel=4 note=36 velocity=97 time=0
EXTRACT: note_off channel=4 note=48 velocity=97 time=0
EXTRACT: note_on channel=3 note=37 velocity=97 time=0.0020833333333333333
EXTRACT: note_on channel=4 note=37 velocity=97 time=0
EXTRACT: note_on channel=4 note=49 velocity=97 time=0
EXTRACT: note_on channel=9 note=75 velocity=58 time=0
EXTRACT: note_off channel=9 note=28 velocity=54 time=0.06458333333333333
EXTRACT: note_off channel=9 note=37 velocity=127 time=0.03958333333333333
EXTRACT: note_off channel=9 note=42 velocity=127 time=0
EXTRACT: note_off channel=9 note=75 velocity=58 time=0.014583333333333334
EXTRACT: note_off channel=2 note=68 velocity=127 time=0.004166666666666667
EXTRACT: note_off channel=3 note=37 velocity=97 time=0
EXTRACT: note_off channel=4 note=37 velocity=97 time=0
EXTRACT: note_off channel=4 note=49 velocity=97 time=0
EXTRACT: note_off channel=6 note=73 velocity=127 time=0
EXTRACT: note_off channel=10 note=73 velocity=127 time=0
EXTRACT: note_on channel=1 note=58 velocity=89 time=0.0020833333333333333
EXTRACT: note_on channel=1 note=46 velocity=89 time=0
EXTRACT: note_on channel=2 note=70 velocity=56 time=0
EXTRACT: note_on channel=2 note=73 velocity=56 time=0
EXTRACT: note_on channel=2 note=66 velocity=127 time=0
EXTRACT: note_on channel=3 note=30 velocity=127 time=0
EXTRACT: note_on channel=4 note=30 velocity=127 time=0
EXTRACT: note_on channel=4 note=42 velocity=127 time=0
EXTRACT: note_on channel=6 note=73 velocity=97 time=0
EXTRACT: note_on channel=6 note=70 velocity=97 time=0
EXTRACT: note_on channel=6 note=66 velocity=97 time=0
EXTRACT: note_on channel=9 note=75 velocity=61 time=0
EXTRACT: note_on channel=9 note=38 velocity=65 time=0
EXTRACT: note_on channel=9 note=36 velocity=127 time=0
EXTRACT: note_on channel=9 note=35 velocity=127 time=0
EXTRACT: note_on channel=9 note=28 velocity=54 time=0
EXTRACT: note_on channel=10 note=66 velocity=97 time=0
EXTRACT: note_on channel=10 note=70 velocity=97 time=0
EXTRACT: note_on channel=10 note=73 velocity=97 time=0
EXTRACT: note_off channel=9 note=62 velocity=127 time=0.0010416666666666667
EXTRACT: note_off channel=1 note=49 velocity=127 time=0.052083333333333336
EXTRACT: note_off channel=1 note=61 velocity=127 time=0
EXTRACT: note_off channel=9 note=75 velocity=61 time=0.065625
EXTRACT: note_off channel=9 note=28 velocity=54 time=0.07083333333333333
EXTRACT: note_off channel=9 note=38 velocity=65 time=0.034375
EXTRACT: note_off channel=9 note=36 velocity=127 time=0.005208333333333333
EXTRACT: note_off channel=9 note=35 velocity=127 time=0
EXTRACT: note_off channel=1 note=58 velocity=89 time=0.01875
EXTRACT: note_off channel=1 note=46 velocity=89 time=0
EXTRACT: note_on channel=1 note=61 velocity=89 time=0.0020833333333333333
EXTRACT: note_on channel=1 note=49 velocity=89 time=0
EXTRACT: note_on channel=9 note=75 velocity=61 time=0
EXTRACT: note_on channel=9 note=28 velocity=56 time=0
EXTRACT: note_off channel=9 note=75 velocity=61 time=0.11875
EXTRACT: note_on channel=9 note=75 velocity=61 time=0.00625
EXTRACT: note_off channel=9 note=28 velocity=56 time=0.06458333333333333
EXTRACT: note_off channel=9 note=75 velocity=61 time=0.05416666666666667
EXTRACT: note_on channel=1 note=61 velocity=127 time=0.00625
EXTRACT: note_on channel=1 note=49 velocity=127 time=0
EXTRACT: note_on channel=9 note=75 velocity=61 time=0
EXTRACT: note_on channel=9 note=62 velocity=127 time=0
EXTRACT: note_on channel=9 note=37 velocity=127 time=0
EXTRACT: note_on channel=9 note=42 velocity=127 time=0
EXTRACT: note_on channel=9 note=28 velocity=52 time=0
EXTRACT: note_off channel=1 note=61 velocity=89 time=0.053125
EXTRACT: note_off channel=1 note=49 velocity=89 time=0
EXTRACT: note_off channel=9 note=75 velocity=61 time=0.065625
EXTRACT: note_off channel=9 note=28 velocity=52 time=0.07083333333333333
EXTRACT: note_off channel=9 note=37 velocity=127 time=0.03958333333333333
EXTRACT: note_off channel=9 note=42 velocity=127 time=0
EXTRACT: note_off channel=1 note=61 velocity=127 time=0.01875
EXTRACT: note_off channel=1 note=49 velocity=127 time=0
EXTRACT: note_on channel=1 note=58 velocity=127 time=0.0020833333333333333
EXTRACT: note_on channel=1 note=46 velocity=127 time=0
EXTRACT: note_on channel=9 note=75 velocity=61 time=0
EXTRACT: note_on channel=9 note=38 velocity=67 time=0
EXTRACT: note_on channel=9 note=36 velocity=127 time=0
EXTRACT: note_on channel=9 note=35 velocity=127 time=0
EXTRACT: note_on channel=9 note=28 velocity=52 time=0
EXTRACT: note_off channel=9 note=62 velocity=127 time=0.0010416666666666667
EXTRACT: note_off channel=9 note=75 velocity=61 time=0.11770833333333333
EXTRACT: note_off channel=9 note=28 velocity=52 time=0.07083333333333333
EXTRACT: note_off channel=9 note=38 velocity=67 time=0.034375
EXTRACT: note_off channel=9 note=36 velocity=127 time=0.005208333333333333
EXTRACT: note_off channel=9 note=35 velocity=127 time=0
EXTRACT: note_off channel=1 note=58 velocity=127 time=0.01875
EXTRACT: note_off channel=1 note=46 velocity=127 time=0
EXTRACT: note_on channel=1 note=63 velocity=127 time=0.0020833333333333333
EXTRACT: note_on channel=1 note=51 velocity=127 time=0
EXTRACT: note_on channel=9 note=28 velocity=52 time=0
EXTRACT: note_off channel=1 note=63 velocity=127 time=0.12291666666666666
EXTRACT: note_off channel=1 note=51 velocity=127 time=0
EXTRACT: note_off channel=9 note=28 velocity=52 time=0.06666666666666667
EXTRACT: note_on channel=1 note=58 velocity=127 time=0.06041666666666667
EXTRACT: note_on channel=1 note=46 velocity=127 time=0
EXTRACT: note_on channel=9 note=75 velocity=56 time=0
EXTRACT: note_on channel=9 note=38 velocity=67 time=0
EXTRACT: note_on channel=9 note=36 velocity=127 time=0
EXTRACT: note_on channel=9 note=35 velocity=127 time=0
EXTRACT: note_on channel=9 note=28 velocity=52 time=0
EXTRACT: note_on channel=9 note=43 velocity=43 time=0
EXTRACT: note_off channel=9 note=43 velocity=43 time=0.096875
EXTRACT: note_off channel=9 note=75 velocity=56 time=0.021875
EXTRACT: note_on channel=9 note=41 velocity=43 time=0.00625
EXTRACT: note_off channel=9 note=28 velocity=52 time=0.06458333333333333
EXTRACT: note_off channel=9 note=41 velocity=43 time=0.03229166666666666
EXTRACT: note_off channel=9 note=38 velocity=67 time=0.0020833333333333333
EXTRACT: note_off channel=9 note=36 velocity=127 time=0.005208333333333333
EXTRACT: note_off channel=9 note=35 velocity=127 time=0
EXTRACT: note_off channel=1 note=58 velocity=127 time=0.01875
EXTRACT: note_off channel=1 note=46 velocity=127 time=0
EXTRACT: note_on channel=1 note=58 velocity=127 time=0.0020833333333333333
EXTRACT: note_on channel=1 note=46 velocity=127 time=0
EXTRACT: note_on channel=9 note=62 velocity=127 time=0
EXTRACT: note_on channel=9 note=37 velocity=127 time=0
EXTRACT: note_on channel=9 note=42 velocity=127 time=0
EXTRACT: note_on channel=9 note=28 velocity=52 time=0
EXTRACT: note_on channel=9 note=38 velocity=65 time=0.125
EXTRACT: note_on channel=9 note=36 velocity=127 time=0
EXTRACT: note_on channel=9 note=35 velocity=127 time=0
EXTRACT: note_off channel=9 note=28 velocity=52 time=0.06458333333333333
EXTRACT: note_off channel=9 note=37 velocity=127 time=0.03958333333333333
EXTRACT: note_off channel=9 note=42 velocity=127 time=0
EXTRACT: note_off channel=1 note=58 velocity=127 time=0.01875
EXTRACT: note_off channel=1 note=46 velocity=127 time=0
EXTRACT: note_on channel=1 note=58 velocity=127 time=0.0020833333333333333
EXTRACT: note_on channel=1 note=46 velocity=127 time=0
EXTRACT: note_on channel=9 note=75 velocity=60 time=0
EXTRACT: note_on channel=9 note=62 velocity=127 time=0
EXTRACT: note_on channel=9 note=37 velocity=127 time=0
EXTRACT: note_on channel=9 note=42 velocity=127 time=0
EXTRACT: note_on channel=9 note=28 velocity=54 time=0
EXTRACT: note_off channel=9 note=62 velocity=127 time=0.0010416666666666667
EXTRACT: note_off channel=9 note=38 velocity=65 time=0.09791666666666667
EXTRACT: note_off channel=9 note=36 velocity=127 time=0.005208333333333333
EXTRACT: note_off channel=9 note=35 velocity=127 time=0
EXTRACT: note_off channel=9 note=75 velocity=60 time=0.014583333333333334
EXTRACT: note_on channel=9 note=75 velocity=58 time=0.00625
EXTRACT: note_off channel=9 note=28 velocity=54 time=0.06458333333333333
EXTRACT: note_off channel=9 note=37 velocity=127 time=0.03958333333333333
EXTRACT: note_off channel=9 note=42 velocity=127 time=0
EXTRACT: note_off channel=9 note=75 velocity=58 time=0.014583333333333334
EXTRACT: note_off channel=1 note=58 velocity=127 time=0.004166666666666667
EXTRACT: note_off channel=1 note=46 velocity=127 time=0
EXTRACT: note_off channel=2 note=70 velocity=56 time=0
EXTRACT: note_off channel=2 note=73 velocity=56 time=0
EXTRACT: note_off channel=2 note=66 velocity=127 time=0
EXTRACT: note_off channel=3 note=30 velocity=127 time=0
EXTRACT: note_off channel=4 note=30 velocity=127 time=0
EXTRACT: note_off channel=4 note=42 velocity=127 time=0
EXTRACT: note_off channel=6 note=73 velocity=97 time=0
EXTRACT: note_off channel=6 note=70 velocity=97 time=0
EXTRACT: note_off channel=6 note=66 velocity=97 time=0
EXTRACT: note_off channel=10 note=66 velocity=97 time=0
EXTRACT: note_off channel=10 note=70 velocity=97 time=0
EXTRACT: note_off channel=10 note=73 velocity=97 time=0
EXTRACT: note_on channel=1 note=56 velocity=127 time=0.0020833333333333333
EXTRACT: note_on channel=1 note=44 velocity=127 time=0
EXTRACT: note_on channel=2 note=66 velocity=58 time=0
EXTRACT: note_on channel=2 note=70 velocity=58 time=0
EXTRACT: note_on channel=2 note=73 velocity=58 time=0
EXTRACT: note_on channel=2 note=65 velocity=127 time=0
EXTRACT: note_on channel=3 note=30 velocity=127 time=0
EXTRACT: note_on channel=4 note=30 velocity=127 time=0
EXTRACT: note_on channel=4 note=42 velocity=127 time=0
EXTRACT: note_on channel=6 note=66 velocity=127 time=0
EXTRACT: note_on channel=6 note=70 velocity=127 time=0
EXTRACT: note_on channel=6 note=73 velocity=127 time=0
EXTRACT: note_on channel=6 note=77 velocity=127 time=0
EXTRACT: note_on channel=9 note=36 velocity=127 time=0
EXTRACT: note_on channel=9 note=35 velocity=127 time=0
EXTRACT: note_on channel=9 note=28 velocity=54 time=0
EXTRACT: note_on channel=9 note=38 velocity=65 time=0
EXTRACT: note_on channel=9 note=75 velocity=61 time=0
EXTRACT: note_on channel=10 note=77 velocity=127 time=0
EXTRACT: note_on channel=10 note=73 velocity=127 time=0
EXTRACT: note_on channel=10 note=70 velocity=127 time=0
EXTRACT: note_on channel=10 note=66 velocity=127 time=0
EXTRACT: note_off channel=9 note=62 velocity=127 time=0.0010416666666666667
EXTRACT: note_off channel=9 note=75 velocity=61 time=0.11770833333333333
EXTRACT: note_off channel=9 note=28 velocity=54 time=0.07083333333333333
EXTRACT: note_off channel=9 note=38 velocity=65 time=0.034375
EXTRACT: note_off channel=9 note=36 velocity=127 time=0.005208333333333333
EXTRACT: note_off channel=9 note=35 velocity=127 time=0
EXTRACT: note_off channel=1 note=56 velocity=127 time=0.01875
EXTRACT: note_off channel=1 note=44 velocity=127 time=0
EXTRACT: note_on channel=1 note=58 velocity=78 time=0.0020833333333333333
EXTRACT: note_on channel=1 note=46 velocity=78 time=0
EXTRACT: note_on channel=9 note=28 velocity=56 time=0
EXTRACT: note_on channel=9 note=75 velocity=61 time=0
EXTRACT: note_off channel=9 note=75 velocity=61 time=0.11875
EXTRACT: note_on channel=9 note=75 velocity=61 time=0.00625
EXTRACT: note_off channel=9 note=28 velocity=56 time=0.06458333333333333
EXTRACT: note_off channel=9 note=75 velocity=61 time=0.05416666666666667
EXTRACT: note_off channel=1 note=58 velocity=78 time=0.004166666666666667
EXTRACT: note_off channel=1 note=46 velocity=78 time=0
EXTRACT: note_on channel=1 note=56 velocity=83 time=0.0020833333333333333
EXTRACT: note_on channel=1 note=44 velocity=83 time=0
EXTRACT: note_on channel=9 note=37 velocity=127 time=0
EXTRACT: note_on channel=9 note=42 velocity=127 time=0
EXTRACT: note_on channel=9 note=28 velocity=52 time=0
EXTRACT: note_on channel=9 note=75 velocity=61 time=0
EXTRACT: note_on channel=9 note=62 velocity=127 time=0
EXTRACT: note_off channel=9 note=75 velocity=61 time=0.11875
EXTRACT: note_off channel=9 note=28 velocity=52 time=0.07083333333333333
EXTRACT: note_off channel=9 note=37 velocity=127 time=0.03958333333333333
EXTRACT: note_off channel=9 note=42 velocity=127 time=0
EXTRACT: note_off channel=1 note=56 velocity=83 time=0.01875
EXTRACT: note_off channel=1 note=44 velocity=83 time=0
EXTRACT: note_on channel=0 note=68 velocity=127 time=0.0020833333333333333
EXTRACT: note_on channel=0 note=56 velocity=127 time=0
EXTRACT: note_on channel=9 note=36 velocity=127 time=0
EXTRACT: note_on channel=9 note=35 velocity=127 time=0
EXTRACT: note_on channel=9 note=28 velocity=52 time=0
EXTRACT: note_on channel=9 note=38 velocity=67 time=0
EXTRACT: note_on channel=9 note=75 velocity=61 time=0
EXTRACT: note_off channel=9 note=62 velocity=127 time=0.0010416666666666667
EXTRACT: note_off channel=9 note=75 velocity=61 time=0.11770833333333333
EXTRACT: note_off channel=9 note=28 velocity=52 time=0.07083333333333333
EXTRACT: note_off channel=9 note=38 velocity=67 time=0.034375
EXTRACT: note_off channel=9 note=36 velocity=127 time=0.005208333333333333
EXTRACT: note_off channel=9 note=35 velocity=127 time=0
EXTRACT: note_off channel=0 note=68 velocity=127 time=0.01875
EXTRACT: note_off channel=0 note=56 velocity=127 time=0
EXTRACT: note_on channel=0 note=73 velocity=127 time=0.0020833333333333333
EXTRACT: note_on channel=0 note=61 velocity=127 time=0
EXTRACT: note_on channel=9 note=28 velocity=52 time=0
EXTRACT: note_off channel=9 note=28 velocity=52 time=0.18958333333333333
EXTRACT: note_off channel=0 note=73 velocity=127 time=0.058333333333333334
EXTRACT: note_off channel=0 note=61 velocity=127 time=0
EXTRACT: note_on channel=0 note=73 velocity=127 time=0.0020833333333333333
EXTRACT: note_on channel=0 note=61 velocity=127 time=0
EXTRACT: note_on channel=9 note=36 velocity=127 time=0
EXTRACT: note_on channel=9 note=35 velocity=127 time=0
EXTRACT: note_on channel=9 note=28 velocity=52 time=0
EXTRACT: note_on channel=9 note=43 velocity=43 time=0
EXTRACT: note_on channel=9 note=38 velocity=67 time=0
EXTRACT: note_on channel=9 note=75 velocity=56 time=0
EXTRACT: note_off channel=9 note=43 velocity=43 time=0.096875
EXTRACT: note_off channel=9 note=75 velocity=56 time=0.021875
EXTRACT: note_on channel=9 note=41 velocity=43 time=0.00625
EXTRACT: note_off channel=9 note=28 velocity=52 time=0.06458333333333333
EXTRACT: note_off channel=9 note=41 velocity=43 time=0.03229166666666666
EXTRACT: note_off channel=9 note=38 velocity=67 time=0.0020833333333333333
EXTRACT: note_off channel=9 note=36 velocity=127 time=0.005208333333333333
EXTRACT: note_off channel=9 note=35 velocity=127 time=0
EXTRACT: note_off channel=0 note=73 velocity=127 time=0.01875
EXTRACT: note_off channel=0 note=61 velocity=127 time=0
EXTRACT: note_off channel=3 note=30 velocity=127 time=0
EXTRACT: note_off channel=4 note=30 velocity=127 time=0
EXTRACT: note_off channel=4 note=42 velocity=127 time=0
EXTRACT: note_on channel=0 note=70 velocity=127 time=0.0020833333333333333
EXTRACT: note_on channel=0 note=58 velocity=127 time=0
EXTRACT: note_on channel=9 note=37 velocity=127 time=0
EXTRACT: note_on channel=9 note=42 velocity=127 time=0
EXTRACT: note_on channel=9 note=28 velocity=52 time=0
EXTRACT: note_on channel=9 note=62 velocity=127 time=0
EXTRACT: note_on channel=9 note=36 velocity=127 time=0.125
EXTRACT: note_on channel=9 note=35 velocity=127 time=0
EXTRACT: note_on channel=9 note=38 velocity=65 time=0
EXTRACT: note_off channel=9 note=28 velocity=52 time=0.06458333333333333
EXTRACT: note_off channel=9 note=37 velocity=127 time=0.03958333333333333
EXTRACT: note_off channel=9 note=42 velocity=127 time=0
EXTRACT: note_off channel=0 note=70 velocity=127 time=0.01875
EXTRACT: note_off channel=0 note=58 velocity=127 time=0
EXTRACT: note_on channel=0 note=70 velocity=127 time=0.0020833333333333333
EXTRACT: note_on channel=0 note=58 velocity=127 time=0
EXTRACT: note_on channel=3 note=30 velocity=97 time=0
EXTRACT: note_on channel=4 note=30 velocity=97 time=0
EXTRACT: note_on channel=4 note=42 velocity=97 time=0
EXTRACT: note_on channel=9 note=37 velocity=127 time=0
EXTRACT: note_on channel=9 note=42 velocity=127 time=0
EXTRACT: note_on channel=9 note=28 velocity=54 time=0
EXTRACT: note_on channel=9 note=75 velocity=60 time=0
EXTRACT: note_on channel=9 note=62 velocity=127 time=0
EXTRACT: note_off channel=9 note=62 velocity=127 time=0.0010416666666666667
EXTRACT: note_off channel=9 note=38 velocity=65 time=0.09791666666666667
EXTRACT: note_off channel=9 note=36 velocity=127 time=0.005208333333333333
EXTRACT: note_off channel=9 note=35 velocity=127 time=0
EXTRACT: note_off channel=9 note=75 velocity=60 time=0.014583333333333334
EXTRACT: note_off channel=3 note=30 velocity=97 time=0.004166666666666667
EXTRACT: note_off channel=4 note=30 velocity=97 time=0
EXTRACT: note_off channel=4 note=42 velocity=97 time=0
EXTRACT: note_on channel=3 note=32 velocity=97 time=0.0020833333333333333
EXTRACT: note_on channel=4 note=32 velocity=97 time=0
EXTRACT: note_on channel=4 note=44 velocity=97 time=0
EXTRACT: note_on channel=9 note=75 velocity=58 time=0
EXTRACT: note_off channel=9 note=28 velocity=54 time=0.06458333333333333
EXTRACT: note_off channel=9 note=37 velocity=127 time=0.03958333333333333
EXTRACT: note_off channel=9 note=42 velocity=127 time=0
EXTRACT: note_off channel=9 note=75 velocity=58 time=0.014583333333333334
EXTRACT: note_off channel=0 note=70 velocity=127 time=0.004166666666666667
EXTRACT: note_off channel=0 note=58 velocity=127 time=0
EXTRACT: note_off channel=2 note=66 velocity=58 time=0
EXTRACT: note_off channel=2 note=70 velocity=58 time=0
EXTRACT: note_off channel=2 note=73 velocity=58 time=0
EXTRACT: note_off channel=2 note=65 velocity=127 time=0
EXTRACT: note_off channel=3 note=32 velocity=97 time=0
EXTRACT: note_off channel=4 note=32 velocity=97 time=0
EXTRACT: note_off channel=4 note=44 velocity=97 time=0
EXTRACT: note_off channel=6 note=66 velocity=127 time=0
EXTRACT: note_off channel=6 note=70 velocity=127 time=0
EXTRACT: note_off channel=6 note=73 velocity=127 time=0
EXTRACT: note_off channel=6 note=77 velocity=127 time=0
EXTRACT: note_off channel=10 note=77 velocity=127 time=0
EXTRACT: note_off channel=10 note=73 velocity=127 time=0
EXTRACT: note_off channel=10 note=70 velocity=127 time=0
EXTRACT: note_off channel=10 note=66 velocity=127 time=0
EXTRACT: note_on channel=0 note=56 velocity=127 time=0.0020833333333333333
EXTRACT: note_on channel=0 note=68 velocity=127 time=0
EXTRACT: note_on channel=2 note=66 velocity=58 time=0
EXTRACT: note_on channel=2 note=70 velocity=58 time=0
EXTRACT: note_on channel=2 note=63 velocity=127 time=0
EXTRACT: note_on channel=3 note=27 velocity=127 time=0
EXTRACT: note_on channel=4 note=27 velocity=127 time=0
EXTRACT: note_on channel=4 note=39 velocity=127 time=0
EXTRACT: note_on channel=6 note=63 velocity=97 time=0
EXTRACT: note_on channel=6 note=66 velocity=97 time=0
EXTRACT: note_on channel=6 note=70 velocity=97 time=0
EXTRACT: note_on channel=9 note=28 velocity=54 time=0
EXTRACT: note_on channel=9 note=35 velocity=127 time=0
EXTRACT: note_on channel=9 note=36 velocity=127 time=0
EXTRACT: note_on channel=9 note=38 velocity=65 time=0
EXTRACT: note_on channel=9 note=75 velocity=61 time=0
EXTRACT: note_on channel=10 note=70 velocity=97 time=0
EXTRACT: note_on channel=10 note=66 velocity=97 time=0
EXTRACT: note_on channel=10 note=63 velocity=97 time=0
EXTRACT: note_off channel=9 note=62 velocity=127 time=0.0010416666666666667
EXTRACT: note_off channel=9 note=75 velocity=61 time=0.11770833333333333
EXTRACT: note_off channel=9 note=28 velocity=54 time=0.07083333333333333
EXTRACT: note_off channel=9 note=38 velocity=65 time=0.034375
EXTRACT: note_off channel=9 note=35 velocity=127 time=0.005208333333333333
EXTRACT: note_off channel=9 note=36 velocity=127 time=0
EXTRACT: note_on channel=0 note=70 velocity=85 time=0.020833333333333332
EXTRACT: note_on channel=0 note=58 velocity=85 time=0
EXTRACT: note_on channel=9 note=28 velocity=56 time=0
EXTRACT: note_on channel=9 note=75 velocity=61 time=0
EXTRACT: note_off channel=0 note=56 velocity=127 time=0.06041666666666667
EXTRACT: note_off channel=0 note=68 velocity=127 time=0
EXTRACT: note_off channel=9 note=75 velocity=61 time=0.058333333333333334
EXTRACT: note_on channel=9 note=75 velocity=61 time=0.00625
EXTRACT: note_off channel=9 note=28 velocity=56 time=0.06458333333333333
EXTRACT: note_off channel=9 note=75 velocity=61 time=0.05416666666666667
EXTRACT: note_off channel=0 note=70 velocity=85 time=0.004166666666666667
EXTRACT: note_off channel=0 note=58 velocity=85 time=0
EXTRACT: note_on channel=0 note=68 velocity=85 time=0.0020833333333333333
EXTRACT: note_on channel=0 note=56 velocity=85 time=0
EXTRACT: note_on channel=9 note=28 velocity=52 time=0
EXTRACT: note_on channel=9 note=42 velocity=127 time=0
EXTRACT: note_on channel=9 note=37 velocity=127 time=0
EXTRACT: note_on channel=9 note=62 velocity=127 time=0
EXTRACT: note_on channel=9 note=75 velocity=61 time=0
EXTRACT: note_off channel=9 note=75 velocity=61 time=0.11875
EXTRACT: note_off channel=9 note=28 velocity=52 time=0.07083333333333333
EXTRACT: note_off channel=0 note=68 velocity=85 time=0.020833333333333332
EXTRACT: note_off channel=0 note=56 velocity=85 time=0
EXTRACT: note_off channel=9 note=42 velocity=127 time=0.01875
EXTRACT: note_off channel=9 note=37 velocity=127 time=0
EXTRACT: note_on channel=0 note=68 velocity=127 time=0.020833333333333332
EXTRACT: note_on channel=0 note=56 velocity=127 time=0
EXTRACT: note_on channel=9 note=28 velocity=52 time=0
EXTRACT: note_on channel=9 note=35 velocity=127 time=0
EXTRACT: note_on channel=9 note=36 velocity=127 time=0
EXTRACT: note_on channel=9 note=38 velocity=67 time=0
EXTRACT: note_on channel=9 note=75 velocity=61 time=0
EXTRACT: note_off channel=9 note=62 velocity=127 time=0.0010416666666666667
EXTRACT: note_off channel=9 note=75 velocity=61 time=0.11770833333333333
EXTRACT: note_off channel=9 note=28 velocity=52 time=0.07083333333333333
EXTRACT: note_off channel=9 note=38 velocity=67 time=0.034375
EXTRACT: note_off channel=9 note=35 velocity=127 time=0.005208333333333333
EXTRACT: note_off channel=9 note=36 velocity=127 time=0
EXTRACT: note_off channel=0 note=68 velocity=127 time=0.01875
EXTRACT: note_off channel=0 note=56 velocity=127 time=0
EXTRACT: note_on channel=0 note=73 velocity=127 time=0.0020833333333333333
EXTRACT: note_on channel=0 note=61 velocity=127 time=0
EXTRACT: note_on channel=9 note=28 velocity=52 time=0
EXTRACT: note_off channel=9 note=28 velocity=52 time=0.18958333333333333
EXTRACT: note_off channel=0 note=73 velocity=127 time=0.058333333333333334
EXTRACT: note_off channel=0 note=61 velocity=127 time=0
EXTRACT: note_on channel=0 note=73 velocity=127 time=0.0020833333333333333
EXTRACT: note_on channel=0 note=61 velocity=127 time=0
EXTRACT: note_on channel=9 note=43 velocity=43 time=0
EXTRACT: note_on channel=9 note=28 velocity=52 time=0
EXTRACT: note_on channel=9 note=35 velocity=127 time=0
EXTRACT: note_on channel=9 note=36 velocity=127 time=0
EXTRACT: note_on channel=9 note=38 velocity=67 time=0
EXTRACT: note_on channel=9 note=75 velocity=56 time=0
EXTRACT: note_off channel=9 note=43 velocity=43 time=0.096875
EXTRACT: note_off channel=9 note=75 velocity=56 time=0.021875
EXTRACT: note_on channel=9 note=41 velocity=43 time=0.00625
EXTRACT: note_off channel=9 note=28 velocity=52 time=0.06458333333333333
EXTRACT: note_off channel=9 note=41 velocity=43 time=0.03229166666666666
EXTRACT: note_off channel=9 note=38 velocity=67 time=0.0020833333333333333
EXTRACT: note_off channel=9 note=35 velocity=127 time=0.005208333333333333
EXTRACT: note_off channel=9 note=36 velocity=127 time=0
EXTRACT: note_off channel=0 note=73 velocity=127 time=0.01875
EXTRACT: note_off channel=0 note=61 velocity=127 time=0
EXTRACT: note_on channel=0 note=70 velocity=127 time=0.0020833333333333333
EXTRACT: note_on channel=0 note=58 velocity=127 time=0
EXTRACT: note_on channel=9 note=28 velocity=52 time=0
EXTRACT: note_on channel=9 note=42 velocity=127 time=0
EXTRACT: note_on channel=9 note=37 velocity=127 time=0
EXTRACT: note_on channel=9 note=62 velocity=127 time=0
EXTRACT: note_on channel=9 note=35 velocity=127 time=0.125
EXTRACT: note_on channel=9 note=36 velocity=127 time=0
EXTRACT: note_on channel=9 note=38 velocity=65 time=0
EXTRACT: note_off channel=9 note=28 velocity=52 time=0.06458333333333333
EXTRACT: note_off channel=9 note=42 velocity=127 time=0.03958333333333333
EXTRACT: note_off channel=9 note=37 velocity=127 time=0
EXTRACT: note_off channel=0 note=70 velocity=127 time=0.01875
EXTRACT: note_off channel=0 note=58 velocity=127 time=0
EXTRACT: note_on channel=0 note=61 velocity=127 time=0.0020833333333333333
EXTRACT: note_on channel=0 note=73 velocity=127 time=0
EXTRACT: note_on channel=9 note=28 velocity=54 time=0
EXTRACT: note_on channel=9 note=42 velocity=127 time=0
EXTRACT: note_on channel=9 note=37 velocity=127 time=0
EXTRACT: note_on channel=9 note=62 velocity=127 time=0
EXTRACT: note_on channel=9 note=75 velocity=60 time=0
EXTRACT: note_off channel=9 note=62 velocity=127 time=0.0010416666666666667
EXTRACT: note_off channel=9 note=38 velocity=65 time=0.09791666666666667
EXTRACT: note_off channel=9 note=35 velocity=127 time=0.005208333333333333
EXTRACT: note_off channel=9 note=36 velocity=127 time=0
EXTRACT: note_off channel=9 note=75 velocity=60 time=0.014583333333333334
EXTRACT: note_on channel=9 note=75 velocity=58 time=0.00625
EXTRACT: note_off channel=9 note=28 velocity=54 time=0.06458333333333333
EXTRACT: note_off channel=9 note=42 velocity=127 time=0.03958333333333333
EXTRACT: note_off channel=9 note=37 velocity=127 time=0
EXTRACT: note_off channel=9 note=75 velocity=58 time=0.014583333333333334
EXTRACT: note_off channel=2 note=66 velocity=58 time=0.004166666666666667
EXTRACT: note_off channel=2 note=70 velocity=58 time=0
EXTRACT: note_off channel=2 note=63 velocity=127 time=0
EXTRACT: note_off channel=6 note=63 velocity=97 time=0
EXTRACT: note_off channel=6 note=66 velocity=97 time=0
EXTRACT: note_off channel=6 note=70 velocity=97 time=0
EXTRACT: note_off channel=10 note=70 velocity=97 time=0
EXTRACT: note_off channel=10 note=66 velocity=97 time=0
EXTRACT: note_off channel=10 note=63 velocity=97 time=0
EXTRACT: note_on channel=0 note=70 velocity=74 time=0.0020833333333333333
EXTRACT: note_on channel=0 note=58 velocity=74 time=0
EXTRACT: note_on channel=2 note=63 velocity=127 time=0
EXTRACT: note_on channel=2 note=66 velocity=127 time=0
EXTRACT: note_on channel=3 note=34 velocity=127 time=0
EXTRACT: note_on channel=4 note=34 velocity=127 time=0
EXTRACT: note_on channel=4 note=46 velocity=127 time=0
EXTRACT: note_on channel=6 note=78 velocity=127 time=0
EXTRACT: note_on channel=9 note=28 velocity=54 time=0
EXTRACT: note_on channel=9 note=35 velocity=127 time=0
EXTRACT: note_on channel=9 note=36 velocity=127 time=0
EXTRACT: note_on channel=9 note=38 velocity=65 time=0
EXTRACT: note_on channel=9 note=75 velocity=61 time=0
EXTRACT: note_on channel=10 note=78 velocity=127 time=0
EXTRACT: note_off channel=9 note=62 velocity=127 time=0.0010416666666666667
EXTRACT: note_off channel=0 note=61 velocity=127 time=0.011458333333333333
EXTRACT: note_off channel=0 note=73 velocity=127 time=0
EXTRACT: note_off channel=3 note=27 velocity=127 time=0.0010416666666666667
EXTRACT: note_off channel=4 note=27 velocity=127 time=0
EXTRACT: note_off channel=4 note=39 velocity=127 time=0
EXTRACT: note_off channel=9 note=75 velocity=61 time=0.10520833333333333
EXTRACT: note_off channel=9 note=28 velocity=54 time=0.07083333333333333
EXTRACT: note_off channel=9 note=38 velocity=65 time=0.034375
EXTRACT: note_off channel=9 note=35 velocity=127 time=0.005208333333333333
EXTRACT: note_off channel=9 note=36 velocity=127 time=0
EXTRACT: note_off channel=0 note=70 velocity=74 time=0.01875
EXTRACT: note_off channel=0 note=58 velocity=74 time=0
EXTRACT: note_on channel=0 note=73 velocity=76 time=0.0020833333333333333
EXTRACT: note_on channel=0 note=61 velocity=76 time=0
EXTRACT: note_on channel=9 note=28 velocity=56 time=0
EXTRACT: note_on channel=9 note=75 velocity=61 time=0
EXTRACT: note_off channel=9 note=75 velocity=61 time=0.11875
EXTRACT: note_on channel=9 note=75 velocity=61 time=0.00625
EXTRACT: note_off channel=9 note=28 velocity=56 time=0.06458333333333333
EXTRACT: note_off channel=9 note=75 velocity=61 time=0.05416666666666667
EXTRACT: note_off channel=2 note=63 velocity=127 time=0.004166666666666667
EXTRACT: note_off channel=2 note=66 velocity=127 time=0
EXTRACT: note_off channel=6 note=78 velocity=127 time=0
EXTRACT: note_off channel=10 note=78 velocity=127 time=0
EXTRACT: note_on channel=2 note=61 velocity=127 time=0.0020833333333333333
EXTRACT: note_on channel=2 note=65 velocity=127 time=0
EXTRACT: note_on channel=6 note=70 velocity=127 time=0
EXTRACT: note_on channel=6 note=73 velocity=127 time=0
EXTRACT: note_on channel=6 note=77 velocity=127 time=0
EXTRACT: note_on channel=9 note=28 velocity=52 time=0
EXTRACT: note_on channel=9 note=42 velocity=127 time=0
EXTRACT: note_on channel=9 note=37 velocity=127 time=0
EXTRACT: note_on channel=9 note=62 velocity=127 time=0
EXTRACT: note_on channel=9 note=75 velocity=61 time=0
EXTRACT: note_on channel=10 note=77 velocity=127 time=0
EXTRACT: note_on channel=10 note=73 velocity=127 time=0
EXTRACT: note_on channel=10 note=70 velocity=127 time=0
EXTRACT: note_off channel=0 note=73 velocity=76 time=0.0125
EXTRACT: note_off channel=0 note=61 velocity=76 time=0
EXTRACT: note_off channel=9 note=75 velocity=61 time=0.10625
EXTRACT: note_off channel=9 note=28 velocity=52 time=0.07083333333333333
EXTRACT: note_off channel=9 note=42 velocity=127 time=0.03958333333333333
EXTRACT: note_off channel=9 note=37 velocity=127 time=0
EXTRACT: note_on channel=0 note=70 velocity=127 time=0.020833333333333332
EXTRACT: note_on channel=0 note=58 velocity=127 time=0
EXTRACT: note_on channel=9 note=28 velocity=52 time=0
EXTRACT: note_on channel=9 note=35 velocity=127 time=0
EXTRACT: note_on channel=9 note=36 velocity=127 time=0
EXTRACT: note_on channel=9 note=38 velocity=67 time=0
EXTRACT: note_on channel=9 note=75 velocity=61 time=0
EXTRACT: note_off channel=9 note=62 velocity=127 time=0.0010416666666666667
EXTRACT: note_off channel=9 note=75 velocity=61 time=0.11770833333333333
EXTRACT: note_off channel=9 note=28 velocity=52 time=0.07083333333333333
EXTRACT: note_off channel=9 note=38 velocity=67 time=0.034375
EXTRACT: note_off channel=9 note=35 velocity=127 time=0.005208333333333333
EXTRACT: note_off channel=9 note=36 velocity=127 time=0
EXTRACT: note_off channel=0 note=70 velocity=127 time=0.01875
EXTRACT: note_off channel=0 note=58 velocity=127 time=0
EXTRACT: note_on channel=0 note=73 velocity=127 time=0.0020833333333333333
EXTRACT: note_on channel=0 note=61 velocity=127 time=0
EXTRACT: note_on channel=9 note=28 velocity=52 time=0
EXTRACT: note_off channel=9 note=28 velocity=52 time=0.18958333333333333
EXTRACT: note_off channel=0 note=73 velocity=127 time=0.058333333333333334
EXTRACT: note_off channel=0 note=61 velocity=127 time=0
EXTRACT: note_on channel=0 note=70 velocity=127 time=0.0020833333333333333
EXTRACT: note_on channel=0 note=58 velocity=127 time=0
EXTRACT: note_on channel=9 note=43 velocity=43 time=0
EXTRACT: note_on channel=9 note=28 velocity=52 time=0
EXTRACT: note_on channel=9 note=35 velocity=127 time=0
EXTRACT: note_on channel=9 note=36 velocity=127 time=0
EXTRACT: note_on channel=9 note=38 velocity=67 time=0
EXTRACT: note_on channel=9 note=75 velocity=56 time=0
EXTRACT: note_off channel=9 note=43 velocity=43 time=0.096875
EXTRACT: note_off channel=9 note=75 velocity=56 time=0.021875
EXTRACT: note_on channel=9 note=41 velocity=43 time=0.00625
EXTRACT: note_off channel=9 note=28 velocity=52 time=0.06458333333333333
EXTRACT: note_off channel=9 note=41 velocity=43 time=0.03229166666666666
EXTRACT: note_off channel=9 note=38 velocity=67 time=0.0020833333333333333
EXTRACT: note_off channel=9 note=35 velocity=127 time=0.005208333333333333
EXTRACT: note_off channel=9 note=36 velocity=127 time=0
EXTRACT: note_off channel=0 note=70 velocity=127 time=0.01875
EXTRACT: note_off channel=0 note=58 velocity=127 time=0
EXTRACT: note_off channel=2 note=61 velocity=127 time=0
EXTRACT: note_off channel=2 note=65 velocity=127 time=0
EXTRACT: note_off channel=3 note=34 velocity=127 time=0
EXTRACT: note_off channel=4 note=34 velocity=127 time=0
EXTRACT: note_off channel=4 note=46 velocity=127 time=0
EXTRACT: note_off channel=6 note=70 velocity=127 time=0
EXTRACT: note_off channel=6 note=73 velocity=127 time=0
EXTRACT: note_off channel=6 note=77 velocity=127 time=0
EXTRACT: note_off channel=10 note=77 velocity=127 time=0
EXTRACT: note_off channel=10 note=73 velocity=127 time=0
EXTRACT: note_off channel=10 note=70 velocity=127 time=0
EXTRACT: note_on channel=0 note=70 velocity=127 time=0.0020833333333333333
EXTRACT: note_on channel=0 note=58 velocity=127 time=0
EXTRACT: note_on channel=2 note=68 velocity=127 time=0
EXTRACT: note_on channel=6 note=73 velocity=127 time=0
EXTRACT: note_on channel=9 note=28 velocity=52 time=0
EXTRACT: note_on channel=9 note=42 velocity=127 time=0
EXTRACT: note_on channel=9 note=37 velocity=127 time=0
EXTRACT: note_on channel=9 note=62 velocity=127 time=0
EXTRACT: note_on channel=10 note=73 velocity=127 time=0
EXTRACT: note_on channel=9 note=35 velocity=127 time=0.125
EXTRACT: note_on channel=9 note=36 velocity=127 time=0
EXTRACT: note_on channel=9 note=38 velocity=65 time=0
EXTRACT: note_off channel=9 note=28 velocity=52 time=0.06458333333333333
EXTRACT: note_off channel=9 note=42 velocity=127 time=0.03958333333333333
EXTRACT: note_off channel=9 note=37 velocity=127 time=0
EXTRACT: note_off channel=0 note=70 velocity=127 time=0.01875
EXTRACT: note_off channel=0 note=58 velocity=127 time=0
EXTRACT: note_on channel=0 note=70 velocity=127 time=0.0020833333333333333
EXTRACT: note_on channel=0 note=58 velocity=127 time=0
EXTRACT: note_on channel=3 note=36 velocity=97 time=0
EXTRACT: note_on channel=4 note=36 velocity=97 time=0
EXTRACT: note_on channel=4 note=48 velocity=97 time=0
EXTRACT: note_on channel=9 note=28 velocity=54 time=0
EXTRACT: note_on channel=9 note=42 velocity=127 time=0
EXTRACT: note_on channel=9 note=37 velocity=127 time=0
EXTRACT: note_on channel=9 note=62 velocity=127 time=0
EXTRACT: note_on channel=9 note=75 velocity=60 time=0
EXTRACT: note_off channel=9 note=62 velocity=127 time=0.0010416666666666667
EXTRACT: note_off channel=9 note=38 velocity=65 time=0.09791666666666667
EXTRACT: note_off channel=9 note=35 velocity=127 time=0.005208333333333333
EXTRACT: note_off channel=9 note=36 velocity=127 time=0
EXTRACT: note_off channel=9 note=75 velocity=60 time=0.014583333333333334
EXTRACT: note_off channel=3 note=36 velocity=97 time=0.004166666666666667
EXTRACT: note_off channel=4 note=36 velocity=97 time=0
EXTRACT: note_off channel=4 note=48 velocity=97 time=0
EXTRACT: note_on channel=3 note=37 velocity=97 time=0.0020833333333333333
EXTRACT: note_on channel=4 note=37 velocity=97 time=0
EXTRACT: note_on channel=4 note=49 velocity=97 time=0
EXTRACT: note_on channel=9 note=75 velocity=58 time=0
EXTRACT: note_off channel=9 note=28 velocity=54 time=0.06458333333333333
EXTRACT: note_off channel=9 note=42 velocity=127 time=0.03958333333333333
EXTRACT: note_off channel=9 note=37 velocity=127 time=0
EXTRACT: note_off channel=9 note=75 velocity=58 time=0.014583333333333334
EXTRACT: note_off channel=0 note=70 velocity=127 time=0.004166666666666667
EXTRACT: note_off channel=0 note=58 velocity=127 time=0
EXTRACT: note_off channel=2 note=68 velocity=127 time=0
EXTRACT: note_off channel=3 note=37 velocity=97 time=0
EXTRACT: note_off channel=4 note=37 velocity=97 time=0
EXTRACT: note_off channel=4 note=49 velocity=97 time=0
EXTRACT: note_off channel=6 note=73 velocity=127 time=0
EXTRACT: note_off channel=10 note=73 velocity=127 time=0
EXTRACT: note_on channel=0 note=68 velocity=127 time=0.0020833333333333333
EXTRACT: note_on channel=0 note=56 velocity=127 time=0
EXTRACT: note_on channel=2 note=70 velocity=56 time=0
EXTRACT: note_on channel=2 note=73 velocity=56 time=0
EXTRACT: note_on channel=2 note=66 velocity=127 time=0
EXTRACT: note_on channel=3 note=30 velocity=127 time=0
EXTRACT: note_on channel=4 note=30 velocity=127 time=0
EXTRACT: note_on channel=4 note=42 velocity=127 time=0
EXTRACT: note_on channel=6 note=66 velocity=97 time=0
EXTRACT: note_on channel=6 note=70 velocity=97 time=0
EXTRACT: note_on channel=6 note=73 velocity=97 time=0
EXTRACT: note_on channel=9 note=28 velocity=54 time=0
EXTRACT: note_on channel=9 note=35 velocity=127 time=0
EXTRACT: note_on channel=9 note=36 velocity=127 time=0
EXTRACT: note_on channel=9 note=38 velocity=65 time=0
EXTRACT: note_on channel=9 note=75 velocity=61 time=0
EXTRACT: note_on channel=10 note=73 velocity=97 time=0
EXTRACT: note_on channel=10 note=70 velocity=97 time=0
EXTRACT: note_on channel=10 note=66 velocity=97 time=0
EXTRACT: note_off channel=9 note=62 velocity=127 time=0.0010416666666666667
EXTRACT: note_off channel=9 note=75 velocity=61 time=0.11770833333333333
EXTRACT: note_off channel=9 note=28 velocity=54 time=0.07083333333333333
EXTRACT: note_off channel=9 note=38 velocity=65 time=0.034375
EXTRACT: note_off channel=9 note=35 velocity=127 time=0.005208333333333333
EXTRACT: note_off channel=9 note=36 velocity=127 time=0
EXTRACT: note_on channel=0 note=70 velocity=80 time=0.020833333333333332
EXTRACT: note_on channel=0 note=58 velocity=80 time=0
EXTRACT: note_on channel=9 note=28 velocity=56 time=0
EXTRACT: note_on channel=9 note=75 velocity=61 time=0
EXTRACT: note_off channel=0 note=68 velocity=127 time=0.028125
EXTRACT: note_off channel=0 note=56 velocity=127 time=0
EXTRACT: note_off channel=9 note=75 velocity=61 time=0.090625
EXTRACT: note_on channel=9 note=75 velocity=61 time=0.00625
EXTRACT: note_off channel=9 note=28 velocity=56 time=0.06458333333333333
EXTRACT: note_off channel=9 note=75 velocity=61 time=0.05416666666666667
EXTRACT: note_off channel=0 note=70 velocity=80 time=0.004166666666666667
EXTRACT: note_off channel=0 note=58 velocity=80 time=0
EXTRACT: note_on channel=0 note=68 velocity=80 time=0.0020833333333333333
EXTRACT: note_on channel=0 note=56 velocity=80 time=0
EXTRACT: note_on channel=9 note=28 velocity=52 time=0
EXTRACT: note_on channel=9 note=42 velocity=127 time=0
EXTRACT: note_on channel=9 note=37 velocity=127 time=0
EXTRACT: note_on channel=9 note=62 velocity=127 time=0
EXTRACT: note_on channel=9 note=75 velocity=61 time=0
EXTRACT: note_off channel=9 note=75 velocity=61 time=0.11875
EXTRACT: note_off channel=9 note=28 velocity=52 time=0.07083333333333333
EXTRACT: note_off channel=9 note=42 velocity=127 time=0.03958333333333333
EXTRACT: note_off channel=9 note=37 velocity=127 time=0
EXTRACT: note_on channel=0 note=70 velocity=127 time=0.020833333333333332
EXTRACT: note_on channel=9 note=28 velocity=52 time=0
EXTRACT: note_on channel=9 note=35 velocity=127 time=0
EXTRACT: note_on channel=9 note=36 velocity=127 time=0
EXTRACT: note_on channel=9 note=38 velocity=67 time=0
EXTRACT: note_on channel=9 note=75 velocity=61 time=0
EXTRACT: note_off channel=9 note=62 velocity=127 time=0.0010416666666666667
EXTRACT: note_off channel=0 note=68 velocity=80 time=0.027083333333333334
EXTRACT: note_off channel=0 note=56 velocity=80 time=0
EXTRACT: note_off channel=9 note=75 velocity=61 time=0.090625
EXTRACT: note_off channel=9 note=28 velocity=52 time=0.07083333333333333
EXTRACT: note_off channel=9 note=38 velocity=67 time=0.034375
EXTRACT: note_off channel=9 note=35 velocity=127 time=0.005208333333333333
EXTRACT: note_off channel=9 note=36 velocity=127 time=0
EXTRACT: note_off channel=0 note=70 velocity=127 time=0.01875
EXTRACT: note_on channel=0 note=73 velocity=127 time=0.0020833333333333333
EXTRACT: note_on channel=0 note=70 velocity=127 time=0
EXTRACT: note_on channel=0 note=77 velocity=127 time=0
EXTRACT: note_on channel=9 note=28 velocity=52 time=0
EXTRACT: note_off channel=9 note=28 velocity=52 time=0.18958333333333333
EXTRACT: note_off channel=0 note=73 velocity=127 time=0.058333333333333334
EXTRACT: note_off channel=0 note=70 velocity=127 time=0
EXTRACT: note_off channel=0 note=77 velocity=127 time=0
EXTRACT: note_on channel=0 note=73 velocity=127 time=0.0020833333333333333
EXTRACT: note_on channel=0 note=70 velocity=127 time=0
EXTRACT: note_on channel=0 note=77 velocity=127 time=0
EXTRACT: note_on channel=9 note=43 velocity=43 time=0
EXTRACT: note_on channel=9 note=28 velocity=52 time=0
EXTRACT: note_on channel=9 note=35 velocity=127 time=0
EXTRACT: note_on channel=9 note=36 velocity=127 time=0
EXTRACT: note_on channel=9 note=38 velocity=67 time=0
EXTRACT: note_on channel=9 note=75 velocity=56 time=0
EXTRACT: note_off channel=9 note=43 velocity=43 time=0.096875
EXTRACT: note_off channel=9 note=75 velocity=56 time=0.021875
EXTRACT: note_on channel=9 note=41 velocity=43 time=0.00625
EXTRACT: note_off channel=9 note=28 velocity=52 time=0.06458333333333333
EXTRACT: note_off channel=9 note=41 velocity=43 time=0.03229166666666666
EXTRACT: note_off channel=9 note=38 velocity=67 time=0.0020833333333333333
EXTRACT: note_off channel=9 note=35 velocity=127 time=0.005208333333333333
EXTRACT: note_off channel=9 note=36 velocity=127 time=0
EXTRACT: note_off channel=0 note=73 velocity=127 time=0.01875
EXTRACT: note_off channel=0 note=70 velocity=127 time=0
EXTRACT: note_off channel=0 note=77 velocity=127 time=0
EXTRACT: note_on channel=9 note=28 velocity=52 time=0.0020833333333333333
EXTRACT: note_on channel=9 note=42 velocity=127 time=0
EXTRACT: note_on channel=9 note=37 velocity=127 time=0
EXTRACT: note_on channel=9 note=62 velocity=127 time=0
EXTRACT: note_on channel=9 note=35 velocity=127 time=0.125
EXTRACT: note_on channel=9 note=36 velocity=127 time=0
EXTRACT: note_on channel=9 note=38 velocity=65 time=0
EXTRACT: note_off channel=9 note=28 velocity=52 time=0.06458333333333333
EXTRACT: note_off channel=9 note=42 velocity=127 time=0.03958333333333333
EXTRACT: note_off channel=9 note=37 velocity=127 time=0
EXTRACT: note_on channel=9 note=28 velocity=54 time=0.020833333333333332
EXTRACT: note_on channel=9 note=42 velocity=127 time=0
EXTRACT: note_on channel=9 note=37 velocity=127 time=0
EXTRACT: note_on channel=9 note=62 velocity=127 time=0
EXTRACT: note_on channel=9 note=75 velocity=60 time=0
EXTRACT: note_off channel=9 note=62 velocity=127 time=0.0010416666666666667
EXTRACT: note_off channel=9 note=38 velocity=65 time=0.09791666666666667
EXTRACT: note_off channel=9 note=35 velocity=127 time=0.005208333333333333
EXTRACT: note_off channel=9 note=36 velocity=127 time=0
EXTRACT: note_off channel=9 note=75 velocity=60 time=0.014583333333333334
EXTRACT: note_on channel=9 note=75 velocity=58 time=0.00625
EXTRACT: note_off channel=9 note=28 velocity=54 time=0.06458333333333333
EXTRACT: note_off channel=9 note=42 velocity=127 time=0.03958333333333333
EXTRACT: note_off channel=9 note=37 velocity=127 time=0
EXTRACT: note_off channel=9 note=75 velocity=58 time=0.014583333333333334
EXTRACT: note_off channel=2 note=70 velocity=56 time=0.004166666666666667
EXTRACT: note_off channel=2 note=73 velocity=56 time=0
EXTRACT: note_off channel=2 note=66 velocity=127 time=0
EXTRACT: note_off channel=3 note=30 velocity=127 time=0
EXTRACT: note_off channel=4 note=30 velocity=127 time=0
EXTRACT: note_off channel=4 note=42 velocity=127 time=0
EXTRACT: note_off channel=6 note=66 velocity=97 time=0
EXTRACT: note_off channel=6 note=70 velocity=97 time=0
EXTRACT: note_off channel=6 note=73 velocity=97 time=0
EXTRACT: note_off channel=10 note=73 velocity=97 time=0
EXTRACT: note_off channel=10 note=70 velocity=97 time=0
EXTRACT: note_off channel=10 note=66 velocity=97 time=0
EXTRACT: note_on channel=9 note=75 velocity=61 time=0.0020833333333333333
EXTRACT: note_on channel=9 note=38 velocity=65 time=0
EXTRACT: note_on channel=9 note=36 velocity=127 time=0
EXTRACT: note_on channel=9 note=35 velocity=127 time=0
EXTRACT: note_on channel=9 note=28 velocity=54 time=0
EXTRACT: note_off channel=9 note=62 velocity=127 time=0.0010416666666666667
EXTRACT: note_off channel=9 note=75 velocity=61 time=0.11770833333333333
EXTRACT: note_off channel=9 note=28 velocity=54 time=0.07083333333333333
EXTRACT: note_off channel=9 note=38 velocity=65 time=0.034375
EXTRACT: note_off channel=9 note=36 velocity=127 time=0.005208333333333333
EXTRACT: note_off channel=9 note=35 velocity=127 time=0
EXTRACT: note_on channel=9 note=75 velocity=61 time=0.020833333333333332
EXTRACT: note_on channel=9 note=28 velocity=56 time=0
EXTRACT: note_off channel=9 note=75 velocity=61 time=0.11875
EXTRACT: note_on channel=9 note=75 velocity=61 time=0.00625
EXTRACT: note_off channel=9 note=28 velocity=56 time=0.06458333333333333
EXTRACT: note_off channel=9 note=75 velocity=61 time=0.05416666666666667
EXTRACT: note_on channel=9 note=75 velocity=61 time=0.00625
EXTRACT: note_on channel=9 note=62 velocity=127 time=0
EXTRACT: note_on channel=9 note=37 velocity=127 time=0
EXTRACT: note_on channel=9 note=42 velocity=127 time=0
EXTRACT: note_on channel=9 note=28 velocity=52 time=0
EXTRACT: note_off channel=9 note=75 velocity=61 time=0.11875
EXTRACT: note_off channel=9 note=28 velocity=52 time=0.07083333333333333
EXTRACT: note_off channel=9 note=37 velocity=127 time=0.03958333333333333
EXTRACT: note_off channel=9 note=42 velocity=127 time=0
EXTRACT: note_on channel=9 note=75 velocity=61 time=0.020833333333333332
EXTRACT: note_on channel=9 note=38 velocity=67 time=0
EXTRACT: note_on channel=9 note=36 velocity=127 time=0
EXTRACT: note_on channel=9 note=35 velocity=127 time=0
EXTRACT: note_on channel=9 note=28 velocity=52 time=0
EXTRACT: note_off channel=9 note=62 velocity=127 time=0.0010416666666666667
EXTRACT: note_off channel=9 note=75 velocity=61 time=0.11770833333333333
EXTRACT: note_off channel=9 note=28 velocity=52 time=0.07083333333333333
EXTRACT: note_off channel=9 note=38 velocity=67 time=0.034375
EXTRACT: note_off channel=9 note=36 velocity=127 time=0.005208333333333333
EXTRACT: note_off channel=9 note=35 velocity=127 time=0
EXTRACT: note_on channel=9 note=28 velocity=52 time=0.020833333333333332
EXTRACT: note_off channel=9 note=28 velocity=52 time=0.18958333333333333
EXTRACT: note_on channel=9 note=75 velocity=56 time=0.06041666666666667
EXTRACT: note_on channel=9 note=38 velocity=67 time=0
EXTRACT: note_on channel=9 note=36 velocity=127 time=0
EXTRACT: note_on channel=9 note=35 velocity=127 time=0
EXTRACT: note_on channel=9 note=28 velocity=52 time=0
EXTRACT: note_on channel=9 note=43 velocity=43 time=0
EXTRACT: note_off channel=9 note=43 velocity=43 time=0.096875
EXTRACT: note_off channel=9 note=75 velocity=56 time=0.021875
EXTRACT: note_on channel=9 note=41 velocity=43 time=0.00625
EXTRACT: note_off channel=9 note=28 velocity=52 time=0.06458333333333333
EXTRACT: note_off channel=9 note=41 velocity=43 time=0.03229166666666666
EXTRACT: note_off channel=9 note=38 velocity=67 time=0.0020833333333333333
EXTRACT: note_off channel=9 note=36 velocity=127 time=0.005208333333333333
EXTRACT: note_off channel=9 note=35 velocity=127 time=0
EXTRACT: note_on channel=9 note=62 velocity=127 time=0.020833333333333332
EXTRACT: note_on channel=9 note=37 velocity=127 time=0
EXTRACT: note_on channel=9 note=42 velocity=127 time=0
EXTRACT: note_on channel=9 note=28 velocity=52 time=0
EXTRACT: note_on channel=9 note=38 velocity=65 time=0.125
EXTRACT: note_on channel=9 note=36 velocity=127 time=0
EXTRACT: note_on channel=9 note=35 velocity=127 time=0
EXTRACT: note_off channel=9 note=28 velocity=52 time=0.06458333333333333
EXTRACT: note_off channel=9 note=37 velocity=127 time=0.03958333333333333
EXTRACT: note_off channel=9 note=42 velocity=127 time=0
EXTRACT: note_on channel=9 note=75 velocity=60 time=0.020833333333333332
EXTRACT: note_on channel=9 note=62 velocity=127 time=0
EXTRACT: note_on channel=9 note=37 velocity=127 time=0
EXTRACT: note_on channel=9 note=42 velocity=127 time=0
EXTRACT: note_on channel=9 note=28 velocity=54 time=0
EXTRACT: note_off channel=9 note=62 velocity=127 time=0.0010416666666666667
EXTRACT: note_off channel=9 note=38 velocity=65 time=0.09791666666666667
EXTRACT: note_off channel=9 note=36 velocity=127 time=0.005208333333333333
EXTRACT: note_off channel=9 note=35 velocity=127 time=0
EXTRACT: note_off channel=9 note=75 velocity=60 time=0.014583333333333334
EXTRACT: note_on channel=9 note=75 velocity=58 time=0.00625
EXTRACT: note_off channel=9 note=28 velocity=54 time=0.06458333333333333
EXTRACT: note_off channel=9 note=37 velocity=127 time=0.03958333333333333
EXTRACT: note_off channel=9 note=42 velocity=127 time=0
EXTRACT: note_off channel=9 note=75 velocity=58 time=0.014583333333333334
EXTRACT: note_on channel=9 note=75 velocity=61 time=0.00625
EXTRACT: note_on channel=9 note=38 velocity=65 time=0
EXTRACT: note_on channel=9 note=28 velocity=54 time=0
EXTRACT: note_on channel=9 note=35 velocity=127 time=0
EXTRACT: note_on channel=9 note=36 velocity=127 time=0
EXTRACT: note_off channel=9 note=62 velocity=127 time=0.0010416666666666667
EXTRACT: note_off channel=9 note=75 velocity=61 time=0.11770833333333333
EXTRACT: note_off channel=9 note=28 velocity=54 time=0.07083333333333333
EXTRACT: note_off channel=9 note=38 velocity=65 time=0.034375
EXTRACT: note_off channel=9 note=35 velocity=127 time=0.005208333333333333
EXTRACT: note_off channel=9 note=36 velocity=127 time=0
EXTRACT: note_on channel=9 note=75 velocity=61 time=0.020833333333333332
EXTRACT: note_on channel=9 note=28 velocity=56 time=0
EXTRACT: note_off channel=9 note=75 velocity=61 time=0.11875
EXTRACT: note_on channel=9 note=75 velocity=61 time=0.00625
EXTRACT: note_off channel=9 note=28 velocity=56 time=0.06458333333333333
EXTRACT: note_off channel=9 note=75 velocity=61 time=0.05416666666666667
EXTRACT: note_on channel=9 note=62 velocity=127 time=0.00625
EXTRACT: note_on channel=9 note=75 velocity=61 time=0
EXTRACT: note_on channel=9 note=28 velocity=52 time=0
EXTRACT: note_on channel=9 note=42 velocity=127 time=0
EXTRACT: note_on channel=9 note=37 velocity=127 time=0
EXTRACT: note_off channel=9 note=75 velocity=61 time=0.11875
EXTRACT: note_off channel=9 note=28 velocity=52 time=0.07083333333333333
EXTRACT: note_off channel=9 note=42 velocity=127 time=0.03958333333333333
EXTRACT: note_off channel=9 note=37 velocity=127 time=0
EXTRACT: note_on channel=9 note=75 velocity=61 time=0.020833333333333332
EXTRACT: note_on channel=9 note=38 velocity=67 time=0
EXTRACT: note_on channel=9 note=28 velocity=52 time=0
EXTRACT: note_on channel=9 note=35 velocity=127 time=0
EXTRACT: note_on channel=9 note=36 velocity=127 time=0
EXTRACT: note_off channel=9 note=62 velocity=127 time=0.0010416666666666667
EXTRACT: note_off channel=9 note=75 velocity=61 time=0.11770833333333333
EXTRACT: note_off channel=9 note=28 velocity=52 time=0.07083333333333333
EXTRACT: note_off channel=9 note=38 velocity=67 time=0.034375
EXTRACT: note_off channel=9 note=35 velocity=127 time=0.005208333333333333
EXTRACT: note_off channel=9 note=36 velocity=127 time=0
EXTRACT: note_on channel=9 note=28 velocity=52 time=0.020833333333333332
EXTRACT: note_off channel=9 note=28 velocity=52 time=0.18958333333333333
EXTRACT: note_on channel=9 note=75 velocity=56 time=0.06041666666666667
EXTRACT: note_on channel=9 note=38 velocity=67 time=0
EXTRACT: note_on channel=9 note=43 velocity=43 time=0
EXTRACT: note_on channel=9 note=28 velocity=52 time=0
EXTRACT: note_on channel=9 note=35 velocity=127 time=0
EXTRACT: note_on channel=9 note=36 velocity=127 time=0
EXTRACT: note_off channel=9 note=43 velocity=43 time=0.096875
EXTRACT: note_off channel=9 note=75 velocity=56 time=0.021875
EXTRACT: note_on channel=9 note=41 velocity=43 time=0.00625
EXTRACT: note_off channel=9 note=28 velocity=52 time=0.06458333333333333
EXTRACT: note_off channel=9 note=41 velocity=43 time=0.03229166666666666
EXTRACT: note_off channel=9 note=38 velocity=67 time=0.0020833333333333333
EXTRACT: note_off channel=9 note=35 velocity=127 time=0.005208333333333333
EXTRACT: note_off channel=9 note=36 velocity=127 time=0
EXTRACT: note_on channel=9 note=62 velocity=127 time=0.020833333333333332
EXTRACT: note_on channel=9 note=28 velocity=52 time=0
EXTRACT: note_on channel=9 note=42 velocity=127 time=0
EXTRACT: note_on channel=9 note=37 velocity=127 time=0
EXTRACT: note_on channel=9 note=38 velocity=65 time=0.125
EXTRACT: note_on channel=9 note=35 velocity=127 time=0
EXTRACT: note_on channel=9 note=36 velocity=127 time=0
EXTRACT: note_off channel=9 note=28 velocity=52 time=0.06458333333333333
EXTRACT: note_off channel=9 note=42 velocity=127 time=0.03958333333333333
EXTRACT: note_off channel=9 note=37 velocity=127 time=0
EXTRACT: note_on channel=9 note=62 velocity=127 time=0.020833333333333332
EXTRACT: note_on channel=9 note=75 velocity=60 time=0
EXTRACT: note_on channel=9 note=28 velocity=54 time=0
EXTRACT: note_on channel=9 note=42 velocity=127 time=0
EXTRACT: note_on channel=9 note=37 velocity=127 time=0
EXTRACT: note_off channel=9 note=62 velocity=127 time=0.0010416666666666667
EXTRACT: note_off channel=9 note=38 velocity=65 time=0.09791666666666667
EXTRACT: note_off channel=9 note=35 velocity=127 time=0.005208333333333333
EXTRACT: note_off channel=9 note=36 velocity=127 time=0
EXTRACT: note_off channel=9 note=75 velocity=60 time=0.014583333333333334
EXTRACT: note_on channel=9 note=75 velocity=58 time=0.00625
EXTRACT: note_off channel=9 note=28 velocity=54 time=0.06458333333333333
EXTRACT: note_off channel=9 note=42 velocity=127 time=0.03958333333333333
EXTRACT: note_off channel=9 note=37 velocity=127 time=0
EXTRACT: note_off channel=9 note=75 velocity=58 time=0.014583333333333334
EXTRACT: note_on channel=9 note=75 velocity=61 time=0.00625
EXTRACT: note_on channel=9 note=38 velocity=65 time=0
EXTRACT: note_on channel=9 note=28 velocity=54 time=0
EXTRACT: note_on channel=9 note=35 velocity=127 time=0
EXTRACT: note_on channel=9 note=36 velocity=127 time=0
EXTRACT: note_off channel=9 note=62 velocity=127 time=0.0010416666666666667
EXTRACT: note_off channel=9 note=75 velocity=61 time=0.11770833333333333
EXTRACT: note_off channel=9 note=28 velocity=54 time=0.07083333333333333
EXTRACT: note_off channel=9 note=38 velocity=65 time=0.034375
EXTRACT: note_off channel=9 note=35 velocity=127 time=0.005208333333333333
EXTRACT: note_off channel=9 note=36 velocity=127 time=0
EXTRACT: note_on channel=9 note=75 velocity=61 time=0.020833333333333332
EXTRACT: note_on channel=9 note=28 velocity=56 time=0
EXTRACT: note_off channel=9 note=75 velocity=61 time=0.11875
EXTRACT: note_on channel=9 note=75 velocity=61 time=0.00625
EXTRACT: note_off channel=9 note=28 velocity=56 time=0.06458333333333333
EXTRACT: note_off channel=9 note=75 velocity=61 time=0.05416666666666667
EXTRACT: note_on channel=9 note=62 velocity=127 time=0.00625
EXTRACT: note_on channel=9 note=75 velocity=61 time=0
EXTRACT: note_on channel=9 note=28 velocity=52 time=0
EXTRACT: note_on channel=9 note=42 velocity=127 time=0
EXTRACT: note_on channel=9 note=37 velocity=127 time=0
EXTRACT: note_off channel=9 note=75 velocity=61 time=0.11875
EXTRACT: note_off channel=9 note=28 velocity=52 time=0.07083333333333333
EXTRACT: note_off channel=9 note=42 velocity=127 time=0.03958333333333333
EXTRACT: note_off channel=9 note=37 velocity=127 time=0
EXTRACT: note_on channel=9 note=75 velocity=61 time=0.020833333333333332
EXTRACT: note_on channel=9 note=38 velocity=67 time=0
EXTRACT: note_on channel=9 note=28 velocity=52 time=0
EXTRACT: note_on channel=9 note=35 velocity=127 time=0
EXTRACT: note_on channel=9 note=36 velocity=127 time=0
EXTRACT: note_off channel=9 note=62 velocity=127 time=0.0010416666666666667
EXTRACT: note_off channel=9 note=75 velocity=61 time=0.11770833333333333
EXTRACT: note_off channel=9 note=28 velocity=52 time=0.07083333333333333
EXTRACT: note_off channel=9 note=38 velocity=67 time=0.034375
EXTRACT: note_off channel=9 note=35 velocity=127 time=0.005208333333333333
EXTRACT: note_off channel=9 note=36 velocity=127 time=0
EXTRACT: note_on channel=9 note=28 velocity=52 time=0.020833333333333332
EXTRACT: note_off channel=9 note=28 velocity=52 time=0.18958333333333333
EXTRACT: note_on channel=9 note=75 velocity=56 time=0.06041666666666667
EXTRACT: note_on channel=9 note=38 velocity=67 time=0
EXTRACT: note_on channel=9 note=43 velocity=43 time=0
EXTRACT: note_on channel=9 note=28 velocity=52 time=0
EXTRACT: note_on channel=9 note=35 velocity=127 time=0
EXTRACT: note_on channel=9 note=36 velocity=127 time=0
EXTRACT: note_off channel=9 note=43 velocity=43 time=0.096875
EXTRACT: note_off channel=9 note=75 velocity=56 time=0.021875
EXTRACT: note_on channel=9 note=41 velocity=43 time=0.00625
EXTRACT: note_off channel=9 note=28 velocity=52 time=0.06458333333333333
EXTRACT: note_off channel=9 note=41 velocity=43 time=0.03229166666666666
EXTRACT: note_off channel=9 note=38 velocity=67 time=0.0020833333333333333
EXTRACT: note_off channel=9 note=35 velocity=127 time=0.005208333333333333
EXTRACT: note_off channel=9 note=36 velocity=127 time=0
EXTRACT: note_on channel=9 note=62 velocity=127 time=0.020833333333333332
EXTRACT: note_on channel=9 note=28 velocity=52 time=0
EXTRACT: note_on channel=9 note=42 velocity=127 time=0
EXTRACT: note_on channel=9 note=37 velocity=127 time=0
EXTRACT: note_on channel=9 note=38 velocity=65 time=0.125
EXTRACT: note_on channel=9 note=35 velocity=127 time=0
EXTRACT: note_on channel=9 note=36 velocity=127 time=0
EXTRACT: note_off channel=9 note=28 velocity=52 time=0.06458333333333333
EXTRACT: note_off channel=9 note=42 velocity=127 time=0.03958333333333333
EXTRACT: note_off channel=9 note=37 velocity=127 time=0
EXTRACT: note_on channel=9 note=62 velocity=127 time=0.020833333333333332
EXTRACT: note_on channel=9 note=75 velocity=60 time=0
EXTRACT: note_on channel=9 note=28 velocity=54 time=0
EXTRACT: note_on channel=9 note=42 velocity=127 time=0
EXTRACT: note_on channel=9 note=37 velocity=127 time=0
EXTRACT: note_off channel=9 note=62 velocity=127 time=0.0010416666666666667
EXTRACT: note_off channel=9 note=38 velocity=65 time=0.09791666666666667
EXTRACT: note_off channel=9 note=35 velocity=127 time=0.005208333333333333
EXTRACT: note_off channel=9 note=36 velocity=127 time=0
EXTRACT: note_off channel=9 note=75 velocity=60 time=0.014583333333333334
EXTRACT: note_on channel=9 note=75 velocity=58 time=0.00625
EXTRACT: note_off channel=9 note=28 velocity=54 time=0.06458333333333333
EXTRACT: note_off channel=9 note=42 velocity=127 time=0.03958333333333333
EXTRACT: note_off channel=9 note=37 velocity=127 time=0
EXTRACT: note_off channel=9 note=75 velocity=58 time=0.014583333333333334
EXTRACT: note_on channel=9 note=75 velocity=61 time=0.00625
EXTRACT: note_on channel=9 note=38 velocity=65 time=0
EXTRACT: note_on channel=9 note=28 velocity=54 time=0
EXTRACT: note_on channel=9 note=35 velocity=127 time=0
EXTRACT: note_on channel=9 note=36 velocity=127 time=0
EXTRACT: note_off channel=9 note=62 velocity=127 time=0.0010416666666666667
EXTRACT: note_off channel=9 note=75 velocity=61 time=0.11770833333333333
EXTRACT: note_off channel=9 note=28 velocity=54 time=0.07083333333333333
EXTRACT: note_off channel=9 note=38 velocity=65 time=0.034375
EXTRACT: note_off channel=9 note=35 velocity=127 time=0.005208333333333333
EXTRACT: note_off channel=9 note=36 velocity=127 time=0
EXTRACT: note_on channel=9 note=75 velocity=61 time=0.020833333333333332
EXTRACT: note_on channel=9 note=28 velocity=56 time=0
EXTRACT: note_off channel=9 note=75 velocity=61 time=0.11875
EXTRACT: note_on channel=9 note=75 velocity=61 time=0.00625
EXTRACT: note_off channel=9 note=28 velocity=56 time=0.06458333333333333
EXTRACT: note_off channel=9 note=75 velocity=61 time=0.05416666666666667
EXTRACT: note_on channel=9 note=62 velocity=127 time=0.00625
EXTRACT: note_on channel=9 note=75 velocity=61 time=0
EXTRACT: note_on channel=9 note=28 velocity=52 time=0
EXTRACT: note_on channel=9 note=42 velocity=127 time=0
EXTRACT: note_on channel=9 note=37 velocity=127 time=0
EXTRACT: note_off channel=9 note=75 velocity=61 time=0.11875
EXTRACT: note_off channel=9 note=28 velocity=52 time=0.07083333333333333
EXTRACT: note_off channel=9 note=42 velocity=127 time=0.03958333333333333
EXTRACT: note_off channel=9 note=37 velocity=127 time=0
EXTRACT: note_on channel=9 note=75 velocity=61 time=0.020833333333333332
EXTRACT: note_on channel=9 note=38 velocity=67 time=0
EXTRACT: note_on channel=9 note=28 velocity=52 time=0
EXTRACT: note_on channel=9 note=35 velocity=127 time=0
EXTRACT: note_on channel=9 note=36 velocity=127 time=0
EXTRACT: note_off channel=9 note=62 velocity=127 time=0.0010416666666666667
EXTRACT: note_off channel=9 note=75 velocity=61 time=0.11770833333333333
EXTRACT: note_off channel=9 note=28 velocity=52 time=0.07083333333333333
EXTRACT: note_off channel=9 note=38 velocity=67 time=0.034375
EXTRACT: note_off channel=9 note=35 velocity=127 time=0.005208333333333333
EXTRACT: note_off channel=9 note=36 velocity=127 time=0
EXTRACT: note_on channel=9 note=28 velocity=52 time=0.020833333333333332
EXTRACT: note_off channel=9 note=28 velocity=52 time=0.18958333333333333
EXTRACT: note_on channel=9 note=75 velocity=56 time=0.06041666666666667
EXTRACT: note_on channel=9 note=38 velocity=67 time=0
EXTRACT: note_on channel=9 note=43 velocity=43 time=0
EXTRACT: note_on channel=9 note=28 velocity=52 time=0
EXTRACT: note_on channel=9 note=35 velocity=127 time=0
EXTRACT: note_on channel=9 note=36 velocity=127 time=0
EXTRACT: note_off channel=9 note=43 velocity=43 time=0.096875
EXTRACT: note_off channel=9 note=75 velocity=56 time=0.021875
EXTRACT: note_on channel=9 note=41 velocity=43 time=0.00625
EXTRACT: note_off channel=9 note=28 velocity=52 time=0.06458333333333333
EXTRACT: note_off channel=9 note=41 velocity=43 time=0.03229166666666666
EXTRACT: note_off channel=9 note=38 velocity=67 time=0.0020833333333333333
EXTRACT: note_off channel=9 note=35 velocity=127 time=0.005208333333333333
EXTRACT: note_off channel=9 note=36 velocity=127 time=0
EXTRACT: note_on channel=9 note=62 velocity=127 time=0.020833333333333332
EXTRACT: note_on channel=9 note=28 velocity=52 time=0
EXTRACT: note_on channel=9 note=42 velocity=127 time=0
EXTRACT: note_on channel=9 note=37 velocity=127 time=0
EXTRACT: note_off channel=9 note=28 velocity=52 time=0.18958333333333333
EXTRACT: note_off channel=9 note=42 velocity=127 time=0.03958333333333333
EXTRACT: note_off channel=9 note=37 velocity=127 time=0
EXTRACT: note_off channel=9 note=62 velocity=127 time=0.021875
EXTRACT: note_on channel=5 note=61 velocity=127 time=0.7489583333333333
EXTRACT: note_on channel=9 note=37 velocity=127 time=0
EXTRACT: note_on channel=9 note=42 velocity=127 time=0
EXTRACT: note_on channel=9 note=28 velocity=52 time=0
EXTRACT: note_on channel=9 note=75 velocity=61 time=0
EXTRACT: note_on channel=9 note=62 velocity=127 time=0
EXTRACT: note_on channel=8 note=61 velocity=127 time=0
EXTRACT: note_off channel=9 note=75 velocity=61 time=0.11875
EXTRACT: note_off channel=9 note=28 velocity=52 time=0.07083333333333333
EXTRACT: note_off channel=9 note=37 velocity=127 time=0.03958333333333333
EXTRACT: note_off channel=9 note=42 velocity=127 time=0
EXTRACT: note_off channel=5 note=61 velocity=127 time=0.01875
EXTRACT: note_off channel=8 note=61 velocity=127 time=0
EXTRACT: note_on channel=5 note=58 velocity=127 time=0.0020833333333333333
EXTRACT: note_on channel=9 note=36 velocity=127 time=0
EXTRACT: note_on channel=9 note=35 velocity=127 time=0
EXTRACT: note_on channel=9 note=28 velocity=52 time=0
EXTRACT: note_on channel=9 note=38 velocity=67 time=0
EXTRACT: note_on channel=9 note=75 velocity=61 time=0
EXTRACT: note_on channel=8 note=58 velocity=127 time=0
EXTRACT: note_off channel=9 note=62 velocity=127 time=0.0010416666666666667
EXTRACT: note_off channel=9 note=75 velocity=61 time=0.11770833333333333
EXTRACT: note_off channel=9 note=28 velocity=52 time=0.07083333333333333
EXTRACT: note_off channel=9 note=38 velocity=67 time=0.034375
EXTRACT: note_off channel=9 note=36 velocity=127 time=0.005208333333333333
EXTRACT: note_off channel=9 note=35 velocity=127 time=0
EXTRACT: note_off channel=5 note=58 velocity=127 time=0.01875
EXTRACT: note_off channel=8 note=58 velocity=127 time=0
EXTRACT: note_on channel=5 note=65 velocity=127 time=0.0020833333333333333
EXTRACT: note_on channel=9 note=28 velocity=52 time=0
EXTRACT: note_on channel=8 note=65 velocity=127 time=0
EXTRACT: note_off channel=9 note=28 velocity=52 time=0.18958333333333333
EXTRACT: note_off channel=5 note=65 velocity=127 time=0.058333333333333334
EXTRACT: note_off channel=8 note=65 velocity=127 time=0
EXTRACT: note_on channel=5 note=63 velocity=127 time=0.0020833333333333333
EXTRACT: note_on channel=9 note=36 velocity=127 time=0
EXTRACT: note_on channel=9 note=35 velocity=127 time=0
EXTRACT: note_on channel=9 note=28 velocity=52 time=0
EXTRACT: note_on channel=9 note=43 velocity=43 time=0
EXTRACT: note_on channel=9 note=38 velocity=67 time=0
EXTRACT: note_on channel=9 note=75 velocity=56 time=0
EXTRACT: note_on channel=8 note=63 velocity=127 time=0
EXTRACT: note_off channel=9 note=43 velocity=43 time=0.096875
EXTRACT: note_off channel=9 note=75 velocity=56 time=0.021875
EXTRACT: note_on channel=9 note=41 velocity=43 time=0.00625
EXTRACT: note_off channel=9 note=28 velocity=52 time=0.06458333333333333
EXTRACT: note_off channel=9 note=41 velocity=43 time=0.03229166666666666
EXTRACT: note_off channel=9 note=38 velocity=67 time=0.0020833333333333333
EXTRACT: note_off channel=9 note=36 velocity=127 time=0.005208333333333333
EXTRACT: note_off channel=9 note=35 velocity=127 time=0
EXTRACT: note_off channel=5 note=63 velocity=127 time=0.01875
EXTRACT: note_off channel=8 note=63 velocity=127 time=0
EXTRACT: note_on channel=5 note=63 velocity=127 time=0.0020833333333333333
EXTRACT: note_on channel=9 note=37 velocity=127 time=0
EXTRACT: note_on channel=9 note=42 velocity=127 time=0
EXTRACT: note_on channel=9 note=28 velocity=52 time=0
EXTRACT: note_on channel=9 note=62 velocity=127 time=0
EXTRACT: note_on channel=8 note=63 velocity=127 time=0
EXTRACT: note_on channel=9 note=36 velocity=127 time=0.125
EXTRACT: note_on channel=9 note=35 velocity=127 time=0
EXTRACT: note_on channel=9 note=38 velocity=65 time=0
EXTRACT: note_off channel=9 note=28 velocity=52 time=0.06458333333333333
EXTRACT: note_off channel=9 note=37 velocity=127 time=0.03958333333333333
EXTRACT: note_off channel=9 note=42 velocity=127 time=0
EXTRACT: note_off channel=5 note=63 velocity=127 time=0.01875
EXTRACT: note_off channel=8 note=63 velocity=127 time=0
EXTRACT: note_on channel=5 note=61 velocity=127 time=0.0020833333333333333
EXTRACT: note_on channel=9 note=37 velocity=127 time=0
EXTRACT: note_on channel=9 note=42 velocity=127 time=0
EXTRACT: note_on channel=9 note=28 velocity=54 time=0
EXTRACT: note_on channel=9 note=75 velocity=60 time=0
EXTRACT: note_on channel=9 note=62 velocity=127 time=0
EXTRACT: note_on channel=8 note=61 velocity=127 time=0
EXTRACT: note_off channel=9 note=62 velocity=127 time=0.0010416666666666667
EXTRACT: note_off channel=9 note=38 velocity=65 time=0.09791666666666667
EXTRACT: note_off channel=9 note=36 velocity=127 time=0.005208333333333333
EXTRACT: note_off channel=9 note=35 velocity=127 time=0
EXTRACT: note_off channel=9 note=75 velocity=60 time=0.014583333333333334
EXTRACT: note_on channel=9 note=75 velocity=58 time=0.00625
EXTRACT: note_off channel=9 note=28 velocity=54 time=0.06458333333333333
EXTRACT: note_off channel=9 note=37 velocity=127 time=0.03958333333333333
EXTRACT: note_off channel=9 note=42 velocity=127 time=0
EXTRACT: note_off channel=9 note=75 velocity=58 time=0.014583333333333334
EXTRACT: note_off channel=5 note=61 velocity=127 time=0.004166666666666667
EXTRACT: note_off channel=8 note=61 velocity=127 time=0
EXTRACT: note_on channel=5 note=61 velocity=127 time=0.0020833333333333333
EXTRACT: note_on channel=9 note=28 velocity=54 time=0
EXTRACT: note_on channel=9 note=35 velocity=127 time=0
EXTRACT: note_on channel=9 note=36 velocity=127 time=0
EXTRACT: note_on channel=9 note=38 velocity=65 time=0
EXTRACT: note_on channel=9 note=75 velocity=61 time=0
EXTRACT: note_on channel=8 note=61 velocity=127 time=0
EXTRACT: note_off channel=9 note=62 velocity=127 time=0.0010416666666666667
EXTRACT: note_off channel=9 note=75 velocity=61 time=0.11770833333333333
EXTRACT: note_off channel=9 note=28 velocity=54 time=0.07083333333333333
EXTRACT: note_off channel=9 note=38 velocity=65 time=0.034375
EXTRACT: note_off channel=9 note=35 velocity=127 time=0.005208333333333333
EXTRACT: note_off channel=9 note=36 velocity=127 time=0
EXTRACT: note_off channel=5 note=61 velocity=127 time=0.01875
EXTRACT: note_off channel=8 note=61 velocity=127 time=0
EXTRACT: note_on channel=5 note=58 velocity=127 time=0.0020833333333333333
EXTRACT: note_on channel=9 note=28 velocity=56 time=0
EXTRACT: note_on channel=9 note=75 velocity=61 time=0
EXTRACT: note_on channel=8 note=58 velocity=127 time=0
EXTRACT: note_off channel=9 note=75 velocity=61 time=0.11875
EXTRACT: note_on channel=9 note=75 velocity=61 time=0.00625
EXTRACT: note_off channel=9 note=28 velocity=56 time=0.06458333333333333
EXTRACT: note_off channel=9 note=75 velocity=61 time=0.05416666666666667
EXTRACT: note_off channel=5 note=58 velocity=127 time=0.004166666666666667
EXTRACT: note_off channel=8 note=58 velocity=127 time=0
EXTRACT: note_on channel=5 note=61 velocity=127 time=0.0020833333333333333
EXTRACT: note_on channel=9 note=28 velocity=52 time=0
EXTRACT: note_on channel=9 note=42 velocity=127 time=0
EXTRACT: note_on channel=9 note=37 velocity=127 time=0
EXTRACT: note_on channel=9 note=62 velocity=127 time=0
EXTRACT: note_on channel=9 note=75 velocity=61 time=0
EXTRACT: note_on channel=8 note=61 velocity=127 time=0
EXTRACT: note_off channel=9 note=75 velocity=61 time=0.11875
EXTRACT: note_off channel=9 note=28 velocity=52 time=0.07083333333333333
EXTRACT: note_off channel=9 note=42 velocity=127 time=0.03958333333333333
EXTRACT: note_off channel=9 note=37 velocity=127 time=0
EXTRACT: note_off channel=5 note=61 velocity=127 time=0.01875
EXTRACT: note_off channel=8 note=61 velocity=127 time=0
EXTRACT: note_on channel=5 note=58 velocity=127 time=0.0020833333333333333
EXTRACT: note_on channel=9 note=28 velocity=52 time=0
EXTRACT: note_on channel=9 note=35 velocity=127 time=0
EXTRACT: note_on channel=9 note=36 velocity=127 time=0
EXTRACT: note_on channel=9 note=38 velocity=67 time=0
EXTRACT: note_on channel=9 note=75 velocity=61 time=0
EXTRACT: note_on channel=8 note=58 velocity=127 time=0
EXTRACT: note_off channel=9 note=62 velocity=127 time=0.0010416666666666667
EXTRACT: note_off channel=9 note=75 velocity=61 time=0.11770833333333333
EXTRACT: note_off channel=9 note=28 velocity=52 time=0.07083333333333333
EXTRACT: note_off channel=9 note=38 velocity=67 time=0.034375
EXTRACT: note_off channel=9 note=35 velocity=127 time=0.005208333333333333
EXTRACT: note_off channel=9 note=36 velocity=127 time=0
EXTRACT: note_off channel=5 note=58 velocity=127 time=0.01875
EXTRACT: note_off channel=8 note=58 velocity=127 time=0
EXTRACT: note_on channel=5 note=65 velocity=127 time=0.0020833333333333333
EXTRACT: note_on channel=9 note=28 velocity=52 time=0
EXTRACT: note_on channel=8 note=65 velocity=127 time=0
EXTRACT: note_off channel=9 note=28 velocity=52 time=0.18958333333333333
EXTRACT: note_off channel=5 note=65 velocity=127 time=0.058333333333333334
EXTRACT: note_off channel=8 note=65 velocity=127 time=0
EXTRACT: note_on channel=5 note=63 velocity=127 time=0.0020833333333333333
EXTRACT: note_on channel=9 note=43 velocity=43 time=0
EXTRACT: note_on channel=9 note=28 velocity=52 time=0
EXTRACT: note_on channel=9 note=35 velocity=127 time=0
EXTRACT: note_on channel=9 note=36 velocity=127 time=0
EXTRACT: note_on channel=9 note=38 velocity=67 time=0
EXTRACT: note_on channel=9 note=75 velocity=56 time=0
EXTRACT: note_on channel=8 note=63 velocity=127 time=0
EXTRACT: note_off channel=9 note=43 velocity=43 time=0.096875
EXTRACT: note_off channel=9 note=75 velocity=56 time=0.021875
EXTRACT: note_on channel=9 note=41 velocity=43 time=0.00625
EXTRACT: note_off channel=9 note=28 velocity=52 time=0.06458333333333333
EXTRACT: note_off channel=9 note=41 velocity=43 time=0.03229166666666666
EXTRACT: note_off channel=9 note=38 velocity=67 time=0.0020833333333333333
EXTRACT: note_off channel=9 note=35 velocity=127 time=0.005208333333333333
EXTRACT: note_off channel=9 note=36 velocity=127 time=0
EXTRACT: note_off channel=5 note=63 velocity=127 time=0.01875
EXTRACT: note_off channel=8 note=63 velocity=127 time=0
EXTRACT: note_on channel=5 note=63 velocity=127 time=0.0020833333333333333
EXTRACT: note_on channel=9 note=28 velocity=52 time=0
EXTRACT: note_on channel=9 note=42 velocity=127 time=0
EXTRACT: note_on channel=9 note=37 velocity=127 time=0
EXTRACT: note_on channel=9 note=62 velocity=127 time=0
EXTRACT: note_on channel=8 note=63 velocity=127 time=0
EXTRACT: note_on channel=9 note=35 velocity=127 time=0.125
EXTRACT: note_on channel=9 note=36 velocity=127 time=0
EXTRACT: note_on channel=9 note=38 velocity=65 time=0
EXTRACT: note_off channel=9 note=28 velocity=52 time=0.06458333333333333
EXTRACT: note_off channel=9 note=42 velocity=127 time=0.03958333333333333
EXTRACT: note_off channel=9 note=37 velocity=127 time=0
EXTRACT: note_off channel=5 note=63 velocity=127 time=0.01875
EXTRACT: note_off channel=8 note=63 velocity=127 time=0
EXTRACT: note_on channel=5 note=61 velocity=127 time=0.0020833333333333333
EXTRACT: note_on channel=9 note=28 velocity=54 time=0
EXTRACT: note_on channel=9 note=42 velocity=127 time=0
EXTRACT: note_on channel=9 note=37 velocity=127 time=0
EXTRACT: note_on channel=9 note=62 velocity=127 time=0
EXTRACT: note_on channel=9 note=75 velocity=60 time=0
EXTRACT: note_on channel=8 note=61 velocity=127 time=0
EXTRACT: note_off channel=9 note=62 velocity=127 time=0.0010416666666666667
EXTRACT: note_off channel=9 note=38 velocity=65 time=0.09791666666666667
EXTRACT: note_off channel=9 note=35 velocity=127 time=0.005208333333333333
EXTRACT: note_off channel=9 note=36 velocity=127 time=0
EXTRACT: note_off channel=9 note=75 velocity=60 time=0.014583333333333334
EXTRACT: note_on channel=9 note=75 velocity=58 time=0.00625
EXTRACT: note_off channel=9 note=28 velocity=54 time=0.06458333333333333
EXTRACT: note_off channel=9 note=42 velocity=127 time=0.03958333333333333
EXTRACT: note_off channel=9 note=37 velocity=127 time=0
EXTRACT: note_off channel=9 note=75 velocity=58 time=0.014583333333333334
EXTRACT: note_off channel=5 note=61 velocity=127 time=0.004166666666666667
EXTRACT: note_off channel=8 note=61 velocity=127 time=0
EXTRACT: note_on channel=5 note=61 velocity=127 time=0.0020833333333333333
EXTRACT: note_on channel=9 note=28 velocity=54 time=0
EXTRACT: note_on channel=9 note=35 velocity=127 time=0
EXTRACT: note_on channel=9 note=36 velocity=127 time=0
EXTRACT: note_on channel=9 note=38 velocity=65 time=0
EXTRACT: note_on channel=9 note=75 velocity=61 time=0
EXTRACT: note_on channel=8 note=61 velocity=127 time=0
EXTRACT: note_off channel=9 note=62 velocity=127 time=0.0010416666666666667
EXTRACT: note_off channel=9 note=75 velocity=61 time=0.11770833333333333
EXTRACT: note_off channel=9 note=28 velocity=54 time=0.07083333333333333
EXTRACT: note_off channel=9 note=38 velocity=65 time=0.034375
EXTRACT: note_off channel=9 note=35 velocity=127 time=0.005208333333333333
EXTRACT: note_off channel=9 note=36 velocity=127 time=0
EXTRACT: note_off channel=5 note=61 velocity=127 time=0.01875
EXTRACT: note_off channel=8 note=61 velocity=127 time=0
EXTRACT: note_on channel=5 note=58 velocity=127 time=0.0020833333333333333
EXTRACT: note_on channel=9 note=28 velocity=56 time=0
EXTRACT: note_on channel=9 note=75 velocity=61 time=0
EXTRACT: note_on channel=8 note=58 velocity=127 time=0
EXTRACT: note_off channel=9 note=75 velocity=61 time=0.11875
EXTRACT: note_on channel=9 note=75 velocity=61 time=0.00625
EXTRACT: note_off channel=9 note=28 velocity=56 time=0.06458333333333333
EXTRACT: note_off channel=9 note=75 velocity=61 time=0.05416666666666667
EXTRACT: note_off channel=5 note=58 velocity=127 time=0.004166666666666667
EXTRACT: note_off channel=8 note=58 velocity=127 time=0
EXTRACT: note_on channel=5 note=61 velocity=127 time=0.0020833333333333333
EXTRACT: note_on channel=9 note=28 velocity=52 time=0
EXTRACT: note_on channel=9 note=42 velocity=127 time=0
EXTRACT: note_on channel=9 note=37 velocity=127 time=0
EXTRACT: note_on channel=9 note=62 velocity=127 time=0
EXTRACT: note_on channel=9 note=75 velocity=61 time=0
EXTRACT: note_on channel=8 note=61 velocity=127 time=0
EXTRACT: note_off channel=9 note=75 velocity=61 time=0.11875
EXTRACT: note_off channel=9 note=28 velocity=52 time=0.07083333333333333
EXTRACT: note_off channel=9 note=42 velocity=127 time=0.03958333333333333
EXTRACT: note_off channel=9 note=37 velocity=127 time=0
EXTRACT: note_off channel=5 note=61 velocity=127 time=0.01875
EXTRACT: note_off channel=8 note=61 velocity=127 time=0
EXTRACT: note_on channel=5 note=58 velocity=127 time=0.0020833333333333333
EXTRACT: note_on channel=9 note=28 velocity=52 time=0
EXTRACT: note_on channel=9 note=35 velocity=127 time=0
EXTRACT: note_on channel=9 note=36 velocity=127 time=0
EXTRACT: note_on channel=9 note=38 velocity=67 time=0
EXTRACT: note_on channel=9 note=75 velocity=61 time=0
EXTRACT: note_on channel=8 note=58 velocity=127 time=0
EXTRACT: note_off channel=9 note=62 velocity=127 time=0.0010416666666666667
EXTRACT: note_off channel=9 note=75 velocity=61 time=0.11770833333333333
EXTRACT: note_off channel=9 note=28 velocity=52 time=0.07083333333333333
EXTRACT: note_off channel=9 note=38 velocity=67 time=0.034375
EXTRACT: note_off channel=9 note=35 velocity=127 time=0.005208333333333333
EXTRACT: note_off channel=9 note=36 velocity=127 time=0
EXTRACT: note_off channel=5 note=58 velocity=127 time=0.01875
EXTRACT: note_off channel=8 note=58 velocity=127 time=0
EXTRACT: note_on channel=5 note=65 velocity=127 time=0.0020833333333333333
EXTRACT: note_on channel=9 note=28 velocity=52 time=0
EXTRACT: note_on channel=8 note=65 velocity=127 time=0
EXTRACT: note_off channel=9 note=28 velocity=52 time=0.18958333333333333
EXTRACT: note_off channel=5 note=65 velocity=127 time=0.058333333333333334
EXTRACT: note_off channel=8 note=65 velocity=127 time=0
EXTRACT: note_on channel=5 note=63 velocity=127 time=0.0020833333333333333
EXTRACT: note_on channel=9 note=43 velocity=43 time=0
EXTRACT: note_on channel=9 note=28 velocity=52 time=0
EXTRACT: note_on channel=9 note=35 velocity=127 time=0
EXTRACT: note_on channel=9 note=36 velocity=127 time=0
EXTRACT: note_on channel=9 note=38 velocity=67 time=0
EXTRACT: note_on channel=9 note=75 velocity=56 time=0
EXTRACT: note_on channel=8 note=63 velocity=127 time=0
EXTRACT: note_off channel=9 note=43 velocity=43 time=0.096875
EXTRACT: note_off channel=9 note=75 velocity=56 time=0.021875
EXTRACT: note_on channel=9 note=41 velocity=43 time=0.00625
EXTRACT: note_off channel=9 note=28 velocity=52 time=0.06458333333333333
EXTRACT: note_off channel=9 note=41 velocity=43 time=0.03229166666666666
EXTRACT: note_off channel=9 note=38 velocity=67 time=0.0020833333333333333
EXTRACT: note_off channel=9 note=35 velocity=127 time=0.005208333333333333
EXTRACT: note_off channel=9 note=36 velocity=127 time=0
EXTRACT: note_off channel=5 note=63 velocity=127 time=0.01875
EXTRACT: note_off channel=8 note=63 velocity=127 time=0
EXTRACT: note_on channel=5 note=63 velocity=127 time=0.0020833333333333333
EXTRACT: note_on channel=9 note=28 velocity=52 time=0
EXTRACT: note_on channel=9 note=42 velocity=127 time=0
EXTRACT: note_on channel=9 note=37 velocity=127 time=0
EXTRACT: note_on channel=9 note=62 velocity=127 time=0
EXTRACT: note_on channel=8 note=63 velocity=127 time=0
EXTRACT: note_on channel=9 note=35 velocity=127 time=0.125
EXTRACT: note_on channel=9 note=36 velocity=127 time=0
EXTRACT: note_on channel=9 note=38 velocity=65 time=0
EXTRACT: note_off channel=9 note=28 velocity=52 time=0.06458333333333333
EXTRACT: note_off channel=9 note=42 velocity=127 time=0.03958333333333333
EXTRACT: note_off channel=9 note=37 velocity=127 time=0
EXTRACT: note_off channel=5 note=63 velocity=127 time=0.01875
EXTRACT: note_off channel=8 note=63 velocity=127 time=0
EXTRACT: note_on channel=5 note=61 velocity=127 time=0.0020833333333333333
EXTRACT: note_on channel=9 note=28 velocity=54 time=0
EXTRACT: note_on channel=9 note=42 velocity=127 time=0
EXTRACT: note_on channel=9 note=37 velocity=127 time=0
EXTRACT: note_on channel=9 note=62 velocity=127 time=0
EXTRACT: note_on channel=9 note=75 velocity=60 time=0
EXTRACT: note_on channel=8 note=61 velocity=127 time=0
EXTRACT: note_off channel=9 note=62 velocity=127 time=0.0010416666666666667
EXTRACT: note_off channel=9 note=38 velocity=65 time=0.09791666666666667
EXTRACT: note_off channel=9 note=35 velocity=127 time=0.005208333333333333
EXTRACT: note_off channel=9 note=36 velocity=127 time=0
EXTRACT: note_off channel=9 note=75 velocity=60 time=0.014583333333333334
EXTRACT: note_on channel=9 note=75 velocity=58 time=0.00625
EXTRACT: note_off channel=9 note=28 velocity=54 time=0.06458333333333333
EXTRACT: note_off channel=9 note=42 velocity=127 time=0.03958333333333333
EXTRACT: note_off channel=9 note=37 velocity=127 time=0
EXTRACT: note_off channel=9 note=75 velocity=58 time=0.014583333333333334
EXTRACT: note_off channel=5 note=61 velocity=127 time=0.004166666666666667
EXTRACT: note_off channel=8 note=61 velocity=127 time=0
EXTRACT: note_on channel=5 note=61 velocity=127 time=0.0020833333333333333
EXTRACT: note_on channel=9 note=28 velocity=54 time=0
EXTRACT: note_on channel=9 note=35 velocity=127 time=0
EXTRACT: note_on channel=9 note=36 velocity=127 time=0
EXTRACT: note_on channel=9 note=38 velocity=65 time=0
EXTRACT: note_on channel=9 note=75 velocity=61 time=0
EXTRACT: note_on channel=8 note=61 velocity=127 time=0
EXTRACT: note_off channel=9 note=62 velocity=127 time=0.0010416666666666667
EXTRACT: note_off channel=9 note=75 velocity=61 time=0.11770833333333333
EXTRACT: note_off channel=9 note=28 velocity=54 time=0.07083333333333333
EXTRACT: note_off channel=9 note=38 velocity=65 time=0.034375
EXTRACT: note_off channel=9 note=35 velocity=127 time=0.005208333333333333
EXTRACT: note_off channel=9 note=36 velocity=127 time=0
EXTRACT: note_off channel=5 note=61 velocity=127 time=0.01875
EXTRACT: note_off channel=8 note=61 velocity=127 time=0
EXTRACT: note_on channel=5 note=58 velocity=127 time=0.0020833333333333333
EXTRACT: note_on channel=9 note=28 velocity=56 time=0
EXTRACT: note_on channel=9 note=75 velocity=61 time=0
EXTRACT: note_on channel=8 note=58 velocity=127 time=0
EXTRACT: note_off channel=9 note=75 velocity=61 time=0.11875
EXTRACT: note_on channel=9 note=75 velocity=61 time=0.00625
EXTRACT: note_off channel=9 note=28 velocity=56 time=0.06458333333333333
EXTRACT: note_off channel=9 note=75 velocity=61 time=0.05416666666666667
EXTRACT: note_off channel=5 note=58 velocity=127 time=0.004166666666666667
EXTRACT: note_off channel=8 note=58 velocity=127 time=0
EXTRACT: note_on channel=5 note=61 velocity=127 time=0.0020833333333333333
EXTRACT: note_on channel=9 note=28 velocity=52 time=0
EXTRACT: note_on channel=9 note=42 velocity=127 time=0
EXTRACT: note_on channel=9 note=37 velocity=127 time=0
EXTRACT: note_on channel=9 note=62 velocity=127 time=0
EXTRACT: note_on channel=9 note=75 velocity=61 time=0
EXTRACT: note_on channel=8 note=61 velocity=127 time=0
EXTRACT: note_off channel=9 note=75 velocity=61 time=0.11875
EXTRACT: note_off channel=9 note=28 velocity=52 time=0.07083333333333333
EXTRACT: note_off channel=9 note=42 velocity=127 time=0.03958333333333333
EXTRACT: note_off channel=9 note=37 velocity=127 time=0
EXTRACT: note_off channel=5 note=61 velocity=127 time=0.01875
EXTRACT: note_off channel=8 note=61 velocity=127 time=0
EXTRACT: note_on channel=5 note=58 velocity=127 time=0.0020833333333333333
EXTRACT: note_on channel=9 note=28 velocity=52 time=0
EXTRACT: note_on channel=9 note=35 velocity=127 time=0
EXTRACT: note_on channel=9 note=36 velocity=127 time=0
EXTRACT: note_on channel=9 note=38 velocity=67 time=0
EXTRACT: note_on channel=9 note=75 velocity=61 time=0
EXTRACT: note_on channel=8 note=58 velocity=127 time=0
EXTRACT: note_off channel=9 note=62 velocity=127 time=0.0010416666666666667
EXTRACT: note_off channel=9 note=75 velocity=61 time=0.11770833333333333
EXTRACT: note_off channel=9 note=28 velocity=52 time=0.07083333333333333
EXTRACT: note_off channel=9 note=38 velocity=67 time=0.034375
EXTRACT: note_off channel=9 note=35 velocity=127 time=0.005208333333333333
EXTRACT: note_off channel=9 note=36 velocity=127 time=0
EXTRACT: note_off channel=5 note=58 velocity=127 time=0.01875
EXTRACT: note_off channel=8 note=58 velocity=127 time=0
EXTRACT: note_on channel=5 note=65 velocity=127 time=0.0020833333333333333
EXTRACT: note_on channel=9 note=28 velocity=52 time=0
EXTRACT: note_on channel=8 note=65 velocity=127 time=0
EXTRACT: note_off channel=9 note=28 velocity=52 time=0.18958333333333333
EXTRACT: note_off channel=5 note=65 velocity=127 time=0.058333333333333334
EXTRACT: note_off channel=8 note=65 velocity=127 time=0
EXTRACT: note_on channel=5 note=63 velocity=127 time=0.0020833333333333333
EXTRACT: note_on channel=9 note=43 velocity=43 time=0
EXTRACT: note_on channel=9 note=28 velocity=52 time=0
EXTRACT: note_on channel=9 note=35 velocity=127 time=0
EXTRACT: note_on channel=9 note=36 velocity=127 time=0
EXTRACT: note_on channel=9 note=38 velocity=67 time=0
EXTRACT: note_on channel=9 note=75 velocity=56 time=0
EXTRACT: note_on channel=8 note=63 velocity=127 time=0
EXTRACT: note_off channel=9 note=43 velocity=43 time=0.096875
EXTRACT: note_off channel=9 note=75 velocity=56 time=0.021875
EXTRACT: note_on channel=9 note=41 velocity=43 time=0.00625
EXTRACT: note_off channel=9 note=28 velocity=52 time=0.06458333333333333
EXTRACT: note_off channel=9 note=41 velocity=43 time=0.03229166666666666
EXTRACT: note_off channel=9 note=38 velocity=67 time=0.0020833333333333333
EXTRACT: note_off channel=9 note=35 velocity=127 time=0.005208333333333333
EXTRACT: note_off channel=9 note=36 velocity=127 time=0
EXTRACT: note_off channel=5 note=63 velocity=127 time=0.01875
EXTRACT: note_off channel=8 note=63 velocity=127 time=0
EXTRACT: note_on channel=5 note=63 velocity=127 time=0.0020833333333333333
EXTRACT: note_on channel=9 note=28 velocity=52 time=0
EXTRACT: note_on channel=9 note=42 velocity=127 time=0
EXTRACT: note_on channel=9 note=37 velocity=127 time=0
EXTRACT: note_on channel=9 note=62 velocity=127 time=0
EXTRACT: note_on channel=8 note=63 velocity=127 time=0
EXTRACT: note_on channel=9 note=35 velocity=127 time=0.125
EXTRACT: note_on channel=9 note=36 velocity=127 time=0
EXTRACT: note_on channel=9 note=38 velocity=65 time=0
EXTRACT: note_off channel=9 note=28 velocity=52 time=0.06458333333333333
EXTRACT: note_off channel=9 note=42 velocity=127 time=0.03958333333333333
EXTRACT: note_off channel=9 note=37 velocity=127 time=0
EXTRACT: note_off channel=5 note=63 velocity=127 time=0.01875
EXTRACT: note_off channel=8 note=63 velocity=127 time=0
EXTRACT: note_on channel=5 note=61 velocity=127 time=0.0020833333333333333
EXTRACT: note_on channel=9 note=28 velocity=54 time=0
EXTRACT: note_on channel=9 note=42 velocity=127 time=0
EXTRACT: note_on channel=9 note=37 velocity=127 time=0
EXTRACT: note_on channel=9 note=62 velocity=127 time=0
EXTRACT: note_on channel=9 note=75 velocity=60 time=0
EXTRACT: note_on channel=8 note=61 velocity=127 time=0
EXTRACT: note_off channel=9 note=62 velocity=127 time=0.0010416666666666667
EXTRACT: note_off channel=9 note=38 velocity=65 time=0.09791666666666667
EXTRACT: note_off channel=9 note=35 velocity=127 time=0.005208333333333333
EXTRACT: note_off channel=9 note=36 velocity=127 time=0
EXTRACT: note_off channel=9 note=75 velocity=60 time=0.014583333333333334
EXTRACT: note_on channel=9 note=75 velocity=58 time=0.00625
EXTRACT: note_off channel=9 note=28 velocity=54 time=0.06458333333333333
EXTRACT: note_off channel=9 note=42 velocity=127 time=0.03958333333333333
EXTRACT: note_off channel=9 note=37 velocity=127 time=0
EXTRACT: note_off channel=9 note=75 velocity=58 time=0.014583333333333334
EXTRACT: note_off channel=5 note=61 velocity=127 time=0.004166666666666667
EXTRACT: note_off channel=8 note=61 velocity=127 time=0
EXTRACT: note_on channel=5 note=61 velocity=127 time=0.0020833333333333333
EXTRACT: note_on channel=7 note=22 velocity=127 time=0
EXTRACT: note_on channel=8 note=61 velocity=127 time=0
EXTRACT: note_off channel=9 note=62 velocity=127 time=0.0010416666666666667
EXTRACT: note_off channel=5 note=61 velocity=127 time=0.24687499999999998
EXTRACT: note_off channel=8 note=61 velocity=127 time=0
EXTRACT: note_on channel=5 note=58 velocity=127 time=0.0020833333333333333
EXTRACT: note_on channel=8 note=58 velocity=127 time=0
EXTRACT: note_off channel=5 note=58 velocity=127 time=0.24791666666666667
EXTRACT: note_off channel=8 note=58 velocity=127 time=0
EXTRACT: note_on channel=5 note=61 velocity=127 time=0.0020833333333333333
EXTRACT: note_on channel=9 note=75 velocity=61 time=0
EXTRACT: note_on channel=9 note=62 velocity=127 time=0
EXTRACT: note_on channel=9 note=37 velocity=127 time=0
EXTRACT: note_on channel=9 note=42 velocity=127 time=0
EXTRACT: note_on channel=9 note=28 velocity=52 time=0
EXTRACT: note_on channel=8 note=61 velocity=127 time=0
EXTRACT: note_off channel=7 note=22 velocity=127 time=0.015625
EXTRACT: note_off channel=9 note=75 velocity=61 time=0.103125
EXTRACT: note_off channel=9 note=28 velocity=52 time=0.07083333333333333
EXTRACT: note_off channel=9 note=37 velocity=127 time=0.03958333333333333
EXTRACT: note_off channel=9 note=42 velocity=127 time=0
EXTRACT: note_off channel=5 note=61 velocity=127 time=0.01875
EXTRACT: note_off channel=8 note=61 velocity=127 time=0
EXTRACT: note_on channel=5 note=58 velocity=127 time=0.0020833333333333333
EXTRACT: note_on channel=9 note=75 velocity=61 time=0
EXTRACT: note_on channel=9 note=38 velocity=67 time=0
EXTRACT: note_on channel=9 note=36 velocity=127 time=0
EXTRACT: note_on channel=9 note=35 velocity=127 time=0
EXTRACT: note_on channel=9 note=28 velocity=52 time=0
EXTRACT: note_on channel=8 note=58 velocity=127 time=0
EXTRACT: note_off channel=9 note=62 velocity=127 time=0.0010416666666666667
EXTRACT: note_off channel=9 note=75 velocity=61 time=0.11770833333333333
EXTRACT: note_off channel=9 note=28 velocity=52 time=0.07083333333333333
EXTRACT: note_off channel=9 note=38 velocity=67 time=0.034375
EXTRACT: note_off channel=9 note=36 velocity=127 time=0.005208333333333333
EXTRACT: note_off channel=9 note=35 velocity=127 time=0
EXTRACT: note_off channel=5 note=58 velocity=127 time=0.01875
EXTRACT: note_off channel=8 note=58 velocity=127 time=0
EXTRACT: note_on channel=5 note=65 velocity=127 time=0.0020833333333333333
EXTRACT: note_on channel=9 note=28 velocity=52 time=0
EXTRACT: note_on channel=8 note=65 velocity=127 time=0
EXTRACT: note_off channel=9 note=28 velocity=52 time=0.18958333333333333
EXTRACT: note_off channel=5 note=65 velocity=127 time=0.058333333333333334
EXTRACT: note_off channel=8 note=65 velocity=127 time=0
EXTRACT: note_on channel=5 note=63 velocity=127 time=0.0020833333333333333
EXTRACT: note_on channel=9 note=75 velocity=56 time=0
EXTRACT: note_on channel=9 note=38 velocity=67 time=0
EXTRACT: note_on channel=9 note=36 velocity=127 time=0
EXTRACT: note_on channel=9 note=35 velocity=127 time=0
EXTRACT: note_on channel=9 note=28 velocity=52 time=0
EXTRACT: note_on channel=9 note=43 velocity=43 time=0
EXTRACT: note_on channel=8 note=63 velocity=127 time=0
EXTRACT: note_off channel=9 note=43 velocity=43 time=0.096875
EXTRACT: note_off channel=9 note=75 velocity=56 time=0.021875
EXTRACT: note_on channel=9 note=41 velocity=43 time=0.00625
EXTRACT: note_off channel=9 note=28 velocity=52 time=0.06458333333333333
EXTRACT: note_off channel=9 note=41 velocity=43 time=0.03229166666666666
EXTRACT: note_off channel=9 note=38 velocity=67 time=0.0020833333333333333
EXTRACT: note_off channel=9 note=36 velocity=127 time=0.005208333333333333
EXTRACT: note_off channel=9 note=35 velocity=127 time=0
EXTRACT: note_off channel=5 note=63 velocity=127 time=0.01875
EXTRACT: note_off channel=8 note=63 velocity=127 time=0
EXTRACT: note_on channel=5 note=63 velocity=127 time=0.0020833333333333333
EXTRACT: note_on channel=9 note=62 velocity=127 time=0
EXTRACT: note_on channel=9 note=37 velocity=127 time=0
EXTRACT: note_on channel=9 note=42 velocity=127 time=0
EXTRACT: note_on channel=9 note=28 velocity=52 time=0
EXTRACT: note_on channel=8 note=63 velocity=127 time=0
EXTRACT: note_on channel=9 note=38 velocity=65 time=0.125
EXTRACT: note_on channel=9 note=36 velocity=127 time=0
EXTRACT: note_on channel=9 note=35 velocity=127 time=0
EXTRACT: note_off channel=9 note=28 velocity=52 time=0.06458333333333333
EXTRACT: note_off channel=9 note=37 velocity=127 time=0.03958333333333333
EXTRACT: note_off channel=9 note=42 velocity=127 time=0
EXTRACT: note_off channel=5 note=63 velocity=127 time=0.01875
EXTRACT: note_off channel=8 note=63 velocity=127 time=0
EXTRACT: note_on channel=5 note=61 velocity=127 time=0.0020833333333333333
EXTRACT: note_on channel=9 note=75 velocity=60 time=0
EXTRACT: note_on channel=9 note=62 velocity=127 time=0
EXTRACT: note_on channel=9 note=37 velocity=127 time=0
EXTRACT: note_on channel=9 note=42 velocity=127 time=0
EXTRACT: note_on channel=9 note=28 velocity=54 time=0
EXTRACT: note_on channel=8 note=61 velocity=127 time=0
EXTRACT: note_off channel=9 note=62 velocity=127 time=0.0010416666666666667
EXTRACT: note_off channel=9 note=38 velocity=65 time=0.09791666666666667
EXTRACT: note_off channel=9 note=36 velocity=127 time=0.005208333333333333
EXTRACT: note_off channel=9 note=35 velocity=127 time=0
EXTRACT: note_off channel=9 note=75 velocity=60 time=0.014583333333333334
EXTRACT: note_on channel=9 note=75 velocity=58 time=0.00625
EXTRACT: note_off channel=9 note=28 velocity=54 time=0.06458333333333333
EXTRACT: note_off channel=9 note=37 velocity=127 time=0.03958333333333333
EXTRACT: note_off channel=9 note=42 velocity=127 time=0
EXTRACT: note_off channel=9 note=75 velocity=58 time=0.014583333333333334
EXTRACT: note_off channel=5 note=61 velocity=127 time=0.004166666666666667
EXTRACT: note_off channel=8 note=61 velocity=127 time=0
EXTRACT: note_on channel=5 note=61 velocity=127 time=0.0020833333333333333
EXTRACT: note_on channel=9 note=75 velocity=61 time=0
EXTRACT: note_on channel=9 note=38 velocity=65 time=0
EXTRACT: note_on channel=9 note=28 velocity=54 time=0
EXTRACT: note_on channel=9 note=35 velocity=127 time=0
EXTRACT: note_on channel=9 note=36 velocity=127 time=0
EXTRACT: note_on channel=8 note=61 velocity=127 time=0
EXTRACT: note_off channel=9 note=62 velocity=127 time=0.0010416666666666667
EXTRACT: note_off channel=9 note=75 velocity=61 time=0.11770833333333333
EXTRACT: note_off channel=9 note=28 velocity=54 time=0.07083333333333333
EXTRACT: note_off channel=9 note=38 velocity=65 time=0.034375
EXTRACT: note_off channel=9 note=35 velocity=127 time=0.005208333333333333
EXTRACT: note_off channel=9 note=36 velocity=127 time=0
EXTRACT: note_off channel=5 note=61 velocity=127 time=0.01875
EXTRACT: note_off channel=8 note=61 velocity=127 time=0
EXTRACT: note_on channel=5 note=58 velocity=127 time=0.0020833333333333333
EXTRACT: note_on channel=9 note=75 velocity=61 time=0
EXTRACT: note_on channel=9 note=28 velocity=56 time=0
EXTRACT: note_on channel=8 note=58 velocity=127 time=0
EXTRACT: note_off channel=9 note=75 velocity=61 time=0.11875
EXTRACT: note_on channel=9 note=75 velocity=61 time=0.00625
EXTRACT: note_off channel=9 note=28 velocity=56 time=0.06458333333333333
EXTRACT: note_off channel=9 note=75 velocity=61 time=0.05416666666666667
EXTRACT: note_off channel=5 note=58 velocity=127 time=0.004166666666666667
EXTRACT: note_off channel=8 note=58 velocity=127 time=0
EXTRACT: note_on channel=5 note=61 velocity=127 time=0.0020833333333333333
EXTRACT: note_on channel=9 note=62 velocity=127 time=0
EXTRACT: note_on channel=9 note=75 velocity=61 time=0
EXTRACT: note_on channel=9 note=28 velocity=52 time=0
EXTRACT: note_on channel=9 note=42 velocity=127 time=0
EXTRACT: note_on channel=9 note=37 velocity=127 time=0
EXTRACT: note_on channel=8 note=61 velocity=127 time=0
EXTRACT: note_off channel=9 note=75 velocity=61 time=0.11875
EXTRACT: note_off channel=9 note=28 velocity=52 time=0.07083333333333333
EXTRACT: note_off channel=9 note=42 velocity=127 time=0.03958333333333333
EXTRACT: note_off channel=9 note=37 velocity=127 time=0
EXTRACT: note_off channel=5 note=61 velocity=127 time=0.01875
EXTRACT: note_off channel=8 note=61 velocity=127 time=0
EXTRACT: note_on channel=5 note=58 velocity=127 time=0.0020833333333333333
EXTRACT: note_on channel=9 note=75 velocity=61 time=0
EXTRACT: note_on channel=9 note=38 velocity=67 time=0
EXTRACT: note_on channel=9 note=28 velocity=52 time=0
EXTRACT: note_on channel=9 note=35 velocity=127 time=0
EXTRACT: note_on channel=9 note=36 velocity=127 time=0
EXTRACT: note_on channel=8 note=58 velocity=127 time=0
EXTRACT: note_off channel=9 note=62 velocity=127 time=0.0010416666666666667
EXTRACT: note_off channel=9 note=75 velocity=61 time=0.11770833333333333
EXTRACT: note_off channel=9 note=28 velocity=52 time=0.07083333333333333
EXTRACT: note_off channel=9 note=38 velocity=67 time=0.034375
EXTRACT: note_off channel=9 note=35 velocity=127 time=0.005208333333333333
EXTRACT: note_off channel=9 note=36 velocity=127 time=0
EXTRACT: note_off channel=5 note=58 velocity=127 time=0.01875
EXTRACT: note_off channel=8 note=58 velocity=127 time=0
EXTRACT: note_on channel=5 note=65 velocity=127 time=0.0020833333333333333
EXTRACT: note_on channel=9 note=28 velocity=52 time=0
EXTRACT: note_on channel=8 note=65 velocity=127 time=0
EXTRACT: note_off channel=9 note=28 velocity=52 time=0.18958333333333333
EXTRACT: note_off channel=5 note=65 velocity=127 time=0.058333333333333334
EXTRACT: note_off channel=8 note=65 velocity=127 time=0
EXTRACT: note_on channel=5 note=63 velocity=127 time=0.0020833333333333333
EXTRACT: note_on channel=9 note=75 velocity=56 time=0
EXTRACT: note_on channel=9 note=38 velocity=67 time=0
EXTRACT: note_on channel=9 note=43 velocity=43 time=0
EXTRACT: note_on channel=9 note=28 velocity=52 time=0
EXTRACT: note_on channel=9 note=35 velocity=127 time=0
EXTRACT: note_on channel=9 note=36 velocity=127 time=0
EXTRACT: note_on channel=8 note=63 velocity=127 time=0
EXTRACT: note_off channel=9 note=43 velocity=43 time=0.096875
EXTRACT: note_off channel=9 note=75 velocity=56 time=0.021875
EXTRACT: note_on channel=9 note=41 velocity=43 time=0.00625
EXTRACT: note_off channel=9 note=28 velocity=52 time=0.06458333333333333
EXTRACT: note_off channel=9 note=41 velocity=43 time=0.03229166666666666
EXTRACT: note_off channel=9 note=38 velocity=67 time=0.0020833333333333333
EXTRACT: note_off channel=9 note=35 velocity=127 time=0.005208333333333333
EXTRACT: note_off channel=9 note=36 velocity=127 time=0
EXTRACT: note_off channel=5 note=63 velocity=127 time=0.01875
EXTRACT: note_off channel=8 note=63 velocity=127 time=0
EXTRACT: note_on channel=5 note=63 velocity=127 time=0.0020833333333333333
EXTRACT: note_on channel=9 note=62 velocity=127 time=0
EXTRACT: note_on channel=9 note=28 velocity=52 time=0
EXTRACT: note_on channel=9 note=42 velocity=127 time=0
EXTRACT: note_on channel=9 note=37 velocity=127 time=0
EXTRACT: note_on channel=8 note=63 velocity=127 time=0
EXTRACT: note_on channel=9 note=38 velocity=65 time=0.125
EXTRACT: note_on channel=9 note=35 velocity=127 time=0
EXTRACT: note_on channel=9 note=36 velocity=127 time=0
EXTRACT: note_off channel=9 note=28 velocity=52 time=0.06458333333333333
EXTRACT: note_off channel=9 note=42 velocity=127 time=0.03958333333333333
EXTRACT: note_off channel=9 note=37 velocity=127 time=0
EXTRACT: note_off channel=5 note=63 velocity=127 time=0.01875
EXTRACT: note_off channel=8 note=63 velocity=127 time=0
EXTRACT: note_on channel=5 note=61 velocity=127 time=0.0020833333333333333
EXTRACT: note_on channel=9 note=62 velocity=127 time=0
EXTRACT: note_on channel=9 note=75 velocity=60 time=0
EXTRACT: note_on channel=9 note=28 velocity=54 time=0
EXTRACT: note_on channel=9 note=42 velocity=127 time=0
EXTRACT: note_on channel=9 note=37 velocity=127 time=0
EXTRACT: note_on channel=8 note=61 velocity=127 time=0
EXTRACT: note_off channel=9 note=62 velocity=127 time=0.0010416666666666667
EXTRACT: note_off channel=9 note=38 velocity=65 time=0.09791666666666667
EXTRACT: note_off channel=9 note=35 velocity=127 time=0.005208333333333333
EXTRACT: note_off channel=9 note=36 velocity=127 time=0
EXTRACT: note_off channel=9 note=75 velocity=60 time=0.014583333333333334
EXTRACT: note_on channel=9 note=75 velocity=58 time=0.00625
EXTRACT: note_off channel=9 note=28 velocity=54 time=0.06458333333333333
EXTRACT: note_off channel=9 note=42 velocity=127 time=0.03958333333333333
EXTRACT: note_off channel=9 note=37 velocity=127 time=0
EXTRACT: note_off channel=9 note=75 velocity=58 time=0.014583333333333334
EXTRACT: note_off channel=5 note=61 velocity=127 time=0.004166666666666667
EXTRACT: note_off channel=8 note=61 velocity=127 time=0
EXTRACT: note_on channel=5 note=61 velocity=127 time=0.0020833333333333333
EXTRACT: note_on channel=9 note=75 velocity=61 time=0
EXTRACT: note_on channel=9 note=38 velocity=65 time=0
EXTRACT: note_on channel=9 note=28 velocity=54 time=0
EXTRACT: note_on channel=9 note=35 velocity=127 time=0
EXTRACT: note_on channel=9 note=36 velocity=127 time=0
EXTRACT: note_on channel=8 note=61 velocity=127 time=0
EXTRACT: note_off channel=9 note=62 velocity=127 time=0.0010416666666666667
EXTRACT: note_off channel=9 note=75 velocity=61 time=0.11770833333333333
EXTRACT: note_off channel=9 note=28 velocity=54 time=0.07083333333333333
EXTRACT: note_off channel=9 note=38 velocity=65 time=0.034375
EXTRACT: note_off channel=9 note=35 velocity=127 time=0.005208333333333333
EXTRACT: note_off channel=9 note=36 velocity=127 time=0
EXTRACT: note_off channel=5 note=61 velocity=127 time=0.01875
EXTRACT: note_off channel=8 note=61 velocity=127 time=0
EXTRACT: note_on channel=5 note=58 velocity=127 time=0.0020833333333333333
EXTRACT: note_on channel=9 note=75 velocity=61 time=0
EXTRACT: note_on channel=9 note=28 velocity=56 time=0
EXTRACT: note_on channel=8 note=58 velocity=127 time=0
EXTRACT: note_off channel=9 note=75 velocity=61 time=0.11875
EXTRACT: note_on channel=9 note=75 velocity=61 time=0.00625
EXTRACT: note_off channel=9 note=28 velocity=56 time=0.06458333333333333
EXTRACT: note_off channel=9 note=75 velocity=61 time=0.05416666666666667
EXTRACT: note_off channel=5 note=58 velocity=127 time=0.004166666666666667
EXTRACT: note_off channel=8 note=58 velocity=127 time=0
EXTRACT: note_on channel=5 note=61 velocity=127 time=0.0020833333333333333
EXTRACT: note_on channel=9 note=62 velocity=127 time=0
EXTRACT: note_on channel=9 note=75 velocity=61 time=0
EXTRACT: note_on channel=9 note=28 velocity=52 time=0
EXTRACT: note_on channel=9 note=42 velocity=127 time=0
EXTRACT: note_on channel=9 note=37 velocity=127 time=0
EXTRACT: note_on channel=8 note=61 velocity=127 time=0
EXTRACT: note_off channel=9 note=75 velocity=61 time=0.11875
EXTRACT: note_off channel=9 note=28 velocity=52 time=0.07083333333333333
EXTRACT: note_off channel=9 note=42 velocity=127 time=0.03958333333333333
EXTRACT: note_off channel=9 note=37 velocity=127 time=0
EXTRACT: note_off channel=5 note=61 velocity=127 time=0.01875
EXTRACT: note_off channel=8 note=61 velocity=127 time=0
EXTRACT: note_on channel=5 note=58 velocity=127 time=0.0020833333333333333
EXTRACT: note_on channel=9 note=75 velocity=61 time=0
EXTRACT: note_on channel=9 note=38 velocity=67 time=0
EXTRACT: note_on channel=9 note=28 velocity=52 time=0
EXTRACT: note_on channel=9 note=35 velocity=127 time=0
EXTRACT: note_on channel=9 note=36 velocity=127 time=0
EXTRACT: note_on channel=8 note=58 velocity=127 time=0
EXTRACT: note_off channel=9 note=62 velocity=127 time=0.0010416666666666667
EXTRACT: note_off channel=9 note=75 velocity=61 time=0.11770833333333333
EXTRACT: note_off channel=9 note=28 velocity=52 time=0.07083333333333333
EXTRACT: note_off channel=9 note=38 velocity=67 time=0.034375
EXTRACT: note_off channel=9 note=35 velocity=127 time=0.005208333333333333
EXTRACT: note_off channel=9 note=36 velocity=127 time=0
EXTRACT: note_off channel=5 note=58 velocity=127 time=0.01875
EXTRACT: note_off channel=8 note=58 velocity=127 time=0
EXTRACT: note_on channel=5 note=65 velocity=127 time=0.0020833333333333333
EXTRACT: note_on channel=9 note=28 velocity=52 time=0
EXTRACT: note_on channel=8 note=65 velocity=127 time=0
EXTRACT: note_off channel=9 note=28 velocity=52 time=0.18958333333333333
EXTRACT: note_off channel=5 note=65 velocity=127 time=0.058333333333333334
EXTRACT: note_off channel=8 note=65 velocity=127 time=0
EXTRACT: note_on channel=5 note=63 velocity=127 time=0.0020833333333333333
EXTRACT: note_on channel=9 note=75 velocity=56 time=0
EXTRACT: note_on channel=9 note=38 velocity=67 time=0
EXTRACT: note_on channel=9 note=43 velocity=43 time=0
EXTRACT: note_on channel=9 note=28 velocity=52 time=0
EXTRACT: note_on channel=9 note=35 velocity=127 time=0
EXTRACT: note_on channel=9 note=36 velocity=127 time=0
EXTRACT: note_on channel=8 note=63 velocity=127 time=0
EXTRACT: note_off channel=9 note=43 velocity=43 time=0.096875
EXTRACT: note_off channel=9 note=75 velocity=56 time=0.021875
EXTRACT: note_on channel=9 note=41 velocity=43 time=0.00625
EXTRACT: note_off channel=9 note=28 velocity=52 time=0.06458333333333333
EXTRACT: note_off channel=9 note=41 velocity=43 time=0.03229166666666666
EXTRACT: note_off channel=9 note=38 velocity=67 time=0.0020833333333333333
EXTRACT: note_off channel=9 note=35 velocity=127 time=0.005208333333333333
EXTRACT: note_off channel=9 note=36 velocity=127 time=0
EXTRACT: note_off channel=5 note=63 velocity=127 time=0.01875
EXTRACT: note_off channel=8 note=63 velocity=127 time=0
EXTRACT: note_on channel=5 note=63 velocity=127 time=0.0020833333333333333
EXTRACT: note_on channel=9 note=62 velocity=127 time=0
EXTRACT: note_on channel=9 note=28 velocity=52 time=0
EXTRACT: note_on channel=9 note=42 velocity=127 time=0
EXTRACT: note_on channel=9 note=37 velocity=127 time=0
EXTRACT: note_on channel=8 note=63 velocity=127 time=0
EXTRACT: note_on channel=9 note=38 velocity=65 time=0.125
EXTRACT: note_on channel=9 note=35 velocity=127 time=0
EXTRACT: note_on channel=9 note=36 velocity=127 time=0
EXTRACT: note_off channel=9 note=28 velocity=52 time=0.06458333333333333
EXTRACT: note_off channel=9 note=42 velocity=127 time=0.03958333333333333
EXTRACT: note_off channel=9 note=37 velocity=127 time=0
EXTRACT: note_off channel=5 note=63 velocity=127 time=0.01875
EXTRACT: note_off channel=8 note=63 velocity=127 time=0
EXTRACT: note_on channel=5 note=61 velocity=127 time=0.0020833333333333333
EXTRACT: note_on channel=9 note=62 velocity=127 time=0
EXTRACT: note_on channel=9 note=75 velocity=60 time=0
EXTRACT: note_on channel=9 note=28 velocity=54 time=0
EXTRACT: note_on channel=9 note=42 velocity=127 time=0
EXTRACT: note_on channel=9 note=37 velocity=127 time=0
EXTRACT: note_on channel=8 note=61 velocity=127 time=0
EXTRACT: note_off channel=9 note=62 velocity=127 time=0.0010416666666666667
EXTRACT: note_off channel=9 note=38 velocity=65 time=0.09791666666666667
EXTRACT: note_off channel=9 note=35 velocity=127 time=0.005208333333333333
EXTRACT: note_off channel=9 note=36 velocity=127 time=0
EXTRACT: note_off channel=9 note=75 velocity=60 time=0.014583333333333334
EXTRACT: note_on channel=9 note=75 velocity=58 time=0.00625
EXTRACT: note_off channel=9 note=28 velocity=54 time=0.06458333333333333
EXTRACT: note_off channel=9 note=42 velocity=127 time=0.03958333333333333
EXTRACT: note_off channel=9 note=37 velocity=127 time=0
EXTRACT: note_off channel=9 note=75 velocity=58 time=0.014583333333333334
EXTRACT: note_off channel=5 note=61 velocity=127 time=0.004166666666666667
EXTRACT: note_off channel=8 note=61 velocity=127 time=0
EXTRACT: note_on channel=5 note=61 velocity=127 time=0.0020833333333333333
EXTRACT: note_on channel=9 note=75 velocity=61 time=0
EXTRACT: note_on channel=9 note=38 velocity=65 time=0
EXTRACT: note_on channel=9 note=28 velocity=54 time=0
EXTRACT: note_on channel=9 note=35 velocity=127 time=0
EXTRACT: note_on channel=9 note=36 velocity=127 time=0
EXTRACT: note_on channel=8 note=61 velocity=127 time=0
EXTRACT: note_off channel=9 note=62 velocity=127 time=0.0010416666666666667
EXTRACT: note_off channel=9 note=75 velocity=61 time=0.11770833333333333
EXTRACT: note_off channel=9 note=28 velocity=54 time=0.07083333333333333
EXTRACT: note_off channel=9 note=38 velocity=65 time=0.034375
EXTRACT: note_off channel=9 note=35 velocity=127 time=0.005208333333333333
EXTRACT: note_off channel=9 note=36 velocity=127 time=0
EXTRACT: note_off channel=5 note=61 velocity=127 time=0.01875
EXTRACT: note_off channel=8 note=61 velocity=127 time=0
EXTRACT: note_on channel=5 note=58 velocity=127 time=0.0020833333333333333
EXTRACT: note_on channel=9 note=75 velocity=61 time=0
EXTRACT: note_on channel=9 note=28 velocity=56 time=0
EXTRACT: note_on channel=8 note=58 velocity=127 time=0
EXTRACT: note_off channel=9 note=75 velocity=61 time=0.11875
EXTRACT: note_on channel=9 note=75 velocity=61 time=0.00625
EXTRACT: note_off channel=9 note=28 velocity=56 time=0.06458333333333333
EXTRACT: note_off channel=9 note=75 velocity=61 time=0.05416666666666667
EXTRACT: note_off channel=5 note=58 velocity=127 time=0.004166666666666667
EXTRACT: note_off channel=8 note=58 velocity=127 time=0
EXTRACT: note_on channel=5 note=61 velocity=127 time=0.0020833333333333333
EXTRACT: note_on channel=9 note=62 velocity=127 time=0
EXTRACT: note_on channel=9 note=75 velocity=61 time=0
EXTRACT: note_on channel=9 note=28 velocity=52 time=0
EXTRACT: note_on channel=9 note=42 velocity=127 time=0
EXTRACT: note_on channel=9 note=37 velocity=127 time=0
EXTRACT: note_on channel=8 note=61 velocity=127 time=0
EXTRACT: note_off channel=9 note=75 velocity=61 time=0.11875
EXTRACT: note_off channel=9 note=28 velocity=52 time=0.07083333333333333
EXTRACT: note_off channel=9 note=42 velocity=127 time=0.03958333333333333
EXTRACT: note_off channel=9 note=37 velocity=127 time=0
EXTRACT: note_off channel=5 note=61 velocity=127 time=0.01875
EXTRACT: note_off channel=8 note=61 velocity=127 time=0
EXTRACT: note_on channel=5 note=58 velocity=127 time=0.0020833333333333333
EXTRACT: note_on channel=9 note=75 velocity=61 time=0
EXTRACT: note_on channel=9 note=38 velocity=67 time=0
EXTRACT: note_on channel=9 note=28 velocity=52 time=0
EXTRACT: note_on channel=9 note=35 velocity=127 time=0
EXTRACT: note_on channel=9 note=36 velocity=127 time=0
EXTRACT: note_on channel=8 note=58 velocity=127 time=0
EXTRACT: note_off channel=9 note=62 velocity=127 time=0.0010416666666666667
EXTRACT: note_off channel=9 note=75 velocity=61 time=0.11770833333333333
EXTRACT: note_off channel=9 note=28 velocity=52 time=0.07083333333333333
EXTRACT: note_off channel=9 note=38 velocity=67 time=0.034375
EXTRACT: note_off channel=9 note=35 velocity=127 time=0.005208333333333333
EXTRACT: note_off channel=9 note=36 velocity=127 time=0
EXTRACT: note_off channel=5 note=58 velocity=127 time=0.01875
EXTRACT: note_off channel=8 note=58 velocity=127 time=0
EXTRACT: note_on channel=5 note=65 velocity=127 time=0.0020833333333333333
EXTRACT: note_on channel=9 note=28 velocity=52 time=0
EXTRACT: note_on channel=8 note=65 velocity=127 time=0
EXTRACT: note_off channel=9 note=28 velocity=52 time=0.18958333333333333
EXTRACT: note_off channel=5 note=65 velocity=127 time=0.058333333333333334
EXTRACT: note_off channel=8 note=65 velocity=127 time=0
EXTRACT: note_on channel=5 note=63 velocity=127 time=0.0020833333333333333
EXTRACT: note_on channel=9 note=75 velocity=56 time=0
EXTRACT: note_on channel=9 note=38 velocity=67 time=0
EXTRACT: note_on channel=9 note=43 velocity=43 time=0
EXTRACT: note_on channel=9 note=28 velocity=52 time=0
EXTRACT: note_on channel=9 note=35 velocity=127 time=0
EXTRACT: note_on channel=9 note=36 velocity=127 time=0
EXTRACT: note_on channel=8 note=63 velocity=127 time=0
EXTRACT: note_off channel=9 note=43 velocity=43 time=0.096875
EXTRACT: note_off channel=9 note=75 velocity=56 time=0.021875
EXTRACT: note_on channel=9 note=41 velocity=43 time=0.00625
EXTRACT: control_change channel=2 control=7 value=13 time=0.052083333333333336
EXTRACT: note_off channel=9 note=28 velocity=52 time=0.0125
EXTRACT: control_change channel=2 control=7 value=18 time=0.0010416666666666667
EXTRACT: control_change channel=2 control=7 value=25 time=0.013541666666666667
EXTRACT: control_change channel=2 control=7 value=29 time=0.0125
EXTRACT: note_off channel=9 note=41 velocity=43 time=0.005208333333333333
EXTRACT: note_off channel=9 note=38 velocity=67 time=0.0020833333333333333
EXTRACT: note_off channel=9 note=35 velocity=127 time=0.005208333333333333
EXTRACT: note_off channel=9 note=36 velocity=127 time=0
EXTRACT: control_change channel=2 control=7 value=31 time=0.0010416666666666667
EXTRACT: control_change channel=2 control=7 value=40 time=0.013541666666666667
EXTRACT: note_off channel=5 note=63 velocity=127 time=0.004166666666666667
EXTRACT: note_off channel=8 note=63 velocity=127 time=0
EXTRACT: note_on channel=2 note=77 velocity=127 time=0.0020833333333333333
EXTRACT: note_on channel=2 note=73 velocity=127 time=0
EXTRACT: note_on channel=2 note=70 velocity=127 time=0
EXTRACT: note_on channel=5 note=63 velocity=127 time=0
EXTRACT: note_on channel=9 note=62 velocity=127 time=0
EXTRACT: note_on channel=9 note=28 velocity=52 time=0
EXTRACT: note_on channel=9 note=42 velocity=127 time=0
EXTRACT: note_on channel=9 note=37 velocity=127 time=0
EXTRACT: note_on channel=8 note=63 velocity=127 time=0
EXTRACT: control_change channel=2 control=7 value=49 time=0.019791666666666666
EXTRACT: control_change channel=2 control=7 value=54 time=0.013541666666666667
EXTRACT: control_change channel=2 control=7 value=56 time=0.013541666666666667
EXTRACT: control_change channel=2 control=7 value=58 time=0.0125
EXTRACT: control_change channel=2 control=7 value=65 time=0.027083333333333334
EXTRACT: control_change channel=2 control=7 value=70 time=0.026041666666666668
EXTRACT: note_on channel=9 note=38 velocity=65 time=0.0125
EXTRACT: note_on channel=9 note=35 velocity=127 time=0
EXTRACT: note_on channel=9 note=36 velocity=127 time=0
EXTRACT: control_change channel=2 control=7 value=74 time=0.013541666666666667
EXTRACT: control_change channel=2 control=7 value=81 time=0.027083333333333334
EXTRACT: note_off channel=9 note=28 velocity=52 time=0.02395833333333333
EXTRACT: control_change channel=2 control=7 value=85 time=0.0020833333333333333
EXTRACT: control_change channel=2 control=7 value=92 time=0.013541666666666667
EXTRACT: control_change channel=2 control=7 value=94 time=0.0125
EXTRACT: note_off channel=9 note=42 velocity=127 time=0.011458333333333333
EXTRACT: note_off channel=9 note=37 velocity=127 time=0
EXTRACT: control_change channel=2 control=7 value=97 time=0.015625
EXTRACT: note_off channel=5 note=63 velocity=127 time=0.003125
EXTRACT: note_off channel=8 note=63 velocity=127 time=0
EXTRACT: note_on channel=5 note=61 velocity=127 time=0.0020833333333333333
EXTRACT: note_on channel=9 note=62 velocity=127 time=0
EXTRACT: note_on channel=9 note=75 velocity=60 time=0
EXTRACT: note_on channel=9 note=28 velocity=54 time=0
EXTRACT: note_on channel=9 note=42 velocity=127 time=0
EXTRACT: note_on channel=9 note=37 velocity=127 time=0
EXTRACT: note_on channel=8 note=61 velocity=127 time=0
EXTRACT: note_off channel=9 note=62 velocity=127 time=0.0010416666666666667
EXTRACT: control_change channel=2 control=7 value=99 time=0.019791666666666666
EXTRACT: control_change channel=2 control=7 value=101 time=0.03958333333333333
EXTRACT: note_off channel=9 note=38 velocity=65 time=0.03854166666666667
EXTRACT: note_off channel=9 note=35 velocity=127 time=0.005208333333333333
EXTRACT: note_off channel=9 note=36 velocity=127 time=0
EXTRACT: note_off channel=9 note=75 velocity=60 time=0.014583333333333334
EXTRACT: note_on channel=9 note=75 velocity=58 time=0.00625
EXTRACT: note_off channel=9 note=28 velocity=54 time=0.06458333333333333
EXTRACT: note_off channel=9 note=42 velocity=127 time=0.03958333333333333
EXTRACT: note_off channel=9 note=37 velocity=127 time=0
EXTRACT: note_off channel=9 note=75 velocity=58 time=0.014583333333333334
EXTRACT: note_off channel=5 note=61 velocity=127 time=0.004166666666666667
EXTRACT: note_off channel=8 note=61 velocity=127 time=0
EXTRACT: note_on channel=5 note=61 velocity=127 time=0.0020833333333333333
EXTRACT: note_on channel=7 note=22 velocity=127 time=0
EXTRACT: note_on channel=8 note=61 velocity=127 time=0
EXTRACT: note_off channel=9 note=62 velocity=127 time=0.0010416666666666667
EXTRACT: note_off channel=2 note=77 velocity=127 time=0.0375
EXTRACT: note_off channel=2 note=73 velocity=127 time=0
EXTRACT: note_off channel=2 note=70 velocity=127 time=0
EXTRACT: note_off channel=5 note=61 velocity=127 time=0.209375
EXTRACT: note_off channel=8 note=61 velocity=127 time=0
EXTRACT: note_on channel=5 note=58 velocity=127 time=0.0020833333333333333
EXTRACT: note_on channel=8 note=58 velocity=127 time=0
EXTRACT: note_off channel=5 note=58 velocity=127 time=0.24791666666666667
EXTRACT: note_off channel=8 note=58 velocity=127 time=0
EXTRACT: note_on channel=5 note=61 velocity=127 time=0.0020833333333333333
EXTRACT: note_on channel=8 note=61 velocity=127 time=0
EXTRACT: note_off channel=7 note=22 velocity=127 time=0.015625
EXTRACT: note_off channel=5 note=61 velocity=127 time=0.23229166666666667
EXTRACT: note_off channel=8 note=61 velocity=127 time=0
EXTRACT: note_on channel=2 note=70 velocity=127 time=0.0020833333333333333
EXTRACT: note_on channel=2 note=73 velocity=127 time=0
EXTRACT: note_on channel=2 note=77 velocity=127 time=0
EXTRACT: note_on channel=5 note=58 velocity=127 time=0
EXTRACT: note_on channel=8 note=58 velocity=127 time=0
EXTRACT: note_off channel=2 note=70 velocity=127 time=0.11875
EXTRACT: note_off channel=2 note=73 velocity=127 time=0
EXTRACT: note_off channel=2 note=77 velocity=127 time=0
EXTRACT: note_off channel=5 note=58 velocity=127 time=0.12916666666666665
EXTRACT: note_off channel=8 note=58 velocity=127 time=0
EXTRACT: note_on channel=5 note=65 velocity=127 time=0.0020833333333333333
EXTRACT: note_on channel=8 note=65 velocity=127 time=0
EXTRACT: note_off channel=5 note=65 velocity=127 time=0.24791666666666667
EXTRACT: note_off channel=8 note=65 velocity=127 time=0
EXTRACT: note_on channel=5 note=63 velocity=127 time=0.0020833333333333333
EXTRACT: note_on channel=8 note=63 velocity=127 time=0
EXTRACT: note_off channel=5 note=63 velocity=127 time=0.24791666666666667
EXTRACT: note_off channel=8 note=63 velocity=127 time=0
EXTRACT: note_on channel=5 note=63 velocity=127 time=0.0020833333333333333
EXTRACT: note_on channel=8 note=63 velocity=127 time=0
EXTRACT: note_off channel=5 note=63 velocity=127 time=0.24791666666666667
EXTRACT: note_off channel=8 note=63 velocity=127 time=0
EXTRACT: note_on channel=2 note=70 velocity=127 time=0.0020833333333333333
EXTRACT: note_on channel=2 note=73 velocity=127 time=0
EXTRACT: note_on channel=2 note=77 velocity=127 time=0
EXTRACT: note_on channel=5 note=61 velocity=127 time=0
EXTRACT: note_on channel=8 note=61 velocity=127 time=0
EXTRACT: note_off channel=2 note=70 velocity=127 time=0.11875
EXTRACT: note_off channel=2 note=73 velocity=127 time=0
EXTRACT: note_off channel=2 note=77 velocity=127 time=0
EXTRACT: note_off channel=5 note=61 velocity=127 time=0.12916666666666665
EXTRACT: note_off channel=8 note=61 velocity=127 time=0
EXTRACT: note_on channel=5 note=61 velocity=127 time=0.0020833333333333333
EXTRACT: note_on channel=9 note=75 velocity=61 time=0
EXTRACT: note_on channel=9 note=38 velocity=65 time=0
EXTRACT: note_on channel=9 note=28 velocity=54 time=0
EXTRACT: note_on channel=9 note=35 velocity=127 time=0
EXTRACT: note_on channel=9 note=36 velocity=127 time=0
EXTRACT: note_on channel=8 note=61 velocity=127 time=0
EXTRACT: note_off channel=9 note=75 velocity=61 time=0.11875
EXTRACT: note_off channel=9 note=28 velocity=54 time=0.07083333333333333
EXTRACT: note_off channel=9 note=38 velocity=65 time=0.034375
EXTRACT: note_off channel=9 note=35 velocity=127 time=0.005208333333333333
EXTRACT: note_off channel=9 note=36 velocity=127 time=0
EXTRACT: note_off channel=5 note=61 velocity=127 time=0.01875
EXTRACT: note_off channel=8 note=61 velocity=127 time=0
EXTRACT: note_on channel=5 note=58 velocity=127 time=0.0020833333333333333
EXTRACT: note_on channel=9 note=75 velocity=61 time=0
EXTRACT: note_on channel=9 note=28 velocity=56 time=0
EXTRACT: note_on channel=8 note=58 velocity=127 time=0
EXTRACT: note_off channel=9 note=75 velocity=61 time=0.11875
EXTRACT: note_on channel=9 note=75 velocity=61 time=0.00625
EXTRACT: note_off channel=9 note=28 velocity=56 time=0.06458333333333333
EXTRACT: note_off channel=9 note=75 velocity=61 time=0.05416666666666667
EXTRACT: note_off channel=5 note=58 velocity=127 time=0.004166666666666667
EXTRACT: note_off channel=8 note=58 velocity=127 time=0
EXTRACT: note_on channel=5 note=61 velocity=127 time=0.0020833333333333333
EXTRACT: note_on channel=9 note=62 velocity=127 time=0
EXTRACT: note_on channel=9 note=75 velocity=61 time=0
EXTRACT: note_on channel=9 note=28 velocity=52 time=0
EXTRACT: note_on channel=9 note=42 velocity=127 time=0
EXTRACT: note_on channel=9 note=37 velocity=127 time=0
EXTRACT: note_on channel=8 note=61 velocity=127 time=0
EXTRACT: note_off channel=9 note=75 velocity=61 time=0.11875
EXTRACT: note_off channel=9 note=28 velocity=52 time=0.07083333333333333
EXTRACT: note_off channel=9 note=42 velocity=127 time=0.03958333333333333
EXTRACT: note_off channel=9 note=37 velocity=127 time=0
EXTRACT: note_off channel=5 note=61 velocity=127 time=0.01875
EXTRACT: note_off channel=8 note=61 velocity=127 time=0
EXTRACT: note_on channel=5 note=58 velocity=127 time=0.0020833333333333333
EXTRACT: note_on channel=9 note=75 velocity=61 time=0
EXTRACT: note_on channel=9 note=38 velocity=67 time=0
EXTRACT: note_on channel=9 note=28 velocity=52 time=0
EXTRACT: note_on channel=9 note=35 velocity=127 time=0
EXTRACT: note_on channel=9 note=36 velocity=127 time=0
EXTRACT: note_on channel=8 note=58 velocity=127 time=0
EXTRACT: note_off channel=9 note=62 velocity=127 time=0.0010416666666666667
EXTRACT: note_off channel=9 note=75 velocity=61 time=0.11770833333333333
EXTRACT: note_off channel=9 note=28 velocity=52 time=0.07083333333333333
EXTRACT: note_off channel=9 note=38 velocity=67 time=0.034375
EXTRACT: note_off channel=9 note=35 velocity=127 time=0.005208333333333333
EXTRACT: note_off channel=9 note=36 velocity=127 time=0
EXTRACT: note_off channel=5 note=58 velocity=127 time=0.01875
EXTRACT: note_off channel=8 note=58 velocity=127 time=0
EXTRACT: note_on channel=5 note=65 velocity=127 time=0.0020833333333333333
EXTRACT: note_on channel=9 note=28 velocity=52 time=0
EXTRACT: note_on channel=8 note=65 velocity=127 time=0
EXTRACT: note_off channel=9 note=28 velocity=52 time=0.18958333333333333
EXTRACT: note_off channel=5 note=65 velocity=127 time=0.058333333333333334
EXTRACT: note_off channel=8 note=65 velocity=127 time=0
EXTRACT: note_on channel=5 note=63 velocity=127 time=0.0020833333333333333
EXTRACT: note_on channel=9 note=75 velocity=56 time=0
EXTRACT: note_on channel=9 note=38 velocity=67 time=0
EXTRACT: note_on channel=9 note=43 velocity=43 time=0
EXTRACT: note_on channel=9 note=28 velocity=52 time=0
EXTRACT: note_on channel=9 note=35 velocity=127 time=0
EXTRACT: note_on channel=9 note=36 velocity=127 time=0
EXTRACT: note_on channel=8 note=63 velocity=127 time=0
EXTRACT: note_off channel=9 note=43 velocity=43 time=0.096875
EXTRACT: note_off channel=9 note=75 velocity=56 time=0.021875
EXTRACT: note_on channel=9 note=41 velocity=43 time=0.00625
EXTRACT: note_off channel=9 note=28 velocity=52 time=0.06458333333333333
EXTRACT: note_off channel=9 note=41 velocity=43 time=0.03229166666666666
EXTRACT: note_off channel=9 note=38 velocity=67 time=0.0020833333333333333
EXTRACT: note_off channel=9 note=35 velocity=127 time=0.005208333333333333
EXTRACT: note_off channel=9 note=36 velocity=127 time=0
EXTRACT: note_off channel=5 note=63 velocity=127 time=0.01875
EXTRACT: note_off channel=8 note=63 velocity=127 time=0
EXTRACT: note_on channel=5 note=63 velocity=127 time=0.0020833333333333333
EXTRACT: note_on channel=9 note=62 velocity=127 time=0
EXTRACT: note_on channel=9 note=28 velocity=52 time=0
EXTRACT: note_on channel=9 note=42 velocity=127 time=0
EXTRACT: note_on channel=9 note=37 velocity=127 time=0
EXTRACT: note_on channel=8 note=63 velocity=127 time=0
EXTRACT: note_on channel=9 note=38 velocity=65 time=0.125
EXTRACT: note_on channel=9 note=35 velocity=127 time=0
EXTRACT: note_on channel=9 note=36 velocity=127 time=0
EXTRACT: note_off channel=9 note=28 velocity=52 time=0.06458333333333333
EXTRACT: note_off channel=9 note=42 velocity=127 time=0.03958333333333333
EXTRACT: note_off channel=9 note=37 velocity=127 time=0
EXTRACT: note_off channel=5 note=63 velocity=127 time=0.01875
EXTRACT: note_off channel=8 note=63 velocity=127 time=0
EXTRACT: note_on channel=2 note=70 velocity=127 time=0.0020833333333333333
EXTRACT: note_on channel=2 note=73 velocity=127 time=0
EXTRACT: note_on channel=2 note=77 velocity=127 time=0
EXTRACT: note_on channel=5 note=61 velocity=127 time=0
EXTRACT: note_on channel=9 note=62 velocity=127 time=0
EXTRACT: note_on channel=9 note=75 velocity=60 time=0
EXTRACT: note_on channel=9 note=28 velocity=54 time=0
EXTRACT: note_on channel=9 note=42 velocity=127 time=0
EXTRACT: note_on channel=9 note=37 velocity=127 time=0
EXTRACT: note_on channel=8 note=61 velocity=127 time=0
EXTRACT: note_off channel=9 note=62 velocity=127 time=0.0010416666666666667
EXTRACT: note_off channel=9 note=38 velocity=65 time=0.09791666666666667
EXTRACT: note_off channel=9 note=35 velocity=127 time=0.005208333333333333
EXTRACT: note_off channel=9 note=36 velocity=127 time=0
EXTRACT: note_off channel=2 note=70 velocity=127 time=0.014583333333333334
EXTRACT: note_off channel=2 note=73 velocity=127 time=0
EXTRACT: note_off channel=2 note=77 velocity=127 time=0
EXTRACT: note_off channel=9 note=75 velocity=60 time=0
EXTRACT: note_on channel=9 note=75 velocity=58 time=0.00625
EXTRACT: note_off channel=9 note=28 velocity=54 time=0.06458333333333333
EXTRACT: note_off channel=9 note=42 velocity=127 time=0.03958333333333333
EXTRACT: note_off channel=9 note=37 velocity=127 time=0
EXTRACT: note_off channel=9 note=75 velocity=58 time=0.014583333333333334
EXTRACT: note_off channel=5 note=61 velocity=127 time=0.004166666666666667
EXTRACT: note_off channel=8 note=61 velocity=127 time=0
EXTRACT: note_on channel=5 note=61 velocity=127 time=0.0020833333333333333
EXTRACT: note_on channel=9 note=75 velocity=61 time=0
EXTRACT: note_on channel=9 note=38 velocity=65 time=0
EXTRACT: note_on channel=9 note=28 velocity=54 time=0
EXTRACT: note_on channel=9 note=35 velocity=127 time=0
EXTRACT: note_on channel=9 note=36 velocity=127 time=0
EXTRACT: note_on channel=8 note=61 velocity=127 time=0
EXTRACT: note_off channel=9 note=62 velocity=127 time=0.0010416666666666667
EXTRACT: note_off channel=9 note=75 velocity=61 time=0.11770833333333333
EXTRACT: note_off channel=9 note=28 velocity=54 time=0.07083333333333333
EXTRACT: note_off channel=9 note=38 velocity=65 time=0.034375
EXTRACT: note_off channel=9 note=35 velocity=127 time=0.005208333333333333
EXTRACT: note_off channel=9 note=36 velocity=127 time=0
EXTRACT: note_off channel=5 note=61 velocity=127 time=0.01875
EXTRACT: note_off channel=8 note=61 velocity=127 time=0
EXTRACT: note_on channel=5 note=58 velocity=127 time=0.0020833333333333333
EXTRACT: note_on channel=9 note=75 velocity=61 time=0
EXTRACT: note_on channel=9 note=28 velocity=56 time=0
EXTRACT: note_on channel=8 note=58 velocity=127 time=0
EXTRACT: note_off channel=9 note=75 velocity=61 time=0.11875
EXTRACT: note_on channel=9 note=75 velocity=61 time=0.00625
EXTRACT: note_off channel=9 note=28 velocity=56 time=0.06458333333333333
EXTRACT: note_off channel=9 note=75 velocity=61 time=0.05416666666666667
EXTRACT: note_off channel=5 note=58 velocity=127 time=0.004166666666666667
EXTRACT: note_off channel=8 note=58 velocity=127 time=0
EXTRACT: note_on channel=5 note=61 velocity=127 time=0.0020833333333333333
EXTRACT: note_on channel=9 note=62 velocity=127 time=0
EXTRACT: note_on channel=9 note=75 velocity=61 time=0
EXTRACT: note_on channel=9 note=28 velocity=52 time=0
EXTRACT: note_on channel=9 note=42 velocity=127 time=0
EXTRACT: note_on channel=9 note=37 velocity=127 time=0
EXTRACT: note_on channel=8 note=61 velocity=127 time=0
EXTRACT: note_off channel=9 note=75 velocity=61 time=0.11875
EXTRACT: note_off channel=9 note=28 velocity=52 time=0.07083333333333333
EXTRACT: note_off channel=9 note=42 velocity=127 time=0.03958333333333333
EXTRACT: note_off channel=9 note=37 velocity=127 time=0
EXTRACT: note_off channel=5 note=61 velocity=127 time=0.01875
EXTRACT: note_off channel=8 note=61 velocity=127 time=0
EXTRACT: note_on channel=5 note=58 velocity=127 time=0.0020833333333333333
EXTRACT: note_on channel=9 note=75 velocity=61 time=0
EXTRACT: note_on channel=9 note=38 velocity=67 time=0
EXTRACT: note_on channel=9 note=28 velocity=52 time=0
EXTRACT: note_on channel=9 note=35 velocity=127 time=0
EXTRACT: note_on channel=9 note=36 velocity=127 time=0
EXTRACT: note_on channel=8 note=58 velocity=127 time=0
EXTRACT: note_off channel=9 note=62 velocity=127 time=0.0010416666666666667
EXTRACT: note_off channel=9 note=75 velocity=61 time=0.11770833333333333
EXTRACT: note_off channel=9 note=28 velocity=52 time=0.07083333333333333
EXTRACT: note_off channel=9 note=38 velocity=67 time=0.034375
EXTRACT: note_off channel=9 note=35 velocity=127 time=0.005208333333333333
EXTRACT: note_off channel=9 note=36 velocity=127 time=0
EXTRACT: note_off channel=5 note=58 velocity=127 time=0.01875
EXTRACT: note_off channel=8 note=58 velocity=127 time=0
EXTRACT: note_on channel=5 note=65 velocity=127 time=0.0020833333333333333
EXTRACT: note_on channel=9 note=28 velocity=52 time=0
EXTRACT: note_on channel=8 note=65 velocity=127 time=0
EXTRACT: note_off channel=9 note=28 velocity=52 time=0.18958333333333333
EXTRACT: note_off channel=5 note=65 velocity=127 time=0.058333333333333334
EXTRACT: note_off channel=8 note=65 velocity=127 time=0
EXTRACT: note_on channel=5 note=63 velocity=127 time=0.0020833333333333333
EXTRACT: note_on channel=9 note=75 velocity=56 time=0
EXTRACT: note_on channel=9 note=38 velocity=67 time=0
EXTRACT: note_on channel=9 note=43 velocity=43 time=0
EXTRACT: note_on channel=9 note=28 velocity=52 time=0
EXTRACT: note_on channel=9 note=35 velocity=127 time=0
EXTRACT: note_on channel=9 note=36 velocity=127 time=0
EXTRACT: note_on channel=8 note=63 velocity=127 time=0
EXTRACT: note_off channel=9 note=43 velocity=43 time=0.096875
EXTRACT: note_off channel=9 note=75 velocity=56 time=0.021875
EXTRACT: note_on channel=9 note=41 velocity=43 time=0.00625
EXTRACT: note_off channel=9 note=28 velocity=52 time=0.06458333333333333
EXTRACT: note_off channel=9 note=41 velocity=43 time=0.03229166666666666
EXTRACT: note_off channel=9 note=38 velocity=67 time=0.0020833333333333333
EXTRACT: note_off channel=9 note=35 velocity=127 time=0.005208333333333333
EXTRACT: note_off channel=9 note=36 velocity=127 time=0
EXTRACT: note_off channel=5 note=63 velocity=127 time=0.01875
EXTRACT: note_off channel=8 note=63 velocity=127 time=0
EXTRACT: note_on channel=5 note=63 velocity=127 time=0.0020833333333333333
EXTRACT: note_on channel=9 note=62 velocity=127 time=0
EXTRACT: note_on channel=9 note=28 velocity=52 time=0
EXTRACT: note_on channel=9 note=42 velocity=127 time=0
EXTRACT: note_on channel=9 note=37 velocity=127 time=0
EXTRACT: note_on channel=8 note=63 velocity=127 time=0
EXTRACT: note_on channel=9 note=38 velocity=65 time=0.125
EXTRACT: note_on channel=9 note=35 velocity=127 time=0
EXTRACT: note_on channel=9 note=36 velocity=127 time=0
EXTRACT: note_off channel=9 note=28 velocity=52 time=0.06458333333333333
EXTRACT: note_off channel=9 note=42 velocity=127 time=0.03958333333333333
EXTRACT: note_off channel=9 note=37 velocity=127 time=0
EXTRACT: note_off channel=5 note=63 velocity=127 time=0.01875
EXTRACT: note_off channel=8 note=63 velocity=127 time=0
EXTRACT: note_on channel=5 note=61 velocity=127 time=0.0020833333333333333
EXTRACT: note_on channel=9 note=62 velocity=127 time=0
EXTRACT: note_on channel=9 note=75 velocity=60 time=0
EXTRACT: note_on channel=9 note=28 velocity=54 time=0
EXTRACT: note_on channel=9 note=42 velocity=127 time=0
EXTRACT: note_on channel=9 note=37 velocity=127 time=0
EXTRACT: note_on channel=8 note=61 velocity=127 time=0
EXTRACT: note_off channel=9 note=62 velocity=127 time=0.0010416666666666667
EXTRACT: note_off channel=9 note=38 velocity=65 time=0.09791666666666667
EXTRACT: note_off channel=9 note=35 velocity=127 time=0.005208333333333333
EXTRACT: note_off channel=9 note=36 velocity=127 time=0
EXTRACT: note_off channel=9 note=75 velocity=60 time=0.014583333333333334
EXTRACT: note_on channel=9 note=75 velocity=58 time=0.00625
EXTRACT: note_off channel=9 note=28 velocity=54 time=0.06458333333333333
EXTRACT: note_off channel=9 note=42 velocity=127 time=0.03958333333333333
EXTRACT: note_off channel=9 note=37 velocity=127 time=0
EXTRACT: note_off channel=9 note=75 velocity=58 time=0.014583333333333334
EXTRACT: note_off channel=5 note=61 velocity=127 time=0.004166666666666667
EXTRACT: note_off channel=8 note=61 velocity=127 time=0
EXTRACT: note_on channel=5 note=61 velocity=127 time=0.0020833333333333333
EXTRACT: note_on channel=9 note=75 velocity=61 time=0
EXTRACT: note_on channel=9 note=38 velocity=65 time=0
EXTRACT: note_on channel=9 note=28 velocity=54 time=0
EXTRACT: note_on channel=9 note=35 velocity=127 time=0
EXTRACT: note_on channel=9 note=36 velocity=127 time=0
EXTRACT: note_on channel=8 note=61 velocity=127 time=0
EXTRACT: note_off channel=9 note=62 velocity=127 time=0.0010416666666666667
EXTRACT: note_off channel=9 note=75 velocity=61 time=0.11770833333333333
EXTRACT: note_off channel=9 note=28 velocity=54 time=0.07083333333333333
EXTRACT: note_off channel=9 note=38 velocity=65 time=0.034375
EXTRACT: note_off channel=9 note=35 velocity=127 time=0.005208333333333333
EXTRACT: note_off channel=9 note=36 velocity=127 time=0
EXTRACT: note_off channel=5 note=61 velocity=127 time=0.01875
EXTRACT: note_off channel=8 note=61 velocity=127 time=0
EXTRACT: note_on channel=5 note=58 velocity=127 time=0.0020833333333333333
EXTRACT: note_on channel=9 note=75 velocity=61 time=0
EXTRACT: note_on channel=9 note=28 velocity=56 time=0
EXTRACT: note_on channel=8 note=58 velocity=127 time=0
EXTRACT: note_off channel=9 note=75 velocity=61 time=0.11875
EXTRACT: note_on channel=9 note=75 velocity=61 time=0.00625
EXTRACT: note_off channel=9 note=28 velocity=56 time=0.06458333333333333
EXTRACT: note_off channel=9 note=75 velocity=61 time=0.05416666666666667
EXTRACT: note_off channel=5 note=58 velocity=127 time=0.004166666666666667
EXTRACT: note_off channel=8 note=58 velocity=127 time=0
EXTRACT: note_on channel=5 note=61 velocity=127 time=0.0020833333333333333
EXTRACT: note_on channel=9 note=62 velocity=127 time=0
EXTRACT: note_on channel=9 note=75 velocity=61 time=0
EXTRACT: note_on channel=9 note=28 velocity=52 time=0
EXTRACT: note_on channel=9 note=42 velocity=127 time=0
EXTRACT: note_on channel=9 note=37 velocity=127 time=0
EXTRACT: note_on channel=8 note=61 velocity=127 time=0
EXTRACT: note_off channel=9 note=75 velocity=61 time=0.11875
EXTRACT: note_off channel=9 note=28 velocity=52 time=0.07083333333333333
EXTRACT: note_off channel=9 note=42 velocity=127 time=0.03958333333333333
EXTRACT: note_off channel=9 note=37 velocity=127 time=0
EXTRACT: note_off channel=5 note=61 velocity=127 time=0.01875
EXTRACT: note_off channel=8 note=61 velocity=127 time=0
EXTRACT: note_on channel=5 note=58 velocity=127 time=0.0020833333333333333
EXTRACT: note_on channel=9 note=75 velocity=61 time=0
EXTRACT: note_on channel=9 note=38 velocity=67 time=0
EXTRACT: note_on channel=9 note=28 velocity=52 time=0
EXTRACT: note_on channel=9 note=35 velocity=127 time=0
EXTRACT: note_on channel=9 note=36 velocity=127 time=0
EXTRACT: note_on channel=8 note=58 velocity=127 time=0
EXTRACT: note_off channel=9 note=62 velocity=127 time=0.0010416666666666667
EXTRACT: note_off channel=9 note=75 velocity=61 time=0.11770833333333333
EXTRACT: note_off channel=9 note=28 velocity=52 time=0.07083333333333333
EXTRACT: note_off channel=9 note=38 velocity=67 time=0.034375
EXTRACT: note_off channel=9 note=35 velocity=127 time=0.005208333333333333
EXTRACT: note_off channel=9 note=36 velocity=127 time=0
EXTRACT: note_off channel=5 note=58 velocity=127 time=0.01875
EXTRACT: note_off channel=8 note=58 velocity=127 time=0
EXTRACT: note_on channel=5 note=65 velocity=127 time=0.0020833333333333333
EXTRACT: note_on channel=9 note=28 velocity=52 time=0
EXTRACT: note_on channel=8 note=65 velocity=127 time=0
EXTRACT: note_off channel=9 note=28 velocity=52 time=0.18958333333333333
EXTRACT: note_off channel=5 note=65 velocity=127 time=0.058333333333333334
EXTRACT: note_off channel=8 note=65 velocity=127 time=0
EXTRACT: note_on channel=5 note=63 velocity=127 time=0.0020833333333333333
EXTRACT: note_on channel=9 note=75 velocity=56 time=0
EXTRACT: note_on channel=9 note=38 velocity=67 time=0
EXTRACT: note_on channel=9 note=43 velocity=43 time=0
EXTRACT: note_on channel=9 note=28 velocity=52 time=0
EXTRACT: note_on channel=9 note=35 velocity=127 time=0
EXTRACT: note_on channel=9 note=36 velocity=127 time=0
EXTRACT: note_on channel=8 note=63 velocity=127 time=0
EXTRACT: note_off channel=9 note=43 velocity=43 time=0.096875
EXTRACT: note_off channel=9 note=75 velocity=56 time=0.021875
EXTRACT: note_on channel=9 note=41 velocity=43 time=0.00625
EXTRACT: note_off channel=9 note=28 velocity=52 time=0.06458333333333333
EXTRACT: note_off channel=9 note=41 velocity=43 time=0.03229166666666666
EXTRACT: note_off channel=9 note=38 velocity=67 time=0.0020833333333333333
EXTRACT: note_off channel=9 note=35 velocity=127 time=0.005208333333333333
EXTRACT: note_off channel=9 note=36 velocity=127 time=0
EXTRACT: note_off channel=5 note=63 velocity=127 time=0.01875
EXTRACT: note_off channel=8 note=63 velocity=127 time=0
EXTRACT: note_on channel=5 note=63 velocity=127 time=0.0020833333333333333
EXTRACT: note_on channel=9 note=62 velocity=127 time=0
EXTRACT: note_on channel=9 note=28 velocity=52 time=0
EXTRACT: note_on channel=9 note=42 velocity=127 time=0
EXTRACT: note_on channel=9 note=37 velocity=127 time=0
EXTRACT: note_on channel=8 note=63 velocity=127 time=0
EXTRACT: note_on channel=9 note=38 velocity=65 time=0.125
EXTRACT: note_on channel=9 note=35 velocity=127 time=0
EXTRACT: note_on channel=9 note=36 velocity=127 time=0
EXTRACT: note_off channel=9 note=28 velocity=52 time=0.06458333333333333
EXTRACT: note_off channel=9 note=42 velocity=127 time=0.03958333333333333
EXTRACT: note_off channel=9 note=37 velocity=127 time=0
EXTRACT: note_off channel=5 note=63 velocity=127 time=0.01875
EXTRACT: note_off channel=8 note=63 velocity=127 time=0
EXTRACT: note_on channel=5 note=61 velocity=127 time=0.0020833333333333333
EXTRACT: note_on channel=9 note=62 velocity=127 time=0
EXTRACT: note_on channel=9 note=75 velocity=60 time=0
EXTRACT: note_on channel=9 note=28 velocity=54 time=0
EXTRACT: note_on channel=9 note=42 velocity=127 time=0
EXTRACT: note_on channel=9 note=37 velocity=127 time=0
EXTRACT: note_on channel=8 note=61 velocity=127 time=0
EXTRACT: note_off channel=9 note=62 velocity=127 time=0.0010416666666666667
EXTRACT: note_off channel=9 note=38 velocity=65 time=0.09791666666666667
EXTRACT: note_off channel=9 note=35 velocity=127 time=0.005208333333333333
EXTRACT: note_off channel=9 note=36 velocity=127 time=0
EXTRACT: note_off channel=9 note=75 velocity=60 time=0.014583333333333334
EXTRACT: note_on channel=9 note=75 velocity=58 time=0.00625
EXTRACT: note_off channel=9 note=28 velocity=54 time=0.06458333333333333
EXTRACT: note_off channel=9 note=42 velocity=127 time=0.03958333333333333
EXTRACT: note_off channel=9 note=37 velocity=127 time=0
EXTRACT: note_off channel=9 note=75 velocity=58 time=0.014583333333333334
EXTRACT: note_off channel=5 note=61 velocity=127 time=0.004166666666666667
EXTRACT: note_off channel=8 note=61 velocity=127 time=0
EXTRACT: note_on channel=2 note=66 velocity=58 time=0.0020833333333333333
EXTRACT: note_on channel=2 note=70 velocity=58 time=0
EXTRACT: note_on channel=2 note=73 velocity=58 time=0
EXTRACT: note_on channel=2 note=65 velocity=127 time=0
EXTRACT: note_on channel=3 note=30 velocity=127 time=0
EXTRACT: note_on channel=4 note=30 velocity=127 time=0
EXTRACT: note_on channel=4 note=42 velocity=127 time=0
EXTRACT: note_on channel=6 note=66 velocity=127 time=0
EXTRACT: note_on channel=6 note=70 velocity=127 time=0
EXTRACT: note_on channel=6 note=73 velocity=127 time=0
EXTRACT: note_on channel=6 note=77 velocity=127 time=0
EXTRACT: note_on channel=10 note=77 velocity=127 time=0
EXTRACT: note_on channel=10 note=73 velocity=127 time=0
EXTRACT: note_on channel=10 note=70 velocity=127 time=0
EXTRACT: note_on channel=10 note=66 velocity=127 time=0
EXTRACT: note_off channel=9 note=62 velocity=127 time=0.0010416666666666667
EXTRACT: note_on channel=9 note=37 velocity=127 time=0.49895833333333334
EXTRACT: note_on channel=9 note=42 velocity=127 time=0
EXTRACT: note_on channel=9 note=28 velocity=52 time=0
EXTRACT: note_on channel=9 note=75 velocity=61 time=0
EXTRACT: note_on channel=9 note=62 velocity=127 time=0
EXTRACT: note_off channel=9 note=75 velocity=61 time=0.11875
EXTRACT: note_off channel=9 note=28 velocity=52 time=0.07083333333333333
EXTRACT: note_off channel=9 note=37 velocity=127 time=0.03958333333333333
EXTRACT: note_off channel=9 note=42 velocity=127 time=0
EXTRACT: note_on channel=1 note=58 velocity=127 time=0.020833333333333332
EXTRACT: note_on channel=1 note=46 velocity=127 time=0
EXTRACT: note_on channel=9 note=36 velocity=127 time=0
EXTRACT: note_on channel=9 note=35 velocity=127 time=0
EXTRACT: note_on channel=9 note=28 velocity=52 time=0
EXTRACT: note_on channel=9 note=38 velocity=67 time=0
EXTRACT: note_on channel=9 note=75 velocity=61 time=0
EXTRACT: note_off channel=9 note=62 velocity=127 time=0.0010416666666666667
EXTRACT: note_off channel=9 note=75 velocity=61 time=0.11770833333333333
EXTRACT: note_off channel=9 note=28 velocity=52 time=0.07083333333333333
EXTRACT: note_off channel=9 note=38 velocity=67 time=0.034375
EXTRACT: note_off channel=9 note=36 velocity=127 time=0.005208333333333333
EXTRACT: note_off channel=9 note=35 velocity=127 time=0
EXTRACT: note_off channel=1 note=58 velocity=127 time=0.01875
EXTRACT: note_off channel=1 note=46 velocity=127 time=0
EXTRACT: note_on channel=1 note=61 velocity=127 time=0.0020833333333333333
EXTRACT: note_on channel=1 note=49 velocity=127 time=0
EXTRACT: note_on channel=9 note=28 velocity=52 time=0
EXTRACT: note_off channel=9 note=28 velocity=52 time=0.18958333333333333
EXTRACT: note_off channel=1 note=61 velocity=127 time=0.058333333333333334
EXTRACT: note_off channel=1 note=49 velocity=127 time=0
EXTRACT: note_on channel=1 note=58 velocity=127 time=0.0020833333333333333
EXTRACT: note_on channel=1 note=46 velocity=127 time=0
EXTRACT: note_on channel=9 note=36 velocity=127 time=0
EXTRACT: note_on channel=9 note=35 velocity=127 time=0
EXTRACT: note_on channel=9 note=28 velocity=52 time=0
EXTRACT: note_on channel=9 note=43 velocity=43 time=0
EXTRACT: note_on channel=9 note=38 velocity=67 time=0
EXTRACT: note_on channel=9 note=75 velocity=56 time=0
EXTRACT: note_off channel=9 note=43 velocity=43 time=0.096875
EXTRACT: note_off channel=9 note=75 velocity=56 time=0.021875
EXTRACT: note_on channel=9 note=41 velocity=43 time=0.00625
EXTRACT: note_off channel=9 note=28 velocity=52 time=0.06458333333333333
EXTRACT: note_off channel=9 note=41 velocity=43 time=0.03229166666666666
EXTRACT: note_off channel=9 note=38 velocity=67 time=0.0020833333333333333
EXTRACT: note_off channel=9 note=36 velocity=127 time=0.005208333333333333
EXTRACT: note_off channel=9 note=35 velocity=127 time=0
EXTRACT: note_off channel=1 note=58 velocity=127 time=0.01875
EXTRACT: note_off channel=1 note=46 velocity=127 time=0
EXTRACT: note_off channel=3 note=30 velocity=127 time=0
EXTRACT: note_off channel=4 note=30 velocity=127 time=0
EXTRACT: note_off channel=4 note=42 velocity=127 time=0
EXTRACT: note_on channel=1 note=58 velocity=127 time=0.0020833333333333333
EXTRACT: note_on channel=1 note=46 velocity=127 time=0
EXTRACT: note_on channel=9 note=37 velocity=127 time=0
EXTRACT: note_on channel=9 note=42 velocity=127 time=0
EXTRACT: note_on channel=9 note=28 velocity=52 time=0
EXTRACT: note_on channel=9 note=62 velocity=127 time=0
EXTRACT: note_on channel=9 note=36 velocity=127 time=0.125
EXTRACT: note_on channel=9 note=35 velocity=127 time=0
EXTRACT: note_on channel=9 note=38 velocity=65 time=0
EXTRACT: note_off channel=9 note=28 velocity=52 time=0.06458333333333333
EXTRACT: note_off channel=9 note=37 velocity=127 time=0.03958333333333333
EXTRACT: note_off channel=9 note=42 velocity=127 time=0
EXTRACT: note_off channel=1 note=58 velocity=127 time=0.01875
EXTRACT: note_off channel=1 note=46 velocity=127 time=0
EXTRACT: note_on channel=1 note=58 velocity=127 time=0.0020833333333333333
EXTRACT: note_on channel=1 note=46 velocity=127 time=0
EXTRACT: note_on channel=3 note=30 velocity=97 time=0
EXTRACT: note_on channel=4 note=30 velocity=97 time=0
EXTRACT: note_on channel=4 note=42 velocity=97 time=0
EXTRACT: note_on channel=9 note=37 velocity=127 time=0
EXTRACT: note_on channel=9 note=42 velocity=127 time=0
EXTRACT: note_on channel=9 note=28 velocity=54 time=0
EXTRACT: note_on channel=9 note=75 velocity=60 time=0
EXTRACT: note_on channel=9 note=62 velocity=127 time=0
EXTRACT: note_off channel=9 note=62 velocity=127 time=0.0010416666666666667
EXTRACT: note_off channel=9 note=38 velocity=65 time=0.09791666666666667
EXTRACT: note_off channel=9 note=36 velocity=127 time=0.005208333333333333
EXTRACT: note_off channel=9 note=35 velocity=127 time=0
EXTRACT: note_off channel=9 note=75 velocity=60 time=0.014583333333333334
EXTRACT: note_off channel=3 note=30 velocity=97 time=0.004166666666666667
EXTRACT: note_off channel=4 note=30 velocity=97 time=0
EXTRACT: note_off channel=4 note=42 velocity=97 time=0
EXTRACT: note_on channel=3 note=32 velocity=97 time=0.0020833333333333333
EXTRACT: note_on channel=4 note=32 velocity=97 time=0
EXTRACT: note_on channel=4 note=44 velocity=97 time=0
EXTRACT: note_on channel=9 note=75 velocity=58 time=0
EXTRACT: note_off channel=9 note=28 velocity=54 time=0.06458333333333333
EXTRACT: note_off channel=9 note=37 velocity=127 time=0.03958333333333333
EXTRACT: note_off channel=9 note=42 velocity=127 time=0
EXTRACT: note_off channel=9 note=75 velocity=58 time=0.014583333333333334
EXTRACT: note_off channel=1 note=58 velocity=127 time=0.004166666666666667
EXTRACT: note_off channel=1 note=46 velocity=127 time=0
EXTRACT: note_off channel=2 note=66 velocity=58 time=0
EXTRACT: note_off channel=2 note=70 velocity=58 time=0
EXTRACT: note_off channel=2 note=73 velocity=58 time=0
EXTRACT: note_off channel=2 note=65 velocity=127 time=0
EXTRACT: note_off channel=3 note=32 velocity=97 time=0
EXTRACT: note_off channel=4 note=32 velocity=97 time=0
EXTRACT: note_off channel=4 note=44 velocity=97 time=0
EXTRACT: note_off channel=6 note=66 velocity=127 time=0
EXTRACT: note_off channel=6 note=70 velocity=127 time=0
EXTRACT: note_off channel=6 note=73 velocity=127 time=0
EXTRACT: note_off channel=6 note=77 velocity=127 time=0
EXTRACT: note_off channel=10 note=77 velocity=127 time=0
EXTRACT: note_off channel=10 note=73 velocity=127 time=0
EXTRACT: note_off channel=10 note=70 velocity=127 time=0
EXTRACT: note_off channel=10 note=66 velocity=127 time=0
EXTRACT: note_on channel=1 note=44 velocity=127 time=0.0020833333333333333
EXTRACT: note_on channel=1 note=56 velocity=127 time=0
EXTRACT: note_on channel=2 note=66 velocity=58 time=0
EXTRACT: note_on channel=2 note=70 velocity=58 time=0
EXTRACT: note_on channel=2 note=63 velocity=127 time=0
EXTRACT: note_on channel=3 note=27 velocity=127 time=0
EXTRACT: note_on channel=4 note=27 velocity=127 time=0
EXTRACT: note_on channel=4 note=39 velocity=127 time=0
EXTRACT: note_on channel=6 note=63 velocity=97 time=0
EXTRACT: note_on channel=6 note=66 velocity=97 time=0
EXTRACT: note_on channel=6 note=70 velocity=97 time=0
EXTRACT: note_on channel=9 note=28 velocity=54 time=0
EXTRACT: note_on channel=9 note=35 velocity=127 time=0
EXTRACT: note_on channel=9 note=36 velocity=127 time=0
EXTRACT: note_on channel=9 note=38 velocity=65 time=0
EXTRACT: note_on channel=9 note=75 velocity=61 time=0
EXTRACT: note_on channel=10 note=70 velocity=97 time=0
EXTRACT: note_on channel=10 note=66 velocity=97 time=0
EXTRACT: note_on channel=10 note=63 velocity=97 time=0
EXTRACT: note_off channel=9 note=62 velocity=127 time=0.0010416666666666667
EXTRACT: note_off channel=9 note=75 velocity=61 time=0.11770833333333333
EXTRACT: note_off channel=9 note=28 velocity=54 time=0.07083333333333333
EXTRACT: note_off channel=9 note=38 velocity=65 time=0.034375
EXTRACT: note_off channel=9 note=35 velocity=127 time=0.005208333333333333
EXTRACT: note_off channel=9 note=36 velocity=127 time=0
EXTRACT: note_on channel=1 note=58 velocity=87 time=0.020833333333333332
EXTRACT: note_on channel=1 note=46 velocity=87 time=0
EXTRACT: note_on channel=9 note=28 velocity=56 time=0
EXTRACT: note_on channel=9 note=75 velocity=61 time=0
EXTRACT: note_off channel=9 note=75 velocity=61 time=0.11875
EXTRACT: note_on channel=9 note=75 velocity=61 time=0.00625
EXTRACT: note_off channel=9 note=28 velocity=56 time=0.06458333333333333
EXTRACT: note_off channel=1 note=56 velocity=127 time=0.04791666666666666
EXTRACT: note_off channel=9 note=75 velocity=61 time=0.00625
EXTRACT: note_off channel=1 note=58 velocity=87 time=0.004166666666666667
EXTRACT: note_off channel=1 note=46 velocity=87 time=0
EXTRACT: note_on channel=1 note=56 velocity=89 time=0.0020833333333333333
EXTRACT: note_on channel=1 note=44 velocity=89 time=0
EXTRACT: note_on channel=9 note=28 velocity=52 time=0
EXTRACT: note_on channel=9 note=42 velocity=127 time=0
EXTRACT: note_on channel=9 note=37 velocity=127 time=0
EXTRACT: note_on channel=9 note=62 velocity=127 time=0
EXTRACT: note_on channel=9 note=75 velocity=61 time=0
EXTRACT: note_off channel=1 note=44 velocity=127 time=0.019791666666666666
EXTRACT: note_off channel=9 note=75 velocity=61 time=0.09895833333333333
EXTRACT: note_off channel=9 note=28 velocity=52 time=0.07083333333333333
EXTRACT: note_off channel=9 note=42 velocity=127 time=0.03958333333333333
EXTRACT: note_off channel=9 note=37 velocity=127 time=0
EXTRACT: note_on channel=1 note=58 velocity=127 time=0.020833333333333332
EXTRACT: note_on channel=1 note=46 velocity=127 time=0
EXTRACT: note_on channel=9 note=28 velocity=52 time=0
EXTRACT: note_on channel=9 note=35 velocity=127 time=0
EXTRACT: note_on channel=9 note=36 velocity=127 time=0
EXTRACT: note_on channel=9 note=38 velocity=67 time=0
EXTRACT: note_on channel=9 note=75 velocity=61 time=0
EXTRACT: note_off channel=9 note=62 velocity=127 time=0.0010416666666666667
EXTRACT: note_off channel=9 note=75 velocity=61 time=0.11770833333333333
EXTRACT: note_off channel=9 note=28 velocity=52 time=0.07083333333333333
EXTRACT: note_off channel=9 note=38 velocity=67 time=0.034375
EXTRACT: note_off channel=9 note=35 velocity=127 time=0.005208333333333333
EXTRACT: note_off channel=9 note=36 velocity=127 time=0
EXTRACT: note_off channel=1 note=58 velocity=127 time=0.01875
EXTRACT: note_off channel=1 note=46 velocity=127 time=0
EXTRACT: note_on channel=1 note=61 velocity=127 time=0.0020833333333333333
EXTRACT: note_on channel=1 note=49 velocity=127 time=0
EXTRACT: note_on channel=9 note=28 velocity=52 time=0
EXTRACT: note_off channel=1 note=56 velocity=89 time=0.019791666666666666
EXTRACT: note_off channel=1 note=44 velocity=89 time=0
EXTRACT: note_off channel=9 note=28 velocity=52 time=0.16979166666666667
EXTRACT: note_off channel=1 note=61 velocity=127 time=0.058333333333333334
EXTRACT: note_off channel=1 note=49 velocity=127 time=0
EXTRACT: note_on channel=1 note=58 velocity=127 time=0.0020833333333333333
EXTRACT: note_on channel=1 note=46 velocity=127 time=0
EXTRACT: note_on channel=9 note=43 velocity=43 time=0
EXTRACT: note_on channel=9 note=28 velocity=52 time=0
EXTRACT: note_on channel=9 note=35 velocity=127 time=0
EXTRACT: note_on channel=9 note=36 velocity=127 time=0
EXTRACT: note_on channel=9 note=38 velocity=67 time=0
EXTRACT: note_on channel=9 note=75 velocity=56 time=0
EXTRACT: note_off channel=9 note=43 velocity=43 time=0.096875
EXTRACT: note_off channel=9 note=75 velocity=56 time=0.021875
EXTRACT: note_on channel=9 note=41 velocity=43 time=0.00625
EXTRACT: note_off channel=9 note=28 velocity=52 time=0.06458333333333333
EXTRACT: note_off channel=9 note=41 velocity=43 time=0.03229166666666666
EXTRACT: note_off channel=9 note=38 velocity=67 time=0.0020833333333333333
EXTRACT: note_off channel=9 note=35 velocity=127 time=0.005208333333333333
EXTRACT: note_off channel=9 note=36 velocity=127 time=0
EXTRACT: note_off channel=1 note=58 velocity=127 time=0.01875
EXTRACT: note_off channel=1 note=46 velocity=127 time=0
EXTRACT: note_on channel=1 note=58 velocity=127 time=0.0020833333333333333
EXTRACT: note_on channel=1 note=46 velocity=127 time=0
EXTRACT: note_on channel=9 note=28 velocity=52 time=0
EXTRACT: note_on channel=9 note=42 velocity=127 time=0
EXTRACT: note_on channel=9 note=37 velocity=127 time=0
EXTRACT: note_on channel=9 note=62 velocity=127 time=0
EXTRACT: note_on channel=9 note=35 velocity=127 time=0.125
EXTRACT: note_on channel=9 note=36 velocity=127 time=0
EXTRACT: note_on channel=9 note=38 velocity=65 time=0
EXTRACT: note_off channel=9 note=28 velocity=52 time=0.06458333333333333
EXTRACT: note_off channel=9 note=42 velocity=127 time=0.03958333333333333
EXTRACT: note_off channel=9 note=37 velocity=127 time=0
EXTRACT: note_off channel=1 note=58 velocity=127 time=0.01875
EXTRACT: note_off channel=1 note=46 velocity=127 time=0
EXTRACT: note_on channel=1 note=58 velocity=127 time=0.0020833333333333333
EXTRACT: note_on channel=1 note=46 velocity=127 time=0
EXTRACT: note_on channel=9 note=28 velocity=54 time=0
EXTRACT: note_on channel=9 note=42 velocity=127 time=0
EXTRACT: note_on channel=9 note=37 velocity=127 time=0
EXTRACT: note_on channel=9 note=62 velocity=127 time=0
EXTRACT: note_on channel=9 note=75 velocity=60 time=0
EXTRACT: note_off channel=9 note=62 velocity=127 time=0.0010416666666666667
EXTRACT: note_off channel=9 note=38 velocity=65 time=0.09791666666666667
EXTRACT: note_off channel=9 note=35 velocity=127 time=0.005208333333333333
EXTRACT: note_off channel=9 note=36 velocity=127 time=0
EXTRACT: note_off channel=9 note=75 velocity=60 time=0.014583333333333334
EXTRACT: note_on channel=9 note=75 velocity=58 time=0.00625
EXTRACT: note_off channel=9 note=28 velocity=54 time=0.06458333333333333
EXTRACT: note_off channel=9 note=42 velocity=127 time=0.03958333333333333
EXTRACT: note_off channel=9 note=37 velocity=127 time=0
EXTRACT: note_off channel=9 note=75 velocity=58 time=0.014583333333333334
EXTRACT: note_off channel=1 note=58 velocity=127 time=0.004166666666666667
EXTRACT: note_off channel=1 note=46 velocity=127 time=0
EXTRACT: note_off channel=2 note=66 velocity=58 time=0
EXTRACT: note_off channel=2 note=70 velocity=58 time=0
EXTRACT: note_off channel=2 note=63 velocity=127 time=0
EXTRACT: note_off channel=6 note=63 velocity=97 time=0
EXTRACT: note_off channel=6 note=66 velocity=97 time=0
EXTRACT: note_off channel=6 note=70 velocity=97 time=0
EXTRACT: note_off channel=10 note=70 velocity=97 time=0
EXTRACT: note_off channel=10 note=66 velocity=97 time=0
EXTRACT: note_off channel=10 note=63 velocity=97 time=0
EXTRACT: note_on channel=1 note=56 velocity=127 time=0.0020833333333333333
EXTRACT: note_on channel=1 note=44 velocity=127 time=0
EXTRACT: note_on channel=2 note=63 velocity=127 time=0
EXTRACT: note_on channel=2 note=66 velocity=127 time=0
EXTRACT: note_on channel=3 note=34 velocity=127 time=0
EXTRACT: note_on channel=4 note=34 velocity=127 time=0
EXTRACT: note_on channel=4 note=46 velocity=127 time=0
EXTRACT: note_on channel=6 note=78 velocity=127 time=0
EXTRACT: note_on channel=9 note=28 velocity=54 time=0
EXTRACT: note_on channel=9 note=35 velocity=127 time=0
EXTRACT: note_on channel=9 note=36 velocity=127 time=0
EXTRACT: note_on channel=9 note=38 velocity=65 time=0
EXTRACT: note_on channel=9 note=75 velocity=61 time=0
EXTRACT: note_on channel=10 note=78 velocity=127 time=0
EXTRACT: note_off channel=9 note=62 velocity=127 time=0.0010416666666666667
EXTRACT: note_off channel=3 note=27 velocity=127 time=0.0125
EXTRACT: note_off channel=4 note=27 velocity=127 time=0
EXTRACT: note_off channel=4 note=39 velocity=127 time=0
EXTRACT: note_off channel=9 note=75 velocity=61 time=0.10520833333333333
EXTRACT: note_off channel=9 note=28 velocity=54 time=0.07083333333333333
EXTRACT: note_off channel=9 note=38 velocity=65 time=0.034375
EXTRACT: note_off channel=9 note=35 velocity=127 time=0.005208333333333333
EXTRACT: note_off channel=9 note=36 velocity=127 time=0
EXTRACT: note_on channel=1 note=58 velocity=83 time=0.020833333333333332
EXTRACT: note_on channel=1 note=46 velocity=83 time=0
EXTRACT: note_on channel=9 note=28 velocity=56 time=0
EXTRACT: note_on channel=9 note=75 velocity=61 time=0
EXTRACT: note_off channel=9 note=75 velocity=61 time=0.11875
EXTRACT: note_on channel=9 note=75 velocity=61 time=0.00625
EXTRACT: note_off channel=9 note=28 velocity=56 time=0.06458333333333333
EXTRACT: note_off channel=1 note=56 velocity=127 time=0.026041666666666668
EXTRACT: note_off channel=1 note=44 velocity=127 time=0
EXTRACT: note_off channel=9 note=75 velocity=61 time=0.028125
EXTRACT: note_off channel=1 note=58 velocity=83 time=0.004166666666666667
EXTRACT: note_off channel=1 note=46 velocity=83 time=0
EXTRACT: note_off channel=2 note=63 velocity=127 time=0
EXTRACT: note_off channel=2 note=66 velocity=127 time=0
EXTRACT: note_off channel=6 note=78 velocity=127 time=0
EXTRACT: note_off channel=10 note=78 velocity=127 time=0
EXTRACT: note_on channel=1 note=56 velocity=80 time=0.0020833333333333333
EXTRACT: note_on channel=1 note=44 velocity=80 time=0
EXTRACT: note_on channel=2 note=61 velocity=127 time=0
EXTRACT: note_on channel=2 note=65 velocity=127 time=0
EXTRACT: note_on channel=6 note=70 velocity=127 time=0
EXTRACT: note_on channel=6 note=73 velocity=127 time=0
EXTRACT: note_on channel=6 note=77 velocity=127 time=0
EXTRACT: note_on channel=9 note=28 velocity=52 time=0
EXTRACT: note_on channel=9 note=42 velocity=127 time=0
EXTRACT: note_on channel=9 note=37 velocity=127 time=0
EXTRACT: note_on channel=9 note=62 velocity=127 time=0
EXTRACT: note_on channel=9 note=75 velocity=61 time=0
EXTRACT: note_on channel=10 note=77 velocity=127 time=0
EXTRACT: note_on channel=10 note=73 velocity=127 time=0
EXTRACT: note_on channel=10 note=70 velocity=127 time=0
EXTRACT: note_off channel=9 note=75 velocity=61 time=0.11875
EXTRACT: note_off channel=9 note=28 velocity=52 time=0.07083333333333333
EXTRACT: note_off channel=9 note=42 velocity=127 time=0.03958333333333333
EXTRACT: note_off channel=9 note=37 velocity=127 time=0
EXTRACT: note_on channel=1 note=58 velocity=76 time=0.020833333333333332
EXTRACT: note_on channel=1 note=46 velocity=76 time=0
EXTRACT: note_on channel=9 note=28 velocity=52 time=0
EXTRACT: note_on channel=9 note=35 velocity=127 time=0
EXTRACT: note_on channel=9 note=36 velocity=127 time=0
EXTRACT: note_on channel=9 note=38 velocity=67 time=0
EXTRACT: note_on channel=9 note=75 velocity=61 time=0
EXTRACT: note_off channel=9 note=62 velocity=127 time=0.0010416666666666667
EXTRACT: note_off channel=9 note=75 velocity=61 time=0.11770833333333333
EXTRACT: note_off channel=9 note=28 velocity=52 time=0.07083333333333333
EXTRACT: note_off channel=9 note=38 velocity=67 time=0.034375
EXTRACT: note_off channel=9 note=35 velocity=127 time=0.005208333333333333
EXTRACT: note_off channel=9 note=36 velocity=127 time=0
EXTRACT: note_off channel=1 note=58 velocity=76 time=0.01875
EXTRACT: note_off channel=1 note=46 velocity=76 time=0
EXTRACT: note_on channel=1 note=61 velocity=127 time=0.0020833333333333333
EXTRACT: note_on channel=1 note=49 velocity=127 time=0
EXTRACT: note_on channel=9 note=28 velocity=52 time=0
EXTRACT: note_off channel=1 note=56 velocity=80 time=0.019791666666666666
EXTRACT: note_off channel=1 note=44 velocity=80 time=0
EXTRACT: note_off channel=9 note=28 velocity=52 time=0.16979166666666667
EXTRACT: note_on channel=9 note=43 velocity=43 time=0.06041666666666667
EXTRACT: note_on channel=9 note=28 velocity=52 time=0
EXTRACT: note_on channel=9 note=35 velocity=127 time=0
EXTRACT: note_on channel=9 note=36 velocity=127 time=0
EXTRACT: note_on channel=9 note=38 velocity=67 time=0
EXTRACT: note_on channel=9 note=75 velocity=56 time=0
EXTRACT: note_off channel=9 note=43 velocity=43 time=0.096875
EXTRACT: note_off channel=9 note=75 velocity=56 time=0.021875
EXTRACT: note_on channel=9 note=41 velocity=43 time=0.00625
EXTRACT: note_off channel=9 note=28 velocity=52 time=0.06458333333333333
EXTRACT: note_off channel=9 note=41 velocity=43 time=0.03229166666666666
EXTRACT: note_off channel=9 note=38 velocity=67 time=0.0020833333333333333
EXTRACT: note_off channel=9 note=35 velocity=127 time=0.005208333333333333
EXTRACT: note_off channel=9 note=36 velocity=127 time=0
EXTRACT: note_off channel=1 note=61 velocity=127 time=0.01875
EXTRACT: note_off channel=1 note=49 velocity=127 time=0
EXTRACT: note_off channel=2 note=61 velocity=127 time=0
EXTRACT: note_off channel=2 note=65 velocity=127 time=0
EXTRACT: note_off channel=3 note=34 velocity=127 time=0
EXTRACT: note_off channel=4 note=34 velocity=127 time=0
EXTRACT: note_off channel=4 note=46 velocity=127 time=0
EXTRACT: note_off channel=6 note=70 velocity=127 time=0
EXTRACT: note_off channel=6 note=73 velocity=127 time=0
EXTRACT: note_off channel=6 note=77 velocity=127 time=0
EXTRACT: note_off channel=10 note=77 velocity=127 time=0
EXTRACT: note_off channel=10 note=73 velocity=127 time=0
EXTRACT: note_off channel=10 note=70 velocity=127 time=0
EXTRACT: note_on channel=1 note=58 velocity=127 time=0.0020833333333333333
EXTRACT: note_on channel=1 note=46 velocity=127 time=0
EXTRACT: note_on channel=2 note=68 velocity=127 time=0
EXTRACT: note_on channel=6 note=73 velocity=127 time=0
EXTRACT: note_on channel=9 note=28 velocity=52 time=0
EXTRACT: note_on channel=9 note=42 velocity=127 time=0
EXTRACT: note_on channel=9 note=37 velocity=127 time=0
EXTRACT: note_on channel=9 note=62 velocity=127 time=0
EXTRACT: note_on channel=10 note=73 velocity=127 time=0
EXTRACT: note_on channel=9 note=35 velocity=127 time=0.125
EXTRACT: note_on channel=9 note=36 velocity=127 time=0
EXTRACT: note_on channel=9 note=38 velocity=65 time=0
EXTRACT: note_off channel=9 note=28 velocity=52 time=0.06458333333333333
EXTRACT: note_off channel=9 note=42 velocity=127 time=0.03958333333333333
EXTRACT: note_off channel=9 note=37 velocity=127 time=0
EXTRACT: note_off channel=1 note=58 velocity=127 time=0.01875
EXTRACT: note_off channel=1 note=46 velocity=127 time=0
EXTRACT: note_on channel=1 note=58 velocity=127 time=0.0020833333333333333
EXTRACT: note_on channel=1 note=46 velocity=127 time=0
EXTRACT: note_on channel=3 note=36 velocity=97 time=0
EXTRACT: note_on channel=4 note=36 velocity=97 time=0
EXTRACT: note_on channel=4 note=48 velocity=97 time=0
EXTRACT: note_on channel=9 note=28 velocity=54 time=0
EXTRACT: note_on channel=9 note=42 velocity=127 time=0
EXTRACT: note_on channel=9 note=37 velocity=127 time=0
EXTRACT: note_on channel=9 note=62 velocity=127 time=0
EXTRACT: note_on channel=9 note=75 velocity=60 time=0
EXTRACT: note_off channel=9 note=62 velocity=127 time=0.0010416666666666667
EXTRACT: note_off channel=9 note=38 velocity=65 time=0.09791666666666667
EXTRACT: note_off channel=9 note=35 velocity=127 time=0.005208333333333333
EXTRACT: note_off channel=9 note=36 velocity=127 time=0
EXTRACT: note_off channel=9 note=75 velocity=60 time=0.014583333333333334
EXTRACT: note_off channel=3 note=36 velocity=97 time=0.004166666666666667
EXTRACT: note_off channel=4 note=36 velocity=97 time=0
EXTRACT: note_off channel=4 note=48 velocity=97 time=0
EXTRACT: note_on channel=3 note=37 velocity=97 time=0.0020833333333333333
EXTRACT: note_on channel=4 note=37 velocity=97 time=0
EXTRACT: note_on channel=4 note=49 velocity=97 time=0
EXTRACT: note_on channel=9 note=75 velocity=58 time=0
EXTRACT: note_off channel=9 note=28 velocity=54 time=0.06458333333333333
EXTRACT: note_off channel=9 note=42 velocity=127 time=0.03958333333333333
EXTRACT: note_off channel=9 note=37 velocity=127 time=0
EXTRACT: note_off channel=9 note=75 velocity=58 time=0.014583333333333334
EXTRACT: note_off channel=1 note=58 velocity=127 time=0.004166666666666667
EXTRACT: note_off channel=1 note=46 velocity=127 time=0
EXTRACT: note_off channel=2 note=68 velocity=127 time=0
EXTRACT: note_off channel=3 note=37 velocity=97 time=0
EXTRACT: note_off channel=4 note=37 velocity=97 time=0
EXTRACT: note_off channel=4 note=49 velocity=97 time=0
EXTRACT: note_off channel=6 note=73 velocity=127 time=0
EXTRACT: note_off channel=10 note=73 velocity=127 time=0
EXTRACT: note_on channel=1 note=44 velocity=127 time=0.0020833333333333333
EXTRACT: note_on channel=1 note=56 velocity=127 time=0
EXTRACT: note_on channel=2 note=70 velocity=56 time=0
EXTRACT: note_on channel=2 note=73 velocity=56 time=0
EXTRACT: note_on channel=2 note=66 velocity=127 time=0
EXTRACT: note_on channel=3 note=30 velocity=127 time=0
EXTRACT: note_on channel=4 note=30 velocity=127 time=0
EXTRACT: note_on channel=4 note=42 velocity=127 time=0
EXTRACT: note_on channel=6 note=66 velocity=97 time=0
EXTRACT: note_on channel=6 note=70 velocity=97 time=0
EXTRACT: note_on channel=6 note=73 velocity=97 time=0
EXTRACT: note_on channel=9 note=28 velocity=54 time=0
EXTRACT: note_on channel=9 note=35 velocity=127 time=0
EXTRACT: note_on channel=9 note=36 velocity=127 time=0
EXTRACT: note_on channel=9 note=38 velocity=65 time=0
EXTRACT: note_on channel=9 note=75 velocity=61 time=0
EXTRACT: note_on channel=10 note=73 velocity=97 time=0
EXTRACT: note_on channel=10 note=70 velocity=97 time=0
EXTRACT: note_on channel=10 note=66 velocity=97 time=0
EXTRACT: note_off channel=9 note=62 velocity=127 time=0.0010416666666666667
EXTRACT: note_off channel=9 note=75 velocity=61 time=0.11770833333333333
EXTRACT: note_off channel=9 note=28 velocity=54 time=0.07083333333333333
EXTRACT: note_off channel=9 note=38 velocity=65 time=0.034375
EXTRACT: note_off channel=9 note=35 velocity=127 time=0.005208333333333333
EXTRACT: note_off channel=9 note=36 velocity=127 time=0
EXTRACT: note_on channel=1 note=58 velocity=78 time=0.020833333333333332
EXTRACT: note_on channel=1 note=46 velocity=78 time=0
EXTRACT: note_on channel=9 note=28 velocity=56 time=0
EXTRACT: note_on channel=9 note=75 velocity=61 time=0
EXTRACT: note_off channel=9 note=75 velocity=61 time=0.11875
EXTRACT: note_on channel=9 note=75 velocity=61 time=0.00625
EXTRACT: note_off channel=1 note=56 velocity=127 time=0.0625
EXTRACT: note_off channel=9 note=28 velocity=56 time=0.0020833333333333333
EXTRACT: note_off channel=9 note=75 velocity=61 time=0.05416666666666667
EXTRACT: note_off channel=1 note=58 velocity=78 time=0.004166666666666667
EXTRACT: note_off channel=1 note=46 velocity=78 time=0
EXTRACT: note_on channel=1 note=58 velocity=127 time=0.0020833333333333333
EXTRACT: note_on channel=1 note=46 velocity=127 time=0
EXTRACT: note_on channel=1 note=56 velocity=58 time=0
EXTRACT: note_on channel=1 note=44 velocity=58 time=0
EXTRACT: note_on channel=9 note=28 velocity=52 time=0
EXTRACT: note_on channel=9 note=42 velocity=127 time=0
EXTRACT: note_on channel=9 note=37 velocity=127 time=0
EXTRACT: note_on channel=9 note=62 velocity=127 time=0
EXTRACT: note_on channel=9 note=75 velocity=61 time=0
EXTRACT: note_off channel=1 note=44 velocity=127 time=0.0020833333333333333
EXTRACT: note_off channel=9 note=75 velocity=61 time=0.11666666666666667
EXTRACT: note_off channel=9 note=28 velocity=52 time=0.07083333333333333
EXTRACT: note_off channel=9 note=42 velocity=127 time=0.03958333333333333
EXTRACT: note_off channel=9 note=37 velocity=127 time=0
EXTRACT: note_off channel=1 note=58 velocity=127 time=0.01875
EXTRACT: note_off channel=1 note=46 velocity=127 time=0
EXTRACT: note_on channel=1 note=56 velocity=127 time=0.0020833333333333333
EXTRACT: note_on channel=1 note=44 velocity=127 time=0
EXTRACT: note_on channel=9 note=28 velocity=52 time=0
EXTRACT: note_on channel=9 note=35 velocity=127 time=0
EXTRACT: note_on channel=9 note=36 velocity=127 time=0
EXTRACT: note_on channel=9 note=38 velocity=67 time=0
EXTRACT: note_on channel=9 note=75 velocity=61 time=0
EXTRACT: note_off channel=9 note=62 velocity=127 time=0.0010416666666666667
EXTRACT: note_off channel=9 note=75 velocity=61 time=0.11770833333333333
EXTRACT: note_off channel=9 note=28 velocity=52 time=0.07083333333333333
EXTRACT: note_off channel=9 note=38 velocity=67 time=0.034375
EXTRACT: note_off channel=9 note=35 velocity=127 time=0.005208333333333333
EXTRACT: note_off channel=9 note=36 velocity=127 time=0
EXTRACT: note_off channel=1 note=56 velocity=127 time=0.01875
EXTRACT: note_off channel=1 note=44 velocity=127 time=0
EXTRACT: note_on channel=1 note=61 velocity=127 time=0.0020833333333333333
EXTRACT: note_on channel=1 note=49 velocity=127 time=0
EXTRACT: note_on channel=9 note=28 velocity=52 time=0
EXTRACT: note_off channel=1 note=56 velocity=58 time=0.019791666666666666
EXTRACT: note_off channel=1 note=44 velocity=58 time=0
EXTRACT: note_off channel=9 note=28 velocity=52 time=0.16979166666666667
EXTRACT: note_off channel=1 note=61 velocity=127 time=0.058333333333333334
EXTRACT: note_off channel=1 note=49 velocity=127 time=0
EXTRACT: note_on channel=1 note=61 velocity=127 time=0.0020833333333333333
EXTRACT: note_on channel=1 note=49 velocity=127 time=0
EXTRACT: note_on channel=9 note=43 velocity=43 time=0
EXTRACT: note_on channel=9 note=28 velocity=52 time=0
EXTRACT: note_on channel=9 note=35 velocity=127 time=0
EXTRACT: note_on channel=9 note=36 velocity=127 time=0
EXTRACT: note_on channel=9 note=38 velocity=67 time=0
EXTRACT: note_on channel=9 note=75 velocity=56 time=0
EXTRACT: note_off channel=9 note=43 velocity=43 time=0.096875
EXTRACT: note_off channel=9 note=75 velocity=56 time=0.021875
EXTRACT: note_on channel=9 note=41 velocity=43 time=0.00625
EXTRACT: note_off channel=9 note=28 velocity=52 time=0.06458333333333333
EXTRACT: note_off channel=9 note=41 velocity=43 time=0.03229166666666666
EXTRACT: note_off channel=9 note=38 velocity=67 time=0.0020833333333333333
EXTRACT: note_off channel=9 note=35 velocity=127 time=0.005208333333333333
EXTRACT: note_off channel=9 note=36 velocity=127 time=0
EXTRACT: note_off channel=1 note=61 velocity=127 time=0.01875
EXTRACT: note_off channel=1 note=49 velocity=127 time=0
EXTRACT: note_on channel=1 note=58 velocity=127 time=0.0020833333333333333
EXTRACT: note_on channel=1 note=46 velocity=127 time=0
EXTRACT: note_on channel=9 note=28 velocity=52 time=0
EXTRACT: note_on channel=9 note=42 velocity=127 time=0
EXTRACT: note_on channel=9 note=37 velocity=127 time=0
EXTRACT: note_on channel=9 note=62 velocity=127 time=0
EXTRACT: note_on channel=9 note=35 velocity=127 time=0.125
EXTRACT: note_on channel=9 note=36 velocity=127 time=0
EXTRACT: note_on channel=9 note=38 velocity=65 time=0
EXTRACT: note_off channel=9 note=28 velocity=52 time=0.06458333333333333
EXTRACT: note_off channel=9 note=42 velocity=127 time=0.03958333333333333
EXTRACT: note_off channel=9 note=37 velocity=127 time=0
EXTRACT: note_off channel=1 note=58 velocity=127 time=0.01875
EXTRACT: note_off channel=1 note=46 velocity=127 time=0
EXTRACT: note_on channel=1 note=58 velocity=127 time=0.0020833333333333333
EXTRACT: note_on channel=1 note=46 velocity=127 time=0
EXTRACT: note_on channel=9 note=28 velocity=54 time=0
EXTRACT: note_on channel=9 note=42 velocity=127 time=0
EXTRACT: note_on channel=9 note=37 velocity=127 time=0
EXTRACT: note_on channel=9 note=62 velocity=127 time=0
EXTRACT: note_on channel=9 note=75 velocity=60 time=0
EXTRACT: note_off channel=9 note=62 velocity=127 time=0.0010416666666666667
EXTRACT: note_off channel=9 note=38 velocity=65 time=0.09791666666666667
EXTRACT: note_off channel=9 note=35 velocity=127 time=0.005208333333333333
EXTRACT: note_off channel=9 note=36 velocity=127 time=0
EXTRACT: note_off channel=9 note=75 velocity=60 time=0.014583333333333334
EXTRACT: note_on channel=9 note=75 velocity=58 time=0.00625
EXTRACT: note_off channel=9 note=28 velocity=54 time=0.06458333333333333
EXTRACT: note_off channel=9 note=42 velocity=127 time=0.03958333333333333
EXTRACT: note_off channel=9 note=37 velocity=127 time=0
EXTRACT: note_off channel=9 note=75 velocity=58 time=0.014583333333333334
EXTRACT: note_off channel=1 note=58 velocity=127 time=0.004166666666666667
EXTRACT: note_off channel=1 note=46 velocity=127 time=0
EXTRACT: note_off channel=2 note=70 velocity=56 time=0
EXTRACT: note_off channel=2 note=73 velocity=56 time=0
EXTRACT: note_off channel=2 note=66 velocity=127 time=0
EXTRACT: note_off channel=3 note=30 velocity=127 time=0
EXTRACT: note_off channel=4 note=30 velocity=127 time=0
EXTRACT: note_off channel=4 note=42 velocity=127 time=0
EXTRACT: note_off channel=6 note=66 velocity=97 time=0
EXTRACT: note_off channel=6 note=70 velocity=97 time=0
EXTRACT: note_off channel=6 note=73 velocity=97 time=0
EXTRACT: note_off channel=10 note=73 velocity=97 time=0
EXTRACT: note_off channel=10 note=70 velocity=97 time=0
EXTRACT: note_off channel=10 note=66 velocity=97 time=0
EXTRACT: note_on channel=1 note=44 velocity=45 time=0.0020833333333333333
EXTRACT: note_on channel=1 note=56 velocity=127 time=0
EXTRACT: note_on channel=2 note=73 velocity=58 time=0
EXTRACT: note_on channel=2 note=70 velocity=58 time=0
EXTRACT: note_on channel=2 note=66 velocity=58 time=0
EXTRACT: note_on channel=2 note=65 velocity=127 time=0
EXTRACT: note_on channel=3 note=30 velocity=127 time=0
EXTRACT: note_on channel=4 note=30 velocity=127 time=0
EXTRACT: note_on channel=4 note=42 velocity=127 time=0
EXTRACT: note_on channel=6 note=77 velocity=127 time=0
EXTRACT: note_on channel=6 note=73 velocity=127 time=0
EXTRACT: note_on channel=6 note=70 velocity=127 time=0
EXTRACT: note_on channel=6 note=66 velocity=127 time=0
EXTRACT: note_on channel=9 note=75 velocity=61 time=0
EXTRACT: note_on channel=9 note=38 velocity=65 time=0
EXTRACT: note_on channel=9 note=28 velocity=54 time=0
EXTRACT: note_on channel=9 note=35 velocity=127 time=0
EXTRACT: note_on channel=9 note=36 velocity=127 time=0
EXTRACT: note_on channel=10 note=66 velocity=127 time=0
EXTRACT: note_on channel=10 note=70 velocity=127 time=0
EXTRACT: note_on channel=10 note=73 velocity=127 time=0
EXTRACT: note_on channel=10 note=77 velocity=127 time=0
EXTRACT: note_off channel=9 note=62 velocity=127 time=0.0010416666666666667
EXTRACT: note_off channel=9 note=75 velocity=61 time=0.11770833333333333
EXTRACT: note_off channel=9 note=28 velocity=54 time=0.07083333333333333
EXTRACT: note_off channel=9 note=38 velocity=65 time=0.034375
EXTRACT: note_off channel=9 note=35 velocity=127 time=0.005208333333333333
EXTRACT: note_off channel=9 note=36 velocity=127 time=0
EXTRACT: note_on channel=1 note=58 velocity=80 time=0.020833333333333332
EXTRACT: note_on channel=1 note=46 velocity=80 time=0
EXTRACT: note_on channel=9 note=75 velocity=61 time=0
EXTRACT: note_on channel=9 note=28 velocity=56 time=0
EXTRACT: note_off channel=9 note=75 velocity=61 time=0.11875
EXTRACT: note_on channel=9 note=75 velocity=61 time=0.00625
EXTRACT: note_off channel=9 note=28 velocity=56 time=0.06458333333333333
EXTRACT: note_off channel=1 note=56 velocity=127 time=0.030208333333333334
EXTRACT: note_off channel=9 note=75 velocity=61 time=0.02395833333333333
EXTRACT: note_off channel=1 note=58 velocity=80 time=0.004166666666666667
EXTRACT: note_off channel=1 note=46 velocity=80 time=0
EXTRACT: note_on channel=1 note=56 velocity=83 time=0.0020833333333333333
EXTRACT: note_on channel=1 note=44 velocity=83 time=0
EXTRACT: note_on channel=9 note=62 velocity=127 time=0
EXTRACT: note_on channel=9 note=75 velocity=61 time=0
EXTRACT: note_on channel=9 note=28 velocity=52 time=0
EXTRACT: note_on channel=9 note=42 velocity=127 time=0
EXTRACT: note_on channel=9 note=37 velocity=127 time=0
EXTRACT: note_off channel=1 note=44 velocity=45 time=0.0020833333333333333
EXTRACT: note_off channel=9 note=75 velocity=61 time=0.11666666666666667
EXTRACT: note_off channel=9 note=28 velocity=52 time=0.07083333333333333
EXTRACT: note_off channel=9 note=42 velocity=127 time=0.03958333333333333
EXTRACT: note_off channel=9 note=37 velocity=127 time=0
EXTRACT: note_on channel=0 note=70 velocity=127 time=0.020833333333333332
EXTRACT: note_on channel=9 note=75 velocity=61 time=0
EXTRACT: note_on channel=9 note=38 velocity=67 time=0
EXTRACT: note_on channel=9 note=28 velocity=52 time=0
EXTRACT: note_on channel=9 note=35 velocity=127 time=0
EXTRACT: note_on channel=9 note=36 velocity=127 time=0
EXTRACT: note_off channel=9 note=62 velocity=127 time=0.0010416666666666667
EXTRACT: note_off channel=9 note=75 velocity=61 time=0.11770833333333333
EXTRACT: note_off channel=9 note=28 velocity=52 time=0.07083333333333333
EXTRACT: note_off channel=9 note=38 velocity=67 time=0.034375
EXTRACT: note_off channel=9 note=35 velocity=127 time=0.005208333333333333
EXTRACT: note_off channel=9 note=36 velocity=127 time=0
EXTRACT: note_off channel=0 note=70 velocity=127 time=0.01875
EXTRACT: note_on channel=0 note=73 velocity=127 time=0.0020833333333333333
EXTRACT: note_on channel=9 note=28 velocity=52 time=0
EXTRACT: note_off channel=1 note=56 velocity=83 time=0.019791666666666666
EXTRACT: note_off channel=1 note=44 velocity=83 time=0
EXTRACT: note_off channel=9 note=28 velocity=52 time=0.16979166666666667
EXTRACT: note_off channel=0 note=73 velocity=127 time=0.058333333333333334
EXTRACT: note_on channel=0 note=70 velocity=127 time=0.0020833333333333333
EXTRACT: note_on channel=9 note=75 velocity=56 time=0
EXTRACT: note_on channel=9 note=38 velocity=67 time=0
EXTRACT: note_on channel=9 note=43 velocity=43 time=0
EXTRACT: note_on channel=9 note=28 velocity=52 time=0
EXTRACT: note_on channel=9 note=35 velocity=127 time=0
EXTRACT: note_on channel=9 note=36 velocity=127 time=0
EXTRACT: note_off channel=9 note=43 velocity=43 time=0.096875
EXTRACT: note_off channel=9 note=75 velocity=56 time=0.021875
EXTRACT: note_on channel=9 note=41 velocity=43 time=0.00625
EXTRACT: note_off channel=9 note=28 velocity=52 time=0.06458333333333333
EXTRACT: note_off channel=9 note=41 velocity=43 time=0.03229166666666666
EXTRACT: note_off channel=9 note=38 velocity=67 time=0.0020833333333333333
EXTRACT: note_off channel=9 note=35 velocity=127 time=0.005208333333333333
EXTRACT: note_off channel=9 note=36 velocity=127 time=0
EXTRACT: note_off channel=0 note=70 velocity=127 time=0.01875
EXTRACT: note_off channel=3 note=30 velocity=127 time=0
EXTRACT: note_off channel=4 note=30 velocity=127 time=0
EXTRACT: note_off channel=4 note=42 velocity=127 time=0
EXTRACT: note_on channel=0 note=70 velocity=127 time=0.0020833333333333333
EXTRACT: note_on channel=9 note=62 velocity=127 time=0
EXTRACT: note_on channel=9 note=28 velocity=52 time=0
EXTRACT: note_on channel=9 note=42 velocity=127 time=0
EXTRACT: note_on channel=9 note=37 velocity=127 time=0
EXTRACT: note_on channel=9 note=38 velocity=65 time=0.125
EXTRACT: note_on channel=9 note=35 velocity=127 time=0
EXTRACT: note_on channel=9 note=36 velocity=127 time=0
EXTRACT: note_off channel=9 note=28 velocity=52 time=0.06458333333333333
EXTRACT: note_off channel=9 note=42 velocity=127 time=0.03958333333333333
EXTRACT: note_off channel=9 note=37 velocity=127 time=0
EXTRACT: note_off channel=0 note=70 velocity=127 time=0.01875
EXTRACT: note_on channel=0 note=70 velocity=127 time=0.0020833333333333333
EXTRACT: note_on channel=3 note=30 velocity=97 time=0
EXTRACT: note_on channel=4 note=30 velocity=97 time=0
EXTRACT: note_on channel=4 note=42 velocity=97 time=0
EXTRACT: note_on channel=9 note=62 velocity=127 time=0
EXTRACT: note_on channel=9 note=75 velocity=60 time=0
EXTRACT: note_on channel=9 note=28 velocity=54 time=0
EXTRACT: note_on channel=9 note=42 velocity=127 time=0
EXTRACT: note_on channel=9 note=37 velocity=127 time=0
EXTRACT: note_off channel=9 note=62 velocity=127 time=0.0010416666666666667
EXTRACT: note_off channel=9 note=38 velocity=65 time=0.09791666666666667
EXTRACT: note_off channel=9 note=35 velocity=127 time=0.005208333333333333
EXTRACT: note_off channel=9 note=36 velocity=127 time=0
EXTRACT: note_off channel=9 note=75 velocity=60 time=0.014583333333333334
EXTRACT: note_off channel=3 note=30 velocity=97 time=0.004166666666666667
EXTRACT: note_off channel=4 note=30 velocity=97 time=0
EXTRACT: note_off channel=4 note=42 velocity=97 time=0
EXTRACT: note_on channel=3 note=32 velocity=97 time=0.0020833333333333333
EXTRACT: note_on channel=4 note=32 velocity=97 time=0
EXTRACT: note_on channel=4 note=44 velocity=97 time=0
EXTRACT: note_on channel=9 note=75 velocity=58 time=0
EXTRACT: note_off channel=9 note=28 velocity=54 time=0.06458333333333333
EXTRACT: note_off channel=9 note=42 velocity=127 time=0.03958333333333333
EXTRACT: note_off channel=9 note=37 velocity=127 time=0
EXTRACT: note_off channel=9 note=75 velocity=58 time=0.014583333333333334
EXTRACT: note_off channel=0 note=70 velocity=127 time=0.004166666666666667
EXTRACT: note_off channel=2 note=73 velocity=58 time=0
EXTRACT: note_off channel=2 note=70 velocity=58 time=0
EXTRACT: note_off channel=2 note=66 velocity=58 time=0
EXTRACT: note_off channel=2 note=65 velocity=127 time=0
EXTRACT: note_off channel=3 note=32 velocity=97 time=0
EXTRACT: note_off channel=4 note=32 velocity=97 time=0
EXTRACT: note_off channel=4 note=44 velocity=97 time=0
EXTRACT: note_off channel=6 note=77 velocity=127 time=0
EXTRACT: note_off channel=6 note=73 velocity=127 time=0
EXTRACT: note_off channel=6 note=70 velocity=127 time=0
EXTRACT: note_off channel=6 note=66 velocity=127 time=0
EXTRACT: note_off channel=10 note=66 velocity=127 time=0
EXTRACT: note_off channel=10 note=70 velocity=127 time=0
EXTRACT: note_off channel=10 note=73 velocity=127 time=0
EXTRACT: note_off channel=10 note=77 velocity=127 time=0
EXTRACT: note_on channel=0 note=68 velocity=127 time=0.0020833333333333333
EXTRACT: note_on channel=2 note=70 velocity=58 time=0
EXTRACT: note_on channel=2 note=66 velocity=58 time=0
EXTRACT: note_on channel=2 note=63 velocity=127 time=0
EXTRACT: note_on channel=3 note=27 velocity=127 time=0
EXTRACT: note_on channel=4 note=27 velocity=127 time=0
EXTRACT: note_on channel=4 note=39 velocity=127 time=0
EXTRACT: note_on channel=6 note=70 velocity=97 time=0
EXTRACT: note_on channel=6 note=66 velocity=97 time=0
EXTRACT: note_on channel=6 note=63 velocity=97 time=0
EXTRACT: note_on channel=9 note=75 velocity=61 time=0
EXTRACT: note_on channel=9 note=38 velocity=65 time=0
EXTRACT: note_on channel=9 note=36 velocity=127 time=0
EXTRACT: note_on channel=9 note=35 velocity=127 time=0
EXTRACT: note_on channel=9 note=28 velocity=54 time=0
EXTRACT: note_on channel=10 note=63 velocity=97 time=0
EXTRACT: note_on channel=10 note=66 velocity=97 time=0
EXTRACT: note_on channel=10 note=70 velocity=97 time=0
EXTRACT: note_off channel=9 note=62 velocity=127 time=0.0010416666666666667
EXTRACT: note_off channel=9 note=75 velocity=61 time=0.11770833333333333
EXTRACT: note_off channel=9 note=28 velocity=54 time=0.07083333333333333
EXTRACT: note_off channel=9 note=38 velocity=65 time=0.034375
EXTRACT: note_off channel=9 note=36 velocity=127 time=0.005208333333333333
EXTRACT: note_off channel=9 note=35 velocity=127 time=0
EXTRACT: note_on channel=0 note=70 velocity=78 time=0.020833333333333332
EXTRACT: note_on channel=9 note=75 velocity=61 time=0
EXTRACT: note_on channel=9 note=28 velocity=56 time=0
EXTRACT: note_off channel=9 note=75 velocity=61 time=0.11875
EXTRACT: note_on channel=9 note=75 velocity=61 time=0.00625
EXTRACT: note_off channel=9 note=28 velocity=56 time=0.06458333333333333
EXTRACT: note_off channel=9 note=75 velocity=61 time=0.05416666666666667
EXTRACT: note_off channel=0 note=70 velocity=78 time=0.004166666666666667
EXTRACT: note_on channel=0 note=68 velocity=83 time=0.0020833333333333333
EXTRACT: note_on channel=9 note=75 velocity=61 time=0
EXTRACT: note_on channel=9 note=62 velocity=127 time=0
EXTRACT: note_on channel=9 note=37 velocity=127 time=0
EXTRACT: note_on channel=9 note=42 velocity=127 time=0
EXTRACT: note_on channel=9 note=28 velocity=52 time=0
EXTRACT: note_off channel=0 note=68 velocity=127 time=0.019791666666666666
EXTRACT: note_off channel=9 note=75 velocity=61 time=0.09895833333333333
EXTRACT: note_off channel=9 note=28 velocity=52 time=0.07083333333333333
EXTRACT: note_off channel=9 note=37 velocity=127 time=0.03958333333333333
EXTRACT: note_off channel=9 note=42 velocity=127 time=0
EXTRACT: note_on channel=0 note=70 velocity=127 time=0.020833333333333332
EXTRACT: note_on channel=9 note=75 velocity=61 time=0
EXTRACT: note_on channel=9 note=38 velocity=67 time=0
EXTRACT: note_on channel=9 note=36 velocity=127 time=0
EXTRACT: note_on channel=9 note=35 velocity=127 time=0
EXTRACT: note_on channel=9 note=28 velocity=52 time=0
EXTRACT: note_off channel=9 note=62 velocity=127 time=0.0010416666666666667
EXTRACT: note_off channel=9 note=75 velocity=61 time=0.11770833333333333
EXTRACT: note_off channel=9 note=28 velocity=52 time=0.07083333333333333
EXTRACT: note_off channel=9 note=38 velocity=67 time=0.034375
EXTRACT: note_off channel=9 note=36 velocity=127 time=0.005208333333333333
EXTRACT: note_off channel=9 note=35 velocity=127 time=0
EXTRACT: note_off channel=0 note=70 velocity=127 time=0.01875
EXTRACT: note_on channel=0 note=73 velocity=127 time=0.0020833333333333333
EXTRACT: note_on channel=9 note=28 velocity=52 time=0
EXTRACT: note_off channel=0 note=68 velocity=83 time=0.019791666666666666
EXTRACT: note_off channel=9 note=28 velocity=52 time=0.16979166666666667
EXTRACT: note_off channel=0 note=73 velocity=127 time=0.058333333333333334
EXTRACT: note_on channel=0 note=73 velocity=127 time=0.0020833333333333333
EXTRACT: note_on channel=9 note=75 velocity=56 time=0
EXTRACT: note_on channel=9 note=38 velocity=67 time=0
EXTRACT: note_on channel=9 note=36 velocity=127 time=0
EXTRACT: note_on channel=9 note=35 velocity=127 time=0
EXTRACT: note_on channel=9 note=28 velocity=52 time=0
EXTRACT: note_on channel=9 note=43 velocity=43 time=0
EXTRACT: note_off channel=9 note=43 velocity=43 time=0.096875
EXTRACT: note_off channel=9 note=75 velocity=56 time=0.021875
EXTRACT: note_on channel=9 note=41 velocity=43 time=0.00625
EXTRACT: note_off channel=9 note=28 velocity=52 time=0.06458333333333333
EXTRACT: note_off channel=9 note=41 velocity=43 time=0.03229166666666666
EXTRACT: note_off channel=9 note=38 velocity=67 time=0.0020833333333333333
EXTRACT: note_off channel=9 note=36 velocity=127 time=0.005208333333333333
EXTRACT: note_off channel=9 note=35 velocity=127 time=0
EXTRACT: note_off channel=0 note=73 velocity=127 time=0.01875
EXTRACT: note_on channel=0 note=70 velocity=127 time=0.0020833333333333333
EXTRACT: note_on channel=9 note=62 velocity=127 time=0
EXTRACT: note_on channel=9 note=37 velocity=127 time=0
EXTRACT: note_on channel=9 note=42 velocity=127 time=0
EXTRACT: note_on channel=9 note=28 velocity=52 time=0
EXTRACT: note_on channel=9 note=38 velocity=65 time=0.125
EXTRACT: note_on channel=9 note=36 velocity=127 time=0
EXTRACT: note_on channel=9 note=35 velocity=127 time=0
EXTRACT: note_off channel=9 note=28 velocity=52 time=0.06458333333333333
EXTRACT: note_off channel=9 note=37 velocity=127 time=0.03958333333333333
EXTRACT: note_off channel=9 note=42 velocity=127 time=0
EXTRACT: note_off channel=0 note=70 velocity=127 time=0.01875
EXTRACT: note_on channel=0 note=73 velocity=127 time=0.0020833333333333333
EXTRACT: note_on channel=9 note=75 velocity=60 time=0
EXTRACT: note_on channel=9 note=62 velocity=127 time=0
EXTRACT: note_on channel=9 note=37 velocity=127 time=0
EXTRACT: note_on channel=9 note=42 velocity=127 time=0
EXTRACT: note_on channel=9 note=28 velocity=54 time=0
EXTRACT: note_off channel=9 note=62 velocity=127 time=0.0010416666666666667
EXTRACT: note_off channel=9 note=38 velocity=65 time=0.09791666666666667
EXTRACT: note_off channel=9 note=36 velocity=127 time=0.005208333333333333
EXTRACT: note_off channel=9 note=35 velocity=127 time=0
EXTRACT: note_off channel=9 note=75 velocity=60 time=0.014583333333333334
EXTRACT: note_on channel=9 note=75 velocity=58 time=0.00625
EXTRACT: note_off channel=9 note=28 velocity=54 time=0.06458333333333333
EXTRACT: note_off channel=9 note=37 velocity=127 time=0.03958333333333333
EXTRACT: note_off channel=9 note=42 velocity=127 time=0
EXTRACT: note_off channel=9 note=75 velocity=58 time=0.014583333333333334
EXTRACT: note_off channel=0 note=73 velocity=127 time=0.004166666666666667
EXTRACT: note_off channel=2 note=70 velocity=58 time=0
EXTRACT: note_off channel=2 note=66 velocity=58 time=0
EXTRACT: note_off channel=2 note=63 velocity=127 time=0
EXTRACT: note_off channel=6 note=70 velocity=97 time=0
EXTRACT: note_off channel=6 note=66 velocity=97 time=0
EXTRACT: note_off channel=6 note=63 velocity=97 time=0
EXTRACT: note_off channel=10 note=63 velocity=97 time=0
EXTRACT: note_off channel=10 note=66 velocity=97 time=0
EXTRACT: note_off channel=10 note=70 velocity=97 time=0
EXTRACT: note_on channel=0 note=70 velocity=80 time=0.0020833333333333333
EXTRACT: note_on channel=2 note=66 velocity=127 time=0
EXTRACT: note_on channel=2 note=63 velocity=127 time=0
EXTRACT: note_on channel=3 note=34 velocity=127 time=0
EXTRACT: note_on channel=4 note=34 velocity=127 time=0
EXTRACT: note_on channel=4 note=46 velocity=127 time=0
EXTRACT: note_on channel=6 note=78 velocity=127 time=0
EXTRACT: note_on channel=9 note=75 velocity=61 time=0
EXTRACT: note_on channel=9 note=38 velocity=65 time=0
EXTRACT: note_on channel=9 note=36 velocity=127 time=0
EXTRACT: note_on channel=9 note=35 velocity=127 time=0
EXTRACT: note_on channel=9 note=28 velocity=54 time=0
EXTRACT: note_on channel=10 note=78 velocity=127 time=0
EXTRACT: note_off channel=9 note=62 velocity=127 time=0.0010416666666666667
EXTRACT: note_off channel=3 note=27 velocity=127 time=0.0125
EXTRACT: note_off channel=4 note=27 velocity=127 time=0
EXTRACT: note_off channel=4 note=39 velocity=127 time=0
EXTRACT: note_off channel=9 note=75 velocity=61 time=0.10520833333333333
EXTRACT: note_off channel=9 note=28 velocity=54 time=0.07083333333333333
EXTRACT: note_off channel=9 note=38 velocity=65 time=0.034375
EXTRACT: note_off channel=9 note=36 velocity=127 time=0.005208333333333333
EXTRACT: note_off channel=9 note=35 velocity=127 time=0
EXTRACT: note_off channel=0 note=70 velocity=80 time=0.01875
EXTRACT: note_on channel=0 note=73 velocity=83 time=0.0020833333333333333
EXTRACT: note_on channel=9 note=75 velocity=61 time=0
EXTRACT: note_on channel=9 note=28 velocity=56 time=0
EXTRACT: note_off channel=9 note=75 velocity=61 time=0.11875
EXTRACT: note_on channel=9 note=75 velocity=61 time=0.00625
EXTRACT: note_off channel=9 note=28 velocity=56 time=0.06458333333333333
EXTRACT: note_off channel=9 note=75 velocity=61 time=0.05416666666666667
EXTRACT: note_off channel=0 note=73 velocity=83 time=0.004166666666666667
EXTRACT: note_off channel=2 note=66 velocity=127 time=0
EXTRACT: note_off channel=2 note=63 velocity=127 time=0
EXTRACT: note_off channel=6 note=78 velocity=127 time=0
EXTRACT: note_off channel=10 note=78 velocity=127 time=0
EXTRACT: note_on channel=0 note=70 velocity=127 time=0.0020833333333333333
EXTRACT: note_on channel=2 note=65 velocity=127 time=0
EXTRACT: note_on channel=2 note=61 velocity=127 time=0
EXTRACT: note_on channel=6 note=77 velocity=127 time=0
EXTRACT: note_on channel=6 note=73 velocity=127 time=0
EXTRACT: note_on channel=6 note=70 velocity=127 time=0
EXTRACT: note_on channel=9 note=75 velocity=61 time=0
EXTRACT: note_on channel=9 note=62 velocity=127 time=0
EXTRACT: note_on channel=9 note=37 velocity=127 time=0
EXTRACT: note_on channel=9 note=42 velocity=127 time=0
EXTRACT: note_on channel=9 note=28 velocity=52 time=0
EXTRACT: note_on channel=10 note=70 velocity=127 time=0
EXTRACT: note_on channel=10 note=73 velocity=127 time=0
EXTRACT: note_on channel=10 note=77 velocity=127 time=0
EXTRACT: note_off channel=9 note=75 velocity=61 time=0.11875
EXTRACT: note_off channel=9 note=28 velocity=52 time=0.07083333333333333
EXTRACT: note_off channel=9 note=37 velocity=127 time=0.03958333333333333
EXTRACT: note_off channel=9 note=42 velocity=127 time=0
EXTRACT: note_off channel=0 note=70 velocity=127 time=0.01875
EXTRACT: note_on channel=0 note=68 velocity=127 time=0.0020833333333333333
EXTRACT: note_on channel=9 note=75 velocity=61 time=0
EXTRACT: note_on channel=9 note=38 velocity=67 time=0
EXTRACT: note_on channel=9 note=36 velocity=127 time=0
EXTRACT: note_on channel=9 note=35 velocity=127 time=0
EXTRACT: note_on channel=9 note=28 velocity=52 time=0
EXTRACT: note_off channel=9 note=62 velocity=127 time=0.0010416666666666667
EXTRACT: note_off channel=9 note=75 velocity=61 time=0.11770833333333333
EXTRACT: note_off channel=9 note=28 velocity=52 time=0.07083333333333333
EXTRACT: note_off channel=9 note=38 velocity=67 time=0.034375
EXTRACT: note_off channel=9 note=36 velocity=127 time=0.005208333333333333
EXTRACT: note_off channel=9 note=35 velocity=127 time=0
EXTRACT: note_off channel=0 note=68 velocity=127 time=0.01875
EXTRACT: note_on channel=0 note=70 velocity=127 time=0.0020833333333333333
EXTRACT: note_on channel=0 note=77 velocity=127 time=0
EXTRACT: note_on channel=0 note=73 velocity=127 time=0
EXTRACT: note_on channel=9 note=28 velocity=52 time=0
EXTRACT: note_off channel=9 note=28 velocity=52 time=0.18958333333333333
EXTRACT: note_off channel=0 note=70 velocity=127 time=0.058333333333333334
EXTRACT: note_off channel=0 note=77 velocity=127 time=0
EXTRACT: note_off channel=0 note=73 velocity=127 time=0
EXTRACT: note_on channel=0 note=70 velocity=127 time=0.0020833333333333333
EXTRACT: note_on channel=0 note=77 velocity=127 time=0
EXTRACT: note_on channel=0 note=73 velocity=127 time=0
EXTRACT: note_on channel=9 note=75 velocity=56 time=0
EXTRACT: note_on channel=9 note=38 velocity=67 time=0
EXTRACT: note_on channel=9 note=36 velocity=127 time=0
EXTRACT: note_on channel=9 note=35 velocity=127 time=0
EXTRACT: note_on channel=9 note=28 velocity=52 time=0
EXTRACT: note_on channel=9 note=43 velocity=43 time=0
EXTRACT: note_off channel=9 note=43 velocity=43 time=0.096875
EXTRACT: note_off channel=9 note=75 velocity=56 time=0.021875
EXTRACT: note_on channel=9 note=41 velocity=43 time=0.00625
EXTRACT: note_off channel=9 note=28 velocity=52 time=0.06458333333333333
EXTRACT: note_off channel=9 note=41 velocity=43 time=0.03229166666666666
EXTRACT: note_off channel=9 note=38 velocity=67 time=0.0020833333333333333
EXTRACT: note_off channel=9 note=36 velocity=127 time=0.005208333333333333
EXTRACT: note_off channel=9 note=35 velocity=127 time=0
EXTRACT: note_off channel=0 note=70 velocity=127 time=0.01875
EXTRACT: note_off channel=0 note=77 velocity=127 time=0
EXTRACT: note_off channel=0 note=73 velocity=127 time=0
EXTRACT: note_off channel=2 note=65 velocity=127 time=0
EXTRACT: note_off channel=2 note=61 velocity=127 time=0
EXTRACT: note_off channel=3 note=34 velocity=127 time=0
EXTRACT: note_off channel=4 note=34 velocity=127 time=0
EXTRACT: note_off channel=4 note=46 velocity=127 time=0
EXTRACT: note_off channel=6 note=77 velocity=127 time=0
EXTRACT: note_off channel=6 note=73 velocity=127 time=0
EXTRACT: note_off channel=6 note=70 velocity=127 time=0
EXTRACT: note_off channel=10 note=70 velocity=127 time=0
EXTRACT: note_off channel=10 note=73 velocity=127 time=0
EXTRACT: note_off channel=10 note=77 velocity=127 time=0
EXTRACT: note_on channel=0 note=70 velocity=127 time=0.0020833333333333333
EXTRACT: note_on channel=2 note=68 velocity=127 time=0
EXTRACT: note_on channel=6 note=73 velocity=127 time=0
EXTRACT: note_on channel=9 note=62 velocity=127 time=0
EXTRACT: note_on channel=9 note=37 velocity=127 time=0
EXTRACT: note_on channel=9 note=42 velocity=127 time=0
EXTRACT: note_on channel=9 note=28 velocity=52 time=0
EXTRACT: note_on channel=10 note=73 velocity=127 time=0
EXTRACT: note_on channel=9 note=38 velocity=65 time=0.125
EXTRACT: note_on channel=9 note=36 velocity=127 time=0
EXTRACT: note_on channel=9 note=35 velocity=127 time=0
EXTRACT: note_off channel=9 note=28 velocity=52 time=0.06458333333333333
EXTRACT: note_off channel=9 note=37 velocity=127 time=0.03958333333333333
EXTRACT: note_off channel=9 note=42 velocity=127 time=0
EXTRACT: note_off channel=0 note=70 velocity=127 time=0.01875
EXTRACT: note_on channel=0 note=70 velocity=127 time=0.0020833333333333333
EXTRACT: note_on channel=0 note=77 velocity=127 time=0
EXTRACT: note_on channel=0 note=73 velocity=127 time=0
EXTRACT: note_on channel=3 note=36 velocity=97 time=0
EXTRACT: note_on channel=4 note=36 velocity=97 time=0
EXTRACT: note_on channel=4 note=48 velocity=97 time=0
EXTRACT: note_on channel=9 note=75 velocity=60 time=0
EXTRACT: note_on channel=9 note=62 velocity=127 time=0
EXTRACT: note_on channel=9 note=37 velocity=127 time=0
EXTRACT: note_on channel=9 note=42 velocity=127 time=0
EXTRACT: note_on channel=9 note=28 velocity=54 time=0
EXTRACT: note_off channel=9 note=62 velocity=127 time=0.0010416666666666667
EXTRACT: note_off channel=9 note=38 velocity=65 time=0.09791666666666667
EXTRACT: note_off channel=9 note=36 velocity=127 time=0.005208333333333333
EXTRACT: note_off channel=9 note=35 velocity=127 time=0
EXTRACT: note_off channel=9 note=75 velocity=60 time=0.014583333333333334
EXTRACT: note_off channel=3 note=36 velocity=97 time=0.004166666666666667
EXTRACT: note_off channel=4 note=36 velocity=97 time=0
EXTRACT: note_off channel=4 note=48 velocity=97 time=0
EXTRACT: note_on channel=3 note=37 velocity=97 time=0.0020833333333333333
EXTRACT: note_on channel=4 note=37 velocity=97 time=0
EXTRACT: note_on channel=4 note=49 velocity=97 time=0
EXTRACT: note_on channel=9 note=75 velocity=58 time=0
EXTRACT: note_off channel=9 note=28 velocity=54 time=0.06458333333333333
EXTRACT: note_off channel=9 note=37 velocity=127 time=0.03958333333333333
EXTRACT: note_off channel=9 note=42 velocity=127 time=0
EXTRACT: note_off channel=9 note=75 velocity=58 time=0.014583333333333334
EXTRACT: note_off channel=0 note=70 velocity=127 time=0.004166666666666667
EXTRACT: note_off channel=0 note=77 velocity=127 time=0
EXTRACT: note_off channel=0 note=73 velocity=127 time=0
EXTRACT: note_off channel=2 note=68 velocity=127 time=0
EXTRACT: note_off channel=3 note=37 velocity=97 time=0
EXTRACT: note_off channel=4 note=37 velocity=97 time=0
EXTRACT: note_off channel=4 note=49 velocity=97 time=0
EXTRACT: note_off channel=6 note=73 velocity=127 time=0
EXTRACT: note_off channel=10 note=73 velocity=127 time=0
EXTRACT: note_on channel=0 note=70 velocity=127 time=0.0020833333333333333
EXTRACT: note_on channel=0 note=77 velocity=127 time=0
EXTRACT: note_on channel=0 note=73 velocity=127 time=0
EXTRACT: note_on channel=2 note=73 velocity=56 time=0
EXTRACT: note_on channel=2 note=70 velocity=56 time=0
EXTRACT: note_on channel=2 note=66 velocity=127 time=0
EXTRACT: note_on channel=3 note=30 velocity=127 time=0
EXTRACT: note_on channel=4 note=30 velocity=127 time=0
EXTRACT: note_on channel=4 note=42 velocity=127 time=0
EXTRACT: note_on channel=6 note=73 velocity=97 time=0
EXTRACT: note_on channel=6 note=70 velocity=97 time=0
EXTRACT: note_on channel=6 note=66 velocity=97 time=0
EXTRACT: note_on channel=9 note=75 velocity=61 time=0
EXTRACT: note_on channel=9 note=38 velocity=65 time=0
EXTRACT: note_on channel=9 note=36 velocity=127 time=0
EXTRACT: note_on channel=9 note=35 velocity=127 time=0
EXTRACT: note_on channel=9 note=28 velocity=54 time=0
EXTRACT: note_on channel=10 note=66 velocity=97 time=0
EXTRACT: note_on channel=10 note=70 velocity=97 time=0
EXTRACT: note_on channel=10 note=73 velocity=97 time=0
EXTRACT: note_off channel=9 note=62 velocity=127 time=0.0010416666666666667
EXTRACT: note_off channel=9 note=75 velocity=61 time=0.11770833333333333
EXTRACT: note_off channel=9 note=28 velocity=54 time=0.07083333333333333
EXTRACT: note_off channel=9 note=38 velocity=65 time=0.034375
EXTRACT: note_off channel=9 note=36 velocity=127 time=0.005208333333333333
EXTRACT: note_off channel=9 note=35 velocity=127 time=0
EXTRACT: note_off channel=0 note=70 velocity=127 time=0.01875
EXTRACT: note_off channel=0 note=77 velocity=127 time=0
EXTRACT: note_off channel=0 note=73 velocity=127 time=0
EXTRACT: note_on channel=0 note=70 velocity=127 time=0.0020833333333333333
EXTRACT: note_on channel=9 note=75 velocity=61 time=0
EXTRACT: note_on channel=9 note=28 velocity=56 time=0
EXTRACT: note_off channel=9 note=75 velocity=61 time=0.11875
EXTRACT: note_on channel=9 note=75 velocity=61 time=0.00625
EXTRACT: note_off channel=9 note=28 velocity=56 time=0.06458333333333333
EXTRACT: note_off channel=9 note=75 velocity=61 time=0.05416666666666667
EXTRACT: note_off channel=0 note=70 velocity=127 time=0.004166666666666667
EXTRACT: note_on channel=0 note=73 velocity=127 time=0.0020833333333333333
EXTRACT: note_on channel=9 note=75 velocity=61 time=0
EXTRACT: note_on channel=9 note=62 velocity=127 time=0
EXTRACT: note_on channel=9 note=37 velocity=127 time=0
EXTRACT: note_on channel=9 note=42 velocity=127 time=0
EXTRACT: note_on channel=9 note=28 velocity=52 time=0
EXTRACT: note_off channel=9 note=75 velocity=61 time=0.11875
EXTRACT: note_off channel=9 note=28 velocity=52 time=0.07083333333333333
EXTRACT: note_off channel=9 note=37 velocity=127 time=0.03958333333333333
EXTRACT: note_off channel=9 note=42 velocity=127 time=0
EXTRACT: note_off channel=0 note=73 velocity=127 time=0.01875
EXTRACT: note_on channel=0 note=70 velocity=127 time=0.0020833333333333333
EXTRACT: note_on channel=9 note=75 velocity=61 time=0
EXTRACT: note_on channel=9 note=38 velocity=67 time=0
EXTRACT: note_on channel=9 note=36 velocity=127 time=0
EXTRACT: note_on channel=9 note=35 velocity=127 time=0
EXTRACT: note_on channel=9 note=28 velocity=52 time=0
EXTRACT: note_off channel=9 note=62 velocity=127 time=0.0010416666666666667
EXTRACT: note_off channel=9 note=75 velocity=61 time=0.11770833333333333
EXTRACT: note_off channel=9 note=28 velocity=52 time=0.07083333333333333
EXTRACT: note_off channel=9 note=38 velocity=67 time=0.034375
EXTRACT: note_off channel=9 note=36 velocity=127 time=0.005208333333333333
EXTRACT: note_off channel=9 note=35 velocity=127 time=0
EXTRACT: note_off channel=0 note=70 velocity=127 time=0.01875
EXTRACT: note_on channel=0 note=73 velocity=127 time=0.0020833333333333333
EXTRACT: note_on channel=9 note=28 velocity=52 time=0
EXTRACT: note_off channel=9 note=28 velocity=52 time=0.18958333333333333
EXTRACT: note_off channel=0 note=73 velocity=127 time=0.058333333333333334
EXTRACT: note_on channel=0 note=73 velocity=127 time=0.0020833333333333333
EXTRACT: note_on channel=9 note=75 velocity=56 time=0
EXTRACT: note_on channel=9 note=38 velocity=67 time=0
EXTRACT: note_on channel=9 note=36 velocity=127 time=0
EXTRACT: note_on channel=9 note=35 velocity=127 time=0
EXTRACT: note_on channel=9 note=28 velocity=52 time=0
EXTRACT: note_on channel=9 note=43 velocity=43 time=0
EXTRACT: note_off channel=9 note=43 velocity=43 time=0.096875
EXTRACT: note_off channel=9 note=75 velocity=56 time=0.021875
EXTRACT: note_on channel=9 note=41 velocity=43 time=0.00625
EXTRACT: note_off channel=9 note=28 velocity=52 time=0.06458333333333333
EXTRACT: note_off channel=9 note=41 velocity=43 time=0.03229166666666666
EXTRACT: note_off channel=9 note=38 velocity=67 time=0.0020833333333333333
EXTRACT: note_off channel=9 note=36 velocity=127 time=0.005208333333333333
EXTRACT: note_off channel=9 note=35 velocity=127 time=0
EXTRACT: note_off channel=0 note=73 velocity=127 time=0.01875
EXTRACT: note_on channel=0 note=70 velocity=127 time=0.0020833333333333333
EXTRACT: note_on channel=9 note=62 velocity=127 time=0
EXTRACT: note_on channel=9 note=37 velocity=127 time=0
EXTRACT: note_on channel=9 note=42 velocity=127 time=0
EXTRACT: note_on channel=9 note=28 velocity=52 time=0
EXTRACT: note_on channel=9 note=38 velocity=65 time=0.125
EXTRACT: note_on channel=9 note=36 velocity=127 time=0
EXTRACT: note_on channel=9 note=35 velocity=127 time=0
EXTRACT: note_off channel=9 note=28 velocity=52 time=0.06458333333333333
EXTRACT: note_off channel=9 note=37 velocity=127 time=0.03958333333333333
EXTRACT: note_off channel=9 note=42 velocity=127 time=0
EXTRACT: note_off channel=0 note=70 velocity=127 time=0.01875
EXTRACT: note_on channel=0 note=70 velocity=127 time=0.0020833333333333333
EXTRACT: note_on channel=9 note=75 velocity=60 time=0
EXTRACT: note_on channel=9 note=62 velocity=127 time=0
EXTRACT: note_on channel=9 note=37 velocity=127 time=0
EXTRACT: note_on channel=9 note=42 velocity=127 time=0
EXTRACT: note_on channel=9 note=28 velocity=54 time=0
EXTRACT: note_off channel=9 note=62 velocity=127 time=0.0010416666666666667
EXTRACT: note_off channel=9 note=38 velocity=65 time=0.09791666666666667
EXTRACT: note_off channel=9 note=36 velocity=127 time=0.005208333333333333
EXTRACT: note_off channel=9 note=35 velocity=127 time=0
EXTRACT: note_off channel=9 note=75 velocity=60 time=0.014583333333333334
EXTRACT: note_on channel=9 note=75 velocity=58 time=0.00625
EXTRACT: note_off channel=9 note=28 velocity=54 time=0.06458333333333333
EXTRACT: note_off channel=9 note=37 velocity=127 time=0.03958333333333333
EXTRACT: note_off channel=9 note=42 velocity=127 time=0
EXTRACT: note_off channel=9 note=75 velocity=58 time=0.014583333333333334
EXTRACT: note_off channel=0 note=70 velocity=127 time=0.004166666666666667
EXTRACT: note_off channel=2 note=73 velocity=56 time=0
EXTRACT: note_off channel=2 note=70 velocity=56 time=0
EXTRACT: note_off channel=2 note=66 velocity=127 time=0
EXTRACT: note_off channel=3 note=30 velocity=127 time=0
EXTRACT: note_off channel=4 note=30 velocity=127 time=0
EXTRACT: note_off channel=4 note=42 velocity=127 time=0
EXTRACT: note_off channel=6 note=73 velocity=97 time=0
EXTRACT: note_off channel=6 note=70 velocity=97 time=0
EXTRACT: note_off channel=6 note=66 velocity=97 time=0
EXTRACT: note_off channel=10 note=66 velocity=97 time=0
EXTRACT: note_off channel=10 note=70 velocity=97 time=0
EXTRACT: note_off channel=10 note=73 velocity=97 time=0
EXTRACT: note_on channel=0 note=68 velocity=127 time=0.0020833333333333333
EXTRACT: note_on channel=2 note=73 velocity=127 time=0
EXTRACT: note_on channel=2 note=73 velocity=58 time=0
EXTRACT: note_on channel=2 note=70 velocity=58 time=0
EXTRACT: note_on channel=2 note=66 velocity=58 time=0
EXTRACT: note_on channel=2 note=65 velocity=127 time=0
EXTRACT: note_on channel=3 note=30 velocity=127 time=0
EXTRACT: note_on channel=4 note=30 velocity=127 time=0
EXTRACT: note_on channel=4 note=42 velocity=127 time=0
EXTRACT: note_on channel=6 note=66 velocity=127 time=0
EXTRACT: note_on channel=6 note=70 velocity=127 time=0
EXTRACT: note_on channel=6 note=73 velocity=127 time=0
EXTRACT: note_on channel=6 note=77 velocity=127 time=0
EXTRACT: note_on channel=9 note=36 velocity=127 time=0
EXTRACT: note_on channel=9 note=35 velocity=127 time=0
EXTRACT: note_on channel=9 note=28 velocity=54 time=0
EXTRACT: note_on channel=9 note=38 velocity=65 time=0
EXTRACT: note_on channel=9 note=75 velocity=61 time=0
EXTRACT: note_on channel=10 note=77 velocity=127 time=0
EXTRACT: note_on channel=10 note=73 velocity=127 time=0
EXTRACT: note_on channel=10 note=70 velocity=127 time=0
EXTRACT: note_on channel=10 note=66 velocity=127 time=0
EXTRACT: note_off channel=9 note=62 velocity=127 time=0.0010416666666666667
EXTRACT: note_off channel=9 note=75 velocity=61 time=0.11770833333333333
EXTRACT: note_off channel=9 note=28 velocity=54 time=0.07083333333333333
EXTRACT: note_off channel=9 note=38 velocity=65 time=0.034375
EXTRACT: note_off channel=9 note=36 velocity=127 time=0.005208333333333333
EXTRACT: note_off channel=9 note=35 velocity=127 time=0
EXTRACT: note_off channel=0 note=68 velocity=127 time=0.01875
EXTRACT: note_on channel=0 note=70 velocity=85 time=0.0020833333333333333
EXTRACT: note_on channel=9 note=28 velocity=56 time=0
EXTRACT: note_on channel=9 note=75 velocity=61 time=0
EXTRACT: note_off channel=9 note=75 velocity=61 time=0.11875
EXTRACT: note_on channel=9 note=75 velocity=61 time=0.00625
EXTRACT: note_off channel=9 note=28 velocity=56 time=0.06458333333333333
EXTRACT: note_off channel=9 note=75 velocity=61 time=0.05416666666666667
EXTRACT: note_off channel=0 note=70 velocity=85 time=0.004166666666666667
EXTRACT: note_off channel=2 note=73 velocity=127 time=0
EXTRACT: note_on channel=0 note=68 velocity=85 time=0.0020833333333333333
EXTRACT: note_on channel=2 note=72 velocity=127 time=0
EXTRACT: note_on channel=9 note=37 velocity=127 time=0
EXTRACT: note_on channel=9 note=42 velocity=127 time=0
EXTRACT: note_on channel=9 note=28 velocity=52 time=0
EXTRACT: note_on channel=9 note=75 velocity=61 time=0
EXTRACT: note_on channel=9 note=62 velocity=127 time=0
EXTRACT: note_off channel=9 note=75 velocity=61 time=0.11875
EXTRACT: note_off channel=9 note=28 velocity=52 time=0.07083333333333333
EXTRACT: note_off channel=9 note=37 velocity=127 time=0.03958333333333333
EXTRACT: note_off channel=9 note=42 velocity=127 time=0
EXTRACT: note_off channel=0 note=68 velocity=85 time=0.01875
EXTRACT: note_on channel=1 note=58 velocity=127 time=0.0020833333333333333
EXTRACT: note_on channel=1 note=46 velocity=127 time=0
EXTRACT: note_on channel=9 note=36 velocity=127 time=0
EXTRACT: note_on channel=9 note=35 velocity=127 time=0
EXTRACT: note_on channel=9 note=28 velocity=52 time=0
EXTRACT: note_on channel=9 note=38 velocity=67 time=0
EXTRACT: note_on channel=9 note=75 velocity=61 time=0
EXTRACT: note_off channel=9 note=62 velocity=127 time=0.0010416666666666667
EXTRACT: note_off channel=9 note=75 velocity=61 time=0.11770833333333333
EXTRACT: note_off channel=9 note=28 velocity=52 time=0.07083333333333333
EXTRACT: note_off channel=9 note=38 velocity=67 time=0.034375
EXTRACT: note_off channel=9 note=36 velocity=127 time=0.005208333333333333
EXTRACT: note_off channel=9 note=35 velocity=127 time=0
EXTRACT: note_off channel=1 note=58 velocity=127 time=0.01875
EXTRACT: note_off channel=1 note=46 velocity=127 time=0
EXTRACT: note_off channel=2 note=72 velocity=127 time=0
EXTRACT: note_on channel=1 note=61 velocity=127 time=0.0020833333333333333
EXTRACT: note_on channel=1 note=49 velocity=127 time=0
EXTRACT: note_on channel=2 note=70 velocity=127 time=0
EXTRACT: note_on channel=9 note=28 velocity=52 time=0
EXTRACT: note_off channel=9 note=28 velocity=52 time=0.18958333333333333
EXTRACT: note_off channel=1 note=61 velocity=127 time=0.058333333333333334
EXTRACT: note_off channel=1 note=49 velocity=127 time=0
EXTRACT: note_on channel=1 note=61 velocity=127 time=0.0020833333333333333
EXTRACT: note_on channel=1 note=49 velocity=127 time=0
EXTRACT: note_on channel=9 note=36 velocity=127 time=0
EXTRACT: note_on channel=9 note=35 velocity=127 time=0
EXTRACT: note_on channel=9 note=28 velocity=52 time=0
EXTRACT: note_on channel=9 note=43 velocity=43 time=0
EXTRACT: note_on channel=9 note=38 velocity=67 time=0
EXTRACT: note_on channel=9 note=75 velocity=56 time=0
EXTRACT: note_off channel=9 note=43 velocity=43 time=0.096875
EXTRACT: note_off channel=9 note=75 velocity=56 time=0.021875
EXTRACT: note_on channel=9 note=41 velocity=43 time=0.00625
EXTRACT: note_off channel=9 note=28 velocity=52 time=0.06458333333333333
EXTRACT: note_off channel=9 note=41 velocity=43 time=0.03229166666666666
EXTRACT: note_off channel=9 note=38 velocity=67 time=0.0020833333333333333
EXTRACT: note_off channel=9 note=36 velocity=127 time=0.005208333333333333
EXTRACT: note_off channel=9 note=35 velocity=127 time=0
EXTRACT: note_off channel=1 note=61 velocity=127 time=0.01875
EXTRACT: note_off channel=1 note=49 velocity=127 time=0
EXTRACT: note_off channel=2 note=70 velocity=127 time=0
EXTRACT: note_off channel=3 note=30 velocity=127 time=0
EXTRACT: note_off channel=4 note=30 velocity=127 time=0
EXTRACT: note_off channel=4 note=42 velocity=127 time=0
EXTRACT: note_on channel=1 note=65 velocity=127 time=0.0020833333333333333
EXTRACT: note_on channel=1 note=53 velocity=127 time=0
EXTRACT: note_on channel=2 note=68 velocity=127 time=0
EXTRACT: note_on channel=9 note=37 velocity=127 time=0
EXTRACT: note_on channel=9 note=42 velocity=127 time=0
EXTRACT: note_on channel=9 note=28 velocity=52 time=0
EXTRACT: note_on channel=9 note=62 velocity=127 time=0
EXTRACT: note_on channel=9 note=36 velocity=127 time=0.125
EXTRACT: note_on channel=9 note=35 velocity=127 time=0
EXTRACT: note_on channel=9 note=38 velocity=65 time=0
EXTRACT: note_off channel=9 note=28 velocity=52 time=0.06458333333333333
EXTRACT: note_off channel=9 note=37 velocity=127 time=0.03958333333333333
EXTRACT: note_off channel=9 note=42 velocity=127 time=0
EXTRACT: note_off channel=1 note=65 velocity=127 time=0.01875
EXTRACT: note_off channel=1 note=53 velocity=127 time=0
EXTRACT: note_on channel=1 note=63 velocity=127 time=0.0020833333333333333
EXTRACT: note_on channel=1 note=66 velocity=127 time=0
EXTRACT: note_on channel=1 note=51 velocity=127 time=0
EXTRACT: note_on channel=3 note=30 velocity=97 time=0
EXTRACT: note_on channel=4 note=30 velocity=97 time=0
EXTRACT: note_on channel=4 note=42 velocity=97 time=0
EXTRACT: note_on channel=9 note=37 velocity=127 time=0
EXTRACT: note_on channel=9 note=42 velocity=127 time=0
EXTRACT: note_on channel=9 note=28 velocity=54 time=0
EXTRACT: note_on channel=9 note=75 velocity=60 time=0
EXTRACT: note_on channel=9 note=62 velocity=127 time=0
EXTRACT: note_off channel=9 note=62 velocity=127 time=0.0010416666666666667
EXTRACT: note_off channel=9 note=38 velocity=65 time=0.09791666666666667
EXTRACT: note_off channel=9 note=36 velocity=127 time=0.005208333333333333
EXTRACT: note_off channel=9 note=35 velocity=127 time=0
EXTRACT: note_off channel=9 note=75 velocity=60 time=0.014583333333333334
EXTRACT: note_off channel=3 note=30 velocity=97 time=0.004166666666666667
EXTRACT: note_off channel=4 note=30 velocity=97 time=0
EXTRACT: note_off channel=4 note=42 velocity=97 time=0
EXTRACT: note_on channel=3 note=32 velocity=97 time=0.0020833333333333333
EXTRACT: note_on channel=4 note=32 velocity=97 time=0
EXTRACT: note_on channel=4 note=44 velocity=97 time=0
EXTRACT: note_on channel=9 note=75 velocity=58 time=0
EXTRACT: note_off channel=9 note=28 velocity=54 time=0.06458333333333333
EXTRACT: note_off channel=9 note=37 velocity=127 time=0.03958333333333333
EXTRACT: note_off channel=9 note=42 velocity=127 time=0
EXTRACT: note_off channel=9 note=75 velocity=58 time=0.014583333333333334
EXTRACT: note_off channel=2 note=73 velocity=58 time=0.004166666666666667
EXTRACT: note_off channel=2 note=70 velocity=58 time=0
EXTRACT: note_off channel=2 note=66 velocity=58 time=0
EXTRACT: note_off channel=2 note=65 velocity=127 time=0
EXTRACT: note_off channel=2 note=68 velocity=127 time=0
EXTRACT: note_off channel=3 note=32 velocity=97 time=0
EXTRACT: note_off channel=4 note=32 velocity=97 time=0
EXTRACT: note_off channel=4 note=44 velocity=97 time=0
EXTRACT: note_off channel=6 note=66 velocity=127 time=0
EXTRACT: note_off channel=6 note=70 velocity=127 time=0
EXTRACT: note_off channel=6 note=73 velocity=127 time=0
EXTRACT: note_off channel=6 note=77 velocity=127 time=0
EXTRACT: note_off channel=10 note=77 velocity=127 time=0
EXTRACT: note_off channel=10 note=73 velocity=127 time=0
EXTRACT: note_off channel=10 note=70 velocity=127 time=0
EXTRACT: note_off channel=10 note=66 velocity=127 time=0
EXTRACT: note_on channel=2 note=70 velocity=58 time=0.0020833333333333333
EXTRACT: note_on channel=2 note=66 velocity=58 time=0
EXTRACT: note_on channel=2 note=63 velocity=127 time=0
EXTRACT: note_on channel=3 note=27 velocity=127 time=0
EXTRACT: note_on channel=4 note=27 velocity=127 time=0
EXTRACT: note_on channel=4 note=39 velocity=127 time=0
EXTRACT: note_on channel=6 note=63 velocity=97 time=0
EXTRACT: note_on channel=6 note=66 velocity=97 time=0
EXTRACT: note_on channel=6 note=70 velocity=97 time=0
EXTRACT: note_on channel=9 note=28 velocity=54 time=0
EXTRACT: note_on channel=9 note=35 velocity=127 time=0
EXTRACT: note_on channel=9 note=36 velocity=127 time=0
EXTRACT: note_on channel=9 note=38 velocity=65 time=0
EXTRACT: note_on channel=9 note=75 velocity=61 time=0
EXTRACT: note_on channel=10 note=70 velocity=97 time=0
EXTRACT: note_on channel=10 note=66 velocity=97 time=0
EXTRACT: note_on channel=10 note=63 velocity=97 time=0
EXTRACT: note_off channel=9 note=62 velocity=127 time=0.0010416666666666667
EXTRACT: note_off channel=9 note=75 velocity=61 time=0.11770833333333333
EXTRACT: note_off channel=9 note=28 velocity=54 time=0.07083333333333333
EXTRACT: note_off channel=9 note=38 velocity=65 time=0.034375
EXTRACT: note_off channel=9 note=35 velocity=127 time=0.005208333333333333
EXTRACT: note_off channel=9 note=36 velocity=127 time=0
EXTRACT: note_off channel=1 note=63 velocity=60 time=0.01875
EXTRACT: note_off channel=1 note=66 velocity=60 time=0
EXTRACT: note_off channel=1 note=51 velocity=60 time=0
EXTRACT: note_on channel=1 note=65 velocity=127 time=0.0020833333333333333
EXTRACT: note_on channel=1 note=68 velocity=127 time=0
EXTRACT: note_on channel=1 note=53 velocity=127 time=0
EXTRACT: note_on channel=9 note=28 velocity=56 time=0
EXTRACT: note_on channel=9 note=75 velocity=61 time=0
EXTRACT: note_off channel=9 note=75 velocity=61 time=0.11875
EXTRACT: note_on channel=9 note=75 velocity=61 time=0.00625
EXTRACT: note_off channel=9 note=28 velocity=56 time=0.06458333333333333
EXTRACT: note_off channel=9 note=75 velocity=61 time=0.05416666666666667
EXTRACT: note_off channel=1 note=65 velocity=127 time=0.004166666666666667
EXTRACT: note_off channel=1 note=68 velocity=127 time=0
EXTRACT: note_off channel=1 note=53 velocity=127 time=0
EXTRACT: note_on channel=1 note=63 velocity=80 time=0.0020833333333333333
EXTRACT: note_on channel=1 note=66 velocity=80 time=0
EXTRACT: note_on channel=1 note=51 velocity=80 time=0
EXTRACT: note_on channel=9 note=28 velocity=52 time=0
EXTRACT: note_on channel=9 note=42 velocity=127 time=0
EXTRACT: note_on channel=9 note=37 velocity=127 time=0
EXTRACT: note_on channel=9 note=62 velocity=127 time=0
EXTRACT: note_on channel=9 note=75 velocity=61 time=0
EXTRACT: note_off channel=9 note=75 velocity=61 time=0.11875
EXTRACT: note_off channel=9 note=28 velocity=52 time=0.07083333333333333
EXTRACT: note_off channel=9 note=42 velocity=127 time=0.03958333333333333
EXTRACT: note_off channel=9 note=37 velocity=127 time=0
EXTRACT: note_off channel=1 note=63 velocity=80 time=0.01875
EXTRACT: note_off channel=1 note=66 velocity=80 time=0
EXTRACT: note_off channel=1 note=51 velocity=80 time=0
EXTRACT: note_on channel=1 note=61 velocity=127 time=0.0020833333333333333
EXTRACT: note_on channel=1 note=65 velocity=127 time=0
EXTRACT: note_on channel=1 note=49 velocity=127 time=0
EXTRACT: note_on channel=1 note=65 velocity=56 time=0
EXTRACT: note_on channel=1 note=68 velocity=56 time=0
EXTRACT: note_on channel=1 note=53 velocity=56 time=0
EXTRACT: note_on channel=9 note=28 velocity=52 time=0
EXTRACT: note_on channel=9 note=35 velocity=127 time=0
EXTRACT: note_on channel=9 note=36 velocity=127 time=0
EXTRACT: note_on channel=9 note=38 velocity=67 time=0
EXTRACT: note_on channel=9 note=75 velocity=61 time=0
EXTRACT: note_off channel=9 note=62 velocity=127 time=0.0010416666666666667
EXTRACT: note_off channel=9 note=75 velocity=61 time=0.11770833333333333
EXTRACT: note_off channel=9 note=28 velocity=52 time=0.07083333333333333
EXTRACT: note_off channel=9 note=38 velocity=67 time=0.034375
EXTRACT: note_off channel=9 note=35 velocity=127 time=0.005208333333333333
EXTRACT: note_off channel=9 note=36 velocity=127 time=0
EXTRACT: note_off channel=1 note=61 velocity=127 time=0.01875
EXTRACT: note_off channel=1 note=65 velocity=127 time=0
EXTRACT: note_off channel=1 note=49 velocity=127 time=0
EXTRACT: note_off channel=1 note=65 velocity=56 time=0
EXTRACT: note_off channel=1 note=68 velocity=56 time=0
EXTRACT: note_off channel=1 note=53 velocity=56 time=0
EXTRACT: note_on channel=1 note=63 velocity=127 time=0.0020833333333333333
EXTRACT: note_on channel=1 note=66 velocity=127 time=0
EXTRACT: note_on channel=1 note=51 velocity=127 time=0
EXTRACT: note_on channel=9 note=28 velocity=52 time=0
EXTRACT: note_off channel=9 note=28 velocity=52 time=0.18958333333333333
EXTRACT: note_on channel=9 note=43 velocity=43 time=0.06041666666666667
EXTRACT: note_on channel=9 note=28 velocity=52 time=0
EXTRACT: note_on channel=9 note=35 velocity=127 time=0
EXTRACT: note_on channel=9 note=36 velocity=127 time=0
EXTRACT: note_on channel=9 note=38 velocity=67 time=0
EXTRACT: note_on channel=9 note=75 velocity=56 time=0
EXTRACT: note_off channel=9 note=43 velocity=43 time=0.096875
EXTRACT: note_off channel=9 note=75 velocity=56 time=0.021875
EXTRACT: note_on channel=9 note=41 velocity=43 time=0.00625
EXTRACT: note_off channel=9 note=28 velocity=52 time=0.06458333333333333
EXTRACT: note_off channel=9 note=41 velocity=43 time=0.03229166666666666
EXTRACT: note_off channel=9 note=38 velocity=67 time=0.0020833333333333333
EXTRACT: note_off channel=9 note=35 velocity=127 time=0.005208333333333333
EXTRACT: note_off channel=9 note=36 velocity=127 time=0
EXTRACT: note_off channel=1 note=63 velocity=127 time=0.01875
EXTRACT: note_off channel=1 note=66 velocity=127 time=0
EXTRACT: note_off channel=1 note=51 velocity=127 time=0
EXTRACT: note_on channel=1 note=65 velocity=127 time=0.0020833333333333333
EXTRACT: note_on channel=1 note=68 velocity=127 time=0
EXTRACT: note_on channel=1 note=53 velocity=127 time=0
EXTRACT: note_on channel=9 note=28 velocity=52 time=0
EXTRACT: note_on channel=9 note=42 velocity=127 time=0
EXTRACT: note_on channel=9 note=37 velocity=127 time=0
EXTRACT: note_on channel=9 note=62 velocity=127 time=0
EXTRACT: note_on channel=9 note=35 velocity=127 time=0.125
EXTRACT: note_on channel=9 note=36 velocity=127 time=0
EXTRACT: note_on channel=9 note=38 velocity=65 time=0
EXTRACT: note_off channel=9 note=28 velocity=52 time=0.06458333333333333
EXTRACT: note_off channel=9 note=42 velocity=127 time=0.03958333333333333
EXTRACT: note_off channel=9 note=37 velocity=127 time=0
EXTRACT: note_off channel=1 note=65 velocity=127 time=0.01875
EXTRACT: note_off channel=1 note=68 velocity=127 time=0
EXTRACT: note_off channel=1 note=53 velocity=127 time=0
EXTRACT: note_on channel=1 note=53 velocity=127 time=0.0020833333333333333
EXTRACT: note_on channel=1 note=65 velocity=127 time=0
EXTRACT: note_on channel=1 note=68 velocity=127 time=0
EXTRACT: note_on channel=9 note=28 velocity=54 time=0
EXTRACT: note_on channel=9 note=42 velocity=127 time=0
EXTRACT: note_on channel=9 note=37 velocity=127 time=0
EXTRACT: note_on channel=9 note=62 velocity=127 time=0
EXTRACT: note_on channel=9 note=75 velocity=60 time=0
EXTRACT: note_off channel=9 note=62 velocity=127 time=0.0010416666666666667
EXTRACT: note_off channel=9 note=38 velocity=65 time=0.09791666666666667
EXTRACT: note_off channel=9 note=35 velocity=127 time=0.005208333333333333
EXTRACT: note_off channel=9 note=36 velocity=127 time=0
EXTRACT: note_off channel=9 note=75 velocity=60 time=0.014583333333333334
EXTRACT: note_on channel=9 note=75 velocity=58 time=0.00625
EXTRACT: note_off channel=9 note=28 velocity=54 time=0.06458333333333333
EXTRACT: note_off channel=9 note=42 velocity=127 time=0.03958333333333333
EXTRACT: note_off channel=9 note=37 velocity=127 time=0
EXTRACT: note_off channel=9 note=75 velocity=58 time=0.014583333333333334
EXTRACT: note_off channel=2 note=70 velocity=58 time=0.004166666666666667
EXTRACT: note_off channel=2 note=66 velocity=58 time=0
EXTRACT: note_off channel=2 note=63 velocity=127 time=0
EXTRACT: note_off channel=6 note=63 velocity=97 time=0
EXTRACT: note_off channel=6 note=66 velocity=97 time=0
EXTRACT: note_off channel=6 note=70 velocity=97 time=0
EXTRACT: note_off channel=10 note=70 velocity=97 time=0
EXTRACT: note_off channel=10 note=66 velocity=97 time=0
EXTRACT: note_off channel=10 note=63 velocity=97 time=0
EXTRACT: note_on channel=2 note=66 velocity=127 time=0.0020833333333333333
EXTRACT: note_on channel=2 note=63 velocity=127 time=0
EXTRACT: note_on channel=3 note=34 velocity=127 time=0
EXTRACT: note_on channel=4 note=34 velocity=127 time=0
EXTRACT: note_on channel=4 note=46 velocity=127 time=0
EXTRACT: note_on channel=6 note=78 velocity=127 time=0
EXTRACT: note_on channel=9 note=28 velocity=54 time=0
EXTRACT: note_on channel=9 note=35 velocity=127 time=0
EXTRACT: note_on channel=9 note=36 velocity=127 time=0
EXTRACT: note_on channel=9 note=38 velocity=65 time=0
EXTRACT: note_on channel=9 note=75 velocity=61 time=0
EXTRACT: note_on channel=10 note=78 velocity=127 time=0
EXTRACT: note_off channel=9 note=62 velocity=127 time=0.0010416666666666667
EXTRACT: note_off channel=3 note=27 velocity=127 time=0.0125
EXTRACT: note_off channel=4 note=27 velocity=127 time=0
EXTRACT: note_off channel=4 note=39 velocity=127 time=0
EXTRACT: note_off channel=9 note=75 velocity=61 time=0.10520833333333333
EXTRACT: note_off channel=9 note=28 velocity=54 time=0.07083333333333333
EXTRACT: note_off channel=1 note=53 velocity=127 time=0.011458333333333333
EXTRACT: note_off channel=1 note=65 velocity=127 time=0
EXTRACT: note_off channel=1 note=68 velocity=127 time=0
EXTRACT: note_off channel=9 note=38 velocity=65 time=0.022916666666666665
EXTRACT: note_off channel=9 note=35 velocity=127 time=0.005208333333333333
EXTRACT: note_off channel=9 note=36 velocity=127 time=0
EXTRACT: note_on channel=1 note=65 velocity=74 time=0.020833333333333332
EXTRACT: note_on channel=1 note=68 velocity=74 time=0
EXTRACT: note_on channel=1 note=53 velocity=74 time=0
EXTRACT: note_on channel=9 note=28 velocity=56 time=0
EXTRACT: note_on channel=9 note=75 velocity=61 time=0
EXTRACT: note_off channel=9 note=75 velocity=61 time=0.11875
EXTRACT: note_on channel=9 note=75 velocity=61 time=0.00625
EXTRACT: note_off channel=9 note=28 velocity=56 time=0.06458333333333333
EXTRACT: note_off channel=9 note=75 velocity=61 time=0.05416666666666667
EXTRACT: note_off channel=2 note=66 velocity=127 time=0.004166666666666667
EXTRACT: note_off channel=2 note=63 velocity=127 time=0
EXTRACT: note_off channel=6 note=78 velocity=127 time=0
EXTRACT: note_off channel=10 note=78 velocity=127 time=0
EXTRACT: note_on channel=2 note=65 velocity=127 time=0.0020833333333333333
EXTRACT: note_on channel=2 note=61 velocity=127 time=0
EXTRACT: note_on channel=6 note=70 velocity=127 time=0
EXTRACT: note_on channel=6 note=73 velocity=127 time=0
EXTRACT: note_on channel=6 note=77 velocity=127 time=0
EXTRACT: note_on channel=9 note=28 velocity=52 time=0
EXTRACT: note_on channel=9 note=42 velocity=127 time=0
EXTRACT: note_on channel=9 note=37 velocity=127 time=0
EXTRACT: note_on channel=9 note=62 velocity=127 time=0
EXTRACT: note_on channel=9 note=75 velocity=61 time=0
EXTRACT: note_on channel=10 note=77 velocity=127 time=0
EXTRACT: note_on channel=10 note=73 velocity=127 time=0
EXTRACT: note_on channel=10 note=70 velocity=127 time=0
EXTRACT: note_off channel=1 note=65 velocity=74 time=0.021875
EXTRACT: note_off channel=1 note=68 velocity=74 time=0
EXTRACT: note_off channel=1 note=53 velocity=74 time=0
EXTRACT: note_off channel=9 note=75 velocity=61 time=0.096875
EXTRACT: note_off channel=9 note=28 velocity=52 time=0.07083333333333333
EXTRACT: note_off channel=9 note=42 velocity=127 time=0.03958333333333333
EXTRACT: note_off channel=9 note=37 velocity=127 time=0
EXTRACT: note_on channel=1 note=58 velocity=127 time=0.020833333333333332
EXTRACT: note_on channel=1 note=46 velocity=127 time=0
EXTRACT: note_on channel=9 note=28 velocity=52 time=0
EXTRACT: note_on channel=9 note=35 velocity=127 time=0
EXTRACT: note_on channel=9 note=36 velocity=127 time=0
EXTRACT: note_on channel=9 note=38 velocity=67 time=0
EXTRACT: note_on channel=9 note=75 velocity=61 time=0
EXTRACT: note_off channel=9 note=62 velocity=127 time=0.0010416666666666667
EXTRACT: note_off channel=9 note=75 velocity=61 time=0.11770833333333333
EXTRACT: note_off channel=9 note=28 velocity=52 time=0.07083333333333333
EXTRACT: note_off channel=9 note=38 velocity=67 time=0.034375
EXTRACT: note_off channel=9 note=35 velocity=127 time=0.005208333333333333
EXTRACT: note_off channel=9 note=36 velocity=127 time=0
EXTRACT: note_off channel=1 note=58 velocity=127 time=0.01875
EXTRACT: note_off channel=1 note=46 velocity=127 time=0
EXTRACT: note_on channel=1 note=61 velocity=127 time=0.0020833333333333333
EXTRACT: note_on channel=1 note=49 velocity=127 time=0
EXTRACT: note_on channel=9 note=28 velocity=52 time=0
EXTRACT: note_off channel=9 note=28 velocity=52 time=0.18958333333333333
EXTRACT: note_off channel=1 note=61 velocity=127 time=0.058333333333333334
EXTRACT: note_off channel=1 note=49 velocity=127 time=0
EXTRACT: note_on channel=1 note=61 velocity=127 time=0.0020833333333333333
EXTRACT: note_on channel=1 note=49 velocity=127 time=0
EXTRACT: note_on channel=9 note=43 velocity=43 time=0
EXTRACT: note_on channel=9 note=28 velocity=52 time=0
EXTRACT: note_on channel=9 note=35 velocity=127 time=0
EXTRACT: note_on channel=9 note=36 velocity=127 time=0
EXTRACT: note_on channel=9 note=38 velocity=67 time=0
EXTRACT: note_on channel=9 note=75 velocity=56 time=0
EXTRACT: note_off channel=9 note=43 velocity=43 time=0.096875
EXTRACT: note_off channel=9 note=75 velocity=56 time=0.021875
EXTRACT: note_on channel=9 note=41 velocity=43 time=0.00625
EXTRACT: note_off channel=9 note=28 velocity=52 time=0.06458333333333333
EXTRACT: note_off channel=9 note=41 velocity=43 time=0.03229166666666666
EXTRACT: note_off channel=9 note=38 velocity=67 time=0.0020833333333333333
EXTRACT: note_off channel=9 note=35 velocity=127 time=0.005208333333333333
EXTRACT: note_off channel=9 note=36 velocity=127 time=0
EXTRACT: note_off channel=1 note=61 velocity=127 time=0.01875
EXTRACT: note_off channel=1 note=49 velocity=127 time=0
EXTRACT: note_off channel=2 note=65 velocity=127 time=0
EXTRACT: note_off channel=2 note=61 velocity=127 time=0
EXTRACT: note_off channel=3 note=34 velocity=127 time=0
EXTRACT: note_off channel=4 note=34 velocity=127 time=0
EXTRACT: note_off channel=4 note=46 velocity=127 time=0
EXTRACT: note_off channel=6 note=70 velocity=127 time=0
EXTRACT: note_off channel=6 note=73 velocity=127 time=0
EXTRACT: note_off channel=6 note=77 velocity=127 time=0
EXTRACT: note_off channel=10 note=77 velocity=127 time=0
EXTRACT: note_off channel=10 note=73 velocity=127 time=0
EXTRACT: note_off channel=10 note=70 velocity=127 time=0
EXTRACT: note_on channel=1 note=58 velocity=127 time=0.0020833333333333333
EXTRACT: note_on channel=1 note=46 velocity=127 time=0
EXTRACT: note_on channel=2 note=68 velocity=127 time=0
EXTRACT: note_on channel=6 note=73 velocity=127 time=0
EXTRACT: note_on channel=9 note=28 velocity=52 time=0
EXTRACT: note_on channel=9 note=42 velocity=127 time=0
EXTRACT: note_on channel=9 note=37 velocity=127 time=0
EXTRACT: note_on channel=9 note=62 velocity=127 time=0
EXTRACT: note_on channel=10 note=73 velocity=127 time=0
EXTRACT: note_on channel=9 note=35 velocity=127 time=0.125
EXTRACT: note_on channel=9 note=36 velocity=127 time=0
EXTRACT: note_on channel=9 note=38 velocity=65 time=0
EXTRACT: note_off channel=9 note=28 velocity=52 time=0.06458333333333333
EXTRACT: note_off channel=9 note=42 velocity=127 time=0.03958333333333333
EXTRACT: note_off channel=9 note=37 velocity=127 time=0
EXTRACT: note_off channel=1 note=58 velocity=127 time=0.01875
EXTRACT: note_off channel=1 note=46 velocity=127 time=0
EXTRACT: note_on channel=1 note=49 velocity=127 time=0.0020833333333333333
EXTRACT: note_on channel=1 note=61 velocity=127 time=0
EXTRACT: note_on channel=3 note=36 velocity=97 time=0
EXTRACT: note_on channel=4 note=36 velocity=97 time=0
EXTRACT: note_on channel=4 note=48 velocity=97 time=0
EXTRACT: note_on channel=9 note=28 velocity=54 time=0
EXTRACT: note_on channel=9 note=42 velocity=127 time=0
EXTRACT: note_on channel=9 note=37 velocity=127 time=0
EXTRACT: note_on channel=9 note=62 velocity=127 time=0
EXTRACT: note_on channel=9 note=75 velocity=60 time=0
EXTRACT: note_off channel=9 note=62 velocity=127 time=0.0010416666666666667
EXTRACT: note_off channel=9 note=38 velocity=65 time=0.09791666666666667
EXTRACT: note_off channel=9 note=35 velocity=127 time=0.005208333333333333
EXTRACT: note_off channel=9 note=36 velocity=127 time=0
EXTRACT: note_off channel=9 note=75 velocity=60 time=0.014583333333333334
EXTRACT: note_off channel=3 note=36 velocity=97 time=0.004166666666666667
EXTRACT: note_off channel=4 note=36 velocity=97 time=0
EXTRACT: note_off channel=4 note=48 velocity=97 time=0
EXTRACT: note_on channel=3 note=37 velocity=97 time=0.0020833333333333333
EXTRACT: note_on channel=4 note=37 velocity=97 time=0
EXTRACT: note_on channel=4 note=49 velocity=97 time=0
EXTRACT: note_on channel=9 note=75 velocity=58 time=0
EXTRACT: note_off channel=9 note=28 velocity=54 time=0.06458333333333333
EXTRACT: note_off channel=9 note=42 velocity=127 time=0.03958333333333333
EXTRACT: note_off channel=9 note=37 velocity=127 time=0
EXTRACT: note_off channel=9 note=75 velocity=58 time=0.014583333333333334
EXTRACT: note_off channel=2 note=68 velocity=127 time=0.004166666666666667
EXTRACT: note_off channel=3 note=37 velocity=97 time=0
EXTRACT: note_off channel=4 note=37 velocity=97 time=0
EXTRACT: note_off channel=4 note=49 velocity=97 time=0
EXTRACT: note_off channel=6 note=73 velocity=127 time=0
EXTRACT: note_off channel=10 note=73 velocity=127 time=0
EXTRACT: note_on channel=1 note=58 velocity=74 time=0.0020833333333333333
EXTRACT: note_on channel=1 note=46 velocity=74 time=0
EXTRACT: note_on channel=2 note=73 velocity=56 time=0
EXTRACT: note_on channel=2 note=70 velocity=56 time=0
EXTRACT: note_on channel=2 note=66 velocity=127 time=0
EXTRACT: note_on channel=3 note=30 velocity=127 time=0
EXTRACT: note_on channel=4 note=30 velocity=127 time=0
EXTRACT: note_on channel=4 note=42 velocity=127 time=0
EXTRACT: note_on channel=6 note=66 velocity=97 time=0
EXTRACT: note_on channel=6 note=70 velocity=97 time=0
EXTRACT: note_on channel=6 note=73 velocity=97 time=0
EXTRACT: note_on channel=9 note=28 velocity=54 time=0
EXTRACT: note_on channel=9 note=35 velocity=127 time=0
EXTRACT: note_on channel=9 note=36 velocity=127 time=0
EXTRACT: note_on channel=9 note=38 velocity=65 time=0
EXTRACT: note_on channel=9 note=75 velocity=61 time=0
EXTRACT: note_on channel=10 note=73 velocity=97 time=0
EXTRACT: note_on channel=10 note=70 velocity=97 time=0
EXTRACT: note_on channel=10 note=66 velocity=97 time=0
EXTRACT: note_off channel=9 note=62 velocity=127 time=0.0010416666666666667
EXTRACT: note_off channel=1 note=49 velocity=127 time=0.052083333333333336
EXTRACT: note_off channel=1 note=61 velocity=127 time=0
EXTRACT: note_off channel=9 note=75 velocity=61 time=0.065625
EXTRACT: note_off channel=9 note=28 velocity=54 time=0.07083333333333333
EXTRACT: note_off channel=9 note=38 velocity=65 time=0.034375
EXTRACT: note_off channel=9 note=35 velocity=127 time=0.005208333333333333
EXTRACT: note_off channel=9 note=36 velocity=127 time=0
EXTRACT: note_off channel=1 note=58 velocity=74 time=0.01875
EXTRACT: note_off channel=1 note=46 velocity=74 time=0
EXTRACT: note_on channel=1 note=61 velocity=76 time=0.0020833333333333333
EXTRACT: note_on channel=1 note=49 velocity=76 time=0
EXTRACT: note_on channel=9 note=28 velocity=56 time=0
EXTRACT: note_on channel=9 note=75 velocity=61 time=0
EXTRACT: note_off channel=9 note=75 velocity=61 time=0.11875
EXTRACT: note_on channel=9 note=75 velocity=61 time=0.00625
EXTRACT: note_off channel=9 note=28 velocity=56 time=0.06458333333333333
EXTRACT: note_off channel=9 note=75 velocity=61 time=0.05416666666666667
EXTRACT: note_on channel=1 note=61 velocity=127 time=0.00625
EXTRACT: note_on channel=1 note=49 velocity=127 time=0
EXTRACT: note_on channel=9 note=28 velocity=52 time=0
EXTRACT: note_on channel=9 note=42 velocity=127 time=0
EXTRACT: note_on channel=9 note=37 velocity=127 time=0
EXTRACT: note_on channel=9 note=62 velocity=127 time=0
EXTRACT: note_on channel=9 note=75 velocity=61 time=0
EXTRACT: note_off channel=1 note=61 velocity=76 time=0.053125
EXTRACT: note_off channel=1 note=49 velocity=76 time=0
EXTRACT: note_off channel=9 note=75 velocity=61 time=0.065625
EXTRACT: note_off channel=9 note=28 velocity=52 time=0.07083333333333333
EXTRACT: note_off channel=9 note=42 velocity=127 time=0.03958333333333333
EXTRACT: note_off channel=9 note=37 velocity=127 time=0
EXTRACT: note_off channel=1 note=61 velocity=127 time=0.01875
EXTRACT: note_off channel=1 note=49 velocity=127 time=0
EXTRACT: note_on channel=1 note=58 velocity=127 time=0.0020833333333333333
EXTRACT: note_on channel=1 note=46 velocity=127 time=0
EXTRACT: note_on channel=9 note=28 velocity=52 time=0
EXTRACT: note_on channel=9 note=35 velocity=127 time=0
EXTRACT: note_on channel=9 note=36 velocity=127 time=0
EXTRACT: note_on channel=9 note=38 velocity=67 time=0
EXTRACT: note_on channel=9 note=75 velocity=61 time=0
EXTRACT: note_off channel=9 note=62 velocity=127 time=0.0010416666666666667
EXTRACT: note_off channel=9 note=75 velocity=61 time=0.11770833333333333
EXTRACT: note_off channel=9 note=28 velocity=52 time=0.07083333333333333
EXTRACT: note_off channel=9 note=38 velocity=67 time=0.034375
EXTRACT: note_off channel=9 note=35 velocity=127 time=0.005208333333333333
EXTRACT: note_off channel=9 note=36 velocity=127 time=0
EXTRACT: note_off channel=1 note=58 velocity=127 time=0.01875
EXTRACT: note_off channel=1 note=46 velocity=127 time=0
EXTRACT: note_on channel=1 note=63 velocity=127 time=0.0020833333333333333
EXTRACT: note_on channel=1 note=51 velocity=127 time=0
EXTRACT: note_on channel=9 note=28 velocity=52 time=0
EXTRACT: note_off channel=1 note=63 velocity=127 time=0.12291666666666666
EXTRACT: note_off channel=1 note=51 velocity=127 time=0
EXTRACT: note_off channel=9 note=28 velocity=52 time=0.06666666666666667
EXTRACT: note_on channel=1 note=58 velocity=127 time=0.06041666666666667
EXTRACT: note_on channel=1 note=46 velocity=127 time=0
EXTRACT: note_on channel=9 note=43 velocity=43 time=0
EXTRACT: note_on channel=9 note=28 velocity=52 time=0
EXTRACT: note_on channel=9 note=35 velocity=127 time=0
EXTRACT: note_on channel=9 note=36 velocity=127 time=0
EXTRACT: note_on channel=9 note=38 velocity=67 time=0
EXTRACT: note_on channel=9 note=75 velocity=56 time=0
EXTRACT: note_off channel=9 note=43 velocity=43 time=0.096875
EXTRACT: note_off channel=9 note=75 velocity=56 time=0.021875
EXTRACT: note_on channel=9 note=41 velocity=43 time=0.00625
EXTRACT: note_off channel=9 note=28 velocity=52 time=0.06458333333333333
EXTRACT: note_off channel=9 note=41 velocity=43 time=0.03229166666666666
EXTRACT: note_off channel=9 note=38 velocity=67 time=0.0020833333333333333
EXTRACT: note_off channel=9 note=35 velocity=127 time=0.005208333333333333
EXTRACT: note_off channel=9 note=36 velocity=127 time=0
EXTRACT: note_off channel=1 note=58 velocity=127 time=0.01875
EXTRACT: note_off channel=1 note=46 velocity=127 time=0
EXTRACT: note_on channel=1 note=58 velocity=127 time=0.0020833333333333333
EXTRACT: note_on channel=1 note=46 velocity=127 time=0
EXTRACT: note_on channel=9 note=28 velocity=52 time=0
EXTRACT: note_on channel=9 note=42 velocity=127 time=0
EXTRACT: note_on channel=9 note=37 velocity=127 time=0
EXTRACT: note_on channel=9 note=62 velocity=127 time=0
EXTRACT: note_on channel=9 note=35 velocity=127 time=0.125
EXTRACT: note_on channel=9 note=36 velocity=127 time=0
EXTRACT: note_on channel=9 note=38 velocity=65 time=0
EXTRACT: note_off channel=9 note=28 velocity=52 time=0.06458333333333333
EXTRACT: note_off channel=9 note=42 velocity=127 time=0.03958333333333333
EXTRACT: note_off channel=9 note=37 velocity=127 time=0
EXTRACT: note_off channel=1 note=58 velocity=127 time=0.01875
EXTRACT: note_off channel=1 note=46 velocity=127 time=0
EXTRACT: note_on channel=1 note=58 velocity=127 time=0.0020833333333333333
EXTRACT: note_on channel=1 note=46 velocity=127 time=0
EXTRACT: note_on channel=9 note=28 velocity=54 time=0
EXTRACT: note_on channel=9 note=42 velocity=127 time=0
EXTRACT: note_on channel=9 note=37 velocity=127 time=0
EXTRACT: note_on channel=9 note=62 velocity=127 time=0
EXTRACT: note_on channel=9 note=75 velocity=60 time=0
EXTRACT: note_off channel=9 note=62 velocity=127 time=0.0010416666666666667
EXTRACT: note_off channel=9 note=38 velocity=65 time=0.09791666666666667
EXTRACT: note_off channel=9 note=35 velocity=127 time=0.005208333333333333
EXTRACT: note_off channel=9 note=36 velocity=127 time=0
EXTRACT: note_off channel=9 note=75 velocity=60 time=0.014583333333333334
EXTRACT: note_on channel=9 note=75 velocity=58 time=0.00625
EXTRACT: note_off channel=9 note=28 velocity=54 time=0.06458333333333333
EXTRACT: note_off channel=9 note=42 velocity=127 time=0.03958333333333333
EXTRACT: note_off channel=9 note=37 velocity=127 time=0
EXTRACT: note_off channel=9 note=75 velocity=58 time=0.014583333333333334
EXTRACT: note_off channel=1 note=58 velocity=127 time=0.004166666666666667
EXTRACT: note_off channel=1 note=46 velocity=127 time=0
EXTRACT: note_off channel=2 note=73 velocity=56 time=0
EXTRACT: note_off channel=2 note=70 velocity=56 time=0
EXTRACT: note_off channel=2 note=66 velocity=127 time=0
EXTRACT: note_off channel=3 note=30 velocity=127 time=0
EXTRACT: note_off channel=4 note=30 velocity=127 time=0
EXTRACT: note_off channel=4 note=42 velocity=127 time=0
EXTRACT: note_off channel=6 note=66 velocity=97 time=0
EXTRACT: note_off channel=6 note=70 velocity=97 time=0
EXTRACT: note_off channel=6 note=73 velocity=97 time=0
EXTRACT: note_off channel=10 note=73 velocity=97 time=0
EXTRACT: note_off channel=10 note=70 velocity=97 time=0
EXTRACT: note_off channel=10 note=66 velocity=97 time=0
EXTRACT: note_on channel=1 note=56 velocity=127 time=0.0020833333333333333
EXTRACT: note_on channel=1 note=44 velocity=127 time=0
EXTRACT: note_on channel=2 note=73 velocity=58 time=0
EXTRACT: note_on channel=2 note=70 velocity=58 time=0
EXTRACT: note_on channel=2 note=66 velocity=58 time=0
EXTRACT: note_on channel=2 note=65 velocity=127 time=0
EXTRACT: note_on channel=3 note=30 velocity=127 time=0
EXTRACT: note_on channel=4 note=30 velocity=127 time=0
EXTRACT: note_on channel=4 note=42 velocity=127 time=0
EXTRACT: note_on channel=6 note=77 velocity=127 time=0
EXTRACT: note_on channel=6 note=73 velocity=127 time=0
EXTRACT: note_on channel=6 note=70 velocity=127 time=0
EXTRACT: note_on channel=6 note=66 velocity=127 time=0
EXTRACT: note_on channel=9 note=75 velocity=61 time=0
EXTRACT: note_on channel=9 note=38 velocity=65 time=0
EXTRACT: note_on channel=9 note=28 velocity=54 time=0
EXTRACT: note_on channel=9 note=35 velocity=127 time=0
EXTRACT: note_on channel=9 note=36 velocity=127 time=0
EXTRACT: note_on channel=10 note=66 velocity=127 time=0
EXTRACT: note_on channel=10 note=70 velocity=127 time=0
EXTRACT: note_on channel=10 note=73 velocity=127 time=0
EXTRACT: note_on channel=10 note=77 velocity=127 time=0
EXTRACT: note_off channel=9 note=62 velocity=127 time=0.0010416666666666667
EXTRACT: note_off channel=9 note=75 velocity=61 time=0.11770833333333333
EXTRACT: note_off channel=9 note=28 velocity=54 time=0.07083333333333333
EXTRACT: note_off channel=9 note=38 velocity=65 time=0.034375
EXTRACT: note_off channel=9 note=35 velocity=127 time=0.005208333333333333
EXTRACT: note_off channel=9 note=36 velocity=127 time=0
EXTRACT: note_off channel=1 note=56 velocity=127 time=0.01875
EXTRACT: note_off channel=1 note=44 velocity=127 time=0
EXTRACT: note_on channel=1 note=58 velocity=74 time=0.0020833333333333333
EXTRACT: note_on channel=1 note=46 velocity=74 time=0
EXTRACT: note_on channel=9 note=75 velocity=61 time=0
EXTRACT: note_on channel=9 note=28 velocity=56 time=0
EXTRACT: note_off channel=9 note=75 velocity=61 time=0.11875
EXTRACT: note_on channel=9 note=75 velocity=61 time=0.00625
EXTRACT: note_off channel=9 note=28 velocity=56 time=0.06458333333333333
EXTRACT: note_off channel=9 note=75 velocity=61 time=0.05416666666666667
EXTRACT: note_off channel=1 note=58 velocity=74 time=0.004166666666666667
EXTRACT: note_off channel=1 note=46 velocity=74 time=0
EXTRACT: note_on channel=1 note=56 velocity=74 time=0.0020833333333333333
EXTRACT: note_on channel=1 note=44 velocity=74 time=0
EXTRACT: note_on channel=9 note=62 velocity=127 time=0
EXTRACT: note_on channel=9 note=75 velocity=61 time=0
EXTRACT: note_on channel=9 note=28 velocity=52 time=0
EXTRACT: note_on channel=9 note=42 velocity=127 time=0
EXTRACT: note_on channel=9 note=37 velocity=127 time=0
EXTRACT: note_off channel=9 note=75 velocity=61 time=0.11875
EXTRACT: note_off channel=9 note=28 velocity=52 time=0.07083333333333333
EXTRACT: note_off channel=9 note=42 velocity=127 time=0.03958333333333333
EXTRACT: note_off channel=9 note=37 velocity=127 time=0
EXTRACT: note_off channel=1 note=56 velocity=74 time=0.01875
EXTRACT: note_off channel=1 note=44 velocity=74 time=0
EXTRACT: note_on channel=0 note=70 velocity=127 time=0.0020833333333333333
EXTRACT: note_on channel=9 note=75 velocity=61 time=0
EXTRACT: note_on channel=9 note=38 velocity=67 time=0
EXTRACT: note_on channel=9 note=28 velocity=52 time=0
EXTRACT: note_on channel=9 note=35 velocity=127 time=0
EXTRACT: note_on channel=9 note=36 velocity=127 time=0
EXTRACT: note_off channel=9 note=62 velocity=127 time=0.0010416666666666667
EXTRACT: note_off channel=9 note=75 velocity=61 time=0.11770833333333333
EXTRACT: note_off channel=9 note=28 velocity=52 time=0.07083333333333333
EXTRACT: note_off channel=9 note=38 velocity=67 time=0.034375
EXTRACT: note_off channel=9 note=35 velocity=127 time=0.005208333333333333
EXTRACT: note_off channel=9 note=36 velocity=127 time=0
EXTRACT: note_off channel=0 note=70 velocity=127 time=0.01875
EXTRACT: note_on channel=0 note=66 velocity=127 time=0.0020833333333333333
EXTRACT: note_on channel=0 note=70 velocity=127 time=0
EXTRACT: note_on channel=0 note=73 velocity=127 time=0
EXTRACT: note_on channel=9 note=28 velocity=52 time=0
EXTRACT: note_off channel=9 note=28 velocity=52 time=0.18958333333333333
EXTRACT: note_off channel=0 note=66 velocity=127 time=0.058333333333333334
EXTRACT: note_off channel=0 note=70 velocity=127 time=0
EXTRACT: note_off channel=0 note=73 velocity=127 time=0
EXTRACT: note_on channel=0 note=66 velocity=127 time=0.0020833333333333333
EXTRACT: note_on channel=0 note=70 velocity=127 time=0
EXTRACT: note_on channel=0 note=73 velocity=127 time=0
EXTRACT: note_on channel=9 note=75 velocity=56 time=0
EXTRACT: note_on channel=9 note=38 velocity=67 time=0
EXTRACT: note_on channel=9 note=43 velocity=43 time=0
EXTRACT: note_on channel=9 note=28 velocity=52 time=0
EXTRACT: note_on channel=9 note=35 velocity=127 time=0
EXTRACT: note_on channel=9 note=36 velocity=127 time=0
EXTRACT: note_off channel=9 note=43 velocity=43 time=0.096875
EXTRACT: note_off channel=9 note=75 velocity=56 time=0.021875
EXTRACT: note_on channel=9 note=41 velocity=43 time=0.00625
EXTRACT: note_off channel=9 note=28 velocity=52 time=0.06458333333333333
EXTRACT: note_off channel=9 note=41 velocity=43 time=0.03229166666666666
EXTRACT: note_off channel=9 note=38 velocity=67 time=0.0020833333333333333
EXTRACT: note_off channel=9 note=35 velocity=127 time=0.005208333333333333
EXTRACT: note_off channel=9 note=36 velocity=127 time=0
EXTRACT: note_off channel=0 note=66 velocity=127 time=0.01875
EXTRACT: note_off channel=0 note=70 velocity=127 time=0
EXTRACT: note_off channel=0 note=73 velocity=127 time=0
EXTRACT: note_off channel=3 note=30 velocity=127 time=0
EXTRACT: note_off channel=4 note=30 velocity=127 time=0
EXTRACT: note_off channel=4 note=42 velocity=127 time=0
EXTRACT: note_on channel=0 note=66 velocity=127 time=0.0020833333333333333
EXTRACT: note_on channel=0 note=70 velocity=127 time=0
EXTRACT: note_on channel=0 note=73 velocity=127 time=0
EXTRACT: note_on channel=9 note=62 velocity=127 time=0
EXTRACT: note_on channel=9 note=28 velocity=52 time=0
EXTRACT: note_on channel=9 note=42 velocity=127 time=0
EXTRACT: note_on channel=9 note=37 velocity=127 time=0
EXTRACT: note_on channel=9 note=38 velocity=65 time=0.125
EXTRACT: note_on channel=9 note=35 velocity=127 time=0
EXTRACT: note_on channel=9 note=36 velocity=127 time=0
EXTRACT: note_off channel=9 note=28 velocity=52 time=0.06458333333333333
EXTRACT: note_off channel=9 note=42 velocity=127 time=0.03958333333333333
EXTRACT: note_off channel=9 note=37 velocity=127 time=0
EXTRACT: note_off channel=0 note=66 velocity=127 time=0.01875
EXTRACT: note_off channel=0 note=70 velocity=127 time=0
EXTRACT: note_off channel=0 note=73 velocity=127 time=0
EXTRACT: note_on channel=0 note=68 velocity=127 time=0.0020833333333333333
EXTRACT: note_on channel=0 note=72 velocity=127 time=0
EXTRACT: note_on channel=0 note=75 velocity=127 time=0
EXTRACT: note_on channel=3 note=30 velocity=97 time=0
EXTRACT: note_on channel=4 note=30 velocity=97 time=0
EXTRACT: note_on channel=4 note=42 velocity=97 time=0
EXTRACT: note_on channel=9 note=62 velocity=127 time=0
EXTRACT: note_on channel=9 note=75 velocity=60 time=0
EXTRACT: note_on channel=9 note=28 velocity=54 time=0
EXTRACT: note_on channel=9 note=42 velocity=127 time=0
EXTRACT: note_on channel=9 note=37 velocity=127 time=0
EXTRACT: note_off channel=9 note=62 velocity=127 time=0.0010416666666666667
EXTRACT: note_off channel=9 note=38 velocity=65 time=0.09791666666666667
EXTRACT: note_off channel=9 note=35 velocity=127 time=0.005208333333333333
EXTRACT: note_off channel=9 note=36 velocity=127 time=0
EXTRACT: note_off channel=9 note=75 velocity=60 time=0.014583333333333334
EXTRACT: note_off channel=3 note=30 velocity=97 time=0.004166666666666667
EXTRACT: note_off channel=4 note=30 velocity=97 time=0
EXTRACT: note_off channel=4 note=42 velocity=97 time=0
EXTRACT: note_on channel=3 note=32 velocity=97 time=0.0020833333333333333
EXTRACT: note_on channel=4 note=32 velocity=97 time=0
EXTRACT: note_on channel=4 note=44 velocity=97 time=0
EXTRACT: note_on channel=9 note=75 velocity=58 time=0
EXTRACT: note_off channel=9 note=28 velocity=54 time=0.06458333333333333
EXTRACT: note_off channel=9 note=42 velocity=127 time=0.03958333333333333
EXTRACT: note_off channel=9 note=37 velocity=127 time=0
EXTRACT: note_off channel=9 note=75 velocity=58 time=0.014583333333333334
EXTRACT: note_off channel=2 note=73 velocity=58 time=0.004166666666666667
EXTRACT: note_off channel=2 note=70 velocity=58 time=0
EXTRACT: note_off channel=2 note=66 velocity=58 time=0
EXTRACT: note_off channel=2 note=65 velocity=127 time=0
EXTRACT: note_off channel=3 note=32 velocity=97 time=0
EXTRACT: note_off channel=4 note=32 velocity=97 time=0
EXTRACT: note_off channel=4 note=44 velocity=97 time=0
EXTRACT: note_off channel=6 note=77 velocity=127 time=0
EXTRACT: note_off channel=6 note=73 velocity=127 time=0
EXTRACT: note_off channel=6 note=70 velocity=127 time=0
EXTRACT: note_off channel=6 note=66 velocity=127 time=0
EXTRACT: note_off channel=10 note=66 velocity=127 time=0
EXTRACT: note_off channel=10 note=70 velocity=127 time=0
EXTRACT: note_off channel=10 note=73 velocity=127 time=0
EXTRACT: note_off channel=10 note=77 velocity=127 time=0
EXTRACT: note_on channel=2 note=70 velocity=58 time=0.0020833333333333333
EXTRACT: note_on channel=2 note=66 velocity=58 time=0
EXTRACT: note_on channel=2 note=63 velocity=127 time=0
EXTRACT: note_on channel=3 note=27 velocity=127 time=0
EXTRACT: note_on channel=4 note=27 velocity=127 time=0
EXTRACT: note_on channel=4 note=39 velocity=127 time=0
EXTRACT: note_on channel=6 note=70 velocity=97 time=0
EXTRACT: note_on channel=6 note=66 velocity=97 time=0
EXTRACT: note_on channel=6 note=63 velocity=97 time=0
EXTRACT: note_on channel=9 note=75 velocity=61 time=0
EXTRACT: note_on channel=9 note=38 velocity=65 time=0
EXTRACT: note_on channel=9 note=36 velocity=127 time=0
EXTRACT: note_on channel=9 note=35 velocity=127 time=0
EXTRACT: note_on channel=9 note=28 velocity=54 time=0
EXTRACT: note_on channel=10 note=63 velocity=97 time=0
EXTRACT: note_on channel=10 note=66 velocity=97 time=0
EXTRACT: note_on channel=10 note=70 velocity=97 time=0
EXTRACT: note_off channel=9 note=62 velocity=127 time=0.0010416666666666667
EXTRACT: note_off channel=9 note=75 velocity=61 time=0.11770833333333333
EXTRACT: note_off channel=9 note=28 velocity=54 time=0.07083333333333333
EXTRACT: note_off channel=9 note=38 velocity=65 time=0.034375
EXTRACT: note_off channel=9 note=36 velocity=127 time=0.005208333333333333
EXTRACT: note_off channel=9 note=35 velocity=127 time=0
EXTRACT: note_off channel=0 note=68 velocity=60 time=0.01875
EXTRACT: note_off channel=0 note=72 velocity=60 time=0
EXTRACT: note_off channel=0 note=75 velocity=60 time=0
EXTRACT: note_on channel=0 note=70 velocity=127 time=0.0020833333333333333
EXTRACT: note_on channel=0 note=73 velocity=127 time=0
EXTRACT: note_on channel=0 note=77 velocity=127 time=0
EXTRACT: note_on channel=9 note=75 velocity=61 time=0
EXTRACT: note_on channel=9 note=28 velocity=56 time=0
EXTRACT: note_off channel=9 note=75 velocity=61 time=0.11875
EXTRACT: note_on channel=9 note=75 velocity=61 time=0.00625
EXTRACT: note_off channel=9 note=28 velocity=56 time=0.06458333333333333
EXTRACT: note_off channel=9 note=75 velocity=61 time=0.05416666666666667
EXTRACT: note_off channel=0 note=70 velocity=127 time=0.004166666666666667
EXTRACT: note_off channel=0 note=73 velocity=127 time=0
EXTRACT: note_off channel=0 note=77 velocity=127 time=0
EXTRACT: note_on channel=0 note=68 velocity=87 time=0.0020833333333333333
EXTRACT: note_on channel=0 note=72 velocity=87 time=0
EXTRACT: note_on channel=0 note=75 velocity=87 time=0
EXTRACT: note_on channel=9 note=75 velocity=61 time=0
EXTRACT: note_on channel=9 note=62 velocity=127 time=0
EXTRACT: note_on channel=9 note=37 velocity=127 time=0
EXTRACT: note_on channel=9 note=42 velocity=127 time=0
EXTRACT: note_on channel=9 note=28 velocity=52 time=0
EXTRACT: note_off channel=9 note=75 velocity=61 time=0.11875
EXTRACT: note_off channel=9 note=28 velocity=52 time=0.07083333333333333
EXTRACT: note_off channel=9 note=37 velocity=127 time=0.03958333333333333
EXTRACT: note_off channel=9 note=42 velocity=127 time=0
EXTRACT: note_off channel=0 note=68 velocity=87 time=0.01875
EXTRACT: note_off channel=0 note=72 velocity=87 time=0
EXTRACT: note_off channel=0 note=75 velocity=87 time=0
EXTRACT: note_on channel=0 note=70 velocity=87 time=0.0020833333333333333
EXTRACT: note_on channel=0 note=73 velocity=87 time=0
EXTRACT: note_on channel=0 note=77 velocity=87 time=0
EXTRACT: note_on channel=0 note=70 velocity=127 time=0
EXTRACT: note_on channel=9 note=75 velocity=61 time=0
EXTRACT: note_on channel=9 note=38 velocity=67 time=0
EXTRACT: note_on channel=9 note=36 velocity=127 time=0
EXTRACT: note_on channel=9 note=35 velocity=127 time=0
EXTRACT: note_on channel=9 note=28 velocity=52 time=0
EXTRACT: note_off channel=9 note=62 velocity=127 time=0.0010416666666666667
EXTRACT: note_off channel=9 note=75 velocity=61 time=0.11770833333333333
EXTRACT: note_off channel=9 note=28 velocity=52 time=0.07083333333333333
EXTRACT: note_off channel=9 note=38 velocity=67 time=0.034375
EXTRACT: note_off channel=9 note=36 velocity=127 time=0.005208333333333333
EXTRACT: note_off channel=9 note=35 velocity=127 time=0
EXTRACT: note_off channel=0 note=70 velocity=87 time=0.01875
EXTRACT: note_off channel=0 note=73 velocity=87 time=0
EXTRACT: note_off channel=0 note=77 velocity=87 time=0
EXTRACT: note_off channel=0 note=70 velocity=127 time=0
EXTRACT: note_on channel=0 note=66 velocity=127 time=0.0020833333333333333
EXTRACT: note_on channel=0 note=70 velocity=127 time=0
EXTRACT: note_on channel=0 note=73 velocity=127 time=0
EXTRACT: note_on channel=9 note=28 velocity=52 time=0
EXTRACT: note_off channel=9 note=28 velocity=52 time=0.18958333333333333
EXTRACT: note_off channel=0 note=66 velocity=127 time=0.058333333333333334
EXTRACT: note_off channel=0 note=70 velocity=127 time=0
EXTRACT: note_off channel=0 note=73 velocity=127 time=0
EXTRACT: note_on channel=0 note=66 velocity=127 time=0.0020833333333333333
EXTRACT: note_on channel=0 note=70 velocity=127 time=0
EXTRACT: note_on channel=0 note=73 velocity=127 time=0
EXTRACT: note_on channel=9 note=75 velocity=56 time=0
EXTRACT: note_on channel=9 note=38 velocity=67 time=0
EXTRACT: note_on channel=9 note=36 velocity=127 time=0
EXTRACT: note_on channel=9 note=35 velocity=127 time=0
EXTRACT: note_on channel=9 note=28 velocity=52 time=0
EXTRACT: note_on channel=9 note=43 velocity=43 time=0
EXTRACT: note_off channel=9 note=43 velocity=43 time=0.096875
EXTRACT: note_off channel=9 note=75 velocity=56 time=0.021875
EXTRACT: note_on channel=9 note=41 velocity=43 time=0.00625
EXTRACT: note_off channel=9 note=28 velocity=52 time=0.06458333333333333
EXTRACT: note_off channel=9 note=41 velocity=43 time=0.03229166666666666
EXTRACT: note_off channel=9 note=38 velocity=67 time=0.0020833333333333333
EXTRACT: note_off channel=9 note=36 velocity=127 time=0.005208333333333333
EXTRACT: note_off channel=9 note=35 velocity=127 time=0
EXTRACT: note_off channel=0 note=66 velocity=127 time=0.01875
EXTRACT: note_off channel=0 note=70 velocity=127 time=0
EXTRACT: note_off channel=0 note=73 velocity=127 time=0
EXTRACT: note_on channel=0 note=70 velocity=127 time=0.0020833333333333333
EXTRACT: note_on channel=9 note=62 velocity=127 time=0
EXTRACT: note_on channel=9 note=37 velocity=127 time=0
EXTRACT: note_on channel=9 note=42 velocity=127 time=0
EXTRACT: note_on channel=9 note=28 velocity=52 time=0
EXTRACT: note_on channel=9 note=38 velocity=65 time=0.125
EXTRACT: note_on channel=9 note=36 velocity=127 time=0
EXTRACT: note_on channel=9 note=35 velocity=127 time=0
EXTRACT: note_off channel=9 note=28 velocity=52 time=0.06458333333333333
EXTRACT: note_off channel=9 note=37 velocity=127 time=0.03958333333333333
EXTRACT: note_off channel=9 note=42 velocity=127 time=0
EXTRACT: note_off channel=0 note=70 velocity=127 time=0.01875
EXTRACT: note_on channel=0 note=65 velocity=127 time=0.0020833333333333333
EXTRACT: note_on channel=0 note=70 velocity=127 time=0
EXTRACT: note_on channel=0 note=73 velocity=127 time=0
EXTRACT: note_on channel=9 note=75 velocity=60 time=0
EXTRACT: note_on channel=9 note=62 velocity=127 time=0
EXTRACT: note_on channel=9 note=37 velocity=127 time=0
EXTRACT: note_on channel=9 note=42 velocity=127 time=0
EXTRACT: note_on channel=9 note=28 velocity=54 time=0
EXTRACT: note_off channel=9 note=62 velocity=127 time=0.0010416666666666667
EXTRACT: note_off channel=9 note=38 velocity=65 time=0.09791666666666667
EXTRACT: note_off channel=9 note=36 velocity=127 time=0.005208333333333333
EXTRACT: note_off channel=9 note=35 velocity=127 time=0
EXTRACT: note_off channel=9 note=75 velocity=60 time=0.014583333333333334
EXTRACT: note_on channel=9 note=75 velocity=58 time=0.00625
EXTRACT: note_off channel=9 note=28 velocity=54 time=0.06458333333333333
EXTRACT: note_off channel=9 note=37 velocity=127 time=0.03958333333333333
EXTRACT: note_off channel=9 note=42 velocity=127 time=0
EXTRACT: note_off channel=9 note=75 velocity=58 time=0.014583333333333334
EXTRACT: note_off channel=0 note=65 velocity=127 time=0.004166666666666667
EXTRACT: note_off channel=0 note=70 velocity=127 time=0
EXTRACT: note_off channel=0 note=73 velocity=127 time=0
EXTRACT: note_off channel=2 note=70 velocity=58 time=0
EXTRACT: note_off channel=2 note=66 velocity=58 time=0
EXTRACT: note_off channel=2 note=63 velocity=127 time=0
EXTRACT: note_off channel=6 note=70 velocity=97 time=0
EXTRACT: note_off channel=6 note=66 velocity=97 time=0
EXTRACT: note_off channel=6 note=63 velocity=97 time=0
EXTRACT: note_off channel=10 note=63 velocity=97 time=0
EXTRACT: note_off channel=10 note=66 velocity=97 time=0
EXTRACT: note_off channel=10 note=70 velocity=97 time=0
EXTRACT: note_on channel=0 note=70 velocity=80 time=0.0020833333333333333
EXTRACT: note_on channel=2 note=66 velocity=127 time=0
EXTRACT: note_on channel=2 note=63 velocity=127 time=0
EXTRACT: note_on channel=3 note=34 velocity=127 time=0
EXTRACT: note_on channel=4 note=34 velocity=127 time=0
EXTRACT: note_on channel=4 note=46 velocity=127 time=0
EXTRACT: note_on channel=6 note=78 velocity=127 time=0
EXTRACT: note_on channel=9 note=75 velocity=61 time=0
EXTRACT: note_on channel=9 note=38 velocity=65 time=0
EXTRACT: note_on channel=9 note=36 velocity=127 time=0
EXTRACT: note_on channel=9 note=35 velocity=127 time=0
EXTRACT: note_on channel=9 note=28 velocity=54 time=0
EXTRACT: note_on channel=10 note=78 velocity=127 time=0
EXTRACT: note_off channel=9 note=62 velocity=127 time=0.0010416666666666667
EXTRACT: note_off channel=3 note=27 velocity=127 time=0.0125
EXTRACT: note_off channel=4 note=27 velocity=127 time=0
EXTRACT: note_off channel=4 note=39 velocity=127 time=0
EXTRACT: note_off channel=9 note=75 velocity=61 time=0.10520833333333333
EXTRACT: note_off channel=9 note=28 velocity=54 time=0.07083333333333333
EXTRACT: note_off channel=9 note=38 velocity=65 time=0.034375
EXTRACT: note_off channel=9 note=36 velocity=127 time=0.005208333333333333
EXTRACT: note_off channel=9 note=35 velocity=127 time=0
EXTRACT: note_off channel=0 note=70 velocity=80 time=0.01875
EXTRACT: note_on channel=0 note=65 velocity=80 time=0.0020833333333333333
EXTRACT: note_on channel=0 note=70 velocity=80 time=0
EXTRACT: note_on channel=0 note=73 velocity=80 time=0
EXTRACT: note_on channel=0 note=68 velocity=127 time=0
EXTRACT: note_on channel=9 note=75 velocity=61 time=0
EXTRACT: note_on channel=9 note=28 velocity=56 time=0
EXTRACT: note_off channel=9 note=75 velocity=61 time=0.11875
EXTRACT: note_on channel=9 note=75 velocity=61 time=0.00625
EXTRACT: note_off channel=9 note=28 velocity=56 time=0.06458333333333333
EXTRACT: note_off channel=9 note=75 velocity=61 time=0.05416666666666667
EXTRACT: note_off channel=0 note=65 velocity=80 time=0.004166666666666667
EXTRACT: note_off channel=0 note=70 velocity=80 time=0
EXTRACT: note_off channel=0 note=73 velocity=80 time=0
EXTRACT: note_off channel=0 note=68 velocity=127 time=0
EXTRACT: note_off channel=2 note=66 velocity=127 time=0
EXTRACT: note_off channel=2 note=63 velocity=127 time=0
EXTRACT: note_off channel=6 note=78 velocity=127 time=0
EXTRACT: note_off channel=10 note=78 velocity=127 time=0
EXTRACT: note_on channel=0 note=73 velocity=127 time=0.0020833333333333333
EXTRACT: note_on channel=2 note=65 velocity=127 time=0
EXTRACT: note_on channel=2 note=61 velocity=127 time=0
EXTRACT: note_on channel=6 note=77 velocity=127 time=0
EXTRACT: note_on channel=6 note=73 velocity=127 time=0
EXTRACT: note_on channel=6 note=70 velocity=127 time=0
EXTRACT: note_on channel=9 note=75 velocity=61 time=0
EXTRACT: note_on channel=9 note=62 velocity=127 time=0
EXTRACT: note_on channel=9 note=37 velocity=127 time=0
EXTRACT: note_on channel=9 note=42 velocity=127 time=0
EXTRACT: note_on channel=9 note=28 velocity=52 time=0
EXTRACT: note_on channel=10 note=70 velocity=127 time=0
EXTRACT: note_on channel=10 note=73 velocity=127 time=0
EXTRACT: note_on channel=10 note=77 velocity=127 time=0
EXTRACT: note_off channel=9 note=75 velocity=61 time=0.11875
EXTRACT: note_off channel=9 note=28 velocity=52 time=0.07083333333333333
EXTRACT: note_off channel=9 note=37 velocity=127 time=0.03958333333333333
EXTRACT: note_off channel=9 note=42 velocity=127 time=0
EXTRACT: note_off channel=0 note=73 velocity=127 time=0.01875
EXTRACT: note_on channel=0 note=68 velocity=127 time=0.0020833333333333333
EXTRACT: note_on channel=9 note=75 velocity=61 time=0
EXTRACT: note_on channel=9 note=38 velocity=67 time=0
EXTRACT: note_on channel=9 note=36 velocity=127 time=0
EXTRACT: note_on channel=9 note=35 velocity=127 time=0
EXTRACT: note_on channel=9 note=28 velocity=52 time=0
EXTRACT: note_off channel=9 note=62 velocity=127 time=0.0010416666666666667
EXTRACT: note_off channel=9 note=75 velocity=61 time=0.11770833333333333
EXTRACT: note_off channel=9 note=28 velocity=52 time=0.07083333333333333
EXTRACT: note_off channel=9 note=38 velocity=67 time=0.034375
EXTRACT: note_off channel=9 note=36 velocity=127 time=0.005208333333333333
EXTRACT: note_off channel=9 note=35 velocity=127 time=0
EXTRACT: note_off channel=0 note=68 velocity=127 time=0.01875
EXTRACT: note_on channel=0 note=65 velocity=127 time=0.0020833333333333333
EXTRACT: note_on channel=0 note=70 velocity=127 time=0
EXTRACT: note_on channel=0 note=73 velocity=127 time=0
EXTRACT: note_on channel=9 note=28 velocity=52 time=0
EXTRACT: note_off channel=9 note=28 velocity=52 time=0.18958333333333333
EXTRACT: note_off channel=0 note=65 velocity=127 time=0.058333333333333334
EXTRACT: note_off channel=0 note=70 velocity=127 time=0
EXTRACT: note_off channel=0 note=73 velocity=127 time=0
EXTRACT: note_on channel=0 note=65 velocity=127 time=0.0020833333333333333
EXTRACT: note_on channel=0 note=70 velocity=127 time=0
EXTRACT: note_on channel=0 note=73 velocity=127 time=0
EXTRACT: note_on channel=9 note=75 velocity=56 time=0
EXTRACT: note_on channel=9 note=38 velocity=67 time=0
EXTRACT: note_on channel=9 note=36 velocity=127 time=0
EXTRACT: note_on channel=9 note=35 velocity=127 time=0
EXTRACT: note_on channel=9 note=28 velocity=52 time=0
EXTRACT: note_on channel=9 note=43 velocity=43 time=0
EXTRACT: note_off channel=9 note=43 velocity=43 time=0.096875
EXTRACT: note_off channel=9 note=75 velocity=56 time=0.021875
EXTRACT: note_on channel=9 note=41 velocity=43 time=0.00625
EXTRACT: note_off channel=9 note=28 velocity=52 time=0.06458333333333333
EXTRACT: note_off channel=9 note=41 velocity=43 time=0.03229166666666666
EXTRACT: note_off channel=9 note=38 velocity=67 time=0.0020833333333333333
EXTRACT: note_off channel=9 note=36 velocity=127 time=0.005208333333333333
EXTRACT: note_off channel=9 note=35 velocity=127 time=0
EXTRACT: note_off channel=0 note=65 velocity=127 time=0.01875
EXTRACT: note_off channel=0 note=70 velocity=127 time=0
EXTRACT: note_off channel=0 note=73 velocity=127 time=0
EXTRACT: note_off channel=2 note=65 velocity=127 time=0
EXTRACT: note_off channel=2 note=61 velocity=127 time=0
EXTRACT: note_off channel=3 note=34 velocity=127 time=0
EXTRACT: note_off channel=4 note=34 velocity=127 time=0
EXTRACT: note_off channel=4 note=46 velocity=127 time=0
EXTRACT: note_off channel=6 note=77 velocity=127 time=0
EXTRACT: note_off channel=6 note=73 velocity=127 time=0
EXTRACT: note_off channel=6 note=70 velocity=127 time=0
EXTRACT: note_off channel=10 note=70 velocity=127 time=0
EXTRACT: note_off channel=10 note=73 velocity=127 time=0
EXTRACT: note_off channel=10 note=77 velocity=127 time=0
EXTRACT: note_on channel=0 note=70 velocity=127 time=0.0020833333333333333
EXTRACT: note_on channel=2 note=68 velocity=127 time=0
EXTRACT: note_on channel=6 note=73 velocity=127 time=0
EXTRACT: note_on channel=9 note=62 velocity=127 time=0
EXTRACT: note_on channel=9 note=37 velocity=127 time=0
EXTRACT: note_on channel=9 note=42 velocity=127 time=0
EXTRACT: note_on channel=9 note=28 velocity=52 time=0
EXTRACT: note_on channel=10 note=73 velocity=127 time=0
EXTRACT: note_on channel=9 note=38 velocity=65 time=0.125
EXTRACT: note_on channel=9 note=36 velocity=127 time=0
EXTRACT: note_on channel=9 note=35 velocity=127 time=0
EXTRACT: note_off channel=9 note=28 velocity=52 time=0.06458333333333333
EXTRACT: note_off channel=9 note=37 velocity=127 time=0.03958333333333333
EXTRACT: note_off channel=9 note=42 velocity=127 time=0
EXTRACT: note_off channel=0 note=70 velocity=127 time=0.01875
EXTRACT: note_on channel=0 note=65 velocity=127 time=0.0020833333333333333
EXTRACT: note_on channel=0 note=70 velocity=127 time=0
EXTRACT: note_on channel=0 note=73 velocity=127 time=0
EXTRACT: note_on channel=3 note=36 velocity=97 time=0
EXTRACT: note_on channel=4 note=36 velocity=97 time=0
EXTRACT: note_on channel=4 note=48 velocity=97 time=0
EXTRACT: note_on channel=9 note=75 velocity=60 time=0
EXTRACT: note_on channel=9 note=62 velocity=127 time=0
EXTRACT: note_on channel=9 note=37 velocity=127 time=0
EXTRACT: note_on channel=9 note=42 velocity=127 time=0
EXTRACT: note_on channel=9 note=28 velocity=54 time=0
EXTRACT: note_off channel=9 note=62 velocity=127 time=0.0010416666666666667
EXTRACT: note_off channel=9 note=38 velocity=65 time=0.09791666666666667
EXTRACT: note_off channel=9 note=36 velocity=127 time=0.005208333333333333
EXTRACT: note_off channel=9 note=35 velocity=127 time=0
EXTRACT: note_off channel=9 note=75 velocity=60 time=0.014583333333333334
EXTRACT: note_off channel=3 note=36 velocity=97 time=0.004166666666666667
EXTRACT: note_off channel=4 note=36 velocity=97 time=0
EXTRACT: note_off channel=4 note=48 velocity=97 time=0
EXTRACT: note_on channel=3 note=37 velocity=97 time=0.0020833333333333333
EXTRACT: note_on channel=4 note=37 velocity=97 time=0
EXTRACT: note_on channel=4 note=49 velocity=97 time=0
EXTRACT: note_on channel=9 note=75 velocity=58 time=0
EXTRACT: note_off channel=9 note=28 velocity=54 time=0.06458333333333333
EXTRACT: note_off channel=9 note=37 velocity=127 time=0.03958333333333333
EXTRACT: note_off channel=9 note=42 velocity=127 time=0
EXTRACT: note_off channel=9 note=75 velocity=58 time=0.014583333333333334
EXTRACT: note_off channel=0 note=65 velocity=127 time=0.004166666666666667
EXTRACT: note_off channel=0 note=70 velocity=127 time=0
EXTRACT: note_off channel=0 note=73 velocity=127 time=0
EXTRACT: note_off channel=2 note=68 velocity=127 time=0
EXTRACT: note_off channel=3 note=37 velocity=97 time=0
EXTRACT: note_off channel=4 note=37 velocity=97 time=0
EXTRACT: note_off channel=4 note=49 velocity=97 time=0
EXTRACT: note_off channel=6 note=73 velocity=127 time=0
EXTRACT: note_off channel=10 note=73 velocity=127 time=0
EXTRACT: note_on channel=0 note=70 velocity=92 time=0.0020833333333333333
EXTRACT: note_on channel=2 note=73 velocity=56 time=0
EXTRACT: note_on channel=2 note=70 velocity=56 time=0
EXTRACT: note_on channel=2 note=66 velocity=127 time=0
EXTRACT: note_on channel=3 note=30 velocity=127 time=0
EXTRACT: note_on channel=4 note=30 velocity=127 time=0
EXTRACT: note_on channel=4 note=42 velocity=127 time=0
EXTRACT: note_on channel=6 note=73 velocity=97 time=0
EXTRACT: note_on channel=6 note=70 velocity=97 time=0
EXTRACT: note_on channel=6 note=66 velocity=97 time=0
EXTRACT: note_on channel=9 note=75 velocity=61 time=0
EXTRACT: note_on channel=9 note=38 velocity=65 time=0
EXTRACT: note_on channel=9 note=36 velocity=127 time=0
EXTRACT: note_on channel=9 note=35 velocity=127 time=0
EXTRACT: note_on channel=9 note=28 velocity=54 time=0
EXTRACT: note_on channel=10 note=66 velocity=97 time=0
EXTRACT: note_on channel=10 note=70 velocity=97 time=0
EXTRACT: note_on channel=10 note=73 velocity=97 time=0
EXTRACT: note_off channel=9 note=62 velocity=127 time=0.0010416666666666667
EXTRACT: note_off channel=9 note=75 velocity=61 time=0.11770833333333333
EXTRACT: note_off channel=9 note=28 velocity=54 time=0.07083333333333333
EXTRACT: note_off channel=9 note=38 velocity=65 time=0.034375
EXTRACT: note_off channel=9 note=36 velocity=127 time=0.005208333333333333
EXTRACT: note_off channel=9 note=35 velocity=127 time=0
EXTRACT: note_off channel=0 note=70 velocity=92 time=0.01875
EXTRACT: note_on channel=0 note=65 velocity=74 time=0.0020833333333333333
EXTRACT: note_on channel=0 note=70 velocity=74 time=0
EXTRACT: note_on channel=0 note=73 velocity=74 time=0
EXTRACT: note_on channel=0 note=70 velocity=127 time=0
EXTRACT: note_on channel=9 note=75 velocity=61 time=0
EXTRACT: note_on channel=9 note=28 velocity=56 time=0
EXTRACT: note_off channel=9 note=75 velocity=61 time=0.11875
EXTRACT: note_on channel=9 note=75 velocity=61 time=0.00625
EXTRACT: note_off channel=9 note=28 velocity=56 time=0.06458333333333333
EXTRACT: note_off channel=9 note=75 velocity=61 time=0.05416666666666667
EXTRACT: note_off channel=0 note=65 velocity=74 time=0.004166666666666667
EXTRACT: note_off channel=0 note=70 velocity=74 time=0
EXTRACT: note_off channel=0 note=73 velocity=74 time=0
EXTRACT: note_off channel=0 note=70 velocity=127 time=0
EXTRACT: note_on channel=0 note=70 velocity=127 time=0.0020833333333333333
EXTRACT: note_on channel=9 note=75 velocity=61 time=0
EXTRACT: note_on channel=9 note=62 velocity=127 time=0
EXTRACT: note_on channel=9 note=37 velocity=127 time=0
EXTRACT: note_on channel=9 note=42 velocity=127 time=0
EXTRACT: note_on channel=9 note=28 velocity=52 time=0
EXTRACT: note_off channel=9 note=75 velocity=61 time=0.11875
EXTRACT: note_off channel=9 note=28 velocity=52 time=0.07083333333333333
EXTRACT: note_off channel=9 note=37 velocity=127 time=0.03958333333333333
EXTRACT: note_off channel=9 note=42 velocity=127 time=0
EXTRACT: note_off channel=0 note=70 velocity=127 time=0.01875
EXTRACT: note_on channel=0 note=68 velocity=127 time=0.0020833333333333333
EXTRACT: note_on channel=9 note=75 velocity=61 time=0
EXTRACT: note_on channel=9 note=38 velocity=67 time=0
EXTRACT: note_on channel=9 note=36 velocity=127 time=0
EXTRACT: note_on channel=9 note=35 velocity=127 time=0
EXTRACT: note_on channel=9 note=28 velocity=52 time=0
EXTRACT: note_off channel=9 note=62 velocity=127 time=0.0010416666666666667
EXTRACT: note_off channel=9 note=75 velocity=61 time=0.11770833333333333
EXTRACT: note_off channel=9 note=28 velocity=52 time=0.07083333333333333
EXTRACT: note_off channel=9 note=38 velocity=67 time=0.034375
EXTRACT: note_off channel=9 note=36 velocity=127 time=0.005208333333333333
EXTRACT: note_off channel=9 note=35 velocity=127 time=0
EXTRACT: note_off channel=0 note=68 velocity=127 time=0.01875
EXTRACT: note_on channel=0 note=70 velocity=85 time=0.0020833333333333333
EXTRACT: note_on channel=9 note=28 velocity=52 time=0
EXTRACT: note_off channel=9 note=28 velocity=52 time=0.18958333333333333
EXTRACT: note_off channel=0 note=70 velocity=85 time=0.058333333333333334
EXTRACT: note_on channel=0 note=68 velocity=87 time=0.0020833333333333333
EXTRACT: note_on channel=9 note=75 velocity=56 time=0
EXTRACT: note_on channel=9 note=38 velocity=67 time=0
EXTRACT: note_on channel=9 note=36 velocity=127 time=0
EXTRACT: note_on channel=9 note=35 velocity=127 time=0
EXTRACT: note_on channel=9 note=28 velocity=52 time=0
EXTRACT: note_on channel=9 note=43 velocity=43 time=0
EXTRACT: note_off channel=9 note=43 velocity=43 time=0.096875
EXTRACT: note_off channel=9 note=75 velocity=56 time=0.021875
EXTRACT: note_on channel=9 note=41 velocity=43 time=0.00625
EXTRACT: note_off channel=9 note=28 velocity=52 time=0.06458333333333333
EXTRACT: note_off channel=9 note=41 velocity=43 time=0.03229166666666666
EXTRACT: note_off channel=9 note=38 velocity=67 time=0.0020833333333333333
EXTRACT: note_off channel=9 note=36 velocity=127 time=0.005208333333333333
EXTRACT: note_off channel=9 note=35 velocity=127 time=0
EXTRACT: note_off channel=0 note=68 velocity=87 time=0.01875
EXTRACT: note_on channel=9 note=62 velocity=127 time=0.0020833333333333333
EXTRACT: note_on channel=9 note=37 velocity=127 time=0
EXTRACT: note_on channel=9 note=42 velocity=127 time=0
EXTRACT: note_on channel=9 note=28 velocity=52 time=0
EXTRACT: note_on channel=9 note=38 velocity=65 time=0.125
EXTRACT: note_on channel=9 note=36 velocity=127 time=0
EXTRACT: note_on channel=9 note=35 velocity=127 time=0
EXTRACT: note_off channel=9 note=28 velocity=52 time=0.06458333333333333
EXTRACT: note_off channel=9 note=37 velocity=127 time=0.03958333333333333
EXTRACT: note_off channel=9 note=42 velocity=127 time=0
EXTRACT: note_on channel=9 note=75 velocity=60 time=0.020833333333333332
EXTRACT: note_on channel=9 note=62 velocity=127 time=0
EXTRACT: note_on channel=9 note=37 velocity=127 time=0
EXTRACT: note_on channel=9 note=42 velocity=127 time=0
EXTRACT: note_on channel=9 note=28 velocity=54 time=0
EXTRACT: note_off channel=9 note=62 velocity=127 time=0.0010416666666666667
EXTRACT: note_off channel=9 note=38 velocity=65 time=0.09791666666666667
EXTRACT: note_off channel=9 note=36 velocity=127 time=0.005208333333333333
EXTRACT: note_off channel=9 note=35 velocity=127 time=0
EXTRACT: note_off channel=9 note=75 velocity=60 time=0.014583333333333334
EXTRACT: note_on channel=9 note=75 velocity=58 time=0.00625
EXTRACT: note_off channel=9 note=28 velocity=54 time=0.06458333333333333
EXTRACT: note_off channel=9 note=37 velocity=127 time=0.03958333333333333
EXTRACT: note_off channel=9 note=42 velocity=127 time=0
EXTRACT: note_off channel=9 note=75 velocity=58 time=0.014583333333333334
EXTRACT: note_off channel=2 note=73 velocity=56 time=0.004166666666666667
EXTRACT: note_off channel=2 note=70 velocity=56 time=0
EXTRACT: note_off channel=2 note=66 velocity=127 time=0
EXTRACT: note_off channel=3 note=30 velocity=127 time=0
EXTRACT: note_off channel=4 note=30 velocity=127 time=0
EXTRACT: note_off channel=4 note=42 velocity=127 time=0
EXTRACT: note_off channel=6 note=73 velocity=97 time=0
EXTRACT: note_off channel=6 note=70 velocity=97 time=0
EXTRACT: note_off channel=6 note=66 velocity=97 time=0
EXTRACT: note_off channel=10 note=66 velocity=97 time=0
EXTRACT: note_off channel=10 note=70 velocity=97 time=0
EXTRACT: note_off channel=10 note=73 velocity=97 time=0
EXTRACT: note_on channel=0 note=61 velocity=127 time=0.0020833333333333333
EXTRACT: note_on channel=5 note=61 velocity=127 time=0
EXTRACT: note_on channel=9 note=75 velocity=61 time=0
EXTRACT: note_on channel=9 note=38 velocity=65 time=0
EXTRACT: note_on channel=9 note=28 velocity=54 time=0
EXTRACT: note_on channel=9 note=35 velocity=127 time=0
EXTRACT: note_on channel=9 note=36 velocity=127 time=0
EXTRACT: note_on channel=7 note=22 velocity=127 time=0
EXTRACT: note_on channel=8 note=61 velocity=127 time=0
EXTRACT: note_off channel=9 note=62 velocity=127 time=0.0010416666666666667
EXTRACT: note_off channel=0 note=61 velocity=127 time=0.11666666666666667
EXTRACT: note_off channel=9 note=75 velocity=61 time=0.0010416666666666667
EXTRACT: note_off channel=9 note=28 velocity=54 time=0.07083333333333333
EXTRACT: note_off channel=9 note=38 velocity=65 time=0.034375
EXTRACT: note_off channel=9 note=35 velocity=127 time=0.005208333333333333
EXTRACT: note_off channel=9 note=36 velocity=127 time=0
EXTRACT: note_off channel=5 note=61 velocity=127 time=0.01875
EXTRACT: note_off channel=8 note=61 velocity=127 time=0
EXTRACT: note_on channel=0 note=58 velocity=127 time=0.0020833333333333333
EXTRACT: note_on channel=5 note=58 velocity=127 time=0
EXTRACT: note_on channel=9 note=75 velocity=61 time=0
EXTRACT: note_on channel=9 note=28 velocity=56 time=0
EXTRACT: note_on channel=8 note=58 velocity=127 time=0
EXTRACT: note_off channel=9 note=75 velocity=61 time=0.11875
EXTRACT: note_on channel=9 note=75 velocity=61 time=0.00625
EXTRACT: note_off channel=9 note=28 velocity=56 time=0.06458333333333333
EXTRACT: note_off channel=9 note=75 velocity=61 time=0.05416666666666667
EXTRACT: note_off channel=0 note=58 velocity=127 time=0.004166666666666667
EXTRACT: note_off channel=5 note=58 velocity=127 time=0
EXTRACT: note_off channel=8 note=58 velocity=127 time=0
EXTRACT: note_on channel=0 note=61 velocity=127 time=0.0020833333333333333
EXTRACT: note_on channel=5 note=61 velocity=127 time=0
EXTRACT: note_on channel=9 note=62 velocity=127 time=0
EXTRACT: note_on channel=9 note=75 velocity=61 time=0
EXTRACT: note_on channel=9 note=28 velocity=52 time=0
EXTRACT: note_on channel=9 note=42 velocity=127 time=0
EXTRACT: note_on channel=9 note=37 velocity=127 time=0
EXTRACT: note_on channel=8 note=61 velocity=127 time=0
EXTRACT: note_off channel=7 note=22 velocity=127 time=0.015625
EXTRACT: note_off channel=9 note=75 velocity=61 time=0.103125
EXTRACT: note_off channel=9 note=28 velocity=52 time=0.07083333333333333
EXTRACT: note_off channel=9 note=42 velocity=127 time=0.03958333333333333
EXTRACT: note_off channel=9 note=37 velocity=127 time=0
EXTRACT: note_off channel=0 note=61 velocity=127 time=0.01875
EXTRACT: note_off channel=5 note=61 velocity=127 time=0
EXTRACT: note_off channel=8 note=61 velocity=127 time=0
EXTRACT: note_on channel=0 note=58 velocity=127 time=0.0020833333333333333
EXTRACT: note_on channel=5 note=58 velocity=127 time=0
EXTRACT: note_on channel=9 note=75 velocity=61 time=0
EXTRACT: note_on channel=9 note=38 velocity=67 time=0
EXTRACT: note_on channel=9 note=28 velocity=52 time=0
EXTRACT: note_on channel=9 note=35 velocity=127 time=0
EXTRACT: note_on channel=9 note=36 velocity=127 time=0
EXTRACT: note_on channel=8 note=58 velocity=127 time=0
EXTRACT: note_off channel=9 note=62 velocity=127 time=0.0010416666666666667
EXTRACT: note_off channel=9 note=75 velocity=61 time=0.11770833333333333
EXTRACT: note_off channel=9 note=28 velocity=52 time=0.07083333333333333
EXTRACT: note_off channel=9 note=38 velocity=67 time=0.034375
EXTRACT: note_off channel=9 note=35 velocity=127 time=0.005208333333333333
EXTRACT: note_off channel=9 note=36 velocity=127 time=0
EXTRACT: note_off channel=0 note=58 velocity=127 time=0.01875
EXTRACT: note_off channel=5 note=58 velocity=127 time=0
EXTRACT: note_off channel=8 note=58 velocity=127 time=0
EXTRACT: note_on channel=0 note=65 velocity=127 time=0.0020833333333333333
EXTRACT: note_on channel=5 note=65 velocity=127 time=0
EXTRACT: note_on channel=9 note=28 velocity=52 time=0
EXTRACT: note_on channel=8 note=65 velocity=127 time=0
EXTRACT: note_off channel=9 note=28 velocity=52 time=0.18958333333333333
EXTRACT: note_off channel=0 note=65 velocity=127 time=0.058333333333333334
EXTRACT: note_off channel=5 note=65 velocity=127 time=0
EXTRACT: note_off channel=8 note=65 velocity=127 time=0
EXTRACT: note_on channel=0 note=63 velocity=127 time=0.0020833333333333333
EXTRACT: note_on channel=5 note=63 velocity=127 time=0
EXTRACT: note_on channel=9 note=75 velocity=56 time=0
EXTRACT: note_on channel=9 note=38 velocity=67 time=0
EXTRACT: note_on channel=9 note=43 velocity=43 time=0
EXTRACT: note_on channel=9 note=28 velocity=52 time=0
EXTRACT: note_on channel=9 note=35 velocity=127 time=0
EXTRACT: note_on channel=9 note=36 velocity=127 time=0
EXTRACT: note_on channel=8 note=63 velocity=127 time=0
EXTRACT: note_off channel=9 note=43 velocity=43 time=0.096875
EXTRACT: note_off channel=9 note=75 velocity=56 time=0.021875
EXTRACT: note_on channel=9 note=41 velocity=43 time=0.00625
EXTRACT: note_off channel=9 note=28 velocity=52 time=0.06458333333333333
EXTRACT: note_off channel=9 note=41 velocity=43 time=0.03229166666666666
EXTRACT: note_off channel=9 note=38 velocity=67 time=0.0020833333333333333
EXTRACT: note_off channel=9 note=35 velocity=127 time=0.005208333333333333
EXTRACT: note_off channel=9 note=36 velocity=127 time=0
EXTRACT: note_off channel=0 note=63 velocity=127 time=0.01875
EXTRACT: note_off channel=5 note=63 velocity=127 time=0
EXTRACT: note_off channel=8 note=63 velocity=127 time=0
EXTRACT: note_on channel=0 note=63 velocity=127 time=0.0020833333333333333
EXTRACT: note_on channel=5 note=63 velocity=127 time=0
EXTRACT: note_on channel=9 note=62 velocity=127 time=0
EXTRACT: note_on channel=9 note=28 velocity=52 time=0
EXTRACT: note_on channel=9 note=42 velocity=127 time=0
EXTRACT: note_on channel=9 note=37 velocity=127 time=0
EXTRACT: note_on channel=8 note=63 velocity=127 time=0
EXTRACT: note_on channel=9 note=38 velocity=65 time=0.125
EXTRACT: note_on channel=9 note=35 velocity=127 time=0
EXTRACT: note_on channel=9 note=36 velocity=127 time=0
EXTRACT: note_off channel=9 note=28 velocity=52 time=0.06458333333333333
EXTRACT: note_off channel=9 note=42 velocity=127 time=0.03958333333333333
EXTRACT: note_off channel=9 note=37 velocity=127 time=0
EXTRACT: note_off channel=0 note=63 velocity=127 time=0.01875
EXTRACT: note_off channel=5 note=63 velocity=127 time=0
EXTRACT: note_off channel=8 note=63 velocity=127 time=0
EXTRACT: note_on channel=0 note=61 velocity=127 time=0.0020833333333333333
EXTRACT: note_on channel=5 note=61 velocity=127 time=0
EXTRACT: note_on channel=9 note=62 velocity=127 time=0
EXTRACT: note_on channel=9 note=75 velocity=60 time=0
EXTRACT: note_on channel=9 note=28 velocity=54 time=0
EXTRACT: note_on channel=9 note=42 velocity=127 time=0
EXTRACT: note_on channel=9 note=37 velocity=127 time=0
EXTRACT: note_on channel=8 note=61 velocity=127 time=0
EXTRACT: note_off channel=9 note=62 velocity=127 time=0.0010416666666666667
EXTRACT: note_off channel=9 note=38 velocity=65 time=0.09791666666666667
EXTRACT: note_off channel=9 note=35 velocity=127 time=0.005208333333333333
EXTRACT: note_off channel=9 note=36 velocity=127 time=0
EXTRACT: note_off channel=9 note=75 velocity=60 time=0.014583333333333334
EXTRACT: note_on channel=9 note=75 velocity=58 time=0.00625
EXTRACT: note_off channel=9 note=28 velocity=54 time=0.06458333333333333
EXTRACT: note_off channel=9 note=42 velocity=127 time=0.03958333333333333
EXTRACT: note_off channel=9 note=37 velocity=127 time=0
EXTRACT: note_off channel=9 note=75 velocity=58 time=0.014583333333333334
EXTRACT: note_off channel=0 note=61 velocity=127 time=0.004166666666666667
EXTRACT: note_off channel=5 note=61 velocity=127 time=0
EXTRACT: note_off channel=8 note=61 velocity=127 time=0
EXTRACT: note_on channel=0 note=61 velocity=127 time=0.0020833333333333333
EXTRACT: note_on channel=5 note=61 velocity=127 time=0
EXTRACT: note_on channel=9 note=75 velocity=61 time=0
EXTRACT: note_on channel=9 note=38 velocity=65 time=0
EXTRACT: note_on channel=9 note=36 velocity=127 time=0
EXTRACT: note_on channel=9 note=35 velocity=127 time=0
EXTRACT: note_on channel=9 note=28 velocity=54 time=0
EXTRACT: note_on channel=8 note=61 velocity=127 time=0
EXTRACT: note_off channel=9 note=62 velocity=127 time=0.0010416666666666667
EXTRACT: note_off channel=0 note=61 velocity=127 time=0.11666666666666667
EXTRACT: note_off channel=9 note=75 velocity=61 time=0.0010416666666666667
EXTRACT: note_off channel=9 note=28 velocity=54 time=0.07083333333333333
EXTRACT: note_off channel=9 note=38 velocity=65 time=0.034375
EXTRACT: note_off channel=9 note=36 velocity=127 time=0.005208333333333333
EXTRACT: note_off channel=9 note=35 velocity=127 time=0
EXTRACT: note_off channel=5 note=61 velocity=127 time=0.01875
EXTRACT: note_off channel=8 note=61 velocity=127 time=0
EXTRACT: note_on channel=0 note=58 velocity=127 time=0.0020833333333333333
EXTRACT: note_on channel=5 note=58 velocity=127 time=0
EXTRACT: note_on channel=9 note=75 velocity=61 time=0
EXTRACT: note_on channel=9 note=28 velocity=56 time=0
EXTRACT: note_on channel=8 note=58 velocity=127 time=0
EXTRACT: note_off channel=9 note=75 velocity=61 time=0.11875
EXTRACT: note_on channel=9 note=75 velocity=61 time=0.00625
EXTRACT: note_off channel=9 note=28 velocity=56 time=0.06458333333333333
EXTRACT: note_off channel=9 note=75 velocity=61 time=0.05416666666666667
EXTRACT: note_off channel=0 note=58 velocity=127 time=0.004166666666666667
EXTRACT: note_off channel=5 note=58 velocity=127 time=0
EXTRACT: note_off channel=8 note=58 velocity=127 time=0
EXTRACT: note_on channel=0 note=61 velocity=127 time=0.0020833333333333333
EXTRACT: note_on channel=5 note=61 velocity=127 time=0
EXTRACT: note_on channel=9 note=75 velocity=61 time=0
EXTRACT: note_on channel=9 note=62 velocity=127 time=0
EXTRACT: note_on channel=9 note=37 velocity=127 time=0
EXTRACT: note_on channel=9 note=42 velocity=127 time=0
EXTRACT: note_on channel=9 note=28 velocity=52 time=0
EXTRACT: note_on channel=8 note=61 velocity=127 time=0
EXTRACT: note_off channel=9 note=75 velocity=61 time=0.11875
EXTRACT: note_off channel=9 note=28 velocity=52 time=0.07083333333333333
EXTRACT: note_off channel=9 note=37 velocity=127 time=0.03958333333333333
EXTRACT: note_off channel=9 note=42 velocity=127 time=0
EXTRACT: note_off channel=0 note=61 velocity=127 time=0.01875
EXTRACT: note_off channel=5 note=61 velocity=127 time=0
EXTRACT: note_off channel=8 note=61 velocity=127 time=0
EXTRACT: note_on channel=0 note=58 velocity=127 time=0.0020833333333333333
EXTRACT: note_on channel=5 note=58 velocity=127 time=0
EXTRACT: note_on channel=9 note=75 velocity=61 time=0
EXTRACT: note_on channel=9 note=38 velocity=67 time=0
EXTRACT: note_on channel=9 note=36 velocity=127 time=0
EXTRACT: note_on channel=9 note=35 velocity=127 time=0
EXTRACT: note_on channel=9 note=28 velocity=52 time=0
EXTRACT: note_on channel=8 note=58 velocity=127 time=0
EXTRACT: note_off channel=9 note=62 velocity=127 time=0.0010416666666666667
EXTRACT: note_off channel=9 note=75 velocity=61 time=0.11770833333333333
EXTRACT: note_off channel=9 note=28 velocity=52 time=0.07083333333333333
EXTRACT: note_off channel=9 note=38 velocity=67 time=0.034375
EXTRACT: note_off channel=9 note=36 velocity=127 time=0.005208333333333333
EXTRACT: note_off channel=9 note=35 velocity=127 time=0
EXTRACT: note_off channel=0 note=58 velocity=127 time=0.01875
EXTRACT: note_off channel=5 note=58 velocity=127 time=0
EXTRACT: note_off channel=8 note=58 velocity=127 time=0
EXTRACT: note_on channel=0 note=65 velocity=127 time=0.0020833333333333333
EXTRACT: note_on channel=5 note=65 velocity=127 time=0
EXTRACT: note_on channel=9 note=28 velocity=52 time=0
EXTRACT: note_on channel=8 note=65 velocity=127 time=0
EXTRACT: note_off channel=9 note=28 velocity=52 time=0.18958333333333333
EXTRACT: note_off channel=0 note=65 velocity=127 time=0.058333333333333334
EXTRACT: note_off channel=5 note=65 velocity=127 time=0
EXTRACT: note_off channel=8 note=65 velocity=127 time=0
EXTRACT: note_on channel=0 note=63 velocity=127 time=0.0020833333333333333
EXTRACT: note_on channel=5 note=63 velocity=127 time=0
EXTRACT: note_on channel=9 note=75 velocity=56 time=0
EXTRACT: note_on channel=9 note=38 velocity=67 time=0
EXTRACT: note_on channel=9 note=36 velocity=127 time=0
EXTRACT: note_on channel=9 note=35 velocity=127 time=0
EXTRACT: note_on channel=9 note=28 velocity=52 time=0
EXTRACT: note_on channel=9 note=43 velocity=43 time=0
EXTRACT: note_on channel=8 note=63 velocity=127 time=0
EXTRACT: note_off channel=9 note=43 velocity=43 time=0.096875
EXTRACT: note_off channel=9 note=75 velocity=56 time=0.021875
EXTRACT: note_on channel=9 note=41 velocity=43 time=0.00625
EXTRACT: note_off channel=9 note=28 velocity=52 time=0.06458333333333333
EXTRACT: note_off channel=9 note=41 velocity=43 time=0.03229166666666666
EXTRACT: note_off channel=9 note=38 velocity=67 time=0.0020833333333333333
EXTRACT: note_off channel=9 note=36 velocity=127 time=0.005208333333333333
EXTRACT: note_off channel=9 note=35 velocity=127 time=0
EXTRACT: note_off channel=0 note=63 velocity=127 time=0.01875
EXTRACT: note_off channel=5 note=63 velocity=127 time=0
EXTRACT: note_off channel=8 note=63 velocity=127 time=0
EXTRACT: note_on channel=0 note=63 velocity=127 time=0.0020833333333333333
EXTRACT: note_on channel=5 note=63 velocity=127 time=0
EXTRACT: note_on channel=9 note=62 velocity=127 time=0
EXTRACT: note_on channel=9 note=37 velocity=127 time=0
EXTRACT: note_on channel=9 note=42 velocity=127 time=0
EXTRACT: note_on channel=9 note=28 velocity=52 time=0
EXTRACT: note_on channel=8 note=63 velocity=127 time=0
EXTRACT: note_on channel=9 note=38 velocity=65 time=0.125
EXTRACT: note_on channel=9 note=36 velocity=127 time=0
EXTRACT: note_on channel=9 note=35 velocity=127 time=0
EXTRACT: note_off channel=9 note=28 velocity=52 time=0.06458333333333333
EXTRACT: note_off channel=9 note=37 velocity=127 time=0.03958333333333333
EXTRACT: note_off channel=9 note=42 velocity=127 time=0
EXTRACT: note_off channel=0 note=63 velocity=127 time=0.01875
EXTRACT: note_off channel=5 note=63 velocity=127 time=0
EXTRACT: note_off channel=8 note=63 velocity=127 time=0
EXTRACT: note_on channel=0 note=61 velocity=127 time=0.0020833333333333333
EXTRACT: note_on channel=5 note=61 velocity=127 time=0
EXTRACT: note_on channel=9 note=75 velocity=60 time=0
EXTRACT: note_on channel=9 note=62 velocity=127 time=0
EXTRACT: note_on channel=9 note=37 velocity=127 time=0
EXTRACT: note_on channel=9 note=42 velocity=127 time=0
EXTRACT: note_on channel=9 note=28 velocity=54 time=0
EXTRACT: note_on channel=8 note=61 velocity=127 time=0
EXTRACT: note_off channel=9 note=62 velocity=127 time=0.0010416666666666667
EXTRACT: note_off channel=9 note=38 velocity=65 time=0.09791666666666667
EXTRACT: note_off channel=9 note=36 velocity=127 time=0.005208333333333333
EXTRACT: note_off channel=9 note=35 velocity=127 time=0
EXTRACT: note_off channel=9 note=75 velocity=60 time=0.014583333333333334
EXTRACT: note_on channel=9 note=75 velocity=58 time=0.00625
EXTRACT: note_off channel=9 note=28 velocity=54 time=0.06458333333333333
EXTRACT: note_off channel=9 note=37 velocity=127 time=0.03958333333333333
EXTRACT: note_off channel=9 note=42 velocity=127 time=0
EXTRACT: note_off channel=9 note=75 velocity=58 time=0.014583333333333334
EXTRACT: note_off channel=0 note=61 velocity=127 time=0.004166666666666667
EXTRACT: note_off channel=5 note=61 velocity=127 time=0
EXTRACT: note_off channel=8 note=61 velocity=127 time=0
EXTRACT: note_on channel=0 note=61 velocity=127 time=0.0020833333333333333
EXTRACT: note_on channel=5 note=61 velocity=127 time=0
EXTRACT: note_on channel=9 note=75 velocity=61 time=0
EXTRACT: note_on channel=9 note=38 velocity=65 time=0
EXTRACT: note_on channel=9 note=36 velocity=127 time=0
EXTRACT: note_on channel=9 note=35 velocity=127 time=0
EXTRACT: note_on channel=9 note=28 velocity=54 time=0
EXTRACT: note_on channel=8 note=61 velocity=127 time=0
EXTRACT: note_off channel=9 note=62 velocity=127 time=0.0010416666666666667
EXTRACT: note_off channel=0 note=61 velocity=127 time=0.11666666666666667
EXTRACT: note_off channel=9 note=75 velocity=61 time=0.0010416666666666667
EXTRACT: note_off channel=9 note=28 velocity=54 time=0.07083333333333333
EXTRACT: note_off channel=9 note=38 velocity=65 time=0.034375
EXTRACT: note_off channel=9 note=36 velocity=127 time=0.005208333333333333
EXTRACT: note_off channel=9 note=35 velocity=127 time=0
EXTRACT: note_off channel=5 note=61 velocity=127 time=0.01875
EXTRACT: note_off channel=8 note=61 velocity=127 time=0
EXTRACT: note_on channel=0 note=58 velocity=127 time=0.0020833333333333333
EXTRACT: note_on channel=5 note=58 velocity=127 time=0
EXTRACT: note_on channel=9 note=75 velocity=61 time=0
EXTRACT: note_on channel=9 note=28 velocity=56 time=0
EXTRACT: note_on channel=8 note=58 velocity=127 time=0
EXTRACT: note_off channel=9 note=75 velocity=61 time=0.11875
EXTRACT: note_on channel=9 note=75 velocity=61 time=0.00625
EXTRACT: note_off channel=9 note=28 velocity=56 time=0.06458333333333333
EXTRACT: note_off channel=9 note=75 velocity=61 time=0.05416666666666667
EXTRACT: note_off channel=0 note=58 velocity=127 time=0.004166666666666667
EXTRACT: note_off channel=5 note=58 velocity=127 time=0
EXTRACT: note_off channel=8 note=58 velocity=127 time=0
EXTRACT: note_on channel=0 note=61 velocity=127 time=0.0020833333333333333
EXTRACT: note_on channel=5 note=61 velocity=127 time=0
EXTRACT: note_on channel=9 note=75 velocity=61 time=0
EXTRACT: note_on channel=9 note=62 velocity=127 time=0
EXTRACT: note_on channel=9 note=37 velocity=127 time=0
EXTRACT: note_on channel=9 note=42 velocity=127 time=0
EXTRACT: note_on channel=9 note=28 velocity=52 time=0
EXTRACT: note_on channel=8 note=61 velocity=127 time=0
EXTRACT: note_off channel=9 note=75 velocity=61 time=0.11875
EXTRACT: note_off channel=9 note=28 velocity=52 time=0.07083333333333333
EXTRACT: note_off channel=9 note=37 velocity=127 time=0.03958333333333333
EXTRACT: note_off channel=9 note=42 velocity=127 time=0
EXTRACT: note_off channel=0 note=61 velocity=127 time=0.01875
EXTRACT: note_off channel=5 note=61 velocity=127 time=0
EXTRACT: note_off channel=8 note=61 velocity=127 time=0
EXTRACT: note_on channel=0 note=58 velocity=127 time=0.0020833333333333333
EXTRACT: note_on channel=5 note=58 velocity=127 time=0
EXTRACT: note_on channel=9 note=75 velocity=61 time=0
EXTRACT: note_on channel=9 note=38 velocity=67 time=0
EXTRACT: note_on channel=9 note=36 velocity=127 time=0
EXTRACT: note_on channel=9 note=35 velocity=127 time=0
EXTRACT: note_on channel=9 note=28 velocity=52 time=0
EXTRACT: note_on channel=8 note=58 velocity=127 time=0
EXTRACT: note_off channel=9 note=62 velocity=127 time=0.0010416666666666667
EXTRACT: note_off channel=9 note=75 velocity=61 time=0.11770833333333333
EXTRACT: note_off channel=9 note=28 velocity=52 time=0.07083333333333333
EXTRACT: note_off channel=9 note=38 velocity=67 time=0.034375
EXTRACT: note_off channel=9 note=36 velocity=127 time=0.005208333333333333
EXTRACT: note_off channel=9 note=35 velocity=127 time=0
EXTRACT: note_off channel=0 note=58 velocity=127 time=0.01875
EXTRACT: note_off channel=5 note=58 velocity=127 time=0
EXTRACT: note_off channel=8 note=58 velocity=127 time=0
EXTRACT: note_on channel=0 note=65 velocity=127 time=0.0020833333333333333
EXTRACT: note_on channel=5 note=65 velocity=127 time=0
EXTRACT: note_on channel=9 note=28 velocity=52 time=0
EXTRACT: note_on channel=8 note=65 velocity=127 time=0
EXTRACT: note_off channel=9 note=28 velocity=52 time=0.18958333333333333
EXTRACT: note_off channel=0 note=65 velocity=127 time=0.058333333333333334
EXTRACT: note_off channel=5 note=65 velocity=127 time=0
EXTRACT: note_off channel=8 note=65 velocity=127 time=0
EXTRACT: note_on channel=0 note=63 velocity=127 time=0.0020833333333333333
EXTRACT: note_on channel=5 note=63 velocity=127 time=0
EXTRACT: note_on channel=9 note=75 velocity=56 time=0
EXTRACT: note_on channel=9 note=38 velocity=67 time=0
EXTRACT: note_on channel=9 note=36 velocity=127 time=0
EXTRACT: note_on channel=9 note=35 velocity=127 time=0
EXTRACT: note_on channel=9 note=28 velocity=52 time=0
EXTRACT: note_on channel=9 note=43 velocity=43 time=0
EXTRACT: note_on channel=8 note=63 velocity=127 time=0
EXTRACT: note_off channel=9 note=43 velocity=43 time=0.096875
EXTRACT: note_off channel=9 note=75 velocity=56 time=0.021875
EXTRACT: note_on channel=9 note=41 velocity=43 time=0.00625
EXTRACT: note_off channel=9 note=28 velocity=52 time=0.06458333333333333
EXTRACT: note_off channel=9 note=41 velocity=43 time=0.03229166666666666
EXTRACT: note_off channel=9 note=38 velocity=67 time=0.0020833333333333333
EXTRACT: note_off channel=9 note=36 velocity=127 time=0.005208333333333333
EXTRACT: note_off channel=9 note=35 velocity=127 time=0
EXTRACT: note_off channel=0 note=63 velocity=127 time=0.01875
EXTRACT: note_off channel=5 note=63 velocity=127 time=0
EXTRACT: note_off channel=8 note=63 velocity=127 time=0
EXTRACT: note_on channel=0 note=63 velocity=127 time=0.0020833333333333333
EXTRACT: note_on channel=5 note=63 velocity=127 time=0
EXTRACT: note_on channel=9 note=62 velocity=127 time=0
EXTRACT: note_on channel=9 note=37 velocity=127 time=0
EXTRACT: note_on channel=9 note=42 velocity=127 time=0
EXTRACT: note_on channel=9 note=28 velocity=52 time=0
EXTRACT: note_on channel=8 note=63 velocity=127 time=0
EXTRACT: note_on channel=9 note=38 velocity=65 time=0.125
EXTRACT: note_on channel=9 note=36 velocity=127 time=0
EXTRACT: note_on channel=9 note=35 velocity=127 time=0
EXTRACT: note_off channel=9 note=28 velocity=52 time=0.06458333333333333
EXTRACT: note_off channel=9 note=37 velocity=127 time=0.03958333333333333
EXTRACT: note_off channel=9 note=42 velocity=127 time=0
EXTRACT: note_off channel=0 note=63 velocity=127 time=0.01875
EXTRACT: note_off channel=5 note=63 velocity=127 time=0
EXTRACT: note_off channel=8 note=63 velocity=127 time=0
EXTRACT: note_on channel=0 note=61 velocity=127 time=0.0020833333333333333
EXTRACT: note_on channel=5 note=61 velocity=127 time=0
EXTRACT: note_on channel=9 note=75 velocity=60 time=0
EXTRACT: note_on channel=9 note=62 velocity=127 time=0
EXTRACT: note_on channel=9 note=37 velocity=127 time=0
EXTRACT: note_on channel=9 note=42 velocity=127 time=0
EXTRACT: note_on channel=9 note=28 velocity=54 time=0
EXTRACT: note_on channel=8 note=61 velocity=127 time=0
EXTRACT: note_off channel=9 note=62 velocity=127 time=0.0010416666666666667
EXTRACT: note_off channel=9 note=38 velocity=65 time=0.09791666666666667
EXTRACT: note_off channel=9 note=36 velocity=127 time=0.005208333333333333
EXTRACT: note_off channel=9 note=35 velocity=127 time=0
EXTRACT: note_off channel=9 note=75 velocity=60 time=0.014583333333333334
EXTRACT: note_on channel=9 note=75 velocity=58 time=0.00625
EXTRACT: note_off channel=9 note=28 velocity=54 time=0.06458333333333333
EXTRACT: note_off channel=9 note=37 velocity=127 time=0.03958333333333333
EXTRACT: note_off channel=9 note=42 velocity=127 time=0
EXTRACT: note_off channel=9 note=75 velocity=58 time=0.014583333333333334
EXTRACT: note_off channel=0 note=61 velocity=127 time=0.004166666666666667
EXTRACT: note_off channel=5 note=61 velocity=127 time=0
EXTRACT: note_off channel=8 note=61 velocity=127 time=0
EXTRACT: note_on channel=0 note=61 velocity=127 time=0.0020833333333333333
EXTRACT: note_on channel=5 note=61 velocity=127 time=0
EXTRACT: note_on channel=9 note=75 velocity=61 time=0
EXTRACT: note_on channel=9 note=38 velocity=65 time=0
EXTRACT: note_on channel=9 note=36 velocity=127 time=0
EXTRACT: note_on channel=9 note=35 velocity=127 time=0
EXTRACT: note_on channel=9 note=28 velocity=54 time=0
EXTRACT: note_on channel=8 note=61 velocity=127 time=0
EXTRACT: note_off channel=9 note=62 velocity=127 time=0.0010416666666666667
EXTRACT: note_off channel=0 note=61 velocity=127 time=0.11666666666666667
EXTRACT: note_off channel=9 note=75 velocity=61 time=0.0010416666666666667
EXTRACT: note_off channel=9 note=28 velocity=54 time=0.07083333333333333
EXTRACT: note_off channel=9 note=38 velocity=65 time=0.034375
EXTRACT: note_off channel=9 note=36 velocity=127 time=0.005208333333333333
EXTRACT: note_off channel=9 note=35 velocity=127 time=0
EXTRACT: note_off channel=5 note=61 velocity=127 time=0.01875
EXTRACT: note_off channel=8 note=61 velocity=127 time=0
EXTRACT: note_on channel=0 note=58 velocity=127 time=0.0020833333333333333
EXTRACT: note_on channel=5 note=58 velocity=127 time=0
EXTRACT: note_on channel=9 note=75 velocity=61 time=0
EXTRACT: note_on channel=9 note=28 velocity=56 time=0
EXTRACT: note_on channel=8 note=58 velocity=127 time=0
EXTRACT: note_off channel=9 note=75 velocity=61 time=0.11875
EXTRACT: note_on channel=9 note=75 velocity=61 time=0.00625
EXTRACT: note_off channel=9 note=28 velocity=56 time=0.06458333333333333
EXTRACT: note_off channel=9 note=75 velocity=61 time=0.05416666666666667
EXTRACT: note_off channel=0 note=58 velocity=127 time=0.004166666666666667
EXTRACT: note_off channel=5 note=58 velocity=127 time=0
EXTRACT: note_off channel=8 note=58 velocity=127 time=0
EXTRACT: note_on channel=0 note=61 velocity=127 time=0.0020833333333333333
EXTRACT: note_on channel=5 note=61 velocity=127 time=0
EXTRACT: note_on channel=9 note=75 velocity=61 time=0
EXTRACT: note_on channel=9 note=62 velocity=127 time=0
EXTRACT: note_on channel=9 note=37 velocity=127 time=0
EXTRACT: note_on channel=9 note=42 velocity=127 time=0
EXTRACT: note_on channel=9 note=28 velocity=52 time=0
EXTRACT: note_on channel=8 note=61 velocity=127 time=0
EXTRACT: note_off channel=9 note=75 velocity=61 time=0.11875
EXTRACT: note_off channel=9 note=28 velocity=52 time=0.07083333333333333
EXTRACT: note_off channel=9 note=37 velocity=127 time=0.03958333333333333
EXTRACT: note_off channel=9 note=42 velocity=127 time=0
EXTRACT: note_off channel=0 note=61 velocity=127 time=0.01875
EXTRACT: note_off channel=5 note=61 velocity=127 time=0
EXTRACT: note_off channel=8 note=61 velocity=127 time=0
EXTRACT: note_on channel=0 note=58 velocity=127 time=0.0020833333333333333
EXTRACT: note_on channel=5 note=58 velocity=127 time=0
EXTRACT: note_on channel=9 note=75 velocity=61 time=0
EXTRACT: note_on channel=9 note=38 velocity=67 time=0
EXTRACT: note_on channel=9 note=36 velocity=127 time=0
EXTRACT: note_on channel=9 note=35 velocity=127 time=0
EXTRACT: note_on channel=9 note=28 velocity=52 time=0
EXTRACT: note_on channel=8 note=58 velocity=127 time=0
EXTRACT: note_off channel=9 note=62 velocity=127 time=0.0010416666666666667
EXTRACT: note_off channel=9 note=75 velocity=61 time=0.11770833333333333
EXTRACT: note_off channel=9 note=28 velocity=52 time=0.07083333333333333
EXTRACT: note_off channel=9 note=38 velocity=67 time=0.034375
EXTRACT: note_off channel=9 note=36 velocity=127 time=0.005208333333333333
EXTRACT: note_off channel=9 note=35 velocity=127 time=0
EXTRACT: note_off channel=0 note=58 velocity=127 time=0.01875
EXTRACT: note_off channel=5 note=58 velocity=127 time=0
EXTRACT: note_off channel=8 note=58 velocity=127 time=0
EXTRACT: note_on channel=0 note=65 velocity=127 time=0.0020833333333333333
EXTRACT: note_on channel=5 note=65 velocity=127 time=0
EXTRACT: note_on channel=9 note=28 velocity=52 time=0
EXTRACT: note_on channel=8 note=65 velocity=127 time=0
EXTRACT: note_off channel=9 note=28 velocity=52 time=0.18958333333333333
EXTRACT: note_off channel=0 note=65 velocity=127 time=0.058333333333333334
EXTRACT: note_off channel=5 note=65 velocity=127 time=0
EXTRACT: note_off channel=8 note=65 velocity=127 time=0
EXTRACT: note_on channel=0 note=63 velocity=127 time=0.0020833333333333333
EXTRACT: note_on channel=5 note=63 velocity=127 time=0
EXTRACT: note_on channel=9 note=75 velocity=56 time=0
EXTRACT: note_on channel=9 note=38 velocity=67 time=0
EXTRACT: note_on channel=9 note=36 velocity=127 time=0
EXTRACT: note_on channel=9 note=35 velocity=127 time=0
EXTRACT: note_on channel=9 note=28 velocity=52 time=0
EXTRACT: note_on channel=9 note=43 velocity=43 time=0
EXTRACT: note_on channel=8 note=63 velocity=127 time=0
EXTRACT: note_off channel=9 note=43 velocity=43 time=0.096875
EXTRACT: note_off channel=9 note=75 velocity=56 time=0.021875
EXTRACT: note_on channel=9 note=41 velocity=43 time=0.00625
EXTRACT: note_off channel=9 note=28 velocity=52 time=0.06458333333333333
EXTRACT: note_off channel=9 note=41 velocity=43 time=0.03229166666666666
EXTRACT: note_off channel=9 note=38 velocity=67 time=0.0020833333333333333
EXTRACT: note_off channel=9 note=36 velocity=127 time=0.005208333333333333
EXTRACT: note_off channel=9 note=35 velocity=127 time=0
EXTRACT: note_off channel=0 note=63 velocity=127 time=0.01875
EXTRACT: note_off channel=5 note=63 velocity=127 time=0
EXTRACT: note_off channel=8 note=63 velocity=127 time=0
EXTRACT: note_on channel=0 note=63 velocity=127 time=0.0020833333333333333
EXTRACT: note_on channel=5 note=63 velocity=127 time=0
EXTRACT: note_on channel=9 note=62 velocity=127 time=0
EXTRACT: note_on channel=9 note=37 velocity=127 time=0
EXTRACT: note_on channel=9 note=42 velocity=127 time=0
EXTRACT: note_on channel=9 note=28 velocity=52 time=0
EXTRACT: note_on channel=8 note=63 velocity=127 time=0
EXTRACT: note_on channel=9 note=38 velocity=65 time=0.125
EXTRACT: note_on channel=9 note=36 velocity=127 time=0
EXTRACT: note_on channel=9 note=35 velocity=127 time=0
EXTRACT: note_off channel=9 note=28 velocity=52 time=0.06458333333333333
EXTRACT: note_off channel=9 note=37 velocity=127 time=0.03958333333333333
EXTRACT: note_off channel=9 note=42 velocity=127 time=0
EXTRACT: note_off channel=0 note=63 velocity=127 time=0.01875
EXTRACT: note_off channel=5 note=63 velocity=127 time=0
EXTRACT: note_off channel=8 note=63 velocity=127 time=0
EXTRACT: note_on channel=0 note=61 velocity=127 time=0.0020833333333333333
EXTRACT: note_on channel=5 note=61 velocity=127 time=0
EXTRACT: note_on channel=9 note=75 velocity=60 time=0
EXTRACT: note_on channel=9 note=62 velocity=127 time=0
EXTRACT: note_on channel=9 note=37 velocity=127 time=0
EXTRACT: note_on channel=9 note=42 velocity=127 time=0
EXTRACT: note_on channel=9 note=28 velocity=54 time=0
EXTRACT: note_on channel=8 note=61 velocity=127 time=0
EXTRACT: note_off channel=9 note=62 velocity=127 time=0.0010416666666666667
EXTRACT: note_off channel=9 note=38 velocity=65 time=0.09791666666666667
EXTRACT: note_off channel=9 note=36 velocity=127 time=0.005208333333333333
EXTRACT: note_off channel=9 note=35 velocity=127 time=0
EXTRACT: note_off channel=9 note=75 velocity=60 time=0.014583333333333334
EXTRACT: note_on channel=9 note=75 velocity=58 time=0.00625
EXTRACT: note_off channel=9 note=28 velocity=54 time=0.06458333333333333
EXTRACT: note_off channel=9 note=37 velocity=127 time=0.03958333333333333
EXTRACT: note_off channel=9 note=42 velocity=127 time=0
EXTRACT: note_off channel=9 note=75 velocity=58 time=0.014583333333333334
EXTRACT: note_off channel=0 note=61 velocity=127 time=0.004166666666666667
EXTRACT: note_off channel=5 note=61 velocity=127 time=0
EXTRACT: note_off channel=8 note=61 velocity=127 time=0
EXTRACT: note_on channel=0 note=61 velocity=106 time=0.0020833333333333333
EXTRACT: note_on channel=0 note=65 velocity=106 time=0
EXTRACT: note_on channel=5 note=61 velocity=127 time=0
EXTRACT: note_on channel=9 note=75 velocity=61 time=0
EXTRACT: note_on channel=9 note=38 velocity=65 time=0
EXTRACT: note_on channel=9 note=36 velocity=127 time=0
EXTRACT: note_on channel=9 note=35 velocity=127 time=0
EXTRACT: note_on channel=9 note=28 velocity=54 time=0
EXTRACT: note_on channel=7 note=22 velocity=127 time=0
EXTRACT: note_on channel=8 note=61 velocity=127 time=0
EXTRACT: note_off channel=9 note=62 velocity=127 time=0.0010416666666666667
EXTRACT: note_off channel=9 note=75 velocity=61 time=0.11770833333333333
EXTRACT: note_off channel=9 note=28 velocity=54 time=0.07083333333333333
EXTRACT: note_off channel=9 note=38 velocity=65 time=0.034375
EXTRACT: note_off channel=9 note=36 velocity=127 time=0.005208333333333333
EXTRACT: note_off channel=9 note=35 velocity=127 time=0
EXTRACT: note_off channel=0 note=61 velocity=106 time=0.01875
EXTRACT: note_off channel=0 note=65 velocity=106 time=0
EXTRACT: note_off channel=5 note=61 velocity=127 time=0
EXTRACT: note_off channel=8 note=61 velocity=127 time=0
EXTRACT: note_on channel=0 note=58 velocity=90 time=0.0020833333333333333
EXTRACT: note_on channel=0 note=63 velocity=90 time=0
EXTRACT: note_on channel=5 note=58 velocity=127 time=0
EXTRACT: note_on channel=9 note=75 velocity=61 time=0
EXTRACT: note_on channel=9 note=28 velocity=56 time=0
EXTRACT: note_on channel=8 note=58 velocity=127 time=0
EXTRACT: note_off channel=9 note=75 velocity=61 time=0.11875
EXTRACT: note_on channel=9 note=75 velocity=61 time=0.00625
EXTRACT: note_off channel=9 note=28 velocity=56 time=0.06458333333333333
EXTRACT: note_off channel=9 note=75 velocity=61 time=0.05416666666666667
EXTRACT: note_off channel=0 note=58 velocity=90 time=0.004166666666666667
EXTRACT: note_off channel=0 note=63 velocity=90 time=0
EXTRACT: note_off channel=5 note=58 velocity=127 time=0
EXTRACT: note_off channel=8 note=58 velocity=127 time=0
EXTRACT: note_on channel=0 note=61 velocity=83 time=0.0020833333333333333
EXTRACT: note_on channel=0 note=65 velocity=83 time=0
EXTRACT: note_on channel=5 note=61 velocity=127 time=0
EXTRACT: note_on channel=9 note=75 velocity=61 time=0
EXTRACT: note_on channel=9 note=62 velocity=127 time=0
EXTRACT: note_on channel=9 note=37 velocity=127 time=0
EXTRACT: note_on channel=9 note=42 velocity=127 time=0
EXTRACT: note_on channel=9 note=28 velocity=52 time=0
EXTRACT: note_on channel=8 note=61 velocity=127 time=0
EXTRACT: note_off channel=7 note=22 velocity=127 time=0.015625
EXTRACT: note_off channel=9 note=75 velocity=61 time=0.103125
EXTRACT: note_off channel=9 note=28 velocity=52 time=0.07083333333333333
EXTRACT: note_off channel=9 note=37 velocity=127 time=0.03958333333333333
EXTRACT: note_off channel=9 note=42 velocity=127 time=0
EXTRACT: note_off channel=0 note=61 velocity=83 time=0.01875
EXTRACT: note_off channel=0 note=65 velocity=83 time=0
EXTRACT: note_off channel=5 note=61 velocity=127 time=0
EXTRACT: note_off channel=8 note=61 velocity=127 time=0
EXTRACT: note_on channel=0 note=58 velocity=74 time=0.0020833333333333333
EXTRACT: note_on channel=0 note=63 velocity=74 time=0
EXTRACT: note_on channel=5 note=58 velocity=127 time=0
EXTRACT: note_on channel=9 note=75 velocity=61 time=0
EXTRACT: note_on channel=9 note=38 velocity=67 time=0
EXTRACT: note_on channel=9 note=36 velocity=127 time=0
EXTRACT: note_on channel=9 note=35 velocity=127 time=0
EXTRACT: note_on channel=9 note=28 velocity=52 time=0
EXTRACT: note_on channel=8 note=58 velocity=127 time=0
EXTRACT: note_off channel=9 note=62 velocity=127 time=0.0010416666666666667
EXTRACT: note_off channel=9 note=75 velocity=61 time=0.11770833333333333
EXTRACT: note_off channel=9 note=28 velocity=52 time=0.07083333333333333
EXTRACT: note_off channel=9 note=38 velocity=67 time=0.034375
EXTRACT: note_off channel=9 note=36 velocity=127 time=0.005208333333333333
EXTRACT: note_off channel=9 note=35 velocity=127 time=0
EXTRACT: note_off channel=0 note=58 velocity=74 time=0.01875
EXTRACT: note_off channel=0 note=63 velocity=74 time=0
EXTRACT: note_off channel=5 note=58 velocity=127 time=0
EXTRACT: note_off channel=8 note=58 velocity=127 time=0
EXTRACT: note_on channel=0 note=61 velocity=54 time=0.0020833333333333333
EXTRACT: note_on channel=0 note=65 velocity=54 time=0
EXTRACT: note_on channel=5 note=65 velocity=127 time=0
EXTRACT: note_on channel=9 note=28 velocity=52 time=0
EXTRACT: note_on channel=8 note=65 velocity=127 time=0
EXTRACT: note_off channel=9 note=28 velocity=52 time=0.18958333333333333
EXTRACT: note_off channel=0 note=61 velocity=54 time=0.058333333333333334
EXTRACT: note_off channel=0 note=65 velocity=54 time=0
EXTRACT: note_off channel=5 note=65 velocity=127 time=0
EXTRACT: note_off channel=8 note=65 velocity=127 time=0
EXTRACT: note_on channel=0 note=58 velocity=47 time=0.0020833333333333333
EXTRACT: note_on channel=0 note=63 velocity=47 time=0
EXTRACT: note_on channel=5 note=63 velocity=127 time=0
EXTRACT: note_on channel=9 note=75 velocity=56 time=0
EXTRACT: note_on channel=9 note=38 velocity=67 time=0
EXTRACT: note_on channel=9 note=36 velocity=127 time=0
EXTRACT: note_on channel=9 note=35 velocity=127 time=0
EXTRACT: note_on channel=9 note=28 velocity=52 time=0
EXTRACT: note_on channel=9 note=43 velocity=43 time=0
EXTRACT: note_on channel=8 note=63 velocity=127 time=0
EXTRACT: note_off channel=9 note=43 velocity=43 time=0.096875
EXTRACT: note_off channel=9 note=75 velocity=56 time=0.021875
EXTRACT: note_on channel=9 note=41 velocity=43 time=0.00625
EXTRACT: note_off channel=9 note=28 velocity=52 time=0.06458333333333333
EXTRACT: note_off channel=9 note=41 velocity=43 time=0.03229166666666666
EXTRACT: note_off channel=9 note=38 velocity=67 time=0.0020833333333333333
EXTRACT: note_off channel=9 note=36 velocity=127 time=0.005208333333333333
EXTRACT: note_off channel=9 note=35 velocity=127 time=0
EXTRACT: note_off channel=0 note=58 velocity=47 time=0.01875
EXTRACT: note_off channel=0 note=63 velocity=47 time=0
EXTRACT: note_off channel=5 note=63 velocity=127 time=0
EXTRACT: note_off channel=8 note=63 velocity=127 time=0
EXTRACT: note_on channel=0 note=61 velocity=43 time=0.0020833333333333333
EXTRACT: note_on channel=0 note=65 velocity=43 time=0
EXTRACT: note_on channel=5 note=63 velocity=127 time=0
EXTRACT: note_on channel=9 note=62 velocity=127 time=0
EXTRACT: note_on channel=9 note=37 velocity=127 time=0
EXTRACT: note_on channel=9 note=42 velocity=127 time=0
EXTRACT: note_on channel=9 note=28 velocity=52 time=0
EXTRACT: note_on channel=8 note=63 velocity=127 time=0
EXTRACT: note_on channel=9 note=38 velocity=65 time=0.125
EXTRACT: note_on channel=9 note=36 velocity=127 time=0
EXTRACT: note_on channel=9 note=35 velocity=127 time=0
EXTRACT: note_off channel=9 note=28 velocity=52 time=0.06458333333333333
EXTRACT: note_off channel=9 note=37 velocity=127 time=0.03958333333333333
EXTRACT: note_off channel=9 note=42 velocity=127 time=0
EXTRACT: note_off channel=0 note=61 velocity=43 time=0.01875
EXTRACT: note_off channel=0 note=65 velocity=43 time=0
EXTRACT: note_off channel=5 note=63 velocity=127 time=0
EXTRACT: note_off channel=8 note=63 velocity=127 time=0
EXTRACT: note_on channel=0 note=58 velocity=34 time=0.0020833333333333333
EXTRACT: note_on channel=0 note=63 velocity=34 time=0
EXTRACT: note_on channel=5 note=61 velocity=127 time=0
EXTRACT: note_on channel=9 note=75 velocity=60 time=0
EXTRACT: note_on channel=9 note=62 velocity=127 time=0
EXTRACT: note_on channel=9 note=37 velocity=127 time=0
EXTRACT: note_on channel=9 note=42 velocity=127 time=0
EXTRACT: note_on channel=9 note=28 velocity=54 time=0
EXTRACT: note_on channel=8 note=61 velocity=127 time=0
EXTRACT: note_off channel=9 note=62 velocity=127 time=0.0010416666666666667
EXTRACT: note_off channel=9 note=38 velocity=65 time=0.09791666666666667
EXTRACT: note_off channel=9 note=36 velocity=127 time=0.005208333333333333
EXTRACT: note_off channel=9 note=35 velocity=127 time=0
EXTRACT: note_off channel=9 note=75 velocity=60 time=0.014583333333333334
EXTRACT: note_on channel=9 note=75 velocity=58 time=0.00625
EXTRACT: note_off channel=9 note=28 velocity=54 time=0.06458333333333333
EXTRACT: note_off channel=9 note=37 velocity=127 time=0.03958333333333333
EXTRACT: note_off channel=9 note=42 velocity=127 time=0
EXTRACT: note_off channel=9 note=75 velocity=58 time=0.014583333333333334
EXTRACT: note_off channel=0 note=58 velocity=34 time=0.004166666666666667
EXTRACT: note_off channel=0 note=63 velocity=34 time=0
EXTRACT: note_off channel=5 note=61 velocity=127 time=0
EXTRACT: note_off channel=8 note=61 velocity=127 time=0
EXTRACT: note_on channel=0 note=61 velocity=31 time=0.0020833333333333333
EXTRACT: note_on channel=0 note=65 velocity=31 time=0
EXTRACT: note_on channel=5 note=61 velocity=127 time=0
EXTRACT: note_on channel=9 note=75 velocity=61 time=0
EXTRACT: note_on channel=9 note=38 velocity=65 time=0
EXTRACT: note_on channel=9 note=28 velocity=54 time=0
EXTRACT: note_on channel=9 note=35 velocity=127 time=0
EXTRACT: note_on channel=9 note=36 velocity=127 time=0
EXTRACT: note_on channel=8 note=61 velocity=127 time=0
EXTRACT: note_off channel=9 note=62 velocity=127 time=0.0010416666666666667
EXTRACT: note_off channel=9 note=75 velocity=61 time=0.11770833333333333
EXTRACT: note_on channel=9 note=75 velocity=61 time=0.00625
EXTRACT: note_on channel=9 note=38 velocity=65 time=0
EXTRACT: note_on channel=9 note=28 velocity=54 time=0
EXTRACT: note_on channel=9 note=35 velocity=127 time=0
EXTRACT: note_on channel=9 note=36 velocity=127 time=0
EXTRACT: note_off channel=9 note=28 velocity=54 time=0.06458333333333333
EXTRACT: note_off channel=9 note=38 velocity=65 time=0.034375
EXTRACT: note_off channel=9 note=35 velocity=127 time=0.005208333333333333
EXTRACT: note_off channel=9 note=36 velocity=127 time=0
EXTRACT: note_off channel=9 note=75 velocity=61 time=0.014583333333333334
EXTRACT: note_off channel=0 note=61 velocity=31 time=0.004166666666666667
EXTRACT: note_off channel=0 note=65 velocity=31 time=0
EXTRACT: note_off channel=5 note=61 velocity=127 time=0
EXTRACT: note_off channel=8 note=61 velocity=127 time=0
EXTRACT: note_on channel=0 note=58 velocity=16 time=0.0020833333333333333
EXTRACT: note_on channel=0 note=63 velocity=16 time=0
EXTRACT: note_on channel=5 note=58 velocity=127 time=0
EXTRACT: note_on channel=9 note=75 velocity=61 time=0
EXTRACT: note_on channel=9 note=28 velocity=56 time=0
EXTRACT: note_on channel=8 note=58 velocity=127 time=0
EXTRACT: note_off channel=9 note=28 velocity=54 time=0.06458333333333333
EXTRACT: note_off channel=9 note=38 velocity=65 time=0.034375
EXTRACT: note_off channel=9 note=35 velocity=127 time=0.005208333333333333
EXTRACT: note_off channel=9 note=36 velocity=127 time=0
EXTRACT: note_off channel=9 note=75 velocity=61 time=0.014583333333333334
EXTRACT: note_on channel=9 note=75 velocity=61 time=0.00625
EXTRACT: note_on channel=9 note=28 velocity=56 time=0
EXTRACT: note_on channel=9 note=75 velocity=61 time=0
EXTRACT: note_off channel=9 note=28 velocity=56 time=0.06458333333333333
EXTRACT: note_off channel=9 note=75 velocity=61 time=0.05416666666666667
EXTRACT: note_off channel=9 note=75 velocity=61 time=0
EXTRACT: note_off channel=0 note=58 velocity=16 time=0.004166666666666667
EXTRACT: note_off channel=0 note=63 velocity=16 time=0
EXTRACT: note_off channel=5 note=58 velocity=127 time=0
EXTRACT: note_off channel=8 note=58 velocity=127 time=0
EXTRACT: note_on channel=0 note=61 velocity=11 time=0.0020833333333333333
EXTRACT: note_on channel=0 note=65 velocity=11 time=0
EXTRACT: note_on channel=5 note=61 velocity=127 time=0
EXTRACT: note_on channel=9 note=75 velocity=61 time=0
EXTRACT: note_on channel=9 note=62 velocity=127 time=0
EXTRACT: note_on channel=9 note=75 velocity=61 time=0
EXTRACT: note_on channel=9 note=28 velocity=52 time=0
EXTRACT: note_on channel=9 note=42 velocity=127 time=0
EXTRACT: note_on channel=9 note=37 velocity=127 time=0
EXTRACT: note_on channel=8 note=61 velocity=127 time=0
EXTRACT: note_off channel=9 note=28 velocity=56 time=0.06458333333333333
EXTRACT: note_off channel=9 note=75 velocity=61 time=0.05416666666666667
EXTRACT: note_off channel=9 note=75 velocity=61 time=0
EXTRACT: note_on channel=9 note=62 velocity=127 time=0.00625
EXTRACT: note_on channel=9 note=75 velocity=61 time=0
EXTRACT: note_on channel=9 note=28 velocity=52 time=0
EXTRACT: note_on channel=9 note=42 velocity=127 time=0
EXTRACT: note_on channel=9 note=37 velocity=127 time=0
EXTRACT: note_off channel=9 note=28 velocity=52 time=0.06458333333333333
EXTRACT: note_off channel=9 note=42 velocity=127 time=0.03958333333333333
EXTRACT: note_off channel=9 note=37 velocity=127 time=0
EXTRACT: note_off channel=9 note=75 velocity=61 time=0.014583333333333334
EXTRACT: note_off channel=0 note=61 velocity=11 time=0.004166666666666667
EXTRACT: note_off channel=0 note=65 velocity=11 time=0
EXTRACT: note_off channel=5 note=61 velocity=127 time=0
EXTRACT: note_off channel=8 note=61 velocity=127 time=0
EXTRACT: note_on channel=0 note=58 velocity=2 time=0.0020833333333333333
EXTRACT: note_on channel=0 note=63 velocity=2 time=0
EXTRACT: note_on channel=5 note=58 velocity=127 time=0
EXTRACT: note_on channel=9 note=75 velocity=61 time=0
EXTRACT: note_on channel=9 note=38 velocity=67 time=0
EXTRACT: note_on channel=9 note=28 velocity=52 time=0
EXTRACT: note_on channel=9 note=35 velocity=127 time=0
EXTRACT: note_on channel=9 note=36 velocity=127 time=0
EXTRACT: note_on channel=8 note=58 velocity=127 time=0
EXTRACT: note_off channel=9 note=62 velocity=127 time=0.0010416666666666667
EXTRACT: note_off channel=9 note=28 velocity=52 time=0.06354166666666666
EXTRACT: note_off channel=9 note=42 velocity=127 time=0.03958333333333333
EXTRACT: note_off channel=9 note=37 velocity=127 time=0
EXTRACT: note_off channel=9 note=75 velocity=61 time=0.014583333333333334
EXTRACT: note_on channel=9 note=75 velocity=61 time=0.00625
EXTRACT: note_on channel=9 note=38 velocity=67 time=0
EXTRACT: note_on channel=9 note=28 velocity=52 time=0
EXTRACT: note_on channel=9 note=35 velocity=127 time=0
EXTRACT: note_on channel=9 note=36 velocity=127 time=0
EXTRACT: note_off channel=9 note=62 velocity=127 time=0.0010416666666666667
EXTRACT: note_off channel=9 note=28 velocity=52 time=0.06354166666666666
EXTRACT: note_off channel=9 note=38 velocity=67 time=0.034375
EXTRACT: note_off channel=9 note=35 velocity=127 time=0.005208333333333333
EXTRACT: note_off channel=9 note=36 velocity=127 time=0
EXTRACT: note_off channel=9 note=75 velocity=61 time=0.014583333333333334
EXTRACT: note_off channel=0 note=58 velocity=2 time=0.004166666666666667
EXTRACT: note_off channel=0 note=63 velocity=2 time=0
EXTRACT: note_off channel=5 note=58 velocity=127 time=0
EXTRACT: note_off channel=8 note=58 velocity=127 time=0
EXTRACT: note_on channel=0 note=61 velocity=0 time=0.0020833333333333333
EXTRACT: note_on channel=0 note=65 velocity=0 time=0
EXTRACT: note_on channel=5 note=65 velocity=127 time=0
EXTRACT: note_on channel=9 note=28 velocity=52 time=0
EXTRACT: note_on channel=8 note=65 velocity=127 time=0
EXTRACT: note_off channel=9 note=28 velocity=52 time=0.06458333333333333
EXTRACT: note_off channel=9 note=38 velocity=67 time=0.034375
EXTRACT: note_off channel=9 note=35 velocity=127 time=0.005208333333333333
EXTRACT: note_off channel=9 note=36 velocity=127 time=0
EXTRACT: note_on channel=9 note=28 velocity=52 time=0.020833333333333332
EXTRACT: note_off channel=9 note=28 velocity=52 time=0.06458333333333333
EXTRACT: note_off channel=0 note=61 velocity=0 time=0.058333333333333334
EXTRACT: note_off channel=0 note=65 velocity=0 time=0
EXTRACT: note_off channel=5 note=65 velocity=127 time=0
EXTRACT: note_off channel=8 note=65 velocity=127 time=0
EXTRACT: note_on channel=0 note=58 velocity=0 time=0.0020833333333333333
EXTRACT: note_on channel=0 note=63 velocity=0 time=0
EXTRACT: note_on channel=5 note=63 velocity=127 time=0
EXTRACT: note_on channel=9 note=75 velocity=56 time=0
EXTRACT: note_on channel=9 note=38 velocity=67 time=0
EXTRACT: note_on channel=9 note=43 velocity=43 time=0
EXTRACT: note_on channel=9 note=28 velocity=52 time=0
EXTRACT: note_on channel=9 note=35 velocity=127 time=0
EXTRACT: note_on channel=9 note=36 velocity=127 time=0
EXTRACT: note_on channel=8 note=63 velocity=127 time=0
EXTRACT: note_off channel=9 note=28 velocity=52 time=0.06458333333333333
EXTRACT: note_off channel=9 note=43 velocity=43 time=0.03229166666666666
EXTRACT: note_off channel=9 note=75 velocity=56 time=0.021875
EXTRACT: note_on channel=9 note=75 velocity=56 time=0.00625
EXTRACT: note_on channel=9 note=38 velocity=67 time=0
EXTRACT: note_on channel=9 note=43 velocity=43 time=0
EXTRACT: note_on channel=9 note=28 velocity=52 time=0
EXTRACT: note_on channel=9 note=35 velocity=127 time=0
EXTRACT: note_on channel=9 note=36 velocity=127 time=0
EXTRACT: note_on channel=9 note=41 velocity=43 time=0
EXTRACT: note_off channel=9 note=28 velocity=52 time=0.06458333333333333
EXTRACT: note_off channel=9 note=43 velocity=43 time=0.03229166666666666
EXTRACT: note_off channel=9 note=41 velocity=43 time=0
EXTRACT: note_off channel=9 note=38 velocity=67 time=0.0020833333333333333
EXTRACT: note_off channel=9 note=35 velocity=127 time=0.005208333333333333
EXTRACT: note_off channel=9 note=36 velocity=127 time=0
EXTRACT: note_off channel=9 note=75 velocity=56 time=0.014583333333333334
EXTRACT: note_off channel=0 note=58 velocity=0 time=0.004166666666666667
EXTRACT: note_off channel=0 note=63 velocity=0 time=0
EXTRACT: note_off channel=5 note=63 velocity=127 time=0
EXTRACT: note_off channel=8 note=63 velocity=127 time=0
EXTRACT: note_on channel=0 note=61 velocity=0 time=0.0020833333333333333
EXTRACT: note_on channel=0 note=65 velocity=0 time=0
EXTRACT: note_on channel=5 note=63 velocity=127 time=0
EXTRACT: note_on channel=9 note=41 velocity=43 time=0
EXTRACT: note_on channel=9 note=62 velocity=127 time=0
EXTRACT: note_on channel=9 note=28 velocity=52 time=0
EXTRACT: note_on channel=9 note=42 velocity=127 time=0
EXTRACT: note_on channel=9 note=37 velocity=127 time=0
EXTRACT: note_on channel=8 note=63 velocity=127 time=0
EXTRACT: note_off channel=9 note=28 velocity=52 time=0.06458333333333333
EXTRACT: note_off channel=9 note=41 velocity=43 time=0.03229166666666666
EXTRACT: note_off channel=9 note=38 velocity=67 time=0.0020833333333333333
EXTRACT: note_off channel=9 note=35 velocity=127 time=0.005208333333333333
EXTRACT: note_off channel=9 note=36 velocity=127 time=0
EXTRACT: note_on channel=9 note=62 velocity=127 time=0.020833333333333332
EXTRACT: note_on channel=9 note=28 velocity=52 time=0
EXTRACT: note_on channel=9 note=42 velocity=127 time=0
EXTRACT: note_on channel=9 note=37 velocity=127 time=0
EXTRACT: note_on channel=9 note=38 velocity=65 time=0
EXTRACT: note_on channel=9 note=35 velocity=127 time=0
EXTRACT: note_on channel=9 note=36 velocity=127 time=0
EXTRACT: note_off channel=9 note=28 velocity=52 time=0.06458333333333333
EXTRACT: note_off channel=9 note=42 velocity=127 time=0.03958333333333333
EXTRACT: note_off channel=9 note=37 velocity=127 time=0
EXTRACT: note_off channel=0 note=61 velocity=0 time=0.01875
EXTRACT: note_off channel=0 note=65 velocity=0 time=0
EXTRACT: note_off channel=5 note=63 velocity=127 time=0
EXTRACT: note_off channel=8 note=63 velocity=127 time=0
EXTRACT: note_on channel=0 note=58 velocity=0 time=0.0020833333333333333
EXTRACT: note_on channel=0 note=63 velocity=0 time=0
EXTRACT: note_on channel=5 note=61 velocity=127 time=0
EXTRACT: note_on channel=9 note=38 velocity=65 time=0
EXTRACT: note_on channel=9 note=35 velocity=127 time=0
EXTRACT: note_on channel=9 note=36 velocity=127 time=0
EXTRACT: note_on channel=9 note=62 velocity=127 time=0
EXTRACT: note_on channel=9 note=75 velocity=60 time=0
EXTRACT: note_on channel=9 note=28 velocity=54 time=0
EXTRACT: note_on channel=9 note=42 velocity=127 time=0
EXTRACT: note_on channel=9 note=37 velocity=127 time=0
EXTRACT: note_on channel=8 note=61 velocity=127 time=0
EXTRACT: note_off channel=9 note=62 velocity=127 time=0.0010416666666666667
EXTRACT: note_off channel=9 note=28 velocity=52 time=0.06354166666666666
EXTRACT: note_off channel=9 note=38 velocity=65 time=0.034375
EXTRACT: note_off channel=9 note=42 velocity=127 time=0.005208333333333333
EXTRACT: note_off channel=9 note=37 velocity=127 time=0
EXTRACT: note_off channel=9 note=35 velocity=127 time=0
EXTRACT: note_off channel=9 note=36 velocity=127 time=0
EXTRACT: note_off channel=9 note=75 velocity=60 time=0.014583333333333334
EXTRACT: note_on channel=9 note=62 velocity=127 time=0.00625
EXTRACT: note_on channel=9 note=75 velocity=60 time=0
EXTRACT: note_on channel=9 note=28 velocity=54 time=0
EXTRACT: note_on channel=9 note=42 velocity=127 time=0
EXTRACT: note_on channel=9 note=37 velocity=127 time=0
EXTRACT: note_on channel=9 note=75 velocity=58 time=0
EXTRACT: note_off channel=9 note=62 velocity=127 time=0.0010416666666666667
EXTRACT: note_off channel=9 note=28 velocity=54 time=0.06354166666666666
EXTRACT: note_off channel=9 note=38 velocity=65 time=0.034375
EXTRACT: note_off channel=9 note=35 velocity=127 time=0.005208333333333333
EXTRACT: note_off channel=9 note=36 velocity=127 time=0
EXTRACT: note_off channel=9 note=42 velocity=127 time=0
EXTRACT: note_off channel=9 note=37 velocity=127 time=0
EXTRACT: note_off channel=9 note=75 velocity=60 time=0.014583333333333334
EXTRACT: note_off channel=9 note=75 velocity=58 time=0
EXTRACT: note_off channel=0 note=58 velocity=0 time=0.004166666666666667
EXTRACT: note_off channel=0 note=63 velocity=0 time=0
EXTRACT: note_off channel=5 note=61 velocity=127 time=0
EXTRACT: note_off channel=8 note=61 velocity=127 time=0
EXTRACT: note_on channel=5 note=61 velocity=127 time=0.0020833333333333333
EXTRACT: note_on channel=9 note=75 velocity=58 time=0
EXTRACT: note_on channel=9 note=75 velocity=61 time=0
EXTRACT: note_on channel=9 note=38 velocity=65 time=0
EXTRACT: note_on channel=9 note=28 velocity=54 time=0
EXTRACT: note_on channel=9 note=35 velocity=127 time=0
EXTRACT: note_on channel=9 note=36 velocity=127 time=0
EXTRACT: note_on channel=8 note=61 velocity=127 time=0
EXTRACT: note_off channel=9 note=62 velocity=127 time=0.0010416666666666667
EXTRACT: note_off channel=9 note=28 velocity=54 time=0.06354166666666666
EXTRACT: note_off channel=9 note=42 velocity=127 time=0.03958333333333333
EXTRACT: note_off channel=9 note=37 velocity=127 time=0
EXTRACT: note_off channel=9 note=75 velocity=58 time=0.014583333333333334
EXTRACT: note_off channel=9 note=75 velocity=61 time=0
EXTRACT: note_off channel=9 note=62 velocity=127 time=0.007291666666666667
EXTRACT: note_off channel=9 note=28 velocity=54 time=0.06354166666666666
EXTRACT: note_off channel=9 note=38 velocity=65 time=0.034375
EXTRACT: note_off channel=9 note=35 velocity=127 time=0.005208333333333333
EXTRACT: note_off channel=9 note=36 velocity=127 time=0
EXTRACT: note_off channel=5 note=61 velocity=127 time=0.01875
EXTRACT: note_off channel=8 note=61 velocity=127 time=0
EXTRACT: note_on channel=5 note=58 velocity=127 time=0.0020833333333333333
EXTRACT: note_on channel=9 note=75 velocity=61 time=0
EXTRACT: note_on channel=9 note=28 velocity=56 time=0
EXTRACT: note_on channel=8 note=58 velocity=127 time=0
EXTRACT: note_off channel=9 note=75 velocity=61 time=0.11875
EXTRACT: note_on channel=9 note=75 velocity=61 time=0.00625
EXTRACT: note_off channel=9 note=28 velocity=56 time=0.06458333333333333
EXTRACT: note_off channel=9 note=75 velocity=61 time=0.05416666666666667
EXTRACT: note_off channel=5 note=58 velocity=127 time=0.004166666666666667
EXTRACT: note_off channel=8 note=58 velocity=127 time=0
EXTRACT: note_on channel=5 note=61 velocity=127 time=0.0020833333333333333
EXTRACT: note_on channel=9 note=62 velocity=127 time=0
EXTRACT: note_on channel=9 note=75 velocity=61 time=0
EXTRACT: note_on channel=9 note=28 velocity=52 time=0
EXTRACT: note_on channel=9 note=42 velocity=127 time=0
EXTRACT: note_on channel=9 note=37 velocity=127 time=0
EXTRACT: note_on channel=8 note=61 velocity=127 time=0
EXTRACT: note_off channel=9 note=75 velocity=61 time=0.11875
EXTRACT: note_off channel=9 note=28 velocity=52 time=0.07083333333333333
EXTRACT: note_off channel=9 note=42 velocity=127 time=0.03958333333333333
EXTRACT: note_off channel=9 note=37 velocity=127 time=0
EXTRACT: note_off channel=5 note=61 velocity=127 time=0.01875
EXTRACT: note_off channel=8 note=61 velocity=127 time=0
EXTRACT: note_on channel=5 note=58 velocity=127 time=0.0020833333333333333
EXTRACT: note_on channel=9 note=75 velocity=61 time=0
EXTRACT: note_on channel=9 note=38 velocity=67 time=0
EXTRACT: note_on channel=9 note=28 velocity=52 time=0
EXTRACT: note_on channel=9 note=35 velocity=127 time=0
EXTRACT: note_on channel=9 note=36 velocity=127 time=0
EXTRACT: note_on channel=8 note=58 velocity=127 time=0
EXTRACT: note_off channel=9 note=62 velocity=127 time=0.0010416666666666667
EXTRACT: note_off channel=9 note=75 velocity=61 time=0.11770833333333333
EXTRACT: note_off channel=9 note=28 velocity=52 time=0.07083333333333333
EXTRACT: note_off channel=9 note=38 velocity=67 time=0.034375
EXTRACT: note_off channel=9 note=35 velocity=127 time=0.005208333333333333
EXTRACT: note_off channel=9 note=36 velocity=127 time=0
EXTRACT: note_off channel=5 note=58 velocity=127 time=0.01875
EXTRACT: note_off channel=8 note=58 velocity=127 time=0
EXTRACT: note_on channel=5 note=65 velocity=127 time=0.0020833333333333333
EXTRACT: note_on channel=9 note=28 velocity=52 time=0
EXTRACT: note_on channel=8 note=65 velocity=127 time=0
EXTRACT: note_off channel=9 note=28 velocity=52 time=0.18958333333333333
EXTRACT: note_off channel=5 note=65 velocity=127 time=0.058333333333333334
EXTRACT: note_off channel=8 note=65 velocity=127 time=0
EXTRACT: note_on channel=5 note=63 velocity=127 time=0.0020833333333333333
EXTRACT: note_on channel=9 note=75 velocity=56 time=0
EXTRACT: note_on channel=9 note=38 velocity=67 time=0
EXTRACT: note_on channel=9 note=43 velocity=43 time=0
EXTRACT: note_on channel=9 note=28 velocity=52 time=0
EXTRACT: note_on channel=9 note=35 velocity=127 time=0
EXTRACT: note_on channel=9 note=36 velocity=127 time=0
EXTRACT: note_on channel=8 note=63 velocity=127 time=0
EXTRACT: note_off channel=9 note=43 velocity=43 time=0.096875
EXTRACT: note_off channel=9 note=75 velocity=56 time=0.021875
EXTRACT: note_on channel=9 note=41 velocity=43 time=0.00625
EXTRACT: note_off channel=9 note=28 velocity=52 time=0.06458333333333333
EXTRACT: note_off channel=9 note=41 velocity=43 time=0.03229166666666666
EXTRACT: note_off channel=9 note=38 velocity=67 time=0.0020833333333333333
EXTRACT: note_off channel=9 note=35 velocity=127 time=0.005208333333333333
EXTRACT: note_off channel=9 note=36 velocity=127 time=0
EXTRACT: note_off channel=5 note=63 velocity=127 time=0.01875
EXTRACT: note_off channel=8 note=63 velocity=127 time=0
EXTRACT: note_on channel=5 note=63 velocity=127 time=0.0020833333333333333
EXTRACT: note_on channel=9 note=62 velocity=127 time=0
EXTRACT: note_on channel=9 note=28 velocity=52 time=0
EXTRACT: note_on channel=9 note=42 velocity=127 time=0
EXTRACT: note_on channel=9 note=37 velocity=127 time=0
EXTRACT: note_on channel=8 note=63 velocity=127 time=0
EXTRACT: note_on channel=9 note=38 velocity=65 time=0.125
EXTRACT: note_on channel=9 note=35 velocity=127 time=0
EXTRACT: note_on channel=9 note=36 velocity=127 time=0
EXTRACT: note_off channel=9 note=28 velocity=52 time=0.06458333333333333
EXTRACT: note_off channel=9 note=42 velocity=127 time=0.03958333333333333
EXTRACT: note_off channel=9 note=37 velocity=127 time=0
EXTRACT: note_off channel=5 note=63 velocity=127 time=0.01875
EXTRACT: note_off channel=8 note=63 velocity=127 time=0
EXTRACT: note_on channel=5 note=61 velocity=127 time=0.0020833333333333333
EXTRACT: note_on channel=9 note=62 velocity=127 time=0
EXTRACT: note_on channel=9 note=75 velocity=60 time=0
EXTRACT: note_on channel=9 note=28 velocity=54 time=0
EXTRACT: note_on channel=9 note=42 velocity=127 time=0
EXTRACT: note_on channel=9 note=37 velocity=127 time=0
EXTRACT: note_on channel=8 note=61 velocity=127 time=0
EXTRACT: note_off channel=9 note=62 velocity=127 time=0.0010416666666666667
EXTRACT: note_off channel=9 note=38 velocity=65 time=0.09791666666666667
EXTRACT: note_off channel=9 note=35 velocity=127 time=0.005208333333333333
EXTRACT: note_off channel=9 note=36 velocity=127 time=0
EXTRACT: note_off channel=9 note=75 velocity=60 time=0.014583333333333334
EXTRACT: note_on channel=9 note=75 velocity=58 time=0.00625
EXTRACT: note_off channel=9 note=28 velocity=54 time=0.06458333333333333
EXTRACT: note_off channel=9 note=42 velocity=127 time=0.03958333333333333
EXTRACT: note_off channel=9 note=37 velocity=127 time=0
EXTRACT: note_off channel=9 note=75 velocity=58 time=0.014583333333333334
EXTRACT: note_off channel=5 note=61 velocity=127 time=0.004166666666666667
EXTRACT: note_off channel=8 note=61 velocity=127 time=0
EXTRACT: note_on channel=5 note=65 velocity=127 time=0.0020833333333333333
EXTRACT: note_on channel=5 note=61 velocity=127 time=0
EXTRACT: note_on channel=9 note=28 velocity=52 time=0
EXTRACT: note_on channel=9 note=75 velocity=61 time=0
EXTRACT: note_on channel=9 note=38 velocity=65 time=0
EXTRACT: note_on channel=9 note=28 velocity=54 time=0
EXTRACT: note_on channel=9 note=35 velocity=127 time=0
EXTRACT: note_on channel=9 note=36 velocity=127 time=0
EXTRACT: note_on channel=8 note=65 velocity=127 time=0
EXTRACT: note_on channel=8 note=61 velocity=127 time=0
EXTRACT: note_off channel=9 note=62 velocity=127 time=0.0010416666666666667
EXTRACT: note_off channel=9 note=75 velocity=61 time=0.11770833333333333
EXTRACT: note_off channel=9 note=28 velocity=52 time=0.07083333333333333
EXTRACT: note_off channel=9 note=28 velocity=54 time=0
EXTRACT: note_off channel=9 note=38 velocity=65 time=0.034375
EXTRACT: note_off channel=9 note=35 velocity=127 time=0.005208333333333333
EXTRACT: note_off channel=9 note=36 velocity=127 time=0
EXTRACT: note_off channel=5 note=65 velocity=127 time=0.01875
EXTRACT: note_off channel=5 note=61 velocity=127 time=0
EXTRACT: note_off channel=8 note=65 velocity=127 time=0
EXTRACT: note_off channel=8 note=61 velocity=127 time=0
EXTRACT: note_on channel=5 note=63 velocity=127 time=0.0020833333333333333
EXTRACT: note_on channel=5 note=58 velocity=127 time=0
EXTRACT: note_on channel=9 note=75 velocity=56 time=0
EXTRACT: note_on channel=9 note=38 velocity=67 time=0
EXTRACT: note_on channel=9 note=36 velocity=127 time=0
EXTRACT: note_on channel=9 note=35 velocity=127 time=0
EXTRACT: note_on channel=9 note=28 velocity=52 time=0
EXTRACT: note_on channel=9 note=43 velocity=43 time=0
EXTRACT: note_on channel=9 note=75 velocity=61 time=0
EXTRACT: note_on channel=9 note=28 velocity=56 time=0
EXTRACT: note_on channel=8 note=63 velocity=127 time=0
EXTRACT: note_on channel=8 note=58 velocity=127 time=0
EXTRACT: note_off channel=9 note=43 velocity=43 time=0.096875
EXTRACT: note_off channel=9 note=75 velocity=56 time=0.021875
EXTRACT: note_off channel=9 note=75 velocity=61 time=0
EXTRACT: note_on channel=9 note=41 velocity=43 time=0.00625
EXTRACT: note_on channel=9 note=75 velocity=61 time=0
EXTRACT: note_off channel=9 note=28 velocity=52 time=0.06458333333333333
EXTRACT: note_off channel=9 note=28 velocity=56 time=0
EXTRACT: note_off channel=9 note=41 velocity=43 time=0.03229166666666666
EXTRACT: note_off channel=9 note=38 velocity=67 time=0.0020833333333333333
EXTRACT: note_off channel=9 note=36 velocity=127 time=0.005208333333333333
EXTRACT: note_off channel=9 note=35 velocity=127 time=0
EXTRACT: note_off channel=9 note=75 velocity=61 time=0.014583333333333334
EXTRACT: note_off channel=5 note=63 velocity=127 time=0.004166666666666667
EXTRACT: note_off channel=5 note=58 velocity=127 time=0
EXTRACT: note_off channel=8 note=63 velocity=127 time=0
EXTRACT: note_off channel=8 note=58 velocity=127 time=0
EXTRACT: note_on channel=5 note=63 velocity=127 time=0.0020833333333333333
EXTRACT: note_on channel=5 note=61 velocity=127 time=0
EXTRACT: note_on channel=9 note=62 velocity=127 time=0
EXTRACT: note_on channel=9 note=37 velocity=127 time=0
EXTRACT: note_on channel=9 note=42 velocity=127 time=0
EXTRACT: note_on channel=9 note=28 velocity=52 time=0
EXTRACT: note_on channel=9 note=62 velocity=127 time=0
EXTRACT: note_on channel=9 note=75 velocity=61 time=0
EXTRACT: note_on channel=9 note=28 velocity=52 time=0
EXTRACT: note_on channel=9 note=42 velocity=127 time=0
EXTRACT: note_on channel=9 note=37 velocity=127 time=0
EXTRACT: note_on channel=8 note=63 velocity=127 time=0
EXTRACT: note_on channel=8 note=61 velocity=127 time=0
EXTRACT: note_off channel=9 note=75 velocity=61 time=0.11875
EXTRACT: note_on channel=9 note=38 velocity=65 time=0.00625
EXTRACT: note_on channel=9 note=36 velocity=127 time=0
EXTRACT: note_on channel=9 note=35 velocity=127 time=0
EXTRACT: note_off channel=9 note=28 velocity=52 time=0.06458333333333333
EXTRACT: note_off channel=9 note=28 velocity=52 time=0
EXTRACT: note_off channel=9 note=37 velocity=127 time=0.03958333333333333
EXTRACT: note_off channel=9 note=42 velocity=127 time=0
EXTRACT: note_off channel=9 note=42 velocity=127 time=0
EXTRACT: note_off channel=9 note=37 velocity=127 time=0
EXTRACT: note_off channel=5 note=63 velocity=127 time=0.01875
EXTRACT: note_off channel=5 note=61 velocity=127 time=0
EXTRACT: note_off channel=8 note=63 velocity=127 time=0
EXTRACT: note_off channel=8 note=61 velocity=127 time=0
EXTRACT: note_on channel=5 note=61 velocity=127 time=0.0020833333333333333
EXTRACT: note_on channel=5 note=58 velocity=127 time=0
EXTRACT: note_on channel=9 note=75 velocity=60 time=0
EXTRACT: note_on channel=9 note=62 velocity=127 time=0
EXTRACT: note_on channel=9 note=37 velocity=127 time=0
EXTRACT: note_on channel=9 note=42 velocity=127 time=0
EXTRACT: note_on channel=9 note=28 velocity=54 time=0
EXTRACT: note_on channel=9 note=75 velocity=61 time=0
EXTRACT: note_on channel=9 note=38 velocity=67 time=0
EXTRACT: note_on channel=9 note=28 velocity=52 time=0
EXTRACT: note_on channel=9 note=35 velocity=127 time=0
EXTRACT: note_on channel=9 note=36 velocity=127 time=0
EXTRACT: note_on channel=8 note=61 velocity=127 time=0
EXTRACT: note_on channel=8 note=58 velocity=127 time=0
EXTRACT: note_off channel=9 note=62 velocity=127 time=0.0010416666666666667
EXTRACT: note_off channel=9 note=62 velocity=127 time=0
EXTRACT: note_off channel=9 note=38 velocity=65 time=0.09791666666666667
EXTRACT: note_off channel=9 note=36 velocity=127 time=0.005208333333333333
EXTRACT: note_off channel=9 note=35 velocity=127 time=0
EXTRACT: note_off channel=9 note=75 velocity=60 time=0.014583333333333334
EXTRACT: note_off channel=9 note=75 velocity=61 time=0
EXTRACT: note_on channel=9 note=75 velocity=58 time=0.00625
EXTRACT: note_off channel=9 note=28 velocity=54 time=0.06458333333333333
EXTRACT: note_off channel=9 note=28 velocity=52 time=0
EXTRACT: note_off channel=9 note=38 velocity=67 time=0.034375
EXTRACT: note_off channel=9 note=37 velocity=127 time=0.005208333333333333
EXTRACT: note_off channel=9 note=42 velocity=127 time=0
EXTRACT: note_off channel=9 note=35 velocity=127 time=0
EXTRACT: note_off channel=9 note=36 velocity=127 time=0
EXTRACT: note_off channel=9 note=75 velocity=58 time=0.014583333333333334
EXTRACT: note_off channel=5 note=61 velocity=127 time=0.004166666666666667
EXTRACT: note_off channel=5 note=58 velocity=127 time=0
EXTRACT: note_off channel=8 note=61 velocity=127 time=0
EXTRACT: note_off channel=8 note=58 velocity=127 time=0
EXTRACT: note_on channel=5 note=61 velocity=127 time=0.0020833333333333333
EXTRACT: note_on channel=5 note=65 velocity=127 time=0
EXTRACT: note_on channel=9 note=75 velocity=61 time=0
EXTRACT: note_on channel=9 note=38 velocity=65 time=0
EXTRACT: note_on channel=9 note=36 velocity=127 time=0
EXTRACT: note_on channel=9 note=35 velocity=127 time=0
EXTRACT: note_on channel=9 note=28 velocity=54 time=0
EXTRACT: note_on channel=9 note=28 velocity=52 time=0
EXTRACT: note_on channel=8 note=61 velocity=127 time=0
EXTRACT: note_on channel=8 note=65 velocity=127 time=0
EXTRACT: note_off channel=9 note=62 velocity=127 time=0.0010416666666666667
EXTRACT: note_off channel=9 note=75 velocity=61 time=0.11770833333333333
EXTRACT: note_off channel=9 note=28 velocity=54 time=0.07083333333333333
EXTRACT: note_off channel=9 note=28 velocity=52 time=0
EXTRACT: note_off channel=9 note=38 velocity=65 time=0.034375
EXTRACT: note_off channel=9 note=36 velocity=127 time=0.005208333333333333
EXTRACT: note_off channel=9 note=35 velocity=127 time=0
EXTRACT: note_off channel=5 note=61 velocity=127 time=0.01875
EXTRACT: note_off channel=5 note=65 velocity=127 time=0
EXTRACT: note_off channel=8 note=61 velocity=127 time=0
EXTRACT: note_off channel=8 note=65 velocity=127 time=0
EXTRACT: note_on channel=5 note=58 velocity=127 time=0.0020833333333333333
EXTRACT: note_on channel=5 note=63 velocity=127 time=0
EXTRACT: note_on channel=9 note=75 velocity=61 time=0
EXTRACT: note_on channel=9 note=28 velocity=56 time=0
EXTRACT: note_on channel=9 note=75 velocity=56 time=0
EXTRACT: note_on channel=9 note=38 velocity=67 time=0
EXTRACT: note_on channel=9 note=43 velocity=43 time=0
EXTRACT: note_on channel=9 note=28 velocity=52 time=0
EXTRACT: note_on channel=9 note=35 velocity=127 time=0
EXTRACT: note_on channel=9 note=36 velocity=127 time=0
EXTRACT: note_on channel=8 note=58 velocity=127 time=0
EXTRACT: note_on channel=8 note=63 velocity=127 time=0
EXTRACT: note_off channel=9 note=43 velocity=43 time=0.096875
EXTRACT: note_off channel=9 note=75 velocity=61 time=0.021875
EXTRACT: note_off channel=9 note=75 velocity=56 time=0
EXTRACT: note_on channel=9 note=41 velocity=43 time=0.00625
EXTRACT: note_off channel=9 note=28 velocity=56 time=0.06458333333333333
EXTRACT: note_off channel=9 note=28 velocity=52 time=0
EXTRACT: note_off channel=9 note=41 velocity=43 time=0.03229166666666666
EXTRACT: note_off channel=9 note=38 velocity=67 time=0.0020833333333333333
EXTRACT: note_off channel=9 note=35 velocity=127 time=0.005208333333333333
EXTRACT: note_off channel=9 note=36 velocity=127 time=0
EXTRACT: note_off channel=5 note=58 velocity=127 time=0.01875
EXTRACT: note_off channel=5 note=63 velocity=127 time=0
EXTRACT: note_off channel=8 note=58 velocity=127 time=0
EXTRACT: note_off channel=8 note=63 velocity=127 time=0
EXTRACT: note_on channel=5 note=63 velocity=127 time=0.0020833333333333333
EXTRACT: note_on channel=9 note=62 velocity=127 time=0
EXTRACT: note_on channel=9 note=28 velocity=52 time=0
EXTRACT: note_on channel=9 note=42 velocity=127 time=0
EXTRACT: note_on channel=9 note=37 velocity=127 time=0
EXTRACT: note_on channel=8 note=63 velocity=127 time=0
EXTRACT: note_on channel=9 note=38 velocity=65 time=0.125
EXTRACT: note_on channel=9 note=35 velocity=127 time=0
EXTRACT: note_on channel=9 note=36 velocity=127 time=0
EXTRACT: note_off channel=9 note=28 velocity=52 time=0.06458333333333333
EXTRACT: note_off channel=9 note=42 velocity=127 time=0.03958333333333333
EXTRACT: note_off channel=9 note=37 velocity=127 time=0
EXTRACT: note_off channel=5 note=63 velocity=127 time=0.01875
EXTRACT: note_off channel=8 note=63 velocity=127 time=0
EXTRACT: note_on channel=5 note=61 velocity=127 time=0.0020833333333333333
EXTRACT: note_on channel=9 note=62 velocity=127 time=0
EXTRACT: note_on channel=9 note=75 velocity=60 time=0
EXTRACT: note_on channel=9 note=28 velocity=54 time=0
EXTRACT: note_on channel=9 note=42 velocity=127 time=0
EXTRACT: note_on channel=9 note=37 velocity=127 time=0
EXTRACT: note_on channel=8 note=61 velocity=127 time=0
EXTRACT: note_off channel=9 note=62 velocity=127 time=0.0010416666666666667
EXTRACT: note_off channel=9 note=38 velocity=65 time=0.09791666666666667
EXTRACT: note_off channel=9 note=35 velocity=127 time=0.005208333333333333
EXTRACT: note_off channel=9 note=36 velocity=127 time=0
EXTRACT: note_off channel=9 note=75 velocity=60 time=0.014583333333333334
EXTRACT: note_on channel=9 note=75 velocity=58 time=0.00625
EXTRACT: note_off channel=9 note=28 velocity=54 time=0.06458333333333333
EXTRACT: note_off channel=9 note=42 velocity=127 time=0.03958333333333333
EXTRACT: note_off channel=9 note=37 velocity=127 time=0
EXTRACT: note_off channel=9 note=75 velocity=58 time=0.014583333333333334
EXTRACT: note_off channel=5 note=61 velocity=127 time=0.004166666666666667
EXTRACT: note_off channel=8 note=61 velocity=127 time=0
EXTRACT: note_on channel=5 note=65 velocity=106 time=0.0020833333333333333
EXTRACT: note_on channel=5 note=61 velocity=106 time=0
EXTRACT: note_on channel=9 note=28 velocity=54 time=0
EXTRACT: note_on channel=9 note=35 velocity=127 time=0
EXTRACT: note_on channel=9 note=36 velocity=127 time=0
EXTRACT: note_on channel=9 note=75 velocity=61 time=0
EXTRACT: note_off channel=9 note=62 velocity=127 time=0.0010416666666666667
EXTRACT: note_off channel=9 note=75 velocity=61 time=0.11770833333333333
EXTRACT: note_off channel=9 note=28 velocity=54 time=0.07083333333333333
EXTRACT: note_off channel=9 note=35 velocity=127 time=0.03958333333333333
EXTRACT: note_off channel=9 note=36 velocity=127 time=0
EXTRACT: note_off channel=5 note=65 velocity=106 time=0.01875
EXTRACT: note_off channel=5 note=61 velocity=106 time=0
EXTRACT: note_on channel=5 note=63 velocity=90 time=0.0020833333333333333
EXTRACT: note_on channel=5 note=58 velocity=90 time=0
EXTRACT: note_on channel=9 note=36 velocity=85 time=0
EXTRACT: note_on channel=9 note=35 velocity=85 time=0
EXTRACT: note_on channel=9 note=28 velocity=85 time=0
EXTRACT: note_off channel=9 note=36 velocity=85 time=0.17916666666666667
EXTRACT: note_off channel=9 note=35 velocity=85 time=0
EXTRACT: note_off channel=9 note=28 velocity=85 time=0
EXTRACT: note_off channel=5 note=63 velocity=90 time=0.06875
EXTRACT: note_off channel=5 note=58 velocity=90 time=0
EXTRACT: note_on channel=5 note=65 velocity=83 time=0.0020833333333333333
EXTRACT: note_on channel=5 note=61 velocity=83 time=0
EXTRACT: note_on channel=9 note=36 velocity=72 time=0
EXTRACT: note_on channel=9 note=35 velocity=72 time=0
EXTRACT: note_on channel=9 note=28 velocity=72 time=0
EXTRACT: note_off channel=9 note=36 velocity=72 time=0.17916666666666667
EXTRACT: note_off channel=9 note=35 velocity=72 time=0
EXTRACT: note_off channel=9 note=28 velocity=72 time=0
EXTRACT: note_off channel=5 note=65 velocity=83 time=0.06875
EXTRACT: note_off channel=5 note=61 velocity=83 time=0
EXTRACT: note_on channel=5 note=63 velocity=74 time=0.0020833333333333333
EXTRACT: note_on channel=5 note=58 velocity=74 time=0
EXTRACT: note_on channel=9 note=36 velocity=58 time=0
EXTRACT: note_on channel=9 note=35 velocity=58 time=0
EXTRACT: note_on channel=9 note=28 velocity=58 time=0
EXTRACT: note_off channel=9 note=36 velocity=58 time=0.17916666666666667
EXTRACT: note_off channel=9 note=35 velocity=58 time=0
EXTRACT: note_off channel=9 note=28 velocity=58 time=0
EXTRACT: note_off channel=5 note=63 velocity=74 time=0.06875
EXTRACT: note_off channel=5 note=58 velocity=74 time=0
EXTRACT: note_on channel=5 note=65 velocity=54 time=0.0020833333333333333
EXTRACT: note_on channel=5 note=61 velocity=54 time=0
EXTRACT: note_on channel=9 note=36 velocity=49 time=0
EXTRACT: note_on channel=9 note=35 velocity=49 time=0
EXTRACT: note_on channel=9 note=28 velocity=49 time=0
EXTRACT: note_off channel=9 note=36 velocity=49 time=0.17916666666666667
EXTRACT: note_off channel=9 note=35 velocity=49 time=0
EXTRACT: note_off channel=9 note=28 velocity=49 time=0
EXTRACT: note_off channel=5 note=65 velocity=54 time=0.06875
EXTRACT: note_off channel=5 note=61 velocity=54 time=0
EXTRACT: note_on channel=5 note=63 velocity=47 time=0.0020833333333333333
EXTRACT: note_on channel=5 note=58 velocity=47 time=0
EXTRACT: note_on channel=9 note=36 velocity=38 time=0
EXTRACT: note_on channel=9 note=35 velocity=38 time=0
EXTRACT: note_on channel=9 note=28 velocity=38 time=0
EXTRACT: note_off channel=9 note=36 velocity=38 time=0.17916666666666667
EXTRACT: note_off channel=9 note=35 velocity=38 time=0
EXTRACT: note_off channel=9 note=28 velocity=38 time=0
EXTRACT: note_off channel=5 note=63 velocity=47 time=0.06875
EXTRACT: note_off channel=5 note=58 velocity=47 time=0
EXTRACT: note_on channel=5 note=65 velocity=43 time=0.0020833333333333333
EXTRACT: note_on channel=5 note=61 velocity=43 time=0
EXTRACT: note_on channel=9 note=36 velocity=25 time=0
EXTRACT: note_on channel=9 note=35 velocity=25 time=0
EXTRACT: note_on channel=9 note=28 velocity=25 time=0
EXTRACT: note_off channel=9 note=36 velocity=25 time=0.17916666666666667
EXTRACT: note_off channel=9 note=35 velocity=25 time=0
EXTRACT: note_off channel=9 note=28 velocity=25 time=0
EXTRACT: note_off channel=5 note=65 velocity=43 time=0.06875
EXTRACT: note_off channel=5 note=61 velocity=43 time=0
EXTRACT: note_on channel=5 note=63 velocity=34 time=0.0020833333333333333
EXTRACT: note_on channel=5 note=58 velocity=34 time=0
EXTRACT: note_on channel=9 note=36 velocity=18 time=0
EXTRACT: note_on channel=9 note=35 velocity=18 time=0
EXTRACT: note_on channel=9 note=28 velocity=18 time=0
EXTRACT: note_off channel=9 note=36 velocity=18 time=0.17916666666666667
EXTRACT: note_off channel=9 note=35 velocity=18 time=0
EXTRACT: note_off channel=9 note=28 velocity=18 time=0
EXTRACT: note_off channel=5 note=63 velocity=34 time=0.06875
EXTRACT: note_off channel=5 note=58 velocity=34 time=0
EXTRACT: note_on channel=5 note=65 velocity=31 time=0.0020833333333333333
EXTRACT: note_on channel=5 note=61 velocity=31 time=0
EXTRACT: note_on channel=9 note=36 velocity=9 time=0
EXTRACT: note_on channel=9 note=35 velocity=9 time=0
EXTRACT: note_on channel=9 note=28 velocity=9 time=0
EXTRACT: note_off channel=9 note=28 velocity=9 time=0.18958333333333333
EXTRACT: note_off channel=9 note=36 velocity=9 time=0.03958333333333333
EXTRACT: note_off channel=9 note=35 velocity=9 time=0
EXTRACT: note_off channel=5 note=65 velocity=31 time=0.01875
EXTRACT: note_off channel=5 note=61 velocity=31 time=0
EXTRACT: note_on channel=5 note=63 velocity=16 time=0.0020833333333333333
EXTRACT: note_on channel=5 note=58 velocity=16 time=0
EXTRACT: note_on channel=9 note=28 velocity=0 time=0
EXTRACT: note_on channel=9 note=35 velocity=0 time=0
EXTRACT: note_on channel=9 note=36 velocity=0 time=0
EXTRACT: note_off channel=9 note=28 velocity=0 time=0.17916666666666667
EXTRACT: note_off channel=9 note=35 velocity=0 time=0
EXTRACT: note_off channel=9 note=36 velocity=0 time=0
EXTRACT: note_off channel=5 note=63 velocity=16 time=0.06875
EXTRACT: note_off channel=5 note=58 velocity=16 time=0
EXTRACT: note_on channel=5 note=65 velocity=11 time=0.0020833333333333333
EXTRACT: note_on channel=5 note=61 velocity=11 time=0
EXTRACT: note_on channel=9 note=28 velocity=0 time=0
EXTRACT: note_on channel=9 note=35 velocity=0 time=0
EXTRACT: note_on channel=9 note=36 velocity=0 time=0
EXTRACT: note_off channel=9 note=28 velocity=0 time=0.17916666666666667
EXTRACT: note_off channel=9 note=35 velocity=0 time=0
EXTRACT: note_off channel=9 note=36 velocity=0 time=0
EXTRACT: note_off channel=5 note=65 velocity=11 time=0.06875
EXTRACT: note_off channel=5 note=61 velocity=11 time=0
EXTRACT: note_on channel=5 note=63 velocity=2 time=0.0020833333333333333
EXTRACT: note_on channel=5 note=58 velocity=2 time=0
EXTRACT: note_on channel=9 note=28 velocity=0 time=0
EXTRACT: note_on channel=9 note=35 velocity=0 time=0
EXTRACT: note_on channel=9 note=36 velocity=0 time=0
EXTRACT: note_off channel=9 note=28 velocity=0 time=0.17916666666666667
EXTRACT: note_off channel=9 note=35 velocity=0 time=0
EXTRACT: note_off channel=9 note=36 velocity=0 time=0
EXTRACT: note_off channel=5 note=63 velocity=2 time=0.06875
EXTRACT: note_off channel=5 note=58 velocity=2 time=0
EXTRACT: note_on channel=5 note=65 velocity=0 time=0.0020833333333333333
EXTRACT: note_on channel=5 note=61 velocity=0 time=0
EXTRACT: note_on channel=9 note=28 velocity=0 time=0
EXTRACT: note_on channel=9 note=35 velocity=0 time=0
EXTRACT: note_on channel=9 note=36 velocity=0 time=0
EXTRACT: note_off channel=9 note=28 velocity=0 time=0.17916666666666667
EXTRACT: note_off channel=9 note=35 velocity=0 time=0
EXTRACT: note_off channel=9 note=36 velocity=0 time=0
EXTRACT: note_off channel=5 note=65 velocity=0 time=0.06875
EXTRACT: note_off channel=5 note=61 velocity=0 time=0
EXTRACT: note_on channel=5 note=63 velocity=0 time=0.0020833333333333333
EXTRACT: note_on channel=5 note=58 velocity=0 time=0
EXTRACT: note_on channel=9 note=28 velocity=0 time=0
EXTRACT: note_on channel=9 note=35 velocity=0 time=0
EXTRACT: note_on channel=9 note=36 velocity=0 time=0
EXTRACT: note_off channel=9 note=28 velocity=0 time=0.17916666666666667
EXTRACT: note_off channel=9 note=35 velocity=0 time=0
EXTRACT: note_off channel=9 note=36 velocity=0 time=0
EXTRACT: note_off channel=5 note=63 velocity=0 time=0.06875
EXTRACT: note_off channel=5 note=58 velocity=0 time=0
EXTRACT: note_on channel=5 note=65 velocity=0 time=0.0020833333333333333
EXTRACT: note_on channel=5 note=61 velocity=0 time=0
EXTRACT: note_on channel=9 note=28 velocity=0 time=0
EXTRACT: note_on channel=9 note=35 velocity=0 time=0
EXTRACT: note_on channel=9 note=36 velocity=0 time=0
EXTRACT: note_off channel=9 note=28 velocity=0 time=0.17916666666666667
EXTRACT: note_off channel=9 note=35 velocity=0 time=0
EXTRACT: note_off channel=9 note=36 velocity=0 time=0
EXTRACT: note_off channel=5 note=65 velocity=0 time=0.06875
EXTRACT: note_off channel=5 note=61 velocity=0 time=0
EXTRACT: note_on channel=5 note=63 velocity=0 time=0.0020833333333333333
EXTRACT: note_on channel=5 note=58 velocity=0 time=0
EXTRACT: note_on channel=9 note=28 velocity=0 time=0
EXTRACT: note_on channel=9 note=35 velocity=0 time=0
EXTRACT: note_on channel=9 note=36 velocity=0 time=0
EXTRACT: note_off channel=9 note=28 velocity=0 time=0.17916666666666667
EXTRACT: note_off channel=9 note=35 velocity=0 time=0
EXTRACT: note_off channel=9 note=36 velocity=0 time=0
EXTRACT: note_off channel=5 note=63 velocity=0 time=0.06875
EXTRACT: note_off channel=5 note=58 velocity=0 time=0
