EXTRACT: control_change channel=0 control=0 value=0 time=0
EXTRACT: control_change channel=0 control=7 value=90 time=0
EXTRACT: control_change channel=0 control=10 value=84 time=0
EXTRACT: control_change channel=0 control=123 value=0 time=0
EXTRACT: control_change channel=0 control=91 value=40 time=0
EXTRACT: control_change channel=0 control=93 value=0 time=0
EXTRACT: control_change channel=0 control=64 value=0 time=0
EXTRACT: control_change channel=1 control=0 value=0 time=0
EXTRACT: control_change channel=1 control=7 value=100 time=0
EXTRACT: control_change channel=1 control=10 value=64 time=0
EXTRACT: control_change channel=1 control=123 value=0 time=0
EXTRACT: control_change channel=1 control=91 value=40 time=0
EXTRACT: control_change channel=1 control=93 value=0 time=0
EXTRACT: control_change channel=1 control=64 value=0 time=0
EXTRACT: control_change channel=3 control=0 value=0 time=0
EXTRACT: control_change channel=3 control=7 value=90 time=0
EXTRACT: control_change channel=3 control=10 value=90 time=0
EXTRACT: control_change channel=4 control=0 value=0 time=0
EXTRACT: control_change channel=4 control=7 value=60 time=0
EXTRACT: control_change channel=4 control=10 value=50 time=0
EXTRACT: control_change channel=5 control=0 value=0 time=0
EXTRACT: control_change channel=5 control=7 value=80 time=0
EXTRACT: control_change channel=5 control=10 value=94 time=0
EXTRACT: control_change channel=5 control=123 value=0 time=0
EXTRACT: control_change channel=5 control=91 value=40 time=0
EXTRACT: control_change channel=5 control=93 value=0 time=0
EXTRACT: control_change channel=5 control=64 value=0 time=0
EXTRACT: control_change channel=6 control=0 value=0 time=0
EXTRACT: control_change channel=6 control=7 value=90 time=0
EXTRACT: control_change channel=6 control=10 value=34 time=0
EXTRACT: control_change channel=6 control=123 value=0 time=0
EXTRACT: control_change channel=6 control=91 value=40 time=0
EXTRACT: control_change channel=6 control=93 value=0 time=0
EXTRACT: control_change channel=6 control=64 value=0 time=0
EXTRACT: control_change channel=7 control=0 value=0 time=0
EXTRACT: control_change channel=7 control=7 value=100 time=0
EXTRACT: control_change channel=7 control=10 value=60 time=0
EXTRACT: control_change channel=8 control=0 value=0 time=0
EXTRACT: control_change channel=8 control=7 value=80 time=0
EXTRACT: control_change channel=8 control=10 value=70 time=0
EXTRACT: control_change channel=9 control=7 value=100 time=0
EXTRACT: control_change channel=9 control=10 value=64 time=0
EXTRACT: control_change channel=9 control=0 value=0 time=0
EXTRACT: control_change channel=9 control=0 value=0 time=0
EXTRACT: control_change channel=9 control=0 value=0 time=0
EXTRACT: control_change channel=9 control=123 value=0 time=0
EXTRACT: control_change channel=9 control=91 value=40 time=0
EXTRACT: control_change channel=9 control=93 value=0 time=0
EXTRACT: note_on channel=9 note=37 velocity=84 time=0
EXTRACT: control_change channel=0 control=32 value=0 time=0.004716983333333332
EXTRACT: control_change channel=1 control=32 value=0 time=0
EXTRACT: control_change channel=3 control=32 value=0 time=0
EXTRACT: control_change channel=4 control=32 value=0 time=0
EXTRACT: control_change channel=5 control=32 value=0 time=0
EXTRACT: control_change channel=6 control=32 value=0 time=0
EXTRACT: control_change channel=7 control=32 value=0 time=0
EXTRACT: control_change channel=8 control=32 value=0 time=0
EXTRACT: control_change channel=9 control=32 value=0 time=0
EXTRACT: control_change channel=9 control=32 value=0 time=0
EXTRACT: control_change channel=9 control=32 value=0 time=0
EXTRACT: control_change channel=9 control=0 value=0 time=0
EXTRACT: control_change channel=9 control=32 value=0 time=0
EXTRACT: control_change channel=9 control=0 value=0 time=0
EXTRACT: control_change channel=9 control=32 value=0 time=0
EXTRACT: control_change channel=9 control=0 value=0 time=0
EXTRACT: control_change channel=9 control=32 value=0 time=0
EXTRACT: program_change channel=0 program=4 time=0.004716983333333332
EXTRACT: program_change channel=1 program=39 time=0
EXTRACT: program_change channel=3 program=91 time=0
EXTRACT: program_change channel=4 program=25 time=0
EXTRACT: program_change channel=5 program=25 time=0
EXTRACT: program_change channel=6 program=95 time=0
EXTRACT: program_change channel=7 program=11 time=0
EXTRACT: program_change channel=8 program=75 time=0
EXTRACT: program_change channel=9 program=25 time=0
EXTRACT: control_change channel=9 control=0 value=0 time=0
EXTRACT: control_change channel=9 control=32 value=0 time=0
EXTRACT: control_change channel=9 control=0 value=0 time=0
EXTRACT: control_change channel=9 control=32 value=0 time=0
EXTRACT: control_change channel=9 control=0 value=0 time=0
EXTRACT: control_change channel=9 control=32 value=0 time=0
EXTRACT: control_change channel=9 control=0 value=0 time=0
EXTRACT: control_change channel=9 control=32 value=0 time=0
EXTRACT: program_change channel=9 program=25 time=0
EXTRACT: control_change channel=9 control=0 value=0 time=0
EXTRACT: control_change channel=9 control=32 value=0 time=0
EXTRACT: control_change channel=9 control=0 value=0 time=0
EXTRACT: control_change channel=9 control=32 value=0 time=0
EXTRACT: control_change channel=9 control=0 value=0 time=0
EXTRACT: control_change channel=9 control=32 value=0 time=0
EXTRACT: control_change channel=9 control=0 value=0 time=0
EXTRACT: control_change channel=9 control=32 value=0 time=0
EXTRACT: control_change channel=9 control=0 value=0 time=0
EXTRACT: control_change channel=9 control=32 value=0 time=0
EXTRACT: program_change channel=9 program=25 time=0
EXTRACT: note_on channel=9 note=37 velocity=0 time=0.5566040333333332
EXTRACT: note_on channel=9 note=37 velocity=84 time=0.5660379999999999
EXTRACT: note_on channel=9 note=37 velocity=0 time=0.5660379999999999
EXTRACT: note_on channel=9 note=37 velocity=64 time=0.5660379999999999
EXTRACT: note_on channel=9 note=37 velocity=0 time=0.5660379999999999
EXTRACT: note_on channel=9 note=37 velocity=84 time=0
EXTRACT: note_on channel=9 note=37 velocity=0 time=0.5660379999999999
EXTRACT: note_on channel=9 note=37 velocity=64 time=0
EXTRACT: note_on channel=9 note=37 velocity=0 time=0.5660379999999999
EXTRACT: note_on channel=9 note=37 velocity=84 time=0
EXTRACT: control_change channel=8 control=1 value=63 time=0.5518870499999999
EXTRACT: control_change channel=8 control=1 value=65 time=0
EXTRACT: note_on channel=9 note=37 velocity=0 time=0
EXTRACT: note_on channel=9 note=42 velocity=75 time=0
EXTRACT: note_on channel=5 note=45 velocity=67 time=0.004716983333333332
EXTRACT: control_change channel=8 control=1 value=66 time=0.009433966666666665
EXTRACT: note_on channel=8 note=69 velocity=100 time=0
EXTRACT: control_change channel=8 control=1 value=68 time=0.009433966666666665
EXTRACT: note_on channel=9 note=42 velocity=0 time=0.009433966666666665
EXTRACT: control_change channel=8 control=1 value=70 time=0.004716983333333332
EXTRACT: control_change channel=8 control=1 value=71 time=0.014150949999999997
EXTRACT: control_change channel=8 control=1 value=72 time=0.004716983333333332
EXTRACT: control_change channel=8 control=1 value=73 time=0.009433966666666665
EXTRACT: control_change channel=8 control=1 value=74 time=0.014150949999999997
EXTRACT: control_change channel=8 control=1 value=75 time=0.014150949999999997
EXTRACT: control_change channel=8 control=1 value=76 time=0.004716983333333332
EXTRACT: control_change channel=8 control=1 value=77 time=0.009433966666666665
EXTRACT: control_change channel=8 control=1 value=78 time=0.014150949999999997
EXTRACT: control_change channel=8 control=1 value=80 time=0.009433966666666665
EXTRACT: control_change channel=8 control=1 value=81 time=0.004716983333333332
EXTRACT: control_change channel=8 control=1 value=82 time=0.009433966666666665
EXTRACT: control_change channel=8 control=1 value=83 time=0.004716983333333332
EXTRACT: control_change channel=8 control=1 value=84 time=0.009433966666666665
EXTRACT: control_change channel=8 control=1 value=85 time=0.004716983333333332
EXTRACT: control_change channel=8 control=1 value=86 time=0.009433966666666665
EXTRACT: control_change channel=8 control=1 value=88 time=0.004716983333333332
EXTRACT: control_change channel=8 control=1 value=89 time=0.014150949999999997
EXTRACT: control_change channel=8 control=1 value=90 time=0.009433966666666665
EXTRACT: control_change channel=8 control=1 value=91 time=0.004716983333333332
EXTRACT: note_on channel=8 note=69 velocity=0 time=0.009433966666666665
EXTRACT: control_change channel=8 control=1 value=92 time=0
EXTRACT: control_change channel=8 control=1 value=93 time=0.014150949999999997
EXTRACT: control_change channel=8 control=1 value=94 time=0.004716983333333332
EXTRACT: control_change channel=8 control=1 value=95 time=0.009433966666666665
EXTRACT: control_change channel=8 control=1 value=96 time=0.004716983333333332
EXTRACT: control_change channel=8 control=1 value=97 time=0.009433966666666665
EXTRACT: control_change channel=8 control=1 value=98 time=0.004716983333333332
EXTRACT: control_change channel=8 control=1 value=99 time=0.014150949999999997
EXTRACT: note_on channel=9 note=42 velocity=60 time=0.004716983333333332
EXTRACT: note_on channel=5 note=45 velocity=0 time=0.009433966666666665
EXTRACT: note_on channel=5 note=45 velocity=67 time=0.004716983333333332
EXTRACT: control_change channel=8 control=1 value=100 time=0
EXTRACT: note_on channel=8 note=71 velocity=100 time=0
EXTRACT: control_change channel=8 control=1 value=101 time=0.004716983333333332
EXTRACT: note_on channel=9 note=42 velocity=0 time=0.014150949999999997
EXTRACT: control_change channel=8 control=1 value=102 time=0.009433966666666665
EXTRACT: control_change channel=8 control=1 value=103 time=0.01886793333333333
EXTRACT: control_change channel=8 control=1 value=104 time=0.009433966666666665
EXTRACT: control_change channel=8 control=1 value=105 time=0.004716983333333332
EXTRACT: control_change channel=8 control=1 value=106 time=0.014150949999999997
EXTRACT: control_change channel=8 control=1 value=107 time=0.014150949999999997
EXTRACT: control_change channel=8 control=1 value=108 time=0.009433966666666665
EXTRACT: control_change channel=8 control=1 value=109 time=0.004716983333333332
EXTRACT: control_change channel=8 control=1 value=110 time=0.014150949999999997
EXTRACT: control_change channel=8 control=1 value=111 time=0.009433966666666665
EXTRACT: control_change channel=8 control=1 value=112 time=0.014150949999999997
EXTRACT: control_change channel=8 control=1 value=114 time=0.014150949999999997
EXTRACT: control_change channel=8 control=1 value=115 time=0.004716983333333332
EXTRACT: control_change channel=8 control=1 value=116 time=0.014150949999999997
EXTRACT: control_change channel=8 control=1 value=117 time=0.009433966666666665
EXTRACT: note_on channel=8 note=71 velocity=0 time=0.014150949999999997
EXTRACT: note_on channel=5 note=52 velocity=34 time=0.07075474999999999
EXTRACT: note_on channel=9 note=42 velocity=75 time=0
EXTRACT: note_on channel=5 note=69 velocity=66 time=0.004716983333333332
EXTRACT: note_on channel=5 note=64 velocity=67 time=0
EXTRACT: note_on channel=5 note=60 velocity=67 time=0
EXTRACT: note_on channel=5 note=57 velocity=70 time=0
EXTRACT: note_on channel=8 note=72 velocity=100 time=0
EXTRACT: note_on channel=9 note=42 velocity=0 time=0.028301899999999994
EXTRACT: note_on channel=8 note=72 velocity=0 time=0.1886793333333333
EXTRACT: note_on channel=5 note=45 velocity=0 time=0.03773586666666666
EXTRACT: note_on channel=5 note=45 velocity=67 time=0.01886793333333333
EXTRACT: note_on channel=9 note=42 velocity=75 time=0.004716983333333332
EXTRACT: note_on channel=8 note=74 velocity=100 time=0.004716983333333332
EXTRACT: note_on channel=9 note=42 velocity=0 time=0.028301899999999994
EXTRACT: note_on channel=8 note=74 velocity=0 time=0.1886793333333333
EXTRACT: note_on channel=5 note=45 velocity=0 time=0.033018883333333325
EXTRACT: note_on channel=8 note=76 velocity=100 time=0.028301899999999994
EXTRACT: note_on channel=9 note=42 velocity=75 time=0
EXTRACT: note_on channel=5 note=45 velocity=67 time=0.004716983333333332
EXTRACT: note_on channel=9 note=42 velocity=0 time=0.028301899999999994
EXTRACT: note_on channel=5 note=57 velocity=0 time=0.1886793333333333
EXTRACT: note_on channel=5 note=52 velocity=0 time=0
EXTRACT: note_on channel=5 note=69 velocity=0 time=0
EXTRACT: note_on channel=5 note=60 velocity=0 time=0.009433966666666665
EXTRACT: note_on channel=5 note=64 velocity=0 time=0.004716983333333332
EXTRACT: note_on channel=5 note=52 velocity=66 time=0.014150949999999997
EXTRACT: note_on channel=5 note=57 velocity=66 time=0
EXTRACT: note_on channel=5 note=60 velocity=66 time=0
EXTRACT: note_on channel=5 note=69 velocity=66 time=0
EXTRACT: note_on channel=5 note=64 velocity=66 time=0.004716983333333332
EXTRACT: note_on channel=9 note=42 velocity=54 time=0.028301899999999994
EXTRACT: note_on channel=9 note=42 velocity=0 time=0.033018883333333325
EXTRACT: note_on channel=8 note=76 velocity=0 time=0.24056614999999995
EXTRACT: note_on channel=5 note=45 velocity=0 time=0.009433966666666665
EXTRACT: note_on channel=9 note=42 velocity=75 time=0
EXTRACT: note_on channel=5 note=45 velocity=67 time=0.004716983333333332
EXTRACT: note_on channel=8 note=74 velocity=100 time=0
EXTRACT: note_on channel=9 note=42 velocity=0 time=0.028301899999999994
EXTRACT: note_on channel=8 note=74 velocity=0 time=0.1745283833333333
EXTRACT: note_on channel=5 note=69 velocity=0 time=0.051886816666666655
EXTRACT: note_on channel=5 note=52 velocity=0 time=0
EXTRACT: note_on channel=5 note=60 velocity=0 time=0
EXTRACT: note_on channel=5 note=57 velocity=0 time=0
EXTRACT: note_on channel=5 note=64 velocity=0 time=0.004716983333333332
EXTRACT: note_on channel=5 note=57 velocity=66 time=0.004716983333333332
EXTRACT: note_on channel=5 note=69 velocity=66 time=0.004716983333333332
EXTRACT: note_on channel=5 note=60 velocity=66 time=0
EXTRACT: note_on channel=5 note=52 velocity=66 time=0.004716983333333332
EXTRACT: note_on channel=8 note=72 velocity=100 time=0
EXTRACT: note_on channel=5 note=64 velocity=66 time=0.004716983333333332
EXTRACT: note_on channel=9 note=42 velocity=56 time=0
EXTRACT: note_on channel=9 note=42 velocity=0 time=0.11320759999999998
EXTRACT: note_on channel=8 note=72 velocity=0 time=0.09433966666666666
EXTRACT: note_on channel=5 note=52 velocity=0 time=0.07547173333333332
EXTRACT: note_on channel=8 note=74 velocity=100 time=0.004716983333333332
EXTRACT: note_on channel=9 note=42 velocity=75 time=0
EXTRACT: note_on channel=5 note=45 velocity=0 time=0.009433966666666665
EXTRACT: note_on channel=5 note=52 velocity=66 time=0
EXTRACT: note_on channel=9 note=42 velocity=0 time=0.023584916666666664
EXTRACT: note_on channel=8 note=74 velocity=0 time=0.18396234999999997
EXTRACT: note_on channel=9 note=42 velocity=58 time=0.06132078333333332
EXTRACT: note_on channel=5 note=52 velocity=0 time=0.009433966666666665
EXTRACT: note_on channel=5 note=52 velocity=66 time=0
EXTRACT: note_on channel=8 note=72 velocity=100 time=0
EXTRACT: note_on channel=9 note=42 velocity=0 time=0.023584916666666664
EXTRACT: note_on channel=9 note=42 velocity=40 time=0.10849061666666665
EXTRACT: note_on channel=8 note=72 velocity=0 time=0.08490569999999999
EXTRACT: note_on channel=9 note=42 velocity=0 time=0
EXTRACT: note_on channel=5 note=69 velocity=0 time=0.03773586666666666
EXTRACT: note_on channel=5 note=64 velocity=0 time=0.004716983333333332
EXTRACT: note_on channel=5 note=57 velocity=0 time=0
EXTRACT: note_on channel=5 note=60 velocity=0 time=0
EXTRACT: note_on channel=5 note=67 velocity=70 time=0.014150949999999997
EXTRACT: note_on channel=5 note=59 velocity=70 time=0
EXTRACT: note_on channel=9 note=42 velocity=75 time=0
EXTRACT: note_on channel=5 note=52 velocity=0 time=0.004716983333333332
EXTRACT: note_on channel=5 note=64 velocity=70 time=0
EXTRACT: note_on channel=5 note=52 velocity=66 time=0
EXTRACT: note_on channel=8 note=71 velocity=100 time=0
EXTRACT: note_on channel=5 note=71 velocity=66 time=0.004716983333333332
EXTRACT: note_on channel=9 note=42 velocity=0 time=0.023584916666666664
EXTRACT: note_on channel=5 note=52 velocity=0 time=0.2500001166666666
EXTRACT: note_on channel=5 note=52 velocity=66 time=0
EXTRACT: note_on channel=9 note=42 velocity=52 time=0
EXTRACT: note_on channel=9 note=42 velocity=0 time=0.033018883333333325
EXTRACT: note_on channel=5 note=52 velocity=0 time=0.2452831333333333
EXTRACT: note_on channel=9 note=42 velocity=75 time=0.004716983333333332
EXTRACT: note_on channel=5 note=52 velocity=66 time=0.004716983333333332
EXTRACT: note_on channel=8 note=71 velocity=0 time=0.009433966666666665
EXTRACT: note_on channel=9 note=42 velocity=0 time=0.01886793333333333
EXTRACT: note_on channel=5 note=67 velocity=0 time=0.21226424999999996
EXTRACT: note_on channel=5 note=71 velocity=0 time=0.014150949999999997
EXTRACT: note_on channel=5 note=59 velocity=0 time=0
EXTRACT: note_on channel=5 note=71 velocity=45 time=0.014150949999999997
EXTRACT: note_on channel=5 note=64 velocity=0 time=0.004716983333333332
EXTRACT: note_on channel=5 note=67 velocity=77 time=0
EXTRACT: note_on channel=5 note=59 velocity=56 time=0
EXTRACT: note_on channel=5 note=52 velocity=0 time=0.004716983333333332
EXTRACT: note_on channel=5 note=52 velocity=66 time=0
EXTRACT: note_on channel=5 note=64 velocity=85 time=0
EXTRACT: note_on channel=9 note=42 velocity=75 time=0
EXTRACT: note_on channel=9 note=42 velocity=0 time=0.033018883333333325
EXTRACT: note_on channel=5 note=52 velocity=0 time=0.2452831333333333
EXTRACT: note_on channel=9 note=42 velocity=75 time=0.004716983333333332
EXTRACT: note_on channel=5 note=52 velocity=66 time=0.004716983333333332
EXTRACT: note_on channel=9 note=42 velocity=0 time=0.028301899999999994
EXTRACT: note_on channel=5 note=71 velocity=0 time=0.19811329999999996
EXTRACT: note_on channel=5 note=67 velocity=0 time=0.004716983333333332
EXTRACT: note_on channel=5 note=64 velocity=0 time=0.004716983333333332
EXTRACT: note_on channel=5 note=59 velocity=0 time=0.014150949999999997
EXTRACT: note_on channel=5 note=71 velocity=56 time=0.004716983333333332
EXTRACT: note_on channel=5 note=64 velocity=56 time=0
EXTRACT: note_on channel=5 note=67 velocity=56 time=0.004716983333333332
EXTRACT: note_on channel=5 note=59 velocity=56 time=0.004716983333333332
EXTRACT: note_on channel=5 note=52 velocity=0 time=0.014150949999999997
EXTRACT: note_on channel=9 note=42 velocity=75 time=0
EXTRACT: note_on channel=5 note=52 velocity=66 time=0.009433966666666665
EXTRACT: note_on channel=9 note=42 velocity=0 time=0.10377363333333331
EXTRACT: note_on channel=8 note=74 velocity=100 time=0.16981139999999997
EXTRACT: note_on channel=5 note=52 velocity=0 time=0.004716983333333332
EXTRACT: note_on channel=5 note=50 velocity=66 time=0
EXTRACT: note_on channel=9 note=42 velocity=75 time=0
EXTRACT: note_on channel=9 note=42 velocity=0 time=0.033018883333333325
EXTRACT: note_on channel=8 note=74 velocity=0 time=0.19811329999999996
EXTRACT: note_on channel=5 note=50 velocity=0 time=0.04716983333333333
EXTRACT: note_on channel=5 note=50 velocity=66 time=0
EXTRACT: note_on channel=9 note=42 velocity=58 time=0
EXTRACT: note_on channel=8 note=74 velocity=100 time=0.009433966666666665
EXTRACT: note_on channel=9 note=42 velocity=0 time=0.023584916666666664
EXTRACT: note_on channel=8 note=74 velocity=0 time=0.20754726666666662
EXTRACT: note_on channel=5 note=50 velocity=0 time=0.03773586666666666
EXTRACT: note_on channel=5 note=59 velocity=0 time=0
EXTRACT: note_on channel=5 note=71 velocity=0 time=0
EXTRACT: note_on channel=5 note=67 velocity=0 time=0
EXTRACT: note_on channel=5 note=64 velocity=0 time=0.004716983333333332
EXTRACT: note_on channel=9 note=42 velocity=75 time=0
EXTRACT: note_on channel=5 note=50 velocity=66 time=0.004716983333333332
EXTRACT: note_on channel=5 note=69 velocity=66 time=0
EXTRACT: note_on channel=5 note=66 velocity=67 time=0
EXTRACT: note_on channel=5 note=62 velocity=67 time=0.004716983333333332
EXTRACT: note_on channel=5 note=57 velocity=70 time=0
EXTRACT: note_on channel=8 note=74 velocity=100 time=0.004716983333333332
EXTRACT: note_on channel=9 note=42 velocity=0 time=0.01886793333333333
EXTRACT: note_on channel=8 note=74 velocity=0 time=0.21226424999999996
EXTRACT: note_on channel=5 note=50 velocity=0 time=0.03773586666666666
EXTRACT: note_on channel=5 note=50 velocity=66 time=0
EXTRACT: note_on channel=9 note=42 velocity=52 time=0
EXTRACT: note_on channel=8 note=74 velocity=100 time=0.01886793333333333
EXTRACT: note_on channel=9 note=42 velocity=0 time=0.014150949999999997
EXTRACT: note_on channel=8 note=74 velocity=0 time=0.19339631666666662
EXTRACT: note_on channel=5 note=50 velocity=0 time=0.051886816666666655
EXTRACT: note_on channel=8 note=76 velocity=100 time=0.004716983333333332
EXTRACT: note_on channel=9 note=42 velocity=75 time=0
EXTRACT: note_on channel=5 note=50 velocity=66 time=0.004716983333333332
EXTRACT: note_on channel=9 note=42 velocity=0 time=0.028301899999999994
EXTRACT: note_on channel=5 note=57 velocity=0 time=0.2311321833333333
EXTRACT: note_on channel=5 note=69 velocity=0 time=0
EXTRACT: note_on channel=5 note=62 velocity=0 time=0.009433966666666665
EXTRACT: note_on channel=5 note=66 velocity=0 time=0.004716983333333332
EXTRACT: note_on channel=5 note=50 velocity=0 time=0.004716983333333332
EXTRACT: note_on channel=5 note=57 velocity=66 time=0
EXTRACT: note_on channel=5 note=62 velocity=66 time=0
EXTRACT: note_on channel=5 note=69 velocity=66 time=0
EXTRACT: note_on channel=5 note=50 velocity=66 time=0
EXTRACT: note_on channel=9 note=42 velocity=75 time=0
EXTRACT: note_on channel=5 note=66 velocity=66 time=0.009433966666666665
EXTRACT: note_on channel=9 note=42 velocity=0 time=0.023584916666666664
EXTRACT: note_on channel=5 note=50 velocity=0 time=0.2452831333333333
EXTRACT: note_on channel=5 note=50 velocity=66 time=0.004716983333333332
EXTRACT: note_on channel=9 note=42 velocity=75 time=0
EXTRACT: note_on channel=8 note=76 velocity=0 time=0.014150949999999997
EXTRACT: note_on channel=8 note=72 velocity=100 time=0
EXTRACT: note_on channel=9 note=42 velocity=0 time=0.01886793333333333
EXTRACT: note_on channel=8 note=72 velocity=0 time=0.22169821666666661
EXTRACT: note_on channel=5 note=66 velocity=0 time=0.009433966666666665
EXTRACT: note_on channel=5 note=69 velocity=0 time=0.004716983333333332
EXTRACT: note_on channel=5 note=57 velocity=0 time=0.009433966666666665
EXTRACT: note_on channel=5 note=62 velocity=0 time=0
EXTRACT: note_on channel=5 note=50 velocity=0 time=0
EXTRACT: note_on channel=5 note=50 velocity=66 time=0.004716983333333332
EXTRACT: note_on channel=5 note=57 velocity=66 time=0
EXTRACT: note_on channel=9 note=42 velocity=75 time=0
EXTRACT: note_on channel=8 note=71 velocity=100 time=0.004716983333333332
EXTRACT: note_on channel=5 note=62 velocity=66 time=0.004716983333333332
EXTRACT: note_on channel=5 note=69 velocity=66 time=0.004716983333333332
EXTRACT: note_on channel=5 note=66 velocity=66 time=0
EXTRACT: note_on channel=9 note=42 velocity=0 time=0.09905664999999998
EXTRACT: note_on channel=8 note=71 velocity=0 time=0.12735855
EXTRACT: note_on channel=5 note=50 velocity=0 time=0.03773586666666666
EXTRACT: note_on channel=9 note=42 velocity=75 time=0.009433966666666665
EXTRACT: note_on channel=5 note=45 velocity=67 time=0.004716983333333332
EXTRACT: note_on channel=8 note=72 velocity=100 time=0.004716983333333332
EXTRACT: note_on channel=9 note=42 velocity=0 time=0.023584916666666664
EXTRACT: note_on channel=8 note=72 velocity=0 time=0.2169812333333333
EXTRACT: note_on channel=9 note=42 velocity=58 time=0.028301899999999994
EXTRACT: note_on channel=8 note=71 velocity=100 time=0.009433966666666665
EXTRACT: note_on channel=5 note=45 velocity=0 time=0.004716983333333332
EXTRACT: note_on channel=5 note=45 velocity=67 time=0.004716983333333332
EXTRACT: note_on channel=9 note=42 velocity=0 time=0.014150949999999997
EXTRACT: note_on channel=9 note=42 velocity=40 time=0.10849061666666665
EXTRACT: note_on channel=9 note=42 velocity=0 time=0.08490569999999999
EXTRACT: note_on channel=5 note=66 velocity=0 time=0.04716983333333333
EXTRACT: note_on channel=5 note=69 velocity=0 time=0
EXTRACT: note_on channel=5 note=57 velocity=0 time=0
EXTRACT: note_on channel=5 note=45 velocity=0 time=0.004716983333333332
EXTRACT: note_on channel=5 note=62 velocity=0 time=0.004716983333333332
EXTRACT: note_on channel=8 note=69 velocity=100 time=0
EXTRACT: note_on channel=9 note=42 velocity=75 time=0
EXTRACT: note_on channel=5 note=52 velocity=34 time=0.004716983333333332
EXTRACT: note_on channel=5 note=45 velocity=67 time=0.004716983333333332
EXTRACT: note_on channel=5 note=69 velocity=66 time=0
EXTRACT: note_on channel=5 note=64 velocity=67 time=0
EXTRACT: note_on channel=5 note=60 velocity=67 time=0
EXTRACT: note_on channel=5 note=57 velocity=70 time=0
EXTRACT: note_on channel=8 note=71 velocity=0 time=0
EXTRACT: note_on channel=9 note=42 velocity=0 time=0.023584916666666664
EXTRACT: note_on channel=5 note=45 velocity=0 time=0.2358491666666666
EXTRACT: note_on channel=5 note=45 velocity=67 time=0.014150949999999997
EXTRACT: note_on channel=9 note=42 velocity=52 time=0
EXTRACT: note_on channel=9 note=42 velocity=0 time=0.033018883333333325
EXTRACT: note_on channel=5 note=45 velocity=0 time=0.22641519999999996
EXTRACT: note_on channel=8 note=69 velocity=0 time=0.023584916666666664
EXTRACT: note_on channel=9 note=42 velocity=75 time=0
EXTRACT: note_on channel=5 note=45 velocity=67 time=0.009433966666666665
EXTRACT: note_on channel=9 note=42 velocity=0 time=0.023584916666666664
EXTRACT: note_on channel=5 note=69 velocity=0 time=0.2028302833333333
EXTRACT: note_on channel=5 note=64 velocity=0 time=0
EXTRACT: note_on channel=5 note=60 velocity=0 time=0.004716983333333332
EXTRACT: note_on channel=5 note=52 velocity=0 time=0
EXTRACT: note_on channel=5 note=57 velocity=0 time=0
EXTRACT: note_on channel=5 note=52 velocity=66 time=0.014150949999999997
EXTRACT: note_on channel=5 note=57 velocity=66 time=0
EXTRACT: note_on channel=5 note=60 velocity=66 time=0
EXTRACT: note_on channel=5 note=69 velocity=66 time=0
EXTRACT: note_on channel=5 note=64 velocity=66 time=0.004716983333333332
EXTRACT: note_on channel=5 note=45 velocity=0 time=0.009433966666666665
EXTRACT: note_on channel=5 note=45 velocity=67 time=0.004716983333333332
EXTRACT: note_on channel=9 note=42 velocity=75 time=0.009433966666666665
EXTRACT: note_on channel=9 note=42 velocity=0 time=0.01886793333333333
EXTRACT: note_on channel=5 note=45 velocity=0 time=0.2311321833333333
EXTRACT: note_on channel=9 note=42 velocity=75 time=0.033018883333333325
EXTRACT: note_on channel=5 note=45 velocity=67 time=0.009433966666666665
EXTRACT: note_on channel=9 note=42 velocity=0 time=0.009433966666666665
EXTRACT: note_on channel=5 note=57 velocity=0 time=0.2452831333333333
EXTRACT: note_on channel=5 note=52 velocity=0 time=0
EXTRACT: note_on channel=5 note=60 velocity=0 time=0
EXTRACT: note_on channel=5 note=69 velocity=0 time=0
EXTRACT: note_on channel=5 note=64 velocity=0 time=0.004716983333333332
EXTRACT: note_on channel=5 note=57 velocity=66 time=0.004716983333333332
EXTRACT: note_on channel=5 note=69 velocity=66 time=0.004716983333333332
EXTRACT: note_on channel=5 note=60 velocity=66 time=0
EXTRACT: note_on channel=5 note=52 velocity=66 time=0.004716983333333332
EXTRACT: note_on channel=9 note=42 velocity=75 time=0
EXTRACT: note_on channel=5 note=45 velocity=0 time=0.004716983333333332
EXTRACT: note_on channel=5 note=45 velocity=67 time=0
EXTRACT: note_on channel=5 note=64 velocity=66 time=0
EXTRACT: note_on channel=9 note=42 velocity=0 time=0.014150949999999997
EXTRACT: note_on channel=5 note=45 velocity=0 time=0
EXTRACT: note_on channel=5 note=45 velocity=67 time=0
EXTRACT: note_on channel=9 note=42 velocity=75 time=0
EXTRACT: note_on channel=9 note=35 velocity=75 time=0
EXTRACT: note_on channel=9 note=75 velocity=46 time=0.004716983333333332
EXTRACT: note_on channel=8 note=69 velocity=100 time=0.014150949999999997
EXTRACT: note_on channel=9 note=35 velocity=0 time=0.014150949999999997
EXTRACT: note_on channel=9 note=42 velocity=0 time=0
EXTRACT: note_on channel=9 note=75 velocity=0 time=0.004716983333333332
EXTRACT: note_on channel=8 note=69 velocity=0 time=0.2169812333333333
EXTRACT: note_on channel=9 note=42 velocity=60 time=0.028301899999999994
EXTRACT: note_on channel=5 note=45 velocity=0 time=0.004716983333333332
EXTRACT: note_on channel=5 note=45 velocity=67 time=0.004716983333333332
EXTRACT: note_on channel=8 note=71 velocity=100 time=0.009433966666666665
EXTRACT: note_on channel=9 note=42 velocity=0 time=0.014150949999999997
EXTRACT: note_on channel=8 note=71 velocity=0 time=0.20754726666666662
EXTRACT: note_on channel=5 note=45 velocity=0 time=0.028301899999999994
EXTRACT: note_on channel=5 note=57 velocity=0 time=0.004716983333333332
EXTRACT: note_on channel=5 note=64 velocity=0 time=0
EXTRACT: note_on channel=5 note=69 velocity=0 time=0.004716983333333332
EXTRACT: note_on channel=5 note=52 velocity=0 time=0
EXTRACT: note_on channel=5 note=52 velocity=34 time=0
EXTRACT: note_on channel=5 note=45 velocity=67 time=0.004716983333333332
EXTRACT: note_on channel=5 note=69 velocity=66 time=0
EXTRACT: note_on channel=5 note=64 velocity=67 time=0
EXTRACT: note_on channel=5 note=60 velocity=67 time=0
EXTRACT: note_on channel=5 note=57 velocity=70 time=0
EXTRACT: note_on channel=9 note=75 velocity=56 time=0
EXTRACT: note_on channel=9 note=42 velocity=75 time=0
EXTRACT: note_on channel=9 note=27 velocity=75 time=0
EXTRACT: note_on channel=9 note=39 velocity=75 time=0
EXTRACT: note_on channel=5 note=60 velocity=0 time=0.004716983333333332
EXTRACT: note_on channel=8 note=72 velocity=100 time=0.004716983333333332
EXTRACT: note_on channel=9 note=39 velocity=0 time=0.023584916666666664
EXTRACT: note_on channel=9 note=75 velocity=0 time=0
EXTRACT: note_on channel=9 note=42 velocity=0 time=0
EXTRACT: note_on channel=9 note=27 velocity=0 time=0
EXTRACT: note_on channel=8 note=72 velocity=0 time=0.20754726666666662
EXTRACT: note_on channel=5 note=45 velocity=0 time=0.01886793333333333
EXTRACT: note_on channel=5 note=45 velocity=67 time=0.014150949999999997
EXTRACT: note_on channel=9 note=42 velocity=75 time=0.009433966666666665
EXTRACT: note_on channel=9 note=35 velocity=75 time=0
EXTRACT: note_on channel=9 note=27 velocity=75 time=0
EXTRACT: note_on channel=9 note=75 velocity=44 time=0
EXTRACT: note_on channel=8 note=74 velocity=100 time=0.009433966666666665
EXTRACT: note_on channel=9 note=75 velocity=0 time=0.023584916666666664
EXTRACT: note_on channel=9 note=42 velocity=0 time=0
EXTRACT: note_on channel=9 note=35 velocity=0 time=0
EXTRACT: note_on channel=9 note=27 velocity=0 time=0
EXTRACT: note_on channel=9 note=35 velocity=100 time=0.1179245833333333
EXTRACT: note_on channel=9 note=35 velocity=0 time=0.07075474999999999
EXTRACT: note_on channel=8 note=74 velocity=0 time=0.01886793333333333
EXTRACT: note_on channel=5 note=45 velocity=0 time=0.009433966666666665
EXTRACT: note_on channel=5 note=45 velocity=67 time=0.033018883333333325
EXTRACT: note_on channel=9 note=42 velocity=75 time=0
EXTRACT: note_on channel=9 note=27 velocity=75 time=0
EXTRACT: note_on channel=8 note=76 velocity=100 time=0.004716983333333332
EXTRACT: note_on channel=9 note=35 velocity=75 time=0.004716983333333332
EXTRACT: note_on channel=9 note=27 velocity=0 time=0.023584916666666664
EXTRACT: note_on channel=9 note=42 velocity=0 time=0
EXTRACT: note_on channel=9 note=35 velocity=0 time=0.009433966666666665
EXTRACT: note_on channel=5 note=57 velocity=0 time=0.1745283833333333
EXTRACT: note_on channel=5 note=52 velocity=0 time=0
EXTRACT: note_on channel=5 note=69 velocity=0 time=0
EXTRACT: note_on channel=5 note=60 velocity=0 time=0.009433966666666665
EXTRACT: note_on channel=5 note=64 velocity=0 time=0.004716983333333332
EXTRACT: note_on channel=5 note=52 velocity=66 time=0.014150949999999997
EXTRACT: note_on channel=5 note=57 velocity=66 time=0
EXTRACT: note_on channel=5 note=60 velocity=66 time=0
EXTRACT: note_on channel=5 note=69 velocity=66 time=0
EXTRACT: note_on channel=5 note=64 velocity=66 time=0.004716983333333332
EXTRACT: note_on channel=5 note=45 velocity=0 time=0.009433966666666665
EXTRACT: note_on channel=5 note=45 velocity=67 time=0.004716983333333332
EXTRACT: note_on channel=9 note=75 velocity=46 time=0.01886793333333333
EXTRACT: note_on channel=9 note=42 velocity=54 time=0
EXTRACT: note_on channel=9 note=42 velocity=0 time=0.033018883333333325
EXTRACT: note_on channel=9 note=75 velocity=0 time=0
EXTRACT: note_on channel=5 note=45 velocity=0 time=0.20754726666666662
EXTRACT: note_on channel=8 note=76 velocity=0 time=0.03773586666666666
EXTRACT: note_on channel=5 note=45 velocity=67 time=0.004716983333333332
EXTRACT: note_on channel=9 note=75 velocity=50 time=0
EXTRACT: note_on channel=9 note=42 velocity=75 time=0
EXTRACT: note_on channel=9 note=27 velocity=75 time=0
EXTRACT: note_on channel=9 note=39 velocity=75 time=0
EXTRACT: note_on channel=8 note=74 velocity=100 time=0.009433966666666665
EXTRACT: note_on channel=9 note=39 velocity=0 time=0.023584916666666664
EXTRACT: note_on channel=9 note=75 velocity=0 time=0
EXTRACT: note_on channel=9 note=42 velocity=0 time=0
EXTRACT: note_on channel=9 note=27 velocity=0 time=0
EXTRACT: note_on channel=8 note=74 velocity=0 time=0.20754726666666662
EXTRACT: note_on channel=5 note=57 velocity=0 time=0.014150949999999997
EXTRACT: note_on channel=5 note=52 velocity=0 time=0
EXTRACT: note_on channel=5 note=60 velocity=0 time=0
EXTRACT: note_on channel=5 note=69 velocity=0 time=0
EXTRACT: note_on channel=5 note=64 velocity=0 time=0.004716983333333332
EXTRACT: note_on channel=5 note=57 velocity=66 time=0.004716983333333332
EXTRACT: note_on channel=5 note=69 velocity=66 time=0.004716983333333332
EXTRACT: note_on channel=5 note=60 velocity=66 time=0
EXTRACT: note_on channel=5 note=52 velocity=66 time=0.004716983333333332
EXTRACT: note_on channel=5 note=45 velocity=0 time=0.004716983333333332
EXTRACT: note_on channel=5 note=45 velocity=67 time=0
EXTRACT: note_on channel=5 note=64 velocity=66 time=0
EXTRACT: note_on channel=8 note=72 velocity=100 time=0.004716983333333332
EXTRACT: note_on channel=9 note=42 velocity=56 time=0
EXTRACT: note_on channel=9 note=27 velocity=75 time=0
EXTRACT: note_on channel=9 note=75 velocity=50 time=0
EXTRACT: note_on channel=9 note=27 velocity=0 time=0.08962268333333331
EXTRACT: note_on channel=9 note=75 velocity=0 time=0.01886793333333333
EXTRACT: note_on channel=9 note=42 velocity=0 time=0.004716983333333332
EXTRACT: note_on channel=8 note=72 velocity=0 time=0.12264156666666665
EXTRACT: note_on channel=5 note=45 velocity=0 time=0.03773586666666666
EXTRACT: note_on channel=5 note=52 velocity=0 time=0.004716983333333332
EXTRACT: note_on channel=9 note=75 velocity=46 time=0.004716983333333332
EXTRACT: note_on channel=9 note=35 velocity=75 time=0
EXTRACT: note_on channel=9 note=42 velocity=75 time=0.004716983333333332
EXTRACT: note_on channel=5 note=52 velocity=66 time=0.004716983333333332
EXTRACT: note_on channel=8 note=74 velocity=100 time=0
EXTRACT: note_on channel=9 note=35 velocity=0 time=0.023584916666666664
EXTRACT: note_on channel=9 note=42 velocity=0 time=0.004716983333333332
EXTRACT: note_on channel=9 note=75 velocity=0 time=0.04716983333333333
EXTRACT: note_on channel=9 note=42 velocity=58 time=0.19811329999999996
EXTRACT: note_on channel=5 note=52 velocity=0 time=0.004716983333333332
EXTRACT: note_on channel=5 note=52 velocity=66 time=0
EXTRACT: note_on channel=8 note=74 velocity=0 time=0.004716983333333332
EXTRACT: note_on channel=8 note=72 velocity=100 time=0.004716983333333332
EXTRACT: note_on channel=9 note=42 velocity=0 time=0.01886793333333333
EXTRACT: note_on channel=9 note=42 velocity=40 time=0.10849061666666665
EXTRACT: note_on channel=9 note=42 velocity=0 time=0.08490569999999999
EXTRACT: note_on channel=5 note=69 velocity=0 time=0.033018883333333325
EXTRACT: note_on channel=5 note=64 velocity=0 time=0.004716983333333332
EXTRACT: note_on channel=5 note=57 velocity=0 time=0
EXTRACT: note_on channel=5 note=60 velocity=0 time=0
EXTRACT: note_on channel=5 note=67 velocity=70 time=0.014150949999999997
EXTRACT: note_on channel=5 note=59 velocity=70 time=0
EXTRACT: note_on channel=5 note=52 velocity=0 time=0.004716983333333332
EXTRACT: note_on channel=5 note=64 velocity=70 time=0
EXTRACT: note_on channel=5 note=52 velocity=66 time=0
EXTRACT: note_on channel=9 note=27 velocity=75 time=0
EXTRACT: note_on channel=9 note=75 velocity=56 time=0
EXTRACT: note_on channel=9 note=42 velocity=75 time=0
EXTRACT: note_on channel=9 note=39 velocity=75 time=0
EXTRACT: note_on channel=5 note=71 velocity=66 time=0.004716983333333332
EXTRACT: note_on channel=8 note=71 velocity=100 time=0.004716983333333332
EXTRACT: note_on channel=8 note=72 velocity=0 time=0.004716983333333332
EXTRACT: note_on channel=9 note=39 velocity=0 time=0.01886793333333333
EXTRACT: note_on channel=9 note=27 velocity=0 time=0
EXTRACT: note_on channel=9 note=75 velocity=0 time=0
EXTRACT: note_on channel=9 note=42 velocity=0 time=0
EXTRACT: note_on channel=5 note=52 velocity=0 time=0.2452831333333333
EXTRACT: note_on channel=5 note=52 velocity=66 time=0
EXTRACT: note_on channel=9 note=75 velocity=44 time=0.004716983333333332
EXTRACT: note_on channel=9 note=42 velocity=52 time=0
EXTRACT: note_on channel=9 note=27 velocity=75 time=0
EXTRACT: note_on channel=9 note=35 velocity=75 time=0
EXTRACT: note_on channel=9 note=35 velocity=0 time=0.033018883333333325
EXTRACT: note_on channel=9 note=75 velocity=0 time=0
EXTRACT: note_on channel=9 note=42 velocity=0 time=0
EXTRACT: note_on channel=9 note=27 velocity=0 time=0
EXTRACT: note_on channel=9 note=35 velocity=75 time=0.09905664999999998
EXTRACT: note_on channel=9 note=35 velocity=0 time=0.033018883333333325
EXTRACT: note_on channel=5 note=52 velocity=0 time=0.10849061666666665
EXTRACT: note_on channel=5 note=52 velocity=66 time=0.009433966666666665
EXTRACT: note_on channel=9 note=42 velocity=75 time=0
EXTRACT: note_on channel=9 note=27 velocity=75 time=0
EXTRACT: note_on channel=9 note=75 velocity=46 time=0
EXTRACT: note_on channel=9 note=35 velocity=75 time=0.014150949999999997
EXTRACT: note_on channel=8 note=71 velocity=0 time=0.004716983333333332
EXTRACT: note_on channel=9 note=75 velocity=0 time=0.014150949999999997
EXTRACT: note_on channel=9 note=42 velocity=0 time=0
EXTRACT: note_on channel=9 note=27 velocity=0 time=0
EXTRACT: note_on channel=9 note=35 velocity=0 time=0.014150949999999997
EXTRACT: note_on channel=5 note=67 velocity=0 time=0.19339631666666662
EXTRACT: note_on channel=5 note=71 velocity=0 time=0.014150949999999997
EXTRACT: note_on channel=5 note=59 velocity=0 time=0
EXTRACT: note_on channel=5 note=71 velocity=45 time=0.014150949999999997
EXTRACT: note_on channel=5 note=64 velocity=0 time=0.004716983333333332
EXTRACT: note_on channel=5 note=67 velocity=77 time=0
EXTRACT: note_on channel=5 note=59 velocity=56 time=0
EXTRACT: note_on channel=5 note=52 velocity=0 time=0.004716983333333332
EXTRACT: note_on channel=5 note=52 velocity=66 time=0
EXTRACT: note_on channel=5 note=64 velocity=85 time=0
EXTRACT: note_on channel=9 note=42 velocity=75 time=0.004716983333333332
EXTRACT: note_on channel=9 note=42 velocity=0 time=0.033018883333333325
EXTRACT: note_on channel=5 note=52 velocity=0 time=0.24056614999999995
EXTRACT: note_on channel=5 note=52 velocity=66 time=0.009433966666666665
EXTRACT: note_on channel=9 note=75 velocity=50 time=0
EXTRACT: note_on channel=9 note=42 velocity=75 time=0
EXTRACT: note_on channel=9 note=39 velocity=75 time=0
EXTRACT: note_on channel=9 note=27 velocity=75 time=0
EXTRACT: note_on channel=9 note=27 velocity=0 time=0.033018883333333325
EXTRACT: note_on channel=9 note=75 velocity=0 time=0
EXTRACT: note_on channel=9 note=42 velocity=0 time=0
EXTRACT: note_on channel=9 note=39 velocity=0 time=0
EXTRACT: note_on channel=5 note=71 velocity=0 time=0.19339631666666662
EXTRACT: note_on channel=5 note=67 velocity=0 time=0.004716983333333332
EXTRACT: note_on channel=5 note=64 velocity=0 time=0.004716983333333332
EXTRACT: note_on channel=5 note=59 velocity=0 time=0.014150949999999997
EXTRACT: note_on channel=5 note=71 velocity=56 time=0.004716983333333332
EXTRACT: note_on channel=5 note=64 velocity=56 time=0
EXTRACT: note_on channel=5 note=67 velocity=56 time=0.004716983333333332
EXTRACT: note_on channel=5 note=59 velocity=56 time=0.004716983333333332
EXTRACT: note_on channel=5 note=52 velocity=0 time=0.014150949999999997
EXTRACT: note_on channel=9 note=42 velocity=75 time=0.004716983333333332
EXTRACT: note_on channel=9 note=27 velocity=75 time=0
EXTRACT: note_on channel=9 note=75 velocity=50 time=0
EXTRACT: note_on channel=5 note=52 velocity=66 time=0.004716983333333332
EXTRACT: note_on channel=9 note=27 velocity=0 time=0.08490569999999999
EXTRACT: note_on channel=9 note=75 velocity=0 time=0.01886793333333333
EXTRACT: note_on channel=9 note=42 velocity=0 time=0.004716983333333332
EXTRACT: note_on channel=5 note=52 velocity=0 time=0.16981139999999997
EXTRACT: note_on channel=5 note=50 velocity=66 time=0
EXTRACT: note_on channel=9 note=75 velocity=46 time=0
EXTRACT: note_on channel=9 note=35 velocity=75 time=0
EXTRACT: note_on channel=8 note=74 velocity=100 time=0.004716983333333332
EXTRACT: note_on channel=9 note=42 velocity=75 time=0
EXTRACT: note_on channel=9 note=35 velocity=0 time=0.028301899999999994
EXTRACT: note_on channel=9 note=42 velocity=0 time=0.004716983333333332
EXTRACT: note_on channel=9 note=75 velocity=0 time=0.04716983333333333
EXTRACT: note_on channel=8 note=74 velocity=0 time=0.16981139999999997
EXTRACT: note_on channel=5 note=50 velocity=0 time=0.023584916666666664
EXTRACT: note_on channel=5 note=50 velocity=66 time=0
EXTRACT: note_on channel=9 note=42 velocity=58 time=0.004716983333333332
EXTRACT: note_on channel=8 note=74 velocity=100 time=0.014150949999999997
EXTRACT: note_on channel=9 note=42 velocity=0 time=0.01886793333333333
EXTRACT: note_on channel=8 note=74 velocity=0 time=0.20754726666666662
EXTRACT: note_on channel=5 note=50 velocity=0 time=0.033018883333333325
EXTRACT: note_on channel=5 note=59 velocity=0 time=0
EXTRACT: note_on channel=5 note=71 velocity=0 time=0
EXTRACT: note_on channel=5 note=67 velocity=0 time=0
EXTRACT: note_on channel=5 note=64 velocity=0 time=0.004716983333333332
EXTRACT: note_on channel=5 note=50 velocity=66 time=0.004716983333333332
EXTRACT: note_on channel=5 note=69 velocity=66 time=0
EXTRACT: note_on channel=5 note=66 velocity=67 time=0
EXTRACT: note_on channel=9 note=27 velocity=75 time=0
EXTRACT: note_on channel=9 note=39 velocity=75 time=0
EXTRACT: note_on channel=9 note=42 velocity=75 time=0
EXTRACT: note_on channel=9 note=75 velocity=56 time=0
EXTRACT: note_on channel=5 note=62 velocity=67 time=0.004716983333333332
EXTRACT: note_on channel=5 note=57 velocity=70 time=0
EXTRACT: note_on channel=8 note=74 velocity=100 time=0.014150949999999997
EXTRACT: note_on channel=9 note=75 velocity=0 time=0.014150949999999997
EXTRACT: note_on channel=9 note=27 velocity=0 time=0
EXTRACT: note_on channel=9 note=39 velocity=0 time=0
EXTRACT: note_on channel=9 note=42 velocity=0 time=0
EXTRACT: note_on channel=8 note=74 velocity=0 time=0.2358491666666666
EXTRACT: note_on channel=5 note=50 velocity=0 time=0.009433966666666665
EXTRACT: note_on channel=5 note=50 velocity=66 time=0
EXTRACT: note_on channel=9 note=75 velocity=44 time=0.004716983333333332
EXTRACT: note_on channel=9 note=42 velocity=52 time=0
EXTRACT: note_on channel=9 note=35 velocity=75 time=0
EXTRACT: note_on channel=9 note=27 velocity=75 time=0
EXTRACT: note_on channel=8 note=74 velocity=100 time=0.023584916666666664
EXTRACT: note_on channel=9 note=27 velocity=0 time=0.009433966666666665
EXTRACT: note_on channel=9 note=75 velocity=0 time=0
EXTRACT: note_on channel=9 note=42 velocity=0 time=0
EXTRACT: note_on channel=9 note=35 velocity=0 time=0
EXTRACT: note_on channel=9 note=35 velocity=75 time=0.09433966666666666
EXTRACT: note_on channel=9 note=35 velocity=0 time=0.033018883333333325
EXTRACT: note_on channel=8 note=74 velocity=0 time=0.08962268333333331
EXTRACT: note_on channel=5 note=50 velocity=0 time=0.023584916666666664
EXTRACT: note_on channel=5 note=50 velocity=66 time=0.009433966666666665
EXTRACT: note_on channel=9 note=75 velocity=46 time=0
EXTRACT: note_on channel=9 note=42 velocity=75 time=0
EXTRACT: note_on channel=9 note=27 velocity=75 time=0
EXTRACT: note_on channel=8 note=76 velocity=100 time=0.004716983333333332
EXTRACT: note_on channel=9 note=35 velocity=75 time=0
EXTRACT: note_on channel=9 note=27 velocity=0 time=0.028301899999999994
EXTRACT: note_on channel=9 note=75 velocity=0 time=0
EXTRACT: note_on channel=9 note=42 velocity=0 time=0
EXTRACT: note_on channel=9 note=35 velocity=0 time=0.004716983333333332
EXTRACT: note_on channel=5 note=57 velocity=0 time=0.22169821666666661
EXTRACT: note_on channel=5 note=69 velocity=0 time=0
EXTRACT: note_on channel=5 note=62 velocity=0 time=0.009433966666666665
EXTRACT: note_on channel=5 note=66 velocity=0 time=0.004716983333333332
EXTRACT: note_on channel=5 note=50 velocity=0 time=0.004716983333333332
EXTRACT: note_on channel=5 note=57 velocity=66 time=0
EXTRACT: note_on channel=5 note=62 velocity=66 time=0
EXTRACT: note_on channel=5 note=69 velocity=66 time=0
EXTRACT: note_on channel=5 note=50 velocity=66 time=0
EXTRACT: note_on channel=9 note=42 velocity=75 time=0.004716983333333332
EXTRACT: note_on channel=5 note=66 velocity=66 time=0.004716983333333332
EXTRACT: note_on channel=9 note=42 velocity=0 time=0.028301899999999994
EXTRACT: note_on channel=5 note=50 velocity=0 time=0.24056614999999995
EXTRACT: note_on channel=5 note=50 velocity=66 time=0.004716983333333332
EXTRACT: note_on channel=9 note=75 velocity=50 time=0.004716983333333332
EXTRACT: note_on channel=9 note=27 velocity=75 time=0
EXTRACT: note_on channel=9 note=39 velocity=75 time=0
EXTRACT: note_on channel=9 note=42 velocity=75 time=0
EXTRACT: note_on channel=8 note=76 velocity=0 time=0.01886793333333333
EXTRACT: note_on channel=8 note=72 velocity=100 time=0
EXTRACT: note_on channel=9 note=42 velocity=0 time=0.014150949999999997
EXTRACT: note_on channel=9 note=75 velocity=0 time=0
EXTRACT: note_on channel=9 note=27 velocity=0 time=0
EXTRACT: note_on channel=9 note=39 velocity=0 time=0
EXTRACT: note_on channel=8 note=72 velocity=0 time=0.21226424999999996
EXTRACT: note_on channel=5 note=66 velocity=0 time=0.014150949999999997
EXTRACT: note_on channel=5 note=69 velocity=0 time=0.004716983333333332
EXTRACT: note_on channel=5 note=57 velocity=0 time=0.009433966666666665
EXTRACT: note_on channel=5 note=62 velocity=0 time=0
EXTRACT: note_on channel=5 note=50 velocity=0 time=0
EXTRACT: note_on channel=5 note=50 velocity=66 time=0.004716983333333332
EXTRACT: note_on channel=5 note=57 velocity=66 time=0
EXTRACT: note_on channel=9 note=42 velocity=75 time=0.004716983333333332
EXTRACT: note_on channel=9 note=27 velocity=75 time=0
EXTRACT: note_on channel=9 note=75 velocity=50 time=0
EXTRACT: note_on channel=5 note=62 velocity=66 time=0.004716983333333332
EXTRACT: note_on channel=5 note=69 velocity=66 time=0.004716983333333332
EXTRACT: note_on channel=5 note=66 velocity=66 time=0
EXTRACT: note_on channel=8 note=71 velocity=100 time=0
EXTRACT: note_on channel=9 note=27 velocity=0 time=0.08018871666666665
EXTRACT: note_on channel=9 note=75 velocity=0 time=0.01886793333333333
EXTRACT: note_on channel=9 note=42 velocity=0 time=0.004716983333333332
EXTRACT: note_on channel=8 note=71 velocity=0 time=0.11320759999999998
EXTRACT: note_on channel=5 note=50 velocity=0 time=0.04716983333333333
EXTRACT: note_on channel=9 note=75 velocity=46 time=0.009433966666666665
EXTRACT: note_on channel=9 note=35 velocity=75 time=0
EXTRACT: note_on channel=5 note=45 velocity=67 time=0.004716983333333332
EXTRACT: note_on channel=9 note=42 velocity=75 time=0
EXTRACT: note_on channel=8 note=72 velocity=100 time=0.014150949999999997
EXTRACT: note_on channel=9 note=35 velocity=0 time=0.014150949999999997
EXTRACT: note_on channel=9 note=42 velocity=0 time=0.004716983333333332
EXTRACT: note_on channel=9 note=75 velocity=0 time=0.04716983333333333
EXTRACT: note_on channel=9 note=42 velocity=58 time=0.19811329999999996
EXTRACT: note_on channel=5 note=45 velocity=0 time=0.009433966666666665
EXTRACT: note_on channel=5 note=45 velocity=67 time=0.004716983333333332
EXTRACT: note_on channel=8 note=71 velocity=100 time=0
EXTRACT: note_on channel=8 note=72 velocity=0 time=0.004716983333333332
EXTRACT: note_on channel=9 note=42 velocity=0 time=0.014150949999999997
EXTRACT: note_on channel=9 note=42 velocity=40 time=0.10849061666666665
EXTRACT: note_on channel=9 note=42 velocity=0 time=0.08490569999999999
EXTRACT: note_on channel=5 note=66 velocity=0 time=0.04245284999999999
EXTRACT: note_on channel=5 note=69 velocity=0 time=0
EXTRACT: note_on channel=5 note=57 velocity=0 time=0
EXTRACT: note_on channel=5 note=45 velocity=0 time=0.004716983333333332
EXTRACT: note_on channel=5 note=62 velocity=0 time=0.004716983333333332
EXTRACT: note_on channel=5 note=52 velocity=34 time=0.004716983333333332
EXTRACT: note_on channel=9 note=27 velocity=75 time=0
EXTRACT: note_on channel=9 note=75 velocity=56 time=0
EXTRACT: note_on channel=9 note=42 velocity=75 time=0
EXTRACT: note_on channel=9 note=39 velocity=75 time=0
EXTRACT: note_on channel=5 note=45 velocity=67 time=0.004716983333333332
EXTRACT: note_on channel=5 note=69 velocity=66 time=0
EXTRACT: note_on channel=5 note=64 velocity=67 time=0
EXTRACT: note_on channel=5 note=60 velocity=67 time=0
EXTRACT: note_on channel=5 note=57 velocity=70 time=0
EXTRACT: note_on channel=8 note=69 velocity=100 time=0
EXTRACT: note_on channel=8 note=71 velocity=0 time=0.009433966666666665
EXTRACT: note_on channel=9 note=39 velocity=0 time=0.01886793333333333
EXTRACT: note_on channel=9 note=27 velocity=0 time=0
EXTRACT: note_on channel=9 note=75 velocity=0 time=0
EXTRACT: note_on channel=9 note=42 velocity=0 time=0
EXTRACT: note_on channel=5 note=45 velocity=0 time=0.2311321833333333
EXTRACT: note_on channel=5 note=45 velocity=67 time=0.014150949999999997
EXTRACT: note_on channel=9 note=27 velocity=75 time=0.004716983333333332
EXTRACT: note_on channel=9 note=75 velocity=44 time=0
EXTRACT: note_on channel=9 note=42 velocity=52 time=0
EXTRACT: note_on channel=9 note=42 velocity=0 time=0.033018883333333325
EXTRACT: note_on channel=9 note=75 velocity=0 time=0
EXTRACT: note_on channel=9 note=27 velocity=0 time=0
EXTRACT: note_on channel=9 note=39 velocity=75 time=0.09433966666666666
EXTRACT: note_on channel=9 note=39 velocity=0 time=0.033018883333333325
EXTRACT: note_on channel=5 note=45 velocity=0 time=0.09433966666666666
EXTRACT: note_on channel=9 note=42 velocity=75 time=0.028301899999999994
EXTRACT: note_on channel=9 note=27 velocity=75 time=0
EXTRACT: note_on channel=9 note=75 velocity=46 time=0
EXTRACT: note_on channel=5 note=45 velocity=67 time=0.004716983333333332
EXTRACT: note_on channel=8 note=69 velocity=0 time=0
EXTRACT: note_on channel=9 note=35 velocity=75 time=0.004716983333333332
EXTRACT: note_on channel=9 note=35 velocity=0 time=0.01886793333333333
EXTRACT: note_on channel=9 note=42 velocity=0 time=0.004716983333333332
EXTRACT: note_on channel=9 note=27 velocity=0 time=0
EXTRACT: note_on channel=9 note=75 velocity=0 time=0
EXTRACT: note_on channel=5 note=69 velocity=0 time=0.19811329999999996
EXTRACT: note_on channel=5 note=64 velocity=0 time=0
EXTRACT: note_on channel=5 note=60 velocity=0 time=0.004716983333333332
EXTRACT: note_on channel=5 note=52 velocity=0 time=0
EXTRACT: note_on channel=5 note=57 velocity=0 time=0
EXTRACT: note_on channel=5 note=52 velocity=66 time=0.014150949999999997
EXTRACT: note_on channel=5 note=57 velocity=66 time=0
EXTRACT: note_on channel=5 note=60 velocity=66 time=0
EXTRACT: note_on channel=5 note=69 velocity=66 time=0
EXTRACT: note_on channel=5 note=64 velocity=66 time=0.004716983333333332
EXTRACT: note_on channel=5 note=45 velocity=0 time=0.009433966666666665
EXTRACT: note_on channel=5 note=45 velocity=67 time=0.004716983333333332
EXTRACT: note_on channel=9 note=42 velocity=75 time=0.014150949999999997
EXTRACT: note_on channel=9 note=42 velocity=0 time=0.01886793333333333
EXTRACT: note_on channel=9 note=35 velocity=75 time=0.004716983333333332
EXTRACT: note_on channel=9 note=35 velocity=0 time=0.033018883333333325
EXTRACT: note_on channel=9 note=35 velocity=75 time=0.08490569999999999
EXTRACT: note_on channel=9 note=39 velocity=52 time=0
EXTRACT: note_on channel=9 note=39 velocity=0 time=0.01886793333333333
EXTRACT: note_on channel=9 note=35 velocity=0 time=0.014150949999999997
EXTRACT: note_on channel=5 note=45 velocity=0 time=0.07075474999999999
EXTRACT: note_on channel=9 note=42 velocity=75 time=0.03773586666666666
EXTRACT: note_on channel=9 note=27 velocity=75 time=0
EXTRACT: note_on channel=9 note=75 velocity=50 time=0
EXTRACT: note_on channel=9 note=39 velocity=95 time=0
EXTRACT: note_on channel=5 note=45 velocity=67 time=0.004716983333333332
EXTRACT: note_on channel=9 note=35 velocity=75 time=0.009433966666666665
EXTRACT: note_on channel=9 note=39 velocity=0 time=0.004716983333333332
EXTRACT: note_on channel=9 note=75 velocity=0 time=0
EXTRACT: note_on channel=9 note=42 velocity=0 time=0
EXTRACT: note_on channel=9 note=27 velocity=0 time=0
EXTRACT: note_on channel=9 note=35 velocity=0 time=0.028301899999999994
EXTRACT: note_on channel=9 note=39 velocity=60 time=0.09433966666666666
EXTRACT: note_on channel=9 note=39 velocity=0 time=0.01886793333333333
EXTRACT: note_on channel=5 note=57 velocity=0 time=0.09905664999999998
EXTRACT: note_on channel=5 note=52 velocity=0 time=0
EXTRACT: note_on channel=5 note=60 velocity=0 time=0
EXTRACT: note_on channel=5 note=69 velocity=0 time=0
EXTRACT: note_on channel=5 note=64 velocity=0 time=0.004716983333333332
EXTRACT: note_on channel=5 note=57 velocity=66 time=0.004716983333333332
EXTRACT: note_on channel=5 note=69 velocity=66 time=0.004716983333333332
EXTRACT: note_on channel=5 note=60 velocity=66 time=0
EXTRACT: note_on channel=5 note=52 velocity=66 time=0.004716983333333332
EXTRACT: note_on channel=5 note=45 velocity=0 time=0.004716983333333332
EXTRACT: note_on channel=5 note=45 velocity=67 time=0
EXTRACT: note_on channel=5 note=64 velocity=66 time=0
EXTRACT: note_on channel=9 note=35 velocity=75 time=0
EXTRACT: note_on channel=9 note=75 velocity=50 time=0
EXTRACT: note_on channel=9 note=27 velocity=75 time=0
EXTRACT: note_on channel=9 note=39 velocity=78 time=0
EXTRACT: note_on channel=9 note=42 velocity=75 time=0
EXTRACT: note_on channel=9 note=42 velocity=0 time=0.01886793333333333
EXTRACT: note_on channel=9 note=27 velocity=0 time=0
EXTRACT: note_on channel=9 note=39 velocity=0 time=0
EXTRACT: note_on channel=9 note=75 velocity=0 time=0
EXTRACT: note_on channel=9 note=35 velocity=0 time=0.014150949999999997
EXTRACT: note_on channel=9 note=39 velocity=52 time=0.10849061666666665
EXTRACT: note_on channel=9 note=39 velocity=0 time=0.08018871666666665
EXTRACT: note_on channel=5 note=45 velocity=0 time=0.05660379999999999
EXTRACT: note_on channel=5 note=45 velocity=67 time=0
EXTRACT: note_on channel=9 note=42 velocity=75 time=0
EXTRACT: note_on channel=9 note=35 velocity=75 time=0
EXTRACT: note_on channel=1 note=33 velocity=75 time=0.004716983333333332
EXTRACT: note_on channel=6 note=57 velocity=52 time=0
EXTRACT: note_on channel=9 note=75 velocity=46 time=0
EXTRACT: note_on channel=0 note=45 velocity=48 time=0.004716983333333332
EXTRACT: note_on channel=6 note=64 velocity=50 time=0
EXTRACT: note_on channel=0 note=64 velocity=45 time=0.004716983333333332
EXTRACT: note_on channel=0 note=60 velocity=45 time=0
EXTRACT: note_on channel=0 note=57 velocity=45 time=0
EXTRACT: note_on channel=6 note=52 velocity=52 time=0
EXTRACT: note_on channel=9 note=35 velocity=0 time=0.01886793333333333
EXTRACT: note_on channel=9 note=42 velocity=0 time=0
EXTRACT: note_on channel=9 note=75 velocity=0 time=0.004716983333333332
EXTRACT: note_on channel=9 note=42 velocity=60 time=0.2452831333333333
EXTRACT: note_on channel=5 note=45 velocity=0 time=0.004716983333333332
EXTRACT: note_on channel=5 note=45 velocity=67 time=0.004716983333333332
EXTRACT: note_on channel=7 note=69 velocity=100 time=0.014150949999999997
EXTRACT: note_on channel=9 note=42 velocity=0 time=0.009433966666666665
EXTRACT: note_on channel=1 note=33 velocity=0 time=0.22641519999999996
EXTRACT: note_on channel=5 note=45 velocity=0 time=0.009433966666666665
EXTRACT: note_on channel=5 note=57 velocity=0 time=0
EXTRACT: note_on channel=5 note=64 velocity=0 time=0
EXTRACT: note_on channel=5 note=69 velocity=0 time=0.004716983333333332
EXTRACT: note_on channel=5 note=52 velocity=0 time=0
EXTRACT: note_on channel=5 note=52 velocity=34 time=0.004716983333333332
EXTRACT: note_on channel=5 note=60 velocity=0 time=0.004716983333333332
EXTRACT: note_on channel=5 note=45 velocity=67 time=0
EXTRACT: note_on channel=5 note=69 velocity=66 time=0
EXTRACT: note_on channel=5 note=64 velocity=67 time=0
EXTRACT: note_on channel=5 note=60 velocity=67 time=0
EXTRACT: note_on channel=5 note=57 velocity=70 time=0
EXTRACT: note_on channel=9 note=75 velocity=56 time=0
EXTRACT: note_on channel=9 note=42 velocity=75 time=0
EXTRACT: note_on channel=9 note=27 velocity=75 time=0
EXTRACT: note_on channel=9 note=39 velocity=75 time=0
EXTRACT: note_on channel=1 note=33 velocity=58 time=0.004716983333333332
EXTRACT: note_on channel=7 note=69 velocity=0 time=0.014150949999999997
EXTRACT: note_on channel=7 note=69 velocity=100 time=0
EXTRACT: note_on channel=9 note=39 velocity=0 time=0.014150949999999997
EXTRACT: note_on channel=9 note=75 velocity=0 time=0
EXTRACT: note_on channel=9 note=42 velocity=0 time=0
EXTRACT: note_on channel=9 note=27 velocity=0 time=0
EXTRACT: note_on channel=1 note=33 velocity=0 time=0.17924536666666663
EXTRACT: note_on channel=5 note=45 velocity=0 time=0.04716983333333333
EXTRACT: note_on channel=5 note=45 velocity=67 time=0.014150949999999997
EXTRACT: note_on channel=9 note=42 velocity=75 time=0.009433966666666665
EXTRACT: note_on channel=9 note=35 velocity=75 time=0
EXTRACT: note_on channel=9 note=27 velocity=75 time=0
EXTRACT: note_on channel=9 note=75 velocity=44 time=0
EXTRACT: note_on channel=1 note=33 velocity=75 time=0.004716983333333332
EXTRACT: note_on channel=7 note=69 velocity=0 time=0.009433966666666665
EXTRACT: note_on channel=7 note=69 velocity=100 time=0.004716983333333332
EXTRACT: note_on channel=9 note=75 velocity=0 time=0.014150949999999997
EXTRACT: note_on channel=9 note=42 velocity=0 time=0
EXTRACT: note_on channel=9 note=35 velocity=0 time=0
EXTRACT: note_on channel=9 note=27 velocity=0 time=0
EXTRACT: note_on channel=9 note=35 velocity=100 time=0.1179245833333333
EXTRACT: note_on channel=9 note=35 velocity=0 time=0.07075474999999999
EXTRACT: note_on channel=5 note=45 velocity=0 time=0.028301899999999994
EXTRACT: note_on channel=5 note=45 velocity=67 time=0.033018883333333325
EXTRACT: note_on channel=9 note=42 velocity=75 time=0
EXTRACT: note_on channel=9 note=27 velocity=75 time=0
EXTRACT: note_on channel=9 note=35 velocity=75 time=0.009433966666666665
EXTRACT: note_on channel=7 note=69 velocity=0 time=0.004716983333333332
EXTRACT: note_on channel=7 note=69 velocity=100 time=0.009433966666666665
EXTRACT: note_on channel=9 note=27 velocity=0 time=0.009433966666666665
EXTRACT: note_on channel=9 note=42 velocity=0 time=0
EXTRACT: note_on channel=9 note=35 velocity=0 time=0.009433966666666665
EXTRACT: note_on channel=5 note=57 velocity=0 time=0.1745283833333333
EXTRACT: note_on channel=5 note=52 velocity=0 time=0
EXTRACT: note_on channel=5 note=69 velocity=0 time=0
EXTRACT: note_on channel=5 note=60 velocity=0 time=0.009433966666666665
EXTRACT: note_on channel=5 note=64 velocity=0 time=0.004716983333333332
EXTRACT: note_on channel=5 note=52 velocity=66 time=0.014150949999999997
EXTRACT: note_on channel=5 note=57 velocity=66 time=0
EXTRACT: note_on channel=5 note=60 velocity=66 time=0
EXTRACT: note_on channel=5 note=69 velocity=66 time=0
EXTRACT: note_on channel=1 note=33 velocity=0 time=0.004716983333333332
EXTRACT: note_on channel=5 note=64 velocity=66 time=0
EXTRACT: note_on channel=5 note=45 velocity=0 time=0.009433966666666665
EXTRACT: note_on channel=5 note=45 velocity=67 time=0.004716983333333332
EXTRACT: note_on channel=9 note=75 velocity=46 time=0.01886793333333333
EXTRACT: note_on channel=9 note=42 velocity=54 time=0
EXTRACT: note_on channel=1 note=33 velocity=62 time=0.004716983333333332
EXTRACT: note_on channel=7 note=69 velocity=0 time=0.014150949999999997
EXTRACT: note_on channel=7 note=64 velocity=100 time=0
EXTRACT: note_on channel=9 note=42 velocity=0 time=0.014150949999999997
EXTRACT: note_on channel=9 note=75 velocity=0 time=0
EXTRACT: note_on channel=1 note=33 velocity=0 time=0.16509441666666663
EXTRACT: note_on channel=5 note=45 velocity=0 time=0.04245284999999999
EXTRACT: note_on channel=5 note=45 velocity=67 time=0.04245284999999999
EXTRACT: note_on channel=9 note=75 velocity=50 time=0
EXTRACT: note_on channel=9 note=42 velocity=75 time=0
EXTRACT: note_on channel=9 note=27 velocity=75 time=0
EXTRACT: note_on channel=9 note=39 velocity=75 time=0
EXTRACT: note_on channel=1 note=33 velocity=75 time=0.004716983333333332
EXTRACT: note_on channel=7 note=64 velocity=0 time=0.009433966666666665
EXTRACT: note_on channel=7 note=64 velocity=100 time=0.009433966666666665
EXTRACT: note_on channel=9 note=39 velocity=0 time=0.009433966666666665
EXTRACT: note_on channel=9 note=75 velocity=0 time=0
EXTRACT: note_on channel=9 note=42 velocity=0 time=0
EXTRACT: note_on channel=9 note=27 velocity=0 time=0
EXTRACT: note_on channel=5 note=57 velocity=0 time=0.22169821666666661
EXTRACT: note_on channel=5 note=52 velocity=0 time=0
EXTRACT: note_on channel=5 note=60 velocity=0 time=0
EXTRACT: note_on channel=5 note=69 velocity=0 time=0
EXTRACT: note_on channel=5 note=64 velocity=0 time=0.004716983333333332
EXTRACT: note_on channel=5 note=57 velocity=66 time=0.004716983333333332
EXTRACT: note_on channel=5 note=69 velocity=66 time=0.004716983333333332
EXTRACT: note_on channel=5 note=60 velocity=66 time=0
EXTRACT: note_on channel=5 note=52 velocity=66 time=0.004716983333333332
EXTRACT: note_on channel=5 note=45 velocity=0 time=0.004716983333333332
EXTRACT: note_on channel=5 note=45 velocity=67 time=0
EXTRACT: note_on channel=5 note=64 velocity=66 time=0
EXTRACT: note_on channel=9 note=42 velocity=56 time=0.004716983333333332
EXTRACT: note_on channel=9 note=27 velocity=75 time=0
EXTRACT: note_on channel=9 note=75 velocity=50 time=0
EXTRACT: note_on channel=7 note=64 velocity=0 time=0.01886793333333333
EXTRACT: note_on channel=7 note=62 velocity=100 time=0
EXTRACT: note_on channel=9 note=27 velocity=0 time=0.07075474999999999
EXTRACT: note_on channel=9 note=75 velocity=0 time=0.01886793333333333
EXTRACT: note_on channel=9 note=42 velocity=0 time=0.004716983333333332
EXTRACT: note_on channel=1 note=33 velocity=0 time=0.14150949999999998
EXTRACT: note_on channel=0 note=57 velocity=0 time=0.004716983333333332
EXTRACT: note_on channel=0 note=45 velocity=0 time=0
EXTRACT: note_on channel=0 note=64 velocity=0 time=0
EXTRACT: note_on channel=0 note=60 velocity=0 time=0
EXTRACT: note_on channel=6 note=52 velocity=0 time=0
EXTRACT: note_on channel=6 note=64 velocity=0 time=0
EXTRACT: note_on channel=6 note=57 velocity=0 time=0
EXTRACT: note_on channel=5 note=45 velocity=0 time=0.014150949999999997
EXTRACT: note_on channel=5 note=52 velocity=0 time=0.004716983333333332
EXTRACT: note_on channel=9 note=75 velocity=46 time=0.004716983333333332
EXTRACT: note_on channel=9 note=35 velocity=75 time=0
EXTRACT: note_on channel=1 note=28 velocity=75 time=0.004716983333333332
EXTRACT: note_on channel=6 note=59 velocity=52 time=0
EXTRACT: note_on channel=9 note=42 velocity=75 time=0
EXTRACT: note_on channel=0 note=40 velocity=48 time=0.004716983333333332
EXTRACT: note_on channel=5 note=52 velocity=66 time=0
EXTRACT: note_on channel=6 note=67 velocity=50 time=0
EXTRACT: note_on channel=0 note=64 velocity=45 time=0.004716983333333332
EXTRACT: note_on channel=0 note=59 velocity=45 time=0
EXTRACT: note_on channel=0 note=55 velocity=45 time=0
EXTRACT: note_on channel=6 note=55 velocity=52 time=0
EXTRACT: note_on channel=7 note=62 velocity=0 time=0
EXTRACT: note_on channel=7 note=62 velocity=100 time=0.009433966666666665
EXTRACT: note_on channel=9 note=35 velocity=0 time=0.009433966666666665
EXTRACT: note_on channel=9 note=42 velocity=0 time=0.004716983333333332
EXTRACT: note_on channel=9 note=75 velocity=0 time=0.04716983333333333
EXTRACT: note_on channel=9 note=42 velocity=58 time=0.19811329999999996
EXTRACT: note_on channel=5 note=52 velocity=0 time=0.004716983333333332
EXTRACT: note_on channel=5 note=52 velocity=66 time=0
EXTRACT: note_on channel=7 note=64 velocity=100 time=0
EXTRACT: note_on channel=7 note=62 velocity=0 time=0.014150949999999997
EXTRACT: note_on channel=9 note=42 velocity=0 time=0.014150949999999997
EXTRACT: note_on channel=9 note=42 velocity=40 time=0.10849061666666665
EXTRACT: note_on channel=9 note=42 velocity=0 time=0.08490569999999999
EXTRACT: note_on channel=1 note=28 velocity=0 time=0.033018883333333325
EXTRACT: note_on channel=5 note=69 velocity=0 time=0
EXTRACT: note_on channel=5 note=64 velocity=0 time=0.004716983333333332
EXTRACT: note_on channel=5 note=57 velocity=0 time=0
EXTRACT: note_on channel=5 note=60 velocity=0 time=0
EXTRACT: note_on channel=5 note=67 velocity=70 time=0.014150949999999997
EXTRACT: note_on channel=5 note=59 velocity=70 time=0
EXTRACT: note_on channel=5 note=52 velocity=0 time=0.004716983333333332
EXTRACT: note_on channel=5 note=64 velocity=70 time=0
EXTRACT: note_on channel=5 note=52 velocity=66 time=0
EXTRACT: note_on channel=7 note=64 velocity=0 time=0
EXTRACT: note_on channel=9 note=27 velocity=75 time=0
EXTRACT: note_on channel=9 note=75 velocity=56 time=0
EXTRACT: note_on channel=9 note=42 velocity=75 time=0
EXTRACT: note_on channel=9 note=39 velocity=75 time=0
EXTRACT: note_on channel=1 note=28 velocity=58 time=0.004716983333333332
EXTRACT: note_on channel=5 note=71 velocity=66 time=0
EXTRACT: note_on channel=7 note=64 velocity=100 time=0.004716983333333332
EXTRACT: note_on channel=9 note=39 velocity=0 time=0.023584916666666664
EXTRACT: note_on channel=9 note=27 velocity=0 time=0
EXTRACT: note_on channel=9 note=75 velocity=0 time=0
EXTRACT: note_on channel=9 note=42 velocity=0 time=0
EXTRACT: note_on channel=1 note=28 velocity=0 time=0.17924536666666663
EXTRACT: note_on channel=5 note=52 velocity=0 time=0.06603776666666665
EXTRACT: note_on channel=5 note=52 velocity=66 time=0
EXTRACT: note_on channel=9 note=75 velocity=44 time=0.004716983333333332
EXTRACT: note_on channel=9 note=42 velocity=52 time=0
EXTRACT: note_on channel=9 note=27 velocity=75 time=0
EXTRACT: note_on channel=9 note=35 velocity=75 time=0
EXTRACT: note_on channel=1 note=28 velocity=75 time=0.004716983333333332
EXTRACT: note_on channel=7 note=64 velocity=0 time=0
EXTRACT: note_on channel=9 note=35 velocity=0 time=0.028301899999999994
EXTRACT: note_on channel=9 note=75 velocity=0 time=0
EXTRACT: note_on channel=9 note=42 velocity=0 time=0
EXTRACT: note_on channel=9 note=27 velocity=0 time=0
EXTRACT: note_on channel=9 note=35 velocity=75 time=0.09905664999999998
EXTRACT: note_on channel=9 note=35 velocity=0 time=0.033018883333333325
EXTRACT: note_on channel=5 note=52 velocity=0 time=0.10849061666666665
EXTRACT: note_on channel=5 note=52 velocity=66 time=0.009433966666666665
EXTRACT: note_on channel=9 note=42 velocity=75 time=0
EXTRACT: note_on channel=9 note=27 velocity=75 time=0
EXTRACT: note_on channel=9 note=75 velocity=46 time=0
EXTRACT: note_on channel=9 note=35 velocity=75 time=0.014150949999999997
EXTRACT: note_on channel=9 note=75 velocity=0 time=0.01886793333333333
EXTRACT: note_on channel=9 note=42 velocity=0 time=0
EXTRACT: note_on channel=9 note=27 velocity=0 time=0
EXTRACT: note_on channel=9 note=35 velocity=0 time=0.014150949999999997
EXTRACT: note_on channel=5 note=67 velocity=0 time=0.19339631666666662
EXTRACT: note_on channel=1 note=28 velocity=0 time=0.009433966666666665
EXTRACT: note_on channel=5 note=71 velocity=0 time=0.004716983333333332
EXTRACT: note_on channel=5 note=59 velocity=0 time=0
EXTRACT: note_on channel=5 note=71 velocity=45 time=0.014150949999999997
EXTRACT: note_on channel=5 note=64 velocity=0 time=0.004716983333333332
EXTRACT: note_on channel=5 note=67 velocity=77 time=0
EXTRACT: note_on channel=5 note=59 velocity=56 time=0
EXTRACT: note_on channel=5 note=52 velocity=0 time=0.004716983333333332
EXTRACT: note_on channel=5 note=52 velocity=66 time=0
EXTRACT: note_on channel=5 note=64 velocity=85 time=0
EXTRACT: note_on channel=9 note=42 velocity=75 time=0.004716983333333332
EXTRACT: note_on channel=1 note=28 velocity=62 time=0.004716983333333332
EXTRACT: note_on channel=9 note=42 velocity=0 time=0.028301899999999994
EXTRACT: note_on channel=1 note=28 velocity=0 time=0.16509441666666663
EXTRACT: note_on channel=5 note=52 velocity=0 time=0.07547173333333332
EXTRACT: note_on channel=5 note=52 velocity=66 time=0.009433966666666665
EXTRACT: note_on channel=9 note=75 velocity=50 time=0
EXTRACT: note_on channel=9 note=42 velocity=75 time=0
EXTRACT: note_on channel=9 note=39 velocity=75 time=0
EXTRACT: note_on channel=9 note=27 velocity=75 time=0
EXTRACT: note_on channel=1 note=28 velocity=75 time=0.004716983333333332
EXTRACT: note_on channel=9 note=27 velocity=0 time=0.028301899999999994
EXTRACT: note_on channel=9 note=75 velocity=0 time=0
EXTRACT: note_on channel=9 note=42 velocity=0 time=0
EXTRACT: note_on channel=9 note=39 velocity=0 time=0
EXTRACT: note_on channel=5 note=71 velocity=0 time=0.19339631666666662
EXTRACT: note_on channel=5 note=67 velocity=0 time=0.004716983333333332
EXTRACT: note_on channel=5 note=64 velocity=0 time=0.004716983333333332
EXTRACT: note_on channel=5 note=59 velocity=0 time=0.014150949999999997
EXTRACT: note_on channel=5 note=71 velocity=56 time=0.004716983333333332
EXTRACT: note_on channel=5 note=64 velocity=56 time=0
EXTRACT: note_on channel=5 note=67 velocity=56 time=0.004716983333333332
EXTRACT: note_on channel=5 note=59 velocity=56 time=0.004716983333333332
EXTRACT: note_on channel=5 note=52 velocity=0 time=0.014150949999999997
EXTRACT: note_on channel=9 note=42 velocity=75 time=0.004716983333333332
EXTRACT: note_on channel=9 note=27 velocity=75 time=0
EXTRACT: note_on channel=9 note=75 velocity=50 time=0
EXTRACT: note_on channel=5 note=52 velocity=66 time=0.004716983333333332
EXTRACT: note_on channel=9 note=27 velocity=0 time=0.08490569999999999
EXTRACT: note_on channel=9 note=75 velocity=0 time=0.01886793333333333
EXTRACT: note_on channel=9 note=42 velocity=0 time=0.004716983333333332
EXTRACT: note_on channel=1 note=28 velocity=0 time=0.14150949999999998
EXTRACT: note_on channel=0 note=55 velocity=0 time=0.004716983333333332
EXTRACT: note_on channel=0 note=40 velocity=0 time=0
EXTRACT: note_on channel=0 note=64 velocity=0 time=0
EXTRACT: note_on channel=0 note=59 velocity=0 time=0
EXTRACT: note_on channel=6 note=55 velocity=0 time=0
EXTRACT: note_on channel=6 note=67 velocity=0 time=0
EXTRACT: note_on channel=6 note=59 velocity=0 time=0
EXTRACT: note_on channel=5 note=52 velocity=0 time=0.023584916666666664
EXTRACT: note_on channel=5 note=50 velocity=66 time=0
EXTRACT: note_on channel=9 note=75 velocity=46 time=0
EXTRACT: note_on channel=9 note=35 velocity=75 time=0
EXTRACT: note_on channel=6 note=62 velocity=52 time=0.004716983333333332
EXTRACT: note_on channel=9 note=42 velocity=75 time=0
EXTRACT: note_on channel=0 note=50 velocity=48 time=0.004716983333333332
EXTRACT: note_on channel=1 note=38 velocity=83 time=0
EXTRACT: note_on channel=6 note=69 velocity=50 time=0
EXTRACT: note_on channel=0 note=66 velocity=45 time=0.004716983333333332
EXTRACT: note_on channel=0 note=62 velocity=45 time=0
EXTRACT: note_on channel=0 note=57 velocity=45 time=0
EXTRACT: note_on channel=6 note=57 velocity=52 time=0
EXTRACT: note_on channel=9 note=35 velocity=0 time=0.01886793333333333
EXTRACT: note_on channel=9 note=42 velocity=0 time=0.004716983333333332
EXTRACT: note_on channel=9 note=75 velocity=0 time=0.04716983333333333
EXTRACT: note_on channel=5 note=50 velocity=0 time=0.19339631666666662
EXTRACT: note_on channel=5 note=50 velocity=66 time=0
EXTRACT: note_on channel=7 note=66 velocity=100 time=0.004716983333333332
EXTRACT: note_on channel=9 note=42 velocity=58 time=0
EXTRACT: note_on channel=9 note=42 velocity=0 time=0.033018883333333325
EXTRACT: note_on channel=5 note=50 velocity=0 time=0.24056614999999995
EXTRACT: note_on channel=5 note=59 velocity=0 time=0
EXTRACT: note_on channel=5 note=71 velocity=0 time=0
EXTRACT: note_on channel=5 note=67 velocity=0 time=0
EXTRACT: note_on channel=5 note=64 velocity=0 time=0.004716983333333332
EXTRACT: note_on channel=7 note=66 velocity=0 time=0
EXTRACT: note_on channel=5 note=50 velocity=66 time=0.004716983333333332
EXTRACT: note_on channel=5 note=69 velocity=66 time=0
EXTRACT: note_on channel=5 note=66 velocity=67 time=0
EXTRACT: note_on channel=9 note=27 velocity=75 time=0
EXTRACT: note_on channel=9 note=39 velocity=75 time=0
EXTRACT: note_on channel=9 note=42 velocity=75 time=0
EXTRACT: note_on channel=9 note=75 velocity=56 time=0
EXTRACT: note_on channel=5 note=62 velocity=67 time=0.004716983333333332
EXTRACT: note_on channel=5 note=57 velocity=70 time=0
EXTRACT: note_on channel=7 note=66 velocity=100 time=0.014150949999999997
EXTRACT: note_on channel=9 note=75 velocity=0 time=0.014150949999999997
EXTRACT: note_on channel=9 note=27 velocity=0 time=0
EXTRACT: note_on channel=9 note=39 velocity=0 time=0
EXTRACT: note_on channel=9 note=42 velocity=0 time=0
EXTRACT: note_on channel=5 note=50 velocity=0 time=0.2452831333333333
EXTRACT: note_on channel=5 note=50 velocity=66 time=0
EXTRACT: note_on channel=9 note=75 velocity=44 time=0.004716983333333332
EXTRACT: note_on channel=9 note=42 velocity=52 time=0
EXTRACT: note_on channel=9 note=35 velocity=75 time=0
EXTRACT: note_on channel=9 note=27 velocity=75 time=0
EXTRACT: note_on channel=7 note=66 velocity=0 time=0.014150949999999997
EXTRACT: note_on channel=7 note=66 velocity=100 time=0.004716983333333332
EXTRACT: note_on channel=9 note=27 velocity=0 time=0.014150949999999997
EXTRACT: note_on channel=9 note=75 velocity=0 time=0
EXTRACT: note_on channel=9 note=42 velocity=0 time=0
EXTRACT: note_on channel=9 note=35 velocity=0 time=0
EXTRACT: note_on channel=9 note=35 velocity=75 time=0.09433966666666666
EXTRACT: note_on channel=9 note=35 velocity=0 time=0.033018883333333325
EXTRACT: note_on channel=5 note=50 velocity=0 time=0.11320759999999998
EXTRACT: note_on channel=5 note=50 velocity=66 time=0.009433966666666665
EXTRACT: note_on channel=9 note=75 velocity=46 time=0
EXTRACT: note_on channel=9 note=42 velocity=75 time=0
EXTRACT: note_on channel=9 note=27 velocity=75 time=0
EXTRACT: note_on channel=9 note=35 velocity=75 time=0.004716983333333332
EXTRACT: note_on channel=7 note=66 velocity=0 time=0.009433966666666665
EXTRACT: note_on channel=7 note=66 velocity=100 time=0.009433966666666665
EXTRACT: note_on channel=9 note=27 velocity=0 time=0.009433966666666665
EXTRACT: note_on channel=9 note=75 velocity=0 time=0
EXTRACT: note_on channel=9 note=42 velocity=0 time=0
EXTRACT: note_on channel=9 note=35 velocity=0 time=0.004716983333333332
EXTRACT: note_on channel=5 note=57 velocity=0 time=0.22169821666666661
EXTRACT: note_on channel=5 note=69 velocity=0 time=0
EXTRACT: note_on channel=5 note=62 velocity=0 time=0.009433966666666665
EXTRACT: note_on channel=5 note=66 velocity=0 time=0.004716983333333332
EXTRACT: note_on channel=5 note=50 velocity=0 time=0.004716983333333332
EXTRACT: note_on channel=5 note=57 velocity=66 time=0
EXTRACT: note_on channel=5 note=62 velocity=66 time=0
EXTRACT: note_on channel=5 note=69 velocity=66 time=0
EXTRACT: note_on channel=5 note=50 velocity=66 time=0
EXTRACT: note_on channel=9 note=42 velocity=75 time=0.004716983333333332
EXTRACT: note_on channel=5 note=66 velocity=66 time=0.004716983333333332
EXTRACT: note_on channel=7 note=62 velocity=100 time=0.004716983333333332
EXTRACT: note_on channel=7 note=66 velocity=0 time=0.009433966666666665
EXTRACT: note_on channel=9 note=42 velocity=0 time=0.014150949999999997
EXTRACT: note_on channel=5 note=50 velocity=0 time=0.24056614999999995
EXTRACT: note_on channel=5 note=50 velocity=66 time=0.004716983333333332
EXTRACT: note_on channel=9 note=75 velocity=50 time=0.004716983333333332
EXTRACT: note_on channel=9 note=27 velocity=75 time=0
EXTRACT: note_on channel=9 note=39 velocity=75 time=0
EXTRACT: note_on channel=9 note=42 velocity=75 time=0
EXTRACT: note_on channel=7 note=62 velocity=0 time=0.004716983333333332
EXTRACT: note_on channel=7 note=62 velocity=100 time=0.014150949999999997
EXTRACT: note_on channel=9 note=42 velocity=0 time=0.014150949999999997
EXTRACT: note_on channel=9 note=75 velocity=0 time=0
EXTRACT: note_on channel=9 note=27 velocity=0 time=0
EXTRACT: note_on channel=9 note=39 velocity=0 time=0
EXTRACT: note_on channel=1 note=38 velocity=0 time=0.18396234999999997
EXTRACT: note_on channel=5 note=66 velocity=0 time=0.04245284999999999
EXTRACT: note_on channel=5 note=69 velocity=0 time=0.004716983333333332
EXTRACT: note_on channel=5 note=57 velocity=0 time=0.009433966666666665
EXTRACT: note_on channel=5 note=62 velocity=0 time=0
EXTRACT: note_on channel=5 note=50 velocity=0 time=0
EXTRACT: note_on channel=5 note=50 velocity=66 time=0.004716983333333332
EXTRACT: note_on channel=5 note=57 velocity=66 time=0
EXTRACT: note_on channel=9 note=42 velocity=75 time=0.004716983333333332
EXTRACT: note_on channel=9 note=27 velocity=75 time=0
EXTRACT: note_on channel=9 note=75 velocity=50 time=0
EXTRACT: note_on channel=5 note=62 velocity=66 time=0.004716983333333332
EXTRACT: note_on channel=1 note=38 velocity=62 time=0.004716983333333332
EXTRACT: note_on channel=5 note=69 velocity=66 time=0
EXTRACT: note_on channel=5 note=66 velocity=66 time=0
EXTRACT: note_on channel=7 note=62 velocity=0 time=0.004716983333333332
EXTRACT: note_on channel=7 note=59 velocity=100 time=0.004716983333333332
EXTRACT: note_on channel=9 note=27 velocity=0 time=0.07075474999999999
EXTRACT: note_on channel=9 note=75 velocity=0 time=0.01886793333333333
EXTRACT: note_on channel=9 note=42 velocity=0 time=0.004716983333333332
EXTRACT: note_on channel=0 note=57 velocity=0 time=0.1462264833333333
EXTRACT: note_on channel=0 note=50 velocity=0 time=0
EXTRACT: note_on channel=0 note=66 velocity=0 time=0
EXTRACT: note_on channel=0 note=62 velocity=0 time=0
EXTRACT: note_on channel=1 note=38 velocity=0 time=0
EXTRACT: note_on channel=6 note=57 velocity=0 time=0
EXTRACT: note_on channel=6 note=69 velocity=0 time=0
EXTRACT: note_on channel=6 note=62 velocity=0 time=0
EXTRACT: note_on channel=5 note=50 velocity=0 time=0.014150949999999997
EXTRACT: note_on channel=9 note=75 velocity=46 time=0.009433966666666665
EXTRACT: note_on channel=9 note=35 velocity=75 time=0
EXTRACT: note_on channel=1 note=33 velocity=75 time=0.004716983333333332
EXTRACT: note_on channel=5 note=45 velocity=67 time=0
EXTRACT: note_on channel=6 note=57 velocity=52 time=0
EXTRACT: note_on channel=9 note=42 velocity=75 time=0
EXTRACT: note_on channel=0 note=45 velocity=48 time=0.004716983333333332
EXTRACT: note_on channel=6 note=64 velocity=50 time=0
EXTRACT: note_on channel=0 note=64 velocity=45 time=0.004716983333333332
EXTRACT: note_on channel=0 note=60 velocity=45 time=0
EXTRACT: note_on channel=0 note=57 velocity=45 time=0
EXTRACT: note_on channel=3 note=60 velocity=100 time=0
EXTRACT: note_on channel=6 note=52 velocity=52 time=0
EXTRACT: note_on channel=7 note=59 velocity=0 time=0
EXTRACT: note_on channel=7 note=60 velocity=100 time=0
EXTRACT: note_on channel=9 note=35 velocity=0 time=0.01886793333333333
EXTRACT: note_on channel=9 note=42 velocity=0 time=0.004716983333333332
EXTRACT: note_on channel=9 note=75 velocity=0 time=0.04716983333333333
EXTRACT: note_on channel=9 note=42 velocity=58 time=0.19811329999999996
EXTRACT: note_on channel=5 note=45 velocity=0 time=0.009433966666666665
EXTRACT: note_on channel=7 note=60 velocity=0 time=0
EXTRACT: note_on channel=5 note=45 velocity=67 time=0.004716983333333332
EXTRACT: note_on channel=3 note=60 velocity=0 time=0.009433966666666665
EXTRACT: note_on channel=9 note=42 velocity=0 time=0.009433966666666665
EXTRACT: note_on channel=9 note=42 velocity=40 time=0.10849061666666665
EXTRACT: note_on channel=9 note=42 velocity=0 time=0.08490569999999999
EXTRACT: note_on channel=5 note=66 velocity=0 time=0.04245284999999999
EXTRACT: note_on channel=5 note=69 velocity=0 time=0
EXTRACT: note_on channel=5 note=57 velocity=0 time=0
EXTRACT: note_on channel=5 note=45 velocity=0 time=0.004716983333333332
EXTRACT: note_on channel=5 note=62 velocity=0 time=0.004716983333333332
EXTRACT: note_on channel=5 note=52 velocity=34 time=0.004716983333333332
EXTRACT: note_on channel=9 note=27 velocity=75 time=0
EXTRACT: note_on channel=9 note=75 velocity=56 time=0
EXTRACT: note_on channel=9 note=42 velocity=75 time=0
EXTRACT: note_on channel=9 note=39 velocity=75 time=0
EXTRACT: note_on channel=5 note=45 velocity=67 time=0.004716983333333332
EXTRACT: note_on channel=5 note=69 velocity=66 time=0
EXTRACT: note_on channel=5 note=64 velocity=67 time=0
EXTRACT: note_on channel=5 note=60 velocity=67 time=0
EXTRACT: note_on channel=5 note=57 velocity=70 time=0
EXTRACT: note_on channel=3 note=59 velocity=100 time=0.004716983333333332
EXTRACT: note_on channel=7 note=59 velocity=100 time=0.004716983333333332
EXTRACT: note_on channel=9 note=39 velocity=0 time=0.01886793333333333
EXTRACT: note_on channel=9 note=27 velocity=0 time=0
EXTRACT: note_on channel=9 note=75 velocity=0 time=0
EXTRACT: note_on channel=9 note=42 velocity=0 time=0
EXTRACT: note_on channel=1 note=33 velocity=0 time=0.16509441666666663
EXTRACT: note_on channel=5 note=45 velocity=0 time=0.06603776666666665
EXTRACT: note_on channel=5 note=45 velocity=67 time=0.014150949999999997
EXTRACT: note_on channel=9 note=27 velocity=75 time=0.004716983333333332
EXTRACT: note_on channel=9 note=75 velocity=44 time=0
EXTRACT: note_on channel=9 note=42 velocity=52 time=0
EXTRACT: note_on channel=1 note=33 velocity=75 time=0.004716983333333332
EXTRACT: note_on channel=7 note=59 velocity=0 time=0.004716983333333332
EXTRACT: note_on channel=3 note=59 velocity=0 time=0.009433966666666665
EXTRACT: note_on channel=9 note=42 velocity=0 time=0.014150949999999997
EXTRACT: note_on channel=9 note=75 velocity=0 time=0
EXTRACT: note_on channel=9 note=27 velocity=0 time=0
EXTRACT: note_on channel=9 note=39 velocity=85 time=0.09433966666666666
EXTRACT: note_on channel=9 note=39 velocity=0 time=0.033018883333333325
EXTRACT: note_on channel=5 note=45 velocity=0 time=0.09433966666666666
EXTRACT: note_on channel=7 note=57 velocity=100 time=0.028301899999999994
EXTRACT: note_on channel=9 note=42 velocity=75 time=0
EXTRACT: note_on channel=9 note=27 velocity=75 time=0
EXTRACT: note_on channel=9 note=75 velocity=46 time=0
EXTRACT: note_on channel=5 note=45 velocity=67 time=0.004716983333333332
EXTRACT: note_on channel=9 note=35 velocity=75 time=0
EXTRACT: note_on channel=3 note=57 velocity=100 time=0.009433966666666665
EXTRACT: note_on channel=9 note=35 velocity=0 time=0.009433966666666665
EXTRACT: note_on channel=9 note=42 velocity=0 time=0.009433966666666665
EXTRACT: note_on channel=9 note=27 velocity=0 time=0
EXTRACT: note_on channel=9 note=75 velocity=0 time=0
EXTRACT: note_on channel=5 note=69 velocity=0 time=0.19811329999999996
EXTRACT: note_on channel=5 note=64 velocity=0 time=0
EXTRACT: note_on channel=5 note=60 velocity=0 time=0.004716983333333332
EXTRACT: note_on channel=5 note=52 velocity=0 time=0
EXTRACT: note_on channel=5 note=57 velocity=0 time=0
EXTRACT: note_on channel=5 note=52 velocity=66 time=0.014150949999999997
EXTRACT: note_on channel=5 note=57 velocity=66 time=0
EXTRACT: note_on channel=5 note=60 velocity=66 time=0
EXTRACT: note_on channel=5 note=69 velocity=66 time=0
EXTRACT: note_on channel=5 note=64 velocity=66 time=0.004716983333333332
EXTRACT: note_on channel=5 note=45 velocity=0 time=0.009433966666666665
EXTRACT: note_on channel=5 note=45 velocity=67 time=0.004716983333333332
EXTRACT: note_on channel=7 note=57 velocity=0 time=0.009433966666666665
EXTRACT: note_on channel=9 note=42 velocity=75 time=0.004716983333333332
EXTRACT: note_on channel=9 note=42 velocity=0 time=0.01886793333333333
EXTRACT: note_on channel=3 note=57 velocity=0 time=0.004716983333333332
EXTRACT: note_on channel=9 note=35 velocity=75 time=0.11320759999999998
EXTRACT: note_on channel=9 note=39 velocity=52 time=0.004716983333333332
EXTRACT: note_on channel=9 note=39 velocity=0 time=0.01886793333333333
EXTRACT: note_on channel=9 note=35 velocity=0 time=0.009433966666666665
EXTRACT: note_on channel=5 note=45 velocity=0 time=0.07547173333333332
EXTRACT: note_on channel=9 note=42 velocity=75 time=0.03773586666666666
EXTRACT: note_on channel=9 note=27 velocity=75 time=0
EXTRACT: note_on channel=9 note=75 velocity=50 time=0
EXTRACT: note_on channel=9 note=39 velocity=95 time=0
EXTRACT: note_on channel=3 note=52 velocity=100 time=0.004716983333333332
EXTRACT: note_on channel=5 note=45 velocity=67 time=0
EXTRACT: note_on channel=7 note=52 velocity=100 time=0.004716983333333332
EXTRACT: note_on channel=9 note=35 velocity=75 time=0
EXTRACT: note_on channel=9 note=39 velocity=0 time=0.009433966666666665
EXTRACT: note_on channel=9 note=75 velocity=0 time=0
EXTRACT: note_on channel=9 note=42 velocity=0 time=0
EXTRACT: note_on channel=9 note=27 velocity=0 time=0
EXTRACT: note_on channel=9 note=35 velocity=0 time=0.023584916666666664
EXTRACT: note_on channel=9 note=39 velocity=60 time=0.09905664999999998
EXTRACT: note_on channel=9 note=39 velocity=0 time=0.01886793333333333
EXTRACT: note_on channel=1 note=33 velocity=0 time=0.023584916666666664
EXTRACT: note_on channel=5 note=57 velocity=0 time=0.07547173333333332
EXTRACT: note_on channel=5 note=52 velocity=0 time=0
EXTRACT: note_on channel=5 note=60 velocity=0 time=0
EXTRACT: note_on channel=5 note=69 velocity=0 time=0
EXTRACT: note_on channel=5 note=64 velocity=0 time=0.004716983333333332
EXTRACT: note_on channel=5 note=57 velocity=66 time=0.004716983333333332
EXTRACT: note_on channel=5 note=69 velocity=66 time=0.004716983333333332
EXTRACT: note_on channel=5 note=60 velocity=66 time=0
EXTRACT: note_on channel=5 note=52 velocity=66 time=0.004716983333333332
EXTRACT: note_on channel=9 note=35 velocity=75 time=0
EXTRACT: note_on channel=1 note=33 velocity=60 time=0.004716983333333332
EXTRACT: note_on channel=5 note=45 velocity=0 time=0
EXTRACT: note_on channel=5 note=45 velocity=67 time=0
EXTRACT: note_on channel=5 note=64 velocity=66 time=0
EXTRACT: note_on channel=9 note=75 velocity=50 time=0
EXTRACT: note_on channel=9 note=27 velocity=75 time=0
EXTRACT: note_on channel=9 note=39 velocity=78 time=0
EXTRACT: note_on channel=9 note=42 velocity=75 time=0
EXTRACT: note_on channel=7 note=52 velocity=0 time=0.004716983333333332
EXTRACT: note_on channel=3 note=52 velocity=0 time=0.009433966666666665
EXTRACT: note_on channel=9 note=42 velocity=0 time=0.004716983333333332
EXTRACT: note_on channel=9 note=27 velocity=0 time=0
EXTRACT: note_on channel=9 note=39 velocity=0 time=0
EXTRACT: note_on channel=9 note=75 velocity=0 time=0
EXTRACT: note_on channel=9 note=35 velocity=0 time=0.009433966666666665
EXTRACT: note_on channel=9 note=39 velocity=52 time=0.11320759999999998
EXTRACT: note_on channel=9 note=39 velocity=0 time=0.08018871666666665
EXTRACT: note_on channel=0 note=57 velocity=0 time=0.03773586666666666
EXTRACT: note_on channel=0 note=45 velocity=0 time=0
EXTRACT: note_on channel=0 note=64 velocity=0 time=0
EXTRACT: note_on channel=0 note=60 velocity=0 time=0
EXTRACT: note_on channel=1 note=33 velocity=0 time=0
EXTRACT: note_on channel=6 note=52 velocity=0 time=0
EXTRACT: note_on channel=6 note=64 velocity=0 time=0
EXTRACT: note_on channel=6 note=57 velocity=0 time=0
EXTRACT: note_on channel=5 note=45 velocity=0 time=0.01886793333333333
EXTRACT: note_on channel=5 note=45 velocity=67 time=0
EXTRACT: note_on channel=9 note=42 velocity=75 time=0
EXTRACT: note_on channel=9 note=35 velocity=75 time=0
EXTRACT: note_on channel=1 note=33 velocity=75 time=0.004716983333333332
EXTRACT: note_on channel=6 note=57 velocity=52 time=0
EXTRACT: note_on channel=9 note=75 velocity=46 time=0
EXTRACT: note_on channel=0 note=45 velocity=48 time=0.004716983333333332
EXTRACT: note_on channel=6 note=64 velocity=50 time=0
EXTRACT: note_on channel=0 note=64 velocity=45 time=0.004716983333333332
EXTRACT: note_on channel=0 note=60 velocity=45 time=0
EXTRACT: note_on channel=0 note=57 velocity=45 time=0
EXTRACT: note_on channel=6 note=52 velocity=52 time=0
EXTRACT: note_on channel=9 note=35 velocity=0 time=0.01886793333333333
EXTRACT: note_on channel=9 note=42 velocity=0 time=0
EXTRACT: note_on channel=9 note=75 velocity=0 time=0.004716983333333332
EXTRACT: note_on channel=9 note=42 velocity=60 time=0.2452831333333333
EXTRACT: note_on channel=5 note=45 velocity=0 time=0.004716983333333332
EXTRACT: note_on channel=5 note=45 velocity=67 time=0.004716983333333332
EXTRACT: note_on channel=7 note=69 velocity=100 time=0.009433966666666665
EXTRACT: note_on channel=9 note=42 velocity=0 time=0.014150949999999997
EXTRACT: note_on channel=1 note=33 velocity=0 time=0.22641519999999996
EXTRACT: note_on channel=5 note=45 velocity=0 time=0.009433966666666665
EXTRACT: note_on channel=5 note=57 velocity=0 time=0
EXTRACT: note_on channel=5 note=64 velocity=0 time=0
EXTRACT: note_on channel=5 note=69 velocity=0 time=0.004716983333333332
EXTRACT: note_on channel=5 note=52 velocity=0 time=0
EXTRACT: note_on channel=5 note=52 velocity=34 time=0.004716983333333332
EXTRACT: note_on channel=5 note=60 velocity=0 time=0.004716983333333332
EXTRACT: note_on channel=5 note=45 velocity=67 time=0
EXTRACT: note_on channel=5 note=69 velocity=66 time=0
EXTRACT: note_on channel=5 note=64 velocity=67 time=0
EXTRACT: note_on channel=5 note=60 velocity=67 time=0
EXTRACT: note_on channel=5 note=57 velocity=70 time=0
EXTRACT: note_on channel=9 note=75 velocity=56 time=0
EXTRACT: note_on channel=9 note=42 velocity=75 time=0
EXTRACT: note_on channel=9 note=27 velocity=75 time=0
EXTRACT: note_on channel=9 note=39 velocity=75 time=0
EXTRACT: note_on channel=1 note=33 velocity=58 time=0.004716983333333332
EXTRACT: note_on channel=7 note=69 velocity=0 time=0.009433966666666665
EXTRACT: note_on channel=7 note=69 velocity=100 time=0.009433966666666665
EXTRACT: note_on channel=9 note=39 velocity=0 time=0.009433966666666665
EXTRACT: note_on channel=9 note=75 velocity=0 time=0
EXTRACT: note_on channel=9 note=42 velocity=0 time=0
EXTRACT: note_on channel=9 note=27 velocity=0 time=0
EXTRACT: note_on channel=1 note=33 velocity=0 time=0.17924536666666663
EXTRACT: note_on channel=5 note=45 velocity=0 time=0.04716983333333333
EXTRACT: note_on channel=5 note=45 velocity=67 time=0.014150949999999997
EXTRACT: note_on channel=9 note=42 velocity=75 time=0.009433966666666665
EXTRACT: note_on channel=9 note=35 velocity=75 time=0
EXTRACT: note_on channel=9 note=27 velocity=75 time=0
EXTRACT: note_on channel=9 note=75 velocity=44 time=0
EXTRACT: note_on channel=1 note=33 velocity=75 time=0.004716983333333332
EXTRACT: note_on channel=7 note=69 velocity=0 time=0.014150949999999997
EXTRACT: note_on channel=7 note=69 velocity=100 time=0.004716983333333332
EXTRACT: note_on channel=9 note=75 velocity=0 time=0.009433966666666665
EXTRACT: note_on channel=9 note=42 velocity=0 time=0
EXTRACT: note_on channel=9 note=35 velocity=0 time=0
EXTRACT: note_on channel=9 note=27 velocity=0 time=0
EXTRACT: note_on channel=9 note=35 velocity=100 time=0.1179245833333333
EXTRACT: note_on channel=9 note=35 velocity=0 time=0.07075474999999999
EXTRACT: note_on channel=5 note=45 velocity=0 time=0.028301899999999994
EXTRACT: note_on channel=5 note=45 velocity=67 time=0.033018883333333325
EXTRACT: note_on channel=9 note=42 velocity=75 time=0
EXTRACT: note_on channel=9 note=27 velocity=75 time=0
EXTRACT: note_on channel=9 note=35 velocity=75 time=0.009433966666666665
EXTRACT: note_on channel=7 note=69 velocity=0 time=0.009433966666666665
EXTRACT: note_on channel=7 note=69 velocity=100 time=0.009433966666666665
EXTRACT: note_on channel=9 note=27 velocity=0 time=0.004716983333333332
EXTRACT: note_on channel=9 note=42 velocity=0 time=0
EXTRACT: note_on channel=9 note=35 velocity=0 time=0.009433966666666665
EXTRACT: note_on channel=5 note=57 velocity=0 time=0.1745283833333333
EXTRACT: note_on channel=5 note=52 velocity=0 time=0
EXTRACT: note_on channel=5 note=69 velocity=0 time=0
EXTRACT: note_on channel=5 note=60 velocity=0 time=0.009433966666666665
EXTRACT: note_on channel=5 note=64 velocity=0 time=0.004716983333333332
EXTRACT: note_on channel=5 note=52 velocity=66 time=0.014150949999999997
EXTRACT: note_on channel=5 note=57 velocity=66 time=0
EXTRACT: note_on channel=5 note=60 velocity=66 time=0
EXTRACT: note_on channel=5 note=69 velocity=66 time=0
EXTRACT: note_on channel=1 note=33 velocity=0 time=0.004716983333333332
EXTRACT: note_on channel=5 note=64 velocity=66 time=0
EXTRACT: note_on channel=5 note=45 velocity=0 time=0.009433966666666665
EXTRACT: note_on channel=5 note=45 velocity=67 time=0.004716983333333332
EXTRACT: note_on channel=9 note=75 velocity=46 time=0.01886793333333333
EXTRACT: note_on channel=9 note=42 velocity=54 time=0
EXTRACT: note_on channel=1 note=33 velocity=62 time=0.004716983333333332
EXTRACT: note_on channel=7 note=64 velocity=100 time=0.004716983333333332
EXTRACT: note_on channel=7 note=69 velocity=0 time=0.014150949999999997
EXTRACT: note_on channel=9 note=42 velocity=0 time=0.009433966666666665
EXTRACT: note_on channel=9 note=75 velocity=0 time=0
EXTRACT: note_on channel=1 note=33 velocity=0 time=0.16509441666666663
EXTRACT: note_on channel=5 note=45 velocity=0 time=0.04245284999999999
EXTRACT: note_on channel=5 note=45 velocity=67 time=0.04245284999999999
EXTRACT: note_on channel=9 note=75 velocity=50 time=0
EXTRACT: note_on channel=9 note=42 velocity=75 time=0
EXTRACT: note_on channel=9 note=27 velocity=75 time=0
EXTRACT: note_on channel=9 note=39 velocity=75 time=0
EXTRACT: note_on channel=1 note=33 velocity=75 time=0.004716983333333332
EXTRACT: note_on channel=7 note=64 velocity=0 time=0
EXTRACT: note_on channel=7 note=64 velocity=100 time=0.009433966666666665
EXTRACT: note_on channel=9 note=39 velocity=0 time=0.01886793333333333
EXTRACT: note_on channel=9 note=75 velocity=0 time=0
EXTRACT: note_on channel=9 note=42 velocity=0 time=0
EXTRACT: note_on channel=9 note=27 velocity=0 time=0
EXTRACT: note_on channel=5 note=57 velocity=0 time=0.22169821666666661
EXTRACT: note_on channel=5 note=52 velocity=0 time=0
EXTRACT: note_on channel=5 note=60 velocity=0 time=0
EXTRACT: note_on channel=5 note=69 velocity=0 time=0
EXTRACT: note_on channel=5 note=64 velocity=0 time=0.004716983333333332
EXTRACT: note_on channel=5 note=57 velocity=66 time=0.004716983333333332
EXTRACT: note_on channel=5 note=69 velocity=66 time=0.004716983333333332
EXTRACT: note_on channel=5 note=60 velocity=66 time=0
EXTRACT: note_on channel=5 note=52 velocity=66 time=0.004716983333333332
EXTRACT: note_on channel=5 note=45 velocity=0 time=0.004716983333333332
EXTRACT: note_on channel=5 note=45 velocity=67 time=0
EXTRACT: note_on channel=5 note=64 velocity=66 time=0
EXTRACT: note_on channel=9 note=42 velocity=56 time=0.004716983333333332
EXTRACT: note_on channel=9 note=27 velocity=75 time=0
EXTRACT: note_on channel=9 note=75 velocity=50 time=0
EXTRACT: note_on channel=7 note=64 velocity=0 time=0.009433966666666665
EXTRACT: note_on channel=7 note=62 velocity=100 time=0
EXTRACT: note_on channel=9 note=27 velocity=0 time=0.08018871666666665
EXTRACT: note_on channel=9 note=75 velocity=0 time=0.01886793333333333
EXTRACT: note_on channel=9 note=42 velocity=0 time=0.004716983333333332
EXTRACT: note_on channel=1 note=33 velocity=0 time=0.14150949999999998
EXTRACT: note_on channel=0 note=57 velocity=0 time=0.004716983333333332
EXTRACT: note_on channel=0 note=45 velocity=0 time=0
EXTRACT: note_on channel=0 note=64 velocity=0 time=0
EXTRACT: note_on channel=0 note=60 velocity=0 time=0
EXTRACT: note_on channel=6 note=52 velocity=0 time=0
EXTRACT: note_on channel=6 note=64 velocity=0 time=0
EXTRACT: note_on channel=6 note=57 velocity=0 time=0
EXTRACT: note_on channel=5 note=45 velocity=0 time=0.014150949999999997
EXTRACT: note_on channel=5 note=52 velocity=0 time=0.004716983333333332
EXTRACT: note_on channel=9 note=75 velocity=46 time=0.004716983333333332
EXTRACT: note_on channel=9 note=35 velocity=75 time=0
EXTRACT: note_on channel=6 note=59 velocity=52 time=0.004716983333333332
EXTRACT: note_on channel=7 note=62 velocity=0 time=0
EXTRACT: note_on channel=9 note=42 velocity=75 time=0
EXTRACT: note_on channel=0 note=40 velocity=48 time=0.004716983333333332
EXTRACT: note_on channel=1 note=28 velocity=79 time=0
EXTRACT: note_on channel=5 note=52 velocity=66 time=0
EXTRACT: note_on channel=6 note=67 velocity=50 time=0
EXTRACT: note_on channel=0 note=64 velocity=45 time=0.004716983333333332
EXTRACT: note_on channel=0 note=59 velocity=45 time=0
EXTRACT: note_on channel=0 note=55 velocity=45 time=0
EXTRACT: note_on channel=6 note=55 velocity=52 time=0
EXTRACT: note_on channel=7 note=62 velocity=100 time=0
EXTRACT: note_on channel=9 note=35 velocity=0 time=0.01886793333333333
EXTRACT: note_on channel=9 note=42 velocity=0 time=0.004716983333333332
EXTRACT: note_on channel=9 note=75 velocity=0 time=0.04716983333333333
EXTRACT: note_on channel=9 note=42 velocity=58 time=0.19811329999999996
EXTRACT: note_on channel=5 note=52 velocity=0 time=0.004716983333333332
EXTRACT: note_on channel=5 note=52 velocity=66 time=0
EXTRACT: note_on channel=7 note=62 velocity=0 time=0.004716983333333332
EXTRACT: note_on channel=7 note=64 velocity=100 time=0
EXTRACT: note_on channel=9 note=42 velocity=0 time=0.023584916666666664
EXTRACT: note_on channel=9 note=42 velocity=40 time=0.10849061666666665
EXTRACT: note_on channel=9 note=42 velocity=0 time=0.08490569999999999
EXTRACT: note_on channel=5 note=69 velocity=0 time=0.033018883333333325
EXTRACT: note_on channel=5 note=64 velocity=0 time=0.004716983333333332
EXTRACT: note_on channel=5 note=57 velocity=0 time=0
EXTRACT: note_on channel=5 note=60 velocity=0 time=0
EXTRACT: note_on channel=5 note=67 velocity=70 time=0.014150949999999997
EXTRACT: note_on channel=5 note=59 velocity=70 time=0
EXTRACT: note_on channel=5 note=52 velocity=0 time=0.004716983333333332
EXTRACT: note_on channel=5 note=64 velocity=70 time=0
EXTRACT: note_on channel=5 note=52 velocity=66 time=0
EXTRACT: note_on channel=9 note=27 velocity=75 time=0
EXTRACT: note_on channel=9 note=75 velocity=56 time=0
EXTRACT: note_on channel=9 note=42 velocity=75 time=0
EXTRACT: note_on channel=9 note=39 velocity=75 time=0
EXTRACT: note_on channel=5 note=71 velocity=66 time=0.004716983333333332
EXTRACT: note_on channel=7 note=64 velocity=0 time=0
EXTRACT: note_on channel=7 note=64 velocity=100 time=0.009433966666666665
EXTRACT: note_on channel=9 note=39 velocity=0 time=0.01886793333333333
EXTRACT: note_on channel=9 note=27 velocity=0 time=0
EXTRACT: note_on channel=9 note=75 velocity=0 time=0
EXTRACT: note_on channel=9 note=42 velocity=0 time=0
EXTRACT: note_on channel=1 note=28 velocity=0 time=0.22169821666666661
EXTRACT: note_on channel=5 note=52 velocity=0 time=0.023584916666666664
EXTRACT: note_on channel=5 note=52 velocity=66 time=0
EXTRACT: note_on channel=9 note=75 velocity=44 time=0.004716983333333332
EXTRACT: note_on channel=9 note=42 velocity=52 time=0
EXTRACT: note_on channel=9 note=27 velocity=75 time=0
EXTRACT: note_on channel=9 note=35 velocity=75 time=0
EXTRACT: note_on channel=1 note=28 velocity=54 time=0.009433966666666665
EXTRACT: note_on channel=7 note=64 velocity=0 time=0
EXTRACT: note_on channel=9 note=35 velocity=0 time=0.023584916666666664
EXTRACT: note_on channel=9 note=75 velocity=0 time=0
EXTRACT: note_on channel=9 note=42 velocity=0 time=0
EXTRACT: note_on channel=9 note=27 velocity=0 time=0
EXTRACT: note_on channel=9 note=35 velocity=75 time=0.09905664999999998
EXTRACT: note_on channel=9 note=35 velocity=0 time=0.033018883333333325
EXTRACT: note_on channel=1 note=28 velocity=0 time=0.10849061666666665
EXTRACT: note_on channel=5 note=52 velocity=0 time=0
EXTRACT: note_on channel=5 note=52 velocity=66 time=0.009433966666666665
EXTRACT: note_on channel=9 note=42 velocity=75 time=0
EXTRACT: note_on channel=9 note=27 velocity=75 time=0
EXTRACT: note_on channel=9 note=75 velocity=46 time=0
EXTRACT: note_on channel=1 note=28 velocity=68 time=0.009433966666666665
EXTRACT: note_on channel=9 note=35 velocity=75 time=0.004716983333333332
EXTRACT: note_on channel=9 note=75 velocity=0 time=0.01886793333333333
EXTRACT: note_on channel=9 note=42 velocity=0 time=0
EXTRACT: note_on channel=9 note=27 velocity=0 time=0
EXTRACT: note_on channel=9 note=35 velocity=0 time=0.014150949999999997
EXTRACT: note_on channel=5 note=67 velocity=0 time=0.19339631666666662
EXTRACT: note_on channel=5 note=71 velocity=0 time=0.014150949999999997
EXTRACT: note_on channel=5 note=59 velocity=0 time=0
EXTRACT: note_on channel=5 note=71 velocity=45 time=0.014150949999999997
EXTRACT: note_on channel=5 note=64 velocity=0 time=0.004716983333333332
EXTRACT: note_on channel=5 note=67 velocity=77 time=0
EXTRACT: note_on channel=5 note=59 velocity=56 time=0
EXTRACT: note_on channel=5 note=52 velocity=0 time=0.004716983333333332
EXTRACT: note_on channel=5 note=52 velocity=66 time=0
EXTRACT: note_on channel=5 note=64 velocity=85 time=0
EXTRACT: note_on channel=9 note=42 velocity=75 time=0.004716983333333332
EXTRACT: note_on channel=9 note=42 velocity=0 time=0.033018883333333325
EXTRACT: note_on channel=5 note=52 velocity=0 time=0.24056614999999995
EXTRACT: note_on channel=5 note=52 velocity=66 time=0.009433966666666665
EXTRACT: note_on channel=9 note=75 velocity=50 time=0
EXTRACT: note_on channel=9 note=42 velocity=75 time=0
EXTRACT: note_on channel=9 note=39 velocity=75 time=0
EXTRACT: note_on channel=9 note=27 velocity=75 time=0
EXTRACT: note_on channel=9 note=27 velocity=0 time=0.033018883333333325
EXTRACT: note_on channel=9 note=75 velocity=0 time=0
EXTRACT: note_on channel=9 note=42 velocity=0 time=0
EXTRACT: note_on channel=9 note=39 velocity=0 time=0
EXTRACT: note_on channel=5 note=71 velocity=0 time=0.19339631666666662
EXTRACT: note_on channel=5 note=67 velocity=0 time=0.004716983333333332
EXTRACT: note_on channel=5 note=64 velocity=0 time=0.004716983333333332
EXTRACT: note_on channel=1 note=28 velocity=0 time=0.004716983333333332
EXTRACT: note_on channel=5 note=59 velocity=0 time=0.009433966666666665
EXTRACT: note_on channel=5 note=71 velocity=56 time=0.004716983333333332
EXTRACT: note_on channel=5 note=64 velocity=56 time=0
EXTRACT: note_on channel=5 note=67 velocity=56 time=0.004716983333333332
EXTRACT: note_on channel=5 note=59 velocity=56 time=0.004716983333333332
EXTRACT: note_on channel=5 note=52 velocity=0 time=0.014150949999999997
EXTRACT: note_on channel=1 note=35 velocity=68 time=0.004716983333333332
EXTRACT: note_on channel=9 note=42 velocity=75 time=0
EXTRACT: note_on channel=9 note=27 velocity=75 time=0
EXTRACT: note_on channel=9 note=75 velocity=50 time=0
EXTRACT: note_on channel=5 note=52 velocity=66 time=0.004716983333333332
EXTRACT: note_on channel=9 note=27 velocity=0 time=0.08490569999999999
EXTRACT: note_on channel=9 note=75 velocity=0 time=0.01886793333333333
EXTRACT: note_on channel=9 note=42 velocity=0 time=0.004716983333333332
EXTRACT: note_on channel=0 note=55 velocity=0 time=0.1462264833333333
EXTRACT: note_on channel=0 note=40 velocity=0 time=0
EXTRACT: note_on channel=0 note=64 velocity=0 time=0
EXTRACT: note_on channel=0 note=59 velocity=0 time=0
EXTRACT: note_on channel=1 note=35 velocity=0 time=0
EXTRACT: note_on channel=6 note=55 velocity=0 time=0
EXTRACT: note_on channel=6 note=67 velocity=0 time=0
EXTRACT: note_on channel=6 note=59 velocity=0 time=0
EXTRACT: note_on channel=5 note=52 velocity=0 time=0.023584916666666664
EXTRACT: note_on channel=5 note=50 velocity=66 time=0
EXTRACT: note_on channel=9 note=75 velocity=46 time=0
EXTRACT: note_on channel=9 note=35 velocity=75 time=0
EXTRACT: note_on channel=6 note=62 velocity=52 time=0.004716983333333332
EXTRACT: note_on channel=9 note=42 velocity=75 time=0
EXTRACT: note_on channel=0 note=50 velocity=48 time=0.004716983333333332
EXTRACT: note_on channel=1 note=38 velocity=83 time=0
EXTRACT: note_on channel=6 note=69 velocity=50 time=0
EXTRACT: note_on channel=0 note=66 velocity=45 time=0.004716983333333332
EXTRACT: note_on channel=0 note=62 velocity=45 time=0
EXTRACT: note_on channel=0 note=57 velocity=45 time=0
EXTRACT: note_on channel=6 note=57 velocity=52 time=0
EXTRACT: note_on channel=9 note=35 velocity=0 time=0.01886793333333333
EXTRACT: note_on channel=9 note=42 velocity=0 time=0.004716983333333332
EXTRACT: note_on channel=9 note=75 velocity=0 time=0.04716983333333333
EXTRACT: note_on channel=5 note=50 velocity=0 time=0.19339631666666662
EXTRACT: note_on channel=5 note=50 velocity=66 time=0
EXTRACT: note_on channel=9 note=42 velocity=58 time=0.004716983333333332
EXTRACT: note_on channel=7 note=66 velocity=100 time=0.009433966666666665
EXTRACT: note_on channel=9 note=42 velocity=0 time=0.023584916666666664
EXTRACT: note_on channel=5 note=50 velocity=0 time=0.24056614999999995
EXTRACT: note_on channel=5 note=59 velocity=0 time=0
EXTRACT: note_on channel=5 note=71 velocity=0 time=0
EXTRACT: note_on channel=5 note=67 velocity=0 time=0
EXTRACT: note_on channel=5 note=64 velocity=0 time=0.004716983333333332
EXTRACT: note_on channel=5 note=50 velocity=66 time=0.004716983333333332
EXTRACT: note_on channel=5 note=69 velocity=66 time=0
EXTRACT: note_on channel=5 note=66 velocity=67 time=0
EXTRACT: note_on channel=9 note=27 velocity=75 time=0
EXTRACT: note_on channel=9 note=39 velocity=75 time=0
EXTRACT: note_on channel=9 note=42 velocity=75 time=0
EXTRACT: note_on channel=9 note=75 velocity=56 time=0
EXTRACT: note_on channel=5 note=62 velocity=67 time=0.004716983333333332
EXTRACT: note_on channel=5 note=57 velocity=70 time=0
EXTRACT: note_on channel=7 note=66 velocity=0 time=0
EXTRACT: note_on channel=7 note=66 velocity=100 time=0.014150949999999997
EXTRACT: note_on channel=9 note=75 velocity=0 time=0.014150949999999997
EXTRACT: note_on channel=9 note=27 velocity=0 time=0
EXTRACT: note_on channel=9 note=39 velocity=0 time=0
EXTRACT: note_on channel=9 note=42 velocity=0 time=0
EXTRACT: note_on channel=1 note=38 velocity=0 time=0.22169821666666661
EXTRACT: note_on channel=5 note=50 velocity=0 time=0.023584916666666664
EXTRACT: note_on channel=5 note=50 velocity=66 time=0
EXTRACT: note_on channel=9 note=75 velocity=44 time=0.004716983333333332
EXTRACT: note_on channel=9 note=42 velocity=52 time=0
EXTRACT: note_on channel=9 note=35 velocity=75 time=0
EXTRACT: note_on channel=9 note=27 velocity=75 time=0
EXTRACT: note_on channel=1 note=38 velocity=54 time=0.009433966666666665
EXTRACT: note_on channel=7 note=66 velocity=0 time=0.004716983333333332
EXTRACT: note_on channel=7 note=66 velocity=100 time=0
EXTRACT: note_on channel=9 note=27 velocity=0 time=0.01886793333333333
EXTRACT: note_on channel=9 note=75 velocity=0 time=0
EXTRACT: note_on channel=9 note=42 velocity=0 time=0
EXTRACT: note_on channel=9 note=35 velocity=0 time=0
EXTRACT: note_on channel=9 note=35 velocity=75 time=0.09433966666666666
EXTRACT: note_on channel=9 note=35 velocity=0 time=0.033018883333333325
EXTRACT: note_on channel=1 note=38 velocity=0 time=0.11320759999999998
EXTRACT: note_on channel=5 note=50 velocity=0 time=0
EXTRACT: note_on channel=5 note=50 velocity=66 time=0.009433966666666665
EXTRACT: note_on channel=9 note=75 velocity=46 time=0
EXTRACT: note_on channel=9 note=42 velocity=75 time=0
EXTRACT: note_on channel=9 note=27 velocity=75 time=0
EXTRACT: note_on channel=9 note=35 velocity=75 time=0.004716983333333332
EXTRACT: note_on channel=1 note=38 velocity=68 time=0.004716983333333332
EXTRACT: note_on channel=7 note=66 velocity=0 time=0
EXTRACT: note_on channel=7 note=66 velocity=100 time=0.009433966666666665
EXTRACT: note_on channel=9 note=27 velocity=0 time=0.014150949999999997
EXTRACT: note_on channel=9 note=75 velocity=0 time=0
EXTRACT: note_on channel=9 note=42 velocity=0 time=0
EXTRACT: note_on channel=9 note=35 velocity=0 time=0.004716983333333332
EXTRACT: note_on channel=5 note=57 velocity=0 time=0.22169821666666661
EXTRACT: note_on channel=5 note=69 velocity=0 time=0
EXTRACT: note_on channel=5 note=62 velocity=0 time=0.009433966666666665
EXTRACT: note_on channel=5 note=66 velocity=0 time=0.004716983333333332
EXTRACT: note_on channel=5 note=50 velocity=0 time=0.004716983333333332
EXTRACT: note_on channel=5 note=57 velocity=66 time=0
EXTRACT: note_on channel=5 note=62 velocity=66 time=0
EXTRACT: note_on channel=5 note=69 velocity=66 time=0
EXTRACT: note_on channel=5 note=50 velocity=66 time=0
EXTRACT: note_on channel=9 note=42 velocity=75 time=0.004716983333333332
EXTRACT: note_on channel=5 note=66 velocity=66 time=0.004716983333333332
EXTRACT: note_on channel=7 note=66 velocity=0 time=0.009433966666666665
EXTRACT: note_on channel=7 note=62 velocity=100 time=0
EXTRACT: note_on channel=9 note=42 velocity=0 time=0.01886793333333333
EXTRACT: note_on channel=5 note=50 velocity=0 time=0.24056614999999995
EXTRACT: note_on channel=5 note=50 velocity=66 time=0.004716983333333332
EXTRACT: note_on channel=9 note=75 velocity=50 time=0.004716983333333332
EXTRACT: note_on channel=9 note=27 velocity=75 time=0
EXTRACT: note_on channel=9 note=39 velocity=75 time=0
EXTRACT: note_on channel=9 note=42 velocity=75 time=0
EXTRACT: note_on channel=7 note=62 velocity=0 time=0.009433966666666665
EXTRACT: note_on channel=7 note=62 velocity=100 time=0.009433966666666665
EXTRACT: note_on channel=9 note=42 velocity=0 time=0.014150949999999997
EXTRACT: note_on channel=9 note=75 velocity=0 time=0
EXTRACT: note_on channel=9 note=27 velocity=0 time=0
EXTRACT: note_on channel=9 note=39 velocity=0 time=0
EXTRACT: note_on channel=5 note=66 velocity=0 time=0.22641519999999996
EXTRACT: note_on channel=5 note=69 velocity=0 time=0.004716983333333332
EXTRACT: note_on channel=5 note=57 velocity=0 time=0.009433966666666665
EXTRACT: note_on channel=5 note=62 velocity=0 time=0
EXTRACT: note_on channel=5 note=50 velocity=0 time=0
EXTRACT: note_on channel=5 note=50 velocity=66 time=0.004716983333333332
EXTRACT: note_on channel=5 note=57 velocity=66 time=0
EXTRACT: note_on channel=9 note=42 velocity=75 time=0.004716983333333332
EXTRACT: note_on channel=9 note=27 velocity=75 time=0
EXTRACT: note_on channel=9 note=75 velocity=50 time=0
EXTRACT: note_on channel=5 note=62 velocity=66 time=0.004716983333333332
EXTRACT: note_on channel=5 note=69 velocity=66 time=0.004716983333333332
EXTRACT: note_on channel=5 note=66 velocity=66 time=0
EXTRACT: note_on channel=7 note=62 velocity=0 time=0.004716983333333332
EXTRACT: note_on channel=7 note=59 velocity=100 time=0.009433966666666665
EXTRACT: note_on channel=9 note=27 velocity=0 time=0.06603776666666665
EXTRACT: note_on channel=9 note=75 velocity=0 time=0.01886793333333333
EXTRACT: note_on channel=9 note=42 velocity=0 time=0.004716983333333332
EXTRACT: note_on channel=1 note=38 velocity=0 time=0.06132078333333332
EXTRACT: note_on channel=0 note=57 velocity=0 time=0.08490569999999999
EXTRACT: note_on channel=0 note=50 velocity=0 time=0
EXTRACT: note_on channel=0 note=66 velocity=0 time=0
EXTRACT: note_on channel=0 note=62 velocity=0 time=0
EXTRACT: note_on channel=6 note=57 velocity=0 time=0
EXTRACT: note_on channel=6 note=69 velocity=0 time=0
EXTRACT: note_on channel=6 note=62 velocity=0 time=0
EXTRACT: note_on channel=5 note=50 velocity=0 time=0.014150949999999997
EXTRACT: note_on channel=9 note=75 velocity=46 time=0.009433966666666665
EXTRACT: note_on channel=9 note=35 velocity=75 time=0
EXTRACT: note_on channel=1 note=33 velocity=75 time=0.004716983333333332
EXTRACT: note_on channel=5 note=45 velocity=67 time=0
EXTRACT: note_on channel=6 note=57 velocity=52 time=0
EXTRACT: note_on channel=9 note=42 velocity=75 time=0
EXTRACT: note_on channel=0 note=45 velocity=48 time=0.004716983333333332
EXTRACT: note_on channel=3 note=60 velocity=100 time=0
EXTRACT: note_on channel=6 note=64 velocity=50 time=0
EXTRACT: note_on channel=7 note=60 velocity=100 time=0
EXTRACT: note_on channel=0 note=64 velocity=45 time=0.004716983333333332
EXTRACT: note_on channel=0 note=60 velocity=45 time=0
EXTRACT: note_on channel=0 note=57 velocity=45 time=0
EXTRACT: note_on channel=6 note=52 velocity=52 time=0
EXTRACT: note_on channel=7 note=59 velocity=0 time=0.004716983333333332
EXTRACT: note_on channel=9 note=35 velocity=0 time=0.014150949999999997
EXTRACT: note_on channel=9 note=42 velocity=0 time=0.004716983333333332
EXTRACT: note_on channel=9 note=75 velocity=0 time=0.04716983333333333
EXTRACT: note_on channel=9 note=42 velocity=58 time=0.19811329999999996
EXTRACT: note_on channel=7 note=60 velocity=0 time=0.004716983333333332
EXTRACT: note_on channel=5 note=45 velocity=0 time=0.004716983333333332
EXTRACT: note_on channel=5 note=45 velocity=67 time=0.004716983333333332
EXTRACT: note_on channel=3 note=60 velocity=0 time=0.004716983333333332
EXTRACT: note_on channel=9 note=42 velocity=0 time=0.014150949999999997
EXTRACT: note_on channel=9 note=42 velocity=40 time=0.10849061666666665
EXTRACT: note_on channel=9 note=42 velocity=0 time=0.08490569999999999
EXTRACT: note_on channel=5 note=66 velocity=0 time=0.04245284999999999
EXTRACT: note_on channel=5 note=69 velocity=0 time=0
EXTRACT: note_on channel=5 note=57 velocity=0 time=0
EXTRACT: note_on channel=5 note=45 velocity=0 time=0.004716983333333332
EXTRACT: note_on channel=5 note=62 velocity=0 time=0.004716983333333332
EXTRACT: note_on channel=3 note=59 velocity=100 time=0.004716983333333332
EXTRACT: note_on channel=5 note=52 velocity=34 time=0
EXTRACT: note_on channel=9 note=27 velocity=75 time=0
EXTRACT: note_on channel=9 note=75 velocity=56 time=0
EXTRACT: note_on channel=9 note=42 velocity=75 time=0
EXTRACT: note_on channel=9 note=39 velocity=75 time=0
EXTRACT: note_on channel=5 note=45 velocity=67 time=0.004716983333333332
EXTRACT: note_on channel=5 note=69 velocity=66 time=0
EXTRACT: note_on channel=5 note=64 velocity=67 time=0
EXTRACT: note_on channel=5 note=60 velocity=67 time=0
EXTRACT: note_on channel=5 note=57 velocity=70 time=0
EXTRACT: note_on channel=7 note=59 velocity=100 time=0.004716983333333332
EXTRACT: note_on channel=9 note=39 velocity=0 time=0.023584916666666664
EXTRACT: note_on channel=9 note=27 velocity=0 time=0
EXTRACT: note_on channel=9 note=75 velocity=0 time=0
EXTRACT: note_on channel=9 note=42 velocity=0 time=0
EXTRACT: note_on channel=1 note=33 velocity=0 time=0.16509441666666663
EXTRACT: note_on channel=5 note=45 velocity=0 time=0.06603776666666665
EXTRACT: note_on channel=5 note=45 velocity=67 time=0.014150949999999997
EXTRACT: note_on channel=9 note=27 velocity=75 time=0.004716983333333332
EXTRACT: note_on channel=9 note=75 velocity=44 time=0
EXTRACT: note_on channel=9 note=42 velocity=52 time=0
EXTRACT: note_on channel=1 note=33 velocity=75 time=0.004716983333333332
EXTRACT: note_on channel=7 note=59 velocity=0 time=0
EXTRACT: note_on channel=3 note=59 velocity=0 time=0.004716983333333332
EXTRACT: note_on channel=9 note=42 velocity=0 time=0.023584916666666664
EXTRACT: note_on channel=9 note=75 velocity=0 time=0
EXTRACT: note_on channel=9 note=27 velocity=0 time=0
EXTRACT: note_on channel=9 note=39 velocity=85 time=0.07547173333333332
EXTRACT: note_on channel=9 note=39 velocity=0 time=0.033018883333333325
EXTRACT: note_on channel=5 note=45 velocity=0 time=0.11320759999999998
EXTRACT: note_on channel=9 note=42 velocity=75 time=0.028301899999999994
EXTRACT: note_on channel=9 note=27 velocity=75 time=0
EXTRACT: note_on channel=9 note=75 velocity=46 time=0
EXTRACT: note_on channel=5 note=45 velocity=67 time=0.004716983333333332
EXTRACT: note_on channel=7 note=57 velocity=100 time=0
EXTRACT: note_on channel=3 note=57 velocity=100 time=0.004716983333333332
EXTRACT: note_on channel=9 note=35 velocity=75 time=0
EXTRACT: note_on channel=9 note=35 velocity=0 time=0.01886793333333333
EXTRACT: note_on channel=9 note=42 velocity=0 time=0.004716983333333332
EXTRACT: note_on channel=9 note=27 velocity=0 time=0
EXTRACT: note_on channel=9 note=75 velocity=0 time=0
EXTRACT: note_on channel=5 note=69 velocity=0 time=0.19811329999999996
EXTRACT: note_on channel=5 note=64 velocity=0 time=0
EXTRACT: note_on channel=5 note=60 velocity=0 time=0.004716983333333332
EXTRACT: note_on channel=5 note=52 velocity=0 time=0
EXTRACT: note_on channel=5 note=57 velocity=0 time=0
EXTRACT: note_on channel=5 note=52 velocity=66 time=0.014150949999999997
EXTRACT: note_on channel=5 note=57 velocity=66 time=0
EXTRACT: note_on channel=5 note=60 velocity=66 time=0
EXTRACT: note_on channel=5 note=69 velocity=66 time=0
EXTRACT: note_on channel=5 note=64 velocity=66 time=0.004716983333333332
EXTRACT: note_on channel=5 note=45 velocity=0 time=0.009433966666666665
EXTRACT: note_on channel=5 note=45 velocity=67 time=0.004716983333333332
EXTRACT: note_on channel=7 note=57 velocity=0 time=0.014150949999999997
EXTRACT: note_on channel=9 note=42 velocity=75 time=0
EXTRACT: note_on channel=9 note=35 velocity=75 time=0
EXTRACT: note_on channel=3 note=57 velocity=0 time=0.01886793333333333
EXTRACT: note_on channel=9 note=35 velocity=0 time=0
EXTRACT: note_on channel=9 note=42 velocity=0 time=0
EXTRACT: note_on channel=9 note=39 velocity=52 time=0.12264156666666665
EXTRACT: note_on channel=9 note=35 velocity=75 time=0
EXTRACT: note_on channel=9 note=39 velocity=0 time=0.01886793333333333
EXTRACT: note_on channel=9 note=35 velocity=0 time=0.014150949999999997
EXTRACT: note_on channel=5 note=45 velocity=0 time=0.07075474999999999
EXTRACT: note_on channel=3 note=52 velocity=100 time=0.03773586666666666
EXTRACT: note_on channel=9 note=42 velocity=75 time=0
EXTRACT: note_on channel=9 note=27 velocity=75 time=0
EXTRACT: note_on channel=9 note=75 velocity=50 time=0
EXTRACT: note_on channel=9 note=39 velocity=95 time=0
EXTRACT: note_on channel=5 note=45 velocity=67 time=0.004716983333333332
EXTRACT: note_on channel=7 note=52 velocity=100 time=0
EXTRACT: note_on channel=9 note=35 velocity=75 time=0.009433966666666665
EXTRACT: note_on channel=9 note=39 velocity=0 time=0.004716983333333332
EXTRACT: note_on channel=9 note=75 velocity=0 time=0
EXTRACT: note_on channel=9 note=42 velocity=0 time=0
EXTRACT: note_on channel=9 note=27 velocity=0 time=0
EXTRACT: note_on channel=9 note=35 velocity=0 time=0.028301899999999994
EXTRACT: note_on channel=9 note=39 velocity=60 time=0.09433966666666666
EXTRACT: note_on channel=9 note=39 velocity=0 time=0.01886793333333333
EXTRACT: note_on channel=1 note=33 velocity=0 time=0.023584916666666664
EXTRACT: note_on channel=5 note=57 velocity=0 time=0.07547173333333332
EXTRACT: note_on channel=5 note=52 velocity=0 time=0
EXTRACT: note_on channel=5 note=60 velocity=0 time=0
EXTRACT: note_on channel=5 note=69 velocity=0 time=0
EXTRACT: note_on channel=5 note=64 velocity=0 time=0.004716983333333332
EXTRACT: note_on channel=5 note=57 velocity=66 time=0.004716983333333332
EXTRACT: note_on channel=5 note=69 velocity=66 time=0.004716983333333332
EXTRACT: note_on channel=5 note=60 velocity=66 time=0
EXTRACT: note_on channel=5 note=52 velocity=66 time=0.004716983333333332
EXTRACT: note_on channel=1 note=33 velocity=60 time=0.004716983333333332
EXTRACT: note_on channel=5 note=45 velocity=0 time=0
EXTRACT: note_on channel=5 note=45 velocity=67 time=0
EXTRACT: note_on channel=5 note=64 velocity=66 time=0
EXTRACT: note_on channel=7 note=52 velocity=0 time=0
EXTRACT: note_on channel=9 note=75 velocity=50 time=0
EXTRACT: note_on channel=9 note=27 velocity=75 time=0
EXTRACT: note_on channel=9 note=39 velocity=78 time=0
EXTRACT: note_on channel=9 note=42 velocity=75 time=0
EXTRACT: note_on channel=9 note=35 velocity=75 time=0
EXTRACT: note_on channel=3 note=52 velocity=0 time=0.009433966666666665
EXTRACT: note_on channel=9 note=42 velocity=0 time=0.009433966666666665
EXTRACT: note_on channel=9 note=39 velocity=0 time=0
EXTRACT: note_on channel=9 note=75 velocity=0 time=0
EXTRACT: note_on channel=9 note=27 velocity=0 time=0
EXTRACT: note_on channel=9 note=35 velocity=0 time=0.014150949999999997
EXTRACT: note_on channel=9 note=39 velocity=52 time=0.10849061666666665
EXTRACT: note_on channel=9 note=39 velocity=0 time=0.08018871666666665
EXTRACT: note_on channel=0 note=57 velocity=0 time=0.03773586666666666
EXTRACT: note_on channel=0 note=45 velocity=0 time=0
EXTRACT: note_on channel=0 note=64 velocity=0 time=0
EXTRACT: note_on channel=0 note=60 velocity=0 time=0
EXTRACT: note_on channel=1 note=33 velocity=0 time=0
EXTRACT: note_on channel=6 note=52 velocity=0 time=0
EXTRACT: note_on channel=6 note=64 velocity=0 time=0
EXTRACT: note_on channel=6 note=57 velocity=0 time=0
EXTRACT: note_on channel=5 note=45 velocity=0 time=0.01886793333333333
EXTRACT: note_on channel=5 note=45 velocity=67 time=0.004716983333333332
EXTRACT: note_on channel=9 note=42 velocity=75 time=0
EXTRACT: note_on channel=9 note=35 velocity=75 time=0
EXTRACT: note_on channel=1 note=33 velocity=75 time=0
EXTRACT: note_on channel=4 note=57 velocity=100 time=0
EXTRACT: note_on channel=6 note=57 velocity=52 time=0
EXTRACT: note_on channel=9 note=75 velocity=46 time=0
EXTRACT: note_on channel=0 note=45 velocity=48 time=0.004716983333333332
EXTRACT: note_on channel=4 note=60 velocity=100 time=0
EXTRACT: note_on channel=6 note=64 velocity=50 time=0
EXTRACT: note_on channel=0 note=64 velocity=45 time=0.004716983333333332
EXTRACT: note_on channel=0 note=60 velocity=45 time=0
EXTRACT: note_on channel=0 note=57 velocity=45 time=0
EXTRACT: note_on channel=4 note=52 velocity=100 time=0
EXTRACT: note_on channel=6 note=52 velocity=52 time=0
EXTRACT: note_on channel=9 note=35 velocity=0 time=0.01886793333333333
EXTRACT: note_on channel=9 note=42 velocity=0 time=0
EXTRACT: note_on channel=9 note=75 velocity=0 time=0.004716983333333332
EXTRACT: note_on channel=4 note=60 velocity=0 time=0.24056614999999995
EXTRACT: note_on channel=4 note=57 velocity=0 time=0
EXTRACT: note_on channel=4 note=60 velocity=100 time=0.004716983333333332
EXTRACT: note_on channel=9 note=42 velocity=60 time=0
EXTRACT: note_on channel=5 note=45 velocity=0 time=0.004716983333333332
EXTRACT: note_on channel=7 note=69 velocity=100 time=0
EXTRACT: note_on channel=4 note=57 velocity=100 time=0.004716983333333332
EXTRACT: note_on channel=5 note=45 velocity=67 time=0
EXTRACT: note_on channel=4 note=52 velocity=0 time=0.004716983333333332
EXTRACT: note_on channel=4 note=52 velocity=100 time=0
EXTRACT: note_on channel=9 note=42 velocity=0 time=0.01886793333333333
EXTRACT: note_on channel=1 note=33 velocity=0 time=0.22641519999999996
EXTRACT: note_on channel=4 note=60 velocity=0 time=0.009433966666666665
EXTRACT: note_on channel=5 note=45 velocity=0 time=0
EXTRACT: note_on channel=5 note=57 velocity=0 time=0
EXTRACT: note_on channel=5 note=64 velocity=0 time=0
EXTRACT: note_on channel=5 note=69 velocity=0 time=0.004716983333333332
EXTRACT: note_on channel=5 note=52 velocity=0 time=0
EXTRACT: note_on channel=5 note=52 velocity=34 time=0.004716983333333332
EXTRACT: note_on channel=4 note=57 velocity=0 time=0.004716983333333332
EXTRACT: note_on channel=5 note=60 velocity=0 time=0
EXTRACT: note_on channel=5 note=45 velocity=67 time=0
EXTRACT: note_on channel=5 note=69 velocity=66 time=0
EXTRACT: note_on channel=5 note=64 velocity=67 time=0
EXTRACT: note_on channel=5 note=60 velocity=67 time=0
EXTRACT: note_on channel=5 note=57 velocity=70 time=0
EXTRACT: note_on channel=7 note=69 velocity=0 time=0
EXTRACT: note_on channel=9 note=75 velocity=56 time=0
EXTRACT: note_on channel=9 note=42 velocity=75 time=0
EXTRACT: note_on channel=9 note=27 velocity=75 time=0
EXTRACT: note_on channel=9 note=39 velocity=75 time=0
EXTRACT: note_on channel=1 note=33 velocity=58 time=0.004716983333333332
EXTRACT: note_on channel=4 note=57 velocity=100 time=0
EXTRACT: note_on channel=4 note=60 velocity=100 time=0
EXTRACT: note_on channel=7 note=69 velocity=100 time=0.004716983333333332
EXTRACT: note_on channel=4 note=52 velocity=0 time=0.004716983333333332
EXTRACT: note_on channel=4 note=52 velocity=100 time=0.004716983333333332
EXTRACT: note_on channel=9 note=39 velocity=0 time=0.014150949999999997
EXTRACT: note_on channel=9 note=75 velocity=0 time=0
EXTRACT: note_on channel=9 note=42 velocity=0 time=0
EXTRACT: note_on channel=9 note=27 velocity=0 time=0
EXTRACT: note_on channel=1 note=33 velocity=0 time=0.17924536666666663
EXTRACT: note_on channel=5 note=45 velocity=0 time=0.04716983333333333
EXTRACT: note_on channel=5 note=45 velocity=67 time=0.014150949999999997
EXTRACT: note_on channel=4 note=52 velocity=0 time=0.009433966666666665
EXTRACT: note_on channel=9 note=42 velocity=75 time=0
EXTRACT: note_on channel=9 note=35 velocity=75 time=0
EXTRACT: note_on channel=9 note=27 velocity=75 time=0
EXTRACT: note_on channel=9 note=75 velocity=44 time=0
EXTRACT: note_on channel=1 note=33 velocity=75 time=0.004716983333333332
EXTRACT: note_on channel=4 note=60 velocity=0 time=0
EXTRACT: note_on channel=4 note=57 velocity=0 time=0
EXTRACT: note_on channel=7 note=69 velocity=0 time=0
EXTRACT: note_on channel=4 note=52 velocity=100 time=0.004716983333333332
EXTRACT: note_on channel=4 note=57 velocity=100 time=0
EXTRACT: note_on channel=4 note=60 velocity=100 time=0.004716983333333332
EXTRACT: note_on channel=7 note=69 velocity=100 time=0.009433966666666665
EXTRACT: note_on channel=9 note=75 velocity=0 time=0.009433966666666665
EXTRACT: note_on channel=9 note=42 velocity=0 time=0
EXTRACT: note_on channel=9 note=35 velocity=0 time=0
EXTRACT: note_on channel=9 note=27 velocity=0 time=0
EXTRACT: note_on channel=9 note=35 velocity=100 time=0.1179245833333333
EXTRACT: note_on channel=9 note=35 velocity=0 time=0.07075474999999999
EXTRACT: note_on channel=5 note=45 velocity=0 time=0.028301899999999994
EXTRACT: note_on channel=4 note=52 velocity=0 time=0.023584916666666664
EXTRACT: note_on channel=5 note=45 velocity=67 time=0.009433966666666665
EXTRACT: note_on channel=9 note=42 velocity=75 time=0
EXTRACT: note_on channel=9 note=27 velocity=75 time=0
EXTRACT: note_on channel=4 note=57 velocity=0 time=0.009433966666666665
EXTRACT: note_on channel=9 note=35 velocity=75 time=0
EXTRACT: note_on channel=4 note=60 velocity=0 time=0.004716983333333332
EXTRACT: note_on channel=4 note=52 velocity=100 time=0
EXTRACT: note_on channel=4 note=57 velocity=100 time=0.004716983333333332
EXTRACT: note_on channel=4 note=60 velocity=100 time=0
EXTRACT: note_on channel=7 note=69 velocity=0 time=0
EXTRACT: note_on channel=7 note=69 velocity=100 time=0.004716983333333332
EXTRACT: note_on channel=9 note=27 velocity=0 time=0.009433966666666665
EXTRACT: note_on channel=9 note=42 velocity=0 time=0
EXTRACT: note_on channel=9 note=35 velocity=0 time=0.009433966666666665
EXTRACT: note_on channel=5 note=57 velocity=0 time=0.1745283833333333
EXTRACT: note_on channel=5 note=52 velocity=0 time=0
EXTRACT: note_on channel=5 note=69 velocity=0 time=0
EXTRACT: note_on channel=5 note=60 velocity=0 time=0.009433966666666665
EXTRACT: note_on channel=5 note=64 velocity=0 time=0.004716983333333332
EXTRACT: note_on channel=5 note=52 velocity=66 time=0.014150949999999997
EXTRACT: note_on channel=5 note=57 velocity=66 time=0
EXTRACT: note_on channel=5 note=60 velocity=66 time=0
EXTRACT: note_on channel=5 note=69 velocity=66 time=0
EXTRACT: note_on channel=1 note=33 velocity=0 time=0.004716983333333332
EXTRACT: note_on channel=5 note=64 velocity=66 time=0
EXTRACT: note_on channel=5 note=45 velocity=0 time=0.009433966666666665
EXTRACT: note_on channel=5 note=45 velocity=67 time=0.004716983333333332
EXTRACT: note_on channel=4 note=52 velocity=0 time=0.014150949999999997
EXTRACT: note_on channel=4 note=52 velocity=100 time=0.004716983333333332
EXTRACT: note_on channel=9 note=75 velocity=46 time=0
EXTRACT: note_on channel=9 note=42 velocity=54 time=0
EXTRACT: note_on channel=1 note=33 velocity=62 time=0.004716983333333332
EXTRACT: note_on channel=7 note=64 velocity=100 time=0.004716983333333332
EXTRACT: note_on channel=4 note=60 velocity=0 time=0.009433966666666665
EXTRACT: note_on channel=4 note=57 velocity=0 time=0
EXTRACT: note_on channel=7 note=69 velocity=0 time=0
EXTRACT: note_on channel=4 note=57 velocity=100 time=0.004716983333333332
EXTRACT: note_on channel=4 note=60 velocity=100 time=0
EXTRACT: note_on channel=9 note=42 velocity=0 time=0.009433966666666665
EXTRACT: note_on channel=9 note=75 velocity=0 time=0
EXTRACT: note_on channel=1 note=33 velocity=0 time=0.16509441666666663
EXTRACT: note_on channel=5 note=45 velocity=0 time=0.04245284999999999
EXTRACT: note_on channel=4 note=52 velocity=0 time=0.023584916666666664
EXTRACT: note_on channel=5 note=45 velocity=67 time=0.01886793333333333
EXTRACT: note_on channel=9 note=75 velocity=50 time=0
EXTRACT: note_on channel=9 note=42 velocity=75 time=0
EXTRACT: note_on channel=9 note=27 velocity=75 time=0
EXTRACT: note_on channel=9 note=39 velocity=75 time=0
EXTRACT: note_on channel=1 note=33 velocity=75 time=0.004716983333333332
EXTRACT: note_on channel=4 note=57 velocity=0 time=0
EXTRACT: note_on channel=7 note=64 velocity=0 time=0
EXTRACT: note_on channel=4 note=52 velocity=100 time=0.009433966666666665
EXTRACT: note_on channel=4 note=57 velocity=100 time=0
EXTRACT: note_on channel=7 note=64 velocity=100 time=0.004716983333333332
EXTRACT: note_on channel=4 note=60 velocity=0 time=0.004716983333333332
EXTRACT: note_on channel=4 note=60 velocity=100 time=0.004716983333333332
EXTRACT: note_on channel=9 note=39 velocity=0 time=0.004716983333333332
EXTRACT: note_on channel=9 note=75 velocity=0 time=0
EXTRACT: note_on channel=9 note=42 velocity=0 time=0
EXTRACT: note_on channel=9 note=27 velocity=0 time=0
EXTRACT: note_on channel=5 note=57 velocity=0 time=0.22169821666666661
EXTRACT: note_on channel=5 note=52 velocity=0 time=0
EXTRACT: note_on channel=5 note=60 velocity=0 time=0
EXTRACT: note_on channel=5 note=69 velocity=0 time=0
EXTRACT: note_on channel=5 note=64 velocity=0 time=0.004716983333333332
EXTRACT: note_on channel=5 note=57 velocity=66 time=0.004716983333333332
EXTRACT: note_on channel=5 note=69 velocity=66 time=0.004716983333333332
EXTRACT: note_on channel=5 note=60 velocity=66 time=0
EXTRACT: note_on channel=5 note=52 velocity=66 time=0.004716983333333332
EXTRACT: note_on channel=4 note=57 velocity=0 time=0.004716983333333332
EXTRACT: note_on channel=4 note=52 velocity=0 time=0
EXTRACT: note_on channel=5 note=45 velocity=0 time=0
EXTRACT: note_on channel=5 note=45 velocity=67 time=0
EXTRACT: note_on channel=5 note=64 velocity=66 time=0
EXTRACT: note_on channel=4 note=52 velocity=100 time=0.004716983333333332
EXTRACT: note_on channel=4 note=57 velocity=100 time=0
EXTRACT: note_on channel=9 note=42 velocity=56 time=0
EXTRACT: note_on channel=9 note=27 velocity=75 time=0
EXTRACT: note_on channel=9 note=75 velocity=50 time=0
EXTRACT: note_on channel=7 note=64 velocity=0 time=0.014150949999999997
EXTRACT: note_on channel=7 note=62 velocity=100 time=0
EXTRACT: note_on channel=4 note=60 velocity=0 time=0.014150949999999997
EXTRACT: note_on channel=4 note=60 velocity=100 time=0
EXTRACT: note_on channel=9 note=27 velocity=0 time=0.06132078333333332
EXTRACT: note_on channel=9 note=75 velocity=0 time=0.01886793333333333
EXTRACT: note_on channel=9 note=42 velocity=0 time=0.004716983333333332
EXTRACT: note_on channel=1 note=33 velocity=0 time=0.14150949999999998
EXTRACT: note_on channel=0 note=57 velocity=0 time=0.004716983333333332
EXTRACT: note_on channel=0 note=45 velocity=0 time=0
EXTRACT: note_on channel=0 note=64 velocity=0 time=0
EXTRACT: note_on channel=0 note=60 velocity=0 time=0
EXTRACT: note_on channel=6 note=52 velocity=0 time=0
EXTRACT: note_on channel=6 note=64 velocity=0 time=0
EXTRACT: note_on channel=6 note=57 velocity=0 time=0
EXTRACT: note_on channel=4 note=57 velocity=0 time=0.004716983333333332
EXTRACT: note_on channel=4 note=52 velocity=0 time=0
EXTRACT: note_on channel=4 note=60 velocity=0 time=0.009433966666666665
EXTRACT: note_on channel=5 note=45 velocity=0 time=0
EXTRACT: note_on channel=5 note=52 velocity=0 time=0.004716983333333332
EXTRACT: note_on channel=4 note=59 velocity=100 time=0.004716983333333332
EXTRACT: note_on channel=9 note=75 velocity=46 time=0
EXTRACT: note_on channel=9 note=35 velocity=75 time=0
EXTRACT: note_on channel=1 note=28 velocity=75 time=0.004716983333333332
EXTRACT: note_on channel=4 note=52 velocity=100 time=0
EXTRACT: note_on channel=6 note=59 velocity=52 time=0
EXTRACT: note_on channel=9 note=42 velocity=75 time=0
EXTRACT: note_on channel=0 note=40 velocity=48 time=0.004716983333333332
EXTRACT: note_on channel=5 note=52 velocity=66 time=0
EXTRACT: note_on channel=6 note=67 velocity=50 time=0
EXTRACT: note_on channel=7 note=62 velocity=0 time=0
EXTRACT: note_on channel=0 note=64 velocity=45 time=0.004716983333333332
EXTRACT: note_on channel=0 note=59 velocity=45 time=0
EXTRACT: note_on channel=0 note=55 velocity=45 time=0
EXTRACT: note_on channel=4 note=55 velocity=100 time=0
EXTRACT: note_on channel=6 note=55 velocity=52 time=0
EXTRACT: note_on channel=7 note=62 velocity=100 time=0.009433966666666665
EXTRACT: note_on channel=9 note=35 velocity=0 time=0.009433966666666665
EXTRACT: note_on channel=9 note=42 velocity=0 time=0.004716983333333332
EXTRACT: note_on channel=9 note=75 velocity=0 time=0.04716983333333333
EXTRACT: note_on channel=4 note=59 velocity=0 time=0.17924536666666663
EXTRACT: note_on channel=4 note=52 velocity=0 time=0.004716983333333332
EXTRACT: note_on channel=4 note=52 velocity=100 time=0
EXTRACT: note_on channel=4 note=55 velocity=0 time=0.009433966666666665
EXTRACT: note_on channel=4 note=55 velocity=100 time=0
EXTRACT: note_on channel=4 note=59 velocity=100 time=0
EXTRACT: note_on channel=9 note=42 velocity=58 time=0.004716983333333332
EXTRACT: note_on channel=5 note=52 velocity=0 time=0.004716983333333332
EXTRACT: note_on channel=5 note=52 velocity=66 time=0
EXTRACT: note_on channel=7 note=62 velocity=0 time=0.014150949999999997
EXTRACT: note_on channel=7 note=64 velocity=100 time=0.004716983333333332
EXTRACT: note_on channel=9 note=42 velocity=0 time=0.009433966666666665
EXTRACT: note_on channel=9 note=42 velocity=40 time=0.10849061666666665
EXTRACT: note_on channel=9 note=42 velocity=0 time=0.08490569999999999
EXTRACT: note_on channel=4 note=52 velocity=0 time=0.023584916666666664
EXTRACT: note_on channel=4 note=59 velocity=0 time=0.009433966666666665
EXTRACT: note_on channel=4 note=55 velocity=0 time=0
EXTRACT: note_on channel=5 note=69 velocity=0 time=0
EXTRACT: note_on channel=5 note=64 velocity=0 time=0.004716983333333332
EXTRACT: note_on channel=5 note=57 velocity=0 time=0
EXTRACT: note_on channel=5 note=60 velocity=0 time=0
EXTRACT: note_on channel=5 note=67 velocity=70 time=0.014150949999999997
EXTRACT: note_on channel=5 note=59 velocity=70 time=0
EXTRACT: note_on channel=4 note=52 velocity=100 time=0.004716983333333332
EXTRACT: note_on channel=5 note=52 velocity=0 time=0
EXTRACT: note_on channel=5 note=64 velocity=70 time=0
EXTRACT: note_on channel=5 note=52 velocity=66 time=0
EXTRACT: note_on channel=9 note=27 velocity=75 time=0
EXTRACT: note_on channel=9 note=75 velocity=56 time=0
EXTRACT: note_on channel=9 note=42 velocity=75 time=0
EXTRACT: note_on channel=9 note=39 velocity=75 time=0
EXTRACT: note_on channel=4 note=59 velocity=100 time=0.004716983333333332
EXTRACT: note_on channel=5 note=71 velocity=66 time=0
EXTRACT: note_on channel=4 note=55 velocity=100 time=0.009433966666666665
EXTRACT: note_on channel=7 note=64 velocity=0 time=0.004716983333333332
EXTRACT: note_on channel=7 note=64 velocity=100 time=0.004716983333333332
EXTRACT: note_on channel=9 note=39 velocity=0 time=0.009433966666666665
EXTRACT: note_on channel=9 note=27 velocity=0 time=0
EXTRACT: note_on channel=9 note=75 velocity=0 time=0
EXTRACT: note_on channel=9 note=42 velocity=0 time=0
EXTRACT: note_on channel=1 note=28 velocity=0 time=0.16509441666666663
EXTRACT: note_on channel=4 note=52 velocity=0 time=0.06603776666666665
EXTRACT: note_on channel=4 note=59 velocity=0 time=0.004716983333333332
EXTRACT: note_on channel=4 note=55 velocity=0 time=0.009433966666666665
EXTRACT: note_on channel=4 note=55 velocity=100 time=0
EXTRACT: note_on channel=5 note=52 velocity=0 time=0
EXTRACT: note_on channel=5 note=52 velocity=66 time=0
EXTRACT: note_on channel=4 note=59 velocity=100 time=0.004716983333333332
EXTRACT: note_on channel=4 note=52 velocity=100 time=0
EXTRACT: note_on channel=9 note=75 velocity=44 time=0
EXTRACT: note_on channel=9 note=42 velocity=52 time=0
EXTRACT: note_on channel=9 note=27 velocity=75 time=0
EXTRACT: note_on channel=9 note=35 velocity=75 time=0
EXTRACT: note_on channel=1 note=28 velocity=75 time=0.004716983333333332
EXTRACT: note_on channel=7 note=64 velocity=0 time=0.014150949999999997
EXTRACT: note_on channel=9 note=35 velocity=0 time=0.014150949999999997
EXTRACT: note_on channel=9 note=75 velocity=0 time=0
EXTRACT: note_on channel=9 note=42 velocity=0 time=0
EXTRACT: note_on channel=9 note=27 velocity=0 time=0
EXTRACT: note_on channel=9 note=35 velocity=75 time=0.09905664999999998
EXTRACT: note_on channel=9 note=35 velocity=0 time=0.033018883333333325
EXTRACT: note_on channel=4 note=55 velocity=0 time=0.09433966666666666
EXTRACT: note_on channel=4 note=52 velocity=0 time=0.004716983333333332
EXTRACT: note_on channel=4 note=59 velocity=0 time=0
EXTRACT: note_on channel=5 note=52 velocity=0 time=0.009433966666666665
EXTRACT: note_on channel=4 note=52 velocity=100 time=0.009433966666666665
EXTRACT: note_on channel=5 note=52 velocity=66 time=0
EXTRACT: note_on channel=9 note=42 velocity=75 time=0
EXTRACT: note_on channel=9 note=27 velocity=75 time=0
EXTRACT: note_on channel=9 note=75 velocity=46 time=0
EXTRACT: note_on channel=4 note=55 velocity=100 time=0.014150949999999997
EXTRACT: note_on channel=4 note=59 velocity=100 time=0
EXTRACT: note_on channel=9 note=35 velocity=75 time=0
EXTRACT: note_on channel=9 note=75 velocity=0 time=0.01886793333333333
EXTRACT: note_on channel=9 note=42 velocity=0 time=0
EXTRACT: note_on channel=9 note=27 velocity=0 time=0
EXTRACT: note_on channel=9 note=35 velocity=0 time=0.014150949999999997
EXTRACT: note_on channel=5 note=67 velocity=0 time=0.19339631666666662
EXTRACT: note_on channel=5 note=71 velocity=0 time=0.014150949999999997
EXTRACT: note_on channel=5 note=59 velocity=0 time=0
EXTRACT: note_on channel=4 note=52 velocity=0 time=0.009433966666666665
EXTRACT: note_on channel=5 note=71 velocity=45 time=0.004716983333333332
EXTRACT: note_on channel=5 note=64 velocity=0 time=0.004716983333333332
EXTRACT: note_on channel=5 note=67 velocity=77 time=0
EXTRACT: note_on channel=5 note=59 velocity=56 time=0
EXTRACT: note_on channel=4 note=59 velocity=0 time=0.004716983333333332
EXTRACT: note_on channel=4 note=55 velocity=0 time=0
EXTRACT: note_on channel=5 note=52 velocity=0 time=0
EXTRACT: note_on channel=5 note=52 velocity=66 time=0
EXTRACT: note_on channel=5 note=64 velocity=85 time=0
EXTRACT: note_on channel=9 note=42 velocity=75 time=0.004716983333333332
EXTRACT: note_on channel=4 note=55 velocity=100 time=0.009433966666666665
EXTRACT: note_on channel=4 note=52 velocity=100 time=0
EXTRACT: note_on channel=4 note=59 velocity=100 time=0.014150949999999997
EXTRACT: note_on channel=9 note=42 velocity=0 time=0.009433966666666665
EXTRACT: note_on channel=4 note=52 velocity=0 time=0.24056614999999995
EXTRACT: note_on channel=4 note=55 velocity=0 time=0
EXTRACT: note_on channel=5 note=52 velocity=0 time=0
EXTRACT: note_on channel=5 note=52 velocity=66 time=0.009433966666666665
EXTRACT: note_on channel=9 note=75 velocity=50 time=0
EXTRACT: note_on channel=9 note=42 velocity=75 time=0
EXTRACT: note_on channel=9 note=39 velocity=75 time=0
EXTRACT: note_on channel=9 note=27 velocity=75 time=0
EXTRACT: note_on channel=4 note=59 velocity=0 time=0.004716983333333332
EXTRACT: note_on channel=4 note=55 velocity=100 time=0
EXTRACT: note_on channel=4 note=59 velocity=100 time=0
EXTRACT: note_on channel=4 note=52 velocity=100 time=0
EXTRACT: note_on channel=9 note=27 velocity=0 time=0.028301899999999994
EXTRACT: note_on channel=9 note=75 velocity=0 time=0
EXTRACT: note_on channel=9 note=42 velocity=0 time=0
EXTRACT: note_on channel=9 note=39 velocity=0 time=0
EXTRACT: note_on channel=1 note=28 velocity=0 time=0.15094346666666664
EXTRACT: note_on channel=5 note=71 velocity=0 time=0.04245284999999999
EXTRACT: note_on channel=5 note=67 velocity=0 time=0.004716983333333332
EXTRACT: note_on channel=5 note=64 velocity=0 time=0.004716983333333332
EXTRACT: note_on channel=5 note=59 velocity=0 time=0.014150949999999997
EXTRACT: note_on channel=5 note=71 velocity=56 time=0.004716983333333332
EXTRACT: note_on channel=5 note=64 velocity=56 time=0
EXTRACT: note_on channel=5 note=67 velocity=56 time=0.004716983333333332
EXTRACT: note_on channel=5 note=59 velocity=56 time=0.004716983333333332
EXTRACT: note_on channel=4 note=52 velocity=0 time=0.004716983333333332
EXTRACT: note_on channel=4 note=59 velocity=0 time=0
EXTRACT: note_on channel=4 note=55 velocity=0 time=0
EXTRACT: note_on channel=4 note=55 velocity=100 time=0.009433966666666665
EXTRACT: note_on channel=5 note=52 velocity=0 time=0
EXTRACT: note_on channel=1 note=28 velocity=60 time=0.004716983333333332
EXTRACT: note_on channel=4 note=52 velocity=100 time=0
EXTRACT: note_on channel=9 note=42 velocity=75 time=0
EXTRACT: note_on channel=9 note=27 velocity=75 time=0
EXTRACT: note_on channel=9 note=75 velocity=50 time=0
EXTRACT: note_on channel=5 note=52 velocity=66 time=0.004716983333333332
EXTRACT: note_on channel=4 note=59 velocity=100 time=0.004716983333333332
EXTRACT: note_on channel=9 note=27 velocity=0 time=0.08018871666666665
EXTRACT: note_on channel=9 note=75 velocity=0 time=0.01886793333333333
EXTRACT: note_on channel=9 note=42 velocity=0 time=0.004716983333333332
EXTRACT: note_on channel=0 note=55 velocity=0 time=0.1462264833333333
EXTRACT: note_on channel=0 note=40 velocity=0 time=0
EXTRACT: note_on channel=0 note=64 velocity=0 time=0
EXTRACT: note_on channel=0 note=59 velocity=0 time=0
EXTRACT: note_on channel=1 note=28 velocity=0 time=0
EXTRACT: note_on channel=4 note=55 velocity=0 time=0
EXTRACT: note_on channel=6 note=55 velocity=0 time=0
EXTRACT: note_on channel=6 note=67 velocity=0 time=0
EXTRACT: note_on channel=6 note=59 velocity=0 time=0
EXTRACT: note_on channel=4 note=52 velocity=0 time=0.004716983333333332
EXTRACT: note_on channel=4 note=59 velocity=0 time=0.009433966666666665
EXTRACT: note_on channel=5 note=52 velocity=0 time=0.009433966666666665
EXTRACT: note_on channel=5 note=50 velocity=66 time=0
EXTRACT: note_on channel=9 note=75 velocity=46 time=0
EXTRACT: note_on channel=9 note=35 velocity=75 time=0
EXTRACT: note_on channel=4 note=62 velocity=100 time=0.004716983333333332
EXTRACT: note_on channel=6 note=62 velocity=52 time=0
EXTRACT: note_on channel=9 note=42 velocity=75 time=0
EXTRACT: note_on channel=0 note=50 velocity=48 time=0.004716983333333332
EXTRACT: note_on channel=1 note=38 velocity=83 time=0
EXTRACT: note_on channel=6 note=69 velocity=50 time=0
EXTRACT: note_on channel=0 note=66 velocity=45 time=0.004716983333333332
EXTRACT: note_on channel=0 note=62 velocity=45 time=0
EXTRACT: note_on channel=0 note=57 velocity=45 time=0
EXTRACT: note_on channel=4 note=50 velocity=100 time=0
EXTRACT: note_on channel=4 note=57 velocity=100 time=0
EXTRACT: note_on channel=6 note=57 velocity=52 time=0
EXTRACT: note_on channel=9 note=35 velocity=0 time=0.01886793333333333
EXTRACT: note_on channel=9 note=42 velocity=0 time=0.004716983333333332
EXTRACT: note_on channel=9 note=75 velocity=0 time=0.04716983333333333
EXTRACT: note_on channel=4 note=62 velocity=0 time=0.18396234999999997
EXTRACT: note_on channel=4 note=57 velocity=0 time=0.009433966666666665
EXTRACT: note_on channel=4 note=50 velocity=0 time=0
EXTRACT: note_on channel=5 note=50 velocity=0 time=0
EXTRACT: note_on channel=5 note=50 velocity=66 time=0
EXTRACT: note_on channel=4 note=62 velocity=100 time=0.004716983333333332
EXTRACT: note_on channel=9 note=42 velocity=58 time=0
EXTRACT: note_on channel=7 note=66 velocity=100 time=0.004716983333333332
EXTRACT: note_on channel=4 note=50 velocity=100 time=0.004716983333333332
EXTRACT: note_on channel=4 note=57 velocity=100 time=0
EXTRACT: note_on channel=9 note=42 velocity=0 time=0.023584916666666664
EXTRACT: note_on channel=4 note=62 velocity=0 time=0.2311321833333333
EXTRACT: note_on channel=4 note=57 velocity=0 time=0.009433966666666665
EXTRACT: note_on channel=4 note=50 velocity=0 time=0
EXTRACT: note_on channel=5 note=50 velocity=0 time=0
EXTRACT: note_on channel=5 note=59 velocity=0 time=0
EXTRACT: note_on channel=5 note=71 velocity=0 time=0
EXTRACT: note_on channel=5 note=67 velocity=0 time=0
EXTRACT: note_on channel=5 note=64 velocity=0 time=0.004716983333333332
EXTRACT: note_on channel=5 note=50 velocity=66 time=0.004716983333333332
EXTRACT: note_on channel=5 note=69 velocity=66 time=0
EXTRACT: note_on channel=5 note=66 velocity=67 time=0
EXTRACT: note_on channel=7 note=66 velocity=0 time=0
EXTRACT: note_on channel=9 note=27 velocity=75 time=0
EXTRACT: note_on channel=9 note=39 velocity=75 time=0
EXTRACT: note_on channel=9 note=42 velocity=75 time=0
EXTRACT: note_on channel=9 note=75 velocity=56 time=0
EXTRACT: note_on channel=4 note=50 velocity=100 time=0.004716983333333332
EXTRACT: note_on channel=5 note=62 velocity=67 time=0
EXTRACT: note_on channel=5 note=57 velocity=70 time=0
EXTRACT: note_on channel=7 note=66 velocity=100 time=0.004716983333333332
EXTRACT: note_on channel=4 note=62 velocity=100 time=0.004716983333333332
EXTRACT: note_on channel=4 note=57 velocity=100 time=0.004716983333333332
EXTRACT: note_on channel=9 note=75 velocity=0 time=0.014150949999999997
EXTRACT: note_on channel=9 note=27 velocity=0 time=0
EXTRACT: note_on channel=9 note=39 velocity=0 time=0
EXTRACT: note_on channel=9 note=42 velocity=0 time=0
EXTRACT: note_on channel=4 note=50 velocity=0 time=0.2358491666666666
EXTRACT: note_on channel=4 note=62 velocity=0 time=0.009433966666666665
EXTRACT: note_on channel=5 note=50 velocity=0 time=0
EXTRACT: note_on channel=5 note=50 velocity=66 time=0
EXTRACT: note_on channel=4 note=57 velocity=0 time=0.004716983333333332
EXTRACT: note_on channel=4 note=50 velocity=100 time=0
EXTRACT: note_on channel=9 note=75 velocity=44 time=0
EXTRACT: note_on channel=9 note=42 velocity=52 time=0
EXTRACT: note_on channel=9 note=35 velocity=75 time=0
EXTRACT: note_on channel=9 note=27 velocity=75 time=0
EXTRACT: note_on channel=7 note=66 velocity=0 time=0.004716983333333332
EXTRACT: note_on channel=4 note=57 velocity=100 time=0.009433966666666665
EXTRACT: note_on channel=7 note=66 velocity=100 time=0
EXTRACT: note_on channel=4 note=62 velocity=100 time=0.009433966666666665
EXTRACT: note_on channel=9 note=27 velocity=0 time=0.009433966666666665
EXTRACT: note_on channel=9 note=75 velocity=0 time=0
EXTRACT: note_on channel=9 note=42 velocity=0 time=0
EXTRACT: note_on channel=9 note=35 velocity=0 time=0
EXTRACT: note_on channel=9 note=35 velocity=75 time=0.09433966666666666
EXTRACT: note_on channel=9 note=35 velocity=0 time=0.033018883333333325
EXTRACT: note_on channel=4 note=50 velocity=0 time=0.10377363333333331
EXTRACT: note_on channel=5 note=50 velocity=0 time=0.009433966666666665
EXTRACT: note_on channel=4 note=57 velocity=0 time=0.004716983333333332
EXTRACT: note_on channel=5 note=50 velocity=66 time=0.004716983333333332
EXTRACT: note_on channel=9 note=75 velocity=46 time=0
EXTRACT: note_on channel=9 note=42 velocity=75 time=0
EXTRACT: note_on channel=9 note=27 velocity=75 time=0
EXTRACT: note_on channel=4 note=62 velocity=0 time=0.004716983333333332
EXTRACT: note_on channel=9 note=35 velocity=75 time=0
EXTRACT: note_on channel=7 note=66 velocity=0 time=0.004716983333333332
EXTRACT: note_on channel=4 note=50 velocity=100 time=0.004716983333333332
EXTRACT: note_on channel=4 note=57 velocity=100 time=0.004716983333333332
EXTRACT: note_on channel=4 note=62 velocity=100 time=0
EXTRACT: note_on channel=7 note=66 velocity=100 time=0
EXTRACT: note_on channel=9 note=27 velocity=0 time=0.014150949999999997
EXTRACT: note_on channel=9 note=75 velocity=0 time=0
EXTRACT: note_on channel=9 note=42 velocity=0 time=0
EXTRACT: note_on channel=9 note=35 velocity=0 time=0.004716983333333332
EXTRACT: note_on channel=5 note=57 velocity=0 time=0.22169821666666661
EXTRACT: note_on channel=5 note=69 velocity=0 time=0
EXTRACT: note_on channel=5 note=62 velocity=0 time=0.009433966666666665
EXTRACT: note_on channel=5 note=66 velocity=0 time=0.004716983333333332
EXTRACT: note_on channel=4 note=50 velocity=0 time=0.004716983333333332
EXTRACT: note_on channel=5 note=50 velocity=0 time=0
EXTRACT: note_on channel=5 note=57 velocity=66 time=0
EXTRACT: note_on channel=5 note=62 velocity=66 time=0
EXTRACT: note_on channel=5 note=69 velocity=66 time=0
EXTRACT: note_on channel=5 note=50 velocity=66 time=0
EXTRACT: note_on channel=4 note=62 velocity=0 time=0.004716983333333332
EXTRACT: note_on channel=4 note=57 velocity=0 time=0
EXTRACT: note_on channel=9 note=42 velocity=75 time=0
EXTRACT: note_on channel=5 note=66 velocity=66 time=0.004716983333333332
EXTRACT: note_on channel=4 note=57 velocity=100 time=0.004716983333333332
EXTRACT: note_on channel=4 note=62 velocity=100 time=0
EXTRACT: note_on channel=4 note=50 velocity=100 time=0.004716983333333332
EXTRACT: note_on channel=7 note=66 velocity=0 time=0
EXTRACT: note_on channel=7 note=62 velocity=100 time=0.009433966666666665
EXTRACT: note_on channel=9 note=42 velocity=0 time=0.009433966666666665
EXTRACT: note_on channel=4 note=62 velocity=0 time=0.24056614999999995
EXTRACT: note_on channel=4 note=57 velocity=0 time=0
EXTRACT: note_on channel=5 note=50 velocity=0 time=0
EXTRACT: note_on channel=4 note=50 velocity=0 time=0.004716983333333332
EXTRACT: note_on channel=5 note=50 velocity=66 time=0
EXTRACT: note_on channel=9 note=75 velocity=50 time=0.004716983333333332
EXTRACT: note_on channel=9 note=27 velocity=75 time=0
EXTRACT: note_on channel=9 note=39 velocity=75 time=0
EXTRACT: note_on channel=9 note=42 velocity=75 time=0
EXTRACT: note_on channel=4 note=62 velocity=100 time=0.004716983333333332
EXTRACT: note_on channel=4 note=57 velocity=100 time=0.009433966666666665
EXTRACT: note_on channel=4 note=50 velocity=100 time=0.004716983333333332
EXTRACT: note_on channel=7 note=62 velocity=0 time=0
EXTRACT: note_on channel=7 note=62 velocity=100 time=0.004716983333333332
EXTRACT: note_on channel=9 note=42 velocity=0 time=0.009433966666666665
EXTRACT: note_on channel=9 note=75 velocity=0 time=0
EXTRACT: note_on channel=9 note=27 velocity=0 time=0
EXTRACT: note_on channel=9 note=39 velocity=0 time=0
EXTRACT: note_on channel=1 note=38 velocity=0 time=0.18396234999999997
EXTRACT: note_on channel=5 note=66 velocity=0 time=0.04245284999999999
EXTRACT: note_on channel=5 note=69 velocity=0 time=0.004716983333333332
EXTRACT: note_on channel=4 note=62 velocity=0 time=0.004716983333333332
EXTRACT: note_on channel=5 note=57 velocity=0 time=0.004716983333333332
EXTRACT: note_on channel=5 note=62 velocity=0 time=0
EXTRACT: note_on channel=5 note=50 velocity=0 time=0
EXTRACT: note_on channel=4 note=57 velocity=0 time=0.004716983333333332
EXTRACT: note_on channel=5 note=50 velocity=66 time=0
EXTRACT: note_on channel=5 note=57 velocity=66 time=0
EXTRACT: note_on channel=4 note=50 velocity=0 time=0.004716983333333332
EXTRACT: note_on channel=4 note=50 velocity=100 time=0
EXTRACT: note_on channel=4 note=62 velocity=100 time=0
EXTRACT: note_on channel=9 note=42 velocity=75 time=0
EXTRACT: note_on channel=9 note=27 velocity=75 time=0
EXTRACT: note_on channel=9 note=75 velocity=50 time=0
EXTRACT: note_on channel=5 note=62 velocity=66 time=0.004716983333333332
EXTRACT: note_on channel=1 note=38 velocity=62 time=0.004716983333333332
EXTRACT: note_on channel=5 note=69 velocity=66 time=0
EXTRACT: note_on channel=5 note=66 velocity=66 time=0
EXTRACT: note_on channel=4 note=57 velocity=100 time=0.004716983333333332
EXTRACT: note_on channel=7 note=62 velocity=0 time=0.004716983333333332
EXTRACT: note_on channel=7 note=59 velocity=100 time=0.004716983333333332
EXTRACT: note_on channel=9 note=27 velocity=0 time=0.06603776666666665
EXTRACT: note_on channel=9 note=75 velocity=0 time=0.01886793333333333
EXTRACT: note_on channel=9 note=42 velocity=0 time=0.004716983333333332
EXTRACT: note_on channel=0 note=57 velocity=0 time=0.1462264833333333
EXTRACT: note_on channel=0 note=50 velocity=0 time=0
EXTRACT: note_on channel=0 note=66 velocity=0 time=0
EXTRACT: note_on channel=0 note=62 velocity=0 time=0
EXTRACT: note_on channel=1 note=38 velocity=0 time=0
EXTRACT: note_on channel=6 note=57 velocity=0 time=0
EXTRACT: note_on channel=6 note=69 velocity=0 time=0
EXTRACT: note_on channel=6 note=62 velocity=0 time=0
EXTRACT: note_on channel=4 note=62 velocity=0 time=0.004716983333333332
EXTRACT: note_on channel=4 note=50 velocity=0 time=0
EXTRACT: note_on channel=5 note=50 velocity=0 time=0.009433966666666665
EXTRACT: note_on channel=4 note=57 velocity=0 time=0.004716983333333332
EXTRACT: note_on channel=9 note=75 velocity=46 time=0.004716983333333332
EXTRACT: note_on channel=9 note=35 velocity=75 time=0
EXTRACT: note_on channel=3 note=60 velocity=100 time=0.004716983333333332
EXTRACT: note_on channel=5 note=45 velocity=67 time=0
EXTRACT: note_on channel=6 note=57 velocity=52 time=0
EXTRACT: note_on channel=9 note=42 velocity=75 time=0
EXTRACT: note_on channel=0 note=45 velocity=48 time=0.004716983333333332
EXTRACT: note_on channel=1 note=33 velocity=83 time=0
EXTRACT: note_on channel=6 note=64 velocity=50 time=0
EXTRACT: note_on channel=0 note=64 velocity=45 time=0.004716983333333332
EXTRACT: note_on channel=0 note=60 velocity=45 time=0
EXTRACT: note_on channel=0 note=57 velocity=45 time=0
EXTRACT: note_on channel=6 note=52 velocity=52 time=0
EXTRACT: note_on channel=7 note=59 velocity=0 time=0.004716983333333332
EXTRACT: note_on channel=7 note=60 velocity=100 time=0
EXTRACT: note_on channel=4 note=57 velocity=100 time=0.004716983333333332
EXTRACT: note_on channel=4 note=60 velocity=100 time=0.004716983333333332
EXTRACT: note_on channel=4 note=52 velocity=100 time=0.004716983333333332
EXTRACT: note_on channel=9 note=35 velocity=0 time=0
EXTRACT: note_on channel=9 note=42 velocity=0 time=0.004716983333333332
EXTRACT: note_on channel=9 note=75 velocity=0 time=0.04716983333333333
EXTRACT: note_on channel=9 note=42 velocity=58 time=0.19811329999999996
EXTRACT: note_on channel=5 note=45 velocity=0 time=0.009433966666666665
EXTRACT: note_on channel=3 note=60 velocity=0 time=0.004716983333333332
EXTRACT: note_on channel=4 note=60 velocity=0 time=0
EXTRACT: note_on channel=4 note=57 velocity=0 time=0
EXTRACT: note_on channel=5 note=45 velocity=67 time=0
EXTRACT: note_on channel=7 note=60 velocity=0 time=0
EXTRACT: note_on channel=4 note=60 velocity=100 time=0.004716983333333332
EXTRACT: note_on channel=4 note=57 velocity=100 time=0.009433966666666665
EXTRACT: note_on channel=4 note=52 velocity=0 time=0.004716983333333332
EXTRACT: note_on channel=4 note=52 velocity=100 time=0
EXTRACT: note_on channel=9 note=42 velocity=0 time=0
EXTRACT: note_on channel=9 note=42 velocity=40 time=0.10849061666666665
EXTRACT: note_on channel=9 note=42 velocity=0 time=0.08490569999999999
EXTRACT: note_on channel=5 note=66 velocity=0 time=0.04245284999999999
EXTRACT: note_on channel=5 note=69 velocity=0 time=0
EXTRACT: note_on channel=5 note=57 velocity=0 time=0
EXTRACT: note_on channel=5 note=45 velocity=0 time=0.004716983333333332
EXTRACT: note_on channel=5 note=62 velocity=0 time=0.004716983333333332
EXTRACT: note_on channel=5 note=52 velocity=34 time=0.004716983333333332
EXTRACT: note_on channel=9 note=27 velocity=75 time=0
EXTRACT: note_on channel=9 note=75 velocity=56 time=0
EXTRACT: note_on channel=9 note=42 velocity=75 time=0
EXTRACT: note_on channel=9 note=39 velocity=75 time=0
EXTRACT: note_on channel=4 note=60 velocity=0 time=0.004716983333333332
EXTRACT: note_on channel=5 note=45 velocity=67 time=0
EXTRACT: note_on channel=5 note=69 velocity=66 time=0
EXTRACT: note_on channel=5 note=64 velocity=67 time=0
EXTRACT: note_on channel=5 note=60 velocity=67 time=0
EXTRACT: note_on channel=5 note=57 velocity=70 time=0
EXTRACT: note_on channel=3 note=59 velocity=100 time=0.004716983333333332
EXTRACT: note_on channel=7 note=59 velocity=100 time=0
EXTRACT: note_on channel=4 note=57 velocity=0 time=0.009433966666666665
EXTRACT: note_on channel=4 note=57 velocity=100 time=0.004716983333333332
EXTRACT: note_on channel=4 note=60 velocity=100 time=0
EXTRACT: note_on channel=4 note=52 velocity=0 time=0.009433966666666665
EXTRACT: note_on channel=9 note=39 velocity=0 time=0
EXTRACT: note_on channel=9 note=27 velocity=0 time=0
EXTRACT: note_on channel=9 note=75 velocity=0 time=0
EXTRACT: note_on channel=9 note=42 velocity=0 time=0
EXTRACT: note_on channel=4 note=52 velocity=100 time=0.004716983333333332
EXTRACT: note_on channel=1 note=33 velocity=0 time=0.2169812333333333
EXTRACT: note_on channel=5 note=45 velocity=0 time=0.009433966666666665
EXTRACT: note_on channel=5 note=45 velocity=67 time=0.014150949999999997
EXTRACT: note_on channel=9 note=27 velocity=75 time=0.004716983333333332
EXTRACT: note_on channel=9 note=75 velocity=44 time=0
EXTRACT: note_on channel=9 note=42 velocity=52 time=0
EXTRACT: note_on channel=7 note=59 velocity=0 time=0.004716983333333332
EXTRACT: note_on channel=1 note=33 velocity=54 time=0.004716983333333332
EXTRACT: note_on channel=3 note=59 velocity=0 time=0.009433966666666665
EXTRACT: note_on channel=4 note=52 velocity=0 time=0
EXTRACT: note_on channel=4 note=60 velocity=0 time=0.004716983333333332
EXTRACT: note_on channel=4 note=57 velocity=0 time=0
EXTRACT: note_on channel=4 note=52 velocity=100 time=0.004716983333333332
EXTRACT: note_on channel=4 note=57 velocity=100 time=0
EXTRACT: note_on channel=4 note=60 velocity=100 time=0.004716983333333332
EXTRACT: note_on channel=9 note=42 velocity=0 time=0
EXTRACT: note_on channel=9 note=75 velocity=0 time=0
EXTRACT: note_on channel=9 note=27 velocity=0 time=0
EXTRACT: note_on channel=9 note=39 velocity=85 time=0.07547173333333332
EXTRACT: note_on channel=9 note=39 velocity=0 time=0.033018883333333325
EXTRACT: note_on channel=5 note=45 velocity=0 time=0.11320759999999998
EXTRACT: note_on channel=1 note=33 velocity=0 time=0.01886793333333333
EXTRACT: note_on channel=9 note=42 velocity=75 time=0.009433966666666665
EXTRACT: note_on channel=9 note=27 velocity=75 time=0
EXTRACT: note_on channel=9 note=75 velocity=46 time=0
EXTRACT: note_on channel=9 note=35 velocity=75 time=0
EXTRACT: note_on channel=3 note=57 velocity=100 time=0.004716983333333332
EXTRACT: note_on channel=5 note=45 velocity=67 time=0
EXTRACT: note_on channel=1 note=33 velocity=68 time=0.004716983333333332
EXTRACT: note_on channel=4 note=52 velocity=0 time=0
EXTRACT: note_on channel=7 note=57 velocity=100 time=0
EXTRACT: note_on channel=9 note=35 velocity=0 time=0.009433966666666665
EXTRACT: note_on channel=4 note=57 velocity=0 time=0.009433966666666665
EXTRACT: note_on channel=4 note=60 velocity=0 time=0.004716983333333332
EXTRACT: note_on channel=4 note=52 velocity=100 time=0
EXTRACT: note_on channel=9 note=42 velocity=0 time=0
EXTRACT: note_on channel=9 note=27 velocity=0 time=0
EXTRACT: note_on channel=9 note=75 velocity=0 time=0
EXTRACT: note_on channel=4 note=57 velocity=100 time=0.004716983333333332
EXTRACT: note_on channel=4 note=60 velocity=100 time=0
EXTRACT: note_on channel=5 note=69 velocity=0 time=0.19339631666666662
EXTRACT: note_on channel=5 note=64 velocity=0 time=0
EXTRACT: note_on channel=5 note=60 velocity=0 time=0.004716983333333332
EXTRACT: note_on channel=5 note=52 velocity=0 time=0
EXTRACT: note_on channel=5 note=57 velocity=0 time=0
EXTRACT: note_on channel=5 note=52 velocity=66 time=0.014150949999999997
EXTRACT: note_on channel=5 note=57 velocity=66 time=0
EXTRACT: note_on channel=5 note=60 velocity=66 time=0
EXTRACT: note_on channel=5 note=69 velocity=66 time=0
EXTRACT: note_on channel=5 note=64 velocity=66 time=0.004716983333333332
EXTRACT: note_on channel=5 note=45 velocity=0 time=0.009433966666666665
EXTRACT: note_on channel=5 note=45 velocity=67 time=0.004716983333333332
EXTRACT: note_on channel=9 note=42 velocity=75 time=0.014150949999999997
EXTRACT: note_on channel=7 note=57 velocity=0 time=0.004716983333333332
EXTRACT: note_on channel=3 note=57 velocity=0 time=0.009433966666666665
EXTRACT: note_on channel=4 note=52 velocity=0 time=0
EXTRACT: note_on channel=9 note=35 velocity=75 time=0
EXTRACT: note_on channel=4 note=52 velocity=100 time=0.004716983333333332
EXTRACT: note_on channel=9 note=42 velocity=0 time=0
EXTRACT: note_on channel=4 note=60 velocity=0 time=0.01886793333333333
EXTRACT: note_on channel=4 note=57 velocity=0 time=0
EXTRACT: note_on channel=4 note=57 velocity=100 time=0.004716983333333332
EXTRACT: note_on channel=4 note=60 velocity=100 time=0
EXTRACT: note_on channel=9 note=35 velocity=0 time=0.004716983333333332
EXTRACT: note_on channel=9 note=35 velocity=75 time=0.08490569999999999
EXTRACT: note_on channel=9 note=39 velocity=52 time=0.009433966666666665
EXTRACT: note_on channel=9 note=39 velocity=0 time=0.01886793333333333
EXTRACT: note_on channel=9 note=35 velocity=0 time=0.004716983333333332
EXTRACT: note_on channel=5 note=45 velocity=0 time=0.08018871666666665
EXTRACT: note_on channel=4 note=52 velocity=0 time=0.03773586666666666
EXTRACT: note_on channel=9 note=42 velocity=75 time=0
EXTRACT: note_on channel=9 note=27 velocity=75 time=0
EXTRACT: note_on channel=9 note=75 velocity=50 time=0
EXTRACT: note_on channel=9 note=39 velocity=95 time=0
EXTRACT: note_on channel=3 note=52 velocity=100 time=0.004716983333333332
EXTRACT: note_on channel=5 note=45 velocity=67 time=0
EXTRACT: note_on channel=9 note=35 velocity=75 time=0
EXTRACT: note_on channel=7 note=52 velocity=100 time=0.004716983333333332
EXTRACT: note_on channel=9 note=39 velocity=0 time=0.009433966666666665
EXTRACT: note_on channel=9 note=75 velocity=0 time=0
EXTRACT: note_on channel=9 note=42 velocity=0 time=0
EXTRACT: note_on channel=9 note=27 velocity=0 time=0
EXTRACT: note_on channel=4 note=57 velocity=0 time=0.004716983333333332
EXTRACT: note_on channel=4 note=52 velocity=100 time=0.009433966666666665
EXTRACT: note_on channel=4 note=57 velocity=100 time=0
EXTRACT: note_on channel=9 note=35 velocity=0 time=0.004716983333333332
EXTRACT: note_on channel=4 note=60 velocity=0 time=0.004716983333333332
EXTRACT: note_on channel=4 note=60 velocity=100 time=0.004716983333333332
EXTRACT: note_on channel=9 note=39 velocity=60 time=0.09433966666666666
EXTRACT: note_on channel=9 note=39 velocity=0 time=0.01886793333333333
EXTRACT: note_on channel=5 note=57 velocity=0 time=0.09905664999999998
EXTRACT: note_on channel=5 note=52 velocity=0 time=0
EXTRACT: note_on channel=5 note=60 velocity=0 time=0
EXTRACT: note_on channel=5 note=69 velocity=0 time=0
EXTRACT: note_on channel=5 note=64 velocity=0 time=0.004716983333333332
EXTRACT: note_on channel=5 note=57 velocity=66 time=0.004716983333333332
EXTRACT: note_on channel=5 note=69 velocity=66 time=0.004716983333333332
EXTRACT: note_on channel=5 note=60 velocity=66 time=0
EXTRACT: note_on channel=9 note=35 velocity=75 time=0
EXTRACT: note_on channel=5 note=52 velocity=66 time=0.004716983333333332
EXTRACT: note_on channel=5 note=45 velocity=0 time=0.004716983333333332
EXTRACT: note_on channel=5 note=45 velocity=67 time=0
EXTRACT: note_on channel=5 note=64 velocity=66 time=0
EXTRACT: note_on channel=9 note=75 velocity=50 time=0
EXTRACT: note_on channel=9 note=27 velocity=75 time=0
EXTRACT: note_on channel=9 note=39 velocity=78 time=0
EXTRACT: note_on channel=9 note=42 velocity=75 time=0
EXTRACT: note_on channel=7 note=52 velocity=0 time=0.004716983333333332
EXTRACT: note_on channel=3 note=52 velocity=0 time=0.009433966666666665
EXTRACT: note_on channel=4 note=57 velocity=0 time=0
EXTRACT: note_on channel=4 note=52 velocity=0 time=0
EXTRACT: note_on channel=4 note=52 velocity=100 time=0.004716983333333332
EXTRACT: note_on channel=4 note=57 velocity=100 time=0
EXTRACT: note_on channel=9 note=42 velocity=0 time=0
EXTRACT: note_on channel=9 note=27 velocity=0 time=0
EXTRACT: note_on channel=9 note=39 velocity=0 time=0
EXTRACT: note_on channel=9 note=75 velocity=0 time=0
EXTRACT: note_on channel=9 note=35 velocity=0 time=0.004716983333333332
EXTRACT: note_on channel=4 note=60 velocity=0 time=0.023584916666666664
EXTRACT: note_on channel=4 note=60 velocity=100 time=0
EXTRACT: note_on channel=9 note=39 velocity=52 time=0.09433966666666666
EXTRACT: note_on channel=1 note=33 velocity=0 time=0.033018883333333325
EXTRACT: note_on channel=9 note=39 velocity=0 time=0.04716983333333333
EXTRACT: note_on channel=0 note=57 velocity=0 time=0.03773586666666666
EXTRACT: note_on channel=0 note=45 velocity=0 time=0
EXTRACT: note_on channel=0 note=64 velocity=0 time=0
EXTRACT: note_on channel=0 note=60 velocity=0 time=0
EXTRACT: note_on channel=6 note=52 velocity=0 time=0
EXTRACT: note_on channel=6 note=64 velocity=0 time=0
EXTRACT: note_on channel=6 note=57 velocity=0 time=0
EXTRACT: note_on channel=5 note=45 velocity=0 time=0.01886793333333333
EXTRACT: note_on channel=4 note=57 velocity=0 time=0.004716983333333332
EXTRACT: note_on channel=4 note=52 velocity=0 time=0
EXTRACT: note_on channel=5 note=45 velocity=67 time=0
EXTRACT: note_on channel=9 note=42 velocity=75 time=0
EXTRACT: note_on channel=9 note=35 velocity=75 time=0
EXTRACT: note_on channel=4 note=57 velocity=100 time=0
EXTRACT: note_on channel=6 note=57 velocity=52 time=0
EXTRACT: note_on channel=9 note=75 velocity=46 time=0
EXTRACT: note_on channel=0 note=45 velocity=48 time=0.004716983333333332
EXTRACT: note_on channel=1 note=33 velocity=83 time=0
EXTRACT: note_on channel=4 note=60 velocity=0 time=0
EXTRACT: note_on channel=4 note=60 velocity=100 time=0
EXTRACT: note_on channel=6 note=64 velocity=50 time=0
EXTRACT: note_on channel=0 note=64 velocity=45 time=0.004716983333333332
EXTRACT: note_on channel=0 note=60 velocity=45 time=0
EXTRACT: note_on channel=0 note=57 velocity=45 time=0
EXTRACT: note_on channel=4 note=52 velocity=100 time=0
EXTRACT: note_on channel=6 note=52 velocity=52 time=0
EXTRACT: note_on channel=9 note=35 velocity=0 time=0.01886793333333333
EXTRACT: note_on channel=9 note=42 velocity=0 time=0
EXTRACT: note_on channel=9 note=75 velocity=0 time=0.004716983333333332
EXTRACT: note_on channel=4 note=60 velocity=0 time=0.24056614999999995
EXTRACT: note_on channel=4 note=57 velocity=0 time=0
EXTRACT: note_on channel=4 note=60 velocity=100 time=0.004716983333333332
EXTRACT: note_on channel=9 note=42 velocity=60 time=0
EXTRACT: note_on channel=5 note=45 velocity=0 time=0.004716983333333332
EXTRACT: note_on channel=4 note=57 velocity=100 time=0.004716983333333332
EXTRACT: note_on channel=5 note=45 velocity=67 time=0
EXTRACT: note_on channel=7 note=69 velocity=100 time=0
EXTRACT: note_on channel=4 note=52 velocity=0 time=0.004716983333333332
EXTRACT: note_on channel=4 note=52 velocity=100 time=0
EXTRACT: note_on channel=9 note=42 velocity=0 time=0.01886793333333333
EXTRACT: note_on channel=4 note=60 velocity=0 time=0.2358491666666666
EXTRACT: note_on channel=5 note=45 velocity=0 time=0
EXTRACT: note_on channel=5 note=57 velocity=0 time=0
EXTRACT: note_on channel=5 note=64 velocity=0 time=0
EXTRACT: note_on channel=5 note=69 velocity=0 time=0.004716983333333332
EXTRACT: note_on channel=5 note=52 velocity=0 time=0
EXTRACT: note_on channel=5 note=52 velocity=34 time=0.004716983333333332
EXTRACT: note_on channel=4 note=57 velocity=0 time=0.004716983333333332
EXTRACT: note_on channel=5 note=60 velocity=0 time=0
EXTRACT: note_on channel=5 note=45 velocity=67 time=0
EXTRACT: note_on channel=5 note=69 velocity=66 time=0
EXTRACT: note_on channel=5 note=64 velocity=67 time=0
EXTRACT: note_on channel=5 note=60 velocity=67 time=0
EXTRACT: note_on channel=5 note=57 velocity=70 time=0
EXTRACT: note_on channel=9 note=75 velocity=56 time=0
EXTRACT: note_on channel=9 note=42 velocity=75 time=0
EXTRACT: note_on channel=9 note=27 velocity=75 time=0
EXTRACT: note_on channel=9 note=39 velocity=75 time=0
EXTRACT: note_on channel=4 note=57 velocity=100 time=0.004716983333333332
EXTRACT: note_on channel=4 note=60 velocity=100 time=0
EXTRACT: note_on channel=7 note=69 velocity=0 time=0
EXTRACT: note_on channel=7 note=69 velocity=100 time=0.004716983333333332
EXTRACT: note_on channel=4 note=52 velocity=0 time=0.004716983333333332
EXTRACT: note_on channel=4 note=52 velocity=100 time=0.004716983333333332
EXTRACT: note_on channel=9 note=39 velocity=0 time=0.014150949999999997
EXTRACT: note_on channel=9 note=75 velocity=0 time=0
EXTRACT: note_on channel=9 note=42 velocity=0 time=0
EXTRACT: note_on channel=9 note=27 velocity=0 time=0
EXTRACT: note_on channel=1 note=33 velocity=0 time=0.22169821666666661
EXTRACT: note_on channel=5 note=45 velocity=0 time=0.004716983333333332
EXTRACT: note_on channel=5 note=45 velocity=67 time=0.014150949999999997
EXTRACT: note_on channel=4 note=52 velocity=0 time=0.009433966666666665
EXTRACT: note_on channel=9 note=42 velocity=75 time=0
EXTRACT: note_on channel=9 note=35 velocity=75 time=0
EXTRACT: note_on channel=9 note=27 velocity=75 time=0
EXTRACT: note_on channel=9 note=75 velocity=44 time=0
EXTRACT: note_on channel=4 note=60 velocity=0 time=0.004716983333333332
EXTRACT: note_on channel=4 note=57 velocity=0 time=0
EXTRACT: note_on channel=7 note=69 velocity=0 time=0
EXTRACT: note_on channel=1 note=33 velocity=54 time=0.004716983333333332
EXTRACT: note_on channel=4 note=52 velocity=100 time=0
EXTRACT: note_on channel=4 note=57 velocity=100 time=0
EXTRACT: note_on channel=4 note=60 velocity=100 time=0.004716983333333332
EXTRACT: note_on channel=7 note=69 velocity=100 time=0
EXTRACT: note_on channel=9 note=75 velocity=0 time=0.01886793333333333
EXTRACT: note_on channel=9 note=42 velocity=0 time=0
EXTRACT: note_on channel=9 note=35 velocity=0 time=0
EXTRACT: note_on channel=9 note=27 velocity=0 time=0
EXTRACT: note_on channel=9 note=35 velocity=100 time=0.1179245833333333
EXTRACT: note_on channel=9 note=35 velocity=0 time=0.07075474999999999
EXTRACT: note_on channel=5 note=45 velocity=0 time=0.028301899999999994
EXTRACT: note_on channel=1 note=33 velocity=0 time=0.023584916666666664
EXTRACT: note_on channel=4 note=52 velocity=0 time=0
EXTRACT: note_on channel=5 note=45 velocity=67 time=0.009433966666666665
EXTRACT: note_on channel=9 note=42 velocity=75 time=0
EXTRACT: note_on channel=9 note=27 velocity=75 time=0
EXTRACT: note_on channel=1 note=33 velocity=68 time=0.009433966666666665
EXTRACT: note_on channel=4 note=57 velocity=0 time=0
EXTRACT: note_on channel=7 note=69 velocity=0 time=0
EXTRACT: note_on channel=9 note=35 velocity=75 time=0
EXTRACT: note_on channel=4 note=60 velocity=0 time=0.004716983333333332
EXTRACT: note_on channel=4 note=52 velocity=100 time=0
EXTRACT: note_on channel=4 note=57 velocity=100 time=0.004716983333333332
EXTRACT: note_on channel=4 note=60 velocity=100 time=0
EXTRACT: note_on channel=7 note=69 velocity=100 time=0.004716983333333332
EXTRACT: note_on channel=9 note=27 velocity=0 time=0.009433966666666665
EXTRACT: note_on channel=9 note=42 velocity=0 time=0
EXTRACT: note_on channel=9 note=35 velocity=0 time=0.009433966666666665
EXTRACT: note_on channel=5 note=57 velocity=0 time=0.1745283833333333
EXTRACT: note_on channel=5 note=52 velocity=0 time=0
EXTRACT: note_on channel=5 note=69 velocity=0 time=0
EXTRACT: note_on channel=5 note=60 velocity=0 time=0.009433966666666665
EXTRACT: note_on channel=5 note=64 velocity=0 time=0.004716983333333332
EXTRACT: note_on channel=5 note=52 velocity=66 time=0.014150949999999997
EXTRACT: note_on channel=5 note=57 velocity=66 time=0
EXTRACT: note_on channel=5 note=60 velocity=66 time=0
EXTRACT: note_on channel=5 note=69 velocity=66 time=0
EXTRACT: note_on channel=5 note=64 velocity=66 time=0.004716983333333332
EXTRACT: note_on channel=5 note=45 velocity=0 time=0.009433966666666665
EXTRACT: note_on channel=5 note=45 velocity=67 time=0.004716983333333332
EXTRACT: note_on channel=4 note=52 velocity=0 time=0.014150949999999997
EXTRACT: note_on channel=4 note=52 velocity=100 time=0.004716983333333332
EXTRACT: note_on channel=9 note=75 velocity=46 time=0
EXTRACT: note_on channel=9 note=42 velocity=54 time=0
EXTRACT: note_on channel=7 note=67 velocity=100 time=0.009433966666666665
EXTRACT: note_on channel=4 note=60 velocity=0 time=0.009433966666666665
EXTRACT: note_on channel=4 note=57 velocity=0 time=0
EXTRACT: note_on channel=7 note=69 velocity=0 time=0
EXTRACT: note_on channel=4 note=57 velocity=100 time=0.004716983333333332
EXTRACT: note_on channel=4 note=60 velocity=100 time=0
EXTRACT: note_on channel=9 note=42 velocity=0 time=0.009433966666666665
EXTRACT: note_on channel=9 note=75 velocity=0 time=0
EXTRACT: note_on channel=5 note=45 velocity=0 time=0.20754726666666662
EXTRACT: note_on channel=4 note=52 velocity=0 time=0.023584916666666664
EXTRACT: note_on channel=5 note=45 velocity=67 time=0.01886793333333333
EXTRACT: note_on channel=9 note=75 velocity=50 time=0
EXTRACT: note_on channel=9 note=42 velocity=75 time=0
EXTRACT: note_on channel=9 note=27 velocity=75 time=0
EXTRACT: note_on channel=9 note=39 velocity=75 time=0
EXTRACT: note_on channel=4 note=57 velocity=0 time=0.004716983333333332
EXTRACT: note_on channel=7 note=67 velocity=0 time=0
EXTRACT: note_on channel=4 note=52 velocity=100 time=0.009433966666666665
EXTRACT: note_on channel=4 note=57 velocity=100 time=0
EXTRACT: note_on channel=7 note=67 velocity=100 time=0.004716983333333332
EXTRACT: note_on channel=4 note=60 velocity=0 time=0.004716983333333332
EXTRACT: note_on channel=4 note=60 velocity=100 time=0.004716983333333332
EXTRACT: note_on channel=9 note=39 velocity=0 time=0.004716983333333332
EXTRACT: note_on channel=9 note=75 velocity=0 time=0
EXTRACT: note_on channel=9 note=42 velocity=0 time=0
EXTRACT: note_on channel=9 note=27 velocity=0 time=0
EXTRACT: note_on channel=5 note=57 velocity=0 time=0.22169821666666661
EXTRACT: note_on channel=5 note=52 velocity=0 time=0
EXTRACT: note_on channel=5 note=60 velocity=0 time=0
EXTRACT: note_on channel=5 note=69 velocity=0 time=0
EXTRACT: note_on channel=5 note=64 velocity=0 time=0.004716983333333332
EXTRACT: note_on channel=5 note=57 velocity=66 time=0.004716983333333332
EXTRACT: note_on channel=5 note=69 velocity=66 time=0.004716983333333332
EXTRACT: note_on channel=5 note=60 velocity=66 time=0
EXTRACT: note_on channel=5 note=52 velocity=66 time=0.004716983333333332
EXTRACT: note_on channel=4 note=57 velocity=0 time=0.004716983333333332
EXTRACT: note_on channel=4 note=52 velocity=0 time=0
EXTRACT: note_on channel=5 note=45 velocity=0 time=0
EXTRACT: note_on channel=5 note=45 velocity=67 time=0
EXTRACT: note_on channel=5 note=64 velocity=66 time=0
EXTRACT: note_on channel=4 note=52 velocity=100 time=0.004716983333333332
EXTRACT: note_on channel=4 note=57 velocity=100 time=0
EXTRACT: note_on channel=9 note=42 velocity=56 time=0
EXTRACT: note_on channel=9 note=27 velocity=75 time=0
EXTRACT: note_on channel=9 note=75 velocity=50 time=0
EXTRACT: note_on channel=7 note=67 velocity=0 time=0.014150949999999997
EXTRACT: note_on channel=7 note=69 velocity=100 time=0
EXTRACT: note_on channel=4 note=60 velocity=0 time=0.014150949999999997
EXTRACT: note_on channel=4 note=60 velocity=100 time=0
EXTRACT: note_on channel=9 note=27 velocity=0 time=0.06132078333333332
EXTRACT: note_on channel=9 note=75 velocity=0 time=0.01886793333333333
EXTRACT: note_on channel=9 note=42 velocity=0 time=0.004716983333333332
EXTRACT: note_on channel=1 note=33 velocity=0 time=0.06132078333333332
EXTRACT: note_on channel=0 note=57 velocity=0 time=0.08490569999999999
EXTRACT: note_on channel=0 note=45 velocity=0 time=0
EXTRACT: note_on channel=0 note=64 velocity=0 time=0
EXTRACT: note_on channel=0 note=60 velocity=0 time=0
EXTRACT: note_on channel=6 note=52 velocity=0 time=0
EXTRACT: note_on channel=6 note=64 velocity=0 time=0
EXTRACT: note_on channel=6 note=57 velocity=0 time=0
EXTRACT: note_on channel=4 note=57 velocity=0 time=0.004716983333333332
EXTRACT: note_on channel=4 note=52 velocity=0 time=0
EXTRACT: note_on channel=4 note=60 velocity=0 time=0.009433966666666665
EXTRACT: note_on channel=5 note=45 velocity=0 time=0
EXTRACT: note_on channel=5 note=52 velocity=0 time=0.004716983333333332
EXTRACT: note_on channel=4 note=59 velocity=100 time=0.004716983333333332
EXTRACT: note_on channel=9 note=75 velocity=46 time=0
EXTRACT: note_on channel=9 note=35 velocity=75 time=0
EXTRACT: note_on channel=4 note=52 velocity=100 time=0.004716983333333332
EXTRACT: note_on channel=6 note=59 velocity=52 time=0
EXTRACT: note_on channel=9 note=42 velocity=75 time=0
EXTRACT: note_on channel=0 note=40 velocity=48 time=0.004716983333333332
EXTRACT: note_on channel=1 note=28 velocity=83 time=0
EXTRACT: note_on channel=5 note=52 velocity=66 time=0
EXTRACT: note_on channel=6 note=67 velocity=50 time=0
EXTRACT: note_on channel=7 note=69 velocity=0 time=0
EXTRACT: note_on channel=7 note=71 velocity=100 time=0
EXTRACT: note_on channel=0 note=64 velocity=45 time=0.004716983333333332
EXTRACT: note_on channel=0 note=59 velocity=45 time=0
EXTRACT: note_on channel=0 note=55 velocity=45 time=0
EXTRACT: note_on channel=4 note=55 velocity=100 time=0
EXTRACT: note_on channel=6 note=55 velocity=52 time=0
EXTRACT: note_on channel=9 note=35 velocity=0 time=0.01886793333333333
EXTRACT: note_on channel=9 note=42 velocity=0 time=0.004716983333333332
EXTRACT: note_on channel=9 note=75 velocity=0 time=0.04716983333333333
EXTRACT: note_on channel=4 note=59 velocity=0 time=0.17924536666666663
EXTRACT: note_on channel=4 note=52 velocity=0 time=0.004716983333333332
EXTRACT: note_on channel=4 note=52 velocity=100 time=0
EXTRACT: note_on channel=4 note=55 velocity=0 time=0.009433966666666665
EXTRACT: note_on channel=4 note=55 velocity=100 time=0
EXTRACT: note_on channel=4 note=59 velocity=100 time=0
EXTRACT: note_on channel=9 note=42 velocity=58 time=0.004716983333333332
EXTRACT: note_on channel=5 note=52 velocity=0 time=0.004716983333333332
EXTRACT: note_on channel=5 note=52 velocity=66 time=0
EXTRACT: note_on channel=7 note=71 velocity=0 time=0
EXTRACT: note_on channel=7 note=69 velocity=100 time=0.01886793333333333
EXTRACT: note_on channel=9 note=42 velocity=0 time=0.009433966666666665
EXTRACT: note_on channel=9 note=42 velocity=40 time=0.10849061666666665
EXTRACT: note_on channel=9 note=42 velocity=0 time=0.08490569999999999
EXTRACT: note_on channel=4 note=52 velocity=0 time=0.023584916666666664
EXTRACT: note_on channel=4 note=59 velocity=0 time=0.009433966666666665
EXTRACT: note_on channel=4 note=55 velocity=0 time=0
EXTRACT: note_on channel=5 note=69 velocity=0 time=0
EXTRACT: note_on channel=5 note=64 velocity=0 time=0.004716983333333332
EXTRACT: note_on channel=5 note=57 velocity=0 time=0
EXTRACT: note_on channel=5 note=60 velocity=0 time=0
EXTRACT: note_on channel=5 note=67 velocity=70 time=0.014150949999999997
EXTRACT: note_on channel=5 note=59 velocity=70 time=0
EXTRACT: note_on channel=4 note=52 velocity=100 time=0.004716983333333332
EXTRACT: note_on channel=5 note=52 velocity=0 time=0
EXTRACT: note_on channel=5 note=64 velocity=70 time=0
EXTRACT: note_on channel=5 note=52 velocity=66 time=0
EXTRACT: note_on channel=9 note=27 velocity=75 time=0
EXTRACT: note_on channel=9 note=75 velocity=56 time=0
EXTRACT: note_on channel=9 note=42 velocity=75 time=0
EXTRACT: note_on channel=9 note=39 velocity=75 time=0
EXTRACT: note_on channel=4 note=59 velocity=100 time=0.004716983333333332
EXTRACT: note_on channel=5 note=71 velocity=66 time=0
EXTRACT: note_on channel=7 note=67 velocity=100 time=0.004716983333333332
EXTRACT: note_on channel=4 note=55 velocity=100 time=0.004716983333333332
EXTRACT: note_on channel=7 note=69 velocity=0 time=0.004716983333333332
EXTRACT: note_on channel=9 note=39 velocity=0 time=0.014150949999999997
EXTRACT: note_on channel=9 note=27 velocity=0 time=0
EXTRACT: note_on channel=9 note=75 velocity=0 time=0
EXTRACT: note_on channel=9 note=42 velocity=0 time=0
EXTRACT: note_on channel=1 note=28 velocity=0 time=0.22169821666666661
EXTRACT: note_on channel=4 note=52 velocity=0 time=0.009433966666666665
EXTRACT: note_on channel=4 note=59 velocity=0 time=0.004716983333333332
EXTRACT: note_on channel=4 note=55 velocity=0 time=0.009433966666666665
EXTRACT: note_on channel=4 note=55 velocity=100 time=0
EXTRACT: note_on channel=5 note=52 velocity=0 time=0
EXTRACT: note_on channel=5 note=52 velocity=66 time=0
EXTRACT: note_on channel=4 note=59 velocity=100 time=0.004716983333333332
EXTRACT: note_on channel=4 note=52 velocity=100 time=0
EXTRACT: note_on channel=9 note=75 velocity=44 time=0
EXTRACT: note_on channel=9 note=42 velocity=52 time=0
EXTRACT: note_on channel=9 note=27 velocity=75 time=0
EXTRACT: note_on channel=9 note=35 velocity=75 time=0
EXTRACT: note_on channel=7 note=67 velocity=0 time=0.004716983333333332
EXTRACT: note_on channel=1 note=28 velocity=54 time=0.004716983333333332
EXTRACT: note_on channel=7 note=64 velocity=100 time=0.01886793333333333
EXTRACT: note_on channel=9 note=35 velocity=0 time=0.004716983333333332
EXTRACT: note_on channel=9 note=75 velocity=0 time=0
EXTRACT: note_on channel=9 note=42 velocity=0 time=0
EXTRACT: note_on channel=9 note=27 velocity=0 time=0
EXTRACT: note_on channel=9 note=35 velocity=75 time=0.09905664999999998
EXTRACT: note_on channel=9 note=35 velocity=0 time=0.033018883333333325
EXTRACT: note_on channel=4 note=55 velocity=0 time=0.09433966666666666
EXTRACT: note_on channel=4 note=52 velocity=0 time=0.004716983333333332
EXTRACT: note_on channel=4 note=59 velocity=0 time=0
EXTRACT: note_on channel=1 note=28 velocity=0 time=0.009433966666666665
EXTRACT: note_on channel=5 note=52 velocity=0 time=0
EXTRACT: note_on channel=4 note=52 velocity=100 time=0.009433966666666665
EXTRACT: note_on channel=5 note=52 velocity=66 time=0
EXTRACT: note_on channel=9 note=42 velocity=75 time=0
EXTRACT: note_on channel=9 note=27 velocity=75 time=0
EXTRACT: note_on channel=9 note=75 velocity=46 time=0
EXTRACT: note_on channel=1 note=28 velocity=68 time=0.009433966666666665
EXTRACT: note_on channel=4 note=55 velocity=100 time=0.004716983333333332
EXTRACT: note_on channel=4 note=59 velocity=100 time=0
EXTRACT: note_on channel=9 note=35 velocity=75 time=0
EXTRACT: note_on channel=7 note=64 velocity=0 time=0.009433966666666665
EXTRACT: note_on channel=9 note=75 velocity=0 time=0.009433966666666665
EXTRACT: note_on channel=9 note=42 velocity=0 time=0
EXTRACT: note_on channel=9 note=27 velocity=0 time=0
EXTRACT: note_on channel=9 note=35 velocity=0 time=0.014150949999999997
EXTRACT: note_on channel=5 note=67 velocity=0 time=0.19339631666666662
EXTRACT: note_on channel=5 note=71 velocity=0 time=0.014150949999999997
EXTRACT: note_on channel=5 note=59 velocity=0 time=0
EXTRACT: note_on channel=4 note=52 velocity=0 time=0.009433966666666665
EXTRACT: note_on channel=5 note=71 velocity=45 time=0.004716983333333332
EXTRACT: note_on channel=5 note=64 velocity=0 time=0.004716983333333332
EXTRACT: note_on channel=5 note=67 velocity=77 time=0
EXTRACT: note_on channel=5 note=59 velocity=56 time=0
EXTRACT: note_on channel=4 note=59 velocity=0 time=0.004716983333333332
EXTRACT: note_on channel=4 note=55 velocity=0 time=0
EXTRACT: note_on channel=5 note=52 velocity=0 time=0
EXTRACT: note_on channel=5 note=52 velocity=66 time=0
EXTRACT: note_on channel=5 note=64 velocity=85 time=0
EXTRACT: note_on channel=9 note=42 velocity=75 time=0.004716983333333332
EXTRACT: note_on channel=4 note=55 velocity=100 time=0.009433966666666665
EXTRACT: note_on channel=4 note=52 velocity=100 time=0
EXTRACT: note_on channel=4 note=59 velocity=100 time=0.014150949999999997
EXTRACT: note_on channel=9 note=42 velocity=0 time=0.009433966666666665
EXTRACT: note_on channel=4 note=52 velocity=0 time=0.24056614999999995
EXTRACT: note_on channel=4 note=55 velocity=0 time=0
EXTRACT: note_on channel=5 note=52 velocity=0 time=0
EXTRACT: note_on channel=5 note=52 velocity=66 time=0.009433966666666665
EXTRACT: note_on channel=9 note=75 velocity=50 time=0
EXTRACT: note_on channel=9 note=42 velocity=75 time=0
EXTRACT: note_on channel=9 note=39 velocity=75 time=0
EXTRACT: note_on channel=9 note=27 velocity=75 time=0
EXTRACT: note_on channel=4 note=59 velocity=0 time=0.004716983333333332
EXTRACT: note_on channel=4 note=55 velocity=100 time=0
EXTRACT: note_on channel=4 note=59 velocity=100 time=0
EXTRACT: note_on channel=4 note=52 velocity=100 time=0
EXTRACT: note_on channel=9 note=27 velocity=0 time=0.028301899999999994
EXTRACT: note_on channel=9 note=75 velocity=0 time=0
EXTRACT: note_on channel=9 note=42 velocity=0 time=0
EXTRACT: note_on channel=9 note=39 velocity=0 time=0
EXTRACT: note_on channel=5 note=71 velocity=0 time=0.19339631666666662
EXTRACT: note_on channel=5 note=67 velocity=0 time=0.004716983333333332
EXTRACT: note_on channel=5 note=64 velocity=0 time=0.004716983333333332
EXTRACT: note_on channel=5 note=59 velocity=0 time=0.014150949999999997
EXTRACT: note_on channel=5 note=71 velocity=56 time=0.004716983333333332
EXTRACT: note_on channel=5 note=64 velocity=56 time=0
EXTRACT: note_on channel=5 note=67 velocity=56 time=0.004716983333333332
EXTRACT: note_on channel=5 note=59 velocity=56 time=0.004716983333333332
EXTRACT: note_on channel=4 note=52 velocity=0 time=0.004716983333333332
EXTRACT: note_on channel=4 note=59 velocity=0 time=0
EXTRACT: note_on channel=4 note=55 velocity=0 time=0
EXTRACT: note_on channel=4 note=55 velocity=100 time=0.009433966666666665
EXTRACT: note_on channel=5 note=52 velocity=0 time=0
EXTRACT: note_on channel=4 note=52 velocity=100 time=0.004716983333333332
EXTRACT: note_on channel=9 note=42 velocity=75 time=0
EXTRACT: note_on channel=9 note=27 velocity=75 time=0
EXTRACT: note_on channel=9 note=75 velocity=50 time=0
EXTRACT: note_on channel=5 note=52 velocity=66 time=0.004716983333333332
EXTRACT: note_on channel=4 note=59 velocity=100 time=0.004716983333333332
EXTRACT: note_on channel=9 note=27 velocity=0 time=0.08018871666666665
EXTRACT: note_on channel=9 note=75 velocity=0 time=0.01886793333333333
EXTRACT: note_on channel=9 note=42 velocity=0 time=0.004716983333333332
EXTRACT: note_on channel=1 note=28 velocity=0 time=0.06132078333333332
EXTRACT: note_on channel=0 note=55 velocity=0 time=0.08490569999999999
EXTRACT: note_on channel=0 note=40 velocity=0 time=0
EXTRACT: note_on channel=0 note=64 velocity=0 time=0
EXTRACT: note_on channel=0 note=59 velocity=0 time=0
EXTRACT: note_on channel=4 note=55 velocity=0 time=0
EXTRACT: note_on channel=6 note=55 velocity=0 time=0
EXTRACT: note_on channel=6 note=67 velocity=0 time=0
EXTRACT: note_on channel=6 note=59 velocity=0 time=0
EXTRACT: note_on channel=4 note=52 velocity=0 time=0.004716983333333332
EXTRACT: note_on channel=4 note=59 velocity=0 time=0.009433966666666665
EXTRACT: note_on channel=5 note=52 velocity=0 time=0.009433966666666665
EXTRACT: note_on channel=5 note=50 velocity=66 time=0
EXTRACT: note_on channel=9 note=75 velocity=46 time=0
EXTRACT: note_on channel=9 note=35 velocity=75 time=0
EXTRACT: note_on channel=4 note=62 velocity=100 time=0.004716983333333332
EXTRACT: note_on channel=6 note=62 velocity=52 time=0
EXTRACT: note_on channel=9 note=42 velocity=75 time=0
EXTRACT: note_on channel=0 note=50 velocity=48 time=0.004716983333333332
EXTRACT: note_on channel=1 note=38 velocity=83 time=0
EXTRACT: note_on channel=6 note=69 velocity=50 time=0
EXTRACT: note_on channel=0 note=66 velocity=45 time=0.004716983333333332
EXTRACT: note_on channel=0 note=62 velocity=45 time=0
EXTRACT: note_on channel=0 note=57 velocity=45 time=0
EXTRACT: note_on channel=4 note=50 velocity=100 time=0
EXTRACT: note_on channel=4 note=57 velocity=100 time=0
EXTRACT: note_on channel=6 note=57 velocity=52 time=0
EXTRACT: note_on channel=9 note=35 velocity=0 time=0.01886793333333333
EXTRACT: note_on channel=9 note=42 velocity=0 time=0.004716983333333332
EXTRACT: note_on channel=9 note=75 velocity=0 time=0.04716983333333333
EXTRACT: note_on channel=4 note=62 velocity=0 time=0.18396234999999997
EXTRACT: note_on channel=4 note=57 velocity=0 time=0.009433966666666665
EXTRACT: note_on channel=4 note=50 velocity=0 time=0
EXTRACT: note_on channel=5 note=50 velocity=0 time=0
EXTRACT: note_on channel=5 note=50 velocity=66 time=0
EXTRACT: note_on channel=4 note=62 velocity=100 time=0.004716983333333332
EXTRACT: note_on channel=9 note=42 velocity=58 time=0
EXTRACT: note_on channel=7 note=66 velocity=100 time=0.004716983333333332
EXTRACT: note_on channel=4 note=50 velocity=100 time=0.004716983333333332
EXTRACT: note_on channel=4 note=57 velocity=100 time=0
EXTRACT: note_on channel=9 note=42 velocity=0 time=0.023584916666666664
EXTRACT: note_on channel=4 note=62 velocity=0 time=0.2311321833333333
EXTRACT: note_on channel=4 note=57 velocity=0 time=0.009433966666666665
EXTRACT: note_on channel=4 note=50 velocity=0 time=0
EXTRACT: note_on channel=5 note=50 velocity=0 time=0
EXTRACT: note_on channel=5 note=59 velocity=0 time=0
EXTRACT: note_on channel=5 note=71 velocity=0 time=0
EXTRACT: note_on channel=5 note=67 velocity=0 time=0
EXTRACT: note_on channel=5 note=64 velocity=0 time=0.004716983333333332
EXTRACT: note_on channel=5 note=50 velocity=66 time=0.004716983333333332
EXTRACT: note_on channel=5 note=69 velocity=66 time=0
EXTRACT: note_on channel=5 note=66 velocity=67 time=0
EXTRACT: note_on channel=7 note=66 velocity=0 time=0
EXTRACT: note_on channel=9 note=27 velocity=75 time=0
EXTRACT: note_on channel=9 note=39 velocity=75 time=0
EXTRACT: note_on channel=9 note=42 velocity=75 time=0
EXTRACT: note_on channel=9 note=75 velocity=56 time=0
EXTRACT: note_on channel=4 note=50 velocity=100 time=0.004716983333333332
EXTRACT: note_on channel=5 note=62 velocity=67 time=0
EXTRACT: note_on channel=5 note=57 velocity=70 time=0
EXTRACT: note_on channel=4 note=62 velocity=100 time=0.009433966666666665
EXTRACT: note_on channel=7 note=66 velocity=100 time=0
EXTRACT: note_on channel=4 note=57 velocity=100 time=0.004716983333333332
EXTRACT: note_on channel=9 note=75 velocity=0 time=0.014150949999999997
EXTRACT: note_on channel=9 note=27 velocity=0 time=0
EXTRACT: note_on channel=9 note=39 velocity=0 time=0
EXTRACT: note_on channel=9 note=42 velocity=0 time=0
EXTRACT: note_on channel=1 note=38 velocity=0 time=0.22169821666666661
EXTRACT: note_on channel=4 note=50 velocity=0 time=0.014150949999999997
EXTRACT: note_on channel=4 note=62 velocity=0 time=0.009433966666666665
EXTRACT: note_on channel=5 note=50 velocity=0 time=0
EXTRACT: note_on channel=5 note=50 velocity=66 time=0
EXTRACT: note_on channel=4 note=57 velocity=0 time=0.004716983333333332
EXTRACT: note_on channel=4 note=50 velocity=100 time=0
EXTRACT: note_on channel=9 note=75 velocity=44 time=0
EXTRACT: note_on channel=9 note=42 velocity=52 time=0
EXTRACT: note_on channel=9 note=35 velocity=75 time=0
EXTRACT: note_on channel=9 note=27 velocity=75 time=0
EXTRACT: note_on channel=1 note=38 velocity=54 time=0.009433966666666665
EXTRACT: note_on channel=7 note=66 velocity=0 time=0
EXTRACT: note_on channel=4 note=57 velocity=100 time=0.004716983333333332
EXTRACT: note_on channel=7 note=66 velocity=100 time=0.004716983333333332
EXTRACT: note_on channel=4 note=62 velocity=100 time=0.004716983333333332
EXTRACT: note_on channel=9 note=27 velocity=0 time=0.009433966666666665
EXTRACT: note_on channel=9 note=75 velocity=0 time=0
EXTRACT: note_on channel=9 note=42 velocity=0 time=0
EXTRACT: note_on channel=9 note=35 velocity=0 time=0
EXTRACT: note_on channel=9 note=35 velocity=75 time=0.09433966666666666
EXTRACT: note_on channel=9 note=35 velocity=0 time=0.033018883333333325
EXTRACT: note_on channel=4 note=50 velocity=0 time=0.10377363333333331
EXTRACT: note_on channel=1 note=38 velocity=0 time=0.009433966666666665
EXTRACT: note_on channel=5 note=50 velocity=0 time=0
EXTRACT: note_on channel=4 note=57 velocity=0 time=0.004716983333333332
EXTRACT: note_on channel=5 note=50 velocity=66 time=0.004716983333333332
EXTRACT: note_on channel=9 note=75 velocity=46 time=0
EXTRACT: note_on channel=9 note=42 velocity=75 time=0
EXTRACT: note_on channel=9 note=27 velocity=75 time=0
EXTRACT: note_on channel=4 note=62 velocity=0 time=0.004716983333333332
EXTRACT: note_on channel=9 note=35 velocity=75 time=0
EXTRACT: note_on channel=1 note=38 velocity=68 time=0.004716983333333332
EXTRACT: note_on channel=4 note=50 velocity=100 time=0.004716983333333332
EXTRACT: note_on channel=7 note=66 velocity=0 time=0
EXTRACT: note_on channel=4 note=57 velocity=100 time=0.004716983333333332
EXTRACT: note_on channel=4 note=62 velocity=100 time=0
EXTRACT: note_on channel=7 note=66 velocity=100 time=0.009433966666666665
EXTRACT: note_on channel=9 note=27 velocity=0 time=0.004716983333333332
EXTRACT: note_on channel=9 note=75 velocity=0 time=0
EXTRACT: note_on channel=9 note=42 velocity=0 time=0
EXTRACT: note_on channel=9 note=35 velocity=0 time=0.004716983333333332
EXTRACT: note_on channel=5 note=57 velocity=0 time=0.22169821666666661
EXTRACT: note_on channel=5 note=69 velocity=0 time=0
EXTRACT: note_on channel=5 note=62 velocity=0 time=0.009433966666666665
EXTRACT: note_on channel=5 note=66 velocity=0 time=0.004716983333333332
EXTRACT: note_on channel=4 note=50 velocity=0 time=0.004716983333333332
EXTRACT: note_on channel=5 note=50 velocity=0 time=0
EXTRACT: note_on channel=5 note=57 velocity=66 time=0
EXTRACT: note_on channel=5 note=62 velocity=66 time=0
EXTRACT: note_on channel=5 note=69 velocity=66 time=0
EXTRACT: note_on channel=5 note=50 velocity=66 time=0
EXTRACT: note_on channel=7 note=62 velocity=100 time=0
EXTRACT: note_on channel=4 note=62 velocity=0 time=0.004716983333333332
EXTRACT: note_on channel=4 note=57 velocity=0 time=0
EXTRACT: note_on channel=9 note=42 velocity=75 time=0
EXTRACT: note_on channel=5 note=66 velocity=66 time=0.004716983333333332
EXTRACT: note_on channel=4 note=57 velocity=100 time=0.004716983333333332
EXTRACT: note_on channel=4 note=62 velocity=100 time=0
EXTRACT: note_on channel=4 note=50 velocity=100 time=0.004716983333333332
EXTRACT: note_on channel=7 note=66 velocity=0 time=0.009433966666666665
EXTRACT: note_on channel=9 note=42 velocity=0 time=0.009433966666666665
EXTRACT: note_on channel=4 note=62 velocity=0 time=0.24056614999999995
EXTRACT: note_on channel=4 note=57 velocity=0 time=0
EXTRACT: note_on channel=5 note=50 velocity=0 time=0
EXTRACT: note_on channel=7 note=62 velocity=0 time=0
EXTRACT: note_on channel=4 note=50 velocity=0 time=0.004716983333333332
EXTRACT: note_on channel=5 note=50 velocity=66 time=0
EXTRACT: note_on channel=9 note=75 velocity=50 time=0.004716983333333332
EXTRACT: note_on channel=9 note=27 velocity=75 time=0
EXTRACT: note_on channel=9 note=39 velocity=75 time=0
EXTRACT: note_on channel=9 note=42 velocity=75 time=0
EXTRACT: note_on channel=4 note=62 velocity=100 time=0.004716983333333332
EXTRACT: note_on channel=7 note=62 velocity=100 time=0.004716983333333332
EXTRACT: note_on channel=4 note=57 velocity=100 time=0.004716983333333332
EXTRACT: note_on channel=4 note=50 velocity=100 time=0.004716983333333332
EXTRACT: note_on channel=9 note=42 velocity=0 time=0.014150949999999997
EXTRACT: note_on channel=9 note=75 velocity=0 time=0
EXTRACT: note_on channel=9 note=27 velocity=0 time=0
EXTRACT: note_on channel=9 note=39 velocity=0 time=0
EXTRACT: note_on channel=5 note=66 velocity=0 time=0.22641519999999996
EXTRACT: note_on channel=5 note=69 velocity=0 time=0.004716983333333332
EXTRACT: note_on channel=4 note=62 velocity=0 time=0.004716983333333332
EXTRACT: note_on channel=5 note=57 velocity=0 time=0.004716983333333332
EXTRACT: note_on channel=5 note=62 velocity=0 time=0
EXTRACT: note_on channel=5 note=50 velocity=0 time=0
EXTRACT: note_on channel=4 note=57 velocity=0 time=0.004716983333333332
EXTRACT: note_on channel=5 note=50 velocity=66 time=0
EXTRACT: note_on channel=5 note=57 velocity=66 time=0
EXTRACT: note_on channel=4 note=50 velocity=0 time=0.004716983333333332
EXTRACT: note_on channel=4 note=50 velocity=100 time=0
EXTRACT: note_on channel=4 note=62 velocity=100 time=0
EXTRACT: note_on channel=9 note=42 velocity=75 time=0
EXTRACT: note_on channel=9 note=27 velocity=75 time=0
EXTRACT: note_on channel=9 note=75 velocity=50 time=0
EXTRACT: note_on channel=5 note=62 velocity=66 time=0.004716983333333332
EXTRACT: note_on channel=7 note=62 velocity=0 time=0
EXTRACT: note_on channel=5 note=69 velocity=66 time=0.004716983333333332
EXTRACT: note_on channel=5 note=66 velocity=66 time=0
EXTRACT: note_on channel=4 note=57 velocity=100 time=0.004716983333333332
EXTRACT: note_on channel=7 note=59 velocity=100 time=0
EXTRACT: note_on channel=9 note=27 velocity=0 time=0.07547173333333332
EXTRACT: note_on channel=9 note=75 velocity=0 time=0.01886793333333333
EXTRACT: note_on channel=9 note=42 velocity=0 time=0.004716983333333332
EXTRACT: note_on channel=1 note=38 velocity=0 time=0.06132078333333332
EXTRACT: note_on channel=0 note=57 velocity=0 time=0.08490569999999999
EXTRACT: note_on channel=0 note=50 velocity=0 time=0
EXTRACT: note_on channel=0 note=66 velocity=0 time=0
EXTRACT: note_on channel=0 note=62 velocity=0 time=0
EXTRACT: note_on channel=6 note=57 velocity=0 time=0
EXTRACT: note_on channel=6 note=69 velocity=0 time=0
EXTRACT: note_on channel=6 note=62 velocity=0 time=0
EXTRACT: note_on channel=4 note=62 velocity=0 time=0.004716983333333332
EXTRACT: note_on channel=4 note=50 velocity=0 time=0
EXTRACT: note_on channel=5 note=50 velocity=0 time=0.009433966666666665
EXTRACT: note_on channel=4 note=57 velocity=0 time=0.004716983333333332
EXTRACT: note_on channel=9 note=75 velocity=46 time=0.004716983333333332
EXTRACT: note_on channel=9 note=35 velocity=75 time=0
EXTRACT: note_on channel=1 note=33 velocity=86 time=0.004716983333333332
EXTRACT: note_on channel=5 note=45 velocity=67 time=0
EXTRACT: note_on channel=6 note=57 velocity=57 time=0
EXTRACT: note_on channel=9 note=42 velocity=75 time=0
EXTRACT: note_on channel=0 note=45 velocity=48 time=0.004716983333333332
EXTRACT: note_on channel=6 note=64 velocity=55 time=0
EXTRACT: note_on channel=7 note=59 velocity=0 time=0
EXTRACT: note_on channel=0 note=64 velocity=45 time=0.004716983333333332
EXTRACT: note_on channel=0 note=60 velocity=45 time=0
EXTRACT: note_on channel=0 note=57 velocity=45 time=0
EXTRACT: note_on channel=6 note=52 velocity=57 time=0
EXTRACT: note_on channel=7 note=60 velocity=100 time=0
EXTRACT: note_on channel=4 note=57 velocity=100 time=0.009433966666666665
EXTRACT: note_on channel=4 note=60 velocity=100 time=0.004716983333333332
EXTRACT: note_on channel=4 note=52 velocity=100 time=0.004716983333333332
EXTRACT: note_on channel=9 note=35 velocity=0 time=0
EXTRACT: note_on channel=9 note=42 velocity=0 time=0.004716983333333332
EXTRACT: note_on channel=9 note=75 velocity=0 time=0.04716983333333333
EXTRACT: note_on channel=1 note=33 velocity=0 time=0.08490569999999999
EXTRACT: note_on channel=6 note=57 velocity=0 time=0
EXTRACT: note_on channel=0 note=45 velocity=0 time=0.004716983333333332
EXTRACT: note_on channel=6 note=64 velocity=0 time=0
EXTRACT: note_on channel=0 note=64 velocity=0 time=0.004716983333333332
EXTRACT: note_on channel=0 note=60 velocity=0 time=0
EXTRACT: note_on channel=0 note=57 velocity=0 time=0
EXTRACT: note_on channel=6 note=52 velocity=0 time=0
EXTRACT: note_on channel=9 note=42 velocity=58 time=0.10377363333333331
EXTRACT: note_on channel=5 note=45 velocity=0 time=0.009433966666666665
EXTRACT: note_on channel=7 note=60 velocity=0 time=0
EXTRACT: note_on channel=4 note=60 velocity=0 time=0.004716983333333332
EXTRACT: note_on channel=4 note=57 velocity=0 time=0
EXTRACT: note_on channel=5 note=45 velocity=67 time=0
EXTRACT: note_on channel=4 note=60 velocity=100 time=0.004716983333333332
EXTRACT: note_on channel=4 note=57 velocity=100 time=0.009433966666666665
EXTRACT: note_on channel=4 note=52 velocity=0 time=0.004716983333333332
EXTRACT: note_on channel=4 note=52 velocity=100 time=0
EXTRACT: note_on channel=9 note=42 velocity=0 time=0
EXTRACT: note_on channel=5 note=66 velocity=0 time=0.2358491666666666
EXTRACT: note_on channel=5 note=69 velocity=0 time=0
EXTRACT: note_on channel=5 note=57 velocity=0 time=0
EXTRACT: note_on channel=5 note=45 velocity=0 time=0.004716983333333332
EXTRACT: note_on channel=5 note=62 velocity=0 time=0.004716983333333332
EXTRACT: note_on channel=5 note=52 velocity=34 time=0.004716983333333332
EXTRACT: note_on channel=9 note=27 velocity=75 time=0
EXTRACT: note_on channel=9 note=75 velocity=56 time=0
EXTRACT: note_on channel=9 note=42 velocity=75 time=0
EXTRACT: note_on channel=1 note=33 velocity=86 time=0.004716983333333332
EXTRACT: note_on channel=4 note=60 velocity=0 time=0
EXTRACT: note_on channel=5 note=45 velocity=67 time=0
EXTRACT: note_on channel=5 note=69 velocity=66 time=0
EXTRACT: note_on channel=5 note=64 velocity=67 time=0
EXTRACT: note_on channel=5 note=60 velocity=67 time=0
EXTRACT: note_on channel=5 note=57 velocity=70 time=0
EXTRACT: note_on channel=6 note=57 velocity=57 time=0
EXTRACT: note_on channel=9 note=35 velocity=75 time=0
EXTRACT: note_on channel=0 note=45 velocity=48 time=0.004716983333333332
EXTRACT: note_on channel=6 note=64 velocity=55 time=0
EXTRACT: note_on channel=0 note=64 velocity=45 time=0.004716983333333332
EXTRACT: note_on channel=0 note=60 velocity=45 time=0
EXTRACT: note_on channel=0 note=57 velocity=45 time=0
EXTRACT: note_on channel=6 note=52 velocity=57 time=0
EXTRACT: note_on channel=4 note=57 velocity=0 time=0.004716983333333332
EXTRACT: note_on channel=4 note=57 velocity=100 time=0.004716983333333332
EXTRACT: note_on channel=4 note=60 velocity=100 time=0
EXTRACT: note_on channel=4 note=52 velocity=0 time=0.009433966666666665
EXTRACT: note_on channel=9 note=42 velocity=0 time=0
EXTRACT: note_on channel=9 note=27 velocity=0 time=0
EXTRACT: note_on channel=9 note=75 velocity=0 time=0
EXTRACT: note_on channel=4 note=52 velocity=100 time=0.004716983333333332
EXTRACT: note_on channel=9 note=35 velocity=0 time=0
EXTRACT: note_on channel=1 note=33 velocity=0 time=0.1320755333333333
EXTRACT: note_on channel=6 note=57 velocity=0 time=0
EXTRACT: note_on channel=0 note=45 velocity=0 time=0.004716983333333332
EXTRACT: note_on channel=6 note=64 velocity=0 time=0
EXTRACT: note_on channel=0 note=64 velocity=0 time=0.004716983333333332
EXTRACT: note_on channel=0 note=60 velocity=0 time=0
EXTRACT: note_on channel=0 note=57 velocity=0 time=0
EXTRACT: note_on channel=6 note=52 velocity=0 time=0
EXTRACT: note_on channel=5 note=45 velocity=0 time=0.08490569999999999
EXTRACT: note_on channel=5 note=45 velocity=67 time=0.014150949999999997
EXTRACT: note_on channel=9 note=27 velocity=75 time=0.004716983333333332
EXTRACT: note_on channel=9 note=75 velocity=44 time=0
EXTRACT: note_on channel=9 note=42 velocity=52 time=0
EXTRACT: note_on channel=4 note=52 velocity=0 time=0.01886793333333333
EXTRACT: note_on channel=4 note=60 velocity=0 time=0.004716983333333332
EXTRACT: note_on channel=4 note=57 velocity=0 time=0
EXTRACT: note_on channel=4 note=52 velocity=100 time=0.004716983333333332
EXTRACT: note_on channel=4 note=57 velocity=100 time=0
EXTRACT: note_on channel=4 note=60 velocity=100 time=0.004716983333333332
EXTRACT: note_on channel=9 note=42 velocity=0 time=0
EXTRACT: note_on channel=9 note=75 velocity=0 time=0
EXTRACT: note_on channel=9 note=27 velocity=0 time=0
EXTRACT: note_on channel=5 note=45 velocity=0 time=0.22169821666666661
EXTRACT: note_on channel=9 note=42 velocity=75 time=0.028301899999999994
EXTRACT: note_on channel=9 note=27 velocity=75 time=0
EXTRACT: note_on channel=9 note=75 velocity=46 time=0
EXTRACT: note_on channel=1 note=33 velocity=86 time=0.004716983333333332
EXTRACT: note_on channel=5 note=45 velocity=67 time=0
EXTRACT: note_on channel=6 note=57 velocity=57 time=0
EXTRACT: note_on channel=9 note=35 velocity=75 time=0
EXTRACT: note_on channel=0 note=45 velocity=48 time=0.004716983333333332
EXTRACT: note_on channel=4 note=52 velocity=0 time=0
EXTRACT: note_on channel=6 note=64 velocity=55 time=0
EXTRACT: note_on channel=0 note=64 velocity=45 time=0.004716983333333332
EXTRACT: note_on channel=0 note=60 velocity=45 time=0
EXTRACT: note_on channel=0 note=57 velocity=45 time=0
EXTRACT: note_on channel=6 note=52 velocity=57 time=0
EXTRACT: note_on channel=4 note=57 velocity=0 time=0.014150949999999997
EXTRACT: note_on channel=4 note=60 velocity=0 time=0.004716983333333332
EXTRACT: note_on channel=4 note=52 velocity=100 time=0
EXTRACT: note_on channel=9 note=75 velocity=0 time=0
EXTRACT: note_on channel=9 note=42 velocity=0 time=0
EXTRACT: note_on channel=9 note=27 velocity=0 time=0
EXTRACT: note_on channel=4 note=57 velocity=100 time=0.004716983333333332
EXTRACT: note_on channel=4 note=60 velocity=100 time=0
EXTRACT: note_on channel=9 note=35 velocity=0 time=0
EXTRACT: note_on channel=1 note=33 velocity=0 time=0.1320755333333333
EXTRACT: note_on channel=6 note=57 velocity=0 time=0
EXTRACT: note_on channel=0 note=45 velocity=0 time=0.004716983333333332
EXTRACT: note_on channel=6 note=64 velocity=0 time=0
EXTRACT: note_on channel=0 note=64 velocity=0 time=0.004716983333333332
EXTRACT: note_on channel=0 note=60 velocity=0 time=0
EXTRACT: note_on channel=0 note=57 velocity=0 time=0
EXTRACT: note_on channel=6 note=52 velocity=0 time=0
EXTRACT: note_on channel=5 note=69 velocity=0 time=0.051886816666666655
EXTRACT: note_on channel=5 note=64 velocity=0 time=0
EXTRACT: note_on channel=5 note=60 velocity=0 time=0.004716983333333332
EXTRACT: note_on channel=5 note=52 velocity=0 time=0
EXTRACT: note_on channel=5 note=57 velocity=0 time=0
EXTRACT: note_on channel=5 note=52 velocity=66 time=0.014150949999999997
EXTRACT: note_on channel=5 note=57 velocity=66 time=0
EXTRACT: note_on channel=5 note=60 velocity=66 time=0
EXTRACT: note_on channel=5 note=69 velocity=66 time=0
EXTRACT: note_on channel=5 note=64 velocity=66 time=0.004716983333333332
EXTRACT: note_on channel=5 note=45 velocity=0 time=0.009433966666666665
EXTRACT: note_on channel=5 note=45 velocity=67 time=0.004716983333333332
EXTRACT: note_on channel=9 note=42 velocity=75 time=0.014150949999999997
EXTRACT: note_on channel=4 note=52 velocity=0 time=0.014150949999999997
EXTRACT: note_on channel=4 note=52 velocity=100 time=0.004716983333333332
EXTRACT: note_on channel=9 note=42 velocity=0 time=0
EXTRACT: note_on channel=4 note=60 velocity=0 time=0.01886793333333333
EXTRACT: note_on channel=4 note=57 velocity=0 time=0
EXTRACT: note_on channel=4 note=57 velocity=100 time=0.004716983333333332
EXTRACT: note_on channel=4 note=60 velocity=100 time=0
EXTRACT: note_on channel=9 note=39 velocity=52 time=0.09905664999999998
EXTRACT: note_on channel=9 note=39 velocity=0 time=0.01886793333333333
EXTRACT: note_on channel=5 note=45 velocity=0 time=0.08490569999999999
EXTRACT: note_on channel=4 note=52 velocity=0 time=0.03773586666666666
EXTRACT: note_on channel=9 note=42 velocity=75 time=0
EXTRACT: note_on channel=9 note=27 velocity=75 time=0
EXTRACT: note_on channel=9 note=75 velocity=50 time=0
EXTRACT: note_on channel=9 note=39 velocity=95 time=0
EXTRACT: note_on channel=5 note=45 velocity=67 time=0.004716983333333332
EXTRACT: note_on channel=9 note=39 velocity=0 time=0.014150949999999997
EXTRACT: note_on channel=9 note=42 velocity=0 time=0
EXTRACT: note_on channel=9 note=27 velocity=0 time=0
EXTRACT: note_on channel=9 note=75 velocity=0 time=0
EXTRACT: note_on channel=4 note=57 velocity=0 time=0.004716983333333332
EXTRACT: note_on channel=4 note=52 velocity=100 time=0.009433966666666665
EXTRACT: note_on channel=4 note=57 velocity=100 time=0
EXTRACT: note_on channel=4 note=60 velocity=0 time=0.009433966666666665
EXTRACT: note_on channel=4 note=60 velocity=100 time=0.004716983333333332
EXTRACT: note_on channel=9 note=39 velocity=60 time=0.09433966666666666
EXTRACT: note_on channel=9 note=39 velocity=0 time=0.01886793333333333
EXTRACT: note_on channel=5 note=57 velocity=0 time=0.09905664999999998
EXTRACT: note_on channel=5 note=52 velocity=0 time=0
EXTRACT: note_on channel=5 note=60 velocity=0 time=0
EXTRACT: note_on channel=5 note=69 velocity=0 time=0
EXTRACT: note_on channel=5 note=64 velocity=0 time=0.004716983333333332
EXTRACT: note_on channel=5 note=57 velocity=66 time=0.004716983333333332
EXTRACT: note_on channel=5 note=69 velocity=66 time=0.004716983333333332
EXTRACT: note_on channel=5 note=60 velocity=66 time=0
EXTRACT: note_on channel=5 note=52 velocity=66 time=0.004716983333333332
EXTRACT: note_on channel=5 note=45 velocity=0 time=0.004716983333333332
EXTRACT: note_on channel=5 note=45 velocity=67 time=0
EXTRACT: note_on channel=5 note=64 velocity=66 time=0
EXTRACT: note_on channel=9 note=75 velocity=50 time=0
EXTRACT: note_on channel=9 note=27 velocity=75 time=0
EXTRACT: note_on channel=9 note=39 velocity=78 time=0
EXTRACT: note_on channel=9 note=42 velocity=75 time=0
EXTRACT: note_on channel=7 note=57 velocity=100 time=0.004716983333333332
EXTRACT: note_on channel=8 note=57 velocity=100 time=0
EXTRACT: note_on channel=4 note=57 velocity=0 time=0.009433966666666665
EXTRACT: note_on channel=4 note=52 velocity=0 time=0
EXTRACT: note_on channel=4 note=52 velocity=100 time=0.004716983333333332
EXTRACT: note_on channel=4 note=57 velocity=100 time=0
EXTRACT: note_on channel=9 note=42 velocity=0 time=0
EXTRACT: note_on channel=9 note=75 velocity=0 time=0
EXTRACT: note_on channel=9 note=27 velocity=0 time=0
EXTRACT: note_on channel=9 note=39 velocity=0 time=0
EXTRACT: note_on channel=4 note=60 velocity=0 time=0.028301899999999994
EXTRACT: note_on channel=4 note=60 velocity=100 time=0
EXTRACT: note_on channel=9 note=39 velocity=52 time=0.09433966666666666
EXTRACT: note_on channel=9 note=39 velocity=0 time=0.08018871666666665
EXTRACT: note_on channel=5 note=45 velocity=0 time=0.05660379999999999
EXTRACT: note_on channel=4 note=57 velocity=0 time=0.004716983333333332
EXTRACT: note_on channel=4 note=52 velocity=0 time=0
EXTRACT: note_on channel=5 note=45 velocity=67 time=0
EXTRACT: note_on channel=7 note=57 velocity=0 time=0
EXTRACT: note_on channel=8 note=57 velocity=0 time=0
EXTRACT: note_on channel=9 note=57 velocity=82 time=0
EXTRACT: note_on channel=0 note=64 velocity=47 time=0.004716983333333332
EXTRACT: note_on channel=0 note=45 velocity=47 time=0
EXTRACT: note_on channel=1 note=33 velocity=83 time=0
EXTRACT: note_on channel=4 note=60 velocity=0 time=0
EXTRACT: note_on channel=7 note=57 velocity=100 time=0
EXTRACT: note_on channel=8 note=57 velocity=100 time=0
EXTRACT: note_on channel=0 note=64 velocity=45 time=0.004716983333333332
EXTRACT: note_on channel=0 note=60 velocity=45 time=0
EXTRACT: note_on channel=0 note=57 velocity=45 time=0
EXTRACT: note_on channel=6 note=69 velocity=52 time=0
EXTRACT: note_on channel=9 note=57 velocity=0 time=0.023584916666666664
EXTRACT: note_on channel=1 note=33 velocity=0 time=0.2311321833333333
EXTRACT: note_on channel=1 note=33 velocity=70 time=0.014150949999999997
EXTRACT: note_on channel=7 note=59 velocity=100 time=0
EXTRACT: note_on channel=8 note=59 velocity=100 time=0
EXTRACT: note_on channel=9 note=42 velocity=75 time=0
EXTRACT: note_on channel=5 note=45 velocity=0 time=0.004716983333333332
EXTRACT: note_on channel=7 note=57 velocity=0 time=0
EXTRACT: note_on channel=8 note=57 velocity=0 time=0
EXTRACT: note_on channel=5 note=45 velocity=67 time=0.004716983333333332
EXTRACT: note_on channel=9 note=42 velocity=0 time=0.023584916666666664
EXTRACT: note_on channel=5 note=45 velocity=0 time=0.2358491666666666
EXTRACT: note_on channel=5 note=57 velocity=0 time=0
EXTRACT: note_on channel=5 note=64 velocity=0 time=0
EXTRACT: note_on channel=5 note=69 velocity=0 time=0.004716983333333332
EXTRACT: note_on channel=5 note=52 velocity=0 time=0
EXTRACT: note_on channel=5 note=52 velocity=34 time=0.004716983333333332
EXTRACT: note_on channel=7 note=59 velocity=0 time=0
EXTRACT: note_on channel=8 note=59 velocity=0 time=0
EXTRACT: note_on channel=5 note=60 velocity=0 time=0.004716983333333332
EXTRACT: note_on channel=5 note=45 velocity=67 time=0
EXTRACT: note_on channel=5 note=69 velocity=66 time=0
EXTRACT: note_on channel=5 note=64 velocity=67 time=0
EXTRACT: note_on channel=5 note=60 velocity=67 time=0
EXTRACT: note_on channel=5 note=57 velocity=70 time=0
EXTRACT: note_on channel=6 note=64 velocity=46 time=0
EXTRACT: note_on channel=9 note=54 velocity=77 time=0
EXTRACT: note_on channel=9 note=42 velocity=90 time=0
EXTRACT: note_on channel=9 note=75 velocity=71 time=0
EXTRACT: note_on channel=9 note=27 velocity=84 time=0
EXTRACT: note_on channel=9 note=39 velocity=90 time=0
EXTRACT: note_on channel=7 note=60 velocity=100 time=0.01886793333333333
EXTRACT: note_on channel=8 note=60 velocity=100 time=0
EXTRACT: note_on channel=9 note=39 velocity=0 time=0.014150949999999997
EXTRACT: note_on channel=9 note=75 velocity=0 time=0
EXTRACT: note_on channel=9 note=54 velocity=0 time=0
EXTRACT: note_on channel=9 note=42 velocity=0 time=0
EXTRACT: note_on channel=9 note=27 velocity=0 time=0
EXTRACT: note_on channel=1 note=33 velocity=0 time=0.10849061666666665
EXTRACT: note_on channel=5 note=45 velocity=0 time=0.1179245833333333
EXTRACT: note_on channel=5 note=45 velocity=67 time=0.014150949999999997
EXTRACT: note_on channel=9 note=27 velocity=90 time=0.009433966666666665
EXTRACT: note_on channel=9 note=35 velocity=90 time=0
EXTRACT: note_on channel=9 note=42 velocity=80 time=0
EXTRACT: note_on channel=9 note=75 velocity=59 time=0
EXTRACT: note_on channel=1 note=33 velocity=54 time=0.009433966666666665
EXTRACT: note_on channel=7 note=60 velocity=0 time=0.004716983333333332
EXTRACT: note_on channel=7 note=62 velocity=100 time=0
EXTRACT: note_on channel=8 note=60 velocity=0 time=0
EXTRACT: note_on channel=8 note=62 velocity=100 time=0
EXTRACT: note_on channel=9 note=75 velocity=0 time=0.01886793333333333
EXTRACT: note_on channel=9 note=27 velocity=0 time=0
EXTRACT: note_on channel=9 note=35 velocity=0 time=0
EXTRACT: note_on channel=9 note=42 velocity=0 time=0
EXTRACT: note_on channel=5 note=45 velocity=0 time=0.2169812333333333
EXTRACT: note_on channel=1 note=33 velocity=0 time=0.023584916666666664
EXTRACT: note_on channel=5 note=45 velocity=67 time=0.009433966666666665
EXTRACT: note_on channel=6 note=60 velocity=50 time=0
EXTRACT: note_on channel=9 note=75 velocity=61 time=0
EXTRACT: note_on channel=9 note=42 velocity=90 time=0
EXTRACT: note_on channel=9 note=27 velocity=80 time=0
EXTRACT: note_on channel=1 note=33 velocity=68 time=0.009433966666666665
EXTRACT: note_on channel=7 note=62 velocity=0 time=0
EXTRACT: note_on channel=8 note=62 velocity=0 time=0
EXTRACT: note_on channel=7 note=64 velocity=100 time=0.009433966666666665
EXTRACT: note_on channel=8 note=64 velocity=100 time=0
EXTRACT: note_on channel=9 note=27 velocity=0 time=0.014150949999999997
EXTRACT: note_on channel=9 note=42 velocity=0 time=0
EXTRACT: note_on channel=9 note=75 velocity=0 time=0
EXTRACT: note_on channel=5 note=57 velocity=0 time=0.18396234999999997
EXTRACT: note_on channel=5 note=52 velocity=0 time=0
EXTRACT: note_on channel=5 note=69 velocity=0 time=0
EXTRACT: note_on channel=5 note=60 velocity=0 time=0.009433966666666665
EXTRACT: note_on channel=5 note=64 velocity=0 time=0.004716983333333332
EXTRACT: note_on channel=5 note=52 velocity=66 time=0.014150949999999997
EXTRACT: note_on channel=5 note=57 velocity=66 time=0
EXTRACT: note_on channel=5 note=60 velocity=66 time=0
EXTRACT: note_on channel=5 note=69 velocity=66 time=0
EXTRACT: note_on channel=5 note=64 velocity=66 time=0.004716983333333332
EXTRACT: note_on channel=5 note=45 velocity=0 time=0.009433966666666665
EXTRACT: note_on channel=5 note=45 velocity=67 time=0.004716983333333332
EXTRACT: note_on channel=9 note=42 velocity=75 time=0.01886793333333333
EXTRACT: note_on channel=9 note=35 velocity=90 time=0
EXTRACT: note_on channel=9 note=35 velocity=0 time=0.033018883333333325
EXTRACT: note_on channel=9 note=42 velocity=0 time=0
EXTRACT: note_on channel=5 note=45 velocity=0 time=0.20754726666666662
EXTRACT: note_on channel=7 note=64 velocity=0 time=0.01886793333333333
EXTRACT: note_on channel=8 note=64 velocity=0 time=0
EXTRACT: note_on channel=5 note=45 velocity=67 time=0.023584916666666664
EXTRACT: note_on channel=9 note=75 velocity=65 time=0
EXTRACT: note_on channel=9 note=54 velocity=77 time=0
EXTRACT: note_on channel=9 note=27 velocity=90 time=0
EXTRACT: note_on channel=9 note=39 velocity=90 time=0
EXTRACT: note_on channel=9 note=42 velocity=90 time=0
EXTRACT: note_on channel=7 note=62 velocity=100 time=0.009433966666666665
EXTRACT: note_on channel=8 note=62 velocity=100 time=0
EXTRACT: note_on channel=9 note=42 velocity=0 time=0.023584916666666664
EXTRACT: note_on channel=9 note=27 velocity=0 time=0
EXTRACT: note_on channel=9 note=75 velocity=0 time=0
EXTRACT: note_on channel=9 note=54 velocity=0 time=0
EXTRACT: note_on channel=9 note=39 velocity=0 time=0
EXTRACT: note_on channel=5 note=57 velocity=0 time=0.22169821666666661
EXTRACT: note_on channel=5 note=52 velocity=0 time=0
EXTRACT: note_on channel=5 note=60 velocity=0 time=0
EXTRACT: note_on channel=5 note=69 velocity=0 time=0
EXTRACT: note_on channel=5 note=64 velocity=0 time=0.004716983333333332
EXTRACT: note_on channel=5 note=57 velocity=66 time=0.004716983333333332
EXTRACT: note_on channel=5 note=69 velocity=66 time=0.004716983333333332
EXTRACT: note_on channel=5 note=60 velocity=66 time=0
EXTRACT: note_on channel=1 note=33 velocity=0 time=0.004716983333333332
EXTRACT: note_on channel=5 note=52 velocity=66 time=0
EXTRACT: note_on channel=7 note=60 velocity=100 time=0
EXTRACT: note_on channel=8 note=60 velocity=100 time=0
EXTRACT: note_on channel=5 note=45 velocity=0 time=0.004716983333333332
EXTRACT: note_on channel=5 note=45 velocity=67 time=0
EXTRACT: note_on channel=5 note=64 velocity=66 time=0
EXTRACT: note_on channel=1 note=33 velocity=56 time=0.004716983333333332
EXTRACT: note_on channel=9 note=42 velocity=84 time=0
EXTRACT: note_on channel=9 note=75 velocity=65 time=0
EXTRACT: note_on channel=9 note=27 velocity=90 time=0
EXTRACT: note_on channel=7 note=62 velocity=0 time=0.004716983333333332
EXTRACT: note_on channel=8 note=62 velocity=0 time=0
EXTRACT: note_on channel=9 note=27 velocity=0 time=0.08490569999999999
EXTRACT: note_on channel=9 note=75 velocity=0 time=0.01886793333333333
EXTRACT: note_on channel=9 note=42 velocity=0 time=0.004716983333333332
EXTRACT: note_on channel=0 note=57 velocity=0 time=0.1462264833333333
EXTRACT: note_on channel=0 note=64 velocity=0 time=0
EXTRACT: note_on channel=0 note=64 velocity=0 time=0
EXTRACT: note_on channel=0 note=45 velocity=0 time=0
EXTRACT: note_on channel=0 note=60 velocity=0 time=0
EXTRACT: note_on channel=1 note=33 velocity=0 time=0
EXTRACT: note_on channel=6 note=60 velocity=0 time=0
EXTRACT: note_on channel=6 note=64 velocity=0 time=0
EXTRACT: note_on channel=6 note=69 velocity=0 time=0
EXTRACT: note_on channel=7 note=60 velocity=0 time=0.009433966666666665
EXTRACT: note_on channel=8 note=60 velocity=0 time=0
EXTRACT: note_on channel=5 note=45 velocity=0 time=0.004716983333333332
EXTRACT: note_on channel=5 note=52 velocity=0 time=0.004716983333333332
EXTRACT: note_on channel=9 note=35 velocity=90 time=0.004716983333333332
EXTRACT: note_on channel=9 note=75 velocity=61 time=0
EXTRACT: note_on channel=1 note=28 velocity=75 time=0.004716983333333332
EXTRACT: note_on channel=6 note=67 velocity=52 time=0
EXTRACT: note_on channel=9 note=42 velocity=90 time=0
EXTRACT: note_on channel=0 note=67 velocity=47 time=0.004716983333333332
EXTRACT: note_on channel=0 note=40 velocity=47 time=0
EXTRACT: note_on channel=5 note=52 velocity=66 time=0
EXTRACT: note_on channel=7 note=62 velocity=100 time=0
EXTRACT: note_on channel=8 note=62 velocity=100 time=0
EXTRACT: note_on channel=0 note=64 velocity=45 time=0.004716983333333332
EXTRACT: note_on channel=0 note=59 velocity=45 time=0
EXTRACT: note_on channel=0 note=55 velocity=45 time=0
EXTRACT: note_on channel=6 note=64 velocity=50 time=0
EXTRACT: note_on channel=9 note=35 velocity=0 time=0.01886793333333333
EXTRACT: note_on channel=9 note=42 velocity=0 time=0.004716983333333332
EXTRACT: note_on channel=9 note=75 velocity=0 time=0.04716983333333333
EXTRACT: note_on channel=9 note=42 velocity=73 time=0.19811329999999996
EXTRACT: note_on channel=5 note=52 velocity=0 time=0.004716983333333332
EXTRACT: note_on channel=5 note=52 velocity=66 time=0
EXTRACT: note_on channel=7 note=62 velocity=0 time=0
EXTRACT: note_on channel=8 note=62 velocity=0 time=0
EXTRACT: note_on channel=7 note=60 velocity=100 time=0.014150949999999997
EXTRACT: note_on channel=8 note=60 velocity=100 time=0
EXTRACT: note_on channel=9 note=42 velocity=0 time=0.014150949999999997
EXTRACT: note_on channel=5 note=69 velocity=0 time=0.22641519999999996
EXTRACT: note_on channel=5 note=64 velocity=0 time=0.004716983333333332
EXTRACT: note_on channel=5 note=57 velocity=0 time=0
EXTRACT: note_on channel=5 note=60 velocity=0 time=0
EXTRACT: note_on channel=5 note=67 velocity=70 time=0.014150949999999997
EXTRACT: note_on channel=5 note=59 velocity=70 time=0
EXTRACT: note_on channel=5 note=52 velocity=0 time=0.004716983333333332
EXTRACT: note_on channel=5 note=64 velocity=70 time=0
EXTRACT: note_on channel=5 note=52 velocity=66 time=0
EXTRACT: note_on channel=6 note=71 velocity=52 time=0
EXTRACT: note_on channel=9 note=42 velocity=90 time=0
EXTRACT: note_on channel=9 note=27 velocity=90 time=0
EXTRACT: note_on channel=9 note=54 velocity=77 time=0
EXTRACT: note_on channel=9 note=75 velocity=71 time=0
EXTRACT: note_on channel=9 note=39 velocity=90 time=0
EXTRACT: note_on channel=5 note=71 velocity=66 time=0.004716983333333332
EXTRACT: note_on channel=7 note=60 velocity=0 time=0.009433966666666665
EXTRACT: note_on channel=8 note=60 velocity=0 time=0
EXTRACT: note_on channel=7 note=59 velocity=100 time=0.004716983333333332
EXTRACT: note_on channel=8 note=59 velocity=100 time=0
EXTRACT: note_on channel=9 note=39 velocity=0 time=0.014150949999999997
EXTRACT: note_on channel=9 note=54 velocity=0 time=0
EXTRACT: note_on channel=9 note=42 velocity=0 time=0
EXTRACT: note_on channel=9 note=27 velocity=0 time=0
EXTRACT: note_on channel=9 note=75 velocity=0 time=0
EXTRACT: note_on channel=1 note=28 velocity=0 time=0.1603774333333333
EXTRACT: note_on channel=5 note=52 velocity=0 time=0.08490569999999999
EXTRACT: note_on channel=5 note=52 velocity=66 time=0
EXTRACT: note_on channel=9 note=42 velocity=67 time=0.004716983333333332
EXTRACT: note_on channel=9 note=35 velocity=90 time=0
EXTRACT: note_on channel=9 note=27 velocity=90 time=0
EXTRACT: note_on channel=9 note=75 velocity=59 time=0
EXTRACT: note_on channel=1 note=28 velocity=75 time=0.004716983333333332
EXTRACT: note_on channel=9 note=75 velocity=0 time=0.028301899999999994
EXTRACT: note_on channel=9 note=42 velocity=0 time=0
EXTRACT: note_on channel=9 note=35 velocity=0 time=0
EXTRACT: note_on channel=9 note=27 velocity=0 time=0
EXTRACT: note_on channel=6 note=67 velocity=0 time=0.18396234999999997
EXTRACT: note_on channel=1 note=28 velocity=0 time=0.03773586666666666
EXTRACT: note_on channel=7 note=59 velocity=0 time=0.004716983333333332
EXTRACT: note_on channel=8 note=59 velocity=0 time=0
EXTRACT: note_on channel=5 note=52 velocity=0 time=0.014150949999999997
EXTRACT: note_on channel=1 note=28 velocity=71 time=0.009433966666666665
EXTRACT: note_on channel=5 note=52 velocity=66 time=0
EXTRACT: note_on channel=6 note=67 velocity=46 time=0
EXTRACT: note_on channel=9 note=27 velocity=90 time=0
EXTRACT: note_on channel=9 note=75 velocity=61 time=0
EXTRACT: note_on channel=9 note=42 velocity=90 time=0
EXTRACT: note_on channel=9 note=42 velocity=0 time=0.033018883333333325
EXTRACT: note_on channel=9 note=75 velocity=0 time=0
EXTRACT: note_on channel=9 note=27 velocity=0 time=0
EXTRACT: note_on channel=5 note=67 velocity=0 time=0.20754726666666662
EXTRACT: note_on channel=5 note=71 velocity=0 time=0.014150949999999997
EXTRACT: note_on channel=5 note=59 velocity=0 time=0
EXTRACT: note_on channel=5 note=71 velocity=45 time=0.014150949999999997
EXTRACT: note_on channel=5 note=64 velocity=0 time=0.004716983333333332
EXTRACT: note_on channel=5 note=67 velocity=77 time=0
EXTRACT: note_on channel=5 note=59 velocity=56 time=0
EXTRACT: note_on channel=5 note=52 velocity=0 time=0.004716983333333332
EXTRACT: note_on channel=5 note=52 velocity=66 time=0
EXTRACT: note_on channel=5 note=64 velocity=85 time=0
EXTRACT: note_on channel=1 note=28 velocity=0 time=0.004716983333333332
EXTRACT: note_on channel=9 note=42 velocity=90 time=0
EXTRACT: note_on channel=9 note=35 velocity=90 time=0
EXTRACT: note_on channel=1 note=28 velocity=81 time=0.004716983333333332
EXTRACT: note_on channel=9 note=35 velocity=0 time=0.028301899999999994
EXTRACT: note_on channel=9 note=42 velocity=0 time=0
EXTRACT: note_on channel=5 note=52 velocity=0 time=0.24056614999999995
EXTRACT: note_on channel=5 note=52 velocity=66 time=0.009433966666666665
EXTRACT: note_on channel=9 note=75 velocity=65 time=0
EXTRACT: note_on channel=9 note=39 velocity=90 time=0
EXTRACT: note_on channel=9 note=27 velocity=90 time=0
EXTRACT: note_on channel=9 note=42 velocity=90 time=0
EXTRACT: note_on channel=9 note=54 velocity=77 time=0
EXTRACT: note_on channel=9 note=54 velocity=0 time=0.033018883333333325
EXTRACT: note_on channel=9 note=27 velocity=0 time=0
EXTRACT: note_on channel=9 note=75 velocity=0 time=0
EXTRACT: note_on channel=9 note=39 velocity=0 time=0
EXTRACT: note_on channel=9 note=42 velocity=0 time=0
EXTRACT: note_on channel=1 note=28 velocity=0 time=0.12735855
EXTRACT: note_on channel=5 note=71 velocity=0 time=0.06603776666666665
EXTRACT: note_on channel=5 note=67 velocity=0 time=0.004716983333333332
EXTRACT: note_on channel=5 note=64 velocity=0 time=0.004716983333333332
EXTRACT: note_on channel=5 note=59 velocity=0 time=0.014150949999999997
EXTRACT: note_on channel=5 note=71 velocity=56 time=0.004716983333333332
EXTRACT: note_on channel=5 note=64 velocity=56 time=0
EXTRACT: note_on channel=5 note=67 velocity=56 time=0.004716983333333332
EXTRACT: note_on channel=5 note=59 velocity=56 time=0.004716983333333332
EXTRACT: note_on channel=5 note=52 velocity=0 time=0.014150949999999997
EXTRACT: note_on channel=1 note=28 velocity=75 time=0.004716983333333332
EXTRACT: note_on channel=9 note=75 velocity=65 time=0
EXTRACT: note_on channel=9 note=42 velocity=90 time=0
EXTRACT: note_on channel=9 note=27 velocity=90 time=0
EXTRACT: note_on channel=5 note=52 velocity=66 time=0.004716983333333332
EXTRACT: note_on channel=9 note=27 velocity=0 time=0.08490569999999999
EXTRACT: note_on channel=9 note=75 velocity=0 time=0.01886793333333333
EXTRACT: note_on channel=9 note=42 velocity=0 time=0.004716983333333332
EXTRACT: note_on channel=0 note=55 velocity=0 time=0.1462264833333333
EXTRACT: note_on channel=0 note=64 velocity=0 time=0
EXTRACT: note_on channel=0 note=67 velocity=0 time=0
EXTRACT: note_on channel=0 note=40 velocity=0 time=0
EXTRACT: note_on channel=0 note=59 velocity=0 time=0
EXTRACT: note_on channel=1 note=28 velocity=0 time=0
EXTRACT: note_on channel=6 note=67 velocity=0 time=0
EXTRACT: note_on channel=6 note=71 velocity=0 time=0
EXTRACT: note_on channel=6 note=64 velocity=0 time=0
EXTRACT: note_on channel=5 note=52 velocity=0 time=0.023584916666666664
EXTRACT: note_on channel=5 note=50 velocity=66 time=0
EXTRACT: note_on channel=9 note=35 velocity=90 time=0
EXTRACT: note_on channel=9 note=75 velocity=61 time=0
EXTRACT: note_on channel=7 note=62 velocity=100 time=0.004716983333333332
EXTRACT: note_on channel=8 note=62 velocity=100 time=0
EXTRACT: note_on channel=9 note=42 velocity=90 time=0
EXTRACT: note_on channel=0 note=69 velocity=47 time=0.004716983333333332
EXTRACT: note_on channel=0 note=50 velocity=47 time=0
EXTRACT: note_on channel=1 note=38 velocity=83 time=0
EXTRACT: note_on channel=0 note=62 velocity=45 time=0.004716983333333332
EXTRACT: note_on channel=0 note=57 velocity=45 time=0
EXTRACT: note_on channel=0 note=54 velocity=45 time=0
EXTRACT: note_on channel=6 note=74 velocity=52 time=0
EXTRACT: note_on channel=9 note=35 velocity=0 time=0.01886793333333333
EXTRACT: note_on channel=9 note=42 velocity=0 time=0.004716983333333332
EXTRACT: note_on channel=9 note=75 velocity=0 time=0.04716983333333333
EXTRACT: note_on channel=5 note=50 velocity=0 time=0.19339631666666662
EXTRACT: note_on channel=5 note=50 velocity=66 time=0
EXTRACT: note_on channel=7 note=62 velocity=0 time=0.004716983333333332
EXTRACT: note_on channel=7 note=62 velocity=100 time=0
EXTRACT: note_on channel=8 note=62 velocity=0 time=0
EXTRACT: note_on channel=8 note=62 velocity=100 time=0
EXTRACT: note_on channel=9 note=42 velocity=73 time=0
EXTRACT: note_on channel=9 note=42 velocity=0 time=0.033018883333333325
EXTRACT: note_on channel=5 note=50 velocity=0 time=0.24056614999999995
EXTRACT: note_on channel=5 note=59 velocity=0 time=0
EXTRACT: note_on channel=5 note=71 velocity=0 time=0
EXTRACT: note_on channel=5 note=67 velocity=0 time=0
EXTRACT: note_on channel=5 note=64 velocity=0 time=0.004716983333333332
EXTRACT: note_on channel=7 note=62 velocity=0 time=0
EXTRACT: note_on channel=8 note=62 velocity=0 time=0
EXTRACT: note_on channel=5 note=50 velocity=66 time=0.004716983333333332
EXTRACT: note_on channel=5 note=69 velocity=66 time=0
EXTRACT: note_on channel=5 note=66 velocity=67 time=0
EXTRACT: note_on channel=6 note=69 velocity=46 time=0
EXTRACT: note_on channel=9 note=27 velocity=90 time=0
EXTRACT: note_on channel=9 note=54 velocity=77 time=0
EXTRACT: note_on channel=9 note=42 velocity=90 time=0
EXTRACT: note_on channel=9 note=39 velocity=90 time=0
EXTRACT: note_on channel=9 note=75 velocity=71 time=0
EXTRACT: note_on channel=5 note=62 velocity=67 time=0.004716983333333332
EXTRACT: note_on channel=5 note=57 velocity=70 time=0
EXTRACT: note_on channel=7 note=62 velocity=100 time=0.009433966666666665
EXTRACT: note_on channel=8 note=62 velocity=100 time=0
EXTRACT: note_on channel=9 note=75 velocity=0 time=0.01886793333333333
EXTRACT: note_on channel=9 note=42 velocity=0 time=0
EXTRACT: note_on channel=9 note=27 velocity=0 time=0
EXTRACT: note_on channel=9 note=54 velocity=0 time=0
EXTRACT: note_on channel=9 note=39 velocity=0 time=0
EXTRACT: note_on channel=1 note=38 velocity=0 time=0.22169821666666661
EXTRACT: note_on channel=5 note=50 velocity=0 time=0.023584916666666664
EXTRACT: note_on channel=5 note=50 velocity=66 time=0
EXTRACT: note_on channel=9 note=75 velocity=59 time=0.004716983333333332
EXTRACT: note_on channel=9 note=27 velocity=90 time=0
EXTRACT: note_on channel=9 note=35 velocity=90 time=0
EXTRACT: note_on channel=9 note=42 velocity=67 time=0
EXTRACT: note_on channel=0 note=74 velocity=58 time=0.009433966666666665
EXTRACT: note_on channel=1 note=38 velocity=54 time=0
EXTRACT: note_on channel=7 note=62 velocity=0 time=0
EXTRACT: note_on channel=7 note=62 velocity=100 time=0
EXTRACT: note_on channel=8 note=62 velocity=0 time=0
EXTRACT: note_on channel=8 note=62 velocity=100 time=0
EXTRACT: note_on channel=9 note=42 velocity=0 time=0.023584916666666664
EXTRACT: note_on channel=9 note=75 velocity=0 time=0
EXTRACT: note_on channel=9 note=27 velocity=0 time=0
EXTRACT: note_on channel=9 note=35 velocity=0 time=0
EXTRACT: note_on channel=1 note=38 velocity=0 time=0.24056614999999995
EXTRACT: note_on channel=5 note=50 velocity=0 time=0
EXTRACT: note_on channel=5 note=50 velocity=66 time=0.009433966666666665
EXTRACT: note_on channel=6 note=66 velocity=50 time=0
EXTRACT: note_on channel=9 note=27 velocity=90 time=0
EXTRACT: note_on channel=9 note=42 velocity=90 time=0
EXTRACT: note_on channel=9 note=75 velocity=61 time=0
EXTRACT: note_on channel=7 note=62 velocity=0 time=0.004716983333333332
EXTRACT: note_on channel=7 note=64 velocity=100 time=0
EXTRACT: note_on channel=8 note=62 velocity=0 time=0
EXTRACT: note_on channel=8 note=64 velocity=100 time=0
EXTRACT: note_on channel=1 note=38 velocity=68 time=0.004716983333333332
EXTRACT: note_on channel=9 note=75 velocity=0 time=0.023584916666666664
EXTRACT: note_on channel=9 note=42 velocity=0 time=0
EXTRACT: note_on channel=9 note=27 velocity=0 time=0
EXTRACT: note_on channel=5 note=57 velocity=0 time=0.22641519999999996
EXTRACT: note_on channel=5 note=69 velocity=0 time=0
EXTRACT: note_on channel=5 note=62 velocity=0 time=0.009433966666666665
EXTRACT: note_on channel=5 note=66 velocity=0 time=0.004716983333333332
EXTRACT: note_on channel=5 note=50 velocity=0 time=0.004716983333333332
EXTRACT: note_on channel=5 note=57 velocity=66 time=0
EXTRACT: note_on channel=5 note=62 velocity=66 time=0
EXTRACT: note_on channel=5 note=69 velocity=66 time=0
EXTRACT: note_on channel=5 note=50 velocity=66 time=0
EXTRACT: note_on channel=9 note=35 velocity=90 time=0.004716983333333332
EXTRACT: note_on channel=9 note=42 velocity=90 time=0
EXTRACT: note_on channel=5 note=66 velocity=66 time=0.004716983333333332
EXTRACT: note_on channel=9 note=42 velocity=0 time=0.028301899999999994
EXTRACT: note_on channel=9 note=35 velocity=0 time=0
EXTRACT: note_on channel=7 note=64 velocity=0 time=0.21226424999999996
EXTRACT: note_on channel=8 note=64 velocity=0 time=0
EXTRACT: note_on channel=5 note=50 velocity=0 time=0.028301899999999994
EXTRACT: note_on channel=5 note=50 velocity=66 time=0.004716983333333332
EXTRACT: note_on channel=7 note=60 velocity=100 time=0.004716983333333332
EXTRACT: note_on channel=8 note=60 velocity=100 time=0
EXTRACT: note_on channel=9 note=39 velocity=90 time=0
EXTRACT: note_on channel=9 note=42 velocity=90 time=0
EXTRACT: note_on channel=9 note=75 velocity=65 time=0
EXTRACT: note_on channel=9 note=27 velocity=90 time=0
EXTRACT: note_on channel=9 note=54 velocity=77 time=0
EXTRACT: note_on channel=9 note=54 velocity=0 time=0.033018883333333325
EXTRACT: note_on channel=9 note=75 velocity=0 time=0
EXTRACT: note_on channel=9 note=39 velocity=0 time=0
EXTRACT: note_on channel=9 note=42 velocity=0 time=0
EXTRACT: note_on channel=9 note=27 velocity=0 time=0
EXTRACT: note_on channel=0 note=50 velocity=0 time=0.1462264833333333
EXTRACT: note_on channel=5 note=66 velocity=0 time=0.08018871666666665
EXTRACT: note_on channel=5 note=69 velocity=0 time=0.004716983333333332
EXTRACT: note_on channel=0 note=74 velocity=0 time=0.009433966666666665
EXTRACT: note_on channel=1 note=38 velocity=0 time=0
EXTRACT: note_on channel=5 note=57 velocity=0 time=0
EXTRACT: note_on channel=5 note=62 velocity=0 time=0
EXTRACT: note_on channel=5 note=50 velocity=0 time=0
EXTRACT: note_on channel=5 note=50 velocity=66 time=0.004716983333333332
EXTRACT: note_on channel=5 note=57 velocity=66 time=0
EXTRACT: note_on channel=7 note=60 velocity=0 time=0
EXTRACT: note_on channel=8 note=60 velocity=0 time=0
EXTRACT: note_on channel=0 note=50 velocity=52 time=0.004716983333333332
EXTRACT: note_on channel=1 note=38 velocity=56 time=0
EXTRACT: note_on channel=9 note=27 velocity=90 time=0
EXTRACT: note_on channel=9 note=75 velocity=65 time=0
EXTRACT: note_on channel=9 note=42 velocity=90 time=0
EXTRACT: note_on channel=5 note=62 velocity=66 time=0.004716983333333332
EXTRACT: note_on channel=5 note=69 velocity=66 time=0.004716983333333332
EXTRACT: note_on channel=5 note=66 velocity=66 time=0
EXTRACT: note_on channel=7 note=59 velocity=100 time=0
EXTRACT: note_on channel=8 note=59 velocity=100 time=0
EXTRACT: note_on channel=0 note=57 velocity=0 time=0.004716983333333332
EXTRACT: note_on channel=0 note=54 velocity=0 time=0
EXTRACT: note_on channel=0 note=62 velocity=0 time=0
EXTRACT: note_on channel=0 note=69 velocity=0 time=0.04245284999999999
EXTRACT: note_on channel=9 note=27 velocity=0 time=0.033018883333333325
EXTRACT: note_on channel=9 note=75 velocity=0 time=0.01886793333333333
EXTRACT: note_on channel=9 note=42 velocity=0 time=0.004716983333333332
EXTRACT: note_on channel=0 note=50 velocity=0 time=0.08018871666666665
EXTRACT: note_on channel=1 note=38 velocity=0 time=0.06603776666666665
EXTRACT: note_on channel=6 note=66 velocity=0 time=0
EXTRACT: note_on channel=6 note=69 velocity=0 time=0
EXTRACT: note_on channel=6 note=74 velocity=0 time=0
EXTRACT: note_on channel=5 note=50 velocity=0 time=0.014150949999999997
EXTRACT: note_on channel=9 note=35 velocity=90 time=0.009433966666666665
EXTRACT: note_on channel=9 note=75 velocity=61 time=0
EXTRACT: note_on channel=5 note=45 velocity=67 time=0.004716983333333332
EXTRACT: note_on channel=6 note=64 velocity=52 time=0
EXTRACT: note_on channel=7 note=59 velocity=0 time=0
EXTRACT: note_on channel=7 note=60 velocity=100 time=0
EXTRACT: note_on channel=8 note=59 velocity=0 time=0
EXTRACT: note_on channel=8 note=60 velocity=100 time=0
EXTRACT: note_on channel=9 note=42 velocity=90 time=0
EXTRACT: note_on channel=0 note=64 velocity=47 time=0.004716983333333332
EXTRACT: note_on channel=0 note=45 velocity=47 time=0
EXTRACT: note_on channel=1 note=33 velocity=83 time=0
EXTRACT: note_on channel=0 note=64 velocity=45 time=0.004716983333333332
EXTRACT: note_on channel=0 note=60 velocity=45 time=0
EXTRACT: note_on channel=0 note=57 velocity=45 time=0
EXTRACT: note_on channel=6 note=69 velocity=52 time=0
EXTRACT: note_on channel=6 note=60 velocity=50 time=0
EXTRACT: note_on channel=9 note=35 velocity=0 time=0.01886793333333333
EXTRACT: note_on channel=9 note=42 velocity=0 time=0.004716983333333332
EXTRACT: note_on channel=9 note=75 velocity=0 time=0.04716983333333333
EXTRACT: note_on channel=7 note=60 velocity=0 time=0.19811329999999996
EXTRACT: note_on channel=7 note=59 velocity=100 time=0
EXTRACT: note_on channel=8 note=60 velocity=0 time=0
EXTRACT: note_on channel=8 note=59 velocity=100 time=0
EXTRACT: note_on channel=9 note=42 velocity=73 time=0
EXTRACT: note_on channel=5 note=45 velocity=0 time=0.009433966666666665
EXTRACT: note_on channel=5 note=45 velocity=67 time=0.004716983333333332
EXTRACT: note_on channel=9 note=42 velocity=0 time=0.01886793333333333
EXTRACT: note_on channel=9 note=42 velocity=55 time=0.10849061666666665
EXTRACT: note_on channel=9 note=42 velocity=0 time=0.01886793333333333
EXTRACT: note_on channel=5 note=66 velocity=0 time=0.10849061666666665
EXTRACT: note_on channel=5 note=69 velocity=0 time=0
EXTRACT: note_on channel=5 note=57 velocity=0 time=0
EXTRACT: note_on channel=5 note=45 velocity=0 time=0.004716983333333332
EXTRACT: note_on channel=5 note=62 velocity=0 time=0.004716983333333332
EXTRACT: note_on channel=7 note=59 velocity=0 time=0
EXTRACT: note_on channel=8 note=59 velocity=0 time=0
EXTRACT: note_on channel=5 note=52 velocity=34 time=0.004716983333333332
EXTRACT: note_on channel=9 note=75 velocity=71 time=0
EXTRACT: note_on channel=9 note=54 velocity=77 time=0
EXTRACT: note_on channel=9 note=39 velocity=90 time=0
EXTRACT: note_on channel=9 note=27 velocity=90 time=0
EXTRACT: note_on channel=9 note=42 velocity=90 time=0
EXTRACT: note_on channel=5 note=45 velocity=67 time=0.004716983333333332
EXTRACT: note_on channel=5 note=69 velocity=66 time=0
EXTRACT: note_on channel=5 note=64 velocity=67 time=0
EXTRACT: note_on channel=5 note=60 velocity=67 time=0
EXTRACT: note_on channel=5 note=57 velocity=70 time=0
EXTRACT: note_on channel=7 note=57 velocity=100 time=0
EXTRACT: note_on channel=8 note=57 velocity=100 time=0
EXTRACT: note_on channel=9 note=42 velocity=0 time=0.028301899999999994
EXTRACT: note_on channel=9 note=39 velocity=0 time=0
EXTRACT: note_on channel=9 note=75 velocity=0 time=0
EXTRACT: note_on channel=9 note=54 velocity=0 time=0
EXTRACT: note_on channel=9 note=27 velocity=0 time=0
EXTRACT: note_on channel=1 note=33 velocity=0 time=0.22169821666666661
EXTRACT: note_on channel=5 note=45 velocity=0 time=0.009433966666666665
EXTRACT: note_on channel=5 note=45 velocity=67 time=0.014150949999999997
EXTRACT: note_on channel=9 note=42 velocity=67 time=0.004716983333333332
EXTRACT: note_on channel=9 note=75 velocity=59 time=0
EXTRACT: note_on channel=9 note=39 velocity=100 time=0
EXTRACT: note_on channel=9 note=27 velocity=90 time=0
EXTRACT: note_on channel=0 note=69 velocity=58 time=0.009433966666666665
EXTRACT: note_on channel=1 note=33 velocity=54 time=0
EXTRACT: note_on channel=7 note=57 velocity=0 time=0.004716983333333332
EXTRACT: note_on channel=8 note=57 velocity=0 time=0
EXTRACT: note_on channel=7 note=57 velocity=100 time=0.009433966666666665
EXTRACT: note_on channel=8 note=57 velocity=100 time=0
EXTRACT: note_on channel=9 note=27 velocity=0 time=0.009433966666666665
EXTRACT: note_on channel=9 note=42 velocity=0 time=0
EXTRACT: note_on channel=9 note=75 velocity=0 time=0
EXTRACT: note_on channel=9 note=39 velocity=0 time=0
EXTRACT: note_on channel=5 note=45 velocity=0 time=0.22169821666666661
EXTRACT: note_on channel=1 note=33 velocity=0 time=0.01886793333333333
EXTRACT: note_on channel=7 note=57 velocity=0 time=0.009433966666666665
EXTRACT: note_on channel=7 note=60 velocity=100 time=0
EXTRACT: note_on channel=8 note=57 velocity=0 time=0
EXTRACT: note_on channel=8 note=60 velocity=100 time=0
EXTRACT: note_on channel=9 note=27 velocity=90 time=0
EXTRACT: note_on channel=9 note=75 velocity=61 time=0
EXTRACT: note_on channel=9 note=42 velocity=90 time=0
EXTRACT: note_on channel=5 note=45 velocity=67 time=0.004716983333333332
EXTRACT: note_on channel=1 note=33 velocity=68 time=0.004716983333333332
EXTRACT: note_on channel=9 note=42 velocity=0 time=0.023584916666666664
EXTRACT: note_on channel=9 note=75 velocity=0 time=0
EXTRACT: note_on channel=9 note=27 velocity=0 time=0
EXTRACT: note_on channel=5 note=69 velocity=0 time=0.19811329999999996
EXTRACT: note_on channel=5 note=64 velocity=0 time=0
EXTRACT: note_on channel=5 note=60 velocity=0 time=0.004716983333333332
EXTRACT: note_on channel=5 note=52 velocity=0 time=0
EXTRACT: note_on channel=5 note=57 velocity=0 time=0
EXTRACT: note_on channel=5 note=52 velocity=66 time=0.014150949999999997
EXTRACT: note_on channel=5 note=57 velocity=66 time=0
EXTRACT: note_on channel=5 note=60 velocity=66 time=0
EXTRACT: note_on channel=5 note=69 velocity=66 time=0
EXTRACT: note_on channel=5 note=64 velocity=66 time=0.004716983333333332
EXTRACT: note_on channel=5 note=45 velocity=0 time=0.009433966666666665
EXTRACT: note_on channel=5 note=45 velocity=67 time=0.004716983333333332
EXTRACT: note_on channel=9 note=35 velocity=90 time=0.014150949999999997
EXTRACT: note_on channel=9 note=42 velocity=90 time=0
EXTRACT: note_on channel=7 note=59 velocity=100 time=0.004716983333333332
EXTRACT: note_on channel=8 note=59 velocity=100 time=0
EXTRACT: note_on channel=7 note=60 velocity=0 time=0.004716983333333332
EXTRACT: note_on channel=8 note=60 velocity=0 time=0
EXTRACT: note_on channel=9 note=42 velocity=0 time=0.009433966666666665
EXTRACT: note_on channel=9 note=35 velocity=0 time=0
EXTRACT: note_on channel=9 note=39 velocity=67 time=0.12264156666666665
EXTRACT: note_on channel=9 note=39 velocity=0 time=0.01886793333333333
EXTRACT: note_on channel=5 note=45 velocity=0 time=0.08490569999999999
EXTRACT: note_on channel=1 note=33 velocity=0 time=0.033018883333333325
EXTRACT: note_on channel=1 note=33 velocity=70 time=0.004716983333333332
EXTRACT: note_on channel=9 note=75 velocity=65 time=0
EXTRACT: note_on channel=9 note=42 velocity=90 time=0
EXTRACT: note_on channel=9 note=39 velocity=110 time=0
EXTRACT: note_on channel=9 note=54 velocity=77 time=0
EXTRACT: note_on channel=9 note=27 velocity=90 time=0
EXTRACT: note_on channel=5 note=45 velocity=67 time=0.004716983333333332
EXTRACT: note_on channel=7 note=57 velocity=100 time=0.004716983333333332
EXTRACT: note_on channel=8 note=57 velocity=100 time=0
EXTRACT: note_on channel=7 note=59 velocity=0 time=0.004716983333333332
EXTRACT: note_on channel=8 note=59 velocity=0 time=0
EXTRACT: note_on channel=9 note=27 velocity=0 time=0.004716983333333332
EXTRACT: note_on channel=9 note=39 velocity=0 time=0
EXTRACT: note_on channel=9 note=75 velocity=0 time=0
EXTRACT: note_on channel=9 note=42 velocity=0 time=0
EXTRACT: note_on channel=9 note=54 velocity=0 time=0
EXTRACT: note_on channel=9 note=39 velocity=75 time=0.12264156666666665
EXTRACT: note_on channel=9 note=39 velocity=0 time=0.01886793333333333
EXTRACT: note_on channel=0 note=45 velocity=0 time=0.01886793333333333
EXTRACT: note_on channel=5 note=57 velocity=0 time=0.08018871666666665
EXTRACT: note_on channel=5 note=52 velocity=0 time=0
EXTRACT: note_on channel=5 note=60 velocity=0 time=0
EXTRACT: note_on channel=5 note=69 velocity=0 time=0
EXTRACT: note_on channel=5 note=64 velocity=0 time=0.004716983333333332
EXTRACT: note_on channel=5 note=57 velocity=66 time=0.004716983333333332
EXTRACT: note_on channel=0 note=69 velocity=0 time=0.004716983333333332
EXTRACT: note_on channel=5 note=69 velocity=66 time=0
EXTRACT: note_on channel=5 note=60 velocity=66 time=0
EXTRACT: note_on channel=1 note=33 velocity=0 time=0.004716983333333332
EXTRACT: note_on channel=5 note=52 velocity=66 time=0
EXTRACT: note_on channel=0 note=45 velocity=52 time=0.004716983333333332
EXTRACT: note_on channel=1 note=33 velocity=56 time=0
EXTRACT: note_on channel=5 note=45 velocity=0 time=0
EXTRACT: note_on channel=5 note=45 velocity=67 time=0
EXTRACT: note_on channel=5 note=64 velocity=66 time=0
EXTRACT: note_on channel=9 note=39 velocity=93 time=0
EXTRACT: note_on channel=9 note=75 velocity=65 time=0
EXTRACT: note_on channel=9 note=27 velocity=90 time=0
EXTRACT: note_on channel=9 note=42 velocity=90 time=0
EXTRACT: note_on channel=0 note=60 velocity=0 time=0.014150949999999997
EXTRACT: note_on channel=0 note=57 velocity=0 time=0
EXTRACT: note_on channel=0 note=64 velocity=0 time=0
EXTRACT: note_on channel=7 note=57 velocity=0 time=0.004716983333333332
EXTRACT: note_on channel=8 note=57 velocity=0 time=0
EXTRACT: note_on channel=9 note=42 velocity=0 time=0
EXTRACT: note_on channel=9 note=39 velocity=0 time=0
EXTRACT: note_on channel=9 note=75 velocity=0 time=0
EXTRACT: note_on channel=9 note=27 velocity=0 time=0
EXTRACT: note_on channel=0 note=64 velocity=0 time=0.03773586666666666
EXTRACT: note_on channel=9 note=39 velocity=67 time=0.08490569999999999
EXTRACT: note_on channel=0 note=45 velocity=0 time=0.051886816666666655
EXTRACT: note_on channel=9 note=39 velocity=0 time=0.028301899999999994
EXTRACT: note_on channel=1 note=33 velocity=0 time=0.03773586666666666
EXTRACT: note_on channel=6 note=60 velocity=0 time=0
EXTRACT: note_on channel=6 note=69 velocity=0 time=0
EXTRACT: note_on channel=6 note=64 velocity=0 time=0
EXTRACT: note_on channel=5 note=45 velocity=0 time=0.01886793333333333
EXTRACT: note_on channel=5 note=45 velocity=67 time=0.004716983333333332
EXTRACT: note_on channel=9 note=42 velocity=90 time=0
EXTRACT: note_on channel=9 note=35 velocity=90 time=0
EXTRACT: note_on channel=1 note=33 velocity=75 time=0.004716983333333332
EXTRACT: note_on channel=9 note=75 velocity=61 time=0
EXTRACT: note_on channel=0 note=69 velocity=47 time=0.004716983333333332
EXTRACT: note_on channel=0 note=45 velocity=47 time=0
EXTRACT: note_on channel=7 note=57 velocity=100 time=0
EXTRACT: note_on channel=8 note=57 velocity=100 time=0
EXTRACT: note_on channel=0 note=64 velocity=45 time=0.004716983333333332
EXTRACT: note_on channel=0 note=60 velocity=45 time=0
EXTRACT: note_on channel=0 note=57 velocity=45 time=0
EXTRACT: note_on channel=6 note=69 velocity=52 time=0
EXTRACT: note_on channel=9 note=35 velocity=0 time=0.01886793333333333
EXTRACT: note_on channel=9 note=42 velocity=0 time=0
EXTRACT: note_on channel=9 note=75 velocity=0 time=0.004716983333333332
EXTRACT: note_on channel=9 note=42 velocity=75 time=0.2452831333333333
EXTRACT: note_on channel=5 note=45 velocity=0 time=0.004716983333333332
EXTRACT: note_on channel=5 note=45 velocity=67 time=0.004716983333333332
EXTRACT: note_on channel=7 note=59 velocity=100 time=0
EXTRACT: note_on channel=8 note=59 velocity=100 time=0
EXTRACT: note_on channel=7 note=57 velocity=0 time=0.009433966666666665
EXTRACT: note_on channel=8 note=57 velocity=0 time=0
EXTRACT: note_on channel=9 note=42 velocity=0 time=0.014150949999999997
EXTRACT: note_on channel=5 note=45 velocity=0 time=0.2358491666666666
EXTRACT: note_on channel=5 note=57 velocity=0 time=0
EXTRACT: note_on channel=5 note=64 velocity=0 time=0
EXTRACT: note_on channel=5 note=69 velocity=0 time=0.004716983333333332
EXTRACT: note_on channel=5 note=52 velocity=0 time=0
EXTRACT: note_on channel=5 note=52 velocity=34 time=0.004716983333333332
EXTRACT: note_on channel=5 note=60 velocity=0 time=0.004716983333333332
EXTRACT: note_on channel=5 note=45 velocity=67 time=0
EXTRACT: note_on channel=5 note=69 velocity=66 time=0
EXTRACT: note_on channel=5 note=64 velocity=67 time=0
EXTRACT: note_on channel=5 note=60 velocity=67 time=0
EXTRACT: note_on channel=5 note=57 velocity=70 time=0
EXTRACT: note_on channel=6 note=64 velocity=46 time=0
EXTRACT: note_on channel=7 note=60 velocity=100 time=0
EXTRACT: note_on channel=8 note=60 velocity=100 time=0
EXTRACT: note_on channel=9 note=54 velocity=77 time=0
EXTRACT: note_on channel=9 note=75 velocity=71 time=0
EXTRACT: note_on channel=9 note=42 velocity=90 time=0
EXTRACT: note_on channel=9 note=39 velocity=90 time=0
EXTRACT: note_on channel=9 note=27 velocity=90 time=0
EXTRACT: note_on channel=7 note=59 velocity=0 time=0.01886793333333333
EXTRACT: note_on channel=8 note=59 velocity=0 time=0
EXTRACT: note_on channel=9 note=27 velocity=0 time=0.014150949999999997
EXTRACT: note_on channel=9 note=42 velocity=0 time=0
EXTRACT: note_on channel=9 note=54 velocity=0 time=0
EXTRACT: note_on channel=9 note=75 velocity=0 time=0
EXTRACT: note_on channel=9 note=39 velocity=0 time=0
EXTRACT: note_on channel=1 note=33 velocity=0 time=0.16509441666666663
EXTRACT: note_on channel=5 note=45 velocity=0 time=0.06132078333333332
EXTRACT: note_on channel=5 note=45 velocity=67 time=0.014150949999999997
EXTRACT: note_on channel=9 note=75 velocity=59 time=0.009433966666666665
EXTRACT: note_on channel=9 note=42 velocity=90 time=0
EXTRACT: note_on channel=9 note=35 velocity=90 time=0
EXTRACT: note_on channel=9 note=27 velocity=90 time=0
EXTRACT: note_on channel=1 note=33 velocity=75 time=0.004716983333333332
EXTRACT: note_on channel=7 note=62 velocity=100 time=0
EXTRACT: note_on channel=8 note=62 velocity=100 time=0
EXTRACT: note_on channel=0 note=64 velocity=58 time=0.004716983333333332
EXTRACT: note_on channel=7 note=60 velocity=0 time=0
EXTRACT: note_on channel=8 note=60 velocity=0 time=0
EXTRACT: note_on channel=9 note=27 velocity=0 time=0.023584916666666664
EXTRACT: note_on channel=9 note=75 velocity=0 time=0
EXTRACT: note_on channel=9 note=42 velocity=0 time=0
EXTRACT: note_on channel=9 note=35 velocity=0 time=0
EXTRACT: note_on channel=5 note=45 velocity=0 time=0.2169812333333333
EXTRACT: note_on channel=5 note=45 velocity=67 time=0.033018883333333325
EXTRACT: note_on channel=6 note=60 velocity=50 time=0
EXTRACT: note_on channel=7 note=64 velocity=100 time=0
EXTRACT: note_on channel=8 note=64 velocity=100 time=0
EXTRACT: note_on channel=9 note=42 velocity=90 time=0
EXTRACT: note_on channel=9 note=27 velocity=90 time=0
EXTRACT: note_on channel=7 note=62 velocity=0 time=0.014150949999999997
EXTRACT: note_on channel=8 note=62 velocity=0 time=0
EXTRACT: note_on channel=9 note=27 velocity=0 time=0.01886793333333333
EXTRACT: note_on channel=9 note=42 velocity=0 time=0
EXTRACT: note_on channel=5 note=57 velocity=0 time=0.18396234999999997
EXTRACT: note_on channel=5 note=52 velocity=0 time=0
EXTRACT: note_on channel=5 note=69 velocity=0 time=0
EXTRACT: note_on channel=5 note=60 velocity=0 time=0.009433966666666665
EXTRACT: note_on channel=5 note=64 velocity=0 time=0.004716983333333332
EXTRACT: note_on channel=5 note=52 velocity=66 time=0.014150949999999997
EXTRACT: note_on channel=5 note=57 velocity=66 time=0
EXTRACT: note_on channel=5 note=60 velocity=66 time=0
EXTRACT: note_on channel=5 note=69 velocity=66 time=0
EXTRACT: note_on channel=5 note=64 velocity=66 time=0.004716983333333332
EXTRACT: note_on channel=5 note=45 velocity=0 time=0.009433966666666665
EXTRACT: note_on channel=5 note=45 velocity=67 time=0.004716983333333332
EXTRACT: note_on channel=9 note=35 velocity=90 time=0.01886793333333333
EXTRACT: note_on channel=9 note=42 velocity=69 time=0
EXTRACT: note_on channel=9 note=75 velocity=61 time=0
EXTRACT: note_on channel=9 note=35 velocity=0 time=0.033018883333333325
EXTRACT: note_on channel=9 note=42 velocity=0 time=0.03773586666666666
EXTRACT: note_on channel=9 note=75 velocity=0 time=0.06132078333333332
EXTRACT: note_on channel=9 note=42 velocity=48 time=0.009433966666666665
EXTRACT: note_on channel=9 note=42 velocity=0 time=0.01886793333333333
EXTRACT: note_on channel=5 note=45 velocity=0 time=0.08018871666666665
EXTRACT: note_on channel=5 note=45 velocity=67 time=0.04245284999999999
EXTRACT: note_on channel=7 note=64 velocity=0 time=0
EXTRACT: note_on channel=8 note=64 velocity=0 time=0
EXTRACT: note_on channel=9 note=27 velocity=90 time=0
EXTRACT: note_on channel=9 note=42 velocity=90 time=0
EXTRACT: note_on channel=9 note=39 velocity=90 time=0
EXTRACT: note_on channel=9 note=75 velocity=65 time=0
EXTRACT: note_on channel=9 note=54 velocity=77 time=0
EXTRACT: note_on channel=7 note=62 velocity=100 time=0.009433966666666665
EXTRACT: note_on channel=8 note=62 velocity=100 time=0
EXTRACT: note_on channel=9 note=54 velocity=0 time=0.023584916666666664
EXTRACT: note_on channel=9 note=39 velocity=0 time=0
EXTRACT: note_on channel=9 note=27 velocity=0 time=0
EXTRACT: note_on channel=9 note=42 velocity=0 time=0
EXTRACT: note_on channel=9 note=75 velocity=0 time=0
EXTRACT: note_on channel=0 note=45 velocity=0 time=0.14150949999999998
EXTRACT: note_on channel=1 note=33 velocity=0 time=0.009433966666666665
EXTRACT: note_on channel=5 note=57 velocity=0 time=0.07075474999999999
EXTRACT: note_on channel=5 note=52 velocity=0 time=0
EXTRACT: note_on channel=5 note=60 velocity=0 time=0
EXTRACT: note_on channel=5 note=69 velocity=0 time=0
EXTRACT: note_on channel=5 note=64 velocity=0 time=0.004716983333333332
EXTRACT: note_on channel=0 note=57 velocity=0 time=0.004716983333333332
EXTRACT: note_on channel=0 note=60 velocity=0 time=0
EXTRACT: note_on channel=0 note=64 velocity=0 time=0
EXTRACT: note_on channel=5 note=57 velocity=66 time=0
EXTRACT: note_on channel=5 note=69 velocity=66 time=0.004716983333333332
EXTRACT: note_on channel=5 note=60 velocity=66 time=0
EXTRACT: note_on channel=0 note=64 velocity=0 time=0.004716983333333332
EXTRACT: note_on channel=5 note=52 velocity=66 time=0
EXTRACT: note_on channel=5 note=45 velocity=0 time=0.004716983333333332
EXTRACT: note_on channel=5 note=45 velocity=67 time=0
EXTRACT: note_on channel=5 note=64 velocity=66 time=0
EXTRACT: note_on channel=0 note=45 velocity=52 time=0.004716983333333332
EXTRACT: note_on channel=1 note=33 velocity=60 time=0
EXTRACT: note_on channel=9 note=42 velocity=90 time=0
EXTRACT: note_on channel=9 note=27 velocity=90 time=0
EXTRACT: note_on channel=9 note=75 velocity=65 time=0
EXTRACT: note_on channel=7 note=60 velocity=100 time=0.009433966666666665
EXTRACT: note_on channel=8 note=60 velocity=100 time=0
EXTRACT: note_on channel=7 note=62 velocity=0 time=0.009433966666666665
EXTRACT: note_on channel=8 note=62 velocity=0 time=0
EXTRACT: note_on channel=9 note=27 velocity=0 time=0.07075474999999999
EXTRACT: note_on channel=9 note=75 velocity=0 time=0.01886793333333333
EXTRACT: note_on channel=9 note=42 velocity=0 time=0.004716983333333332
EXTRACT: note_on channel=0 note=69 velocity=0 time=0.04716983333333333
EXTRACT: note_on channel=0 note=45 velocity=0 time=0.09905664999999998
EXTRACT: note_on channel=1 note=33 velocity=0 time=0
EXTRACT: note_on channel=6 note=60 velocity=0 time=0
EXTRACT: note_on channel=6 note=64 velocity=0 time=0
EXTRACT: note_on channel=6 note=69 velocity=0 time=0
EXTRACT: note_on channel=5 note=45 velocity=0 time=0.014150949999999997
EXTRACT: note_on channel=5 note=52 velocity=0 time=0.004716983333333332
EXTRACT: note_on channel=7 note=62 velocity=100 time=0.004716983333333332
EXTRACT: note_on channel=8 note=62 velocity=100 time=0
EXTRACT: note_on channel=9 note=35 velocity=90 time=0
EXTRACT: note_on channel=9 note=75 velocity=61 time=0
EXTRACT: note_on channel=9 note=42 velocity=90 time=0.004716983333333332
EXTRACT: note_on channel=0 note=71 velocity=47 time=0.004716983333333332
EXTRACT: note_on channel=0 note=40 velocity=47 time=0
EXTRACT: note_on channel=1 note=40 velocity=79 time=0
EXTRACT: note_on channel=5 note=52 velocity=66 time=0
EXTRACT: note_on channel=0 note=64 velocity=45 time=0.004716983333333332
EXTRACT: note_on channel=0 note=59 velocity=45 time=0
EXTRACT: note_on channel=0 note=55 velocity=45 time=0
EXTRACT: note_on channel=6 note=71 velocity=52 time=0
EXTRACT: note_on channel=7 note=60 velocity=0 time=0.004716983333333332
EXTRACT: note_on channel=8 note=60 velocity=0 time=0
EXTRACT: note_on channel=9 note=35 velocity=0 time=0.014150949999999997
EXTRACT: note_on channel=9 note=42 velocity=0 time=0.004716983333333332
EXTRACT: note_on channel=9 note=75 velocity=0 time=0.04716983333333333
EXTRACT: note_on channel=7 note=60 velocity=100 time=0.19811329999999996
EXTRACT: note_on channel=8 note=60 velocity=100 time=0
EXTRACT: note_on channel=9 note=42 velocity=73 time=0
EXTRACT: note_on channel=5 note=52 velocity=0 time=0.004716983333333332
EXTRACT: note_on channel=5 note=52 velocity=66 time=0
EXTRACT: note_on channel=7 note=62 velocity=0 time=0.004716983333333332
EXTRACT: note_on channel=8 note=62 velocity=0 time=0
EXTRACT: note_on channel=9 note=42 velocity=0 time=0.023584916666666664
EXTRACT: note_on channel=9 note=42 velocity=55 time=0.10849061666666665
EXTRACT: note_on channel=9 note=42 velocity=0 time=0.01886793333333333
EXTRACT: note_on channel=5 note=69 velocity=0 time=0.09905664999999998
EXTRACT: note_on channel=5 note=64 velocity=0 time=0.004716983333333332
EXTRACT: note_on channel=5 note=57 velocity=0 time=0
EXTRACT: note_on channel=5 note=60 velocity=0 time=0
EXTRACT: note_on channel=5 note=67 velocity=70 time=0.014150949999999997
EXTRACT: note_on channel=5 note=59 velocity=70 time=0
EXTRACT: note_on channel=5 note=52 velocity=0 time=0.004716983333333332
EXTRACT: note_on channel=5 note=64 velocity=70 time=0
EXTRACT: note_on channel=5 note=52 velocity=66 time=0
EXTRACT: note_on channel=6 note=67 velocity=46 time=0
EXTRACT: note_on channel=7 note=59 velocity=100 time=0
EXTRACT: note_on channel=8 note=59 velocity=100 time=0
EXTRACT: note_on channel=9 note=39 velocity=90 time=0
EXTRACT: note_on channel=9 note=42 velocity=90 time=0
EXTRACT: note_on channel=9 note=54 velocity=77 time=0
EXTRACT: note_on channel=9 note=75 velocity=71 time=0
EXTRACT: note_on channel=9 note=27 velocity=90 time=0
EXTRACT: note_on channel=5 note=71 velocity=66 time=0.004716983333333332
EXTRACT: note_on channel=7 note=60 velocity=0 time=0.004716983333333332
EXTRACT: note_on channel=8 note=60 velocity=0 time=0
EXTRACT: note_on channel=9 note=27 velocity=0 time=0.023584916666666664
EXTRACT: note_on channel=9 note=54 velocity=0 time=0
EXTRACT: note_on channel=9 note=39 velocity=0 time=0
EXTRACT: note_on channel=9 note=42 velocity=0 time=0
EXTRACT: note_on channel=9 note=75 velocity=0 time=0
EXTRACT: note_on channel=1 note=40 velocity=0 time=0.22169821666666661
EXTRACT: note_on channel=5 note=52 velocity=0 time=0.023584916666666664
EXTRACT: note_on channel=5 note=52 velocity=66 time=0
EXTRACT: note_on channel=9 note=35 velocity=90 time=0.004716983333333332
EXTRACT: note_on channel=9 note=75 velocity=59 time=0
EXTRACT: note_on channel=9 note=27 velocity=90 time=0
EXTRACT: note_on channel=9 note=42 velocity=67 time=0
EXTRACT: note_on channel=0 note=67 velocity=58 time=0.009433966666666665
EXTRACT: note_on channel=1 note=35 velocity=54 time=0
EXTRACT: note_on channel=7 note=59 velocity=0 time=0
EXTRACT: note_on channel=8 note=59 velocity=0 time=0
EXTRACT: note_on channel=9 note=42 velocity=0 time=0.023584916666666664
EXTRACT: note_on channel=9 note=35 velocity=0 time=0
EXTRACT: note_on channel=9 note=75 velocity=0 time=0
EXTRACT: note_on channel=9 note=27 velocity=0 time=0
EXTRACT: note_on channel=1 note=35 velocity=0 time=0.24056614999999995
EXTRACT: note_on channel=5 note=52 velocity=0 time=0
EXTRACT: note_on channel=5 note=52 velocity=66 time=0.009433966666666665
EXTRACT: note_on channel=6 note=64 velocity=50 time=0
EXTRACT: note_on channel=9 note=42 velocity=90 time=0
EXTRACT: note_on channel=9 note=27 velocity=90 time=0
EXTRACT: note_on channel=9 note=75 velocity=61 time=0
EXTRACT: note_on channel=1 note=28 velocity=68 time=0.009433966666666665
EXTRACT: note_on channel=9 note=75 velocity=0 time=0.023584916666666664
EXTRACT: note_on channel=9 note=27 velocity=0 time=0
EXTRACT: note_on channel=9 note=42 velocity=0 time=0
EXTRACT: note_on channel=5 note=67 velocity=0 time=0.20754726666666662
EXTRACT: note_on channel=5 note=71 velocity=0 time=0.014150949999999997
EXTRACT: note_on channel=5 note=59 velocity=0 time=0
EXTRACT: note_on channel=5 note=71 velocity=45 time=0.014150949999999997
EXTRACT: note_on channel=5 note=64 velocity=0 time=0.004716983333333332
EXTRACT: note_on channel=5 note=67 velocity=77 time=0
EXTRACT: note_on channel=5 note=59 velocity=56 time=0
EXTRACT: note_on channel=5 note=52 velocity=0 time=0.004716983333333332
EXTRACT: note_on channel=5 note=52 velocity=66 time=0
EXTRACT: note_on channel=5 note=64 velocity=85 time=0
EXTRACT: note_on channel=9 note=42 velocity=90 time=0.004716983333333332
EXTRACT: note_on channel=9 note=35 velocity=90 time=0
EXTRACT: note_on channel=9 note=35 velocity=0 time=0.033018883333333325
EXTRACT: note_on channel=9 note=42 velocity=0 time=0
EXTRACT: note_on channel=5 note=52 velocity=0 time=0.24056614999999995
EXTRACT: note_on channel=5 note=52 velocity=66 time=0.009433966666666665
EXTRACT: note_on channel=9 note=39 velocity=90 time=0
EXTRACT: note_on channel=9 note=42 velocity=90 time=0
EXTRACT: note_on channel=9 note=54 velocity=77 time=0
EXTRACT: note_on channel=9 note=27 velocity=90 time=0
EXTRACT: note_on channel=9 note=75 velocity=65 time=0
EXTRACT: note_on channel=9 note=54 velocity=0 time=0.033018883333333325
EXTRACT: note_on channel=9 note=39 velocity=0 time=0
EXTRACT: note_on channel=9 note=27 velocity=0 time=0.06603776666666665
EXTRACT: note_on channel=9 note=75 velocity=0 time=0.009433966666666665
EXTRACT: note_on channel=9 note=42 velocity=0 time=0
EXTRACT: note_on channel=0 note=40 velocity=0 time=0.06603776666666665
EXTRACT: note_on channel=5 note=71 velocity=0 time=0.051886816666666655
EXTRACT: note_on channel=5 note=67 velocity=0 time=0.004716983333333332
EXTRACT: note_on channel=5 note=64 velocity=0 time=0.004716983333333332
EXTRACT: note_on channel=5 note=59 velocity=0 time=0.014150949999999997
EXTRACT: note_on channel=5 note=71 velocity=56 time=0.004716983333333332
EXTRACT: note_on channel=5 note=64 velocity=56 time=0
EXTRACT: note_on channel=5 note=67 velocity=56 time=0.004716983333333332
EXTRACT: note_on channel=0 note=55 velocity=0 time=0.004716983333333332
EXTRACT: note_on channel=0 note=59 velocity=0 time=0
EXTRACT: note_on channel=0 note=64 velocity=0 time=0
EXTRACT: note_on channel=5 note=59 velocity=56 time=0
EXTRACT: note_on channel=0 note=67 velocity=0 time=0.009433966666666665
EXTRACT: note_on channel=1 note=28 velocity=0 time=0
EXTRACT: note_on channel=5 note=52 velocity=0 time=0.004716983333333332
EXTRACT: note_on channel=0 note=40 velocity=52 time=0.004716983333333332
EXTRACT: note_on channel=1 note=28 velocity=70 time=0
EXTRACT: note_on channel=9 note=27 velocity=90 time=0
EXTRACT: note_on channel=9 note=75 velocity=65 time=0
EXTRACT: note_on channel=9 note=42 velocity=90 time=0
EXTRACT: note_on channel=9 note=39 velocity=83 time=0
EXTRACT: note_on channel=5 note=52 velocity=66 time=0.004716983333333332
EXTRACT: note_on channel=9 note=27 velocity=0 time=0.08490569999999999
EXTRACT: note_on channel=9 note=75 velocity=0 time=0.01886793333333333
EXTRACT: note_on channel=9 note=42 velocity=0 time=0.004716983333333332
EXTRACT: note_on channel=9 note=39 velocity=0 time=0.023584916666666664
EXTRACT: note_on channel=0 note=71 velocity=0 time=0.023584916666666664
EXTRACT: note_on channel=0 note=40 velocity=0 time=0.09905664999999998
EXTRACT: note_on channel=1 note=28 velocity=0 time=0
EXTRACT: note_on channel=6 note=64 velocity=0 time=0
EXTRACT: note_on channel=6 note=67 velocity=0 time=0
EXTRACT: note_on channel=6 note=71 velocity=0 time=0
EXTRACT: note_on channel=5 note=52 velocity=0 time=0.023584916666666664
EXTRACT: note_on channel=5 note=50 velocity=66 time=0
EXTRACT: note_on channel=7 note=62 velocity=100 time=0
EXTRACT: note_on channel=8 note=62 velocity=100 time=0
EXTRACT: note_on channel=9 note=35 velocity=90 time=0
EXTRACT: note_on channel=9 note=75 velocity=61 time=0
EXTRACT: note_on channel=6 note=69 velocity=52 time=0.004716983333333332
EXTRACT: note_on channel=9 note=42 velocity=90 time=0
EXTRACT: note_on channel=0 note=74 velocity=47 time=0.004716983333333332
EXTRACT: note_on channel=0 note=50 velocity=47 time=0
EXTRACT: note_on channel=1 note=38 velocity=83 time=0
EXTRACT: note_on channel=0 note=66 velocity=45 time=0.004716983333333332
EXTRACT: note_on channel=0 note=62 velocity=45 time=0
EXTRACT: note_on channel=0 note=57 velocity=45 time=0
EXTRACT: note_on channel=6 note=74 velocity=52 time=0
EXTRACT: note_on channel=6 note=66 velocity=50 time=0
EXTRACT: note_on channel=9 note=35 velocity=0 time=0.01886793333333333
EXTRACT: note_on channel=9 note=42 velocity=0 time=0.004716983333333332
EXTRACT: note_on channel=9 note=75 velocity=0 time=0.04716983333333333
EXTRACT: note_on channel=7 note=62 velocity=0 time=0.1886793333333333
EXTRACT: note_on channel=8 note=62 velocity=0 time=0
EXTRACT: note_on channel=5 note=50 velocity=0 time=0.004716983333333332
EXTRACT: note_on channel=5 note=50 velocity=66 time=0
EXTRACT: note_on channel=9 note=42 velocity=73 time=0.004716983333333332
EXTRACT: note_on channel=7 note=62 velocity=100 time=0.009433966666666665
EXTRACT: note_on channel=8 note=62 velocity=100 time=0
EXTRACT: note_on channel=9 note=42 velocity=0 time=0.023584916666666664
EXTRACT: note_on channel=5 note=50 velocity=0 time=0.24056614999999995
EXTRACT: note_on channel=5 note=59 velocity=0 time=0
EXTRACT: note_on channel=5 note=71 velocity=0 time=0
EXTRACT: note_on channel=5 note=67 velocity=0 time=0
EXTRACT: note_on channel=5 note=64 velocity=0 time=0.004716983333333332
EXTRACT: note_on channel=5 note=50 velocity=66 time=0.004716983333333332
EXTRACT: note_on channel=5 note=69 velocity=66 time=0
EXTRACT: note_on channel=5 note=66 velocity=67 time=0
EXTRACT: note_on channel=7 note=62 velocity=0 time=0
EXTRACT: note_on channel=8 note=62 velocity=0 time=0
EXTRACT: note_on channel=9 note=54 velocity=77 time=0
EXTRACT: note_on channel=9 note=75 velocity=71 time=0
EXTRACT: note_on channel=9 note=27 velocity=90 time=0
EXTRACT: note_on channel=9 note=42 velocity=90 time=0
EXTRACT: note_on channel=9 note=39 velocity=90 time=0
EXTRACT: note_on channel=5 note=62 velocity=67 time=0.004716983333333332
EXTRACT: note_on channel=5 note=57 velocity=70 time=0
EXTRACT: note_on channel=7 note=62 velocity=100 time=0
EXTRACT: note_on channel=8 note=62 velocity=100 time=0
EXTRACT: note_on channel=9 note=39 velocity=0 time=0.028301899999999994
EXTRACT: note_on channel=9 note=27 velocity=0 time=0
EXTRACT: note_on channel=9 note=54 velocity=0 time=0
EXTRACT: note_on channel=9 note=75 velocity=0 time=0
EXTRACT: note_on channel=9 note=42 velocity=0 time=0
EXTRACT: note_on channel=1 note=38 velocity=0 time=0.22169821666666661
EXTRACT: note_on channel=5 note=50 velocity=0 time=0.023584916666666664
EXTRACT: note_on channel=5 note=50 velocity=66 time=0
EXTRACT: note_on channel=7 note=62 velocity=0 time=0
EXTRACT: note_on channel=8 note=62 velocity=0 time=0
EXTRACT: note_on channel=9 note=27 velocity=90 time=0.004716983333333332
EXTRACT: note_on channel=9 note=42 velocity=67 time=0
EXTRACT: note_on channel=9 note=35 velocity=90 time=0
EXTRACT: note_on channel=9 note=75 velocity=59 time=0
EXTRACT: note_on channel=0 note=69 velocity=58 time=0.009433966666666665
EXTRACT: note_on channel=1 note=38 velocity=54 time=0
EXTRACT: note_on channel=7 note=62 velocity=100 time=0.004716983333333332
EXTRACT: note_on channel=8 note=62 velocity=100 time=0
EXTRACT: note_on channel=9 note=75 velocity=0 time=0.01886793333333333
EXTRACT: note_on channel=9 note=27 velocity=0 time=0
EXTRACT: note_on channel=9 note=42 velocity=0 time=0
EXTRACT: note_on channel=9 note=35 velocity=0 time=0
EXTRACT: note_on channel=1 note=38 velocity=0 time=0.24056614999999995
EXTRACT: note_on channel=5 note=50 velocity=0 time=0
EXTRACT: note_on channel=5 note=50 velocity=66 time=0.009433966666666665
EXTRACT: note_on channel=9 note=42 velocity=90 time=0
EXTRACT: note_on channel=9 note=27 velocity=90 time=0
EXTRACT: note_on channel=9 note=75 velocity=61 time=0
EXTRACT: note_on channel=7 note=62 velocity=0 time=0.004716983333333332
EXTRACT: note_on channel=7 note=64 velocity=100 time=0
EXTRACT: note_on channel=8 note=62 velocity=0 time=0
EXTRACT: note_on channel=8 note=64 velocity=100 time=0
EXTRACT: note_on channel=1 note=38 velocity=68 time=0.004716983333333332
EXTRACT: note_on channel=9 note=75 velocity=0 time=0.023584916666666664
EXTRACT: note_on channel=9 note=27 velocity=0 time=0
EXTRACT: note_on channel=9 note=42 velocity=0 time=0
EXTRACT: note_on channel=5 note=57 velocity=0 time=0.22641519999999996
EXTRACT: note_on channel=5 note=69 velocity=0 time=0
EXTRACT: note_on channel=5 note=62 velocity=0 time=0.009433966666666665
EXTRACT: note_on channel=5 note=66 velocity=0 time=0.004716983333333332
EXTRACT: note_on channel=5 note=50 velocity=0 time=0.004716983333333332
EXTRACT: note_on channel=5 note=57 velocity=66 time=0
EXTRACT: note_on channel=5 note=62 velocity=66 time=0
EXTRACT: note_on channel=5 note=69 velocity=66 time=0
EXTRACT: note_on channel=5 note=50 velocity=66 time=0
EXTRACT: note_on channel=9 note=42 velocity=90 time=0.004716983333333332
EXTRACT: note_on channel=9 note=35 velocity=90 time=0
EXTRACT: note_on channel=5 note=66 velocity=66 time=0.004716983333333332
EXTRACT: note_on channel=9 note=35 velocity=0 time=0.028301899999999994
EXTRACT: note_on channel=9 note=42 velocity=0 time=0
EXTRACT: note_on channel=5 note=50 velocity=0 time=0.24056614999999995
EXTRACT: note_on channel=1 note=38 velocity=0 time=0.004716983333333332
EXTRACT: note_on channel=5 note=50 velocity=66 time=0
EXTRACT: note_on channel=1 note=38 velocity=70 time=0.004716983333333332
EXTRACT: note_on channel=9 note=54 velocity=77 time=0
EXTRACT: note_on channel=9 note=75 velocity=65 time=0
EXTRACT: note_on channel=9 note=27 velocity=90 time=0
EXTRACT: note_on channel=9 note=42 velocity=90 time=0
EXTRACT: note_on channel=9 note=39 velocity=90 time=0
EXTRACT: note_on channel=7 note=64 velocity=0 time=0.004716983333333332
EXTRACT: note_on channel=7 note=60 velocity=100 time=0
EXTRACT: note_on channel=8 note=64 velocity=0 time=0
EXTRACT: note_on channel=8 note=60 velocity=100 time=0
EXTRACT: note_on channel=9 note=39 velocity=0 time=0.028301899999999994
EXTRACT: note_on channel=9 note=27 velocity=0 time=0
EXTRACT: note_on channel=9 note=54 velocity=0 time=0
EXTRACT: note_on channel=9 note=75 velocity=0 time=0
EXTRACT: note_on channel=9 note=42 velocity=0 time=0
EXTRACT: note_on channel=0 note=50 velocity=0 time=0.14150949999999998
EXTRACT: note_on channel=5 note=66 velocity=0 time=0.08490569999999999
EXTRACT: note_on channel=0 note=57 velocity=0 time=0.004716983333333332
EXTRACT: note_on channel=0 note=62 velocity=0 time=0
EXTRACT: note_on channel=0 note=66 velocity=0 time=0
EXTRACT: note_on channel=5 note=69 velocity=0 time=0
EXTRACT: note_on channel=0 note=69 velocity=0 time=0.009433966666666665
EXTRACT: note_on channel=5 note=57 velocity=0 time=0
EXTRACT: note_on channel=5 note=62 velocity=0 time=0
EXTRACT: note_on channel=5 note=50 velocity=0 time=0
EXTRACT: note_on channel=1 note=38 velocity=0 time=0.004716983333333332
EXTRACT: note_on channel=5 note=50 velocity=66 time=0
EXTRACT: note_on channel=5 note=57 velocity=66 time=0
EXTRACT: note_on channel=7 note=60 velocity=0 time=0
EXTRACT: note_on channel=8 note=60 velocity=0 time=0
EXTRACT: note_on channel=0 note=50 velocity=52 time=0.004716983333333332
EXTRACT: note_on channel=1 note=38 velocity=56 time=0
EXTRACT: note_on channel=9 note=27 velocity=90 time=0
EXTRACT: note_on channel=9 note=42 velocity=90 time=0
EXTRACT: note_on channel=9 note=75 velocity=65 time=0
EXTRACT: note_on channel=5 note=62 velocity=66 time=0.004716983333333332
EXTRACT: note_on channel=5 note=69 velocity=66 time=0.004716983333333332
EXTRACT: note_on channel=5 note=66 velocity=66 time=0
EXTRACT: note_on channel=7 note=59 velocity=100 time=0.014150949999999997
EXTRACT: note_on channel=8 note=59 velocity=100 time=0
EXTRACT: note_on channel=9 note=27 velocity=0 time=0.06603776666666665
EXTRACT: note_on channel=9 note=75 velocity=0 time=0.01886793333333333
EXTRACT: note_on channel=9 note=42 velocity=0 time=0.004716983333333332
EXTRACT: note_on channel=0 note=74 velocity=0 time=0.04716983333333333
EXTRACT: note_on channel=0 note=50 velocity=0 time=0.09905664999999998
EXTRACT: note_on channel=1 note=38 velocity=0 time=0
EXTRACT: note_on channel=6 note=66 velocity=0 time=0
EXTRACT: note_on channel=6 note=74 velocity=0 time=0
EXTRACT: note_on channel=6 note=69 velocity=0 time=0
EXTRACT: note_on channel=5 note=50 velocity=0 time=0.014150949999999997
EXTRACT: note_on channel=7 note=60 velocity=100 time=0.009433966666666665
EXTRACT: note_on channel=8 note=60 velocity=100 time=0
EXTRACT: note_on channel=9 note=75 velocity=61 time=0
EXTRACT: note_on channel=9 note=35 velocity=90 time=0
EXTRACT: note_on channel=1 note=33 velocity=75 time=0.004716983333333332
EXTRACT: note_on channel=5 note=45 velocity=67 time=0
EXTRACT: note_on channel=9 note=42 velocity=90 time=0
EXTRACT: note_on channel=0 note=69 velocity=47 time=0.004716983333333332
EXTRACT: note_on channel=0 note=45 velocity=47 time=0
EXTRACT: note_on channel=0 note=64 velocity=45 time=0.004716983333333332
EXTRACT: note_on channel=0 note=60 velocity=45 time=0
EXTRACT: note_on channel=0 note=57 velocity=45 time=0
EXTRACT: note_on channel=6 note=69 velocity=52 time=0
EXTRACT: note_on channel=7 note=59 velocity=0 time=0
EXTRACT: note_on channel=8 note=59 velocity=0 time=0
EXTRACT: note_on channel=9 note=35 velocity=0 time=0.01886793333333333
EXTRACT: note_on channel=9 note=42 velocity=0 time=0.004716983333333332
EXTRACT: note_on channel=9 note=75 velocity=0 time=0.04716983333333333
EXTRACT: note_on channel=7 note=60 velocity=0 time=0.1886793333333333
EXTRACT: note_on channel=8 note=60 velocity=0 time=0
EXTRACT: note_on channel=9 note=42 velocity=73 time=0.009433966666666665
EXTRACT: note_on channel=5 note=45 velocity=0 time=0.009433966666666665
EXTRACT: note_on channel=5 note=45 velocity=67 time=0.004716983333333332
EXTRACT: note_on channel=7 note=59 velocity=100 time=0
EXTRACT: note_on channel=8 note=59 velocity=100 time=0
EXTRACT: note_on channel=9 note=42 velocity=0 time=0.01886793333333333
EXTRACT: note_on channel=9 note=42 velocity=55 time=0.10849061666666665
EXTRACT: note_on channel=9 note=42 velocity=0 time=0.01886793333333333
EXTRACT: note_on channel=5 note=66 velocity=0 time=0.10849061666666665
EXTRACT: note_on channel=5 note=69 velocity=0 time=0
EXTRACT: note_on channel=5 note=57 velocity=0 time=0
EXTRACT: note_on channel=5 note=45 velocity=0 time=0.004716983333333332
EXTRACT: note_on channel=5 note=62 velocity=0 time=0.004716983333333332
EXTRACT: note_on channel=5 note=52 velocity=34 time=0.004716983333333332
EXTRACT: note_on channel=6 note=64 velocity=46 time=0
EXTRACT: note_on channel=9 note=42 velocity=90 time=0
EXTRACT: note_on channel=9 note=54 velocity=77 time=0
EXTRACT: note_on channel=9 note=39 velocity=90 time=0
EXTRACT: note_on channel=9 note=27 velocity=90 time=0
EXTRACT: note_on channel=9 note=75 velocity=71 time=0
EXTRACT: note_on channel=5 note=45 velocity=67 time=0.004716983333333332
EXTRACT: note_on channel=5 note=69 velocity=66 time=0
EXTRACT: note_on channel=5 note=64 velocity=67 time=0
EXTRACT: note_on channel=5 note=60 velocity=67 time=0
EXTRACT: note_on channel=5 note=57 velocity=70 time=0
EXTRACT: note_on channel=7 note=59 velocity=0 time=0
EXTRACT: note_on channel=7 note=57 velocity=100 time=0
EXTRACT: note_on channel=8 note=59 velocity=0 time=0
EXTRACT: note_on channel=8 note=57 velocity=100 time=0
EXTRACT: note_on channel=9 note=75 velocity=0 time=0.028301899999999994
EXTRACT: note_on channel=9 note=39 velocity=0 time=0
EXTRACT: note_on channel=9 note=42 velocity=0 time=0
EXTRACT: note_on channel=9 note=54 velocity=0 time=0
EXTRACT: note_on channel=9 note=27 velocity=0 time=0
EXTRACT: note_on channel=1 note=33 velocity=0 time=0.1603774333333333
EXTRACT: note_on channel=5 note=45 velocity=0 time=0.07075474999999999
EXTRACT: note_on channel=5 note=45 velocity=67 time=0.014150949999999997
EXTRACT: note_on channel=7 note=57 velocity=0 time=0
EXTRACT: note_on channel=8 note=57 velocity=0 time=0
EXTRACT: note_on channel=9 note=42 velocity=67 time=0.004716983333333332
EXTRACT: note_on channel=9 note=75 velocity=59 time=0
EXTRACT: note_on channel=9 note=39 velocity=100 time=0
EXTRACT: note_on channel=9 note=27 velocity=90 time=0
EXTRACT: note_on channel=1 note=33 velocity=75 time=0.004716983333333332
EXTRACT: note_on channel=0 note=64 velocity=58 time=0.004716983333333332
EXTRACT: note_on channel=9 note=27 velocity=0 time=0.023584916666666664
EXTRACT: note_on channel=9 note=42 velocity=0 time=0
EXTRACT: note_on channel=9 note=75 velocity=0 time=0
EXTRACT: note_on channel=9 note=39 velocity=0 time=0
EXTRACT: note_on channel=1 note=33 velocity=0 time=0.22169821666666661
EXTRACT: note_on channel=5 note=45 velocity=0 time=0
EXTRACT: note_on channel=1 note=33 velocity=71 time=0.028301899999999994
EXTRACT: note_on channel=6 note=60 velocity=50 time=0
EXTRACT: note_on channel=9 note=42 velocity=90 time=0
EXTRACT: note_on channel=9 note=27 velocity=90 time=0
EXTRACT: note_on channel=9 note=75 velocity=61 time=0
EXTRACT: note_on channel=5 note=45 velocity=67 time=0.004716983333333332
EXTRACT: note_on channel=7 note=60 velocity=100 time=0
EXTRACT: note_on channel=8 note=60 velocity=100 time=0
EXTRACT: note_on channel=9 note=75 velocity=0 time=0.028301899999999994
EXTRACT: note_on channel=9 note=27 velocity=0 time=0
EXTRACT: note_on channel=9 note=42 velocity=0 time=0
EXTRACT: note_on channel=5 note=69 velocity=0 time=0.19811329999999996
EXTRACT: note_on channel=5 note=64 velocity=0 time=0
EXTRACT: note_on channel=5 note=60 velocity=0 time=0.004716983333333332
EXTRACT: note_on channel=5 note=52 velocity=0 time=0
EXTRACT: note_on channel=5 note=57 velocity=0 time=0
EXTRACT: note_on channel=5 note=52 velocity=66 time=0.014150949999999997
EXTRACT: note_on channel=5 note=57 velocity=66 time=0
EXTRACT: note_on channel=5 note=60 velocity=66 time=0
EXTRACT: note_on channel=5 note=69 velocity=66 time=0
EXTRACT: note_on channel=5 note=64 velocity=66 time=0.004716983333333332
EXTRACT: note_on channel=5 note=45 velocity=0 time=0.009433966666666665
EXTRACT: note_on channel=5 note=45 velocity=67 time=0.004716983333333332
EXTRACT: note_on channel=7 note=60 velocity=0 time=0.009433966666666665
EXTRACT: note_on channel=8 note=60 velocity=0 time=0
EXTRACT: note_on channel=1 note=33 velocity=0 time=0.004716983333333332
EXTRACT: note_on channel=9 note=42 velocity=90 time=0
EXTRACT: note_on channel=9 note=35 velocity=90 time=0
EXTRACT: note_on channel=1 note=33 velocity=81 time=0.004716983333333332
EXTRACT: note_on channel=7 note=59 velocity=100 time=0.004716983333333332
EXTRACT: note_on channel=8 note=59 velocity=100 time=0
EXTRACT: note_on channel=9 note=35 velocity=0 time=0.009433966666666665
EXTRACT: note_on channel=9 note=42 velocity=0 time=0
EXTRACT: note_on channel=9 note=39 velocity=67 time=0.12264156666666665
EXTRACT: note_on channel=9 note=39 velocity=0 time=0.01886793333333333
EXTRACT: note_on channel=5 note=45 velocity=0 time=0.08490569999999999
EXTRACT: note_on channel=7 note=59 velocity=0 time=0.03773586666666666
EXTRACT: note_on channel=8 note=59 velocity=0 time=0
EXTRACT: note_on channel=9 note=27 velocity=90 time=0
EXTRACT: note_on channel=9 note=54 velocity=77 time=0
EXTRACT: note_on channel=9 note=42 velocity=90 time=0
EXTRACT: note_on channel=9 note=39 velocity=110 time=0
EXTRACT: note_on channel=9 note=75 velocity=65 time=0
EXTRACT: note_on channel=5 note=45 velocity=67 time=0.004716983333333332
EXTRACT: note_on channel=7 note=57 velocity=100 time=0
EXTRACT: note_on channel=8 note=57 velocity=100 time=0
EXTRACT: note_on channel=9 note=75 velocity=0 time=0.014150949999999997
EXTRACT: note_on channel=9 note=42 velocity=0 time=0
EXTRACT: note_on channel=9 note=27 velocity=0 time=0
EXTRACT: note_on channel=9 note=54 velocity=0 time=0
EXTRACT: note_on channel=9 note=39 velocity=0 time=0
EXTRACT: note_on channel=9 note=39 velocity=75 time=0.12264156666666665
EXTRACT: note_on channel=1 note=33 velocity=0 time=0.01886793333333333
EXTRACT: note_on channel=9 note=39 velocity=0 time=0
EXTRACT: note_on channel=0 note=45 velocity=0 time=0.014150949999999997
EXTRACT: note_on channel=5 note=57 velocity=0 time=0.08490569999999999
EXTRACT: note_on channel=5 note=52 velocity=0 time=0
EXTRACT: note_on channel=5 note=60 velocity=0 time=0
EXTRACT: note_on channel=5 note=69 velocity=0 time=0
EXTRACT: note_on channel=0 note=57 velocity=0 time=0.004716983333333332
EXTRACT: note_on channel=0 note=60 velocity=0 time=0
EXTRACT: note_on channel=0 note=64 velocity=0 time=0
EXTRACT: note_on channel=5 note=64 velocity=0 time=0
EXTRACT: note_on channel=5 note=57 velocity=66 time=0.004716983333333332
EXTRACT: note_on channel=0 note=64 velocity=0 time=0.004716983333333332
EXTRACT: note_on channel=5 note=69 velocity=66 time=0
EXTRACT: note_on channel=5 note=60 velocity=66 time=0
EXTRACT: note_on channel=5 note=52 velocity=66 time=0.004716983333333332
EXTRACT: note_on channel=7 note=57 velocity=0 time=0
EXTRACT: note_on channel=8 note=57 velocity=0 time=0
EXTRACT: note_on channel=0 note=45 velocity=52 time=0.004716983333333332
EXTRACT: note_on channel=1 note=33 velocity=75 time=0
EXTRACT: note_on channel=5 note=45 velocity=0 time=0
EXTRACT: note_on channel=5 note=45 velocity=67 time=0
EXTRACT: note_on channel=5 note=64 velocity=66 time=0
EXTRACT: note_on channel=9 note=75 velocity=65 time=0
EXTRACT: note_on channel=9 note=42 velocity=90 time=0
EXTRACT: note_on channel=9 note=27 velocity=90 time=0
EXTRACT: note_on channel=9 note=39 velocity=93 time=0
EXTRACT: note_on channel=9 note=39 velocity=0 time=0.01886793333333333
EXTRACT: note_on channel=9 note=75 velocity=0 time=0
EXTRACT: note_on channel=9 note=42 velocity=0 time=0
EXTRACT: note_on channel=9 note=27 velocity=0 time=0
EXTRACT: note_on channel=9 note=39 velocity=67 time=0.12264156666666665
EXTRACT: note_on channel=0 note=69 velocity=0 time=0.01886793333333333
EXTRACT: note_on channel=9 note=39 velocity=0 time=0.06132078333333332
EXTRACT: note_on channel=0 note=45 velocity=0 time=0.03773586666666666
EXTRACT: note_on channel=1 note=33 velocity=0 time=0
EXTRACT: note_on channel=6 note=60 velocity=0 time=0
EXTRACT: note_on channel=6 note=64 velocity=0 time=0
EXTRACT: note_on channel=6 note=69 velocity=0 time=0
EXTRACT: note_on channel=5 note=45 velocity=0 time=0.01886793333333333
EXTRACT: note_on channel=5 note=45 velocity=67 time=0.004716983333333332
EXTRACT: note_on channel=9 note=35 velocity=75 time=0
EXTRACT: note_on channel=9 note=75 velocity=46 time=0
EXTRACT: note_on channel=9 note=57 velocity=67 time=0
EXTRACT: note_on channel=9 note=42 velocity=75 time=0
EXTRACT: note_on channel=9 note=35 velocity=75 time=0
EXTRACT: note_on channel=9 note=75 velocity=46 time=0.004716983333333332
EXTRACT: note_on channel=8 note=69 velocity=100 time=0.014150949999999997
EXTRACT: note_on channel=9 note=35 velocity=0 time=0.009433966666666665
EXTRACT: note_on channel=9 note=35 velocity=0 time=0.004716983333333332
EXTRACT: note_on channel=9 note=42 velocity=0 time=0
EXTRACT: note_on channel=9 note=57 velocity=0 time=0
EXTRACT: note_on channel=9 note=75 velocity=0 time=0.004716983333333332
EXTRACT: note_on channel=9 note=75 velocity=0 time=0.04245284999999999
EXTRACT: note_on channel=8 note=69 velocity=0 time=0.1745283833333333
EXTRACT: note_on channel=9 note=42 velocity=60 time=0.023584916666666664
EXTRACT: note_on channel=5 note=45 velocity=0 time=0.004716983333333332
EXTRACT: note_on channel=9 note=42 velocity=60 time=0
EXTRACT: note_on channel=5 note=45 velocity=67 time=0.004716983333333332
EXTRACT: note_on channel=8 note=71 velocity=100 time=0.014150949999999997
EXTRACT: note_on channel=9 note=42 velocity=0 time=0.009433966666666665
EXTRACT: note_on channel=9 note=42 velocity=0 time=0.004716983333333332
EXTRACT: note_on channel=8 note=71 velocity=0 time=0.20754726666666662
EXTRACT: note_on channel=5 note=45 velocity=0 time=0.023584916666666664
EXTRACT: note_on channel=5 note=57 velocity=0 time=0
EXTRACT: note_on channel=5 note=64 velocity=0 time=0
EXTRACT: note_on channel=5 note=69 velocity=0 time=0.004716983333333332
EXTRACT: note_on channel=5 note=52 velocity=0 time=0
EXTRACT: note_on channel=5 note=52 velocity=34 time=0.004716983333333332
EXTRACT: note_on channel=5 note=60 velocity=0 time=0.004716983333333332
EXTRACT: note_on channel=5 note=45 velocity=67 time=0
EXTRACT: note_on channel=5 note=69 velocity=66 time=0
EXTRACT: note_on channel=5 note=64 velocity=67 time=0
EXTRACT: note_on channel=5 note=60 velocity=67 time=0
EXTRACT: note_on channel=5 note=57 velocity=70 time=0
EXTRACT: note_on channel=9 note=39 velocity=75 time=0
EXTRACT: note_on channel=9 note=42 velocity=75 time=0
EXTRACT: note_on channel=9 note=27 velocity=69 time=0
EXTRACT: note_on channel=9 note=75 velocity=56 time=0
EXTRACT: note_on channel=7 note=58 velocity=1 time=0.004716983333333332
EXTRACT: note_on channel=9 note=75 velocity=56 time=0
EXTRACT: note_on channel=9 note=42 velocity=75 time=0
EXTRACT: note_on channel=9 note=27 velocity=75 time=0
EXTRACT: note_on channel=9 note=39 velocity=75 time=0
EXTRACT: note_on channel=8 note=72 velocity=100 time=0.009433966666666665
EXTRACT: note_on channel=9 note=75 velocity=0 time=0.01886793333333333
EXTRACT: note_on channel=9 note=27 velocity=0 time=0
EXTRACT: note_on channel=9 note=39 velocity=0 time=0
EXTRACT: note_on channel=9 note=42 velocity=0 time=0
EXTRACT: note_on channel=9 note=75 velocity=0 time=0.004716983333333332
EXTRACT: note_on channel=9 note=39 velocity=0 time=0
EXTRACT: note_on channel=9 note=42 velocity=0 time=0
EXTRACT: note_on channel=9 note=27 velocity=0 time=0
EXTRACT: note_on channel=7 note=58 velocity=0 time=0.12264156666666665
EXTRACT: note_on channel=8 note=72 velocity=0 time=0.08490569999999999
EXTRACT: note_on channel=5 note=45 velocity=0 time=0.014150949999999997
EXTRACT: note_on channel=5 note=45 velocity=67 time=0.014150949999999997
EXTRACT: note_on channel=9 note=75 velocity=44 time=0.009433966666666665
EXTRACT: note_on channel=9 note=42 velocity=65 time=0
EXTRACT: note_on channel=9 note=27 velocity=75 time=0
EXTRACT: note_on channel=9 note=35 velocity=75 time=0
EXTRACT: note_on channel=9 note=42 velocity=75 time=0.004716983333333332
EXTRACT: note_on channel=9 note=35 velocity=75 time=0
EXTRACT: note_on channel=9 note=27 velocity=75 time=0
EXTRACT: note_on channel=9 note=75 velocity=44 time=0
EXTRACT: note_on channel=8 note=74 velocity=100 time=0.009433966666666665
EXTRACT: note_on channel=9 note=35 velocity=0 time=0.01886793333333333
EXTRACT: note_on channel=9 note=27 velocity=0 time=0
EXTRACT: note_on channel=9 note=75 velocity=0 time=0
EXTRACT: note_on channel=9 note=42 velocity=0 time=0
EXTRACT: note_on channel=9 note=42 velocity=0 time=0.004716983333333332
EXTRACT: note_on channel=9 note=75 velocity=0 time=0
EXTRACT: note_on channel=9 note=35 velocity=0 time=0
EXTRACT: note_on channel=9 note=27 velocity=0 time=0
EXTRACT: note_on channel=9 note=35 velocity=100 time=0.1179245833333333
EXTRACT: note_on channel=9 note=35 velocity=0 time=0.07075474999999999
EXTRACT: note_on channel=8 note=74 velocity=0 time=0.01886793333333333
EXTRACT: note_on channel=5 note=45 velocity=0 time=0.004716983333333332
EXTRACT: note_on channel=5 note=45 velocity=67 time=0.033018883333333325
EXTRACT: note_on channel=7 note=58 velocity=1 time=0
EXTRACT: note_on channel=9 note=42 velocity=75 time=0
EXTRACT: note_on channel=9 note=27 velocity=65 time=0
EXTRACT: note_on channel=9 note=75 velocity=46 time=0
EXTRACT: note_on channel=9 note=42 velocity=75 time=0.004716983333333332
EXTRACT: note_on channel=9 note=27 velocity=75 time=0
EXTRACT: note_on channel=8 note=76 velocity=100 time=0.004716983333333332
EXTRACT: note_on channel=9 note=35 velocity=75 time=0.004716983333333332
EXTRACT: note_on channel=9 note=75 velocity=0 time=0.01886793333333333
EXTRACT: note_on channel=9 note=42 velocity=0 time=0
EXTRACT: note_on channel=9 note=27 velocity=0 time=0
EXTRACT: note_on channel=9 note=42 velocity=0 time=0.004716983333333332
EXTRACT: note_on channel=9 note=27 velocity=0 time=0
EXTRACT: note_on channel=9 note=35 velocity=0 time=0.009433966666666665
EXTRACT: note_on channel=7 note=58 velocity=0 time=0.10849061666666665
EXTRACT: note_on channel=5 note=57 velocity=0 time=0.06132078333333332
EXTRACT: note_on channel=5 note=52 velocity=0 time=0
EXTRACT: note_on channel=5 note=69 velocity=0 time=0
EXTRACT: note_on channel=5 note=60 velocity=0 time=0.009433966666666665
EXTRACT: note_on channel=5 note=64 velocity=0 time=0.004716983333333332
EXTRACT: note_on channel=5 note=52 velocity=66 time=0.014150949999999997
EXTRACT: note_on channel=5 note=57 velocity=66 time=0
EXTRACT: note_on channel=5 note=60 velocity=66 time=0
EXTRACT: note_on channel=5 note=69 velocity=66 time=0
EXTRACT: note_on channel=5 note=64 velocity=66 time=0.004716983333333332
EXTRACT: note_on channel=5 note=45 velocity=0 time=0.009433966666666665
EXTRACT: note_on channel=5 note=45 velocity=67 time=0.004716983333333332
EXTRACT: note_on channel=9 note=42 velocity=60 time=0.01886793333333333
EXTRACT: note_on channel=9 note=35 velocity=75 time=0
EXTRACT: note_on channel=9 note=75 velocity=46 time=0.004716983333333332
EXTRACT: note_on channel=9 note=42 velocity=54 time=0
EXTRACT: note_on channel=9 note=35 velocity=0 time=0.028301899999999994
EXTRACT: note_on channel=9 note=42 velocity=0 time=0
EXTRACT: note_on channel=9 note=75 velocity=0 time=0.004716983333333332
EXTRACT: note_on channel=9 note=42 velocity=0 time=0
EXTRACT: note_on channel=5 note=45 velocity=0 time=0.2028302833333333
EXTRACT: note_on channel=5 note=45 velocity=67 time=0.04245284999999999
EXTRACT: note_on channel=8 note=76 velocity=0 time=0
EXTRACT: note_on channel=9 note=42 velocity=75 time=0
EXTRACT: note_on channel=9 note=75 velocity=50 time=0
EXTRACT: note_on channel=9 note=39 velocity=75 time=0
EXTRACT: note_on channel=9 note=27 velocity=75 time=0
EXTRACT: note_on channel=7 note=58 velocity=1 time=0.004716983333333332
EXTRACT: note_on channel=9 note=75 velocity=50 time=0
EXTRACT: note_on channel=9 note=42 velocity=75 time=0
EXTRACT: note_on channel=9 note=27 velocity=75 time=0
EXTRACT: note_on channel=9 note=39 velocity=75 time=0
EXTRACT: note_on channel=8 note=74 velocity=100 time=0.009433966666666665
EXTRACT: note_on channel=9 note=27 velocity=0 time=0.01886793333333333
EXTRACT: note_on channel=9 note=39 velocity=0 time=0
EXTRACT: note_on channel=9 note=42 velocity=0 time=0
EXTRACT: note_on channel=9 note=75 velocity=0 time=0
EXTRACT: note_on channel=9 note=75 velocity=0 time=0.004716983333333332
EXTRACT: note_on channel=9 note=39 velocity=0 time=0
EXTRACT: note_on channel=9 note=42 velocity=0 time=0
EXTRACT: note_on channel=9 note=27 velocity=0 time=0
EXTRACT: note_on channel=7 note=58 velocity=0 time=0.12264156666666665
EXTRACT: note_on channel=8 note=74 velocity=0 time=0.08490569999999999
EXTRACT: note_on channel=5 note=57 velocity=0 time=0.009433966666666665
EXTRACT: note_on channel=5 note=52 velocity=0 time=0
EXTRACT: note_on channel=5 note=60 velocity=0 time=0
EXTRACT: note_on channel=5 note=69 velocity=0 time=0
EXTRACT: note_on channel=5 note=64 velocity=0 time=0.004716983333333332
EXTRACT: note_on channel=5 note=57 velocity=66 time=0.004716983333333332
EXTRACT: note_on channel=5 note=69 velocity=66 time=0.004716983333333332
EXTRACT: note_on channel=5 note=60 velocity=66 time=0
EXTRACT: note_on channel=5 note=52 velocity=66 time=0.004716983333333332
EXTRACT: note_on channel=5 note=45 velocity=0 time=0.004716983333333332
EXTRACT: note_on channel=5 note=45 velocity=67 time=0
EXTRACT: note_on channel=5 note=64 velocity=66 time=0
EXTRACT: note_on channel=9 note=42 velocity=69 time=0.004716983333333332
EXTRACT: note_on channel=9 note=27 velocity=75 time=0
EXTRACT: note_on channel=9 note=75 velocity=50 time=0
EXTRACT: note_on channel=8 note=72 velocity=100 time=0.004716983333333332
EXTRACT: note_on channel=9 note=42 velocity=56 time=0
EXTRACT: note_on channel=9 note=27 velocity=75 time=0
EXTRACT: note_on channel=9 note=75 velocity=50 time=0
EXTRACT: note_on channel=9 note=27 velocity=0 time=0.08490569999999999
EXTRACT: note_on channel=9 note=27 velocity=0 time=0.004716983333333332
EXTRACT: note_on channel=9 note=75 velocity=0 time=0.014150949999999997
EXTRACT: note_on channel=9 note=75 velocity=0 time=0.004716983333333332
EXTRACT: note_on channel=9 note=42 velocity=0 time=0
EXTRACT: note_on channel=9 note=42 velocity=0 time=0.004716983333333332
EXTRACT: note_on channel=8 note=72 velocity=0 time=0.12264156666666665
EXTRACT: note_on channel=5 note=45 velocity=0 time=0.033018883333333325
EXTRACT: note_on channel=5 note=52 velocity=0 time=0.004716983333333332
EXTRACT: note_on channel=9 note=35 velocity=75 time=0.004716983333333332
EXTRACT: note_on channel=9 note=42 velocity=75 time=0
EXTRACT: note_on channel=9 note=75 velocity=46 time=0.004716983333333332
EXTRACT: note_on channel=9 note=75 velocity=46 time=0
EXTRACT: note_on channel=9 note=35 velocity=75 time=0
EXTRACT: note_on channel=5 note=52 velocity=66 time=0.004716983333333332
EXTRACT: note_on channel=9 note=42 velocity=75 time=0
EXTRACT: note_on channel=8 note=74 velocity=100 time=0.004716983333333332
EXTRACT: note_on channel=9 note=42 velocity=0 time=0.01886793333333333
EXTRACT: note_on channel=9 note=35 velocity=0 time=0
EXTRACT: note_on channel=9 note=35 velocity=0 time=0.004716983333333332
EXTRACT: note_on channel=9 note=75 velocity=0 time=0
EXTRACT: note_on channel=9 note=42 velocity=0 time=0.004716983333333332
EXTRACT: note_on channel=9 note=75 velocity=0 time=0.04716983333333333
EXTRACT: note_on channel=9 note=42 velocity=60 time=0.19339631666666662
EXTRACT: note_on channel=5 note=52 velocity=0 time=0.004716983333333332
EXTRACT: note_on channel=5 note=52 velocity=66 time=0
EXTRACT: note_on channel=9 note=42 velocity=58 time=0
EXTRACT: note_on channel=8 note=74 velocity=0 time=0.009433966666666665
EXTRACT: note_on channel=8 note=72 velocity=100 time=0.004716983333333332
EXTRACT: note_on channel=9 note=42 velocity=0 time=0.014150949999999997
EXTRACT: note_on channel=9 note=42 velocity=0 time=0.004716983333333332
EXTRACT: note_on channel=9 note=42 velocity=40 time=0.10849061666666665
EXTRACT: note_on channel=9 note=42 velocity=0 time=0.08490569999999999
EXTRACT: note_on channel=5 note=69 velocity=0 time=0.028301899999999994
EXTRACT: note_on channel=5 note=64 velocity=0 time=0.004716983333333332
EXTRACT: note_on channel=5 note=57 velocity=0 time=0
EXTRACT: note_on channel=5 note=60 velocity=0 time=0
EXTRACT: note_on channel=5 note=67 velocity=70 time=0.014150949999999997
EXTRACT: note_on channel=5 note=59 velocity=70 time=0
EXTRACT: note_on channel=5 note=52 velocity=0 time=0.004716983333333332
EXTRACT: note_on channel=5 note=64 velocity=70 time=0
EXTRACT: note_on channel=5 note=52 velocity=66 time=0
EXTRACT: note_on channel=9 note=39 velocity=75 time=0
EXTRACT: note_on channel=9 note=75 velocity=56 time=0
EXTRACT: note_on channel=9 note=27 velocity=75 time=0
EXTRACT: note_on channel=9 note=42 velocity=75 time=0
EXTRACT: note_on channel=5 note=71 velocity=66 time=0.004716983333333332
EXTRACT: note_on channel=9 note=27 velocity=75 time=0
EXTRACT: note_on channel=9 note=75 velocity=56 time=0
EXTRACT: note_on channel=9 note=42 velocity=75 time=0
EXTRACT: note_on channel=9 note=39 velocity=75 time=0
EXTRACT: note_on channel=8 note=71 velocity=100 time=0.009433966666666665
EXTRACT: note_on channel=8 note=72 velocity=0 time=0.004716983333333332
EXTRACT: note_on channel=9 note=42 velocity=0 time=0.014150949999999997
EXTRACT: note_on channel=9 note=27 velocity=0 time=0
EXTRACT: note_on channel=9 note=39 velocity=0 time=0
EXTRACT: note_on channel=9 note=75 velocity=0 time=0
EXTRACT: note_on channel=9 note=27 velocity=0 time=0.004716983333333332
EXTRACT: note_on channel=9 note=39 velocity=0 time=0
EXTRACT: note_on channel=9 note=75 velocity=0 time=0
EXTRACT: note_on channel=9 note=42 velocity=0 time=0
EXTRACT: note_on channel=5 note=52 velocity=0 time=0.24056614999999995
EXTRACT: note_on channel=5 note=52 velocity=66 time=0
EXTRACT: note_on channel=9 note=75 velocity=44 time=0.004716983333333332
EXTRACT: note_on channel=9 note=27 velocity=75 time=0
EXTRACT: note_on channel=9 note=35 velocity=75 time=0
EXTRACT: note_on channel=9 note=42 velocity=75 time=0
EXTRACT: note_on channel=9 note=75 velocity=44 time=0.004716983333333332
EXTRACT: note_on channel=9 note=42 velocity=52 time=0
EXTRACT: note_on channel=9 note=27 velocity=75 time=0
EXTRACT: note_on channel=9 note=35 velocity=75 time=0
EXTRACT: note_on channel=9 note=42 velocity=0 time=0.028301899999999994
EXTRACT: note_on channel=9 note=35 velocity=0 time=0
EXTRACT: note_on channel=9 note=75 velocity=0 time=0
EXTRACT: note_on channel=9 note=27 velocity=0 time=0
EXTRACT: note_on channel=9 note=75 velocity=0 time=0.004716983333333332
EXTRACT: note_on channel=9 note=35 velocity=0 time=0
EXTRACT: note_on channel=9 note=42 velocity=0 time=0
EXTRACT: note_on channel=9 note=27 velocity=0 time=0
EXTRACT: note_on channel=9 note=35 velocity=75 time=0.09905664999999998
EXTRACT: note_on channel=9 note=35 velocity=0 time=0.033018883333333325
EXTRACT: note_on channel=5 note=52 velocity=0 time=0.10377363333333331
EXTRACT: note_on channel=5 note=52 velocity=66 time=0.009433966666666665
EXTRACT: note_on channel=9 note=27 velocity=75 time=0
EXTRACT: note_on channel=9 note=42 velocity=75 time=0
EXTRACT: note_on channel=9 note=42 velocity=75 time=0.004716983333333332
EXTRACT: note_on channel=9 note=27 velocity=75 time=0
EXTRACT: note_on channel=9 note=75 velocity=46 time=0
EXTRACT: note_on channel=9 note=35 velocity=75 time=0.014150949999999997
EXTRACT: note_on channel=8 note=71 velocity=0 time=0.004716983333333332
EXTRACT: note_on channel=9 note=42 velocity=0 time=0.009433966666666665
EXTRACT: note_on channel=9 note=27 velocity=0 time=0
EXTRACT: note_on channel=9 note=75 velocity=0 time=0.004716983333333332
EXTRACT: note_on channel=9 note=27 velocity=0 time=0
EXTRACT: note_on channel=9 note=42 velocity=0 time=0
EXTRACT: note_on channel=9 note=35 velocity=0 time=0.014150949999999997
EXTRACT: note_on channel=5 note=67 velocity=0 time=0.1886793333333333
EXTRACT: note_on channel=5 note=71 velocity=0 time=0.014150949999999997
EXTRACT: note_on channel=5 note=59 velocity=0 time=0
EXTRACT: note_on channel=5 note=71 velocity=45 time=0.014150949999999997
EXTRACT: note_on channel=5 note=64 velocity=0 time=0.004716983333333332
EXTRACT: note_on channel=5 note=67 velocity=77 time=0
EXTRACT: note_on channel=5 note=59 velocity=56 time=0
EXTRACT: note_on channel=5 note=52 velocity=0 time=0.004716983333333332
EXTRACT: note_on channel=5 note=52 velocity=66 time=0
EXTRACT: note_on channel=5 note=64 velocity=85 time=0
EXTRACT: note_on channel=9 note=75 velocity=46 time=0.004716983333333332
EXTRACT: note_on channel=9 note=35 velocity=75 time=0
EXTRACT: note_on channel=9 note=42 velocity=54 time=0
EXTRACT: note_on channel=9 note=42 velocity=75 time=0.004716983333333332
EXTRACT: note_on channel=9 note=35 velocity=0 time=0.028301899999999994
EXTRACT: note_on channel=9 note=42 velocity=0 time=0.004716983333333332
EXTRACT: note_on channel=9 note=42 velocity=0 time=0.033018883333333325
EXTRACT: note_on channel=9 note=75 velocity=0 time=0.06132078333333332
EXTRACT: note_on channel=9 note=42 velocity=33 time=0.009433966666666665
EXTRACT: note_on channel=9 note=42 velocity=0 time=0.07547173333333332
EXTRACT: note_on channel=5 note=52 velocity=0 time=0.05660379999999999
EXTRACT: note_on channel=5 note=52 velocity=66 time=0.009433966666666665
EXTRACT: note_on channel=9 note=39 velocity=75 time=0
EXTRACT: note_on channel=9 note=42 velocity=75 time=0
EXTRACT: note_on channel=9 note=75 velocity=50 time=0
EXTRACT: note_on channel=9 note=27 velocity=75 time=0
EXTRACT: note_on channel=9 note=75 velocity=50 time=0.004716983333333332
EXTRACT: note_on channel=9 note=42 velocity=75 time=0
EXTRACT: note_on channel=9 note=39 velocity=75 time=0
EXTRACT: note_on channel=9 note=27 velocity=75 time=0
EXTRACT: note_on channel=9 note=27 velocity=0 time=0.028301899999999994
EXTRACT: note_on channel=9 note=75 velocity=0 time=0
EXTRACT: note_on channel=9 note=39 velocity=0 time=0
EXTRACT: note_on channel=9 note=42 velocity=0 time=0
EXTRACT: note_on channel=9 note=75 velocity=0 time=0.004716983333333332
EXTRACT: note_on channel=9 note=27 velocity=0 time=0
EXTRACT: note_on channel=9 note=42 velocity=0 time=0
EXTRACT: note_on channel=9 note=39 velocity=0 time=0
EXTRACT: note_on channel=5 note=71 velocity=0 time=0.1886793333333333
EXTRACT: note_on channel=5 note=67 velocity=0 time=0.004716983333333332
EXTRACT: note_on channel=5 note=64 velocity=0 time=0.004716983333333332
EXTRACT: note_on channel=5 note=59 velocity=0 time=0.014150949999999997
EXTRACT: note_on channel=5 note=71 velocity=56 time=0.004716983333333332
EXTRACT: note_on channel=5 note=64 velocity=56 time=0
EXTRACT: note_on channel=5 note=67 velocity=56 time=0.004716983333333332
EXTRACT: note_on channel=5 note=59 velocity=56 time=0.004716983333333332
EXTRACT: note_on channel=5 note=52 velocity=0 time=0.014150949999999997
EXTRACT: note_on channel=9 note=75 velocity=50 time=0.004716983333333332
EXTRACT: note_on channel=9 note=27 velocity=75 time=0
EXTRACT: note_on channel=9 note=42 velocity=75 time=0
EXTRACT: note_on channel=5 note=52 velocity=66 time=0.004716983333333332
EXTRACT: note_on channel=9 note=42 velocity=75 time=0
EXTRACT: note_on channel=9 note=27 velocity=75 time=0
EXTRACT: note_on channel=9 note=75 velocity=50 time=0
EXTRACT: note_on channel=9 note=27 velocity=0 time=0.08490569999999999
EXTRACT: note_on channel=9 note=27 velocity=0 time=0.004716983333333332
EXTRACT: note_on channel=9 note=75 velocity=0 time=0.014150949999999997
EXTRACT: note_on channel=9 note=42 velocity=0 time=0.004716983333333332
EXTRACT: note_on channel=9 note=75 velocity=0 time=0
EXTRACT: note_on channel=9 note=42 velocity=0 time=0.004716983333333332
EXTRACT: note_on channel=5 note=52 velocity=0 time=0.16509441666666663
EXTRACT: note_on channel=5 note=50 velocity=66 time=0
EXTRACT: note_on channel=9 note=42 velocity=75 time=0
EXTRACT: note_on channel=9 note=35 velocity=75 time=0
EXTRACT: note_on channel=9 note=75 velocity=46 time=0.004716983333333332
EXTRACT: note_on channel=9 note=75 velocity=46 time=0
EXTRACT: note_on channel=9 note=35 velocity=75 time=0
EXTRACT: note_on channel=8 note=74 velocity=100 time=0.004716983333333332
EXTRACT: note_on channel=9 note=42 velocity=75 time=0
EXTRACT: note_on channel=9 note=35 velocity=0 time=0.023584916666666664
EXTRACT: note_on channel=9 note=42 velocity=0 time=0
EXTRACT: note_on channel=9 note=35 velocity=0 time=0.004716983333333332
EXTRACT: note_on channel=9 note=75 velocity=0 time=0
EXTRACT: note_on channel=9 note=42 velocity=0 time=0.004716983333333332
EXTRACT: note_on channel=9 note=75 velocity=0 time=0.04716983333333333
EXTRACT: note_on channel=8 note=74 velocity=0 time=0.16981139999999997
EXTRACT: note_on channel=5 note=50 velocity=0 time=0.01886793333333333
EXTRACT: note_on channel=5 note=50 velocity=66 time=0
EXTRACT: note_on channel=9 note=42 velocity=60 time=0.004716983333333332
EXTRACT: note_on channel=9 note=42 velocity=58 time=0.004716983333333332
EXTRACT: note_on channel=8 note=74 velocity=100 time=0.014150949999999997
EXTRACT: note_on channel=9 note=42 velocity=0 time=0.014150949999999997
EXTRACT: note_on channel=9 note=42 velocity=0 time=0.004716983333333332
EXTRACT: note_on channel=8 note=74 velocity=0 time=0.20754726666666662
EXTRACT: note_on channel=5 note=50 velocity=0 time=0.028301899999999994
EXTRACT: note_on channel=5 note=59 velocity=0 time=0
EXTRACT: note_on channel=5 note=71 velocity=0 time=0
EXTRACT: note_on channel=5 note=67 velocity=0 time=0
EXTRACT: note_on channel=5 note=64 velocity=0 time=0.004716983333333332
EXTRACT: note_on channel=5 note=50 velocity=66 time=0.004716983333333332
EXTRACT: note_on channel=5 note=69 velocity=66 time=0
EXTRACT: note_on channel=5 note=66 velocity=67 time=0
EXTRACT: note_on channel=9 note=39 velocity=75 time=0
EXTRACT: note_on channel=9 note=75 velocity=56 time=0
EXTRACT: note_on channel=9 note=27 velocity=75 time=0
EXTRACT: note_on channel=9 note=42 velocity=75 time=0
EXTRACT: note_on channel=5 note=62 velocity=67 time=0.004716983333333332
EXTRACT: note_on channel=5 note=57 velocity=70 time=0
EXTRACT: note_on channel=9 note=27 velocity=75 time=0
EXTRACT: note_on channel=9 note=39 velocity=75 time=0
EXTRACT: note_on channel=9 note=42 velocity=75 time=0
EXTRACT: note_on channel=9 note=75 velocity=56 time=0
EXTRACT: note_on channel=8 note=74 velocity=100 time=0.01886793333333333
EXTRACT: note_on channel=9 note=42 velocity=0 time=0.009433966666666665
EXTRACT: note_on channel=9 note=27 velocity=0 time=0
EXTRACT: note_on channel=9 note=39 velocity=0 time=0
EXTRACT: note_on channel=9 note=75 velocity=0 time=0
EXTRACT: note_on channel=9 note=27 velocity=0 time=0.004716983333333332
EXTRACT: note_on channel=9 note=75 velocity=0 time=0
EXTRACT: note_on channel=9 note=39 velocity=0 time=0
EXTRACT: note_on channel=9 note=42 velocity=0 time=0
EXTRACT: note_on channel=8 note=74 velocity=0 time=0.2358491666666666
EXTRACT: note_on channel=5 note=50 velocity=0 time=0.004716983333333332
EXTRACT: note_on channel=5 note=50 velocity=66 time=0
EXTRACT: note_on channel=9 note=42 velocity=75 time=0.004716983333333332
EXTRACT: note_on channel=9 note=27 velocity=75 time=0
EXTRACT: note_on channel=9 note=35 velocity=75 time=0
EXTRACT: note_on channel=9 note=75 velocity=44 time=0
EXTRACT: note_on channel=9 note=75 velocity=44 time=0.004716983333333332
EXTRACT: note_on channel=9 note=42 velocity=52 time=0
EXTRACT: note_on channel=9 note=35 velocity=75 time=0
EXTRACT: note_on channel=9 note=27 velocity=75 time=0
EXTRACT: note_on channel=8 note=74 velocity=100 time=0.023584916666666664
EXTRACT: note_on channel=9 note=75 velocity=0 time=0.004716983333333332
EXTRACT: note_on channel=9 note=35 velocity=0 time=0
EXTRACT: note_on channel=9 note=42 velocity=0 time=0
EXTRACT: note_on channel=9 note=27 velocity=0 time=0
EXTRACT: note_on channel=9 note=75 velocity=0 time=0.004716983333333332
EXTRACT: note_on channel=9 note=27 velocity=0 time=0
EXTRACT: note_on channel=9 note=42 velocity=0 time=0
EXTRACT: note_on channel=9 note=35 velocity=0 time=0
EXTRACT: note_on channel=9 note=35 velocity=75 time=0.09433966666666666
EXTRACT: note_on channel=9 note=35 velocity=0 time=0.033018883333333325
EXTRACT: note_on channel=8 note=74 velocity=0 time=0.08962268333333331
EXTRACT: note_on channel=5 note=50 velocity=0 time=0.01886793333333333
EXTRACT: note_on channel=5 note=50 velocity=66 time=0.009433966666666665
EXTRACT: note_on channel=9 note=42 velocity=75 time=0
EXTRACT: note_on channel=9 note=27 velocity=75 time=0
EXTRACT: note_on channel=9 note=75 velocity=46 time=0.004716983333333332
EXTRACT: note_on channel=9 note=42 velocity=75 time=0
EXTRACT: note_on channel=9 note=27 velocity=75 time=0
EXTRACT: note_on channel=8 note=76 velocity=100 time=0.004716983333333332
EXTRACT: note_on channel=9 note=35 velocity=75 time=0
EXTRACT: note_on channel=9 note=27 velocity=0 time=0.023584916666666664
EXTRACT: note_on channel=9 note=42 velocity=0 time=0
EXTRACT: note_on channel=9 note=27 velocity=0 time=0.004716983333333332
EXTRACT: note_on channel=9 note=42 velocity=0 time=0
EXTRACT: note_on channel=9 note=75 velocity=0 time=0
EXTRACT: note_on channel=9 note=35 velocity=0 time=0.004716983333333332
EXTRACT: note_on channel=5 note=57 velocity=0 time=0.2169812333333333
EXTRACT: note_on channel=5 note=69 velocity=0 time=0
EXTRACT: note_on channel=5 note=62 velocity=0 time=0.009433966666666665
EXTRACT: note_on channel=5 note=66 velocity=0 time=0.004716983333333332
EXTRACT: note_on channel=5 note=50 velocity=0 time=0.004716983333333332
EXTRACT: note_on channel=5 note=57 velocity=66 time=0
EXTRACT: note_on channel=5 note=62 velocity=66 time=0
EXTRACT: note_on channel=5 note=69 velocity=66 time=0
EXTRACT: note_on channel=5 note=50 velocity=66 time=0
EXTRACT: note_on channel=9 note=75 velocity=46 time=0.004716983333333332
EXTRACT: note_on channel=9 note=35 velocity=75 time=0
EXTRACT: note_on channel=9 note=42 velocity=54 time=0
EXTRACT: note_on channel=5 note=66 velocity=66 time=0.004716983333333332
EXTRACT: note_on channel=9 note=42 velocity=75 time=0
EXTRACT: note_on channel=9 note=35 velocity=0 time=0.028301899999999994
EXTRACT: note_on channel=9 note=42 velocity=0 time=0.004716983333333332
EXTRACT: note_on channel=9 note=42 velocity=0 time=0.033018883333333325
EXTRACT: note_on channel=9 note=75 velocity=0 time=0.06132078333333332
EXTRACT: note_on channel=9 note=42 velocity=33 time=0.009433966666666665
EXTRACT: note_on channel=9 note=42 velocity=0 time=0.07547173333333332
EXTRACT: note_on channel=5 note=50 velocity=0 time=0.05660379999999999
EXTRACT: note_on channel=5 note=50 velocity=66 time=0.004716983333333332
EXTRACT: note_on channel=9 note=39 velocity=75 time=0.004716983333333332
EXTRACT: note_on channel=9 note=75 velocity=50 time=0
EXTRACT: note_on channel=9 note=42 velocity=75 time=0
EXTRACT: note_on channel=9 note=27 velocity=75 time=0
EXTRACT: note_on channel=9 note=75 velocity=50 time=0.004716983333333332
EXTRACT: note_on channel=9 note=27 velocity=75 time=0
EXTRACT: note_on channel=9 note=39 velocity=75 time=0
EXTRACT: note_on channel=9 note=42 velocity=75 time=0
EXTRACT: note_on channel=8 note=76 velocity=0 time=0.01886793333333333
EXTRACT: note_on channel=8 note=72 velocity=100 time=0
EXTRACT: note_on channel=9 note=27 velocity=0 time=0.009433966666666665
EXTRACT: note_on channel=9 note=42 velocity=0 time=0
EXTRACT: note_on channel=9 note=39 velocity=0 time=0
EXTRACT: note_on channel=9 note=75 velocity=0 time=0
EXTRACT: note_on channel=9 note=75 velocity=0 time=0.004716983333333332
EXTRACT: note_on channel=9 note=42 velocity=0 time=0
EXTRACT: note_on channel=9 note=27 velocity=0 time=0
EXTRACT: note_on channel=9 note=39 velocity=0 time=0
EXTRACT: note_on channel=8 note=72 velocity=0 time=0.21226424999999996
EXTRACT: note_on channel=5 note=66 velocity=0 time=0.009433966666666665
EXTRACT: note_on channel=5 note=69 velocity=0 time=0.004716983333333332
EXTRACT: note_on channel=5 note=57 velocity=0 time=0.009433966666666665
EXTRACT: note_on channel=5 note=62 velocity=0 time=0
EXTRACT: note_on channel=5 note=50 velocity=0 time=0
EXTRACT: note_on channel=5 note=50 velocity=66 time=0.004716983333333332
EXTRACT: note_on channel=5 note=57 velocity=66 time=0
EXTRACT: note_on channel=9 note=27 velocity=75 time=0.004716983333333332
EXTRACT: note_on channel=9 note=42 velocity=75 time=0
EXTRACT: note_on channel=9 note=75 velocity=50 time=0
EXTRACT: note_on channel=5 note=62 velocity=66 time=0.004716983333333332
EXTRACT: note_on channel=9 note=42 velocity=75 time=0
EXTRACT: note_on channel=9 note=27 velocity=75 time=0
EXTRACT: note_on channel=9 note=75 velocity=50 time=0
EXTRACT: note_on channel=5 note=69 velocity=66 time=0.004716983333333332
EXTRACT: note_on channel=5 note=66 velocity=66 time=0
EXTRACT: note_on channel=8 note=71 velocity=100 time=0.004716983333333332
EXTRACT: note_on channel=9 note=27 velocity=0 time=0.07547173333333332
EXTRACT: note_on channel=9 note=27 velocity=0 time=0.004716983333333332
EXTRACT: note_on channel=9 note=75 velocity=0 time=0.014150949999999997
EXTRACT: note_on channel=9 note=75 velocity=0 time=0.004716983333333332
EXTRACT: note_on channel=9 note=42 velocity=0 time=0
EXTRACT: note_on channel=9 note=42 velocity=0 time=0.004716983333333332
EXTRACT: note_on channel=8 note=71 velocity=0 time=0.11320759999999998
EXTRACT: note_on channel=5 note=50 velocity=0 time=0.04245284999999999
EXTRACT: note_on channel=9 note=75 velocity=46 time=0.009433966666666665
EXTRACT: note_on channel=9 note=35 velocity=75 time=0
EXTRACT: note_on channel=5 note=45 velocity=67 time=0.004716983333333332
EXTRACT: note_on channel=9 note=42 velocity=75 time=0
EXTRACT: note_on channel=9 note=75 velocity=46 time=0
EXTRACT: note_on channel=9 note=35 velocity=75 time=0
EXTRACT: note_on channel=9 note=42 velocity=75 time=0.004716983333333332
EXTRACT: note_on channel=8 note=72 velocity=100 time=0.014150949999999997
EXTRACT: note_on channel=9 note=35 velocity=0 time=0.009433966666666665
EXTRACT: note_on channel=9 note=35 velocity=0 time=0.004716983333333332
EXTRACT: note_on channel=9 note=42 velocity=0 time=0
EXTRACT: note_on channel=9 note=42 velocity=0 time=0.004716983333333332
EXTRACT: note_on channel=9 note=75 velocity=0 time=0.04245284999999999
EXTRACT: note_on channel=9 note=75 velocity=0 time=0.004716983333333332
EXTRACT: note_on channel=9 note=42 velocity=58 time=0.19339631666666662
EXTRACT: note_on channel=9 note=42 velocity=58 time=0.004716983333333332
EXTRACT: note_on channel=5 note=45 velocity=0 time=0.004716983333333332
EXTRACT: note_on channel=5 note=45 velocity=67 time=0.004716983333333332
EXTRACT: note_on channel=8 note=71 velocity=100 time=0.004716983333333332
EXTRACT: note_on channel=8 note=72 velocity=0 time=0.004716983333333332
EXTRACT: note_on channel=9 note=42 velocity=0 time=0.009433966666666665
EXTRACT: note_on channel=9 note=42 velocity=0 time=0.004716983333333332
EXTRACT: note_on channel=9 note=42 velocity=40 time=0.10377363333333331
EXTRACT: note_on channel=9 note=42 velocity=40 time=0.004716983333333332
EXTRACT: note_on channel=9 note=42 velocity=0 time=0.08018871666666665
EXTRACT: note_on channel=9 note=42 velocity=0 time=0.004716983333333332
EXTRACT: note_on channel=5 note=66 velocity=0 time=0.03773586666666666
EXTRACT: note_on channel=5 note=69 velocity=0 time=0
EXTRACT: note_on channel=5 note=57 velocity=0 time=0
EXTRACT: note_on channel=5 note=45 velocity=0 time=0.004716983333333332
EXTRACT: note_on channel=5 note=62 velocity=0 time=0.004716983333333332
EXTRACT: note_on channel=5 note=52 velocity=34 time=0.004716983333333332
EXTRACT: note_on channel=9 note=27 velocity=75 time=0
EXTRACT: note_on channel=9 note=75 velocity=56 time=0
EXTRACT: note_on channel=9 note=39 velocity=75 time=0
EXTRACT: note_on channel=9 note=42 velocity=75 time=0
EXTRACT: note_on channel=5 note=45 velocity=67 time=0.004716983333333332
EXTRACT: note_on channel=5 note=69 velocity=66 time=0
EXTRACT: note_on channel=5 note=64 velocity=67 time=0
EXTRACT: note_on channel=5 note=60 velocity=67 time=0
EXTRACT: note_on channel=5 note=57 velocity=70 time=0
EXTRACT: note_on channel=9 note=27 velocity=75 time=0
EXTRACT: note_on channel=9 note=75 velocity=56 time=0
EXTRACT: note_on channel=9 note=42 velocity=75 time=0
EXTRACT: note_on channel=9 note=39 velocity=75 time=0
EXTRACT: note_on channel=8 note=69 velocity=100 time=0.004716983333333332
EXTRACT: note_on channel=8 note=71 velocity=0 time=0.009433966666666665
EXTRACT: note_on channel=9 note=42 velocity=0 time=0.014150949999999997
EXTRACT: note_on channel=9 note=39 velocity=0 time=0
EXTRACT: note_on channel=9 note=27 velocity=0 time=0
EXTRACT: note_on channel=9 note=75 velocity=0 time=0
EXTRACT: note_on channel=9 note=27 velocity=0 time=0.004716983333333332
EXTRACT: note_on channel=9 note=39 velocity=0 time=0
EXTRACT: note_on channel=9 note=75 velocity=0 time=0
EXTRACT: note_on channel=9 note=42 velocity=0 time=0
EXTRACT: note_on channel=5 note=45 velocity=0 time=0.22641519999999996
EXTRACT: note_on channel=5 note=45 velocity=67 time=0.014150949999999997
EXTRACT: note_on channel=9 note=35 velocity=75 time=0.004716983333333332
EXTRACT: note_on channel=9 note=75 velocity=44 time=0
EXTRACT: note_on channel=9 note=27 velocity=75 time=0
EXTRACT: note_on channel=9 note=42 velocity=52 time=0
EXTRACT: note_on channel=9 note=39 velocity=85 time=0.004716983333333332
EXTRACT: note_on channel=9 note=27 velocity=75 time=0
EXTRACT: note_on channel=9 note=75 velocity=44 time=0
EXTRACT: note_on channel=9 note=42 velocity=52 time=0
EXTRACT: note_on channel=9 note=42 velocity=0 time=0.028301899999999994
EXTRACT: note_on channel=9 note=27 velocity=0 time=0
EXTRACT: note_on channel=9 note=35 velocity=0 time=0
EXTRACT: note_on channel=9 note=75 velocity=0 time=0
EXTRACT: note_on channel=9 note=39 velocity=0 time=0.004716983333333332
EXTRACT: note_on channel=9 note=42 velocity=0 time=0
EXTRACT: note_on channel=9 note=27 velocity=0 time=0
EXTRACT: note_on channel=9 note=75 velocity=0 time=0
EXTRACT: note_on channel=5 note=45 velocity=0 time=0.2169812333333333
EXTRACT: note_on channel=9 note=42 velocity=75 time=0.028301899999999994
EXTRACT: note_on channel=9 note=75 velocity=46 time=0
EXTRACT: note_on channel=9 note=27 velocity=75 time=0
EXTRACT: note_on channel=5 note=45 velocity=67 time=0.004716983333333332
EXTRACT: note_on channel=9 note=42 velocity=75 time=0
EXTRACT: note_on channel=9 note=27 velocity=75 time=0
EXTRACT: note_on channel=9 note=75 velocity=46 time=0
EXTRACT: note_on channel=8 note=69 velocity=0 time=0.004716983333333332
EXTRACT: note_on channel=9 note=27 velocity=0 time=0.023584916666666664
EXTRACT: note_on channel=9 note=42 velocity=0 time=0
EXTRACT: note_on channel=9 note=75 velocity=0 time=0
EXTRACT: note_on channel=9 note=42 velocity=0 time=0.004716983333333332
EXTRACT: note_on channel=9 note=27 velocity=0 time=0
EXTRACT: note_on channel=9 note=75 velocity=0 time=0
EXTRACT: note_on channel=5 note=69 velocity=0 time=0.19339631666666662
EXTRACT: note_on channel=5 note=64 velocity=0 time=0
EXTRACT: note_on channel=5 note=60 velocity=0 time=0.004716983333333332
EXTRACT: note_on channel=5 note=52 velocity=0 time=0
EXTRACT: note_on channel=5 note=57 velocity=0 time=0
EXTRACT: note_on channel=5 note=52 velocity=66 time=0.014150949999999997
EXTRACT: note_on channel=5 note=57 velocity=66 time=0
EXTRACT: note_on channel=5 note=60 velocity=66 time=0
EXTRACT: note_on channel=5 note=69 velocity=66 time=0
EXTRACT: note_on channel=5 note=64 velocity=66 time=0.004716983333333332
EXTRACT: note_on channel=5 note=45 velocity=0 time=0.009433966666666665
EXTRACT: note_on channel=5 note=45 velocity=67 time=0.004716983333333332
EXTRACT: note_on channel=9 note=35 velocity=75 time=0.014150949999999997
EXTRACT: note_on channel=9 note=42 velocity=75 time=0
EXTRACT: note_on channel=9 note=42 velocity=75 time=0.004716983333333332
EXTRACT: note_on channel=9 note=35 velocity=75 time=0
EXTRACT: note_on channel=9 note=42 velocity=0 time=0.01886793333333333
EXTRACT: note_on channel=9 note=35 velocity=0 time=0
EXTRACT: note_on channel=9 note=42 velocity=0 time=0.009433966666666665
EXTRACT: note_on channel=9 note=35 velocity=0 time=0
EXTRACT: note_on channel=9 note=39 velocity=52 time=0.11320759999999998
EXTRACT: note_on channel=9 note=39 velocity=0 time=0.01886793333333333
EXTRACT: note_on channel=5 note=45 velocity=0 time=0.08018871666666665
EXTRACT: note_on channel=9 note=39 velocity=75 time=0.03773586666666666
EXTRACT: note_on channel=9 note=27 velocity=75 time=0
EXTRACT: note_on channel=9 note=42 velocity=75 time=0
EXTRACT: note_on channel=9 note=75 velocity=50 time=0
EXTRACT: note_on channel=5 note=45 velocity=67 time=0.004716983333333332
EXTRACT: note_on channel=9 note=42 velocity=75 time=0
EXTRACT: note_on channel=9 note=27 velocity=75 time=0
EXTRACT: note_on channel=9 note=75 velocity=50 time=0
EXTRACT: note_on channel=9 note=39 velocity=95 time=0
EXTRACT: note_on channel=9 note=75 velocity=0 time=0.01886793333333333
EXTRACT: note_on channel=9 note=42 velocity=0 time=0
EXTRACT: note_on channel=9 note=39 velocity=0 time=0
EXTRACT: note_on channel=9 note=27 velocity=0 time=0
EXTRACT: note_on channel=9 note=39 velocity=0 time=0.009433966666666665
EXTRACT: note_on channel=9 note=27 velocity=0 time=0.06603776666666665
EXTRACT: note_on channel=9 note=75 velocity=0 time=0.009433966666666665
EXTRACT: note_on channel=9 note=42 velocity=0 time=0
EXTRACT: note_on channel=9 note=39 velocity=60 time=0.03773586666666666
EXTRACT: note_on channel=9 note=39 velocity=0 time=0.01886793333333333
EXTRACT: note_on channel=5 note=57 velocity=0 time=0.09433966666666666
EXTRACT: note_on channel=5 note=52 velocity=0 time=0
EXTRACT: note_on channel=5 note=60 velocity=0 time=0
EXTRACT: note_on channel=5 note=69 velocity=0 time=0
EXTRACT: note_on channel=5 note=64 velocity=0 time=0.004716983333333332
EXTRACT: note_on channel=5 note=57 velocity=66 time=0.004716983333333332
EXTRACT: note_on channel=5 note=69 velocity=66 time=0.004716983333333332
EXTRACT: note_on channel=5 note=60 velocity=66 time=0
EXTRACT: note_on channel=5 note=52 velocity=66 time=0.004716983333333332
EXTRACT: note_on channel=5 note=45 velocity=0 time=0.004716983333333332
EXTRACT: note_on channel=5 note=45 velocity=67 time=0
EXTRACT: note_on channel=5 note=64 velocity=66 time=0
EXTRACT: note_on channel=9 note=42 velocity=75 time=0
EXTRACT: note_on channel=9 note=75 velocity=50 time=0
EXTRACT: note_on channel=9 note=27 velocity=75 time=0
EXTRACT: note_on channel=9 note=39 velocity=68 time=0
EXTRACT: note_on channel=9 note=75 velocity=50 time=0.004716983333333332
EXTRACT: note_on channel=9 note=27 velocity=75 time=0
EXTRACT: note_on channel=9 note=39 velocity=78 time=0
EXTRACT: note_on channel=9 note=42 velocity=75 time=0
EXTRACT: note_on channel=9 note=39 velocity=0 time=0.01886793333333333
EXTRACT: note_on channel=9 note=27 velocity=0 time=0
EXTRACT: note_on channel=9 note=42 velocity=0 time=0
EXTRACT: note_on channel=9 note=75 velocity=0 time=0
EXTRACT: note_on channel=9 note=27 velocity=0 time=0.06603776666666665
EXTRACT: note_on channel=9 note=75 velocity=0 time=0.01886793333333333
EXTRACT: note_on channel=9 note=42 velocity=0 time=0.004716983333333332
EXTRACT: note_on channel=9 note=39 velocity=0 time=0.023584916666666664
EXTRACT: note_on channel=9 note=39 velocity=52 time=0.009433966666666665
EXTRACT: note_on channel=9 note=39 velocity=0 time=0.08018871666666665
EXTRACT: note_on channel=5 note=45 velocity=0 time=0.051886816666666655
EXTRACT: note_on channel=5 note=45 velocity=67 time=0
EXTRACT: note_on channel=9 note=42 velocity=75 time=0
EXTRACT: note_on channel=9 note=35 velocity=75 time=0
EXTRACT: note_on channel=6 note=57 velocity=52 time=0.004716983333333332
EXTRACT: note_on channel=9 note=75 velocity=46 time=0
EXTRACT: note_on channel=0 note=45 velocity=48 time=0.004716983333333332
EXTRACT: note_on channel=1 note=33 velocity=83 time=0
EXTRACT: note_on channel=6 note=64 velocity=50 time=0
EXTRACT: note_on channel=0 note=64 velocity=45 time=0.004716983333333332
EXTRACT: note_on channel=0 note=60 velocity=45 time=0
EXTRACT: note_on channel=0 note=57 velocity=45 time=0
EXTRACT: note_on channel=6 note=52 velocity=52 time=0
EXTRACT: note_on channel=9 note=35 velocity=0 time=0.01886793333333333
EXTRACT: note_on channel=9 note=42 velocity=0 time=0
EXTRACT: note_on channel=9 note=75 velocity=0 time=0.004716983333333332
EXTRACT: note_on channel=9 note=42 velocity=60 time=0.2452831333333333
EXTRACT: note_on channel=5 note=45 velocity=0 time=0.004716983333333332
EXTRACT: note_on channel=5 note=45 velocity=67 time=0.004716983333333332
EXTRACT: note_on channel=7 note=69 velocity=100 time=0.014150949999999997
EXTRACT: note_on channel=9 note=42 velocity=0 time=0.009433966666666665
EXTRACT: note_on channel=5 note=45 velocity=0 time=0.2358491666666666
EXTRACT: note_on channel=5 note=57 velocity=0 time=0
EXTRACT: note_on channel=5 note=64 velocity=0 time=0
EXTRACT: note_on channel=5 note=69 velocity=0 time=0.004716983333333332
EXTRACT: note_on channel=5 note=52 velocity=0 time=0
EXTRACT: note_on channel=5 note=52 velocity=34 time=0.004716983333333332
EXTRACT: note_on channel=5 note=60 velocity=0 time=0.004716983333333332
EXTRACT: note_on channel=5 note=45 velocity=67 time=0
EXTRACT: note_on channel=5 note=69 velocity=66 time=0
EXTRACT: note_on channel=5 note=64 velocity=67 time=0
EXTRACT: note_on channel=5 note=60 velocity=67 time=0
EXTRACT: note_on channel=5 note=57 velocity=70 time=0
EXTRACT: note_on channel=9 note=75 velocity=56 time=0
EXTRACT: note_on channel=9 note=42 velocity=75 time=0
EXTRACT: note_on channel=9 note=27 velocity=75 time=0
EXTRACT: note_on channel=9 note=39 velocity=75 time=0
EXTRACT: note_on channel=7 note=69 velocity=0 time=0.01886793333333333
EXTRACT: note_on channel=7 note=69 velocity=100 time=0
EXTRACT: note_on channel=9 note=39 velocity=0 time=0.014150949999999997
EXTRACT: note_on channel=9 note=75 velocity=0 time=0
EXTRACT: note_on channel=9 note=42 velocity=0 time=0
EXTRACT: note_on channel=9 note=27 velocity=0 time=0
EXTRACT: note_on channel=1 note=33 velocity=0 time=0.22169821666666661
EXTRACT: note_on channel=5 note=45 velocity=0 time=0.004716983333333332
EXTRACT: note_on channel=5 note=45 velocity=67 time=0.014150949999999997
EXTRACT: note_on channel=9 note=42 velocity=75 time=0.009433966666666665
EXTRACT: note_on channel=9 note=35 velocity=75 time=0
EXTRACT: note_on channel=9 note=27 velocity=75 time=0
EXTRACT: note_on channel=9 note=75 velocity=44 time=0
EXTRACT: note_on channel=1 note=33 velocity=54 time=0.009433966666666665
EXTRACT: note_on channel=7 note=69 velocity=0 time=0.004716983333333332
EXTRACT: note_on channel=7 note=69 velocity=100 time=0.004716983333333332
EXTRACT: note_on channel=9 note=75 velocity=0 time=0.014150949999999997
EXTRACT: note_on channel=9 note=42 velocity=0 time=0
EXTRACT: note_on channel=9 note=35 velocity=0 time=0
EXTRACT: note_on channel=9 note=27 velocity=0 time=0
EXTRACT: note_on channel=9 note=35 velocity=100 time=0.1179245833333333
EXTRACT: note_on channel=9 note=35 velocity=0 time=0.07075474999999999
EXTRACT: note_on channel=5 note=45 velocity=0 time=0.028301899999999994
EXTRACT: note_on channel=1 note=33 velocity=0 time=0.023584916666666664
EXTRACT: note_on channel=5 note=45 velocity=67 time=0.009433966666666665
EXTRACT: note_on channel=9 note=42 velocity=75 time=0
EXTRACT: note_on channel=9 note=27 velocity=75 time=0
EXTRACT: note_on channel=1 note=33 velocity=68 time=0.009433966666666665
EXTRACT: note_on channel=9 note=35 velocity=75 time=0
EXTRACT: note_on channel=7 note=69 velocity=0 time=0.004716983333333332
EXTRACT: note_on channel=7 note=69 velocity=100 time=0.009433966666666665
EXTRACT: note_on channel=9 note=27 velocity=0 time=0.009433966666666665
EXTRACT: note_on channel=9 note=42 velocity=0 time=0
EXTRACT: note_on channel=9 note=35 velocity=0 time=0.009433966666666665
EXTRACT: note_on channel=5 note=57 velocity=0 time=0.1745283833333333
EXTRACT: note_on channel=5 note=52 velocity=0 time=0
EXTRACT: note_on channel=5 note=69 velocity=0 time=0
EXTRACT: note_on channel=5 note=60 velocity=0 time=0.009433966666666665
EXTRACT: note_on channel=5 note=64 velocity=0 time=0.004716983333333332
EXTRACT: note_on channel=5 note=52 velocity=66 time=0.014150949999999997
EXTRACT: note_on channel=5 note=57 velocity=66 time=0
EXTRACT: note_on channel=5 note=60 velocity=66 time=0
EXTRACT: note_on channel=5 note=69 velocity=66 time=0
EXTRACT: note_on channel=5 note=64 velocity=66 time=0.004716983333333332
EXTRACT: note_on channel=5 note=45 velocity=0 time=0.009433966666666665
EXTRACT: note_on channel=5 note=45 velocity=67 time=0.004716983333333332
EXTRACT: note_on channel=9 note=75 velocity=46 time=0.01886793333333333
EXTRACT: note_on channel=9 note=42 velocity=54 time=0
EXTRACT: note_on channel=7 note=69 velocity=0 time=0.01886793333333333
EXTRACT: note_on channel=7 note=64 velocity=100 time=0
EXTRACT: note_on channel=9 note=42 velocity=0 time=0.014150949999999997
EXTRACT: note_on channel=9 note=75 velocity=0 time=0
EXTRACT: note_on channel=5 note=45 velocity=0 time=0.20754726666666662
EXTRACT: note_on channel=5 note=45 velocity=67 time=0.04245284999999999
EXTRACT: note_on channel=9 note=75 velocity=50 time=0
EXTRACT: note_on channel=9 note=42 velocity=75 time=0
EXTRACT: note_on channel=9 note=27 velocity=75 time=0
EXTRACT: note_on channel=9 note=39 velocity=75 time=0
EXTRACT: note_on channel=7 note=64 velocity=0 time=0.014150949999999997
EXTRACT: note_on channel=7 note=64 velocity=100 time=0.009433966666666665
EXTRACT: note_on channel=9 note=39 velocity=0 time=0.009433966666666665
EXTRACT: note_on channel=9 note=75 velocity=0 time=0
EXTRACT: note_on channel=9 note=42 velocity=0 time=0
EXTRACT: note_on channel=9 note=27 velocity=0 time=0
EXTRACT: note_on channel=5 note=57 velocity=0 time=0.22169821666666661
EXTRACT: note_on channel=5 note=52 velocity=0 time=0
EXTRACT: note_on channel=5 note=60 velocity=0 time=0
EXTRACT: note_on channel=5 note=69 velocity=0 time=0
EXTRACT: note_on channel=5 note=64 velocity=0 time=0.004716983333333332
EXTRACT: note_on channel=5 note=57 velocity=66 time=0.004716983333333332
EXTRACT: note_on channel=5 note=69 velocity=66 time=0.004716983333333332
EXTRACT: note_on channel=5 note=60 velocity=66 time=0
EXTRACT: note_on channel=5 note=52 velocity=66 time=0.004716983333333332
EXTRACT: note_on channel=5 note=45 velocity=0 time=0.004716983333333332
EXTRACT: note_on channel=5 note=45 velocity=67 time=0
EXTRACT: note_on channel=5 note=64 velocity=66 time=0
EXTRACT: note_on channel=9 note=42 velocity=56 time=0.004716983333333332
EXTRACT: note_on channel=9 note=27 velocity=75 time=0
EXTRACT: note_on channel=9 note=75 velocity=50 time=0
EXTRACT: note_on channel=7 note=64 velocity=0 time=0.01886793333333333
EXTRACT: note_on channel=7 note=62 velocity=100 time=0
EXTRACT: note_on channel=9 note=27 velocity=0 time=0.07075474999999999
EXTRACT: note_on channel=9 note=75 velocity=0 time=0.01886793333333333
EXTRACT: note_on channel=9 note=42 velocity=0 time=0.004716983333333332
EXTRACT: note_on channel=1 note=33 velocity=0 time=0.06132078333333332
EXTRACT: note_on channel=0 note=57 velocity=0 time=0.08490569999999999
EXTRACT: note_on channel=0 note=45 velocity=0 time=0
EXTRACT: note_on channel=0 note=64 velocity=0 time=0
EXTRACT: note_on channel=0 note=60 velocity=0 time=0
EXTRACT: note_on channel=6 note=52 velocity=0 time=0
EXTRACT: note_on channel=6 note=64 velocity=0 time=0
EXTRACT: note_on channel=6 note=57 velocity=0 time=0
EXTRACT: note_on channel=5 note=45 velocity=0 time=0.014150949999999997
EXTRACT: note_on channel=5 note=52 velocity=0 time=0.004716983333333332
EXTRACT: note_on channel=9 note=75 velocity=46 time=0.004716983333333332
EXTRACT: note_on channel=9 note=35 velocity=75 time=0
EXTRACT: note_on channel=6 note=59 velocity=52 time=0.004716983333333332
EXTRACT: note_on channel=9 note=42 velocity=75 time=0
EXTRACT: note_on channel=0 note=40 velocity=48 time=0.004716983333333332
EXTRACT: note_on channel=1 note=28 velocity=83 time=0
EXTRACT: note_on channel=5 note=52 velocity=66 time=0
EXTRACT: note_on channel=6 note=67 velocity=50 time=0
EXTRACT: note_on channel=0 note=64 velocity=45 time=0.004716983333333332
EXTRACT: note_on channel=0 note=59 velocity=45 time=0
EXTRACT: note_on channel=0 note=55 velocity=45 time=0
EXTRACT: note_on channel=6 note=55 velocity=52 time=0
EXTRACT: note_on channel=7 note=62 velocity=0 time=0
EXTRACT: note_on channel=7 note=62 velocity=100 time=0.009433966666666665
EXTRACT: note_on channel=9 note=35 velocity=0 time=0.009433966666666665
EXTRACT: note_on channel=9 note=42 velocity=0 time=0.004716983333333332
EXTRACT: note_on channel=9 note=75 velocity=0 time=0.04716983333333333
EXTRACT: note_on channel=9 note=42 velocity=58 time=0.19811329999999996
EXTRACT: note_on channel=5 note=52 velocity=0 time=0.004716983333333332
EXTRACT: note_on channel=5 note=52 velocity=66 time=0
EXTRACT: note_on channel=7 note=64 velocity=100 time=0
EXTRACT: note_on channel=7 note=62 velocity=0 time=0.014150949999999997
EXTRACT: note_on channel=9 note=42 velocity=0 time=0.014150949999999997
EXTRACT: note_on channel=9 note=42 velocity=40 time=0.10849061666666665
EXTRACT: note_on channel=9 note=42 velocity=0 time=0.08490569999999999
EXTRACT: note_on channel=5 note=69 velocity=0 time=0.033018883333333325
EXTRACT: note_on channel=5 note=64 velocity=0 time=0.004716983333333332
EXTRACT: note_on channel=5 note=57 velocity=0 time=0
EXTRACT: note_on channel=5 note=60 velocity=0 time=0
EXTRACT: note_on channel=5 note=67 velocity=70 time=0.014150949999999997
EXTRACT: note_on channel=5 note=59 velocity=70 time=0
EXTRACT: note_on channel=5 note=52 velocity=0 time=0.004716983333333332
EXTRACT: note_on channel=5 note=64 velocity=70 time=0
EXTRACT: note_on channel=5 note=52 velocity=66 time=0
EXTRACT: note_on channel=7 note=64 velocity=0 time=0
EXTRACT: note_on channel=9 note=27 velocity=75 time=0
EXTRACT: note_on channel=9 note=75 velocity=56 time=0
EXTRACT: note_on channel=9 note=42 velocity=75 time=0
EXTRACT: note_on channel=9 note=39 velocity=75 time=0
EXTRACT: note_on channel=5 note=71 velocity=66 time=0.004716983333333332
EXTRACT: note_on channel=7 note=64 velocity=100 time=0.004716983333333332
EXTRACT: note_on channel=9 note=39 velocity=0 time=0.023584916666666664
EXTRACT: note_on channel=9 note=27 velocity=0 time=0
EXTRACT: note_on channel=9 note=75 velocity=0 time=0
EXTRACT: note_on channel=9 note=42 velocity=0 time=0
EXTRACT: note_on channel=1 note=28 velocity=0 time=0.22169821666666661
EXTRACT: note_on channel=5 note=52 velocity=0 time=0.023584916666666664
EXTRACT: note_on channel=5 note=52 velocity=66 time=0
EXTRACT: note_on channel=9 note=75 velocity=44 time=0.004716983333333332
EXTRACT: note_on channel=9 note=42 velocity=52 time=0
EXTRACT: note_on channel=9 note=27 velocity=75 time=0
EXTRACT: note_on channel=9 note=35 velocity=75 time=0
EXTRACT: note_on channel=7 note=64 velocity=0 time=0.004716983333333332
EXTRACT: note_on channel=1 note=28 velocity=54 time=0.004716983333333332
EXTRACT: note_on channel=9 note=35 velocity=0 time=0.023584916666666664
EXTRACT: note_on channel=9 note=75 velocity=0 time=0
EXTRACT: note_on channel=9 note=42 velocity=0 time=0
EXTRACT: note_on channel=9 note=27 velocity=0 time=0
EXTRACT: note_on channel=9 note=35 velocity=75 time=0.09905664999999998
EXTRACT: note_on channel=9 note=35 velocity=0 time=0.033018883333333325
EXTRACT: note_on channel=1 note=28 velocity=0 time=0.10849061666666665
EXTRACT: note_on channel=5 note=52 velocity=0 time=0
EXTRACT: note_on channel=5 note=52 velocity=66 time=0.009433966666666665
EXTRACT: note_on channel=9 note=42 velocity=75 time=0
EXTRACT: note_on channel=9 note=27 velocity=75 time=0
EXTRACT: note_on channel=9 note=75 velocity=46 time=0
EXTRACT: note_on channel=1 note=28 velocity=68 time=0.009433966666666665
EXTRACT: note_on channel=9 note=35 velocity=75 time=0.004716983333333332
EXTRACT: note_on channel=9 note=75 velocity=0 time=0.01886793333333333
EXTRACT: note_on channel=9 note=42 velocity=0 time=0
EXTRACT: note_on channel=9 note=27 velocity=0 time=0
EXTRACT: note_on channel=9 note=35 velocity=0 time=0.014150949999999997
EXTRACT: note_on channel=5 note=67 velocity=0 time=0.19339631666666662
EXTRACT: note_on channel=5 note=71 velocity=0 time=0.014150949999999997
EXTRACT: note_on channel=5 note=59 velocity=0 time=0
EXTRACT: note_on channel=5 note=71 velocity=45 time=0.014150949999999997
EXTRACT: note_on channel=5 note=64 velocity=0 time=0.004716983333333332
EXTRACT: note_on channel=5 note=67 velocity=77 time=0
EXTRACT: note_on channel=5 note=59 velocity=56 time=0
EXTRACT: note_on channel=5 note=52 velocity=0 time=0.004716983333333332
EXTRACT: note_on channel=5 note=52 velocity=66 time=0
EXTRACT: note_on channel=5 note=64 velocity=85 time=0
EXTRACT: note_on channel=9 note=42 velocity=75 time=0.004716983333333332
EXTRACT: note_on channel=9 note=42 velocity=0 time=0.033018883333333325
EXTRACT: note_on channel=5 note=52 velocity=0 time=0.24056614999999995
EXTRACT: note_on channel=5 note=52 velocity=66 time=0.009433966666666665
EXTRACT: note_on channel=9 note=75 velocity=50 time=0
EXTRACT: note_on channel=9 note=42 velocity=75 time=0
EXTRACT: note_on channel=9 note=39 velocity=75 time=0
EXTRACT: note_on channel=9 note=27 velocity=75 time=0
EXTRACT: note_on channel=9 note=27 velocity=0 time=0.033018883333333325
EXTRACT: note_on channel=9 note=75 velocity=0 time=0
EXTRACT: note_on channel=9 note=42 velocity=0 time=0
EXTRACT: note_on channel=9 note=39 velocity=0 time=0
EXTRACT: note_on channel=5 note=71 velocity=0 time=0.19339631666666662
EXTRACT: note_on channel=5 note=67 velocity=0 time=0.004716983333333332
EXTRACT: note_on channel=5 note=64 velocity=0 time=0.004716983333333332
EXTRACT: note_on channel=5 note=59 velocity=0 time=0.014150949999999997
EXTRACT: note_on channel=5 note=71 velocity=56 time=0.004716983333333332
EXTRACT: note_on channel=5 note=64 velocity=56 time=0
EXTRACT: note_on channel=5 note=67 velocity=56 time=0.004716983333333332
EXTRACT: note_on channel=5 note=59 velocity=56 time=0.004716983333333332
EXTRACT: note_on channel=5 note=52 velocity=0 time=0.014150949999999997
EXTRACT: note_on channel=9 note=42 velocity=75 time=0.004716983333333332
EXTRACT: note_on channel=9 note=27 velocity=75 time=0
EXTRACT: note_on channel=9 note=75 velocity=50 time=0
EXTRACT: note_on channel=5 note=52 velocity=66 time=0.004716983333333332
EXTRACT: note_on channel=9 note=27 velocity=0 time=0.08490569999999999
EXTRACT: note_on channel=9 note=75 velocity=0 time=0.01886793333333333
EXTRACT: note_on channel=9 note=42 velocity=0 time=0.004716983333333332
EXTRACT: note_on channel=1 note=28 velocity=0 time=0.06132078333333332
EXTRACT: note_on channel=0 note=55 velocity=0 time=0.08490569999999999
EXTRACT: note_on channel=0 note=40 velocity=0 time=0
EXTRACT: note_on channel=0 note=64 velocity=0 time=0
EXTRACT: note_on channel=0 note=59 velocity=0 time=0
EXTRACT: note_on channel=6 note=55 velocity=0 time=0
EXTRACT: note_on channel=6 note=67 velocity=0 time=0
EXTRACT: note_on channel=6 note=59 velocity=0 time=0
EXTRACT: note_on channel=5 note=52 velocity=0 time=0.023584916666666664
EXTRACT: note_on channel=5 note=50 velocity=66 time=0
EXTRACT: note_on channel=9 note=75 velocity=46 time=0
EXTRACT: note_on channel=9 note=35 velocity=75 time=0
EXTRACT: note_on channel=1 note=38 velocity=75 time=0.004716983333333332
EXTRACT: note_on channel=6 note=62 velocity=52 time=0
EXTRACT: note_on channel=9 note=42 velocity=75 time=0
EXTRACT: note_on channel=0 note=50 velocity=48 time=0.004716983333333332
EXTRACT: note_on channel=6 note=69 velocity=50 time=0
EXTRACT: note_on channel=0 note=66 velocity=45 time=0.004716983333333332
EXTRACT: note_on channel=0 note=62 velocity=45 time=0
EXTRACT: note_on channel=0 note=57 velocity=45 time=0
EXTRACT: note_on channel=6 note=57 velocity=52 time=0
EXTRACT: note_on channel=9 note=35 velocity=0 time=0.01886793333333333
EXTRACT: note_on channel=9 note=42 velocity=0 time=0.004716983333333332
EXTRACT: note_on channel=9 note=75 velocity=0 time=0.04716983333333333
EXTRACT: note_on channel=5 note=50 velocity=0 time=0.19339631666666662
EXTRACT: note_on channel=5 note=50 velocity=66 time=0
EXTRACT: note_on channel=7 note=66 velocity=100 time=0.004716983333333332
EXTRACT: note_on channel=9 note=42 velocity=58 time=0
EXTRACT: note_on channel=9 note=42 velocity=0 time=0.033018883333333325
EXTRACT: note_on channel=5 note=50 velocity=0 time=0.24056614999999995
EXTRACT: note_on channel=5 note=59 velocity=0 time=0
EXTRACT: note_on channel=5 note=71 velocity=0 time=0
EXTRACT: note_on channel=5 note=67 velocity=0 time=0
EXTRACT: note_on channel=5 note=64 velocity=0 time=0.004716983333333332
EXTRACT: note_on channel=7 note=66 velocity=0 time=0
EXTRACT: note_on channel=5 note=50 velocity=66 time=0.004716983333333332
EXTRACT: note_on channel=5 note=69 velocity=66 time=0
EXTRACT: note_on channel=5 note=66 velocity=67 time=0
EXTRACT: note_on channel=9 note=27 velocity=75 time=0
EXTRACT: note_on channel=9 note=39 velocity=75 time=0
EXTRACT: note_on channel=9 note=42 velocity=75 time=0
EXTRACT: note_on channel=9 note=75 velocity=56 time=0
EXTRACT: note_on channel=5 note=62 velocity=67 time=0.004716983333333332
EXTRACT: note_on channel=5 note=57 velocity=70 time=0
EXTRACT: note_on channel=7 note=66 velocity=100 time=0.014150949999999997
EXTRACT: note_on channel=9 note=75 velocity=0 time=0.014150949999999997
EXTRACT: note_on channel=9 note=27 velocity=0 time=0
EXTRACT: note_on channel=9 note=39 velocity=0 time=0
EXTRACT: note_on channel=9 note=42 velocity=0 time=0
EXTRACT: note_on channel=1 note=38 velocity=0 time=0.16509441666666663
EXTRACT: note_on channel=5 note=50 velocity=0 time=0.08018871666666665
EXTRACT: note_on channel=5 note=50 velocity=66 time=0
EXTRACT: note_on channel=9 note=75 velocity=44 time=0.004716983333333332
EXTRACT: note_on channel=9 note=42 velocity=52 time=0
EXTRACT: note_on channel=9 note=35 velocity=75 time=0
EXTRACT: note_on channel=9 note=27 velocity=75 time=0
EXTRACT: note_on channel=1 note=38 velocity=75 time=0.004716983333333332
EXTRACT: note_on channel=7 note=66 velocity=0 time=0.009433966666666665
EXTRACT: note_on channel=7 note=66 velocity=100 time=0.004716983333333332
EXTRACT: note_on channel=9 note=27 velocity=0 time=0.014150949999999997
EXTRACT: note_on channel=9 note=75 velocity=0 time=0
EXTRACT: note_on channel=9 note=42 velocity=0 time=0
EXTRACT: note_on channel=9 note=35 velocity=0 time=0
EXTRACT: note_on channel=9 note=35 velocity=75 time=0.09433966666666666
EXTRACT: note_on channel=9 note=35 velocity=0 time=0.033018883333333325
EXTRACT: note_on channel=5 note=50 velocity=0 time=0.11320759999999998
EXTRACT: note_on channel=5 note=50 velocity=66 time=0.009433966666666665
EXTRACT: note_on channel=9 note=75 velocity=46 time=0
EXTRACT: note_on channel=9 note=42 velocity=75 time=0
EXTRACT: note_on channel=9 note=27 velocity=75 time=0
EXTRACT: note_on channel=9 note=35 velocity=75 time=0.004716983333333332
EXTRACT: note_on channel=7 note=66 velocity=0 time=0.009433966666666665
EXTRACT: note_on channel=7 note=66 velocity=100 time=0.009433966666666665
EXTRACT: note_on channel=9 note=27 velocity=0 time=0.009433966666666665
EXTRACT: note_on channel=9 note=75 velocity=0 time=0
EXTRACT: note_on channel=9 note=42 velocity=0 time=0
EXTRACT: note_on channel=9 note=35 velocity=0 time=0.004716983333333332
EXTRACT: note_on channel=5 note=57 velocity=0 time=0.22169821666666661
EXTRACT: note_on channel=5 note=69 velocity=0 time=0
EXTRACT: note_on channel=5 note=62 velocity=0 time=0.009433966666666665
EXTRACT: note_on channel=5 note=66 velocity=0 time=0.004716983333333332
EXTRACT: note_on channel=5 note=50 velocity=0 time=0.004716983333333332
EXTRACT: note_on channel=5 note=57 velocity=66 time=0
EXTRACT: note_on channel=5 note=62 velocity=66 time=0
EXTRACT: note_on channel=5 note=69 velocity=66 time=0
EXTRACT: note_on channel=5 note=50 velocity=66 time=0
EXTRACT: note_on channel=9 note=42 velocity=75 time=0.004716983333333332
EXTRACT: note_on channel=5 note=66 velocity=66 time=0.004716983333333332
EXTRACT: note_on channel=7 note=62 velocity=100 time=0.004716983333333332
EXTRACT: note_on channel=7 note=66 velocity=0 time=0.009433966666666665
EXTRACT: note_on channel=9 note=42 velocity=0 time=0.014150949999999997
EXTRACT: note_on channel=5 note=50 velocity=0 time=0.24056614999999995
EXTRACT: note_on channel=5 note=50 velocity=66 time=0.004716983333333332
EXTRACT: note_on channel=9 note=75 velocity=50 time=0.004716983333333332
EXTRACT: note_on channel=9 note=27 velocity=75 time=0
EXTRACT: note_on channel=9 note=39 velocity=75 time=0
EXTRACT: note_on channel=9 note=42 velocity=75 time=0
EXTRACT: note_on channel=7 note=62 velocity=0 time=0.004716983333333332
EXTRACT: note_on channel=7 note=62 velocity=100 time=0.014150949999999997
EXTRACT: note_on channel=9 note=42 velocity=0 time=0.014150949999999997
EXTRACT: note_on channel=9 note=75 velocity=0 time=0
EXTRACT: note_on channel=9 note=27 velocity=0 time=0
EXTRACT: note_on channel=9 note=39 velocity=0 time=0
EXTRACT: note_on channel=1 note=38 velocity=0 time=0.15094346666666664
EXTRACT: note_on channel=5 note=66 velocity=0 time=0.07547173333333332
EXTRACT: note_on channel=5 note=69 velocity=0 time=0.004716983333333332
EXTRACT: note_on channel=5 note=57 velocity=0 time=0.009433966666666665
EXTRACT: note_on channel=5 note=62 velocity=0 time=0
EXTRACT: note_on channel=5 note=50 velocity=0 time=0
EXTRACT: note_on channel=5 note=50 velocity=66 time=0.004716983333333332
EXTRACT: note_on channel=5 note=57 velocity=66 time=0
EXTRACT: note_on channel=1 note=38 velocity=60 time=0.004716983333333332
EXTRACT: note_on channel=9 note=42 velocity=75 time=0
EXTRACT: note_on channel=9 note=27 velocity=75 time=0
EXTRACT: note_on channel=9 note=75 velocity=50 time=0
EXTRACT: note_on channel=5 note=62 velocity=66 time=0.004716983333333332
EXTRACT: note_on channel=5 note=69 velocity=66 time=0.004716983333333332
EXTRACT: note_on channel=5 note=66 velocity=66 time=0
EXTRACT: note_on channel=7 note=62 velocity=0 time=0.004716983333333332
EXTRACT: note_on channel=7 note=59 velocity=100 time=0.004716983333333332
EXTRACT: note_on channel=9 note=27 velocity=0 time=0.07075474999999999
EXTRACT: note_on channel=9 note=75 velocity=0 time=0.01886793333333333
EXTRACT: note_on channel=9 note=42 velocity=0 time=0.004716983333333332
EXTRACT: note_on channel=0 note=57 velocity=0 time=0.1462264833333333
EXTRACT: note_on channel=0 note=50 velocity=0 time=0
EXTRACT: note_on channel=0 note=66 velocity=0 time=0
EXTRACT: note_on channel=0 note=62 velocity=0 time=0
EXTRACT: note_on channel=1 note=38 velocity=0 time=0
EXTRACT: note_on channel=6 note=57 velocity=0 time=0
EXTRACT: note_on channel=6 note=69 velocity=0 time=0
EXTRACT: note_on channel=6 note=62 velocity=0 time=0
EXTRACT: note_on channel=5 note=50 velocity=0 time=0.014150949999999997
EXTRACT: note_on channel=9 note=75 velocity=46 time=0.009433966666666665
EXTRACT: note_on channel=9 note=35 velocity=75 time=0
EXTRACT: note_on channel=5 note=45 velocity=67 time=0.004716983333333332
EXTRACT: note_on channel=6 note=57 velocity=52 time=0
EXTRACT: note_on channel=9 note=42 velocity=75 time=0
EXTRACT: note_on channel=0 note=45 velocity=48 time=0.004716983333333332
EXTRACT: note_on channel=1 note=33 velocity=83 time=0
EXTRACT: note_on channel=3 note=60 velocity=100 time=0
EXTRACT: note_on channel=6 note=64 velocity=50 time=0
EXTRACT: note_on channel=0 note=64 velocity=45 time=0.004716983333333332
EXTRACT: note_on channel=0 note=60 velocity=45 time=0
EXTRACT: note_on channel=0 note=57 velocity=45 time=0
EXTRACT: note_on channel=6 note=52 velocity=52 time=0
EXTRACT: note_on channel=7 note=59 velocity=0 time=0
EXTRACT: note_on channel=7 note=60 velocity=100 time=0
EXTRACT: note_on channel=9 note=35 velocity=0 time=0.01886793333333333
EXTRACT: note_on channel=9 note=42 velocity=0 time=0.004716983333333332
EXTRACT: note_on channel=9 note=75 velocity=0 time=0.04716983333333333
EXTRACT: note_on channel=9 note=42 velocity=58 time=0.19811329999999996
EXTRACT: note_on channel=5 note=45 velocity=0 time=0.009433966666666665
EXTRACT: note_on channel=7 note=60 velocity=0 time=0
EXTRACT: note_on channel=5 note=45 velocity=67 time=0.004716983333333332
EXTRACT: note_on channel=3 note=60 velocity=0 time=0.004716983333333332
EXTRACT: note_on channel=9 note=42 velocity=0 time=0.014150949999999997
EXTRACT: note_on channel=9 note=42 velocity=40 time=0.10849061666666665
EXTRACT: note_on channel=9 note=42 velocity=0 time=0.08490569999999999
EXTRACT: note_on channel=5 note=66 velocity=0 time=0.04245284999999999
EXTRACT: note_on channel=5 note=69 velocity=0 time=0
EXTRACT: note_on channel=5 note=57 velocity=0 time=0
EXTRACT: note_on channel=5 note=45 velocity=0 time=0.004716983333333332
EXTRACT: note_on channel=5 note=62 velocity=0 time=0.004716983333333332
EXTRACT: note_on channel=5 note=52 velocity=34 time=0.004716983333333332
EXTRACT: note_on channel=9 note=27 velocity=75 time=0
EXTRACT: note_on channel=9 note=75 velocity=56 time=0
EXTRACT: note_on channel=9 note=42 velocity=75 time=0
EXTRACT: note_on channel=9 note=39 velocity=75 time=0
EXTRACT: note_on channel=3 note=59 velocity=100 time=0.004716983333333332
EXTRACT: note_on channel=5 note=45 velocity=67 time=0
EXTRACT: note_on channel=5 note=69 velocity=66 time=0
EXTRACT: note_on channel=5 note=64 velocity=67 time=0
EXTRACT: note_on channel=5 note=60 velocity=67 time=0
EXTRACT: note_on channel=5 note=57 velocity=70 time=0
EXTRACT: note_on channel=7 note=59 velocity=100 time=0.009433966666666665
EXTRACT: note_on channel=9 note=39 velocity=0 time=0.01886793333333333
EXTRACT: note_on channel=9 note=27 velocity=0 time=0
EXTRACT: note_on channel=9 note=75 velocity=0 time=0
EXTRACT: note_on channel=9 note=42 velocity=0 time=0
EXTRACT: note_on channel=5 note=45 velocity=0 time=0.2311321833333333
EXTRACT: note_on channel=5 note=45 velocity=67 time=0.014150949999999997
EXTRACT: note_on channel=9 note=39 velocity=85 time=0.004716983333333332
EXTRACT: note_on channel=9 note=27 velocity=75 time=0
EXTRACT: note_on channel=9 note=75 velocity=44 time=0
EXTRACT: note_on channel=9 note=42 velocity=52 time=0
EXTRACT: note_on channel=7 note=59 velocity=0 time=0.009433966666666665
EXTRACT: note_on channel=3 note=59 velocity=0 time=0.004716983333333332
EXTRACT: note_on channel=9 note=42 velocity=0 time=0.01886793333333333
EXTRACT: note_on channel=9 note=39 velocity=0 time=0
EXTRACT: note_on channel=9 note=27 velocity=0 time=0
EXTRACT: note_on channel=9 note=75 velocity=0 time=0
EXTRACT: note_on channel=5 note=45 velocity=0 time=0.22169821666666661
EXTRACT: note_on channel=7 note=57 velocity=100 time=0.028301899999999994
EXTRACT: note_on channel=9 note=42 velocity=75 time=0
EXTRACT: note_on channel=9 note=27 velocity=75 time=0
EXTRACT: note_on channel=9 note=75 velocity=46 time=0
EXTRACT: note_on channel=3 note=57 velocity=100 time=0.004716983333333332
EXTRACT: note_on channel=5 note=45 velocity=67 time=0
EXTRACT: note_on channel=9 note=75 velocity=0 time=0.028301899999999994
EXTRACT: note_on channel=9 note=27 velocity=0 time=0
EXTRACT: note_on channel=9 note=42 velocity=0 time=0
EXTRACT: note_on channel=5 note=69 velocity=0 time=0.19811329999999996
EXTRACT: note_on channel=5 note=64 velocity=0 time=0
EXTRACT: note_on channel=5 note=60 velocity=0 time=0.004716983333333332
EXTRACT: note_on channel=5 note=52 velocity=0 time=0
EXTRACT: note_on channel=5 note=57 velocity=0 time=0
EXTRACT: note_on channel=5 note=52 velocity=66 time=0.014150949999999997
EXTRACT: note_on channel=5 note=57 velocity=66 time=0
EXTRACT: note_on channel=5 note=60 velocity=66 time=0
EXTRACT: note_on channel=5 note=69 velocity=66 time=0
EXTRACT: note_on channel=5 note=64 velocity=66 time=0.004716983333333332
EXTRACT: note_on channel=5 note=45 velocity=0 time=0.009433966666666665
EXTRACT: note_on channel=5 note=45 velocity=67 time=0.004716983333333332
EXTRACT: note_on channel=7 note=57 velocity=0 time=0.009433966666666665
EXTRACT: note_on channel=9 note=42 velocity=75 time=0.004716983333333332
EXTRACT: note_on channel=9 note=35 velocity=75 time=0
EXTRACT: note_on channel=3 note=57 velocity=0 time=0.014150949999999997
EXTRACT: note_on channel=9 note=35 velocity=0 time=0.004716983333333332
EXTRACT: note_on channel=9 note=42 velocity=0 time=0
EXTRACT: note_on channel=9 note=39 velocity=52 time=0.12264156666666665
EXTRACT: note_on channel=9 note=39 velocity=0 time=0.01886793333333333
EXTRACT: note_on channel=5 note=45 velocity=0 time=0.08490569999999999
EXTRACT: note_on channel=9 note=42 velocity=75 time=0.03773586666666666
EXTRACT: note_on channel=9 note=27 velocity=75 time=0
EXTRACT: note_on channel=9 note=75 velocity=50 time=0
EXTRACT: note_on channel=9 note=39 velocity=95 time=0
EXTRACT: note_on channel=5 note=45 velocity=67 time=0.004716983333333332
EXTRACT: note_on channel=3 note=52 velocity=100 time=0.004716983333333332
EXTRACT: note_on channel=7 note=52 velocity=100 time=0
EXTRACT: note_on channel=9 note=39 velocity=0 time=0.009433966666666665
EXTRACT: note_on channel=9 note=42 velocity=0 time=0
EXTRACT: note_on channel=9 note=27 velocity=0 time=0
EXTRACT: note_on channel=9 note=75 velocity=0 time=0
EXTRACT: note_on channel=9 note=39 velocity=60 time=0.12264156666666665
EXTRACT: note_on channel=9 note=39 velocity=0 time=0.01886793333333333
EXTRACT: note_on channel=1 note=33 velocity=0 time=0.05660379999999999
EXTRACT: note_on channel=5 note=57 velocity=0 time=0.04245284999999999
EXTRACT: note_on channel=5 note=52 velocity=0 time=0
EXTRACT: note_on channel=5 note=60 velocity=0 time=0
EXTRACT: note_on channel=5 note=69 velocity=0 time=0
EXTRACT: note_on channel=5 note=64 velocity=0 time=0.004716983333333332
EXTRACT: note_on channel=5 note=57 velocity=66 time=0.004716983333333332
EXTRACT: note_on channel=5 note=69 velocity=66 time=0.004716983333333332
EXTRACT: note_on channel=5 note=60 velocity=66 time=0
EXTRACT: note_on channel=5 note=52 velocity=66 time=0.004716983333333332
EXTRACT: note_on channel=5 note=45 velocity=0 time=0.004716983333333332
EXTRACT: note_on channel=5 note=45 velocity=67 time=0
EXTRACT: note_on channel=5 note=64 velocity=66 time=0
EXTRACT: note_on channel=9 note=75 velocity=50 time=0
EXTRACT: note_on channel=9 note=27 velocity=75 time=0
EXTRACT: note_on channel=9 note=39 velocity=78 time=0
EXTRACT: note_on channel=9 note=42 velocity=75 time=0
EXTRACT: note_on channel=7 note=52 velocity=0 time=0.004716983333333332
EXTRACT: note_on channel=1 note=33 velocity=62 time=0.004716983333333332
EXTRACT: note_on channel=3 note=52 velocity=0 time=0.009433966666666665
EXTRACT: note_on channel=9 note=42 velocity=0 time=0
EXTRACT: note_on channel=9 note=75 velocity=0 time=0
EXTRACT: note_on channel=9 note=27 velocity=0 time=0
EXTRACT: note_on channel=9 note=39 velocity=0 time=0
EXTRACT: note_on channel=9 note=39 velocity=52 time=0.12264156666666665
EXTRACT: note_on channel=9 note=39 velocity=0 time=0.08018871666666665
EXTRACT: note_on channel=0 note=57 velocity=0 time=0.03773586666666666
EXTRACT: note_on channel=0 note=45 velocity=0 time=0
EXTRACT: note_on channel=0 note=64 velocity=0 time=0
EXTRACT: note_on channel=0 note=60 velocity=0 time=0
EXTRACT: note_on channel=1 note=33 velocity=0 time=0
EXTRACT: note_on channel=6 note=52 velocity=0 time=0
EXTRACT: note_on channel=6 note=64 velocity=0 time=0
EXTRACT: note_on channel=6 note=57 velocity=0 time=0
EXTRACT: note_on channel=5 note=45 velocity=0 time=0.01886793333333333
EXTRACT: note_on channel=5 note=45 velocity=67 time=0.004716983333333332
EXTRACT: note_on channel=9 note=42 velocity=75 time=0
EXTRACT: note_on channel=9 note=35 velocity=75 time=0
EXTRACT: note_on channel=6 note=57 velocity=52 time=0.004716983333333332
EXTRACT: note_on channel=9 note=75 velocity=46 time=0
EXTRACT: note_on channel=0 note=45 velocity=48 time=0.004716983333333332
EXTRACT: note_on channel=1 note=33 velocity=83 time=0
EXTRACT: note_on channel=6 note=64 velocity=50 time=0
EXTRACT: note_on channel=0 note=64 velocity=45 time=0.004716983333333332
EXTRACT: note_on channel=0 note=60 velocity=45 time=0
EXTRACT: note_on channel=0 note=57 velocity=45 time=0
EXTRACT: note_on channel=6 note=52 velocity=52 time=0
EXTRACT: note_on channel=9 note=35 velocity=0 time=0.01886793333333333
EXTRACT: note_on channel=9 note=42 velocity=0 time=0
EXTRACT: note_on channel=9 note=75 velocity=0 time=0.004716983333333332
EXTRACT: note_on channel=9 note=42 velocity=60 time=0.2452831333333333
EXTRACT: note_on channel=5 note=45 velocity=0 time=0.004716983333333332
EXTRACT: note_on channel=5 note=45 velocity=67 time=0.004716983333333332
EXTRACT: note_on channel=7 note=69 velocity=100 time=0.009433966666666665
EXTRACT: note_on channel=9 note=42 velocity=0 time=0.014150949999999997
EXTRACT: note_on channel=5 note=45 velocity=0 time=0.2358491666666666
EXTRACT: note_on channel=5 note=57 velocity=0 time=0
EXTRACT: note_on channel=5 note=64 velocity=0 time=0
EXTRACT: note_on channel=5 note=69 velocity=0 time=0.004716983333333332
EXTRACT: note_on channel=5 note=52 velocity=0 time=0
EXTRACT: note_on channel=5 note=52 velocity=34 time=0.004716983333333332
EXTRACT: note_on channel=5 note=60 velocity=0 time=0.004716983333333332
EXTRACT: note_on channel=5 note=45 velocity=67 time=0
EXTRACT: note_on channel=5 note=69 velocity=66 time=0
EXTRACT: note_on channel=5 note=64 velocity=67 time=0
EXTRACT: note_on channel=5 note=60 velocity=67 time=0
EXTRACT: note_on channel=5 note=57 velocity=70 time=0
EXTRACT: note_on channel=9 note=75 velocity=56 time=0
EXTRACT: note_on channel=9 note=42 velocity=75 time=0
EXTRACT: note_on channel=9 note=27 velocity=75 time=0
EXTRACT: note_on channel=9 note=39 velocity=75 time=0
EXTRACT: note_on channel=7 note=69 velocity=0 time=0.014150949999999997
EXTRACT: note_on channel=7 note=69 velocity=100 time=0.009433966666666665
EXTRACT: note_on channel=9 note=39 velocity=0 time=0.009433966666666665
EXTRACT: note_on channel=9 note=75 velocity=0 time=0
EXTRACT: note_on channel=9 note=42 velocity=0 time=0
EXTRACT: note_on channel=9 note=27 velocity=0 time=0
EXTRACT: note_on channel=1 note=33 velocity=0 time=0.22169821666666661
EXTRACT: note_on channel=5 note=45 velocity=0 time=0.004716983333333332
EXTRACT: note_on channel=5 note=45 velocity=67 time=0.014150949999999997
EXTRACT: note_on channel=9 note=42 velocity=75 time=0.009433966666666665
EXTRACT: note_on channel=9 note=35 velocity=75 time=0
EXTRACT: note_on channel=9 note=27 velocity=75 time=0
EXTRACT: note_on channel=9 note=75 velocity=44 time=0
EXTRACT: note_on channel=1 note=33 velocity=54 time=0.009433966666666665
EXTRACT: note_on channel=7 note=69 velocity=0 time=0.009433966666666665
EXTRACT: note_on channel=7 note=69 velocity=100 time=0.004716983333333332
EXTRACT: note_on channel=9 note=75 velocity=0 time=0.009433966666666665
EXTRACT: note_on channel=9 note=42 velocity=0 time=0
EXTRACT: note_on channel=9 note=35 velocity=0 time=0
EXTRACT: note_on channel=9 note=27 velocity=0 time=0
EXTRACT: note_on channel=9 note=35 velocity=100 time=0.1179245833333333
EXTRACT: note_on channel=9 note=35 velocity=0 time=0.07075474999999999
EXTRACT: note_on channel=5 note=45 velocity=0 time=0.028301899999999994
EXTRACT: note_on channel=1 note=33 velocity=0 time=0.023584916666666664
EXTRACT: note_on channel=5 note=45 velocity=67 time=0.009433966666666665
EXTRACT: note_on channel=9 note=42 velocity=75 time=0
EXTRACT: note_on channel=9 note=27 velocity=75 time=0
EXTRACT: note_on channel=1 note=33 velocity=68 time=0.009433966666666665
EXTRACT: note_on channel=9 note=35 velocity=75 time=0
EXTRACT: note_on channel=7 note=69 velocity=0 time=0.009433966666666665
EXTRACT: note_on channel=7 note=69 velocity=100 time=0.009433966666666665
EXTRACT: note_on channel=9 note=27 velocity=0 time=0.004716983333333332
EXTRACT: note_on channel=9 note=42 velocity=0 time=0
EXTRACT: note_on channel=9 note=35 velocity=0 time=0.009433966666666665
EXTRACT: note_on channel=5 note=57 velocity=0 time=0.1745283833333333
EXTRACT: note_on channel=5 note=52 velocity=0 time=0
EXTRACT: note_on channel=5 note=69 velocity=0 time=0
EXTRACT: note_on channel=5 note=60 velocity=0 time=0.009433966666666665
EXTRACT: note_on channel=5 note=64 velocity=0 time=0.004716983333333332
EXTRACT: note_on channel=5 note=52 velocity=66 time=0.014150949999999997
EXTRACT: note_on channel=5 note=57 velocity=66 time=0
EXTRACT: note_on channel=5 note=60 velocity=66 time=0
EXTRACT: note_on channel=5 note=69 velocity=66 time=0
EXTRACT: note_on channel=5 note=64 velocity=66 time=0.004716983333333332
EXTRACT: note_on channel=5 note=45 velocity=0 time=0.009433966666666665
EXTRACT: note_on channel=5 note=45 velocity=67 time=0.004716983333333332
EXTRACT: note_on channel=9 note=75 velocity=46 time=0.01886793333333333
EXTRACT: note_on channel=9 note=42 velocity=54 time=0
EXTRACT: note_on channel=7 note=64 velocity=100 time=0.009433966666666665
EXTRACT: note_on channel=7 note=69 velocity=0 time=0.014150949999999997
EXTRACT: note_on channel=9 note=42 velocity=0 time=0.009433966666666665
EXTRACT: note_on channel=9 note=75 velocity=0 time=0
EXTRACT: note_on channel=5 note=45 velocity=0 time=0.20754726666666662
EXTRACT: note_on channel=5 note=45 velocity=67 time=0.04245284999999999
EXTRACT: note_on channel=9 note=75 velocity=50 time=0
EXTRACT: note_on channel=9 note=42 velocity=75 time=0
EXTRACT: note_on channel=9 note=27 velocity=75 time=0
EXTRACT: note_on channel=9 note=39 velocity=75 time=0
EXTRACT: note_on channel=7 note=64 velocity=0 time=0.004716983333333332
EXTRACT: note_on channel=7 note=64 velocity=100 time=0.009433966666666665
EXTRACT: note_on channel=9 note=39 velocity=0 time=0.01886793333333333
EXTRACT: note_on channel=9 note=75 velocity=0 time=0
EXTRACT: note_on channel=9 note=42 velocity=0 time=0
EXTRACT: note_on channel=9 note=27 velocity=0 time=0
EXTRACT: note_on channel=5 note=57 velocity=0 time=0.22169821666666661
EXTRACT: note_on channel=5 note=52 velocity=0 time=0
EXTRACT: note_on channel=5 note=60 velocity=0 time=0
EXTRACT: note_on channel=5 note=69 velocity=0 time=0
EXTRACT: note_on channel=5 note=64 velocity=0 time=0.004716983333333332
EXTRACT: note_on channel=5 note=57 velocity=66 time=0.004716983333333332
EXTRACT: note_on channel=5 note=69 velocity=66 time=0.004716983333333332
EXTRACT: note_on channel=5 note=60 velocity=66 time=0
EXTRACT: note_on channel=5 note=52 velocity=66 time=0.004716983333333332
EXTRACT: note_on channel=5 note=45 velocity=0 time=0.004716983333333332
EXTRACT: note_on channel=5 note=45 velocity=67 time=0
EXTRACT: note_on channel=5 note=64 velocity=66 time=0
EXTRACT: note_on channel=9 note=42 velocity=56 time=0.004716983333333332
EXTRACT: note_on channel=9 note=27 velocity=75 time=0
EXTRACT: note_on channel=9 note=75 velocity=50 time=0
EXTRACT: note_on channel=7 note=64 velocity=0 time=0.009433966666666665
EXTRACT: note_on channel=7 note=62 velocity=100 time=0
EXTRACT: note_on channel=9 note=27 velocity=0 time=0.08018871666666665
EXTRACT: note_on channel=9 note=75 velocity=0 time=0.01886793333333333
EXTRACT: note_on channel=9 note=42 velocity=0 time=0.004716983333333332
EXTRACT: note_on channel=1 note=33 velocity=0 time=0.06132078333333332
EXTRACT: note_on channel=0 note=57 velocity=0 time=0.08490569999999999
EXTRACT: note_on channel=0 note=45 velocity=0 time=0
EXTRACT: note_on channel=0 note=64 velocity=0 time=0
EXTRACT: note_on channel=0 note=60 velocity=0 time=0
EXTRACT: note_on channel=6 note=52 velocity=0 time=0
EXTRACT: note_on channel=6 note=64 velocity=0 time=0
EXTRACT: note_on channel=6 note=57 velocity=0 time=0
EXTRACT: note_on channel=5 note=45 velocity=0 time=0.014150949999999997
EXTRACT: note_on channel=5 note=52 velocity=0 time=0.004716983333333332
EXTRACT: note_on channel=9 note=75 velocity=46 time=0.004716983333333332
EXTRACT: note_on channel=9 note=35 velocity=75 time=0
EXTRACT: note_on channel=6 note=59 velocity=52 time=0.004716983333333332
EXTRACT: note_on channel=7 note=62 velocity=0 time=0
EXTRACT: note_on channel=9 note=42 velocity=75 time=0
EXTRACT: note_on channel=0 note=40 velocity=48 time=0.004716983333333332
EXTRACT: note_on channel=1 note=28 velocity=83 time=0
EXTRACT: note_on channel=5 note=52 velocity=66 time=0
EXTRACT: note_on channel=6 note=67 velocity=50 time=0
EXTRACT: note_on channel=0 note=64 velocity=45 time=0.004716983333333332
EXTRACT: note_on channel=0 note=59 velocity=45 time=0
EXTRACT: note_on channel=0 note=55 velocity=45 time=0
EXTRACT: note_on channel=6 note=55 velocity=52 time=0
EXTRACT: note_on channel=7 note=62 velocity=100 time=0
EXTRACT: note_on channel=9 note=35 velocity=0 time=0.01886793333333333
EXTRACT: note_on channel=9 note=42 velocity=0 time=0.004716983333333332
EXTRACT: note_on channel=9 note=75 velocity=0 time=0.04716983333333333
EXTRACT: note_on channel=9 note=42 velocity=58 time=0.19811329999999996
EXTRACT: note_on channel=5 note=52 velocity=0 time=0.004716983333333332
EXTRACT: note_on channel=5 note=52 velocity=66 time=0
EXTRACT: note_on channel=7 note=62 velocity=0 time=0.004716983333333332
EXTRACT: note_on channel=7 note=64 velocity=100 time=0
EXTRACT: note_on channel=9 note=42 velocity=0 time=0.023584916666666664
EXTRACT: note_on channel=9 note=42 velocity=40 time=0.10849061666666665
EXTRACT: note_on channel=9 note=42 velocity=0 time=0.08490569999999999
EXTRACT: note_on channel=5 note=69 velocity=0 time=0.033018883333333325
EXTRACT: note_on channel=5 note=64 velocity=0 time=0.004716983333333332
EXTRACT: note_on channel=5 note=57 velocity=0 time=0
EXTRACT: note_on channel=5 note=60 velocity=0 time=0
EXTRACT: note_on channel=5 note=67 velocity=70 time=0.014150949999999997
EXTRACT: note_on channel=5 note=59 velocity=70 time=0
EXTRACT: note_on channel=5 note=52 velocity=0 time=0.004716983333333332
EXTRACT: note_on channel=5 note=64 velocity=70 time=0
EXTRACT: note_on channel=5 note=52 velocity=66 time=0
EXTRACT: note_on channel=9 note=27 velocity=75 time=0
EXTRACT: note_on channel=9 note=75 velocity=56 time=0
EXTRACT: note_on channel=9 note=42 velocity=75 time=0
EXTRACT: note_on channel=9 note=39 velocity=75 time=0
EXTRACT: note_on channel=5 note=71 velocity=66 time=0.004716983333333332
EXTRACT: note_on channel=7 note=64 velocity=0 time=0
EXTRACT: note_on channel=7 note=64 velocity=100 time=0.009433966666666665
EXTRACT: note_on channel=9 note=39 velocity=0 time=0.01886793333333333
EXTRACT: note_on channel=9 note=27 velocity=0 time=0
EXTRACT: note_on channel=9 note=75 velocity=0 time=0
EXTRACT: note_on channel=9 note=42 velocity=0 time=0
EXTRACT: note_on channel=5 note=52 velocity=0 time=0.2452831333333333
EXTRACT: note_on channel=5 note=52 velocity=66 time=0
EXTRACT: note_on channel=9 note=75 velocity=44 time=0.004716983333333332
EXTRACT: note_on channel=9 note=42 velocity=52 time=0
EXTRACT: note_on channel=9 note=27 velocity=75 time=0
EXTRACT: note_on channel=9 note=35 velocity=75 time=0
EXTRACT: note_on channel=7 note=64 velocity=0 time=0.009433966666666665
EXTRACT: note_on channel=9 note=35 velocity=0 time=0.023584916666666664
EXTRACT: note_on channel=9 note=75 velocity=0 time=0
EXTRACT: note_on channel=9 note=42 velocity=0 time=0
EXTRACT: note_on channel=9 note=27 velocity=0 time=0
EXTRACT: note_on channel=9 note=35 velocity=75 time=0.09905664999999998
EXTRACT: note_on channel=9 note=35 velocity=0 time=0.033018883333333325
EXTRACT: note_on channel=5 note=52 velocity=0 time=0.10849061666666665
EXTRACT: note_on channel=5 note=52 velocity=66 time=0.009433966666666665
EXTRACT: note_on channel=9 note=42 velocity=75 time=0
EXTRACT: note_on channel=9 note=27 velocity=75 time=0
EXTRACT: note_on channel=9 note=75 velocity=46 time=0
EXTRACT: note_on channel=9 note=35 velocity=75 time=0.014150949999999997
EXTRACT: note_on channel=9 note=75 velocity=0 time=0.01886793333333333
EXTRACT: note_on channel=9 note=42 velocity=0 time=0
EXTRACT: note_on channel=9 note=27 velocity=0 time=0
EXTRACT: note_on channel=9 note=35 velocity=0 time=0.014150949999999997
EXTRACT: note_on channel=5 note=67 velocity=0 time=0.19339631666666662
EXTRACT: note_on channel=5 note=71 velocity=0 time=0.014150949999999997
EXTRACT: note_on channel=5 note=59 velocity=0 time=0
EXTRACT: note_on channel=5 note=71 velocity=45 time=0.014150949999999997
EXTRACT: note_on channel=5 note=64 velocity=0 time=0.004716983333333332
EXTRACT: note_on channel=5 note=67 velocity=77 time=0
EXTRACT: note_on channel=5 note=59 velocity=56 time=0
EXTRACT: note_on channel=5 note=52 velocity=0 time=0.004716983333333332
EXTRACT: note_on channel=5 note=52 velocity=66 time=0
EXTRACT: note_on channel=5 note=64 velocity=85 time=0
EXTRACT: note_on channel=9 note=42 velocity=75 time=0.004716983333333332
EXTRACT: note_on channel=9 note=42 velocity=0 time=0.033018883333333325
EXTRACT: note_on channel=5 note=52 velocity=0 time=0.24056614999999995
EXTRACT: note_on channel=5 note=52 velocity=66 time=0.009433966666666665
EXTRACT: note_on channel=9 note=75 velocity=50 time=0
EXTRACT: note_on channel=9 note=42 velocity=75 time=0
EXTRACT: note_on channel=9 note=39 velocity=75 time=0
EXTRACT: note_on channel=9 note=27 velocity=75 time=0
EXTRACT: note_on channel=9 note=27 velocity=0 time=0.033018883333333325
EXTRACT: note_on channel=9 note=75 velocity=0 time=0
EXTRACT: note_on channel=9 note=42 velocity=0 time=0
EXTRACT: note_on channel=9 note=39 velocity=0 time=0
EXTRACT: note_on channel=1 note=28 velocity=0 time=0.18396234999999997
EXTRACT: note_on channel=5 note=71 velocity=0 time=0.009433966666666665
EXTRACT: note_on channel=5 note=67 velocity=0 time=0.004716983333333332
EXTRACT: note_on channel=5 note=64 velocity=0 time=0.004716983333333332
EXTRACT: note_on channel=5 note=59 velocity=0 time=0.014150949999999997
EXTRACT: note_on channel=5 note=71 velocity=56 time=0.004716983333333332
EXTRACT: note_on channel=5 note=64 velocity=56 time=0
EXTRACT: note_on channel=5 note=67 velocity=56 time=0.004716983333333332
EXTRACT: note_on channel=5 note=59 velocity=56 time=0.004716983333333332
EXTRACT: note_on channel=5 note=52 velocity=0 time=0.014150949999999997
EXTRACT: note_on channel=9 note=42 velocity=75 time=0.004716983333333332
EXTRACT: note_on channel=9 note=27 velocity=75 time=0
EXTRACT: note_on channel=9 note=75 velocity=50 time=0
EXTRACT: note_on channel=5 note=52 velocity=66 time=0.004716983333333332
EXTRACT: note_on channel=1 note=28 velocity=62 time=0.004716983333333332
EXTRACT: note_on channel=9 note=27 velocity=0 time=0.08018871666666665
EXTRACT: note_on channel=9 note=75 velocity=0 time=0.01886793333333333
EXTRACT: note_on channel=9 note=42 velocity=0 time=0.004716983333333332
EXTRACT: note_on channel=0 note=55 velocity=0 time=0.1462264833333333
EXTRACT: note_on channel=0 note=40 velocity=0 time=0
EXTRACT: note_on channel=0 note=64 velocity=0 time=0
EXTRACT: note_on channel=0 note=59 velocity=0 time=0
EXTRACT: note_on channel=1 note=28 velocity=0 time=0
EXTRACT: note_on channel=6 note=55 velocity=0 time=0
EXTRACT: note_on channel=6 note=67 velocity=0 time=0
EXTRACT: note_on channel=6 note=59 velocity=0 time=0
EXTRACT: note_on channel=5 note=52 velocity=0 time=0.023584916666666664
EXTRACT: note_on channel=5 note=50 velocity=66 time=0
EXTRACT: note_on channel=9 note=75 velocity=46 time=0
EXTRACT: note_on channel=9 note=35 velocity=75 time=0
EXTRACT: note_on channel=6 note=62 velocity=52 time=0.004716983333333332
EXTRACT: note_on channel=9 note=42 velocity=75 time=0
EXTRACT: note_on channel=0 note=50 velocity=48 time=0.004716983333333332
EXTRACT: note_on channel=1 note=38 velocity=83 time=0
EXTRACT: note_on channel=6 note=69 velocity=50 time=0
EXTRACT: note_on channel=0 note=66 velocity=45 time=0.004716983333333332
EXTRACT: note_on channel=0 note=62 velocity=45 time=0
EXTRACT: note_on channel=0 note=57 velocity=45 time=0
EXTRACT: note_on channel=6 note=57 velocity=52 time=0
EXTRACT: note_on channel=9 note=35 velocity=0 time=0.01886793333333333
EXTRACT: note_on channel=9 note=42 velocity=0 time=0.004716983333333332
EXTRACT: note_on channel=9 note=75 velocity=0 time=0.04716983333333333
EXTRACT: note_on channel=5 note=50 velocity=0 time=0.19339631666666662
EXTRACT: note_on channel=5 note=50 velocity=66 time=0
EXTRACT: note_on channel=9 note=42 velocity=58 time=0.004716983333333332
EXTRACT: note_on channel=7 note=66 velocity=100 time=0.009433966666666665
EXTRACT: note_on channel=9 note=42 velocity=0 time=0.023584916666666664
EXTRACT: note_on channel=5 note=50 velocity=0 time=0.24056614999999995
EXTRACT: note_on channel=5 note=59 velocity=0 time=0
EXTRACT: note_on channel=5 note=71 velocity=0 time=0
EXTRACT: note_on channel=5 note=67 velocity=0 time=0
EXTRACT: note_on channel=5 note=64 velocity=0 time=0.004716983333333332
EXTRACT: note_on channel=5 note=50 velocity=66 time=0.004716983333333332
EXTRACT: note_on channel=5 note=69 velocity=66 time=0
EXTRACT: note_on channel=5 note=66 velocity=67 time=0
EXTRACT: note_on channel=9 note=27 velocity=75 time=0
EXTRACT: note_on channel=9 note=39 velocity=75 time=0
EXTRACT: note_on channel=9 note=42 velocity=75 time=0
EXTRACT: note_on channel=9 note=75 velocity=56 time=0
EXTRACT: note_on channel=5 note=62 velocity=67 time=0.004716983333333332
EXTRACT: note_on channel=5 note=57 velocity=70 time=0
EXTRACT: note_on channel=7 note=66 velocity=0 time=0
EXTRACT: note_on channel=7 note=66 velocity=100 time=0.014150949999999997
EXTRACT: note_on channel=9 note=75 velocity=0 time=0.014150949999999997
EXTRACT: note_on channel=9 note=27 velocity=0 time=0
EXTRACT: note_on channel=9 note=39 velocity=0 time=0
EXTRACT: note_on channel=9 note=42 velocity=0 time=0
EXTRACT: note_on channel=1 note=38 velocity=0 time=0.22169821666666661
EXTRACT: note_on channel=5 note=50 velocity=0 time=0.023584916666666664
EXTRACT: note_on channel=5 note=50 velocity=66 time=0
EXTRACT: note_on channel=9 note=75 velocity=44 time=0.004716983333333332
EXTRACT: note_on channel=9 note=42 velocity=52 time=0
EXTRACT: note_on channel=9 note=35 velocity=75 time=0
EXTRACT: note_on channel=9 note=27 velocity=75 time=0
EXTRACT: note_on channel=1 note=38 velocity=54 time=0.009433966666666665
EXTRACT: note_on channel=7 note=66 velocity=0 time=0.004716983333333332
EXTRACT: note_on channel=7 note=66 velocity=100 time=0
EXTRACT: note_on channel=9 note=27 velocity=0 time=0.01886793333333333
EXTRACT: note_on channel=9 note=75 velocity=0 time=0
EXTRACT: note_on channel=9 note=42 velocity=0 time=0
EXTRACT: note_on channel=9 note=35 velocity=0 time=0
EXTRACT: note_on channel=9 note=35 velocity=75 time=0.09433966666666666
EXTRACT: note_on channel=9 note=35 velocity=0 time=0.033018883333333325
EXTRACT: note_on channel=1 note=38 velocity=0 time=0.11320759999999998
EXTRACT: note_on channel=5 note=50 velocity=0 time=0
EXTRACT: note_on channel=5 note=50 velocity=66 time=0.009433966666666665
EXTRACT: note_on channel=9 note=75 velocity=46 time=0
EXTRACT: note_on channel=9 note=42 velocity=75 time=0
EXTRACT: note_on channel=9 note=27 velocity=75 time=0
EXTRACT: note_on channel=9 note=35 velocity=75 time=0.004716983333333332
EXTRACT: note_on channel=1 note=38 velocity=68 time=0.004716983333333332
EXTRACT: note_on channel=7 note=66 velocity=0 time=0
EXTRACT: note_on channel=7 note=66 velocity=100 time=0.009433966666666665
EXTRACT: note_on channel=9 note=27 velocity=0 time=0.014150949999999997
EXTRACT: note_on channel=9 note=75 velocity=0 time=0
EXTRACT: note_on channel=9 note=42 velocity=0 time=0
EXTRACT: note_on channel=9 note=35 velocity=0 time=0.004716983333333332
EXTRACT: note_on channel=5 note=57 velocity=0 time=0.22169821666666661
EXTRACT: note_on channel=5 note=69 velocity=0 time=0
EXTRACT: note_on channel=5 note=62 velocity=0 time=0.009433966666666665
EXTRACT: note_on channel=5 note=66 velocity=0 time=0.004716983333333332
EXTRACT: note_on channel=5 note=50 velocity=0 time=0.004716983333333332
EXTRACT: note_on channel=5 note=57 velocity=66 time=0
EXTRACT: note_on channel=5 note=62 velocity=66 time=0
EXTRACT: note_on channel=5 note=69 velocity=66 time=0
EXTRACT: note_on channel=5 note=50 velocity=66 time=0
EXTRACT: note_on channel=9 note=42 velocity=75 time=0.004716983333333332
EXTRACT: note_on channel=5 note=66 velocity=66 time=0.004716983333333332
EXTRACT: note_on channel=7 note=66 velocity=0 time=0.009433966666666665
EXTRACT: note_on channel=7 note=62 velocity=100 time=0
EXTRACT: note_on channel=9 note=42 velocity=0 time=0.01886793333333333
EXTRACT: note_on channel=5 note=50 velocity=0 time=0.24056614999999995
EXTRACT: note_on channel=5 note=50 velocity=66 time=0.004716983333333332
EXTRACT: note_on channel=9 note=75 velocity=50 time=0.004716983333333332
EXTRACT: note_on channel=9 note=27 velocity=75 time=0
EXTRACT: note_on channel=9 note=39 velocity=75 time=0
EXTRACT: note_on channel=9 note=42 velocity=75 time=0
EXTRACT: note_on channel=7 note=62 velocity=0 time=0.009433966666666665
EXTRACT: note_on channel=7 note=62 velocity=100 time=0.009433966666666665
EXTRACT: note_on channel=9 note=42 velocity=0 time=0.014150949999999997
EXTRACT: note_on channel=9 note=75 velocity=0 time=0
EXTRACT: note_on channel=9 note=27 velocity=0 time=0
EXTRACT: note_on channel=9 note=39 velocity=0 time=0
EXTRACT: note_on channel=5 note=66 velocity=0 time=0.22641519999999996
EXTRACT: note_on channel=5 note=69 velocity=0 time=0.004716983333333332
EXTRACT: note_on channel=5 note=57 velocity=0 time=0.009433966666666665
EXTRACT: note_on channel=5 note=62 velocity=0 time=0
EXTRACT: note_on channel=5 note=50 velocity=0 time=0
EXTRACT: note_on channel=5 note=50 velocity=66 time=0.004716983333333332
EXTRACT: note_on channel=5 note=57 velocity=66 time=0
EXTRACT: note_on channel=9 note=42 velocity=75 time=0.004716983333333332
EXTRACT: note_on channel=9 note=27 velocity=75 time=0
EXTRACT: note_on channel=9 note=75 velocity=50 time=0
EXTRACT: note_on channel=5 note=62 velocity=66 time=0.004716983333333332
EXTRACT: note_on channel=5 note=69 velocity=66 time=0.004716983333333332
EXTRACT: note_on channel=5 note=66 velocity=66 time=0
EXTRACT: note_on channel=7 note=62 velocity=0 time=0.004716983333333332
EXTRACT: note_on channel=7 note=59 velocity=100 time=0.009433966666666665
EXTRACT: note_on channel=9 note=27 velocity=0 time=0.06603776666666665
EXTRACT: note_on channel=9 note=75 velocity=0 time=0.01886793333333333
EXTRACT: note_on channel=9 note=42 velocity=0 time=0.004716983333333332
EXTRACT: note_on channel=1 note=38 velocity=0 time=0.06132078333333332
EXTRACT: note_on channel=0 note=57 velocity=0 time=0.08490569999999999
EXTRACT: note_on channel=0 note=50 velocity=0 time=0
EXTRACT: note_on channel=0 note=66 velocity=0 time=0
EXTRACT: note_on channel=0 note=62 velocity=0 time=0
EXTRACT: note_on channel=6 note=57 velocity=0 time=0
EXTRACT: note_on channel=6 note=69 velocity=0 time=0
EXTRACT: note_on channel=6 note=62 velocity=0 time=0
EXTRACT: note_on channel=5 note=50 velocity=0 time=0.014150949999999997
EXTRACT: note_on channel=3 note=60 velocity=100 time=0.009433966666666665
EXTRACT: note_on channel=9 note=75 velocity=46 time=0
EXTRACT: note_on channel=9 note=35 velocity=75 time=0
EXTRACT: note_on channel=5 note=45 velocity=67 time=0.004716983333333332
EXTRACT: note_on channel=6 note=57 velocity=52 time=0
EXTRACT: note_on channel=9 note=42 velocity=75 time=0
EXTRACT: note_on channel=0 note=45 velocity=48 time=0.004716983333333332
EXTRACT: note_on channel=1 note=33 velocity=83 time=0
EXTRACT: note_on channel=6 note=64 velocity=50 time=0
EXTRACT: note_on channel=7 note=60 velocity=100 time=0
EXTRACT: note_on channel=0 note=64 velocity=45 time=0.004716983333333332
EXTRACT: note_on channel=0 note=60 velocity=45 time=0
EXTRACT: note_on channel=0 note=57 velocity=45 time=0
EXTRACT: note_on channel=6 note=52 velocity=52 time=0
EXTRACT: note_on channel=7 note=59 velocity=0 time=0.004716983333333332
EXTRACT: note_on channel=9 note=35 velocity=0 time=0.014150949999999997
EXTRACT: note_on channel=9 note=42 velocity=0 time=0.004716983333333332
EXTRACT: note_on channel=9 note=75 velocity=0 time=0.04716983333333333
EXTRACT: note_on channel=9 note=42 velocity=58 time=0.19811329999999996
EXTRACT: note_on channel=7 note=60 velocity=0 time=0.004716983333333332
EXTRACT: note_on channel=3 note=60 velocity=0 time=0.004716983333333332
EXTRACT: note_on channel=5 note=45 velocity=0 time=0
EXTRACT: note_on channel=5 note=45 velocity=67 time=0.004716983333333332
EXTRACT: note_on channel=9 note=42 velocity=0 time=0.01886793333333333
EXTRACT: note_on channel=9 note=42 velocity=40 time=0.10849061666666665
EXTRACT: note_on channel=9 note=42 velocity=0 time=0.08490569999999999
EXTRACT: note_on channel=5 note=66 velocity=0 time=0.04245284999999999
EXTRACT: note_on channel=5 note=69 velocity=0 time=0
EXTRACT: note_on channel=5 note=57 velocity=0 time=0
EXTRACT: note_on channel=5 note=45 velocity=0 time=0.004716983333333332
EXTRACT: note_on channel=5 note=62 velocity=0 time=0.004716983333333332
EXTRACT: note_on channel=5 note=52 velocity=34 time=0.004716983333333332
EXTRACT: note_on channel=9 note=27 velocity=75 time=0
EXTRACT: note_on channel=9 note=75 velocity=56 time=0
EXTRACT: note_on channel=9 note=42 velocity=75 time=0
EXTRACT: note_on channel=9 note=39 velocity=75 time=0
EXTRACT: note_on channel=5 note=45 velocity=67 time=0.004716983333333332
EXTRACT: note_on channel=5 note=69 velocity=66 time=0
EXTRACT: note_on channel=5 note=64 velocity=67 time=0
EXTRACT: note_on channel=5 note=60 velocity=67 time=0
EXTRACT: note_on channel=5 note=57 velocity=70 time=0
EXTRACT: note_on channel=7 note=59 velocity=100 time=0.004716983333333332
EXTRACT: note_on channel=3 note=59 velocity=100 time=0.004716983333333332
EXTRACT: note_on channel=9 note=39 velocity=0 time=0.01886793333333333
EXTRACT: note_on channel=9 note=27 velocity=0 time=0
EXTRACT: note_on channel=9 note=75 velocity=0 time=0
EXTRACT: note_on channel=9 note=42 velocity=0 time=0
EXTRACT: note_on channel=5 note=45 velocity=0 time=0.2311321833333333
EXTRACT: note_on channel=5 note=45 velocity=67 time=0.014150949999999997
EXTRACT: note_on channel=9 note=39 velocity=85 time=0.004716983333333332
EXTRACT: note_on channel=9 note=27 velocity=75 time=0
EXTRACT: note_on channel=9 note=75 velocity=44 time=0
EXTRACT: note_on channel=9 note=42 velocity=52 time=0
EXTRACT: note_on channel=7 note=59 velocity=0 time=0.004716983333333332
EXTRACT: note_on channel=3 note=59 velocity=0 time=0.01886793333333333
EXTRACT: note_on channel=9 note=42 velocity=0 time=0.009433966666666665
EXTRACT: note_on channel=9 note=39 velocity=0 time=0
EXTRACT: note_on channel=9 note=27 velocity=0 time=0
EXTRACT: note_on channel=9 note=75 velocity=0 time=0
EXTRACT: note_on channel=5 note=45 velocity=0 time=0.22169821666666661
EXTRACT: note_on channel=3 note=57 velocity=100 time=0.028301899999999994
EXTRACT: note_on channel=9 note=42 velocity=75 time=0
EXTRACT: note_on channel=9 note=27 velocity=75 time=0
EXTRACT: note_on channel=9 note=75 velocity=46 time=0
EXTRACT: note_on channel=5 note=45 velocity=67 time=0.004716983333333332
EXTRACT: note_on channel=7 note=57 velocity=100 time=0
EXTRACT: note_on channel=9 note=75 velocity=0 time=0.028301899999999994
EXTRACT: note_on channel=9 note=27 velocity=0 time=0
EXTRACT: note_on channel=9 note=42 velocity=0 time=0
EXTRACT: note_on channel=5 note=69 velocity=0 time=0.19811329999999996
EXTRACT: note_on channel=5 note=64 velocity=0 time=0
EXTRACT: note_on channel=5 note=60 velocity=0 time=0.004716983333333332
EXTRACT: note_on channel=5 note=52 velocity=0 time=0
EXTRACT: note_on channel=5 note=57 velocity=0 time=0
EXTRACT: note_on channel=5 note=52 velocity=66 time=0.014150949999999997
EXTRACT: note_on channel=5 note=57 velocity=66 time=0
EXTRACT: note_on channel=5 note=60 velocity=66 time=0
EXTRACT: note_on channel=5 note=69 velocity=66 time=0
EXTRACT: note_on channel=5 note=64 velocity=66 time=0.004716983333333332
EXTRACT: note_on channel=5 note=45 velocity=0 time=0.009433966666666665
EXTRACT: note_on channel=5 note=45 velocity=67 time=0.004716983333333332
EXTRACT: note_on channel=7 note=57 velocity=0 time=0.014150949999999997
EXTRACT: note_on channel=9 note=42 velocity=75 time=0
EXTRACT: note_on channel=9 note=35 velocity=75 time=0
EXTRACT: note_on channel=3 note=57 velocity=0 time=0.009433966666666665
EXTRACT: note_on channel=9 note=35 velocity=0 time=0.009433966666666665
EXTRACT: note_on channel=9 note=42 velocity=0 time=0
EXTRACT: note_on channel=9 note=39 velocity=52 time=0.12264156666666665
EXTRACT: note_on channel=9 note=39 velocity=0 time=0.01886793333333333
EXTRACT: note_on channel=5 note=45 velocity=0 time=0.08490569999999999
EXTRACT: note_on channel=9 note=42 velocity=75 time=0.03773586666666666
EXTRACT: note_on channel=9 note=27 velocity=75 time=0
EXTRACT: note_on channel=9 note=75 velocity=50 time=0
EXTRACT: note_on channel=9 note=39 velocity=95 time=0
EXTRACT: note_on channel=3 note=52 velocity=100 time=0.004716983333333332
EXTRACT: note_on channel=5 note=45 velocity=67 time=0
EXTRACT: note_on channel=7 note=52 velocity=100 time=0
EXTRACT: note_on channel=9 note=39 velocity=0 time=0.014150949999999997
EXTRACT: note_on channel=9 note=42 velocity=0 time=0
EXTRACT: note_on channel=9 note=27 velocity=0 time=0
EXTRACT: note_on channel=9 note=75 velocity=0 time=0
EXTRACT: note_on channel=9 note=39 velocity=60 time=0.12264156666666665
EXTRACT: note_on channel=9 note=39 velocity=0 time=0.01886793333333333
EXTRACT: note_on channel=1 note=33 velocity=0 time=0.05660379999999999
EXTRACT: note_on channel=5 note=57 velocity=0 time=0.04245284999999999
EXTRACT: note_on channel=5 note=52 velocity=0 time=0
EXTRACT: note_on channel=5 note=60 velocity=0 time=0
EXTRACT: note_on channel=5 note=69 velocity=0 time=0
EXTRACT: note_on channel=5 note=64 velocity=0 time=0.004716983333333332
EXTRACT: note_on channel=5 note=57 velocity=66 time=0.004716983333333332
EXTRACT: note_on channel=5 note=69 velocity=66 time=0.004716983333333332
EXTRACT: note_on channel=5 note=60 velocity=66 time=0
EXTRACT: note_on channel=5 note=52 velocity=66 time=0.004716983333333332
EXTRACT: note_on channel=5 note=45 velocity=0 time=0.004716983333333332
EXTRACT: note_on channel=5 note=45 velocity=67 time=0
EXTRACT: note_on channel=5 note=64 velocity=66 time=0
EXTRACT: note_on channel=7 note=52 velocity=0 time=0
EXTRACT: note_on channel=9 note=75 velocity=50 time=0
EXTRACT: note_on channel=9 note=27 velocity=75 time=0
EXTRACT: note_on channel=9 note=39 velocity=78 time=0
EXTRACT: note_on channel=9 note=42 velocity=75 time=0
EXTRACT: note_on channel=1 note=33 velocity=62 time=0.009433966666666665
EXTRACT: note_on channel=3 note=52 velocity=0 time=0.004716983333333332
EXTRACT: note_on channel=9 note=42 velocity=0 time=0.004716983333333332
EXTRACT: note_on channel=9 note=75 velocity=0 time=0
EXTRACT: note_on channel=9 note=27 velocity=0 time=0
EXTRACT: note_on channel=9 note=39 velocity=0 time=0
EXTRACT: note_on channel=9 note=39 velocity=52 time=0.12264156666666665
EXTRACT: note_on channel=9 note=39 velocity=0 time=0.08018871666666665
EXTRACT: note_on channel=0 note=57 velocity=0 time=0.03773586666666666
EXTRACT: note_on channel=0 note=45 velocity=0 time=0
EXTRACT: note_on channel=0 note=64 velocity=0 time=0
EXTRACT: note_on channel=0 note=60 velocity=0 time=0
EXTRACT: note_on channel=1 note=33 velocity=0 time=0
EXTRACT: note_on channel=6 note=52 velocity=0 time=0
EXTRACT: note_on channel=6 note=64 velocity=0 time=0
EXTRACT: note_on channel=6 note=57 velocity=0 time=0
EXTRACT: note_on channel=5 note=45 velocity=0 time=0.01886793333333333
EXTRACT: note_on channel=5 note=45 velocity=67 time=0
EXTRACT: note_on channel=9 note=42 velocity=75 time=0
EXTRACT: note_on channel=9 note=35 velocity=75 time=0
EXTRACT: note_on channel=1 note=33 velocity=75 time=0.004716983333333332
EXTRACT: note_on channel=4 note=57 velocity=100 time=0
EXTRACT: note_on channel=6 note=57 velocity=52 time=0
EXTRACT: note_on channel=7 note=64 velocity=100 time=0
EXTRACT: note_on channel=9 note=75 velocity=46 time=0
EXTRACT: note_on channel=0 note=45 velocity=48 time=0.004716983333333332
EXTRACT: note_on channel=4 note=60 velocity=100 time=0
EXTRACT: note_on channel=6 note=64 velocity=50 time=0
EXTRACT: note_on channel=0 note=64 velocity=45 time=0.004716983333333332
EXTRACT: note_on channel=0 note=60 velocity=45 time=0
EXTRACT: note_on channel=0 note=57 velocity=45 time=0
EXTRACT: note_on channel=4 note=52 velocity=100 time=0
EXTRACT: note_on channel=6 note=52 velocity=52 time=0
EXTRACT: note_on channel=9 note=35 velocity=0 time=0.01886793333333333
EXTRACT: note_on channel=9 note=42 velocity=0 time=0
EXTRACT: note_on channel=9 note=75 velocity=0 time=0.004716983333333332
EXTRACT: note_on channel=4 note=60 velocity=0 time=0.24056614999999995
EXTRACT: note_on channel=4 note=57 velocity=0 time=0
EXTRACT: note_on channel=4 note=60 velocity=100 time=0.004716983333333332
EXTRACT: note_on channel=7 note=64 velocity=0 time=0
EXTRACT: note_on channel=9 note=42 velocity=60 time=0
EXTRACT: note_on channel=5 note=45 velocity=0 time=0.004716983333333332
EXTRACT: note_on channel=4 note=57 velocity=100 time=0.004716983333333332
EXTRACT: note_on channel=5 note=45 velocity=67 time=0
EXTRACT: note_on channel=4 note=52 velocity=0 time=0.004716983333333332
EXTRACT: note_on channel=4 note=52 velocity=100 time=0
EXTRACT: note_on channel=7 note=67 velocity=100 time=0.009433966666666665
EXTRACT: note_on channel=9 note=42 velocity=0 time=0.009433966666666665
EXTRACT: note_on channel=4 note=60 velocity=0 time=0.2358491666666666
EXTRACT: note_on channel=5 note=45 velocity=0 time=0
EXTRACT: note_on channel=5 note=57 velocity=0 time=0
EXTRACT: note_on channel=5 note=64 velocity=0 time=0
EXTRACT: note_on channel=5 note=69 velocity=0 time=0.004716983333333332
EXTRACT: note_on channel=5 note=52 velocity=0 time=0
EXTRACT: note_on channel=5 note=52 velocity=34 time=0.004716983333333332
EXTRACT: note_on channel=4 note=57 velocity=0 time=0.004716983333333332
EXTRACT: note_on channel=5 note=60 velocity=0 time=0
EXTRACT: note_on channel=5 note=45 velocity=67 time=0
EXTRACT: note_on channel=5 note=69 velocity=66 time=0
EXTRACT: note_on channel=5 note=64 velocity=67 time=0
EXTRACT: note_on channel=5 note=60 velocity=67 time=0
EXTRACT: note_on channel=5 note=57 velocity=70 time=0
EXTRACT: note_on channel=9 note=75 velocity=56 time=0
EXTRACT: note_on channel=9 note=42 velocity=75 time=0
EXTRACT: note_on channel=9 note=27 velocity=75 time=0
EXTRACT: note_on channel=9 note=39 velocity=75 time=0
EXTRACT: note_on channel=4 note=57 velocity=100 time=0.004716983333333332
EXTRACT: note_on channel=4 note=60 velocity=100 time=0
EXTRACT: note_on channel=4 note=52 velocity=0 time=0.009433966666666665
EXTRACT: note_on channel=4 note=52 velocity=100 time=0.004716983333333332
EXTRACT: note_on channel=7 note=67 velocity=0 time=0
EXTRACT: note_on channel=9 note=39 velocity=0 time=0.014150949999999997
EXTRACT: note_on channel=9 note=75 velocity=0 time=0
EXTRACT: note_on channel=9 note=42 velocity=0 time=0
EXTRACT: note_on channel=9 note=27 velocity=0 time=0
EXTRACT: note_on channel=1 note=33 velocity=0 time=0.16509441666666663
EXTRACT: note_on channel=5 note=45 velocity=0 time=0.06132078333333332
EXTRACT: note_on channel=5 note=45 velocity=67 time=0.014150949999999997
EXTRACT: note_on channel=4 note=52 velocity=0 time=0.009433966666666665
EXTRACT: note_on channel=9 note=42 velocity=75 time=0
EXTRACT: note_on channel=9 note=35 velocity=75 time=0
EXTRACT: note_on channel=9 note=27 velocity=75 time=0
EXTRACT: note_on channel=9 note=75 velocity=44 time=0
EXTRACT: note_on channel=1 note=33 velocity=75 time=0.004716983333333332
EXTRACT: note_on channel=4 note=60 velocity=0 time=0
EXTRACT: note_on channel=4 note=57 velocity=0 time=0
EXTRACT: note_on channel=4 note=52 velocity=100 time=0.004716983333333332
EXTRACT: note_on channel=4 note=57 velocity=100 time=0
EXTRACT: note_on channel=4 note=60 velocity=100 time=0.004716983333333332
EXTRACT: note_on channel=9 note=75 velocity=0 time=0.01886793333333333
EXTRACT: note_on channel=9 note=42 velocity=0 time=0
EXTRACT: note_on channel=9 note=35 velocity=0 time=0
EXTRACT: note_on channel=9 note=27 velocity=0 time=0
EXTRACT: note_on channel=9 note=35 velocity=100 time=0.1179245833333333
EXTRACT: note_on channel=9 note=35 velocity=0 time=0.07075474999999999
EXTRACT: note_on channel=5 note=45 velocity=0 time=0.028301899999999994
EXTRACT: note_on channel=4 note=52 velocity=0 time=0.023584916666666664
EXTRACT: note_on channel=5 note=45 velocity=67 time=0.009433966666666665
EXTRACT: note_on channel=9 note=42 velocity=75 time=0
EXTRACT: note_on channel=9 note=27 velocity=75 time=0
EXTRACT: note_on channel=4 note=57 velocity=0 time=0.009433966666666665
EXTRACT: note_on channel=9 note=35 velocity=75 time=0
EXTRACT: note_on channel=4 note=60 velocity=0 time=0.004716983333333332
EXTRACT: note_on channel=4 note=52 velocity=100 time=0
EXTRACT: note_on channel=4 note=57 velocity=100 time=0.004716983333333332
EXTRACT: note_on channel=4 note=60 velocity=100 time=0
EXTRACT: note_on channel=9 note=27 velocity=0 time=0.014150949999999997
EXTRACT: note_on channel=9 note=42 velocity=0 time=0
EXTRACT: note_on channel=9 note=35 velocity=0 time=0.009433966666666665
EXTRACT: note_on channel=5 note=57 velocity=0 time=0.1745283833333333
EXTRACT: note_on channel=5 note=52 velocity=0 time=0
EXTRACT: note_on channel=5 note=69 velocity=0 time=0
EXTRACT: note_on channel=5 note=60 velocity=0 time=0.009433966666666665
EXTRACT: note_on channel=5 note=64 velocity=0 time=0.004716983333333332
EXTRACT: note_on channel=5 note=52 velocity=66 time=0.014150949999999997
EXTRACT: note_on channel=5 note=57 velocity=66 time=0
EXTRACT: note_on channel=5 note=60 velocity=66 time=0
EXTRACT: note_on channel=5 note=69 velocity=66 time=0
EXTRACT: note_on channel=5 note=64 velocity=66 time=0.004716983333333332
EXTRACT: note_on channel=5 note=45 velocity=0 time=0.009433966666666665
EXTRACT: note_on channel=5 note=45 velocity=67 time=0.004716983333333332
EXTRACT: note_on channel=4 note=52 velocity=0 time=0.014150949999999997
EXTRACT: note_on channel=4 note=52 velocity=100 time=0.004716983333333332
EXTRACT: note_on channel=9 note=75 velocity=46 time=0
EXTRACT: note_on channel=9 note=42 velocity=54 time=0
EXTRACT: note_on channel=4 note=60 velocity=0 time=0.01886793333333333
EXTRACT: note_on channel=4 note=57 velocity=0 time=0
EXTRACT: note_on channel=4 note=57 velocity=100 time=0.004716983333333332
EXTRACT: note_on channel=4 note=60 velocity=100 time=0
EXTRACT: note_on channel=9 note=42 velocity=0 time=0.009433966666666665
EXTRACT: note_on channel=9 note=75 velocity=0 time=0
EXTRACT: note_on channel=5 note=45 velocity=0 time=0.20754726666666662
EXTRACT: note_on channel=4 note=52 velocity=0 time=0.023584916666666664
EXTRACT: note_on channel=5 note=45 velocity=67 time=0.01886793333333333
EXTRACT: note_on channel=9 note=75 velocity=50 time=0
EXTRACT: note_on channel=9 note=42 velocity=75 time=0
EXTRACT: note_on channel=9 note=27 velocity=75 time=0
EXTRACT: note_on channel=9 note=39 velocity=75 time=0
EXTRACT: note_on channel=4 note=57 velocity=0 time=0.004716983333333332
EXTRACT: note_on channel=4 note=52 velocity=100 time=0.009433966666666665
EXTRACT: note_on channel=4 note=57 velocity=100 time=0
EXTRACT: note_on channel=4 note=60 velocity=0 time=0.009433966666666665
EXTRACT: note_on channel=4 note=60 velocity=100 time=0.004716983333333332
EXTRACT: note_on channel=9 note=39 velocity=0 time=0.004716983333333332
EXTRACT: note_on channel=9 note=75 velocity=0 time=0
EXTRACT: note_on channel=9 note=42 velocity=0 time=0
EXTRACT: note_on channel=9 note=27 velocity=0 time=0
EXTRACT: note_on channel=1 note=33 velocity=0 time=0.15094346666666664
EXTRACT: note_on channel=5 note=57 velocity=0 time=0.07075474999999999
EXTRACT: note_on channel=5 note=52 velocity=0 time=0
EXTRACT: note_on channel=5 note=60 velocity=0 time=0
EXTRACT: note_on channel=5 note=69 velocity=0 time=0
EXTRACT: note_on channel=5 note=64 velocity=0 time=0.004716983333333332
EXTRACT: note_on channel=5 note=57 velocity=66 time=0.004716983333333332
EXTRACT: note_on channel=5 note=69 velocity=66 time=0.004716983333333332
EXTRACT: note_on channel=5 note=60 velocity=66 time=0
EXTRACT: note_on channel=5 note=52 velocity=66 time=0.004716983333333332
EXTRACT: note_on channel=4 note=57 velocity=0 time=0.004716983333333332
EXTRACT: note_on channel=4 note=52 velocity=0 time=0
EXTRACT: note_on channel=5 note=45 velocity=0 time=0
EXTRACT: note_on channel=5 note=45 velocity=67 time=0
EXTRACT: note_on channel=5 note=64 velocity=66 time=0
EXTRACT: note_on channel=1 note=33 velocity=60 time=0.004716983333333332
EXTRACT: note_on channel=4 note=52 velocity=100 time=0
EXTRACT: note_on channel=4 note=57 velocity=100 time=0
EXTRACT: note_on channel=9 note=42 velocity=56 time=0
EXTRACT: note_on channel=9 note=27 velocity=75 time=0
EXTRACT: note_on channel=9 note=75 velocity=50 time=0
EXTRACT: note_on channel=7 note=64 velocity=100 time=0.01886793333333333
EXTRACT: note_on channel=4 note=60 velocity=0 time=0.009433966666666665
EXTRACT: note_on channel=4 note=60 velocity=100 time=0
EXTRACT: note_on channel=9 note=27 velocity=0 time=0.06132078333333332
EXTRACT: note_on channel=9 note=75 velocity=0 time=0.01886793333333333
EXTRACT: note_on channel=9 note=42 velocity=0 time=0.004716983333333332
EXTRACT: note_on channel=0 note=57 velocity=0 time=0.1462264833333333
EXTRACT: note_on channel=0 note=45 velocity=0 time=0
EXTRACT: note_on channel=0 note=64 velocity=0 time=0
EXTRACT: note_on channel=0 note=60 velocity=0 time=0
EXTRACT: note_on channel=1 note=33 velocity=0 time=0
EXTRACT: note_on channel=6 note=52 velocity=0 time=0
EXTRACT: note_on channel=6 note=64 velocity=0 time=0
EXTRACT: note_on channel=6 note=57 velocity=0 time=0
EXTRACT: note_on channel=4 note=57 velocity=0 time=0.004716983333333332
EXTRACT: note_on channel=4 note=52 velocity=0 time=0
EXTRACT: note_on channel=4 note=60 velocity=0 time=0.009433966666666665
EXTRACT: note_on channel=5 note=45 velocity=0 time=0
EXTRACT: note_on channel=5 note=52 velocity=0 time=0.004716983333333332
EXTRACT: note_on channel=4 note=59 velocity=100 time=0.004716983333333332
EXTRACT: note_on channel=7 note=62 velocity=100 time=0
EXTRACT: note_on channel=9 note=75 velocity=46 time=0
EXTRACT: note_on channel=9 note=35 velocity=75 time=0
EXTRACT: note_on channel=4 note=52 velocity=100 time=0.004716983333333332
EXTRACT: note_on channel=6 note=59 velocity=52 time=0
EXTRACT: note_on channel=9 note=42 velocity=75 time=0
EXTRACT: note_on channel=0 note=40 velocity=48 time=0.004716983333333332
EXTRACT: note_on channel=1 note=28 velocity=79 time=0
EXTRACT: note_on channel=5 note=52 velocity=66 time=0
EXTRACT: note_on channel=6 note=67 velocity=50 time=0
EXTRACT: note_on channel=0 note=64 velocity=45 time=0.004716983333333332
EXTRACT: note_on channel=0 note=59 velocity=45 time=0
EXTRACT: note_on channel=0 note=55 velocity=45 time=0
EXTRACT: note_on channel=4 note=55 velocity=100 time=0
EXTRACT: note_on channel=6 note=55 velocity=52 time=0
EXTRACT: note_on channel=7 note=64 velocity=0 time=0
EXTRACT: note_on channel=9 note=35 velocity=0 time=0.01886793333333333
EXTRACT: note_on channel=9 note=42 velocity=0 time=0.004716983333333332
EXTRACT: note_on channel=9 note=75 velocity=0 time=0.04716983333333333
EXTRACT: note_on channel=4 note=59 velocity=0 time=0.17924536666666663
EXTRACT: note_on channel=4 note=52 velocity=0 time=0.004716983333333332
EXTRACT: note_on channel=4 note=52 velocity=100 time=0
EXTRACT: note_on channel=4 note=55 velocity=0 time=0.009433966666666665
EXTRACT: note_on channel=4 note=55 velocity=100 time=0
EXTRACT: note_on channel=4 note=59 velocity=100 time=0
EXTRACT: note_on channel=7 note=62 velocity=0 time=0
EXTRACT: note_on channel=9 note=42 velocity=58 time=0.004716983333333332
EXTRACT: note_on channel=5 note=52 velocity=0 time=0.004716983333333332
EXTRACT: note_on channel=5 note=52 velocity=66 time=0
EXTRACT: note_on channel=7 note=67 velocity=100 time=0.014150949999999997
EXTRACT: note_on channel=9 note=42 velocity=0 time=0.014150949999999997
EXTRACT: note_on channel=9 note=42 velocity=40 time=0.10849061666666665
EXTRACT: note_on channel=9 note=42 velocity=0 time=0.08490569999999999
EXTRACT: note_on channel=4 note=52 velocity=0 time=0.023584916666666664
EXTRACT: note_on channel=4 note=59 velocity=0 time=0.009433966666666665
EXTRACT: note_on channel=4 note=55 velocity=0 time=0
EXTRACT: note_on channel=5 note=69 velocity=0 time=0
EXTRACT: note_on channel=5 note=64 velocity=0 time=0.004716983333333332
EXTRACT: note_on channel=5 note=57 velocity=0 time=0
EXTRACT: note_on channel=5 note=60 velocity=0 time=0
EXTRACT: note_on channel=5 note=67 velocity=70 time=0.014150949999999997
EXTRACT: note_on channel=5 note=59 velocity=70 time=0
EXTRACT: note_on channel=4 note=52 velocity=100 time=0.004716983333333332
EXTRACT: note_on channel=5 note=52 velocity=0 time=0
EXTRACT: note_on channel=5 note=64 velocity=70 time=0
EXTRACT: note_on channel=5 note=52 velocity=66 time=0
EXTRACT: note_on channel=9 note=27 velocity=75 time=0
EXTRACT: note_on channel=9 note=75 velocity=56 time=0
EXTRACT: note_on channel=9 note=42 velocity=75 time=0
EXTRACT: note_on channel=9 note=39 velocity=75 time=0
EXTRACT: note_on channel=4 note=59 velocity=100 time=0.004716983333333332
EXTRACT: note_on channel=5 note=71 velocity=66 time=0
EXTRACT: note_on channel=4 note=55 velocity=100 time=0.009433966666666665
EXTRACT: note_on channel=7 note=67 velocity=0 time=0
EXTRACT: note_on channel=9 note=39 velocity=0 time=0.01886793333333333
EXTRACT: note_on channel=9 note=27 velocity=0 time=0
EXTRACT: note_on channel=9 note=75 velocity=0 time=0
EXTRACT: note_on channel=9 note=42 velocity=0 time=0
EXTRACT: note_on channel=1 note=28 velocity=0 time=0.22169821666666661
EXTRACT: note_on channel=4 note=52 velocity=0 time=0.009433966666666665
EXTRACT: note_on channel=4 note=59 velocity=0 time=0.004716983333333332
EXTRACT: note_on channel=4 note=55 velocity=0 time=0.009433966666666665
EXTRACT: note_on channel=4 note=55 velocity=100 time=0
EXTRACT: note_on channel=5 note=52 velocity=0 time=0
EXTRACT: note_on channel=5 note=52 velocity=66 time=0
EXTRACT: note_on channel=4 note=59 velocity=100 time=0.004716983333333332
EXTRACT: note_on channel=4 note=52 velocity=100 time=0
EXTRACT: note_on channel=9 note=75 velocity=44 time=0
EXTRACT: note_on channel=9 note=42 velocity=52 time=0
EXTRACT: note_on channel=9 note=27 velocity=75 time=0
EXTRACT: note_on channel=9 note=35 velocity=75 time=0
EXTRACT: note_on channel=1 note=28 velocity=54 time=0.009433966666666665
EXTRACT: note_on channel=9 note=35 velocity=0 time=0.023584916666666664
EXTRACT: note_on channel=9 note=75 velocity=0 time=0
EXTRACT: note_on channel=9 note=42 velocity=0 time=0
EXTRACT: note_on channel=9 note=27 velocity=0 time=0
EXTRACT: note_on channel=9 note=35 velocity=75 time=0.09905664999999998
EXTRACT: note_on channel=9 note=35 velocity=0 time=0.033018883333333325
EXTRACT: note_on channel=4 note=55 velocity=0 time=0.09433966666666666
EXTRACT: note_on channel=4 note=52 velocity=0 time=0.004716983333333332
EXTRACT: note_on channel=4 note=59 velocity=0 time=0
EXTRACT: note_on channel=1 note=28 velocity=0 time=0.009433966666666665
EXTRACT: note_on channel=5 note=52 velocity=0 time=0
EXTRACT: note_on channel=4 note=52 velocity=100 time=0.009433966666666665
EXTRACT: note_on channel=5 note=52 velocity=66 time=0
EXTRACT: note_on channel=9 note=42 velocity=75 time=0
EXTRACT: note_on channel=9 note=27 velocity=75 time=0
EXTRACT: note_on channel=9 note=75 velocity=46 time=0
EXTRACT: note_on channel=1 note=28 velocity=68 time=0.009433966666666665
EXTRACT: note_on channel=4 note=55 velocity=100 time=0.004716983333333332
EXTRACT: note_on channel=4 note=59 velocity=100 time=0
EXTRACT: note_on channel=9 note=35 velocity=75 time=0
EXTRACT: note_on channel=9 note=75 velocity=0 time=0.01886793333333333
EXTRACT: note_on channel=9 note=42 velocity=0 time=0
EXTRACT: note_on channel=9 note=27 velocity=0 time=0
EXTRACT: note_on channel=9 note=35 velocity=0 time=0.014150949999999997
EXTRACT: note_on channel=5 note=67 velocity=0 time=0.19339631666666662
EXTRACT: note_on channel=5 note=71 velocity=0 time=0.014150949999999997
EXTRACT: note_on channel=5 note=59 velocity=0 time=0
EXTRACT: note_on channel=4 note=52 velocity=0 time=0.009433966666666665
EXTRACT: note_on channel=5 note=71 velocity=45 time=0.004716983333333332
EXTRACT: note_on channel=5 note=64 velocity=0 time=0.004716983333333332
EXTRACT: note_on channel=5 note=67 velocity=77 time=0
EXTRACT: note_on channel=5 note=59 velocity=56 time=0
EXTRACT: note_on channel=4 note=59 velocity=0 time=0.004716983333333332
EXTRACT: note_on channel=4 note=55 velocity=0 time=0
EXTRACT: note_on channel=5 note=52 velocity=0 time=0
EXTRACT: note_on channel=5 note=52 velocity=66 time=0
EXTRACT: note_on channel=5 note=64 velocity=85 time=0
EXTRACT: note_on channel=9 note=42 velocity=75 time=0.004716983333333332
EXTRACT: note_on channel=4 note=55 velocity=100 time=0.009433966666666665
EXTRACT: note_on channel=4 note=52 velocity=100 time=0
EXTRACT: note_on channel=4 note=59 velocity=100 time=0.014150949999999997
EXTRACT: note_on channel=9 note=42 velocity=0 time=0.009433966666666665
EXTRACT: note_on channel=4 note=52 velocity=0 time=0.24056614999999995
EXTRACT: note_on channel=4 note=55 velocity=0 time=0
EXTRACT: note_on channel=5 note=52 velocity=0 time=0
EXTRACT: note_on channel=5 note=52 velocity=66 time=0.009433966666666665
EXTRACT: note_on channel=9 note=75 velocity=50 time=0
EXTRACT: note_on channel=9 note=42 velocity=75 time=0
EXTRACT: note_on channel=9 note=39 velocity=75 time=0
EXTRACT: note_on channel=9 note=27 velocity=75 time=0
EXTRACT: note_on channel=4 note=59 velocity=0 time=0.004716983333333332
EXTRACT: note_on channel=4 note=55 velocity=100 time=0
EXTRACT: note_on channel=4 note=59 velocity=100 time=0
EXTRACT: note_on channel=4 note=52 velocity=100 time=0
EXTRACT: note_on channel=9 note=27 velocity=0 time=0.028301899999999994
EXTRACT: note_on channel=9 note=75 velocity=0 time=0
EXTRACT: note_on channel=9 note=42 velocity=0 time=0
EXTRACT: note_on channel=9 note=39 velocity=0 time=0
EXTRACT: note_on channel=5 note=71 velocity=0 time=0.19339631666666662
EXTRACT: note_on channel=5 note=67 velocity=0 time=0.004716983333333332
EXTRACT: note_on channel=5 note=64 velocity=0 time=0.004716983333333332
EXTRACT: note_on channel=1 note=28 velocity=0 time=0.004716983333333332
EXTRACT: note_on channel=5 note=59 velocity=0 time=0.009433966666666665
EXTRACT: note_on channel=5 note=71 velocity=56 time=0.004716983333333332
EXTRACT: note_on channel=5 note=64 velocity=56 time=0
EXTRACT: note_on channel=5 note=67 velocity=56 time=0.004716983333333332
EXTRACT: note_on channel=5 note=59 velocity=56 time=0.004716983333333332
EXTRACT: note_on channel=4 note=52 velocity=0 time=0.004716983333333332
EXTRACT: note_on channel=4 note=59 velocity=0 time=0
EXTRACT: note_on channel=4 note=55 velocity=0 time=0
EXTRACT: note_on channel=4 note=55 velocity=100 time=0.009433966666666665
EXTRACT: note_on channel=5 note=52 velocity=0 time=0
EXTRACT: note_on channel=1 note=35 velocity=68 time=0.004716983333333332
EXTRACT: note_on channel=4 note=52 velocity=100 time=0
EXTRACT: note_on channel=9 note=42 velocity=75 time=0
EXTRACT: note_on channel=9 note=27 velocity=75 time=0
EXTRACT: note_on channel=9 note=75 velocity=50 time=0
EXTRACT: note_on channel=5 note=52 velocity=66 time=0.004716983333333332
EXTRACT: note_on channel=4 note=59 velocity=100 time=0.004716983333333332
EXTRACT: note_on channel=7 note=64 velocity=100 time=0
EXTRACT: note_on channel=9 note=27 velocity=0 time=0.08018871666666665
EXTRACT: note_on channel=9 note=75 velocity=0 time=0.01886793333333333
EXTRACT: note_on channel=9 note=42 velocity=0 time=0.004716983333333332
EXTRACT: note_on channel=0 note=55 velocity=0 time=0.1462264833333333
EXTRACT: note_on channel=0 note=40 velocity=0 time=0
EXTRACT: note_on channel=0 note=64 velocity=0 time=0
EXTRACT: note_on channel=0 note=59 velocity=0 time=0
EXTRACT: note_on channel=1 note=35 velocity=0 time=0
EXTRACT: note_on channel=4 note=55 velocity=0 time=0
EXTRACT: note_on channel=6 note=55 velocity=0 time=0
EXTRACT: note_on channel=6 note=67 velocity=0 time=0
EXTRACT: note_on channel=6 note=59 velocity=0 time=0
EXTRACT: note_on channel=4 note=52 velocity=0 time=0.004716983333333332
EXTRACT: note_on channel=4 note=59 velocity=0 time=0.009433966666666665
EXTRACT: note_on channel=5 note=52 velocity=0 time=0.009433966666666665
EXTRACT: note_on channel=5 note=50 velocity=66 time=0
EXTRACT: note_on channel=9 note=75 velocity=46 time=0
EXTRACT: note_on channel=9 note=35 velocity=75 time=0
EXTRACT: note_on channel=1 note=38 velocity=75 time=0.004716983333333332
EXTRACT: note_on channel=4 note=62 velocity=100 time=0
EXTRACT: note_on channel=6 note=62 velocity=52 time=0
EXTRACT: note_on channel=7 note=64 velocity=0 time=0
EXTRACT: note_on channel=7 note=62 velocity=100 time=0
EXTRACT: note_on channel=9 note=42 velocity=75 time=0
EXTRACT: note_on channel=0 note=50 velocity=48 time=0.004716983333333332
EXTRACT: note_on channel=6 note=69 velocity=50 time=0
EXTRACT: note_on channel=0 note=66 velocity=45 time=0.004716983333333332
EXTRACT: note_on channel=0 note=62 velocity=45 time=0
EXTRACT: note_on channel=0 note=57 velocity=45 time=0
EXTRACT: note_on channel=4 note=50 velocity=100 time=0
EXTRACT: note_on channel=4 note=57 velocity=100 time=0
EXTRACT: note_on channel=6 note=57 velocity=52 time=0
EXTRACT: note_on channel=9 note=35 velocity=0 time=0.01886793333333333
EXTRACT: note_on channel=9 note=42 velocity=0 time=0.004716983333333332
EXTRACT: note_on channel=9 note=75 velocity=0 time=0.04716983333333333
EXTRACT: note_on channel=4 note=62 velocity=0 time=0.18396234999999997
EXTRACT: note_on channel=4 note=57 velocity=0 time=0.009433966666666665
EXTRACT: note_on channel=4 note=50 velocity=0 time=0
EXTRACT: note_on channel=5 note=50 velocity=0 time=0
EXTRACT: note_on channel=5 note=50 velocity=66 time=0
EXTRACT: note_on channel=4 note=62 velocity=100 time=0.004716983333333332
EXTRACT: note_on channel=7 note=62 velocity=0 time=0
EXTRACT: note_on channel=9 note=42 velocity=58 time=0
EXTRACT: note_on channel=4 note=50 velocity=100 time=0.009433966666666665
EXTRACT: note_on channel=4 note=57 velocity=100 time=0
EXTRACT: note_on channel=7 note=67 velocity=100 time=0.014150949999999997
EXTRACT: note_on channel=9 note=42 velocity=0 time=0.009433966666666665
EXTRACT: note_on channel=1 note=38 velocity=0 time=0.22641519999999996
EXTRACT: note_on channel=4 note=62 velocity=0 time=0.004716983333333332
EXTRACT: note_on channel=4 note=57 velocity=0 time=0.009433966666666665
EXTRACT: note_on channel=4 note=50 velocity=0 time=0
EXTRACT: note_on channel=5 note=50 velocity=0 time=0
EXTRACT: note_on channel=5 note=59 velocity=0 time=0
EXTRACT: note_on channel=5 note=71 velocity=0 time=0
EXTRACT: note_on channel=5 note=67 velocity=0 time=0
EXTRACT: note_on channel=5 note=64 velocity=0 time=0.004716983333333332
EXTRACT: note_on channel=5 note=50 velocity=66 time=0.004716983333333332
EXTRACT: note_on channel=5 note=69 velocity=66 time=0
EXTRACT: note_on channel=5 note=66 velocity=67 time=0
EXTRACT: note_on channel=9 note=27 velocity=75 time=0
EXTRACT: note_on channel=9 note=39 velocity=75 time=0
EXTRACT: note_on channel=9 note=42 velocity=75 time=0
EXTRACT: note_on channel=9 note=75 velocity=56 time=0
EXTRACT: note_on channel=1 note=38 velocity=58 time=0.004716983333333332
EXTRACT: note_on channel=4 note=50 velocity=100 time=0
EXTRACT: note_on channel=5 note=62 velocity=67 time=0
EXTRACT: note_on channel=5 note=57 velocity=70 time=0
EXTRACT: note_on channel=4 note=62 velocity=100 time=0.009433966666666665
EXTRACT: note_on channel=4 note=57 velocity=100 time=0.004716983333333332
EXTRACT: note_on channel=7 note=67 velocity=0 time=0
EXTRACT: note_on channel=9 note=75 velocity=0 time=0.014150949999999997
EXTRACT: note_on channel=9 note=27 velocity=0 time=0
EXTRACT: note_on channel=9 note=39 velocity=0 time=0
EXTRACT: note_on channel=9 note=42 velocity=0 time=0
EXTRACT: note_on channel=1 note=38 velocity=0 time=0.17924536666666663
EXTRACT: note_on channel=4 note=50 velocity=0 time=0.05660379999999999
EXTRACT: note_on channel=4 note=62 velocity=0 time=0.009433966666666665
EXTRACT: note_on channel=5 note=50 velocity=0 time=0
EXTRACT: note_on channel=5 note=50 velocity=66 time=0
EXTRACT: note_on channel=4 note=57 velocity=0 time=0.004716983333333332
EXTRACT: note_on channel=4 note=50 velocity=100 time=0
EXTRACT: note_on channel=9 note=75 velocity=44 time=0
EXTRACT: note_on channel=9 note=42 velocity=52 time=0
EXTRACT: note_on channel=9 note=35 velocity=75 time=0
EXTRACT: note_on channel=9 note=27 velocity=75 time=0
EXTRACT: note_on channel=1 note=38 velocity=75 time=0.004716983333333332
EXTRACT: note_on channel=4 note=57 velocity=100 time=0.009433966666666665
EXTRACT: note_on channel=4 note=62 velocity=100 time=0.009433966666666665
EXTRACT: note_on channel=9 note=27 velocity=0 time=0.009433966666666665
EXTRACT: note_on channel=9 note=75 velocity=0 time=0
EXTRACT: note_on channel=9 note=42 velocity=0 time=0
EXTRACT: note_on channel=9 note=35 velocity=0 time=0
EXTRACT: note_on channel=9 note=35 velocity=75 time=0.09433966666666666
EXTRACT: note_on channel=9 note=35 velocity=0 time=0.033018883333333325
EXTRACT: note_on channel=0 note=57 velocity=0 time=0.09905664999999998
EXTRACT: note_on channel=0 note=50 velocity=0 time=0
EXTRACT: note_on channel=0 note=66 velocity=0 time=0
EXTRACT: note_on channel=0 note=62 velocity=0 time=0
EXTRACT: note_on channel=1 note=38 velocity=0 time=0
EXTRACT: note_on channel=6 note=57 velocity=0 time=0
EXTRACT: note_on channel=6 note=69 velocity=0 time=0
EXTRACT: note_on channel=6 note=62 velocity=0 time=0
EXTRACT: note_on channel=4 note=50 velocity=0 time=0.004716983333333332
EXTRACT: note_on channel=5 note=50 velocity=0 time=0.009433966666666665
EXTRACT: note_on channel=4 note=57 velocity=0 time=0.004716983333333332
EXTRACT: note_on channel=5 note=50 velocity=66 time=0.004716983333333332
EXTRACT: note_on channel=9 note=75 velocity=46 time=0
EXTRACT: note_on channel=9 note=42 velocity=75 time=0
EXTRACT: note_on channel=9 note=27 velocity=75 time=0
EXTRACT: note_on channel=4 note=62 velocity=0 time=0.004716983333333332
EXTRACT: note_on channel=6 note=62 velocity=57 time=0
EXTRACT: note_on channel=9 note=35 velocity=75 time=0
EXTRACT: note_on channel=0 note=50 velocity=48 time=0.004716983333333332
EXTRACT: note_on channel=1 note=38 velocity=88 time=0
EXTRACT: note_on channel=6 note=69 velocity=55 time=0
EXTRACT: note_on channel=0 note=66 velocity=45 time=0.004716983333333332
EXTRACT: note_on channel=0 note=62 velocity=45 time=0
EXTRACT: note_on channel=0 note=57 velocity=45 time=0
EXTRACT: note_on channel=4 note=50 velocity=100 time=0
EXTRACT: note_on channel=6 note=57 velocity=57 time=0
EXTRACT: note_on channel=4 note=57 velocity=100 time=0.004716983333333332
EXTRACT: note_on channel=4 note=62 velocity=100 time=0
EXTRACT: note_on channel=9 note=27 velocity=0 time=0.014150949999999997
EXTRACT: note_on channel=9 note=75 velocity=0 time=0
EXTRACT: note_on channel=9 note=42 velocity=0 time=0
EXTRACT: note_on channel=9 note=35 velocity=0 time=0.004716983333333332
EXTRACT: note_on channel=6 note=62 velocity=0 time=0.1320755333333333
EXTRACT: note_on channel=0 note=50 velocity=0 time=0.004716983333333332
EXTRACT: note_on channel=1 note=38 velocity=0 time=0
EXTRACT: note_on channel=6 note=69 velocity=0 time=0
EXTRACT: note_on channel=0 note=66 velocity=0 time=0.004716983333333332
EXTRACT: note_on channel=0 note=62 velocity=0 time=0
EXTRACT: note_on channel=0 note=57 velocity=0 time=0
EXTRACT: note_on channel=6 note=57 velocity=0 time=0
EXTRACT: note_on channel=5 note=57 velocity=0 time=0.08018871666666665
EXTRACT: note_on channel=5 note=69 velocity=0 time=0
EXTRACT: note_on channel=5 note=62 velocity=0 time=0.009433966666666665
EXTRACT: note_on channel=5 note=66 velocity=0 time=0.004716983333333332
EXTRACT: note_on channel=4 note=50 velocity=0 time=0.004716983333333332
EXTRACT: note_on channel=5 note=50 velocity=0 time=0
EXTRACT: note_on channel=4 note=62 velocity=0 time=0.004716983333333332
EXTRACT: note_on channel=4 note=57 velocity=0 time=0
EXTRACT: note_on channel=9 note=42 velocity=75 time=0
EXTRACT: note_on channel=9 note=42 velocity=0 time=0.033018883333333325
EXTRACT: note_on channel=9 note=75 velocity=50 time=0.2500001166666666
EXTRACT: note_on channel=9 note=27 velocity=75 time=0
EXTRACT: note_on channel=9 note=39 velocity=75 time=0
EXTRACT: note_on channel=9 note=42 velocity=75 time=0
EXTRACT: note_on channel=7 note=69 velocity=100 time=0.004716983333333332
EXTRACT: note_on channel=9 note=42 velocity=0 time=0.028301899999999994
EXTRACT: note_on channel=9 note=75 velocity=0 time=0
EXTRACT: note_on channel=9 note=27 velocity=0 time=0
EXTRACT: note_on channel=9 note=39 velocity=0 time=0
EXTRACT: note_on channel=7 note=69 velocity=0 time=0.2500001166666666
EXTRACT: note_on channel=9 note=42 velocity=75 time=0
EXTRACT: note_on channel=9 note=27 velocity=75 time=0
EXTRACT: note_on channel=9 note=75 velocity=50 time=0
EXTRACT: note_on channel=9 note=27 velocity=0 time=0.08962268333333331
EXTRACT: note_on channel=9 note=75 velocity=0 time=0.01886793333333333
EXTRACT: note_on channel=9 note=42 velocity=0 time=0.004716983333333332
EXTRACT: note_on channel=9 note=75 velocity=46 time=0.16981139999999997
EXTRACT: note_on channel=9 note=35 velocity=75 time=0
EXTRACT: note_on channel=1 note=33 velocity=75 time=0.004716983333333332
EXTRACT: note_on channel=5 note=45 velocity=67 time=0
EXTRACT: note_on channel=6 note=57 velocity=52 time=0
EXTRACT: note_on channel=7 note=64 velocity=100 time=0
EXTRACT: note_on channel=9 note=42 velocity=75 time=0
EXTRACT: note_on channel=0 note=45 velocity=48 time=0.004716983333333332
EXTRACT: note_on channel=6 note=64 velocity=50 time=0
EXTRACT: note_on channel=0 note=64 velocity=45 time=0.004716983333333332
EXTRACT: note_on channel=0 note=60 velocity=45 time=0
EXTRACT: note_on channel=0 note=57 velocity=45 time=0
EXTRACT: note_on channel=6 note=52 velocity=52 time=0
EXTRACT: note_on channel=4 note=57 velocity=100 time=0.009433966666666665
EXTRACT: note_on channel=4 note=60 velocity=100 time=0.004716983333333332
EXTRACT: note_on channel=4 note=52 velocity=100 time=0.004716983333333332
EXTRACT: note_on channel=9 note=35 velocity=0 time=0
EXTRACT: note_on channel=9 note=42 velocity=0 time=0.004716983333333332
EXTRACT: note_on channel=9 note=75 velocity=0 time=0.04716983333333333
EXTRACT: note_on channel=7 note=64 velocity=0 time=0.19811329999999996
EXTRACT: note_on channel=9 note=42 velocity=58 time=0
EXTRACT: note_on channel=5 note=45 velocity=0 time=0.009433966666666665
EXTRACT: note_on channel=4 note=60 velocity=0 time=0.004716983333333332
EXTRACT: note_on channel=4 note=57 velocity=0 time=0
EXTRACT: note_on channel=5 note=45 velocity=67 time=0
EXTRACT: note_on channel=4 note=60 velocity=100 time=0.004716983333333332
EXTRACT: note_on channel=4 note=57 velocity=100 time=0.009433966666666665
EXTRACT: note_on channel=4 note=52 velocity=0 time=0.004716983333333332
EXTRACT: note_on channel=4 note=52 velocity=100 time=0
EXTRACT: note_on channel=9 note=42 velocity=0 time=0
EXTRACT: note_on channel=9 note=42 velocity=40 time=0.10849061666666665
EXTRACT: note_on channel=9 note=42 velocity=0 time=0.08490569999999999
EXTRACT: note_on channel=1 note=33 velocity=0 time=0.033018883333333325
EXTRACT: note_on channel=5 note=45 velocity=0 time=0.014150949999999997
EXTRACT: note_on channel=5 note=52 velocity=34 time=0.009433966666666665
EXTRACT: note_on channel=9 note=27 velocity=75 time=0
EXTRACT: note_on channel=9 note=75 velocity=56 time=0
EXTRACT: note_on channel=9 note=42 velocity=75 time=0
EXTRACT: note_on channel=9 note=39 velocity=75 time=0
EXTRACT: note_on channel=1 note=33 velocity=58 time=0.004716983333333332
EXTRACT: note_on channel=4 note=60 velocity=0 time=0
EXTRACT: note_on channel=5 note=45 velocity=67 time=0
EXTRACT: note_on channel=5 note=69 velocity=66 time=0
EXTRACT: note_on channel=5 note=64 velocity=67 time=0
EXTRACT: note_on channel=5 note=60 velocity=67 time=0
EXTRACT: note_on channel=5 note=57 velocity=70 time=0
EXTRACT: note_on channel=4 note=57 velocity=0 time=0.014150949999999997
EXTRACT: note_on channel=4 note=57 velocity=100 time=0.004716983333333332
EXTRACT: note_on channel=4 note=60 velocity=100 time=0
EXTRACT: note_on channel=4 note=52 velocity=0 time=0.009433966666666665
EXTRACT: note_on channel=9 note=39 velocity=0 time=0
EXTRACT: note_on channel=9 note=27 velocity=0 time=0
EXTRACT: note_on channel=9 note=75 velocity=0 time=0
EXTRACT: note_on channel=9 note=42 velocity=0 time=0
EXTRACT: note_on channel=4 note=52 velocity=100 time=0.004716983333333332
EXTRACT: note_on channel=1 note=33 velocity=0 time=0.1745283833333333
EXTRACT: note_on channel=5 note=45 velocity=0 time=0.051886816666666655
EXTRACT: note_on channel=5 note=45 velocity=67 time=0.014150949999999997
EXTRACT: note_on channel=9 note=39 velocity=85 time=0.004716983333333332
EXTRACT: note_on channel=9 note=27 velocity=75 time=0
EXTRACT: note_on channel=9 note=75 velocity=44 time=0
EXTRACT: note_on channel=9 note=42 velocity=52 time=0
EXTRACT: note_on channel=1 note=33 velocity=75 time=0.004716983333333332
EXTRACT: note_on channel=4 note=52 velocity=0 time=0.014150949999999997
EXTRACT: note_on channel=4 note=60 velocity=0 time=0.004716983333333332
EXTRACT: note_on channel=4 note=57 velocity=0 time=0
EXTRACT: note_on channel=4 note=52 velocity=100 time=0.004716983333333332
EXTRACT: note_on channel=4 note=57 velocity=100 time=0
EXTRACT: note_on channel=4 note=60 velocity=100 time=0.004716983333333332
EXTRACT: note_on channel=9 note=42 velocity=0 time=0
EXTRACT: note_on channel=9 note=39 velocity=0 time=0
EXTRACT: note_on channel=9 note=27 velocity=0 time=0
EXTRACT: note_on channel=9 note=75 velocity=0 time=0
EXTRACT: note_on channel=5 note=45 velocity=0 time=0.22169821666666661
EXTRACT: note_on channel=9 note=42 velocity=75 time=0.028301899999999994
EXTRACT: note_on channel=9 note=27 velocity=75 time=0
EXTRACT: note_on channel=9 note=75 velocity=46 time=0
EXTRACT: note_on channel=5 note=45 velocity=67 time=0.004716983333333332
EXTRACT: note_on channel=4 note=52 velocity=0 time=0.004716983333333332
EXTRACT: note_on channel=4 note=57 velocity=0 time=0.01886793333333333
EXTRACT: note_on channel=4 note=60 velocity=0 time=0.004716983333333332
EXTRACT: note_on channel=4 note=52 velocity=100 time=0
EXTRACT: note_on channel=9 note=75 velocity=0 time=0
EXTRACT: note_on channel=9 note=27 velocity=0 time=0
EXTRACT: note_on channel=9 note=42 velocity=0 time=0
EXTRACT: note_on channel=4 note=57 velocity=100 time=0.004716983333333332
EXTRACT: note_on channel=4 note=60 velocity=100 time=0
EXTRACT: note_on channel=5 note=69 velocity=0 time=0.19339631666666662
EXTRACT: note_on channel=5 note=64 velocity=0 time=0
EXTRACT: note_on channel=5 note=60 velocity=0 time=0.004716983333333332
EXTRACT: note_on channel=5 note=52 velocity=0 time=0
EXTRACT: note_on channel=5 note=57 velocity=0 time=0
EXTRACT: note_on channel=1 note=33 velocity=0 time=0.014150949999999997
EXTRACT: note_on channel=5 note=52 velocity=66 time=0
EXTRACT: note_on channel=5 note=57 velocity=66 time=0
EXTRACT: note_on channel=5 note=60 velocity=66 time=0
EXTRACT: note_on channel=5 note=69 velocity=66 time=0
EXTRACT: note_on channel=5 note=64 velocity=66 time=0.004716983333333332
EXTRACT: note_on channel=5 note=45 velocity=0 time=0.009433966666666665
EXTRACT: note_on channel=5 note=45 velocity=67 time=0.004716983333333332
EXTRACT: note_on channel=9 note=42 velocity=75 time=0.014150949999999997
EXTRACT: note_on channel=9 note=35 velocity=75 time=0
EXTRACT: note_on channel=1 note=33 velocity=62 time=0.004716983333333332
EXTRACT: note_on channel=4 note=52 velocity=0 time=0.009433966666666665
EXTRACT: note_on channel=4 note=52 velocity=100 time=0.004716983333333332
EXTRACT: note_on channel=9 note=35 velocity=0 time=0
EXTRACT: note_on channel=9 note=42 velocity=0 time=0
EXTRACT: note_on channel=4 note=60 velocity=0 time=0.01886793333333333
EXTRACT: note_on channel=4 note=57 velocity=0 time=0
EXTRACT: note_on channel=4 note=57 velocity=100 time=0.004716983333333332
EXTRACT: note_on channel=4 note=60 velocity=100 time=0
EXTRACT: note_on channel=9 note=39 velocity=52 time=0.09905664999999998
EXTRACT: note_on channel=9 note=39 velocity=0 time=0.01886793333333333
EXTRACT: note_on channel=1 note=33 velocity=0 time=0.03773586666666666
EXTRACT: note_on channel=5 note=45 velocity=0 time=0.04716983333333333
EXTRACT: note_on channel=4 note=52 velocity=0 time=0.03773586666666666
EXTRACT: note_on channel=9 note=42 velocity=75 time=0
EXTRACT: note_on channel=9 note=27 velocity=75 time=0
EXTRACT: note_on channel=9 note=75 velocity=50 time=0
EXTRACT: note_on channel=9 note=39 velocity=95 time=0
EXTRACT: note_on channel=1 note=33 velocity=75 time=0.004716983333333332
EXTRACT: note_on channel=5 note=45 velocity=67 time=0
EXTRACT: note_on channel=7 note=62 velocity=100 time=0.009433966666666665
EXTRACT: note_on channel=9 note=39 velocity=0 time=0.004716983333333332
EXTRACT: note_on channel=9 note=42 velocity=0 time=0
EXTRACT: note_on channel=9 note=27 velocity=0 time=0
EXTRACT: note_on channel=9 note=75 velocity=0 time=0
EXTRACT: note_on channel=4 note=57 velocity=0 time=0.004716983333333332
EXTRACT: note_on channel=4 note=52 velocity=100 time=0.009433966666666665
EXTRACT: note_on channel=4 note=57 velocity=100 time=0
EXTRACT: note_on channel=4 note=60 velocity=0 time=0.009433966666666665
EXTRACT: note_on channel=4 note=60 velocity=100 time=0.004716983333333332
EXTRACT: note_on channel=9 note=39 velocity=60 time=0.09433966666666666
EXTRACT: note_on channel=9 note=39 velocity=0 time=0.01886793333333333
EXTRACT: note_on channel=5 note=57 velocity=0 time=0.09905664999999998
EXTRACT: note_on channel=5 note=52 velocity=0 time=0
EXTRACT: note_on channel=5 note=60 velocity=0 time=0
EXTRACT: note_on channel=5 note=69 velocity=0 time=0
EXTRACT: note_on channel=5 note=64 velocity=0 time=0.004716983333333332
EXTRACT: note_on channel=5 note=57 velocity=66 time=0.004716983333333332
EXTRACT: note_on channel=5 note=69 velocity=66 time=0.004716983333333332
EXTRACT: note_on channel=5 note=60 velocity=66 time=0
EXTRACT: note_on channel=5 note=52 velocity=66 time=0.004716983333333332
EXTRACT: note_on channel=5 note=45 velocity=0 time=0.004716983333333332
EXTRACT: note_on channel=5 note=45 velocity=67 time=0
EXTRACT: note_on channel=5 note=64 velocity=66 time=0
EXTRACT: note_on channel=9 note=75 velocity=50 time=0
EXTRACT: note_on channel=9 note=27 velocity=75 time=0
EXTRACT: note_on channel=9 note=39 velocity=78 time=0
EXTRACT: note_on channel=9 note=42 velocity=75 time=0
EXTRACT: note_on channel=7 note=62 velocity=0 time=0.009433966666666665
EXTRACT: note_on channel=4 note=57 velocity=0 time=0.004716983333333332
EXTRACT: note_on channel=4 note=52 velocity=0 time=0
EXTRACT: note_on channel=4 note=52 velocity=100 time=0.004716983333333332
EXTRACT: note_on channel=4 note=57 velocity=100 time=0
EXTRACT: note_on channel=9 note=42 velocity=0 time=0
EXTRACT: note_on channel=9 note=75 velocity=0 time=0
EXTRACT: note_on channel=9 note=27 velocity=0 time=0
EXTRACT: note_on channel=9 note=39 velocity=0 time=0
EXTRACT: note_on channel=4 note=60 velocity=0 time=0.028301899999999994
EXTRACT: note_on channel=4 note=60 velocity=100 time=0
EXTRACT: note_on channel=9 note=39 velocity=52 time=0.09433966666666666
EXTRACT: note_on channel=9 note=39 velocity=0 time=0.08018871666666665
EXTRACT: note_on channel=1 note=33 velocity=0 time=0.033018883333333325
EXTRACT: note_on channel=0 note=57 velocity=0 time=0.004716983333333332
EXTRACT: note_on channel=0 note=45 velocity=0 time=0
EXTRACT: note_on channel=0 note=64 velocity=0 time=0
EXTRACT: note_on channel=0 note=60 velocity=0 time=0
EXTRACT: note_on channel=6 note=52 velocity=0 time=0
EXTRACT: note_on channel=6 note=64 velocity=0 time=0
EXTRACT: note_on channel=6 note=57 velocity=0 time=0
EXTRACT: note_on channel=5 note=45 velocity=0 time=0.01886793333333333
EXTRACT: note_on channel=4 note=57 velocity=0 time=0
EXTRACT: note_on channel=4 note=52 velocity=0 time=0
EXTRACT: note_on channel=5 note=45 velocity=67 time=0
EXTRACT: note_on channel=9 note=42 velocity=75 time=0
EXTRACT: note_on channel=9 note=35 velocity=75 time=0
EXTRACT: note_on channel=1 note=33 velocity=75 time=0.004716983333333332
EXTRACT: note_on channel=4 note=57 velocity=100 time=0
EXTRACT: note_on channel=6 note=57 velocity=52 time=0
EXTRACT: note_on channel=9 note=75 velocity=46 time=0
EXTRACT: note_on channel=0 note=45 velocity=48 time=0.004716983333333332
EXTRACT: note_on channel=4 note=60 velocity=0 time=0
EXTRACT: note_on channel=4 note=60 velocity=100 time=0
EXTRACT: note_on channel=6 note=64 velocity=50 time=0
EXTRACT: note_on channel=0 note=64 velocity=45 time=0.004716983333333332
EXTRACT: note_on channel=0 note=60 velocity=45 time=0
EXTRACT: note_on channel=0 note=57 velocity=45 time=0
EXTRACT: note_on channel=4 note=52 velocity=100 time=0
EXTRACT: note_on channel=6 note=52 velocity=52 time=0
EXTRACT: note_on channel=9 note=35 velocity=0 time=0.01886793333333333
EXTRACT: note_on channel=9 note=42 velocity=0 time=0
EXTRACT: note_on channel=9 note=75 velocity=0 time=0.004716983333333332
EXTRACT: note_on channel=4 note=60 velocity=0 time=0.24056614999999995
EXTRACT: note_on channel=4 note=57 velocity=0 time=0
EXTRACT: note_on channel=4 note=60 velocity=100 time=0.004716983333333332
EXTRACT: note_on channel=9 note=42 velocity=60 time=0
EXTRACT: note_on channel=5 note=45 velocity=0 time=0.004716983333333332
EXTRACT: note_on channel=7 note=69 velocity=100 time=0
EXTRACT: note_on channel=4 note=57 velocity=100 time=0.004716983333333332
EXTRACT: note_on channel=5 note=45 velocity=67 time=0
EXTRACT: note_on channel=4 note=52 velocity=0 time=0.004716983333333332
EXTRACT: note_on channel=4 note=52 velocity=100 time=0
EXTRACT: note_on channel=9 note=42 velocity=0 time=0.01886793333333333
EXTRACT: note_on channel=4 note=60 velocity=0 time=0.2358491666666666
EXTRACT: note_on channel=5 note=45 velocity=0 time=0
EXTRACT: note_on channel=5 note=57 velocity=0 time=0
EXTRACT: note_on channel=5 note=64 velocity=0 time=0
EXTRACT: note_on channel=5 note=69 velocity=0 time=0.004716983333333332
EXTRACT: note_on channel=5 note=52 velocity=0 time=0
EXTRACT: note_on channel=5 note=52 velocity=34 time=0.004716983333333332
EXTRACT: note_on channel=4 note=57 velocity=0 time=0.004716983333333332
EXTRACT: note_on channel=5 note=60 velocity=0 time=0
EXTRACT: note_on channel=5 note=45 velocity=67 time=0
EXTRACT: note_on channel=5 note=69 velocity=66 time=0
EXTRACT: note_on channel=5 note=64 velocity=67 time=0
EXTRACT: note_on channel=5 note=60 velocity=67 time=0
EXTRACT: note_on channel=5 note=57 velocity=70 time=0
EXTRACT: note_on channel=7 note=69 velocity=0 time=0
EXTRACT: note_on channel=9 note=75 velocity=56 time=0
EXTRACT: note_on channel=9 note=42 velocity=75 time=0
EXTRACT: note_on channel=9 note=27 velocity=75 time=0
EXTRACT: note_on channel=9 note=39 velocity=75 time=0
EXTRACT: note_on channel=4 note=57 velocity=100 time=0.004716983333333332
EXTRACT: note_on channel=4 note=60 velocity=100 time=0
EXTRACT: note_on channel=4 note=52 velocity=0 time=0.009433966666666665
EXTRACT: note_on channel=4 note=52 velocity=100 time=0.004716983333333332
EXTRACT: note_on channel=7 note=69 velocity=100 time=0
EXTRACT: note_on channel=9 note=39 velocity=0 time=0.014150949999999997
EXTRACT: note_on channel=9 note=75 velocity=0 time=0
EXTRACT: note_on channel=9 note=42 velocity=0 time=0
EXTRACT: note_on channel=9 note=27 velocity=0 time=0
EXTRACT: note_on channel=1 note=33 velocity=0 time=0.16509441666666663
EXTRACT: note_on channel=5 note=45 velocity=0 time=0.06132078333333332
EXTRACT: note_on channel=5 note=45 velocity=67 time=0.014150949999999997
EXTRACT: note_on channel=4 note=52 velocity=0 time=0.009433966666666665
EXTRACT: note_on channel=9 note=42 velocity=75 time=0
EXTRACT: note_on channel=9 note=35 velocity=75 time=0
EXTRACT: note_on channel=9 note=27 velocity=75 time=0
EXTRACT: note_on channel=9 note=75 velocity=44 time=0
EXTRACT: note_on channel=1 note=33 velocity=75 time=0.004716983333333332
EXTRACT: note_on channel=4 note=60 velocity=0 time=0
EXTRACT: note_on channel=4 note=57 velocity=0 time=0
EXTRACT: note_on channel=4 note=52 velocity=100 time=0.004716983333333332
EXTRACT: note_on channel=4 note=57 velocity=100 time=0
EXTRACT: note_on channel=4 note=60 velocity=100 time=0.004716983333333332
EXTRACT: note_on channel=7 note=69 velocity=0 time=0
EXTRACT: note_on channel=7 note=69 velocity=100 time=0.009433966666666665
EXTRACT: note_on channel=9 note=75 velocity=0 time=0.009433966666666665
EXTRACT: note_on channel=9 note=42 velocity=0 time=0
EXTRACT: note_on channel=9 note=35 velocity=0 time=0
EXTRACT: note_on channel=9 note=27 velocity=0 time=0
EXTRACT: note_on channel=9 note=35 velocity=100 time=0.1179245833333333
EXTRACT: note_on channel=9 note=35 velocity=0 time=0.07075474999999999
EXTRACT: note_on channel=5 note=45 velocity=0 time=0.028301899999999994
EXTRACT: note_on channel=4 note=52 velocity=0 time=0.023584916666666664
EXTRACT: note_on channel=5 note=45 velocity=67 time=0.009433966666666665
EXTRACT: note_on channel=9 note=42 velocity=75 time=0
EXTRACT: note_on channel=9 note=27 velocity=75 time=0
EXTRACT: note_on channel=4 note=57 velocity=0 time=0.009433966666666665
EXTRACT: note_on channel=9 note=35 velocity=75 time=0
EXTRACT: note_on channel=4 note=60 velocity=0 time=0.004716983333333332
EXTRACT: note_on channel=4 note=52 velocity=100 time=0
EXTRACT: note_on channel=4 note=57 velocity=100 time=0.004716983333333332
EXTRACT: note_on channel=4 note=60 velocity=100 time=0
EXTRACT: note_on channel=7 note=69 velocity=0 time=0
EXTRACT: note_on channel=7 note=69 velocity=100 time=0.009433966666666665
EXTRACT: note_on channel=9 note=27 velocity=0 time=0.004716983333333332
EXTRACT: note_on channel=9 note=42 velocity=0 time=0
EXTRACT: note_on channel=9 note=35 velocity=0 time=0.009433966666666665
EXTRACT: note_on channel=5 note=57 velocity=0 time=0.1745283833333333
EXTRACT: note_on channel=5 note=52 velocity=0 time=0
EXTRACT: note_on channel=5 note=69 velocity=0 time=0
EXTRACT: note_on channel=5 note=60 velocity=0 time=0.009433966666666665
EXTRACT: note_on channel=5 note=64 velocity=0 time=0.004716983333333332
EXTRACT: note_on channel=5 note=52 velocity=66 time=0.014150949999999997
EXTRACT: note_on channel=5 note=57 velocity=66 time=0
EXTRACT: note_on channel=5 note=60 velocity=66 time=0
EXTRACT: note_on channel=5 note=69 velocity=66 time=0
EXTRACT: note_on channel=5 note=64 velocity=66 time=0.004716983333333332
EXTRACT: note_on channel=5 note=45 velocity=0 time=0.009433966666666665
EXTRACT: note_on channel=5 note=45 velocity=67 time=0.004716983333333332
EXTRACT: note_on channel=4 note=52 velocity=0 time=0.014150949999999997
EXTRACT: note_on channel=4 note=52 velocity=100 time=0.004716983333333332
EXTRACT: note_on channel=9 note=75 velocity=46 time=0
EXTRACT: note_on channel=9 note=42 velocity=54 time=0
EXTRACT: note_on channel=4 note=60 velocity=0 time=0.01886793333333333
EXTRACT: note_on channel=4 note=57 velocity=0 time=0
EXTRACT: note_on channel=7 note=67 velocity=100 time=0
EXTRACT: note_on channel=4 note=57 velocity=100 time=0.004716983333333332
EXTRACT: note_on channel=4 note=60 velocity=100 time=0
EXTRACT: note_on channel=7 note=69 velocity=0 time=0
EXTRACT: note_on channel=9 note=42 velocity=0 time=0.009433966666666665
EXTRACT: note_on channel=9 note=75 velocity=0 time=0
EXTRACT: note_on channel=5 note=45 velocity=0 time=0.20754726666666662
EXTRACT: note_on channel=4 note=52 velocity=0 time=0.023584916666666664
EXTRACT: note_on channel=5 note=45 velocity=67 time=0.01886793333333333
EXTRACT: note_on channel=9 note=75 velocity=50 time=0
EXTRACT: note_on channel=9 note=42 velocity=75 time=0
EXTRACT: note_on channel=9 note=27 velocity=75 time=0
EXTRACT: note_on channel=9 note=39 velocity=75 time=0
EXTRACT: note_on channel=4 note=57 velocity=0 time=0.004716983333333332
EXTRACT: note_on channel=4 note=52 velocity=100 time=0.009433966666666665
EXTRACT: note_on channel=4 note=57 velocity=100 time=0
EXTRACT: note_on channel=7 note=67 velocity=0 time=0
EXTRACT: note_on channel=7 note=67 velocity=100 time=0.004716983333333332
EXTRACT: note_on channel=4 note=60 velocity=0 time=0.004716983333333332
EXTRACT: note_on channel=4 note=60 velocity=100 time=0.004716983333333332
EXTRACT: note_on channel=9 note=39 velocity=0 time=0.004716983333333332
EXTRACT: note_on channel=9 note=75 velocity=0 time=0
EXTRACT: note_on channel=9 note=42 velocity=0 time=0
EXTRACT: note_on channel=9 note=27 velocity=0 time=0
EXTRACT: note_on channel=1 note=33 velocity=0 time=0.15094346666666664
EXTRACT: note_on channel=5 note=57 velocity=0 time=0.07075474999999999
EXTRACT: note_on channel=5 note=52 velocity=0 time=0
EXTRACT: note_on channel=5 note=60 velocity=0 time=0
EXTRACT: note_on channel=5 note=69 velocity=0 time=0
EXTRACT: note_on channel=5 note=64 velocity=0 time=0.004716983333333332
EXTRACT: note_on channel=5 note=57 velocity=66 time=0.004716983333333332
EXTRACT: note_on channel=5 note=69 velocity=66 time=0.004716983333333332
EXTRACT: note_on channel=5 note=60 velocity=66 time=0
EXTRACT: note_on channel=5 note=52 velocity=66 time=0.004716983333333332
EXTRACT: note_on channel=4 note=57 velocity=0 time=0.004716983333333332
EXTRACT: note_on channel=4 note=52 velocity=0 time=0
EXTRACT: note_on channel=5 note=45 velocity=0 time=0
EXTRACT: note_on channel=5 note=45 velocity=67 time=0
EXTRACT: note_on channel=5 note=64 velocity=66 time=0
EXTRACT: note_on channel=1 note=33 velocity=60 time=0.004716983333333332
EXTRACT: note_on channel=4 note=52 velocity=100 time=0
EXTRACT: note_on channel=4 note=57 velocity=100 time=0
EXTRACT: note_on channel=9 note=42 velocity=56 time=0
EXTRACT: note_on channel=9 note=27 velocity=75 time=0
EXTRACT: note_on channel=9 note=75 velocity=50 time=0
EXTRACT: note_on channel=7 note=69 velocity=100 time=0.009433966666666665
EXTRACT: note_on channel=7 note=67 velocity=0 time=0.004716983333333332
EXTRACT: note_on channel=4 note=60 velocity=0 time=0.014150949999999997
EXTRACT: note_on channel=4 note=60 velocity=100 time=0
EXTRACT: note_on channel=9 note=27 velocity=0 time=0.06132078333333332
EXTRACT: note_on channel=9 note=75 velocity=0 time=0.01886793333333333
EXTRACT: note_on channel=9 note=42 velocity=0 time=0.004716983333333332
EXTRACT: note_on channel=0 note=57 velocity=0 time=0.1462264833333333
EXTRACT: note_on channel=0 note=45 velocity=0 time=0
EXTRACT: note_on channel=0 note=64 velocity=0 time=0
EXTRACT: note_on channel=0 note=60 velocity=0 time=0
EXTRACT: note_on channel=1 note=33 velocity=0 time=0
EXTRACT: note_on channel=6 note=52 velocity=0 time=0
EXTRACT: note_on channel=6 note=64 velocity=0 time=0
EXTRACT: note_on channel=6 note=57 velocity=0 time=0
EXTRACT: note_on channel=4 note=57 velocity=0 time=0.004716983333333332
EXTRACT: note_on channel=4 note=52 velocity=0 time=0
EXTRACT: note_on channel=4 note=60 velocity=0 time=0.009433966666666665
EXTRACT: note_on channel=5 note=45 velocity=0 time=0
EXTRACT: note_on channel=5 note=52 velocity=0 time=0.004716983333333332
EXTRACT: note_on channel=4 note=59 velocity=100 time=0.004716983333333332
EXTRACT: note_on channel=9 note=75 velocity=46 time=0
EXTRACT: note_on channel=9 note=35 velocity=75 time=0
EXTRACT: note_on channel=1 note=28 velocity=75 time=0.004716983333333332
EXTRACT: note_on channel=4 note=52 velocity=100 time=0
EXTRACT: note_on channel=6 note=59 velocity=52 time=0
EXTRACT: note_on channel=7 note=69 velocity=0 time=0
EXTRACT: note_on channel=9 note=42 velocity=75 time=0
EXTRACT: note_on channel=0 note=40 velocity=48 time=0.004716983333333332
EXTRACT: note_on channel=5 note=52 velocity=66 time=0
EXTRACT: note_on channel=6 note=67 velocity=50 time=0
EXTRACT: note_on channel=0 note=64 velocity=45 time=0.004716983333333332
EXTRACT: note_on channel=0 note=59 velocity=45 time=0
EXTRACT: note_on channel=0 note=55 velocity=45 time=0
EXTRACT: note_on channel=4 note=55 velocity=100 time=0
EXTRACT: note_on channel=6 note=55 velocity=52 time=0
EXTRACT: note_on channel=7 note=71 velocity=100 time=0.004716983333333332
EXTRACT: note_on channel=9 note=35 velocity=0 time=0.014150949999999997
EXTRACT: note_on channel=9 note=42 velocity=0 time=0.004716983333333332
EXTRACT: note_on channel=9 note=75 velocity=0 time=0.04716983333333333
EXTRACT: note_on channel=4 note=59 velocity=0 time=0.17924536666666663
EXTRACT: note_on channel=4 note=52 velocity=0 time=0.004716983333333332
EXTRACT: note_on channel=4 note=52 velocity=100 time=0
EXTRACT: note_on channel=4 note=55 velocity=0 time=0.009433966666666665
EXTRACT: note_on channel=4 note=55 velocity=100 time=0
EXTRACT: note_on channel=4 note=59 velocity=100 time=0
EXTRACT: note_on channel=9 note=42 velocity=58 time=0.004716983333333332
EXTRACT: note_on channel=5 note=52 velocity=0 time=0.004716983333333332
EXTRACT: note_on channel=5 note=52 velocity=66 time=0
EXTRACT: note_on channel=7 note=71 velocity=0 time=0.009433966666666665
EXTRACT: note_on channel=7 note=69 velocity=100 time=0.014150949999999997
EXTRACT: note_on channel=9 note=42 velocity=0 time=0.004716983333333332
EXTRACT: note_on channel=9 note=42 velocity=40 time=0.10849061666666665
EXTRACT: note_on channel=9 note=42 velocity=0 time=0.08490569999999999
EXTRACT: note_on channel=4 note=52 velocity=0 time=0.023584916666666664
EXTRACT: note_on channel=4 note=59 velocity=0 time=0.009433966666666665
EXTRACT: note_on channel=4 note=55 velocity=0 time=0
EXTRACT: note_on channel=5 note=69 velocity=0 time=0
EXTRACT: note_on channel=5 note=64 velocity=0 time=0.004716983333333332
EXTRACT: note_on channel=5 note=57 velocity=0 time=0
EXTRACT: note_on channel=5 note=60 velocity=0 time=0
EXTRACT: note_on channel=5 note=67 velocity=70 time=0.014150949999999997
EXTRACT: note_on channel=5 note=59 velocity=70 time=0
EXTRACT: note_on channel=4 note=52 velocity=100 time=0.004716983333333332
EXTRACT: note_on channel=5 note=52 velocity=0 time=0
EXTRACT: note_on channel=5 note=64 velocity=70 time=0
EXTRACT: note_on channel=5 note=52 velocity=66 time=0
EXTRACT: note_on channel=9 note=27 velocity=75 time=0
EXTRACT: note_on channel=9 note=75 velocity=56 time=0
EXTRACT: note_on channel=9 note=42 velocity=75 time=0
EXTRACT: note_on channel=9 note=39 velocity=75 time=0
EXTRACT: note_on channel=4 note=59 velocity=100 time=0.004716983333333332
EXTRACT: note_on channel=5 note=71 velocity=66 time=0
EXTRACT: note_on channel=7 note=67 velocity=100 time=0
EXTRACT: note_on channel=4 note=55 velocity=100 time=0.009433966666666665
EXTRACT: note_on channel=7 note=69 velocity=0 time=0.009433966666666665
EXTRACT: note_on channel=9 note=39 velocity=0 time=0.009433966666666665
EXTRACT: note_on channel=9 note=27 velocity=0 time=0
EXTRACT: note_on channel=9 note=75 velocity=0 time=0
EXTRACT: note_on channel=9 note=42 velocity=0 time=0
EXTRACT: note_on channel=1 note=28 velocity=0 time=0.16509441666666663
EXTRACT: note_on channel=4 note=52 velocity=0 time=0.06603776666666665
EXTRACT: note_on channel=4 note=59 velocity=0 time=0.004716983333333332
EXTRACT: note_on channel=4 note=55 velocity=0 time=0.009433966666666665
EXTRACT: note_on channel=4 note=55 velocity=100 time=0
EXTRACT: note_on channel=5 note=52 velocity=0 time=0
EXTRACT: note_on channel=5 note=52 velocity=66 time=0
EXTRACT: note_on channel=4 note=59 velocity=100 time=0.004716983333333332
EXTRACT: note_on channel=4 note=52 velocity=100 time=0
EXTRACT: note_on channel=7 note=67 velocity=0 time=0
EXTRACT: note_on channel=9 note=75 velocity=44 time=0
EXTRACT: note_on channel=9 note=42 velocity=52 time=0
EXTRACT: note_on channel=9 note=27 velocity=75 time=0
EXTRACT: note_on channel=9 note=35 velocity=75 time=0
EXTRACT: note_on channel=1 note=28 velocity=75 time=0.004716983333333332
EXTRACT: note_on channel=7 note=64 velocity=100 time=0.014150949999999997
EXTRACT: note_on channel=9 note=35 velocity=0 time=0.014150949999999997
EXTRACT: note_on channel=9 note=75 velocity=0 time=0
EXTRACT: note_on channel=9 note=42 velocity=0 time=0
EXTRACT: note_on channel=9 note=27 velocity=0 time=0
EXTRACT: note_on channel=9 note=35 velocity=75 time=0.09905664999999998
EXTRACT: note_on channel=9 note=35 velocity=0 time=0.033018883333333325
EXTRACT: note_on channel=4 note=55 velocity=0 time=0.09433966666666666
EXTRACT: note_on channel=4 note=52 velocity=0 time=0.004716983333333332
EXTRACT: note_on channel=4 note=59 velocity=0 time=0
EXTRACT: note_on channel=5 note=52 velocity=0 time=0.009433966666666665
EXTRACT: note_on channel=4 note=52 velocity=100 time=0.009433966666666665
EXTRACT: note_on channel=5 note=52 velocity=66 time=0
EXTRACT: note_on channel=9 note=42 velocity=75 time=0
EXTRACT: note_on channel=9 note=27 velocity=75 time=0
EXTRACT: note_on channel=9 note=75 velocity=46 time=0
EXTRACT: note_on channel=4 note=55 velocity=100 time=0.014150949999999997
EXTRACT: note_on channel=4 note=59 velocity=100 time=0
EXTRACT: note_on channel=7 note=64 velocity=0 time=0
EXTRACT: note_on channel=9 note=35 velocity=75 time=0
EXTRACT: note_on channel=9 note=75 velocity=0 time=0.01886793333333333
EXTRACT: note_on channel=9 note=42 velocity=0 time=0
EXTRACT: note_on channel=9 note=27 velocity=0 time=0
EXTRACT: note_on channel=9 note=35 velocity=0 time=0.014150949999999997
EXTRACT: note_on channel=5 note=67 velocity=0 time=0.19339631666666662
EXTRACT: note_on channel=5 note=71 velocity=0 time=0.014150949999999997
EXTRACT: note_on channel=5 note=59 velocity=0 time=0
EXTRACT: note_on channel=4 note=52 velocity=0 time=0.009433966666666665
EXTRACT: note_on channel=5 note=71 velocity=45 time=0.004716983333333332
EXTRACT: note_on channel=5 note=64 velocity=0 time=0.004716983333333332
EXTRACT: note_on channel=5 note=67 velocity=77 time=0
EXTRACT: note_on channel=5 note=59 velocity=56 time=0
EXTRACT: note_on channel=4 note=59 velocity=0 time=0.004716983333333332
EXTRACT: note_on channel=4 note=55 velocity=0 time=0
EXTRACT: note_on channel=5 note=52 velocity=0 time=0
EXTRACT: note_on channel=5 note=52 velocity=66 time=0
EXTRACT: note_on channel=5 note=64 velocity=85 time=0
EXTRACT: note_on channel=9 note=42 velocity=75 time=0.004716983333333332
EXTRACT: note_on channel=4 note=55 velocity=100 time=0.009433966666666665
EXTRACT: note_on channel=4 note=52 velocity=100 time=0
EXTRACT: note_on channel=4 note=59 velocity=100 time=0.014150949999999997
EXTRACT: note_on channel=9 note=42 velocity=0 time=0.009433966666666665
EXTRACT: note_on channel=4 note=52 velocity=0 time=0.24056614999999995
EXTRACT: note_on channel=4 note=55 velocity=0 time=0
EXTRACT: note_on channel=5 note=52 velocity=0 time=0
EXTRACT: note_on channel=5 note=52 velocity=66 time=0.009433966666666665
EXTRACT: note_on channel=9 note=75 velocity=50 time=0
EXTRACT: note_on channel=9 note=42 velocity=75 time=0
EXTRACT: note_on channel=9 note=39 velocity=75 time=0
EXTRACT: note_on channel=9 note=27 velocity=75 time=0
EXTRACT: note_on channel=4 note=59 velocity=0 time=0.004716983333333332
EXTRACT: note_on channel=4 note=55 velocity=100 time=0
EXTRACT: note_on channel=4 note=59 velocity=100 time=0
EXTRACT: note_on channel=4 note=52 velocity=100 time=0
EXTRACT: note_on channel=9 note=27 velocity=0 time=0.028301899999999994
EXTRACT: note_on channel=9 note=75 velocity=0 time=0
EXTRACT: note_on channel=9 note=42 velocity=0 time=0
EXTRACT: note_on channel=9 note=39 velocity=0 time=0
EXTRACT: note_on channel=1 note=28 velocity=0 time=0.15094346666666664
EXTRACT: note_on channel=5 note=71 velocity=0 time=0.04245284999999999
EXTRACT: note_on channel=5 note=67 velocity=0 time=0.004716983333333332
EXTRACT: note_on channel=5 note=64 velocity=0 time=0.004716983333333332
EXTRACT: note_on channel=5 note=59 velocity=0 time=0.014150949999999997
EXTRACT: note_on channel=5 note=71 velocity=56 time=0.004716983333333332
EXTRACT: note_on channel=5 note=64 velocity=56 time=0
EXTRACT: note_on channel=5 note=67 velocity=56 time=0.004716983333333332
EXTRACT: note_on channel=5 note=59 velocity=56 time=0.004716983333333332
EXTRACT: note_on channel=4 note=52 velocity=0 time=0.004716983333333332
EXTRACT: note_on channel=4 note=59 velocity=0 time=0
EXTRACT: note_on channel=4 note=55 velocity=0 time=0
EXTRACT: note_on channel=4 note=55 velocity=100 time=0.009433966666666665
EXTRACT: note_on channel=5 note=52 velocity=0 time=0
EXTRACT: note_on channel=1 note=28 velocity=60 time=0.004716983333333332
EXTRACT: note_on channel=4 note=52 velocity=100 time=0
EXTRACT: note_on channel=9 note=42 velocity=75 time=0
EXTRACT: note_on channel=9 note=27 velocity=75 time=0
EXTRACT: note_on channel=9 note=75 velocity=50 time=0
EXTRACT: note_on channel=5 note=52 velocity=66 time=0.004716983333333332
EXTRACT: note_on channel=4 note=59 velocity=100 time=0.004716983333333332
EXTRACT: note_on channel=9 note=27 velocity=0 time=0.08018871666666665
EXTRACT: note_on channel=9 note=75 velocity=0 time=0.01886793333333333
EXTRACT: note_on channel=9 note=42 velocity=0 time=0.004716983333333332
EXTRACT: note_on channel=0 note=55 velocity=0 time=0.1462264833333333
EXTRACT: note_on channel=0 note=40 velocity=0 time=0
EXTRACT: note_on channel=0 note=64 velocity=0 time=0
EXTRACT: note_on channel=0 note=59 velocity=0 time=0
EXTRACT: note_on channel=1 note=28 velocity=0 time=0
EXTRACT: note_on channel=4 note=55 velocity=0 time=0
EXTRACT: note_on channel=6 note=55 velocity=0 time=0
EXTRACT: note_on channel=6 note=67 velocity=0 time=0
EXTRACT: note_on channel=6 note=59 velocity=0 time=0
EXTRACT: note_on channel=4 note=52 velocity=0 time=0.004716983333333332
EXTRACT: note_on channel=4 note=59 velocity=0 time=0.009433966666666665
EXTRACT: note_on channel=5 note=52 velocity=0 time=0.009433966666666665
EXTRACT: note_on channel=5 note=50 velocity=66 time=0
EXTRACT: note_on channel=9 note=75 velocity=46 time=0
EXTRACT: note_on channel=9 note=35 velocity=75 time=0
EXTRACT: note_on channel=4 note=62 velocity=100 time=0.004716983333333332
EXTRACT: note_on channel=6 note=62 velocity=52 time=0
EXTRACT: note_on channel=9 note=42 velocity=75 time=0
EXTRACT: note_on channel=0 note=50 velocity=48 time=0.004716983333333332
EXTRACT: note_on channel=1 note=38 velocity=83 time=0
EXTRACT: note_on channel=6 note=69 velocity=50 time=0
EXTRACT: note_on channel=0 note=66 velocity=45 time=0.004716983333333332
EXTRACT: note_on channel=0 note=62 velocity=45 time=0
EXTRACT: note_on channel=0 note=57 velocity=45 time=0
EXTRACT: note_on channel=4 note=50 velocity=100 time=0
EXTRACT: note_on channel=4 note=57 velocity=100 time=0
EXTRACT: note_on channel=6 note=57 velocity=52 time=0
EXTRACT: note_on channel=9 note=35 velocity=0 time=0.01886793333333333
EXTRACT: note_on channel=9 note=42 velocity=0 time=0.004716983333333332
EXTRACT: note_on channel=9 note=75 velocity=0 time=0.04716983333333333
EXTRACT: note_on channel=4 note=62 velocity=0 time=0.18396234999999997
EXTRACT: note_on channel=4 note=57 velocity=0 time=0.009433966666666665
EXTRACT: note_on channel=4 note=50 velocity=0 time=0
EXTRACT: note_on channel=5 note=50 velocity=0 time=0
EXTRACT: note_on channel=5 note=50 velocity=66 time=0
EXTRACT: note_on channel=4 note=62 velocity=100 time=0.004716983333333332
EXTRACT: note_on channel=9 note=42 velocity=58 time=0
EXTRACT: note_on channel=4 note=50 velocity=100 time=0.009433966666666665
EXTRACT: note_on channel=4 note=57 velocity=100 time=0
EXTRACT: note_on channel=7 note=66 velocity=100 time=0.004716983333333332
EXTRACT: note_on channel=9 note=42 velocity=0 time=0.01886793333333333
EXTRACT: note_on channel=4 note=62 velocity=0 time=0.2311321833333333
EXTRACT: note_on channel=4 note=57 velocity=0 time=0.009433966666666665
EXTRACT: note_on channel=4 note=50 velocity=0 time=0
EXTRACT: note_on channel=5 note=50 velocity=0 time=0
EXTRACT: note_on channel=5 note=59 velocity=0 time=0
EXTRACT: note_on channel=5 note=71 velocity=0 time=0
EXTRACT: note_on channel=5 note=67 velocity=0 time=0
EXTRACT: note_on channel=5 note=64 velocity=0 time=0.004716983333333332
EXTRACT: note_on channel=5 note=50 velocity=66 time=0.004716983333333332
EXTRACT: note_on channel=5 note=69 velocity=66 time=0
EXTRACT: note_on channel=5 note=66 velocity=67 time=0
EXTRACT: note_on channel=9 note=27 velocity=75 time=0
EXTRACT: note_on channel=9 note=39 velocity=75 time=0
EXTRACT: note_on channel=9 note=42 velocity=75 time=0
EXTRACT: note_on channel=9 note=75 velocity=56 time=0
EXTRACT: note_on channel=4 note=50 velocity=100 time=0.004716983333333332
EXTRACT: note_on channel=5 note=62 velocity=67 time=0
EXTRACT: note_on channel=5 note=57 velocity=70 time=0
EXTRACT: note_on channel=7 note=66 velocity=0 time=0.004716983333333332
EXTRACT: note_on channel=4 note=62 velocity=100 time=0.004716983333333332
EXTRACT: note_on channel=4 note=57 velocity=100 time=0.004716983333333332
EXTRACT: note_on channel=7 note=66 velocity=100 time=0
EXTRACT: note_on channel=9 note=75 velocity=0 time=0.014150949999999997
EXTRACT: note_on channel=9 note=27 velocity=0 time=0
EXTRACT: note_on channel=9 note=39 velocity=0 time=0
EXTRACT: note_on channel=9 note=42 velocity=0 time=0
EXTRACT: note_on channel=4 note=50 velocity=0 time=0.2358491666666666
EXTRACT: note_on channel=4 note=62 velocity=0 time=0.009433966666666665
EXTRACT: note_on channel=5 note=50 velocity=0 time=0
EXTRACT: note_on channel=5 note=50 velocity=66 time=0
EXTRACT: note_on channel=4 note=57 velocity=0 time=0.004716983333333332
EXTRACT: note_on channel=4 note=50 velocity=100 time=0
EXTRACT: note_on channel=9 note=75 velocity=44 time=0
EXTRACT: note_on channel=9 note=42 velocity=52 time=0
EXTRACT: note_on channel=9 note=35 velocity=75 time=0
EXTRACT: note_on channel=9 note=27 velocity=75 time=0
EXTRACT: note_on channel=4 note=57 velocity=100 time=0.014150949999999997
EXTRACT: note_on channel=7 note=66 velocity=0 time=0
EXTRACT: note_on channel=4 note=62 velocity=100 time=0.009433966666666665
EXTRACT: note_on channel=7 note=66 velocity=100 time=0
EXTRACT: note_on channel=9 note=27 velocity=0 time=0.009433966666666665
EXTRACT: note_on channel=9 note=75 velocity=0 time=0
EXTRACT: note_on channel=9 note=42 velocity=0 time=0
EXTRACT: note_on channel=9 note=35 velocity=0 time=0
EXTRACT: note_on channel=9 note=35 velocity=75 time=0.09433966666666666
EXTRACT: note_on channel=9 note=35 velocity=0 time=0.033018883333333325
EXTRACT: note_on channel=4 note=50 velocity=0 time=0.10377363333333331
EXTRACT: note_on channel=5 note=50 velocity=0 time=0.009433966666666665
EXTRACT: note_on channel=4 note=57 velocity=0 time=0.004716983333333332
EXTRACT: note_on channel=5 note=50 velocity=66 time=0.004716983333333332
EXTRACT: note_on channel=9 note=75 velocity=46 time=0
EXTRACT: note_on channel=9 note=42 velocity=75 time=0
EXTRACT: note_on channel=9 note=27 velocity=75 time=0
EXTRACT: note_on channel=4 note=62 velocity=0 time=0.004716983333333332
EXTRACT: note_on channel=9 note=35 velocity=75 time=0
EXTRACT: note_on channel=4 note=50 velocity=100 time=0.009433966666666665
EXTRACT: note_on channel=4 note=57 velocity=100 time=0.004716983333333332
EXTRACT: note_on channel=4 note=62 velocity=100 time=0
EXTRACT: note_on channel=7 note=66 velocity=0 time=0
EXTRACT: note_on channel=7 note=66 velocity=100 time=0.009433966666666665
EXTRACT: note_on channel=9 note=27 velocity=0 time=0.004716983333333332
EXTRACT: note_on channel=9 note=75 velocity=0 time=0
EXTRACT: note_on channel=9 note=42 velocity=0 time=0
EXTRACT: note_on channel=9 note=35 velocity=0 time=0.004716983333333332
EXTRACT: note_on channel=5 note=57 velocity=0 time=0.22169821666666661
EXTRACT: note_on channel=5 note=69 velocity=0 time=0
EXTRACT: note_on channel=5 note=62 velocity=0 time=0.009433966666666665
EXTRACT: note_on channel=5 note=66 velocity=0 time=0.004716983333333332
EXTRACT: note_on channel=4 note=50 velocity=0 time=0.004716983333333332
EXTRACT: note_on channel=5 note=50 velocity=0 time=0
EXTRACT: note_on channel=5 note=57 velocity=66 time=0
EXTRACT: note_on channel=5 note=62 velocity=66 time=0
EXTRACT: note_on channel=5 note=69 velocity=66 time=0
EXTRACT: note_on channel=5 note=50 velocity=66 time=0
EXTRACT: note_on channel=4 note=62 velocity=0 time=0.004716983333333332
EXTRACT: note_on channel=4 note=57 velocity=0 time=0
EXTRACT: note_on channel=9 note=42 velocity=75 time=0
EXTRACT: note_on channel=5 note=66 velocity=66 time=0.004716983333333332
EXTRACT: note_on channel=4 note=57 velocity=100 time=0.004716983333333332
EXTRACT: note_on channel=4 note=62 velocity=100 time=0
EXTRACT: note_on channel=4 note=50 velocity=100 time=0.004716983333333332
EXTRACT: note_on channel=7 note=62 velocity=100 time=0
EXTRACT: note_on channel=7 note=66 velocity=0 time=0.009433966666666665
EXTRACT: note_on channel=9 note=42 velocity=0 time=0.009433966666666665
EXTRACT: note_on channel=4 note=62 velocity=0 time=0.24056614999999995
EXTRACT: note_on channel=4 note=57 velocity=0 time=0
EXTRACT: note_on channel=5 note=50 velocity=0 time=0
EXTRACT: note_on channel=4 note=50 velocity=0 time=0.004716983333333332
EXTRACT: note_on channel=5 note=50 velocity=66 time=0
EXTRACT: note_on channel=9 note=75 velocity=50 time=0.004716983333333332
EXTRACT: note_on channel=9 note=27 velocity=75 time=0
EXTRACT: note_on channel=9 note=39 velocity=75 time=0
EXTRACT: note_on channel=9 note=42 velocity=75 time=0
EXTRACT: note_on channel=4 note=62 velocity=100 time=0.004716983333333332
EXTRACT: note_on channel=7 note=62 velocity=0 time=0.004716983333333332
EXTRACT: note_on channel=4 note=57 velocity=100 time=0.004716983333333332
EXTRACT: note_on channel=4 note=50 velocity=100 time=0.004716983333333332
EXTRACT: note_on channel=7 note=62 velocity=100 time=0
EXTRACT: note_on channel=9 note=42 velocity=0 time=0.014150949999999997
EXTRACT: note_on channel=9 note=75 velocity=0 time=0
EXTRACT: note_on channel=9 note=27 velocity=0 time=0
EXTRACT: note_on channel=9 note=39 velocity=0 time=0
EXTRACT: note_on channel=1 note=38 velocity=0 time=0.18396234999999997
EXTRACT: note_on channel=5 note=66 velocity=0 time=0.04245284999999999
EXTRACT: note_on channel=5 note=69 velocity=0 time=0.004716983333333332
EXTRACT: note_on channel=4 note=62 velocity=0 time=0.004716983333333332
EXTRACT: note_on channel=5 note=57 velocity=0 time=0.004716983333333332
EXTRACT: note_on channel=5 note=62 velocity=0 time=0
EXTRACT: note_on channel=5 note=50 velocity=0 time=0
EXTRACT: note_on channel=4 note=57 velocity=0 time=0.004716983333333332
EXTRACT: note_on channel=5 note=50 velocity=66 time=0
EXTRACT: note_on channel=5 note=57 velocity=66 time=0
EXTRACT: note_on channel=4 note=50 velocity=0 time=0.004716983333333332
EXTRACT: note_on channel=4 note=50 velocity=100 time=0
EXTRACT: note_on channel=4 note=62 velocity=100 time=0
EXTRACT: note_on channel=9 note=42 velocity=75 time=0
EXTRACT: note_on channel=9 note=27 velocity=75 time=0
EXTRACT: note_on channel=9 note=75 velocity=50 time=0
EXTRACT: note_on channel=5 note=62 velocity=66 time=0.004716983333333332
EXTRACT: note_on channel=1 note=38 velocity=62 time=0.004716983333333332
EXTRACT: note_on channel=5 note=69 velocity=66 time=0
EXTRACT: note_on channel=5 note=66 velocity=66 time=0
EXTRACT: note_on channel=7 note=59 velocity=100 time=0
EXTRACT: note_on channel=4 note=57 velocity=100 time=0.004716983333333332
EXTRACT: note_on channel=7 note=62 velocity=0 time=0
EXTRACT: note_on channel=9 note=27 velocity=0 time=0.07547173333333332
EXTRACT: note_on channel=9 note=75 velocity=0 time=0.01886793333333333
EXTRACT: note_on channel=9 note=42 velocity=0 time=0.004716983333333332
EXTRACT: note_on channel=0 note=57 velocity=0 time=0.1462264833333333
EXTRACT: note_on channel=0 note=50 velocity=0 time=0
EXTRACT: note_on channel=0 note=66 velocity=0 time=0
EXTRACT: note_on channel=0 note=62 velocity=0 time=0
EXTRACT: note_on channel=1 note=38 velocity=0 time=0
EXTRACT: note_on channel=6 note=57 velocity=0 time=0
EXTRACT: note_on channel=6 note=69 velocity=0 time=0
EXTRACT: note_on channel=6 note=62 velocity=0 time=0
EXTRACT: note_on channel=4 note=62 velocity=0 time=0.004716983333333332
EXTRACT: note_on channel=4 note=50 velocity=0 time=0
EXTRACT: note_on channel=5 note=50 velocity=0 time=0.009433966666666665
EXTRACT: note_on channel=4 note=57 velocity=0 time=0.004716983333333332
EXTRACT: note_on channel=9 note=75 velocity=46 time=0.004716983333333332
EXTRACT: note_on channel=9 note=35 velocity=75 time=0
EXTRACT: note_on channel=1 note=33 velocity=86 time=0.004716983333333332
EXTRACT: note_on channel=5 note=45 velocity=67 time=0
EXTRACT: note_on channel=6 note=57 velocity=57 time=0
EXTRACT: note_on channel=7 note=59 velocity=0 time=0
EXTRACT: note_on channel=9 note=42 velocity=75 time=0
EXTRACT: note_on channel=0 note=45 velocity=48 time=0.004716983333333332
EXTRACT: note_on channel=6 note=64 velocity=55 time=0
EXTRACT: note_on channel=0 note=64 velocity=45 time=0.004716983333333332
EXTRACT: note_on channel=0 note=60 velocity=45 time=0
EXTRACT: note_on channel=0 note=57 velocity=45 time=0
EXTRACT: note_on channel=6 note=52 velocity=57 time=0
EXTRACT: note_on channel=7 note=60 velocity=100 time=0.004716983333333332
EXTRACT: note_on channel=4 note=57 velocity=100 time=0.004716983333333332
EXTRACT: note_on channel=4 note=60 velocity=100 time=0.004716983333333332
EXTRACT: note_on channel=4 note=52 velocity=100 time=0.004716983333333332
EXTRACT: note_on channel=9 note=35 velocity=0 time=0
EXTRACT: note_on channel=9 note=42 velocity=0 time=0.004716983333333332
EXTRACT: note_on channel=9 note=75 velocity=0 time=0.04716983333333333
EXTRACT: note_on channel=1 note=33 velocity=0 time=0.08490569999999999
EXTRACT: note_on channel=6 note=57 velocity=0 time=0
EXTRACT: note_on channel=0 note=45 velocity=0 time=0.004716983333333332
EXTRACT: note_on channel=6 note=64 velocity=0 time=0
EXTRACT: note_on channel=0 note=64 velocity=0 time=0.004716983333333332
EXTRACT: note_on channel=0 note=60 velocity=0 time=0
EXTRACT: note_on channel=0 note=57 velocity=0 time=0
EXTRACT: note_on channel=6 note=52 velocity=0 time=0
EXTRACT: note_on channel=9 note=42 velocity=58 time=0.10377363333333331
EXTRACT: note_on channel=5 note=45 velocity=0 time=0.009433966666666665
EXTRACT: note_on channel=4 note=60 velocity=0 time=0.004716983333333332
EXTRACT: note_on channel=4 note=57 velocity=0 time=0
EXTRACT: note_on channel=5 note=45 velocity=67 time=0
EXTRACT: note_on channel=7 note=60 velocity=0 time=0
EXTRACT: note_on channel=4 note=60 velocity=100 time=0.004716983333333332
EXTRACT: note_on channel=4 note=57 velocity=100 time=0.009433966666666665
EXTRACT: note_on channel=4 note=52 velocity=0 time=0.004716983333333332
EXTRACT: note_on channel=4 note=52 velocity=100 time=0
EXTRACT: note_on channel=9 note=42 velocity=0 time=0
EXTRACT: note_on channel=9 note=42 velocity=40 time=0.10849061666666665
EXTRACT: note_on channel=9 note=42 velocity=0 time=0.08490569999999999
EXTRACT: note_on channel=5 note=66 velocity=0 time=0.04245284999999999
EXTRACT: note_on channel=5 note=69 velocity=0 time=0
EXTRACT: note_on channel=5 note=57 velocity=0 time=0
EXTRACT: note_on channel=5 note=45 velocity=0 time=0.004716983333333332
EXTRACT: note_on channel=5 note=62 velocity=0 time=0.004716983333333332
EXTRACT: note_on channel=5 note=52 velocity=34 time=0.004716983333333332
EXTRACT: note_on channel=9 note=27 velocity=75 time=0
EXTRACT: note_on channel=9 note=75 velocity=56 time=0
EXTRACT: note_on channel=9 note=42 velocity=75 time=0
EXTRACT: note_on channel=9 note=39 velocity=75 time=0
EXTRACT: note_on channel=4 note=60 velocity=0 time=0.004716983333333332
EXTRACT: note_on channel=5 note=45 velocity=67 time=0
EXTRACT: note_on channel=5 note=69 velocity=66 time=0
EXTRACT: note_on channel=5 note=64 velocity=67 time=0
EXTRACT: note_on channel=5 note=60 velocity=67 time=0
EXTRACT: note_on channel=5 note=57 velocity=70 time=0
EXTRACT: note_on channel=6 note=57 velocity=57 time=0
EXTRACT: note_on channel=0 note=45 velocity=48 time=0.004716983333333332
EXTRACT: note_on channel=1 note=33 velocity=88 time=0
EXTRACT: note_on channel=6 note=64 velocity=55 time=0
EXTRACT: note_on channel=0 note=64 velocity=45 time=0.004716983333333332
EXTRACT: note_on channel=0 note=60 velocity=45 time=0
EXTRACT: note_on channel=0 note=57 velocity=45 time=0
EXTRACT: note_on channel=6 note=52 velocity=57 time=0
EXTRACT: note_on channel=4 note=57 velocity=0 time=0.004716983333333332
EXTRACT: note_on channel=4 note=57 velocity=100 time=0.004716983333333332
EXTRACT: note_on channel=4 note=60 velocity=100 time=0
EXTRACT: note_on channel=4 note=52 velocity=0 time=0.009433966666666665
EXTRACT: note_on channel=9 note=39 velocity=0 time=0
EXTRACT: note_on channel=9 note=27 velocity=0 time=0
EXTRACT: note_on channel=9 note=75 velocity=0 time=0
EXTRACT: note_on channel=9 note=42 velocity=0 time=0
EXTRACT: note_on channel=4 note=52 velocity=100 time=0.004716983333333332
EXTRACT: note_on channel=6 note=57 velocity=0 time=0.1320755333333333
EXTRACT: note_on channel=0 note=45 velocity=0 time=0.004716983333333332
EXTRACT: note_on channel=1 note=33 velocity=0 time=0
EXTRACT: note_on channel=6 note=64 velocity=0 time=0
EXTRACT: note_on channel=0 note=64 velocity=0 time=0.004716983333333332
EXTRACT: note_on channel=0 note=60 velocity=0 time=0
EXTRACT: note_on channel=0 note=57 velocity=0 time=0
EXTRACT: note_on channel=6 note=52 velocity=0 time=0
EXTRACT: note_on channel=5 note=45 velocity=0 time=0.08490569999999999
EXTRACT: note_on channel=5 note=45 velocity=67 time=0.014150949999999997
EXTRACT: note_on channel=9 note=39 velocity=85 time=0.004716983333333332
EXTRACT: note_on channel=9 note=27 velocity=75 time=0
EXTRACT: note_on channel=9 note=75 velocity=44 time=0
EXTRACT: note_on channel=9 note=42 velocity=52 time=0
EXTRACT: note_on channel=4 note=52 velocity=0 time=0.01886793333333333
EXTRACT: note_on channel=4 note=60 velocity=0 time=0.004716983333333332
EXTRACT: note_on channel=4 note=57 velocity=0 time=0
EXTRACT: note_on channel=4 note=52 velocity=100 time=0.004716983333333332
EXTRACT: note_on channel=4 note=57 velocity=100 time=0
EXTRACT: note_on channel=4 note=60 velocity=100 time=0.004716983333333332
EXTRACT: note_on channel=9 note=42 velocity=0 time=0
EXTRACT: note_on channel=9 note=39 velocity=0 time=0
EXTRACT: note_on channel=9 note=27 velocity=0 time=0
EXTRACT: note_on channel=9 note=75 velocity=0 time=0
EXTRACT: note_on channel=5 note=45 velocity=0 time=0.22169821666666661
EXTRACT: note_on channel=9 note=42 velocity=75 time=0.028301899999999994
EXTRACT: note_on channel=9 note=27 velocity=75 time=0
EXTRACT: note_on channel=9 note=75 velocity=46 time=0
EXTRACT: note_on channel=1 note=33 velocity=86 time=0.004716983333333332
EXTRACT: note_on channel=5 note=45 velocity=67 time=0
EXTRACT: note_on channel=6 note=57 velocity=57 time=0
EXTRACT: note_on channel=0 note=45 velocity=48 time=0.004716983333333332
EXTRACT: note_on channel=4 note=52 velocity=0 time=0
EXTRACT: note_on channel=6 note=64 velocity=55 time=0
EXTRACT: note_on channel=0 note=64 velocity=45 time=0.004716983333333332
EXTRACT: note_on channel=0 note=60 velocity=45 time=0
EXTRACT: note_on channel=0 note=57 velocity=45 time=0
EXTRACT: note_on channel=6 note=52 velocity=57 time=0
EXTRACT: note_on channel=4 note=57 velocity=0 time=0.014150949999999997
EXTRACT: note_on channel=4 note=60 velocity=0 time=0.004716983333333332
EXTRACT: note_on channel=4 note=52 velocity=100 time=0
EXTRACT: note_on channel=9 note=75 velocity=0 time=0
EXTRACT: note_on channel=9 note=27 velocity=0 time=0
EXTRACT: note_on channel=9 note=42 velocity=0 time=0
EXTRACT: note_on channel=4 note=57 velocity=100 time=0.004716983333333332
EXTRACT: note_on channel=4 note=60 velocity=100 time=0
EXTRACT: note_on channel=1 note=33 velocity=0 time=0.1320755333333333
EXTRACT: note_on channel=6 note=57 velocity=0 time=0
EXTRACT: note_on channel=0 note=45 velocity=0 time=0.004716983333333332
EXTRACT: note_on channel=6 note=64 velocity=0 time=0
EXTRACT: note_on channel=0 note=64 velocity=0 time=0.004716983333333332
EXTRACT: note_on channel=0 note=60 velocity=0 time=0
EXTRACT: note_on channel=0 note=57 velocity=0 time=0
EXTRACT: note_on channel=6 note=52 velocity=0 time=0
EXTRACT: note_on channel=5 note=69 velocity=0 time=0.051886816666666655
EXTRACT: note_on channel=5 note=64 velocity=0 time=0
EXTRACT: note_on channel=5 note=60 velocity=0 time=0.004716983333333332
EXTRACT: note_on channel=5 note=52 velocity=0 time=0
EXTRACT: note_on channel=5 note=57 velocity=0 time=0
EXTRACT: note_on channel=5 note=52 velocity=66 time=0.014150949999999997
EXTRACT: note_on channel=5 note=57 velocity=66 time=0
EXTRACT: note_on channel=5 note=60 velocity=66 time=0
EXTRACT: note_on channel=5 note=69 velocity=66 time=0
EXTRACT: note_on channel=5 note=64 velocity=66 time=0.004716983333333332
EXTRACT: note_on channel=5 note=45 velocity=0 time=0.009433966666666665
EXTRACT: note_on channel=5 note=45 velocity=67 time=0.004716983333333332
EXTRACT: note_on channel=9 note=42 velocity=75 time=0.014150949999999997
EXTRACT: note_on channel=9 note=35 velocity=75 time=0
EXTRACT: note_on channel=4 note=52 velocity=0 time=0.014150949999999997
EXTRACT: note_on channel=4 note=52 velocity=100 time=0.004716983333333332
EXTRACT: note_on channel=9 note=35 velocity=0 time=0
EXTRACT: note_on channel=9 note=42 velocity=0 time=0
EXTRACT: note_on channel=4 note=60 velocity=0 time=0.01886793333333333
EXTRACT: note_on channel=4 note=57 velocity=0 time=0
EXTRACT: note_on channel=4 note=57 velocity=100 time=0.004716983333333332
EXTRACT: note_on channel=4 note=60 velocity=100 time=0
EXTRACT: note_on channel=9 note=39 velocity=52 time=0.09905664999999998
EXTRACT: note_on channel=9 note=39 velocity=0 time=0.01886793333333333
EXTRACT: note_on channel=5 note=45 velocity=0 time=0.08490569999999999
EXTRACT: note_on channel=4 note=52 velocity=0 time=0.03773586666666666
EXTRACT: note_on channel=9 note=42 velocity=75 time=0
EXTRACT: note_on channel=9 note=27 velocity=75 time=0
EXTRACT: note_on channel=9 note=75 velocity=50 time=0
EXTRACT: note_on channel=9 note=39 velocity=95 time=0
EXTRACT: note_on channel=5 note=45 velocity=67 time=0.004716983333333332
EXTRACT: note_on channel=9 note=39 velocity=0 time=0.014150949999999997
EXTRACT: note_on channel=9 note=42 velocity=0 time=0
EXTRACT: note_on channel=9 note=27 velocity=0 time=0
EXTRACT: note_on channel=9 note=75 velocity=0 time=0
EXTRACT: note_on channel=4 note=57 velocity=0 time=0.004716983333333332
EXTRACT: note_on channel=4 note=52 velocity=100 time=0.009433966666666665
EXTRACT: note_on channel=4 note=57 velocity=100 time=0
EXTRACT: note_on channel=4 note=60 velocity=0 time=0.009433966666666665
EXTRACT: note_on channel=4 note=60 velocity=100 time=0.004716983333333332
EXTRACT: note_on channel=9 note=39 velocity=60 time=0.09433966666666666
EXTRACT: note_on channel=9 note=39 velocity=0 time=0.01886793333333333
EXTRACT: note_on channel=5 note=57 velocity=0 time=0.09905664999999998
EXTRACT: note_on channel=5 note=52 velocity=0 time=0
EXTRACT: note_on channel=5 note=60 velocity=0 time=0
EXTRACT: note_on channel=5 note=69 velocity=0 time=0
EXTRACT: note_on channel=5 note=64 velocity=0 time=0.004716983333333332
EXTRACT: note_on channel=5 note=57 velocity=66 time=0.004716983333333332
EXTRACT: note_on channel=5 note=69 velocity=66 time=0.004716983333333332
EXTRACT: note_on channel=5 note=60 velocity=66 time=0
EXTRACT: note_on channel=5 note=52 velocity=66 time=0.004716983333333332
EXTRACT: note_on channel=7 note=57 velocity=100 time=0
EXTRACT: note_on channel=5 note=45 velocity=0 time=0.004716983333333332
EXTRACT: note_on channel=5 note=45 velocity=67 time=0
EXTRACT: note_on channel=5 note=64 velocity=66 time=0
EXTRACT: note_on channel=9 note=75 velocity=50 time=0
EXTRACT: note_on channel=9 note=27 velocity=75 time=0
EXTRACT: note_on channel=9 note=39 velocity=78 time=0
EXTRACT: note_on channel=9 note=42 velocity=75 time=0
EXTRACT: note_on channel=8 note=57 velocity=100 time=0.004716983333333332
EXTRACT: note_on channel=4 note=57 velocity=0 time=0.009433966666666665
EXTRACT: note_on channel=4 note=52 velocity=0 time=0
EXTRACT: note_on channel=4 note=52 velocity=100 time=0.004716983333333332
EXTRACT: note_on channel=4 note=57 velocity=100 time=0
EXTRACT: note_on channel=9 note=42 velocity=0 time=0
EXTRACT: note_on channel=9 note=75 velocity=0 time=0
EXTRACT: note_on channel=9 note=27 velocity=0 time=0
EXTRACT: note_on channel=9 note=39 velocity=0 time=0
EXTRACT: note_on channel=4 note=60 velocity=0 time=0.028301899999999994
EXTRACT: note_on channel=4 note=60 velocity=100 time=0
EXTRACT: note_on channel=9 note=39 velocity=52 time=0.09433966666666666
EXTRACT: note_on channel=9 note=39 velocity=0 time=0.08018871666666665
EXTRACT: note_on channel=7 note=57 velocity=0 time=0.051886816666666655
EXTRACT: note_on channel=5 note=45 velocity=0 time=0.004716983333333332
EXTRACT: note_on channel=4 note=57 velocity=0 time=0
EXTRACT: note_on channel=4 note=52 velocity=0 time=0
EXTRACT: note_on channel=5 note=45 velocity=67 time=0
EXTRACT: note_on channel=7 note=57 velocity=100 time=0
EXTRACT: note_on channel=8 note=57 velocity=0 time=0
EXTRACT: note_on channel=6 note=64 velocity=52 time=0
EXTRACT: note_on channel=9 note=57 velocity=82 time=0
EXTRACT: note_on channel=0 note=69 velocity=47 time=0.004716983333333332
EXTRACT: note_on channel=0 note=45 velocity=47 time=0
EXTRACT: note_on channel=1 note=33 velocity=83 time=0
EXTRACT: note_on channel=4 note=60 velocity=0 time=0
EXTRACT: note_on channel=8 note=57 velocity=100 time=0
EXTRACT: note_on channel=0 note=64 velocity=45 time=0.004716983333333332
EXTRACT: note_on channel=0 note=60 velocity=45 time=0
EXTRACT: note_on channel=0 note=57 velocity=45 time=0
EXTRACT: note_on channel=6 note=69 velocity=52 time=0
EXTRACT: note_on channel=6 note=60 velocity=50 time=0
EXTRACT: note_on channel=9 note=57 velocity=0 time=0.023584916666666664
EXTRACT: note_on channel=7 note=59 velocity=100 time=0.2358491666666666
EXTRACT: note_on channel=7 note=57 velocity=0 time=0.004716983333333332
EXTRACT: note_on channel=8 note=59 velocity=100 time=0.004716983333333332
EXTRACT: note_on channel=9 note=42 velocity=75 time=0
EXTRACT: note_on channel=5 note=45 velocity=0 time=0.004716983333333332
EXTRACT: note_on channel=8 note=57 velocity=0 time=0
EXTRACT: note_on channel=5 note=45 velocity=67 time=0.004716983333333332
EXTRACT: note_on channel=9 note=42 velocity=0 time=0.023584916666666664
EXTRACT: note_on channel=5 note=45 velocity=0 time=0.2358491666666666
EXTRACT: note_on channel=5 note=57 velocity=0 time=0
EXTRACT: note_on channel=5 note=64 velocity=0 time=0
EXTRACT: note_on channel=7 note=59 velocity=0 time=0
EXTRACT: note_on channel=5 note=69 velocity=0 time=0.004716983333333332
EXTRACT: note_on channel=5 note=52 velocity=0 time=0
EXTRACT: note_on channel=5 note=52 velocity=34 time=0.004716983333333332
EXTRACT: note_on channel=8 note=59 velocity=0 time=0
EXTRACT: note_on channel=5 note=60 velocity=0 time=0.004716983333333332
EXTRACT: note_on channel=5 note=45 velocity=67 time=0
EXTRACT: note_on channel=5 note=69 velocity=66 time=0
EXTRACT: note_on channel=5 note=64 velocity=67 time=0
EXTRACT: note_on channel=5 note=60 velocity=67 time=0
EXTRACT: note_on channel=5 note=57 velocity=70 time=0
EXTRACT: note_on channel=9 note=75 velocity=71 time=0
EXTRACT: note_on channel=9 note=42 velocity=90 time=0
EXTRACT: note_on channel=9 note=39 velocity=90 time=0
EXTRACT: note_on channel=9 note=54 velocity=77 time=0
EXTRACT: note_on channel=9 note=27 velocity=84 time=0
EXTRACT: note_on channel=7 note=60 velocity=100 time=0.009433966666666665
EXTRACT: note_on channel=8 note=60 velocity=100 time=0.009433966666666665
EXTRACT: note_on channel=9 note=27 velocity=0 time=0.014150949999999997
EXTRACT: note_on channel=9 note=39 velocity=0 time=0
EXTRACT: note_on channel=9 note=75 velocity=0 time=0
EXTRACT: note_on channel=9 note=42 velocity=0 time=0
EXTRACT: note_on channel=9 note=54 velocity=0 time=0
EXTRACT: note_on channel=1 note=33 velocity=0 time=0.22169821666666661
EXTRACT: note_on channel=5 note=45 velocity=0 time=0.004716983333333332
EXTRACT: note_on channel=5 note=45 velocity=67 time=0.014150949999999997
EXTRACT: note_on channel=9 note=42 velocity=80 time=0.009433966666666665
EXTRACT: note_on channel=9 note=27 velocity=90 time=0
EXTRACT: note_on channel=9 note=75 velocity=59 time=0
EXTRACT: note_on channel=9 note=35 velocity=90 time=0
EXTRACT: note_on channel=7 note=60 velocity=0 time=0.004716983333333332
EXTRACT: note_on channel=7 note=62 velocity=100 time=0
EXTRACT: note_on channel=0 note=64 velocity=58 time=0.004716983333333332
EXTRACT: note_on channel=1 note=33 velocity=54 time=0
EXTRACT: note_on channel=8 note=60 velocity=0 time=0.004716983333333332
EXTRACT: note_on channel=8 note=62 velocity=100 time=0
EXTRACT: note_on channel=9 note=35 velocity=0 time=0.01886793333333333
EXTRACT: note_on channel=9 note=42 velocity=0 time=0
EXTRACT: note_on channel=9 note=27 velocity=0 time=0
EXTRACT: note_on channel=9 note=75 velocity=0 time=0
EXTRACT: note_on channel=5 note=45 velocity=0 time=0.2169812333333333
EXTRACT: note_on channel=1 note=33 velocity=0 time=0.023584916666666664
EXTRACT: note_on channel=5 note=45 velocity=67 time=0.009433966666666665
EXTRACT: note_on channel=7 note=62 velocity=0 time=0
EXTRACT: note_on channel=9 note=27 velocity=80 time=0
EXTRACT: note_on channel=9 note=75 velocity=61 time=0
EXTRACT: note_on channel=9 note=42 velocity=90 time=0
EXTRACT: note_on channel=1 note=33 velocity=68 time=0.009433966666666665
EXTRACT: note_on channel=7 note=64 velocity=100 time=0
EXTRACT: note_on channel=8 note=62 velocity=0 time=0
EXTRACT: note_on channel=8 note=64 velocity=100 time=0.009433966666666665
EXTRACT: note_on channel=9 note=42 velocity=0 time=0.014150949999999997
EXTRACT: note_on channel=9 note=75 velocity=0 time=0
EXTRACT: note_on channel=9 note=27 velocity=0 time=0
EXTRACT: note_on channel=5 note=57 velocity=0 time=0.18396234999999997
EXTRACT: note_on channel=5 note=52 velocity=0 time=0
EXTRACT: note_on channel=5 note=69 velocity=0 time=0
EXTRACT: note_on channel=5 note=60 velocity=0 time=0.009433966666666665
EXTRACT: note_on channel=5 note=64 velocity=0 time=0.004716983333333332
EXTRACT: note_on channel=5 note=52 velocity=66 time=0.014150949999999997
EXTRACT: note_on channel=5 note=57 velocity=66 time=0
EXTRACT: note_on channel=5 note=60 velocity=66 time=0
EXTRACT: note_on channel=5 note=69 velocity=66 time=0
EXTRACT: note_on channel=5 note=64 velocity=66 time=0.004716983333333332
EXTRACT: note_on channel=5 note=45 velocity=0 time=0.009433966666666665
EXTRACT: note_on channel=5 note=45 velocity=67 time=0.004716983333333332
EXTRACT: note_on channel=9 note=35 velocity=90 time=0.01886793333333333
EXTRACT: note_on channel=9 note=42 velocity=75 time=0
EXTRACT: note_on channel=9 note=42 velocity=0 time=0.033018883333333325
EXTRACT: note_on channel=9 note=35 velocity=0 time=0
EXTRACT: note_on channel=5 note=45 velocity=0 time=0.20754726666666662
EXTRACT: note_on channel=7 note=64 velocity=0 time=0.009433966666666665
EXTRACT: note_on channel=8 note=64 velocity=0 time=0.009433966666666665
EXTRACT: note_on channel=1 note=33 velocity=0 time=0.01886793333333333
EXTRACT: note_on channel=1 note=33 velocity=70 time=0.004716983333333332
EXTRACT: note_on channel=5 note=45 velocity=67 time=0
EXTRACT: note_on channel=7 note=62 velocity=100 time=0
EXTRACT: note_on channel=9 note=39 velocity=90 time=0
EXTRACT: note_on channel=9 note=75 velocity=65 time=0
EXTRACT: note_on channel=9 note=54 velocity=77 time=0
EXTRACT: note_on channel=9 note=27 velocity=90 time=0
EXTRACT: note_on channel=9 note=42 velocity=90 time=0
EXTRACT: note_on channel=8 note=62 velocity=100 time=0.009433966666666665
EXTRACT: note_on channel=9 note=42 velocity=0 time=0.023584916666666664
EXTRACT: note_on channel=9 note=54 velocity=0 time=0
EXTRACT: note_on channel=9 note=39 velocity=0 time=0
EXTRACT: note_on channel=9 note=75 velocity=0 time=0
EXTRACT: note_on channel=9 note=27 velocity=0 time=0
EXTRACT: note_on channel=0 note=45 velocity=0 time=0.14150949999999998
EXTRACT: note_on channel=5 note=57 velocity=0 time=0.08018871666666665
EXTRACT: note_on channel=5 note=52 velocity=0 time=0
EXTRACT: note_on channel=5 note=60 velocity=0 time=0
EXTRACT: note_on channel=5 note=69 velocity=0 time=0
EXTRACT: note_on channel=5 note=64 velocity=0 time=0.004716983333333332
EXTRACT: note_on channel=0 note=57 velocity=0 time=0.004716983333333332
EXTRACT: note_on channel=0 note=60 velocity=0 time=0
EXTRACT: note_on channel=0 note=64 velocity=0 time=0
EXTRACT: note_on channel=5 note=57 velocity=66 time=0
EXTRACT: note_on channel=7 note=60 velocity=100 time=0
EXTRACT: note_on channel=5 note=69 velocity=66 time=0.004716983333333332
EXTRACT: note_on channel=5 note=60 velocity=66 time=0
EXTRACT: note_on channel=0 note=64 velocity=0 time=0.004716983333333332
EXTRACT: note_on channel=5 note=52 velocity=66 time=0
EXTRACT: note_on channel=8 note=60 velocity=100 time=0
EXTRACT: note_on channel=1 note=33 velocity=0 time=0.004716983333333332
EXTRACT: note_on channel=5 note=45 velocity=0 time=0
EXTRACT: note_on channel=5 note=45 velocity=67 time=0
EXTRACT: note_on channel=5 note=64 velocity=66 time=0
EXTRACT: note_on channel=7 note=62 velocity=0 time=0
EXTRACT: note_on channel=0 note=45 velocity=52 time=0.004716983333333332
EXTRACT: note_on channel=1 note=33 velocity=56 time=0
EXTRACT: note_on channel=9 note=27 velocity=90 time=0
EXTRACT: note_on channel=9 note=75 velocity=65 time=0
EXTRACT: note_on channel=9 note=42 velocity=84 time=0
EXTRACT: note_on channel=8 note=62 velocity=0 time=0.004716983333333332
EXTRACT: note_on channel=9 note=27 velocity=0 time=0.08490569999999999
EXTRACT: note_on channel=9 note=75 velocity=0 time=0.01886793333333333
EXTRACT: note_on channel=9 note=42 velocity=0 time=0.004716983333333332
EXTRACT: note_on channel=0 note=69 velocity=0 time=0.04716983333333333
EXTRACT: note_on channel=0 note=45 velocity=0 time=0.09905664999999998
EXTRACT: note_on channel=1 note=33 velocity=0 time=0
EXTRACT: note_on channel=6 note=60 velocity=0 time=0
EXTRACT: note_on channel=6 note=69 velocity=0 time=0
EXTRACT: note_on channel=6 note=64 velocity=0 time=0
EXTRACT: note_on channel=7 note=60 velocity=0 time=0
EXTRACT: note_on channel=8 note=60 velocity=0 time=0.009433966666666665
EXTRACT: note_on channel=5 note=45 velocity=0 time=0.004716983333333332
EXTRACT: note_on channel=5 note=52 velocity=0 time=0.004716983333333332
EXTRACT: note_on channel=7 note=62 velocity=100 time=0.004716983333333332
EXTRACT: note_on channel=9 note=35 velocity=90 time=0
EXTRACT: note_on channel=9 note=42 velocity=90 time=0
EXTRACT: note_on channel=9 note=75 velocity=61 time=0.004716983333333332
EXTRACT: note_on channel=0 note=71 velocity=47 time=0.004716983333333332
EXTRACT: note_on channel=0 note=40 velocity=47 time=0
EXTRACT: note_on channel=1 note=28 velocity=83 time=0
EXTRACT: note_on channel=5 note=52 velocity=66 time=0
EXTRACT: note_on channel=8 note=62 velocity=100 time=0
EXTRACT: note_on channel=0 note=64 velocity=45 time=0.004716983333333332
EXTRACT: note_on channel=0 note=59 velocity=45 time=0
EXTRACT: note_on channel=0 note=55 velocity=45 time=0
EXTRACT: note_on channel=6 note=71 velocity=52 time=0
EXTRACT: note_on channel=9 note=42 velocity=0 time=0.01886793333333333
EXTRACT: note_on channel=9 note=35 velocity=0 time=0
EXTRACT: note_on channel=9 note=75 velocity=0 time=0.004716983333333332
EXTRACT: note_on channel=7 note=62 velocity=0 time=0.24056614999999995
EXTRACT: note_on channel=9 note=42 velocity=75 time=0.004716983333333332
EXTRACT: note_on channel=5 note=52 velocity=0 time=0.004716983333333332
EXTRACT: note_on channel=5 note=52 velocity=66 time=0
EXTRACT: note_on channel=8 note=62 velocity=0 time=0
EXTRACT: note_on channel=7 note=60 velocity=100 time=0.004716983333333332
EXTRACT: note_on channel=8 note=60 velocity=100 time=0.009433966666666665
EXTRACT: note_on channel=9 note=42 velocity=0 time=0.014150949999999997
EXTRACT: note_on channel=5 note=69 velocity=0 time=0.22641519999999996
EXTRACT: note_on channel=5 note=64 velocity=0 time=0.004716983333333332
EXTRACT: note_on channel=5 note=57 velocity=0 time=0
EXTRACT: note_on channel=5 note=60 velocity=0 time=0
EXTRACT: note_on channel=5 note=67 velocity=70 time=0.014150949999999997
EXTRACT: note_on channel=5 note=59 velocity=70 time=0
EXTRACT: note_on channel=5 note=52 velocity=0 time=0.004716983333333332
EXTRACT: note_on channel=5 note=64 velocity=70 time=0
EXTRACT: note_on channel=5 note=52 velocity=66 time=0
EXTRACT: note_on channel=6 note=67 velocity=46 time=0
EXTRACT: note_on channel=9 note=39 velocity=90 time=0
EXTRACT: note_on channel=9 note=75 velocity=71 time=0
EXTRACT: note_on channel=9 note=27 velocity=90 time=0
EXTRACT: note_on channel=9 note=42 velocity=90 time=0
EXTRACT: note_on channel=9 note=54 velocity=77 time=0
EXTRACT: note_on channel=5 note=71 velocity=66 time=0.004716983333333332
EXTRACT: note_on channel=7 note=60 velocity=0 time=0
EXTRACT: note_on channel=7 note=59 velocity=100 time=0.004716983333333332
EXTRACT: note_on channel=8 note=60 velocity=0 time=0.004716983333333332
EXTRACT: note_on channel=8 note=59 velocity=100 time=0.004716983333333332
EXTRACT: note_on channel=9 note=54 velocity=0 time=0.014150949999999997
EXTRACT: note_on channel=9 note=27 velocity=0 time=0
EXTRACT: note_on channel=9 note=39 velocity=0 time=0
EXTRACT: note_on channel=9 note=75 velocity=0 time=0
EXTRACT: note_on channel=9 note=42 velocity=0 time=0
EXTRACT: note_on channel=1 note=28 velocity=0 time=0.22169821666666661
EXTRACT: note_on channel=5 note=52 velocity=0 time=0.023584916666666664
EXTRACT: note_on channel=5 note=52 velocity=66 time=0
EXTRACT: note_on channel=9 note=35 velocity=90 time=0.004716983333333332
EXTRACT: note_on channel=9 note=75 velocity=59 time=0
EXTRACT: note_on channel=9 note=42 velocity=90 time=0
EXTRACT: note_on channel=9 note=27 velocity=90 time=0
EXTRACT: note_on channel=0 note=67 velocity=58 time=0.009433966666666665
EXTRACT: note_on channel=1 note=28 velocity=54 time=0
EXTRACT: note_on channel=9 note=27 velocity=0 time=0.023584916666666664
EXTRACT: note_on channel=9 note=35 velocity=0 time=0
EXTRACT: note_on channel=9 note=75 velocity=0 time=0
EXTRACT: note_on channel=9 note=42 velocity=0 time=0
EXTRACT: note_on channel=7 note=59 velocity=0 time=0.2169812333333333
EXTRACT: note_on channel=8 note=59 velocity=0 time=0.009433966666666665
EXTRACT: note_on channel=1 note=28 velocity=0 time=0.014150949999999997
EXTRACT: note_on channel=5 note=52 velocity=0 time=0
EXTRACT: note_on channel=5 note=52 velocity=66 time=0.009433966666666665
EXTRACT: note_on channel=6 note=64 velocity=50 time=0
EXTRACT: note_on channel=9 note=27 velocity=90 time=0
EXTRACT: note_on channel=9 note=42 velocity=90 time=0
EXTRACT: note_on channel=1 note=28 velocity=68 time=0.009433966666666665
EXTRACT: note_on channel=9 note=42 velocity=0 time=0.023584916666666664
EXTRACT: note_on channel=9 note=27 velocity=0 time=0
EXTRACT: note_on channel=5 note=67 velocity=0 time=0.20754726666666662
EXTRACT: note_on channel=5 note=71 velocity=0 time=0.014150949999999997
EXTRACT: note_on channel=5 note=59 velocity=0 time=0
EXTRACT: note_on channel=5 note=71 velocity=45 time=0.014150949999999997
EXTRACT: note_on channel=5 note=64 velocity=0 time=0.004716983333333332
EXTRACT: note_on channel=5 note=67 velocity=77 time=0
EXTRACT: note_on channel=5 note=59 velocity=56 time=0
EXTRACT: note_on channel=5 note=52 velocity=0 time=0.004716983333333332
EXTRACT: note_on channel=5 note=52 velocity=66 time=0
EXTRACT: note_on channel=5 note=64 velocity=85 time=0
EXTRACT: note_on channel=9 note=35 velocity=90 time=0.004716983333333332
EXTRACT: note_on channel=9 note=42 velocity=69 time=0
EXTRACT: note_on channel=9 note=75 velocity=61 time=0
EXTRACT: note_on channel=9 note=75 velocity=0 time=0.033018883333333325
EXTRACT: note_on channel=9 note=42 velocity=0 time=0
EXTRACT: note_on channel=9 note=35 velocity=0 time=0
EXTRACT: note_on channel=5 note=52 velocity=0 time=0.24056614999999995
EXTRACT: note_on channel=1 note=28 velocity=0 time=0.004716983333333332
EXTRACT: note_on channel=1 note=28 velocity=70 time=0.004716983333333332
EXTRACT: note_on channel=5 note=52 velocity=66 time=0
EXTRACT: note_on channel=9 note=39 velocity=90 time=0
EXTRACT: note_on channel=9 note=27 velocity=90 time=0
EXTRACT: note_on channel=9 note=42 velocity=90 time=0
EXTRACT: note_on channel=9 note=54 velocity=77 time=0
EXTRACT: note_on channel=9 note=75 velocity=65 time=0
EXTRACT: note_on channel=9 note=75 velocity=0 time=0.033018883333333325
EXTRACT: note_on channel=9 note=42 velocity=0 time=0
EXTRACT: note_on channel=9 note=39 velocity=0 time=0
EXTRACT: note_on channel=9 note=27 velocity=0 time=0
EXTRACT: note_on channel=9 note=54 velocity=0 time=0
EXTRACT: note_on channel=0 note=40 velocity=0 time=0.14150949999999998
EXTRACT: note_on channel=5 note=71 velocity=0 time=0.051886816666666655
EXTRACT: note_on channel=5 note=67 velocity=0 time=0.004716983333333332
EXTRACT: note_on channel=5 note=64 velocity=0 time=0.004716983333333332
EXTRACT: note_on channel=5 note=59 velocity=0 time=0.014150949999999997
EXTRACT: note_on channel=5 note=71 velocity=56 time=0.004716983333333332
EXTRACT: note_on channel=5 note=64 velocity=56 time=0
EXTRACT: note_on channel=5 note=67 velocity=56 time=0.004716983333333332
EXTRACT: note_on channel=0 note=55 velocity=0 time=0.004716983333333332
EXTRACT: note_on channel=0 note=59 velocity=0 time=0
EXTRACT: note_on channel=0 note=64 velocity=0 time=0
EXTRACT: note_on channel=5 note=59 velocity=56 time=0
EXTRACT: note_on channel=0 note=67 velocity=0 time=0.009433966666666665
EXTRACT: note_on channel=1 note=28 velocity=0 time=0.004716983333333332
EXTRACT: note_on channel=5 note=52 velocity=0 time=0
EXTRACT: note_on channel=0 note=40 velocity=52 time=0.004716983333333332
EXTRACT: note_on channel=1 note=28 velocity=56 time=0
EXTRACT: note_on channel=9 note=75 velocity=65 time=0
EXTRACT: note_on channel=9 note=27 velocity=90 time=0
EXTRACT: note_on channel=9 note=42 velocity=71 time=0
EXTRACT: note_on channel=5 note=52 velocity=66 time=0.004716983333333332
EXTRACT: note_on channel=9 note=27 velocity=0 time=0.08490569999999999
EXTRACT: note_on channel=9 note=75 velocity=0 time=0.01886793333333333
EXTRACT: note_on channel=9 note=42 velocity=0 time=0.004716983333333332
EXTRACT: note_on channel=0 note=71 velocity=0 time=0.04716983333333333
EXTRACT: note_on channel=0 note=40 velocity=0 time=0.09905664999999998
EXTRACT: note_on channel=1 note=28 velocity=0 time=0
EXTRACT: note_on channel=6 note=64 velocity=0 time=0
EXTRACT: note_on channel=6 note=67 velocity=0 time=0
EXTRACT: note_on channel=6 note=71 velocity=0 time=0
EXTRACT: note_on channel=7 note=62 velocity=100 time=0.01886793333333333
EXTRACT: note_on channel=5 note=52 velocity=0 time=0.004716983333333332
EXTRACT: note_on channel=5 note=50 velocity=66 time=0
EXTRACT: note_on channel=9 note=42 velocity=90 time=0
EXTRACT: note_on channel=9 note=35 velocity=90 time=0
EXTRACT: note_on channel=6 note=69 velocity=52 time=0.004716983333333332
EXTRACT: note_on channel=8 note=62 velocity=100 time=0
EXTRACT: note_on channel=9 note=75 velocity=61 time=0
EXTRACT: note_on channel=0 note=74 velocity=47 time=0.004716983333333332
EXTRACT: note_on channel=0 note=50 velocity=47 time=0
EXTRACT: note_on channel=1 note=38 velocity=83 time=0
EXTRACT: note_on channel=0 note=66 velocity=45 time=0.004716983333333332
EXTRACT: note_on channel=0 note=62 velocity=45 time=0
EXTRACT: note_on channel=0 note=57 velocity=45 time=0
EXTRACT: note_on channel=6 note=66 velocity=50 time=0
EXTRACT: note_on channel=9 note=35 velocity=0 time=0.01886793333333333
EXTRACT: note_on channel=9 note=42 velocity=0 time=0
EXTRACT: note_on channel=9 note=75 velocity=0 time=0.004716983333333332
EXTRACT: note_on channel=7 note=62 velocity=0 time=0.2358491666666666
EXTRACT: note_on channel=7 note=62 velocity=100 time=0
EXTRACT: note_on channel=5 note=50 velocity=0 time=0.004716983333333332
EXTRACT: note_on channel=5 note=50 velocity=66 time=0
EXTRACT: note_on channel=8 note=62 velocity=0 time=0.004716983333333332
EXTRACT: note_on channel=8 note=62 velocity=100 time=0
EXTRACT: note_on channel=9 note=42 velocity=75 time=0
EXTRACT: note_on channel=9 note=42 velocity=0 time=0.033018883333333325
EXTRACT: note_on channel=7 note=62 velocity=0 time=0.2358491666666666
EXTRACT: note_on channel=5 note=50 velocity=0 time=0.004716983333333332
EXTRACT: note_on channel=5 note=59 velocity=0 time=0
EXTRACT: note_on channel=5 note=71 velocity=0 time=0
EXTRACT: note_on channel=5 note=67 velocity=0 time=0
EXTRACT: note_on channel=5 note=64 velocity=0 time=0.004716983333333332
EXTRACT: note_on channel=8 note=62 velocity=0 time=0
EXTRACT: note_on channel=5 note=50 velocity=66 time=0.004716983333333332
EXTRACT: note_on channel=5 note=69 velocity=66 time=0
EXTRACT: note_on channel=5 note=66 velocity=67 time=0
EXTRACT: note_on channel=6 note=74 velocity=52 time=0
EXTRACT: note_on channel=9 note=39 velocity=90 time=0
EXTRACT: note_on channel=9 note=54 velocity=77 time=0
EXTRACT: note_on channel=9 note=75 velocity=71 time=0
EXTRACT: note_on channel=9 note=27 velocity=90 time=0
EXTRACT: note_on channel=9 note=42 velocity=90 time=0
EXTRACT: note_on channel=5 note=62 velocity=67 time=0.004716983333333332
EXTRACT: note_on channel=5 note=57 velocity=70 time=0
EXTRACT: note_on channel=7 note=62 velocity=100 time=0
EXTRACT: note_on channel=8 note=62 velocity=100 time=0.009433966666666665
EXTRACT: note_on channel=9 note=42 velocity=0 time=0.01886793333333333
EXTRACT: note_on channel=9 note=75 velocity=0 time=0
EXTRACT: note_on channel=9 note=39 velocity=0 time=0
EXTRACT: note_on channel=9 note=54 velocity=0 time=0
EXTRACT: note_on channel=9 note=27 velocity=0 time=0
EXTRACT: note_on channel=1 note=38 velocity=0 time=0.24056614999999995
EXTRACT: note_on channel=5 note=50 velocity=0 time=0.004716983333333332
EXTRACT: note_on channel=5 note=50 velocity=66 time=0
EXTRACT: note_on channel=1 note=38 velocity=70 time=0.004716983333333332
EXTRACT: note_on channel=7 note=62 velocity=0 time=0
EXTRACT: note_on channel=7 note=62 velocity=100 time=0
EXTRACT: note_on channel=9 note=75 velocity=59 time=0
EXTRACT: note_on channel=9 note=35 velocity=90 time=0
EXTRACT: note_on channel=9 note=42 velocity=90 time=0
EXTRACT: note_on channel=9 note=27 velocity=90 time=0
EXTRACT: note_on channel=0 note=69 velocity=58 time=0.009433966666666665
EXTRACT: note_on channel=8 note=62 velocity=0 time=0
EXTRACT: note_on channel=8 note=62 velocity=100 time=0
EXTRACT: note_on channel=9 note=27 velocity=0 time=0.023584916666666664
EXTRACT: note_on channel=9 note=75 velocity=0 time=0
EXTRACT: note_on channel=9 note=35 velocity=0 time=0
EXTRACT: note_on channel=9 note=42 velocity=0 time=0
EXTRACT: note_on channel=1 note=38 velocity=0 time=0.18396234999999997
EXTRACT: note_on channel=6 note=69 velocity=0 time=0
EXTRACT: note_on channel=5 note=50 velocity=0 time=0.05660379999999999
EXTRACT: note_on channel=7 note=62 velocity=0 time=0.004716983333333332
EXTRACT: note_on channel=7 note=64 velocity=100 time=0
EXTRACT: note_on channel=1 note=38 velocity=70 time=0.004716983333333332
EXTRACT: note_on channel=5 note=50 velocity=66 time=0
EXTRACT: note_on channel=6 note=69 velocity=46 time=0
EXTRACT: note_on channel=9 note=42 velocity=90 time=0
EXTRACT: note_on channel=9 note=27 velocity=90 time=0
EXTRACT: note_on channel=8 note=62 velocity=0 time=0.004716983333333332
EXTRACT: note_on channel=8 note=64 velocity=100 time=0
EXTRACT: note_on channel=9 note=27 velocity=0 time=0.028301899999999994
EXTRACT: note_on channel=9 note=42 velocity=0 time=0
EXTRACT: note_on channel=5 note=57 velocity=0 time=0.22641519999999996
EXTRACT: note_on channel=5 note=69 velocity=0 time=0
EXTRACT: note_on channel=5 note=62 velocity=0 time=0.009433966666666665
EXTRACT: note_on channel=5 note=66 velocity=0 time=0.004716983333333332
EXTRACT: note_on channel=5 note=50 velocity=0 time=0.004716983333333332
EXTRACT: note_on channel=5 note=57 velocity=66 time=0
EXTRACT: note_on channel=5 note=62 velocity=66 time=0
EXTRACT: note_on channel=5 note=69 velocity=66 time=0
EXTRACT: note_on channel=5 note=50 velocity=66 time=0
EXTRACT: note_on channel=9 note=35 velocity=90 time=0.004716983333333332
EXTRACT: note_on channel=9 note=75 velocity=61 time=0
EXTRACT: note_on channel=9 note=42 velocity=69 time=0
EXTRACT: note_on channel=5 note=66 velocity=66 time=0.004716983333333332
EXTRACT: note_on channel=9 note=42 velocity=0 time=0.028301899999999994
EXTRACT: note_on channel=9 note=75 velocity=0 time=0
EXTRACT: note_on channel=9 note=35 velocity=0 time=0
EXTRACT: note_on channel=7 note=64 velocity=0 time=0.2028302833333333
EXTRACT: note_on channel=8 note=64 velocity=0 time=0.009433966666666665
EXTRACT: note_on channel=5 note=50 velocity=0 time=0.028301899999999994
EXTRACT: note_on channel=7 note=60 velocity=100 time=0
EXTRACT: note_on channel=5 note=50 velocity=66 time=0.004716983333333332
EXTRACT: note_on channel=8 note=60 velocity=100 time=0.004716983333333332
EXTRACT: note_on channel=9 note=39 velocity=90 time=0
EXTRACT: note_on channel=9 note=75 velocity=65 time=0
EXTRACT: note_on channel=9 note=27 velocity=90 time=0
EXTRACT: note_on channel=9 note=42 velocity=90 time=0
EXTRACT: note_on channel=9 note=54 velocity=77 time=0
EXTRACT: note_on channel=9 note=54 velocity=0 time=0.033018883333333325
EXTRACT: note_on channel=9 note=27 velocity=0 time=0
EXTRACT: note_on channel=9 note=39 velocity=0 time=0
EXTRACT: note_on channel=9 note=75 velocity=0 time=0
EXTRACT: note_on channel=9 note=42 velocity=0 time=0
EXTRACT: note_on channel=0 note=50 velocity=0 time=0.14150949999999998
EXTRACT: note_on channel=5 note=66 velocity=0 time=0.08490569999999999
EXTRACT: note_on channel=0 note=57 velocity=0 time=0.004716983333333332
EXTRACT: note_on channel=0 note=62 velocity=0 time=0
EXTRACT: note_on channel=0 note=66 velocity=0 time=0
EXTRACT: note_on channel=5 note=69 velocity=0 time=0
EXTRACT: note_on channel=7 note=60 velocity=0 time=0.004716983333333332
EXTRACT: note_on channel=0 note=69 velocity=0 time=0.004716983333333332
EXTRACT: note_on channel=5 note=57 velocity=0 time=0
EXTRACT: note_on channel=5 note=62 velocity=0 time=0
EXTRACT: note_on channel=5 note=50 velocity=0 time=0
EXTRACT: note_on channel=5 note=50 velocity=66 time=0.004716983333333332
EXTRACT: note_on channel=5 note=57 velocity=66 time=0
EXTRACT: note_on channel=8 note=60 velocity=0 time=0
EXTRACT: note_on channel=0 note=50 velocity=52 time=0.004716983333333332
EXTRACT: note_on channel=1 note=38 velocity=0 time=0
EXTRACT: note_on channel=7 note=59 velocity=100 time=0
EXTRACT: note_on channel=9 note=75 velocity=65 time=0
EXTRACT: note_on channel=9 note=42 velocity=71 time=0
EXTRACT: note_on channel=9 note=27 velocity=90 time=0
EXTRACT: note_on channel=5 note=62 velocity=66 time=0.004716983333333332
EXTRACT: note_on channel=1 note=38 velocity=62 time=0.004716983333333332
EXTRACT: note_on channel=5 note=69 velocity=66 time=0
EXTRACT: note_on channel=5 note=66 velocity=66 time=0
EXTRACT: note_on channel=8 note=59 velocity=100 time=0
EXTRACT: note_on channel=9 note=27 velocity=0 time=0.08018871666666665
EXTRACT: note_on channel=9 note=75 velocity=0 time=0.01886793333333333
EXTRACT: note_on channel=9 note=42 velocity=0 time=0.004716983333333332
EXTRACT: note_on channel=0 note=74 velocity=0 time=0.04716983333333333
EXTRACT: note_on channel=1 note=38 velocity=0 time=0.08018871666666665
EXTRACT: note_on channel=0 note=50 velocity=0 time=0.01886793333333333
EXTRACT: note_on channel=6 note=69 velocity=0 time=0
EXTRACT: note_on channel=6 note=74 velocity=0 time=0
EXTRACT: note_on channel=6 note=66 velocity=0 time=0
EXTRACT: note_on channel=5 note=50 velocity=0 time=0.014150949999999997
EXTRACT: note_on channel=7 note=59 velocity=0 time=0.004716983333333332
EXTRACT: note_on channel=7 note=60 velocity=100 time=0
EXTRACT: note_on channel=9 note=35 velocity=90 time=0.004716983333333332
EXTRACT: note_on channel=9 note=75 velocity=61 time=0
EXTRACT: note_on channel=1 note=33 velocity=75 time=0.004716983333333332
EXTRACT: note_on channel=5 note=45 velocity=67 time=0
EXTRACT: note_on channel=6 note=64 velocity=52 time=0
EXTRACT: note_on channel=8 note=59 velocity=0 time=0
EXTRACT: note_on channel=8 note=60 velocity=100 time=0
EXTRACT: note_on channel=9 note=42 velocity=90 time=0
EXTRACT: note_on channel=0 note=69 velocity=47 time=0.004716983333333332
EXTRACT: note_on channel=0 note=45 velocity=47 time=0
EXTRACT: note_on channel=0 note=64 velocity=45 time=0.004716983333333332
EXTRACT: note_on channel=0 note=60 velocity=45 time=0
EXTRACT: note_on channel=0 note=57 velocity=45 time=0
EXTRACT: note_on channel=6 note=69 velocity=52 time=0
EXTRACT: note_on channel=6 note=60 velocity=50 time=0
EXTRACT: note_on channel=9 note=35 velocity=0 time=0.01886793333333333
EXTRACT: note_on channel=9 note=42 velocity=0 time=0.004716983333333332
EXTRACT: note_on channel=9 note=75 velocity=0 time=0.04716983333333333
EXTRACT: note_on channel=7 note=60 velocity=0 time=0.1886793333333333
EXTRACT: note_on channel=7 note=59 velocity=100 time=0
EXTRACT: note_on channel=8 note=60 velocity=0 time=0.009433966666666665
EXTRACT: note_on channel=8 note=59 velocity=100 time=0
EXTRACT: note_on channel=9 note=42 velocity=73 time=0
EXTRACT: note_on channel=5 note=45 velocity=0 time=0.009433966666666665
EXTRACT: note_on channel=5 note=45 velocity=67 time=0.004716983333333332
EXTRACT: note_on channel=9 note=42 velocity=0 time=0.01886793333333333
EXTRACT: note_on channel=9 note=42 velocity=55 time=0.10849061666666665
EXTRACT: note_on channel=9 note=42 velocity=0 time=0.01886793333333333
EXTRACT: note_on channel=5 note=66 velocity=0 time=0.10849061666666665
EXTRACT: note_on channel=5 note=69 velocity=0 time=0
EXTRACT: note_on channel=5 note=57 velocity=0 time=0
EXTRACT: note_on channel=7 note=59 velocity=0 time=0
EXTRACT: note_on channel=5 note=45 velocity=0 time=0.004716983333333332
EXTRACT: note_on channel=5 note=62 velocity=0 time=0.004716983333333332
EXTRACT: note_on channel=7 note=57 velocity=100 time=0
EXTRACT: note_on channel=8 note=59 velocity=0 time=0
EXTRACT: note_on channel=5 note=52 velocity=34 time=0.004716983333333332
EXTRACT: note_on channel=9 note=54 velocity=77 time=0
EXTRACT: note_on channel=9 note=75 velocity=71 time=0
EXTRACT: note_on channel=9 note=27 velocity=90 time=0
EXTRACT: note_on channel=9 note=42 velocity=90 time=0
EXTRACT: note_on channel=9 note=39 velocity=90 time=0
EXTRACT: note_on channel=5 note=45 velocity=67 time=0.004716983333333332
EXTRACT: note_on channel=5 note=69 velocity=66 time=0
EXTRACT: note_on channel=5 note=64 velocity=67 time=0
EXTRACT: note_on channel=5 note=60 velocity=67 time=0
EXTRACT: note_on channel=5 note=57 velocity=70 time=0
EXTRACT: note_on channel=8 note=57 velocity=100 time=0
EXTRACT: note_on channel=9 note=39 velocity=0 time=0.028301899999999994
EXTRACT: note_on channel=9 note=27 velocity=0 time=0
EXTRACT: note_on channel=9 note=54 velocity=0 time=0
EXTRACT: note_on channel=9 note=75 velocity=0 time=0
EXTRACT: note_on channel=9 note=42 velocity=0 time=0
EXTRACT: note_on channel=1 note=33 velocity=0 time=0.16509441666666663
EXTRACT: note_on channel=5 note=45 velocity=0 time=0.06603776666666665
EXTRACT: note_on channel=5 note=45 velocity=67 time=0.014150949999999997
EXTRACT: note_on channel=9 note=75 velocity=59 time=0.004716983333333332
EXTRACT: note_on channel=9 note=42 velocity=67 time=0
EXTRACT: note_on channel=9 note=27 velocity=90 time=0
EXTRACT: note_on channel=9 note=35 velocity=90 time=0
EXTRACT: note_on channel=1 note=33 velocity=75 time=0.004716983333333332
EXTRACT: note_on channel=7 note=57 velocity=0 time=0
EXTRACT: note_on channel=0 note=64 velocity=58 time=0.004716983333333332
EXTRACT: note_on channel=7 note=57 velocity=100 time=0.004716983333333332
EXTRACT: note_on channel=8 note=57 velocity=0 time=0
EXTRACT: note_on channel=8 note=57 velocity=100 time=0.009433966666666665
EXTRACT: note_on channel=9 note=35 velocity=0 time=0.009433966666666665
EXTRACT: note_on channel=9 note=75 velocity=0 time=0
EXTRACT: note_on channel=9 note=42 velocity=0 time=0
EXTRACT: note_on channel=9 note=27 velocity=0 time=0
EXTRACT: note_on channel=5 note=45 velocity=0 time=0.22169821666666661
EXTRACT: note_on channel=7 note=57 velocity=0 time=0.01886793333333333
EXTRACT: note_on channel=7 note=60 velocity=100 time=0
EXTRACT: note_on channel=8 note=57 velocity=0 time=0.009433966666666665
EXTRACT: note_on channel=8 note=60 velocity=100 time=0
EXTRACT: note_on channel=9 note=75 velocity=61 time=0
EXTRACT: note_on channel=9 note=27 velocity=90 time=0
EXTRACT: note_on channel=9 note=42 velocity=90 time=0
EXTRACT: note_on channel=5 note=45 velocity=67 time=0.004716983333333332
EXTRACT: note_on channel=9 note=42 velocity=0 time=0.028301899999999994
EXTRACT: note_on channel=9 note=27 velocity=0 time=0
EXTRACT: note_on channel=9 note=75 velocity=0 time=0
EXTRACT: note_on channel=5 note=69 velocity=0 time=0.19811329999999996
EXTRACT: note_on channel=5 note=64 velocity=0 time=0
EXTRACT: note_on channel=5 note=60 velocity=0 time=0.004716983333333332
EXTRACT: note_on channel=5 note=52 velocity=0 time=0
EXTRACT: note_on channel=5 note=57 velocity=0 time=0
EXTRACT: note_on channel=5 note=52 velocity=66 time=0.014150949999999997
EXTRACT: note_on channel=5 note=57 velocity=66 time=0
EXTRACT: note_on channel=5 note=60 velocity=66 time=0
EXTRACT: note_on channel=5 note=69 velocity=66 time=0
EXTRACT: note_on channel=5 note=64 velocity=66 time=0.004716983333333332
EXTRACT: note_on channel=5 note=45 velocity=0 time=0.009433966666666665
EXTRACT: note_on channel=5 note=45 velocity=67 time=0.004716983333333332
EXTRACT: note_on channel=7 note=59 velocity=100 time=0.009433966666666665
EXTRACT: note_on channel=7 note=60 velocity=0 time=0.004716983333333332
EXTRACT: note_on channel=9 note=42 velocity=90 time=0
EXTRACT: note_on channel=9 note=35 velocity=90 time=0
EXTRACT: note_on channel=8 note=59 velocity=100 time=0.004716983333333332
EXTRACT: note_on channel=8 note=60 velocity=0 time=0.004716983333333332
EXTRACT: note_on channel=9 note=35 velocity=0 time=0.023584916666666664
EXTRACT: note_on channel=9 note=42 velocity=0 time=0
EXTRACT: note_on channel=5 note=45 velocity=0 time=0.21226424999999996
EXTRACT: note_on channel=7 note=57 velocity=100 time=0.03773586666666666
EXTRACT: note_on channel=9 note=42 velocity=90 time=0
EXTRACT: note_on channel=9 note=75 velocity=65 time=0
EXTRACT: note_on channel=9 note=27 velocity=90 time=0
EXTRACT: note_on channel=9 note=54 velocity=77 time=0
EXTRACT: note_on channel=9 note=39 velocity=90 time=0
EXTRACT: note_on channel=5 note=45 velocity=67 time=0.004716983333333332
EXTRACT: note_on channel=7 note=59 velocity=0 time=0
EXTRACT: note_on channel=8 note=57 velocity=100 time=0.004716983333333332
EXTRACT: note_on channel=8 note=59 velocity=0 time=0.004716983333333332
EXTRACT: note_on channel=9 note=39 velocity=0 time=0.004716983333333332
EXTRACT: note_on channel=9 note=27 velocity=0 time=0
EXTRACT: note_on channel=9 note=42 velocity=0 time=0
EXTRACT: note_on channel=9 note=75 velocity=0 time=0
EXTRACT: note_on channel=9 note=54 velocity=0 time=0
EXTRACT: note_on channel=9 note=39 velocity=75 time=0.12264156666666665
EXTRACT: note_on channel=9 note=39 velocity=0 time=0.01886793333333333
EXTRACT: note_on channel=0 note=45 velocity=0 time=0.014150949999999997
EXTRACT: note_on channel=1 note=33 velocity=0 time=0.009433966666666665
EXTRACT: note_on channel=5 note=57 velocity=0 time=0.07547173333333332
EXTRACT: note_on channel=5 note=52 velocity=0 time=0
EXTRACT: note_on channel=5 note=60 velocity=0 time=0
EXTRACT: note_on channel=5 note=69 velocity=0 time=0
EXTRACT: note_on channel=0 note=57 velocity=0 time=0.004716983333333332
EXTRACT: note_on channel=0 note=60 velocity=0 time=0
EXTRACT: note_on channel=0 note=64 velocity=0 time=0
EXTRACT: note_on channel=5 note=64 velocity=0 time=0
EXTRACT: note_on channel=5 note=57 velocity=66 time=0.004716983333333332
EXTRACT: note_on channel=0 note=64 velocity=0 time=0.004716983333333332
EXTRACT: note_on channel=5 note=69 velocity=66 time=0
EXTRACT: note_on channel=5 note=60 velocity=66 time=0
EXTRACT: note_on channel=5 note=52 velocity=66 time=0.004716983333333332
EXTRACT: note_on channel=0 note=45 velocity=52 time=0.004716983333333332
EXTRACT: note_on channel=1 note=33 velocity=60 time=0
EXTRACT: note_on channel=5 note=45 velocity=0 time=0
EXTRACT: note_on channel=5 note=45 velocity=67 time=0
EXTRACT: note_on channel=5 note=64 velocity=66 time=0
EXTRACT: note_on channel=9 note=39 velocity=83 time=0
EXTRACT: note_on channel=9 note=75 velocity=65 time=0
EXTRACT: note_on channel=9 note=42 velocity=90 time=0
EXTRACT: note_on channel=9 note=27 velocity=90 time=0
EXTRACT: note_on channel=7 note=57 velocity=0 time=0.009433966666666665
EXTRACT: note_on channel=8 note=57 velocity=0 time=0.009433966666666665
EXTRACT: note_on channel=9 note=27 velocity=0 time=0.07075474999999999
EXTRACT: note_on channel=9 note=75 velocity=0 time=0.01886793333333333
EXTRACT: note_on channel=9 note=42 velocity=0 time=0.004716983333333332
EXTRACT: note_on channel=9 note=39 velocity=0 time=0.023584916666666664
EXTRACT: note_on channel=0 note=69 velocity=0 time=0.023584916666666664
EXTRACT: note_on channel=0 note=45 velocity=0 time=0.09905664999999998
EXTRACT: note_on channel=1 note=33 velocity=0 time=0
EXTRACT: note_on channel=6 note=60 velocity=0 time=0
EXTRACT: note_on channel=6 note=69 velocity=0 time=0
EXTRACT: note_on channel=6 note=64 velocity=0 time=0
EXTRACT: note_on channel=5 note=45 velocity=0 time=0.01886793333333333
EXTRACT: note_on channel=5 note=45 velocity=67 time=0.004716983333333332
EXTRACT: note_on channel=7 note=57 velocity=100 time=0
EXTRACT: note_on channel=9 note=75 velocity=61 time=0
EXTRACT: note_on channel=9 note=35 velocity=90 time=0
EXTRACT: note_on channel=1 note=33 velocity=75 time=0.004716983333333332
EXTRACT: note_on channel=6 note=64 velocity=52 time=0
EXTRACT: note_on channel=9 note=42 velocity=90 time=0
EXTRACT: note_on channel=0 note=64 velocity=47 time=0.004716983333333332
EXTRACT: note_on channel=0 note=45 velocity=47 time=0
EXTRACT: note_on channel=8 note=57 velocity=100 time=0
EXTRACT: note_on channel=0 note=64 velocity=45 time=0.004716983333333332
EXTRACT: note_on channel=0 note=60 velocity=45 time=0
EXTRACT: note_on channel=0 note=57 velocity=45 time=0
EXTRACT: note_on channel=6 note=60 velocity=50 time=0
EXTRACT: note_on channel=9 note=35 velocity=0 time=0.01886793333333333
EXTRACT: note_on channel=9 note=42 velocity=0 time=0.004716983333333332
EXTRACT: note_on channel=9 note=75 velocity=0 time=0.04716983333333333
EXTRACT: note_on channel=7 note=59 velocity=100 time=0.19811329999999996
EXTRACT: note_on channel=9 note=42 velocity=73 time=0
EXTRACT: note_on channel=5 note=45 velocity=0 time=0.004716983333333332
EXTRACT: note_on channel=5 note=45 velocity=67 time=0.004716983333333332
EXTRACT: note_on channel=7 note=57 velocity=0 time=0
EXTRACT: note_on channel=8 note=59 velocity=100 time=0
EXTRACT: note_on channel=8 note=57 velocity=0 time=0.009433966666666665
EXTRACT: note_on channel=9 note=42 velocity=0 time=0.014150949999999997
EXTRACT: note_on channel=9 note=42 velocity=55 time=0.10849061666666665
EXTRACT: note_on channel=9 note=42 velocity=0 time=0.01886793333333333
EXTRACT: note_on channel=5 note=45 velocity=0 time=0.10849061666666665
EXTRACT: note_on channel=5 note=57 velocity=0 time=0
EXTRACT: note_on channel=5 note=64 velocity=0 time=0
EXTRACT: note_on channel=5 note=69 velocity=0 time=0.004716983333333332
EXTRACT: note_on channel=5 note=52 velocity=0 time=0
EXTRACT: note_on channel=7 note=60 velocity=100 time=0
EXTRACT: note_on channel=5 note=52 velocity=34 time=0.004716983333333332
EXTRACT: note_on channel=5 note=60 velocity=0 time=0.004716983333333332
EXTRACT: note_on channel=5 note=45 velocity=67 time=0
EXTRACT: note_on channel=5 note=69 velocity=66 time=0
EXTRACT: note_on channel=5 note=64 velocity=67 time=0
EXTRACT: note_on channel=5 note=60 velocity=67 time=0
EXTRACT: note_on channel=5 note=57 velocity=70 time=0
EXTRACT: note_on channel=6 note=69 velocity=52 time=0
EXTRACT: note_on channel=8 note=60 velocity=100 time=0
EXTRACT: note_on channel=9 note=42 velocity=90 time=0
EXTRACT: note_on channel=9 note=75 velocity=71 time=0
EXTRACT: note_on channel=9 note=27 velocity=90 time=0
EXTRACT: note_on channel=9 note=54 velocity=77 time=0
EXTRACT: note_on channel=9 note=39 velocity=90 time=0
EXTRACT: note_on channel=7 note=59 velocity=0 time=0.009433966666666665
EXTRACT: note_on channel=8 note=59 velocity=0 time=0.009433966666666665
EXTRACT: note_on channel=9 note=39 velocity=0 time=0.014150949999999997
EXTRACT: note_on channel=9 note=27 velocity=0 time=0
EXTRACT: note_on channel=9 note=42 velocity=0 time=0
EXTRACT: note_on channel=9 note=75 velocity=0 time=0
EXTRACT: note_on channel=9 note=54 velocity=0 time=0
EXTRACT: note_on channel=1 note=33 velocity=0 time=0.1603774333333333
EXTRACT: note_on channel=5 note=45 velocity=0 time=0.06603776666666665
EXTRACT: note_on channel=5 note=45 velocity=67 time=0.014150949999999997
EXTRACT: note_on channel=7 note=62 velocity=100 time=0.004716983333333332
EXTRACT: note_on channel=7 note=60 velocity=0 time=0.004716983333333332
EXTRACT: note_on channel=9 note=35 velocity=90 time=0
EXTRACT: note_on channel=9 note=27 velocity=90 time=0
EXTRACT: note_on channel=9 note=75 velocity=59 time=0
EXTRACT: note_on channel=9 note=42 velocity=67 time=0
EXTRACT: note_on channel=1 note=33 velocity=75 time=0.004716983333333332
EXTRACT: note_on channel=8 note=62 velocity=100 time=0
EXTRACT: note_on channel=8 note=60 velocity=0 time=0.004716983333333332
EXTRACT: note_on channel=9 note=42 velocity=0 time=0.023584916666666664
EXTRACT: note_on channel=9 note=35 velocity=0 time=0
EXTRACT: note_on channel=9 note=27 velocity=0 time=0
EXTRACT: note_on channel=9 note=75 velocity=0 time=0
EXTRACT: note_on channel=6 note=64 velocity=0 time=0.18396234999999997
EXTRACT: note_on channel=5 note=45 velocity=0 time=0.033018883333333325
EXTRACT: note_on channel=1 note=33 velocity=0 time=0.004716983333333332
EXTRACT: note_on channel=7 note=64 velocity=100 time=0.01886793333333333
EXTRACT: note_on channel=1 note=33 velocity=71 time=0.009433966666666665
EXTRACT: note_on channel=5 note=45 velocity=67 time=0
EXTRACT: note_on channel=6 note=64 velocity=46 time=0
EXTRACT: note_on channel=8 note=64 velocity=100 time=0
EXTRACT: note_on channel=9 note=75 velocity=61 time=0
EXTRACT: note_on channel=9 note=42 velocity=90 time=0
EXTRACT: note_on channel=9 note=27 velocity=90 time=0
EXTRACT: note_on channel=7 note=62 velocity=0 time=0.004716983333333332
EXTRACT: note_on channel=8 note=62 velocity=0 time=0.009433966666666665
EXTRACT: note_on channel=9 note=27 velocity=0 time=0.01886793333333333
EXTRACT: note_on channel=9 note=42 velocity=0 time=0
EXTRACT: note_on channel=9 note=75 velocity=0 time=0
EXTRACT: note_on channel=5 note=57 velocity=0 time=0.18396234999999997
EXTRACT: note_on channel=5 note=52 velocity=0 time=0
EXTRACT: note_on channel=5 note=69 velocity=0 time=0
EXTRACT: note_on channel=5 note=60 velocity=0 time=0.009433966666666665
EXTRACT: note_on channel=5 note=64 velocity=0 time=0.004716983333333332
EXTRACT: note_on channel=5 note=52 velocity=66 time=0.014150949999999997
EXTRACT: note_on channel=5 note=57 velocity=66 time=0
EXTRACT: note_on channel=5 note=60 velocity=66 time=0
EXTRACT: note_on channel=5 note=69 velocity=66 time=0
EXTRACT: note_on channel=5 note=64 velocity=66 time=0.004716983333333332
EXTRACT: note_on channel=5 note=45 velocity=0 time=0.009433966666666665
EXTRACT: note_on channel=5 note=45 velocity=67 time=0.004716983333333332
EXTRACT: note_on channel=1 note=33 velocity=0 time=0.01886793333333333
EXTRACT: note_on channel=9 note=35 velocity=90 time=0
EXTRACT: note_on channel=9 note=42 velocity=90 time=0
EXTRACT: note_on channel=1 note=33 velocity=81 time=0.004716983333333332
EXTRACT: note_on channel=9 note=42 velocity=0 time=0.028301899999999994
EXTRACT: note_on channel=9 note=35 velocity=0 time=0
EXTRACT: note_on channel=5 note=45 velocity=0 time=0.20754726666666662
EXTRACT: note_on channel=7 note=64 velocity=0 time=0.033018883333333325
EXTRACT: note_on channel=5 note=45 velocity=67 time=0.009433966666666665
EXTRACT: note_on channel=7 note=62 velocity=100 time=0
EXTRACT: note_on channel=8 note=64 velocity=0 time=0
EXTRACT: note_on channel=9 note=39 velocity=90 time=0
EXTRACT: note_on channel=9 note=27 velocity=90 time=0
EXTRACT: note_on channel=9 note=42 velocity=90 time=0
EXTRACT: note_on channel=9 note=75 velocity=65 time=0
EXTRACT: note_on channel=9 note=54 velocity=77 time=0
EXTRACT: note_on channel=8 note=62 velocity=100 time=0.009433966666666665
EXTRACT: note_on channel=9 note=54 velocity=0 time=0.023584916666666664
EXTRACT: note_on channel=9 note=42 velocity=0 time=0
EXTRACT: note_on channel=9 note=39 velocity=0 time=0
EXTRACT: note_on channel=9 note=27 velocity=0 time=0
EXTRACT: note_on channel=9 note=75 velocity=0 time=0
EXTRACT: note_on channel=1 note=33 velocity=0 time=0.12735855
EXTRACT: note_on channel=5 note=57 velocity=0 time=0.09433966666666666
EXTRACT: note_on channel=5 note=52 velocity=0 time=0
EXTRACT: note_on channel=5 note=60 velocity=0 time=0
EXTRACT: note_on channel=5 note=69 velocity=0 time=0
EXTRACT: note_on channel=5 note=64 velocity=0 time=0.004716983333333332
EXTRACT: note_on channel=5 note=57 velocity=66 time=0.004716983333333332
EXTRACT: note_on channel=5 note=69 velocity=66 time=0.004716983333333332
EXTRACT: note_on channel=5 note=60 velocity=66 time=0
EXTRACT: note_on channel=5 note=52 velocity=66 time=0.004716983333333332
EXTRACT: note_on channel=5 note=45 velocity=0 time=0.004716983333333332
EXTRACT: note_on channel=5 note=45 velocity=67 time=0
EXTRACT: note_on channel=5 note=64 velocity=66 time=0
EXTRACT: note_on channel=1 note=33 velocity=75 time=0.004716983333333332
EXTRACT: note_on channel=7 note=60 velocity=100 time=0
EXTRACT: note_on channel=9 note=27 velocity=90 time=0
EXTRACT: note_on channel=9 note=42 velocity=90 time=0
EXTRACT: note_on channel=9 note=75 velocity=65 time=0
EXTRACT: note_on channel=7 note=62 velocity=0 time=0.009433966666666665
EXTRACT: note_on channel=8 note=60 velocity=100 time=0
EXTRACT: note_on channel=8 note=62 velocity=0 time=0.009433966666666665
EXTRACT: note_on channel=9 note=27 velocity=0 time=0.07075474999999999
EXTRACT: note_on channel=9 note=75 velocity=0 time=0.01886793333333333
EXTRACT: note_on channel=9 note=42 velocity=0 time=0.004716983333333332
EXTRACT: note_on channel=0 note=57 velocity=0 time=0.1462264833333333
EXTRACT: note_on channel=0 note=64 velocity=0 time=0
EXTRACT: note_on channel=0 note=64 velocity=0 time=0
EXTRACT: note_on channel=0 note=45 velocity=0 time=0
EXTRACT: note_on channel=0 note=60 velocity=0 time=0
EXTRACT: note_on channel=1 note=33 velocity=0 time=0
EXTRACT: note_on channel=6 note=64 velocity=0 time=0
EXTRACT: note_on channel=6 note=69 velocity=0 time=0
EXTRACT: note_on channel=6 note=60 velocity=0 time=0
EXTRACT: note_on channel=5 note=45 velocity=0 time=0.014150949999999997
EXTRACT: note_on channel=7 note=62 velocity=100 time=0
EXTRACT: note_on channel=5 note=52 velocity=0 time=0.004716983333333332
EXTRACT: note_on channel=8 note=62 velocity=100 time=0.004716983333333332
EXTRACT: note_on channel=9 note=35 velocity=90 time=0
EXTRACT: note_on channel=9 note=75 velocity=61 time=0
EXTRACT: note_on channel=6 note=67 velocity=52 time=0.004716983333333332
EXTRACT: note_on channel=9 note=42 velocity=90 time=0
EXTRACT: note_on channel=0 note=67 velocity=47 time=0.004716983333333332
EXTRACT: note_on channel=0 note=40 velocity=47 time=0
EXTRACT: note_on channel=1 note=28 velocity=83 time=0
EXTRACT: note_on channel=5 note=52 velocity=66 time=0
EXTRACT: note_on channel=7 note=60 velocity=0 time=0
EXTRACT: note_on channel=0 note=64 velocity=45 time=0.004716983333333332
EXTRACT: note_on channel=0 note=59 velocity=45 time=0
EXTRACT: note_on channel=0 note=55 velocity=45 time=0
EXTRACT: note_on channel=6 note=64 velocity=50 time=0
EXTRACT: note_on channel=8 note=60 velocity=0 time=0.004716983333333332
EXTRACT: note_on channel=9 note=35 velocity=0 time=0.014150949999999997
EXTRACT: note_on channel=9 note=42 velocity=0 time=0.004716983333333332
EXTRACT: note_on channel=9 note=75 velocity=0 time=0.04716983333333333
EXTRACT: note_on channel=7 note=60 velocity=100 time=0.1886793333333333
EXTRACT: note_on channel=7 note=62 velocity=0 time=0.009433966666666665
EXTRACT: note_on channel=8 note=60 velocity=100 time=0
EXTRACT: note_on channel=9 note=42 velocity=73 time=0
EXTRACT: note_on channel=5 note=52 velocity=0 time=0.004716983333333332
EXTRACT: note_on channel=5 note=52 velocity=66 time=0
EXTRACT: note_on channel=8 note=62 velocity=0 time=0.004716983333333332
EXTRACT: note_on channel=9 note=42 velocity=0 time=0.023584916666666664
EXTRACT: note_on channel=9 note=42 velocity=55 time=0.10849061666666665
EXTRACT: note_on channel=9 note=42 velocity=0 time=0.01886793333333333
EXTRACT: note_on channel=5 note=69 velocity=0 time=0.09905664999999998
EXTRACT: note_on channel=5 note=64 velocity=0 time=0.004716983333333332
EXTRACT: note_on channel=5 note=57 velocity=0 time=0
EXTRACT: note_on channel=5 note=60 velocity=0 time=0
EXTRACT: note_on channel=7 note=59 velocity=100 time=0.009433966666666665
EXTRACT: note_on channel=5 note=67 velocity=70 time=0.004716983333333332
EXTRACT: note_on channel=5 note=59 velocity=70 time=0
EXTRACT: note_on channel=5 note=52 velocity=0 time=0.004716983333333332
EXTRACT: note_on channel=5 note=64 velocity=70 time=0
EXTRACT: note_on channel=5 note=52 velocity=66 time=0
EXTRACT: note_on channel=6 note=71 velocity=52 time=0
EXTRACT: note_on channel=7 note=60 velocity=0 time=0
EXTRACT: note_on channel=8 note=59 velocity=100 time=0
EXTRACT: note_on channel=9 note=39 velocity=90 time=0
EXTRACT: note_on channel=9 note=75 velocity=71 time=0
EXTRACT: note_on channel=9 note=27 velocity=90 time=0
EXTRACT: note_on channel=9 note=42 velocity=90 time=0
EXTRACT: note_on channel=9 note=54 velocity=77 time=0
EXTRACT: note_on channel=5 note=71 velocity=66 time=0.004716983333333332
EXTRACT: note_on channel=8 note=60 velocity=0 time=0.004716983333333332
EXTRACT: note_on channel=9 note=54 velocity=0 time=0.023584916666666664
EXTRACT: note_on channel=9 note=27 velocity=0 time=0
EXTRACT: note_on channel=9 note=39 velocity=0 time=0
EXTRACT: note_on channel=9 note=75 velocity=0 time=0
EXTRACT: note_on channel=9 note=42 velocity=0 time=0
EXTRACT: note_on channel=1 note=28 velocity=0 time=0.22169821666666661
EXTRACT: note_on channel=5 note=52 velocity=0 time=0.023584916666666664
EXTRACT: note_on channel=5 note=52 velocity=66 time=0
EXTRACT: note_on channel=7 note=59 velocity=0 time=0.004716983333333332
EXTRACT: note_on channel=9 note=75 velocity=59 time=0
EXTRACT: note_on channel=9 note=42 velocity=67 time=0
EXTRACT: note_on channel=9 note=27 velocity=90 time=0
EXTRACT: note_on channel=9 note=35 velocity=90 time=0
EXTRACT: note_on channel=0 note=71 velocity=58 time=0.009433966666666665
EXTRACT: note_on channel=1 note=28 velocity=54 time=0
EXTRACT: note_on channel=8 note=59 velocity=0 time=0
EXTRACT: note_on channel=9 note=35 velocity=0 time=0.023584916666666664
EXTRACT: note_on channel=9 note=75 velocity=0 time=0
EXTRACT: note_on channel=9 note=42 velocity=0 time=0
EXTRACT: note_on channel=9 note=27 velocity=0 time=0
EXTRACT: note_on channel=6 note=67 velocity=0 time=0.18396234999999997
EXTRACT: note_on channel=1 note=28 velocity=0 time=0.05660379999999999
EXTRACT: note_on channel=5 note=52 velocity=0 time=0
EXTRACT: note_on channel=5 note=52 velocity=66 time=0.009433966666666665
EXTRACT: note_on channel=6 note=67 velocity=46 time=0
EXTRACT: note_on channel=9 note=27 velocity=90 time=0
EXTRACT: note_on channel=9 note=75 velocity=61 time=0
EXTRACT: note_on channel=9 note=42 velocity=90 time=0
EXTRACT: note_on channel=1 note=28 velocity=68 time=0.009433966666666665
EXTRACT: note_on channel=9 note=42 velocity=0 time=0.023584916666666664
EXTRACT: note_on channel=9 note=75 velocity=0 time=0
EXTRACT: note_on channel=9 note=27 velocity=0 time=0
EXTRACT: note_on channel=5 note=67 velocity=0 time=0.20754726666666662
EXTRACT: note_on channel=5 note=71 velocity=0 time=0.014150949999999997
EXTRACT: note_on channel=5 note=59 velocity=0 time=0
EXTRACT: note_on channel=5 note=71 velocity=45 time=0.014150949999999997
EXTRACT: note_on channel=5 note=64 velocity=0 time=0.004716983333333332
EXTRACT: note_on channel=5 note=67 velocity=77 time=0
EXTRACT: note_on channel=5 note=59 velocity=56 time=0
EXTRACT: note_on channel=5 note=52 velocity=0 time=0.004716983333333332
EXTRACT: note_on channel=5 note=52 velocity=66 time=0
EXTRACT: note_on channel=5 note=64 velocity=85 time=0
EXTRACT: note_on channel=9 note=42 velocity=90 time=0.004716983333333332
EXTRACT: note_on channel=9 note=35 velocity=90 time=0
EXTRACT: note_on channel=9 note=35 velocity=0 time=0.033018883333333325
EXTRACT: note_on channel=9 note=42 velocity=0 time=0
EXTRACT: note_on channel=5 note=52 velocity=0 time=0.24056614999999995
EXTRACT: note_on channel=5 note=52 velocity=66 time=0.009433966666666665
EXTRACT: note_on channel=9 note=75 velocity=65 time=0
EXTRACT: note_on channel=9 note=27 velocity=90 time=0
EXTRACT: note_on channel=9 note=39 velocity=90 time=0
EXTRACT: note_on channel=9 note=54 velocity=77 time=0
EXTRACT: note_on channel=9 note=42 velocity=90 time=0
EXTRACT: note_on channel=9 note=42 velocity=0 time=0.033018883333333325
EXTRACT: note_on channel=9 note=39 velocity=0 time=0
EXTRACT: note_on channel=9 note=75 velocity=0 time=0
EXTRACT: note_on channel=9 note=27 velocity=0 time=0
EXTRACT: note_on channel=9 note=54 velocity=0 time=0
EXTRACT: note_on channel=0 note=40 velocity=0 time=0.1462264833333333
EXTRACT: note_on channel=5 note=71 velocity=0 time=0.04716983333333333
EXTRACT: note_on channel=5 note=67 velocity=0 time=0.004716983333333332
EXTRACT: note_on channel=5 note=64 velocity=0 time=0.004716983333333332
EXTRACT: note_on channel=5 note=59 velocity=0 time=0.014150949999999997
EXTRACT: note_on channel=5 note=71 velocity=56 time=0.004716983333333332
EXTRACT: note_on channel=5 note=64 velocity=56 time=0
EXTRACT: note_on channel=5 note=67 velocity=56 time=0.004716983333333332
EXTRACT: note_on channel=5 note=59 velocity=56 time=0.004716983333333332
EXTRACT: note_on channel=0 note=71 velocity=0 time=0.009433966666666665
EXTRACT: note_on channel=1 note=28 velocity=0 time=0
EXTRACT: note_on channel=5 note=52 velocity=0 time=0.004716983333333332
EXTRACT: note_on channel=0 note=40 velocity=52 time=0.004716983333333332
EXTRACT: note_on channel=1 note=28 velocity=56 time=0
EXTRACT: note_on channel=9 note=75 velocity=65 time=0
EXTRACT: note_on channel=9 note=27 velocity=90 time=0
EXTRACT: note_on channel=9 note=42 velocity=90 time=0
EXTRACT: note_on channel=5 note=52 velocity=66 time=0.004716983333333332
EXTRACT: note_on channel=0 note=59 velocity=0 time=0.009433966666666665
EXTRACT: note_on channel=0 note=55 velocity=0 time=0
EXTRACT: note_on channel=0 note=64 velocity=0 time=0
EXTRACT: note_on channel=0 note=67 velocity=0 time=0.04245284999999999
EXTRACT: note_on channel=9 note=27 velocity=0 time=0.033018883333333325
EXTRACT: note_on channel=9 note=75 velocity=0 time=0.01886793333333333
EXTRACT: note_on channel=9 note=42 velocity=0 time=0.004716983333333332
EXTRACT: note_on channel=0 note=40 velocity=0 time=0.08018871666666665
EXTRACT: note_on channel=1 note=28 velocity=0 time=0.06603776666666665
EXTRACT: note_on channel=6 note=67 velocity=0 time=0
EXTRACT: note_on channel=6 note=71 velocity=0 time=0
EXTRACT: note_on channel=6 note=64 velocity=0 time=0
EXTRACT: note_on channel=7 note=62 velocity=100 time=0.014150949999999997
EXTRACT: note_on channel=5 note=52 velocity=0 time=0.009433966666666665
EXTRACT: note_on channel=5 note=50 velocity=66 time=0
EXTRACT: note_on channel=8 note=62 velocity=100 time=0
EXTRACT: note_on channel=9 note=35 velocity=90 time=0
EXTRACT: note_on channel=9 note=42 velocity=90 time=0
EXTRACT: note_on channel=6 note=69 velocity=52 time=0.004716983333333332
EXTRACT: note_on channel=9 note=75 velocity=61 time=0
EXTRACT: note_on channel=0 note=74 velocity=47 time=0.004716983333333332
EXTRACT: note_on channel=0 note=50 velocity=47 time=0
EXTRACT: note_on channel=1 note=38 velocity=83 time=0
EXTRACT: note_on channel=0 note=66 velocity=45 time=0.004716983333333332
EXTRACT: note_on channel=0 note=62 velocity=45 time=0
EXTRACT: note_on channel=0 note=57 velocity=45 time=0
EXTRACT: note_on channel=6 note=74 velocity=52 time=0
EXTRACT: note_on channel=6 note=66 velocity=50 time=0
EXTRACT: note_on channel=9 note=42 velocity=0 time=0.01886793333333333
EXTRACT: note_on channel=9 note=35 velocity=0 time=0
EXTRACT: note_on channel=9 note=75 velocity=0 time=0.004716983333333332
EXTRACT: note_on channel=7 note=62 velocity=0 time=0.22641519999999996
EXTRACT: note_on channel=8 note=62 velocity=0 time=0.009433966666666665
EXTRACT: note_on channel=5 note=50 velocity=0 time=0.004716983333333332
EXTRACT: note_on channel=5 note=50 velocity=66 time=0
EXTRACT: note_on channel=7 note=62 velocity=100 time=0.004716983333333332
EXTRACT: note_on channel=9 note=42 velocity=75 time=0
EXTRACT: note_on channel=8 note=62 velocity=100 time=0.009433966666666665
EXTRACT: note_on channel=9 note=42 velocity=0 time=0.023584916666666664
EXTRACT: note_on channel=5 note=50 velocity=0 time=0.24056614999999995
EXTRACT: note_on channel=5 note=59 velocity=0 time=0
EXTRACT: note_on channel=5 note=71 velocity=0 time=0
EXTRACT: note_on channel=5 note=67 velocity=0 time=0
EXTRACT: note_on channel=7 note=62 velocity=0 time=0
EXTRACT: note_on channel=5 note=64 velocity=0 time=0.004716983333333332
EXTRACT: note_on channel=7 note=62 velocity=100 time=0
EXTRACT: note_on channel=5 note=50 velocity=66 time=0.004716983333333332
EXTRACT: note_on channel=5 note=69 velocity=66 time=0
EXTRACT: note_on channel=5 note=66 velocity=67 time=0
EXTRACT: note_on channel=8 note=62 velocity=0 time=0
EXTRACT: note_on channel=9 note=54 velocity=77 time=0
EXTRACT: note_on channel=9 note=75 velocity=71 time=0
EXTRACT: note_on channel=9 note=27 velocity=90 time=0
EXTRACT: note_on channel=9 note=42 velocity=90 time=0
EXTRACT: note_on channel=9 note=39 velocity=90 time=0
EXTRACT: note_on channel=5 note=62 velocity=67 time=0.004716983333333332
EXTRACT: note_on channel=5 note=57 velocity=70 time=0
EXTRACT: note_on channel=8 note=62 velocity=100 time=0
EXTRACT: note_on channel=9 note=39 velocity=0 time=0.028301899999999994
EXTRACT: note_on channel=9 note=27 velocity=0 time=0
EXTRACT: note_on channel=9 note=54 velocity=0 time=0
EXTRACT: note_on channel=9 note=75 velocity=0 time=0
EXTRACT: note_on channel=9 note=42 velocity=0 time=0
EXTRACT: note_on channel=7 note=62 velocity=0 time=0.2358491666666666
EXTRACT: note_on channel=1 note=38 velocity=0 time=0.004716983333333332
EXTRACT: note_on channel=5 note=50 velocity=0 time=0.004716983333333332
EXTRACT: note_on channel=5 note=50 velocity=66 time=0
EXTRACT: note_on channel=8 note=62 velocity=0 time=0
EXTRACT: note_on channel=1 note=38 velocity=70 time=0.004716983333333332
EXTRACT: note_on channel=9 note=75 velocity=59 time=0
EXTRACT: note_on channel=9 note=35 velocity=90 time=0
EXTRACT: note_on channel=9 note=42 velocity=90 time=0
EXTRACT: note_on channel=9 note=27 velocity=90 time=0
EXTRACT: note_on channel=7 note=62 velocity=100 time=0.004716983333333332
EXTRACT: note_on channel=0 note=69 velocity=58 time=0.004716983333333332
EXTRACT: note_on channel=8 note=62 velocity=100 time=0.004716983333333332
EXTRACT: note_on channel=9 note=27 velocity=0 time=0.01886793333333333
EXTRACT: note_on channel=9 note=75 velocity=0 time=0
EXTRACT: note_on channel=9 note=35 velocity=0 time=0
EXTRACT: note_on channel=9 note=42 velocity=0 time=0
EXTRACT: note_on channel=1 note=38 velocity=0 time=0.18396234999999997
EXTRACT: note_on channel=5 note=50 velocity=0 time=0.05660379999999999
EXTRACT: note_on channel=7 note=62 velocity=0 time=0.004716983333333332
EXTRACT: note_on channel=7 note=64 velocity=100 time=0
EXTRACT: note_on channel=1 note=38 velocity=70 time=0.004716983333333332
EXTRACT: note_on channel=5 note=50 velocity=66 time=0
EXTRACT: note_on channel=9 note=42 velocity=90 time=0
EXTRACT: note_on channel=9 note=27 velocity=90 time=0
EXTRACT: note_on channel=8 note=62 velocity=0 time=0.004716983333333332
EXTRACT: note_on channel=8 note=64 velocity=100 time=0
EXTRACT: note_on channel=9 note=27 velocity=0 time=0.028301899999999994
EXTRACT: note_on channel=9 note=42 velocity=0 time=0
EXTRACT: note_on channel=5 note=57 velocity=0 time=0.22641519999999996
EXTRACT: note_on channel=5 note=69 velocity=0 time=0
EXTRACT: note_on channel=5 note=62 velocity=0 time=0.009433966666666665
EXTRACT: note_on channel=5 note=66 velocity=0 time=0.004716983333333332
EXTRACT: note_on channel=5 note=50 velocity=0 time=0.004716983333333332
EXTRACT: note_on channel=5 note=57 velocity=66 time=0
EXTRACT: note_on channel=5 note=62 velocity=66 time=0
EXTRACT: note_on channel=5 note=69 velocity=66 time=0
EXTRACT: note_on channel=5 note=50 velocity=66 time=0
EXTRACT: note_on channel=9 note=35 velocity=90 time=0.004716983333333332
EXTRACT: note_on channel=9 note=75 velocity=61 time=0
EXTRACT: note_on channel=9 note=42 velocity=69 time=0
EXTRACT: note_on channel=5 note=66 velocity=66 time=0.004716983333333332
EXTRACT: note_on channel=9 note=42 velocity=0 time=0.028301899999999994
EXTRACT: note_on channel=9 note=75 velocity=0 time=0
EXTRACT: note_on channel=9 note=35 velocity=0 time=0
EXTRACT: note_on channel=5 note=50 velocity=0 time=0.24056614999999995
EXTRACT: note_on channel=5 note=50 velocity=66 time=0.004716983333333332
EXTRACT: note_on channel=7 note=64 velocity=0 time=0
EXTRACT: note_on channel=7 note=60 velocity=100 time=0
EXTRACT: note_on channel=9 note=39 velocity=90 time=0.004716983333333332
EXTRACT: note_on channel=9 note=54 velocity=77 time=0
EXTRACT: note_on channel=9 note=27 velocity=90 time=0
EXTRACT: note_on channel=9 note=75 velocity=65 time=0
EXTRACT: note_on channel=9 note=42 velocity=90 time=0
EXTRACT: note_on channel=8 note=64 velocity=0 time=0.004716983333333332
EXTRACT: note_on channel=8 note=60 velocity=100 time=0
EXTRACT: note_on channel=9 note=42 velocity=0 time=0.028301899999999994
EXTRACT: note_on channel=9 note=27 velocity=0 time=0
EXTRACT: note_on channel=9 note=39 velocity=0 time=0
EXTRACT: note_on channel=9 note=54 velocity=0 time=0
EXTRACT: note_on channel=9 note=75 velocity=0 time=0
EXTRACT: note_on channel=0 note=50 velocity=0 time=0.14150949999999998
EXTRACT: note_on channel=5 note=66 velocity=0 time=0.08490569999999999
EXTRACT: note_on channel=0 note=57 velocity=0 time=0.004716983333333332
EXTRACT: note_on channel=0 note=62 velocity=0 time=0
EXTRACT: note_on channel=0 note=66 velocity=0 time=0
EXTRACT: note_on channel=5 note=69 velocity=0 time=0
EXTRACT: note_on channel=7 note=60 velocity=0 time=0.004716983333333332
EXTRACT: note_on channel=0 note=69 velocity=0 time=0.004716983333333332
EXTRACT: note_on channel=5 note=57 velocity=0 time=0
EXTRACT: note_on channel=5 note=62 velocity=0 time=0
EXTRACT: note_on channel=5 note=50 velocity=0 time=0
EXTRACT: note_on channel=5 note=50 velocity=66 time=0.004716983333333332
EXTRACT: note_on channel=5 note=57 velocity=66 time=0
EXTRACT: note_on channel=8 note=60 velocity=0 time=0
EXTRACT: note_on channel=0 note=50 velocity=52 time=0.004716983333333332
EXTRACT: note_on channel=1 note=38 velocity=0 time=0
EXTRACT: note_on channel=9 note=42 velocity=71 time=0
EXTRACT: note_on channel=9 note=75 velocity=65 time=0
EXTRACT: note_on channel=9 note=27 velocity=90 time=0
EXTRACT: note_on channel=5 note=62 velocity=66 time=0.004716983333333332
EXTRACT: note_on channel=1 note=38 velocity=62 time=0.004716983333333332
EXTRACT: note_on channel=5 note=69 velocity=66 time=0
EXTRACT: note_on channel=5 note=66 velocity=66 time=0
EXTRACT: note_on channel=7 note=59 velocity=100 time=0.004716983333333332
EXTRACT: note_on channel=8 note=59 velocity=100 time=0.009433966666666665
EXTRACT: note_on channel=9 note=27 velocity=0 time=0.06603776666666665
EXTRACT: note_on channel=9 note=75 velocity=0 time=0.01886793333333333
EXTRACT: note_on channel=9 note=42 velocity=0 time=0.004716983333333332
EXTRACT: note_on channel=0 note=74 velocity=0 time=0.04716983333333333
EXTRACT: note_on channel=1 note=38 velocity=0 time=0.08018871666666665
EXTRACT: note_on channel=0 note=50 velocity=0 time=0.01886793333333333
EXTRACT: note_on channel=6 note=66 velocity=0 time=0
EXTRACT: note_on channel=6 note=74 velocity=0 time=0
EXTRACT: note_on channel=6 note=69 velocity=0 time=0
EXTRACT: note_on channel=5 note=50 velocity=0 time=0.014150949999999997
EXTRACT: note_on channel=7 note=60 velocity=100 time=0
EXTRACT: note_on channel=8 note=60 velocity=100 time=0.009433966666666665
EXTRACT: note_on channel=9 note=35 velocity=90 time=0
EXTRACT: note_on channel=9 note=75 velocity=61 time=0
EXTRACT: note_on channel=5 note=45 velocity=67 time=0.004716983333333332
EXTRACT: note_on channel=6 note=64 velocity=52 time=0
EXTRACT: note_on channel=7 note=59 velocity=0 time=0
EXTRACT: note_on channel=9 note=42 velocity=90 time=0
EXTRACT: note_on channel=0 note=64 velocity=47 time=0.004716983333333332
EXTRACT: note_on channel=0 note=45 velocity=47 time=0
EXTRACT: note_on channel=1 note=33 velocity=83 time=0
EXTRACT: note_on channel=0 note=64 velocity=45 time=0.004716983333333332
EXTRACT: note_on channel=0 note=60 velocity=45 time=0
EXTRACT: note_on channel=0 note=57 velocity=45 time=0
EXTRACT: note_on channel=6 note=69 velocity=52 time=0
EXTRACT: note_on channel=6 note=60 velocity=50 time=0
EXTRACT: note_on channel=8 note=59 velocity=0 time=0
EXTRACT: note_on channel=9 note=35 velocity=0 time=0.01886793333333333
EXTRACT: note_on channel=9 note=42 velocity=0 time=0.004716983333333332
EXTRACT: note_on channel=9 note=75 velocity=0 time=0.04716983333333333
EXTRACT: note_on channel=7 note=60 velocity=0 time=0.17924536666666663
EXTRACT: note_on channel=8 note=60 velocity=0 time=0.009433966666666665
EXTRACT: note_on channel=9 note=42 velocity=73 time=0.009433966666666665
EXTRACT: note_on channel=7 note=59 velocity=100 time=0.004716983333333332
EXTRACT: note_on channel=5 note=45 velocity=0 time=0.004716983333333332
EXTRACT: note_on channel=5 note=45 velocity=67 time=0.004716983333333332
EXTRACT: note_on channel=8 note=59 velocity=100 time=0
EXTRACT: note_on channel=9 note=42 velocity=0 time=0.01886793333333333
EXTRACT: note_on channel=9 note=42 velocity=55 time=0.10849061666666665
EXTRACT: note_on channel=9 note=42 velocity=0 time=0.01886793333333333
EXTRACT: note_on channel=5 note=66 velocity=0 time=0.10849061666666665
EXTRACT: note_on channel=5 note=69 velocity=0 time=0
EXTRACT: note_on channel=5 note=57 velocity=0 time=0
EXTRACT: note_on channel=5 note=45 velocity=0 time=0.004716983333333332
EXTRACT: note_on channel=5 note=62 velocity=0 time=0.004716983333333332
EXTRACT: note_on channel=7 note=59 velocity=0 time=0
EXTRACT: note_on channel=7 note=57 velocity=100 time=0
EXTRACT: note_on channel=5 note=52 velocity=34 time=0.004716983333333332
EXTRACT: note_on channel=9 note=42 velocity=90 time=0
EXTRACT: note_on channel=9 note=39 velocity=90 time=0
EXTRACT: note_on channel=9 note=54 velocity=77 time=0
EXTRACT: note_on channel=9 note=27 velocity=90 time=0
EXTRACT: note_on channel=9 note=75 velocity=71 time=0
EXTRACT: note_on channel=5 note=45 velocity=67 time=0.004716983333333332
EXTRACT: note_on channel=5 note=69 velocity=66 time=0
EXTRACT: note_on channel=5 note=64 velocity=67 time=0
EXTRACT: note_on channel=5 note=60 velocity=67 time=0
EXTRACT: note_on channel=5 note=57 velocity=70 time=0
EXTRACT: note_on channel=8 note=59 velocity=0 time=0
EXTRACT: note_on channel=8 note=57 velocity=100 time=0
EXTRACT: note_on channel=9 note=75 velocity=0 time=0.028301899999999994
EXTRACT: note_on channel=9 note=54 velocity=0 time=0
EXTRACT: note_on channel=9 note=42 velocity=0 time=0
EXTRACT: note_on channel=9 note=39 velocity=0 time=0
EXTRACT: note_on channel=9 note=27 velocity=0 time=0
EXTRACT: note_on channel=1 note=33 velocity=0 time=0.22169821666666661
EXTRACT: note_on channel=5 note=45 velocity=0 time=0.009433966666666665
EXTRACT: note_on channel=7 note=57 velocity=0 time=0.004716983333333332
EXTRACT: note_on channel=5 note=45 velocity=67 time=0.009433966666666665
EXTRACT: note_on channel=8 note=57 velocity=0 time=0
EXTRACT: note_on channel=9 note=75 velocity=59 time=0.004716983333333332
EXTRACT: note_on channel=9 note=39 velocity=100 time=0
EXTRACT: note_on channel=9 note=27 velocity=90 time=0
EXTRACT: note_on channel=9 note=42 velocity=67 time=0
EXTRACT: note_on channel=1 note=33 velocity=54 time=0.009433966666666665
EXTRACT: note_on channel=9 note=42 velocity=0 time=0.023584916666666664
EXTRACT: note_on channel=9 note=75 velocity=0 time=0
EXTRACT: note_on channel=9 note=39 velocity=0 time=0
EXTRACT: note_on channel=9 note=27 velocity=0 time=0
EXTRACT: note_on channel=5 note=45 velocity=0 time=0.22169821666666661
EXTRACT: note_on channel=1 note=33 velocity=0 time=0.01886793333333333
EXTRACT: note_on channel=7 note=60 velocity=100 time=0.004716983333333332
EXTRACT: note_on channel=9 note=75 velocity=61 time=0.004716983333333332
EXTRACT: note_on channel=9 note=27 velocity=90 time=0
EXTRACT: note_on channel=9 note=42 velocity=90 time=0
EXTRACT: note_on channel=5 note=45 velocity=67 time=0.004716983333333332
EXTRACT: note_on channel=8 note=60 velocity=100 time=0
EXTRACT: note_on channel=1 note=33 velocity=68 time=0.004716983333333332
EXTRACT: note_on channel=9 note=42 velocity=0 time=0.023584916666666664
EXTRACT: note_on channel=9 note=27 velocity=0 time=0
EXTRACT: note_on channel=9 note=75 velocity=0 time=0
EXTRACT: note_on channel=5 note=69 velocity=0 time=0.19811329999999996
EXTRACT: note_on channel=5 note=64 velocity=0 time=0
EXTRACT: note_on channel=5 note=60 velocity=0 time=0.004716983333333332
EXTRACT: note_on channel=5 note=52 velocity=0 time=0
EXTRACT: note_on channel=5 note=57 velocity=0 time=0
EXTRACT: note_on channel=5 note=52 velocity=66 time=0.014150949999999997
EXTRACT: note_on channel=5 note=57 velocity=66 time=0
EXTRACT: note_on channel=5 note=60 velocity=66 time=0
EXTRACT: note_on channel=5 note=69 velocity=66 time=0
EXTRACT: note_on channel=5 note=64 velocity=66 time=0.004716983333333332
EXTRACT: note_on channel=5 note=45 velocity=0 time=0.009433966666666665
EXTRACT: note_on channel=5 note=45 velocity=67 time=0.004716983333333332
EXTRACT: note_on channel=7 note=60 velocity=0 time=0
EXTRACT: note_on channel=8 note=60 velocity=0 time=0.009433966666666665
EXTRACT: note_on channel=7 note=59 velocity=100 time=0.004716983333333332
EXTRACT: note_on channel=9 note=42 velocity=90 time=0
EXTRACT: note_on channel=9 note=35 velocity=90 time=0
EXTRACT: note_on channel=8 note=59 velocity=100 time=0.009433966666666665
EXTRACT: note_on channel=9 note=35 velocity=0 time=0.009433966666666665
EXTRACT: note_on channel=9 note=42 velocity=0 time=0
EXTRACT: note_on channel=9 note=39 velocity=67 time=0.12264156666666665
EXTRACT: note_on channel=9 note=39 velocity=0 time=0.01886793333333333
EXTRACT: note_on channel=5 note=45 velocity=0 time=0.08490569999999999
EXTRACT: note_on channel=7 note=59 velocity=0 time=0.028301899999999994
EXTRACT: note_on channel=7 note=57 velocity=100 time=0.004716983333333332
EXTRACT: note_on channel=8 note=59 velocity=0 time=0.004716983333333332
EXTRACT: note_on channel=9 note=42 velocity=90 time=0
EXTRACT: note_on channel=9 note=75 velocity=65 time=0
EXTRACT: note_on channel=9 note=27 velocity=90 time=0
EXTRACT: note_on channel=9 note=54 velocity=77 time=0
EXTRACT: note_on channel=9 note=39 velocity=110 time=0
EXTRACT: note_on channel=5 note=45 velocity=67 time=0.004716983333333332
EXTRACT: note_on channel=8 note=57 velocity=100 time=0
EXTRACT: note_on channel=9 note=39 velocity=0 time=0.014150949999999997
EXTRACT: note_on channel=9 note=27 velocity=0 time=0
EXTRACT: note_on channel=9 note=42 velocity=0 time=0
EXTRACT: note_on channel=9 note=75 velocity=0 time=0
EXTRACT: note_on channel=9 note=54 velocity=0 time=0
EXTRACT: note_on channel=9 note=39 velocity=75 time=0.12264156666666665
EXTRACT: note_on channel=9 note=39 velocity=0 time=0.01886793333333333
EXTRACT: note_on channel=5 note=57 velocity=0 time=0.09905664999999998
EXTRACT: note_on channel=5 note=52 velocity=0 time=0
EXTRACT: note_on channel=5 note=60 velocity=0 time=0
EXTRACT: note_on channel=5 note=69 velocity=0 time=0
EXTRACT: note_on channel=5 note=64 velocity=0 time=0.004716983333333332
EXTRACT: note_on channel=5 note=57 velocity=66 time=0.004716983333333332
EXTRACT: note_on channel=7 note=57 velocity=0 time=0
EXTRACT: note_on channel=1 note=33 velocity=0 time=0.004716983333333332
EXTRACT: note_on channel=5 note=69 velocity=66 time=0
EXTRACT: note_on channel=5 note=60 velocity=66 time=0
EXTRACT: note_on channel=5 note=52 velocity=66 time=0.004716983333333332
EXTRACT: note_on channel=8 note=57 velocity=0 time=0
EXTRACT: note_on channel=1 note=33 velocity=56 time=0.004716983333333332
EXTRACT: note_on channel=5 note=45 velocity=0 time=0
EXTRACT: note_on channel=5 note=45 velocity=67 time=0
EXTRACT: note_on channel=5 note=64 velocity=66 time=0
EXTRACT: note_on channel=9 note=27 velocity=90 time=0
EXTRACT: note_on channel=9 note=75 velocity=65 time=0
EXTRACT: note_on channel=9 note=39 velocity=93 time=0
EXTRACT: note_on channel=9 note=42 velocity=90 time=0
EXTRACT: note_on channel=9 note=42 velocity=0 time=0.01886793333333333
EXTRACT: note_on channel=9 note=27 velocity=0 time=0
EXTRACT: note_on channel=9 note=75 velocity=0 time=0
EXTRACT: note_on channel=9 note=39 velocity=0 time=0
EXTRACT: note_on channel=9 note=39 velocity=67 time=0.12264156666666665
EXTRACT: note_on channel=9 note=39 velocity=0 time=0.08018871666666665
EXTRACT: note_on channel=0 note=57 velocity=0 time=0.03773586666666666
EXTRACT: note_on channel=0 note=64 velocity=0 time=0
EXTRACT: note_on channel=0 note=64 velocity=0 time=0
EXTRACT: note_on channel=0 note=45 velocity=0 time=0
EXTRACT: note_on channel=0 note=60 velocity=0 time=0
EXTRACT: note_on channel=1 note=33 velocity=0 time=0
EXTRACT: note_on channel=6 note=60 velocity=0 time=0
EXTRACT: note_on channel=6 note=69 velocity=0 time=0
EXTRACT: note_on channel=6 note=64 velocity=0 time=0
EXTRACT: note_on channel=5 note=45 velocity=0 time=0.01886793333333333
EXTRACT: note_on channel=9 note=75 velocity=61 time=0.004716983333333332
EXTRACT: note_on channel=9 note=35 velocity=90 time=0
EXTRACT: note_on channel=6 note=69 velocity=52 time=0
EXTRACT: note_on channel=9 note=57 velocity=82 time=0
EXTRACT: note_on channel=0 note=69 velocity=47 time=0.004716983333333332
EXTRACT: note_on channel=0 note=41 velocity=47 time=0
EXTRACT: note_on channel=1 note=29 velocity=83 time=0
EXTRACT: note_on channel=5 note=60 velocity=45 time=0
EXTRACT: note_on channel=0 note=65 velocity=45 time=0.004716983333333332
EXTRACT: note_on channel=0 note=60 velocity=45 time=0
EXTRACT: note_on channel=0 note=57 velocity=45 time=0
EXTRACT: note_on channel=6 note=72 velocity=52 time=0
EXTRACT: note_on channel=6 note=65 velocity=50 time=0
EXTRACT: note_on channel=9 note=35 velocity=0 time=0.01886793333333333
EXTRACT: note_on channel=9 note=57 velocity=0 time=0.004716983333333332
EXTRACT: note_on channel=9 note=75 velocity=0 time=0.04716983333333333
EXTRACT: note_on channel=1 note=29 velocity=0 time=0.18396234999999997
EXTRACT: note_on channel=1 note=29 velocity=70 time=0.014150949999999997
EXTRACT: note_on channel=9 note=42 velocity=75 time=0
EXTRACT: note_on channel=9 note=42 velocity=0 time=0.033018883333333325
EXTRACT: note_on channel=5 note=57 velocity=0 time=0.2358491666666666
EXTRACT: note_on channel=5 note=64 velocity=0 time=0
EXTRACT: note_on channel=5 note=52 velocity=0 time=0.004716983333333332
EXTRACT: note_on channel=5 note=69 velocity=0 time=0
EXTRACT: note_on channel=5 note=60 velocity=0 time=0.009433966666666665
EXTRACT: note_on channel=9 note=54 velocity=77 time=0
EXTRACT: note_on channel=9 note=39 velocity=90 time=0
EXTRACT: note_on channel=9 note=75 velocity=71 time=0
EXTRACT: note_on channel=9 note=42 velocity=90 time=0
EXTRACT: note_on channel=9 note=27 velocity=84 time=0
EXTRACT: note_on channel=9 note=27 velocity=0 time=0.033018883333333325
EXTRACT: note_on channel=9 note=75 velocity=0 time=0
EXTRACT: note_on channel=9 note=54 velocity=0 time=0
EXTRACT: note_on channel=9 note=39 velocity=0 time=0
EXTRACT: note_on channel=9 note=42 velocity=0 time=0
EXTRACT: note_on channel=1 note=29 velocity=0 time=0.10849061666666665
EXTRACT: note_on channel=9 note=42 velocity=80 time=0.14150949999999998
EXTRACT: note_on channel=9 note=35 velocity=90 time=0
EXTRACT: note_on channel=9 note=75 velocity=59 time=0
EXTRACT: note_on channel=9 note=27 velocity=90 time=0
EXTRACT: note_on channel=1 note=29 velocity=54 time=0.009433966666666665
EXTRACT: note_on channel=7 note=60 velocity=100 time=0.004716983333333332
EXTRACT: note_on channel=9 note=27 velocity=0 time=0.01886793333333333
EXTRACT: note_on channel=9 note=42 velocity=0 time=0
EXTRACT: note_on channel=9 note=35 velocity=0 time=0
EXTRACT: note_on channel=9 note=75 velocity=0 time=0
EXTRACT: note_on channel=7 note=60 velocity=0 time=0.12264156666666665
EXTRACT: note_on channel=7 note=60 velocity=100 time=0.009433966666666665
EXTRACT: note_on channel=1 note=29 velocity=0 time=0.10849061666666665
EXTRACT: note_on channel=9 note=75 velocity=61 time=0.009433966666666665
EXTRACT: note_on channel=9 note=42 velocity=90 time=0
EXTRACT: note_on channel=9 note=27 velocity=80 time=0
EXTRACT: note_on channel=7 note=67 velocity=100 time=0.004716983333333332
EXTRACT: note_on channel=1 note=29 velocity=68 time=0.004716983333333332
EXTRACT: note_on channel=7 note=60 velocity=0 time=0.014150949999999997
EXTRACT: note_on channel=9 note=27 velocity=0 time=0.009433966666666665
EXTRACT: note_on channel=9 note=42 velocity=0 time=0
EXTRACT: note_on channel=9 note=75 velocity=0 time=0
EXTRACT: note_on channel=7 note=67 velocity=0 time=0.2500001166666666
EXTRACT: note_on channel=9 note=42 velocity=75 time=0
EXTRACT: note_on channel=9 note=35 velocity=90 time=0
EXTRACT: note_on channel=9 note=35 velocity=0 time=0.033018883333333325
EXTRACT: note_on channel=9 note=42 velocity=0 time=0
EXTRACT: note_on channel=7 note=67 velocity=100 time=0.12735855
EXTRACT: note_on channel=9 note=54 velocity=77 time=0.12264156666666665
EXTRACT: note_on channel=9 note=75 velocity=65 time=0
EXTRACT: note_on channel=9 note=27 velocity=90 time=0
EXTRACT: note_on channel=9 note=42 velocity=90 time=0
EXTRACT: note_on channel=9 note=39 velocity=90 time=0
EXTRACT: note_on channel=9 note=39 velocity=0 time=0.033018883333333325
EXTRACT: note_on channel=9 note=27 velocity=0 time=0
EXTRACT: note_on channel=9 note=54 velocity=0 time=0
EXTRACT: note_on channel=9 note=75 velocity=0 time=0
EXTRACT: note_on channel=9 note=42 velocity=0 time=0
EXTRACT: note_on channel=7 note=67 velocity=0 time=0.12264156666666665
EXTRACT: note_on channel=1 note=29 velocity=0 time=0.1179245833333333
EXTRACT: note_on channel=1 note=29 velocity=56 time=0.009433966666666665
EXTRACT: note_on channel=9 note=27 velocity=90 time=0
EXTRACT: note_on channel=9 note=75 velocity=65 time=0
EXTRACT: note_on channel=9 note=42 velocity=84 time=0
EXTRACT: note_on channel=7 note=64 velocity=100 time=0.023584916666666664
EXTRACT: note_on channel=9 note=27 velocity=0 time=0.06603776666666665
EXTRACT: note_on channel=9 note=75 velocity=0 time=0.01886793333333333
EXTRACT: note_on channel=9 note=42 velocity=0 time=0.004716983333333332
EXTRACT: note_on channel=5 note=60 velocity=0 time=0.10377363333333331
EXTRACT: note_on channel=0 note=57 velocity=0 time=0.04245284999999999
EXTRACT: note_on channel=0 note=65 velocity=0 time=0
EXTRACT: note_on channel=0 note=69 velocity=0 time=0
EXTRACT: note_on channel=0 note=41 velocity=0 time=0
EXTRACT: note_on channel=0 note=60 velocity=0 time=0
EXTRACT: note_on channel=1 note=29 velocity=0 time=0
EXTRACT: note_on channel=6 note=65 velocity=0 time=0
EXTRACT: note_on channel=6 note=72 velocity=0 time=0
EXTRACT: note_on channel=6 note=69 velocity=0 time=0
EXTRACT: note_on channel=9 note=35 velocity=90 time=0.023584916666666664
EXTRACT: note_on channel=9 note=75 velocity=61 time=0
EXTRACT: note_on channel=1 note=33 velocity=75 time=0.004716983333333332
EXTRACT: note_on channel=6 note=64 velocity=52 time=0
EXTRACT: note_on channel=9 note=42 velocity=90 time=0
EXTRACT: note_on channel=0 note=69 velocity=47 time=0.004716983333333332
EXTRACT: note_on channel=0 note=45 velocity=47 time=0
EXTRACT: note_on channel=0 note=64 velocity=45 time=0.004716983333333332
EXTRACT: note_on channel=0 note=60 velocity=45 time=0
EXTRACT: note_on channel=0 note=57 velocity=45 time=0
EXTRACT: note_on channel=6 note=60 velocity=50 time=0
EXTRACT: note_on channel=7 note=64 velocity=0 time=0.004716983333333332
EXTRACT: note_on channel=9 note=35 velocity=0 time=0.014150949999999997
EXTRACT: note_on channel=9 note=42 velocity=0 time=0.004716983333333332
EXTRACT: note_on channel=9 note=75 velocity=0 time=0.04716983333333333
EXTRACT: note_on channel=9 note=42 velocity=73 time=0.19811329999999996
EXTRACT: note_on channel=9 note=42 velocity=0 time=0.033018883333333325
EXTRACT: note_on channel=9 note=42 velocity=55 time=0.10849061666666665
EXTRACT: note_on channel=9 note=42 velocity=0 time=0.01886793333333333
EXTRACT: note_on channel=6 note=69 velocity=52 time=0.12264156666666665
EXTRACT: note_on channel=9 note=54 velocity=77 time=0
EXTRACT: note_on channel=9 note=75 velocity=71 time=0
EXTRACT: note_on channel=9 note=39 velocity=90 time=0
EXTRACT: note_on channel=9 note=42 velocity=90 time=0
EXTRACT: note_on channel=9 note=27 velocity=90 time=0
EXTRACT: note_on channel=5 note=57 velocity=45 time=0.009433966666666665
EXTRACT: note_on channel=9 note=27 velocity=0 time=0.023584916666666664
EXTRACT: note_on channel=9 note=39 velocity=0 time=0
EXTRACT: note_on channel=9 note=54 velocity=0 time=0
EXTRACT: note_on channel=9 note=75 velocity=0 time=0
EXTRACT: note_on channel=9 note=42 velocity=0 time=0
EXTRACT: note_on channel=1 note=33 velocity=0 time=0.16509441666666663
EXTRACT: note_on channel=9 note=35 velocity=90 time=0.08490569999999999
EXTRACT: note_on channel=9 note=75 velocity=59 time=0
EXTRACT: note_on channel=9 note=42 velocity=67 time=0
EXTRACT: note_on channel=9 note=27 velocity=90 time=0
EXTRACT: note_on channel=1 note=33 velocity=75 time=0.004716983333333332
EXTRACT: note_on channel=0 note=64 velocity=58 time=0.004716983333333332
EXTRACT: note_on channel=9 note=27 velocity=0 time=0.023584916666666664
EXTRACT: note_on channel=9 note=35 velocity=0 time=0
EXTRACT: note_on channel=9 note=75 velocity=0 time=0
EXTRACT: note_on channel=9 note=42 velocity=0 time=0
EXTRACT: note_on channel=6 note=64 velocity=0 time=0.18396234999999997
EXTRACT: note_on channel=6 note=64 velocity=46 time=0.06603776666666665
EXTRACT: note_on channel=9 note=42 velocity=90 time=0
EXTRACT: note_on channel=9 note=27 velocity=90 time=0
EXTRACT: note_on channel=9 note=75 velocity=61 time=0
EXTRACT: note_on channel=9 note=75 velocity=0 time=0.033018883333333325
EXTRACT: note_on channel=9 note=27 velocity=0 time=0
EXTRACT: note_on channel=9 note=42 velocity=0 time=0
EXTRACT: note_on channel=9 note=42 velocity=90 time=0.2500001166666666
EXTRACT: note_on channel=9 note=35 velocity=90 time=0
EXTRACT: note_on channel=9 note=35 velocity=0 time=0.033018883333333325
EXTRACT: note_on channel=9 note=42 velocity=0 time=0
EXTRACT: note_on channel=9 note=75 velocity=65 time=0.2500001166666666
EXTRACT: note_on channel=9 note=54 velocity=77 time=0
EXTRACT: note_on channel=9 note=39 velocity=90 time=0
EXTRACT: note_on channel=9 note=27 velocity=90 time=0
EXTRACT: note_on channel=9 note=42 velocity=90 time=0
EXTRACT: note_on channel=9 note=42 velocity=0 time=0.033018883333333325
EXTRACT: note_on channel=9 note=39 velocity=0 time=0
EXTRACT: note_on channel=9 note=75 velocity=0 time=0
EXTRACT: note_on channel=9 note=54 velocity=0 time=0
EXTRACT: note_on channel=9 note=27 velocity=0 time=0
EXTRACT: note_on channel=0 note=45 velocity=0 time=0.14150949999999998
EXTRACT: note_on channel=1 note=33 velocity=0 time=0.009433966666666665
EXTRACT: note_on channel=0 note=57 velocity=0 time=0.08018871666666665
EXTRACT: note_on channel=0 note=60 velocity=0 time=0
EXTRACT: note_on channel=0 note=64 velocity=0 time=0
EXTRACT: note_on channel=0 note=64 velocity=0 time=0.009433966666666665
EXTRACT: note_on channel=0 note=45 velocity=52 time=0.009433966666666665
EXTRACT: note_on channel=1 note=33 velocity=60 time=0
EXTRACT: note_on channel=9 note=75 velocity=65 time=0
EXTRACT: note_on channel=9 note=27 velocity=90 time=0
EXTRACT: note_on channel=9 note=42 velocity=90 time=0
EXTRACT: note_on channel=9 note=27 velocity=0 time=0.08962268333333331
EXTRACT: note_on channel=9 note=75 velocity=0 time=0.01886793333333333
EXTRACT: note_on channel=9 note=42 velocity=0 time=0.004716983333333332
EXTRACT: note_on channel=0 note=69 velocity=0 time=0.04716983333333333
EXTRACT: note_on channel=0 note=45 velocity=0 time=0.09905664999999998
EXTRACT: note_on channel=1 note=33 velocity=0 time=0
EXTRACT: note_on channel=5 note=57 velocity=0 time=0
EXTRACT: note_on channel=6 note=64 velocity=0 time=0
EXTRACT: note_on channel=6 note=69 velocity=0 time=0
EXTRACT: note_on channel=6 note=60 velocity=0 time=0
EXTRACT: note_on channel=9 note=75 velocity=61 time=0.023584916666666664
EXTRACT: note_on channel=9 note=35 velocity=90 time=0
EXTRACT: note_on channel=9 note=42 velocity=90 time=0.004716983333333332
EXTRACT: note_on channel=0 note=71 velocity=47 time=0.004716983333333332
EXTRACT: note_on channel=0 note=43 velocity=47 time=0
EXTRACT: note_on channel=1 note=31 velocity=79 time=0
EXTRACT: note_on channel=5 note=59 velocity=45 time=0
EXTRACT: note_on channel=0 note=62 velocity=45 time=0.004716983333333332
EXTRACT: note_on channel=0 note=59 velocity=45 time=0
EXTRACT: note_on channel=0 note=55 velocity=45 time=0
EXTRACT: note_on channel=6 note=74 velocity=52 time=0
EXTRACT: note_on channel=9 note=35 velocity=0 time=0.01886793333333333
EXTRACT: note_on channel=9 note=42 velocity=0 time=0.004716983333333332
EXTRACT: note_on channel=9 note=75 velocity=0 time=0.04716983333333333
EXTRACT: note_on channel=9 note=42 velocity=73 time=0.19811329999999996
EXTRACT: note_on channel=9 note=42 velocity=0 time=0.033018883333333325
EXTRACT: note_on channel=6 note=71 velocity=46 time=0.2500001166666666
EXTRACT: note_on channel=9 note=39 velocity=90 time=0
EXTRACT: note_on channel=9 note=27 velocity=90 time=0
EXTRACT: note_on channel=9 note=42 velocity=90 time=0
EXTRACT: note_on channel=9 note=75 velocity=71 time=0
EXTRACT: note_on channel=9 note=54 velocity=77 time=0
EXTRACT: note_on channel=7 note=62 velocity=100 time=0.014150949999999997
EXTRACT: note_on channel=9 note=54 velocity=0 time=0.01886793333333333
EXTRACT: note_on channel=9 note=42 velocity=0 time=0
EXTRACT: note_on channel=9 note=39 velocity=0 time=0
EXTRACT: note_on channel=9 note=27 velocity=0 time=0
EXTRACT: note_on channel=9 note=75 velocity=0 time=0
EXTRACT: note_on channel=1 note=31 velocity=0 time=0.22169821666666661
EXTRACT: note_on channel=9 note=35 velocity=90 time=0.028301899999999994
EXTRACT: note_on channel=9 note=27 velocity=90 time=0
EXTRACT: note_on channel=9 note=42 velocity=67 time=0
EXTRACT: note_on channel=9 note=75 velocity=59 time=0
EXTRACT: note_on channel=5 note=59 velocity=0 time=0.004716983333333332
EXTRACT: note_on channel=1 note=38 velocity=54 time=0.004716983333333332
EXTRACT: note_on channel=5 note=62 velocity=45 time=0
EXTRACT: note_on channel=7 note=62 velocity=0 time=0
EXTRACT: note_on channel=9 note=75 velocity=0 time=0.023584916666666664
EXTRACT: note_on channel=9 note=35 velocity=0 time=0
EXTRACT: note_on channel=9 note=27 velocity=0 time=0
EXTRACT: note_on channel=9 note=42 velocity=0 time=0
EXTRACT: note_on channel=1 note=38 velocity=0 time=0.24056614999999995
EXTRACT: note_on channel=6 note=67 velocity=50 time=0.009433966666666665
EXTRACT: note_on channel=9 note=75 velocity=61 time=0
EXTRACT: note_on channel=9 note=42 velocity=90 time=0
EXTRACT: note_on channel=9 note=27 velocity=90 time=0
EXTRACT: note_on channel=1 note=43 velocity=68 time=0.009433966666666665
EXTRACT: note_on channel=9 note=27 velocity=0 time=0.023584916666666664
EXTRACT: note_on channel=9 note=42 velocity=0 time=0
EXTRACT: note_on channel=9 note=75 velocity=0 time=0
EXTRACT: note_on channel=9 note=35 velocity=90 time=0.2500001166666666
EXTRACT: note_on channel=9 note=42 velocity=90 time=0
EXTRACT: note_on channel=7 note=62 velocity=100 time=0.01886793333333333
EXTRACT: note_on channel=9 note=42 velocity=0 time=0.014150949999999997
EXTRACT: note_on channel=9 note=35 velocity=0 time=0
EXTRACT: note_on channel=9 note=42 velocity=90 time=0.2500001166666666
EXTRACT: note_on channel=9 note=54 velocity=77 time=0
EXTRACT: note_on channel=9 note=27 velocity=90 time=0
EXTRACT: note_on channel=9 note=75 velocity=65 time=0
EXTRACT: note_on channel=9 note=39 velocity=90 time=0
EXTRACT: note_on channel=7 note=62 velocity=0 time=0.014150949999999997
EXTRACT: note_on channel=9 note=39 velocity=0 time=0.01886793333333333
EXTRACT: note_on channel=9 note=27 velocity=0 time=0
EXTRACT: note_on channel=9 note=42 velocity=0 time=0
EXTRACT: note_on channel=9 note=54 velocity=0 time=0
EXTRACT: note_on channel=9 note=75 velocity=0 time=0
EXTRACT: note_on channel=1 note=43 velocity=0 time=0.20754726666666662
EXTRACT: note_on channel=1 note=31 velocity=68 time=0.04245284999999999
EXTRACT: note_on channel=9 note=27 velocity=90 time=0
EXTRACT: note_on channel=9 note=75 velocity=65 time=0
EXTRACT: note_on channel=9 note=42 velocity=90 time=0
EXTRACT: note_on channel=7 note=62 velocity=100 time=0.023584916666666664
EXTRACT: note_on channel=9 note=27 velocity=0 time=0.06603776666666665
EXTRACT: note_on channel=9 note=75 velocity=0 time=0.01886793333333333
EXTRACT: note_on channel=9 note=42 velocity=0 time=0.004716983333333332
EXTRACT: note_on channel=5 note=62 velocity=0 time=0.1320755333333333
EXTRACT: note_on channel=0 note=55 velocity=0 time=0.014150949999999997
EXTRACT: note_on channel=0 note=62 velocity=0 time=0
EXTRACT: note_on channel=0 note=71 velocity=0 time=0
EXTRACT: note_on channel=0 note=43 velocity=0 time=0
EXTRACT: note_on channel=0 note=59 velocity=0 time=0
EXTRACT: note_on channel=1 note=31 velocity=0 time=0
EXTRACT: note_on channel=6 note=67 velocity=0 time=0
EXTRACT: note_on channel=6 note=71 velocity=0 time=0
EXTRACT: note_on channel=6 note=74 velocity=0 time=0
EXTRACT: note_on channel=9 note=75 velocity=61 time=0.023584916666666664
EXTRACT: note_on channel=9 note=35 velocity=90 time=0
EXTRACT: note_on channel=6 note=64 velocity=52 time=0.004716983333333332
EXTRACT: note_on channel=9 note=42 velocity=90 time=0
EXTRACT: note_on channel=0 note=64 velocity=47 time=0.004716983333333332
EXTRACT: note_on channel=0 note=45 velocity=47 time=0
EXTRACT: note_on channel=1 note=33 velocity=83 time=0
EXTRACT: note_on channel=5 note=57 velocity=54 time=0
EXTRACT: note_on channel=0 note=64 velocity=45 time=0.004716983333333332
EXTRACT: note_on channel=0 note=60 velocity=45 time=0
EXTRACT: note_on channel=0 note=57 velocity=45 time=0
EXTRACT: note_on channel=6 note=60 velocity=50 time=0
EXTRACT: note_on channel=7 note=62 velocity=0 time=0.004716983333333332
EXTRACT: note_on channel=9 note=35 velocity=0 time=0.014150949999999997
EXTRACT: note_on channel=9 note=42 velocity=0 time=0.004716983333333332
EXTRACT: note_on channel=9 note=75 velocity=0 time=0.04716983333333333
EXTRACT: note_on channel=9 note=42 velocity=73 time=0.19811329999999996
EXTRACT: note_on channel=5 note=52 velocity=43 time=0.009433966666666665
EXTRACT: note_on channel=7 note=60 velocity=100 time=0
EXTRACT: note_on channel=5 note=57 velocity=0 time=0.004716983333333332
EXTRACT: note_on channel=9 note=42 velocity=0 time=0.01886793333333333
EXTRACT: note_on channel=5 note=52 velocity=0 time=0.2452831333333333
EXTRACT: note_on channel=6 note=69 velocity=52 time=0.004716983333333332
EXTRACT: note_on channel=9 note=54 velocity=77 time=0
EXTRACT: note_on channel=9 note=75 velocity=71 time=0
EXTRACT: note_on channel=9 note=39 velocity=90 time=0
EXTRACT: note_on channel=9 note=42 velocity=90 time=0
EXTRACT: note_on channel=9 note=27 velocity=90 time=0
EXTRACT: note_on channel=7 note=60 velocity=0 time=0.004716983333333332
EXTRACT: note_on channel=5 note=48 velocity=38 time=0.004716983333333332
EXTRACT: note_on channel=7 note=60 velocity=100 time=0.004716983333333332
EXTRACT: note_on channel=9 note=27 velocity=0 time=0.01886793333333333
EXTRACT: note_on channel=9 note=39 velocity=0 time=0
EXTRACT: note_on channel=9 note=54 velocity=0 time=0
EXTRACT: note_on channel=9 note=75 velocity=0 time=0
EXTRACT: note_on channel=9 note=42 velocity=0 time=0
EXTRACT: note_on channel=1 note=33 velocity=0 time=0.22169821666666661
EXTRACT: note_on channel=9 note=27 velocity=90 time=0.028301899999999994
EXTRACT: note_on channel=9 note=42 velocity=67 time=0
EXTRACT: note_on channel=9 note=35 velocity=90 time=0
EXTRACT: note_on channel=9 note=75 velocity=59 time=0
EXTRACT: note_on channel=7 note=62 velocity=100 time=0.004716983333333332
EXTRACT: note_on channel=1 note=33 velocity=54 time=0.004716983333333332
EXTRACT: note_on channel=5 note=48 velocity=0 time=0
EXTRACT: note_on channel=5 note=57 velocity=45 time=0
EXTRACT: note_on channel=7 note=60 velocity=0 time=0
EXTRACT: note_on channel=9 note=75 velocity=0 time=0.023584916666666664
EXTRACT: note_on channel=9 note=27 velocity=0 time=0
EXTRACT: note_on channel=9 note=42 velocity=0 time=0
EXTRACT: note_on channel=9 note=35 velocity=0 time=0
EXTRACT: note_on channel=6 note=64 velocity=0 time=0.18396234999999997
EXTRACT: note_on channel=1 note=33 velocity=0 time=0.05660379999999999
EXTRACT: note_on channel=6 note=64 velocity=46 time=0.009433966666666665
EXTRACT: note_on channel=7 note=62 velocity=0 time=0
EXTRACT: note_on channel=9 note=42 velocity=90 time=0
EXTRACT: note_on channel=9 note=27 velocity=90 time=0
EXTRACT: note_on channel=9 note=75 velocity=61 time=0
EXTRACT: note_on channel=1 note=33 velocity=68 time=0.009433966666666665
EXTRACT: note_on channel=7 note=62 velocity=100 time=0.014150949999999997
EXTRACT: note_on channel=9 note=75 velocity=0 time=0.009433966666666665
EXTRACT: note_on channel=9 note=27 velocity=0 time=0
EXTRACT: note_on channel=9 note=42 velocity=0 time=0
EXTRACT: note_on channel=9 note=42 velocity=90 time=0.2500001166666666
EXTRACT: note_on channel=9 note=35 velocity=90 time=0
EXTRACT: note_on channel=7 note=62 velocity=0 time=0.01886793333333333
EXTRACT: note_on channel=7 note=60 velocity=100 time=0
EXTRACT: note_on channel=9 note=35 velocity=0 time=0.014150949999999997
EXTRACT: note_on channel=9 note=42 velocity=0 time=0
EXTRACT: note_on channel=1 note=33 velocity=0 time=0.2452831333333333
EXTRACT: note_on channel=1 note=33 velocity=70 time=0.004716983333333332
EXTRACT: note_on channel=9 note=75 velocity=65 time=0
EXTRACT: note_on channel=9 note=39 velocity=90 time=0
EXTRACT: note_on channel=9 note=42 velocity=90 time=0
EXTRACT: note_on channel=9 note=27 velocity=90 time=0
EXTRACT: note_on channel=9 note=54 velocity=77 time=0
EXTRACT: note_on channel=7 note=60 velocity=0 time=0.014150949999999997
EXTRACT: note_on channel=7 note=60 velocity=100 time=0.009433966666666665
EXTRACT: note_on channel=9 note=54 velocity=0 time=0.009433966666666665
EXTRACT: note_on channel=9 note=42 velocity=0 time=0
EXTRACT: note_on channel=9 note=75 velocity=0 time=0
EXTRACT: note_on channel=9 note=39 velocity=0 time=0
EXTRACT: note_on channel=9 note=27 velocity=0 time=0
EXTRACT: note_on channel=1 note=33 velocity=0 time=0.2452831333333333
EXTRACT: note_on channel=1 note=33 velocity=56 time=0.004716983333333332
EXTRACT: note_on channel=9 note=27 velocity=90 time=0
EXTRACT: note_on channel=9 note=42 velocity=90 time=0
EXTRACT: note_on channel=9 note=75 velocity=65 time=0
EXTRACT: note_on channel=7 note=60 velocity=0 time=0.01886793333333333
EXTRACT: note_on channel=9 note=27 velocity=0 time=0.07075474999999999
EXTRACT: note_on channel=9 note=75 velocity=0 time=0.01886793333333333
EXTRACT: note_on channel=9 note=42 velocity=0 time=0.004716983333333332
EXTRACT: note_on channel=5 note=57 velocity=0 time=0.1179245833333333
EXTRACT: note_on channel=0 note=57 velocity=0 time=0.028301899999999994
EXTRACT: note_on channel=0 note=64 velocity=0 time=0
EXTRACT: note_on channel=0 note=64 velocity=0 time=0
EXTRACT: note_on channel=0 note=45 velocity=0 time=0
EXTRACT: note_on channel=0 note=60 velocity=0 time=0
EXTRACT: note_on channel=1 note=33 velocity=0 time=0
EXTRACT: note_on channel=6 note=64 velocity=0 time=0
EXTRACT: note_on channel=6 note=69 velocity=0 time=0
EXTRACT: note_on channel=6 note=60 velocity=0 time=0
EXTRACT: note_on channel=9 note=75 velocity=61 time=0.023584916666666664
EXTRACT: note_on channel=9 note=35 velocity=90 time=0
EXTRACT: note_on channel=6 note=69 velocity=52 time=0.004716983333333332
EXTRACT: note_on channel=9 note=42 velocity=90 time=0
EXTRACT: note_on channel=0 note=72 velocity=47 time=0.004716983333333332
EXTRACT: note_on channel=0 note=41 velocity=47 time=0
EXTRACT: note_on channel=1 note=29 velocity=83 time=0
EXTRACT: note_on channel=5 note=57 velocity=44 time=0
EXTRACT: note_on channel=0 note=65 velocity=45 time=0.004716983333333332
EXTRACT: note_on channel=0 note=60 velocity=45 time=0
EXTRACT: note_on channel=0 note=57 velocity=45 time=0
EXTRACT: note_on channel=6 note=65 velocity=50 time=0
EXTRACT: note_on channel=9 note=35 velocity=0 time=0.01886793333333333
EXTRACT: note_on channel=9 note=42 velocity=0 time=0.004716983333333332
EXTRACT: note_on channel=9 note=75 velocity=0 time=0.04716983333333333
EXTRACT: note_on channel=9 note=42 velocity=73 time=0.19811329999999996
EXTRACT: note_on channel=9 note=42 velocity=0 time=0.033018883333333325
EXTRACT: note_on channel=6 note=72 velocity=52 time=0.2500001166666666
EXTRACT: note_on channel=9 note=27 velocity=90 time=0
EXTRACT: note_on channel=9 note=54 velocity=77 time=0
EXTRACT: note_on channel=9 note=42 velocity=90 time=0
EXTRACT: note_on channel=9 note=75 velocity=71 time=0
EXTRACT: note_on channel=9 note=39 velocity=90 time=0
EXTRACT: note_on channel=9 note=39 velocity=0 time=0.033018883333333325
EXTRACT: note_on channel=9 note=42 velocity=0 time=0
EXTRACT: note_on channel=9 note=27 velocity=0 time=0
EXTRACT: note_on channel=9 note=54 velocity=0 time=0
EXTRACT: note_on channel=9 note=75 velocity=0 time=0
EXTRACT: note_on channel=1 note=29 velocity=0 time=0.24056614999999995
EXTRACT: note_on channel=5 note=57 velocity=0 time=0.004716983333333332
EXTRACT: note_on channel=1 note=29 velocity=70 time=0.004716983333333332
EXTRACT: note_on channel=7 note=60 velocity=100 time=0
EXTRACT: note_on channel=9 note=75 velocity=59 time=0
EXTRACT: note_on channel=9 note=27 velocity=90 time=0
EXTRACT: note_on channel=9 note=42 velocity=67 time=0
EXTRACT: note_on channel=9 note=35 velocity=90 time=0
EXTRACT: note_on channel=0 note=69 velocity=58 time=0.009433966666666665
EXTRACT: note_on channel=5 note=60 velocity=47 time=0
EXTRACT: note_on channel=9 note=35 velocity=0 time=0.023584916666666664
EXTRACT: note_on channel=9 note=75 velocity=0 time=0
EXTRACT: note_on channel=9 note=27 velocity=0 time=0
EXTRACT: note_on channel=9 note=42 velocity=0 time=0
EXTRACT: note_on channel=7 note=60 velocity=0 time=0.10849061666666665
EXTRACT: note_on channel=7 note=60 velocity=100 time=0.004716983333333332
EXTRACT: note_on channel=1 note=29 velocity=0 time=0.07075474999999999
EXTRACT: note_on channel=6 note=69 velocity=0 time=0
EXTRACT: note_on channel=1 note=29 velocity=70 time=0.06603776666666665
EXTRACT: note_on channel=6 note=69 velocity=46 time=0
EXTRACT: note_on channel=7 note=67 velocity=100 time=0
EXTRACT: note_on channel=9 note=75 velocity=61 time=0
EXTRACT: note_on channel=9 note=42 velocity=90 time=0
EXTRACT: note_on channel=9 note=27 velocity=90 time=0
EXTRACT: note_on channel=7 note=60 velocity=0 time=0.004716983333333332
EXTRACT: note_on channel=9 note=27 velocity=0 time=0.028301899999999994
EXTRACT: note_on channel=9 note=42 velocity=0 time=0
EXTRACT: note_on channel=9 note=75 velocity=0 time=0
EXTRACT: note_on channel=7 note=67 velocity=0 time=0.2452831333333333
EXTRACT: note_on channel=9 note=35 velocity=90 time=0.004716983333333332
EXTRACT: note_on channel=9 note=42 velocity=90 time=0
EXTRACT: note_on channel=7 note=67 velocity=100 time=0.014150949999999997
EXTRACT: note_on channel=9 note=42 velocity=0 time=0.01886793333333333
EXTRACT: note_on channel=9 note=35 velocity=0 time=0
EXTRACT: note_on channel=7 note=67 velocity=0 time=0.12264156666666665
EXTRACT: note_on channel=7 note=67 velocity=100 time=0
EXTRACT: note_on channel=9 note=39 velocity=90 time=0.12735855
EXTRACT: note_on channel=9 note=27 velocity=90 time=0
EXTRACT: note_on channel=9 note=54 velocity=77 time=0
EXTRACT: note_on channel=9 note=42 velocity=90 time=0
EXTRACT: note_on channel=9 note=75 velocity=65 time=0
EXTRACT: note_on channel=9 note=75 velocity=0 time=0.033018883333333325
EXTRACT: note_on channel=9 note=54 velocity=0 time=0
EXTRACT: note_on channel=9 note=39 velocity=0 time=0
EXTRACT: note_on channel=9 note=27 velocity=0 time=0
EXTRACT: note_on channel=9 note=42 velocity=0 time=0
EXTRACT: note_on channel=0 note=41 velocity=0 time=0.14150949999999998
EXTRACT: note_on channel=0 note=57 velocity=0 time=0.08962268333333331
EXTRACT: note_on channel=0 note=60 velocity=0 time=0
EXTRACT: note_on channel=0 note=65 velocity=0 time=0
EXTRACT: note_on channel=0 note=69 velocity=0 time=0.009433966666666665
EXTRACT: note_on channel=0 note=41 velocity=52 time=0.009433966666666665
EXTRACT: note_on channel=1 note=29 velocity=0 time=0
EXTRACT: note_on channel=9 note=27 velocity=90 time=0
EXTRACT: note_on channel=9 note=42 velocity=90 time=0
EXTRACT: note_on channel=9 note=75 velocity=65 time=0
EXTRACT: note_on channel=1 note=29 velocity=62 time=0.009433966666666665
EXTRACT: note_on channel=7 note=64 velocity=100 time=0.004716983333333332
EXTRACT: note_on channel=7 note=67 velocity=0 time=0.014150949999999997
EXTRACT: note_on channel=9 note=27 velocity=0 time=0.06132078333333332
EXTRACT: note_on channel=9 note=75 velocity=0 time=0.01886793333333333
EXTRACT: note_on channel=9 note=42 velocity=0 time=0.004716983333333332
EXTRACT: note_on channel=0 note=72 velocity=0 time=0.04716983333333333
EXTRACT: note_on channel=5 note=60 velocity=0 time=0.03773586666666666
EXTRACT: note_on channel=1 note=29 velocity=0 time=0.04245284999999999
EXTRACT: note_on channel=0 note=41 velocity=0 time=0.01886793333333333
EXTRACT: note_on channel=6 note=69 velocity=0 time=0
EXTRACT: note_on channel=6 note=72 velocity=0 time=0
EXTRACT: note_on channel=6 note=65 velocity=0 time=0
EXTRACT: note_on channel=9 note=35 velocity=90 time=0.023584916666666664
EXTRACT: note_on channel=9 note=75 velocity=61 time=0
EXTRACT: note_on channel=9 note=42 velocity=90 time=0.004716983333333332
EXTRACT: note_on channel=0 note=64 velocity=47 time=0.004716983333333332
EXTRACT: note_on channel=0 note=45 velocity=47 time=0
EXTRACT: note_on channel=1 note=33 velocity=83 time=0
EXTRACT: note_on channel=5 note=52 velocity=44 time=0
EXTRACT: note_on channel=7 note=64 velocity=0 time=0
EXTRACT: note_on channel=0 note=64 velocity=45 time=0.004716983333333332
EXTRACT: note_on channel=0 note=60 velocity=45 time=0
EXTRACT: note_on channel=0 note=57 velocity=45 time=0
EXTRACT: note_on channel=6 note=69 velocity=52 time=0
EXTRACT: note_on channel=9 note=35 velocity=0 time=0.01886793333333333
EXTRACT: note_on channel=9 note=42 velocity=0 time=0.004716983333333332
EXTRACT: note_on channel=9 note=75 velocity=0 time=0.04716983333333333
EXTRACT: note_on channel=9 note=42 velocity=73 time=0.19811329999999996
EXTRACT: note_on channel=9 note=42 velocity=0 time=0.033018883333333325
EXTRACT: note_on channel=9 note=42 velocity=55 time=0.10849061666666665
EXTRACT: note_on channel=9 note=42 velocity=0 time=0.01886793333333333
EXTRACT: note_on channel=6 note=64 velocity=46 time=0.12264156666666665
EXTRACT: note_on channel=9 note=54 velocity=77 time=0
EXTRACT: note_on channel=9 note=75 velocity=71 time=0
EXTRACT: note_on channel=9 note=27 velocity=90 time=0
EXTRACT: note_on channel=9 note=42 velocity=90 time=0
EXTRACT: note_on channel=9 note=39 velocity=90 time=0
EXTRACT: note_on channel=9 note=39 velocity=0 time=0.033018883333333325
EXTRACT: note_on channel=9 note=27 velocity=0 time=0
EXTRACT: note_on channel=9 note=54 velocity=0 time=0
EXTRACT: note_on channel=9 note=75 velocity=0 time=0
EXTRACT: note_on channel=9 note=42 velocity=0 time=0
EXTRACT: note_on channel=1 note=33 velocity=0 time=0.22169821666666661
EXTRACT: note_on channel=5 note=52 velocity=0 time=0.023584916666666664
EXTRACT: note_on channel=9 note=27 velocity=90 time=0.004716983333333332
EXTRACT: note_on channel=9 note=35 velocity=90 time=0
EXTRACT: note_on channel=9 note=75 velocity=59 time=0
EXTRACT: note_on channel=9 note=42 velocity=67 time=0
EXTRACT: note_on channel=1 note=33 velocity=54 time=0.009433966666666665
EXTRACT: note_on channel=5 note=57 velocity=47 time=0
EXTRACT: note_on channel=9 note=42 velocity=0 time=0.023584916666666664
EXTRACT: note_on channel=9 note=27 velocity=0 time=0
EXTRACT: note_on channel=9 note=35 velocity=0 time=0
EXTRACT: note_on channel=9 note=75 velocity=0 time=0
EXTRACT: note_on channel=1 note=33 velocity=0 time=0.24056614999999995
EXTRACT: note_on channel=6 note=60 velocity=50 time=0.009433966666666665
EXTRACT: note_on channel=9 note=42 velocity=90 time=0
EXTRACT: note_on channel=9 note=27 velocity=90 time=0
EXTRACT: note_on channel=9 note=75 velocity=61 time=0
EXTRACT: note_on channel=1 note=33 velocity=68 time=0.009433966666666665
EXTRACT: note_on channel=9 note=75 velocity=0 time=0.023584916666666664
EXTRACT: note_on channel=9 note=27 velocity=0 time=0
EXTRACT: note_on channel=9 note=42 velocity=0 time=0
EXTRACT: note_on channel=9 note=42 velocity=90 time=0.2500001166666666
EXTRACT: note_on channel=9 note=35 velocity=90 time=0
EXTRACT: note_on channel=7 note=64 velocity=100 time=0.004716983333333332
EXTRACT: note_on channel=9 note=35 velocity=0 time=0.028301899999999994
EXTRACT: note_on channel=9 note=42 velocity=0 time=0
EXTRACT: note_on channel=1 note=33 velocity=0 time=0.2452831333333333
EXTRACT: note_on channel=1 note=33 velocity=70 time=0.004716983333333332
EXTRACT: note_on channel=7 note=64 velocity=0 time=0
EXTRACT: note_on channel=7 note=60 velocity=100 time=0
EXTRACT: note_on channel=9 note=27 velocity=90 time=0
EXTRACT: note_on channel=9 note=75 velocity=65 time=0
EXTRACT: note_on channel=9 note=39 velocity=90 time=0
EXTRACT: note_on channel=9 note=42 velocity=90 time=0
EXTRACT: note_on channel=9 note=54 velocity=77 time=0
EXTRACT: note_on channel=9 note=54 velocity=0 time=0.033018883333333325
EXTRACT: note_on channel=9 note=39 velocity=0 time=0
EXTRACT: note_on channel=9 note=27 velocity=0 time=0
EXTRACT: note_on channel=9 note=75 velocity=0 time=0
EXTRACT: note_on channel=9 note=42 velocity=0 time=0
EXTRACT: note_on channel=1 note=33 velocity=0 time=0.2452831333333333
EXTRACT: note_on channel=7 note=60 velocity=0 time=0
EXTRACT: note_on channel=1 note=33 velocity=56 time=0.004716983333333332
EXTRACT: note_on channel=9 note=27 velocity=90 time=0
EXTRACT: note_on channel=9 note=75 velocity=65 time=0
EXTRACT: note_on channel=9 note=42 velocity=90 time=0
EXTRACT: note_on channel=7 note=62 velocity=100 time=0.004716983333333332
EXTRACT: note_on channel=9 note=27 velocity=0 time=0.08490569999999999
EXTRACT: note_on channel=9 note=75 velocity=0 time=0.01886793333333333
EXTRACT: note_on channel=9 note=42 velocity=0 time=0.004716983333333332
EXTRACT: note_on channel=5 note=57 velocity=0 time=0.08490569999999999
EXTRACT: note_on channel=0 note=57 velocity=0 time=0.06132078333333332
EXTRACT: note_on channel=0 note=64 velocity=0 time=0
EXTRACT: note_on channel=0 note=64 velocity=0 time=0
EXTRACT: note_on channel=0 note=45 velocity=0 time=0
EXTRACT: note_on channel=0 note=60 velocity=0 time=0
EXTRACT: note_on channel=1 note=33 velocity=0 time=0
EXTRACT: note_on channel=6 note=60 velocity=0 time=0
EXTRACT: note_on channel=6 note=64 velocity=0 time=0
EXTRACT: note_on channel=6 note=69 velocity=0 time=0
EXTRACT: note_on channel=7 note=62 velocity=0 time=0.023584916666666664
EXTRACT: note_on channel=9 note=35 velocity=90 time=0
EXTRACT: note_on channel=9 note=42 velocity=90 time=0
EXTRACT: note_on channel=6 note=71 velocity=52 time=0.004716983333333332
EXTRACT: note_on channel=9 note=75 velocity=61 time=0
EXTRACT: note_on channel=0 note=71 velocity=47 time=0.004716983333333332
EXTRACT: note_on channel=0 note=43 velocity=47 time=0
EXTRACT: note_on channel=1 note=31 velocity=83 time=0
EXTRACT: note_on channel=0 note=62 velocity=45 time=0.004716983333333332
EXTRACT: note_on channel=0 note=59 velocity=45 time=0
EXTRACT: note_on channel=0 note=55 velocity=45 time=0
EXTRACT: note_on channel=6 note=67 velocity=50 time=0
EXTRACT: note_on channel=9 note=42 velocity=0 time=0.01886793333333333
EXTRACT: note_on channel=9 note=35 velocity=0 time=0
EXTRACT: note_on channel=9 note=75 velocity=0 time=0.004716983333333332
EXTRACT: note_on channel=1 note=31 velocity=0 time=0.2311321833333333
EXTRACT: note_on channel=1 note=31 velocity=70 time=0.014150949999999997
EXTRACT: note_on channel=9 note=42 velocity=75 time=0
EXTRACT: note_on channel=9 note=42 velocity=0 time=0.033018883333333325
EXTRACT: note_on channel=6 note=74 velocity=52 time=0.2500001166666666
EXTRACT: note_on channel=9 note=39 velocity=90 time=0
EXTRACT: note_on channel=9 note=42 velocity=90 time=0
EXTRACT: note_on channel=9 note=27 velocity=90 time=0
EXTRACT: note_on channel=9 note=54 velocity=77 time=0
EXTRACT: note_on channel=9 note=75 velocity=71 time=0
EXTRACT: note_on channel=5 note=59 velocity=47 time=0.009433966666666665
EXTRACT: note_on channel=9 note=75 velocity=0 time=0.023584916666666664
EXTRACT: note_on channel=9 note=27 velocity=0 time=0
EXTRACT: note_on channel=9 note=39 velocity=0 time=0
EXTRACT: note_on channel=9 note=42 velocity=0 time=0
EXTRACT: note_on channel=9 note=54 velocity=0 time=0
EXTRACT: note_on channel=1 note=31 velocity=0 time=0.10849061666666665
EXTRACT: note_on channel=9 note=35 velocity=90 time=0.14150949999999998
EXTRACT: note_on channel=9 note=75 velocity=59 time=0
EXTRACT: note_on channel=9 note=27 velocity=90 time=0
EXTRACT: note_on channel=9 note=42 velocity=90 time=0
EXTRACT: note_on channel=1 note=31 velocity=54 time=0.009433966666666665
EXTRACT: note_on channel=9 note=42 velocity=0 time=0.023584916666666664
EXTRACT: note_on channel=9 note=35 velocity=0 time=0
EXTRACT: note_on channel=9 note=75 velocity=0 time=0
EXTRACT: note_on channel=9 note=27 velocity=0 time=0
EXTRACT: note_on channel=6 note=71 velocity=0 time=0.18396234999999997
EXTRACT: note_on channel=1 note=31 velocity=0 time=0.05660379999999999
EXTRACT: note_on channel=5 note=59 velocity=0 time=0.004716983333333332
EXTRACT: note_on channel=5 note=55 velocity=45 time=0.004716983333333332
EXTRACT: note_on channel=6 note=71 velocity=46 time=0
EXTRACT: note_on channel=9 note=42 velocity=90 time=0
EXTRACT: note_on channel=9 note=27 velocity=90 time=0
EXTRACT: note_on channel=1 note=31 velocity=68 time=0.009433966666666665
EXTRACT: note_on channel=9 note=27 velocity=0 time=0.023584916666666664
EXTRACT: note_on channel=9 note=42 velocity=0 time=0
EXTRACT: note_on channel=9 note=35 velocity=90 time=0.2500001166666666
EXTRACT: note_on channel=9 note=42 velocity=69 time=0
EXTRACT: note_on channel=9 note=75 velocity=61 time=0
EXTRACT: note_on channel=9 note=75 velocity=0 time=0.033018883333333325
EXTRACT: note_on channel=9 note=42 velocity=0 time=0
EXTRACT: note_on channel=9 note=35 velocity=0 time=0
EXTRACT: note_on channel=5 note=55 velocity=0 time=0.2452831333333333
EXTRACT: note_on channel=5 note=59 velocity=45 time=0.004716983333333332
EXTRACT: note_on channel=9 note=75 velocity=65 time=0
EXTRACT: note_on channel=9 note=42 velocity=90 time=0
EXTRACT: note_on channel=9 note=54 velocity=77 time=0
EXTRACT: note_on channel=9 note=39 velocity=90 time=0
EXTRACT: note_on channel=9 note=27 velocity=90 time=0
EXTRACT: note_on channel=9 note=27 velocity=0 time=0.033018883333333325
EXTRACT: note_on channel=9 note=54 velocity=0 time=0
EXTRACT: note_on channel=9 note=75 velocity=0 time=0
EXTRACT: note_on channel=9 note=42 velocity=0 time=0
EXTRACT: note_on channel=9 note=39 velocity=0 time=0
EXTRACT: note_on channel=1 note=31 velocity=0 time=0.24056614999999995
EXTRACT: note_on channel=1 note=31 velocity=56 time=0.009433966666666665
EXTRACT: note_on channel=9 note=75 velocity=65 time=0
EXTRACT: note_on channel=9 note=42 velocity=71 time=0
EXTRACT: note_on channel=9 note=27 velocity=90 time=0
EXTRACT: note_on channel=9 note=27 velocity=0 time=0.08962268333333331
EXTRACT: note_on channel=9 note=75 velocity=0 time=0.01886793333333333
EXTRACT: note_on channel=9 note=42 velocity=0 time=0.004716983333333332
EXTRACT: note_on channel=5 note=59 velocity=0 time=0.16509441666666663
EXTRACT: note_on channel=5 note=62 velocity=44 time=0.004716983333333332
EXTRACT: note_on channel=9 note=35 velocity=90 time=0
EXTRACT: note_on channel=9 note=75 velocity=61 time=0
EXTRACT: note_on channel=1 note=31 velocity=0 time=0.004716983333333332
EXTRACT: note_on channel=9 note=42 velocity=90 time=0
EXTRACT: note_on channel=1 note=31 velocity=75 time=0.004716983333333332
EXTRACT: note_on channel=9 note=35 velocity=0 time=0.023584916666666664
EXTRACT: note_on channel=9 note=42 velocity=0 time=0.004716983333333332
EXTRACT: note_on channel=9 note=75 velocity=0 time=0.04716983333333333
EXTRACT: note_on channel=9 note=42 velocity=73 time=0.19811329999999996
EXTRACT: note_on channel=9 note=42 velocity=0 time=0.033018883333333325
EXTRACT: note_on channel=9 note=42 velocity=55 time=0.10849061666666665
EXTRACT: note_on channel=9 note=42 velocity=0 time=0.01886793333333333
EXTRACT: note_on channel=9 note=42 velocity=90 time=0.12264156666666665
EXTRACT: note_on channel=9 note=54 velocity=77 time=0
EXTRACT: note_on channel=9 note=39 velocity=90 time=0
EXTRACT: note_on channel=9 note=27 velocity=90 time=0
EXTRACT: note_on channel=9 note=75 velocity=71 time=0
EXTRACT: note_on channel=9 note=75 velocity=0 time=0.033018883333333325
EXTRACT: note_on channel=9 note=39 velocity=0 time=0
EXTRACT: note_on channel=9 note=42 velocity=0 time=0
EXTRACT: note_on channel=9 note=54 velocity=0 time=0
EXTRACT: note_on channel=9 note=27 velocity=0 time=0
EXTRACT: note_on channel=1 note=31 velocity=0 time=0.17924536666666663
EXTRACT: note_on channel=9 note=75 velocity=59 time=0.07075474999999999
EXTRACT: note_on channel=9 note=42 velocity=67 time=0
EXTRACT: note_on channel=9 note=39 velocity=100 time=0
EXTRACT: note_on channel=9 note=27 velocity=90 time=0
EXTRACT: note_on channel=1 note=31 velocity=65 time=0.009433966666666665
EXTRACT: note_on channel=9 note=27 velocity=0 time=0.009433966666666665
EXTRACT: note_on channel=9 note=75 velocity=0 time=0
EXTRACT: note_on channel=9 note=42 velocity=0 time=0
EXTRACT: note_on channel=9 note=39 velocity=0 time=0
EXTRACT: note_on channel=9 note=39 velocity=68 time=0.12264156666666665
EXTRACT: note_on channel=9 note=39 velocity=0 time=0.01886793333333333
EXTRACT: note_on channel=5 note=62 velocity=0 time=0.11320759999999998
EXTRACT: note_on channel=1 note=31 velocity=0 time=0.004716983333333332
EXTRACT: note_on channel=5 note=59 velocity=45 time=0.004716983333333332
EXTRACT: note_on channel=9 note=75 velocity=61 time=0
EXTRACT: note_on channel=9 note=27 velocity=90 time=0
EXTRACT: note_on channel=9 note=42 velocity=90 time=0
EXTRACT: note_on channel=1 note=31 velocity=68 time=0.009433966666666665
EXTRACT: note_on channel=9 note=42 velocity=0 time=0.009433966666666665
EXTRACT: note_on channel=9 note=27 velocity=0 time=0
EXTRACT: note_on channel=9 note=75 velocity=0 time=0
EXTRACT: note_on channel=9 note=39 velocity=68 time=0.12264156666666665
EXTRACT: note_on channel=9 note=39 velocity=0 time=0.01886793333333333
EXTRACT: note_on channel=1 note=31 velocity=0 time=0.08490569999999999
EXTRACT: note_on channel=1 note=31 velocity=70 time=0.03773586666666666
EXTRACT: note_on channel=9 note=42 velocity=90 time=0
EXTRACT: note_on channel=9 note=35 velocity=90 time=0
EXTRACT: note_on channel=9 note=35 velocity=0 time=0.01886793333333333
EXTRACT: note_on channel=9 note=42 velocity=0 time=0
EXTRACT: note_on channel=9 note=39 velocity=67 time=0.12264156666666665
EXTRACT: note_on channel=9 note=39 velocity=0 time=0.01886793333333333
EXTRACT: note_on channel=5 note=59 velocity=0 time=0.1179245833333333
EXTRACT: note_on channel=5 note=55 velocity=45 time=0.004716983333333332
EXTRACT: note_on channel=9 note=27 velocity=90 time=0
EXTRACT: note_on channel=9 note=42 velocity=90 time=0
EXTRACT: note_on channel=9 note=75 velocity=65 time=0
EXTRACT: note_on channel=9 note=54 velocity=77 time=0
EXTRACT: note_on channel=9 note=39 velocity=110 time=0
EXTRACT: note_on channel=9 note=39 velocity=0 time=0.01886793333333333
EXTRACT: note_on channel=9 note=75 velocity=0 time=0
EXTRACT: note_on channel=9 note=27 velocity=0 time=0
EXTRACT: note_on channel=9 note=42 velocity=0 time=0
EXTRACT: note_on channel=9 note=54 velocity=0 time=0
EXTRACT: note_on channel=9 note=39 velocity=75 time=0.12264156666666665
EXTRACT: note_on channel=9 note=39 velocity=0 time=0.01886793333333333
EXTRACT: note_on channel=1 note=31 velocity=0 time=0.04245284999999999
EXTRACT: note_on channel=9 note=39 velocity=93 time=0.08018871666666665
EXTRACT: note_on channel=9 note=42 velocity=90 time=0
EXTRACT: note_on channel=9 note=75 velocity=65 time=0
EXTRACT: note_on channel=9 note=27 velocity=90 time=0
EXTRACT: note_on channel=1 note=31 velocity=54 time=0.009433966666666665
EXTRACT: note_on channel=9 note=27 velocity=0 time=0.009433966666666665
EXTRACT: note_on channel=9 note=39 velocity=0 time=0
EXTRACT: note_on channel=9 note=42 velocity=0 time=0
EXTRACT: note_on channel=9 note=75 velocity=0 time=0
EXTRACT: note_on channel=0 note=71 velocity=0 time=0.04716983333333333
EXTRACT: note_on channel=9 note=39 velocity=83 time=0.004716983333333332
EXTRACT: note_on channel=9 note=39 velocity=0 time=0.009433966666666665
EXTRACT: note_on channel=6 note=71 velocity=0 time=0.033018883333333325
EXTRACT: note_on channel=9 note=39 velocity=83 time=0.028301899999999994
EXTRACT: note_on channel=9 note=39 velocity=0 time=0.028301899999999994
EXTRACT: note_on channel=9 note=39 velocity=68 time=0.04245284999999999
EXTRACT: note_on channel=6 note=74 velocity=0 time=0.014150949999999997
EXTRACT: note_on channel=0 note=59 velocity=0 time=0.004716983333333332
EXTRACT: note_on channel=0 note=55 velocity=0 time=0
EXTRACT: note_on channel=0 note=62 velocity=0 time=0
EXTRACT: note_on channel=0 note=43 velocity=0 time=0.009433966666666665
EXTRACT: note_on channel=9 note=39 velocity=0 time=0
EXTRACT: note_on channel=1 note=31 velocity=0 time=0.01886793333333333
EXTRACT: note_on channel=6 note=67 velocity=0 time=0
EXTRACT: note_on channel=5 note=55 velocity=0 time=0
EXTRACT: note_on channel=9 note=35 velocity=90 time=0
EXTRACT: note_on channel=9 note=75 velocity=61 time=0
EXTRACT: note_on channel=9 note=57 velocity=82 time=0.004716983333333332
EXTRACT: note_on channel=0 note=72 velocity=47 time=0.004716983333333332
EXTRACT: note_on channel=0 note=41 velocity=47 time=0
EXTRACT: note_on channel=1 note=29 velocity=83 time=0
EXTRACT: note_on channel=5 note=57 velocity=44 time=0
EXTRACT: note_on channel=5 note=60 velocity=47 time=0
EXTRACT: note_on channel=0 note=65 velocity=45 time=0.004716983333333332
EXTRACT: note_on channel=0 note=60 velocity=45 time=0
EXTRACT: note_on channel=0 note=57 velocity=45 time=0
EXTRACT: note_on channel=6 note=72 velocity=52 time=0
EXTRACT: note_on channel=9 note=35 velocity=0 time=0.01886793333333333
EXTRACT: note_on channel=9 note=57 velocity=0 time=0.004716983333333332
EXTRACT: note_on channel=9 note=75 velocity=0 time=0.04716983333333333
EXTRACT: note_on channel=9 note=42 velocity=75 time=0.19811329999999996
EXTRACT: note_on channel=9 note=42 velocity=0 time=0.033018883333333325
EXTRACT: note_on channel=6 note=69 velocity=46 time=0.2500001166666666
EXTRACT: note_on channel=9 note=75 velocity=71 time=0
EXTRACT: note_on channel=9 note=39 velocity=90 time=0
EXTRACT: note_on channel=9 note=27 velocity=84 time=0
EXTRACT: note_on channel=9 note=54 velocity=77 time=0
EXTRACT: note_on channel=9 note=42 velocity=90 time=0
EXTRACT: note_on channel=9 note=42 velocity=0 time=0.033018883333333325
EXTRACT: note_on channel=9 note=27 velocity=0 time=0
EXTRACT: note_on channel=9 note=75 velocity=0 time=0
EXTRACT: note_on channel=9 note=39 velocity=0 time=0
EXTRACT: note_on channel=9 note=54 velocity=0 time=0
EXTRACT: note_on channel=1 note=29 velocity=0 time=0.24056614999999995
EXTRACT: note_on channel=1 note=29 velocity=70 time=0.009433966666666665
EXTRACT: note_on channel=9 note=27 velocity=90 time=0
EXTRACT: note_on channel=9 note=75 velocity=59 time=0
EXTRACT: note_on channel=9 note=35 velocity=90 time=0
EXTRACT: note_on channel=9 note=42 velocity=80 time=0
EXTRACT: note_on channel=0 note=69 velocity=58 time=0.009433966666666665
EXTRACT: note_on channel=7 note=60 velocity=100 time=0
EXTRACT: note_on channel=9 note=42 velocity=0 time=0.023584916666666664
EXTRACT: note_on channel=9 note=27 velocity=0 time=0
EXTRACT: note_on channel=9 note=75 velocity=0 time=0
EXTRACT: note_on channel=9 note=35 velocity=0 time=0
EXTRACT: note_on channel=7 note=60 velocity=0 time=0.1179245833333333
EXTRACT: note_on channel=7 note=60 velocity=100 time=0.009433966666666665
EXTRACT: note_on channel=1 note=29 velocity=0 time=0.05660379999999999
EXTRACT: note_on channel=1 note=29 velocity=70 time=0.06603776666666665
EXTRACT: note_on channel=6 note=65 velocity=50 time=0
EXTRACT: note_on channel=7 note=67 velocity=100 time=0
EXTRACT: note_on channel=9 note=42 velocity=90 time=0
EXTRACT: note_on channel=9 note=75 velocity=61 time=0
EXTRACT: note_on channel=9 note=27 velocity=80 time=0
EXTRACT: note_on channel=7 note=60 velocity=0 time=0.01886793333333333
EXTRACT: note_on channel=9 note=27 velocity=0 time=0.014150949999999997
EXTRACT: note_on channel=9 note=75 velocity=0 time=0
EXTRACT: note_on channel=9 note=42 velocity=0 time=0
EXTRACT: note_on channel=7 note=67 velocity=0 time=0.2452831333333333
EXTRACT: note_on channel=9 note=35 velocity=90 time=0.004716983333333332
EXTRACT: note_on channel=9 note=42 velocity=75 time=0
EXTRACT: note_on channel=9 note=42 velocity=0 time=0.033018883333333325
EXTRACT: note_on channel=9 note=35 velocity=0 time=0
EXTRACT: note_on channel=7 note=67 velocity=100 time=0.12264156666666665
EXTRACT: note_on channel=9 note=27 velocity=90 time=0.12735855
EXTRACT: note_on channel=9 note=39 velocity=90 time=0
EXTRACT: note_on channel=9 note=75 velocity=65 time=0
EXTRACT: note_on channel=9 note=54 velocity=77 time=0
EXTRACT: note_on channel=9 note=42 velocity=90 time=0
EXTRACT: note_on channel=9 note=42 velocity=0 time=0.033018883333333325
EXTRACT: note_on channel=9 note=75 velocity=0 time=0
EXTRACT: note_on channel=9 note=27 velocity=0 time=0
EXTRACT: note_on channel=9 note=39 velocity=0 time=0
EXTRACT: note_on channel=9 note=54 velocity=0 time=0
EXTRACT: note_on channel=7 note=67 velocity=0 time=0.1179245833333333
EXTRACT: note_on channel=7 note=67 velocity=100 time=0.01886793333333333
EXTRACT: note_on channel=0 note=41 velocity=0 time=0.004716983333333332
EXTRACT: note_on channel=0 note=57 velocity=0 time=0.08962268333333331
EXTRACT: note_on channel=0 note=60 velocity=0 time=0
EXTRACT: note_on channel=0 note=65 velocity=0 time=0
EXTRACT: note_on channel=0 note=69 velocity=0 time=0.009433966666666665
EXTRACT: note_on channel=0 note=41 velocity=52 time=0.009433966666666665
EXTRACT: note_on channel=1 note=29 velocity=0 time=0
EXTRACT: note_on channel=9 note=42 velocity=84 time=0
EXTRACT: note_on channel=9 note=75 velocity=65 time=0
EXTRACT: note_on channel=9 note=27 velocity=90 time=0
EXTRACT: note_on channel=1 note=29 velocity=62 time=0.009433966666666665
EXTRACT: note_on channel=7 note=64 velocity=100 time=0.009433966666666665
EXTRACT: note_on channel=7 note=67 velocity=0 time=0.009433966666666665
EXTRACT: note_on channel=9 note=27 velocity=0 time=0.06132078333333332
EXTRACT: note_on channel=9 note=75 velocity=0 time=0.01886793333333333
EXTRACT: note_on channel=9 note=42 velocity=0 time=0.004716983333333332
EXTRACT: note_on channel=0 note=72 velocity=0 time=0.04716983333333333
EXTRACT: note_on channel=5 note=60 velocity=0 time=0.009433966666666665
EXTRACT: note_on channel=5 note=57 velocity=0 time=0
EXTRACT: note_on channel=1 note=29 velocity=0 time=0.07075474999999999
EXTRACT: note_on channel=0 note=41 velocity=0 time=0.01886793333333333
EXTRACT: note_on channel=6 note=65 velocity=0 time=0
EXTRACT: note_on channel=6 note=69 velocity=0 time=0
EXTRACT: note_on channel=6 note=72 velocity=0 time=0
EXTRACT: note_on channel=9 note=35 velocity=90 time=0.023584916666666664
EXTRACT: note_on channel=9 note=75 velocity=61 time=0
EXTRACT: note_on channel=6 note=64 velocity=52 time=0.004716983333333332
EXTRACT: note_on channel=9 note=42 velocity=90 time=0
EXTRACT: note_on channel=0 note=69 velocity=47 time=0.004716983333333332
EXTRACT: note_on channel=0 note=45 velocity=47 time=0
EXTRACT: note_on channel=1 note=33 velocity=83 time=0
EXTRACT: note_on channel=5 note=57 velocity=45 time=0
EXTRACT: note_on channel=0 note=64 velocity=45 time=0.004716983333333332
EXTRACT: note_on channel=0 note=60 velocity=45 time=0
EXTRACT: note_on channel=0 note=57 velocity=45 time=0
EXTRACT: note_on channel=6 note=60 velocity=50 time=0
EXTRACT: note_on channel=7 note=64 velocity=0 time=0
EXTRACT: note_on channel=9 note=35 velocity=0 time=0.01886793333333333
EXTRACT: note_on channel=9 note=42 velocity=0 time=0.004716983333333332
EXTRACT: note_on channel=9 note=75 velocity=0 time=0.04716983333333333
EXTRACT: note_on channel=9 note=42 velocity=73 time=0.19811329999999996
EXTRACT: note_on channel=9 note=42 velocity=0 time=0.033018883333333325
EXTRACT: note_on channel=9 note=42 velocity=55 time=0.10849061666666665
EXTRACT: note_on channel=9 note=42 velocity=0 time=0.01886793333333333
EXTRACT: note_on channel=6 note=69 velocity=52 time=0.12264156666666665
EXTRACT: note_on channel=9 note=39 velocity=90 time=0
EXTRACT: note_on channel=9 note=42 velocity=90 time=0
EXTRACT: note_on channel=9 note=54 velocity=77 time=0
EXTRACT: note_on channel=9 note=75 velocity=71 time=0
EXTRACT: note_on channel=9 note=27 velocity=90 time=0
EXTRACT: note_on channel=9 note=27 velocity=0 time=0.033018883333333325
EXTRACT: note_on channel=9 note=54 velocity=0 time=0
EXTRACT: note_on channel=9 note=39 velocity=0 time=0
EXTRACT: note_on channel=9 note=42 velocity=0 time=0
EXTRACT: note_on channel=9 note=75 velocity=0 time=0
EXTRACT: note_on channel=1 note=33 velocity=0 time=0.22169821666666661
EXTRACT: note_on channel=9 note=35 velocity=90 time=0.028301899999999994
EXTRACT: note_on channel=9 note=27 velocity=90 time=0
EXTRACT: note_on channel=9 note=75 velocity=59 time=0
EXTRACT: note_on channel=9 note=42 velocity=67 time=0
EXTRACT: note_on channel=0 note=64 velocity=58 time=0.009433966666666665
EXTRACT: note_on channel=1 note=33 velocity=54 time=0
EXTRACT: note_on channel=9 note=42 velocity=0 time=0.023584916666666664
EXTRACT: note_on channel=9 note=35 velocity=0 time=0
EXTRACT: note_on channel=9 note=27 velocity=0 time=0
EXTRACT: note_on channel=9 note=75 velocity=0 time=0
EXTRACT: note_on channel=6 note=64 velocity=0 time=0.18396234999999997
EXTRACT: note_on channel=1 note=33 velocity=0 time=0.05660379999999999
EXTRACT: note_on channel=3 note=60 velocity=100 time=0.009433966666666665
EXTRACT: note_on channel=6 note=64 velocity=46 time=0
EXTRACT: note_on channel=9 note=75 velocity=61 time=0
EXTRACT: note_on channel=9 note=42 velocity=90 time=0
EXTRACT: note_on channel=9 note=27 velocity=90 time=0
EXTRACT: note_on channel=7 note=60 velocity=100 time=0.004716983333333332
EXTRACT: note_on channel=1 note=33 velocity=68 time=0.004716983333333332
EXTRACT: note_on channel=9 note=27 velocity=0 time=0.023584916666666664
EXTRACT: note_on channel=9 note=42 velocity=0 time=0
EXTRACT: note_on channel=9 note=75 velocity=0 time=0
EXTRACT: note_on channel=7 note=60 velocity=0 time=0.2500001166666666
EXTRACT: note_on channel=9 note=35 velocity=90 time=0
EXTRACT: note_on channel=9 note=42 velocity=90 time=0
EXTRACT: note_on channel=9 note=42 velocity=0 time=0.033018883333333325
EXTRACT: note_on channel=9 note=35 velocity=0 time=0
EXTRACT: note_on channel=7 note=60 velocity=100 time=0.10849061666666665
EXTRACT: note_on channel=3 note=60 velocity=0 time=0.14150949999999998
EXTRACT: note_on channel=9 note=75 velocity=65 time=0
EXTRACT: note_on channel=9 note=42 velocity=90 time=0
EXTRACT: note_on channel=9 note=27 velocity=90 time=0
EXTRACT: note_on channel=9 note=54 velocity=77 time=0
EXTRACT: note_on channel=9 note=39 velocity=90 time=0
EXTRACT: note_on channel=3 note=60 velocity=100 time=0.014150949999999997
EXTRACT: note_on channel=9 note=39 velocity=0 time=0.01886793333333333
EXTRACT: note_on channel=9 note=54 velocity=0 time=0
EXTRACT: note_on channel=9 note=27 velocity=0 time=0.06603776666666665
EXTRACT: note_on channel=9 note=42 velocity=0 time=0.009433966666666665
EXTRACT: note_on channel=9 note=75 velocity=0 time=0
EXTRACT: note_on channel=7 note=60 velocity=0 time=0.028301899999999994
EXTRACT: note_on channel=0 note=45 velocity=0 time=0.03773586666666666
EXTRACT: note_on channel=0 note=57 velocity=0 time=0.08962268333333331
EXTRACT: note_on channel=0 note=60 velocity=0 time=0
EXTRACT: note_on channel=0 note=64 velocity=0 time=0
EXTRACT: note_on channel=0 note=64 velocity=0 time=0.009433966666666665
EXTRACT: note_on channel=1 note=33 velocity=0 time=0
EXTRACT: note_on channel=0 note=45 velocity=52 time=0.009433966666666665
EXTRACT: note_on channel=1 note=33 velocity=56 time=0
EXTRACT: note_on channel=9 note=75 velocity=65 time=0
EXTRACT: note_on channel=9 note=42 velocity=90 time=0
EXTRACT: note_on channel=9 note=27 velocity=90 time=0
EXTRACT: note_on channel=9 note=39 velocity=83 time=0
EXTRACT: note_on channel=7 note=60 velocity=100 time=0.01886793333333333
EXTRACT: note_on channel=9 note=27 velocity=0 time=0.07075474999999999
EXTRACT: note_on channel=9 note=75 velocity=0 time=0.01886793333333333
EXTRACT: note_on channel=9 note=42 velocity=0 time=0.004716983333333332
EXTRACT: note_on channel=9 note=39 velocity=0 time=0.023584916666666664
EXTRACT: note_on channel=0 note=69 velocity=0 time=0.023584916666666664
EXTRACT: note_on channel=5 note=57 velocity=0 time=0.05660379999999999
EXTRACT: note_on channel=0 note=45 velocity=0 time=0.04245284999999999
EXTRACT: note_on channel=1 note=33 velocity=0 time=0
EXTRACT: note_on channel=6 note=64 velocity=0 time=0
EXTRACT: note_on channel=6 note=69 velocity=0 time=0
EXTRACT: note_on channel=6 note=60 velocity=0 time=0
EXTRACT: note_on channel=7 note=62 velocity=100 time=0.023584916666666664
EXTRACT: note_on channel=9 note=42 velocity=90 time=0
EXTRACT: note_on channel=9 note=35 velocity=90 time=0
EXTRACT: note_on channel=3 note=62 velocity=100 time=0.004716983333333332
EXTRACT: note_on channel=6 note=71 velocity=52 time=0
EXTRACT: note_on channel=9 note=75 velocity=61 time=0
EXTRACT: note_on channel=0 note=71 velocity=47 time=0.004716983333333332
EXTRACT: note_on channel=0 note=43 velocity=47 time=0
EXTRACT: note_on channel=1 note=31 velocity=83 time=0
EXTRACT: note_on channel=0 note=62 velocity=45 time=0.004716983333333332
EXTRACT: note_on channel=0 note=59 velocity=45 time=0
EXTRACT: note_on channel=0 note=55 velocity=45 time=0
EXTRACT: note_on channel=3 note=60 velocity=0 time=0
EXTRACT: note_on channel=6 note=67 velocity=50 time=0
EXTRACT: note_on channel=7 note=60 velocity=0 time=0
EXTRACT: note_on channel=9 note=35 velocity=0 time=0.01886793333333333
EXTRACT: note_on channel=9 note=42 velocity=0 time=0
EXTRACT: note_on channel=9 note=75 velocity=0 time=0.004716983333333332
EXTRACT: note_on channel=7 note=62 velocity=0 time=0.24056614999999995
EXTRACT: note_on channel=9 note=42 velocity=75 time=0.004716983333333332
EXTRACT: note_on channel=9 note=42 velocity=0 time=0.033018883333333325
EXTRACT: note_on channel=3 note=62 velocity=0 time=0.24056614999999995
EXTRACT: note_on channel=6 note=74 velocity=52 time=0.009433966666666665
EXTRACT: note_on channel=9 note=39 velocity=90 time=0
EXTRACT: note_on channel=9 note=75 velocity=71 time=0
EXTRACT: note_on channel=9 note=42 velocity=90 time=0
EXTRACT: note_on channel=9 note=27 velocity=90 time=0
EXTRACT: note_on channel=9 note=54 velocity=77 time=0
EXTRACT: note_on channel=5 note=62 velocity=45 time=0.009433966666666665
EXTRACT: note_on channel=7 note=62 velocity=100 time=0
EXTRACT: note_on channel=3 note=62 velocity=100 time=0.009433966666666665
EXTRACT: note_on channel=9 note=54 velocity=0 time=0.014150949999999997
EXTRACT: note_on channel=9 note=42 velocity=0 time=0
EXTRACT: note_on channel=9 note=39 velocity=0 time=0
EXTRACT: note_on channel=9 note=75 velocity=0 time=0
EXTRACT: note_on channel=9 note=27 velocity=0 time=0
EXTRACT: note_on channel=1 note=31 velocity=0 time=0.24056614999999995
EXTRACT: note_on channel=1 note=31 velocity=70 time=0.009433966666666665
EXTRACT: note_on channel=9 note=42 velocity=90 time=0
EXTRACT: note_on channel=9 note=27 velocity=90 time=0
EXTRACT: note_on channel=9 note=35 velocity=90 time=0
EXTRACT: note_on channel=9 note=75 velocity=59 time=0
EXTRACT: note_on channel=7 note=62 velocity=0 time=0.004716983333333332
EXTRACT: note_on channel=9 note=75 velocity=0 time=0.028301899999999994
EXTRACT: note_on channel=9 note=42 velocity=0 time=0
EXTRACT: note_on channel=9 note=27 velocity=0 time=0
EXTRACT: note_on channel=9 note=35 velocity=0 time=0
EXTRACT: note_on channel=1 note=31 velocity=0 time=0.18396234999999997
EXTRACT: note_on channel=6 note=71 velocity=0 time=0
EXTRACT: note_on channel=1 note=31 velocity=70 time=0.06603776666666665
EXTRACT: note_on channel=6 note=71 velocity=46 time=0
EXTRACT: note_on channel=9 note=42 velocity=90 time=0
EXTRACT: note_on channel=9 note=27 velocity=90 time=0
EXTRACT: note_on channel=3 note=62 velocity=0 time=0.01886793333333333
EXTRACT: note_on channel=9 note=27 velocity=0 time=0.014150949999999997
EXTRACT: note_on channel=9 note=42 velocity=0 time=0
EXTRACT: note_on channel=9 note=35 velocity=90 time=0.2500001166666666
EXTRACT: note_on channel=9 note=42 velocity=69 time=0
EXTRACT: note_on channel=9 note=75 velocity=61 time=0
EXTRACT: note_on channel=7 note=62 velocity=100 time=0.014150949999999997
EXTRACT: note_on channel=9 note=75 velocity=0 time=0.01886793333333333
EXTRACT: note_on channel=9 note=42 velocity=0 time=0
EXTRACT: note_on channel=9 note=35 velocity=0 time=0
EXTRACT: note_on channel=9 note=27 velocity=90 time=0.2500001166666666
EXTRACT: note_on channel=9 note=54 velocity=77 time=0
EXTRACT: note_on channel=9 note=42 velocity=90 time=0
EXTRACT: note_on channel=9 note=75 velocity=65 time=0
EXTRACT: note_on channel=9 note=39 velocity=90 time=0
EXTRACT: note_on channel=7 note=62 velocity=0 time=0.009433966666666665
EXTRACT: note_on channel=9 note=39 velocity=0 time=0.023584916666666664
EXTRACT: note_on channel=9 note=42 velocity=0 time=0
EXTRACT: note_on channel=9 note=27 velocity=0 time=0
EXTRACT: note_on channel=9 note=54 velocity=0 time=0
EXTRACT: note_on channel=9 note=75 velocity=0 time=0
EXTRACT: note_on channel=1 note=31 velocity=0 time=0.2500001166666666
EXTRACT: note_on channel=9 note=27 velocity=90 time=0
EXTRACT: note_on channel=9 note=75 velocity=65 time=0
EXTRACT: note_on channel=9 note=42 velocity=71 time=0
EXTRACT: note_on channel=1 note=31 velocity=62 time=0.009433966666666665
EXTRACT: note_on channel=7 note=62 velocity=100 time=0.009433966666666665
EXTRACT: note_on channel=9 note=27 velocity=0 time=0.07075474999999999
EXTRACT: note_on channel=9 note=75 velocity=0 time=0.01886793333333333
EXTRACT: note_on channel=9 note=42 velocity=0 time=0.004716983333333332
EXTRACT: note_on channel=1 note=31 velocity=0 time=0.12735855
EXTRACT: note_on channel=0 note=55 velocity=0 time=0.01886793333333333
EXTRACT: note_on channel=0 note=62 velocity=0 time=0
EXTRACT: note_on channel=0 note=71 velocity=0 time=0
EXTRACT: note_on channel=0 note=43 velocity=0 time=0
EXTRACT: note_on channel=0 note=59 velocity=0 time=0
EXTRACT: note_on channel=5 note=62 velocity=0 time=0
EXTRACT: note_on channel=6 note=71 velocity=0 time=0
EXTRACT: note_on channel=6 note=74 velocity=0 time=0
EXTRACT: note_on channel=6 note=67 velocity=0 time=0
EXTRACT: note_on channel=9 note=42 velocity=90 time=0.023584916666666664
EXTRACT: note_on channel=9 note=35 velocity=90 time=0
EXTRACT: note_on channel=6 note=64 velocity=52 time=0.004716983333333332
EXTRACT: note_on channel=9 note=75 velocity=61 time=0
EXTRACT: note_on channel=0 note=64 velocity=47 time=0.004716983333333332
EXTRACT: note_on channel=0 note=45 velocity=47 time=0
EXTRACT: note_on channel=1 note=33 velocity=83 time=0
EXTRACT: note_on channel=5 note=52 velocity=45 time=0
EXTRACT: note_on channel=0 note=64 velocity=45 time=0.004716983333333332
EXTRACT: note_on channel=0 note=60 velocity=45 time=0
EXTRACT: note_on channel=0 note=57 velocity=45 time=0
EXTRACT: note_on channel=6 note=69 velocity=52 time=0
EXTRACT: note_on channel=6 note=60 velocity=50 time=0
EXTRACT: note_on channel=7 note=62 velocity=0 time=0
EXTRACT: note_on channel=9 note=35 velocity=0 time=0.01886793333333333
EXTRACT: note_on channel=9 note=42 velocity=0 time=0
EXTRACT: note_on channel=9 note=75 velocity=0 time=0.004716983333333332
EXTRACT: note_on channel=9 note=42 velocity=75 time=0.2452831333333333
EXTRACT: note_on channel=7 note=60 velocity=100 time=0.004716983333333332
EXTRACT: note_on channel=9 note=42 velocity=0 time=0.028301899999999994
EXTRACT: note_on channel=7 note=60 velocity=0 time=0.2500001166666666
EXTRACT: note_on channel=9 note=54 velocity=77 time=0
EXTRACT: note_on channel=9 note=42 velocity=90 time=0
EXTRACT: note_on channel=9 note=75 velocity=71 time=0
EXTRACT: note_on channel=9 note=39 velocity=90 time=0
EXTRACT: note_on channel=9 note=27 velocity=90 time=0
EXTRACT: note_on channel=7 note=60 velocity=100 time=0.009433966666666665
EXTRACT: note_on channel=9 note=27 velocity=0 time=0.023584916666666664
EXTRACT: note_on channel=9 note=75 velocity=0 time=0
EXTRACT: note_on channel=9 note=54 velocity=0 time=0
EXTRACT: note_on channel=9 note=42 velocity=0 time=0
EXTRACT: note_on channel=9 note=39 velocity=0 time=0
EXTRACT: note_on channel=1 note=33 velocity=0 time=0.22169821666666661
EXTRACT: note_on channel=7 note=62 velocity=100 time=0.028301899999999994
EXTRACT: note_on channel=9 note=75 velocity=59 time=0
EXTRACT: note_on channel=9 note=35 velocity=90 time=0
EXTRACT: note_on channel=9 note=27 velocity=90 time=0
EXTRACT: note_on channel=9 note=42 velocity=90 time=0
EXTRACT: note_on channel=5 note=52 velocity=0 time=0.004716983333333332
EXTRACT: note_on channel=7 note=60 velocity=0 time=0
EXTRACT: note_on channel=0 note=69 velocity=58 time=0.004716983333333332
EXTRACT: note_on channel=1 note=33 velocity=54 time=0
EXTRACT: note_on channel=5 note=57 velocity=45 time=0
EXTRACT: note_on channel=9 note=42 velocity=0 time=0.023584916666666664
EXTRACT: note_on channel=9 note=75 velocity=0 time=0
EXTRACT: note_on channel=9 note=35 velocity=0 time=0
EXTRACT: note_on channel=9 note=27 velocity=0 time=0
EXTRACT: note_on channel=1 note=33 velocity=0 time=0.24056614999999995
EXTRACT: note_on channel=7 note=62 velocity=0 time=0.004716983333333332
EXTRACT: note_on channel=9 note=42 velocity=90 time=0.004716983333333332
EXTRACT: note_on channel=9 note=27 velocity=90 time=0
EXTRACT: note_on channel=1 note=33 velocity=68 time=0.009433966666666665
EXTRACT: note_on channel=7 note=62 velocity=100 time=0.009433966666666665
EXTRACT: note_on channel=9 note=27 velocity=0 time=0.014150949999999997
EXTRACT: note_on channel=9 note=42 velocity=0 time=0
EXTRACT: note_on channel=9 note=75 velocity=61 time=0.2500001166666666
EXTRACT: note_on channel=9 note=35 velocity=90 time=0
EXTRACT: note_on channel=9 note=42 velocity=69 time=0
EXTRACT: note_on channel=7 note=62 velocity=0 time=0.014150949999999997
EXTRACT: note_on channel=7 note=60 velocity=100 time=0
EXTRACT: note_on channel=9 note=35 velocity=0 time=0.01886793333333333
EXTRACT: note_on channel=9 note=42 velocity=0 time=0.03773586666666666
EXTRACT: note_on channel=9 note=75 velocity=0 time=0.06132078333333332
EXTRACT: note_on channel=9 note=42 velocity=48 time=0.009433966666666665
EXTRACT: note_on channel=9 note=42 velocity=0 time=0.01886793333333333
EXTRACT: note_on channel=1 note=33 velocity=0 time=0.1179245833333333
EXTRACT: note_on channel=1 note=33 velocity=70 time=0.004716983333333332
EXTRACT: note_on channel=9 note=39 velocity=90 time=0
EXTRACT: note_on channel=9 note=75 velocity=65 time=0
EXTRACT: note_on channel=9 note=54 velocity=77 time=0
EXTRACT: note_on channel=9 note=42 velocity=90 time=0
EXTRACT: note_on channel=9 note=27 velocity=90 time=0
EXTRACT: note_on channel=7 note=60 velocity=0 time=0.009433966666666665
EXTRACT: note_on channel=7 note=60 velocity=100 time=0.009433966666666665
EXTRACT: note_on channel=9 note=27 velocity=0 time=0.014150949999999997
EXTRACT: note_on channel=9 note=54 velocity=0 time=0
EXTRACT: note_on channel=9 note=39 velocity=0 time=0
EXTRACT: note_on channel=9 note=75 velocity=0 time=0
EXTRACT: note_on channel=9 note=42 velocity=0 time=0
EXTRACT: note_on channel=0 note=45 velocity=0 time=0.1462264833333333
EXTRACT: note_on channel=0 note=69 velocity=0 time=0.09433966666666666
EXTRACT: note_on channel=1 note=33 velocity=0 time=0.004716983333333332
EXTRACT: note_on channel=0 note=45 velocity=52 time=0.004716983333333332
EXTRACT: note_on channel=1 note=33 velocity=56 time=0
EXTRACT: note_on channel=9 note=75 velocity=65 time=0
EXTRACT: note_on channel=9 note=42 velocity=90 time=0
EXTRACT: note_on channel=9 note=27 velocity=90 time=0
EXTRACT: note_on channel=0 note=60 velocity=0 time=0.014150949999999997
EXTRACT: note_on channel=0 note=57 velocity=0 time=0
EXTRACT: note_on channel=0 note=64 velocity=0 time=0
EXTRACT: note_on channel=7 note=60 velocity=0 time=0
EXTRACT: note_on channel=0 note=64 velocity=0 time=0.04245284999999999
EXTRACT: note_on channel=9 note=27 velocity=0 time=0.033018883333333325
EXTRACT: note_on channel=9 note=75 velocity=0 time=0.01886793333333333
EXTRACT: note_on channel=9 note=42 velocity=0 time=0.004716983333333332
EXTRACT: note_on channel=0 note=45 velocity=0 time=0.08018871666666665
EXTRACT: note_on channel=5 note=57 velocity=0 time=0.051886816666666655
EXTRACT: note_on channel=1 note=33 velocity=0 time=0.014150949999999997
EXTRACT: note_on channel=6 note=60 velocity=0 time=0
EXTRACT: note_on channel=6 note=69 velocity=0 time=0
EXTRACT: note_on channel=6 note=64 velocity=0 time=0
EXTRACT: note_on channel=9 note=35 velocity=90 time=0.023584916666666664
EXTRACT: note_on channel=9 note=39 velocity=80 time=0
EXTRACT: note_on channel=1 note=29 velocity=75 time=0.004716983333333332
EXTRACT: note_on channel=6 note=69 velocity=52 time=0
EXTRACT: note_on channel=9 note=57 velocity=65 time=0
EXTRACT: note_on channel=0 note=69 velocity=47 time=0.004716983333333332
EXTRACT: note_on channel=0 note=41 velocity=47 time=0
EXTRACT: note_on channel=5 note=57 velocity=45 time=0
EXTRACT: note_on channel=0 note=65 velocity=45 time=0.004716983333333332
EXTRACT: note_on channel=0 note=60 velocity=45 time=0
EXTRACT: note_on channel=0 note=57 velocity=45 time=0
EXTRACT: note_on channel=6 note=72 velocity=52 time=0
EXTRACT: note_on channel=6 note=65 velocity=50 time=0
EXTRACT: note_on channel=9 note=57 velocity=0 time=0.023584916666666664
EXTRACT: note_on channel=9 note=39 velocity=0 time=0.05660379999999999
EXTRACT: note_on channel=9 note=35 velocity=0 time=0.01886793333333333
EXTRACT: note_on channel=9 note=42 velocity=75 time=0.16981139999999997
EXTRACT: note_on channel=9 note=42 velocity=0 time=0.033018883333333325
EXTRACT: note_on channel=9 note=39 velocity=90 time=0.2500001166666666
EXTRACT: note_on channel=9 note=54 velocity=77 time=0
EXTRACT: note_on channel=9 note=75 velocity=71 time=0
EXTRACT: note_on channel=9 note=42 velocity=90 time=0
EXTRACT: note_on channel=9 note=27 velocity=84 time=0
EXTRACT: note_on channel=9 note=27 velocity=0 time=0.033018883333333325
EXTRACT: note_on channel=9 note=75 velocity=0 time=0
EXTRACT: note_on channel=9 note=39 velocity=0 time=0
EXTRACT: note_on channel=9 note=54 velocity=0 time=0
EXTRACT: note_on channel=9 note=42 velocity=0 time=0
EXTRACT: note_on channel=1 note=29 velocity=0 time=0.16509441666666663
EXTRACT: note_on channel=9 note=75 velocity=59 time=0.08490569999999999
EXTRACT: note_on channel=9 note=35 velocity=90 time=0
EXTRACT: note_on channel=9 note=42 velocity=80 time=0
EXTRACT: note_on channel=9 note=27 velocity=90 time=0
EXTRACT: note_on channel=1 note=29 velocity=75 time=0.004716983333333332
EXTRACT: note_on channel=5 note=57 velocity=0 time=0
EXTRACT: note_on channel=5 note=60 velocity=45 time=0.004716983333333332
EXTRACT: note_on channel=9 note=27 velocity=0 time=0.023584916666666664
EXTRACT: note_on channel=9 note=75 velocity=0 time=0
EXTRACT: note_on channel=9 note=35 velocity=0 time=0
EXTRACT: note_on channel=9 note=42 velocity=0 time=0
EXTRACT: note_on channel=7 note=60 velocity=100 time=0.10849061666666665
EXTRACT: note_on channel=7 note=67 velocity=100 time=0.13679251666666664
EXTRACT: note_on channel=7 note=60 velocity=0 time=0.004716983333333332
EXTRACT: note_on channel=9 note=27 velocity=80 time=0
EXTRACT: note_on channel=9 note=75 velocity=61 time=0
EXTRACT: note_on channel=9 note=42 velocity=90 time=0
EXTRACT: note_on channel=9 note=42 velocity=0 time=0.033018883333333325
EXTRACT: note_on channel=9 note=75 velocity=0 time=0
EXTRACT: note_on channel=9 note=27 velocity=0 time=0
EXTRACT: note_on channel=7 note=67 velocity=0 time=0.24056614999999995
EXTRACT: note_on channel=9 note=42 velocity=75 time=0.009433966666666665
EXTRACT: note_on channel=9 note=35 velocity=90 time=0
EXTRACT: note_on channel=7 note=67 velocity=100 time=0.009433966666666665
EXTRACT: note_on channel=9 note=35 velocity=0 time=0.023584916666666664
EXTRACT: note_on channel=9 note=42 velocity=0 time=0
EXTRACT: note_on channel=7 note=67 velocity=0 time=0.1179245833333333
EXTRACT: note_on channel=7 note=67 velocity=100 time=0
EXTRACT: note_on channel=9 note=39 velocity=90 time=0.1320755333333333
EXTRACT: note_on channel=9 note=54 velocity=77 time=0
EXTRACT: note_on channel=9 note=75 velocity=65 time=0
EXTRACT: note_on channel=9 note=27 velocity=90 time=0
EXTRACT: note_on channel=9 note=42 velocity=90 time=0
EXTRACT: note_on channel=9 note=42 velocity=0 time=0.033018883333333325
EXTRACT: note_on channel=9 note=75 velocity=0 time=0
EXTRACT: note_on channel=9 note=39 velocity=0 time=0
EXTRACT: note_on channel=9 note=54 velocity=0 time=0
EXTRACT: note_on channel=9 note=27 velocity=0 time=0
EXTRACT: note_on channel=7 note=67 velocity=0 time=0.10377363333333331
EXTRACT: note_on channel=7 note=67 velocity=100 time=0.009433966666666665
EXTRACT: note_on channel=1 note=29 velocity=0 time=0.03773586666666666
EXTRACT: note_on channel=1 note=29 velocity=60 time=0.09905664999999998
EXTRACT: note_on channel=9 note=75 velocity=65 time=0
EXTRACT: note_on channel=9 note=27 velocity=90 time=0
EXTRACT: note_on channel=9 note=42 velocity=84 time=0
EXTRACT: note_on channel=7 note=67 velocity=0 time=0.004716983333333332
EXTRACT: note_on channel=7 note=64 velocity=100 time=0.004716983333333332
EXTRACT: note_on channel=9 note=27 velocity=0 time=0.08018871666666665
EXTRACT: note_on channel=9 note=75 velocity=0 time=0.01886793333333333
EXTRACT: note_on channel=9 note=42 velocity=0 time=0.004716983333333332
EXTRACT: note_on channel=5 note=60 velocity=0 time=0.1320755333333333
EXTRACT: note_on channel=0 note=57 velocity=0 time=0.014150949999999997
EXTRACT: note_on channel=0 note=65 velocity=0 time=0
EXTRACT: note_on channel=0 note=69 velocity=0 time=0
EXTRACT: note_on channel=0 note=41 velocity=0 time=0
EXTRACT: note_on channel=0 note=60 velocity=0 time=0
EXTRACT: note_on channel=1 note=29 velocity=0 time=0
EXTRACT: note_on channel=6 note=65 velocity=0 time=0
EXTRACT: note_on channel=6 note=72 velocity=0 time=0
EXTRACT: note_on channel=6 note=69 velocity=0 time=0
EXTRACT: note_on channel=9 note=42 velocity=90 time=0.023584916666666664
EXTRACT: note_on channel=9 note=35 velocity=90 time=0
EXTRACT: note_on channel=6 note=64 velocity=52 time=0.004716983333333332
EXTRACT: note_on channel=7 note=64 velocity=0 time=0
EXTRACT: note_on channel=9 note=75 velocity=61 time=0
EXTRACT: note_on channel=0 note=69 velocity=47 time=0.004716983333333332
EXTRACT: note_on channel=0 note=45 velocity=47 time=0
EXTRACT: note_on channel=1 note=33 velocity=83 time=0
EXTRACT: note_on channel=0 note=64 velocity=45 time=0.004716983333333332
EXTRACT: note_on channel=0 note=60 velocity=45 time=0
EXTRACT: note_on channel=0 note=57 velocity=45 time=0
EXTRACT: note_on channel=6 note=60 velocity=50 time=0
EXTRACT: note_on channel=9 note=35 velocity=0 time=0.01886793333333333
EXTRACT: note_on channel=9 note=42 velocity=0 time=0
EXTRACT: note_on channel=9 note=75 velocity=0 time=0.004716983333333332
EXTRACT: note_on channel=9 note=42 velocity=75 time=0.2452831333333333
EXTRACT: note_on channel=9 note=42 velocity=0 time=0.033018883333333325
EXTRACT: note_on channel=5 note=57 velocity=48 time=0.2500001166666666
EXTRACT: note_on channel=6 note=69 velocity=52 time=0
EXTRACT: note_on channel=9 note=39 velocity=90 time=0
EXTRACT: note_on channel=9 note=27 velocity=90 time=0
EXTRACT: note_on channel=9 note=75 velocity=71 time=0
EXTRACT: note_on channel=9 note=54 velocity=77 time=0
EXTRACT: note_on channel=9 note=42 velocity=90 time=0
EXTRACT: note_on channel=9 note=42 velocity=0 time=0.033018883333333325
EXTRACT: note_on channel=9 note=75 velocity=0 time=0
EXTRACT: note_on channel=9 note=39 velocity=0 time=0
EXTRACT: note_on channel=9 note=27 velocity=0 time=0
EXTRACT: note_on channel=9 note=54 velocity=0 time=0
EXTRACT: note_on channel=1 note=33 velocity=0 time=0.22169821666666661
EXTRACT: note_on channel=9 note=27 velocity=90 time=0.028301899999999994
EXTRACT: note_on channel=9 note=75 velocity=59 time=0
EXTRACT: note_on channel=9 note=35 velocity=90 time=0
EXTRACT: note_on channel=9 note=42 velocity=90 time=0
EXTRACT: note_on channel=0 note=64 velocity=58 time=0.009433966666666665
EXTRACT: note_on channel=1 note=33 velocity=54 time=0
EXTRACT: note_on channel=9 note=42 velocity=0 time=0.023584916666666664
EXTRACT: note_on channel=9 note=27 velocity=0 time=0
EXTRACT: note_on channel=9 note=75 velocity=0 time=0
EXTRACT: note_on channel=9 note=35 velocity=0 time=0
EXTRACT: note_on channel=6 note=64 velocity=0 time=0.18396234999999997
EXTRACT: note_on channel=5 note=57 velocity=0 time=0.03773586666666666
EXTRACT: note_on channel=1 note=33 velocity=0 time=0.01886793333333333
EXTRACT: note_on channel=5 note=52 velocity=42 time=0.009433966666666665
EXTRACT: note_on channel=6 note=64 velocity=46 time=0
EXTRACT: note_on channel=9 note=27 velocity=90 time=0
EXTRACT: note_on channel=9 note=42 velocity=90 time=0
EXTRACT: note_on channel=1 note=33 velocity=68 time=0.009433966666666665
EXTRACT: note_on channel=9 note=42 velocity=0 time=0.023584916666666664
EXTRACT: note_on channel=9 note=27 velocity=0 time=0
EXTRACT: note_on channel=7 note=64 velocity=100 time=0.2500001166666666
EXTRACT: note_on channel=9 note=75 velocity=61 time=0
EXTRACT: note_on channel=9 note=35 velocity=90 time=0
EXTRACT: note_on channel=9 note=42 velocity=69 time=0
EXTRACT: note_on channel=9 note=42 velocity=0 time=0.033018883333333325
EXTRACT: note_on channel=9 note=35 velocity=0 time=0
EXTRACT: note_on channel=9 note=75 velocity=0 time=0
EXTRACT: note_on channel=5 note=52 velocity=0 time=0.22169821666666661
EXTRACT: note_on channel=7 note=64 velocity=0 time=0.023584916666666664
EXTRACT: note_on channel=7 note=60 velocity=100 time=0
EXTRACT: note_on channel=5 note=48 velocity=46 time=0.004716983333333332
EXTRACT: note_on channel=9 note=54 velocity=77 time=0
EXTRACT: note_on channel=9 note=27 velocity=90 time=0
EXTRACT: note_on channel=9 note=75 velocity=65 time=0
EXTRACT: note_on channel=9 note=39 velocity=90 time=0
EXTRACT: note_on channel=9 note=42 velocity=90 time=0
EXTRACT: note_on channel=9 note=42 velocity=0 time=0.033018883333333325
EXTRACT: note_on channel=9 note=75 velocity=0 time=0
EXTRACT: note_on channel=9 note=54 velocity=0 time=0
EXTRACT: note_on channel=9 note=27 velocity=0 time=0
EXTRACT: note_on channel=9 note=39 velocity=0 time=0
EXTRACT: note_on channel=0 note=45 velocity=0 time=0.14150949999999998
EXTRACT: note_on channel=0 note=57 velocity=0 time=0.08962268333333331
EXTRACT: note_on channel=0 note=60 velocity=0 time=0
EXTRACT: note_on channel=0 note=64 velocity=0 time=0
EXTRACT: note_on channel=0 note=64 velocity=0 time=0.009433966666666665
EXTRACT: note_on channel=1 note=33 velocity=0 time=0
EXTRACT: note_on channel=7 note=60 velocity=0 time=0
EXTRACT: note_on channel=0 note=45 velocity=52 time=0.009433966666666665
EXTRACT: note_on channel=1 note=33 velocity=56 time=0
EXTRACT: note_on channel=7 note=64 velocity=100 time=0
EXTRACT: note_on channel=9 note=42 velocity=71 time=0
EXTRACT: note_on channel=9 note=75 velocity=65 time=0
EXTRACT: note_on channel=9 note=27 velocity=90 time=0
EXTRACT: note_on channel=9 note=27 velocity=0 time=0.08962268333333331
EXTRACT: note_on channel=9 note=75 velocity=0 time=0.01886793333333333
EXTRACT: note_on channel=9 note=42 velocity=0 time=0.004716983333333332
EXTRACT: note_on channel=0 note=69 velocity=0 time=0.04716983333333333
EXTRACT: note_on channel=0 note=45 velocity=0 time=0.09905664999999998
EXTRACT: note_on channel=1 note=33 velocity=0 time=0
EXTRACT: note_on channel=6 note=64 velocity=0 time=0
EXTRACT: note_on channel=6 note=69 velocity=0 time=0
EXTRACT: note_on channel=6 note=60 velocity=0 time=0
EXTRACT: note_on channel=5 note=48 velocity=0 time=0.004716983333333332
EXTRACT: note_on channel=7 note=64 velocity=0 time=0.014150949999999997
EXTRACT: note_on channel=9 note=35 velocity=90 time=0.004716983333333332
EXTRACT: note_on channel=9 note=42 velocity=90 time=0
EXTRACT: note_on channel=7 note=62 velocity=100 time=0.004716983333333332
EXTRACT: note_on channel=9 note=75 velocity=61 time=0
EXTRACT: note_on channel=0 note=71 velocity=47 time=0.004716983333333332
EXTRACT: note_on channel=0 note=43 velocity=47 time=0
EXTRACT: note_on channel=1 note=43 velocity=79 time=0
EXTRACT: note_on channel=0 note=62 velocity=45 time=0.004716983333333332
EXTRACT: note_on channel=0 note=59 velocity=45 time=0
EXTRACT: note_on channel=0 note=55 velocity=45 time=0
EXTRACT: note_on channel=6 note=74 velocity=52 time=0
EXTRACT: note_on channel=9 note=42 velocity=0 time=0.01886793333333333
EXTRACT: note_on channel=9 note=35 velocity=0 time=0
EXTRACT: note_on channel=9 note=75 velocity=0 time=0.004716983333333332
EXTRACT: note_on channel=7 note=62 velocity=0 time=0.2452831333333333
EXTRACT: note_on channel=9 note=42 velocity=75 time=0
EXTRACT: note_on channel=9 note=42 velocity=0 time=0.033018883333333325
EXTRACT: note_on channel=5 note=59 velocity=49 time=0.2500001166666666
EXTRACT: note_on channel=6 note=71 velocity=46 time=0
EXTRACT: note_on channel=9 note=54 velocity=77 time=0
EXTRACT: note_on channel=9 note=75 velocity=71 time=0
EXTRACT: note_on channel=9 note=27 velocity=90 time=0
EXTRACT: note_on channel=9 note=39 velocity=90 time=0
EXTRACT: note_on channel=9 note=42 velocity=90 time=0
EXTRACT: note_on channel=9 note=42 velocity=0 time=0.033018883333333325
EXTRACT: note_on channel=9 note=27 velocity=0 time=0
EXTRACT: note_on channel=9 note=54 velocity=0 time=0
EXTRACT: note_on channel=9 note=75 velocity=0 time=0
EXTRACT: note_on channel=9 note=39 velocity=0 time=0
EXTRACT: note_on channel=1 note=43 velocity=0 time=0.22169821666666661
EXTRACT: note_on channel=9 note=42 velocity=90 time=0.028301899999999994
EXTRACT: note_on channel=9 note=27 velocity=90 time=0
EXTRACT: note_on channel=9 note=75 velocity=59 time=0
EXTRACT: note_on channel=9 note=35 velocity=90 time=0
EXTRACT: note_on channel=0 note=74 velocity=58 time=0.009433966666666665
EXTRACT: note_on channel=1 note=38 velocity=54 time=0
EXTRACT: note_on channel=9 note=35 velocity=0 time=0.023584916666666664
EXTRACT: note_on channel=9 note=42 velocity=0 time=0
EXTRACT: note_on channel=9 note=27 velocity=0 time=0
EXTRACT: note_on channel=9 note=75 velocity=0 time=0
EXTRACT: note_on channel=5 note=59 velocity=0 time=0.22169821666666661
EXTRACT: note_on channel=1 note=38 velocity=0 time=0.01886793333333333
EXTRACT: note_on channel=5 note=62 velocity=43 time=0.009433966666666665
EXTRACT: note_on channel=6 note=67 velocity=50 time=0
EXTRACT: note_on channel=9 note=42 velocity=90 time=0
EXTRACT: note_on channel=9 note=27 velocity=90 time=0
EXTRACT: note_on channel=1 note=31 velocity=68 time=0.009433966666666665
EXTRACT: note_on channel=9 note=27 velocity=0 time=0.023584916666666664
EXTRACT: note_on channel=9 note=42 velocity=0 time=0
EXTRACT: note_on channel=9 note=42 velocity=69 time=0.2500001166666666
EXTRACT: note_on channel=9 note=35 velocity=90 time=0
EXTRACT: note_on channel=9 note=75 velocity=61 time=0
EXTRACT: note_on channel=9 note=75 velocity=0 time=0.033018883333333325
EXTRACT: note_on channel=9 note=35 velocity=0 time=0
EXTRACT: note_on channel=9 note=42 velocity=0 time=0
EXTRACT: note_on channel=5 note=62 velocity=0 time=0.22169821666666661
EXTRACT: note_on channel=5 note=55 velocity=47 time=0.028301899999999994
EXTRACT: note_on channel=9 note=54 velocity=77 time=0
EXTRACT: note_on channel=9 note=42 velocity=90 time=0
EXTRACT: note_on channel=9 note=39 velocity=90 time=0
EXTRACT: note_on channel=9 note=27 velocity=90 time=0
EXTRACT: note_on channel=9 note=75 velocity=65 time=0
EXTRACT: note_on channel=9 note=75 velocity=0 time=0.033018883333333325
EXTRACT: note_on channel=9 note=39 velocity=0 time=0
EXTRACT: note_on channel=9 note=54 velocity=0 time=0
EXTRACT: note_on channel=9 note=42 velocity=0 time=0
EXTRACT: note_on channel=9 note=27 velocity=0 time=0
EXTRACT: note_on channel=0 note=43 velocity=0 time=0.1462264833333333
EXTRACT: note_on channel=0 note=74 velocity=0 time=0.09433966666666666
EXTRACT: note_on channel=1 note=31 velocity=0 time=0
EXTRACT: note_on channel=0 note=59 velocity=52 time=0.009433966666666665
EXTRACT: note_on channel=1 note=38 velocity=70 time=0
EXTRACT: note_on channel=9 note=27 velocity=90 time=0
EXTRACT: note_on channel=9 note=75 velocity=65 time=0
EXTRACT: note_on channel=9 note=42 velocity=71 time=0
EXTRACT: note_on channel=0 note=59 velocity=0 time=0.014150949999999997
EXTRACT: note_on channel=0 note=55 velocity=0 time=0
EXTRACT: note_on channel=0 note=62 velocity=0 time=0
EXTRACT: note_on channel=0 note=71 velocity=0 time=0.04245284999999999
EXTRACT: note_on channel=9 note=27 velocity=0 time=0.033018883333333325
EXTRACT: note_on channel=9 note=75 velocity=0 time=0.01886793333333333
EXTRACT: note_on channel=9 note=42 velocity=0 time=0.004716983333333332
EXTRACT: note_on channel=0 note=59 velocity=0 time=0.08018871666666665
EXTRACT: note_on channel=5 note=55 velocity=0 time=0.07075474999999999
EXTRACT: note_on channel=0 note=43 velocity=62 time=0.01886793333333333
EXTRACT: note_on channel=9 note=35 velocity=90 time=0
EXTRACT: note_on channel=9 note=75 velocity=61 time=0
EXTRACT: note_on channel=1 note=38 velocity=0 time=0.004716983333333332
EXTRACT: note_on channel=9 note=42 velocity=90 time=0
EXTRACT: note_on channel=0 note=62 velocity=52 time=0.004716983333333332
EXTRACT: note_on channel=0 note=59 velocity=52 time=0
EXTRACT: note_on channel=0 note=55 velocity=52 time=0
EXTRACT: note_on channel=0 note=71 velocity=70 time=0
EXTRACT: note_on channel=1 note=43 velocity=75 time=0
EXTRACT: note_on channel=5 note=59 velocity=44 time=0
EXTRACT: note_on channel=9 note=35 velocity=0 time=0.023584916666666664
EXTRACT: note_on channel=9 note=42 velocity=0 time=0.004716983333333332
EXTRACT: note_on channel=9 note=75 velocity=0 time=0.04716983333333333
EXTRACT: note_on channel=9 note=42 velocity=73 time=0.19811329999999996
EXTRACT: note_on channel=9 note=42 velocity=0 time=0.033018883333333325
EXTRACT: note_on channel=9 note=42 velocity=55 time=0.10849061666666665
EXTRACT: note_on channel=9 note=42 velocity=0 time=0.01886793333333333
EXTRACT: note_on channel=9 note=75 velocity=71 time=0.12264156666666665
EXTRACT: note_on channel=9 note=42 velocity=90 time=0
EXTRACT: note_on channel=9 note=54 velocity=77 time=0
EXTRACT: note_on channel=9 note=39 velocity=90 time=0
EXTRACT: note_on channel=9 note=27 velocity=90 time=0
EXTRACT: note_on channel=9 note=27 velocity=0 time=0.033018883333333325
EXTRACT: note_on channel=9 note=54 velocity=0 time=0
EXTRACT: note_on channel=9 note=75 velocity=0 time=0
EXTRACT: note_on channel=9 note=42 velocity=0 time=0
EXTRACT: note_on channel=9 note=39 velocity=0 time=0
EXTRACT: note_on channel=1 note=43 velocity=0 time=0.17924536666666663
EXTRACT: note_on channel=9 note=39 velocity=100 time=0.07075474999999999
EXTRACT: note_on channel=9 note=75 velocity=59 time=0
EXTRACT: note_on channel=9 note=42 velocity=67 time=0
EXTRACT: note_on channel=9 note=27 velocity=90 time=0
EXTRACT: note_on channel=1 note=38 velocity=65 time=0.009433966666666665
EXTRACT: note_on channel=9 note=27 velocity=0 time=0.009433966666666665
EXTRACT: note_on channel=9 note=39 velocity=0 time=0
EXTRACT: note_on channel=9 note=75 velocity=0 time=0
EXTRACT: note_on channel=9 note=42 velocity=0 time=0
EXTRACT: note_on channel=9 note=39 velocity=68 time=0.12264156666666665
EXTRACT: note_on channel=9 note=39 velocity=0 time=0.01886793333333333
EXTRACT: note_on channel=1 note=38 velocity=0 time=0.1179245833333333
EXTRACT: note_on channel=9 note=42 velocity=90 time=0.004716983333333332
EXTRACT: note_on channel=9 note=75 velocity=61 time=0
EXTRACT: note_on channel=9 note=27 velocity=90 time=0
EXTRACT: note_on channel=1 note=31 velocity=68 time=0.009433966666666665
EXTRACT: note_on channel=9 note=27 velocity=0 time=0.009433966666666665
EXTRACT: note_on channel=9 note=75 velocity=0 time=0
EXTRACT: note_on channel=9 note=42 velocity=0 time=0
EXTRACT: note_on channel=9 note=39 velocity=68 time=0.12264156666666665
EXTRACT: note_on channel=9 note=39 velocity=0 time=0.01886793333333333
EXTRACT: note_on channel=9 note=42 velocity=90 time=0.12264156666666665
EXTRACT: note_on channel=9 note=35 velocity=90 time=0
EXTRACT: note_on channel=9 note=35 velocity=0 time=0.01886793333333333
EXTRACT: note_on channel=9 note=42 velocity=0 time=0
EXTRACT: note_on channel=9 note=39 velocity=67 time=0.12264156666666665
EXTRACT: note_on channel=9 note=39 velocity=0 time=0.01886793333333333
EXTRACT: note_on channel=9 note=42 velocity=90 time=0.12264156666666665
EXTRACT: note_on channel=9 note=27 velocity=90 time=0
EXTRACT: note_on channel=9 note=54 velocity=77 time=0
EXTRACT: note_on channel=9 note=75 velocity=65 time=0
EXTRACT: note_on channel=9 note=39 velocity=110 time=0
EXTRACT: note_on channel=9 note=39 velocity=0 time=0.01886793333333333
EXTRACT: note_on channel=9 note=54 velocity=0 time=0
EXTRACT: note_on channel=9 note=42 velocity=0 time=0
EXTRACT: note_on channel=9 note=27 velocity=0 time=0
EXTRACT: note_on channel=9 note=75 velocity=0 time=0
EXTRACT: note_on channel=9 note=39 velocity=75 time=0.12264156666666665
EXTRACT: note_on channel=9 note=39 velocity=0 time=0.01886793333333333
EXTRACT: note_on channel=1 note=31 velocity=0 time=0.08962268333333331
EXTRACT: note_on channel=9 note=27 velocity=90 time=0.033018883333333325
EXTRACT: note_on channel=9 note=39 velocity=93 time=0
EXTRACT: note_on channel=9 note=75 velocity=65 time=0
EXTRACT: note_on channel=9 note=42 velocity=90 time=0
EXTRACT: note_on channel=1 note=31 velocity=54 time=0.009433966666666665
EXTRACT: note_on channel=9 note=42 velocity=0 time=0.009433966666666665
EXTRACT: note_on channel=9 note=27 velocity=0 time=0
EXTRACT: note_on channel=9 note=39 velocity=0 time=0
EXTRACT: note_on channel=9 note=75 velocity=0 time=0
EXTRACT: note_on channel=9 note=39 velocity=83 time=0.051886816666666655
EXTRACT: note_on channel=9 note=39 velocity=0 time=0.009433966666666665
EXTRACT: note_on channel=6 note=67 velocity=0 time=0.033018883333333325
EXTRACT: note_on channel=9 note=39 velocity=83 time=0.028301899999999994
EXTRACT: note_on channel=9 note=39 velocity=0 time=0.028301899999999994
EXTRACT: note_on channel=9 note=39 velocity=68 time=0.04245284999999999
EXTRACT: note_on channel=6 note=74 velocity=0 time=0.028301899999999994
EXTRACT: note_on channel=9 note=39 velocity=0 time=0
EXTRACT: note_on channel=5 note=59 velocity=0 time=0.004716983333333332
EXTRACT: note_on channel=6 note=71 velocity=0 time=0.009433966666666665
EXTRACT: note_on channel=0 note=71 velocity=0 time=0.004716983333333332
EXTRACT: note_on channel=0 note=59 velocity=0 time=0
EXTRACT: note_on channel=0 note=43 velocity=0 time=0
EXTRACT: note_on channel=0 note=62 velocity=0 time=0
EXTRACT: note_on channel=0 note=55 velocity=0 time=0
EXTRACT: note_on channel=1 note=31 velocity=0 time=0
EXTRACT: control_change channel=8 control=1 value=65 time=0.023584916666666664
EXTRACT: note_on channel=9 note=42 velocity=75 time=0
EXTRACT: note_on channel=5 note=52 velocity=35 time=0.009433966666666665
EXTRACT: control_change channel=8 control=1 value=66 time=0.004716983333333332
EXTRACT: note_on channel=8 note=69 velocity=100 time=0
EXTRACT: control_change channel=8 control=1 value=68 time=0.009433966666666665
EXTRACT: note_on channel=9 note=42 velocity=0 time=0.009433966666666665
EXTRACT: control_change channel=8 control=1 value=70 time=0.004716983333333332
EXTRACT: control_change channel=8 control=1 value=71 time=0.014150949999999997
EXTRACT: control_change channel=8 control=1 value=72 time=0.004716983333333332
EXTRACT: control_change channel=8 control=1 value=73 time=0.009433966666666665
EXTRACT: control_change channel=8 control=1 value=74 time=0.014150949999999997
EXTRACT: control_change channel=8 control=1 value=75 time=0.014150949999999997
EXTRACT: control_change channel=8 control=1 value=76 time=0.004716983333333332
EXTRACT: control_change channel=8 control=1 value=77 time=0.009433966666666665
EXTRACT: control_change channel=8 control=1 value=78 time=0.014150949999999997
EXTRACT: control_change channel=8 control=1 value=80 time=0.009433966666666665
EXTRACT: control_change channel=8 control=1 value=81 time=0.004716983333333332
EXTRACT: control_change channel=8 control=1 value=82 time=0.009433966666666665
EXTRACT: control_change channel=8 control=1 value=83 time=0.004716983333333332
EXTRACT: control_change channel=8 control=1 value=84 time=0.009433966666666665
EXTRACT: control_change channel=8 control=1 value=85 time=0.004716983333333332
EXTRACT: control_change channel=8 control=1 value=86 time=0.009433966666666665
EXTRACT: control_change channel=8 control=1 value=88 time=0.004716983333333332
EXTRACT: control_change channel=8 control=1 value=89 time=0.014150949999999997
EXTRACT: control_change channel=8 control=1 value=90 time=0.009433966666666665
EXTRACT: control_change channel=8 control=1 value=91 time=0.004716983333333332
EXTRACT: note_on channel=8 note=69 velocity=0 time=0.009433966666666665
EXTRACT: control_change channel=8 control=1 value=92 time=0
EXTRACT: control_change channel=8 control=1 value=93 time=0.014150949999999997
EXTRACT: control_change channel=8 control=1 value=94 time=0.004716983333333332
EXTRACT: control_change channel=8 control=1 value=95 time=0.009433966666666665
EXTRACT: control_change channel=8 control=1 value=96 time=0.004716983333333332
EXTRACT: control_change channel=8 control=1 value=97 time=0.009433966666666665
EXTRACT: control_change channel=8 control=1 value=98 time=0.004716983333333332
EXTRACT: control_change channel=8 control=1 value=99 time=0.014150949999999997
EXTRACT: note_on channel=9 note=42 velocity=60 time=0.004716983333333332
EXTRACT: control_change channel=8 control=1 value=100 time=0.014150949999999997
EXTRACT: note_on channel=8 note=71 velocity=100 time=0
EXTRACT: control_change channel=8 control=1 value=101 time=0.004716983333333332
EXTRACT: note_on channel=9 note=42 velocity=0 time=0.014150949999999997
EXTRACT: control_change channel=8 control=1 value=102 time=0.009433966666666665
EXTRACT: control_change channel=8 control=1 value=103 time=0.01886793333333333
EXTRACT: control_change channel=8 control=1 value=104 time=0.009433966666666665
EXTRACT: control_change channel=8 control=1 value=105 time=0.004716983333333332
EXTRACT: control_change channel=8 control=1 value=106 time=0.014150949999999997
EXTRACT: control_change channel=8 control=1 value=107 time=0.014150949999999997
EXTRACT: control_change channel=8 control=1 value=108 time=0.009433966666666665
EXTRACT: control_change channel=8 control=1 value=109 time=0.004716983333333332
EXTRACT: control_change channel=8 control=1 value=110 time=0.014150949999999997
EXTRACT: control_change channel=8 control=1 value=111 time=0.009433966666666665
EXTRACT: control_change channel=8 control=1 value=112 time=0.014150949999999997
EXTRACT: control_change channel=8 control=1 value=114 time=0.014150949999999997
EXTRACT: control_change channel=8 control=1 value=115 time=0.004716983333333332
EXTRACT: control_change channel=8 control=1 value=116 time=0.014150949999999997
EXTRACT: control_change channel=8 control=1 value=117 time=0.009433966666666665
EXTRACT: note_on channel=8 note=71 velocity=0 time=0.014150949999999997
EXTRACT: note_on channel=9 note=42 velocity=75 time=0.07075474999999999
EXTRACT: note_on channel=8 note=72 velocity=100 time=0.004716983333333332
EXTRACT: note_on channel=9 note=42 velocity=0 time=0.028301899999999994
EXTRACT: note_on channel=8 note=72 velocity=0 time=0.1886793333333333
EXTRACT: note_on channel=9 note=42 velocity=75 time=0.06132078333333332
EXTRACT: note_on channel=5 note=52 velocity=0 time=0.004716983333333332
EXTRACT: note_on channel=8 note=74 velocity=100 time=0
EXTRACT: note_on channel=5 note=57 velocity=35 time=0.004716983333333332
EXTRACT: note_on channel=9 note=42 velocity=0 time=0.023584916666666664
EXTRACT: note_on channel=8 note=74 velocity=0 time=0.1886793333333333
EXTRACT: note_on channel=8 note=76 velocity=100 time=0.06132078333333332
EXTRACT: note_on channel=9 note=42 velocity=75 time=0
EXTRACT: note_on channel=9 note=42 velocity=0 time=0.033018883333333325
EXTRACT: note_on channel=9 note=42 velocity=54 time=0.2500001166666666
EXTRACT: note_on channel=9 note=42 velocity=0 time=0.033018883333333325
EXTRACT: note_on channel=8 note=76 velocity=0 time=0.24056614999999995
EXTRACT: note_on channel=9 note=42 velocity=75 time=0.009433966666666665
EXTRACT: note_on channel=8 note=74 velocity=100 time=0.004716983333333332
EXTRACT: note_on channel=9 note=42 velocity=0 time=0.028301899999999994
EXTRACT: note_on channel=8 note=74 velocity=0 time=0.1745283833333333
EXTRACT: note_on channel=8 note=72 velocity=100 time=0.07075474999999999
EXTRACT: note_on channel=9 note=42 velocity=56 time=0.004716983333333332
EXTRACT: note_on channel=9 note=42 velocity=0 time=0.11320759999999998
EXTRACT: note_on channel=8 note=72 velocity=0 time=0.09433966666666666
EXTRACT: note_on channel=5 note=57 velocity=0 time=0.03773586666666666
EXTRACT: note_on channel=8 note=74 velocity=100 time=0.04245284999999999
EXTRACT: note_on channel=9 note=42 velocity=75 time=0
EXTRACT: note_on channel=5 note=59 velocity=35 time=0.004716983333333332
EXTRACT: note_on channel=9 note=42 velocity=0 time=0.028301899999999994
EXTRACT: note_on channel=8 note=74 velocity=0 time=0.18396234999999997
EXTRACT: note_on channel=9 note=42 velocity=58 time=0.06132078333333332
EXTRACT: note_on channel=8 note=72 velocity=100 time=0.009433966666666665
EXTRACT: note_on channel=9 note=42 velocity=0 time=0.023584916666666664
EXTRACT: note_on channel=9 note=42 velocity=40 time=0.10849061666666665
EXTRACT: note_on channel=8 note=72 velocity=0 time=0.08490569999999999
EXTRACT: note_on channel=9 note=42 velocity=0 time=0
EXTRACT: note_on channel=9 note=42 velocity=75 time=0.05660379999999999
EXTRACT: note_on channel=8 note=71 velocity=100 time=0.004716983333333332
EXTRACT: note_on channel=9 note=42 velocity=0 time=0.028301899999999994
EXTRACT: note_on channel=9 note=42 velocity=52 time=0.2500001166666666
EXTRACT: note_on channel=9 note=42 velocity=0 time=0.033018883333333325
EXTRACT: note_on channel=9 note=42 velocity=75 time=0.2500001166666666
EXTRACT: note_on channel=8 note=71 velocity=0 time=0.014150949999999997
EXTRACT: note_on channel=9 note=42 velocity=0 time=0.01886793333333333
EXTRACT: note_on channel=9 note=42 velocity=75 time=0.2500001166666666
EXTRACT: note_on channel=9 note=42 velocity=0 time=0.033018883333333325
EXTRACT: note_on channel=9 note=42 velocity=75 time=0.2500001166666666
EXTRACT: note_on channel=9 note=42 velocity=0 time=0.033018883333333325
EXTRACT: note_on channel=9 note=42 velocity=75 time=0.2500001166666666
EXTRACT: note_on channel=9 note=42 velocity=0 time=0.11320759999999998
EXTRACT: note_on channel=5 note=59 velocity=0 time=0.10377363333333331
EXTRACT: note_on channel=8 note=74 velocity=100 time=0.06603776666666665
EXTRACT: note_on channel=9 note=42 velocity=75 time=0.004716983333333332
EXTRACT: note_on channel=5 note=57 velocity=34 time=0.004716983333333332
EXTRACT: note_on channel=5 note=62 velocity=37 time=0
EXTRACT: note_on channel=9 note=42 velocity=0 time=0.028301899999999994
EXTRACT: note_on channel=8 note=74 velocity=0 time=0.19811329999999996
EXTRACT: note_on channel=9 note=42 velocity=58 time=0.04716983333333333
EXTRACT: note_on channel=8 note=74 velocity=100 time=0.009433966666666665
EXTRACT: note_on channel=9 note=42 velocity=0 time=0.023584916666666664
EXTRACT: note_on channel=8 note=74 velocity=0 time=0.20754726666666662
EXTRACT: note_on channel=9 note=42 velocity=75 time=0.04245284999999999
EXTRACT: note_on channel=8 note=74 velocity=100 time=0.014150949999999997
EXTRACT: note_on channel=9 note=42 velocity=0 time=0.01886793333333333
EXTRACT: note_on channel=8 note=74 velocity=0 time=0.21226424999999996
EXTRACT: note_on channel=9 note=42 velocity=52 time=0.03773586666666666
EXTRACT: note_on channel=8 note=74 velocity=100 time=0.01886793333333333
EXTRACT: note_on channel=9 note=42 velocity=0 time=0.014150949999999997
EXTRACT: note_on channel=8 note=74 velocity=0 time=0.19339631666666662
EXTRACT: note_on channel=5 note=62 velocity=0 time=0.033018883333333325
EXTRACT: note_on channel=5 note=57 velocity=0 time=0
EXTRACT: note_on channel=8 note=76 velocity=100 time=0.023584916666666664
EXTRACT: note_on channel=9 note=42 velocity=75 time=0
EXTRACT: note_on channel=5 note=57 velocity=35 time=0.009433966666666665
EXTRACT: note_on channel=9 note=42 velocity=0 time=0.023584916666666664
EXTRACT: note_on channel=9 note=42 velocity=75 time=0.2500001166666666
EXTRACT: note_on channel=9 note=42 velocity=0 time=0.033018883333333325
EXTRACT: note_on channel=9 note=42 velocity=75 time=0.2500001166666666
EXTRACT: note_on channel=8 note=76 velocity=0 time=0.014150949999999997
EXTRACT: note_on channel=8 note=72 velocity=100 time=0
EXTRACT: note_on channel=9 note=42 velocity=0 time=0.01886793333333333
EXTRACT: note_on channel=8 note=72 velocity=0 time=0.22169821666666661
EXTRACT: note_on channel=9 note=42 velocity=75 time=0.028301899999999994
EXTRACT: note_on channel=8 note=71 velocity=100 time=0.004716983333333332
EXTRACT: note_on channel=9 note=42 velocity=0 time=0.10849061666666665
EXTRACT: note_on channel=5 note=57 velocity=0 time=0.08018871666666665
EXTRACT: note_on channel=8 note=71 velocity=0 time=0.04716983333333333
EXTRACT: note_on channel=9 note=42 velocity=75 time=0.04716983333333333
EXTRACT: note_on channel=8 note=72 velocity=100 time=0.009433966666666665
EXTRACT: note_on channel=9 note=42 velocity=0 time=0.023584916666666664
EXTRACT: note_on channel=8 note=72 velocity=0 time=0.2169812333333333
EXTRACT: note_on channel=8 note=71 velocity=100 time=0.03773586666666666
EXTRACT: note_on channel=8 note=69 velocity=100 time=0.2735850333333333
EXTRACT: note_on channel=5 note=57 velocity=35 time=0.009433966666666665
EXTRACT: note_on channel=8 note=71 velocity=0 time=0
EXTRACT: note_on channel=8 note=69 velocity=0 time=0.5566040333333332
EXTRACT: note_on channel=7 note=57 velocity=100 time=0.8490569999999998
EXTRACT: note_on channel=8 note=57 velocity=100 time=0.004716983333333332
EXTRACT: note_on channel=5 note=57 velocity=0 time=0.2547171
EXTRACT: note_on channel=7 note=57 velocity=0 time=0.01886793333333333
EXTRACT: note_on channel=7 note=57 velocity=100 time=0
EXTRACT: note_on channel=8 note=57 velocity=0 time=0
EXTRACT: note_on channel=9 note=35 velocity=90 time=0
EXTRACT: note_on channel=9 note=75 velocity=61 time=0
EXTRACT: note_on channel=1 note=33 velocity=75 time=0
EXTRACT: note_on channel=9 note=49 velocity=90 time=0
EXTRACT: note_on channel=0 note=64 velocity=47 time=0.004716983333333332
EXTRACT: note_on channel=0 note=45 velocity=47 time=0
EXTRACT: note_on channel=5 note=52 velocity=44 time=0
EXTRACT: note_on channel=5 note=57 velocity=47 time=0
EXTRACT: note_on channel=8 note=57 velocity=100 time=0
EXTRACT: note_on channel=0 note=64 velocity=45 time=0.004716983333333332
EXTRACT: note_on channel=0 note=60 velocity=45 time=0
EXTRACT: note_on channel=0 note=57 velocity=45 time=0
EXTRACT: note_on channel=6 note=69 velocity=52 time=0
EXTRACT: note_on channel=9 note=35 velocity=0 time=0.01886793333333333
EXTRACT: note_on channel=9 note=49 velocity=0 time=0.004716983333333332
EXTRACT: note_on channel=9 note=75 velocity=0 time=0.04716983333333333
EXTRACT: note_on channel=7 note=59 velocity=100 time=0.1886793333333333
EXTRACT: note_on channel=7 note=57 velocity=0 time=0.004716983333333332
EXTRACT: note_on channel=8 note=59 velocity=100 time=0.004716983333333332
EXTRACT: note_on channel=9 note=42 velocity=73 time=0
EXTRACT: note_on channel=8 note=57 velocity=0 time=0.004716983333333332
EXTRACT: note_on channel=9 note=42 velocity=0 time=0.028301899999999994
EXTRACT: note_on channel=9 note=42 velocity=55 time=0.10849061666666665
EXTRACT: note_on channel=9 note=42 velocity=0 time=0.01886793333333333
EXTRACT: note_on channel=7 note=59 velocity=0 time=0.10849061666666665
EXTRACT: note_on channel=8 note=59 velocity=0 time=0.009433966666666665
EXTRACT: note_on channel=6 note=64 velocity=46 time=0.004716983333333332
EXTRACT: note_on channel=9 note=27 velocity=90 time=0
EXTRACT: note_on channel=9 note=39 velocity=90 time=0
EXTRACT: note_on channel=9 note=42 velocity=90 time=0
EXTRACT: note_on channel=9 note=75 velocity=71 time=0
EXTRACT: note_on channel=9 note=54 velocity=77 time=0
EXTRACT: note_on channel=7 note=60 velocity=100 time=0.009433966666666665
EXTRACT: note_on channel=8 note=60 velocity=100 time=0.009433966666666665
EXTRACT: note_on channel=9 note=54 velocity=0 time=0.014150949999999997
EXTRACT: note_on channel=9 note=42 velocity=0 time=0
EXTRACT: note_on channel=9 note=27 velocity=0 time=0
EXTRACT: note_on channel=9 note=39 velocity=0 time=0
EXTRACT: note_on channel=9 note=75 velocity=0 time=0
EXTRACT: note_on channel=1 note=33 velocity=0 time=0.1603774333333333
EXTRACT: note_on channel=9 note=27 velocity=90 time=0.08962268333333331
EXTRACT: note_on channel=9 note=42 velocity=67 time=0
EXTRACT: note_on channel=9 note=35 velocity=90 time=0
EXTRACT: note_on channel=9 note=75 velocity=59 time=0
EXTRACT: note_on channel=1 note=33 velocity=75 time=0.004716983333333332
EXTRACT: note_on channel=7 note=60 velocity=0 time=0
EXTRACT: note_on channel=7 note=62 velocity=100 time=0
EXTRACT: note_on channel=0 note=69 velocity=58 time=0.004716983333333332
EXTRACT: note_on channel=8 note=60 velocity=0 time=0.004716983333333332
EXTRACT: note_on channel=8 note=62 velocity=100 time=0
EXTRACT: note_on channel=9 note=75 velocity=0 time=0.01886793333333333
EXTRACT: note_on channel=9 note=27 velocity=0 time=0
EXTRACT: note_on channel=9 note=42 velocity=0 time=0
EXTRACT: note_on channel=9 note=35 velocity=0 time=0
EXTRACT: note_on channel=1 note=33 velocity=0 time=0.22169821666666661
EXTRACT: note_on channel=1 note=33 velocity=71 time=0.028301899999999994
EXTRACT: note_on channel=6 note=60 velocity=50 time=0
EXTRACT: note_on channel=7 note=62 velocity=0 time=0
EXTRACT: note_on channel=9 note=75 velocity=61 time=0
EXTRACT: note_on channel=9 note=42 velocity=90 time=0
EXTRACT: note_on channel=9 note=27 velocity=90 time=0
EXTRACT: note_on channel=7 note=64 velocity=100 time=0.009433966666666665
EXTRACT: note_on channel=8 note=62 velocity=0 time=0
EXTRACT: note_on channel=8 note=64 velocity=100 time=0.009433966666666665
EXTRACT: note_on channel=9 note=27 velocity=0 time=0.014150949999999997
EXTRACT: note_on channel=9 note=42 velocity=0 time=0
EXTRACT: note_on channel=9 note=75 velocity=0 time=0
EXTRACT: note_on channel=1 note=33 velocity=0 time=0.2500001166666666
EXTRACT: note_on channel=9 note=42 velocity=90 time=0
EXTRACT: note_on channel=9 note=35 velocity=90 time=0
EXTRACT: note_on channel=1 note=33 velocity=81 time=0.004716983333333332
EXTRACT: note_on channel=9 note=35 velocity=0 time=0.028301899999999994
EXTRACT: note_on channel=9 note=42 velocity=0 time=0
EXTRACT: note_on channel=7 note=64 velocity=0 time=0.2169812333333333
EXTRACT: note_on channel=8 note=64 velocity=0 time=0.009433966666666665
EXTRACT: note_on channel=7 note=62 velocity=100 time=0.023584916666666664
EXTRACT: note_on channel=9 note=42 velocity=90 time=0
EXTRACT: note_on channel=9 note=39 velocity=90 time=0
EXTRACT: note_on channel=9 note=75 velocity=65 time=0
EXTRACT: note_on channel=9 note=54 velocity=77 time=0
EXTRACT: note_on channel=9 note=27 velocity=90 time=0
EXTRACT: note_on channel=8 note=62 velocity=100 time=0.009433966666666665
EXTRACT: note_on channel=9 note=27 velocity=0 time=0.023584916666666664
EXTRACT: note_on channel=9 note=75 velocity=0 time=0
EXTRACT: note_on channel=9 note=42 velocity=0 time=0
EXTRACT: note_on channel=9 note=39 velocity=0 time=0
EXTRACT: note_on channel=9 note=54 velocity=0 time=0
EXTRACT: note_on channel=1 note=33 velocity=0 time=0.12735855
EXTRACT: note_on channel=0 note=45 velocity=0 time=0.01886793333333333
EXTRACT: note_on channel=7 note=60 velocity=100 time=0.08490569999999999
EXTRACT: note_on channel=0 note=69 velocity=0 time=0.009433966666666665
EXTRACT: note_on channel=8 note=60 velocity=100 time=0
EXTRACT: note_on channel=7 note=62 velocity=0 time=0.004716983333333332
EXTRACT: note_on channel=0 note=45 velocity=52 time=0.004716983333333332
EXTRACT: note_on channel=1 note=33 velocity=75 time=0
EXTRACT: note_on channel=9 note=42 velocity=90 time=0
EXTRACT: note_on channel=9 note=27 velocity=90 time=0
EXTRACT: note_on channel=9 note=75 velocity=65 time=0
EXTRACT: note_on channel=8 note=62 velocity=0 time=0.004716983333333332
EXTRACT: note_on channel=0 note=60 velocity=0 time=0.009433966666666665
EXTRACT: note_on channel=0 note=57 velocity=0 time=0
EXTRACT: note_on channel=0 note=64 velocity=0 time=0
EXTRACT: note_on channel=0 note=64 velocity=0 time=0.04245284999999999
EXTRACT: note_on channel=9 note=27 velocity=0 time=0.033018883333333325
EXTRACT: note_on channel=9 note=75 velocity=0 time=0.01886793333333333
EXTRACT: note_on channel=9 note=42 velocity=0 time=0.004716983333333332
EXTRACT: note_on channel=5 note=57 velocity=0 time=0.05660379999999999
EXTRACT: note_on channel=5 note=52 velocity=0 time=0
EXTRACT: note_on channel=0 note=45 velocity=0 time=0.023584916666666664
EXTRACT: note_on channel=1 note=33 velocity=0 time=0.06603776666666665
EXTRACT: note_on channel=6 note=60 velocity=0 time=0
EXTRACT: note_on channel=6 note=64 velocity=0 time=0
EXTRACT: note_on channel=6 note=69 velocity=0 time=0
EXTRACT: note_on channel=7 note=60 velocity=0 time=0
EXTRACT: note_on channel=8 note=60 velocity=0 time=0.009433966666666665
EXTRACT: note_on channel=7 note=62 velocity=100 time=0.014150949999999997
EXTRACT: note_on channel=9 note=35 velocity=90 time=0
EXTRACT: note_on channel=9 note=75 velocity=61 time=0
EXTRACT: note_on channel=6 note=67 velocity=52 time=0.004716983333333332
EXTRACT: note_on channel=9 note=42 velocity=90 time=0
EXTRACT: note_on channel=0 note=71 velocity=47 time=0.004716983333333332
EXTRACT: note_on channel=0 note=40 velocity=47 time=0
EXTRACT: note_on channel=1 note=28 velocity=79 time=0
EXTRACT: note_on channel=5 note=59 velocity=45 time=0
EXTRACT: note_on channel=8 note=62 velocity=100 time=0
EXTRACT: note_on channel=0 note=64 velocity=45 time=0.004716983333333332
EXTRACT: note_on channel=0 note=59 velocity=45 time=0
EXTRACT: note_on channel=0 note=55 velocity=45 time=0
EXTRACT: note_on channel=6 note=71 velocity=52 time=0
EXTRACT: note_on channel=6 note=64 velocity=50 time=0
EXTRACT: note_on channel=9 note=35 velocity=0 time=0.01886793333333333
EXTRACT: note_on channel=9 note=42 velocity=0 time=0.004716983333333332
EXTRACT: note_on channel=9 note=75 velocity=0 time=0.04716983333333333
EXTRACT: note_on channel=7 note=62 velocity=0 time=0.19339631666666662
EXTRACT: note_on channel=9 note=42 velocity=73 time=0.004716983333333332
EXTRACT: note_on channel=8 note=62 velocity=0 time=0.004716983333333332
EXTRACT: note_on channel=7 note=60 velocity=100 time=0.004716983333333332
EXTRACT: note_on channel=8 note=60 velocity=100 time=0.009433966666666665
EXTRACT: note_on channel=9 note=42 velocity=0 time=0.014150949999999997
EXTRACT: note_on channel=9 note=42 velocity=55 time=0.10849061666666665
EXTRACT: note_on channel=9 note=42 velocity=0 time=0.01886793333333333
EXTRACT: note_on channel=9 note=39 velocity=90 time=0.12264156666666665
EXTRACT: note_on channel=9 note=75 velocity=71 time=0
EXTRACT: note_on channel=9 note=54 velocity=77 time=0
EXTRACT: note_on channel=9 note=27 velocity=90 time=0
EXTRACT: note_on channel=9 note=42 velocity=90 time=0
EXTRACT: note_on channel=7 note=60 velocity=0 time=0.004716983333333332
EXTRACT: note_on channel=7 note=59 velocity=100 time=0.004716983333333332
EXTRACT: note_on channel=8 note=60 velocity=0 time=0.004716983333333332
EXTRACT: note_on channel=8 note=59 velocity=100 time=0.004716983333333332
EXTRACT: note_on channel=9 note=42 velocity=0 time=0.014150949999999997
EXTRACT: note_on channel=9 note=54 velocity=0 time=0
EXTRACT: note_on channel=9 note=39 velocity=0 time=0
EXTRACT: note_on channel=9 note=75 velocity=0 time=0
EXTRACT: note_on channel=9 note=27 velocity=0 time=0
EXTRACT: note_on channel=1 note=28 velocity=0 time=0.22169821666666661
EXTRACT: note_on channel=5 note=59 velocity=0 time=0.004716983333333332
EXTRACT: note_on channel=9 note=75 velocity=59 time=0.023584916666666664
EXTRACT: note_on channel=9 note=27 velocity=90 time=0
EXTRACT: note_on channel=9 note=42 velocity=67 time=0
EXTRACT: note_on channel=9 note=35 velocity=90 time=0
EXTRACT: note_on channel=0 note=67 velocity=58 time=0.009433966666666665
EXTRACT: note_on channel=1 note=35 velocity=54 time=0
EXTRACT: note_on channel=5 note=55 velocity=45 time=0
EXTRACT: note_on channel=9 note=35 velocity=0 time=0.023584916666666664
EXTRACT: note_on channel=9 note=75 velocity=0 time=0
EXTRACT: note_on channel=9 note=27 velocity=0 time=0
EXTRACT: note_on channel=9 note=42 velocity=0 time=0
EXTRACT: note_on channel=7 note=59 velocity=0 time=0.2169812333333333
EXTRACT: note_on channel=8 note=59 velocity=0 time=0.009433966666666665
EXTRACT: note_on channel=1 note=35 velocity=0 time=0.014150949999999997
EXTRACT: note_on channel=9 note=42 velocity=90 time=0.009433966666666665
EXTRACT: note_on channel=9 note=27 velocity=90 time=0
EXTRACT: note_on channel=9 note=75 velocity=61 time=0
EXTRACT: note_on channel=1 note=40 velocity=68 time=0.009433966666666665
EXTRACT: note_on channel=9 note=75 velocity=0 time=0.023584916666666664
EXTRACT: note_on channel=9 note=27 velocity=0 time=0
EXTRACT: note_on channel=9 note=42 velocity=0 time=0
EXTRACT: note_on channel=9 note=42 velocity=90 time=0.2500001166666666
EXTRACT: note_on channel=9 note=35 velocity=90 time=0
EXTRACT: note_on channel=9 note=35 velocity=0 time=0.033018883333333325
EXTRACT: note_on channel=9 note=42 velocity=0 time=0
EXTRACT: note_on channel=9 note=27 velocity=90 time=0.2500001166666666
EXTRACT: note_on channel=9 note=54 velocity=77 time=0
EXTRACT: note_on channel=9 note=75 velocity=65 time=0
EXTRACT: note_on channel=9 note=39 velocity=90 time=0
EXTRACT: note_on channel=9 note=42 velocity=90 time=0
EXTRACT: note_on channel=9 note=39 velocity=0 time=0.033018883333333325
EXTRACT: note_on channel=9 note=54 velocity=0 time=0
EXTRACT: note_on channel=9 note=27 velocity=0 time=0.06603776666666665
EXTRACT: note_on channel=9 note=75 velocity=0 time=0.009433966666666665
EXTRACT: note_on channel=9 note=42 velocity=0 time=0
EXTRACT: note_on channel=0 note=40 velocity=0 time=0.06603776666666665
EXTRACT: note_on channel=1 note=40 velocity=0 time=0.06603776666666665
EXTRACT: note_on channel=0 note=55 velocity=0 time=0.023584916666666664
EXTRACT: note_on channel=0 note=59 velocity=0 time=0
EXTRACT: note_on channel=0 note=64 velocity=0 time=0
EXTRACT: note_on channel=0 note=67 velocity=0 time=0.009433966666666665
EXTRACT: note_on channel=0 note=40 velocity=52 time=0.009433966666666665
EXTRACT: note_on channel=1 note=28 velocity=68 time=0
EXTRACT: note_on channel=9 note=42 velocity=90 time=0
EXTRACT: note_on channel=9 note=27 velocity=90 time=0
EXTRACT: note_on channel=9 note=75 velocity=65 time=0
EXTRACT: note_on channel=9 note=39 velocity=83 time=0
EXTRACT: note_on channel=9 note=27 velocity=0 time=0.08962268333333331
EXTRACT: note_on channel=9 note=75 velocity=0 time=0.01886793333333333
EXTRACT: note_on channel=9 note=42 velocity=0 time=0.004716983333333332
EXTRACT: note_on channel=9 note=39 velocity=0 time=0.023584916666666664
EXTRACT: note_on channel=0 note=71 velocity=0 time=0.023584916666666664
EXTRACT: note_on channel=0 note=40 velocity=0 time=0.09905664999999998
EXTRACT: note_on channel=1 note=28 velocity=0 time=0
EXTRACT: note_on channel=6 note=64 velocity=0 time=0
EXTRACT: note_on channel=6 note=71 velocity=0 time=0
EXTRACT: note_on channel=6 note=67 velocity=0 time=0
EXTRACT: note_on channel=5 note=55 velocity=0 time=0.004716983333333332
EXTRACT: note_on channel=7 note=62 velocity=100 time=0.014150949999999997
EXTRACT: note_on channel=9 note=35 velocity=90 time=0.004716983333333332
EXTRACT: note_on channel=9 note=42 velocity=90 time=0
EXTRACT: note_on channel=1 note=38 velocity=75 time=0.004716983333333332
EXTRACT: note_on channel=6 note=69 velocity=52 time=0
EXTRACT: note_on channel=8 note=62 velocity=100 time=0
EXTRACT: note_on channel=9 note=75 velocity=61 time=0
EXTRACT: note_on channel=0 note=69 velocity=47 time=0.004716983333333332
EXTRACT: note_on channel=0 note=50 velocity=47 time=0
EXTRACT: note_on channel=5 note=62 velocity=45 time=0
EXTRACT: note_on channel=0 note=66 velocity=45 time=0.004716983333333332
EXTRACT: note_on channel=0 note=62 velocity=45 time=0
EXTRACT: note_on channel=0 note=57 velocity=45 time=0
EXTRACT: note_on channel=6 note=74 velocity=52 time=0
EXTRACT: note_on channel=6 note=66 velocity=50 time=0
EXTRACT: note_on channel=9 note=42 velocity=0 time=0.01886793333333333
EXTRACT: note_on channel=9 note=35 velocity=0 time=0
EXTRACT: note_on channel=9 note=75 velocity=0 time=0.004716983333333332
EXTRACT: note_on channel=7 note=62 velocity=0 time=0.2358491666666666
EXTRACT: note_on channel=7 note=62 velocity=100 time=0
EXTRACT: note_on channel=8 note=62 velocity=0 time=0.009433966666666665
EXTRACT: note_on channel=8 note=62 velocity=100 time=0
EXTRACT: note_on channel=9 note=42 velocity=75 time=0
EXTRACT: note_on channel=9 note=42 velocity=0 time=0.033018883333333325
EXTRACT: note_on channel=7 note=62 velocity=0 time=0.2358491666666666
EXTRACT: note_on channel=8 note=62 velocity=0 time=0.009433966666666665
EXTRACT: note_on channel=9 note=42 velocity=90 time=0.004716983333333332
EXTRACT: note_on channel=9 note=75 velocity=71 time=0
EXTRACT: note_on channel=9 note=27 velocity=90 time=0
EXTRACT: note_on channel=9 note=54 velocity=77 time=0
EXTRACT: note_on channel=9 note=39 velocity=90 time=0
EXTRACT: note_on channel=7 note=62 velocity=100 time=0.004716983333333332
EXTRACT: note_on channel=8 note=62 velocity=100 time=0.009433966666666665
EXTRACT: note_on channel=9 note=39 velocity=0 time=0.01886793333333333
EXTRACT: note_on channel=9 note=27 velocity=0 time=0
EXTRACT: note_on channel=9 note=42 velocity=0 time=0
EXTRACT: note_on channel=9 note=75 velocity=0 time=0
EXTRACT: note_on channel=9 note=54 velocity=0 time=0
EXTRACT: note_on channel=1 note=38 velocity=0 time=0.16509441666666663
EXTRACT: note_on channel=5 note=62 velocity=0 time=0.06132078333333332
EXTRACT: note_on channel=7 note=62 velocity=0 time=0.023584916666666664
EXTRACT: note_on channel=7 note=62 velocity=100 time=0
EXTRACT: note_on channel=9 note=75 velocity=59 time=0
EXTRACT: note_on channel=9 note=35 velocity=90 time=0
EXTRACT: note_on channel=9 note=27 velocity=90 time=0
EXTRACT: note_on channel=9 note=42 velocity=90 time=0
EXTRACT: note_on channel=1 note=38 velocity=75 time=0.004716983333333332
EXTRACT: note_on channel=5 note=57 velocity=45 time=0.004716983333333332
EXTRACT: note_on channel=8 note=62 velocity=0 time=0
EXTRACT: note_on channel=8 note=62 velocity=100 time=0
EXTRACT: note_on channel=9 note=42 velocity=0 time=0.023584916666666664
EXTRACT: note_on channel=9 note=75 velocity=0 time=0
EXTRACT: note_on channel=9 note=35 velocity=0 time=0
EXTRACT: note_on channel=9 note=27 velocity=0 time=0
EXTRACT: note_on channel=7 note=62 velocity=0 time=0.2452831333333333
EXTRACT: note_on channel=7 note=64 velocity=100 time=0
EXTRACT: note_on channel=9 note=42 velocity=90 time=0.004716983333333332
EXTRACT: note_on channel=9 note=27 velocity=90 time=0
EXTRACT: note_on channel=8 note=62 velocity=0 time=0.004716983333333332
EXTRACT: note_on channel=8 note=64 velocity=100 time=0
EXTRACT: note_on channel=9 note=27 velocity=0 time=0.028301899999999994
EXTRACT: note_on channel=9 note=42 velocity=0 time=0
EXTRACT: note_on channel=9 note=42 velocity=69 time=0.2500001166666666
EXTRACT: note_on channel=9 note=35 velocity=90 time=0
EXTRACT: note_on channel=9 note=75 velocity=61 time=0
EXTRACT: note_on channel=9 note=75 velocity=0 time=0.033018883333333325
EXTRACT: note_on channel=9 note=35 velocity=0 time=0
EXTRACT: note_on channel=9 note=42 velocity=0 time=0
EXTRACT: note_on channel=7 note=64 velocity=0 time=0.2028302833333333
EXTRACT: note_on channel=8 note=64 velocity=0 time=0.009433966666666665
EXTRACT: note_on channel=7 note=60 velocity=100 time=0.028301899999999994
EXTRACT: note_on channel=8 note=60 velocity=100 time=0.009433966666666665
EXTRACT: note_on channel=9 note=39 velocity=90 time=0
EXTRACT: note_on channel=9 note=54 velocity=77 time=0
EXTRACT: note_on channel=9 note=42 velocity=90 time=0
EXTRACT: note_on channel=9 note=27 velocity=90 time=0
EXTRACT: note_on channel=9 note=75 velocity=65 time=0
EXTRACT: note_on channel=9 note=75 velocity=0 time=0.033018883333333325
EXTRACT: note_on channel=9 note=42 velocity=0 time=0
EXTRACT: note_on channel=9 note=39 velocity=0 time=0
EXTRACT: note_on channel=9 note=54 velocity=0 time=0
EXTRACT: note_on channel=9 note=27 velocity=0 time=0
EXTRACT: note_on channel=1 note=38 velocity=0 time=0.15094346666666664
EXTRACT: note_on channel=7 note=60 velocity=0 time=0.08490569999999999
EXTRACT: note_on channel=8 note=60 velocity=0 time=0.009433966666666665
EXTRACT: note_on channel=1 note=38 velocity=60 time=0.004716983333333332
EXTRACT: note_on channel=7 note=59 velocity=100 time=0
EXTRACT: note_on channel=9 note=42 velocity=71 time=0
EXTRACT: note_on channel=9 note=27 velocity=90 time=0
EXTRACT: note_on channel=9 note=75 velocity=65 time=0
EXTRACT: note_on channel=8 note=59 velocity=100 time=0.009433966666666665
EXTRACT: note_on channel=9 note=27 velocity=0 time=0.08018871666666665
EXTRACT: note_on channel=9 note=75 velocity=0 time=0.01886793333333333
EXTRACT: note_on channel=9 note=42 velocity=0 time=0.004716983333333332
EXTRACT: note_on channel=0 note=57 velocity=0 time=0.1462264833333333
EXTRACT: note_on channel=0 note=66 velocity=0 time=0
EXTRACT: note_on channel=0 note=69 velocity=0 time=0
EXTRACT: note_on channel=0 note=50 velocity=0 time=0
EXTRACT: note_on channel=0 note=62 velocity=0 time=0
EXTRACT: note_on channel=1 note=38 velocity=0 time=0
EXTRACT: note_on channel=6 note=66 velocity=0 time=0
EXTRACT: note_on channel=6 note=74 velocity=0 time=0
EXTRACT: note_on channel=6 note=69 velocity=0 time=0
EXTRACT: note_on channel=5 note=57 velocity=0 time=0.004716983333333332
EXTRACT: note_on channel=7 note=59 velocity=0 time=0.014150949999999997
EXTRACT: note_on channel=7 note=60 velocity=100 time=0
EXTRACT: note_on channel=9 note=35 velocity=90 time=0.004716983333333332
EXTRACT: note_on channel=9 note=75 velocity=61 time=0
EXTRACT: note_on channel=1 note=33 velocity=75 time=0.004716983333333332
EXTRACT: note_on channel=6 note=64 velocity=52 time=0
EXTRACT: note_on channel=8 note=59 velocity=0 time=0
EXTRACT: note_on channel=8 note=60 velocity=100 time=0
EXTRACT: note_on channel=9 note=42 velocity=90 time=0
EXTRACT: note_on channel=0 note=64 velocity=47 time=0.004716983333333332
EXTRACT: note_on channel=0 note=45 velocity=47 time=0
EXTRACT: note_on channel=5 note=57 velocity=45 time=0
EXTRACT: note_on channel=0 note=64 velocity=45 time=0.004716983333333332
EXTRACT: note_on channel=0 note=60 velocity=45 time=0
EXTRACT: note_on channel=0 note=57 velocity=45 time=0
EXTRACT: note_on channel=6 note=60 velocity=50 time=0
EXTRACT: note_on channel=9 note=35 velocity=0 time=0.01886793333333333
EXTRACT: note_on channel=9 note=42 velocity=0 time=0.004716983333333332
EXTRACT: note_on channel=9 note=75 velocity=0 time=0.04716983333333333
EXTRACT: note_on channel=7 note=60 velocity=0 time=0.1886793333333333
EXTRACT: note_on channel=7 note=59 velocity=100 time=0
EXTRACT: note_on channel=8 note=60 velocity=0 time=0.009433966666666665
EXTRACT: note_on channel=8 note=59 velocity=100 time=0
EXTRACT: note_on channel=9 note=42 velocity=73 time=0
EXTRACT: note_on channel=9 note=42 velocity=0 time=0.033018883333333325
EXTRACT: note_on channel=7 note=59 velocity=0 time=0.2358491666666666
EXTRACT: note_on channel=7 note=57 velocity=100 time=0.009433966666666665
EXTRACT: note_on channel=8 note=59 velocity=0 time=0
EXTRACT: note_on channel=6 note=69 velocity=52 time=0.004716983333333332
EXTRACT: note_on channel=9 note=27 velocity=90 time=0
EXTRACT: note_on channel=9 note=75 velocity=71 time=0
EXTRACT: note_on channel=9 note=42 velocity=90 time=0
EXTRACT: note_on channel=9 note=39 velocity=90 time=0
EXTRACT: note_on channel=9 note=54 velocity=77 time=0
EXTRACT: note_on channel=8 note=57 velocity=100 time=0.004716983333333332
EXTRACT: note_on channel=9 note=54 velocity=0 time=0.028301899999999994
EXTRACT: note_on channel=9 note=42 velocity=0 time=0
EXTRACT: note_on channel=9 note=27 velocity=0 time=0
EXTRACT: note_on channel=9 note=75 velocity=0 time=0
EXTRACT: note_on channel=9 note=39 velocity=0 time=0
EXTRACT: note_on channel=1 note=33 velocity=0 time=0.1603774333333333
EXTRACT: note_on channel=9 note=27 velocity=90 time=0.08962268333333331
EXTRACT: note_on channel=9 note=42 velocity=67 time=0
EXTRACT: note_on channel=9 note=35 velocity=90 time=0
EXTRACT: note_on channel=9 note=75 velocity=59 time=0
EXTRACT: note_on channel=1 note=33 velocity=75 time=0.004716983333333332
EXTRACT: note_on channel=7 note=57 velocity=0 time=0
EXTRACT: note_on channel=7 note=57 velocity=100 time=0.009433966666666665
EXTRACT: note_on channel=8 note=57 velocity=0 time=0
EXTRACT: note_on channel=8 note=57 velocity=100 time=0.009433966666666665
EXTRACT: note_on channel=9 note=75 velocity=0 time=0.009433966666666665
EXTRACT: note_on channel=9 note=27 velocity=0 time=0
EXTRACT: note_on channel=9 note=42 velocity=0 time=0
EXTRACT: note_on channel=9 note=35 velocity=0 time=0
EXTRACT: note_on channel=6 note=64 velocity=0 time=0.18396234999999997
EXTRACT: note_on channel=1 note=33 velocity=0 time=0.03773586666666666
EXTRACT: note_on channel=7 note=57 velocity=0 time=0.01886793333333333
EXTRACT: note_on channel=7 note=60 velocity=100 time=0
EXTRACT: note_on channel=1 note=33 velocity=71 time=0.009433966666666665
EXTRACT: note_on channel=6 note=64 velocity=46 time=0
EXTRACT: note_on channel=8 note=57 velocity=0 time=0
EXTRACT: note_on channel=8 note=60 velocity=100 time=0
EXTRACT: note_on channel=9 note=27 velocity=90 time=0
EXTRACT: note_on channel=9 note=42 velocity=90 time=0
EXTRACT: note_on channel=9 note=75 velocity=61 time=0
EXTRACT: note_on channel=9 note=75 velocity=0 time=0.033018883333333325
EXTRACT: note_on channel=9 note=42 velocity=0 time=0
EXTRACT: note_on channel=9 note=27 velocity=0 time=0
EXTRACT: note_on channel=7 note=59 velocity=100 time=0.2452831333333333
EXTRACT: note_on channel=1 note=33 velocity=0 time=0.004716983333333332
EXTRACT: note_on channel=7 note=60 velocity=0 time=0
EXTRACT: note_on channel=9 note=35 velocity=90 time=0
EXTRACT: note_on channel=9 note=42 velocity=90 time=0
EXTRACT: note_on channel=1 note=33 velocity=81 time=0.004716983333333332
EXTRACT: note_on channel=8 note=59 velocity=100 time=0
EXTRACT: note_on channel=8 note=60 velocity=0 time=0.004716983333333332
EXTRACT: note_on channel=9 note=42 velocity=0 time=0.023584916666666664
EXTRACT: note_on channel=9 note=35 velocity=0 time=0
EXTRACT: note_on channel=7 note=57 velocity=100 time=0.2500001166666666
EXTRACT: note_on channel=9 note=54 velocity=77 time=0
EXTRACT: note_on channel=9 note=75 velocity=65 time=0
EXTRACT: note_on channel=9 note=39 velocity=90 time=0
EXTRACT: note_on channel=9 note=27 velocity=90 time=0
EXTRACT: note_on channel=9 note=42 velocity=90 time=0
EXTRACT: note_on channel=7 note=59 velocity=0 time=0.004716983333333332
EXTRACT: note_on channel=8 note=57 velocity=100 time=0.004716983333333332
EXTRACT: note_on channel=8 note=59 velocity=0 time=0.004716983333333332
EXTRACT: note_on channel=9 note=42 velocity=0 time=0.01886793333333333
EXTRACT: note_on channel=9 note=39 velocity=0 time=0
EXTRACT: note_on channel=9 note=54 velocity=0 time=0
EXTRACT: note_on channel=9 note=75 velocity=0 time=0
EXTRACT: note_on channel=9 note=27 velocity=0 time=0
EXTRACT: note_on channel=1 note=33 velocity=0 time=0.12735855
EXTRACT: note_on channel=1 note=33 velocity=75 time=0.12264156666666665
EXTRACT: note_on channel=9 note=75 velocity=65 time=0
EXTRACT: note_on channel=9 note=27 velocity=90 time=0
EXTRACT: note_on channel=9 note=42 velocity=90 time=0
EXTRACT: note_on channel=7 note=57 velocity=0 time=0.009433966666666665
EXTRACT: note_on channel=8 note=57 velocity=0 time=0.009433966666666665
EXTRACT: note_on channel=9 note=27 velocity=0 time=0.07075474999999999
EXTRACT: note_on channel=9 note=75 velocity=0 time=0.01886793333333333
EXTRACT: note_on channel=9 note=42 velocity=0 time=0.004716983333333332
EXTRACT: note_on channel=5 note=57 velocity=0 time=0.10377363333333331
EXTRACT: note_on channel=0 note=57 velocity=0 time=0.04245284999999999
EXTRACT: note_on channel=0 note=64 velocity=0 time=0
EXTRACT: note_on channel=0 note=64 velocity=0 time=0
EXTRACT: note_on channel=0 note=45 velocity=0 time=0
EXTRACT: note_on channel=0 note=60 velocity=0 time=0
EXTRACT: note_on channel=1 note=33 velocity=0 time=0
EXTRACT: note_on channel=6 note=64 velocity=0 time=0
EXTRACT: note_on channel=6 note=69 velocity=0 time=0
EXTRACT: note_on channel=6 note=60 velocity=0 time=0
EXTRACT: note_on channel=7 note=57 velocity=100 time=0.023584916666666664
EXTRACT: note_on channel=9 note=42 velocity=90 time=0
EXTRACT: note_on channel=9 note=35 velocity=90 time=0
EXTRACT: note_on channel=6 note=64 velocity=52 time=0.004716983333333332
EXTRACT: note_on channel=9 note=75 velocity=61 time=0
EXTRACT: note_on channel=0 note=69 velocity=47 time=0.004716983333333332
EXTRACT: note_on channel=0 note=45 velocity=47 time=0
EXTRACT: note_on channel=1 note=33 velocity=83 time=0
EXTRACT: note_on channel=5 note=52 velocity=45 time=0
EXTRACT: note_on channel=8 note=57 velocity=100 time=0
EXTRACT: note_on channel=0 note=64 velocity=45 time=0.004716983333333332
EXTRACT: note_on channel=0 note=60 velocity=45 time=0
EXTRACT: note_on channel=0 note=57 velocity=45 time=0
EXTRACT: note_on channel=6 note=60 velocity=50 time=0
EXTRACT: note_on channel=9 note=35 velocity=0 time=0.01886793333333333
EXTRACT: note_on channel=9 note=42 velocity=0 time=0
EXTRACT: note_on channel=9 note=75 velocity=0 time=0.004716983333333332
EXTRACT: note_on channel=7 note=59 velocity=100 time=0.2452831333333333
EXTRACT: note_on channel=9 note=42 velocity=75 time=0
EXTRACT: note_on channel=7 note=57 velocity=0 time=0.009433966666666665
EXTRACT: note_on channel=8 note=59 velocity=100 time=0
EXTRACT: note_on channel=8 note=57 velocity=0 time=0.009433966666666665
EXTRACT: note_on channel=9 note=42 velocity=0 time=0.014150949999999997
EXTRACT: note_on channel=7 note=60 velocity=100 time=0.24056614999999995
EXTRACT: note_on channel=6 note=69 velocity=52 time=0.009433966666666665
EXTRACT: note_on channel=8 note=60 velocity=100 time=0
EXTRACT: note_on channel=9 note=39 velocity=90 time=0
EXTRACT: note_on channel=9 note=42 velocity=90 time=0
EXTRACT: note_on channel=9 note=54 velocity=77 time=0
EXTRACT: note_on channel=9 note=75 velocity=71 time=0
EXTRACT: note_on channel=9 note=27 velocity=90 time=0
EXTRACT: note_on channel=7 note=59 velocity=0 time=0.009433966666666665
EXTRACT: note_on channel=8 note=59 velocity=0 time=0.009433966666666665
EXTRACT: note_on channel=9 note=27 velocity=0 time=0.014150949999999997
EXTRACT: note_on channel=9 note=54 velocity=0 time=0
EXTRACT: note_on channel=9 note=39 velocity=0 time=0
EXTRACT: note_on channel=9 note=42 velocity=0 time=0
EXTRACT: note_on channel=9 note=75 velocity=0 time=0
EXTRACT: note_on channel=1 note=33 velocity=0 time=0.24056614999999995
EXTRACT: note_on channel=7 note=62 velocity=100 time=0.004716983333333332
EXTRACT: note_on channel=1 note=33 velocity=70 time=0.004716983333333332
EXTRACT: note_on channel=7 note=60 velocity=0 time=0
EXTRACT: note_on channel=9 note=75 velocity=59 time=0
EXTRACT: note_on channel=9 note=27 velocity=90 time=0
EXTRACT: note_on channel=9 note=42 velocity=90 time=0
EXTRACT: note_on channel=9 note=35 velocity=90 time=0
EXTRACT: note_on channel=5 note=52 velocity=0 time=0.004716983333333332
EXTRACT: note_on channel=8 note=62 velocity=100 time=0
EXTRACT: note_on channel=0 note=64 velocity=58 time=0.004716983333333332
EXTRACT: note_on channel=5 note=57 velocity=45 time=0
EXTRACT: note_on channel=8 note=60 velocity=0 time=0
EXTRACT: note_on channel=9 note=35 velocity=0 time=0.023584916666666664
EXTRACT: note_on channel=9 note=75 velocity=0 time=0
EXTRACT: note_on channel=9 note=27 velocity=0 time=0
EXTRACT: note_on channel=9 note=42 velocity=0 time=0
EXTRACT: note_on channel=1 note=33 velocity=0 time=0.18396234999999997
EXTRACT: note_on channel=6 note=64 velocity=0 time=0
EXTRACT: note_on channel=7 note=64 velocity=100 time=0.05660379999999999
EXTRACT: note_on channel=1 note=33 velocity=70 time=0.009433966666666665
EXTRACT: note_on channel=6 note=64 velocity=46 time=0
EXTRACT: note_on channel=8 note=64 velocity=100 time=0
EXTRACT: note_on channel=9 note=42 velocity=90 time=0
EXTRACT: note_on channel=9 note=27 velocity=90 time=0
EXTRACT: note_on channel=7 note=62 velocity=0 time=0.004716983333333332
EXTRACT: note_on channel=8 note=62 velocity=0 time=0.009433966666666665
EXTRACT: note_on channel=9 note=27 velocity=0 time=0.01886793333333333
EXTRACT: note_on channel=9 note=42 velocity=0 time=0
EXTRACT: note_on channel=9 note=35 velocity=90 time=0.2500001166666666
EXTRACT: note_on channel=9 note=75 velocity=61 time=0
EXTRACT: note_on channel=9 note=42 velocity=69 time=0
EXTRACT: note_on channel=9 note=35 velocity=0 time=0.033018883333333325
EXTRACT: note_on channel=9 note=42 velocity=0 time=0.03773586666666666
EXTRACT: note_on channel=9 note=75 velocity=0 time=0.06132078333333332
EXTRACT: note_on channel=9 note=42 velocity=48 time=0.009433966666666665
EXTRACT: note_on channel=9 note=42 velocity=0 time=0.01886793333333333
EXTRACT: note_on channel=7 note=64 velocity=0 time=0.11320759999999998
EXTRACT: note_on channel=7 note=62 velocity=100 time=0.009433966666666665
EXTRACT: note_on channel=8 note=64 velocity=0 time=0
EXTRACT: note_on channel=9 note=27 velocity=90 time=0
EXTRACT: note_on channel=9 note=42 velocity=90 time=0
EXTRACT: note_on channel=9 note=39 velocity=90 time=0
EXTRACT: note_on channel=9 note=75 velocity=65 time=0
EXTRACT: note_on channel=9 note=54 velocity=77 time=0
EXTRACT: note_on channel=8 note=62 velocity=100 time=0.009433966666666665
EXTRACT: note_on channel=9 note=54 velocity=0 time=0.023584916666666664
EXTRACT: note_on channel=9 note=39 velocity=0 time=0
EXTRACT: note_on channel=9 note=27 velocity=0 time=0
EXTRACT: note_on channel=9 note=42 velocity=0 time=0
EXTRACT: note_on channel=9 note=75 velocity=0 time=0
EXTRACT: note_on channel=0 note=45 velocity=0 time=0.14150949999999998
EXTRACT: note_on channel=0 note=57 velocity=0 time=0.08962268333333331
EXTRACT: note_on channel=0 note=60 velocity=0 time=0
EXTRACT: note_on channel=0 note=64 velocity=0 time=0
EXTRACT: note_on channel=0 note=64 velocity=0 time=0.009433966666666665
EXTRACT: note_on channel=0 note=45 velocity=52 time=0.009433966666666665
EXTRACT: note_on channel=1 note=33 velocity=0 time=0
EXTRACT: note_on channel=7 note=60 velocity=100 time=0
EXTRACT: note_on channel=9 note=75 velocity=65 time=0
EXTRACT: note_on channel=9 note=42 velocity=90 time=0
EXTRACT: note_on channel=9 note=27 velocity=90 time=0
EXTRACT: note_on channel=1 note=33 velocity=62 time=0.009433966666666665
EXTRACT: note_on channel=7 note=62 velocity=0 time=0
EXTRACT: note_on channel=8 note=60 velocity=100 time=0
EXTRACT: note_on channel=8 note=62 velocity=0 time=0.009433966666666665
EXTRACT: note_on channel=9 note=27 velocity=0 time=0.07075474999999999
EXTRACT: note_on channel=9 note=75 velocity=0 time=0.01886793333333333
EXTRACT: note_on channel=9 note=42 velocity=0 time=0.004716983333333332
EXTRACT: note_on channel=0 note=69 velocity=0 time=0.04716983333333333
EXTRACT: note_on channel=1 note=33 velocity=0 time=0.08018871666666665
EXTRACT: note_on channel=5 note=57 velocity=0 time=0.004716983333333332
EXTRACT: note_on channel=0 note=45 velocity=0 time=0.014150949999999997
EXTRACT: note_on channel=6 note=64 velocity=0 time=0
EXTRACT: note_on channel=6 note=69 velocity=0 time=0
EXTRACT: note_on channel=6 note=60 velocity=0 time=0
EXTRACT: note_on channel=7 note=62 velocity=100 time=0.014150949999999997
EXTRACT: note_on channel=8 note=62 velocity=100 time=0.009433966666666665
EXTRACT: note_on channel=9 note=75 velocity=61 time=0
EXTRACT: note_on channel=9 note=35 velocity=90 time=0
EXTRACT: note_on channel=9 note=42 velocity=90 time=0.004716983333333332
EXTRACT: note_on channel=0 note=71 velocity=47 time=0.004716983333333332
EXTRACT: note_on channel=0 note=40 velocity=47 time=0
EXTRACT: note_on channel=1 note=28 velocity=79 time=0
EXTRACT: note_on channel=5 note=55 velocity=45 time=0
EXTRACT: note_on channel=7 note=60 velocity=0 time=0
EXTRACT: note_on channel=0 note=64 velocity=45 time=0.004716983333333332
EXTRACT: note_on channel=0 note=59 velocity=45 time=0
EXTRACT: note_on channel=0 note=55 velocity=45 time=0
EXTRACT: note_on channel=6 note=71 velocity=52 time=0
EXTRACT: note_on channel=8 note=60 velocity=0 time=0.004716983333333332
EXTRACT: note_on channel=9 note=35 velocity=0 time=0.014150949999999997
EXTRACT: note_on channel=9 note=42 velocity=0 time=0.004716983333333332
EXTRACT: note_on channel=9 note=75 velocity=0 time=0.04716983333333333
EXTRACT: note_on channel=7 note=60 velocity=100 time=0.1886793333333333
EXTRACT: note_on channel=7 note=62 velocity=0 time=0.009433966666666665
EXTRACT: note_on channel=8 note=60 velocity=100 time=0
EXTRACT: note_on channel=9 note=42 velocity=73 time=0
EXTRACT: note_on channel=8 note=62 velocity=0 time=0.009433966666666665
EXTRACT: note_on channel=9 note=42 velocity=0 time=0.023584916666666664
EXTRACT: note_on channel=9 note=42 velocity=55 time=0.10849061666666665
EXTRACT: note_on channel=9 note=42 velocity=0 time=0.01886793333333333
EXTRACT: note_on channel=7 note=59 velocity=100 time=0.11320759999999998
EXTRACT: note_on channel=6 note=67 velocity=46 time=0.009433966666666665
EXTRACT: note_on channel=7 note=60 velocity=0 time=0
EXTRACT: note_on channel=8 note=59 velocity=100 time=0
EXTRACT: note_on channel=9 note=42 velocity=90 time=0
EXTRACT: note_on channel=9 note=39 velocity=90 time=0
EXTRACT: note_on channel=9 note=54 velocity=77 time=0
EXTRACT: note_on channel=9 note=75 velocity=71 time=0
EXTRACT: note_on channel=9 note=27 velocity=90 time=0
EXTRACT: note_on channel=8 note=60 velocity=0 time=0.009433966666666665
EXTRACT: note_on channel=9 note=27 velocity=0 time=0.023584916666666664
EXTRACT: note_on channel=9 note=54 velocity=0 time=0
EXTRACT: note_on channel=9 note=42 velocity=0 time=0
EXTRACT: note_on channel=9 note=39 velocity=0 time=0
EXTRACT: note_on channel=9 note=75 velocity=0 time=0
EXTRACT: note_on channel=1 note=28 velocity=0 time=0.22169821666666661
EXTRACT: note_on channel=7 note=59 velocity=0 time=0.028301899999999994
EXTRACT: note_on channel=9 note=42 velocity=67 time=0
EXTRACT: note_on channel=9 note=35 velocity=90 time=0
EXTRACT: note_on channel=9 note=27 velocity=90 time=0
EXTRACT: note_on channel=9 note=75 velocity=59 time=0
EXTRACT: note_on channel=5 note=55 velocity=0 time=0.004716983333333332
EXTRACT: note_on channel=0 note=67 velocity=58 time=0.004716983333333332
EXTRACT: note_on channel=1 note=35 velocity=54 time=0
EXTRACT: note_on channel=5 note=59 velocity=45 time=0
EXTRACT: note_on channel=8 note=59 velocity=0 time=0
EXTRACT: note_on channel=9 note=75 velocity=0 time=0.023584916666666664
EXTRACT: note_on channel=9 note=42 velocity=0 time=0
EXTRACT: note_on channel=9 note=35 velocity=0 time=0
EXTRACT: note_on channel=9 note=27 velocity=0 time=0
EXTRACT: note_on channel=1 note=35 velocity=0 time=0.24056614999999995
EXTRACT: note_on channel=6 note=64 velocity=50 time=0.009433966666666665
EXTRACT: note_on channel=9 note=42 velocity=90 time=0
EXTRACT: note_on channel=9 note=75 velocity=61 time=0
EXTRACT: note_on channel=9 note=27 velocity=90 time=0
EXTRACT: note_on channel=1 note=40 velocity=68 time=0.009433966666666665
EXTRACT: note_on channel=9 note=27 velocity=0 time=0.023584916666666664
EXTRACT: note_on channel=9 note=75 velocity=0 time=0
EXTRACT: note_on channel=9 note=42 velocity=0 time=0
EXTRACT: note_on channel=9 note=35 velocity=90 time=0.2500001166666666
EXTRACT: note_on channel=9 note=42 velocity=90 time=0
EXTRACT: note_on channel=9 note=42 velocity=0 time=0.033018883333333325
EXTRACT: note_on channel=9 note=35 velocity=0 time=0
EXTRACT: note_on channel=9 note=27 velocity=90 time=0.2500001166666666
EXTRACT: note_on channel=9 note=75 velocity=65 time=0
EXTRACT: note_on channel=9 note=42 velocity=90 time=0
EXTRACT: note_on channel=9 note=54 velocity=77 time=0
EXTRACT: note_on channel=9 note=39 velocity=90 time=0
EXTRACT: note_on channel=9 note=39 velocity=0 time=0.033018883333333325
EXTRACT: note_on channel=9 note=54 velocity=0 time=0
EXTRACT: note_on channel=9 note=27 velocity=0 time=0.06603776666666665
EXTRACT: note_on channel=9 note=42 velocity=0 time=0.009433966666666665
EXTRACT: note_on channel=9 note=75 velocity=0 time=0
EXTRACT: note_on channel=0 note=40 velocity=0 time=0.06603776666666665
EXTRACT: note_on channel=1 note=40 velocity=0 time=0.06603776666666665
EXTRACT: note_on channel=0 note=55 velocity=0 time=0.023584916666666664
EXTRACT: note_on channel=0 note=59 velocity=0 time=0
EXTRACT: note_on channel=0 note=64 velocity=0 time=0
EXTRACT: note_on channel=0 note=67 velocity=0 time=0.009433966666666665
EXTRACT: note_on channel=0 note=40 velocity=52 time=0.009433966666666665
EXTRACT: note_on channel=1 note=28 velocity=68 time=0
EXTRACT: note_on channel=9 note=75 velocity=65 time=0
EXTRACT: note_on channel=9 note=39 velocity=83 time=0
EXTRACT: note_on channel=9 note=42 velocity=90 time=0
EXTRACT: note_on channel=9 note=27 velocity=90 time=0
EXTRACT: note_on channel=9 note=27 velocity=0 time=0.08962268333333331
EXTRACT: note_on channel=9 note=75 velocity=0 time=0.01886793333333333
EXTRACT: note_on channel=9 note=42 velocity=0 time=0.004716983333333332
EXTRACT: note_on channel=9 note=39 velocity=0 time=0.023584916666666664
EXTRACT: note_on channel=0 note=71 velocity=0 time=0.023584916666666664
EXTRACT: note_on channel=5 note=59 velocity=0 time=0.08490569999999999
EXTRACT: note_on channel=0 note=40 velocity=0 time=0.014150949999999997
EXTRACT: note_on channel=1 note=28 velocity=0 time=0
EXTRACT: note_on channel=6 note=64 velocity=0 time=0
EXTRACT: note_on channel=6 note=67 velocity=0 time=0
EXTRACT: note_on channel=6 note=71 velocity=0 time=0
EXTRACT: note_on channel=7 note=62 velocity=100 time=0.014150949999999997
EXTRACT: note_on channel=8 note=62 velocity=100 time=0.009433966666666665
EXTRACT: note_on channel=9 note=35 velocity=90 time=0
EXTRACT: note_on channel=9 note=42 velocity=90 time=0
EXTRACT: note_on channel=6 note=69 velocity=52 time=0.004716983333333332
EXTRACT: note_on channel=9 note=75 velocity=61 time=0
EXTRACT: note_on channel=0 note=69 velocity=47 time=0.004716983333333332
EXTRACT: note_on channel=0 note=50 velocity=47 time=0
EXTRACT: note_on channel=1 note=38 velocity=83 time=0
EXTRACT: note_on channel=5 note=62 velocity=45 time=0
EXTRACT: note_on channel=0 note=66 velocity=45 time=0.004716983333333332
EXTRACT: note_on channel=0 note=62 velocity=45 time=0
EXTRACT: note_on channel=0 note=57 velocity=45 time=0
EXTRACT: note_on channel=6 note=74 velocity=52 time=0
EXTRACT: note_on channel=6 note=66 velocity=50 time=0
EXTRACT: note_on channel=9 note=42 velocity=0 time=0.01886793333333333
EXTRACT: note_on channel=9 note=35 velocity=0 time=0
EXTRACT: note_on channel=9 note=75 velocity=0 time=0.004716983333333332
EXTRACT: note_on channel=7 note=62 velocity=0 time=0.22641519999999996
EXTRACT: note_on channel=8 note=62 velocity=0 time=0.009433966666666665
EXTRACT: note_on channel=7 note=62 velocity=100 time=0.009433966666666665
EXTRACT: note_on channel=9 note=42 velocity=75 time=0
EXTRACT: note_on channel=8 note=62 velocity=100 time=0.009433966666666665
EXTRACT: note_on channel=9 note=42 velocity=0 time=0.023584916666666664
EXTRACT: note_on channel=7 note=62 velocity=0 time=0.24056614999999995
EXTRACT: note_on channel=7 note=62 velocity=100 time=0.004716983333333332
EXTRACT: note_on channel=8 note=62 velocity=0 time=0.004716983333333332
EXTRACT: note_on channel=9 note=54 velocity=77 time=0
EXTRACT: note_on channel=9 note=42 velocity=90 time=0
EXTRACT: note_on channel=9 note=39 velocity=90 time=0
EXTRACT: note_on channel=9 note=27 velocity=90 time=0
EXTRACT: note_on channel=9 note=75 velocity=71 time=0
EXTRACT: note_on channel=8 note=62 velocity=100 time=0.004716983333333332
EXTRACT: note_on channel=9 note=75 velocity=0 time=0.028301899999999994
EXTRACT: note_on channel=9 note=39 velocity=0 time=0
EXTRACT: note_on channel=9 note=54 velocity=0 time=0
EXTRACT: note_on channel=9 note=42 velocity=0 time=0
EXTRACT: note_on channel=9 note=27 velocity=0 time=0
EXTRACT: note_on channel=7 note=62 velocity=0 time=0.2358491666666666
EXTRACT: note_on channel=1 note=38 velocity=0 time=0.004716983333333332
EXTRACT: note_on channel=8 note=62 velocity=0 time=0.004716983333333332
EXTRACT: note_on channel=1 note=38 velocity=70 time=0.004716983333333332
EXTRACT: note_on channel=9 note=42 velocity=90 time=0
EXTRACT: note_on channel=9 note=35 velocity=90 time=0
EXTRACT: note_on channel=9 note=75 velocity=59 time=0
EXTRACT: note_on channel=9 note=27 velocity=90 time=0
EXTRACT: note_on channel=7 note=62 velocity=100 time=0.004716983333333332
EXTRACT: note_on channel=8 note=62 velocity=100 time=0.009433966666666665
EXTRACT: note_on channel=9 note=27 velocity=0 time=0.01886793333333333
EXTRACT: note_on channel=9 note=42 velocity=0 time=0
EXTRACT: note_on channel=9 note=35 velocity=0 time=0
EXTRACT: note_on channel=9 note=75 velocity=0 time=0
EXTRACT: note_on channel=1 note=38 velocity=0 time=0.18396234999999997
EXTRACT: note_on channel=7 note=62 velocity=0 time=0.06132078333333332
EXTRACT: note_on channel=7 note=64 velocity=100 time=0
EXTRACT: note_on channel=1 note=38 velocity=70 time=0.004716983333333332
EXTRACT: note_on channel=9 note=42 velocity=90 time=0
EXTRACT: note_on channel=9 note=27 velocity=90 time=0
EXTRACT: note_on channel=8 note=62 velocity=0 time=0.004716983333333332
EXTRACT: note_on channel=8 note=64 velocity=100 time=0
EXTRACT: note_on channel=9 note=27 velocity=0 time=0.028301899999999994
EXTRACT: note_on channel=9 note=42 velocity=0 time=0
EXTRACT: note_on channel=9 note=75 velocity=61 time=0.2500001166666666
EXTRACT: note_on channel=9 note=35 velocity=90 time=0
EXTRACT: note_on channel=9 note=42 velocity=69 time=0
EXTRACT: note_on channel=9 note=42 velocity=0 time=0.033018883333333325
EXTRACT: note_on channel=9 note=35 velocity=0 time=0
EXTRACT: note_on channel=9 note=75 velocity=0 time=0
EXTRACT: note_on channel=7 note=64 velocity=0 time=0.2452831333333333
EXTRACT: note_on channel=7 note=60 velocity=100 time=0
EXTRACT: note_on channel=9 note=27 velocity=90 time=0.004716983333333332
EXTRACT: note_on channel=9 note=42 velocity=90 time=0
EXTRACT: note_on channel=9 note=54 velocity=77 time=0
EXTRACT: note_on channel=9 note=39 velocity=90 time=0
EXTRACT: note_on channel=9 note=75 velocity=65 time=0
EXTRACT: note_on channel=8 note=64 velocity=0 time=0.004716983333333332
EXTRACT: note_on channel=8 note=60 velocity=100 time=0
EXTRACT: note_on channel=9 note=75 velocity=0 time=0.028301899999999994
EXTRACT: note_on channel=9 note=54 velocity=0 time=0
EXTRACT: note_on channel=9 note=27 velocity=0 time=0
EXTRACT: note_on channel=9 note=42 velocity=0 time=0
EXTRACT: note_on channel=9 note=39 velocity=0 time=0
EXTRACT: note_on channel=7 note=60 velocity=0 time=0.2358491666666666
EXTRACT: note_on channel=8 note=60 velocity=0 time=0.009433966666666665
EXTRACT: note_on channel=1 note=38 velocity=0 time=0.004716983333333332
EXTRACT: note_on channel=9 note=27 velocity=90 time=0
EXTRACT: note_on channel=9 note=75 velocity=65 time=0
EXTRACT: note_on channel=9 note=42 velocity=71 time=0
EXTRACT: note_on channel=1 note=38 velocity=62 time=0.009433966666666665
EXTRACT: note_on channel=7 note=59 velocity=100 time=0.004716983333333332
EXTRACT: note_on channel=8 note=59 velocity=100 time=0.009433966666666665
EXTRACT: note_on channel=9 note=27 velocity=0 time=0.06603776666666665
EXTRACT: note_on channel=9 note=75 velocity=0 time=0.01886793333333333
EXTRACT: note_on channel=9 note=42 velocity=0 time=0.004716983333333332
EXTRACT: note_on channel=5 note=62 velocity=0 time=0.10377363333333331
EXTRACT: note_on channel=1 note=38 velocity=0 time=0.023584916666666664
EXTRACT: note_on channel=0 note=57 velocity=0 time=0.01886793333333333
EXTRACT: note_on channel=0 note=66 velocity=0 time=0
EXTRACT: note_on channel=0 note=69 velocity=0 time=0
EXTRACT: note_on channel=0 note=50 velocity=0 time=0
EXTRACT: note_on channel=0 note=62 velocity=0 time=0
EXTRACT: note_on channel=6 note=66 velocity=0 time=0
EXTRACT: note_on channel=6 note=74 velocity=0 time=0
EXTRACT: note_on channel=6 note=69 velocity=0 time=0
EXTRACT: note_on channel=7 note=60 velocity=100 time=0.014150949999999997
EXTRACT: note_on channel=8 note=60 velocity=100 time=0.009433966666666665
EXTRACT: note_on channel=9 note=75 velocity=61 time=0
EXTRACT: note_on channel=9 note=35 velocity=90 time=0
EXTRACT: note_on channel=1 note=33 velocity=75 time=0.004716983333333332
EXTRACT: note_on channel=7 note=59 velocity=0 time=0
EXTRACT: note_on channel=9 note=42 velocity=90 time=0
EXTRACT: note_on channel=0 note=64 velocity=47 time=0.004716983333333332
EXTRACT: note_on channel=0 note=45 velocity=47 time=0
EXTRACT: note_on channel=5 note=57 velocity=45 time=0
EXTRACT: note_on channel=0 note=64 velocity=45 time=0.004716983333333332
EXTRACT: note_on channel=0 note=60 velocity=45 time=0
EXTRACT: note_on channel=0 note=57 velocity=45 time=0
EXTRACT: note_on channel=6 note=69 velocity=52 time=0
EXTRACT: note_on channel=8 note=59 velocity=0 time=0
EXTRACT: note_on channel=9 note=35 velocity=0 time=0.01886793333333333
EXTRACT: note_on channel=9 note=42 velocity=0 time=0.004716983333333332
EXTRACT: note_on channel=9 note=75 velocity=0 time=0.04716983333333333
EXTRACT: note_on channel=7 note=60 velocity=0 time=0.17924536666666663
EXTRACT: note_on channel=8 note=60 velocity=0 time=0.009433966666666665
EXTRACT: note_on channel=9 note=42 velocity=73 time=0.009433966666666665
EXTRACT: note_on channel=7 note=59 velocity=100 time=0.004716983333333332
EXTRACT: note_on channel=8 note=59 velocity=100 time=0.009433966666666665
EXTRACT: note_on channel=9 note=42 velocity=0 time=0.01886793333333333
EXTRACT: note_on channel=9 note=42 velocity=55 time=0.10849061666666665
EXTRACT: note_on channel=9 note=42 velocity=0 time=0.01886793333333333
EXTRACT: note_on channel=7 note=59 velocity=0 time=0.1179245833333333
EXTRACT: note_on channel=7 note=57 velocity=100 time=0
EXTRACT: note_on channel=6 note=64 velocity=46 time=0.004716983333333332
EXTRACT: note_on channel=9 note=75 velocity=71 time=0
EXTRACT: note_on channel=9 note=27 velocity=90 time=0
EXTRACT: note_on channel=9 note=42 velocity=90 time=0
EXTRACT: note_on channel=9 note=54 velocity=77 time=0
EXTRACT: note_on channel=9 note=39 velocity=90 time=0
EXTRACT: note_on channel=8 note=59 velocity=0 time=0.004716983333333332
EXTRACT: note_on channel=8 note=57 velocity=100 time=0
EXTRACT: note_on channel=9 note=39 velocity=0 time=0.028301899999999994
EXTRACT: note_on channel=9 note=42 velocity=0 time=0
EXTRACT: note_on channel=9 note=75 velocity=0 time=0
EXTRACT: note_on channel=9 note=27 velocity=0 time=0
EXTRACT: note_on channel=9 note=54 velocity=0 time=0
EXTRACT: note_on channel=1 note=33 velocity=0 time=0.1603774333333333
EXTRACT: note_on channel=7 note=57 velocity=0 time=0.07547173333333332
EXTRACT: note_on channel=8 note=57 velocity=0 time=0.009433966666666665
EXTRACT: note_on channel=9 note=35 velocity=90 time=0.004716983333333332
EXTRACT: note_on channel=9 note=42 velocity=67 time=0
EXTRACT: note_on channel=9 note=75 velocity=59 time=0
EXTRACT: note_on channel=9 note=27 velocity=90 time=0
EXTRACT: note_on channel=1 note=33 velocity=75 time=0.004716983333333332
EXTRACT: note_on channel=9 note=27 velocity=0 time=0.028301899999999994
EXTRACT: note_on channel=9 note=35 velocity=0 time=0
EXTRACT: note_on channel=9 note=42 velocity=0 time=0
EXTRACT: note_on channel=9 note=75 velocity=0 time=0
EXTRACT: note_on channel=1 note=33 velocity=0 time=0.22169821666666661
EXTRACT: note_on channel=7 note=60 velocity=100 time=0.023584916666666664
EXTRACT: note_on channel=1 note=33 velocity=71 time=0.004716983333333332
EXTRACT: note_on channel=6 note=60 velocity=50 time=0
EXTRACT: note_on channel=9 note=75 velocity=61 time=0
EXTRACT: note_on channel=9 note=27 velocity=90 time=0
EXTRACT: note_on channel=9 note=42 velocity=90 time=0
EXTRACT: note_on channel=8 note=60 velocity=100 time=0.004716983333333332
EXTRACT: note_on channel=9 note=42 velocity=0 time=0.028301899999999994
EXTRACT: note_on channel=9 note=27 velocity=0 time=0
EXTRACT: note_on channel=9 note=75 velocity=0 time=0
EXTRACT: note_on channel=7 note=60 velocity=0 time=0.2358491666666666
EXTRACT: note_on channel=8 note=60 velocity=0 time=0.009433966666666665
EXTRACT: note_on channel=1 note=33 velocity=0 time=0.004716983333333332
EXTRACT: note_on channel=7 note=59 velocity=100 time=0
EXTRACT: note_on channel=9 note=42 velocity=90 time=0
EXTRACT: note_on channel=9 note=35 velocity=90 time=0
EXTRACT: note_on channel=1 note=33 velocity=81 time=0.004716983333333332
EXTRACT: note_on channel=8 note=59 velocity=100 time=0.004716983333333332
EXTRACT: note_on channel=9 note=35 velocity=0 time=0.023584916666666664
EXTRACT: note_on channel=9 note=42 velocity=0 time=0
EXTRACT: note_on channel=7 note=59 velocity=0 time=0.24056614999999995
EXTRACT: note_on channel=7 note=57 velocity=100 time=0.004716983333333332
EXTRACT: note_on channel=8 note=59 velocity=0 time=0.004716983333333332
EXTRACT: note_on channel=9 note=75 velocity=65 time=0
EXTRACT: note_on channel=9 note=54 velocity=77 time=0
EXTRACT: note_on channel=9 note=27 velocity=90 time=0
EXTRACT: note_on channel=9 note=39 velocity=90 time=0
EXTRACT: note_on channel=9 note=42 velocity=90 time=0
EXTRACT: note_on channel=8 note=57 velocity=100 time=0.004716983333333332
EXTRACT: note_on channel=9 note=39 velocity=0 time=0.028301899999999994
EXTRACT: note_on channel=9 note=54 velocity=0 time=0
EXTRACT: note_on channel=9 note=27 velocity=0 time=0.06603776666666665
EXTRACT: note_on channel=9 note=75 velocity=0 time=0.009433966666666665
EXTRACT: note_on channel=9 note=42 velocity=0 time=0
EXTRACT: note_on channel=1 note=33 velocity=0 time=0.051886816666666655
EXTRACT: note_on channel=7 note=57 velocity=0 time=0.10849061666666665
EXTRACT: note_on channel=8 note=57 velocity=0 time=0.009433966666666665
EXTRACT: note_on channel=1 note=33 velocity=75 time=0.004716983333333332
EXTRACT: note_on channel=9 note=39 velocity=83 time=0
EXTRACT: note_on channel=9 note=75 velocity=65 time=0
EXTRACT: note_on channel=9 note=42 velocity=90 time=0
EXTRACT: note_on channel=9 note=27 velocity=90 time=0
EXTRACT: note_on channel=9 note=27 velocity=0 time=0.08962268333333331
EXTRACT: note_on channel=9 note=75 velocity=0 time=0.01886793333333333
EXTRACT: note_on channel=9 note=42 velocity=0 time=0.004716983333333332
EXTRACT: note_on channel=9 note=39 velocity=0 time=0.023584916666666664
EXTRACT: note_on channel=5 note=57 velocity=0 time=0.08018871666666665
EXTRACT: note_on channel=0 note=57 velocity=0 time=0.04245284999999999
EXTRACT: note_on channel=0 note=64 velocity=0 time=0
EXTRACT: note_on channel=0 note=64 velocity=0 time=0
EXTRACT: note_on channel=0 note=45 velocity=0 time=0
EXTRACT: note_on channel=0 note=60 velocity=0 time=0
EXTRACT: note_on channel=1 note=33 velocity=0 time=0
EXTRACT: note_on channel=6 note=60 velocity=0 time=0
EXTRACT: note_on channel=6 note=64 velocity=0 time=0
EXTRACT: note_on channel=6 note=69 velocity=0 time=0
EXTRACT: note_on channel=7 note=57 velocity=100 time=0
EXTRACT: note_on channel=9 note=35 velocity=90 time=0
EXTRACT: note_on channel=9 note=75 velocity=61 time=0
EXTRACT: note_on channel=6 note=64 velocity=52 time=0.004716983333333332
EXTRACT: note_on channel=8 note=57 velocity=100 time=0
EXTRACT: note_on channel=9 note=57 velocity=82 time=0
EXTRACT: note_on channel=0 note=69 velocity=47 time=0.004716983333333332
EXTRACT: note_on channel=0 note=45 velocity=47 time=0
EXTRACT: note_on channel=1 note=33 velocity=83 time=0
EXTRACT: note_on channel=5 note=57 velocity=45 time=0
EXTRACT: note_on channel=0 note=64 velocity=45 time=0.004716983333333332
EXTRACT: note_on channel=0 note=60 velocity=45 time=0
EXTRACT: note_on channel=0 note=57 velocity=45 time=0
EXTRACT: note_on channel=6 note=60 velocity=50 time=0
EXTRACT: note_on channel=9 note=35 velocity=0 time=0.01886793333333333
EXTRACT: note_on channel=9 note=57 velocity=0 time=0.004716983333333332
EXTRACT: note_on channel=9 note=75 velocity=0 time=0.04716983333333333
EXTRACT: note_on channel=1 note=33 velocity=0 time=0.18396234999999997
EXTRACT: note_on channel=8 note=59 velocity=100 time=0
EXTRACT: note_on channel=7 note=59 velocity=100 time=0.004716983333333332
EXTRACT: note_on channel=7 note=57 velocity=0 time=0.004716983333333332
EXTRACT: note_on channel=1 note=33 velocity=70 time=0.004716983333333332
EXTRACT: note_on channel=8 note=57 velocity=0 time=0
EXTRACT: note_on channel=9 note=42 velocity=75 time=0
EXTRACT: note_on channel=9 note=42 velocity=0 time=0.033018883333333325
EXTRACT: note_on channel=8 note=59 velocity=0 time=0.2311321833333333
EXTRACT: note_on channel=7 note=59 velocity=0 time=0.004716983333333332
EXTRACT: note_on channel=6 note=69 velocity=52 time=0.014150949999999997
EXTRACT: note_on channel=9 note=54 velocity=77 time=0
EXTRACT: note_on channel=9 note=27 velocity=84 time=0
EXTRACT: note_on channel=9 note=75 velocity=71 time=0
EXTRACT: note_on channel=9 note=42 velocity=90 time=0
EXTRACT: note_on channel=9 note=39 velocity=90 time=0
EXTRACT: note_on channel=8 note=60 velocity=100 time=0.004716983333333332
EXTRACT: note_on channel=7 note=60 velocity=100 time=0.004716983333333332
EXTRACT: note_on channel=9 note=39 velocity=0 time=0.023584916666666664
EXTRACT: note_on channel=9 note=75 velocity=0 time=0
EXTRACT: note_on channel=9 note=54 velocity=0 time=0
EXTRACT: note_on channel=9 note=27 velocity=0 time=0
EXTRACT: note_on channel=9 note=42 velocity=0 time=0
EXTRACT: note_on channel=1 note=33 velocity=0 time=0.10849061666666665
EXTRACT: note_on channel=8 note=60 velocity=0 time=0.14150949999999998
EXTRACT: note_on channel=8 note=62 velocity=100 time=0
EXTRACT: note_on channel=9 note=27 velocity=90 time=0
EXTRACT: note_on channel=9 note=42 velocity=80 time=0
EXTRACT: note_on channel=9 note=75 velocity=59 time=0
EXTRACT: note_on channel=9 note=35 velocity=90 time=0
EXTRACT: note_on channel=7 note=60 velocity=0 time=0.004716983333333332
EXTRACT: note_on channel=7 note=62 velocity=100 time=0
EXTRACT: note_on channel=0 note=64 velocity=58 time=0.004716983333333332
EXTRACT: note_on channel=1 note=33 velocity=54 time=0
EXTRACT: note_on channel=9 note=35 velocity=0 time=0.023584916666666664
EXTRACT: note_on channel=9 note=27 velocity=0 time=0
EXTRACT: note_on channel=9 note=42 velocity=0 time=0
EXTRACT: note_on channel=9 note=75 velocity=0 time=0
EXTRACT: note_on channel=6 note=64 velocity=0 time=0.18396234999999997
EXTRACT: note_on channel=1 note=33 velocity=0 time=0.05660379999999999
EXTRACT: note_on channel=8 note=62 velocity=0 time=0.004716983333333332
EXTRACT: note_on channel=6 note=64 velocity=46 time=0.004716983333333332
EXTRACT: note_on channel=7 note=62 velocity=0 time=0
EXTRACT: note_on channel=9 note=42 velocity=90 time=0
EXTRACT: note_on channel=9 note=27 velocity=80 time=0
EXTRACT: note_on channel=9 note=75 velocity=61 time=0
EXTRACT: note_on channel=8 note=64 velocity=100 time=0.004716983333333332
EXTRACT: note_on channel=1 note=33 velocity=68 time=0.004716983333333332
EXTRACT: note_on channel=7 note=64 velocity=100 time=0
EXTRACT: note_on channel=9 note=75 velocity=0 time=0.023584916666666664
EXTRACT: note_on channel=9 note=27 velocity=0 time=0
EXTRACT: note_on channel=9 note=42 velocity=0 time=0
EXTRACT: note_on channel=9 note=42 velocity=75 time=0.2500001166666666
EXTRACT: note_on channel=9 note=35 velocity=90 time=0
EXTRACT: note_on channel=9 note=35 velocity=0 time=0.033018883333333325
EXTRACT: note_on channel=9 note=42 velocity=0 time=0
EXTRACT: note_on channel=8 note=64 velocity=0 time=0.21226424999999996
EXTRACT: note_on channel=7 note=64 velocity=0 time=0.004716983333333332
EXTRACT: note_on channel=8 note=62 velocity=100 time=0.028301899999999994
EXTRACT: note_on channel=7 note=62 velocity=100 time=0.004716983333333332
EXTRACT: note_on channel=9 note=75 velocity=65 time=0
EXTRACT: note_on channel=9 note=27 velocity=90 time=0
EXTRACT: note_on channel=9 note=54 velocity=77 time=0
EXTRACT: note_on channel=9 note=39 velocity=90 time=0
EXTRACT: note_on channel=9 note=42 velocity=90 time=0
EXTRACT: note_on channel=9 note=42 velocity=0 time=0.033018883333333325
EXTRACT: note_on channel=9 note=54 velocity=0 time=0
EXTRACT: note_on channel=9 note=75 velocity=0 time=0
EXTRACT: note_on channel=9 note=27 velocity=0 time=0
EXTRACT: note_on channel=9 note=39 velocity=0 time=0
EXTRACT: note_on channel=0 note=45 velocity=0 time=0.14150949999999998
EXTRACT: note_on channel=8 note=60 velocity=100 time=0.08490569999999999
EXTRACT: note_on channel=0 note=57 velocity=0 time=0.004716983333333332
EXTRACT: note_on channel=0 note=60 velocity=0 time=0
EXTRACT: note_on channel=0 note=64 velocity=0 time=0
EXTRACT: note_on channel=7 note=60 velocity=100 time=0
EXTRACT: note_on channel=0 note=64 velocity=0 time=0.009433966666666665
EXTRACT: note_on channel=1 note=33 velocity=0 time=0
EXTRACT: note_on channel=8 note=62 velocity=0 time=0
EXTRACT: note_on channel=7 note=62 velocity=0 time=0.004716983333333332
EXTRACT: note_on channel=0 note=45 velocity=52 time=0.004716983333333332
EXTRACT: note_on channel=1 note=33 velocity=56 time=0
EXTRACT: note_on channel=9 note=42 velocity=84 time=0
EXTRACT: note_on channel=9 note=27 velocity=90 time=0
EXTRACT: note_on channel=9 note=75 velocity=65 time=0
EXTRACT: note_on channel=9 note=27 velocity=0 time=0.08962268333333331
EXTRACT: note_on channel=9 note=75 velocity=0 time=0.01886793333333333
EXTRACT: note_on channel=9 note=42 velocity=0 time=0.004716983333333332
EXTRACT: note_on channel=0 note=69 velocity=0 time=0.04716983333333333
EXTRACT: note_on channel=5 note=57 velocity=0 time=0.05660379999999999
EXTRACT: note_on channel=8 note=60 velocity=0 time=0.03773586666666666
EXTRACT: note_on channel=0 note=45 velocity=0 time=0.004716983333333332
EXTRACT: note_on channel=1 note=33 velocity=0 time=0
EXTRACT: note_on channel=6 note=64 velocity=0 time=0
EXTRACT: note_on channel=6 note=69 velocity=0 time=0
EXTRACT: note_on channel=6 note=60 velocity=0 time=0
EXTRACT: note_on channel=7 note=60 velocity=0 time=0
EXTRACT: note_on channel=8 note=62 velocity=100 time=0.01886793333333333
EXTRACT: note_on channel=7 note=62 velocity=100 time=0.004716983333333332
EXTRACT: note_on channel=9 note=35 velocity=90 time=0
EXTRACT: note_on channel=9 note=75 velocity=61 time=0
EXTRACT: note_on channel=9 note=42 velocity=90 time=0.004716983333333332
EXTRACT: note_on channel=0 note=67 velocity=47 time=0.004716983333333332
EXTRACT: note_on channel=0 note=40 velocity=47 time=0
EXTRACT: note_on channel=1 note=28 velocity=79 time=0
EXTRACT: note_on channel=5 note=59 velocity=45 time=0
EXTRACT: note_on channel=0 note=64 velocity=45 time=0.004716983333333332
EXTRACT: note_on channel=0 note=59 velocity=45 time=0
EXTRACT: note_on channel=0 note=55 velocity=45 time=0
EXTRACT: note_on channel=6 note=71 velocity=52 time=0
EXTRACT: note_on channel=9 note=35 velocity=0 time=0.01886793333333333
EXTRACT: note_on channel=9 note=42 velocity=0 time=0.004716983333333332
EXTRACT: note_on channel=9 note=75 velocity=0 time=0.04716983333333333
EXTRACT: note_on channel=8 note=62 velocity=0 time=0.1886793333333333
EXTRACT: note_on channel=7 note=62 velocity=0 time=0.004716983333333332
EXTRACT: note_on channel=9 note=42 velocity=73 time=0.004716983333333332
EXTRACT: note_on channel=8 note=60 velocity=100 time=0.004716983333333332
EXTRACT: note_on channel=7 note=60 velocity=100 time=0.004716983333333332
EXTRACT: note_on channel=9 note=42 velocity=0 time=0.023584916666666664
EXTRACT: note_on channel=6 note=67 velocity=46 time=0.2500001166666666
EXTRACT: note_on channel=8 note=60 velocity=0 time=0
EXTRACT: note_on channel=9 note=75 velocity=71 time=0
EXTRACT: note_on channel=9 note=27 velocity=90 time=0
EXTRACT: note_on channel=9 note=42 velocity=90 time=0
EXTRACT: note_on channel=9 note=39 velocity=90 time=0
EXTRACT: note_on channel=9 note=54 velocity=77 time=0
EXTRACT: note_on channel=7 note=60 velocity=0 time=0.004716983333333332
EXTRACT: note_on channel=8 note=59 velocity=100 time=0
EXTRACT: note_on channel=7 note=59 velocity=100 time=0.004716983333333332
EXTRACT: note_on channel=9 note=54 velocity=0 time=0.023584916666666664
EXTRACT: note_on channel=9 note=42 velocity=0 time=0
EXTRACT: note_on channel=9 note=75 velocity=0 time=0
EXTRACT: note_on channel=9 note=27 velocity=0 time=0
EXTRACT: note_on channel=9 note=39 velocity=0 time=0
EXTRACT: note_on channel=1 note=28 velocity=0 time=0.22169821666666661
EXTRACT: note_on channel=9 note=42 velocity=67 time=0.028301899999999994
EXTRACT: note_on channel=9 note=27 velocity=90 time=0
EXTRACT: note_on channel=9 note=75 velocity=59 time=0
EXTRACT: note_on channel=9 note=35 velocity=90 time=0
EXTRACT: note_on channel=1 note=35 velocity=54 time=0.009433966666666665
EXTRACT: note_on channel=9 note=35 velocity=0 time=0.023584916666666664
EXTRACT: note_on channel=9 note=42 velocity=0 time=0
EXTRACT: note_on channel=9 note=27 velocity=0 time=0
EXTRACT: note_on channel=9 note=75 velocity=0 time=0
EXTRACT: note_on channel=8 note=59 velocity=0 time=0.21226424999999996
EXTRACT: note_on channel=7 note=59 velocity=0 time=0.004716983333333332
EXTRACT: note_on channel=1 note=35 velocity=0 time=0.023584916666666664
EXTRACT: note_on channel=6 note=64 velocity=50 time=0.009433966666666665
EXTRACT: note_on channel=9 note=42 velocity=90 time=0
EXTRACT: note_on channel=9 note=27 velocity=90 time=0
EXTRACT: note_on channel=9 note=75 velocity=61 time=0
EXTRACT: note_on channel=1 note=40 velocity=68 time=0.009433966666666665
EXTRACT: note_on channel=9 note=75 velocity=0 time=0.023584916666666664
EXTRACT: note_on channel=9 note=27 velocity=0 time=0
EXTRACT: note_on channel=9 note=42 velocity=0 time=0
EXTRACT: note_on channel=9 note=35 velocity=90 time=0.2500001166666666
EXTRACT: note_on channel=9 note=42 velocity=90 time=0
EXTRACT: note_on channel=9 note=42 velocity=0 time=0.033018883333333325
EXTRACT: note_on channel=9 note=35 velocity=0 time=0
EXTRACT: note_on channel=9 note=75 velocity=65 time=0.2500001166666666
EXTRACT: note_on channel=9 note=54 velocity=77 time=0
EXTRACT: note_on channel=9 note=39 velocity=90 time=0
EXTRACT: note_on channel=9 note=42 velocity=90 time=0
EXTRACT: note_on channel=9 note=27 velocity=90 time=0
EXTRACT: note_on channel=9 note=27 velocity=0 time=0.033018883333333325
EXTRACT: note_on channel=9 note=39 velocity=0 time=0
EXTRACT: note_on channel=9 note=75 velocity=0 time=0
EXTRACT: note_on channel=9 note=54 velocity=0 time=0
EXTRACT: note_on channel=9 note=42 velocity=0 time=0
EXTRACT: note_on channel=1 note=40 velocity=0 time=0.20754726666666662
EXTRACT: note_on channel=1 note=28 velocity=68 time=0.04245284999999999
EXTRACT: note_on channel=9 note=42 velocity=90 time=0
EXTRACT: note_on channel=9 note=27 velocity=90 time=0
EXTRACT: note_on channel=9 note=75 velocity=65 time=0
EXTRACT: note_on channel=9 note=27 velocity=0 time=0.08962268333333331
EXTRACT: note_on channel=9 note=75 velocity=0 time=0.01886793333333333
EXTRACT: note_on channel=9 note=42 velocity=0 time=0.004716983333333332
EXTRACT: note_on channel=5 note=59 velocity=0 time=0.10377363333333331
EXTRACT: note_on channel=0 note=55 velocity=0 time=0.04245284999999999
EXTRACT: note_on channel=0 note=64 velocity=0 time=0
EXTRACT: note_on channel=0 note=67 velocity=0 time=0
EXTRACT: note_on channel=0 note=40 velocity=0 time=0
EXTRACT: note_on channel=0 note=59 velocity=0 time=0
EXTRACT: note_on channel=1 note=28 velocity=0 time=0
EXTRACT: note_on channel=6 note=64 velocity=0 time=0
EXTRACT: note_on channel=6 note=67 velocity=0 time=0
EXTRACT: note_on channel=6 note=71 velocity=0 time=0
EXTRACT: note_on channel=8 note=62 velocity=100 time=0.014150949999999997
EXTRACT: note_on channel=7 note=62 velocity=100 time=0.004716983333333332
EXTRACT: note_on channel=9 note=35 velocity=90 time=0.004716983333333332
EXTRACT: note_on channel=9 note=42 velocity=90 time=0
EXTRACT: note_on channel=1 note=38 velocity=75 time=0.004716983333333332
EXTRACT: note_on channel=9 note=75 velocity=61 time=0
EXTRACT: note_on channel=0 note=69 velocity=47 time=0.004716983333333332
EXTRACT: note_on channel=0 note=50 velocity=47 time=0
EXTRACT: note_on channel=5 note=57 velocity=44 time=0
EXTRACT: note_on channel=0 note=66 velocity=45 time=0.004716983333333332
EXTRACT: note_on channel=0 note=62 velocity=45 time=0
EXTRACT: note_on channel=0 note=57 velocity=45 time=0
EXTRACT: note_on channel=6 note=74 velocity=52 time=0
EXTRACT: note_on channel=9 note=42 velocity=0 time=0.01886793333333333
EXTRACT: note_on channel=9 note=35 velocity=0 time=0
EXTRACT: note_on channel=9 note=75 velocity=0 time=0.004716983333333332
EXTRACT: note_on channel=8 note=62 velocity=0 time=0.2311321833333333
EXTRACT: note_on channel=8 note=62 velocity=100 time=0
EXTRACT: note_on channel=7 note=62 velocity=0 time=0.004716983333333332
EXTRACT: note_on channel=7 note=62 velocity=100 time=0
EXTRACT: note_on channel=9 note=42 velocity=75 time=0.009433966666666665
EXTRACT: note_on channel=9 note=42 velocity=0 time=0.033018883333333325
EXTRACT: note_on channel=8 note=62 velocity=0 time=0.2311321833333333
EXTRACT: note_on channel=7 note=62 velocity=0 time=0.004716983333333332
EXTRACT: note_on channel=6 note=69 velocity=46 time=0.014150949999999997
EXTRACT: note_on channel=8 note=62 velocity=100 time=0
EXTRACT: note_on channel=9 note=27 velocity=90 time=0
EXTRACT: note_on channel=9 note=75 velocity=71 time=0
EXTRACT: note_on channel=9 note=54 velocity=77 time=0
EXTRACT: note_on channel=9 note=39 velocity=90 time=0
EXTRACT: note_on channel=9 note=42 velocity=90 time=0
EXTRACT: note_on channel=7 note=62 velocity=100 time=0.004716983333333332
EXTRACT: note_on channel=9 note=42 velocity=0 time=0.028301899999999994
EXTRACT: note_on channel=9 note=54 velocity=0 time=0
EXTRACT: note_on channel=9 note=27 velocity=0 time=0
EXTRACT: note_on channel=9 note=75 velocity=0 time=0
EXTRACT: note_on channel=9 note=39 velocity=0 time=0
EXTRACT: note_on channel=1 note=38 velocity=0 time=0.16509441666666663
EXTRACT: note_on channel=5 note=57 velocity=0 time=0.08018871666666665
EXTRACT: note_on channel=8 note=62 velocity=0 time=0
EXTRACT: note_on channel=8 note=62 velocity=100 time=0
EXTRACT: note_on channel=7 note=62 velocity=0 time=0.004716983333333332
EXTRACT: note_on channel=7 note=62 velocity=100 time=0
EXTRACT: note_on channel=9 note=35 velocity=90 time=0
EXTRACT: note_on channel=9 note=75 velocity=59 time=0
EXTRACT: note_on channel=9 note=27 velocity=90 time=0
EXTRACT: note_on channel=9 note=42 velocity=90 time=0
EXTRACT: note_on channel=1 note=38 velocity=75 time=0.004716983333333332
EXTRACT: note_on channel=0 note=74 velocity=58 time=0.004716983333333332
EXTRACT: note_on channel=5 note=62 velocity=47 time=0
EXTRACT: note_on channel=9 note=42 velocity=0 time=0.023584916666666664
EXTRACT: note_on channel=9 note=35 velocity=0 time=0
EXTRACT: note_on channel=9 note=75 velocity=0 time=0
EXTRACT: note_on channel=9 note=27 velocity=0 time=0
EXTRACT: note_on channel=8 note=62 velocity=0 time=0.24056614999999995
EXTRACT: note_on channel=8 note=64 velocity=100 time=0
EXTRACT: note_on channel=7 note=62 velocity=0 time=0.004716983333333332
EXTRACT: note_on channel=7 note=64 velocity=100 time=0
EXTRACT: note_on channel=6 note=66 velocity=50 time=0.004716983333333332
EXTRACT: note_on channel=9 note=27 velocity=90 time=0
EXTRACT: note_on channel=9 note=42 velocity=90 time=0
EXTRACT: note_on channel=9 note=42 velocity=0 time=0.033018883333333325
EXTRACT: note_on channel=9 note=27 velocity=0 time=0
EXTRACT: note_on channel=9 note=75 velocity=61 time=0.2500001166666666
EXTRACT: note_on channel=9 note=42 velocity=69 time=0
EXTRACT: note_on channel=9 note=35 velocity=90 time=0
EXTRACT: note_on channel=9 note=35 velocity=0 time=0.033018883333333325
EXTRACT: note_on channel=9 note=42 velocity=0 time=0.03773586666666666
EXTRACT: note_on channel=9 note=75 velocity=0 time=0.06132078333333332
EXTRACT: note_on channel=9 note=42 velocity=48 time=0.009433966666666665
EXTRACT: note_on channel=9 note=42 velocity=0 time=0.01886793333333333
EXTRACT: note_on channel=8 note=64 velocity=0 time=0.07075474999999999
EXTRACT: note_on channel=7 note=64 velocity=0 time=0.004716983333333332
EXTRACT: note_on channel=8 note=60 velocity=100 time=0.033018883333333325
EXTRACT: note_on channel=7 note=60 velocity=100 time=0.004716983333333332
EXTRACT: note_on channel=9 note=75 velocity=65 time=0.009433966666666665
EXTRACT: note_on channel=9 note=27 velocity=90 time=0
EXTRACT: note_on channel=9 note=39 velocity=90 time=0
EXTRACT: note_on channel=9 note=42 velocity=90 time=0
EXTRACT: note_on channel=9 note=54 velocity=77 time=0
EXTRACT: note_on channel=9 note=54 velocity=0 time=0.033018883333333325
EXTRACT: note_on channel=9 note=39 velocity=0 time=0
EXTRACT: note_on channel=9 note=75 velocity=0 time=0
EXTRACT: note_on channel=9 note=27 velocity=0 time=0
EXTRACT: note_on channel=9 note=42 velocity=0 time=0
EXTRACT: note_on channel=0 note=50 velocity=0 time=0.1462264833333333
EXTRACT: note_on channel=1 note=38 velocity=0 time=0.004716983333333332
EXTRACT: note_on channel=8 note=60 velocity=0 time=0.08018871666666665
EXTRACT: note_on channel=7 note=60 velocity=0 time=0.004716983333333332
EXTRACT: note_on channel=0 note=74 velocity=0 time=0.004716983333333332
EXTRACT: note_on channel=8 note=59 velocity=100 time=0.004716983333333332
EXTRACT: note_on channel=0 note=50 velocity=52 time=0.004716983333333332
EXTRACT: note_on channel=1 note=38 velocity=60 time=0
EXTRACT: note_on channel=7 note=59 velocity=100 time=0
EXTRACT: note_on channel=9 note=75 velocity=65 time=0
EXTRACT: note_on channel=9 note=27 velocity=90 time=0
EXTRACT: note_on channel=9 note=42 velocity=90 time=0
EXTRACT: note_on channel=0 note=62 velocity=0 time=0.014150949999999997
EXTRACT: note_on channel=0 note=57 velocity=0 time=0
EXTRACT: note_on channel=0 note=66 velocity=0 time=0
EXTRACT: note_on channel=0 note=69 velocity=0 time=0.04245284999999999
EXTRACT: note_on channel=9 note=27 velocity=0 time=0.033018883333333325
EXTRACT: note_on channel=9 note=75 velocity=0 time=0.01886793333333333
EXTRACT: note_on channel=9 note=42 velocity=0 time=0.004716983333333332
EXTRACT: note_on channel=0 note=50 velocity=0 time=0.08018871666666665
EXTRACT: note_on channel=5 note=62 velocity=0 time=0.004716983333333332
EXTRACT: note_on channel=1 note=38 velocity=0 time=0.06132078333333332
EXTRACT: note_on channel=6 note=66 velocity=0 time=0
EXTRACT: note_on channel=6 note=69 velocity=0 time=0
EXTRACT: note_on channel=6 note=74 velocity=0 time=0
EXTRACT: note_on channel=8 note=59 velocity=0 time=0.014150949999999997
EXTRACT: note_on channel=8 note=60 velocity=100 time=0
EXTRACT: note_on channel=7 note=59 velocity=0 time=0.004716983333333332
EXTRACT: note_on channel=7 note=60 velocity=100 time=0
EXTRACT: note_on channel=9 note=35 velocity=90 time=0.004716983333333332
EXTRACT: note_on channel=9 note=75 velocity=61 time=0
EXTRACT: note_on channel=6 note=64 velocity=52 time=0.004716983333333332
EXTRACT: note_on channel=9 note=42 velocity=90 time=0
EXTRACT: note_on channel=0 note=64 velocity=47 time=0.004716983333333332
EXTRACT: note_on channel=0 note=45 velocity=47 time=0
EXTRACT: note_on channel=1 note=33 velocity=83 time=0
EXTRACT: note_on channel=5 note=52 velocity=45 time=0
EXTRACT: note_on channel=0 note=64 velocity=45 time=0.004716983333333332
EXTRACT: note_on channel=0 note=60 velocity=45 time=0
EXTRACT: note_on channel=0 note=57 velocity=45 time=0
EXTRACT: note_on channel=6 note=60 velocity=50 time=0
EXTRACT: note_on channel=9 note=35 velocity=0 time=0.01886793333333333
EXTRACT: note_on channel=9 note=42 velocity=0 time=0.004716983333333332
EXTRACT: note_on channel=9 note=75 velocity=0 time=0.04716983333333333
EXTRACT: note_on channel=1 note=33 velocity=0 time=0.18396234999999997
EXTRACT: note_on channel=8 note=60 velocity=0 time=0
EXTRACT: note_on channel=8 note=59 velocity=100 time=0
EXTRACT: note_on channel=7 note=60 velocity=0 time=0.004716983333333332
EXTRACT: note_on channel=7 note=59 velocity=100 time=0
EXTRACT: note_on channel=1 note=33 velocity=70 time=0.009433966666666665
EXTRACT: note_on channel=9 note=42 velocity=73 time=0
EXTRACT: note_on channel=9 note=42 velocity=0 time=0.033018883333333325
EXTRACT: note_on channel=9 note=42 velocity=55 time=0.10849061666666665
EXTRACT: note_on channel=9 note=42 velocity=0 time=0.01886793333333333
EXTRACT: note_on channel=8 note=59 velocity=0 time=0.10377363333333331
EXTRACT: note_on channel=7 note=59 velocity=0 time=0.004716983333333332
EXTRACT: note_on channel=8 note=57 velocity=100 time=0.004716983333333332
EXTRACT: note_on channel=7 note=57 velocity=100 time=0.004716983333333332
EXTRACT: note_on channel=6 note=69 velocity=52 time=0.004716983333333332
EXTRACT: note_on channel=9 note=42 velocity=90 time=0
EXTRACT: note_on channel=9 note=54 velocity=77 time=0
EXTRACT: note_on channel=9 note=39 velocity=90 time=0
EXTRACT: note_on channel=9 note=27 velocity=90 time=0
EXTRACT: note_on channel=9 note=75 velocity=71 time=0
EXTRACT: note_on channel=9 note=75 velocity=0 time=0.033018883333333325
EXTRACT: note_on channel=9 note=39 velocity=0 time=0
EXTRACT: note_on channel=9 note=42 velocity=0 time=0
EXTRACT: note_on channel=9 note=54 velocity=0 time=0
EXTRACT: note_on channel=9 note=27 velocity=0 time=0
EXTRACT: note_on channel=1 note=33 velocity=0 time=0.10849061666666665
EXTRACT: note_on channel=8 note=57 velocity=0 time=0.14150949999999998
EXTRACT: note_on channel=9 note=75 velocity=59 time=0
EXTRACT: note_on channel=9 note=27 velocity=90 time=0
EXTRACT: note_on channel=9 note=35 velocity=90 time=0
EXTRACT: note_on channel=9 note=42 velocity=67 time=0
EXTRACT: note_on channel=5 note=52 velocity=0 time=0.004716983333333332
EXTRACT: note_on channel=7 note=57 velocity=0 time=0
EXTRACT: note_on channel=1 note=33 velocity=54 time=0.004716983333333332
EXTRACT: note_on channel=5 note=57 velocity=45 time=0
EXTRACT: note_on channel=8 note=57 velocity=100 time=0
EXTRACT: note_on channel=7 note=57 velocity=100 time=0.004716983333333332
EXTRACT: note_on channel=9 note=42 velocity=0 time=0.01886793333333333
EXTRACT: note_on channel=9 note=75 velocity=0 time=0
EXTRACT: note_on channel=9 note=27 velocity=0 time=0
EXTRACT: note_on channel=9 note=35 velocity=0 time=0
EXTRACT: note_on channel=6 note=64 velocity=0 time=0.18396234999999997
EXTRACT: note_on channel=8 note=57 velocity=0 time=0.051886816666666655
EXTRACT: note_on channel=8 note=60 velocity=100 time=0
EXTRACT: note_on channel=1 note=33 velocity=0 time=0.004716983333333332
EXTRACT: note_on channel=7 note=57 velocity=0 time=0
EXTRACT: note_on channel=7 note=60 velocity=100 time=0
EXTRACT: note_on channel=6 note=64 velocity=46 time=0.009433966666666665
EXTRACT: note_on channel=9 note=75 velocity=61 time=0
EXTRACT: note_on channel=9 note=42 velocity=90 time=0
EXTRACT: note_on channel=9 note=27 velocity=90 time=0
EXTRACT: note_on channel=1 note=33 velocity=68 time=0.009433966666666665
EXTRACT: note_on channel=9 note=27 velocity=0 time=0.023584916666666664
EXTRACT: note_on channel=9 note=42 velocity=0 time=0
EXTRACT: note_on channel=9 note=75 velocity=0 time=0
EXTRACT: note_on channel=8 note=59 velocity=100 time=0.24056614999999995
EXTRACT: note_on channel=7 note=59 velocity=100 time=0.004716983333333332
EXTRACT: note_on channel=8 note=60 velocity=0 time=0
EXTRACT: note_on channel=7 note=60 velocity=0 time=0.004716983333333332
EXTRACT: note_on channel=9 note=35 velocity=90 time=0
EXTRACT: note_on channel=9 note=42 velocity=90 time=0
EXTRACT: note_on channel=9 note=42 velocity=0 time=0.033018883333333325
EXTRACT: note_on channel=9 note=35 velocity=0 time=0
EXTRACT: note_on channel=8 note=57 velocity=100 time=0.2452831333333333
EXTRACT: note_on channel=7 note=57 velocity=100 time=0.004716983333333332
EXTRACT: note_on channel=8 note=59 velocity=0 time=0
EXTRACT: note_on channel=9 note=39 velocity=90 time=0
EXTRACT: note_on channel=9 note=42 velocity=90 time=0
EXTRACT: note_on channel=9 note=75 velocity=65 time=0
EXTRACT: note_on channel=9 note=54 velocity=77 time=0
EXTRACT: note_on channel=9 note=27 velocity=90 time=0
EXTRACT: note_on channel=7 note=59 velocity=0 time=0.004716983333333332
EXTRACT: note_on channel=9 note=27 velocity=0 time=0.014150949999999997
EXTRACT: note_on channel=9 note=75 velocity=0 time=0
EXTRACT: note_on channel=9 note=39 velocity=0 time=0
EXTRACT: note_on channel=9 note=42 velocity=0 time=0
EXTRACT: note_on channel=9 note=54 velocity=0 time=0
EXTRACT: note_on channel=9 note=39 velocity=75 time=0.12264156666666665
EXTRACT: note_on channel=9 note=39 velocity=0 time=0.01886793333333333
EXTRACT: note_on channel=1 note=33 velocity=0 time=0.11320759999999998
EXTRACT: note_on channel=1 note=33 velocity=56 time=0.009433966666666665
EXTRACT: note_on channel=9 note=39 velocity=83 time=0
EXTRACT: note_on channel=9 note=75 velocity=65 time=0
EXTRACT: note_on channel=9 note=42 velocity=90 time=0
EXTRACT: note_on channel=9 note=27 velocity=90 time=0
EXTRACT: note_on channel=8 note=57 velocity=0 time=0.004716983333333332
EXTRACT: note_on channel=7 note=57 velocity=0 time=0.004716983333333332
EXTRACT: note_on channel=9 note=27 velocity=0 time=0.08018871666666665
EXTRACT: note_on channel=9 note=75 velocity=0 time=0.01886793333333333
EXTRACT: note_on channel=9 note=42 velocity=0 time=0.004716983333333332
EXTRACT: note_on channel=9 note=39 velocity=0 time=0.023584916666666664
EXTRACT: note_on channel=5 note=57 velocity=0 time=0.10849061666666665
EXTRACT: note_on channel=0 note=57 velocity=0 time=0.014150949999999997
EXTRACT: note_on channel=0 note=64 velocity=0 time=0
EXTRACT: note_on channel=0 note=64 velocity=0 time=0
EXTRACT: note_on channel=0 note=45 velocity=0 time=0
EXTRACT: note_on channel=0 note=60 velocity=0 time=0
EXTRACT: note_on channel=1 note=33 velocity=0 time=0
EXTRACT: note_on channel=6 note=64 velocity=0 time=0
EXTRACT: note_on channel=6 note=69 velocity=0 time=0
EXTRACT: note_on channel=6 note=60 velocity=0 time=0
EXTRACT: note_on channel=7 note=57 velocity=100 time=0.023584916666666664
EXTRACT: note_on channel=9 note=75 velocity=61 time=0
EXTRACT: note_on channel=9 note=35 velocity=90 time=0
EXTRACT: note_on channel=1 note=33 velocity=75 time=0.004716983333333332
EXTRACT: note_on channel=9 note=42 velocity=90 time=0
EXTRACT: note_on channel=0 note=69 velocity=47 time=0.004716983333333332
EXTRACT: note_on channel=0 note=45 velocity=47 time=0
EXTRACT: note_on channel=5 note=52 velocity=44 time=0
EXTRACT: note_on channel=5 note=57 velocity=47 time=0
EXTRACT: note_on channel=0 note=64 velocity=45 time=0.004716983333333332
EXTRACT: note_on channel=0 note=60 velocity=45 time=0
EXTRACT: note_on channel=0 note=57 velocity=45 time=0
EXTRACT: note_on channel=6 note=69 velocity=52 time=0
EXTRACT: note_on channel=8 note=57 velocity=100 time=0
EXTRACT: note_on channel=9 note=35 velocity=0 time=0.01886793333333333
EXTRACT: note_on channel=9 note=42 velocity=0 time=0.004716983333333332
EXTRACT: note_on channel=9 note=75 velocity=0 time=0.04716983333333333
EXTRACT: note_on channel=8 note=59 velocity=100 time=0.17924536666666663
EXTRACT: note_on channel=7 note=59 velocity=100 time=0.01886793333333333
EXTRACT: note_on channel=9 note=42 velocity=73 time=0
EXTRACT: note_on channel=7 note=57 velocity=0 time=0.009433966666666665
EXTRACT: note_on channel=8 note=57 velocity=0 time=0
EXTRACT: note_on channel=9 note=42 velocity=0 time=0.023584916666666664
EXTRACT: note_on channel=8 note=59 velocity=0 time=0.22641519999999996
EXTRACT: note_on channel=7 note=60 velocity=100 time=0.014150949999999997
EXTRACT: note_on channel=6 note=64 velocity=46 time=0.009433966666666665
EXTRACT: note_on channel=8 note=60 velocity=100 time=0
EXTRACT: note_on channel=9 note=42 velocity=90 time=0
EXTRACT: note_on channel=9 note=75 velocity=71 time=0
EXTRACT: note_on channel=9 note=27 velocity=90 time=0
EXTRACT: note_on channel=9 note=54 velocity=77 time=0
EXTRACT: note_on channel=9 note=39 velocity=90 time=0
EXTRACT: note_on channel=7 note=59 velocity=0 time=0.009433966666666665
EXTRACT: note_on channel=9 note=39 velocity=0 time=0.023584916666666664
EXTRACT: note_on channel=9 note=27 velocity=0 time=0
EXTRACT: note_on channel=9 note=42 velocity=0 time=0
EXTRACT: note_on channel=9 note=75 velocity=0 time=0
EXTRACT: note_on channel=9 note=54 velocity=0 time=0
EXTRACT: note_on channel=1 note=33 velocity=0 time=0.1603774333333333
EXTRACT: note_on channel=7 note=62 velocity=100 time=0.08490569999999999
EXTRACT: note_on channel=8 note=60 velocity=0 time=0
EXTRACT: note_on channel=8 note=62 velocity=100 time=0
EXTRACT: note_on channel=7 note=60 velocity=0 time=0.004716983333333332
EXTRACT: note_on channel=9 note=75 velocity=59 time=0
EXTRACT: note_on channel=9 note=35 velocity=90 time=0
EXTRACT: note_on channel=9 note=27 velocity=90 time=0
EXTRACT: note_on channel=9 note=42 velocity=67 time=0
EXTRACT: note_on channel=1 note=33 velocity=75 time=0.004716983333333332
EXTRACT: note_on channel=0 note=64 velocity=58 time=0.004716983333333332
EXTRACT: note_on channel=9 note=42 velocity=0 time=0.023584916666666664
EXTRACT: note_on channel=9 note=75 velocity=0 time=0
EXTRACT: note_on channel=9 note=35 velocity=0 time=0
EXTRACT: note_on channel=9 note=27 velocity=0 time=0
EXTRACT: note_on channel=1 note=33 velocity=0 time=0.22169821666666661
EXTRACT: note_on channel=7 note=64 velocity=100 time=0.01886793333333333
EXTRACT: note_on channel=8 note=62 velocity=0 time=0
EXTRACT: note_on channel=1 note=33 velocity=71 time=0.009433966666666665
EXTRACT: note_on channel=6 note=60 velocity=50 time=0
EXTRACT: note_on channel=8 note=64 velocity=100 time=0
EXTRACT: note_on channel=9 note=75 velocity=61 time=0
EXTRACT: note_on channel=9 note=27 velocity=90 time=0
EXTRACT: note_on channel=9 note=42 velocity=90 time=0
EXTRACT: note_on channel=7 note=62 velocity=0 time=0.004716983333333332
EXTRACT: note_on channel=9 note=42 velocity=0 time=0.028301899999999994
EXTRACT: note_on channel=9 note=27 velocity=0 time=0
EXTRACT: note_on channel=9 note=75 velocity=0 time=0
EXTRACT: note_on channel=1 note=33 velocity=0 time=0.2500001166666666
EXTRACT: note_on channel=9 note=35 velocity=90 time=0
EXTRACT: note_on channel=9 note=42 velocity=90 time=0
EXTRACT: note_on channel=1 note=33 velocity=81 time=0.004716983333333332
EXTRACT: note_on channel=9 note=42 velocity=0 time=0.028301899999999994
EXTRACT: note_on channel=9 note=35 velocity=0 time=0
EXTRACT: note_on channel=8 note=64 velocity=0 time=0.20754726666666662
EXTRACT: note_on channel=7 note=64 velocity=0 time=0.033018883333333325
EXTRACT: note_on channel=8 note=62 velocity=100 time=0
EXTRACT: note_on channel=7 note=62 velocity=100 time=0.009433966666666665
EXTRACT: note_on channel=9 note=54 velocity=77 time=0
EXTRACT: note_on channel=9 note=39 velocity=90 time=0
EXTRACT: note_on channel=9 note=75 velocity=65 time=0
EXTRACT: note_on channel=9 note=27 velocity=90 time=0
EXTRACT: note_on channel=9 note=42 velocity=90 time=0
EXTRACT: note_on channel=9 note=42 velocity=0 time=0.033018883333333325
EXTRACT: note_on channel=9 note=75 velocity=0 time=0
EXTRACT: note_on channel=9 note=54 velocity=0 time=0
EXTRACT: note_on channel=9 note=39 velocity=0 time=0
EXTRACT: note_on channel=9 note=27 velocity=0 time=0
EXTRACT: note_on channel=1 note=33 velocity=0 time=0.12735855
EXTRACT: note_on channel=0 note=45 velocity=0 time=0.014150949999999997
EXTRACT: note_on channel=8 note=60 velocity=100 time=0.08018871666666665
EXTRACT: note_on channel=0 note=57 velocity=0 time=0.009433966666666665
EXTRACT: note_on channel=0 note=60 velocity=0 time=0
EXTRACT: note_on channel=0 note=64 velocity=0 time=0
EXTRACT: note_on channel=8 note=62 velocity=0 time=0.004716983333333332
EXTRACT: note_on channel=0 note=64 velocity=0 time=0.004716983333333332
EXTRACT: note_on channel=0 note=45 velocity=52 time=0.009433966666666665
EXTRACT: note_on channel=1 note=33 velocity=75 time=0
EXTRACT: note_on channel=7 note=60 velocity=100 time=0
EXTRACT: note_on channel=9 note=75 velocity=65 time=0
EXTRACT: note_on channel=9 note=27 velocity=90 time=0
EXTRACT: note_on channel=9 note=42 velocity=90 time=0
EXTRACT: note_on channel=7 note=62 velocity=0 time=0.009433966666666665
EXTRACT: note_on channel=9 note=27 velocity=0 time=0.08018871666666665
EXTRACT: note_on channel=9 note=75 velocity=0 time=0.01886793333333333
EXTRACT: note_on channel=9 note=42 velocity=0 time=0.004716983333333332
EXTRACT: note_on channel=0 note=69 velocity=0 time=0.04716983333333333
EXTRACT: note_on channel=5 note=57 velocity=0 time=0.009433966666666665
EXTRACT: note_on channel=5 note=52 velocity=0 time=0
EXTRACT: note_on channel=8 note=60 velocity=0 time=0.08018871666666665
EXTRACT: note_on channel=0 note=45 velocity=0 time=0.009433966666666665
EXTRACT: note_on channel=1 note=33 velocity=0 time=0
EXTRACT: note_on channel=6 note=60 velocity=0 time=0
EXTRACT: note_on channel=6 note=64 velocity=0 time=0
EXTRACT: note_on channel=6 note=69 velocity=0 time=0
EXTRACT: note_on channel=7 note=62 velocity=100 time=0.014150949999999997
EXTRACT: note_on channel=8 note=62 velocity=100 time=0
EXTRACT: note_on channel=9 note=35 velocity=90 time=0.009433966666666665
EXTRACT: note_on channel=9 note=75 velocity=61 time=0
EXTRACT: note_on channel=1 note=28 velocity=75 time=0.004716983333333332
EXTRACT: note_on channel=6 note=67 velocity=52 time=0
EXTRACT: note_on channel=9 note=42 velocity=90 time=0
EXTRACT: note_on channel=0 note=67 velocity=47 time=0.004716983333333332
EXTRACT: note_on channel=0 note=40 velocity=47 time=0
EXTRACT: note_on channel=5 note=59 velocity=45 time=0
EXTRACT: note_on channel=7 note=60 velocity=0 time=0
EXTRACT: note_on channel=0 note=64 velocity=45 time=0.004716983333333332
EXTRACT: note_on channel=0 note=59 velocity=45 time=0
EXTRACT: note_on channel=0 note=55 velocity=45 time=0
EXTRACT: note_on channel=6 note=64 velocity=50 time=0
EXTRACT: note_on channel=9 note=35 velocity=0 time=0.01886793333333333
EXTRACT: note_on channel=9 note=42 velocity=0 time=0.004716983333333332
EXTRACT: note_on channel=9 note=75 velocity=0 time=0.04716983333333333
EXTRACT: note_on channel=8 note=62 velocity=0 time=0.18396234999999997
EXTRACT: note_on channel=7 note=60 velocity=100 time=0.004716983333333332
EXTRACT: note_on channel=7 note=62 velocity=0 time=0.009433966666666665
EXTRACT: note_on channel=8 note=60 velocity=100 time=0
EXTRACT: note_on channel=9 note=42 velocity=73 time=0
EXTRACT: note_on channel=9 note=42 velocity=0 time=0.033018883333333325
EXTRACT: note_on channel=9 note=42 velocity=55 time=0.10849061666666665
EXTRACT: note_on channel=9 note=42 velocity=0 time=0.01886793333333333
EXTRACT: note_on channel=7 note=59 velocity=100 time=0.11320759999999998
EXTRACT: note_on channel=8 note=60 velocity=0 time=0.004716983333333332
EXTRACT: note_on channel=6 note=71 velocity=52 time=0.004716983333333332
EXTRACT: note_on channel=7 note=60 velocity=0 time=0
EXTRACT: note_on channel=8 note=59 velocity=100 time=0
EXTRACT: note_on channel=9 note=39 velocity=90 time=0
EXTRACT: note_on channel=9 note=54 velocity=77 time=0
EXTRACT: note_on channel=9 note=27 velocity=90 time=0
EXTRACT: note_on channel=9 note=75 velocity=71 time=0
EXTRACT: note_on channel=9 note=42 velocity=90 time=0
EXTRACT: note_on channel=9 note=42 velocity=0 time=0.033018883333333325
EXTRACT: note_on channel=9 note=27 velocity=0 time=0
EXTRACT: note_on channel=9 note=39 velocity=0 time=0
EXTRACT: note_on channel=9 note=54 velocity=0 time=0
EXTRACT: note_on channel=9 note=75 velocity=0 time=0
EXTRACT: note_on channel=1 note=28 velocity=0 time=0.1603774333333333
EXTRACT: note_on channel=7 note=59 velocity=0 time=0.08962268333333331
EXTRACT: note_on channel=9 note=75 velocity=59 time=0
EXTRACT: note_on channel=9 note=42 velocity=67 time=0
EXTRACT: note_on channel=9 note=27 velocity=90 time=0
EXTRACT: note_on channel=9 note=35 velocity=90 time=0
EXTRACT: note_on channel=1 note=28 velocity=75 time=0.004716983333333332
EXTRACT: note_on channel=0 note=71 velocity=58 time=0.004716983333333332
EXTRACT: note_on channel=9 note=35 velocity=0 time=0.023584916666666664
EXTRACT: note_on channel=9 note=75 velocity=0 time=0
EXTRACT: note_on channel=9 note=42 velocity=0 time=0
EXTRACT: note_on channel=9 note=27 velocity=0 time=0
EXTRACT: note_on channel=6 note=67 velocity=0 time=0.18396234999999997
EXTRACT: note_on channel=8 note=59 velocity=0 time=0.023584916666666664
EXTRACT: note_on channel=1 note=28 velocity=0 time=0.014150949999999997
EXTRACT: note_on channel=1 note=28 velocity=71 time=0.028301899999999994
EXTRACT: note_on channel=6 note=67 velocity=46 time=0
EXTRACT: note_on channel=9 note=75 velocity=61 time=0
EXTRACT: note_on channel=9 note=42 velocity=90 time=0
EXTRACT: note_on channel=9 note=27 velocity=90 time=0
EXTRACT: note_on channel=9 note=27 velocity=0 time=0.033018883333333325
EXTRACT: note_on channel=9 note=42 velocity=0 time=0
EXTRACT: note_on channel=9 note=75 velocity=0 time=0
EXTRACT: note_on channel=1 note=28 velocity=0 time=0.2500001166666666
EXTRACT: note_on channel=9 note=42 velocity=90 time=0
EXTRACT: note_on channel=9 note=35 velocity=90 time=0
EXTRACT: note_on channel=1 note=28 velocity=81 time=0.004716983333333332
EXTRACT: note_on channel=9 note=35 velocity=0 time=0.028301899999999994
EXTRACT: note_on channel=9 note=42 velocity=0 time=0
EXTRACT: note_on channel=9 note=75 velocity=65 time=0.2500001166666666
EXTRACT: note_on channel=9 note=42 velocity=90 time=0
EXTRACT: note_on channel=9 note=54 velocity=77 time=0
EXTRACT: note_on channel=9 note=39 velocity=90 time=0
EXTRACT: note_on channel=9 note=27 velocity=90 time=0
EXTRACT: note_on channel=9 note=39 velocity=0 time=0.033018883333333325
EXTRACT: note_on channel=9 note=54 velocity=0 time=0
EXTRACT: note_on channel=9 note=27 velocity=0 time=0.06603776666666665
EXTRACT: note_on channel=9 note=42 velocity=0 time=0.009433966666666665
EXTRACT: note_on channel=9 note=75 velocity=0 time=0
EXTRACT: note_on channel=1 note=28 velocity=0 time=0.051886816666666655
EXTRACT: note_on channel=0 note=40 velocity=0 time=0.01886793333333333
EXTRACT: note_on channel=0 note=71 velocity=0 time=0.09433966666666666
EXTRACT: note_on channel=0 note=40 velocity=52 time=0.009433966666666665
EXTRACT: note_on channel=1 note=28 velocity=75 time=0
EXTRACT: note_on channel=9 note=39 velocity=83 time=0
EXTRACT: note_on channel=9 note=42 velocity=90 time=0
EXTRACT: note_on channel=9 note=75 velocity=65 time=0
EXTRACT: note_on channel=9 note=27 velocity=90 time=0
EXTRACT: note_on channel=0 note=59 velocity=0 time=0.014150949999999997
EXTRACT: note_on channel=0 note=55 velocity=0 time=0
EXTRACT: note_on channel=0 note=64 velocity=0 time=0
EXTRACT: note_on channel=0 note=67 velocity=0 time=0.04245284999999999
EXTRACT: note_on channel=9 note=27 velocity=0 time=0.033018883333333325
EXTRACT: note_on channel=9 note=75 velocity=0 time=0.01886793333333333
EXTRACT: note_on channel=9 note=42 velocity=0 time=0.004716983333333332
EXTRACT: note_on channel=9 note=39 velocity=0 time=0.023584916666666664
EXTRACT: note_on channel=0 note=40 velocity=0 time=0.05660379999999999
EXTRACT: note_on channel=5 note=59 velocity=0 time=0.023584916666666664
EXTRACT: note_on channel=1 note=28 velocity=0 time=0.04245284999999999
EXTRACT: note_on channel=6 note=67 velocity=0 time=0
EXTRACT: note_on channel=6 note=71 velocity=0 time=0
EXTRACT: note_on channel=6 note=64 velocity=0 time=0
EXTRACT: note_on channel=8 note=62 velocity=100 time=0.009433966666666665
EXTRACT: note_on channel=7 note=62 velocity=100 time=0.004716983333333332
EXTRACT: note_on channel=9 note=35 velocity=90 time=0.009433966666666665
EXTRACT: note_on channel=9 note=75 velocity=61 time=0
EXTRACT: note_on channel=6 note=69 velocity=52 time=0.004716983333333332
EXTRACT: note_on channel=9 note=42 velocity=90 time=0
EXTRACT: note_on channel=0 note=74 velocity=47 time=0.004716983333333332
EXTRACT: note_on channel=0 note=50 velocity=47 time=0
EXTRACT: note_on channel=1 note=38 velocity=83 time=0
EXTRACT: note_on channel=5 note=62 velocity=45 time=0
EXTRACT: note_on channel=0 note=66 velocity=45 time=0.004716983333333332
EXTRACT: note_on channel=0 note=62 velocity=45 time=0
EXTRACT: note_on channel=0 note=57 velocity=45 time=0
EXTRACT: note_on channel=6 note=66 velocity=50 time=0
EXTRACT: note_on channel=9 note=35 velocity=0 time=0.01886793333333333
EXTRACT: note_on channel=9 note=42 velocity=0 time=0.004716983333333332
EXTRACT: note_on channel=9 note=75 velocity=0 time=0.04716983333333333
EXTRACT: note_on channel=7 note=62 velocity=0 time=0.17924536666666663
EXTRACT: note_on channel=8 note=62 velocity=0 time=0
EXTRACT: note_on channel=8 note=62 velocity=100 time=0
EXTRACT: note_on channel=7 note=62 velocity=100 time=0.01886793333333333
EXTRACT: note_on channel=9 note=42 velocity=73 time=0
EXTRACT: note_on channel=9 note=42 velocity=0 time=0.033018883333333325
EXTRACT: note_on channel=9 note=42 velocity=55 time=0.10849061666666665
EXTRACT: note_on channel=9 note=42 velocity=0 time=0.01886793333333333
EXTRACT: note_on channel=8 note=62 velocity=0 time=0.09905664999999998
EXTRACT: note_on channel=7 note=62 velocity=0 time=0.014150949999999997
EXTRACT: note_on channel=7 note=62 velocity=100 time=0.004716983333333332
EXTRACT: note_on channel=8 note=62 velocity=100 time=0
EXTRACT: note_on channel=6 note=74 velocity=52 time=0.004716983333333332
EXTRACT: note_on channel=9 note=54 velocity=77 time=0
EXTRACT: note_on channel=9 note=75 velocity=71 time=0
EXTRACT: note_on channel=9 note=27 velocity=90 time=0
EXTRACT: note_on channel=9 note=39 velocity=90 time=0
EXTRACT: note_on channel=9 note=42 velocity=90 time=0
EXTRACT: note_on channel=9 note=42 velocity=0 time=0.033018883333333325
EXTRACT: note_on channel=9 note=27 velocity=0 time=0
EXTRACT: note_on channel=9 note=54 velocity=0 time=0
EXTRACT: note_on channel=9 note=75 velocity=0 time=0
EXTRACT: note_on channel=9 note=39 velocity=0 time=0
EXTRACT: note_on channel=5 note=62 velocity=0 time=0.22641519999999996
EXTRACT: note_on channel=7 note=62 velocity=0 time=0.009433966666666665
EXTRACT: note_on channel=1 note=38 velocity=0 time=0.004716983333333332
EXTRACT: note_on channel=8 note=62 velocity=0 time=0
EXTRACT: note_on channel=8 note=62 velocity=100 time=0
EXTRACT: note_on channel=1 note=38 velocity=70 time=0.009433966666666665
EXTRACT: note_on channel=9 note=75 velocity=59 time=0
EXTRACT: note_on channel=9 note=42 velocity=67 time=0
EXTRACT: note_on channel=9 note=27 velocity=90 time=0
EXTRACT: note_on channel=9 note=35 velocity=90 time=0
EXTRACT: note_on channel=7 note=62 velocity=100 time=0.004716983333333332
EXTRACT: note_on channel=0 note=69 velocity=58 time=0.004716983333333332
EXTRACT: note_on channel=5 note=57 velocity=45 time=0
EXTRACT: note_on channel=9 note=35 velocity=0 time=0.023584916666666664
EXTRACT: note_on channel=9 note=75 velocity=0 time=0
EXTRACT: note_on channel=9 note=42 velocity=0 time=0
EXTRACT: note_on channel=9 note=27 velocity=0 time=0
EXTRACT: note_on channel=1 note=38 velocity=0 time=0.18396234999999997
EXTRACT: note_on channel=6 note=69 velocity=0 time=0
EXTRACT: note_on channel=8 note=62 velocity=0 time=0.051886816666666655
EXTRACT: note_on channel=8 note=64 velocity=100 time=0
EXTRACT: note_on channel=7 note=62 velocity=0 time=0.009433966666666665
EXTRACT: note_on channel=7 note=64 velocity=100 time=0
EXTRACT: note_on channel=1 note=38 velocity=70 time=0.004716983333333332
EXTRACT: note_on channel=6 note=69 velocity=46 time=0
EXTRACT: note_on channel=9 note=42 velocity=90 time=0
EXTRACT: note_on channel=9 note=27 velocity=90 time=0
EXTRACT: note_on channel=9 note=75 velocity=61 time=0
EXTRACT: note_on channel=9 note=75 velocity=0 time=0.033018883333333325
EXTRACT: note_on channel=9 note=27 velocity=0 time=0
EXTRACT: note_on channel=9 note=42 velocity=0 time=0
EXTRACT: note_on channel=9 note=35 velocity=90 time=0.2500001166666666
EXTRACT: note_on channel=9 note=42 velocity=90 time=0
EXTRACT: note_on channel=9 note=42 velocity=0 time=0.033018883333333325
EXTRACT: note_on channel=9 note=35 velocity=0 time=0
EXTRACT: note_on channel=8 note=64 velocity=0 time=0.19339631666666662
EXTRACT: note_on channel=8 note=60 velocity=100 time=0.03773586666666666
EXTRACT: note_on channel=7 note=64 velocity=0 time=0.014150949999999997
EXTRACT: note_on channel=7 note=60 velocity=100 time=0
EXTRACT: note_on channel=9 note=27 velocity=90 time=0.004716983333333332
EXTRACT: note_on channel=9 note=39 velocity=90 time=0
EXTRACT: note_on channel=9 note=54 velocity=77 time=0
EXTRACT: note_on channel=9 note=75 velocity=65 time=0
EXTRACT: note_on channel=9 note=42 velocity=90 time=0
EXTRACT: note_on channel=9 note=42 velocity=0 time=0.033018883333333325
EXTRACT: note_on channel=9 note=54 velocity=0 time=0
EXTRACT: note_on channel=9 note=27 velocity=0 time=0
EXTRACT: note_on channel=9 note=39 velocity=0 time=0
EXTRACT: note_on channel=9 note=75 velocity=0 time=0
EXTRACT: note_on channel=0 note=50 velocity=0 time=0.14150949999999998
EXTRACT: note_on channel=8 note=60 velocity=0 time=0.08490569999999999
EXTRACT: note_on channel=0 note=57 velocity=0 time=0.004716983333333332
EXTRACT: note_on channel=0 note=62 velocity=0 time=0
EXTRACT: note_on channel=0 note=66 velocity=0 time=0
EXTRACT: note_on channel=7 note=60 velocity=0 time=0.004716983333333332
EXTRACT: note_on channel=0 note=69 velocity=0 time=0.004716983333333332
EXTRACT: note_on channel=8 note=59 velocity=100 time=0
EXTRACT: note_on channel=0 note=50 velocity=52 time=0.009433966666666665
EXTRACT: note_on channel=1 note=38 velocity=0 time=0
EXTRACT: note_on channel=9 note=27 velocity=90 time=0
EXTRACT: note_on channel=9 note=75 velocity=65 time=0
EXTRACT: note_on channel=9 note=42 velocity=90 time=0
EXTRACT: note_on channel=1 note=38 velocity=62 time=0.009433966666666665
EXTRACT: note_on channel=7 note=59 velocity=100 time=0.004716983333333332
EXTRACT: note_on channel=9 note=27 velocity=0 time=0.07547173333333332
EXTRACT: note_on channel=9 note=75 velocity=0 time=0.01886793333333333
EXTRACT: note_on channel=9 note=42 velocity=0 time=0.004716983333333332
EXTRACT: note_on channel=0 note=74 velocity=0 time=0.04716983333333333
EXTRACT: note_on channel=1 note=38 velocity=0 time=0.08018871666666665
EXTRACT: note_on channel=0 note=50 velocity=0 time=0.01886793333333333
EXTRACT: note_on channel=6 note=69 velocity=0 time=0
EXTRACT: note_on channel=6 note=74 velocity=0 time=0
EXTRACT: note_on channel=6 note=66 velocity=0 time=0
EXTRACT: note_on channel=5 note=57 velocity=0 time=0.004716983333333332
EXTRACT: note_on channel=8 note=59 velocity=0 time=0.004716983333333332
EXTRACT: note_on channel=8 note=60 velocity=100 time=0
EXTRACT: note_on channel=7 note=60 velocity=100 time=0.004716983333333332
EXTRACT: note_on channel=9 note=35 velocity=90 time=0.009433966666666665
EXTRACT: note_on channel=9 note=75 velocity=61 time=0
EXTRACT: note_on channel=6 note=64 velocity=52 time=0.004716983333333332
EXTRACT: note_on channel=7 note=59 velocity=0 time=0
EXTRACT: note_on channel=9 note=42 velocity=90 time=0
EXTRACT: note_on channel=0 note=69 velocity=47 time=0.004716983333333332
EXTRACT: note_on channel=0 note=45 velocity=47 time=0
EXTRACT: note_on channel=1 note=33 velocity=83 time=0
EXTRACT: note_on channel=0 note=64 velocity=45 time=0.004716983333333332
EXTRACT: note_on channel=0 note=60 velocity=45 time=0
EXTRACT: note_on channel=0 note=57 velocity=45 time=0
EXTRACT: note_on channel=6 note=69 velocity=52 time=0
EXTRACT: note_on channel=6 note=60 velocity=50 time=0
EXTRACT: note_on channel=9 note=35 velocity=0 time=0.01886793333333333
EXTRACT: note_on channel=9 note=42 velocity=0 time=0.004716983333333332
EXTRACT: note_on channel=9 note=75 velocity=0 time=0.04716983333333333
EXTRACT: note_on channel=7 note=60 velocity=0 time=0.17924536666666663
EXTRACT: note_on channel=8 note=60 velocity=0 time=0
EXTRACT: note_on channel=8 note=59 velocity=100 time=0
EXTRACT: note_on channel=9 note=42 velocity=73 time=0.01886793333333333
EXTRACT: note_on channel=7 note=59 velocity=100 time=0.004716983333333332
EXTRACT: note_on channel=9 note=42 velocity=0 time=0.028301899999999994
EXTRACT: note_on channel=9 note=42 velocity=55 time=0.10849061666666665
EXTRACT: note_on channel=9 note=42 velocity=0 time=0.01886793333333333
EXTRACT: note_on channel=8 note=59 velocity=0 time=0.09905664999999998
EXTRACT: note_on channel=8 note=57 velocity=100 time=0.009433966666666665
EXTRACT: note_on channel=7 note=59 velocity=0 time=0.009433966666666665
EXTRACT: note_on channel=7 note=57 velocity=100 time=0
EXTRACT: note_on channel=5 note=57 velocity=48 time=0.004716983333333332
EXTRACT: note_on channel=9 note=39 velocity=90 time=0
EXTRACT: note_on channel=9 note=75 velocity=71 time=0
EXTRACT: note_on channel=9 note=27 velocity=90 time=0
EXTRACT: note_on channel=9 note=54 velocity=77 time=0
EXTRACT: note_on channel=9 note=42 velocity=90 time=0
EXTRACT: note_on channel=9 note=42 velocity=0 time=0.033018883333333325
EXTRACT: note_on channel=9 note=27 velocity=0 time=0
EXTRACT: note_on channel=9 note=39 velocity=0 time=0
EXTRACT: note_on channel=9 note=75 velocity=0 time=0
EXTRACT: note_on channel=9 note=54 velocity=0 time=0
EXTRACT: note_on channel=1 note=33 velocity=0 time=0.22169821666666661
EXTRACT: note_on channel=7 note=57 velocity=0 time=0.014150949999999997
EXTRACT: note_on channel=8 note=57 velocity=0 time=0.009433966666666665
EXTRACT: note_on channel=9 note=35 velocity=90 time=0.004716983333333332
EXTRACT: note_on channel=9 note=42 velocity=67 time=0
EXTRACT: note_on channel=9 note=75 velocity=59 time=0
EXTRACT: note_on channel=9 note=27 velocity=90 time=0
EXTRACT: note_on channel=8 note=57 velocity=100 time=0.004716983333333332
EXTRACT: note_on channel=0 note=64 velocity=58 time=0.004716983333333332
EXTRACT: note_on channel=1 note=33 velocity=54 time=0
EXTRACT: note_on channel=9 note=27 velocity=0 time=0.023584916666666664
EXTRACT: note_on channel=9 note=35 velocity=0 time=0
EXTRACT: note_on channel=9 note=42 velocity=0 time=0
EXTRACT: note_on channel=9 note=75 velocity=0 time=0
EXTRACT: note_on channel=5 note=57 velocity=0 time=0.22169821666666661
EXTRACT: note_on channel=8 note=57 velocity=0 time=0.009433966666666665
EXTRACT: note_on channel=8 note=60 velocity=100 time=0
EXTRACT: note_on channel=1 note=33 velocity=0 time=0.009433966666666665
EXTRACT: note_on channel=7 note=60 velocity=100 time=0.004716983333333332
EXTRACT: note_on channel=5 note=52 velocity=42 time=0.004716983333333332
EXTRACT: note_on channel=9 note=75 velocity=61 time=0
EXTRACT: note_on channel=9 note=27 velocity=90 time=0
EXTRACT: note_on channel=9 note=42 velocity=90 time=0
EXTRACT: note_on channel=1 note=33 velocity=68 time=0.009433966666666665
EXTRACT: note_on channel=9 note=42 velocity=0 time=0.023584916666666664
EXTRACT: note_on channel=9 note=27 velocity=0 time=0
EXTRACT: note_on channel=9 note=75 velocity=0 time=0
EXTRACT: note_on channel=7 note=60 velocity=0 time=0.2358491666666666
EXTRACT: note_on channel=8 note=59 velocity=100 time=0
EXTRACT: note_on channel=8 note=60 velocity=0 time=0.004716983333333332
EXTRACT: note_on channel=7 note=59 velocity=100 time=0.009433966666666665
EXTRACT: note_on channel=9 note=42 velocity=90 time=0
EXTRACT: note_on channel=9 note=35 velocity=90 time=0
EXTRACT: note_on channel=9 note=35 velocity=0 time=0.033018883333333325
EXTRACT: note_on channel=9 note=42 velocity=0 time=0
EXTRACT: note_on channel=5 note=52 velocity=0 time=0.22169821666666661
EXTRACT: note_on channel=7 note=59 velocity=0 time=0.01886793333333333
EXTRACT: note_on channel=8 note=57 velocity=100 time=0
EXTRACT: note_on channel=1 note=33 velocity=0 time=0.004716983333333332
EXTRACT: note_on channel=7 note=57 velocity=100 time=0
EXTRACT: note_on channel=8 note=59 velocity=0 time=0
EXTRACT: note_on channel=1 note=33 velocity=70 time=0.004716983333333332
EXTRACT: note_on channel=5 note=48 velocity=46 time=0
EXTRACT: note_on channel=9 note=75 velocity=65 time=0
EXTRACT: note_on channel=9 note=54 velocity=77 time=0
EXTRACT: note_on channel=9 note=42 velocity=90 time=0
EXTRACT: note_on channel=9 note=27 velocity=90 time=0
EXTRACT: note_on channel=9 note=39 velocity=90 time=0
EXTRACT: note_on channel=9 note=39 velocity=0 time=0.01886793333333333
EXTRACT: note_on channel=9 note=42 velocity=0 time=0
EXTRACT: note_on channel=9 note=75 velocity=0 time=0
EXTRACT: note_on channel=9 note=54 velocity=0 time=0
EXTRACT: note_on channel=9 note=27 velocity=0 time=0
EXTRACT: note_on channel=9 note=39 velocity=75 time=0.12264156666666665
EXTRACT: note_on channel=9 note=39 velocity=0 time=0.01886793333333333
EXTRACT: note_on channel=0 note=45 velocity=0 time=0.014150949999999997
EXTRACT: note_on channel=0 note=57 velocity=0 time=0.08962268333333331
EXTRACT: note_on channel=0 note=60 velocity=0 time=0
EXTRACT: note_on channel=0 note=64 velocity=0 time=0
EXTRACT: note_on channel=7 note=57 velocity=0 time=0.004716983333333332
EXTRACT: note_on channel=0 note=64 velocity=0 time=0.004716983333333332
EXTRACT: note_on channel=1 note=33 velocity=0 time=0.004716983333333332
EXTRACT: note_on channel=0 note=45 velocity=52 time=0.004716983333333332
EXTRACT: note_on channel=1 note=33 velocity=56 time=0
EXTRACT: note_on channel=8 note=57 velocity=0 time=0
EXTRACT: note_on channel=9 note=75 velocity=65 time=0
EXTRACT: note_on channel=9 note=42 velocity=90 time=0
EXTRACT: note_on channel=9 note=27 velocity=90 time=0
EXTRACT: note_on channel=9 note=39 velocity=83 time=0
EXTRACT: note_on channel=9 note=27 velocity=0 time=0.08962268333333331
EXTRACT: note_on channel=9 note=75 velocity=0 time=0.01886793333333333
EXTRACT: note_on channel=9 note=42 velocity=0 time=0.004716983333333332
EXTRACT: note_on channel=9 note=39 velocity=0 time=0.023584916666666664
EXTRACT: note_on channel=0 note=69 velocity=0 time=0.023584916666666664
EXTRACT: note_on channel=0 note=45 velocity=0 time=0.09905664999999998
EXTRACT: note_on channel=1 note=33 velocity=0 time=0
EXTRACT: note_on channel=6 note=60 velocity=0 time=0
EXTRACT: note_on channel=6 note=69 velocity=0 time=0
EXTRACT: note_on channel=6 note=64 velocity=0 time=0
EXTRACT: note_on channel=5 note=48 velocity=0 time=0.004716983333333332
EXTRACT: control_change channel=8 control=1 value=65 time=0.004716983333333332
EXTRACT: note_on channel=9 note=42 velocity=75 time=0
EXTRACT: note_on channel=5 note=57 velocity=44 time=0.009433966666666665
EXTRACT: control_change channel=8 control=1 value=66 time=0.004716983333333332
EXTRACT: note_on channel=8 note=69 velocity=100 time=0
EXTRACT: control_change channel=8 control=1 value=68 time=0.009433966666666665
EXTRACT: note_on channel=9 note=42 velocity=0 time=0.009433966666666665
EXTRACT: control_change channel=8 control=1 value=70 time=0.004716983333333332
EXTRACT: control_change channel=8 control=1 value=71 time=0.014150949999999997
EXTRACT: control_change channel=8 control=1 value=72 time=0.004716983333333332
EXTRACT: control_change channel=8 control=1 value=73 time=0.009433966666666665
EXTRACT: control_change channel=8 control=1 value=74 time=0.014150949999999997
EXTRACT: control_change channel=8 control=1 value=75 time=0.014150949999999997
EXTRACT: control_change channel=8 control=1 value=76 time=0.004716983333333332
EXTRACT: control_change channel=8 control=1 value=77 time=0.009433966666666665
EXTRACT: control_change channel=8 control=1 value=78 time=0.014150949999999997
EXTRACT: control_change channel=8 control=1 value=80 time=0.009433966666666665
EXTRACT: control_change channel=8 control=1 value=81 time=0.004716983333333332
EXTRACT: control_change channel=8 control=1 value=82 time=0.009433966666666665
EXTRACT: control_change channel=8 control=1 value=83 time=0.004716983333333332
EXTRACT: control_change channel=8 control=1 value=84 time=0.009433966666666665
EXTRACT: control_change channel=8 control=1 value=85 time=0.004716983333333332
EXTRACT: control_change channel=8 control=1 value=86 time=0.009433966666666665
EXTRACT: control_change channel=8 control=1 value=88 time=0.004716983333333332
EXTRACT: control_change channel=8 control=1 value=89 time=0.014150949999999997
EXTRACT: control_change channel=8 control=1 value=90 time=0.009433966666666665
EXTRACT: control_change channel=8 control=1 value=91 time=0.004716983333333332
EXTRACT: note_on channel=8 note=69 velocity=0 time=0.009433966666666665
EXTRACT: control_change channel=8 control=1 value=92 time=0
EXTRACT: control_change channel=8 control=1 value=93 time=0.014150949999999997
EXTRACT: control_change channel=8 control=1 value=94 time=0.004716983333333332
EXTRACT: control_change channel=8 control=1 value=95 time=0.009433966666666665
EXTRACT: control_change channel=8 control=1 value=96 time=0.004716983333333332
EXTRACT: control_change channel=8 control=1 value=97 time=0.009433966666666665
EXTRACT: control_change channel=8 control=1 value=98 time=0.004716983333333332
EXTRACT: control_change channel=8 control=1 value=99 time=0.014150949999999997
EXTRACT: note_on channel=9 note=42 velocity=60 time=0.004716983333333332
EXTRACT: note_on channel=5 note=52 velocity=33 time=0.009433966666666665
EXTRACT: note_on channel=5 note=57 velocity=0 time=0.004716983333333332
EXTRACT: control_change channel=8 control=1 value=100 time=0
EXTRACT: note_on channel=8 note=71 velocity=100 time=0
EXTRACT: control_change channel=8 control=1 value=101 time=0.004716983333333332
EXTRACT: note_on channel=9 note=42 velocity=0 time=0.014150949999999997
EXTRACT: control_change channel=8 control=1 value=102 time=0.009433966666666665
EXTRACT: control_change channel=8 control=1 value=103 time=0.01886793333333333
EXTRACT: control_change channel=8 control=1 value=104 time=0.009433966666666665
EXTRACT: control_change channel=8 control=1 value=105 time=0.004716983333333332
EXTRACT: control_change channel=8 control=1 value=106 time=0.014150949999999997
EXTRACT: control_change channel=8 control=1 value=107 time=0.014150949999999997
EXTRACT: control_change channel=8 control=1 value=108 time=0.009433966666666665
EXTRACT: control_change channel=8 control=1 value=109 time=0.004716983333333332
EXTRACT: control_change channel=8 control=1 value=110 time=0.014150949999999997
EXTRACT: control_change channel=8 control=1 value=111 time=0.009433966666666665
EXTRACT: control_change channel=8 control=1 value=112 time=0.014150949999999997
EXTRACT: control_change channel=8 control=1 value=114 time=0.014150949999999997
EXTRACT: control_change channel=8 control=1 value=115 time=0.004716983333333332
EXTRACT: control_change channel=8 control=1 value=116 time=0.014150949999999997
EXTRACT: control_change channel=8 control=1 value=117 time=0.009433966666666665
EXTRACT: note_on channel=8 note=71 velocity=0 time=0.014150949999999997
EXTRACT: note_on channel=5 note=52 velocity=0 time=0.06603776666666665
EXTRACT: note_on channel=9 note=42 velocity=75 time=0.004716983333333332
EXTRACT: note_on channel=8 note=72 velocity=100 time=0.004716983333333332
EXTRACT: note_on channel=5 note=48 velocity=28 time=0.004716983333333332
EXTRACT: note_on channel=9 note=42 velocity=0 time=0.023584916666666664
EXTRACT: note_on channel=8 note=72 velocity=0 time=0.1886793333333333
EXTRACT: note_on channel=9 note=42 velocity=75 time=0.06132078333333332
EXTRACT: note_on channel=8 note=74 velocity=100 time=0.004716983333333332
EXTRACT: note_on channel=5 note=48 velocity=0 time=0.004716983333333332
EXTRACT: note_on channel=5 note=57 velocity=35 time=0
EXTRACT: note_on channel=9 note=42 velocity=0 time=0.023584916666666664
EXTRACT: note_on channel=8 note=74 velocity=0 time=0.1886793333333333
EXTRACT: note_on channel=8 note=76 velocity=100 time=0.004716983333333332
EXTRACT: note_on channel=9 note=42 velocity=75 time=0
EXTRACT: note_on channel=9 note=42 velocity=0 time=0.033018883333333325
EXTRACT: note_on channel=9 note=42 velocity=54 time=0.2500001166666666
EXTRACT: note_on channel=9 note=42 velocity=0 time=0.033018883333333325
EXTRACT: note_on channel=8 note=76 velocity=0 time=0.24056614999999995
EXTRACT: note_on channel=9 note=42 velocity=75 time=0.004716983333333332
EXTRACT: note_on channel=8 note=74 velocity=100 time=0.004716983333333332
EXTRACT: note_on channel=9 note=42 velocity=0 time=0.028301899999999994
EXTRACT: note_on channel=8 note=74 velocity=0 time=0.1745283833333333
EXTRACT: note_on channel=8 note=72 velocity=100 time=0.07075474999999999
EXTRACT: note_on channel=9 note=42 velocity=56 time=0.004716983333333332
EXTRACT: note_on channel=9 note=42 velocity=0 time=0.11320759999999998
EXTRACT: note_on channel=8 note=72 velocity=0 time=0.09433966666666666
EXTRACT: note_on channel=5 note=57 velocity=0 time=0.023584916666666664
EXTRACT: note_on channel=8 note=74 velocity=100 time=0.009433966666666665
EXTRACT: note_on channel=9 note=42 velocity=75 time=0
EXTRACT: note_on channel=9 note=42 velocity=0 time=0.033018883333333325
EXTRACT: note_on channel=8 note=74 velocity=0 time=0.18396234999999997
EXTRACT: note_on channel=9 note=42 velocity=58 time=0.06132078333333332
EXTRACT: note_on channel=8 note=72 velocity=100 time=0.009433966666666665
EXTRACT: note_on channel=9 note=42 velocity=0 time=0.023584916666666664
EXTRACT: note_on channel=9 note=42 velocity=40 time=0.10849061666666665
EXTRACT: note_on channel=8 note=72 velocity=0 time=0.08490569999999999
EXTRACT: note_on channel=9 note=42 velocity=0 time=0
EXTRACT: note_on channel=5 note=59 velocity=38 time=0.004716983333333332
EXTRACT: note_on channel=9 note=42 velocity=75 time=0
EXTRACT: note_on channel=8 note=71 velocity=100 time=0.004716983333333332
EXTRACT: note_on channel=9 note=42 velocity=0 time=0.028301899999999994
EXTRACT: note_on channel=9 note=42 velocity=52 time=0.2500001166666666
EXTRACT: note_on channel=9 note=42 velocity=0 time=0.033018883333333325
EXTRACT: note_on channel=5 note=59 velocity=0 time=0.22169821666666661
EXTRACT: note_on channel=5 note=55 velocity=32 time=0.004716983333333332
EXTRACT: note_on channel=9 note=42 velocity=75 time=0
EXTRACT: note_on channel=8 note=71 velocity=0 time=0.014150949999999997
EXTRACT: note_on channel=9 note=42 velocity=0 time=0.01886793333333333
EXTRACT: note_on channel=9 note=42 velocity=75 time=0.2500001166666666
EXTRACT: note_on channel=9 note=42 velocity=0 time=0.033018883333333325
EXTRACT: note_on channel=5 note=55 velocity=0 time=0.22169821666666661
EXTRACT: note_on channel=5 note=52 velocity=36 time=0.004716983333333332
EXTRACT: note_on channel=9 note=42 velocity=75 time=0
EXTRACT: note_on channel=9 note=42 velocity=0 time=0.033018883333333325
EXTRACT: note_on channel=9 note=42 velocity=75 time=0.2500001166666666
EXTRACT: note_on channel=9 note=42 velocity=0 time=0.11320759999999998
EXTRACT: note_on channel=5 note=52 velocity=0 time=0.15094346666666664
EXTRACT: note_on channel=8 note=74 velocity=100 time=0.004716983333333332
EXTRACT: note_on channel=9 note=42 velocity=75 time=0.004716983333333332
EXTRACT: note_on channel=9 note=42 velocity=0 time=0.033018883333333325
EXTRACT: note_on channel=8 note=74 velocity=0 time=0.19811329999999996
EXTRACT: note_on channel=9 note=42 velocity=58 time=0.04716983333333333
EXTRACT: note_on channel=8 note=74 velocity=100 time=0.009433966666666665
EXTRACT: note_on channel=9 note=42 velocity=0 time=0.023584916666666664
EXTRACT: note_on channel=8 note=74 velocity=0 time=0.20754726666666662
EXTRACT: note_on channel=5 note=57 velocity=35 time=0.004716983333333332
EXTRACT: note_on channel=9 note=42 velocity=75 time=0
EXTRACT: note_on channel=8 note=74 velocity=100 time=0.014150949999999997
EXTRACT: note_on channel=9 note=42 velocity=0 time=0.01886793333333333
EXTRACT: note_on channel=8 note=74 velocity=0 time=0.21226424999999996
EXTRACT: note_on channel=9 note=42 velocity=52 time=0.03773586666666666
EXTRACT: note_on channel=8 note=74 velocity=100 time=0.01886793333333333
EXTRACT: note_on channel=9 note=42 velocity=0 time=0.014150949999999997
EXTRACT: note_on channel=8 note=74 velocity=0 time=0.19339631666666662
EXTRACT: note_on channel=5 note=57 velocity=0 time=0.028301899999999994
EXTRACT: note_on channel=8 note=76 velocity=100 time=0.028301899999999994
EXTRACT: note_on channel=9 note=42 velocity=75 time=0
EXTRACT: note_on channel=5 note=57 velocity=34 time=0.009433966666666665
EXTRACT: note_on channel=9 note=42 velocity=0 time=0.023584916666666664
EXTRACT: note_on channel=9 note=42 velocity=75 time=0.2500001166666666
EXTRACT: note_on channel=9 note=42 velocity=0 time=0.033018883333333325
EXTRACT: note_on channel=9 note=42 velocity=75 time=0.2500001166666666
EXTRACT: note_on channel=8 note=76 velocity=0 time=0.014150949999999997
EXTRACT: note_on channel=8 note=72 velocity=100 time=0
EXTRACT: note_on channel=9 note=42 velocity=0 time=0.01886793333333333
EXTRACT: note_on channel=8 note=72 velocity=0 time=0.22169821666666661
EXTRACT: note_on channel=5 note=57 velocity=0 time=0.023584916666666664
EXTRACT: note_on channel=9 note=42 velocity=75 time=0.004716983333333332
EXTRACT: note_on channel=8 note=71 velocity=100 time=0.004716983333333332
EXTRACT: note_on channel=5 note=53 velocity=37 time=0.004716983333333332
EXTRACT: note_on channel=9 note=42 velocity=0 time=0.10377363333333331
EXTRACT: note_on channel=8 note=71 velocity=0 time=0.12735855
EXTRACT: note_on channel=5 note=53 velocity=0 time=0.01886793333333333
EXTRACT: note_on channel=9 note=42 velocity=75 time=0.028301899999999994
EXTRACT: note_on channel=5 note=57 velocity=35 time=0.004716983333333332
EXTRACT: note_on channel=8 note=72 velocity=100 time=0.004716983333333332
EXTRACT: note_on channel=9 note=42 velocity=0 time=0.023584916666666664
EXTRACT: note_on channel=8 note=72 velocity=0 time=0.2169812333333333
EXTRACT: note_on channel=9 note=42 velocity=58 time=0.028301899999999994
EXTRACT: note_on channel=8 note=71 velocity=100 time=0.009433966666666665
EXTRACT: note_on channel=9 note=42 velocity=0 time=0.023584916666666664
EXTRACT: note_on channel=9 note=42 velocity=40 time=0.10849061666666665
EXTRACT: note_on channel=9 note=42 velocity=0 time=0.08490569999999999
EXTRACT: note_on channel=8 note=69 velocity=100 time=0.05660379999999999
EXTRACT: note_on channel=9 note=42 velocity=75 time=0
EXTRACT: note_on channel=8 note=71 velocity=0 time=0.009433966666666665
EXTRACT: note_on channel=9 note=42 velocity=0 time=0.023584916666666664
EXTRACT: note_on channel=9 note=42 velocity=52 time=0.2500001166666666
EXTRACT: note_on channel=9 note=42 velocity=0 time=0.033018883333333325
EXTRACT: note_on channel=8 note=69 velocity=0 time=0.2500001166666666
EXTRACT: note_on channel=9 note=42 velocity=75 time=0
EXTRACT: note_on channel=9 note=42 velocity=0 time=0.033018883333333325
EXTRACT: note_on channel=9 note=42 velocity=75 time=0.2500001166666666
EXTRACT: note_on channel=9 note=42 velocity=0 time=0.01886793333333333
EXTRACT: note_on channel=9 note=42 velocity=75 time=0.2641510666666666
EXTRACT: note_on channel=9 note=42 velocity=0 time=0.01886793333333333
EXTRACT: note_on channel=9 note=42 velocity=75 time=0.2641510666666666
EXTRACT: note_on channel=9 note=42 velocity=0 time=0.01886793333333333
EXTRACT: note_on channel=5 note=57 velocity=0 time=0.19811329999999996
EXTRACT: control_change channel=0 control=64 value=0 time=0.06603776666666665
EXTRACT: control_change channel=5 control=64 value=0 time=0
EXTRACT: control_change channel=6 control=64 value=0 time=0
