EXTRACT: sysex data=(126,127,9,1) time=0
EXTRACT: sysex data=(0,0,11,52,52,16,0,127) time=0.024
EXTRACT: sysex data=(65,16,66,18,64,0,127,0,65) time=0.004
EXTRACT: control_change channel=15 control=0 value=0 time=0.019
EXTRACT: control_change channel=15 control=32 value=0 time=0.005
EXTRACT: program_change channel=15 program=54 time=0.005
EXTRACT: control_change channel=15 control=7 value=121 time=0.004
EXTRACT: control_change channel=15 control=10 value=110 time=0
EXTRACT: control_change channel=15 control=11 value=127 time=0
EXTRACT: control_change channel=15 control=93 value=40 time=0.005
EXTRACT: control_change channel=15 control=91 value=30 time=0
EXTRACT: sysex data=(65,16,66,18,64,1,16,4,0,2,2,1,0,2,1,2,2,2,1,1,3,1,0,23) time=0.004
EXTRACT: sysex data=(65,16,66,18,64,1,48,2,13) time=0.01
EXTRACT: sysex data=(65,16,66,18,64,1,56,2,5) time=0.01
EXTRACT: sysex data=(65,16,66,18,64,1,58,100,33) time=0.004
EXTRACT: sysex data=(65,16,66,18,64,1,51,100,40) time=0.01
EXTRACT: sysex data=(65,16,66,18,64,0,4,127,61) time=0.01
EXTRACT: sysex data=(65,16,66,18,64,1,0,40,99,41,66,121,32,77,45,76,73,86,69,32,115,114,108,21) time=0.01
EXTRACT: control_change channel=1 control=0 value=0 time=0.02
EXTRACT: control_change channel=2 control=0 value=0 time=0
EXTRACT: control_change channel=1 control=32 value=0 time=0.005
EXTRACT: control_change channel=2 control=32 value=0 time=0
EXTRACT: program_change channel=1 program=33 time=0.005
EXTRACT: program_change channel=2 program=38 time=0
EXTRACT: control_change channel=1 control=11 value=127 time=0.005
EXTRACT: control_change channel=1 control=10 value=64 time=0
EXTRACT: control_change channel=1 control=7 value=125 time=0
EXTRACT: control_change channel=2 control=11 value=127 time=0
EXTRACT: control_change channel=2 control=10 value=20 time=0
EXTRACT: control_change channel=2 control=7 value=119 time=0
EXTRACT: control_change channel=1 control=93 value=5 time=0.005
EXTRACT: control_change channel=1 control=91 value=0 time=0
EXTRACT: control_change channel=2 control=93 value=15 time=0
EXTRACT: control_change channel=2 control=91 value=10 time=0
EXTRACT: control_change channel=3 control=0 value=0 time=0.03
EXTRACT: control_change channel=3 control=32 value=0 time=0.005
EXTRACT: program_change channel=3 program=73 time=0.005
EXTRACT: control_change channel=3 control=11 value=127 time=0.005
EXTRACT: control_change channel=3 control=10 value=64 time=0
EXTRACT: control_change channel=3 control=7 value=127 time=0
EXTRACT: control_change channel=3 control=93 value=30 time=0.005
EXTRACT: control_change channel=3 control=91 value=50 time=0
EXTRACT: control_change channel=4 control=0 value=0 time=0.005
EXTRACT: control_change channel=4 control=32 value=0 time=0.005
EXTRACT: control_change channel=4 control=0 value=0 time=0.005
EXTRACT: program_change channel=4 program=52 time=0
EXTRACT: control_change channel=4 control=11 value=127 time=0.005
EXTRACT: control_change channel=4 control=10 value=64 time=0
EXTRACT: control_change channel=4 control=7 value=115 time=0
EXTRACT: control_change channel=13 control=0 value=0 time=0
EXTRACT: control_change channel=4 control=93 value=0 time=0.005
EXTRACT: control_change channel=4 control=91 value=40 time=0
EXTRACT: control_change channel=13 control=32 value=0 time=0
EXTRACT: control_change channel=4 control=17 value=8 time=0.005
EXTRACT: control_change channel=5 control=0 value=0 time=0
EXTRACT: program_change channel=13 program=50 time=0
EXTRACT: control_change channel=4 control=16 value=0 time=0.005
EXTRACT: control_change channel=5 control=32 value=0 time=0
EXTRACT: control_change channel=13 control=7 value=111 time=0
EXTRACT: control_change channel=13 control=10 value=50 time=0
EXTRACT: control_change channel=13 control=11 value=127 time=0
EXTRACT: program_change channel=5 program=81 time=0.005
EXTRACT: control_change channel=13 control=91 value=85 time=0
EXTRACT: control_change channel=13 control=93 value=50 time=0
EXTRACT: control_change channel=5 control=11 value=127 time=0.005
EXTRACT: control_change channel=5 control=10 value=110 time=0
EXTRACT: control_change channel=5 control=7 value=99 time=0
EXTRACT: control_change channel=5 control=91 value=20 time=0.005
EXTRACT: control_change channel=5 control=93 value=30 time=0
EXTRACT: control_change channel=11 control=0 value=0 time=0
EXTRACT: control_change channel=6 control=0 value=0 time=0.005
EXTRACT: control_change channel=11 control=32 value=0 time=0
EXTRACT: control_change channel=12 control=0 value=0 time=0
EXTRACT: control_change channel=6 control=32 value=0 time=0.005
EXTRACT: program_change channel=11 program=78 time=0
EXTRACT: control_change channel=12 control=32 value=0 time=0
EXTRACT: program_change channel=6 program=48 time=0.005
EXTRACT: control_change channel=11 control=7 value=89 time=0
EXTRACT: control_change channel=11 control=10 value=110 time=0
EXTRACT: control_change channel=11 control=11 value=127 time=0
EXTRACT: program_change channel=12 program=119 time=0
EXTRACT: control_change channel=6 control=11 value=127 time=0.005
EXTRACT: control_change channel=6 control=10 value=80 time=0
EXTRACT: control_change channel=6 control=7 value=127 time=0
EXTRACT: control_change channel=11 control=91 value=25 time=0
EXTRACT: control_change channel=11 control=93 value=50 time=0
EXTRACT: control_change channel=12 control=7 value=127 time=0
EXTRACT: control_change channel=12 control=10 value=100 time=0
EXTRACT: control_change channel=12 control=11 value=127 time=0
EXTRACT: control_change channel=6 control=93 value=10 time=0.005
EXTRACT: control_change channel=6 control=91 value=90 time=0
EXTRACT: control_change channel=12 control=93 value=100 time=0
EXTRACT: control_change channel=12 control=91 value=20 time=0
EXTRACT: control_change channel=7 control=0 value=0 time=0.005
EXTRACT: control_change channel=7 control=32 value=0 time=0.005
EXTRACT: program_change channel=7 program=49 time=0.005
EXTRACT: control_change channel=7 control=11 value=127 time=0.005
EXTRACT: control_change channel=7 control=10 value=25 time=0
EXTRACT: control_change channel=7 control=7 value=127 time=0
EXTRACT: control_change channel=7 control=91 value=60 time=0.005
EXTRACT: control_change channel=7 control=93 value=20 time=0
EXTRACT: control_change channel=6 control=99 value=1 time=0.005
EXTRACT: control_change channel=8 control=0 value=0 time=0
EXTRACT: control_change channel=14 control=0 value=0 time=0
EXTRACT: control_change channel=1 control=99 value=1 time=0.005
EXTRACT: control_change channel=2 control=99 value=1 time=0
EXTRACT: control_change channel=8 control=32 value=0 time=0
EXTRACT: control_change channel=14 control=32 value=0 time=0
EXTRACT: program_change channel=8 program=87 time=0.005
EXTRACT: program_change channel=14 program=69 time=0
EXTRACT: control_change channel=8 control=11 value=127 time=0.005
EXTRACT: control_change channel=8 control=10 value=10 time=0
EXTRACT: control_change channel=8 control=7 value=121 time=0
EXTRACT: control_change channel=14 control=11 value=127 time=0
EXTRACT: control_change channel=14 control=10 value=40 time=0
EXTRACT: control_change channel=14 control=7 value=101 time=0
EXTRACT: control_change channel=8 control=93 value=35 time=0.005
EXTRACT: control_change channel=8 control=91 value=20 time=0
EXTRACT: control_change channel=14 control=91 value=80 time=0
EXTRACT: control_change channel=14 control=93 value=40 time=0
EXTRACT: control_change channel=6 control=98 value=32 time=0.01
EXTRACT: program_change channel=9 program=0 time=0.005
EXTRACT: control_change channel=1 control=98 value=32 time=0.005
EXTRACT: control_change channel=2 control=98 value=32 time=0
EXTRACT: control_change channel=9 control=7 value=127 time=0
EXTRACT: control_change channel=9 control=11 value=127 time=0
EXTRACT: control_change channel=9 control=10 value=64 time=0
EXTRACT: control_change channel=1 control=6 value=20 time=0.005
EXTRACT: control_change channel=2 control=6 value=30 time=0
EXTRACT: control_change channel=8 control=99 value=1 time=0
EXTRACT: control_change channel=9 control=93 value=20 time=0
EXTRACT: control_change channel=10 control=0 value=0 time=0.005
EXTRACT: control_change channel=10 control=32 value=0 time=0.005
EXTRACT: program_change channel=10 program=5 time=0.005
EXTRACT: control_change channel=10 control=11 value=127 time=0.005
EXTRACT: control_change channel=10 control=10 value=64 time=0
EXTRACT: control_change channel=10 control=7 value=119 time=0
EXTRACT: control_change channel=10 control=91 value=80 time=0.005
EXTRACT: control_change channel=10 control=93 value=15 time=0
EXTRACT: control_change channel=6 control=6 value=55 time=0.005
EXTRACT: control_change channel=8 control=98 value=32 time=0.01
EXTRACT: control_change channel=9 control=91 value=20 time=0
EXTRACT: control_change channel=14 control=99 value=1 time=0.005
EXTRACT: control_change channel=11 control=99 value=1 time=0.015
EXTRACT: control_change channel=13 control=99 value=1 time=0.005
EXTRACT: control_change channel=14 control=98 value=33 time=0.01
EXTRACT: control_change channel=14 control=6 value=85 time=0.015
EXTRACT: control_change channel=8 control=6 value=30 time=0.01
EXTRACT: control_change channel=13 control=98 value=32 time=0
EXTRACT: control_change channel=13 control=6 value=30 time=0.005
EXTRACT: control_change channel=11 control=98 value=99 time=0.075
EXTRACT: control_change channel=6 control=99 value=1 time=0.015
EXTRACT: control_change channel=14 control=99 value=1 time=0
EXTRACT: control_change channel=14 control=98 value=32 time=0.015
EXTRACT: control_change channel=6 control=98 value=33 time=0.015
EXTRACT: control_change channel=6 control=6 value=80 time=0.03
EXTRACT: control_change channel=9 control=99 value=24 time=0.005
EXTRACT: control_change channel=14 control=6 value=60 time=0.01
EXTRACT: control_change channel=9 control=98 value=33 time=0.03
EXTRACT: control_change channel=11 control=6 value=30 time=0
EXTRACT: control_change channel=13 control=99 value=1 time=0.04
EXTRACT: control_change channel=10 control=99 value=1 time=0.04
EXTRACT: control_change channel=13 control=98 value=33 time=0
EXTRACT: control_change channel=9 control=6 value=67 time=0.04
EXTRACT: control_change channel=10 control=98 value=32 time=0.04
EXTRACT: control_change channel=13 control=6 value=100 time=0
EXTRACT: control_change channel=10 control=6 value=57 time=0.12
EXTRACT: control_change channel=10 control=99 value=1 time=0.16
EXTRACT: control_change channel=10 control=98 value=33 time=0.08
EXTRACT: control_change channel=10 control=6 value=90 time=0.04
EXTRACT: note_on channel=9 note=32 velocity=1 time=0
EXTRACT: note_on channel=9 note=70 velocity=23 time=0
EXTRACT: note_on channel=9 note=85 velocity=15 time=0
EXTRACT: note_on channel=10 note=69 velocity=71 time=0
EXTRACT: note_on channel=10 note=62 velocity=58 time=0.003
EXTRACT: note_on channel=10 note=65 velocity=71 time=0.002
EXTRACT: note_off channel=9 note=85 velocity=65 time=0.019
EXTRACT: note_off channel=9 note=70 velocity=64 time=0
EXTRACT: note_off channel=9 note=32 velocity=65 time=0
EXTRACT: note_on channel=13 note=69 velocity=71 time=0.016
EXTRACT: note_on channel=13 note=62 velocity=58 time=0.043000000000000003
EXTRACT: note_on channel=13 note=65 velocity=71 time=0.002
EXTRACT: note_on channel=9 note=32 velocity=1 time=0.155
EXTRACT: note_on channel=9 note=33 velocity=10 time=0
EXTRACT: note_on channel=9 note=70 velocity=13 time=0
EXTRACT: note_off channel=9 note=70 velocity=65 time=0.024
EXTRACT: note_off channel=9 note=33 velocity=64 time=0
EXTRACT: note_off channel=9 note=32 velocity=65 time=0
EXTRACT: note_on channel=9 note=32 velocity=1 time=0.126
EXTRACT: note_on channel=9 note=70 velocity=26 time=0
EXTRACT: note_on channel=9 note=85 velocity=8 time=0
EXTRACT: note_off channel=9 note=85 velocity=64 time=0.024
EXTRACT: note_off channel=9 note=70 velocity=64 time=0
EXTRACT: note_off channel=9 note=32 velocity=65 time=0
EXTRACT: note_on channel=9 note=32 velocity=2 time=0.216
EXTRACT: note_on channel=9 note=33 velocity=15 time=0
EXTRACT: note_on channel=9 note=70 velocity=23 time=0
EXTRACT: note_off channel=9 note=70 velocity=65 time=0.024
EXTRACT: note_off channel=9 note=33 velocity=64 time=0
EXTRACT: note_off channel=9 note=32 velocity=64 time=0
EXTRACT: note_on channel=9 note=32 velocity=5 time=0.216
EXTRACT: note_on channel=9 note=70 velocity=35 time=0
EXTRACT: note_on channel=9 note=85 velocity=14 time=0
EXTRACT: note_off channel=9 note=85 velocity=65 time=0.024
EXTRACT: note_off channel=9 note=70 velocity=65 time=0
EXTRACT: note_off channel=9 note=32 velocity=64 time=0
EXTRACT: note_on channel=9 note=32 velocity=5 time=0.216
EXTRACT: note_on channel=9 note=33 velocity=21 time=0
EXTRACT: note_on channel=9 note=70 velocity=26 time=0
EXTRACT: note_off channel=9 note=70 velocity=64 time=0.024
EXTRACT: note_off channel=9 note=33 velocity=65 time=0
EXTRACT: note_off channel=9 note=32 velocity=64 time=0
EXTRACT: note_on channel=9 note=32 velocity=9 time=0.216
EXTRACT: note_on channel=9 note=70 velocity=35 time=0
EXTRACT: note_on channel=9 note=85 velocity=17 time=0
EXTRACT: note_off channel=9 note=85 velocity=65 time=0.024
EXTRACT: note_off channel=9 note=70 velocity=65 time=0
EXTRACT: note_off channel=9 note=32 velocity=64 time=0
EXTRACT: note_on channel=9 note=32 velocity=7 time=0.216
EXTRACT: note_on channel=9 note=33 velocity=26 time=0
EXTRACT: note_on channel=9 note=70 velocity=40 time=0
EXTRACT: note_off channel=9 note=70 velocity=65 time=0.024
EXTRACT: note_off channel=9 note=33 velocity=64 time=0
EXTRACT: note_off channel=9 note=32 velocity=64 time=0
EXTRACT: note_on channel=9 note=70 velocity=36 time=0.216
EXTRACT: note_on channel=9 note=85 velocity=26 time=0
EXTRACT: note_on channel=9 note=32 velocity=8 time=0.01
EXTRACT: note_off channel=9 note=85 velocity=65 time=0.014
EXTRACT: note_off channel=9 note=70 velocity=65 time=0
EXTRACT: note_off channel=9 note=32 velocity=64 time=0.01
EXTRACT: note_on channel=9 note=33 velocity=31 time=0.20600000000000002
EXTRACT: note_on channel=9 note=70 velocity=41 time=0
EXTRACT: note_on channel=9 note=32 velocity=9 time=0.01
EXTRACT: note_off channel=9 note=70 velocity=64 time=0.014
EXTRACT: note_off channel=9 note=33 velocity=65 time=0
EXTRACT: note_off channel=9 note=32 velocity=65 time=0.01
EXTRACT: note_on channel=9 note=70 velocity=51 time=0.20600000000000002
EXTRACT: note_on channel=9 note=85 velocity=31 time=0
EXTRACT: note_on channel=9 note=32 velocity=13 time=0.01
EXTRACT: note_off channel=9 note=85 velocity=64 time=0.014
EXTRACT: note_off channel=9 note=70 velocity=64 time=0
EXTRACT: note_off channel=9 note=32 velocity=65 time=0.01
EXTRACT: note_on channel=9 note=33 velocity=35 time=0.20600000000000002
EXTRACT: note_on channel=9 note=70 velocity=48 time=0
EXTRACT: note_on channel=9 note=32 velocity=10 time=0.01
EXTRACT: note_off channel=9 note=70 velocity=64 time=0.014
EXTRACT: note_off channel=9 note=33 velocity=65 time=0
EXTRACT: note_off channel=9 note=32 velocity=65 time=0.01
EXTRACT: note_on channel=9 note=70 velocity=62 time=0.20600000000000002
EXTRACT: note_on channel=9 note=85 velocity=35 time=0
EXTRACT: note_on channel=9 note=32 velocity=21 time=0.01
EXTRACT: note_off channel=9 note=85 velocity=64 time=0.014
EXTRACT: note_off channel=9 note=70 velocity=65 time=0
EXTRACT: note_off channel=9 note=32 velocity=64 time=0.01
EXTRACT: note_on channel=9 note=33 velocity=34 time=0.20600000000000002
EXTRACT: note_on channel=9 note=70 velocity=49 time=0
EXTRACT: note_on channel=9 note=32 velocity=5 time=0.01
EXTRACT: note_off channel=9 note=70 velocity=64 time=0.014
EXTRACT: note_off channel=9 note=33 velocity=65 time=0
EXTRACT: note_off channel=9 note=32 velocity=65 time=0.01
EXTRACT: control_change channel=3 control=11 value=84 time=0.006
EXTRACT: note_on channel=9 note=70 velocity=71 time=0.2
EXTRACT: note_on channel=9 note=85 velocity=34 time=0
EXTRACT: note_on channel=9 note=32 velocity=26 time=0.01
EXTRACT: note_off channel=9 note=85 velocity=64 time=0.014
EXTRACT: note_off channel=9 note=70 velocity=64 time=0
EXTRACT: note_off channel=9 note=32 velocity=65 time=0.01
EXTRACT: note_on channel=9 note=33 velocity=35 time=0.20600000000000002
EXTRACT: note_on channel=9 note=70 velocity=60 time=0
EXTRACT: note_on channel=9 note=32 velocity=15 time=0.01
EXTRACT: note_off channel=9 note=70 velocity=65 time=0.014
EXTRACT: note_off channel=9 note=33 velocity=64 time=0
EXTRACT: note_off channel=9 note=32 velocity=64 time=0.01
EXTRACT: note_on channel=3 note=74 velocity=111 time=0
EXTRACT: note_on channel=9 note=70 velocity=62 time=0
EXTRACT: note_on channel=9 note=85 velocity=35 time=0
EXTRACT: note_on channel=15 note=62 velocity=97 time=0
EXTRACT: note_on channel=8 note=57 velocity=69 time=0.004
EXTRACT: note_on channel=8 note=62 velocity=68 time=0.001
EXTRACT: note_on channel=9 note=32 velocity=19 time=0.005
EXTRACT: note_off channel=9 note=85 velocity=65 time=0.014
EXTRACT: note_off channel=9 note=70 velocity=64 time=0
EXTRACT: note_off channel=9 note=32 velocity=65 time=0.01
EXTRACT: note_off channel=8 note=57 velocity=65 time=0.192
EXTRACT: note_off channel=15 note=62 velocity=65 time=0.006
EXTRACT: note_on channel=9 note=33 velocity=34 time=0.008
EXTRACT: note_on channel=9 note=70 velocity=59 time=0
EXTRACT: note_off channel=8 note=62 velocity=64 time=0.007
EXTRACT: note_on channel=9 note=32 velocity=14 time=0.003
EXTRACT: note_off channel=9 note=70 velocity=65 time=0.014
EXTRACT: note_off channel=9 note=33 velocity=64 time=0
EXTRACT: note_off channel=3 note=74 velocity=65 time=0.003
EXTRACT: note_off channel=9 note=32 velocity=65 time=0.007
EXTRACT: note_on channel=15 note=62 velocity=72 time=0.20400000000000001
EXTRACT: note_on channel=3 note=69 velocity=110 time=0
EXTRACT: note_on channel=9 note=70 velocity=66 time=0
EXTRACT: note_on channel=9 note=85 velocity=34 time=0
EXTRACT: note_on channel=8 note=62 velocity=43 time=0.002
EXTRACT: note_on channel=8 note=57 velocity=53 time=0.002
EXTRACT: note_on channel=9 note=32 velocity=23 time=0.006
EXTRACT: note_off channel=9 note=85 velocity=64 time=0.014
EXTRACT: note_off channel=9 note=70 velocity=64 time=0
EXTRACT: note_off channel=9 note=32 velocity=65 time=0.01
EXTRACT: note_on channel=9 note=33 velocity=34 time=0.20600000000000002
EXTRACT: note_on channel=9 note=70 velocity=59 time=0
EXTRACT: note_on channel=9 note=32 velocity=14 time=0.01
EXTRACT: note_off channel=15 note=62 velocity=64 time=0.001
EXTRACT: note_off channel=9 note=70 velocity=65 time=0.013000000000000001
EXTRACT: note_off channel=9 note=33 velocity=64 time=0
EXTRACT: note_off channel=9 note=32 velocity=64 time=0.01
EXTRACT: note_off channel=8 note=57 velocity=65 time=0
EXTRACT: note_off channel=8 note=62 velocity=65 time=0.02
EXTRACT: note_off channel=3 note=69 velocity=64 time=0.013000000000000001
EXTRACT: control_change channel=8 control=10 value=20 time=0.013000000000000001
EXTRACT: note_on channel=3 note=74 velocity=111 time=0
EXTRACT: note_on channel=9 note=70 velocity=63 time=0
EXTRACT: note_on channel=9 note=85 velocity=34 time=0
EXTRACT: note_on channel=15 note=62 velocity=59 time=0
EXTRACT: note_on channel=15 note=57 velocity=51 time=0.001
EXTRACT: note_on channel=8 note=62 velocity=36 time=0.001
EXTRACT: note_on channel=8 note=57 velocity=35 time=0.001
EXTRACT: note_on channel=9 note=32 velocity=18 time=0.007
EXTRACT: note_off channel=9 note=85 velocity=65 time=0.014
EXTRACT: note_off channel=9 note=70 velocity=65 time=0
EXTRACT: note_off channel=9 note=32 velocity=64 time=0.01
EXTRACT: note_off channel=15 note=62 velocity=65 time=0.185
EXTRACT: note_off channel=15 note=57 velocity=65 time=0.002
EXTRACT: note_on channel=9 note=33 velocity=35 time=0.019
EXTRACT: note_on channel=9 note=70 velocity=58 time=0
EXTRACT: note_on channel=9 note=32 velocity=15 time=0.01
EXTRACT: note_off channel=9 note=70 velocity=64 time=0.014
EXTRACT: note_off channel=9 note=33 velocity=65 time=0
EXTRACT: note_off channel=9 note=32 velocity=64 time=0.01
EXTRACT: note_off channel=8 note=57 velocity=64 time=0.007
EXTRACT: note_off channel=3 note=74 velocity=65 time=0.005
EXTRACT: note_off channel=8 note=62 velocity=65 time=0.01
EXTRACT: note_on channel=15 note=57 velocity=44 time=0.182
EXTRACT: note_on channel=8 note=62 velocity=36 time=0.002
EXTRACT: note_on channel=9 note=70 velocity=61 time=0
EXTRACT: note_on channel=9 note=85 velocity=39 time=0
EXTRACT: note_on channel=15 note=62 velocity=59 time=0
EXTRACT: note_on channel=8 note=57 velocity=34 time=0.001
EXTRACT: note_on channel=9 note=32 velocity=15 time=0.009000000000000001
EXTRACT: note_off channel=9 note=85 velocity=65 time=0.014
EXTRACT: note_off channel=9 note=70 velocity=65 time=0
EXTRACT: note_off channel=9 note=32 velocity=64 time=0.01
EXTRACT: control_change channel=15 control=10 value=100 time=0.046
EXTRACT: control_change channel=13 control=11 value=120 time=0.04
EXTRACT: note_off channel=15 note=62 velocity=64 time=0.099
EXTRACT: note_off channel=15 note=57 velocity=65 time=0.014
EXTRACT: note_on channel=9 note=33 velocity=35 time=0.007
EXTRACT: note_on channel=9 note=70 velocity=58 time=0
EXTRACT: note_on channel=9 note=32 velocity=14 time=0.01
EXTRACT: note_off channel=9 note=70 velocity=65 time=0.014
EXTRACT: note_off channel=9 note=33 velocity=64 time=0
EXTRACT: note_off channel=9 note=32 velocity=64 time=0.01
EXTRACT: note_off channel=8 note=57 velocity=64 time=0.033
EXTRACT: note_off channel=8 note=62 velocity=64 time=0.007
EXTRACT: control_change channel=8 control=10 value=30 time=0.046
EXTRACT: control_change channel=13 control=11 value=115 time=0
EXTRACT: note_on channel=15 note=57 velocity=29 time=0.11800000000000001
EXTRACT: note_on channel=9 note=70 velocity=64 time=0.002
EXTRACT: note_on channel=9 note=85 velocity=37 time=0
EXTRACT: note_on channel=15 note=62 velocity=58 time=0
EXTRACT: note_on channel=8 note=62 velocity=35 time=0.001
EXTRACT: note_on channel=8 note=57 velocity=35 time=0
EXTRACT: note_on channel=9 note=32 velocity=21 time=0.009000000000000001
EXTRACT: note_off channel=9 note=85 velocity=65 time=0.014
EXTRACT: note_off channel=9 note=70 velocity=65 time=0
EXTRACT: note_off channel=9 note=32 velocity=64 time=0.01
EXTRACT: control_change channel=13 control=11 value=111 time=0.126
EXTRACT: note_off channel=15 note=62 velocity=64 time=0.059000000000000004
EXTRACT: note_on channel=9 note=33 velocity=26 time=0.021
EXTRACT: note_on channel=9 note=70 velocity=59 time=0
EXTRACT: note_off channel=15 note=57 velocity=64 time=0
EXTRACT: note_on channel=9 note=32 velocity=15 time=0.01
EXTRACT: note_off channel=9 note=70 velocity=64 time=0.014
EXTRACT: note_off channel=9 note=33 velocity=65 time=0
EXTRACT: note_off channel=9 note=32 velocity=65 time=0.01
EXTRACT: note_off channel=8 note=57 velocity=65 time=0.004
EXTRACT: note_off channel=8 note=62 velocity=65 time=0.008
EXTRACT: control_change channel=8 control=6 value=45 time=0.074
EXTRACT: control_change channel=13 control=11 value=104 time=0.04
EXTRACT: note_on channel=15 note=57 velocity=18 time=0.078
EXTRACT: note_on channel=3 note=69 velocity=111 time=0
EXTRACT: note_on channel=9 note=70 velocity=67 time=0
EXTRACT: note_on channel=9 note=85 velocity=36 time=0
EXTRACT: note_on channel=15 note=62 velocity=58 time=0
EXTRACT: note_on channel=8 note=62 velocity=34 time=0.002
EXTRACT: note_on channel=8 note=57 velocity=31 time=0.002
EXTRACT: note_on channel=9 note=32 velocity=22 time=0.006
EXTRACT: note_off channel=9 note=85 velocity=64 time=0.014
EXTRACT: note_off channel=9 note=70 velocity=64 time=0
EXTRACT: note_off channel=9 note=32 velocity=65 time=0.01
EXTRACT: control_change channel=13 control=11 value=101 time=0.126
EXTRACT: note_off channel=15 note=62 velocity=65 time=0.059000000000000004
EXTRACT: note_off channel=8 note=57 velocity=64 time=0.016
EXTRACT: note_on channel=9 note=33 velocity=26 time=0.005
EXTRACT: note_on channel=9 note=70 velocity=64 time=0
EXTRACT: note_on channel=9 note=32 velocity=20 time=0.01
EXTRACT: note_off channel=8 note=62 velocity=64 time=0.001
EXTRACT: note_off channel=15 note=57 velocity=65 time=0.005
EXTRACT: note_off channel=9 note=70 velocity=64 time=0.008
EXTRACT: note_off channel=9 note=33 velocity=65 time=0
EXTRACT: note_off channel=9 note=32 velocity=65 time=0.01
EXTRACT: control_change channel=8 control=10 value=40 time=0.046
EXTRACT: note_off channel=3 note=69 velocity=65 time=0.006
EXTRACT: control_change channel=13 control=11 value=94 time=0.074
EXTRACT: note_on channel=3 note=74 velocity=110 time=0
EXTRACT: note_on channel=9 note=70 velocity=60 time=0
EXTRACT: note_on channel=9 note=85 velocity=36 time=0
EXTRACT: note_on channel=15 note=57 velocity=85 time=0
EXTRACT: note_on channel=8 note=62 velocity=31 time=0.005
EXTRACT: note_on channel=8 note=57 velocity=36 time=0.001
EXTRACT: note_on channel=9 note=32 velocity=17 time=0.004
EXTRACT: note_off channel=9 note=85 velocity=64 time=0.014
EXTRACT: note_off channel=9 note=70 velocity=65 time=0
EXTRACT: note_off channel=9 note=32 velocity=64 time=0.01
EXTRACT: control_change channel=15 control=10 value=85 time=0.006
EXTRACT: note_off channel=15 note=57 velocity=64 time=0.154
EXTRACT: control_change channel=13 control=11 value=90 time=0.006
EXTRACT: note_off channel=3 note=74 velocity=64 time=0.014
EXTRACT: note_on channel=3 note=74 velocity=111 time=0
EXTRACT: note_on channel=9 note=33 velocity=27 time=0
EXTRACT: note_on channel=9 note=70 velocity=65 time=0
EXTRACT: note_on channel=15 note=10 velocity=8 time=0
EXTRACT: note_off channel=8 note=57 velocity=65 time=0.002
EXTRACT: note_on channel=9 note=32 velocity=21 time=0.008
EXTRACT: note_off channel=8 note=62 velocity=65 time=0.007
EXTRACT: note_off channel=9 note=70 velocity=64 time=0.007
EXTRACT: note_off channel=9 note=33 velocity=65 time=0
EXTRACT: note_off channel=9 note=32 velocity=65 time=0.004
EXTRACT: control_change channel=8 control=6 value=50 time=0.08600000000000001
EXTRACT: note_off channel=15 note=10 velocity=64 time=0.014
EXTRACT: control_change channel=13 control=11 value=85 time=0.066
EXTRACT: note_off channel=3 note=74 velocity=65 time=0.008
EXTRACT: note_on channel=9 note=70 velocity=65 time=0.032
EXTRACT: note_on channel=9 note=85 velocity=37 time=0
EXTRACT: note_on channel=15 note=57 velocity=57 time=0
EXTRACT: note_on channel=15 note=62 velocity=56 time=0
EXTRACT: note_on channel=8 note=62 velocity=37 time=0.001
EXTRACT: note_on channel=8 note=57 velocity=35 time=0.002
EXTRACT: note_on channel=9 note=32 velocity=20 time=0.007
EXTRACT: note_off channel=9 note=85 velocity=64 time=0.014
EXTRACT: note_off channel=9 note=70 velocity=64 time=0
EXTRACT: note_off channel=9 note=32 velocity=65 time=0.01
EXTRACT: note_off channel=15 note=62 velocity=65 time=0.18
EXTRACT: note_off channel=15 note=57 velocity=65 time=0
EXTRACT: note_on channel=9 note=33 velocity=27 time=0.026000000000000002
EXTRACT: note_on channel=9 note=70 velocity=64 time=0
EXTRACT: note_on channel=15 note=57 velocity=36 time=0
EXTRACT: note_on channel=15 note=62 velocity=47 time=0
EXTRACT: control_change channel=8 control=10 value=50 time=0
EXTRACT: control_change channel=13 control=11 value=81 time=0
EXTRACT: note_on channel=9 note=32 velocity=20 time=0.01
EXTRACT: note_off channel=9 note=70 velocity=65 time=0.014
EXTRACT: note_off channel=9 note=33 velocity=64 time=0
EXTRACT: note_off channel=8 note=57 velocity=64 time=0.009000000000000001
EXTRACT: note_off channel=9 note=32 velocity=64 time=0.001
EXTRACT: note_off channel=8 note=62 velocity=64 time=0.015
EXTRACT: note_off channel=15 note=62 velocity=64 time=0.085
EXTRACT: note_off channel=15 note=57 velocity=64 time=0
EXTRACT: note_on channel=3 note=74 velocity=110 time=0
EXTRACT: note_on channel=9 note=70 velocity=72 time=0
EXTRACT: note_on channel=9 note=85 velocity=33 time=0
EXTRACT: control_change channel=13 control=11 value=74 time=0
EXTRACT: note_on channel=8 note=62 velocity=44 time=0.001
EXTRACT: note_on channel=8 note=57 velocity=48 time=0.001
EXTRACT: note_on channel=15 note=57 velocity=45 time=0.004
EXTRACT: note_on channel=15 note=62 velocity=50 time=0
EXTRACT: note_on channel=9 note=32 velocity=29 time=0.004
EXTRACT: note_off channel=9 note=85 velocity=65 time=0.014
EXTRACT: note_off channel=9 note=70 velocity=64 time=0
EXTRACT: note_off channel=9 note=32 velocity=65 time=0.01
EXTRACT: note_off channel=15 note=62 velocity=65 time=0.189
EXTRACT: note_off channel=15 note=57 velocity=64 time=0
EXTRACT: note_on channel=9 note=33 velocity=34 time=0.017
EXTRACT: note_on channel=9 note=70 velocity=63 time=0
EXTRACT: note_on channel=15 note=57 velocity=29 time=0
EXTRACT: note_on channel=15 note=62 velocity=34 time=0
EXTRACT: note_on channel=9 note=32 velocity=19 time=0.01
EXTRACT: note_off channel=8 note=57 velocity=65 time=0.01
EXTRACT: note_off channel=9 note=70 velocity=65 time=0.004
EXTRACT: note_off channel=9 note=33 velocity=64 time=0
EXTRACT: note_off channel=3 note=74 velocity=64 time=0.003
EXTRACT: note_off channel=8 note=62 velocity=64 time=0.006
EXTRACT: note_off channel=9 note=32 velocity=65 time=0.001
EXTRACT: control_change channel=13 control=11 value=70 time=0.006
EXTRACT: control_change channel=15 control=10 value=70 time=0
EXTRACT: control_change channel=8 control=6 value=55 time=0.08
EXTRACT: note_off channel=15 note=62 velocity=65 time=0.014
EXTRACT: note_off channel=15 note=57 velocity=65 time=0
EXTRACT: note_on channel=15 note=57 velocity=57 time=0.097
EXTRACT: note_on channel=15 note=62 velocity=56 time=0.006
EXTRACT: note_on channel=3 note=69 velocity=110 time=0
EXTRACT: note_on channel=9 note=70 velocity=70 time=0
EXTRACT: note_on channel=9 note=85 velocity=32 time=0
EXTRACT: note_on channel=8 note=62 velocity=31 time=0.007
EXTRACT: note_on channel=9 note=32 velocity=26 time=0.003
EXTRACT: note_off channel=9 note=85 velocity=64 time=0.014
EXTRACT: note_off channel=9 note=70 velocity=64 time=0
EXTRACT: note_on channel=8 note=57 velocity=41 time=0.009000000000000001
EXTRACT: note_off channel=9 note=32 velocity=65 time=0.001
EXTRACT: control_change channel=13 control=11 value=65 time=0.006
EXTRACT: note_off channel=15 note=57 velocity=64 time=0.182
EXTRACT: note_on channel=9 note=33 velocity=34 time=0.018000000000000002
EXTRACT: note_on channel=9 note=70 velocity=65 time=0
EXTRACT: control_change channel=8 control=10 value=60 time=0
EXTRACT: note_off channel=8 note=62 velocity=65 time=0.001
EXTRACT: note_on channel=9 note=32 velocity=20 time=0.009000000000000001
EXTRACT: note_off channel=15 note=62 velocity=65 time=0
EXTRACT: note_off channel=8 note=57 velocity=65 time=0.004
EXTRACT: note_off channel=9 note=70 velocity=65 time=0.01
EXTRACT: note_off channel=9 note=33 velocity=64 time=0
EXTRACT: note_off channel=9 note=32 velocity=64 time=0.01
EXTRACT: control_change channel=13 control=11 value=61 time=0.006
EXTRACT: note_off channel=3 note=69 velocity=64 time=0.027
EXTRACT: note_off channel=10 note=69 velocity=65 time=0.167
EXTRACT: note_on channel=15 note=62 velocity=59 time=0.005
EXTRACT: note_on channel=3 note=74 velocity=111 time=0
EXTRACT: note_on channel=9 note=70 velocity=65 time=0
EXTRACT: note_on channel=9 note=85 velocity=32 time=0
EXTRACT: note_on channel=15 note=57 velocity=61 time=0.001
EXTRACT: note_on channel=8 note=62 velocity=31 time=0.005
EXTRACT: note_on channel=8 note=57 velocity=31 time=0
EXTRACT: note_on channel=9 note=32 velocity=21 time=0.004
EXTRACT: note_off channel=9 note=85 velocity=65 time=0.014
EXTRACT: note_off channel=9 note=70 velocity=65 time=0
EXTRACT: note_off channel=9 note=32 velocity=64 time=0.01
EXTRACT: control_change channel=13 control=11 value=54 time=0.006
EXTRACT: note_off channel=10 note=65 velocity=64 time=0.074
EXTRACT: note_off channel=15 note=62 velocity=64 time=0.105
EXTRACT: note_off channel=8 note=62 velocity=64 time=0.001
EXTRACT: note_off channel=15 note=57 velocity=64 time=0.001
EXTRACT: note_off channel=8 note=57 velocity=65 time=0.001
EXTRACT: note_on channel=9 note=33 velocity=35 time=0.018000000000000002
EXTRACT: note_on channel=9 note=70 velocity=60 time=0
EXTRACT: note_on channel=9 note=32 velocity=15 time=0.01
EXTRACT: note_off channel=9 note=70 velocity=64 time=0.014
EXTRACT: note_off channel=9 note=33 velocity=65 time=0
EXTRACT: note_off channel=9 note=32 velocity=64 time=0.01
EXTRACT: control_change channel=8 control=10 value=70 time=0.006
EXTRACT: note_off channel=3 note=74 velocity=65 time=0.006
EXTRACT: control_change channel=13 control=11 value=50 time=0.034
EXTRACT: note_on channel=15 note=57 velocity=44 time=0.157
EXTRACT: note_on channel=15 note=62 velocity=59 time=0.002
EXTRACT: note_on channel=9 note=70 velocity=69 time=0.001
EXTRACT: note_on channel=9 note=85 velocity=33 time=0
EXTRACT: note_on channel=8 note=62 velocity=31 time=0.002
EXTRACT: note_on channel=8 note=57 velocity=29 time=0.001
EXTRACT: note_on channel=9 note=32 velocity=24 time=0.007
EXTRACT: note_off channel=9 note=85 velocity=65 time=0.014
EXTRACT: note_off channel=9 note=70 velocity=65 time=0
EXTRACT: note_off channel=9 note=32 velocity=64 time=0.01
EXTRACT: control_change channel=13 control=11 value=45 time=0.046
EXTRACT: note_off channel=10 note=62 velocity=65 time=0.034
EXTRACT: control_change channel=15 control=10 value=55 time=0.046
EXTRACT: note_off channel=15 note=62 velocity=65 time=0.059000000000000004
EXTRACT: note_off channel=15 note=57 velocity=65 time=0.013000000000000001
EXTRACT: note_off channel=8 note=57 velocity=64 time=0.003
EXTRACT: note_off channel=8 note=62 velocity=64 time=0
EXTRACT: note_on channel=9 note=33 velocity=34 time=0.005
EXTRACT: note_on channel=9 note=70 velocity=60 time=0
EXTRACT: control_change channel=8 control=6 value=57 time=0
EXTRACT: note_on channel=9 note=32 velocity=17 time=0.01
EXTRACT: note_off channel=9 note=70 velocity=65 time=0.014
EXTRACT: note_off channel=9 note=33 velocity=64 time=0
EXTRACT: note_off channel=9 note=32 velocity=64 time=0.01
EXTRACT: control_change channel=13 control=11 value=40 time=0.006
EXTRACT: note_off channel=13 note=69 velocity=65 time=0.114
EXTRACT: note_on channel=15 note=57 velocity=29 time=0.084
EXTRACT: note_on channel=9 note=70 velocity=66 time=0.002
EXTRACT: note_on channel=9 note=85 velocity=30 time=0
EXTRACT: note_on channel=15 note=62 velocity=58 time=0
EXTRACT: note_on channel=8 note=57 velocity=26 time=0.002
EXTRACT: note_on channel=8 note=62 velocity=26 time=0
EXTRACT: note_on channel=9 note=32 velocity=23 time=0.008
EXTRACT: note_off channel=9 note=85 velocity=65 time=0.014
EXTRACT: note_off channel=9 note=70 velocity=65 time=0
EXTRACT: note_off channel=9 note=32 velocity=64 time=0.01
EXTRACT: note_off channel=13 note=65 velocity=64 time=0.04
EXTRACT: control_change channel=13 control=11 value=35 time=0.046
EXTRACT: note_off channel=13 note=62 velocity=65 time=0.074
EXTRACT: note_off channel=15 note=62 velocity=64 time=0.025
EXTRACT: note_on channel=9 note=33 velocity=35 time=0.021
EXTRACT: note_on channel=9 note=70 velocity=61 time=0
EXTRACT: note_off channel=15 note=57 velocity=64 time=0
EXTRACT: note_on channel=9 note=32 velocity=15 time=0.01
EXTRACT: note_off channel=9 note=70 velocity=64 time=0.014
EXTRACT: note_off channel=9 note=33 velocity=65 time=0
EXTRACT: note_off channel=9 note=32 velocity=65 time=0.01
EXTRACT: note_off channel=8 note=62 velocity=65 time=0.014
EXTRACT: note_off channel=8 note=57 velocity=65 time=0.011
EXTRACT: control_change channel=8 control=10 value=80 time=0.021
EXTRACT: note_on channel=15 note=57 velocity=18 time=0.158
EXTRACT: note_on channel=3 note=69 velocity=111 time=0
EXTRACT: note_on channel=9 note=70 velocity=63 time=0
EXTRACT: note_on channel=9 note=85 velocity=31 time=0
EXTRACT: note_on channel=15 note=62 velocity=58 time=0
EXTRACT: note_on channel=8 note=57 velocity=24 time=0.001
EXTRACT: note_on channel=8 note=62 velocity=26 time=0
EXTRACT: note_on channel=9 note=32 velocity=18 time=0.009000000000000001
EXTRACT: note_off channel=9 note=85 velocity=64 time=0.014
EXTRACT: note_off channel=9 note=70 velocity=64 time=0
EXTRACT: note_off channel=9 note=32 velocity=65 time=0.01
EXTRACT: note_off channel=15 note=62 velocity=65 time=0.185
EXTRACT: note_on channel=9 note=33 velocity=35 time=0.021
EXTRACT: note_on channel=9 note=70 velocity=62 time=0
EXTRACT: note_on channel=9 note=32 velocity=19 time=0.01
EXTRACT: note_off channel=15 note=57 velocity=65 time=0.006
EXTRACT: note_off channel=9 note=70 velocity=64 time=0.008
EXTRACT: note_off channel=9 note=33 velocity=65 time=0
EXTRACT: note_off channel=8 note=62 velocity=64 time=0.008
EXTRACT: note_off channel=9 note=32 velocity=65 time=0.002
EXTRACT: note_off channel=8 note=57 velocity=64 time=0.004
EXTRACT: note_off channel=3 note=69 velocity=65 time=0.048
EXTRACT: control_change channel=15 control=10 value=45 time=0.034
EXTRACT: control_change channel=8 control=6 value=60 time=0.04
EXTRACT: note_on channel=3 note=74 velocity=110 time=0
EXTRACT: note_on channel=9 note=70 velocity=68 time=0
EXTRACT: note_on channel=9 note=85 velocity=31 time=0
EXTRACT: note_on channel=15 note=57 velocity=85 time=0
EXTRACT: note_on channel=8 note=62 velocity=30 time=0.002
EXTRACT: note_on channel=8 note=57 velocity=30 time=0
EXTRACT: note_on channel=9 note=32 velocity=24 time=0.008
EXTRACT: note_off channel=9 note=85 velocity=64 time=0.014
EXTRACT: note_off channel=9 note=70 velocity=65 time=0
EXTRACT: note_off channel=9 note=32 velocity=64 time=0.01
EXTRACT: control_change channel=13 control=98 value=32 time=0.046
EXTRACT: note_off channel=15 note=57 velocity=64 time=0.114
EXTRACT: note_off channel=3 note=74 velocity=64 time=0
EXTRACT: note_on channel=3 note=74 velocity=110 time=0
EXTRACT: note_on channel=9 note=33 velocity=34 time=0
EXTRACT: note_on channel=9 note=70 velocity=61 time=0
EXTRACT: note_on channel=15 note=57 velocity=67 time=0
EXTRACT: control_change channel=8 control=10 value=90 time=0
EXTRACT: note_off channel=8 note=57 velocity=65 time=0
EXTRACT: note_off channel=8 note=62 velocity=65 time=0.003
EXTRACT: note_on channel=9 note=32 velocity=15 time=0.007
EXTRACT: note_off channel=9 note=70 velocity=64 time=0.014
EXTRACT: note_off channel=9 note=33 velocity=65 time=0
EXTRACT: note_off channel=9 note=32 velocity=65 time=0.004
EXTRACT: note_off channel=15 note=57 velocity=64 time=0.074
EXTRACT: note_off channel=3 note=74 velocity=64 time=0.074
EXTRACT: note_on channel=15 note=62 velocity=56 time=0.012
EXTRACT: note_on channel=8 note=62 velocity=30 time=0.02
EXTRACT: note_on channel=9 note=70 velocity=69 time=0
EXTRACT: note_on channel=9 note=85 velocity=30 time=0
EXTRACT: note_on channel=15 note=57 velocity=56 time=0
EXTRACT: note_on channel=8 note=57 velocity=31 time=0.001
EXTRACT: note_on channel=9 note=32 velocity=24 time=0.009000000000000001
EXTRACT: note_off channel=9 note=85 velocity=64 time=0.014
EXTRACT: note_off channel=9 note=70 velocity=64 time=0
EXTRACT: note_off channel=9 note=32 velocity=65 time=0.01
EXTRACT: note_off channel=15 note=62 velocity=65 time=0.16
EXTRACT: control_change channel=13 control=6 value=25 time=0.006
EXTRACT: note_off channel=15 note=57 velocity=64 time=0.014
EXTRACT: note_on channel=15 note=62 velocity=45 time=0.006
EXTRACT: note_on channel=9 note=33 velocity=35 time=0.02
EXTRACT: note_on channel=9 note=70 velocity=68 time=0
EXTRACT: note_on channel=15 note=57 velocity=37 time=0
EXTRACT: note_on channel=9 note=32 velocity=25 time=0.01
EXTRACT: note_off channel=8 note=57 velocity=64 time=0.007
EXTRACT: note_off channel=9 note=70 velocity=65 time=0.007
EXTRACT: note_off channel=9 note=33 velocity=64 time=0
EXTRACT: note_off channel=8 note=62 velocity=64 time=0.007
EXTRACT: note_off channel=9 note=32 velocity=64 time=0.003
EXTRACT: note_off channel=15 note=62 velocity=65 time=0.08
EXTRACT: note_off channel=15 note=57 velocity=65 time=0.02
EXTRACT: control_change channel=15 control=10 value=30 time=0.026000000000000002
EXTRACT: control_change channel=13 control=11 value=101 time=0.04
EXTRACT: note_on channel=1 note=38 velocity=63 time=0
EXTRACT: note_on channel=3 note=74 velocity=111 time=0
EXTRACT: note_on channel=8 note=62 velocity=46 time=0
EXTRACT: note_on channel=8 note=57 velocity=49 time=0
EXTRACT: note_on channel=9 note=35 velocity=21 time=0
EXTRACT: note_on channel=9 note=70 velocity=64 time=0
EXTRACT: note_on channel=9 note=85 velocity=29 time=0
EXTRACT: note_on channel=13 note=62 velocity=67 time=0
EXTRACT: note_on channel=13 note=65 velocity=64 time=0.002
EXTRACT: note_on channel=13 note=69 velocity=61 time=0.003
EXTRACT: note_on channel=15 note=57 velocity=44 time=0.001
EXTRACT: note_on channel=15 note=62 velocity=50 time=0
EXTRACT: note_on channel=9 note=32 velocity=21 time=0.004
EXTRACT: note_off channel=9 note=85 velocity=65 time=0.014
EXTRACT: note_off channel=9 note=70 velocity=64 time=0
EXTRACT: note_off channel=9 note=35 velocity=65 time=0
EXTRACT: note_off channel=9 note=32 velocity=65 time=0.01
EXTRACT: control_change channel=8 control=10 value=100 time=0.08600000000000001
EXTRACT: note_off channel=1 note=38 velocity=65 time=0.096
EXTRACT: note_off channel=15 note=62 velocity=64 time=0.007
EXTRACT: note_off channel=15 note=57 velocity=65 time=0
EXTRACT: note_off channel=8 note=57 velocity=65 time=0.015
EXTRACT: note_on channel=1 note=50 velocity=36 time=0.002
EXTRACT: note_on channel=9 note=33 velocity=26 time=0
EXTRACT: note_on channel=9 note=70 velocity=57 time=0
EXTRACT: note_on channel=15 note=57 velocity=29 time=0
EXTRACT: note_on channel=15 note=62 velocity=35 time=0
EXTRACT: note_off channel=8 note=62 velocity=64 time=0.004
EXTRACT: note_on channel=9 note=32 velocity=13 time=0.006
EXTRACT: note_off channel=9 note=70 velocity=64 time=0.014
EXTRACT: note_off channel=9 note=33 velocity=65 time=0
EXTRACT: note_off channel=3 note=74 velocity=65 time=0.003
EXTRACT: note_off channel=9 note=32 velocity=64 time=0.007
EXTRACT: control_change channel=8 control=6 value=64 time=0.046
EXTRACT: note_off channel=15 note=62 velocity=64 time=0.054
EXTRACT: note_off channel=15 note=57 velocity=64 time=0
EXTRACT: note_off channel=1 note=50 velocity=64 time=0.085
EXTRACT: note_on channel=15 note=57 velocity=56 time=0.012
EXTRACT: note_on channel=15 note=62 velocity=57 time=0.006
EXTRACT: note_on channel=1 note=38 velocity=61 time=0
EXTRACT: note_on channel=3 note=69 velocity=111 time=0
EXTRACT: note_on channel=9 note=35 velocity=22 time=0
EXTRACT: note_on channel=9 note=70 velocity=62 time=0
EXTRACT: note_on channel=9 note=85 velocity=28 time=0
EXTRACT: note_on channel=8 note=62 velocity=35 time=0.002
EXTRACT: note_on channel=8 note=57 velocity=36 time=0.001
EXTRACT: note_on channel=9 note=32 velocity=18 time=0.007
EXTRACT: note_off channel=9 note=85 velocity=64 time=0.014
EXTRACT: note_off channel=9 note=70 velocity=65 time=0
EXTRACT: note_off channel=9 note=35 velocity=65 time=0
EXTRACT: note_off channel=9 note=32 velocity=64 time=0.01
EXTRACT: note_off channel=15 note=57 velocity=65 time=0.188
EXTRACT: note_off channel=1 note=38 velocity=65 time=0.005
EXTRACT: note_on channel=1 note=50 velocity=53 time=0.013000000000000001
EXTRACT: note_on channel=9 note=33 velocity=26 time=0
EXTRACT: note_on channel=9 note=70 velocity=55 time=0
EXTRACT: note_off channel=8 note=57 velocity=65 time=0.002
EXTRACT: note_off channel=8 note=62 velocity=65 time=0.004
EXTRACT: note_on channel=9 note=32 velocity=10 time=0.004
EXTRACT: note_off channel=15 note=62 velocity=65 time=0
EXTRACT: note_off channel=9 note=70 velocity=64 time=0.014
EXTRACT: note_off channel=9 note=33 velocity=65 time=0
EXTRACT: note_off channel=9 note=32 velocity=65 time=0.01
EXTRACT: note_off channel=3 note=69 velocity=65 time=0.033
EXTRACT: control_change channel=15 control=10 value=15 time=0.053
EXTRACT: note_off channel=1 note=50 velocity=65 time=0.092
EXTRACT: note_on channel=15 note=62 velocity=59 time=0.027
EXTRACT: note_on channel=1 note=38 velocity=56 time=0
EXTRACT: note_on channel=3 note=74 velocity=110 time=0
EXTRACT: note_on channel=9 note=35 velocity=25 time=0
EXTRACT: note_on channel=9 note=70 velocity=59 time=0
EXTRACT: note_on channel=9 note=85 velocity=28 time=0
EXTRACT: note_on channel=15 note=57 velocity=60 time=0.001
EXTRACT: note_on channel=8 note=62 velocity=37 time=0.002
EXTRACT: note_on channel=8 note=57 velocity=38 time=0.001
EXTRACT: note_on channel=9 note=32 velocity=20 time=0.006
EXTRACT: note_off channel=9 note=85 velocity=64 time=0.014
EXTRACT: note_off channel=9 note=70 velocity=64 time=0
EXTRACT: note_off channel=9 note=35 velocity=65 time=0
EXTRACT: note_off channel=9 note=32 velocity=64 time=0.01
EXTRACT: note_off channel=1 note=38 velocity=64 time=0.17
EXTRACT: note_off channel=15 note=62 velocity=64 time=0.015
EXTRACT: note_off channel=15 note=57 velocity=64 time=0.002
EXTRACT: note_on channel=1 note=50 velocity=55 time=0.019
EXTRACT: note_on channel=9 note=33 velocity=23 time=0
EXTRACT: note_on channel=9 note=70 velocity=44 time=0
EXTRACT: control_change channel=8 control=10 value=110 time=0
EXTRACT: note_off channel=8 note=62 velocity=64 time=0.009000000000000001
EXTRACT: note_on channel=9 note=32 velocity=5 time=0.001
EXTRACT: note_off channel=8 note=57 velocity=65 time=0.003
EXTRACT: note_off channel=9 note=70 velocity=65 time=0.011
EXTRACT: note_off channel=9 note=33 velocity=65 time=0
EXTRACT: note_off channel=9 note=32 velocity=64 time=0.01
EXTRACT: note_off channel=3 note=74 velocity=64 time=0.012
EXTRACT: note_off channel=1 note=50 velocity=65 time=0.166
EXTRACT: note_on channel=15 note=57 velocity=45 time=0.025
EXTRACT: note_on channel=15 note=62 velocity=58 time=0.002
EXTRACT: note_on channel=1 note=38 velocity=60 time=0.001
EXTRACT: note_on channel=9 note=35 velocity=29 time=0
EXTRACT: note_on channel=9 note=70 velocity=65 time=0
EXTRACT: note_on channel=9 note=85 velocity=29 time=0
EXTRACT: note_on channel=8 note=62 velocity=32 time=0.005
EXTRACT: note_on channel=8 note=57 velocity=35 time=0
EXTRACT: note_on channel=9 note=32 velocity=27 time=0.005
EXTRACT: note_off channel=9 note=85 velocity=65 time=0.014
EXTRACT: note_off channel=9 note=70 velocity=64 time=0
EXTRACT: note_off channel=9 note=35 velocity=64 time=0
EXTRACT: note_off channel=9 note=32 velocity=65 time=0.01
EXTRACT: note_off channel=1 note=38 velocity=64 time=0.185
EXTRACT: note_off channel=15 note=62 velocity=65 time=0
EXTRACT: note_off channel=8 note=62 velocity=64 time=0.007
EXTRACT: note_off channel=15 note=57 velocity=65 time=0.006
EXTRACT: note_off channel=8 note=57 velocity=64 time=0.004
EXTRACT: note_on channel=1 note=50 velocity=54 time=0.004
EXTRACT: note_on channel=9 note=33 velocity=27 time=0
EXTRACT: note_on channel=9 note=70 velocity=54 time=0
EXTRACT: control_change channel=8 control=6 value=60 time=0
EXTRACT: note_on channel=9 note=32 velocity=15 time=0.01
EXTRACT: note_off channel=9 note=70 velocity=65 time=0.014
EXTRACT: note_off channel=9 note=33 velocity=64 time=0
EXTRACT: note_off channel=9 note=32 velocity=64 time=0.01
EXTRACT: note_off channel=1 note=50 velocity=64 time=0.2
EXTRACT: note_on channel=15 note=57 velocity=29 time=0.004
EXTRACT: note_on channel=1 note=38 velocity=57 time=0.002
EXTRACT: note_on channel=9 note=35 velocity=30 time=0
EXTRACT: note_on channel=9 note=70 velocity=58 time=0
EXTRACT: note_on channel=9 note=85 velocity=27 time=0
EXTRACT: note_on channel=15 note=62 velocity=58 time=0
EXTRACT: note_on channel=8 note=62 velocity=31 time=0.002
EXTRACT: note_on channel=8 note=57 velocity=31 time=0
EXTRACT: note_on channel=9 note=32 velocity=19 time=0.008
EXTRACT: note_off channel=9 note=85 velocity=65 time=0.014
EXTRACT: note_off channel=9 note=70 velocity=65 time=0
EXTRACT: note_off channel=9 note=35 velocity=64 time=0
EXTRACT: note_off channel=9 note=32 velocity=64 time=0.01
EXTRACT: control_change channel=13 control=6 value=27 time=0.08600000000000001
EXTRACT: control_change channel=8 control=10 value=120 time=0.08
EXTRACT: note_off channel=15 note=62 velocity=64 time=0.019
EXTRACT: note_off channel=1 note=38 velocity=65 time=0
EXTRACT: note_off channel=13 note=69 velocity=65 time=0.015
EXTRACT: note_off channel=13 note=65 velocity=64 time=0
EXTRACT: note_off channel=13 note=62 velocity=65 time=0
EXTRACT: note_on channel=1 note=40 velocity=57 time=0.006
EXTRACT: note_on channel=9 note=33 velocity=26 time=0
EXTRACT: note_on channel=9 note=70 velocity=53 time=0
EXTRACT: note_on channel=13 note=64 velocity=84 time=0
EXTRACT: note_off channel=15 note=57 velocity=64 time=0
EXTRACT: note_on channel=9 note=32 velocity=14 time=0.01
EXTRACT: note_on channel=13 note=67 velocity=70 time=0.002
EXTRACT: note_on channel=13 note=71 velocity=69 time=0.008
EXTRACT: note_off channel=8 note=62 velocity=65 time=0.003
EXTRACT: note_off channel=9 note=70 velocity=65 time=0.001
EXTRACT: note_off channel=9 note=33 velocity=64 time=0
EXTRACT: note_off channel=9 note=32 velocity=65 time=0.01
EXTRACT: note_off channel=8 note=57 velocity=65 time=0
EXTRACT: control_change channel=15 control=10 value=0 time=0.08600000000000001
EXTRACT: note_off channel=13 note=64 velocity=64 time=0.075
EXTRACT: note_off channel=1 note=40 velocity=65 time=0.009000000000000001
EXTRACT: note_on channel=13 note=65 velocity=93 time=0.019
EXTRACT: note_off channel=13 note=71 velocity=64 time=0.011
EXTRACT: note_off channel=13 note=67 velocity=65 time=0
EXTRACT: note_on channel=15 note=57 velocity=18 time=0.004
EXTRACT: note_on channel=1 note=41 velocity=60 time=0
EXTRACT: note_on channel=3 note=69 velocity=110 time=0
EXTRACT: note_on channel=9 note=35 velocity=33 time=0
EXTRACT: note_on channel=9 note=70 velocity=61 time=0
EXTRACT: note_on channel=9 note=85 velocity=26 time=0
EXTRACT: note_on channel=13 note=69 velocity=38 time=0
EXTRACT: note_on channel=13 note=72 velocity=72 time=0
EXTRACT: note_on channel=15 note=62 velocity=59 time=0
EXTRACT: note_on channel=8 note=57 velocity=31 time=0.002
EXTRACT: note_on channel=8 note=62 velocity=33 time=0
EXTRACT: note_on channel=9 note=32 velocity=22 time=0.008
EXTRACT: note_off channel=9 note=85 velocity=65 time=0.014
EXTRACT: note_off channel=9 note=70 velocity=64 time=0
EXTRACT: note_off channel=9 note=35 velocity=65 time=0
EXTRACT: note_off channel=9 note=32 velocity=64 time=0.01
EXTRACT: note_off channel=1 note=41 velocity=64 time=0.17
EXTRACT: note_off channel=15 note=62 velocity=65 time=0.015
EXTRACT: note_on channel=1 note=53 velocity=64 time=0.021
EXTRACT: note_on channel=9 note=33 velocity=26 time=0
EXTRACT: note_on channel=9 note=70 velocity=52 time=0
EXTRACT: note_on channel=9 note=32 velocity=14 time=0.01
EXTRACT: note_off channel=15 note=57 velocity=64 time=0.006
EXTRACT: note_off channel=8 note=62 velocity=64 time=0.007
EXTRACT: note_off channel=9 note=70 velocity=64 time=0.001
EXTRACT: note_off channel=9 note=33 velocity=65 time=0
EXTRACT: note_off channel=9 note=32 velocity=65 time=0.01
EXTRACT: note_off channel=8 note=57 velocity=64 time=0.001
EXTRACT: note_off channel=3 note=69 velocity=64 time=0.051000000000000004
EXTRACT: note_off channel=1 note=53 velocity=64 time=0.133
EXTRACT: note_on channel=1 note=41 velocity=75 time=0
EXTRACT: note_on channel=3 note=74 velocity=111 time=0
EXTRACT: note_on channel=9 note=35 velocity=34 time=0
EXTRACT: note_on channel=9 note=70 velocity=56 time=0
EXTRACT: note_on channel=9 note=85 velocity=26 time=0
EXTRACT: note_on channel=15 note=57 velocity=85 time=0
EXTRACT: note_on channel=8 note=62 velocity=28 time=0.003
EXTRACT: note_on channel=8 note=57 velocity=27 time=0
EXTRACT: note_on channel=9 note=32 velocity=18 time=0.007
EXTRACT: note_off channel=9 note=85 velocity=64 time=0.014
EXTRACT: note_off channel=9 note=70 velocity=64 time=0
EXTRACT: note_off channel=9 note=35 velocity=65 time=0
EXTRACT: note_off channel=9 note=32 velocity=65 time=0.01
EXTRACT: note_off channel=15 note=57 velocity=65 time=0.16
EXTRACT: note_off channel=3 note=74 velocity=65 time=0.02
EXTRACT: note_off channel=1 note=41 velocity=65 time=0.005
EXTRACT: note_off channel=8 note=62 velocity=65 time=0.01
EXTRACT: note_off channel=8 note=57 velocity=65 time=0.005
EXTRACT: note_on channel=1 note=53 velocity=65 time=0
EXTRACT: note_on channel=3 note=74 velocity=110 time=0
EXTRACT: note_on channel=9 note=33 velocity=27 time=0
EXTRACT: note_on channel=9 note=70 velocity=55 time=0
EXTRACT: note_on channel=15 note=57 velocity=66 time=0
EXTRACT: note_on channel=9 note=32 velocity=15 time=0.01
EXTRACT: note_off channel=9 note=70 velocity=64 time=0.014
EXTRACT: note_off channel=9 note=33 velocity=64 time=0
EXTRACT: note_off channel=9 note=32 velocity=65 time=0.004
EXTRACT: control_change channel=8 control=10 value=110 time=0.006
EXTRACT: note_off channel=15 note=57 velocity=65 time=0.094
EXTRACT: note_off channel=3 note=74 velocity=64 time=0.074
EXTRACT: note_off channel=1 note=53 velocity=65 time=0.011
EXTRACT: note_on channel=15 note=62 velocity=56 time=0.001
EXTRACT: note_on channel=1 note=41 velocity=72 time=0.02
EXTRACT: note_on channel=9 note=35 velocity=38 time=0
EXTRACT: note_on channel=9 note=70 velocity=55 time=0
EXTRACT: note_on channel=9 note=85 velocity=27 time=0
EXTRACT: note_on channel=15 note=57 velocity=57 time=0
EXTRACT: note_on channel=8 note=62 velocity=29 time=0.002
EXTRACT: note_on channel=8 note=57 velocity=30 time=0
EXTRACT: note_on channel=9 note=32 velocity=15 time=0.008
EXTRACT: note_off channel=9 note=85 velocity=64 time=0.014
EXTRACT: note_off channel=9 note=70 velocity=65 time=0
EXTRACT: note_off channel=9 note=35 velocity=65 time=0
EXTRACT: note_off channel=9 note=32 velocity=64 time=0.01
EXTRACT: control_change channel=13 control=6 value=30 time=0.006
EXTRACT: control_change channel=8 control=6 value=57 time=0.12
EXTRACT: note_off channel=15 note=62 velocity=64 time=0.034
EXTRACT: note_off channel=1 note=41 velocity=64 time=0.01
EXTRACT: note_off channel=15 note=57 velocity=65 time=0.01
EXTRACT: note_on channel=15 note=62 velocity=45 time=0.006
EXTRACT: note_off channel=13 note=72 velocity=65 time=0.014
EXTRACT: note_off channel=13 note=69 velocity=64 time=0
EXTRACT: note_off channel=13 note=65 velocity=64 time=0
EXTRACT: note_off channel=8 note=62 velocity=64 time=0.004
EXTRACT: note_off channel=8 note=57 velocity=64 time=0.001
EXTRACT: note_on channel=1 note=43 velocity=78 time=0.001
EXTRACT: note_on channel=9 note=33 velocity=27 time=0
EXTRACT: note_on channel=9 note=70 velocity=52 time=0
EXTRACT: note_on channel=13 note=71 velocity=71 time=0
EXTRACT: note_on channel=13 note=67 velocity=85 time=0
EXTRACT: note_on channel=15 note=57 velocity=36 time=0
EXTRACT: note_on channel=9 note=32 velocity=14 time=0.01
EXTRACT: note_on channel=13 note=74 velocity=62 time=0.01
EXTRACT: note_off channel=9 note=70 velocity=65 time=0.004
EXTRACT: note_off channel=9 note=33 velocity=64 time=0
EXTRACT: note_off channel=9 note=32 velocity=64 time=0.01
EXTRACT: note_off channel=15 note=62 velocity=64 time=0.08
EXTRACT: note_off channel=15 note=57 velocity=64 time=0.02
EXTRACT: control_change channel=13 control=6 value=32 time=0.066
EXTRACT: note_off channel=1 note=43 velocity=64 time=0.004
EXTRACT: note_off channel=13 note=74 velocity=65 time=0.03
EXTRACT: note_off channel=13 note=67 velocity=65 time=0
EXTRACT: note_off channel=13 note=71 velocity=64 time=0
EXTRACT: note_on channel=8 note=62 velocity=42 time=0.005
EXTRACT: note_on channel=1 note=45 velocity=75 time=0
EXTRACT: note_on channel=3 note=74 velocity=111 time=0
EXTRACT: note_on channel=9 note=35 velocity=41 time=0
EXTRACT: note_on channel=9 note=70 velocity=58 time=0
EXTRACT: note_on channel=9 note=85 velocity=27 time=0
EXTRACT: note_on channel=13 note=69 velocity=62 time=0
EXTRACT: note_on channel=8 note=57 velocity=46 time=0.001
EXTRACT: note_on channel=15 note=57 velocity=44 time=0.005
EXTRACT: note_on channel=15 note=62 velocity=51 time=0
EXTRACT: note_on channel=13 note=76 velocity=65 time=0.003
EXTRACT: note_on channel=9 note=32 velocity=21 time=0.001
EXTRACT: note_on channel=13 note=72 velocity=60 time=0.002
EXTRACT: note_off channel=9 note=85 velocity=65 time=0.012
EXTRACT: note_off channel=9 note=70 velocity=65 time=0
EXTRACT: note_off channel=9 note=35 velocity=64 time=0
EXTRACT: note_off channel=9 note=32 velocity=64 time=0.01
EXTRACT: control_change channel=15 control=10 value=0 time=0.046
EXTRACT: note_off channel=1 note=45 velocity=65 time=0.124
EXTRACT: note_off channel=15 note=62 velocity=65 time=0.019
EXTRACT: note_off channel=15 note=57 velocity=65 time=0
EXTRACT: note_on channel=1 note=57 velocity=62 time=0.017
EXTRACT: note_on channel=9 note=33 velocity=24 time=0
EXTRACT: note_on channel=9 note=70 velocity=55 time=0
EXTRACT: note_on channel=15 note=57 velocity=29 time=0
EXTRACT: note_on channel=15 note=62 velocity=34 time=0
EXTRACT: note_on channel=9 note=32 velocity=15 time=0.01
EXTRACT: note_off channel=9 note=70 velocity=65 time=0.014
EXTRACT: note_off channel=9 note=33 velocity=65 time=0
EXTRACT: note_off channel=3 note=74 velocity=65 time=0.003
EXTRACT: note_off channel=8 note=57 velocity=65 time=0.003
EXTRACT: note_off channel=8 note=62 velocity=64 time=0.003
EXTRACT: note_off channel=9 note=32 velocity=64 time=0.001
EXTRACT: control_change channel=8 control=10 value=100 time=0.006
EXTRACT: note_off channel=15 note=62 velocity=64 time=0.094
EXTRACT: note_off channel=15 note=57 velocity=64 time=0
EXTRACT: note_off channel=1 note=57 velocity=64 time=0.055
EXTRACT: note_on channel=15 note=57 velocity=57 time=0.042
EXTRACT: note_on channel=15 note=62 velocity=57 time=0.006
EXTRACT: note_on channel=1 note=45 velocity=65 time=0
EXTRACT: note_on channel=3 note=69 velocity=111 time=0
EXTRACT: note_on channel=9 note=35 velocity=43 time=0
EXTRACT: note_on channel=9 note=70 velocity=60 time=0
EXTRACT: note_on channel=9 note=85 velocity=26 time=0
EXTRACT: note_on channel=8 note=62 velocity=45 time=0.004
EXTRACT: note_on channel=8 note=57 velocity=47 time=0
EXTRACT: note_on channel=9 note=32 velocity=22 time=0.006
EXTRACT: note_off channel=9 note=85 velocity=64 time=0.014
EXTRACT: note_off channel=9 note=70 velocity=65 time=0
EXTRACT: note_off channel=9 note=35 velocity=64 time=0
EXTRACT: note_off channel=9 note=32 velocity=65 time=0.01
EXTRACT: control_change channel=1 control=6 value=25 time=0.146
EXTRACT: note_off channel=1 note=45 velocity=65 time=0.039
EXTRACT: note_off channel=15 note=57 velocity=65 time=0.003
EXTRACT: note_on channel=1 note=57 velocity=65 time=0.018000000000000002
EXTRACT: note_on channel=9 note=33 velocity=24 time=0
EXTRACT: note_on channel=9 note=70 velocity=59 time=0
EXTRACT: note_off channel=8 note=62 velocity=65 time=0.002
EXTRACT: note_off channel=8 note=57 velocity=65 time=0.007
EXTRACT: note_on channel=9 note=32 velocity=21 time=0.001
EXTRACT: note_off channel=15 note=62 velocity=65 time=0
EXTRACT: note_off channel=9 note=70 velocity=65 time=0.014
EXTRACT: note_off channel=9 note=33 velocity=64 time=0
EXTRACT: note_off channel=9 note=32 velocity=65 time=0.01
EXTRACT: control_change channel=13 control=6 value=34 time=0.006
EXTRACT: note_off channel=3 note=69 velocity=65 time=0.027
EXTRACT: control_change channel=8 control=6 value=55 time=0.013000000000000001
EXTRACT: note_off channel=1 note=57 velocity=65 time=0.124
EXTRACT: note_on channel=15 note=62 velocity=58 time=0.035
EXTRACT: note_on channel=1 note=45 velocity=62 time=0
EXTRACT: note_on channel=3 note=74 velocity=110 time=0
EXTRACT: note_on channel=9 note=35 velocity=44 time=0
EXTRACT: note_on channel=9 note=70 velocity=57 time=0
EXTRACT: note_on channel=9 note=85 velocity=26 time=0
EXTRACT: note_on channel=15 note=57 velocity=61 time=0.001
EXTRACT: note_on channel=8 note=62 velocity=36 time=0.003
EXTRACT: note_on channel=8 note=57 velocity=38 time=0.001
EXTRACT: note_on channel=9 note=32 velocity=17 time=0.005
EXTRACT: note_off channel=9 note=85 velocity=64 time=0.014
EXTRACT: note_off channel=9 note=70 velocity=64 time=0
EXTRACT: note_off channel=9 note=35 velocity=65 time=0
EXTRACT: note_off channel=9 note=32 velocity=65 time=0.01
EXTRACT: note_off channel=1 note=45 velocity=64 time=0.17
EXTRACT: note_off channel=15 note=62 velocity=64 time=0.015
EXTRACT: note_off channel=15 note=57 velocity=64 time=0.002
EXTRACT: note_on channel=1 note=57 velocity=77 time=0.019
EXTRACT: note_on channel=9 note=33 velocity=25 time=0
EXTRACT: note_on channel=9 note=70 velocity=58 time=0
EXTRACT: control_change channel=8 control=10 value=90 time=0
EXTRACT: note_on channel=9 note=32 velocity=20 time=0.01
EXTRACT: note_off channel=8 note=62 velocity=64 time=0.012
EXTRACT: note_off channel=9 note=70 velocity=64 time=0.002
EXTRACT: note_off channel=9 note=33 velocity=64 time=0
EXTRACT: note_off channel=8 note=57 velocity=65 time=0.001
EXTRACT: note_off channel=9 note=32 velocity=65 time=0.009000000000000001
EXTRACT: note_off channel=3 note=74 velocity=64 time=0.012
EXTRACT: note_off channel=13 note=76 velocity=64 time=0.068
EXTRACT: note_on channel=13 note=77 velocity=63 time=0.006
EXTRACT: control_change channel=15 control=10 value=20 time=0
EXTRACT: note_off channel=1 note=57 velocity=65 time=0.084
EXTRACT: note_on channel=15 note=57 velocity=44 time=0.033
EXTRACT: note_on channel=15 note=62 velocity=58 time=0.002
EXTRACT: note_on channel=1 note=45 velocity=82 time=0.001
EXTRACT: note_on channel=9 note=35 velocity=48 time=0
EXTRACT: note_on channel=9 note=70 velocity=59 time=0
EXTRACT: note_on channel=9 note=85 velocity=27 time=0
EXTRACT: note_on channel=8 note=57 velocity=35 time=0.004
EXTRACT: note_on channel=8 note=62 velocity=34 time=0
EXTRACT: note_on channel=9 note=32 velocity=21 time=0.006
EXTRACT: note_off channel=9 note=85 velocity=65 time=0.014
EXTRACT: note_off channel=9 note=70 velocity=64 time=0
EXTRACT: note_off channel=9 note=35 velocity=64 time=0
EXTRACT: note_off channel=9 note=32 velocity=65 time=0.01
EXTRACT: note_off channel=1 note=45 velocity=64 time=0.17
EXTRACT: note_off channel=15 note=62 velocity=65 time=0.015
EXTRACT: note_off channel=15 note=57 velocity=64 time=0.013000000000000001
EXTRACT: note_on channel=1 note=55 velocity=68 time=0.008
EXTRACT: note_on channel=9 note=33 velocity=22 time=0
EXTRACT: note_on channel=9 note=70 velocity=58 time=0
EXTRACT: note_on channel=9 note=32 velocity=20 time=0.01
EXTRACT: note_off channel=9 note=70 velocity=64 time=0.014
EXTRACT: note_off channel=9 note=33 velocity=65 time=0
EXTRACT: note_off channel=8 note=62 velocity=64 time=0.003
EXTRACT: note_off channel=9 note=32 velocity=65 time=0.007
EXTRACT: note_off channel=8 note=57 velocity=64 time=0.002
EXTRACT: note_off channel=1 note=55 velocity=64 time=0.078
EXTRACT: note_on channel=1 note=53 velocity=59 time=0.006
EXTRACT: control_change channel=13 control=6 value=36 time=0.08
EXTRACT: note_off channel=1 note=53 velocity=65 time=0.034
EXTRACT: note_off channel=13 note=77 velocity=65 time=0
EXTRACT: note_off channel=13 note=72 velocity=64 time=0
EXTRACT: note_off channel=13 note=69 velocity=65 time=0
EXTRACT: note_on channel=15 note=57 velocity=29 time=0.004
EXTRACT: note_on channel=1 note=38 velocity=71 time=0.002
EXTRACT: note_on channel=2 note=38 velocity=9 time=0
EXTRACT: note_on channel=9 note=35 velocity=51 time=0
EXTRACT: note_on channel=9 note=70 velocity=64 time=0
EXTRACT: note_on channel=9 note=85 velocity=26 time=0
EXTRACT: note_on channel=13 note=62 velocity=61 time=0
EXTRACT: note_on channel=13 note=65 velocity=56 time=0
EXTRACT: note_on channel=15 note=62 velocity=59 time=0
EXTRACT: note_on channel=8 note=62 velocity=31 time=0.002
EXTRACT: note_on channel=8 note=57 velocity=31 time=0
EXTRACT: note_on channel=13 note=74 velocity=53 time=0
EXTRACT: note_on channel=13 note=69 velocity=68 time=0.003
EXTRACT: note_on channel=9 note=32 velocity=24 time=0.005
EXTRACT: note_off channel=9 note=85 velocity=64 time=0.014
EXTRACT: note_off channel=9 note=70 velocity=65 time=0
EXTRACT: note_off channel=9 note=35 velocity=64 time=0
EXTRACT: note_off channel=9 note=32 velocity=64 time=0.01
EXTRACT: note_off channel=2 note=38 velocity=65 time=0.006
EXTRACT: note_off channel=15 note=62 velocity=65 time=0.179
EXTRACT: note_off channel=1 note=38 velocity=65 time=0
EXTRACT: note_on channel=1 note=50 velocity=66 time=0.021
EXTRACT: note_on channel=9 note=33 velocity=21 time=0
EXTRACT: note_on channel=9 note=70 velocity=55 time=0
EXTRACT: control_change channel=8 control=10 value=80 time=0
EXTRACT: note_off channel=15 note=57 velocity=65 time=0
EXTRACT: note_on channel=9 note=32 velocity=15 time=0.01
EXTRACT: note_off channel=8 note=62 velocity=65 time=0.007
EXTRACT: note_off channel=8 note=57 velocity=65 time=0.003
EXTRACT: note_off channel=9 note=70 velocity=65 time=0.004
EXTRACT: note_off channel=9 note=33 velocity=65 time=0
EXTRACT: note_off channel=9 note=32 velocity=64 time=0.01
EXTRACT: note_off channel=1 note=50 velocity=64 time=0.08
EXTRACT: note_on channel=2 note=50 velocity=26 time=0.006
EXTRACT: note_off channel=2 note=50 velocity=64 time=0.059000000000000004
EXTRACT: control_change channel=1 control=6 value=28 time=0.031
EXTRACT: note_on channel=15 note=57 velocity=18 time=0.028
EXTRACT: note_on channel=1 note=38 velocity=72 time=0
EXTRACT: note_on channel=2 note=38 velocity=12 time=0
EXTRACT: note_on channel=3 note=69 velocity=111 time=0
EXTRACT: note_on channel=9 note=35 velocity=53 time=0
EXTRACT: note_on channel=9 note=70 velocity=63 time=0
EXTRACT: note_on channel=9 note=85 velocity=27 time=0
EXTRACT: note_on channel=15 note=62 velocity=59 time=0
EXTRACT: note_on channel=8 note=62 velocity=31 time=0.001
EXTRACT: note_on channel=8 note=57 velocity=33 time=0.001
EXTRACT: note_on channel=9 note=32 velocity=23 time=0.008
EXTRACT: note_off channel=9 note=85 velocity=64 time=0.014
EXTRACT: note_off channel=9 note=70 velocity=65 time=0
EXTRACT: note_off channel=9 note=35 velocity=65 time=0
EXTRACT: note_off channel=9 note=32 velocity=64 time=0.01
EXTRACT: note_off channel=2 note=38 velocity=65 time=0.006
EXTRACT: note_off channel=1 note=38 velocity=64 time=0.164
EXTRACT: note_off channel=15 note=62 velocity=64 time=0.015
EXTRACT: note_on channel=1 note=50 velocity=65 time=0.021
EXTRACT: note_on channel=2 note=50 velocity=45 time=0
EXTRACT: note_on channel=9 note=33 velocity=21 time=0
EXTRACT: note_on channel=9 note=70 velocity=52 time=0
EXTRACT: note_off channel=8 note=57 velocity=64 time=0.003
EXTRACT: note_on channel=9 note=32 velocity=14 time=0.007
EXTRACT: note_off channel=8 note=62 velocity=64 time=0.001
EXTRACT: note_off channel=15 note=57 velocity=65 time=0.005
EXTRACT: note_off channel=9 note=70 velocity=64 time=0.008
EXTRACT: note_off channel=9 note=33 velocity=65 time=0
EXTRACT: note_off channel=9 note=32 velocity=64 time=0.01
EXTRACT: control_change channel=8 control=6 value=50 time=0.006
EXTRACT: note_off channel=2 note=50 velocity=65 time=0.005
EXTRACT: note_off channel=3 note=69 velocity=65 time=0.041
EXTRACT: note_off channel=1 note=50 velocity=65 time=0.028
EXTRACT: note_on channel=2 note=50 velocity=34 time=0.006
EXTRACT: control_change channel=15 control=10 value=35 time=0
EXTRACT: note_off channel=2 note=50 velocity=64 time=0.063
EXTRACT: note_on channel=1 note=38 velocity=79 time=0
EXTRACT: note_on channel=2 note=38 velocity=16 time=0
EXTRACT: note_on channel=3 note=74 velocity=110 time=0
EXTRACT: note_on channel=9 note=35 velocity=54 time=0
EXTRACT: note_on channel=9 note=70 velocity=52 time=0
EXTRACT: note_on channel=9 note=85 velocity=27 time=0
EXTRACT: note_on channel=15 note=57 velocity=84 time=0
EXTRACT: note_on channel=8 note=57 velocity=31 time=0.002
EXTRACT: note_on channel=8 note=62 velocity=31 time=0
EXTRACT: note_on channel=9 note=32 velocity=14 time=0.008
EXTRACT: note_off channel=9 note=85 velocity=65 time=0.014
EXTRACT: note_off channel=9 note=70 velocity=65 time=0
EXTRACT: note_off channel=9 note=35 velocity=64 time=0
EXTRACT: note_off channel=9 note=32 velocity=65 time=0.01
EXTRACT: note_off channel=2 note=38 velocity=65 time=0.006
EXTRACT: control_change channel=8 control=10 value=70 time=0.12
EXTRACT: note_off channel=15 note=57 velocity=64 time=0.034
EXTRACT: note_off channel=1 note=38 velocity=65 time=0.01
EXTRACT: note_off channel=3 note=74 velocity=64 time=0.01
EXTRACT: note_on channel=1 note=50 velocity=66 time=0
EXTRACT: note_on channel=2 note=50 velocity=49 time=0
EXTRACT: note_on channel=3 note=74 velocity=110 time=0
EXTRACT: note_on channel=9 note=33 velocity=18 time=0
EXTRACT: note_on channel=9 note=70 velocity=49 time=0
EXTRACT: note_on channel=11 note=86 velocity=20 time=0.001
EXTRACT: note_on channel=14 note=74 velocity=20 time=0
EXTRACT: note_off channel=8 note=62 velocity=65 time=0.004
EXTRACT: note_on channel=9 note=32 velocity=10 time=0.005
EXTRACT: note_off channel=8 note=57 velocity=65 time=0.001
EXTRACT: note_off channel=9 note=70 velocity=64 time=0.013000000000000001
EXTRACT: note_off channel=9 note=33 velocity=64 time=0
EXTRACT: note_off channel=9 note=32 velocity=65 time=0.004
EXTRACT: control_change channel=13 control=6 value=38 time=0.006
EXTRACT: note_off channel=2 note=50 velocity=64 time=0.002
EXTRACT: note_on channel=11 note=89 velocity=28 time=0.034
EXTRACT: note_on channel=14 note=77 velocity=28 time=0
EXTRACT: note_off channel=14 note=74 velocity=65 time=0.018000000000000002
EXTRACT: note_off channel=11 note=86 velocity=65 time=0
EXTRACT: note_off channel=1 note=50 velocity=64 time=0.02
EXTRACT: note_on channel=2 note=50 velocity=45 time=0.006
EXTRACT: note_on channel=11 note=93 velocity=28 time=0.032
EXTRACT: note_on channel=14 note=81 velocity=28 time=0
EXTRACT: note_off channel=14 note=77 velocity=64 time=0.022
EXTRACT: note_off channel=11 note=89 velocity=64 time=0
EXTRACT: note_off channel=2 note=50 velocity=64 time=0.023
EXTRACT: note_off channel=3 note=74 velocity=64 time=0.011
EXTRACT: note_on channel=11 note=98 velocity=24 time=0.013000000000000001
EXTRACT: note_on channel=14 note=86 velocity=24 time=0
EXTRACT: note_on channel=1 note=38 velocity=82 time=0.019
EXTRACT: note_on channel=2 note=38 velocity=20 time=0
EXTRACT: note_on channel=9 note=35 velocity=58 time=0
EXTRACT: note_on channel=9 note=70 velocity=55 time=0
EXTRACT: note_on channel=9 note=85 velocity=26 time=0
EXTRACT: note_on channel=15 note=62 velocity=56 time=0
EXTRACT: note_on channel=8 note=62 velocity=29 time=0.002
EXTRACT: note_on channel=8 note=57 velocity=30 time=0
EXTRACT: note_off channel=14 note=81 velocity=65 time=0.002
EXTRACT: note_off channel=11 note=93 velocity=65 time=0
EXTRACT: note_on channel=9 note=32 velocity=15 time=0.006
EXTRACT: note_on channel=15 note=57 velocity=57 time=0.01
EXTRACT: note_off channel=9 note=85 velocity=65 time=0.004
EXTRACT: note_off channel=9 note=70 velocity=64 time=0
EXTRACT: note_off channel=9 note=35 velocity=64 time=0
EXTRACT: note_off channel=9 note=32 velocity=65 time=0.01
EXTRACT: note_off channel=2 note=38 velocity=65 time=0.006
EXTRACT: note_off channel=15 note=62 velocity=64 time=0.17400000000000002
EXTRACT: note_off channel=1 note=38 velocity=64 time=0.005
EXTRACT: note_off channel=15 note=57 velocity=65 time=0.015
EXTRACT: note_on channel=11 note=93 velocity=31 time=0.002
EXTRACT: note_on channel=14 note=81 velocity=31 time=0
EXTRACT: note_off channel=8 note=57 velocity=64 time=0.003
EXTRACT: note_on channel=1 note=50 velocity=65 time=0.001
EXTRACT: note_on channel=2 note=50 velocity=48 time=0
EXTRACT: note_on channel=9 note=33 velocity=15 time=0
EXTRACT: note_on channel=9 note=70 velocity=46 time=0
EXTRACT: note_on channel=15 note=62 velocity=45 time=0
EXTRACT: note_off channel=8 note=62 velocity=64 time=0.003
EXTRACT: note_off channel=14 note=86 velocity=65 time=0.001
EXTRACT: note_off channel=11 note=98 velocity=65 time=0
EXTRACT: note_on channel=9 note=32 velocity=8 time=0.006
EXTRACT: note_on channel=15 note=57 velocity=36 time=0.01
EXTRACT: note_off channel=9 note=70 velocity=65 time=0.004
EXTRACT: note_off channel=9 note=33 velocity=64 time=0
EXTRACT: note_off channel=9 note=32 velocity=64 time=0.01
EXTRACT: note_off channel=2 note=50 velocity=65 time=0.001
EXTRACT: note_off channel=1 note=50 velocity=65 time=0.079
EXTRACT: note_on channel=1 note=45 velocity=54 time=0.006
EXTRACT: note_on channel=2 note=50 velocity=51 time=0
EXTRACT: control_change channel=3 control=11 value=83 time=0
EXTRACT: note_off channel=14 note=81 velocity=64 time=0.004
EXTRACT: note_off channel=11 note=93 velocity=64 time=0
EXTRACT: note_on channel=11 note=89 velocity=29 time=0.003
EXTRACT: note_on channel=14 note=77 velocity=29 time=0
EXTRACT: note_off channel=15 note=62 velocity=65 time=0.007
EXTRACT: note_off channel=15 note=57 velocity=64 time=0.02
EXTRACT: note_off channel=2 note=50 velocity=64 time=0.009000000000000001
EXTRACT: note_off channel=13 note=65 velocity=65 time=0.046
EXTRACT: note_off channel=13 note=69 velocity=64 time=0.012
EXTRACT: note_off channel=1 note=45 velocity=64 time=0.013000000000000001
EXTRACT: note_off channel=13 note=74 velocity=65 time=0.001
EXTRACT: note_on channel=1 note=38 velocity=71 time=0
EXTRACT: note_on channel=2 note=38 velocity=19 time=0
EXTRACT: note_on channel=3 note=74 velocity=111 time=0
EXTRACT: note_on channel=8 note=62 velocity=31 time=0
EXTRACT: note_on channel=9 note=35 velocity=61 time=0
EXTRACT: note_on channel=9 note=70 velocity=46 time=0
EXTRACT: note_on channel=9 note=85 velocity=25 time=0
EXTRACT: note_on channel=13 note=62 velocity=60 time=0
EXTRACT: note_on channel=13 note=65 velocity=57 time=0
EXTRACT: note_on channel=8 note=57 velocity=31 time=0.001
EXTRACT: note_on channel=13 note=74 velocity=53 time=0.001
EXTRACT: note_off channel=13 note=62 velocity=64 time=0.001
EXTRACT: note_on channel=13 note=69 velocity=68 time=0.002
EXTRACT: note_on channel=11 note=86 velocity=37 time=0.002
EXTRACT: note_on channel=14 note=74 velocity=37 time=0
EXTRACT: note_on channel=9 note=32 velocity=8 time=0.003
EXTRACT: note_off channel=14 note=77 velocity=65 time=0.004
EXTRACT: note_off channel=11 note=89 velocity=65 time=0
EXTRACT: note_off channel=9 note=85 velocity=65 time=0.01
EXTRACT: note_off channel=9 note=70 velocity=64 time=0
EXTRACT: note_off channel=9 note=35 velocity=65 time=0
EXTRACT: note_on channel=15 note=57 velocity=44 time=0.002
EXTRACT: note_on channel=15 note=62 velocity=51 time=0
EXTRACT: note_off channel=9 note=32 velocity=65 time=0.008
EXTRACT: note_off channel=2 note=38 velocity=64 time=0.006
EXTRACT: control_change channel=8 control=10 value=60 time=0.16
EXTRACT: control_change channel=1 control=6 value=31 time=0.01
EXTRACT: note_off channel=1 note=38 velocity=65 time=0.009000000000000001
EXTRACT: note_on channel=1 note=50 velocity=69 time=0.021
EXTRACT: note_on channel=2 note=50 velocity=74 time=0
EXTRACT: note_on channel=9 note=33 velocity=15 time=0
EXTRACT: note_on channel=9 note=70 velocity=39 time=0
EXTRACT: note_off channel=15 note=62 velocity=64 time=0.003
EXTRACT: note_off channel=15 note=57 velocity=65 time=0
EXTRACT: note_on channel=9 note=32 velocity=1 time=0.007
EXTRACT: note_on channel=15 note=57 velocity=29 time=0.01
EXTRACT: note_on channel=15 note=62 velocity=34 time=0
EXTRACT: note_off channel=8 note=57 velocity=65 time=0
EXTRACT: note_off channel=8 note=62 velocity=64 time=0
EXTRACT: note_off channel=9 note=70 velocity=64 time=0.004
EXTRACT: note_off channel=9 note=33 velocity=65 time=0
EXTRACT: note_off channel=3 note=74 velocity=65 time=0.003
EXTRACT: note_off channel=9 note=32 velocity=64 time=0.007
EXTRACT: note_off channel=2 note=50 velocity=65 time=0.008
EXTRACT: note_on channel=2 note=50 velocity=46 time=0.078
EXTRACT: control_change channel=15 control=10 value=50 time=0
EXTRACT: note_off channel=15 note=62 velocity=65 time=0.034
EXTRACT: note_off channel=15 note=57 velocity=64 time=0
EXTRACT: control_change channel=8 control=6 value=45 time=0.006
EXTRACT: note_off channel=2 note=50 velocity=65 time=0.021
EXTRACT: note_off channel=1 note=50 velocity=65 time=0.023
EXTRACT: note_on channel=1 note=38 velocity=66 time=0
EXTRACT: note_on channel=2 note=38 velocity=20 time=0
EXTRACT: note_on channel=3 note=69 velocity=111 time=0
EXTRACT: note_on channel=9 note=35 velocity=62 time=0
EXTRACT: note_on channel=9 note=70 velocity=40 time=0
EXTRACT: note_on channel=9 note=85 velocity=24 time=0
EXTRACT: note_on channel=8 note=62 velocity=26 time=0.003
EXTRACT: note_on channel=8 note=57 velocity=27 time=0.001
EXTRACT: note_on channel=9 note=32 velocity=2 time=0.006
EXTRACT: note_on channel=15 note=57 velocity=57 time=0.001
EXTRACT: note_on channel=15 note=62 velocity=57 time=0.006
EXTRACT: note_off channel=9 note=85 velocity=64 time=0.007
EXTRACT: note_off channel=9 note=70 velocity=65 time=0
EXTRACT: note_off channel=9 note=35 velocity=65 time=0
EXTRACT: note_off channel=9 note=32 velocity=64 time=0.01
EXTRACT: control_change channel=11 control=1 value=15 time=0.006
EXTRACT: note_off channel=2 note=38 velocity=64 time=0
EXTRACT: control_change channel=13 control=6 value=39 time=0.12
EXTRACT: note_off channel=1 note=38 velocity=64 time=0.044
EXTRACT: note_off channel=8 note=57 velocity=65 time=0.035
EXTRACT: note_on channel=1 note=50 velocity=65 time=0.001
EXTRACT: note_on channel=2 note=50 velocity=61 time=0
EXTRACT: note_on channel=9 note=33 velocity=15 time=0
EXTRACT: note_on channel=9 note=70 velocity=41 time=0
EXTRACT: note_off channel=15 note=57 velocity=64 time=0.002
EXTRACT: note_off channel=8 note=62 velocity=65 time=0.005
EXTRACT: note_on channel=9 note=32 velocity=1 time=0.003
EXTRACT: note_off channel=9 note=70 velocity=64 time=0.014
EXTRACT: note_off channel=9 note=33 velocity=65 time=0
EXTRACT: note_off channel=15 note=62 velocity=65 time=0.006
EXTRACT: note_off channel=9 note=32 velocity=65 time=0.004
EXTRACT: note_off channel=2 note=50 velocity=64 time=0.009000000000000001
EXTRACT: note_off channel=3 note=69 velocity=65 time=0.024
EXTRACT: note_on channel=2 note=50 velocity=51 time=0.053
EXTRACT: note_off channel=2 note=50 velocity=65 time=0.076
EXTRACT: note_off channel=1 note=50 velocity=65 time=0.008
EXTRACT: note_on channel=1 note=38 velocity=62 time=0
EXTRACT: note_on channel=2 note=38 velocity=20 time=0
EXTRACT: note_on channel=3 note=74 velocity=110 time=0
EXTRACT: note_on channel=9 note=35 velocity=65 time=0
EXTRACT: note_on channel=9 note=70 velocity=43 time=0
EXTRACT: note_on channel=9 note=85 velocity=24 time=0
EXTRACT: control_change channel=2 control=6 value=33 time=0
EXTRACT: note_on channel=8 note=62 velocity=27 time=0.003
EXTRACT: note_on channel=8 note=57 velocity=28 time=0
EXTRACT: note_on channel=9 note=32 velocity=4 time=0.007
EXTRACT: note_on channel=15 note=62 velocity=58 time=0.009000000000000001
EXTRACT: note_on channel=15 note=57 velocity=61 time=0.002
EXTRACT: note_off channel=9 note=85 velocity=64 time=0.003
EXTRACT: note_off channel=9 note=70 velocity=64 time=0
EXTRACT: note_off channel=9 note=35 velocity=65 time=0
EXTRACT: note_off channel=9 note=32 velocity=64 time=0.01
EXTRACT: note_off channel=2 note=38 velocity=64 time=0.006
EXTRACT: note_off channel=14 note=74 velocity=64 time=0.134
EXTRACT: note_off channel=11 note=86 velocity=64 time=0
EXTRACT: control_change channel=8 control=10 value=50 time=0.026000000000000002
EXTRACT: note_off channel=1 note=38 velocity=64 time=0.004
EXTRACT: note_off channel=8 note=57 velocity=64 time=0.01
EXTRACT: note_off channel=8 note=62 velocity=65 time=0.008
EXTRACT: note_off channel=15 note=62 velocity=64 time=0.017
EXTRACT: note_on channel=1 note=50 velocity=64 time=0.001
EXTRACT: note_on channel=2 note=50 velocity=70 time=0
EXTRACT: note_on channel=9 note=33 velocity=15 time=0
EXTRACT: note_on channel=9 note=70 velocity=32 time=0
EXTRACT: note_on channel=11 note=86 velocity=44 time=0.001
EXTRACT: note_on channel=14 note=74 velocity=44 time=0
EXTRACT: note_off channel=15 note=57 velocity=65 time=0
EXTRACT: note_on channel=9 note=32 velocity=1 time=0.009000000000000001
EXTRACT: note_off channel=9 note=70 velocity=65 time=0.014
EXTRACT: note_off channel=9 note=33 velocity=65 time=0
EXTRACT: note_off channel=9 note=32 velocity=64 time=0.01
EXTRACT: note_off channel=3 note=74 velocity=64 time=0.012
EXTRACT: note_off channel=2 note=50 velocity=65 time=0.008
EXTRACT: note_on channel=11 note=89 velocity=49 time=0.022
EXTRACT: note_on channel=14 note=77 velocity=49 time=0
EXTRACT: note_off channel=14 note=74 velocity=64 time=0.018000000000000002
EXTRACT: note_off channel=11 note=86 velocity=64 time=0
EXTRACT: note_on channel=2 note=50 velocity=58 time=0.026000000000000002
EXTRACT: note_on channel=11 note=93 velocity=43 time=0.032
EXTRACT: note_on channel=14 note=81 velocity=43 time=0
EXTRACT: note_off channel=14 note=77 velocity=65 time=0.022
EXTRACT: note_off channel=11 note=89 velocity=65 time=0
EXTRACT: note_off channel=2 note=50 velocity=65 time=0.013000000000000001
EXTRACT: note_off channel=1 note=50 velocity=64 time=0.017
EXTRACT: note_on channel=11 note=98 velocity=46 time=0.017
EXTRACT: note_on channel=14 note=86 velocity=46 time=0
EXTRACT: note_on channel=1 note=38 velocity=67 time=0.019
EXTRACT: note_on channel=2 note=38 velocity=20 time=0
EXTRACT: note_on channel=9 note=35 velocity=69 time=0
EXTRACT: note_on channel=9 note=70 velocity=41 time=0
EXTRACT: note_on channel=9 note=85 velocity=25 time=0
EXTRACT: note_on channel=8 note=62 velocity=26 time=0.004
EXTRACT: note_off channel=14 note=81 velocity=65 time=0
EXTRACT: note_off channel=11 note=93 velocity=65 time=0
EXTRACT: note_on channel=8 note=57 velocity=27 time=0.001
EXTRACT: note_on channel=9 note=32 velocity=1 time=0.005
EXTRACT: note_on channel=15 note=57 velocity=44 time=0.007
EXTRACT: note_on channel=15 note=62 velocity=58 time=0.002
EXTRACT: note_off channel=9 note=85 velocity=65 time=0.005
EXTRACT: note_off channel=9 note=70 velocity=64 time=0
EXTRACT: note_off channel=9 note=35 velocity=64 time=0
EXTRACT: note_off channel=9 note=32 velocity=65 time=0.01
EXTRACT: note_off channel=2 note=38 velocity=64 time=0.006
EXTRACT: control_change channel=8 control=6 value=40 time=0.12
EXTRACT: note_off channel=1 note=38 velocity=65 time=0.029
EXTRACT: note_off channel=8 note=57 velocity=64 time=0.005
EXTRACT: note_off channel=8 note=62 velocity=64 time=0
EXTRACT: note_on channel=11 note=93 velocity=51 time=0.032
EXTRACT: note_on channel=14 note=81 velocity=51 time=0
EXTRACT: note_off channel=15 note=62 velocity=65 time=0.013000000000000001
EXTRACT: note_on channel=1 note=50 velocity=69 time=0.001
EXTRACT: note_on channel=2 note=50 velocity=53 time=0
EXTRACT: note_on channel=9 note=33 velocity=15 time=0
EXTRACT: note_on channel=9 note=70 velocity=36 time=0
EXTRACT: control_change channel=15 control=10 value=70 time=0
EXTRACT: note_off channel=14 note=86 velocity=64 time=0.004
EXTRACT: note_off channel=11 note=98 velocity=64 time=0
EXTRACT: note_on channel=9 note=32 velocity=1 time=0.006
EXTRACT: note_off channel=15 note=57 velocity=64 time=0.002
EXTRACT: note_off channel=9 note=70 velocity=65 time=0.012
EXTRACT: note_off channel=9 note=33 velocity=64 time=0
EXTRACT: note_off channel=9 note=32 velocity=64 time=0.01
EXTRACT: note_off channel=2 note=50 velocity=65 time=0.007
EXTRACT: note_off channel=14 note=81 velocity=64 time=0.073
EXTRACT: note_off channel=11 note=93 velocity=64 time=0
EXTRACT: note_on channel=11 note=89 velocity=46 time=0.003
EXTRACT: note_on channel=14 note=77 velocity=46 time=0
EXTRACT: note_on channel=2 note=50 velocity=67 time=0.003
EXTRACT: control_change channel=3 control=11 value=79 time=0.04
EXTRACT: note_off channel=2 note=50 velocity=64 time=0.023
EXTRACT: note_off channel=1 note=50 velocity=65 time=0.021
EXTRACT: control_change channel=1 control=6 value=35 time=0.006
EXTRACT: note_on channel=11 note=86 velocity=48 time=0.027
EXTRACT: note_on channel=14 note=74 velocity=48 time=0
EXTRACT: note_on channel=8 note=57 velocity=29 time=0.002
EXTRACT: note_on channel=1 note=38 velocity=62 time=0.001
EXTRACT: note_on channel=2 note=38 velocity=20 time=0
EXTRACT: note_on channel=8 note=62 velocity=29 time=0
EXTRACT: note_on channel=9 note=35 velocity=70 time=0
EXTRACT: note_on channel=9 note=70 velocity=30 time=0
EXTRACT: note_on channel=9 note=85 velocity=23 time=0
EXTRACT: control_change channel=13 control=6 value=40 time=0
EXTRACT: note_on channel=9 note=32 velocity=1 time=0.01
EXTRACT: note_off channel=14 note=77 velocity=65 time=0.004
EXTRACT: note_off channel=11 note=89 velocity=65 time=0
EXTRACT: note_on channel=15 note=57 velocity=29 time=0.004
EXTRACT: note_on channel=15 note=62 velocity=59 time=0.002
EXTRACT: note_off channel=9 note=85 velocity=65 time=0.004
EXTRACT: note_off channel=9 note=70 velocity=65 time=0
EXTRACT: note_off channel=9 note=35 velocity=64 time=0
EXTRACT: note_off channel=9 note=32 velocity=64 time=0.01
EXTRACT: note_off channel=2 note=38 velocity=64 time=0.006
EXTRACT: note_on channel=11 note=88 velocity=45 time=0.076
EXTRACT: note_on channel=14 note=76 velocity=45 time=0
EXTRACT: note_off channel=14 note=74 velocity=65 time=0.008
EXTRACT: note_off channel=11 note=86 velocity=65 time=0
EXTRACT: note_off channel=8 note=62 velocity=65 time=0.074
EXTRACT: note_off channel=1 note=38 velocity=64 time=0.006
EXTRACT: note_off channel=8 note=57 velocity=65 time=0.004
EXTRACT: note_off channel=13 note=69 velocity=64 time=0.026000000000000002
EXTRACT: note_off channel=13 note=74 velocity=65 time=0
EXTRACT: note_off channel=13 note=65 velocity=65 time=0
EXTRACT: note_off channel=13 note=62 velocity=64 time=0
EXTRACT: note_on channel=11 note=89 velocity=51 time=0.004
EXTRACT: note_on channel=14 note=77 velocity=51 time=0
EXTRACT: note_off channel=15 note=62 velocity=65 time=0.001
EXTRACT: note_on channel=1 note=40 velocity=62 time=0.001
EXTRACT: note_on channel=2 note=52 velocity=52 time=0
EXTRACT: note_on channel=9 note=33 velocity=15 time=0
EXTRACT: note_on channel=9 note=70 velocity=23 time=0
EXTRACT: note_on channel=13 note=64 velocity=84 time=0
EXTRACT: control_change channel=8 control=10 value=40 time=0
EXTRACT: note_off channel=14 note=76 velocity=64 time=0.005
EXTRACT: note_off channel=11 note=88 velocity=64 time=0
EXTRACT: note_on channel=9 note=32 velocity=1 time=0.005
EXTRACT: note_on channel=13 note=67 velocity=71 time=0.002
EXTRACT: note_on channel=13 note=71 velocity=69 time=0.008
EXTRACT: note_off channel=15 note=57 velocity=64 time=0
EXTRACT: note_off channel=9 note=70 velocity=65 time=0.004
EXTRACT: note_off channel=9 note=33 velocity=64 time=0
EXTRACT: note_off channel=2 note=52 velocity=65 time=0.009000000000000001
EXTRACT: note_off channel=9 note=32 velocity=65 time=0.001
EXTRACT: note_on channel=2 note=52 velocity=38 time=0.08600000000000001
EXTRACT: note_on channel=11 note=91 velocity=50 time=0.001
EXTRACT: note_on channel=14 note=79 velocity=50 time=0
EXTRACT: note_off channel=14 note=77 velocity=64 time=0.013000000000000001
EXTRACT: note_off channel=11 note=89 velocity=64 time=0
EXTRACT: note_off channel=2 note=52 velocity=65 time=0.054
EXTRACT: note_off channel=1 note=40 velocity=64 time=0.001
EXTRACT: note_off channel=13 note=64 velocity=64 time=0.006
EXTRACT: note_on channel=11 note=93 velocity=50 time=0.032
EXTRACT: note_on channel=14 note=81 velocity=50 time=0
EXTRACT: note_off channel=13 note=71 velocity=65 time=0.007
EXTRACT: note_off channel=13 note=67 velocity=65 time=0
EXTRACT: note_on channel=1 note=41 velocity=73 time=0
EXTRACT: note_on channel=2 note=41 velocity=20 time=0
EXTRACT: note_on channel=3 note=69 velocity=110 time=0
EXTRACT: note_on channel=8 note=57 velocity=27 time=0
EXTRACT: note_on channel=8 note=62 velocity=26 time=0
EXTRACT: note_on channel=9 note=35 velocity=73 time=0
EXTRACT: note_on channel=9 note=70 velocity=29 time=0
EXTRACT: note_on channel=9 note=85 velocity=22 time=0
EXTRACT: note_on channel=13 note=65 velocity=92 time=0
EXTRACT: note_off channel=14 note=79 velocity=65 time=0.002
EXTRACT: note_off channel=11 note=91 velocity=65 time=0
EXTRACT: note_on channel=9 note=32 velocity=1 time=0.008
EXTRACT: note_on channel=13 note=72 velocity=84 time=0.007
EXTRACT: note_on channel=13 note=69 velocity=39 time=0
EXTRACT: note_on channel=15 note=57 velocity=18 time=0.001
EXTRACT: note_on channel=15 note=62 velocity=59 time=0.002
EXTRACT: note_off channel=9 note=85 velocity=65 time=0.004
EXTRACT: note_off channel=9 note=70 velocity=70 time=0
EXTRACT: note_off channel=9 note=35 velocity=65 time=0
EXTRACT: note_off channel=9 note=32 velocity=70 time=0.01
EXTRACT: note_off channel=2 note=41 velocity=64 time=0.006
EXTRACT: control_change channel=2 control=6 value=35 time=0.04
EXTRACT: control_change channel=8 control=6 value=35 time=0.08
EXTRACT: note_off channel=8 note=62 velocity=64 time=0.03
EXTRACT: note_off channel=8 note=57 velocity=64 time=0.004
EXTRACT: note_off channel=1 note=41 velocity=65 time=0.025
EXTRACT: note_off channel=15 note=62 velocity=64 time=0.02
EXTRACT: note_on channel=1 note=53 velocity=69 time=0.001
EXTRACT: note_on channel=2 note=53 velocity=73 time=0
EXTRACT: note_on channel=9 note=33 velocity=14 time=0
EXTRACT: note_on channel=9 note=70 velocity=22 time=0
EXTRACT: note_on channel=9 note=32 velocity=1 time=0.01
EXTRACT: note_off channel=9 note=70 velocity=64 time=0.014
EXTRACT: note_off channel=9 note=33 velocity=65 time=0
EXTRACT: note_off channel=9 note=32 velocity=65 time=0.01
EXTRACT: note_off channel=2 note=53 velocity=64 time=0.002
EXTRACT: note_off channel=15 note=57 velocity=65 time=0
EXTRACT: control_change channel=13 control=6 value=41 time=0.044
EXTRACT: note_off channel=3 note=69 velocity=64 time=0.006
EXTRACT: note_on channel=2 note=53 velocity=50 time=0.034
EXTRACT: note_off channel=2 note=53 velocity=65 time=0.067
EXTRACT: control_change channel=15 control=10 value=90 time=0.013000000000000001
EXTRACT: note_off channel=1 note=53 velocity=65 time=0.004
EXTRACT: note_on channel=1 note=41 velocity=84 time=0
EXTRACT: note_on channel=2 note=41 velocity=20 time=0
EXTRACT: note_on channel=3 note=74 velocity=111 time=0
EXTRACT: note_on channel=9 note=35 velocity=74 time=0
EXTRACT: note_on channel=9 note=70 velocity=24 time=0
EXTRACT: note_on channel=9 note=85 velocity=22 time=0
EXTRACT: note_on channel=8 note=57 velocity=29 time=0.001
EXTRACT: note_on channel=8 note=62 velocity=27 time=0
EXTRACT: note_on channel=9 note=32 velocity=1 time=0.009000000000000001
EXTRACT: note_on channel=15 note=57 velocity=84 time=0.01
EXTRACT: note_off channel=9 note=85 velocity=64 time=0.004
EXTRACT: note_off channel=9 note=70 velocity=64 time=0
EXTRACT: note_off channel=9 note=35 velocity=65 time=0
EXTRACT: note_off channel=9 note=32 velocity=65 time=0.01
EXTRACT: note_off channel=2 note=41 velocity=65 time=0.006
EXTRACT: note_off channel=1 note=41 velocity=64 time=0.164
EXTRACT: note_off channel=14 note=81 velocity=64 time=0
EXTRACT: note_off channel=11 note=93 velocity=64 time=0
EXTRACT: note_off channel=8 note=62 velocity=65 time=0.005
EXTRACT: note_off channel=15 note=57 velocity=65 time=0.005
EXTRACT: note_off channel=8 note=57 velocity=65 time=0
EXTRACT: note_off channel=3 note=74 velocity=65 time=0
EXTRACT: note_on channel=1 note=53 velocity=68 time=0
EXTRACT: note_on channel=2 note=53 velocity=59 time=0
EXTRACT: note_on channel=3 note=74 velocity=111 time=0
EXTRACT: note_on channel=9 note=33 velocity=14 time=0
EXTRACT: note_on channel=9 note=70 velocity=9 time=0
EXTRACT: note_on channel=9 note=32 velocity=1 time=0.01
EXTRACT: note_on channel=6 note=77 velocity=16 time=0.011
EXTRACT: note_on channel=11 note=89 velocity=57 time=0
EXTRACT: note_on channel=14 note=77 velocity=57 time=0
EXTRACT: note_off channel=9 note=70 velocity=64 time=0.003
EXTRACT: note_off channel=9 note=33 velocity=64 time=0
EXTRACT: note_off channel=9 note=32 velocity=65 time=0.004
EXTRACT: note_off channel=2 note=53 velocity=64 time=0.001
EXTRACT: note_on channel=6 note=81 velocity=13 time=0.035
EXTRACT: note_on channel=11 note=93 velocity=59 time=0
EXTRACT: note_on channel=14 note=81 velocity=59 time=0
EXTRACT: note_on channel=2 note=53 velocity=65 time=0.025
EXTRACT: control_change channel=8 control=10 value=30 time=0
EXTRACT: note_off channel=14 note=77 velocity=65 time=0.034
EXTRACT: note_off channel=11 note=89 velocity=65 time=0
EXTRACT: note_off channel=6 note=77 velocity=65 time=0
EXTRACT: note_on channel=6 note=84 velocity=39 time=0.012
EXTRACT: note_on channel=11 note=96 velocity=64 time=0
EXTRACT: note_on channel=14 note=84 velocity=64 time=0
EXTRACT: note_off channel=14 note=81 velocity=65 time=0.018000000000000002
EXTRACT: note_off channel=11 note=93 velocity=65 time=0
EXTRACT: note_off channel=6 note=81 velocity=64 time=0
EXTRACT: note_off channel=1 note=53 velocity=64 time=0.005
EXTRACT: note_off channel=2 note=53 velocity=64 time=0.007
EXTRACT: note_off channel=3 note=74 velocity=65 time=0.012
EXTRACT: note_on channel=6 note=89 velocity=27 time=0.015
EXTRACT: note_on channel=11 note=101 velocity=62 time=0
EXTRACT: note_on channel=14 note=89 velocity=62 time=0
EXTRACT: note_on channel=1 note=41 velocity=83 time=0.017
EXTRACT: note_on channel=2 note=41 velocity=20 time=0
EXTRACT: note_on channel=9 note=35 velocity=78 time=0
EXTRACT: note_on channel=9 note=70 velocity=31 time=0
EXTRACT: note_on channel=9 note=85 velocity=21 time=0
EXTRACT: note_on channel=15 note=62 velocity=56 time=0
EXTRACT: note_on channel=8 note=57 velocity=23 time=0.002
EXTRACT: note_on channel=8 note=62 velocity=22 time=0.001
EXTRACT: note_on channel=9 note=32 velocity=1 time=0.007
EXTRACT: note_off channel=14 note=84 velocity=64 time=0.004
EXTRACT: note_off channel=11 note=96 velocity=64 time=0
EXTRACT: note_off channel=6 note=84 velocity=65 time=0
EXTRACT: note_on channel=15 note=57 velocity=57 time=0.006
EXTRACT: note_off channel=9 note=85 velocity=64 time=0.004
EXTRACT: note_off channel=9 note=70 velocity=65 time=0
EXTRACT: note_off channel=9 note=35 velocity=65 time=0
EXTRACT: note_off channel=9 note=32 velocity=64 time=0.01
EXTRACT: note_off channel=2 note=41 velocity=65 time=0.006
EXTRACT: note_off channel=8 note=62 velocity=64 time=0.088
EXTRACT: note_off channel=8 note=57 velocity=64 time=0.004
EXTRACT: control_change channel=1 control=6 value=37 time=0.033
EXTRACT: note_off channel=1 note=41 velocity=65 time=0.039
EXTRACT: note_off channel=15 note=62 velocity=64 time=0.01
EXTRACT: note_off channel=14 note=89 velocity=65 time=0
EXTRACT: note_off channel=11 note=101 velocity=65 time=0
EXTRACT: note_off channel=6 note=89 velocity=65 time=0
EXTRACT: note_on channel=6 note=88 velocity=23 time=0.016
EXTRACT: note_on channel=11 note=100 velocity=49 time=0
EXTRACT: note_on channel=14 note=88 velocity=49 time=0
EXTRACT: note_off channel=15 note=57 velocity=64 time=0.004
EXTRACT: note_on channel=1 note=43 velocity=84 time=0.006
EXTRACT: note_on channel=2 note=55 velocity=70 time=0
EXTRACT: note_on channel=9 note=33 velocity=14 time=0
EXTRACT: note_on channel=9 note=70 velocity=14 time=0
EXTRACT: note_on channel=13 note=71 velocity=70 time=0
EXTRACT: note_on channel=13 note=67 velocity=85 time=0
EXTRACT: note_on channel=15 note=62 velocity=45 time=0
EXTRACT: note_on channel=9 note=32 velocity=1 time=0.01
EXTRACT: note_off channel=13 note=69 velocity=64 time=0.001
EXTRACT: note_off channel=13 note=72 velocity=64 time=0
EXTRACT: note_off channel=13 note=65 velocity=65 time=0
EXTRACT: note_on channel=13 note=74 velocity=69 time=0.009000000000000001
EXTRACT: note_on channel=15 note=57 velocity=36 time=0
EXTRACT: note_off channel=9 note=70 velocity=65 time=0.004
EXTRACT: note_off channel=9 note=33 velocity=64 time=0
EXTRACT: note_off channel=9 note=32 velocity=64 time=0.01
EXTRACT: note_off channel=2 note=55 velocity=64 time=0.003
EXTRACT: control_change channel=2 control=6 value=38 time=0.003
EXTRACT: note_on channel=2 note=55 velocity=79 time=0.08
EXTRACT: note_off channel=14 note=88 velocity=64 time=0.004
EXTRACT: note_off channel=11 note=100 velocity=64 time=0
EXTRACT: note_off channel=6 note=88 velocity=64 time=0
EXTRACT: note_on channel=6 note=84 velocity=38 time=0.003
EXTRACT: note_on channel=11 note=96 velocity=58 time=0
EXTRACT: note_on channel=14 note=84 velocity=58 time=0
EXTRACT: note_off channel=15 note=62 velocity=65 time=0.007
EXTRACT: note_off channel=15 note=57 velocity=65 time=0.02
EXTRACT: control_change channel=13 control=6 value=43 time=0.006
EXTRACT: note_off channel=1 note=43 velocity=64 time=0.029
EXTRACT: note_off channel=2 note=55 velocity=65 time=0.007
EXTRACT: note_off channel=13 note=74 velocity=64 time=0.038
EXTRACT: note_off channel=13 note=67 velocity=65 time=0
EXTRACT: note_off channel=13 note=71 velocity=65 time=0
EXTRACT: note_on channel=1 note=45 velocity=85 time=0
EXTRACT: note_on channel=2 note=45 velocity=23 time=0
EXTRACT: note_on channel=3 note=74 velocity=110 time=0
EXTRACT: note_on channel=9 note=35 velocity=81 time=0
EXTRACT: note_on channel=9 note=70 velocity=17 time=0
EXTRACT: note_on channel=9 note=85 velocity=21 time=0
EXTRACT: note_on channel=13 note=69 velocity=62 time=0
EXTRACT: note_on channel=6 note=81 velocity=30 time=0.007
EXTRACT: note_on channel=11 note=93 velocity=61 time=0
EXTRACT: note_on channel=14 note=81 velocity=61 time=0
EXTRACT: note_on channel=13 note=76 velocity=75 time=0.002
EXTRACT: note_on channel=9 note=32 velocity=1 time=0.001
EXTRACT: note_on channel=13 note=72 velocity=66 time=0.002
EXTRACT: note_off channel=14 note=84 velocity=64 time=0.001
EXTRACT: note_off channel=11 note=96 velocity=64 time=0
EXTRACT: note_off channel=6 note=84 velocity=65 time=0
EXTRACT: note_off channel=9 note=85 velocity=65 time=0.011
EXTRACT: note_off channel=9 note=70 velocity=65 time=0
EXTRACT: note_off channel=9 note=35 velocity=64 time=0
EXTRACT: note_on channel=15 note=57 velocity=44 time=0.002
EXTRACT: note_on channel=15 note=62 velocity=51 time=0
EXTRACT: note_off channel=9 note=32 velocity=64 time=0.008
EXTRACT: note_off channel=2 note=45 velocity=65 time=0.006
EXTRACT: note_off channel=1 note=45 velocity=65 time=0.164
EXTRACT: note_on channel=1 note=57 velocity=73 time=0.036000000000000004
EXTRACT: note_on channel=2 note=57 velocity=62 time=0
EXTRACT: note_on channel=9 note=33 velocity=14 time=0
EXTRACT: note_on channel=9 note=70 velocity=12 time=0
EXTRACT: note_off channel=15 note=62 velocity=64 time=0.003
EXTRACT: note_off channel=15 note=57 velocity=64 time=0
EXTRACT: note_on channel=9 note=32 velocity=1 time=0.007
EXTRACT: note_on channel=15 note=57 velocity=29 time=0.01
EXTRACT: note_on channel=15 note=62 velocity=34 time=0
EXTRACT: note_off channel=9 note=70 velocity=65 time=0.004
EXTRACT: note_off channel=9 note=33 velocity=65 time=0
EXTRACT: note_off channel=3 note=74 velocity=64 time=0.003
EXTRACT: note_off channel=9 note=32 velocity=64 time=0.007
EXTRACT: note_off channel=2 note=57 velocity=64 time=0.001
EXTRACT: note_on channel=2 note=57 velocity=74 time=0.085
EXTRACT: note_off channel=15 note=62 velocity=65 time=0.034
EXTRACT: note_off channel=15 note=57 velocity=64 time=0
EXTRACT: control_change channel=8 control=6 value=64 time=0.006
EXTRACT: note_off channel=2 note=57 velocity=65 time=0.023
EXTRACT: note_off channel=1 note=57 velocity=65 time=0.021
EXTRACT: note_on channel=1 note=45 velocity=78 time=0
EXTRACT: note_on channel=2 note=45 velocity=24 time=0
EXTRACT: note_on channel=3 note=69 velocity=110 time=0
EXTRACT: note_on channel=9 note=35 velocity=83 time=0
EXTRACT: note_on channel=9 note=70 velocity=14 time=0
EXTRACT: note_on channel=9 note=85 velocity=20 time=0
EXTRACT: note_on channel=9 note=32 velocity=1 time=0.01
EXTRACT: note_on channel=15 note=57 velocity=57 time=0.001
EXTRACT: note_on channel=15 note=62 velocity=57 time=0.006
EXTRACT: note_off channel=9 note=85 velocity=64 time=0.007
EXTRACT: note_off channel=9 note=70 velocity=65 time=0
EXTRACT: note_off channel=9 note=35 velocity=64 time=0
EXTRACT: note_off channel=9 note=32 velocity=65 time=0.01
EXTRACT: note_off channel=2 note=45 velocity=64 time=0.006
EXTRACT: control_change channel=13 control=6 value=44 time=0.04
EXTRACT: control_change channel=2 control=6 value=41 time=0.12
EXTRACT: note_off channel=1 note=45 velocity=64 time=0.004
EXTRACT: note_on channel=1 note=57 velocity=75 time=0.036000000000000004
EXTRACT: note_on channel=2 note=57 velocity=65 time=0
EXTRACT: note_on channel=9 note=33 velocity=12 time=0
EXTRACT: note_on channel=9 note=70 velocity=6 time=0
EXTRACT: note_off channel=15 note=57 velocity=65 time=0.002
EXTRACT: note_on channel=9 note=32 velocity=1 time=0.008
EXTRACT: note_off channel=9 note=70 velocity=65 time=0.014
EXTRACT: note_off channel=9 note=33 velocity=64 time=0
EXTRACT: note_off channel=15 note=62 velocity=65 time=0.006
EXTRACT: note_off channel=9 note=32 velocity=65 time=0.004
EXTRACT: note_off channel=2 note=57 velocity=64 time=0.006
EXTRACT: note_off channel=3 note=69 velocity=64 time=0.027
EXTRACT: note_on channel=2 note=57 velocity=77 time=0.053
EXTRACT: control_change channel=8 control=10 value=64 time=0
EXTRACT: note_off channel=2 note=57 velocity=65 time=0.075
EXTRACT: note_off channel=1 note=57 velocity=65 time=0.009000000000000001
EXTRACT: note_on channel=1 note=45 velocity=76 time=0
EXTRACT: note_on channel=2 note=45 velocity=26 time=0
EXTRACT: note_on channel=3 note=74 velocity=111 time=0
EXTRACT: note_on channel=9 note=35 velocity=84 time=0
EXTRACT: note_on channel=9 note=70 velocity=10 time=0
EXTRACT: note_on channel=9 note=85 velocity=18 time=0
EXTRACT: note_on channel=9 note=32 velocity=1 time=0.01
EXTRACT: note_on channel=15 note=62 velocity=58 time=0.009000000000000001
EXTRACT: note_on channel=15 note=57 velocity=61 time=0.002
EXTRACT: note_off channel=9 note=85 velocity=64 time=0.003
EXTRACT: note_off channel=9 note=70 velocity=64 time=0
EXTRACT: note_off channel=9 note=35 velocity=65 time=0
EXTRACT: note_off channel=9 note=32 velocity=65 time=0.01
EXTRACT: note_off channel=2 note=45 velocity=65 time=0.006
EXTRACT: note_off channel=14 note=81 velocity=65 time=0.052000000000000005
EXTRACT: note_off channel=11 note=93 velocity=65 time=0
EXTRACT: note_off channel=6 note=81 velocity=64 time=0
EXTRACT: note_off channel=1 note=45 velocity=64 time=0.112
EXTRACT: control_change channel=1 control=6 value=39 time=0.006
EXTRACT: note_off channel=15 note=62 velocity=64 time=0.029
EXTRACT: note_on channel=1 note=57 velocity=74 time=0.001
EXTRACT: note_on channel=2 note=57 velocity=74 time=0
EXTRACT: note_on channel=9 note=33 velocity=12 time=0
EXTRACT: note_on channel=9 note=70 velocity=4 time=0
EXTRACT: note_off channel=15 note=57 velocity=65 time=0.001
EXTRACT: note_on channel=9 note=32 velocity=1 time=0.009000000000000001
EXTRACT: note_off channel=9 note=70 velocity=64 time=0.014
EXTRACT: note_off channel=9 note=33 velocity=64 time=0
EXTRACT: note_off channel=9 note=32 velocity=65 time=0.01
EXTRACT: note_off channel=3 note=74 velocity=65 time=0.012
EXTRACT: note_on channel=6 note=76 velocity=19 time=0.002
EXTRACT: note_on channel=11 note=88 velocity=63 time=0
EXTRACT: note_on channel=14 note=76 velocity=63 time=0
EXTRACT: note_off channel=2 note=57 velocity=64 time=0.002
EXTRACT: note_on channel=6 note=81 velocity=6 time=0.066
EXTRACT: note_on channel=11 note=93 velocity=56 time=0
EXTRACT: note_on channel=14 note=81 velocity=56 time=0
EXTRACT: note_on channel=2 note=57 velocity=54 time=0.004
EXTRACT: note_on channel=6 note=84 velocity=6 time=0.055
EXTRACT: note_on channel=11 note=96 velocity=61 time=0
EXTRACT: note_on channel=14 note=84 velocity=61 time=0
EXTRACT: note_off channel=2 note=57 velocity=64 time=0.004
EXTRACT: control_change channel=13 control=6 value=47 time=0.021
EXTRACT: note_off channel=14 note=76 velocity=65 time=0.001
EXTRACT: note_off channel=11 note=88 velocity=65 time=0
EXTRACT: note_off channel=6 note=76 velocity=64 time=0
EXTRACT: note_off channel=1 note=57 velocity=64 time=0.003
EXTRACT: note_off channel=13 note=76 velocity=64 time=0.03
EXTRACT: note_on channel=6 note=88 velocity=25 time=0.004
EXTRACT: note_on channel=11 note=100 velocity=70 time=0
EXTRACT: note_on channel=14 note=88 velocity=70 time=0
EXTRACT: note_off channel=14 note=81 velocity=64 time=0
EXTRACT: note_off channel=11 note=93 velocity=64 time=0
EXTRACT: note_off channel=6 note=81 velocity=65 time=0
EXTRACT: note_on channel=1 note=45 velocity=101 time=0.002
EXTRACT: note_on channel=2 note=45 velocity=26 time=0
EXTRACT: note_on channel=9 note=35 velocity=88 time=0
EXTRACT: note_on channel=9 note=70 velocity=5 time=0
EXTRACT: note_on channel=9 note=85 velocity=19 time=0
EXTRACT: note_on channel=13 note=77 velocity=74 time=0
EXTRACT: note_on channel=9 note=32 velocity=1 time=0.01
EXTRACT: note_on channel=15 note=57 velocity=44 time=0.007
EXTRACT: note_on channel=15 note=62 velocity=58 time=0.002
EXTRACT: note_off channel=9 note=85 velocity=65 time=0.005
EXTRACT: note_off channel=9 note=70 velocity=64 time=0
EXTRACT: note_off channel=9 note=35 velocity=64 time=0
EXTRACT: note_off channel=9 note=32 velocity=65 time=0.01
EXTRACT: note_off channel=2 note=45 velocity=65 time=0.006
EXTRACT: note_off channel=14 note=84 velocity=64 time=0.004
EXTRACT: note_off channel=11 note=96 velocity=64 time=0
EXTRACT: note_off channel=6 note=84 velocity=65 time=0
EXTRACT: control_change channel=2 control=6 value=44 time=0.116
EXTRACT: note_off channel=14 note=88 velocity=65 time=0.024
EXTRACT: note_off channel=11 note=100 velocity=65 time=0
EXTRACT: note_off channel=6 note=88 velocity=64 time=0
EXTRACT: note_off channel=1 note=45 velocity=65 time=0.02
EXTRACT: note_on channel=6 note=88 velocity=15 time=0.029
EXTRACT: note_on channel=11 note=100 velocity=66 time=0
EXTRACT: note_on channel=14 note=88 velocity=66 time=0
EXTRACT: note_off channel=15 note=62 velocity=64 time=0.006
EXTRACT: note_on channel=1 note=55 velocity=79 time=0.001
EXTRACT: note_on channel=2 note=55 velocity=67 time=0
EXTRACT: note_on channel=9 note=33 velocity=12 time=0
EXTRACT: note_on channel=9 note=70 velocity=3 time=0
EXTRACT: note_on channel=9 note=32 velocity=1 time=0.01
EXTRACT: note_off channel=15 note=57 velocity=64 time=0.002
EXTRACT: note_off channel=9 note=70 velocity=64 time=0.012
EXTRACT: note_off channel=9 note=33 velocity=65 time=0
EXTRACT: note_off channel=9 note=32 velocity=65 time=0.01
EXTRACT: note_off channel=2 note=55 velocity=65 time=0.002
EXTRACT: note_on channel=6 note=84 velocity=20 time=0.007
EXTRACT: note_on channel=11 note=96 velocity=67 time=0
EXTRACT: note_on channel=14 note=84 velocity=67 time=0
EXTRACT: note_off channel=14 note=88 velocity=65 time=0.011
EXTRACT: note_off channel=11 note=100 velocity=65 time=0
EXTRACT: note_off channel=6 note=88 velocity=64 time=0
EXTRACT: note_off channel=14 note=84 velocity=64 time=0.06
EXTRACT: note_off channel=11 note=96 velocity=64 time=0
EXTRACT: note_off channel=6 note=84 velocity=65 time=0
EXTRACT: note_off channel=1 note=55 velocity=65 time=0
EXTRACT: note_on channel=6 note=81 velocity=15 time=0.005
EXTRACT: note_on channel=11 note=93 velocity=61 time=0
EXTRACT: note_on channel=14 note=81 velocity=61 time=0
EXTRACT: note_on channel=1 note=53 velocity=74 time=0.001
EXTRACT: note_on channel=2 note=53 velocity=49 time=0
EXTRACT: note_off channel=2 note=53 velocity=64 time=0.04
EXTRACT: note_off channel=14 note=81 velocity=64 time=0.034
EXTRACT: note_off channel=11 note=93 velocity=64 time=0
EXTRACT: note_off channel=6 note=81 velocity=65 time=0
EXTRACT: note_on channel=6 note=77 velocity=24 time=0.003
EXTRACT: note_on channel=11 note=89 velocity=62 time=0
EXTRACT: note_on channel=14 note=77 velocity=62 time=0
EXTRACT: note_off channel=1 note=53 velocity=64 time=0.037
EXTRACT: note_off channel=13 note=72 velocity=65 time=0
EXTRACT: note_off channel=13 note=69 velocity=64 time=0
EXTRACT: note_on channel=1 note=38 velocity=88 time=0.006
EXTRACT: note_on channel=2 note=38 velocity=30 time=0
EXTRACT: note_on channel=9 note=35 velocity=91 time=0
EXTRACT: note_on channel=9 note=70 velocity=9 time=0
EXTRACT: note_on channel=9 note=85 velocity=15 time=0
EXTRACT: note_on channel=13 note=62 velocity=61 time=0
EXTRACT: note_on channel=13 note=65 velocity=57 time=0
EXTRACT: note_on channel=13 note=74 velocity=52 time=0.002
EXTRACT: note_on channel=13 note=69 velocity=68 time=0.003
EXTRACT: note_on channel=6 note=74 velocity=29 time=0.003
EXTRACT: note_on channel=11 note=86 velocity=66 time=0
EXTRACT: note_on channel=14 note=74 velocity=66 time=0
EXTRACT: note_on channel=9 note=32 velocity=1 time=0.002
EXTRACT: note_off channel=14 note=77 velocity=65 time=0.004
EXTRACT: note_off channel=11 note=89 velocity=65 time=0
EXTRACT: note_off channel=6 note=77 velocity=64 time=0
EXTRACT: note_on channel=15 note=57 velocity=29 time=0.004
EXTRACT: note_on channel=15 note=62 velocity=59 time=0.002
EXTRACT: note_off channel=9 note=85 velocity=64 time=0.004
EXTRACT: note_off channel=9 note=70 velocity=65 time=0
EXTRACT: note_off channel=9 note=35 velocity=64 time=0
EXTRACT: note_off channel=13 note=77 velocity=64 time=0.005
EXTRACT: note_off channel=9 note=32 velocity=64 time=0.005
EXTRACT: note_off channel=2 note=38 velocity=64 time=0.08
EXTRACT: control_change channel=3 control=11 value=74 time=0.08600000000000001
EXTRACT: note_off channel=1 note=38 velocity=64 time=0.019
EXTRACT: note_off channel=15 note=62 velocity=65 time=0.02
EXTRACT: note_on channel=1 note=50 velocity=77 time=0.001
EXTRACT: note_on channel=2 note=50 velocity=56 time=0
EXTRACT: note_on channel=9 note=33 velocity=12 time=0
EXTRACT: note_on channel=9 note=70 velocity=1 time=0
EXTRACT: note_on channel=9 note=32 velocity=1 time=0.01
EXTRACT: note_off channel=15 note=57 velocity=65 time=0.01
EXTRACT: note_off channel=9 note=70 velocity=65 time=0.004
EXTRACT: note_off channel=9 note=33 velocity=65 time=0
EXTRACT: note_off channel=9 note=32 velocity=64 time=0.01
EXTRACT: note_off channel=2 note=50 velocity=65 time=0.015
EXTRACT: note_off channel=1 note=50 velocity=65 time=0.065
EXTRACT: note_on channel=2 note=50 velocity=36 time=0.006
EXTRACT: note_off channel=2 note=50 velocity=64 time=0.046
EXTRACT: note_on channel=1 note=38 velocity=91 time=0
EXTRACT: note_on channel=2 note=38 velocity=26 time=0
EXTRACT: note_on channel=3 note=69 velocity=110 time=0
EXTRACT: note_on channel=9 note=35 velocity=93 time=0
EXTRACT: note_on channel=9 note=70 velocity=8 time=0
EXTRACT: note_on channel=9 note=85 velocity=15 time=0
EXTRACT: note_on channel=9 note=32 velocity=1 time=0.01
EXTRACT: note_on channel=15 note=57 velocity=18 time=0.008
EXTRACT: note_on channel=15 note=62 velocity=59 time=0.002
EXTRACT: note_off channel=9 note=85 velocity=64 time=0.004
EXTRACT: note_off channel=9 note=70 velocity=65 time=0
EXTRACT: note_off channel=9 note=35 velocity=65 time=0
EXTRACT: note_off channel=9 note=32 velocity=64 time=0.01
EXTRACT: control_change channel=13 control=6 value=50 time=0.046
EXTRACT: note_off channel=2 note=38 velocity=65 time=0.034
EXTRACT: control_change channel=2 control=6 value=47 time=0.006
EXTRACT: note_off channel=1 note=38 velocity=65 time=0.084
EXTRACT: note_off channel=15 note=62 velocity=64 time=0.035
EXTRACT: note_on channel=1 note=50 velocity=80 time=0.001
EXTRACT: note_on channel=2 note=50 velocity=73 time=0
EXTRACT: note_on channel=9 note=33 velocity=12 time=0
EXTRACT: note_on channel=9 note=70 velocity=6 time=0
EXTRACT: note_on channel=9 note=32 velocity=1 time=0.01
EXTRACT: note_off channel=9 note=70 velocity=64 time=0.014
EXTRACT: note_off channel=9 note=33 velocity=65 time=0
EXTRACT: note_off channel=9 note=32 velocity=64 time=0.01
EXTRACT: note_off channel=15 note=57 velocity=64 time=0.002
EXTRACT: note_off channel=2 note=50 velocity=65 time=0.014
EXTRACT: note_off channel=3 note=69 velocity=64 time=0.036000000000000004
EXTRACT: note_off channel=1 note=50 velocity=64 time=0.028
EXTRACT: note_on channel=2 note=50 velocity=44 time=0.006
EXTRACT: control_change channel=1 control=6 value=41 time=0.015
EXTRACT: note_off channel=2 note=50 velocity=64 time=0.069
EXTRACT: note_on channel=1 note=38 velocity=92 time=0
EXTRACT: note_on channel=2 note=38 velocity=26 time=0
EXTRACT: note_on channel=3 note=74 velocity=111 time=0
EXTRACT: note_on channel=9 note=35 velocity=94 time=0
EXTRACT: note_on channel=9 note=42 velocity=4 time=0
EXTRACT: note_on channel=9 note=70 velocity=3 time=0
EXTRACT: note_on channel=9 note=85 velocity=14 time=0
EXTRACT: note_on channel=15 note=57 velocity=84 time=0.02
EXTRACT: note_off channel=9 note=85 velocity=65 time=0.004
EXTRACT: note_off channel=9 note=70 velocity=65 time=0
EXTRACT: note_off channel=9 note=42 velocity=64 time=0
EXTRACT: note_off channel=9 note=35 velocity=65 time=0
EXTRACT: note_off channel=2 note=38 velocity=65 time=0.09
EXTRACT: note_off channel=14 note=74 velocity=64 time=0.08
EXTRACT: note_off channel=11 note=86 velocity=64 time=0
EXTRACT: note_off channel=6 note=74 velocity=64 time=0
EXTRACT: note_off channel=1 note=38 velocity=64 time=0.01
EXTRACT: note_off channel=15 note=57 velocity=65 time=0.01
EXTRACT: note_off channel=3 note=74 velocity=65 time=0
EXTRACT: note_on channel=1 note=50 velocity=83 time=0
EXTRACT: note_on channel=2 note=50 velocity=61 time=0
EXTRACT: note_on channel=3 note=74 velocity=111 time=0
EXTRACT: note_on channel=9 note=33 velocity=12 time=0
EXTRACT: note_on channel=9 note=44 velocity=5 time=0
EXTRACT: note_on channel=9 note=70 velocity=3 time=0
EXTRACT: note_on channel=6 note=74 velocity=65 time=0.021
EXTRACT: note_on channel=11 note=86 velocity=65 time=0
EXTRACT: note_on channel=14 note=74 velocity=65 time=0
EXTRACT: note_off channel=9 note=70 velocity=64 time=0.003
EXTRACT: note_off channel=9 note=44 velocity=64 time=0
EXTRACT: note_off channel=9 note=33 velocity=65 time=0
EXTRACT: note_off channel=2 note=50 velocity=64 time=0.004
EXTRACT: note_on channel=6 note=77 velocity=81 time=0.062
EXTRACT: note_on channel=11 note=89 velocity=81 time=0
EXTRACT: note_on channel=14 note=77 velocity=81 time=0
EXTRACT: note_off channel=14 note=74 velocity=65 time=0.018000000000000002
EXTRACT: note_off channel=11 note=86 velocity=65 time=0
EXTRACT: note_off channel=6 note=74 velocity=65 time=0
EXTRACT: note_off channel=1 note=50 velocity=65 time=0
EXTRACT: note_on channel=2 note=50 velocity=51 time=0.006
EXTRACT: note_on channel=9 note=46 velocity=1 time=0
EXTRACT: note_off channel=9 note=46 velocity=65 time=0.024
EXTRACT: note_on channel=6 note=81 velocity=60 time=0.028
EXTRACT: note_on channel=11 note=93 velocity=60 time=0
EXTRACT: note_on channel=14 note=81 velocity=60 time=0
EXTRACT: note_off channel=2 note=50 velocity=64 time=0.019
EXTRACT: note_off channel=14 note=77 velocity=65 time=0.003
EXTRACT: note_off channel=11 note=89 velocity=65 time=0
EXTRACT: note_off channel=6 note=77 velocity=64 time=0
EXTRACT: note_off channel=3 note=74 velocity=65 time=0.014
EXTRACT: note_on channel=1 note=38 velocity=96 time=0.032
EXTRACT: note_on channel=2 note=38 velocity=26 time=0
EXTRACT: note_on channel=9 note=35 velocity=98 time=0
EXTRACT: note_on channel=9 note=42 velocity=12 time=0
EXTRACT: note_on channel=9 note=70 velocity=3 time=0
EXTRACT: note_on channel=9 note=85 velocity=14 time=0
EXTRACT: note_on channel=6 note=86 velocity=57 time=0.001
EXTRACT: note_on channel=11 note=98 velocity=56 time=0
EXTRACT: note_on channel=14 note=86 velocity=56 time=0
EXTRACT: note_off channel=9 note=85 velocity=64 time=0.023
EXTRACT: note_off channel=9 note=70 velocity=64 time=0
EXTRACT: note_off channel=9 note=42 velocity=65 time=0
EXTRACT: note_off channel=9 note=35 velocity=65 time=0
EXTRACT: note_off channel=14 note=81 velocity=64 time=0
EXTRACT: note_off channel=11 note=93 velocity=64 time=0
EXTRACT: note_off channel=6 note=81 velocity=65 time=0
EXTRACT: control_change channel=2 control=6 value=51 time=0.056
EXTRACT: note_off channel=2 note=38 velocity=65 time=0.034
EXTRACT: note_off channel=14 note=86 velocity=65 time=0.07
EXTRACT: note_off channel=11 note=98 velocity=65 time=0
EXTRACT: note_off channel=6 note=86 velocity=65 time=0
EXTRACT: note_off channel=1 note=38 velocity=64 time=0.005
EXTRACT: note_on channel=6 note=86 velocity=76 time=0.044
EXTRACT: note_on channel=11 note=98 velocity=77 time=0
EXTRACT: note_on channel=14 note=86 velocity=77 time=0
EXTRACT: note_on channel=1 note=50 velocity=91 time=0.007
EXTRACT: note_on channel=2 note=50 velocity=50 time=0
EXTRACT: note_on channel=9 note=33 velocity=12 time=0
EXTRACT: note_on channel=9 note=44 velocity=13 time=0
EXTRACT: note_on channel=9 note=70 velocity=3 time=0
EXTRACT: note_off channel=9 note=70 velocity=64 time=0.024
EXTRACT: note_off channel=9 note=44 velocity=64 time=0
EXTRACT: note_off channel=9 note=33 velocity=65 time=0
EXTRACT: note_off channel=2 note=50 velocity=65 time=0.011
EXTRACT: note_on channel=6 note=81 velocity=70 time=0.011
EXTRACT: note_on channel=11 note=93 velocity=70 time=0
EXTRACT: note_on channel=14 note=81 velocity=70 time=0
EXTRACT: note_off channel=14 note=86 velocity=64 time=0.008
EXTRACT: note_off channel=11 note=98 velocity=64 time=0
EXTRACT: note_off channel=6 note=86 velocity=64 time=0
EXTRACT: note_off channel=1 note=50 velocity=65 time=0.06
EXTRACT: note_on channel=1 note=45 velocity=81 time=0.006
EXTRACT: note_on channel=2 note=50 velocity=65 time=0
EXTRACT: note_on channel=9 note=46 velocity=8 time=0
EXTRACT: note_off channel=9 note=46 velocity=64 time=0.024
EXTRACT: note_off channel=14 note=81 velocity=64 time=0
EXTRACT: note_off channel=11 note=93 velocity=64 time=0
EXTRACT: note_off channel=6 note=81 velocity=65 time=0
EXTRACT: note_on channel=6 note=77 velocity=69 time=0.003
EXTRACT: note_on channel=11 note=89 velocity=69 time=0
EXTRACT: note_on channel=14 note=77 velocity=69 time=0
EXTRACT: note_off channel=2 note=50 velocity=64 time=0.01
EXTRACT: control_change channel=13 control=11 value=120 time=0.003
EXTRACT: control_change channel=13 control=6 value=52 time=0
EXTRACT: control_change channel=9 control=91 value=10 time=0.035
EXTRACT: note_off channel=13 note=65 velocity=65 time=0.006
EXTRACT: note_off channel=13 note=69 velocity=65 time=0.012
EXTRACT: note_off channel=1 note=45 velocity=65 time=0.001
EXTRACT: note_off channel=13 note=74 velocity=64 time=0.001
EXTRACT: note_on channel=1 note=38 velocity=94 time=0.005
EXTRACT: note_on channel=2 note=38 velocity=25 time=0
EXTRACT: note_on channel=5 note=38 velocity=28 time=0
EXTRACT: note_on channel=9 note=35 velocity=101 time=0
EXTRACT: note_on channel=9 note=42 velocity=27 time=0
EXTRACT: note_on channel=9 note=70 velocity=9 time=0
EXTRACT: note_on channel=9 note=85 velocity=14 time=0
EXTRACT: note_on channel=13 note=62 velocity=57 time=0
EXTRACT: note_on channel=13 note=65 velocity=53 time=0
EXTRACT: control_change channel=1 control=6 value=43 time=0
EXTRACT: note_on channel=13 note=74 velocity=46 time=0.002
EXTRACT: note_off channel=13 note=62 velocity=64 time=0.001
EXTRACT: note_on channel=13 note=69 velocity=62 time=0.002
EXTRACT: note_on channel=6 note=74 velocity=65 time=0.002
EXTRACT: note_on channel=11 note=86 velocity=65 time=0
EXTRACT: note_on channel=14 note=74 velocity=65 time=0
EXTRACT: note_off channel=14 note=77 velocity=65 time=0.007
EXTRACT: note_off channel=11 note=89 velocity=65 time=0
EXTRACT: note_off channel=6 note=77 velocity=64 time=0
EXTRACT: note_off channel=9 note=85 velocity=65 time=0.01
EXTRACT: note_off channel=9 note=70 velocity=65 time=0
EXTRACT: note_off channel=9 note=42 velocity=64 time=0
EXTRACT: note_off channel=9 note=35 velocity=65 time=0
EXTRACT: note_off channel=5 note=38 velocity=65 time=0.09
EXTRACT: note_off channel=2 note=38 velocity=64 time=0
EXTRACT: note_off channel=1 note=38 velocity=64 time=0.09
EXTRACT: note_on channel=1 note=50 velocity=83 time=0.036000000000000004
EXTRACT: note_on channel=2 note=50 velocity=46 time=0
EXTRACT: note_on channel=5 note=38 velocity=41 time=0
EXTRACT: note_on channel=9 note=44 velocity=25 time=0
EXTRACT: note_on channel=9 note=70 velocity=9 time=0
EXTRACT: note_off channel=9 note=70 velocity=64 time=0.024
EXTRACT: note_off channel=9 note=44 velocity=64 time=0
EXTRACT: note_off channel=5 note=38 velocity=64 time=0.035
EXTRACT: note_off channel=2 note=50 velocity=65 time=0
EXTRACT: note_on channel=2 note=50 velocity=26 time=0.061
EXTRACT: note_on channel=5 note=38 velocity=19 time=0
EXTRACT: note_on channel=9 note=46 velocity=25 time=0
EXTRACT: note_on channel=9 note=70 velocity=7 time=0
EXTRACT: note_off channel=9 note=70 velocity=65 time=0.024
EXTRACT: note_off channel=9 note=46 velocity=65 time=0
EXTRACT: note_off channel=5 note=38 velocity=65 time=0.035
EXTRACT: note_off channel=2 note=50 velocity=65 time=0
EXTRACT: note_off channel=1 note=50 velocity=65 time=0.04
EXTRACT: note_on channel=1 note=38 velocity=90 time=0.021
EXTRACT: note_on channel=2 note=38 velocity=31 time=0
EXTRACT: note_on channel=5 note=38 velocity=34 time=0
EXTRACT: note_on channel=9 note=35 velocity=102 time=0
EXTRACT: note_on channel=9 note=38 velocity=29 time=0
EXTRACT: note_on channel=9 note=42 velocity=26 time=0
EXTRACT: note_on channel=9 note=70 velocity=15 time=0
EXTRACT: note_on channel=9 note=85 velocity=14 time=0
EXTRACT: note_off channel=9 note=85 velocity=64 time=0.024
EXTRACT: note_off channel=9 note=70 velocity=64 time=0
EXTRACT: note_off channel=9 note=42 velocity=65 time=0
EXTRACT: note_off channel=9 note=38 velocity=65 time=0
EXTRACT: note_off channel=9 note=35 velocity=64 time=0
EXTRACT: note_off channel=5 note=38 velocity=65 time=0.09
EXTRACT: note_off channel=2 note=38 velocity=64 time=0
EXTRACT: control_change channel=2 control=6 value=55 time=0.046
EXTRACT: note_off channel=1 note=38 velocity=64 time=0.029
EXTRACT: note_on channel=1 note=50 velocity=84 time=0.051000000000000004
EXTRACT: note_on channel=2 note=50 velocity=50 time=0
EXTRACT: note_on channel=5 note=38 velocity=45 time=0
EXTRACT: note_on channel=9 note=44 velocity=28 time=0
EXTRACT: note_on channel=9 note=70 velocity=15 time=0
EXTRACT: note_off channel=9 note=70 velocity=64 time=0.024
EXTRACT: note_off channel=9 note=44 velocity=65 time=0
EXTRACT: note_off channel=5 note=38 velocity=64 time=0.021
EXTRACT: note_off channel=2 note=50 velocity=64 time=0
EXTRACT: note_on channel=2 note=50 velocity=43 time=0.075
EXTRACT: note_on channel=5 note=38 velocity=35 time=0
EXTRACT: note_on channel=9 note=46 velocity=30 time=0
EXTRACT: note_on channel=9 note=70 velocity=4 time=0
EXTRACT: control_change channel=13 control=6 value=52 time=0
EXTRACT: note_off channel=9 note=70 velocity=64 time=0.024
EXTRACT: note_off channel=9 note=46 velocity=65 time=0
EXTRACT: note_off channel=5 note=38 velocity=65 time=0.039
EXTRACT: note_off channel=2 note=50 velocity=65 time=0
EXTRACT: note_off channel=1 note=50 velocity=64 time=0.036000000000000004
EXTRACT: note_on channel=1 note=38 velocity=87 time=0.021
EXTRACT: note_on channel=2 note=38 velocity=35 time=0
EXTRACT: note_on channel=5 note=38 velocity=36 time=0
EXTRACT: note_on channel=9 note=35 velocity=105 time=0
EXTRACT: note_on channel=9 note=42 velocity=31 time=0
EXTRACT: note_on channel=9 note=70 velocity=18 time=0
EXTRACT: note_on channel=9 note=85 velocity=14 time=0
EXTRACT: note_off channel=9 note=85 velocity=65 time=0.024
EXTRACT: note_off channel=9 note=70 velocity=64 time=0
EXTRACT: note_off channel=9 note=42 velocity=65 time=0
EXTRACT: note_off channel=9 note=35 velocity=64 time=0
EXTRACT: note_off channel=5 note=38 velocity=64 time=0.09
EXTRACT: note_off channel=2 note=38 velocity=64 time=0
EXTRACT: note_off channel=14 note=74 velocity=65 time=0.06
EXTRACT: note_off channel=11 note=86 velocity=65 time=0
EXTRACT: note_off channel=6 note=74 velocity=64 time=0
EXTRACT: control_change channel=1 control=6 value=45 time=0.036000000000000004
EXTRACT: note_off channel=1 note=38 velocity=65 time=0.009000000000000001
EXTRACT: note_on channel=1 note=50 velocity=87 time=0.021
EXTRACT: note_on channel=2 note=50 velocity=58 time=0
EXTRACT: note_on channel=5 note=38 velocity=53 time=0
EXTRACT: note_on channel=9 note=44 velocity=31 time=0
EXTRACT: note_on channel=9 note=70 velocity=18 time=0
EXTRACT: note_on channel=6 note=74 velocity=64 time=0.001
EXTRACT: note_on channel=11 note=86 velocity=64 time=0
EXTRACT: note_on channel=14 note=74 velocity=64 time=0
EXTRACT: note_off channel=9 note=70 velocity=64 time=0.023
EXTRACT: note_off channel=9 note=44 velocity=65 time=0
EXTRACT: note_off channel=5 note=38 velocity=64 time=0.018000000000000002
EXTRACT: note_off channel=2 note=50 velocity=65 time=0
EXTRACT: note_on channel=6 note=77 velocity=80 time=0.034
EXTRACT: note_on channel=11 note=89 velocity=81 time=0
EXTRACT: note_on channel=14 note=77 velocity=81 time=0
EXTRACT: note_off channel=14 note=74 velocity=64 time=0.018000000000000002
EXTRACT: note_off channel=11 note=86 velocity=64 time=0
EXTRACT: note_off channel=6 note=74 velocity=65 time=0
EXTRACT: note_on channel=2 note=50 velocity=44 time=0.026000000000000002
EXTRACT: note_on channel=5 note=38 velocity=38 time=0
EXTRACT: note_on channel=9 note=46 velocity=29 time=0
EXTRACT: note_on channel=9 note=70 velocity=13 time=0
EXTRACT: note_off channel=9 note=70 velocity=65 time=0.024
EXTRACT: note_off channel=9 note=46 velocity=64 time=0
EXTRACT: note_on channel=6 note=81 velocity=61 time=0.008
EXTRACT: note_on channel=11 note=93 velocity=60 time=0
EXTRACT: note_on channel=14 note=81 velocity=60 time=0
EXTRACT: note_off channel=14 note=77 velocity=64 time=0.022
EXTRACT: note_off channel=11 note=89 velocity=64 time=0
EXTRACT: note_off channel=6 note=77 velocity=65 time=0
EXTRACT: note_off channel=5 note=38 velocity=65 time=0.023
EXTRACT: note_off channel=2 note=50 velocity=65 time=0
EXTRACT: note_off channel=1 note=50 velocity=65 time=0.007
EXTRACT: note_on channel=6 note=86 velocity=67 time=0.017
EXTRACT: note_on channel=11 note=98 velocity=66 time=0
EXTRACT: note_on channel=14 note=86 velocity=66 time=0
EXTRACT: note_on channel=1 note=38 velocity=94 time=0.019
EXTRACT: note_on channel=2 note=38 velocity=41 time=0
EXTRACT: note_on channel=5 note=38 velocity=42 time=0
EXTRACT: note_on channel=9 note=35 velocity=109 time=0
EXTRACT: note_on channel=9 note=38 velocity=36 time=0
EXTRACT: note_on channel=9 note=42 velocity=33 time=0
EXTRACT: note_on channel=9 note=70 velocity=23 time=0
EXTRACT: note_on channel=9 note=85 velocity=14 time=0
EXTRACT: note_off channel=14 note=81 velocity=65 time=0.004
EXTRACT: note_off channel=11 note=93 velocity=65 time=0
EXTRACT: note_off channel=6 note=81 velocity=64 time=0
EXTRACT: note_off channel=9 note=85 velocity=64 time=0.02
EXTRACT: note_off channel=9 note=70 velocity=65 time=0
EXTRACT: note_off channel=9 note=42 velocity=65 time=0
EXTRACT: note_off channel=9 note=38 velocity=64 time=0
EXTRACT: note_off channel=9 note=35 velocity=64 time=0
EXTRACT: note_off channel=5 note=38 velocity=65 time=0.09
EXTRACT: note_off channel=2 note=38 velocity=64 time=0
EXTRACT: note_off channel=1 note=38 velocity=64 time=0.09
EXTRACT: note_on channel=6 note=81 velocity=70 time=0.022
EXTRACT: note_on channel=11 note=93 velocity=71 time=0
EXTRACT: note_on channel=14 note=81 velocity=71 time=0
EXTRACT: note_on channel=1 note=50 velocity=90 time=0.014
EXTRACT: note_on channel=2 note=50 velocity=59 time=0
EXTRACT: note_on channel=5 note=38 velocity=53 time=0
EXTRACT: note_on channel=9 note=44 velocity=33 time=0
EXTRACT: note_on channel=9 note=70 velocity=20 time=0
EXTRACT: note_off channel=14 note=86 velocity=65 time=0.004
EXTRACT: note_off channel=11 note=98 velocity=65 time=0
EXTRACT: note_off channel=6 note=86 velocity=64 time=0
EXTRACT: note_off channel=9 note=70 velocity=65 time=0.02
EXTRACT: note_off channel=9 note=44 velocity=64 time=0
EXTRACT: note_off channel=5 note=38 velocity=64 time=0.011
EXTRACT: note_off channel=2 note=50 velocity=65 time=0
EXTRACT: control_change channel=2 control=6 value=57 time=0.005
EXTRACT: note_off channel=14 note=81 velocity=64 time=0.074
EXTRACT: note_off channel=11 note=93 velocity=64 time=0
EXTRACT: note_off channel=6 note=81 velocity=65 time=0
EXTRACT: note_on channel=6 note=77 velocity=70 time=0.003
EXTRACT: note_on channel=11 note=89 velocity=71 time=0
EXTRACT: note_on channel=14 note=77 velocity=71 time=0
EXTRACT: note_on channel=2 note=50 velocity=54 time=0.003
EXTRACT: note_on channel=5 note=38 velocity=49 time=0
EXTRACT: note_on channel=9 note=46 velocity=31 time=0
EXTRACT: note_on channel=9 note=70 velocity=19 time=0
EXTRACT: note_off channel=9 note=70 velocity=65 time=0.024
EXTRACT: note_off channel=9 note=46 velocity=65 time=0
EXTRACT: note_off channel=5 note=38 velocity=64 time=0.019
EXTRACT: note_off channel=2 note=50 velocity=64 time=0
EXTRACT: note_off channel=1 note=50 velocity=64 time=0.041
EXTRACT: note_on channel=6 note=74 velocity=63 time=0.033
EXTRACT: note_on channel=11 note=86 velocity=62 time=0
EXTRACT: note_on channel=14 note=74 velocity=62 time=0
EXTRACT: note_on channel=1 note=38 velocity=93 time=0.003
EXTRACT: note_on channel=5 note=38 velocity=38 time=0
EXTRACT: note_on channel=9 note=35 velocity=110 time=0
EXTRACT: note_on channel=9 note=42 velocity=34 time=0
EXTRACT: note_on channel=9 note=70 velocity=25 time=0
EXTRACT: note_on channel=9 note=85 velocity=14 time=0
EXTRACT: note_off channel=14 note=77 velocity=64 time=0.014
EXTRACT: note_off channel=11 note=89 velocity=64 time=0
EXTRACT: note_off channel=6 note=77 velocity=65 time=0
EXTRACT: note_on channel=2 note=38 velocity=34 time=0.006
EXTRACT: note_off channel=9 note=85 velocity=64 time=0.004
EXTRACT: note_off channel=9 note=70 velocity=65 time=0
EXTRACT: note_off channel=9 note=42 velocity=64 time=0
EXTRACT: note_off channel=9 note=35 velocity=64 time=0
EXTRACT: control_change channel=13 control=6 value=54 time=0.056
EXTRACT: note_off channel=5 note=38 velocity=65 time=0.034
EXTRACT: note_on channel=6 note=76 velocity=76 time=0.002
EXTRACT: note_on channel=11 note=88 velocity=76 time=0
EXTRACT: note_on channel=14 note=76 velocity=76 time=0
EXTRACT: note_off channel=14 note=74 velocity=65 time=0.008
EXTRACT: note_off channel=11 note=86 velocity=65 time=0
EXTRACT: note_off channel=6 note=74 velocity=64 time=0
EXTRACT: note_off channel=2 note=38 velocity=64 time=0.01
EXTRACT: note_off channel=1 note=38 velocity=65 time=0.07
EXTRACT: note_off channel=13 note=69 velocity=65 time=0.03
EXTRACT: note_off channel=13 note=74 velocity=65 time=0
EXTRACT: note_off channel=13 note=65 velocity=64 time=0
EXTRACT: note_off channel=13 note=62 velocity=64 time=0
EXTRACT: note_on channel=6 note=77 velocity=73 time=0.004
EXTRACT: note_on channel=11 note=89 velocity=73 time=0
EXTRACT: note_on channel=14 note=77 velocity=73 time=0
EXTRACT: note_on channel=1 note=40 velocity=87 time=0.002
EXTRACT: note_on channel=2 note=52 velocity=57 time=0
EXTRACT: note_on channel=5 note=40 velocity=50 time=0
EXTRACT: note_on channel=9 note=44 velocity=34 time=0
EXTRACT: note_on channel=9 note=70 velocity=20 time=0
EXTRACT: note_on channel=13 note=64 velocity=81 time=0
EXTRACT: note_off channel=14 note=76 velocity=64 time=0.005
EXTRACT: note_off channel=11 note=88 velocity=64 time=0
EXTRACT: note_off channel=6 note=76 velocity=64 time=0
EXTRACT: note_on channel=13 note=67 velocity=64 time=0.007
EXTRACT: note_on channel=13 note=71 velocity=63 time=0.008
EXTRACT: note_off channel=9 note=70 velocity=65 time=0.004
EXTRACT: note_off channel=9 note=44 velocity=65 time=0
EXTRACT: note_off channel=5 note=40 velocity=65 time=0.009000000000000001
EXTRACT: note_off channel=2 note=52 velocity=65 time=0
EXTRACT: note_on channel=2 note=52 velocity=38 time=0.08700000000000001
EXTRACT: note_on channel=5 note=40 velocity=31 time=0
EXTRACT: note_on channel=9 note=46 velocity=32 time=0
EXTRACT: note_on channel=9 note=70 velocity=19 time=0
EXTRACT: note_on channel=6 note=79 velocity=55 time=0.001
EXTRACT: note_on channel=11 note=91 velocity=55 time=0
EXTRACT: note_on channel=14 note=79 velocity=55 time=0
EXTRACT: note_off channel=14 note=77 velocity=65 time=0.013000000000000001
EXTRACT: note_off channel=11 note=89 velocity=65 time=0
EXTRACT: note_off channel=6 note=77 velocity=65 time=0
EXTRACT: note_off channel=9 note=70 velocity=64 time=0.01
EXTRACT: note_off channel=9 note=46 velocity=64 time=0
EXTRACT: control_change channel=1 control=6 value=47 time=0.021
EXTRACT: note_off channel=5 note=40 velocity=64 time=0.023
EXTRACT: note_off channel=2 note=52 velocity=65 time=0
EXTRACT: note_off channel=1 note=40 velocity=65 time=0.001
EXTRACT: note_off channel=13 note=64 velocity=65 time=0.006
EXTRACT: note_on channel=6 note=81 velocity=74 time=0.022
EXTRACT: note_on channel=11 note=93 velocity=74 time=0
EXTRACT: note_on channel=14 note=81 velocity=74 time=0
EXTRACT: note_off channel=13 note=71 velocity=64 time=0.017
EXTRACT: note_off channel=13 note=67 velocity=65 time=0
EXTRACT: note_on channel=1 note=41 velocity=92 time=0.006
EXTRACT: note_on channel=2 note=41 velocity=45 time=0
EXTRACT: note_on channel=5 note=41 velocity=47 time=0
EXTRACT: note_on channel=9 note=35 velocity=113 time=0
EXTRACT: note_on channel=9 note=38 velocity=41 time=0
EXTRACT: note_on channel=9 note=42 velocity=39 time=0
EXTRACT: note_on channel=9 note=70 velocity=24 time=0
EXTRACT: note_on channel=9 note=85 velocity=14 time=0
EXTRACT: note_on channel=13 note=65 velocity=89 time=0
EXTRACT: note_off channel=14 note=79 velocity=65 time=0.002
EXTRACT: note_off channel=11 note=91 velocity=65 time=0
EXTRACT: note_off channel=6 note=79 velocity=64 time=0
EXTRACT: note_on channel=13 note=69 velocity=34 time=0.015
EXTRACT: note_on channel=13 note=72 velocity=81 time=0
EXTRACT: note_off channel=9 note=85 velocity=65 time=0.007
EXTRACT: note_off channel=9 note=70 velocity=65 time=0
EXTRACT: note_off channel=9 note=42 velocity=64 time=0
EXTRACT: note_off channel=9 note=38 velocity=64 time=0
EXTRACT: note_off channel=9 note=35 velocity=65 time=0
EXTRACT: note_off channel=5 note=41 velocity=64 time=0.09
EXTRACT: note_off channel=2 note=41 velocity=64 time=0
EXTRACT: note_off channel=1 note=41 velocity=64 time=0.09
EXTRACT: note_on channel=1 note=53 velocity=96 time=0.036000000000000004
EXTRACT: note_on channel=2 note=53 velocity=59 time=0
EXTRACT: note_on channel=5 note=41 velocity=53 time=0
EXTRACT: note_on channel=9 note=44 velocity=35 time=0
EXTRACT: note_on channel=9 note=70 velocity=24 time=0
EXTRACT: note_off channel=9 note=70 velocity=64 time=0.024
EXTRACT: note_off channel=9 note=44 velocity=65 time=0
EXTRACT: note_off channel=5 note=41 velocity=65 time=0.012
EXTRACT: note_off channel=2 note=53 velocity=64 time=0
EXTRACT: note_on channel=2 note=53 velocity=50 time=0.084
EXTRACT: note_on channel=5 note=41 velocity=44 time=0
EXTRACT: note_on channel=9 note=46 velocity=35 time=0
EXTRACT: note_on channel=9 note=70 velocity=19 time=0
EXTRACT: note_off channel=9 note=70 velocity=65 time=0.024
EXTRACT: note_off channel=9 note=46 velocity=64 time=0
EXTRACT: note_off channel=5 note=41 velocity=64 time=0.043000000000000003
EXTRACT: note_off channel=2 note=53 velocity=65 time=0
EXTRACT: note_off channel=1 note=53 velocity=64 time=0.017
EXTRACT: note_on channel=1 note=41 velocity=99 time=0.036000000000000004
EXTRACT: note_on channel=2 note=41 velocity=43 time=0
EXTRACT: note_on channel=5 note=41 velocity=46 time=0
EXTRACT: note_on channel=9 note=35 velocity=114 time=0
EXTRACT: note_on channel=9 note=42 velocity=40 time=0
EXTRACT: note_on channel=9 note=70 velocity=29 time=0
EXTRACT: note_on channel=9 note=85 velocity=12 time=0
EXTRACT: note_off channel=9 note=85 velocity=65 time=0.024
EXTRACT: note_off channel=9 note=70 velocity=64 time=0
EXTRACT: note_off channel=9 note=42 velocity=64 time=0
EXTRACT: note_off channel=9 note=35 velocity=65 time=0
EXTRACT: note_off channel=5 note=41 velocity=65 time=0.09
EXTRACT: note_off channel=2 note=41 velocity=65 time=0
EXTRACT: note_off channel=14 note=81 velocity=64 time=0.08
EXTRACT: note_off channel=11 note=93 velocity=64 time=0
EXTRACT: note_off channel=6 note=81 velocity=65 time=0
EXTRACT: note_off channel=1 note=41 velocity=65 time=0.01
EXTRACT: note_on channel=1 note=53 velocity=100 time=0.036000000000000004
EXTRACT: note_on channel=2 note=53 velocity=62 time=0
EXTRACT: note_on channel=5 note=41 velocity=55 time=0
EXTRACT: note_on channel=9 note=44 velocity=34 time=0
EXTRACT: note_on channel=9 note=70 velocity=30 time=0
EXTRACT: control_change channel=2 control=6 value=59 time=0
EXTRACT: note_on channel=6 note=77 velocity=73 time=0.021
EXTRACT: note_on channel=11 note=89 velocity=72 time=0
EXTRACT: note_on channel=14 note=77 velocity=72 time=0
EXTRACT: note_off channel=9 note=70 velocity=65 time=0.003
EXTRACT: note_off channel=9 note=44 velocity=64 time=0
EXTRACT: note_off channel=5 note=41 velocity=65 time=0.011
EXTRACT: note_off channel=2 note=53 velocity=64 time=0
EXTRACT: note_on channel=6 note=81 velocity=52 time=0.06
EXTRACT: note_on channel=11 note=93 velocity=53 time=0
EXTRACT: note_on channel=14 note=81 velocity=53 time=0
EXTRACT: note_on channel=2 note=53 velocity=64 time=0.025
EXTRACT: note_on channel=5 note=41 velocity=56 time=0
EXTRACT: note_on channel=9 note=46 velocity=36 time=0
EXTRACT: note_on channel=9 note=70 velocity=18 time=0
EXTRACT: note_off channel=9 note=70 velocity=64 time=0.024
EXTRACT: note_off channel=9 note=46 velocity=65 time=0
EXTRACT: note_off channel=14 note=77 velocity=65 time=0.01
EXTRACT: note_off channel=11 note=89 velocity=65 time=0
EXTRACT: note_off channel=6 note=77 velocity=65 time=0
EXTRACT: note_on channel=6 note=84 velocity=78 time=0.012
EXTRACT: note_on channel=11 note=96 velocity=78 time=0
EXTRACT: note_on channel=14 note=84 velocity=78 time=0
EXTRACT: note_off channel=14 note=81 velocity=64 time=0.018000000000000002
EXTRACT: note_off channel=11 note=93 velocity=64 time=0
EXTRACT: note_off channel=6 note=81 velocity=64 time=0
EXTRACT: note_off channel=5 note=41 velocity=64 time=0.012
EXTRACT: note_off channel=2 note=53 velocity=64 time=0
EXTRACT: note_off channel=1 note=53 velocity=64 time=0.008
EXTRACT: note_on channel=6 note=89 velocity=75 time=0.019
EXTRACT: note_on channel=11 note=101 velocity=73 time=0
EXTRACT: note_on channel=14 note=89 velocity=73 time=0
EXTRACT: note_on channel=1 note=41 velocity=99 time=0.017
EXTRACT: note_on channel=2 note=41 velocity=45 time=0
EXTRACT: note_on channel=5 note=41 velocity=47 time=0
EXTRACT: note_on channel=9 note=35 velocity=118 time=0
EXTRACT: note_on channel=9 note=38 velocity=51 time=0
EXTRACT: note_on channel=9 note=42 velocity=44 time=0
EXTRACT: note_on channel=9 note=70 velocity=29 time=0
EXTRACT: note_on channel=9 note=85 velocity=12 time=0
EXTRACT: note_off channel=14 note=84 velocity=64 time=0.014
EXTRACT: note_off channel=11 note=96 velocity=64 time=0
EXTRACT: note_off channel=6 note=84 velocity=65 time=0
EXTRACT: note_off channel=9 note=85 velocity=65 time=0.01
EXTRACT: note_off channel=9 note=70 velocity=64 time=0
EXTRACT: note_off channel=9 note=42 velocity=64 time=0
EXTRACT: note_off channel=9 note=38 velocity=65 time=0
EXTRACT: note_off channel=9 note=35 velocity=64 time=0
EXTRACT: control_change channel=13 control=6 value=56 time=0.016
EXTRACT: note_off channel=5 note=41 velocity=65 time=0.074
EXTRACT: note_off channel=2 note=41 velocity=65 time=0
EXTRACT: control_change channel=1 control=6 value=50 time=0.081
EXTRACT: note_off channel=1 note=41 velocity=65 time=0.009000000000000001
EXTRACT: note_off channel=14 note=89 velocity=65 time=0.01
EXTRACT: note_off channel=11 note=101 velocity=65 time=0
EXTRACT: note_off channel=6 note=89 velocity=64 time=0
EXTRACT: note_on channel=6 note=88 velocity=71 time=0.016
EXTRACT: note_on channel=11 note=100 velocity=71 time=0
EXTRACT: note_on channel=14 note=88 velocity=71 time=0
EXTRACT: note_on channel=1 note=43 velocity=115 time=0.01
EXTRACT: note_on channel=2 note=55 velocity=63 time=0
EXTRACT: note_on channel=5 note=43 velocity=57 time=0
EXTRACT: note_on channel=9 note=46 velocity=70 time=0
EXTRACT: note_on channel=9 note=70 velocity=29 time=0
EXTRACT: note_on channel=13 note=67 velocity=80 time=0
EXTRACT: note_on channel=13 note=71 velocity=64 time=0
EXTRACT: note_off channel=13 note=72 velocity=65 time=0.011
EXTRACT: note_off channel=13 note=69 velocity=64 time=0
EXTRACT: note_off channel=13 note=65 velocity=65 time=0
EXTRACT: note_on channel=13 note=74 velocity=63 time=0.009000000000000001
EXTRACT: note_off channel=9 note=70 velocity=65 time=0.004
EXTRACT: note_off channel=9 note=46 velocity=65 time=0
EXTRACT: note_off channel=5 note=43 velocity=64 time=0.013000000000000001
EXTRACT: note_off channel=2 note=55 velocity=64 time=0
EXTRACT: note_on channel=2 note=55 velocity=78 time=0.083
EXTRACT: note_on channel=5 note=43 velocity=72 time=0
EXTRACT: note_on channel=9 note=70 velocity=18 time=0
EXTRACT: note_off channel=14 note=88 velocity=65 time=0.004
EXTRACT: note_off channel=11 note=100 velocity=65 time=0
EXTRACT: note_off channel=6 note=88 velocity=64 time=0
EXTRACT: note_on channel=6 note=84 velocity=70 time=0.003
EXTRACT: note_on channel=11 note=96 velocity=70 time=0
EXTRACT: note_on channel=14 note=84 velocity=70 time=0
EXTRACT: note_off channel=9 note=70 velocity=64 time=0.017
EXTRACT: note_off channel=5 note=43 velocity=64 time=0.052000000000000005
EXTRACT: note_off channel=2 note=55 velocity=65 time=0
EXTRACT: note_off channel=1 note=43 velocity=65 time=0.008
EXTRACT: control_change channel=9 control=91 value=20 time=0.006
EXTRACT: note_off channel=13 note=74 velocity=64 time=0.024
EXTRACT: note_off channel=13 note=71 velocity=64 time=0
EXTRACT: note_off channel=13 note=67 velocity=65 time=0
EXTRACT: note_on channel=1 note=45 velocity=104 time=0.006
EXTRACT: note_on channel=2 note=45 velocity=42 time=0
EXTRACT: note_on channel=5 note=45 velocity=47 time=0
EXTRACT: note_on channel=9 note=35 velocity=121 time=0
EXTRACT: note_on channel=9 note=42 velocity=47 time=0
EXTRACT: note_on channel=9 note=70 velocity=30 time=0
EXTRACT: note_on channel=9 note=85 velocity=12 time=0
EXTRACT: note_on channel=13 note=69 velocity=57 time=0
EXTRACT: note_on channel=6 note=81 velocity=74 time=0.007
EXTRACT: note_on channel=11 note=93 velocity=75 time=0
EXTRACT: note_on channel=14 note=81 velocity=75 time=0
EXTRACT: note_on channel=13 note=76 velocity=68 time=0.002
EXTRACT: note_on channel=13 note=72 velocity=60 time=0.003
EXTRACT: note_off channel=14 note=84 velocity=64 time=0.001
EXTRACT: note_off channel=11 note=96 velocity=64 time=0
EXTRACT: note_off channel=6 note=84 velocity=65 time=0
EXTRACT: note_off channel=9 note=85 velocity=65 time=0.011
EXTRACT: note_off channel=9 note=70 velocity=64 time=0
EXTRACT: note_off channel=9 note=42 velocity=64 time=0
EXTRACT: note_off channel=9 note=35 velocity=65 time=0
EXTRACT: note_off channel=5 note=45 velocity=65 time=0.09
EXTRACT: note_off channel=2 note=45 velocity=65 time=0
EXTRACT: note_off channel=1 note=45 velocity=64 time=0.105
EXTRACT: note_on channel=1 note=57 velocity=91 time=0.021
EXTRACT: note_on channel=2 note=57 velocity=63 time=0
EXTRACT: note_on channel=5 note=45 velocity=54 time=0
EXTRACT: note_on channel=9 note=44 velocity=38 time=0
EXTRACT: note_on channel=9 note=70 velocity=25 time=0
EXTRACT: note_off channel=9 note=70 velocity=65 time=0.024
EXTRACT: note_off channel=9 note=44 velocity=64 time=0
EXTRACT: note_off channel=5 note=45 velocity=65 time=0.011
EXTRACT: note_off channel=2 note=57 velocity=64 time=0
EXTRACT: note_on channel=2 note=57 velocity=75 time=0.085
EXTRACT: note_on channel=5 note=45 velocity=68 time=0
EXTRACT: note_on channel=9 note=46 velocity=35 time=0
EXTRACT: note_on channel=9 note=70 velocity=26 time=0
EXTRACT: note_off channel=9 note=70 velocity=64 time=0.024
EXTRACT: note_off channel=9 note=46 velocity=65 time=0
EXTRACT: note_off channel=5 note=45 velocity=64 time=0.039
EXTRACT: note_off channel=2 note=57 velocity=65 time=0
EXTRACT: note_off channel=1 note=57 velocity=65 time=0.021
EXTRACT: note_on channel=1 note=45 velocity=102 time=0.036000000000000004
EXTRACT: note_on channel=2 note=45 velocity=42 time=0
EXTRACT: note_on channel=5 note=45 velocity=47 time=0
EXTRACT: note_on channel=9 note=35 velocity=123 time=0
EXTRACT: note_on channel=9 note=38 velocity=60 time=0
EXTRACT: note_on channel=9 note=42 velocity=51 time=0
EXTRACT: note_on channel=9 note=70 velocity=35 time=0
EXTRACT: note_on channel=9 note=85 velocity=12 time=0
EXTRACT: control_change channel=2 control=6 value=61 time=0
EXTRACT: note_off channel=9 note=85 velocity=65 time=0.024
EXTRACT: note_off channel=9 note=70 velocity=64 time=0
EXTRACT: note_off channel=9 note=42 velocity=64 time=0
EXTRACT: note_off channel=9 note=38 velocity=65 time=0
EXTRACT: note_off channel=9 note=35 velocity=64 time=0
EXTRACT: note_off channel=5 note=45 velocity=64 time=0.09
EXTRACT: note_off channel=2 note=45 velocity=64 time=0
EXTRACT: note_off channel=1 note=45 velocity=64 time=0.105
EXTRACT: note_on channel=1 note=57 velocity=96 time=0.021
EXTRACT: note_on channel=2 note=57 velocity=64 time=0
EXTRACT: note_on channel=5 note=45 velocity=57 time=0
EXTRACT: note_on channel=9 note=44 velocity=39 time=0
EXTRACT: note_on channel=9 note=70 velocity=35 time=0
EXTRACT: note_off channel=9 note=70 velocity=65 time=0.024
EXTRACT: note_off channel=9 note=44 velocity=65 time=0
EXTRACT: note_off channel=5 note=45 velocity=65 time=0.016
EXTRACT: note_off channel=2 note=57 velocity=64 time=0
EXTRACT: control_change channel=13 control=6 value=58 time=0.04
EXTRACT: note_on channel=2 note=57 velocity=77 time=0.04
EXTRACT: note_on channel=5 note=45 velocity=70 time=0
EXTRACT: note_on channel=9 note=46 velocity=39 time=0
EXTRACT: note_on channel=9 note=70 velocity=28 time=0
EXTRACT: note_off channel=9 note=70 velocity=64 time=0.024
EXTRACT: note_off channel=9 note=46 velocity=65 time=0
EXTRACT: note_off channel=5 note=45 velocity=65 time=0.051000000000000004
EXTRACT: note_off channel=2 note=57 velocity=65 time=0
EXTRACT: note_off channel=1 note=57 velocity=64 time=0.009000000000000001
EXTRACT: note_on channel=1 note=45 velocity=101 time=0.036000000000000004
EXTRACT: note_on channel=2 note=45 velocity=36 time=0
EXTRACT: note_on channel=5 note=45 velocity=40 time=0
EXTRACT: note_on channel=9 note=35 velocity=124 time=0
EXTRACT: note_on channel=9 note=42 velocity=52 time=0
EXTRACT: note_on channel=9 note=70 velocity=39 time=0
EXTRACT: note_on channel=9 note=85 velocity=12 time=0
EXTRACT: note_off channel=9 note=85 velocity=64 time=0.024
EXTRACT: note_off channel=9 note=70 velocity=64 time=0
EXTRACT: note_off channel=9 note=42 velocity=65 time=0
EXTRACT: note_off channel=9 note=35 velocity=65 time=0
EXTRACT: control_change channel=1 control=6 value=52 time=0.066
EXTRACT: note_off channel=14 note=81 velocity=64 time=0.002
EXTRACT: note_off channel=11 note=93 velocity=64 time=0
EXTRACT: note_off channel=6 note=81 velocity=65 time=0
EXTRACT: note_off channel=5 note=45 velocity=64 time=0.022
EXTRACT: note_off channel=2 note=45 velocity=65 time=0
EXTRACT: note_off channel=1 note=45 velocity=65 time=0.09
EXTRACT: note_on channel=1 note=57 velocity=97 time=0.036000000000000004
EXTRACT: note_on channel=2 note=57 velocity=75 time=0
EXTRACT: note_on channel=5 note=45 velocity=69 time=0
EXTRACT: note_on channel=9 note=44 velocity=43 time=0
EXTRACT: note_on channel=9 note=70 velocity=40 time=0
EXTRACT: note_off channel=9 note=70 velocity=64 time=0.024
EXTRACT: note_off channel=9 note=44 velocity=64 time=0
EXTRACT: note_on channel=6 note=76 velocity=71 time=0.024
EXTRACT: note_on channel=11 note=88 velocity=70 time=0
EXTRACT: note_on channel=14 note=76 velocity=70 time=0
EXTRACT: note_off channel=5 note=45 velocity=64 time=0.002
EXTRACT: note_off channel=2 note=57 velocity=64 time=0
EXTRACT: note_on channel=6 note=81 velocity=55 time=0.066
EXTRACT: note_on channel=11 note=93 velocity=54 time=0
EXTRACT: note_on channel=14 note=81 velocity=54 time=0
EXTRACT: note_on channel=2 note=57 velocity=55 time=0.004
EXTRACT: note_on channel=5 note=45 velocity=47 time=0
EXTRACT: note_on channel=9 note=46 velocity=36 time=0
EXTRACT: note_on channel=9 note=70 velocity=28 time=0
EXTRACT: note_off channel=9 note=70 velocity=65 time=0.024
EXTRACT: note_off channel=9 note=46 velocity=65 time=0
EXTRACT: note_on channel=6 note=84 velocity=38 time=0.031
EXTRACT: note_on channel=11 note=96 velocity=39 time=0
EXTRACT: note_on channel=14 note=84 velocity=39 time=0
EXTRACT: note_off channel=5 note=45 velocity=65 time=0.004
EXTRACT: note_off channel=2 note=57 velocity=64 time=0
EXTRACT: note_off channel=14 note=76 velocity=65 time=0.022
EXTRACT: note_off channel=11 note=88 velocity=65 time=0
EXTRACT: note_off channel=6 note=76 velocity=64 time=0
EXTRACT: note_off channel=1 note=57 velocity=65 time=0.003
EXTRACT: note_off channel=13 note=76 velocity=65 time=0.03
EXTRACT: note_on channel=6 note=88 velocity=86 time=0.004
EXTRACT: note_on channel=11 note=100 velocity=87 time=0
EXTRACT: note_on channel=14 note=88 velocity=87 time=0
EXTRACT: note_off channel=14 note=81 velocity=65 time=0
EXTRACT: note_off channel=11 note=93 velocity=65 time=0
EXTRACT: note_off channel=6 note=81 velocity=64 time=0
EXTRACT: note_on channel=1 note=45 velocity=124 time=0.002
EXTRACT: note_on channel=2 note=45 velocity=42 time=0
EXTRACT: note_on channel=5 note=45 velocity=44 time=0
EXTRACT: note_on channel=9 note=35 velocity=126 time=0
EXTRACT: note_on channel=9 note=38 velocity=71 time=0
EXTRACT: note_on channel=9 note=42 velocity=54 time=0
EXTRACT: note_on channel=9 note=70 velocity=39 time=0
EXTRACT: note_on channel=9 note=85 velocity=12 time=0
EXTRACT: note_on channel=13 note=77 velocity=69 time=0
EXTRACT: note_off channel=9 note=85 velocity=64 time=0.024
EXTRACT: note_off channel=9 note=70 velocity=64 time=0
EXTRACT: note_off channel=9 note=42 velocity=65 time=0
EXTRACT: note_off channel=9 note=38 velocity=64 time=0
EXTRACT: note_off channel=9 note=35 velocity=65 time=0
EXTRACT: note_off channel=14 note=84 velocity=64 time=0.02
EXTRACT: note_off channel=11 note=96 velocity=64 time=0
EXTRACT: note_off channel=6 note=84 velocity=65 time=0
EXTRACT: note_off channel=5 note=45 velocity=64 time=0.07
EXTRACT: note_off channel=2 note=45 velocity=65 time=0
EXTRACT: note_off channel=14 note=88 velocity=64 time=0.05
EXTRACT: note_off channel=11 note=100 velocity=64 time=0
EXTRACT: note_off channel=6 note=88 velocity=65 time=0
EXTRACT: note_off channel=1 note=45 velocity=64 time=0.04
EXTRACT: note_on channel=6 note=88 velocity=81 time=0.029
EXTRACT: note_on channel=11 note=100 velocity=80 time=0
EXTRACT: note_on channel=14 note=88 velocity=80 time=0
EXTRACT: note_on channel=1 note=55 velocity=98 time=0.007
EXTRACT: note_on channel=2 note=55 velocity=63 time=0
EXTRACT: note_on channel=5 note=43 velocity=56 time=0
EXTRACT: note_on channel=9 note=46 velocity=78 time=0
EXTRACT: note_on channel=9 note=70 velocity=39 time=0
EXTRACT: note_off channel=9 note=70 velocity=65 time=0.024
EXTRACT: note_off channel=9 note=46 velocity=64 time=0
EXTRACT: note_off channel=14 note=88 velocity=65 time=0
EXTRACT: note_off channel=11 note=100 velocity=65 time=0
EXTRACT: note_off channel=6 note=88 velocity=64 time=0
EXTRACT: note_off channel=5 note=43 velocity=65 time=0.012
EXTRACT: note_off channel=2 note=55 velocity=65 time=0
EXTRACT: control_change channel=2 control=6 value=62 time=0.004
EXTRACT: note_on channel=6 note=84 velocity=80 time=0.003
EXTRACT: note_on channel=11 note=96 velocity=80 time=0
EXTRACT: note_on channel=14 note=84 velocity=80 time=0
EXTRACT: note_on channel=6 note=81 velocity=75 time=0.056
EXTRACT: note_on channel=11 note=93 velocity=75 time=0
EXTRACT: note_on channel=14 note=81 velocity=75 time=0
EXTRACT: note_off channel=14 note=84 velocity=64 time=0.005
EXTRACT: note_off channel=11 note=96 velocity=64 time=0
EXTRACT: note_off channel=6 note=84 velocity=64 time=0
EXTRACT: note_off channel=1 note=55 velocity=64 time=0.01
EXTRACT: note_on channel=1 note=53 velocity=93 time=0.006
EXTRACT: note_on channel=2 note=53 velocity=48 time=0
EXTRACT: note_on channel=5 note=41 velocity=41 time=0
EXTRACT: note_on channel=9 note=70 velocity=28 time=0
EXTRACT: note_off channel=9 note=70 velocity=65 time=0.024
EXTRACT: note_off channel=5 note=41 velocity=65 time=0.016
EXTRACT: note_off channel=2 note=53 velocity=64 time=0
EXTRACT: note_off channel=14 note=81 velocity=65 time=0.004
EXTRACT: note_off channel=11 note=93 velocity=65 time=0
EXTRACT: note_off channel=6 note=81 velocity=65 time=0
EXTRACT: note_on channel=6 note=77 velocity=77 time=0.023
EXTRACT: note_on channel=11 note=89 velocity=77 time=0
EXTRACT: note_on channel=14 note=77 velocity=77 time=0
EXTRACT: control_change channel=13 control=6 value=60 time=0.013000000000000001
EXTRACT: note_off channel=1 note=53 velocity=65 time=0.034
EXTRACT: note_off channel=13 note=72 velocity=64 time=0
EXTRACT: note_off channel=13 note=69 velocity=64 time=0
EXTRACT: note_on channel=1 note=38 velocity=111 time=0.006
EXTRACT: note_on channel=2 note=38 velocity=38 time=0
EXTRACT: note_on channel=5 note=38 velocity=42 time=0
EXTRACT: note_on channel=9 note=35 velocity=127 time=0
EXTRACT: note_on channel=9 note=42 velocity=59 time=0
EXTRACT: note_on channel=9 note=70 velocity=34 time=0
EXTRACT: note_on channel=9 note=85 velocity=12 time=0
EXTRACT: note_on channel=13 note=62 velocity=57 time=0
EXTRACT: note_on channel=13 note=65 velocity=52 time=0
EXTRACT: note_on channel=13 note=74 velocity=46 time=0.002
EXTRACT: note_on channel=13 note=69 velocity=63 time=0.003
EXTRACT: note_on channel=6 note=74 velocity=74 time=0.003
EXTRACT: note_on channel=11 note=86 velocity=74 time=0
EXTRACT: note_on channel=14 note=74 velocity=74 time=0
EXTRACT: note_off channel=14 note=77 velocity=65 time=0.006
EXTRACT: note_off channel=11 note=89 velocity=65 time=0
EXTRACT: note_off channel=6 note=77 velocity=64 time=0
EXTRACT: note_off channel=9 note=85 velocity=64 time=0.01
EXTRACT: note_off channel=9 note=70 velocity=64 time=0
EXTRACT: note_off channel=9 note=42 velocity=65 time=0
EXTRACT: note_off channel=9 note=35 velocity=65 time=0
EXTRACT: note_off channel=13 note=77 velocity=65 time=0.005
EXTRACT: note_off channel=5 note=38 velocity=64 time=0.085
EXTRACT: note_off channel=2 note=38 velocity=64 time=0
EXTRACT: note_off channel=1 note=38 velocity=65 time=0.09
EXTRACT: note_on channel=1 note=50 velocity=112 time=0.036000000000000004
EXTRACT: note_on channel=2 note=50 velocity=61 time=0
EXTRACT: note_on channel=5 note=38 velocity=53 time=0
EXTRACT: note_on channel=9 note=44 velocity=46 time=0
EXTRACT: note_on channel=9 note=70 velocity=31 time=0
EXTRACT: note_off channel=9 note=70 velocity=64 time=0.024
EXTRACT: note_off channel=9 note=44 velocity=64 time=0
EXTRACT: note_off channel=5 note=38 velocity=65 time=0.025
EXTRACT: note_off channel=2 note=50 velocity=65 time=0
EXTRACT: note_off channel=1 note=50 velocity=64 time=0.065
EXTRACT: note_on channel=2 note=50 velocity=37 time=0.006
EXTRACT: note_on channel=5 note=38 velocity=30 time=0
EXTRACT: note_on channel=9 note=46 velocity=47 time=0
EXTRACT: note_on channel=9 note=70 velocity=31 time=0
EXTRACT: note_off channel=9 note=70 velocity=65 time=0.024
EXTRACT: note_off channel=9 note=46 velocity=65 time=0
EXTRACT: note_off channel=5 note=38 velocity=64 time=0.022
EXTRACT: note_off channel=2 note=50 velocity=64 time=0
EXTRACT: note_on channel=1 note=38 velocity=112 time=0.074
EXTRACT: note_on channel=2 note=38 velocity=34 time=0
EXTRACT: note_on channel=5 note=38 velocity=39 time=0
EXTRACT: note_on channel=9 note=35 velocity=127 time=0
EXTRACT: note_on channel=9 note=38 velocity=80 time=0
EXTRACT: note_on channel=9 note=42 velocity=61 time=0
EXTRACT: note_on channel=9 note=70 velocity=38 time=0
EXTRACT: note_on channel=9 note=85 velocity=12 time=0
EXTRACT: note_off channel=9 note=85 velocity=64 time=0.024
EXTRACT: note_off channel=9 note=70 velocity=64 time=0
EXTRACT: note_off channel=9 note=42 velocity=65 time=0
EXTRACT: note_off channel=9 note=38 velocity=64 time=0
EXTRACT: note_off channel=9 note=35 velocity=65 time=0
EXTRACT: note_off channel=5 note=38 velocity=64 time=0.09
EXTRACT: note_off channel=2 note=38 velocity=65 time=0
EXTRACT: note_off channel=1 note=38 velocity=64 time=0.09
EXTRACT: note_on channel=1 note=50 velocity=111 time=0.036000000000000004
EXTRACT: note_on channel=2 note=50 velocity=64 time=0
EXTRACT: note_on channel=5 note=38 velocity=56 time=0
EXTRACT: note_on channel=9 note=44 velocity=46 time=0
EXTRACT: note_on channel=9 note=70 velocity=38 time=0
EXTRACT: note_off channel=9 note=70 velocity=65 time=0.024
EXTRACT: note_off channel=9 note=44 velocity=64 time=0
EXTRACT: note_off channel=5 note=38 velocity=65 time=0.026000000000000002
EXTRACT: note_off channel=2 note=50 velocity=65 time=0
EXTRACT: note_off channel=1 note=50 velocity=65 time=0.064
EXTRACT: note_on channel=2 note=50 velocity=45 time=0.006
EXTRACT: note_on channel=5 note=38 velocity=39 time=0
EXTRACT: note_on channel=9 note=46 velocity=49 time=0
EXTRACT: note_on channel=9 note=70 velocity=35 time=0
EXTRACT: note_off channel=9 note=70 velocity=65 time=0.024
EXTRACT: note_off channel=9 note=46 velocity=64 time=0
EXTRACT: note_off channel=5 note=38 velocity=65 time=0.06
EXTRACT: note_off channel=2 note=50 velocity=64 time=0
EXTRACT: note_on channel=1 note=38 velocity=124 time=0.036000000000000004
EXTRACT: note_on channel=2 note=38 velocity=26 time=0
EXTRACT: note_on channel=5 note=38 velocity=29 time=0
EXTRACT: note_on channel=9 note=35 velocity=126 time=0
EXTRACT: note_on channel=9 note=42 velocity=62 time=0
EXTRACT: note_on channel=9 note=70 velocity=42 time=0
EXTRACT: note_on channel=9 note=85 velocity=12 time=0
EXTRACT: note_off channel=9 note=85 velocity=64 time=0.024
EXTRACT: note_off channel=9 note=70 velocity=65 time=0
EXTRACT: note_off channel=9 note=42 velocity=65 time=0
EXTRACT: note_off channel=9 note=35 velocity=64 time=0
EXTRACT: control_change channel=2 control=6 value=64 time=0.056
EXTRACT: note_off channel=5 note=38 velocity=64 time=0.034
EXTRACT: note_off channel=2 note=38 velocity=65 time=0
EXTRACT: note_off channel=14 note=74 velocity=64 time=0.08
EXTRACT: note_off channel=11 note=86 velocity=64 time=0
EXTRACT: note_off channel=6 note=74 velocity=65 time=0
EXTRACT: note_off channel=1 note=38 velocity=64 time=0.01
EXTRACT: note_on channel=1 note=50 velocity=115 time=0.036000000000000004
EXTRACT: note_on channel=2 note=50 velocity=63 time=0
EXTRACT: note_on channel=5 note=38 velocity=56 time=0
EXTRACT: note_on channel=9 note=44 velocity=51 time=0
EXTRACT: note_on channel=9 note=70 velocity=41 time=0
EXTRACT: note_on channel=6 note=74 velocity=65 time=0.021
EXTRACT: note_on channel=11 note=86 velocity=64 time=0
EXTRACT: note_on channel=14 note=74 velocity=64 time=0
EXTRACT: note_off channel=9 note=70 velocity=64 time=0.003
EXTRACT: note_off channel=9 note=44 velocity=65 time=0
EXTRACT: note_off channel=5 note=38 velocity=64 time=0.01
EXTRACT: note_off channel=2 note=50 velocity=64 time=0
EXTRACT: note_on channel=6 note=77 velocity=80 time=0.062
EXTRACT: note_on channel=11 note=89 velocity=81 time=0
EXTRACT: note_on channel=14 note=77 velocity=81 time=0
EXTRACT: note_off channel=14 note=74 velocity=65 time=0.018000000000000002
EXTRACT: note_off channel=11 note=86 velocity=65 time=0
EXTRACT: note_off channel=6 note=74 velocity=65 time=0
EXTRACT: note_off channel=1 note=50 velocity=65 time=0
EXTRACT: note_on channel=2 note=50 velocity=50 time=0.006
EXTRACT: note_on channel=5 note=38 velocity=42 time=0
EXTRACT: note_on channel=9 note=46 velocity=50 time=0
EXTRACT: note_on channel=9 note=70 velocity=39 time=0
EXTRACT: note_off channel=9 note=70 velocity=65 time=0.024
EXTRACT: note_off channel=9 note=46 velocity=64 time=0
EXTRACT: control_change channel=3 control=11 value=127 time=0.016
EXTRACT: note_on channel=6 note=81 velocity=60 time=0.012
EXTRACT: note_on channel=11 note=93 velocity=60 time=0
EXTRACT: note_on channel=14 note=81 velocity=60 time=0
EXTRACT: note_off channel=5 note=38 velocity=65 time=0.019
EXTRACT: note_off channel=2 note=50 velocity=64 time=0
EXTRACT: note_off channel=14 note=77 velocity=64 time=0.003
EXTRACT: note_off channel=11 note=89 velocity=64 time=0
EXTRACT: note_off channel=6 note=77 velocity=64 time=0
EXTRACT: control_change channel=9 control=91 value=30 time=0.016
EXTRACT: note_on channel=2 note=38 velocity=60 time=0.03
EXTRACT: note_on channel=5 note=38 velocity=65 time=0
EXTRACT: note_on channel=9 note=35 velocity=126 time=0
EXTRACT: note_on channel=9 note=38 velocity=98 time=0
EXTRACT: note_on channel=9 note=52 velocity=65 time=0
EXTRACT: note_on channel=9 note=85 velocity=12 time=0
EXTRACT: note_on channel=6 note=86 velocity=57 time=0.001
EXTRACT: note_on channel=11 note=98 velocity=57 time=0
EXTRACT: note_on channel=14 note=86 velocity=57 time=0
EXTRACT: note_off channel=9 note=85 velocity=64 time=0.023
EXTRACT: note_off channel=9 note=52 velocity=65 time=0
EXTRACT: note_off channel=9 note=38 velocity=64 time=0
EXTRACT: note_off channel=9 note=35 velocity=65 time=0
EXTRACT: note_off channel=14 note=81 velocity=64 time=0
EXTRACT: note_off channel=11 note=93 velocity=64 time=0
EXTRACT: note_off channel=6 note=81 velocity=65 time=0
EXTRACT: note_off channel=13 note=69 velocity=65 time=0.09
EXTRACT: note_off channel=13 note=74 velocity=64 time=0
EXTRACT: note_off channel=13 note=65 velocity=64 time=0
EXTRACT: note_off channel=13 note=62 velocity=65 time=0
EXTRACT: note_off channel=14 note=86 velocity=65 time=0.04
EXTRACT: note_off channel=11 note=98 velocity=65 time=0
EXTRACT: note_off channel=6 note=86 velocity=64 time=0
EXTRACT: note_on channel=6 note=86 velocity=81 time=0.079
EXTRACT: note_on channel=11 note=98 velocity=81 time=0
EXTRACT: note_on channel=14 note=86 velocity=81 time=0
EXTRACT: note_off channel=5 note=38 velocity=65 time=0.001
EXTRACT: note_off channel=2 note=38 velocity=65 time=0
EXTRACT: note_on channel=6 note=81 velocity=76 time=0.062
EXTRACT: note_on channel=11 note=93 velocity=76 time=0
EXTRACT: note_on channel=14 note=81 velocity=76 time=0
EXTRACT: note_off channel=14 note=86 velocity=65 time=0.008
EXTRACT: note_off channel=11 note=98 velocity=65 time=0
EXTRACT: note_off channel=6 note=86 velocity=64 time=0
EXTRACT: note_off channel=14 note=81 velocity=64 time=0.09
EXTRACT: note_off channel=11 note=93 velocity=64 time=0
EXTRACT: note_off channel=6 note=81 velocity=65 time=0
EXTRACT: note_on channel=6 note=77 velocity=74 time=0.003
EXTRACT: note_on channel=11 note=89 velocity=75 time=0
EXTRACT: note_on channel=14 note=77 velocity=75 time=0
EXTRACT: note_off channel=14 note=77 velocity=64 time=0.067
EXTRACT: note_off channel=11 note=89 velocity=64 time=0
EXTRACT: note_off channel=6 note=77 velocity=65 time=0
EXTRACT: note_on channel=1 note=26 velocity=123 time=0
EXTRACT: note_on channel=2 note=38 velocity=125 time=0
EXTRACT: note_on channel=4 note=60 velocity=1 time=0
EXTRACT: note_on channel=4 note=64 velocity=1 time=0
EXTRACT: note_on channel=5 note=38 velocity=113 time=0
EXTRACT: note_on channel=9 note=36 velocity=127 time=0
EXTRACT: note_on channel=9 note=49 velocity=83 time=0
EXTRACT: note_on channel=9 note=70 velocity=106 time=0
EXTRACT: note_on channel=13 note=62 velocity=56 time=0
EXTRACT: note_on channel=13 note=65 velocity=53 time=0
EXTRACT: control_change channel=1 control=6 value=43 time=0
EXTRACT: note_on channel=13 note=74 velocity=47 time=0.002
EXTRACT: note_on channel=13 note=69 velocity=62 time=0.003
EXTRACT: note_on channel=6 note=74 velocity=73 time=0.002
EXTRACT: note_on channel=11 note=86 velocity=78 time=0
EXTRACT: note_on channel=14 note=74 velocity=78 time=0
EXTRACT: note_on channel=3 note=79 velocity=116 time=0
EXTRACT: note_on channel=10 note=65 velocity=99 time=0.003
EXTRACT: note_on channel=10 note=62 velocity=98 time=0
EXTRACT: note_off channel=9 note=70 velocity=65 time=0.004
EXTRACT: note_off channel=9 note=49 velocity=64 time=0
EXTRACT: note_off channel=9 note=36 velocity=65 time=0
EXTRACT: note_off channel=5 note=38 velocity=64 time=0.08700000000000001
EXTRACT: note_off channel=2 note=38 velocity=65 time=0
EXTRACT: note_on channel=2 note=38 velocity=74 time=0.009000000000000001
EXTRACT: note_on channel=5 note=38 velocity=62 time=0
EXTRACT: note_off channel=1 note=26 velocity=65 time=0.084
EXTRACT: note_off channel=5 note=38 velocity=64 time=0.027
EXTRACT: note_off channel=2 note=38 velocity=64 time=0
EXTRACT: note_off channel=4 note=64 velocity=65 time=0
EXTRACT: note_off channel=4 note=60 velocity=64 time=0
EXTRACT: note_on channel=1 note=38 velocity=122 time=0.009000000000000001
EXTRACT: note_on channel=2 note=50 velocity=125 time=0
EXTRACT: note_on channel=4 note=62 velocity=1 time=0
EXTRACT: note_on channel=4 note=65 velocity=1 time=0
EXTRACT: note_on channel=5 note=38 velocity=112 time=0
EXTRACT: note_on channel=9 note=46 velocity=112 time=0
EXTRACT: note_on channel=9 note=70 velocity=107 time=0
EXTRACT: note_on channel=3 note=81 velocity=117 time=0
EXTRACT: note_off channel=3 note=79 velocity=64 time=0.007
EXTRACT: note_off channel=9 note=70 velocity=64 time=0.014
EXTRACT: note_off channel=9 note=46 velocity=64 time=0
EXTRACT: note_off channel=5 note=38 velocity=65 time=0.08700000000000001
EXTRACT: note_off channel=2 note=50 velocity=64 time=0
EXTRACT: note_on channel=2 note=50 velocity=125 time=0.009000000000000001
EXTRACT: note_on channel=5 note=38 velocity=113 time=0
EXTRACT: note_on channel=9 note=70 velocity=86 time=0
EXTRACT: note_off channel=9 note=70 velocity=65 time=0.024
EXTRACT: note_off channel=1 note=38 velocity=64 time=0.075
EXTRACT: note_off channel=5 note=38 velocity=64 time=0.012
EXTRACT: note_off channel=2 note=50 velocity=65 time=0
EXTRACT: note_on channel=9 note=39 velocity=119 time=0.001
EXTRACT: note_on channel=1 note=26 velocity=123 time=0.008
EXTRACT: note_on channel=2 note=38 velocity=124 time=0
EXTRACT: note_on channel=4 note=60 velocity=1 time=0
EXTRACT: note_on channel=4 note=64 velocity=1 time=0
EXTRACT: note_on channel=5 note=38 velocity=113 time=0
EXTRACT: note_on channel=9 note=36 velocity=126 time=0
EXTRACT: note_on channel=9 note=38 velocity=117 time=0
EXTRACT: note_on channel=9 note=42 velocity=118 time=0
EXTRACT: note_on channel=9 note=70 velocity=106 time=0
EXTRACT: note_off channel=4 note=65 velocity=65 time=0.006
EXTRACT: note_off channel=4 note=62 velocity=65 time=0
EXTRACT: note_off channel=3 note=81 velocity=65 time=0.003
EXTRACT: note_off channel=9 note=39 velocity=65 time=0.008
EXTRACT: note_off channel=9 note=70 velocity=64 time=0.007
EXTRACT: note_off channel=9 note=42 velocity=64 time=0
EXTRACT: note_off channel=9 note=38 velocity=65 time=0
EXTRACT: note_off channel=9 note=36 velocity=65 time=0
EXTRACT: note_on channel=3 note=79 velocity=116 time=0
EXTRACT: note_off channel=5 note=38 velocity=65 time=0.083
EXTRACT: note_off channel=2 note=38 velocity=65 time=0
EXTRACT: note_on channel=2 note=38 velocity=75 time=0.009000000000000001
EXTRACT: note_on channel=5 note=38 velocity=62 time=0
EXTRACT: note_off channel=1 note=26 velocity=65 time=0.069
EXTRACT: note_off channel=3 note=79 velocity=64 time=0.038
EXTRACT: note_off channel=5 note=38 velocity=65 time=0.004
EXTRACT: note_off channel=2 note=38 velocity=64 time=0
EXTRACT: note_off channel=4 note=64 velocity=64 time=0
EXTRACT: note_off channel=4 note=60 velocity=65 time=0
EXTRACT: note_on channel=1 note=38 velocity=122 time=0.009000000000000001
EXTRACT: note_on channel=2 note=50 velocity=124 time=0
EXTRACT: note_on channel=4 note=62 velocity=1 time=0
EXTRACT: note_on channel=4 note=65 velocity=1 time=0
EXTRACT: note_on channel=5 note=38 velocity=112 time=0
EXTRACT: note_on channel=9 note=42 velocity=117 time=0
EXTRACT: note_on channel=9 note=70 velocity=107 time=0
EXTRACT: note_on channel=3 note=81 velocity=116 time=0
EXTRACT: note_off channel=9 note=70 velocity=64 time=0.016
EXTRACT: note_off channel=9 note=42 velocity=64 time=0
EXTRACT: note_off channel=5 note=38 velocity=64 time=0.08700000000000001
EXTRACT: note_off channel=2 note=50 velocity=64 time=0
EXTRACT: note_on channel=2 note=50 velocity=124 time=0.009000000000000001
EXTRACT: note_on channel=5 note=38 velocity=113 time=0
EXTRACT: note_on channel=9 note=44 velocity=99 time=0
EXTRACT: note_on channel=9 note=70 velocity=87 time=0
EXTRACT: control_change channel=13 control=6 value=52 time=0
EXTRACT: note_off channel=9 note=70 velocity=65 time=0.024
EXTRACT: note_off channel=9 note=44 velocity=64 time=0
EXTRACT: note_off channel=3 note=81 velocity=64 time=0.032
EXTRACT: note_off channel=1 note=38 velocity=64 time=0.043000000000000003
EXTRACT: pitchwheel channel=3 pitch=-8070 time=0.004
EXTRACT: note_off channel=5 note=38 velocity=65 time=0.008
EXTRACT: note_off channel=2 note=50 velocity=65 time=0
EXTRACT: note_off channel=4 note=65 velocity=64 time=0
EXTRACT: note_off channel=4 note=62 velocity=64 time=0
EXTRACT: note_on channel=1 note=26 velocity=122 time=0.009000000000000001
EXTRACT: note_on channel=2 note=38 velocity=125 time=0
EXTRACT: note_on channel=4 note=62 velocity=1 time=0
EXTRACT: note_on channel=4 note=65 velocity=1 time=0
EXTRACT: note_on channel=5 note=38 velocity=112 time=0
EXTRACT: note_on channel=9 note=36 velocity=127 time=0
EXTRACT: note_on channel=9 note=42 velocity=124 time=0
EXTRACT: note_on channel=9 note=70 velocity=106 time=0
EXTRACT: note_on channel=3 note=81 velocity=117 time=0
EXTRACT: pitchwheel channel=3 pitch=-6150 time=0.02
EXTRACT: note_off channel=9 note=70 velocity=65 time=0.001
EXTRACT: note_off channel=9 note=42 velocity=65 time=0
EXTRACT: note_off channel=9 note=36 velocity=64 time=0
EXTRACT: pitchwheel channel=3 pitch=-4870 time=0.009000000000000001
EXTRACT: pitchwheel channel=3 pitch=-3590 time=0.01
EXTRACT: pitchwheel channel=3 pitch=-2694 time=0.01
EXTRACT: pitchwheel channel=3 pitch=-1286 time=0.01
EXTRACT: pitchwheel channel=3 pitch=250 time=0.02
EXTRACT: note_off channel=5 note=38 velocity=64 time=0.028
EXTRACT: note_off channel=2 note=38 velocity=64 time=0
EXTRACT: note_off channel=6 note=74 velocity=64 time=0.003
EXTRACT: note_on channel=2 note=38 velocity=75 time=0.006
EXTRACT: note_on channel=5 note=38 velocity=63 time=0
EXTRACT: note_off channel=14 note=74 velocity=65 time=0.054
EXTRACT: note_off channel=11 note=86 velocity=65 time=0
EXTRACT: control_change channel=1 control=6 value=45 time=0.036000000000000004
EXTRACT: note_off channel=1 note=26 velocity=64 time=0.009000000000000001
EXTRACT: note_off channel=5 note=38 velocity=64 time=0.012
EXTRACT: note_off channel=2 note=38 velocity=65 time=0
EXTRACT: note_on channel=1 note=38 velocity=123 time=0.009000000000000001
EXTRACT: note_on channel=2 note=50 velocity=124 time=0
EXTRACT: note_on channel=5 note=38 velocity=113 time=0
EXTRACT: note_on channel=9 note=46 velocity=111 time=0
EXTRACT: note_on channel=9 note=70 velocity=106 time=0
EXTRACT: note_on channel=6 note=74 velocity=73 time=0.001
EXTRACT: note_on channel=11 note=86 velocity=76 time=0
EXTRACT: note_on channel=14 note=74 velocity=76 time=0
EXTRACT: note_off channel=9 note=70 velocity=65 time=0.023
EXTRACT: note_off channel=9 note=46 velocity=64 time=0
EXTRACT: note_on channel=6 note=77 velocity=82 time=0.052000000000000005
EXTRACT: note_on channel=11 note=89 velocity=89 time=0
EXTRACT: note_on channel=14 note=77 velocity=89 time=0
EXTRACT: note_off channel=14 note=74 velocity=65 time=0.018000000000000002
EXTRACT: note_off channel=11 note=86 velocity=65 time=0
EXTRACT: note_off channel=6 note=74 velocity=64 time=0
EXTRACT: note_off channel=5 note=38 velocity=65 time=0.017
EXTRACT: note_off channel=2 note=50 velocity=65 time=0
EXTRACT: note_on channel=2 note=50 velocity=124 time=0.009000000000000001
EXTRACT: note_on channel=5 note=38 velocity=112 time=0
EXTRACT: note_on channel=9 note=70 velocity=87 time=0
EXTRACT: note_off channel=9 note=70 velocity=64 time=0.024
EXTRACT: note_on channel=6 note=81 velocity=62 time=0.008
EXTRACT: note_on channel=11 note=93 velocity=79 time=0
EXTRACT: note_on channel=14 note=81 velocity=79 time=0
EXTRACT: note_off channel=3 note=81 velocity=65 time=0.017
EXTRACT: note_off channel=14 note=77 velocity=64 time=0.005
EXTRACT: note_off channel=11 note=89 velocity=64 time=0
EXTRACT: note_off channel=6 note=77 velocity=65 time=0
EXTRACT: note_off channel=1 note=38 velocity=65 time=0.03
EXTRACT: note_on channel=6 note=86 velocity=73 time=0.017
EXTRACT: note_on channel=11 note=98 velocity=82 time=0
EXTRACT: note_on channel=14 note=86 velocity=82 time=0
EXTRACT: note_on channel=3 note=79 velocity=117 time=0
EXTRACT: note_off channel=5 note=38 velocity=65 time=0
EXTRACT: note_off channel=2 note=50 velocity=64 time=0
EXTRACT: note_off channel=4 note=65 velocity=65 time=0
EXTRACT: note_off channel=4 note=62 velocity=65 time=0
EXTRACT: note_on channel=9 note=39 velocity=118 time=0.001
EXTRACT: note_on channel=1 note=26 velocity=123 time=0.008
EXTRACT: note_on channel=2 note=38 velocity=125 time=0
EXTRACT: note_on channel=4 note=60 velocity=1 time=0
EXTRACT: note_on channel=4 note=64 velocity=1 time=0
EXTRACT: note_on channel=5 note=38 velocity=113 time=0
EXTRACT: note_on channel=9 note=36 velocity=127 time=0
EXTRACT: note_on channel=9 note=38 velocity=117 time=0
EXTRACT: note_on channel=9 note=42 velocity=99 time=0
EXTRACT: note_on channel=9 note=70 velocity=107 time=0
EXTRACT: note_off channel=14 note=81 velocity=64 time=0.004
EXTRACT: note_off channel=11 note=93 velocity=64 time=0
EXTRACT: note_off channel=6 note=81 velocity=65 time=0
EXTRACT: note_off channel=9 note=39 velocity=65 time=0.013000000000000001
EXTRACT: note_off channel=9 note=70 velocity=65 time=0.007
EXTRACT: note_off channel=9 note=42 velocity=64 time=0
EXTRACT: note_off channel=9 note=38 velocity=64 time=0
EXTRACT: note_off channel=9 note=36 velocity=65 time=0
EXTRACT: note_off channel=5 note=38 velocity=64 time=0.08700000000000001
EXTRACT: note_off channel=2 note=38 velocity=65 time=0
EXTRACT: note_on channel=2 note=38 velocity=75 time=0.009000000000000001
EXTRACT: note_on channel=5 note=38 velocity=62 time=0
EXTRACT: note_off channel=1 note=26 velocity=65 time=0.084
EXTRACT: note_off channel=3 note=79 velocity=65 time=0.002
EXTRACT: note_on channel=6 note=81 velocity=74 time=0.02
EXTRACT: note_on channel=11 note=93 velocity=76 time=0
EXTRACT: note_on channel=14 note=81 velocity=76 time=0
EXTRACT: note_on channel=3 note=77 velocity=116 time=0
EXTRACT: note_off channel=5 note=38 velocity=64 time=0.003
EXTRACT: note_off channel=2 note=38 velocity=64 time=0
EXTRACT: note_off channel=4 note=64 velocity=64 time=0
EXTRACT: note_off channel=4 note=60 velocity=64 time=0
EXTRACT: note_on channel=1 note=38 velocity=122 time=0.009000000000000001
EXTRACT: note_on channel=2 note=50 velocity=124 time=0
EXTRACT: note_on channel=4 note=57 velocity=1 time=0
EXTRACT: note_on channel=4 note=62 velocity=1 time=0
EXTRACT: note_on channel=5 note=38 velocity=112 time=0
EXTRACT: note_on channel=9 note=42 velocity=115 time=0
EXTRACT: note_on channel=9 note=70 velocity=106 time=0
EXTRACT: note_off channel=14 note=86 velocity=65 time=0.004
EXTRACT: note_off channel=11 note=98 velocity=65 time=0
EXTRACT: note_off channel=6 note=86 velocity=64 time=0
EXTRACT: note_off channel=9 note=70 velocity=65 time=0.02
EXTRACT: note_off channel=9 note=42 velocity=64 time=0
EXTRACT: note_off channel=5 note=38 velocity=65 time=0.08700000000000001
EXTRACT: note_off channel=2 note=50 velocity=64 time=0
EXTRACT: note_off channel=14 note=81 velocity=64 time=0.003
EXTRACT: note_off channel=11 note=93 velocity=64 time=0
EXTRACT: note_off channel=6 note=81 velocity=64 time=0
EXTRACT: note_on channel=6 note=77 velocity=73 time=0.003
EXTRACT: note_on channel=11 note=89 velocity=81 time=0
EXTRACT: note_on channel=14 note=77 velocity=81 time=0
EXTRACT: note_on channel=2 note=50 velocity=124 time=0.003
EXTRACT: note_on channel=5 note=38 velocity=113 time=0
EXTRACT: note_on channel=9 note=44 velocity=98 time=0
EXTRACT: note_on channel=9 note=70 velocity=86 time=0
EXTRACT: note_off channel=9 note=70 velocity=64 time=0.024
EXTRACT: note_off channel=9 note=44 velocity=65 time=0
EXTRACT: note_off channel=3 note=77 velocity=64 time=0.025
EXTRACT: note_off channel=1 note=38 velocity=64 time=0.035
EXTRACT: note_on channel=3 note=79 velocity=116 time=0
EXTRACT: note_off channel=5 note=38 velocity=65 time=0.001
EXTRACT: note_off channel=2 note=50 velocity=65 time=0
EXTRACT: note_off channel=4 note=62 velocity=65 time=0
EXTRACT: note_off channel=4 note=57 velocity=65 time=0
EXTRACT: note_on channel=6 note=74 velocity=79 time=0.006
EXTRACT: note_on channel=11 note=86 velocity=85 time=0
EXTRACT: note_on channel=14 note=74 velocity=85 time=0
EXTRACT: note_on channel=1 note=26 velocity=122 time=0.003
EXTRACT: note_on channel=2 note=38 velocity=125 time=0
EXTRACT: note_on channel=4 note=60 velocity=1 time=0
EXTRACT: note_on channel=4 note=64 velocity=1 time=0
EXTRACT: note_on channel=5 note=38 velocity=113 time=0
EXTRACT: note_on channel=9 note=36 velocity=126 time=0
EXTRACT: note_on channel=9 note=42 velocity=122 time=0
EXTRACT: note_on channel=9 note=70 velocity=107 time=0
EXTRACT: note_off channel=14 note=77 velocity=65 time=0.014
EXTRACT: note_off channel=11 note=89 velocity=65 time=0
EXTRACT: note_off channel=6 note=77 velocity=65 time=0
EXTRACT: note_off channel=9 note=70 velocity=64 time=0.01
EXTRACT: note_off channel=9 note=42 velocity=65 time=0
EXTRACT: note_off channel=9 note=36 velocity=65 time=0
EXTRACT: control_change channel=13 control=6 value=54 time=0.056
EXTRACT: note_off channel=5 note=38 velocity=64 time=0.031
EXTRACT: note_off channel=2 note=38 velocity=65 time=0
EXTRACT: note_on channel=6 note=76 velocity=78 time=0.005
EXTRACT: note_on channel=11 note=88 velocity=84 time=0
EXTRACT: note_on channel=14 note=76 velocity=84 time=0
EXTRACT: note_on channel=2 note=38 velocity=74 time=0.004
EXTRACT: note_on channel=5 note=38 velocity=62 time=0
EXTRACT: note_off channel=14 note=74 velocity=65 time=0.004
EXTRACT: note_off channel=11 note=86 velocity=65 time=0
EXTRACT: note_off channel=6 note=74 velocity=64 time=0
EXTRACT: note_off channel=10 note=62 velocity=65 time=0.01
EXTRACT: note_off channel=3 note=79 velocity=64 time=0.061
EXTRACT: note_off channel=1 note=26 velocity=64 time=0.009000000000000001
EXTRACT: note_off channel=5 note=38 velocity=64 time=0.027
EXTRACT: note_off channel=2 note=38 velocity=64 time=0
EXTRACT: note_off channel=4 note=64 velocity=64 time=0
EXTRACT: note_off channel=4 note=60 velocity=64 time=0
EXTRACT: note_off channel=13 note=69 velocity=64 time=0.003
EXTRACT: note_off channel=13 note=74 velocity=65 time=0
EXTRACT: note_off channel=13 note=65 velocity=65 time=0
EXTRACT: note_off channel=13 note=62 velocity=64 time=0
EXTRACT: note_on channel=6 note=77 velocity=75 time=0.004
EXTRACT: note_on channel=11 note=89 velocity=92 time=0
EXTRACT: note_on channel=14 note=77 velocity=92 time=0
EXTRACT: note_on channel=1 note=28 velocity=123 time=0
EXTRACT: note_on channel=2 note=52 velocity=125 time=0
EXTRACT: note_on channel=3 note=81 velocity=117 time=0
EXTRACT: note_on channel=4 note=60 velocity=1 time=0
EXTRACT: note_on channel=4 note=65 velocity=1 time=0
EXTRACT: note_on channel=5 note=40 velocity=112 time=0
EXTRACT: note_on channel=9 note=46 velocity=104 time=0
EXTRACT: note_on channel=9 note=70 velocity=106 time=0
EXTRACT: note_on channel=13 note=64 velocity=81 time=0
EXTRACT: note_off channel=14 note=76 velocity=64 time=0.005
EXTRACT: note_off channel=11 note=88 velocity=64 time=0
EXTRACT: note_off channel=6 note=76 velocity=65 time=0
EXTRACT: note_on channel=13 note=67 velocity=64 time=0.007
EXTRACT: note_off channel=10 note=65 velocity=64 time=0.002
EXTRACT: note_on channel=10 note=67 velocity=79 time=0.006
EXTRACT: note_on channel=10 note=64 velocity=90 time=0
EXTRACT: note_on channel=13 note=71 velocity=62 time=0
EXTRACT: note_off channel=9 note=70 velocity=64 time=0.004
EXTRACT: note_off channel=9 note=46 velocity=65 time=0
EXTRACT: note_off channel=5 note=40 velocity=65 time=0.08700000000000001
EXTRACT: note_off channel=2 note=52 velocity=64 time=0
EXTRACT: note_on channel=2 note=52 velocity=125 time=0.009000000000000001
EXTRACT: note_on channel=5 note=40 velocity=113 time=0
EXTRACT: note_on channel=9 note=70 velocity=87 time=0
EXTRACT: note_on channel=6 note=79 velocity=74 time=0.001
EXTRACT: note_on channel=11 note=91 velocity=83 time=0
EXTRACT: note_on channel=14 note=79 velocity=83 time=0
EXTRACT: note_off channel=14 note=77 velocity=65 time=0.013000000000000001
EXTRACT: note_off channel=11 note=89 velocity=65 time=0
EXTRACT: note_off channel=6 note=77 velocity=65 time=0
EXTRACT: note_off channel=9 note=70 velocity=64 time=0.01
EXTRACT: control_change channel=1 control=6 value=47 time=0.021
EXTRACT: note_off channel=1 note=28 velocity=65 time=0.024
EXTRACT: note_off channel=13 note=64 velocity=65 time=0.006
EXTRACT: note_on channel=6 note=81 velocity=76 time=0.022
EXTRACT: note_on channel=11 note=93 velocity=86 time=0
EXTRACT: note_on channel=14 note=81 velocity=86 time=0
EXTRACT: note_off channel=5 note=40 velocity=64 time=0.014
EXTRACT: note_off channel=2 note=52 velocity=65 time=0
EXTRACT: note_on channel=9 note=39 velocity=119 time=0.001
EXTRACT: note_off channel=13 note=71 velocity=64 time=0.002
EXTRACT: note_off channel=13 note=67 velocity=64 time=0
EXTRACT: note_on channel=1 note=29 velocity=123 time=0.006
EXTRACT: note_on channel=2 note=41 velocity=124 time=0
EXTRACT: note_on channel=5 note=41 velocity=113 time=0
EXTRACT: note_on channel=9 note=36 velocity=127 time=0
EXTRACT: note_on channel=9 note=38 velocity=116 time=0
EXTRACT: note_on channel=9 note=42 velocity=111 time=0
EXTRACT: note_on channel=9 note=70 velocity=107 time=0
EXTRACT: note_on channel=13 note=65 velocity=89 time=0
EXTRACT: note_off channel=14 note=79 velocity=64 time=0.002
EXTRACT: note_off channel=11 note=91 velocity=64 time=0
EXTRACT: note_off channel=6 note=79 velocity=64 time=0
EXTRACT: note_off channel=10 note=67 velocity=65 time=0.012
EXTRACT: note_off channel=10 note=64 velocity=64 time=0.002
EXTRACT: note_on channel=13 note=69 velocity=35 time=0.001
EXTRACT: note_on channel=13 note=72 velocity=80 time=0
EXTRACT: note_off channel=9 note=39 velocity=64 time=0
EXTRACT: note_on channel=10 note=69 velocity=86 time=0.003
EXTRACT: note_on channel=10 note=65 velocity=105 time=0
EXTRACT: note_off channel=9 note=70 velocity=65 time=0.004
EXTRACT: note_off channel=9 note=42 velocity=65 time=0
EXTRACT: note_off channel=9 note=38 velocity=64 time=0
EXTRACT: note_off channel=9 note=36 velocity=64 time=0
EXTRACT: note_off channel=3 note=81 velocity=65 time=0.05
EXTRACT: note_off channel=5 note=41 velocity=65 time=0.037
EXTRACT: note_off channel=2 note=41 velocity=65 time=0
EXTRACT: note_on channel=2 note=41 velocity=75 time=0.009000000000000001
EXTRACT: note_on channel=5 note=41 velocity=62 time=0
EXTRACT: note_off channel=1 note=29 velocity=65 time=0.084
EXTRACT: note_off channel=5 note=41 velocity=65 time=0.027
EXTRACT: note_off channel=2 note=41 velocity=64 time=0
EXTRACT: note_off channel=4 note=65 velocity=65 time=0
EXTRACT: note_off channel=4 note=60 velocity=64 time=0
EXTRACT: note_on channel=1 note=41 velocity=122 time=0.009000000000000001
EXTRACT: note_on channel=2 note=53 velocity=124 time=0
EXTRACT: note_on channel=4 note=60 velocity=1 time=0
EXTRACT: note_on channel=4 note=65 velocity=1 time=0
EXTRACT: note_on channel=5 note=41 velocity=112 time=0
EXTRACT: note_on channel=9 note=42 velocity=124 time=0
EXTRACT: note_on channel=9 note=70 velocity=106 time=0
EXTRACT: note_on channel=3 note=81 velocity=117 time=0
EXTRACT: note_off channel=9 note=70 velocity=65 time=0.009000000000000001
EXTRACT: note_off channel=9 note=42 velocity=65 time=0
EXTRACT: note_off channel=5 note=41 velocity=64 time=0.036000000000000004
EXTRACT: note_off channel=2 note=53 velocity=64 time=0
EXTRACT: note_on channel=2 note=53 velocity=124 time=0.009000000000000001
EXTRACT: note_on channel=5 note=41 velocity=113 time=0
EXTRACT: note_on channel=9 note=44 velocity=98 time=0
EXTRACT: note_on channel=9 note=70 velocity=87 time=0
EXTRACT: note_off channel=9 note=70 velocity=64 time=0.024
EXTRACT: note_off channel=9 note=44 velocity=64 time=0
EXTRACT: note_off channel=1 note=41 velocity=64 time=0.06
EXTRACT: note_off channel=5 note=41 velocity=65 time=0.027
EXTRACT: note_off channel=2 note=53 velocity=65 time=0
EXTRACT: note_on channel=1 note=29 velocity=122 time=0.009000000000000001
EXTRACT: note_on channel=2 note=41 velocity=125 time=0
EXTRACT: note_on channel=5 note=41 velocity=112 time=0
EXTRACT: note_on channel=9 note=36 velocity=126 time=0
EXTRACT: note_on channel=9 note=42 velocity=124 time=0
EXTRACT: note_on channel=9 note=70 velocity=106 time=0
EXTRACT: note_off channel=9 note=70 velocity=65 time=0.024
EXTRACT: note_off channel=9 note=42 velocity=64 time=0
EXTRACT: note_off channel=9 note=36 velocity=65 time=0
EXTRACT: note_off channel=5 note=41 velocity=64 time=0.08700000000000001
EXTRACT: note_off channel=2 note=41 velocity=64 time=0
EXTRACT: note_on channel=2 note=41 velocity=75 time=0.009000000000000001
EXTRACT: note_on channel=5 note=41 velocity=63 time=0
EXTRACT: note_off channel=3 note=81 velocity=65 time=0.014
EXTRACT: note_off channel=14 note=81 velocity=64 time=0.06
EXTRACT: note_off channel=11 note=93 velocity=64 time=0
EXTRACT: note_off channel=6 note=81 velocity=65 time=0
EXTRACT: note_off channel=1 note=29 velocity=64 time=0.01
EXTRACT: note_off channel=5 note=41 velocity=64 time=0.027
EXTRACT: note_off channel=2 note=41 velocity=65 time=0
EXTRACT: note_off channel=4 note=65 velocity=65 time=0
EXTRACT: note_on channel=1 note=41 velocity=123 time=0.009000000000000001
EXTRACT: note_on channel=2 note=53 velocity=124 time=0
EXTRACT: note_on channel=4 note=57 velocity=1 time=0
EXTRACT: note_on channel=5 note=41 velocity=113 time=0
EXTRACT: note_on channel=9 note=46 velocity=111 time=0
EXTRACT: note_on channel=9 note=70 velocity=106 time=0
EXTRACT: control_change channel=2 control=6 value=59 time=0
EXTRACT: note_on channel=3 note=72 velocity=116 time=0
EXTRACT: note_on channel=6 note=77 velocity=75 time=0.015
EXTRACT: note_on channel=11 note=89 velocity=83 time=0
EXTRACT: note_on channel=14 note=77 velocity=83 time=0
EXTRACT: note_off channel=9 note=70 velocity=65 time=0.003
EXTRACT: note_off channel=9 note=46 velocity=64 time=0
EXTRACT: note_on channel=6 note=81 velocity=55 time=0.059000000000000004
EXTRACT: note_on channel=11 note=93 velocity=77 time=0
EXTRACT: note_on channel=14 note=81 velocity=77 time=0
EXTRACT: note_off channel=5 note=41 velocity=65 time=0.016
EXTRACT: note_off channel=2 note=53 velocity=65 time=0
EXTRACT: note_on channel=2 note=53 velocity=124 time=0.009000000000000001
EXTRACT: note_on channel=5 note=41 velocity=112 time=0
EXTRACT: note_on channel=9 note=70 velocity=87 time=0
EXTRACT: note_off channel=9 note=70 velocity=65 time=0.024
EXTRACT: note_off channel=14 note=77 velocity=65 time=0.01
EXTRACT: note_off channel=11 note=89 velocity=65 time=0
EXTRACT: note_off channel=6 note=77 velocity=64 time=0
EXTRACT: note_on channel=6 note=84 velocity=80 time=0.012
EXTRACT: note_on channel=11 note=96 velocity=84 time=0
EXTRACT: note_on channel=14 note=84 velocity=84 time=0
EXTRACT: note_off channel=14 note=81 velocity=65 time=0.018000000000000002
EXTRACT: note_off channel=11 note=93 velocity=65 time=0
EXTRACT: note_off channel=6 note=81 velocity=64 time=0
EXTRACT: note_off channel=3 note=72 velocity=64 time=0.01
EXTRACT: note_off channel=1 note=41 velocity=65 time=0.01
EXTRACT: note_on channel=6 note=89 velocity=78 time=0.019
EXTRACT: note_on channel=11 note=101 velocity=85 time=0
EXTRACT: note_on channel=14 note=89 velocity=85 time=0
EXTRACT: note_off channel=5 note=41 velocity=65 time=0.008
EXTRACT: note_off channel=2 note=53 velocity=64 time=0
EXTRACT: note_off channel=4 note=57 velocity=65 time=0
EXTRACT: note_on channel=9 note=39 velocity=119 time=0.001
EXTRACT: note_off channel=4 note=60 velocity=64 time=0.002
EXTRACT: note_on channel=1 note=29 velocity=122 time=0.006
EXTRACT: note_on channel=2 note=41 velocity=125 time=0
EXTRACT: note_on channel=4 note=60 velocity=1 time=0
EXTRACT: note_on channel=4 note=65 velocity=1 time=0
EXTRACT: note_on channel=5 note=41 velocity=113 time=0
EXTRACT: note_on channel=9 note=36 velocity=126 time=0
EXTRACT: note_on channel=9 note=38 velocity=116 time=0
EXTRACT: note_on channel=9 note=42 velocity=113 time=0
EXTRACT: note_on channel=9 note=70 velocity=107 time=0
EXTRACT: note_on channel=3 note=81 velocity=116 time=0
EXTRACT: note_off channel=14 note=84 velocity=64 time=0.012
EXTRACT: note_off channel=11 note=96 velocity=64 time=0
EXTRACT: note_off channel=6 note=84 velocity=65 time=0
EXTRACT: note_off channel=9 note=39 velocity=64 time=0.003
EXTRACT: note_off channel=9 note=70 velocity=64 time=0.007
EXTRACT: note_off channel=9 note=42 velocity=65 time=0
EXTRACT: note_off channel=9 note=38 velocity=65 time=0
EXTRACT: note_off channel=9 note=36 velocity=64 time=0
EXTRACT: control_change channel=13 control=6 value=56 time=0.016
EXTRACT: note_off channel=5 note=41 velocity=64 time=0.07100000000000001
EXTRACT: note_off channel=2 note=41 velocity=65 time=0
EXTRACT: note_on channel=2 note=41 velocity=75 time=0.009000000000000001
EXTRACT: note_on channel=5 note=41 velocity=62 time=0
EXTRACT: control_change channel=1 control=6 value=50 time=0.075
EXTRACT: note_off channel=1 note=29 velocity=64 time=0.009000000000000001
EXTRACT: note_off channel=3 note=81 velocity=64 time=0.01
EXTRACT: note_off channel=14 note=89 velocity=64 time=0
EXTRACT: note_off channel=11 note=101 velocity=64 time=0
EXTRACT: note_off channel=6 note=89 velocity=65 time=0
EXTRACT: note_on channel=6 note=88 velocity=75 time=0.016
EXTRACT: note_on channel=11 note=100 velocity=80 time=0
EXTRACT: note_on channel=14 note=88 velocity=80 time=0
EXTRACT: note_off channel=5 note=41 velocity=64 time=0.001
EXTRACT: note_off channel=2 note=41 velocity=64 time=0
EXTRACT: note_off channel=4 note=65 velocity=65 time=0
EXTRACT: note_off channel=4 note=60 velocity=64 time=0
EXTRACT: note_on channel=1 note=31 velocity=123 time=0.009000000000000001
EXTRACT: note_on channel=2 note=55 velocity=124 time=0
EXTRACT: note_on channel=4 note=60 velocity=1 time=0
EXTRACT: note_on channel=4 note=64 velocity=1 time=0
EXTRACT: note_on channel=5 note=43 velocity=112 time=0
EXTRACT: note_on channel=9 note=42 velocity=109 time=0
EXTRACT: note_on channel=9 note=70 velocity=106 time=0
EXTRACT: note_on channel=13 note=67 velocity=80 time=0
EXTRACT: note_on channel=13 note=71 velocity=65 time=0
EXTRACT: note_off channel=13 note=72 velocity=65 time=0.011
EXTRACT: note_off channel=13 note=69 velocity=65 time=0
EXTRACT: note_off channel=13 note=65 velocity=64 time=0
EXTRACT: note_off channel=10 note=65 velocity=64 time=0.003
EXTRACT: note_off channel=10 note=69 velocity=65 time=0
EXTRACT: note_on channel=10 note=67 velocity=87 time=0.006
EXTRACT: note_on channel=10 note=71 velocity=86 time=0
EXTRACT: note_on channel=13 note=74 velocity=63 time=0
EXTRACT: note_off channel=9 note=70 velocity=64 time=0.004
EXTRACT: note_off channel=9 note=42 velocity=65 time=0
EXTRACT: note_on channel=3 note=79 velocity=117 time=0
EXTRACT: note_off channel=5 note=43 velocity=65 time=0.046
EXTRACT: note_off channel=2 note=55 velocity=64 time=0
EXTRACT: note_on channel=2 note=55 velocity=124 time=0.009000000000000001
EXTRACT: note_on channel=5 note=43 velocity=113 time=0
EXTRACT: note_on channel=9 note=44 velocity=99 time=0
EXTRACT: note_on channel=9 note=70 velocity=86 time=0
EXTRACT: note_off channel=14 note=88 velocity=65 time=0.004
EXTRACT: note_off channel=11 note=100 velocity=65 time=0
EXTRACT: note_off channel=6 note=88 velocity=64 time=0
EXTRACT: note_on channel=6 note=84 velocity=73 time=0.003
EXTRACT: note_on channel=11 note=96 velocity=78 time=0
EXTRACT: note_on channel=14 note=84 velocity=78 time=0
EXTRACT: note_off channel=9 note=70 velocity=65 time=0.017
EXTRACT: note_off channel=9 note=44 velocity=64 time=0
EXTRACT: note_off channel=1 note=31 velocity=65 time=0.06
EXTRACT: control_change channel=9 control=91 value=20 time=0.006
EXTRACT: note_off channel=5 note=43 velocity=65 time=0.021
EXTRACT: note_off channel=2 note=55 velocity=65 time=0
EXTRACT: note_off channel=13 note=74 velocity=64 time=0.003
EXTRACT: note_off channel=13 note=71 velocity=65 time=0
EXTRACT: note_off channel=13 note=67 velocity=65 time=0
EXTRACT: note_on channel=1 note=33 velocity=123 time=0.006
EXTRACT: note_on channel=2 note=45 velocity=125 time=0
EXTRACT: note_on channel=5 note=45 velocity=113 time=0
EXTRACT: note_on channel=9 note=36 velocity=127 time=0
EXTRACT: note_on channel=9 note=42 velocity=124 time=0
EXTRACT: note_on channel=9 note=70 velocity=107 time=0
EXTRACT: note_on channel=13 note=69 velocity=56 time=0
EXTRACT: note_on channel=6 note=81 velocity=78 time=0.007
EXTRACT: note_on channel=11 note=93 velocity=85 time=0
EXTRACT: note_on channel=14 note=81 velocity=85 time=0
EXTRACT: note_on channel=13 note=76 velocity=68 time=0.002
EXTRACT: note_on channel=13 note=72 velocity=61 time=0.003
EXTRACT: note_off channel=14 note=84 velocity=65 time=0.001
EXTRACT: note_off channel=11 note=96 velocity=65 time=0
EXTRACT: note_off channel=6 note=84 velocity=64 time=0
EXTRACT: note_off channel=10 note=71 velocity=65 time=0.001
EXTRACT: note_off channel=10 note=67 velocity=64 time=0
EXTRACT: note_on channel=10 note=69 velocity=92 time=0.006
EXTRACT: note_on channel=10 note=72 velocity=103 time=0
EXTRACT: note_off channel=9 note=70 velocity=64 time=0.004
EXTRACT: note_off channel=9 note=42 velocity=65 time=0
EXTRACT: note_off channel=9 note=36 velocity=64 time=0
EXTRACT: note_off channel=5 note=45 velocity=64 time=0.08700000000000001
EXTRACT: note_off channel=2 note=45 velocity=65 time=0
EXTRACT: note_on channel=2 note=45 velocity=74 time=0.009000000000000001
EXTRACT: note_on channel=5 note=45 velocity=62 time=0
EXTRACT: note_off channel=3 note=79 velocity=65 time=0.006
EXTRACT: note_off channel=1 note=33 velocity=65 time=0.093
EXTRACT: note_off channel=5 note=45 velocity=64 time=0.012
EXTRACT: note_off channel=2 note=45 velocity=64 time=0
EXTRACT: note_on channel=1 note=45 velocity=122 time=0.009000000000000001
EXTRACT: note_on channel=2 note=57 velocity=125 time=0
EXTRACT: note_on channel=5 note=45 velocity=112 time=0
EXTRACT: note_on channel=9 note=46 velocity=111 time=0
EXTRACT: note_on channel=9 note=70 velocity=107 time=0
EXTRACT: note_off channel=9 note=70 velocity=65 time=0.024
EXTRACT: note_off channel=9 note=46 velocity=65 time=0
EXTRACT: note_off channel=5 note=45 velocity=65 time=0.08700000000000001
EXTRACT: note_off channel=2 note=57 velocity=64 time=0
EXTRACT: note_on channel=2 note=57 velocity=125 time=0.009000000000000001
EXTRACT: note_on channel=5 note=45 velocity=113 time=0
EXTRACT: note_on channel=9 note=70 velocity=86 time=0
EXTRACT: note_off channel=9 note=70 velocity=64 time=0.024
EXTRACT: note_off channel=1 note=45 velocity=64 time=0.06
EXTRACT: note_off channel=5 note=45 velocity=64 time=0.027
EXTRACT: note_off channel=2 note=57 velocity=65 time=0
EXTRACT: note_on channel=9 note=39 velocity=118 time=0.001
EXTRACT: note_on channel=1 note=33 velocity=123 time=0.008
EXTRACT: note_on channel=2 note=45 velocity=124 time=0
EXTRACT: note_on channel=5 note=45 velocity=113 time=0
EXTRACT: note_on channel=9 note=36 velocity=127 time=0
EXTRACT: note_on channel=9 note=38 velocity=117 time=0
EXTRACT: note_on channel=9 note=42 velocity=122 time=0
EXTRACT: note_on channel=9 note=70 velocity=106 time=0
EXTRACT: note_off channel=9 note=39 velocity=65 time=0.017
EXTRACT: note_off channel=9 note=70 velocity=64 time=0.007
EXTRACT: note_off channel=9 note=42 velocity=64 time=0
EXTRACT: note_off channel=9 note=38 velocity=65 time=0
EXTRACT: note_off channel=9 note=36 velocity=65 time=0
EXTRACT: note_off channel=5 note=45 velocity=65 time=0.08700000000000001
EXTRACT: note_off channel=2 note=45 velocity=65 time=0
EXTRACT: note_on channel=2 note=45 velocity=75 time=0.009000000000000001
EXTRACT: note_on channel=5 note=45 velocity=62 time=0
EXTRACT: note_off channel=1 note=33 velocity=65 time=0.099
EXTRACT: note_off channel=5 note=45 velocity=65 time=0.012
EXTRACT: note_off channel=2 note=45 velocity=64 time=0
EXTRACT: note_on channel=1 note=45 velocity=122 time=0.009000000000000001
EXTRACT: note_on channel=2 note=57 velocity=124 time=0
EXTRACT: note_on channel=5 note=45 velocity=112 time=0
EXTRACT: note_on channel=9 note=42 velocity=117 time=0
EXTRACT: note_on channel=9 note=70 velocity=107 time=0
EXTRACT: note_off channel=9 note=70 velocity=64 time=0.024
EXTRACT: note_off channel=9 note=42 velocity=64 time=0
EXTRACT: control_change channel=13 control=6 value=58 time=0.056
EXTRACT: note_off channel=5 note=45 velocity=64 time=0.031
EXTRACT: note_off channel=2 note=57 velocity=64 time=0
EXTRACT: note_on channel=2 note=57 velocity=124 time=0.009000000000000001
EXTRACT: note_on channel=5 note=45 velocity=113 time=0
EXTRACT: note_on channel=9 note=44 velocity=98 time=0
EXTRACT: note_on channel=9 note=70 velocity=86 time=0
EXTRACT: note_off channel=9 note=70 velocity=65 time=0.024
EXTRACT: note_off channel=9 note=44 velocity=65 time=0
EXTRACT: note_off channel=1 note=45 velocity=64 time=0.06
EXTRACT: note_off channel=5 note=45 velocity=65 time=0.027
EXTRACT: note_off channel=2 note=57 velocity=65 time=0
EXTRACT: note_on channel=1 note=33 velocity=122 time=0.009000000000000001
EXTRACT: note_on channel=2 note=45 velocity=125 time=0
EXTRACT: note_on channel=5 note=45 velocity=112 time=0
EXTRACT: note_on channel=9 note=36 velocity=126 time=0
EXTRACT: note_on channel=9 note=42 velocity=125 time=0
EXTRACT: note_on channel=9 note=70 velocity=107 time=0
EXTRACT: note_off channel=9 note=70 velocity=64 time=0.024
EXTRACT: note_off channel=9 note=42 velocity=64 time=0
EXTRACT: note_off channel=9 note=36 velocity=65 time=0
EXTRACT: control_change channel=1 control=6 value=52 time=0.066
EXTRACT: note_off channel=14 note=81 velocity=64 time=0.002
EXTRACT: note_off channel=11 note=93 velocity=64 time=0
EXTRACT: note_off channel=6 note=81 velocity=65 time=0
EXTRACT: note_off channel=5 note=45 velocity=64 time=0.019
EXTRACT: note_off channel=2 note=45 velocity=64 time=0
EXTRACT: note_off channel=4 note=64 velocity=64 time=0.003
EXTRACT: note_off channel=4 note=60 velocity=65 time=0
EXTRACT: note_on channel=2 note=45 velocity=75 time=0.006
EXTRACT: note_on channel=5 note=45 velocity=63 time=0
EXTRACT: note_off channel=1 note=33 velocity=64 time=0.084
EXTRACT: note_off channel=5 note=45 velocity=64 time=0.027
EXTRACT: note_off channel=2 note=45 velocity=65 time=0
EXTRACT: note_on channel=1 note=45 velocity=123 time=0.009000000000000001
EXTRACT: note_on channel=2 note=57 velocity=124 time=0
EXTRACT: note_on channel=4 note=57 velocity=1 time=0
EXTRACT: note_on channel=4 note=60 velocity=1 time=0
EXTRACT: note_on channel=5 note=45 velocity=113 time=0
EXTRACT: note_on channel=9 note=46 velocity=106 time=0
EXTRACT: note_on channel=9 note=70 velocity=107 time=0
EXTRACT: note_on channel=3 note=77 velocity=116 time=0
EXTRACT: note_off channel=9 note=70 velocity=64 time=0.02
EXTRACT: note_off channel=9 note=46 velocity=65 time=0
EXTRACT: note_on channel=6 note=76 velocity=72 time=0.014
EXTRACT: note_on channel=11 note=88 velocity=89 time=0
EXTRACT: note_on channel=14 note=76 velocity=89 time=0
EXTRACT: note_off channel=5 note=45 velocity=65 time=0.063
EXTRACT: note_off channel=2 note=57 velocity=65 time=0
EXTRACT: note_on channel=6 note=81 velocity=69 time=0.005
EXTRACT: note_on channel=11 note=93 velocity=80 time=0
EXTRACT: note_on channel=14 note=81 velocity=80 time=0
EXTRACT: note_on channel=2 note=57 velocity=124 time=0.004
EXTRACT: note_on channel=5 note=45 velocity=112 time=0
EXTRACT: note_on channel=9 note=70 velocity=86 time=0
EXTRACT: note_off channel=3 note=77 velocity=64 time=0.018000000000000002
EXTRACT: note_off channel=9 note=70 velocity=65 time=0.006
EXTRACT: note_on channel=6 note=84 velocity=68 time=0.031
EXTRACT: note_on channel=11 note=96 velocity=82 time=0
EXTRACT: note_on channel=14 note=84 velocity=82 time=0
EXTRACT: note_off channel=14 note=76 velocity=64 time=0.026000000000000002
EXTRACT: note_off channel=11 note=88 velocity=64 time=0
EXTRACT: note_off channel=6 note=76 velocity=65 time=0
EXTRACT: note_off channel=1 note=45 velocity=65 time=0.003
EXTRACT: note_off channel=5 note=45 velocity=65 time=0.027
EXTRACT: note_off channel=2 note=57 velocity=64 time=0
EXTRACT: note_on channel=9 note=39 velocity=119 time=0.001
EXTRACT: note_off channel=4 note=60 velocity=65 time=0.002
EXTRACT: note_off channel=13 note=76 velocity=64 time=0
EXTRACT: note_on channel=3 note=79 velocity=117 time=0
EXTRACT: note_on channel=6 note=88 velocity=83 time=0.003
EXTRACT: note_on channel=11 note=100 velocity=87 time=0
EXTRACT: note_on channel=14 note=88 velocity=87 time=0
EXTRACT: note_off channel=14 note=81 velocity=65 time=0
EXTRACT: note_off channel=11 note=93 velocity=65 time=0
EXTRACT: note_off channel=6 note=81 velocity=64 time=0
EXTRACT: note_on channel=1 note=33 velocity=123 time=0.002
EXTRACT: note_on channel=2 note=45 velocity=125 time=0
EXTRACT: note_on channel=4 note=62 velocity=1 time=0
EXTRACT: note_on channel=5 note=45 velocity=113 time=0
EXTRACT: note_on channel=9 note=36 velocity=126 time=0
EXTRACT: note_on channel=9 note=38 velocity=117 time=0
EXTRACT: note_on channel=9 note=42 velocity=116 time=0
EXTRACT: note_on channel=9 note=70 velocity=107 time=0
EXTRACT: note_on channel=13 note=77 velocity=68 time=0
EXTRACT: note_off channel=9 note=39 velocity=64 time=0.017
EXTRACT: note_off channel=9 note=70 velocity=65 time=0.007
EXTRACT: note_off channel=9 note=42 velocity=64 time=0
EXTRACT: note_off channel=9 note=38 velocity=64 time=0
EXTRACT: note_off channel=9 note=36 velocity=65 time=0
EXTRACT: note_off channel=14 note=84 velocity=64 time=0.02
EXTRACT: note_off channel=11 note=96 velocity=64 time=0
EXTRACT: note_off channel=6 note=84 velocity=64 time=0
EXTRACT: note_off channel=5 note=45 velocity=64 time=0.067
EXTRACT: note_off channel=2 note=45 velocity=65 time=0
EXTRACT: note_on channel=2 note=45 velocity=75 time=0.009000000000000001
EXTRACT: note_on channel=5 note=45 velocity=62 time=0
EXTRACT: note_off channel=14 note=88 velocity=65 time=0.044
EXTRACT: note_off channel=11 note=100 velocity=65 time=0
EXTRACT: note_off channel=6 note=88 velocity=65 time=0
EXTRACT: pitchwheel channel=3 pitch=-2694 time=0.039
EXTRACT: note_off channel=1 note=33 velocity=65 time=0.001
EXTRACT: pitchwheel channel=3 pitch=-5048 time=0.014
EXTRACT: pitchwheel channel=3 pitch=-8186 time=0.013000000000000001
EXTRACT: note_off channel=5 note=45 velocity=64 time=0
EXTRACT: note_off channel=2 note=45 velocity=64 time=0
EXTRACT: note_on channel=6 note=88 velocity=83 time=0.002
EXTRACT: note_on channel=11 note=100 velocity=87 time=0
EXTRACT: note_on channel=14 note=88 velocity=87 time=0
EXTRACT: note_off channel=4 note=62 velocity=64 time=0.001
EXTRACT: note_on channel=1 note=43 velocity=122 time=0.006
EXTRACT: note_on channel=2 note=55 velocity=124 time=0
EXTRACT: note_on channel=4 note=60 velocity=1 time=0
EXTRACT: note_on channel=5 note=43 velocity=112 time=0
EXTRACT: note_on channel=9 note=42 velocity=116 time=0
EXTRACT: note_on channel=9 note=70 velocity=106 time=0
EXTRACT: note_off channel=9 note=70 velocity=65 time=0.024
EXTRACT: note_off channel=9 note=42 velocity=64 time=0
EXTRACT: note_off channel=14 note=88 velocity=65 time=0
EXTRACT: note_off channel=11 note=100 velocity=65 time=0
EXTRACT: note_off channel=6 note=88 velocity=64 time=0
EXTRACT: note_on channel=6 note=84 velocity=82 time=0.019
EXTRACT: note_on channel=11 note=96 velocity=86 time=0
EXTRACT: note_on channel=14 note=84 velocity=86 time=0
EXTRACT: note_on channel=6 note=81 velocity=77 time=0.056
EXTRACT: note_on channel=11 note=93 velocity=82 time=0
EXTRACT: note_on channel=14 note=81 velocity=82 time=0
EXTRACT: note_off channel=14 note=84 velocity=64 time=0.005
EXTRACT: note_off channel=11 note=96 velocity=64 time=0
EXTRACT: note_off channel=6 note=84 velocity=65 time=0
EXTRACT: note_off channel=5 note=43 velocity=65 time=0.007
EXTRACT: note_off channel=2 note=55 velocity=64 time=0
EXTRACT: note_off channel=1 note=43 velocity=64 time=0.003
EXTRACT: note_on channel=1 note=41 velocity=122 time=0.006
EXTRACT: note_on channel=2 note=53 velocity=124 time=0
EXTRACT: note_on channel=5 note=41 velocity=113 time=0
EXTRACT: note_on channel=9 note=44 velocity=99 time=0
EXTRACT: note_on channel=9 note=70 velocity=86 time=0
EXTRACT: note_off channel=9 note=70 velocity=64 time=0.024
EXTRACT: note_off channel=9 note=44 velocity=65 time=0
EXTRACT: note_off channel=14 note=81 velocity=65 time=0.02
EXTRACT: note_off channel=11 note=93 velocity=65 time=0
EXTRACT: note_off channel=6 note=81 velocity=65 time=0
EXTRACT: note_off channel=3 note=79 velocity=65 time=0.01
EXTRACT: note_on channel=6 note=77 velocity=78 time=0.013000000000000001
EXTRACT: note_on channel=11 note=89 velocity=85 time=0
EXTRACT: note_on channel=14 note=77 velocity=85 time=0
EXTRACT: control_change channel=13 control=6 value=60 time=0.013000000000000001
EXTRACT: note_off channel=10 note=72 velocity=64 time=0.016
EXTRACT: pitchwheel channel=3 pitch=128 time=0.003
EXTRACT: note_off channel=10 note=69 velocity=65 time=0.002
EXTRACT: note_off channel=5 note=41 velocity=65 time=0.01
EXTRACT: note_off channel=2 note=53 velocity=65 time=0
EXTRACT: note_off channel=1 note=41 velocity=64 time=0.003
EXTRACT: note_off channel=4 note=60 velocity=64 time=0
EXTRACT: note_off channel=13 note=72 velocity=64 time=0
EXTRACT: note_off channel=13 note=69 velocity=65 time=0
EXTRACT: note_on channel=1 note=26 velocity=123 time=0.006
EXTRACT: note_on channel=2 note=38 velocity=125 time=0
EXTRACT: note_on channel=4 note=62 velocity=1 time=0
EXTRACT: note_on channel=5 note=38 velocity=113 time=0
EXTRACT: note_on channel=9 note=36 velocity=127 time=0
EXTRACT: note_on channel=9 note=42 velocity=117 time=0
EXTRACT: note_on channel=9 note=70 velocity=107 time=0
EXTRACT: note_on channel=13 note=62 velocity=57 time=0
EXTRACT: note_on channel=13 note=65 velocity=53 time=0
EXTRACT: note_on channel=13 note=74 velocity=46 time=0.002
EXTRACT: note_on channel=13 note=69 velocity=63 time=0.003
EXTRACT: note_on channel=3 note=79 velocity=117 time=0
EXTRACT: note_on channel=6 note=74 velocity=76 time=0
EXTRACT: note_on channel=11 note=86 velocity=84 time=0
EXTRACT: note_on channel=14 note=74 velocity=84 time=0
EXTRACT: note_off channel=14 note=77 velocity=64 time=0.006
EXTRACT: note_off channel=11 note=89 velocity=64 time=0
EXTRACT: note_off channel=6 note=77 velocity=64 time=0
EXTRACT: note_on channel=10 note=69 velocity=101 time=0.006
EXTRACT: note_on channel=10 note=65 velocity=94 time=0
EXTRACT: note_off channel=9 note=70 velocity=65 time=0.004
EXTRACT: note_off channel=9 note=42 velocity=64 time=0
EXTRACT: note_off channel=9 note=36 velocity=64 time=0
EXTRACT: note_off channel=13 note=77 velocity=64 time=0.005
EXTRACT: note_off channel=5 note=38 velocity=64 time=0.082
EXTRACT: note_off channel=2 note=38 velocity=65 time=0
EXTRACT: note_on channel=2 note=38 velocity=74 time=0.009000000000000001
EXTRACT: note_on channel=5 note=38 velocity=62 time=0
EXTRACT: note_off channel=3 note=79 velocity=65 time=0.069
EXTRACT: note_off channel=1 note=26 velocity=65 time=0.015
EXTRACT: note_off channel=5 note=38 velocity=64 time=0.027
EXTRACT: note_off channel=2 note=38 velocity=64 time=0
EXTRACT: note_off channel=4 note=62 velocity=65 time=0.003
EXTRACT: note_on channel=1 note=38 velocity=123 time=0.006
EXTRACT: note_on channel=2 note=50 velocity=125 time=0
EXTRACT: note_on channel=4 note=60 velocity=1 time=0
EXTRACT: note_on channel=5 note=38 velocity=112 time=0
EXTRACT: note_on channel=9 note=46 velocity=105 time=0
EXTRACT: note_on channel=9 note=70 velocity=107 time=0
EXTRACT: note_on channel=3 note=77 velocity=116 time=0
EXTRACT: note_off channel=9 note=70 velocity=65 time=0.006
EXTRACT: note_off channel=9 note=46 velocity=64 time=0
EXTRACT: note_off channel=5 note=38 velocity=65 time=0.08700000000000001
EXTRACT: note_off channel=2 note=50 velocity=64 time=0
EXTRACT: note_off channel=1 note=38 velocity=65 time=0.003
EXTRACT: note_on channel=2 note=50 velocity=125 time=0.006
EXTRACT: note_on channel=5 note=38 velocity=113 time=0
EXTRACT: note_on channel=9 note=70 velocity=86 time=0
EXTRACT: note_off channel=9 note=70 velocity=65 time=0.024
EXTRACT: note_off channel=5 note=38 velocity=64 time=0.08700000000000001
EXTRACT: note_off channel=2 note=50 velocity=65 time=0
EXTRACT: note_on channel=9 note=39 velocity=118 time=0.001
EXTRACT: note_on channel=1 note=26 velocity=122 time=0.008
EXTRACT: note_on channel=2 note=38 velocity=124 time=0
EXTRACT: note_on channel=5 note=38 velocity=113 time=0
EXTRACT: note_on channel=9 note=36 velocity=127 time=0
EXTRACT: note_on channel=9 note=38 velocity=116 time=0
EXTRACT: note_on channel=9 note=42 velocity=116 time=0
EXTRACT: note_on channel=9 note=70 velocity=106 time=0
EXTRACT: note_off channel=9 note=39 velocity=65 time=0.017
EXTRACT: note_off channel=9 note=70 velocity=64 time=0.007
EXTRACT: note_off channel=9 note=42 velocity=65 time=0
EXTRACT: note_off channel=9 note=38 velocity=64 time=0
EXTRACT: note_off channel=9 note=36 velocity=64 time=0
EXTRACT: note_off channel=5 note=38 velocity=65 time=0.08700000000000001
EXTRACT: note_off channel=2 note=38 velocity=65 time=0
EXTRACT: note_on channel=2 note=38 velocity=75 time=0.009000000000000001
EXTRACT: note_on channel=5 note=38 velocity=62 time=0
EXTRACT: note_off channel=3 note=77 velocity=64 time=0.029
EXTRACT: note_off channel=1 note=26 velocity=64 time=0.055
EXTRACT: note_off channel=5 note=38 velocity=65 time=0.027
EXTRACT: note_off channel=2 note=38 velocity=64 time=0
EXTRACT: note_off channel=4 note=60 velocity=65 time=0.003
EXTRACT: note_on channel=1 note=38 velocity=122 time=0.006
EXTRACT: note_on channel=2 note=50 velocity=124 time=0
EXTRACT: note_on channel=4 note=60 velocity=1 time=0
EXTRACT: note_on channel=5 note=38 velocity=112 time=0
EXTRACT: note_on channel=9 note=42 velocity=115 time=0
EXTRACT: note_on channel=9 note=70 velocity=107 time=0
EXTRACT: note_on channel=3 note=77 velocity=117 time=0
EXTRACT: note_off channel=9 note=70 velocity=65 time=0.011
EXTRACT: note_off channel=9 note=42 velocity=65 time=0
EXTRACT: note_off channel=5 note=38 velocity=64 time=0.08700000000000001
EXTRACT: note_off channel=2 note=50 velocity=64 time=0
EXTRACT: note_off channel=1 note=38 velocity=64 time=0.003
EXTRACT: note_on channel=2 note=50 velocity=124 time=0.006
EXTRACT: note_on channel=5 note=38 velocity=113 time=0
EXTRACT: note_on channel=9 note=44 velocity=99 time=0
EXTRACT: note_on channel=9 note=70 velocity=87 time=0
EXTRACT: note_off channel=9 note=70 velocity=64 time=0.024
EXTRACT: note_off channel=9 note=44 velocity=64 time=0
EXTRACT: control_change channel=6 control=98 value=33 time=0.016
EXTRACT: note_off channel=3 note=77 velocity=65 time=0.034
EXTRACT: note_off channel=5 note=38 velocity=65 time=0.037
EXTRACT: note_off channel=2 note=50 velocity=65 time=0
EXTRACT: note_off channel=4 note=60 velocity=64 time=0
EXTRACT: note_off channel=4 note=57 velocity=64 time=0.003
EXTRACT: note_on channel=1 note=26 velocity=123 time=0.006
EXTRACT: note_on channel=2 note=38 velocity=125 time=0
EXTRACT: note_on channel=4 note=55 velocity=1 time=0
EXTRACT: note_on channel=5 note=38 velocity=112 time=0
EXTRACT: note_on channel=9 note=36 velocity=126 time=0
EXTRACT: note_on channel=9 note=42 velocity=119 time=0
EXTRACT: note_on channel=9 note=70 velocity=106 time=0
EXTRACT: note_on channel=3 note=72 velocity=116 time=0
EXTRACT: note_off channel=9 note=70 velocity=65 time=0.012
EXTRACT: note_off channel=9 note=42 velocity=65 time=0
EXTRACT: note_off channel=9 note=36 velocity=64 time=0
EXTRACT: note_off channel=5 note=38 velocity=64 time=0.069
EXTRACT: note_off channel=2 note=38 velocity=64 time=0
EXTRACT: note_on channel=2 note=38 velocity=75 time=0.009000000000000001
EXTRACT: note_on channel=5 note=38 velocity=63 time=0
EXTRACT: note_off channel=14 note=74 velocity=64 time=0.074
EXTRACT: note_off channel=11 note=86 velocity=64 time=0
EXTRACT: note_off channel=6 note=74 velocity=65 time=0
EXTRACT: note_off channel=1 note=26 velocity=65 time=0.01
EXTRACT: note_off channel=5 note=38 velocity=64 time=0.027
EXTRACT: note_off channel=2 note=38 velocity=65 time=0
EXTRACT: note_off channel=4 note=55 velocity=65 time=0
EXTRACT: pitchwheel channel=3 pitch=1609 time=0.004
EXTRACT: note_on channel=1 note=38 velocity=122 time=0.005
EXTRACT: note_on channel=2 note=50 velocity=124 time=0
EXTRACT: note_on channel=4 note=57 velocity=1 time=0
EXTRACT: note_on channel=5 note=38 velocity=113 time=0
EXTRACT: note_on channel=9 note=46 velocity=106 time=0
EXTRACT: note_on channel=9 note=70 velocity=106 time=0
EXTRACT: pitchwheel channel=3 pitch=6408 time=0.01
EXTRACT: note_on channel=6 note=74 velocity=67 time=0.011
EXTRACT: note_on channel=11 note=86 velocity=73 time=0
EXTRACT: note_on channel=14 note=74 velocity=73 time=0
EXTRACT: pitchwheel channel=3 pitch=8191 time=0.002
EXTRACT: note_off channel=9 note=70 velocity=64 time=0.001
EXTRACT: note_off channel=9 note=46 velocity=65 time=0
EXTRACT: note_on channel=6 note=77 velocity=83 time=0.07200000000000001
EXTRACT: note_on channel=11 note=89 velocity=75 time=0
EXTRACT: note_on channel=14 note=77 velocity=75 time=0
EXTRACT: note_off channel=5 note=38 velocity=65 time=0.015
EXTRACT: note_off channel=2 note=50 velocity=65 time=0
EXTRACT: note_off channel=14 note=74 velocity=65 time=0.003
EXTRACT: note_off channel=11 note=86 velocity=65 time=0
EXTRACT: note_off channel=6 note=74 velocity=64 time=0
EXTRACT: note_off channel=1 note=38 velocity=64 time=0
EXTRACT: note_on channel=2 note=50 velocity=124 time=0.006
EXTRACT: note_on channel=5 note=38 velocity=112 time=0
EXTRACT: note_on channel=9 note=70 velocity=87 time=0
EXTRACT: note_off channel=9 note=70 velocity=64 time=0.024
EXTRACT: note_on channel=6 note=81 velocity=82 time=0.028
EXTRACT: note_on channel=11 note=93 velocity=90 time=0
EXTRACT: note_on channel=14 note=81 velocity=90 time=0
EXTRACT: note_off channel=14 note=77 velocity=65 time=0.022
EXTRACT: note_off channel=11 note=89 velocity=65 time=0
EXTRACT: note_off channel=6 note=77 velocity=64 time=0
EXTRACT: control_change channel=9 control=91 value=30 time=0.016
EXTRACT: note_off channel=5 note=38 velocity=65 time=0.021
EXTRACT: note_off channel=2 note=50 velocity=64 time=0
EXTRACT: note_on channel=9 note=39 velocity=118 time=0.001
EXTRACT: note_on channel=1 note=26 velocity=123 time=0.008
EXTRACT: note_on channel=2 note=38 velocity=125 time=0
EXTRACT: note_on channel=5 note=38 velocity=113 time=0
EXTRACT: note_on channel=9 note=36 velocity=126 time=0
EXTRACT: note_on channel=9 note=38 velocity=116 time=0
EXTRACT: note_on channel=9 note=42 velocity=122 time=0
EXTRACT: note_on channel=9 note=70 velocity=106 time=0
EXTRACT: note_on channel=6 note=86 velocity=84 time=0.001
EXTRACT: note_on channel=11 note=98 velocity=83 time=0
EXTRACT: note_on channel=14 note=86 velocity=83 time=0
EXTRACT: note_off channel=3 note=72 velocity=64 time=0.013000000000000001
EXTRACT: note_off channel=9 note=39 velocity=65 time=0.003
EXTRACT: note_off channel=9 note=70 velocity=65 time=0.007
EXTRACT: note_off channel=9 note=42 velocity=64 time=0
EXTRACT: note_off channel=9 note=38 velocity=65 time=0
EXTRACT: note_off channel=9 note=36 velocity=64 time=0
EXTRACT: note_off channel=14 note=81 velocity=64 time=0
EXTRACT: note_off channel=11 note=93 velocity=64 time=0
EXTRACT: note_off channel=6 note=81 velocity=65 time=0
EXTRACT: note_off channel=5 note=38 velocity=64 time=0.08700000000000001
EXTRACT: note_off channel=2 note=38 velocity=65 time=0
EXTRACT: note_on channel=2 note=38 velocity=75 time=0.009000000000000001
EXTRACT: note_on channel=5 note=38 velocity=62 time=0
EXTRACT: pitchwheel channel=3 pitch=128 time=0.002
EXTRACT: note_off channel=14 note=86 velocity=64 time=0.032
EXTRACT: note_off channel=11 note=98 velocity=64 time=0
EXTRACT: note_off channel=6 note=86 velocity=65 time=0
EXTRACT: note_off channel=1 note=26 velocity=65 time=0.05
EXTRACT: note_off channel=5 note=38 velocity=64 time=0.027
EXTRACT: note_off channel=2 note=38 velocity=64 time=0
EXTRACT: note_on channel=6 note=86 velocity=83 time=0.002
EXTRACT: note_on channel=11 note=98 velocity=88 time=0
EXTRACT: note_on channel=14 note=86 velocity=88 time=0
EXTRACT: note_on channel=1 note=38 velocity=123 time=0.007
EXTRACT: note_on channel=2 note=50 velocity=124 time=0
EXTRACT: note_on channel=5 note=38 velocity=112 time=0
EXTRACT: note_on channel=9 note=42 velocity=123 time=0
EXTRACT: note_on channel=9 note=70 velocity=107 time=0
EXTRACT: note_off channel=9 note=70 velocity=64 time=0.024
EXTRACT: note_off channel=9 note=42 velocity=65 time=0
EXTRACT: note_on channel=6 note=81 velocity=81 time=0.032
EXTRACT: note_on channel=11 note=93 velocity=84 time=0
EXTRACT: note_on channel=14 note=81 velocity=84 time=0
EXTRACT: note_off channel=14 note=86 velocity=65 time=0.008
EXTRACT: note_off channel=11 note=98 velocity=65 time=0
EXTRACT: note_off channel=6 note=86 velocity=64 time=0
EXTRACT: note_off channel=5 note=38 velocity=65 time=0.047
EXTRACT: note_off channel=2 note=50 velocity=64 time=0
EXTRACT: note_off channel=1 note=38 velocity=65 time=0.003
EXTRACT: note_off channel=13 note=69 velocity=65 time=0
EXTRACT: note_on channel=2 note=50 velocity=124 time=0.006
EXTRACT: note_on channel=5 note=38 velocity=113 time=0
EXTRACT: note_on channel=9 note=44 velocity=98 time=0
EXTRACT: note_on channel=9 note=70 velocity=87 time=0
EXTRACT: note_off channel=9 note=70 velocity=65 time=0.024
EXTRACT: note_off channel=9 note=44 velocity=64 time=0
EXTRACT: note_off channel=10 note=65 velocity=65 time=0.001
EXTRACT: note_off channel=10 note=69 velocity=64 time=0.006
EXTRACT: note_off channel=14 note=81 velocity=65 time=0.003
EXTRACT: note_off channel=11 note=93 velocity=65 time=0
EXTRACT: note_off channel=6 note=81 velocity=64 time=0
EXTRACT: note_on channel=6 note=77 velocity=80 time=0.003
EXTRACT: note_on channel=11 note=89 velocity=83 time=0
EXTRACT: note_on channel=14 note=77 velocity=83 time=0
EXTRACT: note_off channel=13 note=62 velocity=65 time=0.017
EXTRACT: note_off channel=13 note=74 velocity=64 time=0.02
EXTRACT: note_off channel=13 note=65 velocity=65 time=0
EXTRACT: note_off channel=14 note=77 velocity=64 time=0.03
EXTRACT: note_off channel=11 note=89 velocity=64 time=0
EXTRACT: note_off channel=6 note=77 velocity=65 time=0
EXTRACT: note_off channel=5 note=38 velocity=65 time=0.007
EXTRACT: note_off channel=2 note=50 velocity=65 time=0
EXTRACT: note_off channel=4 note=57 velocity=64 time=0
EXTRACT: note_on channel=1 note=26 velocity=122 time=0.009000000000000001
EXTRACT: note_on channel=2 note=38 velocity=125 time=0
EXTRACT: note_on channel=4 note=60 velocity=1 time=0
EXTRACT: note_on channel=4 note=64 velocity=1 time=0
EXTRACT: note_on channel=5 note=38 velocity=113 time=0
EXTRACT: note_on channel=9 note=36 velocity=127 time=0
EXTRACT: note_on channel=9 note=42 velocity=126 time=0
EXTRACT: note_on channel=9 note=70 velocity=106 time=0
EXTRACT: note_on channel=13 note=62 velocity=56 time=0
EXTRACT: note_on channel=13 note=65 velocity=52 time=0
EXTRACT: note_on channel=13 note=74 velocity=47 time=0.002
EXTRACT: note_on channel=13 note=69 velocity=63 time=0.003
EXTRACT: note_on channel=6 note=74 velocity=72 time=0.002
EXTRACT: note_on channel=11 note=86 velocity=79 time=0
EXTRACT: note_on channel=14 note=74 velocity=79 time=0
EXTRACT: note_on channel=3 note=79 velocity=116 time=0
EXTRACT: note_on channel=10 note=65 velocity=98 time=0.003
EXTRACT: note_on channel=10 note=62 velocity=99 time=0
EXTRACT: note_off channel=9 note=70 velocity=64 time=0.004
EXTRACT: note_off channel=9 note=42 velocity=65 time=0
EXTRACT: note_off channel=9 note=36 velocity=65 time=0
EXTRACT: note_off channel=5 note=38 velocity=64 time=0.08700000000000001
EXTRACT: note_off channel=2 note=38 velocity=65 time=0
EXTRACT: note_on channel=2 note=38 velocity=74 time=0.009000000000000001
EXTRACT: note_on channel=5 note=38 velocity=72 time=0
EXTRACT: note_off channel=1 note=26 velocity=64 time=0.084
EXTRACT: note_off channel=5 note=38 velocity=64 time=0.027
EXTRACT: note_off channel=2 note=38 velocity=64 time=0
EXTRACT: note_off channel=4 note=64 velocity=65 time=0
EXTRACT: note_off channel=4 note=60 velocity=65 time=0
EXTRACT: note_on channel=1 note=38 velocity=123 time=0.009000000000000001
EXTRACT: note_on channel=2 note=50 velocity=125 time=0
EXTRACT: note_on channel=4 note=62 velocity=1 time=0
EXTRACT: note_on channel=4 note=65 velocity=1 time=0
EXTRACT: note_on channel=5 note=38 velocity=112 time=0
EXTRACT: note_on channel=9 note=46 velocity=112 time=0
EXTRACT: note_on channel=9 note=70 velocity=107 time=0
EXTRACT: note_on channel=3 note=81 velocity=117 time=0
EXTRACT: note_off channel=3 note=79 velocity=64 time=0.007
EXTRACT: note_off channel=9 note=70 velocity=64 time=0.014
EXTRACT: note_off channel=9 note=46 velocity=64 time=0
EXTRACT: note_off channel=5 note=38 velocity=65 time=0.08700000000000001
EXTRACT: note_off channel=2 note=50 velocity=64 time=0
EXTRACT: note_on channel=2 note=50 velocity=125 time=0.009000000000000001
EXTRACT: note_on channel=5 note=38 velocity=113 time=0
EXTRACT: note_on channel=9 note=70 velocity=86 time=0
EXTRACT: note_off channel=9 note=70 velocity=65 time=0.024
EXTRACT: note_off channel=1 note=38 velocity=65 time=0.075
EXTRACT: note_off channel=5 note=38 velocity=64 time=0.012
EXTRACT: note_off channel=2 note=50 velocity=65 time=0
EXTRACT: note_on channel=9 note=39 velocity=119 time=0.001
EXTRACT: note_on channel=1 note=26 velocity=122 time=0.008
EXTRACT: note_on channel=2 note=38 velocity=124 time=0
EXTRACT: note_on channel=4 note=60 velocity=1 time=0
EXTRACT: note_on channel=4 note=64 velocity=1 time=0
EXTRACT: note_on channel=5 note=38 velocity=113 time=0
EXTRACT: note_on channel=9 note=36 velocity=126 time=0
EXTRACT: note_on channel=9 note=38 velocity=117 time=0
EXTRACT: note_on channel=9 note=42 velocity=118 time=0
EXTRACT: note_on channel=9 note=70 velocity=106 time=0
EXTRACT: note_off channel=4 note=65 velocity=64 time=0.006
EXTRACT: note_off channel=4 note=62 velocity=65 time=0
EXTRACT: note_off channel=3 note=81 velocity=65 time=0.003
EXTRACT: note_off channel=9 note=39 velocity=64 time=0.008
EXTRACT: note_off channel=9 note=70 velocity=65 time=0.007
EXTRACT: note_off channel=9 note=42 velocity=65 time=0
EXTRACT: note_off channel=9 note=38 velocity=64 time=0
EXTRACT: note_off channel=9 note=36 velocity=65 time=0
EXTRACT: note_on channel=3 note=79 velocity=117 time=0
EXTRACT: note_off channel=5 note=38 velocity=65 time=0.083
EXTRACT: note_off channel=2 note=38 velocity=65 time=0
EXTRACT: note_on channel=2 note=38 velocity=75 time=0.009000000000000001
EXTRACT: note_on channel=5 note=38 velocity=72 time=0
EXTRACT: note_off channel=1 note=26 velocity=64 time=0.069
EXTRACT: note_off channel=3 note=79 velocity=65 time=0.038
EXTRACT: note_off channel=5 note=38 velocity=65 time=0.004
EXTRACT: note_off channel=2 note=38 velocity=64 time=0
EXTRACT: note_off channel=4 note=64 velocity=64 time=0
EXTRACT: note_off channel=4 note=60 velocity=64 time=0
EXTRACT: note_on channel=1 note=38 velocity=122 time=0.009000000000000001
EXTRACT: note_on channel=2 note=50 velocity=124 time=0
EXTRACT: note_on channel=4 note=62 velocity=1 time=0
EXTRACT: note_on channel=4 note=65 velocity=1 time=0
EXTRACT: note_on channel=5 note=38 velocity=112 time=0
EXTRACT: note_on channel=9 note=42 velocity=117 time=0
EXTRACT: note_on channel=9 note=70 velocity=107 time=0
EXTRACT: note_on channel=3 note=81 velocity=116 time=0
EXTRACT: note_off channel=9 note=70 velocity=64 time=0.016
EXTRACT: note_off channel=9 note=42 velocity=64 time=0
EXTRACT: control_change channel=6 control=6 value=60 time=0.056
EXTRACT: note_off channel=5 note=38 velocity=64 time=0.031
EXTRACT: note_off channel=2 note=50 velocity=64 time=0
EXTRACT: note_on channel=2 note=50 velocity=124 time=0.009000000000000001
EXTRACT: note_on channel=5 note=38 velocity=113 time=0
EXTRACT: note_on channel=9 note=44 velocity=99 time=0
EXTRACT: note_on channel=9 note=70 velocity=87 time=0
EXTRACT: control_change channel=13 control=6 value=52 time=0
EXTRACT: note_off channel=9 note=70 velocity=65 time=0.024
EXTRACT: note_off channel=9 note=44 velocity=65 time=0
EXTRACT: note_off channel=3 note=81 velocity=64 time=0.032
EXTRACT: note_off channel=1 note=38 velocity=64 time=0.043000000000000003
EXTRACT: pitchwheel channel=3 pitch=-8070 time=0.004
EXTRACT: note_off channel=5 note=38 velocity=65 time=0.008
EXTRACT: note_off channel=2 note=50 velocity=65 time=0
EXTRACT: note_off channel=4 note=65 velocity=65 time=0
EXTRACT: note_off channel=4 note=62 velocity=65 time=0
EXTRACT: note_on channel=1 note=26 velocity=123 time=0.009000000000000001
EXTRACT: note_on channel=2 note=38 velocity=125 time=0
EXTRACT: note_on channel=4 note=62 velocity=1 time=0
EXTRACT: note_on channel=4 note=65 velocity=1 time=0
EXTRACT: note_on channel=5 note=38 velocity=112 time=0
EXTRACT: note_on channel=9 note=36 velocity=127 time=0
EXTRACT: note_on channel=9 note=42 velocity=125 time=0
EXTRACT: note_on channel=9 note=70 velocity=106 time=0
EXTRACT: note_on channel=3 note=81 velocity=116 time=0
EXTRACT: note_off channel=9 note=70 velocity=64 time=0.021
EXTRACT: note_off channel=9 note=42 velocity=64 time=0
EXTRACT: note_off channel=9 note=36 velocity=65 time=0
EXTRACT: note_off channel=5 note=38 velocity=64 time=0.048
EXTRACT: note_off channel=2 note=38 velocity=64 time=0
EXTRACT: pitchwheel channel=3 pitch=-6150 time=0.002
EXTRACT: note_off channel=6 note=74 velocity=65 time=0.001
EXTRACT: note_on channel=2 note=38 velocity=75 time=0.006
EXTRACT: note_on channel=5 note=38 velocity=73 time=0
EXTRACT: pitchwheel channel=3 pitch=-4870 time=0.003
EXTRACT: pitchwheel channel=3 pitch=-3718 time=0.01
EXTRACT: pitchwheel channel=3 pitch=-2694 time=0.01
EXTRACT: pitchwheel channel=3 pitch=-1286 time=0.01
EXTRACT: pitchwheel channel=3 pitch=250 time=0.02
EXTRACT: note_off channel=14 note=74 velocity=64 time=0.001
EXTRACT: note_off channel=11 note=86 velocity=64 time=0
EXTRACT: note_off channel=1 note=26 velocity=65 time=0.045
EXTRACT: note_off channel=5 note=38 velocity=64 time=0.012
EXTRACT: note_off channel=2 note=38 velocity=65 time=0
EXTRACT: note_on channel=1 note=38 velocity=123 time=0.009000000000000001
EXTRACT: note_on channel=2 note=50 velocity=124 time=0
EXTRACT: note_on channel=5 note=38 velocity=113 time=0
EXTRACT: note_on channel=9 note=46 velocity=111 time=0
EXTRACT: note_on channel=9 note=70 velocity=106 time=0
EXTRACT: note_on channel=6 note=74 velocity=73 time=0.001
EXTRACT: note_on channel=11 note=86 velocity=76 time=0
EXTRACT: note_on channel=14 note=74 velocity=76 time=0
EXTRACT: note_off channel=9 note=70 velocity=65 time=0.023
EXTRACT: note_off channel=9 note=46 velocity=64 time=0
EXTRACT: note_on channel=6 note=77 velocity=82 time=0.052000000000000005
EXTRACT: note_on channel=11 note=89 velocity=88 time=0
EXTRACT: note_on channel=14 note=77 velocity=88 time=0
EXTRACT: note_off channel=14 note=74 velocity=65 time=0.018000000000000002
EXTRACT: note_off channel=11 note=86 velocity=65 time=0
EXTRACT: note_off channel=6 note=74 velocity=64 time=0
EXTRACT: note_off channel=5 note=38 velocity=65 time=0.017
EXTRACT: note_off channel=2 note=50 velocity=65 time=0
EXTRACT: note_on channel=2 note=50 velocity=124 time=0.009000000000000001
EXTRACT: note_on channel=5 note=38 velocity=112 time=0
EXTRACT: note_on channel=9 note=70 velocity=87 time=0
EXTRACT: note_off channel=9 note=70 velocity=64 time=0.024
EXTRACT: note_on channel=6 note=81 velocity=63 time=0.008
EXTRACT: note_on channel=11 note=93 velocity=79 time=0
EXTRACT: note_on channel=14 note=81 velocity=79 time=0
EXTRACT: note_off channel=3 note=81 velocity=64 time=0.017
EXTRACT: note_off channel=14 note=77 velocity=64 time=0.005
EXTRACT: note_off channel=11 note=89 velocity=64 time=0
EXTRACT: note_off channel=6 note=77 velocity=64 time=0
EXTRACT: note_off channel=1 note=38 velocity=65 time=0.03
EXTRACT: note_on channel=6 note=86 velocity=73 time=0.017
EXTRACT: note_on channel=11 note=98 velocity=83 time=0
EXTRACT: note_on channel=14 note=86 velocity=83 time=0
EXTRACT: note_on channel=3 note=79 velocity=117 time=0
EXTRACT: note_off channel=5 note=38 velocity=65 time=0
EXTRACT: note_off channel=2 note=50 velocity=64 time=0
EXTRACT: note_off channel=4 note=65 velocity=64 time=0
EXTRACT: note_off channel=4 note=62 velocity=64 time=0
EXTRACT: note_on channel=9 note=39 velocity=119 time=0.001
EXTRACT: note_on channel=1 note=26 velocity=122 time=0.008
EXTRACT: note_on channel=2 note=38 velocity=125 time=0
EXTRACT: note_on channel=4 note=60 velocity=1 time=0
EXTRACT: note_on channel=4 note=64 velocity=1 time=0
EXTRACT: note_on channel=5 note=38 velocity=113 time=0
EXTRACT: note_on channel=9 note=36 velocity=127 time=0
EXTRACT: note_on channel=9 note=38 velocity=116 time=0
EXTRACT: note_on channel=9 note=42 velocity=98 time=0
EXTRACT: note_on channel=9 note=70 velocity=107 time=0
EXTRACT: note_off channel=14 note=81 velocity=65 time=0.004
EXTRACT: note_off channel=11 note=93 velocity=65 time=0
EXTRACT: note_off channel=6 note=81 velocity=65 time=0
EXTRACT: note_off channel=9 note=39 velocity=65 time=0.013000000000000001
EXTRACT: note_off channel=9 note=70 velocity=64 time=0.007
EXTRACT: note_off channel=9 note=42 velocity=65 time=0
EXTRACT: note_off channel=9 note=38 velocity=65 time=0
EXTRACT: note_off channel=9 note=36 velocity=64 time=0
EXTRACT: note_off channel=5 note=38 velocity=64 time=0.08700000000000001
EXTRACT: note_off channel=2 note=38 velocity=65 time=0
EXTRACT: note_on channel=2 note=38 velocity=75 time=0.009000000000000001
EXTRACT: note_on channel=5 note=38 velocity=72 time=0
EXTRACT: note_off channel=1 note=26 velocity=64 time=0.084
EXTRACT: note_off channel=3 note=79 velocity=65 time=0.002
EXTRACT: note_on channel=6 note=81 velocity=74 time=0.02
EXTRACT: note_on channel=11 note=93 velocity=76 time=0
EXTRACT: note_on channel=14 note=81 velocity=76 time=0
EXTRACT: note_on channel=3 note=77 velocity=117 time=0
EXTRACT: note_off channel=5 note=38 velocity=64 time=0.003
EXTRACT: note_off channel=2 note=38 velocity=64 time=0
EXTRACT: note_off channel=4 note=64 velocity=65 time=0
EXTRACT: note_off channel=4 note=60 velocity=65 time=0
EXTRACT: note_on channel=1 note=38 velocity=122 time=0.009000000000000001
EXTRACT: note_on channel=2 note=50 velocity=124 time=0
EXTRACT: note_on channel=4 note=57 velocity=1 time=0
EXTRACT: note_on channel=4 note=62 velocity=1 time=0
EXTRACT: note_on channel=5 note=38 velocity=112 time=0
EXTRACT: note_on channel=9 note=42 velocity=114 time=0
EXTRACT: note_on channel=9 note=70 velocity=106 time=0
EXTRACT: note_off channel=14 note=86 velocity=65 time=0.004
EXTRACT: note_off channel=11 note=98 velocity=65 time=0
EXTRACT: note_off channel=6 note=86 velocity=64 time=0
EXTRACT: note_off channel=9 note=70 velocity=65 time=0.02
EXTRACT: note_off channel=9 note=42 velocity=64 time=0
EXTRACT: note_off channel=5 note=38 velocity=65 time=0.08700000000000001
EXTRACT: note_off channel=2 note=50 velocity=64 time=0
EXTRACT: note_off channel=14 note=81 velocity=64 time=0.003
EXTRACT: note_off channel=11 note=93 velocity=64 time=0
EXTRACT: note_off channel=6 note=81 velocity=65 time=0
EXTRACT: note_on channel=6 note=77 velocity=73 time=0.003
EXTRACT: note_on channel=11 note=89 velocity=80 time=0
EXTRACT: note_on channel=14 note=77 velocity=80 time=0
EXTRACT: note_on channel=2 note=50 velocity=124 time=0.003
EXTRACT: note_on channel=5 note=38 velocity=113 time=0
EXTRACT: note_on channel=9 note=44 velocity=98 time=0
EXTRACT: note_on channel=9 note=70 velocity=86 time=0
EXTRACT: note_off channel=9 note=70 velocity=64 time=0.024
EXTRACT: note_off channel=9 note=44 velocity=65 time=0
EXTRACT: control_change channel=14 control=6 value=80 time=0.016
EXTRACT: note_off channel=3 note=77 velocity=65 time=0.009000000000000001
EXTRACT: note_off channel=1 note=38 velocity=64 time=0.035
EXTRACT: note_on channel=3 note=79 velocity=116 time=0
EXTRACT: note_off channel=5 note=38 velocity=65 time=0.001
EXTRACT: note_off channel=2 note=50 velocity=65 time=0
EXTRACT: note_off channel=4 note=62 velocity=64 time=0
EXTRACT: note_off channel=4 note=57 velocity=64 time=0
EXTRACT: note_on channel=6 note=74 velocity=78 time=0.006
EXTRACT: note_on channel=11 note=86 velocity=85 time=0
EXTRACT: note_on channel=14 note=74 velocity=85 time=0
EXTRACT: note_on channel=1 note=26 velocity=123 time=0.003
EXTRACT: note_on channel=2 note=38 velocity=125 time=0
EXTRACT: note_on channel=4 note=60 velocity=1 time=0
EXTRACT: note_on channel=4 note=64 velocity=1 time=0
EXTRACT: note_on channel=5 note=38 velocity=113 time=0
EXTRACT: note_on channel=9 note=36 velocity=126 time=0
EXTRACT: note_on channel=9 note=42 velocity=123 time=0
EXTRACT: note_on channel=9 note=70 velocity=107 time=0
EXTRACT: note_off channel=14 note=77 velocity=65 time=0.014
EXTRACT: note_off channel=11 note=89 velocity=65 time=0
EXTRACT: note_off channel=6 note=77 velocity=65 time=0
EXTRACT: note_off channel=9 note=70 velocity=65 time=0.01
EXTRACT: note_off channel=9 note=42 velocity=64 time=0
EXTRACT: note_off channel=9 note=36 velocity=64 time=0
EXTRACT: control_change channel=13 control=6 value=54 time=0.056
EXTRACT: note_off channel=5 note=38 velocity=64 time=0.031
EXTRACT: note_off channel=2 note=38 velocity=65 time=0
EXTRACT: note_on channel=6 note=76 velocity=78 time=0.005
EXTRACT: note_on channel=11 note=88 velocity=84 time=0
EXTRACT: note_on channel=14 note=76 velocity=84 time=0
EXTRACT: note_on channel=2 note=38 velocity=74 time=0.004
EXTRACT: note_on channel=5 note=38 velocity=72 time=0
EXTRACT: note_off channel=14 note=74 velocity=64 time=0.004
EXTRACT: note_off channel=11 note=86 velocity=64 time=0
EXTRACT: note_off channel=6 note=74 velocity=64 time=0
EXTRACT: note_off channel=10 note=62 velocity=64 time=0.01
EXTRACT: note_off channel=3 note=79 velocity=64 time=0.061
EXTRACT: note_off channel=1 note=26 velocity=65 time=0.009000000000000001
EXTRACT: note_off channel=5 note=38 velocity=64 time=0.027
EXTRACT: note_off channel=2 note=38 velocity=64 time=0
EXTRACT: note_off channel=4 note=64 velocity=65 time=0
EXTRACT: note_off channel=4 note=60 velocity=64 time=0
EXTRACT: note_off channel=13 note=69 velocity=64 time=0.003
EXTRACT: note_off channel=13 note=74 velocity=64 time=0
EXTRACT: note_off channel=13 note=65 velocity=65 time=0
EXTRACT: note_off channel=13 note=62 velocity=65 time=0
EXTRACT: note_on channel=6 note=77 velocity=75 time=0.004
EXTRACT: note_on channel=11 note=89 velocity=93 time=0
EXTRACT: note_on channel=14 note=77 velocity=93 time=0
EXTRACT: note_on channel=1 note=28 velocity=123 time=0
EXTRACT: note_on channel=2 note=52 velocity=125 time=0
EXTRACT: note_on channel=3 note=81 velocity=116 time=0
EXTRACT: note_on channel=4 note=60 velocity=1 time=0
EXTRACT: note_on channel=4 note=65 velocity=1 time=0
EXTRACT: note_on channel=5 note=40 velocity=112 time=0
EXTRACT: note_on channel=9 note=46 velocity=105 time=0
EXTRACT: note_on channel=9 note=70 velocity=106 time=0
EXTRACT: note_on channel=13 note=64 velocity=80 time=0
EXTRACT: control_change channel=6 control=6 value=57 time=0
EXTRACT: note_off channel=14 note=76 velocity=64 time=0.005
EXTRACT: note_off channel=11 note=88 velocity=64 time=0
EXTRACT: note_off channel=6 note=76 velocity=65 time=0
EXTRACT: note_on channel=13 note=67 velocity=64 time=0.007
EXTRACT: note_off channel=10 note=65 velocity=65 time=0.002
EXTRACT: note_on channel=10 note=67 velocity=78 time=0.006
EXTRACT: note_on channel=10 note=64 velocity=91 time=0
EXTRACT: note_on channel=13 note=71 velocity=63 time=0
EXTRACT: note_off channel=9 note=70 velocity=65 time=0.004
EXTRACT: note_off channel=9 note=46 velocity=65 time=0
EXTRACT: note_off channel=5 note=40 velocity=65 time=0.08700000000000001
EXTRACT: note_off channel=2 note=52 velocity=64 time=0
EXTRACT: note_on channel=2 note=52 velocity=125 time=0.009000000000000001
EXTRACT: note_on channel=5 note=40 velocity=113 time=0
EXTRACT: note_on channel=9 note=70 velocity=87 time=0
EXTRACT: note_on channel=6 note=79 velocity=75 time=0.001
EXTRACT: note_on channel=11 note=91 velocity=83 time=0
EXTRACT: note_on channel=14 note=79 velocity=83 time=0
EXTRACT: note_off channel=14 note=77 velocity=65 time=0.013000000000000001
EXTRACT: note_off channel=11 note=89 velocity=65 time=0
EXTRACT: note_off channel=6 note=77 velocity=64 time=0
EXTRACT: note_off channel=9 note=70 velocity=64 time=0.01
EXTRACT: note_off channel=1 note=28 velocity=65 time=0.045
EXTRACT: note_off channel=13 note=64 velocity=64 time=0.006
EXTRACT: note_on channel=6 note=81 velocity=76 time=0.022
EXTRACT: note_on channel=11 note=93 velocity=86 time=0
EXTRACT: note_on channel=14 note=81 velocity=86 time=0
EXTRACT: note_off channel=5 note=40 velocity=64 time=0.014
EXTRACT: note_off channel=2 note=52 velocity=65 time=0
EXTRACT: note_on channel=9 note=39 velocity=118 time=0.001
EXTRACT: note_off channel=13 note=71 velocity=64 time=0.002
EXTRACT: note_off channel=13 note=67 velocity=65 time=0
EXTRACT: note_on channel=1 note=29 velocity=122 time=0.006
EXTRACT: note_on channel=2 note=41 velocity=124 time=0
EXTRACT: note_on channel=5 note=41 velocity=113 time=0
EXTRACT: note_on channel=9 note=36 velocity=127 time=0
EXTRACT: note_on channel=9 note=38 velocity=117 time=0
EXTRACT: note_on channel=9 note=42 velocity=111 time=0
EXTRACT: note_on channel=9 note=70 velocity=107 time=0
EXTRACT: note_on channel=13 note=65 velocity=89 time=0
EXTRACT: note_off channel=14 note=79 velocity=65 time=0.002
EXTRACT: note_off channel=11 note=91 velocity=65 time=0
EXTRACT: note_off channel=6 note=79 velocity=64 time=0
EXTRACT: note_off channel=10 note=67 velocity=64 time=0.012
EXTRACT: note_off channel=10 note=64 velocity=65 time=0.002
EXTRACT: note_on channel=13 note=69 velocity=34 time=0.001
EXTRACT: note_on channel=13 note=72 velocity=80 time=0
EXTRACT: note_off channel=9 note=39 velocity=64 time=0
EXTRACT: note_on channel=10 note=69 velocity=87 time=0.003
EXTRACT: note_on channel=10 note=65 velocity=104 time=0
EXTRACT: note_off channel=9 note=70 velocity=65 time=0.004
EXTRACT: note_off channel=9 note=42 velocity=64 time=0
EXTRACT: note_off channel=9 note=38 velocity=65 time=0
EXTRACT: note_off channel=9 note=36 velocity=65 time=0
EXTRACT: note_off channel=3 note=81 velocity=64 time=0.05
EXTRACT: note_off channel=5 note=41 velocity=65 time=0.037
EXTRACT: note_off channel=2 note=41 velocity=65 time=0
EXTRACT: note_on channel=2 note=41 velocity=75 time=0.009000000000000001
EXTRACT: note_on channel=5 note=41 velocity=72 time=0
EXTRACT: note_off channel=1 note=29 velocity=64 time=0.084
EXTRACT: note_off channel=5 note=41 velocity=65 time=0.027
EXTRACT: note_off channel=2 note=41 velocity=64 time=0
EXTRACT: note_off channel=4 note=65 velocity=65 time=0
EXTRACT: note_off channel=4 note=60 velocity=65 time=0
EXTRACT: note_on channel=1 note=41 velocity=122 time=0.009000000000000001
EXTRACT: note_on channel=2 note=53 velocity=124 time=0
EXTRACT: note_on channel=4 note=60 velocity=1 time=0
EXTRACT: note_on channel=4 note=65 velocity=1 time=0
EXTRACT: note_on channel=5 note=41 velocity=112 time=0
EXTRACT: note_on channel=9 note=42 velocity=124 time=0
EXTRACT: note_on channel=9 note=70 velocity=106 time=0
EXTRACT: note_on channel=3 note=81 velocity=117 time=0
EXTRACT: note_off channel=9 note=70 velocity=64 time=0.009000000000000001
EXTRACT: note_off channel=9 note=42 velocity=65 time=0
EXTRACT: note_off channel=5 note=41 velocity=64 time=0.08700000000000001
EXTRACT: note_off channel=2 note=53 velocity=64 time=0
EXTRACT: note_on channel=2 note=53 velocity=124 time=0.009000000000000001
EXTRACT: note_on channel=5 note=41 velocity=113 time=0
EXTRACT: note_on channel=9 note=44 velocity=98 time=0
EXTRACT: note_on channel=9 note=70 velocity=87 time=0
EXTRACT: note_off channel=9 note=70 velocity=64 time=0.024
EXTRACT: note_off channel=9 note=44 velocity=64 time=0
EXTRACT: note_off channel=1 note=41 velocity=64 time=0.06
EXTRACT: note_off channel=5 note=41 velocity=65 time=0.027
EXTRACT: note_off channel=2 note=53 velocity=65 time=0
EXTRACT: note_on channel=1 note=29 velocity=123 time=0.009000000000000001
EXTRACT: note_on channel=2 note=41 velocity=125 time=0
EXTRACT: note_on channel=5 note=41 velocity=112 time=0
EXTRACT: note_on channel=9 note=36 velocity=126 time=0
EXTRACT: note_on channel=9 note=42 velocity=124 time=0
EXTRACT: note_on channel=9 note=70 velocity=106 time=0
EXTRACT: note_off channel=9 note=70 velocity=65 time=0.024
EXTRACT: note_off channel=9 note=42 velocity=65 time=0
EXTRACT: note_off channel=9 note=36 velocity=64 time=0
EXTRACT: note_off channel=5 note=41 velocity=64 time=0.08700000000000001
EXTRACT: note_off channel=2 note=41 velocity=64 time=0
EXTRACT: note_on channel=2 note=41 velocity=75 time=0.009000000000000001
EXTRACT: note_on channel=5 note=41 velocity=73 time=0
EXTRACT: note_off channel=3 note=81 velocity=65 time=0.014
EXTRACT: note_off channel=14 note=81 velocity=64 time=0.06
EXTRACT: note_off channel=11 note=93 velocity=64 time=0
EXTRACT: note_off channel=6 note=81 velocity=65 time=0
EXTRACT: note_off channel=1 note=29 velocity=65 time=0.01
EXTRACT: note_off channel=5 note=41 velocity=64 time=0.027
EXTRACT: note_off channel=2 note=41 velocity=65 time=0
EXTRACT: note_off channel=4 note=65 velocity=64 time=0
EXTRACT: note_on channel=1 note=41 velocity=122 time=0.009000000000000001
EXTRACT: note_on channel=2 note=53 velocity=124 time=0
EXTRACT: note_on channel=4 note=57 velocity=1 time=0
EXTRACT: note_on channel=5 note=41 velocity=113 time=0
EXTRACT: note_on channel=9 note=46 velocity=110 time=0
EXTRACT: note_on channel=9 note=70 velocity=106 time=0
EXTRACT: note_on channel=3 note=72 velocity=116 time=0
EXTRACT: note_on channel=6 note=77 velocity=74 time=0.015
EXTRACT: note_on channel=11 note=89 velocity=83 time=0
EXTRACT: note_on channel=14 note=77 velocity=83 time=0
EXTRACT: note_off channel=9 note=70 velocity=64 time=0.003
EXTRACT: note_off channel=9 note=46 velocity=65 time=0
EXTRACT: note_on channel=6 note=81 velocity=55 time=0.059000000000000004
EXTRACT: note_on channel=11 note=93 velocity=76 time=0
EXTRACT: note_on channel=14 note=81 velocity=76 time=0
EXTRACT: note_off channel=5 note=41 velocity=65 time=0.016
EXTRACT: note_off channel=2 note=53 velocity=65 time=0
EXTRACT: note_on channel=2 note=53 velocity=124 time=0.009000000000000001
EXTRACT: note_on channel=5 note=41 velocity=112 time=0
EXTRACT: note_on channel=9 note=70 velocity=87 time=0
EXTRACT: note_off channel=9 note=70 velocity=65 time=0.024
EXTRACT: note_off channel=14 note=77 velocity=64 time=0.01
EXTRACT: note_off channel=11 note=89 velocity=64 time=0
EXTRACT: note_off channel=6 note=77 velocity=65 time=0
EXTRACT: note_on channel=6 note=84 velocity=81 time=0.012
EXTRACT: note_on channel=11 note=96 velocity=84 time=0
EXTRACT: note_on channel=14 note=84 velocity=84 time=0
EXTRACT: note_off channel=14 note=81 velocity=65 time=0.018000000000000002
EXTRACT: note_off channel=11 note=93 velocity=65 time=0
EXTRACT: note_off channel=6 note=81 velocity=64 time=0
EXTRACT: note_off channel=3 note=72 velocity=64 time=0.01
EXTRACT: note_off channel=1 note=41 velocity=64 time=0.01
EXTRACT: note_on channel=6 note=89 velocity=78 time=0.019
EXTRACT: note_on channel=11 note=101 velocity=85 time=0
EXTRACT: note_on channel=14 note=89 velocity=85 time=0
EXTRACT: note_off channel=5 note=41 velocity=65 time=0.008
EXTRACT: note_off channel=2 note=53 velocity=64 time=0
EXTRACT: note_off channel=4 note=57 velocity=65 time=0
EXTRACT: note_on channel=9 note=39 velocity=118 time=0.001
EXTRACT: note_off channel=4 note=60 velocity=64 time=0.002
EXTRACT: note_on channel=1 note=29 velocity=123 time=0.006
EXTRACT: note_on channel=2 note=41 velocity=125 time=0
EXTRACT: note_on channel=4 note=60 velocity=1 time=0
EXTRACT: note_on channel=4 note=65 velocity=1 time=0
EXTRACT: note_on channel=5 note=41 velocity=113 time=0
EXTRACT: note_on channel=9 note=36 velocity=126 time=0
EXTRACT: note_on channel=9 note=38 velocity=117 time=0
EXTRACT: note_on channel=9 note=42 velocity=113 time=0
EXTRACT: note_on channel=9 note=70 velocity=107 time=0
EXTRACT: note_on channel=3 note=81 velocity=117 time=0
EXTRACT: note_off channel=14 note=84 velocity=65 time=0.012
EXTRACT: note_off channel=11 note=96 velocity=65 time=0
EXTRACT: note_off channel=6 note=84 velocity=64 time=0
EXTRACT: note_off channel=9 note=39 velocity=64 time=0.003
EXTRACT: note_off channel=9 note=70 velocity=64 time=0.007
EXTRACT: note_off channel=9 note=42 velocity=65 time=0
EXTRACT: note_off channel=9 note=38 velocity=64 time=0
EXTRACT: note_off channel=9 note=36 velocity=65 time=0
EXTRACT: control_change channel=13 control=6 value=56 time=0.016
EXTRACT: note_off channel=5 note=41 velocity=64 time=0.07100000000000001
EXTRACT: note_off channel=2 note=41 velocity=65 time=0
EXTRACT: note_on channel=2 note=41 velocity=75 time=0.009000000000000001
EXTRACT: note_on channel=5 note=41 velocity=72 time=0
EXTRACT: control_change channel=6 control=6 value=54 time=0
EXTRACT: note_off channel=1 note=29 velocity=65 time=0.084
EXTRACT: note_off channel=3 note=81 velocity=65 time=0.01
EXTRACT: note_off channel=14 note=89 velocity=64 time=0
EXTRACT: note_off channel=11 note=101 velocity=64 time=0
EXTRACT: note_off channel=6 note=89 velocity=65 time=0
EXTRACT: note_on channel=6 note=88 velocity=74 time=0.016
EXTRACT: note_on channel=11 note=100 velocity=81 time=0
EXTRACT: note_on channel=14 note=88 velocity=81 time=0
EXTRACT: note_off channel=5 note=41 velocity=64 time=0.001
EXTRACT: note_off channel=2 note=41 velocity=64 time=0
EXTRACT: note_off channel=4 note=65 velocity=64 time=0
EXTRACT: note_off channel=4 note=60 velocity=65 time=0
EXTRACT: note_on channel=1 note=31 velocity=123 time=0.009000000000000001
EXTRACT: note_on channel=2 note=55 velocity=124 time=0
EXTRACT: note_on channel=4 note=60 velocity=1 time=0
EXTRACT: note_on channel=4 note=64 velocity=1 time=0
EXTRACT: note_on channel=5 note=43 velocity=112 time=0
EXTRACT: note_on channel=9 note=42 velocity=108 time=0
EXTRACT: note_on channel=9 note=70 velocity=106 time=0
EXTRACT: note_on channel=13 note=67 velocity=81 time=0
EXTRACT: note_on channel=13 note=71 velocity=64 time=0
EXTRACT: note_off channel=13 note=72 velocity=65 time=0.011
EXTRACT: note_off channel=13 note=69 velocity=64 time=0
EXTRACT: note_off channel=13 note=65 velocity=64 time=0
EXTRACT: note_off channel=10 note=65 velocity=65 time=0.003
EXTRACT: note_off channel=10 note=69 velocity=64 time=0
EXTRACT: note_on channel=10 note=67 velocity=87 time=0.006
EXTRACT: note_on channel=10 note=71 velocity=86 time=0
EXTRACT: note_on channel=13 note=74 velocity=63 time=0
EXTRACT: note_off channel=9 note=70 velocity=65 time=0.004
EXTRACT: note_off channel=9 note=42 velocity=64 time=0
EXTRACT: note_on channel=3 note=79 velocity=117 time=0
EXTRACT: note_off channel=5 note=43 velocity=65 time=0.046
EXTRACT: note_off channel=2 note=55 velocity=64 time=0
EXTRACT: note_on channel=2 note=55 velocity=124 time=0.009000000000000001
EXTRACT: note_on channel=5 note=43 velocity=113 time=0
EXTRACT: note_on channel=9 note=44 velocity=99 time=0
EXTRACT: note_on channel=9 note=70 velocity=86 time=0
EXTRACT: note_off channel=14 note=88 velocity=64 time=0.004
EXTRACT: note_off channel=11 note=100 velocity=64 time=0
EXTRACT: note_off channel=6 note=88 velocity=65 time=0
EXTRACT: note_on channel=6 note=84 velocity=73 time=0.003
EXTRACT: note_on channel=11 note=96 velocity=78 time=0
EXTRACT: note_on channel=14 note=84 velocity=78 time=0
EXTRACT: note_off channel=9 note=70 velocity=65 time=0.017
EXTRACT: note_off channel=9 note=44 velocity=64 time=0
EXTRACT: note_off channel=1 note=31 velocity=65 time=0.06
EXTRACT: control_change channel=9 control=91 value=20 time=0.006
EXTRACT: note_off channel=5 note=43 velocity=65 time=0.021
EXTRACT: note_off channel=2 note=55 velocity=65 time=0
EXTRACT: note_off channel=13 note=74 velocity=65 time=0.003
EXTRACT: note_off channel=13 note=71 velocity=64 time=0
EXTRACT: note_off channel=13 note=67 velocity=65 time=0
EXTRACT: note_on channel=1 note=33 velocity=122 time=0.006
EXTRACT: note_on channel=2 note=45 velocity=125 time=0
EXTRACT: note_on channel=5 note=45 velocity=113 time=0
EXTRACT: note_on channel=9 note=36 velocity=127 time=0
EXTRACT: note_on channel=9 note=42 velocity=125 time=0
EXTRACT: note_on channel=9 note=70 velocity=107 time=0
EXTRACT: note_on channel=13 note=69 velocity=57 time=0
EXTRACT: note_on channel=6 note=81 velocity=78 time=0.007
EXTRACT: note_on channel=11 note=93 velocity=84 time=0
EXTRACT: note_on channel=14 note=81 velocity=84 time=0
EXTRACT: note_on channel=13 note=76 velocity=68 time=0.002
EXTRACT: note_on channel=13 note=72 velocity=61 time=0.003
EXTRACT: note_off channel=14 note=84 velocity=65 time=0.001
EXTRACT: note_off channel=11 note=96 velocity=65 time=0
EXTRACT: note_off channel=6 note=84 velocity=64 time=0
EXTRACT: note_off channel=10 note=71 velocity=65 time=0.001
EXTRACT: note_off channel=10 note=67 velocity=64 time=0
EXTRACT: note_on channel=10 note=69 velocity=92 time=0.006
EXTRACT: note_on channel=10 note=72 velocity=103 time=0
EXTRACT: note_off channel=9 note=70 velocity=64 time=0.004
EXTRACT: note_off channel=9 note=42 velocity=65 time=0
EXTRACT: note_off channel=9 note=36 velocity=65 time=0
EXTRACT: note_off channel=5 note=45 velocity=64 time=0.08700000000000001
EXTRACT: note_off channel=2 note=45 velocity=65 time=0
EXTRACT: note_on channel=2 note=45 velocity=74 time=0.009000000000000001
EXTRACT: note_on channel=5 note=45 velocity=72 time=0
EXTRACT: note_off channel=3 note=79 velocity=65 time=0.006
EXTRACT: note_off channel=1 note=33 velocity=64 time=0.093
EXTRACT: note_off channel=5 note=45 velocity=64 time=0.012
EXTRACT: note_off channel=2 note=45 velocity=64 time=0
EXTRACT: note_on channel=1 note=45 velocity=123 time=0.009000000000000001
EXTRACT: note_on channel=2 note=57 velocity=125 time=0
EXTRACT: note_on channel=5 note=45 velocity=112 time=0
EXTRACT: note_on channel=9 note=46 velocity=110 time=0
EXTRACT: note_on channel=9 note=70 velocity=107 time=0
EXTRACT: note_off channel=9 note=70 velocity=64 time=0.024
EXTRACT: note_off channel=9 note=46 velocity=64 time=0
EXTRACT: note_off channel=5 note=45 velocity=65 time=0.08700000000000001
EXTRACT: note_off channel=2 note=57 velocity=64 time=0
EXTRACT: note_on channel=2 note=57 velocity=125 time=0.009000000000000001
EXTRACT: note_on channel=5 note=45 velocity=113 time=0
EXTRACT: note_on channel=9 note=70 velocity=86 time=0
EXTRACT: note_off channel=9 note=70 velocity=65 time=0.024
EXTRACT: note_off channel=1 note=45 velocity=65 time=0.06
EXTRACT: note_off channel=5 note=45 velocity=64 time=0.027
EXTRACT: note_off channel=2 note=57 velocity=65 time=0
EXTRACT: note_on channel=9 note=39 velocity=119 time=0.001
EXTRACT: note_on channel=1 note=33 velocity=122 time=0.008
EXTRACT: note_on channel=2 note=45 velocity=124 time=0
EXTRACT: note_on channel=5 note=45 velocity=113 time=0
EXTRACT: note_on channel=9 note=36 velocity=127 time=0
EXTRACT: note_on channel=9 note=38 velocity=116 time=0
EXTRACT: note_on channel=9 note=42 velocity=123 time=0
EXTRACT: note_on channel=9 note=70 velocity=106 time=0
EXTRACT: control_change channel=2 control=6 value=61 time=0
EXTRACT: note_off channel=9 note=39 velocity=65 time=0.017
EXTRACT: note_off channel=9 note=70 velocity=64 time=0.007
EXTRACT: note_off channel=9 note=42 velocity=64 time=0
EXTRACT: note_off channel=9 note=38 velocity=65 time=0
EXTRACT: note_off channel=9 note=36 velocity=64 time=0
EXTRACT: note_off channel=5 note=45 velocity=65 time=0.08700000000000001
EXTRACT: note_off channel=2 note=45 velocity=65 time=0
EXTRACT: note_on channel=2 note=45 velocity=75 time=0.009000000000000001
EXTRACT: note_on channel=5 note=45 velocity=72 time=0
EXTRACT: note_off channel=1 note=33 velocity=64 time=0.099
EXTRACT: note_off channel=5 note=45 velocity=65 time=0.012
EXTRACT: note_off channel=2 note=45 velocity=64 time=0
EXTRACT: note_on channel=1 note=45 velocity=122 time=0.009000000000000001
EXTRACT: note_on channel=2 note=57 velocity=124 time=0
EXTRACT: note_on channel=5 note=45 velocity=112 time=0
EXTRACT: note_on channel=9 note=42 velocity=116 time=0
EXTRACT: note_on channel=9 note=70 velocity=107 time=0
EXTRACT: note_off channel=9 note=70 velocity=65 time=0.024
EXTRACT: note_off channel=9 note=42 velocity=65 time=0
EXTRACT: control_change channel=13 control=6 value=58 time=0.056
EXTRACT: note_off channel=5 note=45 velocity=64 time=0.031
EXTRACT: note_off channel=2 note=57 velocity=64 time=0
EXTRACT: note_on channel=2 note=57 velocity=124 time=0.009000000000000001
EXTRACT: note_on channel=5 note=45 velocity=113 time=0
EXTRACT: note_on channel=9 note=44 velocity=99 time=0
EXTRACT: note_on channel=9 note=70 velocity=86 time=0
EXTRACT: note_off channel=9 note=70 velocity=64 time=0.024
EXTRACT: note_off channel=9 note=44 velocity=65 time=0
EXTRACT: note_off channel=1 note=45 velocity=64 time=0.06
EXTRACT: note_off channel=5 note=45 velocity=65 time=0.027
EXTRACT: note_off channel=2 note=57 velocity=65 time=0
EXTRACT: note_on channel=1 note=33 velocity=123 time=0.009000000000000001
EXTRACT: note_on channel=2 note=45 velocity=125 time=0
EXTRACT: note_on channel=5 note=45 velocity=112 time=0
EXTRACT: note_on channel=9 note=36 velocity=126 time=0
EXTRACT: note_on channel=9 note=42 velocity=125 time=0
EXTRACT: note_on channel=9 note=70 velocity=107 time=0
EXTRACT: control_change channel=14 control=98 value=33 time=0
EXTRACT: note_off channel=9 note=70 velocity=64 time=0.024
EXTRACT: note_off channel=9 note=42 velocity=64 time=0
EXTRACT: note_off channel=9 note=36 velocity=65 time=0
EXTRACT: note_off channel=14 note=81 velocity=64 time=0.068
EXTRACT: note_off channel=11 note=93 velocity=64 time=0
EXTRACT: note_off channel=6 note=81 velocity=64 time=0
EXTRACT: note_off channel=5 note=45 velocity=64 time=0.019
EXTRACT: note_off channel=2 note=45 velocity=64 time=0
EXTRACT: note_off channel=4 note=60 velocity=65 time=0.003
EXTRACT: note_on channel=2 note=45 velocity=75 time=0.006
EXTRACT: note_on channel=5 note=45 velocity=73 time=0
EXTRACT: note_off channel=1 note=33 velocity=65 time=0.084
EXTRACT: note_off channel=5 note=45 velocity=64 time=0.027
EXTRACT: note_off channel=2 note=45 velocity=65 time=0
EXTRACT: note_off channel=4 note=64 velocity=64 time=0
EXTRACT: note_on channel=1 note=45 velocity=123 time=0.009000000000000001
EXTRACT: note_on channel=2 note=57 velocity=124 time=0
EXTRACT: note_on channel=4 note=57 velocity=1 time=0
EXTRACT: note_on channel=4 note=60 velocity=1 time=0
EXTRACT: note_on channel=5 note=45 velocity=113 time=0
EXTRACT: note_on channel=9 note=46 velocity=107 time=0
EXTRACT: note_on channel=9 note=70 velocity=107 time=0
EXTRACT: note_on channel=3 note=77 velocity=116 time=0
EXTRACT: note_off channel=9 note=70 velocity=65 time=0.02
EXTRACT: note_off channel=9 note=46 velocity=64 time=0
EXTRACT: note_on channel=6 note=76 velocity=73 time=0.014
EXTRACT: note_on channel=11 note=88 velocity=89 time=0
EXTRACT: note_on channel=14 note=76 velocity=89 time=0
EXTRACT: note_off channel=5 note=45 velocity=65 time=0.063
EXTRACT: note_off channel=2 note=57 velocity=65 time=0
EXTRACT: note_on channel=6 note=81 velocity=69 time=0.005
EXTRACT: note_on channel=11 note=93 velocity=81 time=0
EXTRACT: note_on channel=14 note=81 velocity=81 time=0
EXTRACT: note_on channel=2 note=57 velocity=124 time=0.004
EXTRACT: note_on channel=5 note=45 velocity=112 time=0
EXTRACT: note_on channel=9 note=70 velocity=86 time=0
EXTRACT: note_off channel=3 note=77 velocity=64 time=0.018000000000000002
EXTRACT: note_off channel=9 note=70 velocity=64 time=0.006
EXTRACT: note_on channel=6 note=84 velocity=68 time=0.031
EXTRACT: note_on channel=11 note=96 velocity=82 time=0
EXTRACT: note_on channel=14 note=84 velocity=82 time=0
EXTRACT: note_off channel=14 note=76 velocity=65 time=0.026000000000000002
EXTRACT: note_off channel=11 note=88 velocity=65 time=0
EXTRACT: note_off channel=6 note=76 velocity=65 time=0
EXTRACT: note_off channel=1 note=45 velocity=65 time=0.003
EXTRACT: note_off channel=5 note=45 velocity=65 time=0.027
EXTRACT: note_off channel=2 note=57 velocity=64 time=0
EXTRACT: note_on channel=9 note=39 velocity=119 time=0.001
EXTRACT: note_off channel=4 note=60 velocity=64 time=0.002
EXTRACT: note_off channel=13 note=76 velocity=65 time=0
EXTRACT: note_on channel=3 note=79 velocity=117 time=0
EXTRACT: note_on channel=6 note=88 velocity=83 time=0.003
EXTRACT: note_on channel=11 note=100 velocity=86 time=0
EXTRACT: note_on channel=14 note=88 velocity=86 time=0
EXTRACT: note_off channel=14 note=81 velocity=65 time=0
EXTRACT: note_off channel=11 note=93 velocity=65 time=0
EXTRACT: note_off channel=6 note=81 velocity=64 time=0
EXTRACT: note_on channel=1 note=33 velocity=122 time=0.002
EXTRACT: note_on channel=2 note=45 velocity=125 time=0
EXTRACT: note_on channel=4 note=62 velocity=1 time=0
EXTRACT: note_on channel=5 note=45 velocity=113 time=0
EXTRACT: note_on channel=9 note=36 velocity=126 time=0
EXTRACT: note_on channel=9 note=38 velocity=117 time=0
EXTRACT: note_on channel=9 note=42 velocity=116 time=0
EXTRACT: note_on channel=9 note=70 velocity=107 time=0
EXTRACT: note_on channel=13 note=77 velocity=68 time=0
EXTRACT: note_off channel=9 note=39 velocity=65 time=0.017
EXTRACT: note_off channel=9 note=70 velocity=65 time=0.007
EXTRACT: note_off channel=9 note=42 velocity=64 time=0
EXTRACT: note_off channel=9 note=38 velocity=64 time=0
EXTRACT: note_off channel=9 note=36 velocity=65 time=0
EXTRACT: note_off channel=14 note=84 velocity=64 time=0.02
EXTRACT: note_off channel=11 note=96 velocity=64 time=0
EXTRACT: note_off channel=6 note=84 velocity=65 time=0
EXTRACT: note_off channel=5 note=45 velocity=64 time=0.067
EXTRACT: note_off channel=2 note=45 velocity=65 time=0
EXTRACT: note_on channel=2 note=45 velocity=75 time=0.009000000000000001
EXTRACT: note_on channel=5 note=45 velocity=72 time=0
EXTRACT: control_change channel=6 control=6 value=50 time=0
EXTRACT: note_off channel=14 note=88 velocity=65 time=0.044
EXTRACT: note_off channel=11 note=100 velocity=65 time=0
EXTRACT: note_off channel=6 note=88 velocity=65 time=0
EXTRACT: note_off channel=1 note=33 velocity=64 time=0.04
EXTRACT: note_off channel=5 note=45 velocity=64 time=0.027
EXTRACT: note_off channel=2 note=45 velocity=64 time=0
EXTRACT: note_on channel=6 note=88 velocity=82 time=0.002
EXTRACT: note_on channel=11 note=100 velocity=87 time=0
EXTRACT: note_on channel=14 note=88 velocity=87 time=0
EXTRACT: note_off channel=4 note=62 velocity=65 time=0.001
EXTRACT: note_off channel=3 note=79 velocity=65 time=0
EXTRACT: note_on channel=3 note=77 velocity=116 time=0
EXTRACT: note_on channel=1 note=43 velocity=122 time=0.005
EXTRACT: note_on channel=2 note=55 velocity=124 time=0
EXTRACT: note_on channel=4 note=60 velocity=1 time=0
EXTRACT: note_on channel=5 note=43 velocity=112 time=0
EXTRACT: note_on channel=9 note=42 velocity=116 time=0
EXTRACT: note_on channel=9 note=70 velocity=106 time=0
EXTRACT: note_off channel=9 note=70 velocity=64 time=0.024
EXTRACT: note_off channel=9 note=42 velocity=65 time=0
EXTRACT: note_off channel=14 note=88 velocity=64 time=0
EXTRACT: note_off channel=11 note=100 velocity=64 time=0
EXTRACT: note_off channel=6 note=88 velocity=64 time=0
EXTRACT: note_on channel=6 note=84 velocity=82 time=0.019
EXTRACT: note_on channel=11 note=96 velocity=86 time=0
EXTRACT: note_on channel=14 note=84 velocity=86 time=0
EXTRACT: control_change channel=14 control=6 value=77 time=0.037
EXTRACT: note_on channel=6 note=81 velocity=77 time=0.019
EXTRACT: note_on channel=11 note=93 velocity=83 time=0
EXTRACT: note_on channel=14 note=81 velocity=83 time=0
EXTRACT: note_off channel=14 note=84 velocity=64 time=0.005
EXTRACT: note_off channel=11 note=96 velocity=64 time=0
EXTRACT: note_off channel=6 note=84 velocity=65 time=0
EXTRACT: note_off channel=5 note=43 velocity=65 time=0.007
EXTRACT: note_off channel=2 note=55 velocity=64 time=0
EXTRACT: note_off channel=1 note=43 velocity=64 time=0.003
EXTRACT: note_on channel=1 note=41 velocity=123 time=0.006
EXTRACT: note_on channel=2 note=53 velocity=124 time=0
EXTRACT: note_on channel=5 note=41 velocity=113 time=0
EXTRACT: note_on channel=9 note=44 velocity=98 time=0
EXTRACT: note_on channel=9 note=70 velocity=86 time=0
EXTRACT: note_off channel=9 note=70 velocity=65 time=0.024
EXTRACT: note_off channel=9 note=44 velocity=64 time=0
EXTRACT: note_off channel=14 note=81 velocity=65 time=0.02
EXTRACT: note_off channel=11 note=93 velocity=65 time=0
EXTRACT: note_off channel=6 note=81 velocity=64 time=0
EXTRACT: note_off channel=3 note=77 velocity=64 time=0.01
EXTRACT: note_on channel=6 note=77 velocity=79 time=0.013000000000000001
EXTRACT: note_on channel=11 note=89 velocity=85 time=0
EXTRACT: note_on channel=14 note=77 velocity=85 time=0
EXTRACT: control_change channel=13 control=6 value=60 time=0.013000000000000001
EXTRACT: note_off channel=10 note=72 velocity=64 time=0.016
EXTRACT: note_off channel=10 note=69 velocity=65 time=0.005
EXTRACT: note_off channel=5 note=41 velocity=65 time=0.01
EXTRACT: note_off channel=2 note=53 velocity=65 time=0
EXTRACT: note_off channel=1 note=41 velocity=65 time=0.003
EXTRACT: note_off channel=4 note=60 velocity=65 time=0
EXTRACT: note_off channel=13 note=72 velocity=64 time=0
EXTRACT: note_off channel=13 note=69 velocity=65 time=0
EXTRACT: note_on channel=1 note=26 velocity=123 time=0.006
EXTRACT: note_on channel=2 note=38 velocity=125 time=0
EXTRACT: note_on channel=4 note=62 velocity=1 time=0
EXTRACT: note_on channel=5 note=38 velocity=113 time=0
EXTRACT: note_on channel=9 note=36 velocity=127 time=0
EXTRACT: note_on channel=9 note=42 velocity=117 time=0
EXTRACT: note_on channel=9 note=70 velocity=107 time=0
EXTRACT: note_on channel=13 note=62 velocity=56 time=0
EXTRACT: note_on channel=13 note=65 velocity=53 time=0
EXTRACT: note_on channel=13 note=74 velocity=47 time=0.002
EXTRACT: note_on channel=13 note=69 velocity=62 time=0.003
EXTRACT: note_on channel=3 note=79 velocity=116 time=0
EXTRACT: note_on channel=6 note=74 velocity=76 time=0
EXTRACT: note_on channel=11 note=86 velocity=84 time=0
EXTRACT: note_on channel=14 note=74 velocity=84 time=0
EXTRACT: note_off channel=14 note=77 velocity=65 time=0.006
EXTRACT: note_off channel=11 note=89 velocity=65 time=0
EXTRACT: note_off channel=6 note=77 velocity=64 time=0
EXTRACT: note_on channel=10 note=69 velocity=101 time=0.006
EXTRACT: note_on channel=10 note=65 velocity=94 time=0
EXTRACT: note_off channel=9 note=70 velocity=65 time=0.004
EXTRACT: note_off channel=9 note=42 velocity=64 time=0
EXTRACT: note_off channel=9 note=36 velocity=64 time=0
EXTRACT: note_off channel=13 note=77 velocity=64 time=0.005
EXTRACT: note_off channel=5 note=38 velocity=64 time=0.082
EXTRACT: note_off channel=2 note=38 velocity=65 time=0
EXTRACT: note_on channel=2 note=38 velocity=74 time=0.009000000000000001
EXTRACT: note_on channel=5 note=38 velocity=72 time=0
EXTRACT: note_off channel=3 note=79 velocity=64 time=0.054
EXTRACT: note_off channel=1 note=26 velocity=65 time=0.03
EXTRACT: note_off channel=5 note=38 velocity=64 time=0.027
EXTRACT: note_off channel=2 note=38 velocity=64 time=0
EXTRACT: note_off channel=4 note=62 velocity=64 time=0.003
EXTRACT: note_on channel=1 note=38 velocity=122 time=0.006
EXTRACT: note_on channel=2 note=50 velocity=125 time=0
EXTRACT: note_on channel=4 note=60 velocity=1 time=0
EXTRACT: note_on channel=5 note=38 velocity=112 time=0
EXTRACT: note_on channel=9 note=46 velocity=105 time=0
EXTRACT: note_on channel=9 note=70 velocity=107 time=0
EXTRACT: note_on channel=3 note=77 velocity=117 time=0
EXTRACT: note_off channel=9 note=70 velocity=65 time=0.006
EXTRACT: note_off channel=9 note=46 velocity=65 time=0
EXTRACT: note_off channel=5 note=38 velocity=65 time=0.08700000000000001
EXTRACT: note_off channel=2 note=50 velocity=64 time=0
EXTRACT: note_off channel=1 note=38 velocity=64 time=0.003
EXTRACT: note_on channel=2 note=50 velocity=125 time=0.006
EXTRACT: note_on channel=5 note=38 velocity=113 time=0
EXTRACT: note_on channel=9 note=70 velocity=86 time=0
EXTRACT: note_off channel=9 note=70 velocity=64 time=0.024
EXTRACT: note_off channel=3 note=77 velocity=65 time=0.03
EXTRACT: note_off channel=5 note=38 velocity=64 time=0.057
EXTRACT: note_off channel=2 note=50 velocity=65 time=0
EXTRACT: note_on channel=9 note=39 velocity=118 time=0.001
EXTRACT: note_on channel=3 note=77 velocity=117 time=0
EXTRACT: note_on channel=1 note=26 velocity=122 time=0.002
EXTRACT: note_on channel=2 note=38 velocity=124 time=0
EXTRACT: note_on channel=5 note=38 velocity=113 time=0
EXTRACT: note_on channel=9 note=36 velocity=127 time=0
EXTRACT: note_on channel=9 note=38 velocity=116 time=0
EXTRACT: note_on channel=9 note=42 velocity=117 time=0
EXTRACT: note_on channel=9 note=70 velocity=106 time=0
EXTRACT: note_off channel=9 note=39 velocity=64 time=0.017
EXTRACT: note_off channel=9 note=70 velocity=65 time=0.007
EXTRACT: note_off channel=9 note=42 velocity=65 time=0
EXTRACT: note_off channel=9 note=38 velocity=64 time=0
EXTRACT: note_off channel=9 note=36 velocity=64 time=0
EXTRACT: note_off channel=5 note=38 velocity=65 time=0.08700000000000001
EXTRACT: note_off channel=2 note=38 velocity=65 time=0
EXTRACT: note_on channel=2 note=38 velocity=75 time=0.009000000000000001
EXTRACT: note_on channel=5 note=38 velocity=72 time=0
EXTRACT: note_off channel=3 note=77 velocity=65 time=0.074
EXTRACT: note_off channel=1 note=26 velocity=64 time=0.01
EXTRACT: note_off channel=5 note=38 velocity=65 time=0.027
EXTRACT: note_off channel=2 note=38 velocity=64 time=0
EXTRACT: note_off channel=4 note=60 velocity=64 time=0.003
EXTRACT: note_on channel=1 note=38 velocity=123 time=0.006
EXTRACT: note_on channel=2 note=50 velocity=124 time=0
EXTRACT: note_on channel=4 note=60 velocity=1 time=0
EXTRACT: note_on channel=5 note=38 velocity=112 time=0
EXTRACT: note_on channel=9 note=42 velocity=114 time=0
EXTRACT: note_on channel=9 note=70 velocity=107 time=0
EXTRACT: note_on channel=3 note=77 velocity=116 time=0
EXTRACT: note_off channel=9 note=70 velocity=65 time=0.011
EXTRACT: note_off channel=9 note=42 velocity=64 time=0
EXTRACT: note_off channel=5 note=38 velocity=64 time=0.08700000000000001
EXTRACT: note_off channel=2 note=50 velocity=64 time=0
EXTRACT: note_off channel=1 note=38 velocity=65 time=0.003
EXTRACT: note_on channel=2 note=50 velocity=124 time=0.006
EXTRACT: note_on channel=5 note=38 velocity=113 time=0
EXTRACT: note_on channel=9 note=44 velocity=98 time=0
EXTRACT: note_on channel=9 note=70 velocity=87 time=0
EXTRACT: note_off channel=9 note=70 velocity=65 time=0.024
EXTRACT: note_off channel=9 note=44 velocity=65 time=0
EXTRACT: note_off channel=3 note=77 velocity=64 time=0.05
EXTRACT: note_off channel=5 note=38 velocity=65 time=0.037
EXTRACT: note_off channel=2 note=50 velocity=65 time=0
EXTRACT: note_off channel=4 note=60 velocity=65 time=0
EXTRACT: note_off channel=4 note=57 velocity=64 time=0.003
EXTRACT: note_on channel=1 note=26 velocity=122 time=0.006
EXTRACT: note_on channel=2 note=38 velocity=125 time=0
EXTRACT: note_on channel=4 note=55 velocity=1 time=0
EXTRACT: note_on channel=5 note=38 velocity=112 time=0
EXTRACT: note_on channel=9 note=36 velocity=126 time=0
EXTRACT: note_on channel=9 note=42 velocity=118 time=0
EXTRACT: note_on channel=9 note=70 velocity=106 time=0
EXTRACT: note_on channel=3 note=72 velocity=116 time=0
EXTRACT: note_off channel=9 note=70 velocity=64 time=0.012
EXTRACT: note_off channel=9 note=42 velocity=65 time=0
EXTRACT: note_off channel=9 note=36 velocity=64 time=0
EXTRACT: note_off channel=5 note=38 velocity=64 time=0.069
EXTRACT: note_off channel=2 note=38 velocity=64 time=0
EXTRACT: note_on channel=2 note=38 velocity=75 time=0.009000000000000001
EXTRACT: note_on channel=5 note=38 velocity=73 time=0
EXTRACT: note_off channel=6 note=74 velocity=65 time=0.074
EXTRACT: note_off channel=1 note=26 velocity=64 time=0.01
EXTRACT: note_off channel=5 note=38 velocity=64 time=0.027
EXTRACT: note_off channel=2 note=38 velocity=65 time=0
EXTRACT: note_off channel=4 note=55 velocity=65 time=0
EXTRACT: pitchwheel channel=3 pitch=1609 time=0.004
EXTRACT: note_on channel=1 note=38 velocity=123 time=0.005
EXTRACT: note_on channel=2 note=50 velocity=124 time=0
EXTRACT: note_on channel=4 note=57 velocity=1 time=0
EXTRACT: note_on channel=5 note=38 velocity=113 time=0
EXTRACT: note_on channel=9 note=46 velocity=106 time=0
EXTRACT: note_on channel=9 note=70 velocity=106 time=0
EXTRACT: pitchwheel channel=3 pitch=6408 time=0.01
EXTRACT: pitchwheel channel=3 pitch=8191 time=0.013000000000000001
EXTRACT: note_off channel=9 note=70 velocity=64 time=0.001
EXTRACT: note_off channel=9 note=46 velocity=65 time=0
EXTRACT: note_off channel=5 note=38 velocity=65 time=0.08700000000000001
EXTRACT: note_off channel=2 note=50 velocity=65 time=0
EXTRACT: note_off channel=1 note=38 velocity=65 time=0.003
EXTRACT: note_on channel=2 note=50 velocity=124 time=0.006
EXTRACT: note_on channel=5 note=38 velocity=112 time=0
EXTRACT: note_on channel=9 note=70 velocity=87 time=0
EXTRACT: note_off channel=9 note=70 velocity=65 time=0.024
EXTRACT: control_change channel=9 control=91 value=30 time=0.066
EXTRACT: note_off channel=5 note=38 velocity=65 time=0.021
EXTRACT: note_off channel=2 note=50 velocity=64 time=0
EXTRACT: note_on channel=9 note=39 velocity=118 time=0.001
EXTRACT: note_on channel=1 note=26 velocity=123 time=0.008
EXTRACT: note_on channel=2 note=38 velocity=125 time=0
EXTRACT: note_on channel=5 note=38 velocity=113 time=0
EXTRACT: note_on channel=9 note=36 velocity=126 time=0
EXTRACT: note_on channel=9 note=38 velocity=116 time=0
EXTRACT: note_on channel=9 note=42 velocity=123 time=0
EXTRACT: note_on channel=9 note=70 velocity=106 time=0
EXTRACT: note_off channel=9 note=39 velocity=64 time=0.017
EXTRACT: note_off channel=9 note=70 velocity=64 time=0.007
EXTRACT: note_off channel=9 note=42 velocity=65 time=0
EXTRACT: note_off channel=9 note=38 velocity=65 time=0
EXTRACT: note_off channel=9 note=36 velocity=64 time=0
EXTRACT: note_off channel=5 note=38 velocity=64 time=0.08700000000000001
EXTRACT: note_off channel=2 note=38 velocity=65 time=0
EXTRACT: note_on channel=12 note=67 velocity=127 time=0.004
EXTRACT: note_on channel=12 note=70 velocity=126 time=0.001
EXTRACT: note_on channel=2 note=38 velocity=75 time=0.004
EXTRACT: note_on channel=5 note=38 velocity=72 time=0
EXTRACT: note_off channel=3 note=72 velocity=64 time=0.074
EXTRACT: note_off channel=1 note=26 velocity=65 time=0.01
EXTRACT: note_off channel=5 note=38 velocity=64 time=0.027
EXTRACT: note_off channel=2 note=38 velocity=64 time=0
EXTRACT: note_on channel=1 note=38 velocity=122 time=0.009000000000000001
EXTRACT: note_on channel=2 note=50 velocity=124 time=0
EXTRACT: note_on channel=5 note=38 velocity=112 time=0
EXTRACT: note_on channel=9 note=42 velocity=123 time=0
EXTRACT: note_on channel=9 note=70 velocity=107 time=0
EXTRACT: note_off channel=9 note=70 velocity=64 time=0.024
EXTRACT: note_off channel=9 note=42 velocity=65 time=0
EXTRACT: pitchwheel channel=3 pitch=0 time=0.038
EXTRACT: note_off channel=14 note=74 velocity=64 time=0.012
EXTRACT: note_off channel=11 note=86 velocity=64 time=0
EXTRACT: note_off channel=5 note=38 velocity=65 time=0.037
EXTRACT: note_off channel=2 note=50 velocity=64 time=0
EXTRACT: note_off channel=1 note=38 velocity=64 time=0.003
EXTRACT: note_off channel=4 note=57 velocity=65 time=0
EXTRACT: note_off channel=13 note=69 velocity=64 time=0
EXTRACT: note_on channel=2 note=50 velocity=124 time=0.006
EXTRACT: note_on channel=5 note=38 velocity=113 time=0
EXTRACT: note_on channel=9 note=44 velocity=99 time=0
EXTRACT: note_on channel=9 note=70 velocity=87 time=0
EXTRACT: control_change channel=14 control=6 value=85 time=0
EXTRACT: note_off channel=9 note=70 velocity=64 time=0.024
EXTRACT: note_off channel=9 note=44 velocity=65 time=0
EXTRACT: note_off channel=12 note=67 velocity=65 time=0
EXTRACT: note_off channel=12 note=70 velocity=64 time=0.001
EXTRACT: note_off channel=10 note=65 velocity=65 time=0
EXTRACT: note_off channel=10 note=69 velocity=64 time=0.006
EXTRACT: control_change channel=6 control=6 value=80 time=0.009000000000000001
EXTRACT: note_off channel=13 note=62 velocity=65 time=0.014
EXTRACT: note_off channel=13 note=74 velocity=65 time=0.02
EXTRACT: note_off channel=13 note=65 velocity=64 time=0
EXTRACT: note_off channel=5 note=38 velocity=65 time=0.037
EXTRACT: note_off channel=2 note=50 velocity=65 time=0
EXTRACT: note_on channel=1 note=26 velocity=123 time=0
EXTRACT: note_on channel=2 note=38 velocity=125 time=0
EXTRACT: note_on channel=3 note=74 velocity=117 time=0
EXTRACT: note_on channel=5 note=38 velocity=113 time=0
EXTRACT: note_on channel=8 note=38 velocity=85 time=0
EXTRACT: note_on channel=9 note=36 velocity=127 time=0
EXTRACT: note_on channel=9 note=42 velocity=116 time=0
EXTRACT: note_on channel=9 note=70 velocity=106 time=0
EXTRACT: note_off channel=9 note=70 velocity=65 time=0.024
EXTRACT: note_off channel=9 note=42 velocity=64 time=0
EXTRACT: note_off channel=9 note=36 velocity=65 time=0
EXTRACT: note_off channel=5 note=38 velocity=64 time=0.08700000000000001
EXTRACT: note_off channel=2 note=38 velocity=65 time=0
EXTRACT: note_off channel=8 note=38 velocity=65 time=0.003
EXTRACT: note_on channel=2 note=38 velocity=74 time=0.006
EXTRACT: note_on channel=5 note=38 velocity=62 time=0
EXTRACT: note_off channel=1 note=26 velocity=65 time=0.084
EXTRACT: note_off channel=5 note=38 velocity=64 time=0.027
EXTRACT: note_off channel=2 note=38 velocity=64 time=0
EXTRACT: note_on channel=1 note=38 velocity=122 time=0.009000000000000001
EXTRACT: note_on channel=2 note=50 velocity=125 time=0
EXTRACT: note_on channel=5 note=38 velocity=112 time=0
EXTRACT: note_on channel=8 note=50 velocity=84 time=0
EXTRACT: note_on channel=9 note=46 velocity=112 time=0
EXTRACT: note_on channel=9 note=70 velocity=107 time=0
EXTRACT: note_off channel=9 note=70 velocity=64 time=0.024
EXTRACT: note_off channel=9 note=46 velocity=64 time=0
EXTRACT: note_off channel=3 note=74 velocity=65 time=0.003
EXTRACT: note_off channel=8 note=50 velocity=64 time=0.048
EXTRACT: note_off channel=5 note=38 velocity=65 time=0.036000000000000004
EXTRACT: note_off channel=2 note=50 velocity=64 time=0
EXTRACT: note_on channel=2 note=50 velocity=125 time=0.009000000000000001
EXTRACT: note_on channel=5 note=38 velocity=113 time=0
EXTRACT: note_on channel=8 note=50 velocity=85 time=0
EXTRACT: note_on channel=9 note=70 velocity=106 time=0
EXTRACT: note_off channel=9 note=70 velocity=65 time=0.024
EXTRACT: note_off channel=1 note=38 velocity=64 time=0.075
EXTRACT: note_off channel=5 note=38 velocity=64 time=0.012
EXTRACT: note_off channel=2 note=50 velocity=65 time=0
EXTRACT: note_on channel=9 note=39 velocity=119 time=0.001
EXTRACT: note_off channel=8 note=50 velocity=65 time=0.005
EXTRACT: note_on channel=1 note=26 velocity=122 time=0
EXTRACT: note_on channel=2 note=38 velocity=124 time=0
EXTRACT: note_on channel=3 note=69 velocity=117 time=0
EXTRACT: note_on channel=5 note=38 velocity=113 time=0
EXTRACT: note_on channel=8 note=38 velocity=84 time=0
EXTRACT: note_on channel=9 note=36 velocity=126 time=0
EXTRACT: note_on channel=9 note=38 velocity=117 time=0
EXTRACT: note_on channel=9 note=42 velocity=118 time=0
EXTRACT: note_on channel=9 note=70 velocity=106 time=0
EXTRACT: note_off channel=9 note=39 velocity=65 time=0.017
EXTRACT: note_off channel=9 note=70 velocity=64 time=0.007
EXTRACT: note_off channel=9 note=42 velocity=64 time=0
EXTRACT: note_off channel=9 note=38 velocity=65 time=0
EXTRACT: note_off channel=9 note=36 velocity=65 time=0
EXTRACT: note_off channel=5 note=38 velocity=65 time=0.08700000000000001
EXTRACT: note_off channel=2 note=38 velocity=65 time=0
EXTRACT: note_off channel=8 note=38 velocity=65 time=0.003
EXTRACT: note_on channel=2 note=38 velocity=75 time=0.006
EXTRACT: note_on channel=5 note=38 velocity=62 time=0
EXTRACT: note_off channel=1 note=26 velocity=64 time=0.069
EXTRACT: note_off channel=5 note=38 velocity=65 time=0.042
EXTRACT: note_off channel=2 note=38 velocity=64 time=0
EXTRACT: note_on channel=1 note=38 velocity=123 time=0.009000000000000001
EXTRACT: note_on channel=2 note=50 velocity=124 time=0
EXTRACT: note_on channel=5 note=38 velocity=112 time=0
EXTRACT: note_on channel=8 note=50 velocity=78 time=0
EXTRACT: note_on channel=9 note=42 velocity=117 time=0
EXTRACT: note_on channel=9 note=70 velocity=107 time=0
EXTRACT: note_off channel=9 note=70 velocity=64 time=0.024
EXTRACT: note_off channel=9 note=42 velocity=64 time=0
EXTRACT: note_off channel=8 note=50 velocity=64 time=0.035
EXTRACT: note_off channel=3 note=69 velocity=65 time=0.008
EXTRACT: note_off channel=5 note=38 velocity=64 time=0.044
EXTRACT: note_off channel=2 note=50 velocity=64 time=0
EXTRACT: note_on channel=2 note=50 velocity=124 time=0.009000000000000001
EXTRACT: note_on channel=5 note=38 velocity=113 time=0
EXTRACT: note_on channel=8 note=50 velocity=75 time=0
EXTRACT: note_on channel=9 note=44 velocity=99 time=0
EXTRACT: note_on channel=9 note=70 velocity=107 time=0
EXTRACT: note_off channel=9 note=70 velocity=65 time=0.024
EXTRACT: note_off channel=9 note=44 velocity=64 time=0
EXTRACT: note_off channel=1 note=38 velocity=65 time=0.075
EXTRACT: note_off channel=8 note=50 velocity=65 time=0.011
EXTRACT: note_off channel=5 note=38 velocity=65 time=0.001
EXTRACT: note_off channel=2 note=50 velocity=65 time=0
EXTRACT: note_on channel=1 note=29 velocity=123 time=0
EXTRACT: note_on channel=2 note=41 velocity=125 time=0
EXTRACT: note_on channel=3 note=74 velocity=116 time=0
EXTRACT: note_on channel=5 note=41 velocity=112 time=0
EXTRACT: note_on channel=8 note=41 velocity=85 time=0
EXTRACT: note_on channel=9 note=36 velocity=127 time=0
EXTRACT: note_on channel=9 note=42 velocity=124 time=0
EXTRACT: note_on channel=9 note=70 velocity=106 time=0
EXTRACT: note_off channel=9 note=70 velocity=65 time=0.024
EXTRACT: note_off channel=9 note=42 velocity=65 time=0
EXTRACT: note_off channel=9 note=36 velocity=64 time=0
EXTRACT: note_off channel=5 note=41 velocity=64 time=0.08700000000000001
EXTRACT: note_off channel=2 note=41 velocity=64 time=0
EXTRACT: note_off channel=8 note=41 velocity=64 time=0.003
EXTRACT: note_on channel=2 note=41 velocity=75 time=0.006
EXTRACT: note_on channel=5 note=41 velocity=63 time=0
EXTRACT: note_off channel=1 note=29 velocity=65 time=0.099
EXTRACT: note_off channel=5 note=41 velocity=64 time=0.012
EXTRACT: note_off channel=2 note=41 velocity=65 time=0
EXTRACT: note_on channel=1 note=41 velocity=122 time=0.009000000000000001
EXTRACT: note_on channel=2 note=53 velocity=124 time=0
EXTRACT: note_on channel=5 note=41 velocity=113 time=0
EXTRACT: note_on channel=8 note=53 velocity=84 time=0
EXTRACT: note_on channel=9 note=46 velocity=111 time=0
EXTRACT: note_on channel=9 note=70 velocity=106 time=0
EXTRACT: note_off channel=9 note=70 velocity=65 time=0.024
EXTRACT: note_off channel=9 note=46 velocity=64 time=0
EXTRACT: note_off channel=3 note=74 velocity=64 time=0.022
EXTRACT: note_off channel=8 note=53 velocity=64 time=0.033
EXTRACT: note_off channel=5 note=41 velocity=65 time=0.032
EXTRACT: note_off channel=2 note=53 velocity=65 time=0
EXTRACT: note_on channel=2 note=53 velocity=124 time=0.009000000000000001
EXTRACT: note_on channel=5 note=41 velocity=112 time=0
EXTRACT: note_on channel=8 note=53 velocity=84 time=0
EXTRACT: note_on channel=9 note=70 velocity=107 time=0
EXTRACT: note_off channel=9 note=70 velocity=64 time=0.024
EXTRACT: note_off channel=1 note=41 velocity=64 time=0.06
EXTRACT: note_off channel=5 note=41 velocity=65 time=0.027
EXTRACT: note_off channel=2 note=53 velocity=64 time=0
EXTRACT: note_on channel=9 note=39 velocity=118 time=0.001
EXTRACT: note_off channel=8 note=53 velocity=65 time=0.004
EXTRACT: note_on channel=1 note=24 velocity=122 time=0.004
EXTRACT: note_on channel=2 note=36 velocity=125 time=0
EXTRACT: note_on channel=5 note=36 velocity=113 time=0
EXTRACT: note_on channel=8 note=36 velocity=85 time=0
EXTRACT: note_on channel=9 note=36 velocity=127 time=0
EXTRACT: note_on channel=9 note=38 velocity=117 time=0
EXTRACT: note_on channel=9 note=42 velocity=99 time=0
EXTRACT: note_on channel=9 note=70 velocity=107 time=0
EXTRACT: note_off channel=9 note=39 velocity=65 time=0.017
EXTRACT: note_off channel=9 note=70 velocity=65 time=0.007
EXTRACT: note_off channel=9 note=42 velocity=64 time=0
EXTRACT: note_off channel=9 note=38 velocity=64 time=0
EXTRACT: note_off channel=9 note=36 velocity=65 time=0
EXTRACT: note_on channel=3 note=69 velocity=116 time=0
EXTRACT: note_off channel=5 note=36 velocity=64 time=0.076
EXTRACT: note_off channel=2 note=36 velocity=65 time=0
EXTRACT: note_off channel=8 note=36 velocity=65 time=0.003
EXTRACT: note_on channel=2 note=36 velocity=75 time=0.006
EXTRACT: note_on channel=5 note=36 velocity=62 time=0
EXTRACT: note_off channel=1 note=24 velocity=64 time=0.084
EXTRACT: note_off channel=5 note=36 velocity=64 time=0.027
EXTRACT: note_off channel=2 note=36 velocity=64 time=0
EXTRACT: note_on channel=1 note=36 velocity=123 time=0.009000000000000001
EXTRACT: note_on channel=2 note=48 velocity=124 time=0
EXTRACT: note_on channel=5 note=36 velocity=112 time=0
EXTRACT: note_on channel=8 note=48 velocity=87 time=0
EXTRACT: note_on channel=9 note=42 velocity=115 time=0
EXTRACT: note_on channel=9 note=70 velocity=106 time=0
EXTRACT: note_off channel=9 note=70 velocity=65 time=0.024
EXTRACT: note_off channel=9 note=42 velocity=64 time=0
EXTRACT: note_off channel=3 note=69 velocity=64 time=0.061
EXTRACT: note_off channel=8 note=48 velocity=64 time=0.004
EXTRACT: note_off channel=5 note=36 velocity=65 time=0.022
EXTRACT: note_off channel=2 note=48 velocity=64 time=0
EXTRACT: note_on channel=2 note=48 velocity=124 time=0.009000000000000001
EXTRACT: note_on channel=5 note=36 velocity=113 time=0
EXTRACT: note_on channel=8 note=48 velocity=76 time=0
EXTRACT: note_on channel=9 note=44 velocity=98 time=0
EXTRACT: note_on channel=9 note=70 velocity=106 time=0
EXTRACT: note_off channel=9 note=70 velocity=64 time=0.024
EXTRACT: note_off channel=9 note=44 velocity=65 time=0
EXTRACT: note_off channel=1 note=36 velocity=65 time=0.06
EXTRACT: note_off channel=5 note=36 velocity=65 time=0.027
EXTRACT: note_off channel=2 note=48 velocity=65 time=0
EXTRACT: note_on channel=1 note=26 velocity=123 time=0.009000000000000001
EXTRACT: note_on channel=2 note=38 velocity=125 time=0
EXTRACT: note_on channel=5 note=38 velocity=113 time=0
EXTRACT: note_on channel=8 note=38 velocity=84 time=0
EXTRACT: note_on channel=9 note=36 velocity=126 time=0
EXTRACT: note_on channel=9 note=42 velocity=122 time=0
EXTRACT: note_on channel=9 note=70 velocity=107 time=0
EXTRACT: note_off channel=8 note=48 velocity=64 time=0
EXTRACT: note_off channel=9 note=70 velocity=64 time=0.024
EXTRACT: note_off channel=9 note=42 velocity=65 time=0
EXTRACT: note_off channel=9 note=36 velocity=65 time=0
EXTRACT: note_on channel=3 note=74 velocity=117 time=0
EXTRACT: note_off channel=5 note=38 velocity=64 time=0.075
EXTRACT: note_off channel=2 note=38 velocity=65 time=0
EXTRACT: note_off channel=8 note=38 velocity=65 time=0.003
EXTRACT: note_on channel=2 note=38 velocity=74 time=0.006
EXTRACT: note_on channel=5 note=38 velocity=62 time=0
EXTRACT: note_off channel=3 note=74 velocity=65 time=0.063
EXTRACT: note_off channel=1 note=26 velocity=65 time=0.021
EXTRACT: note_off channel=5 note=38 velocity=64 time=0.027
EXTRACT: note_off channel=2 note=38 velocity=64 time=0
EXTRACT: note_on channel=1 note=38 velocity=122 time=0.009000000000000001
EXTRACT: note_on channel=2 note=50 velocity=125 time=0
EXTRACT: note_on channel=5 note=38 velocity=112 time=0
EXTRACT: note_on channel=8 note=50 velocity=85 time=0
EXTRACT: note_on channel=9 note=46 velocity=104 time=0
EXTRACT: note_on channel=9 note=70 velocity=106 time=0
EXTRACT: note_on channel=3 note=74 velocity=116 time=0
EXTRACT: note_off channel=9 note=70 velocity=64 time=0.017
EXTRACT: note_off channel=9 note=46 velocity=65 time=0
EXTRACT: note_off channel=8 note=50 velocity=65 time=0.051000000000000004
EXTRACT: note_off channel=5 note=38 velocity=65 time=0.036000000000000004
EXTRACT: note_off channel=2 note=50 velocity=64 time=0
EXTRACT: note_on channel=2 note=50 velocity=125 time=0.009000000000000001
EXTRACT: note_on channel=5 note=38 velocity=113 time=0
EXTRACT: note_on channel=8 note=50 velocity=84 time=0
EXTRACT: note_on channel=9 note=70 velocity=107 time=0
EXTRACT: note_off channel=9 note=70 velocity=64 time=0.024
EXTRACT: note_off channel=3 note=74 velocity=64 time=0.068
EXTRACT: note_off channel=1 note=38 velocity=64 time=0.007
EXTRACT: note_off channel=5 note=38 velocity=64 time=0.012
EXTRACT: note_off channel=2 note=50 velocity=65 time=0
EXTRACT: note_on channel=9 note=39 velocity=119 time=0.001
EXTRACT: note_off channel=8 note=50 velocity=64 time=0.005
EXTRACT: note_on channel=1 note=26 velocity=122 time=0.003
EXTRACT: note_on channel=2 note=38 velocity=124 time=0
EXTRACT: note_on channel=5 note=38 velocity=113 time=0
EXTRACT: note_on channel=8 note=38 velocity=85 time=0
EXTRACT: note_on channel=9 note=36 velocity=127 time=0
EXTRACT: note_on channel=9 note=38 velocity=116 time=0
EXTRACT: note_on channel=9 note=42 velocity=111 time=0
EXTRACT: note_on channel=9 note=70 velocity=107 time=0
EXTRACT: note_off channel=9 note=39 velocity=64 time=0.017
EXTRACT: note_off channel=9 note=70 velocity=65 time=0.007
EXTRACT: note_off channel=9 note=42 velocity=65 time=0
EXTRACT: note_off channel=9 note=38 velocity=64 time=0
EXTRACT: note_off channel=9 note=36 velocity=64 time=0
EXTRACT: note_on channel=3 note=69 velocity=117 time=0
EXTRACT: note_off channel=5 note=38 velocity=65 time=0.019
EXTRACT: note_off channel=2 note=38 velocity=65 time=0
EXTRACT: note_off channel=8 note=38 velocity=64 time=0.003
EXTRACT: note_on channel=2 note=38 velocity=75 time=0.006
EXTRACT: note_on channel=5 note=38 velocity=62 time=0
EXTRACT: note_off channel=1 note=26 velocity=64 time=0.069
EXTRACT: note_off channel=5 note=38 velocity=65 time=0.042
EXTRACT: note_off channel=2 note=38 velocity=64 time=0
EXTRACT: note_on channel=1 note=38 velocity=123 time=0.009000000000000001
EXTRACT: note_on channel=2 note=50 velocity=124 time=0
EXTRACT: note_on channel=5 note=38 velocity=112 time=0
EXTRACT: note_on channel=8 note=50 velocity=79 time=0
EXTRACT: note_on channel=9 note=42 velocity=124 time=0
EXTRACT: note_on channel=9 note=70 velocity=106 time=0
EXTRACT: note_off channel=9 note=70 velocity=65 time=0.024
EXTRACT: note_off channel=9 note=42 velocity=65 time=0
EXTRACT: note_off channel=8 note=50 velocity=65 time=0.035
EXTRACT: note_off channel=3 note=69 velocity=65 time=0.004
EXTRACT: note_off channel=5 note=38 velocity=64 time=0.048
EXTRACT: note_off channel=2 note=50 velocity=64 time=0
EXTRACT: note_on channel=2 note=50 velocity=124 time=0.009000000000000001
EXTRACT: note_on channel=5 note=38 velocity=113 time=0
EXTRACT: note_on channel=8 note=50 velocity=74 time=0
EXTRACT: note_on channel=9 note=44 velocity=98 time=0
EXTRACT: note_on channel=9 note=70 velocity=107 time=0
EXTRACT: note_off channel=9 note=70 velocity=64 time=0.024
EXTRACT: note_off channel=9 note=44 velocity=64 time=0
EXTRACT: note_off channel=1 note=38 velocity=65 time=0.075
EXTRACT: note_off channel=8 note=50 velocity=64 time=0.011
EXTRACT: note_off channel=5 note=38 velocity=65 time=0.001
EXTRACT: note_off channel=2 note=50 velocity=65 time=0
EXTRACT: note_on channel=1 note=29 velocity=122 time=0.009000000000000001
EXTRACT: note_on channel=2 note=41 velocity=125 time=0
EXTRACT: note_on channel=5 note=41 velocity=112 time=0
EXTRACT: note_on channel=8 note=41 velocity=85 time=0
EXTRACT: note_on channel=9 note=36 velocity=126 time=0
EXTRACT: note_on channel=9 note=42 velocity=124 time=0
EXTRACT: note_on channel=9 note=70 velocity=106 time=0
EXTRACT: note_on channel=3 note=74 velocity=117 time=0
EXTRACT: note_off channel=9 note=70 velocity=65 time=0.008
EXTRACT: note_off channel=9 note=42 velocity=64 time=0
EXTRACT: note_off channel=9 note=36 velocity=65 time=0
EXTRACT: note_off channel=5 note=41 velocity=64 time=0.08700000000000001
EXTRACT: note_off channel=2 note=41 velocity=64 time=0
EXTRACT: note_off channel=8 note=41 velocity=65 time=0.003
EXTRACT: note_on channel=2 note=41 velocity=75 time=0.006
EXTRACT: note_on channel=5 note=41 velocity=63 time=0
EXTRACT: note_off channel=3 note=74 velocity=65 time=0.074
EXTRACT: note_off channel=1 note=29 velocity=64 time=0.025
EXTRACT: note_off channel=5 note=41 velocity=64 time=0.012
EXTRACT: note_off channel=2 note=41 velocity=65 time=0
EXTRACT: note_on channel=1 note=41 velocity=123 time=0.009000000000000001
EXTRACT: note_on channel=2 note=53 velocity=124 time=0
EXTRACT: note_on channel=5 note=41 velocity=113 time=0
EXTRACT: note_on channel=8 note=53 velocity=84 time=0
EXTRACT: note_on channel=9 note=46 velocity=111 time=0
EXTRACT: note_on channel=9 note=70 velocity=106 time=0
EXTRACT: note_off channel=9 note=70 velocity=65 time=0.024
EXTRACT: note_off channel=9 note=46 velocity=64 time=0
EXTRACT: note_on channel=3 note=69 velocity=116 time=0
EXTRACT: note_off channel=8 note=53 velocity=65 time=0.043000000000000003
EXTRACT: note_off channel=5 note=41 velocity=65 time=0.032
EXTRACT: note_off channel=2 note=53 velocity=65 time=0
EXTRACT: note_on channel=2 note=53 velocity=124 time=0.009000000000000001
EXTRACT: note_on channel=5 note=41 velocity=112 time=0
EXTRACT: note_on channel=8 note=53 velocity=84 time=0
EXTRACT: note_on channel=9 note=70 velocity=107 time=0
EXTRACT: note_off channel=9 note=70 velocity=65 time=0.024
EXTRACT: note_off channel=1 note=41 velocity=65 time=0.06
EXTRACT: note_off channel=5 note=41 velocity=65 time=0.027
EXTRACT: note_off channel=2 note=53 velocity=64 time=0
EXTRACT: note_on channel=9 note=39 velocity=119 time=0.001
EXTRACT: note_off channel=8 note=53 velocity=64 time=0.004
EXTRACT: note_on channel=1 note=24 velocity=123 time=0.004
EXTRACT: note_on channel=2 note=36 velocity=125 time=0
EXTRACT: note_on channel=5 note=36 velocity=113 time=0
EXTRACT: note_on channel=8 note=36 velocity=85 time=0
EXTRACT: note_on channel=9 note=36 velocity=126 time=0
EXTRACT: note_on channel=9 note=38 velocity=116 time=0
EXTRACT: note_on channel=9 note=42 velocity=113 time=0
EXTRACT: note_on channel=9 note=70 velocity=107 time=0
EXTRACT: note_off channel=9 note=39 velocity=64 time=0.017
EXTRACT: note_off channel=9 note=70 velocity=64 time=0.007
EXTRACT: note_off channel=9 note=42 velocity=65 time=0
EXTRACT: note_off channel=9 note=38 velocity=65 time=0
EXTRACT: note_off channel=9 note=36 velocity=64 time=0
EXTRACT: note_off channel=3 note=69 velocity=64 time=0.068
EXTRACT: note_off channel=5 note=36 velocity=64 time=0.019
EXTRACT: note_off channel=2 note=36 velocity=65 time=0
EXTRACT: note_off channel=8 note=36 velocity=65 time=0.003
EXTRACT: note_on channel=2 note=36 velocity=75 time=0.006
EXTRACT: note_on channel=5 note=36 velocity=62 time=0
EXTRACT: note_off channel=1 note=24 velocity=65 time=0.084
EXTRACT: note_off channel=5 note=36 velocity=64 time=0.027
EXTRACT: note_off channel=2 note=36 velocity=64 time=0
EXTRACT: note_on channel=1 note=36 velocity=122 time=0.009000000000000001
EXTRACT: note_on channel=2 note=48 velocity=124 time=0
EXTRACT: note_on channel=5 note=36 velocity=112 time=0
EXTRACT: note_on channel=8 note=48 velocity=87 time=0
EXTRACT: note_on channel=9 note=42 velocity=109 time=0
EXTRACT: note_on channel=9 note=70 velocity=106 time=0
EXTRACT: note_on channel=3 note=74 velocity=117 time=0
EXTRACT: note_off channel=9 note=70 velocity=64 time=0.018000000000000002
EXTRACT: note_off channel=9 note=42 velocity=65 time=0
EXTRACT: note_off channel=8 note=48 velocity=64 time=0.053
EXTRACT: note_off channel=5 note=36 velocity=65 time=0.022
EXTRACT: note_off channel=2 note=48 velocity=64 time=0
EXTRACT: note_on channel=2 note=48 velocity=124 time=0.009000000000000001
EXTRACT: note_on channel=5 note=36 velocity=113 time=0
EXTRACT: note_on channel=8 note=48 velocity=72 time=0
EXTRACT: note_on channel=9 note=44 velocity=99 time=0
EXTRACT: note_on channel=9 note=70 velocity=106 time=0
EXTRACT: note_off channel=9 note=70 velocity=65 time=0.024
EXTRACT: note_off channel=9 note=44 velocity=64 time=0
EXTRACT: note_off channel=1 note=36 velocity=64 time=0.06
EXTRACT: control_change channel=9 control=91 value=20 time=0.006
EXTRACT: note_off channel=5 note=36 velocity=65 time=0.024
EXTRACT: note_off channel=2 note=48 velocity=65 time=0
EXTRACT: note_on channel=1 note=26 velocity=123 time=0.006
EXTRACT: note_on channel=2 note=38 velocity=125 time=0
EXTRACT: note_on channel=5 note=38 velocity=113 time=0
EXTRACT: note_on channel=8 note=38 velocity=84 time=0
EXTRACT: note_on channel=9 note=36 velocity=127 time=0
EXTRACT: note_on channel=9 note=42 velocity=124 time=0
EXTRACT: note_on channel=9 note=70 velocity=107 time=0
EXTRACT: note_off channel=8 note=48 velocity=64 time=0
EXTRACT: note_off channel=9 note=70 velocity=64 time=0.024
EXTRACT: note_off channel=9 note=42 velocity=65 time=0
EXTRACT: note_off channel=9 note=36 velocity=64 time=0
EXTRACT: note_off channel=5 note=38 velocity=64 time=0.08700000000000001
EXTRACT: note_off channel=2 note=38 velocity=65 time=0
EXTRACT: note_off channel=8 note=38 velocity=65 time=0.003
EXTRACT: note_on channel=2 note=38 velocity=74 time=0.006
EXTRACT: note_on channel=5 note=38 velocity=62 time=0
EXTRACT: note_off channel=3 note=74 velocity=65 time=0
EXTRACT: note_off channel=1 note=26 velocity=65 time=0.084
EXTRACT: note_off channel=5 note=38 velocity=64 time=0.027
EXTRACT: note_off channel=2 note=38 velocity=64 time=0
EXTRACT: note_on channel=1 note=38 velocity=122 time=0.009000000000000001
EXTRACT: note_on channel=2 note=50 velocity=125 time=0
EXTRACT: note_on channel=5 note=38 velocity=112 time=0
EXTRACT: note_on channel=8 note=50 velocity=85 time=0
EXTRACT: note_on channel=9 note=46 velocity=111 time=0
EXTRACT: note_on channel=9 note=70 velocity=107 time=0
EXTRACT: note_off channel=9 note=70 velocity=65 time=0.024
EXTRACT: note_off channel=9 note=46 velocity=65 time=0
EXTRACT: note_off channel=8 note=50 velocity=65 time=0.051000000000000004
EXTRACT: note_off channel=5 note=38 velocity=65 time=0.036000000000000004
EXTRACT: note_off channel=2 note=50 velocity=64 time=0
EXTRACT: note_on channel=2 note=50 velocity=125 time=0.009000000000000001
EXTRACT: note_on channel=5 note=38 velocity=113 time=0
EXTRACT: note_on channel=8 note=50 velocity=85 time=0
EXTRACT: note_on channel=9 note=70 velocity=106 time=0
EXTRACT: note_off channel=9 note=70 velocity=64 time=0.024
EXTRACT: note_off channel=1 note=38 velocity=64 time=0.075
EXTRACT: note_off channel=5 note=38 velocity=64 time=0.012
EXTRACT: note_off channel=2 note=50 velocity=65 time=0
EXTRACT: note_on channel=9 note=39 velocity=118 time=0.001
EXTRACT: note_off channel=8 note=50 velocity=64 time=0.005
EXTRACT: note_on channel=1 note=26 velocity=122 time=0.003
EXTRACT: note_on channel=2 note=38 velocity=124 time=0
EXTRACT: note_on channel=5 note=38 velocity=113 time=0
EXTRACT: note_on channel=8 note=38 velocity=84 time=0
EXTRACT: note_on channel=9 note=36 velocity=127 time=0
EXTRACT: note_on channel=9 note=38 velocity=117 time=0
EXTRACT: note_on channel=9 note=42 velocity=122 time=0
EXTRACT: note_on channel=9 note=70 velocity=106 time=0
EXTRACT: note_off channel=9 note=39 velocity=65 time=0.017
EXTRACT: note_off channel=9 note=70 velocity=64 time=0.007
EXTRACT: note_off channel=9 note=42 velocity=64 time=0
EXTRACT: note_off channel=9 note=38 velocity=65 time=0
EXTRACT: note_off channel=9 note=36 velocity=65 time=0
EXTRACT: note_off channel=5 note=38 velocity=65 time=0.08700000000000001
EXTRACT: note_off channel=2 note=38 velocity=65 time=0
EXTRACT: note_off channel=8 note=38 velocity=64 time=0.003
EXTRACT: note_on channel=2 note=38 velocity=75 time=0.006
EXTRACT: note_on channel=5 note=38 velocity=62 time=0
EXTRACT: note_off channel=1 note=26 velocity=64 time=0.069
EXTRACT: note_off channel=5 note=38 velocity=65 time=0.042
EXTRACT: note_off channel=2 note=38 velocity=64 time=0
EXTRACT: note_on channel=1 note=38 velocity=123 time=0.009000000000000001
EXTRACT: note_on channel=2 note=50 velocity=124 time=0
EXTRACT: note_on channel=5 note=38 velocity=112 time=0
EXTRACT: note_on channel=8 note=50 velocity=78 time=0
EXTRACT: note_on channel=9 note=42 velocity=117 time=0
EXTRACT: note_on channel=9 note=70 velocity=107 time=0
EXTRACT: note_off channel=9 note=70 velocity=64 time=0.024
EXTRACT: note_off channel=9 note=42 velocity=64 time=0
EXTRACT: note_off channel=8 note=50 velocity=65 time=0.035
EXTRACT: note_off channel=5 note=38 velocity=64 time=0.052000000000000005
EXTRACT: note_off channel=2 note=50 velocity=64 time=0
EXTRACT: note_on channel=2 note=50 velocity=124 time=0.009000000000000001
EXTRACT: note_on channel=5 note=38 velocity=113 time=0
EXTRACT: note_on channel=8 note=50 velocity=75 time=0
EXTRACT: note_on channel=9 note=44 velocity=98 time=0
EXTRACT: note_on channel=9 note=70 velocity=106 time=0
EXTRACT: note_off channel=9 note=70 velocity=65 time=0.024
EXTRACT: note_off channel=9 note=44 velocity=65 time=0
EXTRACT: note_off channel=1 note=38 velocity=65 time=0.075
EXTRACT: note_off channel=8 note=50 velocity=65 time=0.011
EXTRACT: note_off channel=5 note=38 velocity=65 time=0.001
EXTRACT: note_off channel=2 note=50 velocity=65 time=0
EXTRACT: note_on channel=1 note=29 velocity=123 time=0.009000000000000001
EXTRACT: note_on channel=2 note=41 velocity=125 time=0
EXTRACT: note_on channel=5 note=41 velocity=112 time=0
EXTRACT: note_on channel=8 note=41 velocity=84 time=0
EXTRACT: note_on channel=9 note=36 velocity=126 time=0
EXTRACT: note_on channel=9 note=42 velocity=125 time=0
EXTRACT: note_on channel=9 note=70 velocity=107 time=0
EXTRACT: note_off channel=9 note=70 velocity=64 time=0.024
EXTRACT: note_off channel=9 note=42 velocity=64 time=0
EXTRACT: note_off channel=9 note=36 velocity=65 time=0
EXTRACT: note_off channel=5 note=41 velocity=64 time=0.08700000000000001
EXTRACT: note_off channel=2 note=41 velocity=64 time=0
EXTRACT: note_off channel=8 note=41 velocity=64 time=0.003
EXTRACT: note_on channel=2 note=41 velocity=75 time=0.006
EXTRACT: note_on channel=5 note=41 velocity=63 time=0
EXTRACT: note_off channel=1 note=29 velocity=65 time=0.099
EXTRACT: note_off channel=5 note=41 velocity=64 time=0.012
EXTRACT: note_off channel=2 note=41 velocity=65 time=0
EXTRACT: note_on channel=1 note=41 velocity=122 time=0.009000000000000001
EXTRACT: note_on channel=2 note=53 velocity=124 time=0
EXTRACT: note_on channel=5 note=41 velocity=113 time=0
EXTRACT: note_on channel=8 note=53 velocity=85 time=0
EXTRACT: note_on channel=9 note=46 velocity=106 time=0
EXTRACT: note_on channel=9 note=70 velocity=107 time=0
EXTRACT: note_on channel=3 note=77 velocity=116 time=0
EXTRACT: note_off channel=9 note=70 velocity=64 time=0.015
EXTRACT: note_off channel=9 note=46 velocity=65 time=0
EXTRACT: note_off channel=8 note=53 velocity=64 time=0.055
EXTRACT: note_off channel=5 note=41 velocity=65 time=0.032
EXTRACT: note_off channel=2 note=53 velocity=65 time=0
EXTRACT: note_on channel=2 note=53 velocity=124 time=0.009000000000000001
EXTRACT: note_on channel=5 note=41 velocity=112 time=0
EXTRACT: note_on channel=8 note=53 velocity=85 time=0
EXTRACT: note_on channel=9 note=70 velocity=106 time=0
EXTRACT: note_off channel=3 note=77 velocity=64 time=0.02
EXTRACT: note_off channel=9 note=70 velocity=65 time=0.004
EXTRACT: note_off channel=1 note=41 velocity=64 time=0.06
EXTRACT: note_off channel=5 note=41 velocity=65 time=0.027
EXTRACT: note_off channel=2 note=53 velocity=64 time=0
EXTRACT: note_on channel=9 note=39 velocity=119 time=0.001
EXTRACT: note_off channel=8 note=53 velocity=65 time=0.004
EXTRACT: note_on channel=1 note=24 velocity=122 time=0.004
EXTRACT: note_on channel=2 note=36 velocity=125 time=0
EXTRACT: note_on channel=5 note=36 velocity=113 time=0
EXTRACT: note_on channel=8 note=36 velocity=84 time=0
EXTRACT: note_on channel=9 note=36 velocity=126 time=0
EXTRACT: note_on channel=9 note=38 velocity=117 time=0
EXTRACT: note_on channel=9 note=42 velocity=116 time=0
EXTRACT: note_on channel=9 note=70 velocity=107 time=0
EXTRACT: note_on channel=3 note=79 velocity=116 time=0
EXTRACT: note_off channel=9 note=39 velocity=64 time=0.01
EXTRACT: note_off channel=9 note=70 velocity=65 time=0.007
EXTRACT: note_off channel=9 note=42 velocity=64 time=0
EXTRACT: note_off channel=9 note=38 velocity=64 time=0
EXTRACT: note_off channel=9 note=36 velocity=65 time=0
EXTRACT: note_off channel=5 note=36 velocity=64 time=0.08700000000000001
EXTRACT: note_off channel=2 note=36 velocity=65 time=0
EXTRACT: note_off channel=8 note=36 velocity=64 time=0.003
EXTRACT: note_on channel=2 note=36 velocity=75 time=0.006
EXTRACT: note_on channel=5 note=36 velocity=62 time=0
EXTRACT: note_off channel=3 note=79 velocity=64 time=0.065
EXTRACT: note_off channel=1 note=24 velocity=64 time=0.019
EXTRACT: note_off channel=5 note=36 velocity=64 time=0.027
EXTRACT: note_off channel=2 note=36 velocity=64 time=0
EXTRACT: note_on channel=1 note=36 velocity=123 time=0.009000000000000001
EXTRACT: note_on channel=2 note=48 velocity=124 time=0
EXTRACT: note_on channel=5 note=36 velocity=112 time=0
EXTRACT: note_on channel=8 note=48 velocity=87 time=0
EXTRACT: note_on channel=9 note=42 velocity=116 time=0
EXTRACT: note_on channel=9 note=70 velocity=106 time=0
EXTRACT: note_on channel=3 note=77 velocity=117 time=0
EXTRACT: note_off channel=9 note=70 velocity=65 time=0.023
EXTRACT: note_off channel=9 note=42 velocity=64 time=0
EXTRACT: note_off channel=8 note=48 velocity=65 time=0.065
EXTRACT: note_off channel=5 note=36 velocity=65 time=0.022
EXTRACT: note_off channel=2 note=48 velocity=64 time=0
EXTRACT: note_on channel=2 note=48 velocity=124 time=0.009000000000000001
EXTRACT: note_on channel=5 note=36 velocity=113 time=0
EXTRACT: note_on channel=8 note=48 velocity=76 time=0
EXTRACT: note_on channel=9 note=44 velocity=99 time=0
EXTRACT: note_on channel=9 note=70 velocity=106 time=0
EXTRACT: note_off channel=3 note=77 velocity=65 time=0.012
EXTRACT: note_off channel=9 note=70 velocity=64 time=0.012
EXTRACT: note_off channel=9 note=44 velocity=65 time=0
EXTRACT: note_off channel=1 note=36 velocity=65 time=0.06
EXTRACT: note_on channel=3 note=79 velocity=117 time=0
EXTRACT: note_off channel=5 note=36 velocity=65 time=0.005
EXTRACT: note_off channel=2 note=48 velocity=65 time=0
EXTRACT: note_on channel=1 note=26 velocity=123 time=0.009000000000000001
EXTRACT: note_on channel=2 note=38 velocity=125 time=0
EXTRACT: note_on channel=5 note=38 velocity=113 time=0
EXTRACT: note_on channel=8 note=38 velocity=84 time=0
EXTRACT: note_on channel=9 note=36 velocity=127 time=0
EXTRACT: note_on channel=9 note=42 velocity=117 time=0
EXTRACT: note_on channel=9 note=70 velocity=107 time=0
EXTRACT: note_off channel=8 note=48 velocity=65 time=0
EXTRACT: note_off channel=9 note=70 velocity=65 time=0.024
EXTRACT: note_off channel=9 note=42 velocity=64 time=0
EXTRACT: note_off channel=9 note=36 velocity=64 time=0
EXTRACT: note_off channel=5 note=38 velocity=64 time=0.08700000000000001
EXTRACT: note_off channel=2 note=38 velocity=65 time=0
EXTRACT: note_off channel=8 note=38 velocity=64 time=0.003
EXTRACT: note_on channel=2 note=38 velocity=74 time=0.006
EXTRACT: note_on channel=5 note=38 velocity=62 time=0
EXTRACT: note_off channel=3 note=79 velocity=65 time=0.064
EXTRACT: note_off channel=1 note=26 velocity=65 time=0.02
EXTRACT: note_off channel=5 note=38 velocity=64 time=0.027
EXTRACT: note_off channel=2 note=38 velocity=64 time=0
EXTRACT: note_on channel=3 note=77 velocity=116 time=0
EXTRACT: note_on channel=1 note=38 velocity=122 time=0.001
EXTRACT: note_on channel=2 note=50 velocity=125 time=0
EXTRACT: note_on channel=5 note=38 velocity=112 time=0
EXTRACT: note_on channel=8 note=50 velocity=85 time=0
EXTRACT: note_on channel=9 note=46 velocity=105 time=0
EXTRACT: note_on channel=9 note=70 velocity=107 time=0
EXTRACT: note_off channel=9 note=70 velocity=65 time=0.024
EXTRACT: note_off channel=9 note=46 velocity=64 time=0
EXTRACT: note_off channel=8 note=50 velocity=65 time=0.051000000000000004
EXTRACT: note_off channel=5 note=38 velocity=65 time=0.036000000000000004
EXTRACT: note_off channel=2 note=50 velocity=64 time=0
EXTRACT: note_on channel=2 note=50 velocity=125 time=0.009000000000000001
EXTRACT: note_on channel=5 note=38 velocity=113 time=0
EXTRACT: note_on channel=8 note=50 velocity=85 time=0
EXTRACT: note_on channel=9 note=70 velocity=106 time=0
EXTRACT: note_off channel=9 note=70 velocity=65 time=0.024
EXTRACT: note_off channel=1 note=38 velocity=64 time=0.075
EXTRACT: note_off channel=5 note=38 velocity=64 time=0.012
EXTRACT: note_off channel=2 note=50 velocity=65 time=0
EXTRACT: note_on channel=9 note=39 velocity=118 time=0.001
EXTRACT: note_off channel=8 note=50 velocity=64 time=0.005
EXTRACT: note_on channel=1 note=26 velocity=122 time=0.003
EXTRACT: note_on channel=2 note=38 velocity=124 time=0
EXTRACT: note_on channel=5 note=38 velocity=113 time=0
EXTRACT: note_on channel=8 note=38 velocity=84 time=0
EXTRACT: note_on channel=9 note=36 velocity=127 time=0
EXTRACT: note_on channel=9 note=38 velocity=116 time=0
EXTRACT: note_on channel=9 note=42 velocity=116 time=0
EXTRACT: note_on channel=9 note=70 velocity=106 time=0
EXTRACT: note_off channel=9 note=39 velocity=65 time=0.017
EXTRACT: note_off channel=9 note=70 velocity=64 time=0.007
EXTRACT: note_off channel=9 note=42 velocity=65 time=0
EXTRACT: note_off channel=9 note=38 velocity=64 time=0
EXTRACT: note_off channel=9 note=36 velocity=64 time=0
EXTRACT: note_off channel=3 note=77 velocity=64 time=0.063
EXTRACT: note_off channel=5 note=38 velocity=65 time=0.024
EXTRACT: note_off channel=2 note=38 velocity=65 time=0
EXTRACT: note_off channel=8 note=38 velocity=64 time=0.003
EXTRACT: note_on channel=2 note=38 velocity=75 time=0.006
EXTRACT: note_on channel=5 note=38 velocity=62 time=0
EXTRACT: note_off channel=1 note=26 velocity=64 time=0.069
EXTRACT: note_on channel=3 note=77 velocity=116 time=0
EXTRACT: note_off channel=5 note=38 velocity=65 time=0.007
EXTRACT: note_off channel=2 note=38 velocity=64 time=0
EXTRACT: note_on channel=1 note=38 velocity=123 time=0.009000000000000001
EXTRACT: note_on channel=2 note=50 velocity=124 time=0
EXTRACT: note_on channel=5 note=38 velocity=112 time=0
EXTRACT: note_on channel=8 note=50 velocity=78 time=0
EXTRACT: note_on channel=9 note=42 velocity=115 time=0
EXTRACT: note_on channel=9 note=70 velocity=107 time=0
EXTRACT: note_off channel=9 note=70 velocity=65 time=0.024
EXTRACT: note_off channel=9 note=42 velocity=65 time=0
EXTRACT: note_off channel=8 note=50 velocity=65 time=0.035
EXTRACT: note_off channel=5 note=38 velocity=64 time=0.052000000000000005
EXTRACT: note_off channel=2 note=50 velocity=64 time=0
EXTRACT: note_on channel=2 note=50 velocity=124 time=0.009000000000000001
EXTRACT: note_on channel=5 note=38 velocity=113 time=0
EXTRACT: note_on channel=8 note=50 velocity=75 time=0
EXTRACT: note_on channel=9 note=44 velocity=99 time=0
EXTRACT: note_on channel=9 note=70 velocity=107 time=0
EXTRACT: note_off channel=9 note=70 velocity=64 time=0.024
EXTRACT: note_off channel=9 note=44 velocity=64 time=0
EXTRACT: note_off channel=3 note=77 velocity=64 time=0.07
EXTRACT: note_off channel=1 note=38 velocity=65 time=0.005
EXTRACT: note_off channel=8 note=50 velocity=65 time=0.011
EXTRACT: note_off channel=5 note=38 velocity=65 time=0.001
EXTRACT: note_off channel=2 note=50 velocity=65 time=0
EXTRACT: note_on channel=1 note=29 velocity=122 time=0.009000000000000001
EXTRACT: note_on channel=2 note=41 velocity=125 time=0
EXTRACT: note_on channel=5 note=41 velocity=112 time=0
EXTRACT: note_on channel=8 note=41 velocity=85 time=0
EXTRACT: note_on channel=9 note=36 velocity=126 time=0
EXTRACT: note_on channel=9 note=42 velocity=119 time=0
EXTRACT: note_on channel=9 note=70 velocity=106 time=0
EXTRACT: note_on channel=3 note=72 velocity=117 time=0
EXTRACT: note_off channel=9 note=70 velocity=65 time=0.02
EXTRACT: note_off channel=9 note=42 velocity=65 time=0
EXTRACT: note_off channel=9 note=36 velocity=64 time=0
EXTRACT: note_off channel=5 note=41 velocity=64 time=0.077
EXTRACT: note_off channel=2 note=41 velocity=64 time=0
EXTRACT: note_off channel=8 note=41 velocity=64 time=0.003
EXTRACT: note_on channel=2 note=41 velocity=75 time=0.006
EXTRACT: note_on channel=5 note=41 velocity=63 time=0
EXTRACT: note_off channel=1 note=29 velocity=64 time=0.099
EXTRACT: note_off channel=5 note=41 velocity=64 time=0.012
EXTRACT: note_off channel=2 note=41 velocity=65 time=0
EXTRACT: note_on channel=1 note=41 velocity=123 time=0.009000000000000001
EXTRACT: note_on channel=2 note=53 velocity=124 time=0
EXTRACT: note_on channel=5 note=41 velocity=113 time=0
EXTRACT: note_on channel=8 note=53 velocity=84 time=0
EXTRACT: note_on channel=9 note=46 velocity=106 time=0
EXTRACT: note_on channel=9 note=70 velocity=106 time=0
EXTRACT: pitchwheel channel=3 pitch=6581 time=0.023
EXTRACT: note_off channel=9 note=70 velocity=64 time=0.001
EXTRACT: note_off channel=9 note=46 velocity=65 time=0
EXTRACT: pitchwheel channel=3 pitch=8191 time=0.013000000000000001
EXTRACT: note_off channel=8 note=53 velocity=64 time=0.042
EXTRACT: note_off channel=5 note=41 velocity=65 time=0.032
EXTRACT: note_off channel=2 note=53 velocity=65 time=0
EXTRACT: note_on channel=2 note=53 velocity=124 time=0.009000000000000001
EXTRACT: note_on channel=5 note=41 velocity=112 time=0
EXTRACT: note_on channel=8 note=53 velocity=84 time=0
EXTRACT: note_on channel=9 note=70 velocity=107 time=0
EXTRACT: note_off channel=9 note=70 velocity=64 time=0.024
EXTRACT: note_off channel=1 note=41 velocity=65 time=0.06
EXTRACT: control_change channel=9 control=91 value=30 time=0.006
EXTRACT: note_off channel=5 note=41 velocity=65 time=0.021
EXTRACT: note_off channel=2 note=53 velocity=64 time=0
EXTRACT: note_on channel=9 note=39 velocity=118 time=0.001
EXTRACT: note_off channel=8 note=53 velocity=65 time=0.004
EXTRACT: note_on channel=1 note=24 velocity=123 time=0.004
EXTRACT: note_on channel=2 note=36 velocity=125 time=0
EXTRACT: note_on channel=5 note=36 velocity=113 time=0
EXTRACT: note_on channel=8 note=36 velocity=85 time=0
EXTRACT: note_on channel=9 note=36 velocity=126 time=0
EXTRACT: note_on channel=9 note=38 velocity=116 time=0
EXTRACT: note_on channel=9 note=42 velocity=122 time=0
EXTRACT: note_on channel=9 note=70 velocity=106 time=0
EXTRACT: note_off channel=9 note=39 velocity=65 time=0.017
EXTRACT: note_off channel=9 note=70 velocity=65 time=0.007
EXTRACT: note_off channel=9 note=42 velocity=64 time=0
EXTRACT: note_off channel=9 note=38 velocity=65 time=0
EXTRACT: note_off channel=9 note=36 velocity=64 time=0
EXTRACT: note_off channel=3 note=72 velocity=65 time=0.01
EXTRACT: note_off channel=5 note=36 velocity=64 time=0.077
EXTRACT: note_off channel=2 note=36 velocity=65 time=0
EXTRACT: note_off channel=8 note=36 velocity=65 time=0.003
EXTRACT: note_on channel=2 note=36 velocity=75 time=0.006
EXTRACT: note_on channel=5 note=36 velocity=62 time=0
EXTRACT: note_on channel=12 note=76 velocity=127 time=0.064
EXTRACT: note_on channel=12 note=84 velocity=127 time=0.01
EXTRACT: note_off channel=1 note=24 velocity=65 time=0.01
EXTRACT: note_off channel=5 note=36 velocity=64 time=0.027
EXTRACT: note_off channel=2 note=36 velocity=64 time=0
EXTRACT: pitchwheel channel=3 pitch=0 time=0.004
EXTRACT: note_on channel=1 note=36 velocity=122 time=0.005
EXTRACT: note_on channel=2 note=48 velocity=124 time=0
EXTRACT: note_on channel=5 note=36 velocity=112 time=0
EXTRACT: note_on channel=8 note=48 velocity=86 time=0
EXTRACT: note_on channel=9 note=42 velocity=123 time=0
EXTRACT: note_on channel=9 note=55 velocity=115 time=0
EXTRACT: note_on channel=9 note=70 velocity=107 time=0
EXTRACT: note_off channel=9 note=70 velocity=64 time=0.024
EXTRACT: note_off channel=9 note=55 velocity=65 time=0
EXTRACT: note_off channel=9 note=42 velocity=65 time=0
EXTRACT: note_off channel=8 note=48 velocity=64 time=0.065
EXTRACT: note_off channel=5 note=36 velocity=65 time=0.022
EXTRACT: note_off channel=2 note=48 velocity=64 time=0
EXTRACT: note_on channel=2 note=48 velocity=124 time=0.009000000000000001
EXTRACT: note_on channel=5 note=36 velocity=113 time=0
EXTRACT: note_on channel=8 note=48 velocity=73 time=0
EXTRACT: note_on channel=9 note=44 velocity=98 time=0
EXTRACT: note_on channel=9 note=70 velocity=107 time=0
EXTRACT: note_off channel=9 note=70 velocity=64 time=0.024
EXTRACT: note_off channel=9 note=44 velocity=64 time=0
EXTRACT: note_off channel=1 note=36 velocity=64 time=0.06
EXTRACT: note_off channel=12 note=76 velocity=65 time=0.009000000000000001
EXTRACT: note_off channel=12 note=84 velocity=65 time=0.01
EXTRACT: note_off channel=5 note=36 velocity=65 time=0.011
EXTRACT: note_off channel=2 note=48 velocity=65 time=0
EXTRACT: note_on channel=1 note=26 velocity=123 time=0.006
EXTRACT: note_on channel=2 note=38 velocity=125 time=0
EXTRACT: note_on channel=5 note=38 velocity=113 time=0
EXTRACT: note_on channel=8 note=38 velocity=85 time=0
EXTRACT: note_on channel=9 note=36 velocity=127 time=0
EXTRACT: note_on channel=9 note=42 velocity=126 time=0
EXTRACT: note_on channel=9 note=70 velocity=106 time=0
EXTRACT: note_off channel=8 note=48 velocity=64 time=0
EXTRACT: note_on channel=3 note=74 velocity=117 time=0
EXTRACT: note_off channel=9 note=70 velocity=65 time=0.008
EXTRACT: note_off channel=9 note=42 velocity=65 time=0
EXTRACT: note_off channel=9 note=36 velocity=64 time=0
EXTRACT: note_off channel=5 note=38 velocity=64 time=0.08700000000000001
EXTRACT: note_off channel=2 note=38 velocity=65 time=0
EXTRACT: note_off channel=8 note=38 velocity=65 time=0.003
EXTRACT: note_on channel=2 note=38 velocity=74 time=0.006
EXTRACT: note_on channel=5 note=38 velocity=62 time=0
EXTRACT: note_off channel=1 note=26 velocity=65 time=0.084
EXTRACT: note_off channel=5 note=38 velocity=64 time=0.027
EXTRACT: note_off channel=2 note=38 velocity=64 time=0
EXTRACT: note_on channel=1 note=38 velocity=122 time=0.009000000000000001
EXTRACT: note_on channel=2 note=50 velocity=125 time=0
EXTRACT: note_on channel=5 note=38 velocity=112 time=0
EXTRACT: note_on channel=8 note=50 velocity=84 time=0
EXTRACT: note_on channel=9 note=46 velocity=112 time=0
EXTRACT: note_on channel=9 note=70 velocity=107 time=0
EXTRACT: note_off channel=9 note=70 velocity=64 time=0.024
EXTRACT: note_off channel=9 note=46 velocity=65 time=0
EXTRACT: note_off channel=8 note=50 velocity=64 time=0.051000000000000004
EXTRACT: note_off channel=3 note=74 velocity=65 time=0.012
EXTRACT: note_off channel=5 note=38 velocity=65 time=0.024
EXTRACT: note_off channel=2 note=50 velocity=64 time=0
EXTRACT: note_on channel=2 note=50 velocity=125 time=0.009000000000000001
EXTRACT: note_on channel=5 note=38 velocity=113 time=0
EXTRACT: note_on channel=8 note=50 velocity=85 time=0
EXTRACT: note_on channel=9 note=70 velocity=106 time=0
EXTRACT: note_off channel=9 note=70 velocity=64 time=0.024
EXTRACT: note_off channel=1 note=38 velocity=64 time=0.075
EXTRACT: note_off channel=5 note=38 velocity=64 time=0.012
EXTRACT: note_off channel=2 note=50 velocity=65 time=0
EXTRACT: note_on channel=9 note=39 velocity=119 time=0.001
EXTRACT: note_off channel=8 note=50 velocity=65 time=0.005
EXTRACT: note_on channel=1 note=26 velocity=122 time=0.003
EXTRACT: note_on channel=2 note=38 velocity=124 time=0
EXTRACT: note_on channel=5 note=38 velocity=113 time=0
EXTRACT: note_on channel=8 note=38 velocity=84 time=0
EXTRACT: note_on channel=9 note=36 velocity=126 time=0
EXTRACT: note_on channel=9 note=38 velocity=117 time=0
EXTRACT: note_on channel=9 note=42 velocity=118 time=0
EXTRACT: note_on channel=9 note=70 velocity=106 time=0
EXTRACT: note_off channel=9 note=39 velocity=65 time=0.017
EXTRACT: note_off channel=9 note=70 velocity=65 time=0.007
EXTRACT: note_off channel=9 note=42 velocity=64 time=0
EXTRACT: note_off channel=9 note=38 velocity=65 time=0
EXTRACT: note_off channel=9 note=36 velocity=64 time=0
EXTRACT: note_on channel=3 note=76 velocity=116 time=0
EXTRACT: note_off channel=5 note=38 velocity=65 time=0.08600000000000001
EXTRACT: note_off channel=2 note=38 velocity=65 time=0
EXTRACT: note_off channel=8 note=38 velocity=65 time=0.003
EXTRACT: note_on channel=2 note=38 velocity=75 time=0.006
EXTRACT: note_on channel=5 note=38 velocity=62 time=0
EXTRACT: note_off channel=1 note=26 velocity=64 time=0.069
EXTRACT: note_off channel=5 note=38 velocity=65 time=0.042
EXTRACT: note_off channel=2 note=38 velocity=64 time=0
EXTRACT: note_on channel=1 note=38 velocity=123 time=0.009000000000000001
EXTRACT: note_on channel=2 note=50 velocity=124 time=0
EXTRACT: note_on channel=5 note=38 velocity=112 time=0
EXTRACT: note_on channel=8 note=50 velocity=78 time=0
EXTRACT: note_on channel=9 note=42 velocity=117 time=0
EXTRACT: note_on channel=9 note=70 velocity=107 time=0
EXTRACT: note_off channel=9 note=70 velocity=64 time=0.024
EXTRACT: note_off channel=9 note=42 velocity=65 time=0
EXTRACT: note_off channel=8 note=50 velocity=64 time=0.035
EXTRACT: note_off channel=5 note=38 velocity=64 time=0.052000000000000005
EXTRACT: note_off channel=2 note=50 velocity=64 time=0
EXTRACT: note_off channel=3 note=76 velocity=64 time=0.001
EXTRACT: note_on channel=2 note=50 velocity=124 time=0.008
EXTRACT: note_on channel=5 note=38 velocity=113 time=0
EXTRACT: note_on channel=8 note=50 velocity=75 time=0
EXTRACT: note_on channel=9 note=44 velocity=99 time=0
EXTRACT: note_on channel=9 note=70 velocity=107 time=0
EXTRACT: note_off channel=9 note=70 velocity=65 time=0.024
EXTRACT: note_off channel=9 note=44 velocity=64 time=0
EXTRACT: note_off channel=1 note=38 velocity=65 time=0.075
EXTRACT: note_off channel=8 note=50 velocity=65 time=0.011
EXTRACT: note_off channel=5 note=38 velocity=65 time=0.001
EXTRACT: note_off channel=2 note=50 velocity=65 time=0
EXTRACT: note_on channel=1 note=29 velocity=123 time=0.009000000000000001
EXTRACT: note_on channel=2 note=41 velocity=125 time=0
EXTRACT: note_on channel=5 note=41 velocity=112 time=0
EXTRACT: note_on channel=8 note=41 velocity=85 time=0
EXTRACT: note_on channel=9 note=36 velocity=127 time=0
EXTRACT: note_on channel=9 note=42 velocity=125 time=0
EXTRACT: note_on channel=9 note=70 velocity=106 time=0
EXTRACT: note_on channel=3 note=77 velocity=116 time=0
EXTRACT: note_off channel=9 note=70 velocity=64 time=0.005
EXTRACT: note_off channel=9 note=42 velocity=65 time=0
EXTRACT: note_off channel=9 note=36 velocity=65 time=0
EXTRACT: note_off channel=5 note=41 velocity=64 time=0.08700000000000001
EXTRACT: note_off channel=2 note=41 velocity=64 time=0
EXTRACT: note_off channel=8 note=41 velocity=64 time=0.003
EXTRACT: note_on channel=2 note=41 velocity=75 time=0.006
EXTRACT: note_on channel=5 note=41 velocity=63 time=0
EXTRACT: note_off channel=1 note=29 velocity=65 time=0.099
EXTRACT: note_off channel=5 note=41 velocity=64 time=0.012
EXTRACT: note_off channel=2 note=41 velocity=65 time=0
EXTRACT: note_on channel=1 note=41 velocity=122 time=0.009000000000000001
EXTRACT: note_on channel=2 note=53 velocity=124 time=0
EXTRACT: note_on channel=5 note=41 velocity=113 time=0
EXTRACT: note_on channel=8 note=53 velocity=84 time=0
EXTRACT: note_on channel=9 note=46 velocity=111 time=0
EXTRACT: note_on channel=9 note=70 velocity=106 time=0
EXTRACT: note_off channel=9 note=70 velocity=64 time=0.024
EXTRACT: note_off channel=9 note=46 velocity=64 time=0
EXTRACT: note_off channel=8 note=53 velocity=64 time=0.055
EXTRACT: note_off channel=3 note=77 velocity=64 time=0.03
EXTRACT: note_off channel=5 note=41 velocity=65 time=0.002
EXTRACT: note_off channel=2 note=53 velocity=65 time=0
EXTRACT: note_on channel=2 note=53 velocity=124 time=0.009000000000000001
EXTRACT: note_on channel=5 note=41 velocity=112 time=0
EXTRACT: note_on channel=8 note=53 velocity=84 time=0
EXTRACT: note_on channel=9 note=70 velocity=107 time=0
EXTRACT: note_off channel=9 note=70 velocity=65 time=0.024
EXTRACT: note_off channel=1 note=41 velocity=64 time=0.06
EXTRACT: note_off channel=5 note=41 velocity=65 time=0.027
EXTRACT: note_off channel=2 note=53 velocity=64 time=0
EXTRACT: note_on channel=9 note=39 velocity=119 time=0.001
EXTRACT: note_off channel=8 note=53 velocity=65 time=0.004
EXTRACT: note_on channel=1 note=24 velocity=122 time=0.004
EXTRACT: note_on channel=2 note=36 velocity=125 time=0
EXTRACT: note_on channel=5 note=36 velocity=113 time=0
EXTRACT: note_on channel=8 note=36 velocity=85 time=0
EXTRACT: note_on channel=9 note=36 velocity=127 time=0
EXTRACT: note_on channel=9 note=38 velocity=116 time=0
EXTRACT: note_on channel=9 note=42 velocity=98 time=0
EXTRACT: note_on channel=9 note=70 velocity=107 time=0
EXTRACT: note_off channel=9 note=39 velocity=64 time=0.017
EXTRACT: note_off channel=9 note=70 velocity=65 time=0.007
EXTRACT: note_off channel=9 note=42 velocity=65 time=0
EXTRACT: note_off channel=9 note=38 velocity=64 time=0
EXTRACT: note_off channel=9 note=36 velocity=65 time=0
EXTRACT: note_on channel=3 note=76 velocity=117 time=0
EXTRACT: note_off channel=5 note=36 velocity=64 time=0.08
EXTRACT: note_off channel=2 note=36 velocity=65 time=0
EXTRACT: note_off channel=8 note=36 velocity=65 time=0.003
EXTRACT: note_on channel=2 note=36 velocity=75 time=0.006
EXTRACT: note_on channel=5 note=36 velocity=62 time=0
EXTRACT: note_off channel=1 note=24 velocity=64 time=0.084
EXTRACT: note_off channel=5 note=36 velocity=64 time=0.027
EXTRACT: note_off channel=2 note=36 velocity=64 time=0
EXTRACT: note_off channel=3 note=76 velocity=65 time=0.001
EXTRACT: note_on channel=1 note=36 velocity=123 time=0.008
EXTRACT: note_on channel=2 note=48 velocity=124 time=0
EXTRACT: note_on channel=5 note=36 velocity=112 time=0
EXTRACT: note_on channel=8 note=48 velocity=87 time=0
EXTRACT: note_on channel=9 note=42 velocity=114 time=0
EXTRACT: note_on channel=9 note=70 velocity=106 time=0
EXTRACT: note_off channel=9 note=70 velocity=64 time=0.024
EXTRACT: note_off channel=9 note=42 velocity=64 time=0
EXTRACT: note_on channel=3 note=74 velocity=116 time=0
EXTRACT: note_off channel=8 note=48 velocity=64 time=0.057
EXTRACT: note_off channel=5 note=36 velocity=65 time=0.022
EXTRACT: note_off channel=2 note=48 velocity=64 time=0
EXTRACT: note_on channel=2 note=48 velocity=124 time=0.009000000000000001
EXTRACT: note_on channel=5 note=36 velocity=113 time=0
EXTRACT: note_on channel=8 note=48 velocity=76 time=0
EXTRACT: note_on channel=9 note=44 velocity=98 time=0
EXTRACT: note_on channel=9 note=70 velocity=106 time=0
EXTRACT: note_off channel=9 note=70 velocity=65 time=0.024
EXTRACT: note_off channel=9 note=44 velocity=65 time=0
EXTRACT: note_off channel=3 note=74 velocity=64 time=0.053
EXTRACT: note_off channel=1 note=36 velocity=65 time=0.007
EXTRACT: note_off channel=5 note=36 velocity=65 time=0.027
EXTRACT: note_off channel=2 note=48 velocity=65 time=0
EXTRACT: note_on channel=1 note=26 velocity=123 time=0.009000000000000001
EXTRACT: note_on channel=2 note=38 velocity=125 time=0
EXTRACT: note_on channel=5 note=38 velocity=113 time=0
EXTRACT: note_on channel=8 note=38 velocity=84 time=0
EXTRACT: note_on channel=9 note=36 velocity=126 time=0
EXTRACT: note_on channel=9 note=42 velocity=123 time=0
EXTRACT: note_on channel=9 note=70 velocity=107 time=0
EXTRACT: note_off channel=8 note=48 velocity=64 time=0
EXTRACT: note_off channel=9 note=70 velocity=64 time=0.024
EXTRACT: note_off channel=9 note=42 velocity=64 time=0
EXTRACT: note_off channel=9 note=36 velocity=65 time=0
EXTRACT: note_on channel=3 note=74 velocity=117 time=0
EXTRACT: note_off channel=5 note=38 velocity=64 time=0.082
EXTRACT: note_off channel=2 note=38 velocity=65 time=0
EXTRACT: note_off channel=8 note=38 velocity=65 time=0.003
EXTRACT: note_on channel=2 note=38 velocity=74 time=0.006
EXTRACT: note_on channel=5 note=38 velocity=62 time=0
EXTRACT: note_off channel=3 note=74 velocity=65 time=0.064
EXTRACT: note_off channel=1 note=26 velocity=65 time=0.02
EXTRACT: note_off channel=5 note=38 velocity=64 time=0.027
EXTRACT: note_off channel=2 note=38 velocity=64 time=0
EXTRACT: note_on channel=1 note=38 velocity=122 time=0.009000000000000001
EXTRACT: note_on channel=2 note=50 velocity=125 time=0
EXTRACT: note_on channel=5 note=38 velocity=112 time=0
EXTRACT: note_on channel=8 note=50 velocity=85 time=0
EXTRACT: note_on channel=9 note=46 velocity=105 time=0
EXTRACT: note_on channel=9 note=70 velocity=106 time=0
EXTRACT: note_on channel=3 note=74 velocity=117 time=0
EXTRACT: note_off channel=9 note=70 velocity=65 time=0.016
EXTRACT: note_off channel=9 note=46 velocity=64 time=0
EXTRACT: note_off channel=8 note=50 velocity=65 time=0.051000000000000004
EXTRACT: note_off channel=5 note=38 velocity=65 time=0.036000000000000004
EXTRACT: note_off channel=2 note=50 velocity=64 time=0
EXTRACT: note_on channel=2 note=50 velocity=125 time=0.009000000000000001
EXTRACT: note_on channel=5 note=38 velocity=113 time=0
EXTRACT: note_on channel=8 note=50 velocity=84 time=0
EXTRACT: note_on channel=9 note=70 velocity=107 time=0
EXTRACT: note_off channel=9 note=70 velocity=64 time=0.024
EXTRACT: note_off channel=3 note=74 velocity=65 time=0.065
EXTRACT: note_off channel=1 note=38 velocity=64 time=0.01
EXTRACT: note_off channel=5 note=38 velocity=64 time=0.012
EXTRACT: note_off channel=2 note=50 velocity=65 time=0
EXTRACT: note_on channel=9 note=39 velocity=118 time=0.001
EXTRACT: note_off channel=8 note=50 velocity=64 time=0.005
EXTRACT: note_on channel=1 note=26 velocity=122 time=0.003
EXTRACT: note_on channel=2 note=38 velocity=124 time=0
EXTRACT: note_on channel=5 note=38 velocity=113 time=0
EXTRACT: note_on channel=8 note=38 velocity=85 time=0
EXTRACT: note_on channel=9 note=36 velocity=127 time=0
EXTRACT: note_on channel=9 note=38 velocity=117 time=0
EXTRACT: note_on channel=9 note=42 velocity=111 time=0
EXTRACT: note_on channel=9 note=70 velocity=107 time=0
EXTRACT: note_on channel=3 note=76 velocity=116 time=0
EXTRACT: note_off channel=9 note=39 velocity=65 time=0.008
EXTRACT: note_off channel=9 note=70 velocity=64 time=0.007
EXTRACT: note_off channel=9 note=42 velocity=65 time=0
EXTRACT: note_off channel=9 note=38 velocity=65 time=0
EXTRACT: note_off channel=9 note=36 velocity=64 time=0
EXTRACT: note_off channel=5 note=38 velocity=65 time=0.08700000000000001
EXTRACT: note_off channel=2 note=38 velocity=65 time=0
EXTRACT: note_off channel=8 note=38 velocity=64 time=0.003
EXTRACT: note_on channel=2 note=38 velocity=75 time=0.006
EXTRACT: note_on channel=5 note=38 velocity=62 time=0
EXTRACT: note_off channel=1 note=26 velocity=64 time=0.069
EXTRACT: note_off channel=3 note=76 velocity=64 time=0.019
EXTRACT: note_off channel=5 note=38 velocity=65 time=0.023
EXTRACT: note_off channel=2 note=38 velocity=64 time=0
EXTRACT: note_on channel=1 note=38 velocity=123 time=0.009000000000000001
EXTRACT: note_on channel=2 note=50 velocity=124 time=0
EXTRACT: note_on channel=5 note=38 velocity=112 time=0
EXTRACT: note_on channel=8 note=50 velocity=79 time=0
EXTRACT: note_on channel=9 note=42 velocity=124 time=0
EXTRACT: note_on channel=9 note=70 velocity=106 time=0
EXTRACT: note_on channel=3 note=77 velocity=117 time=0
EXTRACT: note_off channel=9 note=70 velocity=65 time=0.011
EXTRACT: note_off channel=9 note=42 velocity=64 time=0
EXTRACT: note_off channel=8 note=50 velocity=65 time=0.016
EXTRACT: note_off channel=5 note=38 velocity=64 time=0.038
EXTRACT: note_off channel=2 note=50 velocity=64 time=0
EXTRACT: note_on channel=2 note=50 velocity=124 time=0.009000000000000001
EXTRACT: note_on channel=5 note=38 velocity=113 time=0
EXTRACT: note_on channel=8 note=50 velocity=74 time=0
EXTRACT: note_on channel=9 note=44 velocity=98 time=0
EXTRACT: note_on channel=9 note=70 velocity=107 time=0
EXTRACT: note_off channel=9 note=70 velocity=64 time=0.024
EXTRACT: note_off channel=9 note=44 velocity=65 time=0
EXTRACT: note_off channel=1 note=38 velocity=65 time=0.075
EXTRACT: note_off channel=8 note=50 velocity=64 time=0.011
EXTRACT: note_off channel=5 note=38 velocity=65 time=0.001
EXTRACT: note_off channel=2 note=50 velocity=65 time=0
EXTRACT: note_on channel=1 note=29 velocity=122 time=0.009000000000000001
EXTRACT: note_on channel=2 note=41 velocity=125 time=0
EXTRACT: note_on channel=5 note=41 velocity=112 time=0
EXTRACT: note_on channel=8 note=41 velocity=85 time=0
EXTRACT: note_on channel=9 note=36 velocity=126 time=0
EXTRACT: note_on channel=9 note=42 velocity=124 time=0
EXTRACT: note_on channel=9 note=70 velocity=106 time=0
EXTRACT: note_off channel=9 note=70 velocity=65 time=0.024
EXTRACT: note_off channel=9 note=42 velocity=64 time=0
EXTRACT: note_off channel=9 note=36 velocity=64 time=0
EXTRACT: note_off channel=3 note=77 velocity=65 time=0.075
EXTRACT: note_off channel=5 note=41 velocity=64 time=0.012
EXTRACT: note_off channel=2 note=41 velocity=64 time=0
EXTRACT: note_off channel=8 note=41 velocity=65 time=0.003
EXTRACT: note_on channel=2 note=41 velocity=75 time=0.006
EXTRACT: note_on channel=5 note=41 velocity=63 time=0
EXTRACT: note_off channel=1 note=29 velocity=64 time=0.099
EXTRACT: note_off channel=5 note=41 velocity=64 time=0.012
EXTRACT: note_off channel=2 note=41 velocity=65 time=0
EXTRACT: note_on channel=1 note=41 velocity=123 time=0.009000000000000001
EXTRACT: note_on channel=2 note=53 velocity=124 time=0
EXTRACT: note_on channel=5 note=41 velocity=113 time=0
EXTRACT: note_on channel=8 note=53 velocity=84 time=0
EXTRACT: note_on channel=9 note=46 velocity=110 time=0
EXTRACT: note_on channel=9 note=70 velocity=106 time=0
EXTRACT: note_on channel=3 note=74 velocity=116 time=0
EXTRACT: note_off channel=9 note=70 velocity=65 time=0.014
EXTRACT: note_off channel=9 note=46 velocity=65 time=0
EXTRACT: note_off channel=8 note=53 velocity=65 time=0.039
EXTRACT: note_off channel=5 note=41 velocity=65 time=0.032
EXTRACT: note_off channel=2 note=53 velocity=65 time=0
EXTRACT: note_on channel=2 note=53 velocity=124 time=0.009000000000000001
EXTRACT: note_on channel=5 note=41 velocity=112 time=0
EXTRACT: note_on channel=8 note=53 velocity=84 time=0
EXTRACT: note_on channel=9 note=70 velocity=107 time=0
EXTRACT: note_off channel=3 note=74 velocity=64 time=0.004
EXTRACT: note_off channel=9 note=70 velocity=64 time=0.02
EXTRACT: note_off channel=1 note=41 velocity=65 time=0.06
EXTRACT: note_off channel=5 note=41 velocity=65 time=0.027
EXTRACT: note_off channel=2 note=53 velocity=64 time=0
EXTRACT: note_on channel=9 note=39 velocity=118 time=0.001
EXTRACT: note_off channel=8 note=53 velocity=64 time=0.004
EXTRACT: note_on channel=1 note=24 velocity=123 time=0.004
EXTRACT: note_on channel=2 note=36 velocity=125 time=0
EXTRACT: note_on channel=5 note=36 velocity=113 time=0
EXTRACT: note_on channel=8 note=36 velocity=85 time=0
EXTRACT: note_on channel=9 note=36 velocity=126 time=0
EXTRACT: note_on channel=9 note=38 velocity=117 time=0
EXTRACT: note_on channel=9 note=42 velocity=113 time=0
EXTRACT: note_on channel=9 note=70 velocity=107 time=0
EXTRACT: pitchwheel channel=3 pitch=-5614 time=0.002
EXTRACT: note_on channel=3 note=81 velocity=116 time=0
EXTRACT: note_off channel=9 note=39 velocity=64 time=0.005
EXTRACT: note_off channel=9 note=70 velocity=65 time=0.007
EXTRACT: note_off channel=9 note=42 velocity=64 time=0
EXTRACT: note_off channel=9 note=38 velocity=65 time=0
EXTRACT: note_off channel=9 note=36 velocity=65 time=0
EXTRACT: note_off channel=5 note=36 velocity=64 time=0.08700000000000001
EXTRACT: note_off channel=2 note=36 velocity=65 time=0
EXTRACT: note_off channel=8 note=36 velocity=65 time=0.003
EXTRACT: note_on channel=2 note=36 velocity=75 time=0.006
EXTRACT: note_on channel=5 note=36 velocity=62 time=0
EXTRACT: pitchwheel channel=3 pitch=-3393 time=0.001
EXTRACT: pitchwheel channel=3 pitch=0 time=0.015
EXTRACT: note_on channel=12 note=76 velocity=126 time=0.064
EXTRACT: note_off channel=1 note=24 velocity=65 time=0.004
EXTRACT: note_on channel=12 note=84 velocity=127 time=0.006
EXTRACT: note_off channel=5 note=36 velocity=64 time=0.021
EXTRACT: note_off channel=2 note=36 velocity=64 time=0
EXTRACT: note_on channel=1 note=36 velocity=122 time=0.009000000000000001
EXTRACT: note_on channel=2 note=48 velocity=124 time=0
EXTRACT: note_on channel=5 note=36 velocity=112 time=0
EXTRACT: note_on channel=8 note=48 velocity=87 time=0
EXTRACT: note_on channel=9 note=42 velocity=108 time=0
EXTRACT: note_on channel=9 note=70 velocity=106 time=0
EXTRACT: note_off channel=3 note=81 velocity=64 time=0.014
EXTRACT: note_off channel=9 note=70 velocity=64 time=0.01
EXTRACT: note_off channel=9 note=42 velocity=65 time=0
EXTRACT: note_on channel=3 note=79 velocity=117 time=0
EXTRACT: note_off channel=8 note=48 velocity=64 time=0.034
EXTRACT: note_off channel=5 note=36 velocity=65 time=0.022
EXTRACT: note_off channel=2 note=48 velocity=64 time=0
EXTRACT: note_on channel=2 note=48 velocity=124 time=0.009000000000000001
EXTRACT: note_on channel=5 note=36 velocity=113 time=0
EXTRACT: note_on channel=8 note=48 velocity=72 time=0
EXTRACT: note_on channel=9 note=44 velocity=99 time=0
EXTRACT: note_on channel=9 note=70 velocity=106 time=0
EXTRACT: note_off channel=9 note=70 velocity=64 time=0.024
EXTRACT: note_off channel=9 note=44 velocity=64 time=0
EXTRACT: note_off channel=1 note=36 velocity=64 time=0.06
EXTRACT: control_change channel=9 control=91 value=20 time=0.006
EXTRACT: note_off channel=12 note=76 velocity=64 time=0.018000000000000002
EXTRACT: note_off channel=5 note=36 velocity=65 time=0.006
EXTRACT: note_off channel=2 note=48 velocity=65 time=0
EXTRACT: note_off channel=12 note=84 velocity=65 time=0.004
EXTRACT: note_on channel=1 note=26 velocity=123 time=0.002
EXTRACT: note_on channel=2 note=38 velocity=125 time=0
EXTRACT: note_on channel=5 note=38 velocity=113 time=0
EXTRACT: note_on channel=8 note=38 velocity=84 time=0
EXTRACT: note_on channel=9 note=36 velocity=127 time=0
EXTRACT: note_on channel=9 note=42 velocity=125 time=0
EXTRACT: note_on channel=9 note=70 velocity=107 time=0
EXTRACT: note_off channel=8 note=48 velocity=64 time=0
EXTRACT: note_off channel=9 note=70 velocity=65 time=0.024
EXTRACT: note_off channel=9 note=42 velocity=65 time=0
EXTRACT: note_off channel=9 note=36 velocity=64 time=0
EXTRACT: note_off channel=3 note=79 velocity=65 time=0.034
EXTRACT: note_off channel=5 note=38 velocity=64 time=0.053
EXTRACT: note_off channel=2 note=38 velocity=65 time=0
EXTRACT: note_off channel=8 note=38 velocity=65 time=0.003
EXTRACT: note_on channel=2 note=38 velocity=74 time=0.006
EXTRACT: note_on channel=5 note=38 velocity=62 time=0
EXTRACT: note_off channel=1 note=26 velocity=65 time=0.084
EXTRACT: note_off channel=5 note=38 velocity=64 time=0.027
EXTRACT: note_off channel=2 note=38 velocity=64 time=0
EXTRACT: note_on channel=1 note=38 velocity=122 time=0.009000000000000001
EXTRACT: note_on channel=2 note=50 velocity=125 time=0
EXTRACT: note_on channel=5 note=38 velocity=112 time=0
EXTRACT: note_on channel=8 note=50 velocity=85 time=0
EXTRACT: note_on channel=9 note=46 velocity=110 time=0
EXTRACT: note_on channel=9 note=70 velocity=107 time=0
EXTRACT: note_off channel=9 note=70 velocity=64 time=0.024
EXTRACT: note_off channel=9 note=46 velocity=65 time=0
EXTRACT: note_off channel=8 note=50 velocity=65 time=0.051000000000000004
EXTRACT: note_off channel=5 note=38 velocity=65 time=0.036000000000000004
EXTRACT: note_off channel=2 note=50 velocity=64 time=0
EXTRACT: note_on channel=2 note=50 velocity=125 time=0.009000000000000001
EXTRACT: note_on channel=5 note=38 velocity=113 time=0
EXTRACT: note_on channel=8 note=50 velocity=85 time=0
EXTRACT: note_on channel=9 note=70 velocity=106 time=0
EXTRACT: note_off channel=9 note=70 velocity=65 time=0.024
EXTRACT: note_off channel=1 note=38 velocity=64 time=0.075
EXTRACT: note_off channel=5 note=38 velocity=64 time=0.012
EXTRACT: note_off channel=2 note=50 velocity=65 time=0
EXTRACT: note_on channel=9 note=39 velocity=119 time=0.001
EXTRACT: note_off channel=8 note=50 velocity=64 time=0.005
EXTRACT: note_on channel=1 note=26 velocity=122 time=0.003
EXTRACT: note_on channel=2 note=38 velocity=124 time=0
EXTRACT: note_on channel=5 note=38 velocity=113 time=0
EXTRACT: note_on channel=8 note=38 velocity=84 time=0
EXTRACT: note_on channel=9 note=36 velocity=127 time=0
EXTRACT: note_on channel=9 note=38 velocity=116 time=0
EXTRACT: note_on channel=9 note=42 velocity=123 time=0
EXTRACT: note_on channel=9 note=70 velocity=106 time=0
EXTRACT: note_off channel=9 note=39 velocity=64 time=0.017
EXTRACT: note_off channel=9 note=70 velocity=64 time=0.007
EXTRACT: note_off channel=9 note=42 velocity=65 time=0
EXTRACT: note_off channel=9 note=38 velocity=64 time=0
EXTRACT: note_off channel=9 note=36 velocity=65 time=0
EXTRACT: note_off channel=5 note=38 velocity=65 time=0.08700000000000001
EXTRACT: note_off channel=2 note=38 velocity=65 time=0
EXTRACT: note_off channel=8 note=38 velocity=64 time=0.003
EXTRACT: note_on channel=2 note=38 velocity=75 time=0.006
EXTRACT: note_on channel=5 note=38 velocity=62 time=0
EXTRACT: note_off channel=1 note=26 velocity=64 time=0.069
EXTRACT: note_off channel=5 note=38 velocity=65 time=0.042
EXTRACT: note_off channel=2 note=38 velocity=64 time=0
EXTRACT: note_on channel=1 note=38 velocity=123 time=0.009000000000000001
EXTRACT: note_on channel=2 note=50 velocity=124 time=0
EXTRACT: note_on channel=5 note=38 velocity=112 time=0
EXTRACT: note_on channel=8 note=50 velocity=78 time=0
EXTRACT: note_on channel=9 note=42 velocity=116 time=0
EXTRACT: note_on channel=9 note=70 velocity=107 time=0
EXTRACT: note_off channel=9 note=70 velocity=65 time=0.024
EXTRACT: note_off channel=9 note=42 velocity=64 time=0
EXTRACT: note_off channel=8 note=50 velocity=65 time=0.035
EXTRACT: note_off channel=5 note=38 velocity=64 time=0.052000000000000005
EXTRACT: note_off channel=2 note=50 velocity=64 time=0
EXTRACT: note_on channel=2 note=50 velocity=124 time=0.009000000000000001
EXTRACT: note_on channel=5 note=38 velocity=113 time=0
EXTRACT: note_on channel=8 note=50 velocity=75 time=0
EXTRACT: note_on channel=9 note=44 velocity=99 time=0
EXTRACT: note_on channel=9 note=70 velocity=106 time=0
EXTRACT: note_off channel=9 note=70 velocity=65 time=0.024
EXTRACT: note_off channel=9 note=44 velocity=64 time=0
EXTRACT: note_off channel=1 note=38 velocity=65 time=0.075
EXTRACT: note_off channel=8 note=50 velocity=65 time=0.011
EXTRACT: note_off channel=5 note=38 velocity=65 time=0.001
EXTRACT: note_off channel=2 note=50 velocity=65 time=0
EXTRACT: note_on channel=1 note=29 velocity=123 time=0.009000000000000001
EXTRACT: note_on channel=2 note=41 velocity=125 time=0
EXTRACT: note_on channel=5 note=41 velocity=112 time=0
EXTRACT: note_on channel=8 note=41 velocity=84 time=0
EXTRACT: note_on channel=9 note=36 velocity=126 time=0
EXTRACT: note_on channel=9 note=42 velocity=125 time=0
EXTRACT: note_on channel=9 note=70 velocity=107 time=0
EXTRACT: note_off channel=9 note=70 velocity=64 time=0.024
EXTRACT: note_off channel=9 note=42 velocity=65 time=0
EXTRACT: note_off channel=9 note=36 velocity=65 time=0
EXTRACT: note_off channel=5 note=41 velocity=64 time=0.08700000000000001
EXTRACT: note_off channel=2 note=41 velocity=64 time=0
EXTRACT: note_off channel=8 note=41 velocity=64 time=0.003
EXTRACT: note_on channel=2 note=41 velocity=75 time=0.006
EXTRACT: note_on channel=5 note=41 velocity=63 time=0
EXTRACT: note_off channel=1 note=29 velocity=65 time=0.099
EXTRACT: note_off channel=5 note=41 velocity=64 time=0.012
EXTRACT: note_off channel=2 note=41 velocity=65 time=0
EXTRACT: note_on channel=1 note=41 velocity=122 time=0.009000000000000001
EXTRACT: note_on channel=2 note=53 velocity=124 time=0
EXTRACT: note_on channel=5 note=41 velocity=113 time=0
EXTRACT: note_on channel=8 note=53 velocity=85 time=0
EXTRACT: note_on channel=9 note=46 velocity=107 time=0
EXTRACT: note_on channel=9 note=70 velocity=107 time=0
EXTRACT: note_on channel=3 note=77 velocity=117 time=0
EXTRACT: note_off channel=9 note=70 velocity=64 time=0.017
EXTRACT: note_off channel=9 note=46 velocity=64 time=0
EXTRACT: note_off channel=8 note=53 velocity=64 time=0.055
EXTRACT: note_off channel=5 note=41 velocity=65 time=0.032
EXTRACT: note_off channel=2 note=53 velocity=65 time=0
EXTRACT: note_on channel=2 note=53 velocity=124 time=0.009000000000000001
EXTRACT: note_on channel=5 note=41 velocity=112 time=0
EXTRACT: note_on channel=8 note=53 velocity=85 time=0
EXTRACT: note_on channel=9 note=70 velocity=106 time=0
EXTRACT: note_off channel=9 note=70 velocity=65 time=0.024
EXTRACT: note_off channel=3 note=77 velocity=65 time=0.022
EXTRACT: note_off channel=1 note=41 velocity=64 time=0.038
EXTRACT: note_off channel=5 note=41 velocity=65 time=0.027
EXTRACT: note_off channel=2 note=53 velocity=64 time=0
EXTRACT: note_on channel=9 note=39 velocity=119 time=0.001
EXTRACT: note_off channel=8 note=53 velocity=65 time=0.004
EXTRACT: note_on channel=1 note=24 velocity=122 time=0.004
EXTRACT: note_on channel=2 note=36 velocity=125 time=0
EXTRACT: note_on channel=5 note=36 velocity=113 time=0
EXTRACT: note_on channel=8 note=36 velocity=84 time=0
EXTRACT: note_on channel=9 note=36 velocity=126 time=0
EXTRACT: note_on channel=9 note=38 velocity=117 time=0
EXTRACT: note_on channel=9 note=42 velocity=116 time=0
EXTRACT: note_on channel=9 note=70 velocity=107 time=0
EXTRACT: note_on channel=3 note=79 velocity=116 time=0
EXTRACT: note_off channel=9 note=39 velocity=65 time=0.016
EXTRACT: note_off channel=9 note=70 velocity=64 time=0.007
EXTRACT: note_off channel=9 note=42 velocity=64 time=0
EXTRACT: note_off channel=9 note=38 velocity=65 time=0
EXTRACT: note_off channel=9 note=36 velocity=64 time=0
EXTRACT: note_off channel=5 note=36 velocity=64 time=0.08
EXTRACT: note_off channel=2 note=36 velocity=65 time=0
EXTRACT: note_off channel=8 note=36 velocity=64 time=0.003
EXTRACT: note_on channel=2 note=36 velocity=75 time=0.006
EXTRACT: note_on channel=5 note=36 velocity=62 time=0
EXTRACT: note_off channel=1 note=24 velocity=64 time=0.084
EXTRACT: note_off channel=5 note=36 velocity=64 time=0.027
EXTRACT: note_off channel=2 note=36 velocity=64 time=0
EXTRACT: note_on channel=3 note=77 velocity=116 time=0
EXTRACT: note_on channel=1 note=36 velocity=123 time=0.003
EXTRACT: note_on channel=2 note=48 velocity=124 time=0
EXTRACT: note_on channel=5 note=36 velocity=112 time=0
EXTRACT: note_on channel=8 note=48 velocity=87 time=0
EXTRACT: note_on channel=9 note=42 velocity=116 time=0
EXTRACT: note_on channel=9 note=70 velocity=106 time=0
EXTRACT: note_off channel=3 note=79 velocity=64 time=0.005
EXTRACT: note_off channel=9 note=70 velocity=65 time=0.019
EXTRACT: note_off channel=9 note=42 velocity=65 time=0
EXTRACT: note_off channel=8 note=48 velocity=65 time=0.065
EXTRACT: note_off channel=5 note=36 velocity=65 time=0.022
EXTRACT: note_off channel=2 note=48 velocity=64 time=0
EXTRACT: note_on channel=2 note=48 velocity=124 time=0.009000000000000001
EXTRACT: note_on channel=5 note=36 velocity=113 time=0
EXTRACT: note_on channel=8 note=48 velocity=76 time=0
EXTRACT: note_on channel=9 note=70 velocity=106 time=0
EXTRACT: note_off channel=9 note=70 velocity=64 time=0.024
EXTRACT: note_off channel=3 note=77 velocity=64 time=0.03
EXTRACT: note_off channel=1 note=36 velocity=65 time=0.03
EXTRACT: note_on channel=3 note=79 velocity=117 time=0
EXTRACT: note_off channel=5 note=36 velocity=65 time=0.005
EXTRACT: note_off channel=2 note=48 velocity=65 time=0
EXTRACT: note_on channel=1 note=26 velocity=123 time=0.009000000000000001
EXTRACT: note_on channel=2 note=38 velocity=125 time=0
EXTRACT: note_on channel=5 note=38 velocity=113 time=0
EXTRACT: note_on channel=8 note=38 velocity=84 time=0
EXTRACT: note_on channel=9 note=36 velocity=127 time=0
EXTRACT: note_on channel=9 note=42 velocity=117 time=0
EXTRACT: note_on channel=9 note=70 velocity=107 time=0
EXTRACT: note_off channel=8 note=48 velocity=65 time=0
EXTRACT: note_off channel=9 note=70 velocity=65 time=0.024
EXTRACT: note_off channel=9 note=42 velocity=64 time=0
EXTRACT: note_off channel=9 note=36 velocity=64 time=0
EXTRACT: note_off channel=5 note=38 velocity=64 time=0.08700000000000001
EXTRACT: note_off channel=2 note=38 velocity=65 time=0
EXTRACT: note_off channel=8 note=38 velocity=64 time=0.003
EXTRACT: note_on channel=2 note=38 velocity=74 time=0.006
EXTRACT: note_on channel=5 note=38 velocity=62 time=0
EXTRACT: note_off channel=3 note=79 velocity=65 time=0.061
EXTRACT: note_off channel=1 note=26 velocity=65 time=0.023
EXTRACT: note_on channel=3 note=77 velocity=117 time=0
EXTRACT: note_off channel=5 note=38 velocity=64 time=0.002
EXTRACT: note_off channel=2 note=38 velocity=64 time=0
EXTRACT: note_on channel=1 note=38 velocity=122 time=0.009000000000000001
EXTRACT: note_on channel=2 note=50 velocity=125 time=0
EXTRACT: note_on channel=5 note=38 velocity=112 time=0
EXTRACT: note_on channel=8 note=50 velocity=85 time=0
EXTRACT: note_on channel=9 note=46 velocity=105 time=0
EXTRACT: note_on channel=9 note=70 velocity=107 time=0
EXTRACT: note_off channel=9 note=70 velocity=65 time=0.024
EXTRACT: note_off channel=9 note=46 velocity=65 time=0
EXTRACT: note_off channel=8 note=50 velocity=65 time=0.051000000000000004
EXTRACT: note_off channel=5 note=38 velocity=65 time=0.036000000000000004
EXTRACT: note_off channel=2 note=50 velocity=64 time=0
EXTRACT: note_on channel=2 note=50 velocity=125 time=0.009000000000000001
EXTRACT: note_on channel=5 note=38 velocity=113 time=0
EXTRACT: note_on channel=8 note=50 velocity=85 time=0
EXTRACT: note_on channel=9 note=70 velocity=106 time=0
EXTRACT: note_off channel=9 note=70 velocity=64 time=0.024
EXTRACT: note_off channel=1 note=38 velocity=64 time=0.075
EXTRACT: note_off channel=5 note=38 velocity=64 time=0.012
EXTRACT: note_off channel=2 note=50 velocity=65 time=0
EXTRACT: note_on channel=9 note=39 velocity=118 time=0.001
EXTRACT: note_off channel=8 note=50 velocity=64 time=0.005
EXTRACT: note_on channel=1 note=26 velocity=122 time=0.003
EXTRACT: note_on channel=2 note=38 velocity=124 time=0
EXTRACT: note_on channel=5 note=38 velocity=113 time=0
EXTRACT: note_on channel=8 note=38 velocity=84 time=0
EXTRACT: note_on channel=9 note=36 velocity=127 time=0
EXTRACT: note_on channel=9 note=38 velocity=116 time=0
EXTRACT: note_on channel=9 note=42 velocity=117 time=0
EXTRACT: note_on channel=9 note=70 velocity=106 time=0
EXTRACT: note_off channel=9 note=39 velocity=64 time=0.017
EXTRACT: note_off channel=9 note=70 velocity=65 time=0.007
EXTRACT: note_off channel=9 note=42 velocity=65 time=0
EXTRACT: note_off channel=9 note=38 velocity=64 time=0
EXTRACT: note_off channel=9 note=36 velocity=64 time=0
EXTRACT: note_off channel=5 note=38 velocity=65 time=0.08700000000000001
EXTRACT: note_off channel=2 note=38 velocity=65 time=0
EXTRACT: note_off channel=8 note=38 velocity=64 time=0.003
EXTRACT: note_on channel=2 note=38 velocity=75 time=0.006
EXTRACT: note_on channel=5 note=38 velocity=62 time=0
EXTRACT: note_off channel=3 note=77 velocity=65 time=0.006
EXTRACT: note_off channel=1 note=26 velocity=64 time=0.063
EXTRACT: note_off channel=5 note=38 velocity=65 time=0.042
EXTRACT: note_off channel=2 note=38 velocity=64 time=0
EXTRACT: note_on channel=1 note=38 velocity=123 time=0
EXTRACT: note_on channel=2 note=50 velocity=124 time=0
EXTRACT: note_on channel=3 note=77 velocity=116 time=0
EXTRACT: note_on channel=5 note=38 velocity=112 time=0
EXTRACT: note_on channel=8 note=50 velocity=78 time=0
EXTRACT: note_on channel=9 note=42 velocity=114 time=0
EXTRACT: note_on channel=9 note=70 velocity=107 time=0
EXTRACT: note_off channel=9 note=70 velocity=65 time=0.024
EXTRACT: note_off channel=9 note=42 velocity=64 time=0
EXTRACT: note_on channel=12 note=77 velocity=100 time=0.01
EXTRACT: note_on channel=12 note=76 velocity=70 time=0.001
EXTRACT: note_off channel=8 note=50 velocity=65 time=0.018000000000000002
EXTRACT: note_off channel=5 note=38 velocity=64 time=0.052000000000000005
EXTRACT: note_off channel=2 note=50 velocity=64 time=0
EXTRACT: note_on channel=2 note=50 velocity=124 time=0.009000000000000001
EXTRACT: note_on channel=5 note=38 velocity=113 time=0
EXTRACT: note_on channel=8 note=50 velocity=75 time=0
EXTRACT: note_on channel=9 note=44 velocity=98 time=0
EXTRACT: note_on channel=9 note=70 velocity=107 time=0
EXTRACT: note_off channel=9 note=70 velocity=65 time=0.024
EXTRACT: note_off channel=9 note=44 velocity=65 time=0
EXTRACT: note_off channel=1 note=38 velocity=65 time=0.075
EXTRACT: note_off channel=8 note=50 velocity=65 time=0.011
EXTRACT: note_off channel=5 note=38 velocity=65 time=0.001
EXTRACT: note_off channel=2 note=50 velocity=65 time=0
EXTRACT: note_on channel=1 note=29 velocity=122 time=0.009000000000000001
EXTRACT: note_on channel=2 note=41 velocity=125 time=0
EXTRACT: note_on channel=5 note=41 velocity=112 time=0
EXTRACT: note_on channel=8 note=41 velocity=85 time=0
EXTRACT: note_on channel=9 note=36 velocity=126 time=0
EXTRACT: note_on channel=9 note=42 velocity=118 time=0
EXTRACT: note_on channel=9 note=70 velocity=106 time=0
EXTRACT: note_off channel=3 note=77 velocity=64 time=0.001
EXTRACT: note_on channel=3 note=72 velocity=116 time=0.023
EXTRACT: note_off channel=9 note=70 velocity=64 time=0
EXTRACT: note_off channel=9 note=42 velocity=65 time=0
EXTRACT: note_off channel=9 note=36 velocity=64 time=0
EXTRACT: note_off channel=5 note=41 velocity=64 time=0.08700000000000001
EXTRACT: note_off channel=2 note=41 velocity=64 time=0
EXTRACT: note_off channel=8 note=41 velocity=64 time=0.003
EXTRACT: note_on channel=2 note=41 velocity=75 time=0.006
EXTRACT: note_on channel=5 note=41 velocity=63 time=0
EXTRACT: note_off channel=1 note=29 velocity=64 time=0.099
EXTRACT: note_off channel=5 note=41 velocity=64 time=0.012
EXTRACT: note_off channel=2 note=41 velocity=65 time=0
EXTRACT: note_on channel=1 note=41 velocity=123 time=0.009000000000000001
EXTRACT: note_on channel=2 note=53 velocity=124 time=0
EXTRACT: note_on channel=5 note=41 velocity=113 time=0
EXTRACT: note_on channel=8 note=53 velocity=84 time=0
EXTRACT: note_on channel=9 note=46 velocity=106 time=0
EXTRACT: note_on channel=9 note=70 velocity=106 time=0
EXTRACT: note_on channel=3 note=74 velocity=117 time=0.006
EXTRACT: note_off channel=3 note=72 velocity=64 time=0.015
EXTRACT: note_off channel=9 note=70 velocity=64 time=0.003
EXTRACT: note_off channel=9 note=46 velocity=65 time=0
EXTRACT: note_off channel=8 note=53 velocity=64 time=0.055
EXTRACT: note_off channel=5 note=41 velocity=65 time=0.032
EXTRACT: note_off channel=2 note=53 velocity=65 time=0
EXTRACT: note_on channel=2 note=53 velocity=124 time=0.009000000000000001
EXTRACT: note_on channel=5 note=41 velocity=112 time=0
EXTRACT: note_on channel=8 note=53 velocity=84 time=0
EXTRACT: note_on channel=9 note=70 velocity=107 time=0
EXTRACT: note_off channel=9 note=70 velocity=65 time=0.024
EXTRACT: note_off channel=1 note=41 velocity=65 time=0.06
EXTRACT: control_change channel=9 control=91 value=30 time=0.006
EXTRACT: note_off channel=5 note=41 velocity=65 time=0.021
EXTRACT: note_off channel=2 note=53 velocity=64 time=0
EXTRACT: note_on channel=9 note=39 velocity=118 time=0.001
EXTRACT: note_off channel=8 note=53 velocity=65 time=0.004
EXTRACT: note_on channel=1 note=24 velocity=123 time=0.004
EXTRACT: note_on channel=2 note=36 velocity=125 time=0
EXTRACT: note_on channel=5 note=36 velocity=113 time=0
EXTRACT: note_on channel=8 note=36 velocity=85 time=0
EXTRACT: note_on channel=9 note=36 velocity=126 time=0
EXTRACT: note_on channel=9 note=38 velocity=116 time=0
EXTRACT: note_on channel=9 note=42 velocity=123 time=0
EXTRACT: note_on channel=9 note=70 velocity=106 time=0
EXTRACT: note_off channel=9 note=39 velocity=64 time=0.017
EXTRACT: note_off channel=9 note=70 velocity=64 time=0.007
EXTRACT: note_off channel=9 note=42 velocity=65 time=0
EXTRACT: note_off channel=9 note=38 velocity=65 time=0
EXTRACT: note_off channel=9 note=36 velocity=64 time=0
EXTRACT: note_off channel=5 note=36 velocity=64 time=0.08700000000000001
EXTRACT: note_off channel=2 note=36 velocity=65 time=0
EXTRACT: note_off channel=8 note=36 velocity=65 time=0.003
EXTRACT: note_on channel=2 note=36 velocity=75 time=0.006
EXTRACT: note_on channel=5 note=36 velocity=62 time=0
EXTRACT: note_off channel=1 note=24 velocity=65 time=0.084
EXTRACT: note_off channel=5 note=36 velocity=64 time=0.027
EXTRACT: note_off channel=2 note=36 velocity=64 time=0
EXTRACT: note_on channel=1 note=36 velocity=122 time=0.009000000000000001
EXTRACT: note_on channel=2 note=48 velocity=124 time=0
EXTRACT: note_on channel=5 note=36 velocity=112 time=0
EXTRACT: note_on channel=8 note=48 velocity=86 time=0
EXTRACT: note_on channel=9 note=42 velocity=123 time=0
EXTRACT: note_on channel=9 note=70 velocity=107 time=0
EXTRACT: note_on channel=9 note=55 velocity=118 time=0.02
EXTRACT: note_off channel=9 note=70 velocity=64 time=0.004
EXTRACT: note_off channel=9 note=42 velocity=65 time=0
EXTRACT: note_off channel=9 note=55 velocity=64 time=0.02
EXTRACT: note_off channel=3 note=74 velocity=65 time=0.004
EXTRACT: note_off channel=8 note=48 velocity=64 time=0.041
EXTRACT: note_off channel=5 note=36 velocity=65 time=0.022
EXTRACT: note_off channel=2 note=48 velocity=64 time=0
EXTRACT: note_on channel=2 note=48 velocity=124 time=0.009000000000000001
EXTRACT: note_on channel=5 note=36 velocity=113 time=0
EXTRACT: note_on channel=8 note=48 velocity=73 time=0
EXTRACT: note_on channel=9 note=44 velocity=98 time=0
EXTRACT: note_on channel=9 note=70 velocity=107 time=0
EXTRACT: note_off channel=9 note=70 velocity=65 time=0.024
EXTRACT: note_off channel=9 note=44 velocity=65 time=0
EXTRACT: note_off channel=1 note=36 velocity=64 time=0.06
EXTRACT: note_off channel=5 note=36 velocity=65 time=0.03
EXTRACT: note_off channel=2 note=48 velocity=65 time=0
EXTRACT: note_on channel=1 note=26 velocity=123 time=0
EXTRACT: note_on channel=2 note=38 velocity=125 time=0
EXTRACT: note_on channel=3 note=74 velocity=116 time=0
EXTRACT: note_on channel=5 note=38 velocity=113 time=0
EXTRACT: note_on channel=8 note=38 velocity=85 time=0
EXTRACT: note_on channel=9 note=36 velocity=127 time=0
EXTRACT: note_on channel=9 note=42 velocity=116 time=0
EXTRACT: note_on channel=9 note=70 velocity=106 time=0
EXTRACT: note_on channel=9 note=85 velocity=74 time=0
EXTRACT: note_on channel=9 note=54 velocity=71 time=0
EXTRACT: note_off channel=8 note=48 velocity=64 time=0
EXTRACT: note_off channel=12 note=76 velocity=64 time=0.014
EXTRACT: note_off channel=12 note=77 velocity=64 time=0
EXTRACT: note_off channel=9 note=85 velocity=64 time=0.01
EXTRACT: note_off channel=9 note=70 velocity=65 time=0
EXTRACT: note_off channel=9 note=42 velocity=64 time=0
EXTRACT: note_off channel=9 note=36 velocity=64 time=0
EXTRACT: note_off channel=9 note=54 velocity=65 time=0.001
EXTRACT: note_off channel=5 note=38 velocity=64 time=0.08600000000000001
EXTRACT: note_off channel=2 note=38 velocity=65 time=0
EXTRACT: note_off channel=8 note=38 velocity=65 time=0.003
EXTRACT: note_on channel=2 note=38 velocity=74 time=0.006
EXTRACT: note_on channel=5 note=38 velocity=62 time=0
EXTRACT: note_off channel=1 note=26 velocity=65 time=0.084
EXTRACT: note_off channel=5 note=38 velocity=64 time=0.027
EXTRACT: note_off channel=2 note=38 velocity=64 time=0
EXTRACT: note_on channel=1 note=38 velocity=122 time=0.009000000000000001
EXTRACT: note_on channel=2 note=50 velocity=125 time=0
EXTRACT: note_on channel=5 note=38 velocity=112 time=0
EXTRACT: note_on channel=8 note=50 velocity=84 time=0
EXTRACT: note_on channel=9 note=33 velocity=65 time=0
EXTRACT: note_on channel=9 note=46 velocity=112 time=0
EXTRACT: note_on channel=9 note=70 velocity=107 time=0
EXTRACT: note_on channel=9 note=54 velocity=56 time=0.003
EXTRACT: note_off channel=9 note=70 velocity=65 time=0.021
EXTRACT: note_off channel=9 note=46 velocity=64 time=0
EXTRACT: note_off channel=9 note=33 velocity=64 time=0
EXTRACT: note_off channel=3 note=74 velocity=64 time=0.003
EXTRACT: note_off channel=9 note=54 velocity=65 time=0.001
EXTRACT: note_off channel=8 note=50 velocity=64 time=0.047
EXTRACT: note_off channel=5 note=38 velocity=65 time=0.036000000000000004
EXTRACT: note_off channel=2 note=50 velocity=64 time=0
EXTRACT: note_on channel=2 note=50 velocity=125 time=0.009000000000000001
EXTRACT: note_on channel=5 note=38 velocity=113 time=0
EXTRACT: note_on channel=8 note=50 velocity=85 time=0
EXTRACT: note_on channel=9 note=70 velocity=106 time=0
EXTRACT: note_off channel=9 note=70 velocity=65 time=0.024
EXTRACT: note_off channel=1 note=38 velocity=64 time=0.075
EXTRACT: note_off channel=5 note=38 velocity=64 time=0.012
EXTRACT: note_off channel=2 note=50 velocity=65 time=0
EXTRACT: note_on channel=9 note=39 velocity=119 time=0.001
EXTRACT: note_off channel=8 note=50 velocity=65 time=0.005
EXTRACT: note_on channel=1 note=26 velocity=122 time=0
EXTRACT: note_on channel=2 note=38 velocity=124 time=0
EXTRACT: note_on channel=3 note=69 velocity=117 time=0
EXTRACT: note_on channel=5 note=38 velocity=113 time=0
EXTRACT: note_on channel=8 note=38 velocity=84 time=0
EXTRACT: note_on channel=9 note=36 velocity=126 time=0
EXTRACT: note_on channel=9 note=38 velocity=117 time=0
EXTRACT: note_on channel=9 note=42 velocity=118 time=0
EXTRACT: note_on channel=9 note=70 velocity=106 time=0
EXTRACT: note_on channel=9 note=85 velocity=71 time=0
EXTRACT: note_on channel=9 note=54 velocity=63 time=0.003
EXTRACT: note_off channel=9 note=39 velocity=64 time=0.014
EXTRACT: note_off channel=9 note=85 velocity=64 time=0.007
EXTRACT: note_off channel=9 note=70 velocity=65 time=0
EXTRACT: note_off channel=9 note=42 velocity=64 time=0
EXTRACT: note_off channel=9 note=38 velocity=65 time=0
EXTRACT: note_off channel=9 note=36 velocity=65 time=0
EXTRACT: note_off channel=9 note=54 velocity=64 time=0.004
EXTRACT: note_off channel=5 note=38 velocity=65 time=0.083
EXTRACT: note_off channel=2 note=38 velocity=65 time=0
EXTRACT: note_off channel=8 note=38 velocity=65 time=0.003
EXTRACT: note_on channel=2 note=38 velocity=75 time=0.006
EXTRACT: note_on channel=5 note=38 velocity=62 time=0
EXTRACT: note_off channel=1 note=26 velocity=64 time=0.069
EXTRACT: note_off channel=5 note=38 velocity=65 time=0.042
EXTRACT: note_off channel=2 note=38 velocity=64 time=0
EXTRACT: note_on channel=1 note=38 velocity=123 time=0.009000000000000001
EXTRACT: note_on channel=2 note=50 velocity=124 time=0
EXTRACT: note_on channel=5 note=38 velocity=112 time=0
EXTRACT: note_on channel=8 note=50 velocity=78 time=0
EXTRACT: note_on channel=9 note=33 velocity=60 time=0
EXTRACT: note_on channel=9 note=42 velocity=117 time=0
EXTRACT: note_on channel=9 note=70 velocity=107 time=0
EXTRACT: note_on channel=9 note=54 velocity=57 time=0.004
EXTRACT: note_off channel=9 note=70 velocity=65 time=0.02
EXTRACT: note_off channel=9 note=42 velocity=64 time=0
EXTRACT: note_off channel=9 note=33 velocity=64 time=0
EXTRACT: note_off channel=9 note=54 velocity=65 time=0.005
EXTRACT: note_off channel=8 note=50 velocity=64 time=0.03
EXTRACT: note_off channel=3 note=69 velocity=65 time=0.008
EXTRACT: note_off channel=5 note=38 velocity=64 time=0.044
EXTRACT: note_off channel=2 note=50 velocity=64 time=0
EXTRACT: note_on channel=2 note=50 velocity=124 time=0.009000000000000001
EXTRACT: note_on channel=5 note=38 velocity=113 time=0
EXTRACT: note_on channel=8 note=50 velocity=75 time=0
EXTRACT: note_on channel=9 note=44 velocity=99 time=0
EXTRACT: note_on channel=9 note=70 velocity=107 time=0
EXTRACT: note_off channel=9 note=70 velocity=65 time=0.024
EXTRACT: note_off channel=9 note=44 velocity=64 time=0
EXTRACT: note_off channel=1 note=38 velocity=65 time=0.075
EXTRACT: note_off channel=8 note=50 velocity=65 time=0.011
EXTRACT: note_off channel=5 note=38 velocity=65 time=0.001
EXTRACT: note_off channel=2 note=50 velocity=65 time=0
EXTRACT: note_on channel=1 note=29 velocity=123 time=0
EXTRACT: note_on channel=2 note=41 velocity=125 time=0
EXTRACT: note_on channel=3 note=74 velocity=117 time=0
EXTRACT: note_on channel=5 note=41 velocity=112 time=0
EXTRACT: note_on channel=8 note=41 velocity=85 time=0
EXTRACT: note_on channel=9 note=36 velocity=127 time=0
EXTRACT: note_on channel=9 note=42 velocity=124 time=0
EXTRACT: note_on channel=9 note=70 velocity=106 time=0
EXTRACT: note_on channel=9 note=85 velocity=75 time=0
EXTRACT: note_on channel=9 note=54 velocity=58 time=0.005
EXTRACT: note_off channel=9 note=85 velocity=64 time=0.019
EXTRACT: note_off channel=9 note=70 velocity=65 time=0
EXTRACT: note_off channel=9 note=42 velocity=65 time=0
EXTRACT: note_off channel=9 note=36 velocity=64 time=0
EXTRACT: note_off channel=9 note=54 velocity=64 time=0.006
EXTRACT: note_off channel=5 note=41 velocity=64 time=0.081
EXTRACT: note_off channel=2 note=41 velocity=64 time=0
EXTRACT: note_off channel=8 note=41 velocity=64 time=0.003
EXTRACT: note_on channel=2 note=41 velocity=75 time=0.006
EXTRACT: note_on channel=5 note=41 velocity=63 time=0
EXTRACT: note_off channel=1 note=29 velocity=65 time=0.099
EXTRACT: note_off channel=5 note=41 velocity=64 time=0.012
EXTRACT: note_off channel=2 note=41 velocity=65 time=0
EXTRACT: note_on channel=1 note=41 velocity=122 time=0.009000000000000001
EXTRACT: note_on channel=2 note=53 velocity=124 time=0
EXTRACT: note_on channel=5 note=41 velocity=113 time=0
EXTRACT: note_on channel=8 note=53 velocity=84 time=0
EXTRACT: note_on channel=9 note=33 velocity=64 time=0
EXTRACT: note_on channel=9 note=46 velocity=111 time=0
EXTRACT: note_on channel=9 note=70 velocity=106 time=0
EXTRACT: note_on channel=9 note=54 velocity=57 time=0.003
EXTRACT: note_off channel=9 note=70 velocity=65 time=0.021
EXTRACT: note_off channel=9 note=46 velocity=64 time=0
EXTRACT: note_off channel=9 note=33 velocity=65 time=0
EXTRACT: note_off channel=9 note=54 velocity=65 time=0.004
EXTRACT: note_off channel=3 note=74 velocity=65 time=0.018000000000000002
EXTRACT: note_off channel=8 note=53 velocity=64 time=0.033
EXTRACT: note_off channel=5 note=41 velocity=65 time=0.032
EXTRACT: note_off channel=2 note=53 velocity=65 time=0
EXTRACT: note_on channel=2 note=53 velocity=124 time=0.009000000000000001
EXTRACT: note_on channel=5 note=41 velocity=112 time=0
EXTRACT: note_on channel=8 note=53 velocity=84 time=0
EXTRACT: note_on channel=9 note=70 velocity=107 time=0
EXTRACT: note_off channel=9 note=70 velocity=64 time=0.024
EXTRACT: note_off channel=1 note=41 velocity=64 time=0.06
EXTRACT: note_off channel=5 note=41 velocity=65 time=0.027
EXTRACT: note_off channel=2 note=53 velocity=64 time=0
EXTRACT: note_on channel=9 note=39 velocity=118 time=0.001
EXTRACT: note_off channel=8 note=53 velocity=65 time=0.004
EXTRACT: note_on channel=1 note=24 velocity=122 time=0.004
EXTRACT: note_on channel=2 note=36 velocity=125 time=0
EXTRACT: note_on channel=5 note=36 velocity=113 time=0
EXTRACT: note_on channel=8 note=36 velocity=85 time=0
EXTRACT: note_on channel=9 note=36 velocity=127 time=0
EXTRACT: note_on channel=9 note=38 velocity=117 time=0
EXTRACT: note_on channel=9 note=42 velocity=99 time=0
EXTRACT: note_on channel=9 note=70 velocity=107 time=0
EXTRACT: note_on channel=9 note=85 velocity=78 time=0
EXTRACT: note_on channel=9 note=54 velocity=56 time=0.005
EXTRACT: note_off channel=9 note=39 velocity=65 time=0.012
EXTRACT: note_off channel=9 note=85 velocity=64 time=0.007
EXTRACT: note_off channel=9 note=70 velocity=64 time=0
EXTRACT: note_off channel=9 note=42 velocity=65 time=0
EXTRACT: note_off channel=9 note=38 velocity=65 time=0
EXTRACT: note_off channel=9 note=36 velocity=64 time=0
EXTRACT: note_off channel=9 note=54 velocity=64 time=0.006
EXTRACT: note_off channel=5 note=36 velocity=64 time=0.081
EXTRACT: note_off channel=2 note=36 velocity=65 time=0
EXTRACT: note_off channel=8 note=36 velocity=65 time=0.003
EXTRACT: note_on channel=2 note=36 velocity=75 time=0.006
EXTRACT: note_on channel=5 note=36 velocity=62 time=0
EXTRACT: note_off channel=1 note=24 velocity=64 time=0.084
EXTRACT: note_off channel=5 note=36 velocity=64 time=0.027
EXTRACT: note_off channel=2 note=36 velocity=64 time=0
EXTRACT: note_on channel=1 note=36 velocity=123 time=0.009000000000000001
EXTRACT: note_on channel=2 note=48 velocity=124 time=0
EXTRACT: note_on channel=5 note=36 velocity=112 time=0
EXTRACT: note_on channel=8 note=48 velocity=87 time=0
EXTRACT: note_on channel=9 note=33 velocity=69 time=0
EXTRACT: note_on channel=9 note=42 velocity=115 time=0
EXTRACT: note_on channel=9 note=70 velocity=106 time=0
EXTRACT: note_on channel=9 note=54 velocity=56 time=0.005
EXTRACT: note_off channel=9 note=70 velocity=65 time=0.019
EXTRACT: note_off channel=9 note=42 velocity=65 time=0
EXTRACT: note_off channel=9 note=33 velocity=64 time=0
EXTRACT: note_off channel=9 note=54 velocity=64 time=0.006
EXTRACT: note_off channel=8 note=48 velocity=64 time=0.059000000000000004
EXTRACT: note_off channel=5 note=36 velocity=65 time=0.022
EXTRACT: note_off channel=2 note=48 velocity=64 time=0
EXTRACT: note_on channel=2 note=48 velocity=124 time=0.009000000000000001
EXTRACT: note_on channel=5 note=36 velocity=113 time=0
EXTRACT: note_on channel=8 note=48 velocity=76 time=0
EXTRACT: note_on channel=9 note=44 velocity=99 time=0
EXTRACT: note_on channel=9 note=70 velocity=106 time=0
EXTRACT: note_off channel=9 note=70 velocity=65 time=0.024
EXTRACT: note_off channel=9 note=44 velocity=64 time=0
EXTRACT: note_off channel=1 note=36 velocity=65 time=0.06
EXTRACT: note_off channel=5 note=36 velocity=65 time=0.027
EXTRACT: note_off channel=2 note=48 velocity=65 time=0
EXTRACT: note_on channel=1 note=26 velocity=123 time=0.009000000000000001
EXTRACT: note_on channel=2 note=38 velocity=125 time=0
EXTRACT: note_on channel=5 note=38 velocity=113 time=0
EXTRACT: note_on channel=8 note=38 velocity=84 time=0
EXTRACT: note_on channel=9 note=36 velocity=126 time=0
EXTRACT: note_on channel=9 note=42 velocity=122 time=0
EXTRACT: note_on channel=9 note=70 velocity=107 time=0
EXTRACT: note_on channel=9 note=85 velocity=71 time=0
EXTRACT: note_off channel=8 note=48 velocity=64 time=0
EXTRACT: note_on channel=9 note=54 velocity=59 time=0.007
EXTRACT: note_off channel=9 note=85 velocity=65 time=0.017
EXTRACT: note_off channel=9 note=70 velocity=65 time=0
EXTRACT: note_off channel=9 note=42 velocity=64 time=0
EXTRACT: note_off channel=9 note=36 velocity=65 time=0
EXTRACT: note_off channel=9 note=54 velocity=64 time=0.008
EXTRACT: note_off channel=5 note=38 velocity=64 time=0.079
EXTRACT: note_off channel=2 note=38 velocity=65 time=0
EXTRACT: note_off channel=8 note=38 velocity=65 time=0.003
EXTRACT: note_on channel=2 note=38 velocity=74 time=0.006
EXTRACT: note_on channel=5 note=38 velocity=62 time=0
EXTRACT: note_off channel=1 note=26 velocity=65 time=0.084
EXTRACT: note_off channel=5 note=38 velocity=64 time=0.027
EXTRACT: note_off channel=2 note=38 velocity=64 time=0
EXTRACT: note_on channel=1 note=38 velocity=122 time=0.009000000000000001
EXTRACT: note_on channel=2 note=50 velocity=125 time=0
EXTRACT: note_on channel=5 note=38 velocity=112 time=0
EXTRACT: note_on channel=8 note=50 velocity=85 time=0
EXTRACT: note_on channel=9 note=33 velocity=61 time=0
EXTRACT: note_on channel=9 note=46 velocity=104 time=0
EXTRACT: note_on channel=9 note=70 velocity=106 time=0
EXTRACT: note_on channel=9 note=54 velocity=55 time=0.004
EXTRACT: note_off channel=9 note=70 velocity=64 time=0.02
EXTRACT: note_off channel=9 note=46 velocity=65 time=0
EXTRACT: note_off channel=9 note=33 velocity=65 time=0
EXTRACT: note_off channel=9 note=54 velocity=64 time=0.005
EXTRACT: note_off channel=8 note=50 velocity=65 time=0.046
EXTRACT: note_off channel=5 note=38 velocity=65 time=0.036000000000000004
EXTRACT: note_off channel=2 note=50 velocity=64 time=0
EXTRACT: note_on channel=2 note=50 velocity=125 time=0.009000000000000001
EXTRACT: note_on channel=5 note=38 velocity=113 time=0
EXTRACT: note_on channel=8 note=50 velocity=84 time=0
EXTRACT: note_on channel=9 note=70 velocity=107 time=0
EXTRACT: note_off channel=9 note=70 velocity=64 time=0.024
EXTRACT: note_off channel=1 note=38 velocity=64 time=0.075
EXTRACT: note_off channel=5 note=38 velocity=64 time=0.012
EXTRACT: note_off channel=2 note=50 velocity=65 time=0
EXTRACT: note_on channel=9 note=39 velocity=119 time=0.001
EXTRACT: note_off channel=8 note=50 velocity=64 time=0.005
EXTRACT: note_on channel=1 note=26 velocity=122 time=0
EXTRACT: note_on channel=2 note=38 velocity=124 time=0
EXTRACT: note_on channel=3 note=69 velocity=116 time=0
EXTRACT: note_on channel=5 note=38 velocity=113 time=0
EXTRACT: note_on channel=8 note=38 velocity=85 time=0
EXTRACT: note_on channel=9 note=36 velocity=127 time=0
EXTRACT: note_on channel=9 note=38 velocity=116 time=0
EXTRACT: note_on channel=9 note=42 velocity=111 time=0
EXTRACT: note_on channel=9 note=70 velocity=107 time=0
EXTRACT: note_on channel=9 note=85 velocity=74 time=0
EXTRACT: note_on channel=9 note=54 velocity=56 time=0.002
EXTRACT: note_off channel=9 note=39 velocity=65 time=0.015
EXTRACT: note_off channel=9 note=85 velocity=65 time=0.007
EXTRACT: note_off channel=9 note=70 velocity=64 time=0
EXTRACT: note_off channel=9 note=42 velocity=64 time=0
EXTRACT: note_off channel=9 note=38 velocity=65 time=0
EXTRACT: note_off channel=9 note=36 velocity=64 time=0
EXTRACT: note_off channel=9 note=54 velocity=65 time=0.003
EXTRACT: note_off channel=5 note=38 velocity=65 time=0.084
EXTRACT: note_off channel=2 note=38 velocity=65 time=0
EXTRACT: note_off channel=8 note=38 velocity=64 time=0.003
EXTRACT: note_on channel=2 note=38 velocity=75 time=0.006
EXTRACT: note_on channel=5 note=38 velocity=62 time=0
EXTRACT: note_off channel=1 note=26 velocity=64 time=0.069
EXTRACT: note_off channel=5 note=38 velocity=65 time=0.042
EXTRACT: note_off channel=2 note=38 velocity=64 time=0
EXTRACT: note_on channel=1 note=38 velocity=123 time=0.009000000000000001
EXTRACT: note_on channel=2 note=50 velocity=124 time=0
EXTRACT: note_on channel=5 note=38 velocity=112 time=0
EXTRACT: note_on channel=8 note=50 velocity=79 time=0
EXTRACT: note_on channel=9 note=33 velocity=64 time=0
EXTRACT: note_on channel=9 note=42 velocity=124 time=0
EXTRACT: note_on channel=9 note=70 velocity=106 time=0
EXTRACT: note_on channel=9 note=54 velocity=52 time=0.002
EXTRACT: note_off channel=9 note=70 velocity=65 time=0.022
EXTRACT: note_off channel=9 note=42 velocity=64 time=0
EXTRACT: note_off channel=9 note=33 velocity=65 time=0
EXTRACT: note_off channel=9 note=54 velocity=64 time=0.003
EXTRACT: note_off channel=8 note=50 velocity=65 time=0.032
EXTRACT: note_off channel=3 note=69 velocity=64 time=0.027
EXTRACT: note_off channel=5 note=38 velocity=64 time=0.025
EXTRACT: note_off channel=2 note=50 velocity=64 time=0
EXTRACT: note_on channel=2 note=50 velocity=124 time=0.009000000000000001
EXTRACT: note_on channel=5 note=38 velocity=113 time=0
EXTRACT: note_on channel=8 note=50 velocity=74 time=0
EXTRACT: note_on channel=9 note=44 velocity=98 time=0
EXTRACT: note_on channel=9 note=70 velocity=107 time=0
EXTRACT: note_off channel=9 note=70 velocity=64 time=0.024
EXTRACT: note_off channel=9 note=44 velocity=65 time=0
EXTRACT: note_off channel=1 note=38 velocity=65 time=0.075
EXTRACT: note_off channel=8 note=50 velocity=64 time=0.011
EXTRACT: note_off channel=5 note=38 velocity=65 time=0.001
EXTRACT: note_off channel=2 note=50 velocity=65 time=0
EXTRACT: note_on channel=1 note=29 velocity=122 time=0
EXTRACT: note_on channel=2 note=41 velocity=125 time=0
EXTRACT: note_on channel=3 note=74 velocity=117 time=0
EXTRACT: note_on channel=5 note=41 velocity=112 time=0
EXTRACT: note_on channel=8 note=41 velocity=85 time=0
EXTRACT: note_on channel=9 note=36 velocity=126 time=0
EXTRACT: note_on channel=9 note=42 velocity=124 time=0
EXTRACT: note_on channel=9 note=70 velocity=106 time=0
EXTRACT: note_on channel=9 note=85 velocity=72 time=0
EXTRACT: note_on channel=9 note=54 velocity=55 time=0.004
EXTRACT: note_off channel=9 note=85 velocity=65 time=0.02
EXTRACT: note_off channel=9 note=70 velocity=64 time=0
EXTRACT: note_off channel=9 note=42 velocity=64 time=0
EXTRACT: note_off channel=9 note=36 velocity=65 time=0
EXTRACT: note_off channel=9 note=54 velocity=65 time=0.005
EXTRACT: note_off channel=5 note=41 velocity=64 time=0.082
EXTRACT: note_off channel=2 note=41 velocity=64 time=0
EXTRACT: note_off channel=8 note=41 velocity=65 time=0.003
EXTRACT: note_on channel=2 note=41 velocity=75 time=0.006
EXTRACT: note_on channel=5 note=41 velocity=63 time=0
EXTRACT: note_off channel=3 note=74 velocity=65 time=0.074
EXTRACT: note_off channel=1 note=29 velocity=64 time=0.025
EXTRACT: note_off channel=5 note=41 velocity=64 time=0.012
EXTRACT: note_off channel=2 note=41 velocity=65 time=0
EXTRACT: note_on channel=1 note=41 velocity=123 time=0
EXTRACT: note_on channel=2 note=53 velocity=124 time=0
EXTRACT: note_on channel=3 note=74 velocity=116 time=0
EXTRACT: note_on channel=5 note=41 velocity=113 time=0
EXTRACT: note_on channel=8 note=53 velocity=84 time=0
EXTRACT: note_on channel=9 note=33 velocity=62 time=0
EXTRACT: note_on channel=9 note=46 velocity=111 time=0
EXTRACT: note_on channel=9 note=70 velocity=106 time=0
EXTRACT: note_on channel=9 note=54 velocity=53 time=0.004
EXTRACT: note_off channel=9 note=70 velocity=64 time=0.02
EXTRACT: note_off channel=9 note=46 velocity=64 time=0
EXTRACT: note_off channel=9 note=33 velocity=65 time=0
EXTRACT: note_off channel=9 note=54 velocity=64 time=0.005
EXTRACT: note_off channel=8 note=53 velocity=65 time=0.019
EXTRACT: note_off channel=5 note=41 velocity=65 time=0.032
EXTRACT: note_off channel=2 note=53 velocity=65 time=0
EXTRACT: note_on channel=2 note=53 velocity=124 time=0.009000000000000001
EXTRACT: note_on channel=5 note=41 velocity=112 time=0
EXTRACT: note_on channel=8 note=53 velocity=84 time=0
EXTRACT: note_on channel=9 note=70 velocity=107 time=0
EXTRACT: note_off channel=9 note=70 velocity=65 time=0.024
EXTRACT: note_off channel=1 note=41 velocity=65 time=0.06
EXTRACT: note_off channel=3 note=74 velocity=64 time=0.004
EXTRACT: note_off channel=5 note=41 velocity=65 time=0.023
EXTRACT: note_off channel=2 note=53 velocity=64 time=0
EXTRACT: note_on channel=9 note=39 velocity=119 time=0.001
EXTRACT: note_off channel=8 note=53 velocity=64 time=0.004
EXTRACT: note_on channel=1 note=24 velocity=123 time=0.004
EXTRACT: note_on channel=2 note=36 velocity=125 time=0
EXTRACT: note_on channel=5 note=36 velocity=113 time=0
EXTRACT: note_on channel=8 note=36 velocity=85 time=0
EXTRACT: note_on channel=9 note=36 velocity=126 time=0
EXTRACT: note_on channel=9 note=38 velocity=116 time=0
EXTRACT: note_on channel=9 note=42 velocity=113 time=0
EXTRACT: note_on channel=9 note=70 velocity=107 time=0
EXTRACT: note_on channel=9 note=85 velocity=79 time=0
EXTRACT: note_on channel=9 note=54 velocity=56 time=0.003
EXTRACT: note_off channel=9 note=39 velocity=65 time=0.014
EXTRACT: note_off channel=9 note=85 velocity=64 time=0.007
EXTRACT: note_off channel=9 note=70 velocity=65 time=0
EXTRACT: note_off channel=9 note=42 velocity=64 time=0
EXTRACT: note_off channel=9 note=38 velocity=64 time=0
EXTRACT: note_off channel=9 note=36 velocity=65 time=0
EXTRACT: note_off channel=9 note=54 velocity=65 time=0.004
EXTRACT: note_off channel=5 note=36 velocity=64 time=0.083
EXTRACT: note_off channel=2 note=36 velocity=65 time=0
EXTRACT: note_off channel=8 note=36 velocity=65 time=0.003
EXTRACT: note_on channel=2 note=36 velocity=75 time=0.006
EXTRACT: note_on channel=5 note=36 velocity=62 time=0
EXTRACT: note_on channel=12 note=70 velocity=107 time=0.08
EXTRACT: note_off channel=1 note=24 velocity=65 time=0.004
EXTRACT: note_off channel=5 note=36 velocity=64 time=0.027
EXTRACT: note_off channel=2 note=36 velocity=64 time=0
EXTRACT: note_on channel=1 note=36 velocity=122 time=0.009000000000000001
EXTRACT: note_on channel=2 note=48 velocity=124 time=0
EXTRACT: note_on channel=5 note=36 velocity=112 time=0
EXTRACT: note_on channel=8 note=48 velocity=87 time=0
EXTRACT: note_on channel=9 note=33 velocity=69 time=0
EXTRACT: note_on channel=9 note=42 velocity=109 time=0
EXTRACT: note_on channel=9 note=70 velocity=106 time=0
EXTRACT: note_on channel=9 note=54 velocity=54 time=0.006
EXTRACT: note_off channel=9 note=70 velocity=64 time=0.018000000000000002
EXTRACT: note_off channel=9 note=42 velocity=64 time=0
EXTRACT: note_off channel=9 note=33 velocity=65 time=0
EXTRACT: note_off channel=9 note=54 velocity=65 time=0.006
EXTRACT: note_off channel=8 note=48 velocity=64 time=0.059000000000000004
EXTRACT: note_off channel=5 note=36 velocity=65 time=0.022
EXTRACT: note_off channel=2 note=48 velocity=64 time=0
EXTRACT: note_on channel=2 note=48 velocity=124 time=0.009000000000000001
EXTRACT: note_on channel=5 note=36 velocity=113 time=0
EXTRACT: note_on channel=8 note=48 velocity=72 time=0
EXTRACT: note_on channel=9 note=44 velocity=98 time=0
EXTRACT: note_on channel=9 note=70 velocity=106 time=0
EXTRACT: note_off channel=9 note=70 velocity=64 time=0.024
EXTRACT: note_off channel=9 note=44 velocity=64 time=0
EXTRACT: note_off channel=1 note=36 velocity=64 time=0.06
EXTRACT: control_change channel=9 control=91 value=20 time=0.006
EXTRACT: note_off channel=5 note=36 velocity=65 time=0.024
EXTRACT: note_off channel=2 note=48 velocity=65 time=0
EXTRACT: note_on channel=1 note=26 velocity=123 time=0
EXTRACT: note_on channel=2 note=38 velocity=125 time=0
EXTRACT: note_on channel=3 note=74 velocity=116 time=0
EXTRACT: note_on channel=5 note=38 velocity=113 time=0
EXTRACT: note_on channel=8 note=38 velocity=84 time=0
EXTRACT: note_on channel=9 note=36 velocity=127 time=0
EXTRACT: note_on channel=9 note=42 velocity=124 time=0
EXTRACT: note_on channel=9 note=70 velocity=107 time=0
EXTRACT: note_on channel=9 note=85 velocity=75 time=0
EXTRACT: note_off channel=8 note=48 velocity=64 time=0
EXTRACT: note_on channel=9 note=54 velocity=59 time=0.004
EXTRACT: note_off channel=12 note=70 velocity=65 time=0.01
EXTRACT: note_off channel=9 note=85 velocity=65 time=0.01
EXTRACT: note_off channel=9 note=70 velocity=64 time=0
EXTRACT: note_off channel=9 note=42 velocity=65 time=0
EXTRACT: note_off channel=9 note=36 velocity=65 time=0
EXTRACT: note_off channel=9 note=54 velocity=64 time=0.005
EXTRACT: note_off channel=5 note=38 velocity=64 time=0.082
EXTRACT: note_off channel=2 note=38 velocity=65 time=0
EXTRACT: note_off channel=8 note=38 velocity=65 time=0.003
EXTRACT: note_on channel=2 note=38 velocity=74 time=0.006
EXTRACT: note_on channel=5 note=38 velocity=62 time=0
EXTRACT: note_off channel=1 note=26 velocity=65 time=0.084
EXTRACT: note_off channel=5 note=38 velocity=64 time=0.027
EXTRACT: note_off channel=2 note=38 velocity=64 time=0
EXTRACT: note_on channel=1 note=38 velocity=122 time=0.009000000000000001
EXTRACT: note_on channel=2 note=50 velocity=125 time=0
EXTRACT: note_on channel=5 note=38 velocity=112 time=0
EXTRACT: note_on channel=8 note=50 velocity=85 time=0
EXTRACT: note_on channel=9 note=33 velocity=65 time=0
EXTRACT: note_on channel=9 note=46 velocity=111 time=0
EXTRACT: note_on channel=9 note=70 velocity=107 time=0
EXTRACT: note_on channel=9 note=54 velocity=52 time=0.001
EXTRACT: note_off channel=9 note=70 velocity=65 time=0.023
EXTRACT: note_off channel=9 note=46 velocity=64 time=0
EXTRACT: note_off channel=9 note=33 velocity=64 time=0
EXTRACT: note_off channel=9 note=54 velocity=65 time=0.002
EXTRACT: note_off channel=3 note=74 velocity=64 time=0.001
EXTRACT: note_off channel=8 note=50 velocity=65 time=0.048
EXTRACT: note_off channel=5 note=38 velocity=65 time=0.036000000000000004
EXTRACT: note_off channel=2 note=50 velocity=64 time=0
EXTRACT: note_on channel=2 note=50 velocity=125 time=0.009000000000000001
EXTRACT: note_on channel=5 note=38 velocity=113 time=0
EXTRACT: note_on channel=8 note=50 velocity=85 time=0
EXTRACT: note_on channel=9 note=70 velocity=106 time=0
EXTRACT: note_off channel=9 note=70 velocity=65 time=0.024
EXTRACT: note_off channel=1 note=38 velocity=64 time=0.075
EXTRACT: note_off channel=5 note=38 velocity=64 time=0.012
EXTRACT: note_off channel=2 note=50 velocity=65 time=0
EXTRACT: note_on channel=9 note=39 velocity=118 time=0.001
EXTRACT: note_off channel=8 note=50 velocity=64 time=0.005
EXTRACT: note_on channel=1 note=26 velocity=122 time=0
EXTRACT: note_on channel=2 note=38 velocity=124 time=0
EXTRACT: note_on channel=3 note=69 velocity=117 time=0
EXTRACT: note_on channel=5 note=38 velocity=113 time=0
EXTRACT: note_on channel=8 note=38 velocity=84 time=0
EXTRACT: note_on channel=9 note=36 velocity=127 time=0
EXTRACT: note_on channel=9 note=38 velocity=117 time=0
EXTRACT: note_on channel=9 note=42 velocity=122 time=0
EXTRACT: note_on channel=9 note=70 velocity=106 time=0
EXTRACT: note_on channel=9 note=85 velocity=70 time=0
EXTRACT: note_on channel=9 note=54 velocity=53 time=0
EXTRACT: note_off channel=9 note=39 velocity=64 time=0.017
EXTRACT: note_off channel=9 note=85 velocity=64 time=0.007
EXTRACT: note_off channel=9 note=70 velocity=65 time=0
EXTRACT: note_off channel=9 note=42 velocity=65 time=0
EXTRACT: note_off channel=9 note=38 velocity=64 time=0
EXTRACT: note_off channel=9 note=36 velocity=64 time=0
EXTRACT: note_off channel=9 note=54 velocity=65 time=0.001
EXTRACT: note_off channel=5 note=38 velocity=65 time=0.08600000000000001
EXTRACT: note_off channel=2 note=38 velocity=65 time=0
EXTRACT: note_off channel=8 note=38 velocity=64 time=0.003
EXTRACT: note_on channel=2 note=38 velocity=75 time=0.006
EXTRACT: note_on channel=5 note=38 velocity=62 time=0
EXTRACT: note_off channel=1 note=26 velocity=64 time=0.069
EXTRACT: note_off channel=5 note=38 velocity=65 time=0.042
EXTRACT: note_off channel=2 note=38 velocity=64 time=0
EXTRACT: note_on channel=1 note=38 velocity=123 time=0.009000000000000001
EXTRACT: note_on channel=2 note=50 velocity=124 time=0
EXTRACT: note_on channel=5 note=38 velocity=112 time=0
EXTRACT: note_on channel=8 note=50 velocity=78 time=0
EXTRACT: note_on channel=9 note=33 velocity=60 time=0
EXTRACT: note_on channel=9 note=42 velocity=117 time=0
EXTRACT: note_on channel=9 note=54 velocity=59 time=0
EXTRACT: note_on channel=9 note=70 velocity=107 time=0
EXTRACT: note_off channel=9 note=70 velocity=64 time=0.024
EXTRACT: note_off channel=9 note=54 velocity=65 time=0
EXTRACT: note_off channel=9 note=42 velocity=65 time=0
EXTRACT: note_off channel=9 note=33 velocity=64 time=0
EXTRACT: note_off channel=8 note=50 velocity=65 time=0.035
EXTRACT: note_off channel=3 note=69 velocity=65 time=0.008
EXTRACT: note_off channel=5 note=38 velocity=64 time=0.044
EXTRACT: note_off channel=2 note=50 velocity=64 time=0
EXTRACT: note_on channel=2 note=50 velocity=124 time=0.009000000000000001
EXTRACT: note_on channel=5 note=38 velocity=113 time=0
EXTRACT: note_on channel=8 note=50 velocity=75 time=0
EXTRACT: note_on channel=9 note=44 velocity=99 time=0
EXTRACT: note_on channel=9 note=70 velocity=106 time=0
EXTRACT: note_off channel=9 note=70 velocity=65 time=0.024
EXTRACT: note_off channel=9 note=44 velocity=64 time=0
EXTRACT: note_off channel=1 note=38 velocity=65 time=0.075
EXTRACT: note_off channel=8 note=50 velocity=65 time=0.011
EXTRACT: note_off channel=5 note=38 velocity=65 time=0.001
EXTRACT: note_off channel=2 note=50 velocity=65 time=0
EXTRACT: note_on channel=1 note=29 velocity=123 time=0
EXTRACT: note_on channel=2 note=41 velocity=125 time=0
EXTRACT: note_on channel=3 note=74 velocity=117 time=0
EXTRACT: note_on channel=5 note=41 velocity=112 time=0
EXTRACT: note_on channel=8 note=41 velocity=84 time=0
EXTRACT: note_on channel=9 note=36 velocity=126 time=0
EXTRACT: note_on channel=9 note=42 velocity=125 time=0
EXTRACT: note_on channel=9 note=70 velocity=107 time=0
EXTRACT: note_on channel=9 note=85 velocity=74 time=0
EXTRACT: note_on channel=9 note=54 velocity=54 time=0
EXTRACT: note_off channel=9 note=85 velocity=64 time=0.024
EXTRACT: note_off channel=9 note=70 velocity=65 time=0
EXTRACT: note_off channel=9 note=42 velocity=65 time=0
EXTRACT: note_off channel=9 note=36 velocity=64 time=0
EXTRACT: note_off channel=9 note=54 velocity=64 time=0.001
EXTRACT: note_off channel=5 note=41 velocity=64 time=0.08600000000000001
EXTRACT: note_off channel=2 note=41 velocity=64 time=0
EXTRACT: note_off channel=8 note=41 velocity=64 time=0.003
EXTRACT: note_on channel=2 note=41 velocity=75 time=0.006
EXTRACT: note_on channel=5 note=41 velocity=63 time=0
EXTRACT: note_off channel=1 note=29 velocity=65 time=0.099
EXTRACT: note_off channel=5 note=41 velocity=64 time=0.012
EXTRACT: note_off channel=2 note=41 velocity=65 time=0
EXTRACT: note_on channel=1 note=41 velocity=122 time=0.009000000000000001
EXTRACT: note_on channel=2 note=53 velocity=124 time=0
EXTRACT: note_on channel=5 note=41 velocity=113 time=0
EXTRACT: note_on channel=8 note=53 velocity=85 time=0
EXTRACT: note_on channel=9 note=33 velocity=64 time=0
EXTRACT: note_on channel=9 note=46 velocity=106 time=0
EXTRACT: note_on channel=9 note=70 velocity=107 time=0
EXTRACT: note_on channel=9 note=54 velocity=53 time=0
EXTRACT: note_off channel=9 note=70 velocity=65 time=0.024
EXTRACT: note_off channel=9 note=46 velocity=65 time=0
EXTRACT: note_off channel=9 note=33 velocity=64 time=0
EXTRACT: note_off channel=9 note=54 velocity=64 time=0.001
EXTRACT: note_off channel=3 note=74 velocity=65 time=0.021
EXTRACT: note_off channel=8 note=53 velocity=64 time=0.033
EXTRACT: note_off channel=5 note=41 velocity=65 time=0.032
EXTRACT: note_off channel=2 note=53 velocity=65 time=0
EXTRACT: note_on channel=2 note=53 velocity=124 time=0.009000000000000001
EXTRACT: note_on channel=5 note=41 velocity=112 time=0
EXTRACT: note_on channel=8 note=53 velocity=85 time=0
EXTRACT: note_on channel=9 note=70 velocity=106 time=0
EXTRACT: note_off channel=9 note=70 velocity=65 time=0.024
EXTRACT: note_off channel=1 note=41 velocity=64 time=0.06
EXTRACT: note_off channel=5 note=41 velocity=65 time=0.027
EXTRACT: note_off channel=2 note=53 velocity=64 time=0
EXTRACT: note_on channel=9 note=39 velocity=119 time=0.001
EXTRACT: note_off channel=8 note=53 velocity=65 time=0.004
EXTRACT: note_on channel=1 note=24 velocity=122 time=0.004
EXTRACT: note_on channel=2 note=36 velocity=125 time=0
EXTRACT: note_on channel=5 note=36 velocity=113 time=0
EXTRACT: note_on channel=8 note=36 velocity=84 time=0
EXTRACT: note_on channel=9 note=36 velocity=126 time=0
EXTRACT: note_on channel=9 note=38 velocity=117 time=0
EXTRACT: note_on channel=9 note=42 velocity=116 time=0
EXTRACT: note_on channel=9 note=70 velocity=107 time=0
EXTRACT: note_on channel=9 note=85 velocity=79 time=0
EXTRACT: note_on channel=9 note=54 velocity=54 time=0.002
EXTRACT: note_off channel=9 note=39 velocity=64 time=0.015
EXTRACT: note_off channel=9 note=85 velocity=65 time=0.007
EXTRACT: note_off channel=9 note=70 velocity=65 time=0
EXTRACT: note_off channel=9 note=42 velocity=64 time=0
EXTRACT: note_off channel=9 note=38 velocity=65 time=0
EXTRACT: note_off channel=9 note=36 velocity=64 time=0
EXTRACT: note_off channel=9 note=54 velocity=64 time=0.002
EXTRACT: note_off channel=5 note=36 velocity=64 time=0.085
EXTRACT: note_off channel=2 note=36 velocity=65 time=0
EXTRACT: note_off channel=8 note=36 velocity=64 time=0.003
EXTRACT: note_on channel=2 note=36 velocity=75 time=0.006
EXTRACT: note_on channel=5 note=36 velocity=62 time=0
EXTRACT: note_off channel=1 note=24 velocity=64 time=0.084
EXTRACT: note_off channel=5 note=36 velocity=64 time=0.027
EXTRACT: note_off channel=2 note=36 velocity=64 time=0
EXTRACT: note_on channel=1 note=36 velocity=123 time=0.009000000000000001
EXTRACT: note_on channel=2 note=48 velocity=124 time=0
EXTRACT: note_on channel=5 note=36 velocity=112 time=0
EXTRACT: note_on channel=8 note=48 velocity=87 time=0
EXTRACT: note_on channel=9 note=33 velocity=69 time=0
EXTRACT: note_on channel=9 note=42 velocity=116 time=0
EXTRACT: note_on channel=9 note=70 velocity=106 time=0
EXTRACT: note_on channel=9 note=54 velocity=52 time=0.002
EXTRACT: note_off channel=9 note=70 velocity=65 time=0.022
EXTRACT: note_off channel=9 note=42 velocity=65 time=0
EXTRACT: note_off channel=9 note=33 velocity=64 time=0
EXTRACT: note_off channel=9 note=54 velocity=64 time=0.003
EXTRACT: note_off channel=8 note=48 velocity=65 time=0.062
EXTRACT: note_off channel=5 note=36 velocity=65 time=0.022
EXTRACT: note_off channel=2 note=48 velocity=64 time=0
EXTRACT: note_on channel=2 note=48 velocity=124 time=0.009000000000000001
EXTRACT: note_on channel=5 note=36 velocity=113 time=0
EXTRACT: note_on channel=8 note=48 velocity=76 time=0
EXTRACT: note_on channel=9 note=44 velocity=98 time=0
EXTRACT: note_on channel=9 note=70 velocity=106 time=0
EXTRACT: note_off channel=9 note=70 velocity=65 time=0.024
EXTRACT: note_off channel=9 note=44 velocity=65 time=0
EXTRACT: note_off channel=1 note=36 velocity=65 time=0.06
EXTRACT: note_off channel=5 note=36 velocity=65 time=0.027
EXTRACT: note_off channel=2 note=48 velocity=65 time=0
EXTRACT: note_on channel=1 note=26 velocity=123 time=0.009000000000000001
EXTRACT: note_on channel=2 note=38 velocity=125 time=0
EXTRACT: note_on channel=5 note=38 velocity=113 time=0
EXTRACT: note_on channel=8 note=38 velocity=84 time=0
EXTRACT: note_on channel=9 note=36 velocity=127 time=0
EXTRACT: note_on channel=9 note=42 velocity=117 time=0
EXTRACT: note_on channel=9 note=70 velocity=107 time=0
EXTRACT: note_on channel=9 note=85 velocity=71 time=0
EXTRACT: note_off channel=8 note=48 velocity=65 time=0
EXTRACT: note_on channel=9 note=54 velocity=57 time=0.003
EXTRACT: note_off channel=9 note=85 velocity=64 time=0.021
EXTRACT: note_off channel=9 note=70 velocity=64 time=0
EXTRACT: note_off channel=9 note=42 velocity=65 time=0
EXTRACT: note_off channel=9 note=36 velocity=64 time=0
EXTRACT: note_off channel=9 note=54 velocity=65 time=0.004
EXTRACT: note_off channel=5 note=38 velocity=64 time=0.083
EXTRACT: note_off channel=2 note=38 velocity=65 time=0
EXTRACT: note_off channel=8 note=38 velocity=64 time=0.003
EXTRACT: note_on channel=2 note=38 velocity=74 time=0.006
EXTRACT: note_on channel=5 note=38 velocity=62 time=0
EXTRACT: note_off channel=1 note=26 velocity=65 time=0.084
EXTRACT: note_off channel=5 note=38 velocity=64 time=0.027
EXTRACT: note_off channel=2 note=38 velocity=64 time=0
EXTRACT: note_on channel=1 note=38 velocity=122 time=0.009000000000000001
EXTRACT: note_on channel=2 note=50 velocity=125 time=0
EXTRACT: note_on channel=5 note=38 velocity=112 time=0
EXTRACT: note_on channel=8 note=50 velocity=85 time=0
EXTRACT: note_on channel=9 note=33 velocity=60 time=0
EXTRACT: note_on channel=9 note=46 velocity=105 time=0
EXTRACT: note_on channel=9 note=70 velocity=107 time=0
EXTRACT: note_on channel=9 note=54 velocity=55 time=0.003
EXTRACT: note_off channel=9 note=70 velocity=65 time=0.021
EXTRACT: note_off channel=9 note=46 velocity=64 time=0
EXTRACT: note_off channel=9 note=33 velocity=65 time=0
EXTRACT: note_off channel=9 note=54 velocity=64 time=0.003
EXTRACT: note_off channel=8 note=50 velocity=65 time=0.048
EXTRACT: note_off channel=5 note=38 velocity=65 time=0.036000000000000004
EXTRACT: note_off channel=2 note=50 velocity=64 time=0
EXTRACT: note_on channel=2 note=50 velocity=125 time=0.009000000000000001
EXTRACT: note_on channel=5 note=38 velocity=113 time=0
EXTRACT: note_on channel=8 note=50 velocity=85 time=0
EXTRACT: note_on channel=9 note=70 velocity=106 time=0
EXTRACT: note_off channel=9 note=70 velocity=64 time=0.024
EXTRACT: note_off channel=1 note=38 velocity=64 time=0.075
EXTRACT: note_off channel=5 note=38 velocity=64 time=0.012
EXTRACT: note_off channel=2 note=50 velocity=65 time=0
EXTRACT: note_on channel=9 note=39 velocity=118 time=0.001
EXTRACT: note_off channel=8 note=50 velocity=64 time=0.005
EXTRACT: note_on channel=1 note=26 velocity=122 time=0
EXTRACT: note_on channel=2 note=38 velocity=124 time=0
EXTRACT: note_on channel=3 note=69 velocity=116 time=0
EXTRACT: note_on channel=5 note=38 velocity=113 time=0
EXTRACT: note_on channel=8 note=38 velocity=84 time=0
EXTRACT: note_on channel=9 note=36 velocity=127 time=0
EXTRACT: note_on channel=9 note=38 velocity=116 time=0
EXTRACT: note_on channel=9 note=42 velocity=116 time=0
EXTRACT: note_on channel=9 note=70 velocity=106 time=0
EXTRACT: note_on channel=9 note=85 velocity=74 time=0
EXTRACT: note_on channel=9 note=54 velocity=58 time=0.004
EXTRACT: note_off channel=9 note=39 velocity=65 time=0.013000000000000001
EXTRACT: note_off channel=9 note=85 velocity=65 time=0.007
EXTRACT: note_off channel=9 note=70 velocity=64 time=0
EXTRACT: note_off channel=9 note=42 velocity=64 time=0
EXTRACT: note_off channel=9 note=38 velocity=65 time=0
EXTRACT: note_off channel=9 note=36 velocity=65 time=0
EXTRACT: note_off channel=9 note=54 velocity=64 time=0.005
EXTRACT: note_off channel=5 note=38 velocity=65 time=0.082
EXTRACT: note_off channel=2 note=38 velocity=65 time=0
EXTRACT: note_off channel=8 note=38 velocity=64 time=0.003
EXTRACT: note_on channel=2 note=38 velocity=75 time=0.006
EXTRACT: note_on channel=5 note=38 velocity=62 time=0
EXTRACT: note_off channel=1 note=26 velocity=64 time=0.069
EXTRACT: note_off channel=5 note=38 velocity=65 time=0.042
EXTRACT: note_off channel=2 note=38 velocity=64 time=0
EXTRACT: note_on channel=1 note=38 velocity=123 time=0.009000000000000001
EXTRACT: note_on channel=2 note=50 velocity=124 time=0
EXTRACT: note_on channel=5 note=38 velocity=112 time=0
EXTRACT: note_on channel=8 note=50 velocity=78 time=0
EXTRACT: note_on channel=9 note=33 velocity=65 time=0
EXTRACT: note_on channel=9 note=42 velocity=115 time=0
EXTRACT: note_on channel=9 note=70 velocity=107 time=0
EXTRACT: note_on channel=9 note=54 velocity=54 time=0.004
EXTRACT: note_off channel=9 note=70 velocity=64 time=0.02
EXTRACT: note_off channel=9 note=42 velocity=65 time=0
EXTRACT: note_off channel=9 note=33 velocity=64 time=0
EXTRACT: note_off channel=9 note=54 velocity=65 time=0.005
EXTRACT: note_off channel=8 note=50 velocity=65 time=0.03
EXTRACT: note_off channel=3 note=69 velocity=64 time=0.027
EXTRACT: note_off channel=5 note=38 velocity=64 time=0.025
EXTRACT: note_off channel=2 note=50 velocity=64 time=0
EXTRACT: note_on channel=2 note=50 velocity=124 time=0.009000000000000001
EXTRACT: note_on channel=5 note=38 velocity=113 time=0
EXTRACT: note_on channel=8 note=50 velocity=75 time=0
EXTRACT: note_on channel=9 note=44 velocity=99 time=0
EXTRACT: note_on channel=9 note=70 velocity=107 time=0
EXTRACT: note_off channel=9 note=70 velocity=65 time=0.024
EXTRACT: note_off channel=9 note=44 velocity=64 time=0
EXTRACT: note_off channel=1 note=38 velocity=65 time=0.075
EXTRACT: note_off channel=8 note=50 velocity=65 time=0.011
EXTRACT: note_off channel=5 note=38 velocity=65 time=0.001
EXTRACT: note_off channel=2 note=50 velocity=65 time=0
EXTRACT: note_on channel=1 note=29 velocity=122 time=0
EXTRACT: note_on channel=2 note=41 velocity=125 time=0
EXTRACT: note_on channel=3 note=74 velocity=116 time=0
EXTRACT: note_on channel=5 note=41 velocity=112 time=0
EXTRACT: note_on channel=8 note=41 velocity=85 time=0
EXTRACT: note_on channel=9 note=36 velocity=126 time=0
EXTRACT: note_on channel=9 note=42 velocity=119 time=0
EXTRACT: note_on channel=9 note=70 velocity=106 time=0
EXTRACT: note_on channel=9 note=85 velocity=72 time=0
EXTRACT: note_on channel=9 note=54 velocity=59 time=0.004
EXTRACT: note_off channel=9 note=85 velocity=65 time=0.02
EXTRACT: note_off channel=9 note=70 velocity=64 time=0
EXTRACT: note_off channel=9 note=42 velocity=64 time=0
EXTRACT: note_off channel=9 note=36 velocity=65 time=0
EXTRACT: note_off channel=9 note=54 velocity=65 time=0.005
EXTRACT: note_off channel=5 note=41 velocity=64 time=0.082
EXTRACT: note_off channel=2 note=41 velocity=64 time=0
EXTRACT: note_off channel=8 note=41 velocity=64 time=0.003
EXTRACT: note_on channel=2 note=41 velocity=75 time=0.006
EXTRACT: note_on channel=5 note=41 velocity=63 time=0
EXTRACT: note_off channel=3 note=74 velocity=64 time=0.074
EXTRACT: note_off channel=1 note=29 velocity=64 time=0.025
EXTRACT: note_off channel=5 note=41 velocity=64 time=0.012
EXTRACT: note_off channel=2 note=41 velocity=65 time=0
EXTRACT: note_on channel=1 note=41 velocity=123 time=0
EXTRACT: note_on channel=2 note=53 velocity=124 time=0
EXTRACT: note_on channel=3 note=74 velocity=117 time=0
EXTRACT: note_on channel=5 note=41 velocity=113 time=0
EXTRACT: note_on channel=8 note=53 velocity=84 time=0
EXTRACT: note_on channel=9 note=33 velocity=63 time=0
EXTRACT: note_on channel=9 note=46 velocity=106 time=0
EXTRACT: note_on channel=9 note=70 velocity=106 time=0
EXTRACT: note_on channel=9 note=54 velocity=55 time=0.005
EXTRACT: note_off channel=9 note=70 velocity=64 time=0.019
EXTRACT: note_off channel=9 note=46 velocity=64 time=0
EXTRACT: note_off channel=9 note=33 velocity=65 time=0
EXTRACT: note_off channel=9 note=54 velocity=65 time=0.005
EXTRACT: note_off channel=8 note=53 velocity=64 time=0.049
EXTRACT: note_off channel=5 note=41 velocity=65 time=0.032
EXTRACT: note_off channel=2 note=53 velocity=65 time=0
EXTRACT: note_on channel=2 note=53 velocity=124 time=0.009000000000000001
EXTRACT: note_on channel=5 note=41 velocity=112 time=0
EXTRACT: note_on channel=8 note=53 velocity=84 time=0
EXTRACT: note_on channel=9 note=70 velocity=107 time=0
EXTRACT: note_off channel=9 note=70 velocity=64 time=0.024
EXTRACT: note_off channel=1 note=41 velocity=65 time=0.06
EXTRACT: note_off channel=3 note=74 velocity=65 time=0.004
EXTRACT: control_change channel=9 control=91 value=30 time=0.002
EXTRACT: note_off channel=5 note=41 velocity=65 time=0.021
EXTRACT: note_off channel=2 note=53 velocity=64 time=0
EXTRACT: note_on channel=9 note=39 velocity=118 time=0.001
EXTRACT: note_off channel=8 note=53 velocity=65 time=0.004
EXTRACT: note_on channel=1 note=24 velocity=123 time=0.004
EXTRACT: note_on channel=2 note=36 velocity=125 time=0
EXTRACT: note_on channel=5 note=36 velocity=113 time=0
EXTRACT: note_on channel=8 note=36 velocity=85 time=0
EXTRACT: note_on channel=9 note=36 velocity=126 time=0
EXTRACT: note_on channel=9 note=38 velocity=116 time=0
EXTRACT: note_on channel=9 note=42 velocity=122 time=0
EXTRACT: note_on channel=9 note=70 velocity=106 time=0
EXTRACT: note_on channel=9 note=85 velocity=79 time=0
EXTRACT: note_on channel=9 note=54 velocity=54 time=0.005
EXTRACT: note_off channel=9 note=39 velocity=64 time=0.012
EXTRACT: note_off channel=9 note=85 velocity=65 time=0.007
EXTRACT: note_off channel=9 note=70 velocity=64 time=0
EXTRACT: note_off channel=9 note=42 velocity=65 time=0
EXTRACT: note_off channel=9 note=38 velocity=65 time=0
EXTRACT: note_off channel=9 note=36 velocity=64 time=0
EXTRACT: note_off channel=9 note=54 velocity=65 time=0.006
EXTRACT: note_off channel=5 note=36 velocity=64 time=0.081
EXTRACT: note_off channel=2 note=36 velocity=65 time=0
EXTRACT: note_off channel=8 note=36 velocity=65 time=0.003
EXTRACT: note_on channel=2 note=36 velocity=75 time=0.006
EXTRACT: note_on channel=5 note=36 velocity=62 time=0
EXTRACT: note_on channel=12 note=74 velocity=107 time=0.06
EXTRACT: note_off channel=1 note=24 velocity=65 time=0.024
EXTRACT: note_off channel=5 note=36 velocity=64 time=0.027
EXTRACT: note_off channel=2 note=36 velocity=64 time=0
EXTRACT: note_on channel=1 note=36 velocity=122 time=0.009000000000000001
EXTRACT: note_on channel=2 note=48 velocity=124 time=0
EXTRACT: note_on channel=5 note=36 velocity=112 time=0
EXTRACT: note_on channel=8 note=48 velocity=86 time=0
EXTRACT: note_on channel=9 note=33 velocity=68 time=0
EXTRACT: note_on channel=9 note=42 velocity=123 time=0
EXTRACT: note_on channel=9 note=55 velocity=111 time=0
EXTRACT: note_on channel=9 note=70 velocity=107 time=0
EXTRACT: note_on channel=9 note=54 velocity=56 time=0.006
EXTRACT: note_off channel=9 note=70 velocity=64 time=0.018000000000000002
EXTRACT: note_off channel=9 note=55 velocity=64 time=0
EXTRACT: note_off channel=9 note=42 velocity=65 time=0
EXTRACT: note_off channel=9 note=33 velocity=65 time=0
EXTRACT: note_off channel=9 note=54 velocity=64 time=0.007
EXTRACT: note_off channel=8 note=48 velocity=64 time=0.058
EXTRACT: note_off channel=5 note=36 velocity=65 time=0.022
EXTRACT: note_off channel=2 note=48 velocity=64 time=0
EXTRACT: note_on channel=2 note=48 velocity=124 time=0.009000000000000001
EXTRACT: note_on channel=5 note=36 velocity=113 time=0
EXTRACT: note_on channel=8 note=48 velocity=73 time=0
EXTRACT: note_on channel=9 note=44 velocity=99 time=0
EXTRACT: note_on channel=9 note=70 velocity=107 time=0
EXTRACT: note_off channel=9 note=70 velocity=64 time=0.024
EXTRACT: note_off channel=9 note=44 velocity=65 time=0
EXTRACT: note_off channel=1 note=36 velocity=64 time=0.06
EXTRACT: note_off channel=5 note=36 velocity=65 time=0.03
EXTRACT: note_off channel=2 note=48 velocity=65 time=0
EXTRACT: note_off channel=12 note=74 velocity=65 time=0
EXTRACT: note_on channel=1 note=26 velocity=123 time=0
EXTRACT: note_on channel=2 note=38 velocity=125 time=0
EXTRACT: note_on channel=3 note=74 velocity=117 time=0
EXTRACT: note_on channel=5 note=38 velocity=113 time=0
EXTRACT: note_on channel=8 note=38 velocity=85 time=0
EXTRACT: note_on channel=9 note=36 velocity=127 time=0
EXTRACT: note_on channel=9 note=42 velocity=126 time=0
EXTRACT: note_on channel=9 note=70 velocity=106 time=0
EXTRACT: note_on channel=9 note=85 velocity=74 time=0
EXTRACT: note_off channel=8 note=48 velocity=64 time=0
EXTRACT: note_on channel=9 note=54 velocity=59 time=0.006
EXTRACT: note_off channel=9 note=85 velocity=65 time=0.018000000000000002
EXTRACT: note_off channel=9 note=70 velocity=64 time=0
EXTRACT: note_off channel=9 note=42 velocity=64 time=0
EXTRACT: note_off channel=9 note=36 velocity=65 time=0
EXTRACT: note_off channel=9 note=54 velocity=64 time=0.007
EXTRACT: note_off channel=5 note=38 velocity=64 time=0.08
EXTRACT: note_off channel=2 note=38 velocity=65 time=0
EXTRACT: note_off channel=8 note=38 velocity=65 time=0.003
EXTRACT: note_on channel=2 note=38 velocity=74 time=0.006
EXTRACT: note_on channel=5 note=38 velocity=62 time=0
EXTRACT: note_off channel=1 note=26 velocity=65 time=0.084
EXTRACT: note_off channel=5 note=38 velocity=64 time=0.027
EXTRACT: note_off channel=2 note=38 velocity=64 time=0
EXTRACT: note_on channel=1 note=38 velocity=122 time=0.009000000000000001
EXTRACT: note_on channel=2 note=50 velocity=125 time=0
EXTRACT: note_on channel=5 note=38 velocity=112 time=0
EXTRACT: note_on channel=8 note=50 velocity=84 time=0
EXTRACT: note_on channel=9 note=33 velocity=65 time=0
EXTRACT: note_on channel=9 note=46 velocity=112 time=0
EXTRACT: note_on channel=9 note=70 velocity=107 time=0
EXTRACT: note_on channel=9 note=54 velocity=58 time=0.005
EXTRACT: note_off channel=9 note=70 velocity=65 time=0.019
EXTRACT: note_off channel=9 note=46 velocity=65 time=0
EXTRACT: note_off channel=9 note=33 velocity=64 time=0
EXTRACT: note_off channel=3 note=74 velocity=65 time=0.003
EXTRACT: note_off channel=9 note=54 velocity=65 time=0.003
EXTRACT: note_off channel=8 note=50 velocity=64 time=0.045
EXTRACT: note_off channel=5 note=38 velocity=65 time=0.036000000000000004
EXTRACT: note_off channel=2 note=50 velocity=64 time=0
EXTRACT: note_on channel=2 note=50 velocity=125 time=0.009000000000000001
EXTRACT: note_on channel=5 note=38 velocity=113 time=0
EXTRACT: note_on channel=8 note=50 velocity=85 time=0
EXTRACT: note_on channel=9 note=70 velocity=106 time=0
EXTRACT: note_off channel=9 note=70 velocity=64 time=0.024
EXTRACT: note_off channel=1 note=38 velocity=64 time=0.075
EXTRACT: note_off channel=5 note=38 velocity=64 time=0.012
EXTRACT: note_off channel=2 note=50 velocity=65 time=0
EXTRACT: note_on channel=9 note=39 velocity=119 time=0.001
EXTRACT: note_off channel=8 note=50 velocity=65 time=0.005
EXTRACT: note_on channel=1 note=26 velocity=122 time=0
EXTRACT: note_on channel=2 note=38 velocity=124 time=0
EXTRACT: note_on channel=3 note=69 velocity=116 time=0
EXTRACT: note_on channel=5 note=38 velocity=113 time=0
EXTRACT: note_on channel=8 note=38 velocity=84 time=0
EXTRACT: note_on channel=9 note=36 velocity=126 time=0
EXTRACT: note_on channel=9 note=38 velocity=117 time=0
EXTRACT: note_on channel=9 note=42 velocity=118 time=0
EXTRACT: note_on channel=9 note=70 velocity=106 time=0
EXTRACT: note_on channel=9 note=85 velocity=71 time=0
EXTRACT: note_on channel=9 note=54 velocity=59 time=0.003
EXTRACT: note_off channel=9 note=39 velocity=64 time=0.014
EXTRACT: note_off channel=9 note=85 velocity=65 time=0.007
EXTRACT: note_off channel=9 note=70 velocity=65 time=0
EXTRACT: note_off channel=9 note=42 velocity=64 time=0
EXTRACT: note_off channel=9 note=38 velocity=64 time=0
EXTRACT: note_off channel=9 note=36 velocity=65 time=0
EXTRACT: note_off channel=9 note=54 velocity=65 time=0.004
EXTRACT: note_off channel=5 note=38 velocity=65 time=0.083
EXTRACT: note_off channel=2 note=38 velocity=65 time=0
EXTRACT: note_off channel=8 note=38 velocity=65 time=0.003
EXTRACT: note_on channel=2 note=38 velocity=75 time=0.006
EXTRACT: note_on channel=5 note=38 velocity=62 time=0
EXTRACT: note_off channel=1 note=26 velocity=64 time=0.069
EXTRACT: note_off channel=5 note=38 velocity=65 time=0.042
EXTRACT: note_off channel=2 note=38 velocity=64 time=0
EXTRACT: note_on channel=1 note=38 velocity=123 time=0.009000000000000001
EXTRACT: note_on channel=2 note=50 velocity=124 time=0
EXTRACT: note_on channel=5 note=38 velocity=112 time=0
EXTRACT: note_on channel=8 note=50 velocity=78 time=0
EXTRACT: note_on channel=9 note=33 velocity=60 time=0
EXTRACT: note_on channel=9 note=42 velocity=117 time=0
EXTRACT: note_on channel=9 note=70 velocity=107 time=0
EXTRACT: note_on channel=9 note=54 velocity=59 time=0
EXTRACT: note_off channel=9 note=70 velocity=64 time=0.024
EXTRACT: note_off channel=9 note=42 velocity=64 time=0
EXTRACT: note_off channel=9 note=33 velocity=65 time=0
EXTRACT: note_off channel=9 note=54 velocity=64 time=0.001
EXTRACT: note_off channel=8 note=50 velocity=64 time=0.034
EXTRACT: note_off channel=3 note=69 velocity=64 time=0.008
EXTRACT: note_off channel=5 note=38 velocity=64 time=0.044
EXTRACT: note_off channel=2 note=50 velocity=64 time=0
EXTRACT: note_on channel=2 note=50 velocity=124 time=0.009000000000000001
EXTRACT: note_on channel=5 note=38 velocity=113 time=0
EXTRACT: note_on channel=8 note=50 velocity=75 time=0
EXTRACT: note_on channel=9 note=44 velocity=98 time=0
EXTRACT: note_on channel=9 note=70 velocity=107 time=0
EXTRACT: note_off channel=9 note=70 velocity=65 time=0.024
EXTRACT: note_off channel=9 note=44 velocity=65 time=0
EXTRACT: note_off channel=1 note=38 velocity=65 time=0.075
EXTRACT: note_off channel=8 note=50 velocity=65 time=0.011
EXTRACT: note_off channel=5 note=38 velocity=65 time=0.001
EXTRACT: note_off channel=2 note=50 velocity=65 time=0
EXTRACT: note_on channel=1 note=29 velocity=123 time=0
EXTRACT: note_on channel=2 note=41 velocity=125 time=0
EXTRACT: note_on channel=3 note=74 velocity=116 time=0
EXTRACT: note_on channel=5 note=41 velocity=112 time=0
EXTRACT: note_on channel=8 note=41 velocity=85 time=0
EXTRACT: note_on channel=9 note=36 velocity=127 time=0
EXTRACT: note_on channel=9 note=42 velocity=125 time=0
EXTRACT: note_on channel=9 note=70 velocity=106 time=0
EXTRACT: note_on channel=9 note=85 velocity=75 time=0
EXTRACT: note_on channel=9 note=54 velocity=54 time=0
EXTRACT: note_off channel=9 note=85 velocity=64 time=0.024
EXTRACT: note_off channel=9 note=70 velocity=65 time=0
EXTRACT: note_off channel=9 note=42 velocity=64 time=0
EXTRACT: note_off channel=9 note=36 velocity=64 time=0
EXTRACT: note_off channel=9 note=54 velocity=65 time=0.001
EXTRACT: note_off channel=5 note=41 velocity=64 time=0.08600000000000001
EXTRACT: note_off channel=2 note=41 velocity=64 time=0
EXTRACT: note_off channel=8 note=41 velocity=64 time=0.003
EXTRACT: note_on channel=2 note=41 velocity=75 time=0.006
EXTRACT: note_on channel=5 note=41 velocity=63 time=0
EXTRACT: note_off channel=1 note=29 velocity=65 time=0.099
EXTRACT: note_off channel=5 note=41 velocity=64 time=0.012
EXTRACT: note_off channel=2 note=41 velocity=65 time=0
EXTRACT: note_on channel=1 note=41 velocity=122 time=0.009000000000000001
EXTRACT: note_on channel=2 note=53 velocity=124 time=0
EXTRACT: note_on channel=5 note=41 velocity=113 time=0
EXTRACT: note_on channel=8 note=53 velocity=84 time=0
EXTRACT: note_on channel=9 note=33 velocity=64 time=0
EXTRACT: note_on channel=9 note=46 velocity=111 time=0
EXTRACT: note_on channel=9 note=70 velocity=106 time=0
EXTRACT: note_on channel=9 note=54 velocity=57 time=0.001
EXTRACT: note_off channel=9 note=70 velocity=65 time=0.023
EXTRACT: note_off channel=9 note=46 velocity=64 time=0
EXTRACT: note_off channel=9 note=33 velocity=64 time=0
EXTRACT: note_off channel=9 note=54 velocity=65 time=0.001
EXTRACT: note_off channel=3 note=74 velocity=64 time=0.021
EXTRACT: note_off channel=8 note=53 velocity=64 time=0.033
EXTRACT: note_off channel=5 note=41 velocity=65 time=0.032
EXTRACT: note_off channel=2 note=53 velocity=65 time=0
EXTRACT: note_on channel=2 note=53 velocity=124 time=0.009000000000000001
EXTRACT: note_on channel=5 note=41 velocity=112 time=0
EXTRACT: note_on channel=8 note=53 velocity=84 time=0
EXTRACT: note_on channel=9 note=70 velocity=107 time=0
EXTRACT: note_off channel=9 note=70 velocity=65 time=0.024
EXTRACT: note_off channel=1 note=41 velocity=64 time=0.06
EXTRACT: note_off channel=5 note=41 velocity=65 time=0.027
EXTRACT: note_off channel=2 note=53 velocity=64 time=0
EXTRACT: note_on channel=9 note=39 velocity=119 time=0.001
EXTRACT: note_off channel=8 note=53 velocity=65 time=0.004
EXTRACT: note_on channel=1 note=24 velocity=122 time=0.004
EXTRACT: note_on channel=2 note=36 velocity=125 time=0
EXTRACT: note_on channel=5 note=36 velocity=113 time=0
EXTRACT: note_on channel=8 note=36 velocity=85 time=0
EXTRACT: note_on channel=9 note=36 velocity=127 time=0
EXTRACT: note_on channel=9 note=38 velocity=116 time=0
EXTRACT: note_on channel=9 note=42 velocity=98 time=0
EXTRACT: note_on channel=9 note=70 velocity=107 time=0
EXTRACT: note_on channel=9 note=85 velocity=78 time=0
EXTRACT: note_on channel=9 note=54 velocity=54 time=0.001
EXTRACT: note_off channel=9 note=39 velocity=64 time=0.016
EXTRACT: note_off channel=9 note=85 velocity=64 time=0.007
EXTRACT: note_off channel=9 note=70 velocity=65 time=0
EXTRACT: note_off channel=9 note=42 velocity=64 time=0
EXTRACT: note_off channel=9 note=38 velocity=65 time=0
EXTRACT: note_off channel=9 note=36 velocity=65 time=0
EXTRACT: note_off channel=9 note=54 velocity=64 time=0.002
EXTRACT: note_off channel=5 note=36 velocity=64 time=0.085
EXTRACT: note_off channel=2 note=36 velocity=65 time=0
EXTRACT: note_off channel=8 note=36 velocity=65 time=0.003
EXTRACT: note_on channel=2 note=36 velocity=75 time=0.006
EXTRACT: note_on channel=5 note=36 velocity=62 time=0
EXTRACT: note_off channel=1 note=24 velocity=64 time=0.084
EXTRACT: note_off channel=5 note=36 velocity=64 time=0.027
EXTRACT: note_off channel=2 note=36 velocity=64 time=0
EXTRACT: note_on channel=1 note=36 velocity=123 time=0.009000000000000001
EXTRACT: note_on channel=2 note=48 velocity=124 time=0
EXTRACT: note_on channel=5 note=36 velocity=112 time=0
EXTRACT: note_on channel=8 note=48 velocity=87 time=0
EXTRACT: note_on channel=9 note=33 velocity=69 time=0
EXTRACT: note_on channel=9 note=42 velocity=114 time=0
EXTRACT: note_on channel=9 note=70 velocity=106 time=0
EXTRACT: note_on channel=9 note=54 velocity=56 time=0.001
EXTRACT: note_off channel=9 note=70 velocity=65 time=0.023
EXTRACT: note_off channel=9 note=42 velocity=64 time=0
EXTRACT: note_off channel=9 note=33 velocity=64 time=0
EXTRACT: note_off channel=9 note=54 velocity=65 time=0.002
EXTRACT: note_off channel=8 note=48 velocity=64 time=0.063
EXTRACT: note_off channel=5 note=36 velocity=65 time=0.022
EXTRACT: note_off channel=2 note=48 velocity=64 time=0
EXTRACT: note_on channel=2 note=48 velocity=124 time=0.009000000000000001
EXTRACT: note_on channel=5 note=36 velocity=113 time=0
EXTRACT: note_on channel=8 note=48 velocity=76 time=0
EXTRACT: note_on channel=9 note=44 velocity=99 time=0
EXTRACT: note_on channel=9 note=70 velocity=106 time=0
EXTRACT: note_off channel=9 note=70 velocity=65 time=0.024
EXTRACT: note_off channel=9 note=44 velocity=64 time=0
EXTRACT: note_off channel=1 note=36 velocity=65 time=0.06
EXTRACT: note_off channel=5 note=36 velocity=65 time=0.027
EXTRACT: note_off channel=2 note=48 velocity=65 time=0
EXTRACT: note_on channel=1 note=26 velocity=123 time=0.009000000000000001
EXTRACT: note_on channel=2 note=38 velocity=125 time=0
EXTRACT: note_on channel=5 note=38 velocity=113 time=0
EXTRACT: note_on channel=8 note=38 velocity=84 time=0
EXTRACT: note_on channel=9 note=36 velocity=126 time=0
EXTRACT: note_on channel=9 note=42 velocity=123 time=0
EXTRACT: note_on channel=9 note=70 velocity=107 time=0
EXTRACT: note_on channel=9 note=85 velocity=71 time=0
EXTRACT: note_off channel=8 note=48 velocity=64 time=0
EXTRACT: note_on channel=9 note=54 velocity=51 time=0.003
EXTRACT: note_off channel=9 note=85 velocity=64 time=0.021
EXTRACT: note_off channel=9 note=70 velocity=65 time=0
EXTRACT: note_off channel=9 note=42 velocity=65 time=0
EXTRACT: note_off channel=9 note=36 velocity=64 time=0
EXTRACT: note_off channel=9 note=54 velocity=64 time=0.004
EXTRACT: note_off channel=5 note=38 velocity=64 time=0.083
EXTRACT: note_off channel=2 note=38 velocity=65 time=0
EXTRACT: note_off channel=8 note=38 velocity=65 time=0.003
EXTRACT: note_on channel=2 note=38 velocity=74 time=0.006
EXTRACT: note_on channel=5 note=38 velocity=62 time=0
EXTRACT: note_off channel=1 note=26 velocity=65 time=0.084
EXTRACT: note_off channel=5 note=38 velocity=64 time=0.027
EXTRACT: note_off channel=2 note=38 velocity=64 time=0
EXTRACT: note_on channel=1 note=38 velocity=122 time=0.009000000000000001
EXTRACT: note_on channel=2 note=50 velocity=125 time=0
EXTRACT: note_on channel=5 note=38 velocity=112 time=0
EXTRACT: note_on channel=8 note=50 velocity=85 time=0
EXTRACT: note_on channel=9 note=33 velocity=61 time=0
EXTRACT: note_on channel=9 note=46 velocity=105 time=0
EXTRACT: note_on channel=9 note=70 velocity=106 time=0
EXTRACT: note_on channel=9 note=54 velocity=55 time=0.002
EXTRACT: note_off channel=9 note=70 velocity=65 time=0.022
EXTRACT: note_off channel=9 note=46 velocity=64 time=0
EXTRACT: note_off channel=9 note=33 velocity=65 time=0
EXTRACT: note_off channel=9 note=54 velocity=65 time=0.003
EXTRACT: note_off channel=8 note=50 velocity=65 time=0.048
EXTRACT: note_off channel=5 note=38 velocity=65 time=0.036000000000000004
EXTRACT: note_off channel=2 note=50 velocity=64 time=0
EXTRACT: note_on channel=2 note=50 velocity=125 time=0.009000000000000001
EXTRACT: note_on channel=5 note=38 velocity=113 time=0
EXTRACT: note_on channel=8 note=50 velocity=84 time=0
EXTRACT: note_on channel=9 note=70 velocity=107 time=0
EXTRACT: note_off channel=9 note=70 velocity=64 time=0.024
EXTRACT: note_off channel=1 note=38 velocity=64 time=0.075
EXTRACT: note_off channel=5 note=38 velocity=64 time=0.012
EXTRACT: note_off channel=2 note=50 velocity=65 time=0
EXTRACT: note_on channel=9 note=39 velocity=118 time=0.001
EXTRACT: note_off channel=8 note=50 velocity=64 time=0.005
EXTRACT: note_on channel=9 note=54 velocity=58 time=0.002
EXTRACT: note_on channel=1 note=26 velocity=122 time=0
EXTRACT: note_on channel=2 note=38 velocity=124 time=0
EXTRACT: note_on channel=3 note=69 velocity=117 time=0
EXTRACT: note_on channel=5 note=38 velocity=113 time=0
EXTRACT: note_on channel=8 note=38 velocity=85 time=0
EXTRACT: note_on channel=9 note=36 velocity=127 time=0
EXTRACT: note_on channel=9 note=38 velocity=117 time=0
EXTRACT: note_on channel=9 note=42 velocity=111 time=0
EXTRACT: note_on channel=9 note=70 velocity=107 time=0
EXTRACT: note_on channel=9 note=85 velocity=74 time=0
EXTRACT: note_off channel=9 note=39 velocity=65 time=0.017
EXTRACT: note_off channel=9 note=85 velocity=64 time=0.007
EXTRACT: note_off channel=9 note=70 velocity=64 time=0
EXTRACT: note_off channel=9 note=42 velocity=65 time=0
EXTRACT: note_off channel=9 note=38 velocity=65 time=0
EXTRACT: note_off channel=9 note=36 velocity=64 time=0
EXTRACT: note_off channel=9 note=54 velocity=64 time=0
EXTRACT: note_off channel=5 note=38 velocity=65 time=0.08700000000000001
EXTRACT: note_off channel=2 note=38 velocity=65 time=0
EXTRACT: note_off channel=8 note=38 velocity=64 time=0.003
EXTRACT: note_on channel=2 note=38 velocity=75 time=0.006
EXTRACT: note_on channel=5 note=38 velocity=62 time=0
EXTRACT: note_off channel=1 note=26 velocity=64 time=0.069
EXTRACT: note_off channel=5 note=38 velocity=65 time=0.042
EXTRACT: note_off channel=2 note=38 velocity=64 time=0
EXTRACT: note_on channel=9 note=54 velocity=50 time=0.008
EXTRACT: note_on channel=1 note=38 velocity=123 time=0.001
EXTRACT: note_on channel=2 note=50 velocity=124 time=0
EXTRACT: note_on channel=5 note=38 velocity=112 time=0
EXTRACT: note_on channel=8 note=50 velocity=79 time=0
EXTRACT: note_on channel=9 note=33 velocity=64 time=0
EXTRACT: note_on channel=9 note=42 velocity=124 time=0
EXTRACT: note_on channel=9 note=70 velocity=106 time=0
EXTRACT: note_off channel=9 note=70 velocity=65 time=0.024
EXTRACT: note_off channel=9 note=42 velocity=65 time=0
EXTRACT: note_off channel=9 note=33 velocity=64 time=0
EXTRACT: note_off channel=9 note=54 velocity=64 time=0
EXTRACT: note_off channel=8 note=50 velocity=65 time=0.035
EXTRACT: note_off channel=3 note=69 velocity=65 time=0.027
EXTRACT: note_off channel=5 note=38 velocity=64 time=0.025
EXTRACT: note_off channel=2 note=50 velocity=64 time=0
EXTRACT: note_on channel=2 note=50 velocity=124 time=0.009000000000000001
EXTRACT: note_on channel=5 note=38 velocity=113 time=0
EXTRACT: note_on channel=8 note=50 velocity=74 time=0
EXTRACT: note_on channel=9 note=44 velocity=98 time=0
EXTRACT: note_on channel=9 note=70 velocity=107 time=0
EXTRACT: note_off channel=9 note=70 velocity=65 time=0.024
EXTRACT: note_off channel=9 note=44 velocity=64 time=0
EXTRACT: note_off channel=1 note=38 velocity=65 time=0.075
EXTRACT: note_off channel=8 note=50 velocity=64 time=0.011
EXTRACT: note_off channel=5 note=38 velocity=65 time=0.001
EXTRACT: note_off channel=2 note=50 velocity=65 time=0
EXTRACT: note_on channel=9 note=54 velocity=53 time=0.008
EXTRACT: note_on channel=1 note=29 velocity=122 time=0
EXTRACT: note_on channel=2 note=41 velocity=125 time=0
EXTRACT: note_on channel=3 note=74 velocity=116 time=0
EXTRACT: note_on channel=5 note=41 velocity=112 time=0
EXTRACT: note_on channel=8 note=41 velocity=85 time=0
EXTRACT: note_on channel=9 note=36 velocity=126 time=0
EXTRACT: note_on channel=9 note=42 velocity=124 time=0
EXTRACT: note_on channel=9 note=70 velocity=106 time=0
EXTRACT: note_on channel=9 note=85 velocity=72 time=0
EXTRACT: note_off channel=9 note=54 velocity=65 time=0.023
EXTRACT: note_off channel=9 note=85 velocity=65 time=0.001
EXTRACT: note_off channel=9 note=70 velocity=64 time=0
EXTRACT: note_off channel=9 note=42 velocity=65 time=0
EXTRACT: note_off channel=9 note=36 velocity=64 time=0
EXTRACT: note_off channel=5 note=41 velocity=64 time=0.08700000000000001
EXTRACT: note_off channel=2 note=41 velocity=64 time=0
EXTRACT: note_off channel=8 note=41 velocity=65 time=0.003
EXTRACT: note_on channel=2 note=41 velocity=75 time=0.006
EXTRACT: note_on channel=5 note=41 velocity=63 time=0
EXTRACT: note_off channel=3 note=74 velocity=64 time=0.094
EXTRACT: note_off channel=1 note=29 velocity=64 time=0.005
EXTRACT: note_off channel=5 note=41 velocity=64 time=0.012
EXTRACT: note_off channel=2 note=41 velocity=65 time=0
EXTRACT: note_on channel=1 note=41 velocity=123 time=0
EXTRACT: note_on channel=2 note=53 velocity=124 time=0
EXTRACT: note_on channel=3 note=74 velocity=117 time=0
EXTRACT: note_on channel=5 note=41 velocity=113 time=0
EXTRACT: note_on channel=8 note=53 velocity=84 time=0
EXTRACT: note_on channel=9 note=33 velocity=62 time=0
EXTRACT: note_on channel=9 note=46 velocity=110 time=0
EXTRACT: note_on channel=9 note=70 velocity=106 time=0
EXTRACT: note_on channel=9 note=54 velocity=51 time=0.002
EXTRACT: note_off channel=9 note=70 velocity=64 time=0.022
EXTRACT: note_off channel=9 note=46 velocity=65 time=0
EXTRACT: note_off channel=9 note=33 velocity=65 time=0
EXTRACT: note_off channel=9 note=54 velocity=64 time=0.002
EXTRACT: note_off channel=8 note=53 velocity=65 time=0.049
EXTRACT: note_off channel=5 note=41 velocity=65 time=0.032
EXTRACT: note_off channel=2 note=53 velocity=65 time=0
EXTRACT: note_on channel=2 note=53 velocity=124 time=0.009000000000000001
EXTRACT: note_on channel=5 note=41 velocity=112 time=0
EXTRACT: note_on channel=8 note=53 velocity=84 time=0
EXTRACT: note_on channel=9 note=70 velocity=107 time=0
EXTRACT: note_off channel=9 note=70 velocity=64 time=0.024
EXTRACT: note_off channel=1 note=41 velocity=65 time=0.06
EXTRACT: note_off channel=5 note=41 velocity=65 time=0.027
EXTRACT: note_off channel=2 note=53 velocity=64 time=0
EXTRACT: note_on channel=9 note=39 velocity=118 time=0.001
EXTRACT: note_off channel=3 note=74 velocity=65 time=0.002
EXTRACT: note_off channel=8 note=53 velocity=64 time=0.002
EXTRACT: note_on channel=1 note=24 velocity=123 time=0.004
EXTRACT: note_on channel=2 note=36 velocity=125 time=0
EXTRACT: note_on channel=5 note=36 velocity=113 time=0
EXTRACT: note_on channel=8 note=36 velocity=85 time=0
EXTRACT: note_on channel=9 note=36 velocity=126 time=0
EXTRACT: note_on channel=9 note=38 velocity=117 time=0
EXTRACT: note_on channel=9 note=42 velocity=113 time=0
EXTRACT: note_on channel=9 note=70 velocity=107 time=0
EXTRACT: note_on channel=9 note=85 velocity=75 time=0
EXTRACT: note_on channel=9 note=54 velocity=52 time=0.004
EXTRACT: note_off channel=9 note=39 velocity=65 time=0.013000000000000001
EXTRACT: note_off channel=9 note=85 velocity=65 time=0.007
EXTRACT: note_off channel=9 note=70 velocity=64 time=0
EXTRACT: note_off channel=9 note=42 velocity=64 time=0
EXTRACT: note_off channel=9 note=38 velocity=65 time=0
EXTRACT: note_off channel=9 note=36 velocity=64 time=0
EXTRACT: note_off channel=9 note=54 velocity=65 time=0.004
EXTRACT: note_off channel=5 note=36 velocity=64 time=0.083
EXTRACT: note_off channel=2 note=36 velocity=65 time=0
EXTRACT: note_off channel=8 note=36 velocity=65 time=0.003
EXTRACT: note_on channel=2 note=36 velocity=75 time=0.006
EXTRACT: note_on channel=5 note=36 velocity=62 time=0
EXTRACT: note_on channel=12 note=74 velocity=120 time=0.04
EXTRACT: note_off channel=1 note=24 velocity=65 time=0.044
EXTRACT: note_off channel=5 note=36 velocity=64 time=0.027
EXTRACT: note_off channel=2 note=36 velocity=64 time=0
EXTRACT: note_on channel=1 note=36 velocity=122 time=0.009000000000000001
EXTRACT: note_on channel=2 note=48 velocity=124 time=0
EXTRACT: note_on channel=5 note=36 velocity=112 time=0
EXTRACT: note_on channel=8 note=48 velocity=87 time=0
EXTRACT: note_on channel=9 note=33 velocity=65 time=0
EXTRACT: note_on channel=9 note=42 velocity=108 time=0
EXTRACT: note_on channel=9 note=55 velocity=119 time=0
EXTRACT: note_on channel=9 note=70 velocity=106 time=0
EXTRACT: note_on channel=9 note=54 velocity=52 time=0.003
EXTRACT: note_off channel=9 note=70 velocity=65 time=0.021
EXTRACT: note_off channel=9 note=55 velocity=64 time=0
EXTRACT: note_off channel=9 note=42 velocity=65 time=0
EXTRACT: note_off channel=9 note=33 velocity=64 time=0
EXTRACT: note_off channel=9 note=54 velocity=64 time=0.004
EXTRACT: note_off channel=8 note=48 velocity=64 time=0.061
EXTRACT: note_off channel=5 note=36 velocity=65 time=0.022
EXTRACT: note_off channel=2 note=48 velocity=64 time=0
EXTRACT: note_on channel=2 note=48 velocity=124 time=0.009000000000000001
EXTRACT: note_on channel=5 note=36 velocity=113 time=0
EXTRACT: note_on channel=8 note=48 velocity=72 time=0
EXTRACT: note_on channel=9 note=44 velocity=98 time=0
EXTRACT: note_on channel=9 note=70 velocity=106 time=0
EXTRACT: note_off channel=9 note=70 velocity=65 time=0.024
EXTRACT: note_off channel=9 note=44 velocity=65 time=0
EXTRACT: note_off channel=1 note=36 velocity=64 time=0.06
EXTRACT: control_change channel=9 control=91 value=20 time=0.006
EXTRACT: note_off channel=12 note=74 velocity=64 time=0.004
EXTRACT: note_off channel=5 note=36 velocity=65 time=0.02
EXTRACT: note_off channel=2 note=48 velocity=65 time=0
EXTRACT: note_on channel=1 note=26 velocity=123 time=0.006
EXTRACT: note_on channel=2 note=38 velocity=125 time=0
EXTRACT: note_on channel=5 note=38 velocity=113 time=0
EXTRACT: note_on channel=8 note=38 velocity=84 time=0
EXTRACT: note_on channel=9 note=36 velocity=127 time=0
EXTRACT: note_on channel=9 note=42 velocity=125 time=0
EXTRACT: note_on channel=9 note=70 velocity=107 time=0
EXTRACT: note_on channel=9 note=85 velocity=75 time=0
EXTRACT: note_off channel=8 note=48 velocity=64 time=0
EXTRACT: note_on channel=9 note=54 velocity=57 time=0.002
EXTRACT: note_off channel=9 note=85 velocity=64 time=0.022
EXTRACT: note_off channel=9 note=70 velocity=64 time=0
EXTRACT: note_off channel=9 note=42 velocity=65 time=0
EXTRACT: note_off channel=9 note=36 velocity=65 time=0
EXTRACT: note_off channel=9 note=54 velocity=64 time=0.003
EXTRACT: note_off channel=5 note=38 velocity=64 time=0.084
EXTRACT: note_off channel=2 note=38 velocity=65 time=0
EXTRACT: note_off channel=8 note=38 velocity=65 time=0.003
EXTRACT: note_on channel=2 note=38 velocity=74 time=0.006
EXTRACT: note_on channel=5 note=38 velocity=62 time=0
EXTRACT: note_off channel=1 note=26 velocity=65 time=0.084
EXTRACT: note_off channel=5 note=38 velocity=64 time=0.027
EXTRACT: note_off channel=2 note=38 velocity=64 time=0
EXTRACT: note_on channel=1 note=38 velocity=122 time=0.009000000000000001
EXTRACT: note_on channel=2 note=50 velocity=125 time=0
EXTRACT: note_on channel=5 note=38 velocity=112 time=0
EXTRACT: note_on channel=8 note=50 velocity=85 time=0
EXTRACT: note_on channel=9 note=33 velocity=65 time=0
EXTRACT: note_on channel=9 note=46 velocity=110 time=0
EXTRACT: note_on channel=9 note=70 velocity=107 time=0
EXTRACT: note_on channel=9 note=54 velocity=54 time=0.002
EXTRACT: note_off channel=9 note=70 velocity=64 time=0.022
EXTRACT: note_off channel=9 note=46 velocity=65 time=0
EXTRACT: note_off channel=9 note=33 velocity=64 time=0
EXTRACT: note_off channel=9 note=54 velocity=65 time=0.003
EXTRACT: note_off channel=8 note=50 velocity=65 time=0.048
EXTRACT: note_off channel=5 note=38 velocity=65 time=0.036000000000000004
EXTRACT: note_off channel=2 note=50 velocity=64 time=0
EXTRACT: note_on channel=2 note=50 velocity=125 time=0.009000000000000001
EXTRACT: note_on channel=5 note=38 velocity=113 time=0
EXTRACT: note_on channel=8 note=50 velocity=85 time=0
EXTRACT: note_on channel=9 note=70 velocity=106 time=0
EXTRACT: note_off channel=9 note=70 velocity=65 time=0.024
EXTRACT: note_off channel=1 note=38 velocity=64 time=0.075
EXTRACT: note_off channel=5 note=38 velocity=64 time=0.012
EXTRACT: note_off channel=2 note=50 velocity=65 time=0
EXTRACT: note_on channel=9 note=39 velocity=119 time=0.001
EXTRACT: note_off channel=8 note=50 velocity=64 time=0.005
EXTRACT: note_on channel=1 note=26 velocity=122 time=0.003
EXTRACT: note_on channel=2 note=38 velocity=124 time=0
EXTRACT: note_on channel=5 note=38 velocity=113 time=0
EXTRACT: note_on channel=8 note=38 velocity=84 time=0
EXTRACT: note_on channel=9 note=36 velocity=127 time=0
EXTRACT: note_on channel=9 note=38 velocity=116 time=0
EXTRACT: note_on channel=9 note=42 velocity=123 time=0
EXTRACT: note_on channel=9 note=70 velocity=106 time=0
EXTRACT: note_on channel=9 note=85 velocity=70 time=0
EXTRACT: note_on channel=9 note=54 velocity=55 time=0.001
EXTRACT: note_off channel=9 note=39 velocity=64 time=0.016
EXTRACT: note_off channel=9 note=85 velocity=65 time=0.007
EXTRACT: note_off channel=9 note=70 velocity=64 time=0
EXTRACT: note_off channel=9 note=42 velocity=64 time=0
EXTRACT: note_off channel=9 note=38 velocity=65 time=0
EXTRACT: note_off channel=9 note=36 velocity=65 time=0
EXTRACT: note_off channel=9 note=54 velocity=64 time=0.002
EXTRACT: note_off channel=5 note=38 velocity=65 time=0.085
EXTRACT: note_off channel=2 note=38 velocity=65 time=0
EXTRACT: note_off channel=8 note=38 velocity=64 time=0.003
EXTRACT: note_on channel=2 note=38 velocity=75 time=0.006
EXTRACT: note_on channel=5 note=38 velocity=62 time=0
EXTRACT: note_off channel=1 note=26 velocity=64 time=0.069
EXTRACT: note_off channel=5 note=38 velocity=65 time=0.042
EXTRACT: note_off channel=2 note=38 velocity=64 time=0
EXTRACT: note_on channel=1 note=38 velocity=123 time=0.009000000000000001
EXTRACT: note_on channel=2 note=50 velocity=124 time=0
EXTRACT: note_on channel=5 note=38 velocity=112 time=0
EXTRACT: note_on channel=8 note=50 velocity=78 time=0
EXTRACT: note_on channel=9 note=33 velocity=60 time=0
EXTRACT: note_on channel=9 note=42 velocity=116 time=0
EXTRACT: note_on channel=9 note=70 velocity=107 time=0
EXTRACT: note_on channel=9 note=54 velocity=53 time=0
EXTRACT: note_off channel=9 note=70 velocity=64 time=0.024
EXTRACT: note_off channel=9 note=42 velocity=65 time=0
EXTRACT: note_off channel=9 note=33 velocity=65 time=0
EXTRACT: note_off channel=9 note=54 velocity=64 time=0.001
EXTRACT: note_off channel=8 note=50 velocity=65 time=0.034
EXTRACT: note_off channel=5 note=38 velocity=64 time=0.052000000000000005
EXTRACT: note_off channel=2 note=50 velocity=64 time=0
EXTRACT: note_on channel=2 note=50 velocity=124 time=0.009000000000000001
EXTRACT: note_on channel=5 note=38 velocity=113 time=0
EXTRACT: note_on channel=8 note=50 velocity=75 time=0
EXTRACT: note_on channel=9 note=44 velocity=99 time=0
EXTRACT: note_on channel=9 note=70 velocity=106 time=0
EXTRACT: note_off channel=9 note=70 velocity=64 time=0.024
EXTRACT: note_off channel=9 note=44 velocity=65 time=0
EXTRACT: note_off channel=1 note=38 velocity=65 time=0.075
EXTRACT: note_off channel=8 note=50 velocity=65 time=0.011
EXTRACT: note_off channel=5 note=38 velocity=65 time=0.001
EXTRACT: note_off channel=2 note=50 velocity=65 time=0
EXTRACT: note_on channel=1 note=29 velocity=123 time=0.009000000000000001
EXTRACT: note_on channel=2 note=41 velocity=125 time=0
EXTRACT: note_on channel=5 note=41 velocity=112 time=0
EXTRACT: note_on channel=8 note=41 velocity=84 time=0
EXTRACT: note_on channel=9 note=36 velocity=126 time=0
EXTRACT: note_on channel=9 note=42 velocity=125 time=0
EXTRACT: note_on channel=9 note=70 velocity=107 time=0
EXTRACT: note_on channel=9 note=85 velocity=74 time=0
EXTRACT: note_on channel=9 note=54 velocity=48 time=0.001
EXTRACT: note_off channel=9 note=85 velocity=64 time=0.023
EXTRACT: note_off channel=9 note=70 velocity=65 time=0
EXTRACT: note_off channel=9 note=42 velocity=65 time=0
EXTRACT: note_off channel=9 note=36 velocity=64 time=0
EXTRACT: note_off channel=9 note=54 velocity=65 time=0.002
EXTRACT: note_off channel=5 note=41 velocity=64 time=0.085
EXTRACT: note_off channel=2 note=41 velocity=64 time=0
EXTRACT: note_off channel=8 note=41 velocity=64 time=0.003
EXTRACT: note_on channel=2 note=41 velocity=75 time=0.006
EXTRACT: note_on channel=5 note=41 velocity=63 time=0
EXTRACT: note_off channel=1 note=29 velocity=65 time=0.099
EXTRACT: note_off channel=5 note=41 velocity=64 time=0.012
EXTRACT: note_off channel=2 note=41 velocity=65 time=0
EXTRACT: note_on channel=1 note=41 velocity=122 time=0.009000000000000001
EXTRACT: note_on channel=2 note=53 velocity=124 time=0
EXTRACT: note_on channel=5 note=41 velocity=113 time=0
EXTRACT: note_on channel=8 note=53 velocity=85 time=0
EXTRACT: note_on channel=9 note=33 velocity=64 time=0
EXTRACT: note_on channel=9 note=46 velocity=107 time=0
EXTRACT: note_on channel=9 note=54 velocity=53 time=0
EXTRACT: note_on channel=9 note=70 velocity=107 time=0
EXTRACT: note_on channel=3 note=77 velocity=117 time=0
EXTRACT: note_off channel=9 note=70 velocity=64 time=0.023
EXTRACT: note_off channel=9 note=54 velocity=64 time=0
EXTRACT: note_off channel=9 note=46 velocity=65 time=0
EXTRACT: note_off channel=9 note=33 velocity=65 time=0
EXTRACT: note_off channel=8 note=53 velocity=64 time=0.055
EXTRACT: note_off channel=5 note=41 velocity=65 time=0.032
EXTRACT: note_off channel=2 note=53 velocity=65 time=0
EXTRACT: note_on channel=2 note=53 velocity=116 time=0.009000000000000001
EXTRACT: note_on channel=5 note=41 velocity=112 time=0
EXTRACT: note_on channel=8 note=53 velocity=85 time=0
EXTRACT: note_on channel=9 note=70 velocity=106 time=0
EXTRACT: note_off channel=3 note=77 velocity=65 time=0.023
EXTRACT: note_off channel=9 note=70 velocity=64 time=0.001
EXTRACT: note_off channel=1 note=41 velocity=64 time=0.06
EXTRACT: note_on channel=3 note=79 velocity=116 time=0
EXTRACT: note_off channel=5 note=41 velocity=65 time=0.012
EXTRACT: note_off channel=2 note=53 velocity=64 time=0
EXTRACT: note_on channel=9 note=39 velocity=119 time=0.001
EXTRACT: note_off channel=8 note=53 velocity=65 time=0.004
EXTRACT: note_on channel=1 note=24 velocity=122 time=0.004
EXTRACT: note_on channel=2 note=36 velocity=125 time=0
EXTRACT: note_on channel=5 note=36 velocity=113 time=0
EXTRACT: note_on channel=8 note=36 velocity=84 time=0
EXTRACT: note_on channel=9 note=36 velocity=126 time=0
EXTRACT: note_on channel=9 note=38 velocity=117 time=0
EXTRACT: note_on channel=9 note=42 velocity=116 time=0
EXTRACT: note_on channel=9 note=70 velocity=107 time=0
EXTRACT: note_on channel=9 note=85 velocity=79 time=0
EXTRACT: note_on channel=9 note=54 velocity=52 time=0.001
EXTRACT: note_off channel=9 note=39 velocity=64 time=0.008
EXTRACT: note_off channel=9 note=85 velocity=65 time=0.007
EXTRACT: note_off channel=9 note=70 velocity=65 time=0
EXTRACT: note_off channel=9 note=42 velocity=64 time=0
EXTRACT: note_off channel=9 note=38 velocity=64 time=0
EXTRACT: note_off channel=9 note=36 velocity=65 time=0
EXTRACT: note_off channel=9 note=54 velocity=64 time=0.001
EXTRACT: note_off channel=5 note=36 velocity=64 time=0.08600000000000001
EXTRACT: note_off channel=2 note=36 velocity=65 time=0
EXTRACT: note_off channel=8 note=36 velocity=64 time=0.003
EXTRACT: note_on channel=2 note=36 velocity=75 time=0.006
EXTRACT: note_on channel=5 note=36 velocity=62 time=0
EXTRACT: note_off channel=3 note=79 velocity=64 time=0.076
EXTRACT: note_off channel=1 note=24 velocity=64 time=0.008
EXTRACT: note_on channel=3 note=77 velocity=117 time=0
EXTRACT: note_off channel=5 note=36 velocity=64 time=0.014
EXTRACT: note_off channel=2 note=36 velocity=64 time=0
EXTRACT: note_on channel=9 note=54 velocity=54 time=0.008
EXTRACT: note_on channel=1 note=36 velocity=123 time=0.001
EXTRACT: note_on channel=2 note=48 velocity=124 time=0
EXTRACT: note_on channel=5 note=36 velocity=112 time=0
EXTRACT: note_on channel=8 note=48 velocity=87 time=0
EXTRACT: note_on channel=9 note=33 velocity=69 time=0
EXTRACT: note_on channel=9 note=42 velocity=116 time=0
EXTRACT: note_on channel=9 note=70 velocity=106 time=0
EXTRACT: note_off channel=9 note=70 velocity=65 time=0.024
EXTRACT: note_off channel=9 note=42 velocity=65 time=0
EXTRACT: note_off channel=9 note=33 velocity=64 time=0
EXTRACT: note_off channel=9 note=54 velocity=65 time=0
EXTRACT: note_off channel=8 note=48 velocity=65 time=0.065
EXTRACT: note_off channel=5 note=36 velocity=65 time=0.022
EXTRACT: note_off channel=2 note=48 velocity=64 time=0
EXTRACT: note_on channel=2 note=48 velocity=124 time=0.009000000000000001
EXTRACT: note_on channel=5 note=36 velocity=113 time=0
EXTRACT: note_on channel=8 note=48 velocity=76 time=0
EXTRACT: note_on channel=9 note=70 velocity=106 time=0
EXTRACT: note_off channel=9 note=70 velocity=64 time=0.024
EXTRACT: note_off channel=3 note=77 velocity=65 time=0.001
EXTRACT: note_off channel=1 note=36 velocity=65 time=0.059000000000000004
EXTRACT: note_on channel=3 note=79 velocity=116 time=0
EXTRACT: note_off channel=5 note=36 velocity=65 time=0.016
EXTRACT: note_off channel=2 note=48 velocity=65 time=0
EXTRACT: note_on channel=1 note=26 velocity=93 time=0.009000000000000001
EXTRACT: note_on channel=2 note=38 velocity=125 time=0
EXTRACT: note_on channel=5 note=38 velocity=107 time=0
EXTRACT: note_on channel=8 note=38 velocity=84 time=0
EXTRACT: note_on channel=9 note=36 velocity=127 time=0
EXTRACT: note_on channel=9 note=42 velocity=117 time=0
EXTRACT: note_on channel=9 note=70 velocity=107 time=0
EXTRACT: note_off channel=8 note=48 velocity=65 time=0
EXTRACT: note_on channel=9 note=54 velocity=61 time=0.007
EXTRACT: note_off channel=9 note=70 velocity=64 time=0.017
EXTRACT: note_off channel=9 note=42 velocity=65 time=0
EXTRACT: note_off channel=9 note=36 velocity=65 time=0
EXTRACT: note_off channel=9 note=54 velocity=64 time=0.007
EXTRACT: note_off channel=5 note=38 velocity=64 time=0.08
EXTRACT: note_off channel=2 note=38 velocity=65 time=0
EXTRACT: note_off channel=8 note=38 velocity=64 time=0.003
EXTRACT: note_on channel=2 note=38 velocity=74 time=0.006
EXTRACT: note_on channel=5 note=38 velocity=56 time=0
EXTRACT: note_off channel=3 note=79 velocity=64 time=0.068
EXTRACT: control_change channel=2 control=6 value=60 time=0.012
EXTRACT: note_off channel=1 note=26 velocity=65 time=0.004
EXTRACT: note_on channel=3 note=77 velocity=116 time=0
EXTRACT: note_off channel=5 note=38 velocity=64 time=0
EXTRACT: note_off channel=2 note=38 velocity=64 time=0
EXTRACT: note_on channel=2 note=50 velocity=125 time=0.009000000000000001
EXTRACT: note_on channel=5 note=38 velocity=104 time=0
EXTRACT: note_on channel=8 note=50 velocity=85 time=0
EXTRACT: note_off channel=8 note=50 velocity=65 time=0.075
EXTRACT: note_off channel=5 note=38 velocity=65 time=0.036000000000000004
EXTRACT: note_off channel=2 note=50 velocity=64 time=0
EXTRACT: note_on channel=2 note=50 velocity=125 time=0.009000000000000001
EXTRACT: note_on channel=5 note=38 velocity=83 time=0
EXTRACT: note_on channel=8 note=50 velocity=85 time=0
EXTRACT: control_change channel=2 control=6 value=55 time=0.04
EXTRACT: note_off channel=5 note=38 velocity=64 time=0.07100000000000001
EXTRACT: note_off channel=2 note=50 velocity=65 time=0
EXTRACT: note_off channel=8 note=50 velocity=64 time=0.006
EXTRACT: note_on channel=1 note=26 velocity=46 time=0.003
EXTRACT: note_on channel=2 note=38 velocity=114 time=0
EXTRACT: note_on channel=5 note=38 velocity=77 time=0
EXTRACT: note_on channel=9 note=36 velocity=127 time=0
EXTRACT: note_on channel=9 note=42 velocity=117 time=0
EXTRACT: note_on channel=9 note=70 velocity=107 time=0
EXTRACT: note_off channel=9 note=70 velocity=64 time=0.024
EXTRACT: note_off channel=9 note=42 velocity=65 time=0
EXTRACT: note_off channel=9 note=36 velocity=65 time=0
EXTRACT: note_off channel=3 note=77 velocity=64 time=0.065
EXTRACT: note_off channel=5 note=38 velocity=65 time=0.022
EXTRACT: note_off channel=2 note=38 velocity=65 time=0
EXTRACT: note_on channel=2 note=38 velocity=65 time=0.009000000000000001
EXTRACT: note_on channel=5 note=38 velocity=46 time=0
EXTRACT: control_change channel=2 control=6 value=50 time=0.04
EXTRACT: note_off channel=1 note=26 velocity=64 time=0.044
EXTRACT: note_on channel=3 note=77 velocity=117 time=0
EXTRACT: note_off channel=5 note=38 velocity=65 time=0.012
EXTRACT: note_off channel=2 note=38 velocity=64 time=0
EXTRACT: note_on channel=2 note=50 velocity=114 time=0.009000000000000001
EXTRACT: note_on channel=5 note=38 velocity=68 time=0
EXTRACT: note_on channel=8 note=50 velocity=78 time=0
EXTRACT: note_off channel=8 note=50 velocity=64 time=0.02
EXTRACT: control_change channel=11 control=1 value=20 time=0.021
EXTRACT: note_off channel=5 note=38 velocity=64 time=0.031
EXTRACT: note_off channel=2 note=50 velocity=64 time=0
EXTRACT: note_on channel=2 note=50 velocity=114 time=0.009000000000000001
EXTRACT: note_on channel=5 note=38 velocity=65 time=0
EXTRACT: note_on channel=8 note=50 velocity=74 time=0
EXTRACT: control_change channel=2 control=6 value=45 time=0.08
EXTRACT: note_off channel=3 note=77 velocity=65 time=0.016
EXTRACT: note_off channel=8 note=50 velocity=65 time=0.014
EXTRACT: note_off channel=5 note=38 velocity=65 time=0.001
EXTRACT: note_off channel=2 note=50 velocity=65 time=0
EXTRACT: note_on channel=3 note=72 velocity=117 time=0.006
EXTRACT: note_on channel=1 note=26 velocity=25 time=0.003
EXTRACT: note_on channel=2 note=38 velocity=115 time=0
EXTRACT: note_on channel=5 note=38 velocity=56 time=0
EXTRACT: note_on channel=9 note=36 velocity=126 time=0
EXTRACT: note_on channel=9 note=42 velocity=118 time=0
EXTRACT: note_on channel=9 note=70 velocity=106 time=0
EXTRACT: note_off channel=9 note=70 velocity=64 time=0.024
EXTRACT: note_off channel=9 note=42 velocity=64 time=0
EXTRACT: note_off channel=9 note=36 velocity=65 time=0
EXTRACT: note_off channel=5 note=38 velocity=64 time=0.08700000000000001
EXTRACT: note_off channel=2 note=38 velocity=64 time=0
EXTRACT: note_on channel=2 note=38 velocity=65 time=0.009000000000000001
EXTRACT: note_on channel=5 note=38 velocity=37 time=0
EXTRACT: note_off channel=1 note=26 velocity=64 time=0.084
EXTRACT: note_off channel=3 note=72 velocity=65 time=0.009000000000000001
EXTRACT: note_on channel=3 note=74 velocity=116 time=0.012
EXTRACT: note_off channel=5 note=38 velocity=64 time=0.006
EXTRACT: note_off channel=2 note=38 velocity=65 time=0
EXTRACT: note_on channel=2 note=50 velocity=114 time=0.009000000000000001
EXTRACT: note_on channel=5 note=38 velocity=61 time=0
EXTRACT: note_on channel=8 note=50 velocity=55 time=0
EXTRACT: control_change channel=2 control=6 value=40 time=0
EXTRACT: note_on channel=6 note=74 velocity=1 time=0.021
EXTRACT: note_on channel=11 note=86 velocity=21 time=0
EXTRACT: note_on channel=14 note=74 velocity=18 time=0
EXTRACT: note_off channel=8 note=50 velocity=65 time=0.038
EXTRACT: control_change channel=2 control=6 value=35 time=0.021
EXTRACT: note_on channel=6 note=77 velocity=25 time=0.016
EXTRACT: note_on channel=11 note=89 velocity=37 time=0
EXTRACT: note_on channel=14 note=77 velocity=25 time=0
EXTRACT: note_off channel=5 note=38 velocity=65 time=0.015
EXTRACT: note_off channel=2 note=50 velocity=65 time=0
EXTRACT: note_off channel=14 note=74 velocity=64 time=0.003
EXTRACT: note_off channel=11 note=86 velocity=64 time=0
EXTRACT: note_off channel=6 note=74 velocity=65 time=0
EXTRACT: note_on channel=2 note=50 velocity=114 time=0.006
EXTRACT: note_on channel=5 note=38 velocity=50 time=0
EXTRACT: note_on channel=8 note=50 velocity=51 time=0
EXTRACT: note_on channel=6 note=81 velocity=26 time=0.052000000000000005
EXTRACT: note_on channel=11 note=93 velocity=36 time=0
EXTRACT: note_on channel=14 note=81 velocity=27 time=0
EXTRACT: note_off channel=14 note=77 velocity=65 time=0.022
EXTRACT: note_off channel=11 note=89 velocity=65 time=0
EXTRACT: note_off channel=6 note=77 velocity=64 time=0
EXTRACT: note_off channel=8 note=50 velocity=64 time=0.036000000000000004
EXTRACT: note_off channel=5 note=38 velocity=65 time=0.001
EXTRACT: note_off channel=2 note=50 velocity=64 time=0
EXTRACT: note_on channel=2 note=38 velocity=115 time=0.009000000000000001
EXTRACT: note_on channel=5 note=38 velocity=43 time=0
EXTRACT: note_on channel=9 note=27 velocity=57 time=0
EXTRACT: note_on channel=9 note=87 velocity=85 time=0
EXTRACT: note_on channel=6 note=86 velocity=27 time=0.001
EXTRACT: note_on channel=11 note=98 velocity=34 time=0
EXTRACT: note_on channel=14 note=86 velocity=23 time=0
EXTRACT: note_off channel=9 note=87 velocity=64 time=0.023
EXTRACT: note_off channel=9 note=27 velocity=65 time=0
EXTRACT: note_off channel=14 note=81 velocity=65 time=0
EXTRACT: note_off channel=11 note=93 velocity=65 time=0
EXTRACT: note_off channel=6 note=81 velocity=64 time=0
EXTRACT: control_change channel=2 control=6 value=30 time=0.016
EXTRACT: note_off channel=5 note=38 velocity=64 time=0.07100000000000001
EXTRACT: note_off channel=2 note=38 velocity=65 time=0
EXTRACT: note_on channel=2 note=38 velocity=65 time=0.009000000000000001
EXTRACT: note_on channel=5 note=38 velocity=28 time=0
EXTRACT: note_off channel=14 note=86 velocity=64 time=0.034
EXTRACT: note_off channel=11 note=98 velocity=64 time=0
EXTRACT: note_off channel=6 note=86 velocity=65 time=0
EXTRACT: note_off channel=3 note=74 velocity=64 time=0.008
EXTRACT: note_off channel=5 note=38 velocity=64 time=0.069
EXTRACT: note_off channel=2 note=38 velocity=64 time=0
EXTRACT: note_on channel=6 note=86 velocity=48 time=0.002
EXTRACT: note_on channel=11 note=98 velocity=31 time=0
EXTRACT: note_on channel=14 note=86 velocity=77 time=0
EXTRACT: note_on channel=2 note=50 velocity=114 time=0.007
EXTRACT: note_on channel=5 note=38 velocity=23 time=0
EXTRACT: note_on channel=8 note=50 velocity=31 time=0
EXTRACT: note_on channel=6 note=81 velocity=53 time=0.056
EXTRACT: note_on channel=11 note=93 velocity=47 time=0
EXTRACT: note_on channel=14 note=81 velocity=74 time=0
EXTRACT: note_off channel=8 note=50 velocity=64 time=0.003
EXTRACT: note_off channel=14 note=86 velocity=64 time=0.005
EXTRACT: note_off channel=11 note=98 velocity=64 time=0
EXTRACT: note_off channel=6 note=86 velocity=65 time=0
EXTRACT: note_off channel=5 note=38 velocity=65 time=0.047
EXTRACT: note_off channel=2 note=50 velocity=64 time=0
EXTRACT: note_on channel=5 note=38 velocity=25 time=0.009000000000000001
EXTRACT: note_on channel=8 note=50 velocity=28 time=0
EXTRACT: note_off channel=14 note=81 velocity=65 time=0.034
EXTRACT: note_off channel=11 note=93 velocity=65 time=0
EXTRACT: note_off channel=6 note=81 velocity=64 time=0
EXTRACT: note_on channel=6 note=77 velocity=75 time=0.003
EXTRACT: note_on channel=11 note=89 velocity=73 time=0
EXTRACT: note_on channel=14 note=77 velocity=72 time=0
EXTRACT: control_change channel=2 control=6 value=64 time=0.043000000000000003
EXTRACT: note_off channel=14 note=77 velocity=64 time=0.024
EXTRACT: note_off channel=11 note=89 velocity=64 time=0
EXTRACT: note_off channel=6 note=77 velocity=64 time=0
EXTRACT: note_off channel=8 note=50 velocity=65 time=0.006
EXTRACT: note_off channel=5 note=38 velocity=65 time=0.001
EXTRACT: note_on channel=1 note=26 velocity=122 time=0
EXTRACT: note_on channel=2 note=38 velocity=124 time=0
EXTRACT: note_on channel=4 note=60 velocity=1 time=0
EXTRACT: note_on channel=4 note=64 velocity=1 time=0
EXTRACT: note_on channel=5 note=38 velocity=112 time=0
EXTRACT: note_on channel=9 note=36 velocity=126 time=0
EXTRACT: note_on channel=9 note=49 velocity=82 time=0
EXTRACT: note_on channel=9 note=70 velocity=106 time=0
EXTRACT: note_on channel=13 note=62 velocity=56 time=0
EXTRACT: note_on channel=13 note=65 velocity=53 time=0
EXTRACT: control_change channel=1 control=6 value=43 time=0
EXTRACT: note_on channel=13 note=74 velocity=47 time=0.002
EXTRACT: note_on channel=13 note=69 velocity=62 time=0.003
EXTRACT: note_on channel=6 note=74 velocity=72 time=0.002
EXTRACT: note_on channel=11 note=86 velocity=78 time=0
EXTRACT: note_on channel=14 note=74 velocity=79 time=0
EXTRACT: note_on channel=10 note=62 velocity=98 time=0.003
EXTRACT: note_on channel=10 note=65 velocity=99 time=0
EXTRACT: note_on channel=3 note=79 velocity=116 time=0
EXTRACT: note_off channel=9 note=70 velocity=65 time=0.007
EXTRACT: note_off channel=9 note=49 velocity=64 time=0
EXTRACT: note_off channel=9 note=36 velocity=65 time=0
EXTRACT: note_off channel=5 note=38 velocity=64 time=0.08700000000000001
EXTRACT: note_off channel=2 note=38 velocity=65 time=0
EXTRACT: note_on channel=2 note=38 velocity=75 time=0.009000000000000001
EXTRACT: note_on channel=5 note=38 velocity=62 time=0
EXTRACT: note_off channel=1 note=26 velocity=65 time=0.084
EXTRACT: note_off channel=5 note=38 velocity=64 time=0.027
EXTRACT: note_off channel=2 note=38 velocity=65 time=0
EXTRACT: note_off channel=4 note=64 velocity=64 time=0
EXTRACT: note_off channel=4 note=60 velocity=65 time=0
EXTRACT: note_on channel=1 note=38 velocity=123 time=0.009000000000000001
EXTRACT: note_on channel=2 note=50 velocity=124 time=0
EXTRACT: note_on channel=4 note=62 velocity=1 time=0
EXTRACT: note_on channel=4 note=65 velocity=1 time=0
EXTRACT: note_on channel=5 note=38 velocity=113 time=0
EXTRACT: note_on channel=9 note=46 velocity=113 time=0
EXTRACT: note_on channel=9 note=70 velocity=107 time=0
EXTRACT: note_on channel=3 note=81 velocity=117 time=0
EXTRACT: note_off channel=3 note=79 velocity=64 time=0.007
EXTRACT: note_off channel=9 note=70 velocity=64 time=0.014
EXTRACT: note_off channel=9 note=46 velocity=64 time=0
EXTRACT: note_off channel=5 note=38 velocity=65 time=0.08700000000000001
EXTRACT: note_off channel=2 note=50 velocity=64 time=0
EXTRACT: note_on channel=2 note=50 velocity=125 time=0.009000000000000001
EXTRACT: note_on channel=5 note=38 velocity=113 time=0
EXTRACT: note_on channel=9 note=70 velocity=87 time=0
EXTRACT: note_off channel=9 note=70 velocity=65 time=0.024
EXTRACT: control_change channel=14 control=1 value=15 time=0.016
EXTRACT: note_off channel=1 note=38 velocity=64 time=0.059000000000000004
EXTRACT: note_off channel=5 note=38 velocity=64 time=0.012
EXTRACT: note_off channel=2 note=50 velocity=64 time=0
EXTRACT: note_on channel=9 note=39 velocity=118 time=0.001
EXTRACT: note_on channel=1 note=26 velocity=122 time=0.008
EXTRACT: note_on channel=2 note=38 velocity=125 time=0
EXTRACT: note_on channel=4 note=60 velocity=1 time=0
EXTRACT: note_on channel=4 note=64 velocity=1 time=0
EXTRACT: note_on channel=5 note=38 velocity=112 time=0
EXTRACT: note_on channel=9 note=36 velocity=127 time=0
EXTRACT: note_on channel=9 note=38 velocity=116 time=0
EXTRACT: note_on channel=9 note=42 velocity=118 time=0
EXTRACT: note_on channel=9 note=70 velocity=106 time=0
EXTRACT: note_off channel=4 note=65 velocity=64 time=0.006
EXTRACT: note_off channel=4 note=62 velocity=64 time=0
EXTRACT: note_off channel=3 note=81 velocity=65 time=0.003
EXTRACT: note_off channel=9 note=39 velocity=65 time=0.008
EXTRACT: note_off channel=9 note=70 velocity=64 time=0.007
EXTRACT: note_off channel=9 note=42 velocity=64 time=0
EXTRACT: note_off channel=9 note=38 velocity=65 time=0
EXTRACT: note_off channel=9 note=36 velocity=65 time=0
EXTRACT: note_on channel=3 note=79 velocity=117 time=0
EXTRACT: note_off channel=5 note=38 velocity=65 time=0.083
EXTRACT: note_off channel=2 note=38 velocity=65 time=0
EXTRACT: note_on channel=2 note=38 velocity=74 time=0.009000000000000001
EXTRACT: note_on channel=5 note=38 velocity=62 time=0
EXTRACT: note_off channel=1 note=26 velocity=65 time=0.069
EXTRACT: note_off channel=3 note=79 velocity=65 time=0.038
EXTRACT: note_off channel=5 note=38 velocity=65 time=0.004
EXTRACT: note_off channel=2 note=38 velocity=65 time=0
EXTRACT: note_off channel=4 note=64 velocity=65 time=0
EXTRACT: note_off channel=4 note=60 velocity=65 time=0
EXTRACT: note_on channel=1 note=38 velocity=123 time=0.009000000000000001
EXTRACT: note_on channel=2 note=50 velocity=125 time=0
EXTRACT: note_on channel=4 note=62 velocity=1 time=0
EXTRACT: note_on channel=4 note=65 velocity=1 time=0
EXTRACT: note_on channel=5 note=38 velocity=113 time=0
EXTRACT: note_on channel=9 note=42 velocity=117 time=0
EXTRACT: note_on channel=9 note=70 velocity=106 time=0
EXTRACT: note_on channel=3 note=81 velocity=116 time=0
EXTRACT: note_off channel=9 note=70 velocity=64 time=0.016
EXTRACT: note_off channel=9 note=42 velocity=64 time=0
EXTRACT: note_off channel=5 note=38 velocity=64 time=0.08700000000000001
EXTRACT: note_off channel=2 note=50 velocity=64 time=0
EXTRACT: note_on channel=2 note=50 velocity=124 time=0.009000000000000001
EXTRACT: note_on channel=5 note=38 velocity=113 time=0
EXTRACT: note_on channel=9 note=44 velocity=99 time=0
EXTRACT: note_on channel=9 note=70 velocity=87 time=0
EXTRACT: control_change channel=13 control=6 value=52 time=0
EXTRACT: note_off channel=9 note=70 velocity=65 time=0.024
EXTRACT: note_off channel=9 note=44 velocity=64 time=0
EXTRACT: note_off channel=3 note=81 velocity=64 time=0.032
EXTRACT: note_off channel=1 note=38 velocity=65 time=0.043000000000000003
EXTRACT: pitchwheel channel=3 pitch=-8070 time=0.004
EXTRACT: note_off channel=5 note=38 velocity=65 time=0.008
EXTRACT: note_off channel=2 note=50 velocity=64 time=0
EXTRACT: note_off channel=4 note=65 velocity=64 time=0
EXTRACT: note_off channel=4 note=62 velocity=64 time=0
EXTRACT: note_on channel=1 note=26 velocity=123 time=0.009000000000000001
EXTRACT: note_on channel=2 note=38 velocity=124 time=0
EXTRACT: note_on channel=4 note=62 velocity=1 time=0
EXTRACT: note_on channel=4 note=65 velocity=1 time=0
EXTRACT: note_on channel=5 note=38 velocity=112 time=0
EXTRACT: note_on channel=9 note=36 velocity=126 time=0
EXTRACT: note_on channel=9 note=42 velocity=125 time=0
EXTRACT: note_on channel=9 note=70 velocity=106 time=0
EXTRACT: note_on channel=3 note=81 velocity=116 time=0
EXTRACT: pitchwheel channel=3 pitch=-6150 time=0.02
EXTRACT: note_off channel=9 note=70 velocity=65 time=0.001
EXTRACT: note_off channel=9 note=42 velocity=65 time=0
EXTRACT: note_off channel=9 note=36 velocity=64 time=0
EXTRACT: pitchwheel channel=3 pitch=-4870 time=0.009000000000000001
EXTRACT: pitchwheel channel=3 pitch=-3718 time=0.01
EXTRACT: pitchwheel channel=3 pitch=-2566 time=0.01
EXTRACT: pitchwheel channel=3 pitch=-1286 time=0.01
EXTRACT: pitchwheel channel=3 pitch=122 time=0.02
EXTRACT: note_off channel=5 note=38 velocity=64 time=0.028
EXTRACT: note_off channel=2 note=38 velocity=65 time=0
EXTRACT: note_off channel=6 note=74 velocity=65 time=0.003
EXTRACT: note_on channel=2 note=38 velocity=75 time=0.006
EXTRACT: note_on channel=5 note=38 velocity=62 time=0
EXTRACT: note_off channel=14 note=74 velocity=65 time=0.054
EXTRACT: note_off channel=11 note=86 velocity=65 time=0
EXTRACT: control_change channel=1 control=6 value=45 time=0.036000000000000004
EXTRACT: note_off channel=1 note=26 velocity=64 time=0.009000000000000001
EXTRACT: note_off channel=5 note=38 velocity=64 time=0.012
EXTRACT: note_off channel=2 note=38 velocity=64 time=0
EXTRACT: note_on channel=1 note=38 velocity=122 time=0.009000000000000001
EXTRACT: note_on channel=2 note=50 velocity=125 time=0
EXTRACT: note_on channel=5 note=38 velocity=113 time=0
EXTRACT: note_on channel=9 note=46 velocity=110 time=0
EXTRACT: note_on channel=9 note=70 velocity=107 time=0
EXTRACT: note_on channel=6 note=74 velocity=72 time=0.001
EXTRACT: note_on channel=11 note=86 velocity=76 time=0
EXTRACT: note_on channel=14 note=74 velocity=77 time=0
EXTRACT: note_off channel=9 note=70 velocity=65 time=0.023
EXTRACT: note_off channel=9 note=46 velocity=64 time=0
EXTRACT: note_on channel=6 note=77 velocity=83 time=0.052000000000000005
EXTRACT: note_on channel=11 note=89 velocity=89 time=0
EXTRACT: note_on channel=14 note=77 velocity=88 time=0
EXTRACT: note_off channel=14 note=74 velocity=65 time=0.018000000000000002
EXTRACT: note_off channel=11 note=86 velocity=65 time=0
EXTRACT: note_off channel=6 note=74 velocity=64 time=0
EXTRACT: note_off channel=5 note=38 velocity=65 time=0.017
EXTRACT: note_off channel=2 note=50 velocity=65 time=0
EXTRACT: note_on channel=2 note=50 velocity=124 time=0.009000000000000001
EXTRACT: note_on channel=5 note=38 velocity=112 time=0
EXTRACT: note_on channel=9 note=70 velocity=87 time=0
EXTRACT: note_off channel=9 note=70 velocity=64 time=0.024
EXTRACT: note_on channel=6 note=81 velocity=62 time=0.008
EXTRACT: note_on channel=11 note=93 velocity=79 time=0
EXTRACT: note_on channel=14 note=81 velocity=78 time=0
EXTRACT: note_off channel=3 note=81 velocity=64 time=0.017
EXTRACT: note_off channel=14 note=77 velocity=64 time=0.005
EXTRACT: note_off channel=11 note=89 velocity=64 time=0
EXTRACT: note_off channel=6 note=77 velocity=65 time=0
EXTRACT: note_off channel=1 note=38 velocity=65 time=0.03
EXTRACT: note_on channel=6 note=86 velocity=73 time=0.017
EXTRACT: note_on channel=11 note=98 velocity=82 time=0
EXTRACT: note_on channel=14 note=86 velocity=83 time=0
EXTRACT: note_on channel=3 note=79 velocity=117 time=0
EXTRACT: note_off channel=5 note=38 velocity=65 time=0
EXTRACT: note_off channel=2 note=50 velocity=65 time=0
EXTRACT: note_off channel=4 note=65 velocity=65 time=0
EXTRACT: note_off channel=4 note=62 velocity=65 time=0
EXTRACT: note_on channel=9 note=39 velocity=118 time=0.001
EXTRACT: note_on channel=1 note=26 velocity=123 time=0.008
EXTRACT: note_on channel=2 note=38 velocity=124 time=0
EXTRACT: note_on channel=4 note=60 velocity=1 time=0
EXTRACT: note_on channel=4 note=64 velocity=1 time=0
EXTRACT: note_on channel=5 note=38 velocity=113 time=0
EXTRACT: note_on channel=9 note=36 velocity=127 time=0
EXTRACT: note_on channel=9 note=38 velocity=116 time=0
EXTRACT: note_on channel=9 note=42 velocity=98 time=0
EXTRACT: note_on channel=9 note=70 velocity=106 time=0
EXTRACT: note_off channel=14 note=81 velocity=65 time=0.004
EXTRACT: note_off channel=11 note=93 velocity=65 time=0
EXTRACT: note_off channel=6 note=81 velocity=65 time=0
EXTRACT: note_off channel=9 note=39 velocity=65 time=0.013000000000000001
EXTRACT: note_off channel=9 note=70 velocity=65 time=0.007
EXTRACT: note_off channel=9 note=42 velocity=64 time=0
EXTRACT: note_off channel=9 note=38 velocity=64 time=0
EXTRACT: note_off channel=9 note=36 velocity=65 time=0
EXTRACT: note_off channel=5 note=38 velocity=64 time=0.08700000000000001
EXTRACT: note_off channel=2 note=38 velocity=64 time=0
EXTRACT: note_on channel=2 note=38 velocity=75 time=0.009000000000000001
EXTRACT: note_on channel=5 note=38 velocity=63 time=0
EXTRACT: note_on channel=12 note=75 velocity=126 time=0.049
EXTRACT: note_on channel=12 note=79 velocity=127 time=0.02
EXTRACT: note_off channel=1 note=26 velocity=64 time=0.015
EXTRACT: note_off channel=3 note=79 velocity=65 time=0.002
EXTRACT: note_on channel=6 note=81 velocity=75 time=0.02
EXTRACT: note_on channel=11 note=93 velocity=76 time=0
EXTRACT: note_on channel=14 note=81 velocity=77 time=0
EXTRACT: note_on channel=3 note=77 velocity=116 time=0
EXTRACT: note_off channel=5 note=38 velocity=64 time=0.003
EXTRACT: note_off channel=2 note=38 velocity=65 time=0
EXTRACT: note_off channel=4 note=64 velocity=64 time=0
EXTRACT: note_off channel=4 note=60 velocity=64 time=0
EXTRACT: note_on channel=1 note=38 velocity=122 time=0.009000000000000001
EXTRACT: note_on channel=2 note=50 velocity=125 time=0
EXTRACT: note_on channel=4 note=57 velocity=1 time=0
EXTRACT: note_on channel=4 note=62 velocity=1 time=0
EXTRACT: note_on channel=5 note=38 velocity=112 time=0
EXTRACT: note_on channel=9 note=42 velocity=114 time=0
EXTRACT: note_on channel=9 note=70 velocity=107 time=0
EXTRACT: note_off channel=14 note=86 velocity=64 time=0.004
EXTRACT: note_off channel=11 note=98 velocity=64 time=0
EXTRACT: note_off channel=6 note=86 velocity=64 time=0
EXTRACT: note_off channel=9 note=70 velocity=65 time=0.02
EXTRACT: note_off channel=9 note=42 velocity=64 time=0
EXTRACT: note_off channel=5 note=38 velocity=65 time=0.08700000000000001
EXTRACT: note_off channel=2 note=50 velocity=64 time=0
EXTRACT: note_off channel=14 note=81 velocity=64 time=0.003
EXTRACT: note_off channel=11 note=93 velocity=64 time=0
EXTRACT: note_off channel=6 note=81 velocity=65 time=0
EXTRACT: note_on channel=6 note=77 velocity=72 time=0.003
EXTRACT: note_on channel=11 note=89 velocity=81 time=0
EXTRACT: note_on channel=14 note=77 velocity=80 time=0
EXTRACT: note_on channel=2 note=50 velocity=124 time=0.003
EXTRACT: note_on channel=5 note=38 velocity=113 time=0
EXTRACT: note_on channel=9 note=44 velocity=98 time=0
EXTRACT: note_on channel=9 note=70 velocity=86 time=0
EXTRACT: note_off channel=9 note=70 velocity=64 time=0.024
EXTRACT: note_off channel=9 note=44 velocity=65 time=0
EXTRACT: note_off channel=3 note=77 velocity=64 time=0.025
EXTRACT: note_off channel=12 note=75 velocity=64 time=0.029
EXTRACT: note_off channel=1 note=38 velocity=64 time=0.006
EXTRACT: note_off channel=12 note=79 velocity=65 time=0.014
EXTRACT: note_on channel=3 note=79 velocity=117 time=0
EXTRACT: note_off channel=5 note=38 velocity=65 time=0.001
EXTRACT: note_off channel=2 note=50 velocity=64 time=0
EXTRACT: note_off channel=4 note=62 velocity=65 time=0
EXTRACT: note_off channel=4 note=57 velocity=64 time=0
EXTRACT: note_on channel=6 note=74 velocity=79 time=0.006
EXTRACT: note_on channel=11 note=86 velocity=84 time=0
EXTRACT: note_on channel=14 note=74 velocity=84 time=0
EXTRACT: note_on channel=1 note=26 velocity=122 time=0.003
EXTRACT: note_on channel=2 note=38 velocity=124 time=0
EXTRACT: note_on channel=4 note=60 velocity=1 time=0
EXTRACT: note_on channel=4 note=64 velocity=1 time=0
EXTRACT: note_on channel=5 note=38 velocity=112 time=0
EXTRACT: note_on channel=9 note=36 velocity=127 time=0
EXTRACT: note_on channel=9 note=42 velocity=123 time=0
EXTRACT: note_on channel=9 note=70 velocity=106 time=0
EXTRACT: note_off channel=14 note=77 velocity=65 time=0.014
EXTRACT: note_off channel=11 note=89 velocity=65 time=0
EXTRACT: note_off channel=6 note=77 velocity=64 time=0
EXTRACT: note_off channel=9 note=70 velocity=64 time=0.01
EXTRACT: note_off channel=9 note=42 velocity=65 time=0
EXTRACT: note_off channel=9 note=36 velocity=65 time=0
EXTRACT: control_change channel=13 control=6 value=54 time=0.056
EXTRACT: note_off channel=5 note=38 velocity=64 time=0.031
EXTRACT: note_off channel=2 note=38 velocity=65 time=0
EXTRACT: note_on channel=6 note=76 velocity=78 time=0.005
EXTRACT: note_on channel=11 note=88 velocity=85 time=0
EXTRACT: note_on channel=14 note=76 velocity=85 time=0
EXTRACT: note_on channel=2 note=38 velocity=75 time=0.004
EXTRACT: note_on channel=5 note=38 velocity=62 time=0
EXTRACT: note_off channel=14 note=74 velocity=65 time=0.004
EXTRACT: note_off channel=11 note=86 velocity=65 time=0
EXTRACT: note_off channel=6 note=74 velocity=64 time=0
EXTRACT: note_off channel=10 note=62 velocity=64 time=0
EXTRACT: note_off channel=3 note=79 velocity=65 time=0.07100000000000001
EXTRACT: note_off channel=1 note=26 velocity=65 time=0.009000000000000001
EXTRACT: note_off channel=5 note=38 velocity=64 time=0.027
EXTRACT: note_off channel=2 note=38 velocity=65 time=0
EXTRACT: note_off channel=4 note=64 velocity=65 time=0
EXTRACT: note_off channel=4 note=60 velocity=65 time=0
EXTRACT: note_off channel=13 note=69 velocity=64 time=0.003
EXTRACT: note_off channel=13 note=74 velocity=65 time=0
EXTRACT: note_off channel=13 note=65 velocity=65 time=0
EXTRACT: note_off channel=13 note=62 velocity=64 time=0
EXTRACT: note_on channel=6 note=77 velocity=74 time=0.004
EXTRACT: note_on channel=11 note=89 velocity=93 time=0
EXTRACT: note_on channel=14 note=77 velocity=92 time=0
EXTRACT: note_on channel=1 note=28 velocity=123 time=0
EXTRACT: note_on channel=2 note=52 velocity=124 time=0
EXTRACT: note_on channel=3 note=81 velocity=117 time=0
EXTRACT: note_on channel=4 note=60 velocity=1 time=0
EXTRACT: note_on channel=4 note=65 velocity=1 time=0
EXTRACT: note_on channel=5 note=40 velocity=113 time=0
EXTRACT: note_on channel=9 note=46 velocity=104 time=0
EXTRACT: note_on channel=9 note=70 velocity=107 time=0
EXTRACT: note_on channel=13 note=64 velocity=80 time=0
EXTRACT: note_off channel=10 note=65 velocity=65 time=0.004
EXTRACT: note_off channel=14 note=76 velocity=64 time=0.001
EXTRACT: note_off channel=11 note=88 velocity=64 time=0
EXTRACT: note_off channel=6 note=76 velocity=65 time=0
EXTRACT: note_on channel=10 note=64 velocity=91 time=0.005
EXTRACT: note_on channel=10 note=67 velocity=78 time=0
EXTRACT: note_on channel=13 note=67 velocity=65 time=0.002
EXTRACT: note_on channel=13 note=71 velocity=62 time=0.008
EXTRACT: note_off channel=9 note=70 velocity=64 time=0.004
EXTRACT: note_off channel=9 note=46 velocity=65 time=0
EXTRACT: note_off channel=5 note=40 velocity=65 time=0.08700000000000001
EXTRACT: note_off channel=2 note=52 velocity=64 time=0
EXTRACT: note_on channel=2 note=52 velocity=125 time=0.009000000000000001
EXTRACT: note_on channel=5 note=40 velocity=113 time=0
EXTRACT: note_on channel=9 note=70 velocity=87 time=0
EXTRACT: note_on channel=6 note=79 velocity=75 time=0.001
EXTRACT: note_on channel=11 note=91 velocity=82 time=0
EXTRACT: note_on channel=14 note=79 velocity=83 time=0
EXTRACT: note_off channel=14 note=77 velocity=64 time=0.013000000000000001
EXTRACT: note_off channel=11 note=89 velocity=64 time=0
EXTRACT: note_off channel=6 note=77 velocity=65 time=0
EXTRACT: note_off channel=9 note=70 velocity=64 time=0.01
EXTRACT: control_change channel=1 control=6 value=47 time=0.021
EXTRACT: note_off channel=1 note=28 velocity=65 time=0.024
EXTRACT: note_off channel=13 note=64 velocity=64 time=0.006
EXTRACT: note_on channel=6 note=81 velocity=77 time=0.022
EXTRACT: note_on channel=11 note=93 velocity=87 time=0
EXTRACT: note_on channel=14 note=81 velocity=87 time=0
EXTRACT: note_off channel=5 note=40 velocity=64 time=0.014
EXTRACT: note_off channel=2 note=52 velocity=64 time=0
EXTRACT: note_on channel=9 note=39 velocity=119 time=0.001
EXTRACT: note_off channel=13 note=71 velocity=65 time=0.002
EXTRACT: note_off channel=13 note=67 velocity=64 time=0
EXTRACT: note_on channel=1 note=29 velocity=123 time=0.006
EXTRACT: note_on channel=2 note=41 velocity=125 time=0
EXTRACT: note_on channel=5 note=41 velocity=112 time=0
EXTRACT: note_on channel=9 note=36 velocity=126 time=0
EXTRACT: note_on channel=9 note=38 velocity=117 time=0
EXTRACT: note_on channel=9 note=42 velocity=110 time=0
EXTRACT: note_on channel=9 note=70 velocity=106 time=0
EXTRACT: note_on channel=13 note=65 velocity=89 time=0
EXTRACT: note_off channel=14 note=79 velocity=65 time=0.002
EXTRACT: note_off channel=11 note=91 velocity=65 time=0
EXTRACT: note_off channel=6 note=79 velocity=64 time=0
EXTRACT: note_off channel=10 note=67 velocity=65 time=0.002
EXTRACT: note_off channel=10 note=64 velocity=64 time=0.002
EXTRACT: note_on channel=10 note=65 velocity=104 time=0.004
EXTRACT: note_on channel=10 note=69 velocity=87 time=0
EXTRACT: note_on channel=13 note=69 velocity=35 time=0.007
EXTRACT: note_on channel=13 note=72 velocity=80 time=0
EXTRACT: note_off channel=9 note=39 velocity=64 time=0
EXTRACT: note_off channel=9 note=70 velocity=65 time=0.007
EXTRACT: note_off channel=9 note=42 velocity=65 time=0
EXTRACT: note_off channel=9 note=38 velocity=64 time=0
EXTRACT: note_off channel=9 note=36 velocity=64 time=0
EXTRACT: note_off channel=3 note=81 velocity=65 time=0.05
EXTRACT: note_off channel=5 note=41 velocity=65 time=0.037
EXTRACT: note_off channel=2 note=41 velocity=65 time=0
EXTRACT: note_on channel=2 note=41 velocity=74 time=0.009000000000000001
EXTRACT: note_on channel=5 note=41 velocity=62 time=0
EXTRACT: note_off channel=1 note=29 velocity=64 time=0.084
EXTRACT: note_off channel=5 note=41 velocity=65 time=0.027
EXTRACT: note_off channel=2 note=41 velocity=65 time=0
EXTRACT: note_off channel=4 note=65 velocity=64 time=0
EXTRACT: note_off channel=4 note=60 velocity=65 time=0
EXTRACT: note_on channel=1 note=41 velocity=122 time=0.009000000000000001
EXTRACT: note_on channel=2 note=53 velocity=125 time=0
EXTRACT: note_on channel=4 note=60 velocity=1 time=0
EXTRACT: note_on channel=4 note=65 velocity=1 time=0
EXTRACT: note_on channel=5 note=41 velocity=113 time=0
EXTRACT: note_on channel=9 note=42 velocity=125 time=0
EXTRACT: note_on channel=9 note=70 velocity=106 time=0
EXTRACT: note_on channel=3 note=81 velocity=116 time=0
EXTRACT: note_off channel=9 note=70 velocity=65 time=0.009000000000000001
EXTRACT: note_off channel=9 note=42 velocity=65 time=0
EXTRACT: note_off channel=5 note=41 velocity=64 time=0.066
EXTRACT: note_off channel=2 note=53 velocity=64 time=0
EXTRACT: note_on channel=2 note=53 velocity=124 time=0.009000000000000001
EXTRACT: note_on channel=5 note=41 velocity=113 time=0
EXTRACT: note_on channel=9 note=44 velocity=98 time=0
EXTRACT: note_on channel=9 note=70 velocity=87 time=0
EXTRACT: note_off channel=9 note=70 velocity=64 time=0.024
EXTRACT: note_off channel=9 note=44 velocity=64 time=0
EXTRACT: note_off channel=1 note=41 velocity=64 time=0.06
EXTRACT: note_off channel=5 note=41 velocity=65 time=0.027
EXTRACT: note_off channel=2 note=53 velocity=64 time=0
EXTRACT: note_on channel=1 note=29 velocity=122 time=0.009000000000000001
EXTRACT: note_on channel=2 note=41 velocity=124 time=0
EXTRACT: note_on channel=5 note=41 velocity=112 time=0
EXTRACT: note_on channel=9 note=36 velocity=127 time=0
EXTRACT: note_on channel=9 note=42 velocity=125 time=0
EXTRACT: note_on channel=9 note=70 velocity=107 time=0
EXTRACT: note_off channel=9 note=70 velocity=65 time=0.024
EXTRACT: note_off channel=9 note=42 velocity=64 time=0
EXTRACT: note_off channel=9 note=36 velocity=65 time=0
EXTRACT: note_off channel=5 note=41 velocity=64 time=0.08700000000000001
EXTRACT: note_off channel=2 note=41 velocity=65 time=0
EXTRACT: note_on channel=2 note=41 velocity=75 time=0.009000000000000001
EXTRACT: note_on channel=5 note=41 velocity=62 time=0
EXTRACT: note_off channel=3 note=81 velocity=64 time=0.014
EXTRACT: note_off channel=14 note=81 velocity=65 time=0.06
EXTRACT: note_off channel=11 note=93 velocity=65 time=0
EXTRACT: note_off channel=6 note=81 velocity=64 time=0
EXTRACT: note_off channel=1 note=29 velocity=65 time=0.01
EXTRACT: note_off channel=5 note=41 velocity=64 time=0.027
EXTRACT: note_off channel=2 note=41 velocity=64 time=0
EXTRACT: note_off channel=4 note=65 velocity=64 time=0
EXTRACT: note_on channel=1 note=41 velocity=123 time=0.009000000000000001
EXTRACT: note_on channel=2 note=53 velocity=125 time=0
EXTRACT: note_on channel=4 note=57 velocity=1 time=0
EXTRACT: note_on channel=5 note=41 velocity=113 time=0
EXTRACT: note_on channel=9 note=46 velocity=111 time=0
EXTRACT: note_on channel=9 note=70 velocity=106 time=0
EXTRACT: control_change channel=2 control=6 value=59 time=0
EXTRACT: note_on channel=3 note=72 velocity=117 time=0
EXTRACT: note_on channel=6 note=77 velocity=74 time=0.015
EXTRACT: note_on channel=11 note=89 velocity=82 time=0
EXTRACT: note_on channel=14 note=77 velocity=82 time=0
EXTRACT: note_off channel=9 note=70 velocity=65 time=0.003
EXTRACT: note_off channel=9 note=46 velocity=64 time=0
EXTRACT: note_on channel=6 note=81 velocity=54 time=0.059000000000000004
EXTRACT: note_on channel=11 note=93 velocity=76 time=0
EXTRACT: note_on channel=14 note=81 velocity=77 time=0
EXTRACT: note_off channel=5 note=41 velocity=65 time=0.016
EXTRACT: note_off channel=2 note=53 velocity=65 time=0
EXTRACT: note_on channel=2 note=53 velocity=124 time=0.009000000000000001
EXTRACT: note_on channel=5 note=41 velocity=112 time=0
EXTRACT: note_on channel=9 note=70 velocity=86 time=0
EXTRACT: note_off channel=9 note=70 velocity=65 time=0.024
EXTRACT: note_off channel=14 note=77 velocity=64 time=0.01
EXTRACT: note_off channel=11 note=89 velocity=64 time=0
EXTRACT: note_off channel=6 note=77 velocity=65 time=0
EXTRACT: note_on channel=6 note=84 velocity=81 time=0.012
EXTRACT: note_on channel=11 note=96 velocity=85 time=0
EXTRACT: note_on channel=14 note=84 velocity=84 time=0
EXTRACT: note_off channel=14 note=81 velocity=64 time=0.018000000000000002
EXTRACT: note_off channel=11 note=93 velocity=64 time=0
EXTRACT: note_off channel=6 note=81 velocity=65 time=0
EXTRACT: note_off channel=3 note=72 velocity=65 time=0.01
EXTRACT: note_off channel=1 note=41 velocity=65 time=0.01
EXTRACT: note_on channel=6 note=89 velocity=79 time=0.019
EXTRACT: note_on channel=11 note=101 velocity=85 time=0
EXTRACT: note_on channel=14 note=89 velocity=84 time=0
EXTRACT: note_off channel=5 note=41 velocity=65 time=0.008
EXTRACT: note_off channel=2 note=53 velocity=65 time=0
EXTRACT: note_off channel=4 note=57 velocity=64 time=0
EXTRACT: note_on channel=9 note=39 velocity=118 time=0.001
EXTRACT: note_off channel=4 note=60 velocity=65 time=0.002
EXTRACT: note_on channel=1 note=29 velocity=123 time=0.006
EXTRACT: note_on channel=2 note=41 velocity=124 time=0
EXTRACT: note_on channel=4 note=60 velocity=1 time=0
EXTRACT: note_on channel=4 note=65 velocity=1 time=0
EXTRACT: note_on channel=5 note=41 velocity=113 time=0
EXTRACT: note_on channel=9 note=36 velocity=126 time=0
EXTRACT: note_on channel=9 note=38 velocity=117 time=0
EXTRACT: note_on channel=9 note=42 velocity=112 time=0
EXTRACT: note_on channel=9 note=70 velocity=107 time=0
EXTRACT: note_on channel=3 note=81 velocity=116 time=0
EXTRACT: note_off channel=14 note=84 velocity=65 time=0.012
EXTRACT: note_off channel=11 note=96 velocity=65 time=0
EXTRACT: note_off channel=6 note=84 velocity=64 time=0
EXTRACT: note_off channel=9 note=39 velocity=64 time=0.003
EXTRACT: note_off channel=9 note=70 velocity=64 time=0.007
EXTRACT: note_off channel=9 note=42 velocity=65 time=0
EXTRACT: note_off channel=9 note=38 velocity=65 time=0
EXTRACT: note_off channel=9 note=36 velocity=64 time=0
EXTRACT: control_change channel=13 control=6 value=56 time=0.016
EXTRACT: note_off channel=5 note=41 velocity=64 time=0.07100000000000001
EXTRACT: note_off channel=2 note=41 velocity=64 time=0
EXTRACT: note_on channel=2 note=41 velocity=75 time=0.009000000000000001
EXTRACT: note_on channel=5 note=41 velocity=63 time=0
EXTRACT: control_change channel=1 control=6 value=50 time=0.075
EXTRACT: note_off channel=1 note=29 velocity=64 time=0.009000000000000001
EXTRACT: note_off channel=3 note=81 velocity=64 time=0.01
EXTRACT: note_off channel=14 note=89 velocity=64 time=0
EXTRACT: note_off channel=11 note=101 velocity=64 time=0
EXTRACT: note_off channel=6 note=89 velocity=64 time=0
EXTRACT: note_on channel=6 note=88 velocity=74 time=0.016
EXTRACT: note_on channel=11 note=100 velocity=80 time=0
EXTRACT: note_on channel=14 note=88 velocity=81 time=0
EXTRACT: note_off channel=5 note=41 velocity=64 time=0.001
EXTRACT: note_off channel=2 note=41 velocity=65 time=0
EXTRACT: note_off channel=4 note=65 velocity=65 time=0
EXTRACT: note_off channel=4 note=60 velocity=64 time=0
EXTRACT: note_on channel=1 note=31 velocity=122 time=0.009000000000000001
EXTRACT: note_on channel=2 note=55 velocity=125 time=0
EXTRACT: note_on channel=4 note=60 velocity=1 time=0
EXTRACT: note_on channel=4 note=64 velocity=1 time=0
EXTRACT: note_on channel=5 note=43 velocity=112 time=0
EXTRACT: note_on channel=9 note=42 velocity=109 time=0
EXTRACT: note_on channel=9 note=70 velocity=106 time=0
EXTRACT: note_on channel=13 note=67 velocity=81 time=0
EXTRACT: note_on channel=13 note=71 velocity=64 time=0
EXTRACT: note_off channel=10 note=69 velocity=64 time=0.004
EXTRACT: note_off channel=10 note=65 velocity=65 time=0
EXTRACT: note_on channel=10 note=71 velocity=86 time=0.006
EXTRACT: note_on channel=10 note=67 velocity=87 time=0
EXTRACT: note_off channel=13 note=72 velocity=65 time=0.001
EXTRACT: note_off channel=13 note=69 velocity=65 time=0
EXTRACT: note_off channel=13 note=65 velocity=64 time=0
EXTRACT: note_on channel=13 note=74 velocity=62 time=0.009000000000000001
EXTRACT: note_off channel=9 note=70 velocity=64 time=0.004
EXTRACT: note_off channel=9 note=42 velocity=65 time=0
EXTRACT: note_on channel=3 note=79 velocity=116 time=0
EXTRACT: note_off channel=5 note=43 velocity=65 time=0.046
EXTRACT: note_off channel=2 note=55 velocity=64 time=0
EXTRACT: note_on channel=2 note=55 velocity=124 time=0.009000000000000001
EXTRACT: note_on channel=5 note=43 velocity=113 time=0
EXTRACT: note_on channel=9 note=44 velocity=99 time=0
EXTRACT: note_on channel=9 note=70 velocity=87 time=0
EXTRACT: note_off channel=14 note=88 velocity=65 time=0.004
EXTRACT: note_off channel=11 note=100 velocity=65 time=0
EXTRACT: note_off channel=6 note=88 velocity=65 time=0
EXTRACT: note_on channel=6 note=84 velocity=72 time=0.003
EXTRACT: note_on channel=11 note=96 velocity=78 time=0
EXTRACT: note_on channel=14 note=84 velocity=79 time=0
EXTRACT: note_off channel=9 note=70 velocity=65 time=0.017
EXTRACT: note_off channel=9 note=44 velocity=64 time=0
EXTRACT: note_off channel=1 note=31 velocity=64 time=0.06
EXTRACT: control_change channel=9 control=91 value=20 time=0.006
EXTRACT: note_off channel=5 note=43 velocity=65 time=0.021
EXTRACT: note_off channel=2 note=55 velocity=64 time=0
EXTRACT: note_off channel=13 note=74 velocity=65 time=0.003
EXTRACT: note_off channel=13 note=71 velocity=64 time=0
EXTRACT: note_off channel=13 note=67 velocity=64 time=0
EXTRACT: note_on channel=1 note=33 velocity=122 time=0.006
EXTRACT: note_on channel=2 note=45 velocity=124 time=0
EXTRACT: note_on channel=5 note=45 velocity=112 time=0
EXTRACT: note_on channel=9 note=36 velocity=126 time=0
EXTRACT: note_on channel=9 note=42 velocity=124 time=0
EXTRACT: note_on channel=9 note=70 velocity=107 time=0
EXTRACT: note_on channel=13 note=69 velocity=57 time=0
EXTRACT: note_off channel=10 note=67 velocity=64 time=0.004
EXTRACT: note_off channel=10 note=71 velocity=65 time=0
EXTRACT: note_on channel=6 note=81 velocity=79 time=0.003
EXTRACT: note_on channel=11 note=93 velocity=85 time=0
EXTRACT: note_on channel=14 note=81 velocity=84 time=0
EXTRACT: note_on channel=13 note=76 velocity=69 time=0.002
EXTRACT: note_on channel=10 note=72 velocity=103 time=0.001
EXTRACT: note_on channel=10 note=69 velocity=92 time=0
EXTRACT: note_on channel=13 note=72 velocity=60 time=0.002
EXTRACT: note_off channel=14 note=84 velocity=65 time=0.001
EXTRACT: note_off channel=11 note=96 velocity=65 time=0
EXTRACT: note_off channel=6 note=84 velocity=64 time=0
EXTRACT: note_off channel=9 note=70 velocity=64 time=0.011
EXTRACT: note_off channel=9 note=42 velocity=65 time=0
EXTRACT: note_off channel=9 note=36 velocity=64 time=0
EXTRACT: note_off channel=5 note=45 velocity=64 time=0.08700000000000001
EXTRACT: note_off channel=2 note=45 velocity=65 time=0
EXTRACT: note_on channel=2 note=45 velocity=75 time=0.009000000000000001
EXTRACT: note_on channel=5 note=45 velocity=62 time=0
EXTRACT: note_off channel=3 note=79 velocity=64 time=0.006
EXTRACT: note_off channel=1 note=33 velocity=65 time=0.093
EXTRACT: note_off channel=5 note=45 velocity=64 time=0.012
EXTRACT: note_off channel=2 note=45 velocity=65 time=0
EXTRACT: note_on channel=1 note=45 velocity=123 time=0.009000000000000001
EXTRACT: note_on channel=2 note=57 velocity=124 time=0
EXTRACT: note_on channel=5 note=45 velocity=113 time=0
EXTRACT: note_on channel=9 note=46 velocity=110 time=0
EXTRACT: note_on channel=9 note=70 velocity=106 time=0
EXTRACT: note_off channel=9 note=70 velocity=65 time=0.024
EXTRACT: note_off channel=9 note=46 velocity=65 time=0
EXTRACT: note_off channel=5 note=45 velocity=65 time=0.08700000000000001
EXTRACT: note_off channel=2 note=57 velocity=64 time=0
EXTRACT: note_on channel=2 note=57 velocity=125 time=0.009000000000000001
EXTRACT: note_on channel=5 note=45 velocity=113 time=0
EXTRACT: note_on channel=9 note=70 velocity=87 time=0
EXTRACT: note_off channel=9 note=70 velocity=64 time=0.024
EXTRACT: note_off channel=1 note=45 velocity=64 time=0.06
EXTRACT: note_off channel=5 note=45 velocity=64 time=0.027
EXTRACT: note_off channel=2 note=57 velocity=64 time=0
EXTRACT: note_on channel=9 note=39 velocity=119 time=0.001
EXTRACT: note_on channel=1 note=33 velocity=122 time=0.008
EXTRACT: note_on channel=2 note=45 velocity=125 time=0
EXTRACT: note_on channel=5 note=45 velocity=112 time=0
EXTRACT: note_on channel=9 note=36 velocity=127 time=0
EXTRACT: note_on channel=9 note=38 velocity=116 time=0
EXTRACT: note_on channel=9 note=42 velocity=122 time=0
EXTRACT: note_on channel=9 note=70 velocity=106 time=0
EXTRACT: note_off channel=9 note=39 velocity=65 time=0.017
EXTRACT: note_off channel=9 note=70 velocity=64 time=0.007
EXTRACT: note_off channel=9 note=42 velocity=64 time=0
EXTRACT: note_off channel=9 note=38 velocity=65 time=0
EXTRACT: note_off channel=9 note=36 velocity=65 time=0
EXTRACT: note_off channel=5 note=45 velocity=65 time=0.08700000000000001
EXTRACT: note_off channel=2 note=45 velocity=65 time=0
EXTRACT: note_on channel=2 note=45 velocity=74 time=0.009000000000000001
EXTRACT: note_on channel=5 note=45 velocity=62 time=0
EXTRACT: note_off channel=1 note=33 velocity=65 time=0.099
EXTRACT: note_off channel=5 note=45 velocity=65 time=0.012
EXTRACT: note_off channel=2 note=45 velocity=65 time=0
EXTRACT: note_on channel=1 note=45 velocity=123 time=0.009000000000000001
EXTRACT: note_on channel=2 note=57 velocity=125 time=0
EXTRACT: note_on channel=5 note=45 velocity=113 time=0
EXTRACT: note_on channel=9 note=42 velocity=117 time=0
EXTRACT: note_on channel=9 note=70 velocity=106 time=0
EXTRACT: note_off channel=9 note=70 velocity=64 time=0.024
EXTRACT: note_off channel=9 note=42 velocity=64 time=0
EXTRACT: control_change channel=13 control=6 value=58 time=0.056
EXTRACT: note_off channel=5 note=45 velocity=64 time=0.031
EXTRACT: note_off channel=2 note=57 velocity=64 time=0
EXTRACT: note_on channel=2 note=57 velocity=124 time=0.009000000000000001
EXTRACT: note_on channel=5 note=45 velocity=113 time=0
EXTRACT: note_on channel=9 note=44 velocity=99 time=0
EXTRACT: note_on channel=9 note=70 velocity=87 time=0
EXTRACT: note_off channel=9 note=70 velocity=65 time=0.024
EXTRACT: note_off channel=9 note=44 velocity=65 time=0
EXTRACT: note_off channel=1 note=45 velocity=65 time=0.06
EXTRACT: note_off channel=5 note=45 velocity=65 time=0.027
EXTRACT: note_off channel=2 note=57 velocity=64 time=0
EXTRACT: note_on channel=1 note=33 velocity=123 time=0.009000000000000001
EXTRACT: note_on channel=2 note=45 velocity=124 time=0
EXTRACT: note_on channel=5 note=45 velocity=112 time=0
EXTRACT: note_on channel=9 note=36 velocity=127 time=0
EXTRACT: note_on channel=9 note=42 velocity=125 time=0
EXTRACT: note_on channel=9 note=70 velocity=107 time=0
EXTRACT: note_off channel=9 note=70 velocity=64 time=0.024
EXTRACT: note_off channel=9 note=42 velocity=64 time=0
EXTRACT: note_off channel=9 note=36 velocity=65 time=0
EXTRACT: control_change channel=1 control=6 value=52 time=0.066
EXTRACT: note_off channel=14 note=81 velocity=64 time=0.002
EXTRACT: note_off channel=11 note=93 velocity=64 time=0
EXTRACT: note_off channel=6 note=81 velocity=65 time=0
EXTRACT: note_off channel=5 note=45 velocity=64 time=0.019
EXTRACT: note_off channel=2 note=45 velocity=65 time=0
EXTRACT: note_off channel=4 note=64 velocity=64 time=0.003
EXTRACT: note_off channel=4 note=60 velocity=65 time=0
EXTRACT: note_on channel=2 note=45 velocity=75 time=0.006
EXTRACT: note_on channel=5 note=45 velocity=62 time=0
EXTRACT: note_off channel=1 note=33 velocity=64 time=0.084
EXTRACT: note_off channel=5 note=45 velocity=64 time=0.027
EXTRACT: note_off channel=2 note=45 velocity=64 time=0
EXTRACT: note_on channel=1 note=45 velocity=122 time=0.009000000000000001
EXTRACT: note_on channel=2 note=57 velocity=125 time=0
EXTRACT: note_on channel=4 note=57 velocity=1 time=0
EXTRACT: note_on channel=4 note=60 velocity=1 time=0
EXTRACT: note_on channel=5 note=45 velocity=113 time=0
EXTRACT: note_on channel=9 note=46 velocity=107 time=0
EXTRACT: note_on channel=9 note=70 velocity=106 time=0
EXTRACT: note_on channel=3 note=77 velocity=117 time=0
EXTRACT: note_off channel=9 note=70 velocity=64 time=0.02
EXTRACT: note_off channel=9 note=46 velocity=65 time=0
EXTRACT: note_on channel=6 note=76 velocity=72 time=0.014
EXTRACT: note_on channel=11 note=88 velocity=89 time=0
EXTRACT: note_on channel=14 note=76 velocity=88 time=0
EXTRACT: note_off channel=5 note=45 velocity=65 time=0.063
EXTRACT: note_off channel=2 note=57 velocity=65 time=0
EXTRACT: note_on channel=6 note=81 velocity=69 time=0.005
EXTRACT: note_on channel=11 note=93 velocity=80 time=0
EXTRACT: note_on channel=14 note=81 velocity=81 time=0
EXTRACT: note_on channel=2 note=57 velocity=124 time=0.004
EXTRACT: note_on channel=5 note=45 velocity=112 time=0
EXTRACT: note_on channel=9 note=70 velocity=86 time=0
EXTRACT: note_off channel=3 note=77 velocity=65 time=0.018000000000000002
EXTRACT: note_off channel=9 note=70 velocity=65 time=0.006
EXTRACT: note_on channel=6 note=84 velocity=69 time=0.031
EXTRACT: note_on channel=11 note=96 velocity=82 time=0
EXTRACT: note_on channel=14 note=84 velocity=83 time=0
EXTRACT: note_off channel=14 note=76 velocity=65 time=0.026000000000000002
EXTRACT: note_off channel=11 note=88 velocity=65 time=0
EXTRACT: note_off channel=6 note=76 velocity=65 time=0
EXTRACT: note_off channel=1 note=45 velocity=65 time=0.003
EXTRACT: note_off channel=5 note=45 velocity=65 time=0.027
EXTRACT: note_off channel=2 note=57 velocity=65 time=0
EXTRACT: note_on channel=9 note=39 velocity=119 time=0.001
EXTRACT: note_off channel=4 note=60 velocity=65 time=0.002
EXTRACT: note_off channel=13 note=76 velocity=65 time=0
EXTRACT: note_on channel=3 note=79 velocity=117 time=0
EXTRACT: note_on channel=6 note=88 velocity=82 time=0.003
EXTRACT: note_on channel=11 note=100 velocity=87 time=0
EXTRACT: note_on channel=14 note=88 velocity=86 time=0
EXTRACT: note_off channel=14 note=81 velocity=64 time=0
EXTRACT: note_off channel=11 note=93 velocity=64 time=0
EXTRACT: note_off channel=6 note=81 velocity=64 time=0
EXTRACT: note_on channel=1 note=33 velocity=123 time=0.002
EXTRACT: note_on channel=2 note=45 velocity=124 time=0
EXTRACT: note_on channel=4 note=62 velocity=1 time=0
EXTRACT: note_on channel=5 note=45 velocity=113 time=0
EXTRACT: note_on channel=9 note=36 velocity=126 time=0
EXTRACT: note_on channel=9 note=38 velocity=116 time=0
EXTRACT: note_on channel=9 note=42 velocity=116 time=0
EXTRACT: note_on channel=9 note=70 velocity=107 time=0
EXTRACT: note_on channel=13 note=77 velocity=68 time=0
EXTRACT: note_off channel=9 note=39 velocity=64 time=0.017
EXTRACT: note_off channel=9 note=70 velocity=65 time=0.007
EXTRACT: note_off channel=9 note=42 velocity=64 time=0
EXTRACT: note_off channel=9 note=38 velocity=64 time=0
EXTRACT: note_off channel=9 note=36 velocity=65 time=0
EXTRACT: note_off channel=14 note=84 velocity=64 time=0.02
EXTRACT: note_off channel=11 note=96 velocity=64 time=0
EXTRACT: note_off channel=6 note=84 velocity=65 time=0
EXTRACT: note_off channel=5 note=45 velocity=64 time=0.067
EXTRACT: note_off channel=2 note=45 velocity=64 time=0
EXTRACT: note_on channel=2 note=45 velocity=75 time=0.009000000000000001
EXTRACT: note_on channel=5 note=45 velocity=63 time=0
EXTRACT: note_off channel=14 note=88 velocity=65 time=0.044
EXTRACT: note_off channel=11 note=100 velocity=65 time=0
EXTRACT: note_off channel=6 note=88 velocity=64 time=0
EXTRACT: note_on channel=12 note=74 velocity=127 time=0.004
EXTRACT: note_on channel=12 note=77 velocity=126 time=0.001
EXTRACT: pitchwheel channel=3 pitch=-2694 time=0.034
EXTRACT: note_off channel=1 note=33 velocity=64 time=0.001
EXTRACT: pitchwheel channel=3 pitch=-5048 time=0.014
EXTRACT: pitchwheel channel=3 pitch=-8186 time=0.013000000000000001
EXTRACT: note_off channel=5 note=45 velocity=64 time=0
EXTRACT: note_off channel=2 note=45 velocity=65 time=0
EXTRACT: note_on channel=6 note=88 velocity=83 time=0.002
EXTRACT: note_on channel=11 note=100 velocity=86 time=0
EXTRACT: note_on channel=14 note=88 velocity=86 time=0
EXTRACT: note_off channel=4 note=62 velocity=64 time=0.001
EXTRACT: note_on channel=1 note=43 velocity=122 time=0.006
EXTRACT: note_on channel=2 note=55 velocity=125 time=0
EXTRACT: note_on channel=4 note=60 velocity=1 time=0
EXTRACT: note_on channel=5 note=43 velocity=112 time=0
EXTRACT: note_on channel=9 note=42 velocity=116 time=0
EXTRACT: note_on channel=9 note=70 velocity=107 time=0
EXTRACT: note_off channel=9 note=70 velocity=65 time=0.024
EXTRACT: note_off channel=9 note=42 velocity=64 time=0
EXTRACT: note_off channel=14 note=88 velocity=65 time=0
EXTRACT: note_off channel=11 note=100 velocity=65 time=0
EXTRACT: note_off channel=6 note=88 velocity=64 time=0
EXTRACT: note_on channel=6 note=84 velocity=82 time=0.019
EXTRACT: note_on channel=11 note=96 velocity=87 time=0
EXTRACT: note_on channel=14 note=84 velocity=87 time=0
EXTRACT: note_on channel=6 note=81 velocity=76 time=0.056
EXTRACT: note_on channel=11 note=93 velocity=83 time=0
EXTRACT: note_on channel=14 note=81 velocity=82 time=0
EXTRACT: note_off channel=14 note=84 velocity=64 time=0.005
EXTRACT: note_off channel=11 note=96 velocity=64 time=0
EXTRACT: note_off channel=6 note=84 velocity=65 time=0
EXTRACT: note_off channel=5 note=43 velocity=65 time=0.007
EXTRACT: note_off channel=2 note=55 velocity=64 time=0
EXTRACT: note_off channel=1 note=43 velocity=64 time=0.003
EXTRACT: note_on channel=1 note=41 velocity=122 time=0.006
EXTRACT: note_on channel=2 note=53 velocity=124 time=0
EXTRACT: note_on channel=5 note=41 velocity=113 time=0
EXTRACT: note_on channel=9 note=44 velocity=98 time=0
EXTRACT: note_on channel=9 note=70 velocity=86 time=0
EXTRACT: note_off channel=9 note=70 velocity=64 time=0.024
EXTRACT: note_off channel=9 note=44 velocity=65 time=0
EXTRACT: note_off channel=14 note=81 velocity=64 time=0.02
EXTRACT: note_off channel=11 note=93 velocity=64 time=0
EXTRACT: note_off channel=6 note=81 velocity=65 time=0
EXTRACT: note_off channel=3 note=79 velocity=65 time=0.01
EXTRACT: note_on channel=6 note=77 velocity=79 time=0.013000000000000001
EXTRACT: note_on channel=11 note=89 velocity=84 time=0
EXTRACT: note_on channel=14 note=77 velocity=85 time=0
EXTRACT: note_off channel=12 note=74 velocity=65 time=0.01
EXTRACT: note_off channel=12 note=77 velocity=64 time=0.001
EXTRACT: control_change channel=13 control=6 value=60 time=0.002
EXTRACT: note_off channel=10 note=72 velocity=65 time=0.006
EXTRACT: note_off channel=10 note=69 velocity=64 time=0.005
EXTRACT: pitchwheel channel=3 pitch=128 time=0.008
EXTRACT: note_off channel=5 note=41 velocity=65 time=0.012
EXTRACT: note_off channel=2 note=53 velocity=64 time=0
EXTRACT: note_off channel=1 note=41 velocity=65 time=0.003
EXTRACT: note_off channel=4 note=60 velocity=64 time=0
EXTRACT: note_off channel=13 note=72 velocity=65 time=0
EXTRACT: note_off channel=13 note=69 velocity=64 time=0
EXTRACT: note_on channel=1 note=26 velocity=123 time=0.006
EXTRACT: note_on channel=2 note=38 velocity=124 time=0
EXTRACT: note_on channel=4 note=62 velocity=1 time=0
EXTRACT: note_on channel=5 note=38 velocity=112 time=0
EXTRACT: note_on channel=9 note=36 velocity=126 time=0
EXTRACT: note_on channel=9 note=42 velocity=117 time=0
EXTRACT: note_on channel=9 note=70 velocity=106 time=0
EXTRACT: note_on channel=13 note=62 velocity=57 time=0
EXTRACT: note_on channel=13 note=65 velocity=53 time=0
EXTRACT: note_on channel=13 note=74 velocity=46 time=0.002
EXTRACT: note_on channel=13 note=69 velocity=62 time=0.003
EXTRACT: note_on channel=3 note=79 velocity=116 time=0
EXTRACT: note_on channel=6 note=74 velocity=77 time=0
EXTRACT: note_on channel=11 note=86 velocity=85 time=0
EXTRACT: note_on channel=14 note=74 velocity=85 time=0
EXTRACT: note_on channel=10 note=65 velocity=95 time=0.002
EXTRACT: note_on channel=10 note=69 velocity=100 time=0
EXTRACT: note_off channel=14 note=77 velocity=65 time=0.004
EXTRACT: note_off channel=11 note=89 velocity=65 time=0
EXTRACT: note_off channel=6 note=77 velocity=64 time=0
EXTRACT: note_off channel=9 note=70 velocity=65 time=0.01
EXTRACT: note_off channel=9 note=42 velocity=64 time=0
EXTRACT: note_off channel=9 note=36 velocity=64 time=0
EXTRACT: note_off channel=13 note=77 velocity=64 time=0.005
EXTRACT: note_off channel=5 note=38 velocity=64 time=0.082
EXTRACT: note_off channel=2 note=38 velocity=65 time=0
EXTRACT: note_on channel=2 note=38 velocity=75 time=0.009000000000000001
EXTRACT: note_on channel=5 note=38 velocity=62 time=0
EXTRACT: note_off channel=3 note=79 velocity=64 time=0.069
EXTRACT: note_off channel=1 note=26 velocity=65 time=0.015
EXTRACT: note_off channel=5 note=38 velocity=64 time=0.027
EXTRACT: note_off channel=2 note=38 velocity=65 time=0
EXTRACT: note_off channel=4 note=62 velocity=65 time=0.003
EXTRACT: note_on channel=1 note=38 velocity=123 time=0.006
EXTRACT: note_on channel=2 note=50 velocity=124 time=0
EXTRACT: note_on channel=4 note=60 velocity=1 time=0
EXTRACT: note_on channel=5 note=38 velocity=113 time=0
EXTRACT: note_on channel=9 note=46 velocity=105 time=0
EXTRACT: note_on channel=9 note=70 velocity=107 time=0
EXTRACT: note_on channel=3 note=77 velocity=116 time=0
EXTRACT: note_off channel=9 note=70 velocity=65 time=0.006
EXTRACT: note_off channel=9 note=46 velocity=64 time=0
EXTRACT: note_off channel=5 note=38 velocity=65 time=0.08700000000000001
EXTRACT: note_off channel=2 note=50 velocity=64 time=0
EXTRACT: note_off channel=1 note=38 velocity=64 time=0.003
EXTRACT: note_on channel=2 note=50 velocity=125 time=0.006
EXTRACT: note_on channel=5 note=38 velocity=113 time=0
EXTRACT: note_on channel=9 note=70 velocity=86 time=0
EXTRACT: note_off channel=9 note=70 velocity=65 time=0.024
EXTRACT: note_off channel=5 note=38 velocity=64 time=0.08700000000000001
EXTRACT: note_off channel=2 note=50 velocity=64 time=0
EXTRACT: note_on channel=9 note=39 velocity=118 time=0.001
EXTRACT: note_on channel=1 note=26 velocity=122 time=0.008
EXTRACT: note_on channel=2 note=38 velocity=125 time=0
EXTRACT: note_on channel=5 note=38 velocity=112 time=0
EXTRACT: note_on channel=9 note=36 velocity=127 time=0
EXTRACT: note_on channel=9 note=38 velocity=117 time=0
EXTRACT: note_on channel=9 note=42 velocity=117 time=0
EXTRACT: note_on channel=9 note=70 velocity=107 time=0
EXTRACT: note_off channel=9 note=39 velocity=65 time=0.017
EXTRACT: note_off channel=9 note=70 velocity=64 time=0.007
EXTRACT: note_off channel=9 note=42 velocity=65 time=0
EXTRACT: note_off channel=9 note=38 velocity=64 time=0
EXTRACT: note_off channel=9 note=36 velocity=64 time=0
EXTRACT: note_off channel=5 note=38 velocity=65 time=0.08700000000000001
EXTRACT: note_off channel=2 note=38 velocity=65 time=0
EXTRACT: note_on channel=2 note=38 velocity=74 time=0.009000000000000001
EXTRACT: note_on channel=5 note=38 velocity=62 time=0
EXTRACT: note_off channel=3 note=77 velocity=64 time=0.034
EXTRACT: note_off channel=1 note=26 velocity=64 time=0.05
EXTRACT: note_off channel=5 note=38 velocity=65 time=0.027
EXTRACT: note_off channel=2 note=38 velocity=65 time=0
EXTRACT: note_off channel=4 note=60 velocity=64 time=0.003
EXTRACT: note_on channel=1 note=38 velocity=122 time=0.006
EXTRACT: note_on channel=2 note=50 velocity=125 time=0
EXTRACT: note_on channel=4 note=60 velocity=1 time=0
EXTRACT: note_on channel=5 note=38 velocity=113 time=0
EXTRACT: note_on channel=9 note=42 velocity=114 time=0
EXTRACT: note_on channel=9 note=70 velocity=107 time=0
EXTRACT: note_on channel=3 note=77 velocity=117 time=0
EXTRACT: note_off channel=9 note=70 velocity=65 time=0.011
EXTRACT: note_off channel=9 note=42 velocity=65 time=0
EXTRACT: note_off channel=5 note=38 velocity=64 time=0.08700000000000001
EXTRACT: note_off channel=2 note=50 velocity=64 time=0
EXTRACT: note_off channel=1 note=38 velocity=65 time=0.003
EXTRACT: note_on channel=2 note=50 velocity=124 time=0.006
EXTRACT: note_on channel=5 note=38 velocity=113 time=0
EXTRACT: note_on channel=9 note=44 velocity=98 time=0
EXTRACT: note_on channel=9 note=70 velocity=86 time=0
EXTRACT: note_off channel=9 note=70 velocity=64 time=0.024
EXTRACT: note_off channel=9 note=44 velocity=64 time=0
EXTRACT: control_change channel=6 control=98 value=33 time=0.016
EXTRACT: note_off channel=3 note=77 velocity=65 time=0.034
EXTRACT: note_off channel=5 note=38 velocity=65 time=0.037
EXTRACT: note_off channel=2 note=50 velocity=64 time=0
EXTRACT: note_off channel=4 note=60 velocity=65 time=0
EXTRACT: note_off channel=4 note=57 velocity=65 time=0.003
EXTRACT: note_on channel=1 note=26 velocity=123 time=0.006
EXTRACT: note_on channel=2 note=38 velocity=124 time=0
EXTRACT: note_on channel=4 note=55 velocity=1 time=0
EXTRACT: note_on channel=5 note=38 velocity=112 time=0
EXTRACT: note_on channel=9 note=36 velocity=127 time=0
EXTRACT: note_on channel=9 note=42 velocity=118 time=0
EXTRACT: note_on channel=9 note=70 velocity=107 time=0
EXTRACT: note_on channel=3 note=72 velocity=117 time=0
EXTRACT: note_off channel=9 note=70 velocity=65 time=0.012
EXTRACT: note_off channel=9 note=42 velocity=65 time=0
EXTRACT: note_off channel=9 note=36 velocity=64 time=0
EXTRACT: note_off channel=5 note=38 velocity=64 time=0.039
EXTRACT: note_off channel=2 note=38 velocity=65 time=0
EXTRACT: note_on channel=2 note=38 velocity=75 time=0.009000000000000001
EXTRACT: note_on channel=5 note=38 velocity=62 time=0
EXTRACT: note_off channel=14 note=74 velocity=65 time=0.074
EXTRACT: note_off channel=11 note=86 velocity=65 time=0
EXTRACT: note_off channel=6 note=74 velocity=64 time=0
EXTRACT: note_off channel=1 note=26 velocity=65 time=0.01
EXTRACT: note_off channel=5 note=38 velocity=64 time=0.027
EXTRACT: note_off channel=2 note=38 velocity=64 time=0
EXTRACT: note_off channel=4 note=55 velocity=64 time=0
EXTRACT: pitchwheel channel=3 pitch=1737 time=0.004
EXTRACT: note_on channel=1 note=38 velocity=123 time=0.005
EXTRACT: note_on channel=2 note=50 velocity=125 time=0
EXTRACT: note_on channel=4 note=57 velocity=1 time=0
EXTRACT: note_on channel=5 note=38 velocity=113 time=0
EXTRACT: note_on channel=9 note=46 velocity=106 time=0
EXTRACT: note_on channel=9 note=70 velocity=106 time=0
EXTRACT: pitchwheel channel=3 pitch=6408 time=0.01
EXTRACT: note_on channel=6 note=74 velocity=66 time=0.011
EXTRACT: note_on channel=11 note=86 velocity=72 time=0
EXTRACT: note_on channel=14 note=74 velocity=72 time=0
EXTRACT: pitchwheel channel=3 pitch=8063 time=0.002
EXTRACT: note_off channel=9 note=70 velocity=64 time=0.001
EXTRACT: note_off channel=9 note=46 velocity=65 time=0
EXTRACT: note_on channel=6 note=77 velocity=82 time=0.07200000000000001
EXTRACT: note_on channel=11 note=89 velocity=74 time=0
EXTRACT: note_on channel=14 note=77 velocity=75 time=0
EXTRACT: note_off channel=5 note=38 velocity=65 time=0.015
EXTRACT: note_off channel=2 note=50 velocity=65 time=0
EXTRACT: note_off channel=14 note=74 velocity=64 time=0.003
EXTRACT: note_off channel=11 note=86 velocity=64 time=0
EXTRACT: note_off channel=6 note=74 velocity=65 time=0
EXTRACT: note_off channel=1 note=38 velocity=64 time=0
EXTRACT: note_on channel=2 note=50 velocity=124 time=0.006
EXTRACT: note_on channel=5 note=38 velocity=112 time=0
EXTRACT: note_on channel=9 note=70 velocity=86 time=0
EXTRACT: note_off channel=9 note=70 velocity=64 time=0.024
EXTRACT: note_on channel=6 note=81 velocity=83 time=0.028
EXTRACT: note_on channel=11 note=93 velocity=91 time=0
EXTRACT: note_on channel=14 note=81 velocity=90 time=0
EXTRACT: note_off channel=14 note=77 velocity=64 time=0.022
EXTRACT: note_off channel=11 note=89 velocity=64 time=0
EXTRACT: note_off channel=6 note=77 velocity=65 time=0
EXTRACT: control_change channel=9 control=91 value=30 time=0.016
EXTRACT: note_off channel=5 note=38 velocity=65 time=0.021
EXTRACT: note_off channel=2 note=50 velocity=65 time=0
EXTRACT: note_on channel=9 note=39 velocity=119 time=0.001
EXTRACT: note_on channel=1 note=26 velocity=122 time=0.008
EXTRACT: note_on channel=2 note=38 velocity=124 time=0
EXTRACT: note_on channel=5 note=38 velocity=113 time=0
EXTRACT: note_on channel=9 note=36 velocity=126 time=0
EXTRACT: note_on channel=9 note=38 velocity=117 time=0
EXTRACT: note_on channel=9 note=42 velocity=123 time=0
EXTRACT: note_on channel=9 note=70 velocity=107 time=0
EXTRACT: note_on channel=6 note=86 velocity=85 time=0.001
EXTRACT: note_on channel=11 note=98 velocity=83 time=0
EXTRACT: note_on channel=14 note=86 velocity=82 time=0
EXTRACT: note_off channel=3 note=72 velocity=65 time=0.013000000000000001
EXTRACT: note_off channel=9 note=39 velocity=65 time=0.003
EXTRACT: note_off channel=9 note=70 velocity=65 time=0.007
EXTRACT: note_off channel=9 note=42 velocity=64 time=0
EXTRACT: note_off channel=9 note=38 velocity=65 time=0
EXTRACT: note_off channel=9 note=36 velocity=64 time=0
EXTRACT: note_off channel=14 note=81 velocity=65 time=0
EXTRACT: note_off channel=11 note=93 velocity=65 time=0
EXTRACT: note_off channel=6 note=81 velocity=64 time=0
EXTRACT: note_off channel=5 note=38 velocity=64 time=0.08700000000000001
EXTRACT: note_off channel=2 note=38 velocity=64 time=0
EXTRACT: note_on channel=2 note=38 velocity=75 time=0.009000000000000001
EXTRACT: note_on channel=5 note=38 velocity=63 time=0
EXTRACT: pitchwheel channel=3 pitch=128 time=0.002
EXTRACT: note_off channel=14 note=86 velocity=64 time=0.032
EXTRACT: note_off channel=11 note=98 velocity=64 time=0
EXTRACT: note_off channel=6 note=86 velocity=64 time=0
EXTRACT: note_on channel=12 note=75 velocity=126 time=0.014
EXTRACT: note_on channel=12 note=78 velocity=127 time=0.001
EXTRACT: note_off channel=1 note=26 velocity=64 time=0.035
EXTRACT: note_off channel=5 note=38 velocity=64 time=0.027
EXTRACT: note_off channel=2 note=38 velocity=65 time=0
EXTRACT: note_on channel=6 note=86 velocity=82 time=0.002
EXTRACT: note_on channel=11 note=98 velocity=88 time=0
EXTRACT: note_on channel=14 note=86 velocity=89 time=0
EXTRACT: note_on channel=1 note=38 velocity=122 time=0.007
EXTRACT: note_on channel=2 note=50 velocity=125 time=0
EXTRACT: note_on channel=5 note=38 velocity=112 time=0
EXTRACT: note_on channel=9 note=42 velocity=122 time=0
EXTRACT: note_on channel=9 note=70 velocity=107 time=0
EXTRACT: note_off channel=9 note=70 velocity=64 time=0.024
EXTRACT: note_off channel=9 note=42 velocity=65 time=0
EXTRACT: note_on channel=6 note=81 velocity=80 time=0.032
EXTRACT: note_on channel=11 note=93 velocity=84 time=0
EXTRACT: note_on channel=14 note=81 velocity=85 time=0
EXTRACT: note_off channel=14 note=86 velocity=65 time=0.008
EXTRACT: note_off channel=11 note=98 velocity=65 time=0
EXTRACT: note_off channel=6 note=86 velocity=65 time=0
EXTRACT: note_off channel=5 note=38 velocity=65 time=0.047
EXTRACT: note_off channel=2 note=50 velocity=64 time=0
EXTRACT: note_off channel=1 note=38 velocity=65 time=0.003
EXTRACT: note_off channel=13 note=69 velocity=65 time=0
EXTRACT: note_on channel=2 note=50 velocity=124 time=0.006
EXTRACT: note_on channel=5 note=38 velocity=113 time=0
EXTRACT: note_on channel=9 note=44 velocity=99 time=0
EXTRACT: note_on channel=9 note=70 velocity=86 time=0
EXTRACT: note_off channel=10 note=65 velocity=65 time=0.015
EXTRACT: note_off channel=10 note=69 velocity=64 time=0.006
EXTRACT: note_off channel=9 note=70 velocity=65 time=0.003
EXTRACT: note_off channel=9 note=44 velocity=64 time=0
EXTRACT: note_off channel=14 note=81 velocity=65 time=0.01
EXTRACT: note_off channel=11 note=93 velocity=65 time=0
EXTRACT: note_off channel=6 note=81 velocity=64 time=0
EXTRACT: note_on channel=6 note=77 velocity=81 time=0.003
EXTRACT: note_on channel=11 note=89 velocity=83 time=0
EXTRACT: note_on channel=14 note=77 velocity=82 time=0
EXTRACT: note_off channel=13 note=62 velocity=65 time=0.017
EXTRACT: note_off channel=13 note=74 velocity=64 time=0.02
EXTRACT: note_off channel=13 note=65 velocity=64 time=0
EXTRACT: note_off channel=12 note=75 velocity=64 time=0.003
EXTRACT: note_off channel=12 note=78 velocity=65 time=0.001
EXTRACT: note_off channel=14 note=77 velocity=64 time=0.026000000000000002
EXTRACT: note_off channel=11 note=89 velocity=64 time=0
EXTRACT: note_off channel=6 note=77 velocity=65 time=0
EXTRACT: note_off channel=5 note=38 velocity=65 time=0.007
EXTRACT: note_off channel=2 note=50 velocity=64 time=0
EXTRACT: note_off channel=4 note=57 velocity=65 time=0
EXTRACT: note_on channel=1 note=26 velocity=123 time=0.009000000000000001
EXTRACT: note_on channel=2 note=38 velocity=124 time=0
EXTRACT: note_on channel=4 note=60 velocity=1 time=0
EXTRACT: note_on channel=4 note=64 velocity=1 time=0
EXTRACT: note_on channel=5 note=38 velocity=112 time=0
EXTRACT: note_on channel=9 note=36 velocity=126 time=0
EXTRACT: note_on channel=9 note=42 velocity=127 time=0
EXTRACT: note_on channel=9 note=70 velocity=106 time=0
EXTRACT: note_on channel=13 note=62 velocity=57 time=0
EXTRACT: note_on channel=13 note=65 velocity=52 time=0
EXTRACT: note_on channel=13 note=74 velocity=47 time=0.002
EXTRACT: note_on channel=13 note=69 velocity=63 time=0.003
EXTRACT: note_on channel=6 note=74 velocity=72 time=0.002
EXTRACT: note_on channel=11 note=86 velocity=79 time=0
EXTRACT: note_on channel=14 note=74 velocity=78 time=0
EXTRACT: note_on channel=10 note=62 velocity=98 time=0.003
EXTRACT: note_on channel=10 note=65 velocity=99 time=0
EXTRACT: note_on channel=3 note=79 velocity=116 time=0
EXTRACT: note_off channel=9 note=70 velocity=64 time=0.007
EXTRACT: note_off channel=9 note=42 velocity=65 time=0
EXTRACT: note_off channel=9 note=36 velocity=65 time=0
EXTRACT: note_off channel=5 note=38 velocity=64 time=0.08700000000000001
EXTRACT: note_off channel=2 note=38 velocity=65 time=0
EXTRACT: note_on channel=2 note=38 velocity=75 time=0.009000000000000001
EXTRACT: note_on channel=5 note=38 velocity=72 time=0
EXTRACT: note_off channel=1 note=26 velocity=64 time=0.084
EXTRACT: note_off channel=5 note=38 velocity=64 time=0.027
EXTRACT: note_off channel=2 note=38 velocity=65 time=0
EXTRACT: note_off channel=4 note=64 velocity=64 time=0
EXTRACT: note_off channel=4 note=60 velocity=64 time=0
EXTRACT: note_on channel=1 note=38 velocity=122 time=0.009000000000000001
EXTRACT: note_on channel=2 note=50 velocity=124 time=0
EXTRACT: note_on channel=4 note=62 velocity=1 time=0
EXTRACT: note_on channel=4 note=65 velocity=1 time=0
EXTRACT: note_on channel=5 note=38 velocity=113 time=0
EXTRACT: note_on channel=9 note=46 velocity=113 time=0
EXTRACT: note_on channel=9 note=70 velocity=107 time=0
EXTRACT: note_on channel=3 note=81 velocity=116 time=0
EXTRACT: note_off channel=3 note=79 velocity=64 time=0.007
EXTRACT: note_off channel=9 note=70 velocity=64 time=0.014
EXTRACT: note_off channel=9 note=46 velocity=64 time=0
EXTRACT: note_off channel=5 note=38 velocity=65 time=0.08700000000000001
EXTRACT: note_off channel=2 note=50 velocity=64 time=0
EXTRACT: note_on channel=2 note=50 velocity=125 time=0.009000000000000001
EXTRACT: note_on channel=5 note=38 velocity=113 time=0
EXTRACT: note_on channel=9 note=70 velocity=87 time=0
EXTRACT: note_off channel=9 note=70 velocity=65 time=0.024
EXTRACT: note_off channel=1 note=38 velocity=65 time=0.075
EXTRACT: note_off channel=5 note=38 velocity=64 time=0.012
EXTRACT: note_off channel=2 note=50 velocity=64 time=0
EXTRACT: note_on channel=9 note=39 velocity=118 time=0.001
EXTRACT: note_on channel=1 note=26 velocity=123 time=0.008
EXTRACT: note_on channel=2 note=38 velocity=125 time=0
EXTRACT: note_on channel=4 note=60 velocity=1 time=0
EXTRACT: note_on channel=4 note=64 velocity=1 time=0
EXTRACT: note_on channel=5 note=38 velocity=112 time=0
EXTRACT: note_on channel=9 note=36 velocity=127 time=0
EXTRACT: note_on channel=9 note=38 velocity=116 time=0
EXTRACT: note_on channel=9 note=42 velocity=119 time=0
EXTRACT: note_on channel=9 note=70 velocity=106 time=0
EXTRACT: note_off channel=4 note=65 velocity=65 time=0.006
EXTRACT: note_off channel=4 note=62 velocity=65 time=0
EXTRACT: note_off channel=3 note=81 velocity=64 time=0.003
EXTRACT: note_off channel=9 note=39 velocity=64 time=0.008
EXTRACT: note_off channel=9 note=70 velocity=65 time=0.007
EXTRACT: note_off channel=9 note=42 velocity=65 time=0
EXTRACT: note_off channel=9 note=38 velocity=64 time=0
EXTRACT: note_off channel=9 note=36 velocity=65 time=0
EXTRACT: note_on channel=3 note=79 velocity=117 time=0
EXTRACT: note_off channel=5 note=38 velocity=65 time=0.083
EXTRACT: note_off channel=2 note=38 velocity=65 time=0
EXTRACT: note_on channel=2 note=38 velocity=74 time=0.009000000000000001
EXTRACT: note_on channel=5 note=38 velocity=72 time=0
EXTRACT: note_off channel=1 note=26 velocity=65 time=0.069
EXTRACT: note_off channel=3 note=79 velocity=65 time=0.038
EXTRACT: note_off channel=5 note=38 velocity=65 time=0.004
EXTRACT: note_off channel=2 note=38 velocity=65 time=0
EXTRACT: note_off channel=4 note=64 velocity=64 time=0
EXTRACT: note_off channel=4 note=60 velocity=64 time=0
EXTRACT: note_on channel=1 note=38 velocity=123 time=0.009000000000000001
EXTRACT: note_on channel=2 note=50 velocity=125 time=0
EXTRACT: note_on channel=4 note=62 velocity=1 time=0
EXTRACT: note_on channel=4 note=65 velocity=1 time=0
EXTRACT: note_on channel=5 note=38 velocity=113 time=0
EXTRACT: note_on channel=9 note=42 velocity=116 time=0
EXTRACT: note_on channel=9 note=70 velocity=106 time=0
EXTRACT: note_on channel=3 note=81 velocity=116 time=0
EXTRACT: note_off channel=9 note=70 velocity=64 time=0.016
EXTRACT: note_off channel=9 note=42 velocity=64 time=0
EXTRACT: control_change channel=6 control=6 value=60 time=0.056
EXTRACT: note_off channel=5 note=38 velocity=64 time=0.031
EXTRACT: note_off channel=2 note=50 velocity=64 time=0
EXTRACT: note_on channel=2 note=50 velocity=124 time=0.009000000000000001
EXTRACT: note_on channel=5 note=38 velocity=113 time=0
EXTRACT: note_on channel=9 note=44 velocity=98 time=0
EXTRACT: note_on channel=9 note=70 velocity=87 time=0
EXTRACT: control_change channel=13 control=6 value=52 time=0
EXTRACT: note_off channel=9 note=70 velocity=65 time=0.024
EXTRACT: note_off channel=9 note=44 velocity=65 time=0
EXTRACT: note_off channel=3 note=81 velocity=64 time=0.032
EXTRACT: note_off channel=1 note=38 velocity=64 time=0.043000000000000003
EXTRACT: pitchwheel channel=3 pitch=-8070 time=0.004
EXTRACT: note_off channel=5 note=38 velocity=65 time=0.008
EXTRACT: note_off channel=2 note=50 velocity=64 time=0
EXTRACT: note_off channel=4 note=65 velocity=65 time=0
EXTRACT: note_off channel=4 note=62 velocity=65 time=0
EXTRACT: note_on channel=1 note=26 velocity=122 time=0.009000000000000001
EXTRACT: note_on channel=2 note=38 velocity=124 time=0
EXTRACT: note_on channel=4 note=62 velocity=1 time=0
EXTRACT: note_on channel=4 note=65 velocity=1 time=0
EXTRACT: note_on channel=5 note=38 velocity=112 time=0
EXTRACT: note_on channel=9 note=36 velocity=126 time=0
EXTRACT: note_on channel=9 note=42 velocity=125 time=0
EXTRACT: note_on channel=9 note=70 velocity=106 time=0
EXTRACT: note_on channel=3 note=81 velocity=117 time=0
EXTRACT: note_off channel=9 note=70 velocity=64 time=0.021
EXTRACT: note_off channel=9 note=42 velocity=64 time=0
EXTRACT: note_off channel=9 note=36 velocity=65 time=0
EXTRACT: note_off channel=5 note=38 velocity=64 time=0.078
EXTRACT: note_off channel=2 note=38 velocity=65 time=0
EXTRACT: pitchwheel channel=3 pitch=-6150 time=0.002
EXTRACT: note_off channel=6 note=74 velocity=65 time=0.001
EXTRACT: note_on channel=2 note=38 velocity=75 time=0.006
EXTRACT: note_on channel=5 note=38 velocity=72 time=0
EXTRACT: pitchwheel channel=3 pitch=-4870 time=0.003
EXTRACT: pitchwheel channel=3 pitch=-3718 time=0.01
EXTRACT: pitchwheel channel=3 pitch=-2566 time=0.01
EXTRACT: pitchwheel channel=3 pitch=-1286 time=0.01
EXTRACT: pitchwheel channel=3 pitch=122 time=0.02
EXTRACT: note_off channel=14 note=74 velocity=65 time=0.001
EXTRACT: note_off channel=11 note=86 velocity=65 time=0
EXTRACT: note_off channel=1 note=26 velocity=65 time=0.045
EXTRACT: note_off channel=5 note=38 velocity=64 time=0.012
EXTRACT: note_off channel=2 note=38 velocity=64 time=0
EXTRACT: note_on channel=1 note=38 velocity=123 time=0.009000000000000001
EXTRACT: note_on channel=2 note=50 velocity=125 time=0
EXTRACT: note_on channel=5 note=38 velocity=113 time=0
EXTRACT: note_on channel=9 note=46 velocity=110 time=0
EXTRACT: note_on channel=9 note=70 velocity=107 time=0
EXTRACT: note_on channel=6 note=74 velocity=73 time=0.001
EXTRACT: note_on channel=11 note=86 velocity=76 time=0
EXTRACT: note_on channel=14 note=74 velocity=77 time=0
EXTRACT: note_off channel=9 note=70 velocity=65 time=0.023
EXTRACT: note_off channel=9 note=46 velocity=64 time=0
EXTRACT: note_on channel=6 note=77 velocity=83 time=0.052000000000000005
EXTRACT: note_on channel=11 note=89 velocity=88 time=0
EXTRACT: note_on channel=14 note=77 velocity=89 time=0
EXTRACT: note_off channel=14 note=74 velocity=64 time=0.018000000000000002
EXTRACT: note_off channel=11 note=86 velocity=64 time=0
EXTRACT: note_off channel=6 note=74 velocity=64 time=0
EXTRACT: note_off channel=5 note=38 velocity=65 time=0.017
EXTRACT: note_off channel=2 note=50 velocity=65 time=0
EXTRACT: note_on channel=2 note=50 velocity=124 time=0.009000000000000001
EXTRACT: note_on channel=5 note=38 velocity=112 time=0
EXTRACT: note_on channel=9 note=70 velocity=87 time=0
EXTRACT: note_off channel=9 note=70 velocity=64 time=0.024
EXTRACT: note_on channel=6 note=81 velocity=62 time=0.008
EXTRACT: note_on channel=11 note=93 velocity=79 time=0
EXTRACT: note_on channel=14 note=81 velocity=78 time=0
EXTRACT: note_off channel=3 note=81 velocity=65 time=0.017
EXTRACT: note_off channel=14 note=77 velocity=64 time=0.005
EXTRACT: note_off channel=11 note=89 velocity=64 time=0
EXTRACT: note_off channel=6 note=77 velocity=65 time=0
EXTRACT: note_off channel=1 note=38 velocity=64 time=0.03
EXTRACT: note_on channel=6 note=86 velocity=73 time=0.017
EXTRACT: note_on channel=11 note=98 velocity=82 time=0
EXTRACT: note_on channel=14 note=86 velocity=82 time=0
EXTRACT: note_on channel=3 note=79 velocity=117 time=0
EXTRACT: note_off channel=5 note=38 velocity=65 time=0
EXTRACT: note_off channel=2 note=50 velocity=65 time=0
EXTRACT: note_off channel=4 note=65 velocity=64 time=0
EXTRACT: note_off channel=4 note=62 velocity=64 time=0
EXTRACT: note_on channel=9 note=39 velocity=118 time=0.001
EXTRACT: note_on channel=1 note=26 velocity=122 time=0.008
EXTRACT: note_on channel=2 note=38 velocity=124 time=0
EXTRACT: note_on channel=4 note=60 velocity=1 time=0
EXTRACT: note_on channel=4 note=64 velocity=1 time=0
EXTRACT: note_on channel=5 note=38 velocity=113 time=0
EXTRACT: note_on channel=9 note=36 velocity=127 time=0
EXTRACT: note_on channel=9 note=38 velocity=116 time=0
EXTRACT: note_on channel=9 note=42 velocity=98 time=0
EXTRACT: note_on channel=9 note=70 velocity=106 time=0
EXTRACT: note_off channel=14 note=81 velocity=65 time=0.004
EXTRACT: note_off channel=11 note=93 velocity=65 time=0
EXTRACT: note_off channel=6 note=81 velocity=64 time=0
EXTRACT: note_off channel=9 note=39 velocity=65 time=0.013000000000000001
EXTRACT: note_off channel=9 note=70 velocity=64 time=0.007
EXTRACT: note_off channel=9 note=42 velocity=65 time=0
EXTRACT: note_off channel=9 note=38 velocity=65 time=0
EXTRACT: note_off channel=9 note=36 velocity=64 time=0
EXTRACT: note_off channel=5 note=38 velocity=64 time=0.08700000000000001
EXTRACT: note_off channel=2 note=38 velocity=64 time=0
EXTRACT: note_on channel=2 note=38 velocity=75 time=0.009000000000000001
EXTRACT: note_on channel=5 note=38 velocity=73 time=0
EXTRACT: note_off channel=1 note=26 velocity=64 time=0.084
EXTRACT: note_off channel=3 note=79 velocity=65 time=0.002
EXTRACT: note_on channel=6 note=81 velocity=74 time=0.02
EXTRACT: note_on channel=11 note=93 velocity=77 time=0
EXTRACT: note_on channel=14 note=81 velocity=77 time=0
EXTRACT: note_on channel=3 note=77 velocity=116 time=0
EXTRACT: note_on channel=12 note=75 velocity=126 time=0
EXTRACT: note_on channel=12 note=78 velocity=127 time=0.001
EXTRACT: note_off channel=5 note=38 velocity=64 time=0.002
EXTRACT: note_off channel=2 note=38 velocity=65 time=0
EXTRACT: note_off channel=4 note=64 velocity=65 time=0
EXTRACT: note_off channel=4 note=60 velocity=64 time=0
EXTRACT: note_on channel=1 note=38 velocity=122 time=0.009000000000000001
EXTRACT: note_on channel=2 note=50 velocity=125 time=0
EXTRACT: note_on channel=4 note=57 velocity=1 time=0
EXTRACT: note_on channel=4 note=62 velocity=1 time=0
EXTRACT: note_on channel=5 note=38 velocity=112 time=0
EXTRACT: note_on channel=9 note=42 velocity=114 time=0
EXTRACT: note_on channel=9 note=70 velocity=107 time=0
EXTRACT: note_off channel=14 note=86 velocity=65 time=0.004
EXTRACT: note_off channel=11 note=98 velocity=65 time=0
EXTRACT: note_off channel=6 note=86 velocity=64 time=0
EXTRACT: note_off channel=9 note=70 velocity=65 time=0.02
EXTRACT: note_off channel=9 note=42 velocity=64 time=0
EXTRACT: note_off channel=5 note=38 velocity=65 time=0.08700000000000001
EXTRACT: note_off channel=2 note=50 velocity=64 time=0
EXTRACT: note_off channel=14 note=81 velocity=64 time=0.003
EXTRACT: note_off channel=11 note=93 velocity=64 time=0
EXTRACT: note_off channel=6 note=81 velocity=65 time=0
EXTRACT: note_on channel=6 note=77 velocity=72 time=0.003
EXTRACT: note_on channel=11 note=89 velocity=81 time=0
EXTRACT: note_on channel=14 note=77 velocity=80 time=0
EXTRACT: note_on channel=2 note=50 velocity=124 time=0.003
EXTRACT: note_on channel=5 note=38 velocity=113 time=0
EXTRACT: note_on channel=9 note=44 velocity=99 time=0
EXTRACT: note_on channel=9 note=70 velocity=86 time=0
EXTRACT: note_off channel=9 note=70 velocity=64 time=0.024
EXTRACT: note_off channel=9 note=44 velocity=65 time=0
EXTRACT: control_change channel=14 control=6 value=80 time=0.016
EXTRACT: note_off channel=3 note=77 velocity=64 time=0.009000000000000001
EXTRACT: note_off channel=1 note=38 velocity=65 time=0.035
EXTRACT: note_on channel=3 note=79 velocity=117 time=0
EXTRACT: note_off channel=5 note=38 velocity=65 time=0.001
EXTRACT: note_off channel=2 note=50 velocity=64 time=0
EXTRACT: note_off channel=4 note=62 velocity=65 time=0
EXTRACT: note_off channel=4 note=57 velocity=65 time=0
EXTRACT: note_on channel=6 note=74 velocity=79 time=0.006
EXTRACT: note_on channel=11 note=86 velocity=84 time=0
EXTRACT: note_on channel=14 note=74 velocity=85 time=0
EXTRACT: note_on channel=1 note=26 velocity=123 time=0.003
EXTRACT: note_on channel=2 note=38 velocity=124 time=0
EXTRACT: note_on channel=4 note=60 velocity=1 time=0
EXTRACT: note_on channel=4 note=64 velocity=1 time=0
EXTRACT: note_on channel=5 note=38 velocity=112 time=0
EXTRACT: note_on channel=9 note=36 velocity=127 time=0
EXTRACT: note_on channel=9 note=42 velocity=123 time=0
EXTRACT: note_on channel=9 note=70 velocity=106 time=0
EXTRACT: note_off channel=14 note=77 velocity=64 time=0.014
EXTRACT: note_off channel=11 note=89 velocity=64 time=0
EXTRACT: note_off channel=6 note=77 velocity=65 time=0
EXTRACT: note_off channel=12 note=75 velocity=64 time=0.003
EXTRACT: note_off channel=12 note=78 velocity=65 time=0.001
EXTRACT: note_off channel=9 note=70 velocity=65 time=0.006
EXTRACT: note_off channel=9 note=42 velocity=64 time=0
EXTRACT: note_off channel=9 note=36 velocity=64 time=0
EXTRACT: control_change channel=13 control=6 value=54 time=0.056
EXTRACT: note_off channel=5 note=38 velocity=64 time=0.031
EXTRACT: note_off channel=2 note=38 velocity=65 time=0
EXTRACT: note_on channel=6 note=76 velocity=79 time=0.005
EXTRACT: note_on channel=11 note=88 velocity=85 time=0
EXTRACT: note_on channel=14 note=76 velocity=85 time=0
EXTRACT: note_on channel=2 note=38 velocity=75 time=0.004
EXTRACT: note_on channel=5 note=38 velocity=72 time=0
EXTRACT: note_off channel=14 note=74 velocity=65 time=0.004
EXTRACT: note_off channel=11 note=86 velocity=65 time=0
EXTRACT: note_off channel=6 note=74 velocity=64 time=0
EXTRACT: note_off channel=10 note=62 velocity=64 time=0
EXTRACT: note_off channel=3 note=79 velocity=65 time=0.07100000000000001
EXTRACT: note_off channel=1 note=26 velocity=65 time=0.009000000000000001
EXTRACT: note_off channel=5 note=38 velocity=64 time=0.027
EXTRACT: note_off channel=2 note=38 velocity=65 time=0
EXTRACT: note_off channel=4 note=64 velocity=64 time=0
EXTRACT: note_off channel=4 note=60 velocity=65 time=0
EXTRACT: note_off channel=13 note=69 velocity=65 time=0.003
EXTRACT: note_off channel=13 note=74 velocity=64 time=0
EXTRACT: note_off channel=13 note=65 velocity=65 time=0
EXTRACT: note_off channel=13 note=62 velocity=65 time=0
EXTRACT: note_on channel=6 note=77 velocity=74 time=0.004
EXTRACT: note_on channel=11 note=89 velocity=92 time=0
EXTRACT: note_on channel=14 note=77 velocity=92 time=0
EXTRACT: note_on channel=1 note=28 velocity=123 time=0
EXTRACT: note_on channel=2 note=52 velocity=124 time=0
EXTRACT: note_on channel=3 note=81 velocity=116 time=0
EXTRACT: note_on channel=4 note=60 velocity=1 time=0
EXTRACT: note_on channel=4 note=65 velocity=1 time=0
EXTRACT: note_on channel=5 note=40 velocity=113 time=0
EXTRACT: note_on channel=9 note=46 velocity=104 time=0
EXTRACT: note_on channel=9 note=70 velocity=107 time=0
EXTRACT: note_on channel=13 note=64 velocity=80 time=0
EXTRACT: control_change channel=6 control=6 value=57 time=0
EXTRACT: note_off channel=10 note=65 velocity=65 time=0.004
EXTRACT: note_off channel=14 note=76 velocity=65 time=0.001
EXTRACT: note_off channel=11 note=88 velocity=65 time=0
EXTRACT: note_off channel=6 note=76 velocity=64 time=0
EXTRACT: note_on channel=10 note=64 velocity=91 time=0.005
EXTRACT: note_on channel=10 note=67 velocity=78 time=0
EXTRACT: note_on channel=13 note=67 velocity=65 time=0.002
EXTRACT: note_on channel=13 note=71 velocity=62 time=0.008
EXTRACT: note_off channel=9 note=70 velocity=65 time=0.004
EXTRACT: note_off channel=9 note=46 velocity=65 time=0
EXTRACT: note_off channel=5 note=40 velocity=65 time=0.08700000000000001
EXTRACT: note_off channel=2 note=52 velocity=64 time=0
EXTRACT: note_on channel=2 note=52 velocity=125 time=0.009000000000000001
EXTRACT: note_on channel=5 note=40 velocity=113 time=0
EXTRACT: note_on channel=9 note=70 velocity=87 time=0
EXTRACT: note_on channel=6 note=79 velocity=74 time=0.001
EXTRACT: note_on channel=11 note=91 velocity=82 time=0
EXTRACT: note_on channel=14 note=79 velocity=83 time=0
EXTRACT: note_off channel=14 note=77 velocity=64 time=0.013000000000000001
EXTRACT: note_off channel=11 note=89 velocity=64 time=0
EXTRACT: note_off channel=6 note=77 velocity=65 time=0
EXTRACT: note_off channel=9 note=70 velocity=64 time=0.01
EXTRACT: note_off channel=1 note=28 velocity=64 time=0.045
EXTRACT: note_off channel=13 note=64 velocity=64 time=0.006
EXTRACT: note_on channel=6 note=81 velocity=77 time=0.022
EXTRACT: note_on channel=11 note=93 velocity=87 time=0
EXTRACT: note_on channel=14 note=81 velocity=86 time=0
EXTRACT: note_off channel=5 note=40 velocity=64 time=0.014
EXTRACT: note_off channel=2 note=52 velocity=64 time=0
EXTRACT: note_on channel=9 note=39 velocity=119 time=0.001
EXTRACT: note_off channel=13 note=71 velocity=65 time=0.002
EXTRACT: note_off channel=13 note=67 velocity=64 time=0
EXTRACT: note_on channel=1 note=29 velocity=122 time=0.006
EXTRACT: note_on channel=2 note=41 velocity=125 time=0
EXTRACT: note_on channel=5 note=41 velocity=112 time=0
EXTRACT: note_on channel=9 note=36 velocity=126 time=0
EXTRACT: note_on channel=9 note=38 velocity=117 time=0
EXTRACT: note_on channel=9 note=42 velocity=111 time=0
EXTRACT: note_on channel=9 note=70 velocity=106 time=0
EXTRACT: note_on channel=13 note=65 velocity=88 time=0
EXTRACT: note_off channel=14 note=79 velocity=64 time=0.002
EXTRACT: note_off channel=11 note=91 velocity=64 time=0
EXTRACT: note_off channel=6 note=79 velocity=65 time=0
EXTRACT: note_off channel=10 note=67 velocity=65 time=0.002
EXTRACT: note_off channel=10 note=64 velocity=64 time=0.002
EXTRACT: note_on channel=10 note=65 velocity=104 time=0.004
EXTRACT: note_on channel=10 note=69 velocity=87 time=0
EXTRACT: note_on channel=13 note=69 velocity=35 time=0.007
EXTRACT: note_on channel=13 note=72 velocity=81 time=0
EXTRACT: note_off channel=9 note=39 velocity=64 time=0
EXTRACT: note_off channel=9 note=70 velocity=65 time=0.007
EXTRACT: note_off channel=9 note=42 velocity=64 time=0
EXTRACT: note_off channel=9 note=38 velocity=65 time=0
EXTRACT: note_off channel=9 note=36 velocity=65 time=0
EXTRACT: note_off channel=3 note=81 velocity=64 time=0.05
EXTRACT: note_off channel=5 note=41 velocity=65 time=0.037
EXTRACT: note_off channel=2 note=41 velocity=65 time=0
EXTRACT: note_on channel=2 note=41 velocity=74 time=0.009000000000000001
EXTRACT: note_on channel=5 note=41 velocity=72 time=0
EXTRACT: note_off channel=1 note=29 velocity=64 time=0.084
EXTRACT: note_off channel=5 note=41 velocity=65 time=0.027
EXTRACT: note_off channel=2 note=41 velocity=65 time=0
EXTRACT: note_off channel=4 note=65 velocity=64 time=0
EXTRACT: note_off channel=4 note=60 velocity=64 time=0
EXTRACT: note_on channel=1 note=41 velocity=122 time=0.009000000000000001
EXTRACT: note_on channel=2 note=53 velocity=125 time=0
EXTRACT: note_on channel=4 note=60 velocity=1 time=0
EXTRACT: note_on channel=4 note=65 velocity=1 time=0
EXTRACT: note_on channel=5 note=41 velocity=113 time=0
EXTRACT: note_on channel=9 note=42 velocity=124 time=0
EXTRACT: note_on channel=9 note=70 velocity=106 time=0
EXTRACT: note_on channel=3 note=81 velocity=116 time=0
EXTRACT: note_off channel=9 note=70 velocity=64 time=0.009000000000000001
EXTRACT: note_off channel=9 note=42 velocity=65 time=0
EXTRACT: note_off channel=5 note=41 velocity=64 time=0.08700000000000001
EXTRACT: note_off channel=2 note=53 velocity=64 time=0
EXTRACT: note_on channel=2 note=53 velocity=124 time=0.009000000000000001
EXTRACT: note_on channel=5 note=41 velocity=113 time=0
EXTRACT: note_on channel=9 note=44 velocity=99 time=0
EXTRACT: note_on channel=9 note=70 velocity=87 time=0
EXTRACT: note_off channel=9 note=70 velocity=64 time=0.024
EXTRACT: note_off channel=9 note=44 velocity=64 time=0
EXTRACT: note_off channel=1 note=41 velocity=65 time=0.06
EXTRACT: note_off channel=5 note=41 velocity=65 time=0.027
EXTRACT: note_off channel=2 note=53 velocity=64 time=0
EXTRACT: note_on channel=1 note=29 velocity=123 time=0.009000000000000001
EXTRACT: note_on channel=2 note=41 velocity=124 time=0
EXTRACT: note_on channel=5 note=41 velocity=112 time=0
EXTRACT: note_on channel=9 note=36 velocity=127 time=0
EXTRACT: note_on channel=9 note=42 velocity=124 time=0
EXTRACT: note_on channel=9 note=70 velocity=107 time=0
EXTRACT: note_off channel=9 note=70 velocity=65 time=0.024
EXTRACT: note_off channel=9 note=42 velocity=65 time=0
EXTRACT: note_off channel=9 note=36 velocity=64 time=0
EXTRACT: note_off channel=5 note=41 velocity=64 time=0.08700000000000001
EXTRACT: note_off channel=2 note=41 velocity=65 time=0
EXTRACT: note_on channel=2 note=41 velocity=75 time=0.009000000000000001
EXTRACT: note_on channel=5 note=41 velocity=72 time=0
EXTRACT: note_off channel=3 note=81 velocity=64 time=0.014
EXTRACT: note_off channel=14 note=81 velocity=65 time=0.06
EXTRACT: note_off channel=11 note=93 velocity=65 time=0
EXTRACT: note_off channel=6 note=81 velocity=64 time=0
EXTRACT: note_off channel=1 note=29 velocity=65 time=0.01
EXTRACT: note_off channel=5 note=41 velocity=64 time=0.027
EXTRACT: note_off channel=2 note=41 velocity=64 time=0
EXTRACT: note_off channel=4 note=65 velocity=65 time=0
EXTRACT: note_on channel=1 note=41 velocity=123 time=0.009000000000000001
EXTRACT: note_on channel=2 note=53 velocity=125 time=0
EXTRACT: note_on channel=4 note=57 velocity=1 time=0
EXTRACT: note_on channel=5 note=41 velocity=113 time=0
EXTRACT: note_on channel=9 note=46 velocity=111 time=0
EXTRACT: note_on channel=9 note=70 velocity=106 time=0
EXTRACT: note_on channel=3 note=72 velocity=117 time=0
EXTRACT: note_on channel=6 note=77 velocity=75 time=0.015
EXTRACT: note_on channel=11 note=89 velocity=83 time=0
EXTRACT: note_on channel=14 note=77 velocity=82 time=0
EXTRACT: note_off channel=9 note=70 velocity=64 time=0.003
EXTRACT: note_off channel=9 note=46 velocity=65 time=0
EXTRACT: note_on channel=6 note=81 velocity=54 time=0.059000000000000004
EXTRACT: note_on channel=11 note=93 velocity=76 time=0
EXTRACT: note_on channel=14 note=81 velocity=77 time=0
EXTRACT: note_off channel=5 note=41 velocity=65 time=0.016
EXTRACT: note_off channel=2 note=53 velocity=65 time=0
EXTRACT: note_on channel=2 note=53 velocity=124 time=0.009000000000000001
EXTRACT: note_on channel=5 note=41 velocity=112 time=0
EXTRACT: note_on channel=9 note=70 velocity=86 time=0
EXTRACT: note_off channel=9 note=70 velocity=65 time=0.024
EXTRACT: note_off channel=14 note=77 velocity=64 time=0.01
EXTRACT: note_off channel=11 note=89 velocity=64 time=0
EXTRACT: note_off channel=6 note=77 velocity=64 time=0
EXTRACT: note_on channel=6 note=84 velocity=80 time=0.012
EXTRACT: note_on channel=11 note=96 velocity=84 time=0
EXTRACT: note_on channel=14 note=84 velocity=85 time=0
EXTRACT: note_off channel=14 note=81 velocity=65 time=0.018000000000000002
EXTRACT: note_off channel=11 note=93 velocity=65 time=0
EXTRACT: note_off channel=6 note=81 velocity=65 time=0
EXTRACT: note_off channel=3 note=72 velocity=65 time=0.01
EXTRACT: note_off channel=1 note=41 velocity=64 time=0.01
EXTRACT: note_on channel=6 note=89 velocity=79 time=0.019
EXTRACT: note_on channel=11 note=101 velocity=85 time=0
EXTRACT: note_on channel=14 note=89 velocity=84 time=0
EXTRACT: note_off channel=5 note=41 velocity=65 time=0.008
EXTRACT: note_off channel=2 note=53 velocity=65 time=0
EXTRACT: note_off channel=4 note=57 velocity=65 time=0
EXTRACT: note_on channel=9 note=39 velocity=119 time=0.001
EXTRACT: note_off channel=4 note=60 velocity=64 time=0.002
EXTRACT: note_on channel=1 note=29 velocity=122 time=0.006
EXTRACT: note_on channel=2 note=41 velocity=124 time=0
EXTRACT: note_on channel=4 note=60 velocity=1 time=0
EXTRACT: note_on channel=4 note=65 velocity=1 time=0
EXTRACT: note_on channel=5 note=41 velocity=113 time=0
EXTRACT: note_on channel=9 note=36 velocity=126 time=0
EXTRACT: note_on channel=9 note=38 velocity=116 time=0
EXTRACT: note_on channel=9 note=42 velocity=113 time=0
EXTRACT: note_on channel=9 note=70 velocity=107 time=0
EXTRACT: note_on channel=3 note=81 velocity=117 time=0
EXTRACT: note_off channel=14 note=84 velocity=65 time=0.012
EXTRACT: note_off channel=11 note=96 velocity=65 time=0
EXTRACT: note_off channel=6 note=84 velocity=64 time=0
EXTRACT: note_off channel=9 note=39 velocity=64 time=0.003
EXTRACT: note_off channel=9 note=70 velocity=64 time=0.007
EXTRACT: note_off channel=9 note=42 velocity=65 time=0
EXTRACT: note_off channel=9 note=38 velocity=64 time=0
EXTRACT: note_off channel=9 note=36 velocity=65 time=0
EXTRACT: control_change channel=13 control=6 value=56 time=0.016
EXTRACT: note_off channel=5 note=41 velocity=64 time=0.07100000000000001
EXTRACT: note_off channel=2 note=41 velocity=64 time=0
EXTRACT: note_on channel=2 note=41 velocity=75 time=0.009000000000000001
EXTRACT: note_on channel=5 note=41 velocity=73 time=0
EXTRACT: control_change channel=6 control=6 value=54 time=0
EXTRACT: note_on channel=12 note=76 velocity=127 time=0.077
EXTRACT: note_off channel=1 note=29 velocity=64 time=0.007
EXTRACT: note_on channel=12 note=84 velocity=126 time=0.003
EXTRACT: note_off channel=3 note=81 velocity=65 time=0.007
EXTRACT: note_off channel=14 note=89 velocity=64 time=0
EXTRACT: note_off channel=11 note=101 velocity=64 time=0
EXTRACT: note_off channel=6 note=89 velocity=65 time=0
EXTRACT: note_on channel=6 note=88 velocity=74 time=0.016
EXTRACT: note_on channel=11 note=100 velocity=81 time=0
EXTRACT: note_on channel=14 note=88 velocity=80 time=0
EXTRACT: note_off channel=5 note=41 velocity=64 time=0.001
EXTRACT: note_off channel=2 note=41 velocity=65 time=0
EXTRACT: note_off channel=4 note=65 velocity=64 time=0
EXTRACT: note_off channel=4 note=60 velocity=65 time=0
EXTRACT: note_on channel=1 note=31 velocity=122 time=0.009000000000000001
EXTRACT: note_on channel=2 note=55 velocity=125 time=0
EXTRACT: note_on channel=4 note=60 velocity=1 time=0
EXTRACT: note_on channel=4 note=64 velocity=1 time=0
EXTRACT: note_on channel=5 note=43 velocity=112 time=0
EXTRACT: note_on channel=9 note=42 velocity=109 time=0
EXTRACT: note_on channel=9 note=70 velocity=106 time=0
EXTRACT: note_on channel=13 note=67 velocity=80 time=0
EXTRACT: note_on channel=13 note=71 velocity=64 time=0
EXTRACT: note_off channel=10 note=69 velocity=64 time=0.004
EXTRACT: note_off channel=10 note=65 velocity=65 time=0
EXTRACT: note_on channel=10 note=71 velocity=87 time=0.006
EXTRACT: note_on channel=10 note=67 velocity=86 time=0
EXTRACT: note_off channel=13 note=72 velocity=64 time=0.001
EXTRACT: note_off channel=13 note=69 velocity=65 time=0
EXTRACT: note_off channel=13 note=65 velocity=65 time=0
EXTRACT: note_on channel=13 note=74 velocity=63 time=0.009000000000000001
EXTRACT: note_off channel=9 note=70 velocity=65 time=0.004
EXTRACT: note_off channel=9 note=42 velocity=64 time=0
EXTRACT: note_on channel=3 note=79 velocity=116 time=0
EXTRACT: note_off channel=5 note=43 velocity=65 time=0.046
EXTRACT: note_off channel=2 note=55 velocity=64 time=0
EXTRACT: note_on channel=2 note=55 velocity=124 time=0.009000000000000001
EXTRACT: note_on channel=5 note=43 velocity=113 time=0
EXTRACT: note_on channel=9 note=44 velocity=98 time=0
EXTRACT: note_on channel=9 note=70 velocity=87 time=0
EXTRACT: note_off channel=14 note=88 velocity=65 time=0.004
EXTRACT: note_off channel=11 note=100 velocity=65 time=0
EXTRACT: note_off channel=6 note=88 velocity=65 time=0
EXTRACT: note_on channel=6 note=84 velocity=73 time=0.003
EXTRACT: note_on channel=11 note=96 velocity=78 time=0
EXTRACT: note_on channel=14 note=84 velocity=79 time=0
EXTRACT: note_off channel=9 note=70 velocity=65 time=0.017
EXTRACT: note_off channel=9 note=44 velocity=64 time=0
EXTRACT: note_off channel=1 note=31 velocity=65 time=0.06
EXTRACT: control_change channel=9 control=91 value=20 time=0.006
EXTRACT: note_off channel=12 note=76 velocity=65 time=0.016
EXTRACT: note_off channel=5 note=43 velocity=65 time=0.005
EXTRACT: note_off channel=2 note=55 velocity=64 time=0
EXTRACT: note_off channel=13 note=74 velocity=64 time=0.003
EXTRACT: note_off channel=13 note=71 velocity=64 time=0
EXTRACT: note_off channel=13 note=67 velocity=65 time=0
EXTRACT: note_off channel=12 note=84 velocity=64 time=0.002
EXTRACT: note_on channel=1 note=33 velocity=123 time=0.004
EXTRACT: note_on channel=2 note=45 velocity=124 time=0
EXTRACT: note_on channel=5 note=45 velocity=112 time=0
EXTRACT: note_on channel=9 note=36 velocity=126 time=0
EXTRACT: note_on channel=9 note=42 velocity=124 time=0
EXTRACT: note_on channel=9 note=70 velocity=107 time=0
EXTRACT: note_on channel=13 note=69 velocity=57 time=0
EXTRACT: note_off channel=10 note=67 velocity=65 time=0.004
EXTRACT: note_off channel=10 note=71 velocity=64 time=0
EXTRACT: note_on channel=6 note=81 velocity=79 time=0.003
EXTRACT: note_on channel=11 note=93 velocity=84 time=0
EXTRACT: note_on channel=14 note=81 velocity=85 time=0
EXTRACT: note_on channel=13 note=76 velocity=68 time=0.002
EXTRACT: note_on channel=10 note=72 velocity=102 time=0.001
EXTRACT: note_on channel=10 note=69 velocity=93 time=0
EXTRACT: note_on channel=13 note=72 velocity=60 time=0.002
EXTRACT: note_off channel=14 note=84 velocity=64 time=0.001
EXTRACT: note_off channel=11 note=96 velocity=64 time=0
EXTRACT: note_off channel=6 note=84 velocity=64 time=0
EXTRACT: note_off channel=9 note=70 velocity=64 time=0.011
EXTRACT: note_off channel=9 note=42 velocity=65 time=0
EXTRACT: note_off channel=9 note=36 velocity=65 time=0
EXTRACT: note_off channel=5 note=45 velocity=64 time=0.08700000000000001
EXTRACT: note_off channel=2 note=45 velocity=65 time=0
EXTRACT: note_on channel=2 note=45 velocity=75 time=0.009000000000000001
EXTRACT: note_on channel=5 note=45 velocity=72 time=0
EXTRACT: note_off channel=3 note=79 velocity=64 time=0.006
EXTRACT: note_off channel=1 note=33 velocity=64 time=0.093
EXTRACT: note_off channel=5 note=45 velocity=64 time=0.012
EXTRACT: note_off channel=2 note=45 velocity=65 time=0
EXTRACT: note_on channel=1 note=45 velocity=122 time=0.009000000000000001
EXTRACT: note_on channel=2 note=57 velocity=124 time=0
EXTRACT: note_on channel=5 note=45 velocity=113 time=0
EXTRACT: note_on channel=9 note=46 velocity=111 time=0
EXTRACT: note_on channel=9 note=70 velocity=106 time=0
EXTRACT: note_off channel=9 note=70 velocity=64 time=0.024
EXTRACT: note_off channel=9 note=46 velocity=64 time=0
EXTRACT: note_off channel=5 note=45 velocity=65 time=0.08700000000000001
EXTRACT: note_off channel=2 note=57 velocity=64 time=0
EXTRACT: note_on channel=2 note=57 velocity=125 time=0.009000000000000001
EXTRACT: note_on channel=5 note=45 velocity=113 time=0
EXTRACT: note_on channel=9 note=70 velocity=87 time=0
EXTRACT: note_off channel=9 note=70 velocity=65 time=0.024
EXTRACT: note_off channel=1 note=45 velocity=65 time=0.06
EXTRACT: note_off channel=5 note=45 velocity=64 time=0.027
EXTRACT: note_off channel=2 note=57 velocity=64 time=0
EXTRACT: note_on channel=9 note=39 velocity=118 time=0.001
EXTRACT: note_on channel=1 note=33 velocity=123 time=0.008
EXTRACT: note_on channel=2 note=45 velocity=125 time=0
EXTRACT: note_on channel=5 note=45 velocity=112 time=0
EXTRACT: note_on channel=9 note=36 velocity=127 time=0
EXTRACT: note_on channel=9 note=38 velocity=117 time=0
EXTRACT: note_on channel=9 note=42 velocity=122 time=0
EXTRACT: note_on channel=9 note=70 velocity=106 time=0
EXTRACT: control_change channel=2 control=6 value=61 time=0
EXTRACT: note_off channel=9 note=39 velocity=65 time=0.017
EXTRACT: note_off channel=9 note=70 velocity=64 time=0.007
EXTRACT: note_off channel=9 note=42 velocity=64 time=0
EXTRACT: note_off channel=9 note=38 velocity=65 time=0
EXTRACT: note_off channel=9 note=36 velocity=64 time=0
EXTRACT: note_off channel=5 note=45 velocity=65 time=0.08700000000000001
EXTRACT: note_off channel=2 note=45 velocity=65 time=0
EXTRACT: note_on channel=2 note=45 velocity=74 time=0.009000000000000001
EXTRACT: note_on channel=5 note=45 velocity=72 time=0
EXTRACT: note_off channel=1 note=33 velocity=65 time=0.099
EXTRACT: note_off channel=5 note=45 velocity=65 time=0.012
EXTRACT: note_off channel=2 note=45 velocity=65 time=0
EXTRACT: note_on channel=1 note=45 velocity=123 time=0.009000000000000001
EXTRACT: note_on channel=2 note=57 velocity=125 time=0
EXTRACT: note_on channel=5 note=45 velocity=113 time=0
EXTRACT: note_on channel=9 note=42 velocity=117 time=0
EXTRACT: note_on channel=9 note=70 velocity=106 time=0
EXTRACT: note_off channel=9 note=70 velocity=65 time=0.024
EXTRACT: note_off channel=9 note=42 velocity=65 time=0
EXTRACT: control_change channel=13 control=6 value=58 time=0.056
EXTRACT: note_off channel=5 note=45 velocity=64 time=0.031
EXTRACT: note_off channel=2 note=57 velocity=64 time=0
EXTRACT: note_on channel=2 note=57 velocity=124 time=0.009000000000000001
EXTRACT: note_on channel=5 note=45 velocity=113 time=0
EXTRACT: note_on channel=9 note=44 velocity=99 time=0
EXTRACT: note_on channel=9 note=70 velocity=87 time=0
EXTRACT: note_off channel=9 note=70 velocity=64 time=0.024
EXTRACT: note_off channel=9 note=44 velocity=65 time=0
EXTRACT: note_off channel=1 note=45 velocity=64 time=0.06
EXTRACT: note_off channel=5 note=45 velocity=65 time=0.027
EXTRACT: note_off channel=2 note=57 velocity=64 time=0
EXTRACT: note_on channel=1 note=33 velocity=122 time=0.009000000000000001
EXTRACT: note_on channel=2 note=45 velocity=124 time=0
EXTRACT: note_on channel=5 note=45 velocity=112 time=0
EXTRACT: note_on channel=9 note=36 velocity=127 time=0
EXTRACT: note_on channel=9 note=42 velocity=124 time=0
EXTRACT: note_on channel=9 note=70 velocity=107 time=0
EXTRACT: control_change channel=14 control=98 value=33 time=0
EXTRACT: note_off channel=9 note=70 velocity=64 time=0.024
EXTRACT: note_off channel=9 note=42 velocity=64 time=0
EXTRACT: note_off channel=9 note=36 velocity=65 time=0
EXTRACT: note_off channel=14 note=81 velocity=64 time=0.068
EXTRACT: note_off channel=11 note=93 velocity=64 time=0
EXTRACT: note_off channel=6 note=81 velocity=65 time=0
EXTRACT: note_off channel=5 note=45 velocity=64 time=0.019
EXTRACT: note_off channel=2 note=45 velocity=65 time=0
EXTRACT: note_off channel=4 note=60 velocity=65 time=0.003
EXTRACT: note_on channel=2 note=45 velocity=75 time=0.006
EXTRACT: note_on channel=5 note=45 velocity=72 time=0
EXTRACT: note_off channel=1 note=33 velocity=65 time=0.084
EXTRACT: note_off channel=5 note=45 velocity=64 time=0.027
EXTRACT: note_off channel=2 note=45 velocity=64 time=0
EXTRACT: note_off channel=4 note=64 velocity=64 time=0
EXTRACT: note_on channel=1 note=45 velocity=123 time=0.009000000000000001
EXTRACT: note_on channel=2 note=57 velocity=125 time=0
EXTRACT: note_on channel=4 note=57 velocity=1 time=0
EXTRACT: note_on channel=4 note=60 velocity=1 time=0
EXTRACT: note_on channel=5 note=45 velocity=113 time=0
EXTRACT: note_on channel=9 note=46 velocity=106 time=0
EXTRACT: note_on channel=9 note=70 velocity=106 time=0
EXTRACT: note_on channel=3 note=77 velocity=116 time=0
EXTRACT: note_off channel=9 note=70 velocity=65 time=0.02
EXTRACT: note_off channel=9 note=46 velocity=64 time=0
EXTRACT: note_on channel=6 note=76 velocity=72 time=0.014
EXTRACT: note_on channel=11 note=88 velocity=89 time=0
EXTRACT: note_on channel=14 note=76 velocity=88 time=0
EXTRACT: note_off channel=5 note=45 velocity=65 time=0.063
EXTRACT: note_off channel=2 note=57 velocity=65 time=0
EXTRACT: note_on channel=6 note=81 velocity=69 time=0.005
EXTRACT: note_on channel=11 note=93 velocity=80 time=0
EXTRACT: note_on channel=14 note=81 velocity=80 time=0
EXTRACT: note_on channel=2 note=57 velocity=124 time=0.004
EXTRACT: note_on channel=5 note=45 velocity=112 time=0
EXTRACT: note_on channel=9 note=70 velocity=86 time=0
EXTRACT: note_off channel=3 note=77 velocity=64 time=0.018000000000000002
EXTRACT: note_off channel=9 note=70 velocity=64 time=0.006
EXTRACT: note_on channel=6 note=84 velocity=68 time=0.031
EXTRACT: note_on channel=11 note=96 velocity=83 time=0
EXTRACT: note_on channel=14 note=84 velocity=83 time=0
EXTRACT: note_off channel=14 note=76 velocity=65 time=0.026000000000000002
EXTRACT: note_off channel=11 note=88 velocity=65 time=0
EXTRACT: note_off channel=6 note=76 velocity=64 time=0
EXTRACT: note_off channel=1 note=45 velocity=64 time=0.003
EXTRACT: note_off channel=5 note=45 velocity=65 time=0.027
EXTRACT: note_off channel=2 note=57 velocity=65 time=0
EXTRACT: note_on channel=9 note=39 velocity=118 time=0.001
EXTRACT: note_off channel=4 note=60 velocity=64 time=0.002
EXTRACT: note_off channel=13 note=76 velocity=65 time=0
EXTRACT: note_on channel=3 note=79 velocity=117 time=0
EXTRACT: note_on channel=6 note=88 velocity=82 time=0.003
EXTRACT: note_on channel=11 note=100 velocity=87 time=0
EXTRACT: note_on channel=14 note=88 velocity=86 time=0
EXTRACT: note_off channel=14 note=81 velocity=65 time=0
EXTRACT: note_off channel=11 note=93 velocity=65 time=0
EXTRACT: note_off channel=6 note=81 velocity=64 time=0
EXTRACT: note_on channel=1 note=33 velocity=122 time=0.002
EXTRACT: note_on channel=2 note=45 velocity=124 time=0
EXTRACT: note_on channel=4 note=62 velocity=1 time=0
EXTRACT: note_on channel=5 note=45 velocity=113 time=0
EXTRACT: note_on channel=9 note=36 velocity=126 time=0
EXTRACT: note_on channel=9 note=38 velocity=117 time=0
EXTRACT: note_on channel=9 note=42 velocity=117 time=0
EXTRACT: note_on channel=9 note=70 velocity=107 time=0
EXTRACT: note_on channel=13 note=77 velocity=69 time=0
EXTRACT: note_off channel=9 note=39 velocity=65 time=0.017
EXTRACT: note_off channel=9 note=70 velocity=65 time=0.007
EXTRACT: note_off channel=9 note=42 velocity=64 time=0
EXTRACT: note_off channel=9 note=38 velocity=64 time=0
EXTRACT: note_off channel=9 note=36 velocity=65 time=0
EXTRACT: note_off channel=14 note=84 velocity=64 time=0.02
EXTRACT: note_off channel=11 note=96 velocity=64 time=0
EXTRACT: note_off channel=6 note=84 velocity=65 time=0
EXTRACT: note_off channel=5 note=45 velocity=64 time=0.067
EXTRACT: note_off channel=2 note=45 velocity=64 time=0
EXTRACT: note_on channel=2 note=45 velocity=75 time=0.009000000000000001
EXTRACT: note_on channel=5 note=45 velocity=73 time=0
EXTRACT: control_change channel=6 control=6 value=50 time=0
EXTRACT: note_off channel=14 note=88 velocity=64 time=0.044
EXTRACT: note_off channel=11 note=100 velocity=64 time=0
EXTRACT: note_off channel=6 note=88 velocity=65 time=0
EXTRACT: note_off channel=1 note=33 velocity=64 time=0.04
EXTRACT: note_off channel=5 note=45 velocity=64 time=0.027
EXTRACT: note_off channel=2 note=45 velocity=65 time=0
EXTRACT: note_on channel=6 note=88 velocity=83 time=0.002
EXTRACT: note_on channel=11 note=100 velocity=86 time=0
EXTRACT: note_on channel=14 note=88 velocity=87 time=0
EXTRACT: note_off channel=4 note=62 velocity=65 time=0.001
EXTRACT: note_off channel=3 note=79 velocity=65 time=0
EXTRACT: note_on channel=3 note=77 velocity=117 time=0
EXTRACT: note_on channel=1 note=43 velocity=122 time=0.005
EXTRACT: note_on channel=2 note=55 velocity=125 time=0
EXTRACT: note_on channel=4 note=60 velocity=1 time=0
EXTRACT: note_on channel=5 note=43 velocity=112 time=0
EXTRACT: note_on channel=9 note=42 velocity=117 time=0
EXTRACT: note_on channel=9 note=70 velocity=107 time=0
EXTRACT: note_off channel=9 note=70 velocity=64 time=0.024
EXTRACT: note_off channel=9 note=42 velocity=65 time=0
EXTRACT: note_off channel=14 note=88 velocity=65 time=0
EXTRACT: note_off channel=11 note=100 velocity=65 time=0
EXTRACT: note_off channel=6 note=88 velocity=64 time=0
EXTRACT: note_on channel=6 note=84 velocity=83 time=0.019
EXTRACT: note_on channel=11 note=96 velocity=87 time=0
EXTRACT: note_on channel=14 note=84 velocity=87 time=0
EXTRACT: control_change channel=14 control=6 value=77 time=0.037
EXTRACT: note_on channel=6 note=81 velocity=76 time=0.019
EXTRACT: note_on channel=11 note=93 velocity=82 time=0
EXTRACT: note_on channel=14 note=81 velocity=82 time=0
EXTRACT: note_off channel=14 note=84 velocity=65 time=0.005
EXTRACT: note_off channel=11 note=96 velocity=65 time=0
EXTRACT: note_off channel=6 note=84 velocity=64 time=0
EXTRACT: note_off channel=5 note=43 velocity=65 time=0.007
EXTRACT: note_off channel=2 note=55 velocity=64 time=0
EXTRACT: note_off channel=1 note=43 velocity=65 time=0.003
EXTRACT: note_on channel=1 note=41 velocity=123 time=0.006
EXTRACT: note_on channel=2 note=53 velocity=124 time=0
EXTRACT: note_on channel=5 note=41 velocity=113 time=0
EXTRACT: note_on channel=9 note=44 velocity=98 time=0
EXTRACT: note_on channel=9 note=70 velocity=86 time=0
EXTRACT: note_off channel=9 note=70 velocity=65 time=0.024
EXTRACT: note_off channel=9 note=44 velocity=64 time=0
EXTRACT: note_off channel=14 note=81 velocity=64 time=0.02
EXTRACT: note_off channel=11 note=93 velocity=64 time=0
EXTRACT: note_off channel=6 note=81 velocity=65 time=0
EXTRACT: note_off channel=3 note=77 velocity=65 time=0.01
EXTRACT: note_on channel=6 note=77 velocity=78 time=0.013000000000000001
EXTRACT: note_on channel=11 note=89 velocity=84 time=0
EXTRACT: note_on channel=14 note=77 velocity=85 time=0
EXTRACT: control_change channel=13 control=6 value=60 time=0.013000000000000001
EXTRACT: note_off channel=10 note=72 velocity=64 time=0.006
EXTRACT: note_off channel=10 note=69 velocity=65 time=0.005
EXTRACT: note_off channel=5 note=41 velocity=65 time=0.02
EXTRACT: note_off channel=2 note=53 velocity=64 time=0
EXTRACT: note_off channel=1 note=41 velocity=65 time=0.003
EXTRACT: note_off channel=4 note=60 velocity=64 time=0
EXTRACT: note_off channel=13 note=72 velocity=64 time=0
EXTRACT: note_off channel=13 note=69 velocity=64 time=0
EXTRACT: note_on channel=1 note=26 velocity=123 time=0.006
EXTRACT: note_on channel=2 note=38 velocity=124 time=0
EXTRACT: note_on channel=4 note=62 velocity=1 time=0
EXTRACT: note_on channel=5 note=38 velocity=112 time=0
EXTRACT: note_on channel=9 note=36 velocity=126 time=0
EXTRACT: note_on channel=9 note=42 velocity=116 time=0
EXTRACT: note_on channel=9 note=70 velocity=106 time=0
EXTRACT: note_on channel=13 note=62 velocity=56 time=0
EXTRACT: note_on channel=13 note=65 velocity=53 time=0
EXTRACT: note_on channel=13 note=74 velocity=47 time=0.002
EXTRACT: note_on channel=13 note=69 velocity=62 time=0.003
EXTRACT: note_on channel=3 note=79 velocity=116 time=0
EXTRACT: note_on channel=6 note=74 velocity=77 time=0
EXTRACT: note_on channel=11 note=86 velocity=85 time=0
EXTRACT: note_on channel=14 note=74 velocity=84 time=0
EXTRACT: note_on channel=10 note=65 velocity=94 time=0.002
EXTRACT: note_on channel=10 note=69 velocity=101 time=0
EXTRACT: note_off channel=14 note=77 velocity=64 time=0.004
EXTRACT: note_off channel=11 note=89 velocity=64 time=0
EXTRACT: note_off channel=6 note=77 velocity=65 time=0
EXTRACT: note_off channel=9 note=70 velocity=65 time=0.01
EXTRACT: note_off channel=9 note=42 velocity=64 time=0
EXTRACT: note_off channel=9 note=36 velocity=64 time=0
EXTRACT: note_off channel=13 note=77 velocity=65 time=0.005
EXTRACT: note_off channel=5 note=38 velocity=64 time=0.082
EXTRACT: note_off channel=2 note=38 velocity=65 time=0
EXTRACT: note_on channel=2 note=38 velocity=75 time=0.009000000000000001
EXTRACT: note_on channel=5 note=38 velocity=72 time=0
EXTRACT: note_off channel=3 note=79 velocity=64 time=0.054
EXTRACT: note_off channel=1 note=26 velocity=64 time=0.03
EXTRACT: note_off channel=5 note=38 velocity=64 time=0.027
EXTRACT: note_off channel=2 note=38 velocity=65 time=0
EXTRACT: note_off channel=4 note=62 velocity=65 time=0.003
EXTRACT: note_on channel=1 note=38 velocity=122 time=0.006
EXTRACT: note_on channel=2 note=50 velocity=124 time=0
EXTRACT: note_on channel=4 note=60 velocity=1 time=0
EXTRACT: note_on channel=5 note=38 velocity=113 time=0
EXTRACT: note_on channel=9 note=46 velocity=104 time=0
EXTRACT: note_on channel=9 note=70 velocity=107 time=0
EXTRACT: note_on channel=3 note=77 velocity=116 time=0
EXTRACT: note_off channel=9 note=70 velocity=65 time=0.006
EXTRACT: note_off channel=9 note=46 velocity=65 time=0
EXTRACT: note_off channel=5 note=38 velocity=65 time=0.08700000000000001
EXTRACT: note_off channel=2 note=50 velocity=64 time=0
EXTRACT: note_off channel=1 note=38 velocity=64 time=0.003
EXTRACT: note_on channel=2 note=50 velocity=125 time=0.006
EXTRACT: note_on channel=5 note=38 velocity=113 time=0
EXTRACT: note_on channel=9 note=70 velocity=86 time=0
EXTRACT: note_off channel=9 note=70 velocity=64 time=0.024
EXTRACT: note_off channel=3 note=77 velocity=64 time=0.03
EXTRACT: note_off channel=5 note=38 velocity=64 time=0.057
EXTRACT: note_off channel=2 note=50 velocity=64 time=0
EXTRACT: note_on channel=9 note=39 velocity=119 time=0.001
EXTRACT: note_on channel=3 note=77 velocity=117 time=0
EXTRACT: note_on channel=1 note=26 velocity=122 time=0.002
EXTRACT: note_on channel=2 note=38 velocity=125 time=0
EXTRACT: note_on channel=5 note=38 velocity=112 time=0
EXTRACT: note_on channel=9 note=36 velocity=127 time=0
EXTRACT: note_on channel=9 note=38 velocity=116 time=0
EXTRACT: note_on channel=9 note=42 velocity=117 time=0
EXTRACT: note_on channel=9 note=70 velocity=107 time=0
EXTRACT: note_off channel=9 note=39 velocity=64 time=0.017
EXTRACT: note_off channel=9 note=70 velocity=65 time=0.007
EXTRACT: note_off channel=9 note=42 velocity=65 time=0
EXTRACT: note_off channel=9 note=38 velocity=64 time=0
EXTRACT: note_off channel=9 note=36 velocity=64 time=0
EXTRACT: note_off channel=5 note=38 velocity=65 time=0.08700000000000001
EXTRACT: note_off channel=2 note=38 velocity=65 time=0
EXTRACT: note_on channel=2 note=38 velocity=74 time=0.009000000000000001
EXTRACT: note_on channel=5 note=38 velocity=72 time=0
EXTRACT: note_off channel=3 note=77 velocity=65 time=0.074
EXTRACT: note_off channel=1 note=26 velocity=65 time=0.01
EXTRACT: note_off channel=5 note=38 velocity=65 time=0.027
EXTRACT: note_off channel=2 note=38 velocity=65 time=0
EXTRACT: note_off channel=4 note=60 velocity=65 time=0.003
EXTRACT: note_on channel=1 note=38 velocity=123 time=0.006
EXTRACT: note_on channel=2 note=50 velocity=125 time=0
EXTRACT: note_on channel=4 note=60 velocity=1 time=0
EXTRACT: note_on channel=5 note=38 velocity=113 time=0
EXTRACT: note_on channel=9 note=42 velocity=114 time=0
EXTRACT: note_on channel=9 note=70 velocity=107 time=0
EXTRACT: note_on channel=3 note=77 velocity=116 time=0
EXTRACT: note_off channel=9 note=70 velocity=65 time=0.011
EXTRACT: note_off channel=9 note=42 velocity=64 time=0
EXTRACT: note_on channel=12 note=77 velocity=101 time=0.009000000000000001
EXTRACT: note_on channel=12 note=76 velocity=70 time=0.001
EXTRACT: note_off channel=5 note=38 velocity=64 time=0.038
EXTRACT: note_off channel=2 note=50 velocity=64 time=0
EXTRACT: note_off channel=1 note=38 velocity=65 time=0.003
EXTRACT: note_on channel=2 note=50 velocity=124 time=0.006
EXTRACT: note_on channel=5 note=38 velocity=113 time=0
EXTRACT: note_on channel=9 note=44 velocity=98 time=0
EXTRACT: note_on channel=9 note=70 velocity=86 time=0
EXTRACT: note_off channel=9 note=70 velocity=65 time=0.024
EXTRACT: note_off channel=9 note=44 velocity=65 time=0
EXTRACT: note_off channel=3 note=77 velocity=64 time=0.05
EXTRACT: note_off channel=5 note=38 velocity=65 time=0.037
EXTRACT: note_off channel=2 note=50 velocity=64 time=0
EXTRACT: note_off channel=4 note=60 velocity=64 time=0
EXTRACT: note_off channel=4 note=57 velocity=65 time=0.003
EXTRACT: note_on channel=1 note=26 velocity=123 time=0.006
EXTRACT: note_on channel=2 note=38 velocity=124 time=0
EXTRACT: note_on channel=4 note=55 velocity=1 time=0
EXTRACT: note_on channel=5 note=38 velocity=112 time=0
EXTRACT: note_on channel=9 note=36 velocity=127 time=0
EXTRACT: note_on channel=9 note=42 velocity=118 time=0
EXTRACT: note_on channel=9 note=70 velocity=107 time=0
EXTRACT: note_on channel=3 note=72 velocity=117 time=0.012
EXTRACT: note_off channel=9 note=70 velocity=64 time=0.012
EXTRACT: note_off channel=9 note=42 velocity=65 time=0
EXTRACT: note_off channel=9 note=36 velocity=64 time=0
EXTRACT: note_off channel=5 note=38 velocity=64 time=0.08700000000000001
EXTRACT: note_off channel=2 note=38 velocity=65 time=0
EXTRACT: note_on channel=2 note=38 velocity=75 time=0.009000000000000001
EXTRACT: note_on channel=5 note=38 velocity=72 time=0
EXTRACT: note_off channel=6 note=74 velocity=64 time=0.074
EXTRACT: note_off channel=1 note=26 velocity=64 time=0.01
EXTRACT: note_off channel=14 note=74 velocity=65 time=0.01
EXTRACT: note_off channel=5 note=38 velocity=64 time=0.017
EXTRACT: note_off channel=2 note=38 velocity=64 time=0
EXTRACT: note_off channel=4 note=55 velocity=64 time=0
EXTRACT: pitchwheel channel=3 pitch=1737 time=0.004
EXTRACT: note_on channel=1 note=38 velocity=122 time=0.005
EXTRACT: note_on channel=2 note=50 velocity=125 time=0
EXTRACT: note_on channel=4 note=57 velocity=1 time=0
EXTRACT: note_on channel=5 note=38 velocity=113 time=0
EXTRACT: note_on channel=9 note=46 velocity=107 time=0
EXTRACT: note_on channel=9 note=70 velocity=106 time=0
EXTRACT: note_on channel=6 note=74 velocity=73 time=0.001
EXTRACT: note_on channel=11 note=86 velocity=77 time=0
EXTRACT: pitchwheel channel=3 pitch=6408 time=0.009000000000000001
EXTRACT: note_off channel=11 note=86 velocity=65 time=0.004
EXTRACT: note_on channel=14 note=74 velocity=76 time=0.007
EXTRACT: pitchwheel channel=3 pitch=8063 time=0.002
EXTRACT: note_off channel=9 note=70 velocity=64 time=0.001
EXTRACT: note_off channel=9 note=46 velocity=65 time=0
EXTRACT: note_on channel=6 note=77 velocity=82 time=0.052000000000000005
EXTRACT: note_on channel=11 note=89 velocity=88 time=0
EXTRACT: note_off channel=11 note=86 velocity=64 time=0.018000000000000002
EXTRACT: note_off channel=6 note=74 velocity=64 time=0
EXTRACT: note_on channel=14 note=77 velocity=89 time=0.002
EXTRACT: note_off channel=5 note=38 velocity=65 time=0.015
EXTRACT: note_off channel=2 note=50 velocity=65 time=0
EXTRACT: note_off channel=14 note=74 velocity=64 time=0.003
EXTRACT: note_off channel=1 note=38 velocity=64 time=0
EXTRACT: note_on channel=2 note=50 velocity=124 time=0.006
EXTRACT: note_on channel=5 note=38 velocity=112 time=0
EXTRACT: note_on channel=9 note=70 velocity=86 time=0
EXTRACT: note_off channel=9 note=70 velocity=65 time=0.024
EXTRACT: note_on channel=6 note=81 velocity=62 time=0.008
EXTRACT: note_on channel=11 note=93 velocity=78 time=0
EXTRACT: note_on channel=14 note=81 velocity=79 time=0.02
EXTRACT: note_off channel=11 note=89 velocity=65 time=0.002
EXTRACT: note_off channel=6 note=77 velocity=65 time=0
EXTRACT: note_off channel=14 note=77 velocity=65 time=0.02
EXTRACT: control_change channel=9 control=91 value=30 time=0.016
EXTRACT: note_on channel=6 note=86 velocity=73 time=0.011
EXTRACT: note_on channel=11 note=98 velocity=83 time=0
EXTRACT: note_off channel=5 note=38 velocity=65 time=0.01
EXTRACT: note_off channel=2 note=50 velocity=65 time=0
EXTRACT: note_on channel=9 note=39 velocity=119 time=0.001
EXTRACT: note_on channel=1 note=26 velocity=122 time=0.008
EXTRACT: note_on channel=2 note=38 velocity=124 time=0
EXTRACT: note_on channel=5 note=38 velocity=113 time=0
EXTRACT: note_on channel=9 note=36 velocity=126 time=0
EXTRACT: note_on channel=9 note=38 velocity=117 time=0
EXTRACT: note_on channel=9 note=42 velocity=123 time=0
EXTRACT: note_on channel=9 note=70 velocity=107 time=0
EXTRACT: note_on channel=14 note=86 velocity=82 time=0.001
EXTRACT: note_off channel=11 note=93 velocity=65 time=0.003
EXTRACT: note_off channel=6 note=81 velocity=64 time=0
EXTRACT: note_off channel=9 note=39 velocity=64 time=0.013000000000000001
EXTRACT: note_off channel=9 note=70 velocity=64 time=0.007
EXTRACT: note_off channel=9 note=42 velocity=65 time=0
EXTRACT: note_off channel=9 note=38 velocity=65 time=0
EXTRACT: note_off channel=9 note=36 velocity=64 time=0
EXTRACT: note_off channel=14 note=81 velocity=65 time=0
EXTRACT: note_off channel=5 note=38 velocity=64 time=0.08700000000000001
EXTRACT: note_off channel=2 note=38 velocity=64 time=0
EXTRACT: note_on channel=2 note=38 velocity=75 time=0.009000000000000001
EXTRACT: note_on channel=5 note=38 velocity=73 time=0
EXTRACT: note_off channel=3 note=72 velocity=65 time=0.074
EXTRACT: note_off channel=1 note=26 velocity=65 time=0.01
EXTRACT: note_on channel=6 note=81 velocity=74 time=0.022
EXTRACT: note_on channel=11 note=93 velocity=77 time=0
EXTRACT: note_off channel=5 note=38 velocity=64 time=0.005
EXTRACT: note_off channel=2 note=38 velocity=65 time=0
EXTRACT: note_on channel=1 note=38 velocity=123 time=0.009000000000000001
EXTRACT: note_on channel=2 note=50 velocity=125 time=0
EXTRACT: note_on channel=5 note=38 velocity=112 time=0
EXTRACT: note_on channel=9 note=42 velocity=123 time=0
EXTRACT: note_on channel=9 note=70 velocity=107 time=0
EXTRACT: note_off channel=11 note=98 velocity=64 time=0.004
EXTRACT: note_off channel=6 note=86 velocity=65 time=0
EXTRACT: note_on channel=14 note=81 velocity=76 time=0.002
EXTRACT: note_off channel=9 note=70 velocity=64 time=0.018000000000000002
EXTRACT: note_off channel=9 note=42 velocity=65 time=0
EXTRACT: note_off channel=14 note=86 velocity=64 time=0
EXTRACT: pitchwheel channel=3 pitch=128 time=0.038
EXTRACT: note_off channel=5 note=38 velocity=65 time=0.049
EXTRACT: note_off channel=2 note=50 velocity=64 time=0
EXTRACT: note_off channel=1 note=38 velocity=64 time=0.003
EXTRACT: note_off channel=11 note=93 velocity=65 time=0
EXTRACT: note_off channel=6 note=81 velocity=65 time=0
EXTRACT: note_off channel=4 note=57 velocity=64 time=0
EXTRACT: note_off channel=13 note=69 velocity=64 time=0
EXTRACT: note_on channel=6 note=77 velocity=73 time=0.003
EXTRACT: note_on channel=11 note=89 velocity=80 time=0
EXTRACT: note_on channel=2 note=50 velocity=124 time=0.003
EXTRACT: note_on channel=5 note=38 velocity=113 time=0
EXTRACT: note_on channel=9 note=44 velocity=99 time=0
EXTRACT: note_on channel=9 note=70 velocity=86 time=0
EXTRACT: control_change channel=14 control=6 value=85 time=0
EXTRACT: note_off channel=14 note=81 velocity=65 time=0.014
EXTRACT: note_off channel=10 note=65 velocity=64 time=0.001
EXTRACT: note_on channel=14 note=77 velocity=81 time=0.002
EXTRACT: note_off channel=10 note=69 velocity=65 time=0.004
EXTRACT: note_off channel=9 note=70 velocity=64 time=0.003
EXTRACT: note_off channel=9 note=44 velocity=65 time=0
EXTRACT: note_off channel=13 note=62 velocity=65 time=0.03
EXTRACT: note_off channel=13 note=74 velocity=65 time=0.02
EXTRACT: note_off channel=13 note=65 velocity=64 time=0
EXTRACT: note_off channel=5 note=38 velocity=65 time=0.037
EXTRACT: note_off channel=2 note=50 velocity=64 time=0
EXTRACT: note_on channel=1 note=26 velocity=122 time=0.009000000000000001
EXTRACT: note_on channel=2 note=38 velocity=124 time=0
EXTRACT: note_on channel=4 note=60 velocity=1 time=0
EXTRACT: note_on channel=4 note=64 velocity=1 time=0
EXTRACT: note_on channel=5 note=38 velocity=112 time=0
EXTRACT: note_on channel=9 note=36 velocity=126 time=0
EXTRACT: note_on channel=9 note=49 velocity=83 time=0
EXTRACT: note_on channel=9 note=70 velocity=106 time=0
EXTRACT: note_on channel=13 note=62 velocity=57 time=0
EXTRACT: note_on channel=13 note=65 velocity=52 time=0
EXTRACT: control_change channel=1 control=6 value=43 time=0
EXTRACT: note_on channel=13 note=74 velocity=46 time=0.002
EXTRACT: note_on channel=13 note=69 velocity=63 time=0.003
EXTRACT: note_on channel=6 note=74 velocity=73 time=0.002
EXTRACT: note_on channel=11 note=86 velocity=78 time=0
EXTRACT: note_on channel=14 note=74 velocity=79 time=0
EXTRACT: note_off channel=12 note=76 velocity=65 time=0
EXTRACT: note_off channel=12 note=77 velocity=64 time=0
EXTRACT: note_on channel=10 note=62 velocity=99 time=0.003
EXTRACT: note_on channel=10 note=65 velocity=98 time=0
EXTRACT: note_off channel=11 note=89 velocity=64 time=0.004
EXTRACT: note_off channel=6 note=77 velocity=64 time=0
EXTRACT: note_on channel=3 note=79 velocity=117 time=0
EXTRACT: note_off channel=9 note=70 velocity=65 time=0.007
EXTRACT: note_off channel=9 note=49 velocity=64 time=0
EXTRACT: note_off channel=9 note=36 velocity=65 time=0
EXTRACT: note_off channel=14 note=77 velocity=64 time=0.01
EXTRACT: note_off channel=5 note=38 velocity=64 time=0.077
EXTRACT: note_off channel=2 note=38 velocity=65 time=0
EXTRACT: note_on channel=2 note=38 velocity=75 time=0.009000000000000001
EXTRACT: note_on channel=5 note=38 velocity=62 time=0
EXTRACT: note_off channel=1 note=26 velocity=65 time=0.084
EXTRACT: note_off channel=5 note=38 velocity=64 time=0.027
EXTRACT: note_off channel=2 note=38 velocity=65 time=0
EXTRACT: note_off channel=4 note=64 velocity=65 time=0
EXTRACT: note_off channel=4 note=60 velocity=65 time=0
EXTRACT: note_on channel=1 note=38 velocity=123 time=0.009000000000000001
EXTRACT: note_on channel=2 note=50 velocity=124 time=0
EXTRACT: note_on channel=4 note=62 velocity=1 time=0
EXTRACT: note_on channel=4 note=65 velocity=1 time=0
EXTRACT: note_on channel=5 note=38 velocity=113 time=0
EXTRACT: note_on channel=9 note=46 velocity=113 time=0
EXTRACT: note_on channel=9 note=70 velocity=107 time=0
EXTRACT: note_on channel=3 note=81 velocity=116 time=0
EXTRACT: note_off channel=3 note=79 velocity=65 time=0.007
EXTRACT: note_off channel=9 note=70 velocity=64 time=0.014
EXTRACT: note_off channel=9 note=46 velocity=64 time=0
EXTRACT: note_off channel=5 note=38 velocity=65 time=0.08700000000000001
EXTRACT: note_off channel=2 note=50 velocity=64 time=0
EXTRACT: note_on channel=2 note=50 velocity=125 time=0.009000000000000001
EXTRACT: note_on channel=5 note=38 velocity=113 time=0
EXTRACT: note_on channel=9 note=70 velocity=87 time=0
EXTRACT: note_off channel=9 note=70 velocity=65 time=0.024
EXTRACT: control_change channel=14 control=1 value=15 time=0.016
EXTRACT: note_off channel=1 note=38 velocity=65 time=0.059000000000000004
EXTRACT: note_off channel=5 note=38 velocity=64 time=0.012
EXTRACT: note_off channel=2 note=50 velocity=64 time=0
EXTRACT: note_on channel=9 note=39 velocity=118 time=0.001
EXTRACT: note_on channel=1 note=26 velocity=123 time=0.008
EXTRACT: note_on channel=2 note=38 velocity=125 time=0
EXTRACT: note_on channel=4 note=60 velocity=1 time=0
EXTRACT: note_on channel=4 note=64 velocity=1 time=0
EXTRACT: note_on channel=5 note=38 velocity=112 time=0
EXTRACT: note_on channel=9 note=36 velocity=127 time=0
EXTRACT: note_on channel=9 note=38 velocity=116 time=0
EXTRACT: note_on channel=9 note=42 velocity=118 time=0
EXTRACT: note_on channel=9 note=70 velocity=106 time=0
EXTRACT: note_off channel=4 note=65 velocity=64 time=0.006
EXTRACT: note_off channel=4 note=62 velocity=64 time=0
EXTRACT: note_off channel=3 note=81 velocity=64 time=0.003
EXTRACT: note_off channel=9 note=39 velocity=65 time=0.008
EXTRACT: note_off channel=9 note=70 velocity=64 time=0.007
EXTRACT: note_off channel=9 note=42 velocity=64 time=0
EXTRACT: note_off channel=9 note=38 velocity=65 time=0
EXTRACT: note_off channel=9 note=36 velocity=65 time=0
EXTRACT: note_on channel=3 note=79 velocity=117 time=0
EXTRACT: note_off channel=5 note=38 velocity=65 time=0.083
EXTRACT: note_off channel=2 note=38 velocity=65 time=0
EXTRACT: note_on channel=2 note=38 velocity=74 time=0.009000000000000001
EXTRACT: note_on channel=5 note=38 velocity=62 time=0
EXTRACT: note_off channel=1 note=26 velocity=64 time=0.069
EXTRACT: note_off channel=3 note=79 velocity=65 time=0.038
EXTRACT: note_off channel=5 note=38 velocity=65 time=0.004
EXTRACT: note_off channel=2 note=38 velocity=65 time=0
EXTRACT: note_off channel=4 note=64 velocity=65 time=0
EXTRACT: note_off channel=4 note=60 velocity=65 time=0
EXTRACT: note_on channel=1 note=38 velocity=122 time=0.009000000000000001
EXTRACT: note_on channel=2 note=50 velocity=125 time=0
EXTRACT: note_on channel=4 note=62 velocity=1 time=0
EXTRACT: note_on channel=4 note=65 velocity=1 time=0
EXTRACT: note_on channel=5 note=38 velocity=113 time=0
EXTRACT: note_on channel=9 note=42 velocity=116 time=0
EXTRACT: note_on channel=9 note=70 velocity=106 time=0
EXTRACT: note_on channel=3 note=81 velocity=116 time=0
EXTRACT: note_off channel=9 note=70 velocity=64 time=0.016
EXTRACT: note_off channel=9 note=42 velocity=64 time=0
EXTRACT: note_off channel=5 note=38 velocity=64 time=0.08700000000000001
EXTRACT: note_off channel=2 note=50 velocity=64 time=0
EXTRACT: note_on channel=2 note=50 velocity=124 time=0.009000000000000001
EXTRACT: note_on channel=5 note=38 velocity=113 time=0
EXTRACT: note_on channel=9 note=44 velocity=99 time=0
EXTRACT: note_on channel=9 note=70 velocity=87 time=0
EXTRACT: control_change channel=13 control=6 value=52 time=0
EXTRACT: note_off channel=9 note=70 velocity=65 time=0.024
EXTRACT: note_off channel=9 note=44 velocity=64 time=0
EXTRACT: note_off channel=3 note=81 velocity=64 time=0.032
EXTRACT: note_off channel=1 note=38 velocity=65 time=0.043000000000000003
EXTRACT: pitchwheel channel=3 pitch=-8070 time=0.004
EXTRACT: note_off channel=5 note=38 velocity=65 time=0.008
EXTRACT: note_off channel=2 note=50 velocity=64 time=0
EXTRACT: note_off channel=4 note=65 velocity=64 time=0
EXTRACT: note_off channel=4 note=62 velocity=64 time=0
EXTRACT: note_on channel=1 note=26 velocity=123 time=0.009000000000000001
EXTRACT: note_on channel=2 note=38 velocity=124 time=0
EXTRACT: note_on channel=4 note=62 velocity=1 time=0
EXTRACT: note_on channel=4 note=65 velocity=1 time=0
EXTRACT: note_on channel=5 note=38 velocity=112 time=0
EXTRACT: note_on channel=9 note=36 velocity=126 time=0
EXTRACT: note_on channel=9 note=42 velocity=125 time=0
EXTRACT: note_on channel=9 note=70 velocity=106 time=0
EXTRACT: note_on channel=3 note=81 velocity=116 time=0
EXTRACT: pitchwheel channel=3 pitch=-6150 time=0.02
EXTRACT: note_off channel=9 note=70 velocity=65 time=0.001
EXTRACT: note_off channel=9 note=42 velocity=65 time=0
EXTRACT: note_off channel=9 note=36 velocity=64 time=0
EXTRACT: pitchwheel channel=3 pitch=-4870 time=0.009000000000000001
EXTRACT: pitchwheel channel=3 pitch=-3590 time=0.01
EXTRACT: pitchwheel channel=3 pitch=-2694 time=0.01
EXTRACT: pitchwheel channel=3 pitch=-1414 time=0.01
EXTRACT: pitchwheel channel=3 pitch=250 time=0.02
EXTRACT: note_off channel=5 note=38 velocity=64 time=0.028
EXTRACT: note_off channel=2 note=38 velocity=65 time=0
EXTRACT: note_off channel=6 note=74 velocity=65 time=0.003
EXTRACT: note_on channel=2 note=38 velocity=75 time=0.006
EXTRACT: note_on channel=5 note=38 velocity=62 time=0
EXTRACT: note_off channel=14 note=74 velocity=64 time=0.054
EXTRACT: note_off channel=11 note=86 velocity=64 time=0
EXTRACT: control_change channel=1 control=6 value=45 time=0.036000000000000004
EXTRACT: note_off channel=1 note=26 velocity=64 time=0.009000000000000001
EXTRACT: note_off channel=5 note=38 velocity=64 time=0.012
EXTRACT: note_off channel=2 note=38 velocity=64 time=0
EXTRACT: note_on channel=1 note=38 velocity=122 time=0.009000000000000001
EXTRACT: note_on channel=2 note=50 velocity=125 time=0
EXTRACT: note_on channel=5 note=38 velocity=113 time=0
EXTRACT: note_on channel=9 note=46 velocity=110 time=0
EXTRACT: note_on channel=9 note=70 velocity=107 time=0
EXTRACT: note_on channel=6 note=74 velocity=72 time=0.001
EXTRACT: note_on channel=11 note=86 velocity=77 time=0
EXTRACT: note_on channel=14 note=74 velocity=76 time=0
EXTRACT: note_off channel=9 note=70 velocity=65 time=0.023
EXTRACT: note_off channel=9 note=46 velocity=64 time=0
EXTRACT: note_on channel=6 note=77 velocity=83 time=0.052000000000000005
EXTRACT: note_on channel=11 note=89 velocity=88 time=0
EXTRACT: note_on channel=14 note=77 velocity=88 time=0
EXTRACT: note_off channel=14 note=74 velocity=65 time=0.018000000000000002
EXTRACT: note_off channel=11 note=86 velocity=65 time=0
EXTRACT: note_off channel=6 note=74 velocity=64 time=0
EXTRACT: note_off channel=5 note=38 velocity=65 time=0.017
EXTRACT: note_off channel=2 note=50 velocity=65 time=0
EXTRACT: note_on channel=2 note=50 velocity=124 time=0.009000000000000001
EXTRACT: note_on channel=5 note=38 velocity=112 time=0
EXTRACT: note_on channel=9 note=70 velocity=87 time=0
EXTRACT: note_off channel=9 note=70 velocity=64 time=0.024
EXTRACT: note_on channel=6 note=81 velocity=62 time=0.008
EXTRACT: note_on channel=11 note=93 velocity=79 time=0
EXTRACT: note_on channel=14 note=81 velocity=79 time=0
EXTRACT: note_off channel=3 note=81 velocity=64 time=0.017
EXTRACT: note_off channel=14 note=77 velocity=65 time=0.005
EXTRACT: note_off channel=11 note=89 velocity=65 time=0
EXTRACT: note_off channel=6 note=77 velocity=64 time=0
EXTRACT: note_off channel=1 note=38 velocity=64 time=0.03
EXTRACT: note_on channel=6 note=86 velocity=72 time=0.017
EXTRACT: note_on channel=11 note=98 velocity=83 time=0
EXTRACT: note_on channel=14 note=86 velocity=82 time=0
EXTRACT: note_on channel=3 note=79 velocity=117 time=0
EXTRACT: note_off channel=5 note=38 velocity=65 time=0
EXTRACT: note_off channel=2 note=50 velocity=65 time=0
EXTRACT: note_off channel=4 note=65 velocity=65 time=0
EXTRACT: note_off channel=4 note=62 velocity=64 time=0
EXTRACT: note_on channel=9 note=39 velocity=118 time=0.001
EXTRACT: note_on channel=1 note=26 velocity=122 time=0.008
EXTRACT: note_on channel=2 note=38 velocity=124 time=0
EXTRACT: note_on channel=4 note=60 velocity=1 time=0
EXTRACT: note_on channel=4 note=64 velocity=1 time=0
EXTRACT: note_on channel=5 note=38 velocity=113 time=0
EXTRACT: note_on channel=9 note=36 velocity=127 time=0
EXTRACT: note_on channel=9 note=38 velocity=116 time=0
EXTRACT: note_on channel=9 note=42 velocity=99 time=0
EXTRACT: note_on channel=9 note=70 velocity=106 time=0
EXTRACT: note_off channel=14 note=81 velocity=64 time=0.004
EXTRACT: note_off channel=11 note=93 velocity=64 time=0
EXTRACT: note_off channel=6 note=81 velocity=65 time=0
EXTRACT: note_off channel=9 note=39 velocity=65 time=0.013000000000000001
EXTRACT: note_off channel=9 note=70 velocity=65 time=0.007
EXTRACT: note_off channel=9 note=42 velocity=64 time=0
EXTRACT: note_off channel=9 note=38 velocity=64 time=0
EXTRACT: note_off channel=9 note=36 velocity=65 time=0
EXTRACT: note_off channel=5 note=38 velocity=64 time=0.08700000000000001
EXTRACT: note_off channel=2 note=38 velocity=64 time=0
EXTRACT: note_on channel=2 note=38 velocity=75 time=0.009000000000000001
EXTRACT: note_on channel=5 note=38 velocity=63 time=0
EXTRACT: note_on channel=12 note=76 velocity=126 time=0.057
EXTRACT: note_on channel=12 note=84 velocity=127 time=0.01
EXTRACT: note_off channel=1 note=26 velocity=65 time=0.017
EXTRACT: note_off channel=3 note=79 velocity=65 time=0.002
EXTRACT: note_on channel=6 note=81 velocity=75 time=0.02
EXTRACT: note_on channel=11 note=93 velocity=76 time=0
EXTRACT: note_on channel=14 note=81 velocity=77 time=0
EXTRACT: note_on channel=3 note=77 velocity=117 time=0
EXTRACT: note_off channel=5 note=38 velocity=64 time=0.003
EXTRACT: note_off channel=2 note=38 velocity=65 time=0
EXTRACT: note_off channel=4 note=64 velocity=65 time=0
EXTRACT: note_off channel=4 note=60 velocity=65 time=0
EXTRACT: note_on channel=1 note=38 velocity=123 time=0.009000000000000001
EXTRACT: note_on channel=2 note=50 velocity=125 time=0
EXTRACT: note_on channel=4 note=57 velocity=1 time=0
EXTRACT: note_on channel=4 note=62 velocity=1 time=0
EXTRACT: note_on channel=5 note=38 velocity=112 time=0
EXTRACT: note_on channel=9 note=42 velocity=114 time=0
EXTRACT: note_on channel=9 note=70 velocity=107 time=0
EXTRACT: note_off channel=14 note=86 velocity=64 time=0.004
EXTRACT: note_off channel=11 note=98 velocity=64 time=0
EXTRACT: note_off channel=6 note=86 velocity=65 time=0
EXTRACT: note_off channel=9 note=70 velocity=65 time=0.02
EXTRACT: note_off channel=9 note=42 velocity=64 time=0
EXTRACT: note_off channel=5 note=38 velocity=65 time=0.08700000000000001
EXTRACT: note_off channel=2 note=50 velocity=64 time=0
EXTRACT: note_off channel=14 note=81 velocity=65 time=0.003
EXTRACT: note_off channel=11 note=93 velocity=65 time=0
EXTRACT: note_off channel=6 note=81 velocity=64 time=0
EXTRACT: note_on channel=6 note=77 velocity=73 time=0.003
EXTRACT: note_on channel=11 note=89 velocity=81 time=0
EXTRACT: note_on channel=14 note=77 velocity=81 time=0
EXTRACT: note_on channel=2 note=50 velocity=124 time=0.003
EXTRACT: note_on channel=5 note=38 velocity=113 time=0
EXTRACT: note_on channel=9 note=44 velocity=98 time=0
EXTRACT: note_on channel=9 note=70 velocity=86 time=0
EXTRACT: note_off channel=9 note=70 velocity=64 time=0.024
EXTRACT: note_off channel=9 note=44 velocity=65 time=0
EXTRACT: note_off channel=3 note=77 velocity=65 time=0.025
EXTRACT: note_off channel=1 note=38 velocity=65 time=0.035
EXTRACT: note_off channel=12 note=76 velocity=64 time=0.002
EXTRACT: note_off channel=12 note=84 velocity=65 time=0.01
EXTRACT: note_on channel=3 note=79 velocity=116 time=0
EXTRACT: note_off channel=5 note=38 velocity=65 time=0.001
EXTRACT: note_off channel=2 note=50 velocity=64 time=0
EXTRACT: note_off channel=4 note=62 velocity=64 time=0
EXTRACT: note_off channel=4 note=57 velocity=65 time=0
EXTRACT: note_on channel=6 note=74 velocity=78 time=0.006
EXTRACT: note_on channel=11 note=86 velocity=84 time=0
EXTRACT: note_on channel=14 note=74 velocity=84 time=0
EXTRACT: note_on channel=1 note=26 velocity=123 time=0.003
EXTRACT: note_on channel=2 note=38 velocity=124 time=0
EXTRACT: note_on channel=4 note=60 velocity=1 time=0
EXTRACT: note_on channel=4 note=64 velocity=1 time=0
EXTRACT: note_on channel=5 note=38 velocity=112 time=0
EXTRACT: note_on channel=9 note=36 velocity=127 time=0
EXTRACT: note_on channel=9 note=42 velocity=122 time=0
EXTRACT: note_on channel=9 note=70 velocity=106 time=0
EXTRACT: note_off channel=14 note=77 velocity=65 time=0.014
EXTRACT: note_off channel=11 note=89 velocity=65 time=0
EXTRACT: note_off channel=6 note=77 velocity=64 time=0
EXTRACT: note_off channel=9 note=70 velocity=64 time=0.01
EXTRACT: note_off channel=9 note=42 velocity=65 time=0
EXTRACT: note_off channel=9 note=36 velocity=65 time=0
EXTRACT: control_change channel=13 control=6 value=54 time=0.056
EXTRACT: note_off channel=5 note=38 velocity=64 time=0.031
EXTRACT: note_off channel=2 note=38 velocity=65 time=0
EXTRACT: note_on channel=6 note=76 velocity=78 time=0.005
EXTRACT: note_on channel=11 note=88 velocity=84 time=0
EXTRACT: note_on channel=14 note=76 velocity=85 time=0
EXTRACT: note_on channel=2 note=38 velocity=75 time=0.004
EXTRACT: note_on channel=5 note=38 velocity=62 time=0
EXTRACT: note_off channel=14 note=74 velocity=64 time=0.004
EXTRACT: note_off channel=11 note=86 velocity=64 time=0
EXTRACT: note_off channel=6 note=74 velocity=65 time=0
EXTRACT: note_off channel=10 note=62 velocity=65 time=0
EXTRACT: note_off channel=3 note=79 velocity=64 time=0.07100000000000001
EXTRACT: note_off channel=1 note=26 velocity=64 time=0.009000000000000001
EXTRACT: note_off channel=5 note=38 velocity=64 time=0.027
EXTRACT: note_off channel=2 note=38 velocity=65 time=0
EXTRACT: note_off channel=4 note=64 velocity=64 time=0
EXTRACT: note_off channel=4 note=60 velocity=64 time=0
EXTRACT: note_off channel=13 note=69 velocity=65 time=0.003
EXTRACT: note_off channel=13 note=74 velocity=64 time=0
EXTRACT: note_off channel=13 note=65 velocity=64 time=0
EXTRACT: note_off channel=13 note=62 velocity=65 time=0
EXTRACT: note_on channel=6 note=77 velocity=75 time=0.004
EXTRACT: note_on channel=11 note=89 velocity=93 time=0
EXTRACT: note_on channel=14 note=77 velocity=92 time=0
EXTRACT: note_on channel=1 note=28 velocity=122 time=0
EXTRACT: note_on channel=2 note=52 velocity=124 time=0
EXTRACT: note_on channel=3 note=81 velocity=116 time=0
EXTRACT: note_on channel=4 note=60 velocity=1 time=0
EXTRACT: note_on channel=4 note=65 velocity=1 time=0
EXTRACT: note_on channel=5 note=40 velocity=113 time=0
EXTRACT: note_on channel=9 note=46 velocity=104 time=0
EXTRACT: note_on channel=9 note=70 velocity=107 time=0
EXTRACT: note_on channel=13 note=64 velocity=81 time=0
EXTRACT: note_off channel=10 note=65 velocity=64 time=0.004
EXTRACT: note_off channel=14 note=76 velocity=64 time=0.001
EXTRACT: note_off channel=11 note=88 velocity=64 time=0
EXTRACT: note_off channel=6 note=76 velocity=65 time=0
EXTRACT: note_on channel=10 note=64 velocity=91 time=0.005
EXTRACT: note_on channel=10 note=67 velocity=78 time=0
EXTRACT: note_on channel=13 note=67 velocity=64 time=0.002
EXTRACT: note_on channel=13 note=71 velocity=62 time=0.008
EXTRACT: note_off channel=9 note=70 velocity=64 time=0.004
EXTRACT: note_off channel=9 note=46 velocity=65 time=0
EXTRACT: note_off channel=5 note=40 velocity=65 time=0.08700000000000001
EXTRACT: note_off channel=2 note=52 velocity=64 time=0
EXTRACT: note_on channel=2 note=52 velocity=125 time=0.009000000000000001
EXTRACT: note_on channel=5 note=40 velocity=113 time=0
EXTRACT: note_on channel=9 note=70 velocity=87 time=0
EXTRACT: note_on channel=6 note=79 velocity=75 time=0.001
EXTRACT: note_on channel=11 note=91 velocity=83 time=0
EXTRACT: note_on channel=14 note=79 velocity=82 time=0
EXTRACT: note_off channel=14 note=77 velocity=65 time=0.013000000000000001
EXTRACT: note_off channel=11 note=89 velocity=65 time=0
EXTRACT: note_off channel=6 note=77 velocity=64 time=0
EXTRACT: note_off channel=9 note=70 velocity=64 time=0.01
EXTRACT: control_change channel=1 control=6 value=47 time=0.021
EXTRACT: note_off channel=1 note=28 velocity=64 time=0.024
EXTRACT: note_off channel=13 note=64 velocity=65 time=0.006
EXTRACT: note_on channel=6 note=81 velocity=76 time=0.022
EXTRACT: note_on channel=11 note=93 velocity=86 time=0
EXTRACT: note_on channel=14 note=81 velocity=87 time=0
EXTRACT: note_off channel=5 note=40 velocity=64 time=0.014
EXTRACT: note_off channel=2 note=52 velocity=64 time=0
EXTRACT: note_on channel=9 note=39 velocity=119 time=0.001
EXTRACT: note_off channel=13 note=71 velocity=64 time=0.002
EXTRACT: note_off channel=13 note=67 velocity=64 time=0
EXTRACT: note_on channel=1 note=29 velocity=122 time=0.006
EXTRACT: note_on channel=2 note=41 velocity=125 time=0
EXTRACT: note_on channel=5 note=41 velocity=112 time=0
EXTRACT: note_on channel=9 note=36 velocity=126 time=0
EXTRACT: note_on channel=9 note=38 velocity=117 time=0
EXTRACT: note_on channel=9 note=42 velocity=111 time=0
EXTRACT: note_on channel=9 note=70 velocity=106 time=0
EXTRACT: note_on channel=13 note=65 velocity=89 time=0
EXTRACT: note_off channel=14 note=79 velocity=64 time=0.002
EXTRACT: note_off channel=11 note=91 velocity=64 time=0
EXTRACT: note_off channel=6 note=79 velocity=64 time=0
EXTRACT: note_off channel=10 note=67 velocity=65 time=0.002
EXTRACT: note_off channel=10 note=64 velocity=64 time=0.002
EXTRACT: note_on channel=10 note=65 velocity=104 time=0.004
EXTRACT: note_on channel=10 note=69 velocity=87 time=0
EXTRACT: note_on channel=13 note=69 velocity=35 time=0.007
EXTRACT: note_on channel=13 note=72 velocity=80 time=0
EXTRACT: note_off channel=9 note=39 velocity=64 time=0
EXTRACT: note_off channel=9 note=70 velocity=65 time=0.007
EXTRACT: note_off channel=9 note=42 velocity=65 time=0
EXTRACT: note_off channel=9 note=38 velocity=64 time=0
EXTRACT: note_off channel=9 note=36 velocity=64 time=0
EXTRACT: note_off channel=3 note=81 velocity=64 time=0.05
EXTRACT: note_off channel=5 note=41 velocity=65 time=0.037
EXTRACT: note_off channel=2 note=41 velocity=65 time=0
EXTRACT: note_on channel=2 note=41 velocity=74 time=0.009000000000000001
EXTRACT: note_on channel=5 note=41 velocity=62 time=0
EXTRACT: note_off channel=1 note=29 velocity=65 time=0.084
EXTRACT: note_off channel=5 note=41 velocity=65 time=0.027
EXTRACT: note_off channel=2 note=41 velocity=65 time=0
EXTRACT: note_off channel=4 note=65 velocity=65 time=0
EXTRACT: note_off channel=4 note=60 velocity=65 time=0
EXTRACT: note_on channel=1 note=41 velocity=123 time=0.009000000000000001
EXTRACT: note_on channel=2 note=53 velocity=125 time=0
EXTRACT: note_on channel=4 note=60 velocity=1 time=0
EXTRACT: note_on channel=4 note=65 velocity=1 time=0
EXTRACT: note_on channel=5 note=41 velocity=113 time=0
EXTRACT: note_on channel=9 note=42 velocity=124 time=0
EXTRACT: note_on channel=9 note=70 velocity=106 time=0
EXTRACT: note_on channel=3 note=81 velocity=117 time=0
EXTRACT: note_off channel=9 note=70 velocity=65 time=0.009000000000000001
EXTRACT: note_off channel=9 note=42 velocity=65 time=0
EXTRACT: note_off channel=5 note=41 velocity=64 time=0.066
EXTRACT: note_off channel=2 note=53 velocity=64 time=0
EXTRACT: note_on channel=2 note=53 velocity=124 time=0.009000000000000001
EXTRACT: note_on channel=5 note=41 velocity=113 time=0
EXTRACT: note_on channel=9 note=44 velocity=98 time=0
EXTRACT: note_on channel=9 note=70 velocity=87 time=0
EXTRACT: note_off channel=9 note=70 velocity=64 time=0.024
EXTRACT: note_off channel=9 note=44 velocity=64 time=0
EXTRACT: note_off channel=1 note=41 velocity=65 time=0.06
EXTRACT: note_off channel=5 note=41 velocity=65 time=0.027
EXTRACT: note_off channel=2 note=53 velocity=64 time=0
EXTRACT: note_on channel=1 note=29 velocity=123 time=0.009000000000000001
EXTRACT: note_on channel=2 note=41 velocity=124 time=0
EXTRACT: note_on channel=5 note=41 velocity=112 time=0
EXTRACT: note_on channel=9 note=36 velocity=127 time=0
EXTRACT: note_on channel=9 note=42 velocity=125 time=0
EXTRACT: note_on channel=9 note=70 velocity=107 time=0
EXTRACT: note_off channel=9 note=70 velocity=65 time=0.024
EXTRACT: note_off channel=9 note=42 velocity=64 time=0
EXTRACT: note_off channel=9 note=36 velocity=65 time=0
EXTRACT: note_off channel=5 note=41 velocity=64 time=0.08700000000000001
EXTRACT: note_off channel=2 note=41 velocity=65 time=0
EXTRACT: note_on channel=2 note=41 velocity=75 time=0.009000000000000001
EXTRACT: note_on channel=5 note=41 velocity=62 time=0
EXTRACT: note_off channel=3 note=81 velocity=65 time=0.014
EXTRACT: note_off channel=14 note=81 velocity=65 time=0.06
EXTRACT: note_off channel=11 note=93 velocity=65 time=0
EXTRACT: note_off channel=6 note=81 velocity=65 time=0
EXTRACT: note_off channel=1 note=29 velocity=64 time=0.01
EXTRACT: note_off channel=5 note=41 velocity=64 time=0.027
EXTRACT: note_off channel=2 note=41 velocity=64 time=0
EXTRACT: note_off channel=4 note=65 velocity=64 time=0
EXTRACT: note_on channel=1 note=41 velocity=122 time=0.009000000000000001
EXTRACT: note_on channel=2 note=53 velocity=125 time=0
EXTRACT: note_on channel=4 note=57 velocity=1 time=0
EXTRACT: note_on channel=5 note=41 velocity=113 time=0
EXTRACT: note_on channel=9 note=46 velocity=111 time=0
EXTRACT: note_on channel=9 note=70 velocity=106 time=0
EXTRACT: control_change channel=2 control=6 value=59 time=0
EXTRACT: note_on channel=3 note=72 velocity=117 time=0
EXTRACT: note_on channel=6 note=77 velocity=74 time=0.015
EXTRACT: note_on channel=11 note=89 velocity=82 time=0
EXTRACT: note_on channel=14 note=77 velocity=83 time=0
EXTRACT: note_off channel=9 note=70 velocity=65 time=0.003
EXTRACT: note_off channel=9 note=46 velocity=64 time=0
EXTRACT: note_on channel=6 note=81 velocity=55 time=0.059000000000000004
EXTRACT: note_on channel=11 note=93 velocity=77 time=0
EXTRACT: note_on channel=14 note=81 velocity=76 time=0
EXTRACT: note_off channel=5 note=41 velocity=65 time=0.016
EXTRACT: note_off channel=2 note=53 velocity=65 time=0
EXTRACT: note_on channel=2 note=53 velocity=124 time=0.009000000000000001
EXTRACT: note_on channel=5 note=41 velocity=112 time=0
EXTRACT: note_on channel=9 note=70 velocity=86 time=0
EXTRACT: note_off channel=9 note=70 velocity=65 time=0.024
EXTRACT: note_off channel=14 note=77 velocity=65 time=0.01
EXTRACT: note_off channel=11 note=89 velocity=65 time=0
EXTRACT: note_off channel=6 note=77 velocity=64 time=0
EXTRACT: note_on channel=6 note=84 velocity=80 time=0.012
EXTRACT: note_on channel=11 note=96 velocity=85 time=0
EXTRACT: note_on channel=14 note=84 velocity=84 time=0
EXTRACT: note_off channel=14 note=81 velocity=64 time=0.018000000000000002
EXTRACT: note_off channel=11 note=93 velocity=64 time=0
EXTRACT: note_off channel=6 note=81 velocity=65 time=0
EXTRACT: note_off channel=3 note=72 velocity=65 time=0.01
EXTRACT: note_off channel=1 note=41 velocity=64 time=0.01
EXTRACT: note_on channel=6 note=89 velocity=79 time=0.019
EXTRACT: note_on channel=11 note=101 velocity=84 time=0
EXTRACT: note_on channel=14 note=89 velocity=85 time=0
EXTRACT: note_off channel=5 note=41 velocity=65 time=0.008
EXTRACT: note_off channel=2 note=53 velocity=65 time=0
EXTRACT: note_off channel=4 note=57 velocity=64 time=0
EXTRACT: note_on channel=9 note=39 velocity=118 time=0.001
EXTRACT: note_off channel=4 note=60 velocity=65 time=0.002
EXTRACT: note_on channel=1 note=29 velocity=122 time=0.006
EXTRACT: note_on channel=2 note=41 velocity=124 time=0
EXTRACT: note_on channel=4 note=60 velocity=1 time=0
EXTRACT: note_on channel=4 note=65 velocity=1 time=0
EXTRACT: note_on channel=5 note=41 velocity=113 time=0
EXTRACT: note_on channel=9 note=36 velocity=126 time=0
EXTRACT: note_on channel=9 note=38 velocity=117 time=0
EXTRACT: note_on channel=9 note=42 velocity=113 time=0
EXTRACT: note_on channel=9 note=70 velocity=107 time=0
EXTRACT: note_on channel=3 note=81 velocity=116 time=0
EXTRACT: note_off channel=14 note=84 velocity=65 time=0.012
EXTRACT: note_off channel=11 note=96 velocity=65 time=0
EXTRACT: note_off channel=6 note=84 velocity=65 time=0
EXTRACT: note_off channel=9 note=39 velocity=64 time=0.003
EXTRACT: note_off channel=9 note=70 velocity=64 time=0.007
EXTRACT: note_off channel=9 note=42 velocity=65 time=0
EXTRACT: note_off channel=9 note=38 velocity=65 time=0
EXTRACT: note_off channel=9 note=36 velocity=64 time=0
EXTRACT: control_change channel=13 control=6 value=56 time=0.016
EXTRACT: note_off channel=5 note=41 velocity=64 time=0.07100000000000001
EXTRACT: note_off channel=2 note=41 velocity=64 time=0
EXTRACT: note_on channel=2 note=41 velocity=75 time=0.009000000000000001
EXTRACT: note_on channel=5 note=41 velocity=63 time=0
EXTRACT: control_change channel=1 control=6 value=50 time=0.075
EXTRACT: note_off channel=1 note=29 velocity=65 time=0.009000000000000001
EXTRACT: note_off channel=3 note=81 velocity=64 time=0.01
EXTRACT: note_off channel=14 note=89 velocity=64 time=0
EXTRACT: note_off channel=11 note=101 velocity=64 time=0
EXTRACT: note_off channel=6 note=89 velocity=64 time=0
EXTRACT: note_on channel=6 note=88 velocity=75 time=0.016
EXTRACT: note_on channel=11 note=100 velocity=80 time=0
EXTRACT: note_on channel=14 note=88 velocity=81 time=0
EXTRACT: note_off channel=5 note=41 velocity=64 time=0.001
EXTRACT: note_off channel=2 note=41 velocity=65 time=0
EXTRACT: note_off channel=4 note=65 velocity=65 time=0
EXTRACT: note_off channel=4 note=60 velocity=64 time=0
EXTRACT: note_on channel=1 note=31 velocity=123 time=0.009000000000000001
EXTRACT: note_on channel=2 note=55 velocity=125 time=0
EXTRACT: note_on channel=4 note=60 velocity=1 time=0
EXTRACT: note_on channel=4 note=64 velocity=1 time=0
EXTRACT: note_on channel=5 note=43 velocity=112 time=0
EXTRACT: note_on channel=9 note=42 velocity=108 time=0
EXTRACT: note_on channel=9 note=70 velocity=106 time=0
EXTRACT: note_on channel=13 note=67 velocity=80 time=0
EXTRACT: note_on channel=13 note=71 velocity=65 time=0
EXTRACT: note_off channel=10 note=69 velocity=64 time=0.004
EXTRACT: note_off channel=10 note=65 velocity=65 time=0
EXTRACT: note_on channel=10 note=71 velocity=87 time=0.006
EXTRACT: note_on channel=10 note=67 velocity=86 time=0
EXTRACT: note_off channel=13 note=72 velocity=65 time=0.001
EXTRACT: note_off channel=13 note=69 velocity=65 time=0
EXTRACT: note_off channel=13 note=65 velocity=64 time=0
EXTRACT: note_on channel=13 note=74 velocity=62 time=0.009000000000000001
EXTRACT: note_off channel=9 note=70 velocity=64 time=0.004
EXTRACT: note_off channel=9 note=42 velocity=65 time=0
EXTRACT: note_on channel=3 note=79 velocity=116 time=0
EXTRACT: note_off channel=5 note=43 velocity=65 time=0.046
EXTRACT: note_off channel=2 note=55 velocity=64 time=0
EXTRACT: note_on channel=2 note=55 velocity=124 time=0.009000000000000001
EXTRACT: note_on channel=5 note=43 velocity=113 time=0
EXTRACT: note_on channel=9 note=44 velocity=99 time=0
EXTRACT: note_on channel=9 note=70 velocity=87 time=0
EXTRACT: note_off channel=14 note=88 velocity=64 time=0.004
EXTRACT: note_off channel=11 note=100 velocity=64 time=0
EXTRACT: note_off channel=6 note=88 velocity=65 time=0
EXTRACT: note_on channel=6 note=84 velocity=72 time=0.003
EXTRACT: note_on channel=11 note=96 velocity=79 time=0
EXTRACT: note_on channel=14 note=84 velocity=78 time=0
EXTRACT: note_off channel=9 note=70 velocity=65 time=0.017
EXTRACT: note_off channel=9 note=44 velocity=64 time=0
EXTRACT: note_off channel=1 note=31 velocity=64 time=0.06
EXTRACT: control_change channel=9 control=91 value=20 time=0.006
EXTRACT: note_off channel=5 note=43 velocity=65 time=0.021
EXTRACT: note_off channel=2 note=55 velocity=64 time=0
EXTRACT: note_off channel=13 note=74 velocity=64 time=0.003
EXTRACT: note_off channel=13 note=71 velocity=65 time=0
EXTRACT: note_off channel=13 note=67 velocity=64 time=0
EXTRACT: note_on channel=1 note=33 velocity=122 time=0.006
EXTRACT: note_on channel=2 note=45 velocity=124 time=0
EXTRACT: note_on channel=5 note=45 velocity=112 time=0
EXTRACT: note_on channel=9 note=36 velocity=126 time=0
EXTRACT: note_on channel=9 note=42 velocity=125 time=0
EXTRACT: note_on channel=9 note=70 velocity=107 time=0
EXTRACT: note_on channel=13 note=69 velocity=57 time=0
EXTRACT: note_off channel=10 note=67 velocity=65 time=0.004
EXTRACT: note_off channel=10 note=71 velocity=64 time=0
EXTRACT: note_on channel=6 note=81 velocity=79 time=0.003
EXTRACT: note_on channel=11 note=93 velocity=84 time=0
EXTRACT: note_on channel=14 note=81 velocity=84 time=0
EXTRACT: note_on channel=13 note=76 velocity=69 time=0.002
EXTRACT: note_on channel=10 note=72 velocity=102 time=0.001
EXTRACT: note_on channel=10 note=69 velocity=93 time=0
EXTRACT: note_on channel=13 note=72 velocity=60 time=0.002
EXTRACT: note_off channel=14 note=84 velocity=65 time=0.001
EXTRACT: note_off channel=11 note=96 velocity=65 time=0
EXTRACT: note_off channel=6 note=84 velocity=64 time=0
EXTRACT: note_off channel=9 note=70 velocity=64 time=0.011
EXTRACT: note_off channel=9 note=42 velocity=65 time=0
EXTRACT: note_off channel=9 note=36 velocity=64 time=0
EXTRACT: note_off channel=5 note=45 velocity=64 time=0.08700000000000001
EXTRACT: note_off channel=2 note=45 velocity=65 time=0
EXTRACT: note_on channel=2 note=45 velocity=75 time=0.009000000000000001
EXTRACT: note_on channel=5 note=45 velocity=62 time=0
EXTRACT: note_off channel=3 note=79 velocity=64 time=0.006
EXTRACT: note_off channel=1 note=33 velocity=65 time=0.093
EXTRACT: note_off channel=5 note=45 velocity=64 time=0.012
EXTRACT: note_off channel=2 note=45 velocity=65 time=0
EXTRACT: note_on channel=1 note=45 velocity=123 time=0.009000000000000001
EXTRACT: note_on channel=2 note=57 velocity=124 time=0
EXTRACT: note_on channel=5 note=45 velocity=113 time=0
EXTRACT: note_on channel=9 note=46 velocity=110 time=0
EXTRACT: note_on channel=9 note=70 velocity=106 time=0
EXTRACT: note_off channel=9 note=70 velocity=65 time=0.024
EXTRACT: note_off channel=9 note=46 velocity=65 time=0
EXTRACT: note_off channel=5 note=45 velocity=65 time=0.08700000000000001
EXTRACT: note_off channel=2 note=57 velocity=64 time=0
EXTRACT: note_on channel=2 note=57 velocity=125 time=0.009000000000000001
EXTRACT: note_on channel=5 note=45 velocity=113 time=0
EXTRACT: note_on channel=9 note=70 velocity=87 time=0
EXTRACT: note_off channel=9 note=70 velocity=64 time=0.024
EXTRACT: note_off channel=1 note=45 velocity=65 time=0.06
EXTRACT: note_off channel=5 note=45 velocity=64 time=0.027
EXTRACT: note_off channel=2 note=57 velocity=64 time=0
EXTRACT: note_on channel=9 note=39 velocity=119 time=0.001
EXTRACT: note_on channel=1 note=33 velocity=123 time=0.008
EXTRACT: note_on channel=2 note=45 velocity=125 time=0
EXTRACT: note_on channel=5 note=45 velocity=112 time=0
EXTRACT: note_on channel=9 note=36 velocity=127 time=0
EXTRACT: note_on channel=9 note=38 velocity=116 time=0
EXTRACT: note_on channel=9 note=42 velocity=122 time=0
EXTRACT: note_on channel=9 note=70 velocity=106 time=0
EXTRACT: note_off channel=9 note=39 velocity=65 time=0.017
EXTRACT: note_off channel=9 note=70 velocity=64 time=0.007
EXTRACT: note_off channel=9 note=42 velocity=64 time=0
EXTRACT: note_off channel=9 note=38 velocity=65 time=0
EXTRACT: note_off channel=9 note=36 velocity=65 time=0
EXTRACT: note_off channel=5 note=45 velocity=65 time=0.08700000000000001
EXTRACT: note_off channel=2 note=45 velocity=65 time=0
EXTRACT: note_on channel=2 note=45 velocity=74 time=0.009000000000000001
EXTRACT: note_on channel=5 note=45 velocity=62 time=0
EXTRACT: note_off channel=1 note=33 velocity=64 time=0.099
EXTRACT: note_off channel=5 note=45 velocity=65 time=0.012
EXTRACT: note_off channel=2 note=45 velocity=65 time=0
EXTRACT: note_on channel=1 note=45 velocity=122 time=0.009000000000000001
EXTRACT: note_on channel=2 note=57 velocity=125 time=0
EXTRACT: note_on channel=5 note=45 velocity=113 time=0
EXTRACT: note_on channel=9 note=42 velocity=116 time=0
EXTRACT: note_on channel=9 note=70 velocity=106 time=0
EXTRACT: note_off channel=9 note=70 velocity=64 time=0.024
EXTRACT: note_off channel=9 note=42 velocity=64 time=0
EXTRACT: control_change channel=13 control=6 value=58 time=0.056
EXTRACT: note_off channel=5 note=45 velocity=64 time=0.031
EXTRACT: note_off channel=2 note=57 velocity=64 time=0
EXTRACT: note_on channel=2 note=57 velocity=124 time=0.009000000000000001
EXTRACT: note_on channel=5 note=45 velocity=113 time=0
EXTRACT: note_on channel=9 note=44 velocity=99 time=0
EXTRACT: note_on channel=9 note=70 velocity=87 time=0
EXTRACT: note_off channel=9 note=70 velocity=65 time=0.024
EXTRACT: note_off channel=9 note=44 velocity=65 time=0
EXTRACT: note_off channel=1 note=45 velocity=65 time=0.06
EXTRACT: note_off channel=5 note=45 velocity=65 time=0.027
EXTRACT: note_off channel=2 note=57 velocity=64 time=0
EXTRACT: note_on channel=1 note=33 velocity=123 time=0.009000000000000001
EXTRACT: note_on channel=2 note=45 velocity=124 time=0
EXTRACT: note_on channel=5 note=45 velocity=112 time=0
EXTRACT: note_on channel=9 note=36 velocity=127 time=0
EXTRACT: note_on channel=9 note=42 velocity=125 time=0
EXTRACT: note_on channel=9 note=70 velocity=107 time=0
EXTRACT: note_off channel=9 note=70 velocity=64 time=0.024
EXTRACT: note_off channel=9 note=42 velocity=64 time=0
EXTRACT: note_off channel=9 note=36 velocity=65 time=0
EXTRACT: control_change channel=1 control=6 value=52 time=0.066
EXTRACT: note_off channel=14 note=81 velocity=65 time=0.002
EXTRACT: note_off channel=11 note=93 velocity=65 time=0
EXTRACT: note_off channel=6 note=81 velocity=64 time=0
EXTRACT: note_off channel=5 note=45 velocity=64 time=0.019
EXTRACT: note_off channel=2 note=45 velocity=65 time=0
EXTRACT: note_off channel=4 note=64 velocity=64 time=0.003
EXTRACT: note_off channel=4 note=60 velocity=65 time=0
EXTRACT: note_on channel=2 note=45 velocity=75 time=0.006
EXTRACT: note_on channel=5 note=45 velocity=62 time=0
EXTRACT: note_off channel=1 note=33 velocity=64 time=0.084
EXTRACT: note_off channel=5 note=45 velocity=64 time=0.027
EXTRACT: note_off channel=2 note=45 velocity=64 time=0
EXTRACT: note_on channel=1 note=45 velocity=122 time=0.009000000000000001
EXTRACT: note_on channel=2 note=57 velocity=125 time=0
EXTRACT: note_on channel=4 note=57 velocity=1 time=0
EXTRACT: note_on channel=4 note=60 velocity=1 time=0
EXTRACT: note_on channel=5 note=45 velocity=113 time=0
EXTRACT: note_on channel=9 note=59 velocity=53 time=0
EXTRACT: note_on channel=9 note=46 velocity=107 time=0
EXTRACT: note_on channel=9 note=70 velocity=106 time=0
EXTRACT: note_on channel=3 note=77 velocity=117 time=0
EXTRACT: note_off channel=9 note=70 velocity=64 time=0.02
EXTRACT: note_off channel=9 note=46 velocity=65 time=0
EXTRACT: note_off channel=9 note=59 velocity=65 time=0
EXTRACT: note_on channel=6 note=76 velocity=72 time=0.014
EXTRACT: note_on channel=11 note=88 velocity=89 time=0
EXTRACT: note_on channel=14 note=76 velocity=89 time=0
EXTRACT: note_off channel=5 note=45 velocity=65 time=0.063
EXTRACT: note_off channel=2 note=57 velocity=65 time=0
EXTRACT: note_on channel=6 note=81 velocity=68 time=0.005
EXTRACT: note_on channel=11 note=93 velocity=81 time=0
EXTRACT: note_on channel=14 note=81 velocity=80 time=0
EXTRACT: note_on channel=2 note=57 velocity=124 time=0.004
EXTRACT: note_on channel=5 note=45 velocity=112 time=0
EXTRACT: note_on channel=9 note=70 velocity=86 time=0
EXTRACT: note_off channel=3 note=77 velocity=65 time=0.018000000000000002
EXTRACT: note_off channel=9 note=70 velocity=64 time=0.006
EXTRACT: note_on channel=6 note=84 velocity=69 time=0.031
EXTRACT: note_on channel=11 note=96 velocity=82 time=0
EXTRACT: note_on channel=14 note=84 velocity=83 time=0
EXTRACT: note_off channel=14 note=76 velocity=64 time=0.026000000000000002
EXTRACT: note_off channel=11 note=88 velocity=64 time=0
EXTRACT: note_off channel=6 note=76 velocity=65 time=0
EXTRACT: note_off channel=1 note=45 velocity=64 time=0.003
EXTRACT: note_off channel=5 note=45 velocity=65 time=0.027
EXTRACT: note_off channel=2 note=57 velocity=65 time=0
EXTRACT: note_on channel=9 note=39 velocity=119 time=0.001
EXTRACT: note_off channel=4 note=60 velocity=64 time=0.002
EXTRACT: note_off channel=13 note=76 velocity=65 time=0
EXTRACT: note_on channel=3 note=79 velocity=116 time=0
EXTRACT: note_on channel=6 note=88 velocity=83 time=0.003
EXTRACT: note_on channel=11 note=100 velocity=87 time=0
EXTRACT: note_on channel=14 note=88 velocity=87 time=0
EXTRACT: note_off channel=14 note=81 velocity=64 time=0
EXTRACT: note_off channel=11 note=93 velocity=64 time=0
EXTRACT: note_off channel=6 note=81 velocity=65 time=0
EXTRACT: note_on channel=1 note=33 velocity=122 time=0.002
EXTRACT: note_on channel=2 note=45 velocity=124 time=0
EXTRACT: note_on channel=4 note=62 velocity=1 time=0
EXTRACT: note_on channel=5 note=45 velocity=113 time=0
EXTRACT: note_on channel=9 note=59 velocity=46 time=0
EXTRACT: note_on channel=9 note=36 velocity=126 time=0
EXTRACT: note_on channel=9 note=38 velocity=116 time=0
EXTRACT: note_on channel=9 note=42 velocity=117 time=0
EXTRACT: note_on channel=9 note=70 velocity=107 time=0
EXTRACT: note_on channel=13 note=77 velocity=69 time=0
EXTRACT: note_off channel=9 note=39 velocity=65 time=0.017
EXTRACT: note_off channel=9 note=70 velocity=64 time=0.007
EXTRACT: note_off channel=9 note=42 velocity=64 time=0
EXTRACT: note_off channel=9 note=38 velocity=65 time=0
EXTRACT: note_off channel=9 note=36 velocity=65 time=0
EXTRACT: note_off channel=9 note=59 velocity=64 time=0
EXTRACT: note_off channel=14 note=84 velocity=65 time=0.02
EXTRACT: note_off channel=11 note=96 velocity=65 time=0
EXTRACT: note_off channel=6 note=84 velocity=64 time=0
EXTRACT: note_off channel=5 note=45 velocity=64 time=0.067
EXTRACT: note_off channel=2 note=45 velocity=64 time=0
EXTRACT: note_on channel=2 note=45 velocity=75 time=0.009000000000000001
EXTRACT: note_on channel=5 note=45 velocity=63 time=0
EXTRACT: note_off channel=14 note=88 velocity=65 time=0.044
EXTRACT: note_off channel=11 note=100 velocity=65 time=0
EXTRACT: note_off channel=6 note=88 velocity=64 time=0
EXTRACT: note_on channel=12 note=76 velocity=127 time=0.033
EXTRACT: pitchwheel channel=3 pitch=-2566 time=0.006
EXTRACT: note_off channel=1 note=33 velocity=65 time=0.001
EXTRACT: note_on channel=12 note=84 velocity=126 time=0.003
EXTRACT: pitchwheel channel=3 pitch=-5048 time=0.011
EXTRACT: pitchwheel channel=3 pitch=-8186 time=0.013000000000000001
EXTRACT: note_off channel=5 note=45 velocity=64 time=0
EXTRACT: note_off channel=2 note=45 velocity=65 time=0
EXTRACT: note_on channel=6 note=88 velocity=82 time=0.002
EXTRACT: note_on channel=11 note=100 velocity=86 time=0
EXTRACT: note_on channel=14 note=88 velocity=86 time=0
EXTRACT: note_off channel=4 note=62 velocity=65 time=0.001
EXTRACT: note_on channel=1 note=43 velocity=123 time=0.006
EXTRACT: note_on channel=2 note=55 velocity=125 time=0
EXTRACT: note_on channel=4 note=60 velocity=1 time=0
EXTRACT: note_on channel=5 note=43 velocity=112 time=0
EXTRACT: note_on channel=9 note=59 velocity=53 time=0
EXTRACT: note_on channel=9 note=42 velocity=116 time=0
EXTRACT: note_on channel=9 note=70 velocity=107 time=0
EXTRACT: note_off channel=9 note=70 velocity=64 time=0.024
EXTRACT: note_off channel=9 note=42 velocity=65 time=0
EXTRACT: note_off channel=9 note=59 velocity=65 time=0
EXTRACT: note_off channel=14 note=88 velocity=64 time=0
EXTRACT: note_off channel=11 note=100 velocity=64 time=0
EXTRACT: note_off channel=6 note=88 velocity=65 time=0
EXTRACT: note_on channel=6 note=84 velocity=82 time=0.019
EXTRACT: note_on channel=11 note=96 velocity=86 time=0
EXTRACT: note_on channel=14 note=84 velocity=87 time=0
EXTRACT: note_on channel=6 note=81 velocity=77 time=0.056
EXTRACT: note_on channel=11 note=93 velocity=83 time=0
EXTRACT: note_on channel=14 note=81 velocity=82 time=0
EXTRACT: note_off channel=14 note=84 velocity=64 time=0.005
EXTRACT: note_off channel=11 note=96 velocity=64 time=0
EXTRACT: note_off channel=6 note=84 velocity=65 time=0
EXTRACT: note_off channel=5 note=43 velocity=65 time=0.007
EXTRACT: note_off channel=2 note=55 velocity=64 time=0
EXTRACT: note_off channel=1 note=43 velocity=65 time=0.003
EXTRACT: note_on channel=1 note=41 velocity=123 time=0.006
EXTRACT: note_on channel=2 note=53 velocity=124 time=0
EXTRACT: note_on channel=5 note=41 velocity=113 time=0
EXTRACT: note_on channel=9 note=44 velocity=98 time=0
EXTRACT: note_on channel=9 note=70 velocity=86 time=0
EXTRACT: note_off channel=9 note=70 velocity=64 time=0.024
EXTRACT: note_off channel=9 note=44 velocity=64 time=0
EXTRACT: note_off channel=14 note=81 velocity=65 time=0.02
EXTRACT: note_off channel=11 note=93 velocity=65 time=0
EXTRACT: note_off channel=6 note=81 velocity=64 time=0
EXTRACT: note_off channel=3 note=79 velocity=64 time=0.01
EXTRACT: note_on channel=6 note=77 velocity=79 time=0.013000000000000001
EXTRACT: note_on channel=11 note=89 velocity=85 time=0
EXTRACT: note_on channel=14 note=77 velocity=84 time=0
EXTRACT: control_change channel=13 control=6 value=60 time=0.013000000000000001
EXTRACT: note_off channel=10 note=72 velocity=64 time=0.006
EXTRACT: note_off channel=10 note=69 velocity=65 time=0.005
EXTRACT: pitchwheel channel=3 pitch=0 time=0.008
EXTRACT: note_off channel=12 note=76 velocity=65 time=0.007
EXTRACT: note_off channel=5 note=41 velocity=65 time=0.005
EXTRACT: note_off channel=2 note=53 velocity=64 time=0
EXTRACT: note_off channel=1 note=41 velocity=64 time=0.003
EXTRACT: note_off channel=4 note=60 velocity=65 time=0
EXTRACT: note_off channel=13 note=72 velocity=65 time=0
EXTRACT: note_off channel=13 note=69 velocity=64 time=0
EXTRACT: note_off channel=12 note=84 velocity=64 time=0.002
EXTRACT: note_on channel=1 note=26 velocity=122 time=0.004
EXTRACT: note_on channel=2 note=38 velocity=124 time=0
EXTRACT: note_on channel=4 note=62 velocity=1 time=0
EXTRACT: note_on channel=5 note=38 velocity=112 time=0
EXTRACT: note_on channel=9 note=59 velocity=83 time=0
EXTRACT: note_on channel=9 note=36 velocity=126 time=0
EXTRACT: note_on channel=9 note=42 velocity=116 time=0
EXTRACT: note_on channel=9 note=70 velocity=106 time=0
EXTRACT: note_on channel=13 note=62 velocity=56 time=0
EXTRACT: note_on channel=13 note=65 velocity=52 time=0
EXTRACT: note_on channel=13 note=74 velocity=47 time=0.002
EXTRACT: note_on channel=13 note=69 velocity=63 time=0.003
EXTRACT: note_on channel=3 note=79 velocity=117 time=0
EXTRACT: note_on channel=6 note=74 velocity=76 time=0
EXTRACT: note_on channel=11 note=86 velocity=84 time=0
EXTRACT: note_on channel=14 note=74 velocity=85 time=0
EXTRACT: note_on channel=10 note=65 velocity=95 time=0.002
EXTRACT: note_on channel=10 note=69 velocity=100 time=0
EXTRACT: note_off channel=14 note=77 velocity=64 time=0.004
EXTRACT: note_off channel=11 note=89 velocity=64 time=0
EXTRACT: note_off channel=6 note=77 velocity=64 time=0
EXTRACT: note_off channel=9 note=70 velocity=65 time=0.01
EXTRACT: note_off channel=9 note=42 velocity=64 time=0
EXTRACT: note_off channel=9 note=36 velocity=65 time=0
EXTRACT: note_off channel=9 note=59 velocity=65 time=0
EXTRACT: note_off channel=13 note=77 velocity=65 time=0.005
EXTRACT: note_off channel=5 note=38 velocity=64 time=0.082
EXTRACT: note_off channel=2 note=38 velocity=65 time=0
EXTRACT: note_on channel=2 note=38 velocity=75 time=0.009000000000000001
EXTRACT: note_on channel=5 note=38 velocity=62 time=0
EXTRACT: note_off channel=3 note=79 velocity=65 time=0.069
EXTRACT: note_off channel=1 note=26 velocity=64 time=0.015
EXTRACT: note_off channel=5 note=38 velocity=64 time=0.027
EXTRACT: note_off channel=2 note=38 velocity=65 time=0
EXTRACT: note_off channel=4 note=62 velocity=64 time=0.003
EXTRACT: note_on channel=1 note=38 velocity=122 time=0.006
EXTRACT: note_on channel=2 note=50 velocity=124 time=0
EXTRACT: note_on channel=4 note=60 velocity=1 time=0
EXTRACT: note_on channel=5 note=38 velocity=113 time=0
EXTRACT: note_on channel=9 note=59 velocity=66 time=0
EXTRACT: note_on channel=9 note=46 velocity=105 time=0
EXTRACT: note_on channel=9 note=70 velocity=107 time=0
EXTRACT: note_on channel=3 note=77 velocity=117 time=0
EXTRACT: note_off channel=9 note=70 velocity=64 time=0.006
EXTRACT: note_off channel=9 note=46 velocity=65 time=0
EXTRACT: note_off channel=9 note=59 velocity=64 time=0
EXTRACT: note_off channel=5 note=38 velocity=65 time=0.08700000000000001
EXTRACT: note_off channel=2 note=50 velocity=64 time=0
EXTRACT: note_off channel=1 note=38 velocity=65 time=0.003
EXTRACT: note_on channel=2 note=50 velocity=125 time=0.006
EXTRACT: note_on channel=5 note=38 velocity=113 time=0
EXTRACT: note_on channel=9 note=70 velocity=86 time=0
EXTRACT: note_off channel=9 note=70 velocity=64 time=0.024
EXTRACT: note_off channel=5 note=38 velocity=64 time=0.08700000000000001
EXTRACT: note_off channel=2 note=50 velocity=64 time=0
EXTRACT: note_on channel=9 note=39 velocity=118 time=0.001
EXTRACT: note_on channel=1 note=26 velocity=123 time=0.008
EXTRACT: note_on channel=2 note=38 velocity=125 time=0
EXTRACT: note_on channel=5 note=38 velocity=112 time=0
EXTRACT: note_on channel=9 note=59 velocity=79 time=0
EXTRACT: note_on channel=9 note=36 velocity=127 time=0
EXTRACT: note_on channel=9 note=38 velocity=117 time=0
EXTRACT: note_on channel=9 note=42 velocity=117 time=0
EXTRACT: note_on channel=9 note=70 velocity=107 time=0
EXTRACT: note_off channel=9 note=39 velocity=65 time=0.017
EXTRACT: note_off channel=9 note=70 velocity=65 time=0.007
EXTRACT: note_off channel=9 note=42 velocity=64 time=0
EXTRACT: note_off channel=9 note=38 velocity=64 time=0
EXTRACT: note_off channel=9 note=36 velocity=65 time=0
EXTRACT: note_off channel=9 note=59 velocity=65 time=0
EXTRACT: note_off channel=5 note=38 velocity=65 time=0.08700000000000001
EXTRACT: note_off channel=2 note=38 velocity=65 time=0
EXTRACT: note_on channel=2 note=38 velocity=74 time=0.009000000000000001
EXTRACT: note_on channel=5 note=38 velocity=62 time=0
EXTRACT: note_off channel=3 note=77 velocity=65 time=0.034
EXTRACT: note_off channel=1 note=26 velocity=65 time=0.05
EXTRACT: note_off channel=5 note=38 velocity=65 time=0.027
EXTRACT: note_off channel=2 note=38 velocity=65 time=0
EXTRACT: note_off channel=4 note=60 velocity=65 time=0.003
EXTRACT: note_on channel=1 note=38 velocity=123 time=0.006
EXTRACT: note_on channel=2 note=50 velocity=125 time=0
EXTRACT: note_on channel=4 note=60 velocity=1 time=0
EXTRACT: note_on channel=5 note=38 velocity=113 time=0
EXTRACT: note_on channel=9 note=59 velocity=82 time=0
EXTRACT: note_on channel=9 note=42 velocity=115 time=0
EXTRACT: note_on channel=9 note=70 velocity=107 time=0
EXTRACT: note_on channel=3 note=77 velocity=116 time=0
EXTRACT: note_off channel=9 note=70 velocity=64 time=0.011
EXTRACT: note_off channel=9 note=42 velocity=64 time=0
EXTRACT: note_off channel=9 note=59 velocity=65 time=0
EXTRACT: note_off channel=5 note=38 velocity=64 time=0.08700000000000001
EXTRACT: note_off channel=2 note=50 velocity=64 time=0
EXTRACT: note_off channel=1 note=38 velocity=64 time=0.003
EXTRACT: note_on channel=2 note=50 velocity=124 time=0.006
EXTRACT: note_on channel=5 note=38 velocity=113 time=0
EXTRACT: note_on channel=9 note=44 velocity=98 time=0
EXTRACT: note_on channel=9 note=70 velocity=86 time=0
EXTRACT: note_off channel=9 note=70 velocity=64 time=0.024
EXTRACT: note_off channel=9 note=44 velocity=65 time=0
EXTRACT: control_change channel=6 control=98 value=33 time=0.016
EXTRACT: note_off channel=3 note=77 velocity=64 time=0.034
EXTRACT: note_off channel=5 note=38 velocity=65 time=0.037
EXTRACT: note_off channel=2 note=50 velocity=64 time=0
EXTRACT: note_off channel=4 note=60 velocity=64 time=0
EXTRACT: note_off channel=4 note=57 velocity=64 time=0.003
EXTRACT: note_on channel=1 note=26 velocity=122 time=0.006
EXTRACT: note_on channel=2 note=38 velocity=124 time=0
EXTRACT: note_on channel=4 note=55 velocity=1 time=0
EXTRACT: note_on channel=5 note=38 velocity=112 time=0
EXTRACT: note_on channel=9 note=59 velocity=76 time=0
EXTRACT: note_on channel=9 note=36 velocity=127 time=0
EXTRACT: note_on channel=9 note=42 velocity=118 time=0
EXTRACT: note_on channel=9 note=70 velocity=107 time=0
EXTRACT: note_on channel=3 note=72 velocity=117 time=0
EXTRACT: note_off channel=9 note=70 velocity=65 time=0.012
EXTRACT: note_off channel=9 note=42 velocity=64 time=0
EXTRACT: note_off channel=9 note=36 velocity=65 time=0
EXTRACT: note_off channel=9 note=59 velocity=64 time=0
EXTRACT: note_off channel=5 note=38 velocity=64 time=0.039
EXTRACT: note_off channel=2 note=38 velocity=65 time=0
EXTRACT: note_on channel=2 note=38 velocity=75 time=0.009000000000000001
EXTRACT: note_on channel=5 note=38 velocity=62 time=0
EXTRACT: note_off channel=14 note=74 velocity=65 time=0.074
EXTRACT: note_off channel=11 note=86 velocity=65 time=0
EXTRACT: note_off channel=6 note=74 velocity=65 time=0
EXTRACT: note_off channel=1 note=26 velocity=64 time=0.01
EXTRACT: note_off channel=5 note=38 velocity=64 time=0.027
EXTRACT: note_off channel=2 note=38 velocity=64 time=0
EXTRACT: note_off channel=4 note=55 velocity=65 time=0
EXTRACT: pitchwheel channel=3 pitch=1609 time=0.004
EXTRACT: note_on channel=1 note=38 velocity=122 time=0.005
EXTRACT: note_on channel=2 note=50 velocity=125 time=0
EXTRACT: note_on channel=4 note=57 velocity=1 time=0
EXTRACT: note_on channel=5 note=38 velocity=113 time=0
EXTRACT: note_on channel=9 note=59 velocity=79 time=0
EXTRACT: note_on channel=9 note=46 velocity=106 time=0
EXTRACT: note_on channel=9 note=70 velocity=106 time=0
EXTRACT: pitchwheel channel=3 pitch=6536 time=0.01
EXTRACT: note_on channel=6 note=74 velocity=66 time=0.011
EXTRACT: note_on channel=11 note=86 velocity=72 time=0
EXTRACT: note_on channel=14 note=74 velocity=73 time=0
EXTRACT: pitchwheel channel=3 pitch=8063 time=0.002
EXTRACT: note_off channel=9 note=70 velocity=64 time=0.001
EXTRACT: note_off channel=9 note=46 velocity=65 time=0
EXTRACT: note_off channel=9 note=59 velocity=65 time=0
EXTRACT: note_on channel=6 note=77 velocity=83 time=0.07200000000000001
EXTRACT: note_on channel=11 note=89 velocity=75 time=0
EXTRACT: note_on channel=14 note=77 velocity=74 time=0
EXTRACT: note_off channel=5 note=38 velocity=65 time=0.015
EXTRACT: note_off channel=2 note=50 velocity=65 time=0
EXTRACT: note_off channel=14 note=74 velocity=65 time=0.003
EXTRACT: note_off channel=11 note=86 velocity=65 time=0
EXTRACT: note_off channel=6 note=74 velocity=64 time=0
EXTRACT: note_off channel=1 note=38 velocity=65 time=0
EXTRACT: note_on channel=2 note=50 velocity=124 time=0.006
EXTRACT: note_on channel=5 note=38 velocity=112 time=0
EXTRACT: note_on channel=9 note=70 velocity=86 time=0
EXTRACT: note_off channel=9 note=70 velocity=64 time=0.024
EXTRACT: note_on channel=6 note=81 velocity=82 time=0.028
EXTRACT: note_on channel=11 note=93 velocity=91 time=0
EXTRACT: note_on channel=14 note=81 velocity=90 time=0
EXTRACT: note_off channel=14 note=77 velocity=64 time=0.022
EXTRACT: note_off channel=11 note=89 velocity=64 time=0
EXTRACT: note_off channel=6 note=77 velocity=65 time=0
EXTRACT: control_change channel=9 control=91 value=30 time=0.016
EXTRACT: note_off channel=5 note=38 velocity=65 time=0.021
EXTRACT: note_off channel=2 note=50 velocity=65 time=0
EXTRACT: note_on channel=9 note=39 velocity=119 time=0.001
EXTRACT: note_on channel=1 note=26 velocity=123 time=0.008
EXTRACT: note_on channel=2 note=38 velocity=124 time=0
EXTRACT: note_on channel=5 note=38 velocity=113 time=0
EXTRACT: note_on channel=9 note=59 velocity=85 time=0
EXTRACT: note_on channel=9 note=36 velocity=126 time=0
EXTRACT: note_on channel=9 note=38 velocity=117 time=0
EXTRACT: note_on channel=9 note=42 velocity=122 time=0
EXTRACT: note_on channel=9 note=70 velocity=107 time=0
EXTRACT: note_on channel=6 note=86 velocity=85 time=0.001
EXTRACT: note_on channel=11 note=98 velocity=82 time=0
EXTRACT: note_on channel=14 note=86 velocity=83 time=0
EXTRACT: note_off channel=3 note=72 velocity=65 time=0.013000000000000001
EXTRACT: note_off channel=9 note=39 velocity=64 time=0.003
EXTRACT: note_off channel=9 note=70 velocity=65 time=0.007
EXTRACT: note_off channel=9 note=42 velocity=65 time=0
EXTRACT: note_off channel=9 note=38 velocity=64 time=0
EXTRACT: note_off channel=9 note=36 velocity=64 time=0
EXTRACT: note_off channel=9 note=59 velocity=65 time=0
EXTRACT: note_off channel=14 note=81 velocity=65 time=0
EXTRACT: note_off channel=11 note=93 velocity=65 time=0
EXTRACT: note_off channel=6 note=81 velocity=65 time=0
EXTRACT: note_on channel=12 note=70 velocity=106 time=0.049
EXTRACT: note_off channel=5 note=38 velocity=64 time=0.038
EXTRACT: note_off channel=2 note=38 velocity=64 time=0
EXTRACT: note_on channel=2 note=38 velocity=75 time=0.009000000000000001
EXTRACT: note_on channel=5 note=38 velocity=63 time=0
EXTRACT: pitchwheel channel=3 pitch=128 time=0.002
EXTRACT: note_off channel=14 note=86 velocity=64 time=0.032
EXTRACT: note_off channel=11 note=98 velocity=64 time=0
EXTRACT: note_off channel=6 note=86 velocity=64 time=0
EXTRACT: note_off channel=1 note=26 velocity=64 time=0.05
EXTRACT: note_off channel=5 note=38 velocity=64 time=0.027
EXTRACT: note_off channel=2 note=38 velocity=65 time=0
EXTRACT: note_on channel=6 note=86 velocity=83 time=0.002
EXTRACT: note_on channel=11 note=98 velocity=88 time=0
EXTRACT: note_on channel=14 note=86 velocity=89 time=0
EXTRACT: note_on channel=1 note=38 velocity=122 time=0.007
EXTRACT: note_on channel=2 note=50 velocity=125 time=0
EXTRACT: note_on channel=5 note=38 velocity=112 time=0
EXTRACT: note_on channel=9 note=59 velocity=78 time=0
EXTRACT: note_on channel=9 note=42 velocity=123 time=0
EXTRACT: note_on channel=9 note=70 velocity=107 time=0
EXTRACT: note_off channel=9 note=70 velocity=64 time=0.024
EXTRACT: note_off channel=9 note=42 velocity=65 time=0
EXTRACT: note_off channel=9 note=59 velocity=65 time=0
EXTRACT: note_on channel=6 note=81 velocity=80 time=0.032
EXTRACT: note_on channel=11 note=93 velocity=85 time=0
EXTRACT: note_on channel=14 note=81 velocity=84 time=0
EXTRACT: note_off channel=14 note=86 velocity=64 time=0.008
EXTRACT: note_off channel=11 note=98 velocity=64 time=0
EXTRACT: note_off channel=6 note=86 velocity=65 time=0
EXTRACT: note_off channel=5 note=38 velocity=65 time=0.047
EXTRACT: note_off channel=2 note=50 velocity=64 time=0
EXTRACT: note_off channel=1 note=38 velocity=65 time=0.003
EXTRACT: note_off channel=13 note=69 velocity=64 time=0
EXTRACT: note_on channel=2 note=50 velocity=124 time=0.006
EXTRACT: note_on channel=5 note=38 velocity=113 time=0
EXTRACT: note_on channel=9 note=44 velocity=99 time=0
EXTRACT: note_on channel=9 note=70 velocity=86 time=0
EXTRACT: note_off channel=12 note=70 velocity=64 time=0.007
EXTRACT: note_off channel=10 note=65 velocity=65 time=0.008
EXTRACT: note_off channel=10 note=69 velocity=64 time=0.006
EXTRACT: note_off channel=9 note=70 velocity=64 time=0.003
EXTRACT: note_off channel=9 note=44 velocity=65 time=0
EXTRACT: note_off channel=14 note=81 velocity=65 time=0.01
EXTRACT: note_off channel=11 note=93 velocity=65 time=0
EXTRACT: note_off channel=6 note=81 velocity=64 time=0
EXTRACT: note_on channel=6 note=77 velocity=81 time=0.003
EXTRACT: note_on channel=11 note=89 velocity=82 time=0
EXTRACT: note_on channel=14 note=77 velocity=82 time=0
EXTRACT: note_off channel=13 note=62 velocity=64 time=0.017
EXTRACT: note_off channel=13 note=74 velocity=65 time=0.02
EXTRACT: note_off channel=13 note=65 velocity=65 time=0
EXTRACT: note_off channel=14 note=77 velocity=65 time=0.03
EXTRACT: note_off channel=11 note=89 velocity=65 time=0
EXTRACT: note_off channel=6 note=77 velocity=64 time=0
EXTRACT: note_off channel=5 note=38 velocity=65 time=0.007
EXTRACT: note_off channel=2 note=50 velocity=64 time=0
EXTRACT: note_off channel=4 note=57 velocity=65 time=0
EXTRACT: note_on channel=1 note=26 velocity=123 time=0.009000000000000001
EXTRACT: note_on channel=2 note=38 velocity=124 time=0
EXTRACT: note_on channel=4 note=60 velocity=1 time=0
EXTRACT: note_on channel=4 note=64 velocity=1 time=0
EXTRACT: note_on channel=5 note=38 velocity=112 time=0
EXTRACT: note_on channel=9 note=59 velocity=88 time=0
EXTRACT: note_on channel=9 note=36 velocity=126 time=0
EXTRACT: note_on channel=9 note=42 velocity=126 time=0
EXTRACT: note_on channel=9 note=70 velocity=106 time=0
EXTRACT: note_on channel=13 note=62 velocity=56 time=0
EXTRACT: note_on channel=13 note=65 velocity=52 time=0
EXTRACT: note_on channel=13 note=74 velocity=47 time=0.002
EXTRACT: note_on channel=13 note=69 velocity=63 time=0.003
EXTRACT: note_on channel=6 note=74 velocity=72 time=0.002
EXTRACT: note_on channel=11 note=86 velocity=79 time=0
EXTRACT: note_on channel=14 note=74 velocity=79 time=0
EXTRACT: note_on channel=10 note=62 velocity=98 time=0.003
EXTRACT: note_on channel=10 note=65 velocity=99 time=0
EXTRACT: note_on channel=3 note=79 velocity=116 time=0
EXTRACT: note_off channel=9 note=70 velocity=64 time=0.007
EXTRACT: note_off channel=9 note=42 velocity=64 time=0
EXTRACT: note_off channel=9 note=36 velocity=65 time=0
EXTRACT: note_off channel=9 note=59 velocity=65 time=0
EXTRACT: note_off channel=5 note=38 velocity=64 time=0.08700000000000001
EXTRACT: note_off channel=2 note=38 velocity=65 time=0
EXTRACT: note_on channel=2 note=38 velocity=75 time=0.009000000000000001
EXTRACT: note_on channel=5 note=38 velocity=72 time=0
EXTRACT: note_off channel=1 note=26 velocity=65 time=0.084
EXTRACT: note_off channel=5 note=38 velocity=64 time=0.027
EXTRACT: note_off channel=2 note=38 velocity=65 time=0
EXTRACT: note_off channel=4 note=64 velocity=64 time=0
EXTRACT: note_off channel=4 note=60 velocity=64 time=0
EXTRACT: note_on channel=1 note=38 velocity=123 time=0.009000000000000001
EXTRACT: note_on channel=2 note=50 velocity=124 time=0
EXTRACT: note_on channel=4 note=62 velocity=1 time=0
EXTRACT: note_on channel=4 note=65 velocity=1 time=0
EXTRACT: note_on channel=5 note=38 velocity=113 time=0
EXTRACT: note_on channel=9 note=59 velocity=85 time=0
EXTRACT: note_on channel=9 note=46 velocity=113 time=0
EXTRACT: note_on channel=9 note=70 velocity=107 time=0
EXTRACT: note_on channel=3 note=81 velocity=116 time=0
EXTRACT: note_off channel=3 note=79 velocity=64 time=0.007
EXTRACT: note_off channel=9 note=70 velocity=64 time=0.014
EXTRACT: note_off channel=9 note=46 velocity=64 time=0
EXTRACT: note_off channel=9 note=59 velocity=65 time=0
EXTRACT: note_off channel=5 note=38 velocity=65 time=0.08700000000000001
EXTRACT: note_off channel=2 note=50 velocity=64 time=0
EXTRACT: note_on channel=2 note=50 velocity=125 time=0.009000000000000001
EXTRACT: note_on channel=5 note=38 velocity=113 time=0
EXTRACT: note_on channel=9 note=70 velocity=87 time=0
EXTRACT: note_off channel=9 note=70 velocity=65 time=0.024
EXTRACT: note_off channel=1 note=38 velocity=64 time=0.075
EXTRACT: note_off channel=5 note=38 velocity=64 time=0.012
EXTRACT: note_off channel=2 note=50 velocity=64 time=0
EXTRACT: note_on channel=9 note=39 velocity=118 time=0.001
EXTRACT: note_on channel=1 note=26 velocity=122 time=0.008
EXTRACT: note_on channel=2 note=38 velocity=125 time=0
EXTRACT: note_on channel=4 note=60 velocity=1 time=0
EXTRACT: note_on channel=4 note=64 velocity=1 time=0
EXTRACT: note_on channel=5 note=38 velocity=112 time=0
EXTRACT: note_on channel=9 note=59 velocity=91 time=0
EXTRACT: note_on channel=9 note=36 velocity=127 time=0
EXTRACT: note_on channel=9 note=38 velocity=116 time=0
EXTRACT: note_on channel=9 note=42 velocity=119 time=0
EXTRACT: note_on channel=9 note=70 velocity=106 time=0
EXTRACT: note_off channel=4 note=65 velocity=65 time=0.006
EXTRACT: note_off channel=4 note=62 velocity=65 time=0
EXTRACT: note_off channel=3 note=81 velocity=64 time=0.003
EXTRACT: note_off channel=9 note=39 velocity=64 time=0.008
EXTRACT: note_off channel=9 note=70 velocity=64 time=0.007
EXTRACT: note_off channel=9 note=42 velocity=65 time=0
EXTRACT: note_off channel=9 note=38 velocity=64 time=0
EXTRACT: note_off channel=9 note=36 velocity=65 time=0
EXTRACT: note_off channel=9 note=59 velocity=65 time=0
EXTRACT: note_on channel=3 note=79 velocity=117 time=0
EXTRACT: note_off channel=5 note=38 velocity=65 time=0.083
EXTRACT: note_off channel=2 note=38 velocity=65 time=0
EXTRACT: note_on channel=2 note=38 velocity=74 time=0.009000000000000001
EXTRACT: note_on channel=5 note=38 velocity=72 time=0
EXTRACT: note_off channel=1 note=26 velocity=65 time=0.069
EXTRACT: note_off channel=3 note=79 velocity=65 time=0.038
EXTRACT: note_off channel=5 note=38 velocity=65 time=0.004
EXTRACT: note_off channel=2 note=38 velocity=65 time=0
EXTRACT: note_off channel=4 note=64 velocity=64 time=0
EXTRACT: note_off channel=4 note=60 velocity=64 time=0
EXTRACT: note_on channel=1 note=38 velocity=123 time=0.009000000000000001
EXTRACT: note_on channel=2 note=50 velocity=125 time=0
EXTRACT: note_on channel=4 note=62 velocity=1 time=0
EXTRACT: note_on channel=4 note=65 velocity=1 time=0
EXTRACT: note_on channel=5 note=38 velocity=113 time=0
EXTRACT: note_on channel=9 note=59 velocity=92 time=0
EXTRACT: note_on channel=9 note=42 velocity=117 time=0
EXTRACT: note_on channel=9 note=70 velocity=106 time=0
EXTRACT: note_on channel=3 note=81 velocity=117 time=0
EXTRACT: note_off channel=9 note=70 velocity=64 time=0.016
EXTRACT: note_off channel=9 note=42 velocity=65 time=0
EXTRACT: note_off channel=9 note=59 velocity=64 time=0
EXTRACT: control_change channel=6 control=6 value=60 time=0.056
EXTRACT: note_off channel=5 note=38 velocity=64 time=0.031
EXTRACT: note_off channel=2 note=50 velocity=64 time=0
EXTRACT: note_on channel=2 note=50 velocity=124 time=0.009000000000000001
EXTRACT: note_on channel=5 note=38 velocity=113 time=0
EXTRACT: note_on channel=9 note=44 velocity=98 time=0
EXTRACT: note_on channel=9 note=70 velocity=87 time=0
EXTRACT: control_change channel=13 control=6 value=52 time=0
EXTRACT: note_off channel=9 note=70 velocity=64 time=0.024
EXTRACT: note_off channel=9 note=44 velocity=65 time=0
EXTRACT: note_off channel=3 note=81 velocity=65 time=0.032
EXTRACT: note_off channel=1 note=38 velocity=64 time=0.043000000000000003
EXTRACT: pitchwheel channel=3 pitch=-8070 time=0.004
EXTRACT: note_off channel=5 note=38 velocity=65 time=0.008
EXTRACT: note_off channel=2 note=50 velocity=64 time=0
EXTRACT: note_off channel=4 note=65 velocity=65 time=0
EXTRACT: note_off channel=4 note=62 velocity=64 time=0
EXTRACT: note_on channel=1 note=26 velocity=122 time=0.009000000000000001
EXTRACT: note_on channel=2 note=38 velocity=124 time=0
EXTRACT: note_on channel=4 note=62 velocity=1 time=0
EXTRACT: note_on channel=4 note=65 velocity=1 time=0
EXTRACT: note_on channel=5 note=38 velocity=112 time=0
EXTRACT: note_on channel=9 note=59 velocity=92 time=0
EXTRACT: note_on channel=9 note=36 velocity=126 time=0
EXTRACT: note_on channel=9 note=42 velocity=124 time=0
EXTRACT: note_on channel=9 note=70 velocity=106 time=0
EXTRACT: note_on channel=3 note=81 velocity=116 time=0
EXTRACT: note_off channel=9 note=70 velocity=65 time=0.021
EXTRACT: note_off channel=9 note=42 velocity=64 time=0
EXTRACT: note_off channel=9 note=36 velocity=64 time=0
EXTRACT: note_off channel=9 note=59 velocity=65 time=0
EXTRACT: note_off channel=5 note=38 velocity=64 time=0.078
EXTRACT: note_off channel=2 note=38 velocity=65 time=0
EXTRACT: pitchwheel channel=3 pitch=-6150 time=0.002
EXTRACT: note_off channel=6 note=74 velocity=65 time=0.001
EXTRACT: note_on channel=2 note=38 velocity=75 time=0.006
EXTRACT: note_on channel=5 note=38 velocity=72 time=0
EXTRACT: pitchwheel channel=3 pitch=-4870 time=0.003
EXTRACT: pitchwheel channel=3 pitch=-3590 time=0.01
EXTRACT: pitchwheel channel=3 pitch=-2694 time=0.01
EXTRACT: pitchwheel channel=3 pitch=-1286 time=0.01
EXTRACT: pitchwheel channel=3 pitch=122 time=0.02
EXTRACT: note_off channel=14 note=74 velocity=64 time=0.001
EXTRACT: note_off channel=11 note=86 velocity=64 time=0
EXTRACT: note_off channel=1 note=26 velocity=64 time=0.045
EXTRACT: note_off channel=5 note=38 velocity=64 time=0.012
EXTRACT: note_off channel=2 note=38 velocity=64 time=0
EXTRACT: note_on channel=1 note=38 velocity=122 time=0.009000000000000001
EXTRACT: note_on channel=2 note=50 velocity=125 time=0
EXTRACT: note_on channel=5 note=38 velocity=113 time=0
EXTRACT: note_on channel=9 note=59 velocity=91 time=0
EXTRACT: note_on channel=9 note=46 velocity=110 time=0
EXTRACT: note_on channel=9 note=70 velocity=107 time=0
EXTRACT: note_on channel=6 note=74 velocity=72 time=0.001
EXTRACT: note_on channel=11 note=86 velocity=77 time=0
EXTRACT: note_on channel=14 note=74 velocity=76 time=0
EXTRACT: note_off channel=9 note=70 velocity=65 time=0.023
EXTRACT: note_off channel=9 note=46 velocity=64 time=0
EXTRACT: note_off channel=9 note=59 velocity=64 time=0
EXTRACT: note_on channel=6 note=77 velocity=83 time=0.052000000000000005
EXTRACT: note_on channel=11 note=89 velocity=88 time=0
EXTRACT: note_on channel=14 note=77 velocity=89 time=0
EXTRACT: note_off channel=14 note=74 velocity=64 time=0.018000000000000002
EXTRACT: note_off channel=11 note=86 velocity=64 time=0
EXTRACT: note_off channel=6 note=74 velocity=65 time=0
EXTRACT: note_off channel=5 note=38 velocity=65 time=0.017
EXTRACT: note_off channel=2 note=50 velocity=65 time=0
EXTRACT: note_on channel=2 note=50 velocity=124 time=0.009000000000000001
EXTRACT: note_on channel=5 note=38 velocity=112 time=0
EXTRACT: note_on channel=9 note=70 velocity=87 time=0
EXTRACT: note_off channel=9 note=70 velocity=65 time=0.024
EXTRACT: note_on channel=6 note=81 velocity=63 time=0.008
EXTRACT: note_on channel=11 note=93 velocity=79 time=0
EXTRACT: note_on channel=14 note=81 velocity=79 time=0
EXTRACT: note_off channel=3 note=81 velocity=64 time=0.017
EXTRACT: note_off channel=14 note=77 velocity=65 time=0.005
EXTRACT: note_off channel=11 note=89 velocity=65 time=0
EXTRACT: note_off channel=6 note=77 velocity=64 time=0
EXTRACT: note_off channel=1 note=38 velocity=65 time=0.03
EXTRACT: note_on channel=6 note=86 velocity=72 time=0.017
EXTRACT: note_on channel=11 note=98 velocity=82 time=0
EXTRACT: note_on channel=14 note=86 velocity=82 time=0
EXTRACT: note_on channel=3 note=79 velocity=116 time=0
EXTRACT: note_off channel=5 note=38 velocity=65 time=0
EXTRACT: note_off channel=2 note=50 velocity=65 time=0
EXTRACT: note_off channel=4 note=65 velocity=65 time=0
EXTRACT: note_off channel=4 note=62 velocity=65 time=0
EXTRACT: note_on channel=9 note=39 velocity=118 time=0.001
EXTRACT: note_on channel=1 note=26 velocity=123 time=0.008
EXTRACT: note_on channel=2 note=38 velocity=124 time=0
EXTRACT: note_on channel=4 note=60 velocity=1 time=0
EXTRACT: note_on channel=4 note=64 velocity=1 time=0
EXTRACT: note_on channel=5 note=38 velocity=113 time=0
EXTRACT: note_on channel=9 note=59 velocity=92 time=0
EXTRACT: note_on channel=9 note=36 velocity=127 time=0
EXTRACT: note_on channel=9 note=38 velocity=116 time=0
EXTRACT: note_on channel=9 note=42 velocity=99 time=0
EXTRACT: note_on channel=9 note=70 velocity=106 time=0
EXTRACT: note_off channel=14 note=81 velocity=65 time=0.004
EXTRACT: note_off channel=11 note=93 velocity=65 time=0
EXTRACT: note_off channel=6 note=81 velocity=64 time=0
EXTRACT: note_off channel=9 note=39 velocity=64 time=0.013000000000000001
EXTRACT: note_off channel=9 note=70 velocity=65 time=0.007
EXTRACT: note_off channel=9 note=42 velocity=65 time=0
EXTRACT: note_off channel=9 note=38 velocity=64 time=0
EXTRACT: note_off channel=9 note=36 velocity=65 time=0
EXTRACT: note_off channel=9 note=59 velocity=64 time=0
EXTRACT: note_off channel=5 note=38 velocity=64 time=0.08700000000000001
EXTRACT: note_off channel=2 note=38 velocity=64 time=0
EXTRACT: note_on channel=2 note=38 velocity=75 time=0.009000000000000001
EXTRACT: note_on channel=5 note=38 velocity=73 time=0
EXTRACT: note_off channel=1 note=26 velocity=65 time=0.084
EXTRACT: note_off channel=3 note=79 velocity=64 time=0.002
EXTRACT: note_on channel=6 note=81 velocity=74 time=0.02
EXTRACT: note_on channel=11 note=93 velocity=76 time=0
EXTRACT: note_on channel=14 note=81 velocity=77 time=0
EXTRACT: note_on channel=3 note=77 velocity=117 time=0
EXTRACT: note_off channel=5 note=38 velocity=64 time=0.003
EXTRACT: note_off channel=2 note=38 velocity=65 time=0
EXTRACT: note_off channel=4 note=64 velocity=64 time=0
EXTRACT: note_off channel=4 note=60 velocity=65 time=0
EXTRACT: note_on channel=1 note=38 velocity=123 time=0.009000000000000001
EXTRACT: note_on channel=2 note=50 velocity=125 time=0
EXTRACT: note_on channel=4 note=57 velocity=1 time=0
EXTRACT: note_on channel=4 note=62 velocity=1 time=0
EXTRACT: note_on channel=5 note=38 velocity=112 time=0
EXTRACT: note_on channel=9 note=59 velocity=87 time=0
EXTRACT: note_on channel=9 note=42 velocity=114 time=0
EXTRACT: note_on channel=9 note=70 velocity=107 time=0
EXTRACT: note_off channel=14 note=86 velocity=64 time=0.004
EXTRACT: note_off channel=11 note=98 velocity=64 time=0
EXTRACT: note_off channel=6 note=86 velocity=65 time=0
EXTRACT: note_off channel=9 note=70 velocity=64 time=0.02
EXTRACT: note_off channel=9 note=42 velocity=65 time=0
EXTRACT: note_off channel=9 note=59 velocity=65 time=0
EXTRACT: note_off channel=5 note=38 velocity=65 time=0.08700000000000001
EXTRACT: note_off channel=2 note=50 velocity=64 time=0
EXTRACT: note_off channel=14 note=81 velocity=64 time=0.003
EXTRACT: note_off channel=11 note=93 velocity=64 time=0
EXTRACT: note_off channel=6 note=81 velocity=65 time=0
EXTRACT: note_on channel=6 note=77 velocity=73 time=0.003
EXTRACT: note_on channel=11 note=89 velocity=81 time=0
EXTRACT: note_on channel=14 note=77 velocity=80 time=0
EXTRACT: note_on channel=2 note=50 velocity=124 time=0.003
EXTRACT: note_on channel=5 note=38 velocity=113 time=0
EXTRACT: note_on channel=9 note=44 velocity=99 time=0
EXTRACT: note_on channel=9 note=70 velocity=86 time=0
EXTRACT: note_off channel=9 note=70 velocity=64 time=0.024
EXTRACT: note_off channel=9 note=44 velocity=64 time=0
EXTRACT: control_change channel=14 control=6 value=80 time=0.016
EXTRACT: note_off channel=3 note=77 velocity=65 time=0.009000000000000001
EXTRACT: note_off channel=1 note=38 velocity=64 time=0.035
EXTRACT: note_on channel=3 note=79 velocity=117 time=0
EXTRACT: note_off channel=5 note=38 velocity=65 time=0.001
EXTRACT: note_off channel=2 note=50 velocity=64 time=0
EXTRACT: note_off channel=4 note=62 velocity=64 time=0
EXTRACT: note_off channel=4 note=57 velocity=64 time=0
EXTRACT: note_on channel=6 note=74 velocity=79 time=0.006
EXTRACT: note_on channel=11 note=86 velocity=85 time=0
EXTRACT: note_on channel=14 note=74 velocity=84 time=0
EXTRACT: note_on channel=1 note=26 velocity=122 time=0.003
EXTRACT: note_on channel=2 note=38 velocity=124 time=0
EXTRACT: note_on channel=4 note=60 velocity=1 time=0
EXTRACT: note_on channel=4 note=64 velocity=1 time=0
EXTRACT: note_on channel=5 note=38 velocity=112 time=0
EXTRACT: note_on channel=9 note=59 velocity=95 time=0
EXTRACT: note_on channel=9 note=36 velocity=127 time=0
EXTRACT: note_on channel=9 note=42 velocity=122 time=0
EXTRACT: note_on channel=9 note=70 velocity=106 time=0
EXTRACT: note_off channel=14 note=77 velocity=65 time=0.014
EXTRACT: note_off channel=11 note=89 velocity=65 time=0
EXTRACT: note_off channel=6 note=77 velocity=64 time=0
EXTRACT: note_off channel=9 note=70 velocity=65 time=0.01
EXTRACT: note_off channel=9 note=42 velocity=65 time=0
EXTRACT: note_off channel=9 note=36 velocity=64 time=0
EXTRACT: note_off channel=9 note=59 velocity=64 time=0
EXTRACT: control_change channel=13 control=6 value=54 time=0.056
EXTRACT: note_off channel=5 note=38 velocity=64 time=0.031
EXTRACT: note_off channel=2 note=38 velocity=65 time=0
EXTRACT: note_on channel=6 note=76 velocity=78 time=0.005
EXTRACT: note_on channel=11 note=88 velocity=84 time=0
EXTRACT: note_on channel=14 note=76 velocity=85 time=0
EXTRACT: note_on channel=2 note=38 velocity=75 time=0.004
EXTRACT: note_on channel=5 note=38 velocity=72 time=0
EXTRACT: note_off channel=14 note=74 velocity=64 time=0.004
EXTRACT: note_off channel=11 note=86 velocity=64 time=0
EXTRACT: note_off channel=6 note=74 velocity=64 time=0
EXTRACT: note_off channel=10 note=62 velocity=64 time=0
EXTRACT: note_off channel=3 note=79 velocity=65 time=0.07100000000000001
EXTRACT: note_off channel=1 note=26 velocity=64 time=0.009000000000000001
EXTRACT: note_off channel=5 note=38 velocity=64 time=0.027
EXTRACT: note_off channel=2 note=38 velocity=65 time=0
EXTRACT: note_off channel=4 note=64 velocity=65 time=0
EXTRACT: note_off channel=4 note=60 velocity=65 time=0
EXTRACT: note_off channel=13 note=69 velocity=64 time=0.003
EXTRACT: note_off channel=13 note=74 velocity=64 time=0
EXTRACT: note_off channel=13 note=65 velocity=65 time=0
EXTRACT: note_off channel=13 note=62 velocity=65 time=0
EXTRACT: note_on channel=6 note=77 velocity=74 time=0.004
EXTRACT: note_on channel=11 note=89 velocity=92 time=0
EXTRACT: note_on channel=14 note=77 velocity=93 time=0
EXTRACT: note_on channel=1 note=28 velocity=122 time=0
EXTRACT: note_on channel=2 note=52 velocity=124 time=0
EXTRACT: note_on channel=3 note=81 velocity=116 time=0
EXTRACT: note_on channel=4 note=60 velocity=1 time=0
EXTRACT: note_on channel=4 note=65 velocity=1 time=0
EXTRACT: note_on channel=5 note=40 velocity=113 time=0
EXTRACT: note_on channel=9 note=59 velocity=84 time=0
EXTRACT: note_on channel=9 note=46 velocity=104 time=0
EXTRACT: note_on channel=9 note=70 velocity=107 time=0
EXTRACT: note_on channel=13 note=64 velocity=80 time=0
EXTRACT: control_change channel=6 control=6 value=57 time=0
EXTRACT: note_off channel=10 note=65 velocity=65 time=0.004
EXTRACT: note_off channel=14 note=76 velocity=65 time=0.001
EXTRACT: note_off channel=11 note=88 velocity=65 time=0
EXTRACT: note_off channel=6 note=76 velocity=65 time=0
EXTRACT: note_on channel=10 note=64 velocity=90 time=0.005
EXTRACT: note_on channel=10 note=67 velocity=79 time=0
EXTRACT: note_on channel=13 note=67 velocity=64 time=0.002
EXTRACT: note_on channel=13 note=71 velocity=63 time=0.008
EXTRACT: note_off channel=9 note=70 velocity=65 time=0.004
EXTRACT: note_off channel=9 note=46 velocity=64 time=0
EXTRACT: note_off channel=9 note=59 velocity=65 time=0
EXTRACT: note_off channel=5 note=40 velocity=65 time=0.08700000000000001
EXTRACT: note_off channel=2 note=52 velocity=64 time=0
EXTRACT: note_on channel=2 note=52 velocity=125 time=0.009000000000000001
EXTRACT: note_on channel=5 note=40 velocity=113 time=0
EXTRACT: note_on channel=9 note=70 velocity=87 time=0
EXTRACT: note_on channel=6 note=79 velocity=75 time=0.001
EXTRACT: note_on channel=11 note=91 velocity=83 time=0
EXTRACT: note_on channel=14 note=79 velocity=82 time=0
EXTRACT: note_off channel=14 note=77 velocity=65 time=0.013000000000000001
EXTRACT: note_off channel=11 note=89 velocity=65 time=0
EXTRACT: note_off channel=6 note=77 velocity=64 time=0
EXTRACT: note_off channel=9 note=70 velocity=65 time=0.01
EXTRACT: note_off channel=1 note=28 velocity=65 time=0.045
EXTRACT: note_off channel=13 note=64 velocity=64 time=0.006
EXTRACT: note_on channel=6 note=81 velocity=76 time=0.022
EXTRACT: note_on channel=11 note=93 velocity=87 time=0
EXTRACT: note_on channel=14 note=81 velocity=86 time=0
EXTRACT: note_off channel=5 note=40 velocity=64 time=0.014
EXTRACT: note_off channel=2 note=52 velocity=64 time=0
EXTRACT: note_on channel=9 note=39 velocity=119 time=0.001
EXTRACT: note_off channel=13 note=71 velocity=64 time=0.002
EXTRACT: note_off channel=13 note=67 velocity=65 time=0
EXTRACT: note_on channel=1 note=29 velocity=123 time=0.006
EXTRACT: note_on channel=2 note=41 velocity=125 time=0
EXTRACT: note_on channel=5 note=41 velocity=112 time=0
EXTRACT: note_on channel=9 note=59 velocity=89 time=0
EXTRACT: note_on channel=9 note=36 velocity=126 time=0
EXTRACT: note_on channel=9 note=38 velocity=117 time=0
EXTRACT: note_on channel=9 note=42 velocity=111 time=0
EXTRACT: note_on channel=9 note=70 velocity=106 time=0
EXTRACT: note_on channel=13 note=65 velocity=88 time=0
EXTRACT: note_off channel=14 note=79 velocity=64 time=0.002
EXTRACT: note_off channel=11 note=91 velocity=64 time=0
EXTRACT: note_off channel=6 note=79 velocity=65 time=0
EXTRACT: note_off channel=10 note=67 velocity=64 time=0.002
EXTRACT: note_off channel=10 note=64 velocity=65 time=0.002
EXTRACT: note_on channel=10 note=65 velocity=105 time=0.004
EXTRACT: note_on channel=10 note=69 velocity=86 time=0
EXTRACT: note_on channel=13 note=69 velocity=35 time=0.007
EXTRACT: note_on channel=13 note=72 velocity=81 time=0
EXTRACT: note_off channel=9 note=39 velocity=64 time=0
EXTRACT: note_off channel=9 note=70 velocity=65 time=0.007
EXTRACT: note_off channel=9 note=42 velocity=64 time=0
EXTRACT: note_off channel=9 note=38 velocity=64 time=0
EXTRACT: note_off channel=9 note=36 velocity=65 time=0
EXTRACT: note_off channel=9 note=59 velocity=65 time=0
EXTRACT: note_off channel=3 note=81 velocity=64 time=0.05
EXTRACT: note_off channel=5 note=41 velocity=65 time=0.037
EXTRACT: note_off channel=2 note=41 velocity=65 time=0
EXTRACT: note_on channel=2 note=41 velocity=74 time=0.009000000000000001
EXTRACT: note_on channel=5 note=41 velocity=72 time=0
EXTRACT: note_off channel=1 note=29 velocity=65 time=0.084
EXTRACT: note_off channel=5 note=41 velocity=65 time=0.027
EXTRACT: note_off channel=2 note=41 velocity=65 time=0
EXTRACT: note_off channel=4 note=65 velocity=64 time=0
EXTRACT: note_off channel=4 note=60 velocity=64 time=0
EXTRACT: note_on channel=1 note=41 velocity=123 time=0.009000000000000001
EXTRACT: note_on channel=2 note=53 velocity=125 time=0
EXTRACT: note_on channel=4 note=60 velocity=1 time=0
EXTRACT: note_on channel=4 note=65 velocity=1 time=0
EXTRACT: note_on channel=5 note=41 velocity=113 time=0
EXTRACT: note_on channel=9 note=59 velocity=92 time=0
EXTRACT: note_on channel=9 note=42 velocity=125 time=0
EXTRACT: note_on channel=9 note=70 velocity=106 time=0
EXTRACT: note_on channel=3 note=81 velocity=116 time=0
EXTRACT: note_off channel=9 note=70 velocity=64 time=0.009000000000000001
EXTRACT: note_off channel=9 note=42 velocity=64 time=0
EXTRACT: note_off channel=9 note=59 velocity=65 time=0
EXTRACT: note_off channel=5 note=41 velocity=64 time=0.08700000000000001
EXTRACT: note_off channel=2 note=53 velocity=64 time=0
EXTRACT: note_on channel=2 note=53 velocity=124 time=0.009000000000000001
EXTRACT: note_on channel=5 note=41 velocity=113 time=0
EXTRACT: note_on channel=9 note=44 velocity=99 time=0
EXTRACT: note_on channel=9 note=70 velocity=87 time=0
EXTRACT: note_off channel=9 note=70 velocity=65 time=0.024
EXTRACT: note_off channel=9 note=44 velocity=64 time=0
EXTRACT: note_off channel=1 note=41 velocity=64 time=0.06
EXTRACT: note_off channel=5 note=41 velocity=65 time=0.027
EXTRACT: note_off channel=2 note=53 velocity=64 time=0
EXTRACT: note_on channel=1 note=29 velocity=122 time=0.009000000000000001
EXTRACT: note_on channel=2 note=41 velocity=124 time=0
EXTRACT: note_on channel=5 note=41 velocity=112 time=0
EXTRACT: note_on channel=9 note=59 velocity=86 time=0
EXTRACT: note_on channel=9 note=36 velocity=127 time=0
EXTRACT: note_on channel=9 note=42 velocity=124 time=0
EXTRACT: note_on channel=9 note=70 velocity=107 time=0
EXTRACT: note_off channel=9 note=70 velocity=64 time=0.024
EXTRACT: note_off channel=9 note=42 velocity=65 time=0
EXTRACT: note_off channel=9 note=36 velocity=64 time=0
EXTRACT: note_off channel=9 note=59 velocity=65 time=0
EXTRACT: note_off channel=5 note=41 velocity=64 time=0.08700000000000001
EXTRACT: note_off channel=2 note=41 velocity=65 time=0
EXTRACT: note_on channel=2 note=41 velocity=75 time=0.009000000000000001
EXTRACT: note_on channel=5 note=41 velocity=72 time=0
EXTRACT: note_off channel=3 note=81 velocity=64 time=0.014
EXTRACT: note_off channel=14 note=81 velocity=65 time=0.06
EXTRACT: note_off channel=11 note=93 velocity=65 time=0
EXTRACT: note_off channel=6 note=81 velocity=65 time=0
EXTRACT: note_off channel=1 note=29 velocity=64 time=0.01
EXTRACT: note_off channel=5 note=41 velocity=64 time=0.027
EXTRACT: note_off channel=2 note=41 velocity=64 time=0
EXTRACT: note_off channel=4 note=65 velocity=65 time=0
EXTRACT: note_on channel=1 note=41 velocity=122 time=0.009000000000000001
EXTRACT: note_on channel=2 note=53 velocity=125 time=0
EXTRACT: note_on channel=4 note=57 velocity=1 time=0
EXTRACT: note_on channel=5 note=41 velocity=113 time=0
EXTRACT: note_on channel=9 note=59 velocity=91 time=0
EXTRACT: note_on channel=9 note=46 velocity=111 time=0
EXTRACT: note_on channel=9 note=70 velocity=106 time=0
EXTRACT: note_on channel=3 note=72 velocity=117 time=0
EXTRACT: note_on channel=6 note=77 velocity=75 time=0.015
EXTRACT: note_on channel=11 note=89 velocity=82 time=0
EXTRACT: note_on channel=14 note=77 velocity=83 time=0
EXTRACT: note_off channel=9 note=70 velocity=65 time=0.003
EXTRACT: note_off channel=9 note=46 velocity=64 time=0
EXTRACT: note_off channel=9 note=59 velocity=65 time=0
EXTRACT: note_on channel=6 note=81 velocity=55 time=0.059000000000000004
EXTRACT: note_on channel=11 note=93 velocity=76 time=0
EXTRACT: note_on channel=14 note=81 velocity=77 time=0
EXTRACT: note_off channel=5 note=41 velocity=65 time=0.016
EXTRACT: note_off channel=2 note=53 velocity=65 time=0
EXTRACT: note_on channel=2 note=53 velocity=124 time=0.009000000000000001
EXTRACT: note_on channel=5 note=41 velocity=112 time=0
EXTRACT: note_on channel=9 note=70 velocity=86 time=0
EXTRACT: note_off channel=9 note=70 velocity=64 time=0.024
EXTRACT: note_off channel=14 note=77 velocity=64 time=0.01
EXTRACT: note_off channel=11 note=89 velocity=64 time=0
EXTRACT: note_off channel=6 note=77 velocity=64 time=0
EXTRACT: note_on channel=6 note=84 velocity=80 time=0.012
EXTRACT: note_on channel=11 note=96 velocity=85 time=0
EXTRACT: note_on channel=14 note=84 velocity=84 time=0
EXTRACT: note_off channel=14 note=81 velocity=64 time=0.018000000000000002
EXTRACT: note_off channel=11 note=93 velocity=64 time=0
EXTRACT: note_off channel=6 note=81 velocity=65 time=0
EXTRACT: note_off channel=3 note=72 velocity=65 time=0.01
EXTRACT: note_off channel=1 note=41 velocity=65 time=0.01
EXTRACT: note_on channel=6 note=89 velocity=79 time=0.019
EXTRACT: note_on channel=11 note=101 velocity=84 time=0
EXTRACT: note_on channel=14 note=89 velocity=84 time=0
EXTRACT: note_off channel=5 note=41 velocity=65 time=0.008
EXTRACT: note_off channel=2 note=53 velocity=65 time=0
EXTRACT: note_off channel=4 note=57 velocity=65 time=0
EXTRACT: note_on channel=9 note=39 velocity=119 time=0.001
EXTRACT: note_off channel=4 note=60 velocity=64 time=0.002
EXTRACT: note_on channel=1 note=29 velocity=123 time=0.006
EXTRACT: note_on channel=2 note=41 velocity=124 time=0
EXTRACT: note_on channel=4 note=60 velocity=1 time=0
EXTRACT: note_on channel=4 note=65 velocity=1 time=0
EXTRACT: note_on channel=5 note=41 velocity=113 time=0
EXTRACT: note_on channel=9 note=59 velocity=95 time=0
EXTRACT: note_on channel=9 note=36 velocity=126 time=0
EXTRACT: note_on channel=9 note=38 velocity=116 time=0
EXTRACT: note_on channel=9 note=42 velocity=112 time=0
EXTRACT: note_on channel=9 note=70 velocity=107 time=0
EXTRACT: note_on channel=3 note=81 velocity=116 time=0
EXTRACT: note_off channel=14 note=84 velocity=65 time=0.012
EXTRACT: note_off channel=11 note=96 velocity=65 time=0
EXTRACT: note_off channel=6 note=84 velocity=64 time=0
EXTRACT: note_off channel=9 note=39 velocity=64 time=0.003
EXTRACT: note_off channel=9 note=70 velocity=65 time=0.007
EXTRACT: note_off channel=9 note=42 velocity=65 time=0
EXTRACT: note_off channel=9 note=38 velocity=64 time=0
EXTRACT: note_off channel=9 note=36 velocity=64 time=0
EXTRACT: note_off channel=9 note=59 velocity=65 time=0
EXTRACT: control_change channel=13 control=6 value=56 time=0.016
EXTRACT: note_off channel=5 note=41 velocity=64 time=0.07100000000000001
EXTRACT: note_off channel=2 note=41 velocity=64 time=0
EXTRACT: note_on channel=2 note=41 velocity=75 time=0.009000000000000001
EXTRACT: note_on channel=5 note=41 velocity=73 time=0
EXTRACT: control_change channel=6 control=6 value=54 time=0
EXTRACT: note_off channel=1 note=29 velocity=64 time=0.084
EXTRACT: note_off channel=3 note=81 velocity=64 time=0.01
EXTRACT: note_off channel=14 note=89 velocity=65 time=0
EXTRACT: note_off channel=11 note=101 velocity=65 time=0
EXTRACT: note_off channel=6 note=89 velocity=64 time=0
EXTRACT: note_on channel=6 note=88 velocity=74 time=0.016
EXTRACT: note_on channel=11 note=100 velocity=81 time=0
EXTRACT: note_on channel=14 note=88 velocity=81 time=0
EXTRACT: note_off channel=5 note=41 velocity=64 time=0.001
EXTRACT: note_off channel=2 note=41 velocity=65 time=0
EXTRACT: note_off channel=4 note=65 velocity=64 time=0
EXTRACT: note_off channel=4 note=60 velocity=65 time=0
EXTRACT: note_on channel=1 note=31 velocity=122 time=0.009000000000000001
EXTRACT: note_on channel=2 note=55 velocity=125 time=0
EXTRACT: note_on channel=4 note=60 velocity=1 time=0
EXTRACT: note_on channel=4 note=64 velocity=1 time=0
EXTRACT: note_on channel=5 note=43 velocity=112 time=0
EXTRACT: note_on channel=9 note=59 velocity=88 time=0
EXTRACT: note_on channel=9 note=42 velocity=109 time=0
EXTRACT: note_on channel=9 note=70 velocity=106 time=0
EXTRACT: note_on channel=13 note=67 velocity=80 time=0
EXTRACT: note_on channel=13 note=71 velocity=65 time=0
EXTRACT: note_off channel=10 note=69 velocity=65 time=0.004
EXTRACT: note_off channel=10 note=65 velocity=64 time=0
EXTRACT: note_on channel=10 note=71 velocity=87 time=0.006
EXTRACT: note_on channel=10 note=67 velocity=86 time=0
EXTRACT: note_off channel=13 note=72 velocity=64 time=0.001
EXTRACT: note_off channel=13 note=69 velocity=65 time=0
EXTRACT: note_off channel=13 note=65 velocity=65 time=0
EXTRACT: note_on channel=13 note=74 velocity=62 time=0.009000000000000001
EXTRACT: note_off channel=9 note=70 velocity=65 time=0.004
EXTRACT: note_off channel=9 note=42 velocity=64 time=0
EXTRACT: note_off channel=9 note=59 velocity=64 time=0
EXTRACT: note_on channel=3 note=79 velocity=117 time=0
EXTRACT: note_off channel=5 note=43 velocity=65 time=0.046
EXTRACT: note_off channel=2 note=55 velocity=64 time=0
EXTRACT: note_on channel=2 note=55 velocity=124 time=0.009000000000000001
EXTRACT: note_on channel=5 note=43 velocity=113 time=0
EXTRACT: note_on channel=9 note=44 velocity=98 time=0
EXTRACT: note_on channel=9 note=70 velocity=87 time=0
EXTRACT: note_off channel=14 note=88 velocity=64 time=0.004
EXTRACT: note_off channel=11 note=100 velocity=64 time=0
EXTRACT: note_off channel=6 note=88 velocity=65 time=0
EXTRACT: note_on channel=6 note=84 velocity=72 time=0.003
EXTRACT: note_on channel=11 note=96 velocity=79 time=0
EXTRACT: note_on channel=14 note=84 velocity=78 time=0
EXTRACT: note_off channel=9 note=70 velocity=65 time=0.017
EXTRACT: note_off channel=9 note=44 velocity=64 time=0
EXTRACT: note_off channel=1 note=31 velocity=65 time=0.06
EXTRACT: control_change channel=9 control=91 value=20 time=0.006
EXTRACT: note_off channel=5 note=43 velocity=65 time=0.021
EXTRACT: note_off channel=2 note=55 velocity=64 time=0
EXTRACT: note_off channel=13 note=74 velocity=64 time=0.003
EXTRACT: note_off channel=13 note=71 velocity=65 time=0
EXTRACT: note_off channel=13 note=67 velocity=64 time=0
EXTRACT: note_on channel=1 note=33 velocity=123 time=0.006
EXTRACT: note_on channel=2 note=45 velocity=124 time=0
EXTRACT: note_on channel=5 note=45 velocity=112 time=0
EXTRACT: note_on channel=9 note=59 velocity=98 time=0
EXTRACT: note_on channel=9 note=36 velocity=126 time=0
EXTRACT: note_on channel=9 note=42 velocity=125 time=0
EXTRACT: note_on channel=9 note=70 velocity=107 time=0
EXTRACT: note_on channel=13 note=69 velocity=56 time=0
EXTRACT: note_off channel=10 note=67 velocity=65 time=0.004
EXTRACT: note_off channel=10 note=71 velocity=64 time=0
EXTRACT: note_on channel=6 note=81 velocity=79 time=0.003
EXTRACT: note_on channel=11 note=93 velocity=84 time=0
EXTRACT: note_on channel=14 note=81 velocity=85 time=0
EXTRACT: note_on channel=13 note=76 velocity=69 time=0.002
EXTRACT: note_on channel=10 note=72 velocity=102 time=0.001
EXTRACT: note_on channel=10 note=69 velocity=93 time=0
EXTRACT: note_on channel=13 note=72 velocity=61 time=0.002
EXTRACT: note_off channel=14 note=84 velocity=64 time=0.001
EXTRACT: note_off channel=11 note=96 velocity=64 time=0
EXTRACT: note_off channel=6 note=84 velocity=65 time=0
EXTRACT: note_off channel=9 note=70 velocity=65 time=0.011
EXTRACT: note_off channel=9 note=42 velocity=65 time=0
EXTRACT: note_off channel=9 note=36 velocity=64 time=0
EXTRACT: note_off channel=9 note=59 velocity=65 time=0
EXTRACT: note_off channel=5 note=45 velocity=64 time=0.08700000000000001
EXTRACT: note_off channel=2 note=45 velocity=65 time=0
EXTRACT: note_on channel=2 note=45 velocity=75 time=0.009000000000000001
EXTRACT: note_on channel=5 note=45 velocity=72 time=0
EXTRACT: note_off channel=3 note=79 velocity=65 time=0.006
EXTRACT: note_off channel=1 note=33 velocity=65 time=0.093
EXTRACT: note_off channel=5 note=45 velocity=64 time=0.012
EXTRACT: note_off channel=2 note=45 velocity=65 time=0
EXTRACT: note_on channel=1 note=45 velocity=123 time=0.009000000000000001
EXTRACT: note_on channel=2 note=57 velocity=124 time=0
EXTRACT: note_on channel=5 note=45 velocity=113 time=0
EXTRACT: note_on channel=9 note=59 velocity=87 time=0
EXTRACT: note_on channel=9 note=46 velocity=111 time=0
EXTRACT: note_on channel=9 note=70 velocity=106 time=0
EXTRACT: note_off channel=9 note=70 velocity=64 time=0.024
EXTRACT: note_off channel=9 note=46 velocity=64 time=0
EXTRACT: note_off channel=9 note=59 velocity=65 time=0
EXTRACT: note_off channel=5 note=45 velocity=65 time=0.08700000000000001
EXTRACT: note_off channel=2 note=57 velocity=64 time=0
EXTRACT: note_on channel=2 note=57 velocity=125 time=0.009000000000000001
EXTRACT: note_on channel=5 note=45 velocity=113 time=0
EXTRACT: note_on channel=9 note=70 velocity=87 time=0
EXTRACT: note_off channel=9 note=70 velocity=65 time=0.024
EXTRACT: note_off channel=1 note=45 velocity=64 time=0.06
EXTRACT: note_off channel=5 note=45 velocity=64 time=0.027
EXTRACT: note_off channel=2 note=57 velocity=64 time=0
EXTRACT: note_on channel=9 note=39 velocity=118 time=0.001
EXTRACT: note_on channel=1 note=33 velocity=122 time=0.008
EXTRACT: note_on channel=2 note=45 velocity=125 time=0
EXTRACT: note_on channel=5 note=45 velocity=112 time=0
EXTRACT: note_on channel=9 note=59 velocity=103 time=0
EXTRACT: note_on channel=9 note=36 velocity=127 time=0
EXTRACT: note_on channel=9 note=38 velocity=117 time=0
EXTRACT: note_on channel=9 note=42 velocity=122 time=0
EXTRACT: note_on channel=9 note=70 velocity=106 time=0
EXTRACT: control_change channel=2 control=6 value=61 time=0
EXTRACT: note_off channel=9 note=39 velocity=64 time=0.017
EXTRACT: note_off channel=9 note=70 velocity=64 time=0.007
EXTRACT: note_off channel=9 note=42 velocity=65 time=0
EXTRACT: note_off channel=9 note=38 velocity=65 time=0
EXTRACT: note_off channel=9 note=36 velocity=64 time=0
EXTRACT: note_off channel=9 note=59 velocity=64 time=0
EXTRACT: note_off channel=5 note=45 velocity=65 time=0.08700000000000001
EXTRACT: note_off channel=2 note=45 velocity=65 time=0
EXTRACT: note_on channel=2 note=45 velocity=74 time=0.009000000000000001
EXTRACT: note_on channel=5 note=45 velocity=72 time=0
EXTRACT: note_off channel=1 note=33 velocity=65 time=0.099
EXTRACT: note_off channel=5 note=45 velocity=65 time=0.012
EXTRACT: note_off channel=2 note=45 velocity=65 time=0
EXTRACT: note_on channel=1 note=45 velocity=123 time=0.009000000000000001
EXTRACT: note_on channel=2 note=57 velocity=125 time=0
EXTRACT: note_on channel=5 note=45 velocity=113 time=0
EXTRACT: note_on channel=9 note=59 velocity=88 time=0
EXTRACT: note_on channel=9 note=42 velocity=116 time=0
EXTRACT: note_on channel=9 note=70 velocity=106 time=0
EXTRACT: note_off channel=9 note=70 velocity=65 time=0.024
EXTRACT: note_off channel=9 note=42 velocity=64 time=0
EXTRACT: note_off channel=9 note=59 velocity=65 time=0
EXTRACT: control_change channel=13 control=6 value=58 time=0.056
EXTRACT: note_off channel=5 note=45 velocity=64 time=0.031
EXTRACT: note_off channel=2 note=57 velocity=64 time=0
EXTRACT: note_on channel=2 note=57 velocity=124 time=0.009000000000000001
EXTRACT: note_on channel=5 note=45 velocity=113 time=0
EXTRACT: note_on channel=9 note=44 velocity=99 time=0
EXTRACT: note_on channel=9 note=70 velocity=87 time=0
EXTRACT: note_off channel=9 note=70 velocity=65 time=0.024
EXTRACT: note_off channel=9 note=44 velocity=64 time=0
EXTRACT: note_off channel=1 note=45 velocity=64 time=0.06
EXTRACT: note_off channel=5 note=45 velocity=65 time=0.027
EXTRACT: note_off channel=2 note=57 velocity=64 time=0
EXTRACT: note_on channel=1 note=33 velocity=122 time=0.009000000000000001
EXTRACT: note_on channel=2 note=45 velocity=124 time=0
EXTRACT: note_on channel=5 note=45 velocity=112 time=0
EXTRACT: note_on channel=9 note=59 velocity=102 time=0
EXTRACT: note_on channel=9 note=36 velocity=127 time=0
EXTRACT: note_on channel=9 note=42 velocity=125 time=0
EXTRACT: note_on channel=9 note=70 velocity=107 time=0
EXTRACT: control_change channel=14 control=98 value=33 time=0
EXTRACT: note_off channel=9 note=70 velocity=65 time=0.024
EXTRACT: note_off channel=9 note=42 velocity=64 time=0
EXTRACT: note_off channel=9 note=36 velocity=64 time=0
EXTRACT: note_off channel=9 note=59 velocity=65 time=0
EXTRACT: note_off channel=14 note=81 velocity=65 time=0.068
EXTRACT: note_off channel=11 note=93 velocity=65 time=0
EXTRACT: note_off channel=6 note=81 velocity=64 time=0
EXTRACT: note_off channel=5 note=45 velocity=64 time=0.019
EXTRACT: note_off channel=2 note=45 velocity=65 time=0
EXTRACT: note_off channel=4 note=60 velocity=64 time=0.003
EXTRACT: note_on channel=2 note=45 velocity=75 time=0.006
EXTRACT: note_on channel=5 note=45 velocity=72 time=0
EXTRACT: note_off channel=1 note=33 velocity=64 time=0.084
EXTRACT: note_off channel=5 note=45 velocity=64 time=0.027
EXTRACT: note_off channel=2 note=45 velocity=64 time=0
EXTRACT: note_off channel=4 note=64 velocity=65 time=0
EXTRACT: note_on channel=1 note=45 velocity=122 time=0.009000000000000001
EXTRACT: note_on channel=2 note=57 velocity=125 time=0
EXTRACT: note_on channel=4 note=57 velocity=1 time=0
EXTRACT: note_on channel=4 note=60 velocity=1 time=0
EXTRACT: note_on channel=5 note=45 velocity=113 time=0
EXTRACT: note_on channel=9 note=59 velocity=89 time=0
EXTRACT: note_on channel=9 note=46 velocity=106 time=0
EXTRACT: note_on channel=9 note=70 velocity=106 time=0
EXTRACT: note_on channel=3 note=77 velocity=117 time=0
EXTRACT: note_off channel=9 note=70 velocity=65 time=0.02
EXTRACT: note_off channel=9 note=46 velocity=64 time=0
EXTRACT: note_off channel=9 note=59 velocity=64 time=0
EXTRACT: note_on channel=6 note=76 velocity=73 time=0.014
EXTRACT: note_on channel=11 note=88 velocity=89 time=0
EXTRACT: note_on channel=14 note=76 velocity=89 time=0
EXTRACT: note_off channel=5 note=45 velocity=65 time=0.063
EXTRACT: note_off channel=2 note=57 velocity=65 time=0
EXTRACT: note_on channel=6 note=81 velocity=68 time=0.005
EXTRACT: note_on channel=11 note=93 velocity=80 time=0
EXTRACT: note_on channel=14 note=81 velocity=80 time=0
EXTRACT: note_on channel=2 note=57 velocity=124 time=0.004
EXTRACT: note_on channel=5 note=45 velocity=112 time=0
EXTRACT: note_on channel=9 note=70 velocity=86 time=0
EXTRACT: note_off channel=3 note=77 velocity=65 time=0.018000000000000002
EXTRACT: note_off channel=9 note=70 velocity=65 time=0.006
EXTRACT: note_on channel=6 note=84 velocity=68 time=0.031
EXTRACT: note_on channel=11 note=96 velocity=82 time=0
EXTRACT: note_on channel=14 note=84 velocity=83 time=0
EXTRACT: note_off channel=14 note=76 velocity=65 time=0.026000000000000002
EXTRACT: note_off channel=11 note=88 velocity=65 time=0
EXTRACT: note_off channel=6 note=76 velocity=64 time=0
EXTRACT: note_off channel=1 note=45 velocity=65 time=0.003
EXTRACT: note_off channel=5 note=45 velocity=65 time=0.027
EXTRACT: note_off channel=2 note=57 velocity=65 time=0
EXTRACT: note_on channel=9 note=39 velocity=118 time=0.001
EXTRACT: note_off channel=4 note=60 velocity=65 time=0.002
EXTRACT: note_off channel=13 note=76 velocity=64 time=0
EXTRACT: note_on channel=3 note=79 velocity=116 time=0
EXTRACT: note_on channel=6 note=88 velocity=83 time=0.003
EXTRACT: note_on channel=11 note=100 velocity=87 time=0
EXTRACT: note_on channel=14 note=88 velocity=86 time=0
EXTRACT: note_off channel=14 note=81 velocity=64 time=0
EXTRACT: note_off channel=11 note=93 velocity=64 time=0
EXTRACT: note_off channel=6 note=81 velocity=65 time=0
EXTRACT: note_on channel=1 note=33 velocity=123 time=0.002
EXTRACT: note_on channel=2 note=45 velocity=124 time=0
EXTRACT: note_on channel=4 note=62 velocity=1 time=0
EXTRACT: note_on channel=5 note=45 velocity=113 time=0
EXTRACT: note_on channel=9 note=59 velocity=102 time=0
EXTRACT: note_on channel=9 note=36 velocity=126 time=0
EXTRACT: note_on channel=9 note=38 velocity=117 time=0
EXTRACT: note_on channel=9 note=42 velocity=116 time=0
EXTRACT: note_on channel=9 note=70 velocity=107 time=0
EXTRACT: note_on channel=13 note=77 velocity=68 time=0
EXTRACT: note_off channel=9 note=39 velocity=65 time=0.017
EXTRACT: note_off channel=9 note=70 velocity=64 time=0.007
EXTRACT: note_off channel=9 note=42 velocity=64 time=0
EXTRACT: note_off channel=9 note=38 velocity=65 time=0
EXTRACT: note_off channel=9 note=36 velocity=64 time=0
EXTRACT: note_off channel=9 note=59 velocity=65 time=0
EXTRACT: note_off channel=14 note=84 velocity=64 time=0.02
EXTRACT: note_off channel=11 note=96 velocity=64 time=0
EXTRACT: note_off channel=6 note=84 velocity=65 time=0
EXTRACT: note_off channel=5 note=45 velocity=64 time=0.067
EXTRACT: note_off channel=2 note=45 velocity=64 time=0
EXTRACT: note_on channel=2 note=45 velocity=75 time=0.009000000000000001
EXTRACT: note_on channel=5 note=45 velocity=73 time=0
EXTRACT: control_change channel=6 control=6 value=50 time=0
EXTRACT: note_off channel=14 note=88 velocity=65 time=0.044
EXTRACT: note_off channel=11 note=100 velocity=65 time=0
EXTRACT: note_off channel=6 note=88 velocity=64 time=0
EXTRACT: note_off channel=1 note=33 velocity=65 time=0.04
EXTRACT: note_off channel=5 note=45 velocity=64 time=0.027
EXTRACT: note_off channel=2 note=45 velocity=65 time=0
EXTRACT: note_on channel=6 note=88 velocity=83 time=0.002
EXTRACT: note_on channel=11 note=100 velocity=87 time=0
EXTRACT: note_on channel=14 note=88 velocity=86 time=0
EXTRACT: note_off channel=4 note=62 velocity=64 time=0.001
EXTRACT: note_off channel=3 note=79 velocity=64 time=0
EXTRACT: note_on channel=3 note=77 velocity=117 time=0
EXTRACT: note_on channel=1 note=43 velocity=123 time=0.005
EXTRACT: note_on channel=2 note=55 velocity=125 time=0
EXTRACT: note_on channel=4 note=60 velocity=1 time=0
EXTRACT: note_on channel=5 note=43 velocity=112 time=0
EXTRACT: note_on channel=9 note=59 velocity=95 time=0
EXTRACT: note_on channel=9 note=42 velocity=117 time=0
EXTRACT: note_on channel=9 note=70 velocity=107 time=0
EXTRACT: note_off channel=9 note=70 velocity=65 time=0.024
EXTRACT: note_off channel=9 note=42 velocity=64 time=0
EXTRACT: note_off channel=9 note=59 velocity=65 time=0
EXTRACT: note_off channel=14 note=88 velocity=64 time=0
EXTRACT: note_off channel=11 note=100 velocity=64 time=0
EXTRACT: note_off channel=6 note=88 velocity=64 time=0
EXTRACT: note_on channel=6 note=84 velocity=82 time=0.019
EXTRACT: note_on channel=11 note=96 velocity=86 time=0
EXTRACT: note_on channel=14 note=84 velocity=87 time=0
EXTRACT: control_change channel=14 control=6 value=77 time=0.037
EXTRACT: note_on channel=6 note=81 velocity=76 time=0.019
EXTRACT: note_on channel=11 note=93 velocity=82 time=0
EXTRACT: note_on channel=14 note=81 velocity=83 time=0
EXTRACT: note_off channel=14 note=84 velocity=65 time=0.005
EXTRACT: note_off channel=11 note=96 velocity=65 time=0
EXTRACT: note_off channel=6 note=84 velocity=65 time=0
EXTRACT: note_off channel=5 note=43 velocity=65 time=0.007
EXTRACT: note_off channel=2 note=55 velocity=64 time=0
EXTRACT: note_off channel=1 note=43 velocity=64 time=0.003
EXTRACT: note_on channel=1 note=41 velocity=122 time=0.006
EXTRACT: note_on channel=2 note=53 velocity=124 time=0
EXTRACT: note_on channel=5 note=41 velocity=113 time=0
EXTRACT: note_on channel=9 note=44 velocity=98 time=0
EXTRACT: note_on channel=9 note=70 velocity=86 time=0
EXTRACT: note_off channel=9 note=70 velocity=64 time=0.024
EXTRACT: note_off channel=9 note=44 velocity=64 time=0
EXTRACT: note_off channel=14 note=81 velocity=65 time=0.02
EXTRACT: note_off channel=11 note=93 velocity=65 time=0
EXTRACT: note_off channel=6 note=81 velocity=64 time=0
EXTRACT: note_off channel=3 note=77 velocity=65 time=0.01
EXTRACT: note_on channel=6 note=77 velocity=79 time=0.013000000000000001
EXTRACT: note_on channel=11 note=89 velocity=85 time=0
EXTRACT: note_on channel=14 note=77 velocity=84 time=0
EXTRACT: control_change channel=13 control=6 value=60 time=0.013000000000000001
EXTRACT: note_off channel=10 note=72 velocity=64 time=0.006
EXTRACT: note_off channel=10 note=69 velocity=65 time=0.005
EXTRACT: note_off channel=5 note=41 velocity=65 time=0.02
EXTRACT: note_off channel=2 note=53 velocity=64 time=0
EXTRACT: note_off channel=1 note=41 velocity=64 time=0.003
EXTRACT: note_off channel=4 note=60 velocity=65 time=0
EXTRACT: note_off channel=13 note=72 velocity=65 time=0
EXTRACT: note_off channel=13 note=69 velocity=65 time=0
EXTRACT: note_on channel=1 note=26 velocity=122 time=0.006
EXTRACT: note_on channel=2 note=38 velocity=124 time=0
EXTRACT: note_on channel=4 note=62 velocity=1 time=0
EXTRACT: note_on channel=5 note=38 velocity=112 time=0
EXTRACT: note_on channel=9 note=59 velocity=103 time=0
EXTRACT: note_on channel=9 note=36 velocity=126 time=0
EXTRACT: note_on channel=9 note=42 velocity=117 time=0
EXTRACT: note_on channel=9 note=70 velocity=106 time=0
EXTRACT: note_on channel=13 note=62 velocity=56 time=0
EXTRACT: note_on channel=13 note=65 velocity=53 time=0
EXTRACT: note_on channel=13 note=74 velocity=47 time=0.002
EXTRACT: note_on channel=13 note=69 velocity=62 time=0.003
EXTRACT: note_on channel=3 note=79 velocity=116 time=0
EXTRACT: note_on channel=6 note=74 velocity=76 time=0
EXTRACT: note_on channel=11 note=86 velocity=85 time=0
EXTRACT: note_on channel=14 note=74 velocity=84 time=0
EXTRACT: note_on channel=10 note=65 velocity=95 time=0.002
EXTRACT: note_on channel=10 note=69 velocity=100 time=0
EXTRACT: note_off channel=14 note=77 velocity=64 time=0.004
EXTRACT: note_off channel=11 note=89 velocity=64 time=0
EXTRACT: note_off channel=6 note=77 velocity=65 time=0
EXTRACT: note_off channel=9 note=70 velocity=65 time=0.01
EXTRACT: note_off channel=9 note=42 velocity=65 time=0
EXTRACT: note_off channel=9 note=36 velocity=64 time=0
EXTRACT: note_off channel=9 note=59 velocity=64 time=0
EXTRACT: note_off channel=13 note=77 velocity=64 time=0.005
EXTRACT: note_off channel=5 note=38 velocity=64 time=0.082
EXTRACT: note_off channel=2 note=38 velocity=65 time=0
EXTRACT: note_on channel=2 note=38 velocity=75 time=0.009000000000000001
EXTRACT: note_on channel=5 note=38 velocity=72 time=0
EXTRACT: note_off channel=3 note=79 velocity=64 time=0.054
EXTRACT: note_off channel=1 note=26 velocity=65 time=0.03
EXTRACT: note_off channel=5 note=38 velocity=64 time=0.027
EXTRACT: note_off channel=2 note=38 velocity=65 time=0
EXTRACT: note_off channel=4 note=62 velocity=64 time=0.003
EXTRACT: note_on channel=1 note=38 velocity=123 time=0.006
EXTRACT: note_on channel=2 note=50 velocity=124 time=0
EXTRACT: note_on channel=4 note=60 velocity=1 time=0
EXTRACT: note_on channel=5 note=38 velocity=113 time=0
EXTRACT: note_on channel=9 note=59 velocity=98 time=0
EXTRACT: note_on channel=9 note=46 velocity=104 time=0
EXTRACT: note_on channel=9 note=70 velocity=107 time=0
EXTRACT: note_on channel=3 note=77 velocity=116 time=0
EXTRACT: note_off channel=9 note=70 velocity=65 time=0.006
EXTRACT: note_off channel=9 note=46 velocity=65 time=0
EXTRACT: note_off channel=9 note=59 velocity=64 time=0
EXTRACT: note_off channel=5 note=38 velocity=65 time=0.08700000000000001
EXTRACT: note_off channel=2 note=50 velocity=64 time=0
EXTRACT: note_off channel=1 note=38 velocity=65 time=0.003
EXTRACT: note_on channel=2 note=50 velocity=125 time=0.006
EXTRACT: note_on channel=5 note=38 velocity=113 time=0
EXTRACT: note_on channel=9 note=70 velocity=86 time=0
EXTRACT: note_off channel=9 note=70 velocity=64 time=0.024
EXTRACT: note_off channel=3 note=77 velocity=64 time=0.03
EXTRACT: note_off channel=5 note=38 velocity=64 time=0.057
EXTRACT: note_off channel=2 note=50 velocity=64 time=0
EXTRACT: note_on channel=9 note=39 velocity=119 time=0.001
EXTRACT: note_on channel=3 note=77 velocity=117 time=0
EXTRACT: note_on channel=1 note=26 velocity=123 time=0.002
EXTRACT: note_on channel=2 note=38 velocity=125 time=0
EXTRACT: note_on channel=5 note=38 velocity=112 time=0
EXTRACT: note_on channel=9 note=59 velocity=103 time=0
EXTRACT: note_on channel=9 note=36 velocity=127 time=0
EXTRACT: note_on channel=9 note=38 velocity=116 time=0
EXTRACT: note_on channel=9 note=42 velocity=116 time=0
EXTRACT: note_on channel=9 note=70 velocity=107 time=0
EXTRACT: note_off channel=9 note=39 velocity=65 time=0.017
EXTRACT: note_off channel=9 note=70 velocity=64 time=0.007
EXTRACT: note_off channel=9 note=42 velocity=65 time=0
EXTRACT: note_off channel=9 note=38 velocity=65 time=0
EXTRACT: note_off channel=9 note=36 velocity=64 time=0
EXTRACT: note_off channel=9 note=59 velocity=65 time=0
EXTRACT: note_off channel=5 note=38 velocity=65 time=0.08700000000000001
EXTRACT: note_off channel=2 note=38 velocity=65 time=0
EXTRACT: note_on channel=2 note=38 velocity=74 time=0.009000000000000001
EXTRACT: note_on channel=5 note=38 velocity=72 time=0
EXTRACT: note_off channel=3 note=77 velocity=65 time=0.074
EXTRACT: note_off channel=1 note=26 velocity=64 time=0.01
EXTRACT: note_off channel=5 note=38 velocity=65 time=0.027
EXTRACT: note_off channel=2 note=38 velocity=65 time=0
EXTRACT: note_off channel=4 note=60 velocity=64 time=0.003
EXTRACT: note_on channel=1 note=38 velocity=122 time=0.006
EXTRACT: note_on channel=2 note=50 velocity=125 time=0
EXTRACT: note_on channel=4 note=60 velocity=1 time=0
EXTRACT: note_on channel=5 note=38 velocity=113 time=0
EXTRACT: note_on channel=9 note=59 velocity=94 time=0
EXTRACT: note_on channel=9 note=42 velocity=115 time=0
EXTRACT: note_on channel=9 note=70 velocity=107 time=0
EXTRACT: note_on channel=3 note=77 velocity=117 time=0
EXTRACT: note_off channel=9 note=70 velocity=64 time=0.011
EXTRACT: note_off channel=9 note=42 velocity=64 time=0
EXTRACT: note_off channel=9 note=59 velocity=65 time=0
EXTRACT: note_off channel=5 note=38 velocity=64 time=0.08700000000000001
EXTRACT: note_off channel=2 note=50 velocity=64 time=0
EXTRACT: note_off channel=1 note=38 velocity=64 time=0.003
EXTRACT: note_on channel=2 note=50 velocity=124 time=0.006
EXTRACT: note_on channel=5 note=38 velocity=113 time=0
EXTRACT: note_on channel=9 note=44 velocity=98 time=0
EXTRACT: note_on channel=9 note=70 velocity=86 time=0
EXTRACT: note_off channel=9 note=70 velocity=65 time=0.024
EXTRACT: note_off channel=9 note=44 velocity=64 time=0
EXTRACT: note_off channel=3 note=77 velocity=65 time=0.05
EXTRACT: note_off channel=5 note=38 velocity=65 time=0.037
EXTRACT: note_off channel=2 note=50 velocity=64 time=0
EXTRACT: note_off channel=4 note=60 velocity=65 time=0
EXTRACT: note_off channel=4 note=57 velocity=65 time=0.003
EXTRACT: note_on channel=1 note=26 velocity=122 time=0.006
EXTRACT: note_on channel=2 note=38 velocity=124 time=0
EXTRACT: note_on channel=4 note=55 velocity=1 time=0
EXTRACT: note_on channel=5 note=38 velocity=112 time=0
EXTRACT: note_on channel=9 note=59 velocity=102 time=0
EXTRACT: note_on channel=9 note=36 velocity=127 time=0
EXTRACT: note_on channel=9 note=42 velocity=118 time=0
EXTRACT: note_on channel=9 note=70 velocity=107 time=0
EXTRACT: note_on channel=3 note=72 velocity=116 time=0
EXTRACT: note_off channel=9 note=70 velocity=64 time=0.012
EXTRACT: note_off channel=9 note=42 velocity=65 time=0
EXTRACT: note_off channel=9 note=36 velocity=65 time=0
EXTRACT: note_off channel=9 note=59 velocity=64 time=0
EXTRACT: note_off channel=5 note=38 velocity=64 time=0.039
EXTRACT: note_off channel=2 note=38 velocity=65 time=0
EXTRACT: note_on channel=2 note=38 velocity=75 time=0.009000000000000001
EXTRACT: note_on channel=5 note=38 velocity=72 time=0
EXTRACT: note_off channel=1 note=26 velocity=65 time=0.084
EXTRACT: note_off channel=5 note=38 velocity=64 time=0.027
EXTRACT: note_off channel=2 note=38 velocity=64 time=0
EXTRACT: note_off channel=4 note=55 velocity=64 time=0
EXTRACT: pitchwheel channel=3 pitch=1609 time=0.004
EXTRACT: note_on channel=1 note=38 velocity=123 time=0.005
EXTRACT: note_on channel=2 note=50 velocity=125 time=0
EXTRACT: note_on channel=4 note=57 velocity=1 time=0
EXTRACT: note_on channel=5 note=38 velocity=113 time=0
EXTRACT: note_on channel=9 note=59 velocity=103 time=0
EXTRACT: note_on channel=9 note=46 velocity=107 time=0
EXTRACT: note_on channel=9 note=70 velocity=106 time=0
EXTRACT: pitchwheel channel=3 pitch=6536 time=0.01
EXTRACT: pitchwheel channel=3 pitch=8191 time=0.013000000000000001
EXTRACT: note_off channel=9 note=70 velocity=64 time=0.001
EXTRACT: note_off channel=9 note=46 velocity=65 time=0
EXTRACT: note_off channel=9 note=59 velocity=64 time=0
EXTRACT: note_off channel=5 note=38 velocity=65 time=0.08700000000000001
EXTRACT: note_off channel=2 note=50 velocity=65 time=0
EXTRACT: note_off channel=1 note=38 velocity=64 time=0.003
EXTRACT: note_on channel=2 note=50 velocity=124 time=0.006
EXTRACT: note_on channel=5 note=38 velocity=112 time=0
EXTRACT: note_on channel=9 note=70 velocity=86 time=0
EXTRACT: note_off channel=9 note=70 velocity=65 time=0.024
EXTRACT: control_change channel=9 control=91 value=30 time=0.066
EXTRACT: note_off channel=5 note=38 velocity=65 time=0.021
EXTRACT: note_off channel=2 note=50 velocity=65 time=0
EXTRACT: note_on channel=9 note=39 velocity=119 time=0.001
EXTRACT: note_on channel=1 note=26 velocity=122 time=0.008
EXTRACT: note_on channel=2 note=38 velocity=124 time=0
EXTRACT: note_on channel=5 note=38 velocity=113 time=0
EXTRACT: note_on channel=9 note=36 velocity=126 time=0
EXTRACT: note_on channel=9 note=38 velocity=117 time=0
EXTRACT: note_on channel=9 note=42 velocity=122 time=0
EXTRACT: note_on channel=9 note=70 velocity=107 time=0
EXTRACT: note_off channel=9 note=39 velocity=65 time=0.017
EXTRACT: note_off channel=9 note=70 velocity=64 time=0.007
EXTRACT: note_off channel=9 note=42 velocity=65 time=0
EXTRACT: note_off channel=9 note=38 velocity=64 time=0
EXTRACT: note_off channel=9 note=36 velocity=64 time=0
EXTRACT: note_off channel=5 note=38 velocity=64 time=0.08700000000000001
EXTRACT: note_off channel=2 note=38 velocity=64 time=0
EXTRACT: note_on channel=2 note=38 velocity=75 time=0.009000000000000001
EXTRACT: note_on channel=5 note=38 velocity=73 time=0
EXTRACT: note_off channel=3 note=72 velocity=64 time=0.074
EXTRACT: note_off channel=1 note=26 velocity=65 time=0.01
EXTRACT: note_off channel=5 note=38 velocity=64 time=0.027
EXTRACT: note_off channel=2 note=38 velocity=65 time=0
EXTRACT: note_off channel=6 note=74 velocity=65 time=0.003
EXTRACT: note_on channel=1 note=38 velocity=123 time=0.006
EXTRACT: note_on channel=2 note=50 velocity=125 time=0
EXTRACT: note_on channel=5 note=38 velocity=112 time=0
EXTRACT: note_on channel=9 note=42 velocity=123 time=0
EXTRACT: note_on channel=9 note=70 velocity=107 time=0
EXTRACT: note_off channel=9 note=70 velocity=65 time=0.024
EXTRACT: note_off channel=9 note=42 velocity=65 time=0
EXTRACT: pitchwheel channel=3 pitch=0 time=0.038
EXTRACT: note_off channel=14 note=74 velocity=65 time=0.012
EXTRACT: note_off channel=11 note=86 velocity=65 time=0
EXTRACT: note_off channel=5 note=38 velocity=65 time=0.037
EXTRACT: note_off channel=2 note=50 velocity=64 time=0
EXTRACT: note_off channel=1 note=38 velocity=65 time=0.003
EXTRACT: note_off channel=4 note=57 velocity=64 time=0
EXTRACT: note_off channel=13 note=69 velocity=64 time=0
EXTRACT: note_on channel=2 note=50 velocity=124 time=0.006
EXTRACT: note_on channel=5 note=38 velocity=113 time=0
EXTRACT: note_on channel=9 note=44 velocity=99 time=0
EXTRACT: note_on channel=9 note=70 velocity=86 time=0
EXTRACT: control_change channel=6 control=6 value=60 time=0
EXTRACT: control_change channel=14 control=6 value=85 time=0
EXTRACT: note_off channel=10 note=65 velocity=65 time=0.015
EXTRACT: note_off channel=10 note=69 velocity=64 time=0.006
EXTRACT: note_off channel=9 note=70 velocity=64 time=0.003
EXTRACT: note_off channel=9 note=44 velocity=64 time=0
EXTRACT: note_off channel=13 note=62 velocity=65 time=0.03
EXTRACT: note_off channel=13 note=74 velocity=65 time=0.02
EXTRACT: note_off channel=13 note=65 velocity=64 time=0
EXTRACT: note_off channel=5 note=38 velocity=65 time=0.037
EXTRACT: note_off channel=2 note=50 velocity=64 time=0
EXTRACT: note_on channel=1 note=26 velocity=123 time=0
EXTRACT: note_on channel=2 note=38 velocity=124 time=0
EXTRACT: note_on channel=3 note=74 velocity=116 time=0
EXTRACT: note_on channel=5 note=38 velocity=112 time=0
EXTRACT: note_on channel=8 note=38 velocity=80 time=0
EXTRACT: note_on channel=9 note=36 velocity=126 time=0
EXTRACT: note_on channel=9 note=42 velocity=117 time=0
EXTRACT: note_on channel=9 note=70 velocity=106 time=0
EXTRACT: note_off channel=9 note=70 velocity=65 time=0.024
EXTRACT: note_off channel=9 note=42 velocity=65 time=0
EXTRACT: note_off channel=9 note=36 velocity=64 time=0
EXTRACT: note_off channel=5 note=38 velocity=64 time=0.08700000000000001
EXTRACT: note_off channel=2 note=38 velocity=65 time=0
EXTRACT: note_off channel=8 note=38 velocity=65 time=0.003
EXTRACT: note_on channel=2 note=38 velocity=75 time=0.006
EXTRACT: note_on channel=5 note=38 velocity=62 time=0
EXTRACT: note_off channel=1 note=26 velocity=64 time=0.084
EXTRACT: note_off channel=5 note=38 velocity=64 time=0.027
EXTRACT: note_off channel=2 note=38 velocity=65 time=0
EXTRACT: note_on channel=1 note=38 velocity=122 time=0.009000000000000001
EXTRACT: note_on channel=2 note=50 velocity=124 time=0
EXTRACT: note_on channel=5 note=38 velocity=113 time=0
EXTRACT: note_on channel=8 note=50 velocity=80 time=0
EXTRACT: note_on channel=9 note=46 velocity=113 time=0
EXTRACT: note_on channel=9 note=70 velocity=107 time=0
EXTRACT: note_off channel=9 note=70 velocity=64 time=0.024
EXTRACT: note_off channel=9 note=46 velocity=65 time=0
EXTRACT: note_off channel=3 note=74 velocity=64 time=0.003
EXTRACT: note_off channel=8 note=50 velocity=64 time=0.048
EXTRACT: note_off channel=5 note=38 velocity=65 time=0.036000000000000004
EXTRACT: note_off channel=2 note=50 velocity=64 time=0
EXTRACT: note_on channel=2 note=50 velocity=125 time=0.009000000000000001
EXTRACT: note_on channel=5 note=38 velocity=113 time=0
EXTRACT: note_on channel=8 note=50 velocity=81 time=0
EXTRACT: note_on channel=9 note=70 velocity=107 time=0
EXTRACT: note_off channel=9 note=70 velocity=64 time=0.024
EXTRACT: note_off channel=1 note=38 velocity=65 time=0.075
EXTRACT: note_off channel=5 note=38 velocity=64 time=0.012
EXTRACT: note_off channel=2 note=50 velocity=64 time=0
EXTRACT: note_on channel=9 note=39 velocity=118 time=0.001
EXTRACT: note_off channel=8 note=50 velocity=64 time=0.005
EXTRACT: note_on channel=1 note=26 velocity=123 time=0
EXTRACT: note_on channel=2 note=38 velocity=125 time=0
EXTRACT: note_on channel=3 note=69 velocity=117 time=0
EXTRACT: note_on channel=5 note=38 velocity=112 time=0
EXTRACT: note_on channel=8 note=38 velocity=80 time=0
EXTRACT: note_on channel=9 note=36 velocity=127 time=0
EXTRACT: note_on channel=9 note=38 velocity=116 time=0
EXTRACT: note_on channel=9 note=42 velocity=118 time=0
EXTRACT: note_on channel=9 note=70 velocity=106 time=0
EXTRACT: note_off channel=9 note=39 velocity=65 time=0.017
EXTRACT: note_off channel=9 note=70 velocity=65 time=0.007
EXTRACT: note_off channel=9 note=42 velocity=64 time=0
EXTRACT: note_off channel=9 note=38 velocity=65 time=0
EXTRACT: note_off channel=9 note=36 velocity=64 time=0
EXTRACT: note_off channel=5 note=38 velocity=65 time=0.08700000000000001
EXTRACT: note_off channel=2 note=38 velocity=65 time=0
EXTRACT: note_off channel=8 note=38 velocity=65 time=0.003
EXTRACT: note_on channel=2 note=38 velocity=74 time=0.006
EXTRACT: note_on channel=5 note=38 velocity=62 time=0
EXTRACT: note_off channel=1 note=26 velocity=64 time=0.069
EXTRACT: note_off channel=5 note=38 velocity=65 time=0.042
EXTRACT: note_off channel=2 note=38 velocity=65 time=0
EXTRACT: note_on channel=1 note=38 velocity=122 time=0.009000000000000001
EXTRACT: note_on channel=2 note=50 velocity=125 time=0
EXTRACT: note_on channel=5 note=38 velocity=113 time=0
EXTRACT: note_on channel=8 note=50 velocity=75 time=0
EXTRACT: note_on channel=9 note=42 velocity=116 time=0
EXTRACT: note_on channel=9 note=70 velocity=106 time=0
EXTRACT: note_off channel=9 note=70 velocity=64 time=0.024
EXTRACT: note_off channel=9 note=42 velocity=65 time=0
EXTRACT: note_off channel=8 note=50 velocity=64 time=0.035
EXTRACT: note_off channel=3 note=69 velocity=65 time=0.008
EXTRACT: note_off channel=5 note=38 velocity=64 time=0.044
EXTRACT: note_off channel=2 note=50 velocity=64 time=0
EXTRACT: note_on channel=2 note=50 velocity=124 time=0.009000000000000001
EXTRACT: note_on channel=5 note=38 velocity=113 time=0
EXTRACT: note_on channel=8 note=50 velocity=71 time=0
EXTRACT: note_on channel=9 note=44 velocity=99 time=0
EXTRACT: note_on channel=9 note=70 velocity=107 time=0
EXTRACT: note_off channel=9 note=70 velocity=65 time=0.024
EXTRACT: note_off channel=9 note=44 velocity=64 time=0
EXTRACT: note_off channel=1 note=38 velocity=64 time=0.075
EXTRACT: note_off channel=8 note=50 velocity=65 time=0.011
EXTRACT: note_off channel=5 note=38 velocity=65 time=0.001
EXTRACT: note_off channel=2 note=50 velocity=64 time=0
EXTRACT: note_on channel=1 note=29 velocity=122 time=0
EXTRACT: note_on channel=2 note=41 velocity=124 time=0
EXTRACT: note_on channel=3 note=74 velocity=117 time=0
EXTRACT: note_on channel=5 note=41 velocity=112 time=0
EXTRACT: note_on channel=8 note=41 velocity=80 time=0
EXTRACT: note_on channel=9 note=36 velocity=126 time=0
EXTRACT: note_on channel=9 note=42 velocity=125 time=0
EXTRACT: note_on channel=9 note=70 velocity=106 time=0
EXTRACT: note_off channel=9 note=70 velocity=64 time=0.024
EXTRACT: note_off channel=9 note=42 velocity=65 time=0
EXTRACT: note_off channel=9 note=36 velocity=65 time=0
EXTRACT: note_off channel=5 note=41 velocity=64 time=0.08700000000000001
EXTRACT: note_off channel=2 note=41 velocity=65 time=0
EXTRACT: note_off channel=8 note=41 velocity=65 time=0.003
EXTRACT: note_on channel=2 note=41 velocity=75 time=0.006
EXTRACT: note_on channel=5 note=41 velocity=62 time=0
EXTRACT: note_off channel=1 note=29 velocity=65 time=0.099
EXTRACT: note_off channel=5 note=41 velocity=64 time=0.012
EXTRACT: note_off channel=2 note=41 velocity=64 time=0
EXTRACT: note_on channel=1 note=41 velocity=123 time=0.009000000000000001
EXTRACT: note_on channel=2 note=53 velocity=125 time=0
EXTRACT: note_on channel=5 note=41 velocity=113 time=0
EXTRACT: note_on channel=8 note=53 velocity=81 time=0
EXTRACT: note_on channel=9 note=46 velocity=110 time=0
EXTRACT: note_on channel=9 note=70 velocity=107 time=0
EXTRACT: note_off channel=9 note=70 velocity=64 time=0.024
EXTRACT: note_off channel=9 note=46 velocity=64 time=0
EXTRACT: note_off channel=3 note=74 velocity=65 time=0.022
EXTRACT: note_off channel=8 note=53 velocity=64 time=0.033
EXTRACT: note_off channel=5 note=41 velocity=65 time=0.032
EXTRACT: note_off channel=2 note=53 velocity=65 time=0
EXTRACT: note_on channel=2 note=53 velocity=124 time=0.009000000000000001
EXTRACT: note_on channel=5 note=41 velocity=112 time=0
EXTRACT: note_on channel=8 note=53 velocity=80 time=0
EXTRACT: note_on channel=9 note=70 velocity=107 time=0
EXTRACT: note_off channel=9 note=70 velocity=65 time=0.024
EXTRACT: note_off channel=1 note=41 velocity=65 time=0.06
EXTRACT: note_off channel=5 note=41 velocity=65 time=0.027
EXTRACT: note_off channel=2 note=53 velocity=65 time=0
EXTRACT: note_on channel=9 note=39 velocity=118 time=0.001
EXTRACT: note_off channel=8 note=53 velocity=65 time=0.004
EXTRACT: note_on channel=1 note=24 velocity=123 time=0.004
EXTRACT: note_on channel=2 note=36 velocity=124 time=0
EXTRACT: note_on channel=5 note=36 velocity=113 time=0
EXTRACT: note_on channel=8 note=36 velocity=80 time=0
EXTRACT: note_on channel=9 note=36 velocity=127 time=0
EXTRACT: note_on channel=9 note=38 velocity=116 time=0
EXTRACT: note_on channel=9 note=42 velocity=99 time=0
EXTRACT: note_on channel=9 note=70 velocity=106 time=0
EXTRACT: note_on channel=3 note=69 velocity=116 time=0
EXTRACT: note_off channel=9 note=39 velocity=64 time=0.006
EXTRACT: note_off channel=9 note=70 velocity=65 time=0.007
EXTRACT: note_off channel=9 note=42 velocity=65 time=0
EXTRACT: note_off channel=9 note=38 velocity=64 time=0
EXTRACT: note_off channel=9 note=36 velocity=65 time=0
EXTRACT: note_off channel=5 note=36 velocity=64 time=0.08700000000000001
EXTRACT: note_off channel=2 note=36 velocity=64 time=0
EXTRACT: note_off channel=8 note=36 velocity=64 time=0.003
EXTRACT: note_on channel=2 note=36 velocity=75 time=0.006
EXTRACT: note_on channel=5 note=36 velocity=63 time=0
EXTRACT: note_off channel=3 note=69 velocity=64 time=0.031
EXTRACT: note_off channel=1 note=24 velocity=64 time=0.053
EXTRACT: note_on channel=3 note=69 velocity=116 time=0
EXTRACT: note_off channel=5 note=36 velocity=64 time=0.008
EXTRACT: note_off channel=2 note=36 velocity=65 time=0
EXTRACT: note_on channel=1 note=36 velocity=122 time=0.009000000000000001
EXTRACT: note_on channel=2 note=48 velocity=125 time=0
EXTRACT: note_on channel=5 note=36 velocity=112 time=0
EXTRACT: note_on channel=8 note=48 velocity=83 time=0
EXTRACT: note_on channel=9 note=42 velocity=114 time=0
EXTRACT: note_on channel=9 note=70 velocity=107 time=0
EXTRACT: note_off channel=9 note=70 velocity=64 time=0.024
EXTRACT: note_off channel=9 note=42 velocity=64 time=0
EXTRACT: note_off channel=8 note=48 velocity=64 time=0.065
EXTRACT: note_off channel=5 note=36 velocity=65 time=0.022
EXTRACT: note_off channel=2 note=48 velocity=64 time=0
EXTRACT: note_on channel=2 note=48 velocity=124 time=0.009000000000000001
EXTRACT: note_on channel=5 note=36 velocity=113 time=0
EXTRACT: note_on channel=8 note=48 velocity=73 time=0
EXTRACT: note_on channel=9 note=44 velocity=98 time=0
EXTRACT: note_on channel=9 note=70 velocity=106 time=0
EXTRACT: note_off channel=9 note=70 velocity=65 time=0.024
EXTRACT: note_off channel=9 note=44 velocity=65 time=0
EXTRACT: note_off channel=3 note=69 velocity=64 time=0.052000000000000005
EXTRACT: note_off channel=1 note=36 velocity=64 time=0.008
EXTRACT: note_off channel=5 note=36 velocity=65 time=0.027
EXTRACT: note_off channel=2 note=48 velocity=64 time=0
EXTRACT: note_on channel=3 note=74 velocity=117 time=0
EXTRACT: note_on channel=1 note=26 velocity=122 time=0.004
EXTRACT: note_on channel=2 note=38 velocity=124 time=0
EXTRACT: note_on channel=5 note=38 velocity=112 time=0
EXTRACT: note_on channel=8 note=38 velocity=80 time=0
EXTRACT: note_on channel=9 note=36 velocity=127 time=0
EXTRACT: note_on channel=9 note=42 velocity=122 time=0
EXTRACT: note_on channel=9 note=70 velocity=106 time=0
EXTRACT: note_off channel=8 note=48 velocity=65 time=0
EXTRACT: note_off channel=9 note=70 velocity=64 time=0.024
EXTRACT: note_off channel=9 note=42 velocity=64 time=0
EXTRACT: note_off channel=9 note=36 velocity=65 time=0
EXTRACT: note_off channel=5 note=38 velocity=64 time=0.08700000000000001
EXTRACT: note_off channel=2 note=38 velocity=65 time=0
EXTRACT: note_off channel=8 note=38 velocity=65 time=0.003
EXTRACT: note_on channel=2 note=38 velocity=75 time=0.006
EXTRACT: note_on channel=5 note=38 velocity=62 time=0
EXTRACT: note_off channel=1 note=26 velocity=65 time=0.084
EXTRACT: note_off channel=3 note=74 velocity=65 time=0.025
EXTRACT: note_off channel=5 note=38 velocity=64 time=0.002
EXTRACT: note_off channel=2 note=38 velocity=65 time=0
EXTRACT: note_on channel=1 note=38 velocity=123 time=0.009000000000000001
EXTRACT: note_on channel=2 note=50 velocity=124 time=0
EXTRACT: note_on channel=5 note=38 velocity=113 time=0
EXTRACT: note_on channel=8 note=50 velocity=80 time=0
EXTRACT: note_on channel=9 note=46 velocity=104 time=0
EXTRACT: note_on channel=9 note=70 velocity=107 time=0
EXTRACT: note_off channel=9 note=70 velocity=65 time=0.024
EXTRACT: note_off channel=9 note=46 velocity=64 time=0
EXTRACT: note_on channel=3 note=69 velocity=116 time=0
EXTRACT: note_off channel=8 note=50 velocity=64 time=0.04
EXTRACT: note_off channel=5 note=38 velocity=65 time=0.036000000000000004
EXTRACT: note_off channel=2 note=50 velocity=64 time=0
EXTRACT: note_on channel=2 note=50 velocity=125 time=0.009000000000000001
EXTRACT: note_on channel=5 note=38 velocity=113 time=0
EXTRACT: note_on channel=8 note=50 velocity=81 time=0
EXTRACT: note_on channel=9 note=70 velocity=107 time=0
EXTRACT: note_off channel=9 note=70 velocity=64 time=0.024
EXTRACT: note_off channel=1 note=38 velocity=65 time=0.075
EXTRACT: note_off channel=5 note=38 velocity=64 time=0.012
EXTRACT: note_off channel=2 note=50 velocity=64 time=0
EXTRACT: note_on channel=9 note=39 velocity=119 time=0.001
EXTRACT: note_off channel=8 note=50 velocity=64 time=0.005
EXTRACT: note_on channel=1 note=26 velocity=123 time=0.003
EXTRACT: note_on channel=2 note=38 velocity=125 time=0
EXTRACT: note_on channel=5 note=38 velocity=112 time=0
EXTRACT: note_on channel=8 note=38 velocity=81 time=0
EXTRACT: note_on channel=9 note=36 velocity=126 time=0
EXTRACT: note_on channel=9 note=38 velocity=117 time=0
EXTRACT: note_on channel=9 note=42 velocity=111 time=0
EXTRACT: note_on channel=9 note=70 velocity=106 time=0
EXTRACT: note_off channel=9 note=39 velocity=65 time=0.017
EXTRACT: note_off channel=9 note=70 velocity=64 time=0.007
EXTRACT: note_off channel=9 note=42 velocity=65 time=0
EXTRACT: note_off channel=9 note=38 velocity=65 time=0
EXTRACT: note_off channel=9 note=36 velocity=64 time=0
EXTRACT: note_off channel=3 note=69 velocity=64 time=0.079
EXTRACT: note_off channel=5 note=38 velocity=65 time=0.008
EXTRACT: note_off channel=2 note=38 velocity=65 time=0
EXTRACT: note_off channel=8 note=38 velocity=65 time=0.003
EXTRACT: note_on channel=2 note=38 velocity=74 time=0.006
EXTRACT: note_on channel=5 note=38 velocity=62 time=0
EXTRACT: note_off channel=1 note=26 velocity=64 time=0.069
EXTRACT: note_off channel=5 note=38 velocity=65 time=0.042
EXTRACT: note_off channel=2 note=38 velocity=65 time=0
EXTRACT: note_on channel=1 note=38 velocity=122 time=0.009000000000000001
EXTRACT: note_on channel=2 note=50 velocity=125 time=0
EXTRACT: note_on channel=5 note=38 velocity=113 time=0
EXTRACT: note_on channel=8 note=50 velocity=74 time=0
EXTRACT: note_on channel=9 note=42 velocity=124 time=0
EXTRACT: note_on channel=9 note=70 velocity=106 time=0
EXTRACT: note_on channel=3 note=74 velocity=117 time=0
EXTRACT: note_off channel=9 note=70 velocity=65 time=0.006
EXTRACT: note_off channel=9 note=42 velocity=64 time=0
EXTRACT: note_off channel=8 note=50 velocity=65 time=0.011
EXTRACT: note_off channel=5 note=38 velocity=64 time=0.052000000000000005
EXTRACT: note_off channel=2 note=50 velocity=64 time=0
EXTRACT: note_on channel=2 note=50 velocity=124 time=0.009000000000000001
EXTRACT: note_on channel=5 note=38 velocity=113 time=0
EXTRACT: note_on channel=8 note=50 velocity=70 time=0
EXTRACT: note_on channel=9 note=44 velocity=98 time=0
EXTRACT: note_on channel=9 note=70 velocity=107 time=0
EXTRACT: note_off channel=9 note=70 velocity=64 time=0.024
EXTRACT: note_off channel=9 note=44 velocity=65 time=0
EXTRACT: note_off channel=1 note=38 velocity=64 time=0.075
EXTRACT: note_off channel=8 note=50 velocity=64 time=0.011
EXTRACT: note_off channel=5 note=38 velocity=65 time=0.001
EXTRACT: note_off channel=2 note=50 velocity=64 time=0
EXTRACT: note_on channel=1 note=29 velocity=122 time=0.009000000000000001
EXTRACT: note_on channel=2 note=41 velocity=124 time=0
EXTRACT: note_on channel=5 note=41 velocity=112 time=0
EXTRACT: note_on channel=8 note=41 velocity=81 time=0
EXTRACT: note_on channel=9 note=36 velocity=127 time=0
EXTRACT: note_on channel=9 note=42 velocity=125 time=0
EXTRACT: note_on channel=9 note=70 velocity=107 time=0
EXTRACT: note_off channel=9 note=70 velocity=65 time=0.024
EXTRACT: note_off channel=9 note=42 velocity=64 time=0
EXTRACT: note_off channel=9 note=36 velocity=64 time=0
EXTRACT: note_off channel=3 note=74 velocity=65 time=0.046
EXTRACT: note_off channel=5 note=41 velocity=64 time=0.041
EXTRACT: note_off channel=2 note=41 velocity=65 time=0
EXTRACT: note_off channel=8 note=41 velocity=64 time=0.003
EXTRACT: note_on channel=2 note=41 velocity=75 time=0.006
EXTRACT: note_on channel=5 note=41 velocity=62 time=0
EXTRACT: note_off channel=1 note=29 velocity=65 time=0.099
EXTRACT: note_off channel=5 note=41 velocity=64 time=0.012
EXTRACT: note_off channel=2 note=41 velocity=64 time=0
EXTRACT: note_on channel=1 note=41 velocity=123 time=0.009000000000000001
EXTRACT: note_on channel=2 note=53 velocity=125 time=0
EXTRACT: note_on channel=5 note=41 velocity=113 time=0
EXTRACT: note_on channel=8 note=53 velocity=80 time=0
EXTRACT: note_on channel=9 note=46 velocity=111 time=0
EXTRACT: note_on channel=9 note=70 velocity=106 time=0
EXTRACT: note_off channel=9 note=70 velocity=65 time=0.024
EXTRACT: note_off channel=9 note=46 velocity=65 time=0
EXTRACT: note_off channel=8 note=53 velocity=65 time=0.055
EXTRACT: note_off channel=5 note=41 velocity=65 time=0.032
EXTRACT: note_off channel=2 note=53 velocity=65 time=0
EXTRACT: note_on channel=2 note=53 velocity=124 time=0.009000000000000001
EXTRACT: note_on channel=5 note=41 velocity=112 time=0
EXTRACT: note_on channel=8 note=53 velocity=81 time=0
EXTRACT: note_on channel=9 note=70 velocity=106 time=0
EXTRACT: note_off channel=9 note=70 velocity=64 time=0.024
EXTRACT: note_off channel=1 note=41 velocity=64 time=0.06
EXTRACT: note_off channel=5 note=41 velocity=65 time=0.027
EXTRACT: note_off channel=2 note=53 velocity=65 time=0
EXTRACT: note_on channel=9 note=39 velocity=118 time=0.001
EXTRACT: note_off channel=8 note=53 velocity=64 time=0.004
EXTRACT: note_on channel=1 note=24 velocity=122 time=0.004
EXTRACT: note_on channel=2 note=36 velocity=124 time=0
EXTRACT: note_on channel=5 note=36 velocity=113 time=0
EXTRACT: note_on channel=8 note=36 velocity=81 time=0
EXTRACT: note_on channel=9 note=36 velocity=126 time=0
EXTRACT: note_on channel=9 note=38 velocity=117 time=0
EXTRACT: note_on channel=9 note=42 velocity=113 time=0
EXTRACT: note_on channel=9 note=70 velocity=107 time=0
EXTRACT: note_on channel=3 note=80 velocity=117 time=0
EXTRACT: note_off channel=9 note=39 velocity=64 time=0.006
EXTRACT: note_off channel=9 note=70 velocity=65 time=0.007
EXTRACT: note_off channel=9 note=42 velocity=64 time=0
EXTRACT: note_off channel=9 note=38 velocity=65 time=0
EXTRACT: note_off channel=9 note=36 velocity=65 time=0
EXTRACT: note_off channel=5 note=36 velocity=64 time=0.08700000000000001
EXTRACT: note_off channel=2 note=36 velocity=64 time=0
EXTRACT: note_off channel=8 note=36 velocity=65 time=0.003
EXTRACT: note_on channel=2 note=36 velocity=75 time=0.006
EXTRACT: note_on channel=5 note=36 velocity=63 time=0
EXTRACT: note_off channel=1 note=24 velocity=65 time=0.084
EXTRACT: note_off channel=5 note=36 velocity=64 time=0.027
EXTRACT: note_off channel=2 note=36 velocity=65 time=0
EXTRACT: note_on channel=1 note=36 velocity=123 time=0.009000000000000001
EXTRACT: note_on channel=2 note=48 velocity=125 time=0
EXTRACT: note_on channel=5 note=36 velocity=112 time=0
EXTRACT: note_on channel=8 note=48 velocity=82 time=0
EXTRACT: note_on channel=9 note=42 velocity=108 time=0
EXTRACT: note_on channel=9 note=70 velocity=106 time=0
EXTRACT: note_off channel=3 note=80 velocity=65 time=0.004
EXTRACT: note_off channel=9 note=70 velocity=64 time=0.02
EXTRACT: note_off channel=9 note=42 velocity=65 time=0
EXTRACT: note_on channel=3 note=79 velocity=116 time=0
EXTRACT: note_off channel=8 note=48 velocity=65 time=0.056
EXTRACT: note_off channel=5 note=36 velocity=65 time=0.022
EXTRACT: note_off channel=2 note=48 velocity=64 time=0
EXTRACT: note_on channel=2 note=48 velocity=124 time=0.009000000000000001
EXTRACT: note_on channel=5 note=36 velocity=113 time=0
EXTRACT: note_on channel=8 note=48 velocity=69 time=0
EXTRACT: note_on channel=9 note=44 velocity=99 time=0
EXTRACT: note_on channel=9 note=70 velocity=107 time=0
EXTRACT: note_off channel=9 note=70 velocity=64 time=0.024
EXTRACT: note_off channel=9 note=44 velocity=64 time=0
EXTRACT: note_off channel=1 note=36 velocity=65 time=0.06
EXTRACT: control_change channel=9 control=91 value=20 time=0.006
EXTRACT: note_off channel=5 note=36 velocity=65 time=0.024
EXTRACT: note_off channel=2 note=48 velocity=64 time=0
EXTRACT: note_on channel=1 note=26 velocity=123 time=0.006
EXTRACT: note_on channel=2 note=38 velocity=124 time=0
EXTRACT: note_on channel=5 note=38 velocity=112 time=0
EXTRACT: note_on channel=8 note=38 velocity=80 time=0
EXTRACT: note_on channel=9 note=36 velocity=126 time=0
EXTRACT: note_on channel=9 note=42 velocity=125 time=0
EXTRACT: note_on channel=9 note=70 velocity=107 time=0
EXTRACT: note_off channel=8 note=48 velocity=64 time=0
EXTRACT: note_off channel=9 note=70 velocity=65 time=0.024
EXTRACT: note_off channel=9 note=42 velocity=65 time=0
EXTRACT: note_off channel=9 note=36 velocity=64 time=0
EXTRACT: note_off channel=3 note=79 velocity=64 time=0.059000000000000004
EXTRACT: note_off channel=5 note=38 velocity=64 time=0.028
EXTRACT: note_off channel=2 note=38 velocity=65 time=0
EXTRACT: note_off channel=8 note=38 velocity=65 time=0.003
EXTRACT: note_on channel=2 note=38 velocity=75 time=0.006
EXTRACT: note_on channel=5 note=38 velocity=62 time=0
EXTRACT: note_off channel=1 note=26 velocity=64 time=0.084
EXTRACT: note_on channel=3 note=77 velocity=117 time=0
EXTRACT: note_off channel=5 note=38 velocity=64 time=0.003
EXTRACT: note_off channel=2 note=38 velocity=65 time=0
EXTRACT: note_on channel=1 note=38 velocity=122 time=0.009000000000000001
EXTRACT: note_on channel=2 note=50 velocity=124 time=0
EXTRACT: note_on channel=5 note=38 velocity=113 time=0
EXTRACT: note_on channel=8 note=50 velocity=80 time=0
EXTRACT: note_on channel=9 note=46 velocity=110 time=0
EXTRACT: note_on channel=9 note=70 velocity=106 time=0
EXTRACT: note_off channel=9 note=70 velocity=64 time=0.024
EXTRACT: note_off channel=9 note=46 velocity=65 time=0
EXTRACT: note_off channel=8 note=50 velocity=64 time=0.051000000000000004
EXTRACT: note_off channel=5 note=38 velocity=65 time=0.036000000000000004
EXTRACT: note_off channel=2 note=50 velocity=64 time=0
EXTRACT: note_on channel=2 note=50 velocity=125 time=0.009000000000000001
EXTRACT: note_on channel=5 note=38 velocity=113 time=0
EXTRACT: note_on channel=8 note=50 velocity=81 time=0
EXTRACT: note_on channel=9 note=70 velocity=107 time=0
EXTRACT: note_off channel=9 note=70 velocity=65 time=0.024
EXTRACT: note_off channel=1 note=38 velocity=65 time=0.075
EXTRACT: note_off channel=5 note=38 velocity=64 time=0.012
EXTRACT: note_off channel=2 note=50 velocity=64 time=0
EXTRACT: note_on channel=9 note=39 velocity=119 time=0.001
EXTRACT: note_off channel=8 note=50 velocity=64 time=0.005
EXTRACT: note_on channel=1 note=26 velocity=123 time=0.003
EXTRACT: note_on channel=2 note=38 velocity=125 time=0
EXTRACT: note_on channel=5 note=38 velocity=112 time=0
EXTRACT: note_on channel=8 note=38 velocity=81 time=0
EXTRACT: note_on channel=9 note=36 velocity=127 time=0
EXTRACT: note_on channel=9 note=38 velocity=116 time=0
EXTRACT: note_on channel=9 note=42 velocity=122 time=0
EXTRACT: note_on channel=9 note=70 velocity=106 time=0
EXTRACT: note_off channel=3 note=77 velocity=65 time=0.007
EXTRACT: note_off channel=9 note=39 velocity=64 time=0.01
EXTRACT: note_off channel=9 note=70 velocity=64 time=0.007
EXTRACT: note_off channel=9 note=42 velocity=65 time=0
EXTRACT: note_off channel=9 note=38 velocity=64 time=0
EXTRACT: note_off channel=9 note=36 velocity=65 time=0
EXTRACT: note_off channel=5 note=38 velocity=65 time=0.08700000000000001
EXTRACT: note_off channel=2 note=38 velocity=65 time=0
EXTRACT: note_off channel=8 note=38 velocity=65 time=0.003
EXTRACT: note_on channel=2 note=38 velocity=74 time=0.006
EXTRACT: note_on channel=5 note=38 velocity=62 time=0
EXTRACT: note_off channel=1 note=26 velocity=64 time=0.069
EXTRACT: note_off channel=5 note=38 velocity=65 time=0.042
EXTRACT: note_off channel=2 note=38 velocity=65 time=0
EXTRACT: note_on channel=1 note=38 velocity=122 time=0.009000000000000001
EXTRACT: note_on channel=2 note=50 velocity=125 time=0
EXTRACT: note_on channel=5 note=38 velocity=113 time=0
EXTRACT: note_on channel=8 note=50 velocity=74 time=0
EXTRACT: note_on channel=9 note=42 velocity=116 time=0
EXTRACT: note_on channel=9 note=70 velocity=106 time=0
EXTRACT: note_on channel=3 note=77 velocity=116 time=0
EXTRACT: note_off channel=9 note=70 velocity=65 time=0.022
EXTRACT: note_off channel=9 note=42 velocity=64 time=0
EXTRACT: note_off channel=8 note=50 velocity=65 time=0.027
EXTRACT: note_off channel=5 note=38 velocity=64 time=0.052000000000000005
EXTRACT: note_off channel=2 note=50 velocity=64 time=0
EXTRACT: note_on channel=2 note=50 velocity=124 time=0.009000000000000001
EXTRACT: note_on channel=5 note=38 velocity=113 time=0
EXTRACT: note_on channel=8 note=50 velocity=70 time=0
EXTRACT: note_on channel=9 note=44 velocity=99 time=0
EXTRACT: note_on channel=9 note=70 velocity=107 time=0
EXTRACT: note_off channel=9 note=70 velocity=65 time=0.024
EXTRACT: note_off channel=9 note=44 velocity=64 time=0
EXTRACT: note_off channel=1 note=38 velocity=64 time=0.075
EXTRACT: note_off channel=8 note=50 velocity=64 time=0.011
EXTRACT: note_off channel=5 note=38 velocity=65 time=0.001
EXTRACT: note_off channel=2 note=50 velocity=64 time=0
EXTRACT: note_on channel=1 note=29 velocity=122 time=0.009000000000000001
EXTRACT: note_on channel=2 note=41 velocity=124 time=0
EXTRACT: note_on channel=5 note=41 velocity=112 time=0
EXTRACT: note_on channel=8 note=41 velocity=81 time=0
EXTRACT: note_on channel=9 note=36 velocity=127 time=0
EXTRACT: note_on channel=9 note=42 velocity=125 time=0
EXTRACT: note_on channel=9 note=70 velocity=107 time=0
EXTRACT: note_off channel=3 note=77 velocity=64 time=0.001
EXTRACT: note_off channel=9 note=70 velocity=64 time=0.023
EXTRACT: note_off channel=9 note=42 velocity=65 time=0
EXTRACT: note_off channel=9 note=36 velocity=65 time=0
EXTRACT: note_off channel=5 note=41 velocity=64 time=0.08700000000000001
EXTRACT: note_off channel=2 note=41 velocity=65 time=0
EXTRACT: note_off channel=8 note=41 velocity=64 time=0.003
EXTRACT: note_on channel=2 note=41 velocity=75 time=0.006
EXTRACT: note_on channel=5 note=41 velocity=62 time=0
EXTRACT: note_off channel=1 note=29 velocity=65 time=0.099
EXTRACT: note_on channel=3 note=77 velocity=116 time=0
EXTRACT: note_off channel=5 note=41 velocity=64 time=0.006
EXTRACT: note_off channel=2 note=41 velocity=64 time=0
EXTRACT: note_on channel=1 note=41 velocity=123 time=0.009000000000000001
EXTRACT: note_on channel=2 note=53 velocity=125 time=0
EXTRACT: note_on channel=5 note=41 velocity=113 time=0
EXTRACT: note_on channel=8 note=53 velocity=81 time=0
EXTRACT: note_on channel=9 note=46 velocity=107 time=0
EXTRACT: note_on channel=9 note=70 velocity=106 time=0
EXTRACT: note_off channel=9 note=70 velocity=64 time=0.024
EXTRACT: note_off channel=9 note=46 velocity=64 time=0
EXTRACT: note_off channel=8 note=53 velocity=65 time=0.055
EXTRACT: note_off channel=5 note=41 velocity=65 time=0.032
EXTRACT: note_off channel=2 note=53 velocity=65 time=0
EXTRACT: note_on channel=2 note=53 velocity=124 time=0.009000000000000001
EXTRACT: note_on channel=5 note=41 velocity=112 time=0
EXTRACT: note_on channel=8 note=53 velocity=80 time=0
EXTRACT: note_on channel=9 note=70 velocity=106 time=0
EXTRACT: note_off channel=9 note=70 velocity=65 time=0.024
EXTRACT: note_off channel=3 note=77 velocity=64 time=0.009000000000000001
EXTRACT: note_on channel=3 note=79 velocity=117 time=0
EXTRACT: note_off channel=1 note=41 velocity=65 time=0
EXTRACT: note_off channel=5 note=41 velocity=65 time=0.027
EXTRACT: note_off channel=2 note=53 velocity=65 time=0
EXTRACT: note_on channel=9 note=39 velocity=119 time=0.001
EXTRACT: note_off channel=8 note=53 velocity=65 time=0.002
EXTRACT: note_on channel=1 note=24 velocity=123 time=0.004
EXTRACT: note_on channel=2 note=36 velocity=124 time=0
EXTRACT: note_on channel=5 note=36 velocity=113 time=0
EXTRACT: note_on channel=8 note=36 velocity=80 time=0
EXTRACT: note_on channel=9 note=36 velocity=126 time=0
EXTRACT: note_on channel=9 note=38 velocity=116 time=0
EXTRACT: note_on channel=9 note=42 velocity=117 time=0
EXTRACT: note_on channel=9 note=70 velocity=107 time=0
EXTRACT: note_off channel=9 note=39 velocity=65 time=0.017
EXTRACT: note_off channel=9 note=70 velocity=64 time=0.007
EXTRACT: note_off channel=9 note=42 velocity=64 time=0
EXTRACT: note_off channel=9 note=38 velocity=65 time=0
EXTRACT: note_off channel=9 note=36 velocity=64 time=0
EXTRACT: note_off channel=5 note=36 velocity=64 time=0.08700000000000001
EXTRACT: note_off channel=2 note=36 velocity=64 time=0
EXTRACT: note_off channel=8 note=36 velocity=64 time=0.003
EXTRACT: note_on channel=2 note=36 velocity=75 time=0.006
EXTRACT: note_on channel=5 note=36 velocity=63 time=0
EXTRACT: note_off channel=3 note=79 velocity=65 time=0.028
EXTRACT: note_off channel=1 note=24 velocity=64 time=0.056
EXTRACT: note_off channel=5 note=36 velocity=64 time=0.027
EXTRACT: note_off channel=2 note=36 velocity=65 time=0
EXTRACT: note_on channel=1 note=36 velocity=122 time=0.009000000000000001
EXTRACT: note_on channel=2 note=48 velocity=125 time=0
EXTRACT: note_on channel=5 note=36 velocity=112 time=0
EXTRACT: note_on channel=8 note=48 velocity=83 time=0
EXTRACT: note_on channel=9 note=42 velocity=116 time=0
EXTRACT: note_on channel=9 note=70 velocity=107 time=0
EXTRACT: note_on channel=3 note=79 velocity=117 time=0
EXTRACT: note_off channel=9 note=70 velocity=65 time=0.006
EXTRACT: note_off channel=9 note=42 velocity=65 time=0
EXTRACT: note_off channel=8 note=48 velocity=64 time=0.065
EXTRACT: note_off channel=5 note=36 velocity=65 time=0.022
EXTRACT: note_off channel=2 note=48 velocity=64 time=0
EXTRACT: note_on channel=2 note=48 velocity=124 time=0.009000000000000001
EXTRACT: note_on channel=5 note=36 velocity=113 time=0
EXTRACT: note_on channel=8 note=48 velocity=72 time=0
EXTRACT: note_on channel=9 note=44 velocity=98 time=0
EXTRACT: note_on channel=9 note=70 velocity=106 time=0
EXTRACT: note_off channel=9 note=70 velocity=64 time=0.024
EXTRACT: note_off channel=9 note=44 velocity=65 time=0
EXTRACT: note_off channel=1 note=36 velocity=64 time=0.06
EXTRACT: note_off channel=5 note=36 velocity=65 time=0.027
EXTRACT: note_off channel=2 note=48 velocity=64 time=0
EXTRACT: note_on channel=1 note=26 velocity=122 time=0.009000000000000001
EXTRACT: note_on channel=2 note=38 velocity=124 time=0
EXTRACT: note_on channel=5 note=38 velocity=112 time=0
EXTRACT: note_on channel=8 note=38 velocity=81 time=0
EXTRACT: note_on channel=9 note=36 velocity=126 time=0
EXTRACT: note_on channel=9 note=42 velocity=116 time=0
EXTRACT: note_on channel=9 note=70 velocity=106 time=0
EXTRACT: note_off channel=8 note=48 velocity=65 time=0
EXTRACT: note_off channel=9 note=70 velocity=64 time=0.024
EXTRACT: note_off channel=9 note=42 velocity=64 time=0
EXTRACT: note_off channel=9 note=36 velocity=65 time=0
EXTRACT: note_off channel=3 note=79 velocity=65 time=0.006
EXTRACT: note_off channel=5 note=38 velocity=64 time=0.081
EXTRACT: note_off channel=2 note=38 velocity=65 time=0
EXTRACT: note_off channel=8 note=38 velocity=64 time=0.003
EXTRACT: note_on channel=2 note=38 velocity=75 time=0.006
EXTRACT: note_on channel=5 note=38 velocity=62 time=0
EXTRACT: note_off channel=1 note=26 velocity=65 time=0.084
EXTRACT: note_off channel=5 note=38 velocity=64 time=0.027
EXTRACT: note_off channel=2 note=38 velocity=65 time=0
EXTRACT: note_on channel=1 note=38 velocity=123 time=0.009000000000000001
EXTRACT: note_on channel=2 note=50 velocity=124 time=0
EXTRACT: note_on channel=5 note=38 velocity=113 time=0
EXTRACT: note_on channel=8 note=50 velocity=81 time=0
EXTRACT: note_on channel=9 note=46 velocity=105 time=0
EXTRACT: note_on channel=9 note=70 velocity=107 time=0
EXTRACT: note_on channel=3 note=77 velocity=116 time=0
EXTRACT: note_off channel=9 note=70 velocity=65 time=0.007
EXTRACT: note_off channel=9 note=46 velocity=64 time=0
EXTRACT: note_off channel=8 note=50 velocity=65 time=0.051000000000000004
EXTRACT: note_off channel=5 note=38 velocity=65 time=0.036000000000000004
EXTRACT: note_off channel=2 note=50 velocity=64 time=0
EXTRACT: note_on channel=2 note=50 velocity=125 time=0.009000000000000001
EXTRACT: note_on channel=5 note=38 velocity=113 time=0
EXTRACT: note_on channel=8 note=50 velocity=80 time=0
EXTRACT: note_on channel=9 note=70 velocity=106 time=0
EXTRACT: note_off channel=9 note=70 velocity=64 time=0.024
EXTRACT: note_off channel=1 note=38 velocity=65 time=0.075
EXTRACT: note_off channel=5 note=38 velocity=64 time=0.012
EXTRACT: note_off channel=2 note=50 velocity=64 time=0
EXTRACT: note_on channel=9 note=39 velocity=118 time=0.001
EXTRACT: note_off channel=8 note=50 velocity=65 time=0.005
EXTRACT: note_on channel=1 note=26 velocity=123 time=0.003
EXTRACT: note_on channel=2 note=38 velocity=125 time=0
EXTRACT: note_on channel=5 note=38 velocity=112 time=0
EXTRACT: note_on channel=8 note=38 velocity=81 time=0
EXTRACT: note_on channel=9 note=36 velocity=127 time=0
EXTRACT: note_on channel=9 note=38 velocity=117 time=0
EXTRACT: note_on channel=9 note=42 velocity=117 time=0
EXTRACT: note_on channel=9 note=70 velocity=107 time=0
EXTRACT: note_off channel=9 note=39 velocity=65 time=0.017
EXTRACT: note_off channel=9 note=70 velocity=65 time=0.007
EXTRACT: note_off channel=9 note=42 velocity=64 time=0
EXTRACT: note_off channel=9 note=38 velocity=64 time=0
EXTRACT: note_off channel=9 note=36 velocity=65 time=0
EXTRACT: note_off channel=3 note=77 velocity=64 time=0.012
EXTRACT: note_off channel=5 note=38 velocity=65 time=0.075
EXTRACT: note_off channel=2 note=38 velocity=65 time=0
EXTRACT: note_off channel=8 note=38 velocity=64 time=0.003
EXTRACT: note_on channel=2 note=38 velocity=74 time=0.006
EXTRACT: note_on channel=5 note=38 velocity=62 time=0
EXTRACT: note_off channel=1 note=26 velocity=64 time=0.069
EXTRACT: note_off channel=5 note=38 velocity=65 time=0.042
EXTRACT: note_off channel=2 note=38 velocity=65 time=0
EXTRACT: note_on channel=1 note=38 velocity=122 time=0.009000000000000001
EXTRACT: note_on channel=2 note=50 velocity=125 time=0
EXTRACT: note_on channel=5 note=38 velocity=113 time=0
EXTRACT: note_on channel=8 note=50 velocity=74 time=0
EXTRACT: note_on channel=9 note=42 velocity=115 time=0
EXTRACT: note_on channel=9 note=70 velocity=107 time=0
EXTRACT: note_on channel=3 note=77 velocity=116 time=0
EXTRACT: note_off channel=9 note=70 velocity=64 time=0.016
EXTRACT: note_off channel=9 note=42 velocity=65 time=0
EXTRACT: note_off channel=8 note=50 velocity=65 time=0.035
EXTRACT: note_off channel=5 note=38 velocity=64 time=0.052000000000000005
EXTRACT: note_off channel=2 note=50 velocity=64 time=0
EXTRACT: note_on channel=2 note=50 velocity=124 time=0.009000000000000001
EXTRACT: note_on channel=5 note=38 velocity=113 time=0
EXTRACT: note_on channel=8 note=50 velocity=70 time=0
EXTRACT: note_on channel=9 note=44 velocity=98 time=0
EXTRACT: note_on channel=9 note=70 velocity=106 time=0
EXTRACT: note_off channel=9 note=70 velocity=65 time=0.024
EXTRACT: note_off channel=9 note=44 velocity=64 time=0
EXTRACT: note_off channel=1 note=38 velocity=64 time=0.075
EXTRACT: note_off channel=8 note=50 velocity=64 time=0.011
EXTRACT: note_off channel=5 note=38 velocity=65 time=0.001
EXTRACT: note_off channel=2 note=50 velocity=64 time=0
EXTRACT: note_on channel=1 note=29 velocity=122 time=0.009000000000000001
EXTRACT: note_on channel=2 note=41 velocity=124 time=0
EXTRACT: note_on channel=5 note=41 velocity=112 time=0
EXTRACT: note_on channel=8 note=41 velocity=81 time=0
EXTRACT: note_on channel=9 note=36 velocity=127 time=0
EXTRACT: note_on channel=9 note=42 velocity=118 time=0
EXTRACT: note_on channel=9 note=70 velocity=107 time=0
EXTRACT: note_off channel=3 note=77 velocity=64 time=0
EXTRACT: note_on channel=3 note=72 velocity=117 time=0
EXTRACT: note_off channel=9 note=70 velocity=65 time=0.013000000000000001
EXTRACT: note_off channel=9 note=42 velocity=64 time=0
EXTRACT: note_off channel=9 note=36 velocity=64 time=0
EXTRACT: note_off channel=5 note=41 velocity=64 time=0.04
EXTRACT: note_off channel=2 note=41 velocity=65 time=0
EXTRACT: note_off channel=8 note=41 velocity=64 time=0.003
EXTRACT: note_on channel=2 note=41 velocity=75 time=0.006
EXTRACT: note_on channel=5 note=41 velocity=62 time=0
EXTRACT: pitchwheel channel=3 pitch=827 time=0.095
EXTRACT: note_off channel=1 note=29 velocity=65 time=0.004
EXTRACT: pitchwheel channel=3 pitch=6039 time=0.01
EXTRACT: note_off channel=5 note=41 velocity=64 time=0.002
EXTRACT: note_off channel=2 note=41 velocity=64 time=0
EXTRACT: note_on channel=1 note=41 velocity=123 time=0.009000000000000001
EXTRACT: note_on channel=2 note=53 velocity=125 time=0
EXTRACT: note_on channel=5 note=41 velocity=113 time=0
EXTRACT: note_on channel=8 note=53 velocity=81 time=0
EXTRACT: note_on channel=9 note=46 velocity=106 time=0
EXTRACT: note_on channel=9 note=70 velocity=106 time=0
EXTRACT: pitchwheel channel=3 pitch=8191 time=0.003
EXTRACT: note_off channel=9 note=70 velocity=65 time=0.021
EXTRACT: note_off channel=9 note=46 velocity=65 time=0
EXTRACT: note_off channel=8 note=53 velocity=65 time=0.055
EXTRACT: note_off channel=5 note=41 velocity=65 time=0.032
EXTRACT: note_off channel=2 note=53 velocity=65 time=0
EXTRACT: note_on channel=2 note=53 velocity=124 time=0.009000000000000001
EXTRACT: note_on channel=5 note=41 velocity=112 time=0
EXTRACT: note_on channel=8 note=53 velocity=80 time=0
EXTRACT: note_on channel=9 note=70 velocity=106 time=0
EXTRACT: note_off channel=9 note=70 velocity=64 time=0.024
EXTRACT: note_off channel=1 note=41 velocity=64 time=0.06
EXTRACT: control_change channel=9 control=91 value=30 time=0.006
EXTRACT: note_off channel=5 note=41 velocity=65 time=0.021
EXTRACT: note_off channel=2 note=53 velocity=65 time=0
EXTRACT: note_on channel=9 note=39 velocity=119 time=0.001
EXTRACT: note_off channel=8 note=53 velocity=65 time=0.004
EXTRACT: note_on channel=1 note=24 velocity=122 time=0.004
EXTRACT: note_on channel=2 note=36 velocity=124 time=0
EXTRACT: note_on channel=5 note=36 velocity=113 time=0
EXTRACT: note_on channel=8 note=36 velocity=80 time=0
EXTRACT: note_on channel=9 note=36 velocity=126 time=0
EXTRACT: note_on channel=9 note=38 velocity=117 time=0
EXTRACT: note_on channel=9 note=42 velocity=122 time=0
EXTRACT: note_on channel=9 note=70 velocity=107 time=0
EXTRACT: note_off channel=9 note=39 velocity=64 time=0.017
EXTRACT: note_off channel=9 note=70 velocity=65 time=0.007
EXTRACT: note_off channel=9 note=42 velocity=65 time=0
EXTRACT: note_off channel=9 note=38 velocity=64 time=0
EXTRACT: note_off channel=9 note=36 velocity=64 time=0
EXTRACT: note_off channel=5 note=36 velocity=64 time=0.08700000000000001
EXTRACT: note_off channel=2 note=36 velocity=64 time=0
EXTRACT: note_off channel=8 note=36 velocity=64 time=0.003
EXTRACT: note_on channel=2 note=36 velocity=75 time=0.006
EXTRACT: note_on channel=5 note=36 velocity=63 time=0
EXTRACT: note_on channel=12 note=76 velocity=127 time=0.064
EXTRACT: note_on channel=12 note=84 velocity=127 time=0.01
EXTRACT: note_off channel=1 note=24 velocity=65 time=0.01
EXTRACT: note_off channel=3 note=72 velocity=65 time=0.015
EXTRACT: note_off channel=5 note=36 velocity=64 time=0.012
EXTRACT: note_off channel=2 note=36 velocity=65 time=0
EXTRACT: note_on channel=1 note=36 velocity=123 time=0.009000000000000001
EXTRACT: note_on channel=2 note=48 velocity=125 time=0
EXTRACT: note_on channel=5 note=36 velocity=112 time=0
EXTRACT: note_on channel=8 note=48 velocity=83 time=0
EXTRACT: note_on channel=9 note=42 velocity=123 time=0
EXTRACT: note_on channel=9 note=55 velocity=114 time=0
EXTRACT: note_on channel=9 note=70 velocity=107 time=0
EXTRACT: note_off channel=9 note=70 velocity=65 time=0.024
EXTRACT: note_off channel=9 note=55 velocity=64 time=0
EXTRACT: note_off channel=9 note=42 velocity=65 time=0
EXTRACT: pitchwheel channel=3 pitch=0 time=0.028
EXTRACT: note_off channel=8 note=48 velocity=64 time=0.037
EXTRACT: note_off channel=5 note=36 velocity=65 time=0.022
EXTRACT: note_off channel=2 note=48 velocity=64 time=0
EXTRACT: note_on channel=2 note=48 velocity=124 time=0.009000000000000001
EXTRACT: note_on channel=5 note=36 velocity=113 time=0
EXTRACT: note_on channel=8 note=48 velocity=69 time=0
EXTRACT: note_on channel=9 note=44 velocity=99 time=0
EXTRACT: note_on channel=9 note=70 velocity=106 time=0
EXTRACT: note_off channel=9 note=70 velocity=65 time=0.024
EXTRACT: note_off channel=9 note=44 velocity=64 time=0
EXTRACT: note_off channel=1 note=36 velocity=65 time=0.06
EXTRACT: note_off channel=12 note=76 velocity=65 time=0.009000000000000001
EXTRACT: note_off channel=12 note=84 velocity=65 time=0.01
EXTRACT: note_on channel=3 note=74 velocity=117 time=0
EXTRACT: note_off channel=5 note=36 velocity=65 time=0.009000000000000001
EXTRACT: note_off channel=2 note=48 velocity=64 time=0
EXTRACT: note_on channel=1 note=26 velocity=123 time=0.006
EXTRACT: note_on channel=2 note=38 velocity=124 time=0
EXTRACT: note_on channel=5 note=38 velocity=112 time=0
EXTRACT: note_on channel=8 note=38 velocity=80 time=0
EXTRACT: note_on channel=9 note=36 velocity=126 time=0
EXTRACT: note_on channel=9 note=42 velocity=126 time=0
EXTRACT: note_on channel=9 note=70 velocity=106 time=0
EXTRACT: note_off channel=8 note=48 velocity=65 time=0
EXTRACT: note_off channel=9 note=70 velocity=65 time=0.024
EXTRACT: note_off channel=9 note=42 velocity=64 time=0
EXTRACT: note_off channel=9 note=36 velocity=64 time=0
EXTRACT: note_off channel=5 note=38 velocity=64 time=0.08700000000000001
EXTRACT: note_off channel=2 note=38 velocity=65 time=0
EXTRACT: note_off channel=8 note=38 velocity=65 time=0.003
EXTRACT: note_on channel=2 note=38 velocity=75 time=0.006
EXTRACT: note_on channel=5 note=38 velocity=62 time=0
EXTRACT: note_off channel=1 note=26 velocity=64 time=0.084
EXTRACT: note_off channel=3 note=74 velocity=65 time=0.021
EXTRACT: note_off channel=5 note=38 velocity=64 time=0.006
EXTRACT: note_off channel=2 note=38 velocity=65 time=0
EXTRACT: note_on channel=1 note=38 velocity=122 time=0.009000000000000001
EXTRACT: note_on channel=2 note=50 velocity=124 time=0
EXTRACT: note_on channel=5 note=38 velocity=113 time=0
EXTRACT: note_on channel=8 note=50 velocity=80 time=0
EXTRACT: note_on channel=9 note=46 velocity=113 time=0
EXTRACT: note_on channel=9 note=70 velocity=107 time=0
EXTRACT: note_off channel=9 note=70 velocity=65 time=0.024
EXTRACT: note_off channel=9 note=46 velocity=65 time=0
EXTRACT: note_off channel=8 note=50 velocity=64 time=0.051000000000000004
EXTRACT: note_off channel=5 note=38 velocity=65 time=0.036000000000000004
EXTRACT: note_off channel=2 note=50 velocity=64 time=0
EXTRACT: note_on channel=2 note=50 velocity=125 time=0.009000000000000001
EXTRACT: note_on channel=5 note=38 velocity=113 time=0
EXTRACT: note_on channel=8 note=50 velocity=81 time=0
EXTRACT: note_on channel=9 note=70 velocity=107 time=0
EXTRACT: note_off channel=9 note=70 velocity=64 time=0.024
EXTRACT: note_off channel=1 note=38 velocity=65 time=0.075
EXTRACT: note_off channel=5 note=38 velocity=64 time=0.012
EXTRACT: note_off channel=2 note=50 velocity=64 time=0
EXTRACT: note_on channel=9 note=39 velocity=118 time=0.001
EXTRACT: note_off channel=8 note=50 velocity=64 time=0.005
EXTRACT: note_on channel=3 note=76 velocity=116 time=0
EXTRACT: note_on channel=1 note=26 velocity=123 time=0.002
EXTRACT: note_on channel=2 note=38 velocity=125 time=0
EXTRACT: note_on channel=5 note=38 velocity=112 time=0
EXTRACT: note_on channel=8 note=38 velocity=80 time=0
EXTRACT: note_on channel=9 note=36 velocity=127 time=0
EXTRACT: note_on channel=9 note=38 velocity=116 time=0
EXTRACT: note_on channel=9 note=42 velocity=119 time=0
EXTRACT: note_on channel=9 note=70 velocity=106 time=0
EXTRACT: note_off channel=9 note=39 velocity=64 time=0.017
EXTRACT: note_off channel=9 note=70 velocity=65 time=0.007
EXTRACT: note_off channel=9 note=42 velocity=65 time=0
EXTRACT: note_off channel=9 note=38 velocity=64 time=0
EXTRACT: note_off channel=9 note=36 velocity=64 time=0
EXTRACT: note_off channel=5 note=38 velocity=65 time=0.08700000000000001
EXTRACT: note_off channel=2 note=38 velocity=65 time=0
EXTRACT: note_off channel=8 note=38 velocity=65 time=0.003
EXTRACT: note_on channel=2 note=38 velocity=74 time=0.006
EXTRACT: note_on channel=5 note=38 velocity=62 time=0
EXTRACT: note_off channel=1 note=26 velocity=64 time=0.069
EXTRACT: note_off channel=5 note=38 velocity=65 time=0.042
EXTRACT: note_off channel=2 note=38 velocity=65 time=0
EXTRACT: note_on channel=1 note=38 velocity=122 time=0.009000000000000001
EXTRACT: note_on channel=2 note=50 velocity=125 time=0
EXTRACT: note_on channel=5 note=38 velocity=113 time=0
EXTRACT: note_on channel=8 note=50 velocity=75 time=0
EXTRACT: note_on channel=9 note=42 velocity=117 time=0
EXTRACT: note_on channel=9 note=70 velocity=106 time=0
EXTRACT: note_off channel=9 note=70 velocity=65 time=0.024
EXTRACT: note_off channel=9 note=42 velocity=64 time=0
EXTRACT: note_off channel=3 note=76 velocity=64 time=0.004
EXTRACT: note_off channel=8 note=50 velocity=64 time=0.031
EXTRACT: note_off channel=5 note=38 velocity=64 time=0.052000000000000005
EXTRACT: note_off channel=2 note=50 velocity=64 time=0
EXTRACT: note_on channel=2 note=50 velocity=124 time=0.009000000000000001
EXTRACT: note_on channel=5 note=38 velocity=113 time=0
EXTRACT: note_on channel=8 note=50 velocity=71 time=0
EXTRACT: note_on channel=9 note=44 velocity=98 time=0
EXTRACT: note_on channel=9 note=70 velocity=107 time=0
EXTRACT: note_off channel=9 note=70 velocity=65 time=0.024
EXTRACT: note_off channel=9 note=44 velocity=65 time=0
EXTRACT: note_off channel=1 note=38 velocity=64 time=0.075
EXTRACT: note_off channel=8 note=50 velocity=65 time=0.011
EXTRACT: note_off channel=5 note=38 velocity=65 time=0.001
EXTRACT: note_off channel=2 note=50 velocity=64 time=0
EXTRACT: note_on channel=1 note=29 velocity=122 time=0.009000000000000001
EXTRACT: note_on channel=2 note=41 velocity=124 time=0
EXTRACT: note_on channel=5 note=41 velocity=112 time=0
EXTRACT: note_on channel=8 note=41 velocity=80 time=0
EXTRACT: note_on channel=9 note=36 velocity=126 time=0
EXTRACT: note_on channel=9 note=42 velocity=124 time=0
EXTRACT: note_on channel=9 note=70 velocity=106 time=0
EXTRACT: note_on channel=3 note=77 velocity=116 time=0
EXTRACT: note_off channel=9 note=70 velocity=64 time=0.023
EXTRACT: note_off channel=9 note=42 velocity=65 time=0
EXTRACT: note_off channel=9 note=36 velocity=64 time=0
EXTRACT: note_off channel=5 note=41 velocity=64 time=0.08700000000000001
EXTRACT: note_off channel=2 note=41 velocity=65 time=0
EXTRACT: note_off channel=8 note=41 velocity=65 time=0.003
EXTRACT: note_on channel=2 note=41 velocity=75 time=0.006
EXTRACT: note_on channel=5 note=41 velocity=62 time=0
EXTRACT: note_off channel=1 note=29 velocity=65 time=0.099
EXTRACT: note_off channel=5 note=41 velocity=64 time=0.012
EXTRACT: note_off channel=2 note=41 velocity=64 time=0
EXTRACT: note_on channel=1 note=41 velocity=123 time=0.009000000000000001
EXTRACT: note_on channel=2 note=53 velocity=125 time=0
EXTRACT: note_on channel=5 note=41 velocity=113 time=0
EXTRACT: note_on channel=8 note=53 velocity=81 time=0
EXTRACT: note_on channel=9 note=46 velocity=110 time=0
EXTRACT: note_on channel=9 note=70 velocity=107 time=0
EXTRACT: note_off channel=9 note=70 velocity=64 time=0.024
EXTRACT: note_off channel=9 note=46 velocity=65 time=0
EXTRACT: note_off channel=3 note=77 velocity=64 time=0.002
EXTRACT: note_off channel=8 note=53 velocity=64 time=0.053
EXTRACT: note_off channel=5 note=41 velocity=65 time=0.032
EXTRACT: note_off channel=2 note=53 velocity=65 time=0
EXTRACT: note_on channel=2 note=53 velocity=124 time=0.009000000000000001
EXTRACT: note_on channel=5 note=41 velocity=112 time=0
EXTRACT: note_on channel=8 note=53 velocity=80 time=0
EXTRACT: note_on channel=9 note=70 velocity=107 time=0
EXTRACT: note_off channel=9 note=70 velocity=65 time=0.024
EXTRACT: note_off channel=1 note=41 velocity=65 time=0.06
EXTRACT: note_off channel=5 note=41 velocity=65 time=0.027
EXTRACT: note_off channel=2 note=53 velocity=65 time=0
EXTRACT: note_on channel=9 note=39 velocity=118 time=0.001
EXTRACT: note_off channel=8 note=53 velocity=65 time=0.004
EXTRACT: note_on channel=1 note=24 velocity=123 time=0.004
EXTRACT: note_on channel=2 note=36 velocity=124 time=0
EXTRACT: note_on channel=5 note=36 velocity=113 time=0
EXTRACT: note_on channel=8 note=36 velocity=80 time=0
EXTRACT: note_on channel=9 note=36 velocity=127 time=0
EXTRACT: note_on channel=9 note=38 velocity=116 time=0
EXTRACT: note_on channel=9 note=42 velocity=99 time=0
EXTRACT: note_on channel=9 note=70 velocity=106 time=0
EXTRACT: note_off channel=9 note=39 velocity=64 time=0.017
EXTRACT: note_on channel=3 note=76 velocity=117 time=0
EXTRACT: note_off channel=9 note=70 velocity=64 time=0.006
EXTRACT: note_off channel=9 note=42 velocity=65 time=0
EXTRACT: note_off channel=9 note=38 velocity=65 time=0
EXTRACT: note_off channel=9 note=36 velocity=64 time=0
EXTRACT: note_off channel=5 note=36 velocity=64 time=0.063
EXTRACT: note_off channel=2 note=36 velocity=64 time=0
EXTRACT: note_off channel=8 note=36 velocity=64 time=0.003
EXTRACT: note_on channel=2 note=36 velocity=75 time=0.006
EXTRACT: note_on channel=5 note=36 velocity=63 time=0
EXTRACT: note_off channel=3 note=76 velocity=65 time=0.02
EXTRACT: note_off channel=1 note=24 velocity=64 time=0.064
EXTRACT: note_on channel=3 note=74 velocity=116 time=0
EXTRACT: note_off channel=5 note=36 velocity=64 time=0.005
EXTRACT: note_off channel=2 note=36 velocity=65 time=0
EXTRACT: note_on channel=1 note=36 velocity=122 time=0.009000000000000001
EXTRACT: note_on channel=2 note=48 velocity=125 time=0
EXTRACT: note_on channel=5 note=36 velocity=112 time=0
EXTRACT: note_on channel=8 note=48 velocity=83 time=0
EXTRACT: note_on channel=9 note=42 velocity=114 time=0
EXTRACT: note_on channel=9 note=70 velocity=107 time=0
EXTRACT: note_off channel=9 note=70 velocity=64 time=0.024
EXTRACT: note_off channel=9 note=42 velocity=65 time=0
EXTRACT: note_off channel=8 note=48 velocity=64 time=0.065
EXTRACT: note_off channel=5 note=36 velocity=65 time=0.022
EXTRACT: note_off channel=2 note=48 velocity=64 time=0
EXTRACT: note_on channel=2 note=48 velocity=124 time=0.009000000000000001
EXTRACT: note_on channel=5 note=36 velocity=113 time=0
EXTRACT: note_on channel=8 note=48 velocity=73 time=0
EXTRACT: note_on channel=9 note=44 velocity=99 time=0
EXTRACT: note_on channel=9 note=70 velocity=106 time=0
EXTRACT: note_off channel=9 note=70 velocity=64 time=0.024
EXTRACT: note_off channel=9 note=44 velocity=65 time=0
EXTRACT: note_off channel=3 note=74 velocity=64 time=0.022
EXTRACT: note_off channel=1 note=36 velocity=64 time=0.038
EXTRACT: note_off channel=5 note=36 velocity=65 time=0.027
EXTRACT: note_off channel=2 note=48 velocity=64 time=0
EXTRACT: note_on channel=3 note=74 velocity=117 time=0
EXTRACT: note_on channel=1 note=26 velocity=122 time=0.001
EXTRACT: note_on channel=2 note=38 velocity=124 time=0
EXTRACT: note_on channel=5 note=38 velocity=112 time=0
EXTRACT: note_on channel=8 note=38 velocity=80 time=0
EXTRACT: note_on channel=9 note=36 velocity=127 time=0
EXTRACT: note_on channel=9 note=42 velocity=122 time=0
EXTRACT: note_on channel=9 note=70 velocity=106 time=0
EXTRACT: note_off channel=8 note=48 velocity=65 time=0
EXTRACT: note_off channel=9 note=70 velocity=65 time=0.024
EXTRACT: note_off channel=9 note=42 velocity=64 time=0
EXTRACT: note_off channel=9 note=36 velocity=65 time=0
EXTRACT: note_off channel=5 note=38 velocity=64 time=0.08700000000000001
EXTRACT: note_off channel=2 note=38 velocity=65 time=0
EXTRACT: note_off channel=8 note=38 velocity=65 time=0.003
EXTRACT: note_on channel=2 note=38 velocity=75 time=0.006
EXTRACT: note_on channel=5 note=38 velocity=62 time=0
EXTRACT: note_off channel=3 note=74 velocity=65 time=0.049
EXTRACT: note_off channel=1 note=26 velocity=65 time=0.035
EXTRACT: note_off channel=5 note=38 velocity=64 time=0.027
EXTRACT: note_off channel=2 note=38 velocity=65 time=0
EXTRACT: note_on channel=1 note=38 velocity=123 time=0.009000000000000001
EXTRACT: note_on channel=2 note=50 velocity=124 time=0
EXTRACT: note_on channel=5 note=38 velocity=113 time=0
EXTRACT: note_on channel=8 note=50 velocity=80 time=0
EXTRACT: note_on channel=9 note=46 velocity=104 time=0
EXTRACT: note_on channel=9 note=70 velocity=107 time=0
EXTRACT: note_on channel=3 note=74 velocity=117 time=0
EXTRACT: note_off channel=9 note=70 velocity=64 time=0.009000000000000001
EXTRACT: note_off channel=9 note=46 velocity=64 time=0
EXTRACT: note_off channel=8 note=50 velocity=64 time=0.051000000000000004
EXTRACT: note_off channel=5 note=38 velocity=65 time=0.036000000000000004
EXTRACT: note_off channel=2 note=50 velocity=64 time=0
EXTRACT: note_on channel=2 note=50 velocity=125 time=0.009000000000000001
EXTRACT: note_on channel=5 note=38 velocity=113 time=0
EXTRACT: note_on channel=8 note=50 velocity=81 time=0
EXTRACT: note_on channel=9 note=70 velocity=107 time=0
EXTRACT: note_off channel=9 note=70 velocity=65 time=0.024
EXTRACT: note_off channel=3 note=74 velocity=65 time=0.038
EXTRACT: note_off channel=1 note=38 velocity=65 time=0.037
EXTRACT: note_off channel=5 note=38 velocity=64 time=0.012
EXTRACT: note_off channel=2 note=50 velocity=64 time=0
EXTRACT: note_on channel=9 note=39 velocity=119 time=0.001
EXTRACT: note_on channel=3 note=76 velocity=116 time=0
EXTRACT: note_off channel=8 note=50 velocity=64 time=0.001
EXTRACT: note_on channel=1 note=26 velocity=123 time=0.003
EXTRACT: note_on channel=2 note=38 velocity=125 time=0
EXTRACT: note_on channel=5 note=38 velocity=112 time=0
EXTRACT: note_on channel=8 note=38 velocity=81 time=0
EXTRACT: note_on channel=9 note=36 velocity=126 time=0
EXTRACT: note_on channel=9 note=38 velocity=117 time=0
EXTRACT: note_on channel=9 note=42 velocity=111 time=0
EXTRACT: note_on channel=9 note=70 velocity=106 time=0
EXTRACT: note_off channel=9 note=39 velocity=65 time=0.017
EXTRACT: note_off channel=9 note=70 velocity=64 time=0.007
EXTRACT: note_off channel=9 note=42 velocity=64 time=0
EXTRACT: note_off channel=9 note=38 velocity=65 time=0
EXTRACT: note_off channel=9 note=36 velocity=65 time=0
EXTRACT: note_off channel=5 note=38 velocity=65 time=0.08700000000000001
EXTRACT: note_off channel=2 note=38 velocity=65 time=0
EXTRACT: note_off channel=8 note=38 velocity=65 time=0.003
EXTRACT: note_on channel=2 note=38 velocity=74 time=0.006
EXTRACT: note_on channel=5 note=38 velocity=62 time=0
EXTRACT: note_off channel=3 note=76 velocity=64 time=0.062
EXTRACT: note_off channel=1 note=26 velocity=64 time=0.007
EXTRACT: note_off channel=5 note=38 velocity=65 time=0.042
EXTRACT: note_off channel=2 note=38 velocity=65 time=0
EXTRACT: note_on channel=1 note=38 velocity=122 time=0.009000000000000001
EXTRACT: note_on channel=2 note=50 velocity=125 time=0
EXTRACT: note_on channel=5 note=38 velocity=113 time=0
EXTRACT: note_on channel=8 note=50 velocity=74 time=0
EXTRACT: note_on channel=9 note=42 velocity=125 time=0
EXTRACT: note_on channel=9 note=70 velocity=106 time=0
EXTRACT: note_on channel=3 note=77 velocity=117 time=0
EXTRACT: note_off channel=9 note=70 velocity=64 time=0.016
EXTRACT: note_off channel=9 note=42 velocity=64 time=0
EXTRACT: note_off channel=8 note=50 velocity=65 time=0.021
EXTRACT: note_off channel=5 note=38 velocity=64 time=0.052000000000000005
EXTRACT: note_off channel=2 note=50 velocity=64 time=0
EXTRACT: note_on channel=2 note=50 velocity=124 time=0.009000000000000001
EXTRACT: note_on channel=5 note=38 velocity=113 time=0
EXTRACT: note_on channel=8 note=50 velocity=70 time=0
EXTRACT: note_on channel=9 note=44 velocity=99 time=0
EXTRACT: note_on channel=9 note=70 velocity=107 time=0
EXTRACT: note_off channel=9 note=70 velocity=65 time=0.024
EXTRACT: note_off channel=9 note=44 velocity=64 time=0
EXTRACT: note_off channel=1 note=38 velocity=64 time=0.075
EXTRACT: note_off channel=8 note=50 velocity=64 time=0.011
EXTRACT: note_off channel=5 note=38 velocity=65 time=0.001
EXTRACT: note_off channel=2 note=50 velocity=64 time=0
EXTRACT: note_on channel=1 note=29 velocity=122 time=0.009000000000000001
EXTRACT: note_on channel=2 note=41 velocity=124 time=0
EXTRACT: note_on channel=5 note=41 velocity=112 time=0
EXTRACT: note_on channel=8 note=41 velocity=81 time=0
EXTRACT: note_on channel=9 note=36 velocity=127 time=0
EXTRACT: note_on channel=9 note=42 velocity=124 time=0
EXTRACT: note_on channel=9 note=70 velocity=107 time=0
EXTRACT: note_off channel=9 note=70 velocity=65 time=0.024
EXTRACT: note_off channel=9 note=42 velocity=65 time=0
EXTRACT: note_off channel=9 note=36 velocity=64 time=0
EXTRACT: note_off channel=3 note=77 velocity=65 time=0.042
EXTRACT: note_off channel=5 note=41 velocity=64 time=0.045
EXTRACT: note_off channel=2 note=41 velocity=65 time=0
EXTRACT: note_off channel=8 note=41 velocity=64 time=0.003
EXTRACT: note_on channel=2 note=41 velocity=75 time=0.006
EXTRACT: note_on channel=5 note=41 velocity=62 time=0
EXTRACT: note_off channel=1 note=29 velocity=65 time=0.099
EXTRACT: note_on channel=3 note=74 velocity=116 time=0
EXTRACT: note_off channel=5 note=41 velocity=64 time=0.009000000000000001
EXTRACT: note_off channel=2 note=41 velocity=64 time=0
EXTRACT: note_on channel=1 note=41 velocity=123 time=0.009000000000000001
EXTRACT: note_on channel=2 note=53 velocity=125 time=0
EXTRACT: note_on channel=5 note=41 velocity=113 time=0
EXTRACT: note_on channel=8 note=53 velocity=80 time=0
EXTRACT: note_on channel=9 note=46 velocity=111 time=0
EXTRACT: note_on channel=9 note=70 velocity=106 time=0
EXTRACT: note_off channel=9 note=70 velocity=65 time=0.024
EXTRACT: note_off channel=9 note=46 velocity=64 time=0
EXTRACT: note_off channel=8 note=53 velocity=65 time=0.055
EXTRACT: note_off channel=5 note=41 velocity=65 time=0.032
EXTRACT: note_off channel=2 note=53 velocity=65 time=0
EXTRACT: note_on channel=2 note=53 velocity=124 time=0.009000000000000001
EXTRACT: note_on channel=5 note=41 velocity=112 time=0
EXTRACT: note_on channel=8 note=53 velocity=81 time=0
EXTRACT: note_on channel=9 note=70 velocity=106 time=0
EXTRACT: note_off channel=9 note=70 velocity=64 time=0.024
EXTRACT: note_off channel=3 note=74 velocity=64 time=0.011
EXTRACT: note_off channel=1 note=41 velocity=64 time=0.049
EXTRACT: pitchwheel channel=3 pitch=-2958 time=0.01
EXTRACT: note_on channel=3 note=80 velocity=116 time=0
EXTRACT: note_off channel=5 note=41 velocity=65 time=0.002
EXTRACT: note_off channel=2 note=53 velocity=65 time=0
EXTRACT: note_on channel=9 note=39 velocity=119 time=0.001
EXTRACT: note_off channel=8 note=53 velocity=64 time=0.004
EXTRACT: note_on channel=1 note=24 velocity=122 time=0.004
EXTRACT: note_on channel=2 note=36 velocity=124 time=0
EXTRACT: note_on channel=5 note=36 velocity=113 time=0
EXTRACT: note_on channel=8 note=36 velocity=81 time=0
EXTRACT: note_on channel=9 note=36 velocity=126 time=0
EXTRACT: note_on channel=9 note=38 velocity=116 time=0
EXTRACT: note_on channel=9 note=42 velocity=112 time=0
EXTRACT: note_on channel=9 note=70 velocity=107 time=0
EXTRACT: note_off channel=9 note=39 velocity=65 time=0.017
EXTRACT: note_off channel=9 note=70 velocity=65 time=0.005
EXTRACT: note_off channel=9 note=42 velocity=64 time=0
EXTRACT: note_off channel=9 note=38 velocity=64 time=0
EXTRACT: note_off channel=9 note=36 velocity=65 time=0
EXTRACT: pitchwheel channel=3 pitch=-1556 time=0.019
EXTRACT: pitchwheel channel=3 pitch=0 time=0.015
EXTRACT: note_off channel=5 note=36 velocity=64 time=0.053
EXTRACT: note_off channel=2 note=36 velocity=64 time=0
EXTRACT: note_off channel=8 note=36 velocity=65 time=0.003
EXTRACT: note_on channel=2 note=36 velocity=75 time=0.006
EXTRACT: note_on channel=5 note=36 velocity=63 time=0
EXTRACT: note_off channel=3 note=80 velocity=64 time=0.074
EXTRACT: note_on channel=12 note=76 velocity=126 time=0.006
EXTRACT: note_off channel=1 note=24 velocity=65 time=0.004
EXTRACT: note_on channel=12 note=84 velocity=126 time=0.006
EXTRACT: note_off channel=5 note=36 velocity=64 time=0.021
EXTRACT: note_off channel=2 note=36 velocity=65 time=0
EXTRACT: note_on channel=1 note=36 velocity=123 time=0.009000000000000001
EXTRACT: note_on channel=2 note=48 velocity=125 time=0
EXTRACT: note_on channel=5 note=36 velocity=112 time=0
EXTRACT: note_on channel=8 note=48 velocity=82 time=0
EXTRACT: note_on channel=9 note=42 velocity=109 time=0
EXTRACT: note_on channel=9 note=70 velocity=106 time=0
EXTRACT: note_on channel=3 note=79 velocity=117 time=0
EXTRACT: note_off channel=9 note=70 velocity=65 time=0.019
EXTRACT: note_off channel=9 note=42 velocity=64 time=0
EXTRACT: note_off channel=8 note=48 velocity=65 time=0.054
EXTRACT: note_off channel=5 note=36 velocity=65 time=0.022
EXTRACT: note_off channel=2 note=48 velocity=64 time=0
EXTRACT: note_on channel=2 note=48 velocity=124 time=0.009000000000000001
EXTRACT: note_on channel=5 note=36 velocity=113 time=0
EXTRACT: note_on channel=8 note=48 velocity=69 time=0
EXTRACT: note_on channel=9 note=44 velocity=98 time=0
EXTRACT: note_on channel=9 note=70 velocity=107 time=0
EXTRACT: note_off channel=9 note=70 velocity=64 time=0.024
EXTRACT: note_off channel=9 note=44 velocity=65 time=0
EXTRACT: note_off channel=1 note=36 velocity=65 time=0.06
EXTRACT: control_change channel=9 control=91 value=20 time=0.006
EXTRACT: note_off channel=12 note=76 velocity=64 time=0.018000000000000002
EXTRACT: note_off channel=5 note=36 velocity=65 time=0.006
EXTRACT: note_off channel=2 note=48 velocity=64 time=0
EXTRACT: note_off channel=12 note=84 velocity=64 time=0.004
EXTRACT: note_on channel=1 note=26 velocity=123 time=0.002
EXTRACT: note_on channel=2 note=38 velocity=124 time=0
EXTRACT: note_on channel=5 note=38 velocity=112 time=0
EXTRACT: note_on channel=8 note=38 velocity=80 time=0
EXTRACT: note_on channel=9 note=36 velocity=126 time=0
EXTRACT: note_on channel=9 note=42 velocity=125 time=0
EXTRACT: note_on channel=9 note=70 velocity=107 time=0
EXTRACT: note_off channel=8 note=48 velocity=64 time=0
EXTRACT: note_off channel=3 note=79 velocity=65 time=0.014
EXTRACT: note_off channel=9 note=70 velocity=64 time=0.01
EXTRACT: note_off channel=9 note=42 velocity=65 time=0
EXTRACT: note_off channel=9 note=36 velocity=65 time=0
EXTRACT: note_off channel=5 note=38 velocity=64 time=0.08700000000000001
EXTRACT: note_off channel=2 note=38 velocity=65 time=0
EXTRACT: note_off channel=8 note=38 velocity=65 time=0.003
EXTRACT: note_on channel=2 note=38 velocity=75 time=0.006
EXTRACT: note_on channel=5 note=38 velocity=62 time=0
EXTRACT: note_off channel=1 note=26 velocity=64 time=0.084
EXTRACT: note_off channel=5 note=38 velocity=64 time=0.027
EXTRACT: note_off channel=2 note=38 velocity=65 time=0
EXTRACT: note_on channel=1 note=38 velocity=122 time=0.009000000000000001
EXTRACT: note_on channel=2 note=50 velocity=124 time=0
EXTRACT: note_on channel=5 note=38 velocity=113 time=0
EXTRACT: note_on channel=8 note=50 velocity=80 time=0
EXTRACT: note_on channel=9 note=46 velocity=111 time=0
EXTRACT: note_on channel=9 note=70 velocity=106 time=0
EXTRACT: note_off channel=9 note=70 velocity=64 time=0.024
EXTRACT: note_off channel=9 note=46 velocity=65 time=0
EXTRACT: note_off channel=8 note=50 velocity=64 time=0.051000000000000004
EXTRACT: note_off channel=5 note=38 velocity=65 time=0.036000000000000004
EXTRACT: note_off channel=2 note=50 velocity=64 time=0
EXTRACT: note_on channel=2 note=50 velocity=125 time=0.009000000000000001
EXTRACT: note_on channel=5 note=38 velocity=113 time=0
EXTRACT: note_on channel=8 note=50 velocity=81 time=0
EXTRACT: note_on channel=9 note=70 velocity=107 time=0
EXTRACT: note_off channel=9 note=70 velocity=64 time=0.024
EXTRACT: note_off channel=1 note=38 velocity=65 time=0.075
EXTRACT: note_off channel=5 note=38 velocity=64 time=0.012
EXTRACT: note_off channel=2 note=50 velocity=64 time=0
EXTRACT: note_on channel=9 note=39 velocity=118 time=0.001
EXTRACT: note_off channel=8 note=50 velocity=64 time=0.005
EXTRACT: note_on channel=1 note=26 velocity=123 time=0.003
EXTRACT: note_on channel=2 note=38 velocity=125 time=0
EXTRACT: note_on channel=5 note=38 velocity=112 time=0
EXTRACT: note_on channel=8 note=38 velocity=81 time=0
EXTRACT: note_on channel=9 note=36 velocity=127 time=0
EXTRACT: note_on channel=9 note=38 velocity=117 time=0
EXTRACT: note_on channel=9 note=42 velocity=122 time=0
EXTRACT: note_on channel=9 note=70 velocity=106 time=0
EXTRACT: note_off channel=9 note=39 velocity=64 time=0.017
EXTRACT: note_off channel=9 note=70 velocity=65 time=0.007
EXTRACT: note_off channel=9 note=42 velocity=65 time=0
EXTRACT: note_off channel=9 note=38 velocity=64 time=0
EXTRACT: note_off channel=9 note=36 velocity=64 time=0
EXTRACT: note_off channel=5 note=38 velocity=65 time=0.08700000000000001
EXTRACT: note_off channel=2 note=38 velocity=65 time=0
EXTRACT: note_off channel=8 note=38 velocity=65 time=0.003
EXTRACT: note_on channel=2 note=38 velocity=74 time=0.006
EXTRACT: note_on channel=5 note=38 velocity=62 time=0
EXTRACT: note_off channel=1 note=26 velocity=64 time=0.069
EXTRACT: note_off channel=5 note=38 velocity=65 time=0.042
EXTRACT: note_off channel=2 note=38 velocity=65 time=0
EXTRACT: note_on channel=1 note=38 velocity=122 time=0.009000000000000001
EXTRACT: note_on channel=2 note=50 velocity=125 time=0
EXTRACT: note_on channel=5 note=38 velocity=113 time=0
EXTRACT: note_on channel=8 note=50 velocity=74 time=0
EXTRACT: note_on channel=9 note=42 velocity=116 time=0
EXTRACT: note_on channel=9 note=70 velocity=106 time=0
EXTRACT: note_off channel=9 note=70 velocity=65 time=0.024
EXTRACT: note_off channel=9 note=42 velocity=65 time=0
EXTRACT: note_off channel=8 note=50 velocity=65 time=0.035
EXTRACT: note_off channel=5 note=38 velocity=64 time=0.052000000000000005
EXTRACT: note_off channel=2 note=50 velocity=64 time=0
EXTRACT: note_on channel=2 note=50 velocity=124 time=0.009000000000000001
EXTRACT: note_on channel=5 note=38 velocity=113 time=0
EXTRACT: note_on channel=8 note=50 velocity=70 time=0
EXTRACT: note_on channel=9 note=44 velocity=99 time=0
EXTRACT: note_on channel=9 note=70 velocity=107 time=0
EXTRACT: note_off channel=9 note=70 velocity=64 time=0.024
EXTRACT: note_off channel=9 note=44 velocity=64 time=0
EXTRACT: note_off channel=1 note=38 velocity=64 time=0.075
EXTRACT: note_off channel=8 note=50 velocity=64 time=0.011
EXTRACT: note_off channel=5 note=38 velocity=65 time=0.001
EXTRACT: note_off channel=2 note=50 velocity=64 time=0
EXTRACT: note_on channel=1 note=29 velocity=122 time=0.009000000000000001
EXTRACT: note_on channel=2 note=41 velocity=124 time=0
EXTRACT: note_on channel=5 note=41 velocity=112 time=0
EXTRACT: note_on channel=8 note=41 velocity=81 time=0
EXTRACT: note_on channel=9 note=36 velocity=127 time=0
EXTRACT: note_on channel=9 note=42 velocity=125 time=0
EXTRACT: note_on channel=9 note=70 velocity=107 time=0
EXTRACT: note_off channel=9 note=70 velocity=65 time=0.024
EXTRACT: note_off channel=9 note=42 velocity=64 time=0
EXTRACT: note_off channel=9 note=36 velocity=65 time=0
EXTRACT: note_off channel=5 note=41 velocity=64 time=0.08700000000000001
EXTRACT: note_off channel=2 note=41 velocity=65 time=0
EXTRACT: note_off channel=8 note=41 velocity=64 time=0.003
EXTRACT: note_on channel=2 note=41 velocity=75 time=0.006
EXTRACT: note_on channel=5 note=41 velocity=62 time=0
EXTRACT: note_off channel=1 note=29 velocity=65 time=0.099
EXTRACT: note_off channel=5 note=41 velocity=64 time=0.012
EXTRACT: note_off channel=2 note=41 velocity=64 time=0
EXTRACT: note_on channel=1 note=41 velocity=123 time=0.009000000000000001
EXTRACT: note_on channel=2 note=53 velocity=125 time=0
EXTRACT: note_on channel=5 note=41 velocity=113 time=0
EXTRACT: note_on channel=8 note=53 velocity=81 time=0
EXTRACT: note_on channel=9 note=46 velocity=106 time=0
EXTRACT: note_on channel=9 note=70 velocity=106 time=0
EXTRACT: note_on channel=3 note=77 velocity=117 time=0
EXTRACT: note_off channel=9 note=70 velocity=65 time=0.018000000000000002
EXTRACT: note_off channel=9 note=46 velocity=64 time=0
EXTRACT: note_off channel=8 note=53 velocity=65 time=0.043000000000000003
EXTRACT: note_off channel=5 note=41 velocity=65 time=0.032
EXTRACT: note_off channel=2 note=53 velocity=65 time=0
EXTRACT: note_on channel=2 note=53 velocity=124 time=0.009000000000000001
EXTRACT: note_on channel=5 note=41 velocity=112 time=0
EXTRACT: note_on channel=8 note=53 velocity=80 time=0
EXTRACT: note_on channel=9 note=70 velocity=106 time=0
EXTRACT: note_off channel=9 note=70 velocity=65 time=0.024
EXTRACT: note_off channel=3 note=77 velocity=65 time=0.034
EXTRACT: note_off channel=1 note=41 velocity=65 time=0.026000000000000002
EXTRACT: note_off channel=5 note=41 velocity=65 time=0.027
EXTRACT: note_off channel=2 note=53 velocity=65 time=0
EXTRACT: note_on channel=9 note=39 velocity=118 time=0.001
EXTRACT: note_on channel=3 note=79 velocity=116 time=0
EXTRACT: note_off channel=8 note=53 velocity=65 time=0.001
EXTRACT: note_on channel=1 note=24 velocity=123 time=0.004
EXTRACT: note_on channel=2 note=36 velocity=124 time=0
EXTRACT: note_on channel=5 note=36 velocity=113 time=0
EXTRACT: note_on channel=8 note=36 velocity=80 time=0
EXTRACT: note_on channel=9 note=36 velocity=126 time=0
EXTRACT: note_on channel=9 note=38 velocity=117 time=0
EXTRACT: note_on channel=9 note=42 velocity=116 time=0
EXTRACT: note_on channel=9 note=70 velocity=107 time=0
EXTRACT: note_off channel=9 note=39 velocity=64 time=0.017
EXTRACT: note_off channel=9 note=70 velocity=64 time=0.007
EXTRACT: note_off channel=9 note=42 velocity=65 time=0
EXTRACT: note_off channel=9 note=38 velocity=65 time=0
EXTRACT: note_off channel=9 note=36 velocity=64 time=0
EXTRACT: note_off channel=5 note=36 velocity=64 time=0.08700000000000001
EXTRACT: note_off channel=2 note=36 velocity=64 time=0
EXTRACT: note_off channel=8 note=36 velocity=64 time=0.003
EXTRACT: note_on channel=2 note=36 velocity=75 time=0.006
EXTRACT: note_on channel=5 note=36 velocity=63 time=0
EXTRACT: note_off channel=1 note=24 velocity=64 time=0.084
EXTRACT: note_off channel=3 note=79 velocity=64 time=0.003
EXTRACT: note_off channel=5 note=36 velocity=64 time=0.024
EXTRACT: note_off channel=2 note=36 velocity=65 time=0
EXTRACT: note_on channel=3 note=77 velocity=116 time=0
EXTRACT: note_on channel=1 note=36 velocity=122 time=0.008
EXTRACT: note_on channel=2 note=48 velocity=125 time=0
EXTRACT: note_on channel=5 note=36 velocity=112 time=0
EXTRACT: note_on channel=8 note=48 velocity=83 time=0
EXTRACT: note_on channel=9 note=42 velocity=117 time=0
EXTRACT: note_on channel=9 note=70 velocity=107 time=0
EXTRACT: note_off channel=9 note=70 velocity=64 time=0.024
EXTRACT: note_off channel=9 note=42 velocity=65 time=0
EXTRACT: note_off channel=8 note=48 velocity=64 time=0.065
EXTRACT: note_off channel=5 note=36 velocity=65 time=0.022
EXTRACT: note_off channel=2 note=48 velocity=64 time=0
EXTRACT: note_on channel=2 note=48 velocity=124 time=0.009000000000000001
EXTRACT: note_on channel=5 note=36 velocity=113 time=0
EXTRACT: note_on channel=8 note=48 velocity=72 time=0
EXTRACT: note_on channel=9 note=70 velocity=106 time=0
EXTRACT: note_off channel=9 note=70 velocity=65 time=0.024
EXTRACT: note_off channel=3 note=77 velocity=64 time=0.007
EXTRACT: note_off channel=1 note=36 velocity=64 time=0.053
EXTRACT: note_on channel=3 note=79 velocity=117 time=0
EXTRACT: note_off channel=5 note=36 velocity=65 time=0
EXTRACT: note_off channel=2 note=48 velocity=64 time=0
EXTRACT: note_on channel=1 note=26 velocity=122 time=0.009000000000000001
EXTRACT: note_on channel=2 note=38 velocity=124 time=0
EXTRACT: note_on channel=5 note=38 velocity=112 time=0
EXTRACT: note_on channel=8 note=38 velocity=81 time=0
EXTRACT: note_on channel=9 note=36 velocity=126 time=0
EXTRACT: note_on channel=9 note=42 velocity=117 time=0
EXTRACT: note_on channel=9 note=70 velocity=106 time=0
EXTRACT: note_off channel=8 note=48 velocity=65 time=0
EXTRACT: note_off channel=9 note=70 velocity=64 time=0.024
EXTRACT: note_off channel=9 note=42 velocity=64 time=0
EXTRACT: note_off channel=9 note=36 velocity=65 time=0
EXTRACT: note_off channel=5 note=38 velocity=64 time=0.08700000000000001
EXTRACT: note_off channel=2 note=38 velocity=65 time=0
EXTRACT: note_off channel=8 note=38 velocity=64 time=0.003
EXTRACT: note_on channel=2 note=38 velocity=75 time=0.006
EXTRACT: note_on channel=5 note=38 velocity=62 time=0
EXTRACT: note_off channel=3 note=79 velocity=65 time=0.062
EXTRACT: note_off channel=1 note=26 velocity=65 time=0.022
EXTRACT: note_off channel=5 note=38 velocity=64 time=0.027
EXTRACT: note_off channel=2 note=38 velocity=65 time=0
EXTRACT: note_on channel=3 note=77 velocity=117 time=0
EXTRACT: note_on channel=1 note=38 velocity=123 time=0.007
EXTRACT: note_on channel=2 note=50 velocity=124 time=0
EXTRACT: note_on channel=5 note=38 velocity=113 time=0
EXTRACT: note_on channel=8 note=50 velocity=81 time=0
EXTRACT: note_on channel=9 note=46 velocity=104 time=0
EXTRACT: note_on channel=9 note=70 velocity=107 time=0
EXTRACT: note_off channel=9 note=70 velocity=64 time=0.024
EXTRACT: note_off channel=9 note=46 velocity=65 time=0
EXTRACT: note_off channel=8 note=50 velocity=65 time=0.051000000000000004
EXTRACT: note_off channel=5 note=38 velocity=65 time=0.036000000000000004
EXTRACT: note_off channel=2 note=50 velocity=64 time=0
EXTRACT: note_on channel=2 note=50 velocity=125 time=0.009000000000000001
EXTRACT: note_on channel=5 note=38 velocity=113 time=0
EXTRACT: note_on channel=8 note=50 velocity=80 time=0
EXTRACT: note_on channel=9 note=70 velocity=106 time=0
EXTRACT: note_off channel=9 note=70 velocity=65 time=0.024
EXTRACT: note_off channel=1 note=38 velocity=65 time=0.075
EXTRACT: note_off channel=5 note=38 velocity=64 time=0.012
EXTRACT: note_off channel=2 note=50 velocity=64 time=0
EXTRACT: note_on channel=9 note=39 velocity=119 time=0.001
EXTRACT: note_off channel=8 note=50 velocity=65 time=0.005
EXTRACT: note_on channel=1 note=26 velocity=123 time=0.003
EXTRACT: note_on channel=2 note=38 velocity=125 time=0
EXTRACT: note_on channel=5 note=38 velocity=112 time=0
EXTRACT: note_on channel=9 note=36 velocity=127 time=0
EXTRACT: note_on channel=9 note=38 velocity=116 time=0
EXTRACT: note_on channel=9 note=42 velocity=116 time=0
EXTRACT: note_on channel=9 note=70 velocity=107 time=0
EXTRACT: note_off channel=9 note=39 velocity=64 time=0.017
EXTRACT: note_off channel=9 note=70 velocity=65 time=0.007
EXTRACT: note_off channel=9 note=42 velocity=64 time=0
EXTRACT: note_off channel=9 note=38 velocity=64 time=0
EXTRACT: note_off channel=9 note=36 velocity=65 time=0
EXTRACT: note_off channel=3 note=77 velocity=65 time=0.077
EXTRACT: note_off channel=5 note=38 velocity=65 time=0.01
EXTRACT: note_off channel=2 note=38 velocity=65 time=0
EXTRACT: note_on channel=2 note=38 velocity=74 time=0.009000000000000001
EXTRACT: note_on channel=5 note=38 velocity=62 time=0
EXTRACT: note_off channel=1 note=26 velocity=64 time=0.069
EXTRACT: note_on channel=3 note=77 velocity=116 time=0
EXTRACT: note_off channel=5 note=38 velocity=65 time=0.012
EXTRACT: note_off channel=2 note=38 velocity=65 time=0
EXTRACT: note_on channel=1 note=38 velocity=122 time=0.009000000000000001
EXTRACT: note_on channel=2 note=50 velocity=125 time=0
EXTRACT: note_on channel=5 note=38 velocity=113 time=0
EXTRACT: note_on channel=8 note=50 velocity=75 time=0
EXTRACT: note_on channel=9 note=42 velocity=115 time=0
EXTRACT: note_on channel=9 note=70 velocity=107 time=0
EXTRACT: note_off channel=9 note=70 velocity=65 time=0.024
EXTRACT: note_off channel=9 note=42 velocity=64 time=0
EXTRACT: note_on channel=12 note=77 velocity=101 time=0.016
EXTRACT: note_on channel=12 note=76 velocity=70 time=0.001
EXTRACT: note_off channel=8 note=50 velocity=64 time=0.018000000000000002
EXTRACT: note_off channel=5 note=38 velocity=64 time=0.052000000000000005
EXTRACT: note_off channel=2 note=50 velocity=64 time=0
EXTRACT: note_on channel=2 note=50 velocity=124 time=0.009000000000000001
EXTRACT: note_on channel=5 note=38 velocity=113 time=0
EXTRACT: note_on channel=8 note=50 velocity=70 time=0
EXTRACT: note_on channel=9 note=44 velocity=98 time=0
EXTRACT: note_on channel=9 note=70 velocity=106 time=0
EXTRACT: note_off channel=9 note=70 velocity=64 time=0.024
EXTRACT: note_off channel=9 note=44 velocity=65 time=0
EXTRACT: note_off channel=1 note=38 velocity=64 time=0.075
EXTRACT: note_off channel=8 note=50 velocity=65 time=0.011
EXTRACT: note_off channel=5 note=38 velocity=65 time=0.001
EXTRACT: note_off channel=2 note=50 velocity=64 time=0
EXTRACT: note_off channel=3 note=77 velocity=64 time=0.003
EXTRACT: note_on channel=1 note=29 velocity=122 time=0.006
EXTRACT: note_on channel=2 note=41 velocity=124 time=0
EXTRACT: note_on channel=5 note=41 velocity=112 time=0
EXTRACT: note_on channel=9 note=36 velocity=127 time=0
EXTRACT: note_on channel=9 note=42 velocity=118 time=0
EXTRACT: note_on channel=9 note=70 velocity=107 time=0
EXTRACT: note_on channel=3 note=72 velocity=116 time=0
EXTRACT: note_off channel=9 note=70 velocity=65 time=0.016
EXTRACT: note_off channel=9 note=42 velocity=64 time=0
EXTRACT: note_off channel=9 note=36 velocity=64 time=0
EXTRACT: note_off channel=5 note=41 velocity=64 time=0.043000000000000003
EXTRACT: note_off channel=2 note=41 velocity=65 time=0
EXTRACT: note_on channel=2 note=41 velocity=75 time=0.009000000000000001
EXTRACT: note_on channel=5 note=41 velocity=62 time=0
EXTRACT: note_off channel=1 note=29 velocity=65 time=0.099
EXTRACT: note_off channel=5 note=41 velocity=64 time=0.012
EXTRACT: note_off channel=2 note=41 velocity=64 time=0
EXTRACT: pitchwheel channel=3 pitch=1203 time=0.003
EXTRACT: note_on channel=1 note=41 velocity=123 time=0.006
EXTRACT: note_on channel=2 note=53 velocity=125 time=0
EXTRACT: note_on channel=5 note=41 velocity=113 time=0
EXTRACT: note_on channel=9 note=46 velocity=107 time=0
EXTRACT: note_on channel=9 note=70 velocity=106 time=0
EXTRACT: pitchwheel channel=3 pitch=4264 time=0.007
EXTRACT: pitchwheel channel=3 pitch=7280 time=0.015
EXTRACT: note_off channel=9 note=70 velocity=65 time=0.002
EXTRACT: note_off channel=9 note=46 velocity=64 time=0
EXTRACT: pitchwheel channel=3 pitch=8191 time=0.012
EXTRACT: note_off channel=5 note=41 velocity=65 time=0.075
EXTRACT: note_off channel=2 note=53 velocity=65 time=0
EXTRACT: note_on channel=2 note=53 velocity=124 time=0.009000000000000001
EXTRACT: note_on channel=5 note=41 velocity=112 time=0
EXTRACT: note_on channel=9 note=70 velocity=106 time=0
EXTRACT: note_off channel=9 note=70 velocity=65 time=0.024
EXTRACT: note_off channel=1 note=41 velocity=64 time=0.06
EXTRACT: control_change channel=9 control=91 value=30 time=0.006
EXTRACT: note_off channel=5 note=41 velocity=65 time=0.021
EXTRACT: note_off channel=2 note=53 velocity=65 time=0
EXTRACT: note_on channel=9 note=39 velocity=119 time=0.001
EXTRACT: note_on channel=1 note=24 velocity=122 time=0.008
EXTRACT: note_on channel=2 note=36 velocity=124 time=0
EXTRACT: note_on channel=5 note=36 velocity=113 time=0
EXTRACT: note_on channel=9 note=36 velocity=126 time=0
EXTRACT: note_on channel=9 note=38 velocity=117 time=0
EXTRACT: note_on channel=9 note=42 velocity=122 time=0
EXTRACT: note_on channel=9 note=70 velocity=107 time=0
EXTRACT: note_off channel=9 note=39 velocity=65 time=0.017
EXTRACT: note_off channel=9 note=70 velocity=64 time=0.007
EXTRACT: note_off channel=9 note=42 velocity=65 time=0
EXTRACT: note_off channel=9 note=38 velocity=64 time=0
EXTRACT: note_off channel=9 note=36 velocity=64 time=0
EXTRACT: note_off channel=3 note=72 velocity=64 time=0.041
EXTRACT: note_off channel=5 note=36 velocity=64 time=0.046
EXTRACT: note_off channel=2 note=36 velocity=64 time=0
EXTRACT: note_on channel=2 note=36 velocity=75 time=0.009000000000000001
EXTRACT: note_on channel=5 note=36 velocity=63 time=0
EXTRACT: note_off channel=1 note=24 velocity=65 time=0.084
EXTRACT: note_off channel=5 note=36 velocity=64 time=0.027
EXTRACT: note_off channel=2 note=36 velocity=65 time=0
EXTRACT: note_on channel=1 note=36 velocity=123 time=0.009000000000000001
EXTRACT: note_on channel=2 note=48 velocity=125 time=0
EXTRACT: note_on channel=5 note=36 velocity=112 time=0
EXTRACT: note_on channel=9 note=42 velocity=123 time=0
EXTRACT: note_on channel=9 note=70 velocity=107 time=0
EXTRACT: note_on channel=9 note=55 velocity=119 time=0.02
EXTRACT: note_off channel=9 note=70 velocity=65 time=0.004
EXTRACT: note_off channel=9 note=42 velocity=65 time=0
EXTRACT: control_change channel=6 control=11 value=100 time=0.016
EXTRACT: note_off channel=9 note=55 velocity=64 time=0.004
EXTRACT: pitchwheel channel=3 pitch=0 time=0.053
EXTRACT: note_off channel=5 note=36 velocity=65 time=0.014
EXTRACT: note_off channel=2 note=48 velocity=64 time=0
EXTRACT: note_on channel=2 note=48 velocity=124 time=0.009000000000000001
EXTRACT: note_on channel=5 note=36 velocity=113 time=0
EXTRACT: note_on channel=9 note=44 velocity=98 time=0
EXTRACT: note_on channel=9 note=70 velocity=106 time=0
EXTRACT: note_off channel=9 note=70 velocity=64 time=0.024
EXTRACT: note_off channel=9 note=44 velocity=65 time=0
EXTRACT: note_off channel=1 note=36 velocity=65 time=0.06
EXTRACT: note_off channel=5 note=36 velocity=65 time=0.03
EXTRACT: note_off channel=2 note=48 velocity=64 time=0
EXTRACT: note_on channel=1 note=34 velocity=123 time=0
EXTRACT: note_on channel=2 note=34 velocity=124 time=0
EXTRACT: note_on channel=5 note=46 velocity=112 time=0
EXTRACT: note_on channel=6 note=86 velocity=73 time=0
EXTRACT: note_on channel=7 note=65 velocity=67 time=0
EXTRACT: note_on channel=7 note=70 velocity=66 time=0
EXTRACT: note_on channel=9 note=49 velocity=91 time=0
EXTRACT: note_on channel=9 note=36 velocity=126 time=0
EXTRACT: note_on channel=9 note=70 velocity=106 time=0
EXTRACT: note_on channel=9 note=54 velocity=71 time=0
EXTRACT: note_on channel=13 note=62 velocity=38 time=0.005
EXTRACT: note_on channel=7 note=62 velocity=73 time=0.005
EXTRACT: note_on channel=13 note=65 velocity=43 time=0.002
EXTRACT: note_off channel=12 note=76 velocity=65 time=0.002
EXTRACT: note_off channel=12 note=77 velocity=64 time=0
EXTRACT: note_off channel=9 note=70 velocity=65 time=0.01
EXTRACT: note_off channel=9 note=36 velocity=64 time=0
EXTRACT: note_off channel=9 note=49 velocity=64 time=0
EXTRACT: note_off channel=9 note=54 velocity=65 time=0.001
EXTRACT: note_off channel=5 note=46 velocity=64 time=0.08600000000000001
EXTRACT: note_off channel=2 note=34 velocity=65 time=0
EXTRACT: note_on channel=2 note=34 velocity=75 time=0.009000000000000001
EXTRACT: note_on channel=5 note=46 velocity=62 time=0
EXTRACT: note_off channel=1 note=34 velocity=64 time=0.054
EXTRACT: control_change channel=3 control=1 value=15 time=0.026000000000000002
EXTRACT: note_off channel=5 note=46 velocity=64 time=0.031
EXTRACT: note_off channel=2 note=34 velocity=65 time=0
EXTRACT: note_on channel=1 note=46 velocity=122 time=0.009000000000000001
EXTRACT: note_on channel=2 note=46 velocity=124 time=0
EXTRACT: note_on channel=5 note=46 velocity=113 time=0
EXTRACT: note_on channel=8 note=58 velocity=100 time=0
EXTRACT: note_on channel=9 note=54 velocity=56 time=0
EXTRACT: note_on channel=9 note=46 velocity=113 time=0
EXTRACT: note_on channel=9 note=70 velocity=107 time=0
EXTRACT: note_off channel=9 note=70 velocity=64 time=0.024
EXTRACT: note_off channel=9 note=46 velocity=65 time=0
EXTRACT: note_off channel=9 note=54 velocity=65 time=0
EXTRACT: note_off channel=8 note=58 velocity=64 time=0.035
EXTRACT: note_off channel=5 note=46 velocity=65 time=0.052000000000000005
EXTRACT: note_off channel=2 note=46 velocity=64 time=0
EXTRACT: note_on channel=2 note=46 velocity=125 time=0.009000000000000001
EXTRACT: note_on channel=5 note=46 velocity=113 time=0
EXTRACT: note_on channel=8 note=58 velocity=79 time=0
EXTRACT: note_on channel=9 note=70 velocity=107 time=0
EXTRACT: note_off channel=9 note=70 velocity=64 time=0.024
EXTRACT: note_off channel=1 note=46 velocity=65 time=0
EXTRACT: note_off channel=8 note=58 velocity=64 time=0.042
EXTRACT: note_off channel=5 note=46 velocity=64 time=0.045
EXTRACT: note_off channel=2 note=46 velocity=64 time=0
EXTRACT: note_on channel=9 note=39 velocity=118 time=0.001
EXTRACT: note_on channel=1 note=34 velocity=123 time=0.008
EXTRACT: note_on channel=2 note=34 velocity=125 time=0
EXTRACT: note_on channel=4 note=62 velocity=1 time=0
EXTRACT: note_on channel=5 note=46 velocity=112 time=0
EXTRACT: note_on channel=9 note=36 velocity=127 time=0
EXTRACT: note_on channel=9 note=38 velocity=116 time=0
EXTRACT: note_on channel=9 note=42 velocity=119 time=0
EXTRACT: note_on channel=9 note=70 velocity=106 time=0
EXTRACT: note_on channel=9 note=54 velocity=62 time=0.003
EXTRACT: note_on channel=3 note=82 velocity=117 time=0
EXTRACT: note_off channel=9 note=39 velocity=65 time=0.001
EXTRACT: note_off channel=9 note=70 velocity=64 time=0.007
EXTRACT: note_off channel=9 note=42 velocity=64 time=0
EXTRACT: note_off channel=9 note=38 velocity=65 time=0
EXTRACT: note_off channel=9 note=36 velocity=65 time=0
EXTRACT: note_off channel=9 note=54 velocity=64 time=0.004
EXTRACT: note_off channel=5 note=46 velocity=65 time=0.083
EXTRACT: note_off channel=2 note=34 velocity=65 time=0
EXTRACT: note_on channel=2 note=34 velocity=74 time=0.009000000000000001
EXTRACT: note_on channel=5 note=46 velocity=62 time=0
EXTRACT: note_off channel=1 note=34 velocity=64 time=0.034
EXTRACT: note_off channel=5 note=46 velocity=65 time=0.077
EXTRACT: note_off channel=2 note=34 velocity=65 time=0
EXTRACT: note_on channel=1 note=46 velocity=122 time=0.009000000000000001
EXTRACT: note_on channel=2 note=46 velocity=125 time=0
EXTRACT: note_on channel=5 note=46 velocity=113 time=0
EXTRACT: note_on channel=8 note=58 velocity=103 time=0
EXTRACT: note_on channel=9 note=42 velocity=116 time=0
EXTRACT: note_on channel=9 note=70 velocity=106 time=0
EXTRACT: note_on channel=9 note=54 velocity=57 time=0.004
EXTRACT: note_off channel=9 note=70 velocity=64 time=0.02
EXTRACT: note_off channel=9 note=42 velocity=65 time=0
EXTRACT: note_off channel=9 note=54 velocity=65 time=0.005
EXTRACT: note_off channel=8 note=58 velocity=65 time=0.026000000000000002
EXTRACT: note_off channel=5 note=46 velocity=64 time=0.056
EXTRACT: note_off channel=2 note=46 velocity=64 time=0
EXTRACT: note_on channel=2 note=46 velocity=124 time=0.009000000000000001
EXTRACT: note_on channel=5 note=46 velocity=113 time=0
EXTRACT: note_on channel=8 note=58 velocity=92 time=0
EXTRACT: note_on channel=9 note=44 velocity=99 time=0
EXTRACT: note_on channel=9 note=70 velocity=107 time=0
EXTRACT: note_off channel=9 note=70 velocity=64 time=0.024
EXTRACT: note_off channel=9 note=44 velocity=64 time=0
EXTRACT: note_off channel=1 note=46 velocity=64 time=0.02
EXTRACT: note_off channel=8 note=58 velocity=65 time=0.014
EXTRACT: note_off channel=5 note=46 velocity=65 time=0.053
EXTRACT: note_off channel=2 note=46 velocity=64 time=0
EXTRACT: note_on channel=1 note=34 velocity=122 time=0.009000000000000001
EXTRACT: note_on channel=2 note=34 velocity=124 time=0
EXTRACT: note_on channel=5 note=46 velocity=112 time=0
EXTRACT: note_on channel=9 note=36 velocity=126 time=0
EXTRACT: note_on channel=9 note=42 velocity=124 time=0
EXTRACT: note_on channel=9 note=70 velocity=106 time=0
EXTRACT: note_on channel=9 note=54 velocity=59 time=0.005
EXTRACT: note_off channel=9 note=70 velocity=65 time=0.019
EXTRACT: note_off channel=9 note=42 velocity=64 time=0
EXTRACT: note_off channel=9 note=36 velocity=65 time=0
EXTRACT: note_off channel=9 note=54 velocity=65 time=0.006
EXTRACT: note_off channel=5 note=46 velocity=64 time=0.081
EXTRACT: note_off channel=2 note=34 velocity=65 time=0
EXTRACT: note_on channel=2 note=34 velocity=75 time=0.009000000000000001
EXTRACT: note_on channel=5 note=46 velocity=62 time=0
EXTRACT: note_off channel=1 note=34 velocity=65 time=0.054
EXTRACT: note_off channel=5 note=46 velocity=64 time=0.057
EXTRACT: note_off channel=2 note=34 velocity=64 time=0
EXTRACT: note_on channel=1 note=46 velocity=123 time=0.009000000000000001
EXTRACT: note_on channel=2 note=46 velocity=125 time=0
EXTRACT: note_on channel=5 note=46 velocity=113 time=0
EXTRACT: note_on channel=8 note=58 velocity=102 time=0
EXTRACT: note_on channel=9 note=46 velocity=110 time=0
EXTRACT: note_on channel=9 note=70 velocity=107 time=0
EXTRACT: note_on channel=9 note=54 velocity=56 time=0.003
EXTRACT: note_off channel=9 note=70 velocity=64 time=0.021
EXTRACT: note_off channel=9 note=46 velocity=65 time=0
EXTRACT: note_off channel=9 note=54 velocity=64 time=0.004
EXTRACT: note_off channel=8 note=58 velocity=64 time=0.03
EXTRACT: note_off channel=5 note=46 velocity=65 time=0.053
EXTRACT: note_off channel=2 note=46 velocity=65 time=0
EXTRACT: note_on channel=2 note=46 velocity=124 time=0.009000000000000001
EXTRACT: note_on channel=5 note=46 velocity=112 time=0
EXTRACT: note_on channel=8 note=58 velocity=101 time=0
EXTRACT: note_on channel=9 note=70 velocity=107 time=0
EXTRACT: note_off channel=9 note=70 velocity=64 time=0.024
EXTRACT: note_off channel=1 note=46 velocity=65 time=0
EXTRACT: note_off channel=8 note=58 velocity=64 time=0.031
EXTRACT: note_off channel=3 note=82 velocity=65 time=0.024
EXTRACT: note_off channel=5 note=46 velocity=65 time=0.032
EXTRACT: note_off channel=2 note=46 velocity=65 time=0
EXTRACT: note_off channel=4 note=62 velocity=65 time=0
EXTRACT: note_on channel=9 note=39 velocity=118 time=0.001
EXTRACT: note_on channel=1 note=34 velocity=123 time=0.008
EXTRACT: note_on channel=2 note=34 velocity=124 time=0
EXTRACT: note_on channel=4 note=62 velocity=1 time=0
EXTRACT: note_on channel=5 note=46 velocity=113 time=0
EXTRACT: note_on channel=9 note=36 velocity=127 time=0
EXTRACT: note_on channel=9 note=38 velocity=116 time=0
EXTRACT: note_on channel=9 note=42 velocity=99 time=0
EXTRACT: note_on channel=9 note=70 velocity=106 time=0
EXTRACT: note_on channel=9 note=54 velocity=56 time=0.005
EXTRACT: note_off channel=9 note=39 velocity=65 time=0.012
EXTRACT: note_off channel=9 note=70 velocity=65 time=0.007
EXTRACT: note_off channel=9 note=42 velocity=64 time=0
EXTRACT: note_off channel=9 note=38 velocity=64 time=0
EXTRACT: note_off channel=9 note=36 velocity=65 time=0
EXTRACT: note_off channel=9 note=54 velocity=65 time=0.006
EXTRACT: note_on channel=3 note=82 velocity=116 time=0
EXTRACT: note_off channel=5 note=46 velocity=64 time=0.039
EXTRACT: note_off channel=2 note=34 velocity=64 time=0
EXTRACT: note_on channel=2 note=34 velocity=75 time=0.009000000000000001
EXTRACT: note_on channel=5 note=46 velocity=63 time=0
EXTRACT: note_off channel=1 note=34 velocity=64 time=0.034
EXTRACT: note_off channel=5 note=46 velocity=64 time=0.077
EXTRACT: note_off channel=2 note=34 velocity=65 time=0
EXTRACT: note_on channel=1 note=46 velocity=122 time=0.009000000000000001
EXTRACT: note_on channel=2 note=46 velocity=125 time=0
EXTRACT: note_on channel=5 note=46 velocity=112 time=0
EXTRACT: note_on channel=8 note=58 velocity=105 time=0
EXTRACT: note_on channel=9 note=42 velocity=115 time=0
EXTRACT: note_on channel=9 note=70 velocity=107 time=0
EXTRACT: note_on channel=9 note=54 velocity=57 time=0.005
EXTRACT: note_off channel=9 note=70 velocity=64 time=0.019
EXTRACT: note_off channel=9 note=42 velocity=64 time=0
EXTRACT: note_off channel=9 note=54 velocity=65 time=0.006
EXTRACT: note_off channel=8 note=58 velocity=65 time=0.033
EXTRACT: note_off channel=5 note=46 velocity=65 time=0.048
EXTRACT: note_off channel=2 note=46 velocity=64 time=0
EXTRACT: note_on channel=2 note=46 velocity=124 time=0.009000000000000001
EXTRACT: note_on channel=5 note=46 velocity=113 time=0
EXTRACT: note_on channel=8 note=58 velocity=102 time=0
EXTRACT: note_on channel=9 note=44 velocity=99 time=0
EXTRACT: note_on channel=9 note=70 velocity=106 time=0
EXTRACT: control_change channel=6 control=11 value=105 time=0
EXTRACT: note_off channel=3 note=82 velocity=64 time=0.022
EXTRACT: note_off channel=9 note=70 velocity=64 time=0.002
EXTRACT: note_off channel=9 note=44 velocity=65 time=0
EXTRACT: note_off channel=6 note=86 velocity=64 time=0.01
EXTRACT: note_off channel=1 note=46 velocity=64 time=0.01
EXTRACT: note_off channel=8 note=58 velocity=65 time=0.024
EXTRACT: note_on channel=7 note=69 velocity=73 time=0.033
EXTRACT: note_off channel=13 note=62 velocity=64 time=0.003
EXTRACT: pitchwheel channel=3 pitch=-4147 time=0.002
EXTRACT: note_off channel=5 note=46 velocity=65 time=0.005
EXTRACT: note_off channel=2 note=46 velocity=64 time=0
EXTRACT: note_off channel=4 note=62 velocity=65 time=0
EXTRACT: note_off channel=7 note=70 velocity=65 time=0
EXTRACT: note_off channel=7 note=62 velocity=64 time=0.001
EXTRACT: note_on channel=7 note=60 velocity=70 time=0.002
EXTRACT: note_on channel=1 note=29 velocity=122 time=0.006
EXTRACT: note_on channel=2 note=29 velocity=124 time=0
EXTRACT: note_on channel=4 note=60 velocity=1 time=0
EXTRACT: note_on channel=5 note=41 velocity=112 time=0
EXTRACT: note_on channel=9 note=36 velocity=127 time=0
EXTRACT: note_on channel=9 note=42 velocity=122 time=0
EXTRACT: note_on channel=9 note=70 velocity=106 time=0
EXTRACT: note_on channel=6 note=84 velocity=63 time=0.001
EXTRACT: note_on channel=9 note=54 velocity=58 time=0.006
EXTRACT: note_on channel=13 note=60 velocity=44 time=0.003
EXTRACT: note_on channel=3 note=81 velocity=117 time=0
EXTRACT: note_off channel=9 note=70 velocity=65 time=0.01
EXTRACT: note_off channel=9 note=42 velocity=64 time=0
EXTRACT: note_off channel=9 note=36 velocity=65 time=0
EXTRACT: note_off channel=9 note=54 velocity=64 time=0.008
EXTRACT: pitchwheel channel=3 pitch=-2777 time=0.043000000000000003
EXTRACT: pitchwheel channel=3 pitch=-1114 time=0.014
EXTRACT: pitchwheel channel=3 pitch=128 time=0.014
EXTRACT: note_off channel=5 note=41 velocity=64 time=0.008
EXTRACT: note_off channel=2 note=29 velocity=65 time=0
EXTRACT: note_on channel=2 note=29 velocity=75 time=0.009000000000000001
EXTRACT: note_on channel=5 note=41 velocity=62 time=0
EXTRACT: note_off channel=1 note=29 velocity=65 time=0.054
EXTRACT: note_off channel=5 note=41 velocity=64 time=0.057
EXTRACT: note_off channel=2 note=29 velocity=65 time=0
EXTRACT: note_on channel=1 note=41 velocity=123 time=0.009000000000000001
EXTRACT: note_on channel=2 note=41 velocity=124 time=0
EXTRACT: note_on channel=5 note=41 velocity=113 time=0
EXTRACT: note_on channel=8 note=53 velocity=100 time=0
EXTRACT: note_on channel=9 note=46 velocity=104 time=0
EXTRACT: note_on channel=9 note=70 velocity=107 time=0
EXTRACT: note_on channel=9 note=54 velocity=55 time=0.004
EXTRACT: note_off channel=9 note=70 velocity=64 time=0.02
EXTRACT: note_off channel=9 note=46 velocity=65 time=0
EXTRACT: note_off channel=9 note=54 velocity=65 time=0.005
EXTRACT: control_change channel=6 control=11 value=111 time=0.011
EXTRACT: note_off channel=8 note=53 velocity=64 time=0.019
EXTRACT: note_off channel=5 note=41 velocity=65 time=0.052000000000000005
EXTRACT: note_off channel=2 note=41 velocity=64 time=0
EXTRACT: note_on channel=2 note=41 velocity=125 time=0.009000000000000001
EXTRACT: note_on channel=5 note=41 velocity=113 time=0
EXTRACT: note_on channel=8 note=53 velocity=79 time=0
EXTRACT: note_on channel=9 note=70 velocity=107 time=0
EXTRACT: note_off channel=9 note=70 velocity=64 time=0.024
EXTRACT: note_off channel=1 note=41 velocity=65 time=0
EXTRACT: note_off channel=8 note=53 velocity=64 time=0.042
EXTRACT: note_off channel=5 note=41 velocity=64 time=0.045
EXTRACT: note_off channel=2 note=41 velocity=64 time=0
EXTRACT: note_on channel=9 note=39 velocity=119 time=0.001
EXTRACT: note_on channel=1 note=29 velocity=123 time=0.008
EXTRACT: note_on channel=2 note=29 velocity=125 time=0
EXTRACT: note_on channel=5 note=41 velocity=112 time=0
EXTRACT: note_on channel=9 note=36 velocity=126 time=0
EXTRACT: note_on channel=9 note=38 velocity=117 time=0
EXTRACT: note_on channel=9 note=42 velocity=110 time=0
EXTRACT: note_on channel=9 note=70 velocity=106 time=0
EXTRACT: note_on channel=9 note=54 velocity=57 time=0.002
EXTRACT: note_off channel=9 note=39 velocity=64 time=0.015
EXTRACT: note_off channel=9 note=70 velocity=65 time=0.007
EXTRACT: note_off channel=9 note=42 velocity=65 time=0
EXTRACT: note_off channel=9 note=38 velocity=64 time=0
EXTRACT: note_off channel=9 note=36 velocity=64 time=0
EXTRACT: note_off channel=9 note=54 velocity=65 time=0.003
EXTRACT: note_off channel=5 note=41 velocity=65 time=0.084
EXTRACT: note_off channel=2 note=29 velocity=65 time=0
EXTRACT: note_on channel=2 note=29 velocity=74 time=0.009000000000000001
EXTRACT: note_on channel=5 note=41 velocity=62 time=0
EXTRACT: note_off channel=1 note=29 velocity=64 time=0.034
EXTRACT: note_off channel=5 note=41 velocity=65 time=0.077
EXTRACT: note_off channel=2 note=29 velocity=65 time=0
EXTRACT: note_on channel=1 note=41 velocity=122 time=0.009000000000000001
EXTRACT: note_on channel=2 note=41 velocity=125 time=0
EXTRACT: note_on channel=5 note=41 velocity=113 time=0
EXTRACT: note_on channel=8 note=53 velocity=102 time=0
EXTRACT: note_on channel=9 note=42 velocity=125 time=0
EXTRACT: note_on channel=9 note=70 velocity=106 time=0
EXTRACT: control_change channel=6 control=11 value=114 time=0
EXTRACT: note_on channel=9 note=54 velocity=52 time=0.002
EXTRACT: note_off channel=9 note=70 velocity=64 time=0.022
EXTRACT: note_off channel=9 note=42 velocity=65 time=0
EXTRACT: note_off channel=9 note=54 velocity=65 time=0.003
EXTRACT: note_off channel=8 note=53 velocity=65 time=0.028
EXTRACT: note_off channel=5 note=41 velocity=64 time=0.056
EXTRACT: note_off channel=2 note=41 velocity=64 time=0
EXTRACT: note_on channel=2 note=41 velocity=124 time=0.009000000000000001
EXTRACT: note_on channel=5 note=41 velocity=113 time=0
EXTRACT: note_on channel=8 note=53 velocity=93 time=0
EXTRACT: note_on channel=9 note=44 velocity=98 time=0
EXTRACT: note_on channel=9 note=70 velocity=107 time=0
EXTRACT: note_off channel=9 note=70 velocity=64 time=0.024
EXTRACT: note_off channel=9 note=44 velocity=65 time=0
EXTRACT: note_off channel=1 note=41 velocity=64 time=0.02
EXTRACT: note_off channel=8 note=53 velocity=64 time=0.014
EXTRACT: note_off channel=5 note=41 velocity=65 time=0.053
EXTRACT: note_off channel=2 note=41 velocity=64 time=0
EXTRACT: note_on channel=1 note=29 velocity=122 time=0.009000000000000001
EXTRACT: note_on channel=2 note=29 velocity=124 time=0
EXTRACT: note_on channel=5 note=41 velocity=112 time=0
EXTRACT: note_on channel=9 note=36 velocity=127 time=0
EXTRACT: note_on channel=9 note=42 velocity=124 time=0
EXTRACT: note_on channel=9 note=70 velocity=107 time=0
EXTRACT: note_on channel=9 note=54 velocity=55 time=0.004
EXTRACT: note_off channel=9 note=70 velocity=64 time=0.02
EXTRACT: note_off channel=9 note=42 velocity=64 time=0
EXTRACT: note_off channel=9 note=36 velocity=65 time=0
EXTRACT: note_off channel=9 note=54 velocity=65 time=0.005
EXTRACT: note_off channel=5 note=41 velocity=64 time=0.082
EXTRACT: note_off channel=2 note=29 velocity=65 time=0
EXTRACT: note_on channel=2 note=29 velocity=75 time=0.009000000000000001
EXTRACT: note_on channel=5 note=41 velocity=62 time=0
EXTRACT: note_off channel=3 note=81 velocity=65 time=0.014
EXTRACT: note_off channel=1 note=29 velocity=65 time=0.04
EXTRACT: note_off channel=5 note=41 velocity=64 time=0.057
EXTRACT: note_off channel=2 note=29 velocity=64 time=0
EXTRACT: note_off channel=4 note=60 velocity=64 time=0
EXTRACT: note_on channel=1 note=41 velocity=123 time=0.009000000000000001
EXTRACT: note_on channel=2 note=41 velocity=125 time=0
EXTRACT: note_on channel=4 note=57 velocity=1 time=0
EXTRACT: note_on channel=5 note=41 velocity=113 time=0
EXTRACT: note_on channel=8 note=53 velocity=103 time=0
EXTRACT: note_on channel=9 note=46 velocity=111 time=0
EXTRACT: note_on channel=9 note=70 velocity=106 time=0
EXTRACT: note_on channel=9 note=54 velocity=52 time=0.004
EXTRACT: note_on channel=3 note=77 velocity=117 time=0
EXTRACT: note_off channel=9 note=70 velocity=64 time=0.015
EXTRACT: note_off channel=9 note=46 velocity=64 time=0
EXTRACT: note_off channel=9 note=54 velocity=65 time=0.005
EXTRACT: note_off channel=8 note=53 velocity=65 time=0.029
EXTRACT: note_off channel=5 note=41 velocity=65 time=0.053
EXTRACT: note_off channel=2 note=41 velocity=65 time=0
EXTRACT: note_on channel=2 note=41 velocity=124 time=0.009000000000000001
EXTRACT: note_on channel=5 note=41 velocity=112 time=0
EXTRACT: note_on channel=8 note=53 velocity=100 time=0
EXTRACT: note_on channel=9 note=70 velocity=106 time=0
EXTRACT: note_off channel=9 note=70 velocity=65 time=0.024
EXTRACT: note_off channel=1 note=41 velocity=64 time=0
EXTRACT: note_off channel=8 note=53 velocity=65 time=0.031
EXTRACT: note_off channel=5 note=41 velocity=65 time=0.056
EXTRACT: note_off channel=2 note=41 velocity=65 time=0
EXTRACT: note_on channel=9 note=39 velocity=118 time=0.001
EXTRACT: note_on channel=1 note=29 velocity=122 time=0.008
EXTRACT: note_on channel=2 note=29 velocity=124 time=0
EXTRACT: note_on channel=5 note=41 velocity=113 time=0
EXTRACT: note_on channel=9 note=36 velocity=126 time=0
EXTRACT: note_on channel=9 note=38 velocity=117 time=0
EXTRACT: note_on channel=9 note=42 velocity=113 time=0
EXTRACT: note_on channel=9 note=70 velocity=107 time=0
EXTRACT: note_on channel=9 note=54 velocity=56 time=0.003
EXTRACT: note_off channel=9 note=39 velocity=64 time=0.014
EXTRACT: note_off channel=9 note=70 velocity=64 time=0.007
EXTRACT: note_off channel=9 note=42 velocity=65 time=0
EXTRACT: note_off channel=9 note=38 velocity=64 time=0
EXTRACT: note_off channel=9 note=36 velocity=65 time=0
EXTRACT: note_off channel=9 note=54 velocity=65 time=0.004
EXTRACT: control_change channel=6 control=11 value=121 time=0.052000000000000005
EXTRACT: note_off channel=5 note=41 velocity=64 time=0.031
EXTRACT: note_off channel=2 note=29 velocity=64 time=0
EXTRACT: note_on channel=2 note=29 velocity=75 time=0.009000000000000001
EXTRACT: note_on channel=5 note=41 velocity=63 time=0
EXTRACT: note_off channel=1 note=29 velocity=65 time=0.034
EXTRACT: note_on channel=12 note=70 velocity=107 time=0.046
EXTRACT: note_off channel=5 note=41 velocity=64 time=0.031
EXTRACT: note_off channel=2 note=29 velocity=65 time=0
EXTRACT: note_on channel=1 note=41 velocity=123 time=0.009000000000000001
EXTRACT: note_on channel=2 note=41 velocity=125 time=0
EXTRACT: note_on channel=5 note=41 velocity=112 time=0
EXTRACT: note_on channel=8 note=53 velocity=105 time=0
EXTRACT: note_on channel=9 note=42 velocity=109 time=0
EXTRACT: note_on channel=9 note=70 velocity=106 time=0
EXTRACT: note_on channel=9 note=54 velocity=55 time=0.006
EXTRACT: note_off channel=9 note=70 velocity=64 time=0.018000000000000002
EXTRACT: note_off channel=9 note=42 velocity=65 time=0
EXTRACT: note_off channel=9 note=54 velocity=64 time=0.006
EXTRACT: note_off channel=8 note=53 velocity=64 time=0.033
EXTRACT: note_off channel=5 note=41 velocity=65 time=0.048
EXTRACT: note_off channel=2 note=41 velocity=64 time=0
EXTRACT: note_on channel=2 note=41 velocity=124 time=0.009000000000000001
EXTRACT: note_on channel=5 note=41 velocity=113 time=0
EXTRACT: note_on channel=8 note=53 velocity=102 time=0
EXTRACT: note_on channel=9 note=44 velocity=98 time=0
EXTRACT: note_on channel=9 note=70 velocity=107 time=0
EXTRACT: note_off channel=9 note=70 velocity=64 time=0.024
EXTRACT: note_off channel=9 note=44 velocity=65 time=0
EXTRACT: note_off channel=3 note=77 velocity=65 time=0.01
EXTRACT: note_off channel=1 note=41 velocity=65 time=0.01
EXTRACT: note_off channel=7 note=65 velocity=65 time=0.019
EXTRACT: note_off channel=8 note=53 velocity=65 time=0.005
EXTRACT: control_change channel=9 control=91 value=20 time=0.022
EXTRACT: pitchwheel channel=3 pitch=-4128 time=0.01
EXTRACT: note_off channel=13 note=65 velocity=65 time=0.004
EXTRACT: note_on channel=6 note=88 velocity=50 time=0.002
EXTRACT: note_off channel=5 note=41 velocity=65 time=0.005
EXTRACT: note_off channel=2 note=41 velocity=64 time=0
EXTRACT: note_off channel=4 note=57 velocity=64 time=0
EXTRACT: note_off channel=13 note=60 velocity=64 time=0.003
EXTRACT: note_on channel=1 note=33 velocity=123 time=0.006
EXTRACT: note_on channel=2 note=33 velocity=124 time=0
EXTRACT: note_on channel=4 note=61 velocity=1 time=0
EXTRACT: note_on channel=5 note=45 velocity=112 time=0
EXTRACT: note_on channel=7 note=61 velocity=71 time=0
EXTRACT: note_on channel=7 note=64 velocity=70 time=0
EXTRACT: note_on channel=7 note=67 velocity=62 time=0
EXTRACT: note_on channel=9 note=36 velocity=126 time=0
EXTRACT: note_on channel=9 note=42 velocity=124 time=0
EXTRACT: note_on channel=9 note=70 velocity=107 time=0
EXTRACT: note_on channel=13 note=64 velocity=43 time=0
EXTRACT: note_on channel=9 note=54 velocity=59 time=0.004
EXTRACT: note_on channel=13 note=61 velocity=39 time=0.001
EXTRACT: note_on channel=3 note=81 velocity=116 time=0
EXTRACT: note_off channel=6 note=84 velocity=65 time=0.001
EXTRACT: note_off channel=12 note=70 velocity=65 time=0.004
EXTRACT: note_off channel=9 note=70 velocity=65 time=0.01
EXTRACT: note_off channel=9 note=42 velocity=64 time=0
EXTRACT: note_off channel=9 note=36 velocity=64 time=0
EXTRACT: note_off channel=9 note=54 velocity=65 time=0.005
EXTRACT: note_off channel=7 note=60 velocity=65 time=0.007
EXTRACT: note_off channel=7 note=69 velocity=64 time=0.005
EXTRACT: pitchwheel channel=3 pitch=-3008 time=0.044
EXTRACT: pitchwheel channel=3 pitch=-2197 time=0.015
EXTRACT: note_off channel=5 note=45 velocity=64 time=0.011
EXTRACT: note_off channel=2 note=33 velocity=65 time=0
EXTRACT: pitchwheel channel=3 pitch=128 time=0.002
EXTRACT: note_on channel=2 note=33 velocity=75 time=0.007
EXTRACT: note_on channel=5 note=45 velocity=62 time=0
EXTRACT: note_off channel=1 note=33 velocity=64 time=0.054
EXTRACT: note_off channel=5 note=45 velocity=64 time=0.057
EXTRACT: note_off channel=2 note=33 velocity=65 time=0
EXTRACT: note_on channel=1 note=45 velocity=122 time=0.009000000000000001
EXTRACT: note_on channel=2 note=45 velocity=124 time=0
EXTRACT: note_on channel=5 note=45 velocity=113 time=0
EXTRACT: note_on channel=8 note=57 velocity=92 time=0
EXTRACT: note_on channel=9 note=46 velocity=110 time=0
EXTRACT: note_on channel=9 note=70 velocity=106 time=0
EXTRACT: note_on channel=9 note=54 velocity=52 time=0.001
EXTRACT: note_off channel=9 note=70 velocity=65 time=0.023
EXTRACT: note_off channel=9 note=46 velocity=64 time=0
EXTRACT: note_off channel=9 note=54 velocity=64 time=0.002
EXTRACT: note_off channel=8 note=57 velocity=64 time=0.037
EXTRACT: note_off channel=5 note=45 velocity=65 time=0.048
EXTRACT: note_off channel=2 note=45 velocity=64 time=0
EXTRACT: note_on channel=2 note=45 velocity=125 time=0.009000000000000001
EXTRACT: note_on channel=5 note=45 velocity=113 time=0
EXTRACT: note_on channel=8 note=57 velocity=91 time=0
EXTRACT: note_on channel=9 note=70 velocity=107 time=0
EXTRACT: note_off channel=9 note=70 velocity=65 time=0.024
EXTRACT: note_off channel=1 note=45 velocity=65 time=0
EXTRACT: note_off channel=3 note=81 velocity=64 time=0.042
EXTRACT: note_off channel=8 note=57 velocity=64 time=0.002
EXTRACT: note_off channel=5 note=45 velocity=64 time=0.043000000000000003
EXTRACT: note_off channel=2 note=45 velocity=64 time=0
EXTRACT: note_off channel=4 note=61 velocity=65 time=0
EXTRACT: note_on channel=9 note=39 velocity=119 time=0.001
EXTRACT: note_on channel=1 note=33 velocity=123 time=0.008
EXTRACT: note_on channel=2 note=33 velocity=125 time=0
EXTRACT: note_on channel=4 note=61 velocity=1 time=0
EXTRACT: note_on channel=5 note=45 velocity=112 time=0
EXTRACT: note_on channel=9 note=36 velocity=127 time=0
EXTRACT: note_on channel=9 note=38 velocity=116 time=0
EXTRACT: note_on channel=9 note=42 velocity=123 time=0
EXTRACT: note_on channel=9 note=70 velocity=106 time=0
EXTRACT: note_on channel=9 note=54 velocity=52 time=0
EXTRACT: control_change channel=6 control=11 value=126 time=0
EXTRACT: note_on channel=3 note=79 velocity=117 time=0
EXTRACT: note_off channel=9 note=39 velocity=64 time=0.005
EXTRACT: note_off channel=9 note=70 velocity=65 time=0.007
EXTRACT: note_off channel=9 note=42 velocity=65 time=0
EXTRACT: note_off channel=9 note=38 velocity=64 time=0
EXTRACT: note_off channel=9 note=36 velocity=65 time=0
EXTRACT: note_off channel=9 note=54 velocity=64 time=0.001
EXTRACT: note_off channel=5 note=45 velocity=65 time=0.08600000000000001
EXTRACT: note_off channel=2 note=33 velocity=65 time=0
EXTRACT: note_on channel=2 note=33 velocity=74 time=0.009000000000000001
EXTRACT: note_on channel=5 note=45 velocity=62 time=0
EXTRACT: note_off channel=1 note=33 velocity=64 time=0.034
EXTRACT: note_off channel=5 note=45 velocity=65 time=0.077
EXTRACT: note_off channel=2 note=33 velocity=65 time=0
EXTRACT: note_on channel=1 note=45 velocity=122 time=0.009000000000000001
EXTRACT: note_on channel=2 note=45 velocity=125 time=0
EXTRACT: note_on channel=5 note=45 velocity=113 time=0
EXTRACT: note_on channel=8 note=57 velocity=89 time=0
EXTRACT: note_on channel=9 note=42 velocity=116 time=0
EXTRACT: note_on channel=9 note=54 velocity=59 time=0
EXTRACT: note_on channel=9 note=70 velocity=106 time=0
EXTRACT: note_off channel=9 note=70 velocity=64 time=0.024
EXTRACT: note_off channel=9 note=54 velocity=65 time=0
EXTRACT: note_off channel=9 note=42 velocity=65 time=0
EXTRACT: note_off channel=8 note=57 velocity=65 time=0.042
EXTRACT: note_off channel=5 note=45 velocity=64 time=0.045
EXTRACT: note_off channel=2 note=45 velocity=64 time=0
EXTRACT: note_on channel=2 note=45 velocity=124 time=0.009000000000000001
EXTRACT: note_on channel=5 note=45 velocity=113 time=0
EXTRACT: note_on channel=8 note=57 velocity=98 time=0
EXTRACT: note_on channel=9 note=44 velocity=99 time=0
EXTRACT: note_on channel=9 note=70 velocity=107 time=0
EXTRACT: note_off channel=9 note=70 velocity=64 time=0.024
EXTRACT: note_off channel=9 note=44 velocity=64 time=0
EXTRACT: note_off channel=1 note=45 velocity=64 time=0.02
EXTRACT: note_off channel=8 note=57 velocity=65 time=0.032
EXTRACT: note_off channel=5 note=45 velocity=65 time=0.035
EXTRACT: note_off channel=2 note=45 velocity=64 time=0
EXTRACT: note_on channel=1 note=33 velocity=122 time=0.009000000000000001
EXTRACT: note_on channel=2 note=33 velocity=124 time=0
EXTRACT: note_on channel=5 note=45 velocity=112 time=0
EXTRACT: note_on channel=9 note=36 velocity=127 time=0
EXTRACT: note_on channel=9 note=42 velocity=124 time=0
EXTRACT: note_on channel=9 note=70 velocity=107 time=0
EXTRACT: note_on channel=9 note=54 velocity=55 time=0
EXTRACT: note_off channel=9 note=70 velocity=65 time=0.024
EXTRACT: note_off channel=9 note=42 velocity=65 time=0
EXTRACT: note_off channel=9 note=36 velocity=64 time=0
EXTRACT: note_off channel=9 note=54 velocity=64 time=0.001
EXTRACT: note_off channel=5 note=45 velocity=64 time=0.08600000000000001
EXTRACT: note_off channel=2 note=33 velocity=65 time=0
EXTRACT: note_on channel=2 note=33 velocity=75 time=0.009000000000000001
EXTRACT: note_on channel=5 note=45 velocity=62 time=0
EXTRACT: note_off channel=1 note=33 velocity=65 time=0.054
EXTRACT: note_off channel=5 note=45 velocity=64 time=0.057
EXTRACT: note_off channel=2 note=33 velocity=64 time=0
EXTRACT: note_on channel=1 note=45 velocity=123 time=0.009000000000000001
EXTRACT: note_on channel=2 note=45 velocity=125 time=0
EXTRACT: note_on channel=5 note=45 velocity=113 time=0
EXTRACT: note_on channel=8 note=57 velocity=88 time=0
EXTRACT: note_on channel=9 note=46 velocity=107 time=0
EXTRACT: note_on channel=9 note=70 velocity=106 time=0
EXTRACT: note_on channel=9 note=54 velocity=52 time=0
EXTRACT: note_off channel=9 note=70 velocity=65 time=0.024
EXTRACT: note_off channel=9 note=46 velocity=64 time=0
EXTRACT: note_off channel=9 note=54 velocity=65 time=0.001
EXTRACT: note_off channel=8 note=57 velocity=64 time=0.038
EXTRACT: note_off channel=3 note=79 velocity=65 time=0.011
EXTRACT: note_off channel=5 note=45 velocity=65 time=0.037
EXTRACT: note_off channel=2 note=45 velocity=65 time=0
EXTRACT: note_on channel=2 note=45 velocity=124 time=0.009000000000000001
EXTRACT: note_on channel=5 note=45 velocity=112 time=0
EXTRACT: note_on channel=8 note=57 velocity=103 time=0
EXTRACT: note_on channel=9 note=70 velocity=106 time=0
EXTRACT: note_off channel=9 note=70 velocity=65 time=0.024
EXTRACT: note_off channel=1 note=45 velocity=65 time=0
EXTRACT: note_off channel=8 note=57 velocity=64 time=0.05
EXTRACT: note_on channel=3 note=77 velocity=116 time=0
EXTRACT: note_off channel=5 note=45 velocity=65 time=0.001
EXTRACT: note_off channel=2 note=45 velocity=65 time=0
EXTRACT: note_off channel=4 note=61 velocity=64 time=0
EXTRACT: note_on channel=9 note=39 velocity=119 time=0.001
EXTRACT: note_on channel=1 note=33 velocity=123 time=0.008
EXTRACT: note_on channel=2 note=33 velocity=124 time=0
EXTRACT: note_on channel=4 note=57 velocity=1 time=0
EXTRACT: note_on channel=5 note=45 velocity=113 time=0
EXTRACT: note_on channel=9 note=36 velocity=126 time=0
EXTRACT: note_on channel=9 note=38 velocity=116 time=0
EXTRACT: note_on channel=9 note=42 velocity=117 time=0
EXTRACT: note_on channel=9 note=70 velocity=107 time=0
EXTRACT: note_on channel=9 note=54 velocity=54 time=0.002
EXTRACT: note_off channel=9 note=39 velocity=64 time=0.015
EXTRACT: note_off channel=9 note=70 velocity=65 time=0.007
EXTRACT: note_off channel=9 note=42 velocity=64 time=0
EXTRACT: note_off channel=9 note=38 velocity=64 time=0
EXTRACT: note_off channel=9 note=36 velocity=65 time=0
EXTRACT: note_off channel=9 note=54 velocity=65 time=0.002
EXTRACT: note_off channel=5 note=45 velocity=64 time=0.085
EXTRACT: note_off channel=2 note=33 velocity=64 time=0
EXTRACT: note_on channel=2 note=33 velocity=75 time=0.009000000000000001
EXTRACT: note_on channel=5 note=45 velocity=63 time=0
EXTRACT: note_off channel=1 note=33 velocity=64 time=0.034
EXTRACT: note_off channel=3 note=77 velocity=64 time=0.015
EXTRACT: note_on channel=3 note=77 velocity=116 time=0
EXTRACT: note_off channel=5 note=45 velocity=64 time=0.002
EXTRACT: note_off channel=2 note=33 velocity=65 time=0
EXTRACT: note_off channel=4 note=57 velocity=65 time=0
EXTRACT: note_on channel=1 note=45 velocity=122 time=0.009000000000000001
EXTRACT: note_on channel=2 note=45 velocity=125 time=0
EXTRACT: note_on channel=4 note=57 velocity=1 time=0
EXTRACT: note_on channel=5 note=45 velocity=112 time=0
EXTRACT: note_on channel=8 note=57 velocity=91 time=0
EXTRACT: note_on channel=9 note=42 velocity=117 time=0
EXTRACT: note_on channel=9 note=70 velocity=107 time=0
EXTRACT: note_on channel=9 note=54 velocity=53 time=0.002
EXTRACT: note_off channel=9 note=70 velocity=64 time=0.022
EXTRACT: note_off channel=9 note=42 velocity=64 time=0
EXTRACT: note_off channel=9 note=54 velocity=65 time=0.003
EXTRACT: note_off channel=8 note=57 velocity=65 time=0.044
EXTRACT: note_off channel=5 note=45 velocity=65 time=0.04
EXTRACT: note_off channel=2 note=45 velocity=64 time=0
EXTRACT: note_on channel=2 note=45 velocity=124 time=0.009000000000000001
EXTRACT: note_on channel=5 note=45 velocity=113 time=0
EXTRACT: note_on channel=8 note=57 velocity=94 time=0
EXTRACT: note_on channel=9 note=44 velocity=99 time=0
EXTRACT: note_on channel=9 note=70 velocity=106 time=0
EXTRACT: note_off channel=9 note=70 velocity=65 time=0.024
EXTRACT: note_off channel=9 note=44 velocity=64 time=0
EXTRACT: note_off channel=1 note=45 velocity=64 time=0.02
EXTRACT: note_off channel=7 note=64 velocity=65 time=0.016
EXTRACT: note_off channel=7 note=61 velocity=64 time=0
EXTRACT: note_off channel=7 note=67 velocity=64 time=0.008
EXTRACT: note_off channel=8 note=57 velocity=65 time=0.002
EXTRACT: note_off channel=3 note=77 velocity=64 time=0.014
EXTRACT: note_off channel=13 note=61 velocity=65 time=0
EXTRACT: note_off channel=13 note=64 velocity=65 time=0
EXTRACT: note_off channel=5 note=45 velocity=65 time=0.027
EXTRACT: note_off channel=2 note=45 velocity=64 time=0
EXTRACT: note_off channel=4 note=57 velocity=65 time=0
EXTRACT: note_on channel=1 note=26 velocity=122 time=0
EXTRACT: note_on channel=2 note=26 velocity=124 time=0
EXTRACT: note_on channel=3 note=72 velocity=117 time=0
EXTRACT: note_on channel=4 note=52 velocity=1 time=0
EXTRACT: note_on channel=5 note=38 velocity=112 time=0
EXTRACT: note_on channel=7 note=57 velocity=69 time=0
EXTRACT: note_on channel=7 note=62 velocity=71 time=0
EXTRACT: note_on channel=7 note=65 velocity=70 time=0
EXTRACT: note_on channel=9 note=36 velocity=126 time=0
EXTRACT: note_on channel=9 note=42 velocity=116 time=0
EXTRACT: note_on channel=9 note=70 velocity=106 time=0
EXTRACT: note_on channel=9 note=54 velocity=56 time=0.003
EXTRACT: note_on channel=13 note=62 velocity=38 time=0.001
EXTRACT: note_off channel=6 note=88 velocity=64 time=0.001
EXTRACT: note_on channel=6 note=89 velocity=63 time=0.002
EXTRACT: note_on channel=13 note=65 velocity=45 time=0.007
EXTRACT: note_off channel=9 note=70 velocity=64 time=0.01
EXTRACT: note_off channel=9 note=42 velocity=65 time=0
EXTRACT: note_off channel=9 note=36 velocity=64 time=0
EXTRACT: note_off channel=9 note=54 velocity=65 time=0.004
EXTRACT: note_off channel=5 note=38 velocity=64 time=0.081
EXTRACT: note_off channel=2 note=26 velocity=65 time=0
EXTRACT: note_on channel=2 note=26 velocity=75 time=0.009000000000000001
EXTRACT: note_on channel=5 note=38 velocity=62 time=0
EXTRACT: note_off channel=1 note=26 velocity=65 time=0.054
EXTRACT: note_off channel=3 note=72 velocity=65 time=0.056
EXTRACT: note_off channel=5 note=38 velocity=64 time=0.001
EXTRACT: note_off channel=2 note=26 velocity=65 time=0
EXTRACT: note_off channel=4 note=52 velocity=64 time=0
EXTRACT: note_on channel=1 note=38 velocity=123 time=0.009000000000000001
EXTRACT: note_on channel=2 note=38 velocity=124 time=0
EXTRACT: note_on channel=4 note=53 velocity=1 time=0
EXTRACT: note_on channel=5 note=38 velocity=113 time=0
EXTRACT: note_on channel=8 note=50 velocity=92 time=0
EXTRACT: note_on channel=9 note=46 velocity=105 time=0
EXTRACT: note_on channel=9 note=70 velocity=107 time=0
EXTRACT: note_on channel=3 note=74 velocity=117 time=0.001
EXTRACT: note_on channel=9 note=54 velocity=55 time=0.002
EXTRACT: note_off channel=9 note=70 velocity=65 time=0.021
EXTRACT: note_off channel=9 note=46 velocity=64 time=0
EXTRACT: note_off channel=9 note=54 velocity=65 time=0.003
EXTRACT: note_off channel=8 note=50 velocity=64 time=0.051000000000000004
EXTRACT: note_off channel=5 note=38 velocity=65 time=0.033
EXTRACT: note_off channel=2 note=38 velocity=64 time=0
EXTRACT: note_on channel=2 note=38 velocity=125 time=0.009000000000000001
EXTRACT: note_on channel=5 note=38 velocity=113 time=0
EXTRACT: note_on channel=8 note=50 velocity=101 time=0
EXTRACT: note_on channel=9 note=70 velocity=106 time=0
EXTRACT: note_off channel=9 note=70 velocity=64 time=0.024
EXTRACT: note_off channel=1 note=38 velocity=65 time=0
EXTRACT: note_off channel=8 note=50 velocity=64 time=0.041
EXTRACT: note_off channel=5 note=38 velocity=64 time=0.046
EXTRACT: note_off channel=2 note=38 velocity=64 time=0
EXTRACT: note_on channel=9 note=39 velocity=118 time=0.001
EXTRACT: note_on channel=1 note=26 velocity=123 time=0.008
EXTRACT: note_on channel=2 note=26 velocity=125 time=0
EXTRACT: note_on channel=5 note=38 velocity=112 time=0
EXTRACT: note_on channel=9 note=36 velocity=127 time=0
EXTRACT: note_on channel=9 note=38 velocity=117 time=0
EXTRACT: note_on channel=9 note=42 velocity=116 time=0
EXTRACT: note_on channel=9 note=70 velocity=107 time=0
EXTRACT: note_on channel=9 note=54 velocity=59 time=0.004
EXTRACT: note_off channel=9 note=39 velocity=64 time=0.013000000000000001
EXTRACT: note_off channel=9 note=70 velocity=65 time=0.007
EXTRACT: note_off channel=9 note=42 velocity=65 time=0
EXTRACT: note_off channel=9 note=38 velocity=64 time=0
EXTRACT: note_off channel=9 note=36 velocity=64 time=0
EXTRACT: note_off channel=9 note=54 velocity=65 time=0.005
EXTRACT: note_off channel=5 note=38 velocity=65 time=0.082
EXTRACT: note_off channel=2 note=26 velocity=65 time=0
EXTRACT: note_on channel=2 note=26 velocity=74 time=0.009000000000000001
EXTRACT: note_on channel=5 note=38 velocity=62 time=0
EXTRACT: note_off channel=1 note=26 velocity=64 time=0.034
EXTRACT: note_off channel=5 note=38 velocity=65 time=0.077
EXTRACT: note_off channel=2 note=26 velocity=65 time=0
EXTRACT: note_on channel=1 note=38 velocity=122 time=0.009000000000000001
EXTRACT: note_on channel=2 note=38 velocity=125 time=0
EXTRACT: note_on channel=5 note=38 velocity=113 time=0
EXTRACT: note_on channel=8 note=50 velocity=92 time=0
EXTRACT: note_on channel=9 note=42 velocity=115 time=0
EXTRACT: note_on channel=9 note=70 velocity=107 time=0
EXTRACT: note_on channel=9 note=54 velocity=54 time=0.004
EXTRACT: note_off channel=9 note=70 velocity=65 time=0.02
EXTRACT: note_off channel=9 note=42 velocity=64 time=0
EXTRACT: note_off channel=9 note=54 velocity=64 time=0.005
EXTRACT: note_off channel=8 note=50 velocity=65 time=0.033
EXTRACT: note_off channel=5 note=38 velocity=64 time=0.049
EXTRACT: note_off channel=2 note=38 velocity=64 time=0
EXTRACT: note_on channel=2 note=38 velocity=124 time=0.009000000000000001
EXTRACT: note_on channel=5 note=38 velocity=113 time=0
EXTRACT: note_on channel=8 note=50 velocity=89 time=0
EXTRACT: note_on channel=9 note=44 velocity=98 time=0
EXTRACT: note_on channel=9 note=70 velocity=106 time=0
EXTRACT: note_off channel=9 note=70 velocity=65 time=0.024
EXTRACT: note_off channel=9 note=44 velocity=64 time=0
EXTRACT: note_off channel=1 note=38 velocity=64 time=0.02
EXTRACT: note_off channel=8 note=50 velocity=64 time=0.035
EXTRACT: note_off channel=5 note=38 velocity=65 time=0.032
EXTRACT: note_off channel=2 note=38 velocity=64 time=0
EXTRACT: note_on channel=1 note=26 velocity=122 time=0.009000000000000001
EXTRACT: note_on channel=2 note=26 velocity=124 time=0
EXTRACT: note_on channel=5 note=38 velocity=112 time=0
EXTRACT: note_on channel=9 note=36 velocity=127 time=0
EXTRACT: note_on channel=9 note=42 velocity=119 time=0
EXTRACT: note_on channel=9 note=70 velocity=107 time=0
EXTRACT: note_on channel=9 note=54 velocity=59 time=0.004
EXTRACT: note_off channel=9 note=70 velocity=65 time=0.02
EXTRACT: note_off channel=9 note=42 velocity=65 time=0
EXTRACT: note_off channel=9 note=36 velocity=64 time=0
EXTRACT: note_off channel=9 note=54 velocity=65 time=0.005
EXTRACT: note_off channel=5 note=38 velocity=64 time=0.082
EXTRACT: note_off channel=2 note=26 velocity=65 time=0
EXTRACT: note_on channel=2 note=26 velocity=75 time=0.009000000000000001
EXTRACT: note_on channel=5 note=38 velocity=62 time=0
EXTRACT: note_off channel=1 note=26 velocity=65 time=0.054
EXTRACT: note_off channel=5 note=38 velocity=64 time=0.057
EXTRACT: note_off channel=2 note=26 velocity=64 time=0
EXTRACT: note_on channel=1 note=38 velocity=123 time=0.009000000000000001
EXTRACT: note_on channel=2 note=38 velocity=125 time=0
EXTRACT: note_on channel=5 note=38 velocity=113 time=0
EXTRACT: note_on channel=8 note=50 velocity=93 time=0
EXTRACT: note_on channel=9 note=46 velocity=106 time=0
EXTRACT: note_on channel=9 note=70 velocity=106 time=0
EXTRACT: note_on channel=9 note=54 velocity=54 time=0.005
EXTRACT: note_off channel=9 note=70 velocity=64 time=0.019
EXTRACT: note_off channel=9 note=46 velocity=64 time=0
EXTRACT: note_off channel=9 note=54 velocity=65 time=0.005
EXTRACT: note_off channel=8 note=50 velocity=65 time=0.037
EXTRACT: note_off channel=5 note=38 velocity=65 time=0.045
EXTRACT: note_off channel=2 note=38 velocity=65 time=0
EXTRACT: note_on channel=2 note=38 velocity=124 time=0.009000000000000001
EXTRACT: note_on channel=5 note=38 velocity=112 time=0
EXTRACT: note_on channel=8 note=50 velocity=106 time=0
EXTRACT: note_on channel=9 note=70 velocity=106 time=0
EXTRACT: note_off channel=9 note=70 velocity=65 time=0.024
EXTRACT: note_off channel=1 note=38 velocity=64 time=0
EXTRACT: note_off channel=3 note=74 velocity=65 time=0.04
EXTRACT: note_off channel=8 note=50 velocity=65 time=0.023
EXTRACT: control_change channel=9 control=91 value=30 time=0.003
EXTRACT: note_off channel=5 note=38 velocity=65 time=0.021
EXTRACT: note_off channel=2 note=38 velocity=65 time=0
EXTRACT: note_on channel=9 note=39 velocity=119 time=0.001
EXTRACT: note_on channel=1 note=26 velocity=122 time=0.008
EXTRACT: note_on channel=2 note=26 velocity=124 time=0
EXTRACT: note_on channel=5 note=38 velocity=113 time=0
EXTRACT: note_on channel=9 note=36 velocity=126 time=0
EXTRACT: note_on channel=9 note=38 velocity=117 time=0
EXTRACT: note_on channel=9 note=42 velocity=122 time=0
EXTRACT: note_on channel=9 note=70 velocity=107 time=0
EXTRACT: note_on channel=9 note=54 velocity=54 time=0.005
EXTRACT: note_off channel=9 note=39 velocity=64 time=0.012
EXTRACT: note_off channel=9 note=70 velocity=64 time=0.007
EXTRACT: note_off channel=9 note=42 velocity=65 time=0
EXTRACT: note_off channel=9 note=38 velocity=65 time=0
EXTRACT: note_off channel=9 note=36 velocity=64 time=0
EXTRACT: note_off channel=9 note=54 velocity=64 time=0.006
EXTRACT: note_off channel=5 note=38 velocity=64 time=0.081
EXTRACT: note_off channel=2 note=26 velocity=64 time=0
EXTRACT: note_on channel=2 note=26 velocity=75 time=0.009000000000000001
EXTRACT: note_on channel=5 note=38 velocity=63 time=0
EXTRACT: note_off channel=1 note=26 velocity=65 time=0.034
EXTRACT: note_on channel=12 note=71 velocity=107 time=0.026000000000000002
EXTRACT: note_off channel=5 note=38 velocity=64 time=0.051000000000000004
EXTRACT: note_off channel=2 note=26 velocity=65 time=0
EXTRACT: note_on channel=1 note=38 velocity=123 time=0.009000000000000001
EXTRACT: note_on channel=2 note=38 velocity=125 time=0
EXTRACT: note_on channel=5 note=38 velocity=112 time=0
EXTRACT: note_on channel=8 note=50 velocity=95 time=0
EXTRACT: note_on channel=9 note=42 velocity=122 time=0
EXTRACT: note_on channel=9 note=55 velocity=110 time=0
EXTRACT: note_on channel=9 note=70 velocity=107 time=0
EXTRACT: note_on channel=9 note=54 velocity=57 time=0.006
EXTRACT: note_off channel=9 note=70 velocity=65 time=0.018000000000000002
EXTRACT: note_off channel=9 note=55 velocity=64 time=0
EXTRACT: note_off channel=9 note=42 velocity=65 time=0
EXTRACT: note_off channel=9 note=54 velocity=65 time=0.007
EXTRACT: note_off channel=8 note=50 velocity=64 time=0.043000000000000003
EXTRACT: note_off channel=5 note=38 velocity=65 time=0.037
EXTRACT: note_off channel=2 note=38 velocity=64 time=0
EXTRACT: note_on channel=2 note=38 velocity=124 time=0.009000000000000001
EXTRACT: note_on channel=5 note=38 velocity=113 time=0
EXTRACT: note_on channel=8 note=50 velocity=102 time=0
EXTRACT: note_on channel=9 note=44 velocity=98 time=0
EXTRACT: note_on channel=9 note=70 velocity=106 time=0
EXTRACT: note_off channel=9 note=70 velocity=64 time=0.024
EXTRACT: note_off channel=9 note=44 velocity=65 time=0
EXTRACT: note_off channel=1 note=38 velocity=65 time=0.02
EXTRACT: note_off channel=7 note=65 velocity=65 time=0.016
EXTRACT: note_off channel=7 note=62 velocity=65 time=0
EXTRACT: note_off channel=7 note=57 velocity=64 time=0.008
EXTRACT: note_off channel=8 note=50 velocity=65 time=0.011
EXTRACT: note_off channel=13 note=62 velocity=64 time=0.02
EXTRACT: note_off channel=5 note=38 velocity=65 time=0.012
EXTRACT: note_off channel=2 note=38 velocity=64 time=0
EXTRACT: note_off channel=12 note=71 velocity=65 time=0.003
EXTRACT: note_off channel=6 note=89 velocity=64 time=0
EXTRACT: note_on channel=1 note=34 velocity=123 time=0.006
EXTRACT: note_on channel=2 note=34 velocity=124 time=0
EXTRACT: note_on channel=5 note=34 velocity=112 time=0
EXTRACT: note_on channel=7 note=58 velocity=66 time=0
EXTRACT: note_on channel=7 note=65 velocity=67 time=0
EXTRACT: note_on channel=9 note=36 velocity=126 time=0
EXTRACT: note_on channel=9 note=42 velocity=127 time=0
EXTRACT: note_on channel=9 note=70 velocity=106 time=0
EXTRACT: note_on channel=13 note=70 velocity=34 time=0.002
EXTRACT: note_on channel=9 note=54 velocity=59 time=0.004
EXTRACT: note_on channel=7 note=62 velocity=73 time=0.004
EXTRACT: note_on channel=6 note=86 velocity=64 time=0.004
EXTRACT: note_off channel=9 note=70 velocity=64 time=0.01
EXTRACT: note_off channel=9 note=42 velocity=64 time=0
EXTRACT: note_off channel=9 note=36 velocity=65 time=0
EXTRACT: note_off channel=9 note=54 velocity=65 time=0.007
EXTRACT: note_off channel=5 note=34 velocity=64 time=0.08
EXTRACT: note_off channel=2 note=34 velocity=65 time=0
EXTRACT: note_on channel=2 note=34 velocity=75 time=0.009000000000000001
EXTRACT: note_on channel=5 note=34 velocity=62 time=0
EXTRACT: note_off channel=1 note=34 velocity=64 time=0.054
EXTRACT: note_off channel=5 note=34 velocity=64 time=0.057
EXTRACT: note_off channel=2 note=34 velocity=65 time=0
EXTRACT: note_on channel=1 note=46 velocity=122 time=0.009000000000000001
EXTRACT: note_on channel=2 note=46 velocity=124 time=0
EXTRACT: note_on channel=5 note=34 velocity=113 time=0
EXTRACT: note_on channel=8 note=58 velocity=100 time=0
EXTRACT: note_on channel=9 note=46 velocity=113 time=0
EXTRACT: note_on channel=9 note=70 velocity=107 time=0
EXTRACT: note_on channel=9 note=54 velocity=58 time=0.005
EXTRACT: note_off channel=9 note=70 velocity=64 time=0.019
EXTRACT: note_off channel=9 note=46 velocity=64 time=0
EXTRACT: note_off channel=9 note=54 velocity=65 time=0.006
EXTRACT: note_off channel=8 note=58 velocity=64 time=0.029
EXTRACT: note_off channel=5 note=34 velocity=65 time=0.052000000000000005
EXTRACT: note_off channel=2 note=46 velocity=64 time=0
EXTRACT: note_on channel=2 note=46 velocity=125 time=0.009000000000000001
EXTRACT: note_on channel=5 note=34 velocity=113 time=0
EXTRACT: note_on channel=8 note=58 velocity=79 time=0
EXTRACT: note_on channel=9 note=70 velocity=107 time=0
EXTRACT: note_off channel=9 note=70 velocity=65 time=0.024
EXTRACT: note_off channel=1 note=46 velocity=65 time=0
EXTRACT: note_off channel=8 note=58 velocity=64 time=0.042
EXTRACT: note_off channel=5 note=34 velocity=64 time=0.045
EXTRACT: note_off channel=2 note=46 velocity=64 time=0
EXTRACT: note_off channel=4 note=53 velocity=65 time=0
EXTRACT: note_on channel=9 note=39 velocity=118 time=0.001
EXTRACT: note_on channel=1 note=34 velocity=123 time=0.008
EXTRACT: note_on channel=2 note=34 velocity=125 time=0
EXTRACT: note_on channel=4 note=62 velocity=1 time=0
EXTRACT: note_on channel=5 note=34 velocity=112 time=0
EXTRACT: note_on channel=9 note=36 velocity=127 time=0
EXTRACT: note_on channel=9 note=38 velocity=116 time=0
EXTRACT: note_on channel=9 note=42 velocity=118 time=0
EXTRACT: note_on channel=9 note=70 velocity=106 time=0
EXTRACT: note_on channel=9 note=54 velocity=58 time=0.003
EXTRACT: note_on channel=3 note=82 velocity=116 time=0
EXTRACT: note_off channel=9 note=39 velocity=64 time=0.001
EXTRACT: note_off channel=9 note=70 velocity=64 time=0.007
EXTRACT: note_off channel=9 note=42 velocity=65 time=0
EXTRACT: note_off channel=9 note=38 velocity=64 time=0
EXTRACT: note_off channel=9 note=36 velocity=65 time=0
EXTRACT: note_off channel=9 note=54 velocity=65 time=0.004
EXTRACT: note_off channel=5 note=34 velocity=65 time=0.083
EXTRACT: note_off channel=2 note=34 velocity=65 time=0
EXTRACT: note_on channel=2 note=34 velocity=74 time=0.009000000000000001
EXTRACT: note_on channel=5 note=34 velocity=62 time=0
EXTRACT: note_off channel=1 note=34 velocity=64 time=0.034
EXTRACT: note_off channel=5 note=34 velocity=65 time=0.077
EXTRACT: note_off channel=2 note=34 velocity=65 time=0
EXTRACT: note_on channel=1 note=46 velocity=122 time=0.009000000000000001
EXTRACT: note_on channel=2 note=46 velocity=125 time=0
EXTRACT: note_on channel=5 note=34 velocity=113 time=0
EXTRACT: note_on channel=8 note=58 velocity=103 time=0
EXTRACT: note_on channel=9 note=42 velocity=117 time=0
EXTRACT: note_on channel=9 note=70 velocity=106 time=0
EXTRACT: note_on channel=9 note=54 velocity=59 time=0
EXTRACT: note_off channel=9 note=70 velocity=64 time=0.024
EXTRACT: note_off channel=9 note=42 velocity=65 time=0
EXTRACT: note_off channel=9 note=54 velocity=64 time=0.001
EXTRACT: note_off channel=8 note=58 velocity=65 time=0.03
EXTRACT: note_off channel=5 note=34 velocity=64 time=0.056
EXTRACT: note_off channel=2 note=46 velocity=64 time=0
EXTRACT: note_on channel=2 note=46 velocity=124 time=0.009000000000000001
EXTRACT: note_on channel=5 note=34 velocity=113 time=0
EXTRACT: note_on channel=8 note=58 velocity=92 time=0
EXTRACT: note_on channel=9 note=44 velocity=99 time=0
EXTRACT: note_on channel=9 note=70 velocity=107 time=0
EXTRACT: note_off channel=9 note=70 velocity=64 time=0.024
EXTRACT: note_off channel=9 note=44 velocity=65 time=0
EXTRACT: note_off channel=3 note=82 velocity=64 time=0.016
EXTRACT: note_off channel=1 note=46 velocity=64 time=0.004
EXTRACT: note_off channel=8 note=58 velocity=65 time=0.014
EXTRACT: note_off channel=5 note=34 velocity=65 time=0.053
EXTRACT: note_off channel=2 note=46 velocity=64 time=0
EXTRACT: note_off channel=4 note=62 velocity=64 time=0
EXTRACT: note_on channel=1 note=34 velocity=122 time=0.009000000000000001
EXTRACT: note_on channel=2 note=34 velocity=124 time=0
EXTRACT: note_on channel=4 note=62 velocity=1 time=0
EXTRACT: note_on channel=5 note=34 velocity=112 time=0
EXTRACT: note_on channel=9 note=36 velocity=126 time=0
EXTRACT: note_on channel=9 note=42 velocity=125 time=0
EXTRACT: note_on channel=9 note=70 velocity=106 time=0
EXTRACT: note_on channel=9 note=54 velocity=55 time=0
EXTRACT: note_on channel=3 note=82 velocity=116 time=0
EXTRACT: note_off channel=9 note=70 velocity=65 time=0.011
EXTRACT: note_off channel=9 note=42 velocity=64 time=0
EXTRACT: note_off channel=9 note=36 velocity=64 time=0
EXTRACT: note_off channel=9 note=54 velocity=65 time=0.001
EXTRACT: note_off channel=5 note=34 velocity=64 time=0.08600000000000001
EXTRACT: note_off channel=2 note=34 velocity=65 time=0
EXTRACT: note_on channel=2 note=34 velocity=75 time=0.009000000000000001
EXTRACT: note_on channel=5 note=34 velocity=62 time=0
EXTRACT: note_off channel=1 note=34 velocity=65 time=0.054
EXTRACT: note_off channel=5 note=34 velocity=64 time=0.057
EXTRACT: note_off channel=2 note=34 velocity=64 time=0
EXTRACT: note_on channel=1 note=46 velocity=123 time=0.009000000000000001
EXTRACT: note_on channel=2 note=46 velocity=125 time=0
EXTRACT: note_on channel=5 note=34 velocity=113 time=0
EXTRACT: note_on channel=8 note=58 velocity=102 time=0
EXTRACT: note_on channel=9 note=46 velocity=110 time=0
EXTRACT: note_on channel=9 note=70 velocity=107 time=0
EXTRACT: note_on channel=9 note=54 velocity=56 time=0.001
EXTRACT: note_off channel=9 note=70 velocity=65 time=0.023
EXTRACT: note_off channel=9 note=46 velocity=64 time=0
EXTRACT: note_off channel=9 note=54 velocity=64 time=0.001
EXTRACT: note_off channel=8 note=58 velocity=64 time=0.033
EXTRACT: note_off channel=5 note=34 velocity=65 time=0.053
EXTRACT: note_off channel=2 note=46 velocity=65 time=0
EXTRACT: note_on channel=2 note=46 velocity=124 time=0.009000000000000001
EXTRACT: note_on channel=5 note=34 velocity=112 time=0
EXTRACT: note_on channel=8 note=58 velocity=101 time=0
EXTRACT: note_on channel=9 note=70 velocity=107 time=0
EXTRACT: note_off channel=9 note=70 velocity=65 time=0.024
EXTRACT: note_off channel=1 note=46 velocity=65 time=0
EXTRACT: note_off channel=3 note=82 velocity=64 time=0.018000000000000002
EXTRACT: note_off channel=8 note=58 velocity=64 time=0.013000000000000001
EXTRACT: note_off channel=5 note=34 velocity=65 time=0.056
EXTRACT: note_off channel=2 note=46 velocity=65 time=0
EXTRACT: note_off channel=4 note=62 velocity=64 time=0
EXTRACT: note_on channel=9 note=39 velocity=118 time=0.001
EXTRACT: note_on channel=1 note=34 velocity=123 time=0.008
EXTRACT: note_on channel=2 note=34 velocity=124 time=0
EXTRACT: note_on channel=4 note=62 velocity=1 time=0
EXTRACT: note_on channel=5 note=34 velocity=113 time=0
EXTRACT: note_on channel=9 note=36 velocity=127 time=0
EXTRACT: note_on channel=9 note=38 velocity=116 time=0
EXTRACT: note_on channel=9 note=42 velocity=98 time=0
EXTRACT: note_on channel=9 note=70 velocity=106 time=0
EXTRACT: note_on channel=9 note=54 velocity=54 time=0.001
EXTRACT: note_off channel=9 note=39 velocity=64 time=0.016
EXTRACT: note_on channel=3 note=82 velocity=117 time=0
EXTRACT: note_off channel=9 note=70 velocity=65 time=0.003
EXTRACT: note_off channel=9 note=42 velocity=65 time=0
EXTRACT: note_off channel=9 note=38 velocity=64 time=0
EXTRACT: note_off channel=9 note=36 velocity=65 time=0
EXTRACT: note_off channel=9 note=54 velocity=64 time=0.002
EXTRACT: note_off channel=5 note=34 velocity=64 time=0.085
EXTRACT: note_off channel=2 note=34 velocity=64 time=0
EXTRACT: note_on channel=2 note=34 velocity=75 time=0.009000000000000001
EXTRACT: note_on channel=5 note=34 velocity=63 time=0
EXTRACT: note_off channel=1 note=34 velocity=64 time=0.034
EXTRACT: note_off channel=5 note=34 velocity=64 time=0.077
EXTRACT: note_off channel=2 note=34 velocity=65 time=0
EXTRACT: note_on channel=1 note=46 velocity=122 time=0.009000000000000001
EXTRACT: note_on channel=2 note=46 velocity=125 time=0
EXTRACT: note_on channel=5 note=34 velocity=112 time=0
EXTRACT: note_on channel=8 note=58 velocity=105 time=0
EXTRACT: note_on channel=9 note=42 velocity=115 time=0
EXTRACT: note_on channel=9 note=70 velocity=107 time=0
EXTRACT: note_on channel=9 note=54 velocity=57 time=0.001
EXTRACT: note_off channel=9 note=70 velocity=64 time=0.023
EXTRACT: note_off channel=9 note=42 velocity=65 time=0
EXTRACT: note_off channel=9 note=54 velocity=65 time=0.002
EXTRACT: note_off channel=8 note=58 velocity=65 time=0.037
EXTRACT: note_off channel=3 note=82 velocity=65 time=0.043000000000000003
EXTRACT: note_off channel=5 note=34 velocity=65 time=0.005
EXTRACT: note_off channel=2 note=46 velocity=64 time=0
EXTRACT: note_on channel=2 note=46 velocity=124 time=0.009000000000000001
EXTRACT: note_on channel=5 note=34 velocity=113 time=0
EXTRACT: note_on channel=8 note=58 velocity=102 time=0
EXTRACT: note_on channel=9 note=44 velocity=98 time=0
EXTRACT: note_on channel=9 note=70 velocity=106 time=0
EXTRACT: note_off channel=9 note=70 velocity=64 time=0.024
EXTRACT: note_off channel=9 note=44 velocity=64 time=0
EXTRACT: note_off channel=1 note=46 velocity=64 time=0.02
EXTRACT: note_off channel=8 note=58 velocity=65 time=0.024
EXTRACT: note_off channel=5 note=34 velocity=65 time=0.043000000000000003
EXTRACT: note_off channel=2 note=46 velocity=64 time=0
EXTRACT: note_off channel=4 note=62 velocity=65 time=0
EXTRACT: note_off channel=7 note=58 velocity=64 time=0
EXTRACT: note_off channel=7 note=62 velocity=65 time=0.001
EXTRACT: note_on channel=7 note=60 velocity=70 time=0.002
EXTRACT: note_off channel=13 note=70 velocity=65 time=0
EXTRACT: note_off channel=6 note=86 velocity=65 time=0.001
EXTRACT: pitchwheel channel=3 pitch=-4168 time=0.004
EXTRACT: note_on channel=1 note=29 velocity=122 time=0.001
EXTRACT: note_on channel=2 note=29 velocity=124 time=0
EXTRACT: note_on channel=4 note=60 velocity=1 time=0
EXTRACT: note_on channel=5 note=41 velocity=112 time=0
EXTRACT: note_on channel=7 note=53 velocity=72 time=0
EXTRACT: note_on channel=9 note=36 velocity=127 time=0
EXTRACT: note_on channel=9 note=42 velocity=122 time=0
EXTRACT: note_on channel=9 note=70 velocity=106 time=0
EXTRACT: note_on channel=9 note=54 velocity=50 time=0.003
EXTRACT: note_on channel=6 note=84 velocity=64 time=0.002
EXTRACT: note_on channel=3 note=81 velocity=117 time=0
EXTRACT: note_on channel=13 note=69 velocity=42 time=0.006
EXTRACT: note_off channel=9 note=70 velocity=65 time=0.012
EXTRACT: note_off channel=9 note=42 velocity=65 time=0
EXTRACT: note_off channel=9 note=36 velocity=64 time=0
EXTRACT: note_off channel=9 note=54 velocity=64 time=0.004
EXTRACT: pitchwheel channel=3 pitch=-2873 time=0.031
EXTRACT: pitchwheel channel=3 pitch=-1949 time=0.014
EXTRACT: pitchwheel channel=3 pitch=-166 time=0.015
EXTRACT: pitchwheel channel=3 pitch=128 time=0.013000000000000001
EXTRACT: note_off channel=5 note=41 velocity=64 time=0.002
EXTRACT: note_off channel=2 note=29 velocity=65 time=0
EXTRACT: note_on channel=2 note=29 velocity=75 time=0.009000000000000001
EXTRACT: note_on channel=5 note=41 velocity=62 time=0
EXTRACT: note_off channel=1 note=29 velocity=65 time=0.054
EXTRACT: note_off channel=5 note=41 velocity=64 time=0.057
EXTRACT: note_off channel=2 note=29 velocity=65 time=0
EXTRACT: note_on channel=1 note=41 velocity=123 time=0.009000000000000001
EXTRACT: note_on channel=2 note=41 velocity=124 time=0
EXTRACT: note_on channel=5 note=41 velocity=113 time=0
EXTRACT: note_on channel=8 note=53 velocity=100 time=0
EXTRACT: note_on channel=9 note=46 velocity=104 time=0
EXTRACT: note_on channel=9 note=70 velocity=107 time=0
EXTRACT: note_on channel=9 note=54 velocity=55 time=0.002
EXTRACT: note_off channel=9 note=70 velocity=65 time=0.022
EXTRACT: note_off channel=9 note=46 velocity=64 time=0
EXTRACT: note_off channel=9 note=54 velocity=65 time=0.003
EXTRACT: note_off channel=8 note=53 velocity=64 time=0.032
EXTRACT: note_off channel=5 note=41 velocity=65 time=0.052000000000000005
EXTRACT: note_off channel=2 note=41 velocity=64 time=0
EXTRACT: note_on channel=2 note=41 velocity=125 time=0.009000000000000001
EXTRACT: note_on channel=5 note=41 velocity=113 time=0
EXTRACT: note_on channel=8 note=53 velocity=79 time=0
EXTRACT: note_on channel=9 note=70 velocity=107 time=0
EXTRACT: note_off channel=9 note=70 velocity=65 time=0.024
EXTRACT: note_off channel=1 note=41 velocity=65 time=0
EXTRACT: note_off channel=8 note=53 velocity=64 time=0.042
EXTRACT: note_off channel=5 note=41 velocity=64 time=0.045
EXTRACT: note_off channel=2 note=41 velocity=64 time=0
EXTRACT: note_on channel=9 note=39 velocity=119 time=0.001
EXTRACT: note_on channel=9 note=54 velocity=59 time=0.007
EXTRACT: note_on channel=1 note=29 velocity=123 time=0.001
EXTRACT: note_on channel=2 note=29 velocity=125 time=0
EXTRACT: note_on channel=5 note=41 velocity=112 time=0
EXTRACT: note_on channel=9 note=36 velocity=126 time=0
EXTRACT: note_on channel=9 note=38 velocity=117 time=0
EXTRACT: note_on channel=9 note=42 velocity=110 time=0
EXTRACT: note_on channel=9 note=70 velocity=106 time=0
EXTRACT: note_off channel=9 note=39 velocity=64 time=0.017
EXTRACT: note_off channel=9 note=70 velocity=65 time=0.007
EXTRACT: note_off channel=9 note=42 velocity=64 time=0
EXTRACT: note_off channel=9 note=38 velocity=64 time=0
EXTRACT: note_off channel=9 note=36 velocity=65 time=0
EXTRACT: note_off channel=9 note=54 velocity=65 time=0
EXTRACT: note_off channel=3 note=81 velocity=65 time=0.013000000000000001
EXTRACT: note_off channel=5 note=41 velocity=65 time=0.074
EXTRACT: note_off channel=2 note=29 velocity=65 time=0
EXTRACT: note_on channel=2 note=29 velocity=74 time=0.009000000000000001
EXTRACT: note_on channel=5 note=41 velocity=62 time=0
EXTRACT: note_off channel=1 note=29 velocity=64 time=0.034
EXTRACT: note_off channel=5 note=41 velocity=65 time=0.077
EXTRACT: note_off channel=2 note=29 velocity=65 time=0
EXTRACT: note_off channel=4 note=60 velocity=65 time=0
EXTRACT: note_on channel=9 note=54 velocity=50 time=0.008
EXTRACT: note_on channel=1 note=41 velocity=122 time=0.001
EXTRACT: note_on channel=2 note=41 velocity=125 time=0
EXTRACT: note_on channel=4 note=57 velocity=1 time=0
EXTRACT: note_on channel=5 note=41 velocity=113 time=0
EXTRACT: note_on channel=8 note=53 velocity=102 time=0
EXTRACT: note_on channel=9 note=42 velocity=125 time=0
EXTRACT: note_on channel=9 note=70 velocity=106 time=0
EXTRACT: note_on channel=3 note=77 velocity=116 time=0
EXTRACT: note_off channel=9 note=70 velocity=64 time=0.022
EXTRACT: note_off channel=9 note=42 velocity=64 time=0
EXTRACT: note_off channel=9 note=54 velocity=65 time=0
EXTRACT: note_off channel=8 note=53 velocity=65 time=0.031
EXTRACT: note_off channel=5 note=41 velocity=64 time=0.056
EXTRACT: note_off channel=2 note=41 velocity=64 time=0
EXTRACT: note_on channel=2 note=41 velocity=124 time=0.009000000000000001
EXTRACT: note_on channel=5 note=41 velocity=113 time=0
EXTRACT: note_on channel=8 note=53 velocity=93 time=0
EXTRACT: note_on channel=9 note=44 velocity=99 time=0
EXTRACT: note_on channel=9 note=70 velocity=107 time=0
EXTRACT: note_off channel=9 note=70 velocity=65 time=0.024
EXTRACT: note_off channel=9 note=44 velocity=64 time=0
EXTRACT: note_off channel=1 note=41 velocity=64 time=0.02
EXTRACT: note_off channel=8 note=53 velocity=64 time=0.014
EXTRACT: note_off channel=5 note=41 velocity=65 time=0.053
EXTRACT: note_off channel=2 note=41 velocity=64 time=0
EXTRACT: note_on channel=9 note=54 velocity=53 time=0.008
EXTRACT: note_on channel=1 note=29 velocity=122 time=0.001
EXTRACT: note_on channel=2 note=29 velocity=124 time=0
EXTRACT: note_on channel=5 note=41 velocity=112 time=0
EXTRACT: note_on channel=9 note=36 velocity=127 time=0
EXTRACT: note_on channel=9 note=42 velocity=125 time=0
EXTRACT: note_on channel=9 note=70 velocity=107 time=0
EXTRACT: note_off channel=9 note=54 velocity=64 time=0.023
EXTRACT: note_off channel=9 note=70 velocity=65 time=0.001
EXTRACT: note_off channel=9 note=42 velocity=64 time=0
EXTRACT: note_off channel=9 note=36 velocity=65 time=0
EXTRACT: note_off channel=5 note=41 velocity=64 time=0.08700000000000001
EXTRACT: note_off channel=2 note=29 velocity=65 time=0
EXTRACT: note_on channel=2 note=29 velocity=75 time=0.009000000000000001
EXTRACT: note_on channel=5 note=41 velocity=62 time=0
EXTRACT: note_off channel=1 note=29 velocity=65 time=0.054
EXTRACT: note_off channel=3 note=77 velocity=64 time=0
EXTRACT: note_off channel=5 note=41 velocity=64 time=0.057
EXTRACT: note_off channel=2 note=29 velocity=64 time=0
EXTRACT: note_off channel=4 note=57 velocity=64 time=0
EXTRACT: note_on channel=1 note=41 velocity=123 time=0.009000000000000001
EXTRACT: note_on channel=2 note=41 velocity=125 time=0
EXTRACT: note_on channel=4 note=58 velocity=1 time=0
EXTRACT: note_on channel=5 note=41 velocity=113 time=0
EXTRACT: note_on channel=8 note=53 velocity=103 time=0
EXTRACT: note_on channel=9 note=46 velocity=111 time=0
EXTRACT: note_on channel=9 note=70 velocity=106 time=0
EXTRACT: note_on channel=9 note=54 velocity=50 time=0.002
EXTRACT: note_on channel=3 note=79 velocity=116 time=0
EXTRACT: note_off channel=9 note=70 velocity=65 time=0.013000000000000001
EXTRACT: note_off channel=9 note=46 velocity=64 time=0
EXTRACT: note_off channel=9 note=54 velocity=65 time=0.002
EXTRACT: note_off channel=8 note=53 velocity=65 time=0.032
EXTRACT: note_off channel=5 note=41 velocity=65 time=0.053
EXTRACT: note_off channel=2 note=41 velocity=65 time=0
EXTRACT: note_on channel=2 note=41 velocity=124 time=0.009000000000000001
EXTRACT: note_on channel=5 note=41 velocity=112 time=0
EXTRACT: note_on channel=8 note=53 velocity=100 time=0
EXTRACT: note_on channel=9 note=70 velocity=106 time=0
EXTRACT: note_off channel=9 note=70 velocity=64 time=0.024
EXTRACT: note_off channel=1 note=41 velocity=64 time=0
EXTRACT: note_off channel=3 note=79 velocity=64 time=0.014
EXTRACT: note_off channel=8 note=53 velocity=65 time=0.017
EXTRACT: note_off channel=5 note=41 velocity=65 time=0.056
EXTRACT: note_off channel=2 note=41 velocity=65 time=0
EXTRACT: note_off channel=4 note=58 velocity=64 time=0
EXTRACT: note_on channel=9 note=39 velocity=119 time=0.001
EXTRACT: note_on channel=3 note=81 velocity=117 time=0
EXTRACT: note_on channel=1 note=29 velocity=122 time=0.004
EXTRACT: note_on channel=2 note=29 velocity=124 time=0
EXTRACT: note_on channel=4 note=60 velocity=1 time=0
EXTRACT: note_on channel=5 note=41 velocity=113 time=0
EXTRACT: note_on channel=9 note=36 velocity=126 time=0
EXTRACT: note_on channel=9 note=38 velocity=116 time=0
EXTRACT: note_on channel=9 note=42 velocity=112 time=0
EXTRACT: note_on channel=9 note=70 velocity=107 time=0
EXTRACT: note_on channel=9 note=54 velocity=52 time=0.004
EXTRACT: note_off channel=9 note=39 velocity=64 time=0.013000000000000001
EXTRACT: note_off channel=9 note=70 velocity=65 time=0.007
EXTRACT: note_off channel=9 note=42 velocity=65 time=0
EXTRACT: note_off channel=9 note=38 velocity=64 time=0
EXTRACT: note_off channel=9 note=36 velocity=64 time=0
EXTRACT: note_off channel=9 note=54 velocity=65 time=0.004
EXTRACT: note_off channel=5 note=41 velocity=64 time=0.083
EXTRACT: note_off channel=2 note=29 velocity=64 time=0
EXTRACT: note_on channel=2 note=29 velocity=75 time=0.009000000000000001
EXTRACT: note_on channel=5 note=41 velocity=63 time=0
EXTRACT: note_off channel=1 note=29 velocity=65 time=0.034
EXTRACT: note_on channel=12 note=71 velocity=120 time=0.026000000000000002
EXTRACT: note_off channel=5 note=41 velocity=64 time=0.051000000000000004
EXTRACT: note_off channel=2 note=29 velocity=65 time=0
EXTRACT: note_on channel=1 note=41 velocity=123 time=0.009000000000000001
EXTRACT: note_on channel=2 note=41 velocity=125 time=0
EXTRACT: note_on channel=5 note=41 velocity=112 time=0
EXTRACT: note_on channel=8 note=53 velocity=105 time=0
EXTRACT: note_on channel=9 note=42 velocity=108 time=0
EXTRACT: note_on channel=9 note=55 velocity=118 time=0
EXTRACT: note_on channel=9 note=70 velocity=106 time=0
EXTRACT: note_on channel=9 note=54 velocity=53 time=0.003
EXTRACT: note_off channel=9 note=70 velocity=65 time=0.021
EXTRACT: note_off channel=9 note=55 velocity=64 time=0
EXTRACT: note_off channel=9 note=42 velocity=64 time=0
EXTRACT: note_off channel=9 note=54 velocity=65 time=0.004
EXTRACT: note_off channel=8 note=53 velocity=64 time=0.035
EXTRACT: note_off channel=3 note=81 velocity=65 time=0.01
EXTRACT: note_off channel=5 note=41 velocity=65 time=0.038
EXTRACT: note_off channel=2 note=41 velocity=64 time=0
EXTRACT: note_on channel=2 note=41 velocity=124 time=0.009000000000000001
EXTRACT: note_on channel=5 note=41 velocity=113 time=0
EXTRACT: note_on channel=8 note=53 velocity=102 time=0
EXTRACT: note_on channel=9 note=44 velocity=99 time=0
EXTRACT: note_on channel=9 note=70 velocity=107 time=0
EXTRACT: note_off channel=9 note=70 velocity=64 time=0.024
EXTRACT: note_off channel=9 note=44 velocity=65 time=0
EXTRACT: note_off channel=1 note=41 velocity=65 time=0.02
EXTRACT: note_off channel=7 note=65 velocity=65 time=0.019
EXTRACT: note_off channel=8 note=53 velocity=65 time=0.005
EXTRACT: control_change channel=9 control=91 value=20 time=0.022
EXTRACT: pitchwheel channel=3 pitch=-2978 time=0.016
EXTRACT: note_off channel=5 note=41 velocity=65 time=0.005
EXTRACT: note_off channel=2 note=41 velocity=64 time=0
EXTRACT: note_off channel=4 note=60 velocity=65 time=0
EXTRACT: note_off channel=12 note=71 velocity=64 time=0.003
EXTRACT: note_on channel=1 note=33 velocity=123 time=0.006
EXTRACT: note_on channel=2 note=33 velocity=124 time=0
EXTRACT: note_on channel=4 note=61 velocity=1 time=0
EXTRACT: note_on channel=5 note=45 velocity=112 time=0
EXTRACT: note_on channel=7 note=57 velocity=63 time=0
EXTRACT: note_on channel=7 note=61 velocity=66 time=0
EXTRACT: note_on channel=7 note=64 velocity=71 time=0
EXTRACT: note_on channel=9 note=36 velocity=126 time=0
EXTRACT: note_on channel=9 note=42 velocity=125 time=0
EXTRACT: note_on channel=9 note=70 velocity=107 time=0
EXTRACT: note_on channel=9 note=54 velocity=57 time=0.002
EXTRACT: note_on channel=3 note=81 velocity=116 time=0
EXTRACT: note_off channel=6 note=84 velocity=65 time=0.004
EXTRACT: note_on channel=6 note=88 velocity=43 time=0.004
EXTRACT: note_on channel=13 note=64 velocity=43 time=0.01
EXTRACT: note_off channel=9 note=70 velocity=65 time=0
EXTRACT: note_off channel=9 note=42 velocity=64 time=0
EXTRACT: note_off channel=9 note=36 velocity=65 time=0
EXTRACT: note_off channel=9 note=54 velocity=64 time=0.003
EXTRACT: note_off channel=13 note=65 velocity=64 time=0
EXTRACT: note_off channel=7 note=60 velocity=64 time=0.009000000000000001
EXTRACT: pitchwheel channel=3 pitch=-1325 time=0.008
EXTRACT: pitchwheel channel=3 pitch=128 time=0.013000000000000001
EXTRACT: note_off channel=7 note=53 velocity=64 time=0.003
EXTRACT: note_off channel=5 note=45 velocity=64 time=0.051000000000000004
EXTRACT: note_off channel=2 note=33 velocity=65 time=0
EXTRACT: note_on channel=2 note=33 velocity=75 time=0.009000000000000001
EXTRACT: note_on channel=5 note=45 velocity=62 time=0
EXTRACT: note_off channel=1 note=33 velocity=64 time=0.054
EXTRACT: pitchwheel channel=3 pitch=-129 time=0.056
EXTRACT: note_off channel=5 note=45 velocity=64 time=0.001
EXTRACT: note_off channel=2 note=33 velocity=65 time=0
EXTRACT: note_on channel=1 note=45 velocity=122 time=0.009000000000000001
EXTRACT: note_on channel=2 note=45 velocity=124 time=0
EXTRACT: note_on channel=5 note=45 velocity=113 time=0
EXTRACT: note_on channel=8 note=57 velocity=92 time=0
EXTRACT: note_on channel=9 note=46 velocity=111 time=0
EXTRACT: note_on channel=9 note=70 velocity=106 time=0
EXTRACT: note_on channel=9 note=54 velocity=54 time=0.002
EXTRACT: pitchwheel channel=3 pitch=-2603 time=0.003
EXTRACT: pitchwheel channel=3 pitch=-5048 time=0.015
EXTRACT: note_off channel=9 note=70 velocity=64 time=0.004
EXTRACT: note_off channel=9 note=46 velocity=65 time=0
EXTRACT: note_off channel=9 note=54 velocity=65 time=0.003
EXTRACT: pitchwheel channel=3 pitch=-6951 time=0.006
EXTRACT: pitchwheel channel=3 pitch=-8192 time=0.014
EXTRACT: note_off channel=8 note=57 velocity=64 time=0.016
EXTRACT: note_off channel=5 note=45 velocity=65 time=0.048
EXTRACT: note_off channel=2 note=45 velocity=64 time=0
EXTRACT: note_on channel=2 note=45 velocity=125 time=0.009000000000000001
EXTRACT: note_on channel=5 note=45 velocity=113 time=0
EXTRACT: note_on channel=8 note=57 velocity=91 time=0
EXTRACT: note_on channel=9 note=70 velocity=107 time=0
EXTRACT: note_off channel=9 note=70 velocity=64 time=0.024
EXTRACT: note_off channel=1 note=45 velocity=65 time=0
EXTRACT: note_off channel=8 note=57 velocity=64 time=0.044
EXTRACT: note_off channel=5 note=45 velocity=64 time=0.043000000000000003
EXTRACT: note_off channel=2 note=45 velocity=64 time=0
EXTRACT: note_on channel=9 note=39 velocity=118 time=0.001
EXTRACT: note_on channel=1 note=33 velocity=123 time=0.008
EXTRACT: note_on channel=2 note=33 velocity=125 time=0
EXTRACT: note_on channel=5 note=45 velocity=112 time=0
EXTRACT: note_on channel=9 note=36 velocity=127 time=0
EXTRACT: note_on channel=9 note=38 velocity=117 time=0
EXTRACT: note_on channel=9 note=42 velocity=123 time=0
EXTRACT: note_on channel=9 note=70 velocity=106 time=0
EXTRACT: note_on channel=9 note=54 velocity=54 time=0.001
EXTRACT: note_off channel=9 note=39 velocity=64 time=0.016
EXTRACT: note_off channel=9 note=70 velocity=65 time=0.007
EXTRACT: note_off channel=9 note=42 velocity=65 time=0
EXTRACT: note_off channel=9 note=38 velocity=64 time=0
EXTRACT: note_off channel=9 note=36 velocity=64 time=0
EXTRACT: note_off channel=9 note=54 velocity=65 time=0.002
EXTRACT: note_off channel=5 note=45 velocity=65 time=0.085
EXTRACT: note_off channel=2 note=33 velocity=65 time=0
EXTRACT: note_on channel=2 note=33 velocity=74 time=0.009000000000000001
EXTRACT: note_on channel=5 note=45 velocity=62 time=0
EXTRACT: note_off channel=1 note=33 velocity=64 time=0.034
EXTRACT: note_off channel=3 note=81 velocity=64 time=0.02
EXTRACT: note_off channel=5 note=45 velocity=65 time=0.057
EXTRACT: note_off channel=2 note=33 velocity=65 time=0
EXTRACT: note_off channel=4 note=61 velocity=65 time=0
EXTRACT: note_on channel=1 note=45 velocity=122 time=0.009000000000000001
EXTRACT: note_on channel=2 note=45 velocity=125 time=0
EXTRACT: note_on channel=4 note=61 velocity=1 time=0
EXTRACT: note_on channel=5 note=45 velocity=113 time=0
EXTRACT: note_on channel=8 note=57 velocity=89 time=0
EXTRACT: note_on channel=9 note=42 velocity=116 time=0
EXTRACT: note_on channel=9 note=70 velocity=106 time=0
EXTRACT: note_on channel=9 note=54 velocity=53 time=0
EXTRACT: pitchwheel channel=3 pitch=-6538 time=0.023
EXTRACT: note_on channel=3 note=81 velocity=117 time=0
EXTRACT: note_off channel=9 note=70 velocity=64 time=0
EXTRACT: note_off channel=9 note=42 velocity=65 time=0
EXTRACT: note_off channel=9 note=54 velocity=65 time=0.001
EXTRACT: pitchwheel channel=3 pitch=-2731 time=0.012
EXTRACT: pitchwheel channel=3 pitch=0 time=0.015
EXTRACT: note_off channel=8 note=57 velocity=65 time=0.012
EXTRACT: note_off channel=5 note=45 velocity=64 time=0.045
EXTRACT: note_off channel=2 note=45 velocity=64 time=0
EXTRACT: note_on channel=2 note=45 velocity=124 time=0.009000000000000001
EXTRACT: note_on channel=5 note=45 velocity=113 time=0
EXTRACT: note_on channel=8 note=57 velocity=98 time=0
EXTRACT: note_on channel=9 note=44 velocity=98 time=0
EXTRACT: note_on channel=9 note=70 velocity=107 time=0
EXTRACT: note_off channel=9 note=70 velocity=64 time=0.024
EXTRACT: note_off channel=9 note=44 velocity=65 time=0
EXTRACT: note_off channel=1 note=45 velocity=64 time=0.02
EXTRACT: note_off channel=8 note=57 velocity=65 time=0.032
EXTRACT: note_off channel=5 note=45 velocity=65 time=0.035
EXTRACT: note_off channel=2 note=45 velocity=64 time=0
EXTRACT: note_on channel=1 note=33 velocity=122 time=0.009000000000000001
EXTRACT: note_on channel=2 note=33 velocity=124 time=0
EXTRACT: note_on channel=5 note=45 velocity=112 time=0
EXTRACT: note_on channel=9 note=36 velocity=127 time=0
EXTRACT: note_on channel=9 note=42 velocity=124 time=0
EXTRACT: note_on channel=9 note=70 velocity=107 time=0
EXTRACT: note_on channel=9 note=54 velocity=49 time=0.001
EXTRACT: note_off channel=9 note=70 velocity=64 time=0.023
EXTRACT: note_off channel=9 note=42 velocity=64 time=0
EXTRACT: note_off channel=9 note=36 velocity=65 time=0
EXTRACT: note_off channel=9 note=54 velocity=65 time=0.002
EXTRACT: note_off channel=5 note=45 velocity=64 time=0.085
EXTRACT: note_off channel=2 note=33 velocity=65 time=0
EXTRACT: note_on channel=2 note=33 velocity=75 time=0.009000000000000001
EXTRACT: note_on channel=5 note=45 velocity=62 time=0
EXTRACT: note_off channel=1 note=33 velocity=65 time=0.054
EXTRACT: note_off channel=5 note=45 velocity=64 time=0.057
EXTRACT: note_off channel=2 note=33 velocity=64 time=0
EXTRACT: note_on channel=1 note=45 velocity=123 time=0.009000000000000001
EXTRACT: note_on channel=2 note=45 velocity=125 time=0
EXTRACT: note_on channel=5 note=45 velocity=113 time=0
EXTRACT: note_on channel=8 note=57 velocity=88 time=0
EXTRACT: note_on channel=9 note=46 velocity=106 time=0
EXTRACT: note_on channel=9 note=54 velocity=52 time=0
EXTRACT: note_on channel=9 note=70 velocity=106 time=0
EXTRACT: note_off channel=9 note=70 velocity=64 time=0.024
EXTRACT: note_off channel=9 note=54 velocity=64 time=0
EXTRACT: note_off channel=9 note=46 velocity=65 time=0
EXTRACT: note_off channel=8 note=57 velocity=64 time=0.039
EXTRACT: note_off channel=5 note=45 velocity=65 time=0.048
EXTRACT: note_off channel=2 note=45 velocity=65 time=0
EXTRACT: note_on channel=2 note=45 velocity=124 time=0.009000000000000001
EXTRACT: note_on channel=5 note=45 velocity=112 time=0
EXTRACT: note_on channel=8 note=57 velocity=103 time=0
EXTRACT: note_on channel=9 note=70 velocity=106 time=0
EXTRACT: note_off channel=9 note=70 velocity=65 time=0.024
EXTRACT: note_off channel=1 note=45 velocity=65 time=0
EXTRACT: note_off channel=8 note=57 velocity=64 time=0.05
EXTRACT: note_off channel=5 note=45 velocity=65 time=0.037
EXTRACT: note_off channel=2 note=45 velocity=65 time=0
EXTRACT: note_on channel=9 note=39 velocity=118 time=0.001
EXTRACT: note_on channel=1 note=33 velocity=123 time=0.008
EXTRACT: note_on channel=2 note=33 velocity=124 time=0
EXTRACT: note_on channel=5 note=45 velocity=113 time=0
EXTRACT: note_on channel=9 note=36 velocity=126 time=0
EXTRACT: note_on channel=9 note=38 velocity=117 time=0
EXTRACT: note_on channel=9 note=42 velocity=117 time=0
EXTRACT: note_on channel=9 note=70 velocity=107 time=0
EXTRACT: note_on channel=9 note=54 velocity=52 time=0.001
EXTRACT: note_off channel=9 note=39 velocity=64 time=0.016
EXTRACT: note_off channel=9 note=70 velocity=64 time=0.007
EXTRACT: note_off channel=9 note=42 velocity=65 time=0
EXTRACT: note_off channel=9 note=38 velocity=64 time=0
EXTRACT: note_off channel=9 note=36 velocity=65 time=0
EXTRACT: note_off channel=9 note=54 velocity=65 time=0.001
EXTRACT: note_off channel=5 note=45 velocity=64 time=0.08600000000000001
EXTRACT: note_off channel=2 note=33 velocity=64 time=0
EXTRACT: note_on channel=2 note=33 velocity=75 time=0.009000000000000001
EXTRACT: note_on channel=5 note=45 velocity=63 time=0
EXTRACT: note_off channel=1 note=33 velocity=64 time=0.034
EXTRACT: note_off channel=5 note=45 velocity=64 time=0.077
EXTRACT: note_off channel=2 note=33 velocity=65 time=0
EXTRACT: note_on channel=9 note=54 velocity=55 time=0.008
EXTRACT: note_on channel=1 note=45 velocity=122 time=0.001
EXTRACT: note_on channel=2 note=45 velocity=125 time=0
EXTRACT: note_on channel=5 note=45 velocity=112 time=0
EXTRACT: note_on channel=8 note=57 velocity=91 time=0
EXTRACT: note_on channel=9 note=42 velocity=116 time=0
EXTRACT: note_on channel=9 note=70 velocity=107 time=0
EXTRACT: note_off channel=9 note=70 velocity=64 time=0.024
EXTRACT: note_off channel=9 note=42 velocity=65 time=0
EXTRACT: note_off channel=9 note=54 velocity=64 time=0
EXTRACT: note_off channel=8 note=57 velocity=65 time=0.047
EXTRACT: note_off channel=5 note=45 velocity=65 time=0.04
EXTRACT: note_off channel=2 note=45 velocity=64 time=0
EXTRACT: note_on channel=2 note=45 velocity=124 time=0.009000000000000001
EXTRACT: note_on channel=5 note=45 velocity=113 time=0
EXTRACT: note_on channel=8 note=57 velocity=94 time=0
EXTRACT: note_on channel=9 note=70 velocity=106 time=0
EXTRACT: note_off channel=9 note=70 velocity=64 time=0.024
EXTRACT: note_off channel=1 note=45 velocity=64 time=0.02
EXTRACT: note_off channel=7 note=61 velocity=65 time=0.016
EXTRACT: note_off channel=7 note=57 velocity=64 time=0.008
EXTRACT: note_off channel=8 note=57 velocity=65 time=0.002
EXTRACT: note_off channel=13 note=64 velocity=64 time=0.019
EXTRACT: note_off channel=13 note=69 velocity=65 time=0.01
EXTRACT: note_off channel=5 note=45 velocity=65 time=0.012
EXTRACT: note_off channel=2 note=45 velocity=64 time=0
EXTRACT: note_off channel=4 note=61 velocity=64 time=0
EXTRACT: note_off channel=7 note=64 velocity=65 time=0.003
EXTRACT: note_on channel=1 note=26 velocity=122 time=0.006
EXTRACT: note_on channel=2 note=26 velocity=124 time=0
EXTRACT: note_on channel=4 note=62 velocity=1 time=0
EXTRACT: note_on channel=5 note=38 velocity=112 time=0
EXTRACT: note_on channel=6 note=86 velocity=55 time=0
EXTRACT: note_on channel=7 note=50 velocity=69 time=0
EXTRACT: note_on channel=7 note=57 velocity=70 time=0
EXTRACT: note_on channel=7 note=62 velocity=71 time=0
EXTRACT: note_on channel=9 note=36 velocity=126 time=0
EXTRACT: note_on channel=9 note=42 velocity=123 time=0
EXTRACT: note_on channel=9 note=70 velocity=106 time=0
EXTRACT: note_on channel=9 note=54 velocity=50 time=0.003
EXTRACT: note_on channel=13 note=62 velocity=47 time=0.002
EXTRACT: note_on channel=13 note=65 velocity=36 time=0.005
EXTRACT: note_off channel=6 note=88 velocity=64 time=0.009000000000000001
EXTRACT: note_off channel=9 note=70 velocity=65 time=0.005
EXTRACT: note_off channel=9 note=42 velocity=65 time=0
EXTRACT: note_off channel=9 note=36 velocity=64 time=0
EXTRACT: note_off channel=9 note=54 velocity=64 time=0.004
EXTRACT: note_off channel=5 note=38 velocity=64 time=0.083
EXTRACT: note_off channel=2 note=26 velocity=65 time=0
EXTRACT: note_on channel=2 note=26 velocity=75 time=0.009000000000000001
EXTRACT: note_on channel=5 note=38 velocity=62 time=0
EXTRACT: note_off channel=1 note=26 velocity=65 time=0.054
EXTRACT: note_off channel=5 note=38 velocity=64 time=0.057
EXTRACT: note_off channel=2 note=26 velocity=65 time=0
EXTRACT: note_on channel=1 note=38 velocity=123 time=0.009000000000000001
EXTRACT: note_on channel=2 note=38 velocity=124 time=0
EXTRACT: note_on channel=5 note=38 velocity=113 time=0
EXTRACT: note_on channel=8 note=50 velocity=92 time=0
EXTRACT: note_on channel=9 note=46 velocity=104 time=0
EXTRACT: note_on channel=9 note=70 velocity=107 time=0
EXTRACT: note_on channel=9 note=54 velocity=55 time=0.002
EXTRACT: note_off channel=9 note=70 velocity=65 time=0.022
EXTRACT: note_off channel=9 note=46 velocity=65 time=0
EXTRACT: note_off channel=9 note=54 velocity=64 time=0.003
EXTRACT: note_off channel=8 note=50 velocity=64 time=0.051000000000000004
EXTRACT: note_off channel=5 note=38 velocity=65 time=0.033
EXTRACT: note_off channel=2 note=38 velocity=64 time=0
EXTRACT: note_on channel=2 note=38 velocity=125 time=0.009000000000000001
EXTRACT: note_on channel=5 note=38 velocity=113 time=0
EXTRACT: note_on channel=8 note=50 velocity=101 time=0
EXTRACT: note_on channel=9 note=70 velocity=106 time=0
EXTRACT: note_off channel=9 note=70 velocity=64 time=0.024
EXTRACT: note_off channel=1 note=38 velocity=65 time=0
EXTRACT: note_off channel=8 note=50 velocity=64 time=0.041
EXTRACT: note_off channel=5 note=38 velocity=64 time=0.046
EXTRACT: note_off channel=2 note=38 velocity=64 time=0
EXTRACT: note_on channel=9 note=39 velocity=119 time=0.001
EXTRACT: note_on channel=9 note=54 velocity=59 time=0.007
EXTRACT: note_on channel=1 note=26 velocity=123 time=0.001
EXTRACT: note_on channel=2 note=26 velocity=125 time=0
EXTRACT: note_on channel=5 note=38 velocity=112 time=0
EXTRACT: note_on channel=9 note=36 velocity=127 time=0
EXTRACT: note_on channel=9 note=38 velocity=116 time=0
EXTRACT: note_on channel=9 note=42 velocity=111 time=0
EXTRACT: note_on channel=9 note=70 velocity=107 time=0
EXTRACT: note_off channel=9 note=39 velocity=65 time=0.017
EXTRACT: note_off channel=9 note=70 velocity=64 time=0.007
EXTRACT: note_off channel=9 note=42 velocity=65 time=0
EXTRACT: note_off channel=9 note=38 velocity=65 time=0
EXTRACT: note_off channel=9 note=36 velocity=64 time=0
EXTRACT: note_off channel=9 note=54 velocity=65 time=0
EXTRACT: note_off channel=5 note=38 velocity=65 time=0.08700000000000001
EXTRACT: note_off channel=2 note=26 velocity=65 time=0
EXTRACT: note_on channel=5 note=38 velocity=62 time=0.009000000000000001
EXTRACT: note_off channel=1 note=26 velocity=64 time=0.034
EXTRACT: note_off channel=3 note=81 velocity=65 time=0.06
EXTRACT: note_off channel=5 note=38 velocity=65 time=0.017
EXTRACT: note_on channel=9 note=54 velocity=50 time=0.008
EXTRACT: note_on channel=1 note=38 velocity=122 time=0.001
EXTRACT: note_on channel=2 note=38 velocity=124 time=0
EXTRACT: note_on channel=5 note=38 velocity=113 time=0
EXTRACT: note_on channel=8 note=50 velocity=92 time=0
EXTRACT: note_on channel=9 note=42 velocity=124 time=0
EXTRACT: note_on channel=9 note=70 velocity=107 time=0
EXTRACT: note_off channel=9 note=70 velocity=64 time=0.024
EXTRACT: note_off channel=9 note=42 velocity=64 time=0
EXTRACT: note_off channel=9 note=54 velocity=65 time=0
EXTRACT: note_off channel=8 note=50 velocity=65 time=0.038
EXTRACT: note_off channel=5 note=38 velocity=64 time=0.049
EXTRACT: note_off channel=2 note=38 velocity=65 time=0
EXTRACT: note_on channel=2 note=38 velocity=125 time=0.009000000000000001
EXTRACT: note_on channel=5 note=38 velocity=113 time=0
EXTRACT: note_on channel=8 note=50 velocity=89 time=0
EXTRACT: note_on channel=9 note=44 velocity=99 time=0
EXTRACT: note_on channel=9 note=70 velocity=106 time=0
EXTRACT: note_off channel=9 note=70 velocity=65 time=0.024
EXTRACT: note_off channel=9 note=44 velocity=64 time=0
EXTRACT: note_off channel=1 note=38 velocity=64 time=0.02
EXTRACT: note_off channel=8 note=50 velocity=64 time=0.035
EXTRACT: note_off channel=5 note=38 velocity=65 time=0.032
EXTRACT: note_off channel=2 note=38 velocity=64 time=0
EXTRACT: note_on channel=9 note=54 velocity=53 time=0.008
EXTRACT: note_on channel=1 note=26 velocity=122 time=0.001
EXTRACT: note_on channel=2 note=26 velocity=124 time=0
EXTRACT: note_on channel=5 note=38 velocity=112 time=0
EXTRACT: note_on channel=9 note=36 velocity=127 time=0
EXTRACT: note_on channel=9 note=42 velocity=125 time=0
EXTRACT: note_on channel=9 note=70 velocity=107 time=0
EXTRACT: note_off channel=9 note=54 velocity=64 time=0.023
EXTRACT: note_off channel=9 note=70 velocity=65 time=0.001
EXTRACT: note_off channel=9 note=42 velocity=65 time=0
EXTRACT: note_off channel=9 note=36 velocity=64 time=0
EXTRACT: note_off channel=5 note=38 velocity=64 time=0.08700000000000001
EXTRACT: note_off channel=2 note=26 velocity=64 time=0
EXTRACT: note_on channel=2 note=26 velocity=74 time=0.009000000000000001
EXTRACT: note_on channel=5 note=38 velocity=62 time=0
EXTRACT: note_off channel=1 note=26 velocity=65 time=0.054
EXTRACT: note_off channel=5 note=38 velocity=64 time=0.057
EXTRACT: note_off channel=2 note=26 velocity=65 time=0
EXTRACT: note_on channel=1 note=38 velocity=123 time=0.009000000000000001
EXTRACT: note_on channel=2 note=38 velocity=125 time=0
EXTRACT: note_on channel=5 note=38 velocity=113 time=0
EXTRACT: note_on channel=8 note=50 velocity=93 time=0
EXTRACT: note_on channel=9 note=46 velocity=111 time=0
EXTRACT: note_on channel=9 note=70 velocity=106 time=0
EXTRACT: note_on channel=9 note=54 velocity=50 time=0.002
EXTRACT: note_off channel=9 note=70 velocity=64 time=0.022
EXTRACT: note_off channel=9 note=46 velocity=65 time=0
EXTRACT: note_off channel=9 note=54 velocity=64 time=0.002
EXTRACT: note_off channel=8 note=50 velocity=65 time=0.04
EXTRACT: note_off channel=5 note=38 velocity=65 time=0.045
EXTRACT: note_off channel=2 note=38 velocity=64 time=0
EXTRACT: note_on channel=2 note=38 velocity=125 time=0.009000000000000001
EXTRACT: note_on channel=5 note=38 velocity=112 time=0
EXTRACT: note_on channel=8 note=50 velocity=106 time=0
EXTRACT: note_on channel=9 note=70 velocity=106 time=0
EXTRACT: note_off channel=9 note=70 velocity=65 time=0.024
EXTRACT: note_off channel=1 note=38 velocity=64 time=0
EXTRACT: note_off channel=8 note=50 velocity=65 time=0.063
EXTRACT: note_off channel=5 note=38 velocity=65 time=0.024
EXTRACT: note_off channel=2 note=38 velocity=65 time=0
EXTRACT: note_on channel=9 note=39 velocity=119 time=0.001
EXTRACT: note_on channel=1 note=26 velocity=122 time=0.008
EXTRACT: note_on channel=2 note=26 velocity=124 time=0
EXTRACT: note_on channel=5 note=38 velocity=113 time=0
EXTRACT: note_on channel=9 note=36 velocity=126 time=0
EXTRACT: note_on channel=9 note=38 velocity=117 time=0
EXTRACT: note_on channel=9 note=42 velocity=112 time=0
EXTRACT: note_on channel=9 note=70 velocity=107 time=0
EXTRACT: note_on channel=9 note=54 velocity=52 time=0.004
EXTRACT: note_off channel=9 note=39 velocity=65 time=0.013000000000000001
EXTRACT: note_off channel=9 note=70 velocity=64 time=0.007
EXTRACT: note_off channel=9 note=42 velocity=65 time=0
EXTRACT: note_off channel=9 note=38 velocity=64 time=0
EXTRACT: note_off channel=9 note=36 velocity=64 time=0
EXTRACT: note_off channel=9 note=54 velocity=65 time=0.004
EXTRACT: note_off channel=5 note=38 velocity=64 time=0.083
EXTRACT: note_off channel=2 note=26 velocity=65 time=0
EXTRACT: note_on channel=2 note=26 velocity=74 time=0.009000000000000001
EXTRACT: note_on channel=5 note=38 velocity=63 time=0
EXTRACT: note_off channel=1 note=26 velocity=65 time=0.034
EXTRACT: note_on channel=12 note=71 velocity=121 time=0.026000000000000002
EXTRACT: note_off channel=5 note=38 velocity=64 time=0.051000000000000004
EXTRACT: note_off channel=2 note=26 velocity=64 time=0
EXTRACT: note_on channel=1 note=38 velocity=123 time=0.009000000000000001
EXTRACT: note_on channel=2 note=38 velocity=125 time=0
EXTRACT: note_on channel=5 note=38 velocity=112 time=0
EXTRACT: note_on channel=8 note=50 velocity=95 time=0
EXTRACT: note_on channel=9 note=42 velocity=108 time=0
EXTRACT: note_on channel=9 note=55 velocity=119 time=0
EXTRACT: note_on channel=9 note=70 velocity=107 time=0
EXTRACT: note_on channel=9 note=54 velocity=53 time=0.003
EXTRACT: note_off channel=9 note=70 velocity=65 time=0.021
EXTRACT: note_off channel=9 note=55 velocity=64 time=0
EXTRACT: note_off channel=9 note=42 velocity=64 time=0
EXTRACT: note_off channel=9 note=54 velocity=65 time=0.004
EXTRACT: note_off channel=8 note=50 velocity=64 time=0.046
EXTRACT: note_off channel=5 note=38 velocity=65 time=0.037
EXTRACT: note_off channel=2 note=38 velocity=65 time=0
EXTRACT: note_on channel=2 note=38 velocity=125 time=0.009000000000000001
EXTRACT: note_on channel=5 note=38 velocity=113 time=0
EXTRACT: note_on channel=8 note=50 velocity=102 time=0
EXTRACT: note_on channel=9 note=44 velocity=98 time=0
EXTRACT: note_on channel=9 note=70 velocity=106 time=0
EXTRACT: note_off channel=9 note=70 velocity=65 time=0.024
EXTRACT: note_off channel=9 note=44 velocity=64 time=0
EXTRACT: note_off channel=1 note=38 velocity=65 time=0.02
EXTRACT: note_off channel=7 note=62 velocity=65 time=0.016
EXTRACT: note_off channel=7 note=57 velocity=64 time=0
EXTRACT: note_off channel=7 note=50 velocity=65 time=0.008
EXTRACT: note_off channel=8 note=50 velocity=65 time=0.011
EXTRACT: note_off channel=13 note=62 velocity=65 time=0.019
EXTRACT: note_off channel=13 note=65 velocity=64 time=0.005
EXTRACT: note_off channel=5 note=38 velocity=65 time=0.008
EXTRACT: note_off channel=2 note=38 velocity=64 time=0
EXTRACT: note_off channel=12 note=71 velocity=65 time=0.003
EXTRACT: note_off channel=6 note=86 velocity=64 time=0
EXTRACT: note_on channel=1 note=34 velocity=123 time=0.006
EXTRACT: note_on channel=2 note=34 velocity=124 time=0
EXTRACT: note_on channel=5 note=46 velocity=112 time=0
EXTRACT: note_on channel=6 note=86 velocity=72 time=0
EXTRACT: note_on channel=7 note=58 velocity=68 time=0
EXTRACT: note_on channel=7 note=65 velocity=64 time=0
EXTRACT: note_on channel=9 note=42 velocity=113 time=0
EXTRACT: note_on channel=9 note=36 velocity=126 time=0
EXTRACT: note_on channel=9 note=70 velocity=106 time=0
EXTRACT: note_on channel=9 note=54 velocity=71 time=0
EXTRACT: note_on channel=7 note=62 velocity=69 time=0.002
EXTRACT: note_off channel=9 note=70 velocity=64 time=0.022
EXTRACT: note_off channel=9 note=36 velocity=65 time=0
EXTRACT: note_off channel=9 note=42 velocity=64 time=0
EXTRACT: note_off channel=9 note=54 velocity=65 time=0.001
EXTRACT: note_on channel=13 note=62 velocity=38 time=0.02
EXTRACT: note_on channel=13 note=65 velocity=43 time=0.007
EXTRACT: note_off channel=5 note=46 velocity=64 time=0.059000000000000004
EXTRACT: note_off channel=2 note=34 velocity=64 time=0
EXTRACT: note_off channel=4 note=62 velocity=64 time=0.003
EXTRACT: note_on channel=2 note=34 velocity=74 time=0.006
EXTRACT: note_on channel=5 note=46 velocity=62 time=0
EXTRACT: note_off channel=1 note=34 velocity=64 time=0.054
EXTRACT: note_off channel=5 note=46 velocity=64 time=0.057
EXTRACT: note_off channel=2 note=34 velocity=65 time=0
EXTRACT: note_on channel=1 note=46 velocity=122 time=0.009000000000000001
EXTRACT: note_on channel=2 note=46 velocity=125 time=0
EXTRACT: note_on channel=5 note=46 velocity=113 time=0
EXTRACT: note_on channel=8 note=58 velocity=100 time=0
EXTRACT: note_on channel=9 note=46 velocity=113 time=0
EXTRACT: note_on channel=9 note=70 velocity=107 time=0
EXTRACT: note_on channel=9 note=54 velocity=56 time=0.003
EXTRACT: note_off channel=9 note=70 velocity=65 time=0.021
EXTRACT: note_off channel=9 note=46 velocity=64 time=0
EXTRACT: note_off channel=9 note=54 velocity=65 time=0.004
EXTRACT: note_off channel=8 note=58 velocity=64 time=0.031
EXTRACT: note_off channel=5 note=46 velocity=65 time=0.052000000000000005
EXTRACT: note_off channel=2 note=46 velocity=65 time=0
EXTRACT: note_on channel=2 note=46 velocity=124 time=0.009000000000000001
EXTRACT: note_on channel=5 note=46 velocity=113 time=0
EXTRACT: note_on channel=8 note=58 velocity=79 time=0
EXTRACT: note_on channel=9 note=70 velocity=107 time=0
EXTRACT: note_off channel=9 note=70 velocity=64 time=0.024
EXTRACT: note_off channel=1 note=46 velocity=65 time=0
EXTRACT: note_off channel=8 note=58 velocity=64 time=0.042
EXTRACT: note_off channel=5 note=46 velocity=64 time=0.045
EXTRACT: note_off channel=2 note=46 velocity=64 time=0
EXTRACT: note_on channel=9 note=39 velocity=118 time=0.001
EXTRACT: note_on channel=1 note=34 velocity=123 time=0.008
EXTRACT: note_on channel=2 note=34 velocity=125 time=0
EXTRACT: note_on channel=4 note=62 velocity=1 time=0
EXTRACT: note_on channel=5 note=46 velocity=112 time=0
EXTRACT: note_on channel=9 note=36 velocity=127 time=0
EXTRACT: note_on channel=9 note=38 velocity=116 time=0
EXTRACT: note_on channel=9 note=42 velocity=119 time=0
EXTRACT: note_on channel=9 note=70 velocity=106 time=0
EXTRACT: note_on channel=9 note=54 velocity=62 time=0.003
EXTRACT: note_on channel=3 note=82 velocity=117 time=0
EXTRACT: note_off channel=9 note=39 velocity=64 time=0.002
EXTRACT: note_off channel=9 note=70 velocity=65 time=0.007
EXTRACT: note_off channel=9 note=42 velocity=65 time=0
EXTRACT: note_off channel=9 note=38 velocity=64 time=0
EXTRACT: note_off channel=9 note=36 velocity=64 time=0
EXTRACT: note_off channel=9 note=54 velocity=65 time=0.004
EXTRACT: note_off channel=5 note=46 velocity=65 time=0.066
EXTRACT: note_off channel=2 note=34 velocity=64 time=0
EXTRACT: note_on channel=2 note=34 velocity=75 time=0.009000000000000001
EXTRACT: note_on channel=5 note=46 velocity=62 time=0
EXTRACT: note_off channel=1 note=34 velocity=64 time=0.034
EXTRACT: note_off channel=5 note=46 velocity=65 time=0.077
EXTRACT: note_off channel=2 note=34 velocity=65 time=0
EXTRACT: note_on channel=1 note=46 velocity=122 time=0.009000000000000001
EXTRACT: note_on channel=2 note=46 velocity=124 time=0
EXTRACT: note_on channel=5 note=46 velocity=113 time=0
EXTRACT: note_on channel=8 note=58 velocity=103 time=0
EXTRACT: note_on channel=9 note=42 velocity=116 time=0
EXTRACT: note_on channel=9 note=70 velocity=106 time=0
EXTRACT: note_on channel=9 note=54 velocity=57 time=0.004
EXTRACT: note_off channel=9 note=70 velocity=65 time=0.02
EXTRACT: note_off channel=9 note=42 velocity=64 time=0
EXTRACT: note_off channel=9 note=54 velocity=64 time=0.005
EXTRACT: note_off channel=8 note=58 velocity=65 time=0.026000000000000002
EXTRACT: note_off channel=3 note=82 velocity=65 time=0.034
EXTRACT: note_off channel=5 note=46 velocity=64 time=0.022
EXTRACT: note_off channel=2 note=46 velocity=65 time=0
EXTRACT: note_on channel=2 note=46 velocity=125 time=0.009000000000000001
EXTRACT: note_on channel=5 note=46 velocity=113 time=0
EXTRACT: note_on channel=8 note=58 velocity=92 time=0
EXTRACT: note_on channel=9 note=44 velocity=98 time=0
EXTRACT: note_on channel=9 note=70 velocity=107 time=0
EXTRACT: note_off channel=9 note=70 velocity=65 time=0.024
EXTRACT: note_off channel=9 note=44 velocity=64 time=0
EXTRACT: note_off channel=1 note=46 velocity=64 time=0.02
EXTRACT: note_off channel=8 note=58 velocity=65 time=0.014
EXTRACT: note_off channel=5 note=46 velocity=65 time=0.053
EXTRACT: note_off channel=2 note=46 velocity=64 time=0
EXTRACT: note_off channel=4 note=62 velocity=65 time=0
EXTRACT: note_on channel=1 note=34 velocity=122 time=0.009000000000000001
EXTRACT: note_on channel=2 note=34 velocity=124 time=0
EXTRACT: note_on channel=4 note=62 velocity=1 time=0
EXTRACT: note_on channel=5 note=46 velocity=112 time=0
EXTRACT: note_on channel=9 note=36 velocity=126 time=0
EXTRACT: note_on channel=9 note=42 velocity=124 time=0
EXTRACT: note_on channel=9 note=70 velocity=106 time=0
EXTRACT: note_on channel=9 note=54 velocity=59 time=0.005
EXTRACT: note_on channel=3 note=82 velocity=116 time=0
EXTRACT: note_off channel=9 note=70 velocity=65 time=0.001
EXTRACT: note_off channel=9 note=42 velocity=65 time=0
EXTRACT: note_off channel=9 note=36 velocity=64 time=0
EXTRACT: note_off channel=9 note=54 velocity=65 time=0.006
EXTRACT: note_off channel=5 note=46 velocity=64 time=0.081
EXTRACT: note_off channel=2 note=34 velocity=64 time=0
EXTRACT: note_on channel=2 note=34 velocity=74 time=0.009000000000000001
EXTRACT: note_on channel=5 note=46 velocity=62 time=0
EXTRACT: note_off channel=1 note=34 velocity=65 time=0.054
EXTRACT: note_off channel=5 note=46 velocity=64 time=0.057
EXTRACT: note_off channel=2 note=34 velocity=65 time=0
EXTRACT: note_on channel=1 note=46 velocity=123 time=0.009000000000000001
EXTRACT: note_on channel=2 note=46 velocity=125 time=0
EXTRACT: note_on channel=5 note=46 velocity=113 time=0
EXTRACT: note_on channel=8 note=58 velocity=102 time=0
EXTRACT: note_on channel=9 note=46 velocity=110 time=0
EXTRACT: note_on channel=9 note=70 velocity=107 time=0
EXTRACT: note_on channel=9 note=54 velocity=56 time=0.003
EXTRACT: note_off channel=9 note=70 velocity=64 time=0.021
EXTRACT: note_off channel=9 note=46 velocity=64 time=0
EXTRACT: note_off channel=9 note=54 velocity=65 time=0.004
EXTRACT: note_off channel=8 note=58 velocity=64 time=0.03
EXTRACT: note_off channel=5 note=46 velocity=65 time=0.053
EXTRACT: note_off channel=2 note=46 velocity=64 time=0
EXTRACT: note_on channel=2 note=46 velocity=125 time=0.009000000000000001
EXTRACT: note_on channel=5 note=46 velocity=112 time=0
EXTRACT: note_on channel=8 note=58 velocity=101 time=0
EXTRACT: note_on channel=9 note=70 velocity=107 time=0
EXTRACT: note_off channel=9 note=70 velocity=65 time=0.024
EXTRACT: note_off channel=1 note=46 velocity=65 time=0
EXTRACT: note_off channel=8 note=58 velocity=64 time=0.031
EXTRACT: note_off channel=3 note=82 velocity=64 time=0.007
EXTRACT: note_off channel=5 note=46 velocity=65 time=0.049
EXTRACT: note_off channel=2 note=46 velocity=65 time=0
EXTRACT: note_off channel=4 note=62 velocity=64 time=0
EXTRACT: note_on channel=9 note=39 velocity=118 time=0.001
EXTRACT: note_on channel=1 note=34 velocity=123 time=0.008
EXTRACT: note_on channel=2 note=34 velocity=124 time=0
EXTRACT: note_on channel=4 note=62 velocity=1 time=0
EXTRACT: note_on channel=5 note=46 velocity=113 time=0
EXTRACT: note_on channel=9 note=36 velocity=127 time=0
EXTRACT: note_on channel=9 note=38 velocity=116 time=0
EXTRACT: note_on channel=9 note=42 velocity=99 time=0
EXTRACT: note_on channel=9 note=70 velocity=106 time=0
EXTRACT: note_on channel=9 note=54 velocity=56 time=0.005
EXTRACT: note_off channel=9 note=39 velocity=64 time=0.012
EXTRACT: note_off channel=9 note=70 velocity=64 time=0.007
EXTRACT: note_off channel=9 note=42 velocity=65 time=0
EXTRACT: note_off channel=9 note=38 velocity=65 time=0
EXTRACT: note_off channel=9 note=36 velocity=64 time=0
EXTRACT: note_off channel=9 note=54 velocity=64 time=0.006
EXTRACT: note_on channel=3 note=82 velocity=117 time=0
EXTRACT: note_off channel=5 note=46 velocity=64 time=0.073
EXTRACT: note_off channel=2 note=34 velocity=65 time=0
EXTRACT: note_on channel=2 note=34 velocity=74 time=0.009000000000000001
EXTRACT: note_on channel=5 note=46 velocity=63 time=0
EXTRACT: note_off channel=1 note=34 velocity=64 time=0.034
EXTRACT: note_off channel=5 note=46 velocity=64 time=0.077
EXTRACT: note_off channel=2 note=34 velocity=64 time=0
EXTRACT: note_on channel=1 note=46 velocity=122 time=0.009000000000000001
EXTRACT: note_on channel=2 note=46 velocity=125 time=0
EXTRACT: note_on channel=5 note=46 velocity=112 time=0
EXTRACT: note_on channel=8 note=58 velocity=105 time=0
EXTRACT: note_on channel=9 note=42 velocity=115 time=0
EXTRACT: note_on channel=9 note=70 velocity=107 time=0
EXTRACT: note_on channel=9 note=54 velocity=57 time=0.005
EXTRACT: note_off channel=9 note=70 velocity=65 time=0.019
EXTRACT: note_off channel=9 note=42 velocity=64 time=0
EXTRACT: note_off channel=9 note=54 velocity=65 time=0.006
EXTRACT: note_off channel=8 note=58 velocity=65 time=0.033
EXTRACT: note_off channel=5 note=46 velocity=65 time=0.048
EXTRACT: note_off channel=2 note=46 velocity=65 time=0
EXTRACT: note_on channel=2 note=46 velocity=125 time=0.009000000000000001
EXTRACT: note_on channel=5 note=46 velocity=113 time=0
EXTRACT: note_on channel=8 note=58 velocity=102 time=0
EXTRACT: note_on channel=9 note=44 velocity=99 time=0
EXTRACT: note_on channel=9 note=70 velocity=106 time=0
EXTRACT: note_off channel=9 note=70 velocity=65 time=0.024
EXTRACT: note_off channel=9 note=44 velocity=64 time=0
EXTRACT: note_off channel=1 note=46 velocity=64 time=0.02
EXTRACT: note_off channel=3 note=82 velocity=65 time=0.007
EXTRACT: note_off channel=8 note=58 velocity=65 time=0.017
EXTRACT: note_off channel=7 note=58 velocity=64 time=0.036000000000000004
EXTRACT: note_off channel=5 note=46 velocity=65 time=0.007
EXTRACT: note_off channel=2 note=46 velocity=64 time=0
EXTRACT: note_off channel=4 note=62 velocity=65 time=0
EXTRACT: note_off channel=7 note=65 velocity=64 time=0.001
EXTRACT: note_off channel=7 note=62 velocity=65 time=0.002
EXTRACT: note_on channel=1 note=29 velocity=122 time=0.006
EXTRACT: note_on channel=2 note=29 velocity=124 time=0
EXTRACT: note_on channel=4 note=60 velocity=1 time=0
EXTRACT: note_on channel=5 note=41 velocity=112 time=0
EXTRACT: note_on channel=7 note=65 velocity=63 time=0
EXTRACT: note_on channel=9 note=36 velocity=127 time=0
EXTRACT: note_on channel=9 note=42 velocity=122 time=0
EXTRACT: note_on channel=9 note=70 velocity=106 time=0
EXTRACT: note_off channel=6 note=86 velocity=65 time=0
EXTRACT: note_on channel=6 note=84 velocity=62 time=0.001
EXTRACT: note_on channel=3 note=81 velocity=116 time=0
EXTRACT: note_on channel=7 note=57 velocity=64 time=0.002
EXTRACT: note_on channel=7 note=60 velocity=68 time=0.002
EXTRACT: note_on channel=9 note=54 velocity=58 time=0.001
EXTRACT: note_off channel=9 note=70 velocity=65 time=0.017
EXTRACT: note_off channel=9 note=42 velocity=64 time=0
EXTRACT: note_off channel=9 note=36 velocity=64 time=0
EXTRACT: note_off channel=13 note=62 velocity=64 time=0
EXTRACT: note_off channel=9 note=54 velocity=65 time=0
EXTRACT: note_on channel=13 note=60 velocity=45 time=0.018000000000000002
EXTRACT: note_off channel=5 note=41 velocity=64 time=0.049
EXTRACT: note_off channel=2 note=29 velocity=64 time=0
EXTRACT: note_on channel=2 note=29 velocity=74 time=0.009000000000000001
EXTRACT: note_on channel=5 note=41 velocity=62 time=0
EXTRACT: note_off channel=1 note=29 velocity=65 time=0.054
EXTRACT: note_off channel=5 note=41 velocity=64 time=0.057
EXTRACT: note_off channel=2 note=29 velocity=65 time=0
EXTRACT: note_on channel=1 note=41 velocity=123 time=0.009000000000000001
EXTRACT: note_on channel=2 note=41 velocity=125 time=0
EXTRACT: note_on channel=5 note=41 velocity=113 time=0
EXTRACT: note_on channel=8 note=53 velocity=100 time=0
EXTRACT: note_on channel=9 note=46 velocity=104 time=0
EXTRACT: note_on channel=9 note=70 velocity=107 time=0
EXTRACT: note_on channel=9 note=54 velocity=55 time=0.004
EXTRACT: note_off channel=9 note=70 velocity=65 time=0.02
EXTRACT: note_off channel=9 note=46 velocity=64 time=0
EXTRACT: note_off channel=9 note=54 velocity=64 time=0.005
EXTRACT: note_off channel=8 note=53 velocity=64 time=0.03
EXTRACT: note_off channel=5 note=41 velocity=65 time=0.052000000000000005
EXTRACT: note_off channel=2 note=41 velocity=65 time=0
EXTRACT: note_on channel=2 note=41 velocity=124 time=0.009000000000000001
EXTRACT: note_on channel=5 note=41 velocity=113 time=0
EXTRACT: note_on channel=8 note=53 velocity=79 time=0
EXTRACT: note_on channel=9 note=70 velocity=107 time=0
EXTRACT: note_off channel=9 note=70 velocity=65 time=0.024
EXTRACT: note_off channel=1 note=41 velocity=65 time=0
EXTRACT: note_off channel=8 note=53 velocity=64 time=0.042
EXTRACT: note_off channel=5 note=41 velocity=64 time=0.045
EXTRACT: note_off channel=2 note=41 velocity=64 time=0
EXTRACT: note_on channel=9 note=39 velocity=119 time=0.001
EXTRACT: note_on channel=1 note=29 velocity=123 time=0.008
EXTRACT: note_on channel=2 note=29 velocity=125 time=0
EXTRACT: note_on channel=5 note=41 velocity=112 time=0
EXTRACT: note_on channel=9 note=36 velocity=126 time=0
EXTRACT: note_on channel=9 note=38 velocity=117 time=0
EXTRACT: note_on channel=9 note=42 velocity=110 time=0
EXTRACT: note_on channel=9 note=70 velocity=106 time=0
EXTRACT: note_on channel=9 note=54 velocity=57 time=0.002
EXTRACT: note_off channel=9 note=39 velocity=65 time=0.015
EXTRACT: note_off channel=9 note=70 velocity=64 time=0.007
EXTRACT: note_off channel=9 note=42 velocity=64 time=0
EXTRACT: note_off channel=9 note=38 velocity=65 time=0
EXTRACT: note_off channel=9 note=36 velocity=64 time=0
EXTRACT: note_off channel=9 note=54 velocity=65 time=0.003
EXTRACT: note_off channel=5 note=41 velocity=65 time=0.084
EXTRACT: note_off channel=2 note=29 velocity=64 time=0
EXTRACT: note_on channel=2 note=29 velocity=75 time=0.009000000000000001
EXTRACT: note_on channel=5 note=41 velocity=62 time=0
EXTRACT: note_off channel=1 note=29 velocity=64 time=0.034
EXTRACT: note_off channel=5 note=41 velocity=65 time=0.077
EXTRACT: note_off channel=2 note=29 velocity=65 time=0
EXTRACT: note_off channel=3 note=81 velocity=64 time=0.003
EXTRACT: note_on channel=1 note=41 velocity=122 time=0.006
EXTRACT: note_on channel=2 note=41 velocity=124 time=0
EXTRACT: note_on channel=5 note=41 velocity=113 time=0
EXTRACT: note_on channel=8 note=53 velocity=102 time=0
EXTRACT: note_on channel=9 note=42 velocity=125 time=0
EXTRACT: note_on channel=9 note=70 velocity=106 time=0
EXTRACT: note_on channel=9 note=54 velocity=52 time=0.002
EXTRACT: note_off channel=9 note=70 velocity=65 time=0.022
EXTRACT: note_off channel=9 note=42 velocity=64 time=0
EXTRACT: note_off channel=9 note=54 velocity=65 time=0.003
EXTRACT: note_off channel=8 note=53 velocity=65 time=0.028
EXTRACT: note_off channel=5 note=41 velocity=64 time=0.056
EXTRACT: note_off channel=2 note=41 velocity=65 time=0
EXTRACT: note_on channel=2 note=41 velocity=125 time=0.009000000000000001
EXTRACT: note_on channel=5 note=41 velocity=113 time=0
EXTRACT: note_on channel=8 note=53 velocity=93 time=0
EXTRACT: note_on channel=9 note=44 velocity=99 time=0
EXTRACT: note_on channel=9 note=70 velocity=107 time=0
EXTRACT: note_off channel=9 note=70 velocity=64 time=0.024
EXTRACT: note_off channel=9 note=44 velocity=64 time=0
EXTRACT: note_off channel=1 note=41 velocity=64 time=0.02
EXTRACT: note_off channel=8 note=53 velocity=64 time=0.014
EXTRACT: note_off channel=5 note=41 velocity=65 time=0.053
EXTRACT: note_off channel=2 note=41 velocity=64 time=0
EXTRACT: note_on channel=1 note=29 velocity=122 time=0.009000000000000001
EXTRACT: note_on channel=2 note=29 velocity=124 time=0
EXTRACT: note_on channel=5 note=41 velocity=112 time=0
EXTRACT: note_on channel=9 note=36 velocity=127 time=0
EXTRACT: note_on channel=9 note=42 velocity=124 time=0
EXTRACT: note_on channel=9 note=70 velocity=107 time=0
EXTRACT: note_on channel=9 note=54 velocity=55 time=0.004
EXTRACT: note_off channel=9 note=70 velocity=65 time=0.02
EXTRACT: note_off channel=9 note=42 velocity=65 time=0
EXTRACT: note_off channel=9 note=36 velocity=64 time=0
EXTRACT: note_off channel=9 note=54 velocity=64 time=0.005
EXTRACT: note_off channel=5 note=41 velocity=64 time=0.082
EXTRACT: note_off channel=2 note=29 velocity=64 time=0
EXTRACT: note_on channel=2 note=29 velocity=74 time=0.009000000000000001
EXTRACT: note_on channel=5 note=41 velocity=62 time=0
EXTRACT: note_off channel=1 note=29 velocity=65 time=0.054
EXTRACT: note_off channel=5 note=41 velocity=64 time=0.057
EXTRACT: note_off channel=2 note=29 velocity=65 time=0
EXTRACT: note_off channel=4 note=60 velocity=65 time=0
EXTRACT: note_on channel=1 note=41 velocity=123 time=0.009000000000000001
EXTRACT: note_on channel=2 note=41 velocity=125 time=0
EXTRACT: note_on channel=4 note=58 velocity=1 time=0
EXTRACT: note_on channel=5 note=41 velocity=113 time=0
EXTRACT: note_on channel=8 note=53 velocity=103 time=0
EXTRACT: note_on channel=9 note=46 velocity=111 time=0
EXTRACT: note_on channel=9 note=70 velocity=106 time=0
EXTRACT: note_on channel=9 note=54 velocity=52 time=0.004
EXTRACT: note_on channel=3 note=79 velocity=116 time=0
EXTRACT: note_off channel=9 note=70 velocity=65 time=0.014
EXTRACT: note_off channel=9 note=46 velocity=65 time=0
EXTRACT: note_off channel=9 note=54 velocity=64 time=0.005
EXTRACT: note_off channel=8 note=53 velocity=65 time=0.029
EXTRACT: note_off channel=5 note=41 velocity=65 time=0.053
EXTRACT: note_off channel=2 note=41 velocity=64 time=0
EXTRACT: note_on channel=2 note=41 velocity=125 time=0.009000000000000001
EXTRACT: note_on channel=5 note=41 velocity=112 time=0
EXTRACT: note_on channel=8 note=53 velocity=100 time=0
EXTRACT: note_on channel=9 note=70 velocity=106 time=0
EXTRACT: note_off channel=9 note=70 velocity=64 time=0.024
EXTRACT: note_off channel=1 note=41 velocity=64 time=0
EXTRACT: note_off channel=8 note=53 velocity=65 time=0.031
EXTRACT: note_off channel=3 note=79 velocity=64 time=0.039
EXTRACT: note_off channel=5 note=41 velocity=65 time=0.017
EXTRACT: note_off channel=2 note=41 velocity=65 time=0
EXTRACT: note_off channel=4 note=58 velocity=64 time=0
EXTRACT: note_on channel=9 note=39 velocity=118 time=0.001
EXTRACT: note_on channel=1 note=29 velocity=122 time=0.008
EXTRACT: note_on channel=2 note=29 velocity=124 time=0
EXTRACT: note_on channel=4 note=57 velocity=1 time=0
EXTRACT: note_on channel=5 note=41 velocity=113 time=0
EXTRACT: note_on channel=9 note=36 velocity=126 time=0
EXTRACT: note_on channel=9 note=38 velocity=117 time=0
EXTRACT: note_on channel=9 note=42 velocity=113 time=0
EXTRACT: note_on channel=9 note=70 velocity=107 time=0
EXTRACT: note_on channel=9 note=54 velocity=56 time=0.003
EXTRACT: note_on channel=3 note=77 velocity=117 time=0
EXTRACT: note_off channel=9 note=39 velocity=65 time=0.01
EXTRACT: note_off channel=9 note=70 velocity=64 time=0.007
EXTRACT: note_off channel=9 note=42 velocity=65 time=0
EXTRACT: note_off channel=9 note=38 velocity=65 time=0
EXTRACT: note_off channel=9 note=36 velocity=64 time=0
EXTRACT: note_off channel=9 note=54 velocity=65 time=0.004
EXTRACT: note_off channel=5 note=41 velocity=64 time=0.074
EXTRACT: note_off channel=2 note=29 velocity=65 time=0
EXTRACT: note_on channel=2 note=29 velocity=74 time=0.009000000000000001
EXTRACT: note_on channel=5 note=41 velocity=63 time=0
EXTRACT: note_off channel=1 note=29 velocity=65 time=0.034
EXTRACT: note_off channel=3 note=77 velocity=65 time=0.011
EXTRACT: note_on channel=12 note=71 velocity=120 time=0.015
EXTRACT: note_off channel=5 note=41 velocity=64 time=0.051000000000000004
EXTRACT: note_off channel=2 note=29 velocity=64 time=0
EXTRACT: note_off channel=4 note=57 velocity=65 time=0
EXTRACT: note_on channel=3 note=79 velocity=117 time=0
EXTRACT: note_on channel=1 note=41 velocity=123 time=0.007
EXTRACT: note_on channel=2 note=41 velocity=125 time=0
EXTRACT: note_on channel=4 note=61 velocity=1 time=0
EXTRACT: note_on channel=5 note=41 velocity=112 time=0
EXTRACT: note_on channel=8 note=53 velocity=105 time=0
EXTRACT: note_on channel=9 note=42 velocity=109 time=0
EXTRACT: note_on channel=9 note=70 velocity=106 time=0
EXTRACT: note_on channel=9 note=54 velocity=55 time=0.006
EXTRACT: note_off channel=9 note=70 velocity=64 time=0.018000000000000002
EXTRACT: note_off channel=9 note=42 velocity=64 time=0
EXTRACT: note_off channel=9 note=54 velocity=65 time=0.006
EXTRACT: pitchwheel channel=3 pitch=1699 time=0.015
EXTRACT: pitchwheel channel=3 pitch=3520 time=0.014
EXTRACT: note_off channel=8 note=53 velocity=64 time=0.004
EXTRACT: pitchwheel channel=3 pitch=5460 time=0.01
EXTRACT: pitchwheel channel=3 pitch=8025 time=0.014
EXTRACT: pitchwheel channel=3 pitch=8191 time=0.015
EXTRACT: note_off channel=5 note=41 velocity=65 time=0.009000000000000001
EXTRACT: note_off channel=2 note=41 velocity=65 time=0
EXTRACT: note_on channel=2 note=41 velocity=125 time=0.009000000000000001
EXTRACT: note_on channel=5 note=41 velocity=113 time=0
EXTRACT: note_on channel=8 note=53 velocity=102 time=0
EXTRACT: note_on channel=9 note=44 velocity=98 time=0
EXTRACT: note_on channel=9 note=70 velocity=107 time=0
EXTRACT: note_off channel=9 note=70 velocity=65 time=0.024
EXTRACT: note_off channel=9 note=44 velocity=64 time=0
EXTRACT: note_off channel=1 note=41 velocity=65 time=0.02
EXTRACT: note_off channel=8 note=53 velocity=65 time=0.024
EXTRACT: control_change channel=9 control=91 value=20 time=0.022
EXTRACT: note_on channel=6 note=88 velocity=51 time=0.016
EXTRACT: note_off channel=5 note=41 velocity=65 time=0.005
EXTRACT: note_off channel=2 note=41 velocity=64 time=0
EXTRACT: note_off channel=12 note=71 velocity=64 time=0.003
EXTRACT: note_on channel=1 note=33 velocity=123 time=0.006
EXTRACT: note_on channel=2 note=33 velocity=124 time=0
EXTRACT: note_on channel=5 note=45 velocity=112 time=0
EXTRACT: note_on channel=7 note=64 velocity=61 time=0
EXTRACT: note_on channel=9 note=36 velocity=126 time=0
EXTRACT: note_on channel=9 note=42 velocity=124 time=0
EXTRACT: note_on channel=9 note=70 velocity=107 time=0
EXTRACT: note_on channel=7 note=55 velocity=59 time=0.002
EXTRACT: note_on channel=9 note=54 velocity=59 time=0.002
EXTRACT: note_on channel=7 note=61 velocity=66 time=0.001
EXTRACT: note_off channel=6 note=84 velocity=65 time=0.005
EXTRACT: note_off channel=7 note=57 velocity=65 time=0.004
EXTRACT: note_off channel=9 note=70 velocity=64 time=0.01
EXTRACT: note_off channel=9 note=42 velocity=65 time=0
EXTRACT: note_off channel=9 note=36 velocity=65 time=0
EXTRACT: note_off channel=13 note=65 velocity=65 time=0
EXTRACT: note_off channel=9 note=54 velocity=64 time=0.005
EXTRACT: note_off channel=7 note=65 velocity=64 time=0.002
EXTRACT: note_off channel=7 note=60 velocity=64 time=0.001
EXTRACT: note_off channel=13 note=60 velocity=65 time=0.002
EXTRACT: note_on channel=13 note=64 velocity=42 time=0.006
EXTRACT: note_on channel=13 note=61 velocity=38 time=0.005
EXTRACT: note_off channel=5 note=45 velocity=64 time=0.066
EXTRACT: note_off channel=2 note=33 velocity=64 time=0
EXTRACT: note_on channel=2 note=33 velocity=74 time=0.009000000000000001
EXTRACT: note_on channel=5 note=45 velocity=62 time=0
EXTRACT: note_off channel=1 note=33 velocity=64 time=0.054
EXTRACT: note_off channel=5 note=45 velocity=64 time=0.057
EXTRACT: note_off channel=2 note=33 velocity=65 time=0
EXTRACT: pitchwheel channel=3 pitch=7325 time=0.002
EXTRACT: note_on channel=1 note=45 velocity=122 time=0.007
EXTRACT: note_on channel=2 note=45 velocity=125 time=0
EXTRACT: note_on channel=5 note=45 velocity=113 time=0
EXTRACT: note_on channel=8 note=57 velocity=92 time=0
EXTRACT: note_on channel=9 note=46 velocity=110 time=0
EXTRACT: note_on channel=9 note=70 velocity=106 time=0
EXTRACT: note_on channel=9 note=54 velocity=52 time=0.001
EXTRACT: pitchwheel channel=3 pitch=330 time=0.006
EXTRACT: pitchwheel channel=3 pitch=0 time=0.015
EXTRACT: note_off channel=9 note=70 velocity=64 time=0.002
EXTRACT: note_off channel=9 note=46 velocity=65 time=0
EXTRACT: note_off channel=9 note=54 velocity=64 time=0.002
EXTRACT: note_off channel=8 note=57 velocity=64 time=0.037
EXTRACT: note_off channel=5 note=45 velocity=65 time=0.048
EXTRACT: note_off channel=2 note=45 velocity=65 time=0
EXTRACT: note_on channel=2 note=45 velocity=124 time=0.009000000000000001
EXTRACT: note_on channel=5 note=45 velocity=113 time=0
EXTRACT: note_on channel=8 note=57 velocity=91 time=0
EXTRACT: note_on channel=9 note=70 velocity=107 time=0
EXTRACT: note_off channel=9 note=70 velocity=65 time=0.024
EXTRACT: note_off channel=1 note=45 velocity=65 time=0
EXTRACT: note_off channel=8 note=57 velocity=64 time=0.044
EXTRACT: note_off channel=5 note=45 velocity=64 time=0.043000000000000003
EXTRACT: note_off channel=2 note=45 velocity=64 time=0
EXTRACT: note_on channel=9 note=39 velocity=119 time=0.001
EXTRACT: note_on channel=1 note=33 velocity=123 time=0.008
EXTRACT: note_on channel=2 note=33 velocity=125 time=0
EXTRACT: note_on channel=5 note=45 velocity=112 time=0
EXTRACT: note_on channel=9 note=36 velocity=127 time=0
EXTRACT: note_on channel=9 note=38 velocity=116 time=0
EXTRACT: note_on channel=9 note=42 velocity=123 time=0
EXTRACT: note_on channel=9 note=70 velocity=106 time=0
EXTRACT: note_on channel=9 note=54 velocity=52 time=0
EXTRACT: note_off channel=9 note=39 velocity=65 time=0.017
EXTRACT: note_off channel=9 note=70 velocity=64 time=0.007
EXTRACT: note_off channel=9 note=42 velocity=65 time=0
EXTRACT: note_off channel=9 note=38 velocity=64 time=0
EXTRACT: note_off channel=9 note=36 velocity=64 time=0
EXTRACT: note_off channel=9 note=54 velocity=65 time=0.001
EXTRACT: note_off channel=5 note=45 velocity=65 time=0.08600000000000001
EXTRACT: note_off channel=2 note=33 velocity=64 time=0
EXTRACT: note_on channel=2 note=33 velocity=75 time=0.009000000000000001
EXTRACT: note_on channel=5 note=45 velocity=62 time=0
EXTRACT: note_off channel=1 note=33 velocity=64 time=0.034
EXTRACT: note_off channel=5 note=45 velocity=65 time=0.077
EXTRACT: note_off channel=2 note=33 velocity=65 time=0
EXTRACT: note_on channel=1 note=45 velocity=122 time=0.009000000000000001
EXTRACT: note_on channel=2 note=45 velocity=124 time=0
EXTRACT: note_on channel=5 note=45 velocity=113 time=0
EXTRACT: note_on channel=8 note=57 velocity=89 time=0
EXTRACT: note_on channel=9 note=42 velocity=116 time=0
EXTRACT: note_on channel=9 note=54 velocity=59 time=0
EXTRACT: note_on channel=9 note=70 velocity=106 time=0
EXTRACT: note_off channel=9 note=70 velocity=65 time=0.024
EXTRACT: note_off channel=9 note=54 velocity=64 time=0
EXTRACT: note_off channel=9 note=42 velocity=64 time=0
EXTRACT: note_off channel=8 note=57 velocity=65 time=0.042
EXTRACT: note_off channel=5 note=45 velocity=64 time=0.045
EXTRACT: note_off channel=2 note=45 velocity=65 time=0
EXTRACT: note_on channel=2 note=45 velocity=125 time=0.009000000000000001
EXTRACT: note_on channel=5 note=45 velocity=113 time=0
EXTRACT: note_on channel=8 note=57 velocity=98 time=0
EXTRACT: note_on channel=9 note=44 velocity=98 time=0
EXTRACT: note_on channel=9 note=70 velocity=107 time=0
EXTRACT: note_off channel=9 note=70 velocity=65 time=0.024
EXTRACT: note_off channel=9 note=44 velocity=65 time=0
EXTRACT: note_off channel=1 note=45 velocity=64 time=0.02
EXTRACT: note_off channel=8 note=57 velocity=65 time=0.032
EXTRACT: note_off channel=5 note=45 velocity=65 time=0.035
EXTRACT: note_off channel=2 note=45 velocity=64 time=0
EXTRACT: note_on channel=1 note=33 velocity=122 time=0.009000000000000001
EXTRACT: note_on channel=2 note=33 velocity=124 time=0
EXTRACT: note_on channel=5 note=45 velocity=112 time=0
EXTRACT: note_on channel=9 note=36 velocity=127 time=0
EXTRACT: note_on channel=9 note=42 velocity=124 time=0
EXTRACT: note_on channel=9 note=70 velocity=107 time=0
EXTRACT: note_on channel=9 note=54 velocity=55 time=0
EXTRACT: note_off channel=9 note=70 velocity=64 time=0.024
EXTRACT: note_off channel=9 note=42 velocity=64 time=0
EXTRACT: note_off channel=9 note=36 velocity=65 time=0
EXTRACT: note_off channel=9 note=54 velocity=64 time=0.001
EXTRACT: note_off channel=5 note=45 velocity=64 time=0.08600000000000001
EXTRACT: note_off channel=2 note=33 velocity=64 time=0
EXTRACT: note_on channel=2 note=33 velocity=74 time=0.009000000000000001
EXTRACT: note_on channel=5 note=45 velocity=62 time=0
EXTRACT: note_off channel=1 note=33 velocity=65 time=0.054
EXTRACT: note_off channel=5 note=45 velocity=64 time=0.057
EXTRACT: note_off channel=2 note=33 velocity=65 time=0
EXTRACT: note_off channel=4 note=61 velocity=64 time=0
EXTRACT: note_on channel=1 note=45 velocity=123 time=0.009000000000000001
EXTRACT: note_on channel=2 note=45 velocity=125 time=0
EXTRACT: note_on channel=4 note=61 velocity=1 time=0
EXTRACT: note_on channel=5 note=45 velocity=113 time=0
EXTRACT: note_on channel=8 note=57 velocity=88 time=0
EXTRACT: note_on channel=9 note=46 velocity=107 time=0
EXTRACT: note_on channel=9 note=70 velocity=106 time=0
EXTRACT: note_on channel=9 note=54 velocity=52 time=0
EXTRACT: note_off channel=9 note=70 velocity=65 time=0.024
EXTRACT: note_off channel=9 note=46 velocity=65 time=0
EXTRACT: note_off channel=9 note=54 velocity=64 time=0.001
EXTRACT: note_off channel=8 note=57 velocity=64 time=0.038
EXTRACT: note_off channel=5 note=45 velocity=65 time=0.048
EXTRACT: note_off channel=2 note=45 velocity=64 time=0
EXTRACT: note_off channel=3 note=79 velocity=65 time=0.005
EXTRACT: note_on channel=2 note=45 velocity=125 time=0.004
EXTRACT: note_on channel=5 note=45 velocity=112 time=0
EXTRACT: note_on channel=8 note=57 velocity=103 time=0
EXTRACT: note_on channel=9 note=70 velocity=106 time=0
EXTRACT: note_off channel=9 note=70 velocity=65 time=0.024
EXTRACT: note_off channel=1 note=45 velocity=65 time=0
EXTRACT: note_off channel=8 note=57 velocity=64 time=0.05
EXTRACT: note_on channel=3 note=77 velocity=116 time=0
EXTRACT: note_off channel=5 note=45 velocity=65 time=0.002
EXTRACT: note_off channel=2 note=45 velocity=65 time=0
EXTRACT: note_off channel=4 note=61 velocity=64 time=0
EXTRACT: note_on channel=9 note=39 velocity=119 time=0.001
EXTRACT: note_on channel=1 note=33 velocity=123 time=0.008
EXTRACT: note_on channel=2 note=33 velocity=124 time=0
EXTRACT: note_on channel=4 note=61 velocity=1 time=0
EXTRACT: note_on channel=5 note=45 velocity=113 time=0
EXTRACT: note_on channel=9 note=36 velocity=126 time=0
EXTRACT: note_on channel=9 note=38 velocity=116 time=0
EXTRACT: note_on channel=9 note=42 velocity=117 time=0
EXTRACT: note_on channel=9 note=70 velocity=107 time=0
EXTRACT: note_on channel=9 note=54 velocity=54 time=0.002
EXTRACT: note_off channel=9 note=39 velocity=64 time=0.015
EXTRACT: note_off channel=9 note=70 velocity=64 time=0.007
EXTRACT: note_off channel=9 note=42 velocity=65 time=0
EXTRACT: note_off channel=9 note=38 velocity=65 time=0
EXTRACT: note_off channel=9 note=36 velocity=64 time=0
EXTRACT: note_off channel=9 note=54 velocity=64 time=0.002
EXTRACT: note_off channel=5 note=45 velocity=64 time=0.085
EXTRACT: note_off channel=2 note=33 velocity=65 time=0
EXTRACT: note_on channel=2 note=33 velocity=74 time=0.009000000000000001
EXTRACT: note_on channel=5 note=45 velocity=63 time=0
EXTRACT: note_off channel=1 note=33 velocity=64 time=0.034
EXTRACT: note_off channel=3 note=77 velocity=64 time=0.041
EXTRACT: note_off channel=5 note=45 velocity=64 time=0.036000000000000004
EXTRACT: note_off channel=2 note=33 velocity=64 time=0
EXTRACT: note_off channel=4 note=61 velocity=65 time=0
EXTRACT: note_on channel=1 note=45 velocity=122 time=0
EXTRACT: note_on channel=2 note=45 velocity=125 time=0
EXTRACT: note_on channel=3 note=77 velocity=116 time=0
EXTRACT: note_on channel=4 note=62 velocity=1 time=0
EXTRACT: note_on channel=5 note=45 velocity=112 time=0
EXTRACT: note_on channel=8 note=57 velocity=91 time=0
EXTRACT: note_on channel=9 note=42 velocity=117 time=0
EXTRACT: note_on channel=9 note=70 velocity=107 time=0
EXTRACT: note_on channel=9 note=54 velocity=53 time=0.002
EXTRACT: note_off channel=9 note=70 velocity=65 time=0.022
EXTRACT: note_off channel=9 note=42 velocity=65 time=0
EXTRACT: note_off channel=9 note=54 velocity=64 time=0.003
EXTRACT: note_off channel=8 note=57 velocity=65 time=0.044
EXTRACT: note_off channel=5 note=45 velocity=65 time=0.04
EXTRACT: note_off channel=2 note=45 velocity=65 time=0
EXTRACT: note_on channel=2 note=45 velocity=125 time=0.009000000000000001
EXTRACT: note_on channel=5 note=45 velocity=113 time=0
EXTRACT: note_on channel=8 note=57 velocity=94 time=0
EXTRACT: note_on channel=9 note=44 velocity=99 time=0
EXTRACT: note_on channel=9 note=70 velocity=106 time=0
EXTRACT: note_off channel=9 note=70 velocity=64 time=0.024
EXTRACT: note_off channel=9 note=44 velocity=65 time=0
EXTRACT: note_off channel=1 note=45 velocity=64 time=0.02
EXTRACT: note_off channel=8 note=57 velocity=65 time=0.026000000000000002
EXTRACT: note_off channel=7 note=61 velocity=65 time=0.011
EXTRACT: note_off channel=3 note=77 velocity=64 time=0.005
EXTRACT: note_off channel=7 note=64 velocity=65 time=0.022
EXTRACT: note_off channel=5 note=45 velocity=65 time=0.003
EXTRACT: note_off channel=2 note=45 velocity=64 time=0
EXTRACT: note_off channel=4 note=62 velocity=65 time=0
EXTRACT: note_off channel=7 note=55 velocity=64 time=0.002
EXTRACT: note_on channel=1 note=26 velocity=122 time=0
EXTRACT: note_on channel=2 note=26 velocity=124 time=0
EXTRACT: note_on channel=3 note=72 velocity=117 time=0
EXTRACT: note_on channel=4 note=55 velocity=1 time=0
EXTRACT: note_on channel=5 note=38 velocity=112 time=0
EXTRACT: note_on channel=7 note=62 velocity=66 time=0
EXTRACT: note_on channel=9 note=36 velocity=126 time=0
EXTRACT: note_on channel=9 note=42 velocity=116 time=0
EXTRACT: note_on channel=9 note=70 velocity=106 time=0
EXTRACT: note_on channel=7 note=57 velocity=71 time=0.003
EXTRACT: note_on channel=9 note=54 velocity=56 time=0
EXTRACT: note_off channel=13 note=61 velocity=64 time=0.001
EXTRACT: note_off channel=13 note=64 velocity=64 time=0
EXTRACT: note_off channel=6 note=88 velocity=64 time=0.001
EXTRACT: note_on channel=6 note=89 velocity=53 time=0.002
EXTRACT: note_on channel=7 note=65 velocity=50 time=0.003
EXTRACT: note_off channel=9 note=70 velocity=64 time=0.014
EXTRACT: note_off channel=9 note=42 velocity=65 time=0
EXTRACT: note_off channel=9 note=36 velocity=65 time=0
EXTRACT: note_off channel=9 note=54 velocity=64 time=0.004
EXTRACT: note_on channel=13 note=62 velocity=39 time=0.014
EXTRACT: note_on channel=13 note=65 velocity=44 time=0.01
EXTRACT: note_off channel=5 note=38 velocity=64 time=0.057
EXTRACT: note_off channel=2 note=26 velocity=64 time=0
EXTRACT: note_on channel=2 note=26 velocity=74 time=0.009000000000000001
EXTRACT: note_on channel=5 note=38 velocity=62 time=0
EXTRACT: note_off channel=1 note=26 velocity=65 time=0.054
EXTRACT: note_off channel=3 note=72 velocity=65 time=0.014
EXTRACT: note_off channel=5 note=38 velocity=64 time=0.043000000000000003
EXTRACT: note_off channel=2 note=26 velocity=65 time=0
EXTRACT: note_off channel=4 note=55 velocity=64 time=0
EXTRACT: note_on channel=1 note=38 velocity=123 time=0.009000000000000001
EXTRACT: note_on channel=2 note=38 velocity=125 time=0
EXTRACT: note_on channel=3 note=74 velocity=117 time=0
EXTRACT: note_on channel=4 note=57 velocity=1 time=0
EXTRACT: note_on channel=5 note=38 velocity=113 time=0
EXTRACT: note_on channel=8 note=50 velocity=92 time=0
EXTRACT: note_on channel=9 note=46 velocity=105 time=0
EXTRACT: note_on channel=9 note=70 velocity=107 time=0
EXTRACT: note_on channel=9 note=54 velocity=55 time=0.003
EXTRACT: note_off channel=9 note=70 velocity=65 time=0.021
EXTRACT: note_off channel=9 note=46 velocity=64 time=0
EXTRACT: note_off channel=9 note=54 velocity=64 time=0.003
EXTRACT: note_off channel=8 note=50 velocity=64 time=0.051000000000000004
EXTRACT: note_off channel=5 note=38 velocity=65 time=0.033
EXTRACT: note_off channel=2 note=38 velocity=65 time=0
EXTRACT: note_on channel=2 note=38 velocity=124 time=0.009000000000000001
EXTRACT: note_on channel=5 note=38 velocity=113 time=0
EXTRACT: note_on channel=8 note=50 velocity=101 time=0
EXTRACT: note_on channel=9 note=70 velocity=106 time=0
EXTRACT: note_off channel=9 note=70 velocity=65 time=0.024
EXTRACT: note_off channel=1 note=38 velocity=65 time=0
EXTRACT: note_off channel=8 note=50 velocity=64 time=0.041
EXTRACT: note_off channel=5 note=38 velocity=64 time=0.046
EXTRACT: note_off channel=2 note=38 velocity=64 time=0
EXTRACT: note_on channel=9 note=39 velocity=118 time=0.001
EXTRACT: note_on channel=1 note=26 velocity=123 time=0.008
EXTRACT: note_on channel=2 note=26 velocity=125 time=0
EXTRACT: note_on channel=5 note=38 velocity=112 time=0
EXTRACT: note_on channel=9 note=36 velocity=127 time=0
EXTRACT: note_on channel=9 note=38 velocity=117 time=0
EXTRACT: note_on channel=9 note=42 velocity=116 time=0
EXTRACT: note_on channel=9 note=70 velocity=107 time=0
EXTRACT: note_on channel=9 note=54 velocity=59 time=0.004
EXTRACT: note_off channel=9 note=39 velocity=65 time=0.013000000000000001
EXTRACT: note_off channel=9 note=70 velocity=64 time=0.007
EXTRACT: note_off channel=9 note=42 velocity=64 time=0
EXTRACT: note_off channel=9 note=38 velocity=65 time=0
EXTRACT: note_off channel=9 note=36 velocity=65 time=0
EXTRACT: note_off channel=9 note=54 velocity=64 time=0.005
EXTRACT: note_off channel=5 note=38 velocity=65 time=0.082
EXTRACT: note_off channel=2 note=26 velocity=64 time=0
EXTRACT: note_on channel=2 note=26 velocity=75 time=0.009000000000000001
EXTRACT: note_on channel=5 note=38 velocity=62 time=0
EXTRACT: note_off channel=1 note=26 velocity=64 time=0.034
EXTRACT: note_off channel=5 note=38 velocity=65 time=0.077
EXTRACT: note_off channel=2 note=26 velocity=65 time=0
EXTRACT: note_on channel=1 note=38 velocity=122 time=0.009000000000000001
EXTRACT: note_on channel=2 note=38 velocity=124 time=0
EXTRACT: note_on channel=5 note=38 velocity=113 time=0
EXTRACT: note_on channel=8 note=50 velocity=92 time=0
EXTRACT: note_on channel=9 note=42 velocity=115 time=0
EXTRACT: note_on channel=9 note=70 velocity=107 time=0
EXTRACT: note_on channel=9 note=54 velocity=54 time=0.004
EXTRACT: note_off channel=9 note=70 velocity=64 time=0.02
EXTRACT: note_off channel=9 note=42 velocity=65 time=0
EXTRACT: note_off channel=9 note=54 velocity=64 time=0.005
EXTRACT: note_off channel=8 note=50 velocity=65 time=0.033
EXTRACT: note_off channel=5 note=38 velocity=64 time=0.049
EXTRACT: note_off channel=2 note=38 velocity=65 time=0
EXTRACT: note_on channel=2 note=38 velocity=125 time=0.009000000000000001
EXTRACT: note_on channel=5 note=38 velocity=113 time=0
EXTRACT: note_on channel=8 note=50 velocity=89 time=0
EXTRACT: note_on channel=9 note=44 velocity=99 time=0
EXTRACT: note_on channel=9 note=70 velocity=106 time=0
EXTRACT: note_off channel=9 note=70 velocity=65 time=0.024
EXTRACT: note_off channel=9 note=44 velocity=65 time=0
EXTRACT: note_off channel=1 note=38 velocity=64 time=0.02
EXTRACT: note_off channel=8 note=50 velocity=64 time=0.035
EXTRACT: note_off channel=5 note=38 velocity=65 time=0.032
EXTRACT: note_off channel=2 note=38 velocity=64 time=0
EXTRACT: note_on channel=1 note=26 velocity=122 time=0.009000000000000001
EXTRACT: note_on channel=2 note=26 velocity=124 time=0
EXTRACT: note_on channel=5 note=38 velocity=112 time=0
EXTRACT: note_on channel=9 note=36 velocity=127 time=0
EXTRACT: note_on channel=9 note=42 velocity=119 time=0
EXTRACT: note_on channel=9 note=70 velocity=107 time=0
EXTRACT: note_on channel=9 note=54 velocity=59 time=0.004
EXTRACT: note_off channel=9 note=70 velocity=64 time=0.02
EXTRACT: note_off channel=9 note=42 velocity=65 time=0
EXTRACT: note_off channel=9 note=36 velocity=64 time=0
EXTRACT: note_off channel=9 note=54 velocity=64 time=0.005
EXTRACT: note_off channel=5 note=38 velocity=64 time=0.082
EXTRACT: note_off channel=2 note=26 velocity=64 time=0
EXTRACT: note_on channel=2 note=26 velocity=74 time=0.009000000000000001
EXTRACT: note_on channel=5 note=38 velocity=62 time=0
EXTRACT: note_off channel=1 note=26 velocity=65 time=0.054
EXTRACT: note_off channel=5 note=38 velocity=64 time=0.057
EXTRACT: note_off channel=2 note=26 velocity=65 time=0
EXTRACT: note_on channel=1 note=38 velocity=123 time=0.009000000000000001
EXTRACT: note_on channel=2 note=38 velocity=125 time=0
EXTRACT: note_on channel=5 note=38 velocity=113 time=0
EXTRACT: note_on channel=8 note=50 velocity=93 time=0
EXTRACT: note_on channel=9 note=46 velocity=106 time=0
EXTRACT: note_on channel=9 note=70 velocity=106 time=0
EXTRACT: note_on channel=9 note=54 velocity=54 time=0.005
EXTRACT: note_off channel=9 note=70 velocity=65 time=0.019
EXTRACT: note_off channel=9 note=46 velocity=65 time=0
EXTRACT: note_off channel=9 note=54 velocity=64 time=0.005
EXTRACT: note_off channel=8 note=50 velocity=65 time=0.037
EXTRACT: note_off channel=5 note=38 velocity=65 time=0.045
EXTRACT: note_off channel=2 note=38 velocity=64 time=0
EXTRACT: note_on channel=2 note=38 velocity=125 time=0.009000000000000001
EXTRACT: note_on channel=5 note=38 velocity=112 time=0
EXTRACT: note_on channel=8 note=50 velocity=106 time=0
EXTRACT: note_on channel=9 note=70 velocity=106 time=0
EXTRACT: note_off channel=9 note=70 velocity=64 time=0.024
EXTRACT: note_off channel=1 note=38 velocity=64 time=0
EXTRACT: note_off channel=8 note=50 velocity=65 time=0.063
EXTRACT: control_change channel=9 control=91 value=30 time=0.003
EXTRACT: note_off channel=5 note=38 velocity=65 time=0.021
EXTRACT: note_off channel=2 note=38 velocity=65 time=0
EXTRACT: note_on channel=9 note=39 velocity=119 time=0.001
EXTRACT: note_on channel=1 note=26 velocity=122 time=0.008
EXTRACT: note_on channel=2 note=26 velocity=124 time=0
EXTRACT: note_on channel=5 note=38 velocity=113 time=0
EXTRACT: note_on channel=9 note=36 velocity=126 time=0
EXTRACT: note_on channel=9 note=38 velocity=117 time=0
EXTRACT: note_on channel=9 note=42 velocity=122 time=0
EXTRACT: note_on channel=9 note=70 velocity=107 time=0
EXTRACT: note_on channel=9 note=54 velocity=54 time=0.005
EXTRACT: note_off channel=3 note=74 velocity=65 time=0.006
EXTRACT: note_off channel=9 note=39 velocity=65 time=0.006
EXTRACT: note_off channel=9 note=70 velocity=65 time=0.007
EXTRACT: note_off channel=9 note=42 velocity=64 time=0
EXTRACT: note_off channel=9 note=38 velocity=64 time=0
EXTRACT: note_off channel=9 note=36 velocity=65 time=0
EXTRACT: note_off channel=9 note=54 velocity=64 time=0.006
EXTRACT: note_off channel=5 note=38 velocity=64 time=0.081
EXTRACT: note_off channel=2 note=26 velocity=65 time=0
EXTRACT: note_on channel=2 note=26 velocity=74 time=0.009000000000000001
EXTRACT: note_on channel=5 note=38 velocity=63 time=0
EXTRACT: note_off channel=1 note=26 velocity=65 time=0.034
EXTRACT: note_on channel=12 note=71 velocity=120 time=0.026000000000000002
EXTRACT: note_off channel=5 note=38 velocity=64 time=0.051000000000000004
EXTRACT: note_off channel=2 note=26 velocity=64 time=0
EXTRACT: note_on channel=1 note=38 velocity=123 time=0.009000000000000001
EXTRACT: note_on channel=2 note=38 velocity=125 time=0
EXTRACT: note_on channel=5 note=38 velocity=112 time=0
EXTRACT: note_on channel=8 note=50 velocity=95 time=0
EXTRACT: note_on channel=9 note=42 velocity=122 time=0
EXTRACT: note_on channel=9 note=55 velocity=111 time=0
EXTRACT: note_on channel=9 note=70 velocity=107 time=0
EXTRACT: note_on channel=9 note=54 velocity=57 time=0.006
EXTRACT: note_off channel=9 note=70 velocity=65 time=0.018000000000000002
EXTRACT: note_off channel=9 note=55 velocity=65 time=0
EXTRACT: note_off channel=9 note=42 velocity=64 time=0
EXTRACT: note_off channel=9 note=54 velocity=65 time=0.007
EXTRACT: note_off channel=8 note=50 velocity=64 time=0.043000000000000003
EXTRACT: note_off channel=5 note=38 velocity=65 time=0.037
EXTRACT: note_off channel=2 note=38 velocity=65 time=0
EXTRACT: note_on channel=2 note=38 velocity=125 time=0.009000000000000001
EXTRACT: note_on channel=5 note=38 velocity=113 time=0
EXTRACT: note_on channel=8 note=50 velocity=102 time=0
EXTRACT: note_on channel=9 note=44 velocity=98 time=0
EXTRACT: note_on channel=9 note=70 velocity=106 time=0
EXTRACT: note_off channel=9 note=70 velocity=64 time=0.024
EXTRACT: note_off channel=9 note=44 velocity=64 time=0
EXTRACT: note_off channel=1 note=38 velocity=65 time=0.02
EXTRACT: note_off channel=7 note=62 velocity=64 time=0.024
EXTRACT: note_off channel=8 note=50 velocity=65 time=0.011
EXTRACT: note_off channel=7 note=65 velocity=65 time=0.02
EXTRACT: note_off channel=7 note=57 velocity=64 time=0.003
EXTRACT: note_off channel=5 note=38 velocity=65 time=0.009000000000000001
EXTRACT: note_off channel=2 note=38 velocity=64 time=0
EXTRACT: note_off channel=12 note=71 velocity=64 time=0.003
EXTRACT: note_off channel=6 note=89 velocity=64 time=0
EXTRACT: note_on channel=1 note=34 velocity=123 time=0.006
EXTRACT: note_on channel=2 note=34 velocity=124 time=0
EXTRACT: note_on channel=5 note=46 velocity=112 time=0
EXTRACT: note_on channel=7 note=58 velocity=69 time=0
EXTRACT: note_on channel=7 note=65 velocity=65 time=0
EXTRACT: note_on channel=9 note=36 velocity=126 time=0
EXTRACT: note_on channel=9 note=42 velocity=127 time=0
EXTRACT: note_on channel=9 note=70 velocity=106 time=0
EXTRACT: note_on channel=7 note=62 velocity=68 time=0.002
EXTRACT: note_on channel=9 note=54 velocity=59 time=0.004
EXTRACT: note_on channel=6 note=86 velocity=64 time=0.008
EXTRACT: note_off channel=13 note=62 velocity=65 time=0.005
EXTRACT: note_off channel=9 note=70 velocity=65 time=0.005
EXTRACT: note_off channel=9 note=42 velocity=65 time=0
EXTRACT: note_off channel=9 note=36 velocity=64 time=0
EXTRACT: note_off channel=9 note=54 velocity=64 time=0.007
EXTRACT: note_on channel=13 note=70 velocity=35 time=0.011
EXTRACT: note_off channel=5 note=46 velocity=64 time=0.069
EXTRACT: note_off channel=2 note=34 velocity=64 time=0
EXTRACT: note_off channel=4 note=57 velocity=64 time=0.003
EXTRACT: note_on channel=2 note=34 velocity=74 time=0.006
EXTRACT: note_on channel=5 note=46 velocity=62 time=0
EXTRACT: note_off channel=1 note=34 velocity=64 time=0.054
EXTRACT: note_off channel=5 note=46 velocity=64 time=0.057
EXTRACT: note_off channel=2 note=34 velocity=65 time=0
EXTRACT: note_on channel=1 note=46 velocity=122 time=0.009000000000000001
EXTRACT: note_on channel=2 note=46 velocity=125 time=0
EXTRACT: note_on channel=5 note=46 velocity=113 time=0
EXTRACT: note_on channel=8 note=58 velocity=100 time=0
EXTRACT: note_on channel=9 note=46 velocity=113 time=0
EXTRACT: note_on channel=9 note=70 velocity=107 time=0
EXTRACT: note_on channel=9 note=54 velocity=58 time=0.005
EXTRACT: note_off channel=9 note=70 velocity=65 time=0.019
EXTRACT: note_off channel=9 note=46 velocity=65 time=0
EXTRACT: note_off channel=9 note=54 velocity=64 time=0.006
EXTRACT: note_off channel=8 note=58 velocity=64 time=0.029
EXTRACT: note_off channel=5 note=46 velocity=65 time=0.052000000000000005
EXTRACT: note_off channel=2 note=46 velocity=65 time=0
EXTRACT: note_on channel=2 note=46 velocity=124 time=0.009000000000000001
EXTRACT: note_on channel=5 note=46 velocity=113 time=0
EXTRACT: note_on channel=8 note=58 velocity=79 time=0
EXTRACT: note_on channel=9 note=70 velocity=107 time=0
EXTRACT: note_off channel=9 note=70 velocity=64 time=0.024
EXTRACT: note_off channel=1 note=46 velocity=65 time=0
EXTRACT: note_off channel=8 note=58 velocity=64 time=0.042
EXTRACT: pitchwheel channel=3 pitch=-7613 time=0.039
EXTRACT: note_off channel=5 note=46 velocity=64 time=0.006
EXTRACT: note_off channel=2 note=46 velocity=64 time=0
EXTRACT: note_on channel=9 note=39 velocity=118 time=0.001
EXTRACT: note_on channel=1 note=34 velocity=123 time=0.008
EXTRACT: note_on channel=2 note=34 velocity=125 time=0
EXTRACT: note_on channel=4 note=62 velocity=1 time=0
EXTRACT: note_on channel=5 note=46 velocity=112 time=0
EXTRACT: note_on channel=9 note=36 velocity=127 time=0
EXTRACT: note_on channel=9 note=38 velocity=116 time=0
EXTRACT: note_on channel=9 note=42 velocity=118 time=0
EXTRACT: note_on channel=9 note=70 velocity=106 time=0
EXTRACT: note_on channel=3 note=82 velocity=116 time=0
EXTRACT: note_on channel=9 note=54 velocity=58 time=0.001
EXTRACT: note_off channel=9 note=39 velocity=65 time=0.014
EXTRACT: note_off channel=9 note=70 velocity=64 time=0.007
EXTRACT: note_off channel=9 note=42 velocity=65 time=0
EXTRACT: note_off channel=9 note=38 velocity=65 time=0
EXTRACT: note_off channel=9 note=36 velocity=64 time=0
EXTRACT: note_off channel=9 note=54 velocity=65 time=0.004
EXTRACT: pitchwheel channel=3 pitch=-7117 time=0.033
EXTRACT: pitchwheel channel=3 pitch=-6207 time=0.015
EXTRACT: pitchwheel channel=3 pitch=-5048 time=0.013000000000000001
EXTRACT: pitchwheel channel=3 pitch=-3641 time=0.015
EXTRACT: note_off channel=5 note=46 velocity=65 time=0.003
EXTRACT: note_off channel=2 note=34 velocity=64 time=0
EXTRACT: note_on channel=2 note=34 velocity=75 time=0.009000000000000001
EXTRACT: note_on channel=5 note=46 velocity=62 time=0
EXTRACT: pitchwheel channel=3 pitch=-1987 time=0.002
EXTRACT: pitchwheel channel=3 pitch=-617 time=0.013000000000000001
EXTRACT: pitchwheel channel=3 pitch=128 time=0.015
EXTRACT: note_off channel=1 note=34 velocity=64 time=0.004
EXTRACT: note_off channel=5 note=46 velocity=65 time=0.077
EXTRACT: note_off channel=2 note=34 velocity=65 time=0
EXTRACT: note_on channel=1 note=46 velocity=122 time=0.009000000000000001
EXTRACT: note_on channel=2 note=46 velocity=124 time=0
EXTRACT: note_on channel=5 note=46 velocity=113 time=0
EXTRACT: note_on channel=8 note=58 velocity=103 time=0
EXTRACT: note_on channel=9 note=42 velocity=117 time=0
EXTRACT: note_on channel=9 note=70 velocity=106 time=0
EXTRACT: note_on channel=9 note=54 velocity=59 time=0
EXTRACT: note_off channel=9 note=70 velocity=64 time=0.024
EXTRACT: note_off channel=9 note=42 velocity=64 time=0
EXTRACT: note_off channel=9 note=54 velocity=65 time=0.001
EXTRACT: note_off channel=8 note=58 velocity=65 time=0.03
EXTRACT: note_off channel=5 note=46 velocity=64 time=0.056
EXTRACT: note_off channel=2 note=46 velocity=65 time=0
EXTRACT: note_on channel=2 note=46 velocity=125 time=0.009000000000000001
EXTRACT: note_on channel=5 note=46 velocity=113 time=0
EXTRACT: note_on channel=8 note=58 velocity=92 time=0
EXTRACT: note_on channel=9 note=44 velocity=98 time=0
EXTRACT: note_on channel=9 note=70 velocity=107 time=0
EXTRACT: note_off channel=9 note=70 velocity=65 time=0.024
EXTRACT: note_off channel=9 note=44 velocity=64 time=0
EXTRACT: note_off channel=1 note=46 velocity=64 time=0.02
EXTRACT: note_off channel=8 note=58 velocity=65 time=0.014
EXTRACT: note_off channel=5 note=46 velocity=65 time=0.053
EXTRACT: note_off channel=2 note=46 velocity=64 time=0
EXTRACT: note_on channel=1 note=34 velocity=122 time=0.009000000000000001
EXTRACT: note_on channel=2 note=34 velocity=124 time=0
EXTRACT: note_on channel=5 note=46 velocity=112 time=0
EXTRACT: note_on channel=9 note=36 velocity=126 time=0
EXTRACT: note_on channel=9 note=42 velocity=125 time=0
EXTRACT: note_on channel=9 note=70 velocity=106 time=0
EXTRACT: note_on channel=9 note=54 velocity=55 time=0
EXTRACT: note_off channel=9 note=70 velocity=64 time=0.024
EXTRACT: note_off channel=9 note=42 velocity=65 time=0
EXTRACT: note_off channel=9 note=36 velocity=65 time=0
EXTRACT: note_off channel=9 note=54 velocity=64 time=0.001
EXTRACT: note_off channel=5 note=46 velocity=64 time=0.08600000000000001
EXTRACT: note_off channel=2 note=34 velocity=64 time=0
EXTRACT: note_on channel=2 note=34 velocity=74 time=0.009000000000000001
EXTRACT: note_on channel=5 note=46 velocity=62 time=0
EXTRACT: note_off channel=1 note=34 velocity=65 time=0.054
EXTRACT: note_off channel=5 note=46 velocity=64 time=0.057
EXTRACT: note_off channel=2 note=34 velocity=65 time=0
EXTRACT: note_on channel=1 note=46 velocity=123 time=0.009000000000000001
EXTRACT: note_on channel=2 note=46 velocity=125 time=0
EXTRACT: note_on channel=5 note=46 velocity=113 time=0
EXTRACT: note_on channel=8 note=58 velocity=102 time=0
EXTRACT: note_on channel=9 note=46 velocity=110 time=0
EXTRACT: note_on channel=9 note=70 velocity=107 time=0
EXTRACT: note_on channel=9 note=54 velocity=56 time=0.001
EXTRACT: note_off channel=9 note=70 velocity=64 time=0.023
EXTRACT: note_off channel=9 note=46 velocity=65 time=0
EXTRACT: note_off channel=9 note=54 velocity=64 time=0.001
EXTRACT: note_off channel=8 note=58 velocity=64 time=0.033
EXTRACT: note_off channel=5 note=46 velocity=65 time=0.053
EXTRACT: note_off channel=2 note=46 velocity=64 time=0
EXTRACT: note_on channel=2 note=46 velocity=125 time=0.009000000000000001
EXTRACT: note_on channel=5 note=46 velocity=112 time=0
EXTRACT: note_on channel=8 note=58 velocity=101 time=0
EXTRACT: note_on channel=9 note=70 velocity=107 time=0
EXTRACT: note_off channel=3 note=82 velocity=64 time=0.023
EXTRACT: note_off channel=9 note=70 velocity=65 time=0.001
EXTRACT: note_off channel=1 note=46 velocity=65 time=0
EXTRACT: note_off channel=8 note=58 velocity=64 time=0.031
EXTRACT: note_off channel=5 note=46 velocity=65 time=0.056
EXTRACT: note_off channel=2 note=46 velocity=65 time=0
EXTRACT: note_off channel=4 note=62 velocity=65 time=0
EXTRACT: note_on channel=9 note=39 velocity=118 time=0.001
EXTRACT: note_on channel=1 note=34 velocity=123 time=0.008
EXTRACT: note_on channel=2 note=34 velocity=124 time=0
EXTRACT: note_on channel=4 note=62 velocity=1 time=0
EXTRACT: note_on channel=5 note=46 velocity=113 time=0
EXTRACT: note_on channel=9 note=36 velocity=127 time=0
EXTRACT: note_on channel=9 note=38 velocity=116 time=0
EXTRACT: note_on channel=9 note=42 velocity=98 time=0
EXTRACT: note_on channel=9 note=70 velocity=106 time=0
EXTRACT: note_on channel=9 note=54 velocity=54 time=0.001
EXTRACT: note_on channel=3 note=82 velocity=116 time=0
EXTRACT: note_off channel=9 note=39 velocity=65 time=0.008
EXTRACT: note_off channel=9 note=70 velocity=64 time=0.007
EXTRACT: note_off channel=9 note=42 velocity=65 time=0
EXTRACT: note_off channel=9 note=38 velocity=64 time=0
EXTRACT: note_off channel=9 note=36 velocity=64 time=0
EXTRACT: note_off channel=9 note=54 velocity=65 time=0.002
EXTRACT: note_off channel=5 note=46 velocity=64 time=0.085
EXTRACT: note_off channel=2 note=34 velocity=65 time=0
EXTRACT: note_on channel=2 note=34 velocity=74 time=0.009000000000000001
EXTRACT: note_on channel=5 note=46 velocity=63 time=0
EXTRACT: note_off channel=1 note=34 velocity=64 time=0.034
EXTRACT: note_off channel=5 note=46 velocity=64 time=0.077
EXTRACT: note_off channel=2 note=34 velocity=64 time=0
EXTRACT: note_on channel=1 note=46 velocity=122 time=0.009000000000000001
EXTRACT: note_on channel=2 note=46 velocity=125 time=0
EXTRACT: note_on channel=5 note=46 velocity=112 time=0
EXTRACT: note_on channel=8 note=58 velocity=105 time=0
EXTRACT: note_on channel=9 note=42 velocity=115 time=0
EXTRACT: note_on channel=9 note=70 velocity=107 time=0
EXTRACT: note_on channel=9 note=54 velocity=57 time=0.001
EXTRACT: note_off channel=9 note=70 velocity=65 time=0.023
EXTRACT: note_off channel=9 note=42 velocity=64 time=0
EXTRACT: note_off channel=9 note=54 velocity=64 time=0.002
EXTRACT: note_off channel=8 note=58 velocity=65 time=0.037
EXTRACT: note_off channel=5 note=46 velocity=65 time=0.048
EXTRACT: note_off channel=2 note=46 velocity=65 time=0
EXTRACT: note_on channel=2 note=46 velocity=125 time=0.009000000000000001
EXTRACT: note_on channel=5 note=46 velocity=113 time=0
EXTRACT: note_on channel=8 note=58 velocity=102 time=0
EXTRACT: note_on channel=9 note=44 velocity=99 time=0
EXTRACT: note_on channel=9 note=70 velocity=106 time=0
EXTRACT: note_off channel=9 note=70 velocity=65 time=0.024
EXTRACT: note_off channel=9 note=44 velocity=65 time=0
EXTRACT: note_off channel=1 note=46 velocity=64 time=0.02
EXTRACT: note_off channel=8 note=58 velocity=65 time=0.024
EXTRACT: note_off channel=7 note=58 velocity=65 time=0.036000000000000004
EXTRACT: note_off channel=5 note=46 velocity=65 time=0.007
EXTRACT: note_off channel=2 note=46 velocity=64 time=0
EXTRACT: note_off channel=7 note=65 velocity=65 time=0.001
EXTRACT: note_off channel=7 note=62 velocity=64 time=0.002
EXTRACT: note_off channel=6 note=86 velocity=65 time=0.001
EXTRACT: note_off channel=4 note=62 velocity=65 time=0.004
EXTRACT: note_on channel=1 note=29 velocity=122 time=0.001
EXTRACT: note_on channel=2 note=29 velocity=124 time=0
EXTRACT: note_on channel=4 note=60 velocity=1 time=0
EXTRACT: note_on channel=5 note=41 velocity=112 time=0
EXTRACT: note_on channel=7 note=65 velocity=63 time=0
EXTRACT: note_on channel=9 note=36 velocity=127 time=0
EXTRACT: note_on channel=9 note=42 velocity=122 time=0
EXTRACT: note_on channel=9 note=70 velocity=106 time=0
EXTRACT: note_on channel=9 note=54 velocity=50 time=0.003
EXTRACT: note_on channel=7 note=57 velocity=64 time=0.001
EXTRACT: note_on channel=6 note=84 velocity=64 time=0.001
EXTRACT: note_on channel=7 note=60 velocity=68 time=0.001
EXTRACT: note_off channel=3 note=82 velocity=64 time=0.002
EXTRACT: note_off channel=9 note=70 velocity=64 time=0.016
EXTRACT: note_off channel=9 note=42 velocity=64 time=0
EXTRACT: note_off channel=9 note=36 velocity=65 time=0
EXTRACT: note_off channel=9 note=54 velocity=64 time=0.004
EXTRACT: note_off channel=13 note=70 velocity=64 time=0.006
EXTRACT: note_on channel=3 note=81 velocity=117 time=0
EXTRACT: note_on channel=13 note=69 velocity=43 time=0.013000000000000001
EXTRACT: note_off channel=5 note=41 velocity=64 time=0.059000000000000004
EXTRACT: note_off channel=2 note=29 velocity=64 time=0
EXTRACT: note_on channel=2 note=29 velocity=74 time=0.009000000000000001
EXTRACT: note_on channel=5 note=41 velocity=62 time=0
EXTRACT: note_off channel=1 note=29 velocity=65 time=0.054
EXTRACT: note_off channel=5 note=41 velocity=64 time=0.057
EXTRACT: note_off channel=2 note=29 velocity=65 time=0
EXTRACT: note_on channel=1 note=41 velocity=123 time=0.009000000000000001
EXTRACT: note_on channel=2 note=41 velocity=125 time=0
EXTRACT: note_on channel=5 note=41 velocity=113 time=0
EXTRACT: note_on channel=8 note=53 velocity=100 time=0
EXTRACT: note_on channel=9 note=46 velocity=104 time=0
EXTRACT: note_on channel=9 note=70 velocity=107 time=0
EXTRACT: note_on channel=9 note=54 velocity=55 time=0.002
EXTRACT: note_off channel=9 note=70 velocity=65 time=0.022
EXTRACT: note_off channel=9 note=46 velocity=65 time=0
EXTRACT: note_off channel=9 note=54 velocity=64 time=0.003
EXTRACT: note_off channel=8 note=53 velocity=64 time=0.032
EXTRACT: note_off channel=5 note=41 velocity=65 time=0.052000000000000005
EXTRACT: note_off channel=2 note=41 velocity=65 time=0
EXTRACT: note_on channel=2 note=41 velocity=124 time=0.009000000000000001
EXTRACT: note_on channel=5 note=41 velocity=113 time=0
EXTRACT: note_on channel=8 note=53 velocity=79 time=0
EXTRACT: note_on channel=9 note=70 velocity=107 time=0
EXTRACT: note_off channel=9 note=70 velocity=65 time=0.024
EXTRACT: note_off channel=1 note=41 velocity=65 time=0
EXTRACT: note_off channel=8 note=53 velocity=64 time=0.042
EXTRACT: note_off channel=5 note=41 velocity=64 time=0.045
EXTRACT: note_off channel=2 note=41 velocity=64 time=0
EXTRACT: note_on channel=9 note=39 velocity=119 time=0.001
EXTRACT: note_on channel=9 note=54 velocity=59 time=0.007
EXTRACT: note_on channel=1 note=29 velocity=123 time=0.001
EXTRACT: note_on channel=2 note=29 velocity=125 time=0
EXTRACT: note_on channel=5 note=41 velocity=112 time=0
EXTRACT: note_on channel=9 note=36 velocity=126 time=0
EXTRACT: note_on channel=9 note=38 velocity=117 time=0
EXTRACT: note_on channel=9 note=42 velocity=110 time=0
EXTRACT: note_on channel=9 note=70 velocity=106 time=0
EXTRACT: note_off channel=9 note=39 velocity=64 time=0.017
EXTRACT: note_off channel=9 note=70 velocity=64 time=0.007
EXTRACT: note_off channel=9 note=42 velocity=65 time=0
EXTRACT: note_off channel=9 note=38 velocity=65 time=0
EXTRACT: note_off channel=9 note=36 velocity=64 time=0
EXTRACT: note_off channel=9 note=54 velocity=64 time=0
EXTRACT: note_off channel=5 note=41 velocity=65 time=0.08700000000000001
EXTRACT: note_off channel=2 note=29 velocity=64 time=0
EXTRACT: note_on channel=2 note=29 velocity=75 time=0.009000000000000001
EXTRACT: note_on channel=5 note=41 velocity=62 time=0
EXTRACT: note_off channel=1 note=29 velocity=64 time=0.034
EXTRACT: note_off channel=5 note=41 velocity=65 time=0.077
EXTRACT: note_off channel=2 note=29 velocity=65 time=0
EXTRACT: note_on channel=9 note=54 velocity=50 time=0.008
EXTRACT: note_on channel=1 note=41 velocity=122 time=0.001
EXTRACT: note_on channel=2 note=41 velocity=124 time=0
EXTRACT: note_on channel=5 note=41 velocity=113 time=0
EXTRACT: note_on channel=8 note=53 velocity=102 time=0
EXTRACT: note_on channel=9 note=42 velocity=125 time=0
EXTRACT: note_on channel=9 note=70 velocity=106 time=0
EXTRACT: note_off channel=9 note=70 velocity=65 time=0.024
EXTRACT: note_off channel=9 note=42 velocity=65 time=0
EXTRACT: note_off channel=9 note=54 velocity=64 time=0
EXTRACT: note_off channel=8 note=53 velocity=65 time=0.031
EXTRACT: note_off channel=5 note=41 velocity=64 time=0.056
EXTRACT: note_off channel=2 note=41 velocity=65 time=0
EXTRACT: note_on channel=2 note=41 velocity=125 time=0.009000000000000001
EXTRACT: note_on channel=5 note=41 velocity=113 time=0
EXTRACT: note_on channel=8 note=53 velocity=93 time=0
EXTRACT: note_on channel=9 note=44 velocity=98 time=0
EXTRACT: note_on channel=9 note=70 velocity=107 time=0
EXTRACT: note_off channel=9 note=70 velocity=64 time=0.024
EXTRACT: note_off channel=9 note=44 velocity=65 time=0
EXTRACT: note_off channel=1 note=41 velocity=64 time=0.02
EXTRACT: note_off channel=8 note=53 velocity=64 time=0.014
EXTRACT: note_off channel=5 note=41 velocity=65 time=0.053
EXTRACT: note_off channel=2 note=41 velocity=64 time=0
EXTRACT: note_off channel=3 note=81 velocity=65 time=0.003
EXTRACT: note_on channel=9 note=54 velocity=53 time=0.005
EXTRACT: note_on channel=1 note=29 velocity=122 time=0.001
EXTRACT: note_on channel=2 note=29 velocity=124 time=0
EXTRACT: note_on channel=5 note=41 velocity=112 time=0
EXTRACT: note_on channel=9 note=36 velocity=127 time=0
EXTRACT: note_on channel=9 note=42 velocity=125 time=0
EXTRACT: note_on channel=9 note=70 velocity=107 time=0
EXTRACT: note_off channel=9 note=54 velocity=64 time=0.023
EXTRACT: note_off channel=9 note=70 velocity=65 time=0.001
EXTRACT: note_off channel=9 note=42 velocity=65 time=0
EXTRACT: note_off channel=9 note=36 velocity=64 time=0
EXTRACT: note_off channel=5 note=41 velocity=64 time=0.08700000000000001
EXTRACT: note_off channel=2 note=29 velocity=64 time=0
EXTRACT: note_on channel=2 note=29 velocity=74 time=0.009000000000000001
EXTRACT: note_on channel=5 note=41 velocity=62 time=0
EXTRACT: note_off channel=1 note=29 velocity=65 time=0.054
EXTRACT: note_off channel=5 note=41 velocity=64 time=0.057
EXTRACT: note_off channel=2 note=29 velocity=65 time=0
EXTRACT: note_off channel=4 note=60 velocity=64 time=0
EXTRACT: note_on channel=3 note=79 velocity=116 time=0
EXTRACT: note_on channel=1 note=41 velocity=123 time=0.004
EXTRACT: note_on channel=2 note=41 velocity=125 time=0
EXTRACT: note_on channel=4 note=57 velocity=1 time=0
EXTRACT: note_on channel=5 note=41 velocity=113 time=0
EXTRACT: note_on channel=8 note=53 velocity=103 time=0
EXTRACT: note_on channel=9 note=46 velocity=111 time=0
EXTRACT: note_on channel=9 note=70 velocity=106 time=0
EXTRACT: note_on channel=9 note=54 velocity=50 time=0.002
EXTRACT: note_off channel=9 note=70 velocity=65 time=0.022
EXTRACT: note_off channel=9 note=46 velocity=64 time=0
EXTRACT: note_off channel=9 note=54 velocity=64 time=0.002
EXTRACT: note_off channel=8 note=53 velocity=65 time=0.032
EXTRACT: note_off channel=5 note=41 velocity=65 time=0.053
EXTRACT: note_off channel=2 note=41 velocity=64 time=0
EXTRACT: note_on channel=2 note=41 velocity=125 time=0.009000000000000001
EXTRACT: note_on channel=5 note=41 velocity=112 time=0
EXTRACT: note_on channel=8 note=53 velocity=100 time=0
EXTRACT: note_on channel=9 note=70 velocity=106 time=0
EXTRACT: note_off channel=9 note=70 velocity=65 time=0.024
EXTRACT: note_off channel=1 note=41 velocity=64 time=0
EXTRACT: note_off channel=8 note=53 velocity=65 time=0.031
EXTRACT: note_off channel=5 note=41 velocity=65 time=0.056
EXTRACT: note_off channel=2 note=41 velocity=65 time=0
EXTRACT: note_on channel=9 note=39 velocity=119 time=0.001
EXTRACT: note_on channel=1 note=29 velocity=122 time=0.008
EXTRACT: note_on channel=2 note=29 velocity=124 time=0
EXTRACT: note_on channel=5 note=41 velocity=113 time=0
EXTRACT: note_on channel=9 note=36 velocity=126 time=0
EXTRACT: note_on channel=9 note=38 velocity=116 time=0
EXTRACT: note_on channel=9 note=42 velocity=112 time=0
EXTRACT: note_on channel=9 note=70 velocity=107 time=0
EXTRACT: note_on channel=9 note=54 velocity=52 time=0.004
EXTRACT: pitchwheel channel=3 pitch=-2731 time=0.002
EXTRACT: note_off channel=9 note=39 velocity=65 time=0.011
EXTRACT: pitchwheel channel=3 pitch=-6207 time=0.003
EXTRACT: note_off channel=9 note=70 velocity=64 time=0.004
EXTRACT: note_off channel=9 note=42 velocity=64 time=0
EXTRACT: note_off channel=9 note=38 velocity=65 time=0
EXTRACT: note_off channel=9 note=36 velocity=65 time=0
EXTRACT: note_off channel=9 note=54 velocity=64 time=0.004
EXTRACT: pitchwheel channel=3 pitch=-8192 time=0.007
EXTRACT: note_off channel=5 note=41 velocity=64 time=0.076
EXTRACT: note_off channel=2 note=29 velocity=65 time=0
EXTRACT: note_on channel=2 note=29 velocity=74 time=0.009000000000000001
EXTRACT: note_on channel=5 note=41 velocity=63 time=0
EXTRACT: note_off channel=1 note=29 velocity=65 time=0.034
EXTRACT: note_on channel=12 note=71 velocity=121 time=0.006
EXTRACT: note_off channel=5 note=41 velocity=64 time=0.07100000000000001
EXTRACT: note_off channel=2 note=29 velocity=64 time=0
EXTRACT: note_on channel=1 note=41 velocity=123 time=0.009000000000000001
EXTRACT: note_on channel=2 note=41 velocity=125 time=0
EXTRACT: note_on channel=5 note=41 velocity=112 time=0
EXTRACT: note_on channel=8 note=53 velocity=105 time=0
EXTRACT: note_on channel=9 note=42 velocity=108 time=0
EXTRACT: note_on channel=9 note=55 velocity=118 time=0
EXTRACT: note_on channel=9 note=70 velocity=106 time=0
EXTRACT: note_on channel=9 note=54 velocity=53 time=0.003
EXTRACT: note_off channel=9 note=70 velocity=64 time=0.021
EXTRACT: note_off channel=9 note=55 velocity=65 time=0
EXTRACT: note_off channel=9 note=42 velocity=64 time=0
EXTRACT: note_off channel=9 note=54 velocity=65 time=0.004
EXTRACT: note_off channel=8 note=53 velocity=64 time=0.035
EXTRACT: note_off channel=5 note=41 velocity=65 time=0.048
EXTRACT: note_off channel=2 note=41 velocity=65 time=0
EXTRACT: note_on channel=2 note=41 velocity=125 time=0.009000000000000001
EXTRACT: note_on channel=5 note=41 velocity=113 time=0
EXTRACT: note_on channel=8 note=53 velocity=102 time=0
EXTRACT: note_on channel=9 note=44 velocity=99 time=0
EXTRACT: note_on channel=9 note=70 velocity=107 time=0
EXTRACT: note_off channel=9 note=70 velocity=65 time=0.024
EXTRACT: note_off channel=9 note=44 velocity=64 time=0
EXTRACT: note_off channel=1 note=41 velocity=65 time=0.02
EXTRACT: note_off channel=3 note=79 velocity=64 time=0.01
EXTRACT: note_off channel=8 note=53 velocity=65 time=0.014
EXTRACT: control_change channel=9 control=91 value=20 time=0.022
EXTRACT: note_off channel=12 note=71 velocity=65 time=0.004
EXTRACT: pitchwheel channel=3 pitch=128 time=0.006
EXTRACT: note_off channel=5 note=41 velocity=65 time=0.011
EXTRACT: note_off channel=2 note=41 velocity=64 time=0
EXTRACT: note_off channel=4 note=57 velocity=64 time=0
EXTRACT: note_on channel=1 note=33 velocity=123 time=0.009000000000000001
EXTRACT: note_on channel=2 note=33 velocity=124 time=0
EXTRACT: note_on channel=4 note=61 velocity=1 time=0
EXTRACT: note_on channel=5 note=45 velocity=112 time=0
EXTRACT: note_on channel=7 note=64 velocity=61 time=0
EXTRACT: note_on channel=9 note=36 velocity=126 time=0
EXTRACT: note_on channel=9 note=42 velocity=125 time=0
EXTRACT: note_on channel=9 note=70 velocity=107 time=0
EXTRACT: note_on channel=9 note=54 velocity=57 time=0.002
EXTRACT: note_on channel=7 note=61 velocity=67 time=0.003
EXTRACT: note_off channel=6 note=84 velocity=64 time=0.005
EXTRACT: note_on channel=6 note=88 velocity=51 time=0.004
EXTRACT: note_on channel=3 note=81 velocity=117 time=0
EXTRACT: note_off channel=9 note=70 velocity=65 time=0.005
EXTRACT: note_off channel=9 note=42 velocity=64 time=0
EXTRACT: note_off channel=9 note=36 velocity=64 time=0
EXTRACT: note_off channel=9 note=54 velocity=65 time=0.003
EXTRACT: note_off channel=7 note=65 velocity=65 time=0.004
EXTRACT: note_off channel=7 note=60 velocity=64 time=0.001
EXTRACT: note_on channel=13 note=64 velocity=42 time=0.015
EXTRACT: note_off channel=13 note=65 velocity=65 time=0.003
EXTRACT: note_off channel=5 note=45 velocity=64 time=0.044
EXTRACT: note_off channel=2 note=33 velocity=64 time=0
EXTRACT: note_on channel=2 note=33 velocity=74 time=0.009000000000000001
EXTRACT: note_on channel=5 note=45 velocity=62 time=0
EXTRACT: note_off channel=1 note=33 velocity=64 time=0.054
EXTRACT: note_off channel=5 note=45 velocity=64 time=0.057
EXTRACT: note_off channel=2 note=33 velocity=65 time=0
EXTRACT: note_on channel=1 note=45 velocity=122 time=0.009000000000000001
EXTRACT: note_on channel=2 note=45 velocity=125 time=0
EXTRACT: note_on channel=5 note=45 velocity=113 time=0
EXTRACT: note_on channel=8 note=57 velocity=92 time=0
EXTRACT: note_on channel=9 note=46 velocity=111 time=0
EXTRACT: note_on channel=9 note=70 velocity=106 time=0
EXTRACT: note_on channel=9 note=54 velocity=54 time=0.002
EXTRACT: note_off channel=9 note=70 velocity=65 time=0.022
EXTRACT: note_off channel=9 note=46 velocity=64 time=0
EXTRACT: pitchwheel channel=3 pitch=-1194 time=0.001
EXTRACT: note_off channel=9 note=54 velocity=64 time=0.002
EXTRACT: pitchwheel channel=3 pitch=-2218 time=0.018000000000000002
EXTRACT: pitchwheel channel=3 pitch=-4138 time=0.01
EXTRACT: note_off channel=8 note=57 velocity=64 time=0.008
EXTRACT: pitchwheel channel=3 pitch=-8192 time=0.006
EXTRACT: note_off channel=5 note=45 velocity=65 time=0.042
EXTRACT: note_off channel=2 note=45 velocity=65 time=0
EXTRACT: note_on channel=2 note=45 velocity=124 time=0.009000000000000001
EXTRACT: note_on channel=5 note=45 velocity=113 time=0
EXTRACT: note_on channel=8 note=57 velocity=91 time=0
EXTRACT: note_on channel=9 note=70 velocity=107 time=0
EXTRACT: note_off channel=9 note=70 velocity=65 time=0.024
EXTRACT: note_off channel=1 note=45 velocity=65 time=0
EXTRACT: note_off channel=8 note=57 velocity=64 time=0.044
EXTRACT: note_off channel=5 note=45 velocity=64 time=0.043000000000000003
EXTRACT: note_off channel=2 note=45 velocity=64 time=0
EXTRACT: note_on channel=9 note=39 velocity=118 time=0.001
EXTRACT: note_on channel=1 note=33 velocity=123 time=0.008
EXTRACT: note_on channel=2 note=33 velocity=125 time=0
EXTRACT: note_on channel=5 note=45 velocity=112 time=0
EXTRACT: note_on channel=9 note=36 velocity=127 time=0
EXTRACT: note_on channel=9 note=38 velocity=117 time=0
EXTRACT: note_on channel=9 note=42 velocity=123 time=0
EXTRACT: note_on channel=9 note=70 velocity=106 time=0
EXTRACT: note_on channel=9 note=54 velocity=54 time=0.001
EXTRACT: note_off channel=9 note=39 velocity=65 time=0.016
EXTRACT: note_off channel=9 note=70 velocity=64 time=0.007
EXTRACT: note_off channel=9 note=42 velocity=64 time=0
EXTRACT: note_off channel=9 note=38 velocity=65 time=0
EXTRACT: note_off channel=9 note=36 velocity=64 time=0
EXTRACT: note_off channel=9 note=54 velocity=65 time=0.002
EXTRACT: note_off channel=5 note=45 velocity=65 time=0.085
EXTRACT: note_off channel=2 note=33 velocity=64 time=0
EXTRACT: note_on channel=2 note=33 velocity=75 time=0.009000000000000001
EXTRACT: note_on channel=5 note=45 velocity=62 time=0
EXTRACT: note_off channel=1 note=33 velocity=64 time=0.034
EXTRACT: note_off channel=5 note=45 velocity=65 time=0.077
EXTRACT: note_off channel=2 note=33 velocity=65 time=0
EXTRACT: note_on channel=1 note=45 velocity=122 time=0.009000000000000001
EXTRACT: note_on channel=2 note=45 velocity=124 time=0
EXTRACT: note_on channel=5 note=45 velocity=113 time=0
EXTRACT: note_on channel=8 note=57 velocity=89 time=0
EXTRACT: note_on channel=9 note=42 velocity=116 time=0
EXTRACT: note_on channel=9 note=70 velocity=106 time=0
EXTRACT: note_on channel=9 note=54 velocity=53 time=0
EXTRACT: note_off channel=9 note=70 velocity=65 time=0.024
EXTRACT: note_off channel=9 note=42 velocity=64 time=0
EXTRACT: note_off channel=9 note=54 velocity=65 time=0.001
EXTRACT: note_off channel=8 note=57 velocity=65 time=0.041
EXTRACT: note_off channel=5 note=45 velocity=64 time=0.045
EXTRACT: note_off channel=2 note=45 velocity=65 time=0
EXTRACT: note_on channel=2 note=45 velocity=125 time=0.009000000000000001
EXTRACT: note_on channel=5 note=45 velocity=113 time=0
EXTRACT: note_on channel=8 note=57 velocity=98 time=0
EXTRACT: note_on channel=9 note=44 velocity=99 time=0
EXTRACT: note_on channel=9 note=70 velocity=107 time=0
EXTRACT: note_off channel=9 note=70 velocity=64 time=0.024
EXTRACT: note_off channel=9 note=44 velocity=64 time=0
EXTRACT: note_off channel=1 note=45 velocity=64 time=0.02
EXTRACT: note_off channel=8 note=57 velocity=65 time=0.032
EXTRACT: pitchwheel channel=3 pitch=-5379 time=0.033
EXTRACT: note_off channel=5 note=45 velocity=65 time=0.002
EXTRACT: note_off channel=2 note=45 velocity=64 time=0
EXTRACT: note_on channel=1 note=33 velocity=122 time=0.009000000000000001
EXTRACT: note_on channel=2 note=33 velocity=124 time=0
EXTRACT: note_on channel=5 note=45 velocity=112 time=0
EXTRACT: note_on channel=9 note=36 velocity=127 time=0
EXTRACT: note_on channel=9 note=42 velocity=124 time=0
EXTRACT: note_on channel=9 note=70 velocity=107 time=0
EXTRACT: note_on channel=9 note=54 velocity=49 time=0.001
EXTRACT: pitchwheel channel=3 pitch=-617 time=0.002
EXTRACT: pitchwheel channel=3 pitch=128 time=0.015
EXTRACT: note_off channel=9 note=70 velocity=65 time=0.006
EXTRACT: note_off channel=9 note=42 velocity=65 time=0
EXTRACT: note_off channel=9 note=36 velocity=64 time=0
EXTRACT: note_off channel=9 note=54 velocity=64 time=0.002
EXTRACT: note_off channel=5 note=45 velocity=64 time=0.085
EXTRACT: note_off channel=2 note=33 velocity=64 time=0
EXTRACT: note_on channel=2 note=33 velocity=74 time=0.009000000000000001
EXTRACT: note_on channel=5 note=45 velocity=62 time=0
EXTRACT: note_off channel=1 note=33 velocity=65 time=0.054
EXTRACT: note_off channel=5 note=45 velocity=64 time=0.057
EXTRACT: note_off channel=2 note=33 velocity=65 time=0
EXTRACT: note_on channel=1 note=45 velocity=123 time=0.009000000000000001
EXTRACT: note_on channel=2 note=45 velocity=125 time=0
EXTRACT: note_on channel=5 note=45 velocity=113 time=0
EXTRACT: note_on channel=8 note=57 velocity=88 time=0
EXTRACT: note_on channel=9 note=46 velocity=106 time=0
EXTRACT: note_on channel=9 note=54 velocity=52 time=0
EXTRACT: note_on channel=9 note=70 velocity=106 time=0
EXTRACT: note_off channel=9 note=70 velocity=65 time=0.024
EXTRACT: note_off channel=9 note=54 velocity=65 time=0
EXTRACT: note_off channel=9 note=46 velocity=64 time=0
EXTRACT: note_off channel=8 note=57 velocity=64 time=0.039
EXTRACT: note_off channel=5 note=45 velocity=65 time=0.048
EXTRACT: note_off channel=2 note=45 velocity=64 time=0
EXTRACT: note_on channel=2 note=45 velocity=125 time=0.009000000000000001
EXTRACT: note_on channel=5 note=45 velocity=112 time=0
EXTRACT: note_on channel=8 note=57 velocity=103 time=0
EXTRACT: note_on channel=9 note=70 velocity=106 time=0
EXTRACT: note_off channel=9 note=70 velocity=64 time=0.024
EXTRACT: note_off channel=1 note=45 velocity=65 time=0
EXTRACT: note_off channel=8 note=57 velocity=64 time=0.05
EXTRACT: note_off channel=5 note=45 velocity=65 time=0.037
EXTRACT: note_off channel=2 note=45 velocity=65 time=0
EXTRACT: note_on channel=9 note=39 velocity=118 time=0.001
EXTRACT: note_on channel=1 note=33 velocity=123 time=0.008
EXTRACT: note_on channel=2 note=33 velocity=124 time=0
EXTRACT: note_on channel=5 note=45 velocity=113 time=0
EXTRACT: note_on channel=9 note=36 velocity=126 time=0
EXTRACT: note_on channel=9 note=38 velocity=117 time=0
EXTRACT: note_on channel=9 note=42 velocity=117 time=0
EXTRACT: note_on channel=9 note=70 velocity=107 time=0
EXTRACT: control_change channel=7 control=11 value=120 time=0
EXTRACT: note_on channel=9 note=54 velocity=52 time=0.001
EXTRACT: note_off channel=9 note=39 velocity=65 time=0.016
EXTRACT: note_off channel=9 note=70 velocity=64 time=0.007
EXTRACT: note_off channel=9 note=42 velocity=65 time=0
EXTRACT: note_off channel=9 note=38 velocity=65 time=0
EXTRACT: note_off channel=9 note=36 velocity=64 time=0
EXTRACT: note_off channel=9 note=54 velocity=65 time=0.001
EXTRACT: note_off channel=5 note=45 velocity=64 time=0.08600000000000001
EXTRACT: note_off channel=2 note=33 velocity=65 time=0
EXTRACT: note_on channel=2 note=33 velocity=74 time=0.009000000000000001
EXTRACT: note_on channel=5 note=45 velocity=63 time=0
EXTRACT: note_off channel=1 note=33 velocity=64 time=0.034
EXTRACT: control_change channel=7 control=11 value=115 time=0.006
EXTRACT: note_off channel=5 note=45 velocity=64 time=0.07100000000000001
EXTRACT: note_off channel=2 note=33 velocity=64 time=0
EXTRACT: note_on channel=9 note=54 velocity=55 time=0.008
EXTRACT: note_on channel=1 note=45 velocity=122 time=0.001
EXTRACT: note_on channel=2 note=45 velocity=125 time=0
EXTRACT: note_on channel=5 note=45 velocity=112 time=0
EXTRACT: note_on channel=8 note=57 velocity=91 time=0
EXTRACT: note_on channel=9 note=42 velocity=116 time=0
EXTRACT: note_on channel=9 note=70 velocity=107 time=0
EXTRACT: note_off channel=9 note=70 velocity=64 time=0.024
EXTRACT: note_off channel=9 note=42 velocity=64 time=0
EXTRACT: note_off channel=9 note=54 velocity=65 time=0
EXTRACT: control_change channel=7 control=11 value=111 time=0.016
EXTRACT: note_off channel=8 note=57 velocity=65 time=0.031
EXTRACT: note_off channel=5 note=45 velocity=65 time=0.04
EXTRACT: note_off channel=2 note=45 velocity=65 time=0
EXTRACT: note_on channel=2 note=45 velocity=125 time=0.009000000000000001
EXTRACT: note_on channel=5 note=45 velocity=113 time=0
EXTRACT: note_on channel=8 note=57 velocity=94 time=0
EXTRACT: note_on channel=9 note=70 velocity=106 time=0
EXTRACT: control_change channel=7 control=11 value=104 time=0
EXTRACT: note_off channel=9 note=70 velocity=65 time=0.024
EXTRACT: note_off channel=1 note=45 velocity=64 time=0.02
EXTRACT: note_off channel=8 note=57 velocity=65 time=0.026000000000000002
EXTRACT: note_off channel=5 note=45 velocity=65 time=0.041
EXTRACT: note_off channel=2 note=45 velocity=64 time=0
EXTRACT: note_off channel=6 note=88 velocity=65 time=0.003
EXTRACT: note_off channel=4 note=61 velocity=65 time=0
EXTRACT: note_on channel=1 note=33 velocity=94 time=0.006
EXTRACT: note_on channel=2 note=33 velocity=124 time=0
EXTRACT: note_on channel=5 note=45 velocity=112 time=0
EXTRACT: control_change channel=7 control=11 value=101 time=0
EXTRACT: note_off channel=13 note=64 velocity=65 time=0.009000000000000001
EXTRACT: note_off channel=13 note=69 velocity=64 time=0.01
EXTRACT: note_off channel=3 note=81 velocity=65 time=0.084
EXTRACT: note_off channel=5 note=45 velocity=64 time=0.008
EXTRACT: note_off channel=2 note=33 velocity=64 time=0
EXTRACT: note_on channel=2 note=33 velocity=60 time=0.009000000000000001
EXTRACT: note_on channel=5 note=45 velocity=62 time=0
EXTRACT: control_change channel=7 control=11 value=94 time=0
EXTRACT: note_off channel=1 note=33 velocity=65 time=0.054
EXTRACT: control_change channel=2 control=6 value=60 time=0.026000000000000002
EXTRACT: control_change channel=7 control=11 value=90 time=0
EXTRACT: note_off channel=5 note=45 velocity=64 time=0.031
EXTRACT: note_off channel=2 note=33 velocity=65 time=0
EXTRACT: note_on channel=1 note=45 velocity=57 time=0.009000000000000001
EXTRACT: note_on channel=2 note=45 velocity=111 time=0
EXTRACT: note_on channel=5 note=45 velocity=103 time=0
EXTRACT: note_on channel=8 note=57 velocity=68 time=0
EXTRACT: note_on channel=3 note=77 velocity=117 time=0
EXTRACT: control_change channel=7 control=11 value=85 time=0.013000000000000001
EXTRACT: note_off channel=8 note=57 velocity=64 time=0.038
EXTRACT: note_off channel=5 note=45 velocity=65 time=0.033
EXTRACT: note_off channel=2 note=45 velocity=65 time=0
EXTRACT: note_on channel=2 note=45 velocity=94 time=0.009000000000000001
EXTRACT: note_on channel=5 note=45 velocity=103 time=0
EXTRACT: note_on channel=8 note=57 velocity=75 time=0
EXTRACT: note_off channel=1 note=45 velocity=65 time=0.024
EXTRACT: control_change channel=2 control=6 value=55 time=0.016
EXTRACT: control_change channel=7 control=11 value=81 time=0
EXTRACT: note_off channel=8 note=57 velocity=64 time=0.025
EXTRACT: note_off channel=5 note=45 velocity=64 time=0.046
EXTRACT: note_off channel=2 note=45 velocity=64 time=0
EXTRACT: note_off channel=3 note=77 velocity=65 time=0.003
EXTRACT: note_on channel=1 note=33 velocity=47 time=0.006
EXTRACT: note_on channel=2 note=33 velocity=95 time=0
EXTRACT: note_on channel=5 note=45 velocity=92 time=0
EXTRACT: control_change channel=7 control=11 value=74 time=0
EXTRACT: note_on channel=3 note=79 velocity=116 time=0
EXTRACT: note_off channel=5 note=45 velocity=65 time=0.061
EXTRACT: note_off channel=2 note=33 velocity=64 time=0
EXTRACT: note_on channel=2 note=33 velocity=45 time=0.009000000000000001
EXTRACT: note_on channel=5 note=45 velocity=42 time=0
EXTRACT: control_change channel=7 control=11 value=70 time=0
EXTRACT: note_off channel=1 note=33 velocity=64 time=0.034
EXTRACT: control_change channel=2 control=6 value=50 time=0.006
EXTRACT: note_off channel=5 note=45 velocity=65 time=0.07100000000000001
EXTRACT: note_off channel=2 note=33 velocity=65 time=0
EXTRACT: note_on channel=1 note=45 velocity=24 time=0.009000000000000001
EXTRACT: note_on channel=2 note=45 velocity=80 time=0
EXTRACT: note_on channel=5 note=45 velocity=73 time=0
EXTRACT: note_on channel=8 note=57 velocity=42 time=0
EXTRACT: control_change channel=7 control=11 value=65 time=0
EXTRACT: note_on channel=3 note=77 velocity=117 time=0
EXTRACT: note_off channel=3 note=79 velocity=64 time=0.001
EXTRACT: note_off channel=8 note=57 velocity=65 time=0.041
EXTRACT: note_off channel=7 note=64 velocity=64 time=0.012
EXTRACT: note_off channel=7 note=57 velocity=65 time=0
EXTRACT: control_change channel=7 control=11 value=61 time=0.006
EXTRACT: control_change channel=11 control=1 value=20 time=0
EXTRACT: note_off channel=5 note=45 velocity=64 time=0.031
EXTRACT: note_off channel=2 note=45 velocity=65 time=0
EXTRACT: note_on channel=2 note=45 velocity=81 time=0.009000000000000001
EXTRACT: note_on channel=5 note=45 velocity=73 time=0
EXTRACT: note_on channel=8 note=57 velocity=39 time=0
EXTRACT: note_off channel=7 note=61 velocity=65 time=0.034
EXTRACT: note_off channel=1 note=45 velocity=64 time=0.01
EXTRACT: note_on channel=12 note=78 velocity=113 time=0.016
EXTRACT: note_off channel=8 note=57 velocity=64 time=0.019
EXTRACT: control_change channel=2 control=6 value=45 time=0.001
EXTRACT: control_change channel=7 control=11 value=54 time=0
EXTRACT: note_off channel=5 note=45 velocity=65 time=0.031
EXTRACT: note_off channel=2 note=45 velocity=64 time=0
EXTRACT: note_on channel=1 note=33 velocity=6 time=0.009000000000000001
EXTRACT: note_on channel=2 note=33 velocity=80 time=0
EXTRACT: note_on channel=5 note=45 velocity=72 time=0
EXTRACT: note_off channel=3 note=77 velocity=65 time=0.009000000000000001
EXTRACT: note_on channel=3 note=79 velocity=116 time=0
EXTRACT: note_on channel=12 note=81 velocity=116 time=0.084
EXTRACT: note_off channel=5 note=45 velocity=64 time=0.011
EXTRACT: note_off channel=2 note=33 velocity=64 time=0
EXTRACT: note_on channel=2 note=33 velocity=27 time=0.009000000000000001
EXTRACT: note_on channel=5 note=45 velocity=12 time=0
EXTRACT: note_off channel=1 note=33 velocity=65 time=0.054
EXTRACT: note_off channel=5 note=45 velocity=64 time=0.057
EXTRACT: note_off channel=2 note=33 velocity=65 time=0
EXTRACT: note_on channel=2 note=45 velocity=76 time=0.009000000000000001
EXTRACT: note_on channel=5 note=45 velocity=52 time=0
EXTRACT: note_on channel=8 note=57 velocity=18 time=0
EXTRACT: control_change channel=2 control=6 value=40 time=0
EXTRACT: note_off channel=3 note=79 velocity=64 time=0
EXTRACT: note_on channel=3 note=77 velocity=116 time=0
EXTRACT: note_on channel=6 note=74 velocity=5 time=0.011
EXTRACT: note_on channel=11 note=86 velocity=29 time=0
EXTRACT: note_on channel=14 note=74 velocity=24 time=0
EXTRACT: note_off channel=8 note=57 velocity=65 time=0.045
EXTRACT: control_change channel=2 control=6 value=35 time=0.014
EXTRACT: note_on channel=6 note=77 velocity=29 time=0.016
EXTRACT: note_on channel=11 note=89 velocity=46 time=0
EXTRACT: note_on channel=14 note=77 velocity=37 time=0
EXTRACT: note_off channel=5 note=45 velocity=65 time=0.015
EXTRACT: note_off channel=2 note=45 velocity=64 time=0
EXTRACT: note_off channel=14 note=74 velocity=64 time=0.003
EXTRACT: note_off channel=11 note=86 velocity=64 time=0
EXTRACT: note_off channel=6 note=74 velocity=65 time=0
EXTRACT: note_on channel=2 note=45 velocity=77 time=0.006
EXTRACT: note_on channel=5 note=45 velocity=53 time=0
EXTRACT: note_on channel=8 note=57 velocity=31 time=0
EXTRACT: note_on channel=6 note=81 velocity=30 time=0.052000000000000005
EXTRACT: note_on channel=11 note=93 velocity=46 time=0
EXTRACT: note_on channel=14 note=81 velocity=33 time=0
EXTRACT: note_off channel=14 note=77 velocity=64 time=0.022
EXTRACT: note_off channel=11 note=89 velocity=64 time=0
EXTRACT: note_off channel=6 note=77 velocity=64 time=0
EXTRACT: note_off channel=8 note=57 velocity=65 time=0.013000000000000001
EXTRACT: note_off channel=5 note=45 velocity=65 time=0.024
EXTRACT: note_off channel=2 note=45 velocity=65 time=0
EXTRACT: note_on channel=2 note=33 velocity=65 time=0.009000000000000001
EXTRACT: note_on channel=5 note=45 velocity=42 time=0
EXTRACT: note_on channel=9 note=27 velocity=56 time=0
EXTRACT: note_on channel=9 note=87 velocity=92 time=0
EXTRACT: note_on channel=6 note=86 velocity=31 time=0.001
EXTRACT: note_on channel=11 note=98 velocity=49 time=0
EXTRACT: note_on channel=14 note=86 velocity=30 time=0
EXTRACT: note_off channel=9 note=87 velocity=64 time=0.023
EXTRACT: note_off channel=9 note=27 velocity=64 time=0
EXTRACT: note_off channel=14 note=81 velocity=65 time=0
EXTRACT: note_off channel=11 note=93 velocity=65 time=0
EXTRACT: note_off channel=6 note=81 velocity=65 time=0
EXTRACT: control_change channel=2 control=6 value=30 time=0.016
EXTRACT: note_off channel=5 note=45 velocity=64 time=0.07100000000000001
EXTRACT: note_off channel=2 note=33 velocity=65 time=0
EXTRACT: note_on channel=2 note=33 velocity=18 time=0.009000000000000001
EXTRACT: note_on channel=5 note=45 velocity=1 time=0
EXTRACT: note_off channel=14 note=86 velocity=65 time=0.034
EXTRACT: note_off channel=11 note=98 velocity=65 time=0
EXTRACT: note_off channel=6 note=86 velocity=64 time=0
EXTRACT: note_off channel=3 note=77 velocity=64 time=0.076
EXTRACT: note_off channel=5 note=45 velocity=64 time=0.001
EXTRACT: note_off channel=2 note=33 velocity=64 time=0
EXTRACT: note_on channel=6 note=86 velocity=52 time=0.002
EXTRACT: note_on channel=11 note=98 velocity=31 time=0
EXTRACT: note_on channel=14 note=86 velocity=76 time=0
EXTRACT: note_on channel=2 note=45 velocity=62 time=0.007
EXTRACT: note_on channel=5 note=45 velocity=31 time=0
EXTRACT: note_on channel=8 note=57 velocity=1 time=0
EXTRACT: note_on channel=3 note=77 velocity=117 time=0
EXTRACT: note_on channel=6 note=81 velocity=57 time=0.023
EXTRACT: note_on channel=11 note=93 velocity=46 time=0
EXTRACT: note_on channel=14 note=81 velocity=74 time=0
EXTRACT: note_off channel=14 note=86 velocity=64 time=0.001
EXTRACT: note_off channel=11 note=98 velocity=64 time=0
EXTRACT: note_off channel=6 note=86 velocity=64 time=0
EXTRACT: note_off channel=8 note=57 velocity=64 time=0.01
EXTRACT: note_off channel=5 note=45 velocity=65 time=0.018000000000000002
EXTRACT: note_off channel=2 note=45 velocity=65 time=0
EXTRACT: note_on channel=2 note=45 velocity=54 time=0.009000000000000001
EXTRACT: note_on channel=5 note=45 velocity=31 time=0
EXTRACT: note_on channel=8 note=57 velocity=2 time=0
EXTRACT: note_off channel=14 note=81 velocity=64 time=0.034
EXTRACT: note_off channel=11 note=93 velocity=64 time=0
EXTRACT: note_off channel=6 note=81 velocity=65 time=0
EXTRACT: note_on channel=6 note=77 velocity=79 time=0.003
EXTRACT: note_on channel=11 note=89 velocity=73 time=0
EXTRACT: note_on channel=14 note=77 velocity=73 time=0
EXTRACT: note_off channel=3 note=77 velocity=65 time=0.037
EXTRACT: note_off channel=8 note=57 velocity=65 time=0.005
EXTRACT: control_change channel=2 control=6 value=64 time=0.001
EXTRACT: control_change channel=7 control=11 value=126 time=0
EXTRACT: note_off channel=14 note=77 velocity=65 time=0.024
EXTRACT: note_off channel=11 note=89 velocity=65 time=0
EXTRACT: note_off channel=6 note=77 velocity=65 time=0
EXTRACT: note_off channel=5 note=45 velocity=65 time=0.007
EXTRACT: note_off channel=2 note=45 velocity=64 time=0
EXTRACT: note_on channel=1 note=26 velocity=122 time=0
EXTRACT: note_on channel=2 note=38 velocity=125 time=0
EXTRACT: note_on channel=4 note=60 velocity=1 time=0
EXTRACT: note_on channel=4 note=64 velocity=1 time=0
EXTRACT: note_on channel=5 note=38 velocity=113 time=0
EXTRACT: note_on channel=9 note=36 velocity=126 time=0
EXTRACT: note_on channel=9 note=49 velocity=82 time=0
EXTRACT: note_on channel=9 note=70 velocity=106 time=0
EXTRACT: note_on channel=13 note=62 velocity=57 time=0
EXTRACT: note_on channel=13 note=65 velocity=52 time=0
EXTRACT: control_change channel=1 control=6 value=43 time=0
EXTRACT: note_on channel=10 note=65 velocity=98 time=0.005
EXTRACT: note_on channel=13 note=69 velocity=62 time=0
EXTRACT: note_on channel=6 note=74 velocity=72 time=0.002
EXTRACT: note_on channel=11 note=86 velocity=79 time=0
EXTRACT: note_on channel=14 note=74 velocity=78 time=0
EXTRACT: note_off channel=12 note=81 velocity=65 time=0.007
EXTRACT: note_on channel=10 note=62 velocity=99 time=0.001
EXTRACT: note_on channel=3 note=79 velocity=117 time=0.002
EXTRACT: note_off channel=9 note=70 velocity=65 time=0.007
EXTRACT: note_off channel=9 note=49 velocity=65 time=0
EXTRACT: note_off channel=9 note=36 velocity=64 time=0
EXTRACT: note_off channel=12 note=78 velocity=64 time=0.01
EXTRACT: note_off channel=5 note=38 velocity=64 time=0.077
EXTRACT: note_off channel=2 note=38 velocity=64 time=0
EXTRACT: note_on channel=2 note=38 velocity=75 time=0.009000000000000001
EXTRACT: note_on channel=5 note=38 velocity=63 time=0
EXTRACT: note_off channel=1 note=26 velocity=64 time=0.084
EXTRACT: note_off channel=5 note=38 velocity=64 time=0.027
EXTRACT: note_off channel=2 note=38 velocity=65 time=0
EXTRACT: note_off channel=4 note=64 velocity=64 time=0
EXTRACT: note_off channel=4 note=60 velocity=65 time=0
EXTRACT: note_on channel=8 note=62 velocity=95 time=0.006
EXTRACT: note_on channel=8 note=65 velocity=100 time=0
EXTRACT: note_on channel=1 note=38 velocity=122 time=0.003
EXTRACT: note_on channel=2 note=50 velocity=124 time=0
EXTRACT: note_on channel=4 note=62 velocity=1 time=0
EXTRACT: note_on channel=4 note=65 velocity=1 time=0
EXTRACT: note_on channel=5 note=38 velocity=112 time=0
EXTRACT: note_on channel=9 note=46 velocity=112 time=0
EXTRACT: note_on channel=9 note=70 velocity=107 time=0
EXTRACT: note_on channel=3 note=81 velocity=116 time=0.003
EXTRACT: note_off channel=3 note=79 velocity=65 time=0.007
EXTRACT: note_off channel=9 note=70 velocity=64 time=0.014
EXTRACT: note_off channel=9 note=46 velocity=65 time=0
EXTRACT: note_off channel=8 note=65 velocity=64 time=0.019
EXTRACT: note_off channel=8 note=62 velocity=64 time=0
EXTRACT: note_off channel=5 note=38 velocity=65 time=0.043000000000000003
EXTRACT: note_off channel=2 note=50 velocity=65 time=0
EXTRACT: note_on channel=8 note=62 velocity=73 time=0.006
EXTRACT: note_on channel=8 note=65 velocity=78 time=0
EXTRACT: note_on channel=2 note=50 velocity=124 time=0.003
EXTRACT: note_on channel=5 note=38 velocity=113 time=0
EXTRACT: note_on channel=9 note=70 velocity=86 time=0
EXTRACT: note_off channel=9 note=70 velocity=64 time=0.024
EXTRACT: control_change channel=14 control=1 value=15 time=0.016
EXTRACT: note_off channel=8 note=65 velocity=65 time=0.024
EXTRACT: note_off channel=8 note=62 velocity=65 time=0
EXTRACT: note_off channel=1 note=38 velocity=65 time=0.035
EXTRACT: note_off channel=5 note=38 velocity=64 time=0.012
EXTRACT: note_off channel=2 note=50 velocity=64 time=0
EXTRACT: note_on channel=9 note=39 velocity=119 time=0.001
EXTRACT: note_on channel=1 note=26 velocity=123 time=0.008
EXTRACT: note_on channel=2 note=38 velocity=125 time=0
EXTRACT: note_on channel=4 note=60 velocity=1 time=0
EXTRACT: note_on channel=4 note=64 velocity=1 time=0
EXTRACT: note_on channel=5 note=38 velocity=112 time=0
EXTRACT: note_on channel=9 note=36 velocity=127 time=0
EXTRACT: note_on channel=9 note=38 velocity=116 time=0
EXTRACT: note_on channel=9 note=42 velocity=119 time=0
EXTRACT: note_on channel=9 note=70 velocity=107 time=0
EXTRACT: note_off channel=4 note=65 velocity=65 time=0.006
EXTRACT: note_off channel=4 note=62 velocity=64 time=0
EXTRACT: note_off channel=3 note=81 velocity=64 time=0.003
EXTRACT: note_off channel=9 note=39 velocity=65 time=0.008
EXTRACT: note_off channel=9 note=70 velocity=65 time=0.007
EXTRACT: note_off channel=9 note=42 velocity=64 time=0
EXTRACT: note_off channel=9 note=38 velocity=65 time=0
EXTRACT: note_off channel=9 note=36 velocity=64 time=0
EXTRACT: note_on channel=3 note=79 velocity=116 time=0
EXTRACT: note_off channel=5 note=38 velocity=65 time=0.083
EXTRACT: note_off channel=2 note=38 velocity=64 time=0
EXTRACT: note_on channel=2 note=38 velocity=74 time=0.009000000000000001
EXTRACT: note_on channel=5 note=38 velocity=62 time=0
EXTRACT: note_off channel=1 note=26 velocity=65 time=0.069
EXTRACT: note_off channel=3 note=79 velocity=64 time=0.038
EXTRACT: note_off channel=5 note=38 velocity=65 time=0.004
EXTRACT: note_off channel=2 note=38 velocity=65 time=0
EXTRACT: note_off channel=4 note=64 velocity=65 time=0
EXTRACT: note_off channel=4 note=60 velocity=64 time=0
EXTRACT: note_on channel=8 note=62 velocity=96 time=0.006
EXTRACT: note_on channel=8 note=65 velocity=103 time=0
EXTRACT: note_on channel=1 note=38 velocity=122 time=0.003
EXTRACT: note_on channel=2 note=50 velocity=125 time=0
EXTRACT: note_on channel=4 note=62 velocity=1 time=0
EXTRACT: note_on channel=4 note=65 velocity=1 time=0
EXTRACT: note_on channel=5 note=38 velocity=113 time=0
EXTRACT: note_on channel=9 note=42 velocity=117 time=0
EXTRACT: note_on channel=9 note=70 velocity=107 time=0
EXTRACT: note_on channel=3 note=81 velocity=117 time=0
EXTRACT: note_off channel=9 note=70 velocity=64 time=0.016
EXTRACT: note_off channel=9 note=42 velocity=65 time=0
EXTRACT: note_off channel=8 note=65 velocity=64 time=0.029
EXTRACT: note_off channel=8 note=62 velocity=64 time=0
EXTRACT: note_off channel=5 note=38 velocity=64 time=0.058
EXTRACT: note_off channel=2 note=50 velocity=65 time=0
EXTRACT: note_on channel=8 note=62 velocity=89 time=0.006
EXTRACT: note_on channel=8 note=65 velocity=92 time=0
EXTRACT: note_on channel=2 note=50 velocity=125 time=0.003
EXTRACT: note_on channel=5 note=38 velocity=113 time=0
EXTRACT: note_on channel=9 note=44 velocity=98 time=0
EXTRACT: note_on channel=9 note=70 velocity=86 time=0
EXTRACT: control_change channel=13 control=6 value=52 time=0
EXTRACT: note_off channel=9 note=70 velocity=65 time=0.024
EXTRACT: note_off channel=9 note=44 velocity=64 time=0
EXTRACT: note_off channel=8 note=65 velocity=65 time=0.032
EXTRACT: note_off channel=8 note=62 velocity=65 time=0
EXTRACT: note_off channel=3 note=81 velocity=65 time=0
EXTRACT: note_off channel=1 note=38 velocity=64 time=0.043000000000000003
EXTRACT: pitchwheel channel=3 pitch=-8070 time=0.004
EXTRACT: note_off channel=5 note=38 velocity=65 time=0.008
EXTRACT: note_off channel=2 note=50 velocity=64 time=0
EXTRACT: note_off channel=4 note=65 velocity=64 time=0
EXTRACT: note_off channel=4 note=62 velocity=65 time=0
EXTRACT: note_on channel=1 note=26 velocity=123 time=0.009000000000000001
EXTRACT: note_on channel=2 note=38 velocity=124 time=0
EXTRACT: note_on channel=4 note=62 velocity=1 time=0
EXTRACT: note_on channel=4 note=65 velocity=1 time=0
EXTRACT: note_on channel=5 note=38 velocity=112 time=0
EXTRACT: note_on channel=9 note=36 velocity=127 time=0
EXTRACT: note_on channel=9 note=42 velocity=124 time=0
EXTRACT: note_on channel=9 note=70 velocity=107 time=0
EXTRACT: note_on channel=3 note=81 velocity=117 time=0
EXTRACT: pitchwheel channel=3 pitch=-6150 time=0.02
EXTRACT: note_off channel=9 note=70 velocity=64 time=0.001
EXTRACT: note_off channel=9 note=42 velocity=65 time=0
EXTRACT: note_off channel=9 note=36 velocity=65 time=0
EXTRACT: pitchwheel channel=3 pitch=-4870 time=0.009000000000000001
EXTRACT: pitchwheel channel=3 pitch=-3718 time=0.01
EXTRACT: pitchwheel channel=3 pitch=-2694 time=0.01
EXTRACT: pitchwheel channel=3 pitch=-1286 time=0.01
EXTRACT: pitchwheel channel=3 pitch=250 time=0.02
EXTRACT: note_off channel=5 note=38 velocity=64 time=0.028
EXTRACT: note_off channel=2 note=38 velocity=64 time=0
EXTRACT: note_off channel=6 note=74 velocity=64 time=0.003
EXTRACT: note_on channel=2 note=38 velocity=75 time=0.006
EXTRACT: note_on channel=5 note=38 velocity=62 time=0
EXTRACT: note_off channel=14 note=74 velocity=65 time=0.054
EXTRACT: note_off channel=11 note=86 velocity=65 time=0
EXTRACT: control_change channel=1 control=6 value=45 time=0.036000000000000004
EXTRACT: note_off channel=1 note=26 velocity=65 time=0.009000000000000001
EXTRACT: note_off channel=5 note=38 velocity=64 time=0.012
EXTRACT: note_off channel=2 note=38 velocity=65 time=0
EXTRACT: note_on channel=8 note=62 velocity=96 time=0.006
EXTRACT: note_on channel=8 note=65 velocity=103 time=0
EXTRACT: note_on channel=1 note=38 velocity=123 time=0.003
EXTRACT: note_on channel=2 note=50 velocity=124 time=0
EXTRACT: note_on channel=5 note=38 velocity=113 time=0
EXTRACT: note_on channel=9 note=46 velocity=111 time=0
EXTRACT: note_on channel=9 note=70 velocity=106 time=0
EXTRACT: note_on channel=6 note=74 velocity=73 time=0.001
EXTRACT: note_on channel=11 note=86 velocity=76 time=0
EXTRACT: note_on channel=14 note=74 velocity=77 time=0
EXTRACT: note_off channel=9 note=70 velocity=64 time=0.023
EXTRACT: note_off channel=9 note=46 velocity=64 time=0
EXTRACT: note_off channel=8 note=65 velocity=64 time=0.032
EXTRACT: note_off channel=8 note=62 velocity=64 time=0
EXTRACT: note_on channel=6 note=77 velocity=82 time=0.02
EXTRACT: note_on channel=11 note=89 velocity=89 time=0
EXTRACT: note_on channel=14 note=77 velocity=89 time=0
EXTRACT: note_off channel=14 note=74 velocity=64 time=0.018000000000000002
EXTRACT: note_off channel=11 note=86 velocity=64 time=0
EXTRACT: note_off channel=6 note=74 velocity=64 time=0
EXTRACT: note_off channel=5 note=38 velocity=65 time=0.017
EXTRACT: note_off channel=2 note=50 velocity=64 time=0
EXTRACT: note_on channel=8 note=62 velocity=95 time=0.006
EXTRACT: note_on channel=8 note=65 velocity=100 time=0
EXTRACT: note_on channel=2 note=50 velocity=124 time=0.003
EXTRACT: note_on channel=5 note=38 velocity=113 time=0
EXTRACT: note_on channel=9 note=70 velocity=86 time=0
EXTRACT: note_off channel=9 note=70 velocity=65 time=0.024
EXTRACT: note_on channel=6 note=81 velocity=62 time=0.008
EXTRACT: note_on channel=11 note=93 velocity=78 time=0
EXTRACT: note_on channel=14 note=81 velocity=78 time=0
EXTRACT: note_off channel=3 note=81 velocity=65 time=0.017
EXTRACT: note_off channel=8 note=65 velocity=65 time=0.004
EXTRACT: note_off channel=8 note=62 velocity=64 time=0
EXTRACT: note_off channel=14 note=77 velocity=64 time=0.001
EXTRACT: note_off channel=11 note=89 velocity=64 time=0
EXTRACT: note_off channel=6 note=77 velocity=65 time=0
EXTRACT: note_off channel=1 note=38 velocity=64 time=0.03
EXTRACT: note_on channel=6 note=86 velocity=73 time=0.017
EXTRACT: note_on channel=11 note=98 velocity=82 time=0
EXTRACT: note_on channel=14 note=86 velocity=83 time=0
EXTRACT: note_on channel=3 note=79 velocity=116 time=0
EXTRACT: note_off channel=5 note=38 velocity=65 time=0
EXTRACT: note_off channel=2 note=50 velocity=65 time=0
EXTRACT: note_off channel=4 note=65 velocity=65 time=0
EXTRACT: note_off channel=4 note=62 velocity=64 time=0
EXTRACT: note_on channel=9 note=39 velocity=119 time=0.001
EXTRACT: note_on channel=1 note=26 velocity=122 time=0.008
EXTRACT: note_on channel=2 note=38 velocity=125 time=0
EXTRACT: note_on channel=4 note=60 velocity=1 time=0
EXTRACT: note_on channel=4 note=64 velocity=1 time=0
EXTRACT: note_on channel=5 note=38 velocity=112 time=0
EXTRACT: note_on channel=9 note=36 velocity=126 time=0
EXTRACT: note_on channel=9 note=38 velocity=117 time=0
EXTRACT: note_on channel=9 note=42 velocity=99 time=0
EXTRACT: note_on channel=9 note=70 velocity=107 time=0
EXTRACT: note_off channel=14 note=81 velocity=65 time=0.004
EXTRACT: note_off channel=11 note=93 velocity=65 time=0
EXTRACT: note_off channel=6 note=81 velocity=65 time=0
EXTRACT: note_off channel=9 note=39 velocity=64 time=0.013000000000000001
EXTRACT: note_off channel=9 note=70 velocity=65 time=0.007
EXTRACT: note_off channel=9 note=42 velocity=65 time=0
EXTRACT: note_off channel=9 note=38 velocity=64 time=0
EXTRACT: note_off channel=9 note=36 velocity=65 time=0
EXTRACT: note_off channel=5 note=38 velocity=64 time=0.08700000000000001
EXTRACT: note_off channel=2 note=38 velocity=65 time=0
EXTRACT: note_on channel=2 note=38 velocity=75 time=0.009000000000000001
EXTRACT: note_on channel=5 note=38 velocity=62 time=0
EXTRACT: note_on channel=12 note=75 velocity=126 time=0.049
EXTRACT: note_on channel=12 note=79 velocity=127 time=0.02
EXTRACT: note_off channel=1 note=26 velocity=64 time=0.015
EXTRACT: note_off channel=3 note=79 velocity=64 time=0.002
EXTRACT: note_on channel=6 note=81 velocity=75 time=0.02
EXTRACT: note_on channel=11 note=93 velocity=77 time=0
EXTRACT: note_on channel=14 note=81 velocity=76 time=0
EXTRACT: note_on channel=3 note=77 velocity=116 time=0
EXTRACT: note_off channel=5 note=38 velocity=64 time=0.003
EXTRACT: note_off channel=2 note=38 velocity=64 time=0
EXTRACT: note_off channel=4 note=64 velocity=64 time=0
EXTRACT: note_off channel=4 note=60 velocity=65 time=0
EXTRACT: note_on channel=8 note=62 velocity=100 time=0.006
EXTRACT: note_on channel=8 note=65 velocity=105 time=0
EXTRACT: note_on channel=1 note=38 velocity=123 time=0.003
EXTRACT: note_on channel=2 note=50 velocity=124 time=0
EXTRACT: note_on channel=4 note=57 velocity=1 time=0
EXTRACT: note_on channel=4 note=62 velocity=1 time=0
EXTRACT: note_on channel=5 note=38 velocity=113 time=0
EXTRACT: note_on channel=9 note=42 velocity=114 time=0
EXTRACT: note_on channel=9 note=70 velocity=107 time=0
EXTRACT: note_off channel=14 note=86 velocity=64 time=0.004
EXTRACT: note_off channel=11 note=98 velocity=64 time=0
EXTRACT: note_off channel=6 note=86 velocity=64 time=0
EXTRACT: note_off channel=9 note=70 velocity=64 time=0.02
EXTRACT: note_off channel=9 note=42 velocity=64 time=0
EXTRACT: note_off channel=8 note=65 velocity=65 time=0.037
EXTRACT: note_off channel=8 note=62 velocity=65 time=0
EXTRACT: note_off channel=5 note=38 velocity=65 time=0.05
EXTRACT: note_off channel=2 note=50 velocity=65 time=0
EXTRACT: note_off channel=14 note=81 velocity=65 time=0.003
EXTRACT: note_off channel=11 note=93 velocity=65 time=0
EXTRACT: note_off channel=6 note=81 velocity=64 time=0
EXTRACT: note_on channel=6 note=77 velocity=72 time=0.003
EXTRACT: note_on channel=8 note=62 velocity=96 time=0
EXTRACT: note_on channel=8 note=65 velocity=103 time=0
EXTRACT: note_on channel=11 note=89 velocity=81 time=0
EXTRACT: note_on channel=14 note=77 velocity=80 time=0
EXTRACT: note_on channel=2 note=50 velocity=124 time=0.003
EXTRACT: note_on channel=5 note=38 velocity=112 time=0
EXTRACT: note_on channel=9 note=44 velocity=99 time=0
EXTRACT: note_on channel=9 note=70 velocity=86 time=0
EXTRACT: note_off channel=9 note=70 velocity=65 time=0.024
EXTRACT: note_off channel=9 note=44 velocity=65 time=0
EXTRACT: note_off channel=3 note=77 velocity=64 time=0.025
EXTRACT: note_off channel=8 note=65 velocity=64 time=0.017
EXTRACT: note_off channel=8 note=62 velocity=65 time=0
EXTRACT: note_off channel=12 note=75 velocity=64 time=0.012
EXTRACT: note_off channel=1 note=38 velocity=65 time=0.006
EXTRACT: note_off channel=12 note=79 velocity=65 time=0.014
EXTRACT: note_on channel=3 note=79 velocity=117 time=0
EXTRACT: note_off channel=5 note=38 velocity=65 time=0.001
EXTRACT: note_off channel=2 note=50 velocity=64 time=0
EXTRACT: note_off channel=4 note=62 velocity=65 time=0
EXTRACT: note_off channel=4 note=57 velocity=64 time=0
EXTRACT: note_on channel=6 note=74 velocity=78 time=0.006
EXTRACT: note_on channel=11 note=86 velocity=84 time=0
EXTRACT: note_on channel=14 note=74 velocity=85 time=0
EXTRACT: note_on channel=1 note=26 velocity=122 time=0.003
EXTRACT: note_on channel=2 note=38 velocity=125 time=0
EXTRACT: note_on channel=4 note=60 velocity=1 time=0
EXTRACT: note_on channel=4 note=64 velocity=1 time=0
EXTRACT: note_on channel=5 note=38 velocity=113 time=0
EXTRACT: note_on channel=9 note=36 velocity=126 time=0
EXTRACT: note_on channel=9 note=42 velocity=122 time=0
EXTRACT: note_on channel=9 note=70 velocity=106 time=0
EXTRACT: note_off channel=14 note=77 velocity=65 time=0.014
EXTRACT: note_off channel=11 note=89 velocity=65 time=0
EXTRACT: note_off channel=6 note=77 velocity=65 time=0
EXTRACT: note_off channel=9 note=70 velocity=64 time=0.01
EXTRACT: note_off channel=9 note=42 velocity=64 time=0
EXTRACT: note_off channel=9 note=36 velocity=65 time=0
EXTRACT: control_change channel=13 control=6 value=54 time=0.056
EXTRACT: note_off channel=5 note=38 velocity=64 time=0.031
EXTRACT: note_off channel=2 note=38 velocity=64 time=0
EXTRACT: note_on channel=6 note=76 velocity=79 time=0.005
EXTRACT: note_on channel=11 note=88 velocity=84 time=0
EXTRACT: note_on channel=14 note=76 velocity=85 time=0
EXTRACT: note_off channel=10 note=65 velocity=64 time=0.003
EXTRACT: note_on channel=2 note=38 velocity=75 time=0.001
EXTRACT: note_on channel=5 note=38 velocity=63 time=0
EXTRACT: note_off channel=14 note=74 velocity=64 time=0.004
EXTRACT: note_off channel=11 note=86 velocity=64 time=0
EXTRACT: note_off channel=6 note=74 velocity=64 time=0
EXTRACT: note_off channel=10 note=62 velocity=65 time=0.005
EXTRACT: note_off channel=3 note=79 velocity=65 time=0.066
EXTRACT: note_off channel=1 note=26 velocity=65 time=0.009000000000000001
EXTRACT: note_off channel=5 note=38 velocity=64 time=0.027
EXTRACT: note_off channel=2 note=38 velocity=65 time=0
EXTRACT: note_off channel=4 note=64 velocity=64 time=0
EXTRACT: note_off channel=4 note=60 velocity=65 time=0
EXTRACT: note_off channel=13 note=69 velocity=65 time=0.003
EXTRACT: note_off channel=13 note=65 velocity=64 time=0
EXTRACT: note_off channel=13 note=62 velocity=64 time=0
EXTRACT: note_on channel=8 note=60 velocity=95 time=0.003
EXTRACT: note_on channel=8 note=65 velocity=100 time=0
EXTRACT: note_on channel=6 note=77 velocity=75 time=0.001
EXTRACT: note_on channel=11 note=89 velocity=93 time=0
EXTRACT: note_on channel=14 note=77 velocity=92 time=0
EXTRACT: note_on channel=1 note=28 velocity=122 time=0
EXTRACT: note_on channel=2 note=52 velocity=124 time=0
EXTRACT: note_on channel=3 note=81 velocity=116 time=0
EXTRACT: note_on channel=4 note=60 velocity=1 time=0
EXTRACT: note_on channel=4 note=65 velocity=1 time=0
EXTRACT: note_on channel=5 note=40 velocity=112 time=0
EXTRACT: note_on channel=9 note=46 velocity=105 time=0
EXTRACT: note_on channel=9 note=70 velocity=107 time=0
EXTRACT: note_on channel=13 note=64 velocity=81 time=0
EXTRACT: note_on channel=10 note=64 velocity=91 time=0.005
EXTRACT: note_on channel=10 note=67 velocity=78 time=0
EXTRACT: note_off channel=14 note=76 velocity=65 time=0
EXTRACT: note_off channel=11 note=88 velocity=65 time=0
EXTRACT: note_off channel=6 note=76 velocity=65 time=0
EXTRACT: note_on channel=13 note=67 velocity=65 time=0.007
EXTRACT: note_on channel=13 note=71 velocity=62 time=0.008
EXTRACT: note_off channel=9 note=70 velocity=65 time=0.004
EXTRACT: note_off channel=9 note=46 velocity=64 time=0
EXTRACT: note_off channel=8 note=65 velocity=64 time=0.033
EXTRACT: note_off channel=8 note=60 velocity=64 time=0
EXTRACT: note_off channel=5 note=40 velocity=65 time=0.054
EXTRACT: note_off channel=2 note=52 velocity=65 time=0
EXTRACT: note_on channel=8 note=60 velocity=73 time=0.006
EXTRACT: note_on channel=8 note=65 velocity=78 time=0
EXTRACT: note_on channel=2 note=52 velocity=124 time=0.003
EXTRACT: note_on channel=5 note=40 velocity=113 time=0
EXTRACT: note_on channel=9 note=70 velocity=87 time=0
EXTRACT: note_on channel=6 note=79 velocity=74 time=0.001
EXTRACT: note_on channel=11 note=91 velocity=83 time=0
EXTRACT: note_on channel=14 note=79 velocity=82 time=0
EXTRACT: note_off channel=14 note=77 velocity=64 time=0.013000000000000001
EXTRACT: note_off channel=11 note=89 velocity=64 time=0
EXTRACT: note_off channel=6 note=77 velocity=65 time=0
EXTRACT: note_off channel=9 note=70 velocity=64 time=0.01
EXTRACT: control_change channel=1 control=6 value=47 time=0.021
EXTRACT: note_off channel=8 note=65 velocity=65 time=0.019
EXTRACT: note_off channel=8 note=60 velocity=65 time=0
EXTRACT: note_off channel=1 note=28 velocity=64 time=0.005
EXTRACT: note_off channel=13 note=64 velocity=65 time=0.006
EXTRACT: note_on channel=6 note=81 velocity=76 time=0.022
EXTRACT: note_on channel=11 note=93 velocity=86 time=0
EXTRACT: note_on channel=14 note=81 velocity=87 time=0
EXTRACT: note_off channel=5 note=40 velocity=64 time=0.014
EXTRACT: note_off channel=2 note=52 velocity=64 time=0
EXTRACT: note_on channel=9 note=39 velocity=118 time=0.001
EXTRACT: note_off channel=13 note=71 velocity=65 time=0.002
EXTRACT: note_off channel=13 note=67 velocity=64 time=0
EXTRACT: note_off channel=10 note=67 velocity=65 time=0.005
EXTRACT: note_on channel=1 note=29 velocity=123 time=0.001
EXTRACT: note_on channel=2 note=41 velocity=125 time=0
EXTRACT: note_on channel=5 note=41 velocity=112 time=0
EXTRACT: note_on channel=9 note=36 velocity=127 time=0
EXTRACT: note_on channel=9 note=38 velocity=116 time=0
EXTRACT: note_on channel=9 note=42 velocity=111 time=0
EXTRACT: note_on channel=9 note=70 velocity=106 time=0
EXTRACT: note_on channel=13 note=65 velocity=88 time=0
EXTRACT: note_off channel=10 note=64 velocity=64 time=0.001
EXTRACT: note_off channel=14 note=79 velocity=64 time=0.001
EXTRACT: note_off channel=11 note=91 velocity=64 time=0
EXTRACT: note_off channel=6 note=79 velocity=64 time=0
EXTRACT: note_on channel=10 note=65 velocity=104 time=0.003
EXTRACT: note_on channel=10 note=69 velocity=87 time=0
EXTRACT: note_on channel=13 note=69 velocity=35 time=0.012
EXTRACT: note_on channel=13 note=72 velocity=81 time=0
EXTRACT: note_off channel=9 note=39 velocity=65 time=0
EXTRACT: note_off channel=9 note=70 velocity=64 time=0.007
EXTRACT: note_off channel=9 note=42 velocity=65 time=0
EXTRACT: note_off channel=9 note=38 velocity=65 time=0
EXTRACT: note_off channel=9 note=36 velocity=64 time=0
EXTRACT: note_off channel=3 note=81 velocity=64 time=0.05
EXTRACT: note_off channel=5 note=41 velocity=65 time=0.037
EXTRACT: note_off channel=2 note=41 velocity=64 time=0
EXTRACT: note_on channel=2 note=41 velocity=74 time=0.009000000000000001
EXTRACT: note_on channel=5 note=41 velocity=62 time=0
EXTRACT: note_off channel=1 note=29 velocity=64 time=0.084
EXTRACT: note_off channel=5 note=41 velocity=65 time=0.027
EXTRACT: note_off channel=2 note=41 velocity=65 time=0
EXTRACT: note_off channel=4 note=65 velocity=64 time=0
EXTRACT: note_off channel=4 note=60 velocity=65 time=0
EXTRACT: note_on channel=8 note=60 velocity=96 time=0.006
EXTRACT: note_on channel=8 note=65 velocity=103 time=0
EXTRACT: note_on channel=1 note=41 velocity=123 time=0.003
EXTRACT: note_on channel=2 note=53 velocity=125 time=0
EXTRACT: note_on channel=4 note=60 velocity=1 time=0
EXTRACT: note_on channel=4 note=65 velocity=1 time=0
EXTRACT: note_on channel=5 note=41 velocity=113 time=0
EXTRACT: note_on channel=9 note=42 velocity=125 time=0
EXTRACT: note_on channel=9 note=70 velocity=106 time=0
EXTRACT: note_on channel=3 note=81 velocity=117 time=0
EXTRACT: note_off channel=9 note=70 velocity=65 time=0.009000000000000001
EXTRACT: note_off channel=9 note=42 velocity=64 time=0
EXTRACT: note_off channel=8 note=65 velocity=64 time=0.008
EXTRACT: note_off channel=8 note=60 velocity=64 time=0
EXTRACT: note_off channel=5 note=41 velocity=64 time=0.058
EXTRACT: note_off channel=2 note=53 velocity=65 time=0
EXTRACT: note_on channel=8 note=60 velocity=89 time=0.006
EXTRACT: note_on channel=8 note=65 velocity=92 time=0
EXTRACT: note_on channel=2 note=53 velocity=125 time=0.003
EXTRACT: note_on channel=5 note=41 velocity=113 time=0
EXTRACT: note_on channel=9 note=44 velocity=98 time=0
EXTRACT: note_on channel=9 note=70 velocity=87 time=0
EXTRACT: note_off channel=9 note=70 velocity=64 time=0.024
EXTRACT: note_off channel=9 note=44 velocity=65 time=0
EXTRACT: note_off channel=8 note=65 velocity=65 time=0.032
EXTRACT: note_off channel=8 note=60 velocity=65 time=0
EXTRACT: note_off channel=1 note=41 velocity=65 time=0.028
EXTRACT: note_off channel=5 note=41 velocity=65 time=0.027
EXTRACT: note_off channel=2 note=53 velocity=64 time=0
EXTRACT: note_on channel=1 note=29 velocity=122 time=0.009000000000000001
EXTRACT: note_on channel=2 note=41 velocity=124 time=0
EXTRACT: note_on channel=5 note=41 velocity=112 time=0
EXTRACT: note_on channel=9 note=36 velocity=126 time=0
EXTRACT: note_on channel=9 note=42 velocity=124 time=0
EXTRACT: note_on channel=9 note=70 velocity=106 time=0
EXTRACT: note_off channel=9 note=70 velocity=65 time=0.024
EXTRACT: note_off channel=9 note=42 velocity=64 time=0
EXTRACT: note_off channel=9 note=36 velocity=64 time=0
EXTRACT: note_off channel=5 note=41 velocity=64 time=0.08700000000000001
EXTRACT: note_off channel=2 note=41 velocity=64 time=0
EXTRACT: note_on channel=2 note=41 velocity=75 time=0.009000000000000001
EXTRACT: note_on channel=5 note=41 velocity=62 time=0
EXTRACT: note_off channel=3 note=81 velocity=65 time=0.014
EXTRACT: note_off channel=14 note=81 velocity=65 time=0.06
EXTRACT: note_off channel=11 note=93 velocity=65 time=0
EXTRACT: note_off channel=6 note=81 velocity=65 time=0
EXTRACT: note_off channel=1 note=29 velocity=65 time=0.01
EXTRACT: note_off channel=5 note=41 velocity=64 time=0.027
EXTRACT: note_off channel=2 note=41 velocity=65 time=0
EXTRACT: note_off channel=4 note=65 velocity=65 time=0
EXTRACT: note_on channel=8 note=60 velocity=96 time=0.006
EXTRACT: note_on channel=8 note=65 velocity=103 time=0
EXTRACT: note_on channel=1 note=41 velocity=122 time=0.003
EXTRACT: note_on channel=2 note=53 velocity=124 time=0
EXTRACT: note_on channel=4 note=57 velocity=1 time=0
EXTRACT: note_on channel=5 note=41 velocity=113 time=0
EXTRACT: note_on channel=9 note=46 velocity=110 time=0
EXTRACT: note_on channel=9 note=70 velocity=107 time=0
EXTRACT: control_change channel=2 control=6 value=59 time=0
EXTRACT: note_on channel=3 note=72 velocity=117 time=0
EXTRACT: note_on channel=6 note=77 velocity=75 time=0.015
EXTRACT: note_on channel=11 note=89 velocity=82 time=0
EXTRACT: note_on channel=14 note=77 velocity=83 time=0
EXTRACT: note_off channel=9 note=70 velocity=65 time=0.003
EXTRACT: note_off channel=9 note=46 velocity=65 time=0
EXTRACT: note_off channel=8 note=65 velocity=64 time=0.02
EXTRACT: note_off channel=8 note=60 velocity=64 time=0
EXTRACT: note_on channel=6 note=81 velocity=54 time=0.039
EXTRACT: note_on channel=11 note=93 velocity=77 time=0
EXTRACT: note_on channel=14 note=81 velocity=76 time=0
EXTRACT: note_off channel=5 note=41 velocity=65 time=0.016
EXTRACT: note_off channel=2 note=53 velocity=64 time=0
EXTRACT: note_on channel=8 note=60 velocity=95 time=0.006
EXTRACT: note_on channel=8 note=65 velocity=100 time=0
EXTRACT: note_on channel=2 note=53 velocity=124 time=0.003
EXTRACT: note_on channel=5 note=41 velocity=113 time=0
EXTRACT: note_on channel=9 note=70 velocity=87 time=0
EXTRACT: note_off channel=9 note=70 velocity=64 time=0.024
EXTRACT: note_off channel=14 note=77 velocity=65 time=0.01
EXTRACT: note_off channel=11 note=89 velocity=65 time=0
EXTRACT: note_off channel=6 note=77 velocity=64 time=0
EXTRACT: note_on channel=6 note=84 velocity=81 time=0.012
EXTRACT: note_on channel=11 note=96 velocity=84 time=0
EXTRACT: note_on channel=14 note=84 velocity=84 time=0
EXTRACT: note_off channel=8 note=65 velocity=65 time=0.007
EXTRACT: note_off channel=8 note=60 velocity=64 time=0
EXTRACT: note_off channel=14 note=81 velocity=64 time=0.011
EXTRACT: note_off channel=11 note=93 velocity=64 time=0
EXTRACT: note_off channel=6 note=81 velocity=64 time=0
EXTRACT: note_off channel=3 note=72 velocity=65 time=0.01
EXTRACT: note_off channel=1 note=41 velocity=64 time=0.01
EXTRACT: note_on channel=6 note=89 velocity=79 time=0.019
EXTRACT: note_on channel=11 note=101 velocity=85 time=0
EXTRACT: note_on channel=14 note=89 velocity=85 time=0
EXTRACT: note_off channel=5 note=41 velocity=65 time=0.008
EXTRACT: note_off channel=2 note=53 velocity=65 time=0
EXTRACT: note_off channel=4 note=57 velocity=64 time=0
EXTRACT: note_on channel=9 note=39 velocity=118 time=0.001
EXTRACT: note_off channel=4 note=60 velocity=65 time=0.002
EXTRACT: note_on channel=1 note=29 velocity=123 time=0.006
EXTRACT: note_on channel=2 note=41 velocity=125 time=0
EXTRACT: note_on channel=4 note=60 velocity=1 time=0
EXTRACT: note_on channel=4 note=65 velocity=1 time=0
EXTRACT: note_on channel=5 note=41 velocity=112 time=0
EXTRACT: note_on channel=9 note=36 velocity=127 time=0
EXTRACT: note_on channel=9 note=38 velocity=116 time=0
EXTRACT: note_on channel=9 note=42 velocity=112 time=0
EXTRACT: note_on channel=9 note=70 velocity=106 time=0
EXTRACT: note_on channel=3 note=81 velocity=116 time=0
EXTRACT: note_off channel=14 note=84 velocity=64 time=0.012
EXTRACT: note_off channel=11 note=96 velocity=64 time=0
EXTRACT: note_off channel=6 note=84 velocity=65 time=0
EXTRACT: note_off channel=9 note=39 velocity=64 time=0.003
EXTRACT: note_off channel=9 note=70 velocity=65 time=0.007
EXTRACT: note_off channel=9 note=42 velocity=64 time=0
EXTRACT: note_off channel=9 note=38 velocity=65 time=0
EXTRACT: note_off channel=9 note=36 velocity=65 time=0
EXTRACT: control_change channel=13 control=6 value=56 time=0.016
EXTRACT: note_off channel=5 note=41 velocity=64 time=0.07100000000000001
EXTRACT: note_off channel=2 note=41 velocity=65 time=0
EXTRACT: note_on channel=2 note=41 velocity=75 time=0.009000000000000001
EXTRACT: note_on channel=5 note=41 velocity=62 time=0
EXTRACT: control_change channel=1 control=6 value=50 time=0.075
EXTRACT: note_off channel=1 note=29 velocity=64 time=0.009000000000000001
EXTRACT: note_off channel=3 note=81 velocity=64 time=0.01
EXTRACT: note_off channel=14 note=89 velocity=65 time=0
EXTRACT: note_off channel=11 note=101 velocity=65 time=0
EXTRACT: note_off channel=6 note=89 velocity=65 time=0
EXTRACT: note_on channel=6 note=88 velocity=74 time=0.016
EXTRACT: note_on channel=11 note=100 velocity=81 time=0
EXTRACT: note_on channel=14 note=88 velocity=80 time=0
EXTRACT: note_off channel=5 note=41 velocity=64 time=0.001
EXTRACT: note_off channel=2 note=41 velocity=64 time=0
EXTRACT: note_off channel=4 note=65 velocity=64 time=0
EXTRACT: note_off channel=4 note=60 velocity=64 time=0
EXTRACT: note_on channel=8 note=60 velocity=100 time=0.006
EXTRACT: note_on channel=8 note=65 velocity=105 time=0
EXTRACT: note_off channel=10 note=69 velocity=64 time=0.002
EXTRACT: note_off channel=10 note=65 velocity=65 time=0
EXTRACT: note_on channel=1 note=31 velocity=123 time=0.001
EXTRACT: note_on channel=2 note=55 velocity=124 time=0
EXTRACT: note_on channel=4 note=60 velocity=1 time=0
EXTRACT: note_on channel=4 note=64 velocity=1 time=0
EXTRACT: note_on channel=5 note=43 velocity=113 time=0
EXTRACT: note_on channel=9 note=42 velocity=109 time=0
EXTRACT: note_on channel=9 note=70 velocity=107 time=0
EXTRACT: note_on channel=13 note=67 velocity=80 time=0
EXTRACT: note_on channel=13 note=71 velocity=64 time=0
EXTRACT: note_on channel=10 note=67 velocity=86 time=0.005
EXTRACT: note_on channel=10 note=71 velocity=87 time=0
EXTRACT: note_off channel=13 note=72 velocity=64 time=0.006
EXTRACT: note_off channel=13 note=69 velocity=65 time=0
EXTRACT: note_off channel=13 note=65 velocity=65 time=0
EXTRACT: note_on channel=13 note=74 velocity=63 time=0.009000000000000001
EXTRACT: note_off channel=9 note=70 velocity=64 time=0.004
EXTRACT: note_off channel=9 note=42 velocity=65 time=0
EXTRACT: note_on channel=3 note=79 velocity=117 time=0
EXTRACT: note_off channel=8 note=65 velocity=65 time=0.026000000000000002
EXTRACT: note_off channel=8 note=60 velocity=65 time=0
EXTRACT: note_off channel=5 note=43 velocity=65 time=0.046
EXTRACT: note_off channel=2 note=55 velocity=65 time=0
EXTRACT: note_on channel=8 note=60 velocity=96 time=0.006
EXTRACT: note_on channel=8 note=65 velocity=103 time=0
EXTRACT: note_on channel=2 note=55 velocity=124 time=0.003
EXTRACT: note_on channel=5 note=43 velocity=112 time=0
EXTRACT: note_on channel=9 note=44 velocity=98 time=0
EXTRACT: note_on channel=9 note=70 velocity=86 time=0
EXTRACT: note_off channel=14 note=88 velocity=65 time=0.004
EXTRACT: note_off channel=11 note=100 velocity=65 time=0
EXTRACT: note_off channel=6 note=88 velocity=64 time=0
EXTRACT: note_on channel=6 note=84 velocity=73 time=0.003
EXTRACT: note_on channel=11 note=96 velocity=78 time=0
EXTRACT: note_on channel=14 note=84 velocity=79 time=0
EXTRACT: note_off channel=9 note=70 velocity=64 time=0.017
EXTRACT: note_off channel=9 note=44 velocity=64 time=0
EXTRACT: note_off channel=8 note=65 velocity=64 time=0.042
EXTRACT: note_off channel=8 note=60 velocity=65 time=0
EXTRACT: note_off channel=1 note=31 velocity=65 time=0.018000000000000002
EXTRACT: control_change channel=9 control=91 value=20 time=0.006
EXTRACT: note_off channel=5 note=43 velocity=65 time=0.021
EXTRACT: note_off channel=2 note=55 velocity=64 time=0
EXTRACT: note_off channel=13 note=74 velocity=64 time=0.003
EXTRACT: note_off channel=13 note=71 velocity=64 time=0
EXTRACT: note_off channel=13 note=67 velocity=65 time=0
EXTRACT: note_off channel=10 note=71 velocity=64 time=0.005
EXTRACT: note_off channel=10 note=67 velocity=65 time=0
EXTRACT: note_on channel=1 note=33 velocity=122 time=0.001
EXTRACT: note_on channel=2 note=45 velocity=125 time=0
EXTRACT: note_on channel=5 note=45 velocity=113 time=0
EXTRACT: note_on channel=9 note=36 velocity=127 time=0
EXTRACT: note_on channel=9 note=42 velocity=125 time=0
EXTRACT: note_on channel=9 note=70 velocity=106 time=0
EXTRACT: note_on channel=13 note=69 velocity=56 time=0
EXTRACT: note_on channel=10 note=69 velocity=93 time=0.005
EXTRACT: note_on channel=10 note=72 velocity=102 time=0
EXTRACT: note_on channel=6 note=81 velocity=78 time=0.002
EXTRACT: note_on channel=11 note=93 velocity=85 time=0
EXTRACT: note_on channel=14 note=81 velocity=85 time=0
EXTRACT: note_on channel=13 note=76 velocity=69 time=0.002
EXTRACT: note_on channel=13 note=72 velocity=61 time=0.003
EXTRACT: note_off channel=14 note=84 velocity=64 time=0.001
EXTRACT: note_off channel=11 note=96 velocity=64 time=0
EXTRACT: note_off channel=6 note=84 velocity=64 time=0
EXTRACT: note_off channel=9 note=70 velocity=65 time=0.011
EXTRACT: note_off channel=9 note=42 velocity=65 time=0
EXTRACT: note_off channel=9 note=36 velocity=64 time=0
EXTRACT: note_off channel=5 note=45 velocity=64 time=0.08700000000000001
EXTRACT: note_off channel=2 note=45 velocity=64 time=0
EXTRACT: note_on channel=2 note=45 velocity=75 time=0.009000000000000001
EXTRACT: note_on channel=5 note=45 velocity=63 time=0
EXTRACT: note_off channel=3 note=79 velocity=65 time=0.006
EXTRACT: note_off channel=1 note=33 velocity=64 time=0.093
EXTRACT: note_off channel=5 note=45 velocity=64 time=0.012
EXTRACT: note_off channel=2 note=45 velocity=65 time=0
EXTRACT: note_on channel=8 note=60 velocity=95 time=0.006
EXTRACT: note_on channel=8 note=64 velocity=100 time=0
EXTRACT: note_on channel=1 note=45 velocity=122 time=0.003
EXTRACT: note_on channel=2 note=57 velocity=124 time=0
EXTRACT: note_on channel=5 note=45 velocity=112 time=0
EXTRACT: note_on channel=9 note=46 velocity=110 time=0
EXTRACT: note_on channel=9 note=70 velocity=107 time=0
EXTRACT: note_off channel=9 note=70 velocity=64 time=0.024
EXTRACT: note_off channel=9 note=46 velocity=65 time=0
EXTRACT: note_off channel=8 note=64 velocity=64 time=0.033
EXTRACT: note_off channel=8 note=60 velocity=64 time=0
EXTRACT: note_off channel=5 note=45 velocity=65 time=0.054
EXTRACT: note_off channel=2 note=57 velocity=65 time=0
EXTRACT: note_on channel=8 note=60 velocity=73 time=0.006
EXTRACT: note_on channel=8 note=64 velocity=78 time=0
EXTRACT: note_on channel=2 note=57 velocity=124 time=0.003
EXTRACT: note_on channel=5 note=45 velocity=113 time=0
EXTRACT: note_on channel=9 note=70 velocity=87 time=0
EXTRACT: note_off channel=9 note=70 velocity=65 time=0.024
EXTRACT: note_off channel=8 note=64 velocity=65 time=0.04
EXTRACT: note_off channel=8 note=60 velocity=65 time=0
EXTRACT: note_off channel=1 note=45 velocity=65 time=0.02
EXTRACT: note_off channel=5 note=45 velocity=64 time=0.027
EXTRACT: note_off channel=2 note=57 velocity=64 time=0
EXTRACT: note_on channel=9 note=39 velocity=119 time=0.001
EXTRACT: note_on channel=1 note=33 velocity=123 time=0.008
EXTRACT: note_on channel=2 note=45 velocity=125 time=0
EXTRACT: note_on channel=5 note=45 velocity=112 time=0
EXTRACT: note_on channel=9 note=36 velocity=126 time=0
EXTRACT: note_on channel=9 note=38 velocity=117 time=0
EXTRACT: note_on channel=9 note=42 velocity=122 time=0
EXTRACT: note_on channel=9 note=70 velocity=106 time=0
EXTRACT: note_off channel=9 note=39 velocity=64 time=0.017
EXTRACT: note_off channel=9 note=70 velocity=64 time=0.007
EXTRACT: note_off channel=9 note=42 velocity=65 time=0
EXTRACT: note_off channel=9 note=38 velocity=64 time=0
EXTRACT: note_off channel=9 note=36 velocity=65 time=0
EXTRACT: note_off channel=5 note=45 velocity=65 time=0.08700000000000001
EXTRACT: note_off channel=2 note=45 velocity=64 time=0
EXTRACT: note_on channel=2 note=45 velocity=74 time=0.009000000000000001
EXTRACT: note_on channel=5 note=45 velocity=62 time=0
EXTRACT: note_off channel=1 note=33 velocity=65 time=0.099
EXTRACT: note_off channel=5 note=45 velocity=65 time=0.012
EXTRACT: note_off channel=2 note=45 velocity=65 time=0
EXTRACT: note_on channel=8 note=60 velocity=96 time=0.006
EXTRACT: note_on channel=8 note=64 velocity=103 time=0
EXTRACT: note_on channel=1 note=45 velocity=122 time=0.003
EXTRACT: note_on channel=2 note=57 velocity=125 time=0
EXTRACT: note_on channel=5 note=45 velocity=113 time=0
EXTRACT: note_on channel=9 note=42 velocity=116 time=0
EXTRACT: note_on channel=9 note=70 velocity=106 time=0
EXTRACT: note_off channel=9 note=70 velocity=65 time=0.024
EXTRACT: note_off channel=9 note=42 velocity=64 time=0
EXTRACT: note_off channel=8 note=64 velocity=64 time=0.029
EXTRACT: note_off channel=8 note=60 velocity=64 time=0
EXTRACT: control_change channel=13 control=6 value=58 time=0.027
EXTRACT: note_off channel=5 note=45 velocity=64 time=0.031
EXTRACT: note_off channel=2 note=57 velocity=65 time=0
EXTRACT: note_on channel=8 note=60 velocity=89 time=0.006
EXTRACT: note_on channel=8 note=64 velocity=92 time=0
EXTRACT: note_on channel=2 note=57 velocity=125 time=0.003
EXTRACT: note_on channel=5 note=45 velocity=113 time=0
EXTRACT: note_on channel=9 note=44 velocity=99 time=0
EXTRACT: note_on channel=9 note=70 velocity=87 time=0
EXTRACT: note_off channel=9 note=70 velocity=65 time=0.024
EXTRACT: note_off channel=9 note=44 velocity=64 time=0
EXTRACT: note_off channel=8 note=64 velocity=65 time=0.032
EXTRACT: note_off channel=8 note=60 velocity=65 time=0
EXTRACT: note_off channel=1 note=45 velocity=64 time=0.028
EXTRACT: note_off channel=5 note=45 velocity=65 time=0.027
EXTRACT: note_off channel=2 note=57 velocity=64 time=0
EXTRACT: note_on channel=1 note=33 velocity=123 time=0.009000000000000001
EXTRACT: note_on channel=2 note=45 velocity=124 time=0
EXTRACT: note_on channel=5 note=45 velocity=112 time=0
EXTRACT: note_on channel=9 note=36 velocity=127 time=0
EXTRACT: note_on channel=9 note=42 velocity=125 time=0
EXTRACT: note_on channel=9 note=70 velocity=107 time=0
EXTRACT: note_off channel=9 note=70 velocity=64 time=0.024
EXTRACT: note_off channel=9 note=42 velocity=65 time=0
EXTRACT: note_off channel=9 note=36 velocity=65 time=0
EXTRACT: control_change channel=1 control=6 value=52 time=0.066
EXTRACT: note_off channel=14 note=81 velocity=64 time=0.002
EXTRACT: note_off channel=11 note=93 velocity=64 time=0
EXTRACT: note_off channel=6 note=81 velocity=65 time=0
EXTRACT: note_off channel=5 note=45 velocity=64 time=0.019
EXTRACT: note_off channel=2 note=45 velocity=64 time=0
EXTRACT: note_off channel=4 note=64 velocity=65 time=0.003
EXTRACT: note_off channel=4 note=60 velocity=65 time=0
EXTRACT: note_on channel=2 note=45 velocity=75 time=0.006
EXTRACT: note_on channel=5 note=45 velocity=62 time=0
EXTRACT: note_off channel=1 note=33 velocity=65 time=0.084
EXTRACT: note_off channel=5 note=45 velocity=64 time=0.027
EXTRACT: note_off channel=2 note=45 velocity=65 time=0
EXTRACT: note_on channel=8 note=60 velocity=96 time=0.006
EXTRACT: note_on channel=8 note=64 velocity=103 time=0
EXTRACT: note_on channel=1 note=45 velocity=123 time=0.003
EXTRACT: note_on channel=2 note=57 velocity=124 time=0
EXTRACT: note_on channel=4 note=57 velocity=1 time=0
EXTRACT: note_on channel=4 note=60 velocity=1 time=0
EXTRACT: note_on channel=5 note=45 velocity=113 time=0
EXTRACT: note_on channel=9 note=46 velocity=107 time=0
EXTRACT: note_on channel=9 note=70 velocity=106 time=0
EXTRACT: note_on channel=3 note=77 velocity=116 time=0
EXTRACT: note_off channel=9 note=70 velocity=64 time=0.02
EXTRACT: note_off channel=9 note=46 velocity=64 time=0
EXTRACT: note_on channel=6 note=76 velocity=72 time=0.014
EXTRACT: note_on channel=11 note=88 velocity=88 time=0
EXTRACT: note_on channel=14 note=76 velocity=88 time=0
EXTRACT: note_off channel=8 note=64 velocity=64 time=0.008
EXTRACT: note_off channel=8 note=60 velocity=64 time=0
EXTRACT: note_off channel=5 note=45 velocity=65 time=0.055
EXTRACT: note_off channel=2 note=57 velocity=64 time=0
EXTRACT: note_on channel=6 note=81 velocity=69 time=0.005
EXTRACT: note_on channel=11 note=93 velocity=80 time=0
EXTRACT: note_on channel=14 note=81 velocity=81 time=0
EXTRACT: note_on channel=8 note=60 velocity=95 time=0.001
EXTRACT: note_on channel=8 note=64 velocity=100 time=0
EXTRACT: note_on channel=2 note=57 velocity=124 time=0.003
EXTRACT: note_on channel=5 note=45 velocity=113 time=0
EXTRACT: note_on channel=9 note=70 velocity=86 time=0
EXTRACT: note_off channel=3 note=77 velocity=64 time=0.018000000000000002
EXTRACT: note_off channel=9 note=70 velocity=65 time=0.006
EXTRACT: note_off channel=8 note=64 velocity=65 time=0.029
EXTRACT: note_off channel=8 note=60 velocity=64 time=0
EXTRACT: note_on channel=6 note=84 velocity=69 time=0.002
EXTRACT: note_on channel=11 note=96 velocity=83 time=0
EXTRACT: note_on channel=14 note=84 velocity=82 time=0
EXTRACT: note_off channel=14 note=76 velocity=65 time=0.026000000000000002
EXTRACT: note_off channel=11 note=88 velocity=65 time=0
EXTRACT: note_off channel=6 note=76 velocity=65 time=0
EXTRACT: note_off channel=1 note=45 velocity=64 time=0.003
EXTRACT: note_off channel=5 note=45 velocity=65 time=0.027
EXTRACT: note_off channel=2 note=57 velocity=65 time=0
EXTRACT: note_on channel=9 note=39 velocity=118 time=0.001
EXTRACT: note_off channel=4 note=60 velocity=64 time=0.002
EXTRACT: note_off channel=13 note=76 velocity=64 time=0
EXTRACT: note_on channel=3 note=79 velocity=116 time=0
EXTRACT: note_on channel=6 note=88 velocity=82 time=0.003
EXTRACT: note_on channel=11 note=100 velocity=87 time=0
EXTRACT: note_on channel=14 note=88 velocity=86 time=0
EXTRACT: note_off channel=14 note=81 velocity=64 time=0
EXTRACT: note_off channel=11 note=93 velocity=64 time=0
EXTRACT: note_off channel=6 note=81 velocity=64 time=0
EXTRACT: note_on channel=1 note=33 velocity=122 time=0.002
EXTRACT: note_on channel=2 note=45 velocity=125 time=0
EXTRACT: note_on channel=4 note=62 velocity=1 time=0
EXTRACT: note_on channel=5 note=45 velocity=112 time=0
EXTRACT: note_on channel=9 note=36 velocity=126 time=0
EXTRACT: note_on channel=9 note=38 velocity=117 time=0
EXTRACT: note_on channel=9 note=42 velocity=116 time=0
EXTRACT: note_on channel=9 note=70 velocity=107 time=0
EXTRACT: note_on channel=13 note=77 velocity=68 time=0
EXTRACT: note_off channel=9 note=39 velocity=65 time=0.017
EXTRACT: note_off channel=9 note=70 velocity=64 time=0.007
EXTRACT: note_off channel=9 note=42 velocity=64 time=0
EXTRACT: note_off channel=9 note=38 velocity=65 time=0
EXTRACT: note_off channel=9 note=36 velocity=64 time=0
EXTRACT: note_off channel=14 note=84 velocity=65 time=0.02
EXTRACT: note_off channel=11 note=96 velocity=65 time=0
EXTRACT: note_off channel=6 note=84 velocity=64 time=0
EXTRACT: note_off channel=5 note=45 velocity=64 time=0.067
EXTRACT: note_off channel=2 note=45 velocity=65 time=0
EXTRACT: note_on channel=2 note=45 velocity=75 time=0.009000000000000001
EXTRACT: note_on channel=5 note=45 velocity=62 time=0
EXTRACT: note_off channel=14 note=88 velocity=65 time=0.044
EXTRACT: note_off channel=11 note=100 velocity=65 time=0
EXTRACT: note_off channel=6 note=88 velocity=65 time=0
EXTRACT: note_on channel=12 note=74 velocity=127 time=0.004
EXTRACT: note_on channel=12 note=77 velocity=126 time=0.001
EXTRACT: pitchwheel channel=3 pitch=-2694 time=0.034
EXTRACT: note_off channel=1 note=33 velocity=64 time=0.001
EXTRACT: pitchwheel channel=3 pitch=-5048 time=0.014
EXTRACT: pitchwheel channel=3 pitch=-8186 time=0.013000000000000001
EXTRACT: note_off channel=5 note=45 velocity=64 time=0
EXTRACT: note_off channel=2 note=45 velocity=64 time=0
EXTRACT: note_on channel=6 note=88 velocity=82 time=0.002
EXTRACT: note_on channel=11 note=100 velocity=86 time=0
EXTRACT: note_on channel=14 note=88 velocity=87 time=0
EXTRACT: note_off channel=4 note=62 velocity=64 time=0.001
EXTRACT: note_on channel=8 note=60 velocity=100 time=0.003
EXTRACT: note_on channel=8 note=64 velocity=105 time=0
EXTRACT: note_on channel=1 note=43 velocity=123 time=0.003
EXTRACT: note_on channel=2 note=55 velocity=124 time=0
EXTRACT: note_on channel=4 note=60 velocity=1 time=0
EXTRACT: note_on channel=5 note=43 velocity=113 time=0
EXTRACT: note_on channel=9 note=42 velocity=117 time=0
EXTRACT: note_on channel=9 note=70 velocity=106 time=0
EXTRACT: note_off channel=9 note=70 velocity=65 time=0.024
EXTRACT: note_off channel=9 note=42 velocity=65 time=0
EXTRACT: note_off channel=14 note=88 velocity=64 time=0
EXTRACT: note_off channel=11 note=100 velocity=64 time=0
EXTRACT: note_off channel=6 note=88 velocity=64 time=0
EXTRACT: note_on channel=6 note=84 velocity=83 time=0.019
EXTRACT: note_on channel=11 note=96 velocity=86 time=0
EXTRACT: note_on channel=14 note=84 velocity=87 time=0
EXTRACT: note_off channel=8 note=64 velocity=65 time=0.018000000000000002
EXTRACT: note_off channel=8 note=60 velocity=65 time=0
EXTRACT: note_on channel=6 note=81 velocity=77 time=0.038
EXTRACT: note_on channel=11 note=93 velocity=83 time=0
EXTRACT: note_on channel=14 note=81 velocity=82 time=0
EXTRACT: note_off channel=14 note=84 velocity=65 time=0.005
EXTRACT: note_off channel=11 note=96 velocity=65 time=0
EXTRACT: note_off channel=6 note=84 velocity=65 time=0
EXTRACT: note_off channel=5 note=43 velocity=65 time=0.007
EXTRACT: note_off channel=2 note=55 velocity=65 time=0
EXTRACT: note_off channel=1 note=43 velocity=65 time=0.003
EXTRACT: note_on channel=8 note=60 velocity=96 time=0.003
EXTRACT: note_on channel=8 note=64 velocity=103 time=0
EXTRACT: note_on channel=1 note=41 velocity=122 time=0.003
EXTRACT: note_on channel=2 note=53 velocity=124 time=0
EXTRACT: note_on channel=5 note=41 velocity=112 time=0
EXTRACT: note_on channel=9 note=44 velocity=99 time=0
EXTRACT: note_on channel=9 note=70 velocity=87 time=0
EXTRACT: note_off channel=9 note=70 velocity=64 time=0.024
EXTRACT: note_off channel=9 note=44 velocity=65 time=0
EXTRACT: note_off channel=14 note=81 velocity=64 time=0.02
EXTRACT: note_off channel=11 note=93 velocity=64 time=0
EXTRACT: note_off channel=6 note=81 velocity=65 time=0
EXTRACT: note_off channel=3 note=79 velocity=64 time=0.01
EXTRACT: note_off channel=8 note=64 velocity=64 time=0.012
EXTRACT: note_off channel=8 note=60 velocity=65 time=0
EXTRACT: note_on channel=6 note=77 velocity=78 time=0.001
EXTRACT: note_on channel=11 note=89 velocity=85 time=0
EXTRACT: note_on channel=14 note=77 velocity=84 time=0
EXTRACT: note_off channel=12 note=74 velocity=65 time=0.01
EXTRACT: note_off channel=12 note=77 velocity=64 time=0.001
EXTRACT: control_change channel=13 control=6 value=60 time=0.002
EXTRACT: note_off channel=10 note=72 velocity=65 time=0.001
EXTRACT: note_off channel=10 note=69 velocity=64 time=0.005
EXTRACT: pitchwheel channel=3 pitch=0 time=0.013000000000000001
EXTRACT: note_off channel=5 note=41 velocity=65 time=0.012
EXTRACT: note_off channel=2 note=53 velocity=64 time=0
EXTRACT: note_off channel=1 note=41 velocity=65 time=0.003
EXTRACT: note_off channel=4 note=60 velocity=65 time=0
EXTRACT: note_off channel=13 note=72 velocity=65 time=0
EXTRACT: note_off channel=13 note=69 velocity=65 time=0
EXTRACT: note_on channel=1 note=26 velocity=122 time=0.006
EXTRACT: note_on channel=2 note=38 velocity=125 time=0
EXTRACT: note_on channel=4 note=62 velocity=1 time=0
EXTRACT: note_on channel=5 note=38 velocity=113 time=0
EXTRACT: note_on channel=9 note=36 velocity=126 time=0
EXTRACT: note_on channel=9 note=42 velocity=117 time=0
EXTRACT: note_on channel=9 note=70 velocity=107 time=0
EXTRACT: note_on channel=13 note=62 velocity=57 time=0
EXTRACT: note_on channel=13 note=65 velocity=52 time=0
EXTRACT: note_on channel=13 note=74 velocity=46 time=0.002
EXTRACT: note_on channel=10 note=65 velocity=95 time=0.003
EXTRACT: note_on channel=10 note=69 velocity=100 time=0
EXTRACT: note_on channel=13 note=69 velocity=63 time=0
EXTRACT: note_on channel=3 note=79 velocity=117 time=0
EXTRACT: note_on channel=6 note=74 velocity=76 time=0
EXTRACT: note_on channel=11 note=86 velocity=84 time=0
EXTRACT: note_on channel=14 note=74 velocity=85 time=0
EXTRACT: note_off channel=14 note=77 velocity=64 time=0.006
EXTRACT: note_off channel=11 note=89 velocity=64 time=0
EXTRACT: note_off channel=6 note=77 velocity=64 time=0
EXTRACT: note_off channel=9 note=70 velocity=64 time=0.01
EXTRACT: note_off channel=9 note=42 velocity=64 time=0
EXTRACT: note_off channel=9 note=36 velocity=65 time=0
EXTRACT: note_off channel=13 note=77 velocity=64 time=0.005
EXTRACT: note_off channel=5 note=38 velocity=64 time=0.082
EXTRACT: note_off channel=2 note=38 velocity=64 time=0
EXTRACT: note_on channel=2 note=38 velocity=75 time=0.009000000000000001
EXTRACT: note_on channel=5 note=38 velocity=63 time=0
EXTRACT: note_off channel=3 note=79 velocity=65 time=0.069
EXTRACT: note_off channel=1 note=26 velocity=64 time=0.015
EXTRACT: note_off channel=5 note=38 velocity=64 time=0.027
EXTRACT: note_off channel=2 note=38 velocity=65 time=0
EXTRACT: note_off channel=4 note=62 velocity=65 time=0.003
EXTRACT: note_on channel=8 note=62 velocity=95 time=0.003
EXTRACT: note_on channel=8 note=65 velocity=100 time=0
EXTRACT: note_on channel=1 note=38 velocity=123 time=0.003
EXTRACT: note_on channel=2 note=50 velocity=124 time=0
EXTRACT: note_on channel=4 note=60 velocity=1 time=0
EXTRACT: note_on channel=5 note=38 velocity=112 time=0
EXTRACT: note_on channel=9 note=46 velocity=104 time=0
EXTRACT: note_on channel=9 note=70 velocity=106 time=0
EXTRACT: note_on channel=3 note=77 velocity=117 time=0
EXTRACT: note_off channel=9 note=70 velocity=65 time=0.006
EXTRACT: note_off channel=9 note=46 velocity=64 time=0
EXTRACT: note_off channel=8 note=65 velocity=64 time=0.033
EXTRACT: note_off channel=8 note=62 velocity=64 time=0
EXTRACT: note_off channel=5 note=38 velocity=65 time=0.054
EXTRACT: note_off channel=2 note=50 velocity=65 time=0
EXTRACT: note_off channel=1 note=38 velocity=64 time=0.003
EXTRACT: note_on channel=8 note=62 velocity=73 time=0.003
EXTRACT: note_on channel=8 note=65 velocity=78 time=0
EXTRACT: note_on channel=2 note=50 velocity=124 time=0.003
EXTRACT: note_on channel=5 note=38 velocity=113 time=0
EXTRACT: note_on channel=9 note=70 velocity=87 time=0
EXTRACT: note_off channel=9 note=70 velocity=64 time=0.024
EXTRACT: note_off channel=8 note=65 velocity=65 time=0.04
EXTRACT: note_off channel=8 note=62 velocity=65 time=0
EXTRACT: note_off channel=5 note=38 velocity=64 time=0.047
EXTRACT: note_off channel=2 note=50 velocity=64 time=0
EXTRACT: note_on channel=9 note=39 velocity=119 time=0.001
EXTRACT: note_on channel=1 note=26 velocity=123 time=0.008
EXTRACT: note_on channel=2 note=38 velocity=125 time=0
EXTRACT: note_on channel=5 note=38 velocity=112 time=0
EXTRACT: note_on channel=9 note=36 velocity=127 time=0
EXTRACT: note_on channel=9 note=38 velocity=116 time=0
EXTRACT: note_on channel=9 note=42 velocity=116 time=0
EXTRACT: note_on channel=9 note=70 velocity=106 time=0
EXTRACT: note_off channel=9 note=39 velocity=65 time=0.017
EXTRACT: note_off channel=9 note=70 velocity=65 time=0.007
EXTRACT: note_off channel=9 note=42 velocity=64 time=0
EXTRACT: note_off channel=9 note=38 velocity=64 time=0
EXTRACT: note_off channel=9 note=36 velocity=65 time=0
EXTRACT: note_off channel=5 note=38 velocity=65 time=0.08700000000000001
EXTRACT: note_off channel=2 note=38 velocity=64 time=0
EXTRACT: note_on channel=2 note=38 velocity=74 time=0.009000000000000001
EXTRACT: note_on channel=5 note=38 velocity=62 time=0
EXTRACT: note_off channel=3 note=77 velocity=65 time=0.034
EXTRACT: note_off channel=1 note=26 velocity=65 time=0.05
EXTRACT: note_off channel=5 note=38 velocity=65 time=0.027
EXTRACT: note_off channel=2 note=38 velocity=65 time=0
EXTRACT: note_off channel=4 note=60 velocity=64 time=0.003
EXTRACT: note_on channel=8 note=62 velocity=96 time=0.003
EXTRACT: note_on channel=8 note=65 velocity=103 time=0
EXTRACT: note_on channel=1 note=38 velocity=122 time=0.003
EXTRACT: note_on channel=2 note=50 velocity=125 time=0
EXTRACT: note_on channel=4 note=60 velocity=1 time=0
EXTRACT: note_on channel=5 note=38 velocity=113 time=0
EXTRACT: note_on channel=9 note=42 velocity=115 time=0
EXTRACT: note_on channel=9 note=70 velocity=106 time=0
EXTRACT: note_on channel=3 note=77 velocity=116 time=0
EXTRACT: note_off channel=9 note=70 velocity=64 time=0.011
EXTRACT: note_off channel=9 note=42 velocity=65 time=0
EXTRACT: note_off channel=8 note=65 velocity=64 time=0.01
EXTRACT: note_off channel=8 note=62 velocity=64 time=0
EXTRACT: note_off channel=5 note=38 velocity=64 time=0.038
EXTRACT: note_off channel=2 note=50 velocity=65 time=0
EXTRACT: note_off channel=1 note=38 velocity=65 time=0.003
EXTRACT: note_on channel=8 note=62 velocity=89 time=0.003
EXTRACT: note_on channel=8 note=65 velocity=92 time=0
EXTRACT: note_on channel=2 note=50 velocity=125 time=0.003
EXTRACT: note_on channel=5 note=38 velocity=113 time=0
EXTRACT: note_on channel=9 note=44 velocity=98 time=0
EXTRACT: note_on channel=9 note=70 velocity=87 time=0
EXTRACT: note_off channel=9 note=70 velocity=65 time=0.024
EXTRACT: note_off channel=9 note=44 velocity=64 time=0
EXTRACT: note_off channel=8 note=65 velocity=65 time=0.032
EXTRACT: note_off channel=8 note=62 velocity=65 time=0
EXTRACT: note_off channel=3 note=77 velocity=64 time=0.018000000000000002
EXTRACT: note_off channel=5 note=38 velocity=65 time=0.037
EXTRACT: note_off channel=2 note=50 velocity=64 time=0
EXTRACT: note_off channel=4 note=60 velocity=64 time=0
EXTRACT: note_off channel=4 note=57 velocity=65 time=0.003
EXTRACT: note_on channel=1 note=26 velocity=122 time=0.006
EXTRACT: note_on channel=2 note=38 velocity=124 time=0
EXTRACT: note_on channel=4 note=55 velocity=1 time=0
EXTRACT: note_on channel=5 note=38 velocity=112 time=0
EXTRACT: note_on channel=9 note=36 velocity=127 time=0
EXTRACT: note_on channel=9 note=42 velocity=118 time=0
EXTRACT: note_on channel=9 note=70 velocity=107 time=0
EXTRACT: note_on channel=3 note=72 velocity=116 time=0.012
EXTRACT: note_off channel=9 note=70 velocity=65 time=0.012
EXTRACT: note_off channel=9 note=42 velocity=64 time=0
EXTRACT: note_off channel=9 note=36 velocity=64 time=0
EXTRACT: note_off channel=5 note=38 velocity=64 time=0.08700000000000001
EXTRACT: note_off channel=2 note=38 velocity=64 time=0
EXTRACT: note_on channel=2 note=38 velocity=75 time=0.009000000000000001
EXTRACT: note_on channel=5 note=38 velocity=62 time=0
EXTRACT: note_off channel=14 note=74 velocity=65 time=0.074
EXTRACT: note_off channel=11 note=86 velocity=65 time=0
EXTRACT: note_off channel=6 note=74 velocity=65 time=0
EXTRACT: note_off channel=1 note=26 velocity=64 time=0.01
EXTRACT: note_off channel=5 note=38 velocity=64 time=0.027
EXTRACT: note_off channel=2 note=38 velocity=65 time=0
EXTRACT: note_off channel=4 note=55 velocity=64 time=0
EXTRACT: pitchwheel channel=3 pitch=1737 time=0.004
EXTRACT: note_on channel=8 note=62 velocity=96 time=0.002
EXTRACT: note_on channel=8 note=65 velocity=103 time=0
EXTRACT: note_on channel=1 note=38 velocity=123 time=0.003
EXTRACT: note_on channel=2 note=50 velocity=124 time=0
EXTRACT: note_on channel=4 note=57 velocity=1 time=0
EXTRACT: note_on channel=5 note=38 velocity=113 time=0
EXTRACT: note_on channel=9 note=46 velocity=107 time=0
EXTRACT: note_on channel=9 note=70 velocity=106 time=0
EXTRACT: pitchwheel channel=3 pitch=6408 time=0.01
EXTRACT: note_on channel=6 note=74 velocity=67 time=0.011
EXTRACT: note_on channel=11 note=86 velocity=72 time=0
EXTRACT: note_on channel=14 note=74 velocity=73 time=0
EXTRACT: pitchwheel channel=3 pitch=8191 time=0.002
EXTRACT: note_off channel=9 note=70 velocity=65 time=0.001
EXTRACT: note_off channel=9 note=46 velocity=65 time=0
EXTRACT: note_off channel=8 note=65 velocity=64 time=0.032
EXTRACT: note_off channel=8 note=62 velocity=64 time=0
EXTRACT: note_on channel=6 note=77 velocity=82 time=0.04
EXTRACT: note_on channel=11 note=89 velocity=75 time=0
EXTRACT: note_on channel=14 note=77 velocity=74 time=0
EXTRACT: note_off channel=5 note=38 velocity=65 time=0.015
EXTRACT: note_off channel=2 note=50 velocity=64 time=0
EXTRACT: note_off channel=14 note=74 velocity=65 time=0.003
EXTRACT: note_off channel=11 note=86 velocity=65 time=0
EXTRACT: note_off channel=6 note=74 velocity=64 time=0
EXTRACT: note_off channel=1 note=38 velocity=64 time=0
EXTRACT: note_on channel=8 note=62 velocity=95 time=0.003
EXTRACT: note_on channel=8 note=65 velocity=100 time=0
EXTRACT: note_on channel=2 note=50 velocity=124 time=0.003
EXTRACT: note_on channel=5 note=38 velocity=113 time=0
EXTRACT: note_on channel=9 note=70 velocity=86 time=0
EXTRACT: note_off channel=9 note=70 velocity=64 time=0.024
EXTRACT: note_on channel=6 note=81 velocity=83 time=0.028
EXTRACT: note_on channel=11 note=93 velocity=90 time=0
EXTRACT: note_on channel=14 note=81 velocity=90 time=0
EXTRACT: note_off channel=8 note=65 velocity=65 time=0.001
EXTRACT: note_off channel=8 note=62 velocity=64 time=0
EXTRACT: note_off channel=14 note=77 velocity=64 time=0.021
EXTRACT: note_off channel=11 note=89 velocity=64 time=0
EXTRACT: note_off channel=6 note=77 velocity=64 time=0
EXTRACT: control_change channel=9 control=91 value=30 time=0.016
EXTRACT: note_off channel=5 note=38 velocity=65 time=0.021
EXTRACT: note_off channel=2 note=50 velocity=65 time=0
EXTRACT: note_on channel=9 note=39 velocity=119 time=0.001
EXTRACT: note_on channel=1 note=26 velocity=123 time=0.008
EXTRACT: note_on channel=2 note=38 velocity=125 time=0
EXTRACT: note_on channel=5 note=38 velocity=112 time=0
EXTRACT: note_on channel=9 note=36 velocity=126 time=0
EXTRACT: note_on channel=9 note=38 velocity=116 time=0
EXTRACT: note_on channel=9 note=42 velocity=122 time=0
EXTRACT: note_on channel=9 note=70 velocity=107 time=0
EXTRACT: note_on channel=6 note=86 velocity=85 time=0.001
EXTRACT: note_on channel=11 note=98 velocity=83 time=0
EXTRACT: note_on channel=14 note=86 velocity=83 time=0
EXTRACT: note_off channel=3 note=72 velocity=64 time=0.013000000000000001
EXTRACT: note_off channel=9 note=39 velocity=64 time=0.003
EXTRACT: note_off channel=9 note=70 velocity=65 time=0.007
EXTRACT: note_off channel=9 note=42 velocity=65 time=0
EXTRACT: note_off channel=9 note=38 velocity=64 time=0
EXTRACT: note_off channel=9 note=36 velocity=64 time=0
EXTRACT: note_off channel=14 note=81 velocity=64 time=0
EXTRACT: note_off channel=11 note=93 velocity=64 time=0
EXTRACT: note_off channel=6 note=81 velocity=65 time=0
EXTRACT: note_off channel=5 note=38 velocity=64 time=0.08700000000000001
EXTRACT: note_off channel=2 note=38 velocity=65 time=0
EXTRACT: note_on channel=2 note=38 velocity=75 time=0.009000000000000001
EXTRACT: note_on channel=5 note=38 velocity=62 time=0
EXTRACT: pitchwheel channel=3 pitch=128 time=0.002
EXTRACT: note_off channel=14 note=86 velocity=65 time=0.032
EXTRACT: note_off channel=11 note=98 velocity=65 time=0
EXTRACT: note_off channel=6 note=86 velocity=65 time=0
EXTRACT: note_on channel=12 note=75 velocity=126 time=0.014
EXTRACT: note_on channel=12 note=78 velocity=127 time=0.001
EXTRACT: note_off channel=1 note=26 velocity=65 time=0.035
EXTRACT: note_off channel=5 note=38 velocity=64 time=0.027
EXTRACT: note_off channel=2 note=38 velocity=64 time=0
EXTRACT: note_on channel=6 note=86 velocity=82 time=0.002
EXTRACT: note_on channel=11 note=98 velocity=89 time=0
EXTRACT: note_on channel=14 note=86 velocity=88 time=0
EXTRACT: note_on channel=8 note=62 velocity=100 time=0.004
EXTRACT: note_on channel=8 note=65 velocity=105 time=0
EXTRACT: note_on channel=1 note=38 velocity=122 time=0.003
EXTRACT: note_on channel=2 note=50 velocity=124 time=0
EXTRACT: note_on channel=5 note=38 velocity=113 time=0
EXTRACT: note_on channel=9 note=42 velocity=123 time=0
EXTRACT: note_on channel=9 note=70 velocity=107 time=0
EXTRACT: note_off channel=9 note=70 velocity=65 time=0.024
EXTRACT: note_off channel=9 note=42 velocity=64 time=0
EXTRACT: note_on channel=6 note=81 velocity=81 time=0.032
EXTRACT: note_on channel=11 note=93 velocity=84 time=0
EXTRACT: note_on channel=14 note=81 velocity=85 time=0
EXTRACT: note_off channel=8 note=65 velocity=65 time=0.005
EXTRACT: note_off channel=8 note=62 velocity=65 time=0
EXTRACT: note_off channel=14 note=86 velocity=65 time=0.003
EXTRACT: note_off channel=11 note=98 velocity=65 time=0
EXTRACT: note_off channel=6 note=86 velocity=64 time=0
EXTRACT: note_off channel=5 note=38 velocity=65 time=0.047
EXTRACT: note_off channel=2 note=50 velocity=65 time=0
EXTRACT: note_off channel=1 note=38 velocity=64 time=0.003
EXTRACT: note_off channel=13 note=69 velocity=65 time=0
EXTRACT: note_on channel=8 note=62 velocity=96 time=0.003
EXTRACT: note_on channel=8 note=65 velocity=103 time=0
EXTRACT: note_on channel=2 note=50 velocity=124 time=0.003
EXTRACT: note_on channel=5 note=38 velocity=112 time=0
EXTRACT: note_on channel=9 note=44 velocity=98 time=0
EXTRACT: note_on channel=9 note=70 velocity=86 time=0
EXTRACT: note_off channel=10 note=65 velocity=65 time=0.01
EXTRACT: note_off channel=10 note=69 velocity=64 time=0.006
EXTRACT: note_off channel=9 note=70 velocity=65 time=0.008
EXTRACT: note_off channel=9 note=44 velocity=65 time=0
EXTRACT: note_off channel=14 note=81 velocity=64 time=0.01
EXTRACT: note_off channel=11 note=93 velocity=64 time=0
EXTRACT: note_off channel=6 note=81 velocity=64 time=0
EXTRACT: note_on channel=6 note=77 velocity=80 time=0.003
EXTRACT: note_on channel=11 note=89 velocity=83 time=0
EXTRACT: note_on channel=14 note=77 velocity=83 time=0
EXTRACT: note_off channel=13 note=62 velocity=64 time=0.017
EXTRACT: note_off channel=8 note=65 velocity=64 time=0.012
EXTRACT: note_off channel=8 note=62 velocity=65 time=0
EXTRACT: note_off channel=13 note=74 velocity=64 time=0.008
EXTRACT: note_off channel=13 note=65 velocity=65 time=0
EXTRACT: note_off channel=12 note=75 velocity=64 time=0.003
EXTRACT: note_off channel=12 note=78 velocity=65 time=0.001
EXTRACT: note_off channel=14 note=77 velocity=64 time=0.026000000000000002
EXTRACT: note_off channel=11 note=89 velocity=64 time=0
EXTRACT: note_off channel=6 note=77 velocity=65 time=0
EXTRACT: note_off channel=5 note=38 velocity=65 time=0.007
EXTRACT: note_off channel=2 note=50 velocity=64 time=0
EXTRACT: note_off channel=4 note=57 velocity=65 time=0
EXTRACT: note_on channel=1 note=26 velocity=122 time=0.009000000000000001
EXTRACT: note_on channel=2 note=38 velocity=125 time=0
EXTRACT: note_on channel=4 note=60 velocity=1 time=0
EXTRACT: note_on channel=4 note=64 velocity=1 time=0
EXTRACT: note_on channel=5 note=38 velocity=113 time=0
EXTRACT: note_on channel=9 note=36 velocity=126 time=0
EXTRACT: note_on channel=9 note=42 velocity=127 time=0
EXTRACT: note_on channel=9 note=70 velocity=106 time=0
EXTRACT: note_on channel=13 note=62 velocity=57 time=0
EXTRACT: note_on channel=13 note=65 velocity=52 time=0
EXTRACT: note_on channel=13 note=74 velocity=46 time=0.002
EXTRACT: note_on channel=10 note=62 velocity=98 time=0.003
EXTRACT: note_on channel=10 note=65 velocity=99 time=0
EXTRACT: note_on channel=13 note=69 velocity=63 time=0
EXTRACT: note_on channel=6 note=74 velocity=72 time=0.002
EXTRACT: note_on channel=11 note=86 velocity=78 time=0
EXTRACT: note_on channel=14 note=74 velocity=78 time=0
EXTRACT: note_on channel=3 note=79 velocity=117 time=0
EXTRACT: note_off channel=9 note=70 velocity=64 time=0.007
EXTRACT: note_off channel=9 note=42 velocity=65 time=0
EXTRACT: note_off channel=9 note=36 velocity=64 time=0
EXTRACT: note_off channel=5 note=38 velocity=64 time=0.08700000000000001
EXTRACT: note_off channel=2 note=38 velocity=64 time=0
EXTRACT: note_on channel=2 note=38 velocity=75 time=0.009000000000000001
EXTRACT: note_on channel=5 note=38 velocity=73 time=0
EXTRACT: note_off channel=1 note=26 velocity=65 time=0.084
EXTRACT: note_off channel=5 note=38 velocity=64 time=0.027
EXTRACT: note_off channel=2 note=38 velocity=65 time=0
EXTRACT: note_off channel=4 note=64 velocity=65 time=0
EXTRACT: note_off channel=4 note=60 velocity=64 time=0
EXTRACT: note_on channel=8 note=62 velocity=95 time=0.006
EXTRACT: note_on channel=8 note=65 velocity=100 time=0
EXTRACT: note_on channel=1 note=38 velocity=123 time=0.003
EXTRACT: note_on channel=2 note=50 velocity=124 time=0
EXTRACT: note_on channel=4 note=62 velocity=1 time=0
EXTRACT: note_on channel=4 note=65 velocity=1 time=0
EXTRACT: note_on channel=5 note=38 velocity=112 time=0
EXTRACT: note_on channel=9 note=46 velocity=113 time=0
EXTRACT: note_on channel=9 note=70 velocity=107 time=0
EXTRACT: note_on channel=3 note=81 velocity=117 time=0
EXTRACT: note_off channel=3 note=79 velocity=65 time=0.007
EXTRACT: note_off channel=9 note=70 velocity=64 time=0.014
EXTRACT: note_off channel=9 note=46 velocity=65 time=0
EXTRACT: note_off channel=8 note=65 velocity=64 time=0.033
EXTRACT: note_off channel=8 note=62 velocity=64 time=0
EXTRACT: note_off channel=5 note=38 velocity=65 time=0.054
EXTRACT: note_off channel=2 note=50 velocity=65 time=0
EXTRACT: note_on channel=8 note=62 velocity=73 time=0.006
EXTRACT: note_on channel=8 note=65 velocity=78 time=0
EXTRACT: note_on channel=2 note=50 velocity=124 time=0.003
EXTRACT: note_on channel=5 note=38 velocity=113 time=0
EXTRACT: note_on channel=9 note=70 velocity=86 time=0
EXTRACT: note_off channel=9 note=70 velocity=65 time=0.024
EXTRACT: note_off channel=8 note=65 velocity=65 time=0.04
EXTRACT: note_off channel=8 note=62 velocity=65 time=0
EXTRACT: note_off channel=1 note=38 velocity=65 time=0.035
EXTRACT: note_off channel=5 note=38 velocity=64 time=0.012
EXTRACT: note_off channel=2 note=50 velocity=64 time=0
EXTRACT: note_on channel=9 note=39 velocity=118 time=0.001
EXTRACT: note_on channel=1 note=26 velocity=122 time=0.008
EXTRACT: note_on channel=2 note=38 velocity=125 time=0
EXTRACT: note_on channel=4 note=60 velocity=1 time=0
EXTRACT: note_on channel=4 note=64 velocity=1 time=0
EXTRACT: note_on channel=5 note=38 velocity=112 time=0
EXTRACT: note_on channel=9 note=36 velocity=127 time=0
EXTRACT: note_on channel=9 note=38 velocity=117 time=0
EXTRACT: note_on channel=9 note=42 velocity=118 time=0
EXTRACT: note_on channel=9 note=70 velocity=107 time=0
EXTRACT: note_off channel=4 note=65 velocity=65 time=0.006
EXTRACT: note_off channel=4 note=62 velocity=64 time=0
EXTRACT: note_off channel=3 note=81 velocity=65 time=0.003
EXTRACT: note_off channel=9 note=39 velocity=64 time=0.008
EXTRACT: note_off channel=9 note=70 velocity=64 time=0.007
EXTRACT: note_off channel=9 note=42 velocity=65 time=0
EXTRACT: note_off channel=9 note=38 velocity=65 time=0
EXTRACT: note_off channel=9 note=36 velocity=64 time=0
EXTRACT: note_on channel=3 note=79 velocity=116 time=0
EXTRACT: note_off channel=5 note=38 velocity=65 time=0.083
EXTRACT: note_off channel=2 note=38 velocity=64 time=0
EXTRACT: note_on channel=2 note=38 velocity=74 time=0.009000000000000001
EXTRACT: note_on channel=5 note=38 velocity=72 time=0
EXTRACT: note_off channel=1 note=26 velocity=64 time=0.069
EXTRACT: note_off channel=3 note=79 velocity=64 time=0.038
EXTRACT: note_off channel=5 note=38 velocity=65 time=0.004
EXTRACT: note_off channel=2 note=38 velocity=65 time=0
EXTRACT: note_off channel=4 note=64 velocity=64 time=0
EXTRACT: note_off channel=4 note=60 velocity=65 time=0
EXTRACT: note_on channel=8 note=62 velocity=96 time=0.006
EXTRACT: note_on channel=8 note=65 velocity=103 time=0
EXTRACT: note_on channel=1 note=38 velocity=123 time=0.003
EXTRACT: note_on channel=2 note=50 velocity=125 time=0
EXTRACT: note_on channel=4 note=62 velocity=1 time=0
EXTRACT: note_on channel=4 note=65 velocity=1 time=0
EXTRACT: note_on channel=5 note=38 velocity=113 time=0
EXTRACT: note_on channel=9 note=42 velocity=116 time=0
EXTRACT: note_on channel=9 note=70 velocity=107 time=0
EXTRACT: note_on channel=3 note=81 velocity=116 time=0
EXTRACT: note_off channel=9 note=70 velocity=64 time=0.016
EXTRACT: note_off channel=9 note=42 velocity=65 time=0
EXTRACT: note_off channel=8 note=65 velocity=64 time=0.029
EXTRACT: note_off channel=8 note=62 velocity=64 time=0
EXTRACT: note_off channel=5 note=38 velocity=64 time=0.058
EXTRACT: note_off channel=2 note=50 velocity=65 time=0
EXTRACT: note_on channel=8 note=62 velocity=89 time=0.006
EXTRACT: note_on channel=8 note=65 velocity=92 time=0
EXTRACT: note_on channel=2 note=50 velocity=125 time=0.003
EXTRACT: note_on channel=5 note=38 velocity=113 time=0
EXTRACT: note_on channel=9 note=44 velocity=99 time=0
EXTRACT: note_on channel=9 note=70 velocity=86 time=0
EXTRACT: control_change channel=13 control=6 value=52 time=0
EXTRACT: note_off channel=9 note=70 velocity=64 time=0.024
EXTRACT: note_off channel=9 note=44 velocity=65 time=0
EXTRACT: note_off channel=8 note=65 velocity=65 time=0.032
EXTRACT: note_off channel=8 note=62 velocity=65 time=0
EXTRACT: note_off channel=3 note=81 velocity=64 time=0
EXTRACT: note_off channel=1 note=38 velocity=65 time=0.043000000000000003
EXTRACT: pitchwheel channel=3 pitch=-8070 time=0.004
EXTRACT: note_off channel=5 note=38 velocity=65 time=0.008
EXTRACT: note_off channel=2 note=50 velocity=64 time=0
EXTRACT: note_off channel=4 note=65 velocity=65 time=0
EXTRACT: note_off channel=4 note=62 velocity=64 time=0
EXTRACT: note_on channel=1 note=26 velocity=123 time=0.009000000000000001
EXTRACT: note_on channel=2 note=38 velocity=124 time=0
EXTRACT: note_on channel=4 note=62 velocity=1 time=0
EXTRACT: note_on channel=4 note=65 velocity=1 time=0
EXTRACT: note_on channel=5 note=38 velocity=112 time=0
EXTRACT: note_on channel=9 note=36 velocity=127 time=0
EXTRACT: note_on channel=9 note=42 velocity=125 time=0
EXTRACT: note_on channel=9 note=70 velocity=107 time=0
EXTRACT: note_on channel=3 note=81 velocity=117 time=0
EXTRACT: note_off channel=9 note=70 velocity=65 time=0.021
EXTRACT: note_off channel=9 note=42 velocity=64 time=0
EXTRACT: note_off channel=9 note=36 velocity=65 time=0
EXTRACT: note_off channel=5 note=38 velocity=64 time=0.078
EXTRACT: note_off channel=2 note=38 velocity=64 time=0
EXTRACT: pitchwheel channel=3 pitch=-6150 time=0.002
EXTRACT: note_off channel=6 note=74 velocity=65 time=0.001
EXTRACT: note_on channel=2 note=38 velocity=75 time=0.006
EXTRACT: note_on channel=5 note=38 velocity=72 time=0
EXTRACT: pitchwheel channel=3 pitch=-4870 time=0.003
EXTRACT: pitchwheel channel=3 pitch=-3718 time=0.01
EXTRACT: pitchwheel channel=3 pitch=-2566 time=0.01
EXTRACT: pitchwheel channel=3 pitch=-1414 time=0.01
EXTRACT: pitchwheel channel=3 pitch=122 time=0.02
EXTRACT: note_off channel=14 note=74 velocity=65 time=0.001
EXTRACT: note_off channel=11 note=86 velocity=65 time=0
EXTRACT: note_off channel=1 note=26 velocity=64 time=0.045
EXTRACT: note_off channel=5 note=38 velocity=64 time=0.012
EXTRACT: note_off channel=2 note=38 velocity=65 time=0
EXTRACT: note_on channel=8 note=62 velocity=96 time=0.006
EXTRACT: note_on channel=8 note=65 velocity=103 time=0
EXTRACT: note_on channel=1 note=38 velocity=122 time=0.003
EXTRACT: note_on channel=2 note=50 velocity=124 time=0
EXTRACT: note_on channel=5 note=38 velocity=113 time=0
EXTRACT: note_on channel=9 note=46 velocity=110 time=0
EXTRACT: note_on channel=9 note=70 velocity=106 time=0
EXTRACT: note_on channel=6 note=74 velocity=73 time=0.001
EXTRACT: note_on channel=11 note=86 velocity=76 time=0
EXTRACT: note_on channel=14 note=74 velocity=77 time=0
EXTRACT: note_off channel=9 note=70 velocity=64 time=0.023
EXTRACT: note_off channel=9 note=46 velocity=64 time=0
EXTRACT: note_off channel=8 note=65 velocity=64 time=0.032
EXTRACT: note_off channel=8 note=62 velocity=64 time=0
EXTRACT: note_on channel=6 note=77 velocity=83 time=0.02
EXTRACT: note_on channel=11 note=89 velocity=89 time=0
EXTRACT: note_on channel=14 note=77 velocity=88 time=0
EXTRACT: note_off channel=14 note=74 velocity=64 time=0.018000000000000002
EXTRACT: note_off channel=11 note=86 velocity=64 time=0
EXTRACT: note_off channel=6 note=74 velocity=64 time=0
EXTRACT: note_off channel=5 note=38 velocity=65 time=0.017
EXTRACT: note_off channel=2 note=50 velocity=64 time=0
EXTRACT: note_on channel=8 note=62 velocity=95 time=0.006
EXTRACT: note_on channel=8 note=65 velocity=100 time=0
EXTRACT: note_on channel=2 note=50 velocity=124 time=0.003
EXTRACT: note_on channel=5 note=38 velocity=113 time=0
EXTRACT: note_on channel=9 note=70 velocity=86 time=0
EXTRACT: note_off channel=9 note=70 velocity=65 time=0.024
EXTRACT: note_on channel=6 note=81 velocity=62 time=0.008
EXTRACT: note_on channel=11 note=93 velocity=79 time=0
EXTRACT: note_on channel=14 note=81 velocity=78 time=0
EXTRACT: note_off channel=3 note=81 velocity=65 time=0.017
EXTRACT: note_off channel=8 note=65 velocity=65 time=0.004
EXTRACT: note_off channel=8 note=62 velocity=64 time=0
EXTRACT: note_off channel=14 note=77 velocity=65 time=0.001
EXTRACT: note_off channel=11 note=89 velocity=65 time=0
EXTRACT: note_off channel=6 note=77 velocity=64 time=0
EXTRACT: note_off channel=1 note=38 velocity=64 time=0.03
EXTRACT: note_on channel=6 note=86 velocity=72 time=0.017
EXTRACT: note_on channel=11 note=98 velocity=82 time=0
EXTRACT: note_on channel=14 note=86 velocity=83 time=0
EXTRACT: note_on channel=3 note=79 velocity=116 time=0
EXTRACT: note_off channel=5 note=38 velocity=65 time=0
EXTRACT: note_off channel=2 note=50 velocity=65 time=0
EXTRACT: note_off channel=4 note=65 velocity=64 time=0
EXTRACT: note_off channel=4 note=62 velocity=65 time=0
EXTRACT: note_on channel=9 note=39 velocity=119 time=0.001
EXTRACT: note_on channel=1 note=26 velocity=123 time=0.008
EXTRACT: note_on channel=2 note=38 velocity=125 time=0
EXTRACT: note_on channel=4 note=60 velocity=1 time=0
EXTRACT: note_on channel=4 note=64 velocity=1 time=0
EXTRACT: note_on channel=5 note=38 velocity=112 time=0
EXTRACT: note_on channel=9 note=36 velocity=126 time=0
EXTRACT: note_on channel=9 note=38 velocity=117 time=0
EXTRACT: note_on channel=9 note=42 velocity=99 time=0
EXTRACT: note_on channel=9 note=70 velocity=107 time=0
EXTRACT: note_off channel=14 note=81 velocity=65 time=0.004
EXTRACT: note_off channel=11 note=93 velocity=65 time=0
EXTRACT: note_off channel=6 note=81 velocity=65 time=0
EXTRACT: note_off channel=9 note=39 velocity=65 time=0.013000000000000001
EXTRACT: note_off channel=9 note=70 velocity=64 time=0.007
EXTRACT: note_off channel=9 note=42 velocity=64 time=0
EXTRACT: note_off channel=9 note=38 velocity=65 time=0
EXTRACT: note_off channel=9 note=36 velocity=65 time=0
EXTRACT: note_off channel=5 note=38 velocity=64 time=0.08700000000000001
EXTRACT: note_off channel=2 note=38 velocity=65 time=0
EXTRACT: note_on channel=2 note=38 velocity=75 time=0.009000000000000001
EXTRACT: note_on channel=5 note=38 velocity=72 time=0
EXTRACT: note_off channel=1 note=26 velocity=65 time=0.084
EXTRACT: note_off channel=3 note=79 velocity=64 time=0.002
EXTRACT: note_on channel=6 note=81 velocity=75 time=0.02
EXTRACT: note_on channel=11 note=93 velocity=76 time=0
EXTRACT: note_on channel=14 note=81 velocity=77 time=0
EXTRACT: note_on channel=3 note=77 velocity=117 time=0
EXTRACT: note_on channel=12 note=75 velocity=126 time=0
EXTRACT: note_on channel=12 note=78 velocity=127 time=0.001
EXTRACT: note_off channel=5 note=38 velocity=64 time=0.002
EXTRACT: note_off channel=2 note=38 velocity=64 time=0
EXTRACT: note_off channel=4 note=64 velocity=65 time=0
EXTRACT: note_off channel=4 note=60 velocity=64 time=0
EXTRACT: note_on channel=8 note=62 velocity=100 time=0.006
EXTRACT: note_on channel=8 note=65 velocity=105 time=0
EXTRACT: note_on channel=1 note=38 velocity=122 time=0.003
EXTRACT: note_on channel=2 note=50 velocity=124 time=0
EXTRACT: note_on channel=4 note=57 velocity=1 time=0
EXTRACT: note_on channel=4 note=62 velocity=1 time=0
EXTRACT: note_on channel=5 note=38 velocity=113 time=0
EXTRACT: note_on channel=9 note=42 velocity=114 time=0
EXTRACT: note_on channel=9 note=70 velocity=107 time=0
EXTRACT: note_off channel=14 note=86 velocity=64 time=0.004
EXTRACT: note_off channel=11 note=98 velocity=64 time=0
EXTRACT: note_off channel=6 note=86 velocity=64 time=0
EXTRACT: note_off channel=9 note=70 velocity=64 time=0.02
EXTRACT: note_off channel=9 note=42 velocity=64 time=0
EXTRACT: note_off channel=8 note=65 velocity=65 time=0.037
EXTRACT: note_off channel=8 note=62 velocity=65 time=0
EXTRACT: note_off channel=5 note=38 velocity=65 time=0.05
EXTRACT: note_off channel=2 note=50 velocity=65 time=0
EXTRACT: note_off channel=14 note=81 velocity=65 time=0.003
EXTRACT: note_off channel=11 note=93 velocity=65 time=0
EXTRACT: note_off channel=6 note=81 velocity=65 time=0
EXTRACT: note_on channel=6 note=77 velocity=73 time=0.003
EXTRACT: note_on channel=8 note=62 velocity=96 time=0
EXTRACT: note_on channel=8 note=65 velocity=103 time=0
EXTRACT: note_on channel=11 note=89 velocity=81 time=0
EXTRACT: note_on channel=14 note=77 velocity=80 time=0
EXTRACT: note_on channel=2 note=50 velocity=124 time=0.003
EXTRACT: note_on channel=5 note=38 velocity=112 time=0
EXTRACT: note_on channel=9 note=44 velocity=99 time=0
EXTRACT: note_on channel=9 note=70 velocity=86 time=0
EXTRACT: note_off channel=9 note=70 velocity=65 time=0.024
EXTRACT: note_off channel=9 note=44 velocity=64 time=0
EXTRACT: control_change channel=14 control=6 value=80 time=0.016
EXTRACT: note_off channel=3 note=77 velocity=65 time=0.009000000000000001
EXTRACT: note_off channel=8 note=65 velocity=64 time=0.017
EXTRACT: note_off channel=8 note=62 velocity=65 time=0
EXTRACT: note_off channel=1 note=38 velocity=65 time=0.018000000000000002
EXTRACT: note_on channel=3 note=79 velocity=117 time=0
EXTRACT: note_off channel=5 note=38 velocity=65 time=0.001
EXTRACT: note_off channel=2 note=50 velocity=64 time=0
EXTRACT: note_off channel=4 note=62 velocity=64 time=0
EXTRACT: note_off channel=4 note=57 velocity=65 time=0
EXTRACT: note_on channel=6 note=74 velocity=78 time=0.006
EXTRACT: note_on channel=11 note=86 velocity=85 time=0
EXTRACT: note_on channel=14 note=74 velocity=84 time=0
EXTRACT: note_on channel=1 note=26 velocity=122 time=0.003
EXTRACT: note_on channel=2 note=38 velocity=125 time=0
EXTRACT: note_on channel=4 note=60 velocity=1 time=0
EXTRACT: note_on channel=4 note=64 velocity=1 time=0
EXTRACT: note_on channel=5 note=38 velocity=113 time=0
EXTRACT: note_on channel=9 note=36 velocity=126 time=0
EXTRACT: note_on channel=9 note=42 velocity=122 time=0
EXTRACT: note_on channel=9 note=70 velocity=106 time=0
EXTRACT: note_off channel=14 note=77 velocity=64 time=0.014
EXTRACT: note_off channel=11 note=89 velocity=64 time=0
EXTRACT: note_off channel=6 note=77 velocity=65 time=0
EXTRACT: note_off channel=12 note=75 velocity=64 time=0.003
EXTRACT: note_off channel=12 note=78 velocity=65 time=0.001
EXTRACT: note_off channel=9 note=70 velocity=65 time=0.006
EXTRACT: note_off channel=9 note=42 velocity=65 time=0
EXTRACT: note_off channel=9 note=36 velocity=64 time=0
EXTRACT: control_change channel=13 control=6 value=54 time=0.056
EXTRACT: note_off channel=5 note=38 velocity=64 time=0.031
EXTRACT: note_off channel=2 note=38 velocity=64 time=0
EXTRACT: note_on channel=6 note=76 velocity=78 time=0.005
EXTRACT: note_on channel=11 note=88 velocity=84 time=0
EXTRACT: note_on channel=14 note=76 velocity=85 time=0
EXTRACT: note_off channel=10 note=62 velocity=64 time=0.003
EXTRACT: note_on channel=2 note=38 velocity=75 time=0.001
EXTRACT: note_on channel=5 note=38 velocity=73 time=0
EXTRACT: note_off channel=14 note=74 velocity=64 time=0.004
EXTRACT: note_off channel=11 note=86 velocity=64 time=0
EXTRACT: note_off channel=6 note=74 velocity=64 time=0
EXTRACT: note_off channel=3 note=79 velocity=65 time=0.07100000000000001
EXTRACT: note_off channel=1 note=26 velocity=64 time=0.009000000000000001
EXTRACT: note_off channel=5 note=38 velocity=64 time=0.027
EXTRACT: note_off channel=2 note=38 velocity=65 time=0
EXTRACT: note_off channel=4 note=64 velocity=64 time=0
EXTRACT: note_off channel=4 note=60 velocity=65 time=0
EXTRACT: note_off channel=13 note=69 velocity=65 time=0.003
EXTRACT: note_off channel=13 note=74 velocity=64 time=0
EXTRACT: note_off channel=13 note=65 velocity=64 time=0
EXTRACT: note_off channel=13 note=62 velocity=65 time=0
EXTRACT: note_on channel=8 note=62 velocity=95 time=0.003
EXTRACT: note_on channel=8 note=65 velocity=100 time=0
EXTRACT: note_on channel=6 note=77 velocity=75 time=0.001
EXTRACT: note_on channel=11 note=89 velocity=92 time=0
EXTRACT: note_on channel=14 note=77 velocity=93 time=0
EXTRACT: note_off channel=10 note=65 velocity=65 time=0.001
EXTRACT: note_on channel=1 note=28 velocity=123 time=0
EXTRACT: note_on channel=2 note=52 velocity=124 time=0
EXTRACT: note_on channel=3 note=81 velocity=116 time=0
EXTRACT: note_on channel=4 note=60 velocity=1 time=0
EXTRACT: note_on channel=4 note=65 velocity=1 time=0
EXTRACT: note_on channel=5 note=40 velocity=112 time=0
EXTRACT: note_on channel=9 note=46 velocity=105 time=0
EXTRACT: note_on channel=9 note=70 velocity=107 time=0
EXTRACT: note_on channel=13 note=64 velocity=81 time=0
EXTRACT: note_on channel=10 note=64 velocity=91 time=0.005
EXTRACT: note_on channel=10 note=67 velocity=78 time=0
EXTRACT: note_off channel=14 note=76 velocity=65 time=0
EXTRACT: note_off channel=11 note=88 velocity=65 time=0
EXTRACT: note_off channel=6 note=76 velocity=65 time=0
EXTRACT: note_on channel=13 note=67 velocity=64 time=0.007
EXTRACT: note_on channel=13 note=71 velocity=62 time=0.008
EXTRACT: note_off channel=9 note=70 velocity=65 time=0.004
EXTRACT: note_off channel=9 note=46 velocity=64 time=0
EXTRACT: note_off channel=8 note=65 velocity=64 time=0.033
EXTRACT: note_off channel=8 note=62 velocity=64 time=0
EXTRACT: note_off channel=5 note=40 velocity=65 time=0.054
EXTRACT: note_off channel=2 note=52 velocity=65 time=0
EXTRACT: note_on channel=8 note=62 velocity=73 time=0.006
EXTRACT: note_on channel=8 note=65 velocity=78 time=0
EXTRACT: note_on channel=2 note=52 velocity=124 time=0.003
EXTRACT: note_on channel=5 note=40 velocity=113 time=0
EXTRACT: note_on channel=9 note=70 velocity=87 time=0
EXTRACT: note_on channel=6 note=79 velocity=74 time=0.001
EXTRACT: note_on channel=11 note=91 velocity=83 time=0
EXTRACT: note_on channel=14 note=79 velocity=82 time=0
EXTRACT: note_off channel=14 note=77 velocity=65 time=0.013000000000000001
EXTRACT: note_off channel=11 note=89 velocity=65 time=0
EXTRACT: note_off channel=6 note=77 velocity=64 time=0
EXTRACT: note_off channel=9 note=70 velocity=64 time=0.01
EXTRACT: note_off channel=8 note=65 velocity=65 time=0.04
EXTRACT: note_off channel=8 note=62 velocity=65 time=0
EXTRACT: note_off channel=1 note=28 velocity=64 time=0.005
EXTRACT: note_off channel=13 note=64 velocity=65 time=0.006
EXTRACT: note_on channel=6 note=81 velocity=77 time=0.022
EXTRACT: note_on channel=11 note=93 velocity=86 time=0
EXTRACT: note_on channel=14 note=81 velocity=86 time=0
EXTRACT: note_off channel=5 note=40 velocity=64 time=0.014
EXTRACT: note_off channel=2 note=52 velocity=64 time=0
EXTRACT: note_on channel=9 note=39 velocity=118 time=0.001
EXTRACT: note_off channel=13 note=71 velocity=64 time=0.002
EXTRACT: note_off channel=13 note=67 velocity=64 time=0
EXTRACT: note_off channel=10 note=67 velocity=65 time=0.005
EXTRACT: note_on channel=1 note=29 velocity=123 time=0.001
EXTRACT: note_on channel=2 note=41 velocity=125 time=0
EXTRACT: note_on channel=5 note=41 velocity=112 time=0
EXTRACT: note_on channel=9 note=36 velocity=127 time=0
EXTRACT: note_on channel=9 note=38 velocity=116 time=0
EXTRACT: note_on channel=9 note=42 velocity=111 time=0
EXTRACT: note_on channel=9 note=70 velocity=106 time=0
EXTRACT: note_on channel=13 note=65 velocity=89 time=0
EXTRACT: note_off channel=10 note=64 velocity=64 time=0.001
EXTRACT: note_off channel=14 note=79 velocity=64 time=0.001
EXTRACT: note_off channel=11 note=91 velocity=64 time=0
EXTRACT: note_off channel=6 note=79 velocity=64 time=0
EXTRACT: note_on channel=10 note=65 velocity=104 time=0.003
EXTRACT: note_on channel=10 note=69 velocity=87 time=0
EXTRACT: note_on channel=13 note=69 velocity=34 time=0.012
EXTRACT: note_on channel=13 note=72 velocity=81 time=0
EXTRACT: note_off channel=9 note=39 velocity=65 time=0
EXTRACT: note_off channel=9 note=70 velocity=65 time=0.007
EXTRACT: note_off channel=9 note=42 velocity=64 time=0
EXTRACT: note_off channel=9 note=38 velocity=64 time=0
EXTRACT: note_off channel=9 note=36 velocity=65 time=0
EXTRACT: note_off channel=3 note=81 velocity=64 time=0.05
EXTRACT: note_off channel=5 note=41 velocity=65 time=0.037
EXTRACT: note_off channel=2 note=41 velocity=64 time=0
EXTRACT: note_on channel=2 note=41 velocity=74 time=0.009000000000000001
EXTRACT: note_on channel=5 note=41 velocity=72 time=0
EXTRACT: note_off channel=1 note=29 velocity=65 time=0.084
EXTRACT: note_off channel=5 note=41 velocity=65 time=0.027
EXTRACT: note_off channel=2 note=41 velocity=65 time=0
EXTRACT: note_off channel=4 note=65 velocity=65 time=0
EXTRACT: note_off channel=4 note=60 velocity=64 time=0
EXTRACT: note_on channel=8 note=60 velocity=96 time=0.006
EXTRACT: note_on channel=8 note=65 velocity=103 time=0
EXTRACT: note_on channel=1 note=41 velocity=122 time=0.003
EXTRACT: note_on channel=2 note=53 velocity=125 time=0
EXTRACT: note_on channel=4 note=60 velocity=1 time=0
EXTRACT: note_on channel=4 note=65 velocity=1 time=0
EXTRACT: note_on channel=5 note=41 velocity=113 time=0
EXTRACT: note_on channel=9 note=42 velocity=124 time=0
EXTRACT: note_on channel=9 note=70 velocity=106 time=0
EXTRACT: note_on channel=3 note=81 velocity=117 time=0
EXTRACT: note_off channel=9 note=70 velocity=65 time=0.009000000000000001
EXTRACT: note_off channel=9 note=42 velocity=64 time=0
EXTRACT: note_off channel=8 note=65 velocity=64 time=0.008
EXTRACT: note_off channel=8 note=60 velocity=64 time=0
EXTRACT: note_off channel=5 note=41 velocity=64 time=0.058
EXTRACT: note_off channel=2 note=53 velocity=65 time=0
EXTRACT: note_on channel=8 note=60 velocity=89 time=0.006
EXTRACT: note_on channel=8 note=65 velocity=92 time=0
EXTRACT: note_on channel=2 note=53 velocity=125 time=0.003
EXTRACT: note_on channel=5 note=41 velocity=113 time=0
EXTRACT: note_on channel=9 note=44 velocity=98 time=0
EXTRACT: note_on channel=9 note=70 velocity=87 time=0
EXTRACT: note_off channel=9 note=70 velocity=64 time=0.024
EXTRACT: note_off channel=9 note=44 velocity=65 time=0
EXTRACT: note_off channel=8 note=65 velocity=65 time=0.032
EXTRACT: note_off channel=8 note=60 velocity=65 time=0
EXTRACT: note_off channel=1 note=41 velocity=65 time=0.028
EXTRACT: note_off channel=5 note=41 velocity=65 time=0.027
EXTRACT: note_off channel=2 note=53 velocity=64 time=0
EXTRACT: note_on channel=1 note=29 velocity=122 time=0.009000000000000001
EXTRACT: note_on channel=2 note=41 velocity=124 time=0
EXTRACT: note_on channel=5 note=41 velocity=112 time=0
EXTRACT: note_on channel=9 note=36 velocity=126 time=0
EXTRACT: note_on channel=9 note=42 velocity=125 time=0
EXTRACT: note_on channel=9 note=70 velocity=106 time=0
EXTRACT: note_off channel=9 note=70 velocity=64 time=0.024
EXTRACT: note_off channel=9 note=42 velocity=65 time=0
EXTRACT: note_off channel=9 note=36 velocity=65 time=0
EXTRACT: note_off channel=5 note=41 velocity=64 time=0.08700000000000001
EXTRACT: note_off channel=2 note=41 velocity=64 time=0
EXTRACT: note_on channel=2 note=41 velocity=75 time=0.009000000000000001
EXTRACT: note_on channel=5 note=41 velocity=72 time=0
EXTRACT: note_off channel=3 note=81 velocity=65 time=0.014
EXTRACT: note_off channel=14 note=81 velocity=64 time=0.06
EXTRACT: note_off channel=11 note=93 velocity=64 time=0
EXTRACT: note_off channel=6 note=81 velocity=65 time=0
EXTRACT: note_off channel=1 note=29 velocity=64 time=0.01
EXTRACT: note_off channel=5 note=41 velocity=64 time=0.027
EXTRACT: note_off channel=2 note=41 velocity=65 time=0
EXTRACT: note_off channel=4 note=65 velocity=65 time=0
EXTRACT: note_on channel=8 note=60 velocity=96 time=0.006
EXTRACT: note_on channel=8 note=65 velocity=103 time=0
EXTRACT: note_on channel=1 note=41 velocity=123 time=0.003
EXTRACT: note_on channel=2 note=53 velocity=124 time=0
EXTRACT: note_on channel=4 note=57 velocity=1 time=0
EXTRACT: note_on channel=5 note=41 velocity=113 time=0
EXTRACT: note_on channel=9 note=46 velocity=110 time=0
EXTRACT: note_on channel=9 note=70 velocity=107 time=0
EXTRACT: note_on channel=3 note=72 velocity=116 time=0
EXTRACT: note_on channel=6 note=77 velocity=75 time=0.015
EXTRACT: note_on channel=11 note=89 velocity=83 time=0
EXTRACT: note_on channel=14 note=77 velocity=83 time=0
EXTRACT: note_off channel=9 note=70 velocity=64 time=0.003
EXTRACT: note_off channel=9 note=46 velocity=65 time=0
EXTRACT: note_off channel=8 note=65 velocity=64 time=0.02
EXTRACT: note_off channel=8 note=60 velocity=64 time=0
EXTRACT: note_on channel=6 note=81 velocity=54 time=0.039
EXTRACT: note_on channel=11 note=93 velocity=77 time=0
EXTRACT: note_on channel=14 note=81 velocity=76 time=0
EXTRACT: note_off channel=5 note=41 velocity=65 time=0.016
EXTRACT: note_off channel=2 note=53 velocity=64 time=0
EXTRACT: note_on channel=8 note=60 velocity=95 time=0.006
EXTRACT: note_on channel=8 note=65 velocity=100 time=0
EXTRACT: note_on channel=2 note=53 velocity=124 time=0.003
EXTRACT: note_on channel=5 note=41 velocity=113 time=0
EXTRACT: note_on channel=9 note=70 velocity=87 time=0
EXTRACT: note_off channel=9 note=70 velocity=64 time=0.024
EXTRACT: note_off channel=14 note=77 velocity=65 time=0.01
EXTRACT: note_off channel=11 note=89 velocity=65 time=0
EXTRACT: note_off channel=6 note=77 velocity=65 time=0
EXTRACT: note_on channel=6 note=84 velocity=81 time=0.012
EXTRACT: note_on channel=11 note=96 velocity=84 time=0
EXTRACT: note_on channel=14 note=84 velocity=85 time=0
EXTRACT: note_off channel=8 note=65 velocity=65 time=0.007
EXTRACT: note_off channel=8 note=60 velocity=64 time=0
EXTRACT: note_off channel=14 note=81 velocity=65 time=0.011
EXTRACT: note_off channel=11 note=93 velocity=65 time=0
EXTRACT: note_off channel=6 note=81 velocity=64 time=0
EXTRACT: note_off channel=3 note=72 velocity=64 time=0.01
EXTRACT: note_off channel=1 note=41 velocity=64 time=0.01
EXTRACT: note_on channel=6 note=89 velocity=78 time=0.019
EXTRACT: note_on channel=11 note=101 velocity=85 time=0
EXTRACT: note_on channel=14 note=89 velocity=85 time=0
EXTRACT: note_off channel=5 note=41 velocity=65 time=0.008
EXTRACT: note_off channel=2 note=53 velocity=65 time=0
EXTRACT: note_off channel=4 note=57 velocity=64 time=0
EXTRACT: note_on channel=9 note=39 velocity=118 time=0.001
EXTRACT: note_off channel=4 note=60 velocity=64 time=0.002
EXTRACT: note_on channel=1 note=29 velocity=123 time=0.006
EXTRACT: note_on channel=2 note=41 velocity=125 time=0
EXTRACT: note_on channel=4 note=60 velocity=1 time=0
EXTRACT: note_on channel=4 note=65 velocity=1 time=0
EXTRACT: note_on channel=5 note=41 velocity=112 time=0
EXTRACT: note_on channel=9 note=36 velocity=127 time=0
EXTRACT: note_on channel=9 note=38 velocity=116 time=0
EXTRACT: note_on channel=9 note=42 velocity=113 time=0
EXTRACT: note_on channel=9 note=70 velocity=106 time=0
EXTRACT: note_on channel=3 note=81 velocity=116 time=0
EXTRACT: note_off channel=14 note=84 velocity=64 time=0.012
EXTRACT: note_off channel=11 note=96 velocity=64 time=0
EXTRACT: note_off channel=6 note=84 velocity=64 time=0
EXTRACT: note_off channel=9 note=39 velocity=64 time=0.003
EXTRACT: note_off channel=9 note=70 velocity=65 time=0.007
EXTRACT: note_off channel=9 note=42 velocity=65 time=0
EXTRACT: note_off channel=9 note=38 velocity=64 time=0
EXTRACT: note_off channel=9 note=36 velocity=64 time=0
EXTRACT: control_change channel=13 control=6 value=56 time=0.016
EXTRACT: note_off channel=5 note=41 velocity=64 time=0.07100000000000001
EXTRACT: note_off channel=2 note=41 velocity=65 time=0
EXTRACT: note_on channel=2 note=41 velocity=75 time=0.009000000000000001
EXTRACT: note_on channel=5 note=41 velocity=72 time=0
EXTRACT: note_on channel=12 note=76 velocity=127 time=0.077
EXTRACT: note_off channel=1 note=29 velocity=65 time=0.007
EXTRACT: note_on channel=12 note=84 velocity=126 time=0.003
EXTRACT: note_off channel=3 note=81 velocity=64 time=0.007
EXTRACT: note_off channel=14 note=89 velocity=64 time=0
EXTRACT: note_off channel=11 note=101 velocity=64 time=0
EXTRACT: note_off channel=6 note=89 velocity=65 time=0
EXTRACT: note_on channel=6 note=88 velocity=74 time=0.016
EXTRACT: note_on channel=11 note=100 velocity=80 time=0
EXTRACT: note_on channel=14 note=88 velocity=80 time=0
EXTRACT: note_off channel=5 note=41 velocity=64 time=0.001
EXTRACT: note_off channel=2 note=41 velocity=64 time=0
EXTRACT: note_off channel=4 note=65 velocity=65 time=0
EXTRACT: note_off channel=4 note=60 velocity=65 time=0
EXTRACT: note_on channel=8 note=60 velocity=100 time=0.006
EXTRACT: note_on channel=8 note=65 velocity=105 time=0
EXTRACT: note_off channel=10 note=69 velocity=64 time=0.002
EXTRACT: note_off channel=10 note=65 velocity=65 time=0
EXTRACT: note_on channel=1 note=31 velocity=122 time=0.001
EXTRACT: note_on channel=2 note=55 velocity=124 time=0
EXTRACT: note_on channel=4 note=60 velocity=1 time=0
EXTRACT: note_on channel=4 note=64 velocity=1 time=0
EXTRACT: note_on channel=5 note=43 velocity=113 time=0
EXTRACT: note_on channel=9 note=42 velocity=108 time=0
EXTRACT: note_on channel=9 note=70 velocity=107 time=0
EXTRACT: note_on channel=13 note=67 velocity=81 time=0
EXTRACT: note_on channel=13 note=71 velocity=64 time=0
EXTRACT: note_on channel=10 note=67 velocity=87 time=0.005
EXTRACT: note_on channel=10 note=71 velocity=86 time=0
EXTRACT: note_off channel=13 note=72 velocity=65 time=0.006
EXTRACT: note_off channel=13 note=69 velocity=64 time=0
EXTRACT: note_off channel=13 note=65 velocity=65 time=0
EXTRACT: note_on channel=13 note=74 velocity=63 time=0.009000000000000001
EXTRACT: note_off channel=9 note=70 velocity=65 time=0.004
EXTRACT: note_off channel=9 note=42 velocity=65 time=0
EXTRACT: note_on channel=3 note=79 velocity=117 time=0
EXTRACT: note_off channel=8 note=65 velocity=65 time=0.026000000000000002
EXTRACT: note_off channel=8 note=60 velocity=65 time=0
EXTRACT: note_off channel=5 note=43 velocity=65 time=0.046
EXTRACT: note_off channel=2 note=55 velocity=65 time=0
EXTRACT: note_on channel=8 note=60 velocity=96 time=0.006
EXTRACT: note_on channel=8 note=65 velocity=103 time=0
EXTRACT: note_on channel=2 note=55 velocity=124 time=0.003
EXTRACT: note_on channel=5 note=43 velocity=112 time=0
EXTRACT: note_on channel=9 note=44 velocity=98 time=0
EXTRACT: note_on channel=9 note=70 velocity=86 time=0
EXTRACT: note_off channel=14 note=88 velocity=65 time=0.004
EXTRACT: note_off channel=11 note=100 velocity=65 time=0
EXTRACT: note_off channel=6 note=88 velocity=65 time=0
EXTRACT: note_on channel=6 note=84 velocity=73 time=0.003
EXTRACT: note_on channel=11 note=96 velocity=78 time=0
EXTRACT: note_on channel=14 note=84 velocity=79 time=0
EXTRACT: note_off channel=9 note=70 velocity=64 time=0.017
EXTRACT: note_off channel=9 note=44 velocity=64 time=0
EXTRACT: note_off channel=8 note=65 velocity=64 time=0.042
EXTRACT: note_off channel=8 note=60 velocity=65 time=0
EXTRACT: note_off channel=1 note=31 velocity=64 time=0.018000000000000002
EXTRACT: control_change channel=9 control=91 value=20 time=0.006
EXTRACT: note_off channel=12 note=76 velocity=65 time=0.016
EXTRACT: note_off channel=5 note=43 velocity=65 time=0.005
EXTRACT: note_off channel=2 note=55 velocity=64 time=0
EXTRACT: note_off channel=13 note=74 velocity=65 time=0.003
EXTRACT: note_off channel=13 note=71 velocity=64 time=0
EXTRACT: note_off channel=13 note=67 velocity=65 time=0
EXTRACT: note_off channel=12 note=84 velocity=64 time=0.002
EXTRACT: note_off channel=10 note=71 velocity=65 time=0.003
EXTRACT: note_off channel=10 note=67 velocity=64 time=0
EXTRACT: note_on channel=1 note=33 velocity=122 time=0.001
EXTRACT: note_on channel=2 note=45 velocity=125 time=0
EXTRACT: note_on channel=5 note=45 velocity=113 time=0
EXTRACT: note_on channel=9 note=36 velocity=127 time=0
EXTRACT: note_on channel=9 note=42 velocity=125 time=0
EXTRACT: note_on channel=9 note=70 velocity=106 time=0
EXTRACT: note_on channel=13 note=69 velocity=56 time=0
EXTRACT: note_on channel=10 note=69 velocity=92 time=0.005
EXTRACT: note_on channel=10 note=72 velocity=103 time=0
EXTRACT: note_on channel=6 note=81 velocity=79 time=0.002
EXTRACT: note_on channel=11 note=93 velocity=85 time=0
EXTRACT: note_on channel=14 note=81 velocity=84 time=0
EXTRACT: note_on channel=13 note=76 velocity=68 time=0.002
EXTRACT: note_on channel=13 note=72 velocity=61 time=0.003
EXTRACT: note_off channel=14 note=84 velocity=64 time=0.001
EXTRACT: note_off channel=11 note=96 velocity=64 time=0
EXTRACT: note_off channel=6 note=84 velocity=64 time=0
EXTRACT: note_off channel=9 note=70 velocity=65 time=0.011
EXTRACT: note_off channel=9 note=42 velocity=64 time=0
EXTRACT: note_off channel=9 note=36 velocity=65 time=0
EXTRACT: note_off channel=5 note=45 velocity=64 time=0.08700000000000001
EXTRACT: note_off channel=2 note=45 velocity=64 time=0
EXTRACT: note_on channel=2 note=45 velocity=75 time=0.009000000000000001
EXTRACT: note_on channel=5 note=45 velocity=73 time=0
EXTRACT: note_off channel=3 note=79 velocity=65 time=0.006
EXTRACT: note_off channel=1 note=33 velocity=65 time=0.093
EXTRACT: note_off channel=5 note=45 velocity=64 time=0.012
EXTRACT: note_off channel=2 note=45 velocity=65 time=0
EXTRACT: note_on channel=8 note=60 velocity=95 time=0.006
EXTRACT: note_on channel=8 note=64 velocity=100 time=0
EXTRACT: note_on channel=1 note=45 velocity=123 time=0.003
EXTRACT: note_on channel=2 note=57 velocity=124 time=0
EXTRACT: note_on channel=5 note=45 velocity=112 time=0
EXTRACT: note_on channel=9 note=46 velocity=110 time=0
EXTRACT: note_on channel=9 note=70 velocity=107 time=0
EXTRACT: note_off channel=9 note=70 velocity=65 time=0.024
EXTRACT: note_off channel=9 note=46 velocity=64 time=0
EXTRACT: note_off channel=8 note=64 velocity=64 time=0.033
EXTRACT: note_off channel=8 note=60 velocity=64 time=0
EXTRACT: note_off channel=5 note=45 velocity=65 time=0.054
EXTRACT: note_off channel=2 note=57 velocity=65 time=0
EXTRACT: note_on channel=8 note=60 velocity=73 time=0.006
EXTRACT: note_on channel=8 note=64 velocity=78 time=0
EXTRACT: note_on channel=2 note=57 velocity=124 time=0.003
EXTRACT: note_on channel=5 note=45 velocity=113 time=0
EXTRACT: note_on channel=9 note=70 velocity=87 time=0
EXTRACT: note_off channel=9 note=70 velocity=65 time=0.024
EXTRACT: note_off channel=8 note=64 velocity=65 time=0.04
EXTRACT: note_off channel=8 note=60 velocity=65 time=0
EXTRACT: note_off channel=1 note=45 velocity=65 time=0.02
EXTRACT: note_off channel=5 note=45 velocity=64 time=0.027
EXTRACT: note_off channel=2 note=57 velocity=64 time=0
EXTRACT: note_on channel=9 note=39 velocity=119 time=0.001
EXTRACT: note_on channel=1 note=33 velocity=122 time=0.008
EXTRACT: note_on channel=2 note=45 velocity=125 time=0
EXTRACT: note_on channel=5 note=45 velocity=112 time=0
EXTRACT: note_on channel=9 note=36 velocity=126 time=0
EXTRACT: note_on channel=9 note=38 velocity=117 time=0
EXTRACT: note_on channel=9 note=42 velocity=122 time=0
EXTRACT: note_on channel=9 note=70 velocity=106 time=0
EXTRACT: control_change channel=2 control=6 value=61 time=0
EXTRACT: note_off channel=9 note=39 velocity=64 time=0.017
EXTRACT: note_off channel=9 note=70 velocity=64 time=0.007
EXTRACT: note_off channel=9 note=42 velocity=65 time=0
EXTRACT: note_off channel=9 note=38 velocity=65 time=0
EXTRACT: note_off channel=9 note=36 velocity=64 time=0
EXTRACT: note_off channel=5 note=45 velocity=65 time=0.08700000000000001
EXTRACT: note_off channel=2 note=45 velocity=64 time=0
EXTRACT: note_on channel=2 note=45 velocity=74 time=0.009000000000000001
EXTRACT: note_on channel=5 note=45 velocity=72 time=0
EXTRACT: note_off channel=1 note=33 velocity=64 time=0.099
EXTRACT: note_off channel=5 note=45 velocity=65 time=0.012
EXTRACT: note_off channel=2 note=45 velocity=65 time=0
EXTRACT: note_on channel=8 note=60 velocity=96 time=0.006
EXTRACT: note_on channel=8 note=64 velocity=103 time=0
EXTRACT: note_on channel=1 note=45 velocity=123 time=0.003
EXTRACT: note_on channel=2 note=57 velocity=125 time=0
EXTRACT: note_on channel=5 note=45 velocity=113 time=0
EXTRACT: note_on channel=9 note=42 velocity=116 time=0
EXTRACT: note_on channel=9 note=70 velocity=106 time=0
EXTRACT: note_off channel=9 note=70 velocity=64 time=0.024
EXTRACT: note_off channel=9 note=42 velocity=65 time=0
EXTRACT: note_off channel=8 note=64 velocity=64 time=0.029
EXTRACT: note_off channel=8 note=60 velocity=64 time=0
EXTRACT: control_change channel=13 control=6 value=58 time=0.027
EXTRACT: note_off channel=5 note=45 velocity=64 time=0.031
EXTRACT: note_off channel=2 note=57 velocity=65 time=0
EXTRACT: note_on channel=8 note=60 velocity=89 time=0.006
EXTRACT: note_on channel=8 note=64 velocity=92 time=0
EXTRACT: note_on channel=2 note=57 velocity=125 time=0.003
EXTRACT: note_on channel=5 note=45 velocity=113 time=0
EXTRACT: note_on channel=9 note=44 velocity=99 time=0
EXTRACT: note_on channel=9 note=70 velocity=87 time=0
EXTRACT: note_off channel=9 note=70 velocity=65 time=0.024
EXTRACT: note_off channel=9 note=44 velocity=64 time=0
EXTRACT: note_off channel=8 note=64 velocity=65 time=0.032
EXTRACT: note_off channel=8 note=60 velocity=65 time=0
EXTRACT: note_off channel=1 note=45 velocity=65 time=0.028
EXTRACT: note_off channel=5 note=45 velocity=65 time=0.027
EXTRACT: note_off channel=2 note=57 velocity=64 time=0
EXTRACT: note_on channel=1 note=33 velocity=123 time=0.009000000000000001
EXTRACT: note_on channel=2 note=45 velocity=124 time=0
EXTRACT: note_on channel=5 note=45 velocity=112 time=0
EXTRACT: note_on channel=9 note=36 velocity=127 time=0
EXTRACT: note_on channel=9 note=42 velocity=125 time=0
EXTRACT: note_on channel=9 note=70 velocity=107 time=0
EXTRACT: control_change channel=14 control=98 value=33 time=0
EXTRACT: note_off channel=9 note=70 velocity=64 time=0.024
EXTRACT: note_off channel=9 note=42 velocity=65 time=0
EXTRACT: note_off channel=9 note=36 velocity=64 time=0
EXTRACT: note_off channel=14 note=81 velocity=65 time=0.068
EXTRACT: note_off channel=11 note=93 velocity=65 time=0
EXTRACT: note_off channel=6 note=81 velocity=64 time=0
EXTRACT: note_off channel=5 note=45 velocity=64 time=0.019
EXTRACT: note_off channel=2 note=45 velocity=64 time=0
EXTRACT: note_off channel=4 note=60 velocity=64 time=0.003
EXTRACT: note_on channel=2 note=45 velocity=75 time=0.006
EXTRACT: note_on channel=5 note=45 velocity=72 time=0
EXTRACT: note_off channel=1 note=33 velocity=64 time=0.084
EXTRACT: note_off channel=5 note=45 velocity=64 time=0.027
EXTRACT: note_off channel=2 note=45 velocity=65 time=0
EXTRACT: note_off channel=4 note=64 velocity=64 time=0
EXTRACT: note_on channel=8 note=60 velocity=96 time=0.006
EXTRACT: note_on channel=8 note=64 velocity=103 time=0
EXTRACT: note_on channel=1 note=45 velocity=122 time=0.003
EXTRACT: note_on channel=2 note=57 velocity=124 time=0
EXTRACT: note_on channel=4 note=57 velocity=1 time=0
EXTRACT: note_on channel=4 note=60 velocity=1 time=0
EXTRACT: note_on channel=5 note=45 velocity=113 time=0
EXTRACT: note_on channel=9 note=46 velocity=107 time=0
EXTRACT: note_on channel=9 note=70 velocity=106 time=0
EXTRACT: note_on channel=3 note=77 velocity=117 time=0
EXTRACT: note_off channel=9 note=70 velocity=65 time=0.02
EXTRACT: note_off channel=9 note=46 velocity=65 time=0
EXTRACT: note_on channel=6 note=76 velocity=72 time=0.014
EXTRACT: note_on channel=11 note=88 velocity=89 time=0
EXTRACT: note_on channel=14 note=76 velocity=88 time=0
EXTRACT: note_off channel=8 note=64 velocity=64 time=0.008
EXTRACT: note_off channel=8 note=60 velocity=64 time=0
EXTRACT: note_off channel=5 note=45 velocity=65 time=0.055
EXTRACT: note_off channel=2 note=57 velocity=64 time=0
EXTRACT: note_on channel=6 note=81 velocity=68 time=0.005
EXTRACT: note_on channel=11 note=93 velocity=80 time=0
EXTRACT: note_on channel=14 note=81 velocity=81 time=0
EXTRACT: note_on channel=8 note=60 velocity=95 time=0.001
EXTRACT: note_on channel=8 note=64 velocity=100 time=0
EXTRACT: note_on channel=2 note=57 velocity=124 time=0.003
EXTRACT: note_on channel=5 note=45 velocity=113 time=0
EXTRACT: note_on channel=9 note=70 velocity=86 time=0
EXTRACT: note_off channel=3 note=77 velocity=65 time=0.018000000000000002
EXTRACT: note_off channel=9 note=70 velocity=64 time=0.006
EXTRACT: note_off channel=8 note=64 velocity=65 time=0.029
EXTRACT: note_off channel=8 note=60 velocity=64 time=0
EXTRACT: note_on channel=6 note=84 velocity=69 time=0.002
EXTRACT: note_on channel=11 note=96 velocity=82 time=0
EXTRACT: note_on channel=14 note=84 velocity=83 time=0
EXTRACT: note_off channel=14 note=76 velocity=65 time=0.026000000000000002
EXTRACT: note_off channel=11 note=88 velocity=65 time=0
EXTRACT: note_off channel=6 note=76 velocity=65 time=0
EXTRACT: note_off channel=1 note=45 velocity=64 time=0.003
EXTRACT: note_off channel=5 note=45 velocity=65 time=0.027
EXTRACT: note_off channel=2 note=57 velocity=65 time=0
EXTRACT: note_on channel=9 note=39 velocity=119 time=0.001
EXTRACT: note_off channel=4 note=60 velocity=65 time=0.002
EXTRACT: note_off channel=13 note=76 velocity=64 time=0
EXTRACT: note_on channel=3 note=79 velocity=116 time=0
EXTRACT: note_on channel=6 note=88 velocity=83 time=0.003
EXTRACT: note_on channel=11 note=100 velocity=87 time=0
EXTRACT: note_on channel=14 note=88 velocity=86 time=0
EXTRACT: note_off channel=14 note=81 velocity=64 time=0
EXTRACT: note_off channel=11 note=93 velocity=64 time=0
EXTRACT: note_off channel=6 note=81 velocity=64 time=0
EXTRACT: note_on channel=1 note=33 velocity=123 time=0.002
EXTRACT: note_on channel=2 note=45 velocity=125 time=0
EXTRACT: note_on channel=4 note=62 velocity=1 time=0
EXTRACT: note_on channel=5 note=45 velocity=112 time=0
EXTRACT: note_on channel=9 note=36 velocity=126 time=0
EXTRACT: note_on channel=9 note=38 velocity=116 time=0
EXTRACT: note_on channel=9 note=42 velocity=117 time=0
EXTRACT: note_on channel=9 note=70 velocity=107 time=0
EXTRACT: note_on channel=13 note=77 velocity=69 time=0
EXTRACT: note_off channel=9 note=39 velocity=65 time=0.017
EXTRACT: note_off channel=9 note=70 velocity=64 time=0.007
EXTRACT: note_off channel=9 note=42 velocity=64 time=0
EXTRACT: note_off channel=9 note=38 velocity=65 time=0
EXTRACT: note_off channel=9 note=36 velocity=65 time=0
EXTRACT: note_off channel=14 note=84 velocity=65 time=0.02
EXTRACT: note_off channel=11 note=96 velocity=65 time=0
EXTRACT: note_off channel=6 note=84 velocity=65 time=0
EXTRACT: note_off channel=5 note=45 velocity=64 time=0.067
EXTRACT: note_off channel=2 note=45 velocity=65 time=0
EXTRACT: note_on channel=2 note=45 velocity=75 time=0.009000000000000001
EXTRACT: note_on channel=5 note=45 velocity=72 time=0
EXTRACT: note_off channel=14 note=88 velocity=64 time=0.044
EXTRACT: note_off channel=11 note=100 velocity=64 time=0
EXTRACT: note_off channel=6 note=88 velocity=65 time=0
EXTRACT: note_off channel=1 note=33 velocity=65 time=0.04
EXTRACT: note_off channel=5 note=45 velocity=64 time=0.027
EXTRACT: note_off channel=2 note=45 velocity=64 time=0
EXTRACT: note_on channel=6 note=88 velocity=82 time=0.002
EXTRACT: note_on channel=11 note=100 velocity=87 time=0
EXTRACT: note_on channel=14 note=88 velocity=86 time=0
EXTRACT: note_off channel=4 note=62 velocity=65 time=0.001
EXTRACT: note_off channel=3 note=79 velocity=64 time=0
EXTRACT: note_on channel=3 note=77 velocity=116 time=0
EXTRACT: note_on channel=8 note=60 velocity=100 time=0.002
EXTRACT: note_on channel=8 note=64 velocity=105 time=0
EXTRACT: note_on channel=1 note=43 velocity=122 time=0.003
EXTRACT: note_on channel=2 note=55 velocity=124 time=0
EXTRACT: note_on channel=4 note=60 velocity=1 time=0
EXTRACT: note_on channel=5 note=43 velocity=113 time=0
EXTRACT: note_on channel=9 note=42 velocity=116 time=0
EXTRACT: note_on channel=9 note=70 velocity=106 time=0
EXTRACT: note_off channel=9 note=70 velocity=64 time=0.024
EXTRACT: note_off channel=9 note=42 velocity=64 time=0
EXTRACT: note_off channel=14 note=88 velocity=64 time=0
EXTRACT: note_off channel=11 note=100 velocity=64 time=0
EXTRACT: note_off channel=6 note=88 velocity=64 time=0
EXTRACT: note_on channel=6 note=84 velocity=82 time=0.019
EXTRACT: note_on channel=11 note=96 velocity=86 time=0
EXTRACT: note_on channel=14 note=84 velocity=87 time=0
EXTRACT: note_off channel=8 note=64 velocity=65 time=0.018000000000000002
EXTRACT: note_off channel=8 note=60 velocity=65 time=0
EXTRACT: control_change channel=14 control=6 value=77 time=0.019
EXTRACT: note_on channel=6 note=81 velocity=77 time=0.019
EXTRACT: note_on channel=11 note=93 velocity=82 time=0
EXTRACT: note_on channel=14 note=81 velocity=83 time=0
EXTRACT: note_off channel=14 note=84 velocity=65 time=0.005
EXTRACT: note_off channel=11 note=96 velocity=65 time=0
EXTRACT: note_off channel=6 note=84 velocity=65 time=0
EXTRACT: note_off channel=5 note=43 velocity=65 time=0.007
EXTRACT: note_off channel=2 note=55 velocity=65 time=0
EXTRACT: note_off channel=1 note=43 velocity=65 time=0.003
EXTRACT: note_on channel=8 note=60 velocity=96 time=0.003
EXTRACT: note_on channel=8 note=64 velocity=103 time=0
EXTRACT: note_on channel=1 note=41 velocity=122 time=0.003
EXTRACT: note_on channel=2 note=53 velocity=124 time=0
EXTRACT: note_on channel=5 note=41 velocity=112 time=0
EXTRACT: note_on channel=9 note=44 velocity=98 time=0
EXTRACT: note_on channel=9 note=70 velocity=87 time=0
EXTRACT: note_off channel=9 note=70 velocity=65 time=0.024
EXTRACT: note_off channel=9 note=44 velocity=65 time=0
EXTRACT: note_off channel=14 note=81 velocity=65 time=0.02
EXTRACT: note_off channel=11 note=93 velocity=65 time=0
EXTRACT: note_off channel=6 note=81 velocity=64 time=0
EXTRACT: note_off channel=3 note=77 velocity=64 time=0.01
EXTRACT: note_off channel=8 note=64 velocity=64 time=0.012
EXTRACT: note_off channel=8 note=60 velocity=65 time=0
EXTRACT: note_on channel=6 note=77 velocity=78 time=0.001
EXTRACT: note_on channel=11 note=89 velocity=85 time=0
EXTRACT: note_on channel=14 note=77 velocity=84 time=0
EXTRACT: control_change channel=13 control=6 value=60 time=0.013000000000000001
EXTRACT: note_off channel=10 note=72 velocity=64 time=0.001
EXTRACT: note_off channel=10 note=69 velocity=65 time=0.005
EXTRACT: note_off channel=5 note=41 velocity=65 time=0.025
EXTRACT: note_off channel=2 note=53 velocity=64 time=0
EXTRACT: note_off channel=1 note=41 velocity=64 time=0.003
EXTRACT: note_off channel=4 note=60 velocity=64 time=0
EXTRACT: note_off channel=13 note=72 velocity=64 time=0
EXTRACT: note_off channel=13 note=69 velocity=65 time=0
EXTRACT: note_on channel=1 note=26 velocity=123 time=0.006
EXTRACT: note_on channel=2 note=38 velocity=125 time=0
EXTRACT: note_on channel=4 note=62 velocity=1 time=0
EXTRACT: note_on channel=5 note=38 velocity=113 time=0
EXTRACT: note_on channel=9 note=36 velocity=126 time=0
EXTRACT: note_on channel=9 note=42 velocity=116 time=0
EXTRACT: note_on channel=9 note=70 velocity=107 time=0
EXTRACT: note_on channel=13 note=62 velocity=56 time=0
EXTRACT: note_on channel=13 note=65 velocity=52 time=0
EXTRACT: note_on channel=13 note=74 velocity=47 time=0.002
EXTRACT: note_on channel=10 note=65 velocity=94 time=0.003
EXTRACT: note_on channel=10 note=69 velocity=101 time=0
EXTRACT: note_on channel=13 note=69 velocity=63 time=0
EXTRACT: note_on channel=3 note=79 velocity=117 time=0
EXTRACT: note_on channel=6 note=74 velocity=77 time=0
EXTRACT: note_on channel=11 note=86 velocity=84 time=0
EXTRACT: note_on channel=14 note=74 velocity=84 time=0
EXTRACT: note_off channel=14 note=77 velocity=64 time=0.006
EXTRACT: note_off channel=11 note=89 velocity=64 time=0
EXTRACT: note_off channel=6 note=77 velocity=64 time=0
EXTRACT: note_off channel=9 note=70 velocity=64 time=0.01
EXTRACT: note_off channel=9 note=42 velocity=64 time=0
EXTRACT: note_off channel=9 note=36 velocity=65 time=0
EXTRACT: note_off channel=13 note=77 velocity=65 time=0.005
EXTRACT: note_off channel=5 note=38 velocity=64 time=0.082
EXTRACT: note_off channel=2 note=38 velocity=64 time=0
EXTRACT: note_on channel=2 note=38 velocity=75 time=0.009000000000000001
EXTRACT: note_on channel=5 note=38 velocity=73 time=0
EXTRACT: note_off channel=3 note=79 velocity=65 time=0.054
EXTRACT: note_off channel=1 note=26 velocity=64 time=0.03
EXTRACT: note_off channel=5 note=38 velocity=64 time=0.027
EXTRACT: note_off channel=2 note=38 velocity=65 time=0
EXTRACT: note_off channel=4 note=62 velocity=64 time=0.003
EXTRACT: note_on channel=8 note=62 velocity=95 time=0.003
EXTRACT: note_on channel=8 note=65 velocity=100 time=0
EXTRACT: note_on channel=1 note=38 velocity=123 time=0.003
EXTRACT: note_on channel=2 note=50 velocity=124 time=0
EXTRACT: note_on channel=4 note=60 velocity=1 time=0
EXTRACT: note_on channel=5 note=38 velocity=112 time=0
EXTRACT: note_on channel=9 note=46 velocity=105 time=0
EXTRACT: note_on channel=9 note=70 velocity=106 time=0
EXTRACT: note_on channel=3 note=77 velocity=117 time=0
EXTRACT: note_off channel=9 note=70 velocity=64 time=0.006
EXTRACT: note_off channel=9 note=46 velocity=65 time=0
EXTRACT: note_off channel=8 note=65 velocity=64 time=0.033
EXTRACT: note_off channel=8 note=62 velocity=64 time=0
EXTRACT: note_off channel=5 note=38 velocity=65 time=0.054
EXTRACT: note_off channel=2 note=50 velocity=65 time=0
EXTRACT: note_off channel=1 note=38 velocity=65 time=0.003
EXTRACT: note_on channel=8 note=62 velocity=73 time=0.003
EXTRACT: note_on channel=8 note=65 velocity=78 time=0
EXTRACT: note_on channel=2 note=50 velocity=124 time=0.003
EXTRACT: note_on channel=5 note=38 velocity=113 time=0
EXTRACT: note_on channel=9 note=70 velocity=87 time=0
EXTRACT: note_off channel=9 note=70 velocity=65 time=0.024
EXTRACT: note_off channel=3 note=77 velocity=65 time=0.03
EXTRACT: note_off channel=8 note=65 velocity=65 time=0.01
EXTRACT: note_off channel=8 note=62 velocity=65 time=0
EXTRACT: note_off channel=5 note=38 velocity=64 time=0.047
EXTRACT: note_off channel=2 note=50 velocity=64 time=0
EXTRACT: note_on channel=9 note=39 velocity=118 time=0.001
EXTRACT: note_on channel=3 note=77 velocity=116 time=0
EXTRACT: note_on channel=1 note=26 velocity=122 time=0.002
EXTRACT: note_on channel=2 note=38 velocity=125 time=0
EXTRACT: note_on channel=5 note=38 velocity=112 time=0
EXTRACT: note_on channel=9 note=36 velocity=127 time=0
EXTRACT: note_on channel=9 note=38 velocity=117 time=0
EXTRACT: note_on channel=9 note=42 velocity=117 time=0
EXTRACT: note_on channel=9 note=70 velocity=106 time=0
EXTRACT: note_off channel=9 note=39 velocity=64 time=0.017
EXTRACT: note_off channel=9 note=70 velocity=65 time=0.007
EXTRACT: note_off channel=9 note=42 velocity=64 time=0
EXTRACT: note_off channel=9 note=38 velocity=64 time=0
EXTRACT: note_off channel=9 note=36 velocity=65 time=0
EXTRACT: note_off channel=5 note=38 velocity=65 time=0.08700000000000001
EXTRACT: note_off channel=2 note=38 velocity=64 time=0
EXTRACT: note_on channel=2 note=38 velocity=74 time=0.009000000000000001
EXTRACT: note_on channel=5 note=38 velocity=72 time=0
EXTRACT: note_off channel=3 note=77 velocity=64 time=0.074
EXTRACT: note_off channel=1 note=26 velocity=65 time=0.01
EXTRACT: note_off channel=5 note=38 velocity=65 time=0.027
EXTRACT: note_off channel=2 note=38 velocity=65 time=0
EXTRACT: note_off channel=4 note=60 velocity=65 time=0.003
EXTRACT: note_on channel=8 note=62 velocity=96 time=0.003
EXTRACT: note_on channel=8 note=65 velocity=103 time=0
EXTRACT: note_on channel=1 note=38 velocity=122 time=0.003
EXTRACT: note_on channel=2 note=50 velocity=125 time=0
EXTRACT: note_on channel=4 note=60 velocity=1 time=0
EXTRACT: note_on channel=5 note=38 velocity=113 time=0
EXTRACT: note_on channel=9 note=42 velocity=115 time=0
EXTRACT: note_on channel=9 note=70 velocity=106 time=0
EXTRACT: note_on channel=3 note=77 velocity=116 time=0
EXTRACT: note_off channel=9 note=70 velocity=65 time=0.011
EXTRACT: note_off channel=9 note=42 velocity=64 time=0
EXTRACT: note_on channel=12 note=77 velocity=101 time=0.009000000000000001
EXTRACT: note_on channel=12 note=76 velocity=70 time=0.001
EXTRACT: note_off channel=8 note=65 velocity=64 time=0.01
EXTRACT: note_off channel=8 note=62 velocity=64 time=0
EXTRACT: note_off channel=5 note=38 velocity=64 time=0.038
EXTRACT: note_off channel=2 note=50 velocity=65 time=0
EXTRACT: note_off channel=1 note=38 velocity=64 time=0.003
EXTRACT: note_on channel=8 note=62 velocity=89 time=0.003
EXTRACT: note_on channel=8 note=65 velocity=92 time=0
EXTRACT: note_on channel=2 note=50 velocity=125 time=0.003
EXTRACT: note_on channel=5 note=38 velocity=113 time=0
EXTRACT: note_on channel=9 note=44 velocity=99 time=0
EXTRACT: note_on channel=9 note=70 velocity=87 time=0
EXTRACT: note_off channel=9 note=70 velocity=64 time=0.024
EXTRACT: note_off channel=9 note=44 velocity=65 time=0
EXTRACT: note_off channel=8 note=65 velocity=65 time=0.032
EXTRACT: note_off channel=8 note=62 velocity=65 time=0
EXTRACT: note_off channel=3 note=77 velocity=64 time=0.018000000000000002
EXTRACT: note_off channel=5 note=38 velocity=65 time=0.037
EXTRACT: note_off channel=2 note=50 velocity=64 time=0
EXTRACT: note_off channel=4 note=60 velocity=64 time=0
EXTRACT: note_off channel=4 note=57 velocity=65 time=0.003
EXTRACT: note_on channel=1 note=26 velocity=123 time=0.006
EXTRACT: note_on channel=2 note=38 velocity=124 time=0
EXTRACT: note_on channel=4 note=55 velocity=1 time=0
EXTRACT: note_on channel=5 note=38 velocity=112 time=0
EXTRACT: note_on channel=9 note=36 velocity=127 time=0
EXTRACT: note_on channel=9 note=42 velocity=118 time=0
EXTRACT: note_on channel=9 note=70 velocity=107 time=0
EXTRACT: note_on channel=3 note=72 velocity=117 time=0.012
EXTRACT: note_off channel=9 note=70 velocity=65 time=0.012
EXTRACT: note_off channel=9 note=42 velocity=64 time=0
EXTRACT: note_off channel=9 note=36 velocity=64 time=0
EXTRACT: note_off channel=5 note=38 velocity=64 time=0.08700000000000001
EXTRACT: note_off channel=2 note=38 velocity=64 time=0
EXTRACT: note_on channel=2 note=38 velocity=75 time=0.009000000000000001
EXTRACT: note_on channel=5 note=38 velocity=72 time=0
EXTRACT: note_off channel=6 note=74 velocity=65 time=0.074
EXTRACT: note_off channel=1 note=26 velocity=64 time=0.01
EXTRACT: note_off channel=14 note=74 velocity=64 time=0.01
EXTRACT: note_off channel=5 note=38 velocity=64 time=0.017
EXTRACT: note_off channel=2 note=38 velocity=65 time=0
EXTRACT: note_off channel=4 note=55 velocity=65 time=0
EXTRACT: pitchwheel channel=3 pitch=1737 time=0.004
EXTRACT: note_on channel=8 note=62 velocity=96 time=0.002
EXTRACT: note_on channel=8 note=65 velocity=103 time=0
EXTRACT: note_on channel=1 note=38 velocity=123 time=0.003
EXTRACT: note_on channel=2 note=50 velocity=124 time=0
EXTRACT: note_on channel=4 note=57 velocity=1 time=0
EXTRACT: note_on channel=5 note=38 velocity=113 time=0
EXTRACT: note_on channel=9 note=46 velocity=106 time=0
EXTRACT: note_on channel=9 note=70 velocity=106 time=0
EXTRACT: note_on channel=6 note=74 velocity=73 time=0.001
EXTRACT: note_on channel=11 note=86 velocity=77 time=0
EXTRACT: pitchwheel channel=3 pitch=6536 time=0.009000000000000001
EXTRACT: note_off channel=11 note=86 velocity=64 time=0.004
EXTRACT: note_on channel=14 note=74 velocity=77 time=0.007
EXTRACT: pitchwheel channel=3 pitch=8063 time=0.002
EXTRACT: note_off channel=9 note=70 velocity=65 time=0.001
EXTRACT: note_off channel=9 note=46 velocity=64 time=0
EXTRACT: note_off channel=8 note=65 velocity=64 time=0.032
EXTRACT: note_off channel=8 note=62 velocity=64 time=0
EXTRACT: note_on channel=6 note=77 velocity=82 time=0.02
EXTRACT: note_on channel=11 note=89 velocity=89 time=0
EXTRACT: note_off channel=11 note=86 velocity=65 time=0.018000000000000002
EXTRACT: note_off channel=6 note=74 velocity=65 time=0
EXTRACT: note_on channel=14 note=77 velocity=88 time=0.002
EXTRACT: note_off channel=5 note=38 velocity=65 time=0.015
EXTRACT: note_off channel=2 note=50 velocity=64 time=0
EXTRACT: note_off channel=14 note=74 velocity=65 time=0.003
EXTRACT: note_off channel=1 note=38 velocity=65 time=0
EXTRACT: note_on channel=8 note=62 velocity=95 time=0.003
EXTRACT: note_on channel=8 note=65 velocity=100 time=0
EXTRACT: note_on channel=2 note=50 velocity=124 time=0.003
EXTRACT: note_on channel=5 note=38 velocity=113 time=0
EXTRACT: note_on channel=9 note=70 velocity=86 time=0
EXTRACT: note_off channel=9 note=70 velocity=65 time=0.024
EXTRACT: note_on channel=6 note=81 velocity=63 time=0.008
EXTRACT: note_on channel=11 note=93 velocity=78 time=0
EXTRACT: note_on channel=14 note=81 velocity=79 time=0.02
EXTRACT: note_off channel=8 note=65 velocity=65 time=0.001
EXTRACT: note_off channel=8 note=62 velocity=64 time=0
EXTRACT: note_off channel=11 note=89 velocity=65 time=0.001
EXTRACT: note_off channel=6 note=77 velocity=64 time=0
EXTRACT: note_off channel=14 note=77 velocity=65 time=0.02
EXTRACT: control_change channel=9 control=91 value=30 time=0.016
EXTRACT: note_on channel=6 note=86 velocity=72 time=0.011
EXTRACT: note_on channel=11 note=98 velocity=83 time=0
EXTRACT: note_off channel=5 note=38 velocity=65 time=0.01
EXTRACT: note_off channel=2 note=50 velocity=65 time=0
EXTRACT: note_on channel=9 note=39 velocity=118 time=0.001
EXTRACT: note_on channel=1 note=26 velocity=122 time=0.008
EXTRACT: note_on channel=2 note=38 velocity=125 time=0
EXTRACT: note_on channel=5 note=38 velocity=112 time=0
EXTRACT: note_on channel=9 note=36 velocity=126 time=0
EXTRACT: note_on channel=9 note=38 velocity=117 time=0
EXTRACT: note_on channel=9 note=42 velocity=122 time=0
EXTRACT: note_on channel=9 note=70 velocity=107 time=0
EXTRACT: note_on channel=14 note=86 velocity=83 time=0.001
EXTRACT: note_off channel=11 note=93 velocity=64 time=0.003
EXTRACT: note_off channel=6 note=81 velocity=64 time=0
EXTRACT: note_off channel=9 note=39 velocity=65 time=0.013000000000000001
EXTRACT: note_off channel=9 note=70 velocity=64 time=0.007
EXTRACT: note_off channel=9 note=42 velocity=65 time=0
EXTRACT: note_off channel=9 note=38 velocity=64 time=0
EXTRACT: note_off channel=9 note=36 velocity=64 time=0
EXTRACT: note_off channel=14 note=81 velocity=64 time=0
EXTRACT: note_off channel=5 note=38 velocity=64 time=0.08700000000000001
EXTRACT: note_off channel=2 note=38 velocity=65 time=0
EXTRACT: note_on channel=2 note=38 velocity=75 time=0.009000000000000001
EXTRACT: note_on channel=5 note=38 velocity=72 time=0
EXTRACT: note_off channel=3 note=72 velocity=65 time=0.074
EXTRACT: note_off channel=1 note=26 velocity=64 time=0.01
EXTRACT: note_on channel=6 note=81 velocity=74 time=0.022
EXTRACT: note_on channel=11 note=93 velocity=76 time=0
EXTRACT: note_off channel=5 note=38 velocity=64 time=0.005
EXTRACT: note_off channel=2 note=38 velocity=64 time=0
EXTRACT: note_on channel=8 note=62 velocity=100 time=0.006
EXTRACT: note_on channel=8 note=65 velocity=105 time=0
EXTRACT: note_on channel=1 note=38 velocity=122 time=0.003
EXTRACT: note_on channel=2 note=50 velocity=124 time=0
EXTRACT: note_on channel=5 note=38 velocity=113 time=0
EXTRACT: note_on channel=9 note=42 velocity=123 time=0
EXTRACT: note_on channel=9 note=70 velocity=107 time=0
EXTRACT: note_off channel=11 note=98 velocity=64 time=0.004
EXTRACT: note_off channel=6 note=86 velocity=65 time=0
EXTRACT: note_on channel=14 note=81 velocity=76 time=0.002
EXTRACT: note_off channel=9 note=70 velocity=65 time=0.018000000000000002
EXTRACT: note_off channel=9 note=42 velocity=65 time=0
EXTRACT: note_off channel=14 note=86 velocity=64 time=0
EXTRACT: note_off channel=8 note=65 velocity=65 time=0.037
EXTRACT: note_off channel=8 note=62 velocity=65 time=0
EXTRACT: pitchwheel channel=3 pitch=0 time=0.001
EXTRACT: note_off channel=5 note=38 velocity=65 time=0.049
EXTRACT: note_off channel=2 note=50 velocity=65 time=0
EXTRACT: note_off channel=1 note=38 velocity=65 time=0.003
EXTRACT: note_off channel=11 note=93 velocity=65 time=0
EXTRACT: note_off channel=6 note=81 velocity=65 time=0
EXTRACT: note_off channel=4 note=57 velocity=64 time=0
EXTRACT: note_off channel=13 note=69 velocity=64 time=0
EXTRACT: note_on channel=6 note=77 velocity=73 time=0.003
EXTRACT: note_on channel=8 note=62 velocity=96 time=0
EXTRACT: note_on channel=8 note=65 velocity=103 time=0
EXTRACT: note_on channel=11 note=89 velocity=80 time=0
EXTRACT: note_on channel=2 note=50 velocity=124 time=0.003
EXTRACT: note_on channel=5 note=38 velocity=112 time=0
EXTRACT: note_on channel=9 note=44 velocity=99 time=0
EXTRACT: note_on channel=9 note=70 velocity=86 time=0
EXTRACT: control_change channel=14 control=6 value=85 time=0
EXTRACT: note_off channel=10 note=65 velocity=64 time=0.01
EXTRACT: note_off channel=14 note=81 velocity=65 time=0.004
EXTRACT: note_off channel=10 note=69 velocity=65 time=0.002
EXTRACT: note_on channel=14 note=77 velocity=81 time=0.001
EXTRACT: note_off channel=9 note=70 velocity=64 time=0.007
EXTRACT: note_off channel=9 note=44 velocity=64 time=0
EXTRACT: note_off channel=13 note=62 velocity=64 time=0.03
EXTRACT: note_off channel=8 note=65 velocity=64 time=0.012
EXTRACT: note_off channel=8 note=62 velocity=65 time=0
EXTRACT: note_off channel=13 note=74 velocity=65 time=0.008
EXTRACT: note_off channel=13 note=65 velocity=65 time=0
EXTRACT: note_off channel=5 note=38 velocity=65 time=0.037
EXTRACT: note_off channel=2 note=50 velocity=64 time=0
EXTRACT: note_on channel=1 note=26 velocity=123 time=0.009000000000000001
EXTRACT: note_on channel=2 note=38 velocity=125 time=0
EXTRACT: note_on channel=4 note=60 velocity=1 time=0
EXTRACT: note_on channel=4 note=64 velocity=1 time=0
EXTRACT: note_on channel=5 note=38 velocity=113 time=0
EXTRACT: note_on channel=9 note=42 velocity=116 time=0
EXTRACT: note_on channel=9 note=36 velocity=126 time=0
EXTRACT: note_on channel=9 note=70 velocity=106 time=0
EXTRACT: note_on channel=13 note=62 velocity=56 time=0
EXTRACT: note_on channel=13 note=65 velocity=52 time=0
EXTRACT: control_change channel=1 control=6 value=43 time=0
EXTRACT: note_on channel=13 note=74 velocity=47 time=0.002
EXTRACT: note_on channel=10 note=62 velocity=99 time=0.003
EXTRACT: note_on channel=10 note=65 velocity=98 time=0
EXTRACT: note_on channel=13 note=69 velocity=62 time=0
EXTRACT: note_on channel=6 note=74 velocity=73 time=0.002
EXTRACT: note_on channel=11 note=86 velocity=79 time=0
EXTRACT: note_on channel=14 note=74 velocity=78 time=0
EXTRACT: note_off channel=12 note=76 velocity=65 time=0
EXTRACT: note_off channel=12 note=77 velocity=64 time=0
EXTRACT: note_off channel=11 note=89 velocity=64 time=0.007
EXTRACT: note_off channel=6 note=77 velocity=64 time=0
EXTRACT: note_on channel=3 note=79 velocity=116 time=0
EXTRACT: note_off channel=9 note=70 velocity=65 time=0.007
EXTRACT: note_off channel=9 note=36 velocity=65 time=0
EXTRACT: note_off channel=9 note=42 velocity=64 time=0
EXTRACT: note_off channel=14 note=77 velocity=64 time=0.01
EXTRACT: note_off channel=5 note=38 velocity=64 time=0.077
EXTRACT: note_off channel=2 note=38 velocity=64 time=0
EXTRACT: note_on channel=2 note=38 velocity=75 time=0.009000000000000001
EXTRACT: note_on channel=5 note=38 velocity=63 time=0
EXTRACT: note_off channel=1 note=26 velocity=65 time=0.084
EXTRACT: note_off channel=5 note=38 velocity=64 time=0.027
EXTRACT: note_off channel=2 note=38 velocity=65 time=0
EXTRACT: note_off channel=4 note=64 velocity=65 time=0
EXTRACT: note_off channel=4 note=60 velocity=64 time=0
EXTRACT: note_on channel=8 note=62 velocity=95 time=0.006
EXTRACT: note_on channel=8 note=65 velocity=100 time=0
EXTRACT: note_on channel=1 note=38 velocity=122 time=0.003
EXTRACT: note_on channel=2 note=50 velocity=124 time=0
EXTRACT: note_on channel=4 note=62 velocity=1 time=0
EXTRACT: note_on channel=4 note=65 velocity=1 time=0
EXTRACT: note_on channel=5 note=38 velocity=112 time=0
EXTRACT: note_on channel=9 note=46 velocity=112 time=0
EXTRACT: note_on channel=9 note=70 velocity=107 time=0
EXTRACT: note_on channel=3 note=81 velocity=117 time=0
EXTRACT: note_off channel=3 note=79 velocity=64 time=0.007
EXTRACT: note_off channel=9 note=70 velocity=64 time=0.014
EXTRACT: note_off channel=9 note=46 velocity=65 time=0
EXTRACT: note_off channel=8 note=65 velocity=64 time=0.033
EXTRACT: note_off channel=8 note=62 velocity=64 time=0
EXTRACT: note_off channel=5 note=38 velocity=65 time=0.054
EXTRACT: note_off channel=2 note=50 velocity=65 time=0
EXTRACT: note_on channel=8 note=62 velocity=73 time=0.006
EXTRACT: note_on channel=8 note=65 velocity=78 time=0
EXTRACT: note_on channel=2 note=50 velocity=124 time=0.003
EXTRACT: note_on channel=5 note=38 velocity=113 time=0
EXTRACT: note_on channel=9 note=70 velocity=86 time=0
EXTRACT: note_off channel=9 note=70 velocity=64 time=0.024
EXTRACT: control_change channel=14 control=1 value=15 time=0.016
EXTRACT: note_off channel=8 note=65 velocity=65 time=0.024
EXTRACT: note_off channel=8 note=62 velocity=65 time=0
EXTRACT: note_off channel=1 note=38 velocity=64 time=0.035
EXTRACT: note_off channel=5 note=38 velocity=64 time=0.012
EXTRACT: note_off channel=2 note=50 velocity=64 time=0
EXTRACT: note_on channel=9 note=39 velocity=119 time=0.001
EXTRACT: note_on channel=1 note=26 velocity=123 time=0.008
EXTRACT: note_on channel=2 note=38 velocity=125 time=0
EXTRACT: note_on channel=4 note=60 velocity=1 time=0
EXTRACT: note_on channel=4 note=64 velocity=1 time=0
EXTRACT: note_on channel=5 note=38 velocity=112 time=0
EXTRACT: note_on channel=9 note=36 velocity=127 time=0
EXTRACT: note_on channel=9 note=38 velocity=116 time=0
EXTRACT: note_on channel=9 note=42 velocity=119 time=0
EXTRACT: note_on channel=9 note=70 velocity=107 time=0
EXTRACT: note_off channel=4 note=65 velocity=64 time=0.006
EXTRACT: note_off channel=4 note=62 velocity=65 time=0
EXTRACT: note_off channel=3 note=81 velocity=65 time=0.003
EXTRACT: note_off channel=9 note=39 velocity=65 time=0.008
EXTRACT: note_off channel=9 note=70 velocity=65 time=0.007
EXTRACT: note_off channel=9 note=42 velocity=64 time=0
EXTRACT: note_off channel=9 note=38 velocity=65 time=0
EXTRACT: note_off channel=9 note=36 velocity=64 time=0
EXTRACT: note_on channel=3 note=79 velocity=117 time=0
EXTRACT: note_off channel=5 note=38 velocity=65 time=0.083
EXTRACT: note_off channel=2 note=38 velocity=64 time=0
EXTRACT: note_on channel=2 note=38 velocity=74 time=0.009000000000000001
EXTRACT: note_on channel=5 note=38 velocity=62 time=0
EXTRACT: note_off channel=1 note=26 velocity=65 time=0.069
EXTRACT: note_off channel=3 note=79 velocity=65 time=0.038
EXTRACT: note_off channel=5 note=38 velocity=65 time=0.004
EXTRACT: note_off channel=2 note=38 velocity=65 time=0
EXTRACT: note_off channel=4 note=64 velocity=65 time=0
EXTRACT: note_off channel=4 note=60 velocity=64 time=0
EXTRACT: note_on channel=8 note=62 velocity=96 time=0.006
EXTRACT: note_on channel=8 note=65 velocity=103 time=0
EXTRACT: note_on channel=1 note=38 velocity=123 time=0.003
EXTRACT: note_on channel=2 note=50 velocity=125 time=0
EXTRACT: note_on channel=4 note=62 velocity=1 time=0
EXTRACT: note_on channel=4 note=65 velocity=1 time=0
EXTRACT: note_on channel=5 note=38 velocity=113 time=0
EXTRACT: note_on channel=9 note=42 velocity=117 time=0
EXTRACT: note_on channel=9 note=70 velocity=107 time=0
EXTRACT: note_on channel=3 note=81 velocity=116 time=0
EXTRACT: note_off channel=9 note=70 velocity=64 time=0.016
EXTRACT: note_off channel=9 note=42 velocity=65 time=0
EXTRACT: note_off channel=8 note=65 velocity=64 time=0.029
EXTRACT: note_off channel=8 note=62 velocity=64 time=0
EXTRACT: note_off channel=5 note=38 velocity=64 time=0.058
EXTRACT: note_off channel=2 note=50 velocity=65 time=0
EXTRACT: note_on channel=8 note=62 velocity=89 time=0.006
EXTRACT: note_on channel=8 note=65 velocity=92 time=0
EXTRACT: note_on channel=2 note=50 velocity=125 time=0.003
EXTRACT: note_on channel=5 note=38 velocity=113 time=0
EXTRACT: note_on channel=9 note=44 velocity=98 time=0
EXTRACT: note_on channel=9 note=70 velocity=86 time=0
EXTRACT: control_change channel=13 control=6 value=52 time=0
EXTRACT: note_off channel=9 note=70 velocity=65 time=0.024
EXTRACT: note_off channel=9 note=44 velocity=64 time=0
EXTRACT: note_off channel=8 note=65 velocity=65 time=0.032
EXTRACT: note_off channel=8 note=62 velocity=65 time=0
EXTRACT: note_off channel=3 note=81 velocity=64 time=0
EXTRACT: note_off channel=1 note=38 velocity=64 time=0.043000000000000003
EXTRACT: pitchwheel channel=3 pitch=-8070 time=0.004
EXTRACT: note_off channel=5 note=38 velocity=65 time=0.008
EXTRACT: note_off channel=2 note=50 velocity=64 time=0
EXTRACT: note_off channel=4 note=65 velocity=64 time=0
EXTRACT: note_off channel=4 note=62 velocity=65 time=0
EXTRACT: note_on channel=1 note=26 velocity=122 time=0.009000000000000001
EXTRACT: note_on channel=2 note=38 velocity=124 time=0
EXTRACT: note_on channel=4 note=62 velocity=1 time=0
EXTRACT: note_on channel=4 note=65 velocity=1 time=0
EXTRACT: note_on channel=5 note=38 velocity=112 time=0
EXTRACT: note_on channel=9 note=36 velocity=127 time=0
EXTRACT: note_on channel=9 note=42 velocity=124 time=0
EXTRACT: note_on channel=9 note=70 velocity=107 time=0
EXTRACT: note_on channel=3 note=81 velocity=117 time=0
EXTRACT: pitchwheel channel=3 pitch=-6150 time=0.02
EXTRACT: note_off channel=9 note=70 velocity=64 time=0.001
EXTRACT: note_off channel=9 note=42 velocity=65 time=0
EXTRACT: note_off channel=9 note=36 velocity=65 time=0
EXTRACT: pitchwheel channel=3 pitch=-4870 time=0.009000000000000001
EXTRACT: pitchwheel channel=3 pitch=-3590 time=0.01
EXTRACT: pitchwheel channel=3 pitch=-2566 time=0.01
EXTRACT: pitchwheel channel=3 pitch=-1414 time=0.01
EXTRACT: pitchwheel channel=3 pitch=122 time=0.02
EXTRACT: note_off channel=5 note=38 velocity=64 time=0.028
EXTRACT: note_off channel=2 note=38 velocity=64 time=0
EXTRACT: note_off channel=6 note=74 velocity=64 time=0.003
EXTRACT: note_on channel=2 note=38 velocity=75 time=0.006
EXTRACT: note_on channel=5 note=38 velocity=62 time=0
EXTRACT: note_off channel=14 note=74 velocity=65 time=0.054
EXTRACT: note_off channel=11 note=86 velocity=65 time=0
EXTRACT: control_change channel=1 control=6 value=45 time=0.036000000000000004
EXTRACT: note_off channel=1 note=26 velocity=64 time=0.009000000000000001
EXTRACT: note_off channel=5 note=38 velocity=64 time=0.012
EXTRACT: note_off channel=2 note=38 velocity=65 time=0
EXTRACT: note_on channel=8 note=62 velocity=96 time=0.006
EXTRACT: note_on channel=8 note=65 velocity=103 time=0
EXTRACT: note_on channel=1 note=38 velocity=123 time=0.003
EXTRACT: note_on channel=2 note=50 velocity=124 time=0
EXTRACT: note_on channel=5 note=38 velocity=113 time=0
EXTRACT: note_on channel=9 note=46 velocity=111 time=0
EXTRACT: note_on channel=9 note=70 velocity=106 time=0
EXTRACT: note_on channel=6 note=74 velocity=72 time=0.001
EXTRACT: note_on channel=11 note=86 velocity=77 time=0
EXTRACT: note_on channel=14 note=74 velocity=76 time=0
EXTRACT: note_off channel=9 note=70 velocity=64 time=0.023
EXTRACT: note_off channel=9 note=46 velocity=64 time=0
EXTRACT: note_off channel=8 note=65 velocity=64 time=0.032
EXTRACT: note_off channel=8 note=62 velocity=64 time=0
EXTRACT: note_on channel=6 note=77 velocity=82 time=0.02
EXTRACT: note_on channel=11 note=89 velocity=88 time=0
EXTRACT: note_on channel=14 note=77 velocity=89 time=0
EXTRACT: note_off channel=14 note=74 velocity=65 time=0.018000000000000002
EXTRACT: note_off channel=11 note=86 velocity=65 time=0
EXTRACT: note_off channel=6 note=74 velocity=65 time=0
EXTRACT: note_off channel=5 note=38 velocity=65 time=0.017
EXTRACT: note_off channel=2 note=50 velocity=64 time=0
EXTRACT: note_on channel=8 note=62 velocity=95 time=0.006
EXTRACT: note_on channel=8 note=65 velocity=100 time=0
EXTRACT: note_on channel=2 note=50 velocity=124 time=0.003
EXTRACT: note_on channel=5 note=38 velocity=113 time=0
EXTRACT: note_on channel=9 note=70 velocity=86 time=0
EXTRACT: note_off channel=9 note=70 velocity=65 time=0.024
EXTRACT: note_on channel=6 note=81 velocity=63 time=0.008
EXTRACT: note_on channel=11 note=93 velocity=78 time=0
EXTRACT: note_on channel=14 note=81 velocity=79 time=0
EXTRACT: note_off channel=3 note=81 velocity=65 time=0.017
EXTRACT: note_off channel=8 note=65 velocity=65 time=0.004
EXTRACT: note_off channel=8 note=62 velocity=64 time=0
EXTRACT: note_off channel=14 note=77 velocity=64 time=0.001
EXTRACT: note_off channel=11 note=89 velocity=64 time=0
EXTRACT: note_off channel=6 note=77 velocity=64 time=0
EXTRACT: note_off channel=1 note=38 velocity=65 time=0.03
EXTRACT: note_on channel=6 note=86 velocity=73 time=0.017
EXTRACT: note_on channel=11 note=98 velocity=83 time=0
EXTRACT: note_on channel=14 note=86 velocity=82 time=0
EXTRACT: note_on channel=3 note=79 velocity=116 time=0
EXTRACT: note_off channel=5 note=38 velocity=65 time=0
EXTRACT: note_off channel=2 note=50 velocity=65 time=0
EXTRACT: note_off channel=4 note=65 velocity=65 time=0
EXTRACT: note_off channel=4 note=62 velocity=64 time=0
EXTRACT: note_on channel=9 note=39 velocity=119 time=0.001
EXTRACT: note_on channel=1 note=26 velocity=122 time=0.008
EXTRACT: note_on channel=2 note=38 velocity=125 time=0
EXTRACT: note_on channel=4 note=60 velocity=1 time=0
EXTRACT: note_on channel=4 note=64 velocity=1 time=0
EXTRACT: note_on channel=5 note=38 velocity=112 time=0
EXTRACT: note_on channel=9 note=36 velocity=126 time=0
EXTRACT: note_on channel=9 note=38 velocity=117 time=0
EXTRACT: note_on channel=9 note=42 velocity=99 time=0
EXTRACT: note_on channel=9 note=70 velocity=107 time=0
EXTRACT: note_off channel=14 note=81 velocity=65 time=0.004
EXTRACT: note_off channel=11 note=93 velocity=65 time=0
EXTRACT: note_off channel=6 note=81 velocity=65 time=0
EXTRACT: note_off channel=9 note=39 velocity=64 time=0.013000000000000001
EXTRACT: note_off channel=9 note=70 velocity=65 time=0.007
EXTRACT: note_off channel=9 note=42 velocity=65 time=0
EXTRACT: note_off channel=9 note=38 velocity=64 time=0
EXTRACT: note_off channel=9 note=36 velocity=65 time=0
EXTRACT: note_off channel=5 note=38 velocity=64 time=0.08700000000000001
EXTRACT: note_off channel=2 note=38 velocity=65 time=0
EXTRACT: note_on channel=2 note=38 velocity=75 time=0.009000000000000001
EXTRACT: note_on channel=5 note=38 velocity=62 time=0
EXTRACT: note_on channel=12 note=76 velocity=126 time=0.057
EXTRACT: note_on channel=12 note=84 velocity=127 time=0.01
EXTRACT: note_off channel=1 note=26 velocity=65 time=0.017
EXTRACT: note_off channel=3 note=79 velocity=64 time=0.002
EXTRACT: note_on channel=6 note=81 velocity=74 time=0.02
EXTRACT: note_on channel=11 note=93 velocity=77 time=0
EXTRACT: note_on channel=14 note=81 velocity=76 time=0
EXTRACT: note_on channel=3 note=77 velocity=116 time=0
EXTRACT: note_off channel=5 note=38 velocity=64 time=0.003
EXTRACT: note_off channel=2 note=38 velocity=64 time=0
EXTRACT: note_off channel=4 note=64 velocity=64 time=0
EXTRACT: note_off channel=4 note=60 velocity=65 time=0
EXTRACT: note_on channel=8 note=62 velocity=100 time=0.006
EXTRACT: note_on channel=8 note=65 velocity=105 time=0
EXTRACT: note_on channel=1 note=38 velocity=122 time=0.003
EXTRACT: note_on channel=2 note=50 velocity=124 time=0
EXTRACT: note_on channel=4 note=57 velocity=1 time=0
EXTRACT: note_on channel=4 note=62 velocity=1 time=0
EXTRACT: note_on channel=5 note=38 velocity=113 time=0
EXTRACT: note_on channel=9 note=42 velocity=114 time=0
EXTRACT: note_on channel=9 note=70 velocity=107 time=0
EXTRACT: note_off channel=14 note=86 velocity=64 time=0.004
EXTRACT: note_off channel=11 note=98 velocity=64 time=0
EXTRACT: note_off channel=6 note=86 velocity=65 time=0
EXTRACT: note_off channel=9 note=70 velocity=64 time=0.02
EXTRACT: note_off channel=9 note=42 velocity=64 time=0
EXTRACT: note_off channel=8 note=65 velocity=65 time=0.037
EXTRACT: note_off channel=8 note=62 velocity=65 time=0
EXTRACT: note_off channel=5 note=38 velocity=65 time=0.05
EXTRACT: note_off channel=2 note=50 velocity=65 time=0
EXTRACT: note_off channel=14 note=81 velocity=64 time=0.003
EXTRACT: note_off channel=11 note=93 velocity=64 time=0
EXTRACT: note_off channel=6 note=81 velocity=64 time=0
EXTRACT: note_on channel=6 note=77 velocity=72 time=0.003
EXTRACT: note_on channel=8 note=62 velocity=96 time=0
EXTRACT: note_on channel=8 note=65 velocity=103 time=0
EXTRACT: note_on channel=11 note=89 velocity=80 time=0
EXTRACT: note_on channel=14 note=77 velocity=81 time=0
EXTRACT: note_on channel=2 note=50 velocity=124 time=0.003
EXTRACT: note_on channel=5 note=38 velocity=112 time=0
EXTRACT: note_on channel=9 note=44 velocity=99 time=0
EXTRACT: note_on channel=9 note=70 velocity=86 time=0
EXTRACT: note_off channel=9 note=70 velocity=65 time=0.024
EXTRACT: note_off channel=9 note=44 velocity=65 time=0
EXTRACT: note_off channel=3 note=77 velocity=64 time=0.025
EXTRACT: note_off channel=8 note=65 velocity=64 time=0.017
EXTRACT: note_off channel=8 note=62 velocity=65 time=0
EXTRACT: note_off channel=1 note=38 velocity=64 time=0.018000000000000002
EXTRACT: note_off channel=12 note=76 velocity=64 time=0.002
EXTRACT: note_off channel=12 note=84 velocity=65 time=0.01
EXTRACT: note_on channel=3 note=79 velocity=117 time=0
EXTRACT: note_off channel=5 note=38 velocity=65 time=0.001
EXTRACT: note_off channel=2 note=50 velocity=64 time=0
EXTRACT: note_off channel=4 note=62 velocity=64 time=0
EXTRACT: note_off channel=4 note=57 velocity=65 time=0
EXTRACT: note_on channel=6 note=74 velocity=79 time=0.006
EXTRACT: note_on channel=11 note=86 velocity=84 time=0
EXTRACT: note_on channel=14 note=74 velocity=85 time=0
EXTRACT: note_on channel=1 note=26 velocity=123 time=0.003
EXTRACT: note_on channel=2 note=38 velocity=125 time=0
EXTRACT: note_on channel=4 note=60 velocity=1 time=0
EXTRACT: note_on channel=4 note=64 velocity=1 time=0
EXTRACT: note_on channel=5 note=38 velocity=113 time=0
EXTRACT: note_on channel=9 note=36 velocity=126 time=0
EXTRACT: note_on channel=9 note=42 velocity=122 time=0
EXTRACT: note_on channel=9 note=70 velocity=106 time=0
EXTRACT: note_off channel=14 note=77 velocity=65 time=0.014
EXTRACT: note_off channel=11 note=89 velocity=65 time=0
EXTRACT: note_off channel=6 note=77 velocity=65 time=0
EXTRACT: note_off channel=9 note=70 velocity=64 time=0.01
EXTRACT: note_off channel=9 note=42 velocity=64 time=0
EXTRACT: note_off channel=9 note=36 velocity=65 time=0
EXTRACT: control_change channel=13 control=6 value=54 time=0.056
EXTRACT: note_off channel=5 note=38 velocity=64 time=0.031
EXTRACT: note_off channel=2 note=38 velocity=64 time=0
EXTRACT: note_on channel=6 note=76 velocity=78 time=0.005
EXTRACT: note_on channel=11 note=88 velocity=85 time=0
EXTRACT: note_on channel=14 note=76 velocity=84 time=0
EXTRACT: note_off channel=10 note=62 velocity=65 time=0.003
EXTRACT: note_on channel=2 note=38 velocity=75 time=0.001
EXTRACT: note_on channel=5 note=38 velocity=63 time=0
EXTRACT: note_off channel=14 note=74 velocity=65 time=0.004
EXTRACT: note_off channel=11 note=86 velocity=65 time=0
EXTRACT: note_off channel=6 note=74 velocity=64 time=0
EXTRACT: note_off channel=3 note=79 velocity=65 time=0.07100000000000001
EXTRACT: note_off channel=1 note=26 velocity=64 time=0.009000000000000001
EXTRACT: note_off channel=5 note=38 velocity=64 time=0.027
EXTRACT: note_off channel=2 note=38 velocity=65 time=0
EXTRACT: note_off channel=4 note=64 velocity=65 time=0
EXTRACT: note_off channel=4 note=60 velocity=64 time=0
EXTRACT: note_off channel=13 note=69 velocity=64 time=0.003
EXTRACT: note_off channel=13 note=74 velocity=64 time=0
EXTRACT: note_off channel=13 note=65 velocity=65 time=0
EXTRACT: note_off channel=13 note=62 velocity=64 time=0
EXTRACT: note_on channel=8 note=62 velocity=95 time=0.003
EXTRACT: note_on channel=8 note=65 velocity=100 time=0
EXTRACT: note_on channel=6 note=77 velocity=75 time=0.001
EXTRACT: note_on channel=11 note=89 velocity=92 time=0
EXTRACT: note_on channel=14 note=77 velocity=92 time=0
EXTRACT: note_off channel=10 note=65 velocity=64 time=0.001
EXTRACT: note_on channel=1 note=28 velocity=123 time=0
EXTRACT: note_on channel=2 note=52 velocity=124 time=0
EXTRACT: note_on channel=3 note=81 velocity=117 time=0
EXTRACT: note_on channel=4 note=60 velocity=1 time=0
EXTRACT: note_on channel=4 note=65 velocity=1 time=0
EXTRACT: note_on channel=5 note=40 velocity=112 time=0
EXTRACT: note_on channel=9 note=46 velocity=105 time=0
EXTRACT: note_on channel=9 note=70 velocity=107 time=0
EXTRACT: note_on channel=13 note=64 velocity=81 time=0
EXTRACT: note_on channel=10 note=64 velocity=91 time=0.005
EXTRACT: note_on channel=10 note=67 velocity=78 time=0
EXTRACT: note_off channel=14 note=76 velocity=64 time=0
EXTRACT: note_off channel=11 note=88 velocity=64 time=0
EXTRACT: note_off channel=6 note=76 velocity=64 time=0
EXTRACT: note_on channel=13 note=67 velocity=65 time=0.007
EXTRACT: note_on channel=13 note=71 velocity=62 time=0.008
EXTRACT: note_off channel=9 note=70 velocity=65 time=0.004
EXTRACT: note_off channel=9 note=46 velocity=64 time=0
EXTRACT: note_off channel=8 note=65 velocity=64 time=0.033
EXTRACT: note_off channel=8 note=62 velocity=64 time=0
EXTRACT: note_off channel=5 note=40 velocity=65 time=0.054
EXTRACT: note_off channel=2 note=52 velocity=65 time=0
EXTRACT: note_on channel=8 note=62 velocity=73 time=0.006
EXTRACT: note_on channel=8 note=65 velocity=78 time=0
EXTRACT: note_on channel=2 note=52 velocity=124 time=0.003
EXTRACT: note_on channel=5 note=40 velocity=113 time=0
EXTRACT: note_on channel=9 note=70 velocity=87 time=0
EXTRACT: note_on channel=6 note=79 velocity=75 time=0.001
EXTRACT: note_on channel=11 note=91 velocity=83 time=0
EXTRACT: note_on channel=14 note=79 velocity=83 time=0
EXTRACT: note_off channel=14 note=77 velocity=64 time=0.013000000000000001
EXTRACT: note_off channel=11 note=89 velocity=64 time=0
EXTRACT: note_off channel=6 note=77 velocity=65 time=0
EXTRACT: note_off channel=9 note=70 velocity=64 time=0.01
EXTRACT: control_change channel=1 control=6 value=47 time=0.021
EXTRACT: note_off channel=8 note=65 velocity=65 time=0.019
EXTRACT: note_off channel=8 note=62 velocity=65 time=0
EXTRACT: note_off channel=1 note=28 velocity=65 time=0.005
EXTRACT: note_off channel=13 note=64 velocity=65 time=0.006
EXTRACT: note_on channel=6 note=81 velocity=76 time=0.022
EXTRACT: note_on channel=11 note=93 velocity=87 time=0
EXTRACT: note_on channel=14 note=81 velocity=86 time=0
EXTRACT: note_off channel=5 note=40 velocity=64 time=0.014
EXTRACT: note_off channel=2 note=52 velocity=64 time=0
EXTRACT: note_on channel=9 note=39 velocity=118 time=0.001
EXTRACT: note_off channel=13 note=71 velocity=65 time=0.002
EXTRACT: note_off channel=13 note=67 velocity=64 time=0
EXTRACT: note_off channel=10 note=67 velocity=65 time=0.005
EXTRACT: note_on channel=1 note=29 velocity=122 time=0.001
EXTRACT: note_on channel=2 note=41 velocity=125 time=0
EXTRACT: note_on channel=5 note=41 velocity=112 time=0
EXTRACT: note_on channel=9 note=36 velocity=127 time=0
EXTRACT: note_on channel=9 note=38 velocity=116 time=0
EXTRACT: note_on channel=9 note=42 velocity=111 time=0
EXTRACT: note_on channel=9 note=70 velocity=106 time=0
EXTRACT: note_on channel=13 note=65 velocity=89 time=0
EXTRACT: note_off channel=10 note=64 velocity=64 time=0.001
EXTRACT: note_off channel=14 note=79 velocity=65 time=0.001
EXTRACT: note_off channel=11 note=91 velocity=65 time=0
EXTRACT: note_off channel=6 note=79 velocity=65 time=0
EXTRACT: note_on channel=10 note=65 velocity=104 time=0.003
EXTRACT: note_on channel=10 note=69 velocity=87 time=0
EXTRACT: note_on channel=13 note=69 velocity=34 time=0.012
EXTRACT: note_on channel=13 note=72 velocity=80 time=0
EXTRACT: note_off channel=9 note=39 velocity=65 time=0
EXTRACT: note_off channel=9 note=70 velocity=64 time=0.007
EXTRACT: note_off channel=9 note=42 velocity=65 time=0
EXTRACT: note_off channel=9 note=38 velocity=65 time=0
EXTRACT: note_off channel=9 note=36 velocity=64 time=0
EXTRACT: note_off channel=3 note=81 velocity=65 time=0.05
EXTRACT: note_off channel=5 note=41 velocity=65 time=0.037
EXTRACT: note_off channel=2 note=41 velocity=64 time=0
EXTRACT: note_on channel=2 note=41 velocity=74 time=0.009000000000000001
EXTRACT: note_on channel=5 note=41 velocity=62 time=0
EXTRACT: note_off channel=1 note=29 velocity=65 time=0.084
EXTRACT: note_off channel=5 note=41 velocity=65 time=0.027
EXTRACT: note_off channel=2 note=41 velocity=65 time=0
EXTRACT: note_off channel=4 note=65 velocity=65 time=0
EXTRACT: note_off channel=4 note=60 velocity=64 time=0
EXTRACT: note_on channel=8 note=60 velocity=96 time=0.006
EXTRACT: note_on channel=8 note=65 velocity=103 time=0
EXTRACT: note_on channel=1 note=41 velocity=122 time=0.003
EXTRACT: note_on channel=2 note=53 velocity=125 time=0
EXTRACT: note_on channel=4 note=60 velocity=1 time=0
EXTRACT: note_on channel=4 note=65 velocity=1 time=0
EXTRACT: note_on channel=5 note=41 velocity=113 time=0
EXTRACT: note_on channel=9 note=42 velocity=125 time=0
EXTRACT: note_on channel=9 note=70 velocity=106 time=0
EXTRACT: note_on channel=3 note=81 velocity=116 time=0
EXTRACT: note_off channel=9 note=70 velocity=65 time=0.009000000000000001
EXTRACT: note_off channel=9 note=42 velocity=64 time=0
EXTRACT: note_off channel=8 note=65 velocity=64 time=0.008
EXTRACT: note_off channel=8 note=60 velocity=64 time=0
EXTRACT: note_off channel=5 note=41 velocity=64 time=0.058
EXTRACT: note_off channel=2 note=53 velocity=65 time=0
EXTRACT: note_on channel=8 note=60 velocity=89 time=0.006
EXTRACT: note_on channel=8 note=65 velocity=92 time=0
EXTRACT: note_on channel=2 note=53 velocity=125 time=0.003
EXTRACT: note_on channel=5 note=41 velocity=113 time=0
EXTRACT: note_on channel=9 note=44 velocity=98 time=0
EXTRACT: note_on channel=9 note=70 velocity=87 time=0
EXTRACT: note_off channel=9 note=70 velocity=64 time=0.024
EXTRACT: note_off channel=9 note=44 velocity=65 time=0
EXTRACT: note_off channel=8 note=65 velocity=65 time=0.032
EXTRACT: note_off channel=8 note=60 velocity=65 time=0
EXTRACT: note_off channel=1 note=41 velocity=64 time=0.028
EXTRACT: note_off channel=5 note=41 velocity=65 time=0.027
EXTRACT: note_off channel=2 note=53 velocity=64 time=0
EXTRACT: note_on channel=1 note=29 velocity=123 time=0.009000000000000001
EXTRACT: note_on channel=2 note=41 velocity=124 time=0
EXTRACT: note_on channel=5 note=41 velocity=112 time=0
EXTRACT: note_on channel=9 note=36 velocity=126 time=0
EXTRACT: note_on channel=9 note=42 velocity=124 time=0
EXTRACT: note_on channel=9 note=70 velocity=106 time=0
EXTRACT: note_off channel=9 note=70 velocity=65 time=0.024
EXTRACT: note_off channel=9 note=42 velocity=64 time=0
EXTRACT: note_off channel=9 note=36 velocity=64 time=0
EXTRACT: note_off channel=5 note=41 velocity=64 time=0.08700000000000001
EXTRACT: note_off channel=2 note=41 velocity=64 time=0
EXTRACT: note_on channel=2 note=41 velocity=75 time=0.009000000000000001
EXTRACT: note_on channel=5 note=41 velocity=62 time=0
EXTRACT: note_off channel=3 note=81 velocity=64 time=0.014
EXTRACT: note_off channel=14 note=81 velocity=65 time=0.06
EXTRACT: note_off channel=11 note=93 velocity=65 time=0
EXTRACT: note_off channel=6 note=81 velocity=64 time=0
EXTRACT: note_off channel=1 note=29 velocity=64 time=0.01
EXTRACT: note_off channel=5 note=41 velocity=64 time=0.027
EXTRACT: note_off channel=2 note=41 velocity=65 time=0
EXTRACT: note_off channel=4 note=65 velocity=64 time=0
EXTRACT: note_on channel=8 note=60 velocity=96 time=0.006
EXTRACT: note_on channel=8 note=65 velocity=103 time=0
EXTRACT: note_on channel=1 note=41 velocity=123 time=0.003
EXTRACT: note_on channel=2 note=53 velocity=124 time=0
EXTRACT: note_on channel=4 note=57 velocity=1 time=0
EXTRACT: note_on channel=5 note=41 velocity=113 time=0
EXTRACT: note_on channel=9 note=46 velocity=110 time=0
EXTRACT: note_on channel=9 note=70 velocity=107 time=0
EXTRACT: control_change channel=2 control=6 value=59 time=0
EXTRACT: note_on channel=3 note=72 velocity=116 time=0
EXTRACT: note_on channel=6 note=77 velocity=75 time=0.015
EXTRACT: note_on channel=11 note=89 velocity=82 time=0
EXTRACT: note_on channel=14 note=77 velocity=83 time=0
EXTRACT: note_off channel=9 note=70 velocity=65 time=0.003
EXTRACT: note_off channel=9 note=46 velocity=65 time=0
EXTRACT: note_off channel=8 note=65 velocity=64 time=0.02
EXTRACT: note_off channel=8 note=60 velocity=64 time=0
EXTRACT: note_on channel=6 note=81 velocity=54 time=0.039
EXTRACT: note_on channel=11 note=93 velocity=77 time=0
EXTRACT: note_on channel=14 note=81 velocity=77 time=0
EXTRACT: note_off channel=5 note=41 velocity=65 time=0.016
EXTRACT: note_off channel=2 note=53 velocity=64 time=0
EXTRACT: note_on channel=8 note=60 velocity=95 time=0.006
EXTRACT: note_on channel=8 note=65 velocity=100 time=0
EXTRACT: note_on channel=2 note=53 velocity=124 time=0.003
EXTRACT: note_on channel=5 note=41 velocity=113 time=0
EXTRACT: note_on channel=9 note=70 velocity=87 time=0
EXTRACT: note_off channel=9 note=70 velocity=64 time=0.024
EXTRACT: note_off channel=14 note=77 velocity=64 time=0.01
EXTRACT: note_off channel=11 note=89 velocity=64 time=0
EXTRACT: note_off channel=6 note=77 velocity=64 time=0
EXTRACT: note_on channel=6 note=84 velocity=80 time=0.012
EXTRACT: note_on channel=11 note=96 velocity=84 time=0
EXTRACT: note_on channel=14 note=84 velocity=84 time=0
EXTRACT: note_off channel=8 note=65 velocity=65 time=0.007
EXTRACT: note_off channel=8 note=60 velocity=64 time=0
EXTRACT: note_off channel=14 note=81 velocity=64 time=0.011
EXTRACT: note_off channel=11 note=93 velocity=64 time=0
EXTRACT: note_off channel=6 note=81 velocity=65 time=0
EXTRACT: note_off channel=3 note=72 velocity=64 time=0.01
EXTRACT: note_off channel=1 note=41 velocity=65 time=0.01
EXTRACT: note_on channel=6 note=89 velocity=79 time=0.019
EXTRACT: note_on channel=11 note=101 velocity=84 time=0
EXTRACT: note_on channel=14 note=89 velocity=85 time=0
EXTRACT: note_off channel=5 note=41 velocity=65 time=0.008
EXTRACT: note_off channel=2 note=53 velocity=65 time=0
EXTRACT: note_off channel=4 note=57 velocity=65 time=0
EXTRACT: note_on channel=9 note=39 velocity=118 time=0.001
EXTRACT: note_off channel=4 note=60 velocity=65 time=0.002
EXTRACT: note_on channel=1 note=29 velocity=122 time=0.006
EXTRACT: note_on channel=2 note=41 velocity=125 time=0
EXTRACT: note_on channel=4 note=60 velocity=1 time=0
EXTRACT: note_on channel=4 note=65 velocity=1 time=0
EXTRACT: note_on channel=5 note=41 velocity=112 time=0
EXTRACT: note_on channel=9 note=36 velocity=127 time=0
EXTRACT: note_on channel=9 note=38 velocity=116 time=0
EXTRACT: note_on channel=9 note=42 velocity=112 time=0
EXTRACT: note_on channel=9 note=70 velocity=106 time=0
EXTRACT: note_on channel=3 note=81 velocity=117 time=0
EXTRACT: note_off channel=14 note=84 velocity=65 time=0.012
EXTRACT: note_off channel=11 note=96 velocity=65 time=0
EXTRACT: note_off channel=6 note=84 velocity=65 time=0
EXTRACT: note_off channel=9 note=39 velocity=64 time=0.003
EXTRACT: note_off channel=9 note=70 velocity=65 time=0.007
EXTRACT: note_off channel=9 note=42 velocity=64 time=0
EXTRACT: note_off channel=9 note=38 velocity=65 time=0
EXTRACT: note_off channel=9 note=36 velocity=65 time=0
EXTRACT: control_change channel=13 control=6 value=56 time=0.016
EXTRACT: note_off channel=5 note=41 velocity=64 time=0.07100000000000001
EXTRACT: note_off channel=2 note=41 velocity=65 time=0
EXTRACT: note_on channel=2 note=41 velocity=75 time=0.009000000000000001
EXTRACT: note_on channel=5 note=41 velocity=62 time=0
EXTRACT: control_change channel=1 control=6 value=50 time=0.075
EXTRACT: note_off channel=1 note=29 velocity=64 time=0.009000000000000001
EXTRACT: note_off channel=3 note=81 velocity=65 time=0.01
EXTRACT: note_off channel=14 note=89 velocity=64 time=0
EXTRACT: note_off channel=11 note=101 velocity=64 time=0
EXTRACT: note_off channel=6 note=89 velocity=64 time=0
EXTRACT: note_on channel=6 note=88 velocity=75 time=0.016
EXTRACT: note_on channel=11 note=100 velocity=81 time=0
EXTRACT: note_on channel=14 note=88 velocity=80 time=0
EXTRACT: note_off channel=5 note=41 velocity=64 time=0.001
EXTRACT: note_off channel=2 note=41 velocity=64 time=0
EXTRACT: note_off channel=4 note=65 velocity=64 time=0
EXTRACT: note_off channel=4 note=60 velocity=64 time=0
EXTRACT: note_on channel=8 note=60 velocity=100 time=0.006
EXTRACT: note_on channel=8 note=65 velocity=105 time=0
EXTRACT: note_off channel=10 note=69 velocity=64 time=0.002
EXTRACT: note_off channel=10 note=65 velocity=65 time=0
EXTRACT: note_on channel=1 note=31 velocity=122 time=0.001
EXTRACT: note_on channel=2 note=55 velocity=124 time=0
EXTRACT: note_on channel=4 note=60 velocity=1 time=0
EXTRACT: note_on channel=4 note=64 velocity=1 time=0
EXTRACT: note_on channel=5 note=43 velocity=113 time=0
EXTRACT: note_on channel=9 note=42 velocity=109 time=0
EXTRACT: note_on channel=9 note=70 velocity=107 time=0
EXTRACT: note_on channel=13 note=67 velocity=81 time=0
EXTRACT: note_on channel=13 note=71 velocity=65 time=0
EXTRACT: note_on channel=10 note=67 velocity=87 time=0.005
EXTRACT: note_on channel=10 note=71 velocity=86 time=0
EXTRACT: note_off channel=13 note=72 velocity=65 time=0.006
EXTRACT: note_off channel=13 note=69 velocity=64 time=0
EXTRACT: note_off channel=13 note=65 velocity=64 time=0
EXTRACT: note_on channel=13 note=74 velocity=62 time=0.009000000000000001
EXTRACT: note_off channel=9 note=70 velocity=64 time=0.004
EXTRACT: note_off channel=9 note=42 velocity=65 time=0
EXTRACT: note_on channel=3 note=79 velocity=117 time=0
EXTRACT: note_off channel=8 note=65 velocity=65 time=0.026000000000000002
EXTRACT: note_off channel=8 note=60 velocity=65 time=0
EXTRACT: note_off channel=5 note=43 velocity=65 time=0.046
EXTRACT: note_off channel=2 note=55 velocity=65 time=0
EXTRACT: note_on channel=8 note=60 velocity=96 time=0.006
EXTRACT: note_on channel=8 note=65 velocity=103 time=0
EXTRACT: note_on channel=2 note=55 velocity=124 time=0.003
EXTRACT: note_on channel=5 note=43 velocity=112 time=0
EXTRACT: note_on channel=9 note=44 velocity=98 time=0
EXTRACT: note_on channel=9 note=70 velocity=86 time=0
EXTRACT: note_off channel=14 note=88 velocity=65 time=0.004
EXTRACT: note_off channel=11 note=100 velocity=65 time=0
EXTRACT: note_off channel=6 note=88 velocity=64 time=0
EXTRACT: note_on channel=6 note=84 velocity=72 time=0.003
EXTRACT: note_on channel=11 note=96 velocity=79 time=0
EXTRACT: note_on channel=14 note=84 velocity=78 time=0
EXTRACT: note_off channel=9 note=70 velocity=64 time=0.017
EXTRACT: note_off channel=9 note=44 velocity=64 time=0
EXTRACT: note_off channel=8 note=65 velocity=64 time=0.042
EXTRACT: note_off channel=8 note=60 velocity=65 time=0
EXTRACT: note_off channel=1 note=31 velocity=65 time=0.018000000000000002
EXTRACT: control_change channel=9 control=91 value=20 time=0.006
EXTRACT: note_off channel=5 note=43 velocity=65 time=0.021
EXTRACT: note_off channel=2 note=55 velocity=64 time=0
EXTRACT: note_off channel=13 note=74 velocity=65 time=0.003
EXTRACT: note_off channel=13 note=71 velocity=65 time=0
EXTRACT: note_off channel=13 note=67 velocity=64 time=0
EXTRACT: note_off channel=10 note=71 velocity=65 time=0.005
EXTRACT: note_off channel=10 note=67 velocity=64 time=0
EXTRACT: note_on channel=1 note=33 velocity=123 time=0.001
EXTRACT: note_on channel=2 note=45 velocity=125 time=0
EXTRACT: note_on channel=5 note=45 velocity=113 time=0
EXTRACT: note_on channel=9 note=36 velocity=127 time=0
EXTRACT: note_on channel=9 note=42 velocity=125 time=0
EXTRACT: note_on channel=9 note=70 velocity=106 time=0
EXTRACT: note_on channel=13 note=69 velocity=56 time=0
EXTRACT: note_on channel=10 note=69 velocity=92 time=0.005
EXTRACT: note_on channel=10 note=72 velocity=103 time=0
EXTRACT: note_on channel=6 note=81 velocity=78 time=0.002
EXTRACT: note_on channel=11 note=93 velocity=84 time=0
EXTRACT: note_on channel=14 note=81 velocity=85 time=0
EXTRACT: note_on channel=13 note=76 velocity=69 time=0.002
EXTRACT: note_on channel=13 note=72 velocity=61 time=0.003
EXTRACT: note_off channel=14 note=84 velocity=65 time=0.001
EXTRACT: note_off channel=11 note=96 velocity=65 time=0
EXTRACT: note_off channel=6 note=84 velocity=65 time=0
EXTRACT: note_off channel=9 note=70 velocity=65 time=0.011
EXTRACT: note_off channel=9 note=42 velocity=65 time=0
EXTRACT: note_off channel=9 note=36 velocity=64 time=0
EXTRACT: note_off channel=5 note=45 velocity=64 time=0.08700000000000001
EXTRACT: note_off channel=2 note=45 velocity=64 time=0
EXTRACT: note_on channel=2 note=45 velocity=75 time=0.009000000000000001
EXTRACT: note_on channel=5 note=45 velocity=63 time=0
EXTRACT: note_off channel=3 note=79 velocity=65 time=0.006
EXTRACT: note_off channel=1 note=33 velocity=65 time=0.093
EXTRACT: note_off channel=5 note=45 velocity=64 time=0.012
EXTRACT: note_off channel=2 note=45 velocity=65 time=0
EXTRACT: note_on channel=8 note=60 velocity=95 time=0.006
EXTRACT: note_on channel=8 note=64 velocity=100 time=0
EXTRACT: note_on channel=1 note=45 velocity=122 time=0.003
EXTRACT: note_on channel=2 note=57 velocity=124 time=0
EXTRACT: note_on channel=5 note=45 velocity=112 time=0
EXTRACT: note_on channel=9 note=46 velocity=110 time=0
EXTRACT: note_on channel=9 note=70 velocity=107 time=0
EXTRACT: note_off channel=9 note=70 velocity=64 time=0.024
EXTRACT: note_off channel=9 note=46 velocity=65 time=0
EXTRACT: note_off channel=8 note=64 velocity=64 time=0.033
EXTRACT: note_off channel=8 note=60 velocity=64 time=0
EXTRACT: note_off channel=5 note=45 velocity=65 time=0.054
EXTRACT: note_off channel=2 note=57 velocity=65 time=0
EXTRACT: note_on channel=8 note=60 velocity=73 time=0.006
EXTRACT: note_on channel=8 note=64 velocity=78 time=0
EXTRACT: note_on channel=2 note=57 velocity=124 time=0.003
EXTRACT: note_on channel=5 note=45 velocity=113 time=0
EXTRACT: note_on channel=9 note=70 velocity=87 time=0
EXTRACT: note_off channel=9 note=70 velocity=65 time=0.024
EXTRACT: note_off channel=8 note=64 velocity=65 time=0.04
EXTRACT: note_off channel=8 note=60 velocity=65 time=0
EXTRACT: note_off channel=1 note=45 velocity=64 time=0.02
EXTRACT: note_off channel=5 note=45 velocity=64 time=0.027
EXTRACT: note_off channel=2 note=57 velocity=64 time=0
EXTRACT: note_on channel=9 note=39 velocity=119 time=0.001
EXTRACT: note_on channel=1 note=33 velocity=123 time=0.008
EXTRACT: note_on channel=2 note=45 velocity=125 time=0
EXTRACT: note_on channel=5 note=45 velocity=112 time=0
EXTRACT: note_on channel=9 note=36 velocity=126 time=0
EXTRACT: note_on channel=9 note=38 velocity=117 time=0
EXTRACT: note_on channel=9 note=42 velocity=122 time=0
EXTRACT: note_on channel=9 note=70 velocity=106 time=0
EXTRACT: note_off channel=9 note=39 velocity=64 time=0.017
EXTRACT: note_off channel=9 note=70 velocity=64 time=0.007
EXTRACT: note_off channel=9 note=42 velocity=65 time=0
EXTRACT: note_off channel=9 note=38 velocity=64 time=0
EXTRACT: note_off channel=9 note=36 velocity=65 time=0
EXTRACT: note_off channel=5 note=45 velocity=65 time=0.08700000000000001
EXTRACT: note_off channel=2 note=45 velocity=64 time=0
EXTRACT: note_on channel=2 note=45 velocity=74 time=0.009000000000000001
EXTRACT: note_on channel=5 note=45 velocity=62 time=0
EXTRACT: note_off channel=1 note=33 velocity=65 time=0.099
EXTRACT: note_off channel=5 note=45 velocity=65 time=0.012
EXTRACT: note_off channel=2 note=45 velocity=65 time=0
EXTRACT: note_on channel=8 note=60 velocity=96 time=0.006
EXTRACT: note_on channel=8 note=64 velocity=103 time=0
EXTRACT: note_on channel=1 note=45 velocity=123 time=0.003
EXTRACT: note_on channel=2 note=57 velocity=125 time=0
EXTRACT: note_on channel=5 note=45 velocity=113 time=0
EXTRACT: note_on channel=9 note=42 velocity=116 time=0
EXTRACT: note_on channel=9 note=70 velocity=106 time=0
EXTRACT: note_off channel=9 note=70 velocity=65 time=0.024
EXTRACT: note_off channel=9 note=42 velocity=64 time=0
EXTRACT: note_off channel=8 note=64 velocity=64 time=0.029
EXTRACT: note_off channel=8 note=60 velocity=64 time=0
EXTRACT: control_change channel=13 control=6 value=58 time=0.027
EXTRACT: note_off channel=5 note=45 velocity=64 time=0.031
EXTRACT: note_off channel=2 note=57 velocity=65 time=0
EXTRACT: note_on channel=8 note=60 velocity=89 time=0.006
EXTRACT: note_on channel=8 note=64 velocity=92 time=0
EXTRACT: note_on channel=2 note=57 velocity=125 time=0.003
EXTRACT: note_on channel=5 note=45 velocity=113 time=0
EXTRACT: note_on channel=9 note=44 velocity=99 time=0
EXTRACT: note_on channel=9 note=70 velocity=87 time=0
EXTRACT: note_off channel=9 note=70 velocity=65 time=0.024
EXTRACT: note_off channel=9 note=44 velocity=64 time=0
EXTRACT: note_off channel=8 note=64 velocity=65 time=0.032
EXTRACT: note_off channel=8 note=60 velocity=65 time=0
EXTRACT: note_off channel=1 note=45 velocity=64 time=0.028
EXTRACT: note_off channel=5 note=45 velocity=65 time=0.027
EXTRACT: note_off channel=2 note=57 velocity=64 time=0
EXTRACT: note_on channel=1 note=33 velocity=122 time=0.009000000000000001
EXTRACT: note_on channel=2 note=45 velocity=124 time=0
EXTRACT: note_on channel=5 note=45 velocity=112 time=0
EXTRACT: note_on channel=9 note=36 velocity=127 time=0
EXTRACT: note_on channel=9 note=42 velocity=125 time=0
EXTRACT: note_on channel=9 note=70 velocity=107 time=0
EXTRACT: note_off channel=9 note=70 velocity=64 time=0.024
EXTRACT: note_off channel=9 note=42 velocity=65 time=0
EXTRACT: note_off channel=9 note=36 velocity=65 time=0
EXTRACT: control_change channel=1 control=6 value=52 time=0.066
EXTRACT: note_off channel=14 note=81 velocity=64 time=0.002
EXTRACT: note_off channel=11 note=93 velocity=64 time=0
EXTRACT: note_off channel=6 note=81 velocity=64 time=0
EXTRACT: note_off channel=5 note=45 velocity=64 time=0.019
EXTRACT: note_off channel=2 note=45 velocity=64 time=0
EXTRACT: note_off channel=4 note=64 velocity=65 time=0.003
EXTRACT: note_off channel=4 note=60 velocity=65 time=0
EXTRACT: note_on channel=2 note=45 velocity=75 time=0.006
EXTRACT: note_on channel=5 note=45 velocity=62 time=0
EXTRACT: note_off channel=1 note=33 velocity=64 time=0.084
EXTRACT: note_off channel=5 note=45 velocity=64 time=0.027
EXTRACT: note_off channel=2 note=45 velocity=65 time=0
EXTRACT: note_on channel=8 note=60 velocity=96 time=0.006
EXTRACT: note_on channel=8 note=64 velocity=103 time=0
EXTRACT: note_on channel=1 note=45 velocity=123 time=0.003
EXTRACT: note_on channel=2 note=57 velocity=124 time=0
EXTRACT: note_on channel=4 note=57 velocity=1 time=0
EXTRACT: note_on channel=4 note=60 velocity=1 time=0
EXTRACT: note_on channel=5 note=45 velocity=113 time=0
EXTRACT: note_on channel=9 note=46 velocity=107 time=0
EXTRACT: note_on channel=9 note=70 velocity=106 time=0
EXTRACT: note_on channel=3 note=77 velocity=116 time=0
EXTRACT: note_off channel=9 note=70 velocity=64 time=0.02
EXTRACT: note_off channel=9 note=46 velocity=64 time=0
EXTRACT: note_on channel=6 note=76 velocity=73 time=0.014
EXTRACT: note_on channel=11 note=88 velocity=88 time=0
EXTRACT: note_on channel=14 note=76 velocity=89 time=0
EXTRACT: note_off channel=8 note=64 velocity=64 time=0.008
EXTRACT: note_off channel=8 note=60 velocity=64 time=0
EXTRACT: note_off channel=5 note=45 velocity=65 time=0.055
EXTRACT: note_off channel=2 note=57 velocity=64 time=0
EXTRACT: note_on channel=6 note=81 velocity=69 time=0.005
EXTRACT: note_on channel=11 note=93 velocity=81 time=0
EXTRACT: note_on channel=14 note=81 velocity=80 time=0
EXTRACT: note_on channel=8 note=60 velocity=95 time=0.001
EXTRACT: note_on channel=8 note=64 velocity=100 time=0
EXTRACT: note_on channel=2 note=57 velocity=124 time=0.003
EXTRACT: note_on channel=5 note=45 velocity=113 time=0
EXTRACT: note_on channel=9 note=70 velocity=86 time=0
EXTRACT: note_off channel=3 note=77 velocity=64 time=0.018000000000000002
EXTRACT: note_off channel=9 note=70 velocity=65 time=0.006
EXTRACT: note_off channel=8 note=64 velocity=65 time=0.029
EXTRACT: note_off channel=8 note=60 velocity=64 time=0
EXTRACT: note_on channel=6 note=84 velocity=68 time=0.002
EXTRACT: note_on channel=11 note=96 velocity=83 time=0
EXTRACT: note_on channel=14 note=84 velocity=82 time=0
EXTRACT: note_off channel=14 note=76 velocity=65 time=0.026000000000000002
EXTRACT: note_off channel=11 note=88 velocity=65 time=0
EXTRACT: note_off channel=6 note=76 velocity=65 time=0
EXTRACT: note_off channel=1 note=45 velocity=65 time=0.003
EXTRACT: note_off channel=5 note=45 velocity=65 time=0.027
EXTRACT: note_off channel=2 note=57 velocity=65 time=0
EXTRACT: note_on channel=9 note=39 velocity=118 time=0.001
EXTRACT: note_off channel=4 note=60 velocity=64 time=0.002
EXTRACT: note_off channel=13 note=76 velocity=64 time=0
EXTRACT: note_on channel=3 note=79 velocity=116 time=0
EXTRACT: note_on channel=6 note=88 velocity=82 time=0.003
EXTRACT: note_on channel=11 note=100 velocity=86 time=0
EXTRACT: note_on channel=14 note=88 velocity=87 time=0
EXTRACT: note_off channel=14 note=81 velocity=64 time=0
EXTRACT: note_off channel=11 note=93 velocity=64 time=0
EXTRACT: note_off channel=6 note=81 velocity=65 time=0
EXTRACT: note_on channel=1 note=33 velocity=122 time=0.002
EXTRACT: note_on channel=2 note=45 velocity=125 time=0
EXTRACT: note_on channel=4 note=62 velocity=1 time=0
EXTRACT: note_on channel=5 note=45 velocity=112 time=0
EXTRACT: note_on channel=9 note=36 velocity=126 time=0
EXTRACT: note_on channel=9 note=38 velocity=117 time=0
EXTRACT: note_on channel=9 note=42 velocity=116 time=0
EXTRACT: note_on channel=9 note=70 velocity=107 time=0
EXTRACT: note_on channel=13 note=77 velocity=68 time=0
EXTRACT: note_off channel=9 note=39 velocity=65 time=0.017
EXTRACT: note_off channel=9 note=70 velocity=64 time=0.007
EXTRACT: note_off channel=9 note=42 velocity=64 time=0
EXTRACT: note_off channel=9 note=38 velocity=65 time=0
EXTRACT: note_off channel=9 note=36 velocity=64 time=0
EXTRACT: note_off channel=14 note=84 velocity=64 time=0.02
EXTRACT: note_off channel=11 note=96 velocity=64 time=0
EXTRACT: note_off channel=6 note=84 velocity=64 time=0
EXTRACT: note_off channel=5 note=45 velocity=64 time=0.067
EXTRACT: note_off channel=2 note=45 velocity=65 time=0
EXTRACT: note_on channel=2 note=45 velocity=75 time=0.009000000000000001
EXTRACT: note_on channel=5 note=45 velocity=62 time=0
EXTRACT: note_off channel=14 note=88 velocity=65 time=0.044
EXTRACT: note_off channel=11 note=100 velocity=65 time=0
EXTRACT: note_off channel=6 note=88 velocity=65 time=0
EXTRACT: note_on channel=12 note=76 velocity=127 time=0.033
EXTRACT: pitchwheel channel=3 pitch=-2566 time=0.006
EXTRACT: note_off channel=1 note=33 velocity=65 time=0.001
EXTRACT: note_on channel=12 note=84 velocity=126 time=0.003
EXTRACT: pitchwheel channel=3 pitch=-5048 time=0.011
EXTRACT: pitchwheel channel=3 pitch=-8186 time=0.013000000000000001
EXTRACT: note_off channel=5 note=45 velocity=64 time=0
EXTRACT: note_off channel=2 note=45 velocity=64 time=0
EXTRACT: note_on channel=6 note=88 velocity=83 time=0.002
EXTRACT: note_on channel=11 note=100 velocity=86 time=0
EXTRACT: note_on channel=14 note=88 velocity=87 time=0
EXTRACT: note_off channel=4 note=62 velocity=64 time=0.001
EXTRACT: note_on channel=8 note=60 velocity=100 time=0.003
EXTRACT: note_on channel=8 note=64 velocity=105 time=0
EXTRACT: note_on channel=1 note=43 velocity=122 time=0.003
EXTRACT: note_on channel=2 note=55 velocity=124 time=0
EXTRACT: note_on channel=4 note=60 velocity=1 time=0
EXTRACT: note_on channel=5 note=43 velocity=113 time=0
EXTRACT: note_on channel=9 note=42 velocity=117 time=0
EXTRACT: note_on channel=9 note=70 velocity=106 time=0
EXTRACT: note_off channel=9 note=70 velocity=65 time=0.024
EXTRACT: note_off channel=9 note=42 velocity=65 time=0
EXTRACT: note_off channel=14 note=88 velocity=65 time=0
EXTRACT: note_off channel=11 note=100 velocity=65 time=0
EXTRACT: note_off channel=6 note=88 velocity=64 time=0
EXTRACT: note_on channel=6 note=84 velocity=82 time=0.019
EXTRACT: note_on channel=11 note=96 velocity=87 time=0
EXTRACT: note_on channel=14 note=84 velocity=86 time=0
EXTRACT: note_off channel=8 note=64 velocity=65 time=0.018000000000000002
EXTRACT: note_off channel=8 note=60 velocity=65 time=0
EXTRACT: note_on channel=6 note=81 velocity=77 time=0.038
EXTRACT: note_on channel=11 note=93 velocity=82 time=0
EXTRACT: note_on channel=14 note=81 velocity=82 time=0
EXTRACT: note_off channel=14 note=84 velocity=64 time=0.005
EXTRACT: note_off channel=11 note=96 velocity=64 time=0
EXTRACT: note_off channel=6 note=84 velocity=64 time=0
EXTRACT: note_off channel=5 note=43 velocity=65 time=0.007
EXTRACT: note_off channel=2 note=55 velocity=65 time=0
EXTRACT: note_off channel=1 note=43 velocity=64 time=0.003
EXTRACT: note_on channel=8 note=60 velocity=96 time=0.003
EXTRACT: note_on channel=8 note=64 velocity=103 time=0
EXTRACT: note_on channel=1 note=41 velocity=123 time=0.003
EXTRACT: note_on channel=2 note=53 velocity=124 time=0
EXTRACT: note_on channel=5 note=41 velocity=112 time=0
EXTRACT: note_on channel=9 note=44 velocity=99 time=0
EXTRACT: note_on channel=9 note=70 velocity=87 time=0
EXTRACT: note_off channel=9 note=70 velocity=64 time=0.024
EXTRACT: note_off channel=9 note=44 velocity=65 time=0
EXTRACT: note_off channel=14 note=81 velocity=64 time=0.02
EXTRACT: note_off channel=11 note=93 velocity=64 time=0
EXTRACT: note_off channel=6 note=81 velocity=65 time=0
EXTRACT: note_off channel=3 note=79 velocity=64 time=0.01
EXTRACT: note_off channel=8 note=64 velocity=64 time=0.012
EXTRACT: note_off channel=8 note=60 velocity=65 time=0
EXTRACT: note_on channel=6 note=77 velocity=79 time=0.001
EXTRACT: note_on channel=11 note=89 velocity=85 time=0
EXTRACT: note_on channel=14 note=77 velocity=85 time=0
EXTRACT: control_change channel=13 control=6 value=60 time=0.013000000000000001
EXTRACT: note_off channel=10 note=72 velocity=64 time=0.001
EXTRACT: note_off channel=10 note=69 velocity=65 time=0.005
EXTRACT: pitchwheel channel=3 pitch=0 time=0.013000000000000001
EXTRACT: note_off channel=12 note=76 velocity=65 time=0.007
EXTRACT: note_off channel=5 note=41 velocity=65 time=0.005
EXTRACT: note_off channel=2 note=53 velocity=64 time=0
EXTRACT: note_off channel=1 note=41 velocity=64 time=0.003
EXTRACT: note_off channel=4 note=60 velocity=65 time=0
EXTRACT: note_off channel=13 note=72 velocity=65 time=0
EXTRACT: note_off channel=13 note=69 velocity=65 time=0
EXTRACT: note_off channel=12 note=84 velocity=64 time=0.002
EXTRACT: note_on channel=1 note=26 velocity=123 time=0.004
EXTRACT: note_on channel=2 note=38 velocity=125 time=0
EXTRACT: note_on channel=4 note=62 velocity=1 time=0
EXTRACT: note_on channel=5 note=38 velocity=113 time=0
EXTRACT: note_on channel=9 note=36 velocity=126 time=0
EXTRACT: note_on channel=9 note=42 velocity=117 time=0
EXTRACT: note_on channel=9 note=70 velocity=107 time=0
EXTRACT: note_on channel=13 note=62 velocity=56 time=0
EXTRACT: note_on channel=13 note=65 velocity=53 time=0
EXTRACT: note_on channel=13 note=74 velocity=46 time=0.002
EXTRACT: note_on channel=10 note=65 velocity=95 time=0.003
EXTRACT: note_on channel=10 note=69 velocity=100 time=0
EXTRACT: note_on channel=13 note=69 velocity=63 time=0
EXTRACT: note_on channel=3 note=79 velocity=117 time=0
EXTRACT: note_on channel=6 note=74 velocity=76 time=0
EXTRACT: note_on channel=11 note=86 velocity=85 time=0
EXTRACT: note_on channel=14 note=74 velocity=84 time=0
EXTRACT: note_off channel=14 note=77 velocity=65 time=0.006
EXTRACT: note_off channel=11 note=89 velocity=65 time=0
EXTRACT: note_off channel=6 note=77 velocity=65 time=0
EXTRACT: note_off channel=9 note=70 velocity=64 time=0.01
EXTRACT: note_off channel=9 note=42 velocity=64 time=0
EXTRACT: note_off channel=9 note=36 velocity=65 time=0
EXTRACT: note_off channel=13 note=77 velocity=64 time=0.005
EXTRACT: note_off channel=5 note=38 velocity=64 time=0.082
EXTRACT: note_off channel=2 note=38 velocity=64 time=0
EXTRACT: note_on channel=2 note=38 velocity=75 time=0.009000000000000001
EXTRACT: note_on channel=5 note=38 velocity=63 time=0
EXTRACT: note_off channel=3 note=79 velocity=65 time=0.069
EXTRACT: note_off channel=1 note=26 velocity=65 time=0.015
EXTRACT: note_off channel=5 note=38 velocity=64 time=0.027
EXTRACT: note_off channel=2 note=38 velocity=65 time=0
EXTRACT: note_off channel=4 note=62 velocity=64 time=0.003
EXTRACT: note_on channel=8 note=62 velocity=95 time=0.003
EXTRACT: note_on channel=8 note=65 velocity=100 time=0
EXTRACT: note_on channel=1 note=38 velocity=122 time=0.003
EXTRACT: note_on channel=2 note=50 velocity=124 time=0
EXTRACT: note_on channel=4 note=60 velocity=1 time=0
EXTRACT: note_on channel=5 note=38 velocity=112 time=0
EXTRACT: note_on channel=9 note=46 velocity=104 time=0
EXTRACT: note_on channel=9 note=70 velocity=106 time=0
EXTRACT: note_on channel=3 note=77 velocity=116 time=0
EXTRACT: note_off channel=9 note=70 velocity=65 time=0.006
EXTRACT: note_off channel=9 note=46 velocity=64 time=0
EXTRACT: note_off channel=8 note=65 velocity=64 time=0.033
EXTRACT: note_off channel=8 note=62 velocity=64 time=0
EXTRACT: note_off channel=5 note=38 velocity=65 time=0.054
EXTRACT: note_off channel=2 note=50 velocity=65 time=0
EXTRACT: note_off channel=1 note=38 velocity=65 time=0.003
EXTRACT: note_on channel=8 note=62 velocity=73 time=0.003
EXTRACT: note_on channel=8 note=65 velocity=78 time=0
EXTRACT: note_on channel=2 note=50 velocity=124 time=0.003
EXTRACT: note_on channel=5 note=38 velocity=113 time=0
EXTRACT: note_on channel=9 note=70 velocity=87 time=0
EXTRACT: note_off channel=9 note=70 velocity=64 time=0.024
EXTRACT: note_off channel=8 note=65 velocity=65 time=0.04
EXTRACT: note_off channel=8 note=62 velocity=65 time=0
EXTRACT: note_off channel=5 note=38 velocity=64 time=0.047
EXTRACT: note_off channel=2 note=50 velocity=64 time=0
EXTRACT: note_on channel=9 note=39 velocity=119 time=0.001
EXTRACT: note_on channel=1 note=26 velocity=122 time=0.008
EXTRACT: note_on channel=2 note=38 velocity=125 time=0
EXTRACT: note_on channel=5 note=38 velocity=112 time=0
EXTRACT: note_on channel=9 note=36 velocity=127 time=0
EXTRACT: note_on channel=9 note=38 velocity=116 time=0
EXTRACT: note_on channel=9 note=42 velocity=116 time=0
EXTRACT: note_on channel=9 note=70 velocity=106 time=0
EXTRACT: note_off channel=9 note=39 velocity=65 time=0.017
EXTRACT: note_off channel=9 note=70 velocity=65 time=0.007
EXTRACT: note_off channel=9 note=42 velocity=64 time=0
EXTRACT: note_off channel=9 note=38 velocity=64 time=0
EXTRACT: note_off channel=9 note=36 velocity=65 time=0
EXTRACT: note_off channel=5 note=38 velocity=65 time=0.08700000000000001
EXTRACT: note_off channel=2 note=38 velocity=64 time=0
EXTRACT: note_on channel=2 note=38 velocity=74 time=0.009000000000000001
EXTRACT: note_on channel=5 note=38 velocity=62 time=0
EXTRACT: note_off channel=3 note=77 velocity=64 time=0.034
EXTRACT: note_off channel=1 note=26 velocity=64 time=0.05
EXTRACT: note_off channel=5 note=38 velocity=65 time=0.027
EXTRACT: note_off channel=2 note=38 velocity=65 time=0
EXTRACT: note_off channel=4 note=60 velocity=65 time=0.003
EXTRACT: note_on channel=8 note=62 velocity=96 time=0.003
EXTRACT: note_on channel=8 note=65 velocity=103 time=0
EXTRACT: note_on channel=1 note=38 velocity=123 time=0.003
EXTRACT: note_on channel=2 note=50 velocity=125 time=0
EXTRACT: note_on channel=4 note=60 velocity=1 time=0
EXTRACT: note_on channel=5 note=38 velocity=113 time=0
EXTRACT: note_on channel=9 note=42 velocity=115 time=0
EXTRACT: note_on channel=9 note=70 velocity=106 time=0
EXTRACT: note_on channel=3 note=77 velocity=117 time=0
EXTRACT: note_off channel=9 note=70 velocity=64 time=0.011
EXTRACT: note_off channel=9 note=42 velocity=65 time=0
EXTRACT: note_off channel=8 note=65 velocity=64 time=0.029
EXTRACT: note_off channel=8 note=62 velocity=64 time=0
EXTRACT: note_off channel=5 note=38 velocity=64 time=0.058
EXTRACT: note_off channel=2 note=50 velocity=65 time=0
EXTRACT: note_off channel=1 note=38 velocity=64 time=0.003
EXTRACT: note_on channel=8 note=62 velocity=89 time=0.003
EXTRACT: note_on channel=8 note=65 velocity=92 time=0
EXTRACT: note_on channel=2 note=50 velocity=125 time=0.003
EXTRACT: note_on channel=5 note=38 velocity=113 time=0
EXTRACT: note_on channel=9 note=44 velocity=98 time=0
EXTRACT: note_on channel=9 note=70 velocity=87 time=0
EXTRACT: note_off channel=9 note=70 velocity=65 time=0.024
EXTRACT: note_off channel=9 note=44 velocity=64 time=0
EXTRACT: note_off channel=8 note=65 velocity=65 time=0.032
EXTRACT: note_off channel=8 note=62 velocity=65 time=0
EXTRACT: note_off channel=3 note=77 velocity=65 time=0.018000000000000002
EXTRACT: note_off channel=5 note=38 velocity=65 time=0.037
EXTRACT: note_off channel=2 note=50 velocity=64 time=0
EXTRACT: note_off channel=4 note=60 velocity=65 time=0
EXTRACT: note_off channel=4 note=57 velocity=64 time=0.003
EXTRACT: note_on channel=1 note=26 velocity=123 time=0.006
EXTRACT: note_on channel=2 note=38 velocity=124 time=0
EXTRACT: note_on channel=4 note=55 velocity=1 time=0
EXTRACT: note_on channel=5 note=38 velocity=112 time=0
EXTRACT: note_on channel=9 note=36 velocity=127 time=0
EXTRACT: note_on channel=9 note=42 velocity=118 time=0
EXTRACT: note_on channel=9 note=70 velocity=107 time=0
EXTRACT: note_on channel=3 note=72 velocity=117 time=0
EXTRACT: note_off channel=9 note=70 velocity=65 time=0.012
EXTRACT: note_off channel=9 note=42 velocity=64 time=0
EXTRACT: note_off channel=9 note=36 velocity=64 time=0
EXTRACT: note_off channel=5 note=38 velocity=64 time=0.039
EXTRACT: note_off channel=2 note=38 velocity=64 time=0
EXTRACT: note_on channel=2 note=38 velocity=75 time=0.009000000000000001
EXTRACT: note_on channel=5 note=38 velocity=62 time=0
EXTRACT: note_off channel=14 note=74 velocity=65 time=0.074
EXTRACT: note_off channel=11 note=86 velocity=65 time=0
EXTRACT: note_off channel=6 note=74 velocity=64 time=0
EXTRACT: note_off channel=1 note=26 velocity=65 time=0.01
EXTRACT: note_off channel=5 note=38 velocity=64 time=0.027
EXTRACT: note_off channel=2 note=38 velocity=65 time=0
EXTRACT: note_off channel=4 note=55 velocity=65 time=0
EXTRACT: pitchwheel channel=3 pitch=1737 time=0.004
EXTRACT: note_on channel=8 note=62 velocity=96 time=0.002
EXTRACT: note_on channel=8 note=65 velocity=103 time=0
EXTRACT: note_on channel=1 note=38 velocity=122 time=0.003
EXTRACT: note_on channel=2 note=50 velocity=124 time=0
EXTRACT: note_on channel=4 note=57 velocity=1 time=0
EXTRACT: note_on channel=5 note=38 velocity=113 time=0
EXTRACT: note_on channel=9 note=46 velocity=107 time=0
EXTRACT: note_on channel=9 note=70 velocity=106 time=0
EXTRACT: pitchwheel channel=3 pitch=6536 time=0.01
EXTRACT: note_on channel=6 note=74 velocity=67 time=0.011
EXTRACT: note_on channel=11 note=86 velocity=72 time=0
EXTRACT: note_on channel=14 note=74 velocity=73 time=0
EXTRACT: pitchwheel channel=3 pitch=8063 time=0.002
EXTRACT: note_off channel=9 note=70 velocity=65 time=0.001
EXTRACT: note_off channel=9 note=46 velocity=65 time=0
EXTRACT: note_off channel=8 note=65 velocity=64 time=0.032
EXTRACT: note_off channel=8 note=62 velocity=64 time=0
EXTRACT: note_on channel=6 note=77 velocity=82 time=0.04
EXTRACT: note_on channel=11 note=89 velocity=75 time=0
EXTRACT: note_on channel=14 note=77 velocity=75 time=0
EXTRACT: note_off channel=5 note=38 velocity=65 time=0.015
EXTRACT: note_off channel=2 note=50 velocity=64 time=0
EXTRACT: note_off channel=14 note=74 velocity=64 time=0.003
EXTRACT: note_off channel=11 note=86 velocity=64 time=0
EXTRACT: note_off channel=6 note=74 velocity=64 time=0
EXTRACT: note_off channel=1 note=38 velocity=64 time=0
EXTRACT: note_on channel=8 note=62 velocity=95 time=0.003
EXTRACT: note_on channel=8 note=65 velocity=100 time=0
EXTRACT: note_on channel=2 note=50 velocity=124 time=0.003
EXTRACT: note_on channel=5 note=38 velocity=113 time=0
EXTRACT: note_on channel=9 note=70 velocity=86 time=0
EXTRACT: note_off channel=9 note=70 velocity=64 time=0.024
EXTRACT: note_on channel=6 note=81 velocity=82 time=0.028
EXTRACT: note_on channel=11 note=93 velocity=90 time=0
EXTRACT: note_on channel=14 note=81 velocity=90 time=0
EXTRACT: note_off channel=8 note=65 velocity=65 time=0.001
EXTRACT: note_off channel=8 note=62 velocity=64 time=0
EXTRACT: note_off channel=14 note=77 velocity=64 time=0.021
EXTRACT: note_off channel=11 note=89 velocity=64 time=0
EXTRACT: note_off channel=6 note=77 velocity=65 time=0
EXTRACT: control_change channel=9 control=91 value=30 time=0.016
EXTRACT: note_off channel=5 note=38 velocity=65 time=0.021
EXTRACT: note_off channel=2 note=50 velocity=65 time=0
EXTRACT: note_on channel=9 note=39 velocity=119 time=0.001
EXTRACT: note_on channel=1 note=26 velocity=122 time=0.008
EXTRACT: note_on channel=2 note=38 velocity=125 time=0
EXTRACT: note_on channel=5 note=38 velocity=112 time=0
EXTRACT: note_on channel=9 note=36 velocity=126 time=0
EXTRACT: note_on channel=9 note=38 velocity=116 time=0
EXTRACT: note_on channel=9 note=42 velocity=122 time=0
EXTRACT: note_on channel=9 note=70 velocity=107 time=0
EXTRACT: note_on channel=6 note=86 velocity=85 time=0.001
EXTRACT: note_on channel=11 note=98 velocity=82 time=0
EXTRACT: note_on channel=14 note=86 velocity=83 time=0
EXTRACT: note_off channel=3 note=72 velocity=65 time=0.013000000000000001
EXTRACT: note_off channel=9 note=39 velocity=64 time=0.003
EXTRACT: note_off channel=9 note=70 velocity=65 time=0.007
EXTRACT: note_off channel=9 note=42 velocity=65 time=0
EXTRACT: note_off channel=9 note=38 velocity=64 time=0
EXTRACT: note_off channel=9 note=36 velocity=64 time=0
EXTRACT: note_off channel=14 note=81 velocity=65 time=0
EXTRACT: note_off channel=11 note=93 velocity=65 time=0
EXTRACT: note_off channel=6 note=81 velocity=65 time=0
EXTRACT: note_on channel=12 note=70 velocity=106 time=0.049
EXTRACT: note_off channel=5 note=38 velocity=64 time=0.038
EXTRACT: note_off channel=2 note=38 velocity=65 time=0
EXTRACT: note_on channel=2 note=38 velocity=75 time=0.009000000000000001
EXTRACT: note_on channel=5 note=38 velocity=62 time=0
EXTRACT: pitchwheel channel=3 pitch=128 time=0.002
EXTRACT: note_off channel=14 note=86 velocity=64 time=0.032
EXTRACT: note_off channel=11 note=98 velocity=64 time=0
EXTRACT: note_off channel=6 note=86 velocity=64 time=0
EXTRACT: note_off channel=1 note=26 velocity=65 time=0.05
EXTRACT: note_off channel=5 note=38 velocity=64 time=0.027
EXTRACT: note_off channel=2 note=38 velocity=64 time=0
EXTRACT: note_on channel=6 note=86 velocity=83 time=0.002
EXTRACT: note_on channel=11 note=98 velocity=89 time=0
EXTRACT: note_on channel=14 note=86 velocity=88 time=0
EXTRACT: note_on channel=8 note=62 velocity=100 time=0.004
EXTRACT: note_on channel=8 note=65 velocity=105 time=0
EXTRACT: note_on channel=1 note=38 velocity=123 time=0.003
EXTRACT: note_on channel=2 note=50 velocity=124 time=0
EXTRACT: note_on channel=5 note=38 velocity=113 time=0
EXTRACT: note_on channel=9 note=42 velocity=123 time=0
EXTRACT: note_on channel=9 note=70 velocity=107 time=0
EXTRACT: note_off channel=9 note=70 velocity=65 time=0.024
EXTRACT: note_off channel=9 note=42 velocity=64 time=0
EXTRACT: note_on channel=6 note=81 velocity=80 time=0.032
EXTRACT: note_on channel=11 note=93 velocity=85 time=0
EXTRACT: note_on channel=14 note=81 velocity=84 time=0
EXTRACT: note_off channel=8 note=65 velocity=65 time=0.005
EXTRACT: note_off channel=8 note=62 velocity=65 time=0
EXTRACT: note_off channel=14 note=86 velocity=65 time=0.003
EXTRACT: note_off channel=11 note=98 velocity=65 time=0
EXTRACT: note_off channel=6 note=86 velocity=64 time=0
EXTRACT: note_off channel=5 note=38 velocity=65 time=0.047
EXTRACT: note_off channel=2 note=50 velocity=65 time=0
EXTRACT: note_off channel=1 note=38 velocity=65 time=0.003
EXTRACT: note_off channel=13 note=69 velocity=64 time=0
EXTRACT: note_on channel=8 note=62 velocity=96 time=0.003
EXTRACT: note_on channel=8 note=65 velocity=103 time=0
EXTRACT: note_on channel=2 note=50 velocity=124 time=0.003
EXTRACT: note_on channel=5 note=38 velocity=112 time=0
EXTRACT: note_on channel=9 note=44 velocity=98 time=0
EXTRACT: note_on channel=9 note=70 velocity=86 time=0
EXTRACT: note_off channel=12 note=70 velocity=64 time=0.007
EXTRACT: note_off channel=10 note=65 velocity=65 time=0.003
EXTRACT: note_off channel=10 note=69 velocity=64 time=0.006
EXTRACT: note_off channel=9 note=70 velocity=65 time=0.008
EXTRACT: note_off channel=9 note=44 velocity=65 time=0
EXTRACT: note_off channel=14 note=81 velocity=65 time=0.01
EXTRACT: note_off channel=11 note=93 velocity=65 time=0
EXTRACT: note_off channel=6 note=81 velocity=65 time=0
EXTRACT: note_on channel=6 note=77 velocity=80 time=0.003
EXTRACT: note_on channel=11 note=89 velocity=82 time=0
EXTRACT: note_on channel=14 note=77 velocity=83 time=0
EXTRACT: note_off channel=13 note=62 velocity=65 time=0.017
EXTRACT: note_off channel=8 note=65 velocity=64 time=0.012
EXTRACT: note_off channel=8 note=62 velocity=65 time=0
EXTRACT: note_off channel=13 note=74 velocity=64 time=0.008
EXTRACT: note_off channel=13 note=65 velocity=65 time=0
EXTRACT: note_off channel=14 note=77 velocity=64 time=0.03
EXTRACT: note_off channel=11 note=89 velocity=64 time=0
EXTRACT: note_off channel=6 note=77 velocity=64 time=0
EXTRACT: note_off channel=5 note=38 velocity=65 time=0.007
EXTRACT: note_off channel=2 note=50 velocity=64 time=0
EXTRACT: note_off channel=4 note=57 velocity=64 time=0
EXTRACT: note_on channel=1 note=26 velocity=122 time=0.009000000000000001
EXTRACT: note_on channel=2 note=38 velocity=125 time=0
EXTRACT: note_on channel=4 note=60 velocity=1 time=0
EXTRACT: note_on channel=4 note=64 velocity=1 time=0
EXTRACT: note_on channel=5 note=38 velocity=113 time=0
EXTRACT: note_on channel=9 note=36 velocity=126 time=0
EXTRACT: note_on channel=9 note=42 velocity=127 time=0
EXTRACT: note_on channel=9 note=70 velocity=106 time=0
EXTRACT: note_on channel=13 note=62 velocity=57 time=0
EXTRACT: note_on channel=13 note=65 velocity=52 time=0
EXTRACT: note_on channel=13 note=74 velocity=47 time=0.002
EXTRACT: note_on channel=10 note=62 velocity=98 time=0.003
EXTRACT: note_on channel=10 note=65 velocity=99 time=0
EXTRACT: note_on channel=13 note=69 velocity=62 time=0
EXTRACT: note_on channel=6 note=74 velocity=73 time=0.002
EXTRACT: note_on channel=11 note=86 velocity=78 time=0
EXTRACT: note_on channel=14 note=74 velocity=79 time=0
EXTRACT: note_on channel=3 note=79 velocity=116 time=0
EXTRACT: note_off channel=9 note=70 velocity=64 time=0.007
EXTRACT: note_off channel=9 note=42 velocity=65 time=0
EXTRACT: note_off channel=9 note=36 velocity=64 time=0
EXTRACT: note_off channel=5 note=38 velocity=64 time=0.08700000000000001
EXTRACT: note_off channel=2 note=38 velocity=64 time=0
EXTRACT: note_on channel=2 note=38 velocity=75 time=0.009000000000000001
EXTRACT: note_on channel=5 note=38 velocity=73 time=0
EXTRACT: note_off channel=1 note=26 velocity=64 time=0.084
EXTRACT: note_off channel=5 note=38 velocity=64 time=0.027
EXTRACT: note_off channel=2 note=38 velocity=65 time=0
EXTRACT: note_off channel=4 note=64 velocity=64 time=0
EXTRACT: note_off channel=4 note=60 velocity=65 time=0
EXTRACT: note_on channel=8 note=62 velocity=95 time=0.006
EXTRACT: note_on channel=8 note=65 velocity=100 time=0
EXTRACT: note_on channel=1 note=38 velocity=123 time=0.003
EXTRACT: note_on channel=2 note=50 velocity=124 time=0
EXTRACT: note_on channel=4 note=62 velocity=1 time=0
EXTRACT: note_on channel=4 note=65 velocity=1 time=0
EXTRACT: note_on channel=5 note=38 velocity=112 time=0
EXTRACT: note_on channel=9 note=46 velocity=113 time=0
EXTRACT: note_on channel=9 note=70 velocity=107 time=0
EXTRACT: note_on channel=3 note=81 velocity=117 time=0
EXTRACT: note_off channel=3 note=79 velocity=64 time=0.007
EXTRACT: note_off channel=9 note=70 velocity=64 time=0.014
EXTRACT: note_off channel=9 note=46 velocity=65 time=0
EXTRACT: note_off channel=8 note=65 velocity=64 time=0.033
EXTRACT: note_off channel=8 note=62 velocity=64 time=0
EXTRACT: note_off channel=5 note=38 velocity=65 time=0.054
EXTRACT: note_off channel=2 note=50 velocity=65 time=0
EXTRACT: note_on channel=8 note=62 velocity=73 time=0.006
EXTRACT: note_on channel=8 note=65 velocity=78 time=0
EXTRACT: note_on channel=2 note=50 velocity=124 time=0.003
EXTRACT: note_on channel=5 note=38 velocity=113 time=0
EXTRACT: note_on channel=9 note=70 velocity=86 time=0
EXTRACT: note_off channel=9 note=70 velocity=65 time=0.024
EXTRACT: note_off channel=8 note=65 velocity=65 time=0.04
EXTRACT: note_off channel=8 note=62 velocity=65 time=0
EXTRACT: note_off channel=1 note=38 velocity=65 time=0.035
EXTRACT: note_off channel=5 note=38 velocity=64 time=0.012
EXTRACT: note_off channel=2 note=50 velocity=64 time=0
EXTRACT: note_on channel=9 note=39 velocity=118 time=0.001
EXTRACT: note_on channel=1 note=26 velocity=123 time=0.008
EXTRACT: note_on channel=2 note=38 velocity=125 time=0
EXTRACT: note_on channel=4 note=60 velocity=1 time=0
EXTRACT: note_on channel=4 note=64 velocity=1 time=0
EXTRACT: note_on channel=5 note=38 velocity=112 time=0
EXTRACT: note_on channel=9 note=36 velocity=127 time=0
EXTRACT: note_on channel=9 note=38 velocity=117 time=0
EXTRACT: note_on channel=9 note=42 velocity=118 time=0
EXTRACT: note_on channel=9 note=70 velocity=107 time=0
EXTRACT: note_off channel=4 note=65 velocity=65 time=0.006
EXTRACT: note_off channel=4 note=62 velocity=64 time=0
EXTRACT: note_off channel=3 note=81 velocity=65 time=0.003
EXTRACT: note_off channel=9 note=39 velocity=64 time=0.008
EXTRACT: note_off channel=9 note=70 velocity=64 time=0.007
EXTRACT: note_off channel=9 note=42 velocity=65 time=0
EXTRACT: note_off channel=9 note=38 velocity=65 time=0
EXTRACT: note_off channel=9 note=36 velocity=64 time=0
EXTRACT: note_on channel=3 note=79 velocity=116 time=0
EXTRACT: note_off channel=5 note=38 velocity=65 time=0.083
EXTRACT: note_off channel=2 note=38 velocity=64 time=0
EXTRACT: note_on channel=2 note=38 velocity=74 time=0.009000000000000001
EXTRACT: note_on channel=5 note=38 velocity=72 time=0
EXTRACT: note_off channel=1 note=26 velocity=64 time=0.069
EXTRACT: note_off channel=3 note=79 velocity=64 time=0.038
EXTRACT: note_off channel=5 note=38 velocity=65 time=0.004
EXTRACT: note_off channel=2 note=38 velocity=65 time=0
EXTRACT: note_off channel=4 note=64 velocity=64 time=0
EXTRACT: note_off channel=4 note=60 velocity=65 time=0
EXTRACT: note_on channel=8 note=62 velocity=96 time=0.006
EXTRACT: note_on channel=8 note=65 velocity=103 time=0
EXTRACT: note_on channel=1 note=38 velocity=122 time=0.003
EXTRACT: note_on channel=2 note=50 velocity=125 time=0
EXTRACT: note_on channel=4 note=62 velocity=1 time=0
EXTRACT: note_on channel=4 note=65 velocity=1 time=0
EXTRACT: note_on channel=5 note=38 velocity=113 time=0
EXTRACT: note_on channel=9 note=42 velocity=116 time=0
EXTRACT: note_on channel=9 note=70 velocity=107 time=0
EXTRACT: note_on channel=3 note=81 velocity=116 time=0
EXTRACT: note_off channel=9 note=70 velocity=64 time=0.016
EXTRACT: note_off channel=9 note=42 velocity=65 time=0
EXTRACT: note_off channel=8 note=65 velocity=64 time=0.029
EXTRACT: note_off channel=8 note=62 velocity=64 time=0
EXTRACT: note_off channel=5 note=38 velocity=64 time=0.058
EXTRACT: note_off channel=2 note=50 velocity=65 time=0
EXTRACT: note_on channel=8 note=62 velocity=89 time=0.006
EXTRACT: note_on channel=8 note=65 velocity=92 time=0
EXTRACT: note_on channel=2 note=50 velocity=125 time=0.003
EXTRACT: note_on channel=5 note=38 velocity=113 time=0
EXTRACT: note_on channel=9 note=44 velocity=99 time=0
EXTRACT: note_on channel=9 note=70 velocity=86 time=0
EXTRACT: control_change channel=13 control=6 value=52 time=0
EXTRACT: note_off channel=9 note=70 velocity=64 time=0.024
EXTRACT: note_off channel=9 note=44 velocity=65 time=0
EXTRACT: note_off channel=8 note=65 velocity=65 time=0.032
EXTRACT: note_off channel=8 note=62 velocity=65 time=0
EXTRACT: note_off channel=3 note=81 velocity=64 time=0
EXTRACT: note_off channel=1 note=38 velocity=64 time=0.043000000000000003
EXTRACT: pitchwheel channel=3 pitch=-8070 time=0.004
EXTRACT: note_off channel=5 note=38 velocity=65 time=0.008
EXTRACT: note_off channel=2 note=50 velocity=64 time=0
EXTRACT: note_off channel=4 note=65 velocity=65 time=0
EXTRACT: note_off channel=4 note=62 velocity=64 time=0
EXTRACT: note_on channel=1 note=26 velocity=123 time=0.009000000000000001
EXTRACT: note_on channel=2 note=38 velocity=124 time=0
EXTRACT: note_on channel=4 note=62 velocity=1 time=0
EXTRACT: note_on channel=4 note=65 velocity=1 time=0
EXTRACT: note_on channel=5 note=38 velocity=112 time=0
EXTRACT: note_on channel=9 note=36 velocity=127 time=0
EXTRACT: note_on channel=9 note=42 velocity=125 time=0
EXTRACT: note_on channel=9 note=70 velocity=107 time=0
EXTRACT: note_on channel=3 note=81 velocity=117 time=0
EXTRACT: note_off channel=9 note=70 velocity=65 time=0.021
EXTRACT: note_off channel=9 note=42 velocity=64 time=0
EXTRACT: note_off channel=9 note=36 velocity=65 time=0
EXTRACT: note_off channel=5 note=38 velocity=64 time=0.078
EXTRACT: note_off channel=2 note=38 velocity=64 time=0
EXTRACT: pitchwheel channel=3 pitch=-6150 time=0.002
EXTRACT: note_off channel=6 note=74 velocity=65 time=0.001
EXTRACT: note_on channel=2 note=38 velocity=75 time=0.006
EXTRACT: note_on channel=5 note=38 velocity=72 time=0
EXTRACT: pitchwheel channel=3 pitch=-4870 time=0.003
EXTRACT: pitchwheel channel=3 pitch=-3718 time=0.01
EXTRACT: pitchwheel channel=3 pitch=-2694 time=0.01
EXTRACT: pitchwheel channel=3 pitch=-1286 time=0.01
EXTRACT: pitchwheel channel=3 pitch=250 time=0.02
EXTRACT: note_off channel=14 note=74 velocity=65 time=0.001
EXTRACT: note_off channel=11 note=86 velocity=65 time=0
EXTRACT: note_off channel=1 note=26 velocity=65 time=0.045
EXTRACT: note_off channel=5 note=38 velocity=64 time=0.012
EXTRACT: note_off channel=2 note=38 velocity=65 time=0
EXTRACT: note_on channel=8 note=62 velocity=96 time=0.006
EXTRACT: note_on channel=8 note=65 velocity=103 time=0
EXTRACT: note_on channel=1 note=38 velocity=122 time=0.003
EXTRACT: note_on channel=2 note=50 velocity=124 time=0
EXTRACT: note_on channel=5 note=38 velocity=113 time=0
EXTRACT: note_on channel=9 note=46 velocity=110 time=0
EXTRACT: note_on channel=9 note=70 velocity=106 time=0
EXTRACT: note_on channel=6 note=74 velocity=73 time=0.001
EXTRACT: note_on channel=11 note=86 velocity=77 time=0
EXTRACT: note_on channel=14 note=74 velocity=76 time=0
EXTRACT: note_off channel=9 note=70 velocity=64 time=0.023
EXTRACT: note_off channel=9 note=46 velocity=64 time=0
EXTRACT: note_off channel=8 note=65 velocity=64 time=0.032
EXTRACT: note_off channel=8 note=62 velocity=64 time=0
EXTRACT: note_on channel=6 note=77 velocity=82 time=0.02
EXTRACT: note_on channel=11 note=89 velocity=89 time=0
EXTRACT: note_on channel=14 note=77 velocity=88 time=0
EXTRACT: note_off channel=14 note=74 velocity=64 time=0.018000000000000002
EXTRACT: note_off channel=11 note=86 velocity=64 time=0
EXTRACT: note_off channel=6 note=74 velocity=65 time=0
EXTRACT: note_off channel=5 note=38 velocity=65 time=0.017
EXTRACT: note_off channel=2 note=50 velocity=64 time=0
EXTRACT: note_on channel=8 note=62 velocity=95 time=0.006
EXTRACT: note_on channel=8 note=65 velocity=100 time=0
EXTRACT: note_on channel=2 note=50 velocity=124 time=0.003
EXTRACT: note_on channel=5 note=38 velocity=113 time=0
EXTRACT: note_on channel=9 note=70 velocity=86 time=0
EXTRACT: note_off channel=9 note=70 velocity=65 time=0.024
EXTRACT: note_on channel=6 note=81 velocity=62 time=0.008
EXTRACT: note_on channel=11 note=93 velocity=78 time=0
EXTRACT: note_on channel=14 note=81 velocity=79 time=0
EXTRACT: note_off channel=3 note=81 velocity=65 time=0.017
EXTRACT: note_off channel=8 note=65 velocity=65 time=0.004
EXTRACT: note_off channel=8 note=62 velocity=64 time=0
EXTRACT: note_off channel=14 note=77 velocity=64 time=0.001
EXTRACT: note_off channel=11 note=89 velocity=64 time=0
EXTRACT: note_off channel=6 note=77 velocity=64 time=0
EXTRACT: note_off channel=1 note=38 velocity=65 time=0.03
EXTRACT: note_on channel=6 note=86 velocity=73 time=0.017
EXTRACT: note_on channel=11 note=98 velocity=82 time=0
EXTRACT: note_on channel=14 note=86 velocity=83 time=0
EXTRACT: note_on channel=3 note=79 velocity=117 time=0
EXTRACT: note_off channel=5 note=38 velocity=65 time=0
EXTRACT: note_off channel=2 note=50 velocity=65 time=0
EXTRACT: note_off channel=4 note=65 velocity=64 time=0
EXTRACT: note_off channel=4 note=62 velocity=65 time=0
EXTRACT: note_on channel=9 note=39 velocity=119 time=0.001
EXTRACT: note_on channel=1 note=26 velocity=122 time=0.008
EXTRACT: note_on channel=2 note=38 velocity=125 time=0
EXTRACT: note_on channel=4 note=60 velocity=1 time=0
EXTRACT: note_on channel=4 note=64 velocity=1 time=0
EXTRACT: note_on channel=5 note=38 velocity=112 time=0
EXTRACT: note_on channel=9 note=36 velocity=126 time=0
EXTRACT: note_on channel=9 note=38 velocity=117 time=0
EXTRACT: note_on channel=9 note=42 velocity=99 time=0
EXTRACT: note_on channel=9 note=70 velocity=107 time=0
EXTRACT: note_off channel=14 note=81 velocity=65 time=0.004
EXTRACT: note_off channel=11 note=93 velocity=65 time=0
EXTRACT: note_off channel=6 note=81 velocity=65 time=0
EXTRACT: note_off channel=9 note=39 velocity=65 time=0.013000000000000001
EXTRACT: note_off channel=9 note=70 velocity=64 time=0.007
EXTRACT: note_off channel=9 note=42 velocity=64 time=0
EXTRACT: note_off channel=9 note=38 velocity=65 time=0
EXTRACT: note_off channel=9 note=36 velocity=65 time=0
EXTRACT: note_off channel=5 note=38 velocity=64 time=0.08700000000000001
EXTRACT: note_off channel=2 note=38 velocity=65 time=0
EXTRACT: note_on channel=2 note=38 velocity=75 time=0.009000000000000001
EXTRACT: note_on channel=5 note=38 velocity=72 time=0
EXTRACT: note_off channel=1 note=26 velocity=64 time=0.084
EXTRACT: note_off channel=3 note=79 velocity=65 time=0.002
EXTRACT: note_on channel=6 note=81 velocity=74 time=0.02
EXTRACT: note_on channel=11 note=93 velocity=77 time=0
EXTRACT: note_on channel=14 note=81 velocity=76 time=0
EXTRACT: note_on channel=3 note=77 velocity=116 time=0
EXTRACT: note_off channel=5 note=38 velocity=64 time=0.003
EXTRACT: note_off channel=2 note=38 velocity=64 time=0
EXTRACT: note_off channel=4 note=64 velocity=64 time=0
EXTRACT: note_off channel=4 note=60 velocity=65 time=0
EXTRACT: note_on channel=8 note=62 velocity=100 time=0.006
EXTRACT: note_on channel=8 note=65 velocity=105 time=0
EXTRACT: note_on channel=1 note=38 velocity=123 time=0.003
EXTRACT: note_on channel=2 note=50 velocity=124 time=0
EXTRACT: note_on channel=4 note=57 velocity=1 time=0
EXTRACT: note_on channel=4 note=62 velocity=1 time=0
EXTRACT: note_on channel=5 note=38 velocity=113 time=0
EXTRACT: note_on channel=9 note=42 velocity=114 time=0
EXTRACT: note_on channel=9 note=70 velocity=107 time=0
EXTRACT: note_off channel=14 note=86 velocity=65 time=0.004
EXTRACT: note_off channel=11 note=98 velocity=65 time=0
EXTRACT: note_off channel=6 note=86 velocity=64 time=0
EXTRACT: note_off channel=9 note=70 velocity=64 time=0.02
EXTRACT: note_off channel=9 note=42 velocity=64 time=0
EXTRACT: note_off channel=8 note=65 velocity=65 time=0.037
EXTRACT: note_off channel=8 note=62 velocity=65 time=0
EXTRACT: note_off channel=5 note=38 velocity=65 time=0.05
EXTRACT: note_off channel=2 note=50 velocity=65 time=0
EXTRACT: note_off channel=14 note=81 velocity=64 time=0.003
EXTRACT: note_off channel=11 note=93 velocity=64 time=0
EXTRACT: note_off channel=6 note=81 velocity=64 time=0
EXTRACT: note_on channel=6 note=77 velocity=73 time=0.003
EXTRACT: note_on channel=8 note=62 velocity=96 time=0
EXTRACT: note_on channel=8 note=65 velocity=103 time=0
EXTRACT: note_on channel=11 note=89 velocity=80 time=0
EXTRACT: note_on channel=14 note=77 velocity=80 time=0
EXTRACT: note_on channel=2 note=50 velocity=124 time=0.003
EXTRACT: note_on channel=5 note=38 velocity=112 time=0
EXTRACT: note_on channel=9 note=44 velocity=99 time=0
EXTRACT: note_on channel=9 note=70 velocity=86 time=0
EXTRACT: note_off channel=9 note=70 velocity=65 time=0.024
EXTRACT: note_off channel=9 note=44 velocity=64 time=0
EXTRACT: note_off channel=3 note=77 velocity=64 time=0.025
EXTRACT: note_off channel=8 note=65 velocity=64 time=0.017
EXTRACT: note_off channel=8 note=62 velocity=65 time=0
EXTRACT: note_off channel=1 note=38 velocity=64 time=0.018000000000000002
EXTRACT: note_on channel=3 note=79 velocity=116 time=0
EXTRACT: note_off channel=5 note=38 velocity=65 time=0.001
EXTRACT: note_off channel=2 note=50 velocity=64 time=0
EXTRACT: note_off channel=4 note=62 velocity=65 time=0
EXTRACT: note_off channel=4 note=57 velocity=64 time=0
EXTRACT: note_on channel=6 note=74 velocity=79 time=0.006
EXTRACT: note_on channel=11 note=86 velocity=85 time=0
EXTRACT: note_on channel=14 note=74 velocity=85 time=0
EXTRACT: note_on channel=1 note=26 velocity=123 time=0.003
EXTRACT: note_on channel=2 note=38 velocity=125 time=0
EXTRACT: note_on channel=4 note=60 velocity=1 time=0
EXTRACT: note_on channel=4 note=64 velocity=1 time=0
EXTRACT: note_on channel=5 note=38 velocity=113 time=0
EXTRACT: note_on channel=9 note=36 velocity=126 time=0
EXTRACT: note_on channel=9 note=42 velocity=122 time=0
EXTRACT: note_on channel=9 note=70 velocity=106 time=0
EXTRACT: note_off channel=14 note=77 velocity=64 time=0.014
EXTRACT: note_off channel=11 note=89 velocity=64 time=0
EXTRACT: note_off channel=6 note=77 velocity=65 time=0
EXTRACT: note_off channel=9 note=70 velocity=65 time=0.01
EXTRACT: note_off channel=9 note=42 velocity=65 time=0
EXTRACT: note_off channel=9 note=36 velocity=64 time=0
EXTRACT: control_change channel=13 control=6 value=54 time=0.056
EXTRACT: note_off channel=5 note=38 velocity=64 time=0.031
EXTRACT: note_off channel=2 note=38 velocity=64 time=0
EXTRACT: note_on channel=6 note=76 velocity=78 time=0.005
EXTRACT: note_on channel=11 note=88 velocity=85 time=0
EXTRACT: note_on channel=14 note=76 velocity=84 time=0
EXTRACT: note_off channel=10 note=62 velocity=64 time=0.003
EXTRACT: note_on channel=2 note=38 velocity=75 time=0.001
EXTRACT: note_on channel=5 note=38 velocity=73 time=0
EXTRACT: note_off channel=14 note=74 velocity=65 time=0.004
EXTRACT: note_off channel=11 note=86 velocity=65 time=0
EXTRACT: note_off channel=6 note=74 velocity=65 time=0
EXTRACT: note_off channel=3 note=79 velocity=64 time=0.07100000000000001
EXTRACT: note_off channel=1 note=26 velocity=65 time=0.009000000000000001
EXTRACT: note_off channel=5 note=38 velocity=64 time=0.027
EXTRACT: note_off channel=2 note=38 velocity=65 time=0
EXTRACT: note_off channel=4 note=64 velocity=65 time=0
EXTRACT: note_off channel=4 note=60 velocity=64 time=0
EXTRACT: note_off channel=13 note=69 velocity=65 time=0.003
EXTRACT: note_off channel=13 note=74 velocity=64 time=0
EXTRACT: note_off channel=13 note=65 velocity=65 time=0
EXTRACT: note_off channel=13 note=62 velocity=64 time=0
EXTRACT: note_on channel=8 note=65 velocity=101 time=0.003
EXTRACT: note_on channel=6 note=77 velocity=75 time=0.001
EXTRACT: note_on channel=11 note=89 velocity=92 time=0
EXTRACT: note_on channel=14 note=77 velocity=93 time=0
EXTRACT: note_off channel=10 note=65 velocity=65 time=0.001
EXTRACT: note_on channel=1 note=28 velocity=122 time=0
EXTRACT: note_on channel=2 note=52 velocity=124 time=0
EXTRACT: note_on channel=3 note=81 velocity=117 time=0
EXTRACT: note_on channel=4 note=60 velocity=1 time=0
EXTRACT: note_on channel=4 note=65 velocity=1 time=0
EXTRACT: note_on channel=5 note=40 velocity=112 time=0
EXTRACT: note_on channel=8 note=62 velocity=94 time=0
EXTRACT: note_on channel=9 note=46 velocity=105 time=0
EXTRACT: note_on channel=9 note=70 velocity=107 time=0
EXTRACT: note_on channel=13 note=64 velocity=80 time=0
EXTRACT: note_on channel=10 note=64 velocity=90 time=0.005
EXTRACT: note_on channel=10 note=67 velocity=79 time=0
EXTRACT: note_off channel=14 note=76 velocity=65 time=0
EXTRACT: note_off channel=11 note=88 velocity=65 time=0
EXTRACT: note_off channel=6 note=76 velocity=64 time=0
EXTRACT: note_on channel=13 note=67 velocity=65 time=0.007
EXTRACT: note_on channel=13 note=71 velocity=63 time=0.008
EXTRACT: note_off channel=9 note=70 velocity=65 time=0.004
EXTRACT: note_off channel=9 note=46 velocity=64 time=0
EXTRACT: note_off channel=8 note=65 velocity=64 time=0.033
EXTRACT: note_off channel=8 note=62 velocity=64 time=0.002
EXTRACT: note_off channel=5 note=40 velocity=65 time=0.052000000000000005
EXTRACT: note_off channel=2 note=52 velocity=65 time=0
EXTRACT: note_on channel=8 note=65 velocity=79 time=0.006
EXTRACT: note_on channel=2 note=52 velocity=124 time=0.003
EXTRACT: note_on channel=5 note=40 velocity=113 time=0
EXTRACT: note_on channel=8 note=62 velocity=72 time=0
EXTRACT: note_on channel=9 note=70 velocity=87 time=0
EXTRACT: note_on channel=6 note=79 velocity=74 time=0.001
EXTRACT: note_on channel=11 note=91 velocity=83 time=0
EXTRACT: note_on channel=14 note=79 velocity=83 time=0
EXTRACT: note_off channel=14 note=77 velocity=64 time=0.013000000000000001
EXTRACT: note_off channel=11 note=89 velocity=64 time=0
EXTRACT: note_off channel=6 note=77 velocity=64 time=0
EXTRACT: note_off channel=9 note=70 velocity=64 time=0.01
EXTRACT: note_off channel=8 note=65 velocity=65 time=0.04
EXTRACT: note_off channel=8 note=62 velocity=65 time=0.002
EXTRACT: note_off channel=1 note=28 velocity=65 time=0.003
EXTRACT: note_off channel=13 note=64 velocity=64 time=0.006
EXTRACT: note_on channel=6 note=81 velocity=76 time=0.022
EXTRACT: note_on channel=11 note=93 velocity=86 time=0
EXTRACT: note_on channel=14 note=81 velocity=86 time=0
EXTRACT: note_off channel=5 note=40 velocity=64 time=0.014
EXTRACT: note_off channel=2 note=52 velocity=64 time=0
EXTRACT: note_on channel=9 note=39 velocity=118 time=0.001
EXTRACT: note_off channel=13 note=71 velocity=65 time=0.002
EXTRACT: note_off channel=13 note=67 velocity=65 time=0
EXTRACT: note_off channel=10 note=67 velocity=64 time=0.005
EXTRACT: note_on channel=1 note=29 velocity=122 time=0.001
EXTRACT: note_on channel=2 note=41 velocity=125 time=0
EXTRACT: note_on channel=5 note=41 velocity=112 time=0
EXTRACT: note_on channel=9 note=36 velocity=127 time=0
EXTRACT: note_on channel=9 note=38 velocity=116 time=0
EXTRACT: note_on channel=9 note=42 velocity=111 time=0
EXTRACT: note_on channel=9 note=70 velocity=106 time=0
EXTRACT: note_on channel=13 note=65 velocity=88 time=0
EXTRACT: note_off channel=10 note=64 velocity=65 time=0.001
EXTRACT: note_off channel=14 note=79 velocity=64 time=0.001
EXTRACT: note_off channel=11 note=91 velocity=64 time=0
EXTRACT: note_off channel=6 note=79 velocity=65 time=0
EXTRACT: note_on channel=10 note=65 velocity=105 time=0.003
EXTRACT: note_on channel=10 note=69 velocity=86 time=0
EXTRACT: note_on channel=13 note=69 velocity=34 time=0.012
EXTRACT: note_on channel=13 note=72 velocity=81 time=0
EXTRACT: note_off channel=9 note=39 velocity=65 time=0
EXTRACT: note_off channel=9 note=70 velocity=65 time=0.007
EXTRACT: note_off channel=9 note=42 velocity=64 time=0
EXTRACT: note_off channel=9 note=38 velocity=64 time=0
EXTRACT: note_off channel=9 note=36 velocity=65 time=0
EXTRACT: note_off channel=3 note=81 velocity=65 time=0.05
EXTRACT: note_off channel=5 note=41 velocity=65 time=0.037
EXTRACT: note_off channel=2 note=41 velocity=64 time=0
EXTRACT: note_on channel=2 note=41 velocity=74 time=0.009000000000000001
EXTRACT: note_on channel=5 note=41 velocity=72 time=0
EXTRACT: note_off channel=1 note=29 velocity=64 time=0.084
EXTRACT: note_off channel=5 note=41 velocity=65 time=0.027
EXTRACT: note_off channel=2 note=41 velocity=65 time=0
EXTRACT: note_off channel=4 note=65 velocity=64 time=0
EXTRACT: note_off channel=4 note=60 velocity=65 time=0
EXTRACT: note_on channel=8 note=60 velocity=96 time=0.006
EXTRACT: note_on channel=8 note=65 velocity=103 time=0
EXTRACT: note_on channel=1 note=41 velocity=123 time=0.003
EXTRACT: note_on channel=2 note=53 velocity=125 time=0
EXTRACT: note_on channel=4 note=60 velocity=1 time=0
EXTRACT: note_on channel=4 note=65 velocity=1 time=0
EXTRACT: note_on channel=5 note=41 velocity=113 time=0
EXTRACT: note_on channel=9 note=42 velocity=124 time=0
EXTRACT: note_on channel=9 note=70 velocity=106 time=0
EXTRACT: note_on channel=3 note=81 velocity=117 time=0
EXTRACT: note_off channel=9 note=70 velocity=65 time=0.009000000000000001
EXTRACT: note_off channel=9 note=42 velocity=64 time=0
EXTRACT: note_off channel=8 note=65 velocity=64 time=0.029
EXTRACT: note_off channel=8 note=60 velocity=64 time=0
EXTRACT: note_off channel=5 note=41 velocity=64 time=0.058
EXTRACT: note_off channel=2 note=53 velocity=65 time=0
EXTRACT: note_on channel=8 note=60 velocity=89 time=0.006
EXTRACT: note_on channel=8 note=65 velocity=92 time=0
EXTRACT: note_on channel=2 note=53 velocity=125 time=0.003
EXTRACT: note_on channel=5 note=41 velocity=113 time=0
EXTRACT: note_on channel=9 note=44 velocity=98 time=0
EXTRACT: note_on channel=9 note=70 velocity=87 time=0
EXTRACT: note_off channel=9 note=70 velocity=64 time=0.024
EXTRACT: note_off channel=9 note=44 velocity=65 time=0
EXTRACT: note_off channel=8 note=65 velocity=65 time=0.032
EXTRACT: note_off channel=8 note=60 velocity=65 time=0
EXTRACT: note_off channel=1 note=41 velocity=64 time=0.028
EXTRACT: note_off channel=5 note=41 velocity=65 time=0.027
EXTRACT: note_off channel=2 note=53 velocity=64 time=0
EXTRACT: note_on channel=1 note=29 velocity=123 time=0.009000000000000001
EXTRACT: note_on channel=2 note=41 velocity=124 time=0
EXTRACT: note_on channel=5 note=41 velocity=112 time=0
EXTRACT: note_on channel=9 note=36 velocity=126 time=0
EXTRACT: note_on channel=9 note=42 velocity=125 time=0
EXTRACT: note_on channel=9 note=70 velocity=106 time=0
EXTRACT: note_off channel=9 note=70 velocity=64 time=0.024
EXTRACT: note_off channel=9 note=42 velocity=65 time=0
EXTRACT: note_off channel=9 note=36 velocity=65 time=0
EXTRACT: note_off channel=5 note=41 velocity=64 time=0.08700000000000001
EXTRACT: note_off channel=2 note=41 velocity=64 time=0
EXTRACT: note_on channel=2 note=41 velocity=75 time=0.009000000000000001
EXTRACT: note_on channel=5 note=41 velocity=72 time=0
EXTRACT: note_off channel=3 note=81 velocity=65 time=0.014
EXTRACT: note_off channel=14 note=81 velocity=65 time=0.06
EXTRACT: note_off channel=11 note=93 velocity=65 time=0
EXTRACT: note_off channel=6 note=81 velocity=65 time=0
EXTRACT: note_off channel=1 note=29 velocity=65 time=0.01
EXTRACT: note_off channel=5 note=41 velocity=64 time=0.027
EXTRACT: note_off channel=2 note=41 velocity=65 time=0
EXTRACT: note_off channel=4 note=65 velocity=65 time=0
EXTRACT: note_on channel=8 note=60 velocity=96 time=0.006
EXTRACT: note_on channel=8 note=65 velocity=103 time=0
EXTRACT: note_on channel=1 note=41 velocity=122 time=0.003
EXTRACT: note_on channel=2 note=53 velocity=124 time=0
EXTRACT: note_on channel=4 note=57 velocity=1 time=0
EXTRACT: note_on channel=5 note=41 velocity=113 time=0
EXTRACT: note_on channel=9 note=46 velocity=110 time=0
EXTRACT: note_on channel=9 note=70 velocity=107 time=0
EXTRACT: note_on channel=3 note=72 velocity=116 time=0
EXTRACT: note_on channel=6 note=77 velocity=75 time=0.015
EXTRACT: note_on channel=11 note=89 velocity=82 time=0
EXTRACT: note_on channel=14 note=77 velocity=83 time=0
EXTRACT: note_off channel=9 note=70 velocity=64 time=0.003
EXTRACT: note_off channel=9 note=46 velocity=65 time=0
EXTRACT: note_off channel=8 note=65 velocity=64 time=0.02
EXTRACT: note_off channel=8 note=60 velocity=64 time=0
EXTRACT: note_on channel=6 note=81 velocity=55 time=0.039
EXTRACT: note_on channel=11 note=93 velocity=77 time=0
EXTRACT: note_on channel=14 note=81 velocity=76 time=0
EXTRACT: note_off channel=5 note=41 velocity=65 time=0.016
EXTRACT: note_off channel=2 note=53 velocity=64 time=0
EXTRACT: note_on channel=8 note=60 velocity=95 time=0.006
EXTRACT: note_on channel=8 note=65 velocity=100 time=0
EXTRACT: note_on channel=2 note=53 velocity=124 time=0.003
EXTRACT: note_on channel=5 note=41 velocity=113 time=0
EXTRACT: note_on channel=9 note=70 velocity=87 time=0
EXTRACT: note_off channel=9 note=70 velocity=64 time=0.024
EXTRACT: note_off channel=14 note=77 velocity=64 time=0.01
EXTRACT: note_off channel=11 note=89 velocity=64 time=0
EXTRACT: note_off channel=6 note=77 velocity=64 time=0
EXTRACT: note_on channel=6 note=84 velocity=80 time=0.012
EXTRACT: note_on channel=11 note=96 velocity=85 time=0
EXTRACT: note_on channel=14 note=84 velocity=84 time=0
EXTRACT: note_off channel=8 note=65 velocity=65 time=0.007
EXTRACT: note_off channel=8 note=60 velocity=64 time=0
EXTRACT: note_off channel=14 note=81 velocity=65 time=0.011
EXTRACT: note_off channel=11 note=93 velocity=65 time=0
EXTRACT: note_off channel=6 note=81 velocity=64 time=0
EXTRACT: note_off channel=3 note=72 velocity=64 time=0.01
EXTRACT: note_off channel=1 note=41 velocity=64 time=0.01
EXTRACT: note_on channel=6 note=89 velocity=78 time=0.019
EXTRACT: note_on channel=11 note=101 velocity=84 time=0
EXTRACT: note_on channel=14 note=89 velocity=85 time=0
EXTRACT: note_off channel=5 note=41 velocity=65 time=0.008
EXTRACT: note_off channel=2 note=53 velocity=65 time=0
EXTRACT: note_off channel=4 note=57 velocity=64 time=0
EXTRACT: note_on channel=9 note=39 velocity=118 time=0.001
EXTRACT: note_off channel=4 note=60 velocity=64 time=0.002
EXTRACT: note_on channel=1 note=29 velocity=122 time=0.006
EXTRACT: note_on channel=2 note=41 velocity=125 time=0
EXTRACT: note_on channel=4 note=60 velocity=1 time=0
EXTRACT: note_on channel=4 note=65 velocity=1 time=0
EXTRACT: note_on channel=5 note=41 velocity=112 time=0
EXTRACT: note_on channel=9 note=36 velocity=127 time=0
EXTRACT: note_on channel=9 note=38 velocity=116 time=0
EXTRACT: note_on channel=9 note=42 velocity=113 time=0
EXTRACT: note_on channel=9 note=70 velocity=106 time=0
EXTRACT: note_on channel=3 note=81 velocity=116 time=0
EXTRACT: note_off channel=14 note=84 velocity=65 time=0.012
EXTRACT: note_off channel=11 note=96 velocity=65 time=0
EXTRACT: note_off channel=6 note=84 velocity=65 time=0
EXTRACT: note_off channel=9 note=39 velocity=64 time=0.003
EXTRACT: note_off channel=9 note=70 velocity=65 time=0.007
EXTRACT: note_off channel=9 note=42 velocity=65 time=0
EXTRACT: note_off channel=9 note=38 velocity=64 time=0
EXTRACT: note_off channel=9 note=36 velocity=64 time=0
EXTRACT: control_change channel=13 control=6 value=56 time=0.016
EXTRACT: note_off channel=5 note=41 velocity=64 time=0.07100000000000001
EXTRACT: note_off channel=2 note=41 velocity=65 time=0
EXTRACT: note_on channel=2 note=41 velocity=75 time=0.009000000000000001
EXTRACT: note_on channel=5 note=41 velocity=72 time=0
EXTRACT: note_off channel=1 note=29 velocity=65 time=0.084
EXTRACT: note_off channel=3 note=81 velocity=64 time=0.01
EXTRACT: note_off channel=14 note=89 velocity=64 time=0
EXTRACT: note_off channel=11 note=101 velocity=64 time=0
EXTRACT: note_off channel=6 note=89 velocity=64 time=0
EXTRACT: note_on channel=6 note=88 velocity=75 time=0.016
EXTRACT: note_on channel=11 note=100 velocity=80 time=0
EXTRACT: note_on channel=14 note=88 velocity=81 time=0
EXTRACT: note_off channel=5 note=41 velocity=64 time=0.001
EXTRACT: note_off channel=2 note=41 velocity=64 time=0
EXTRACT: note_off channel=4 note=65 velocity=65 time=0
EXTRACT: note_off channel=4 note=60 velocity=65 time=0
EXTRACT: note_on channel=8 note=60 velocity=100 time=0.006
EXTRACT: note_on channel=8 note=65 velocity=105 time=0
EXTRACT: note_off channel=10 note=69 velocity=65 time=0.002
EXTRACT: note_off channel=10 note=65 velocity=64 time=0
EXTRACT: note_on channel=1 note=31 velocity=123 time=0.001
EXTRACT: note_on channel=2 note=55 velocity=124 time=0
EXTRACT: note_on channel=4 note=60 velocity=1 time=0
EXTRACT: note_on channel=4 note=64 velocity=1 time=0
EXTRACT: note_on channel=5 note=43 velocity=113 time=0
EXTRACT: note_on channel=9 note=42 velocity=108 time=0
EXTRACT: note_on channel=9 note=70 velocity=107 time=0
EXTRACT: note_on channel=13 note=67 velocity=81 time=0
EXTRACT: note_on channel=13 note=71 velocity=64 time=0
EXTRACT: note_on channel=10 note=67 velocity=87 time=0.005
EXTRACT: note_on channel=10 note=71 velocity=86 time=0
EXTRACT: note_off channel=13 note=72 velocity=64 time=0.006
EXTRACT: note_off channel=13 note=69 velocity=64 time=0
EXTRACT: note_off channel=13 note=65 velocity=65 time=0
EXTRACT: note_on channel=13 note=74 velocity=62 time=0.009000000000000001
EXTRACT: note_off channel=9 note=70 velocity=65 time=0.004
EXTRACT: note_off channel=9 note=42 velocity=65 time=0
EXTRACT: note_on channel=3 note=79 velocity=117 time=0
EXTRACT: note_off channel=8 note=65 velocity=65 time=0.026000000000000002
EXTRACT: note_off channel=8 note=60 velocity=65 time=0
EXTRACT: note_off channel=5 note=43 velocity=65 time=0.046
EXTRACT: note_off channel=2 note=55 velocity=65 time=0
EXTRACT: note_on channel=8 note=60 velocity=96 time=0.006
EXTRACT: note_on channel=8 note=65 velocity=103 time=0
EXTRACT: note_on channel=2 note=55 velocity=124 time=0.003
EXTRACT: note_on channel=5 note=43 velocity=112 time=0
EXTRACT: note_on channel=9 note=44 velocity=98 time=0
EXTRACT: note_on channel=9 note=70 velocity=86 time=0
EXTRACT: note_off channel=14 note=88 velocity=65 time=0.004
EXTRACT: note_off channel=11 note=100 velocity=65 time=0
EXTRACT: note_off channel=6 note=88 velocity=65 time=0
EXTRACT: note_on channel=6 note=84 velocity=73 time=0.003
EXTRACT: note_on channel=11 note=96 velocity=79 time=0
EXTRACT: note_on channel=14 note=84 velocity=78 time=0
EXTRACT: note_off channel=9 note=70 velocity=64 time=0.017
EXTRACT: note_off channel=9 note=44 velocity=64 time=0
EXTRACT: note_off channel=8 note=65 velocity=64 time=0.042
EXTRACT: note_off channel=8 note=60 velocity=65 time=0
EXTRACT: note_off channel=1 note=31 velocity=65 time=0.018000000000000002
EXTRACT: control_change channel=9 control=91 value=20 time=0.006
EXTRACT: note_off channel=5 note=43 velocity=65 time=0.021
EXTRACT: note_off channel=2 note=55 velocity=64 time=0
EXTRACT: note_off channel=13 note=74 velocity=65 time=0.003
EXTRACT: note_off channel=13 note=71 velocity=64 time=0
EXTRACT: note_off channel=13 note=67 velocity=64 time=0
EXTRACT: note_off channel=10 note=71 velocity=65 time=0.005
EXTRACT: note_off channel=10 note=67 velocity=64 time=0
EXTRACT: note_on channel=1 note=33 velocity=122 time=0.001
EXTRACT: note_on channel=2 note=45 velocity=125 time=0
EXTRACT: note_on channel=5 note=45 velocity=113 time=0
EXTRACT: note_on channel=9 note=36 velocity=127 time=0
EXTRACT: note_on channel=9 note=42 velocity=125 time=0
EXTRACT: note_on channel=9 note=70 velocity=106 time=0
EXTRACT: note_on channel=13 note=69 velocity=57 time=0
EXTRACT: note_on channel=10 note=69 velocity=92 time=0.005
EXTRACT: note_on channel=10 note=72 velocity=103 time=0
EXTRACT: note_on channel=6 note=81 velocity=78 time=0.002
EXTRACT: note_on channel=11 note=93 velocity=85 time=0
EXTRACT: note_on channel=14 note=81 velocity=84 time=0
EXTRACT: note_on channel=13 note=76 velocity=68 time=0.002
EXTRACT: note_on channel=13 note=72 velocity=61 time=0.003
EXTRACT: note_off channel=14 note=84 velocity=64 time=0.001
EXTRACT: note_off channel=11 note=96 velocity=64 time=0
EXTRACT: note_off channel=6 note=84 velocity=65 time=0
EXTRACT: note_off channel=9 note=70 velocity=65 time=0.011
EXTRACT: note_off channel=9 note=42 velocity=64 time=0
EXTRACT: note_off channel=9 note=36 velocity=65 time=0
EXTRACT: note_off channel=5 note=45 velocity=64 time=0.08700000000000001
EXTRACT: note_off channel=2 note=45 velocity=64 time=0
EXTRACT: note_on channel=2 note=45 velocity=75 time=0.009000000000000001
EXTRACT: note_on channel=5 note=45 velocity=73 time=0
EXTRACT: note_off channel=3 note=79 velocity=65 time=0.006
EXTRACT: note_off channel=1 note=33 velocity=64 time=0.093
EXTRACT: note_off channel=5 note=45 velocity=64 time=0.012
EXTRACT: note_off channel=2 note=45 velocity=65 time=0
EXTRACT: note_on channel=8 note=60 velocity=95 time=0.006
EXTRACT: note_on channel=8 note=64 velocity=100 time=0
EXTRACT: note_on channel=1 note=45 velocity=123 time=0.003
EXTRACT: note_on channel=2 note=57 velocity=124 time=0
EXTRACT: note_on channel=5 note=45 velocity=112 time=0
EXTRACT: note_on channel=9 note=46 velocity=110 time=0
EXTRACT: note_on channel=9 note=70 velocity=107 time=0
EXTRACT: note_off channel=9 note=70 velocity=65 time=0.024
EXTRACT: note_off channel=9 note=46 velocity=64 time=0
EXTRACT: note_off channel=8 note=64 velocity=64 time=0.033
EXTRACT: note_off channel=8 note=60 velocity=64 time=0
EXTRACT: note_off channel=5 note=45 velocity=65 time=0.054
EXTRACT: note_off channel=2 note=57 velocity=65 time=0
EXTRACT: note_on channel=8 note=60 velocity=73 time=0.006
EXTRACT: note_on channel=8 note=64 velocity=78 time=0
EXTRACT: note_on channel=2 note=57 velocity=124 time=0.003
EXTRACT: note_on channel=5 note=45 velocity=113 time=0
EXTRACT: note_on channel=9 note=70 velocity=87 time=0
EXTRACT: note_off channel=9 note=70 velocity=65 time=0.024
EXTRACT: note_off channel=8 note=64 velocity=65 time=0.04
EXTRACT: note_off channel=8 note=60 velocity=65 time=0
EXTRACT: note_off channel=1 note=45 velocity=65 time=0.02
EXTRACT: note_off channel=5 note=45 velocity=64 time=0.027
EXTRACT: note_off channel=2 note=57 velocity=64 time=0
EXTRACT: note_on channel=9 note=39 velocity=119 time=0.001
EXTRACT: note_on channel=1 note=33 velocity=123 time=0.008
EXTRACT: note_on channel=2 note=45 velocity=125 time=0
EXTRACT: note_on channel=5 note=45 velocity=112 time=0
EXTRACT: note_on channel=9 note=36 velocity=126 time=0
EXTRACT: note_on channel=9 note=38 velocity=117 time=0
EXTRACT: note_on channel=9 note=42 velocity=122 time=0
EXTRACT: note_on channel=9 note=70 velocity=106 time=0
EXTRACT: control_change channel=2 control=6 value=61 time=0
EXTRACT: note_off channel=9 note=39 velocity=64 time=0.017
EXTRACT: note_off channel=9 note=70 velocity=64 time=0.007
EXTRACT: note_off channel=9 note=42 velocity=65 time=0
EXTRACT: note_off channel=9 note=38 velocity=65 time=0
EXTRACT: note_off channel=9 note=36 velocity=64 time=0
EXTRACT: note_off channel=5 note=45 velocity=65 time=0.08700000000000001
EXTRACT: note_off channel=2 note=45 velocity=64 time=0
EXTRACT: note_on channel=2 note=45 velocity=74 time=0.009000000000000001
EXTRACT: note_on channel=5 note=45 velocity=72 time=0
EXTRACT: note_off channel=1 note=33 velocity=64 time=0.099
EXTRACT: note_off channel=5 note=45 velocity=65 time=0.012
EXTRACT: note_off channel=2 note=45 velocity=65 time=0
EXTRACT: note_on channel=8 note=60 velocity=96 time=0.006
EXTRACT: note_on channel=8 note=64 velocity=103 time=0
EXTRACT: note_on channel=1 note=45 velocity=122 time=0.003
EXTRACT: note_on channel=2 note=57 velocity=125 time=0
EXTRACT: note_on channel=5 note=45 velocity=113 time=0
EXTRACT: note_on channel=9 note=42 velocity=116 time=0
EXTRACT: note_on channel=9 note=70 velocity=106 time=0
EXTRACT: note_off channel=9 note=70 velocity=64 time=0.024
EXTRACT: note_off channel=9 note=42 velocity=65 time=0
EXTRACT: note_off channel=8 note=64 velocity=64 time=0.029
EXTRACT: note_off channel=8 note=60 velocity=64 time=0
EXTRACT: control_change channel=13 control=6 value=58 time=0.027
EXTRACT: note_off channel=5 note=45 velocity=64 time=0.031
EXTRACT: note_off channel=2 note=57 velocity=65 time=0
EXTRACT: note_on channel=8 note=60 velocity=89 time=0.006
EXTRACT: note_on channel=8 note=64 velocity=92 time=0
EXTRACT: note_on channel=2 note=57 velocity=125 time=0.003
EXTRACT: note_on channel=5 note=45 velocity=113 time=0
EXTRACT: note_on channel=9 note=44 velocity=99 time=0
EXTRACT: note_on channel=9 note=70 velocity=87 time=0
EXTRACT: note_off channel=9 note=70 velocity=65 time=0.024
EXTRACT: note_off channel=9 note=44 velocity=64 time=0
EXTRACT: note_off channel=8 note=64 velocity=65 time=0.032
EXTRACT: note_off channel=8 note=60 velocity=65 time=0
EXTRACT: note_off channel=1 note=45 velocity=64 time=0.028
EXTRACT: note_off channel=5 note=45 velocity=65 time=0.027
EXTRACT: note_off channel=2 note=57 velocity=64 time=0
EXTRACT: note_on channel=1 note=33 velocity=123 time=0.009000000000000001
EXTRACT: note_on channel=2 note=45 velocity=124 time=0
EXTRACT: note_on channel=5 note=45 velocity=112 time=0
EXTRACT: note_on channel=9 note=36 velocity=127 time=0
EXTRACT: note_on channel=9 note=42 velocity=125 time=0
EXTRACT: note_on channel=9 note=70 velocity=107 time=0
EXTRACT: note_off channel=9 note=70 velocity=64 time=0.024
EXTRACT: note_off channel=9 note=42 velocity=65 time=0
EXTRACT: note_off channel=9 note=36 velocity=64 time=0
EXTRACT: note_off channel=14 note=81 velocity=64 time=0.068
EXTRACT: note_off channel=11 note=93 velocity=64 time=0
EXTRACT: note_off channel=6 note=81 velocity=64 time=0
EXTRACT: note_off channel=5 note=45 velocity=64 time=0.019
EXTRACT: note_off channel=2 note=45 velocity=64 time=0
EXTRACT: note_off channel=4 note=60 velocity=64 time=0.003
EXTRACT: note_on channel=2 note=45 velocity=75 time=0.006
EXTRACT: note_on channel=5 note=45 velocity=72 time=0
EXTRACT: note_off channel=1 note=33 velocity=65 time=0.084
EXTRACT: note_off channel=5 note=45 velocity=64 time=0.027
EXTRACT: note_off channel=2 note=45 velocity=65 time=0
EXTRACT: note_off channel=4 note=64 velocity=64 time=0
EXTRACT: note_on channel=8 note=60 velocity=96 time=0.006
EXTRACT: note_on channel=8 note=64 velocity=103 time=0
EXTRACT: note_on channel=1 note=45 velocity=122 time=0.003
EXTRACT: note_on channel=2 note=57 velocity=124 time=0
EXTRACT: note_on channel=4 note=57 velocity=1 time=0
EXTRACT: note_on channel=4 note=60 velocity=1 time=0
EXTRACT: note_on channel=5 note=45 velocity=113 time=0
EXTRACT: note_on channel=9 note=46 velocity=107 time=0
EXTRACT: note_on channel=9 note=70 velocity=106 time=0
EXTRACT: note_on channel=3 note=77 velocity=116 time=0
EXTRACT: note_off channel=9 note=70 velocity=65 time=0.02
EXTRACT: note_off channel=9 note=46 velocity=65 time=0
EXTRACT: note_on channel=6 note=76 velocity=72 time=0.014
EXTRACT: note_on channel=11 note=88 velocity=88 time=0
EXTRACT: note_on channel=14 note=76 velocity=89 time=0
EXTRACT: note_off channel=8 note=64 velocity=64 time=0.008
EXTRACT: note_off channel=8 note=60 velocity=64 time=0
EXTRACT: note_off channel=5 note=45 velocity=65 time=0.055
EXTRACT: note_off channel=2 note=57 velocity=64 time=0
EXTRACT: note_on channel=6 note=81 velocity=69 time=0.005
EXTRACT: note_on channel=11 note=93 velocity=80 time=0
EXTRACT: note_on channel=14 note=81 velocity=81 time=0
EXTRACT: note_on channel=8 note=60 velocity=95 time=0.001
EXTRACT: note_on channel=8 note=64 velocity=100 time=0
EXTRACT: note_on channel=2 note=57 velocity=124 time=0.003
EXTRACT: note_on channel=5 note=45 velocity=113 time=0
EXTRACT: note_on channel=9 note=70 velocity=86 time=0
EXTRACT: note_off channel=3 note=77 velocity=64 time=0.018000000000000002
EXTRACT: note_off channel=9 note=70 velocity=64 time=0.006
EXTRACT: note_off channel=8 note=64 velocity=65 time=0.029
EXTRACT: note_off channel=8 note=60 velocity=64 time=0
EXTRACT: note_on channel=6 note=84 velocity=68 time=0.002
EXTRACT: note_on channel=11 note=96 velocity=83 time=0
EXTRACT: note_on channel=14 note=84 velocity=82 time=0
EXTRACT: note_off channel=14 note=76 velocity=65 time=0.026000000000000002
EXTRACT: note_off channel=11 note=88 velocity=65 time=0
EXTRACT: note_off channel=6 note=76 velocity=65 time=0
EXTRACT: note_off channel=1 note=45 velocity=65 time=0.003
EXTRACT: note_off channel=5 note=45 velocity=65 time=0.027
EXTRACT: note_off channel=2 note=57 velocity=65 time=0
EXTRACT: note_on channel=9 note=39 velocity=119 time=0.001
EXTRACT: note_off channel=4 note=60 velocity=65 time=0.002
EXTRACT: note_off channel=13 note=76 velocity=65 time=0
EXTRACT: note_on channel=3 note=79 velocity=117 time=0
EXTRACT: note_on channel=6 note=88 velocity=83 time=0.003
EXTRACT: note_on channel=11 note=100 velocity=86 time=0
EXTRACT: note_on channel=14 note=88 velocity=86 time=0
EXTRACT: note_off channel=14 note=81 velocity=65 time=0
EXTRACT: note_off channel=11 note=93 velocity=65 time=0
EXTRACT: note_off channel=6 note=81 velocity=64 time=0
EXTRACT: note_on channel=1 note=33 velocity=122 time=0.002
EXTRACT: note_on channel=2 note=45 velocity=125 time=0
EXTRACT: note_on channel=4 note=62 velocity=1 time=0
EXTRACT: note_on channel=5 note=45 velocity=112 time=0
EXTRACT: note_on channel=9 note=36 velocity=126 time=0
EXTRACT: note_on channel=9 note=38 velocity=116 time=0
EXTRACT: note_on channel=9 note=42 velocity=117 time=0
EXTRACT: note_on channel=9 note=70 velocity=107 time=0
EXTRACT: note_on channel=13 note=77 velocity=69 time=0
EXTRACT: note_off channel=9 note=39 velocity=65 time=0.017
EXTRACT: note_off channel=9 note=70 velocity=64 time=0.007
EXTRACT: note_off channel=9 note=42 velocity=64 time=0
EXTRACT: note_off channel=9 note=38 velocity=65 time=0
EXTRACT: note_off channel=9 note=36 velocity=65 time=0
EXTRACT: note_off channel=14 note=84 velocity=64 time=0.02
EXTRACT: note_off channel=11 note=96 velocity=64 time=0
EXTRACT: note_off channel=6 note=84 velocity=64 time=0
EXTRACT: note_off channel=5 note=45 velocity=64 time=0.067
EXTRACT: note_off channel=2 note=45 velocity=65 time=0
EXTRACT: note_on channel=2 note=45 velocity=75 time=0.009000000000000001
EXTRACT: note_on channel=5 note=45 velocity=72 time=0
EXTRACT: note_off channel=14 note=88 velocity=64 time=0.044
EXTRACT: note_off channel=11 note=100 velocity=64 time=0
EXTRACT: note_off channel=6 note=88 velocity=65 time=0
EXTRACT: note_off channel=1 note=33 velocity=64 time=0.04
EXTRACT: note_off channel=5 note=45 velocity=64 time=0.027
EXTRACT: note_off channel=2 note=45 velocity=64 time=0
EXTRACT: note_on channel=6 note=88 velocity=83 time=0.002
EXTRACT: note_on channel=11 note=100 velocity=87 time=0
EXTRACT: note_on channel=14 note=88 velocity=87 time=0
EXTRACT: note_off channel=4 note=62 velocity=64 time=0.001
EXTRACT: note_off channel=3 note=79 velocity=65 time=0
EXTRACT: note_on channel=3 note=77 velocity=117 time=0
EXTRACT: note_on channel=8 note=60 velocity=100 time=0.002
EXTRACT: note_on channel=8 note=64 velocity=105 time=0
EXTRACT: note_on channel=1 note=43 velocity=123 time=0.003
EXTRACT: note_on channel=2 note=55 velocity=124 time=0
EXTRACT: note_on channel=4 note=60 velocity=1 time=0
EXTRACT: note_on channel=5 note=43 velocity=113 time=0
EXTRACT: note_on channel=9 note=42 velocity=116 time=0
EXTRACT: note_on channel=9 note=70 velocity=106 time=0
EXTRACT: note_off channel=9 note=70 velocity=64 time=0.024
EXTRACT: note_off channel=9 note=42 velocity=64 time=0
EXTRACT: note_off channel=14 note=88 velocity=65 time=0
EXTRACT: note_off channel=11 note=100 velocity=65 time=0
EXTRACT: note_off channel=6 note=88 velocity=65 time=0
EXTRACT: note_on channel=6 note=84 velocity=82 time=0.019
EXTRACT: note_on channel=11 note=96 velocity=87 time=0
EXTRACT: note_on channel=14 note=84 velocity=86 time=0
EXTRACT: note_off channel=8 note=64 velocity=65 time=0.018000000000000002
EXTRACT: note_off channel=8 note=60 velocity=65 time=0
EXTRACT: note_on channel=6 note=81 velocity=77 time=0.038
EXTRACT: note_on channel=11 note=93 velocity=82 time=0
EXTRACT: note_on channel=14 note=81 velocity=83 time=0
EXTRACT: note_off channel=14 note=84 velocity=65 time=0.005
EXTRACT: note_off channel=11 note=96 velocity=65 time=0
EXTRACT: note_off channel=6 note=84 velocity=64 time=0
EXTRACT: note_off channel=5 note=43 velocity=65 time=0.007
EXTRACT: note_off channel=2 note=55 velocity=65 time=0
EXTRACT: note_off channel=1 note=43 velocity=64 time=0.003
EXTRACT: note_on channel=8 note=60 velocity=96 time=0.003
EXTRACT: note_on channel=8 note=64 velocity=103 time=0
EXTRACT: note_on channel=1 note=41 velocity=123 time=0.003
EXTRACT: note_on channel=2 note=53 velocity=124 time=0
EXTRACT: note_on channel=5 note=41 velocity=112 time=0
EXTRACT: note_on channel=9 note=44 velocity=98 time=0
EXTRACT: note_on channel=9 note=70 velocity=87 time=0
EXTRACT: note_off channel=9 note=70 velocity=65 time=0.024
EXTRACT: note_off channel=9 note=44 velocity=65 time=0
EXTRACT: note_off channel=14 note=81 velocity=64 time=0.02
EXTRACT: note_off channel=11 note=93 velocity=64 time=0
EXTRACT: note_off channel=6 note=81 velocity=64 time=0
EXTRACT: note_off channel=3 note=77 velocity=65 time=0.01
EXTRACT: note_off channel=8 note=64 velocity=64 time=0.012
EXTRACT: note_off channel=8 note=60 velocity=65 time=0
EXTRACT: note_on channel=6 note=77 velocity=78 time=0.001
EXTRACT: note_on channel=11 note=89 velocity=85 time=0
EXTRACT: note_on channel=14 note=77 velocity=85 time=0
EXTRACT: control_change channel=13 control=6 value=60 time=0.013000000000000001
EXTRACT: note_off channel=10 note=72 velocity=64 time=0.001
EXTRACT: note_off channel=10 note=69 velocity=65 time=0.005
EXTRACT: note_off channel=5 note=41 velocity=65 time=0.025
EXTRACT: note_off channel=2 note=53 velocity=64 time=0
EXTRACT: note_off channel=1 note=41 velocity=65 time=0.003
EXTRACT: note_off channel=4 note=60 velocity=65 time=0
EXTRACT: note_off channel=13 note=72 velocity=64 time=0
EXTRACT: note_off channel=13 note=69 velocity=65 time=0
EXTRACT: note_on channel=1 note=26 velocity=122 time=0.006
EXTRACT: note_on channel=2 note=38 velocity=125 time=0
EXTRACT: note_on channel=4 note=62 velocity=1 time=0
EXTRACT: note_on channel=5 note=38 velocity=113 time=0
EXTRACT: note_on channel=9 note=36 velocity=126 time=0
EXTRACT: note_on channel=9 note=42 velocity=116 time=0
EXTRACT: note_on channel=9 note=70 velocity=107 time=0
EXTRACT: note_on channel=13 note=62 velocity=56 time=0
EXTRACT: note_on channel=13 note=65 velocity=53 time=0
EXTRACT: note_on channel=13 note=74 velocity=46 time=0.002
EXTRACT: note_on channel=10 note=65 velocity=95 time=0.003
EXTRACT: note_on channel=10 note=69 velocity=100 time=0
EXTRACT: note_on channel=13 note=69 velocity=62 time=0
EXTRACT: note_on channel=3 note=79 velocity=116 time=0
EXTRACT: note_on channel=6 note=74 velocity=76 time=0
EXTRACT: note_on channel=11 note=86 velocity=84 time=0
EXTRACT: note_on channel=14 note=74 velocity=84 time=0
EXTRACT: note_off channel=14 note=77 velocity=64 time=0.006
EXTRACT: note_off channel=11 note=89 velocity=64 time=0
EXTRACT: note_off channel=6 note=77 velocity=65 time=0
EXTRACT: note_off channel=9 note=70 velocity=64 time=0.01
EXTRACT: note_off channel=9 note=42 velocity=64 time=0
EXTRACT: note_off channel=9 note=36 velocity=65 time=0
EXTRACT: note_off channel=13 note=77 velocity=65 time=0.005
EXTRACT: note_off channel=5 note=38 velocity=64 time=0.082
EXTRACT: note_off channel=2 note=38 velocity=64 time=0
EXTRACT: note_on channel=2 note=38 velocity=75 time=0.009000000000000001
EXTRACT: note_on channel=5 note=38 velocity=73 time=0
EXTRACT: note_off channel=3 note=79 velocity=64 time=0.054
EXTRACT: note_off channel=1 note=26 velocity=65 time=0.03
EXTRACT: note_off channel=5 note=38 velocity=64 time=0.027
EXTRACT: note_off channel=2 note=38 velocity=65 time=0
EXTRACT: note_off channel=4 note=62 velocity=65 time=0.003
EXTRACT: note_on channel=8 note=62 velocity=95 time=0.003
EXTRACT: note_on channel=8 note=65 velocity=100 time=0
EXTRACT: note_on channel=1 note=38 velocity=122 time=0.003
EXTRACT: note_on channel=2 note=50 velocity=124 time=0
EXTRACT: note_on channel=4 note=60 velocity=1 time=0
EXTRACT: note_on channel=5 note=38 velocity=112 time=0
EXTRACT: note_on channel=9 note=46 velocity=105 time=0
EXTRACT: note_on channel=9 note=70 velocity=106 time=0
EXTRACT: note_on channel=3 note=77 velocity=117 time=0
EXTRACT: note_off channel=9 note=70 velocity=64 time=0.006
EXTRACT: note_off channel=9 note=46 velocity=65 time=0
EXTRACT: note_off channel=8 note=65 velocity=64 time=0.033
EXTRACT: note_off channel=8 note=62 velocity=64 time=0
EXTRACT: note_off channel=5 note=38 velocity=65 time=0.054
EXTRACT: note_off channel=2 note=50 velocity=65 time=0
EXTRACT: note_off channel=1 note=38 velocity=64 time=0.003
EXTRACT: note_on channel=8 note=62 velocity=73 time=0.003
EXTRACT: note_on channel=8 note=65 velocity=78 time=0
EXTRACT: note_on channel=2 note=50 velocity=124 time=0.003
EXTRACT: note_on channel=5 note=38 velocity=113 time=0
EXTRACT: note_on channel=9 note=70 velocity=87 time=0
EXTRACT: note_off channel=9 note=70 velocity=65 time=0.024
EXTRACT: note_off channel=3 note=77 velocity=65 time=0.03
EXTRACT: note_off channel=8 note=65 velocity=65 time=0.01
EXTRACT: note_off channel=8 note=62 velocity=65 time=0
EXTRACT: note_off channel=5 note=38 velocity=64 time=0.047
EXTRACT: note_off channel=2 note=50 velocity=64 time=0
EXTRACT: note_on channel=9 note=39 velocity=118 time=0.001
EXTRACT: note_on channel=3 note=77 velocity=116 time=0
EXTRACT: note_on channel=1 note=26 velocity=123 time=0.002
EXTRACT: note_on channel=2 note=38 velocity=125 time=0
EXTRACT: note_on channel=5 note=38 velocity=112 time=0
EXTRACT: note_on channel=9 note=36 velocity=127 time=0
EXTRACT: note_on channel=9 note=38 velocity=117 time=0
EXTRACT: note_on channel=9 note=42 velocity=117 time=0
EXTRACT: note_on channel=9 note=70 velocity=106 time=0
EXTRACT: note_off channel=9 note=39 velocity=64 time=0.017
EXTRACT: note_off channel=9 note=70 velocity=65 time=0.007
EXTRACT: note_off channel=9 note=42 velocity=64 time=0
EXTRACT: note_off channel=9 note=38 velocity=64 time=0
EXTRACT: note_off channel=9 note=36 velocity=65 time=0
EXTRACT: note_off channel=5 note=38 velocity=65 time=0.08700000000000001
EXTRACT: note_off channel=2 note=38 velocity=64 time=0
EXTRACT: note_on channel=2 note=38 velocity=74 time=0.009000000000000001
EXTRACT: note_on channel=5 note=38 velocity=72 time=0
EXTRACT: note_off channel=3 note=77 velocity=64 time=0.074
EXTRACT: note_off channel=1 note=26 velocity=64 time=0.01
EXTRACT: note_off channel=5 note=38 velocity=65 time=0.027
EXTRACT: note_off channel=2 note=38 velocity=65 time=0
EXTRACT: note_off channel=4 note=60 velocity=64 time=0.003
EXTRACT: note_on channel=8 note=62 velocity=96 time=0.003
EXTRACT: note_on channel=8 note=65 velocity=103 time=0
EXTRACT: note_on channel=1 note=38 velocity=123 time=0.003
EXTRACT: note_on channel=2 note=50 velocity=125 time=0
EXTRACT: note_on channel=4 note=60 velocity=1 time=0
EXTRACT: note_on channel=5 note=38 velocity=113 time=0
EXTRACT: note_on channel=9 note=42 velocity=115 time=0
EXTRACT: note_on channel=9 note=70 velocity=106 time=0
EXTRACT: note_on channel=3 note=77 velocity=116 time=0
EXTRACT: note_off channel=9 note=70 velocity=65 time=0.011
EXTRACT: note_off channel=9 note=42 velocity=64 time=0
EXTRACT: note_off channel=8 note=65 velocity=64 time=0.029
EXTRACT: note_off channel=8 note=62 velocity=64 time=0
EXTRACT: note_off channel=5 note=38 velocity=64 time=0.058
EXTRACT: note_off channel=2 note=50 velocity=65 time=0
EXTRACT: note_off channel=1 note=38 velocity=65 time=0.003
EXTRACT: note_on channel=8 note=62 velocity=89 time=0.003
EXTRACT: note_on channel=8 note=65 velocity=92 time=0
EXTRACT: note_on channel=2 note=50 velocity=125 time=0.003
EXTRACT: note_on channel=5 note=38 velocity=113 time=0
EXTRACT: note_on channel=9 note=44 velocity=99 time=0
EXTRACT: note_on channel=9 note=70 velocity=87 time=0
EXTRACT: note_off channel=9 note=70 velocity=64 time=0.024
EXTRACT: note_off channel=9 note=44 velocity=65 time=0
EXTRACT: note_off channel=8 note=65 velocity=65 time=0.032
EXTRACT: note_off channel=8 note=62 velocity=65 time=0
EXTRACT: note_off channel=3 note=77 velocity=64 time=0.018000000000000002
EXTRACT: note_off channel=5 note=38 velocity=65 time=0.037
EXTRACT: note_off channel=2 note=50 velocity=64 time=0
EXTRACT: note_off channel=4 note=60 velocity=65 time=0
EXTRACT: note_off channel=14 note=74 velocity=65 time=0.003
EXTRACT: note_off channel=4 note=57 velocity=64 time=0
EXTRACT: note_on channel=1 note=26 velocity=122 time=0.006
EXTRACT: note_on channel=2 note=38 velocity=124 time=0
EXTRACT: note_on channel=4 note=55 velocity=1 time=0
EXTRACT: note_on channel=5 note=38 velocity=112 time=0
EXTRACT: note_on channel=9 note=36 velocity=127 time=0
EXTRACT: note_on channel=9 note=42 velocity=118 time=0
EXTRACT: note_on channel=9 note=70 velocity=107 time=0
EXTRACT: note_on channel=3 note=72 velocity=117 time=0
EXTRACT: note_off channel=9 note=70 velocity=65 time=0.012
EXTRACT: note_off channel=9 note=42 velocity=64 time=0
EXTRACT: note_off channel=9 note=36 velocity=64 time=0
EXTRACT: note_off channel=5 note=38 velocity=64 time=0.039
EXTRACT: note_off channel=2 note=38 velocity=64 time=0
EXTRACT: note_off channel=11 note=86 velocity=65 time=0.003
EXTRACT: note_off channel=6 note=74 velocity=65 time=0
EXTRACT: note_on channel=2 note=38 velocity=75 time=0.006
EXTRACT: note_on channel=5 note=38 velocity=72 time=0
EXTRACT: note_off channel=1 note=26 velocity=64 time=0.084
EXTRACT: note_off channel=5 note=38 velocity=64 time=0.027
EXTRACT: note_off channel=2 note=38 velocity=65 time=0
EXTRACT: note_off channel=4 note=55 velocity=64 time=0
EXTRACT: pitchwheel channel=3 pitch=1609 time=0.004
EXTRACT: note_on channel=8 note=62 velocity=96 time=0.002
EXTRACT: note_on channel=8 note=65 velocity=103 time=0
EXTRACT: note_on channel=1 note=38 velocity=122 time=0.003
EXTRACT: note_on channel=2 note=50 velocity=124 time=0
EXTRACT: note_on channel=4 note=57 velocity=1 time=0
EXTRACT: note_on channel=5 note=38 velocity=113 time=0
EXTRACT: note_on channel=6 note=74 velocity=67 time=0
EXTRACT: note_on channel=9 note=46 velocity=106 time=0
EXTRACT: note_on channel=9 note=70 velocity=106 time=0
EXTRACT: note_on channel=11 note=86 velocity=72 time=0
EXTRACT: note_on channel=14 note=74 velocity=77 time=0
EXTRACT: pitchwheel channel=3 pitch=6408 time=0.01
EXTRACT: pitchwheel channel=3 pitch=8191 time=0.013000000000000001
EXTRACT: note_off channel=9 note=70 velocity=65 time=0.001
EXTRACT: note_off channel=9 note=46 velocity=64 time=0
EXTRACT: note_off channel=8 note=65 velocity=64 time=0.032
EXTRACT: note_off channel=8 note=62 velocity=64 time=0
EXTRACT: note_on channel=6 note=77 velocity=83 time=0.019
EXTRACT: note_on channel=11 note=89 velocity=75 time=0
EXTRACT: note_on channel=14 note=77 velocity=88 time=0
EXTRACT: note_off channel=14 note=74 velocity=64 time=0.018000000000000002
EXTRACT: note_off channel=11 note=86 velocity=64 time=0
EXTRACT: note_off channel=6 note=74 velocity=64 time=0
EXTRACT: note_off channel=5 note=38 velocity=65 time=0.018000000000000002
EXTRACT: note_off channel=2 note=50 velocity=64 time=0
EXTRACT: note_off channel=1 note=38 velocity=65 time=0.003
EXTRACT: note_on channel=8 note=62 velocity=95 time=0.003
EXTRACT: note_on channel=8 note=65 velocity=100 time=0
EXTRACT: note_on channel=2 note=50 velocity=124 time=0.003
EXTRACT: note_on channel=5 note=38 velocity=113 time=0
EXTRACT: note_on channel=9 note=70 velocity=86 time=0
EXTRACT: note_off channel=9 note=70 velocity=65 time=0.024
EXTRACT: note_on channel=6 note=81 velocity=82 time=0.007
EXTRACT: note_on channel=11 note=93 velocity=91 time=0
EXTRACT: note_on channel=14 note=81 velocity=78 time=0
EXTRACT: note_off channel=8 note=65 velocity=65 time=0.022
EXTRACT: note_off channel=8 note=62 velocity=64 time=0
EXTRACT: note_off channel=14 note=77 velocity=65 time=0
EXTRACT: note_off channel=11 note=89 velocity=65 time=0
EXTRACT: note_off channel=6 note=77 velocity=64 time=0
EXTRACT: control_change channel=9 control=91 value=30 time=0.037
EXTRACT: note_on channel=6 note=86 velocity=84 time=0.01
EXTRACT: note_on channel=11 note=98 velocity=82 time=0
EXTRACT: note_on channel=14 note=86 velocity=83 time=0
EXTRACT: note_off channel=5 note=38 velocity=65 time=0.011
EXTRACT: note_off channel=2 note=50 velocity=65 time=0
EXTRACT: note_on channel=9 note=39 velocity=118 time=0.001
EXTRACT: note_on channel=1 note=26 velocity=123 time=0.008
EXTRACT: note_on channel=2 note=38 velocity=125 time=0
EXTRACT: note_on channel=5 note=38 velocity=112 time=0
EXTRACT: note_on channel=9 note=36 velocity=126 time=0
EXTRACT: note_on channel=9 note=38 velocity=117 time=0
EXTRACT: note_on channel=9 note=42 velocity=122 time=0
EXTRACT: note_on channel=9 note=70 velocity=107 time=0
EXTRACT: note_off channel=14 note=81 velocity=65 time=0.003
EXTRACT: note_off channel=11 note=93 velocity=65 time=0
EXTRACT: note_off channel=6 note=81 velocity=65 time=0
EXTRACT: note_off channel=9 note=39 velocity=65 time=0.014
EXTRACT: note_off channel=9 note=70 velocity=64 time=0.007
EXTRACT: note_off channel=9 note=42 velocity=65 time=0
EXTRACT: note_off channel=9 note=38 velocity=64 time=0
EXTRACT: note_off channel=9 note=36 velocity=64 time=0
EXTRACT: note_off channel=5 note=38 velocity=64 time=0.08700000000000001
EXTRACT: note_off channel=2 note=38 velocity=65 time=0
EXTRACT: note_on channel=2 note=38 velocity=75 time=0.009000000000000001
EXTRACT: note_on channel=5 note=38 velocity=72 time=0
EXTRACT: note_off channel=11 note=98 velocity=64 time=0.013000000000000001
EXTRACT: note_off channel=6 note=86 velocity=64 time=0
EXTRACT: note_off channel=3 note=72 velocity=65 time=0.061
EXTRACT: note_off channel=1 note=26 velocity=65 time=0.01
EXTRACT: note_on channel=6 note=86 velocity=83 time=0.008
EXTRACT: note_on channel=11 note=98 velocity=88 time=0
EXTRACT: note_on channel=14 note=81 velocity=77 time=0.013000000000000001
EXTRACT: note_off channel=5 note=38 velocity=64 time=0.006
EXTRACT: note_off channel=2 note=38 velocity=64 time=0
EXTRACT: note_on channel=8 note=62 velocity=100 time=0.006
EXTRACT: note_on channel=8 note=65 velocity=105 time=0
EXTRACT: note_on channel=1 note=38 velocity=122 time=0.003
EXTRACT: note_on channel=2 note=50 velocity=124 time=0
EXTRACT: note_on channel=5 note=38 velocity=113 time=0
EXTRACT: note_on channel=9 note=42 velocity=123 time=0
EXTRACT: note_on channel=9 note=70 velocity=107 time=0
EXTRACT: note_off channel=14 note=86 velocity=64 time=0.003
EXTRACT: note_off channel=9 note=70 velocity=65 time=0.021
EXTRACT: note_off channel=9 note=42 velocity=65 time=0
EXTRACT: note_on channel=6 note=81 velocity=81 time=0.011
EXTRACT: note_on channel=11 note=93 velocity=85 time=0
EXTRACT: note_off channel=11 note=98 velocity=65 time=0.008
EXTRACT: note_off channel=6 note=86 velocity=65 time=0
EXTRACT: note_off channel=8 note=65 velocity=65 time=0.018000000000000002
EXTRACT: note_off channel=8 note=62 velocity=65 time=0
EXTRACT: pitchwheel channel=3 pitch=128 time=0.001
EXTRACT: note_off channel=5 note=38 velocity=65 time=0.049
EXTRACT: note_off channel=2 note=50 velocity=65 time=0
EXTRACT: note_off channel=14 note=81 velocity=65 time=0.002
EXTRACT: note_off channel=1 note=38 velocity=64 time=0.001
EXTRACT: note_off channel=4 note=57 velocity=65 time=0
EXTRACT: note_off channel=13 note=69 velocity=64 time=0
EXTRACT: note_on channel=14 note=77 velocity=80 time=0.002
EXTRACT: note_on channel=8 note=62 velocity=96 time=0.001
EXTRACT: note_on channel=8 note=65 velocity=103 time=0
EXTRACT: note_on channel=2 note=50 velocity=124 time=0.003
EXTRACT: note_on channel=5 note=38 velocity=112 time=0
EXTRACT: note_on channel=9 note=44 velocity=99 time=0
EXTRACT: note_on channel=9 note=70 velocity=86 time=0
EXTRACT: note_off channel=10 note=65 velocity=65 time=0.01
EXTRACT: note_off channel=11 note=93 velocity=64 time=0.003
EXTRACT: note_off channel=6 note=81 velocity=65 time=0
EXTRACT: note_on channel=6 note=77 velocity=80 time=0.003
EXTRACT: note_on channel=11 note=89 velocity=83 time=0
EXTRACT: note_off channel=10 note=69 velocity=64 time=0
EXTRACT: note_off channel=9 note=70 velocity=64 time=0.008
EXTRACT: note_off channel=9 note=44 velocity=64 time=0
EXTRACT: note_off channel=13 note=62 velocity=65 time=0.03
EXTRACT: note_off channel=8 note=65 velocity=64 time=0.012
EXTRACT: note_off channel=8 note=62 velocity=65 time=0
EXTRACT: note_off channel=13 note=74 velocity=64 time=0.008
EXTRACT: note_off channel=13 note=65 velocity=64 time=0
EXTRACT: note_off channel=11 note=89 velocity=64 time=0.009000000000000001
EXTRACT: note_off channel=6 note=77 velocity=64 time=0
EXTRACT: note_off channel=5 note=38 velocity=65 time=0.028
EXTRACT: note_off channel=2 note=50 velocity=64 time=0
EXTRACT: note_on channel=1 note=26 velocity=123 time=0
EXTRACT: note_on channel=2 note=38 velocity=125 time=0
EXTRACT: note_on channel=5 note=38 velocity=113 time=0
EXTRACT: note_on channel=9 note=36 velocity=126 time=0
EXTRACT: note_on channel=9 note=49 velocity=83 time=0
EXTRACT: note_on channel=9 note=70 velocity=106 time=0
EXTRACT: note_on channel=13 note=62 velocity=57 time=0
EXTRACT: note_on channel=13 note=65 velocity=53 time=0
EXTRACT: control_change channel=1 control=6 value=43 time=0
EXTRACT: note_on channel=13 note=74 velocity=46 time=0.002
EXTRACT: note_on channel=10 note=62 velocity=98 time=0.003
EXTRACT: note_on channel=10 note=65 velocity=99 time=0
EXTRACT: note_on channel=13 note=69 velocity=62 time=0
EXTRACT: note_on channel=6 note=74 velocity=72 time=0.002
EXTRACT: note_on channel=11 note=86 velocity=78 time=0
EXTRACT: note_on channel=14 note=74 velocity=78 time=0
EXTRACT: note_off channel=14 note=77 velocity=64 time=0.006
EXTRACT: note_off channel=9 note=70 velocity=65 time=0.011
EXTRACT: note_off channel=9 note=49 velocity=65 time=0
EXTRACT: note_off channel=9 note=36 velocity=64 time=0
EXTRACT: note_off channel=5 note=38 velocity=64 time=0.08700000000000001
EXTRACT: note_off channel=2 note=38 velocity=64 time=0
EXTRACT: note_on channel=2 note=38 velocity=75 time=0.009000000000000001
EXTRACT: note_on channel=5 note=38 velocity=63 time=0
EXTRACT: note_off channel=1 note=26 velocity=65 time=0.084
EXTRACT: note_off channel=5 note=38 velocity=64 time=0.027
EXTRACT: note_off channel=2 note=38 velocity=65 time=0
EXTRACT: note_on channel=8 note=62 velocity=95 time=0.006
EXTRACT: note_on channel=8 note=65 velocity=100 time=0
EXTRACT: note_on channel=1 note=38 velocity=123 time=0.003
EXTRACT: note_on channel=2 note=50 velocity=124 time=0
EXTRACT: note_on channel=5 note=38 velocity=112 time=0
EXTRACT: note_on channel=9 note=46 velocity=112 time=0
EXTRACT: note_on channel=9 note=70 velocity=107 time=0
EXTRACT: note_off channel=9 note=70 velocity=64 time=0.024
EXTRACT: note_off channel=9 note=46 velocity=65 time=0
EXTRACT: note_off channel=8 note=65 velocity=64 time=0.033
EXTRACT: note_off channel=8 note=62 velocity=64 time=0
EXTRACT: note_off channel=5 note=38 velocity=65 time=0.054
EXTRACT: note_off channel=2 note=50 velocity=65 time=0
EXTRACT: note_on channel=8 note=62 velocity=73 time=0.006
EXTRACT: note_on channel=8 note=65 velocity=78 time=0
EXTRACT: note_on channel=2 note=50 velocity=124 time=0.003
EXTRACT: note_on channel=5 note=38 velocity=113 time=0
EXTRACT: note_on channel=9 note=70 velocity=86 time=0
EXTRACT: note_off channel=9 note=70 velocity=64 time=0.024
EXTRACT: control_change channel=14 control=1 value=15 time=0.016
EXTRACT: note_off channel=8 note=65 velocity=65 time=0.024
EXTRACT: note_off channel=8 note=62 velocity=65 time=0
EXTRACT: note_off channel=1 note=38 velocity=64 time=0.035
EXTRACT: note_off channel=5 note=38 velocity=64 time=0.012
EXTRACT: note_off channel=2 note=50 velocity=64 time=0
EXTRACT: note_on channel=9 note=39 velocity=119 time=0.001
EXTRACT: note_on channel=1 note=26 velocity=122 time=0.008
EXTRACT: note_on channel=2 note=38 velocity=125 time=0
EXTRACT: note_on channel=5 note=38 velocity=112 time=0
EXTRACT: note_on channel=9 note=36 velocity=127 time=0
EXTRACT: note_on channel=9 note=38 velocity=116 time=0
EXTRACT: note_on channel=9 note=42 velocity=118 time=0
EXTRACT: note_on channel=9 note=70 velocity=107 time=0
EXTRACT: note_off channel=9 note=39 velocity=65 time=0.017
EXTRACT: note_off channel=9 note=70 velocity=65 time=0.007
EXTRACT: note_off channel=9 note=42 velocity=64 time=0
EXTRACT: note_off channel=9 note=38 velocity=65 time=0
EXTRACT: note_off channel=9 note=36 velocity=64 time=0
EXTRACT: note_off channel=5 note=38 velocity=65 time=0.08700000000000001
EXTRACT: note_off channel=2 note=38 velocity=64 time=0
EXTRACT: note_on channel=2 note=38 velocity=74 time=0.009000000000000001
EXTRACT: note_on channel=5 note=38 velocity=62 time=0
EXTRACT: note_off channel=1 note=26 velocity=64 time=0.069
EXTRACT: note_off channel=5 note=38 velocity=65 time=0.042
EXTRACT: note_off channel=2 note=38 velocity=65 time=0
EXTRACT: note_on channel=8 note=62 velocity=96 time=0.006
EXTRACT: note_on channel=8 note=65 velocity=103 time=0
EXTRACT: note_on channel=1 note=38 velocity=123 time=0.003
EXTRACT: note_on channel=2 note=50 velocity=125 time=0
EXTRACT: note_on channel=5 note=38 velocity=113 time=0
EXTRACT: note_on channel=9 note=42 velocity=117 time=0
EXTRACT: note_on channel=9 note=70 velocity=107 time=0
EXTRACT: note_off channel=9 note=70 velocity=64 time=0.024
EXTRACT: note_off channel=9 note=42 velocity=65 time=0
EXTRACT: note_off channel=8 note=65 velocity=64 time=0.029
EXTRACT: note_off channel=8 note=62 velocity=64 time=0
EXTRACT: note_off channel=5 note=38 velocity=64 time=0.058
EXTRACT: note_off channel=2 note=50 velocity=65 time=0
EXTRACT: note_on channel=8 note=62 velocity=89 time=0.006
EXTRACT: note_on channel=8 note=65 velocity=92 time=0
EXTRACT: note_on channel=2 note=50 velocity=125 time=0.003
EXTRACT: note_on channel=5 note=38 velocity=113 time=0
EXTRACT: note_on channel=9 note=44 velocity=98 time=0
EXTRACT: note_on channel=9 note=70 velocity=86 time=0
EXTRACT: control_change channel=13 control=6 value=52 time=0
EXTRACT: note_off channel=9 note=70 velocity=65 time=0.024
EXTRACT: note_off channel=9 note=44 velocity=64 time=0
EXTRACT: note_off channel=8 note=65 velocity=65 time=0.032
EXTRACT: note_off channel=8 note=62 velocity=65 time=0
EXTRACT: note_off channel=1 note=38 velocity=65 time=0.043000000000000003
EXTRACT: note_off channel=5 note=38 velocity=65 time=0.012
EXTRACT: note_off channel=2 note=50 velocity=64 time=0
EXTRACT: note_on channel=1 note=26 velocity=122 time=0.009000000000000001
EXTRACT: note_on channel=2 note=38 velocity=124 time=0
EXTRACT: note_on channel=5 note=38 velocity=112 time=0
EXTRACT: note_on channel=9 note=36 velocity=127 time=0
EXTRACT: note_on channel=9 note=42 velocity=125 time=0
EXTRACT: note_on channel=9 note=70 velocity=107 time=0
EXTRACT: note_off channel=9 note=70 velocity=64 time=0.024
EXTRACT: note_off channel=9 note=42 velocity=65 time=0
EXTRACT: note_off channel=9 note=36 velocity=65 time=0
EXTRACT: note_off channel=5 note=38 velocity=64 time=0.08700000000000001
EXTRACT: note_off channel=2 note=38 velocity=64 time=0
EXTRACT: note_off channel=6 note=74 velocity=65 time=0.003
EXTRACT: note_on channel=2 note=38 velocity=75 time=0.006
EXTRACT: note_on channel=5 note=38 velocity=62 time=0
EXTRACT: note_off channel=14 note=74 velocity=64 time=0.054
EXTRACT: note_off channel=11 note=86 velocity=65 time=0
EXTRACT: control_change channel=1 control=6 value=45 time=0.036000000000000004
EXTRACT: note_off channel=1 note=26 velocity=65 time=0.009000000000000001
EXTRACT: note_off channel=5 note=38 velocity=64 time=0.012
EXTRACT: note_off channel=2 note=38 velocity=65 time=0
EXTRACT: note_on channel=8 note=62 velocity=96 time=0.006
EXTRACT: note_on channel=8 note=65 velocity=103 time=0
EXTRACT: note_on channel=1 note=38 velocity=122 time=0.003
EXTRACT: note_on channel=2 note=50 velocity=124 time=0
EXTRACT: note_on channel=5 note=38 velocity=113 time=0
EXTRACT: note_on channel=9 note=46 velocity=111 time=0
EXTRACT: note_on channel=9 note=70 velocity=106 time=0
EXTRACT: note_on channel=6 note=74 velocity=73 time=0.001
EXTRACT: note_on channel=11 note=86 velocity=76 time=0
EXTRACT: note_on channel=14 note=74 velocity=77 time=0
EXTRACT: note_off channel=9 note=70 velocity=64 time=0.023
EXTRACT: note_off channel=9 note=46 velocity=64 time=0
EXTRACT: note_off channel=8 note=65 velocity=64 time=0.032
EXTRACT: note_off channel=8 note=62 velocity=64 time=0
EXTRACT: note_on channel=6 note=77 velocity=82 time=0.02
EXTRACT: note_on channel=11 note=89 velocity=89 time=0
EXTRACT: note_on channel=14 note=77 velocity=89 time=0
EXTRACT: note_off channel=14 note=74 velocity=65 time=0.018000000000000002
EXTRACT: note_off channel=11 note=86 velocity=65 time=0
EXTRACT: note_off channel=6 note=74 velocity=64 time=0
EXTRACT: note_off channel=5 note=38 velocity=65 time=0.017
EXTRACT: note_off channel=2 note=50 velocity=64 time=0
EXTRACT: note_on channel=8 note=62 velocity=95 time=0.006
EXTRACT: note_on channel=8 note=65 velocity=100 time=0
EXTRACT: note_on channel=2 note=50 velocity=124 time=0.003
EXTRACT: note_on channel=5 note=38 velocity=113 time=0
EXTRACT: note_on channel=9 note=70 velocity=86 time=0
EXTRACT: note_off channel=9 note=70 velocity=65 time=0.024
EXTRACT: note_on channel=6 note=81 velocity=63 time=0.008
EXTRACT: note_on channel=11 note=93 velocity=78 time=0
EXTRACT: note_on channel=14 note=81 velocity=78 time=0
EXTRACT: note_off channel=8 note=65 velocity=65 time=0.021
EXTRACT: note_off channel=8 note=62 velocity=64 time=0
EXTRACT: note_off channel=14 note=77 velocity=65 time=0.001
EXTRACT: note_off channel=11 note=89 velocity=64 time=0
EXTRACT: note_off channel=6 note=77 velocity=64 time=0
EXTRACT: note_off channel=1 note=38 velocity=64 time=0.03
EXTRACT: note_on channel=6 note=86 velocity=73 time=0.017
EXTRACT: note_on channel=11 note=98 velocity=83 time=0
EXTRACT: note_on channel=14 note=86 velocity=82 time=0
EXTRACT: note_off channel=5 note=38 velocity=65 time=0.01
EXTRACT: note_off channel=2 note=50 velocity=65 time=0
EXTRACT: note_on channel=9 note=39 velocity=119 time=0.001
EXTRACT: note_on channel=1 note=26 velocity=123 time=0.008
EXTRACT: note_on channel=2 note=38 velocity=125 time=0
EXTRACT: note_on channel=5 note=38 velocity=112 time=0
EXTRACT: note_on channel=9 note=36 velocity=126 time=0
EXTRACT: note_on channel=9 note=38 velocity=117 time=0
EXTRACT: note_on channel=9 note=42 velocity=98 time=0
EXTRACT: note_on channel=9 note=70 velocity=107 time=0
EXTRACT: note_off channel=14 note=81 velocity=64 time=0.004
EXTRACT: note_off channel=11 note=93 velocity=64 time=0
EXTRACT: note_off channel=6 note=81 velocity=65 time=0
EXTRACT: note_off channel=9 note=39 velocity=64 time=0.013000000000000001
EXTRACT: note_off channel=9 note=70 velocity=65 time=0.007
EXTRACT: note_off channel=9 note=42 velocity=65 time=0
EXTRACT: note_off channel=9 note=38 velocity=64 time=0
EXTRACT: note_off channel=9 note=36 velocity=65 time=0
EXTRACT: note_off channel=5 note=38 velocity=64 time=0.08700000000000001
EXTRACT: note_off channel=2 note=38 velocity=65 time=0
EXTRACT: note_on channel=2 note=38 velocity=75 time=0.009000000000000001
EXTRACT: note_on channel=5 note=38 velocity=62 time=0
EXTRACT: note_on channel=12 note=75 velocity=127 time=0.049
EXTRACT: note_on channel=12 note=79 velocity=127 time=0.02
EXTRACT: note_off channel=1 note=26 velocity=64 time=0.015
EXTRACT: note_on channel=6 note=81 velocity=74 time=0.022
EXTRACT: note_on channel=11 note=93 velocity=77 time=0
EXTRACT: note_on channel=14 note=81 velocity=77 time=0
EXTRACT: note_off channel=5 note=38 velocity=64 time=0.005
EXTRACT: note_off channel=2 note=38 velocity=64 time=0
EXTRACT: note_on channel=8 note=62 velocity=100 time=0.006
EXTRACT: note_on channel=8 note=65 velocity=105 time=0
EXTRACT: note_on channel=1 note=38 velocity=123 time=0.003
EXTRACT: note_on channel=2 note=50 velocity=124 time=0
EXTRACT: note_on channel=5 note=38 velocity=113 time=0
EXTRACT: note_on channel=9 note=42 velocity=115 time=0
EXTRACT: note_on channel=9 note=70 velocity=107 time=0
EXTRACT: note_off channel=14 note=86 velocity=64 time=0.004
EXTRACT: note_off channel=11 note=98 velocity=65 time=0
EXTRACT: note_off channel=6 note=86 velocity=65 time=0
EXTRACT: note_off channel=9 note=70 velocity=64 time=0.02
EXTRACT: note_off channel=9 note=42 velocity=64 time=0
EXTRACT: note_off channel=8 note=65 velocity=65 time=0.037
EXTRACT: note_off channel=8 note=62 velocity=65 time=0
EXTRACT: note_off channel=5 note=38 velocity=65 time=0.05
EXTRACT: note_off channel=2 note=50 velocity=65 time=0
EXTRACT: note_off channel=14 note=81 velocity=65 time=0.003
EXTRACT: note_off channel=11 note=93 velocity=65 time=0
EXTRACT: note_off channel=6 note=81 velocity=64 time=0
EXTRACT: note_on channel=6 note=77 velocity=73 time=0.003
EXTRACT: note_on channel=8 note=62 velocity=96 time=0
EXTRACT: note_on channel=8 note=65 velocity=103 time=0
EXTRACT: note_on channel=11 note=89 velocity=80 time=0
EXTRACT: note_on channel=14 note=77 velocity=80 time=0
EXTRACT: note_on channel=2 note=50 velocity=124 time=0.003
EXTRACT: note_on channel=5 note=38 velocity=112 time=0
EXTRACT: note_on channel=9 note=44 velocity=99 time=0
EXTRACT: note_on channel=9 note=70 velocity=86 time=0
EXTRACT: note_off channel=9 note=70 velocity=65 time=0.024
EXTRACT: note_off channel=9 note=44 velocity=65 time=0
EXTRACT: note_off channel=8 note=65 velocity=64 time=0.042
EXTRACT: note_off channel=8 note=62 velocity=65 time=0
EXTRACT: note_off channel=12 note=75 velocity=65 time=0.012
EXTRACT: note_off channel=1 note=38 velocity=65 time=0.006
EXTRACT: note_off channel=12 note=79 velocity=65 time=0.014
EXTRACT: note_off channel=5 note=38 velocity=65 time=0.013000000000000001
EXTRACT: note_off channel=2 note=50 velocity=64 time=0
EXTRACT: note_on channel=6 note=74 velocity=78 time=0.006
EXTRACT: note_on channel=11 note=86 velocity=85 time=0
EXTRACT: note_on channel=14 note=74 velocity=85 time=0
EXTRACT: note_on channel=1 note=26 velocity=122 time=0.003
EXTRACT: note_on channel=2 note=38 velocity=125 time=0
EXTRACT: note_on channel=5 note=38 velocity=113 time=0
EXTRACT: note_on channel=9 note=36 velocity=126 time=0
EXTRACT: note_on channel=9 note=42 velocity=122 time=0
EXTRACT: note_on channel=9 note=70 velocity=106 time=0
EXTRACT: note_off channel=14 note=77 velocity=65 time=0.014
EXTRACT: note_off channel=11 note=89 velocity=64 time=0
EXTRACT: note_off channel=6 note=77 velocity=64 time=0
EXTRACT: note_off channel=9 note=70 velocity=64 time=0.01
EXTRACT: note_off channel=9 note=42 velocity=64 time=0
EXTRACT: note_off channel=9 note=36 velocity=65 time=0
EXTRACT: control_change channel=13 control=6 value=54 time=0.056
EXTRACT: note_off channel=5 note=38 velocity=64 time=0.031
EXTRACT: note_off channel=2 note=38 velocity=64 time=0
EXTRACT: note_on channel=6 note=76 velocity=78 time=0.005
EXTRACT: note_on channel=11 note=88 velocity=84 time=0
EXTRACT: note_on channel=14 note=76 velocity=85 time=0
EXTRACT: note_off channel=10 note=62 velocity=64 time=0.003
EXTRACT: note_on channel=2 note=38 velocity=75 time=0.001
EXTRACT: note_on channel=5 note=38 velocity=63 time=0
EXTRACT: note_off channel=14 note=74 velocity=64 time=0.004
EXTRACT: note_off channel=11 note=86 velocity=64 time=0
EXTRACT: note_off channel=6 note=74 velocity=65 time=0
EXTRACT: note_off channel=1 note=26 velocity=65 time=0.08
EXTRACT: note_off channel=5 note=38 velocity=64 time=0.027
EXTRACT: note_off channel=2 note=38 velocity=65 time=0
EXTRACT: note_off channel=13 note=69 velocity=65 time=0.003
EXTRACT: note_off channel=13 note=74 velocity=65 time=0
EXTRACT: note_off channel=13 note=65 velocity=64 time=0
EXTRACT: note_off channel=13 note=62 velocity=64 time=0
EXTRACT: note_on channel=8 note=65 velocity=101 time=0.003
EXTRACT: note_on channel=6 note=77 velocity=75 time=0.001
EXTRACT: note_on channel=11 note=89 velocity=92 time=0
EXTRACT: note_on channel=14 note=77 velocity=92 time=0
EXTRACT: note_off channel=10 note=65 velocity=65 time=0.001
EXTRACT: note_on channel=1 note=28 velocity=122 time=0.001
EXTRACT: note_on channel=2 note=52 velocity=124 time=0
EXTRACT: note_on channel=5 note=40 velocity=112 time=0
EXTRACT: note_on channel=8 note=62 velocity=94 time=0
EXTRACT: note_on channel=9 note=46 velocity=105 time=0
EXTRACT: note_on channel=9 note=70 velocity=107 time=0
EXTRACT: note_on channel=13 note=64 velocity=81 time=0
EXTRACT: note_on channel=10 note=64 velocity=91 time=0.005
EXTRACT: note_on channel=10 note=67 velocity=78 time=0
EXTRACT: note_off channel=14 note=76 velocity=64 time=0
EXTRACT: note_off channel=11 note=88 velocity=65 time=0
EXTRACT: note_off channel=6 note=76 velocity=65 time=0
EXTRACT: note_on channel=13 note=67 velocity=65 time=0.007
EXTRACT: note_on channel=13 note=71 velocity=62 time=0.008
EXTRACT: note_off channel=9 note=70 velocity=65 time=0.004
EXTRACT: note_off channel=9 note=46 velocity=64 time=0
EXTRACT: note_off channel=8 note=65 velocity=64 time=0.033
EXTRACT: note_off channel=8 note=62 velocity=64 time=0.002
EXTRACT: note_off channel=5 note=40 velocity=65 time=0.052000000000000005
EXTRACT: note_off channel=2 note=52 velocity=65 time=0
EXTRACT: note_on channel=8 note=65 velocity=79 time=0.006
EXTRACT: note_on channel=2 note=52 velocity=124 time=0.003
EXTRACT: note_on channel=5 note=40 velocity=113 time=0
EXTRACT: note_on channel=8 note=62 velocity=72 time=0
EXTRACT: note_on channel=9 note=70 velocity=87 time=0
EXTRACT: note_on channel=6 note=79 velocity=75 time=0.001
EXTRACT: note_on channel=11 note=91 velocity=83 time=0
EXTRACT: note_on channel=14 note=79 velocity=83 time=0
EXTRACT: note_off channel=14 note=77 velocity=65 time=0.013000000000000001
EXTRACT: note_off channel=11 note=89 velocity=64 time=0
EXTRACT: note_off channel=6 note=77 velocity=64 time=0
EXTRACT: note_off channel=9 note=70 velocity=64 time=0.01
EXTRACT: control_change channel=1 control=6 value=47 time=0.021
EXTRACT: note_off channel=8 note=65 velocity=65 time=0.019
EXTRACT: note_off channel=8 note=62 velocity=65 time=0.002
EXTRACT: note_off channel=1 note=28 velocity=64 time=0.003
EXTRACT: note_off channel=13 note=64 velocity=65 time=0.006
EXTRACT: note_on channel=6 note=81 velocity=76 time=0.022
EXTRACT: note_on channel=11 note=93 velocity=87 time=0
EXTRACT: note_on channel=14 note=81 velocity=86 time=0
EXTRACT: note_off channel=5 note=40 velocity=64 time=0.014
EXTRACT: note_off channel=2 note=52 velocity=64 time=0
EXTRACT: note_on channel=9 note=39 velocity=118 time=0.001
EXTRACT: note_off channel=13 note=71 velocity=65 time=0.002
EXTRACT: note_off channel=13 note=67 velocity=64 time=0
EXTRACT: note_off channel=10 note=67 velocity=65 time=0.005
EXTRACT: note_on channel=1 note=29 velocity=123 time=0.001
EXTRACT: note_on channel=2 note=41 velocity=125 time=0
EXTRACT: note_on channel=5 note=41 velocity=112 time=0
EXTRACT: note_on channel=9 note=36 velocity=127 time=0
EXTRACT: note_on channel=9 note=38 velocity=116 time=0
EXTRACT: note_on channel=9 note=42 velocity=110 time=0
EXTRACT: note_on channel=9 note=70 velocity=106 time=0
EXTRACT: note_on channel=13 note=65 velocity=88 time=0
EXTRACT: note_off channel=10 note=64 velocity=64 time=0.001
EXTRACT: note_off channel=14 note=79 velocity=64 time=0.001
EXTRACT: note_off channel=11 note=91 velocity=65 time=0
EXTRACT: note_off channel=6 note=79 velocity=64 time=0
EXTRACT: note_on channel=10 note=65 velocity=104 time=0.003
EXTRACT: note_on channel=10 note=69 velocity=87 time=0
EXTRACT: note_on channel=13 note=69 velocity=35 time=0.012
EXTRACT: note_on channel=13 note=72 velocity=80 time=0
EXTRACT: note_off channel=9 note=39 velocity=65 time=0
EXTRACT: note_off channel=9 note=70 velocity=64 time=0.007
EXTRACT: note_off channel=9 note=42 velocity=65 time=0
EXTRACT: note_off channel=9 note=38 velocity=65 time=0
EXTRACT: note_off channel=9 note=36 velocity=64 time=0
EXTRACT: note_off channel=5 note=41 velocity=65 time=0.08700000000000001
EXTRACT: note_off channel=2 note=41 velocity=64 time=0
EXTRACT: note_on channel=2 note=41 velocity=74 time=0.009000000000000001
EXTRACT: note_on channel=5 note=41 velocity=62 time=0
EXTRACT: note_off channel=1 note=29 velocity=64 time=0.084
EXTRACT: note_off channel=5 note=41 velocity=65 time=0.027
EXTRACT: note_off channel=2 note=41 velocity=65 time=0
EXTRACT: note_on channel=8 note=60 velocity=96 time=0.006
EXTRACT: note_on channel=8 note=65 velocity=103 time=0
EXTRACT: note_on channel=1 note=41 velocity=123 time=0.003
EXTRACT: note_on channel=2 note=53 velocity=125 time=0
EXTRACT: note_on channel=5 note=41 velocity=113 time=0
EXTRACT: note_on channel=9 note=42 velocity=125 time=0
EXTRACT: note_on channel=9 note=70 velocity=106 time=0
EXTRACT: note_off channel=9 note=70 velocity=65 time=0.024
EXTRACT: note_off channel=9 note=42 velocity=64 time=0
EXTRACT: note_off channel=8 note=65 velocity=64 time=0.029
EXTRACT: note_off channel=8 note=60 velocity=64 time=0
EXTRACT: note_off channel=5 note=41 velocity=64 time=0.058
EXTRACT: note_off channel=2 note=53 velocity=65 time=0
EXTRACT: note_on channel=8 note=60 velocity=89 time=0.006
EXTRACT: note_on channel=8 note=65 velocity=92 time=0
EXTRACT: note_on channel=2 note=53 velocity=125 time=0.003
EXTRACT: note_on channel=5 note=41 velocity=113 time=0
EXTRACT: note_on channel=9 note=44 velocity=98 time=0
EXTRACT: note_on channel=9 note=70 velocity=87 time=0
EXTRACT: note_off channel=9 note=70 velocity=64 time=0.024
EXTRACT: note_off channel=9 note=44 velocity=65 time=0
EXTRACT: note_off channel=8 note=65 velocity=65 time=0.032
EXTRACT: note_off channel=8 note=60 velocity=65 time=0
EXTRACT: note_off channel=1 note=41 velocity=65 time=0.028
EXTRACT: note_off channel=5 note=41 velocity=65 time=0.027
EXTRACT: note_off channel=2 note=53 velocity=64 time=0
EXTRACT: note_on channel=1 note=29 velocity=122 time=0.009000000000000001
EXTRACT: note_on channel=2 note=41 velocity=124 time=0
EXTRACT: note_on channel=5 note=41 velocity=112 time=0
EXTRACT: note_on channel=9 note=36 velocity=126 time=0
EXTRACT: note_on channel=9 note=42 velocity=125 time=0
EXTRACT: note_on channel=9 note=70 velocity=106 time=0
EXTRACT: note_off channel=9 note=70 velocity=65 time=0.024
EXTRACT: note_off channel=9 note=42 velocity=64 time=0
EXTRACT: note_off channel=9 note=36 velocity=64 time=0
EXTRACT: note_off channel=5 note=41 velocity=64 time=0.08700000000000001
EXTRACT: note_off channel=2 note=41 velocity=64 time=0
EXTRACT: note_on channel=2 note=41 velocity=75 time=0.009000000000000001
EXTRACT: note_on channel=5 note=41 velocity=62 time=0
EXTRACT: note_off channel=14 note=81 velocity=65 time=0.074
EXTRACT: note_off channel=11 note=93 velocity=65 time=0
EXTRACT: note_off channel=6 note=81 velocity=65 time=0
EXTRACT: note_off channel=1 note=29 velocity=64 time=0.01
EXTRACT: note_off channel=5 note=41 velocity=64 time=0.027
EXTRACT: note_off channel=2 note=41 velocity=65 time=0
EXTRACT: note_on channel=8 note=60 velocity=96 time=0.006
EXTRACT: note_on channel=8 note=65 velocity=103 time=0
EXTRACT: note_on channel=1 note=41 velocity=122 time=0.003
EXTRACT: note_on channel=2 note=53 velocity=124 time=0
EXTRACT: note_on channel=5 note=41 velocity=113 time=0
EXTRACT: note_on channel=9 note=46 velocity=110 time=0
EXTRACT: note_on channel=9 note=70 velocity=107 time=0
EXTRACT: control_change channel=2 control=6 value=59 time=0
EXTRACT: note_on channel=6 note=77 velocity=74 time=0.021
EXTRACT: note_on channel=11 note=89 velocity=82 time=0
EXTRACT: note_on channel=14 note=77 velocity=82 time=0
EXTRACT: note_off channel=9 note=70 velocity=65 time=0.003
EXTRACT: note_off channel=9 note=46 velocity=65 time=0
EXTRACT: note_off channel=8 note=65 velocity=64 time=0.032
EXTRACT: note_off channel=8 note=60 velocity=64 time=0
EXTRACT: note_on channel=6 note=81 velocity=55 time=0.039
EXTRACT: note_on channel=11 note=93 velocity=76 time=0
EXTRACT: note_on channel=14 note=81 velocity=77 time=0
EXTRACT: note_off channel=5 note=41 velocity=65 time=0.016
EXTRACT: note_off channel=2 note=53 velocity=64 time=0
EXTRACT: note_on channel=8 note=60 velocity=95 time=0.006
EXTRACT: note_on channel=8 note=65 velocity=100 time=0
EXTRACT: note_on channel=2 note=53 velocity=124 time=0.003
EXTRACT: note_on channel=5 note=41 velocity=113 time=0
EXTRACT: note_on channel=9 note=70 velocity=87 time=0
EXTRACT: note_off channel=9 note=70 velocity=64 time=0.024
EXTRACT: note_off channel=14 note=77 velocity=65 time=0.01
EXTRACT: note_off channel=11 note=89 velocity=64 time=0
EXTRACT: note_off channel=6 note=77 velocity=64 time=0
EXTRACT: note_on channel=6 note=84 velocity=81 time=0.012
EXTRACT: note_on channel=11 note=96 velocity=85 time=0
EXTRACT: note_on channel=14 note=84 velocity=85 time=0
EXTRACT: note_off channel=8 note=65 velocity=65 time=0.007
EXTRACT: note_off channel=8 note=60 velocity=64 time=0
EXTRACT: note_off channel=14 note=81 velocity=64 time=0.011
EXTRACT: note_off channel=11 note=93 velocity=65 time=0
EXTRACT: note_off channel=6 note=81 velocity=65 time=0
EXTRACT: note_off channel=1 note=41 velocity=65 time=0.02
EXTRACT: note_on channel=6 note=89 velocity=78 time=0.019
EXTRACT: note_on channel=11 note=101 velocity=85 time=0
EXTRACT: note_on channel=14 note=89 velocity=84 time=0
EXTRACT: note_off channel=5 note=41 velocity=65 time=0.008
EXTRACT: note_off channel=2 note=53 velocity=65 time=0
EXTRACT: note_on channel=9 note=39 velocity=118 time=0.001
EXTRACT: note_on channel=1 note=29 velocity=123 time=0.008
EXTRACT: note_on channel=2 note=41 velocity=125 time=0
EXTRACT: note_on channel=5 note=41 velocity=112 time=0
EXTRACT: note_on channel=9 note=36 velocity=127 time=0
EXTRACT: note_on channel=9 note=38 velocity=116 time=0
EXTRACT: note_on channel=9 note=42 velocity=112 time=0
EXTRACT: note_on channel=9 note=70 velocity=106 time=0
EXTRACT: note_off channel=14 note=84 velocity=65 time=0.014
EXTRACT: note_off channel=11 note=96 velocity=64 time=0
EXTRACT: note_off channel=6 note=84 velocity=65 time=0
EXTRACT: note_off channel=9 note=39 velocity=64 time=0.003
EXTRACT: note_off channel=9 note=70 velocity=65 time=0.007
EXTRACT: note_off channel=9 note=42 velocity=64 time=0
EXTRACT: note_off channel=9 note=38 velocity=65 time=0
EXTRACT: note_off channel=9 note=36 velocity=65 time=0
EXTRACT: control_change channel=13 control=6 value=56 time=0.016
EXTRACT: note_off channel=5 note=41 velocity=64 time=0.07100000000000001
EXTRACT: note_off channel=2 note=41 velocity=65 time=0
EXTRACT: note_on channel=2 note=41 velocity=75 time=0.009000000000000001
EXTRACT: note_on channel=5 note=41 velocity=62 time=0
EXTRACT: control_change channel=1 control=6 value=50 time=0.075
EXTRACT: note_off channel=1 note=29 velocity=65 time=0.009000000000000001
EXTRACT: note_off channel=14 note=89 velocity=64 time=0.01
EXTRACT: note_off channel=11 note=101 velocity=64 time=0
EXTRACT: note_off channel=6 note=89 velocity=64 time=0
EXTRACT: note_on channel=6 note=88 velocity=74 time=0.016
EXTRACT: note_on channel=11 note=100 velocity=80 time=0
EXTRACT: note_on channel=14 note=88 velocity=80 time=0
EXTRACT: note_off channel=5 note=41 velocity=64 time=0.001
EXTRACT: note_off channel=2 note=41 velocity=64 time=0
EXTRACT: note_on channel=8 note=60 velocity=100 time=0.006
EXTRACT: note_on channel=8 note=65 velocity=105 time=0
EXTRACT: note_off channel=10 note=69 velocity=64 time=0.002
EXTRACT: note_off channel=10 note=65 velocity=65 time=0
EXTRACT: note_on channel=1 note=31 velocity=122 time=0.001
EXTRACT: note_on channel=2 note=55 velocity=124 time=0
EXTRACT: note_on channel=5 note=43 velocity=113 time=0
EXTRACT: note_on channel=9 note=42 velocity=108 time=0
EXTRACT: note_on channel=9 note=70 velocity=107 time=0
EXTRACT: note_on channel=13 note=67 velocity=81 time=0
EXTRACT: note_on channel=13 note=71 velocity=65 time=0
EXTRACT: note_on channel=10 note=67 velocity=86 time=0.005
EXTRACT: note_on channel=10 note=71 velocity=87 time=0
EXTRACT: note_off channel=13 note=72 velocity=64 time=0.006
EXTRACT: note_off channel=13 note=69 velocity=65 time=0
EXTRACT: note_off channel=13 note=65 velocity=64 time=0
EXTRACT: note_on channel=13 note=74 velocity=62 time=0.009000000000000001
EXTRACT: note_off channel=9 note=70 velocity=64 time=0.004
EXTRACT: note_off channel=9 note=42 velocity=65 time=0
EXTRACT: note_off channel=8 note=65 velocity=65 time=0.037
EXTRACT: note_off channel=8 note=60 velocity=65 time=0
EXTRACT: note_off channel=5 note=43 velocity=65 time=0.05
EXTRACT: note_off channel=2 note=55 velocity=65 time=0
EXTRACT: note_on channel=8 note=60 velocity=96 time=0.006
EXTRACT: note_on channel=8 note=65 velocity=103 time=0
EXTRACT: note_on channel=2 note=55 velocity=124 time=0.003
EXTRACT: note_on channel=5 note=43 velocity=112 time=0
EXTRACT: note_on channel=9 note=44 velocity=98 time=0
EXTRACT: note_on channel=9 note=70 velocity=86 time=0
EXTRACT: note_off channel=14 note=88 velocity=64 time=0.004
EXTRACT: note_off channel=11 note=100 velocity=65 time=0
EXTRACT: note_off channel=6 note=88 velocity=65 time=0
EXTRACT: note_on channel=6 note=84 velocity=73 time=0.003
EXTRACT: note_on channel=11 note=96 velocity=78 time=0
EXTRACT: note_on channel=14 note=84 velocity=79 time=0
EXTRACT: note_off channel=9 note=70 velocity=64 time=0.017
EXTRACT: note_off channel=9 note=44 velocity=64 time=0
EXTRACT: note_off channel=8 note=65 velocity=64 time=0.042
EXTRACT: note_off channel=8 note=60 velocity=65 time=0
EXTRACT: note_off channel=1 note=31 velocity=64 time=0.018000000000000002
EXTRACT: control_change channel=9 control=91 value=20 time=0.006
EXTRACT: note_off channel=5 note=43 velocity=65 time=0.021
EXTRACT: note_off channel=2 note=55 velocity=64 time=0
EXTRACT: note_off channel=13 note=74 velocity=65 time=0.003
EXTRACT: note_off channel=13 note=71 velocity=65 time=0
EXTRACT: note_off channel=13 note=67 velocity=64 time=0
EXTRACT: note_off channel=10 note=71 velocity=64 time=0.005
EXTRACT: note_off channel=10 note=67 velocity=65 time=0
EXTRACT: note_on channel=1 note=33 velocity=123 time=0.001
EXTRACT: note_on channel=2 note=45 velocity=125 time=0
EXTRACT: note_on channel=5 note=45 velocity=113 time=0
EXTRACT: note_on channel=9 note=36 velocity=127 time=0
EXTRACT: note_on channel=9 note=42 velocity=125 time=0
EXTRACT: note_on channel=9 note=70 velocity=106 time=0
EXTRACT: note_on channel=13 note=69 velocity=57 time=0
EXTRACT: note_on channel=10 note=69 velocity=93 time=0.005
EXTRACT: note_on channel=10 note=72 velocity=102 time=0
EXTRACT: note_on channel=6 note=81 velocity=78 time=0.002
EXTRACT: note_on channel=11 note=93 velocity=85 time=0
EXTRACT: note_on channel=14 note=81 velocity=85 time=0
EXTRACT: note_on channel=13 note=76 velocity=68 time=0.002
EXTRACT: note_on channel=13 note=72 velocity=60 time=0.003
EXTRACT: note_off channel=14 note=84 velocity=65 time=0.001
EXTRACT: note_off channel=11 note=96 velocity=65 time=0
EXTRACT: note_off channel=6 note=84 velocity=64 time=0
EXTRACT: note_off channel=9 note=70 velocity=65 time=0.011
EXTRACT: note_off channel=9 note=42 velocity=65 time=0
EXTRACT: note_off channel=9 note=36 velocity=64 time=0
EXTRACT: note_off channel=5 note=45 velocity=64 time=0.08700000000000001
EXTRACT: note_off channel=2 note=45 velocity=64 time=0
EXTRACT: note_on channel=2 note=45 velocity=75 time=0.009000000000000001
EXTRACT: note_on channel=5 note=45 velocity=63 time=0
EXTRACT: note_off channel=1 note=33 velocity=65 time=0.099
EXTRACT: note_off channel=5 note=45 velocity=64 time=0.012
EXTRACT: note_off channel=2 note=45 velocity=65 time=0
EXTRACT: note_on channel=8 note=60 velocity=95 time=0.006
EXTRACT: note_on channel=8 note=64 velocity=100 time=0
EXTRACT: note_on channel=1 note=45 velocity=123 time=0.003
EXTRACT: note_on channel=2 note=57 velocity=124 time=0
EXTRACT: note_on channel=5 note=45 velocity=112 time=0
EXTRACT: note_on channel=9 note=46 velocity=110 time=0
EXTRACT: note_on channel=9 note=70 velocity=107 time=0
EXTRACT: note_off channel=9 note=70 velocity=64 time=0.024
EXTRACT: note_off channel=9 note=46 velocity=65 time=0
EXTRACT: note_off channel=8 note=64 velocity=64 time=0.033
EXTRACT: note_off channel=8 note=60 velocity=64 time=0
EXTRACT: note_off channel=5 note=45 velocity=65 time=0.054
EXTRACT: note_off channel=2 note=57 velocity=65 time=0
EXTRACT: note_on channel=8 note=60 velocity=73 time=0.006
EXTRACT: note_on channel=8 note=64 velocity=78 time=0
EXTRACT: note_on channel=2 note=57 velocity=124 time=0.003
EXTRACT: note_on channel=5 note=45 velocity=113 time=0
EXTRACT: note_on channel=9 note=70 velocity=87 time=0
EXTRACT: note_off channel=9 note=70 velocity=65 time=0.024
EXTRACT: note_off channel=8 note=64 velocity=65 time=0.04
EXTRACT: note_off channel=8 note=60 velocity=65 time=0
EXTRACT: note_off channel=1 note=45 velocity=64 time=0.02
EXTRACT: note_off channel=5 note=45 velocity=64 time=0.027
EXTRACT: note_off channel=2 note=57 velocity=64 time=0
EXTRACT: note_on channel=9 note=39 velocity=119 time=0.001
EXTRACT: note_on channel=1 note=33 velocity=122 time=0.008
EXTRACT: note_on channel=2 note=45 velocity=125 time=0
EXTRACT: note_on channel=5 note=45 velocity=112 time=0
EXTRACT: note_on channel=9 note=36 velocity=126 time=0
EXTRACT: note_on channel=9 note=38 velocity=117 time=0
EXTRACT: note_on channel=9 note=42 velocity=123 time=0
EXTRACT: note_on channel=9 note=70 velocity=106 time=0
EXTRACT: note_off channel=9 note=39 velocity=64 time=0.017
EXTRACT: note_off channel=9 note=70 velocity=64 time=0.007
EXTRACT: note_off channel=9 note=42 velocity=65 time=0
EXTRACT: note_off channel=9 note=38 velocity=64 time=0
EXTRACT: note_off channel=9 note=36 velocity=65 time=0
EXTRACT: note_off channel=5 note=45 velocity=65 time=0.08700000000000001
EXTRACT: note_off channel=2 note=45 velocity=64 time=0
EXTRACT: note_on channel=2 note=45 velocity=74 time=0.009000000000000001
EXTRACT: note_on channel=5 note=45 velocity=62 time=0
EXTRACT: note_off channel=1 note=33 velocity=64 time=0.099
EXTRACT: note_off channel=5 note=45 velocity=65 time=0.012
EXTRACT: note_off channel=2 note=45 velocity=65 time=0
EXTRACT: note_on channel=8 note=60 velocity=96 time=0.006
EXTRACT: note_on channel=8 note=64 velocity=103 time=0
EXTRACT: note_on channel=1 note=45 velocity=123 time=0.003
EXTRACT: note_on channel=2 note=57 velocity=125 time=0
EXTRACT: note_on channel=5 note=45 velocity=113 time=0
EXTRACT: note_on channel=9 note=42 velocity=116 time=0
EXTRACT: note_on channel=9 note=70 velocity=106 time=0
EXTRACT: note_off channel=9 note=70 velocity=65 time=0.024
EXTRACT: note_off channel=9 note=42 velocity=64 time=0
EXTRACT: note_off channel=8 note=64 velocity=64 time=0.029
EXTRACT: note_off channel=8 note=60 velocity=64 time=0
EXTRACT: control_change channel=13 control=6 value=58 time=0.027
EXTRACT: note_off channel=5 note=45 velocity=64 time=0.031
EXTRACT: note_off channel=2 note=57 velocity=65 time=0
EXTRACT: note_on channel=8 note=60 velocity=89 time=0.006
EXTRACT: note_on channel=8 note=64 velocity=92 time=0
EXTRACT: note_on channel=2 note=57 velocity=125 time=0.003
EXTRACT: note_on channel=5 note=45 velocity=113 time=0
EXTRACT: note_on channel=9 note=44 velocity=99 time=0
EXTRACT: note_on channel=9 note=70 velocity=87 time=0
EXTRACT: note_off channel=9 note=70 velocity=65 time=0.024
EXTRACT: note_off channel=9 note=44 velocity=64 time=0
EXTRACT: note_off channel=8 note=64 velocity=65 time=0.032
EXTRACT: note_off channel=8 note=60 velocity=65 time=0
EXTRACT: note_off channel=1 note=45 velocity=65 time=0.028
EXTRACT: note_off channel=5 note=45 velocity=65 time=0.027
EXTRACT: note_off channel=2 note=57 velocity=64 time=0
EXTRACT: note_on channel=1 note=33 velocity=122 time=0.009000000000000001
EXTRACT: note_on channel=2 note=45 velocity=124 time=0
EXTRACT: note_on channel=5 note=45 velocity=112 time=0
EXTRACT: note_on channel=9 note=36 velocity=127 time=0
EXTRACT: note_on channel=9 note=42 velocity=124 time=0
EXTRACT: note_on channel=9 note=70 velocity=107 time=0
EXTRACT: note_off channel=9 note=70 velocity=64 time=0.024
EXTRACT: note_off channel=9 note=42 velocity=65 time=0
EXTRACT: note_off channel=9 note=36 velocity=65 time=0
EXTRACT: control_change channel=1 control=6 value=52 time=0.066
EXTRACT: note_off channel=14 note=81 velocity=65 time=0.002
EXTRACT: note_off channel=11 note=93 velocity=64 time=0
EXTRACT: note_off channel=6 note=81 velocity=64 time=0
EXTRACT: note_off channel=5 note=45 velocity=64 time=0.019
EXTRACT: note_off channel=2 note=45 velocity=64 time=0
EXTRACT: note_on channel=2 note=45 velocity=75 time=0.009000000000000001
EXTRACT: note_on channel=5 note=45 velocity=62 time=0
EXTRACT: note_off channel=1 note=33 velocity=65 time=0.084
EXTRACT: note_off channel=5 note=45 velocity=64 time=0.027
EXTRACT: note_off channel=2 note=45 velocity=65 time=0
EXTRACT: note_on channel=8 note=60 velocity=96 time=0.006
EXTRACT: note_on channel=8 note=64 velocity=103 time=0
EXTRACT: note_on channel=1 note=45 velocity=122 time=0.003
EXTRACT: note_on channel=2 note=57 velocity=124 time=0
EXTRACT: note_on channel=5 note=45 velocity=113 time=0
EXTRACT: note_on channel=9 note=46 velocity=107 time=0
EXTRACT: note_on channel=9 note=70 velocity=106 time=0
EXTRACT: note_off channel=9 note=70 velocity=64 time=0.024
EXTRACT: note_off channel=9 note=46 velocity=64 time=0
EXTRACT: note_on channel=6 note=76 velocity=73 time=0.024
EXTRACT: note_on channel=11 note=88 velocity=88 time=0
EXTRACT: note_on channel=14 note=76 velocity=88 time=0
EXTRACT: note_off channel=8 note=64 velocity=64 time=0.008
EXTRACT: note_off channel=8 note=60 velocity=64 time=0
EXTRACT: note_off channel=5 note=45 velocity=65 time=0.055
EXTRACT: note_off channel=2 note=57 velocity=64 time=0
EXTRACT: note_on channel=6 note=81 velocity=69 time=0.005
EXTRACT: note_on channel=11 note=93 velocity=81 time=0
EXTRACT: note_on channel=14 note=81 velocity=80 time=0
EXTRACT: note_on channel=8 note=60 velocity=95 time=0.001
EXTRACT: note_on channel=8 note=64 velocity=100 time=0
EXTRACT: note_on channel=2 note=57 velocity=124 time=0.003
EXTRACT: note_on channel=5 note=45 velocity=113 time=0
EXTRACT: note_on channel=9 note=70 velocity=86 time=0
EXTRACT: note_off channel=9 note=70 velocity=65 time=0.024
EXTRACT: note_off channel=8 note=64 velocity=65 time=0.029
EXTRACT: note_off channel=8 note=60 velocity=64 time=0
EXTRACT: note_on channel=6 note=84 velocity=68 time=0.002
EXTRACT: note_on channel=11 note=96 velocity=83 time=0
EXTRACT: note_on channel=14 note=84 velocity=83 time=0
EXTRACT: note_off channel=14 note=76 velocity=64 time=0.026000000000000002
EXTRACT: note_off channel=11 note=88 velocity=64 time=0
EXTRACT: note_off channel=6 note=76 velocity=65 time=0
EXTRACT: note_off channel=1 note=45 velocity=64 time=0.003
EXTRACT: note_off channel=5 note=45 velocity=65 time=0.027
EXTRACT: note_off channel=2 note=57 velocity=65 time=0
EXTRACT: note_on channel=9 note=39 velocity=118 time=0.001
EXTRACT: note_off channel=13 note=76 velocity=65 time=0.002
EXTRACT: note_on channel=6 note=88 velocity=83 time=0.004
EXTRACT: note_on channel=11 note=100 velocity=86 time=0
EXTRACT: note_on channel=14 note=88 velocity=86 time=0
EXTRACT: note_off channel=14 note=81 velocity=64 time=0
EXTRACT: note_off channel=11 note=93 velocity=65 time=0
EXTRACT: note_off channel=6 note=81 velocity=65 time=0
EXTRACT: note_on channel=1 note=33 velocity=123 time=0.002
EXTRACT: note_on channel=2 note=45 velocity=125 time=0
EXTRACT: note_on channel=5 note=45 velocity=112 time=0
EXTRACT: note_on channel=9 note=36 velocity=126 time=0
EXTRACT: note_on channel=9 note=38 velocity=117 time=0
EXTRACT: note_on channel=9 note=42 velocity=117 time=0
EXTRACT: note_on channel=9 note=70 velocity=107 time=0
EXTRACT: note_on channel=13 note=77 velocity=69 time=0
EXTRACT: note_off channel=9 note=39 velocity=65 time=0.017
EXTRACT: note_off channel=9 note=70 velocity=64 time=0.007
EXTRACT: note_off channel=9 note=42 velocity=64 time=0
EXTRACT: note_off channel=9 note=38 velocity=65 time=0
EXTRACT: note_off channel=9 note=36 velocity=64 time=0
EXTRACT: note_off channel=14 note=84 velocity=65 time=0.02
EXTRACT: note_off channel=11 note=96 velocity=65 time=0
EXTRACT: note_off channel=6 note=84 velocity=64 time=0
EXTRACT: note_off channel=5 note=45 velocity=64 time=0.067
EXTRACT: note_off channel=2 note=45 velocity=65 time=0
EXTRACT: note_on channel=2 note=45 velocity=75 time=0.009000000000000001
EXTRACT: note_on channel=5 note=45 velocity=62 time=0
EXTRACT: note_off channel=14 note=88 velocity=65 time=0.044
EXTRACT: note_off channel=11 note=100 velocity=64 time=0
EXTRACT: note_off channel=6 note=88 velocity=64 time=0
EXTRACT: note_on channel=12 note=74 velocity=126 time=0.004
EXTRACT: note_on channel=12 note=77 velocity=126 time=0.001
EXTRACT: note_off channel=1 note=33 velocity=64 time=0.035
EXTRACT: note_off channel=5 note=45 velocity=64 time=0.027
EXTRACT: note_off channel=2 note=45 velocity=64 time=0
EXTRACT: note_on channel=6 note=88 velocity=82 time=0.002
EXTRACT: note_on channel=11 note=100 velocity=87 time=0
EXTRACT: note_on channel=14 note=88 velocity=87 time=0
EXTRACT: note_on channel=8 note=60 velocity=100 time=0.004
EXTRACT: note_on channel=8 note=64 velocity=105 time=0
EXTRACT: note_on channel=1 note=43 velocity=123 time=0.003
EXTRACT: note_on channel=2 note=55 velocity=124 time=0
EXTRACT: note_on channel=5 note=43 velocity=113 time=0
EXTRACT: note_on channel=9 note=42 velocity=116 time=0
EXTRACT: note_on channel=9 note=70 velocity=106 time=0
EXTRACT: note_off channel=9 note=70 velocity=65 time=0.024
EXTRACT: note_off channel=9 note=42 velocity=65 time=0
EXTRACT: note_off channel=14 note=88 velocity=64 time=0
EXTRACT: note_off channel=11 note=100 velocity=64 time=0
EXTRACT: note_off channel=6 note=88 velocity=65 time=0
EXTRACT: note_on channel=6 note=84 velocity=82 time=0.019
EXTRACT: note_on channel=11 note=96 velocity=86 time=0
EXTRACT: note_on channel=14 note=84 velocity=87 time=0
EXTRACT: note_off channel=8 note=64 velocity=65 time=0.018000000000000002
EXTRACT: note_off channel=8 note=60 velocity=65 time=0
EXTRACT: note_on channel=6 note=81 velocity=77 time=0.038
EXTRACT: note_on channel=11 note=93 velocity=82 time=0
EXTRACT: note_on channel=14 note=81 velocity=82 time=0
EXTRACT: note_off channel=14 note=84 velocity=64 time=0.005
EXTRACT: note_off channel=11 note=96 velocity=65 time=0
EXTRACT: note_off channel=6 note=84 velocity=65 time=0
EXTRACT: note_off channel=5 note=43 velocity=65 time=0.007
EXTRACT: note_off channel=2 note=55 velocity=65 time=0
EXTRACT: note_off channel=1 note=43 velocity=65 time=0.003
EXTRACT: note_on channel=8 note=60 velocity=96 time=0.003
EXTRACT: note_on channel=8 note=64 velocity=103 time=0
EXTRACT: note_on channel=1 note=41 velocity=122 time=0.003
EXTRACT: note_on channel=2 note=53 velocity=124 time=0
EXTRACT: note_on channel=5 note=41 velocity=112 time=0
EXTRACT: note_on channel=9 note=44 velocity=99 time=0
EXTRACT: note_on channel=9 note=70 velocity=87 time=0
EXTRACT: note_off channel=9 note=70 velocity=64 time=0.024
EXTRACT: note_off channel=9 note=44 velocity=65 time=0
EXTRACT: note_off channel=14 note=81 velocity=65 time=0.02
EXTRACT: note_off channel=11 note=93 velocity=64 time=0
EXTRACT: note_off channel=6 note=81 velocity=64 time=0
EXTRACT: note_off channel=8 note=64 velocity=64 time=0.022
EXTRACT: note_off channel=8 note=60 velocity=65 time=0
EXTRACT: note_on channel=6 note=77 velocity=79 time=0.001
EXTRACT: note_on channel=11 note=89 velocity=85 time=0
EXTRACT: note_on channel=14 note=77 velocity=85 time=0
EXTRACT: note_off channel=12 note=74 velocity=64 time=0.01
EXTRACT: note_off channel=12 note=77 velocity=64 time=0.001
EXTRACT: control_change channel=13 control=6 value=60 time=0.002
EXTRACT: note_off channel=10 note=72 velocity=65 time=0.001
EXTRACT: note_off channel=10 note=69 velocity=64 time=0.005
EXTRACT: note_off channel=5 note=41 velocity=65 time=0.025
EXTRACT: note_off channel=2 note=53 velocity=64 time=0
EXTRACT: note_off channel=1 note=41 velocity=65 time=0.003
EXTRACT: note_off channel=13 note=72 velocity=64 time=0
EXTRACT: note_off channel=13 note=69 velocity=64 time=0
EXTRACT: note_on channel=1 note=26 velocity=122 time=0.006
EXTRACT: note_on channel=2 note=38 velocity=125 time=0
EXTRACT: note_on channel=5 note=38 velocity=113 time=0
EXTRACT: note_on channel=9 note=36 velocity=126 time=0
EXTRACT: note_on channel=9 note=42 velocity=117 time=0
EXTRACT: note_on channel=9 note=70 velocity=107 time=0
EXTRACT: note_on channel=13 note=62 velocity=57 time=0
EXTRACT: note_on channel=13 note=65 velocity=52 time=0
EXTRACT: note_on channel=13 note=74 velocity=46 time=0.002
EXTRACT: note_on channel=10 note=65 velocity=95 time=0.003
EXTRACT: note_on channel=10 note=69 velocity=100 time=0
EXTRACT: note_on channel=13 note=69 velocity=63 time=0
EXTRACT: note_on channel=6 note=74 velocity=76 time=0.003
EXTRACT: note_on channel=11 note=86 velocity=85 time=0
EXTRACT: note_on channel=14 note=74 velocity=84 time=0
EXTRACT: note_off channel=14 note=77 velocity=64 time=0.006
EXTRACT: note_off channel=11 note=89 velocity=65 time=0
EXTRACT: note_off channel=6 note=77 velocity=64 time=0
EXTRACT: note_off channel=9 note=70 velocity=64 time=0.01
EXTRACT: note_off channel=9 note=42 velocity=64 time=0
EXTRACT: note_off channel=9 note=36 velocity=65 time=0
EXTRACT: note_off channel=13 note=77 velocity=65 time=0.005
EXTRACT: note_off channel=5 note=38 velocity=64 time=0.082
EXTRACT: note_off channel=2 note=38 velocity=64 time=0
EXTRACT: note_on channel=2 note=38 velocity=75 time=0.009000000000000001
EXTRACT: note_on channel=5 note=38 velocity=63 time=0
EXTRACT: note_off channel=1 note=26 velocity=64 time=0.084
EXTRACT: note_off channel=5 note=38 velocity=64 time=0.027
EXTRACT: note_off channel=2 note=38 velocity=65 time=0
EXTRACT: note_on channel=8 note=62 velocity=95 time=0.006
EXTRACT: note_on channel=8 note=65 velocity=100 time=0
EXTRACT: note_on channel=1 note=38 velocity=123 time=0.003
EXTRACT: note_on channel=2 note=50 velocity=124 time=0
EXTRACT: note_on channel=5 note=38 velocity=112 time=0
EXTRACT: note_on channel=9 note=46 velocity=104 time=0
EXTRACT: note_on channel=9 note=70 velocity=106 time=0
EXTRACT: note_off channel=9 note=70 velocity=65 time=0.024
EXTRACT: note_off channel=9 note=46 velocity=64 time=0
EXTRACT: note_off channel=8 note=65 velocity=64 time=0.033
EXTRACT: note_off channel=8 note=62 velocity=64 time=0
EXTRACT: note_off channel=5 note=38 velocity=65 time=0.054
EXTRACT: note_off channel=2 note=50 velocity=65 time=0
EXTRACT: note_off channel=1 note=38 velocity=64 time=0.003
EXTRACT: note_on channel=8 note=62 velocity=73 time=0.003
EXTRACT: note_on channel=8 note=65 velocity=78 time=0
EXTRACT: note_on channel=2 note=50 velocity=124 time=0.003
EXTRACT: note_on channel=5 note=38 velocity=113 time=0
EXTRACT: note_on channel=9 note=70 velocity=87 time=0
EXTRACT: note_off channel=9 note=70 velocity=64 time=0.024
EXTRACT: note_off channel=8 note=65 velocity=65 time=0.04
EXTRACT: note_off channel=8 note=62 velocity=65 time=0
EXTRACT: note_off channel=5 note=38 velocity=64 time=0.047
EXTRACT: note_off channel=2 note=50 velocity=64 time=0
EXTRACT: note_on channel=9 note=39 velocity=119 time=0.001
EXTRACT: note_on channel=1 note=26 velocity=123 time=0.008
EXTRACT: note_on channel=2 note=38 velocity=125 time=0
EXTRACT: note_on channel=5 note=38 velocity=112 time=0
EXTRACT: note_on channel=9 note=36 velocity=127 time=0
EXTRACT: note_on channel=9 note=38 velocity=116 time=0
EXTRACT: note_on channel=9 note=42 velocity=117 time=0
EXTRACT: note_on channel=9 note=70 velocity=106 time=0
EXTRACT: note_off channel=9 note=39 velocity=65 time=0.017
EXTRACT: note_off channel=9 note=70 velocity=65 time=0.007
EXTRACT: note_off channel=9 note=42 velocity=64 time=0
EXTRACT: note_off channel=9 note=38 velocity=64 time=0
EXTRACT: note_off channel=9 note=36 velocity=65 time=0
EXTRACT: note_off channel=5 note=38 velocity=65 time=0.08700000000000001
EXTRACT: note_off channel=2 note=38 velocity=64 time=0
EXTRACT: note_on channel=2 note=38 velocity=74 time=0.009000000000000001
EXTRACT: note_on channel=5 note=38 velocity=62 time=0
EXTRACT: note_off channel=1 note=26 velocity=65 time=0.084
EXTRACT: note_off channel=5 note=38 velocity=65 time=0.027
EXTRACT: note_off channel=2 note=38 velocity=65 time=0
EXTRACT: note_on channel=8 note=62 velocity=96 time=0.006
EXTRACT: note_on channel=8 note=65 velocity=103 time=0
EXTRACT: note_on channel=1 note=38 velocity=122 time=0.003
EXTRACT: note_on channel=2 note=50 velocity=125 time=0
EXTRACT: note_on channel=5 note=38 velocity=113 time=0
EXTRACT: note_on channel=9 note=42 velocity=114 time=0
EXTRACT: note_on channel=9 note=70 velocity=106 time=0
EXTRACT: note_off channel=9 note=70 velocity=64 time=0.024
EXTRACT: note_off channel=9 note=42 velocity=65 time=0
EXTRACT: note_off channel=8 note=65 velocity=64 time=0.029
EXTRACT: note_off channel=8 note=62 velocity=64 time=0
EXTRACT: note_off channel=5 note=38 velocity=64 time=0.058
EXTRACT: note_off channel=2 note=50 velocity=65 time=0
EXTRACT: note_off channel=1 note=38 velocity=64 time=0.003
EXTRACT: note_on channel=8 note=62 velocity=89 time=0.003
EXTRACT: note_on channel=8 note=65 velocity=92 time=0
EXTRACT: note_on channel=2 note=50 velocity=125 time=0.003
EXTRACT: note_on channel=5 note=38 velocity=113 time=0
EXTRACT: note_on channel=9 note=44 velocity=98 time=0
EXTRACT: note_on channel=9 note=70 velocity=87 time=0
EXTRACT: note_off channel=9 note=70 velocity=65 time=0.024
EXTRACT: note_off channel=9 note=44 velocity=64 time=0
EXTRACT: note_off channel=8 note=65 velocity=65 time=0.032
EXTRACT: note_off channel=8 note=62 velocity=65 time=0
EXTRACT: note_off channel=5 note=38 velocity=65 time=0.055
EXTRACT: note_off channel=2 note=50 velocity=64 time=0
EXTRACT: note_on channel=1 note=26 velocity=122 time=0.009000000000000001
EXTRACT: note_on channel=2 note=38 velocity=124 time=0
EXTRACT: note_on channel=5 note=38 velocity=112 time=0
EXTRACT: note_on channel=9 note=36 velocity=127 time=0
EXTRACT: note_on channel=9 note=42 velocity=119 time=0
EXTRACT: note_on channel=9 note=70 velocity=107 time=0
EXTRACT: note_off channel=9 note=70 velocity=65 time=0.024
EXTRACT: note_off channel=9 note=42 velocity=64 time=0
EXTRACT: note_off channel=9 note=36 velocity=64 time=0
EXTRACT: note_off channel=5 note=38 velocity=64 time=0.08700000000000001
EXTRACT: note_off channel=2 note=38 velocity=64 time=0
EXTRACT: note_on channel=2 note=38 velocity=75 time=0.009000000000000001
EXTRACT: note_on channel=5 note=38 velocity=62 time=0
EXTRACT: note_off channel=14 note=74 velocity=65 time=0.074
EXTRACT: note_off channel=11 note=86 velocity=65 time=0
EXTRACT: note_off channel=6 note=74 velocity=65 time=0
EXTRACT: note_off channel=1 note=26 velocity=65 time=0.01
EXTRACT: note_off channel=5 note=38 velocity=64 time=0.027
EXTRACT: note_off channel=2 note=38 velocity=65 time=0
EXTRACT: note_on channel=8 note=62 velocity=96 time=0.006
EXTRACT: note_on channel=8 note=65 velocity=103 time=0
EXTRACT: note_on channel=1 note=38 velocity=123 time=0.003
EXTRACT: note_on channel=2 note=50 velocity=124 time=0
EXTRACT: note_on channel=5 note=38 velocity=113 time=0
EXTRACT: note_on channel=9 note=46 velocity=107 time=0
EXTRACT: note_on channel=9 note=70 velocity=106 time=0
EXTRACT: note_on channel=6 note=74 velocity=66 time=0.021
EXTRACT: note_on channel=11 note=86 velocity=72 time=0
EXTRACT: note_on channel=14 note=74 velocity=72 time=0
EXTRACT: note_off channel=9 note=70 velocity=65 time=0.003
EXTRACT: note_off channel=9 note=46 velocity=65 time=0
EXTRACT: note_off channel=8 note=65 velocity=64 time=0.032
EXTRACT: note_off channel=8 note=62 velocity=64 time=0
EXTRACT: note_on channel=6 note=77 velocity=83 time=0.04
EXTRACT: note_on channel=11 note=89 velocity=74 time=0
EXTRACT: note_on channel=14 note=77 velocity=75 time=0
EXTRACT: note_off channel=5 note=38 velocity=65 time=0.015
EXTRACT: note_off channel=2 note=50 velocity=64 time=0
EXTRACT: note_off channel=14 note=74 velocity=65 time=0.003
EXTRACT: note_off channel=11 note=86 velocity=64 time=0
EXTRACT: note_off channel=6 note=74 velocity=64 time=0
EXTRACT: note_off channel=1 note=38 velocity=65 time=0
EXTRACT: note_on channel=8 note=62 velocity=95 time=0.003
EXTRACT: note_on channel=8 note=65 velocity=100 time=0
EXTRACT: note_on channel=2 note=50 velocity=124 time=0.003
EXTRACT: note_on channel=5 note=38 velocity=113 time=0
EXTRACT: note_on channel=9 note=70 velocity=86 time=0
EXTRACT: note_off channel=9 note=70 velocity=64 time=0.024
EXTRACT: note_on channel=6 note=81 velocity=83 time=0.028
EXTRACT: note_on channel=11 note=93 velocity=91 time=0
EXTRACT: note_on channel=14 note=81 velocity=91 time=0
EXTRACT: note_off channel=8 note=65 velocity=65 time=0.001
EXTRACT: note_off channel=8 note=62 velocity=64 time=0
EXTRACT: note_off channel=14 note=77 velocity=64 time=0.021
EXTRACT: note_off channel=11 note=89 velocity=65 time=0
EXTRACT: note_off channel=6 note=77 velocity=65 time=0
EXTRACT: control_change channel=9 control=91 value=30 time=0.016
EXTRACT: note_off channel=5 note=38 velocity=65 time=0.021
EXTRACT: note_off channel=2 note=50 velocity=65 time=0
EXTRACT: note_on channel=9 note=39 velocity=119 time=0.001
EXTRACT: note_on channel=1 note=26 velocity=122 time=0.008
EXTRACT: note_on channel=2 note=38 velocity=125 time=0
EXTRACT: note_on channel=5 note=38 velocity=112 time=0
EXTRACT: note_on channel=9 note=36 velocity=126 time=0
EXTRACT: note_on channel=9 note=38 velocity=116 time=0
EXTRACT: note_on channel=9 note=42 velocity=122 time=0
EXTRACT: note_on channel=9 note=70 velocity=107 time=0
EXTRACT: note_on channel=6 note=86 velocity=84 time=0.001
EXTRACT: note_on channel=11 note=98 velocity=83 time=0
EXTRACT: note_on channel=14 note=86 velocity=82 time=0
EXTRACT: note_off channel=9 note=39 velocity=64 time=0.016
EXTRACT: note_off channel=9 note=70 velocity=65 time=0.007
EXTRACT: note_off channel=9 note=42 velocity=65 time=0
EXTRACT: note_off channel=9 note=38 velocity=64 time=0
EXTRACT: note_off channel=9 note=36 velocity=64 time=0
EXTRACT: note_off channel=14 note=81 velocity=65 time=0
EXTRACT: note_off channel=11 note=93 velocity=64 time=0
EXTRACT: note_off channel=6 note=81 velocity=65 time=0
EXTRACT: note_off channel=5 note=38 velocity=64 time=0.08700000000000001
EXTRACT: note_off channel=2 note=38 velocity=65 time=0
EXTRACT: note_on channel=2 note=38 velocity=75 time=0.009000000000000001
EXTRACT: note_on channel=5 note=38 velocity=62 time=0
EXTRACT: note_off channel=14 note=86 velocity=64 time=0.034
EXTRACT: note_off channel=11 note=98 velocity=64 time=0
EXTRACT: note_off channel=6 note=86 velocity=64 time=0
EXTRACT: note_on channel=12 note=75 velocity=127 time=0.014
EXTRACT: note_on channel=12 note=78 velocity=126 time=0.001
EXTRACT: note_off channel=1 note=26 velocity=64 time=0.035
EXTRACT: note_off channel=5 note=38 velocity=64 time=0.027
EXTRACT: note_off channel=2 note=38 velocity=64 time=0
EXTRACT: note_on channel=6 note=86 velocity=82 time=0.002
EXTRACT: note_on channel=11 note=98 velocity=88 time=0
EXTRACT: note_on channel=14 note=86 velocity=88 time=0
EXTRACT: note_on channel=8 note=62 velocity=100 time=0.004
EXTRACT: note_on channel=8 note=65 velocity=105 time=0
EXTRACT: note_on channel=1 note=38 velocity=123 time=0.003
EXTRACT: note_on channel=2 note=50 velocity=124 time=0
EXTRACT: note_on channel=5 note=38 velocity=113 time=0
EXTRACT: note_on channel=9 note=42 velocity=122 time=0
EXTRACT: note_on channel=9 note=70 velocity=107 time=0
EXTRACT: note_off channel=9 note=70 velocity=65 time=0.024
EXTRACT: note_off channel=9 note=42 velocity=64 time=0
EXTRACT: note_on channel=6 note=81 velocity=81 time=0.032
EXTRACT: note_on channel=11 note=93 velocity=84 time=0
EXTRACT: note_on channel=14 note=81 velocity=85 time=0
EXTRACT: note_off channel=8 note=65 velocity=65 time=0.005
EXTRACT: note_off channel=8 note=62 velocity=65 time=0
EXTRACT: note_off channel=14 note=86 velocity=64 time=0.003
EXTRACT: note_off channel=11 note=98 velocity=65 time=0
EXTRACT: note_off channel=6 note=86 velocity=65 time=0
EXTRACT: note_off channel=5 note=38 velocity=65 time=0.047
EXTRACT: note_off channel=2 note=50 velocity=65 time=0
EXTRACT: note_off channel=1 note=38 velocity=65 time=0.003
EXTRACT: note_off channel=13 note=69 velocity=65 time=0
EXTRACT: note_on channel=8 note=62 velocity=96 time=0.003
EXTRACT: note_on channel=8 note=65 velocity=103 time=0
EXTRACT: note_on channel=2 note=50 velocity=124 time=0.003
EXTRACT: note_on channel=5 note=38 velocity=112 time=0
EXTRACT: note_on channel=9 note=44 velocity=98 time=0
EXTRACT: note_on channel=9 note=70 velocity=86 time=0
EXTRACT: note_off channel=10 note=65 velocity=65 time=0.01
EXTRACT: note_off channel=10 note=69 velocity=64 time=0.006
EXTRACT: note_off channel=9 note=70 velocity=65 time=0.008
EXTRACT: note_off channel=9 note=44 velocity=65 time=0
EXTRACT: note_off channel=14 note=81 velocity=65 time=0.01
EXTRACT: note_off channel=11 note=93 velocity=65 time=0
EXTRACT: note_off channel=6 note=81 velocity=64 time=0
EXTRACT: note_on channel=6 note=77 velocity=80 time=0.003
EXTRACT: note_on channel=11 note=89 velocity=83 time=0
EXTRACT: note_on channel=14 note=77 velocity=83 time=0
EXTRACT: note_off channel=13 note=62 velocity=64 time=0.017
EXTRACT: note_off channel=8 note=65 velocity=64 time=0.012
EXTRACT: note_off channel=8 note=62 velocity=65 time=0
EXTRACT: note_off channel=13 note=74 velocity=64 time=0.008
EXTRACT: note_off channel=13 note=65 velocity=65 time=0
EXTRACT: note_off channel=12 note=75 velocity=65 time=0.003
EXTRACT: note_off channel=12 note=78 velocity=64 time=0.001
EXTRACT: note_off channel=14 note=77 velocity=65 time=0.026000000000000002
EXTRACT: note_off channel=11 note=89 velocity=64 time=0
EXTRACT: note_off channel=6 note=77 velocity=64 time=0
EXTRACT: note_off channel=5 note=38 velocity=65 time=0.007
EXTRACT: note_off channel=2 note=50 velocity=64 time=0
EXTRACT: note_on channel=1 note=26 velocity=123 time=0.009000000000000001
EXTRACT: note_on channel=2 note=38 velocity=125 time=0
EXTRACT: note_on channel=5 note=38 velocity=113 time=0
EXTRACT: note_on channel=9 note=36 velocity=126 time=0
EXTRACT: note_on channel=9 note=42 velocity=127 time=0
EXTRACT: note_on channel=9 note=70 velocity=106 time=0
EXTRACT: note_on channel=13 note=62 velocity=57 time=0
EXTRACT: note_on channel=13 note=65 velocity=52 time=0
EXTRACT: note_on channel=13 note=74 velocity=46 time=0.002
EXTRACT: note_on channel=10 note=62 velocity=98 time=0.003
EXTRACT: note_on channel=10 note=65 velocity=99 time=0
EXTRACT: note_on channel=13 note=69 velocity=63 time=0
EXTRACT: note_on channel=6 note=74 velocity=73 time=0.002
EXTRACT: note_on channel=11 note=86 velocity=78 time=0
EXTRACT: note_on channel=14 note=74 velocity=78 time=0
EXTRACT: note_off channel=9 note=70 velocity=64 time=0.017
EXTRACT: note_off channel=9 note=42 velocity=65 time=0
EXTRACT: note_off channel=9 note=36 velocity=64 time=0
EXTRACT: note_off channel=5 note=38 velocity=64 time=0.08700000000000001
EXTRACT: note_off channel=2 note=38 velocity=64 time=0
EXTRACT: note_on channel=2 note=38 velocity=75 time=0.009000000000000001
EXTRACT: note_on channel=5 note=38 velocity=73 time=0
EXTRACT: note_off channel=1 note=26 velocity=64 time=0.084
EXTRACT: note_off channel=5 note=38 velocity=64 time=0.027
EXTRACT: note_off channel=2 note=38 velocity=65 time=0
EXTRACT: note_on channel=8 note=62 velocity=95 time=0.006
EXTRACT: note_on channel=8 note=65 velocity=100 time=0
EXTRACT: note_on channel=1 note=38 velocity=122 time=0.003
EXTRACT: note_on channel=2 note=50 velocity=124 time=0
EXTRACT: note_on channel=5 note=38 velocity=112 time=0
EXTRACT: note_on channel=9 note=46 velocity=113 time=0
EXTRACT: note_on channel=9 note=70 velocity=107 time=0
EXTRACT: note_off channel=9 note=70 velocity=64 time=0.024
EXTRACT: note_off channel=9 note=46 velocity=65 time=0
EXTRACT: note_off channel=8 note=65 velocity=64 time=0.033
EXTRACT: note_off channel=8 note=62 velocity=64 time=0
EXTRACT: note_off channel=5 note=38 velocity=65 time=0.054
EXTRACT: note_off channel=2 note=50 velocity=65 time=0
EXTRACT: note_on channel=8 note=62 velocity=73 time=0.006
EXTRACT: note_on channel=8 note=65 velocity=78 time=0
EXTRACT: note_on channel=2 note=50 velocity=124 time=0.003
EXTRACT: note_on channel=5 note=38 velocity=113 time=0
EXTRACT: note_on channel=9 note=70 velocity=86 time=0
EXTRACT: note_off channel=9 note=70 velocity=65 time=0.024
EXTRACT: note_off channel=8 note=65 velocity=65 time=0.04
EXTRACT: note_off channel=8 note=62 velocity=65 time=0
EXTRACT: note_off channel=1 note=38 velocity=64 time=0.035
EXTRACT: note_off channel=5 note=38 velocity=64 time=0.012
EXTRACT: note_off channel=2 note=50 velocity=64 time=0
EXTRACT: note_on channel=9 note=39 velocity=118 time=0.001
EXTRACT: note_on channel=1 note=26 velocity=123 time=0.008
EXTRACT: note_on channel=2 note=38 velocity=125 time=0
EXTRACT: note_on channel=5 note=38 velocity=112 time=0
EXTRACT: note_on channel=9 note=36 velocity=127 time=0
EXTRACT: note_on channel=9 note=38 velocity=117 time=0
EXTRACT: note_on channel=9 note=42 velocity=119 time=0
EXTRACT: note_on channel=9 note=70 velocity=107 time=0
EXTRACT: note_off channel=9 note=39 velocity=64 time=0.017
EXTRACT: note_off channel=9 note=70 velocity=64 time=0.007
EXTRACT: note_off channel=9 note=42 velocity=65 time=0
EXTRACT: note_off channel=9 note=38 velocity=65 time=0
EXTRACT: note_off channel=9 note=36 velocity=64 time=0
EXTRACT: note_off channel=5 note=38 velocity=65 time=0.08700000000000001
EXTRACT: note_off channel=2 note=38 velocity=64 time=0
EXTRACT: note_on channel=2 note=38 velocity=74 time=0.009000000000000001
EXTRACT: note_on channel=5 note=38 velocity=72 time=0
EXTRACT: note_off channel=1 note=26 velocity=65 time=0.069
EXTRACT: note_off channel=5 note=38 velocity=65 time=0.042
EXTRACT: note_off channel=2 note=38 velocity=65 time=0
EXTRACT: note_on channel=8 note=62 velocity=96 time=0.006
EXTRACT: note_on channel=8 note=65 velocity=103 time=0
EXTRACT: note_on channel=1 note=38 velocity=122 time=0.003
EXTRACT: note_on channel=2 note=50 velocity=125 time=0
EXTRACT: note_on channel=5 note=38 velocity=113 time=0
EXTRACT: note_on channel=9 note=42 velocity=116 time=0
EXTRACT: note_on channel=9 note=70 velocity=107 time=0
EXTRACT: note_off channel=9 note=70 velocity=64 time=0.024
EXTRACT: note_off channel=9 note=42 velocity=65 time=0
EXTRACT: note_off channel=8 note=65 velocity=64 time=0.029
EXTRACT: note_off channel=8 note=62 velocity=64 time=0
EXTRACT: note_off channel=5 note=38 velocity=64 time=0.058
EXTRACT: note_off channel=2 note=50 velocity=65 time=0
EXTRACT: note_on channel=8 note=62 velocity=89 time=0.006
EXTRACT: note_on channel=8 note=65 velocity=92 time=0
EXTRACT: note_on channel=2 note=50 velocity=125 time=0.003
EXTRACT: note_on channel=5 note=38 velocity=113 time=0
EXTRACT: note_on channel=9 note=44 velocity=99 time=0
EXTRACT: note_on channel=9 note=70 velocity=86 time=0
EXTRACT: control_change channel=13 control=6 value=52 time=0
EXTRACT: note_off channel=9 note=70 velocity=64 time=0.024
EXTRACT: note_off channel=9 note=44 velocity=65 time=0
EXTRACT: note_off channel=8 note=65 velocity=65 time=0.032
EXTRACT: note_off channel=8 note=62 velocity=65 time=0
EXTRACT: note_off channel=1 note=38 velocity=65 time=0.043000000000000003
EXTRACT: note_off channel=5 note=38 velocity=65 time=0.012
EXTRACT: note_off channel=2 note=50 velocity=64 time=0
EXTRACT: note_on channel=1 note=26 velocity=122 time=0.009000000000000001
EXTRACT: note_on channel=2 note=38 velocity=124 time=0
EXTRACT: note_on channel=5 note=38 velocity=112 time=0
EXTRACT: note_on channel=9 note=36 velocity=127 time=0
EXTRACT: note_on channel=9 note=42 velocity=124 time=0
EXTRACT: note_on channel=9 note=70 velocity=107 time=0
EXTRACT: note_off channel=9 note=70 velocity=65 time=0.024
EXTRACT: note_off channel=9 note=42 velocity=64 time=0
EXTRACT: note_off channel=9 note=36 velocity=65 time=0
EXTRACT: note_off channel=5 note=38 velocity=64 time=0.08700000000000001
EXTRACT: note_off channel=2 note=38 velocity=64 time=0
EXTRACT: note_off channel=6 note=74 velocity=65 time=0.003
EXTRACT: note_on channel=2 note=38 velocity=75 time=0.006
EXTRACT: note_on channel=5 note=38 velocity=72 time=0
EXTRACT: note_off channel=14 note=74 velocity=64 time=0.054
EXTRACT: note_off channel=11 note=86 velocity=64 time=0
EXTRACT: note_off channel=1 note=26 velocity=64 time=0.045
EXTRACT: note_off channel=5 note=38 velocity=64 time=0.012
EXTRACT: note_off channel=2 note=38 velocity=65 time=0
EXTRACT: note_on channel=8 note=62 velocity=96 time=0.006
EXTRACT: note_on channel=8 note=65 velocity=103 time=0
EXTRACT: note_on channel=1 note=38 velocity=123 time=0.003
EXTRACT: note_on channel=2 note=50 velocity=124 time=0
EXTRACT: note_on channel=5 note=38 velocity=113 time=0
EXTRACT: note_on channel=9 note=46 velocity=110 time=0
EXTRACT: note_on channel=9 note=70 velocity=106 time=0
EXTRACT: note_on channel=6 note=74 velocity=73 time=0.001
EXTRACT: note_on channel=11 note=86 velocity=77 time=0
EXTRACT: note_on channel=14 note=74 velocity=76 time=0
EXTRACT: note_off channel=9 note=70 velocity=64 time=0.023
EXTRACT: note_off channel=9 note=46 velocity=64 time=0
EXTRACT: note_off channel=8 note=65 velocity=64 time=0.032
EXTRACT: note_off channel=8 note=62 velocity=64 time=0
EXTRACT: note_on channel=6 note=77 velocity=82 time=0.02
EXTRACT: note_on channel=11 note=89 velocity=89 time=0
EXTRACT: note_on channel=14 note=77 velocity=89 time=0
EXTRACT: note_off channel=14 note=74 velocity=64 time=0.018000000000000002
EXTRACT: note_off channel=11 note=86 velocity=65 time=0
EXTRACT: note_off channel=6 note=74 velocity=65 time=0
EXTRACT: note_off channel=5 note=38 velocity=65 time=0.017
EXTRACT: note_off channel=2 note=50 velocity=64 time=0
EXTRACT: note_on channel=8 note=62 velocity=95 time=0.006
EXTRACT: note_on channel=8 note=65 velocity=100 time=0
EXTRACT: note_on channel=2 note=50 velocity=124 time=0.003
EXTRACT: note_on channel=5 note=38 velocity=113 time=0
EXTRACT: note_on channel=9 note=70 velocity=86 time=0
EXTRACT: note_off channel=9 note=70 velocity=65 time=0.024
EXTRACT: note_on channel=6 note=81 velocity=63 time=0.008
EXTRACT: note_on channel=11 note=93 velocity=78 time=0
EXTRACT: note_on channel=14 note=81 velocity=78 time=0
EXTRACT: note_off channel=8 note=65 velocity=65 time=0.021
EXTRACT: note_off channel=8 note=62 velocity=64 time=0
EXTRACT: note_off channel=14 note=77 velocity=65 time=0.001
EXTRACT: note_off channel=11 note=89 velocity=65 time=0
EXTRACT: note_off channel=6 note=77 velocity=64 time=0
EXTRACT: note_off channel=1 note=38 velocity=64 time=0.03
EXTRACT: note_on channel=6 note=86 velocity=72 time=0.017
EXTRACT: note_on channel=11 note=98 velocity=83 time=0
EXTRACT: note_on channel=14 note=86 velocity=83 time=0
EXTRACT: note_off channel=5 note=38 velocity=65 time=0.01
EXTRACT: note_off channel=2 note=50 velocity=65 time=0
EXTRACT: note_on channel=9 note=39 velocity=119 time=0.001
EXTRACT: note_on channel=1 note=26 velocity=123 time=0.008
EXTRACT: note_on channel=2 note=38 velocity=125 time=0
EXTRACT: note_on channel=5 note=38 velocity=112 time=0
EXTRACT: note_on channel=9 note=36 velocity=126 time=0
EXTRACT: note_on channel=9 note=38 velocity=117 time=0
EXTRACT: note_on channel=9 note=42 velocity=99 time=0
EXTRACT: note_on channel=9 note=70 velocity=107 time=0
EXTRACT: note_off channel=14 note=81 velocity=65 time=0.004
EXTRACT: note_off channel=11 note=93 velocity=64 time=0
EXTRACT: note_off channel=6 note=81 velocity=64 time=0
EXTRACT: note_off channel=9 note=39 velocity=65 time=0.013000000000000001
EXTRACT: note_off channel=9 note=70 velocity=64 time=0.007
EXTRACT: note_off channel=9 note=42 velocity=64 time=0
EXTRACT: note_off channel=9 note=38 velocity=65 time=0
EXTRACT: note_off channel=9 note=36 velocity=65 time=0
EXTRACT: note_off channel=5 note=38 velocity=64 time=0.08700000000000001
EXTRACT: note_off channel=2 note=38 velocity=65 time=0
EXTRACT: note_on channel=2 note=38 velocity=75 time=0.009000000000000001
EXTRACT: note_on channel=5 note=38 velocity=72 time=0
EXTRACT: note_off channel=1 note=26 velocity=65 time=0.084
EXTRACT: note_on channel=6 note=81 velocity=74 time=0.022
EXTRACT: note_on channel=11 note=93 velocity=76 time=0
EXTRACT: note_on channel=14 note=81 velocity=77 time=0
EXTRACT: note_on channel=12 note=75 velocity=127 time=0.002
EXTRACT: note_on channel=12 note=78 velocity=127 time=0.001
EXTRACT: note_off channel=5 note=38 velocity=64 time=0.002
EXTRACT: note_off channel=2 note=38 velocity=64 time=0
EXTRACT: note_on channel=8 note=62 velocity=100 time=0.006
EXTRACT: note_on channel=8 note=65 velocity=105 time=0
EXTRACT: note_on channel=1 note=38 velocity=122 time=0.003
EXTRACT: note_on channel=2 note=50 velocity=124 time=0
EXTRACT: note_on channel=5 note=38 velocity=113 time=0
EXTRACT: note_on channel=9 note=42 velocity=115 time=0
EXTRACT: note_on channel=9 note=70 velocity=107 time=0
EXTRACT: note_off channel=14 note=86 velocity=64 time=0.004
EXTRACT: note_off channel=11 note=98 velocity=64 time=0
EXTRACT: note_off channel=6 note=86 velocity=65 time=0
EXTRACT: note_off channel=9 note=70 velocity=64 time=0.02
EXTRACT: note_off channel=9 note=42 velocity=64 time=0
EXTRACT: note_off channel=8 note=65 velocity=65 time=0.037
EXTRACT: note_off channel=8 note=62 velocity=65 time=0
EXTRACT: note_off channel=5 note=38 velocity=65 time=0.05
EXTRACT: note_off channel=2 note=50 velocity=65 time=0
EXTRACT: note_off channel=14 note=81 velocity=64 time=0.003
EXTRACT: note_off channel=11 note=93 velocity=65 time=0
EXTRACT: note_off channel=6 note=81 velocity=65 time=0
EXTRACT: note_on channel=6 note=77 velocity=73 time=0.003
EXTRACT: note_on channel=8 note=62 velocity=96 time=0
EXTRACT: note_on channel=8 note=65 velocity=103 time=0
EXTRACT: note_on channel=11 note=89 velocity=80 time=0
EXTRACT: note_on channel=14 note=77 velocity=80 time=0
EXTRACT: note_on channel=2 note=50 velocity=124 time=0.003
EXTRACT: note_on channel=5 note=38 velocity=112 time=0
EXTRACT: note_on channel=9 note=44 velocity=99 time=0
EXTRACT: note_on channel=9 note=70 velocity=86 time=0
EXTRACT: note_off channel=9 note=70 velocity=65 time=0.024
EXTRACT: note_off channel=9 note=44 velocity=64 time=0
EXTRACT: note_off channel=8 note=65 velocity=64 time=0.042
EXTRACT: note_off channel=8 note=62 velocity=65 time=0
EXTRACT: note_off channel=1 note=38 velocity=65 time=0.018000000000000002
EXTRACT: note_off channel=5 note=38 velocity=65 time=0.027
EXTRACT: note_off channel=2 note=50 velocity=64 time=0
EXTRACT: note_on channel=6 note=74 velocity=79 time=0.006
EXTRACT: note_on channel=11 note=86 velocity=85 time=0
EXTRACT: note_on channel=14 note=74 velocity=85 time=0
EXTRACT: note_on channel=1 note=26 velocity=122 time=0.003
EXTRACT: note_on channel=2 note=38 velocity=125 time=0
EXTRACT: note_on channel=5 note=38 velocity=113 time=0
EXTRACT: note_on channel=9 note=36 velocity=126 time=0
EXTRACT: note_on channel=9 note=42 velocity=122 time=0
EXTRACT: note_on channel=9 note=70 velocity=106 time=0
EXTRACT: note_off channel=14 note=77 velocity=65 time=0.014
EXTRACT: note_off channel=11 note=89 velocity=64 time=0
EXTRACT: note_off channel=6 note=77 velocity=64 time=0
EXTRACT: note_off channel=12 note=75 velocity=65 time=0.003
EXTRACT: note_off channel=12 note=78 velocity=65 time=0.001
EXTRACT: note_off channel=9 note=70 velocity=65 time=0.006
EXTRACT: note_off channel=9 note=42 velocity=65 time=0
EXTRACT: note_off channel=9 note=36 velocity=64 time=0
EXTRACT: control_change channel=13 control=6 value=54 time=0.056
EXTRACT: note_off channel=5 note=38 velocity=64 time=0.031
EXTRACT: note_off channel=2 note=38 velocity=64 time=0
EXTRACT: note_on channel=6 note=76 velocity=78 time=0.005
EXTRACT: note_on channel=11 note=88 velocity=85 time=0
EXTRACT: note_on channel=14 note=76 velocity=84 time=0
EXTRACT: note_off channel=10 note=62 velocity=64 time=0.003
EXTRACT: note_on channel=2 note=38 velocity=75 time=0.001
EXTRACT: note_on channel=5 note=38 velocity=73 time=0
EXTRACT: note_off channel=14 note=74 velocity=64 time=0.004
EXTRACT: note_off channel=11 note=86 velocity=65 time=0
EXTRACT: note_off channel=6 note=74 velocity=64 time=0
EXTRACT: note_off channel=1 note=26 velocity=64 time=0.08
EXTRACT: note_off channel=5 note=38 velocity=64 time=0.027
EXTRACT: note_off channel=2 note=38 velocity=65 time=0
EXTRACT: note_off channel=13 note=69 velocity=65 time=0.003
EXTRACT: note_off channel=13 note=74 velocity=64 time=0
EXTRACT: note_off channel=13 note=65 velocity=64 time=0
EXTRACT: note_off channel=13 note=62 velocity=65 time=0
EXTRACT: note_on channel=8 note=60 velocity=95 time=0.003
EXTRACT: note_on channel=8 note=65 velocity=100 time=0
EXTRACT: note_on channel=6 note=77 velocity=74 time=0.001
EXTRACT: note_on channel=11 note=89 velocity=92 time=0
EXTRACT: note_on channel=14 note=77 velocity=92 time=0
EXTRACT: note_off channel=10 note=65 velocity=65 time=0.001
EXTRACT: note_on channel=1 note=28 velocity=123 time=0.001
EXTRACT: note_on channel=2 note=52 velocity=124 time=0
EXTRACT: note_on channel=5 note=40 velocity=112 time=0
EXTRACT: note_on channel=9 note=46 velocity=105 time=0
EXTRACT: note_on channel=9 note=70 velocity=107 time=0
EXTRACT: note_on channel=13 note=64 velocity=80 time=0
EXTRACT: note_on channel=10 note=64 velocity=91 time=0.005
EXTRACT: note_on channel=10 note=67 velocity=78 time=0
EXTRACT: note_off channel=14 note=76 velocity=65 time=0
EXTRACT: note_off channel=11 note=88 velocity=65 time=0
EXTRACT: note_off channel=6 note=76 velocity=65 time=0
EXTRACT: note_on channel=13 note=67 velocity=65 time=0.007
EXTRACT: note_on channel=13 note=71 velocity=63 time=0.008
EXTRACT: note_off channel=9 note=70 velocity=65 time=0.004
EXTRACT: note_off channel=9 note=46 velocity=64 time=0
EXTRACT: note_off channel=8 note=65 velocity=64 time=0.033
EXTRACT: note_off channel=8 note=60 velocity=64 time=0
EXTRACT: note_off channel=5 note=40 velocity=65 time=0.054
EXTRACT: note_off channel=2 note=52 velocity=65 time=0
EXTRACT: note_on channel=8 note=60 velocity=73 time=0.006
EXTRACT: note_on channel=8 note=65 velocity=78 time=0
EXTRACT: note_on channel=2 note=52 velocity=124 time=0.003
EXTRACT: note_on channel=5 note=40 velocity=113 time=0
EXTRACT: note_on channel=9 note=70 velocity=87 time=0
EXTRACT: note_on channel=6 note=79 velocity=75 time=0.001
EXTRACT: note_on channel=11 note=91 velocity=82 time=0
EXTRACT: note_on channel=14 note=79 velocity=83 time=0
EXTRACT: note_off channel=14 note=77 velocity=65 time=0.013000000000000001
EXTRACT: note_off channel=11 note=89 velocity=64 time=0
EXTRACT: note_off channel=6 note=77 velocity=64 time=0
EXTRACT: note_off channel=9 note=70 velocity=64 time=0.01
EXTRACT: note_off channel=8 note=65 velocity=65 time=0.04
EXTRACT: note_off channel=8 note=60 velocity=65 time=0
EXTRACT: note_off channel=1 note=28 velocity=64 time=0.005
EXTRACT: note_off channel=13 note=64 velocity=64 time=0.006
EXTRACT: note_on channel=6 note=81 velocity=77 time=0.022
EXTRACT: note_on channel=11 note=93 velocity=87 time=0
EXTRACT: note_on channel=14 note=81 velocity=87 time=0
EXTRACT: note_off channel=5 note=40 velocity=64 time=0.014
EXTRACT: note_off channel=2 note=52 velocity=64 time=0
EXTRACT: note_on channel=9 note=39 velocity=118 time=0.001
EXTRACT: note_off channel=13 note=71 velocity=65 time=0.002
EXTRACT: note_off channel=13 note=67 velocity=65 time=0
EXTRACT: note_off channel=10 note=67 velocity=65 time=0.005
EXTRACT: note_on channel=1 note=29 velocity=123 time=0.001
EXTRACT: note_on channel=2 note=41 velocity=125 time=0
EXTRACT: note_on channel=5 note=41 velocity=112 time=0
EXTRACT: note_on channel=9 note=36 velocity=127 time=0
EXTRACT: note_on channel=9 note=38 velocity=116 time=0
EXTRACT: note_on channel=9 note=42 velocity=110 time=0
EXTRACT: note_on channel=9 note=70 velocity=106 time=0
EXTRACT: note_on channel=13 note=65 velocity=88 time=0
EXTRACT: note_off channel=10 note=64 velocity=64 time=0.001
EXTRACT: note_off channel=14 note=79 velocity=64 time=0.001
EXTRACT: note_off channel=11 note=91 velocity=65 time=0
EXTRACT: note_off channel=6 note=79 velocity=65 time=0
EXTRACT: note_on channel=10 note=65 velocity=104 time=0.003
EXTRACT: note_on channel=10 note=69 velocity=87 time=0
EXTRACT: note_on channel=13 note=69 velocity=35 time=0.012
EXTRACT: note_on channel=13 note=72 velocity=80 time=0
EXTRACT: note_off channel=9 note=39 velocity=65 time=0
EXTRACT: note_off channel=9 note=70 velocity=65 time=0.007
EXTRACT: note_off channel=9 note=42 velocity=64 time=0
EXTRACT: note_off channel=9 note=38 velocity=64 time=0
EXTRACT: note_off channel=9 note=36 velocity=65 time=0
EXTRACT: note_off channel=5 note=41 velocity=65 time=0.08700000000000001
EXTRACT: note_off channel=2 note=41 velocity=64 time=0
EXTRACT: note_on channel=2 note=41 velocity=74 time=0.009000000000000001
EXTRACT: note_on channel=5 note=41 velocity=72 time=0
EXTRACT: note_off channel=1 note=29 velocity=65 time=0.084
EXTRACT: note_off channel=5 note=41 velocity=65 time=0.027
EXTRACT: note_off channel=2 note=41 velocity=65 time=0
EXTRACT: note_on channel=8 note=60 velocity=96 time=0.006
EXTRACT: note_on channel=8 note=65 velocity=103 time=0
EXTRACT: note_on channel=1 note=41 velocity=122 time=0.003
EXTRACT: note_on channel=2 note=53 velocity=125 time=0
EXTRACT: note_on channel=5 note=41 velocity=113 time=0
EXTRACT: note_on channel=9 note=42 velocity=125 time=0
EXTRACT: note_on channel=9 note=70 velocity=106 time=0
EXTRACT: note_off channel=9 note=70 velocity=65 time=0.024
EXTRACT: note_off channel=9 note=42 velocity=64 time=0
EXTRACT: note_off channel=8 note=65 velocity=64 time=0.029
EXTRACT: note_off channel=8 note=60 velocity=64 time=0
EXTRACT: note_off channel=5 note=41 velocity=64 time=0.058
EXTRACT: note_off channel=2 note=53 velocity=65 time=0
EXTRACT: note_on channel=8 note=60 velocity=89 time=0.006
EXTRACT: note_on channel=8 note=65 velocity=92 time=0
EXTRACT: note_on channel=2 note=53 velocity=125 time=0.003
EXTRACT: note_on channel=5 note=41 velocity=113 time=0
EXTRACT: note_on channel=9 note=44 velocity=98 time=0
EXTRACT: note_on channel=9 note=70 velocity=87 time=0
EXTRACT: note_off channel=9 note=70 velocity=64 time=0.024
EXTRACT: note_off channel=9 note=44 velocity=65 time=0
EXTRACT: note_off channel=8 note=65 velocity=65 time=0.032
EXTRACT: note_off channel=8 note=60 velocity=65 time=0
EXTRACT: note_off channel=1 note=41 velocity=64 time=0.028
EXTRACT: note_off channel=5 note=41 velocity=65 time=0.027
EXTRACT: note_off channel=2 note=53 velocity=64 time=0
EXTRACT: note_on channel=1 note=29 velocity=122 time=0.009000000000000001
EXTRACT: note_on channel=2 note=41 velocity=124 time=0
EXTRACT: note_on channel=5 note=41 velocity=112 time=0
EXTRACT: note_on channel=9 note=36 velocity=126 time=0
EXTRACT: note_on channel=9 note=42 velocity=124 time=0
EXTRACT: note_on channel=9 note=70 velocity=106 time=0
EXTRACT: note_off channel=9 note=70 velocity=64 time=0.024
EXTRACT: note_off channel=9 note=42 velocity=65 time=0
EXTRACT: note_off channel=9 note=36 velocity=65 time=0
EXTRACT: note_off channel=5 note=41 velocity=64 time=0.08700000000000001
EXTRACT: note_off channel=2 note=41 velocity=64 time=0
EXTRACT: note_on channel=2 note=41 velocity=75 time=0.009000000000000001
EXTRACT: note_on channel=5 note=41 velocity=72 time=0
EXTRACT: note_off channel=14 note=81 velocity=65 time=0.074
EXTRACT: note_off channel=11 note=93 velocity=64 time=0
EXTRACT: note_off channel=6 note=81 velocity=65 time=0
EXTRACT: note_off channel=1 note=29 velocity=65 time=0.01
EXTRACT: note_off channel=5 note=41 velocity=64 time=0.027
EXTRACT: note_off channel=2 note=41 velocity=65 time=0
EXTRACT: note_on channel=8 note=60 velocity=96 time=0.006
EXTRACT: note_on channel=8 note=65 velocity=103 time=0
EXTRACT: note_on channel=1 note=41 velocity=123 time=0.003
EXTRACT: note_on channel=2 note=53 velocity=124 time=0
EXTRACT: note_on channel=5 note=41 velocity=113 time=0
EXTRACT: note_on channel=9 note=46 velocity=110 time=0
EXTRACT: note_on channel=9 note=70 velocity=107 time=0
EXTRACT: note_on channel=6 note=77 velocity=74 time=0.021
EXTRACT: note_on channel=11 note=89 velocity=83 time=0
EXTRACT: note_on channel=14 note=77 velocity=82 time=0
EXTRACT: note_off channel=9 note=70 velocity=64 time=0.003
EXTRACT: note_off channel=9 note=46 velocity=65 time=0
EXTRACT: note_off channel=8 note=65 velocity=64 time=0.032
EXTRACT: note_off channel=8 note=60 velocity=64 time=0
EXTRACT: note_on channel=6 note=81 velocity=54 time=0.039
EXTRACT: note_on channel=11 note=93 velocity=76 time=0
EXTRACT: note_on channel=14 note=81 velocity=76 time=0
EXTRACT: note_off channel=5 note=41 velocity=65 time=0.016
EXTRACT: note_off channel=2 note=53 velocity=64 time=0
EXTRACT: note_on channel=8 note=60 velocity=95 time=0.006
EXTRACT: note_on channel=8 note=65 velocity=100 time=0
EXTRACT: note_on channel=2 note=53 velocity=124 time=0.003
EXTRACT: note_on channel=5 note=41 velocity=113 time=0
EXTRACT: note_on channel=9 note=70 velocity=87 time=0
EXTRACT: note_off channel=9 note=70 velocity=64 time=0.024
EXTRACT: note_off channel=14 note=77 velocity=64 time=0.01
EXTRACT: note_off channel=11 note=89 velocity=64 time=0
EXTRACT: note_off channel=6 note=77 velocity=64 time=0
EXTRACT: note_on channel=6 note=84 velocity=81 time=0.012
EXTRACT: note_on channel=11 note=96 velocity=84 time=0
EXTRACT: note_on channel=14 note=84 velocity=85 time=0
EXTRACT: note_off channel=8 note=65 velocity=65 time=0.007
EXTRACT: note_off channel=8 note=60 velocity=64 time=0
EXTRACT: note_off channel=14 note=81 velocity=64 time=0.011
EXTRACT: note_off channel=11 note=93 velocity=65 time=0
EXTRACT: note_off channel=6 note=81 velocity=65 time=0
EXTRACT: note_off channel=1 note=41 velocity=65 time=0.02
EXTRACT: note_on channel=6 note=89 velocity=78 time=0.019
EXTRACT: note_on channel=11 note=101 velocity=85 time=0
EXTRACT: note_on channel=14 note=89 velocity=85 time=0
EXTRACT: note_off channel=5 note=41 velocity=65 time=0.008
EXTRACT: note_off channel=2 note=53 velocity=65 time=0
EXTRACT: note_on channel=9 note=39 velocity=118 time=0.001
EXTRACT: note_on channel=1 note=29 velocity=122 time=0.008
EXTRACT: note_on channel=2 note=41 velocity=125 time=0
EXTRACT: note_on channel=5 note=41 velocity=112 time=0
EXTRACT: note_on channel=9 note=36 velocity=127 time=0
EXTRACT: note_on channel=9 note=38 velocity=116 time=0
EXTRACT: note_on channel=9 note=42 velocity=113 time=0
EXTRACT: note_on channel=9 note=70 velocity=106 time=0
EXTRACT: note_off channel=14 note=84 velocity=65 time=0.014
EXTRACT: note_off channel=11 note=96 velocity=65 time=0
EXTRACT: note_off channel=6 note=84 velocity=64 time=0
EXTRACT: note_off channel=9 note=39 velocity=64 time=0.003
EXTRACT: note_off channel=9 note=70 velocity=65 time=0.007
EXTRACT: note_off channel=9 note=42 velocity=65 time=0
EXTRACT: note_off channel=9 note=38 velocity=64 time=0
EXTRACT: note_off channel=9 note=36 velocity=64 time=0
EXTRACT: control_change channel=13 control=6 value=56 time=0.016
EXTRACT: note_off channel=5 note=41 velocity=64 time=0.07100000000000001
EXTRACT: note_off channel=2 note=41 velocity=65 time=0
EXTRACT: note_on channel=2 note=41 velocity=75 time=0.009000000000000001
EXTRACT: note_on channel=5 note=41 velocity=72 time=0
EXTRACT: note_on channel=12 note=76 velocity=126 time=0.077
EXTRACT: note_off channel=1 note=29 velocity=64 time=0.007
EXTRACT: note_on channel=12 note=84 velocity=127 time=0.003
EXTRACT: note_off channel=14 note=89 velocity=65 time=0.007
EXTRACT: note_off channel=11 note=101 velocity=64 time=0
EXTRACT: note_off channel=6 note=89 velocity=64 time=0
EXTRACT: note_on channel=6 note=88 velocity=75 time=0.016
EXTRACT: note_on channel=11 note=100 velocity=80 time=0
EXTRACT: note_on channel=14 note=88 velocity=80 time=0
EXTRACT: note_off channel=5 note=41 velocity=64 time=0.001
EXTRACT: note_off channel=2 note=41 velocity=64 time=0
EXTRACT: note_on channel=8 note=60 velocity=100 time=0.006
EXTRACT: note_on channel=8 note=65 velocity=105 time=0
EXTRACT: note_off channel=10 note=69 velocity=64 time=0.002
EXTRACT: note_off channel=10 note=65 velocity=65 time=0
EXTRACT: note_on channel=1 note=31 velocity=123 time=0.001
EXTRACT: note_on channel=2 note=55 velocity=124 time=0
EXTRACT: note_on channel=5 note=43 velocity=113 time=0
EXTRACT: note_on channel=9 note=42 velocity=109 time=0
EXTRACT: note_on channel=9 note=70 velocity=107 time=0
EXTRACT: note_on channel=13 note=67 velocity=80 time=0
EXTRACT: note_on channel=13 note=71 velocity=65 time=0
EXTRACT: note_on channel=10 note=67 velocity=87 time=0.005
EXTRACT: note_on channel=10 note=71 velocity=86 time=0
EXTRACT: note_off channel=13 note=72 velocity=64 time=0.006
EXTRACT: note_off channel=13 note=69 velocity=65 time=0
EXTRACT: note_off channel=13 note=65 velocity=64 time=0
EXTRACT: note_on channel=13 note=74 velocity=63 time=0.009000000000000001
EXTRACT: note_off channel=9 note=70 velocity=65 time=0.004
EXTRACT: note_off channel=9 note=42 velocity=65 time=0
EXTRACT: note_off channel=8 note=65 velocity=65 time=0.037
EXTRACT: note_off channel=8 note=60 velocity=65 time=0
EXTRACT: note_off channel=5 note=43 velocity=65 time=0.05
EXTRACT: note_off channel=2 note=55 velocity=65 time=0
EXTRACT: note_on channel=8 note=60 velocity=96 time=0.006
EXTRACT: note_on channel=8 note=65 velocity=103 time=0
EXTRACT: note_on channel=2 note=55 velocity=124 time=0.003
EXTRACT: note_on channel=5 note=43 velocity=112 time=0
EXTRACT: note_on channel=9 note=44 velocity=98 time=0
EXTRACT: note_on channel=9 note=70 velocity=86 time=0
EXTRACT: note_off channel=14 note=88 velocity=64 time=0.004
EXTRACT: note_off channel=11 note=100 velocity=64 time=0
EXTRACT: note_off channel=6 note=88 velocity=65 time=0
EXTRACT: note_on channel=6 note=84 velocity=73 time=0.003
EXTRACT: note_on channel=11 note=96 velocity=79 time=0
EXTRACT: note_on channel=14 note=84 velocity=78 time=0
EXTRACT: note_off channel=9 note=70 velocity=64 time=0.017
EXTRACT: note_off channel=9 note=44 velocity=64 time=0
EXTRACT: note_off channel=8 note=65 velocity=64 time=0.042
EXTRACT: note_off channel=8 note=60 velocity=65 time=0
EXTRACT: note_off channel=1 note=31 velocity=65 time=0.018000000000000002
EXTRACT: control_change channel=9 control=91 value=20 time=0.006
EXTRACT: note_off channel=12 note=76 velocity=64 time=0.016
EXTRACT: note_off channel=5 note=43 velocity=65 time=0.005
EXTRACT: note_off channel=2 note=55 velocity=64 time=0
EXTRACT: note_off channel=13 note=74 velocity=64 time=0.003
EXTRACT: note_off channel=13 note=71 velocity=65 time=0
EXTRACT: note_off channel=13 note=67 velocity=65 time=0
EXTRACT: note_off channel=12 note=84 velocity=65 time=0.002
EXTRACT: note_off channel=10 note=71 velocity=65 time=0.003
EXTRACT: note_off channel=10 note=67 velocity=64 time=0
EXTRACT: note_on channel=1 note=33 velocity=123 time=0.001
EXTRACT: note_on channel=2 note=45 velocity=125 time=0
EXTRACT: note_on channel=5 note=45 velocity=113 time=0
EXTRACT: note_on channel=9 note=36 velocity=127 time=0
EXTRACT: note_on channel=9 note=42 velocity=124 time=0
EXTRACT: note_on channel=9 note=70 velocity=106 time=0
EXTRACT: note_on channel=13 note=69 velocity=56 time=0
EXTRACT: note_on channel=10 note=69 velocity=92 time=0.005
EXTRACT: note_on channel=10 note=72 velocity=103 time=0
EXTRACT: note_on channel=6 note=81 velocity=78 time=0.002
EXTRACT: note_on channel=11 note=93 velocity=85 time=0
EXTRACT: note_on channel=14 note=81 velocity=85 time=0
EXTRACT: note_on channel=13 note=76 velocity=68 time=0.002
EXTRACT: note_on channel=13 note=72 velocity=61 time=0.003
EXTRACT: note_off channel=14 note=84 velocity=64 time=0.001
EXTRACT: note_off channel=11 note=96 velocity=65 time=0
EXTRACT: note_off channel=6 note=84 velocity=65 time=0
EXTRACT: note_off channel=9 note=70 velocity=65 time=0.011
EXTRACT: note_off channel=9 note=42 velocity=64 time=0
EXTRACT: note_off channel=9 note=36 velocity=65 time=0
EXTRACT: note_off channel=5 note=45 velocity=64 time=0.08700000000000001
EXTRACT: note_off channel=2 note=45 velocity=64 time=0
EXTRACT: note_on channel=2 note=45 velocity=75 time=0.009000000000000001
EXTRACT: note_on channel=5 note=45 velocity=73 time=0
EXTRACT: note_off channel=1 note=33 velocity=64 time=0.099
EXTRACT: note_off channel=5 note=45 velocity=64 time=0.012
EXTRACT: note_off channel=2 note=45 velocity=65 time=0
EXTRACT: note_on channel=8 note=60 velocity=95 time=0.006
EXTRACT: note_on channel=8 note=64 velocity=100 time=0
EXTRACT: note_on channel=1 note=45 velocity=122 time=0.003
EXTRACT: note_on channel=2 note=57 velocity=124 time=0
EXTRACT: note_on channel=5 note=45 velocity=112 time=0
EXTRACT: note_on channel=9 note=46 velocity=110 time=0
EXTRACT: note_on channel=9 note=70 velocity=107 time=0
EXTRACT: note_off channel=9 note=70 velocity=65 time=0.024
EXTRACT: note_off channel=9 note=46 velocity=64 time=0
EXTRACT: note_off channel=8 note=64 velocity=64 time=0.033
EXTRACT: note_off channel=8 note=60 velocity=64 time=0
EXTRACT: note_off channel=5 note=45 velocity=65 time=0.054
EXTRACT: note_off channel=2 note=57 velocity=65 time=0
EXTRACT: note_on channel=8 note=60 velocity=73 time=0.006
EXTRACT: note_on channel=8 note=64 velocity=78 time=0
EXTRACT: note_on channel=2 note=57 velocity=124 time=0.003
EXTRACT: note_on channel=5 note=45 velocity=113 time=0
EXTRACT: note_on channel=9 note=70 velocity=87 time=0
EXTRACT: note_off channel=9 note=70 velocity=65 time=0.024
EXTRACT: note_off channel=8 note=64 velocity=65 time=0.04
EXTRACT: note_off channel=8 note=60 velocity=65 time=0
EXTRACT: note_off channel=1 note=45 velocity=64 time=0.02
EXTRACT: note_off channel=5 note=45 velocity=64 time=0.027
EXTRACT: note_off channel=2 note=57 velocity=64 time=0
EXTRACT: note_on channel=9 note=39 velocity=119 time=0.001
EXTRACT: note_on channel=1 note=33 velocity=123 time=0.008
EXTRACT: note_on channel=2 note=45 velocity=125 time=0
EXTRACT: note_on channel=5 note=45 velocity=112 time=0
EXTRACT: note_on channel=9 note=36 velocity=126 time=0
EXTRACT: note_on channel=9 note=38 velocity=117 time=0
EXTRACT: note_on channel=9 note=42 velocity=123 time=0
EXTRACT: note_on channel=9 note=70 velocity=106 time=0
EXTRACT: control_change channel=2 control=6 value=61 time=0
EXTRACT: note_off channel=9 note=39 velocity=64 time=0.017
EXTRACT: note_off channel=9 note=70 velocity=64 time=0.007
EXTRACT: note_off channel=9 note=42 velocity=65 time=0
EXTRACT: note_off channel=9 note=38 velocity=65 time=0
EXTRACT: note_off channel=9 note=36 velocity=64 time=0
EXTRACT: note_off channel=5 note=45 velocity=65 time=0.08700000000000001
EXTRACT: note_off channel=2 note=45 velocity=64 time=0
EXTRACT: note_on channel=2 note=45 velocity=74 time=0.009000000000000001
EXTRACT: note_on channel=5 note=45 velocity=72 time=0
EXTRACT: note_off channel=1 note=33 velocity=65 time=0.099
EXTRACT: note_off channel=5 note=45 velocity=65 time=0.012
EXTRACT: note_off channel=2 note=45 velocity=65 time=0
EXTRACT: note_on channel=8 note=60 velocity=96 time=0.006
EXTRACT: note_on channel=8 note=64 velocity=103 time=0
EXTRACT: note_on channel=1 note=45 velocity=122 time=0.003
EXTRACT: note_on channel=2 note=57 velocity=125 time=0
EXTRACT: note_on channel=5 note=45 velocity=113 time=0
EXTRACT: note_on channel=9 note=42 velocity=116 time=0
EXTRACT: note_on channel=9 note=70 velocity=106 time=0
EXTRACT: note_off channel=9 note=70 velocity=64 time=0.024
EXTRACT: note_off channel=9 note=42 velocity=65 time=0
EXTRACT: note_off channel=8 note=64 velocity=64 time=0.029
EXTRACT: note_off channel=8 note=60 velocity=64 time=0
EXTRACT: control_change channel=13 control=6 value=58 time=0.027
EXTRACT: note_off channel=5 note=45 velocity=64 time=0.031
EXTRACT: note_off channel=2 note=57 velocity=65 time=0
EXTRACT: note_on channel=8 note=60 velocity=89 time=0.006
EXTRACT: note_on channel=8 note=64 velocity=92 time=0
EXTRACT: note_on channel=2 note=57 velocity=125 time=0.003
EXTRACT: note_on channel=5 note=45 velocity=113 time=0
EXTRACT: note_on channel=9 note=44 velocity=99 time=0
EXTRACT: note_on channel=9 note=70 velocity=87 time=0
EXTRACT: note_off channel=9 note=70 velocity=65 time=0.024
EXTRACT: note_off channel=9 note=44 velocity=64 time=0
EXTRACT: note_off channel=8 note=64 velocity=65 time=0.032
EXTRACT: note_off channel=8 note=60 velocity=65 time=0
EXTRACT: note_off channel=1 note=45 velocity=65 time=0.028
EXTRACT: note_off channel=5 note=45 velocity=65 time=0.027
EXTRACT: note_off channel=2 note=57 velocity=64 time=0
EXTRACT: note_on channel=1 note=33 velocity=122 time=0.009000000000000001
EXTRACT: note_on channel=2 note=45 velocity=124 time=0
EXTRACT: note_on channel=5 note=45 velocity=112 time=0
EXTRACT: note_on channel=9 note=36 velocity=127 time=0
EXTRACT: note_on channel=9 note=42 velocity=124 time=0
EXTRACT: note_on channel=9 note=70 velocity=107 time=0
EXTRACT: note_off channel=9 note=70 velocity=64 time=0.024
EXTRACT: note_off channel=9 note=42 velocity=65 time=0
EXTRACT: note_off channel=9 note=36 velocity=64 time=0
EXTRACT: note_off channel=14 note=81 velocity=65 time=0.068
EXTRACT: note_off channel=11 note=93 velocity=65 time=0
EXTRACT: note_off channel=6 note=81 velocity=64 time=0
EXTRACT: note_off channel=5 note=45 velocity=64 time=0.019
EXTRACT: note_off channel=2 note=45 velocity=64 time=0
EXTRACT: note_on channel=2 note=45 velocity=75 time=0.009000000000000001
EXTRACT: note_on channel=5 note=45 velocity=72 time=0
EXTRACT: note_off channel=1 note=33 velocity=64 time=0.084
EXTRACT: note_off channel=5 note=45 velocity=64 time=0.027
EXTRACT: note_off channel=2 note=45 velocity=65 time=0
EXTRACT: note_on channel=8 note=60 velocity=96 time=0.006
EXTRACT: note_on channel=8 note=64 velocity=103 time=0
EXTRACT: note_on channel=1 note=45 velocity=123 time=0.003
EXTRACT: note_on channel=2 note=57 velocity=124 time=0
EXTRACT: note_on channel=5 note=45 velocity=113 time=0
EXTRACT: note_on channel=9 note=46 velocity=107 time=0
EXTRACT: note_on channel=9 note=70 velocity=106 time=0
EXTRACT: note_off channel=9 note=70 velocity=65 time=0.024
EXTRACT: note_off channel=9 note=46 velocity=65 time=0
EXTRACT: note_on channel=6 note=76 velocity=73 time=0.024
EXTRACT: note_on channel=11 note=88 velocity=88 time=0
EXTRACT: note_on channel=14 note=76 velocity=88 time=0
EXTRACT: note_off channel=8 note=64 velocity=64 time=0.008
EXTRACT: note_off channel=8 note=60 velocity=64 time=0
EXTRACT: note_off channel=5 note=45 velocity=65 time=0.055
EXTRACT: note_off channel=2 note=57 velocity=64 time=0
EXTRACT: note_on channel=6 note=81 velocity=68 time=0.005
EXTRACT: note_on channel=11 note=93 velocity=81 time=0
EXTRACT: note_on channel=14 note=81 velocity=81 time=0
EXTRACT: note_on channel=8 note=60 velocity=95 time=0.001
EXTRACT: note_on channel=8 note=64 velocity=100 time=0
EXTRACT: note_on channel=2 note=57 velocity=124 time=0.003
EXTRACT: note_on channel=5 note=45 velocity=113 time=0
EXTRACT: note_on channel=9 note=70 velocity=86 time=0
EXTRACT: note_off channel=9 note=70 velocity=64 time=0.024
EXTRACT: note_off channel=8 note=64 velocity=65 time=0.029
EXTRACT: note_off channel=8 note=60 velocity=64 time=0
EXTRACT: note_on channel=6 note=84 velocity=68 time=0.002
EXTRACT: note_on channel=11 note=96 velocity=82 time=0
EXTRACT: note_on channel=14 note=84 velocity=83 time=0
EXTRACT: note_off channel=14 note=76 velocity=65 time=0.026000000000000002
EXTRACT: note_off channel=11 note=88 velocity=64 time=0
EXTRACT: note_off channel=6 note=76 velocity=64 time=0
EXTRACT: note_off channel=1 note=45 velocity=64 time=0.003
EXTRACT: note_off channel=5 note=45 velocity=65 time=0.027
EXTRACT: note_off channel=2 note=57 velocity=65 time=0
EXTRACT: note_on channel=9 note=39 velocity=119 time=0.001
EXTRACT: note_off channel=13 note=76 velocity=64 time=0.002
EXTRACT: note_on channel=6 note=88 velocity=83 time=0.004
EXTRACT: note_on channel=11 note=100 velocity=86 time=0
EXTRACT: note_on channel=14 note=88 velocity=86 time=0
EXTRACT: note_off channel=14 note=81 velocity=64 time=0
EXTRACT: note_off channel=11 note=93 velocity=64 time=0
EXTRACT: note_off channel=6 note=81 velocity=65 time=0
EXTRACT: note_on channel=1 note=33 velocity=123 time=0.002
EXTRACT: note_on channel=2 note=45 velocity=125 time=0
EXTRACT: note_on channel=5 note=45 velocity=112 time=0
EXTRACT: note_on channel=9 note=36 velocity=126 time=0
EXTRACT: note_on channel=9 note=38 velocity=116 time=0
EXTRACT: note_on channel=9 note=42 velocity=117 time=0
EXTRACT: note_on channel=9 note=70 velocity=107 time=0
EXTRACT: note_on channel=13 note=77 velocity=69 time=0
EXTRACT: note_off channel=9 note=39 velocity=65 time=0.017
EXTRACT: note_off channel=9 note=70 velocity=64 time=0.007
EXTRACT: note_off channel=9 note=42 velocity=64 time=0
EXTRACT: note_off channel=9 note=38 velocity=65 time=0
EXTRACT: note_off channel=9 note=36 velocity=65 time=0
EXTRACT: note_off channel=14 note=84 velocity=64 time=0.02
EXTRACT: note_off channel=11 note=96 velocity=65 time=0
EXTRACT: note_off channel=6 note=84 velocity=65 time=0
EXTRACT: note_off channel=5 note=45 velocity=64 time=0.067
EXTRACT: note_off channel=2 note=45 velocity=65 time=0
EXTRACT: note_on channel=2 note=45 velocity=75 time=0.009000000000000001
EXTRACT: note_on channel=5 note=45 velocity=72 time=0
EXTRACT: note_off channel=14 note=88 velocity=65 time=0.044
EXTRACT: note_off channel=11 note=100 velocity=64 time=0
EXTRACT: note_off channel=6 note=88 velocity=64 time=0
EXTRACT: note_off channel=1 note=33 velocity=65 time=0.04
EXTRACT: note_off channel=5 note=45 velocity=64 time=0.027
EXTRACT: note_off channel=2 note=45 velocity=64 time=0
EXTRACT: note_on channel=6 note=88 velocity=83 time=0.002
EXTRACT: note_on channel=11 note=100 velocity=87 time=0
EXTRACT: note_on channel=14 note=88 velocity=87 time=0
EXTRACT: note_on channel=8 note=60 velocity=100 time=0.004
EXTRACT: note_on channel=8 note=64 velocity=105 time=0
EXTRACT: note_on channel=1 note=43 velocity=122 time=0.003
EXTRACT: note_on channel=2 note=55 velocity=124 time=0
EXTRACT: note_on channel=5 note=43 velocity=113 time=0
EXTRACT: note_on channel=9 note=42 velocity=117 time=0
EXTRACT: note_on channel=9 note=70 velocity=106 time=0
EXTRACT: note_off channel=9 note=70 velocity=64 time=0.024
EXTRACT: note_off channel=9 note=42 velocity=64 time=0
EXTRACT: note_off channel=14 note=88 velocity=64 time=0
EXTRACT: note_off channel=11 note=100 velocity=65 time=0
EXTRACT: note_off channel=6 note=88 velocity=64 time=0
EXTRACT: note_on channel=6 note=84 velocity=82 time=0.019
EXTRACT: note_on channel=11 note=96 velocity=87 time=0
EXTRACT: note_on channel=14 note=84 velocity=86 time=0
EXTRACT: note_off channel=8 note=64 velocity=65 time=0.018000000000000002
EXTRACT: note_off channel=8 note=60 velocity=65 time=0
EXTRACT: note_on channel=6 note=81 velocity=76 time=0.038
EXTRACT: note_on channel=11 note=93 velocity=82 time=0
EXTRACT: note_on channel=14 note=81 velocity=82 time=0
EXTRACT: note_off channel=14 note=84 velocity=65 time=0.005
EXTRACT: note_off channel=11 note=96 velocity=65 time=0
EXTRACT: note_off channel=6 note=84 velocity=65 time=0
EXTRACT: note_off channel=5 note=43 velocity=65 time=0.007
EXTRACT: note_off channel=2 note=55 velocity=65 time=0
EXTRACT: note_off channel=1 note=43 velocity=65 time=0.003
EXTRACT: note_on channel=8 note=60 velocity=96 time=0.003
EXTRACT: note_on channel=8 note=64 velocity=103 time=0
EXTRACT: note_on channel=1 note=41 velocity=122 time=0.003
EXTRACT: note_on channel=2 note=53 velocity=124 time=0
EXTRACT: note_on channel=5 note=41 velocity=112 time=0
EXTRACT: note_on channel=9 note=44 velocity=98 time=0
EXTRACT: note_on channel=9 note=70 velocity=87 time=0
EXTRACT: note_off channel=9 note=70 velocity=65 time=0.024
EXTRACT: note_off channel=9 note=44 velocity=65 time=0
EXTRACT: note_off channel=14 note=81 velocity=65 time=0.02
EXTRACT: note_off channel=11 note=93 velocity=64 time=0
EXTRACT: note_off channel=6 note=81 velocity=64 time=0
EXTRACT: note_off channel=8 note=64 velocity=64 time=0.022
EXTRACT: note_off channel=8 note=60 velocity=65 time=0
EXTRACT: note_on channel=6 note=77 velocity=79 time=0.001
EXTRACT: note_on channel=11 note=89 velocity=84 time=0
EXTRACT: note_on channel=14 note=77 velocity=85 time=0
EXTRACT: control_change channel=13 control=6 value=60 time=0.013000000000000001
EXTRACT: note_off channel=10 note=72 velocity=64 time=0.001
EXTRACT: note_off channel=10 note=69 velocity=65 time=0.005
EXTRACT: note_off channel=5 note=41 velocity=65 time=0.025
EXTRACT: note_off channel=2 note=53 velocity=64 time=0
EXTRACT: note_off channel=1 note=41 velocity=64 time=0.003
EXTRACT: note_off channel=13 note=72 velocity=64 time=0
EXTRACT: note_off channel=13 note=69 velocity=65 time=0
EXTRACT: note_on channel=1 note=26 velocity=123 time=0.006
EXTRACT: note_on channel=2 note=38 velocity=125 time=0
EXTRACT: note_on channel=5 note=38 velocity=113 time=0
EXTRACT: note_on channel=9 note=36 velocity=126 time=0
EXTRACT: note_on channel=9 note=42 velocity=116 time=0
EXTRACT: note_on channel=9 note=70 velocity=107 time=0
EXTRACT: note_on channel=13 note=62 velocity=56 time=0
EXTRACT: note_on channel=13 note=65 velocity=52 time=0
EXTRACT: note_on channel=13 note=74 velocity=47 time=0.002
EXTRACT: note_on channel=10 note=65 velocity=94 time=0.003
EXTRACT: note_on channel=10 note=69 velocity=101 time=0
EXTRACT: note_on channel=13 note=69 velocity=62 time=0
EXTRACT: note_on channel=6 note=74 velocity=77 time=0.003
EXTRACT: note_on channel=11 note=86 velocity=85 time=0
EXTRACT: note_on channel=14 note=74 velocity=85 time=0
EXTRACT: note_off channel=14 note=77 velocity=64 time=0.006
EXTRACT: note_off channel=11 note=89 velocity=65 time=0
EXTRACT: note_off channel=6 note=77 velocity=65 time=0
EXTRACT: note_off channel=9 note=70 velocity=64 time=0.01
EXTRACT: note_off channel=9 note=42 velocity=64 time=0
EXTRACT: note_off channel=9 note=36 velocity=65 time=0
EXTRACT: note_off channel=13 note=77 velocity=65 time=0.005
EXTRACT: note_off channel=5 note=38 velocity=64 time=0.082
EXTRACT: note_off channel=2 note=38 velocity=64 time=0
EXTRACT: note_on channel=2 note=38 velocity=75 time=0.009000000000000001
EXTRACT: note_on channel=5 note=38 velocity=73 time=0
EXTRACT: note_off channel=1 note=26 velocity=64 time=0.084
EXTRACT: note_off channel=5 note=38 velocity=64 time=0.027
EXTRACT: note_off channel=2 note=38 velocity=65 time=0
EXTRACT: note_on channel=8 note=62 velocity=95 time=0.006
EXTRACT: note_on channel=8 note=65 velocity=100 time=0
EXTRACT: note_on channel=1 note=38 velocity=123 time=0.003
EXTRACT: note_on channel=2 note=50 velocity=124 time=0
EXTRACT: note_on channel=5 note=38 velocity=112 time=0
EXTRACT: note_on channel=9 note=46 velocity=105 time=0
EXTRACT: note_on channel=9 note=70 velocity=106 time=0
EXTRACT: note_off channel=9 note=70 velocity=64 time=0.024
EXTRACT: note_off channel=9 note=46 velocity=65 time=0
EXTRACT: note_off channel=8 note=65 velocity=64 time=0.033
EXTRACT: note_off channel=8 note=62 velocity=64 time=0
EXTRACT: note_off channel=5 note=38 velocity=65 time=0.054
EXTRACT: note_off channel=2 note=50 velocity=65 time=0
EXTRACT: note_off channel=1 note=38 velocity=65 time=0.003
EXTRACT: note_on channel=8 note=62 velocity=73 time=0.003
EXTRACT: note_on channel=8 note=65 velocity=78 time=0
EXTRACT: note_on channel=2 note=50 velocity=124 time=0.003
EXTRACT: note_on channel=5 note=38 velocity=113 time=0
EXTRACT: note_on channel=9 note=70 velocity=87 time=0
EXTRACT: note_off channel=9 note=70 velocity=65 time=0.024
EXTRACT: note_off channel=8 note=65 velocity=65 time=0.04
EXTRACT: note_off channel=8 note=62 velocity=65 time=0
EXTRACT: note_off channel=5 note=38 velocity=64 time=0.047
EXTRACT: note_off channel=2 note=50 velocity=64 time=0
EXTRACT: note_on channel=9 note=39 velocity=118 time=0.001
EXTRACT: note_on channel=1 note=26 velocity=122 time=0.008
EXTRACT: note_on channel=2 note=38 velocity=125 time=0
EXTRACT: note_on channel=5 note=38 velocity=112 time=0
EXTRACT: note_on channel=9 note=36 velocity=127 time=0
EXTRACT: note_on channel=9 note=38 velocity=117 time=0
EXTRACT: note_on channel=9 note=42 velocity=116 time=0
EXTRACT: note_on channel=9 note=70 velocity=106 time=0
EXTRACT: note_off channel=9 note=39 velocity=64 time=0.017
EXTRACT: note_off channel=9 note=70 velocity=65 time=0.007
EXTRACT: note_off channel=9 note=42 velocity=64 time=0
EXTRACT: note_off channel=9 note=38 velocity=64 time=0
EXTRACT: note_off channel=9 note=36 velocity=65 time=0
EXTRACT: note_off channel=5 note=38 velocity=65 time=0.08700000000000001
EXTRACT: note_off channel=2 note=38 velocity=64 time=0
EXTRACT: note_on channel=2 note=38 velocity=74 time=0.009000000000000001
EXTRACT: note_on channel=5 note=38 velocity=72 time=0
EXTRACT: note_off channel=1 note=26 velocity=64 time=0.084
EXTRACT: note_off channel=5 note=38 velocity=65 time=0.027
EXTRACT: note_off channel=2 note=38 velocity=65 time=0
EXTRACT: note_on channel=8 note=62 velocity=96 time=0.006
EXTRACT: note_on channel=8 note=65 velocity=103 time=0
EXTRACT: note_on channel=1 note=38 velocity=122 time=0.003
EXTRACT: note_on channel=2 note=50 velocity=125 time=0
EXTRACT: note_on channel=5 note=38 velocity=113 time=0
EXTRACT: note_on channel=9 note=42 velocity=115 time=0
EXTRACT: note_on channel=9 note=70 velocity=106 time=0
EXTRACT: note_off channel=9 note=70 velocity=65 time=0.024
EXTRACT: note_off channel=9 note=42 velocity=64 time=0
EXTRACT: note_on channel=12 note=77 velocity=100 time=0.009000000000000001
EXTRACT: note_on channel=12 note=76 velocity=70 time=0.001
EXTRACT: note_off channel=8 note=65 velocity=64 time=0.019
EXTRACT: note_off channel=8 note=62 velocity=64 time=0
EXTRACT: note_off channel=5 note=38 velocity=64 time=0.058
EXTRACT: note_off channel=2 note=50 velocity=65 time=0
EXTRACT: note_off channel=1 note=38 velocity=65 time=0.003
EXTRACT: note_on channel=8 note=62 velocity=89 time=0.003
EXTRACT: note_on channel=8 note=65 velocity=92 time=0
EXTRACT: note_on channel=2 note=50 velocity=125 time=0.003
EXTRACT: note_on channel=5 note=38 velocity=113 time=0
EXTRACT: note_on channel=9 note=44 velocity=99 time=0
EXTRACT: note_on channel=9 note=70 velocity=87 time=0
EXTRACT: note_off channel=9 note=70 velocity=64 time=0.024
EXTRACT: note_off channel=9 note=44 velocity=65 time=0
EXTRACT: note_off channel=8 note=65 velocity=65 time=0.032
EXTRACT: note_off channel=8 note=62 velocity=65 time=0
EXTRACT: note_off channel=5 note=38 velocity=65 time=0.055
EXTRACT: note_off channel=2 note=50 velocity=64 time=0
EXTRACT: note_on channel=1 note=26 velocity=123 time=0.009000000000000001
EXTRACT: note_on channel=2 note=38 velocity=124 time=0
EXTRACT: note_on channel=5 note=38 velocity=112 time=0
EXTRACT: note_on channel=9 note=36 velocity=127 time=0
EXTRACT: note_on channel=9 note=42 velocity=119 time=0
EXTRACT: note_on channel=9 note=70 velocity=107 time=0
EXTRACT: note_off channel=9 note=70 velocity=65 time=0.024
EXTRACT: note_off channel=9 note=42 velocity=64 time=0
EXTRACT: note_off channel=9 note=36 velocity=64 time=0
EXTRACT: note_off channel=5 note=38 velocity=64 time=0.08700000000000001
EXTRACT: note_off channel=2 note=38 velocity=64 time=0
EXTRACT: note_on channel=2 note=38 velocity=75 time=0.009000000000000001
EXTRACT: note_on channel=5 note=38 velocity=72 time=0
EXTRACT: note_off channel=6 note=74 velocity=65 time=0.074
EXTRACT: note_off channel=1 note=26 velocity=65 time=0.01
EXTRACT: note_off channel=14 note=74 velocity=65 time=0.01
EXTRACT: note_off channel=5 note=38 velocity=64 time=0.017
EXTRACT: note_off channel=2 note=38 velocity=65 time=0
EXTRACT: note_on channel=8 note=62 velocity=96 time=0.006
EXTRACT: note_on channel=8 note=65 velocity=103 time=0
EXTRACT: note_on channel=1 note=38 velocity=122 time=0.003
EXTRACT: note_on channel=2 note=50 velocity=124 time=0
EXTRACT: note_on channel=5 note=38 velocity=113 time=0
EXTRACT: note_on channel=9 note=46 velocity=106 time=0
EXTRACT: note_on channel=9 note=70 velocity=106 time=0
EXTRACT: note_on channel=6 note=74 velocity=72 time=0.001
EXTRACT: note_on channel=11 note=86 velocity=77 time=0
EXTRACT: note_off channel=11 note=86 velocity=64 time=0.013000000000000001
EXTRACT: note_on channel=14 note=74 velocity=76 time=0.007
EXTRACT: note_off channel=9 note=70 velocity=65 time=0.003
EXTRACT: note_off channel=9 note=46 velocity=64 time=0
EXTRACT: note_off channel=8 note=65 velocity=64 time=0.032
EXTRACT: note_off channel=8 note=62 velocity=64 time=0
EXTRACT: note_on channel=6 note=77 velocity=82 time=0.02
EXTRACT: note_on channel=11 note=89 velocity=88 time=0
EXTRACT: note_off channel=11 note=86 velocity=64 time=0.018000000000000002
EXTRACT: note_off channel=6 note=74 velocity=64 time=0
EXTRACT: note_on channel=14 note=77 velocity=88 time=0.002
EXTRACT: note_off channel=5 note=38 velocity=65 time=0.015
EXTRACT: note_off channel=2 note=50 velocity=64 time=0
EXTRACT: note_off channel=14 note=74 velocity=64 time=0.003
EXTRACT: note_off channel=1 note=38 velocity=64 time=0
EXTRACT: note_on channel=8 note=62 velocity=95 time=0.003
EXTRACT: note_on channel=8 note=65 velocity=100 time=0
EXTRACT: note_on channel=2 note=50 velocity=124 time=0.003
EXTRACT: note_on channel=5 note=38 velocity=113 time=0
EXTRACT: note_on channel=9 note=70 velocity=86 time=0
EXTRACT: note_off channel=9 note=70 velocity=65 time=0.024
EXTRACT: note_on channel=6 note=81 velocity=63 time=0.008
EXTRACT: note_on channel=11 note=93 velocity=78 time=0
EXTRACT: note_on channel=14 note=81 velocity=79 time=0.02
EXTRACT: note_off channel=8 note=65 velocity=65 time=0.001
EXTRACT: note_off channel=8 note=62 velocity=64 time=0
EXTRACT: note_off channel=11 note=89 velocity=65 time=0.001
EXTRACT: note_off channel=6 note=77 velocity=65 time=0
EXTRACT: note_off channel=14 note=77 velocity=64 time=0.02
EXTRACT: control_change channel=9 control=91 value=30 time=0.016
EXTRACT: note_on channel=6 note=86 velocity=72 time=0.011
EXTRACT: note_on channel=11 note=98 velocity=83 time=0
EXTRACT: note_off channel=5 note=38 velocity=65 time=0.01
EXTRACT: note_off channel=2 note=50 velocity=65 time=0
EXTRACT: note_on channel=9 note=39 velocity=118 time=0.001
EXTRACT: note_on channel=1 note=26 velocity=123 time=0.008
EXTRACT: note_on channel=2 note=38 velocity=125 time=0
EXTRACT: note_on channel=5 note=38 velocity=112 time=0
EXTRACT: note_on channel=9 note=36 velocity=126 time=0
EXTRACT: note_on channel=9 note=38 velocity=117 time=0
EXTRACT: note_on channel=9 note=42 velocity=122 time=0
EXTRACT: note_on channel=9 note=70 velocity=107 time=0
EXTRACT: note_on channel=14 note=86 velocity=83 time=0.001
EXTRACT: note_off channel=11 note=93 velocity=65 time=0.003
EXTRACT: note_off channel=6 note=81 velocity=64 time=0
EXTRACT: note_off channel=9 note=39 velocity=65 time=0.013000000000000001
EXTRACT: note_off channel=9 note=70 velocity=64 time=0.007
EXTRACT: note_off channel=9 note=42 velocity=65 time=0
EXTRACT: note_off channel=9 note=38 velocity=64 time=0
EXTRACT: note_off channel=9 note=36 velocity=64 time=0
EXTRACT: note_off channel=14 note=81 velocity=65 time=0
EXTRACT: note_off channel=5 note=38 velocity=64 time=0.08700000000000001
EXTRACT: note_off channel=2 note=38 velocity=65 time=0
EXTRACT: note_on channel=2 note=38 velocity=75 time=0.009000000000000001
EXTRACT: note_on channel=5 note=38 velocity=72 time=0
EXTRACT: note_off channel=1 note=26 velocity=65 time=0.084
EXTRACT: note_on channel=6 note=81 velocity=75 time=0.022
EXTRACT: note_on channel=11 note=93 velocity=76 time=0
EXTRACT: note_off channel=5 note=38 velocity=64 time=0.005
EXTRACT: note_off channel=2 note=38 velocity=64 time=0
EXTRACT: note_on channel=8 note=62 velocity=100 time=0.006
EXTRACT: note_on channel=8 note=65 velocity=105 time=0
EXTRACT: note_on channel=1 note=38 velocity=123 time=0.003
EXTRACT: note_on channel=2 note=50 velocity=124 time=0
EXTRACT: note_on channel=5 note=38 velocity=113 time=0
EXTRACT: note_on channel=9 note=42 velocity=122 time=0
EXTRACT: note_on channel=9 note=70 velocity=107 time=0
EXTRACT: note_off channel=11 note=98 velocity=64 time=0.004
EXTRACT: note_off channel=6 note=86 velocity=64 time=0
EXTRACT: note_on channel=14 note=81 velocity=76 time=0.002
EXTRACT: note_off channel=9 note=70 velocity=65 time=0.018000000000000002
EXTRACT: note_off channel=9 note=42 velocity=65 time=0
EXTRACT: note_off channel=14 note=86 velocity=65 time=0
EXTRACT: note_off channel=8 note=65 velocity=65 time=0.037
EXTRACT: note_off channel=8 note=62 velocity=65 time=0
EXTRACT: note_off channel=5 note=38 velocity=65 time=0.05
EXTRACT: note_off channel=2 note=50 velocity=65 time=0
EXTRACT: note_off channel=1 note=38 velocity=64 time=0.003
EXTRACT: note_off channel=11 note=93 velocity=64 time=0
EXTRACT: note_off channel=6 note=81 velocity=65 time=0
EXTRACT: note_off channel=13 note=69 velocity=64 time=0
EXTRACT: note_on channel=6 note=77 velocity=73 time=0.003
EXTRACT: note_on channel=8 note=62 velocity=96 time=0
EXTRACT: note_on channel=8 note=65 velocity=103 time=0
EXTRACT: note_on channel=11 note=89 velocity=81 time=0
EXTRACT: note_on channel=2 note=50 velocity=124 time=0.003
EXTRACT: note_on channel=5 note=38 velocity=112 time=0
EXTRACT: note_on channel=9 note=44 velocity=99 time=0
EXTRACT: note_on channel=9 note=70 velocity=86 time=0
EXTRACT: note_off channel=10 note=65 velocity=64 time=0.01
EXTRACT: note_off channel=14 note=81 velocity=64 time=0.004
EXTRACT: note_off channel=10 note=69 velocity=65 time=0.002
EXTRACT: note_on channel=14 note=77 velocity=80 time=0.001
EXTRACT: note_off channel=9 note=70 velocity=64 time=0.007
EXTRACT: note_off channel=9 note=44 velocity=64 time=0
EXTRACT: note_off channel=13 note=62 velocity=64 time=0.03
EXTRACT: note_off channel=8 note=65 velocity=64 time=0.012
EXTRACT: note_off channel=8 note=62 velocity=65 time=0
EXTRACT: note_off channel=13 note=74 velocity=65 time=0.008
EXTRACT: note_off channel=13 note=65 velocity=64 time=0
EXTRACT: note_off channel=5 note=38 velocity=65 time=0.037
EXTRACT: note_off channel=2 note=50 velocity=64 time=0
EXTRACT: note_on channel=1 note=26 velocity=122 time=0.009000000000000001
EXTRACT: note_on channel=2 note=38 velocity=125 time=0
EXTRACT: note_on channel=5 note=38 velocity=113 time=0
EXTRACT: note_on channel=9 note=42 velocity=117 time=0
EXTRACT: note_on channel=9 note=36 velocity=126 time=0
EXTRACT: note_on channel=9 note=70 velocity=106 time=0
EXTRACT: note_on channel=13 note=62 velocity=57 time=0
EXTRACT: note_on channel=13 note=65 velocity=53 time=0
EXTRACT: control_change channel=1 control=6 value=43 time=0
EXTRACT: note_on channel=13 note=74 velocity=46 time=0.002
EXTRACT: note_on channel=10 note=62 velocity=99 time=0.003
EXTRACT: note_on channel=10 note=65 velocity=98 time=0
EXTRACT: note_on channel=13 note=69 velocity=63 time=0
EXTRACT: note_on channel=6 note=74 velocity=72 time=0.002
EXTRACT: note_on channel=11 note=86 velocity=79 time=0
EXTRACT: note_on channel=14 note=74 velocity=79 time=0
EXTRACT: note_off channel=12 note=76 velocity=64 time=0
EXTRACT: note_off channel=12 note=77 velocity=64 time=0
EXTRACT: note_off channel=11 note=89 velocity=65 time=0.007
EXTRACT: note_off channel=6 note=77 velocity=65 time=0
EXTRACT: note_off channel=9 note=70 velocity=65 time=0.01
EXTRACT: note_off channel=9 note=36 velocity=65 time=0
EXTRACT: note_off channel=9 note=42 velocity=64 time=0
EXTRACT: note_off channel=14 note=77 velocity=64 time=0.01
EXTRACT: note_off channel=5 note=38 velocity=64 time=0.077
EXTRACT: note_off channel=2 note=38 velocity=64 time=0
EXTRACT: note_on channel=2 note=38 velocity=75 time=0.009000000000000001
EXTRACT: note_on channel=5 note=38 velocity=63 time=0
EXTRACT: note_off channel=1 note=26 velocity=64 time=0.084
EXTRACT: note_off channel=5 note=38 velocity=64 time=0.027
EXTRACT: note_off channel=2 note=38 velocity=65 time=0
EXTRACT: note_on channel=8 note=62 velocity=95 time=0.006
EXTRACT: note_on channel=8 note=65 velocity=100 time=0
EXTRACT: note_on channel=1 note=38 velocity=123 time=0.003
EXTRACT: note_on channel=2 note=50 velocity=124 time=0
EXTRACT: note_on channel=5 note=38 velocity=112 time=0
EXTRACT: note_on channel=9 note=46 velocity=112 time=0
EXTRACT: note_on channel=9 note=70 velocity=107 time=0
EXTRACT: note_off channel=9 note=70 velocity=64 time=0.024
EXTRACT: note_off channel=9 note=46 velocity=65 time=0
EXTRACT: note_off channel=8 note=65 velocity=64 time=0.033
EXTRACT: note_off channel=8 note=62 velocity=64 time=0
EXTRACT: note_off channel=5 note=38 velocity=65 time=0.054
EXTRACT: note_off channel=2 note=50 velocity=65 time=0
EXTRACT: note_on channel=8 note=62 velocity=73 time=0.006
EXTRACT: note_on channel=8 note=65 velocity=78 time=0
EXTRACT: note_on channel=2 note=50 velocity=124 time=0.003
EXTRACT: note_on channel=5 note=38 velocity=113 time=0
EXTRACT: note_on channel=9 note=70 velocity=86 time=0
EXTRACT: note_off channel=9 note=70 velocity=64 time=0.024
EXTRACT: control_change channel=14 control=1 value=15 time=0.016
EXTRACT: note_off channel=8 note=65 velocity=65 time=0.024
EXTRACT: note_off channel=8 note=62 velocity=65 time=0
EXTRACT: note_off channel=1 note=38 velocity=65 time=0.035
EXTRACT: note_off channel=5 note=38 velocity=64 time=0.012
EXTRACT: note_off channel=2 note=50 velocity=64 time=0
EXTRACT: note_on channel=9 note=39 velocity=119 time=0.001
EXTRACT: note_on channel=1 note=26 velocity=122 time=0.008
EXTRACT: note_on channel=2 note=38 velocity=125 time=0
EXTRACT: note_on channel=5 note=38 velocity=112 time=0
EXTRACT: note_on channel=9 note=36 velocity=127 time=0
EXTRACT: note_on channel=9 note=38 velocity=116 time=0
EXTRACT: note_on channel=9 note=42 velocity=118 time=0
EXTRACT: note_on channel=9 note=70 velocity=107 time=0
EXTRACT: note_off channel=9 note=39 velocity=65 time=0.017
EXTRACT: note_off channel=9 note=70 velocity=65 time=0.007
EXTRACT: note_off channel=9 note=42 velocity=64 time=0
EXTRACT: note_off channel=9 note=38 velocity=65 time=0
EXTRACT: note_off channel=9 note=36 velocity=64 time=0
EXTRACT: note_off channel=5 note=38 velocity=65 time=0.08700000000000001
EXTRACT: note_off channel=2 note=38 velocity=64 time=0
EXTRACT: note_on channel=2 note=38 velocity=74 time=0.009000000000000001
EXTRACT: note_on channel=5 note=38 velocity=62 time=0
EXTRACT: note_off channel=1 note=26 velocity=65 time=0.069
EXTRACT: note_off channel=5 note=38 velocity=65 time=0.042
EXTRACT: note_off channel=2 note=38 velocity=65 time=0
EXTRACT: note_on channel=8 note=62 velocity=96 time=0.006
EXTRACT: note_on channel=8 note=65 velocity=103 time=0
EXTRACT: note_on channel=1 note=38 velocity=122 time=0.003
EXTRACT: note_on channel=2 note=50 velocity=125 time=0
EXTRACT: note_on channel=5 note=38 velocity=113 time=0
EXTRACT: note_on channel=9 note=42 velocity=117 time=0
EXTRACT: note_on channel=9 note=70 velocity=107 time=0
EXTRACT: note_off channel=9 note=70 velocity=64 time=0.024
EXTRACT: note_off channel=9 note=42 velocity=65 time=0
EXTRACT: note_off channel=8 note=65 velocity=64 time=0.029
EXTRACT: note_off channel=8 note=62 velocity=64 time=0
EXTRACT: note_off channel=5 note=38 velocity=64 time=0.058
EXTRACT: note_off channel=2 note=50 velocity=65 time=0
EXTRACT: note_on channel=8 note=62 velocity=89 time=0.006
EXTRACT: note_on channel=8 note=65 velocity=92 time=0
EXTRACT: note_on channel=2 note=50 velocity=125 time=0.003
EXTRACT: note_on channel=5 note=38 velocity=113 time=0
EXTRACT: note_on channel=9 note=44 velocity=98 time=0
EXTRACT: note_on channel=9 note=70 velocity=86 time=0
EXTRACT: control_change channel=13 control=6 value=52 time=0
EXTRACT: note_off channel=9 note=70 velocity=65 time=0.024
EXTRACT: note_off channel=9 note=44 velocity=64 time=0
EXTRACT: note_off channel=8 note=65 velocity=65 time=0.032
EXTRACT: note_off channel=8 note=62 velocity=65 time=0
EXTRACT: note_off channel=1 note=38 velocity=64 time=0.043000000000000003
EXTRACT: note_off channel=5 note=38 velocity=65 time=0.012
EXTRACT: note_off channel=2 note=50 velocity=64 time=0
EXTRACT: note_on channel=1 note=26 velocity=123 time=0.009000000000000001
EXTRACT: note_on channel=2 note=38 velocity=124 time=0
EXTRACT: note_on channel=5 note=38 velocity=112 time=0
EXTRACT: note_on channel=9 note=36 velocity=127 time=0
EXTRACT: note_on channel=9 note=42 velocity=125 time=0
EXTRACT: note_on channel=9 note=70 velocity=107 time=0
EXTRACT: note_off channel=9 note=70 velocity=64 time=0.024
EXTRACT: note_off channel=9 note=42 velocity=65 time=0
EXTRACT: note_off channel=9 note=36 velocity=65 time=0
EXTRACT: note_off channel=5 note=38 velocity=64 time=0.08700000000000001
EXTRACT: note_off channel=2 note=38 velocity=64 time=0
EXTRACT: note_off channel=6 note=74 velocity=64 time=0.003
EXTRACT: note_on channel=2 note=38 velocity=75 time=0.006
EXTRACT: note_on channel=5 note=38 velocity=62 time=0
EXTRACT: note_off channel=14 note=74 velocity=65 time=0.054
EXTRACT: note_off channel=11 note=86 velocity=65 time=0
EXTRACT: control_change channel=1 control=6 value=45 time=0.036000000000000004
EXTRACT: note_off channel=1 note=26 velocity=64 time=0.009000000000000001
EXTRACT: note_off channel=5 note=38 velocity=64 time=0.012
EXTRACT: note_off channel=2 note=38 velocity=65 time=0
EXTRACT: note_on channel=8 note=62 velocity=96 time=0.006
EXTRACT: note_on channel=8 note=65 velocity=103 time=0
EXTRACT: note_on channel=1 note=38 velocity=123 time=0.003
EXTRACT: note_on channel=2 note=50 velocity=124 time=0
EXTRACT: note_on channel=5 note=38 velocity=113 time=0
EXTRACT: note_on channel=9 note=46 velocity=111 time=0
EXTRACT: note_on channel=9 note=70 velocity=106 time=0
EXTRACT: note_on channel=6 note=74 velocity=73 time=0.001
EXTRACT: note_on channel=11 note=86 velocity=76 time=0
EXTRACT: note_on channel=14 note=74 velocity=76 time=0
EXTRACT: note_off channel=9 note=70 velocity=64 time=0.023
EXTRACT: note_off channel=9 note=46 velocity=64 time=0
EXTRACT: note_off channel=8 note=65 velocity=64 time=0.032
EXTRACT: note_off channel=8 note=62 velocity=64 time=0
EXTRACT: note_on channel=6 note=77 velocity=82 time=0.02
EXTRACT: note_on channel=11 note=89 velocity=89 time=0
EXTRACT: note_on channel=14 note=77 velocity=89 time=0
EXTRACT: note_off channel=14 note=74 velocity=65 time=0.018000000000000002
EXTRACT: note_off channel=11 note=86 velocity=64 time=0
EXTRACT: note_off channel=6 note=74 velocity=64 time=0
EXTRACT: note_off channel=5 note=38 velocity=65 time=0.017
EXTRACT: note_off channel=2 note=50 velocity=64 time=0
EXTRACT: note_on channel=8 note=62 velocity=95 time=0.006
EXTRACT: note_on channel=8 note=65 velocity=100 time=0
EXTRACT: note_on channel=2 note=50 velocity=124 time=0.003
EXTRACT: note_on channel=5 note=38 velocity=113 time=0
EXTRACT: note_on channel=9 note=70 velocity=86 time=0
EXTRACT: note_off channel=9 note=70 velocity=65 time=0.024
EXTRACT: note_on channel=6 note=81 velocity=62 time=0.008
EXTRACT: note_on channel=11 note=93 velocity=78 time=0
EXTRACT: note_on channel=14 note=81 velocity=79 time=0
EXTRACT: note_off channel=8 note=65 velocity=65 time=0.021
EXTRACT: note_off channel=8 note=62 velocity=64 time=0
EXTRACT: note_off channel=14 note=77 velocity=64 time=0.001
EXTRACT: note_off channel=11 note=89 velocity=64 time=0
EXTRACT: note_off channel=6 note=77 velocity=65 time=0
EXTRACT: note_off channel=1 note=38 velocity=65 time=0.03
EXTRACT: note_on channel=6 note=86 velocity=73 time=0.017
EXTRACT: note_on channel=11 note=98 velocity=82 time=0
EXTRACT: note_on channel=14 note=86 velocity=82 time=0
EXTRACT: note_off channel=5 note=38 velocity=65 time=0.01
EXTRACT: note_off channel=2 note=50 velocity=65 time=0
EXTRACT: note_on channel=9 note=39 velocity=119 time=0.001
EXTRACT: note_on channel=1 note=26 velocity=122 time=0.008
EXTRACT: note_on channel=2 note=38 velocity=125 time=0
EXTRACT: note_on channel=5 note=38 velocity=112 time=0
EXTRACT: note_on channel=9 note=36 velocity=126 time=0
EXTRACT: note_on channel=9 note=38 velocity=117 time=0
EXTRACT: note_on channel=9 note=42 velocity=98 time=0
EXTRACT: note_on channel=9 note=70 velocity=107 time=0
EXTRACT: note_off channel=14 note=81 velocity=64 time=0.004
EXTRACT: note_off channel=11 note=93 velocity=65 time=0
EXTRACT: note_off channel=6 note=81 velocity=65 time=0
EXTRACT: note_off channel=9 note=39 velocity=64 time=0.013000000000000001
EXTRACT: note_off channel=9 note=70 velocity=65 time=0.007
EXTRACT: note_off channel=9 note=42 velocity=65 time=0
EXTRACT: note_off channel=9 note=38 velocity=64 time=0
EXTRACT: note_off channel=9 note=36 velocity=65 time=0
EXTRACT: note_off channel=5 note=38 velocity=64 time=0.08700000000000001
EXTRACT: note_off channel=2 note=38 velocity=65 time=0
EXTRACT: note_on channel=2 note=38 velocity=75 time=0.009000000000000001
EXTRACT: note_on channel=5 note=38 velocity=62 time=0
EXTRACT: note_on channel=12 note=76 velocity=127 time=0.057
EXTRACT: note_on channel=12 note=84 velocity=127 time=0.01
EXTRACT: note_off channel=1 note=26 velocity=65 time=0.017
EXTRACT: note_on channel=6 note=81 velocity=75 time=0.022
EXTRACT: note_on channel=11 note=93 velocity=77 time=0
EXTRACT: note_on channel=14 note=81 velocity=77 time=0
EXTRACT: note_off channel=5 note=38 velocity=64 time=0.005
EXTRACT: note_off channel=2 note=38 velocity=64 time=0
EXTRACT: note_on channel=8 note=62 velocity=100 time=0.006
EXTRACT: note_on channel=8 note=65 velocity=105 time=0
EXTRACT: note_on channel=1 note=38 velocity=122 time=0.003
EXTRACT: note_on channel=2 note=50 velocity=124 time=0
EXTRACT: note_on channel=5 note=38 velocity=113 time=0
EXTRACT: note_on channel=9 note=42 velocity=115 time=0
EXTRACT: note_on channel=9 note=70 velocity=107 time=0
EXTRACT: note_off channel=14 note=86 velocity=65 time=0.004
EXTRACT: note_off channel=11 note=98 velocity=64 time=0
EXTRACT: note_off channel=6 note=86 velocity=64 time=0
EXTRACT: note_off channel=9 note=70 velocity=64 time=0.02
EXTRACT: note_off channel=9 note=42 velocity=64 time=0
EXTRACT: note_off channel=8 note=65 velocity=65 time=0.037
EXTRACT: note_off channel=8 note=62 velocity=65 time=0
EXTRACT: note_off channel=5 note=38 velocity=65 time=0.05
EXTRACT: note_off channel=2 note=50 velocity=65 time=0
EXTRACT: note_off channel=14 note=81 velocity=64 time=0.003
EXTRACT: note_off channel=11 note=93 velocity=65 time=0
EXTRACT: note_off channel=6 note=81 velocity=64 time=0
EXTRACT: note_on channel=6 note=77 velocity=72 time=0.003
EXTRACT: note_on channel=8 note=62 velocity=96 time=0
EXTRACT: note_on channel=8 note=65 velocity=103 time=0
EXTRACT: note_on channel=11 note=89 velocity=81 time=0
EXTRACT: note_on channel=14 note=77 velocity=80 time=0
EXTRACT: note_on channel=2 note=50 velocity=124 time=0.003
EXTRACT: note_on channel=5 note=38 velocity=112 time=0
EXTRACT: note_on channel=9 note=44 velocity=99 time=0
EXTRACT: note_on channel=9 note=70 velocity=86 time=0
EXTRACT: note_off channel=9 note=70 velocity=65 time=0.024
EXTRACT: note_off channel=9 note=44 velocity=65 time=0
EXTRACT: note_off channel=8 note=65 velocity=64 time=0.042
EXTRACT: note_off channel=8 note=62 velocity=65 time=0
EXTRACT: note_off channel=1 note=38 velocity=64 time=0.018000000000000002
EXTRACT: note_off channel=12 note=76 velocity=65 time=0.002
EXTRACT: note_off channel=12 note=84 velocity=65 time=0.01
EXTRACT: note_off channel=5 note=38 velocity=65 time=0.015
EXTRACT: note_off channel=2 note=50 velocity=64 time=0
EXTRACT: note_on channel=6 note=74 velocity=78 time=0.006
EXTRACT: note_on channel=11 note=86 velocity=84 time=0
EXTRACT: note_on channel=14 note=74 velocity=84 time=0
EXTRACT: note_on channel=1 note=26 velocity=123 time=0.003
EXTRACT: note_on channel=2 note=38 velocity=125 time=0
EXTRACT: note_on channel=5 note=38 velocity=113 time=0
EXTRACT: note_on channel=9 note=36 velocity=126 time=0
EXTRACT: note_on channel=9 note=42 velocity=122 time=0
EXTRACT: note_on channel=9 note=70 velocity=106 time=0
EXTRACT: note_off channel=14 note=77 velocity=65 time=0.014
EXTRACT: note_off channel=11 note=89 velocity=65 time=0
EXTRACT: note_off channel=6 note=77 velocity=65 time=0
EXTRACT: note_off channel=9 note=70 velocity=64 time=0.01
EXTRACT: note_off channel=9 note=42 velocity=64 time=0
EXTRACT: note_off channel=9 note=36 velocity=65 time=0
EXTRACT: control_change channel=13 control=6 value=54 time=0.056
EXTRACT: note_off channel=5 note=38 velocity=64 time=0.031
EXTRACT: note_off channel=2 note=38 velocity=64 time=0
EXTRACT: note_on channel=6 note=76 velocity=79 time=0.005
EXTRACT: note_on channel=11 note=88 velocity=84 time=0
EXTRACT: note_on channel=14 note=76 velocity=85 time=0
EXTRACT: note_off channel=10 note=62 velocity=65 time=0.003
EXTRACT: note_on channel=2 note=38 velocity=75 time=0.001
EXTRACT: note_on channel=5 note=38 velocity=63 time=0
EXTRACT: note_off channel=14 note=74 velocity=65 time=0.004
EXTRACT: note_off channel=11 note=86 velocity=64 time=0
EXTRACT: note_off channel=6 note=74 velocity=64 time=0
EXTRACT: note_off channel=1 note=26 velocity=64 time=0.08
EXTRACT: note_off channel=5 note=38 velocity=64 time=0.027
EXTRACT: note_off channel=2 note=38 velocity=65 time=0
EXTRACT: note_off channel=13 note=69 velocity=65 time=0.003
EXTRACT: note_off channel=13 note=74 velocity=65 time=0
EXTRACT: note_off channel=13 note=65 velocity=64 time=0
EXTRACT: note_off channel=13 note=62 velocity=65 time=0
EXTRACT: note_on channel=8 note=65 velocity=101 time=0.003
EXTRACT: note_on channel=6 note=77 velocity=75 time=0.001
EXTRACT: note_on channel=11 note=89 velocity=93 time=0
EXTRACT: note_on channel=14 note=77 velocity=93 time=0
EXTRACT: note_off channel=10 note=65 velocity=64 time=0.001
EXTRACT: note_on channel=1 note=28 velocity=123 time=0.001
EXTRACT: note_on channel=2 note=52 velocity=124 time=0
EXTRACT: note_on channel=5 note=40 velocity=112 time=0
EXTRACT: note_on channel=8 note=62 velocity=94 time=0
EXTRACT: note_on channel=9 note=46 velocity=105 time=0
EXTRACT: note_on channel=9 note=70 velocity=107 time=0
EXTRACT: note_on channel=13 note=64 velocity=80 time=0
EXTRACT: note_on channel=10 note=64 velocity=91 time=0.005
EXTRACT: note_on channel=10 note=67 velocity=78 time=0
EXTRACT: note_off channel=14 note=76 velocity=64 time=0
EXTRACT: note_off channel=11 note=88 velocity=65 time=0
EXTRACT: note_off channel=6 note=76 velocity=65 time=0
EXTRACT: note_on channel=13 note=67 velocity=64 time=0.007
EXTRACT: note_on channel=13 note=71 velocity=63 time=0.008
EXTRACT: note_off channel=9 note=70 velocity=65 time=0.004
EXTRACT: note_off channel=9 note=46 velocity=64 time=0
EXTRACT: note_off channel=8 note=65 velocity=64 time=0.033
EXTRACT: note_off channel=8 note=62 velocity=64 time=0.002
EXTRACT: note_off channel=5 note=40 velocity=65 time=0.052000000000000005
EXTRACT: note_off channel=2 note=52 velocity=65 time=0
EXTRACT: note_on channel=8 note=65 velocity=79 time=0.006
EXTRACT: note_on channel=2 note=52 velocity=124 time=0.003
EXTRACT: note_on channel=5 note=40 velocity=113 time=0
EXTRACT: note_on channel=8 note=62 velocity=72 time=0
EXTRACT: note_on channel=9 note=70 velocity=87 time=0
EXTRACT: note_on channel=6 note=79 velocity=74 time=0.001
EXTRACT: note_on channel=11 note=91 velocity=83 time=0
EXTRACT: note_on channel=14 note=79 velocity=82 time=0
EXTRACT: note_off channel=14 note=77 velocity=65 time=0.013000000000000001
EXTRACT: note_off channel=11 note=89 velocity=64 time=0
EXTRACT: note_off channel=6 note=77 velocity=65 time=0
EXTRACT: note_off channel=9 note=70 velocity=64 time=0.01
EXTRACT: control_change channel=1 control=6 value=47 time=0.021
EXTRACT: note_off channel=8 note=65 velocity=65 time=0.019
EXTRACT: note_off channel=8 note=62 velocity=65 time=0.002
EXTRACT: note_off channel=1 note=28 velocity=65 time=0.003
EXTRACT: note_off channel=13 note=64 velocity=64 time=0.006
EXTRACT: note_on channel=6 note=81 velocity=76 time=0.022
EXTRACT: note_on channel=11 note=93 velocity=86 time=0
EXTRACT: note_on channel=14 note=81 velocity=86 time=0
EXTRACT: note_off channel=5 note=40 velocity=64 time=0.014
EXTRACT: note_off channel=2 note=52 velocity=64 time=0
EXTRACT: note_on channel=9 note=39 velocity=118 time=0.001
EXTRACT: note_off channel=13 note=71 velocity=64 time=0.002
EXTRACT: note_off channel=13 note=67 velocity=65 time=0
EXTRACT: note_off channel=10 note=67 velocity=65 time=0.005
EXTRACT: note_on channel=1 note=29 velocity=122 time=0.001
EXTRACT: note_on channel=2 note=41 velocity=125 time=0
EXTRACT: note_on channel=5 note=41 velocity=112 time=0
EXTRACT: note_on channel=9 note=36 velocity=127 time=0
EXTRACT: note_on channel=9 note=38 velocity=116 time=0
EXTRACT: note_on channel=9 note=42 velocity=110 time=0
EXTRACT: note_on channel=9 note=70 velocity=106 time=0
EXTRACT: note_on channel=13 note=65 velocity=89 time=0
EXTRACT: note_off channel=10 note=64 velocity=64 time=0.001
EXTRACT: note_off channel=14 note=79 velocity=64 time=0.001
EXTRACT: note_off channel=11 note=91 velocity=64 time=0
EXTRACT: note_off channel=6 note=79 velocity=64 time=0
EXTRACT: note_on channel=10 note=65 velocity=104 time=0.003
EXTRACT: note_on channel=10 note=69 velocity=87 time=0
EXTRACT: note_on channel=13 note=69 velocity=34 time=0.012
EXTRACT: note_on channel=13 note=72 velocity=80 time=0
EXTRACT: note_off channel=9 note=39 velocity=65 time=0
EXTRACT: note_off channel=9 note=70 velocity=64 time=0.007
EXTRACT: note_off channel=9 note=42 velocity=65 time=0
EXTRACT: note_off channel=9 note=38 velocity=65 time=0
EXTRACT: note_off channel=9 note=36 velocity=64 time=0
EXTRACT: note_off channel=5 note=41 velocity=65 time=0.08700000000000001
EXTRACT: note_off channel=2 note=41 velocity=64 time=0
EXTRACT: note_on channel=2 note=41 velocity=74 time=0.009000000000000001
EXTRACT: note_on channel=5 note=41 velocity=62 time=0
EXTRACT: note_off channel=1 note=29 velocity=64 time=0.084
EXTRACT: note_off channel=5 note=41 velocity=65 time=0.027
EXTRACT: note_off channel=2 note=41 velocity=65 time=0
EXTRACT: note_on channel=8 note=60 velocity=96 time=0.006
EXTRACT: note_on channel=8 note=65 velocity=103 time=0
EXTRACT: note_on channel=1 note=41 velocity=122 time=0.003
EXTRACT: note_on channel=2 note=53 velocity=125 time=0
EXTRACT: note_on channel=5 note=41 velocity=113 time=0
EXTRACT: note_on channel=9 note=42 velocity=125 time=0
EXTRACT: note_on channel=9 note=70 velocity=106 time=0
EXTRACT: note_off channel=9 note=70 velocity=65 time=0.024
EXTRACT: note_off channel=9 note=42 velocity=64 time=0
EXTRACT: note_off channel=8 note=65 velocity=64 time=0.029
EXTRACT: note_off channel=8 note=60 velocity=64 time=0
EXTRACT: note_off channel=5 note=41 velocity=64 time=0.058
EXTRACT: note_off channel=2 note=53 velocity=65 time=0
EXTRACT: note_on channel=8 note=60 velocity=89 time=0.006
EXTRACT: note_on channel=8 note=65 velocity=92 time=0
EXTRACT: note_on channel=2 note=53 velocity=125 time=0.003
EXTRACT: note_on channel=5 note=41 velocity=113 time=0
EXTRACT: note_on channel=9 note=44 velocity=98 time=0
EXTRACT: note_on channel=9 note=70 velocity=87 time=0
EXTRACT: note_off channel=9 note=70 velocity=64 time=0.024
EXTRACT: note_off channel=9 note=44 velocity=65 time=0
EXTRACT: note_off channel=8 note=65 velocity=65 time=0.032
EXTRACT: note_off channel=8 note=60 velocity=65 time=0
EXTRACT: note_off channel=1 note=41 velocity=65 time=0.028
EXTRACT: note_off channel=5 note=41 velocity=65 time=0.027
EXTRACT: note_off channel=2 note=53 velocity=64 time=0
EXTRACT: note_on channel=1 note=29 velocity=123 time=0.009000000000000001
EXTRACT: note_on channel=2 note=41 velocity=124 time=0
EXTRACT: note_on channel=5 note=41 velocity=112 time=0
EXTRACT: note_on channel=9 note=36 velocity=126 time=0
EXTRACT: note_on channel=9 note=42 velocity=125 time=0
EXTRACT: note_on channel=9 note=70 velocity=106 time=0
EXTRACT: note_off channel=9 note=70 velocity=65 time=0.024
EXTRACT: note_off channel=9 note=42 velocity=64 time=0
EXTRACT: note_off channel=9 note=36 velocity=64 time=0
EXTRACT: note_off channel=5 note=41 velocity=64 time=0.08700000000000001
EXTRACT: note_off channel=2 note=41 velocity=64 time=0
EXTRACT: note_on channel=2 note=41 velocity=75 time=0.009000000000000001
EXTRACT: note_on channel=5 note=41 velocity=62 time=0
EXTRACT: note_off channel=14 note=81 velocity=64 time=0.074
EXTRACT: note_off channel=11 note=93 velocity=65 time=0
EXTRACT: note_off channel=6 note=81 velocity=65 time=0
EXTRACT: note_off channel=1 note=29 velocity=65 time=0.01
EXTRACT: note_off channel=5 note=41 velocity=64 time=0.027
EXTRACT: note_off channel=2 note=41 velocity=65 time=0
EXTRACT: note_on channel=8 note=60 velocity=96 time=0.006
EXTRACT: note_on channel=8 note=65 velocity=103 time=0
EXTRACT: note_on channel=1 note=41 velocity=122 time=0.003
EXTRACT: note_on channel=2 note=53 velocity=124 time=0
EXTRACT: note_on channel=5 note=41 velocity=113 time=0
EXTRACT: note_on channel=9 note=46 velocity=110 time=0
EXTRACT: note_on channel=9 note=70 velocity=107 time=0
EXTRACT: control_change channel=2 control=6 value=59 time=0
EXTRACT: note_on channel=6 note=77 velocity=75 time=0.021
EXTRACT: note_on channel=11 note=89 velocity=82 time=0
EXTRACT: note_on channel=14 note=77 velocity=83 time=0
EXTRACT: note_off channel=9 note=70 velocity=65 time=0.003
EXTRACT: note_off channel=9 note=46 velocity=65 time=0
EXTRACT: note_off channel=8 note=65 velocity=64 time=0.032
EXTRACT: note_off channel=8 note=60 velocity=64 time=0
EXTRACT: note_on channel=6 note=81 velocity=54 time=0.039
EXTRACT: note_on channel=11 note=93 velocity=77 time=0
EXTRACT: note_on channel=14 note=81 velocity=77 time=0
EXTRACT: note_off channel=5 note=41 velocity=65 time=0.016
EXTRACT: note_off channel=2 note=53 velocity=64 time=0
EXTRACT: note_on channel=8 note=60 velocity=95 time=0.006
EXTRACT: note_on channel=8 note=65 velocity=100 time=0
EXTRACT: note_on channel=2 note=53 velocity=124 time=0.003
EXTRACT: note_on channel=5 note=41 velocity=113 time=0
EXTRACT: note_on channel=9 note=70 velocity=87 time=0
EXTRACT: note_off channel=9 note=70 velocity=64 time=0.024
EXTRACT: note_off channel=14 note=77 velocity=65 time=0.01
EXTRACT: note_off channel=11 note=89 velocity=65 time=0
EXTRACT: note_off channel=6 note=77 velocity=64 time=0
EXTRACT: note_on channel=6 note=84 velocity=81 time=0.012
EXTRACT: note_on channel=11 note=96 velocity=84 time=0
EXTRACT: note_on channel=14 note=84 velocity=84 time=0
EXTRACT: note_off channel=8 note=65 velocity=65 time=0.007
EXTRACT: note_off channel=8 note=60 velocity=64 time=0
EXTRACT: note_off channel=14 note=81 velocity=65 time=0.011
EXTRACT: note_off channel=11 note=93 velocity=64 time=0
EXTRACT: note_off channel=6 note=81 velocity=64 time=0
EXTRACT: note_off channel=1 note=41 velocity=64 time=0.02
EXTRACT: note_on channel=6 note=89 velocity=79 time=0.019
EXTRACT: note_on channel=11 note=101 velocity=85 time=0
EXTRACT: note_on channel=14 note=89 velocity=84 time=0
EXTRACT: note_off channel=5 note=41 velocity=65 time=0.008
EXTRACT: note_off channel=2 note=53 velocity=65 time=0
EXTRACT: note_on channel=9 note=39 velocity=118 time=0.001
EXTRACT: note_on channel=1 note=29 velocity=123 time=0.008
EXTRACT: note_on channel=2 note=41 velocity=125 time=0
EXTRACT: note_on channel=5 note=41 velocity=112 time=0
EXTRACT: note_on channel=9 note=36 velocity=127 time=0
EXTRACT: note_on channel=9 note=38 velocity=116 time=0
EXTRACT: note_on channel=9 note=42 velocity=112 time=0
EXTRACT: note_on channel=9 note=70 velocity=106 time=0
EXTRACT: note_off channel=14 note=84 velocity=64 time=0.014
EXTRACT: note_off channel=11 note=96 velocity=64 time=0
EXTRACT: note_off channel=6 note=84 velocity=65 time=0
EXTRACT: note_off channel=9 note=39 velocity=64 time=0.003
EXTRACT: note_off channel=9 note=70 velocity=65 time=0.007
EXTRACT: note_off channel=9 note=42 velocity=64 time=0
EXTRACT: note_off channel=9 note=38 velocity=65 time=0
EXTRACT: note_off channel=9 note=36 velocity=65 time=0
EXTRACT: control_change channel=13 control=6 value=56 time=0.016
EXTRACT: note_off channel=5 note=41 velocity=64 time=0.07100000000000001
EXTRACT: note_off channel=2 note=41 velocity=65 time=0
EXTRACT: note_on channel=2 note=41 velocity=75 time=0.009000000000000001
EXTRACT: note_on channel=5 note=41 velocity=62 time=0
EXTRACT: control_change channel=1 control=6 value=50 time=0.075
EXTRACT: note_off channel=1 note=29 velocity=65 time=0.009000000000000001
EXTRACT: note_off channel=14 note=89 velocity=64 time=0.01
EXTRACT: note_off channel=11 note=101 velocity=65 time=0
EXTRACT: note_off channel=6 note=89 velocity=65 time=0
EXTRACT: note_on channel=6 note=88 velocity=74 time=0.016
EXTRACT: note_on channel=11 note=100 velocity=81 time=0
EXTRACT: note_on channel=14 note=88 velocity=81 time=0
EXTRACT: note_off channel=5 note=41 velocity=64 time=0.001
EXTRACT: note_off channel=2 note=41 velocity=64 time=0
EXTRACT: note_on channel=8 note=60 velocity=100 time=0.006
EXTRACT: note_on channel=8 note=65 velocity=105 time=0
EXTRACT: note_off channel=10 note=69 velocity=64 time=0.002
EXTRACT: note_off channel=10 note=65 velocity=65 time=0
EXTRACT: note_on channel=1 note=31 velocity=123 time=0.001
EXTRACT: note_on channel=2 note=55 velocity=124 time=0
EXTRACT: note_on channel=5 note=43 velocity=113 time=0
EXTRACT: note_on channel=9 note=42 velocity=108 time=0
EXTRACT: note_on channel=9 note=70 velocity=107 time=0
EXTRACT: note_on channel=13 note=67 velocity=81 time=0
EXTRACT: note_on channel=13 note=71 velocity=65 time=0
EXTRACT: note_on channel=10 note=67 velocity=87 time=0.005
EXTRACT: note_on channel=10 note=71 velocity=86 time=0
EXTRACT: note_off channel=13 note=72 velocity=65 time=0.006
EXTRACT: note_off channel=13 note=69 velocity=64 time=0
EXTRACT: note_off channel=13 note=65 velocity=64 time=0
EXTRACT: note_on channel=13 note=74 velocity=62 time=0.009000000000000001
EXTRACT: note_off channel=9 note=70 velocity=64 time=0.004
EXTRACT: note_off channel=9 note=42 velocity=65 time=0
EXTRACT: note_off channel=8 note=65 velocity=65 time=0.037
EXTRACT: note_off channel=8 note=60 velocity=65 time=0
EXTRACT: note_off channel=5 note=43 velocity=65 time=0.05
EXTRACT: note_off channel=2 note=55 velocity=65 time=0
EXTRACT: note_on channel=8 note=60 velocity=96 time=0.006
EXTRACT: note_on channel=8 note=65 velocity=103 time=0
EXTRACT: note_on channel=2 note=55 velocity=124 time=0.003
EXTRACT: note_on channel=5 note=43 velocity=112 time=0
EXTRACT: note_on channel=9 note=44 velocity=98 time=0
EXTRACT: note_on channel=9 note=70 velocity=86 time=0
EXTRACT: note_off channel=14 note=88 velocity=65 time=0.004
EXTRACT: note_off channel=11 note=100 velocity=65 time=0
EXTRACT: note_off channel=6 note=88 velocity=64 time=0
EXTRACT: note_on channel=6 note=84 velocity=73 time=0.003
EXTRACT: note_on channel=11 note=96 velocity=78 time=0
EXTRACT: note_on channel=14 note=84 velocity=78 time=0
EXTRACT: note_off channel=9 note=70 velocity=64 time=0.017
EXTRACT: note_off channel=9 note=44 velocity=64 time=0
EXTRACT: note_off channel=8 note=65 velocity=64 time=0.042
EXTRACT: note_off channel=8 note=60 velocity=65 time=0
EXTRACT: note_off channel=1 note=31 velocity=64 time=0.018000000000000002
EXTRACT: control_change channel=9 control=91 value=20 time=0.006
EXTRACT: note_off channel=5 note=43 velocity=65 time=0.021
EXTRACT: note_off channel=2 note=55 velocity=64 time=0
EXTRACT: note_off channel=13 note=74 velocity=65 time=0.003
EXTRACT: note_off channel=13 note=71 velocity=65 time=0
EXTRACT: note_off channel=13 note=67 velocity=64 time=0
EXTRACT: note_off channel=10 note=71 velocity=65 time=0.005
EXTRACT: note_off channel=10 note=67 velocity=64 time=0
EXTRACT: note_on channel=1 note=33 velocity=122 time=0.001
EXTRACT: note_on channel=2 note=45 velocity=125 time=0
EXTRACT: note_on channel=5 note=45 velocity=113 time=0
EXTRACT: note_on channel=9 note=36 velocity=127 time=0
EXTRACT: note_on channel=9 note=42 velocity=125 time=0
EXTRACT: note_on channel=9 note=70 velocity=106 time=0
EXTRACT: note_on channel=13 note=69 velocity=56 time=0
EXTRACT: note_on channel=10 note=69 velocity=92 time=0.005
EXTRACT: note_on channel=10 note=72 velocity=103 time=0
EXTRACT: note_on channel=6 note=81 velocity=78 time=0.002
EXTRACT: note_on channel=11 note=93 velocity=85 time=0
EXTRACT: note_on channel=14 note=81 velocity=85 time=0
EXTRACT: note_on channel=13 note=76 velocity=69 time=0.002
EXTRACT: note_on channel=13 note=72 velocity=60 time=0.003
EXTRACT: note_off channel=14 note=84 velocity=65 time=0.001
EXTRACT: note_off channel=11 note=96 velocity=64 time=0
EXTRACT: note_off channel=6 note=84 velocity=64 time=0
EXTRACT: note_off channel=9 note=70 velocity=65 time=0.011
EXTRACT: note_off channel=9 note=42 velocity=65 time=0
EXTRACT: note_off channel=9 note=36 velocity=64 time=0
EXTRACT: note_off channel=5 note=45 velocity=64 time=0.08700000000000001
EXTRACT: note_off channel=2 note=45 velocity=64 time=0
EXTRACT: note_on channel=2 note=45 velocity=75 time=0.009000000000000001
EXTRACT: note_on channel=5 note=45 velocity=63 time=0
EXTRACT: note_off channel=1 note=33 velocity=64 time=0.099
EXTRACT: note_off channel=5 note=45 velocity=64 time=0.012
EXTRACT: note_off channel=2 note=45 velocity=65 time=0
EXTRACT: note_on channel=8 note=60 velocity=95 time=0.006
EXTRACT: note_on channel=8 note=64 velocity=100 time=0
EXTRACT: note_on channel=1 note=45 velocity=123 time=0.003
EXTRACT: note_on channel=2 note=57 velocity=124 time=0
EXTRACT: note_on channel=5 note=45 velocity=112 time=0
EXTRACT: note_on channel=9 note=46 velocity=110 time=0
EXTRACT: note_on channel=9 note=70 velocity=107 time=0
EXTRACT: note_off channel=9 note=70 velocity=64 time=0.024
EXTRACT: note_off channel=9 note=46 velocity=65 time=0
EXTRACT: note_off channel=8 note=64 velocity=64 time=0.033
EXTRACT: note_off channel=8 note=60 velocity=64 time=0
EXTRACT: note_off channel=5 note=45 velocity=65 time=0.054
EXTRACT: note_off channel=2 note=57 velocity=65 time=0
EXTRACT: note_on channel=8 note=60 velocity=73 time=0.006
EXTRACT: note_on channel=8 note=64 velocity=78 time=0
EXTRACT: note_on channel=2 note=57 velocity=124 time=0.003
EXTRACT: note_on channel=5 note=45 velocity=113 time=0
EXTRACT: note_on channel=9 note=70 velocity=87 time=0
EXTRACT: note_off channel=9 note=70 velocity=65 time=0.024
EXTRACT: note_off channel=8 note=64 velocity=65 time=0.04
EXTRACT: note_off channel=8 note=60 velocity=65 time=0
EXTRACT: note_off channel=1 note=45 velocity=65 time=0.02
EXTRACT: note_off channel=5 note=45 velocity=64 time=0.027
EXTRACT: note_off channel=2 note=57 velocity=64 time=0
EXTRACT: note_on channel=9 note=39 velocity=119 time=0.001
EXTRACT: note_on channel=1 note=33 velocity=122 time=0.008
EXTRACT: note_on channel=2 note=45 velocity=125 time=0
EXTRACT: note_on channel=5 note=45 velocity=112 time=0
EXTRACT: note_on channel=9 note=36 velocity=126 time=0
EXTRACT: note_on channel=9 note=38 velocity=117 time=0
EXTRACT: note_on channel=9 note=42 velocity=123 time=0
EXTRACT: note_on channel=9 note=70 velocity=106 time=0
EXTRACT: note_off channel=9 note=39 velocity=64 time=0.017
EXTRACT: note_off channel=9 note=70 velocity=64 time=0.007
EXTRACT: note_off channel=9 note=42 velocity=65 time=0
EXTRACT: note_off channel=9 note=38 velocity=64 time=0
EXTRACT: note_off channel=9 note=36 velocity=65 time=0
EXTRACT: note_off channel=5 note=45 velocity=65 time=0.08700000000000001
EXTRACT: note_off channel=2 note=45 velocity=64 time=0
EXTRACT: note_on channel=2 note=45 velocity=74 time=0.009000000000000001
EXTRACT: note_on channel=5 note=45 velocity=62 time=0
EXTRACT: note_off channel=1 note=33 velocity=65 time=0.099
EXTRACT: note_off channel=5 note=45 velocity=65 time=0.012
EXTRACT: note_off channel=2 note=45 velocity=65 time=0
EXTRACT: note_on channel=8 note=60 velocity=96 time=0.006
EXTRACT: note_on channel=8 note=64 velocity=103 time=0
EXTRACT: note_on channel=1 note=45 velocity=122 time=0.003
EXTRACT: note_on channel=2 note=57 velocity=125 time=0
EXTRACT: note_on channel=5 note=45 velocity=113 time=0
EXTRACT: note_on channel=9 note=42 velocity=116 time=0
EXTRACT: note_on channel=9 note=70 velocity=106 time=0
EXTRACT: note_off channel=9 note=70 velocity=65 time=0.024
EXTRACT: note_off channel=9 note=42 velocity=64 time=0
EXTRACT: note_off channel=8 note=64 velocity=64 time=0.029
EXTRACT: note_off channel=8 note=60 velocity=64 time=0
EXTRACT: control_change channel=13 control=6 value=58 time=0.027
EXTRACT: note_off channel=5 note=45 velocity=64 time=0.031
EXTRACT: note_off channel=2 note=57 velocity=65 time=0
EXTRACT: note_on channel=8 note=60 velocity=89 time=0.006
EXTRACT: note_on channel=8 note=64 velocity=92 time=0
EXTRACT: note_on channel=2 note=57 velocity=125 time=0.003
EXTRACT: note_on channel=5 note=45 velocity=113 time=0
EXTRACT: note_on channel=9 note=44 velocity=99 time=0
EXTRACT: note_on channel=9 note=70 velocity=87 time=0
EXTRACT: note_off channel=9 note=70 velocity=65 time=0.024
EXTRACT: note_off channel=9 note=44 velocity=64 time=0
EXTRACT: note_off channel=8 note=64 velocity=65 time=0.032
EXTRACT: note_off channel=8 note=60 velocity=65 time=0
EXTRACT: note_off channel=1 note=45 velocity=64 time=0.028
EXTRACT: note_off channel=5 note=45 velocity=65 time=0.027
EXTRACT: note_off channel=2 note=57 velocity=64 time=0
EXTRACT: note_on channel=1 note=33 velocity=123 time=0.009000000000000001
EXTRACT: note_on channel=2 note=45 velocity=124 time=0
EXTRACT: note_on channel=5 note=45 velocity=112 time=0
EXTRACT: note_on channel=9 note=36 velocity=127 time=0
EXTRACT: note_on channel=9 note=42 velocity=124 time=0
EXTRACT: note_on channel=9 note=70 velocity=107 time=0
EXTRACT: note_off channel=9 note=70 velocity=64 time=0.024
EXTRACT: note_off channel=9 note=42 velocity=65 time=0
EXTRACT: note_off channel=9 note=36 velocity=65 time=0
EXTRACT: control_change channel=1 control=6 value=52 time=0.066
EXTRACT: note_off channel=14 note=81 velocity=64 time=0.002
EXTRACT: note_off channel=11 note=93 velocity=64 time=0
EXTRACT: note_off channel=6 note=81 velocity=65 time=0
EXTRACT: note_off channel=5 note=45 velocity=64 time=0.019
EXTRACT: note_off channel=2 note=45 velocity=64 time=0
EXTRACT: note_on channel=2 note=45 velocity=75 time=0.009000000000000001
EXTRACT: note_on channel=5 note=45 velocity=62 time=0
EXTRACT: note_off channel=1 note=33 velocity=64 time=0.084
EXTRACT: note_off channel=5 note=45 velocity=64 time=0.027
EXTRACT: note_off channel=2 note=45 velocity=65 time=0
EXTRACT: note_on channel=8 note=60 velocity=96 time=0.006
EXTRACT: note_on channel=8 note=64 velocity=103 time=0
EXTRACT: note_on channel=1 note=45 velocity=123 time=0.003
EXTRACT: note_on channel=2 note=57 velocity=124 time=0
EXTRACT: note_on channel=5 note=45 velocity=113 time=0
EXTRACT: note_on channel=9 note=46 velocity=107 time=0
EXTRACT: note_on channel=9 note=70 velocity=106 time=0
EXTRACT: note_off channel=9 note=70 velocity=64 time=0.024
EXTRACT: note_off channel=9 note=46 velocity=64 time=0
EXTRACT: note_on channel=6 note=76 velocity=72 time=0.024
EXTRACT: note_on channel=11 note=88 velocity=88 time=0
EXTRACT: note_on channel=14 note=76 velocity=89 time=0
EXTRACT: note_off channel=8 note=64 velocity=64 time=0.008
EXTRACT: note_off channel=8 note=60 velocity=64 time=0
EXTRACT: note_off channel=5 note=45 velocity=65 time=0.055
EXTRACT: note_off channel=2 note=57 velocity=64 time=0
EXTRACT: note_on channel=6 note=81 velocity=69 time=0.005
EXTRACT: note_on channel=11 note=93 velocity=80 time=0
EXTRACT: note_on channel=14 note=81 velocity=80 time=0
EXTRACT: note_on channel=8 note=60 velocity=95 time=0.001
EXTRACT: note_on channel=8 note=64 velocity=100 time=0
EXTRACT: note_on channel=2 note=57 velocity=124 time=0.003
EXTRACT: note_on channel=5 note=45 velocity=113 time=0
EXTRACT: note_on channel=9 note=70 velocity=86 time=0
EXTRACT: note_off channel=9 note=70 velocity=65 time=0.024
EXTRACT: note_off channel=8 note=64 velocity=65 time=0.029
EXTRACT: note_off channel=8 note=60 velocity=64 time=0
EXTRACT: note_on channel=6 note=84 velocity=69 time=0.002
EXTRACT: note_on channel=11 note=96 velocity=83 time=0
EXTRACT: note_on channel=14 note=84 velocity=83 time=0
EXTRACT: note_off channel=14 note=76 velocity=64 time=0.026000000000000002
EXTRACT: note_off channel=11 note=88 velocity=65 time=0
EXTRACT: note_off channel=6 note=76 velocity=65 time=0
EXTRACT: note_off channel=1 note=45 velocity=65 time=0.003
EXTRACT: note_off channel=5 note=45 velocity=65 time=0.027
EXTRACT: note_off channel=2 note=57 velocity=65 time=0
EXTRACT: note_on channel=9 note=39 velocity=118 time=0.001
EXTRACT: note_off channel=13 note=76 velocity=64 time=0.002
EXTRACT: note_on channel=6 note=88 velocity=82 time=0.004
EXTRACT: note_on channel=11 note=100 velocity=87 time=0
EXTRACT: note_on channel=14 note=88 velocity=86 time=0
EXTRACT: note_off channel=14 note=81 velocity=65 time=0
EXTRACT: note_off channel=11 note=93 velocity=64 time=0
EXTRACT: note_off channel=6 note=81 velocity=64 time=0
EXTRACT: note_on channel=1 note=33 velocity=122 time=0.002
EXTRACT: note_on channel=2 note=45 velocity=125 time=0
EXTRACT: note_on channel=5 note=45 velocity=112 time=0
EXTRACT: note_on channel=9 note=36 velocity=126 time=0
EXTRACT: note_on channel=9 note=38 velocity=117 time=0
EXTRACT: note_on channel=9 note=42 velocity=117 time=0
EXTRACT: note_on channel=9 note=70 velocity=107 time=0
EXTRACT: note_on channel=13 note=77 velocity=69 time=0
EXTRACT: note_off channel=9 note=39 velocity=65 time=0.017
EXTRACT: note_off channel=9 note=70 velocity=64 time=0.007
EXTRACT: note_off channel=9 note=42 velocity=64 time=0
EXTRACT: note_off channel=9 note=38 velocity=65 time=0
EXTRACT: note_off channel=9 note=36 velocity=64 time=0
EXTRACT: note_off channel=14 note=84 velocity=64 time=0.02
EXTRACT: note_off channel=11 note=96 velocity=65 time=0
EXTRACT: note_off channel=6 note=84 velocity=64 time=0
EXTRACT: note_off channel=5 note=45 velocity=64 time=0.067
EXTRACT: note_off channel=2 note=45 velocity=65 time=0
EXTRACT: note_on channel=2 note=45 velocity=75 time=0.009000000000000001
EXTRACT: note_on channel=5 note=45 velocity=62 time=0
EXTRACT: note_off channel=14 note=88 velocity=65 time=0.044
EXTRACT: note_off channel=11 note=100 velocity=65 time=0
EXTRACT: note_off channel=6 note=88 velocity=65 time=0
EXTRACT: note_on channel=12 note=76 velocity=126 time=0.033
EXTRACT: note_off channel=1 note=33 velocity=65 time=0.007
EXTRACT: note_on channel=12 note=84 velocity=126 time=0.003
EXTRACT: note_off channel=5 note=45 velocity=64 time=0.024
EXTRACT: note_off channel=2 note=45 velocity=64 time=0
EXTRACT: note_on channel=6 note=88 velocity=82 time=0.002
EXTRACT: note_on channel=11 note=100 velocity=86 time=0
EXTRACT: note_on channel=14 note=88 velocity=86 time=0
EXTRACT: note_on channel=8 note=60 velocity=100 time=0.004
EXTRACT: note_on channel=8 note=64 velocity=105 time=0
EXTRACT: note_on channel=1 note=43 velocity=122 time=0.003
EXTRACT: note_on channel=2 note=55 velocity=124 time=0
EXTRACT: note_on channel=5 note=43 velocity=113 time=0
EXTRACT: note_on channel=9 note=42 velocity=116 time=0
EXTRACT: note_on channel=9 note=70 velocity=106 time=0
EXTRACT: note_off channel=9 note=70 velocity=65 time=0.024
EXTRACT: note_off channel=9 note=42 velocity=65 time=0
EXTRACT: note_off channel=14 note=88 velocity=65 time=0
EXTRACT: note_off channel=11 note=100 velocity=64 time=0
EXTRACT: note_off channel=6 note=88 velocity=64 time=0
EXTRACT: note_on channel=6 note=84 velocity=83 time=0.019
EXTRACT: note_on channel=11 note=96 velocity=86 time=0
EXTRACT: note_on channel=14 note=84 velocity=87 time=0
EXTRACT: note_off channel=8 note=64 velocity=65 time=0.018000000000000002
EXTRACT: note_off channel=8 note=60 velocity=65 time=0
EXTRACT: note_on channel=6 note=81 velocity=77 time=0.038
EXTRACT: note_on channel=11 note=93 velocity=83 time=0
EXTRACT: note_on channel=14 note=81 velocity=83 time=0
EXTRACT: note_off channel=14 note=84 velocity=64 time=0.005
EXTRACT: note_off channel=11 note=96 velocity=65 time=0
EXTRACT: note_off channel=6 note=84 velocity=65 time=0
EXTRACT: note_off channel=5 note=43 velocity=65 time=0.007
EXTRACT: note_off channel=2 note=55 velocity=65 time=0
EXTRACT: note_off channel=1 note=43 velocity=64 time=0.003
EXTRACT: note_on channel=8 note=60 velocity=96 time=0.003
EXTRACT: note_on channel=8 note=64 velocity=103 time=0
EXTRACT: note_on channel=1 note=41 velocity=123 time=0.003
EXTRACT: note_on channel=2 note=53 velocity=124 time=0
EXTRACT: note_on channel=5 note=41 velocity=112 time=0
EXTRACT: note_on channel=9 note=44 velocity=99 time=0
EXTRACT: note_on channel=9 note=70 velocity=87 time=0
EXTRACT: note_off channel=9 note=70 velocity=64 time=0.024
EXTRACT: note_off channel=9 note=44 velocity=65 time=0
EXTRACT: note_off channel=14 note=81 velocity=65 time=0.02
EXTRACT: note_off channel=11 note=93 velocity=64 time=0
EXTRACT: note_off channel=6 note=81 velocity=65 time=0
EXTRACT: note_off channel=8 note=64 velocity=64 time=0.022
EXTRACT: note_off channel=8 note=60 velocity=65 time=0
EXTRACT: note_on channel=6 note=77 velocity=78 time=0.001
EXTRACT: note_on channel=11 note=89 velocity=85 time=0
EXTRACT: note_on channel=14 note=77 velocity=84 time=0
EXTRACT: control_change channel=13 control=6 value=60 time=0.013000000000000001
EXTRACT: note_off channel=10 note=72 velocity=64 time=0.001
EXTRACT: note_off channel=10 note=69 velocity=65 time=0.005
EXTRACT: note_off channel=12 note=76 velocity=64 time=0.02
EXTRACT: note_off channel=5 note=41 velocity=65 time=0.005
EXTRACT: note_off channel=2 note=53 velocity=64 time=0
EXTRACT: note_off channel=1 note=41 velocity=64 time=0.003
EXTRACT: note_off channel=13 note=72 velocity=65 time=0
EXTRACT: note_off channel=13 note=69 velocity=64 time=0
EXTRACT: note_off channel=12 note=84 velocity=64 time=0.002
EXTRACT: note_on channel=1 note=26 velocity=123 time=0.004
EXTRACT: note_on channel=2 note=38 velocity=125 time=0
EXTRACT: note_on channel=5 note=38 velocity=113 time=0
EXTRACT: note_on channel=9 note=36 velocity=126 time=0
EXTRACT: note_on channel=9 note=42 velocity=117 time=0
EXTRACT: note_on channel=9 note=70 velocity=107 time=0
EXTRACT: note_on channel=13 note=62 velocity=57 time=0
EXTRACT: note_on channel=13 note=65 velocity=52 time=0
EXTRACT: note_on channel=13 note=74 velocity=47 time=0.002
EXTRACT: note_on channel=10 note=65 velocity=95 time=0.003
EXTRACT: note_on channel=10 note=69 velocity=100 time=0
EXTRACT: note_on channel=13 note=69 velocity=62 time=0
EXTRACT: note_on channel=6 note=74 velocity=76 time=0.003
EXTRACT: note_on channel=11 note=86 velocity=84 time=0
EXTRACT: note_on channel=14 note=74 velocity=84 time=0
EXTRACT: note_off channel=14 note=77 velocity=64 time=0.006
EXTRACT: note_off channel=11 note=89 velocity=64 time=0
EXTRACT: note_off channel=6 note=77 velocity=64 time=0
EXTRACT: note_off channel=9 note=70 velocity=64 time=0.01
EXTRACT: note_off channel=9 note=42 velocity=64 time=0
EXTRACT: note_off channel=9 note=36 velocity=65 time=0
EXTRACT: note_off channel=13 note=77 velocity=65 time=0.005
EXTRACT: note_off channel=5 note=38 velocity=64 time=0.082
EXTRACT: note_off channel=2 note=38 velocity=64 time=0
EXTRACT: note_on channel=2 note=38 velocity=75 time=0.009000000000000001
EXTRACT: note_on channel=5 note=38 velocity=63 time=0
EXTRACT: note_off channel=1 note=26 velocity=65 time=0.084
EXTRACT: note_off channel=5 note=38 velocity=64 time=0.027
EXTRACT: note_off channel=2 note=38 velocity=65 time=0
EXTRACT: note_on channel=8 note=62 velocity=95 time=0.006
EXTRACT: note_on channel=8 note=65 velocity=100 time=0
EXTRACT: note_on channel=1 note=38 velocity=122 time=0.003
EXTRACT: note_on channel=2 note=50 velocity=124 time=0
EXTRACT: note_on channel=5 note=38 velocity=112 time=0
EXTRACT: note_on channel=9 note=46 velocity=104 time=0
EXTRACT: note_on channel=9 note=70 velocity=106 time=0
EXTRACT: note_off channel=9 note=70 velocity=65 time=0.024
EXTRACT: note_off channel=9 note=46 velocity=64 time=0
EXTRACT: note_off channel=8 note=65 velocity=64 time=0.033
EXTRACT: note_off channel=8 note=62 velocity=64 time=0
EXTRACT: note_off channel=5 note=38 velocity=65 time=0.054
EXTRACT: note_off channel=2 note=50 velocity=65 time=0
EXTRACT: note_off channel=1 note=38 velocity=64 time=0.003
EXTRACT: note_on channel=8 note=62 velocity=73 time=0.003
EXTRACT: note_on channel=8 note=65 velocity=78 time=0
EXTRACT: note_on channel=2 note=50 velocity=124 time=0.003
EXTRACT: note_on channel=5 note=38 velocity=113 time=0
EXTRACT: note_on channel=9 note=70 velocity=87 time=0
EXTRACT: note_off channel=9 note=70 velocity=64 time=0.024
EXTRACT: note_off channel=8 note=65 velocity=65 time=0.04
EXTRACT: note_off channel=8 note=62 velocity=65 time=0
EXTRACT: note_off channel=5 note=38 velocity=64 time=0.047
EXTRACT: note_off channel=2 note=50 velocity=64 time=0
EXTRACT: note_on channel=9 note=39 velocity=119 time=0.001
EXTRACT: note_on channel=1 note=26 velocity=122 time=0.008
EXTRACT: note_on channel=2 note=38 velocity=125 time=0
EXTRACT: note_on channel=5 note=38 velocity=112 time=0
EXTRACT: note_on channel=9 note=36 velocity=127 time=0
EXTRACT: note_on channel=9 note=38 velocity=116 time=0
EXTRACT: note_on channel=9 note=42 velocity=117 time=0
EXTRACT: note_on channel=9 note=70 velocity=106 time=0
EXTRACT: note_off channel=9 note=39 velocity=65 time=0.017
EXTRACT: note_off channel=9 note=70 velocity=65 time=0.007
EXTRACT: note_off channel=9 note=42 velocity=64 time=0
EXTRACT: note_off channel=9 note=38 velocity=64 time=0
EXTRACT: note_off channel=9 note=36 velocity=65 time=0
EXTRACT: note_off channel=5 note=38 velocity=65 time=0.08700000000000001
EXTRACT: note_off channel=2 note=38 velocity=64 time=0
EXTRACT: note_on channel=2 note=38 velocity=74 time=0.009000000000000001
EXTRACT: note_on channel=5 note=38 velocity=62 time=0
EXTRACT: note_off channel=1 note=26 velocity=65 time=0.084
EXTRACT: note_off channel=5 note=38 velocity=65 time=0.027
EXTRACT: note_off channel=2 note=38 velocity=65 time=0
EXTRACT: note_on channel=8 note=62 velocity=96 time=0.006
EXTRACT: note_on channel=8 note=65 velocity=103 time=0
EXTRACT: note_on channel=1 note=38 velocity=123 time=0.003
EXTRACT: note_on channel=2 note=50 velocity=125 time=0
EXTRACT: note_on channel=5 note=38 velocity=113 time=0
EXTRACT: note_on channel=9 note=42 velocity=114 time=0
EXTRACT: note_on channel=9 note=70 velocity=106 time=0
EXTRACT: note_off channel=9 note=70 velocity=64 time=0.024
EXTRACT: note_off channel=9 note=42 velocity=65 time=0
EXTRACT: note_off channel=8 note=65 velocity=64 time=0.029
EXTRACT: note_off channel=8 note=62 velocity=64 time=0
EXTRACT: note_off channel=5 note=38 velocity=64 time=0.058
EXTRACT: note_off channel=2 note=50 velocity=65 time=0
EXTRACT: note_off channel=1 note=38 velocity=65 time=0.003
EXTRACT: note_on channel=8 note=62 velocity=89 time=0.003
EXTRACT: note_on channel=8 note=65 velocity=92 time=0
EXTRACT: note_on channel=2 note=50 velocity=125 time=0.003
EXTRACT: note_on channel=5 note=38 velocity=113 time=0
EXTRACT: note_on channel=9 note=44 velocity=98 time=0
EXTRACT: note_on channel=9 note=70 velocity=87 time=0
EXTRACT: note_off channel=9 note=70 velocity=65 time=0.024
EXTRACT: note_off channel=9 note=44 velocity=64 time=0
EXTRACT: note_off channel=8 note=65 velocity=65 time=0.032
EXTRACT: note_off channel=8 note=62 velocity=65 time=0
EXTRACT: note_off channel=5 note=38 velocity=65 time=0.055
EXTRACT: note_off channel=2 note=50 velocity=64 time=0
EXTRACT: note_on channel=1 note=26 velocity=122 time=0.009000000000000001
EXTRACT: note_on channel=2 note=38 velocity=124 time=0
EXTRACT: note_on channel=5 note=38 velocity=112 time=0
EXTRACT: note_on channel=9 note=36 velocity=127 time=0
EXTRACT: note_on channel=9 note=42 velocity=119 time=0
EXTRACT: note_on channel=9 note=70 velocity=107 time=0
EXTRACT: note_off channel=9 note=70 velocity=65 time=0.024
EXTRACT: note_off channel=9 note=42 velocity=64 time=0
EXTRACT: note_off channel=9 note=36 velocity=64 time=0
EXTRACT: note_off channel=5 note=38 velocity=64 time=0.08700000000000001
EXTRACT: note_off channel=2 note=38 velocity=64 time=0
EXTRACT: note_on channel=2 note=38 velocity=75 time=0.009000000000000001
EXTRACT: note_on channel=5 note=38 velocity=62 time=0
EXTRACT: note_off channel=14 note=74 velocity=64 time=0.074
EXTRACT: note_off channel=11 note=86 velocity=65 time=0
EXTRACT: note_off channel=6 note=74 velocity=65 time=0
EXTRACT: note_off channel=1 note=26 velocity=64 time=0.01
EXTRACT: note_off channel=5 note=38 velocity=64 time=0.027
EXTRACT: note_off channel=2 note=38 velocity=65 time=0
EXTRACT: note_on channel=8 note=62 velocity=96 time=0.006
EXTRACT: note_on channel=8 note=65 velocity=103 time=0
EXTRACT: note_on channel=1 note=38 velocity=123 time=0.003
EXTRACT: note_on channel=2 note=50 velocity=124 time=0
EXTRACT: note_on channel=5 note=38 velocity=113 time=0
EXTRACT: note_on channel=9 note=46 velocity=107 time=0
EXTRACT: note_on channel=9 note=70 velocity=106 time=0
EXTRACT: note_on channel=6 note=74 velocity=67 time=0.021
EXTRACT: note_on channel=11 note=86 velocity=72 time=0
EXTRACT: note_on channel=14 note=74 velocity=73 time=0
EXTRACT: note_off channel=9 note=70 velocity=65 time=0.003
EXTRACT: note_off channel=9 note=46 velocity=65 time=0
EXTRACT: note_off channel=8 note=65 velocity=64 time=0.032
EXTRACT: note_off channel=8 note=62 velocity=64 time=0
EXTRACT: note_on channel=6 note=77 velocity=82 time=0.04
EXTRACT: note_on channel=11 note=89 velocity=75 time=0
EXTRACT: note_on channel=14 note=77 velocity=75 time=0
EXTRACT: note_off channel=5 note=38 velocity=65 time=0.015
EXTRACT: note_off channel=2 note=50 velocity=64 time=0
EXTRACT: note_off channel=14 note=74 velocity=65 time=0.003
EXTRACT: note_off channel=11 note=86 velocity=65 time=0
EXTRACT: note_off channel=6 note=74 velocity=64 time=0
EXTRACT: note_off channel=1 note=38 velocity=65 time=0
EXTRACT: note_on channel=8 note=62 velocity=95 time=0.003
EXTRACT: note_on channel=8 note=65 velocity=100 time=0
EXTRACT: note_on channel=2 note=50 velocity=124 time=0.003
EXTRACT: note_on channel=5 note=38 velocity=113 time=0
EXTRACT: note_on channel=9 note=70 velocity=86 time=0
EXTRACT: note_off channel=9 note=70 velocity=64 time=0.024
EXTRACT: note_on channel=6 note=81 velocity=83 time=0.028
EXTRACT: note_on channel=11 note=93 velocity=90 time=0
EXTRACT: note_on channel=14 note=81 velocity=90 time=0
EXTRACT: note_off channel=8 note=65 velocity=65 time=0.001
EXTRACT: note_off channel=8 note=62 velocity=64 time=0
EXTRACT: note_off channel=14 note=77 velocity=65 time=0.021
EXTRACT: note_off channel=11 note=89 velocity=64 time=0
EXTRACT: note_off channel=6 note=77 velocity=64 time=0
EXTRACT: control_change channel=9 control=91 value=30 time=0.016
EXTRACT: note_off channel=5 note=38 velocity=65 time=0.021
EXTRACT: note_off channel=2 note=50 velocity=65 time=0
EXTRACT: note_on channel=9 note=39 velocity=119 time=0.001
EXTRACT: note_on channel=1 note=26 velocity=123 time=0.008
EXTRACT: note_on channel=2 note=38 velocity=125 time=0
EXTRACT: note_on channel=5 note=38 velocity=112 time=0
EXTRACT: note_on channel=9 note=36 velocity=126 time=0
EXTRACT: note_on channel=9 note=38 velocity=116 time=0
EXTRACT: note_on channel=9 note=42 velocity=122 time=0
EXTRACT: note_on channel=9 note=70 velocity=107 time=0
EXTRACT: note_on channel=6 note=86 velocity=85 time=0.001
EXTRACT: note_on channel=11 note=98 velocity=83 time=0
EXTRACT: note_on channel=14 note=86 velocity=82 time=0
EXTRACT: note_off channel=9 note=39 velocity=64 time=0.016
EXTRACT: note_off channel=9 note=70 velocity=65 time=0.007
EXTRACT: note_off channel=9 note=42 velocity=65 time=0
EXTRACT: note_off channel=9 note=38 velocity=64 time=0
EXTRACT: note_off channel=9 note=36 velocity=64 time=0
EXTRACT: note_off channel=14 note=81 velocity=64 time=0
EXTRACT: note_off channel=11 note=93 velocity=64 time=0
EXTRACT: note_off channel=6 note=81 velocity=65 time=0
EXTRACT: note_on channel=12 note=70 velocity=107 time=0.049
EXTRACT: note_off channel=5 note=38 velocity=64 time=0.038
EXTRACT: note_off channel=2 note=38 velocity=65 time=0
EXTRACT: note_on channel=2 note=38 velocity=75 time=0.009000000000000001
EXTRACT: note_on channel=5 note=38 velocity=62 time=0
EXTRACT: note_off channel=14 note=86 velocity=64 time=0.034
EXTRACT: note_off channel=11 note=98 velocity=65 time=0
EXTRACT: note_off channel=6 note=86 velocity=65 time=0
EXTRACT: note_off channel=1 note=26 velocity=64 time=0.05
EXTRACT: note_off channel=5 note=38 velocity=64 time=0.027
EXTRACT: note_off channel=2 note=38 velocity=64 time=0
EXTRACT: note_on channel=6 note=86 velocity=82 time=0.002
EXTRACT: note_on channel=11 note=98 velocity=89 time=0
EXTRACT: note_on channel=14 note=86 velocity=89 time=0
EXTRACT: note_on channel=8 note=62 velocity=100 time=0.004
EXTRACT: note_on channel=8 note=65 velocity=105 time=0
EXTRACT: note_on channel=1 note=38 velocity=122 time=0.003
EXTRACT: note_on channel=2 note=50 velocity=124 time=0
EXTRACT: note_on channel=5 note=38 velocity=113 time=0
EXTRACT: note_on channel=9 note=42 velocity=122 time=0
EXTRACT: note_on channel=9 note=70 velocity=107 time=0
EXTRACT: note_off channel=9 note=70 velocity=65 time=0.024
EXTRACT: note_off channel=9 note=42 velocity=64 time=0
EXTRACT: note_on channel=6 note=81 velocity=81 time=0.032
EXTRACT: note_on channel=11 note=93 velocity=84 time=0
EXTRACT: note_on channel=14 note=81 velocity=84 time=0
EXTRACT: note_off channel=8 note=65 velocity=65 time=0.005
EXTRACT: note_off channel=8 note=62 velocity=65 time=0
EXTRACT: note_off channel=14 note=86 velocity=65 time=0.003
EXTRACT: note_off channel=11 note=98 velocity=65 time=0
EXTRACT: note_off channel=6 note=86 velocity=64 time=0
EXTRACT: note_off channel=5 note=38 velocity=65 time=0.047
EXTRACT: note_off channel=2 note=50 velocity=65 time=0
EXTRACT: note_off channel=1 note=38 velocity=64 time=0.003
EXTRACT: note_off channel=13 note=69 velocity=65 time=0
EXTRACT: note_on channel=8 note=62 velocity=96 time=0.003
EXTRACT: note_on channel=8 note=65 velocity=103 time=0
EXTRACT: note_on channel=2 note=50 velocity=124 time=0.003
EXTRACT: note_on channel=5 note=38 velocity=112 time=0
EXTRACT: note_on channel=9 note=44 velocity=98 time=0
EXTRACT: note_on channel=9 note=70 velocity=86 time=0
EXTRACT: note_off channel=12 note=70 velocity=65 time=0.007
EXTRACT: note_off channel=10 note=65 velocity=65 time=0.003
EXTRACT: note_off channel=10 note=69 velocity=64 time=0.006
EXTRACT: note_off channel=9 note=70 velocity=65 time=0.008
EXTRACT: note_off channel=9 note=44 velocity=65 time=0
EXTRACT: note_off channel=14 note=81 velocity=65 time=0.01
EXTRACT: note_off channel=11 note=93 velocity=64 time=0
EXTRACT: note_off channel=6 note=81 velocity=64 time=0
EXTRACT: note_on channel=6 note=77 velocity=80 time=0.003
EXTRACT: note_on channel=11 note=89 velocity=83 time=0
EXTRACT: note_on channel=14 note=77 velocity=83 time=0
EXTRACT: note_off channel=13 note=62 velocity=64 time=0.017
EXTRACT: note_off channel=8 note=65 velocity=64 time=0.012
EXTRACT: note_off channel=8 note=62 velocity=65 time=0
EXTRACT: note_off channel=13 note=74 velocity=65 time=0.008
EXTRACT: note_off channel=13 note=65 velocity=64 time=0
EXTRACT: note_off channel=14 note=77 velocity=64 time=0.03
EXTRACT: note_off channel=11 note=89 velocity=64 time=0
EXTRACT: note_off channel=6 note=77 velocity=65 time=0
EXTRACT: note_off channel=5 note=38 velocity=65 time=0.007
EXTRACT: note_off channel=2 note=50 velocity=64 time=0
EXTRACT: note_on channel=1 note=26 velocity=123 time=0.009000000000000001
EXTRACT: note_on channel=2 note=38 velocity=125 time=0
EXTRACT: note_on channel=5 note=38 velocity=113 time=0
EXTRACT: note_on channel=9 note=36 velocity=126 time=0
EXTRACT: note_on channel=9 note=42 velocity=127 time=0
EXTRACT: note_on channel=9 note=70 velocity=106 time=0
EXTRACT: note_on channel=13 note=62 velocity=56 time=0
EXTRACT: note_on channel=13 note=65 velocity=53 time=0
EXTRACT: note_on channel=13 note=74 velocity=47 time=0.002
EXTRACT: note_on channel=10 note=62 velocity=98 time=0.003
EXTRACT: note_on channel=10 note=65 velocity=99 time=0
EXTRACT: note_on channel=13 note=69 velocity=62 time=0
EXTRACT: note_on channel=11 note=86 velocity=78 time=0.002
EXTRACT: note_on channel=14 note=74 velocity=79 time=0
EXTRACT: note_off channel=9 note=70 velocity=64 time=0.017
EXTRACT: note_off channel=9 note=42 velocity=65 time=0
EXTRACT: note_off channel=9 note=36 velocity=64 time=0
EXTRACT: note_off channel=5 note=38 velocity=64 time=0.08700000000000001
EXTRACT: note_off channel=2 note=38 velocity=64 time=0
EXTRACT: note_on channel=2 note=38 velocity=75 time=0.009000000000000001
EXTRACT: note_on channel=5 note=38 velocity=73 time=0
EXTRACT: note_off channel=1 note=26 velocity=65 time=0.084
EXTRACT: note_off channel=5 note=38 velocity=64 time=0.027
EXTRACT: note_off channel=2 note=38 velocity=65 time=0
EXTRACT: note_on channel=8 note=62 velocity=95 time=0.006
EXTRACT: note_on channel=8 note=65 velocity=100 time=0
EXTRACT: note_on channel=1 note=38 velocity=122 time=0.003
EXTRACT: note_on channel=2 note=50 velocity=124 time=0
EXTRACT: note_on channel=5 note=38 velocity=112 time=0
EXTRACT: note_on channel=9 note=46 velocity=113 time=0
EXTRACT: note_on channel=9 note=70 velocity=107 time=0
EXTRACT: note_off channel=9 note=70 velocity=64 time=0.024
EXTRACT: note_off channel=9 note=46 velocity=65 time=0
EXTRACT: note_off channel=8 note=65 velocity=64 time=0.033
EXTRACT: note_off channel=8 note=62 velocity=64 time=0
EXTRACT: note_off channel=5 note=38 velocity=65 time=0.054
EXTRACT: note_off channel=2 note=50 velocity=65 time=0
EXTRACT: note_on channel=8 note=62 velocity=73 time=0.006
EXTRACT: note_on channel=8 note=65 velocity=78 time=0
EXTRACT: note_on channel=2 note=50 velocity=124 time=0.003
EXTRACT: note_on channel=5 note=38 velocity=113 time=0
EXTRACT: note_on channel=9 note=70 velocity=86 time=0
EXTRACT: note_off channel=9 note=70 velocity=65 time=0.024
EXTRACT: note_off channel=8 note=65 velocity=65 time=0.04
EXTRACT: note_off channel=8 note=62 velocity=65 time=0
EXTRACT: note_off channel=1 note=38 velocity=65 time=0.035
EXTRACT: note_off channel=5 note=38 velocity=64 time=0.012
EXTRACT: note_off channel=2 note=50 velocity=64 time=0
EXTRACT: note_on channel=9 note=39 velocity=118 time=0.001
EXTRACT: note_on channel=1 note=26 velocity=122 time=0.008
EXTRACT: note_on channel=2 note=38 velocity=125 time=0
EXTRACT: note_on channel=5 note=38 velocity=112 time=0
EXTRACT: note_on channel=9 note=36 velocity=127 time=0
EXTRACT: note_on channel=9 note=38 velocity=117 time=0
EXTRACT: note_on channel=9 note=42 velocity=119 time=0
EXTRACT: note_on channel=9 note=70 velocity=107 time=0
EXTRACT: note_off channel=9 note=39 velocity=64 time=0.017
EXTRACT: note_off channel=9 note=70 velocity=64 time=0.007
EXTRACT: note_off channel=9 note=42 velocity=65 time=0
EXTRACT: note_off channel=9 note=38 velocity=65 time=0
EXTRACT: note_off channel=9 note=36 velocity=64 time=0
EXTRACT: note_off channel=5 note=38 velocity=65 time=0.08700000000000001
EXTRACT: note_off channel=2 note=38 velocity=64 time=0
EXTRACT: note_on channel=2 note=38 velocity=74 time=0.009000000000000001
EXTRACT: note_on channel=5 note=38 velocity=72 time=0
EXTRACT: note_off channel=1 note=26 velocity=64 time=0.069
EXTRACT: note_off channel=5 note=38 velocity=65 time=0.042
EXTRACT: note_off channel=2 note=38 velocity=65 time=0
EXTRACT: note_on channel=8 note=62 velocity=96 time=0.006
EXTRACT: note_on channel=8 note=65 velocity=103 time=0
EXTRACT: note_on channel=1 note=38 velocity=123 time=0.003
EXTRACT: note_on channel=2 note=50 velocity=125 time=0
EXTRACT: note_on channel=5 note=38 velocity=113 time=0
EXTRACT: note_on channel=9 note=42 velocity=116 time=0
EXTRACT: note_on channel=9 note=70 velocity=107 time=0
EXTRACT: note_off channel=9 note=70 velocity=64 time=0.024
EXTRACT: note_off channel=9 note=42 velocity=65 time=0
EXTRACT: note_off channel=8 note=65 velocity=64 time=0.029
EXTRACT: note_off channel=8 note=62 velocity=64 time=0
EXTRACT: note_off channel=5 note=38 velocity=64 time=0.058
EXTRACT: note_off channel=2 note=50 velocity=65 time=0
EXTRACT: note_on channel=8 note=62 velocity=89 time=0.006
EXTRACT: note_on channel=8 note=65 velocity=92 time=0
EXTRACT: note_on channel=2 note=50 velocity=125 time=0.003
EXTRACT: note_on channel=5 note=38 velocity=113 time=0
EXTRACT: note_on channel=9 note=44 velocity=99 time=0
EXTRACT: note_on channel=9 note=70 velocity=86 time=0
EXTRACT: control_change channel=13 control=6 value=52 time=0
EXTRACT: note_off channel=9 note=70 velocity=64 time=0.024
EXTRACT: note_off channel=9 note=44 velocity=65 time=0
EXTRACT: note_off channel=8 note=65 velocity=65 time=0.032
EXTRACT: note_off channel=8 note=62 velocity=65 time=0
EXTRACT: note_off channel=1 note=38 velocity=64 time=0.043000000000000003
EXTRACT: note_off channel=5 note=38 velocity=65 time=0.012
EXTRACT: note_off channel=2 note=50 velocity=64 time=0
EXTRACT: note_on channel=1 note=26 velocity=123 time=0.009000000000000001
EXTRACT: note_on channel=2 note=38 velocity=124 time=0
EXTRACT: note_on channel=5 note=38 velocity=112 time=0
EXTRACT: note_on channel=9 note=36 velocity=127 time=0
EXTRACT: note_on channel=9 note=42 velocity=124 time=0
EXTRACT: note_on channel=9 note=70 velocity=107 time=0
EXTRACT: note_off channel=9 note=70 velocity=65 time=0.024
EXTRACT: note_off channel=9 note=42 velocity=64 time=0
EXTRACT: note_off channel=9 note=36 velocity=65 time=0
EXTRACT: note_off channel=5 note=38 velocity=64 time=0.08700000000000001
EXTRACT: note_off channel=2 note=38 velocity=64 time=0
EXTRACT: note_on channel=2 note=38 velocity=75 time=0.009000000000000001
EXTRACT: note_on channel=5 note=38 velocity=72 time=0
EXTRACT: note_off channel=14 note=74 velocity=64 time=0.054
EXTRACT: note_off channel=11 note=86 velocity=65 time=0
EXTRACT: note_off channel=1 note=26 velocity=65 time=0.045
EXTRACT: note_off channel=5 note=38 velocity=64 time=0.012
EXTRACT: note_off channel=2 note=38 velocity=65 time=0
EXTRACT: note_on channel=8 note=62 velocity=96 time=0.006
EXTRACT: note_on channel=8 note=65 velocity=103 time=0
EXTRACT: note_on channel=1 note=38 velocity=122 time=0.003
EXTRACT: note_on channel=2 note=50 velocity=124 time=0
EXTRACT: note_on channel=5 note=38 velocity=113 time=0
EXTRACT: note_on channel=9 note=46 velocity=110 time=0
EXTRACT: note_on channel=9 note=70 velocity=106 time=0
EXTRACT: note_on channel=6 note=74 velocity=72 time=0.001
EXTRACT: note_on channel=11 note=86 velocity=76 time=0
EXTRACT: note_on channel=14 note=74 velocity=76 time=0
EXTRACT: note_off channel=9 note=70 velocity=64 time=0.023
EXTRACT: note_off channel=9 note=46 velocity=64 time=0
EXTRACT: note_off channel=8 note=65 velocity=64 time=0.032
EXTRACT: note_off channel=8 note=62 velocity=64 time=0
EXTRACT: note_on channel=6 note=77 velocity=83 time=0.02
EXTRACT: note_on channel=11 note=89 velocity=89 time=0
EXTRACT: note_on channel=14 note=77 velocity=89 time=0
EXTRACT: note_off channel=14 note=74 velocity=65 time=0.018000000000000002
EXTRACT: note_off channel=11 note=86 velocity=64 time=0
EXTRACT: note_off channel=6 note=74 velocity=65 time=0
EXTRACT: note_off channel=5 note=38 velocity=65 time=0.017
EXTRACT: note_off channel=2 note=50 velocity=64 time=0
EXTRACT: note_on channel=8 note=62 velocity=95 time=0.006
EXTRACT: note_on channel=8 note=65 velocity=100 time=0
EXTRACT: note_on channel=2 note=50 velocity=124 time=0.003
EXTRACT: note_on channel=5 note=38 velocity=113 time=0
EXTRACT: note_on channel=9 note=70 velocity=86 time=0
EXTRACT: note_off channel=9 note=70 velocity=65 time=0.024
EXTRACT: note_on channel=6 note=81 velocity=63 time=0.008
EXTRACT: note_on channel=11 note=93 velocity=79 time=0
EXTRACT: note_on channel=14 note=81 velocity=78 time=0
EXTRACT: note_off channel=8 note=65 velocity=65 time=0.021
EXTRACT: note_off channel=8 note=62 velocity=64 time=0
EXTRACT: note_off channel=14 note=77 velocity=64 time=0.001
EXTRACT: note_off channel=11 note=89 velocity=65 time=0
EXTRACT: note_off channel=6 note=77 velocity=64 time=0
EXTRACT: note_off channel=1 note=38 velocity=65 time=0.03
EXTRACT: note_on channel=6 note=86 velocity=72 time=0.017
EXTRACT: note_on channel=11 note=98 velocity=82 time=0
EXTRACT: note_on channel=14 note=86 velocity=82 time=0
EXTRACT: note_off channel=5 note=38 velocity=65 time=0.01
EXTRACT: note_off channel=2 note=50 velocity=65 time=0
EXTRACT: note_on channel=9 note=39 velocity=119 time=0.001
EXTRACT: note_on channel=1 note=26 velocity=122 time=0.008
EXTRACT: note_on channel=2 note=38 velocity=125 time=0
EXTRACT: note_on channel=5 note=38 velocity=112 time=0
EXTRACT: note_on channel=9 note=36 velocity=126 time=0
EXTRACT: note_on channel=9 note=38 velocity=117 time=0
EXTRACT: note_on channel=9 note=42 velocity=99 time=0
EXTRACT: note_on channel=9 note=70 velocity=107 time=0
EXTRACT: note_off channel=14 note=81 velocity=65 time=0.004
EXTRACT: note_off channel=11 note=93 velocity=65 time=0
EXTRACT: note_off channel=6 note=81 velocity=64 time=0
EXTRACT: note_off channel=9 note=39 velocity=65 time=0.013000000000000001
EXTRACT: note_off channel=9 note=70 velocity=64 time=0.007
EXTRACT: note_off channel=9 note=42 velocity=64 time=0
EXTRACT: note_off channel=9 note=38 velocity=65 time=0
EXTRACT: note_off channel=9 note=36 velocity=65 time=0
EXTRACT: note_off channel=5 note=38 velocity=64 time=0.08700000000000001
EXTRACT: note_off channel=2 note=38 velocity=65 time=0
EXTRACT: note_on channel=2 note=38 velocity=75 time=0.009000000000000001
EXTRACT: note_on channel=5 note=38 velocity=72 time=0
EXTRACT: note_off channel=1 note=26 velocity=64 time=0.084
EXTRACT: note_on channel=6 note=81 velocity=74 time=0.022
EXTRACT: note_on channel=11 note=93 velocity=76 time=0
EXTRACT: note_on channel=14 note=81 velocity=77 time=0
EXTRACT: note_off channel=5 note=38 velocity=64 time=0.005
EXTRACT: note_off channel=2 note=38 velocity=64 time=0
EXTRACT: note_on channel=8 note=62 velocity=100 time=0.006
EXTRACT: note_on channel=8 note=65 velocity=105 time=0
EXTRACT: note_on channel=1 note=38 velocity=123 time=0.003
EXTRACT: note_on channel=2 note=50 velocity=124 time=0
EXTRACT: note_on channel=5 note=38 velocity=113 time=0
EXTRACT: note_on channel=9 note=42 velocity=115 time=0
EXTRACT: note_on channel=9 note=70 velocity=107 time=0
EXTRACT: note_off channel=14 note=86 velocity=65 time=0.004
EXTRACT: note_off channel=11 note=98 velocity=64 time=0
EXTRACT: note_off channel=6 note=86 velocity=65 time=0
EXTRACT: note_off channel=9 note=70 velocity=64 time=0.02
EXTRACT: note_off channel=9 note=42 velocity=64 time=0
EXTRACT: note_off channel=8 note=65 velocity=65 time=0.037
EXTRACT: note_off channel=8 note=62 velocity=65 time=0
EXTRACT: note_off channel=5 note=38 velocity=65 time=0.05
EXTRACT: note_off channel=2 note=50 velocity=65 time=0
EXTRACT: note_off channel=14 note=81 velocity=64 time=0.003
EXTRACT: note_off channel=11 note=93 velocity=65 time=0
EXTRACT: note_off channel=6 note=81 velocity=64 time=0
EXTRACT: note_on channel=6 note=77 velocity=73 time=0.003
EXTRACT: note_on channel=8 note=62 velocity=96 time=0
EXTRACT: note_on channel=8 note=65 velocity=103 time=0
EXTRACT: note_on channel=11 note=89 velocity=81 time=0
EXTRACT: note_on channel=14 note=77 velocity=81 time=0
EXTRACT: note_on channel=2 note=50 velocity=124 time=0.003
EXTRACT: note_on channel=5 note=38 velocity=112 time=0
EXTRACT: note_on channel=9 note=44 velocity=99 time=0
EXTRACT: note_on channel=9 note=70 velocity=86 time=0
EXTRACT: note_off channel=9 note=70 velocity=65 time=0.024
EXTRACT: note_off channel=9 note=44 velocity=64 time=0
EXTRACT: note_off channel=8 note=65 velocity=64 time=0.042
EXTRACT: note_off channel=8 note=62 velocity=65 time=0
EXTRACT: note_off channel=1 note=38 velocity=64 time=0.018000000000000002
EXTRACT: note_off channel=5 note=38 velocity=65 time=0.027
EXTRACT: note_off channel=2 note=50 velocity=64 time=0
EXTRACT: note_on channel=6 note=74 velocity=79 time=0.006
EXTRACT: note_on channel=11 note=86 velocity=85 time=0
EXTRACT: note_on channel=14 note=74 velocity=84 time=0
EXTRACT: note_on channel=1 note=26 velocity=123 time=0.003
EXTRACT: note_on channel=2 note=38 velocity=125 time=0
EXTRACT: note_on channel=5 note=38 velocity=113 time=0
EXTRACT: note_on channel=9 note=36 velocity=126 time=0
EXTRACT: note_on channel=9 note=42 velocity=122 time=0
EXTRACT: note_on channel=9 note=70 velocity=106 time=0
EXTRACT: note_off channel=14 note=77 velocity=65 time=0.014
EXTRACT: note_off channel=11 note=89 velocity=64 time=0
EXTRACT: note_off channel=6 note=77 velocity=65 time=0
EXTRACT: note_off channel=9 note=70 velocity=65 time=0.01
EXTRACT: note_off channel=9 note=42 velocity=65 time=0
EXTRACT: note_off channel=9 note=36 velocity=64 time=0
EXTRACT: control_change channel=13 control=6 value=54 time=0.056
EXTRACT: note_off channel=5 note=38 velocity=64 time=0.031
EXTRACT: note_off channel=2 note=38 velocity=64 time=0
EXTRACT: note_on channel=6 note=76 velocity=78 time=0.005
EXTRACT: note_on channel=11 note=88 velocity=84 time=0
EXTRACT: note_on channel=14 note=76 velocity=84 time=0
EXTRACT: note_off channel=10 note=62 velocity=64 time=0.003
EXTRACT: note_on channel=2 note=38 velocity=75 time=0.001
EXTRACT: note_on channel=5 note=38 velocity=73 time=0
EXTRACT: note_off channel=14 note=74 velocity=64 time=0.004
EXTRACT: note_off channel=11 note=86 velocity=64 time=0
EXTRACT: note_off channel=6 note=74 velocity=65 time=0
EXTRACT: note_off channel=1 note=26 velocity=65 time=0.08
EXTRACT: note_off channel=5 note=38 velocity=64 time=0.027
EXTRACT: note_off channel=2 note=38 velocity=65 time=0
EXTRACT: note_off channel=13 note=69 velocity=64 time=0.003
EXTRACT: note_off channel=13 note=74 velocity=65 time=0
EXTRACT: note_off channel=13 note=65 velocity=65 time=0
EXTRACT: note_off channel=13 note=62 velocity=64 time=0
EXTRACT: note_on channel=8 note=60 velocity=95 time=0.003
EXTRACT: note_on channel=8 note=65 velocity=100 time=0
EXTRACT: note_on channel=6 note=77 velocity=74 time=0.001
EXTRACT: note_on channel=11 note=89 velocity=92 time=0
EXTRACT: note_on channel=14 note=77 velocity=93 time=0
EXTRACT: note_off channel=10 note=65 velocity=65 time=0.001
EXTRACT: note_on channel=1 note=28 velocity=122 time=0.001
EXTRACT: note_on channel=2 note=52 velocity=124 time=0
EXTRACT: note_on channel=5 note=40 velocity=112 time=0
EXTRACT: note_on channel=9 note=46 velocity=105 time=0
EXTRACT: note_on channel=9 note=70 velocity=107 time=0
EXTRACT: note_on channel=13 note=64 velocity=80 time=0
EXTRACT: note_on channel=10 note=64 velocity=90 time=0.005
EXTRACT: note_on channel=10 note=67 velocity=79 time=0
EXTRACT: note_off channel=14 note=76 velocity=64 time=0
EXTRACT: note_off channel=11 note=88 velocity=65 time=0
EXTRACT: note_off channel=6 note=76 velocity=64 time=0
EXTRACT: note_on channel=13 note=67 velocity=65 time=0.007
EXTRACT: note_on channel=13 note=71 velocity=63 time=0.008
EXTRACT: note_off channel=9 note=70 velocity=65 time=0.004
EXTRACT: note_off channel=9 note=46 velocity=64 time=0
EXTRACT: note_off channel=8 note=65 velocity=64 time=0.033
EXTRACT: note_off channel=8 note=60 velocity=64 time=0
EXTRACT: note_off channel=5 note=40 velocity=65 time=0.054
EXTRACT: note_off channel=2 note=52 velocity=65 time=0
EXTRACT: note_on channel=8 note=60 velocity=73 time=0.006
EXTRACT: note_on channel=8 note=65 velocity=78 time=0
EXTRACT: note_on channel=2 note=52 velocity=124 time=0.003
EXTRACT: note_on channel=5 note=40 velocity=113 time=0
EXTRACT: note_on channel=9 note=70 velocity=87 time=0
EXTRACT: note_on channel=6 note=79 velocity=75 time=0.001
EXTRACT: note_on channel=11 note=91 velocity=83 time=0
EXTRACT: note_on channel=14 note=79 velocity=83 time=0
EXTRACT: note_off channel=14 note=77 velocity=65 time=0.013000000000000001
EXTRACT: note_off channel=11 note=89 velocity=65 time=0
EXTRACT: note_off channel=6 note=77 velocity=65 time=0
EXTRACT: note_off channel=9 note=70 velocity=64 time=0.01
EXTRACT: note_off channel=8 note=65 velocity=65 time=0.04
EXTRACT: note_off channel=8 note=60 velocity=65 time=0
EXTRACT: note_off channel=1 note=28 velocity=64 time=0.005
EXTRACT: note_off channel=13 note=64 velocity=64 time=0.006
EXTRACT: note_on channel=6 note=81 velocity=76 time=0.022
EXTRACT: note_on channel=11 note=93 velocity=86 time=0
EXTRACT: note_on channel=14 note=81 velocity=86 time=0
EXTRACT: note_off channel=5 note=40 velocity=64 time=0.014
EXTRACT: note_off channel=2 note=52 velocity=64 time=0
EXTRACT: note_on channel=9 note=39 velocity=118 time=0.001
EXTRACT: note_off channel=13 note=71 velocity=65 time=0.002
EXTRACT: note_off channel=13 note=67 velocity=65 time=0
EXTRACT: note_off channel=10 note=67 velocity=64 time=0.005
EXTRACT: note_on channel=1 note=29 velocity=122 time=0.001
EXTRACT: note_on channel=2 note=41 velocity=125 time=0
EXTRACT: note_on channel=5 note=41 velocity=112 time=0
EXTRACT: note_on channel=9 note=36 velocity=127 time=0
EXTRACT: note_on channel=9 note=38 velocity=116 time=0
EXTRACT: note_on channel=9 note=42 velocity=110 time=0
EXTRACT: note_on channel=9 note=70 velocity=106 time=0
EXTRACT: note_on channel=13 note=65 velocity=88 time=0
EXTRACT: note_off channel=10 note=64 velocity=65 time=0.001
EXTRACT: note_off channel=14 note=79 velocity=65 time=0.001
EXTRACT: note_off channel=11 note=91 velocity=64 time=0
EXTRACT: note_off channel=6 note=79 velocity=64 time=0
EXTRACT: note_on channel=10 note=65 velocity=105 time=0.003
EXTRACT: note_on channel=10 note=69 velocity=86 time=0
EXTRACT: note_on channel=13 note=69 velocity=34 time=0.012
EXTRACT: note_on channel=13 note=72 velocity=81 time=0
EXTRACT: note_off channel=9 note=39 velocity=65 time=0
EXTRACT: note_off channel=9 note=70 velocity=65 time=0.007
EXTRACT: note_off channel=9 note=42 velocity=64 time=0
EXTRACT: note_off channel=9 note=38 velocity=64 time=0
EXTRACT: note_off channel=9 note=36 velocity=65 time=0
EXTRACT: note_off channel=5 note=41 velocity=65 time=0.08700000000000001
EXTRACT: note_off channel=2 note=41 velocity=64 time=0
EXTRACT: note_on channel=2 note=41 velocity=74 time=0.009000000000000001
EXTRACT: note_on channel=5 note=41 velocity=72 time=0
EXTRACT: note_off channel=1 note=29 velocity=65 time=0.084
EXTRACT: note_off channel=5 note=41 velocity=65 time=0.027
EXTRACT: note_off channel=2 note=41 velocity=65 time=0
EXTRACT: note_on channel=8 note=60 velocity=96 time=0.006
EXTRACT: note_on channel=8 note=65 velocity=103 time=0
EXTRACT: note_on channel=1 note=41 velocity=123 time=0.003
EXTRACT: note_on channel=2 note=53 velocity=125 time=0
EXTRACT: note_on channel=5 note=41 velocity=113 time=0
EXTRACT: note_on channel=9 note=42 velocity=125 time=0
EXTRACT: note_on channel=9 note=70 velocity=106 time=0
EXTRACT: note_off channel=9 note=70 velocity=65 time=0.024
EXTRACT: note_off channel=9 note=42 velocity=64 time=0
EXTRACT: note_off channel=8 note=65 velocity=64 time=0.029
EXTRACT: note_off channel=8 note=60 velocity=64 time=0
EXTRACT: note_off channel=5 note=41 velocity=64 time=0.058
EXTRACT: note_off channel=2 note=53 velocity=65 time=0
EXTRACT: note_on channel=8 note=60 velocity=89 time=0.006
EXTRACT: note_on channel=8 note=65 velocity=92 time=0
EXTRACT: note_on channel=2 note=53 velocity=125 time=0.003
EXTRACT: note_on channel=5 note=41 velocity=113 time=0
EXTRACT: note_on channel=9 note=44 velocity=98 time=0
EXTRACT: note_on channel=9 note=70 velocity=87 time=0
EXTRACT: note_off channel=9 note=70 velocity=64 time=0.024
EXTRACT: note_off channel=9 note=44 velocity=65 time=0
EXTRACT: note_off channel=8 note=65 velocity=65 time=0.032
EXTRACT: note_off channel=8 note=60 velocity=65 time=0
EXTRACT: note_off channel=1 note=41 velocity=65 time=0.028
EXTRACT: note_off channel=5 note=41 velocity=65 time=0.027
EXTRACT: note_off channel=2 note=53 velocity=64 time=0
EXTRACT: note_on channel=1 note=29 velocity=122 time=0.009000000000000001
EXTRACT: note_on channel=2 note=41 velocity=124 time=0
EXTRACT: note_on channel=5 note=41 velocity=112 time=0
EXTRACT: note_on channel=9 note=36 velocity=126 time=0
EXTRACT: note_on channel=9 note=42 velocity=124 time=0
EXTRACT: note_on channel=9 note=70 velocity=106 time=0
EXTRACT: note_off channel=9 note=70 velocity=64 time=0.024
EXTRACT: note_off channel=9 note=42 velocity=65 time=0
EXTRACT: note_off channel=9 note=36 velocity=65 time=0
EXTRACT: note_off channel=5 note=41 velocity=64 time=0.08700000000000001
EXTRACT: note_off channel=2 note=41 velocity=64 time=0
EXTRACT: note_on channel=2 note=41 velocity=75 time=0.009000000000000001
EXTRACT: note_on channel=5 note=41 velocity=72 time=0
EXTRACT: note_off channel=14 note=81 velocity=64 time=0.074
EXTRACT: note_off channel=11 note=93 velocity=64 time=0
EXTRACT: note_off channel=6 note=81 velocity=64 time=0
EXTRACT: note_off channel=1 note=29 velocity=64 time=0.01
EXTRACT: note_off channel=5 note=41 velocity=64 time=0.027
EXTRACT: note_off channel=2 note=41 velocity=65 time=0
EXTRACT: note_on channel=8 note=60 velocity=96 time=0.006
EXTRACT: note_on channel=8 note=65 velocity=103 time=0
EXTRACT: note_on channel=1 note=41 velocity=123 time=0.003
EXTRACT: note_on channel=2 note=53 velocity=124 time=0
EXTRACT: note_on channel=5 note=41 velocity=113 time=0
EXTRACT: note_on channel=9 note=46 velocity=110 time=0
EXTRACT: note_on channel=9 note=70 velocity=107 time=0
EXTRACT: note_on channel=6 note=77 velocity=75 time=0.021
EXTRACT: note_on channel=11 note=89 velocity=83 time=0
EXTRACT: note_on channel=14 note=77 velocity=82 time=0
EXTRACT: note_off channel=9 note=70 velocity=64 time=0.003
EXTRACT: note_off channel=9 note=46 velocity=65 time=0
EXTRACT: note_off channel=8 note=65 velocity=64 time=0.032
EXTRACT: note_off channel=8 note=60 velocity=64 time=0
EXTRACT: note_on channel=6 note=81 velocity=55 time=0.039
EXTRACT: note_on channel=11 note=93 velocity=77 time=0
EXTRACT: note_on channel=14 note=81 velocity=77 time=0
EXTRACT: note_off channel=5 note=41 velocity=65 time=0.016
EXTRACT: note_off channel=2 note=53 velocity=64 time=0
EXTRACT: note_on channel=8 note=60 velocity=95 time=0.006
EXTRACT: note_on channel=8 note=65 velocity=100 time=0
EXTRACT: note_on channel=2 note=53 velocity=124 time=0.003
EXTRACT: note_on channel=5 note=41 velocity=113 time=0
EXTRACT: note_on channel=9 note=70 velocity=87 time=0
EXTRACT: note_off channel=9 note=70 velocity=64 time=0.024
EXTRACT: note_off channel=14 note=77 velocity=64 time=0.01
EXTRACT: note_off channel=11 note=89 velocity=65 time=0
EXTRACT: note_off channel=6 note=77 velocity=65 time=0
EXTRACT: note_on channel=6 note=84 velocity=80 time=0.012
EXTRACT: note_on channel=11 note=96 velocity=84 time=0
EXTRACT: note_on channel=14 note=84 velocity=84 time=0
EXTRACT: note_off channel=8 note=65 velocity=65 time=0.007
EXTRACT: note_off channel=8 note=60 velocity=64 time=0
EXTRACT: note_off channel=14 note=81 velocity=65 time=0.011
EXTRACT: note_off channel=11 note=93 velocity=65 time=0
EXTRACT: note_off channel=6 note=81 velocity=65 time=0
EXTRACT: note_off channel=1 note=41 velocity=65 time=0.02
EXTRACT: note_on channel=6 note=89 velocity=79 time=0.019
EXTRACT: note_on channel=11 note=101 velocity=85 time=0
EXTRACT: note_on channel=14 note=89 velocity=85 time=0
EXTRACT: note_off channel=5 note=41 velocity=65 time=0.008
EXTRACT: note_off channel=2 note=53 velocity=65 time=0
EXTRACT: note_on channel=9 note=39 velocity=118 time=0.001
EXTRACT: note_on channel=1 note=29 velocity=123 time=0.008
EXTRACT: note_on channel=2 note=41 velocity=125 time=0
EXTRACT: note_on channel=5 note=41 velocity=112 time=0
EXTRACT: note_on channel=9 note=36 velocity=127 time=0
EXTRACT: note_on channel=9 note=38 velocity=116 time=0
EXTRACT: note_on channel=9 note=42 velocity=113 time=0
EXTRACT: note_on channel=9 note=70 velocity=106 time=0
EXTRACT: note_off channel=14 note=84 velocity=65 time=0.014
EXTRACT: note_off channel=11 note=96 velocity=64 time=0
EXTRACT: note_off channel=6 note=84 velocity=64 time=0
EXTRACT: note_off channel=9 note=39 velocity=64 time=0.003
EXTRACT: note_off channel=9 note=70 velocity=65 time=0.007
EXTRACT: note_off channel=9 note=42 velocity=65 time=0
EXTRACT: note_off channel=9 note=38 velocity=64 time=0
EXTRACT: note_off channel=9 note=36 velocity=64 time=0
EXTRACT: control_change channel=13 control=6 value=56 time=0.016
EXTRACT: note_off channel=5 note=41 velocity=64 time=0.07100000000000001
EXTRACT: note_off channel=2 note=41 velocity=65 time=0
EXTRACT: note_on channel=2 note=41 velocity=75 time=0.009000000000000001
EXTRACT: note_on channel=5 note=41 velocity=72 time=0
EXTRACT: note_off channel=1 note=29 velocity=64 time=0.084
EXTRACT: note_off channel=14 note=89 velocity=64 time=0.01
EXTRACT: note_off channel=11 note=101 velocity=64 time=0
EXTRACT: note_off channel=6 note=89 velocity=64 time=0
EXTRACT: note_on channel=6 note=88 velocity=74 time=0.016
EXTRACT: note_on channel=11 note=100 velocity=80 time=0
EXTRACT: note_on channel=14 note=88 velocity=81 time=0
EXTRACT: note_off channel=5 note=41 velocity=64 time=0.001
EXTRACT: note_off channel=2 note=41 velocity=64 time=0
EXTRACT: note_on channel=8 note=60 velocity=100 time=0.006
EXTRACT: note_on channel=8 note=65 velocity=105 time=0
EXTRACT: note_off channel=10 note=69 velocity=65 time=0.002
EXTRACT: note_off channel=10 note=65 velocity=64 time=0
EXTRACT: note_on channel=1 note=31 velocity=122 time=0.001
EXTRACT: note_on channel=2 note=55 velocity=124 time=0
EXTRACT: note_on channel=5 note=43 velocity=113 time=0
EXTRACT: note_on channel=9 note=42 velocity=109 time=0
EXTRACT: note_on channel=9 note=70 velocity=107 time=0
EXTRACT: note_on channel=13 note=67 velocity=80 time=0
EXTRACT: note_on channel=13 note=71 velocity=65 time=0
EXTRACT: note_on channel=10 note=67 velocity=87 time=0.005
EXTRACT: note_on channel=10 note=71 velocity=86 time=0
EXTRACT: note_off channel=13 note=72 velocity=64 time=0.006
EXTRACT: note_off channel=13 note=69 velocity=64 time=0
EXTRACT: note_off channel=13 note=65 velocity=65 time=0
EXTRACT: note_on channel=13 note=74 velocity=63 time=0.009000000000000001
EXTRACT: note_off channel=9 note=70 velocity=65 time=0.004
EXTRACT: note_off channel=9 note=42 velocity=65 time=0
EXTRACT: note_off channel=8 note=65 velocity=65 time=0.037
EXTRACT: note_off channel=8 note=60 velocity=65 time=0
EXTRACT: note_off channel=5 note=43 velocity=65 time=0.05
EXTRACT: note_off channel=2 note=55 velocity=65 time=0
EXTRACT: note_on channel=8 note=60 velocity=96 time=0.006
EXTRACT: note_on channel=8 note=65 velocity=103 time=0
EXTRACT: note_on channel=2 note=55 velocity=124 time=0.003
EXTRACT: note_on channel=5 note=43 velocity=112 time=0
EXTRACT: note_on channel=9 note=44 velocity=98 time=0
EXTRACT: note_on channel=9 note=70 velocity=86 time=0
EXTRACT: note_off channel=14 note=88 velocity=64 time=0.004
EXTRACT: note_off channel=11 note=100 velocity=65 time=0
EXTRACT: note_off channel=6 note=88 velocity=65 time=0
EXTRACT: note_on channel=6 note=84 velocity=72 time=0.003
EXTRACT: note_on channel=11 note=96 velocity=78 time=0
EXTRACT: note_on channel=14 note=84 velocity=78 time=0
EXTRACT: note_off channel=9 note=70 velocity=64 time=0.017
EXTRACT: note_off channel=9 note=44 velocity=64 time=0
EXTRACT: note_off channel=8 note=65 velocity=64 time=0.042
EXTRACT: note_off channel=8 note=60 velocity=65 time=0
EXTRACT: note_off channel=1 note=31 velocity=64 time=0.018000000000000002
EXTRACT: control_change channel=9 control=91 value=20 time=0.006
EXTRACT: note_off channel=5 note=43 velocity=65 time=0.021
EXTRACT: note_off channel=2 note=55 velocity=64 time=0
EXTRACT: note_off channel=13 note=74 velocity=64 time=0.003
EXTRACT: note_off channel=13 note=71 velocity=65 time=0
EXTRACT: note_off channel=13 note=67 velocity=65 time=0
EXTRACT: note_off channel=10 note=71 velocity=65 time=0.005
EXTRACT: note_off channel=10 note=67 velocity=64 time=0
EXTRACT: note_on channel=1 note=33 velocity=123 time=0.001
EXTRACT: note_on channel=2 note=45 velocity=125 time=0
EXTRACT: note_on channel=5 note=45 velocity=113 time=0
EXTRACT: note_on channel=9 note=36 velocity=127 time=0
EXTRACT: note_on channel=9 note=42 velocity=124 time=0
EXTRACT: note_on channel=9 note=70 velocity=106 time=0
EXTRACT: note_on channel=13 note=69 velocity=56 time=0
EXTRACT: note_on channel=10 note=69 velocity=92 time=0.005
EXTRACT: note_on channel=10 note=72 velocity=103 time=0
EXTRACT: note_on channel=6 note=81 velocity=79 time=0.002
EXTRACT: note_on channel=11 note=93 velocity=85 time=0
EXTRACT: note_on channel=14 note=81 velocity=85 time=0
EXTRACT: note_on channel=13 note=76 velocity=69 time=0.002
EXTRACT: note_on channel=13 note=72 velocity=60 time=0.003
EXTRACT: note_off channel=14 note=84 velocity=65 time=0.001
EXTRACT: note_off channel=11 note=96 velocity=64 time=0
EXTRACT: note_off channel=6 note=84 velocity=65 time=0
EXTRACT: note_off channel=9 note=70 velocity=65 time=0.011
EXTRACT: note_off channel=9 note=42 velocity=64 time=0
EXTRACT: note_off channel=9 note=36 velocity=65 time=0
EXTRACT: note_off channel=5 note=45 velocity=64 time=0.08700000000000001
EXTRACT: note_off channel=2 note=45 velocity=64 time=0
EXTRACT: note_on channel=2 note=45 velocity=75 time=0.009000000000000001
EXTRACT: note_on channel=5 note=45 velocity=73 time=0
EXTRACT: note_off channel=1 note=33 velocity=65 time=0.099
EXTRACT: note_off channel=5 note=45 velocity=64 time=0.012
EXTRACT: note_off channel=2 note=45 velocity=65 time=0
EXTRACT: note_on channel=8 note=60 velocity=95 time=0.006
EXTRACT: note_on channel=8 note=64 velocity=100 time=0
EXTRACT: note_on channel=1 note=45 velocity=122 time=0.003
EXTRACT: note_on channel=2 note=57 velocity=124 time=0
EXTRACT: note_on channel=5 note=45 velocity=112 time=0
EXTRACT: note_on channel=9 note=46 velocity=110 time=0
EXTRACT: note_on channel=9 note=70 velocity=107 time=0
EXTRACT: note_off channel=9 note=70 velocity=65 time=0.024
EXTRACT: note_off channel=9 note=46 velocity=64 time=0
EXTRACT: note_off channel=8 note=64 velocity=64 time=0.033
EXTRACT: note_off channel=8 note=60 velocity=64 time=0
EXTRACT: note_off channel=5 note=45 velocity=65 time=0.054
EXTRACT: note_off channel=2 note=57 velocity=65 time=0
EXTRACT: note_on channel=8 note=60 velocity=73 time=0.006
EXTRACT: note_on channel=8 note=64 velocity=78 time=0
EXTRACT: note_on channel=2 note=57 velocity=124 time=0.003
EXTRACT: note_on channel=5 note=45 velocity=113 time=0
EXTRACT: note_on channel=9 note=70 velocity=87 time=0
EXTRACT: note_off channel=9 note=70 velocity=65 time=0.024
EXTRACT: note_off channel=8 note=64 velocity=65 time=0.04
EXTRACT: note_off channel=8 note=60 velocity=65 time=0
EXTRACT: note_off channel=1 note=45 velocity=65 time=0.02
EXTRACT: note_off channel=5 note=45 velocity=64 time=0.027
EXTRACT: note_off channel=2 note=57 velocity=64 time=0
EXTRACT: note_on channel=9 note=39 velocity=119 time=0.001
EXTRACT: note_on channel=1 note=33 velocity=122 time=0.008
EXTRACT: note_on channel=2 note=45 velocity=125 time=0
EXTRACT: note_on channel=5 note=45 velocity=112 time=0
EXTRACT: note_on channel=9 note=36 velocity=126 time=0
EXTRACT: note_on channel=9 note=38 velocity=117 time=0
EXTRACT: note_on channel=9 note=42 velocity=123 time=0
EXTRACT: note_on channel=9 note=70 velocity=106 time=0
EXTRACT: control_change channel=2 control=6 value=61 time=0
EXTRACT: note_off channel=9 note=39 velocity=64 time=0.017
EXTRACT: note_off channel=9 note=70 velocity=64 time=0.007
EXTRACT: note_off channel=9 note=42 velocity=65 time=0
EXTRACT: note_off channel=9 note=38 velocity=65 time=0
EXTRACT: note_off channel=9 note=36 velocity=64 time=0
EXTRACT: note_off channel=5 note=45 velocity=65 time=0.08700000000000001
EXTRACT: note_off channel=2 note=45 velocity=64 time=0
EXTRACT: note_on channel=2 note=45 velocity=74 time=0.009000000000000001
EXTRACT: note_on channel=5 note=45 velocity=72 time=0
EXTRACT: note_off channel=1 note=33 velocity=64 time=0.099
EXTRACT: note_off channel=5 note=45 velocity=65 time=0.012
EXTRACT: note_off channel=2 note=45 velocity=65 time=0
EXTRACT: note_on channel=8 note=60 velocity=96 time=0.006
EXTRACT: note_on channel=8 note=64 velocity=103 time=0
EXTRACT: note_on channel=1 note=45 velocity=123 time=0.003
EXTRACT: note_on channel=2 note=57 velocity=125 time=0
EXTRACT: note_on channel=5 note=45 velocity=113 time=0
EXTRACT: note_on channel=9 note=42 velocity=116 time=0
EXTRACT: note_on channel=9 note=70 velocity=106 time=0
EXTRACT: note_off channel=9 note=70 velocity=64 time=0.024
EXTRACT: note_off channel=9 note=42 velocity=65 time=0
EXTRACT: note_off channel=8 note=64 velocity=64 time=0.029
EXTRACT: note_off channel=8 note=60 velocity=64 time=0
EXTRACT: control_change channel=13 control=6 value=58 time=0.027
EXTRACT: note_off channel=5 note=45 velocity=64 time=0.031
EXTRACT: note_off channel=2 note=57 velocity=65 time=0
EXTRACT: note_on channel=8 note=60 velocity=89 time=0.006
EXTRACT: note_on channel=8 note=64 velocity=92 time=0
EXTRACT: note_on channel=2 note=57 velocity=125 time=0.003
EXTRACT: note_on channel=5 note=45 velocity=113 time=0
EXTRACT: note_on channel=9 note=44 velocity=99 time=0
EXTRACT: note_on channel=9 note=70 velocity=87 time=0
EXTRACT: note_off channel=9 note=70 velocity=65 time=0.024
EXTRACT: note_off channel=9 note=44 velocity=64 time=0
EXTRACT: note_off channel=8 note=64 velocity=65 time=0.032
EXTRACT: note_off channel=8 note=60 velocity=65 time=0
EXTRACT: note_off channel=1 note=45 velocity=64 time=0.028
EXTRACT: note_off channel=5 note=45 velocity=65 time=0.027
EXTRACT: note_off channel=2 note=57 velocity=64 time=0
EXTRACT: note_on channel=1 note=33 velocity=123 time=0.009000000000000001
EXTRACT: note_on channel=2 note=45 velocity=124 time=0
EXTRACT: note_on channel=5 note=45 velocity=112 time=0
EXTRACT: note_on channel=9 note=36 velocity=127 time=0
EXTRACT: note_on channel=9 note=42 velocity=124 time=0
EXTRACT: note_on channel=9 note=70 velocity=107 time=0
EXTRACT: note_off channel=9 note=70 velocity=64 time=0.024
EXTRACT: note_off channel=9 note=42 velocity=65 time=0
EXTRACT: note_off channel=9 note=36 velocity=64 time=0
EXTRACT: note_off channel=14 note=81 velocity=64 time=0.068
EXTRACT: note_off channel=11 note=93 velocity=65 time=0
EXTRACT: note_off channel=6 note=81 velocity=64 time=0
EXTRACT: note_off channel=5 note=45 velocity=64 time=0.019
EXTRACT: note_off channel=2 note=45 velocity=64 time=0
EXTRACT: note_on channel=2 note=45 velocity=75 time=0.009000000000000001
EXTRACT: note_on channel=5 note=45 velocity=72 time=0
EXTRACT: note_off channel=1 note=33 velocity=65 time=0.084
EXTRACT: note_off channel=5 note=45 velocity=64 time=0.027
EXTRACT: note_off channel=2 note=45 velocity=65 time=0
EXTRACT: note_on channel=8 note=60 velocity=96 time=0.006
EXTRACT: note_on channel=8 note=64 velocity=103 time=0
EXTRACT: note_on channel=1 note=45 velocity=122 time=0.003
EXTRACT: note_on channel=2 note=57 velocity=124 time=0
EXTRACT: note_on channel=5 note=45 velocity=113 time=0
EXTRACT: note_on channel=9 note=46 velocity=107 time=0
EXTRACT: note_on channel=9 note=70 velocity=106 time=0
EXTRACT: note_off channel=9 note=70 velocity=65 time=0.024
EXTRACT: note_off channel=9 note=46 velocity=65 time=0
EXTRACT: note_on channel=6 note=76 velocity=73 time=0.024
EXTRACT: note_on channel=11 note=88 velocity=89 time=0
EXTRACT: note_on channel=14 note=76 velocity=88 time=0
EXTRACT: note_off channel=8 note=64 velocity=64 time=0.008
EXTRACT: note_off channel=8 note=60 velocity=64 time=0
EXTRACT: note_off channel=5 note=45 velocity=65 time=0.055
EXTRACT: note_off channel=2 note=57 velocity=64 time=0
EXTRACT: note_on channel=6 note=81 velocity=68 time=0.005
EXTRACT: note_on channel=11 note=93 velocity=80 time=0
EXTRACT: note_on channel=14 note=81 velocity=80 time=0
EXTRACT: note_on channel=8 note=60 velocity=95 time=0.001
EXTRACT: note_on channel=8 note=64 velocity=100 time=0
EXTRACT: note_on channel=2 note=57 velocity=124 time=0.003
EXTRACT: note_on channel=5 note=45 velocity=113 time=0
EXTRACT: note_on channel=9 note=70 velocity=86 time=0
EXTRACT: note_off channel=9 note=70 velocity=64 time=0.024
EXTRACT: note_off channel=8 note=64 velocity=65 time=0.029
EXTRACT: note_off channel=8 note=60 velocity=64 time=0
EXTRACT: note_on channel=6 note=84 velocity=68 time=0.002
EXTRACT: note_on channel=11 note=96 velocity=82 time=0
EXTRACT: note_on channel=14 note=84 velocity=83 time=0
EXTRACT: note_off channel=14 note=76 velocity=65 time=0.026000000000000002
EXTRACT: note_off channel=11 note=88 velocity=65 time=0
EXTRACT: note_off channel=6 note=76 velocity=64 time=0
EXTRACT: note_off channel=1 note=45 velocity=65 time=0.003
EXTRACT: note_off channel=5 note=45 velocity=65 time=0.027
EXTRACT: note_off channel=2 note=57 velocity=65 time=0
EXTRACT: note_on channel=9 note=39 velocity=119 time=0.001
EXTRACT: note_off channel=13 note=76 velocity=64 time=0.002
EXTRACT: note_on channel=6 note=88 velocity=83 time=0.004
EXTRACT: note_on channel=11 note=100 velocity=87 time=0
EXTRACT: note_on channel=14 note=88 velocity=87 time=0
EXTRACT: note_off channel=14 note=81 velocity=65 time=0
EXTRACT: note_off channel=11 note=93 velocity=64 time=0
EXTRACT: note_off channel=6 note=81 velocity=65 time=0
EXTRACT: note_on channel=1 note=33 velocity=122 time=0.002
EXTRACT: note_on channel=2 note=45 velocity=125 time=0
EXTRACT: note_on channel=5 note=45 velocity=112 time=0
EXTRACT: note_on channel=9 note=36 velocity=126 time=0
EXTRACT: note_on channel=9 note=38 velocity=116 time=0
EXTRACT: note_on channel=9 note=42 velocity=117 time=0
EXTRACT: note_on channel=9 note=70 velocity=107 time=0
EXTRACT: note_on channel=13 note=77 velocity=68 time=0
EXTRACT: note_off channel=9 note=39 velocity=65 time=0.017
EXTRACT: note_off channel=9 note=70 velocity=64 time=0.007
EXTRACT: note_off channel=9 note=42 velocity=64 time=0
EXTRACT: note_off channel=9 note=38 velocity=65 time=0
EXTRACT: note_off channel=9 note=36 velocity=65 time=0
EXTRACT: note_off channel=14 note=84 velocity=64 time=0.02
EXTRACT: note_off channel=11 note=96 velocity=65 time=0
EXTRACT: note_off channel=6 note=84 velocity=64 time=0
EXTRACT: note_off channel=5 note=45 velocity=64 time=0.067
EXTRACT: note_off channel=2 note=45 velocity=65 time=0
EXTRACT: note_on channel=2 note=45 velocity=75 time=0.009000000000000001
EXTRACT: note_on channel=5 note=45 velocity=72 time=0
EXTRACT: note_off channel=14 note=88 velocity=65 time=0.044
EXTRACT: note_off channel=11 note=100 velocity=64 time=0
EXTRACT: note_off channel=6 note=88 velocity=65 time=0
EXTRACT: note_off channel=1 note=33 velocity=64 time=0.04
EXTRACT: note_off channel=5 note=45 velocity=64 time=0.027
EXTRACT: note_off channel=2 note=45 velocity=64 time=0
EXTRACT: note_on channel=6 note=88 velocity=83 time=0.002
EXTRACT: note_on channel=11 note=100 velocity=87 time=0
EXTRACT: note_on channel=14 note=88 velocity=86 time=0
EXTRACT: note_on channel=8 note=60 velocity=100 time=0.004
EXTRACT: note_on channel=8 note=64 velocity=105 time=0
EXTRACT: note_on channel=1 note=43 velocity=123 time=0.003
EXTRACT: note_on channel=2 note=55 velocity=124 time=0
EXTRACT: note_on channel=5 note=43 velocity=113 time=0
EXTRACT: note_on channel=9 note=42 velocity=117 time=0
EXTRACT: note_on channel=9 note=70 velocity=106 time=0
EXTRACT: note_off channel=9 note=70 velocity=64 time=0.024
EXTRACT: note_off channel=9 note=42 velocity=64 time=0
EXTRACT: note_off channel=14 note=88 velocity=64 time=0
EXTRACT: note_off channel=11 note=100 velocity=64 time=0
EXTRACT: note_off channel=6 note=88 velocity=65 time=0
EXTRACT: note_on channel=6 note=84 velocity=82 time=0.019
EXTRACT: note_on channel=11 note=96 velocity=86 time=0
EXTRACT: note_on channel=14 note=84 velocity=86 time=0
EXTRACT: note_off channel=8 note=64 velocity=65 time=0.018000000000000002
EXTRACT: note_off channel=8 note=60 velocity=65 time=0
EXTRACT: note_on channel=6 note=81 velocity=76 time=0.038
EXTRACT: note_on channel=11 note=93 velocity=82 time=0
EXTRACT: note_on channel=14 note=81 velocity=83 time=0
EXTRACT: note_off channel=14 note=84 velocity=64 time=0.005
EXTRACT: note_off channel=11 note=96 velocity=65 time=0
EXTRACT: note_off channel=6 note=84 velocity=64 time=0
EXTRACT: note_off channel=5 note=43 velocity=65 time=0.007
EXTRACT: note_off channel=2 note=55 velocity=65 time=0
EXTRACT: note_off channel=1 note=43 velocity=64 time=0.003
EXTRACT: note_on channel=8 note=60 velocity=96 time=0.003
EXTRACT: note_on channel=8 note=64 velocity=103 time=0
EXTRACT: note_on channel=1 note=41 velocity=123 time=0.003
EXTRACT: note_on channel=2 note=53 velocity=124 time=0
EXTRACT: note_on channel=5 note=41 velocity=112 time=0
EXTRACT: note_on channel=9 note=44 velocity=98 time=0
EXTRACT: note_on channel=9 note=70 velocity=87 time=0
EXTRACT: note_off channel=9 note=70 velocity=65 time=0.024
EXTRACT: note_off channel=9 note=44 velocity=65 time=0
EXTRACT: note_off channel=14 note=81 velocity=65 time=0.02
EXTRACT: note_off channel=11 note=93 velocity=65 time=0
EXTRACT: note_off channel=6 note=81 velocity=65 time=0
EXTRACT: note_off channel=8 note=64 velocity=64 time=0.022
EXTRACT: note_off channel=8 note=60 velocity=65 time=0
EXTRACT: note_on channel=6 note=77 velocity=79 time=0.001
EXTRACT: note_on channel=11 note=89 velocity=85 time=0
EXTRACT: note_on channel=14 note=77 velocity=85 time=0
EXTRACT: control_change channel=13 control=6 value=60 time=0.013000000000000001
EXTRACT: note_off channel=10 note=72 velocity=64 time=0.001
EXTRACT: note_off channel=10 note=69 velocity=65 time=0.005
EXTRACT: note_off channel=5 note=41 velocity=65 time=0.025
EXTRACT: note_off channel=2 note=53 velocity=64 time=0
EXTRACT: note_off channel=1 note=41 velocity=65 time=0.003
EXTRACT: note_off channel=13 note=72 velocity=65 time=0
EXTRACT: note_off channel=13 note=69 velocity=64 time=0
EXTRACT: note_on channel=1 note=26 velocity=122 time=0.006
EXTRACT: note_on channel=2 note=38 velocity=125 time=0
EXTRACT: note_on channel=5 note=38 velocity=113 time=0
EXTRACT: note_on channel=9 note=36 velocity=126 time=0
EXTRACT: note_on channel=9 note=42 velocity=116 time=0
EXTRACT: note_on channel=9 note=70 velocity=107 time=0
EXTRACT: note_on channel=13 note=62 velocity=57 time=0
EXTRACT: note_on channel=13 note=65 velocity=53 time=0
EXTRACT: note_on channel=13 note=74 velocity=46 time=0.002
EXTRACT: note_on channel=10 note=65 velocity=95 time=0.003
EXTRACT: note_on channel=10 note=69 velocity=100 time=0
EXTRACT: note_on channel=13 note=69 velocity=62 time=0
EXTRACT: note_on channel=6 note=74 velocity=76 time=0.003
EXTRACT: note_on channel=11 note=86 velocity=84 time=0
EXTRACT: note_on channel=14 note=74 velocity=84 time=0
EXTRACT: note_off channel=14 note=77 velocity=65 time=0.006
EXTRACT: note_off channel=11 note=89 velocity=64 time=0
EXTRACT: note_off channel=6 note=77 velocity=64 time=0
EXTRACT: note_off channel=9 note=70 velocity=64 time=0.01
EXTRACT: note_off channel=9 note=42 velocity=64 time=0
EXTRACT: note_off channel=9 note=36 velocity=65 time=0
EXTRACT: note_off channel=13 note=77 velocity=64 time=0.005
EXTRACT: note_off channel=5 note=38 velocity=64 time=0.082
EXTRACT: note_off channel=2 note=38 velocity=64 time=0
EXTRACT: note_on channel=2 note=38 velocity=75 time=0.009000000000000001
EXTRACT: note_on channel=5 note=38 velocity=73 time=0
EXTRACT: note_off channel=1 note=26 velocity=64 time=0.084
EXTRACT: note_off channel=5 note=38 velocity=64 time=0.027
EXTRACT: note_off channel=2 note=38 velocity=65 time=0
EXTRACT: note_on channel=8 note=62 velocity=95 time=0.006
EXTRACT: note_on channel=8 note=65 velocity=100 time=0
EXTRACT: note_on channel=1 note=38 velocity=122 time=0.003
EXTRACT: note_on channel=2 note=50 velocity=124 time=0
EXTRACT: note_on channel=5 note=38 velocity=112 time=0
EXTRACT: note_on channel=9 note=46 velocity=105 time=0
EXTRACT: note_on channel=9 note=70 velocity=106 time=0
EXTRACT: note_off channel=9 note=70 velocity=64 time=0.024
EXTRACT: note_off channel=9 note=46 velocity=65 time=0
EXTRACT: note_off channel=8 note=65 velocity=64 time=0.033
EXTRACT: note_off channel=8 note=62 velocity=64 time=0
EXTRACT: note_off channel=5 note=38 velocity=65 time=0.054
EXTRACT: note_off channel=2 note=50 velocity=65 time=0
EXTRACT: note_off channel=1 note=38 velocity=65 time=0.003
EXTRACT: note_on channel=8 note=62 velocity=73 time=0.003
EXTRACT: note_on channel=8 note=65 velocity=78 time=0
EXTRACT: note_on channel=2 note=50 velocity=124 time=0.003
EXTRACT: note_on channel=5 note=38 velocity=113 time=0
EXTRACT: note_on channel=9 note=70 velocity=87 time=0
EXTRACT: note_off channel=9 note=70 velocity=65 time=0.024
EXTRACT: note_off channel=8 note=65 velocity=65 time=0.04
EXTRACT: note_off channel=8 note=62 velocity=65 time=0
EXTRACT: note_off channel=5 note=38 velocity=64 time=0.047
EXTRACT: note_off channel=2 note=50 velocity=64 time=0
EXTRACT: note_on channel=9 note=39 velocity=118 time=0.001
EXTRACT: note_on channel=1 note=26 velocity=123 time=0.008
EXTRACT: note_on channel=2 note=38 velocity=125 time=0
EXTRACT: note_on channel=5 note=38 velocity=112 time=0
EXTRACT: note_on channel=9 note=36 velocity=127 time=0
EXTRACT: note_on channel=9 note=38 velocity=117 time=0
EXTRACT: note_on channel=9 note=42 velocity=116 time=0
EXTRACT: note_on channel=9 note=70 velocity=106 time=0
EXTRACT: note_off channel=9 note=39 velocity=64 time=0.017
EXTRACT: note_off channel=9 note=70 velocity=65 time=0.007
EXTRACT: note_off channel=9 note=42 velocity=64 time=0
EXTRACT: note_off channel=9 note=38 velocity=64 time=0
EXTRACT: note_off channel=9 note=36 velocity=65 time=0
EXTRACT: note_off channel=5 note=38 velocity=65 time=0.08700000000000001
EXTRACT: note_off channel=2 note=38 velocity=64 time=0
EXTRACT: note_on channel=2 note=38 velocity=74 time=0.009000000000000001
EXTRACT: note_on channel=5 note=38 velocity=72 time=0
EXTRACT: note_off channel=1 note=26 velocity=65 time=0.084
EXTRACT: note_off channel=5 note=38 velocity=65 time=0.027
EXTRACT: note_off channel=2 note=38 velocity=65 time=0
EXTRACT: note_on channel=8 note=62 velocity=96 time=0.006
EXTRACT: note_on channel=8 note=65 velocity=103 time=0
EXTRACT: note_on channel=1 note=38 velocity=122 time=0.003
EXTRACT: note_on channel=2 note=50 velocity=125 time=0
EXTRACT: note_on channel=5 note=38 velocity=113 time=0
EXTRACT: note_on channel=9 note=42 velocity=115 time=0
EXTRACT: note_on channel=9 note=70 velocity=106 time=0
EXTRACT: note_off channel=9 note=70 velocity=65 time=0.024
EXTRACT: note_off channel=9 note=42 velocity=64 time=0
EXTRACT: note_off channel=8 note=65 velocity=64 time=0.029
EXTRACT: note_off channel=8 note=62 velocity=64 time=0
EXTRACT: note_off channel=5 note=38 velocity=64 time=0.058
EXTRACT: note_off channel=2 note=50 velocity=65 time=0
EXTRACT: note_off channel=1 note=38 velocity=64 time=0.003
EXTRACT: note_on channel=8 note=62 velocity=89 time=0.003
EXTRACT: note_on channel=8 note=65 velocity=92 time=0
EXTRACT: note_on channel=2 note=50 velocity=125 time=0.003
EXTRACT: note_on channel=5 note=38 velocity=113 time=0
EXTRACT: note_on channel=9 note=44 velocity=99 time=0
EXTRACT: note_on channel=9 note=70 velocity=87 time=0
EXTRACT: note_off channel=9 note=70 velocity=64 time=0.024
EXTRACT: note_off channel=9 note=44 velocity=65 time=0
EXTRACT: note_off channel=8 note=65 velocity=65 time=0.032
EXTRACT: note_off channel=8 note=62 velocity=65 time=0
EXTRACT: note_off channel=5 note=38 velocity=65 time=0.055
EXTRACT: note_off channel=2 note=50 velocity=64 time=0
EXTRACT: note_on channel=1 note=26 velocity=123 time=0.009000000000000001
EXTRACT: note_on channel=2 note=38 velocity=124 time=0
EXTRACT: note_on channel=5 note=38 velocity=112 time=0
EXTRACT: note_on channel=9 note=36 velocity=127 time=0
EXTRACT: note_on channel=9 note=42 velocity=119 time=0
EXTRACT: note_on channel=9 note=70 velocity=107 time=0
EXTRACT: note_off channel=9 note=70 velocity=65 time=0.024
EXTRACT: note_off channel=9 note=42 velocity=64 time=0
EXTRACT: note_off channel=9 note=36 velocity=64 time=0
EXTRACT: note_off channel=5 note=38 velocity=64 time=0.08700000000000001
EXTRACT: note_off channel=2 note=38 velocity=64 time=0
EXTRACT: note_on channel=2 note=38 velocity=75 time=0.009000000000000001
EXTRACT: note_on channel=5 note=38 velocity=72 time=0
EXTRACT: note_off channel=1 note=26 velocity=65 time=0.084
EXTRACT: note_off channel=5 note=38 velocity=64 time=0.027
EXTRACT: note_off channel=2 note=38 velocity=65 time=0
EXTRACT: note_on channel=8 note=62 velocity=96 time=0.006
EXTRACT: note_on channel=8 note=65 velocity=103 time=0
EXTRACT: note_on channel=1 note=38 velocity=123 time=0.003
EXTRACT: note_on channel=2 note=50 velocity=124 time=0
EXTRACT: note_on channel=5 note=38 velocity=113 time=0
EXTRACT: note_on channel=9 note=46 velocity=106 time=0
EXTRACT: note_on channel=9 note=70 velocity=106 time=0
EXTRACT: note_off channel=9 note=70 velocity=65 time=0.024
EXTRACT: note_off channel=9 note=46 velocity=64 time=0
EXTRACT: note_off channel=8 note=65 velocity=64 time=0.032
EXTRACT: note_off channel=8 note=62 velocity=64 time=0
EXTRACT: note_off channel=5 note=38 velocity=65 time=0.055
EXTRACT: note_off channel=2 note=50 velocity=64 time=0
EXTRACT: note_off channel=1 note=38 velocity=64 time=0.003
EXTRACT: note_on channel=8 note=62 velocity=95 time=0.003
EXTRACT: note_on channel=8 note=65 velocity=100 time=0
EXTRACT: note_on channel=2 note=50 velocity=124 time=0.003
EXTRACT: note_on channel=5 note=38 velocity=113 time=0
EXTRACT: note_on channel=9 note=70 velocity=86 time=0
EXTRACT: note_off channel=9 note=70 velocity=65 time=0.024
EXTRACT: note_off channel=8 note=65 velocity=65 time=0.029
EXTRACT: note_off channel=8 note=62 velocity=64 time=0
EXTRACT: control_change channel=9 control=91 value=30 time=0.037
EXTRACT: note_off channel=5 note=38 velocity=65 time=0.021
EXTRACT: note_off channel=2 note=50 velocity=65 time=0
EXTRACT: note_on channel=9 note=39 velocity=118 time=0.001
EXTRACT: note_on channel=1 note=26 velocity=122 time=0.008
EXTRACT: note_on channel=2 note=38 velocity=125 time=0
EXTRACT: note_on channel=5 note=38 velocity=112 time=0
EXTRACT: note_on channel=9 note=36 velocity=126 time=0
EXTRACT: note_on channel=9 note=38 velocity=117 time=0
EXTRACT: note_on channel=9 note=42 velocity=122 time=0
EXTRACT: note_on channel=9 note=70 velocity=107 time=0
EXTRACT: note_off channel=9 note=39 velocity=65 time=0.017
EXTRACT: note_off channel=9 note=70 velocity=64 time=0.007
EXTRACT: note_off channel=9 note=42 velocity=65 time=0
EXTRACT: note_off channel=9 note=38 velocity=64 time=0
EXTRACT: note_off channel=9 note=36 velocity=64 time=0
EXTRACT: note_off channel=5 note=38 velocity=64 time=0.08700000000000001
EXTRACT: note_off channel=2 note=38 velocity=65 time=0
EXTRACT: note_on channel=2 note=38 velocity=75 time=0.009000000000000001
EXTRACT: note_on channel=5 note=38 velocity=72 time=0
EXTRACT: note_off channel=1 note=26 velocity=64 time=0.084
EXTRACT: note_off channel=5 note=38 velocity=64 time=0.027
EXTRACT: note_off channel=2 note=38 velocity=64 time=0
EXTRACT: note_off channel=6 note=74 velocity=64 time=0.003
EXTRACT: note_on channel=8 note=62 velocity=100 time=0.003
EXTRACT: note_on channel=8 note=65 velocity=105 time=0
EXTRACT: note_on channel=1 note=38 velocity=123 time=0.003
EXTRACT: note_on channel=2 note=50 velocity=124 time=0
EXTRACT: note_on channel=5 note=38 velocity=113 time=0
EXTRACT: note_on channel=9 note=42 velocity=122 time=0
EXTRACT: note_on channel=9 note=70 velocity=107 time=0
EXTRACT: note_off channel=9 note=70 velocity=65 time=0.024
EXTRACT: note_off channel=9 note=42 velocity=65 time=0
EXTRACT: note_off channel=8 note=65 velocity=65 time=0.037
EXTRACT: note_off channel=8 note=62 velocity=65 time=0
EXTRACT: note_off channel=14 note=74 velocity=64 time=0.013000000000000001
EXTRACT: note_off channel=11 note=86 velocity=64 time=0
EXTRACT: note_off channel=5 note=38 velocity=65 time=0.037
EXTRACT: note_off channel=2 note=50 velocity=65 time=0
EXTRACT: note_off channel=1 note=38 velocity=65 time=0.003
EXTRACT: note_off channel=13 note=69 velocity=65 time=0
EXTRACT: note_on channel=8 note=62 velocity=96 time=0.003
EXTRACT: note_on channel=8 note=65 velocity=103 time=0
EXTRACT: note_on channel=2 note=50 velocity=124 time=0.003
EXTRACT: note_on channel=5 note=38 velocity=112 time=0
EXTRACT: note_on channel=9 note=44 velocity=99 time=0
EXTRACT: note_on channel=9 note=70 velocity=86 time=0
EXTRACT: control_change channel=6 control=91 value=0 time=0
EXTRACT: note_off channel=10 note=65 velocity=65 time=0.01
EXTRACT: note_off channel=10 note=69 velocity=64 time=0.006
EXTRACT: note_off channel=9 note=70 velocity=64 time=0.008
EXTRACT: note_off channel=9 note=44 velocity=64 time=0
EXTRACT: note_off channel=13 note=62 velocity=65 time=0.03
EXTRACT: note_off channel=8 note=65 velocity=64 time=0.012
EXTRACT: note_off channel=8 note=62 velocity=65 time=0
EXTRACT: note_off channel=13 note=74 velocity=64 time=0.008
EXTRACT: note_off channel=13 note=65 velocity=64 time=0
EXTRACT: note_off channel=5 note=38 velocity=65 time=0.037
EXTRACT: note_off channel=2 note=50 velocity=64 time=0
EXTRACT: note_on channel=1 note=26 velocity=122 time=0
EXTRACT: note_on channel=2 note=38 velocity=125 time=0
EXTRACT: note_on channel=5 note=38 velocity=113 time=0
EXTRACT: note_on channel=8 note=62 velocity=117 time=0
EXTRACT: note_on channel=9 note=36 velocity=126 time=0
EXTRACT: note_on channel=9 note=49 velocity=104 time=0
EXTRACT: note_on channel=9 note=70 velocity=106 time=0
EXTRACT: control_change channel=11 control=10 value=127 time=0
EXTRACT: note_off channel=9 note=70 velocity=65 time=0.024
EXTRACT: note_off channel=9 note=49 velocity=65 time=0
EXTRACT: note_off channel=9 note=36 velocity=64 time=0
EXTRACT: note_off channel=8 note=62 velocity=64 time=0.039
EXTRACT: note_off channel=5 note=38 velocity=64 time=0.048
EXTRACT: note_off channel=2 note=38 velocity=64 time=0
EXTRACT: note_on channel=2 note=38 velocity=75 time=0.009000000000000001
EXTRACT: note_on channel=5 note=38 velocity=63 time=0
EXTRACT: note_on channel=11 note=69 velocity=77 time=0
EXTRACT: note_off channel=1 note=26 velocity=65 time=0.084
EXTRACT: note_off channel=11 note=69 velocity=65 time=0.026000000000000002
EXTRACT: note_off channel=5 note=38 velocity=64 time=0.001
EXTRACT: note_off channel=2 note=38 velocity=65 time=0
EXTRACT: note_on channel=1 note=38 velocity=122 time=0.009000000000000001
EXTRACT: note_on channel=2 note=50 velocity=124 time=0
EXTRACT: note_on channel=5 note=38 velocity=112 time=0
EXTRACT: note_on channel=8 note=62 velocity=102 time=0
EXTRACT: note_on channel=9 note=46 velocity=112 time=0
EXTRACT: note_on channel=9 note=70 velocity=107 time=0
EXTRACT: note_on channel=10 note=62 velocity=92 time=0
EXTRACT: note_on channel=11 note=74 velocity=103 time=0
EXTRACT: note_on channel=14 note=69 velocity=64 time=0
EXTRACT: note_off channel=9 note=70 velocity=64 time=0.024
EXTRACT: note_off channel=9 note=46 velocity=65 time=0
EXTRACT: note_off channel=8 note=62 velocity=64 time=0.02
EXTRACT: note_off channel=10 note=62 velocity=64 time=0.059000000000000004
EXTRACT: note_off channel=14 note=69 velocity=64 time=0.006
EXTRACT: note_off channel=11 note=74 velocity=65 time=0.001
EXTRACT: note_off channel=5 note=38 velocity=65 time=0.001
EXTRACT: note_off channel=2 note=50 velocity=65 time=0
EXTRACT: note_on channel=2 note=50 velocity=124 time=0.009000000000000001
EXTRACT: note_on channel=5 note=38 velocity=113 time=0
EXTRACT: note_on channel=8 note=62 velocity=111 time=0
EXTRACT: note_on channel=9 note=70 velocity=106 time=0
EXTRACT: note_on channel=11 note=69 velocity=76 time=0
EXTRACT: note_off channel=9 note=70 velocity=64 time=0.024
EXTRACT: note_off channel=8 note=62 velocity=65 time=0.035
EXTRACT: note_off channel=1 note=38 velocity=64 time=0.04
EXTRACT: note_off channel=11 note=69 velocity=64 time=0.011
EXTRACT: note_off channel=5 note=38 velocity=64 time=0.001
EXTRACT: note_off channel=2 note=50 velocity=64 time=0
EXTRACT: note_on channel=9 note=39 velocity=119 time=0.001
EXTRACT: note_on channel=1 note=26 velocity=123 time=0.008
EXTRACT: note_on channel=2 note=38 velocity=125 time=0
EXTRACT: note_on channel=5 note=38 velocity=112 time=0
EXTRACT: note_on channel=8 note=62 velocity=62 time=0
EXTRACT: note_on channel=9 note=36 velocity=127 time=0
EXTRACT: note_on channel=9 note=38 velocity=116 time=0
EXTRACT: note_on channel=9 note=42 velocity=119 time=0
EXTRACT: note_on channel=9 note=70 velocity=107 time=0
EXTRACT: note_on channel=11 note=62 velocity=69 time=0
EXTRACT: note_off channel=8 note=62 velocity=65 time=0.017
EXTRACT: note_off channel=9 note=39 velocity=65 time=0
EXTRACT: note_off channel=9 note=70 velocity=65 time=0.007
EXTRACT: note_off channel=9 note=42 velocity=64 time=0
EXTRACT: note_off channel=9 note=38 velocity=65 time=0
EXTRACT: note_off channel=9 note=36 velocity=64 time=0
EXTRACT: note_off channel=11 note=62 velocity=64 time=0.08600000000000001
EXTRACT: note_off channel=5 note=38 velocity=65 time=0.001
EXTRACT: note_off channel=2 note=38 velocity=64 time=0
EXTRACT: note_on channel=2 note=38 velocity=74 time=0.009000000000000001
EXTRACT: note_on channel=5 note=38 velocity=62 time=0
EXTRACT: note_on channel=8 note=62 velocity=84 time=0
EXTRACT: note_on channel=10 note=62 velocity=97 time=0
EXTRACT: note_on channel=11 note=74 velocity=102 time=0
EXTRACT: note_on channel=14 note=69 velocity=73 time=0
EXTRACT: note_off channel=8 note=62 velocity=64 time=0.051000000000000004
EXTRACT: note_off channel=1 note=26 velocity=64 time=0.018000000000000002
EXTRACT: note_off channel=10 note=62 velocity=65 time=0.027
EXTRACT: note_off channel=14 note=69 velocity=65 time=0.009000000000000001
EXTRACT: note_off channel=5 note=38 velocity=65 time=0.006
EXTRACT: note_off channel=2 note=38 velocity=65 time=0
EXTRACT: note_off channel=11 note=74 velocity=65 time=0.002
EXTRACT: note_on channel=1 note=38 velocity=123 time=0.007
EXTRACT: note_on channel=2 note=50 velocity=125 time=0
EXTRACT: note_on channel=5 note=38 velocity=113 time=0
EXTRACT: note_on channel=8 note=62 velocity=105 time=0
EXTRACT: note_on channel=9 note=42 velocity=116 time=0
EXTRACT: note_on channel=9 note=70 velocity=107 time=0
EXTRACT: note_on channel=11 note=69 velocity=76 time=0
EXTRACT: note_off channel=9 note=70 velocity=64 time=0.024
EXTRACT: note_off channel=9 note=42 velocity=65 time=0
EXTRACT: note_off channel=8 note=62 velocity=64 time=0.02
EXTRACT: note_off channel=11 note=69 velocity=64 time=0.066
EXTRACT: note_off channel=5 note=38 velocity=64 time=0.001
EXTRACT: note_off channel=2 note=50 velocity=65 time=0
EXTRACT: note_on channel=2 note=50 velocity=125 time=0.009000000000000001
EXTRACT: note_on channel=5 note=38 velocity=113 time=0
EXTRACT: note_on channel=8 note=62 velocity=67 time=0
EXTRACT: note_on channel=9 note=44 velocity=98 time=0
EXTRACT: note_on channel=9 note=70 velocity=106 time=0
EXTRACT: note_on channel=11 note=62 velocity=77 time=0
EXTRACT: note_off channel=9 note=70 velocity=65 time=0.024
EXTRACT: note_off channel=9 note=44 velocity=64 time=0
EXTRACT: note_off channel=8 note=62 velocity=65 time=0.013000000000000001
EXTRACT: note_off channel=1 note=38 velocity=65 time=0.062
EXTRACT: note_off channel=11 note=62 velocity=65 time=0.011
EXTRACT: note_off channel=5 note=38 velocity=65 time=0.001
EXTRACT: note_off channel=2 note=50 velocity=64 time=0
EXTRACT: note_on channel=1 note=29 velocity=122 time=0.009000000000000001
EXTRACT: note_on channel=2 note=41 velocity=124 time=0
EXTRACT: note_on channel=5 note=41 velocity=112 time=0
EXTRACT: note_on channel=8 note=65 velocity=112 time=0
EXTRACT: note_on channel=9 note=36 velocity=127 time=0
EXTRACT: note_on channel=9 note=42 velocity=125 time=0
EXTRACT: note_on channel=9 note=70 velocity=107 time=0
EXTRACT: note_on channel=10 note=65 velocity=103 time=0
EXTRACT: note_on channel=11 note=77 velocity=105 time=0
EXTRACT: note_on channel=14 note=72 velocity=66 time=0
EXTRACT: note_off channel=9 note=70 velocity=64 time=0.024
EXTRACT: note_off channel=9 note=42 velocity=65 time=0
EXTRACT: note_off channel=9 note=36 velocity=65 time=0
EXTRACT: note_off channel=8 note=65 velocity=65 time=0.032
EXTRACT: note_off channel=5 note=41 velocity=64 time=0.055
EXTRACT: note_off channel=2 note=41 velocity=64 time=0
EXTRACT: note_off channel=11 note=77 velocity=65 time=0.003
EXTRACT: note_on channel=2 note=41 velocity=75 time=0.006
EXTRACT: note_on channel=5 note=41 velocity=62 time=0
EXTRACT: note_on channel=8 note=65 velocity=58 time=0
EXTRACT: note_on channel=11 note=69 velocity=76 time=0
EXTRACT: note_off channel=8 note=65 velocity=64 time=0.043000000000000003
EXTRACT: note_off channel=1 note=29 velocity=65 time=0.056
EXTRACT: note_off channel=11 note=69 velocity=64 time=0.011
EXTRACT: note_off channel=5 note=41 velocity=64 time=0.001
EXTRACT: note_off channel=2 note=41 velocity=65 time=0
EXTRACT: note_on channel=1 note=41 velocity=122 time=0.009000000000000001
EXTRACT: note_on channel=2 note=53 velocity=124 time=0
EXTRACT: note_on channel=5 note=41 velocity=113 time=0
EXTRACT: note_on channel=8 note=65 velocity=99 time=0
EXTRACT: note_on channel=9 note=46 velocity=111 time=0
EXTRACT: note_on channel=9 note=70 velocity=106 time=0
EXTRACT: note_on channel=11 note=62 velocity=76 time=0
EXTRACT: note_off channel=9 note=70 velocity=64 time=0.024
EXTRACT: note_off channel=9 note=46 velocity=64 time=0
EXTRACT: note_off channel=8 note=65 velocity=64 time=0.028
EXTRACT: note_off channel=11 note=62 velocity=65 time=0.058
EXTRACT: note_off channel=5 note=41 velocity=65 time=0.001
EXTRACT: note_off channel=2 note=53 velocity=64 time=0
EXTRACT: note_on channel=2 note=53 velocity=124 time=0.009000000000000001
EXTRACT: note_on channel=5 note=41 velocity=113 time=0
EXTRACT: note_on channel=8 note=60 velocity=99 time=0
EXTRACT: note_on channel=9 note=70 velocity=106 time=0
EXTRACT: note_on channel=11 note=74 velocity=77 time=0
EXTRACT: note_off channel=9 note=70 velocity=65 time=0.024
EXTRACT: note_off channel=8 note=60 velocity=65 time=0.033
EXTRACT: note_off channel=1 note=41 velocity=64 time=0.027
EXTRACT: note_on channel=10 note=60 velocity=94 time=0.011
EXTRACT: note_off channel=10 note=65 velocity=65 time=0.004
EXTRACT: note_off channel=14 note=72 velocity=65 time=0.002
EXTRACT: note_off channel=11 note=74 velocity=64 time=0.009000000000000001
EXTRACT: note_off channel=5 note=41 velocity=65 time=0.001
EXTRACT: note_off channel=2 note=53 velocity=65 time=0
EXTRACT: note_on channel=9 note=39 velocity=119 time=0.001
EXTRACT: note_on channel=1 note=24 velocity=123 time=0.008
EXTRACT: note_on channel=2 note=36 velocity=125 time=0
EXTRACT: note_on channel=5 note=36 velocity=112 time=0
EXTRACT: note_on channel=9 note=36 velocity=126 time=0
EXTRACT: note_on channel=9 note=38 velocity=117 time=0
EXTRACT: note_on channel=9 note=42 velocity=99 time=0
EXTRACT: note_on channel=9 note=70 velocity=107 time=0
EXTRACT: note_on channel=10 note=60 velocity=94 time=0
EXTRACT: note_on channel=11 note=72 velocity=89 time=0
EXTRACT: note_on channel=14 note=67 velocity=57 time=0
EXTRACT: note_off channel=9 note=39 velocity=64 time=0.017
EXTRACT: note_off channel=9 note=70 velocity=65 time=0.007
EXTRACT: note_off channel=9 note=42 velocity=65 time=0
EXTRACT: note_off channel=9 note=38 velocity=64 time=0
EXTRACT: note_off channel=9 note=36 velocity=65 time=0
EXTRACT: note_off channel=5 note=36 velocity=64 time=0.08700000000000001
EXTRACT: note_off channel=2 note=36 velocity=65 time=0
EXTRACT: note_off channel=11 note=72 velocity=64 time=0.003
EXTRACT: note_on channel=2 note=36 velocity=75 time=0.006
EXTRACT: note_on channel=5 note=36 velocity=62 time=0
EXTRACT: note_on channel=8 note=60 velocity=102 time=0
EXTRACT: note_on channel=11 note=66 velocity=76 time=0
EXTRACT: note_off channel=8 note=60 velocity=64 time=0.057
EXTRACT: note_off channel=1 note=24 velocity=64 time=0.027
EXTRACT: note_off channel=11 note=66 velocity=65 time=0.026000000000000002
EXTRACT: note_off channel=5 note=36 velocity=64 time=0.001
EXTRACT: note_off channel=2 note=36 velocity=64 time=0
EXTRACT: note_on channel=1 note=36 velocity=123 time=0.009000000000000001
EXTRACT: note_on channel=2 note=48 velocity=124 time=0
EXTRACT: note_on channel=5 note=36 velocity=113 time=0
EXTRACT: note_on channel=8 note=60 velocity=104 time=0
EXTRACT: note_on channel=9 note=42 velocity=114 time=0
EXTRACT: note_on channel=9 note=70 velocity=107 time=0
EXTRACT: note_on channel=11 note=60 velocity=76 time=0
EXTRACT: note_off channel=9 note=70 velocity=64 time=0.024
EXTRACT: note_off channel=9 note=42 velocity=64 time=0
EXTRACT: note_off channel=8 note=60 velocity=65 time=0.019
EXTRACT: note_off channel=11 note=60 velocity=65 time=0.067
EXTRACT: note_off channel=5 note=36 velocity=65 time=0.001
EXTRACT: note_off channel=2 note=48 velocity=65 time=0
EXTRACT: note_on channel=2 note=48 velocity=124 time=0.009000000000000001
EXTRACT: note_on channel=5 note=36 velocity=112 time=0
EXTRACT: note_on channel=9 note=44 velocity=99 time=0
EXTRACT: note_on channel=9 note=70 velocity=106 time=0
EXTRACT: note_on channel=11 note=66 velocity=77 time=0
EXTRACT: note_off channel=14 note=67 velocity=64 time=0.01
EXTRACT: note_off channel=9 note=70 velocity=65 time=0.014
EXTRACT: note_off channel=9 note=44 velocity=65 time=0
EXTRACT: note_off channel=10 note=60 velocity=64 time=0.037
EXTRACT: note_off channel=10 note=60 velocity=64 time=0.001
EXTRACT: note_off channel=1 note=36 velocity=65 time=0.022
EXTRACT: note_off channel=11 note=66 velocity=64 time=0.026000000000000002
EXTRACT: note_off channel=5 note=36 velocity=65 time=0.001
EXTRACT: note_off channel=2 note=48 velocity=64 time=0
EXTRACT: note_on channel=1 note=26 velocity=122 time=0.009000000000000001
EXTRACT: note_on channel=2 note=38 velocity=125 time=0
EXTRACT: note_on channel=5 note=38 velocity=113 time=0
EXTRACT: note_on channel=8 note=62 velocity=113 time=0
EXTRACT: note_on channel=9 note=36 velocity=126 time=0
EXTRACT: note_on channel=9 note=42 velocity=123 time=0
EXTRACT: note_on channel=9 note=70 velocity=106 time=0
EXTRACT: note_off channel=9 note=70 velocity=64 time=0.024
EXTRACT: note_off channel=9 note=42 velocity=64 time=0
EXTRACT: note_off channel=9 note=36 velocity=65 time=0
EXTRACT: control_change channel=11 control=10 value=0 time=0.016
EXTRACT: note_off channel=8 note=62 velocity=65 time=0.007
EXTRACT: note_off channel=5 note=38 velocity=64 time=0.064
EXTRACT: note_off channel=2 note=38 velocity=64 time=0
EXTRACT: note_on channel=2 note=38 velocity=75 time=0.009000000000000001
EXTRACT: note_on channel=5 note=38 velocity=63 time=0
EXTRACT: note_on channel=11 note=69 velocity=68 time=0
EXTRACT: note_off channel=1 note=26 velocity=64 time=0.084
EXTRACT: note_off channel=11 note=69 velocity=64 time=0.026000000000000002
EXTRACT: note_off channel=5 note=38 velocity=64 time=0.001
EXTRACT: note_off channel=2 note=38 velocity=65 time=0
EXTRACT: note_on channel=1 note=38 velocity=122 time=0.009000000000000001
EXTRACT: note_on channel=2 note=50 velocity=124 time=0
EXTRACT: note_on channel=5 note=38 velocity=112 time=0
EXTRACT: note_on channel=8 note=62 velocity=106 time=0
EXTRACT: note_on channel=9 note=46 velocity=105 time=0
EXTRACT: note_on channel=9 note=70 velocity=107 time=0
EXTRACT: note_on channel=10 note=62 velocity=101 time=0
EXTRACT: note_on channel=11 note=74 velocity=99 time=0
EXTRACT: note_on channel=14 note=69 velocity=71 time=0
EXTRACT: note_off channel=9 note=70 velocity=65 time=0.024
EXTRACT: note_off channel=9 note=46 velocity=64 time=0
EXTRACT: note_off channel=8 note=62 velocity=64 time=0.004
EXTRACT: note_off channel=10 note=62 velocity=65 time=0.066
EXTRACT: note_off channel=14 note=69 velocity=64 time=0.011
EXTRACT: note_off channel=5 note=38 velocity=65 time=0.006
EXTRACT: note_off channel=2 note=50 velocity=65 time=0
EXTRACT: note_off channel=11 note=74 velocity=65 time=0.004
EXTRACT: note_on channel=2 note=50 velocity=124 time=0.005
EXTRACT: note_on channel=5 note=38 velocity=113 time=0
EXTRACT: note_on channel=8 note=62 velocity=123 time=0
EXTRACT: note_on channel=9 note=70 velocity=107 time=0
EXTRACT: note_on channel=11 note=69 velocity=69 time=0
EXTRACT: note_off channel=9 note=70 velocity=64 time=0.024
EXTRACT: note_off channel=8 note=62 velocity=65 time=0.031
EXTRACT: note_off channel=1 note=38 velocity=65 time=0.044
EXTRACT: note_off channel=11 note=69 velocity=65 time=0.011
EXTRACT: note_off channel=5 note=38 velocity=64 time=0.001
EXTRACT: note_off channel=2 note=50 velocity=64 time=0
EXTRACT: note_on channel=9 note=39 velocity=118 time=0.001
EXTRACT: note_on channel=1 note=26 velocity=123 time=0.008
EXTRACT: note_on channel=2 note=38 velocity=125 time=0
EXTRACT: note_on channel=5 note=38 velocity=112 time=0
EXTRACT: note_on channel=9 note=36 velocity=127 time=0
EXTRACT: note_on channel=9 note=38 velocity=116 time=0
EXTRACT: note_on channel=9 note=42 velocity=110 time=0
EXTRACT: note_on channel=9 note=70 velocity=106 time=0
EXTRACT: note_on channel=11 note=62 velocity=68 time=0
EXTRACT: note_off channel=9 note=39 velocity=65 time=0.017
EXTRACT: note_off channel=9 note=70 velocity=64 time=0.007
EXTRACT: note_off channel=9 note=42 velocity=65 time=0
EXTRACT: note_off channel=9 note=38 velocity=65 time=0
EXTRACT: note_off channel=9 note=36 velocity=64 time=0
EXTRACT: note_off channel=11 note=62 velocity=64 time=0.08600000000000001
EXTRACT: note_off channel=5 note=38 velocity=65 time=0.001
EXTRACT: note_off channel=2 note=38 velocity=64 time=0
EXTRACT: note_on channel=2 note=38 velocity=74 time=0.009000000000000001
EXTRACT: note_on channel=5 note=38 velocity=62 time=0
EXTRACT: note_on channel=8 note=62 velocity=105 time=0
EXTRACT: note_on channel=10 note=62 velocity=102 time=0
EXTRACT: note_on channel=11 note=74 velocity=99 time=0
EXTRACT: note_on channel=14 note=69 velocity=66 time=0
EXTRACT: note_off channel=8 note=62 velocity=64 time=0.052000000000000005
EXTRACT: note_off channel=1 note=26 velocity=65 time=0.017
EXTRACT: note_off channel=14 note=69 velocity=65 time=0.031
EXTRACT: note_off channel=11 note=74 velocity=64 time=0
EXTRACT: note_off channel=10 note=62 velocity=64 time=0.005
EXTRACT: note_off channel=5 note=38 velocity=65 time=0.006
EXTRACT: note_off channel=2 note=38 velocity=65 time=0
EXTRACT: note_on channel=1 note=38 velocity=122 time=0.009000000000000001
EXTRACT: note_on channel=2 note=50 velocity=125 time=0
EXTRACT: note_on channel=5 note=38 velocity=113 time=0
EXTRACT: note_on channel=8 note=62 velocity=80 time=0
EXTRACT: note_on channel=9 note=42 velocity=124 time=0
EXTRACT: note_on channel=9 note=70 velocity=106 time=0
EXTRACT: note_on channel=11 note=69 velocity=68 time=0
EXTRACT: note_off channel=9 note=70 velocity=65 time=0.024
EXTRACT: note_off channel=9 note=42 velocity=64 time=0
EXTRACT: note_off channel=8 note=62 velocity=64 time=0.003
EXTRACT: note_off channel=11 note=69 velocity=65 time=0.083
EXTRACT: note_off channel=5 note=38 velocity=64 time=0.001
EXTRACT: note_off channel=2 note=50 velocity=65 time=0
EXTRACT: note_on channel=2 note=50 velocity=125 time=0.009000000000000001
EXTRACT: note_on channel=5 note=38 velocity=113 time=0
EXTRACT: note_on channel=9 note=44 velocity=98 time=0
EXTRACT: note_on channel=9 note=70 velocity=107 time=0
EXTRACT: note_on channel=11 note=62 velocity=68 time=0
EXTRACT: note_off channel=9 note=70 velocity=64 time=0.024
EXTRACT: note_off channel=9 note=44 velocity=65 time=0
EXTRACT: note_off channel=1 note=38 velocity=64 time=0.075
EXTRACT: note_off channel=11 note=62 velocity=64 time=0.011
EXTRACT: note_off channel=5 note=38 velocity=65 time=0.001
EXTRACT: note_off channel=2 note=50 velocity=64 time=0
EXTRACT: note_on channel=1 note=29 velocity=123 time=0.009000000000000001
EXTRACT: note_on channel=2 note=41 velocity=124 time=0
EXTRACT: note_on channel=5 note=41 velocity=112 time=0
EXTRACT: note_on channel=8 note=65 velocity=117 time=0
EXTRACT: note_on channel=9 note=36 velocity=126 time=0
EXTRACT: note_on channel=9 note=42 velocity=125 time=0
EXTRACT: note_on channel=9 note=70 velocity=106 time=0
EXTRACT: note_on channel=10 note=65 velocity=97 time=0
EXTRACT: note_on channel=11 note=77 velocity=105 time=0
EXTRACT: note_on channel=14 note=72 velocity=71 time=0
EXTRACT: note_off channel=9 note=70 velocity=65 time=0.024
EXTRACT: note_off channel=9 note=42 velocity=64 time=0
EXTRACT: note_off channel=9 note=36 velocity=64 time=0
EXTRACT: note_off channel=8 note=65 velocity=65 time=0.019
EXTRACT: note_off channel=10 note=65 velocity=65 time=0.03
EXTRACT: note_off channel=11 note=77 velocity=65 time=0.036000000000000004
EXTRACT: note_off channel=5 note=41 velocity=64 time=0.002
EXTRACT: note_off channel=2 note=41 velocity=64 time=0
EXTRACT: note_on channel=2 note=41 velocity=75 time=0.009000000000000001
EXTRACT: note_on channel=5 note=41 velocity=62 time=0
EXTRACT: note_on channel=8 note=65 velocity=76 time=0
EXTRACT: note_on channel=11 note=69 velocity=69 time=0
EXTRACT: note_off channel=14 note=72 velocity=64 time=0.016
EXTRACT: note_off channel=8 note=65 velocity=65 time=0.018000000000000002
EXTRACT: note_off channel=1 note=29 velocity=65 time=0.065
EXTRACT: note_off channel=11 note=69 velocity=65 time=0.011
EXTRACT: note_off channel=5 note=41 velocity=64 time=0.001
EXTRACT: note_off channel=2 note=41 velocity=65 time=0
EXTRACT: note_on channel=1 note=41 velocity=123 time=0.009000000000000001
EXTRACT: note_on channel=2 note=53 velocity=124 time=0
EXTRACT: note_on channel=5 note=41 velocity=113 time=0
EXTRACT: note_on channel=8 note=65 velocity=112 time=0
EXTRACT: note_on channel=9 note=46 velocity=110 time=0
EXTRACT: note_on channel=9 note=70 velocity=107 time=0
EXTRACT: note_on channel=10 note=65 velocity=115 time=0
EXTRACT: note_on channel=11 note=77 velocity=104 time=0
EXTRACT: note_on channel=14 note=72 velocity=66 time=0
EXTRACT: note_off channel=9 note=70 velocity=65 time=0.024
EXTRACT: note_off channel=9 note=46 velocity=65 time=0
EXTRACT: note_off channel=8 note=65 velocity=64 time=0.01
EXTRACT: note_off channel=5 note=41 velocity=65 time=0.077
EXTRACT: note_off channel=2 note=53 velocity=64 time=0
EXTRACT: note_off channel=10 note=65 velocity=65 time=0.006
EXTRACT: note_on channel=2 note=53 velocity=124 time=0.003
EXTRACT: note_on channel=5 note=41 velocity=113 time=0
EXTRACT: note_on channel=8 note=60 velocity=113 time=0
EXTRACT: note_on channel=9 note=70 velocity=107 time=0
EXTRACT: note_on channel=11 note=69 velocity=68 time=0
EXTRACT: note_off channel=11 note=77 velocity=64 time=0.008
EXTRACT: note_off channel=14 note=72 velocity=65 time=0.005
EXTRACT: note_off channel=9 note=70 velocity=64 time=0.011
EXTRACT: note_off channel=8 note=60 velocity=64 time=0.022
EXTRACT: note_off channel=1 note=41 velocity=64 time=0.038
EXTRACT: note_off channel=11 note=69 velocity=65 time=0.026000000000000002
EXTRACT: note_off channel=5 note=41 velocity=65 time=0.001
EXTRACT: note_off channel=2 note=53 velocity=65 time=0
EXTRACT: note_on channel=9 note=39 velocity=118 time=0.001
EXTRACT: note_on channel=1 note=24 velocity=122 time=0.008
EXTRACT: note_on channel=2 note=36 velocity=125 time=0
EXTRACT: note_on channel=5 note=36 velocity=112 time=0
EXTRACT: note_on channel=8 note=60 velocity=91 time=0
EXTRACT: note_on channel=9 note=36 velocity=127 time=0
EXTRACT: note_on channel=9 note=38 velocity=116 time=0
EXTRACT: note_on channel=9 note=42 velocity=113 time=0
EXTRACT: note_on channel=9 note=70 velocity=106 time=0
EXTRACT: note_on channel=11 note=62 velocity=69 time=0
EXTRACT: note_off channel=9 note=39 velocity=64 time=0.017
EXTRACT: note_off channel=9 note=70 velocity=65 time=0.007
EXTRACT: note_off channel=9 note=42 velocity=64 time=0
EXTRACT: note_off channel=9 note=38 velocity=65 time=0
EXTRACT: note_off channel=9 note=36 velocity=65 time=0
EXTRACT: note_off channel=8 note=60 velocity=65 time=0.001
EXTRACT: note_off channel=11 note=62 velocity=64 time=0.085
EXTRACT: note_off channel=5 note=36 velocity=64 time=0.001
EXTRACT: note_off channel=2 note=36 velocity=65 time=0
EXTRACT: note_on channel=2 note=36 velocity=75 time=0.009000000000000001
EXTRACT: note_on channel=5 note=36 velocity=62 time=0
EXTRACT: note_on channel=8 note=60 velocity=98 time=0
EXTRACT: note_on channel=10 note=60 velocity=100 time=0
EXTRACT: note_on channel=11 note=72 velocity=105 time=0
EXTRACT: note_on channel=14 note=67 velocity=58 time=0
EXTRACT: note_off channel=8 note=60 velocity=65 time=0.041
EXTRACT: note_off channel=1 note=24 velocity=64 time=0.043000000000000003
EXTRACT: note_off channel=5 note=36 velocity=64 time=0.027
EXTRACT: note_off channel=2 note=36 velocity=64 time=0
EXTRACT: note_on channel=1 note=36 velocity=123 time=0.009000000000000001
EXTRACT: note_on channel=2 note=48 velocity=124 time=0
EXTRACT: note_on channel=5 note=36 velocity=113 time=0
EXTRACT: note_on channel=8 note=60 velocity=110 time=0
EXTRACT: note_on channel=9 note=42 velocity=108 time=0
EXTRACT: note_on channel=9 note=70 velocity=107 time=0
EXTRACT: note_on channel=12 note=76 velocity=127 time=0
EXTRACT: note_off channel=11 note=72 velocity=64 time=0.009000000000000001
EXTRACT: note_on channel=12 note=84 velocity=126 time=0.001
EXTRACT: note_off channel=8 note=60 velocity=64 time=0.013000000000000001
EXTRACT: note_off channel=9 note=70 velocity=64 time=0.001
EXTRACT: note_off channel=9 note=42 velocity=65 time=0
EXTRACT: note_off channel=14 note=67 velocity=65 time=0.057
EXTRACT: note_off channel=5 note=36 velocity=65 time=0.03
EXTRACT: note_off channel=2 note=48 velocity=65 time=0
EXTRACT: note_on channel=2 note=48 velocity=124 time=0.009000000000000001
EXTRACT: note_on channel=5 note=36 velocity=112 time=0
EXTRACT: note_on channel=9 note=44 velocity=98 time=0
EXTRACT: note_on channel=9 note=70 velocity=106 time=0
EXTRACT: note_on channel=11 note=67 velocity=78 time=0
EXTRACT: note_off channel=9 note=70 velocity=64 time=0.024
EXTRACT: note_off channel=9 note=44 velocity=64 time=0
EXTRACT: control_change channel=11 control=10 value=127 time=0.056
EXTRACT: note_off channel=1 note=36 velocity=65 time=0.004
EXTRACT: note_off channel=10 note=60 velocity=64 time=0.005
EXTRACT: control_change channel=9 control=91 value=20 time=0.001
EXTRACT: note_off channel=5 note=36 velocity=65 time=0.024
EXTRACT: note_off channel=2 note=48 velocity=64 time=0
EXTRACT: note_on channel=1 note=26 velocity=122 time=0.006
EXTRACT: note_on channel=2 note=38 velocity=125 time=0
EXTRACT: note_on channel=5 note=38 velocity=113 time=0
EXTRACT: note_on channel=8 note=62 velocity=113 time=0
EXTRACT: note_on channel=9 note=36 velocity=127 time=0
EXTRACT: note_on channel=9 note=42 velocity=124 time=0
EXTRACT: note_on channel=9 note=70 velocity=106 time=0
EXTRACT: note_off channel=11 note=67 velocity=65 time=0.009000000000000001
EXTRACT: note_off channel=9 note=70 velocity=65 time=0.015
EXTRACT: note_off channel=9 note=42 velocity=65 time=0
EXTRACT: note_off channel=9 note=36 velocity=64 time=0
EXTRACT: note_off channel=12 note=76 velocity=65 time=0.004
EXTRACT: note_off channel=12 note=84 velocity=64 time=0.01
EXTRACT: note_off channel=8 note=62 velocity=64 time=0.005
EXTRACT: note_off channel=5 note=38 velocity=64 time=0.068
EXTRACT: note_off channel=2 note=38 velocity=64 time=0
EXTRACT: note_on channel=2 note=38 velocity=75 time=0.009000000000000001
EXTRACT: note_on channel=5 note=38 velocity=63 time=0
EXTRACT: note_on channel=11 note=69 velocity=76 time=0
EXTRACT: note_off channel=1 note=26 velocity=65 time=0.084
EXTRACT: note_off channel=11 note=69 velocity=65 time=0.026000000000000002
EXTRACT: note_off channel=5 note=38 velocity=64 time=0.001
EXTRACT: note_off channel=2 note=38 velocity=65 time=0
EXTRACT: note_on channel=1 note=38 velocity=122 time=0.009000000000000001
EXTRACT: note_on channel=2 note=50 velocity=124 time=0
EXTRACT: note_on channel=5 note=38 velocity=112 time=0
EXTRACT: note_on channel=6 note=50 velocity=103 time=0
EXTRACT: note_on channel=6 note=62 velocity=103 time=0
EXTRACT: note_on channel=8 note=62 velocity=111 time=0
EXTRACT: note_on channel=9 note=46 velocity=110 time=0
EXTRACT: note_on channel=9 note=70 velocity=107 time=0
EXTRACT: note_on channel=10 note=64 velocity=95 time=0
EXTRACT: note_on channel=10 note=71 velocity=88 time=0
EXTRACT: note_on channel=11 note=74 velocity=103 time=0
EXTRACT: note_on channel=14 note=69 velocity=73 time=0
EXTRACT: note_off channel=9 note=70 velocity=64 time=0.024
EXTRACT: note_off channel=9 note=46 velocity=65 time=0
EXTRACT: note_off channel=8 note=62 velocity=65 time=0.002
EXTRACT: note_off channel=10 note=64 velocity=65 time=0.057
EXTRACT: note_off channel=14 note=69 velocity=64 time=0.011
EXTRACT: note_off channel=10 note=71 velocity=64 time=0.004
EXTRACT: note_off channel=11 note=74 velocity=64 time=0.012
EXTRACT: note_off channel=5 note=38 velocity=65 time=0.001
EXTRACT: note_off channel=2 note=50 velocity=65 time=0
EXTRACT: note_on channel=2 note=50 velocity=124 time=0.009000000000000001
EXTRACT: note_on channel=5 note=38 velocity=113 time=0
EXTRACT: note_on channel=8 note=62 velocity=110 time=0
EXTRACT: note_on channel=9 note=70 velocity=107 time=0
EXTRACT: note_on channel=11 note=69 velocity=76 time=0
EXTRACT: note_off channel=6 note=62 velocity=65 time=0.006
EXTRACT: note_off channel=6 note=50 velocity=65 time=0
EXTRACT: note_off channel=9 note=70 velocity=65 time=0.018000000000000002
EXTRACT: note_off channel=8 note=62 velocity=64 time=0.032
EXTRACT: note_off channel=1 note=38 velocity=64 time=0.043000000000000003
EXTRACT: note_off channel=11 note=69 velocity=64 time=0.011
EXTRACT: note_off channel=5 note=38 velocity=64 time=0.001
EXTRACT: note_off channel=2 note=50 velocity=64 time=0
EXTRACT: note_on channel=9 note=39 velocity=119 time=0.001
EXTRACT: note_on channel=1 note=26 velocity=123 time=0.008
EXTRACT: note_on channel=2 note=38 velocity=125 time=0
EXTRACT: note_on channel=5 note=38 velocity=112 time=0
EXTRACT: note_on channel=9 note=36 velocity=126 time=0
EXTRACT: note_on channel=9 note=38 velocity=117 time=0
EXTRACT: note_on channel=9 note=42 velocity=123 time=0
EXTRACT: note_on channel=9 note=70 velocity=106 time=0
EXTRACT: note_on channel=11 note=62 velocity=69 time=0
EXTRACT: note_off channel=9 note=39 velocity=64 time=0.017
EXTRACT: note_off channel=9 note=70 velocity=64 time=0.007
EXTRACT: note_off channel=9 note=42 velocity=65 time=0
EXTRACT: note_off channel=9 note=38 velocity=64 time=0
EXTRACT: note_off channel=9 note=36 velocity=65 time=0
EXTRACT: note_off channel=11 note=62 velocity=65 time=0.08600000000000001
EXTRACT: note_off channel=5 note=38 velocity=65 time=0.001
EXTRACT: note_off channel=2 note=38 velocity=64 time=0
EXTRACT: note_on channel=2 note=38 velocity=74 time=0.009000000000000001
EXTRACT: note_on channel=5 note=38 velocity=62 time=0
EXTRACT: note_on channel=6 note=50 velocity=102 time=0
EXTRACT: note_on channel=6 note=62 velocity=103 time=0
EXTRACT: note_on channel=8 note=62 velocity=102 time=0
EXTRACT: note_on channel=10 note=64 velocity=94 time=0
EXTRACT: note_on channel=10 note=71 velocity=95 time=0
EXTRACT: note_on channel=11 note=74 velocity=103 time=0
EXTRACT: note_on channel=14 note=69 velocity=71 time=0
EXTRACT: note_off channel=8 note=62 velocity=65 time=0.053
EXTRACT: note_off channel=1 note=26 velocity=64 time=0.016
EXTRACT: note_off channel=10 note=64 velocity=64 time=0.017
EXTRACT: note_off channel=10 note=71 velocity=65 time=0.004
EXTRACT: note_off channel=14 note=69 velocity=65 time=0.005
EXTRACT: note_off channel=5 note=38 velocity=65 time=0.016
EXTRACT: note_off channel=2 note=38 velocity=65 time=0
EXTRACT: note_off channel=11 note=74 velocity=65 time=0.002
EXTRACT: note_on channel=1 note=38 velocity=123 time=0.007
EXTRACT: note_on channel=2 note=50 velocity=125 time=0
EXTRACT: note_on channel=5 note=38 velocity=113 time=0
EXTRACT: note_on channel=8 note=62 velocity=111 time=0
EXTRACT: note_on channel=9 note=42 velocity=117 time=0
EXTRACT: note_on channel=9 note=70 velocity=106 time=0
EXTRACT: note_on channel=11 note=69 velocity=76 time=0
EXTRACT: note_off channel=6 note=62 velocity=64 time=0.012
EXTRACT: note_off channel=6 note=50 velocity=64 time=0
EXTRACT: note_off channel=8 note=62 velocity=65 time=0.01
EXTRACT: note_off channel=9 note=70 velocity=65 time=0.002
EXTRACT: note_off channel=9 note=42 velocity=64 time=0
EXTRACT: note_off channel=11 note=69 velocity=64 time=0.08600000000000001
EXTRACT: note_off channel=5 note=38 velocity=64 time=0.001
EXTRACT: note_off channel=2 note=50 velocity=65 time=0
EXTRACT: note_on channel=2 note=50 velocity=125 time=0.009000000000000001
EXTRACT: note_on channel=5 note=38 velocity=113 time=0
EXTRACT: note_on channel=9 note=44 velocity=99 time=0
EXTRACT: note_on channel=9 note=70 velocity=107 time=0
EXTRACT: note_on channel=11 note=62 velocity=77 time=0
EXTRACT: note_off channel=9 note=70 velocity=65 time=0.024
EXTRACT: note_off channel=9 note=44 velocity=64 time=0
EXTRACT: note_off channel=1 note=38 velocity=65 time=0.075
EXTRACT: note_off channel=11 note=62 velocity=64 time=0.011
EXTRACT: note_off channel=5 note=38 velocity=65 time=0.001
EXTRACT: note_off channel=2 note=50 velocity=64 time=0
EXTRACT: note_on channel=1 note=29 velocity=122 time=0.009000000000000001
EXTRACT: note_on channel=2 note=41 velocity=124 time=0
EXTRACT: note_on channel=5 note=41 velocity=112 time=0
EXTRACT: note_on channel=6 note=53 velocity=100 time=0
EXTRACT: note_on channel=6 note=65 velocity=100 time=0
EXTRACT: note_on channel=8 note=65 velocity=104 time=0
EXTRACT: note_on channel=9 note=36 velocity=127 time=0
EXTRACT: note_on channel=9 note=42 velocity=124 time=0
EXTRACT: note_on channel=9 note=70 velocity=107 time=0
EXTRACT: note_on channel=10 note=67 velocity=81 time=0
EXTRACT: note_on channel=10 note=74 velocity=100 time=0
EXTRACT: note_on channel=11 note=77 velocity=104 time=0
EXTRACT: note_on channel=14 note=72 velocity=72 time=0
EXTRACT: note_off channel=9 note=70 velocity=64 time=0.024
EXTRACT: note_off channel=9 note=42 velocity=65 time=0
EXTRACT: note_off channel=9 note=36 velocity=65 time=0
EXTRACT: note_off channel=8 note=65 velocity=64 time=0.018000000000000002
EXTRACT: note_off channel=5 note=41 velocity=64 time=0.069
EXTRACT: note_off channel=2 note=41 velocity=64 time=0
EXTRACT: note_off channel=11 note=77 velocity=65 time=0.003
EXTRACT: note_on channel=2 note=41 velocity=75 time=0.006
EXTRACT: note_on channel=5 note=41 velocity=62 time=0
EXTRACT: note_on channel=8 note=65 velocity=95 time=0
EXTRACT: note_on channel=11 note=69 velocity=76 time=0
EXTRACT: note_off channel=8 note=65 velocity=65 time=0.043000000000000003
EXTRACT: note_off channel=1 note=29 velocity=65 time=0.056
EXTRACT: note_off channel=11 note=69 velocity=64 time=0.011
EXTRACT: note_off channel=5 note=41 velocity=64 time=0.001
EXTRACT: note_off channel=2 note=41 velocity=65 time=0
EXTRACT: note_on channel=1 note=41 velocity=122 time=0.009000000000000001
EXTRACT: note_on channel=2 note=53 velocity=124 time=0
EXTRACT: note_on channel=5 note=41 velocity=113 time=0
EXTRACT: note_on channel=8 note=65 velocity=111 time=0
EXTRACT: note_on channel=9 note=46 velocity=107 time=0
EXTRACT: note_on channel=9 note=70 velocity=106 time=0
EXTRACT: note_on channel=11 note=62 velocity=77 time=0
EXTRACT: note_off channel=9 note=70 velocity=64 time=0.024
EXTRACT: note_off channel=9 note=46 velocity=64 time=0
EXTRACT: note_off channel=8 note=65 velocity=64 time=0.007
EXTRACT: note_off channel=6 note=65 velocity=65 time=0.073
EXTRACT: note_off channel=6 note=53 velocity=65 time=0
EXTRACT: note_off channel=11 note=62 velocity=65 time=0.006
EXTRACT: note_off channel=5 note=41 velocity=65 time=0.001
EXTRACT: note_off channel=2 note=53 velocity=64 time=0
EXTRACT: note_on channel=2 note=53 velocity=124 time=0.009000000000000001
EXTRACT: note_on channel=5 note=41 velocity=113 time=0
EXTRACT: note_on channel=6 note=60 velocity=83 time=0
EXTRACT: note_on channel=8 note=60 velocity=102 time=0
EXTRACT: note_on channel=9 note=70 velocity=106 time=0
EXTRACT: note_on channel=11 note=74 velocity=77 time=0
EXTRACT: note_off channel=9 note=70 velocity=65 time=0.024
EXTRACT: note_on channel=6 note=48 velocity=83 time=0.006
EXTRACT: note_off channel=8 note=60 velocity=64 time=0.014
EXTRACT: note_off channel=10 note=67 velocity=65 time=0.029
EXTRACT: note_off channel=10 note=74 velocity=64 time=0.009000000000000001
EXTRACT: note_off channel=1 note=41 velocity=64 time=0.002
EXTRACT: note_off channel=14 note=72 velocity=64 time=0.019
EXTRACT: note_off channel=11 note=74 velocity=65 time=0.007
EXTRACT: note_off channel=5 note=41 velocity=65 time=0.001
EXTRACT: note_off channel=2 note=53 velocity=65 time=0
EXTRACT: note_on channel=9 note=39 velocity=118 time=0.001
EXTRACT: note_on channel=1 note=24 velocity=123 time=0.008
EXTRACT: note_on channel=2 note=36 velocity=125 time=0
EXTRACT: note_on channel=5 note=36 velocity=112 time=0
EXTRACT: note_on channel=8 note=60 velocity=89 time=0
EXTRACT: note_on channel=9 note=36 velocity=126 time=0
EXTRACT: note_on channel=9 note=38 velocity=117 time=0
EXTRACT: note_on channel=9 note=42 velocity=116 time=0
EXTRACT: note_on channel=9 note=70 velocity=107 time=0
EXTRACT: note_on channel=10 note=62 velocity=82 time=0
EXTRACT: note_on channel=10 note=69 velocity=83 time=0
EXTRACT: note_on channel=11 note=72 velocity=88 time=0
EXTRACT: note_on channel=14 note=67 velocity=58 time=0
EXTRACT: note_off channel=9 note=39 velocity=65 time=0.017
EXTRACT: note_off channel=8 note=60 velocity=65 time=0.006
EXTRACT: note_off channel=9 note=70 velocity=64 time=0.001
EXTRACT: note_off channel=9 note=42 velocity=64 time=0
EXTRACT: note_off channel=9 note=38 velocity=65 time=0
EXTRACT: note_off channel=9 note=36 velocity=64 time=0
EXTRACT: note_off channel=5 note=36 velocity=64 time=0.08700000000000001
EXTRACT: note_off channel=2 note=36 velocity=65 time=0
EXTRACT: note_off channel=11 note=72 velocity=64 time=0.003
EXTRACT: note_on channel=2 note=36 velocity=75 time=0.006
EXTRACT: note_on channel=5 note=36 velocity=62 time=0
EXTRACT: note_on channel=8 note=60 velocity=68 time=0
EXTRACT: note_on channel=11 note=66 velocity=76 time=0
EXTRACT: note_off channel=8 note=60 velocity=65 time=0.035
EXTRACT: note_off channel=1 note=24 velocity=64 time=0.049
EXTRACT: note_off channel=11 note=66 velocity=65 time=0.026000000000000002
EXTRACT: note_off channel=5 note=36 velocity=64 time=0.001
EXTRACT: note_off channel=2 note=36 velocity=64 time=0
EXTRACT: note_on channel=1 note=36 velocity=123 time=0.009000000000000001
EXTRACT: note_on channel=2 note=48 velocity=124 time=0
EXTRACT: note_on channel=5 note=36 velocity=113 time=0
EXTRACT: note_on channel=8 note=60 velocity=104 time=0
EXTRACT: note_on channel=9 note=42 velocity=117 time=0
EXTRACT: note_on channel=9 note=70 velocity=106 time=0
EXTRACT: note_on channel=11 note=60 velocity=77 time=0
EXTRACT: note_off channel=9 note=70 velocity=65 time=0.024
EXTRACT: note_off channel=9 note=42 velocity=65 time=0
EXTRACT: note_off channel=6 note=60 velocity=64 time=0
EXTRACT: note_off channel=8 note=60 velocity=64 time=0.002
EXTRACT: note_off channel=6 note=48 velocity=64 time=0.028
EXTRACT: note_off channel=14 note=67 velocity=64 time=0.054
EXTRACT: note_off channel=11 note=60 velocity=64 time=0.002
EXTRACT: note_off channel=5 note=36 velocity=65 time=0.001
EXTRACT: note_off channel=2 note=48 velocity=65 time=0
EXTRACT: note_on channel=2 note=48 velocity=124 time=0.009000000000000001
EXTRACT: note_on channel=5 note=36 velocity=112 time=0
EXTRACT: note_on channel=9 note=44 velocity=99 time=0
EXTRACT: note_on channel=9 note=70 velocity=107 time=0
EXTRACT: note_on channel=11 note=66 velocity=77 time=0
EXTRACT: note_off channel=9 note=70 velocity=64 time=0.024
EXTRACT: note_off channel=9 note=44 velocity=65 time=0
EXTRACT: note_off channel=1 note=36 velocity=65 time=0.06
EXTRACT: note_off channel=11 note=66 velocity=64 time=0.026000000000000002
EXTRACT: note_off channel=5 note=36 velocity=65 time=0.001
EXTRACT: note_off channel=2 note=48 velocity=64 time=0
EXTRACT: note_off channel=10 note=62 velocity=64 time=0
EXTRACT: note_on channel=1 note=26 velocity=122 time=0.009000000000000001
EXTRACT: note_on channel=2 note=38 velocity=125 time=0
EXTRACT: note_on channel=5 note=38 velocity=113 time=0
EXTRACT: note_on channel=8 note=62 velocity=127 time=0
EXTRACT: note_on channel=9 note=36 velocity=126 time=0
EXTRACT: note_on channel=9 note=42 velocity=116 time=0
EXTRACT: note_on channel=9 note=70 velocity=107 time=0
EXTRACT: control_change channel=11 control=10 value=0 time=0
EXTRACT: note_off channel=10 note=69 velocity=65 time=0.006
EXTRACT: note_off channel=9 note=70 velocity=64 time=0.018000000000000002
EXTRACT: note_off channel=9 note=42 velocity=64 time=0
EXTRACT: note_off channel=9 note=36 velocity=65 time=0
EXTRACT: note_off channel=8 note=62 velocity=64 time=0.02
EXTRACT: note_off channel=5 note=38 velocity=64 time=0.067
EXTRACT: note_off channel=2 note=38 velocity=64 time=0
EXTRACT: note_on channel=2 note=38 velocity=75 time=0.009000000000000001
EXTRACT: note_on channel=5 note=38 velocity=63 time=0
EXTRACT: note_on channel=11 note=69 velocity=68 time=0
EXTRACT: note_off channel=1 note=26 velocity=64 time=0.084
EXTRACT: note_off channel=11 note=69 velocity=65 time=0.026000000000000002
EXTRACT: note_off channel=5 note=38 velocity=64 time=0.001
EXTRACT: note_off channel=2 note=38 velocity=65 time=0
EXTRACT: note_on channel=1 note=38 velocity=122 time=0.009000000000000001
EXTRACT: note_on channel=2 note=50 velocity=124 time=0
EXTRACT: note_on channel=5 note=38 velocity=112 time=0
EXTRACT: note_on channel=6 note=50 velocity=106 time=0
EXTRACT: note_on channel=6 note=62 velocity=106 time=0
EXTRACT: note_on channel=8 note=62 velocity=111 time=0
EXTRACT: note_on channel=9 note=46 velocity=104 time=0
EXTRACT: note_on channel=9 note=70 velocity=106 time=0
EXTRACT: note_on channel=10 note=64 velocity=93 time=0
EXTRACT: note_on channel=10 note=71 velocity=86 time=0
EXTRACT: note_on channel=11 note=74 velocity=98 time=0
EXTRACT: note_on channel=14 note=69 velocity=77 time=0
EXTRACT: note_off channel=8 note=62 velocity=65 time=0.023
EXTRACT: note_off channel=9 note=70 velocity=65 time=0.001
EXTRACT: note_off channel=9 note=46 velocity=64 time=0
EXTRACT: note_off channel=10 note=64 velocity=65 time=0.057
EXTRACT: note_off channel=14 note=69 velocity=65 time=0.03
EXTRACT: note_off channel=5 note=38 velocity=65 time=0
EXTRACT: note_off channel=2 note=50 velocity=65 time=0
EXTRACT: note_off channel=11 note=74 velocity=65 time=0.004
EXTRACT: note_off channel=6 note=62 velocity=65 time=0.002
EXTRACT: note_off channel=6 note=50 velocity=64 time=0
EXTRACT: note_on channel=2 note=50 velocity=124 time=0.003
EXTRACT: note_on channel=5 note=38 velocity=113 time=0
EXTRACT: note_on channel=8 note=62 velocity=116 time=0
EXTRACT: note_on channel=9 note=70 velocity=107 time=0
EXTRACT: note_on channel=11 note=69 velocity=69 time=0
EXTRACT: note_off channel=10 note=71 velocity=64 time=0.022
EXTRACT: note_off channel=9 note=70 velocity=64 time=0.002
EXTRACT: note_off channel=8 note=62 velocity=65 time=0.028
EXTRACT: note_off channel=1 note=38 velocity=65 time=0.047
EXTRACT: note_off channel=11 note=69 velocity=64 time=0.011
EXTRACT: note_off channel=5 note=38 velocity=64 time=0.001
EXTRACT: note_off channel=2 note=50 velocity=64 time=0
EXTRACT: note_on channel=9 note=39 velocity=119 time=0.001
EXTRACT: note_on channel=1 note=26 velocity=123 time=0.008
EXTRACT: note_on channel=2 note=38 velocity=125 time=0
EXTRACT: note_on channel=5 note=38 velocity=112 time=0
EXTRACT: note_on channel=8 note=62 velocity=82 time=0
EXTRACT: note_on channel=9 note=36 velocity=127 time=0
EXTRACT: note_on channel=9 note=38 velocity=116 time=0
EXTRACT: note_on channel=9 note=42 velocity=117 time=0
EXTRACT: note_on channel=9 note=70 velocity=106 time=0
EXTRACT: note_on channel=11 note=62 velocity=68 time=0
EXTRACT: note_off channel=9 note=39 velocity=65 time=0.017
EXTRACT: note_off channel=9 note=70 velocity=65 time=0.007
EXTRACT: note_off channel=9 note=42 velocity=64 time=0
EXTRACT: note_off channel=9 note=38 velocity=64 time=0
EXTRACT: note_off channel=9 note=36 velocity=65 time=0
EXTRACT: note_off channel=8 note=62 velocity=64 time=0.001
EXTRACT: note_off channel=11 note=62 velocity=64 time=0.085
EXTRACT: note_off channel=5 note=38 velocity=65 time=0.001
EXTRACT: note_off channel=2 note=38 velocity=64 time=0
EXTRACT: note_on channel=2 note=38 velocity=74 time=0.009000000000000001
EXTRACT: note_on channel=5 note=38 velocity=62 time=0
EXTRACT: note_on channel=6 note=50 velocity=107 time=0
EXTRACT: note_on channel=6 note=62 velocity=107 time=0
EXTRACT: note_on channel=8 note=62 velocity=89 time=0
EXTRACT: note_on channel=10 note=64 velocity=94 time=0
EXTRACT: note_on channel=10 note=71 velocity=85 time=0
EXTRACT: note_on channel=11 note=74 velocity=99 time=0
EXTRACT: note_on channel=14 note=69 velocity=81 time=0
EXTRACT: note_off channel=8 note=62 velocity=64 time=0.054
EXTRACT: note_off channel=1 note=26 velocity=65 time=0.015
EXTRACT: note_off channel=10 note=64 velocity=64 time=0.012
EXTRACT: note_off channel=11 note=74 velocity=65 time=0.019
EXTRACT: note_off channel=14 note=69 velocity=65 time=0.006
EXTRACT: note_off channel=5 note=38 velocity=65 time=0.005
EXTRACT: note_off channel=2 note=38 velocity=65 time=0
EXTRACT: note_off channel=10 note=71 velocity=65 time=0.007
EXTRACT: note_on channel=1 note=38 velocity=122 time=0.002
EXTRACT: note_on channel=2 note=50 velocity=125 time=0
EXTRACT: note_on channel=5 note=38 velocity=113 time=0
EXTRACT: note_on channel=8 note=62 velocity=99 time=0
EXTRACT: note_on channel=9 note=42 velocity=115 time=0
EXTRACT: note_on channel=9 note=70 velocity=106 time=0
EXTRACT: note_on channel=11 note=69 velocity=69 time=0
EXTRACT: note_off channel=6 note=62 velocity=65 time=0.005
EXTRACT: note_off channel=6 note=50 velocity=65 time=0
EXTRACT: note_off channel=8 note=62 velocity=65 time=0.018000000000000002
EXTRACT: note_off channel=9 note=70 velocity=64 time=0.001
EXTRACT: note_off channel=9 note=42 velocity=65 time=0
EXTRACT: note_off channel=11 note=69 velocity=65 time=0.08600000000000001
EXTRACT: note_off channel=5 note=38 velocity=64 time=0.001
EXTRACT: note_off channel=2 note=50 velocity=65 time=0
EXTRACT: note_on channel=2 note=50 velocity=125 time=0.009000000000000001
EXTRACT: note_on channel=5 note=38 velocity=113 time=0
EXTRACT: note_on channel=8 note=65 velocity=46 time=0
EXTRACT: note_on channel=9 note=44 velocity=98 time=0
EXTRACT: note_on channel=9 note=70 velocity=107 time=0
EXTRACT: note_on channel=11 note=62 velocity=68 time=0
EXTRACT: note_off channel=8 note=65 velocity=64 time=0.016
EXTRACT: note_off channel=9 note=70 velocity=65 time=0.008
EXTRACT: note_off channel=9 note=44 velocity=64 time=0
EXTRACT: note_off channel=1 note=38 velocity=64 time=0.075
EXTRACT: note_off channel=11 note=62 velocity=64 time=0.011
EXTRACT: note_off channel=5 note=38 velocity=65 time=0.001
EXTRACT: note_off channel=2 note=50 velocity=64 time=0
EXTRACT: note_on channel=1 note=29 velocity=123 time=0.009000000000000001
EXTRACT: note_on channel=2 note=41 velocity=124 time=0
EXTRACT: note_on channel=5 note=41 velocity=112 time=0
EXTRACT: note_on channel=6 note=53 velocity=106 time=0
EXTRACT: note_on channel=6 note=65 velocity=116 time=0
EXTRACT: note_on channel=8 note=65 velocity=112 time=0
EXTRACT: note_on channel=9 note=36 velocity=127 time=0
EXTRACT: note_on channel=9 note=42 velocity=118 time=0
EXTRACT: note_on channel=9 note=70 velocity=107 time=0
EXTRACT: note_on channel=10 note=67 velocity=94 time=0
EXTRACT: note_on channel=10 note=74 velocity=95 time=0
EXTRACT: note_on channel=11 note=77 velocity=105 time=0
EXTRACT: note_on channel=14 note=72 velocity=80 time=0
EXTRACT: note_off channel=9 note=70 velocity=65 time=0.024
EXTRACT: note_off channel=9 note=42 velocity=64 time=0
EXTRACT: note_off channel=9 note=36 velocity=64 time=0
EXTRACT: note_off channel=8 note=65 velocity=65 time=0.012
EXTRACT: note_off channel=10 note=67 velocity=64 time=0.036000000000000004
EXTRACT: note_off channel=6 note=65 velocity=64 time=0.024
EXTRACT: note_off channel=6 note=53 velocity=65 time=0
EXTRACT: note_off channel=11 note=77 velocity=64 time=0.013000000000000001
EXTRACT: note_off channel=10 note=74 velocity=65 time=0
EXTRACT: note_off channel=5 note=41 velocity=64 time=0.002
EXTRACT: note_off channel=2 note=41 velocity=64 time=0
EXTRACT: note_on channel=2 note=41 velocity=75 time=0.009000000000000001
EXTRACT: note_on channel=5 note=41 velocity=62 time=0
EXTRACT: note_on channel=8 note=65 velocity=95 time=0
EXTRACT: note_on channel=11 note=69 velocity=68 time=0
EXTRACT: note_off channel=14 note=72 velocity=64 time=0.006
EXTRACT: note_off channel=8 note=65 velocity=65 time=0.028
EXTRACT: note_off channel=1 note=29 velocity=65 time=0.065
EXTRACT: note_off channel=11 note=69 velocity=65 time=0.011
EXTRACT: note_off channel=5 note=41 velocity=64 time=0.001
EXTRACT: note_off channel=2 note=41 velocity=65 time=0
EXTRACT: note_on channel=1 note=41 velocity=123 time=0.009000000000000001
EXTRACT: note_on channel=2 note=53 velocity=124 time=0
EXTRACT: note_on channel=5 note=41 velocity=113 time=0
EXTRACT: note_on channel=6 note=53 velocity=109 time=0
EXTRACT: note_on channel=6 note=65 velocity=116 time=0
EXTRACT: note_on channel=8 note=65 velocity=110 time=0
EXTRACT: note_on channel=9 note=46 velocity=107 time=0
EXTRACT: note_on channel=9 note=70 velocity=106 time=0
EXTRACT: note_on channel=10 note=67 velocity=95 time=0
EXTRACT: note_on channel=10 note=74 velocity=94 time=0
EXTRACT: note_on channel=11 note=77 velocity=104 time=0
EXTRACT: note_on channel=14 note=72 velocity=76 time=0
EXTRACT: note_off channel=9 note=70 velocity=65 time=0.024
EXTRACT: note_off channel=9 note=46 velocity=65 time=0
EXTRACT: note_off channel=8 note=65 velocity=64 time=0.006
EXTRACT: note_off channel=10 note=67 velocity=65 time=0.038
EXTRACT: note_off channel=6 note=65 velocity=64 time=0.038
EXTRACT: note_off channel=6 note=53 velocity=64 time=0
EXTRACT: note_off channel=5 note=41 velocity=65 time=0.005
EXTRACT: note_off channel=2 note=53 velocity=64 time=0
EXTRACT: note_off channel=10 note=74 velocity=64 time=0.006
EXTRACT: note_on channel=2 note=53 velocity=124 time=0.003
EXTRACT: note_on channel=5 note=41 velocity=113 time=0
EXTRACT: note_on channel=8 note=60 velocity=87 time=0
EXTRACT: note_on channel=9 note=70 velocity=106 time=0
EXTRACT: note_on channel=11 note=69 velocity=69 time=0
EXTRACT: note_off channel=14 note=72 velocity=64 time=0.006
EXTRACT: note_off channel=11 note=77 velocity=64 time=0.002
EXTRACT: note_off channel=8 note=60 velocity=65 time=0.005
EXTRACT: note_off channel=9 note=70 velocity=64 time=0.011
EXTRACT: note_off channel=1 note=41 velocity=64 time=0.06
EXTRACT: control_change channel=9 control=91 value=30 time=0.006
EXTRACT: note_off channel=11 note=69 velocity=65 time=0.02
EXTRACT: note_off channel=5 note=41 velocity=65 time=0.001
EXTRACT: note_off channel=2 note=53 velocity=65 time=0
EXTRACT: note_on channel=9 note=39 velocity=119 time=0.001
EXTRACT: note_on channel=1 note=24 velocity=122 time=0.008
EXTRACT: note_on channel=2 note=36 velocity=125 time=0
EXTRACT: note_on channel=5 note=36 velocity=112 time=0
EXTRACT: note_on channel=8 note=60 velocity=53 time=0
EXTRACT: note_on channel=9 note=36 velocity=126 time=0
EXTRACT: note_on channel=9 note=38 velocity=116 time=0
EXTRACT: note_on channel=9 note=42 velocity=123 time=0
EXTRACT: note_on channel=9 note=70 velocity=107 time=0
EXTRACT: note_on channel=11 note=62 velocity=69 time=0
EXTRACT: note_off channel=8 note=60 velocity=64 time=0.013000000000000001
EXTRACT: note_off channel=9 note=39 velocity=64 time=0.004
EXTRACT: note_off channel=9 note=70 velocity=65 time=0.007
EXTRACT: note_off channel=9 note=42 velocity=65 time=0
EXTRACT: note_off channel=9 note=38 velocity=64 time=0
EXTRACT: note_off channel=9 note=36 velocity=64 time=0
EXTRACT: note_on channel=6 note=60 velocity=113 time=0.08600000000000001
EXTRACT: note_off channel=11 note=62 velocity=65 time=0
EXTRACT: note_off channel=5 note=36 velocity=64 time=0.001
EXTRACT: note_off channel=2 note=36 velocity=65 time=0
EXTRACT: note_on channel=2 note=36 velocity=75 time=0.009000000000000001
EXTRACT: note_on channel=5 note=36 velocity=62 time=0
EXTRACT: note_on channel=8 note=60 velocity=68 time=0
EXTRACT: note_on channel=10 note=62 velocity=97 time=0
EXTRACT: note_on channel=10 note=69 velocity=100 time=0
EXTRACT: note_on channel=11 note=72 velocity=104 time=0
EXTRACT: note_on channel=14 note=67 velocity=77 time=0
EXTRACT: note_on channel=6 note=48 velocity=103 time=0.02
EXTRACT: note_off channel=8 note=60 velocity=64 time=0.01
EXTRACT: note_on channel=12 note=76 velocity=126 time=0.034
EXTRACT: note_on channel=12 note=84 velocity=127 time=0.01
EXTRACT: note_off channel=1 note=24 velocity=64 time=0.01
EXTRACT: note_off channel=5 note=36 velocity=64 time=0.027
EXTRACT: note_off channel=2 note=36 velocity=64 time=0
EXTRACT: note_on channel=1 note=36 velocity=123 time=0.009000000000000001
EXTRACT: note_on channel=2 note=48 velocity=124 time=0
EXTRACT: note_on channel=5 note=36 velocity=113 time=0
EXTRACT: note_on channel=8 note=60 velocity=95 time=0
EXTRACT: note_on channel=9 note=42 velocity=122 time=0
EXTRACT: note_on channel=9 note=55 velocity=114 time=0
EXTRACT: note_on channel=9 note=70 velocity=107 time=0
EXTRACT: note_off channel=11 note=72 velocity=64 time=0.009000000000000001
EXTRACT: note_off channel=14 note=67 velocity=65 time=0.004
EXTRACT: note_off channel=8 note=60 velocity=65 time=0.01
EXTRACT: note_off channel=9 note=70 velocity=65 time=0.001
EXTRACT: note_off channel=9 note=55 velocity=64 time=0
EXTRACT: note_off channel=9 note=42 velocity=65 time=0
EXTRACT: note_off channel=6 note=60 velocity=65 time=0.014
EXTRACT: note_off channel=6 note=48 velocity=65 time=0.03
EXTRACT: note_off channel=5 note=36 velocity=65 time=0.043000000000000003
EXTRACT: note_off channel=2 note=48 velocity=65 time=0
EXTRACT: note_on channel=2 note=48 velocity=124 time=0.009000000000000001
EXTRACT: note_on channel=5 note=36 velocity=112 time=0
EXTRACT: note_on channel=9 note=44 velocity=98 time=0
EXTRACT: note_on channel=9 note=70 velocity=106 time=0
EXTRACT: note_on channel=11 note=67 velocity=78 time=0
EXTRACT: note_off channel=9 note=70 velocity=65 time=0.024
EXTRACT: note_off channel=9 note=44 velocity=64 time=0
EXTRACT: control_change channel=11 control=10 value=127 time=0.056
EXTRACT: note_off channel=1 note=36 velocity=65 time=0.004
EXTRACT: note_off channel=12 note=76 velocity=64 time=0.009000000000000001
EXTRACT: note_off channel=10 note=62 velocity=65 time=0.003
EXTRACT: note_off channel=12 note=84 velocity=65 time=0.007
EXTRACT: note_off channel=10 note=69 velocity=64 time=0.009000000000000001
EXTRACT: note_off channel=5 note=36 velocity=65 time=0.002
EXTRACT: note_off channel=2 note=48 velocity=64 time=0
EXTRACT: note_on channel=1 note=26 velocity=122 time=0.006
EXTRACT: note_on channel=2 note=38 velocity=125 time=0
EXTRACT: note_on channel=5 note=38 velocity=113 time=0
EXTRACT: note_on channel=8 note=62 velocity=116 time=0
EXTRACT: note_on channel=9 note=36 velocity=126 time=0
EXTRACT: note_on channel=9 note=42 velocity=126 time=0
EXTRACT: note_on channel=9 note=70 velocity=106 time=0
EXTRACT: note_off channel=11 note=67 velocity=65 time=0.009000000000000001
EXTRACT: note_off channel=9 note=70 velocity=65 time=0.015
EXTRACT: note_off channel=9 note=42 velocity=64 time=0
EXTRACT: note_off channel=9 note=36 velocity=64 time=0
EXTRACT: note_off channel=8 note=62 velocity=65 time=0.039
EXTRACT: note_off channel=5 note=38 velocity=64 time=0.048
EXTRACT: note_off channel=2 note=38 velocity=64 time=0
EXTRACT: note_on channel=2 note=38 velocity=75 time=0.009000000000000001
EXTRACT: note_on channel=5 note=38 velocity=63 time=0
EXTRACT: note_on channel=11 note=69 velocity=77 time=0
EXTRACT: note_off channel=1 note=26 velocity=65 time=0.084
EXTRACT: note_off channel=11 note=69 velocity=64 time=0.026000000000000002
EXTRACT: note_off channel=5 note=38 velocity=64 time=0.001
EXTRACT: note_off channel=2 note=38 velocity=65 time=0
EXTRACT: note_on channel=6 note=74 velocity=90 time=0.004
EXTRACT: note_on channel=1 note=38 velocity=122 time=0.005
EXTRACT: note_on channel=2 note=50 velocity=124 time=0
EXTRACT: note_on channel=5 note=38 velocity=112 time=0
EXTRACT: note_on channel=6 note=62 velocity=123 time=0
EXTRACT: note_on channel=8 note=62 velocity=102 time=0
EXTRACT: note_on channel=9 note=46 velocity=113 time=0
EXTRACT: note_on channel=9 note=70 velocity=107 time=0
EXTRACT: note_on channel=10 note=66 velocity=100 time=0
EXTRACT: note_on channel=10 note=73 velocity=97 time=0
EXTRACT: note_on channel=11 note=74 velocity=103 time=0
EXTRACT: note_on channel=14 note=69 velocity=82 time=0
EXTRACT: note_off channel=9 note=70 velocity=65 time=0.024
EXTRACT: note_off channel=9 note=46 velocity=65 time=0
EXTRACT: note_off channel=8 note=62 velocity=64 time=0.02
EXTRACT: note_off channel=10 note=66 velocity=64 time=0.039
EXTRACT: note_off channel=6 note=74 velocity=64 time=0.013000000000000001
EXTRACT: note_off channel=10 note=73 velocity=65 time=0.001
EXTRACT: note_off channel=14 note=69 velocity=65 time=0.005
EXTRACT: note_off channel=6 note=62 velocity=64 time=0.006
EXTRACT: note_off channel=11 note=74 velocity=64 time=0.002
EXTRACT: note_off channel=5 note=38 velocity=65 time=0.001
EXTRACT: note_off channel=2 note=50 velocity=65 time=0
EXTRACT: note_on channel=2 note=50 velocity=124 time=0.009000000000000001
EXTRACT: note_on channel=5 note=38 velocity=113 time=0
EXTRACT: note_on channel=8 note=62 velocity=111 time=0
EXTRACT: note_on channel=9 note=70 velocity=106 time=0
EXTRACT: note_on channel=11 note=69 velocity=76 time=0
EXTRACT: note_off channel=9 note=70 velocity=64 time=0.024
EXTRACT: note_off channel=8 note=62 velocity=64 time=0.035
EXTRACT: note_off channel=1 note=38 velocity=64 time=0.04
EXTRACT: note_off channel=11 note=69 velocity=65 time=0.011
EXTRACT: note_off channel=5 note=38 velocity=64 time=0.001
EXTRACT: note_off channel=2 note=50 velocity=64 time=0
EXTRACT: note_on channel=9 note=39 velocity=118 time=0.001
EXTRACT: note_on channel=1 note=26 velocity=123 time=0.008
EXTRACT: note_on channel=2 note=38 velocity=125 time=0
EXTRACT: note_on channel=5 note=38 velocity=112 time=0
EXTRACT: note_on channel=8 note=62 velocity=63 time=0
EXTRACT: note_on channel=9 note=36 velocity=127 time=0
EXTRACT: note_on channel=9 note=38 velocity=117 time=0
EXTRACT: note_on channel=9 note=42 velocity=119 time=0
EXTRACT: note_on channel=9 note=70 velocity=107 time=0
EXTRACT: note_on channel=11 note=62 velocity=68 time=0
EXTRACT: note_off channel=8 note=62 velocity=65 time=0.017
EXTRACT: note_off channel=9 note=39 velocity=64 time=0
EXTRACT: note_off channel=9 note=70 velocity=65 time=0.007
EXTRACT: note_off channel=9 note=42 velocity=65 time=0
EXTRACT: note_off channel=9 note=38 velocity=64 time=0
EXTRACT: note_off channel=9 note=36 velocity=64 time=0
EXTRACT: note_off channel=11 note=62 velocity=65 time=0.08600000000000001
EXTRACT: note_off channel=5 note=38 velocity=65 time=0.001
EXTRACT: note_off channel=2 note=38 velocity=64 time=0
EXTRACT: note_on channel=6 note=74 velocity=90 time=0.004
EXTRACT: note_on channel=2 note=38 velocity=74 time=0.005
EXTRACT: note_on channel=5 note=38 velocity=62 time=0
EXTRACT: note_on channel=6 note=62 velocity=122 time=0
EXTRACT: note_on channel=8 note=62 velocity=84 time=0
EXTRACT: note_on channel=10 note=66 velocity=101 time=0
EXTRACT: note_on channel=10 note=73 velocity=94 time=0
EXTRACT: note_on channel=11 note=74 velocity=103 time=0
EXTRACT: note_on channel=14 note=69 velocity=81 time=0
EXTRACT: note_off channel=8 note=62 velocity=65 time=0.051000000000000004
EXTRACT: note_off channel=1 note=26 velocity=64 time=0.018000000000000002
EXTRACT: note_off channel=10 note=73 velocity=65 time=0.007
EXTRACT: note_off channel=10 note=66 velocity=64 time=0.01
EXTRACT: note_off channel=6 note=62 velocity=65 time=0.025
EXTRACT: note_off channel=5 note=38 velocity=65 time=0
EXTRACT: note_off channel=2 note=38 velocity=65 time=0
EXTRACT: note_off channel=14 note=69 velocity=64 time=0.001
EXTRACT: note_off channel=11 note=74 velocity=64 time=0.001
EXTRACT: note_off channel=6 note=74 velocity=65 time=0.004
EXTRACT: note_on channel=1 note=38 velocity=123 time=0.003
EXTRACT: note_on channel=2 note=50 velocity=125 time=0
EXTRACT: note_on channel=5 note=38 velocity=113 time=0
EXTRACT: note_on channel=8 note=62 velocity=104 time=0
EXTRACT: note_on channel=9 note=42 velocity=117 time=0
EXTRACT: note_on channel=9 note=70 velocity=107 time=0
EXTRACT: note_on channel=11 note=69 velocity=76 time=0
EXTRACT: note_off channel=9 note=70 velocity=65 time=0.024
EXTRACT: note_off channel=9 note=42 velocity=64 time=0
EXTRACT: note_off channel=8 note=62 velocity=64 time=0.02
EXTRACT: note_off channel=11 note=69 velocity=64 time=0.066
EXTRACT: note_off channel=5 note=38 velocity=64 time=0.001
EXTRACT: note_off channel=2 note=50 velocity=65 time=0
EXTRACT: note_on channel=2 note=50 velocity=125 time=0.009000000000000001
EXTRACT: note_on channel=5 note=38 velocity=113 time=0
EXTRACT: note_on channel=8 note=62 velocity=67 time=0
EXTRACT: note_on channel=9 note=44 velocity=99 time=0
EXTRACT: note_on channel=9 note=70 velocity=106 time=0
EXTRACT: note_on channel=11 note=62 velocity=77 time=0
EXTRACT: note_off channel=9 note=70 velocity=65 time=0.024
EXTRACT: note_off channel=9 note=44 velocity=65 time=0
EXTRACT: note_off channel=8 note=62 velocity=64 time=0.013000000000000001
EXTRACT: note_off channel=1 note=38 velocity=65 time=0.062
EXTRACT: note_off channel=11 note=62 velocity=65 time=0.011
EXTRACT: note_off channel=5 note=38 velocity=65 time=0.001
EXTRACT: note_off channel=2 note=50 velocity=64 time=0
EXTRACT: note_on channel=6 note=77 velocity=97 time=0.004
EXTRACT: note_on channel=1 note=29 velocity=122 time=0.005
EXTRACT: note_on channel=2 note=41 velocity=124 time=0
EXTRACT: note_on channel=5 note=41 velocity=112 time=0
EXTRACT: note_on channel=6 note=65 velocity=123 time=0
EXTRACT: note_on channel=8 note=65 velocity=113 time=0
EXTRACT: note_on channel=9 note=36 velocity=127 time=0
EXTRACT: note_on channel=9 note=42 velocity=124 time=0
EXTRACT: note_on channel=9 note=70 velocity=107 time=0
EXTRACT: note_on channel=10 note=69 velocity=84 time=0
EXTRACT: note_on channel=10 note=76 velocity=101 time=0
EXTRACT: note_on channel=11 note=77 velocity=105 time=0
EXTRACT: note_on channel=14 note=72 velocity=81 time=0
EXTRACT: note_off channel=9 note=70 velocity=64 time=0.024
EXTRACT: note_off channel=9 note=42 velocity=65 time=0
EXTRACT: note_off channel=9 note=36 velocity=64 time=0
EXTRACT: note_off channel=8 note=65 velocity=65 time=0.032
EXTRACT: note_off channel=5 note=41 velocity=64 time=0.055
EXTRACT: note_off channel=2 note=41 velocity=64 time=0
EXTRACT: note_off channel=11 note=77 velocity=65 time=0.003
EXTRACT: note_on channel=2 note=41 velocity=75 time=0.006
EXTRACT: note_on channel=5 note=41 velocity=62 time=0
EXTRACT: note_on channel=8 note=65 velocity=58 time=0
EXTRACT: note_on channel=11 note=69 velocity=76 time=0
EXTRACT: note_off channel=8 note=65 velocity=64 time=0.043000000000000003
EXTRACT: note_off channel=1 note=29 velocity=65 time=0.056
EXTRACT: note_off channel=11 note=69 velocity=64 time=0.011
EXTRACT: note_off channel=5 note=41 velocity=64 time=0.001
EXTRACT: note_off channel=2 note=41 velocity=65 time=0
EXTRACT: note_on channel=1 note=41 velocity=122 time=0.009000000000000001
EXTRACT: note_on channel=2 note=53 velocity=124 time=0
EXTRACT: note_on channel=5 note=41 velocity=113 time=0
EXTRACT: note_on channel=8 note=65 velocity=98 time=0
EXTRACT: note_on channel=9 note=46 velocity=110 time=0
EXTRACT: note_on channel=9 note=70 velocity=106 time=0
EXTRACT: note_on channel=11 note=62 velocity=77 time=0
EXTRACT: note_off channel=9 note=70 velocity=64 time=0.024
EXTRACT: note_off channel=9 note=46 velocity=65 time=0
EXTRACT: note_off channel=8 note=65 velocity=65 time=0.028
EXTRACT: note_off channel=11 note=62 velocity=64 time=0.058
EXTRACT: note_off channel=5 note=41 velocity=65 time=0.001
EXTRACT: note_off channel=2 note=53 velocity=64 time=0
EXTRACT: note_on channel=2 note=53 velocity=124 time=0.009000000000000001
EXTRACT: note_on channel=5 note=41 velocity=113 time=0
EXTRACT: note_on channel=8 note=60 velocity=99 time=0
EXTRACT: note_on channel=9 note=70 velocity=106 time=0
EXTRACT: note_on channel=11 note=74 velocity=76 time=0
EXTRACT: note_off channel=9 note=70 velocity=65 time=0.024
EXTRACT: note_off channel=8 note=60 velocity=65 time=0.033
EXTRACT: note_off channel=10 note=69 velocity=64 time=0.016
EXTRACT: note_off channel=10 note=76 velocity=65 time=0.006
EXTRACT: note_off channel=1 note=41 velocity=64 time=0.005
EXTRACT: note_off channel=6 note=77 velocity=64 time=0.004
EXTRACT: note_off channel=11 note=74 velocity=65 time=0.022
EXTRACT: note_off channel=6 note=65 velocity=64 time=0
EXTRACT: note_off channel=5 note=41 velocity=65 time=0.001
EXTRACT: note_off channel=2 note=53 velocity=65 time=0
EXTRACT: note_on channel=9 note=39 velocity=119 time=0.001
EXTRACT: note_off channel=14 note=72 velocity=64 time=0.002
EXTRACT: note_on channel=6 note=72 velocity=84 time=0.001
EXTRACT: note_on channel=1 note=24 velocity=123 time=0.005
EXTRACT: note_on channel=2 note=36 velocity=125 time=0
EXTRACT: note_on channel=5 note=36 velocity=112 time=0
EXTRACT: note_on channel=6 note=60 velocity=116 time=0
EXTRACT: note_on channel=9 note=36 velocity=126 time=0
EXTRACT: note_on channel=9 note=38 velocity=117 time=0
EXTRACT: note_on channel=9 note=42 velocity=98 time=0
EXTRACT: note_on channel=9 note=70 velocity=107 time=0
EXTRACT: note_on channel=10 note=64 velocity=87 time=0
EXTRACT: note_on channel=10 note=71 velocity=102 time=0
EXTRACT: note_on channel=11 note=72 velocity=88 time=0
EXTRACT: note_on channel=14 note=67 velocity=72 time=0
EXTRACT: note_off channel=9 note=39 velocity=64 time=0.017
EXTRACT: note_off channel=9 note=70 velocity=64 time=0.007
EXTRACT: note_off channel=9 note=42 velocity=65 time=0
EXTRACT: note_off channel=9 note=38 velocity=65 time=0
EXTRACT: note_off channel=9 note=36 velocity=64 time=0
EXTRACT: note_off channel=5 note=36 velocity=64 time=0.08700000000000001
EXTRACT: note_off channel=2 note=36 velocity=65 time=0
EXTRACT: note_off channel=11 note=72 velocity=64 time=0.003
EXTRACT: note_on channel=2 note=36 velocity=75 time=0.006
EXTRACT: note_on channel=5 note=36 velocity=62 time=0
EXTRACT: note_on channel=8 note=60 velocity=102 time=0
EXTRACT: note_on channel=11 note=66 velocity=77 time=0
EXTRACT: note_off channel=8 note=60 velocity=64 time=0.057
EXTRACT: note_off channel=1 note=24 velocity=64 time=0.027
EXTRACT: note_off channel=11 note=66 velocity=65 time=0.026000000000000002
EXTRACT: note_off channel=5 note=36 velocity=64 time=0.001
EXTRACT: note_off channel=2 note=36 velocity=64 time=0
EXTRACT: note_on channel=1 note=36 velocity=123 time=0.009000000000000001
EXTRACT: note_on channel=2 note=48 velocity=124 time=0
EXTRACT: note_on channel=5 note=36 velocity=113 time=0
EXTRACT: note_on channel=8 note=60 velocity=105 time=0
EXTRACT: note_on channel=9 note=42 velocity=115 time=0
EXTRACT: note_on channel=9 note=70 velocity=107 time=0
EXTRACT: note_on channel=11 note=60 velocity=77 time=0
EXTRACT: note_off channel=9 note=70 velocity=64 time=0.024
EXTRACT: note_off channel=9 note=42 velocity=65 time=0
EXTRACT: note_off channel=8 note=60 velocity=65 time=0.019
EXTRACT: note_off channel=11 note=60 velocity=65 time=0.067
EXTRACT: note_off channel=5 note=36 velocity=65 time=0.001
EXTRACT: note_off channel=2 note=48 velocity=65 time=0
EXTRACT: note_on channel=2 note=48 velocity=124 time=0.009000000000000001
EXTRACT: note_on channel=5 note=36 velocity=112 time=0
EXTRACT: note_on channel=9 note=44 velocity=99 time=0
EXTRACT: note_on channel=9 note=70 velocity=106 time=0
EXTRACT: note_on channel=11 note=66 velocity=76 time=0
EXTRACT: note_off channel=14 note=67 velocity=65 time=0
EXTRACT: note_off channel=9 note=70 velocity=64 time=0.024
EXTRACT: note_off channel=9 note=44 velocity=65 time=0
EXTRACT: control_change channel=11 control=10 value=0 time=0.016
EXTRACT: note_off channel=6 note=60 velocity=65 time=0.036000000000000004
EXTRACT: note_off channel=1 note=36 velocity=65 time=0.008
EXTRACT: note_off channel=11 note=66 velocity=64 time=0.026000000000000002
EXTRACT: note_off channel=5 note=36 velocity=65 time=0.001
EXTRACT: note_off channel=2 note=48 velocity=64 time=0
EXTRACT: note_off channel=10 note=64 velocity=65 time=0
EXTRACT: note_off channel=10 note=71 velocity=64 time=0.005
EXTRACT: note_on channel=1 note=26 velocity=122 time=0.004
EXTRACT: note_on channel=2 note=38 velocity=125 time=0
EXTRACT: note_on channel=5 note=38 velocity=113 time=0
EXTRACT: note_on channel=8 note=62 velocity=113 time=0
EXTRACT: note_on channel=9 note=36 velocity=126 time=0
EXTRACT: note_on channel=9 note=42 velocity=123 time=0
EXTRACT: note_on channel=9 note=70 velocity=106 time=0
EXTRACT: note_off channel=6 note=72 velocity=64 time=0.004
EXTRACT: note_off channel=9 note=70 velocity=65 time=0.02
EXTRACT: note_off channel=9 note=42 velocity=64 time=0
EXTRACT: note_off channel=9 note=36 velocity=65 time=0
EXTRACT: note_off channel=8 note=62 velocity=64 time=0.023
EXTRACT: note_off channel=5 note=38 velocity=64 time=0.064
EXTRACT: note_off channel=2 note=38 velocity=64 time=0
EXTRACT: note_on channel=2 note=38 velocity=75 time=0.009000000000000001
EXTRACT: note_on channel=5 note=38 velocity=63 time=0
EXTRACT: note_on channel=11 note=69 velocity=68 time=0
EXTRACT: note_off channel=1 note=26 velocity=64 time=0.084
EXTRACT: note_off channel=11 note=69 velocity=65 time=0.026000000000000002
EXTRACT: note_off channel=5 note=38 velocity=64 time=0.001
EXTRACT: note_off channel=2 note=38 velocity=65 time=0
EXTRACT: note_on channel=6 note=74 velocity=117 time=0.004
EXTRACT: note_on channel=1 note=38 velocity=122 time=0.005
EXTRACT: note_on channel=2 note=50 velocity=124 time=0
EXTRACT: note_on channel=5 note=38 velocity=112 time=0
EXTRACT: note_on channel=6 note=62 velocity=127 time=0
EXTRACT: note_on channel=8 note=62 velocity=106 time=0
EXTRACT: note_on channel=9 note=46 velocity=105 time=0
EXTRACT: note_on channel=9 note=70 velocity=107 time=0
EXTRACT: note_on channel=10 note=66 velocity=98 time=0
EXTRACT: note_on channel=10 note=73 velocity=97 time=0
EXTRACT: note_on channel=11 note=74 velocity=99 time=0
EXTRACT: note_on channel=14 note=69 velocity=83 time=0
EXTRACT: note_off channel=9 note=70 velocity=64 time=0.024
EXTRACT: note_off channel=9 note=46 velocity=64 time=0
EXTRACT: note_off channel=8 note=62 velocity=64 time=0.004
EXTRACT: note_off channel=10 note=66 velocity=64 time=0.053
EXTRACT: note_off channel=10 note=73 velocity=65 time=0.024
EXTRACT: note_off channel=6 note=74 velocity=65 time=0.001
EXTRACT: note_off channel=14 note=69 velocity=64 time=0.001
EXTRACT: note_off channel=5 note=38 velocity=65 time=0.004
EXTRACT: note_off channel=2 note=50 velocity=65 time=0
EXTRACT: note_off channel=11 note=74 velocity=64 time=0.004
EXTRACT: note_on channel=2 note=50 velocity=124 time=0.005
EXTRACT: note_on channel=5 note=38 velocity=113 time=0
EXTRACT: note_on channel=8 note=62 velocity=123 time=0
EXTRACT: note_on channel=9 note=70 velocity=107 time=0
EXTRACT: note_on channel=11 note=69 velocity=69 time=0
EXTRACT: note_off channel=6 note=62 velocity=65 time=0.012
EXTRACT: note_off channel=9 note=70 velocity=65 time=0.012
EXTRACT: note_off channel=8 note=62 velocity=65 time=0.031
EXTRACT: note_off channel=1 note=38 velocity=65 time=0.044
EXTRACT: note_off channel=11 note=69 velocity=64 time=0.011
EXTRACT: note_off channel=5 note=38 velocity=64 time=0.001
EXTRACT: note_off channel=2 note=50 velocity=64 time=0
EXTRACT: note_on channel=9 note=39 velocity=118 time=0.001
EXTRACT: note_on channel=1 note=26 velocity=123 time=0.008
EXTRACT: note_on channel=2 note=38 velocity=125 time=0
EXTRACT: note_on channel=5 note=38 velocity=112 time=0
EXTRACT: note_on channel=9 note=36 velocity=127 time=0
EXTRACT: note_on channel=9 note=38 velocity=116 time=0
EXTRACT: note_on channel=9 note=42 velocity=110 time=0
EXTRACT: note_on channel=9 note=70 velocity=106 time=0
EXTRACT: note_on channel=11 note=62 velocity=68 time=0
EXTRACT: note_off channel=9 note=39 velocity=65 time=0.017
EXTRACT: note_off channel=9 note=70 velocity=64 time=0.007
EXTRACT: note_off channel=9 note=42 velocity=64 time=0
EXTRACT: note_off channel=9 note=38 velocity=65 time=0
EXTRACT: note_off channel=9 note=36 velocity=65 time=0
EXTRACT: note_off channel=11 note=62 velocity=65 time=0.08600000000000001
EXTRACT: note_off channel=5 note=38 velocity=65 time=0.001
EXTRACT: note_off channel=2 note=38 velocity=64 time=0
EXTRACT: note_on channel=6 note=74 velocity=114 time=0.004
EXTRACT: note_on channel=2 note=38 velocity=74 time=0.005
EXTRACT: note_on channel=5 note=38 velocity=62 time=0
EXTRACT: note_on channel=6 note=62 velocity=126 time=0
EXTRACT: note_on channel=8 note=62 velocity=104 time=0
EXTRACT: note_on channel=10 note=66 velocity=100 time=0
EXTRACT: note_on channel=10 note=73 velocity=101 time=0
EXTRACT: note_on channel=11 note=74 velocity=98 time=0
EXTRACT: note_on channel=14 note=69 velocity=82 time=0
EXTRACT: note_off channel=8 note=62 velocity=65 time=0.052000000000000005
EXTRACT: note_off channel=1 note=26 velocity=65 time=0.017
EXTRACT: note_off channel=10 note=66 velocity=64 time=0.012
EXTRACT: note_off channel=11 note=74 velocity=65 time=0.019
EXTRACT: note_off channel=6 note=62 velocity=64 time=0.001
EXTRACT: note_off channel=14 note=69 velocity=65 time=0.008
EXTRACT: note_off channel=5 note=38 velocity=65 time=0.002
EXTRACT: note_off channel=2 note=38 velocity=65 time=0
EXTRACT: note_off channel=10 note=73 velocity=65 time=0.002
EXTRACT: note_off channel=6 note=74 velocity=65 time=0.001
EXTRACT: note_on channel=1 note=38 velocity=122 time=0.006
EXTRACT: note_on channel=2 note=50 velocity=125 time=0
EXTRACT: note_on channel=5 note=38 velocity=113 time=0
EXTRACT: note_on channel=8 note=62 velocity=80 time=0
EXTRACT: note_on channel=9 note=42 velocity=124 time=0
EXTRACT: note_on channel=9 note=70 velocity=106 time=0
EXTRACT: note_on channel=11 note=69 velocity=69 time=0
EXTRACT: note_off channel=9 note=70 velocity=64 time=0.024
EXTRACT: note_off channel=9 note=42 velocity=64 time=0
EXTRACT: note_off channel=8 note=62 velocity=64 time=0.003
EXTRACT: note_off channel=11 note=69 velocity=64 time=0.083
EXTRACT: note_off channel=5 note=38 velocity=64 time=0.001
EXTRACT: note_off channel=2 note=50 velocity=65 time=0
EXTRACT: note_on channel=2 note=50 velocity=125 time=0.009000000000000001
EXTRACT: note_on channel=5 note=38 velocity=113 time=0
EXTRACT: note_on channel=9 note=44 velocity=98 time=0
EXTRACT: note_on channel=9 note=70 velocity=107 time=0
EXTRACT: note_on channel=11 note=62 velocity=68 time=0
EXTRACT: note_off channel=9 note=70 velocity=65 time=0.024
EXTRACT: note_off channel=9 note=44 velocity=64 time=0
EXTRACT: note_off channel=1 note=38 velocity=64 time=0.075
EXTRACT: note_off channel=11 note=62 velocity=64 time=0.011
EXTRACT: note_off channel=5 note=38 velocity=65 time=0.001
EXTRACT: note_off channel=2 note=50 velocity=64 time=0
EXTRACT: note_on channel=6 note=77 velocity=127 time=0.004
EXTRACT: note_on channel=1 note=29 velocity=123 time=0.005
EXTRACT: note_on channel=2 note=41 velocity=124 time=0
EXTRACT: note_on channel=5 note=41 velocity=112 time=0
EXTRACT: note_on channel=6 note=65 velocity=126 time=0
EXTRACT: note_on channel=8 note=65 velocity=117 time=0
EXTRACT: note_on channel=9 note=36 velocity=126 time=0
EXTRACT: note_on channel=9 note=42 velocity=125 time=0
EXTRACT: note_on channel=9 note=70 velocity=106 time=0
EXTRACT: note_on channel=10 note=69 velocity=101 time=0
EXTRACT: note_on channel=10 note=76 velocity=100 time=0
EXTRACT: note_on channel=11 note=77 velocity=105 time=0
EXTRACT: note_on channel=14 note=72 velocity=84 time=0
EXTRACT: note_off channel=9 note=70 velocity=65 time=0.024
EXTRACT: note_off channel=9 note=42 velocity=65 time=0
EXTRACT: note_off channel=9 note=36 velocity=64 time=0
EXTRACT: note_off channel=8 note=65 velocity=64 time=0.019
EXTRACT: note_off channel=10 note=69 velocity=65 time=0.029
EXTRACT: note_off channel=6 note=65 velocity=64 time=0.024
EXTRACT: note_off channel=10 note=76 velocity=64 time=0.003
EXTRACT: note_off channel=6 note=77 velocity=64 time=0.004
EXTRACT: note_off channel=11 note=77 velocity=65 time=0.006
EXTRACT: note_off channel=14 note=72 velocity=65 time=0.002
EXTRACT: note_off channel=5 note=41 velocity=64 time=0
EXTRACT: note_off channel=2 note=41 velocity=64 time=0
EXTRACT: note_on channel=2 note=41 velocity=75 time=0.009000000000000001
EXTRACT: note_on channel=5 note=41 velocity=62 time=0
EXTRACT: note_on channel=8 note=65 velocity=77 time=0
EXTRACT: note_on channel=11 note=69 velocity=69 time=0
EXTRACT: note_off channel=8 note=65 velocity=65 time=0.034
EXTRACT: note_off channel=1 note=29 velocity=65 time=0.065
EXTRACT: note_off channel=11 note=69 velocity=65 time=0.011
EXTRACT: note_off channel=5 note=41 velocity=64 time=0.001
EXTRACT: note_off channel=2 note=41 velocity=65 time=0
EXTRACT: note_on channel=6 note=77 velocity=127 time=0.004
EXTRACT: note_on channel=1 note=41 velocity=123 time=0.005
EXTRACT: note_on channel=2 note=53 velocity=124 time=0
EXTRACT: note_on channel=5 note=41 velocity=113 time=0
EXTRACT: note_on channel=6 note=65 velocity=127 time=0
EXTRACT: note_on channel=8 note=65 velocity=112 time=0
EXTRACT: note_on channel=9 note=46 velocity=110 time=0
EXTRACT: note_on channel=9 note=70 velocity=107 time=0
EXTRACT: note_on channel=10 note=69 velocity=101 time=0
EXTRACT: note_on channel=10 note=76 velocity=100 time=0
EXTRACT: note_on channel=11 note=77 velocity=104 time=0
EXTRACT: note_on channel=14 note=72 velocity=75 time=0
EXTRACT: note_off channel=9 note=70 velocity=65 time=0.024
EXTRACT: note_off channel=9 note=46 velocity=64 time=0
EXTRACT: note_off channel=8 note=65 velocity=65 time=0.01
EXTRACT: note_off channel=6 note=65 velocity=65 time=0.061
EXTRACT: note_off channel=6 note=77 velocity=65 time=0
EXTRACT: note_off channel=5 note=41 velocity=65 time=0.016
EXTRACT: note_off channel=2 note=53 velocity=64 time=0
EXTRACT: note_off channel=10 note=69 velocity=65 time=0.003
EXTRACT: note_off channel=14 note=72 velocity=64 time=0.005
EXTRACT: note_on channel=2 note=53 velocity=124 time=0.001
EXTRACT: note_on channel=5 note=41 velocity=113 time=0
EXTRACT: note_on channel=8 note=60 velocity=112 time=0
EXTRACT: note_on channel=9 note=70 velocity=107 time=0
EXTRACT: note_on channel=11 note=69 velocity=69 time=0
EXTRACT: note_off channel=11 note=77 velocity=64 time=0.008
EXTRACT: note_off channel=9 note=70 velocity=64 time=0.016
EXTRACT: note_off channel=8 note=60 velocity=64 time=0.022
EXTRACT: note_off channel=10 note=76 velocity=64 time=0.008
EXTRACT: note_off channel=1 note=41 velocity=64 time=0.03
EXTRACT: note_off channel=11 note=69 velocity=64 time=0.026000000000000002
EXTRACT: note_off channel=5 note=41 velocity=65 time=0.001
EXTRACT: note_off channel=2 note=53 velocity=65 time=0
EXTRACT: note_on channel=9 note=39 velocity=118 time=0.001
EXTRACT: note_on channel=1 note=24 velocity=122 time=0.008
EXTRACT: note_on channel=2 note=36 velocity=125 time=0
EXTRACT: note_on channel=5 note=36 velocity=112 time=0
EXTRACT: note_on channel=8 note=60 velocity=91 time=0
EXTRACT: note_on channel=9 note=36 velocity=127 time=0
EXTRACT: note_on channel=9 note=38 velocity=116 time=0
EXTRACT: note_on channel=9 note=42 velocity=112 time=0
EXTRACT: note_on channel=9 note=70 velocity=106 time=0
EXTRACT: note_on channel=11 note=62 velocity=68 time=0
EXTRACT: note_off channel=9 note=39 velocity=65 time=0.017
EXTRACT: note_off channel=9 note=70 velocity=65 time=0.007
EXTRACT: note_off channel=9 note=42 velocity=64 time=0
EXTRACT: note_off channel=9 note=38 velocity=64 time=0
EXTRACT: note_off channel=9 note=36 velocity=65 time=0
EXTRACT: note_off channel=8 note=60 velocity=64 time=0.001
EXTRACT: note_on channel=6 note=60 velocity=124 time=0.08
EXTRACT: note_off channel=11 note=62 velocity=65 time=0.005
EXTRACT: note_off channel=5 note=36 velocity=64 time=0.001
EXTRACT: note_off channel=2 note=36 velocity=65 time=0
EXTRACT: note_on channel=6 note=72 velocity=121 time=0.004
EXTRACT: note_on channel=2 note=36 velocity=75 time=0.005
EXTRACT: note_on channel=5 note=36 velocity=62 time=0
EXTRACT: note_on channel=8 note=60 velocity=99 time=0
EXTRACT: note_on channel=10 note=64 velocity=102 time=0
EXTRACT: note_on channel=10 note=71 velocity=111 time=0
EXTRACT: note_on channel=11 note=72 velocity=104 time=0
EXTRACT: note_on channel=14 note=67 velocity=83 time=0
EXTRACT: note_off channel=8 note=60 velocity=65 time=0.041
EXTRACT: note_on channel=12 note=76 velocity=126 time=0.039
EXTRACT: note_off channel=1 note=24 velocity=64 time=0.004
EXTRACT: note_on channel=12 note=84 velocity=127 time=0.006
EXTRACT: note_off channel=5 note=36 velocity=64 time=0.021
EXTRACT: note_off channel=2 note=36 velocity=64 time=0
EXTRACT: note_on channel=1 note=36 velocity=123 time=0.009000000000000001
EXTRACT: note_on channel=2 note=48 velocity=124 time=0
EXTRACT: note_on channel=5 note=36 velocity=113 time=0
EXTRACT: note_on channel=8 note=60 velocity=110 time=0
EXTRACT: note_on channel=9 note=42 velocity=109 time=0
EXTRACT: note_on channel=9 note=70 velocity=107 time=0
EXTRACT: note_off channel=11 note=72 velocity=64 time=0.009000000000000001
EXTRACT: note_off channel=14 note=67 velocity=65 time=0.001
EXTRACT: note_off channel=8 note=60 velocity=64 time=0.013000000000000001
EXTRACT: note_off channel=9 note=70 velocity=65 time=0.001
EXTRACT: note_off channel=9 note=42 velocity=64 time=0
EXTRACT: note_off channel=6 note=72 velocity=64 time=0.07
EXTRACT: note_off channel=6 note=60 velocity=64 time=0.015
EXTRACT: note_off channel=5 note=36 velocity=65 time=0.002
EXTRACT: note_off channel=2 note=48 velocity=65 time=0
EXTRACT: note_on channel=2 note=48 velocity=124 time=0.009000000000000001
EXTRACT: note_on channel=5 note=36 velocity=112 time=0
EXTRACT: note_on channel=9 note=44 velocity=98 time=0
EXTRACT: note_on channel=9 note=70 velocity=106 time=0
EXTRACT: note_on channel=11 note=67 velocity=79 time=0
EXTRACT: note_off channel=9 note=70 velocity=64 time=0.024
EXTRACT: note_off channel=9 note=44 velocity=65 time=0
EXTRACT: note_off channel=10 note=71 velocity=64 time=0.049
EXTRACT: control_change channel=11 control=10 value=127 time=0.007
EXTRACT: note_off channel=1 note=36 velocity=65 time=0.004
EXTRACT: control_change channel=9 control=91 value=20 time=0.006
EXTRACT: note_off channel=10 note=64 velocity=65 time=0.006
EXTRACT: note_off channel=12 note=76 velocity=64 time=0.012
EXTRACT: note_off channel=5 note=36 velocity=65 time=0.006
EXTRACT: note_off channel=2 note=48 velocity=64 time=0
EXTRACT: note_off channel=12 note=84 velocity=65 time=0.004
EXTRACT: note_on channel=1 note=26 velocity=122 time=0.002
EXTRACT: note_on channel=2 note=38 velocity=125 time=0
EXTRACT: note_on channel=5 note=38 velocity=113 time=0
EXTRACT: note_on channel=8 note=62 velocity=112 time=0
EXTRACT: note_on channel=9 note=36 velocity=127 time=0
EXTRACT: note_on channel=9 note=42 velocity=125 time=0
EXTRACT: note_on channel=9 note=70 velocity=106 time=0
EXTRACT: note_off channel=11 note=67 velocity=65 time=0.009000000000000001
EXTRACT: note_off channel=9 note=70 velocity=64 time=0.015
EXTRACT: note_off channel=9 note=42 velocity=65 time=0
EXTRACT: note_off channel=9 note=36 velocity=65 time=0
EXTRACT: note_off channel=8 note=62 velocity=65 time=0.019
EXTRACT: note_off channel=5 note=38 velocity=64 time=0.068
EXTRACT: note_off channel=2 note=38 velocity=64 time=0
EXTRACT: note_on channel=2 note=38 velocity=75 time=0.009000000000000001
EXTRACT: note_on channel=5 note=38 velocity=63 time=0
EXTRACT: note_on channel=11 note=69 velocity=77 time=0
EXTRACT: note_off channel=1 note=26 velocity=65 time=0.084
EXTRACT: note_off channel=11 note=69 velocity=65 time=0.026000000000000002
EXTRACT: note_off channel=5 note=38 velocity=64 time=0.001
EXTRACT: note_off channel=2 note=38 velocity=65 time=0
EXTRACT: note_on channel=6 note=81 velocity=120 time=0.004
EXTRACT: note_on channel=1 note=38 velocity=122 time=0.005
EXTRACT: note_on channel=2 note=50 velocity=124 time=0
EXTRACT: note_on channel=5 note=38 velocity=112 time=0
EXTRACT: note_on channel=6 note=74 velocity=126 time=0
EXTRACT: note_on channel=8 note=62 velocity=111 time=0
EXTRACT: note_on channel=9 note=46 velocity=110 time=0
EXTRACT: note_on channel=9 note=70 velocity=107 time=0
EXTRACT: note_on channel=10 note=69 velocity=101 time=0
EXTRACT: note_on channel=10 note=74 velocity=100 time=0
EXTRACT: note_on channel=11 note=74 velocity=102 time=0
EXTRACT: note_on channel=14 note=69 velocity=84 time=0
EXTRACT: note_off channel=9 note=70 velocity=64 time=0.024
EXTRACT: note_off channel=9 note=46 velocity=65 time=0
EXTRACT: note_off channel=8 note=62 velocity=65 time=0.002
EXTRACT: note_off channel=10 note=74 velocity=65 time=0.057
EXTRACT: note_off channel=6 note=81 velocity=65 time=0.017
EXTRACT: note_off channel=11 note=74 velocity=64 time=0.01
EXTRACT: note_off channel=5 note=38 velocity=65 time=0.001
EXTRACT: note_off channel=2 note=50 velocity=65 time=0
EXTRACT: note_off channel=14 note=69 velocity=64 time=0.001
EXTRACT: note_off channel=6 note=74 velocity=65 time=0.005
EXTRACT: note_on channel=2 note=50 velocity=124 time=0.003
EXTRACT: note_on channel=5 note=38 velocity=113 time=0
EXTRACT: note_on channel=8 note=62 velocity=110 time=0
EXTRACT: note_on channel=9 note=70 velocity=107 time=0
EXTRACT: note_on channel=11 note=69 velocity=76 time=0
EXTRACT: note_off channel=9 note=70 velocity=64 time=0.024
EXTRACT: note_off channel=8 note=62 velocity=64 time=0.032
EXTRACT: note_off channel=1 note=38 velocity=64 time=0.043000000000000003
EXTRACT: note_off channel=11 note=69 velocity=65 time=0.011
EXTRACT: note_off channel=5 note=38 velocity=64 time=0.001
EXTRACT: note_off channel=2 note=50 velocity=64 time=0
EXTRACT: note_on channel=9 note=39 velocity=119 time=0.001
EXTRACT: note_off channel=10 note=69 velocity=64 time=0.002
EXTRACT: note_on channel=1 note=26 velocity=123 time=0.006
EXTRACT: note_on channel=2 note=38 velocity=125 time=0
EXTRACT: note_on channel=5 note=38 velocity=112 time=0
EXTRACT: note_on channel=9 note=36 velocity=126 time=0
EXTRACT: note_on channel=9 note=38 velocity=117 time=0
EXTRACT: note_on channel=9 note=42 velocity=122 time=0
EXTRACT: note_on channel=9 note=70 velocity=106 time=0
EXTRACT: note_on channel=11 note=62 velocity=69 time=0
EXTRACT: note_off channel=9 note=39 velocity=64 time=0.017
EXTRACT: note_off channel=9 note=70 velocity=65 time=0.007
EXTRACT: note_off channel=9 note=42 velocity=65 time=0
EXTRACT: note_off channel=9 note=38 velocity=64 time=0
EXTRACT: note_off channel=9 note=36 velocity=64 time=0
EXTRACT: note_off channel=11 note=62 velocity=64 time=0.08600000000000001
EXTRACT: note_off channel=5 note=38 velocity=65 time=0.001
EXTRACT: note_off channel=2 note=38 velocity=64 time=0
EXTRACT: note_on channel=2 note=38 velocity=74 time=0.009000000000000001
EXTRACT: note_on channel=5 note=38 velocity=62 time=0
EXTRACT: note_on channel=6 note=74 velocity=127 time=0
EXTRACT: note_on channel=8 note=62 velocity=103 time=0
EXTRACT: note_on channel=10 note=69 velocity=102 time=0
EXTRACT: note_on channel=10 note=74 velocity=105 time=0
EXTRACT: note_on channel=11 note=74 velocity=103 time=0
EXTRACT: note_on channel=14 note=69 velocity=82 time=0
EXTRACT: note_on channel=6 note=81 velocity=117 time=0.036000000000000004
EXTRACT: note_off channel=8 note=62 velocity=65 time=0.017
EXTRACT: note_off channel=1 note=26 velocity=64 time=0.016
EXTRACT: note_off channel=6 note=74 velocity=64 time=0.035
EXTRACT: note_off channel=5 note=38 velocity=65 time=0.007
EXTRACT: note_off channel=2 note=38 velocity=65 time=0
EXTRACT: note_off channel=11 note=74 velocity=64 time=0.002
EXTRACT: note_off channel=10 note=69 velocity=64 time=0.001
EXTRACT: note_on channel=1 note=38 velocity=123 time=0.006
EXTRACT: note_on channel=2 note=50 velocity=125 time=0
EXTRACT: note_on channel=5 note=38 velocity=113 time=0
EXTRACT: note_on channel=8 note=62 velocity=111 time=0
EXTRACT: note_on channel=9 note=42 velocity=117 time=0
EXTRACT: note_on channel=9 note=70 velocity=106 time=0
EXTRACT: note_on channel=11 note=69 velocity=76 time=0
EXTRACT: note_off channel=14 note=69 velocity=64 time=0.001
EXTRACT: note_off channel=6 note=81 velocity=64 time=0.015
EXTRACT: note_off channel=8 note=62 velocity=64 time=0.006
EXTRACT: note_off channel=9 note=70 velocity=65 time=0.002
EXTRACT: note_off channel=9 note=42 velocity=65 time=0
EXTRACT: note_off channel=10 note=74 velocity=65 time=0.01
EXTRACT: note_off channel=11 note=69 velocity=65 time=0.076
EXTRACT: note_off channel=5 note=38 velocity=64 time=0.001
EXTRACT: note_off channel=2 note=50 velocity=65 time=0
EXTRACT: note_on channel=2 note=50 velocity=125 time=0.009000000000000001
EXTRACT: note_on channel=5 note=38 velocity=113 time=0
EXTRACT: note_on channel=9 note=44 velocity=99 time=0
EXTRACT: note_on channel=9 note=70 velocity=107 time=0
EXTRACT: note_on channel=11 note=62 velocity=76 time=0
EXTRACT: note_off channel=9 note=70 velocity=64 time=0.024
EXTRACT: note_off channel=9 note=44 velocity=64 time=0
EXTRACT: note_on channel=6 note=84 velocity=126 time=0.067
EXTRACT: note_off channel=1 note=38 velocity=65 time=0.008
EXTRACT: note_on channel=6 note=77 velocity=126 time=0.006
EXTRACT: note_off channel=11 note=62 velocity=65 time=0.005
EXTRACT: note_off channel=5 note=38 velocity=65 time=0.001
EXTRACT: note_off channel=2 note=50 velocity=64 time=0
EXTRACT: note_on channel=1 note=29 velocity=122 time=0.009000000000000001
EXTRACT: note_on channel=2 note=41 velocity=124 time=0
EXTRACT: note_on channel=5 note=41 velocity=112 time=0
EXTRACT: note_on channel=8 note=65 velocity=104 time=0
EXTRACT: note_on channel=9 note=36 velocity=127 time=0
EXTRACT: note_on channel=9 note=42 velocity=124 time=0
EXTRACT: note_on channel=9 note=70 velocity=107 time=0
EXTRACT: note_on channel=10 note=77 velocity=103 time=0
EXTRACT: note_on channel=11 note=77 velocity=105 time=0
EXTRACT: note_on channel=14 note=72 velocity=83 time=0
EXTRACT: note_on channel=10 note=72 velocity=100 time=0.02
EXTRACT: note_off channel=9 note=70 velocity=65 time=0.004
EXTRACT: note_off channel=9 note=42 velocity=64 time=0
EXTRACT: note_off channel=9 note=36 velocity=65 time=0
EXTRACT: note_off channel=8 note=65 velocity=64 time=0.018000000000000002
EXTRACT: note_off channel=5 note=41 velocity=64 time=0.069
EXTRACT: note_off channel=2 note=41 velocity=64 time=0
EXTRACT: note_off channel=11 note=77 velocity=64 time=0.003
EXTRACT: note_on channel=2 note=41 velocity=75 time=0.006
EXTRACT: note_on channel=5 note=41 velocity=62 time=0
EXTRACT: note_on channel=8 note=65 velocity=95 time=0
EXTRACT: note_on channel=11 note=69 velocity=76 time=0
EXTRACT: note_off channel=8 note=65 velocity=65 time=0.043000000000000003
EXTRACT: note_off channel=1 note=29 velocity=65 time=0.056
EXTRACT: note_off channel=11 note=69 velocity=64 time=0.011
EXTRACT: note_off channel=5 note=41 velocity=64 time=0.001
EXTRACT: note_off channel=2 note=41 velocity=65 time=0
EXTRACT: note_on channel=1 note=41 velocity=122 time=0.009000000000000001
EXTRACT: note_on channel=2 note=53 velocity=124 time=0
EXTRACT: note_on channel=5 note=41 velocity=113 time=0
EXTRACT: note_on channel=8 note=65 velocity=110 time=0
EXTRACT: note_on channel=9 note=46 velocity=107 time=0
EXTRACT: note_on channel=9 note=70 velocity=106 time=0
EXTRACT: note_on channel=11 note=62 velocity=77 time=0
EXTRACT: note_off channel=9 note=70 velocity=65 time=0.024
EXTRACT: note_off channel=9 note=46 velocity=64 time=0
EXTRACT: note_off channel=8 note=65 velocity=65 time=0.007
EXTRACT: note_off channel=11 note=62 velocity=65 time=0.079
EXTRACT: note_off channel=5 note=41 velocity=65 time=0.001
EXTRACT: note_off channel=2 note=53 velocity=64 time=0
EXTRACT: note_on channel=2 note=53 velocity=124 time=0.009000000000000001
EXTRACT: note_on channel=5 note=41 velocity=113 time=0
EXTRACT: note_on channel=8 note=60 velocity=102 time=0
EXTRACT: note_on channel=9 note=70 velocity=106 time=0
EXTRACT: note_on channel=11 note=74 velocity=77 time=0
EXTRACT: note_off channel=9 note=70 velocity=65 time=0.024
EXTRACT: note_off channel=6 note=84 velocity=65 time=0.003
EXTRACT: note_off channel=8 note=60 velocity=64 time=0.017
EXTRACT: note_off channel=6 note=77 velocity=64 time=0.005
EXTRACT: note_off channel=10 note=77 velocity=65 time=0.024
EXTRACT: note_off channel=1 note=41 velocity=64 time=0.011
EXTRACT: note_off channel=10 note=72 velocity=64 time=0.009000000000000001
EXTRACT: note_off channel=14 note=72 velocity=65 time=0.003
EXTRACT: note_on channel=6 note=79 velocity=123 time=0.011
EXTRACT: note_off channel=11 note=74 velocity=65 time=0.003
EXTRACT: note_off channel=5 note=41 velocity=65 time=0.001
EXTRACT: note_off channel=2 note=53 velocity=65 time=0
EXTRACT: note_on channel=9 note=39 velocity=119 time=0.001
EXTRACT: note_on channel=1 note=24 velocity=123 time=0.008
EXTRACT: note_on channel=2 note=36 velocity=125 time=0
EXTRACT: note_on channel=5 note=36 velocity=112 time=0
EXTRACT: note_on channel=6 note=72 velocity=127 time=0
EXTRACT: note_on channel=8 note=60 velocity=89 time=0
EXTRACT: note_on channel=9 note=36 velocity=126 time=0
EXTRACT: note_on channel=9 note=38 velocity=116 time=0
EXTRACT: note_on channel=9 note=42 velocity=116 time=0
EXTRACT: note_on channel=9 note=70 velocity=107 time=0
EXTRACT: note_on channel=10 note=67 velocity=92 time=0
EXTRACT: note_on channel=10 note=72 velocity=103 time=0
EXTRACT: note_on channel=11 note=72 velocity=88 time=0
EXTRACT: note_on channel=14 note=67 velocity=73 time=0
EXTRACT: note_off channel=9 note=39 velocity=64 time=0.017
EXTRACT: note_off channel=8 note=60 velocity=64 time=0.006
EXTRACT: note_off channel=9 note=70 velocity=64 time=0.001
EXTRACT: note_off channel=9 note=42 velocity=65 time=0
EXTRACT: note_off channel=9 note=38 velocity=65 time=0
EXTRACT: note_off channel=9 note=36 velocity=64 time=0
EXTRACT: note_off channel=5 note=36 velocity=64 time=0.08700000000000001
EXTRACT: note_off channel=2 note=36 velocity=65 time=0
EXTRACT: note_off channel=11 note=72 velocity=64 time=0.003
EXTRACT: note_on channel=2 note=36 velocity=75 time=0.006
EXTRACT: note_on channel=5 note=36 velocity=62 time=0
EXTRACT: note_on channel=8 note=60 velocity=69 time=0
EXTRACT: note_on channel=11 note=66 velocity=77 time=0
EXTRACT: note_off channel=8 note=60 velocity=65 time=0.035
EXTRACT: note_off channel=1 note=24 velocity=64 time=0.049
EXTRACT: note_off channel=11 note=66 velocity=64 time=0.026000000000000002
EXTRACT: note_off channel=5 note=36 velocity=64 time=0.001
EXTRACT: note_off channel=2 note=36 velocity=64 time=0
EXTRACT: note_on channel=1 note=36 velocity=123 time=0.009000000000000001
EXTRACT: note_on channel=2 note=48 velocity=124 time=0
EXTRACT: note_on channel=5 note=36 velocity=113 time=0
EXTRACT: note_on channel=8 note=60 velocity=104 time=0
EXTRACT: note_on channel=9 note=42 velocity=117 time=0
EXTRACT: note_on channel=9 note=70 velocity=106 time=0
EXTRACT: note_on channel=11 note=60 velocity=76 time=0
EXTRACT: note_off channel=9 note=70 velocity=64 time=0.024
EXTRACT: note_off channel=9 note=42 velocity=65 time=0
EXTRACT: note_off channel=8 note=60 velocity=65 time=0.002
EXTRACT: note_off channel=11 note=60 velocity=65 time=0.084
EXTRACT: note_off channel=5 note=36 velocity=65 time=0.001
EXTRACT: note_off channel=2 note=48 velocity=65 time=0
EXTRACT: note_on channel=2 note=48 velocity=124 time=0.009000000000000001
EXTRACT: note_on channel=5 note=36 velocity=112 time=0
EXTRACT: note_on channel=9 note=70 velocity=107 time=0
EXTRACT: note_on channel=11 note=66 velocity=76 time=0
EXTRACT: note_off channel=14 note=67 velocity=65 time=0.011
EXTRACT: note_off channel=9 note=70 velocity=65 time=0.013000000000000001
EXTRACT: note_off channel=6 note=79 velocity=65 time=0.015
EXTRACT: control_change channel=11 control=10 value=0 time=0.001
EXTRACT: note_off channel=1 note=36 velocity=65 time=0.044
EXTRACT: note_off channel=11 note=66 velocity=64 time=0.026000000000000002
EXTRACT: note_off channel=5 note=36 velocity=65 time=0.001
EXTRACT: note_off channel=2 note=48 velocity=64 time=0
EXTRACT: note_off channel=10 note=72 velocity=64 time=0
EXTRACT: note_off channel=10 note=67 velocity=65 time=0
EXTRACT: note_off channel=6 note=72 velocity=65 time=0.003
EXTRACT: note_on channel=1 note=26 velocity=122 time=0.006
EXTRACT: note_on channel=2 note=38 velocity=125 time=0
EXTRACT: note_on channel=5 note=38 velocity=113 time=0
EXTRACT: note_on channel=8 note=62 velocity=126 time=0
EXTRACT: note_on channel=9 note=36 velocity=126 time=0
EXTRACT: note_on channel=9 note=42 velocity=117 time=0
EXTRACT: note_on channel=9 note=70 velocity=107 time=0
EXTRACT: note_off channel=9 note=70 velocity=64 time=0.024
EXTRACT: note_off channel=9 note=42 velocity=64 time=0
EXTRACT: note_off channel=9 note=36 velocity=65 time=0
EXTRACT: note_off channel=8 note=62 velocity=64 time=0.02
EXTRACT: note_off channel=5 note=38 velocity=64 time=0.067
EXTRACT: note_off channel=2 note=38 velocity=64 time=0
EXTRACT: note_on channel=2 note=38 velocity=75 time=0.009000000000000001
EXTRACT: note_on channel=5 note=38 velocity=63 time=0
EXTRACT: note_on channel=11 note=69 velocity=69 time=0
EXTRACT: note_off channel=1 note=26 velocity=64 time=0.084
EXTRACT: note_on channel=6 note=86 velocity=126 time=0.021
EXTRACT: note_on channel=6 note=74 velocity=126 time=0.005
EXTRACT: note_off channel=11 note=69 velocity=65 time=0
EXTRACT: note_off channel=5 note=38 velocity=64 time=0.001
EXTRACT: note_off channel=2 note=38 velocity=65 time=0
EXTRACT: note_on channel=1 note=38 velocity=122 time=0.009000000000000001
EXTRACT: note_on channel=2 note=50 velocity=124 time=0
EXTRACT: note_on channel=5 note=38 velocity=112 time=0
EXTRACT: note_on channel=8 note=62 velocity=111 time=0
EXTRACT: note_on channel=9 note=46 velocity=105 time=0
EXTRACT: note_on channel=9 note=70 velocity=106 time=0
EXTRACT: note_on channel=10 note=74 velocity=106 time=0
EXTRACT: note_on channel=10 note=86 velocity=107 time=0
EXTRACT: note_on channel=11 note=74 velocity=99 time=0
EXTRACT: note_on channel=14 note=74 velocity=74 time=0
EXTRACT: note_off channel=8 note=62 velocity=64 time=0.023
EXTRACT: note_off channel=9 note=70 velocity=64 time=0.001
EXTRACT: note_off channel=9 note=46 velocity=65 time=0
EXTRACT: note_off channel=10 note=74 velocity=64 time=0.051000000000000004
EXTRACT: note_off channel=6 note=86 velocity=64 time=0.019
EXTRACT: note_off channel=10 note=86 velocity=65 time=0.01
EXTRACT: note_off channel=5 note=38 velocity=65 time=0.007
EXTRACT: note_off channel=2 note=50 velocity=65 time=0
EXTRACT: note_off channel=11 note=74 velocity=65 time=0.004
EXTRACT: note_on channel=2 note=50 velocity=124 time=0.005
EXTRACT: note_on channel=5 note=38 velocity=113 time=0
EXTRACT: note_on channel=8 note=62 velocity=117 time=0
EXTRACT: note_on channel=9 note=70 velocity=107 time=0
EXTRACT: note_on channel=11 note=69 velocity=68 time=0
EXTRACT: note_off channel=6 note=74 velocity=65 time=0.007
EXTRACT: note_off channel=14 note=74 velocity=64 time=0.001
EXTRACT: note_off channel=9 note=70 velocity=65 time=0.016
EXTRACT: note_off channel=8 note=62 velocity=65 time=0.028
EXTRACT: note_off channel=1 note=38 velocity=65 time=0.047
EXTRACT: note_off channel=11 note=69 velocity=64 time=0.011
EXTRACT: note_off channel=5 note=38 velocity=64 time=0.001
EXTRACT: note_off channel=2 note=50 velocity=64 time=0
EXTRACT: note_on channel=9 note=39 velocity=118 time=0.001
EXTRACT: note_on channel=1 note=26 velocity=123 time=0.008
EXTRACT: note_on channel=2 note=38 velocity=125 time=0
EXTRACT: note_on channel=5 note=38 velocity=112 time=0
EXTRACT: note_on channel=8 note=62 velocity=82 time=0
EXTRACT: note_on channel=9 note=36 velocity=127 time=0
EXTRACT: note_on channel=9 note=38 velocity=117 time=0
EXTRACT: note_on channel=9 note=42 velocity=116 time=0
EXTRACT: note_on channel=9 note=70 velocity=106 time=0
EXTRACT: note_on channel=11 note=62 velocity=68 time=0
EXTRACT: note_off channel=9 note=39 velocity=64 time=0.017
EXTRACT: note_off channel=9 note=70 velocity=65 time=0.007
EXTRACT: note_off channel=9 note=42 velocity=64 time=0
EXTRACT: note_off channel=9 note=38 velocity=64 time=0
EXTRACT: note_off channel=9 note=36 velocity=65 time=0
EXTRACT: note_off channel=8 note=62 velocity=64 time=0.001
EXTRACT: note_on channel=6 note=86 velocity=127 time=0.08
EXTRACT: note_on channel=6 note=74 velocity=126 time=0.005
EXTRACT: note_off channel=11 note=62 velocity=65 time=0
EXTRACT: note_off channel=5 note=38 velocity=65 time=0.001
EXTRACT: note_off channel=2 note=38 velocity=64 time=0
EXTRACT: note_on channel=2 note=38 velocity=74 time=0.009000000000000001
EXTRACT: note_on channel=5 note=38 velocity=62 time=0
EXTRACT: note_on channel=8 note=62 velocity=88 time=0
EXTRACT: note_on channel=10 note=74 velocity=111 time=0
EXTRACT: note_on channel=10 note=86 velocity=106 time=0
EXTRACT: note_on channel=11 note=74 velocity=99 time=0
EXTRACT: note_on channel=14 note=74 velocity=80 time=0
EXTRACT: note_off channel=8 note=62 velocity=65 time=0.054
EXTRACT: note_off channel=1 note=26 velocity=65 time=0.015
EXTRACT: note_off channel=10 note=74 velocity=65 time=0.002
EXTRACT: note_off channel=11 note=74 velocity=64 time=0.029
EXTRACT: note_off channel=10 note=86 velocity=64 time=0
EXTRACT: note_off channel=5 note=38 velocity=65 time=0.011
EXTRACT: note_off channel=2 note=38 velocity=65 time=0
EXTRACT: note_on channel=1 note=38 velocity=122 time=0.009000000000000001
EXTRACT: note_on channel=2 note=50 velocity=125 time=0
EXTRACT: note_on channel=5 note=38 velocity=113 time=0
EXTRACT: note_on channel=8 note=62 velocity=99 time=0
EXTRACT: note_on channel=9 note=42 velocity=114 time=0
EXTRACT: note_on channel=9 note=70 velocity=106 time=0
EXTRACT: note_on channel=11 note=69 velocity=69 time=0
EXTRACT: note_off channel=14 note=74 velocity=64 time=0.012
EXTRACT: note_off channel=6 note=86 velocity=64 time=0.002
EXTRACT: note_off channel=6 note=74 velocity=64 time=0.001
EXTRACT: note_off channel=8 note=62 velocity=65 time=0.008
EXTRACT: note_off channel=9 note=70 velocity=65 time=0.001
EXTRACT: note_off channel=9 note=42 velocity=64 time=0
EXTRACT: note_on channel=12 note=77 velocity=123 time=0.016
EXTRACT: note_off channel=11 note=69 velocity=64 time=0.07
EXTRACT: note_off channel=5 note=38 velocity=64 time=0.001
EXTRACT: note_off channel=2 note=50 velocity=65 time=0
EXTRACT: note_on channel=2 note=50 velocity=125 time=0.009000000000000001
EXTRACT: note_on channel=5 note=38 velocity=113 time=0
EXTRACT: note_on channel=8 note=65 velocity=46 time=0
EXTRACT: note_on channel=9 note=44 velocity=98 time=0
EXTRACT: note_on channel=9 note=70 velocity=107 time=0
EXTRACT: note_on channel=11 note=62 velocity=68 time=0
EXTRACT: note_off channel=8 note=65 velocity=64 time=0.016
EXTRACT: note_off channel=9 note=70 velocity=64 time=0.008
EXTRACT: note_off channel=9 note=44 velocity=65 time=0
EXTRACT: note_off channel=1 note=38 velocity=64 time=0.075
EXTRACT: note_on channel=6 note=77 velocity=121 time=0.006
EXTRACT: note_on channel=6 note=89 velocity=127 time=0
EXTRACT: note_off channel=11 note=62 velocity=65 time=0.005
EXTRACT: note_off channel=5 note=38 velocity=65 time=0.001
EXTRACT: note_off channel=2 note=50 velocity=64 time=0
EXTRACT: note_on channel=1 note=29 velocity=127 time=0.009000000000000001
EXTRACT: note_on channel=2 note=53 velocity=110 time=0
EXTRACT: note_on channel=5 note=41 velocity=112 time=0
EXTRACT: note_on channel=8 note=65 velocity=113 time=0
EXTRACT: note_on channel=9 note=36 velocity=127 time=0
EXTRACT: note_on channel=9 note=42 velocity=119 time=0
EXTRACT: note_on channel=9 note=70 velocity=107 time=0
EXTRACT: note_on channel=10 note=77 velocity=107 time=0
EXTRACT: note_on channel=10 note=89 velocity=84 time=0
EXTRACT: note_on channel=11 note=77 velocity=104 time=0
EXTRACT: note_on channel=12 note=88 velocity=126 time=0
EXTRACT: note_on channel=14 note=77 velocity=91 time=0
EXTRACT: note_off channel=9 note=70 velocity=65 time=0.024
EXTRACT: note_off channel=9 note=42 velocity=64 time=0
EXTRACT: note_off channel=9 note=36 velocity=64 time=0
EXTRACT: note_off channel=8 note=65 velocity=65 time=0.012
EXTRACT: note_off channel=10 note=89 velocity=65 time=0.035
EXTRACT: note_off channel=10 note=77 velocity=64 time=0.004
EXTRACT: note_off channel=2 note=53 velocity=64 time=0.004
EXTRACT: note_off channel=6 note=89 velocity=65 time=0.015
EXTRACT: note_off channel=11 note=77 velocity=65 time=0.015
EXTRACT: note_off channel=14 note=77 velocity=65 time=0.001
EXTRACT: note_off channel=5 note=41 velocity=64 time=0.001
EXTRACT: note_off channel=6 note=77 velocity=65 time=0.003
EXTRACT: note_on channel=5 note=41 velocity=62 time=0.006
EXTRACT: note_on channel=8 note=65 velocity=95 time=0
EXTRACT: note_on channel=11 note=69 velocity=69 time=0
EXTRACT: note_off channel=8 note=65 velocity=64 time=0.034
EXTRACT: note_off channel=1 note=29 velocity=65 time=0.018000000000000002
EXTRACT: note_on channel=6 note=89 velocity=126 time=0.053
EXTRACT: note_off channel=11 note=69 velocity=64 time=0.005
EXTRACT: note_off channel=5 note=41 velocity=64 time=0.001
EXTRACT: note_on channel=6 note=77 velocity=127 time=0.004
EXTRACT: note_on channel=1 note=41 velocity=127 time=0.005
EXTRACT: note_on channel=2 note=53 velocity=107 time=0
EXTRACT: note_on channel=5 note=41 velocity=113 time=0
EXTRACT: note_on channel=8 note=65 velocity=110 time=0
EXTRACT: note_on channel=9 note=46 velocity=106 time=0
EXTRACT: note_on channel=9 note=70 velocity=106 time=0
EXTRACT: note_on channel=10 note=77 velocity=110 time=0
EXTRACT: note_on channel=10 note=89 velocity=103 time=0
EXTRACT: note_on channel=11 note=77 velocity=104 time=0
EXTRACT: note_on channel=14 note=77 velocity=82 time=0
EXTRACT: note_off channel=9 note=70 velocity=65 time=0.024
EXTRACT: note_off channel=9 note=46 velocity=64 time=0
EXTRACT: note_off channel=8 note=65 velocity=64 time=0.006
EXTRACT: note_off channel=2 note=53 velocity=65 time=0.063
EXTRACT: note_off channel=14 note=77 velocity=65 time=0.015
EXTRACT: note_off channel=10 note=77 velocity=64 time=0.006
EXTRACT: note_on channel=9 note=70 velocity=106 time=0.006
EXTRACT: note_on channel=11 note=69 velocity=69 time=0
EXTRACT: note_off channel=11 note=77 velocity=64 time=0.008
EXTRACT: note_off channel=9 note=70 velocity=65 time=0.016
EXTRACT: note_off channel=10 note=89 velocity=65 time=0.004
EXTRACT: note_off channel=6 note=77 velocity=64 time=0.006
EXTRACT: note_off channel=1 note=41 velocity=64 time=0.018000000000000002
EXTRACT: note_off channel=5 note=41 velocity=65 time=0.002
EXTRACT: note_off channel=6 note=89 velocity=64 time=0
EXTRACT: control_change channel=9 control=91 value=30 time=0.036000000000000004
EXTRACT: note_off channel=11 note=69 velocity=65 time=0.02
EXTRACT: note_on channel=9 note=39 velocity=118 time=0.002
EXTRACT: note_on channel=8 note=60 velocity=37 time=0.008
EXTRACT: note_on channel=9 note=36 velocity=126 time=0
EXTRACT: note_on channel=9 note=38 velocity=117 time=0
EXTRACT: note_on channel=9 note=42 velocity=123 time=0
EXTRACT: note_on channel=9 note=70 velocity=107 time=0
EXTRACT: note_on channel=11 note=62 velocity=69 time=0
EXTRACT: note_off channel=8 note=60 velocity=65 time=0.013000000000000001
EXTRACT: note_off channel=9 note=39 velocity=65 time=0.004
EXTRACT: note_off channel=9 note=70 velocity=64 time=0.007
EXTRACT: note_off channel=9 note=42 velocity=65 time=0
EXTRACT: note_off channel=9 note=38 velocity=64 time=0
EXTRACT: note_off channel=9 note=36 velocity=64 time=0
EXTRACT: note_on channel=6 note=72 velocity=126 time=0.081
EXTRACT: note_on channel=6 note=84 velocity=126 time=0
EXTRACT: note_off channel=11 note=62 velocity=65 time=0.005
EXTRACT: note_on channel=1 note=36 velocity=126 time=0.01
EXTRACT: note_on channel=2 note=48 velocity=124 time=0
EXTRACT: note_on channel=5 note=36 velocity=95 time=0
EXTRACT: note_on channel=8 note=60 velocity=84 time=0
EXTRACT: note_on channel=10 note=72 velocity=109 time=0
EXTRACT: note_on channel=10 note=84 velocity=104 time=0
EXTRACT: note_on channel=11 note=72 velocity=104 time=0
EXTRACT: note_on channel=14 note=72 velocity=85 time=0
EXTRACT: note_on channel=9 note=42 velocity=122 time=0.12
EXTRACT: note_on channel=9 note=70 velocity=107 time=0
EXTRACT: note_on channel=9 note=55 velocity=119 time=0.02
EXTRACT: note_off channel=9 note=70 velocity=65 time=0.004
EXTRACT: note_off channel=9 note=42 velocity=65 time=0
EXTRACT: note_off channel=9 note=55 velocity=64 time=0.02
EXTRACT: note_on channel=9 note=44 velocity=99 time=0.076
EXTRACT: note_on channel=9 note=70 velocity=106 time=0
EXTRACT: note_off channel=9 note=70 velocity=64 time=0.024
EXTRACT: note_off channel=9 note=44 velocity=65 time=0
EXTRACT: note_off channel=10 note=84 velocity=65 time=0.01
EXTRACT: note_off channel=10 note=72 velocity=64 time=0
EXTRACT: note_off channel=6 note=84 velocity=65 time=0.005
EXTRACT: note_off channel=5 note=36 velocity=65 time=0.03
EXTRACT: note_off channel=6 note=72 velocity=65 time=0
EXTRACT: note_off channel=11 note=72 velocity=64 time=0.005
EXTRACT: note_off channel=14 note=72 velocity=64 time=0.025
EXTRACT: note_off channel=2 note=48 velocity=64 time=0.013000000000000001
EXTRACT: note_off channel=8 note=60 velocity=65 time=0.002
EXTRACT: note_off channel=1 note=36 velocity=64 time=0
EXTRACT: note_off channel=12 note=88 velocity=65 time=0
EXTRACT: note_on channel=14 note=74 velocity=91 time=0.001
EXTRACT: note_on channel=1 note=38 velocity=127 time=0
EXTRACT: note_on channel=2 note=38 velocity=124 time=0
EXTRACT: note_on channel=5 note=38 velocity=94 time=0
EXTRACT: note_on channel=6 note=74 velocity=115 time=0
EXTRACT: note_on channel=6 note=86 velocity=121 time=0
EXTRACT: note_on channel=8 note=62 velocity=84 time=0
EXTRACT: note_on channel=9 note=27 velocity=127 time=0
EXTRACT: note_on channel=9 note=36 velocity=126 time=0
EXTRACT: note_on channel=9 note=85 velocity=33 time=0
EXTRACT: note_on channel=11 note=74 velocity=87 time=0
EXTRACT: note_off channel=12 note=77 velocity=64 time=0.014
EXTRACT: note_on channel=10 note=74 velocity=104 time=0.001
EXTRACT: note_on channel=10 note=86 velocity=109 time=0.005
EXTRACT: note_off channel=9 note=85 velocity=65 time=0.004
EXTRACT: note_off channel=9 note=36 velocity=64 time=0
EXTRACT: note_off channel=9 note=27 velocity=64 time=0
EXTRACT: note_off channel=8 note=62 velocity=64 time=0.09
EXTRACT: note_on channel=11 note=62 velocity=86 time=0.006
EXTRACT: note_off channel=11 note=74 velocity=64 time=0.008
EXTRACT: note_off channel=14 note=74 velocity=64 time=0.001
EXTRACT: note_off channel=1 note=38 velocity=65 time=0.043000000000000003
EXTRACT: note_off channel=6 note=74 velocity=64 time=0.02
EXTRACT: note_off channel=6 note=86 velocity=64 time=0.009000000000000001
EXTRACT: note_off channel=5 note=38 velocity=64 time=0.018000000000000002
EXTRACT: note_on channel=9 note=33 velocity=34 time=0.011
EXTRACT: note_on channel=8 note=50 velocity=39 time=0.01
EXTRACT: note_on channel=9 note=32 velocity=23 time=0
EXTRACT: note_on channel=9 note=70 velocity=60 time=0
EXTRACT: note_on channel=10 note=86 velocity=69 time=0
EXTRACT: note_on channel=11 note=50 velocity=86 time=0
EXTRACT: note_off channel=11 note=62 velocity=65 time=0.008
EXTRACT: note_off channel=10 note=86 velocity=64 time=0.003
EXTRACT: note_off channel=9 note=33 velocity=65 time=0.003
EXTRACT: note_off channel=9 note=70 velocity=64 time=0.01
EXTRACT: note_off channel=9 note=32 velocity=65 time=0
EXTRACT: note_off channel=2 note=38 velocity=65 time=0.088
EXTRACT: note_off channel=8 note=50 velocity=64 time=0.002
EXTRACT: note_on channel=11 note=62 velocity=51 time=0.006
EXTRACT: note_off channel=11 note=50 velocity=64 time=0.008
EXTRACT: note_off channel=10 note=74 velocity=65 time=0.046
EXTRACT: note_on channel=10 note=74 velocity=70 time=0.051000000000000004
EXTRACT: note_off channel=10 note=86 velocity=65 time=0.006
EXTRACT: note_on channel=6 note=74 velocity=86 time=0.009000000000000001
EXTRACT: note_on channel=6 note=86 velocity=102 time=0
EXTRACT: note_on channel=8 note=62 velocity=49 time=0
EXTRACT: note_on channel=9 note=27 velocity=55 time=0
EXTRACT: note_on channel=9 note=32 velocity=30 time=0
EXTRACT: note_on channel=9 note=70 velocity=63 time=0
EXTRACT: note_on channel=9 note=85 velocity=32 time=0
EXTRACT: note_on channel=10 note=86 velocity=90 time=0
EXTRACT: note_on channel=11 note=74 velocity=67 time=0
EXTRACT: note_off channel=11 note=62 velocity=65 time=0.008
EXTRACT: note_off channel=9 note=85 velocity=65 time=0.016
EXTRACT: note_off channel=9 note=70 velocity=64 time=0
EXTRACT: note_off channel=9 note=32 velocity=65 time=0
EXTRACT: note_off channel=9 note=27 velocity=64 time=0
EXTRACT: note_off channel=8 note=62 velocity=65 time=0.09
EXTRACT: note_on channel=11 note=62 velocity=66 time=0.006
EXTRACT: note_off channel=11 note=74 velocity=65 time=0.008
EXTRACT: note_off channel=6 note=74 velocity=65 time=0.061
EXTRACT: note_off channel=6 note=86 velocity=64 time=0.001
EXTRACT: note_on channel=9 note=33 velocity=35 time=0.04
EXTRACT: note_off channel=10 note=86 velocity=64 time=0.001
EXTRACT: note_on channel=8 note=50 velocity=22 time=0.009000000000000001
EXTRACT: note_on channel=9 note=32 velocity=24 time=0
EXTRACT: note_on channel=9 note=70 velocity=62 time=0
EXTRACT: note_on channel=10 note=86 velocity=69 time=0
EXTRACT: note_on channel=11 note=50 velocity=66 time=0
EXTRACT: note_off channel=11 note=62 velocity=64 time=0.008
EXTRACT: note_off channel=9 note=33 velocity=64 time=0.006
EXTRACT: note_off channel=9 note=70 velocity=65 time=0.01
EXTRACT: note_off channel=9 note=32 velocity=65 time=0
EXTRACT: control_change channel=6 control=11 value=110 time=0.056
EXTRACT: note_off channel=8 note=50 velocity=65 time=0.034
EXTRACT: note_on channel=11 note=62 velocity=55 time=0.006
EXTRACT: note_off channel=11 note=50 velocity=65 time=0.008
EXTRACT: note_off channel=10 note=74 velocity=64 time=0.046
EXTRACT: note_off channel=10 note=86 velocity=65 time=0.057
EXTRACT: note_on channel=6 note=74 velocity=81 time=0.009000000000000001
EXTRACT: note_on channel=6 note=86 velocity=87 time=0
EXTRACT: note_on channel=8 note=62 velocity=30 time=0
EXTRACT: note_on channel=9 note=27 velocity=42 time=0
EXTRACT: note_on channel=9 note=32 velocity=25 time=0
EXTRACT: note_on channel=9 note=70 velocity=69 time=0
EXTRACT: note_on channel=9 note=85 velocity=32 time=0
EXTRACT: note_on channel=10 note=74 velocity=50 time=0
EXTRACT: note_on channel=10 note=86 velocity=85 time=0
EXTRACT: note_on channel=11 note=74 velocity=47 time=0
EXTRACT: note_off channel=11 note=62 velocity=64 time=0.008
EXTRACT: note_off channel=9 note=85 velocity=64 time=0.016
EXTRACT: note_off channel=9 note=70 velocity=64 time=0
EXTRACT: note_off channel=9 note=32 velocity=65 time=0
EXTRACT: note_off channel=9 note=27 velocity=65 time=0
EXTRACT: note_off channel=8 note=62 velocity=64 time=0.09
EXTRACT: note_on channel=11 note=62 velocity=36 time=0.006
EXTRACT: note_off channel=11 note=74 velocity=64 time=0.008
EXTRACT: note_off channel=6 note=86 velocity=65 time=0.046
EXTRACT: note_off channel=6 note=74 velocity=65 time=0.045
EXTRACT: note_on channel=9 note=33 velocity=35 time=0.011
EXTRACT: note_off channel=10 note=86 velocity=64 time=0.001
EXTRACT: note_on channel=8 note=50 velocity=7 time=0.009000000000000001
EXTRACT: note_on channel=9 note=32 velocity=17 time=0
EXTRACT: note_on channel=9 note=70 velocity=61 time=0
EXTRACT: note_on channel=10 note=86 velocity=53 time=0
EXTRACT: note_on channel=11 note=50 velocity=46 time=0
EXTRACT: note_off channel=11 note=62 velocity=65 time=0.008
EXTRACT: note_off channel=9 note=33 velocity=64 time=0.006
EXTRACT: note_off channel=9 note=70 velocity=64 time=0.01
EXTRACT: note_off channel=9 note=32 velocity=65 time=0
EXTRACT: note_off channel=8 note=50 velocity=64 time=0.09
EXTRACT: note_on channel=11 note=62 velocity=35 time=0.006
EXTRACT: note_off channel=11 note=50 velocity=65 time=0.008
EXTRACT: note_off channel=10 note=74 velocity=65 time=0.066
EXTRACT: note_off channel=10 note=86 velocity=65 time=0.037
EXTRACT: note_on channel=6 note=74 velocity=70 time=0.009000000000000001
EXTRACT: note_on channel=6 note=86 velocity=80 time=0
EXTRACT: note_on channel=8 note=62 velocity=19 time=0
EXTRACT: note_on channel=9 note=27 velocity=35 time=0
EXTRACT: note_on channel=9 note=32 velocity=24 time=0
EXTRACT: note_on channel=9 note=70 velocity=68 time=0
EXTRACT: note_on channel=9 note=85 velocity=33 time=0
EXTRACT: note_on channel=10 note=86 velocity=76 time=0
EXTRACT: note_on channel=11 note=74 velocity=27 time=0
EXTRACT: note_off channel=11 note=62 velocity=64 time=0.008
EXTRACT: note_on channel=10 note=74 velocity=35 time=0.007
EXTRACT: note_off channel=9 note=85 velocity=64 time=0.009000000000000001
EXTRACT: note_off channel=9 note=70 velocity=65 time=0
EXTRACT: note_off channel=9 note=32 velocity=65 time=0
EXTRACT: note_off channel=9 note=27 velocity=64 time=0
EXTRACT: note_off channel=8 note=62 velocity=65 time=0.09
EXTRACT: note_on channel=11 note=62 velocity=15 time=0.006
EXTRACT: note_off channel=11 note=74 velocity=64 time=0.008
EXTRACT: control_change channel=6 control=11 value=101 time=0.032
EXTRACT: note_off channel=6 note=86 velocity=64 time=0.051000000000000004
EXTRACT: note_off channel=6 note=74 velocity=65 time=0.01
EXTRACT: note_on channel=9 note=33 velocity=34 time=0.009000000000000001
EXTRACT: note_off channel=10 note=86 velocity=64 time=0.001
EXTRACT: note_on channel=8 note=50 velocity=3 time=0.009000000000000001
EXTRACT: note_on channel=9 note=32 velocity=18 time=0
EXTRACT: note_on channel=9 note=70 velocity=69 time=0
EXTRACT: note_on channel=10 note=86 velocity=40 time=0
EXTRACT: note_on channel=11 note=50 velocity=27 time=0
EXTRACT: note_off channel=11 note=62 velocity=65 time=0.008
EXTRACT: note_off channel=9 note=33 velocity=65 time=0.006
EXTRACT: note_off channel=9 note=70 velocity=64 time=0.01
EXTRACT: note_off channel=9 note=32 velocity=64 time=0
EXTRACT: note_off channel=8 note=50 velocity=64 time=0.09
EXTRACT: note_on channel=11 note=62 velocity=15 time=0.006
EXTRACT: note_off channel=11 note=50 velocity=65 time=0.008
EXTRACT: note_off channel=10 note=74 velocity=65 time=0.046
EXTRACT: note_off channel=10 note=86 velocity=64 time=0.057
EXTRACT: note_on channel=6 note=74 velocity=49 time=0.009000000000000001
EXTRACT: note_on channel=6 note=86 velocity=54 time=0
EXTRACT: note_on channel=8 note=62 velocity=10 time=0
EXTRACT: note_on channel=9 note=27 velocity=26 time=0
EXTRACT: note_on channel=9 note=32 velocity=23 time=0
EXTRACT: note_on channel=9 note=70 velocity=64 time=0
EXTRACT: note_on channel=9 note=85 velocity=30 time=0
EXTRACT: note_on channel=10 note=86 velocity=60 time=0
EXTRACT: note_on channel=11 note=74 velocity=7 time=0
EXTRACT: note_off channel=11 note=62 velocity=64 time=0.008
EXTRACT: note_on channel=10 note=74 velocity=26 time=0.007
EXTRACT: note_off channel=9 note=85 velocity=65 time=0.009000000000000001
EXTRACT: note_off channel=9 note=70 velocity=65 time=0
EXTRACT: note_off channel=9 note=32 velocity=64 time=0
EXTRACT: note_off channel=9 note=27 velocity=64 time=0
EXTRACT: note_off channel=8 note=62 velocity=65 time=0.09
EXTRACT: note_on channel=11 note=62 velocity=4 time=0.006
EXTRACT: note_off channel=11 note=74 velocity=64 time=0.008
EXTRACT: note_off channel=6 note=86 velocity=64 time=0.054
EXTRACT: note_off channel=6 note=74 velocity=64 time=0.027
EXTRACT: note_on channel=9 note=33 velocity=33 time=0.021
EXTRACT: note_off channel=10 note=86 velocity=64 time=0.001
EXTRACT: note_on channel=8 note=50 velocity=1 time=0.009000000000000001
EXTRACT: note_on channel=9 note=32 velocity=15 time=0
EXTRACT: note_on channel=9 note=70 velocity=56 time=0
EXTRACT: note_on channel=10 note=86 velocity=33 time=0
EXTRACT: note_on channel=11 note=50 velocity=7 time=0
EXTRACT: note_off channel=11 note=62 velocity=65 time=0.008
EXTRACT: note_off channel=9 note=33 velocity=65 time=0.006
EXTRACT: note_off channel=9 note=70 velocity=65 time=0.01
EXTRACT: note_off channel=9 note=32 velocity=64 time=0
EXTRACT: note_off channel=8 note=50 velocity=65 time=0.09
EXTRACT: note_on channel=11 note=62 velocity=1 time=0.006
EXTRACT: note_off channel=11 note=50 velocity=64 time=0.008
EXTRACT: note_off channel=10 note=74 velocity=65 time=0.046
EXTRACT: note_off channel=10 note=86 velocity=65 time=0.057
EXTRACT: note_on channel=6 note=74 velocity=43 time=0.009000000000000001
EXTRACT: note_on channel=6 note=86 velocity=43 time=0
EXTRACT: note_on channel=8 note=62 velocity=3 time=0
EXTRACT: note_on channel=9 note=27 velocity=20 time=0
EXTRACT: note_on channel=9 note=32 velocity=16 time=0
EXTRACT: note_on channel=9 note=70 velocity=59 time=0
EXTRACT: note_on channel=9 note=85 velocity=31 time=0
EXTRACT: note_on channel=10 note=86 velocity=55 time=0
EXTRACT: note_on channel=11 note=74 velocity=1 time=0
EXTRACT: note_off channel=11 note=62 velocity=65 time=0.008
EXTRACT: note_on channel=10 note=74 velocity=18 time=0.007
EXTRACT: note_off channel=9 note=85 velocity=64 time=0.009000000000000001
EXTRACT: note_off channel=9 note=70 velocity=65 time=0
EXTRACT: note_off channel=9 note=32 velocity=64 time=0
EXTRACT: note_off channel=9 note=27 velocity=65 time=0
EXTRACT: control_change channel=6 control=11 value=91 time=0.056
EXTRACT: note_off channel=8 note=62 velocity=64 time=0.034
EXTRACT: note_on channel=11 note=62 velocity=1 time=0.006
EXTRACT: note_off channel=11 note=74 velocity=65 time=0.008
EXTRACT: note_off channel=6 note=86 velocity=65 time=0.07100000000000001
EXTRACT: note_off channel=6 note=74 velocity=65 time=0.02
EXTRACT: note_on channel=9 note=33 velocity=30 time=0.011
EXTRACT: note_off channel=10 note=86 velocity=64 time=0.001
EXTRACT: note_on channel=8 note=50 velocity=1 time=0.009000000000000001
EXTRACT: note_on channel=9 note=32 velocity=15 time=0
EXTRACT: note_on channel=9 note=70 velocity=57 time=0
EXTRACT: note_on channel=10 note=86 velocity=28 time=0
EXTRACT: note_on channel=11 note=50 velocity=1 time=0
EXTRACT: note_off channel=11 note=62 velocity=64 time=0.008
EXTRACT: note_off channel=9 note=33 velocity=65 time=0.006
EXTRACT: note_off channel=9 note=70 velocity=64 time=0.01
EXTRACT: note_off channel=9 note=32 velocity=65 time=0
EXTRACT: note_off channel=8 note=50 velocity=65 time=0.09
EXTRACT: note_on channel=11 note=62 velocity=1 time=0.006
EXTRACT: note_off channel=11 note=50 velocity=65 time=0.008
EXTRACT: note_off channel=10 note=74 velocity=64 time=0.066
EXTRACT: note_off channel=10 note=86 velocity=65 time=0.037
EXTRACT: note_on channel=6 note=74 velocity=38 time=0.009000000000000001
EXTRACT: note_on channel=6 note=86 velocity=37 time=0
EXTRACT: note_on channel=8 note=62 velocity=1 time=0
EXTRACT: note_on channel=9 note=27 velocity=10 time=0
EXTRACT: note_on channel=9 note=32 velocity=23 time=0
EXTRACT: note_on channel=9 note=70 velocity=56 time=0
EXTRACT: note_on channel=9 note=85 velocity=31 time=0
EXTRACT: note_on channel=10 note=74 velocity=11 time=0
EXTRACT: note_on channel=10 note=86 velocity=38 time=0
EXTRACT: note_off channel=11 note=62 velocity=64 time=0.008
EXTRACT: note_off channel=9 note=85 velocity=64 time=0.016
EXTRACT: note_off channel=9 note=70 velocity=64 time=0
EXTRACT: note_off channel=9 note=32 velocity=65 time=0
EXTRACT: note_off channel=9 note=27 velocity=65 time=0
EXTRACT: note_off channel=8 note=62 velocity=64 time=0.09
EXTRACT: note_off channel=6 note=86 velocity=64 time=0.08700000000000001
EXTRACT: note_on channel=9 note=33 velocity=28 time=0.029
EXTRACT: note_off channel=10 note=86 velocity=65 time=0.001
EXTRACT: note_off channel=6 note=74 velocity=64 time=0.005
EXTRACT: note_on channel=8 note=50 velocity=1 time=0.004
EXTRACT: note_on channel=9 note=32 velocity=14 time=0
EXTRACT: note_on channel=9 note=70 velocity=54 time=0
EXTRACT: note_on channel=10 note=86 velocity=20 time=0
EXTRACT: control_change channel=6 control=11 value=80 time=0
EXTRACT: note_off channel=9 note=33 velocity=64 time=0.014
EXTRACT: note_off channel=9 note=70 velocity=64 time=0.01
EXTRACT: note_off channel=9 note=32 velocity=65 time=0
EXTRACT: note_off channel=8 note=50 velocity=64 time=0.09
EXTRACT: note_off channel=10 note=74 velocity=64 time=0.1
EXTRACT: note_off channel=10 note=86 velocity=64 time=0.017
EXTRACT: note_on channel=6 note=74 velocity=23 time=0.009000000000000001
EXTRACT: note_on channel=6 note=86 velocity=31 time=0
EXTRACT: note_on channel=9 note=27 velocity=5 time=0
EXTRACT: note_on channel=9 note=32 velocity=23 time=0
EXTRACT: note_on channel=9 note=70 velocity=53 time=0
EXTRACT: note_on channel=9 note=85 velocity=28 time=0
EXTRACT: note_on channel=10 note=74 velocity=7 time=0
EXTRACT: note_on channel=10 note=86 velocity=30 time=0
EXTRACT: note_off channel=9 note=85 velocity=65 time=0.024
EXTRACT: note_off channel=9 note=70 velocity=64 time=0
EXTRACT: note_off channel=9 note=32 velocity=64 time=0
EXTRACT: note_off channel=9 note=27 velocity=65 time=0
EXTRACT: note_off channel=6 note=86 velocity=65 time=0.17
EXTRACT: note_off channel=6 note=74 velocity=65 time=0.016
EXTRACT: note_on channel=9 note=33 velocity=27 time=0.02
EXTRACT: note_off channel=10 note=86 velocity=65 time=0.001
EXTRACT: note_on channel=9 note=32 velocity=22 time=0.009000000000000001
EXTRACT: note_on channel=9 note=70 velocity=51 time=0
EXTRACT: note_on channel=10 note=86 velocity=17 time=0
EXTRACT: note_off channel=9 note=33 velocity=64 time=0.014
EXTRACT: note_off channel=9 note=70 velocity=65 time=0.01
EXTRACT: note_off channel=9 note=32 velocity=65 time=0
EXTRACT: control_change channel=6 control=11 value=70 time=0.096
EXTRACT: note_off channel=10 note=86 velocity=64 time=0.111
EXTRACT: note_on channel=6 note=74 velocity=18 time=0.009000000000000001
EXTRACT: note_on channel=6 note=86 velocity=24 time=0
EXTRACT: note_on channel=9 note=32 velocity=19 time=0
EXTRACT: note_on channel=9 note=70 velocity=48 time=0
EXTRACT: note_on channel=9 note=85 velocity=29 time=0
EXTRACT: note_on channel=10 note=86 velocity=29 time=0
EXTRACT: note_off channel=9 note=85 velocity=64 time=0.024
EXTRACT: note_off channel=9 note=70 velocity=65 time=0
EXTRACT: note_off channel=9 note=32 velocity=64 time=0
EXTRACT: note_off channel=6 note=86 velocity=64 time=0.17
EXTRACT: note_off channel=6 note=74 velocity=64 time=0.022
EXTRACT: note_on channel=9 note=33 velocity=23 time=0.014
EXTRACT: note_off channel=10 note=86 velocity=65 time=0.001
EXTRACT: note_on channel=9 note=32 velocity=11 time=0.009000000000000001
EXTRACT: note_on channel=9 note=70 velocity=46 time=0
EXTRACT: note_on channel=10 note=86 velocity=11 time=0
EXTRACT: note_off channel=9 note=33 velocity=64 time=0.014
EXTRACT: note_off channel=9 note=70 velocity=65 time=0.01
EXTRACT: note_off channel=9 note=32 velocity=65 time=0
EXTRACT: control_change channel=6 control=11 value=51 time=0.016
EXTRACT: note_off channel=10 note=86 velocity=65 time=0.191
EXTRACT: note_on channel=6 note=74 velocity=7 time=0.009000000000000001
EXTRACT: note_on channel=6 note=86 velocity=16 time=0
EXTRACT: note_on channel=9 note=32 velocity=15 time=0
EXTRACT: note_on channel=9 note=70 velocity=45 time=0
EXTRACT: note_on channel=9 note=85 velocity=26 time=0
EXTRACT: note_on channel=10 note=86 velocity=19 time=0
EXTRACT: note_off channel=9 note=85 velocity=64 time=0.024
EXTRACT: note_off channel=9 note=70 velocity=64 time=0
EXTRACT: note_off channel=9 note=32 velocity=65 time=0
EXTRACT: note_off channel=6 note=86 velocity=65 time=0.163
EXTRACT: note_off channel=6 note=74 velocity=64 time=0.027
EXTRACT: note_on channel=9 note=33 velocity=20 time=0.016
EXTRACT: note_off channel=10 note=86 velocity=64 time=0.001
EXTRACT: note_on channel=9 note=32 velocity=8 time=0.009000000000000001
EXTRACT: note_on channel=9 note=70 velocity=42 time=0
EXTRACT: note_on channel=10 note=86 velocity=10 time=0
EXTRACT: note_off channel=9 note=33 velocity=65 time=0.014
EXTRACT: note_off channel=9 note=70 velocity=64 time=0.01
EXTRACT: note_off channel=9 note=32 velocity=64 time=0
EXTRACT: control_change channel=6 control=11 value=41 time=0.096
EXTRACT: note_off channel=10 note=86 velocity=65 time=0.111
EXTRACT: note_on channel=6 note=74 velocity=1 time=0.009000000000000001
EXTRACT: note_on channel=6 note=86 velocity=10 time=0
EXTRACT: note_on channel=9 note=32 velocity=15 time=0
EXTRACT: note_on channel=9 note=70 velocity=41 time=0
EXTRACT: note_on channel=9 note=85 velocity=24 time=0
EXTRACT: note_on channel=10 note=86 velocity=13 time=0
EXTRACT: note_off channel=9 note=85 velocity=65 time=0.024
EXTRACT: note_off channel=9 note=70 velocity=64 time=0
EXTRACT: note_off channel=9 note=32 velocity=65 time=0
EXTRACT: note_off channel=6 note=86 velocity=65 time=0.13
EXTRACT: note_off channel=6 note=74 velocity=65 time=0.068
EXTRACT: note_on channel=9 note=33 velocity=18 time=0.008
EXTRACT: note_off channel=10 note=86 velocity=64 time=0.001
EXTRACT: note_on channel=9 note=32 velocity=5 time=0.009000000000000001
EXTRACT: note_on channel=9 note=70 velocity=39 time=0
EXTRACT: note_on channel=10 note=86 velocity=8 time=0
EXTRACT: note_off channel=9 note=33 velocity=65 time=0.014
EXTRACT: note_off channel=9 note=70 velocity=64 time=0.01
EXTRACT: note_off channel=9 note=32 velocity=65 time=0
EXTRACT: control_change channel=6 control=11 value=30 time=0.056
EXTRACT: note_off channel=10 note=86 velocity=64 time=0.151
EXTRACT: note_on channel=6 note=74 velocity=1 time=0.009000000000000001
EXTRACT: note_on channel=6 note=86 velocity=1 time=0
EXTRACT: note_on channel=9 note=32 velocity=20 time=0
EXTRACT: note_on channel=9 note=70 velocity=36 time=0
EXTRACT: note_on channel=9 note=85 velocity=21 time=0
EXTRACT: note_on channel=10 note=86 velocity=10 time=0
EXTRACT: note_off channel=9 note=85 velocity=64 time=0.024
EXTRACT: note_off channel=9 note=70 velocity=64 time=0
EXTRACT: note_off channel=9 note=32 velocity=65 time=0
EXTRACT: note_off channel=6 note=86 velocity=64 time=0.13
EXTRACT: note_off channel=6 note=74 velocity=65 time=0.04
EXTRACT: note_on channel=9 note=33 velocity=15 time=0.036000000000000004
EXTRACT: note_off channel=10 note=86 velocity=65 time=0.001
EXTRACT: note_on channel=9 note=32 velocity=11 time=0.009000000000000001
EXTRACT: note_on channel=9 note=70 velocity=35 time=0
EXTRACT: note_on channel=10 note=86 velocity=6 time=0
EXTRACT: note_off channel=9 note=33 velocity=65 time=0.014
EXTRACT: note_off channel=9 note=70 velocity=64 time=0.01
EXTRACT: note_off channel=9 note=32 velocity=64 time=0
EXTRACT: control_change channel=6 control=11 value=20 time=0.056
EXTRACT: note_off channel=10 note=74 velocity=65 time=0.074
EXTRACT: note_off channel=10 note=86 velocity=64 time=0.08
EXTRACT: note_on channel=6 note=74 velocity=1 time=0.006
EXTRACT: note_on channel=6 note=86 velocity=1 time=0
EXTRACT: note_on channel=9 note=32 velocity=14 time=0
EXTRACT: note_on channel=9 note=70 velocity=32 time=0
EXTRACT: note_on channel=9 note=85 velocity=17 time=0
EXTRACT: note_off channel=9 note=85 velocity=65 time=0.024
EXTRACT: note_off channel=9 note=70 velocity=65 time=0
EXTRACT: note_off channel=9 note=32 velocity=64 time=0
EXTRACT: note_off channel=6 note=86 velocity=64 time=0.15
EXTRACT: note_off channel=6 note=74 velocity=64 time=0
EXTRACT: note_on channel=9 note=33 velocity=12 time=0.056
EXTRACT: note_on channel=9 note=32 velocity=9 time=0.01
EXTRACT: note_on channel=9 note=70 velocity=30 time=0
EXTRACT: note_off channel=9 note=33 velocity=64 time=0.014
EXTRACT: note_off channel=9 note=70 velocity=65 time=0.01
EXTRACT: note_off channel=9 note=32 velocity=64 time=0
EXTRACT: note_on channel=9 note=32 velocity=14 time=0.216
EXTRACT: note_on channel=9 note=70 velocity=29 time=0
EXTRACT: note_on channel=9 note=85 velocity=13 time=0
EXTRACT: note_off channel=9 note=85 velocity=65 time=0.024
EXTRACT: note_off channel=9 note=70 velocity=65 time=0
EXTRACT: note_off channel=9 note=32 velocity=64 time=0
EXTRACT: note_on channel=9 note=33 velocity=9 time=0.20600000000000002
EXTRACT: note_on channel=9 note=32 velocity=4 time=0.01
EXTRACT: note_on channel=9 note=70 velocity=25 time=0
EXTRACT: note_off channel=9 note=33 velocity=65 time=0.014
EXTRACT: note_off channel=9 note=70 velocity=64 time=0.01
EXTRACT: note_off channel=9 note=32 velocity=64 time=0
EXTRACT: note_on channel=9 note=32 velocity=5 time=0.216
EXTRACT: note_on channel=9 note=70 velocity=20 time=0
EXTRACT: note_on channel=9 note=85 velocity=9 time=0
EXTRACT: note_off channel=9 note=85 velocity=65 time=0.024
EXTRACT: note_off channel=9 note=70 velocity=65 time=0
EXTRACT: note_off channel=9 note=32 velocity=64 time=0
EXTRACT: note_on channel=9 note=33 velocity=6 time=0.20600000000000002
EXTRACT: note_on channel=9 note=32 velocity=5 time=0.01
EXTRACT: note_on channel=9 note=70 velocity=15 time=0
EXTRACT: note_off channel=9 note=33 velocity=64 time=0.014
EXTRACT: note_off channel=9 note=70 velocity=65 time=0.01
EXTRACT: note_off channel=9 note=32 velocity=65 time=0
EXTRACT: note_on channel=9 note=32 velocity=3 time=0.216
EXTRACT: note_on channel=9 note=70 velocity=13 time=0
EXTRACT: note_on channel=9 note=85 velocity=5 time=0
EXTRACT: note_off channel=9 note=85 velocity=64 time=0.024
EXTRACT: note_off channel=9 note=70 velocity=64 time=0
EXTRACT: note_off channel=9 note=32 velocity=65 time=0
EXTRACT: note_on channel=9 note=32 velocity=1 time=0.216
EXTRACT: note_on channel=9 note=33 velocity=2 time=0
EXTRACT: note_on channel=9 note=70 velocity=11 time=0
EXTRACT: note_off channel=9 note=70 velocity=64 time=0.024
EXTRACT: note_off channel=9 note=33 velocity=65 time=0
EXTRACT: note_off channel=9 note=32 velocity=65 time=0
EXTRACT: control_change channel=6 control=11 value=126 time=0.056
EXTRACT: sysex data=(65,16,66,18,64,0,127,127,66) time=1.97
EXTRACT: sysex data=(65,16,66,18,64,0,127,0,65) time=0.05
