EXTRACT: sysex data=(126,127,9,1) time=0
EXTRACT: program_change channel=0 program=33 time=0
EXTRACT: control_change channel=0 control=7 value=120 time=0
EXTRACT: program_change channel=1 program=89 time=0
EXTRACT: control_change channel=1 control=7 value=73 time=0
EXTRACT: program_change channel=2 program=73 time=0
EXTRACT: control_change channel=2 control=7 value=119 time=0
EXTRACT: program_change channel=3 program=29 time=0
EXTRACT: control_change channel=3 control=7 value=88 time=0
EXTRACT: program_change channel=4 program=29 time=0
EXTRACT: control_change channel=4 control=7 value=98 time=0
EXTRACT: program_change channel=5 program=29 time=0
EXTRACT: control_change channel=5 control=7 value=98 time=0
EXTRACT: program_change channel=6 program=29 time=0
EXTRACT: control_change channel=6 control=7 value=101 time=0
EXTRACT: program_change channel=7 program=88 time=0
EXTRACT: control_change channel=7 control=7 value=108 time=0
EXTRACT: program_change channel=8 program=41 time=0
EXTRACT: control_change channel=8 control=7 value=117 time=0
EXTRACT: program_change channel=9 program=0 time=0
EXTRACT: control_change channel=9 control=7 value=124 time=0
EXTRACT: program_change channel=10 program=4 time=0
EXTRACT: control_change channel=10 control=7 value=101 time=0
EXTRACT: program_change channel=11 program=25 time=0
EXTRACT: control_change channel=11 control=7 value=76 time=0
EXTRACT: program_change channel=12 program=25 time=0
EXTRACT: control_change channel=12 control=7 value=73 time=0
EXTRACT: control_change channel=0 control=0 value=0 time=0
EXTRACT: control_change channel=0 control=32 value=0 time=0
EXTRACT: control_change channel=1 control=0 value=0 time=0
EXTRACT: control_change channel=1 control=32 value=0 time=0
EXTRACT: control_change channel=2 control=0 value=0 time=0
EXTRACT: control_change channel=2 control=32 value=0 time=0
EXTRACT: control_change channel=3 control=0 value=0 time=0
EXTRACT: control_change channel=3 control=32 value=0 time=0
EXTRACT: control_change channel=3 control=10 value=39 time=0
EXTRACT: control_change channel=4 control=0 value=0 time=0
EXTRACT: control_change channel=4 control=32 value=0 time=0
EXTRACT: control_change channel=4 control=10 value=84 time=0
EXTRACT: control_change channel=5 control=0 value=0 time=0
EXTRACT: control_change channel=5 control=32 value=0 time=0
EXTRACT: control_change channel=5 control=10 value=84 time=0
EXTRACT: control_change channel=6 control=0 value=0 time=0
EXTRACT: control_change channel=6 control=32 value=0 time=0
EXTRACT: control_change channel=6 control=10 value=51 time=0
EXTRACT: control_change channel=7 control=0 value=0 time=0
EXTRACT: control_change channel=7 control=32 value=0 time=0
EXTRACT: control_change channel=8 control=0 value=0 time=0
EXTRACT: control_change channel=8 control=32 value=0 time=0
EXTRACT: control_change channel=10 control=0 value=0 time=0
EXTRACT: control_change channel=10 control=32 value=0 time=0
EXTRACT: control_change channel=11 control=0 value=0 time=0
EXTRACT: control_change channel=11 control=32 value=0 time=0
EXTRACT: control_change channel=11 control=10 value=27 time=0
EXTRACT: control_change channel=12 control=0 value=0 time=0
EXTRACT: control_change channel=12 control=32 value=0 time=0
EXTRACT: control_change channel=12 control=10 value=102 time=0
EXTRACT: control_change channel=0 control=121 value=0 time=0
EXTRACT: control_change channel=0 control=93 value=11 time=0
EXTRACT: control_change channel=0 control=91 value=11 time=0
EXTRACT: control_change channel=1 control=121 value=0 time=0
EXTRACT: control_change channel=1 control=93 value=23 time=0
EXTRACT: control_change channel=2 control=121 value=0 time=0
EXTRACT: control_change channel=3 control=121 value=0 time=0
EXTRACT: control_change channel=4 control=121 value=0 time=0
EXTRACT: control_change channel=5 control=121 value=0 time=0
EXTRACT: control_change channel=6 control=121 value=0 time=0
EXTRACT: control_change channel=9 control=121 value=0 time=0
EXTRACT: control_change channel=7 control=121 value=0 time=0
EXTRACT: control_change channel=8 control=121 value=0 time=0
EXTRACT: control_change channel=10 control=121 value=0 time=0
EXTRACT: control_change channel=11 control=121 value=0 time=0
EXTRACT: control_change channel=12 control=121 value=0 time=0
EXTRACT: control_change channel=1 control=91 value=84 time=0
EXTRACT: control_change channel=2 control=93 value=33 time=0
EXTRACT: control_change channel=3 control=93 value=25 time=0
EXTRACT: control_change channel=4 control=93 value=30 time=0
EXTRACT: control_change channel=5 control=93 value=30 time=0
EXTRACT: control_change channel=6 control=93 value=34 time=0
EXTRACT: control_change channel=9 control=93 value=10 time=0
EXTRACT: control_change channel=7 control=93 value=41 time=0
EXTRACT: control_change channel=8 control=93 value=68 time=0
EXTRACT: control_change channel=10 control=93 value=35 time=0
EXTRACT: control_change channel=11 control=93 value=19 time=0
EXTRACT: control_change channel=12 control=93 value=19 time=0
EXTRACT: control_change channel=2 control=91 value=80 time=0
EXTRACT: control_change channel=3 control=91 value=70 time=0
EXTRACT: control_change channel=4 control=91 value=92 time=0
EXTRACT: control_change channel=5 control=91 value=92 time=0
EXTRACT: control_change channel=6 control=91 value=78 time=0
EXTRACT: control_change channel=9 control=91 value=73 time=0
EXTRACT: control_change channel=7 control=91 value=86 time=0
EXTRACT: control_change channel=8 control=91 value=89 time=0
EXTRACT: control_change channel=10 control=91 value=86 time=0
EXTRACT: control_change channel=11 control=91 value=99 time=0
EXTRACT: control_change channel=12 control=91 value=99 time=0
EXTRACT: control_change channel=0 control=99 value=1 time=0
EXTRACT: control_change channel=0 control=98 value=32 time=0
EXTRACT: control_change channel=0 control=6 value=41 time=0
EXTRACT: control_change channel=0 control=38 value=0 time=0
EXTRACT: control_change channel=4 control=99 value=1 time=0
EXTRACT: control_change channel=4 control=98 value=102 time=0
EXTRACT: control_change channel=4 control=6 value=102 time=0
EXTRACT: control_change channel=4 control=38 value=0 time=0
EXTRACT: control_change channel=5 control=99 value=1 time=0
EXTRACT: control_change channel=5 control=98 value=102 time=0
EXTRACT: control_change channel=5 control=6 value=102 time=0
EXTRACT: control_change channel=5 control=38 value=0 time=0
EXTRACT: control_change channel=6 control=99 value=1 time=0
EXTRACT: control_change channel=6 control=98 value=102 time=0
EXTRACT: control_change channel=6 control=6 value=105 time=0
EXTRACT: control_change channel=6 control=38 value=0 time=0
EXTRACT: control_change channel=7 control=99 value=1 time=0
EXTRACT: control_change channel=7 control=98 value=32 time=0
EXTRACT: control_change channel=7 control=6 value=70 time=0
EXTRACT: control_change channel=7 control=38 value=0 time=0
EXTRACT: control_change channel=7 control=99 value=1 time=0
EXTRACT: control_change channel=7 control=98 value=33 time=0
EXTRACT: control_change channel=7 control=6 value=37 time=0
EXTRACT: control_change channel=7 control=38 value=0 time=0
EXTRACT: control_change channel=9 control=99 value=24 time=0
EXTRACT: control_change channel=9 control=98 value=36 time=0
EXTRACT: control_change channel=9 control=6 value=63 time=0
EXTRACT: control_change channel=9 control=38 value=0 time=0
EXTRACT: control_change channel=9 control=99 value=24 time=0
EXTRACT: control_change channel=9 control=98 value=40 time=0
EXTRACT: control_change channel=9 control=6 value=66 time=0
EXTRACT: control_change channel=9 control=38 value=0 time=0
EXTRACT: control_change channel=9 control=99 value=29 time=0
EXTRACT: control_change channel=9 control=98 value=36 time=0
EXTRACT: control_change channel=9 control=6 value=0 time=0
EXTRACT: control_change channel=9 control=38 value=0 time=0
EXTRACT: note_on channel=8 note=45 velocity=83 time=0
EXTRACT: note_on channel=8 note=60 velocity=96 time=0
EXTRACT: note_on channel=8 note=64 velocity=110 time=0
EXTRACT: note_off channel=8 note=64 velocity=0 time=0.08578427083333333
EXTRACT: note_on channel=8 note=65 velocity=99 time=0.061274479166666666
EXTRACT: note_off channel=8 note=60 velocity=0 time=0.027573515625
EXTRACT: note_off channel=8 note=65 velocity=0 time=0.06433820312499999
EXTRACT: note_on channel=8 note=64 velocity=112 time=0.05514703125
EXTRACT: note_off channel=8 note=64 velocity=0 time=0.09191171875
EXTRACT: note_on channel=8 note=65 velocity=102 time=0.05514703125
EXTRACT: note_off channel=8 note=65 velocity=0 time=0.09497544270833333
EXTRACT: note_on channel=8 note=64 velocity=104 time=0.052083307291666665
EXTRACT: note_off channel=8 note=64 velocity=0 time=0.073529375
EXTRACT: note_on channel=8 note=65 velocity=94 time=0.073529375
EXTRACT: note_off channel=8 note=45 velocity=0 time=0.073529375
EXTRACT: note_off channel=8 note=65 velocity=0 time=0.027573515625
EXTRACT: note_on channel=8 note=47 velocity=90 time=0.045955859375
EXTRACT: note_on channel=8 note=59 velocity=95 time=0
EXTRACT: note_on channel=8 note=64 velocity=108 time=0
EXTRACT: note_off channel=8 note=64 velocity=0 time=0.08884799479166666
EXTRACT: note_on channel=8 note=65 velocity=101 time=0.05821075520833333
EXTRACT: note_off channel=8 note=59 velocity=0 time=0.045955859375
EXTRACT: note_off channel=8 note=65 velocity=0 time=0.05821075520833333
EXTRACT: note_on channel=8 note=64 velocity=106 time=0.042892135416666664
EXTRACT: note_off channel=8 note=64 velocity=0 time=0.07965682291666666
EXTRACT: note_on channel=8 note=65 velocity=97 time=0.06740192708333333
EXTRACT: note_off channel=8 note=47 velocity=0 time=0.07659309895833333
EXTRACT: note_off channel=8 note=65 velocity=0 time=0.03370096354166666
EXTRACT: note_on channel=8 note=52 velocity=105 time=0.0367646875
EXTRACT: note_on channel=8 note=59 velocity=92 time=0
EXTRACT: note_on channel=8 note=64 velocity=111 time=0
EXTRACT: note_off channel=8 note=64 velocity=0 time=0.1102940625
EXTRACT: note_off channel=8 note=59 velocity=0 time=0.021446067708333332
EXTRACT: note_off channel=8 note=52 velocity=0 time=0.012254895833333333
EXTRACT: note_on channel=8 note=62 velocity=100 time=0.5912987239583333
EXTRACT: note_off channel=8 note=62 velocity=0 time=0.08578427083333333
EXTRACT: note_on channel=8 note=48 velocity=86 time=0.061274479166666666
EXTRACT: note_on channel=8 note=57 velocity=91 time=0
EXTRACT: note_on channel=8 note=60 velocity=101 time=0
EXTRACT: note_off channel=8 note=60 velocity=0 time=0.08578427083333333
EXTRACT: note_on channel=8 note=62 velocity=99 time=0.061274479166666666
EXTRACT: note_off channel=8 note=57 velocity=0 time=0.01838234375
EXTRACT: note_off channel=8 note=62 velocity=0 time=0.07965682291666666
EXTRACT: note_on channel=8 note=60 velocity=105 time=0.04901958333333333
EXTRACT: note_off channel=8 note=60 velocity=0 time=0.08578427083333333
EXTRACT: note_on channel=8 note=62 velocity=106 time=0.061274479166666666
EXTRACT: note_off channel=8 note=62 velocity=0 time=0.101102890625
EXTRACT: note_on channel=8 note=60 velocity=97 time=0.045955859375
EXTRACT: note_off channel=8 note=60 velocity=0 time=0.09191171875
EXTRACT: note_on channel=8 note=62 velocity=100 time=0.05514703125
EXTRACT: note_off channel=8 note=48 velocity=0 time=0.015318619791666667
EXTRACT: note_off channel=8 note=62 velocity=0 time=0.08578427083333333
EXTRACT: note_on channel=8 note=50 velocity=90 time=0.045955859375
EXTRACT: note_on channel=8 note=57 velocity=95 time=0
EXTRACT: note_on channel=8 note=60 velocity=106 time=0
EXTRACT: note_off channel=8 note=60 velocity=0 time=0.08578427083333333
EXTRACT: note_off channel=8 note=57 velocity=0 time=0.061274479166666666
EXTRACT: note_on channel=8 note=62 velocity=101 time=0
EXTRACT: note_off channel=8 note=62 velocity=0 time=0.101102890625
EXTRACT: note_on channel=8 note=60 velocity=108 time=0.045955859375
EXTRACT: note_off channel=8 note=60 velocity=0 time=0.07046565104166666
EXTRACT: note_on channel=8 note=62 velocity=101 time=0.07659309895833333
EXTRACT: note_off channel=8 note=62 velocity=0 time=0.1102940625
EXTRACT: note_off channel=8 note=50 velocity=0 time=0.009191171875
EXTRACT: note_on channel=8 note=50 velocity=93 time=0.027573515625
EXTRACT: note_on channel=8 note=57 velocity=102 time=0
EXTRACT: note_on channel=8 note=60 velocity=110 time=0
EXTRACT: note_off channel=8 note=50 velocity=0 time=0.1102940625
EXTRACT: note_off channel=8 note=57 velocity=0 time=0.009191171875
EXTRACT: note_off channel=8 note=60 velocity=0 time=0.0030637239583333332
EXTRACT: control_change channel=4 control=84 value=70 time=0.16544109375
EXTRACT: control_change channel=5 control=84 value=66 time=0
EXTRACT: control_change channel=4 control=5 value=74 time=0.0030637239583333332
EXTRACT: control_change channel=5 control=5 value=74 time=0
EXTRACT: note_on channel=4 note=76 velocity=117 time=0.0030637239583333332
EXTRACT: note_on channel=5 note=72 velocity=112 time=0
EXTRACT: note_on channel=0 note=29 velocity=124 time=0.588235
EXTRACT: note_on channel=6 note=64 velocity=111 time=0
EXTRACT: note_on channel=9 note=36 velocity=115 time=0
EXTRACT: note_on channel=9 note=49 velocity=100 time=0
EXTRACT: note_on channel=10 note=57 velocity=104 time=0
EXTRACT: note_on channel=10 note=60 velocity=108 time=0
EXTRACT: note_on channel=10 note=64 velocity=104 time=0
EXTRACT: note_on channel=11 note=53 velocity=114 time=0
EXTRACT: note_on channel=11 note=57 velocity=101 time=0
EXTRACT: note_on channel=11 note=60 velocity=110 time=0
EXTRACT: note_on channel=11 note=64 velocity=111 time=0
EXTRACT: note_on channel=11 note=67 velocity=105 time=0
EXTRACT: note_off channel=9 note=36 velocity=0 time=0.012254895833333333
EXTRACT: note_off channel=9 note=49 velocity=0 time=0
EXTRACT: note_off channel=0 note=29 velocity=0 time=0.22671557291666666
EXTRACT: note_on channel=0 note=29 velocity=126 time=0.05514703125
EXTRACT: note_on channel=9 note=42 velocity=43 time=0
EXTRACT: note_off channel=9 note=42 velocity=0 time=0.012254895833333333
EXTRACT: note_off channel=6 note=64 velocity=0 time=0.07965682291666666
EXTRACT: note_on channel=9 note=42 velocity=45 time=0.05514703125
EXTRACT: note_off channel=9 note=42 velocity=0 time=0.012254895833333333
EXTRACT: note_off channel=0 note=29 velocity=0 time=0.07965682291666666
EXTRACT: note_off channel=11 note=53 velocity=0 time=0.045955859375
EXTRACT: note_off channel=11 note=57 velocity=0 time=0
EXTRACT: note_off channel=11 note=60 velocity=0 time=0
EXTRACT: note_off channel=11 note=64 velocity=0 time=0
EXTRACT: note_off channel=11 note=67 velocity=0 time=0
EXTRACT: note_on channel=0 note=29 velocity=124 time=0.009191171875
EXTRACT: note_on channel=6 note=69 velocity=120 time=0
EXTRACT: note_on channel=9 note=40 velocity=127 time=0
EXTRACT: note_on channel=9 note=42 velocity=104 time=0
EXTRACT: note_on channel=11 note=53 velocity=111 time=0
EXTRACT: note_on channel=11 note=57 velocity=111 time=0
EXTRACT: note_on channel=11 note=60 velocity=111 time=0
EXTRACT: note_on channel=11 note=64 velocity=105 time=0
EXTRACT: note_on channel=11 note=67 velocity=95 time=0
EXTRACT: note_off channel=9 note=40 velocity=0 time=0.012254895833333333
EXTRACT: note_off channel=9 note=42 velocity=0 time=0
EXTRACT: note_on channel=9 note=42 velocity=46 time=0.13480385416666665
EXTRACT: note_off channel=9 note=42 velocity=0 time=0.012254895833333333
EXTRACT: note_off channel=0 note=29 velocity=0 time=0.082720546875
EXTRACT: note_off channel=6 note=69 velocity=0 time=0.0367646875
EXTRACT: note_off channel=11 note=57 velocity=0 time=0.0061274479166666665
EXTRACT: note_off channel=11 note=60 velocity=0 time=0
EXTRACT: note_off channel=11 note=64 velocity=0 time=0
EXTRACT: note_off channel=11 note=67 velocity=0 time=0
EXTRACT: note_off channel=11 note=53 velocity=0 time=0.0061274479166666665
EXTRACT: note_on channel=0 note=29 velocity=107 time=0.0030637239583333332
EXTRACT: note_on channel=9 note=42 velocity=47 time=0
EXTRACT: note_on channel=11 note=53 velocity=70 time=0
EXTRACT: note_on channel=11 note=57 velocity=72 time=0
EXTRACT: note_on channel=11 note=60 velocity=68 time=0
EXTRACT: note_on channel=11 note=64 velocity=75 time=0
EXTRACT: note_on channel=11 note=67 velocity=58 time=0
EXTRACT: note_off channel=9 note=42 velocity=0 time=0.012254895833333333
EXTRACT: note_off channel=0 note=29 velocity=0 time=0.119485234375
EXTRACT: note_off channel=11 note=53 velocity=0 time=0.0061274479166666665
EXTRACT: note_off channel=11 note=57 velocity=0 time=0
EXTRACT: note_off channel=11 note=60 velocity=0 time=0
EXTRACT: note_off channel=11 note=64 velocity=0 time=0
EXTRACT: note_off channel=11 note=67 velocity=0 time=0
EXTRACT: note_on channel=0 note=29 velocity=124 time=0.009191171875
EXTRACT: note_on channel=6 note=67 velocity=110 time=0
EXTRACT: note_on channel=9 note=36 velocity=115 time=0
EXTRACT: note_on channel=9 note=42 velocity=40 time=0
EXTRACT: note_on channel=11 note=53 velocity=112 time=0
EXTRACT: note_on channel=11 note=57 velocity=96 time=0
EXTRACT: note_on channel=11 note=60 velocity=100 time=0
EXTRACT: note_on channel=11 note=64 velocity=97 time=0
EXTRACT: note_on channel=11 note=67 velocity=85 time=0
EXTRACT: note_off channel=9 note=36 velocity=0 time=0.012254895833333333
EXTRACT: note_off channel=9 note=42 velocity=0 time=0
EXTRACT: note_on channel=9 note=42 velocity=103 time=0.13480385416666665
EXTRACT: note_off channel=9 note=42 velocity=0 time=0.012254895833333333
EXTRACT: note_off channel=6 note=67 velocity=0 time=0.0367646875
EXTRACT: note_off channel=11 note=53 velocity=0 time=0
EXTRACT: note_off channel=0 note=29 velocity=0 time=0.027573515625
EXTRACT: note_off channel=11 note=57 velocity=0 time=0.061274479166666666
EXTRACT: note_off channel=11 note=60 velocity=0 time=0
EXTRACT: note_off channel=11 note=64 velocity=0 time=0
EXTRACT: note_off channel=11 note=67 velocity=0 time=0
EXTRACT: note_on channel=0 note=29 velocity=113 time=0.009191171875
EXTRACT: note_on channel=6 note=67 velocity=96 time=0
EXTRACT: note_on channel=9 note=36 velocity=59 time=0
EXTRACT: note_on channel=9 note=42 velocity=53 time=0
EXTRACT: note_on channel=11 note=53 velocity=85 time=0
EXTRACT: note_on channel=11 note=57 velocity=82 time=0
EXTRACT: note_on channel=11 note=60 velocity=76 time=0
EXTRACT: note_on channel=11 note=64 velocity=75 time=0
EXTRACT: note_on channel=11 note=67 velocity=68 time=0
EXTRACT: note_off channel=9 note=36 velocity=0 time=0.012254895833333333
EXTRACT: note_off channel=9 note=42 velocity=0 time=0
EXTRACT: note_off channel=0 note=29 velocity=0 time=0.08884799479166666
EXTRACT: note_off channel=6 note=67 velocity=0 time=0.01838234375
EXTRACT: note_off channel=11 note=53 velocity=0 time=0.01838234375
EXTRACT: note_off channel=11 note=57 velocity=0 time=0
EXTRACT: note_off channel=11 note=60 velocity=0 time=0
EXTRACT: note_off channel=11 note=64 velocity=0 time=0
EXTRACT: note_off channel=11 note=67 velocity=0 time=0
EXTRACT: note_on channel=0 note=29 velocity=124 time=0.009191171875
EXTRACT: note_on channel=6 note=64 velocity=103 time=0
EXTRACT: note_on channel=9 note=36 velocity=116 time=0
EXTRACT: note_on channel=9 note=42 velocity=40 time=0
EXTRACT: note_on channel=11 note=53 velocity=92 time=0
EXTRACT: note_on channel=11 note=57 velocity=94 time=0
EXTRACT: note_on channel=11 note=60 velocity=94 time=0
EXTRACT: note_on channel=11 note=64 velocity=95 time=0
EXTRACT: note_on channel=11 note=67 velocity=84 time=0
EXTRACT: note_off channel=9 note=36 velocity=0 time=0.012254895833333333
EXTRACT: note_off channel=9 note=42 velocity=0 time=0
EXTRACT: note_on channel=9 note=42 velocity=31 time=0.13480385416666665
EXTRACT: note_off channel=9 note=42 velocity=0 time=0.012254895833333333
EXTRACT: note_off channel=6 note=64 velocity=0 time=0.021446067708333332
EXTRACT: note_off channel=0 note=29 velocity=0 time=0.082720546875
EXTRACT: note_off channel=4 note=76 velocity=0 time=0.021446067708333332
EXTRACT: note_off channel=5 note=72 velocity=0 time=0
EXTRACT: note_off channel=11 note=53 velocity=0 time=0
EXTRACT: note_off channel=11 note=57 velocity=0 time=0
EXTRACT: note_off channel=11 note=60 velocity=0 time=0
EXTRACT: note_off channel=11 note=64 velocity=0 time=0
EXTRACT: note_off channel=11 note=67 velocity=0 time=0
EXTRACT: note_on channel=0 note=29 velocity=115 time=0.009191171875
EXTRACT: note_on channel=6 note=69 velocity=116 time=0
EXTRACT: note_on channel=9 note=40 velocity=124 time=0
EXTRACT: note_on channel=9 note=42 velocity=104 time=0
EXTRACT: note_on channel=11 note=53 velocity=108 time=0
EXTRACT: note_on channel=11 note=57 velocity=102 time=0
EXTRACT: note_on channel=11 note=60 velocity=109 time=0
EXTRACT: note_on channel=11 note=64 velocity=108 time=0
EXTRACT: note_on channel=11 note=67 velocity=103 time=0
EXTRACT: note_off channel=9 note=40 velocity=0 time=0.012254895833333333
EXTRACT: note_off channel=9 note=42 velocity=0 time=0
EXTRACT: note_on channel=9 note=42 velocity=50 time=0.13480385416666665
EXTRACT: note_off channel=9 note=42 velocity=0 time=0.012254895833333333
EXTRACT: note_off channel=6 note=69 velocity=0 time=0.027573515625
EXTRACT: note_off channel=0 note=29 velocity=0 time=0.073529375
EXTRACT: note_off channel=11 note=53 velocity=0 time=0.024509791666666666
EXTRACT: note_off channel=11 note=57 velocity=0 time=0
EXTRACT: note_off channel=11 note=60 velocity=0 time=0
EXTRACT: note_off channel=11 note=64 velocity=0 time=0
EXTRACT: note_off channel=11 note=67 velocity=0 time=0
EXTRACT: note_on channel=0 note=29 velocity=123 time=0.009191171875
EXTRACT: note_on channel=6 note=67 velocity=111 time=0
EXTRACT: note_on channel=9 note=42 velocity=37 time=0
EXTRACT: note_on channel=11 note=53 velocity=84 time=0
EXTRACT: note_on channel=11 note=57 velocity=88 time=0
EXTRACT: note_on channel=11 note=60 velocity=87 time=0
EXTRACT: note_on channel=11 note=64 velocity=87 time=0
EXTRACT: note_on channel=11 note=67 velocity=75 time=0
EXTRACT: note_off channel=9 note=42 velocity=0 time=0.012254895833333333
EXTRACT: note_off channel=0 note=29 velocity=0 time=0.09497544270833333
EXTRACT: note_off channel=11 note=53 velocity=0 time=0.030637239583333333
EXTRACT: note_off channel=11 note=57 velocity=0 time=0
EXTRACT: note_off channel=11 note=60 velocity=0 time=0
EXTRACT: note_off channel=11 note=64 velocity=0 time=0
EXTRACT: note_off channel=11 note=67 velocity=0 time=0
EXTRACT: note_on channel=0 note=29 velocity=111 time=0.009191171875
EXTRACT: note_on channel=9 note=36 velocity=58 time=0
EXTRACT: note_on channel=9 note=42 velocity=37 time=0
EXTRACT: note_on channel=11 note=53 velocity=91 time=0
EXTRACT: note_on channel=11 note=57 velocity=86 time=0
EXTRACT: note_on channel=11 note=60 velocity=93 time=0
EXTRACT: note_on channel=11 note=64 velocity=100 time=0
EXTRACT: note_on channel=11 note=67 velocity=61 time=0
EXTRACT: note_off channel=6 note=67 velocity=0 time=0.0061274479166666665
EXTRACT: note_off channel=9 note=36 velocity=0 time=0.0061274479166666665
EXTRACT: note_off channel=9 note=42 velocity=0 time=0
EXTRACT: note_off channel=10 note=60 velocity=0 time=0.015318619791666667
EXTRACT: note_off channel=10 note=64 velocity=0 time=0.015318619791666667
EXTRACT: note_off channel=10 note=57 velocity=0 time=0.0061274479166666665
EXTRACT: note_off channel=0 note=29 velocity=0 time=0.06433820312499999
EXTRACT: note_off channel=11 note=53 velocity=0 time=0.024509791666666666
EXTRACT: note_off channel=11 note=57 velocity=0 time=0
EXTRACT: note_off channel=11 note=60 velocity=0 time=0
EXTRACT: note_off channel=11 note=64 velocity=0 time=0
EXTRACT: note_off channel=11 note=67 velocity=0 time=0
EXTRACT: note_on channel=0 note=38 velocity=116 time=0.009191171875
EXTRACT: note_on channel=6 note=64 velocity=109 time=0
EXTRACT: note_on channel=9 note=36 velocity=118 time=0
EXTRACT: note_on channel=9 note=42 velocity=99 time=0
EXTRACT: note_on channel=10 note=53 velocity=102 time=0
EXTRACT: note_on channel=10 note=57 velocity=102 time=0
EXTRACT: note_on channel=10 note=64 velocity=104 time=0
EXTRACT: note_on channel=11 note=50 velocity=104 time=0
EXTRACT: note_on channel=11 note=57 velocity=98 time=0
EXTRACT: note_on channel=11 note=60 velocity=90 time=0
EXTRACT: note_on channel=11 note=64 velocity=99 time=0
EXTRACT: note_on channel=11 note=67 velocity=86 time=0
EXTRACT: note_off channel=9 note=36 velocity=0 time=0.012254895833333333
EXTRACT: note_off channel=9 note=42 velocity=0 time=0
EXTRACT: note_on channel=9 note=42 velocity=27 time=0.13480385416666665
EXTRACT: note_off channel=9 note=42 velocity=0 time=0.012254895833333333
EXTRACT: note_off channel=0 note=38 velocity=0 time=0.0367646875
EXTRACT: note_on channel=0 note=38 velocity=120 time=0.09803916666666666
EXTRACT: note_on channel=9 note=42 velocity=32 time=0
EXTRACT: note_off channel=9 note=42 velocity=0 time=0.012254895833333333
EXTRACT: note_off channel=6 note=64 velocity=0 time=0.05514703125
EXTRACT: note_on channel=9 note=42 velocity=30 time=0.07965682291666666
EXTRACT: note_off channel=9 note=42 velocity=0 time=0.012254895833333333
EXTRACT: note_off channel=0 note=38 velocity=0 time=0.07659309895833333
EXTRACT: note_off channel=11 note=50 velocity=0 time=0.04901958333333333
EXTRACT: note_off channel=11 note=57 velocity=0 time=0
EXTRACT: note_off channel=11 note=60 velocity=0 time=0
EXTRACT: note_off channel=11 note=64 velocity=0 time=0
EXTRACT: note_off channel=11 note=67 velocity=0 time=0
EXTRACT: note_on channel=0 note=38 velocity=119 time=0.009191171875
EXTRACT: note_on channel=6 note=69 velocity=105 time=0
EXTRACT: note_on channel=9 note=40 velocity=121 time=0
EXTRACT: note_on channel=9 note=42 velocity=101 time=0
EXTRACT: note_on channel=11 note=50 velocity=117 time=0
EXTRACT: note_on channel=11 note=57 velocity=101 time=0
EXTRACT: note_on channel=11 note=60 velocity=101 time=0
EXTRACT: note_on channel=11 note=64 velocity=106 time=0
EXTRACT: note_on channel=11 note=67 velocity=101 time=0
EXTRACT: note_off channel=9 note=40 velocity=0 time=0.012254895833333333
EXTRACT: note_off channel=9 note=42 velocity=0 time=0
EXTRACT: note_on channel=9 note=42 velocity=48 time=0.13480385416666665
EXTRACT: note_off channel=9 note=42 velocity=0 time=0.012254895833333333
EXTRACT: note_off channel=0 note=38 velocity=0 time=0.073529375
EXTRACT: note_off channel=11 note=50 velocity=0 time=0.052083307291666665
EXTRACT: note_off channel=11 note=57 velocity=0 time=0
EXTRACT: note_off channel=11 note=60 velocity=0 time=0
EXTRACT: note_off channel=11 note=64 velocity=0 time=0
EXTRACT: note_off channel=11 note=67 velocity=0 time=0
EXTRACT: note_off channel=6 note=69 velocity=0 time=0.009191171875
EXTRACT: note_on channel=0 note=38 velocity=113 time=0
EXTRACT: note_on channel=9 note=42 velocity=38 time=0
EXTRACT: note_on channel=11 note=50 velocity=80 time=0
EXTRACT: note_on channel=11 note=57 velocity=71 time=0
EXTRACT: note_on channel=11 note=60 velocity=73 time=0
EXTRACT: note_on channel=11 note=64 velocity=74 time=0
EXTRACT: note_on channel=11 note=67 velocity=61 time=0
EXTRACT: note_off channel=9 note=42 velocity=0 time=0.012254895833333333
EXTRACT: note_off channel=0 note=38 velocity=0 time=0.1102940625
EXTRACT: note_off channel=11 note=50 velocity=0 time=0.015318619791666667
EXTRACT: note_off channel=11 note=57 velocity=0 time=0
EXTRACT: note_off channel=11 note=60 velocity=0 time=0
EXTRACT: note_off channel=11 note=64 velocity=0 time=0
EXTRACT: note_off channel=11 note=67 velocity=0 time=0
EXTRACT: note_on channel=0 note=38 velocity=113 time=0.009191171875
EXTRACT: note_on channel=6 note=67 velocity=104 time=0
EXTRACT: note_on channel=9 note=36 velocity=117 time=0
EXTRACT: note_on channel=9 note=42 velocity=33 time=0
EXTRACT: note_on channel=11 note=50 velocity=103 time=0
EXTRACT: note_on channel=11 note=57 velocity=89 time=0
EXTRACT: note_on channel=11 note=60 velocity=90 time=0
EXTRACT: note_on channel=11 note=64 velocity=92 time=0
EXTRACT: note_on channel=11 note=67 velocity=78 time=0
EXTRACT: note_off channel=9 note=36 velocity=0 time=0.012254895833333333
EXTRACT: note_off channel=9 note=42 velocity=0 time=0
EXTRACT: note_on channel=9 note=42 velocity=97 time=0.13480385416666665
EXTRACT: note_off channel=9 note=42 velocity=0 time=0.012254895833333333
EXTRACT: note_off channel=6 note=67 velocity=0 time=0.03982841145833333
EXTRACT: note_off channel=0 note=38 velocity=0 time=0.015318619791666667
EXTRACT: note_off channel=11 note=50 velocity=0 time=0.07046565104166666
EXTRACT: note_off channel=11 note=57 velocity=0 time=0
EXTRACT: note_off channel=11 note=60 velocity=0 time=0
EXTRACT: note_off channel=11 note=64 velocity=0 time=0
EXTRACT: note_off channel=11 note=67 velocity=0 time=0
EXTRACT: note_on channel=0 note=38 velocity=114 time=0.009191171875
EXTRACT: note_on channel=6 note=67 velocity=101 time=0
EXTRACT: note_on channel=9 note=36 velocity=52 time=0
EXTRACT: note_on channel=9 note=42 velocity=44 time=0
EXTRACT: note_on channel=11 note=50 velocity=76 time=0
EXTRACT: note_on channel=11 note=57 velocity=76 time=0
EXTRACT: note_on channel=11 note=60 velocity=82 time=0
EXTRACT: note_on channel=11 note=64 velocity=79 time=0
EXTRACT: note_on channel=11 note=67 velocity=58 time=0
EXTRACT: note_off channel=9 note=36 velocity=0 time=0.012254895833333333
EXTRACT: note_off channel=9 note=42 velocity=0 time=0
EXTRACT: note_off channel=0 note=38 velocity=0 time=0.1102940625
EXTRACT: note_off channel=6 note=67 velocity=0 time=0.012254895833333333
EXTRACT: note_off channel=11 note=50 velocity=0 time=0.0030637239583333332
EXTRACT: note_off channel=11 note=57 velocity=0 time=0
EXTRACT: note_off channel=11 note=60 velocity=0 time=0
EXTRACT: note_off channel=11 note=64 velocity=0 time=0
EXTRACT: note_off channel=11 note=67 velocity=0 time=0
EXTRACT: note_on channel=0 note=38 velocity=123 time=0.009191171875
EXTRACT: note_on channel=6 note=64 velocity=97 time=0
EXTRACT: note_on channel=9 note=36 velocity=121 time=0
EXTRACT: note_on channel=9 note=42 velocity=45 time=0
EXTRACT: note_on channel=11 note=50 velocity=103 time=0
EXTRACT: note_on channel=11 note=57 velocity=95 time=0
EXTRACT: note_on channel=11 note=60 velocity=107 time=0
EXTRACT: note_on channel=11 note=64 velocity=102 time=0
EXTRACT: note_on channel=11 note=67 velocity=88 time=0
EXTRACT: note_off channel=9 note=36 velocity=0 time=0.012254895833333333
EXTRACT: note_off channel=9 note=42 velocity=0 time=0
EXTRACT: note_on channel=9 note=42 velocity=39 time=0.13480385416666665
EXTRACT: note_off channel=9 note=42 velocity=0 time=0.012254895833333333
EXTRACT: note_off channel=6 note=64 velocity=0 time=0.042892135416666664
EXTRACT: note_off channel=0 note=38 velocity=0 time=0.03370096354166666
EXTRACT: note_off channel=11 note=50 velocity=0 time=0.04901958333333333
EXTRACT: note_off channel=11 note=57 velocity=0 time=0
EXTRACT: note_off channel=11 note=60 velocity=0 time=0
EXTRACT: note_off channel=11 note=64 velocity=0 time=0
EXTRACT: note_off channel=11 note=67 velocity=0 time=0
EXTRACT: control_change channel=4 control=84 value=77 time=0.0030637239583333332
EXTRACT: control_change channel=5 control=84 value=73 time=0
EXTRACT: control_change channel=4 control=5 value=80 time=0.0030637239583333332
EXTRACT: control_change channel=5 control=5 value=80 time=0
EXTRACT: note_on channel=0 note=38 velocity=122 time=0.0030637239583333332
EXTRACT: note_on channel=4 note=71 velocity=118 time=0
EXTRACT: note_on channel=5 note=67 velocity=115 time=0
EXTRACT: note_on channel=6 note=69 velocity=110 time=0
EXTRACT: note_on channel=9 note=40 velocity=127 time=0
EXTRACT: note_on channel=9 note=42 velocity=105 time=0
EXTRACT: note_on channel=11 note=50 velocity=111 time=0
EXTRACT: note_on channel=11 note=57 velocity=112 time=0
EXTRACT: note_on channel=11 note=60 velocity=111 time=0
EXTRACT: note_on channel=11 note=64 velocity=115 time=0
EXTRACT: note_on channel=11 note=67 velocity=103 time=0
EXTRACT: note_off channel=9 note=40 velocity=0 time=0.012254895833333333
EXTRACT: note_off channel=9 note=42 velocity=0 time=0
EXTRACT: note_on channel=9 note=42 velocity=60 time=0.13480385416666665
EXTRACT: note_off channel=9 note=42 velocity=0 time=0.012254895833333333
EXTRACT: note_off channel=0 note=38 velocity=0 time=0.05514703125
EXTRACT: note_off channel=6 note=69 velocity=0 time=0.015318619791666667
EXTRACT: note_off channel=11 note=50 velocity=0 time=0.05514703125
EXTRACT: note_off channel=11 note=57 velocity=0 time=0
EXTRACT: note_off channel=11 note=60 velocity=0 time=0
EXTRACT: note_off channel=11 note=64 velocity=0 time=0
EXTRACT: note_off channel=11 note=67 velocity=0 time=0
EXTRACT: note_on channel=0 note=38 velocity=105 time=0.009191171875
EXTRACT: note_on channel=6 note=67 velocity=109 time=0
EXTRACT: note_on channel=9 note=46 velocity=94 time=0
EXTRACT: note_on channel=11 note=50 velocity=86 time=0
EXTRACT: note_on channel=11 note=57 velocity=93 time=0
EXTRACT: note_on channel=11 note=60 velocity=94 time=0
EXTRACT: note_on channel=11 note=64 velocity=93 time=0
EXTRACT: note_on channel=11 note=67 velocity=89 time=0
EXTRACT: note_off channel=9 note=46 velocity=0 time=0.012254895833333333
EXTRACT: note_off channel=0 note=38 velocity=0 time=0.08884799479166666
EXTRACT: note_off channel=10 note=53 velocity=0 time=0.0367646875
EXTRACT: note_off channel=11 note=50 velocity=0 time=0
EXTRACT: note_off channel=11 note=57 velocity=0 time=0
EXTRACT: note_off channel=11 note=60 velocity=0 time=0
EXTRACT: note_off channel=11 note=64 velocity=0 time=0
EXTRACT: note_off channel=11 note=67 velocity=0 time=0
EXTRACT: note_off channel=10 note=57 velocity=0 time=0.0030637239583333332
EXTRACT: note_off channel=10 note=64 velocity=0 time=0
EXTRACT: note_on channel=0 note=38 velocity=120 time=0.0061274479166666665
EXTRACT: note_on channel=9 note=36 velocity=59 time=0
EXTRACT: note_on channel=11 note=50 velocity=98 time=0
EXTRACT: note_on channel=11 note=57 velocity=93 time=0
EXTRACT: note_on channel=11 note=60 velocity=108 time=0
EXTRACT: note_on channel=11 note=64 velocity=104 time=0
EXTRACT: note_on channel=11 note=67 velocity=81 time=0
EXTRACT: note_off channel=9 note=36 velocity=0 time=0.012254895833333333
EXTRACT: note_off channel=6 note=67 velocity=0 time=0.03370096354166666
EXTRACT: note_off channel=0 note=38 velocity=0 time=0.073529375
EXTRACT: note_off channel=11 note=50 velocity=0 time=0.01838234375
EXTRACT: note_off channel=11 note=57 velocity=0 time=0
EXTRACT: note_off channel=11 note=60 velocity=0 time=0
EXTRACT: note_off channel=11 note=64 velocity=0 time=0
EXTRACT: note_off channel=11 note=67 velocity=0 time=0
EXTRACT: note_on channel=0 note=36 velocity=117 time=0.009191171875
EXTRACT: note_on channel=6 note=64 velocity=97 time=0
EXTRACT: note_on channel=9 note=36 velocity=117 time=0
EXTRACT: note_on channel=9 note=42 velocity=111 time=0
EXTRACT: note_on channel=10 note=55 velocity=100 time=0
EXTRACT: note_on channel=10 note=59 velocity=103 time=0
EXTRACT: note_on channel=10 note=64 velocity=104 time=0
EXTRACT: note_on channel=11 note=48 velocity=102 time=0
EXTRACT: note_on channel=11 note=55 velocity=103 time=0
EXTRACT: note_on channel=11 note=60 velocity=97 time=0
EXTRACT: note_on channel=11 note=62 velocity=105 time=0
EXTRACT: note_on channel=11 note=67 velocity=95 time=0
EXTRACT: note_off channel=9 note=36 velocity=0 time=0.012254895833333333
EXTRACT: note_off channel=9 note=42 velocity=0 time=0
EXTRACT: note_on channel=9 note=42 velocity=47 time=0.13480385416666665
EXTRACT: note_off channel=9 note=42 velocity=0 time=0.012254895833333333
EXTRACT: note_off channel=0 note=36 velocity=0 time=0.08578427083333333
EXTRACT: note_on channel=0 note=36 velocity=126 time=0.04901958333333333
EXTRACT: note_on channel=9 note=36 velocity=65 time=0
EXTRACT: note_on channel=9 note=42 velocity=44 time=0
EXTRACT: note_off channel=9 note=36 velocity=0 time=0.012254895833333333
EXTRACT: note_off channel=9 note=42 velocity=0 time=0
EXTRACT: note_on channel=9 note=42 velocity=42 time=0.13480385416666665
EXTRACT: note_off channel=9 note=42 velocity=0 time=0.012254895833333333
EXTRACT: note_off channel=6 note=64 velocity=0 time=0.012254895833333333
EXTRACT: note_off channel=0 note=36 velocity=0 time=0.06433820312499999
EXTRACT: note_off channel=11 note=48 velocity=0 time=0.04901958333333333
EXTRACT: note_off channel=11 note=55 velocity=0 time=0
EXTRACT: note_off channel=11 note=60 velocity=0 time=0
EXTRACT: note_off channel=11 note=62 velocity=0 time=0
EXTRACT: note_off channel=11 note=67 velocity=0 time=0
EXTRACT: note_on channel=0 note=36 velocity=121 time=0.009191171875
EXTRACT: note_on channel=6 note=69 velocity=114 time=0
EXTRACT: note_on channel=9 note=40 velocity=118 time=0
EXTRACT: note_on channel=9 note=42 velocity=104 time=0
EXTRACT: note_on channel=11 note=48 velocity=107 time=0
EXTRACT: note_on channel=11 note=55 velocity=107 time=0
EXTRACT: note_on channel=11 note=60 velocity=94 time=0
EXTRACT: note_on channel=11 note=62 velocity=110 time=0
EXTRACT: note_on channel=11 note=67 velocity=96 time=0
EXTRACT: note_off channel=9 note=40 velocity=0 time=0.012254895833333333
EXTRACT: note_off channel=9 note=42 velocity=0 time=0
EXTRACT: note_on channel=9 note=42 velocity=41 time=0.13480385416666665
EXTRACT: note_off channel=9 note=42 velocity=0 time=0.012254895833333333
EXTRACT: note_off channel=0 note=36 velocity=0 time=0.06740192708333333
EXTRACT: note_off channel=6 note=69 velocity=0 time=0.05821075520833333
EXTRACT: note_on channel=0 note=36 velocity=116 time=0.009191171875
EXTRACT: note_on channel=9 note=42 velocity=44 time=0
EXTRACT: note_off channel=9 note=42 velocity=0 time=0.012254895833333333
EXTRACT: note_off channel=0 note=36 velocity=0 time=0.08884799479166666
EXTRACT: note_off channel=11 note=48 velocity=0 time=0.0367646875
EXTRACT: note_off channel=11 note=55 velocity=0 time=0
EXTRACT: note_off channel=11 note=60 velocity=0 time=0
EXTRACT: note_off channel=11 note=62 velocity=0 time=0
EXTRACT: note_off channel=11 note=67 velocity=0 time=0
EXTRACT: note_on channel=0 note=36 velocity=127 time=0.009191171875
EXTRACT: note_on channel=6 note=67 velocity=110 time=0
EXTRACT: note_on channel=9 note=36 velocity=121 time=0
EXTRACT: note_on channel=9 note=42 velocity=38 time=0
EXTRACT: note_on channel=11 note=48 velocity=110 time=0
EXTRACT: note_on channel=11 note=55 velocity=110 time=0
EXTRACT: note_on channel=11 note=60 velocity=94 time=0
EXTRACT: note_on channel=11 note=62 velocity=116 time=0
EXTRACT: note_on channel=11 note=67 velocity=95 time=0
EXTRACT: note_off channel=9 note=36 velocity=0 time=0.012254895833333333
EXTRACT: note_off channel=9 note=42 velocity=0 time=0
EXTRACT: note_on channel=9 note=42 velocity=97 time=0.13480385416666665
EXTRACT: note_off channel=9 note=42 velocity=0 time=0.012254895833333333
EXTRACT: note_off channel=6 note=67 velocity=0 time=0.0367646875
EXTRACT: note_off channel=0 note=36 velocity=0 time=0.03370096354166666
EXTRACT: note_off channel=11 note=48 velocity=0 time=0.05514703125
EXTRACT: note_off channel=11 note=55 velocity=0 time=0
EXTRACT: note_off channel=11 note=60 velocity=0 time=0
EXTRACT: note_off channel=11 note=62 velocity=0 time=0
EXTRACT: note_off channel=11 note=67 velocity=0 time=0
EXTRACT: note_on channel=0 note=36 velocity=120 time=0.009191171875
EXTRACT: note_on channel=6 note=67 velocity=102 time=0
EXTRACT: note_on channel=9 note=36 velocity=61 time=0
EXTRACT: note_on channel=9 note=42 velocity=51 time=0
EXTRACT: note_on channel=11 note=48 velocity=80 time=0
EXTRACT: note_on channel=11 note=55 velocity=89 time=0
EXTRACT: note_on channel=11 note=60 velocity=68 time=0
EXTRACT: note_on channel=11 note=62 velocity=76 time=0
EXTRACT: note_on channel=11 note=67 velocity=76 time=0
EXTRACT: note_off channel=9 note=36 velocity=0 time=0.012254895833333333
EXTRACT: note_off channel=9 note=42 velocity=0 time=0
EXTRACT: note_off channel=0 note=36 velocity=0 time=0.08578427083333333
EXTRACT: note_off channel=6 note=67 velocity=0 time=0.03370096354166666
EXTRACT: note_off channel=11 note=48 velocity=0 time=0.0061274479166666665
EXTRACT: note_off channel=11 note=55 velocity=0 time=0
EXTRACT: note_off channel=11 note=60 velocity=0 time=0
EXTRACT: note_off channel=11 note=62 velocity=0 time=0
EXTRACT: note_off channel=11 note=67 velocity=0 time=0
EXTRACT: note_on channel=0 note=36 velocity=119 time=0.009191171875
EXTRACT: note_on channel=6 note=64 velocity=92 time=0
EXTRACT: note_on channel=9 note=36 velocity=121 time=0
EXTRACT: note_on channel=9 note=42 velocity=41 time=0
EXTRACT: note_on channel=11 note=48 velocity=75 time=0
EXTRACT: note_on channel=11 note=55 velocity=83 time=0
EXTRACT: note_on channel=11 note=60 velocity=90 time=0
EXTRACT: note_on channel=11 note=62 velocity=96 time=0
EXTRACT: note_on channel=11 note=67 velocity=83 time=0
EXTRACT: note_off channel=9 note=36 velocity=0 time=0.012254895833333333
EXTRACT: note_off channel=9 note=42 velocity=0 time=0
EXTRACT: note_on channel=9 note=42 velocity=29 time=0.13480385416666665
EXTRACT: note_off channel=9 note=42 velocity=0 time=0.012254895833333333
EXTRACT: note_off channel=6 note=64 velocity=0 time=0.021446067708333332
EXTRACT: note_off channel=0 note=36 velocity=0 time=0.082720546875
EXTRACT: note_off channel=4 note=71 velocity=0 time=0.021446067708333332
EXTRACT: note_off channel=5 note=67 velocity=0 time=0
EXTRACT: note_off channel=11 note=48 velocity=0 time=0
EXTRACT: note_off channel=11 note=55 velocity=0 time=0
EXTRACT: note_off channel=11 note=60 velocity=0 time=0
EXTRACT: note_off channel=11 note=62 velocity=0 time=0
EXTRACT: note_off channel=11 note=67 velocity=0 time=0
EXTRACT: note_on channel=0 note=36 velocity=126 time=0.009191171875
EXTRACT: note_on channel=6 note=69 velocity=111 time=0
EXTRACT: note_on channel=9 note=40 velocity=110 time=0
EXTRACT: note_on channel=9 note=42 velocity=105 time=0
EXTRACT: note_on channel=11 note=48 velocity=106 time=0
EXTRACT: note_on channel=11 note=55 velocity=108 time=0
EXTRACT: note_on channel=11 note=60 velocity=106 time=0
EXTRACT: note_on channel=11 note=62 velocity=115 time=0
EXTRACT: note_on channel=11 note=67 velocity=106 time=0
EXTRACT: note_off channel=9 note=40 velocity=0 time=0.012254895833333333
EXTRACT: note_off channel=9 note=42 velocity=0 time=0
EXTRACT: note_on channel=9 note=42 velocity=50 time=0.13480385416666665
EXTRACT: note_off channel=9 note=42 velocity=0 time=0.012254895833333333
EXTRACT: note_off channel=6 note=69 velocity=0 time=0.052083307291666665
EXTRACT: note_off channel=0 note=36 velocity=0 time=0.03370096354166666
EXTRACT: note_off channel=11 note=48 velocity=0 time=0.03982841145833333
EXTRACT: note_off channel=11 note=55 velocity=0 time=0
EXTRACT: note_off channel=11 note=60 velocity=0 time=0
EXTRACT: note_off channel=11 note=62 velocity=0 time=0
EXTRACT: note_off channel=11 note=67 velocity=0 time=0
EXTRACT: note_on channel=0 note=36 velocity=124 time=0.009191171875
EXTRACT: note_on channel=6 note=67 velocity=108 time=0
EXTRACT: note_on channel=9 note=42 velocity=30 time=0
EXTRACT: note_on channel=11 note=48 velocity=69 time=0
EXTRACT: note_on channel=11 note=55 velocity=88 time=0
EXTRACT: note_on channel=11 note=60 velocity=74 time=0
EXTRACT: note_on channel=11 note=62 velocity=77 time=0
EXTRACT: note_on channel=11 note=67 velocity=77 time=0
EXTRACT: note_off channel=9 note=42 velocity=0 time=0.012254895833333333
EXTRACT: note_off channel=0 note=36 velocity=0 time=0.08884799479166666
EXTRACT: note_off channel=11 note=48 velocity=0 time=0.0367646875
EXTRACT: note_off channel=11 note=55 velocity=0 time=0
EXTRACT: note_off channel=11 note=60 velocity=0 time=0
EXTRACT: note_off channel=11 note=62 velocity=0 time=0
EXTRACT: note_off channel=11 note=67 velocity=0 time=0
EXTRACT: note_on channel=0 note=36 velocity=116 time=0.009191171875
EXTRACT: note_on channel=9 note=36 velocity=56 time=0
EXTRACT: note_on channel=9 note=40 velocity=49 time=0
EXTRACT: note_on channel=9 note=42 velocity=39 time=0
EXTRACT: note_on channel=11 note=48 velocity=72 time=0
EXTRACT: note_on channel=11 note=55 velocity=81 time=0
EXTRACT: note_on channel=11 note=60 velocity=79 time=0
EXTRACT: note_on channel=11 note=62 velocity=89 time=0
EXTRACT: note_on channel=11 note=67 velocity=81 time=0
EXTRACT: note_off channel=9 note=36 velocity=0 time=0.012254895833333333
EXTRACT: note_off channel=9 note=40 velocity=0 time=0
EXTRACT: note_off channel=9 note=42 velocity=0 time=0
EXTRACT: note_off channel=6 note=67 velocity=0 time=0.012254895833333333
EXTRACT: note_off channel=0 note=36 velocity=0 time=0.09191171875
EXTRACT: note_off channel=11 note=48 velocity=0 time=0.021446067708333332
EXTRACT: note_off channel=11 note=55 velocity=0 time=0
EXTRACT: note_off channel=11 note=60 velocity=0 time=0
EXTRACT: note_off channel=11 note=62 velocity=0 time=0
EXTRACT: note_off channel=11 note=67 velocity=0 time=0
EXTRACT: note_on channel=0 note=36 velocity=126 time=0.009191171875
EXTRACT: note_on channel=6 note=64 velocity=110 time=0
EXTRACT: note_on channel=9 note=36 velocity=119 time=0
EXTRACT: note_on channel=9 note=42 velocity=100 time=0
EXTRACT: note_on channel=11 note=48 velocity=99 time=0
EXTRACT: note_on channel=11 note=55 velocity=100 time=0
EXTRACT: note_on channel=11 note=60 velocity=98 time=0
EXTRACT: note_on channel=11 note=62 velocity=109 time=0
EXTRACT: note_on channel=11 note=67 velocity=94 time=0
EXTRACT: note_off channel=9 note=36 velocity=0 time=0.012254895833333333
EXTRACT: note_off channel=9 note=42 velocity=0 time=0
EXTRACT: note_on channel=9 note=40 velocity=98 time=0.13480385416666665
EXTRACT: note_on channel=9 note=42 velocity=23 time=0
EXTRACT: note_off channel=9 note=40 velocity=0 time=0.012254895833333333
EXTRACT: note_off channel=9 note=42 velocity=0 time=0
EXTRACT: note_off channel=0 note=36 velocity=0 time=0.08578427083333333
EXTRACT: note_on channel=0 note=36 velocity=123 time=0.04901958333333333
EXTRACT: note_on channel=9 note=36 velocity=64 time=0
EXTRACT: note_on channel=9 note=42 velocity=37 time=0
EXTRACT: note_off channel=9 note=36 velocity=0 time=0.012254895833333333
EXTRACT: note_off channel=9 note=42 velocity=0 time=0
EXTRACT: note_off channel=6 note=64 velocity=0 time=0.042892135416666664
EXTRACT: note_on channel=9 note=42 velocity=34 time=0.09191171875
EXTRACT: note_off channel=9 note=42 velocity=0 time=0.012254895833333333
EXTRACT: note_off channel=0 note=36 velocity=0 time=0.07659309895833333
EXTRACT: note_off channel=11 note=48 velocity=0 time=0.04901958333333333
EXTRACT: note_off channel=11 note=55 velocity=0 time=0
EXTRACT: note_off channel=11 note=60 velocity=0 time=0
EXTRACT: note_off channel=11 note=62 velocity=0 time=0
EXTRACT: note_off channel=11 note=67 velocity=0 time=0
EXTRACT: note_on channel=0 note=36 velocity=121 time=0.009191171875
EXTRACT: note_on channel=6 note=69 velocity=123 time=0
EXTRACT: note_on channel=9 note=40 velocity=123 time=0
EXTRACT: note_on channel=9 note=42 velocity=96 time=0
EXTRACT: note_on channel=11 note=48 velocity=108 time=0
EXTRACT: note_on channel=11 note=55 velocity=108 time=0
EXTRACT: note_on channel=11 note=60 velocity=108 time=0
EXTRACT: note_on channel=11 note=62 velocity=115 time=0
EXTRACT: note_on channel=11 note=67 velocity=101 time=0
EXTRACT: note_off channel=9 note=40 velocity=0 time=0.012254895833333333
EXTRACT: note_off channel=9 note=42 velocity=0 time=0
EXTRACT: note_on channel=9 note=42 velocity=50 time=0.13480385416666665
EXTRACT: note_off channel=9 note=42 velocity=0 time=0.012254895833333333
EXTRACT: note_off channel=0 note=36 velocity=0 time=0.073529375
EXTRACT: note_off channel=6 note=69 velocity=0 time=0.0367646875
EXTRACT: note_off channel=11 note=48 velocity=0 time=0.015318619791666667
EXTRACT: note_off channel=11 note=55 velocity=0 time=0
EXTRACT: note_off channel=11 note=60 velocity=0 time=0
EXTRACT: note_off channel=11 note=62 velocity=0 time=0
EXTRACT: note_off channel=11 note=67 velocity=0 time=0
EXTRACT: note_on channel=0 note=36 velocity=117 time=0.009191171875
EXTRACT: note_on channel=9 note=42 velocity=38 time=0
EXTRACT: note_on channel=11 note=48 velocity=71 time=0
EXTRACT: note_on channel=11 note=55 velocity=85 time=0
EXTRACT: note_on channel=11 note=60 velocity=66 time=0
EXTRACT: note_on channel=11 note=62 velocity=70 time=0
EXTRACT: note_on channel=11 note=67 velocity=70 time=0
EXTRACT: note_off channel=9 note=42 velocity=0 time=0.012254895833333333
EXTRACT: note_off channel=0 note=36 velocity=0 time=0.1102940625
EXTRACT: note_off channel=11 note=48 velocity=0 time=0.015318619791666667
EXTRACT: note_off channel=11 note=55 velocity=0 time=0
EXTRACT: note_off channel=11 note=60 velocity=0 time=0
EXTRACT: note_off channel=11 note=62 velocity=0 time=0
EXTRACT: note_off channel=11 note=67 velocity=0 time=0
EXTRACT: note_on channel=0 note=36 velocity=123 time=0.009191171875
EXTRACT: note_on channel=6 note=67 velocity=114 time=0
EXTRACT: note_on channel=9 note=36 velocity=116 time=0
EXTRACT: note_on channel=9 note=42 velocity=33 time=0
EXTRACT: note_on channel=11 note=48 velocity=102 time=0
EXTRACT: note_on channel=11 note=55 velocity=99 time=0
EXTRACT: note_on channel=11 note=60 velocity=99 time=0
EXTRACT: note_on channel=11 note=62 velocity=117 time=0
EXTRACT: note_on channel=11 note=67 velocity=87 time=0
EXTRACT: note_off channel=9 note=36 velocity=0 time=0.012254895833333333
EXTRACT: note_off channel=9 note=42 velocity=0 time=0
EXTRACT: note_on channel=9 note=42 velocity=104 time=0.13480385416666665
EXTRACT: note_off channel=9 note=42 velocity=0 time=0.012254895833333333
EXTRACT: note_off channel=6 note=67 velocity=0 time=0.009191171875
EXTRACT: note_off channel=0 note=36 velocity=0 time=0.021446067708333332
EXTRACT: note_off channel=11 note=48 velocity=0 time=0.09497544270833333
EXTRACT: note_off channel=11 note=55 velocity=0 time=0
EXTRACT: note_off channel=11 note=60 velocity=0 time=0
EXTRACT: note_off channel=11 note=62 velocity=0 time=0
EXTRACT: note_off channel=11 note=67 velocity=0 time=0
EXTRACT: note_on channel=0 note=36 velocity=110 time=0.009191171875
EXTRACT: note_on channel=6 note=67 velocity=105 time=0
EXTRACT: note_on channel=9 note=42 velocity=47 time=0
EXTRACT: note_on channel=11 note=48 velocity=68 time=0
EXTRACT: note_on channel=11 note=55 velocity=89 time=0
EXTRACT: note_on channel=11 note=60 velocity=77 time=0
EXTRACT: note_on channel=11 note=62 velocity=80 time=0
EXTRACT: note_on channel=11 note=67 velocity=79 time=0
EXTRACT: note_off channel=9 note=42 velocity=0 time=0.012254895833333333
EXTRACT: note_off channel=6 note=67 velocity=0 time=0.09497544270833333
EXTRACT: note_off channel=0 note=36 velocity=0 time=0.012254895833333333
EXTRACT: note_off channel=11 note=48 velocity=0 time=0.01838234375
EXTRACT: note_off channel=11 note=55 velocity=0 time=0
EXTRACT: note_off channel=11 note=60 velocity=0 time=0
EXTRACT: note_off channel=11 note=62 velocity=0 time=0
EXTRACT: note_off channel=11 note=67 velocity=0 time=0
EXTRACT: note_on channel=0 note=36 velocity=124 time=0.009191171875
EXTRACT: note_on channel=6 note=64 velocity=106 time=0
EXTRACT: note_on channel=9 note=36 velocity=114 time=0
EXTRACT: note_on channel=9 note=46 velocity=105 time=0
EXTRACT: note_on channel=11 note=48 velocity=97 time=0
EXTRACT: note_on channel=11 note=55 velocity=99 time=0
EXTRACT: note_on channel=11 note=60 velocity=91 time=0
EXTRACT: note_on channel=11 note=62 velocity=106 time=0
EXTRACT: note_on channel=11 note=67 velocity=92 time=0
EXTRACT: note_off channel=9 note=36 velocity=0 time=0.012254895833333333
EXTRACT: note_off channel=9 note=46 velocity=0 time=0
EXTRACT: note_off channel=6 note=64 velocity=0 time=0.14093130208333332
EXTRACT: note_off channel=10 note=55 velocity=0 time=0.101102890625
EXTRACT: note_off channel=10 note=64 velocity=0 time=0.030637239583333333
EXTRACT: note_off channel=0 note=36 velocity=0 time=0
EXTRACT: note_off channel=11 note=48 velocity=0 time=0
EXTRACT: note_off channel=11 note=55 velocity=0 time=0
EXTRACT: note_off channel=11 note=60 velocity=0 time=0
EXTRACT: note_off channel=11 note=62 velocity=0 time=0
EXTRACT: note_off channel=11 note=67 velocity=0 time=0
EXTRACT: control_change channel=4 control=84 value=70 time=0.0030637239583333332
EXTRACT: control_change channel=5 control=84 value=66 time=0
EXTRACT: note_off channel=10 note=59 velocity=0 time=0.0030637239583333332
EXTRACT: control_change channel=4 control=5 value=74 time=0
EXTRACT: control_change channel=5 control=5 value=74 time=0
EXTRACT: note_on channel=0 note=36 velocity=120 time=0.0030637239583333332
EXTRACT: note_on channel=4 note=76 velocity=111 time=0
EXTRACT: note_on channel=5 note=72 velocity=109 time=0
EXTRACT: note_on channel=6 note=69 velocity=115 time=0
EXTRACT: note_on channel=9 note=40 velocity=127 time=0
EXTRACT: note_on channel=9 note=42 velocity=101 time=0
EXTRACT: note_on channel=11 note=48 velocity=102 time=0
EXTRACT: note_on channel=11 note=55 velocity=113 time=0
EXTRACT: note_on channel=11 note=60 velocity=97 time=0
EXTRACT: note_on channel=11 note=62 velocity=109 time=0
EXTRACT: note_on channel=11 note=67 velocity=100 time=0
EXTRACT: note_off channel=9 note=40 velocity=0 time=0.012254895833333333
EXTRACT: note_off channel=9 note=42 velocity=0 time=0
EXTRACT: note_on channel=9 note=42 velocity=50 time=0.13480385416666665
EXTRACT: note_off channel=9 note=42 velocity=0 time=0.012254895833333333
EXTRACT: note_off channel=6 note=69 velocity=0 time=0.03370096354166666
EXTRACT: note_off channel=0 note=36 velocity=0 time=0.09191171875
EXTRACT: note_off channel=11 note=48 velocity=0 time=0
EXTRACT: note_off channel=11 note=55 velocity=0 time=0
EXTRACT: note_off channel=11 note=60 velocity=0 time=0
EXTRACT: note_off channel=11 note=62 velocity=0 time=0
EXTRACT: note_off channel=11 note=67 velocity=0 time=0
EXTRACT: note_on channel=0 note=36 velocity=120 time=0.009191171875
EXTRACT: note_on channel=6 note=67 velocity=105 time=0
EXTRACT: note_on channel=9 note=40 velocity=113 time=0
EXTRACT: note_on channel=9 note=46 velocity=103 time=0
EXTRACT: note_on channel=11 note=48 velocity=74 time=0
EXTRACT: note_on channel=11 note=55 velocity=87 time=0
EXTRACT: note_on channel=11 note=60 velocity=80 time=0
EXTRACT: note_on channel=11 note=62 velocity=91 time=0
EXTRACT: note_on channel=11 note=67 velocity=86 time=0
EXTRACT: note_off channel=9 note=40 velocity=0 time=0.012254895833333333
EXTRACT: note_off channel=9 note=46 velocity=0 time=0
EXTRACT: note_off channel=11 note=48 velocity=0 time=0.12561268229166667
EXTRACT: note_off channel=11 note=55 velocity=0 time=0
EXTRACT: note_off channel=11 note=60 velocity=0 time=0
EXTRACT: note_off channel=11 note=62 velocity=0 time=0
EXTRACT: note_off channel=11 note=67 velocity=0 time=0
EXTRACT: note_off channel=6 note=67 velocity=0 time=0.0061274479166666665
EXTRACT: note_on channel=9 note=40 velocity=124 time=0.0030637239583333332
EXTRACT: note_on channel=11 note=48 velocity=92 time=0
EXTRACT: note_on channel=11 note=55 velocity=98 time=0
EXTRACT: note_on channel=11 note=60 velocity=88 time=0
EXTRACT: note_on channel=11 note=62 velocity=94 time=0
EXTRACT: note_on channel=11 note=67 velocity=76 time=0
EXTRACT: note_off channel=9 note=40 velocity=0 time=0.012254895833333333
EXTRACT: note_off channel=0 note=36 velocity=0 time=0.119485234375
EXTRACT: note_off channel=11 note=48 velocity=0 time=0.0061274479166666665
EXTRACT: note_off channel=11 note=55 velocity=0 time=0
EXTRACT: note_off channel=11 note=60 velocity=0 time=0
EXTRACT: note_off channel=11 note=62 velocity=0 time=0
EXTRACT: note_off channel=11 note=67 velocity=0 time=0
EXTRACT: note_on channel=0 note=29 velocity=127 time=0.009191171875
EXTRACT: note_on channel=6 note=64 velocity=113 time=0
EXTRACT: note_on channel=9 note=36 velocity=115 time=0
EXTRACT: note_on channel=9 note=49 velocity=85 time=0
EXTRACT: note_on channel=10 note=57 velocity=104 time=0
EXTRACT: note_on channel=10 note=60 velocity=109 time=0
EXTRACT: note_on channel=10 note=64 velocity=101 time=0
EXTRACT: note_on channel=11 note=53 velocity=114 time=0
EXTRACT: note_on channel=11 note=57 velocity=100 time=0
EXTRACT: note_on channel=11 note=60 velocity=112 time=0
EXTRACT: note_on channel=11 note=64 velocity=116 time=0
EXTRACT: note_on channel=11 note=67 velocity=102 time=0
EXTRACT: note_off channel=9 note=36 velocity=0 time=0.012254895833333333
EXTRACT: note_off channel=9 note=49 velocity=0 time=0
EXTRACT: note_off channel=0 note=29 velocity=0 time=0.22671557291666666
EXTRACT: note_off channel=6 note=64 velocity=0 time=0.01838234375
EXTRACT: note_on channel=0 note=29 velocity=123 time=0.0367646875
EXTRACT: note_on channel=9 note=42 velocity=43 time=0
EXTRACT: note_off channel=9 note=42 velocity=0 time=0.012254895833333333
EXTRACT: note_on channel=9 note=42 velocity=41 time=0.13480385416666665
EXTRACT: note_off channel=9 note=42 velocity=0 time=0.012254895833333333
EXTRACT: note_off channel=0 note=29 velocity=0 time=0.07965682291666666
EXTRACT: note_off channel=11 note=53 velocity=0 time=0.045955859375
EXTRACT: note_off channel=11 note=57 velocity=0 time=0
EXTRACT: note_off channel=11 note=60 velocity=0 time=0
EXTRACT: note_off channel=11 note=64 velocity=0 time=0
EXTRACT: note_off channel=11 note=67 velocity=0 time=0
EXTRACT: note_on channel=0 note=29 velocity=127 time=0.009191171875
EXTRACT: note_on channel=6 note=69 velocity=118 time=0
EXTRACT: note_on channel=9 note=40 velocity=122 time=0
EXTRACT: note_on channel=9 note=42 velocity=104 time=0
EXTRACT: note_on channel=11 note=53 velocity=117 time=0
EXTRACT: note_on channel=11 note=57 velocity=109 time=0
EXTRACT: note_on channel=11 note=60 velocity=113 time=0
EXTRACT: note_on channel=11 note=64 velocity=106 time=0
EXTRACT: note_on channel=11 note=67 velocity=93 time=0
EXTRACT: note_off channel=9 note=40 velocity=0 time=0.012254895833333333
EXTRACT: note_off channel=9 note=42 velocity=0 time=0
EXTRACT: note_on channel=9 note=42 velocity=45 time=0.13480385416666665
EXTRACT: note_off channel=9 note=42 velocity=0 time=0.012254895833333333
EXTRACT: note_off channel=0 note=29 velocity=0 time=0.082720546875
EXTRACT: note_off channel=6 note=69 velocity=0 time=0.027573515625
EXTRACT: note_off channel=11 note=57 velocity=0 time=0.015318619791666667
EXTRACT: note_off channel=11 note=60 velocity=0 time=0
EXTRACT: note_off channel=11 note=64 velocity=0 time=0
EXTRACT: note_off channel=11 note=67 velocity=0 time=0
EXTRACT: note_off channel=11 note=53 velocity=0 time=0.0061274479166666665
EXTRACT: note_on channel=0 note=29 velocity=107 time=0.0030637239583333332
EXTRACT: note_on channel=9 note=42 velocity=43 time=0
EXTRACT: note_on channel=11 note=53 velocity=74 time=0
EXTRACT: note_on channel=11 note=57 velocity=76 time=0
EXTRACT: note_on channel=11 note=60 velocity=66 time=0
EXTRACT: note_on channel=11 note=64 velocity=71 time=0
EXTRACT: note_on channel=11 note=67 velocity=54 time=0
EXTRACT: note_off channel=9 note=42 velocity=0 time=0.012254895833333333
EXTRACT: note_off channel=0 note=29 velocity=0 time=0.119485234375
EXTRACT: note_off channel=11 note=53 velocity=0 time=0.0061274479166666665
EXTRACT: note_off channel=11 note=57 velocity=0 time=0
EXTRACT: note_off channel=11 note=60 velocity=0 time=0
EXTRACT: note_off channel=11 note=64 velocity=0 time=0
EXTRACT: note_off channel=11 note=67 velocity=0 time=0
EXTRACT: note_on channel=0 note=29 velocity=125 time=0.009191171875
EXTRACT: note_on channel=6 note=67 velocity=109 time=0
EXTRACT: note_on channel=9 note=36 velocity=117 time=0
EXTRACT: note_on channel=9 note=42 velocity=42 time=0
EXTRACT: note_on channel=11 note=53 velocity=109 time=0
EXTRACT: note_on channel=11 note=57 velocity=98 time=0
EXTRACT: note_on channel=11 note=60 velocity=102 time=0
EXTRACT: note_on channel=11 note=64 velocity=100 time=0
EXTRACT: note_on channel=11 note=67 velocity=89 time=0
EXTRACT: note_off channel=9 note=36 velocity=0 time=0.012254895833333333
EXTRACT: note_off channel=9 note=42 velocity=0 time=0
EXTRACT: note_on channel=9 note=42 velocity=99 time=0.13480385416666665
EXTRACT: note_off channel=9 note=42 velocity=0 time=0.012254895833333333
EXTRACT: note_off channel=6 note=67 velocity=0 time=0.024509791666666666
EXTRACT: note_off channel=11 note=53 velocity=0 time=0.012254895833333333
EXTRACT: note_off channel=0 note=29 velocity=0 time=0.027573515625
EXTRACT: note_off channel=11 note=57 velocity=0 time=0.061274479166666666
EXTRACT: note_off channel=11 note=60 velocity=0 time=0
EXTRACT: note_off channel=11 note=64 velocity=0 time=0
EXTRACT: note_off channel=11 note=67 velocity=0 time=0
EXTRACT: note_on channel=0 note=29 velocity=112 time=0.009191171875
EXTRACT: note_on channel=6 note=67 velocity=98 time=0
EXTRACT: note_on channel=9 note=36 velocity=44 time=0
EXTRACT: note_on channel=9 note=42 velocity=51 time=0
EXTRACT: note_on channel=11 note=53 velocity=81 time=0
EXTRACT: note_on channel=11 note=57 velocity=77 time=0
EXTRACT: note_on channel=11 note=60 velocity=79 time=0
EXTRACT: note_on channel=11 note=64 velocity=75 time=0
EXTRACT: note_on channel=11 note=67 velocity=71 time=0
EXTRACT: note_off channel=9 note=36 velocity=0 time=0.012254895833333333
EXTRACT: note_off channel=9 note=42 velocity=0 time=0
EXTRACT: note_off channel=0 note=29 velocity=0 time=0.08884799479166666
EXTRACT: note_off channel=6 note=67 velocity=0 time=0.015318619791666667
EXTRACT: note_off channel=11 note=53 velocity=0 time=0.021446067708333332
EXTRACT: note_off channel=11 note=57 velocity=0 time=0
EXTRACT: note_off channel=11 note=60 velocity=0 time=0
EXTRACT: note_off channel=11 note=64 velocity=0 time=0
EXTRACT: note_off channel=11 note=67 velocity=0 time=0
EXTRACT: note_on channel=0 note=29 velocity=120 time=0.009191171875
EXTRACT: note_on channel=6 note=64 velocity=95 time=0
EXTRACT: note_on channel=9 note=36 velocity=119 time=0
EXTRACT: note_on channel=9 note=42 velocity=42 time=0
EXTRACT: note_on channel=11 note=53 velocity=94 time=0
EXTRACT: note_on channel=11 note=57 velocity=95 time=0
EXTRACT: note_on channel=11 note=60 velocity=93 time=0
EXTRACT: note_on channel=11 note=64 velocity=93 time=0
EXTRACT: note_on channel=11 note=67 velocity=86 time=0
EXTRACT: note_off channel=9 note=36 velocity=0 time=0.012254895833333333
EXTRACT: note_off channel=9 note=42 velocity=0 time=0
EXTRACT: note_on channel=9 note=42 velocity=28 time=0.13480385416666665
EXTRACT: note_off channel=9 note=42 velocity=0 time=0.012254895833333333
EXTRACT: note_off channel=6 note=64 velocity=0 time=0.021446067708333332
EXTRACT: note_off channel=0 note=29 velocity=0 time=0.082720546875
EXTRACT: note_off channel=4 note=76 velocity=0 time=0.021446067708333332
EXTRACT: note_off channel=5 note=72 velocity=0 time=0
EXTRACT: note_off channel=11 note=53 velocity=0 time=0
EXTRACT: note_off channel=11 note=57 velocity=0 time=0
EXTRACT: note_off channel=11 note=60 velocity=0 time=0
EXTRACT: note_off channel=11 note=64 velocity=0 time=0
EXTRACT: note_off channel=11 note=67 velocity=0 time=0
EXTRACT: note_on channel=0 note=29 velocity=115 time=0.009191171875
EXTRACT: note_on channel=6 note=69 velocity=120 time=0
EXTRACT: note_on channel=9 note=40 velocity=125 time=0
EXTRACT: note_on channel=9 note=42 velocity=101 time=0
EXTRACT: note_on channel=11 note=53 velocity=112 time=0
EXTRACT: note_on channel=11 note=57 velocity=104 time=0
EXTRACT: note_on channel=11 note=60 velocity=113 time=0
EXTRACT: note_on channel=11 note=64 velocity=107 time=0
EXTRACT: note_on channel=11 note=67 velocity=107 time=0
EXTRACT: note_off channel=9 note=40 velocity=0 time=0.012254895833333333
EXTRACT: note_off channel=9 note=42 velocity=0 time=0
EXTRACT: note_on channel=9 note=42 velocity=48 time=0.13480385416666665
EXTRACT: note_off channel=9 note=42 velocity=0 time=0.012254895833333333
EXTRACT: note_off channel=6 note=69 velocity=0 time=0.05821075520833333
EXTRACT: note_off channel=0 note=29 velocity=0 time=0.042892135416666664
EXTRACT: note_off channel=11 note=53 velocity=0 time=0.024509791666666666
EXTRACT: note_off channel=11 note=57 velocity=0 time=0
EXTRACT: note_off channel=11 note=60 velocity=0 time=0
EXTRACT: note_off channel=11 note=64 velocity=0 time=0
EXTRACT: note_off channel=11 note=67 velocity=0 time=0
EXTRACT: note_on channel=0 note=29 velocity=126 time=0.009191171875
EXTRACT: note_on channel=6 note=67 velocity=103 time=0
EXTRACT: note_on channel=9 note=42 velocity=35 time=0
EXTRACT: note_on channel=11 note=53 velocity=89 time=0
EXTRACT: note_on channel=11 note=57 velocity=83 time=0
EXTRACT: note_on channel=11 note=60 velocity=89 time=0
EXTRACT: note_on channel=11 note=64 velocity=86 time=0
EXTRACT: note_on channel=11 note=67 velocity=78 time=0
EXTRACT: note_off channel=9 note=42 velocity=0 time=0.012254895833333333
EXTRACT: note_off channel=10 note=60 velocity=0 time=0.06740192708333333
EXTRACT: note_off channel=10 note=57 velocity=0 time=0.015318619791666667
EXTRACT: note_off channel=0 note=29 velocity=0 time=0.012254895833333333
EXTRACT: note_off channel=11 note=53 velocity=0 time=0.030637239583333333
EXTRACT: note_off channel=11 note=57 velocity=0 time=0
EXTRACT: note_off channel=11 note=60 velocity=0 time=0
EXTRACT: note_off channel=11 note=64 velocity=0 time=0
EXTRACT: note_off channel=11 note=67 velocity=0 time=0
EXTRACT: note_off channel=10 note=64 velocity=0 time=0.0061274479166666665
EXTRACT: note_on channel=0 note=29 velocity=114 time=0.0030637239583333332
EXTRACT: note_on channel=9 note=36 velocity=58 time=0
EXTRACT: note_on channel=9 note=42 velocity=34 time=0
EXTRACT: note_on channel=11 note=53 velocity=87 time=0
EXTRACT: note_on channel=11 note=57 velocity=86 time=0
EXTRACT: note_on channel=11 note=60 velocity=90 time=0
EXTRACT: note_on channel=11 note=64 velocity=98 time=0
EXTRACT: note_on channel=11 note=67 velocity=66 time=0
EXTRACT: note_off channel=9 note=36 velocity=0 time=0.012254895833333333
EXTRACT: note_off channel=9 note=42 velocity=0 time=0
EXTRACT: note_off channel=6 note=67 velocity=0 time=0.012254895833333333
EXTRACT: note_off channel=0 note=29 velocity=0 time=0.08884799479166666
EXTRACT: note_off channel=11 note=53 velocity=0 time=0.024509791666666666
EXTRACT: note_off channel=11 note=57 velocity=0 time=0
EXTRACT: note_off channel=11 note=60 velocity=0 time=0
EXTRACT: note_off channel=11 note=64 velocity=0 time=0
EXTRACT: note_off channel=11 note=67 velocity=0 time=0
EXTRACT: note_on channel=0 note=38 velocity=111 time=0.009191171875
EXTRACT: note_on channel=6 note=64 velocity=108 time=0
EXTRACT: note_on channel=9 note=36 velocity=120 time=0
EXTRACT: note_on channel=9 note=42 velocity=99 time=0
EXTRACT: note_on channel=10 note=53 velocity=106 time=0
EXTRACT: note_on channel=10 note=57 velocity=116 time=0
EXTRACT: note_on channel=10 note=64 velocity=105 time=0
EXTRACT: note_on channel=11 note=50 velocity=107 time=0
EXTRACT: note_on channel=11 note=57 velocity=94 time=0
EXTRACT: note_on channel=11 note=60 velocity=91 time=0
EXTRACT: note_on channel=11 note=64 velocity=95 time=0
EXTRACT: note_on channel=11 note=67 velocity=86 time=0
EXTRACT: note_off channel=9 note=36 velocity=0 time=0.012254895833333333
EXTRACT: note_off channel=9 note=42 velocity=0 time=0
EXTRACT: note_on channel=9 note=42 velocity=23 time=0.13480385416666665
EXTRACT: note_off channel=9 note=42 velocity=0 time=0.012254895833333333
EXTRACT: note_off channel=0 note=38 velocity=0 time=0.0367646875
EXTRACT: note_on channel=0 note=38 velocity=120 time=0.09803916666666666
EXTRACT: note_on channel=9 note=42 velocity=32 time=0
EXTRACT: note_off channel=9 note=42 velocity=0 time=0.012254895833333333
EXTRACT: note_off channel=6 note=64 velocity=0 time=0.03370096354166666
EXTRACT: note_on channel=9 note=42 velocity=35 time=0.101102890625
EXTRACT: note_off channel=9 note=42 velocity=0 time=0.012254895833333333
EXTRACT: note_off channel=0 note=38 velocity=0 time=0.07659309895833333
EXTRACT: note_off channel=11 note=50 velocity=0 time=0.04901958333333333
EXTRACT: note_off channel=11 note=57 velocity=0 time=0
EXTRACT: note_off channel=11 note=60 velocity=0 time=0
EXTRACT: note_off channel=11 note=64 velocity=0 time=0
EXTRACT: note_off channel=11 note=67 velocity=0 time=0
EXTRACT: note_on channel=0 note=38 velocity=124 time=0.009191171875
EXTRACT: note_on channel=6 note=69 velocity=127 time=0
EXTRACT: note_on channel=9 note=40 velocity=118 time=0
EXTRACT: note_on channel=9 note=42 velocity=97 time=0
EXTRACT: note_on channel=11 note=50 velocity=113 time=0
EXTRACT: note_on channel=11 note=57 velocity=102 time=0
EXTRACT: note_on channel=11 note=60 velocity=102 time=0
EXTRACT: note_on channel=11 note=64 velocity=104 time=0
EXTRACT: note_on channel=11 note=67 velocity=96 time=0
EXTRACT: note_off channel=9 note=40 velocity=0 time=0.012254895833333333
EXTRACT: note_off channel=9 note=42 velocity=0 time=0
EXTRACT: note_on channel=9 note=42 velocity=50 time=0.13480385416666665
EXTRACT: note_off channel=9 note=42 velocity=0 time=0.012254895833333333
EXTRACT: note_off channel=0 note=38 velocity=0 time=0.073529375
EXTRACT: note_off channel=6 note=69 velocity=0 time=0.045955859375
EXTRACT: note_off channel=11 note=50 velocity=0 time=0.0061274479166666665
EXTRACT: note_off channel=11 note=57 velocity=0 time=0
EXTRACT: note_off channel=11 note=60 velocity=0 time=0
EXTRACT: note_off channel=11 note=64 velocity=0 time=0
EXTRACT: note_off channel=11 note=67 velocity=0 time=0
EXTRACT: note_on channel=0 note=38 velocity=120 time=0.009191171875
EXTRACT: note_on channel=9 note=42 velocity=38 time=0
EXTRACT: note_on channel=11 note=50 velocity=79 time=0
EXTRACT: note_on channel=11 note=57 velocity=75 time=0
EXTRACT: note_on channel=11 note=60 velocity=67 time=0
EXTRACT: note_on channel=11 note=64 velocity=75 time=0
EXTRACT: note_on channel=11 note=67 velocity=60 time=0
EXTRACT: note_off channel=9 note=42 velocity=0 time=0.012254895833333333
EXTRACT: note_off channel=0 note=38 velocity=0 time=0.1102940625
EXTRACT: note_off channel=11 note=50 velocity=0 time=0.015318619791666667
EXTRACT: note_off channel=11 note=57 velocity=0 time=0
EXTRACT: note_off channel=11 note=60 velocity=0 time=0
EXTRACT: note_off channel=11 note=64 velocity=0 time=0
EXTRACT: note_off channel=11 note=67 velocity=0 time=0
EXTRACT: note_on channel=0 note=38 velocity=117 time=0.009191171875
EXTRACT: note_on channel=6 note=67 velocity=116 time=0
EXTRACT: note_on channel=9 note=36 velocity=116 time=0
EXTRACT: note_on channel=9 note=42 velocity=32 time=0
EXTRACT: note_on channel=11 note=50 velocity=105 time=0
EXTRACT: note_on channel=11 note=57 velocity=89 time=0
EXTRACT: note_on channel=11 note=60 velocity=93 time=0
EXTRACT: note_on channel=11 note=64 velocity=95 time=0
EXTRACT: note_on channel=11 note=67 velocity=82 time=0
EXTRACT: note_off channel=9 note=36 velocity=0 time=0.012254895833333333
EXTRACT: note_off channel=9 note=42 velocity=0 time=0
EXTRACT: note_on channel=9 note=42 velocity=101 time=0.13480385416666665
EXTRACT: note_off channel=9 note=42 velocity=0 time=0.012254895833333333
EXTRACT: note_off channel=6 note=67 velocity=0 time=0.027573515625
EXTRACT: note_off channel=0 note=38 velocity=0 time=0.027573515625
EXTRACT: note_off channel=11 note=50 velocity=0 time=0.07046565104166666
EXTRACT: note_off channel=11 note=57 velocity=0 time=0
EXTRACT: note_off channel=11 note=60 velocity=0 time=0
EXTRACT: note_off channel=11 note=64 velocity=0 time=0
EXTRACT: note_off channel=11 note=67 velocity=0 time=0
EXTRACT: note_on channel=0 note=38 velocity=113 time=0.009191171875
EXTRACT: note_on channel=6 note=67 velocity=99 time=0
EXTRACT: note_on channel=9 note=36 velocity=58 time=0
EXTRACT: note_on channel=9 note=42 velocity=41 time=0
EXTRACT: note_on channel=11 note=50 velocity=78 time=0
EXTRACT: note_on channel=11 note=57 velocity=79 time=0
EXTRACT: note_on channel=11 note=60 velocity=82 time=0
EXTRACT: note_on channel=11 note=64 velocity=78 time=0
EXTRACT: note_on channel=11 note=67 velocity=61 time=0
EXTRACT: note_off channel=9 note=36 velocity=0 time=0.012254895833333333
EXTRACT: note_off channel=9 note=42 velocity=0 time=0
EXTRACT: note_off channel=0 note=38 velocity=0 time=0.1102940625
EXTRACT: note_off channel=6 note=67 velocity=0 time=0.015318619791666667
EXTRACT: note_off channel=11 note=50 velocity=0 time=0
EXTRACT: note_off channel=11 note=57 velocity=0 time=0
EXTRACT: note_off channel=11 note=60 velocity=0 time=0
EXTRACT: note_off channel=11 note=64 velocity=0 time=0
EXTRACT: note_off channel=11 note=67 velocity=0 time=0
EXTRACT: note_on channel=0 note=38 velocity=117 time=0.009191171875
EXTRACT: note_on channel=6 note=64 velocity=97 time=0
EXTRACT: note_on channel=9 note=36 velocity=116 time=0
EXTRACT: note_on channel=9 note=42 velocity=43 time=0
EXTRACT: note_on channel=11 note=50 velocity=100 time=0
EXTRACT: note_on channel=11 note=57 velocity=94 time=0
EXTRACT: note_on channel=11 note=60 velocity=101 time=0
EXTRACT: note_on channel=11 note=64 velocity=101 time=0
EXTRACT: note_on channel=11 note=67 velocity=90 time=0
EXTRACT: note_off channel=9 note=36 velocity=0 time=0.012254895833333333
EXTRACT: note_off channel=9 note=42 velocity=0 time=0
EXTRACT: note_on channel=9 note=42 velocity=42 time=0.13480385416666665
EXTRACT: note_off channel=9 note=42 velocity=0 time=0.012254895833333333
EXTRACT: note_off channel=6 note=64 velocity=0 time=0.015318619791666667
EXTRACT: note_off channel=0 note=38 velocity=0 time=0.061274479166666666
EXTRACT: note_off channel=11 note=50 velocity=0 time=0.04901958333333333
EXTRACT: note_off channel=11 note=57 velocity=0 time=0
EXTRACT: note_off channel=11 note=60 velocity=0 time=0
EXTRACT: note_off channel=11 note=64 velocity=0 time=0
EXTRACT: note_off channel=11 note=67 velocity=0 time=0
EXTRACT: control_change channel=4 control=84 value=77 time=0.0030637239583333332
EXTRACT: control_change channel=5 control=84 value=73 time=0
EXTRACT: control_change channel=4 control=5 value=80 time=0.0030637239583333332
EXTRACT: control_change channel=5 control=5 value=80 time=0
EXTRACT: note_on channel=0 note=38 velocity=117 time=0.0030637239583333332
EXTRACT: note_on channel=4 note=71 velocity=114 time=0
EXTRACT: note_on channel=5 note=67 velocity=111 time=0
EXTRACT: note_on channel=6 note=69 velocity=111 time=0
EXTRACT: note_on channel=9 note=40 velocity=127 time=0
EXTRACT: note_on channel=9 note=42 velocity=105 time=0
EXTRACT: note_on channel=11 note=50 velocity=107 time=0
EXTRACT: note_on channel=11 note=57 velocity=111 time=0
EXTRACT: note_on channel=11 note=60 velocity=110 time=0
EXTRACT: note_on channel=11 note=64 velocity=109 time=0
EXTRACT: note_on channel=11 note=67 velocity=104 time=0
EXTRACT: note_off channel=9 note=40 velocity=0 time=0.012254895833333333
EXTRACT: note_off channel=9 note=42 velocity=0 time=0
EXTRACT: note_on channel=9 note=42 velocity=54 time=0.13480385416666665
EXTRACT: note_off channel=9 note=42 velocity=0 time=0.012254895833333333
EXTRACT: note_off channel=6 note=69 velocity=0 time=0.052083307291666665
EXTRACT: note_off channel=0 note=38 velocity=0 time=0.0030637239583333332
EXTRACT: note_off channel=11 note=50 velocity=0 time=0.07046565104166666
EXTRACT: note_off channel=11 note=57 velocity=0 time=0
EXTRACT: note_off channel=11 note=60 velocity=0 time=0
EXTRACT: note_off channel=11 note=64 velocity=0 time=0
EXTRACT: note_off channel=11 note=67 velocity=0 time=0
EXTRACT: note_on channel=0 note=38 velocity=111 time=0.009191171875
EXTRACT: note_on channel=6 note=67 velocity=99 time=0
EXTRACT: note_on channel=9 note=46 velocity=96 time=0
EXTRACT: note_on channel=11 note=50 velocity=88 time=0
EXTRACT: note_on channel=11 note=57 velocity=93 time=0
EXTRACT: note_on channel=11 note=60 velocity=94 time=0
EXTRACT: note_on channel=11 note=64 velocity=95 time=0
EXTRACT: note_on channel=11 note=67 velocity=91 time=0
EXTRACT: note_off channel=9 note=46 velocity=0 time=0.012254895833333333
EXTRACT: note_off channel=10 note=53 velocity=0 time=0.06740192708333333
EXTRACT: note_off channel=10 note=57 velocity=0 time=0.0030637239583333332
EXTRACT: note_off channel=0 note=38 velocity=0 time=0.01838234375
EXTRACT: note_off channel=10 note=64 velocity=0 time=0.0030637239583333332
EXTRACT: note_off channel=11 note=50 velocity=0 time=0.03370096354166666
EXTRACT: note_off channel=11 note=57 velocity=0 time=0
EXTRACT: note_off channel=11 note=60 velocity=0 time=0
EXTRACT: note_off channel=11 note=64 velocity=0 time=0
EXTRACT: note_off channel=11 note=67 velocity=0 time=0
EXTRACT: note_on channel=0 note=38 velocity=113 time=0.009191171875
EXTRACT: note_on channel=9 note=36 velocity=58 time=0
EXTRACT: note_on channel=11 note=50 velocity=102 time=0
EXTRACT: note_on channel=11 note=57 velocity=100 time=0
EXTRACT: note_on channel=11 note=60 velocity=102 time=0
EXTRACT: note_on channel=11 note=64 velocity=105 time=0
EXTRACT: note_on channel=11 note=67 velocity=88 time=0
EXTRACT: note_off channel=9 note=36 velocity=0 time=0.012254895833333333
EXTRACT: note_off channel=6 note=67 velocity=0 time=0.01838234375
EXTRACT: note_off channel=0 note=38 velocity=0 time=0.08884799479166666
EXTRACT: note_off channel=11 note=50 velocity=0 time=0.01838234375
EXTRACT: note_off channel=11 note=57 velocity=0 time=0
EXTRACT: note_off channel=11 note=60 velocity=0 time=0
EXTRACT: note_off channel=11 note=64 velocity=0 time=0
EXTRACT: note_off channel=11 note=67 velocity=0 time=0
EXTRACT: note_on channel=0 note=36 velocity=122 time=0.009191171875
EXTRACT: note_on channel=6 note=64 velocity=108 time=0
EXTRACT: note_on channel=9 note=36 velocity=115 time=0
EXTRACT: note_on channel=9 note=42 velocity=105 time=0
EXTRACT: note_on channel=10 note=55 velocity=93 time=0
EXTRACT: note_on channel=10 note=59 velocity=104 time=0
EXTRACT: note_on channel=10 note=64 velocity=108 time=0
EXTRACT: note_on channel=11 note=48 velocity=98 time=0
EXTRACT: note_on channel=11 note=55 velocity=98 time=0
EXTRACT: note_on channel=11 note=60 velocity=100 time=0
EXTRACT: note_on channel=11 note=62 velocity=107 time=0
EXTRACT: note_on channel=11 note=67 velocity=93 time=0
EXTRACT: note_off channel=9 note=36 velocity=0 time=0.012254895833333333
EXTRACT: note_off channel=9 note=42 velocity=0 time=0
EXTRACT: note_on channel=9 note=42 velocity=50 time=0.13480385416666665
EXTRACT: note_off channel=9 note=42 velocity=0 time=0.012254895833333333
EXTRACT: note_off channel=0 note=36 velocity=0 time=0.08578427083333333
EXTRACT: note_on channel=0 note=36 velocity=123 time=0.04901958333333333
EXTRACT: note_on channel=9 note=42 velocity=32 time=0
EXTRACT: note_off channel=9 note=42 velocity=0 time=0.012254895833333333
EXTRACT: note_off channel=6 note=64 velocity=0 time=0.0030637239583333332
EXTRACT: note_on channel=9 note=42 velocity=50 time=0.13174013020833333
EXTRACT: note_off channel=9 note=42 velocity=0 time=0.012254895833333333
EXTRACT: note_off channel=0 note=36 velocity=0 time=0.07659309895833333
EXTRACT: note_off channel=11 note=48 velocity=0 time=0.04901958333333333
EXTRACT: note_off channel=11 note=55 velocity=0 time=0
EXTRACT: note_off channel=11 note=60 velocity=0 time=0
EXTRACT: note_off channel=11 note=62 velocity=0 time=0
EXTRACT: note_off channel=11 note=67 velocity=0 time=0
EXTRACT: note_on channel=0 note=36 velocity=121 time=0.009191171875
EXTRACT: note_on channel=6 note=69 velocity=117 time=0
EXTRACT: note_on channel=9 note=40 velocity=121 time=0
EXTRACT: note_on channel=9 note=42 velocity=98 time=0
EXTRACT: note_on channel=11 note=48 velocity=108 time=0
EXTRACT: note_on channel=11 note=55 velocity=106 time=0
EXTRACT: note_on channel=11 note=60 velocity=96 time=0
EXTRACT: note_on channel=11 note=62 velocity=107 time=0
EXTRACT: note_on channel=11 note=67 velocity=103 time=0
EXTRACT: note_off channel=9 note=40 velocity=0 time=0.012254895833333333
EXTRACT: note_off channel=9 note=42 velocity=0 time=0
EXTRACT: note_on channel=9 note=42 velocity=47 time=0.13480385416666665
EXTRACT: note_off channel=9 note=42 velocity=0 time=0.012254895833333333
EXTRACT: note_off channel=0 note=36 velocity=0 time=0.06740192708333333
EXTRACT: note_off channel=6 note=69 velocity=0 time=0.05514703125
EXTRACT: note_on channel=0 note=36 velocity=116 time=0.012254895833333333
EXTRACT: note_on channel=9 note=42 velocity=38 time=0
EXTRACT: note_off channel=9 note=42 velocity=0 time=0.012254895833333333
EXTRACT: note_off channel=0 note=36 velocity=0 time=0.08884799479166666
EXTRACT: note_off channel=11 note=48 velocity=0 time=0.0367646875
EXTRACT: note_off channel=11 note=55 velocity=0 time=0
EXTRACT: note_off channel=11 note=60 velocity=0 time=0
EXTRACT: note_off channel=11 note=62 velocity=0 time=0
EXTRACT: note_off channel=11 note=67 velocity=0 time=0
EXTRACT: note_on channel=0 note=36 velocity=127 time=0.009191171875
EXTRACT: note_on channel=6 note=67 velocity=116 time=0
EXTRACT: note_on channel=9 note=36 velocity=110 time=0
EXTRACT: note_on channel=9 note=42 velocity=43 time=0
EXTRACT: note_on channel=11 note=48 velocity=108 time=0
EXTRACT: note_on channel=11 note=55 velocity=110 time=0
EXTRACT: note_on channel=11 note=60 velocity=94 time=0
EXTRACT: note_on channel=11 note=62 velocity=115 time=0
EXTRACT: note_on channel=11 note=67 velocity=101 time=0
EXTRACT: note_off channel=9 note=36 velocity=0 time=0.012254895833333333
EXTRACT: note_off channel=9 note=42 velocity=0 time=0
EXTRACT: note_on channel=9 note=42 velocity=96 time=0.13480385416666665
EXTRACT: note_off channel=9 note=42 velocity=0 time=0.012254895833333333
EXTRACT: note_off channel=6 note=67 velocity=0 time=0.052083307291666665
EXTRACT: note_off channel=0 note=36 velocity=0 time=0.01838234375
EXTRACT: note_off channel=11 note=48 velocity=0 time=0.05514703125
EXTRACT: note_off channel=11 note=55 velocity=0 time=0
EXTRACT: note_off channel=11 note=60 velocity=0 time=0
EXTRACT: note_off channel=11 note=62 velocity=0 time=0
EXTRACT: note_off channel=11 note=67 velocity=0 time=0
EXTRACT: note_on channel=0 note=36 velocity=116 time=0.009191171875
EXTRACT: note_on channel=6 note=67 velocity=97 time=0
EXTRACT: note_on channel=9 note=36 velocity=50 time=0
EXTRACT: note_on channel=9 note=42 velocity=45 time=0
EXTRACT: note_on channel=11 note=48 velocity=81 time=0
EXTRACT: note_on channel=11 note=55 velocity=93 time=0
EXTRACT: note_on channel=11 note=60 velocity=74 time=0
EXTRACT: note_on channel=11 note=62 velocity=74 time=0
EXTRACT: note_on channel=11 note=67 velocity=76 time=0
EXTRACT: note_off channel=9 note=36 velocity=0 time=0.012254895833333333
EXTRACT: note_off channel=9 note=42 velocity=0 time=0
EXTRACT: note_off channel=0 note=36 velocity=0 time=0.08578427083333333
EXTRACT: note_off channel=6 note=67 velocity=0 time=0.0367646875
EXTRACT: note_off channel=11 note=48 velocity=0 time=0.0030637239583333332
EXTRACT: note_off channel=11 note=55 velocity=0 time=0
EXTRACT: note_off channel=11 note=60 velocity=0 time=0
EXTRACT: note_off channel=11 note=62 velocity=0 time=0
EXTRACT: note_off channel=11 note=67 velocity=0 time=0
EXTRACT: note_on channel=0 note=36 velocity=118 time=0.009191171875
EXTRACT: note_on channel=6 note=64 velocity=93 time=0
EXTRACT: note_on channel=9 note=36 velocity=119 time=0
EXTRACT: note_on channel=9 note=42 velocity=28 time=0
EXTRACT: note_on channel=11 note=48 velocity=77 time=0
EXTRACT: note_on channel=11 note=55 velocity=87 time=0
EXTRACT: note_on channel=11 note=60 velocity=86 time=0
EXTRACT: note_on channel=11 note=62 velocity=94 time=0
EXTRACT: note_on channel=11 note=67 velocity=84 time=0
EXTRACT: note_off channel=9 note=36 velocity=0 time=0.012254895833333333
EXTRACT: note_off channel=9 note=42 velocity=0 time=0
EXTRACT: note_on channel=9 note=42 velocity=37 time=0.13480385416666665
EXTRACT: note_off channel=9 note=42 velocity=0 time=0.012254895833333333
EXTRACT: note_off channel=6 note=64 velocity=0 time=0.042892135416666664
EXTRACT: note_off channel=0 note=36 velocity=0 time=0.061274479166666666
EXTRACT: note_off channel=4 note=71 velocity=0 time=0.021446067708333332
EXTRACT: note_off channel=5 note=67 velocity=0 time=0
EXTRACT: note_off channel=11 note=48 velocity=0 time=0
EXTRACT: note_off channel=11 note=55 velocity=0 time=0
EXTRACT: note_off channel=11 note=60 velocity=0 time=0
EXTRACT: note_off channel=11 note=62 velocity=0 time=0
EXTRACT: note_off channel=11 note=67 velocity=0 time=0
EXTRACT: note_on channel=0 note=36 velocity=127 time=0.009191171875
EXTRACT: note_on channel=6 note=69 velocity=111 time=0
EXTRACT: note_on channel=9 note=40 velocity=125 time=0
EXTRACT: note_on channel=9 note=42 velocity=105 time=0
EXTRACT: note_on channel=11 note=48 velocity=105 time=0
EXTRACT: note_on channel=11 note=55 velocity=109 time=0
EXTRACT: note_on channel=11 note=60 velocity=106 time=0
EXTRACT: note_on channel=11 note=62 velocity=114 time=0
EXTRACT: note_on channel=11 note=67 velocity=106 time=0
EXTRACT: note_off channel=9 note=40 velocity=0 time=0.012254895833333333
EXTRACT: note_off channel=9 note=42 velocity=0 time=0
EXTRACT: note_on channel=9 note=42 velocity=49 time=0.13480385416666665
EXTRACT: note_off channel=9 note=42 velocity=0 time=0.012254895833333333
EXTRACT: note_off channel=6 note=69 velocity=0 time=0.06433820312499999
EXTRACT: note_off channel=0 note=36 velocity=0 time=0.021446067708333332
EXTRACT: note_off channel=11 note=48 velocity=0 time=0.03982841145833333
EXTRACT: note_off channel=11 note=55 velocity=0 time=0
EXTRACT: note_off channel=11 note=60 velocity=0 time=0
EXTRACT: note_off channel=11 note=62 velocity=0 time=0
EXTRACT: note_off channel=11 note=67 velocity=0 time=0
EXTRACT: note_on channel=0 note=36 velocity=117 time=0.009191171875
EXTRACT: note_on channel=6 note=67 velocity=106 time=0
EXTRACT: note_on channel=9 note=42 velocity=34 time=0
EXTRACT: note_on channel=11 note=48 velocity=70 time=0
EXTRACT: note_on channel=11 note=55 velocity=87 time=0
EXTRACT: note_on channel=11 note=60 velocity=69 time=0
EXTRACT: note_on channel=11 note=62 velocity=80 time=0
EXTRACT: note_on channel=11 note=67 velocity=76 time=0
EXTRACT: note_off channel=9 note=42 velocity=0 time=0.012254895833333333
EXTRACT: note_off channel=0 note=36 velocity=0 time=0.08884799479166666
EXTRACT: note_off channel=11 note=48 velocity=0 time=0.0367646875
EXTRACT: note_off channel=11 note=55 velocity=0 time=0
EXTRACT: note_off channel=11 note=60 velocity=0 time=0
EXTRACT: note_off channel=11 note=62 velocity=0 time=0
EXTRACT: note_off channel=11 note=67 velocity=0 time=0
EXTRACT: note_on channel=0 note=36 velocity=116 time=0.009191171875
EXTRACT: note_on channel=9 note=36 velocity=51 time=0
EXTRACT: note_on channel=9 note=42 velocity=30 time=0
EXTRACT: note_on channel=11 note=48 velocity=72 time=0
EXTRACT: note_on channel=11 note=55 velocity=86 time=0
EXTRACT: note_on channel=11 note=60 velocity=81 time=0
EXTRACT: note_on channel=11 note=62 velocity=88 time=0
EXTRACT: note_on channel=11 note=67 velocity=78 time=0
EXTRACT: note_off channel=9 note=36 velocity=0 time=0.012254895833333333
EXTRACT: note_off channel=9 note=42 velocity=0 time=0
EXTRACT: note_off channel=6 note=67 velocity=0 time=0.01838234375
EXTRACT: note_off channel=0 note=36 velocity=0 time=0.08578427083333333
EXTRACT: note_off channel=11 note=48 velocity=0 time=0.021446067708333332
EXTRACT: note_off channel=11 note=55 velocity=0 time=0
EXTRACT: note_off channel=11 note=60 velocity=0 time=0
EXTRACT: note_off channel=11 note=62 velocity=0 time=0
EXTRACT: note_off channel=11 note=67 velocity=0 time=0
EXTRACT: note_on channel=0 note=36 velocity=123 time=0.009191171875
EXTRACT: note_on channel=6 note=64 velocity=104 time=0
EXTRACT: note_on channel=9 note=36 velocity=115 time=0
EXTRACT: note_on channel=9 note=42 velocity=105 time=0
EXTRACT: note_on channel=11 note=48 velocity=95 time=0
EXTRACT: note_on channel=11 note=55 velocity=102 time=0
EXTRACT: note_on channel=11 note=60 velocity=99 time=0
EXTRACT: note_on channel=11 note=62 velocity=110 time=0
EXTRACT: note_on channel=11 note=67 velocity=91 time=0
EXTRACT: note_off channel=9 note=36 velocity=0 time=0.012254895833333333
EXTRACT: note_off channel=9 note=42 velocity=0 time=0
EXTRACT: note_on channel=9 note=42 velocity=42 time=0.13480385416666665
EXTRACT: note_off channel=9 note=42 velocity=0 time=0.012254895833333333
EXTRACT: note_off channel=0 note=36 velocity=0 time=0.08578427083333333
EXTRACT: note_on channel=0 note=36 velocity=120 time=0.04901958333333333
EXTRACT: note_on channel=9 note=36 velocity=59 time=0
EXTRACT: note_on channel=9 note=42 velocity=38 time=0
EXTRACT: note_off channel=9 note=36 velocity=0 time=0.012254895833333333
EXTRACT: note_off channel=9 note=42 velocity=0 time=0
EXTRACT: note_off channel=6 note=64 velocity=0 time=0.04901958333333333
EXTRACT: note_on channel=9 note=42 velocity=37 time=0.08578427083333333
EXTRACT: note_off channel=9 note=42 velocity=0 time=0.012254895833333333
EXTRACT: note_off channel=0 note=36 velocity=0 time=0.07659309895833333
EXTRACT: note_off channel=11 note=48 velocity=0 time=0.04901958333333333
EXTRACT: note_off channel=11 note=55 velocity=0 time=0
EXTRACT: note_off channel=11 note=60 velocity=0 time=0
EXTRACT: note_off channel=11 note=62 velocity=0 time=0
EXTRACT: note_off channel=11 note=67 velocity=0 time=0
EXTRACT: note_on channel=0 note=36 velocity=123 time=0.009191171875
EXTRACT: note_on channel=6 note=69 velocity=117 time=0
EXTRACT: note_on channel=9 note=40 velocity=127 time=0
EXTRACT: note_on channel=9 note=42 velocity=101 time=0
EXTRACT: note_on channel=11 note=48 velocity=104 time=0
EXTRACT: note_on channel=11 note=55 velocity=105 time=0
EXTRACT: note_on channel=11 note=60 velocity=108 time=0
EXTRACT: note_on channel=11 note=62 velocity=116 time=0
EXTRACT: note_on channel=11 note=67 velocity=97 time=0
EXTRACT: note_off channel=9 note=40 velocity=0 time=0.012254895833333333
EXTRACT: note_off channel=9 note=42 velocity=0 time=0
EXTRACT: note_on channel=9 note=42 velocity=46 time=0.13480385416666665
EXTRACT: note_off channel=9 note=42 velocity=0 time=0.012254895833333333
EXTRACT: note_off channel=0 note=36 velocity=0 time=0.073529375
EXTRACT: note_off channel=11 note=48 velocity=0 time=0.052083307291666665
EXTRACT: note_off channel=11 note=55 velocity=0 time=0
EXTRACT: note_off channel=11 note=60 velocity=0 time=0
EXTRACT: note_off channel=11 note=62 velocity=0 time=0
EXTRACT: note_off channel=11 note=67 velocity=0 time=0
EXTRACT: note_on channel=0 note=36 velocity=117 time=0.009191171875
EXTRACT: note_on channel=9 note=42 velocity=26 time=0
EXTRACT: note_on channel=11 note=48 velocity=70 time=0
EXTRACT: note_on channel=11 note=55 velocity=89 time=0
EXTRACT: note_on channel=11 note=60 velocity=65 time=0
EXTRACT: note_on channel=11 note=62 velocity=74 time=0
EXTRACT: note_on channel=11 note=67 velocity=72 time=0
EXTRACT: note_off channel=6 note=69 velocity=0 time=0.0030637239583333332
EXTRACT: note_off channel=9 note=42 velocity=0 time=0.009191171875
EXTRACT: note_off channel=10 note=55 velocity=0 time=0.09497544270833333
EXTRACT: note_off channel=10 note=64 velocity=0 time=0
EXTRACT: note_off channel=10 note=59 velocity=0 time=0.015318619791666667
EXTRACT: note_off channel=0 note=36 velocity=0 time=0
EXTRACT: note_off channel=11 note=48 velocity=0 time=0.015318619791666667
EXTRACT: note_off channel=11 note=55 velocity=0 time=0
EXTRACT: note_off channel=11 note=60 velocity=0 time=0
EXTRACT: note_off channel=11 note=62 velocity=0 time=0
EXTRACT: note_off channel=11 note=67 velocity=0 time=0
EXTRACT: note_on channel=0 note=36 velocity=122 time=0.009191171875
EXTRACT: note_on channel=6 note=67 velocity=112 time=0
EXTRACT: note_on channel=9 note=36 velocity=110 time=0
EXTRACT: note_on channel=9 note=42 velocity=48 time=0
EXTRACT: note_on channel=11 note=48 velocity=101 time=0
EXTRACT: note_on channel=11 note=55 velocity=104 time=0
EXTRACT: note_on channel=11 note=60 velocity=99 time=0
EXTRACT: note_on channel=11 note=62 velocity=110 time=0
EXTRACT: note_on channel=11 note=67 velocity=93 time=0
EXTRACT: note_off channel=9 note=36 velocity=0 time=0.012254895833333333
EXTRACT: note_off channel=9 note=42 velocity=0 time=0
EXTRACT: note_on channel=9 note=42 velocity=107 time=0.13480385416666665
EXTRACT: note_off channel=9 note=42 velocity=0 time=0.012254895833333333
EXTRACT: note_off channel=6 note=67 velocity=0 time=0.01838234375
EXTRACT: note_off channel=0 note=36 velocity=0 time=0.012254895833333333
EXTRACT: note_off channel=11 note=48 velocity=0 time=0.09497544270833333
EXTRACT: note_off channel=11 note=55 velocity=0 time=0
EXTRACT: note_off channel=11 note=60 velocity=0 time=0
EXTRACT: note_off channel=11 note=62 velocity=0 time=0
EXTRACT: note_off channel=11 note=67 velocity=0 time=0
EXTRACT: note_on channel=0 note=36 velocity=112 time=0.009191171875
EXTRACT: note_on channel=6 note=67 velocity=103 time=0
EXTRACT: note_on channel=9 note=36 velocity=57 time=0
EXTRACT: note_on channel=9 note=42 velocity=47 time=0
EXTRACT: note_on channel=11 note=48 velocity=71 time=0
EXTRACT: note_on channel=11 note=55 velocity=84 time=0
EXTRACT: note_on channel=11 note=60 velocity=76 time=0
EXTRACT: note_on channel=11 note=62 velocity=83 time=0
EXTRACT: note_on channel=11 note=67 velocity=85 time=0
EXTRACT: note_off channel=9 note=36 velocity=0 time=0.012254895833333333
EXTRACT: note_off channel=9 note=42 velocity=0 time=0
EXTRACT: note_off channel=0 note=36 velocity=0 time=0.10723033854166666
EXTRACT: note_off channel=11 note=48 velocity=0 time=0.01838234375
EXTRACT: note_off channel=11 note=55 velocity=0 time=0
EXTRACT: note_off channel=11 note=60 velocity=0 time=0
EXTRACT: note_off channel=11 note=62 velocity=0 time=0
EXTRACT: note_off channel=11 note=67 velocity=0 time=0
EXTRACT: note_off channel=6 note=67 velocity=0 time=0.0030637239583333332
EXTRACT: note_on channel=0 note=36 velocity=127 time=0.0061274479166666665
EXTRACT: note_on channel=6 note=64 velocity=103 time=0
EXTRACT: note_on channel=9 note=36 velocity=114 time=0
EXTRACT: note_on channel=9 note=42 velocity=35 time=0
EXTRACT: note_on channel=11 note=48 velocity=96 time=0
EXTRACT: note_on channel=11 note=55 velocity=98 time=0
EXTRACT: note_on channel=11 note=60 velocity=93 time=0
EXTRACT: note_on channel=11 note=62 velocity=107 time=0
EXTRACT: note_on channel=11 note=67 velocity=93 time=0
EXTRACT: note_off channel=9 note=36 velocity=0 time=0.012254895833333333
EXTRACT: note_off channel=9 note=42 velocity=0 time=0
EXTRACT: note_off channel=6 note=64 velocity=0 time=0.13480385416666665
EXTRACT: note_on channel=9 note=40 velocity=50 time=0
EXTRACT: note_on channel=9 note=42 velocity=98 time=0
EXTRACT: note_off channel=9 note=40 velocity=0 time=0.012254895833333333
EXTRACT: note_off channel=9 note=42 velocity=0 time=0
EXTRACT: note_on channel=9 note=40 velocity=52 time=0.061274479166666666
EXTRACT: note_off channel=9 note=40 velocity=0 time=0.012254895833333333
EXTRACT: note_off channel=0 note=36 velocity=0 time=0.052083307291666665
EXTRACT: note_off channel=11 note=48 velocity=0 time=0
EXTRACT: note_off channel=11 note=55 velocity=0 time=0
EXTRACT: note_off channel=11 note=60 velocity=0 time=0
EXTRACT: note_off channel=11 note=62 velocity=0 time=0
EXTRACT: note_off channel=11 note=67 velocity=0 time=0
EXTRACT: note_on channel=0 note=36 velocity=121 time=0.009191171875
EXTRACT: note_on channel=6 note=69 velocity=113 time=0
EXTRACT: note_on channel=9 note=36 velocity=100 time=0
EXTRACT: note_on channel=9 note=40 velocity=118 time=0
EXTRACT: note_on channel=9 note=42 velocity=95 time=0
EXTRACT: note_on channel=11 note=48 velocity=105 time=0
EXTRACT: note_on channel=11 note=55 velocity=109 time=0
EXTRACT: note_on channel=11 note=60 velocity=95 time=0
EXTRACT: note_on channel=11 note=62 velocity=110 time=0
EXTRACT: note_on channel=11 note=67 velocity=100 time=0
EXTRACT: note_off channel=9 note=36 velocity=0 time=0.012254895833333333
EXTRACT: note_off channel=9 note=40 velocity=0 time=0
EXTRACT: note_off channel=9 note=42 velocity=0 time=0
EXTRACT: note_on channel=9 note=40 velocity=115 time=0.13480385416666665
EXTRACT: note_on channel=9 note=42 velocity=84 time=0
EXTRACT: note_off channel=9 note=40 velocity=0 time=0.012254895833333333
EXTRACT: note_off channel=9 note=42 velocity=0 time=0
EXTRACT: note_off channel=6 note=69 velocity=0 time=0.03982841145833333
EXTRACT: note_off channel=11 note=48 velocity=0 time=0.08578427083333333
EXTRACT: note_off channel=11 note=55 velocity=0 time=0
EXTRACT: note_off channel=11 note=60 velocity=0 time=0
EXTRACT: note_off channel=11 note=62 velocity=0 time=0
EXTRACT: note_off channel=11 note=67 velocity=0 time=0
EXTRACT: note_on channel=6 note=67 velocity=101 time=0.009191171875
EXTRACT: note_on channel=9 note=36 velocity=101 time=0
EXTRACT: note_on channel=9 note=42 velocity=95 time=0
EXTRACT: note_on channel=9 note=50 velocity=78 time=0
EXTRACT: note_on channel=11 note=48 velocity=72 time=0
EXTRACT: note_on channel=11 note=55 velocity=86 time=0
EXTRACT: note_on channel=11 note=60 velocity=84 time=0
EXTRACT: note_on channel=11 note=62 velocity=90 time=0
EXTRACT: note_on channel=11 note=67 velocity=88 time=0
EXTRACT: note_off channel=9 note=36 velocity=0 time=0.012254895833333333
EXTRACT: note_off channel=9 note=42 velocity=0 time=0
EXTRACT: note_off channel=9 note=50 velocity=0 time=0
EXTRACT: note_off channel=11 note=48 velocity=0 time=0.12561268229166667
EXTRACT: note_off channel=11 note=55 velocity=0 time=0
EXTRACT: note_off channel=11 note=60 velocity=0 time=0
EXTRACT: note_off channel=11 note=62 velocity=0 time=0
EXTRACT: note_off channel=11 note=67 velocity=0 time=0
EXTRACT: note_on channel=9 note=42 velocity=98 time=0.009191171875
EXTRACT: note_on channel=9 note=48 velocity=72 time=0
EXTRACT: note_on channel=11 note=48 velocity=95 time=0
EXTRACT: note_on channel=11 note=55 velocity=96 time=0
EXTRACT: note_on channel=11 note=60 velocity=93 time=0
EXTRACT: note_on channel=11 note=62 velocity=97 time=0
EXTRACT: note_on channel=11 note=67 velocity=76 time=0
EXTRACT: note_off channel=9 note=42 velocity=0 time=0.012254895833333333
EXTRACT: note_off channel=9 note=48 velocity=0 time=0
EXTRACT: note_off channel=0 note=36 velocity=0 time=0.11642151041666667
EXTRACT: note_off channel=11 note=48 velocity=0 time=0.009191171875
EXTRACT: note_off channel=11 note=55 velocity=0 time=0
EXTRACT: note_off channel=11 note=60 velocity=0 time=0
EXTRACT: note_off channel=11 note=62 velocity=0 time=0
EXTRACT: note_off channel=11 note=67 velocity=0 time=0
EXTRACT: note_on channel=9 note=36 velocity=110 time=0.009191171875
EXTRACT: note_on channel=9 note=49 velocity=86 time=0
EXTRACT: note_on channel=12 note=53 velocity=99 time=0
EXTRACT: note_on channel=12 note=57 velocity=93 time=0
EXTRACT: note_on channel=12 note=60 velocity=104 time=0
EXTRACT: note_on channel=12 note=64 velocity=91 time=0
EXTRACT: note_on channel=12 note=67 velocity=97 time=0
EXTRACT: note_off channel=9 note=36 velocity=0 time=0.012254895833333333
EXTRACT: note_off channel=9 note=49 velocity=0 time=0
EXTRACT: note_off channel=6 note=67 velocity=0 time=0.09803916666666666
EXTRACT: note_off channel=12 note=53 velocity=0 time=0.468749765625
EXTRACT: note_off channel=12 note=57 velocity=0 time=0
EXTRACT: note_off channel=12 note=60 velocity=0 time=0
EXTRACT: note_off channel=12 note=64 velocity=0 time=0
EXTRACT: note_off channel=12 note=67 velocity=0 time=0
EXTRACT: note_on channel=2 note=79 velocity=107 time=0.009191171875
EXTRACT: note_on channel=9 note=44 velocity=93 time=0
EXTRACT: note_on channel=12 note=53 velocity=95 time=0
EXTRACT: note_on channel=12 note=57 velocity=99 time=0
EXTRACT: note_on channel=12 note=60 velocity=97 time=0
EXTRACT: note_on channel=12 note=64 velocity=93 time=0
EXTRACT: note_on channel=12 note=67 velocity=88 time=0
EXTRACT: note_off channel=9 note=44 velocity=0 time=0.012254895833333333
EXTRACT: note_off channel=2 note=79 velocity=0 time=0.22977929687499998
EXTRACT: note_on channel=2 note=79 velocity=95 time=0.052083307291666665
EXTRACT: note_off channel=2 note=79 velocity=0 time=0.08884799479166666
EXTRACT: note_off channel=12 note=53 velocity=0 time=0.04901958333333333
EXTRACT: note_off channel=12 note=57 velocity=0 time=0
EXTRACT: note_off channel=12 note=60 velocity=0 time=0
EXTRACT: note_off channel=12 note=64 velocity=0 time=0
EXTRACT: note_off channel=12 note=67 velocity=0 time=0
EXTRACT: note_on channel=2 note=79 velocity=100 time=0.009191171875
EXTRACT: note_on channel=12 note=53 velocity=93 time=0
EXTRACT: note_on channel=12 note=57 velocity=95 time=0
EXTRACT: note_on channel=12 note=60 velocity=92 time=0
EXTRACT: note_on channel=12 note=64 velocity=95 time=0
EXTRACT: note_on channel=12 note=67 velocity=86 time=0
EXTRACT: note_off channel=12 note=53 velocity=0 time=0.284926328125
EXTRACT: note_off channel=12 note=57 velocity=0 time=0
EXTRACT: note_off channel=12 note=60 velocity=0 time=0
EXTRACT: note_off channel=12 note=64 velocity=0 time=0
EXTRACT: note_off channel=12 note=67 velocity=0 time=0
EXTRACT: note_on channel=12 note=53 velocity=74 time=0.009191171875
EXTRACT: note_on channel=12 note=57 velocity=75 time=0
EXTRACT: note_on channel=12 note=60 velocity=77 time=0
EXTRACT: note_on channel=12 note=64 velocity=85 time=0
EXTRACT: note_on channel=12 note=67 velocity=62 time=0
EXTRACT: note_off channel=12 note=53 velocity=0 time=0.137867578125
EXTRACT: note_off channel=12 note=57 velocity=0 time=0
EXTRACT: note_off channel=12 note=60 velocity=0 time=0
EXTRACT: note_off channel=12 note=64 velocity=0 time=0
EXTRACT: note_off channel=12 note=67 velocity=0 time=0
EXTRACT: note_on channel=12 note=53 velocity=65 time=0.009191171875
EXTRACT: note_on channel=12 note=57 velocity=87 time=0
EXTRACT: note_on channel=12 note=60 velocity=88 time=0
EXTRACT: note_on channel=12 note=64 velocity=88 time=0
EXTRACT: note_on channel=12 note=67 velocity=88 time=0
EXTRACT: note_off channel=2 note=79 velocity=0 time=0.1102940625
EXTRACT: note_off channel=12 note=53 velocity=0 time=0.174632265625
EXTRACT: note_off channel=12 note=57 velocity=0 time=0
EXTRACT: note_off channel=12 note=60 velocity=0 time=0
EXTRACT: note_off channel=12 note=64 velocity=0 time=0
EXTRACT: note_off channel=12 note=67 velocity=0 time=0
EXTRACT: note_on channel=2 note=81 velocity=102 time=0.009191171875
EXTRACT: note_on channel=9 note=44 velocity=97 time=0
EXTRACT: note_on channel=12 note=53 velocity=91 time=0
EXTRACT: note_on channel=12 note=57 velocity=111 time=0
EXTRACT: note_on channel=12 note=60 velocity=106 time=0
EXTRACT: note_on channel=12 note=64 velocity=107 time=0
EXTRACT: note_on channel=12 note=67 velocity=99 time=0
EXTRACT: note_off channel=9 note=44 velocity=0 time=0.012254895833333333
EXTRACT: note_off channel=2 note=81 velocity=0 time=0.21752440104166665
EXTRACT: note_off channel=12 note=53 velocity=0 time=0.05514703125
EXTRACT: note_off channel=12 note=57 velocity=0 time=0
EXTRACT: note_off channel=12 note=60 velocity=0 time=0
EXTRACT: note_off channel=12 note=64 velocity=0 time=0
EXTRACT: note_off channel=12 note=67 velocity=0 time=0
EXTRACT: note_on channel=2 note=79 velocity=92 time=0.009191171875
EXTRACT: note_on channel=12 note=53 velocity=81 time=0
EXTRACT: note_on channel=12 note=57 velocity=82 time=0
EXTRACT: note_on channel=12 note=60 velocity=88 time=0
EXTRACT: note_on channel=12 note=64 velocity=81 time=0
EXTRACT: note_on channel=12 note=67 velocity=81 time=0
EXTRACT: note_off channel=2 note=79 velocity=0 time=0.07659309895833333
EXTRACT: note_off channel=12 note=53 velocity=0 time=0.061274479166666666
EXTRACT: note_off channel=12 note=57 velocity=0 time=0
EXTRACT: note_off channel=12 note=60 velocity=0 time=0
EXTRACT: note_off channel=12 note=64 velocity=0 time=0
EXTRACT: note_off channel=12 note=67 velocity=0 time=0
EXTRACT: note_on channel=2 note=79 velocity=100 time=0.009191171875
EXTRACT: note_on channel=12 note=53 velocity=73 time=0
EXTRACT: note_on channel=12 note=57 velocity=81 time=0
EXTRACT: note_on channel=12 note=60 velocity=83 time=0
EXTRACT: note_on channel=12 note=64 velocity=83 time=0
EXTRACT: note_on channel=12 note=67 velocity=74 time=0
EXTRACT: note_off channel=12 note=53 velocity=0 time=0.137867578125
EXTRACT: note_off channel=12 note=57 velocity=0 time=0
EXTRACT: note_off channel=12 note=60 velocity=0 time=0
EXTRACT: note_off channel=12 note=64 velocity=0 time=0
EXTRACT: note_off channel=12 note=67 velocity=0 time=0
EXTRACT: note_on channel=12 note=50 velocity=102 time=0.009191171875
EXTRACT: note_on channel=12 note=57 velocity=97 time=0
EXTRACT: note_on channel=12 note=60 velocity=100 time=0
EXTRACT: note_on channel=12 note=64 velocity=96 time=0
EXTRACT: note_on channel=12 note=67 velocity=90 time=0
EXTRACT: note_off channel=2 note=79 velocity=0 time=0.14093130208333332
EXTRACT: note_on channel=2 note=77 velocity=91 time=0.0061274479166666665
EXTRACT: note_off channel=2 note=77 velocity=0 time=0.1102940625
EXTRACT: note_on channel=2 note=76 velocity=98 time=0.0367646875
EXTRACT: note_off channel=12 note=50 velocity=0 time=0.284926328125
EXTRACT: note_off channel=12 note=57 velocity=0 time=0
EXTRACT: note_off channel=12 note=60 velocity=0 time=0
EXTRACT: note_off channel=12 note=64 velocity=0 time=0
EXTRACT: note_off channel=12 note=67 velocity=0 time=0
EXTRACT: note_on channel=9 note=44 velocity=103 time=0.009191171875
EXTRACT: note_on channel=12 note=50 velocity=101 time=0
EXTRACT: note_on channel=12 note=57 velocity=99 time=0
EXTRACT: note_on channel=12 note=60 velocity=106 time=0
EXTRACT: note_on channel=12 note=64 velocity=104 time=0
EXTRACT: note_on channel=12 note=67 velocity=98 time=0
EXTRACT: note_off channel=9 note=44 velocity=0 time=0.012254895833333333
EXTRACT: note_off channel=12 note=50 velocity=0 time=0.2726714322916667
EXTRACT: note_off channel=12 note=57 velocity=0 time=0
EXTRACT: note_off channel=12 note=60 velocity=0 time=0
EXTRACT: note_off channel=12 note=64 velocity=0 time=0
EXTRACT: note_off channel=12 note=67 velocity=0 time=0
EXTRACT: note_on channel=12 note=50 velocity=74 time=0.009191171875
EXTRACT: note_on channel=12 note=57 velocity=70 time=0
EXTRACT: note_on channel=12 note=60 velocity=75 time=0
EXTRACT: note_on channel=12 note=64 velocity=77 time=0
EXTRACT: note_on channel=12 note=67 velocity=65 time=0
EXTRACT: note_off channel=2 note=76 velocity=0 time=0.045955859375
EXTRACT: note_off channel=12 note=50 velocity=0 time=0.09191171875
EXTRACT: note_off channel=12 note=57 velocity=0 time=0
EXTRACT: note_off channel=12 note=60 velocity=0 time=0
EXTRACT: note_off channel=12 note=64 velocity=0 time=0
EXTRACT: note_off channel=12 note=67 velocity=0 time=0
EXTRACT: note_on channel=12 note=50 velocity=97 time=0.009191171875
EXTRACT: note_on channel=12 note=57 velocity=87 time=0
EXTRACT: note_on channel=12 note=60 velocity=93 time=0
EXTRACT: note_on channel=12 note=64 velocity=92 time=0
EXTRACT: note_on channel=12 note=67 velocity=65 time=0
EXTRACT: note_on channel=2 note=76 velocity=111 time=0.14705875
EXTRACT: note_off channel=2 note=76 velocity=0 time=0.073529375
EXTRACT: note_off channel=12 note=50 velocity=0 time=0.06433820312499999
EXTRACT: note_off channel=12 note=57 velocity=0 time=0
EXTRACT: note_off channel=12 note=60 velocity=0 time=0
EXTRACT: note_off channel=12 note=64 velocity=0 time=0
EXTRACT: note_off channel=12 note=67 velocity=0 time=0
EXTRACT: note_on channel=2 note=76 velocity=87 time=0.009191171875
EXTRACT: note_on channel=12 note=50 velocity=73 time=0
EXTRACT: note_on channel=12 note=57 velocity=76 time=0
EXTRACT: note_on channel=12 note=60 velocity=78 time=0
EXTRACT: note_on channel=12 note=64 velocity=83 time=0
EXTRACT: note_on channel=12 note=67 velocity=71 time=0
EXTRACT: note_off channel=2 note=76 velocity=0 time=0.07046565104166666
EXTRACT: note_off channel=12 note=50 velocity=0 time=0.06740192708333333
EXTRACT: note_off channel=12 note=57 velocity=0 time=0
EXTRACT: note_off channel=12 note=60 velocity=0 time=0
EXTRACT: note_off channel=12 note=64 velocity=0 time=0
EXTRACT: note_off channel=12 note=67 velocity=0 time=0
EXTRACT: note_on channel=2 note=76 velocity=107 time=0.009191171875
EXTRACT: note_on channel=12 note=50 velocity=87 time=0
EXTRACT: note_on channel=12 note=57 velocity=92 time=0
EXTRACT: note_on channel=12 note=60 velocity=95 time=0
EXTRACT: note_on channel=12 note=64 velocity=96 time=0
EXTRACT: note_on channel=12 note=67 velocity=89 time=0
EXTRACT: note_off channel=2 note=76 velocity=0 time=0.22365184895833332
EXTRACT: note_off channel=12 note=50 velocity=0 time=0.061274479166666666
EXTRACT: note_off channel=12 note=57 velocity=0 time=0
EXTRACT: note_off channel=12 note=60 velocity=0 time=0
EXTRACT: note_off channel=12 note=64 velocity=0 time=0
EXTRACT: note_off channel=12 note=67 velocity=0 time=0
EXTRACT: note_on channel=2 note=77 velocity=114 time=0.009191171875
EXTRACT: note_on channel=9 note=44 velocity=101 time=0
EXTRACT: note_on channel=12 note=50 velocity=89 time=0
EXTRACT: note_on channel=12 note=57 velocity=105 time=0
EXTRACT: note_on channel=12 note=60 velocity=102 time=0
EXTRACT: note_on channel=12 note=64 velocity=99 time=0
EXTRACT: note_on channel=12 note=67 velocity=92 time=0
EXTRACT: note_off channel=9 note=44 velocity=0 time=0.012254895833333333
EXTRACT: note_off channel=2 note=77 velocity=0 time=0.174632265625
EXTRACT: note_off channel=12 note=50 velocity=0 time=0.09803916666666666
EXTRACT: note_off channel=12 note=57 velocity=0 time=0
EXTRACT: note_off channel=12 note=60 velocity=0 time=0
EXTRACT: note_off channel=12 note=64 velocity=0 time=0
EXTRACT: note_off channel=12 note=67 velocity=0 time=0
EXTRACT: note_on channel=0 note=38 velocity=117 time=0.009191171875
EXTRACT: note_on channel=2 note=76 velocity=95 time=0
EXTRACT: note_on channel=12 note=50 velocity=86 time=0
EXTRACT: note_on channel=12 note=57 velocity=98 time=0
EXTRACT: note_on channel=12 note=60 velocity=96 time=0
EXTRACT: note_on channel=12 note=64 velocity=96 time=0
EXTRACT: note_on channel=12 note=67 velocity=92 time=0
EXTRACT: note_off channel=12 note=50 velocity=0 time=0.137867578125
EXTRACT: note_off channel=12 note=57 velocity=0 time=0
EXTRACT: note_off channel=12 note=60 velocity=0 time=0
EXTRACT: note_off channel=12 note=64 velocity=0 time=0
EXTRACT: note_off channel=12 note=67 velocity=0 time=0
EXTRACT: note_on channel=12 note=50 velocity=88 time=0.009191171875
EXTRACT: note_on channel=12 note=57 velocity=84 time=0
EXTRACT: note_on channel=12 note=60 velocity=93 time=0
EXTRACT: note_on channel=12 note=64 velocity=97 time=0
EXTRACT: note_on channel=12 note=67 velocity=97 time=0
EXTRACT: note_off channel=0 note=38 velocity=0 time=0.137867578125
EXTRACT: note_off channel=12 note=50 velocity=0 time=0
EXTRACT: note_off channel=12 note=57 velocity=0 time=0
EXTRACT: note_off channel=12 note=60 velocity=0 time=0
EXTRACT: note_off channel=12 note=64 velocity=0 time=0
EXTRACT: note_off channel=12 note=67 velocity=0 time=0
EXTRACT: note_on channel=0 note=36 velocity=115 time=0.009191171875
EXTRACT: note_on channel=9 note=36 velocity=119 time=0
EXTRACT: note_on channel=9 note=49 velocity=86 time=0
EXTRACT: note_on channel=10 note=55 velocity=88 time=0
EXTRACT: note_on channel=10 note=60 velocity=91 time=0
EXTRACT: note_on channel=10 note=62 velocity=90 time=0
EXTRACT: note_on channel=12 note=48 velocity=100 time=0
EXTRACT: note_on channel=12 note=55 velocity=98 time=0
EXTRACT: note_on channel=12 note=60 velocity=97 time=0
EXTRACT: note_on channel=12 note=62 velocity=110 time=0
EXTRACT: note_on channel=12 note=67 velocity=94 time=0
EXTRACT: note_off channel=9 note=36 velocity=0 time=0.012254895833333333
EXTRACT: note_off channel=9 note=49 velocity=0 time=0
EXTRACT: note_off channel=0 note=36 velocity=0 time=0.25122536458333333
EXTRACT: note_on channel=0 note=36 velocity=114 time=0.030637239583333333
EXTRACT: note_on channel=9 note=42 velocity=43 time=0
EXTRACT: note_off channel=9 note=42 velocity=0 time=0.012254895833333333
EXTRACT: note_on channel=9 note=42 velocity=39 time=0.13480385416666665
EXTRACT: note_off channel=9 note=42 velocity=0 time=0.012254895833333333
EXTRACT: note_off channel=0 note=36 velocity=0 time=0.08884799479166666
EXTRACT: note_off channel=12 note=48 velocity=0 time=0.0367646875
EXTRACT: note_off channel=12 note=55 velocity=0 time=0
EXTRACT: note_off channel=12 note=60 velocity=0 time=0
EXTRACT: note_off channel=12 note=62 velocity=0 time=0
EXTRACT: note_off channel=12 note=67 velocity=0 time=0
EXTRACT: note_on channel=0 note=36 velocity=114 time=0.009191171875
EXTRACT: note_on channel=9 note=40 velocity=113 time=0
EXTRACT: note_on channel=9 note=42 velocity=99 time=0
EXTRACT: note_on channel=12 note=48 velocity=109 time=0
EXTRACT: note_on channel=12 note=55 velocity=106 time=0
EXTRACT: note_on channel=12 note=60 velocity=92 time=0
EXTRACT: note_on channel=12 note=62 velocity=106 time=0
EXTRACT: note_on channel=12 note=67 velocity=97 time=0
EXTRACT: note_off channel=9 note=40 velocity=0 time=0.012254895833333333
EXTRACT: note_off channel=9 note=42 velocity=0 time=0
EXTRACT: note_on channel=9 note=42 velocity=40 time=0.13480385416666665
EXTRACT: note_off channel=9 note=42 velocity=0 time=0.012254895833333333
EXTRACT: note_off channel=0 note=36 velocity=0 time=0.09191171875
EXTRACT: note_on channel=0 note=36 velocity=107 time=0.042892135416666664
EXTRACT: note_on channel=9 note=42 velocity=46 time=0
EXTRACT: note_off channel=9 note=42 velocity=0 time=0.012254895833333333
EXTRACT: note_off channel=0 note=36 velocity=0 time=0.08884799479166666
EXTRACT: note_off channel=12 note=48 velocity=0 time=0.0367646875
EXTRACT: note_off channel=12 note=55 velocity=0 time=0
EXTRACT: note_off channel=12 note=60 velocity=0 time=0
EXTRACT: note_off channel=12 note=62 velocity=0 time=0
EXTRACT: note_off channel=12 note=67 velocity=0 time=0
EXTRACT: note_on channel=0 note=36 velocity=112 time=0.009191171875
EXTRACT: note_on channel=9 note=36 velocity=110 time=0
EXTRACT: note_on channel=9 note=40 velocity=51 time=0
EXTRACT: note_on channel=9 note=42 velocity=41 time=0
EXTRACT: note_on channel=12 note=48 velocity=108 time=0
EXTRACT: note_on channel=12 note=55 velocity=114 time=0
EXTRACT: note_on channel=12 note=60 velocity=99 time=0
EXTRACT: note_on channel=12 note=62 velocity=116 time=0
EXTRACT: note_on channel=12 note=67 velocity=96 time=0
EXTRACT: note_off channel=9 note=36 velocity=0 time=0.012254895833333333
EXTRACT: note_off channel=9 note=40 velocity=0 time=0
EXTRACT: note_off channel=9 note=42 velocity=0 time=0
EXTRACT: note_on channel=9 note=42 velocity=99 time=0.13480385416666665
EXTRACT: note_off channel=9 note=42 velocity=0 time=0.012254895833333333
EXTRACT: note_off channel=0 note=36 velocity=0 time=0.08884799479166666
EXTRACT: note_off channel=12 note=48 velocity=0 time=0.0367646875
EXTRACT: note_off channel=12 note=55 velocity=0 time=0
EXTRACT: note_off channel=12 note=60 velocity=0 time=0
EXTRACT: note_off channel=12 note=62 velocity=0 time=0
EXTRACT: note_off channel=12 note=67 velocity=0 time=0
EXTRACT: note_on channel=0 note=36 velocity=107 time=0.009191171875
EXTRACT: note_on channel=9 note=36 velocity=59 time=0
EXTRACT: note_on channel=9 note=40 velocity=49 time=0
EXTRACT: note_on channel=9 note=42 velocity=47 time=0
EXTRACT: note_on channel=12 note=48 velocity=82 time=0
EXTRACT: note_on channel=12 note=55 velocity=90 time=0
EXTRACT: note_on channel=12 note=60 velocity=68 time=0
EXTRACT: note_on channel=12 note=62 velocity=80 time=0
EXTRACT: note_on channel=12 note=67 velocity=74 time=0
EXTRACT: note_off channel=9 note=36 velocity=0 time=0.012254895833333333
EXTRACT: note_off channel=9 note=40 velocity=0 time=0
EXTRACT: note_off channel=9 note=42 velocity=0 time=0
EXTRACT: note_off channel=2 note=76 velocity=0 time=0.009191171875
EXTRACT: note_off channel=0 note=36 velocity=0 time=0.07659309895833333
EXTRACT: note_off channel=12 note=48 velocity=0 time=0.03982841145833333
EXTRACT: note_off channel=12 note=55 velocity=0 time=0
EXTRACT: note_off channel=12 note=60 velocity=0 time=0
EXTRACT: note_off channel=12 note=62 velocity=0 time=0
EXTRACT: note_off channel=12 note=67 velocity=0 time=0
EXTRACT: note_on channel=0 note=36 velocity=115 time=0.009191171875
EXTRACT: note_on channel=9 note=36 velocity=116 time=0
EXTRACT: note_on channel=9 note=42 velocity=40 time=0
EXTRACT: note_on channel=12 note=48 velocity=76 time=0
EXTRACT: note_on channel=12 note=55 velocity=85 time=0
EXTRACT: note_on channel=12 note=60 velocity=85 time=0
EXTRACT: note_on channel=12 note=62 velocity=97 time=0
EXTRACT: note_on channel=12 note=67 velocity=87 time=0
EXTRACT: note_off channel=9 note=36 velocity=0 time=0.012254895833333333
EXTRACT: note_off channel=9 note=42 velocity=0 time=0
EXTRACT: note_on channel=9 note=42 velocity=32 time=0.13480385416666665
EXTRACT: note_off channel=9 note=42 velocity=0 time=0.012254895833333333
EXTRACT: note_off channel=0 note=36 velocity=0 time=0.1102940625
EXTRACT: note_off channel=12 note=48 velocity=0 time=0.015318619791666667
EXTRACT: note_off channel=12 note=55 velocity=0 time=0
EXTRACT: note_off channel=12 note=60 velocity=0 time=0
EXTRACT: note_off channel=12 note=62 velocity=0 time=0
EXTRACT: note_off channel=12 note=67 velocity=0 time=0
EXTRACT: note_on channel=0 note=36 velocity=113 time=0.009191171875
EXTRACT: note_on channel=4 note=60 velocity=72 time=0
EXTRACT: note_on channel=9 note=40 velocity=120 time=0
EXTRACT: note_on channel=9 note=42 velocity=102 time=0
EXTRACT: note_on channel=12 note=48 velocity=109 time=0
EXTRACT: note_on channel=12 note=55 velocity=109 time=0
EXTRACT: note_on channel=12 note=60 velocity=100 time=0
EXTRACT: note_on channel=12 note=62 velocity=120 time=0
EXTRACT: note_on channel=12 note=67 velocity=104 time=0
EXTRACT: note_off channel=9 note=40 velocity=0 time=0.012254895833333333
EXTRACT: note_off channel=9 note=42 velocity=0 time=0
EXTRACT: note_on channel=9 note=42 velocity=47 time=0.13480385416666665
EXTRACT: note_off channel=9 note=42 velocity=0 time=0.012254895833333333
EXTRACT: note_off channel=0 note=36 velocity=0 time=0.07659309895833333
EXTRACT: note_off channel=12 note=48 velocity=0 time=0.04901958333333333
EXTRACT: note_off channel=12 note=55 velocity=0 time=0
EXTRACT: note_off channel=12 note=60 velocity=0 time=0
EXTRACT: note_off channel=12 note=62 velocity=0 time=0
EXTRACT: note_off channel=12 note=67 velocity=0 time=0
EXTRACT: note_on channel=0 note=36 velocity=106 time=0.009191171875
EXTRACT: note_on channel=2 note=72 velocity=89 time=0
EXTRACT: note_on channel=9 note=42 velocity=32 time=0
EXTRACT: note_on channel=12 note=48 velocity=71 time=0
EXTRACT: note_on channel=12 note=55 velocity=91 time=0
EXTRACT: note_on channel=12 note=60 velocity=73 time=0
EXTRACT: note_on channel=12 note=62 velocity=77 time=0
EXTRACT: note_on channel=12 note=67 velocity=74 time=0
EXTRACT: note_off channel=9 note=42 velocity=0 time=0.012254895833333333
EXTRACT: note_off channel=2 note=72 velocity=0 time=0.09191171875
EXTRACT: note_off channel=0 note=36 velocity=0 time=0.012254895833333333
EXTRACT: note_off channel=4 note=60 velocity=0 time=0.009191171875
EXTRACT: note_off channel=12 note=48 velocity=0 time=0.012254895833333333
EXTRACT: note_off channel=12 note=55 velocity=0 time=0
EXTRACT: note_off channel=12 note=60 velocity=0 time=0
EXTRACT: note_off channel=12 note=62 velocity=0 time=0
EXTRACT: note_off channel=12 note=67 velocity=0 time=0
EXTRACT: note_off channel=10 note=60 velocity=0 time=0.0030637239583333332
EXTRACT: note_on channel=0 note=36 velocity=108 time=0.0061274479166666665
EXTRACT: note_on channel=2 note=74 velocity=82 time=0
EXTRACT: note_on channel=9 note=36 velocity=62 time=0
EXTRACT: note_on channel=9 note=42 velocity=34 time=0
EXTRACT: note_on channel=12 note=48 velocity=73 time=0
EXTRACT: note_on channel=12 note=55 velocity=88 time=0
EXTRACT: note_on channel=12 note=60 velocity=76 time=0
EXTRACT: note_on channel=12 note=62 velocity=91 time=0
EXTRACT: note_on channel=12 note=67 velocity=81 time=0
EXTRACT: note_off channel=9 note=36 velocity=0 time=0.012254895833333333
EXTRACT: note_off channel=9 note=42 velocity=0 time=0
EXTRACT: note_off channel=10 note=55 velocity=0 time=0.015318619791666667
EXTRACT: note_off channel=10 note=62 velocity=0 time=0.0061274479166666665
EXTRACT: note_off channel=0 note=36 velocity=0 time=0.06740192708333333
EXTRACT: note_off channel=2 note=74 velocity=0 time=0.0061274479166666665
EXTRACT: note_off channel=12 note=48 velocity=0 time=0.030637239583333333
EXTRACT: note_off channel=12 note=55 velocity=0 time=0
EXTRACT: note_off channel=12 note=60 velocity=0 time=0
EXTRACT: note_off channel=12 note=62 velocity=0 time=0
EXTRACT: note_off channel=12 note=67 velocity=0 time=0
EXTRACT: note_on channel=0 note=36 velocity=119 time=0.009191171875
EXTRACT: note_on channel=2 note=76 velocity=96 time=0
EXTRACT: note_on channel=4 note=59 velocity=88 time=0
EXTRACT: note_on channel=9 note=36 velocity=115 time=0
EXTRACT: note_on channel=9 note=42 velocity=94 time=0
EXTRACT: note_on channel=10 note=55 velocity=94 time=0
EXTRACT: note_on channel=10 note=59 velocity=103 time=0
EXTRACT: note_on channel=10 note=62 velocity=97 time=0
EXTRACT: note_on channel=12 note=48 velocity=101 time=0
EXTRACT: note_on channel=12 note=55 velocity=100 time=0
EXTRACT: note_on channel=12 note=59 velocity=97 time=0
EXTRACT: note_on channel=12 note=62 velocity=105 time=0
EXTRACT: note_on channel=12 note=67 velocity=95 time=0
EXTRACT: note_off channel=9 note=36 velocity=0 time=0.012254895833333333
EXTRACT: note_off channel=9 note=42 velocity=0 time=0
EXTRACT: note_on channel=9 note=40 velocity=52 time=0.13480385416666665
EXTRACT: note_on channel=9 note=42 velocity=25 time=0
EXTRACT: note_off channel=9 note=40 velocity=0 time=0.012254895833333333
EXTRACT: note_off channel=9 note=42 velocity=0 time=0
EXTRACT: note_off channel=2 note=76 velocity=0 time=0.08884799479166666
EXTRACT: note_off channel=0 note=36 velocity=0 time=0.0030637239583333332
EXTRACT: note_on channel=0 note=36 velocity=107 time=0.042892135416666664
EXTRACT: note_on channel=2 note=76 velocity=93 time=0
EXTRACT: note_on channel=9 note=42 velocity=37 time=0
EXTRACT: note_off channel=9 note=42 velocity=0 time=0.012254895833333333
EXTRACT: note_off channel=2 note=76 velocity=0 time=0.073529375
EXTRACT: note_on channel=2 note=76 velocity=93 time=0.061274479166666666
EXTRACT: note_on channel=9 note=42 velocity=36 time=0
EXTRACT: note_off channel=9 note=42 velocity=0 time=0.012254895833333333
EXTRACT: note_off channel=0 note=36 velocity=0 time=0.09803916666666666
EXTRACT: note_off channel=12 note=48 velocity=0 time=0.027573515625
EXTRACT: note_off channel=12 note=55 velocity=0 time=0
EXTRACT: note_off channel=12 note=59 velocity=0 time=0
EXTRACT: note_off channel=12 note=62 velocity=0 time=0
EXTRACT: note_off channel=12 note=67 velocity=0 time=0
EXTRACT: note_on channel=0 note=36 velocity=108 time=0.009191171875
EXTRACT: note_on channel=9 note=40 velocity=115 time=0
EXTRACT: note_on channel=9 note=42 velocity=101 time=0
EXTRACT: note_on channel=12 note=48 velocity=107 time=0
EXTRACT: note_on channel=12 note=55 velocity=108 time=0
EXTRACT: note_on channel=12 note=59 velocity=108 time=0
EXTRACT: note_on channel=12 note=62 velocity=117 time=0
EXTRACT: note_on channel=12 note=67 velocity=97 time=0
EXTRACT: note_off channel=9 note=40 velocity=0 time=0.012254895833333333
EXTRACT: note_off channel=9 note=42 velocity=0 time=0
EXTRACT: note_on channel=9 note=42 velocity=51 time=0.13480385416666665
EXTRACT: note_off channel=9 note=42 velocity=0 time=0.012254895833333333
EXTRACT: note_off channel=2 note=76 velocity=0 time=0.015318619791666667
EXTRACT: note_off channel=0 note=36 velocity=0 time=0.10723033854166666
EXTRACT: note_off channel=12 note=48 velocity=0 time=0.0030637239583333332
EXTRACT: note_off channel=12 note=55 velocity=0 time=0
EXTRACT: note_off channel=12 note=59 velocity=0 time=0
EXTRACT: note_off channel=12 note=62 velocity=0 time=0
EXTRACT: note_off channel=12 note=67 velocity=0 time=0
EXTRACT: note_on channel=0 note=36 velocity=111 time=0.009191171875
EXTRACT: note_on channel=2 note=76 velocity=101 time=0
EXTRACT: note_on channel=9 note=42 velocity=41 time=0
EXTRACT: note_on channel=12 note=48 velocity=64 time=0
EXTRACT: note_on channel=12 note=55 velocity=86 time=0
EXTRACT: note_on channel=12 note=59 velocity=68 time=0
EXTRACT: note_on channel=12 note=62 velocity=74 time=0
EXTRACT: note_on channel=12 note=67 velocity=68 time=0
EXTRACT: note_off channel=9 note=42 velocity=0 time=0.012254895833333333
EXTRACT: note_off channel=4 note=59 velocity=0 time=0.012254895833333333
EXTRACT: note_off channel=2 note=76 velocity=0 time=0.030637239583333333
EXTRACT: note_off channel=0 note=36 velocity=0 time=0.06740192708333333
EXTRACT: note_off channel=12 note=48 velocity=0 time=0.015318619791666667
EXTRACT: note_off channel=12 note=55 velocity=0 time=0
EXTRACT: note_off channel=12 note=59 velocity=0 time=0
EXTRACT: note_off channel=12 note=62 velocity=0 time=0
EXTRACT: note_off channel=12 note=67 velocity=0 time=0
EXTRACT: note_on channel=0 note=36 velocity=107 time=0.009191171875
EXTRACT: note_on channel=2 note=76 velocity=82 time=0
EXTRACT: note_on channel=9 note=36 velocity=112 time=0
EXTRACT: note_on channel=9 note=42 velocity=32 time=0
EXTRACT: note_on channel=12 note=48 velocity=105 time=0
EXTRACT: note_on channel=12 note=55 velocity=101 time=0
EXTRACT: note_on channel=12 note=59 velocity=94 time=0
EXTRACT: note_on channel=12 note=62 velocity=110 time=0
EXTRACT: note_on channel=12 note=67 velocity=88 time=0
EXTRACT: note_off channel=9 note=36 velocity=0 time=0.012254895833333333
EXTRACT: note_off channel=9 note=42 velocity=0 time=0
EXTRACT: note_off channel=2 note=76 velocity=0 time=0.073529375
EXTRACT: note_on channel=2 note=79 velocity=99 time=0.061274479166666666
EXTRACT: note_on channel=9 note=42 velocity=98 time=0
EXTRACT: note_off channel=9 note=42 velocity=0 time=0.012254895833333333
EXTRACT: note_off channel=0 note=36 velocity=0 time=0.09497544270833333
EXTRACT: note_off channel=12 note=48 velocity=0 time=0.030637239583333333
EXTRACT: note_off channel=12 note=55 velocity=0 time=0
EXTRACT: note_off channel=12 note=59 velocity=0 time=0
EXTRACT: note_off channel=12 note=62 velocity=0 time=0
EXTRACT: note_off channel=12 note=67 velocity=0 time=0
EXTRACT: note_on channel=0 note=36 velocity=107 time=0.009191171875
EXTRACT: note_on channel=9 note=36 velocity=52 time=0
EXTRACT: note_on channel=9 note=42 velocity=47 time=0
EXTRACT: note_on channel=12 note=48 velocity=69 time=0
EXTRACT: note_on channel=12 note=55 velocity=85 time=0
EXTRACT: note_on channel=12 note=59 velocity=79 time=0
EXTRACT: note_on channel=12 note=62 velocity=80 time=0
EXTRACT: note_on channel=12 note=67 velocity=80 time=0
EXTRACT: note_off channel=9 note=36 velocity=0 time=0.012254895833333333
EXTRACT: note_off channel=9 note=42 velocity=0 time=0
EXTRACT: note_off channel=0 note=36 velocity=0 time=0.09191171875
EXTRACT: note_off channel=2 note=79 velocity=0 time=0.021446067708333332
EXTRACT: note_off channel=12 note=48 velocity=0 time=0.012254895833333333
EXTRACT: note_off channel=12 note=55 velocity=0 time=0
EXTRACT: note_off channel=12 note=59 velocity=0 time=0
EXTRACT: note_off channel=12 note=62 velocity=0 time=0
EXTRACT: note_off channel=12 note=67 velocity=0 time=0
EXTRACT: note_on channel=0 note=36 velocity=108 time=0.009191171875
EXTRACT: note_on channel=9 note=36 velocity=115 time=0
EXTRACT: note_on channel=9 note=42 velocity=39 time=0
EXTRACT: note_on channel=12 note=48 velocity=101 time=0
EXTRACT: note_on channel=12 note=55 velocity=100 time=0
EXTRACT: note_on channel=12 note=59 velocity=88 time=0
EXTRACT: note_on channel=12 note=62 velocity=106 time=0
EXTRACT: note_on channel=12 note=67 velocity=92 time=0
EXTRACT: note_off channel=9 note=36 velocity=0 time=0.012254895833333333
EXTRACT: note_off channel=9 note=42 velocity=0 time=0
EXTRACT: note_on channel=2 note=79 velocity=99 time=0.13480385416666665
EXTRACT: note_on channel=9 note=42 velocity=40 time=0
EXTRACT: note_off channel=9 note=42 velocity=0 time=0.012254895833333333
EXTRACT: note_off channel=0 note=36 velocity=0 time=0.09803916666666666
EXTRACT: note_off channel=12 note=48 velocity=0 time=0.027573515625
EXTRACT: note_off channel=12 note=55 velocity=0 time=0
EXTRACT: note_off channel=12 note=59 velocity=0 time=0
EXTRACT: note_off channel=12 note=62 velocity=0 time=0
EXTRACT: note_off channel=12 note=67 velocity=0 time=0
EXTRACT: note_on channel=0 note=36 velocity=117 time=0.009191171875
EXTRACT: note_on channel=9 note=40 velocity=122 time=0
EXTRACT: note_on channel=9 note=42 velocity=109 time=0
EXTRACT: note_on channel=12 note=48 velocity=107 time=0
EXTRACT: note_on channel=12 note=55 velocity=114 time=0
EXTRACT: note_on channel=12 note=59 velocity=96 time=0
EXTRACT: note_on channel=12 note=62 velocity=110 time=0
EXTRACT: note_on channel=12 note=67 velocity=100 time=0
EXTRACT: note_off channel=9 note=40 velocity=0 time=0.012254895833333333
EXTRACT: note_off channel=9 note=42 velocity=0 time=0
EXTRACT: note_off channel=2 note=79 velocity=0 time=0.11335778645833333
EXTRACT: note_on channel=9 note=42 velocity=58 time=0.021446067708333332
EXTRACT: note_off channel=9 note=42 velocity=0 time=0.012254895833333333
EXTRACT: note_off channel=0 note=36 velocity=0 time=0.07046565104166666
EXTRACT: note_off channel=12 note=48 velocity=0 time=0.05514703125
EXTRACT: note_off channel=12 note=55 velocity=0 time=0
EXTRACT: note_off channel=12 note=59 velocity=0 time=0
EXTRACT: note_off channel=12 note=62 velocity=0 time=0
EXTRACT: note_off channel=12 note=67 velocity=0 time=0
EXTRACT: note_on channel=0 note=36 velocity=102 time=0.009191171875
EXTRACT: note_on channel=2 note=72 velocity=98 time=0
EXTRACT: note_on channel=9 note=46 velocity=99 time=0
EXTRACT: note_on channel=12 note=48 velocity=77 time=0
EXTRACT: note_on channel=12 note=55 velocity=83 time=0
EXTRACT: note_on channel=12 note=59 velocity=85 time=0
EXTRACT: note_on channel=12 note=62 velocity=90 time=0
EXTRACT: note_on channel=12 note=67 velocity=83 time=0
EXTRACT: note_off channel=9 note=46 velocity=0 time=0.012254895833333333
EXTRACT: note_off channel=12 note=48 velocity=0 time=0.12561268229166667
EXTRACT: note_off channel=12 note=55 velocity=0 time=0
EXTRACT: note_off channel=12 note=59 velocity=0 time=0
EXTRACT: note_off channel=12 note=62 velocity=0 time=0
EXTRACT: note_off channel=12 note=67 velocity=0 time=0
EXTRACT: note_off channel=0 note=36 velocity=0 time=0.0030637239583333332
EXTRACT: note_on channel=0 note=36 velocity=115 time=0.0061274479166666665
EXTRACT: note_on channel=9 note=36 velocity=61 time=0
EXTRACT: note_on channel=12 note=48 velocity=96 time=0
EXTRACT: note_on channel=12 note=55 velocity=99 time=0
EXTRACT: note_on channel=12 note=59 velocity=94 time=0
EXTRACT: note_on channel=12 note=62 velocity=98 time=0
EXTRACT: note_on channel=12 note=67 velocity=69 time=0
EXTRACT: note_off channel=9 note=36 velocity=0 time=0.012254895833333333
EXTRACT: note_off channel=10 note=55 velocity=0 time=0.05514703125
EXTRACT: note_off channel=10 note=59 velocity=0 time=0.027573515625
EXTRACT: note_off channel=10 note=62 velocity=0 time=0.01838234375
EXTRACT: note_off channel=0 note=36 velocity=0 time=0.024509791666666666
EXTRACT: note_off channel=12 note=48 velocity=0 time=0
EXTRACT: note_off channel=12 note=55 velocity=0 time=0
EXTRACT: note_off channel=12 note=59 velocity=0 time=0
EXTRACT: note_off channel=12 note=62 velocity=0 time=0
EXTRACT: note_off channel=12 note=67 velocity=0 time=0
EXTRACT: note_on channel=9 note=36 velocity=117 time=0.009191171875
EXTRACT: note_on channel=9 note=49 velocity=85 time=0
EXTRACT: note_on channel=12 note=53 velocity=95 time=0
EXTRACT: note_on channel=12 note=57 velocity=98 time=0
EXTRACT: note_on channel=12 note=60 velocity=98 time=0
EXTRACT: note_on channel=12 note=64 velocity=87 time=0
EXTRACT: note_on channel=12 note=67 velocity=99 time=0
EXTRACT: note_off channel=9 note=36 velocity=0 time=0.012254895833333333
EXTRACT: note_off channel=9 note=49 velocity=0 time=0
EXTRACT: note_off channel=2 note=72 velocity=0 time=0.29105377604166666
EXTRACT: note_off channel=12 note=53 velocity=0 time=0.27573515625
EXTRACT: note_off channel=12 note=57 velocity=0 time=0
EXTRACT: note_off channel=12 note=60 velocity=0 time=0
EXTRACT: note_off channel=12 note=64 velocity=0 time=0
EXTRACT: note_off channel=12 note=67 velocity=0 time=0
EXTRACT: note_on channel=2 note=79 velocity=108 time=0.009191171875
EXTRACT: note_on channel=9 note=44 velocity=90 time=0
EXTRACT: note_on channel=12 note=53 velocity=93 time=0
EXTRACT: note_on channel=12 note=57 velocity=97 time=0
EXTRACT: note_on channel=12 note=60 velocity=96 time=0
EXTRACT: note_on channel=12 note=64 velocity=97 time=0
EXTRACT: note_on channel=12 note=67 velocity=89 time=0
EXTRACT: note_off channel=9 note=44 velocity=0 time=0.012254895833333333
EXTRACT: note_off channel=2 note=79 velocity=0 time=0.193014609375
EXTRACT: note_on channel=2 note=79 velocity=94 time=0.08884799479166666
EXTRACT: note_off channel=2 note=79 velocity=0 time=0.09497544270833333
EXTRACT: note_off channel=12 note=53 velocity=0 time=0.042892135416666664
EXTRACT: note_off channel=12 note=57 velocity=0 time=0
EXTRACT: note_off channel=12 note=60 velocity=0 time=0
EXTRACT: note_off channel=12 note=64 velocity=0 time=0
EXTRACT: note_off channel=12 note=67 velocity=0 time=0
EXTRACT: note_on channel=2 note=79 velocity=95 time=0.009191171875
EXTRACT: note_on channel=12 note=53 velocity=91 time=0
EXTRACT: note_on channel=12 note=57 velocity=95 time=0
EXTRACT: note_on channel=12 note=60 velocity=94 time=0
EXTRACT: note_on channel=12 note=64 velocity=98 time=0
EXTRACT: note_on channel=12 note=67 velocity=85 time=0
EXTRACT: note_off channel=12 note=53 velocity=0 time=0.284926328125
EXTRACT: note_off channel=12 note=57 velocity=0 time=0
EXTRACT: note_off channel=12 note=60 velocity=0 time=0
EXTRACT: note_off channel=12 note=64 velocity=0 time=0
EXTRACT: note_off channel=12 note=67 velocity=0 time=0
EXTRACT: note_on channel=12 note=53 velocity=70 time=0.009191171875
EXTRACT: note_on channel=12 note=57 velocity=76 time=0
EXTRACT: note_on channel=12 note=60 velocity=81 time=0
EXTRACT: note_on channel=12 note=64 velocity=86 time=0
EXTRACT: note_on channel=12 note=67 velocity=63 time=0
EXTRACT: note_off channel=12 note=53 velocity=0 time=0.137867578125
EXTRACT: note_off channel=12 note=57 velocity=0 time=0
EXTRACT: note_off channel=12 note=60 velocity=0 time=0
EXTRACT: note_off channel=12 note=64 velocity=0 time=0
EXTRACT: note_off channel=12 note=67 velocity=0 time=0
EXTRACT: note_on channel=12 note=53 velocity=64 time=0.009191171875
EXTRACT: note_on channel=12 note=57 velocity=87 time=0
EXTRACT: note_on channel=12 note=60 velocity=90 time=0
EXTRACT: note_on channel=12 note=64 velocity=92 time=0
EXTRACT: note_on channel=12 note=67 velocity=83 time=0
EXTRACT: note_off channel=2 note=79 velocity=0 time=0.14399502604166667
EXTRACT: note_off channel=12 note=53 velocity=0 time=0.14093130208333332
EXTRACT: note_off channel=12 note=57 velocity=0 time=0
EXTRACT: note_off channel=12 note=60 velocity=0 time=0
EXTRACT: note_off channel=12 note=64 velocity=0 time=0
EXTRACT: note_off channel=12 note=67 velocity=0 time=0
EXTRACT: note_on channel=2 note=81 velocity=102 time=0.009191171875
EXTRACT: note_on channel=9 note=44 velocity=92 time=0
EXTRACT: note_on channel=12 note=53 velocity=89 time=0
EXTRACT: note_on channel=12 note=57 velocity=110 time=0
EXTRACT: note_on channel=12 note=60 velocity=111 time=0
EXTRACT: note_on channel=12 note=64 velocity=110 time=0
EXTRACT: note_on channel=12 note=67 velocity=104 time=0
EXTRACT: note_off channel=9 note=44 velocity=0 time=0.012254895833333333
EXTRACT: note_off channel=2 note=81 velocity=0 time=0.23897046875
EXTRACT: note_off channel=12 note=53 velocity=0 time=0.03370096354166666
EXTRACT: note_off channel=12 note=57 velocity=0 time=0
EXTRACT: note_off channel=12 note=60 velocity=0 time=0
EXTRACT: note_off channel=12 note=64 velocity=0 time=0
EXTRACT: note_off channel=12 note=67 velocity=0 time=0
EXTRACT: note_on channel=2 note=79 velocity=82 time=0.009191171875
EXTRACT: note_on channel=12 note=53 velocity=87 time=0
EXTRACT: note_on channel=12 note=57 velocity=82 time=0
EXTRACT: note_on channel=12 note=60 velocity=92 time=0
EXTRACT: note_on channel=12 note=64 velocity=82 time=0
EXTRACT: note_on channel=12 note=67 velocity=79 time=0
EXTRACT: note_off channel=2 note=79 velocity=0 time=0.05514703125
EXTRACT: note_off channel=12 note=53 velocity=0 time=0.082720546875
EXTRACT: note_off channel=12 note=57 velocity=0 time=0
EXTRACT: note_off channel=12 note=60 velocity=0 time=0
EXTRACT: note_off channel=12 note=64 velocity=0 time=0
EXTRACT: note_off channel=12 note=67 velocity=0 time=0
EXTRACT: note_on channel=2 note=79 velocity=80 time=0.009191171875
EXTRACT: note_on channel=12 note=53 velocity=77 time=0
EXTRACT: note_on channel=12 note=57 velocity=85 time=0
EXTRACT: note_on channel=12 note=60 velocity=83 time=0
EXTRACT: note_on channel=12 note=64 velocity=79 time=0
EXTRACT: note_on channel=12 note=67 velocity=73 time=0
EXTRACT: note_off channel=12 note=53 velocity=0 time=0.137867578125
EXTRACT: note_off channel=12 note=57 velocity=0 time=0
EXTRACT: note_off channel=12 note=60 velocity=0 time=0
EXTRACT: note_off channel=12 note=64 velocity=0 time=0
EXTRACT: note_off channel=12 note=67 velocity=0 time=0
EXTRACT: note_on channel=12 note=50 velocity=103 time=0.009191171875
EXTRACT: note_on channel=12 note=57 velocity=99 time=0
EXTRACT: note_on channel=12 note=60 velocity=98 time=0
EXTRACT: note_on channel=12 note=64 velocity=95 time=0
EXTRACT: note_on channel=12 note=67 velocity=92 time=0
EXTRACT: note_off channel=2 note=79 velocity=0 time=0.11642151041666667
EXTRACT: note_on channel=2 note=77 velocity=78 time=0.030637239583333333
EXTRACT: note_off channel=2 note=77 velocity=0 time=0.101102890625
EXTRACT: note_on channel=2 note=76 velocity=97 time=0.045955859375
EXTRACT: note_off channel=12 note=50 velocity=0 time=0.284926328125
EXTRACT: note_off channel=12 note=57 velocity=0 time=0
EXTRACT: note_off channel=12 note=60 velocity=0 time=0
EXTRACT: note_off channel=12 note=64 velocity=0 time=0
EXTRACT: note_off channel=12 note=67 velocity=0 time=0
EXTRACT: note_on channel=9 note=44 velocity=97 time=0.009191171875
EXTRACT: note_on channel=12 note=50 velocity=96 time=0
EXTRACT: note_on channel=12 note=57 velocity=102 time=0
EXTRACT: note_on channel=12 note=60 velocity=107 time=0
EXTRACT: note_on channel=12 note=64 velocity=108 time=0
EXTRACT: note_on channel=12 note=67 velocity=101 time=0
EXTRACT: note_off channel=9 note=44 velocity=0 time=0.012254895833333333
EXTRACT: note_off channel=12 note=50 velocity=0 time=0.2726714322916667
EXTRACT: note_off channel=12 note=57 velocity=0 time=0
EXTRACT: note_off channel=12 note=60 velocity=0 time=0
EXTRACT: note_off channel=12 note=64 velocity=0 time=0
EXTRACT: note_off channel=12 note=67 velocity=0 time=0
EXTRACT: note_on channel=12 note=50 velocity=74 time=0.009191171875
EXTRACT: note_on channel=12 note=57 velocity=76 time=0
EXTRACT: note_on channel=12 note=60 velocity=73 time=0
EXTRACT: note_on channel=12 note=64 velocity=83 time=0
EXTRACT: note_on channel=12 note=67 velocity=60 time=0
EXTRACT: note_off channel=2 note=76 velocity=0 time=0.09191171875
EXTRACT: note_off channel=12 note=50 velocity=0 time=0.045955859375
EXTRACT: note_off channel=12 note=57 velocity=0 time=0
EXTRACT: note_off channel=12 note=60 velocity=0 time=0
EXTRACT: note_off channel=12 note=64 velocity=0 time=0
EXTRACT: note_off channel=12 note=67 velocity=0 time=0
EXTRACT: note_on channel=12 note=50 velocity=98 time=0.009191171875
EXTRACT: note_on channel=12 note=57 velocity=84 time=0
EXTRACT: note_on channel=12 note=60 velocity=97 time=0
EXTRACT: note_on channel=12 note=64 velocity=96 time=0
EXTRACT: note_on channel=12 note=67 velocity=64 time=0
EXTRACT: note_on channel=2 note=76 velocity=107 time=0.14705875
EXTRACT: note_off channel=2 note=76 velocity=0 time=0.06740192708333333
EXTRACT: note_off channel=12 note=50 velocity=0 time=0.07046565104166666
EXTRACT: note_off channel=12 note=57 velocity=0 time=0
EXTRACT: note_off channel=12 note=60 velocity=0 time=0
EXTRACT: note_off channel=12 note=64 velocity=0 time=0
EXTRACT: note_off channel=12 note=67 velocity=0 time=0
EXTRACT: note_on channel=2 note=76 velocity=92 time=0.009191171875
EXTRACT: note_on channel=12 note=50 velocity=80 time=0
EXTRACT: note_on channel=12 note=57 velocity=77 time=0
EXTRACT: note_on channel=12 note=60 velocity=76 time=0
EXTRACT: note_on channel=12 note=64 velocity=85 time=0
EXTRACT: note_on channel=12 note=67 velocity=65 time=0
EXTRACT: note_off channel=2 note=76 velocity=0 time=0.082720546875
EXTRACT: note_off channel=12 note=50 velocity=0 time=0.05514703125
EXTRACT: note_off channel=12 note=57 velocity=0 time=0
EXTRACT: note_off channel=12 note=60 velocity=0 time=0
EXTRACT: note_off channel=12 note=64 velocity=0 time=0
EXTRACT: note_off channel=12 note=67 velocity=0 time=0
EXTRACT: note_on channel=2 note=76 velocity=96 time=0.009191171875
EXTRACT: note_on channel=12 note=50 velocity=91 time=0
EXTRACT: note_on channel=12 note=57 velocity=93 time=0
EXTRACT: note_on channel=12 note=60 velocity=100 time=0
EXTRACT: note_on channel=12 note=64 velocity=94 time=0
EXTRACT: note_on channel=12 note=67 velocity=84 time=0
EXTRACT: note_on channel=9 note=46 velocity=41 time=0.14705875
EXTRACT: note_off channel=9 note=46 velocity=0 time=0.012254895833333333
EXTRACT: note_off channel=2 note=76 velocity=0 time=0.07659309895833333
EXTRACT: note_off channel=12 note=50 velocity=0 time=0.04901958333333333
EXTRACT: note_off channel=12 note=57 velocity=0 time=0
EXTRACT: note_off channel=12 note=60 velocity=0 time=0
EXTRACT: note_off channel=12 note=64 velocity=0 time=0
EXTRACT: note_off channel=12 note=67 velocity=0 time=0
EXTRACT: note_on channel=2 note=77 velocity=97 time=0.009191171875
EXTRACT: note_on channel=9 note=40 velocity=67 time=0
EXTRACT: note_on channel=9 note=46 velocity=107 time=0
EXTRACT: note_on channel=12 note=50 velocity=90 time=0
EXTRACT: note_on channel=12 note=57 velocity=104 time=0
EXTRACT: note_on channel=12 note=60 velocity=101 time=0
EXTRACT: note_on channel=12 note=64 velocity=102 time=0
EXTRACT: note_on channel=12 note=67 velocity=91 time=0
EXTRACT: note_off channel=9 note=40 velocity=0 time=0.012254895833333333
EXTRACT: note_off channel=9 note=46 velocity=0 time=0
EXTRACT: note_off channel=2 note=77 velocity=0 time=0.10416661458333333
EXTRACT: note_on channel=9 note=40 velocity=127 time=0.030637239583333333
EXTRACT: note_off channel=9 note=40 velocity=0 time=0.012254895833333333
EXTRACT: note_off channel=12 note=50 velocity=0 time=0.12561268229166667
EXTRACT: note_off channel=12 note=57 velocity=0 time=0
EXTRACT: note_off channel=12 note=60 velocity=0 time=0
EXTRACT: note_off channel=12 note=64 velocity=0 time=0
EXTRACT: note_off channel=12 note=67 velocity=0 time=0
EXTRACT: note_on channel=0 note=33 velocity=122 time=0.009191171875
EXTRACT: note_on channel=2 note=76 velocity=96 time=0
EXTRACT: note_on channel=12 note=50 velocity=84 time=0
EXTRACT: note_on channel=12 note=57 velocity=93 time=0
EXTRACT: note_on channel=12 note=60 velocity=92 time=0
EXTRACT: note_on channel=12 note=64 velocity=94 time=0
EXTRACT: note_on channel=12 note=67 velocity=92 time=0
EXTRACT: note_off channel=12 note=50 velocity=0 time=0.137867578125
EXTRACT: note_off channel=12 note=57 velocity=0 time=0
EXTRACT: note_off channel=12 note=60 velocity=0 time=0
EXTRACT: note_off channel=12 note=64 velocity=0 time=0
EXTRACT: note_off channel=12 note=67 velocity=0 time=0
EXTRACT: note_on channel=12 note=50 velocity=87 time=0.009191171875
EXTRACT: note_on channel=12 note=57 velocity=87 time=0
EXTRACT: note_on channel=12 note=60 velocity=92 time=0
EXTRACT: note_on channel=12 note=64 velocity=91 time=0
EXTRACT: note_on channel=12 note=67 velocity=93 time=0
EXTRACT: note_off channel=0 note=33 velocity=0 time=0.137867578125
EXTRACT: note_off channel=12 note=50 velocity=0 time=0
EXTRACT: note_off channel=12 note=57 velocity=0 time=0
EXTRACT: note_off channel=12 note=60 velocity=0 time=0
EXTRACT: note_off channel=12 note=64 velocity=0 time=0
EXTRACT: note_off channel=12 note=67 velocity=0 time=0
EXTRACT: note_on channel=0 note=36 velocity=118 time=0.009191171875
EXTRACT: note_on channel=9 note=36 velocity=115 time=0
EXTRACT: note_on channel=9 note=49 velocity=90 time=0
EXTRACT: note_on channel=10 note=55 velocity=100 time=0
EXTRACT: note_on channel=10 note=60 velocity=99 time=0
EXTRACT: note_on channel=10 note=62 velocity=107 time=0
EXTRACT: note_on channel=12 note=48 velocity=97 time=0
EXTRACT: note_on channel=12 note=55 velocity=96 time=0
EXTRACT: note_on channel=12 note=60 velocity=93 time=0
EXTRACT: note_on channel=12 note=62 velocity=108 time=0
EXTRACT: note_on channel=12 note=67 velocity=95 time=0
EXTRACT: note_off channel=9 note=36 velocity=0 time=0.012254895833333333
EXTRACT: note_off channel=9 note=49 velocity=0 time=0
EXTRACT: note_off channel=2 note=76 velocity=0 time=0.20220578125
EXTRACT: note_off channel=0 note=36 velocity=0 time=0.04901958333333333
EXTRACT: note_on channel=0 note=36 velocity=113 time=0.030637239583333333
EXTRACT: note_on channel=2 note=74 velocity=90 time=0
EXTRACT: note_on channel=9 note=42 velocity=50 time=0
EXTRACT: note_off channel=9 note=42 velocity=0 time=0.012254895833333333
EXTRACT: note_on channel=9 note=42 velocity=41 time=0.13480385416666665
EXTRACT: note_off channel=9 note=42 velocity=0 time=0.012254895833333333
EXTRACT: note_off channel=0 note=36 velocity=0 time=0.08884799479166666
EXTRACT: note_off channel=12 note=48 velocity=0 time=0.0367646875
EXTRACT: note_off channel=12 note=55 velocity=0 time=0
EXTRACT: note_off channel=12 note=60 velocity=0 time=0
EXTRACT: note_off channel=12 note=62 velocity=0 time=0
EXTRACT: note_off channel=12 note=67 velocity=0 time=0
EXTRACT: note_on channel=0 note=36 velocity=114 time=0.009191171875
EXTRACT: note_on channel=9 note=40 velocity=120 time=0
EXTRACT: note_on channel=9 note=42 velocity=100 time=0
EXTRACT: note_on channel=12 note=48 velocity=109 time=0
EXTRACT: note_on channel=12 note=55 velocity=109 time=0
EXTRACT: note_on channel=12 note=60 velocity=96 time=0
EXTRACT: note_on channel=12 note=62 velocity=111 time=0
EXTRACT: note_on channel=12 note=67 velocity=102 time=0
EXTRACT: note_off channel=9 note=40 velocity=0 time=0.012254895833333333
EXTRACT: note_off channel=9 note=42 velocity=0 time=0
EXTRACT: note_on channel=9 note=42 velocity=44 time=0.13480385416666665
EXTRACT: note_off channel=9 note=42 velocity=0 time=0.012254895833333333
EXTRACT: note_off channel=0 note=36 velocity=0 time=0.09191171875
EXTRACT: note_off channel=2 note=74 velocity=0 time=0.015318619791666667
EXTRACT: note_on channel=0 note=36 velocity=108 time=0.027573515625
EXTRACT: note_on channel=9 note=42 velocity=45 time=0
EXTRACT: note_off channel=9 note=42 velocity=0 time=0.012254895833333333
EXTRACT: note_off channel=0 note=36 velocity=0 time=0.08884799479166666
EXTRACT: note_off channel=12 note=48 velocity=0 time=0.0367646875
EXTRACT: note_off channel=12 note=55 velocity=0 time=0
EXTRACT: note_off channel=12 note=60 velocity=0 time=0
EXTRACT: note_off channel=12 note=62 velocity=0 time=0
EXTRACT: note_off channel=12 note=67 velocity=0 time=0
EXTRACT: note_on channel=0 note=36 velocity=116 time=0.009191171875
EXTRACT: note_on channel=9 note=42 velocity=40 time=0
EXTRACT: note_on channel=12 note=48 velocity=112 time=0
EXTRACT: note_on channel=12 note=55 velocity=116 time=0
EXTRACT: note_on channel=12 note=60 velocity=98 time=0
EXTRACT: note_on channel=12 note=62 velocity=111 time=0
EXTRACT: note_on channel=12 note=67 velocity=94 time=0
EXTRACT: note_off channel=9 note=42 velocity=0 time=0.012254895833333333
EXTRACT: note_on channel=9 note=42 velocity=99 time=0.13480385416666665
EXTRACT: note_off channel=9 note=42 velocity=0 time=0.012254895833333333
EXTRACT: note_off channel=0 note=36 velocity=0 time=0.08884799479166666
EXTRACT: note_off channel=12 note=48 velocity=0 time=0.0367646875
EXTRACT: note_off channel=12 note=55 velocity=0 time=0
EXTRACT: note_off channel=12 note=60 velocity=0 time=0
EXTRACT: note_off channel=12 note=62 velocity=0 time=0
EXTRACT: note_off channel=12 note=67 velocity=0 time=0
EXTRACT: note_on channel=0 note=36 velocity=107 time=0.009191171875
EXTRACT: note_on channel=4 note=60 velocity=96 time=0
EXTRACT: note_on channel=9 note=42 velocity=50 time=0
EXTRACT: note_on channel=12 note=48 velocity=82 time=0
EXTRACT: note_on channel=12 note=55 velocity=95 time=0
EXTRACT: note_on channel=12 note=60 velocity=75 time=0
EXTRACT: note_on channel=12 note=62 velocity=79 time=0
EXTRACT: note_on channel=12 note=67 velocity=77 time=0
EXTRACT: note_off channel=9 note=42 velocity=0 time=0.012254895833333333
EXTRACT: note_off channel=0 note=36 velocity=0 time=0.08578427083333333
EXTRACT: note_off channel=12 note=48 velocity=0 time=0.03982841145833333
EXTRACT: note_off channel=12 note=55 velocity=0 time=0
EXTRACT: note_off channel=12 note=60 velocity=0 time=0
EXTRACT: note_off channel=12 note=62 velocity=0 time=0
EXTRACT: note_off channel=12 note=67 velocity=0 time=0
EXTRACT: note_on channel=0 note=36 velocity=118 time=0.009191171875
EXTRACT: note_on channel=9 note=36 velocity=118 time=0
EXTRACT: note_on channel=9 note=42 velocity=39 time=0
EXTRACT: note_on channel=12 note=48 velocity=73 time=0
EXTRACT: note_on channel=12 note=55 velocity=84 time=0
EXTRACT: note_on channel=12 note=60 velocity=90 time=0
EXTRACT: note_on channel=12 note=62 velocity=100 time=0
EXTRACT: note_on channel=12 note=67 velocity=84 time=0
EXTRACT: note_off channel=9 note=36 velocity=0 time=0.012254895833333333
EXTRACT: note_off channel=9 note=42 velocity=0 time=0
EXTRACT: note_off channel=4 note=60 velocity=0 time=0.027573515625
EXTRACT: note_on channel=9 note=42 velocity=28 time=0.10723033854166666
EXTRACT: note_off channel=9 note=42 velocity=0 time=0.012254895833333333
EXTRACT: note_off channel=0 note=36 velocity=0 time=0.1102940625
EXTRACT: note_off channel=12 note=48 velocity=0 time=0.015318619791666667
EXTRACT: note_off channel=12 note=55 velocity=0 time=0
EXTRACT: note_off channel=12 note=60 velocity=0 time=0
EXTRACT: note_off channel=12 note=62 velocity=0 time=0
EXTRACT: note_off channel=12 note=67 velocity=0 time=0
EXTRACT: note_on channel=0 note=36 velocity=112 time=0.009191171875
EXTRACT: note_on channel=4 note=60 velocity=96 time=0
EXTRACT: note_on channel=9 note=40 velocity=115 time=0
EXTRACT: note_on channel=9 note=42 velocity=102 time=0
EXTRACT: note_on channel=12 note=48 velocity=103 time=0
EXTRACT: note_on channel=12 note=55 velocity=107 time=0
EXTRACT: note_on channel=12 note=60 velocity=103 time=0
EXTRACT: note_on channel=12 note=62 velocity=114 time=0
EXTRACT: note_on channel=12 note=67 velocity=109 time=0
EXTRACT: note_off channel=9 note=40 velocity=0 time=0.012254895833333333
EXTRACT: note_off channel=9 note=42 velocity=0 time=0
EXTRACT: note_on channel=9 note=42 velocity=43 time=0.13480385416666665
EXTRACT: note_off channel=9 note=42 velocity=0 time=0.012254895833333333
EXTRACT: note_off channel=4 note=60 velocity=0 time=0.012254895833333333
EXTRACT: note_off channel=0 note=36 velocity=0 time=0.06433820312499999
EXTRACT: note_off channel=12 note=48 velocity=0 time=0.04901958333333333
EXTRACT: note_off channel=12 note=55 velocity=0 time=0
EXTRACT: note_off channel=12 note=60 velocity=0 time=0
EXTRACT: note_off channel=12 note=62 velocity=0 time=0
EXTRACT: note_off channel=12 note=67 velocity=0 time=0
EXTRACT: note_on channel=0 note=36 velocity=109 time=0.009191171875
EXTRACT: note_on channel=2 note=72 velocity=93 time=0
EXTRACT: note_on channel=9 note=42 velocity=30 time=0
EXTRACT: note_on channel=12 note=48 velocity=71 time=0
EXTRACT: note_on channel=12 note=55 velocity=85 time=0
EXTRACT: note_on channel=12 note=60 velocity=68 time=0
EXTRACT: note_on channel=12 note=62 velocity=76 time=0
EXTRACT: note_on channel=12 note=67 velocity=74 time=0
EXTRACT: note_off channel=9 note=42 velocity=0 time=0.012254895833333333
EXTRACT: note_off channel=2 note=72 velocity=0 time=0.06740192708333333
EXTRACT: note_off channel=0 note=36 velocity=0 time=0.0367646875
EXTRACT: note_off channel=12 note=48 velocity=0 time=0.021446067708333332
EXTRACT: note_off channel=12 note=55 velocity=0 time=0
EXTRACT: note_off channel=12 note=60 velocity=0 time=0
EXTRACT: note_off channel=12 note=62 velocity=0 time=0
EXTRACT: note_off channel=12 note=67 velocity=0 time=0
EXTRACT: note_on channel=0 note=36 velocity=104 time=0.009191171875
EXTRACT: note_on channel=2 note=74 velocity=86 time=0
EXTRACT: note_on channel=9 note=36 velocity=59 time=0
EXTRACT: note_on channel=9 note=42 velocity=32 time=0
EXTRACT: note_on channel=12 note=48 velocity=72 time=0
EXTRACT: note_on channel=12 note=55 velocity=87 time=0
EXTRACT: note_on channel=12 note=60 velocity=80 time=0
EXTRACT: note_on channel=12 note=62 velocity=88 time=0
EXTRACT: note_on channel=12 note=67 velocity=80 time=0
EXTRACT: note_off channel=9 note=36 velocity=0 time=0.012254895833333333
EXTRACT: note_off channel=9 note=42 velocity=0 time=0
EXTRACT: note_off channel=10 note=60 velocity=0 time=0.0061274479166666665
EXTRACT: note_off channel=10 note=55 velocity=0 time=0.0061274479166666665
EXTRACT: note_off channel=10 note=62 velocity=0 time=0.012254895833333333
EXTRACT: note_off channel=2 note=74 velocity=0 time=0.04901958333333333
EXTRACT: note_off channel=0 note=36 velocity=0 time=0.015318619791666667
EXTRACT: note_off channel=12 note=48 velocity=0 time=0.0367646875
EXTRACT: note_off channel=12 note=55 velocity=0 time=0
EXTRACT: note_off channel=12 note=60 velocity=0 time=0
EXTRACT: note_off channel=12 note=62 velocity=0 time=0
EXTRACT: note_off channel=12 note=67 velocity=0 time=0
EXTRACT: note_on channel=0 note=36 velocity=115 time=0.009191171875
EXTRACT: note_on channel=2 note=76 velocity=97 time=0
EXTRACT: note_on channel=4 note=59 velocity=97 time=0
EXTRACT: note_on channel=9 note=36 velocity=113 time=0
EXTRACT: note_on channel=9 note=42 velocity=94 time=0
EXTRACT: note_on channel=10 note=55 velocity=86 time=0
EXTRACT: note_on channel=10 note=59 velocity=98 time=0
EXTRACT: note_on channel=10 note=62 velocity=104 time=0
EXTRACT: note_on channel=12 note=48 velocity=94 time=0
EXTRACT: note_on channel=12 note=55 velocity=105 time=0
EXTRACT: note_on channel=12 note=59 velocity=103 time=0
EXTRACT: note_on channel=12 note=62 velocity=106 time=0
EXTRACT: note_on channel=12 note=67 velocity=97 time=0
EXTRACT: note_off channel=9 note=36 velocity=0 time=0.012254895833333333
EXTRACT: note_off channel=9 note=42 velocity=0 time=0
EXTRACT: note_off channel=2 note=76 velocity=0 time=0.05514703125
EXTRACT: note_on channel=2 note=76 velocity=85 time=0.07965682291666666
EXTRACT: note_on channel=9 note=40 velocity=60 time=0
EXTRACT: note_on channel=9 note=42 velocity=27 time=0
EXTRACT: note_off channel=9 note=40 velocity=0 time=0.012254895833333333
EXTRACT: note_off channel=9 note=42 velocity=0 time=0
EXTRACT: note_off channel=4 note=59 velocity=0 time=0.042892135416666664
EXTRACT: note_off channel=2 note=76 velocity=0 time=0.01838234375
EXTRACT: note_off channel=0 note=36 velocity=0 time=0.030637239583333333
EXTRACT: note_on channel=0 note=36 velocity=107 time=0.042892135416666664
EXTRACT: note_on channel=2 note=76 velocity=97 time=0
EXTRACT: note_on channel=9 note=36 velocity=59 time=0
EXTRACT: note_on channel=9 note=42 velocity=36 time=0
EXTRACT: note_off channel=9 note=36 velocity=0 time=0.012254895833333333
EXTRACT: note_off channel=9 note=42 velocity=0 time=0
EXTRACT: note_on channel=9 note=42 velocity=35 time=0.13480385416666665
EXTRACT: note_off channel=9 note=42 velocity=0 time=0.012254895833333333
EXTRACT: note_off channel=2 note=76 velocity=0 time=0.07659309895833333
EXTRACT: note_off channel=0 note=36 velocity=0 time=0.021446067708333332
EXTRACT: note_off channel=12 note=48 velocity=0 time=0.027573515625
EXTRACT: note_off channel=12 note=55 velocity=0 time=0
EXTRACT: note_off channel=12 note=59 velocity=0 time=0
EXTRACT: note_off channel=12 note=62 velocity=0 time=0
EXTRACT: note_off channel=12 note=67 velocity=0 time=0
EXTRACT: note_on channel=0 note=36 velocity=113 time=0.009191171875
EXTRACT: note_on channel=2 note=76 velocity=92 time=0
EXTRACT: note_on channel=9 note=40 velocity=121 time=0
EXTRACT: note_on channel=9 note=42 velocity=97 time=0
EXTRACT: note_on channel=12 note=48 velocity=105 time=0
EXTRACT: note_on channel=12 note=55 velocity=107 time=0
EXTRACT: note_on channel=12 note=59 velocity=102 time=0
EXTRACT: note_on channel=12 note=62 velocity=116 time=0
EXTRACT: note_on channel=12 note=67 velocity=102 time=0
EXTRACT: note_off channel=9 note=40 velocity=0 time=0.012254895833333333
EXTRACT: note_off channel=9 note=42 velocity=0 time=0
EXTRACT: note_on channel=9 note=42 velocity=49 time=0.13480385416666665
EXTRACT: note_off channel=9 note=42 velocity=0 time=0.012254895833333333
EXTRACT: note_off channel=2 note=76 velocity=0 time=0.05514703125
EXTRACT: note_off channel=0 note=36 velocity=0 time=0.06740192708333333
EXTRACT: note_off channel=12 note=48 velocity=0 time=0.0030637239583333332
EXTRACT: note_off channel=12 note=55 velocity=0 time=0
EXTRACT: note_off channel=12 note=59 velocity=0 time=0
EXTRACT: note_off channel=12 note=62 velocity=0 time=0
EXTRACT: note_off channel=12 note=67 velocity=0 time=0
EXTRACT: note_on channel=0 note=36 velocity=110 time=0.009191171875
EXTRACT: note_on channel=2 note=76 velocity=97 time=0
EXTRACT: note_on channel=9 note=42 velocity=35 time=0
EXTRACT: note_on channel=12 note=48 velocity=71 time=0
EXTRACT: note_on channel=12 note=55 velocity=87 time=0
EXTRACT: note_on channel=12 note=59 velocity=66 time=0
EXTRACT: note_on channel=12 note=62 velocity=74 time=0
EXTRACT: note_on channel=12 note=67 velocity=71 time=0
EXTRACT: note_off channel=9 note=42 velocity=0 time=0.012254895833333333
EXTRACT: note_off channel=0 note=36 velocity=0 time=0.1102940625
EXTRACT: note_off channel=12 note=48 velocity=0 time=0.015318619791666667
EXTRACT: note_off channel=12 note=55 velocity=0 time=0
EXTRACT: note_off channel=12 note=59 velocity=0 time=0
EXTRACT: note_off channel=12 note=62 velocity=0 time=0
EXTRACT: note_off channel=12 note=67 velocity=0 time=0
EXTRACT: note_on channel=0 note=36 velocity=107 time=0.009191171875
EXTRACT: note_on channel=9 note=40 velocity=62 time=0
EXTRACT: note_on channel=9 note=42 velocity=31 time=0
EXTRACT: note_on channel=12 note=48 velocity=99 time=0
EXTRACT: note_on channel=12 note=55 velocity=106 time=0
EXTRACT: note_on channel=12 note=59 velocity=100 time=0
EXTRACT: note_on channel=12 note=62 velocity=114 time=0
EXTRACT: note_on channel=12 note=67 velocity=94 time=0
EXTRACT: note_off channel=9 note=40 velocity=0 time=0.012254895833333333
EXTRACT: note_off channel=9 note=42 velocity=0 time=0
EXTRACT: note_off channel=2 note=76 velocity=0 time=0.061274479166666666
EXTRACT: note_on channel=2 note=79 velocity=98 time=0.073529375
EXTRACT: note_on channel=9 note=42 velocity=102 time=0
EXTRACT: note_off channel=9 note=42 velocity=0 time=0.012254895833333333
EXTRACT: note_off channel=2 note=79 velocity=0 time=0.04901958333333333
EXTRACT: note_off channel=0 note=36 velocity=0 time=0.045955859375
EXTRACT: note_off channel=12 note=48 velocity=0 time=0.030637239583333333
EXTRACT: note_off channel=12 note=55 velocity=0 time=0
EXTRACT: note_off channel=12 note=59 velocity=0 time=0
EXTRACT: note_off channel=12 note=62 velocity=0 time=0
EXTRACT: note_off channel=12 note=67 velocity=0 time=0
EXTRACT: note_on channel=0 note=36 velocity=110 time=0.009191171875
EXTRACT: note_on channel=2 note=79 velocity=104 time=0
EXTRACT: note_on channel=9 note=40 velocity=56 time=0
EXTRACT: note_on channel=9 note=42 velocity=45 time=0
EXTRACT: note_on channel=12 note=48 velocity=71 time=0
EXTRACT: note_on channel=12 note=55 velocity=89 time=0
EXTRACT: note_on channel=12 note=59 velocity=76 time=0
EXTRACT: note_on channel=12 note=62 velocity=81 time=0
EXTRACT: note_on channel=12 note=67 velocity=82 time=0
EXTRACT: note_off channel=9 note=40 velocity=0 time=0.012254895833333333
EXTRACT: note_off channel=9 note=42 velocity=0 time=0
EXTRACT: note_off channel=0 note=36 velocity=0 time=0.09191171875
EXTRACT: note_off channel=12 note=48 velocity=0 time=0.03370096354166666
EXTRACT: note_off channel=12 note=55 velocity=0 time=0
EXTRACT: note_off channel=12 note=59 velocity=0 time=0
EXTRACT: note_off channel=12 note=62 velocity=0 time=0
EXTRACT: note_off channel=12 note=67 velocity=0 time=0
EXTRACT: note_on channel=0 note=36 velocity=108 time=0.009191171875
EXTRACT: note_on channel=9 note=36 velocity=110 time=0
EXTRACT: note_on channel=9 note=42 velocity=42 time=0
EXTRACT: note_on channel=12 note=48 velocity=102 time=0
EXTRACT: note_on channel=12 note=55 velocity=96 time=0
EXTRACT: note_on channel=12 note=59 velocity=88 time=0
EXTRACT: note_on channel=12 note=62 velocity=102 time=0
EXTRACT: note_on channel=12 note=67 velocity=93 time=0
EXTRACT: note_off channel=9 note=36 velocity=0 time=0.012254895833333333
EXTRACT: note_off channel=9 note=42 velocity=0 time=0
EXTRACT: note_off channel=2 note=79 velocity=0 time=0.09803916666666666
EXTRACT: note_on channel=2 note=79 velocity=120 time=0.0367646875
EXTRACT: note_on channel=9 note=42 velocity=40 time=0
EXTRACT: note_off channel=9 note=42 velocity=0 time=0.012254895833333333
EXTRACT: note_off channel=0 note=36 velocity=0 time=0.09803916666666666
EXTRACT: note_off channel=12 note=48 velocity=0 time=0.027573515625
EXTRACT: note_off channel=12 note=55 velocity=0 time=0
EXTRACT: note_off channel=12 note=59 velocity=0 time=0
EXTRACT: note_off channel=12 note=62 velocity=0 time=0
EXTRACT: note_off channel=12 note=67 velocity=0 time=0
EXTRACT: control_change channel=4 control=84 value=70 time=0.0030637239583333332
EXTRACT: control_change channel=5 control=84 value=66 time=0
EXTRACT: control_change channel=4 control=5 value=74 time=0.0030637239583333332
EXTRACT: control_change channel=5 control=5 value=74 time=0
EXTRACT: note_on channel=0 note=36 velocity=116 time=0.0030637239583333332
EXTRACT: note_on channel=4 note=76 velocity=114 time=0
EXTRACT: note_on channel=5 note=72 velocity=114 time=0
EXTRACT: note_on channel=9 note=40 velocity=123 time=0
EXTRACT: note_on channel=9 note=42 velocity=108 time=0
EXTRACT: note_on channel=12 note=48 velocity=108 time=0
EXTRACT: note_on channel=12 note=55 velocity=109 time=0
EXTRACT: note_on channel=12 note=59 velocity=94 time=0
EXTRACT: note_on channel=12 note=62 velocity=107 time=0
EXTRACT: note_on channel=12 note=67 velocity=99 time=0
EXTRACT: note_off channel=9 note=40 velocity=0 time=0.012254895833333333
EXTRACT: note_off channel=9 note=42 velocity=0 time=0
EXTRACT: note_off channel=2 note=79 velocity=0 time=0.08578427083333333
EXTRACT: note_on channel=9 note=46 velocity=57 time=0.04901958333333333
EXTRACT: note_off channel=9 note=46 velocity=0 time=0.012254895833333333
EXTRACT: note_off channel=0 note=36 velocity=0 time=0.08884799479166666
EXTRACT: note_off channel=12 note=48 velocity=0 time=0.0367646875
EXTRACT: note_off channel=12 note=55 velocity=0 time=0
EXTRACT: note_off channel=12 note=59 velocity=0 time=0
EXTRACT: note_off channel=12 note=62 velocity=0 time=0
EXTRACT: note_off channel=12 note=67 velocity=0 time=0
EXTRACT: note_on channel=0 note=36 velocity=118 time=0.009191171875
EXTRACT: note_on channel=2 note=72 velocity=114 time=0
EXTRACT: note_on channel=9 note=46 velocity=104 time=0
EXTRACT: note_on channel=12 note=48 velocity=78 time=0
EXTRACT: note_on channel=12 note=55 velocity=89 time=0
EXTRACT: note_on channel=12 note=59 velocity=86 time=0
EXTRACT: note_on channel=12 note=62 velocity=90 time=0
EXTRACT: note_on channel=12 note=67 velocity=87 time=0
EXTRACT: note_off channel=9 note=46 velocity=0 time=0.012254895833333333
EXTRACT: note_off channel=12 note=48 velocity=0 time=0.12561268229166667
EXTRACT: note_off channel=12 note=55 velocity=0 time=0
EXTRACT: note_off channel=12 note=59 velocity=0 time=0
EXTRACT: note_off channel=12 note=62 velocity=0 time=0
EXTRACT: note_off channel=12 note=67 velocity=0 time=0
EXTRACT: note_on channel=9 note=36 velocity=55 time=0.009191171875
EXTRACT: note_on channel=12 note=48 velocity=98 time=0
EXTRACT: note_on channel=12 note=55 velocity=93 time=0
EXTRACT: note_on channel=12 note=59 velocity=93 time=0
EXTRACT: note_on channel=12 note=62 velocity=96 time=0
EXTRACT: note_on channel=12 note=67 velocity=69 time=0
EXTRACT: note_off channel=9 note=36 velocity=0 time=0.012254895833333333
EXTRACT: note_off channel=10 note=55 velocity=0 time=0.012254895833333333
EXTRACT: note_off channel=10 note=59 velocity=0 time=0.0061274479166666665
EXTRACT: note_off channel=10 note=62 velocity=0 time=0.0061274479166666665
EXTRACT: note_off channel=0 note=36 velocity=0 time=0.09497544270833333
EXTRACT: note_on channel=1 note=60 velocity=111 time=0
EXTRACT: note_on channel=1 note=64 velocity=116 time=0
EXTRACT: note_on channel=1 note=69 velocity=108 time=0
EXTRACT: note_off channel=12 note=48 velocity=0 time=0.0061274479166666665
EXTRACT: note_off channel=12 note=55 velocity=0 time=0
EXTRACT: note_off channel=12 note=59 velocity=0 time=0
EXTRACT: note_off channel=12 note=62 velocity=0 time=0
EXTRACT: note_off channel=12 note=67 velocity=0 time=0
EXTRACT: note_on channel=0 note=41 velocity=126 time=0.009191171875
EXTRACT: note_on channel=9 note=36 velocity=121 time=0
EXTRACT: note_on channel=9 note=49 velocity=97 time=0
EXTRACT: note_on channel=11 note=53 velocity=96 time=0
EXTRACT: note_on channel=11 note=57 velocity=103 time=0
EXTRACT: note_on channel=11 note=60 velocity=99 time=0
EXTRACT: note_on channel=11 note=64 velocity=110 time=0
EXTRACT: note_on channel=11 note=69 velocity=96 time=0
EXTRACT: note_on channel=12 note=53 velocity=96 time=0
EXTRACT: note_on channel=12 note=57 velocity=103 time=0
EXTRACT: note_on channel=12 note=60 velocity=101 time=0
EXTRACT: note_on channel=12 note=64 velocity=110 time=0
EXTRACT: note_on channel=12 note=69 velocity=103 time=0
EXTRACT: note_off channel=9 note=36 velocity=0 time=0.012254895833333333
EXTRACT: note_off channel=9 note=49 velocity=0 time=0
EXTRACT: note_off channel=2 note=72 velocity=0 time=0.12867640624999999
EXTRACT: note_off channel=0 note=41 velocity=0 time=0.09803916666666666
EXTRACT: note_off channel=11 note=53 velocity=0 time=0.045955859375
EXTRACT: note_off channel=11 note=57 velocity=0 time=0
EXTRACT: note_off channel=11 note=60 velocity=0 time=0
EXTRACT: note_off channel=11 note=64 velocity=0 time=0
EXTRACT: note_off channel=11 note=69 velocity=0 time=0
EXTRACT: note_off channel=12 note=53 velocity=0 time=0
EXTRACT: note_off channel=12 note=57 velocity=0 time=0
EXTRACT: note_off channel=12 note=60 velocity=0 time=0
EXTRACT: note_off channel=12 note=64 velocity=0 time=0
EXTRACT: note_off channel=12 note=69 velocity=0 time=0
EXTRACT: note_on channel=0 note=41 velocity=126 time=0.009191171875
EXTRACT: note_on channel=9 note=36 velocity=112 time=0
EXTRACT: note_on channel=9 note=42 velocity=45 time=0
EXTRACT: note_on channel=11 note=53 velocity=83 time=0
EXTRACT: note_on channel=11 note=57 velocity=88 time=0
EXTRACT: note_on channel=11 note=60 velocity=76 time=0
EXTRACT: note_on channel=11 note=64 velocity=78 time=0
EXTRACT: note_on channel=11 note=69 velocity=84 time=0
EXTRACT: note_on channel=12 note=53 velocity=81 time=0
EXTRACT: note_on channel=12 note=57 velocity=88 time=0
EXTRACT: note_on channel=12 note=60 velocity=71 time=0
EXTRACT: note_on channel=12 note=64 velocity=82 time=0
EXTRACT: note_on channel=12 note=69 velocity=79 time=0
EXTRACT: note_off channel=9 note=36 velocity=0 time=0.012254895833333333
EXTRACT: note_off channel=9 note=42 velocity=0 time=0
EXTRACT: note_off channel=11 note=53 velocity=0 time=0.12561268229166667
EXTRACT: note_off channel=11 note=57 velocity=0 time=0
EXTRACT: note_off channel=11 note=60 velocity=0 time=0
EXTRACT: note_off channel=11 note=64 velocity=0 time=0
EXTRACT: note_off channel=11 note=69 velocity=0 time=0
EXTRACT: note_off channel=12 note=53 velocity=0 time=0
EXTRACT: note_off channel=12 note=57 velocity=0 time=0
EXTRACT: note_off channel=12 note=60 velocity=0 time=0
EXTRACT: note_off channel=12 note=64 velocity=0 time=0
EXTRACT: note_off channel=12 note=69 velocity=0 time=0
EXTRACT: note_on channel=9 note=42 velocity=45 time=0.009191171875
EXTRACT: note_on channel=11 note=53 velocity=89 time=0
EXTRACT: note_on channel=11 note=57 velocity=96 time=0
EXTRACT: note_on channel=11 note=60 velocity=98 time=0
EXTRACT: note_on channel=11 note=64 velocity=109 time=0
EXTRACT: note_on channel=11 note=69 velocity=97 time=0
EXTRACT: note_on channel=12 note=53 velocity=89 time=0
EXTRACT: note_on channel=12 note=57 velocity=93 time=0
EXTRACT: note_on channel=12 note=60 velocity=101 time=0
EXTRACT: note_on channel=12 note=64 velocity=112 time=0
EXTRACT: note_on channel=12 note=69 velocity=99 time=0
EXTRACT: note_off channel=9 note=42 velocity=0 time=0.012254895833333333
EXTRACT: note_off channel=0 note=41 velocity=0 time=0.07965682291666666
EXTRACT: note_on channel=0 note=41 velocity=127 time=0.05514703125
EXTRACT: note_on channel=9 note=40 velocity=123 time=0
EXTRACT: note_on channel=9 note=42 velocity=103 time=0
EXTRACT: note_off channel=9 note=40 velocity=0 time=0.012254895833333333
EXTRACT: note_off channel=9 note=42 velocity=0 time=0
EXTRACT: note_off channel=11 note=53 velocity=0 time=0.12561268229166667
EXTRACT: note_off channel=11 note=57 velocity=0 time=0
EXTRACT: note_off channel=11 note=60 velocity=0 time=0
EXTRACT: note_off channel=11 note=64 velocity=0 time=0
EXTRACT: note_off channel=11 note=69 velocity=0 time=0
EXTRACT: note_off channel=12 note=53 velocity=0 time=0
EXTRACT: note_off channel=12 note=57 velocity=0 time=0
EXTRACT: note_off channel=12 note=60 velocity=0 time=0
EXTRACT: note_off channel=12 note=64 velocity=0 time=0
EXTRACT: note_off channel=12 note=69 velocity=0 time=0
EXTRACT: note_on channel=9 note=42 velocity=43 time=0.009191171875
EXTRACT: note_on channel=11 note=53 velocity=79 time=0
EXTRACT: note_on channel=11 note=57 velocity=87 time=0
EXTRACT: note_on channel=11 note=60 velocity=73 time=0
EXTRACT: note_on channel=11 note=64 velocity=85 time=0
EXTRACT: note_on channel=11 note=69 velocity=84 time=0
EXTRACT: note_on channel=12 note=53 velocity=80 time=0
EXTRACT: note_on channel=12 note=57 velocity=85 time=0
EXTRACT: note_on channel=12 note=60 velocity=74 time=0
EXTRACT: note_on channel=12 note=64 velocity=88 time=0
EXTRACT: note_on channel=12 note=69 velocity=87 time=0
EXTRACT: note_off channel=9 note=42 velocity=0 time=0.012254895833333333
EXTRACT: note_off channel=0 note=41 velocity=0 time=0.082720546875
EXTRACT: note_off channel=11 note=53 velocity=0 time=0.042892135416666664
EXTRACT: note_off channel=11 note=57 velocity=0 time=0
EXTRACT: note_off channel=11 note=60 velocity=0 time=0
EXTRACT: note_off channel=11 note=64 velocity=0 time=0
EXTRACT: note_off channel=11 note=69 velocity=0 time=0
EXTRACT: note_off channel=12 note=53 velocity=0 time=0
EXTRACT: note_off channel=12 note=57 velocity=0 time=0
EXTRACT: note_off channel=12 note=60 velocity=0 time=0
EXTRACT: note_off channel=12 note=64 velocity=0 time=0
EXTRACT: note_off channel=12 note=69 velocity=0 time=0
EXTRACT: note_on channel=0 note=41 velocity=107 time=0.009191171875
EXTRACT: note_on channel=9 note=42 velocity=47 time=0
EXTRACT: note_on channel=11 note=53 velocity=102 time=0
EXTRACT: note_on channel=11 note=57 velocity=105 time=0
EXTRACT: note_on channel=11 note=60 velocity=93 time=0
EXTRACT: note_on channel=11 note=64 velocity=97 time=0
EXTRACT: note_on channel=11 note=69 velocity=99 time=0
EXTRACT: note_on channel=12 note=53 velocity=96 time=0
EXTRACT: note_on channel=12 note=57 velocity=104 time=0
EXTRACT: note_on channel=12 note=60 velocity=96 time=0
EXTRACT: note_on channel=12 note=64 velocity=101 time=0
EXTRACT: note_on channel=12 note=69 velocity=104 time=0
EXTRACT: note_off channel=9 note=42 velocity=0 time=0.012254895833333333
EXTRACT: note_off channel=0 note=41 velocity=0 time=0.119485234375
EXTRACT: note_on channel=0 note=41 velocity=122 time=0.015318619791666667
EXTRACT: note_on channel=9 note=36 velocity=116 time=0
EXTRACT: note_on channel=9 note=42 velocity=43 time=0
EXTRACT: note_off channel=9 note=36 velocity=0 time=0.012254895833333333
EXTRACT: note_off channel=9 note=42 velocity=0 time=0
EXTRACT: note_on channel=9 note=42 velocity=99 time=0.13480385416666665
EXTRACT: note_off channel=9 note=42 velocity=0 time=0.012254895833333333
EXTRACT: note_off channel=0 note=41 velocity=0 time=0.06433820312499999
EXTRACT: note_off channel=11 note=53 velocity=0 time=0.061274479166666666
EXTRACT: note_off channel=11 note=57 velocity=0 time=0
EXTRACT: note_off channel=11 note=60 velocity=0 time=0
EXTRACT: note_off channel=11 note=64 velocity=0 time=0
EXTRACT: note_off channel=11 note=69 velocity=0 time=0
EXTRACT: note_off channel=12 note=53 velocity=0 time=0
EXTRACT: note_off channel=12 note=57 velocity=0 time=0
EXTRACT: note_off channel=12 note=60 velocity=0 time=0
EXTRACT: note_off channel=12 note=64 velocity=0 time=0
EXTRACT: note_off channel=12 note=69 velocity=0 time=0
EXTRACT: note_on channel=0 note=41 velocity=110 time=0.009191171875
EXTRACT: note_on channel=9 note=36 velocity=59 time=0
EXTRACT: note_on channel=9 note=42 velocity=48 time=0
EXTRACT: note_on channel=11 note=53 velocity=92 time=0
EXTRACT: note_on channel=11 note=57 velocity=99 time=0
EXTRACT: note_on channel=11 note=60 velocity=99 time=0
EXTRACT: note_on channel=11 note=64 velocity=106 time=0
EXTRACT: note_on channel=11 note=69 velocity=95 time=0
EXTRACT: note_on channel=12 note=53 velocity=93 time=0
EXTRACT: note_on channel=12 note=57 velocity=99 time=0
EXTRACT: note_on channel=12 note=60 velocity=101 time=0
EXTRACT: note_on channel=12 note=64 velocity=107 time=0
EXTRACT: note_on channel=12 note=69 velocity=97 time=0
EXTRACT: note_off channel=9 note=36 velocity=0 time=0.012254895833333333
EXTRACT: note_off channel=9 note=42 velocity=0 time=0
EXTRACT: note_off channel=0 note=41 velocity=0 time=0.08884799479166666
EXTRACT: note_on channel=0 note=41 velocity=120 time=0.045955859375
EXTRACT: note_on channel=9 note=36 velocity=115 time=0
EXTRACT: note_on channel=9 note=42 velocity=38 time=0
EXTRACT: note_off channel=9 note=36 velocity=0 time=0.012254895833333333
EXTRACT: note_off channel=9 note=42 velocity=0 time=0
EXTRACT: note_on channel=9 note=42 velocity=33 time=0.13480385416666665
EXTRACT: note_off channel=9 note=42 velocity=0 time=0.012254895833333333
EXTRACT: note_off channel=0 note=41 velocity=0 time=0.10416661458333333
EXTRACT: note_off channel=4 note=76 velocity=0 time=0.021446067708333332
EXTRACT: note_off channel=5 note=72 velocity=0 time=0
EXTRACT: note_off channel=11 note=53 velocity=0 time=0
EXTRACT: note_off channel=11 note=57 velocity=0 time=0
EXTRACT: note_off channel=11 note=60 velocity=0 time=0
EXTRACT: note_off channel=11 note=64 velocity=0 time=0
EXTRACT: note_off channel=11 note=69 velocity=0 time=0
EXTRACT: note_off channel=12 note=53 velocity=0 time=0
EXTRACT: note_off channel=12 note=57 velocity=0 time=0
EXTRACT: note_off channel=12 note=60 velocity=0 time=0
EXTRACT: note_off channel=12 note=64 velocity=0 time=0
EXTRACT: note_off channel=12 note=69 velocity=0 time=0
EXTRACT: note_on channel=0 note=41 velocity=121 time=0.009191171875
EXTRACT: note_on channel=9 note=40 velocity=116 time=0
EXTRACT: note_on channel=9 note=42 velocity=105 time=0
EXTRACT: note_on channel=11 note=53 velocity=102 time=0
EXTRACT: note_on channel=11 note=57 velocity=103 time=0
EXTRACT: note_on channel=11 note=60 velocity=96 time=0
EXTRACT: note_on channel=11 note=64 velocity=108 time=0
EXTRACT: note_on channel=11 note=69 velocity=99 time=0
EXTRACT: note_on channel=12 note=53 velocity=98 time=0
EXTRACT: note_on channel=12 note=57 velocity=100 time=0
EXTRACT: note_on channel=12 note=60 velocity=99 time=0
EXTRACT: note_on channel=12 note=64 velocity=104 time=0
EXTRACT: note_on channel=12 note=69 velocity=101 time=0
EXTRACT: note_off channel=9 note=40 velocity=0 time=0.012254895833333333
EXTRACT: note_off channel=9 note=42 velocity=0 time=0
EXTRACT: note_on channel=9 note=42 velocity=46 time=0.13480385416666665
EXTRACT: note_off channel=9 note=42 velocity=0 time=0.012254895833333333
EXTRACT: note_off channel=0 note=41 velocity=0 time=0.101102890625
EXTRACT: note_off channel=11 note=53 velocity=0 time=0.024509791666666666
EXTRACT: note_off channel=11 note=57 velocity=0 time=0
EXTRACT: note_off channel=11 note=60 velocity=0 time=0
EXTRACT: note_off channel=11 note=64 velocity=0 time=0
EXTRACT: note_off channel=11 note=69 velocity=0 time=0
EXTRACT: note_off channel=12 note=53 velocity=0 time=0
EXTRACT: note_off channel=12 note=57 velocity=0 time=0
EXTRACT: note_off channel=12 note=60 velocity=0 time=0
EXTRACT: note_off channel=12 note=64 velocity=0 time=0
EXTRACT: note_off channel=12 note=69 velocity=0 time=0
EXTRACT: note_on channel=0 note=41 velocity=119 time=0.009191171875
EXTRACT: note_on channel=9 note=42 velocity=33 time=0
EXTRACT: note_on channel=11 note=53 velocity=96 time=0
EXTRACT: note_on channel=11 note=57 velocity=100 time=0
EXTRACT: note_on channel=11 note=60 velocity=102 time=0
EXTRACT: note_on channel=11 note=64 velocity=104 time=0
EXTRACT: note_on channel=11 note=69 velocity=97 time=0
EXTRACT: note_on channel=12 note=53 velocity=98 time=0
EXTRACT: note_on channel=12 note=57 velocity=102 time=0
EXTRACT: note_on channel=12 note=60 velocity=98 time=0
EXTRACT: note_on channel=12 note=64 velocity=108 time=0
EXTRACT: note_on channel=12 note=69 velocity=100 time=0
EXTRACT: note_off channel=9 note=42 velocity=0 time=0.012254895833333333
EXTRACT: note_off channel=0 note=41 velocity=0 time=0.09497544270833333
EXTRACT: note_off channel=11 note=53 velocity=0 time=0.030637239583333333
EXTRACT: note_off channel=11 note=57 velocity=0 time=0
EXTRACT: note_off channel=11 note=60 velocity=0 time=0
EXTRACT: note_off channel=11 note=64 velocity=0 time=0
EXTRACT: note_off channel=11 note=69 velocity=0 time=0
EXTRACT: note_off channel=12 note=53 velocity=0 time=0
EXTRACT: note_off channel=12 note=57 velocity=0 time=0
EXTRACT: note_off channel=12 note=60 velocity=0 time=0
EXTRACT: note_off channel=12 note=64 velocity=0 time=0
EXTRACT: note_off channel=12 note=69 velocity=0 time=0
EXTRACT: note_on channel=0 note=41 velocity=112 time=0.009191171875
EXTRACT: note_on channel=9 note=36 velocity=58 time=0
EXTRACT: note_on channel=9 note=42 velocity=39 time=0
EXTRACT: note_on channel=11 note=53 velocity=81 time=0
EXTRACT: note_on channel=11 note=57 velocity=94 time=0
EXTRACT: note_on channel=11 note=60 velocity=75 time=0
EXTRACT: note_on channel=11 note=64 velocity=81 time=0
EXTRACT: note_on channel=11 note=69 velocity=77 time=0
EXTRACT: note_on channel=12 note=53 velocity=80 time=0
EXTRACT: note_on channel=12 note=57 velocity=88 time=0
EXTRACT: note_on channel=12 note=60 velocity=75 time=0
EXTRACT: note_on channel=12 note=64 velocity=75 time=0
EXTRACT: note_on channel=12 note=69 velocity=75 time=0
EXTRACT: note_off channel=9 note=36 velocity=0 time=0.012254895833333333
EXTRACT: note_off channel=9 note=42 velocity=0 time=0
EXTRACT: note_off channel=0 note=41 velocity=0 time=0.101102890625
EXTRACT: note_off channel=11 note=53 velocity=0 time=0.024509791666666666
EXTRACT: note_off channel=11 note=57 velocity=0 time=0
EXTRACT: note_off channel=11 note=60 velocity=0 time=0
EXTRACT: note_off channel=11 note=64 velocity=0 time=0
EXTRACT: note_off channel=11 note=69 velocity=0 time=0
EXTRACT: note_off channel=12 note=53 velocity=0 time=0
EXTRACT: note_off channel=12 note=57 velocity=0 time=0
EXTRACT: note_off channel=12 note=60 velocity=0 time=0
EXTRACT: note_off channel=12 note=64 velocity=0 time=0
EXTRACT: note_off channel=12 note=69 velocity=0 time=0
EXTRACT: note_on channel=0 note=38 velocity=110 time=0.009191171875
EXTRACT: note_on channel=9 note=36 velocity=112 time=0
EXTRACT: note_on channel=9 note=42 velocity=94 time=0
EXTRACT: note_on channel=11 note=50 velocity=94 time=0
EXTRACT: note_on channel=11 note=57 velocity=107 time=0
EXTRACT: note_on channel=11 note=60 velocity=96 time=0
EXTRACT: note_on channel=11 note=64 velocity=107 time=0
EXTRACT: note_on channel=11 note=69 velocity=106 time=0
EXTRACT: note_on channel=12 note=50 velocity=97 time=0
EXTRACT: note_on channel=12 note=57 velocity=103 time=0
EXTRACT: note_on channel=12 note=60 velocity=92 time=0
EXTRACT: note_on channel=12 note=64 velocity=106 time=0
EXTRACT: note_on channel=12 note=69 velocity=108 time=0
EXTRACT: note_off channel=9 note=36 velocity=0 time=0.012254895833333333
EXTRACT: note_off channel=9 note=42 velocity=0 time=0
EXTRACT: note_on channel=9 note=42 velocity=20 time=0.13480385416666665
EXTRACT: note_off channel=9 note=42 velocity=0 time=0.012254895833333333
EXTRACT: note_off channel=0 note=38 velocity=0 time=0.0367646875
EXTRACT: note_off channel=11 note=50 velocity=0 time=0.08884799479166666
EXTRACT: note_off channel=11 note=57 velocity=0 time=0
EXTRACT: note_off channel=11 note=60 velocity=0 time=0
EXTRACT: note_off channel=11 note=64 velocity=0 time=0
EXTRACT: note_off channel=11 note=69 velocity=0 time=0
EXTRACT: note_off channel=12 note=50 velocity=0 time=0
EXTRACT: note_off channel=12 note=57 velocity=0 time=0
EXTRACT: note_off channel=12 note=60 velocity=0 time=0
EXTRACT: note_off channel=12 note=64 velocity=0 time=0
EXTRACT: note_off channel=12 note=69 velocity=0 time=0
EXTRACT: note_on channel=0 note=38 velocity=120 time=0.009191171875
EXTRACT: note_on channel=9 note=36 velocity=118 time=0
EXTRACT: note_on channel=9 note=42 velocity=34 time=0
EXTRACT: note_on channel=11 note=50 velocity=82 time=0
EXTRACT: note_on channel=11 note=57 velocity=76 time=0
EXTRACT: note_on channel=11 note=60 velocity=70 time=0
EXTRACT: note_on channel=11 note=64 velocity=77 time=0
EXTRACT: note_on channel=11 note=69 velocity=84 time=0
EXTRACT: note_on channel=12 note=50 velocity=75 time=0
EXTRACT: note_on channel=12 note=57 velocity=79 time=0
EXTRACT: note_on channel=12 note=60 velocity=64 time=0
EXTRACT: note_on channel=12 note=64 velocity=71 time=0
EXTRACT: note_on channel=12 note=69 velocity=81 time=0
EXTRACT: note_off channel=9 note=36 velocity=0 time=0.012254895833333333
EXTRACT: note_off channel=9 note=42 velocity=0 time=0
EXTRACT: note_off channel=11 note=50 velocity=0 time=0.12561268229166667
EXTRACT: note_off channel=11 note=57 velocity=0 time=0
EXTRACT: note_off channel=11 note=60 velocity=0 time=0
EXTRACT: note_off channel=11 note=64 velocity=0 time=0
EXTRACT: note_off channel=11 note=69 velocity=0 time=0
EXTRACT: note_off channel=12 note=50 velocity=0 time=0
EXTRACT: note_off channel=12 note=57 velocity=0 time=0
EXTRACT: note_off channel=12 note=60 velocity=0 time=0
EXTRACT: note_off channel=12 note=64 velocity=0 time=0
EXTRACT: note_off channel=12 note=69 velocity=0 time=0
EXTRACT: note_on channel=9 note=42 velocity=33 time=0.009191171875
EXTRACT: note_on channel=11 note=50 velocity=94 time=0
EXTRACT: note_on channel=11 note=57 velocity=94 time=0
EXTRACT: note_on channel=11 note=60 velocity=95 time=0
EXTRACT: note_on channel=11 note=64 velocity=112 time=0
EXTRACT: note_on channel=11 note=69 velocity=106 time=0
EXTRACT: note_on channel=12 note=50 velocity=96 time=0
EXTRACT: note_on channel=12 note=57 velocity=100 time=0
EXTRACT: note_on channel=12 note=60 velocity=93 time=0
EXTRACT: note_on channel=12 note=64 velocity=110 time=0
EXTRACT: note_on channel=12 note=69 velocity=103 time=0
EXTRACT: note_off channel=9 note=42 velocity=0 time=0.012254895833333333
EXTRACT: note_off channel=0 note=38 velocity=0 time=0.07659309895833333
EXTRACT: note_on channel=0 note=38 velocity=118 time=0.05821075520833333
EXTRACT: note_on channel=9 note=40 velocity=120 time=0
EXTRACT: note_on channel=9 note=42 velocity=96 time=0
EXTRACT: note_off channel=9 note=40 velocity=0 time=0.012254895833333333
EXTRACT: note_off channel=9 note=42 velocity=0 time=0
EXTRACT: note_off channel=11 note=50 velocity=0 time=0.12561268229166667
EXTRACT: note_off channel=11 note=57 velocity=0 time=0
EXTRACT: note_off channel=11 note=60 velocity=0 time=0
EXTRACT: note_off channel=11 note=64 velocity=0 time=0
EXTRACT: note_off channel=11 note=69 velocity=0 time=0
EXTRACT: note_off channel=12 note=50 velocity=0 time=0
EXTRACT: note_off channel=12 note=57 velocity=0 time=0
EXTRACT: note_off channel=12 note=60 velocity=0 time=0
EXTRACT: note_off channel=12 note=64 velocity=0 time=0
EXTRACT: note_off channel=12 note=69 velocity=0 time=0
EXTRACT: note_on channel=9 note=42 velocity=52 time=0.009191171875
EXTRACT: note_on channel=11 note=50 velocity=91 time=0
EXTRACT: note_on channel=11 note=57 velocity=77 time=0
EXTRACT: note_on channel=11 note=60 velocity=80 time=0
EXTRACT: note_on channel=11 note=64 velocity=80 time=0
EXTRACT: note_on channel=11 note=69 velocity=79 time=0
EXTRACT: note_on channel=12 note=50 velocity=92 time=0
EXTRACT: note_on channel=12 note=57 velocity=78 time=0
EXTRACT: note_on channel=12 note=60 velocity=76 time=0
EXTRACT: note_on channel=12 note=64 velocity=77 time=0
EXTRACT: note_on channel=12 note=69 velocity=82 time=0
EXTRACT: note_off channel=9 note=42 velocity=0 time=0.012254895833333333
EXTRACT: note_off channel=0 note=38 velocity=0 time=0.073529375
EXTRACT: note_off channel=11 note=50 velocity=0 time=0.052083307291666665
EXTRACT: note_off channel=11 note=57 velocity=0 time=0
EXTRACT: note_off channel=11 note=60 velocity=0 time=0
EXTRACT: note_off channel=11 note=64 velocity=0 time=0
EXTRACT: note_off channel=11 note=69 velocity=0 time=0
EXTRACT: note_off channel=12 note=50 velocity=0 time=0
EXTRACT: note_off channel=12 note=57 velocity=0 time=0
EXTRACT: note_off channel=12 note=60 velocity=0 time=0
EXTRACT: note_off channel=12 note=64 velocity=0 time=0
EXTRACT: note_off channel=12 note=69 velocity=0 time=0
EXTRACT: note_on channel=0 note=38 velocity=118 time=0.009191171875
EXTRACT: note_on channel=9 note=42 velocity=40 time=0
EXTRACT: note_on channel=11 note=50 velocity=99 time=0
EXTRACT: note_on channel=11 note=57 velocity=100 time=0
EXTRACT: note_on channel=11 note=60 velocity=105 time=0
EXTRACT: note_on channel=11 note=64 velocity=105 time=0
EXTRACT: note_on channel=11 note=69 velocity=97 time=0
EXTRACT: note_on channel=12 note=50 velocity=103 time=0
EXTRACT: note_on channel=12 note=57 velocity=99 time=0
EXTRACT: note_on channel=12 note=60 velocity=104 time=0
EXTRACT: note_on channel=12 note=64 velocity=107 time=0
EXTRACT: note_on channel=12 note=69 velocity=102 time=0
EXTRACT: note_off channel=9 note=42 velocity=0 time=0.012254895833333333
EXTRACT: note_off channel=0 note=38 velocity=0 time=0.1102940625
EXTRACT: note_on channel=0 note=38 velocity=117 time=0.024509791666666666
EXTRACT: note_on channel=9 note=36 velocity=119 time=0
EXTRACT: note_on channel=9 note=42 velocity=36 time=0
EXTRACT: note_off channel=9 note=36 velocity=0 time=0.012254895833333333
EXTRACT: note_off channel=9 note=42 velocity=0 time=0
EXTRACT: note_on channel=9 note=42 velocity=104 time=0.13480385416666665
EXTRACT: note_off channel=9 note=42 velocity=0 time=0.012254895833333333
EXTRACT: note_off channel=0 note=38 velocity=0 time=0.05514703125
EXTRACT: note_off channel=11 note=50 velocity=0 time=0.07046565104166666
EXTRACT: note_off channel=11 note=57 velocity=0 time=0
EXTRACT: note_off channel=11 note=60 velocity=0 time=0
EXTRACT: note_off channel=11 note=64 velocity=0 time=0
EXTRACT: note_off channel=11 note=69 velocity=0 time=0
EXTRACT: note_off channel=12 note=50 velocity=0 time=0
EXTRACT: note_off channel=12 note=57 velocity=0 time=0
EXTRACT: note_off channel=12 note=60 velocity=0 time=0
EXTRACT: note_off channel=12 note=64 velocity=0 time=0
EXTRACT: note_off channel=12 note=69 velocity=0 time=0
EXTRACT: note_on channel=0 note=38 velocity=113 time=0.009191171875
EXTRACT: note_on channel=9 note=36 velocity=55 time=0
EXTRACT: note_on channel=9 note=42 velocity=46 time=0
EXTRACT: note_on channel=11 note=50 velocity=106 time=0
EXTRACT: note_on channel=11 note=57 velocity=93 time=0
EXTRACT: note_on channel=11 note=60 velocity=101 time=0
EXTRACT: note_on channel=11 note=64 velocity=106 time=0
EXTRACT: note_on channel=11 note=69 velocity=98 time=0
EXTRACT: note_on channel=12 note=50 velocity=101 time=0
EXTRACT: note_on channel=12 note=57 velocity=98 time=0
EXTRACT: note_on channel=12 note=60 velocity=98 time=0
EXTRACT: note_on channel=12 note=64 velocity=112 time=0
EXTRACT: note_on channel=12 note=69 velocity=102 time=0
EXTRACT: note_off channel=9 note=36 velocity=0 time=0.012254895833333333
EXTRACT: note_off channel=9 note=42 velocity=0 time=0
EXTRACT: note_off channel=0 note=38 velocity=0 time=0.1102940625
EXTRACT: note_on channel=0 note=38 velocity=123 time=0.024509791666666666
EXTRACT: note_on channel=9 note=36 velocity=117 time=0
EXTRACT: note_on channel=9 note=42 velocity=39 time=0
EXTRACT: note_off channel=9 note=36 velocity=0 time=0.012254895833333333
EXTRACT: note_off channel=9 note=42 velocity=0 time=0
EXTRACT: note_on channel=9 note=42 velocity=38 time=0.13480385416666665
EXTRACT: note_off channel=9 note=42 velocity=0 time=0.012254895833333333
EXTRACT: note_off channel=0 note=38 velocity=0 time=0.07659309895833333
EXTRACT: note_off channel=11 note=50 velocity=0 time=0.04901958333333333
EXTRACT: note_off channel=11 note=57 velocity=0 time=0
EXTRACT: note_off channel=11 note=60 velocity=0 time=0
EXTRACT: note_off channel=11 note=64 velocity=0 time=0
EXTRACT: note_off channel=11 note=69 velocity=0 time=0
EXTRACT: note_off channel=12 note=50 velocity=0 time=0
EXTRACT: note_off channel=12 note=57 velocity=0 time=0
EXTRACT: note_off channel=12 note=60 velocity=0 time=0
EXTRACT: note_off channel=12 note=64 velocity=0 time=0
EXTRACT: note_off channel=12 note=69 velocity=0 time=0
EXTRACT: control_change channel=4 control=84 value=77 time=0.0030637239583333332
EXTRACT: control_change channel=5 control=84 value=73 time=0
EXTRACT: control_change channel=4 control=5 value=80 time=0.0030637239583333332
EXTRACT: control_change channel=5 control=5 value=80 time=0
EXTRACT: note_on channel=0 note=38 velocity=117 time=0.0030637239583333332
EXTRACT: note_on channel=2 note=76 velocity=95 time=0
EXTRACT: note_on channel=4 note=71 velocity=116 time=0
EXTRACT: note_on channel=5 note=67 velocity=120 time=0
EXTRACT: note_on channel=9 note=40 velocity=117 time=0
EXTRACT: note_on channel=9 note=42 velocity=106 time=0
EXTRACT: note_on channel=11 note=50 velocity=102 time=0
EXTRACT: note_on channel=11 note=57 velocity=101 time=0
EXTRACT: note_on channel=11 note=60 velocity=97 time=0
EXTRACT: note_on channel=11 note=64 velocity=112 time=0
EXTRACT: note_on channel=11 note=69 velocity=102 time=0
EXTRACT: note_on channel=12 note=50 velocity=105 time=0
EXTRACT: note_on channel=12 note=57 velocity=104 time=0
EXTRACT: note_on channel=12 note=60 velocity=97 time=0
EXTRACT: note_on channel=12 note=64 velocity=107 time=0
EXTRACT: note_on channel=12 note=69 velocity=97 time=0
EXTRACT: note_off channel=9 note=40 velocity=0 time=0.012254895833333333
EXTRACT: note_off channel=9 note=42 velocity=0 time=0
EXTRACT: note_on channel=9 note=42 velocity=61 time=0.13480385416666665
EXTRACT: note_off channel=9 note=42 velocity=0 time=0.012254895833333333
EXTRACT: note_off channel=0 note=38 velocity=0 time=0.05514703125
EXTRACT: note_off channel=2 note=76 velocity=0 time=0.0030637239583333332
EXTRACT: note_off channel=11 note=50 velocity=0 time=0.06740192708333333
EXTRACT: note_off channel=11 note=57 velocity=0 time=0
EXTRACT: note_off channel=11 note=60 velocity=0 time=0
EXTRACT: note_off channel=11 note=64 velocity=0 time=0
EXTRACT: note_off channel=11 note=69 velocity=0 time=0
EXTRACT: note_off channel=12 note=50 velocity=0 time=0
EXTRACT: note_off channel=12 note=57 velocity=0 time=0
EXTRACT: note_off channel=12 note=60 velocity=0 time=0
EXTRACT: note_off channel=12 note=64 velocity=0 time=0
EXTRACT: note_off channel=12 note=69 velocity=0 time=0
EXTRACT: note_on channel=0 note=38 velocity=112 time=0.009191171875
EXTRACT: note_on channel=2 note=81 velocity=106 time=0
EXTRACT: note_on channel=9 note=46 velocity=100 time=0
EXTRACT: note_on channel=11 note=50 velocity=105 time=0
EXTRACT: note_on channel=11 note=57 velocity=106 time=0
EXTRACT: note_on channel=11 note=60 velocity=97 time=0
EXTRACT: note_on channel=11 note=64 velocity=107 time=0
EXTRACT: note_on channel=11 note=69 velocity=99 time=0
EXTRACT: note_on channel=12 note=50 velocity=102 time=0
EXTRACT: note_on channel=12 note=57 velocity=107 time=0
EXTRACT: note_on channel=12 note=60 velocity=100 time=0
EXTRACT: note_on channel=12 note=64 velocity=106 time=0
EXTRACT: note_on channel=12 note=69 velocity=98 time=0
EXTRACT: note_off channel=9 note=46 velocity=0 time=0.012254895833333333
EXTRACT: note_off channel=0 note=38 velocity=0 time=0.08884799479166666
EXTRACT: note_off channel=11 note=50 velocity=0 time=0.0367646875
EXTRACT: note_off channel=11 note=57 velocity=0 time=0
EXTRACT: note_off channel=11 note=60 velocity=0 time=0
EXTRACT: note_off channel=11 note=64 velocity=0 time=0
EXTRACT: note_off channel=11 note=69 velocity=0 time=0
EXTRACT: note_off channel=12 note=50 velocity=0 time=0
EXTRACT: note_off channel=12 note=57 velocity=0 time=0
EXTRACT: note_off channel=12 note=60 velocity=0 time=0
EXTRACT: note_off channel=12 note=64 velocity=0 time=0
EXTRACT: note_off channel=12 note=69 velocity=0 time=0
EXTRACT: note_on channel=0 note=38 velocity=116 time=0.009191171875
EXTRACT: note_on channel=9 note=36 velocity=54 time=0
EXTRACT: note_on channel=11 note=50 velocity=88 time=0
EXTRACT: note_on channel=11 note=57 velocity=84 time=0
EXTRACT: note_on channel=11 note=60 velocity=68 time=0
EXTRACT: note_on channel=11 note=64 velocity=71 time=0
EXTRACT: note_on channel=11 note=69 velocity=87 time=0
EXTRACT: note_on channel=12 note=50 velocity=90 time=0
EXTRACT: note_on channel=12 note=57 velocity=87 time=0
EXTRACT: note_on channel=12 note=60 velocity=63 time=0
EXTRACT: note_on channel=12 note=64 velocity=74 time=0
EXTRACT: note_on channel=12 note=69 velocity=86 time=0
EXTRACT: note_off channel=9 note=36 velocity=0 time=0.012254895833333333
EXTRACT: note_off channel=0 note=38 velocity=0 time=0.10723033854166666
EXTRACT: note_off channel=1 note=60 velocity=0 time=0.0030637239583333332
EXTRACT: note_off channel=1 note=64 velocity=0 time=0
EXTRACT: note_off channel=1 note=69 velocity=0 time=0
EXTRACT: note_on channel=1 note=59 velocity=92 time=0.009191171875
EXTRACT: note_on channel=1 note=62 velocity=98 time=0
EXTRACT: note_on channel=1 note=67 velocity=100 time=0
EXTRACT: note_off channel=11 note=50 velocity=0 time=0.0061274479166666665
EXTRACT: note_off channel=11 note=57 velocity=0 time=0
EXTRACT: note_off channel=11 note=60 velocity=0 time=0
EXTRACT: note_off channel=11 note=64 velocity=0 time=0
EXTRACT: note_off channel=11 note=69 velocity=0 time=0
EXTRACT: note_off channel=12 note=50 velocity=0 time=0
EXTRACT: note_off channel=12 note=57 velocity=0 time=0
EXTRACT: note_off channel=12 note=60 velocity=0 time=0
EXTRACT: note_off channel=12 note=64 velocity=0 time=0
EXTRACT: note_off channel=12 note=69 velocity=0 time=0
EXTRACT: note_on channel=0 note=36 velocity=119 time=0.009191171875
EXTRACT: note_on channel=9 note=36 velocity=120 time=0
EXTRACT: note_on channel=9 note=42 velocity=111 time=0
EXTRACT: note_on channel=11 note=48 velocity=99 time=0
EXTRACT: note_on channel=11 note=55 velocity=97 time=0
EXTRACT: note_on channel=11 note=60 velocity=96 time=0
EXTRACT: note_on channel=11 note=62 velocity=107 time=0
EXTRACT: note_on channel=11 note=67 velocity=96 time=0
EXTRACT: note_on channel=12 note=48 velocity=98 time=0
EXTRACT: note_on channel=12 note=55 velocity=101 time=0
EXTRACT: note_on channel=12 note=60 velocity=93 time=0
EXTRACT: note_on channel=12 note=62 velocity=110 time=0
EXTRACT: note_on channel=12 note=67 velocity=97 time=0
EXTRACT: note_off channel=9 note=36 velocity=0 time=0.012254895833333333
EXTRACT: note_off channel=9 note=42 velocity=0 time=0
EXTRACT: note_on channel=9 note=42 velocity=49 time=0.13480385416666665
EXTRACT: note_off channel=9 note=42 velocity=0 time=0.012254895833333333
EXTRACT: note_off channel=2 note=81 velocity=0 time=0.042892135416666664
EXTRACT: note_off channel=0 note=36 velocity=0 time=0.042892135416666664
EXTRACT: note_on channel=0 note=36 velocity=123 time=0.04901958333333333
EXTRACT: note_on channel=2 note=79 velocity=102 time=0
EXTRACT: note_on channel=9 note=36 velocity=116 time=0
EXTRACT: note_on channel=9 note=42 velocity=43 time=0
EXTRACT: note_off channel=9 note=36 velocity=0 time=0.012254895833333333
EXTRACT: note_off channel=9 note=42 velocity=0 time=0
EXTRACT: note_on channel=9 note=42 velocity=39 time=0.13480385416666665
EXTRACT: note_off channel=9 note=42 velocity=0 time=0.012254895833333333
EXTRACT: note_off channel=0 note=36 velocity=0 time=0.07659309895833333
EXTRACT: note_off channel=11 note=48 velocity=0 time=0.04901958333333333
EXTRACT: note_off channel=11 note=55 velocity=0 time=0
EXTRACT: note_off channel=11 note=60 velocity=0 time=0
EXTRACT: note_off channel=11 note=62 velocity=0 time=0
EXTRACT: note_off channel=11 note=67 velocity=0 time=0
EXTRACT: note_off channel=12 note=48 velocity=0 time=0
EXTRACT: note_off channel=12 note=55 velocity=0 time=0
EXTRACT: note_off channel=12 note=60 velocity=0 time=0
EXTRACT: note_off channel=12 note=62 velocity=0 time=0
EXTRACT: note_off channel=12 note=67 velocity=0 time=0
EXTRACT: note_on channel=0 note=36 velocity=124 time=0.009191171875
EXTRACT: note_on channel=9 note=40 velocity=121 time=0
EXTRACT: note_on channel=9 note=42 velocity=104 time=0
EXTRACT: note_on channel=11 note=48 velocity=103 time=0
EXTRACT: note_on channel=11 note=55 velocity=109 time=0
EXTRACT: note_on channel=11 note=60 velocity=96 time=0
EXTRACT: note_on channel=11 note=62 velocity=112 time=0
EXTRACT: note_on channel=11 note=67 velocity=103 time=0
EXTRACT: note_on channel=12 note=48 velocity=105 time=0
EXTRACT: note_on channel=12 note=55 velocity=107 time=0
EXTRACT: note_on channel=12 note=60 velocity=96 time=0
EXTRACT: note_on channel=12 note=62 velocity=111 time=0
EXTRACT: note_on channel=12 note=67 velocity=96 time=0
EXTRACT: note_off channel=9 note=40 velocity=0 time=0.012254895833333333
EXTRACT: note_off channel=9 note=42 velocity=0 time=0
EXTRACT: note_on channel=9 note=42 velocity=45 time=0.13480385416666665
EXTRACT: note_off channel=9 note=42 velocity=0 time=0.012254895833333333
EXTRACT: note_off channel=0 note=36 velocity=0 time=0.06740192708333333
EXTRACT: note_on channel=0 note=36 velocity=119 time=0.06740192708333333
EXTRACT: note_on channel=9 note=42 velocity=41 time=0
EXTRACT: note_off channel=9 note=42 velocity=0 time=0.012254895833333333
EXTRACT: note_off channel=0 note=36 velocity=0 time=0.08884799479166666
EXTRACT: note_off channel=11 note=48 velocity=0 time=0.0367646875
EXTRACT: note_off channel=11 note=55 velocity=0 time=0
EXTRACT: note_off channel=11 note=60 velocity=0 time=0
EXTRACT: note_off channel=11 note=62 velocity=0 time=0
EXTRACT: note_off channel=11 note=67 velocity=0 time=0
EXTRACT: note_off channel=12 note=48 velocity=0 time=0
EXTRACT: note_off channel=12 note=55 velocity=0 time=0
EXTRACT: note_off channel=12 note=60 velocity=0 time=0
EXTRACT: note_off channel=12 note=62 velocity=0 time=0
EXTRACT: note_off channel=12 note=67 velocity=0 time=0
EXTRACT: note_on channel=0 note=36 velocity=125 time=0.009191171875
EXTRACT: note_on channel=9 note=36 velocity=120 time=0
EXTRACT: note_on channel=9 note=42 velocity=44 time=0
EXTRACT: note_on channel=11 note=48 velocity=112 time=0
EXTRACT: note_on channel=11 note=55 velocity=109 time=0
EXTRACT: note_on channel=11 note=60 velocity=95 time=0
EXTRACT: note_on channel=11 note=62 velocity=110 time=0
EXTRACT: note_on channel=11 note=67 velocity=98 time=0
EXTRACT: note_on channel=12 note=48 velocity=109 time=0
EXTRACT: note_on channel=12 note=55 velocity=111 time=0
EXTRACT: note_on channel=12 note=60 velocity=95 time=0
EXTRACT: note_on channel=12 note=62 velocity=115 time=0
EXTRACT: note_on channel=12 note=67 velocity=97 time=0
EXTRACT: note_off channel=9 note=36 velocity=0 time=0.012254895833333333
EXTRACT: note_off channel=9 note=42 velocity=0 time=0
EXTRACT: note_on channel=9 note=42 velocity=101 time=0.13480385416666665
EXTRACT: note_off channel=9 note=42 velocity=0 time=0.012254895833333333
EXTRACT: note_off channel=0 note=36 velocity=0 time=0.07046565104166666
EXTRACT: note_off channel=11 note=48 velocity=0 time=0.05514703125
EXTRACT: note_off channel=11 note=55 velocity=0 time=0
EXTRACT: note_off channel=11 note=60 velocity=0 time=0
EXTRACT: note_off channel=11 note=62 velocity=0 time=0
EXTRACT: note_off channel=11 note=67 velocity=0 time=0
EXTRACT: note_off channel=12 note=48 velocity=0 time=0
EXTRACT: note_off channel=12 note=55 velocity=0 time=0
EXTRACT: note_off channel=12 note=60 velocity=0 time=0
EXTRACT: note_off channel=12 note=62 velocity=0 time=0
EXTRACT: note_off channel=12 note=67 velocity=0 time=0
EXTRACT: note_on channel=0 note=36 velocity=117 time=0.009191171875
EXTRACT: note_on channel=9 note=36 velocity=59 time=0
EXTRACT: note_on channel=9 note=42 velocity=53 time=0
EXTRACT: note_on channel=11 note=48 velocity=82 time=0
EXTRACT: note_on channel=11 note=55 velocity=90 time=0
EXTRACT: note_on channel=11 note=60 velocity=70 time=0
EXTRACT: note_on channel=11 note=62 velocity=73 time=0
EXTRACT: note_on channel=11 note=67 velocity=76 time=0
EXTRACT: note_on channel=12 note=48 velocity=78 time=0
EXTRACT: note_on channel=12 note=55 velocity=92 time=0
EXTRACT: note_on channel=12 note=60 velocity=70 time=0
EXTRACT: note_on channel=12 note=62 velocity=79 time=0
EXTRACT: note_on channel=12 note=67 velocity=76 time=0
EXTRACT: note_off channel=9 note=36 velocity=0 time=0.012254895833333333
EXTRACT: note_off channel=9 note=42 velocity=0 time=0
EXTRACT: note_off channel=0 note=36 velocity=0 time=0.08578427083333333
EXTRACT: note_off channel=11 note=48 velocity=0 time=0.03982841145833333
EXTRACT: note_off channel=11 note=55 velocity=0 time=0
EXTRACT: note_off channel=11 note=60 velocity=0 time=0
EXTRACT: note_off channel=11 note=62 velocity=0 time=0
EXTRACT: note_off channel=11 note=67 velocity=0 time=0
EXTRACT: note_off channel=12 note=48 velocity=0 time=0
EXTRACT: note_off channel=12 note=55 velocity=0 time=0
EXTRACT: note_off channel=12 note=60 velocity=0 time=0
EXTRACT: note_off channel=12 note=62 velocity=0 time=0
EXTRACT: note_off channel=12 note=67 velocity=0 time=0
EXTRACT: note_on channel=0 note=36 velocity=122 time=0.009191171875
EXTRACT: note_on channel=9 note=36 velocity=106 time=0
EXTRACT: note_on channel=9 note=42 velocity=38 time=0
EXTRACT: note_on channel=11 note=48 velocity=70 time=0
EXTRACT: note_on channel=11 note=55 velocity=83 time=0
EXTRACT: note_on channel=11 note=60 velocity=84 time=0
EXTRACT: note_on channel=11 note=62 velocity=95 time=0
EXTRACT: note_on channel=11 note=67 velocity=85 time=0
EXTRACT: note_on channel=12 note=48 velocity=76 time=0
EXTRACT: note_on channel=12 note=55 velocity=88 time=0
EXTRACT: note_on channel=12 note=60 velocity=83 time=0
EXTRACT: note_on channel=12 note=62 velocity=98 time=0
EXTRACT: note_on channel=12 note=67 velocity=87 time=0
EXTRACT: note_off channel=9 note=36 velocity=0 time=0.012254895833333333
EXTRACT: note_off channel=9 note=42 velocity=0 time=0
EXTRACT: note_off channel=2 note=79 velocity=0 time=0.045955859375
EXTRACT: note_on channel=9 note=42 velocity=30 time=0.08884799479166666
EXTRACT: note_off channel=9 note=42 velocity=0 time=0.012254895833333333
EXTRACT: note_off channel=0 note=36 velocity=0 time=0.10416661458333333
EXTRACT: note_off channel=4 note=71 velocity=0 time=0.021446067708333332
EXTRACT: note_off channel=5 note=67 velocity=0 time=0
EXTRACT: note_off channel=11 note=48 velocity=0 time=0
EXTRACT: note_off channel=11 note=55 velocity=0 time=0
EXTRACT: note_off channel=11 note=60 velocity=0 time=0
EXTRACT: note_off channel=11 note=62 velocity=0 time=0
EXTRACT: note_off channel=11 note=67 velocity=0 time=0
EXTRACT: note_off channel=12 note=48 velocity=0 time=0
EXTRACT: note_off channel=12 note=55 velocity=0 time=0
EXTRACT: note_off channel=12 note=60 velocity=0 time=0
EXTRACT: note_off channel=12 note=62 velocity=0 time=0
EXTRACT: note_off channel=12 note=67 velocity=0 time=0
EXTRACT: note_on channel=0 note=36 velocity=123 time=0.009191171875
EXTRACT: note_on channel=2 note=76 velocity=100 time=0
EXTRACT: note_on channel=9 note=40 velocity=119 time=0
EXTRACT: note_on channel=9 note=42 velocity=104 time=0
EXTRACT: note_on channel=11 note=48 velocity=105 time=0
EXTRACT: note_on channel=11 note=55 velocity=106 time=0
EXTRACT: note_on channel=11 note=60 velocity=103 time=0
EXTRACT: note_on channel=11 note=62 velocity=115 time=0
EXTRACT: note_on channel=11 note=67 velocity=105 time=0
EXTRACT: note_on channel=12 note=48 velocity=104 time=0
EXTRACT: note_on channel=12 note=55 velocity=107 time=0
EXTRACT: note_on channel=12 note=60 velocity=101 time=0
EXTRACT: note_on channel=12 note=62 velocity=119 time=0
EXTRACT: note_on channel=12 note=67 velocity=106 time=0
EXTRACT: note_off channel=9 note=40 velocity=0 time=0.012254895833333333
EXTRACT: note_off channel=9 note=42 velocity=0 time=0
EXTRACT: note_on channel=9 note=42 velocity=44 time=0.13480385416666665
EXTRACT: note_off channel=9 note=42 velocity=0 time=0.012254895833333333
EXTRACT: note_off channel=2 note=76 velocity=0 time=0.04901958333333333
EXTRACT: note_off channel=0 note=36 velocity=0 time=0.0367646875
EXTRACT: note_off channel=11 note=48 velocity=0 time=0.03982841145833333
EXTRACT: note_off channel=11 note=55 velocity=0 time=0
EXTRACT: note_off channel=11 note=60 velocity=0 time=0
EXTRACT: note_off channel=11 note=62 velocity=0 time=0
EXTRACT: note_off channel=11 note=67 velocity=0 time=0
EXTRACT: note_off channel=12 note=48 velocity=0 time=0
EXTRACT: note_off channel=12 note=55 velocity=0 time=0
EXTRACT: note_off channel=12 note=60 velocity=0 time=0
EXTRACT: note_off channel=12 note=62 velocity=0 time=0
EXTRACT: note_off channel=12 note=67 velocity=0 time=0
EXTRACT: note_on channel=0 note=36 velocity=123 time=0.009191171875
EXTRACT: note_on channel=2 note=81 velocity=109 time=0
EXTRACT: note_on channel=9 note=42 velocity=37 time=0
EXTRACT: note_on channel=11 note=48 velocity=69 time=0
EXTRACT: note_on channel=11 note=55 velocity=89 time=0
EXTRACT: note_on channel=11 note=60 velocity=72 time=0
EXTRACT: note_on channel=11 note=62 velocity=81 time=0
EXTRACT: note_on channel=11 note=67 velocity=74 time=0
EXTRACT: note_on channel=12 note=48 velocity=72 time=0
EXTRACT: note_on channel=12 note=55 velocity=85 time=0
EXTRACT: note_on channel=12 note=60 velocity=69 time=0
EXTRACT: note_on channel=12 note=62 velocity=80 time=0
EXTRACT: note_on channel=12 note=67 velocity=79 time=0
EXTRACT: note_off channel=9 note=42 velocity=0 time=0.012254895833333333
EXTRACT: note_off channel=0 note=36 velocity=0 time=0.08884799479166666
EXTRACT: note_off channel=11 note=48 velocity=0 time=0.0367646875
EXTRACT: note_off channel=11 note=55 velocity=0 time=0
EXTRACT: note_off channel=11 note=60 velocity=0 time=0
EXTRACT: note_off channel=11 note=62 velocity=0 time=0
EXTRACT: note_off channel=11 note=67 velocity=0 time=0
EXTRACT: note_off channel=12 note=48 velocity=0 time=0
EXTRACT: note_off channel=12 note=55 velocity=0 time=0
EXTRACT: note_off channel=12 note=60 velocity=0 time=0
EXTRACT: note_off channel=12 note=62 velocity=0 time=0
EXTRACT: note_off channel=12 note=67 velocity=0 time=0
EXTRACT: note_on channel=0 note=36 velocity=114 time=0.009191171875
EXTRACT: note_on channel=9 note=36 velocity=58 time=0
EXTRACT: note_on channel=9 note=42 velocity=34 time=0
EXTRACT: note_on channel=11 note=48 velocity=78 time=0
EXTRACT: note_on channel=11 note=55 velocity=88 time=0
EXTRACT: note_on channel=11 note=60 velocity=77 time=0
EXTRACT: note_on channel=11 note=62 velocity=94 time=0
EXTRACT: note_on channel=11 note=67 velocity=80 time=0
EXTRACT: note_on channel=12 note=48 velocity=72 time=0
EXTRACT: note_on channel=12 note=55 velocity=82 time=0
EXTRACT: note_on channel=12 note=60 velocity=80 time=0
EXTRACT: note_on channel=12 note=62 velocity=91 time=0
EXTRACT: note_on channel=12 note=67 velocity=80 time=0
EXTRACT: note_off channel=9 note=36 velocity=0 time=0.012254895833333333
EXTRACT: note_off channel=9 note=42 velocity=0 time=0
EXTRACT: note_off channel=0 note=36 velocity=0 time=0.10416661458333333
EXTRACT: note_off channel=11 note=48 velocity=0 time=0.021446067708333332
EXTRACT: note_off channel=11 note=55 velocity=0 time=0
EXTRACT: note_off channel=11 note=60 velocity=0 time=0
EXTRACT: note_off channel=11 note=62 velocity=0 time=0
EXTRACT: note_off channel=11 note=67 velocity=0 time=0
EXTRACT: note_off channel=12 note=48 velocity=0 time=0
EXTRACT: note_off channel=12 note=55 velocity=0 time=0
EXTRACT: note_off channel=12 note=60 velocity=0 time=0
EXTRACT: note_off channel=12 note=62 velocity=0 time=0
EXTRACT: note_off channel=12 note=67 velocity=0 time=0
EXTRACT: note_on channel=0 note=36 velocity=125 time=0.009191171875
EXTRACT: note_on channel=9 note=36 velocity=112 time=0
EXTRACT: note_on channel=9 note=42 velocity=96 time=0
EXTRACT: note_on channel=11 note=48 velocity=96 time=0
EXTRACT: note_on channel=11 note=55 velocity=101 time=0
EXTRACT: note_on channel=11 note=59 velocity=101 time=0
EXTRACT: note_on channel=11 note=62 velocity=106 time=0
EXTRACT: note_on channel=11 note=67 velocity=96 time=0
EXTRACT: note_on channel=12 note=48 velocity=100 time=0
EXTRACT: note_on channel=12 note=55 velocity=100 time=0
EXTRACT: note_on channel=12 note=59 velocity=96 time=0
EXTRACT: note_on channel=12 note=62 velocity=110 time=0
EXTRACT: note_on channel=12 note=67 velocity=95 time=0
EXTRACT: note_off channel=9 note=36 velocity=0 time=0.012254895833333333
EXTRACT: note_off channel=9 note=42 velocity=0 time=0
EXTRACT: note_on channel=9 note=42 velocity=25 time=0.13480385416666665
EXTRACT: note_off channel=9 note=42 velocity=0 time=0.012254895833333333
EXTRACT: note_off channel=2 note=81 velocity=0 time=0.024509791666666666
EXTRACT: note_off channel=0 note=36 velocity=0 time=0.061274479166666666
EXTRACT: note_on channel=0 note=36 velocity=119 time=0.04901958333333333
EXTRACT: note_on channel=2 note=79 velocity=98 time=0
EXTRACT: note_on channel=9 note=36 velocity=110 time=0
EXTRACT: note_on channel=9 note=42 velocity=36 time=0
EXTRACT: note_off channel=9 note=36 velocity=0 time=0.012254895833333333
EXTRACT: note_off channel=9 note=42 velocity=0 time=0
EXTRACT: note_on channel=9 note=42 velocity=30 time=0.13480385416666665
EXTRACT: note_off channel=9 note=42 velocity=0 time=0.012254895833333333
EXTRACT: note_off channel=0 note=36 velocity=0 time=0.07659309895833333
EXTRACT: note_off channel=11 note=48 velocity=0 time=0.04901958333333333
EXTRACT: note_off channel=11 note=55 velocity=0 time=0
EXTRACT: note_off channel=11 note=59 velocity=0 time=0
EXTRACT: note_off channel=11 note=62 velocity=0 time=0
EXTRACT: note_off channel=11 note=67 velocity=0 time=0
EXTRACT: note_off channel=12 note=48 velocity=0 time=0
EXTRACT: note_off channel=12 note=55 velocity=0 time=0
EXTRACT: note_off channel=12 note=59 velocity=0 time=0
EXTRACT: note_off channel=12 note=62 velocity=0 time=0
EXTRACT: note_off channel=12 note=67 velocity=0 time=0
EXTRACT: note_on channel=0 note=36 velocity=121 time=0.009191171875
EXTRACT: note_on channel=9 note=40 velocity=117 time=0
EXTRACT: note_on channel=9 note=42 velocity=97 time=0
EXTRACT: note_on channel=11 note=48 velocity=107 time=0
EXTRACT: note_on channel=11 note=55 velocity=108 time=0
EXTRACT: note_on channel=11 note=59 velocity=102 time=0
EXTRACT: note_on channel=11 note=62 velocity=113 time=0
EXTRACT: note_on channel=11 note=67 velocity=101 time=0
EXTRACT: note_on channel=12 note=48 velocity=107 time=0
EXTRACT: note_on channel=12 note=55 velocity=106 time=0
EXTRACT: note_on channel=12 note=59 velocity=109 time=0
EXTRACT: note_on channel=12 note=62 velocity=119 time=0
EXTRACT: note_on channel=12 note=67 velocity=101 time=0
EXTRACT: note_off channel=9 note=40 velocity=0 time=0.012254895833333333
EXTRACT: note_off channel=9 note=42 velocity=0 time=0
EXTRACT: note_on channel=9 note=42 velocity=48 time=0.13480385416666665
EXTRACT: note_off channel=9 note=42 velocity=0 time=0.012254895833333333
EXTRACT: note_off channel=2 note=79 velocity=0 time=0.06433820312499999
EXTRACT: note_off channel=0 note=36 velocity=0 time=0.009191171875
EXTRACT: note_off channel=11 note=48 velocity=0 time=0.052083307291666665
EXTRACT: note_off channel=11 note=55 velocity=0 time=0
EXTRACT: note_off channel=11 note=59 velocity=0 time=0
EXTRACT: note_off channel=11 note=62 velocity=0 time=0
EXTRACT: note_off channel=11 note=67 velocity=0 time=0
EXTRACT: note_off channel=12 note=48 velocity=0 time=0
EXTRACT: note_off channel=12 note=55 velocity=0 time=0
EXTRACT: note_off channel=12 note=59 velocity=0 time=0
EXTRACT: note_off channel=12 note=62 velocity=0 time=0
EXTRACT: note_off channel=12 note=67 velocity=0 time=0
EXTRACT: note_on channel=0 note=36 velocity=118 time=0.009191171875
EXTRACT: note_on channel=2 note=76 velocity=94 time=0
EXTRACT: note_on channel=9 note=42 velocity=36 time=0
EXTRACT: note_on channel=11 note=48 velocity=70 time=0
EXTRACT: note_on channel=11 note=55 velocity=85 time=0
EXTRACT: note_on channel=11 note=59 velocity=64 time=0
EXTRACT: note_on channel=11 note=62 velocity=69 time=0
EXTRACT: note_on channel=11 note=67 velocity=72 time=0
EXTRACT: note_on channel=12 note=48 velocity=65 time=0
EXTRACT: note_on channel=12 note=55 velocity=90 time=0
EXTRACT: note_on channel=12 note=59 velocity=69 time=0
EXTRACT: note_on channel=12 note=62 velocity=72 time=0
EXTRACT: note_on channel=12 note=67 velocity=68 time=0
EXTRACT: note_off channel=9 note=42 velocity=0 time=0.012254895833333333
EXTRACT: note_off channel=0 note=36 velocity=0 time=0.1102940625
EXTRACT: note_off channel=11 note=48 velocity=0 time=0.015318619791666667
EXTRACT: note_off channel=11 note=55 velocity=0 time=0
EXTRACT: note_off channel=11 note=59 velocity=0 time=0
EXTRACT: note_off channel=11 note=62 velocity=0 time=0
EXTRACT: note_off channel=11 note=67 velocity=0 time=0
EXTRACT: note_off channel=12 note=48 velocity=0 time=0
EXTRACT: note_off channel=12 note=55 velocity=0 time=0
EXTRACT: note_off channel=12 note=59 velocity=0 time=0
EXTRACT: note_off channel=12 note=62 velocity=0 time=0
EXTRACT: note_off channel=12 note=67 velocity=0 time=0
EXTRACT: note_off channel=2 note=76 velocity=0 time=0.0030637239583333332
EXTRACT: note_on channel=0 note=36 velocity=127 time=0.0061274479166666665
EXTRACT: note_on channel=9 note=36 velocity=116 time=0
EXTRACT: note_on channel=9 note=42 velocity=36 time=0
EXTRACT: note_on channel=11 note=48 velocity=103 time=0
EXTRACT: note_on channel=11 note=55 velocity=101 time=0
EXTRACT: note_on channel=11 note=59 velocity=97 time=0
EXTRACT: note_on channel=11 note=62 velocity=110 time=0
EXTRACT: note_on channel=11 note=67 velocity=94 time=0
EXTRACT: note_on channel=12 note=48 velocity=104 time=0
EXTRACT: note_on channel=12 note=55 velocity=105 time=0
EXTRACT: note_on channel=12 note=59 velocity=100 time=0
EXTRACT: note_on channel=12 note=62 velocity=116 time=0
EXTRACT: note_on channel=12 note=67 velocity=91 time=0
EXTRACT: note_off channel=9 note=36 velocity=0 time=0.012254895833333333
EXTRACT: note_off channel=9 note=42 velocity=0 time=0
EXTRACT: note_on channel=2 note=76 velocity=99 time=0.13480385416666665
EXTRACT: note_on channel=9 note=42 velocity=99 time=0
EXTRACT: note_off channel=9 note=42 velocity=0 time=0.012254895833333333
EXTRACT: note_off channel=0 note=36 velocity=0 time=0.030637239583333333
EXTRACT: note_off channel=11 note=48 velocity=0 time=0.09497544270833333
EXTRACT: note_off channel=11 note=55 velocity=0 time=0
EXTRACT: note_off channel=11 note=59 velocity=0 time=0
EXTRACT: note_off channel=11 note=62 velocity=0 time=0
EXTRACT: note_off channel=11 note=67 velocity=0 time=0
EXTRACT: note_off channel=12 note=48 velocity=0 time=0
EXTRACT: note_off channel=12 note=55 velocity=0 time=0
EXTRACT: note_off channel=12 note=59 velocity=0 time=0
EXTRACT: note_off channel=12 note=62 velocity=0 time=0
EXTRACT: note_off channel=12 note=67 velocity=0 time=0
EXTRACT: note_on channel=0 note=36 velocity=112 time=0.009191171875
EXTRACT: note_on channel=9 note=36 velocity=60 time=0
EXTRACT: note_on channel=9 note=42 velocity=44 time=0
EXTRACT: note_on channel=11 note=48 velocity=65 time=0
EXTRACT: note_on channel=11 note=55 velocity=89 time=0
EXTRACT: note_on channel=11 note=59 velocity=79 time=0
EXTRACT: note_on channel=11 note=62 velocity=84 time=0
EXTRACT: note_on channel=11 note=67 velocity=79 time=0
EXTRACT: note_on channel=12 note=48 velocity=67 time=0
EXTRACT: note_on channel=12 note=55 velocity=92 time=0
EXTRACT: note_on channel=12 note=59 velocity=79 time=0
EXTRACT: note_on channel=12 note=62 velocity=81 time=0
EXTRACT: note_on channel=12 note=67 velocity=85 time=0
EXTRACT: note_off channel=9 note=36 velocity=0 time=0.012254895833333333
EXTRACT: note_off channel=9 note=42 velocity=0 time=0
EXTRACT: note_off channel=2 note=76 velocity=0 time=0.03982841145833333
EXTRACT: note_off channel=0 note=36 velocity=0 time=0.06740192708333333
EXTRACT: note_off channel=11 note=48 velocity=0 time=0.01838234375
EXTRACT: note_off channel=11 note=55 velocity=0 time=0
EXTRACT: note_off channel=11 note=59 velocity=0 time=0
EXTRACT: note_off channel=11 note=62 velocity=0 time=0
EXTRACT: note_off channel=11 note=67 velocity=0 time=0
EXTRACT: note_off channel=12 note=48 velocity=0 time=0
EXTRACT: note_off channel=12 note=55 velocity=0 time=0
EXTRACT: note_off channel=12 note=59 velocity=0 time=0
EXTRACT: note_off channel=12 note=62 velocity=0 time=0
EXTRACT: note_off channel=12 note=67 velocity=0 time=0
EXTRACT: note_on channel=0 note=36 velocity=124 time=0.009191171875
EXTRACT: note_on channel=2 note=79 velocity=102 time=0
EXTRACT: note_on channel=9 note=36 velocity=114 time=0
EXTRACT: note_on channel=9 note=46 velocity=105 time=0
EXTRACT: note_on channel=11 note=48 velocity=102 time=0
EXTRACT: note_on channel=11 note=55 velocity=102 time=0
EXTRACT: note_on channel=11 note=59 velocity=94 time=0
EXTRACT: note_on channel=11 note=62 velocity=105 time=0
EXTRACT: note_on channel=11 note=67 velocity=94 time=0
EXTRACT: note_on channel=12 note=48 velocity=100 time=0
EXTRACT: note_on channel=12 note=55 velocity=103 time=0
EXTRACT: note_on channel=12 note=59 velocity=90 time=0
EXTRACT: note_on channel=12 note=62 velocity=103 time=0
EXTRACT: note_on channel=12 note=67 velocity=92 time=0
EXTRACT: note_off channel=9 note=36 velocity=0 time=0.012254895833333333
EXTRACT: note_off channel=9 note=46 velocity=0 time=0
EXTRACT: note_off channel=0 note=36 velocity=0 time=0.2726714322916667
EXTRACT: note_off channel=11 note=48 velocity=0 time=0
EXTRACT: note_off channel=11 note=55 velocity=0 time=0
EXTRACT: note_off channel=11 note=59 velocity=0 time=0
EXTRACT: note_off channel=11 note=62 velocity=0 time=0
EXTRACT: note_off channel=11 note=67 velocity=0 time=0
EXTRACT: note_off channel=12 note=48 velocity=0 time=0
EXTRACT: note_off channel=12 note=55 velocity=0 time=0
EXTRACT: note_off channel=12 note=59 velocity=0 time=0
EXTRACT: note_off channel=12 note=62 velocity=0 time=0
EXTRACT: note_off channel=12 note=67 velocity=0 time=0
EXTRACT: control_change channel=4 control=84 value=70 time=0.0030637239583333332
EXTRACT: control_change channel=5 control=84 value=66 time=0
EXTRACT: control_change channel=4 control=5 value=74 time=0.0030637239583333332
EXTRACT: control_change channel=5 control=5 value=74 time=0
EXTRACT: note_on channel=0 note=38 velocity=123 time=0.0030637239583333332
EXTRACT: note_on channel=4 note=76 velocity=108 time=0
EXTRACT: note_on channel=5 note=72 velocity=112 time=0
EXTRACT: note_on channel=9 note=40 velocity=121 time=0
EXTRACT: note_on channel=9 note=42 velocity=105 time=0
EXTRACT: note_on channel=11 note=48 velocity=103 time=0
EXTRACT: note_on channel=11 note=55 velocity=109 time=0
EXTRACT: note_on channel=11 note=59 velocity=98 time=0
EXTRACT: note_on channel=11 note=62 velocity=106 time=0
EXTRACT: note_on channel=11 note=67 velocity=95 time=0
EXTRACT: note_on channel=12 note=48 velocity=104 time=0
EXTRACT: note_on channel=12 note=55 velocity=113 time=0
EXTRACT: note_on channel=12 note=59 velocity=93 time=0
EXTRACT: note_on channel=12 note=62 velocity=107 time=0
EXTRACT: note_on channel=12 note=67 velocity=93 time=0
EXTRACT: note_off channel=9 note=40 velocity=0 time=0.012254895833333333
EXTRACT: note_off channel=9 note=42 velocity=0 time=0
EXTRACT: note_on channel=9 note=42 velocity=46 time=0.13480385416666665
EXTRACT: note_off channel=9 note=42 velocity=0 time=0.012254895833333333
EXTRACT: note_off channel=2 note=79 velocity=0 time=0.024509791666666666
EXTRACT: note_off channel=0 note=38 velocity=0 time=0.061274479166666666
EXTRACT: note_off channel=11 note=48 velocity=0 time=0.03982841145833333
EXTRACT: note_off channel=11 note=55 velocity=0 time=0
EXTRACT: note_off channel=11 note=59 velocity=0 time=0
EXTRACT: note_off channel=11 note=62 velocity=0 time=0
EXTRACT: note_off channel=11 note=67 velocity=0 time=0
EXTRACT: note_off channel=12 note=48 velocity=0 time=0
EXTRACT: note_off channel=12 note=55 velocity=0 time=0
EXTRACT: note_off channel=12 note=59 velocity=0 time=0
EXTRACT: note_off channel=12 note=62 velocity=0 time=0
EXTRACT: note_off channel=12 note=67 velocity=0 time=0
EXTRACT: note_on channel=0 note=38 velocity=116 time=0.009191171875
EXTRACT: note_on channel=2 note=79 velocity=104 time=0
EXTRACT: note_on channel=9 note=46 velocity=103 time=0
EXTRACT: note_on channel=11 note=48 velocity=77 time=0
EXTRACT: note_on channel=11 note=55 velocity=89 time=0
EXTRACT: note_on channel=11 note=59 velocity=83 time=0
EXTRACT: note_on channel=11 note=62 velocity=88 time=0
EXTRACT: note_on channel=11 note=67 velocity=86 time=0
EXTRACT: note_on channel=12 note=48 velocity=79 time=0
EXTRACT: note_on channel=12 note=55 velocity=84 time=0
EXTRACT: note_on channel=12 note=59 velocity=83 time=0
EXTRACT: note_on channel=12 note=62 velocity=88 time=0
EXTRACT: note_on channel=12 note=67 velocity=85 time=0
EXTRACT: note_off channel=9 note=46 velocity=0 time=0.012254895833333333
EXTRACT: note_off channel=11 note=48 velocity=0 time=0.12561268229166667
EXTRACT: note_off channel=11 note=55 velocity=0 time=0
EXTRACT: note_off channel=11 note=59 velocity=0 time=0
EXTRACT: note_off channel=11 note=62 velocity=0 time=0
EXTRACT: note_off channel=11 note=67 velocity=0 time=0
EXTRACT: note_off channel=12 note=48 velocity=0 time=0
EXTRACT: note_off channel=12 note=55 velocity=0 time=0
EXTRACT: note_off channel=12 note=59 velocity=0 time=0
EXTRACT: note_off channel=12 note=62 velocity=0 time=0
EXTRACT: note_off channel=12 note=67 velocity=0 time=0
EXTRACT: note_on channel=11 note=48 velocity=97 time=0.009191171875
EXTRACT: note_on channel=11 note=55 velocity=95 time=0
EXTRACT: note_on channel=11 note=59 velocity=89 time=0
EXTRACT: note_on channel=11 note=62 velocity=94 time=0
EXTRACT: note_on channel=11 note=67 velocity=77 time=0
EXTRACT: note_on channel=12 note=48 velocity=93 time=0
EXTRACT: note_on channel=12 note=55 velocity=93 time=0
EXTRACT: note_on channel=12 note=59 velocity=87 time=0
EXTRACT: note_on channel=12 note=62 velocity=92 time=0
EXTRACT: note_on channel=12 note=67 velocity=76 time=0
EXTRACT: note_off channel=0 note=38 velocity=0 time=0.11642151041666667
EXTRACT: note_off channel=1 note=59 velocity=0 time=0.0061274479166666665
EXTRACT: note_off channel=1 note=62 velocity=0 time=0
EXTRACT: note_off channel=1 note=67 velocity=0 time=0
EXTRACT: note_on channel=1 note=60 velocity=88 time=0.009191171875
EXTRACT: note_on channel=1 note=64 velocity=105 time=0
EXTRACT: note_on channel=1 note=69 velocity=95 time=0
EXTRACT: note_off channel=11 note=48 velocity=0 time=0.0061274479166666665
EXTRACT: note_off channel=11 note=55 velocity=0 time=0
EXTRACT: note_off channel=11 note=59 velocity=0 time=0
EXTRACT: note_off channel=11 note=62 velocity=0 time=0
EXTRACT: note_off channel=11 note=67 velocity=0 time=0
EXTRACT: note_off channel=12 note=48 velocity=0 time=0
EXTRACT: note_off channel=12 note=55 velocity=0 time=0
EXTRACT: note_off channel=12 note=59 velocity=0 time=0
EXTRACT: note_off channel=12 note=62 velocity=0 time=0
EXTRACT: note_off channel=12 note=67 velocity=0 time=0
EXTRACT: note_on channel=0 note=41 velocity=127 time=0.009191171875
EXTRACT: note_on channel=9 note=36 velocity=102 time=0
EXTRACT: note_on channel=9 note=42 velocity=106 time=0
EXTRACT: note_on channel=11 note=53 velocity=94 time=0
EXTRACT: note_on channel=11 note=57 velocity=101 time=0
EXTRACT: note_on channel=11 note=60 velocity=96 time=0
EXTRACT: note_on channel=11 note=64 velocity=107 time=0
EXTRACT: note_on channel=11 note=69 velocity=97 time=0
EXTRACT: note_on channel=12 note=53 velocity=91 time=0
EXTRACT: note_on channel=12 note=57 velocity=99 time=0
EXTRACT: note_on channel=12 note=60 velocity=99 time=0
EXTRACT: note_on channel=12 note=64 velocity=108 time=0
EXTRACT: note_on channel=12 note=69 velocity=99 time=0
EXTRACT: note_off channel=9 note=36 velocity=0 time=0.012254895833333333
EXTRACT: note_off channel=9 note=42 velocity=0 time=0
EXTRACT: note_on channel=9 note=42 velocity=43 time=0.13480385416666665
EXTRACT: note_off channel=9 note=42 velocity=0 time=0.012254895833333333
EXTRACT: note_off channel=0 note=41 velocity=0 time=0.07965682291666666
EXTRACT: note_off channel=11 note=53 velocity=0 time=0.045955859375
EXTRACT: note_off channel=11 note=57 velocity=0 time=0
EXTRACT: note_off channel=11 note=60 velocity=0 time=0
EXTRACT: note_off channel=11 note=64 velocity=0 time=0
EXTRACT: note_off channel=11 note=69 velocity=0 time=0
EXTRACT: note_off channel=12 note=53 velocity=0 time=0
EXTRACT: note_off channel=12 note=57 velocity=0 time=0
EXTRACT: note_off channel=12 note=60 velocity=0 time=0
EXTRACT: note_off channel=12 note=64 velocity=0 time=0
EXTRACT: note_off channel=12 note=69 velocity=0 time=0
EXTRACT: note_on channel=0 note=41 velocity=126 time=0.009191171875
EXTRACT: note_on channel=9 note=36 velocity=107 time=0
EXTRACT: note_on channel=9 note=42 velocity=44 time=0
EXTRACT: note_on channel=10 note=77 velocity=98 time=0
EXTRACT: note_on channel=11 note=53 velocity=83 time=0
EXTRACT: note_on channel=11 note=57 velocity=87 time=0
EXTRACT: note_on channel=11 note=60 velocity=75 time=0
EXTRACT: note_on channel=11 note=64 velocity=77 time=0
EXTRACT: note_on channel=11 note=69 velocity=80 time=0
EXTRACT: note_on channel=12 note=53 velocity=81 time=0
EXTRACT: note_on channel=12 note=57 velocity=88 time=0
EXTRACT: note_on channel=12 note=60 velocity=71 time=0
EXTRACT: note_on channel=12 note=64 velocity=76 time=0
EXTRACT: note_on channel=12 note=69 velocity=81 time=0
EXTRACT: note_off channel=9 note=36 velocity=0 time=0.012254895833333333
EXTRACT: note_off channel=9 note=42 velocity=0 time=0
EXTRACT: note_off channel=10 note=77 velocity=0 time=0.10723033854166666
EXTRACT: note_off channel=11 note=53 velocity=0 time=0.01838234375
EXTRACT: note_off channel=11 note=57 velocity=0 time=0
EXTRACT: note_off channel=11 note=60 velocity=0 time=0
EXTRACT: note_off channel=11 note=64 velocity=0 time=0
EXTRACT: note_off channel=11 note=69 velocity=0 time=0
EXTRACT: note_off channel=12 note=53 velocity=0 time=0
EXTRACT: note_off channel=12 note=57 velocity=0 time=0
EXTRACT: note_off channel=12 note=60 velocity=0 time=0
EXTRACT: note_off channel=12 note=64 velocity=0 time=0
EXTRACT: note_off channel=12 note=69 velocity=0 time=0
EXTRACT: note_on channel=9 note=42 velocity=44 time=0.009191171875
EXTRACT: note_on channel=11 note=53 velocity=92 time=0
EXTRACT: note_on channel=11 note=57 velocity=92 time=0
EXTRACT: note_on channel=11 note=60 velocity=97 time=0
EXTRACT: note_on channel=11 note=64 velocity=107 time=0
EXTRACT: note_on channel=11 note=69 velocity=96 time=0
EXTRACT: note_on channel=12 note=53 velocity=95 time=0
EXTRACT: note_on channel=12 note=57 velocity=95 time=0
EXTRACT: note_on channel=12 note=60 velocity=98 time=0
EXTRACT: note_on channel=12 note=64 velocity=108 time=0
EXTRACT: note_on channel=12 note=69 velocity=99 time=0
EXTRACT: note_off channel=9 note=42 velocity=0 time=0.012254895833333333
EXTRACT: note_off channel=0 note=41 velocity=0 time=0.07965682291666666
EXTRACT: note_on channel=0 note=41 velocity=125 time=0.05514703125
EXTRACT: note_on channel=9 note=40 velocity=113 time=0
EXTRACT: note_on channel=9 note=42 velocity=100 time=0
EXTRACT: note_on channel=10 note=72 velocity=101 time=0
EXTRACT: note_off channel=9 note=40 velocity=0 time=0.012254895833333333
EXTRACT: note_off channel=9 note=42 velocity=0 time=0
EXTRACT: note_off channel=11 note=53 velocity=0 time=0.12561268229166667
EXTRACT: note_off channel=11 note=57 velocity=0 time=0
EXTRACT: note_off channel=11 note=60 velocity=0 time=0
EXTRACT: note_off channel=11 note=64 velocity=0 time=0
EXTRACT: note_off channel=11 note=69 velocity=0 time=0
EXTRACT: note_off channel=12 note=53 velocity=0 time=0
EXTRACT: note_off channel=12 note=57 velocity=0 time=0
EXTRACT: note_off channel=12 note=60 velocity=0 time=0
EXTRACT: note_off channel=12 note=64 velocity=0 time=0
EXTRACT: note_off channel=12 note=69 velocity=0 time=0
EXTRACT: note_on channel=9 note=42 velocity=42 time=0.009191171875
EXTRACT: note_on channel=11 note=53 velocity=85 time=0
EXTRACT: note_on channel=11 note=57 velocity=89 time=0
EXTRACT: note_on channel=11 note=60 velocity=75 time=0
EXTRACT: note_on channel=11 note=64 velocity=86 time=0
EXTRACT: note_on channel=11 note=69 velocity=85 time=0
EXTRACT: note_on channel=12 note=53 velocity=84 time=0
EXTRACT: note_on channel=12 note=57 velocity=88 time=0
EXTRACT: note_on channel=12 note=60 velocity=75 time=0
EXTRACT: note_on channel=12 note=64 velocity=83 time=0
EXTRACT: note_on channel=12 note=69 velocity=84 time=0
EXTRACT: note_off channel=9 note=42 velocity=0 time=0.012254895833333333
EXTRACT: note_off channel=0 note=41 velocity=0 time=0.082720546875
EXTRACT: note_off channel=10 note=72 velocity=0 time=0.009191171875
EXTRACT: note_off channel=11 note=53 velocity=0 time=0.03370096354166666
EXTRACT: note_off channel=11 note=57 velocity=0 time=0
EXTRACT: note_off channel=11 note=60 velocity=0 time=0
EXTRACT: note_off channel=11 note=64 velocity=0 time=0
EXTRACT: note_off channel=11 note=69 velocity=0 time=0
EXTRACT: note_off channel=12 note=53 velocity=0 time=0
EXTRACT: note_off channel=12 note=57 velocity=0 time=0
EXTRACT: note_off channel=12 note=60 velocity=0 time=0
EXTRACT: note_off channel=12 note=64 velocity=0 time=0
EXTRACT: note_off channel=12 note=69 velocity=0 time=0
EXTRACT: note_on channel=0 note=41 velocity=112 time=0.009191171875
EXTRACT: note_on channel=9 note=42 velocity=45 time=0
EXTRACT: note_on channel=10 note=65 velocity=90 time=0
EXTRACT: note_on channel=11 note=53 velocity=99 time=0
EXTRACT: note_on channel=11 note=57 velocity=105 time=0
EXTRACT: note_on channel=11 note=60 velocity=95 time=0
EXTRACT: note_on channel=11 note=64 velocity=103 time=0
EXTRACT: note_on channel=11 note=69 velocity=105 time=0
EXTRACT: note_on channel=12 note=53 velocity=98 time=0
EXTRACT: note_on channel=12 note=57 velocity=102 time=0
EXTRACT: note_on channel=12 note=60 velocity=91 time=0
EXTRACT: note_on channel=12 note=64 velocity=97 time=0
EXTRACT: note_on channel=12 note=69 velocity=100 time=0
EXTRACT: note_off channel=9 note=42 velocity=0 time=0.012254895833333333
EXTRACT: note_off channel=0 note=41 velocity=0 time=0.119485234375
EXTRACT: note_on channel=0 note=41 velocity=122 time=0.015318619791666667
EXTRACT: note_on channel=9 note=36 velocity=107 time=0
EXTRACT: note_on channel=9 note=42 velocity=45 time=0
EXTRACT: note_off channel=9 note=36 velocity=0 time=0.012254895833333333
EXTRACT: note_off channel=9 note=42 velocity=0 time=0
EXTRACT: note_off channel=10 note=65 velocity=0 time=0.024509791666666666
EXTRACT: note_on channel=9 note=42 velocity=104 time=0.1102940625
EXTRACT: note_off channel=9 note=42 velocity=0 time=0.012254895833333333
EXTRACT: note_off channel=0 note=41 velocity=0 time=0.06433820312499999
EXTRACT: note_off channel=11 note=53 velocity=0 time=0.061274479166666666
EXTRACT: note_off channel=11 note=57 velocity=0 time=0
EXTRACT: note_off channel=11 note=60 velocity=0 time=0
EXTRACT: note_off channel=11 note=64 velocity=0 time=0
EXTRACT: note_off channel=11 note=69 velocity=0 time=0
EXTRACT: note_off channel=12 note=53 velocity=0 time=0
EXTRACT: note_off channel=12 note=57 velocity=0 time=0
EXTRACT: note_off channel=12 note=60 velocity=0 time=0
EXTRACT: note_off channel=12 note=64 velocity=0 time=0
EXTRACT: note_off channel=12 note=69 velocity=0 time=0
EXTRACT: note_on channel=0 note=41 velocity=115 time=0.009191171875
EXTRACT: note_on channel=9 note=36 velocity=59 time=0
EXTRACT: note_on channel=9 note=42 velocity=50 time=0
EXTRACT: note_on channel=11 note=53 velocity=97 time=0
EXTRACT: note_on channel=11 note=57 velocity=98 time=0
EXTRACT: note_on channel=11 note=60 velocity=101 time=0
EXTRACT: note_on channel=11 note=64 velocity=105 time=0
EXTRACT: note_on channel=11 note=69 velocity=99 time=0
EXTRACT: note_on channel=12 note=53 velocity=95 time=0
EXTRACT: note_on channel=12 note=57 velocity=99 time=0
EXTRACT: note_on channel=12 note=60 velocity=101 time=0
EXTRACT: note_on channel=12 note=64 velocity=103 time=0
EXTRACT: note_on channel=12 note=69 velocity=94 time=0
EXTRACT: note_off channel=9 note=36 velocity=0 time=0.012254895833333333
EXTRACT: note_off channel=9 note=42 velocity=0 time=0
EXTRACT: note_off channel=0 note=41 velocity=0 time=0.08884799479166666
EXTRACT: note_on channel=0 note=41 velocity=120 time=0.045955859375
EXTRACT: note_on channel=9 note=36 velocity=107 time=0
EXTRACT: note_on channel=9 note=42 velocity=42 time=0
EXTRACT: note_on channel=10 note=77 velocity=100 time=0
EXTRACT: note_off channel=9 note=36 velocity=0 time=0.012254895833333333
EXTRACT: note_off channel=9 note=42 velocity=0 time=0
EXTRACT: note_off channel=10 note=77 velocity=0 time=0.12561268229166667
EXTRACT: note_on channel=9 note=42 velocity=29 time=0.009191171875
EXTRACT: note_off channel=9 note=42 velocity=0 time=0.012254895833333333
EXTRACT: note_off channel=2 note=79 velocity=0 time=0.030637239583333333
EXTRACT: note_off channel=0 note=41 velocity=0 time=0.073529375
EXTRACT: note_off channel=4 note=76 velocity=0 time=0.021446067708333332
EXTRACT: note_off channel=5 note=72 velocity=0 time=0
EXTRACT: note_off channel=11 note=53 velocity=0 time=0
EXTRACT: note_off channel=11 note=57 velocity=0 time=0
EXTRACT: note_off channel=11 note=60 velocity=0 time=0
EXTRACT: note_off channel=11 note=64 velocity=0 time=0
EXTRACT: note_off channel=11 note=69 velocity=0 time=0
EXTRACT: note_off channel=12 note=53 velocity=0 time=0
EXTRACT: note_off channel=12 note=57 velocity=0 time=0
EXTRACT: note_off channel=12 note=60 velocity=0 time=0
EXTRACT: note_off channel=12 note=64 velocity=0 time=0
EXTRACT: note_off channel=12 note=69 velocity=0 time=0
EXTRACT: note_on channel=0 note=41 velocity=120 time=0.009191171875
EXTRACT: note_on channel=9 note=40 velocity=113 time=0
EXTRACT: note_on channel=9 note=42 velocity=106 time=0
EXTRACT: note_on channel=10 note=72 velocity=108 time=0
EXTRACT: note_on channel=11 note=53 velocity=103 time=0
EXTRACT: note_on channel=11 note=57 velocity=102 time=0
EXTRACT: note_on channel=11 note=60 velocity=93 time=0
EXTRACT: note_on channel=11 note=64 velocity=108 time=0
EXTRACT: note_on channel=11 note=69 velocity=103 time=0
EXTRACT: note_on channel=12 note=53 velocity=97 time=0
EXTRACT: note_on channel=12 note=57 velocity=100 time=0
EXTRACT: note_on channel=12 note=60 velocity=97 time=0
EXTRACT: note_on channel=12 note=64 velocity=102 time=0
EXTRACT: note_on channel=12 note=69 velocity=97 time=0
EXTRACT: note_off channel=9 note=40 velocity=0 time=0.012254895833333333
EXTRACT: note_off channel=9 note=42 velocity=0 time=0
EXTRACT: note_on channel=9 note=42 velocity=45 time=0.13480385416666665
EXTRACT: note_off channel=9 note=42 velocity=0 time=0.012254895833333333
EXTRACT: note_off channel=10 note=72 velocity=0 time=0.09803916666666666
EXTRACT: note_off channel=0 note=41 velocity=0 time=0.0030637239583333332
EXTRACT: note_off channel=11 note=53 velocity=0 time=0.024509791666666666
EXTRACT: note_off channel=11 note=57 velocity=0 time=0
EXTRACT: note_off channel=11 note=60 velocity=0 time=0
EXTRACT: note_off channel=11 note=64 velocity=0 time=0
EXTRACT: note_off channel=11 note=69 velocity=0 time=0
EXTRACT: note_off channel=12 note=53 velocity=0 time=0
EXTRACT: note_off channel=12 note=57 velocity=0 time=0
EXTRACT: note_off channel=12 note=60 velocity=0 time=0
EXTRACT: note_off channel=12 note=64 velocity=0 time=0
EXTRACT: note_off channel=12 note=69 velocity=0 time=0
EXTRACT: note_on channel=0 note=41 velocity=122 time=0.009191171875
EXTRACT: note_on channel=9 note=42 velocity=36 time=0
EXTRACT: note_on channel=10 note=65 velocity=89 time=0
EXTRACT: note_on channel=11 note=53 velocity=96 time=0
EXTRACT: note_on channel=11 note=57 velocity=99 time=0
EXTRACT: note_on channel=11 note=60 velocity=97 time=0
EXTRACT: note_on channel=11 note=64 velocity=107 time=0
EXTRACT: note_on channel=11 note=69 velocity=97 time=0
EXTRACT: note_on channel=12 note=53 velocity=100 time=0
EXTRACT: note_on channel=12 note=57 velocity=105 time=0
EXTRACT: note_on channel=12 note=60 velocity=100 time=0
EXTRACT: note_on channel=12 note=64 velocity=108 time=0
EXTRACT: note_on channel=12 note=69 velocity=98 time=0
EXTRACT: note_off channel=9 note=42 velocity=0 time=0.012254895833333333
EXTRACT: note_off channel=0 note=41 velocity=0 time=0.09497544270833333
EXTRACT: note_off channel=11 note=53 velocity=0 time=0.030637239583333333
EXTRACT: note_off channel=11 note=57 velocity=0 time=0
EXTRACT: note_off channel=11 note=60 velocity=0 time=0
EXTRACT: note_off channel=11 note=64 velocity=0 time=0
EXTRACT: note_off channel=11 note=69 velocity=0 time=0
EXTRACT: note_off channel=12 note=53 velocity=0 time=0
EXTRACT: note_off channel=12 note=57 velocity=0 time=0
EXTRACT: note_off channel=12 note=60 velocity=0 time=0
EXTRACT: note_off channel=12 note=64 velocity=0 time=0
EXTRACT: note_off channel=12 note=69 velocity=0 time=0
EXTRACT: note_on channel=0 note=41 velocity=107 time=0.009191171875
EXTRACT: note_on channel=9 note=36 velocity=53 time=0
EXTRACT: note_on channel=9 note=42 velocity=35 time=0
EXTRACT: note_on channel=11 note=53 velocity=78 time=0
EXTRACT: note_on channel=11 note=57 velocity=87 time=0
EXTRACT: note_on channel=11 note=60 velocity=77 time=0
EXTRACT: note_on channel=11 note=64 velocity=76 time=0
EXTRACT: note_on channel=11 note=69 velocity=82 time=0
EXTRACT: note_on channel=12 note=53 velocity=79 time=0
EXTRACT: note_on channel=12 note=57 velocity=91 time=0
EXTRACT: note_on channel=12 note=60 velocity=73 time=0
EXTRACT: note_on channel=12 note=64 velocity=80 time=0
EXTRACT: note_on channel=12 note=69 velocity=81 time=0
EXTRACT: note_off channel=9 note=36 velocity=0 time=0.012254895833333333
EXTRACT: note_off channel=9 note=42 velocity=0 time=0
EXTRACT: note_off channel=10 note=65 velocity=0 time=0.045955859375
EXTRACT: note_off channel=0 note=41 velocity=0 time=0.05514703125
EXTRACT: note_off channel=11 note=53 velocity=0 time=0.024509791666666666
EXTRACT: note_off channel=11 note=57 velocity=0 time=0
EXTRACT: note_off channel=11 note=60 velocity=0 time=0
EXTRACT: note_off channel=11 note=64 velocity=0 time=0
EXTRACT: note_off channel=11 note=69 velocity=0 time=0
EXTRACT: note_off channel=12 note=53 velocity=0 time=0
EXTRACT: note_off channel=12 note=57 velocity=0 time=0
EXTRACT: note_off channel=12 note=60 velocity=0 time=0
EXTRACT: note_off channel=12 note=64 velocity=0 time=0
EXTRACT: note_off channel=12 note=69 velocity=0 time=0
EXTRACT: note_on channel=0 note=38 velocity=110 time=0.009191171875
EXTRACT: note_on channel=9 note=36 velocity=113 time=0
EXTRACT: note_on channel=9 note=42 velocity=97 time=0
EXTRACT: note_on channel=11 note=50 velocity=98 time=0
EXTRACT: note_on channel=11 note=57 velocity=108 time=0
EXTRACT: note_on channel=11 note=60 velocity=99 time=0
EXTRACT: note_on channel=11 note=64 velocity=106 time=0
EXTRACT: note_on channel=11 note=69 velocity=107 time=0
EXTRACT: note_on channel=12 note=50 velocity=95 time=0
EXTRACT: note_on channel=12 note=57 velocity=105 time=0
EXTRACT: note_on channel=12 note=60 velocity=94 time=0
EXTRACT: note_on channel=12 note=64 velocity=109 time=0
EXTRACT: note_on channel=12 note=69 velocity=111 time=0
EXTRACT: note_off channel=9 note=36 velocity=0 time=0.012254895833333333
EXTRACT: note_off channel=9 note=42 velocity=0 time=0
EXTRACT: note_on channel=9 note=42 velocity=25 time=0.13480385416666665
EXTRACT: note_off channel=9 note=42 velocity=0 time=0.012254895833333333
EXTRACT: note_off channel=0 note=38 velocity=0 time=0.0367646875
EXTRACT: note_off channel=11 note=50 velocity=0 time=0.08884799479166666
EXTRACT: note_off channel=11 note=57 velocity=0 time=0
EXTRACT: note_off channel=11 note=60 velocity=0 time=0
EXTRACT: note_off channel=11 note=64 velocity=0 time=0
EXTRACT: note_off channel=11 note=69 velocity=0 time=0
EXTRACT: note_off channel=12 note=50 velocity=0 time=0
EXTRACT: note_off channel=12 note=57 velocity=0 time=0
EXTRACT: note_off channel=12 note=60 velocity=0 time=0
EXTRACT: note_off channel=12 note=64 velocity=0 time=0
EXTRACT: note_off channel=12 note=69 velocity=0 time=0
EXTRACT: note_on channel=0 note=38 velocity=117 time=0.009191171875
EXTRACT: note_on channel=9 note=36 velocity=113 time=0
EXTRACT: note_on channel=9 note=42 velocity=34 time=0
EXTRACT: note_on channel=11 note=50 velocity=81 time=0
EXTRACT: note_on channel=11 note=57 velocity=78 time=0
EXTRACT: note_on channel=11 note=60 velocity=63 time=0
EXTRACT: note_on channel=11 note=64 velocity=69 time=0
EXTRACT: note_on channel=11 note=69 velocity=88 time=0
EXTRACT: note_on channel=12 note=50 velocity=82 time=0
EXTRACT: note_on channel=12 note=57 velocity=78 time=0
EXTRACT: note_on channel=12 note=60 velocity=63 time=0
EXTRACT: note_on channel=12 note=64 velocity=70 time=0
EXTRACT: note_on channel=12 note=69 velocity=88 time=0
EXTRACT: note_off channel=9 note=36 velocity=0 time=0.012254895833333333
EXTRACT: note_off channel=9 note=42 velocity=0 time=0
EXTRACT: note_off channel=11 note=50 velocity=0 time=0.12561268229166667
EXTRACT: note_off channel=11 note=57 velocity=0 time=0
EXTRACT: note_off channel=11 note=60 velocity=0 time=0
EXTRACT: note_off channel=11 note=64 velocity=0 time=0
EXTRACT: note_off channel=11 note=69 velocity=0 time=0
EXTRACT: note_off channel=12 note=50 velocity=0 time=0
EXTRACT: note_off channel=12 note=57 velocity=0 time=0
EXTRACT: note_off channel=12 note=60 velocity=0 time=0
EXTRACT: note_off channel=12 note=64 velocity=0 time=0
EXTRACT: note_off channel=12 note=69 velocity=0 time=0
EXTRACT: note_on channel=9 note=42 velocity=32 time=0.009191171875
EXTRACT: note_on channel=11 note=50 velocity=99 time=0
EXTRACT: note_on channel=11 note=57 velocity=96 time=0
EXTRACT: note_on channel=11 note=60 velocity=94 time=0
EXTRACT: note_on channel=11 note=64 velocity=108 time=0
EXTRACT: note_on channel=11 note=69 velocity=104 time=0
EXTRACT: note_on channel=12 note=50 velocity=97 time=0
EXTRACT: note_on channel=12 note=57 velocity=99 time=0
EXTRACT: note_on channel=12 note=60 velocity=96 time=0
EXTRACT: note_on channel=12 note=64 velocity=109 time=0
EXTRACT: note_on channel=12 note=69 velocity=103 time=0
EXTRACT: note_off channel=9 note=42 velocity=0 time=0.012254895833333333
EXTRACT: note_off channel=0 note=38 velocity=0 time=0.07659309895833333
EXTRACT: note_on channel=0 note=38 velocity=119 time=0.05821075520833333
EXTRACT: note_on channel=9 note=40 velocity=127 time=0
EXTRACT: note_on channel=9 note=42 velocity=94 time=0
EXTRACT: note_off channel=9 note=40 velocity=0 time=0.012254895833333333
EXTRACT: note_off channel=9 note=42 velocity=0 time=0
EXTRACT: note_off channel=11 note=50 velocity=0 time=0.12561268229166667
EXTRACT: note_off channel=11 note=57 velocity=0 time=0
EXTRACT: note_off channel=11 note=60 velocity=0 time=0
EXTRACT: note_off channel=11 note=64 velocity=0 time=0
EXTRACT: note_off channel=11 note=69 velocity=0 time=0
EXTRACT: note_off channel=12 note=50 velocity=0 time=0
EXTRACT: note_off channel=12 note=57 velocity=0 time=0
EXTRACT: note_off channel=12 note=60 velocity=0 time=0
EXTRACT: note_off channel=12 note=64 velocity=0 time=0
EXTRACT: note_off channel=12 note=69 velocity=0 time=0
EXTRACT: note_on channel=9 note=42 velocity=48 time=0.009191171875
EXTRACT: note_on channel=11 note=50 velocity=94 time=0
EXTRACT: note_on channel=11 note=57 velocity=77 time=0
EXTRACT: note_on channel=11 note=60 velocity=81 time=0
EXTRACT: note_on channel=11 note=64 velocity=80 time=0
EXTRACT: note_on channel=11 note=69 velocity=79 time=0
EXTRACT: note_on channel=12 note=50 velocity=88 time=0
EXTRACT: note_on channel=12 note=57 velocity=83 time=0
EXTRACT: note_on channel=12 note=60 velocity=76 time=0
EXTRACT: note_on channel=12 note=64 velocity=81 time=0
EXTRACT: note_on channel=12 note=69 velocity=85 time=0
EXTRACT: note_off channel=9 note=42 velocity=0 time=0.012254895833333333
EXTRACT: note_off channel=0 note=38 velocity=0 time=0.073529375
EXTRACT: note_off channel=11 note=50 velocity=0 time=0.052083307291666665
EXTRACT: note_off channel=11 note=57 velocity=0 time=0
EXTRACT: note_off channel=11 note=60 velocity=0 time=0
EXTRACT: note_off channel=11 note=64 velocity=0 time=0
EXTRACT: note_off channel=11 note=69 velocity=0 time=0
EXTRACT: note_off channel=12 note=50 velocity=0 time=0
EXTRACT: note_off channel=12 note=57 velocity=0 time=0
EXTRACT: note_off channel=12 note=60 velocity=0 time=0
EXTRACT: note_off channel=12 note=64 velocity=0 time=0
EXTRACT: note_off channel=12 note=69 velocity=0 time=0
EXTRACT: note_on channel=0 note=38 velocity=120 time=0.009191171875
EXTRACT: note_on channel=9 note=42 velocity=36 time=0
EXTRACT: note_on channel=10 note=77 velocity=93 time=0
EXTRACT: note_on channel=11 note=50 velocity=104 time=0
EXTRACT: note_on channel=11 note=57 velocity=101 time=0
EXTRACT: note_on channel=11 note=60 velocity=104 time=0
EXTRACT: note_on channel=11 note=64 velocity=107 time=0
EXTRACT: note_on channel=11 note=69 velocity=99 time=0
EXTRACT: note_on channel=12 note=50 velocity=100 time=0
EXTRACT: note_on channel=12 note=57 velocity=104 time=0
EXTRACT: note_on channel=12 note=60 velocity=106 time=0
EXTRACT: note_on channel=12 note=64 velocity=105 time=0
EXTRACT: note_on channel=12 note=69 velocity=96 time=0
EXTRACT: note_off channel=9 note=42 velocity=0 time=0.012254895833333333
EXTRACT: note_off channel=10 note=77 velocity=0 time=0.09191171875
EXTRACT: note_off channel=0 note=38 velocity=0 time=0.01838234375
EXTRACT: note_on channel=0 note=38 velocity=120 time=0.024509791666666666
EXTRACT: note_on channel=9 note=36 velocity=113 time=0
EXTRACT: note_on channel=9 note=42 velocity=31 time=0
EXTRACT: note_on channel=10 note=72 velocity=111 time=0
EXTRACT: note_off channel=9 note=36 velocity=0 time=0.012254895833333333
EXTRACT: note_off channel=9 note=42 velocity=0 time=0
EXTRACT: note_on channel=9 note=42 velocity=101 time=0.13480385416666665
EXTRACT: note_off channel=9 note=42 velocity=0 time=0.012254895833333333
EXTRACT: note_off channel=0 note=38 velocity=0 time=0.05514703125
EXTRACT: note_off channel=11 note=50 velocity=0 time=0.07046565104166666
EXTRACT: note_off channel=11 note=57 velocity=0 time=0
EXTRACT: note_off channel=11 note=60 velocity=0 time=0
EXTRACT: note_off channel=11 note=64 velocity=0 time=0
EXTRACT: note_off channel=11 note=69 velocity=0 time=0
EXTRACT: note_off channel=12 note=50 velocity=0 time=0
EXTRACT: note_off channel=12 note=57 velocity=0 time=0
EXTRACT: note_off channel=12 note=60 velocity=0 time=0
EXTRACT: note_off channel=12 note=64 velocity=0 time=0
EXTRACT: note_off channel=12 note=69 velocity=0 time=0
EXTRACT: note_off channel=10 note=72 velocity=0 time=0.009191171875
EXTRACT: note_on channel=0 note=38 velocity=110 time=0
EXTRACT: note_on channel=9 note=36 velocity=56 time=0
EXTRACT: note_on channel=9 note=42 velocity=47 time=0
EXTRACT: note_on channel=10 note=65 velocity=88 time=0
EXTRACT: note_on channel=11 note=50 velocity=100 time=0
EXTRACT: note_on channel=11 note=57 velocity=97 time=0
EXTRACT: note_on channel=11 note=60 velocity=100 time=0
EXTRACT: note_on channel=11 note=64 velocity=108 time=0
EXTRACT: note_on channel=11 note=69 velocity=103 time=0
EXTRACT: note_on channel=12 note=50 velocity=104 time=0
EXTRACT: note_on channel=12 note=57 velocity=100 time=0
EXTRACT: note_on channel=12 note=60 velocity=98 time=0
EXTRACT: note_on channel=12 note=64 velocity=105 time=0
EXTRACT: note_on channel=12 note=69 velocity=96 time=0
EXTRACT: note_off channel=9 note=36 velocity=0 time=0.012254895833333333
EXTRACT: note_off channel=9 note=42 velocity=0 time=0
EXTRACT: note_off channel=0 note=38 velocity=0 time=0.1102940625
EXTRACT: note_on channel=0 note=38 velocity=120 time=0.024509791666666666
EXTRACT: note_on channel=9 note=36 velocity=114 time=0
EXTRACT: note_on channel=9 note=42 velocity=38 time=0
EXTRACT: note_off channel=9 note=36 velocity=0 time=0.012254895833333333
EXTRACT: note_off channel=9 note=42 velocity=0 time=0
EXTRACT: note_off channel=10 note=65 velocity=0 time=0.0061274479166666665
EXTRACT: note_on channel=9 note=40 velocity=57 time=0.12867640624999999
EXTRACT: note_on channel=9 note=42 velocity=38 time=0
EXTRACT: note_off channel=9 note=40 velocity=0 time=0.012254895833333333
EXTRACT: note_off channel=9 note=42 velocity=0 time=0
EXTRACT: note_on channel=9 note=40 velocity=53 time=0.061274479166666666
EXTRACT: note_off channel=9 note=40 velocity=0 time=0.012254895833333333
EXTRACT: note_off channel=0 note=38 velocity=0 time=0.0030637239583333332
EXTRACT: note_off channel=11 note=50 velocity=0 time=0.04901958333333333
EXTRACT: note_off channel=11 note=57 velocity=0 time=0
EXTRACT: note_off channel=11 note=60 velocity=0 time=0
EXTRACT: note_off channel=11 note=64 velocity=0 time=0
EXTRACT: note_off channel=11 note=69 velocity=0 time=0
EXTRACT: note_off channel=12 note=50 velocity=0 time=0
EXTRACT: note_off channel=12 note=57 velocity=0 time=0
EXTRACT: note_off channel=12 note=60 velocity=0 time=0
EXTRACT: note_off channel=12 note=64 velocity=0 time=0
EXTRACT: note_off channel=12 note=69 velocity=0 time=0
EXTRACT: control_change channel=4 control=84 value=77 time=0.0030637239583333332
EXTRACT: control_change channel=5 control=84 value=73 time=0
EXTRACT: control_change channel=4 control=5 value=80 time=0.0030637239583333332
EXTRACT: control_change channel=5 control=5 value=80 time=0
EXTRACT: note_on channel=0 note=38 velocity=118 time=0.0030637239583333332
EXTRACT: note_on channel=2 note=72 velocity=86 time=0
EXTRACT: note_on channel=4 note=71 velocity=116 time=0
EXTRACT: note_on channel=5 note=67 velocity=113 time=0
EXTRACT: note_on channel=9 note=40 velocity=123 time=0
EXTRACT: note_on channel=9 note=42 velocity=108 time=0
EXTRACT: note_on channel=10 note=77 velocity=103 time=0
EXTRACT: note_on channel=11 note=50 velocity=99 time=0
EXTRACT: note_on channel=11 note=57 velocity=99 time=0
EXTRACT: note_on channel=11 note=60 velocity=103 time=0
EXTRACT: note_on channel=11 note=64 velocity=111 time=0
EXTRACT: note_on channel=11 note=69 velocity=96 time=0
EXTRACT: note_on channel=12 note=50 velocity=100 time=0
EXTRACT: note_on channel=12 note=57 velocity=101 time=0
EXTRACT: note_on channel=12 note=60 velocity=100 time=0
EXTRACT: note_on channel=12 note=64 velocity=107 time=0
EXTRACT: note_on channel=12 note=69 velocity=101 time=0
EXTRACT: note_off channel=9 note=40 velocity=0 time=0.012254895833333333
EXTRACT: note_off channel=9 note=42 velocity=0 time=0
EXTRACT: note_on channel=9 note=40 velocity=118 time=0.13480385416666665
EXTRACT: note_on channel=9 note=42 velocity=59 time=0
EXTRACT: note_off channel=9 note=40 velocity=0 time=0.012254895833333333
EXTRACT: note_off channel=9 note=42 velocity=0 time=0
EXTRACT: note_off channel=2 note=72 velocity=0 time=0.0030637239583333332
EXTRACT: note_off channel=10 note=77 velocity=0 time=0.045955859375
EXTRACT: note_off channel=0 note=38 velocity=0 time=0.0061274479166666665
EXTRACT: note_off channel=11 note=50 velocity=0 time=0.07046565104166666
EXTRACT: note_off channel=11 note=57 velocity=0 time=0
EXTRACT: note_off channel=11 note=60 velocity=0 time=0
EXTRACT: note_off channel=11 note=64 velocity=0 time=0
EXTRACT: note_off channel=11 note=69 velocity=0 time=0
EXTRACT: note_off channel=12 note=50 velocity=0 time=0
EXTRACT: note_off channel=12 note=57 velocity=0 time=0
EXTRACT: note_off channel=12 note=60 velocity=0 time=0
EXTRACT: note_off channel=12 note=64 velocity=0 time=0
EXTRACT: note_off channel=12 note=69 velocity=0 time=0
EXTRACT: note_on channel=0 note=38 velocity=106 time=0.009191171875
EXTRACT: note_on channel=2 note=72 velocity=91 time=0
EXTRACT: note_on channel=9 note=46 velocity=96 time=0
EXTRACT: note_on channel=9 note=48 velocity=80 time=0
EXTRACT: note_on channel=10 note=72 velocity=90 time=0
EXTRACT: note_on channel=11 note=50 velocity=105 time=0
EXTRACT: note_on channel=11 note=57 velocity=102 time=0
EXTRACT: note_on channel=11 note=60 velocity=98 time=0
EXTRACT: note_on channel=11 note=64 velocity=106 time=0
EXTRACT: note_on channel=11 note=69 velocity=100 time=0
EXTRACT: note_on channel=12 note=50 velocity=101 time=0
EXTRACT: note_on channel=12 note=57 velocity=106 time=0
EXTRACT: note_on channel=12 note=60 velocity=99 time=0
EXTRACT: note_on channel=12 note=64 velocity=102 time=0
EXTRACT: note_on channel=12 note=69 velocity=99 time=0
EXTRACT: note_off channel=9 note=46 velocity=0 time=0.012254895833333333
EXTRACT: note_off channel=9 note=48 velocity=0 time=0
EXTRACT: note_off channel=11 note=50 velocity=0 time=0.12561268229166667
EXTRACT: note_off channel=11 note=57 velocity=0 time=0
EXTRACT: note_off channel=11 note=60 velocity=0 time=0
EXTRACT: note_off channel=11 note=64 velocity=0 time=0
EXTRACT: note_off channel=11 note=69 velocity=0 time=0
EXTRACT: note_off channel=12 note=50 velocity=0 time=0
EXTRACT: note_off channel=12 note=57 velocity=0 time=0
EXTRACT: note_off channel=12 note=60 velocity=0 time=0
EXTRACT: note_off channel=12 note=64 velocity=0 time=0
EXTRACT: note_off channel=12 note=69 velocity=0 time=0
EXTRACT: note_on channel=11 note=50 velocity=86 time=0.009191171875
EXTRACT: note_on channel=11 note=57 velocity=85 time=0
EXTRACT: note_on channel=11 note=60 velocity=68 time=0
EXTRACT: note_on channel=11 note=64 velocity=74 time=0
EXTRACT: note_on channel=11 note=69 velocity=85 time=0
EXTRACT: note_on channel=12 note=50 velocity=86 time=0
EXTRACT: note_on channel=12 note=57 velocity=87 time=0
EXTRACT: note_on channel=12 note=60 velocity=66 time=0
EXTRACT: note_on channel=12 note=64 velocity=71 time=0
EXTRACT: note_on channel=12 note=69 velocity=85 time=0
EXTRACT: note_off channel=10 note=72 velocity=0 time=0.042892135416666664
EXTRACT: note_off channel=1 note=60 velocity=0 time=0.052083307291666665
EXTRACT: note_off channel=1 note=64 velocity=0 time=0.01838234375
EXTRACT: note_off channel=1 note=69 velocity=0 time=0
EXTRACT: note_off channel=0 note=38 velocity=0 time=0.01838234375
EXTRACT: note_off channel=11 note=50 velocity=0 time=0.0061274479166666665
EXTRACT: note_off channel=11 note=57 velocity=0 time=0
EXTRACT: note_off channel=11 note=60 velocity=0 time=0
EXTRACT: note_off channel=11 note=64 velocity=0 time=0
EXTRACT: note_off channel=11 note=69 velocity=0 time=0
EXTRACT: note_off channel=12 note=50 velocity=0 time=0
EXTRACT: note_off channel=12 note=57 velocity=0 time=0
EXTRACT: note_off channel=12 note=60 velocity=0 time=0
EXTRACT: note_off channel=12 note=64 velocity=0 time=0
EXTRACT: note_off channel=12 note=69 velocity=0 time=0
EXTRACT: note_on channel=0 note=43 velocity=121 time=0.009191171875
EXTRACT: note_on channel=9 note=36 velocity=115 time=0
EXTRACT: note_on channel=9 note=49 velocity=88 time=0
EXTRACT: note_on channel=10 note=74 velocity=105 time=0
EXTRACT: note_on channel=11 note=43 velocity=91 time=0
EXTRACT: note_on channel=11 note=50 velocity=96 time=0
EXTRACT: note_on channel=11 note=55 velocity=92 time=0
EXTRACT: note_on channel=11 note=59 velocity=95 time=0
EXTRACT: note_on channel=11 note=62 velocity=99 time=0
EXTRACT: note_on channel=11 note=67 velocity=100 time=0
EXTRACT: note_on channel=12 note=43 velocity=95 time=0
EXTRACT: note_on channel=12 note=50 velocity=98 time=0
EXTRACT: note_on channel=12 note=55 velocity=88 time=0
EXTRACT: note_on channel=12 note=59 velocity=98 time=0
EXTRACT: note_on channel=12 note=62 velocity=106 time=0
EXTRACT: note_on channel=12 note=67 velocity=100 time=0
EXTRACT: note_off channel=9 note=36 velocity=0 time=0.012254895833333333
EXTRACT: note_off channel=9 note=49 velocity=0 time=0
EXTRACT: note_off channel=2 note=72 velocity=0 time=0.1838234375
EXTRACT: note_on channel=2 note=74 velocity=82 time=0.09803916666666666
EXTRACT: note_on channel=10 note=71 velocity=86 time=0
EXTRACT: note_off channel=10 note=74 velocity=0 time=0.0061274479166666665
EXTRACT: note_off channel=2 note=74 velocity=0 time=0.2052695052083333
EXTRACT: note_off channel=10 note=71 velocity=0 time=0.03370096354166666
EXTRACT: note_on channel=2 note=74 velocity=90 time=0.04901958333333333
EXTRACT: note_on channel=10 note=67 velocity=91 time=0
EXTRACT: note_off channel=2 note=74 velocity=0 time=0.21139695312499998
EXTRACT: note_off channel=10 note=67 velocity=0 time=0.07046565104166666
EXTRACT: note_on channel=2 note=76 velocity=97 time=0.012254895833333333
EXTRACT: note_on channel=10 note=62 velocity=90 time=0
EXTRACT: note_off channel=2 note=76 velocity=0 time=0.4748772135416667
EXTRACT: note_off channel=0 note=43 velocity=0 time=0.08884799479166666
EXTRACT: note_on channel=0 note=31 velocity=122 time=0.024509791666666666
EXTRACT: note_on channel=2 note=76 velocity=90 time=0
EXTRACT: note_off channel=10 note=62 velocity=0 time=0.15931364583333332
EXTRACT: note_off channel=0 note=31 velocity=0 time=0.082720546875
EXTRACT: note_off channel=4 note=71 velocity=0 time=0.042892135416666664
EXTRACT: note_off channel=5 note=67 velocity=0 time=0
EXTRACT: control_change channel=0 control=84 value=44 time=0.0030637239583333332
EXTRACT: control_change channel=0 control=5 value=51 time=0.0030637239583333332
EXTRACT: note_on channel=0 note=31 velocity=122 time=0.0030637239583333332
EXTRACT: note_off channel=2 note=76 velocity=0 time=0.3339459114583333
EXTRACT: note_on channel=1 note=69 velocity=94 time=0.23897046875
EXTRACT: note_on channel=1 note=72 velocity=99 time=0
EXTRACT: note_on channel=1 note=76 velocity=117 time=0
EXTRACT: note_on channel=1 note=79 velocity=125 time=0
EXTRACT: note_off channel=0 note=31 velocity=0 time=0.0061274479166666665
EXTRACT: note_on channel=0 note=29 velocity=125 time=0.009191171875
EXTRACT: note_on channel=2 note=79 velocity=101 time=0
EXTRACT: note_on channel=9 note=36 velocity=119 time=0
EXTRACT: note_on channel=9 note=49 velocity=82 time=0
EXTRACT: note_on channel=10 note=62 velocity=109 time=0
EXTRACT: note_on channel=11 note=53 velocity=94 time=0
EXTRACT: note_on channel=11 note=57 velocity=100 time=0
EXTRACT: note_on channel=11 note=60 velocity=103 time=0
EXTRACT: note_on channel=11 note=64 velocity=106 time=0
EXTRACT: note_on channel=11 note=69 velocity=103 time=0
EXTRACT: note_on channel=12 note=53 velocity=98 time=0
EXTRACT: note_on channel=12 note=57 velocity=101 time=0
EXTRACT: note_on channel=12 note=60 velocity=96 time=0
EXTRACT: note_on channel=12 note=64 velocity=110 time=0
EXTRACT: note_on channel=12 note=69 velocity=97 time=0
EXTRACT: note_off channel=9 note=36 velocity=0 time=0.012254895833333333
EXTRACT: note_off channel=9 note=49 velocity=0 time=0
EXTRACT: note_off channel=2 note=79 velocity=0 time=0.082720546875
EXTRACT: note_on channel=2 note=79 velocity=103 time=0.052083307291666665
EXTRACT: note_off channel=2 note=79 velocity=0 time=0.08578427083333333
EXTRACT: note_off channel=0 note=29 velocity=0 time=0.015318619791666667
EXTRACT: note_off channel=10 note=62 velocity=0 time=0.0061274479166666665
EXTRACT: note_off channel=11 note=53 velocity=0 time=0.030637239583333333
EXTRACT: note_off channel=11 note=57 velocity=0 time=0
EXTRACT: note_off channel=11 note=60 velocity=0 time=0
EXTRACT: note_off channel=11 note=64 velocity=0 time=0
EXTRACT: note_off channel=11 note=69 velocity=0 time=0
EXTRACT: note_off channel=12 note=53 velocity=0 time=0
EXTRACT: note_off channel=12 note=57 velocity=0 time=0
EXTRACT: note_off channel=12 note=60 velocity=0 time=0
EXTRACT: note_off channel=12 note=64 velocity=0 time=0
EXTRACT: note_off channel=12 note=69 velocity=0 time=0
EXTRACT: note_on channel=0 note=29 velocity=123 time=0.009191171875
EXTRACT: note_on channel=2 note=79 velocity=103 time=0
EXTRACT: note_on channel=9 note=42 velocity=48 time=0
EXTRACT: note_on channel=10 note=60 velocity=116 time=0
EXTRACT: note_on channel=11 note=53 velocity=82 time=0
EXTRACT: note_on channel=11 note=57 velocity=91 time=0
EXTRACT: note_on channel=11 note=60 velocity=76 time=0
EXTRACT: note_on channel=11 note=64 velocity=77 time=0
EXTRACT: note_on channel=11 note=69 velocity=82 time=0
EXTRACT: note_on channel=12 note=53 velocity=83 time=0
EXTRACT: note_on channel=12 note=57 velocity=86 time=0
EXTRACT: note_on channel=12 note=60 velocity=77 time=0
EXTRACT: note_on channel=12 note=64 velocity=76 time=0
EXTRACT: note_on channel=12 note=69 velocity=83 time=0
EXTRACT: note_off channel=9 note=42 velocity=0 time=0.012254895833333333
EXTRACT: note_off channel=2 note=79 velocity=0 time=0.07659309895833333
EXTRACT: note_off channel=11 note=53 velocity=0 time=0.04901958333333333
EXTRACT: note_off channel=11 note=57 velocity=0 time=0
EXTRACT: note_off channel=11 note=60 velocity=0 time=0
EXTRACT: note_off channel=11 note=64 velocity=0 time=0
EXTRACT: note_off channel=11 note=69 velocity=0 time=0
EXTRACT: note_off channel=12 note=53 velocity=0 time=0
EXTRACT: note_off channel=12 note=57 velocity=0 time=0
EXTRACT: note_off channel=12 note=60 velocity=0 time=0
EXTRACT: note_off channel=12 note=64 velocity=0 time=0
EXTRACT: note_off channel=12 note=69 velocity=0 time=0
EXTRACT: note_on channel=2 note=79 velocity=104 time=0.009191171875
EXTRACT: note_on channel=9 note=42 velocity=42 time=0
EXTRACT: note_on channel=11 note=53 velocity=93 time=0
EXTRACT: note_on channel=11 note=57 velocity=96 time=0
EXTRACT: note_on channel=11 note=60 velocity=100 time=0
EXTRACT: note_on channel=11 note=64 velocity=105 time=0
EXTRACT: note_on channel=11 note=69 velocity=98 time=0
EXTRACT: note_on channel=12 note=53 velocity=95 time=0
EXTRACT: note_on channel=12 note=57 velocity=91 time=0
EXTRACT: note_on channel=12 note=60 velocity=101 time=0
EXTRACT: note_on channel=12 note=64 velocity=106 time=0
EXTRACT: note_on channel=12 note=69 velocity=96 time=0
EXTRACT: note_off channel=9 note=42 velocity=0 time=0.012254895833333333
EXTRACT: note_off channel=10 note=60 velocity=0 time=0.073529375
EXTRACT: note_off channel=2 note=79 velocity=0 time=0.0030637239583333332
EXTRACT: note_off channel=0 note=29 velocity=0 time=0.021446067708333332
EXTRACT: note_on channel=0 note=29 velocity=125 time=0.0367646875
EXTRACT: note_on channel=2 note=79 velocity=103 time=0
EXTRACT: note_on channel=9 note=40 velocity=123 time=0
EXTRACT: note_on channel=9 note=42 velocity=98 time=0
EXTRACT: note_on channel=10 note=55 velocity=102 time=0
EXTRACT: note_off channel=9 note=40 velocity=0 time=0.012254895833333333
EXTRACT: note_off channel=9 note=42 velocity=0 time=0
EXTRACT: note_off channel=2 note=79 velocity=0 time=0.082720546875
EXTRACT: note_off channel=11 note=53 velocity=0 time=0.042892135416666664
EXTRACT: note_off channel=11 note=57 velocity=0 time=0
EXTRACT: note_off channel=11 note=60 velocity=0 time=0
EXTRACT: note_off channel=11 note=64 velocity=0 time=0
EXTRACT: note_off channel=11 note=69 velocity=0 time=0
EXTRACT: note_off channel=12 note=53 velocity=0 time=0
EXTRACT: note_off channel=12 note=57 velocity=0 time=0
EXTRACT: note_off channel=12 note=60 velocity=0 time=0
EXTRACT: note_off channel=12 note=64 velocity=0 time=0
EXTRACT: note_off channel=12 note=69 velocity=0 time=0
EXTRACT: note_on channel=2 note=79 velocity=101 time=0.009191171875
EXTRACT: note_on channel=9 note=42 velocity=44 time=0
EXTRACT: note_on channel=11 note=53 velocity=79 time=0
EXTRACT: note_on channel=11 note=57 velocity=89 time=0
EXTRACT: note_on channel=11 note=60 velocity=79 time=0
EXTRACT: note_on channel=11 note=64 velocity=82 time=0
EXTRACT: note_on channel=11 note=69 velocity=87 time=0
EXTRACT: note_on channel=12 note=53 velocity=80 time=0
EXTRACT: note_on channel=12 note=57 velocity=89 time=0
EXTRACT: note_on channel=12 note=60 velocity=78 time=0
EXTRACT: note_on channel=12 note=64 velocity=87 time=0
EXTRACT: note_on channel=12 note=69 velocity=83 time=0
EXTRACT: note_off channel=9 note=42 velocity=0 time=0.012254895833333333
EXTRACT: note_off channel=2 note=79 velocity=0 time=0.06740192708333333
EXTRACT: note_off channel=0 note=29 velocity=0 time=0.0030637239583333332
EXTRACT: note_off channel=10 note=55 velocity=0 time=0.024509791666666666
EXTRACT: note_off channel=11 note=53 velocity=0 time=0.030637239583333333
EXTRACT: note_off channel=11 note=57 velocity=0 time=0
EXTRACT: note_off channel=11 note=60 velocity=0 time=0
EXTRACT: note_off channel=11 note=64 velocity=0 time=0
EXTRACT: note_off channel=11 note=69 velocity=0 time=0
EXTRACT: note_off channel=12 note=53 velocity=0 time=0
EXTRACT: note_off channel=12 note=57 velocity=0 time=0
EXTRACT: note_off channel=12 note=60 velocity=0 time=0
EXTRACT: note_off channel=12 note=64 velocity=0 time=0
EXTRACT: note_off channel=12 note=69 velocity=0 time=0
EXTRACT: note_on channel=0 note=29 velocity=123 time=0.009191171875
EXTRACT: note_on channel=2 note=79 velocity=97 time=0
EXTRACT: note_on channel=9 note=42 velocity=42 time=0
EXTRACT: note_on channel=10 note=53 velocity=113 time=0
EXTRACT: note_on channel=11 note=53 velocity=98 time=0
EXTRACT: note_on channel=11 note=57 velocity=102 time=0
EXTRACT: note_on channel=11 note=60 velocity=95 time=0
EXTRACT: note_on channel=11 note=64 velocity=98 time=0
EXTRACT: note_on channel=11 note=69 velocity=106 time=0
EXTRACT: note_on channel=12 note=53 velocity=98 time=0
EXTRACT: note_on channel=12 note=57 velocity=104 time=0
EXTRACT: note_on channel=12 note=60 velocity=95 time=0
EXTRACT: note_on channel=12 note=64 velocity=100 time=0
EXTRACT: note_on channel=12 note=69 velocity=103 time=0
EXTRACT: note_off channel=9 note=42 velocity=0 time=0.012254895833333333
EXTRACT: note_off channel=0 note=29 velocity=0 time=0.082720546875
EXTRACT: note_off channel=2 note=79 velocity=0 time=0.0030637239583333332
EXTRACT: note_on channel=0 note=29 velocity=121 time=0.04901958333333333
EXTRACT: note_on channel=2 note=79 velocity=109 time=0
EXTRACT: note_on channel=9 note=36 velocity=115 time=0
EXTRACT: note_on channel=9 note=42 velocity=44 time=0
EXTRACT: note_off channel=9 note=36 velocity=0 time=0.012254895833333333
EXTRACT: note_off channel=9 note=42 velocity=0 time=0
EXTRACT: note_off channel=2 note=79 velocity=0 time=0.082720546875
EXTRACT: note_on channel=2 note=79 velocity=103 time=0.052083307291666665
EXTRACT: note_on channel=9 note=42 velocity=101 time=0
EXTRACT: note_off channel=9 note=42 velocity=0 time=0.012254895833333333
EXTRACT: note_off channel=0 note=29 velocity=0 time=0.07659309895833333
EXTRACT: note_off channel=11 note=53 velocity=0 time=0.04901958333333333
EXTRACT: note_off channel=11 note=57 velocity=0 time=0
EXTRACT: note_off channel=11 note=60 velocity=0 time=0
EXTRACT: note_off channel=11 note=64 velocity=0 time=0
EXTRACT: note_off channel=11 note=69 velocity=0 time=0
EXTRACT: note_off channel=12 note=53 velocity=0 time=0
EXTRACT: note_off channel=12 note=57 velocity=0 time=0
EXTRACT: note_off channel=12 note=60 velocity=0 time=0
EXTRACT: note_off channel=12 note=64 velocity=0 time=0
EXTRACT: note_off channel=12 note=69 velocity=0 time=0
EXTRACT: note_on channel=0 note=29 velocity=125 time=0.009191171875
EXTRACT: note_on channel=9 note=36 velocity=48 time=0
EXTRACT: note_on channel=9 note=42 velocity=48 time=0
EXTRACT: note_on channel=11 note=53 velocity=97 time=0
EXTRACT: note_on channel=11 note=57 velocity=96 time=0
EXTRACT: note_on channel=11 note=60 velocity=100 time=0
EXTRACT: note_on channel=11 note=64 velocity=109 time=0
EXTRACT: note_on channel=11 note=69 velocity=96 time=0
EXTRACT: note_on channel=12 note=53 velocity=91 time=0
EXTRACT: note_on channel=12 note=57 velocity=98 time=0
EXTRACT: note_on channel=12 note=60 velocity=102 time=0
EXTRACT: note_on channel=12 note=64 velocity=109 time=0
EXTRACT: note_on channel=12 note=69 velocity=93 time=0
EXTRACT: note_off channel=9 note=36 velocity=0 time=0.012254895833333333
EXTRACT: note_off channel=9 note=42 velocity=0 time=0
EXTRACT: note_off channel=2 note=79 velocity=0 time=0.045955859375
EXTRACT: note_off channel=0 note=29 velocity=0 time=0.045955859375
EXTRACT: note_on channel=0 note=29 velocity=122 time=0.042892135416666664
EXTRACT: note_on channel=2 note=79 velocity=111 time=0
EXTRACT: note_on channel=9 note=36 velocity=114 time=0
EXTRACT: note_on channel=9 note=42 velocity=39 time=0
EXTRACT: note_off channel=9 note=36 velocity=0 time=0.012254895833333333
EXTRACT: note_off channel=9 note=42 velocity=0 time=0
EXTRACT: note_on channel=9 note=42 velocity=32 time=0.13480385416666665
EXTRACT: note_off channel=9 note=42 velocity=0 time=0.012254895833333333
EXTRACT: note_off channel=2 note=79 velocity=0 time=0.04901958333333333
EXTRACT: note_off channel=0 note=29 velocity=0 time=0.052083307291666665
EXTRACT: note_off channel=11 note=53 velocity=0 time=0.024509791666666666
EXTRACT: note_off channel=11 note=57 velocity=0 time=0
EXTRACT: note_off channel=11 note=60 velocity=0 time=0
EXTRACT: note_off channel=11 note=64 velocity=0 time=0
EXTRACT: note_off channel=11 note=69 velocity=0 time=0
EXTRACT: note_off channel=12 note=53 velocity=0 time=0
EXTRACT: note_off channel=12 note=57 velocity=0 time=0
EXTRACT: note_off channel=12 note=60 velocity=0 time=0
EXTRACT: note_off channel=12 note=64 velocity=0 time=0
EXTRACT: note_off channel=12 note=69 velocity=0 time=0
EXTRACT: note_on channel=0 note=29 velocity=127 time=0.009191171875
EXTRACT: note_on channel=2 note=81 velocity=115 time=0
EXTRACT: note_on channel=9 note=40 velocity=127 time=0
EXTRACT: note_on channel=9 note=42 velocity=103 time=0
EXTRACT: note_on channel=11 note=53 velocity=100 time=0
EXTRACT: note_on channel=11 note=57 velocity=98 time=0
EXTRACT: note_on channel=11 note=60 velocity=94 time=0
EXTRACT: note_on channel=11 note=64 velocity=103 time=0
EXTRACT: note_on channel=11 note=69 velocity=103 time=0
EXTRACT: note_on channel=12 note=53 velocity=101 time=0
EXTRACT: note_on channel=12 note=57 velocity=101 time=0
EXTRACT: note_on channel=12 note=60 velocity=100 time=0
EXTRACT: note_on channel=12 note=64 velocity=106 time=0
EXTRACT: note_on channel=12 note=69 velocity=99 time=0
EXTRACT: note_off channel=9 note=40 velocity=0 time=0.012254895833333333
EXTRACT: note_off channel=9 note=42 velocity=0 time=0
EXTRACT: note_on channel=9 note=42 velocity=44 time=0.13480385416666665
EXTRACT: note_off channel=9 note=42 velocity=0 time=0.012254895833333333
EXTRACT: note_off channel=2 note=81 velocity=0 time=0.027573515625
EXTRACT: note_off channel=0 note=29 velocity=0 time=0.03982841145833333
EXTRACT: note_off channel=11 note=53 velocity=0 time=0.05821075520833333
EXTRACT: note_off channel=11 note=57 velocity=0 time=0
EXTRACT: note_off channel=11 note=60 velocity=0 time=0
EXTRACT: note_off channel=11 note=64 velocity=0 time=0
EXTRACT: note_off channel=11 note=69 velocity=0 time=0
EXTRACT: note_off channel=12 note=53 velocity=0 time=0
EXTRACT: note_off channel=12 note=57 velocity=0 time=0
EXTRACT: note_off channel=12 note=60 velocity=0 time=0
EXTRACT: note_off channel=12 note=64 velocity=0 time=0
EXTRACT: note_off channel=12 note=69 velocity=0 time=0
EXTRACT: note_on channel=0 note=29 velocity=114 time=0.009191171875
EXTRACT: note_on channel=2 note=79 velocity=106 time=0
EXTRACT: note_on channel=9 note=42 velocity=34 time=0
EXTRACT: note_on channel=11 note=53 velocity=100 time=0
EXTRACT: note_on channel=11 note=57 velocity=99 time=0
EXTRACT: note_on channel=11 note=60 velocity=101 time=0
EXTRACT: note_on channel=11 note=64 velocity=103 time=0
EXTRACT: note_on channel=11 note=69 velocity=103 time=0
EXTRACT: note_on channel=12 note=53 velocity=103 time=0
EXTRACT: note_on channel=12 note=57 velocity=100 time=0
EXTRACT: note_on channel=12 note=60 velocity=103 time=0
EXTRACT: note_on channel=12 note=64 velocity=102 time=0
EXTRACT: note_on channel=12 note=69 velocity=98 time=0
EXTRACT: note_off channel=9 note=42 velocity=0 time=0.012254895833333333
EXTRACT: note_off channel=0 note=29 velocity=0 time=0.101102890625
EXTRACT: note_off channel=11 note=53 velocity=0 time=0.024509791666666666
EXTRACT: note_off channel=11 note=57 velocity=0 time=0
EXTRACT: note_off channel=11 note=60 velocity=0 time=0
EXTRACT: note_off channel=11 note=64 velocity=0 time=0
EXTRACT: note_off channel=11 note=69 velocity=0 time=0
EXTRACT: note_off channel=12 note=53 velocity=0 time=0
EXTRACT: note_off channel=12 note=57 velocity=0 time=0
EXTRACT: note_off channel=12 note=60 velocity=0 time=0
EXTRACT: note_off channel=12 note=64 velocity=0 time=0
EXTRACT: note_off channel=12 note=69 velocity=0 time=0
EXTRACT: note_off channel=2 note=79 velocity=0 time=0.0061274479166666665
EXTRACT: note_on channel=0 note=29 velocity=121 time=0.0030637239583333332
EXTRACT: note_on channel=9 note=36 velocity=52 time=0
EXTRACT: note_on channel=9 note=42 velocity=33 time=0
EXTRACT: note_on channel=11 note=53 velocity=79 time=0
EXTRACT: note_on channel=11 note=57 velocity=93 time=0
EXTRACT: note_on channel=11 note=60 velocity=79 time=0
EXTRACT: note_on channel=11 note=64 velocity=77 time=0
EXTRACT: note_on channel=11 note=69 velocity=78 time=0
EXTRACT: note_on channel=12 note=53 velocity=84 time=0
EXTRACT: note_on channel=12 note=57 velocity=87 time=0
EXTRACT: note_on channel=12 note=60 velocity=78 time=0
EXTRACT: note_on channel=12 note=64 velocity=77 time=0
EXTRACT: note_on channel=12 note=69 velocity=82 time=0
EXTRACT: note_off channel=9 note=36 velocity=0 time=0.012254895833333333
EXTRACT: note_off channel=9 note=42 velocity=0 time=0
EXTRACT: note_off channel=10 note=53 velocity=0 time=0.024509791666666666
EXTRACT: note_off channel=0 note=29 velocity=0 time=0.061274479166666666
EXTRACT: note_off channel=11 note=43 velocity=0 time=0.03982841145833333
EXTRACT: note_off channel=11 note=50 velocity=0 time=0
EXTRACT: note_off channel=11 note=55 velocity=0 time=0
EXTRACT: note_off channel=11 note=59 velocity=0 time=0
EXTRACT: note_off channel=11 note=62 velocity=0 time=0
EXTRACT: note_off channel=11 note=67 velocity=0 time=0
EXTRACT: note_off channel=12 note=43 velocity=0 time=0
EXTRACT: note_off channel=12 note=50 velocity=0 time=0
EXTRACT: note_off channel=12 note=55 velocity=0 time=0
EXTRACT: note_off channel=12 note=59 velocity=0 time=0
EXTRACT: note_off channel=12 note=62 velocity=0 time=0
EXTRACT: note_off channel=12 note=67 velocity=0 time=0
EXTRACT: note_off channel=11 note=53 velocity=0 time=0
EXTRACT: note_off channel=11 note=57 velocity=0 time=0
EXTRACT: note_off channel=11 note=60 velocity=0 time=0
EXTRACT: note_off channel=11 note=64 velocity=0 time=0
EXTRACT: note_off channel=11 note=69 velocity=0 time=0
EXTRACT: note_off channel=12 note=53 velocity=0 time=0
EXTRACT: note_off channel=12 note=57 velocity=0 time=0
EXTRACT: note_off channel=12 note=60 velocity=0 time=0
EXTRACT: note_off channel=12 note=64 velocity=0 time=0
EXTRACT: note_off channel=12 note=69 velocity=0 time=0
EXTRACT: note_on channel=0 note=29 velocity=116 time=0.009191171875
EXTRACT: note_on channel=2 note=79 velocity=109 time=0
EXTRACT: note_on channel=9 note=36 velocity=114 time=0
EXTRACT: note_on channel=9 note=42 velocity=100 time=0
EXTRACT: note_on channel=11 note=53 velocity=91 time=0
EXTRACT: note_on channel=11 note=57 velocity=96 time=0
EXTRACT: note_on channel=11 note=60 velocity=103 time=0
EXTRACT: note_on channel=11 note=64 velocity=107 time=0
EXTRACT: note_on channel=11 note=69 velocity=99 time=0
EXTRACT: note_on channel=12 note=53 velocity=92 time=0
EXTRACT: note_on channel=12 note=57 velocity=101 time=0
EXTRACT: note_on channel=12 note=60 velocity=97 time=0
EXTRACT: note_on channel=12 note=64 velocity=107 time=0
EXTRACT: note_on channel=12 note=69 velocity=98 time=0
EXTRACT: note_off channel=9 note=36 velocity=0 time=0.012254895833333333
EXTRACT: note_off channel=9 note=42 velocity=0 time=0
EXTRACT: note_off channel=2 note=79 velocity=0 time=0.09497544270833333
EXTRACT: note_on channel=2 note=79 velocity=102 time=0.03982841145833333
EXTRACT: note_on channel=9 note=42 velocity=20 time=0
EXTRACT: note_off channel=9 note=42 velocity=0 time=0.012254895833333333
EXTRACT: note_off channel=0 note=29 velocity=0 time=0.07965682291666666
EXTRACT: note_off channel=2 note=79 velocity=0 time=0.009191171875
EXTRACT: note_off channel=11 note=53 velocity=0 time=0.0367646875
EXTRACT: note_off channel=11 note=57 velocity=0 time=0
EXTRACT: note_off channel=11 note=60 velocity=0 time=0
EXTRACT: note_off channel=11 note=64 velocity=0 time=0
EXTRACT: note_off channel=11 note=69 velocity=0 time=0
EXTRACT: note_off channel=12 note=53 velocity=0 time=0
EXTRACT: note_off channel=12 note=57 velocity=0 time=0
EXTRACT: note_off channel=12 note=60 velocity=0 time=0
EXTRACT: note_off channel=12 note=64 velocity=0 time=0
EXTRACT: note_off channel=12 note=69 velocity=0 time=0
EXTRACT: note_on channel=0 note=29 velocity=121 time=0.009191171875
EXTRACT: note_on channel=2 note=79 velocity=101 time=0
EXTRACT: note_on channel=9 note=42 velocity=39 time=0
EXTRACT: note_on channel=11 note=53 velocity=80 time=0
EXTRACT: note_on channel=11 note=57 velocity=85 time=0
EXTRACT: note_on channel=11 note=60 velocity=70 time=0
EXTRACT: note_on channel=11 note=64 velocity=78 time=0
EXTRACT: note_on channel=11 note=69 velocity=84 time=0
EXTRACT: note_on channel=12 note=53 velocity=77 time=0
EXTRACT: note_on channel=12 note=57 velocity=86 time=0
EXTRACT: note_on channel=12 note=60 velocity=76 time=0
EXTRACT: note_on channel=12 note=64 velocity=79 time=0
EXTRACT: note_on channel=12 note=69 velocity=78 time=0
EXTRACT: note_off channel=9 note=42 velocity=0 time=0.012254895833333333
EXTRACT: note_off channel=2 note=79 velocity=0 time=0.08884799479166666
EXTRACT: note_off channel=11 note=53 velocity=0 time=0.0367646875
EXTRACT: note_off channel=11 note=57 velocity=0 time=0
EXTRACT: note_off channel=11 note=60 velocity=0 time=0
EXTRACT: note_off channel=11 note=64 velocity=0 time=0
EXTRACT: note_off channel=11 note=69 velocity=0 time=0
EXTRACT: note_off channel=12 note=53 velocity=0 time=0
EXTRACT: note_off channel=12 note=57 velocity=0 time=0
EXTRACT: note_off channel=12 note=60 velocity=0 time=0
EXTRACT: note_off channel=12 note=64 velocity=0 time=0
EXTRACT: note_off channel=12 note=69 velocity=0 time=0
EXTRACT: note_on channel=2 note=79 velocity=104 time=0.009191171875
EXTRACT: note_on channel=9 note=42 velocity=32 time=0
EXTRACT: note_on channel=11 note=53 velocity=94 time=0
EXTRACT: note_on channel=11 note=57 velocity=96 time=0
EXTRACT: note_on channel=11 note=60 velocity=102 time=0
EXTRACT: note_on channel=11 note=64 velocity=107 time=0
EXTRACT: note_on channel=11 note=69 velocity=97 time=0
EXTRACT: note_on channel=12 note=53 velocity=88 time=0
EXTRACT: note_on channel=12 note=57 velocity=96 time=0
EXTRACT: note_on channel=12 note=60 velocity=103 time=0
EXTRACT: note_on channel=12 note=64 velocity=105 time=0
EXTRACT: note_on channel=12 note=69 velocity=102 time=0
EXTRACT: note_off channel=9 note=42 velocity=0 time=0.012254895833333333
EXTRACT: note_off channel=2 note=79 velocity=0 time=0.07965682291666666
EXTRACT: note_off channel=0 note=29 velocity=0 time=0.03982841145833333
EXTRACT: note_on channel=0 note=29 velocity=120 time=0.015318619791666667
EXTRACT: note_on channel=2 note=79 velocity=101 time=0
EXTRACT: note_on channel=9 note=40 velocity=119 time=0
EXTRACT: note_on channel=9 note=42 velocity=98 time=0
EXTRACT: note_off channel=9 note=40 velocity=0 time=0.012254895833333333
EXTRACT: note_off channel=9 note=42 velocity=0 time=0
EXTRACT: note_off channel=2 note=79 velocity=0 time=0.07659309895833333
EXTRACT: note_off channel=11 note=53 velocity=0 time=0.04901958333333333
EXTRACT: note_off channel=11 note=57 velocity=0 time=0
EXTRACT: note_off channel=11 note=60 velocity=0 time=0
EXTRACT: note_off channel=11 note=64 velocity=0 time=0
EXTRACT: note_off channel=11 note=69 velocity=0 time=0
EXTRACT: note_off channel=12 note=53 velocity=0 time=0
EXTRACT: note_off channel=12 note=57 velocity=0 time=0
EXTRACT: note_off channel=12 note=60 velocity=0 time=0
EXTRACT: note_off channel=12 note=64 velocity=0 time=0
EXTRACT: note_off channel=12 note=69 velocity=0 time=0
EXTRACT: note_on channel=2 note=79 velocity=102 time=0.009191171875
EXTRACT: note_on channel=9 note=42 velocity=48 time=0
EXTRACT: note_on channel=11 note=53 velocity=82 time=0
EXTRACT: note_on channel=11 note=57 velocity=85 time=0
EXTRACT: note_on channel=11 note=60 velocity=77 time=0
EXTRACT: note_on channel=11 note=64 velocity=86 time=0
EXTRACT: note_on channel=11 note=69 velocity=85 time=0
EXTRACT: note_on channel=12 note=53 velocity=84 time=0
EXTRACT: note_on channel=12 note=57 velocity=88 time=0
EXTRACT: note_on channel=12 note=60 velocity=74 time=0
EXTRACT: note_on channel=12 note=64 velocity=87 time=0
EXTRACT: note_on channel=12 note=69 velocity=89 time=0
EXTRACT: note_off channel=9 note=42 velocity=0 time=0.012254895833333333
EXTRACT: note_off channel=2 note=79 velocity=0 time=0.07046565104166666
EXTRACT: note_off channel=0 note=29 velocity=0 time=0.012254895833333333
EXTRACT: note_off channel=11 note=53 velocity=0 time=0.042892135416666664
EXTRACT: note_off channel=11 note=57 velocity=0 time=0
EXTRACT: note_off channel=11 note=60 velocity=0 time=0
EXTRACT: note_off channel=11 note=64 velocity=0 time=0
EXTRACT: note_off channel=11 note=69 velocity=0 time=0
EXTRACT: note_off channel=12 note=53 velocity=0 time=0
EXTRACT: note_off channel=12 note=57 velocity=0 time=0
EXTRACT: note_off channel=12 note=60 velocity=0 time=0
EXTRACT: note_off channel=12 note=64 velocity=0 time=0
EXTRACT: note_off channel=12 note=69 velocity=0 time=0
EXTRACT: note_on channel=0 note=29 velocity=119 time=0.009191171875
EXTRACT: note_on channel=2 note=79 velocity=100 time=0
EXTRACT: note_on channel=9 note=42 velocity=39 time=0
EXTRACT: note_on channel=11 note=53 velocity=101 time=0
EXTRACT: note_on channel=11 note=57 velocity=102 time=0
EXTRACT: note_on channel=11 note=60 velocity=97 time=0
EXTRACT: note_on channel=11 note=64 velocity=99 time=0
EXTRACT: note_on channel=11 note=69 velocity=103 time=0
EXTRACT: note_on channel=12 note=53 velocity=102 time=0
EXTRACT: note_on channel=12 note=57 velocity=103 time=0
EXTRACT: note_on channel=12 note=60 velocity=94 time=0
EXTRACT: note_on channel=12 note=64 velocity=97 time=0
EXTRACT: note_on channel=12 note=69 velocity=103 time=0
EXTRACT: note_off channel=9 note=42 velocity=0 time=0.012254895833333333
EXTRACT: note_off channel=2 note=79 velocity=0 time=0.082720546875
EXTRACT: note_off channel=0 note=29 velocity=0 time=0.024509791666666666
EXTRACT: note_on channel=0 note=29 velocity=116 time=0.027573515625
EXTRACT: note_on channel=2 note=79 velocity=113 time=0
EXTRACT: note_on channel=9 note=36 velocity=114 time=0
EXTRACT: note_on channel=9 note=42 velocity=35 time=0
EXTRACT: note_off channel=9 note=36 velocity=0 time=0.012254895833333333
EXTRACT: note_off channel=9 note=42 velocity=0 time=0
EXTRACT: note_off channel=2 note=79 velocity=0 time=0.073529375
EXTRACT: note_on channel=2 note=79 velocity=99 time=0.061274479166666666
EXTRACT: note_on channel=9 note=42 velocity=99 time=0
EXTRACT: note_off channel=9 note=42 velocity=0 time=0.012254895833333333
EXTRACT: note_off channel=0 note=29 velocity=0 time=0.08578427083333333
EXTRACT: note_off channel=11 note=53 velocity=0 time=0.03982841145833333
EXTRACT: note_off channel=11 note=57 velocity=0 time=0
EXTRACT: note_off channel=11 note=60 velocity=0 time=0
EXTRACT: note_off channel=11 note=64 velocity=0 time=0
EXTRACT: note_off channel=11 note=69 velocity=0 time=0
EXTRACT: note_off channel=12 note=53 velocity=0 time=0
EXTRACT: note_off channel=12 note=57 velocity=0 time=0
EXTRACT: note_off channel=12 note=60 velocity=0 time=0
EXTRACT: note_off channel=12 note=64 velocity=0 time=0
EXTRACT: note_off channel=12 note=69 velocity=0 time=0
EXTRACT: note_on channel=0 note=29 velocity=115 time=0.009191171875
EXTRACT: note_on channel=9 note=36 velocity=61 time=0
EXTRACT: note_on channel=9 note=42 velocity=43 time=0
EXTRACT: note_on channel=11 note=53 velocity=97 time=0
EXTRACT: note_on channel=11 note=57 velocity=103 time=0
EXTRACT: note_on channel=11 note=60 velocity=105 time=0
EXTRACT: note_on channel=11 note=64 velocity=108 time=0
EXTRACT: note_on channel=11 note=69 velocity=96 time=0
EXTRACT: note_on channel=12 note=53 velocity=96 time=0
EXTRACT: note_on channel=12 note=57 velocity=103 time=0
EXTRACT: note_on channel=12 note=60 velocity=103 time=0
EXTRACT: note_on channel=12 note=64 velocity=107 time=0
EXTRACT: note_on channel=12 note=69 velocity=95 time=0
EXTRACT: note_off channel=9 note=36 velocity=0 time=0.012254895833333333
EXTRACT: note_off channel=9 note=42 velocity=0 time=0
EXTRACT: note_off channel=2 note=79 velocity=0 time=0.03982841145833333
EXTRACT: note_off channel=0 note=29 velocity=0 time=0.05514703125
EXTRACT: note_on channel=0 note=29 velocity=121 time=0.03982841145833333
EXTRACT: note_on channel=2 note=79 velocity=109 time=0
EXTRACT: note_on channel=9 note=36 velocity=110 time=0
EXTRACT: note_on channel=9 note=42 velocity=44 time=0
EXTRACT: note_off channel=9 note=36 velocity=0 time=0.012254895833333333
EXTRACT: note_off channel=9 note=42 velocity=0 time=0
EXTRACT: note_on channel=9 note=42 velocity=41 time=0.13480385416666665
EXTRACT: note_off channel=9 note=42 velocity=0 time=0.012254895833333333
EXTRACT: note_off channel=2 note=79 velocity=0 time=0.07046565104166666
EXTRACT: note_off channel=0 note=29 velocity=0 time=0.015318619791666667
EXTRACT: note_off channel=11 note=53 velocity=0 time=0.03982841145833333
EXTRACT: note_off channel=11 note=57 velocity=0 time=0
EXTRACT: note_off channel=11 note=60 velocity=0 time=0
EXTRACT: note_off channel=11 note=64 velocity=0 time=0
EXTRACT: note_off channel=11 note=69 velocity=0 time=0
EXTRACT: note_off channel=12 note=53 velocity=0 time=0
EXTRACT: note_off channel=12 note=57 velocity=0 time=0
EXTRACT: note_off channel=12 note=60 velocity=0 time=0
EXTRACT: note_off channel=12 note=64 velocity=0 time=0
EXTRACT: note_off channel=12 note=69 velocity=0 time=0
EXTRACT: note_on channel=0 note=29 velocity=117 time=0.009191171875
EXTRACT: note_on channel=2 note=81 velocity=111 time=0
EXTRACT: note_on channel=9 note=40 velocity=127 time=0
EXTRACT: note_on channel=9 note=42 velocity=107 time=0
EXTRACT: note_on channel=7 note=76 velocity=124 time=0
EXTRACT: note_on channel=11 note=53 velocity=102 time=0
EXTRACT: note_on channel=11 note=57 velocity=101 time=0
EXTRACT: note_on channel=11 note=60 velocity=101 time=0
EXTRACT: note_on channel=11 note=64 velocity=104 time=0
EXTRACT: note_on channel=11 note=69 velocity=100 time=0
EXTRACT: note_on channel=12 note=53 velocity=103 time=0
EXTRACT: note_on channel=12 note=57 velocity=96 time=0
EXTRACT: note_on channel=12 note=60 velocity=97 time=0
EXTRACT: note_on channel=12 note=64 velocity=103 time=0
EXTRACT: note_on channel=12 note=69 velocity=99 time=0
EXTRACT: note_off channel=9 note=40 velocity=0 time=0.012254895833333333
EXTRACT: note_off channel=9 note=42 velocity=0 time=0
EXTRACT: note_on channel=9 note=42 velocity=54 time=0.13480385416666665
EXTRACT: note_off channel=9 note=42 velocity=0 time=0.012254895833333333
EXTRACT: note_off channel=2 note=81 velocity=0 time=0.05514703125
EXTRACT: note_off channel=0 note=29 velocity=0 time=0.0367646875
EXTRACT: note_off channel=11 note=53 velocity=0 time=0.03370096354166666
EXTRACT: note_off channel=11 note=57 velocity=0 time=0
EXTRACT: note_off channel=11 note=60 velocity=0 time=0
EXTRACT: note_off channel=11 note=64 velocity=0 time=0
EXTRACT: note_off channel=11 note=69 velocity=0 time=0
EXTRACT: note_off channel=12 note=53 velocity=0 time=0
EXTRACT: note_off channel=12 note=57 velocity=0 time=0
EXTRACT: note_off channel=12 note=60 velocity=0 time=0
EXTRACT: note_off channel=12 note=64 velocity=0 time=0
EXTRACT: note_off channel=12 note=69 velocity=0 time=0
EXTRACT: note_on channel=0 note=31 velocity=109 time=0.009191171875
EXTRACT: note_on channel=2 note=79 velocity=111 time=0
EXTRACT: note_on channel=9 note=46 velocity=101 time=0
EXTRACT: note_on channel=11 note=53 velocity=96 time=0
EXTRACT: note_on channel=11 note=57 velocity=106 time=0
EXTRACT: note_on channel=11 note=60 velocity=96 time=0
EXTRACT: note_on channel=11 note=64 velocity=102 time=0
EXTRACT: note_on channel=11 note=69 velocity=97 time=0
EXTRACT: note_on channel=12 note=53 velocity=101 time=0
EXTRACT: note_on channel=12 note=57 velocity=100 time=0
EXTRACT: note_on channel=12 note=60 velocity=97 time=0
EXTRACT: note_on channel=12 note=64 velocity=102 time=0
EXTRACT: note_on channel=12 note=69 velocity=97 time=0
EXTRACT: note_off channel=9 note=46 velocity=0 time=0.012254895833333333
EXTRACT: note_off channel=7 note=76 velocity=0 time=0.024509791666666666
EXTRACT: note_off channel=11 note=53 velocity=0 time=0.101102890625
EXTRACT: note_off channel=11 note=57 velocity=0 time=0
EXTRACT: note_off channel=11 note=60 velocity=0 time=0
EXTRACT: note_off channel=11 note=64 velocity=0 time=0
EXTRACT: note_off channel=11 note=69 velocity=0 time=0
EXTRACT: note_off channel=12 note=53 velocity=0 time=0
EXTRACT: note_off channel=12 note=57 velocity=0 time=0
EXTRACT: note_off channel=12 note=60 velocity=0 time=0
EXTRACT: note_off channel=12 note=64 velocity=0 time=0
EXTRACT: note_off channel=12 note=69 velocity=0 time=0
EXTRACT: note_on channel=0 note=36 velocity=119 time=0.009191171875
EXTRACT: note_on channel=9 note=36 velocity=61 time=0
EXTRACT: note_on channel=11 note=53 velocity=79 time=0
EXTRACT: note_on channel=11 note=57 velocity=92 time=0
EXTRACT: note_on channel=11 note=60 velocity=75 time=0
EXTRACT: note_on channel=11 note=64 velocity=81 time=0
EXTRACT: note_on channel=11 note=69 velocity=81 time=0
EXTRACT: note_on channel=12 note=53 velocity=83 time=0
EXTRACT: note_on channel=12 note=57 velocity=92 time=0
EXTRACT: note_on channel=12 note=60 velocity=80 time=0
EXTRACT: note_on channel=12 note=64 velocity=81 time=0
EXTRACT: note_on channel=12 note=69 velocity=76 time=0
EXTRACT: note_off channel=0 note=31 velocity=0 time=0.0030637239583333332
EXTRACT: note_off channel=9 note=36 velocity=0 time=0.009191171875
EXTRACT: note_off channel=2 note=79 velocity=0 time=0.027573515625
EXTRACT: note_off channel=1 note=69 velocity=0 time=0.082720546875
EXTRACT: note_off channel=1 note=72 velocity=0 time=0
EXTRACT: note_on channel=1 note=67 velocity=97 time=0.009191171875
EXTRACT: note_on channel=1 note=71 velocity=99 time=0
EXTRACT: note_off channel=11 note=53 velocity=0 time=0.0061274479166666665
EXTRACT: note_off channel=11 note=57 velocity=0 time=0
EXTRACT: note_off channel=11 note=60 velocity=0 time=0
EXTRACT: note_off channel=11 note=64 velocity=0 time=0
EXTRACT: note_off channel=11 note=69 velocity=0 time=0
EXTRACT: note_off channel=12 note=53 velocity=0 time=0
EXTRACT: note_off channel=12 note=57 velocity=0 time=0
EXTRACT: note_off channel=12 note=60 velocity=0 time=0
EXTRACT: note_off channel=12 note=64 velocity=0 time=0
EXTRACT: note_off channel=12 note=69 velocity=0 time=0
EXTRACT: note_off channel=0 note=36 velocity=0 time=0.0030637239583333332
EXTRACT: note_on channel=0 note=36 velocity=110 time=0.0061274479166666665
EXTRACT: note_on channel=2 note=79 velocity=109 time=0
EXTRACT: note_on channel=3 note=55 velocity=117 time=0
EXTRACT: note_on channel=3 note=62 velocity=98 time=0
EXTRACT: note_on channel=9 note=36 velocity=117 time=0
EXTRACT: note_on channel=9 note=42 velocity=115 time=0
EXTRACT: note_on channel=7 note=72 velocity=118 time=0
EXTRACT: note_on channel=11 note=48 velocity=91 time=0
EXTRACT: note_on channel=11 note=55 velocity=97 time=0
EXTRACT: note_on channel=11 note=60 velocity=86 time=0
EXTRACT: note_on channel=11 note=62 velocity=97 time=0
EXTRACT: note_on channel=11 note=67 velocity=100 time=0
EXTRACT: note_on channel=12 note=48 velocity=96 time=0
EXTRACT: note_on channel=12 note=55 velocity=101 time=0
EXTRACT: note_on channel=12 note=60 velocity=84 time=0
EXTRACT: note_on channel=12 note=62 velocity=102 time=0
EXTRACT: note_on channel=12 note=67 velocity=98 time=0
EXTRACT: note_off channel=9 note=36 velocity=0 time=0.012254895833333333
EXTRACT: note_off channel=9 note=42 velocity=0 time=0
EXTRACT: note_off channel=3 note=55 velocity=0 time=0.073529375
EXTRACT: note_off channel=3 note=62 velocity=0 time=0
EXTRACT: note_on channel=3 note=55 velocity=105 time=0.061274479166666666
EXTRACT: note_on channel=3 note=62 velocity=97 time=0
EXTRACT: note_on channel=9 note=42 velocity=44 time=0
EXTRACT: note_off channel=9 note=42 velocity=0 time=0.012254895833333333
EXTRACT: note_off channel=3 note=55 velocity=0 time=0.073529375
EXTRACT: note_off channel=3 note=62 velocity=0 time=0
EXTRACT: note_off channel=0 note=36 velocity=0 time=0.01838234375
EXTRACT: note_off channel=2 note=79 velocity=0 time=0.0030637239583333332
EXTRACT: note_off channel=11 note=55 velocity=0 time=0.030637239583333333
EXTRACT: note_off channel=11 note=60 velocity=0 time=0
EXTRACT: note_off channel=11 note=62 velocity=0 time=0
EXTRACT: note_off channel=11 note=67 velocity=0 time=0
EXTRACT: note_off channel=12 note=55 velocity=0 time=0
EXTRACT: note_off channel=12 note=60 velocity=0 time=0
EXTRACT: note_off channel=12 note=62 velocity=0 time=0
EXTRACT: note_off channel=12 note=67 velocity=0 time=0
EXTRACT: note_off channel=11 note=48 velocity=0 time=0.0061274479166666665
EXTRACT: note_off channel=12 note=48 velocity=0 time=0
EXTRACT: note_on channel=0 note=36 velocity=123 time=0.0030637239583333332
EXTRACT: note_on channel=2 note=77 velocity=93 time=0
EXTRACT: note_on channel=3 note=55 velocity=107 time=0
EXTRACT: note_on channel=3 note=62 velocity=93 time=0
EXTRACT: note_on channel=9 note=42 velocity=49 time=0
EXTRACT: note_on channel=11 note=48 velocity=87 time=0
EXTRACT: note_on channel=11 note=55 velocity=77 time=0
EXTRACT: note_on channel=11 note=60 velocity=69 time=0
EXTRACT: note_on channel=11 note=62 velocity=80 time=0
EXTRACT: note_on channel=11 note=67 velocity=80 time=0
EXTRACT: note_on channel=12 note=48 velocity=83 time=0
EXTRACT: note_on channel=12 note=55 velocity=77 time=0
EXTRACT: note_on channel=12 note=60 velocity=71 time=0
EXTRACT: note_on channel=12 note=62 velocity=84 time=0
EXTRACT: note_on channel=12 note=67 velocity=75 time=0
EXTRACT: note_off channel=9 note=42 velocity=0 time=0.012254895833333333
EXTRACT: note_off channel=3 note=55 velocity=0 time=0.073529375
EXTRACT: note_off channel=3 note=62 velocity=0 time=0
EXTRACT: note_off channel=2 note=77 velocity=0 time=0.01838234375
EXTRACT: note_off channel=11 note=48 velocity=0 time=0.03370096354166666
EXTRACT: note_off channel=11 note=55 velocity=0 time=0
EXTRACT: note_off channel=11 note=60 velocity=0 time=0
EXTRACT: note_off channel=11 note=62 velocity=0 time=0
EXTRACT: note_off channel=11 note=67 velocity=0 time=0
EXTRACT: note_off channel=12 note=48 velocity=0 time=0
EXTRACT: note_off channel=12 note=55 velocity=0 time=0
EXTRACT: note_off channel=12 note=60 velocity=0 time=0
EXTRACT: note_off channel=12 note=62 velocity=0 time=0
EXTRACT: note_off channel=12 note=67 velocity=0 time=0
EXTRACT: note_on channel=2 note=76 velocity=99 time=0.009191171875
EXTRACT: note_on channel=3 note=55 velocity=107 time=0
EXTRACT: note_on channel=3 note=62 velocity=99 time=0
EXTRACT: note_on channel=9 note=42 velocity=40 time=0
EXTRACT: note_on channel=11 note=48 velocity=92 time=0
EXTRACT: note_on channel=11 note=55 velocity=102 time=0
EXTRACT: note_on channel=11 note=60 velocity=102 time=0
EXTRACT: note_on channel=11 note=62 velocity=115 time=0
EXTRACT: note_on channel=11 note=67 velocity=101 time=0
EXTRACT: note_on channel=12 note=48 velocity=98 time=0
EXTRACT: note_on channel=12 note=55 velocity=102 time=0
EXTRACT: note_on channel=12 note=60 velocity=96 time=0
EXTRACT: note_on channel=12 note=62 velocity=109 time=0
EXTRACT: note_on channel=12 note=67 velocity=96 time=0
EXTRACT: note_off channel=9 note=42 velocity=0 time=0.012254895833333333
EXTRACT: note_off channel=3 note=55 velocity=0 time=0.073529375
EXTRACT: note_off channel=3 note=62 velocity=0 time=0
EXTRACT: note_off channel=0 note=36 velocity=0 time=0.01838234375
EXTRACT: note_on channel=0 note=36 velocity=120 time=0.042892135416666664
EXTRACT: note_on channel=3 note=55 velocity=109 time=0
EXTRACT: note_on channel=3 note=62 velocity=93 time=0
EXTRACT: note_on channel=9 note=40 velocity=120 time=0
EXTRACT: note_on channel=9 note=42 velocity=104 time=0
EXTRACT: note_off channel=9 note=40 velocity=0 time=0.012254895833333333
EXTRACT: note_off channel=9 note=42 velocity=0 time=0
EXTRACT: note_off channel=3 note=55 velocity=0 time=0.073529375
EXTRACT: note_off channel=3 note=62 velocity=0 time=0
EXTRACT: note_off channel=11 note=48 velocity=0 time=0.052083307291666665
EXTRACT: note_off channel=11 note=55 velocity=0 time=0
EXTRACT: note_off channel=11 note=60 velocity=0 time=0
EXTRACT: note_off channel=11 note=62 velocity=0 time=0
EXTRACT: note_off channel=11 note=67 velocity=0 time=0
EXTRACT: note_off channel=12 note=48 velocity=0 time=0
EXTRACT: note_off channel=12 note=55 velocity=0 time=0
EXTRACT: note_off channel=12 note=60 velocity=0 time=0
EXTRACT: note_off channel=12 note=62 velocity=0 time=0
EXTRACT: note_off channel=12 note=67 velocity=0 time=0
EXTRACT: note_on channel=3 note=55 velocity=118 time=0.009191171875
EXTRACT: note_on channel=3 note=62 velocity=105 time=0
EXTRACT: note_on channel=9 note=42 velocity=43 time=0
EXTRACT: note_on channel=11 note=48 velocity=93 time=0
EXTRACT: note_on channel=11 note=55 velocity=75 time=0
EXTRACT: note_on channel=11 note=60 velocity=76 time=0
EXTRACT: note_on channel=11 note=62 velocity=87 time=0
EXTRACT: note_on channel=11 note=67 velocity=83 time=0
EXTRACT: note_on channel=12 note=48 velocity=91 time=0
EXTRACT: note_on channel=12 note=55 velocity=80 time=0
EXTRACT: note_on channel=12 note=60 velocity=82 time=0
EXTRACT: note_on channel=12 note=62 velocity=84 time=0
EXTRACT: note_on channel=12 note=67 velocity=79 time=0
EXTRACT: note_off channel=9 note=42 velocity=0 time=0.012254895833333333
EXTRACT: note_off channel=3 note=55 velocity=0 time=0.073529375
EXTRACT: note_off channel=3 note=62 velocity=0 time=0
EXTRACT: note_off channel=0 note=36 velocity=0 time=0.012254895833333333
EXTRACT: note_off channel=11 note=48 velocity=0 time=0.03982841145833333
EXTRACT: note_off channel=11 note=55 velocity=0 time=0
EXTRACT: note_off channel=11 note=60 velocity=0 time=0
EXTRACT: note_off channel=11 note=62 velocity=0 time=0
EXTRACT: note_off channel=11 note=67 velocity=0 time=0
EXTRACT: note_off channel=12 note=48 velocity=0 time=0
EXTRACT: note_off channel=12 note=55 velocity=0 time=0
EXTRACT: note_off channel=12 note=60 velocity=0 time=0
EXTRACT: note_off channel=12 note=62 velocity=0 time=0
EXTRACT: note_off channel=12 note=67 velocity=0 time=0
EXTRACT: note_on channel=0 note=36 velocity=122 time=0.009191171875
EXTRACT: note_on channel=3 note=55 velocity=111 time=0
EXTRACT: note_on channel=3 note=62 velocity=107 time=0
EXTRACT: note_on channel=9 note=42 velocity=44 time=0
EXTRACT: note_on channel=11 note=48 velocity=99 time=0
EXTRACT: note_on channel=11 note=55 velocity=103 time=0
EXTRACT: note_on channel=11 note=60 velocity=95 time=0
EXTRACT: note_on channel=11 note=62 velocity=104 time=0
EXTRACT: note_on channel=11 note=67 velocity=103 time=0
EXTRACT: note_on channel=12 note=48 velocity=97 time=0
EXTRACT: note_on channel=12 note=55 velocity=103 time=0
EXTRACT: note_on channel=12 note=60 velocity=99 time=0
EXTRACT: note_on channel=12 note=62 velocity=106 time=0
EXTRACT: note_on channel=12 note=67 velocity=97 time=0
EXTRACT: note_off channel=9 note=42 velocity=0 time=0.012254895833333333
EXTRACT: note_off channel=2 note=76 velocity=0 time=0.024509791666666666
EXTRACT: note_off channel=3 note=55 velocity=0 time=0.04901958333333333
EXTRACT: note_off channel=3 note=62 velocity=0 time=0
EXTRACT: note_off channel=0 note=36 velocity=0 time=0.0367646875
EXTRACT: note_on channel=0 note=36 velocity=110 time=0.024509791666666666
EXTRACT: note_on channel=9 note=36 velocity=112 time=0
EXTRACT: note_on channel=9 note=42 velocity=45 time=0
EXTRACT: note_off channel=9 note=36 velocity=0 time=0.012254895833333333
EXTRACT: note_off channel=9 note=42 velocity=0 time=0
EXTRACT: note_on channel=9 note=42 velocity=104 time=0.13480385416666665
EXTRACT: note_off channel=9 note=42 velocity=0 time=0.012254895833333333
EXTRACT: note_off channel=0 note=36 velocity=0 time=0.07659309895833333
EXTRACT: note_off channel=11 note=48 velocity=0 time=0.04901958333333333
EXTRACT: note_off channel=11 note=55 velocity=0 time=0
EXTRACT: note_off channel=11 note=60 velocity=0 time=0
EXTRACT: note_off channel=11 note=62 velocity=0 time=0
EXTRACT: note_off channel=11 note=67 velocity=0 time=0
EXTRACT: note_off channel=12 note=48 velocity=0 time=0
EXTRACT: note_off channel=12 note=55 velocity=0 time=0
EXTRACT: note_off channel=12 note=60 velocity=0 time=0
EXTRACT: note_off channel=12 note=62 velocity=0 time=0
EXTRACT: note_off channel=12 note=67 velocity=0 time=0
EXTRACT: note_on channel=0 note=36 velocity=118 time=0.009191171875
EXTRACT: note_on channel=9 note=36 velocity=55 time=0
EXTRACT: note_on channel=9 note=42 velocity=52 time=0
EXTRACT: note_on channel=11 note=48 velocity=97 time=0
EXTRACT: note_on channel=11 note=55 velocity=106 time=0
EXTRACT: note_on channel=11 note=60 velocity=103 time=0
EXTRACT: note_on channel=11 note=62 velocity=109 time=0
EXTRACT: note_on channel=11 note=67 velocity=100 time=0
EXTRACT: note_on channel=12 note=48 velocity=94 time=0
EXTRACT: note_on channel=12 note=55 velocity=104 time=0
EXTRACT: note_on channel=12 note=60 velocity=99 time=0
EXTRACT: note_on channel=12 note=62 velocity=109 time=0
EXTRACT: note_on channel=12 note=67 velocity=98 time=0
EXTRACT: note_off channel=9 note=36 velocity=0 time=0.012254895833333333
EXTRACT: note_off channel=9 note=42 velocity=0 time=0
EXTRACT: note_off channel=0 note=36 velocity=0 time=0.101102890625
EXTRACT: note_on channel=0 note=36 velocity=123 time=0.03370096354166666
EXTRACT: note_on channel=2 note=76 velocity=105 time=0
EXTRACT: note_on channel=9 note=36 velocity=115 time=0
EXTRACT: note_on channel=9 note=42 velocity=42 time=0
EXTRACT: note_off channel=9 note=36 velocity=0 time=0.012254895833333333
EXTRACT: note_off channel=9 note=42 velocity=0 time=0
EXTRACT: note_on channel=9 note=42 velocity=28 time=0.13480385416666665
EXTRACT: note_off channel=9 note=42 velocity=0 time=0.012254895833333333
EXTRACT: note_off channel=2 note=76 velocity=0 time=0.06740192708333333
EXTRACT: note_off channel=0 note=36 velocity=0 time=0.0367646875
EXTRACT: note_off channel=11 note=48 velocity=0 time=0.021446067708333332
EXTRACT: note_off channel=11 note=55 velocity=0 time=0
EXTRACT: note_off channel=11 note=60 velocity=0 time=0
EXTRACT: note_off channel=11 note=62 velocity=0 time=0
EXTRACT: note_off channel=11 note=67 velocity=0 time=0
EXTRACT: note_off channel=12 note=48 velocity=0 time=0
EXTRACT: note_off channel=12 note=55 velocity=0 time=0
EXTRACT: note_off channel=12 note=60 velocity=0 time=0
EXTRACT: note_off channel=12 note=62 velocity=0 time=0
EXTRACT: note_off channel=12 note=67 velocity=0 time=0
EXTRACT: note_off channel=7 note=72 velocity=0 time=0.0061274479166666665
EXTRACT: note_on channel=0 note=36 velocity=120 time=0.0030637239583333332
EXTRACT: note_on channel=2 note=77 velocity=108 time=0
EXTRACT: note_on channel=9 note=40 velocity=124 time=0
EXTRACT: note_on channel=9 note=42 velocity=104 time=0
EXTRACT: note_on channel=11 note=48 velocity=101 time=0
EXTRACT: note_on channel=11 note=55 velocity=107 time=0
EXTRACT: note_on channel=11 note=60 velocity=96 time=0
EXTRACT: note_on channel=11 note=62 velocity=116 time=0
EXTRACT: note_on channel=11 note=67 velocity=101 time=0
EXTRACT: note_on channel=12 note=48 velocity=104 time=0
EXTRACT: note_on channel=12 note=55 velocity=108 time=0
EXTRACT: note_on channel=12 note=60 velocity=96 time=0
EXTRACT: note_on channel=12 note=62 velocity=115 time=0
EXTRACT: note_on channel=12 note=67 velocity=100 time=0
EXTRACT: note_off channel=9 note=40 velocity=0 time=0.012254895833333333
EXTRACT: note_off channel=9 note=42 velocity=0 time=0
EXTRACT: note_on channel=9 note=42 velocity=48 time=0.13480385416666665
EXTRACT: note_off channel=9 note=42 velocity=0 time=0.012254895833333333
EXTRACT: note_off channel=0 note=36 velocity=0 time=0.08884799479166666
EXTRACT: note_off channel=2 note=77 velocity=0 time=0.009191171875
EXTRACT: note_off channel=11 note=48 velocity=0 time=0.027573515625
EXTRACT: note_off channel=11 note=55 velocity=0 time=0
EXTRACT: note_off channel=11 note=60 velocity=0 time=0
EXTRACT: note_off channel=11 note=62 velocity=0 time=0
EXTRACT: note_off channel=11 note=67 velocity=0 time=0
EXTRACT: note_off channel=12 note=48 velocity=0 time=0
EXTRACT: note_off channel=12 note=55 velocity=0 time=0
EXTRACT: note_off channel=12 note=60 velocity=0 time=0
EXTRACT: note_off channel=12 note=62 velocity=0 time=0
EXTRACT: note_off channel=12 note=67 velocity=0 time=0
EXTRACT: note_on channel=0 note=36 velocity=113 time=0.009191171875
EXTRACT: note_on channel=2 note=76 velocity=99 time=0
EXTRACT: note_on channel=9 note=42 velocity=37 time=0
EXTRACT: note_on channel=11 note=48 velocity=99 time=0
EXTRACT: note_on channel=11 note=55 velocity=98 time=0
EXTRACT: note_on channel=11 note=60 velocity=94 time=0
EXTRACT: note_on channel=11 note=62 velocity=100 time=0
EXTRACT: note_on channel=11 note=67 velocity=96 time=0
EXTRACT: note_on channel=12 note=48 velocity=95 time=0
EXTRACT: note_on channel=12 note=55 velocity=100 time=0
EXTRACT: note_on channel=12 note=60 velocity=89 time=0
EXTRACT: note_on channel=12 note=62 velocity=98 time=0
EXTRACT: note_on channel=12 note=67 velocity=96 time=0
EXTRACT: note_off channel=9 note=42 velocity=0 time=0.012254895833333333
EXTRACT: note_off channel=0 note=36 velocity=0 time=0.101102890625
EXTRACT: note_off channel=11 note=48 velocity=0 time=0.024509791666666666
EXTRACT: note_off channel=11 note=55 velocity=0 time=0
EXTRACT: note_off channel=11 note=60 velocity=0 time=0
EXTRACT: note_off channel=11 note=62 velocity=0 time=0
EXTRACT: note_off channel=11 note=67 velocity=0 time=0
EXTRACT: note_off channel=12 note=48 velocity=0 time=0
EXTRACT: note_off channel=12 note=55 velocity=0 time=0
EXTRACT: note_off channel=12 note=60 velocity=0 time=0
EXTRACT: note_off channel=12 note=62 velocity=0 time=0
EXTRACT: note_off channel=12 note=67 velocity=0 time=0
EXTRACT: note_on channel=0 note=36 velocity=118 time=0.009191171875
EXTRACT: note_on channel=9 note=36 velocity=56 time=0
EXTRACT: note_on channel=9 note=42 velocity=32 time=0
EXTRACT: note_on channel=11 note=48 velocity=79 time=0
EXTRACT: note_on channel=11 note=55 velocity=82 time=0
EXTRACT: note_on channel=11 note=60 velocity=76 time=0
EXTRACT: note_on channel=11 note=62 velocity=87 time=0
EXTRACT: note_on channel=11 note=67 velocity=69 time=0
EXTRACT: note_on channel=12 note=48 velocity=81 time=0
EXTRACT: note_on channel=12 note=55 velocity=80 time=0
EXTRACT: note_on channel=12 note=60 velocity=77 time=0
EXTRACT: note_on channel=12 note=62 velocity=92 time=0
EXTRACT: note_on channel=12 note=67 velocity=71 time=0
EXTRACT: note_off channel=9 note=36 velocity=0 time=0.012254895833333333
EXTRACT: note_off channel=9 note=42 velocity=0 time=0
EXTRACT: note_off channel=0 note=36 velocity=0 time=0.07965682291666666
EXTRACT: note_off channel=11 note=48 velocity=0 time=0.045955859375
EXTRACT: note_off channel=11 note=55 velocity=0 time=0
EXTRACT: note_off channel=11 note=60 velocity=0 time=0
EXTRACT: note_off channel=11 note=62 velocity=0 time=0
EXTRACT: note_off channel=11 note=67 velocity=0 time=0
EXTRACT: note_off channel=12 note=48 velocity=0 time=0
EXTRACT: note_off channel=12 note=55 velocity=0 time=0
EXTRACT: note_off channel=12 note=60 velocity=0 time=0
EXTRACT: note_off channel=12 note=62 velocity=0 time=0
EXTRACT: note_off channel=12 note=67 velocity=0 time=0
EXTRACT: note_on channel=0 note=36 velocity=119 time=0.009191171875
EXTRACT: note_on channel=3 note=55 velocity=120 time=0
EXTRACT: note_on channel=3 note=62 velocity=111 time=0
EXTRACT: note_on channel=9 note=36 velocity=112 time=0
EXTRACT: note_on channel=9 note=42 velocity=100 time=0
EXTRACT: note_on channel=11 note=48 velocity=97 time=0
EXTRACT: note_on channel=11 note=55 velocity=97 time=0
EXTRACT: note_on channel=11 note=60 velocity=95 time=0
EXTRACT: note_on channel=11 note=62 velocity=106 time=0
EXTRACT: note_on channel=11 note=67 velocity=102 time=0
EXTRACT: note_on channel=12 note=48 velocity=97 time=0
EXTRACT: note_on channel=12 note=55 velocity=94 time=0
EXTRACT: note_on channel=12 note=60 velocity=98 time=0
EXTRACT: note_on channel=12 note=62 velocity=104 time=0
EXTRACT: note_on channel=12 note=67 velocity=101 time=0
EXTRACT: note_off channel=9 note=36 velocity=0 time=0.012254895833333333
EXTRACT: note_off channel=9 note=42 velocity=0 time=0
EXTRACT: note_off channel=3 note=55 velocity=0 time=0.073529375
EXTRACT: note_off channel=3 note=62 velocity=0 time=0
EXTRACT: note_on channel=3 note=55 velocity=111 time=0.061274479166666666
EXTRACT: note_on channel=3 note=62 velocity=101 time=0
EXTRACT: note_on channel=9 note=42 velocity=23 time=0
EXTRACT: note_off channel=9 note=42 velocity=0 time=0.012254895833333333
EXTRACT: note_off channel=3 note=55 velocity=0 time=0.073529375
EXTRACT: note_off channel=3 note=62 velocity=0 time=0
EXTRACT: note_off channel=0 note=36 velocity=0 time=0.024509791666666666
EXTRACT: note_off channel=11 note=48 velocity=0 time=0.027573515625
EXTRACT: note_off channel=11 note=55 velocity=0 time=0
EXTRACT: note_off channel=11 note=60 velocity=0 time=0
EXTRACT: note_off channel=11 note=62 velocity=0 time=0
EXTRACT: note_off channel=11 note=67 velocity=0 time=0
EXTRACT: note_off channel=12 note=48 velocity=0 time=0
EXTRACT: note_off channel=12 note=55 velocity=0 time=0
EXTRACT: note_off channel=12 note=60 velocity=0 time=0
EXTRACT: note_off channel=12 note=62 velocity=0 time=0
EXTRACT: note_off channel=12 note=67 velocity=0 time=0
EXTRACT: note_on channel=0 note=36 velocity=127 time=0.009191171875
EXTRACT: note_on channel=3 note=55 velocity=109 time=0
EXTRACT: note_on channel=3 note=62 velocity=108 time=0
EXTRACT: note_on channel=9 note=36 velocity=58 time=0
EXTRACT: note_on channel=9 note=42 velocity=38 time=0
EXTRACT: note_on channel=11 note=48 velocity=87 time=0
EXTRACT: note_on channel=11 note=55 velocity=90 time=0
EXTRACT: note_on channel=11 note=60 velocity=69 time=0
EXTRACT: note_on channel=11 note=62 velocity=88 time=0
EXTRACT: note_on channel=11 note=67 velocity=74 time=0
EXTRACT: note_on channel=12 note=48 velocity=91 time=0
EXTRACT: note_on channel=12 note=55 velocity=90 time=0
EXTRACT: note_on channel=12 note=60 velocity=70 time=0
EXTRACT: note_on channel=12 note=62 velocity=84 time=0
EXTRACT: note_on channel=12 note=67 velocity=75 time=0
EXTRACT: note_off channel=9 note=36 velocity=0 time=0.012254895833333333
EXTRACT: note_off channel=9 note=42 velocity=0 time=0
EXTRACT: note_off channel=3 note=55 velocity=0 time=0.073529375
EXTRACT: note_off channel=3 note=62 velocity=0 time=0
EXTRACT: note_off channel=2 note=76 velocity=0 time=0.04901958333333333
EXTRACT: note_off channel=11 note=48 velocity=0 time=0.0030637239583333332
EXTRACT: note_off channel=11 note=55 velocity=0 time=0
EXTRACT: note_off channel=11 note=60 velocity=0 time=0
EXTRACT: note_off channel=11 note=62 velocity=0 time=0
EXTRACT: note_off channel=11 note=67 velocity=0 time=0
EXTRACT: note_off channel=12 note=48 velocity=0 time=0
EXTRACT: note_off channel=12 note=55 velocity=0 time=0
EXTRACT: note_off channel=12 note=60 velocity=0 time=0
EXTRACT: note_off channel=12 note=62 velocity=0 time=0
EXTRACT: note_off channel=12 note=67 velocity=0 time=0
EXTRACT: note_on channel=3 note=55 velocity=114 time=0.009191171875
EXTRACT: note_on channel=3 note=62 velocity=97 time=0
EXTRACT: note_on channel=9 note=42 velocity=35 time=0
EXTRACT: note_on channel=11 note=48 velocity=97 time=0
EXTRACT: note_on channel=11 note=55 velocity=95 time=0
EXTRACT: note_on channel=11 note=60 velocity=93 time=0
EXTRACT: note_on channel=11 note=62 velocity=108 time=0
EXTRACT: note_on channel=11 note=67 velocity=95 time=0
EXTRACT: note_on channel=12 note=48 velocity=94 time=0
EXTRACT: note_on channel=12 note=55 velocity=101 time=0
EXTRACT: note_on channel=12 note=60 velocity=98 time=0
EXTRACT: note_on channel=12 note=62 velocity=108 time=0
EXTRACT: note_on channel=12 note=67 velocity=93 time=0
EXTRACT: note_off channel=9 note=42 velocity=0 time=0.012254895833333333
EXTRACT: note_off channel=3 note=55 velocity=0 time=0.073529375
EXTRACT: note_off channel=3 note=62 velocity=0 time=0
EXTRACT: note_off channel=0 note=36 velocity=0 time=0.030637239583333333
EXTRACT: note_on channel=0 note=36 velocity=120 time=0.030637239583333333
EXTRACT: note_on channel=3 note=55 velocity=111 time=0
EXTRACT: note_on channel=3 note=62 velocity=107 time=0
EXTRACT: note_on channel=9 note=40 velocity=124 time=0
EXTRACT: note_on channel=9 note=42 velocity=99 time=0
EXTRACT: note_off channel=9 note=40 velocity=0 time=0.012254895833333333
EXTRACT: note_off channel=9 note=42 velocity=0 time=0
EXTRACT: note_off channel=3 note=55 velocity=0 time=0.073529375
EXTRACT: note_off channel=3 note=62 velocity=0 time=0
EXTRACT: note_off channel=11 note=48 velocity=0 time=0.052083307291666665
EXTRACT: note_off channel=11 note=55 velocity=0 time=0
EXTRACT: note_off channel=11 note=60 velocity=0 time=0
EXTRACT: note_off channel=11 note=62 velocity=0 time=0
EXTRACT: note_off channel=11 note=67 velocity=0 time=0
EXTRACT: note_off channel=12 note=48 velocity=0 time=0
EXTRACT: note_off channel=12 note=55 velocity=0 time=0
EXTRACT: note_off channel=12 note=60 velocity=0 time=0
EXTRACT: note_off channel=12 note=62 velocity=0 time=0
EXTRACT: note_off channel=12 note=67 velocity=0 time=0
EXTRACT: note_on channel=3 note=55 velocity=108 time=0.009191171875
EXTRACT: note_on channel=3 note=62 velocity=104 time=0
EXTRACT: note_on channel=9 note=42 velocity=48 time=0
EXTRACT: note_on channel=11 note=48 velocity=86 time=0
EXTRACT: note_on channel=11 note=55 velocity=83 time=0
EXTRACT: note_on channel=11 note=60 velocity=71 time=0
EXTRACT: note_on channel=11 note=62 velocity=86 time=0
EXTRACT: note_on channel=11 note=67 velocity=61 time=0
EXTRACT: note_on channel=12 note=48 velocity=84 time=0
EXTRACT: note_on channel=12 note=55 velocity=84 time=0
EXTRACT: note_on channel=12 note=60 velocity=74 time=0
EXTRACT: note_on channel=12 note=62 velocity=91 time=0
EXTRACT: note_on channel=12 note=67 velocity=60 time=0
EXTRACT: note_off channel=9 note=42 velocity=0 time=0.012254895833333333
EXTRACT: note_off channel=3 note=55 velocity=0 time=0.073529375
EXTRACT: note_off channel=3 note=62 velocity=0 time=0
EXTRACT: note_off channel=0 note=36 velocity=0 time=0.009191171875
EXTRACT: note_off channel=11 note=48 velocity=0 time=0.042892135416666664
EXTRACT: note_off channel=11 note=55 velocity=0 time=0
EXTRACT: note_off channel=11 note=60 velocity=0 time=0
EXTRACT: note_off channel=11 note=62 velocity=0 time=0
EXTRACT: note_off channel=11 note=67 velocity=0 time=0
EXTRACT: note_off channel=12 note=48 velocity=0 time=0
EXTRACT: note_off channel=12 note=55 velocity=0 time=0
EXTRACT: note_off channel=12 note=60 velocity=0 time=0
EXTRACT: note_off channel=12 note=62 velocity=0 time=0
EXTRACT: note_off channel=12 note=67 velocity=0 time=0
EXTRACT: note_on channel=0 note=36 velocity=116 time=0.009191171875
EXTRACT: note_on channel=3 note=55 velocity=126 time=0
EXTRACT: note_on channel=3 note=62 velocity=113 time=0
EXTRACT: note_on channel=9 note=42 velocity=37 time=0
EXTRACT: note_on channel=11 note=48 velocity=101 time=0
EXTRACT: note_on channel=11 note=55 velocity=108 time=0
EXTRACT: note_on channel=11 note=60 velocity=99 time=0
EXTRACT: note_on channel=11 note=62 velocity=111 time=0
EXTRACT: note_on channel=11 note=67 velocity=101 time=0
EXTRACT: note_on channel=12 note=48 velocity=99 time=0
EXTRACT: note_on channel=12 note=55 velocity=112 time=0
EXTRACT: note_on channel=12 note=60 velocity=96 time=0
EXTRACT: note_on channel=12 note=62 velocity=106 time=0
EXTRACT: note_on channel=12 note=67 velocity=99 time=0
EXTRACT: note_off channel=9 note=42 velocity=0 time=0.012254895833333333
EXTRACT: note_off channel=3 note=55 velocity=0 time=0.073529375
EXTRACT: note_off channel=3 note=62 velocity=0 time=0
EXTRACT: note_off channel=0 note=36 velocity=0 time=0.030637239583333333
EXTRACT: note_on channel=0 note=36 velocity=123 time=0.030637239583333333
EXTRACT: note_on channel=9 note=36 velocity=115 time=0
EXTRACT: note_on channel=9 note=42 velocity=36 time=0
EXTRACT: note_off channel=9 note=36 velocity=0 time=0.012254895833333333
EXTRACT: note_off channel=9 note=42 velocity=0 time=0
EXTRACT: note_on channel=9 note=42 velocity=97 time=0.13480385416666665
EXTRACT: note_off channel=9 note=42 velocity=0 time=0.012254895833333333
EXTRACT: note_off channel=0 note=36 velocity=0 time=0.07965682291666666
EXTRACT: note_off channel=11 note=48 velocity=0 time=0.045955859375
EXTRACT: note_off channel=11 note=55 velocity=0 time=0
EXTRACT: note_off channel=11 note=60 velocity=0 time=0
EXTRACT: note_off channel=11 note=62 velocity=0 time=0
EXTRACT: note_off channel=11 note=67 velocity=0 time=0
EXTRACT: note_off channel=12 note=48 velocity=0 time=0
EXTRACT: note_off channel=12 note=55 velocity=0 time=0
EXTRACT: note_off channel=12 note=60 velocity=0 time=0
EXTRACT: note_off channel=12 note=62 velocity=0 time=0
EXTRACT: note_off channel=12 note=67 velocity=0 time=0
EXTRACT: note_on channel=0 note=36 velocity=118 time=0.009191171875
EXTRACT: note_on channel=9 note=36 velocity=60 time=0
EXTRACT: note_on channel=9 note=42 velocity=43 time=0
EXTRACT: note_on channel=11 note=48 velocity=105 time=0
EXTRACT: note_on channel=11 note=55 velocity=107 time=0
EXTRACT: note_on channel=11 note=60 velocity=98 time=0
EXTRACT: note_on channel=11 note=62 velocity=108 time=0
EXTRACT: note_on channel=11 note=67 velocity=103 time=0
EXTRACT: note_on channel=12 note=48 velocity=105 time=0
EXTRACT: note_on channel=12 note=55 velocity=108 time=0
EXTRACT: note_on channel=12 note=60 velocity=94 time=0
EXTRACT: note_on channel=12 note=62 velocity=104 time=0
EXTRACT: note_on channel=12 note=67 velocity=96 time=0
EXTRACT: note_off channel=9 note=36 velocity=0 time=0.012254895833333333
EXTRACT: note_off channel=9 note=42 velocity=0 time=0
EXTRACT: note_off channel=0 note=36 velocity=0 time=0.10723033854166666
EXTRACT: note_on channel=0 note=36 velocity=117 time=0.027573515625
EXTRACT: note_on channel=9 note=36 velocity=120 time=0
EXTRACT: note_on channel=9 note=46 velocity=103 time=0
EXTRACT: note_off channel=9 note=36 velocity=0 time=0.012254895833333333
EXTRACT: note_off channel=9 note=46 velocity=0 time=0
EXTRACT: note_on channel=9 note=40 velocity=53 time=0.13480385416666665
EXTRACT: note_off channel=9 note=40 velocity=0 time=0.012254895833333333
EXTRACT: note_on channel=9 note=40 velocity=51 time=0.061274479166666666
EXTRACT: note_off channel=9 note=40 velocity=0 time=0.012254895833333333
EXTRACT: note_off channel=0 note=36 velocity=0 time=0.01838234375
EXTRACT: note_off channel=11 note=48 velocity=0 time=0.03370096354166666
EXTRACT: note_off channel=11 note=55 velocity=0 time=0
EXTRACT: note_off channel=11 note=60 velocity=0 time=0
EXTRACT: note_off channel=11 note=62 velocity=0 time=0
EXTRACT: note_off channel=11 note=67 velocity=0 time=0
EXTRACT: note_off channel=12 note=48 velocity=0 time=0
EXTRACT: note_off channel=12 note=55 velocity=0 time=0
EXTRACT: note_off channel=12 note=60 velocity=0 time=0
EXTRACT: note_off channel=12 note=62 velocity=0 time=0
EXTRACT: note_off channel=12 note=67 velocity=0 time=0
EXTRACT: control_change channel=4 control=84 value=70 time=0.0030637239583333332
EXTRACT: control_change channel=5 control=84 value=66 time=0
EXTRACT: control_change channel=4 control=5 value=74 time=0.0030637239583333332
EXTRACT: control_change channel=5 control=5 value=74 time=0
EXTRACT: note_on channel=0 note=36 velocity=122 time=0.0030637239583333332
EXTRACT: note_on channel=4 note=76 velocity=109 time=0
EXTRACT: note_on channel=5 note=72 velocity=114 time=0
EXTRACT: note_on channel=9 note=36 velocity=96 time=0
EXTRACT: note_on channel=9 note=40 velocity=117 time=0
EXTRACT: note_on channel=9 note=42 velocity=105 time=0
EXTRACT: note_on channel=11 note=48 velocity=100 time=0
EXTRACT: note_on channel=11 note=55 velocity=108 time=0
EXTRACT: note_on channel=11 note=60 velocity=97 time=0
EXTRACT: note_on channel=11 note=62 velocity=108 time=0
EXTRACT: note_on channel=11 note=67 velocity=97 time=0
EXTRACT: note_on channel=12 note=48 velocity=98 time=0
EXTRACT: note_on channel=12 note=55 velocity=106 time=0
EXTRACT: note_on channel=12 note=60 velocity=98 time=0
EXTRACT: note_on channel=12 note=62 velocity=110 time=0
EXTRACT: note_on channel=12 note=67 velocity=101 time=0
EXTRACT: note_off channel=9 note=36 velocity=0 time=0.012254895833333333
EXTRACT: note_off channel=9 note=40 velocity=0 time=0
EXTRACT: note_off channel=9 note=42 velocity=0 time=0
EXTRACT: note_on channel=9 note=40 velocity=116 time=0.13480385416666665
EXTRACT: note_on channel=9 note=42 velocity=52 time=0
EXTRACT: note_off channel=9 note=40 velocity=0 time=0.012254895833333333
EXTRACT: note_off channel=9 note=42 velocity=0 time=0
EXTRACT: note_off channel=0 note=36 velocity=0 time=0.082720546875
EXTRACT: note_off channel=11 note=48 velocity=0 time=0.042892135416666664
EXTRACT: note_off channel=11 note=55 velocity=0 time=0
EXTRACT: note_off channel=11 note=60 velocity=0 time=0
EXTRACT: note_off channel=11 note=62 velocity=0 time=0
EXTRACT: note_off channel=11 note=67 velocity=0 time=0
EXTRACT: note_off channel=12 note=48 velocity=0 time=0
EXTRACT: note_off channel=12 note=55 velocity=0 time=0
EXTRACT: note_off channel=12 note=60 velocity=0 time=0
EXTRACT: note_off channel=12 note=62 velocity=0 time=0
EXTRACT: note_off channel=12 note=67 velocity=0 time=0
EXTRACT: note_on channel=0 note=36 velocity=120 time=0.009191171875
EXTRACT: note_on channel=9 note=36 velocity=105 time=0
EXTRACT: note_on channel=9 note=40 velocity=56 time=0
EXTRACT: note_on channel=9 note=46 velocity=106 time=0
EXTRACT: note_on channel=11 note=48 velocity=97 time=0
EXTRACT: note_on channel=11 note=55 velocity=103 time=0
EXTRACT: note_on channel=11 note=60 velocity=105 time=0
EXTRACT: note_on channel=11 note=62 velocity=109 time=0
EXTRACT: note_on channel=11 note=67 velocity=96 time=0
EXTRACT: note_on channel=12 note=48 velocity=100 time=0
EXTRACT: note_on channel=12 note=55 velocity=99 time=0
EXTRACT: note_on channel=12 note=60 velocity=103 time=0
EXTRACT: note_on channel=12 note=62 velocity=110 time=0
EXTRACT: note_on channel=12 note=67 velocity=103 time=0
EXTRACT: note_off channel=9 note=36 velocity=0 time=0.012254895833333333
EXTRACT: note_off channel=9 note=40 velocity=0 time=0
EXTRACT: note_off channel=9 note=46 velocity=0 time=0
EXTRACT: note_off channel=0 note=36 velocity=0 time=0.119485234375
EXTRACT: note_off channel=11 note=48 velocity=0 time=0.0061274479166666665
EXTRACT: note_off channel=11 note=55 velocity=0 time=0
EXTRACT: note_off channel=11 note=60 velocity=0 time=0
EXTRACT: note_off channel=11 note=62 velocity=0 time=0
EXTRACT: note_off channel=11 note=67 velocity=0 time=0
EXTRACT: note_off channel=12 note=48 velocity=0 time=0
EXTRACT: note_off channel=12 note=55 velocity=0 time=0
EXTRACT: note_off channel=12 note=60 velocity=0 time=0
EXTRACT: note_off channel=12 note=62 velocity=0 time=0
EXTRACT: note_off channel=12 note=67 velocity=0 time=0
EXTRACT: note_on channel=0 note=36 velocity=118 time=0.009191171875
EXTRACT: note_on channel=9 note=40 velocity=103 time=0
EXTRACT: note_on channel=11 note=48 velocity=73 time=0
EXTRACT: note_on channel=11 note=55 velocity=78 time=0
EXTRACT: note_on channel=11 note=60 velocity=74 time=0
EXTRACT: note_on channel=11 note=62 velocity=84 time=0
EXTRACT: note_on channel=11 note=67 velocity=84 time=0
EXTRACT: note_on channel=12 note=48 velocity=78 time=0
EXTRACT: note_on channel=12 note=55 velocity=80 time=0
EXTRACT: note_on channel=12 note=60 velocity=70 time=0
EXTRACT: note_on channel=12 note=62 velocity=89 time=0
EXTRACT: note_on channel=12 note=67 velocity=85 time=0
EXTRACT: note_off channel=9 note=40 velocity=0 time=0.012254895833333333
EXTRACT: note_off channel=1 note=67 velocity=0 time=0.1102940625
EXTRACT: note_off channel=1 note=71 velocity=0 time=0
EXTRACT: note_on channel=1 note=69 velocity=97 time=0.009191171875
EXTRACT: note_on channel=1 note=72 velocity=101 time=0
EXTRACT: note_off channel=0 note=36 velocity=0 time=0.0061274479166666665
EXTRACT: note_off channel=11 note=48 velocity=0 time=0
EXTRACT: note_off channel=11 note=55 velocity=0 time=0
EXTRACT: note_off channel=11 note=60 velocity=0 time=0
EXTRACT: note_off channel=11 note=62 velocity=0 time=0
EXTRACT: note_off channel=11 note=67 velocity=0 time=0
EXTRACT: note_off channel=12 note=48 velocity=0 time=0
EXTRACT: note_off channel=12 note=55 velocity=0 time=0
EXTRACT: note_off channel=12 note=60 velocity=0 time=0
EXTRACT: note_off channel=12 note=62 velocity=0 time=0
EXTRACT: note_off channel=12 note=67 velocity=0 time=0
EXTRACT: note_on channel=0 note=29 velocity=125 time=0.009191171875
EXTRACT: note_on channel=2 note=79 velocity=107 time=0
EXTRACT: note_on channel=9 note=36 velocity=119 time=0
EXTRACT: note_on channel=9 note=42 velocity=111 time=0
EXTRACT: note_on channel=10 note=62 velocity=104 time=0
EXTRACT: note_on channel=11 note=53 velocity=96 time=0
EXTRACT: note_on channel=11 note=57 velocity=96 time=0
EXTRACT: note_on channel=11 note=60 velocity=98 time=0
EXTRACT: note_on channel=11 note=64 velocity=111 time=0
EXTRACT: note_on channel=11 note=69 velocity=99 time=0
EXTRACT: note_on channel=12 note=53 velocity=94 time=0
EXTRACT: note_on channel=12 note=57 velocity=101 time=0
EXTRACT: note_on channel=12 note=60 velocity=98 time=0
EXTRACT: note_on channel=12 note=64 velocity=112 time=0
EXTRACT: note_on channel=12 note=69 velocity=97 time=0
EXTRACT: note_off channel=9 note=36 velocity=0 time=0.012254895833333333
EXTRACT: note_off channel=9 note=42 velocity=0 time=0
EXTRACT: note_off channel=2 note=79 velocity=0 time=0.08578427083333333
EXTRACT: note_on channel=2 note=79 velocity=108 time=0.04901958333333333
EXTRACT: note_on channel=9 note=42 velocity=44 time=0
EXTRACT: note_off channel=9 note=42 velocity=0 time=0.012254895833333333
EXTRACT: note_off channel=0 note=29 velocity=0 time=0.04901958333333333
EXTRACT: note_off channel=10 note=62 velocity=0 time=0.045955859375
EXTRACT: note_off channel=2 note=79 velocity=0 time=0.0061274479166666665
EXTRACT: note_off channel=11 note=53 velocity=0 time=0.024509791666666666
EXTRACT: note_off channel=11 note=57 velocity=0 time=0
EXTRACT: note_off channel=11 note=60 velocity=0 time=0
EXTRACT: note_off channel=11 note=64 velocity=0 time=0
EXTRACT: note_off channel=11 note=69 velocity=0 time=0
EXTRACT: note_off channel=12 note=53 velocity=0 time=0
EXTRACT: note_off channel=12 note=57 velocity=0 time=0
EXTRACT: note_off channel=12 note=60 velocity=0 time=0
EXTRACT: note_off channel=12 note=64 velocity=0 time=0
EXTRACT: note_off channel=12 note=69 velocity=0 time=0
EXTRACT: note_on channel=0 note=29 velocity=119 time=0.009191171875
EXTRACT: note_on channel=2 note=79 velocity=104 time=0
EXTRACT: note_on channel=9 note=42 velocity=49 time=0
EXTRACT: note_on channel=10 note=60 velocity=120 time=0
EXTRACT: note_on channel=11 note=53 velocity=84 time=0
EXTRACT: note_on channel=11 note=57 velocity=85 time=0
EXTRACT: note_on channel=11 note=60 velocity=71 time=0
EXTRACT: note_on channel=11 note=64 velocity=78 time=0
EXTRACT: note_on channel=11 note=69 velocity=83 time=0
EXTRACT: note_on channel=12 note=53 velocity=79 time=0
EXTRACT: note_on channel=12 note=57 velocity=88 time=0
EXTRACT: note_on channel=12 note=60 velocity=73 time=0
EXTRACT: note_on channel=12 note=64 velocity=75 time=0
EXTRACT: note_on channel=12 note=69 velocity=79 time=0
EXTRACT: note_off channel=9 note=42 velocity=0 time=0.012254895833333333
EXTRACT: note_off channel=2 note=79 velocity=0 time=0.07965682291666666
EXTRACT: note_off channel=11 note=53 velocity=0 time=0.045955859375
EXTRACT: note_off channel=11 note=57 velocity=0 time=0
EXTRACT: note_off channel=11 note=60 velocity=0 time=0
EXTRACT: note_off channel=11 note=64 velocity=0 time=0
EXTRACT: note_off channel=11 note=69 velocity=0 time=0
EXTRACT: note_off channel=12 note=53 velocity=0 time=0
EXTRACT: note_off channel=12 note=57 velocity=0 time=0
EXTRACT: note_off channel=12 note=60 velocity=0 time=0
EXTRACT: note_off channel=12 note=64 velocity=0 time=0
EXTRACT: note_off channel=12 note=69 velocity=0 time=0
EXTRACT: note_on channel=2 note=79 velocity=91 time=0.009191171875
EXTRACT: note_on channel=9 note=42 velocity=45 time=0
EXTRACT: note_on channel=11 note=53 velocity=90 time=0
EXTRACT: note_on channel=11 note=57 velocity=95 time=0
EXTRACT: note_on channel=11 note=60 velocity=99 time=0
EXTRACT: note_on channel=11 note=64 velocity=110 time=0
EXTRACT: note_on channel=11 note=69 velocity=102 time=0
EXTRACT: note_on channel=12 note=53 velocity=90 time=0
EXTRACT: note_on channel=12 note=57 velocity=99 time=0
EXTRACT: note_on channel=12 note=60 velocity=97 time=0
EXTRACT: note_on channel=12 note=64 velocity=109 time=0
EXTRACT: note_on channel=12 note=69 velocity=96 time=0
EXTRACT: note_off channel=9 note=42 velocity=0 time=0.012254895833333333
EXTRACT: note_off channel=10 note=60 velocity=0 time=0.073529375
EXTRACT: note_off channel=0 note=29 velocity=0 time=0.009191171875
EXTRACT: note_off channel=2 note=79 velocity=0 time=0.009191171875
EXTRACT: note_on channel=0 note=29 velocity=127 time=0.042892135416666664
EXTRACT: note_on channel=2 note=79 velocity=102 time=0
EXTRACT: note_on channel=9 note=40 velocity=127 time=0
EXTRACT: note_on channel=9 note=42 velocity=103 time=0
EXTRACT: note_on channel=10 note=55 velocity=103 time=0
EXTRACT: note_off channel=9 note=40 velocity=0 time=0.012254895833333333
EXTRACT: note_off channel=9 note=42 velocity=0 time=0
EXTRACT: note_off channel=2 note=79 velocity=0 time=0.082720546875
EXTRACT: note_off channel=11 note=53 velocity=0 time=0.042892135416666664
EXTRACT: note_off channel=11 note=57 velocity=0 time=0
EXTRACT: note_off channel=11 note=60 velocity=0 time=0
EXTRACT: note_off channel=11 note=64 velocity=0 time=0
EXTRACT: note_off channel=11 note=69 velocity=0 time=0
EXTRACT: note_off channel=12 note=53 velocity=0 time=0
EXTRACT: note_off channel=12 note=57 velocity=0 time=0
EXTRACT: note_off channel=12 note=60 velocity=0 time=0
EXTRACT: note_off channel=12 note=64 velocity=0 time=0
EXTRACT: note_off channel=12 note=69 velocity=0 time=0
EXTRACT: note_on channel=2 note=79 velocity=96 time=0.009191171875
EXTRACT: note_on channel=9 note=42 velocity=44 time=0
EXTRACT: note_on channel=11 note=53 velocity=84 time=0
EXTRACT: note_on channel=11 note=57 velocity=89 time=0
EXTRACT: note_on channel=11 note=60 velocity=73 time=0
EXTRACT: note_on channel=11 note=64 velocity=88 time=0
EXTRACT: note_on channel=11 note=69 velocity=88 time=0
EXTRACT: note_on channel=12 note=53 velocity=81 time=0
EXTRACT: note_on channel=12 note=57 velocity=86 time=0
EXTRACT: note_on channel=12 note=60 velocity=76 time=0
EXTRACT: note_on channel=12 note=64 velocity=85 time=0
EXTRACT: note_on channel=12 note=69 velocity=87 time=0
EXTRACT: note_off channel=9 note=42 velocity=0 time=0.012254895833333333
EXTRACT: note_off channel=2 note=79 velocity=0 time=0.07659309895833333
EXTRACT: note_off channel=0 note=29 velocity=0 time=0.0061274479166666665
EXTRACT: note_off channel=10 note=55 velocity=0 time=0.012254895833333333
EXTRACT: note_off channel=11 note=53 velocity=0 time=0.030637239583333333
EXTRACT: note_off channel=11 note=57 velocity=0 time=0
EXTRACT: note_off channel=11 note=60 velocity=0 time=0
EXTRACT: note_off channel=11 note=64 velocity=0 time=0
EXTRACT: note_off channel=11 note=69 velocity=0 time=0
EXTRACT: note_off channel=12 note=53 velocity=0 time=0
EXTRACT: note_off channel=12 note=57 velocity=0 time=0
EXTRACT: note_off channel=12 note=60 velocity=0 time=0
EXTRACT: note_off channel=12 note=64 velocity=0 time=0
EXTRACT: note_off channel=12 note=69 velocity=0 time=0
EXTRACT: note_on channel=0 note=29 velocity=114 time=0.009191171875
EXTRACT: note_on channel=2 note=79 velocity=102 time=0
EXTRACT: note_on channel=9 note=42 velocity=46 time=0
EXTRACT: note_on channel=10 note=53 velocity=114 time=0
EXTRACT: note_on channel=11 note=53 velocity=99 time=0
EXTRACT: note_on channel=11 note=57 velocity=104 time=0
EXTRACT: note_on channel=11 note=60 velocity=92 time=0
EXTRACT: note_on channel=11 note=64 velocity=100 time=0
EXTRACT: note_on channel=11 note=69 velocity=103 time=0
EXTRACT: note_on channel=12 note=53 velocity=102 time=0
EXTRACT: note_on channel=12 note=57 velocity=104 time=0
EXTRACT: note_on channel=12 note=60 velocity=96 time=0
EXTRACT: note_on channel=12 note=64 velocity=97 time=0
EXTRACT: note_on channel=12 note=69 velocity=100 time=0
EXTRACT: note_off channel=9 note=42 velocity=0 time=0.012254895833333333
EXTRACT: note_off channel=2 note=79 velocity=0 time=0.082720546875
EXTRACT: note_off channel=0 note=29 velocity=0 time=0.03982841145833333
EXTRACT: note_on channel=0 note=29 velocity=119 time=0.012254895833333333
EXTRACT: note_on channel=2 note=79 velocity=111 time=0
EXTRACT: note_on channel=9 note=36 velocity=120 time=0
EXTRACT: note_on channel=9 note=42 velocity=42 time=0
EXTRACT: note_off channel=9 note=36 velocity=0 time=0.012254895833333333
EXTRACT: note_off channel=9 note=42 velocity=0 time=0
EXTRACT: note_off channel=2 note=79 velocity=0 time=0.06740192708333333
EXTRACT: note_on channel=2 note=79 velocity=105 time=0.06740192708333333
EXTRACT: note_on channel=9 note=42 velocity=102 time=0
EXTRACT: note_off channel=9 note=42 velocity=0 time=0.012254895833333333
EXTRACT: note_off channel=0 note=29 velocity=0 time=0.082720546875
EXTRACT: note_off channel=11 note=53 velocity=0 time=0.042892135416666664
EXTRACT: note_off channel=11 note=57 velocity=0 time=0
EXTRACT: note_off channel=11 note=60 velocity=0 time=0
EXTRACT: note_off channel=11 note=64 velocity=0 time=0
EXTRACT: note_off channel=11 note=69 velocity=0 time=0
EXTRACT: note_off channel=12 note=53 velocity=0 time=0
EXTRACT: note_off channel=12 note=57 velocity=0 time=0
EXTRACT: note_off channel=12 note=60 velocity=0 time=0
EXTRACT: note_off channel=12 note=64 velocity=0 time=0
EXTRACT: note_off channel=12 note=69 velocity=0 time=0
EXTRACT: note_on channel=0 note=29 velocity=117 time=0.009191171875
EXTRACT: note_on channel=9 note=36 velocity=55 time=0
EXTRACT: note_on channel=9 note=42 velocity=50 time=0
EXTRACT: note_on channel=11 note=53 velocity=93 time=0
EXTRACT: note_on channel=11 note=57 velocity=101 time=0
EXTRACT: note_on channel=11 note=60 velocity=100 time=0
EXTRACT: note_on channel=11 note=64 velocity=102 time=0
EXTRACT: note_on channel=11 note=69 velocity=98 time=0
EXTRACT: note_on channel=12 note=53 velocity=97 time=0
EXTRACT: note_on channel=12 note=57 velocity=103 time=0
EXTRACT: note_on channel=12 note=60 velocity=102 time=0
EXTRACT: note_on channel=12 note=64 velocity=108 time=0
EXTRACT: note_on channel=12 note=69 velocity=98 time=0
EXTRACT: note_off channel=9 note=36 velocity=0 time=0.012254895833333333
EXTRACT: note_off channel=9 note=42 velocity=0 time=0
EXTRACT: note_off channel=2 note=79 velocity=0 time=0.061274479166666666
EXTRACT: note_off channel=0 note=29 velocity=0 time=0.052083307291666665
EXTRACT: note_on channel=0 note=29 velocity=120 time=0.021446067708333332
EXTRACT: note_on channel=2 note=79 velocity=116 time=0
EXTRACT: note_on channel=9 note=36 velocity=115 time=0
EXTRACT: note_on channel=9 note=42 velocity=43 time=0
EXTRACT: note_off channel=9 note=36 velocity=0 time=0.012254895833333333
EXTRACT: note_off channel=9 note=42 velocity=0 time=0
EXTRACT: note_on channel=9 note=42 velocity=28 time=0.13480385416666665
EXTRACT: note_off channel=9 note=42 velocity=0 time=0.012254895833333333
EXTRACT: note_off channel=2 note=79 velocity=0 time=0.082720546875
EXTRACT: note_off channel=0 note=29 velocity=0 time=0.027573515625
EXTRACT: note_off channel=4 note=76 velocity=0 time=0.015318619791666667
EXTRACT: note_off channel=5 note=72 velocity=0 time=0
EXTRACT: note_off channel=11 note=53 velocity=0 time=0
EXTRACT: note_off channel=11 note=57 velocity=0 time=0
EXTRACT: note_off channel=11 note=60 velocity=0 time=0
EXTRACT: note_off channel=11 note=64 velocity=0 time=0
EXTRACT: note_off channel=11 note=69 velocity=0 time=0
EXTRACT: note_off channel=12 note=53 velocity=0 time=0
EXTRACT: note_off channel=12 note=57 velocity=0 time=0
EXTRACT: note_off channel=12 note=60 velocity=0 time=0
EXTRACT: note_off channel=12 note=64 velocity=0 time=0
EXTRACT: note_off channel=12 note=69 velocity=0 time=0
EXTRACT: note_on channel=0 note=29 velocity=119 time=0.009191171875
EXTRACT: note_on channel=2 note=81 velocity=114 time=0
EXTRACT: note_on channel=9 note=40 velocity=125 time=0
EXTRACT: note_on channel=9 note=42 velocity=102 time=0
EXTRACT: note_on channel=11 note=53 velocity=97 time=0
EXTRACT: note_on channel=11 note=57 velocity=100 time=0
EXTRACT: note_on channel=11 note=60 velocity=95 time=0
EXTRACT: note_on channel=11 note=64 velocity=105 time=0
EXTRACT: note_on channel=11 note=69 velocity=100 time=0
EXTRACT: note_on channel=12 note=53 velocity=98 time=0
EXTRACT: note_on channel=12 note=57 velocity=102 time=0
EXTRACT: note_on channel=12 note=60 velocity=94 time=0
EXTRACT: note_on channel=12 note=64 velocity=105 time=0
EXTRACT: note_on channel=12 note=69 velocity=98 time=0
EXTRACT: note_off channel=9 note=40 velocity=0 time=0.012254895833333333
EXTRACT: note_off channel=9 note=42 velocity=0 time=0
EXTRACT: note_on channel=9 note=42 velocity=46 time=0.13480385416666665
EXTRACT: note_off channel=9 note=42 velocity=0 time=0.012254895833333333
EXTRACT: note_off channel=0 note=29 velocity=0 time=0.07965682291666666
EXTRACT: note_off channel=2 note=81 velocity=0 time=0.0061274479166666665
EXTRACT: note_off channel=11 note=53 velocity=0 time=0.03982841145833333
EXTRACT: note_off channel=11 note=57 velocity=0 time=0
EXTRACT: note_off channel=11 note=60 velocity=0 time=0
EXTRACT: note_off channel=11 note=64 velocity=0 time=0
EXTRACT: note_off channel=11 note=69 velocity=0 time=0
EXTRACT: note_off channel=12 note=53 velocity=0 time=0
EXTRACT: note_off channel=12 note=57 velocity=0 time=0
EXTRACT: note_off channel=12 note=60 velocity=0 time=0
EXTRACT: note_off channel=12 note=64 velocity=0 time=0
EXTRACT: note_off channel=12 note=69 velocity=0 time=0
EXTRACT: note_on channel=0 note=29 velocity=123 time=0.009191171875
EXTRACT: note_on channel=2 note=79 velocity=93 time=0
EXTRACT: note_on channel=9 note=42 velocity=36 time=0
EXTRACT: note_on channel=11 note=53 velocity=102 time=0
EXTRACT: note_on channel=11 note=57 velocity=100 time=0
EXTRACT: note_on channel=11 note=60 velocity=99 time=0
EXTRACT: note_on channel=11 note=64 velocity=106 time=0
EXTRACT: note_on channel=11 note=69 velocity=100 time=0
EXTRACT: note_on channel=12 note=53 velocity=98 time=0
EXTRACT: note_on channel=12 note=57 velocity=104 time=0
EXTRACT: note_on channel=12 note=60 velocity=96 time=0
EXTRACT: note_on channel=12 note=64 velocity=107 time=0
EXTRACT: note_on channel=12 note=69 velocity=101 time=0
EXTRACT: note_off channel=9 note=42 velocity=0 time=0.012254895833333333
EXTRACT: note_off channel=0 note=29 velocity=0 time=0.11335778645833333
EXTRACT: note_off channel=11 note=53 velocity=0 time=0.012254895833333333
EXTRACT: note_off channel=11 note=57 velocity=0 time=0
EXTRACT: note_off channel=11 note=60 velocity=0 time=0
EXTRACT: note_off channel=11 note=64 velocity=0 time=0
EXTRACT: note_off channel=11 note=69 velocity=0 time=0
EXTRACT: note_off channel=12 note=53 velocity=0 time=0
EXTRACT: note_off channel=12 note=57 velocity=0 time=0
EXTRACT: note_off channel=12 note=60 velocity=0 time=0
EXTRACT: note_off channel=12 note=64 velocity=0 time=0
EXTRACT: note_off channel=12 note=69 velocity=0 time=0
EXTRACT: note_on channel=0 note=29 velocity=120 time=0.009191171875
EXTRACT: note_on channel=9 note=36 velocity=58 time=0
EXTRACT: note_on channel=9 note=42 velocity=32 time=0
EXTRACT: note_on channel=11 note=53 velocity=84 time=0
EXTRACT: note_on channel=11 note=57 velocity=88 time=0
EXTRACT: note_on channel=11 note=60 velocity=74 time=0
EXTRACT: note_on channel=11 note=64 velocity=76 time=0
EXTRACT: note_on channel=11 note=69 velocity=78 time=0
EXTRACT: note_on channel=12 note=53 velocity=77 time=0
EXTRACT: note_on channel=12 note=57 velocity=93 time=0
EXTRACT: note_on channel=12 note=60 velocity=74 time=0
EXTRACT: note_on channel=12 note=64 velocity=82 time=0
EXTRACT: note_on channel=12 note=69 velocity=79 time=0
EXTRACT: note_off channel=9 note=36 velocity=0 time=0.012254895833333333
EXTRACT: note_off channel=9 note=42 velocity=0 time=0
EXTRACT: note_off channel=10 note=53 velocity=0 time=0.024509791666666666
EXTRACT: note_off channel=2 note=79 velocity=0 time=0.061274479166666666
EXTRACT: note_off channel=0 note=29 velocity=0 time=0.027573515625
EXTRACT: note_off channel=11 note=53 velocity=0 time=0.012254895833333333
EXTRACT: note_off channel=11 note=57 velocity=0 time=0
EXTRACT: note_off channel=11 note=60 velocity=0 time=0
EXTRACT: note_off channel=11 note=64 velocity=0 time=0
EXTRACT: note_off channel=11 note=69 velocity=0 time=0
EXTRACT: note_off channel=12 note=53 velocity=0 time=0
EXTRACT: note_off channel=12 note=57 velocity=0 time=0
EXTRACT: note_off channel=12 note=60 velocity=0 time=0
EXTRACT: note_off channel=12 note=64 velocity=0 time=0
EXTRACT: note_off channel=12 note=69 velocity=0 time=0
EXTRACT: note_on channel=0 note=41 velocity=126 time=0.009191171875
EXTRACT: note_on channel=2 note=79 velocity=110 time=0
EXTRACT: note_on channel=9 note=36 velocity=114 time=0
EXTRACT: note_on channel=9 note=42 velocity=94 time=0
EXTRACT: note_on channel=11 note=53 velocity=96 time=0
EXTRACT: note_on channel=11 note=57 velocity=96 time=0
EXTRACT: note_on channel=11 note=60 velocity=98 time=0
EXTRACT: note_on channel=11 note=64 velocity=105 time=0
EXTRACT: note_on channel=11 note=69 velocity=98 time=0
EXTRACT: note_on channel=12 note=53 velocity=96 time=0
EXTRACT: note_on channel=12 note=57 velocity=100 time=0
EXTRACT: note_on channel=12 note=60 velocity=102 time=0
EXTRACT: note_on channel=12 note=64 velocity=110 time=0
EXTRACT: note_on channel=12 note=69 velocity=102 time=0
EXTRACT: note_off channel=9 note=36 velocity=0 time=0.012254895833333333
EXTRACT: note_off channel=9 note=42 velocity=0 time=0
EXTRACT: note_off channel=2 note=79 velocity=0 time=0.101102890625
EXTRACT: note_on channel=2 note=79 velocity=105 time=0.03370096354166666
EXTRACT: note_on channel=9 note=42 velocity=21 time=0
EXTRACT: note_off channel=9 note=42 velocity=0 time=0.012254895833333333
EXTRACT: note_off channel=2 note=79 velocity=0 time=0.07046565104166666
EXTRACT: note_off channel=0 note=41 velocity=0 time=0.052083307291666665
EXTRACT: note_off channel=11 note=53 velocity=0 time=0.0030637239583333332
EXTRACT: note_off channel=11 note=57 velocity=0 time=0
EXTRACT: note_off channel=11 note=60 velocity=0 time=0
EXTRACT: note_off channel=11 note=64 velocity=0 time=0
EXTRACT: note_off channel=11 note=69 velocity=0 time=0
EXTRACT: note_off channel=12 note=53 velocity=0 time=0
EXTRACT: note_off channel=12 note=57 velocity=0 time=0
EXTRACT: note_off channel=12 note=60 velocity=0 time=0
EXTRACT: note_off channel=12 note=64 velocity=0 time=0
EXTRACT: note_off channel=12 note=69 velocity=0 time=0
EXTRACT: note_on channel=0 note=41 velocity=125 time=0.009191171875
EXTRACT: note_on channel=2 note=79 velocity=107 time=0
EXTRACT: note_on channel=9 note=42 velocity=39 time=0
EXTRACT: note_on channel=11 note=53 velocity=79 time=0
EXTRACT: note_on channel=11 note=57 velocity=83 time=0
EXTRACT: note_on channel=11 note=60 velocity=75 time=0
EXTRACT: note_on channel=11 note=64 velocity=75 time=0
EXTRACT: note_on channel=11 note=69 velocity=81 time=0
EXTRACT: note_on channel=12 note=53 velocity=80 time=0
EXTRACT: note_on channel=12 note=57 velocity=84 time=0
EXTRACT: note_on channel=12 note=60 velocity=76 time=0
EXTRACT: note_on channel=12 note=64 velocity=76 time=0
EXTRACT: note_on channel=12 note=69 velocity=82 time=0
EXTRACT: note_off channel=9 note=42 velocity=0 time=0.012254895833333333
EXTRACT: note_off channel=2 note=79 velocity=0 time=0.082720546875
EXTRACT: note_off channel=11 note=53 velocity=0 time=0.042892135416666664
EXTRACT: note_off channel=11 note=57 velocity=0 time=0
EXTRACT: note_off channel=11 note=60 velocity=0 time=0
EXTRACT: note_off channel=11 note=64 velocity=0 time=0
EXTRACT: note_off channel=11 note=69 velocity=0 time=0
EXTRACT: note_off channel=12 note=53 velocity=0 time=0
EXTRACT: note_off channel=12 note=57 velocity=0 time=0
EXTRACT: note_off channel=12 note=60 velocity=0 time=0
EXTRACT: note_off channel=12 note=64 velocity=0 time=0
EXTRACT: note_off channel=12 note=69 velocity=0 time=0
EXTRACT: note_on channel=2 note=79 velocity=103 time=0.009191171875
EXTRACT: note_on channel=9 note=42 velocity=34 time=0
EXTRACT: note_on channel=11 note=53 velocity=91 time=0
EXTRACT: note_on channel=11 note=57 velocity=96 time=0
EXTRACT: note_on channel=11 note=60 velocity=100 time=0
EXTRACT: note_on channel=11 note=64 velocity=111 time=0
EXTRACT: note_on channel=11 note=69 velocity=98 time=0
EXTRACT: note_on channel=12 note=53 velocity=94 time=0
EXTRACT: note_on channel=12 note=57 velocity=96 time=0
EXTRACT: note_on channel=12 note=60 velocity=96 time=0
EXTRACT: note_on channel=12 note=64 velocity=111 time=0
EXTRACT: note_on channel=12 note=69 velocity=101 time=0
EXTRACT: note_off channel=9 note=42 velocity=0 time=0.012254895833333333
EXTRACT: note_off channel=2 note=79 velocity=0 time=0.073529375
EXTRACT: note_off channel=0 note=41 velocity=0 time=0.0367646875
EXTRACT: note_on channel=0 note=40 velocity=121 time=0.024509791666666666
EXTRACT: note_on channel=2 note=79 velocity=108 time=0
EXTRACT: note_on channel=9 note=40 velocity=124 time=0
EXTRACT: note_on channel=9 note=42 velocity=97 time=0
EXTRACT: note_off channel=9 note=40 velocity=0 time=0.012254895833333333
EXTRACT: note_off channel=9 note=42 velocity=0 time=0
EXTRACT: note_off channel=2 note=79 velocity=0 time=0.08578427083333333
EXTRACT: note_off channel=11 note=53 velocity=0 time=0.03982841145833333
EXTRACT: note_off channel=11 note=57 velocity=0 time=0
EXTRACT: note_off channel=11 note=60 velocity=0 time=0
EXTRACT: note_off channel=11 note=64 velocity=0 time=0
EXTRACT: note_off channel=11 note=69 velocity=0 time=0
EXTRACT: note_off channel=12 note=53 velocity=0 time=0
EXTRACT: note_off channel=12 note=57 velocity=0 time=0
EXTRACT: note_off channel=12 note=60 velocity=0 time=0
EXTRACT: note_off channel=12 note=64 velocity=0 time=0
EXTRACT: note_off channel=12 note=69 velocity=0 time=0
EXTRACT: note_on channel=2 note=79 velocity=108 time=0.009191171875
EXTRACT: note_on channel=9 note=42 velocity=52 time=0
EXTRACT: note_on channel=11 note=53 velocity=84 time=0
EXTRACT: note_on channel=11 note=57 velocity=87 time=0
EXTRACT: note_on channel=11 note=60 velocity=78 time=0
EXTRACT: note_on channel=11 note=64 velocity=86 time=0
EXTRACT: note_on channel=11 note=69 velocity=85 time=0
EXTRACT: note_on channel=12 note=53 velocity=82 time=0
EXTRACT: note_on channel=12 note=57 velocity=86 time=0
EXTRACT: note_on channel=12 note=60 velocity=79 time=0
EXTRACT: note_on channel=12 note=64 velocity=84 time=0
EXTRACT: note_on channel=12 note=69 velocity=90 time=0
EXTRACT: note_off channel=9 note=42 velocity=0 time=0.012254895833333333
EXTRACT: note_off channel=2 note=79 velocity=0 time=0.07659309895833333
EXTRACT: note_off channel=0 note=40 velocity=0 time=0.030637239583333333
EXTRACT: note_off channel=11 note=53 velocity=0 time=0.01838234375
EXTRACT: note_off channel=11 note=57 velocity=0 time=0
EXTRACT: note_off channel=11 note=60 velocity=0 time=0
EXTRACT: note_off channel=11 note=64 velocity=0 time=0
EXTRACT: note_off channel=11 note=69 velocity=0 time=0
EXTRACT: note_off channel=12 note=53 velocity=0 time=0
EXTRACT: note_off channel=12 note=57 velocity=0 time=0
EXTRACT: note_off channel=12 note=60 velocity=0 time=0
EXTRACT: note_off channel=12 note=64 velocity=0 time=0
EXTRACT: note_off channel=12 note=69 velocity=0 time=0
EXTRACT: note_on channel=0 note=40 velocity=113 time=0.009191171875
EXTRACT: note_on channel=2 note=79 velocity=109 time=0
EXTRACT: note_on channel=9 note=42 velocity=36 time=0
EXTRACT: note_on channel=11 note=53 velocity=101 time=0
EXTRACT: note_on channel=11 note=57 velocity=100 time=0
EXTRACT: note_on channel=11 note=60 velocity=95 time=0
EXTRACT: note_on channel=11 note=64 velocity=97 time=0
EXTRACT: note_on channel=11 note=69 velocity=105 time=0
EXTRACT: note_on channel=12 note=53 velocity=100 time=0
EXTRACT: note_on channel=12 note=57 velocity=100 time=0
EXTRACT: note_on channel=12 note=60 velocity=91 time=0
EXTRACT: note_on channel=12 note=64 velocity=97 time=0
EXTRACT: note_on channel=12 note=69 velocity=100 time=0
EXTRACT: note_off channel=9 note=42 velocity=0 time=0.012254895833333333
EXTRACT: note_off channel=2 note=79 velocity=0 time=0.09191171875
EXTRACT: note_off channel=0 note=40 velocity=0 time=0.021446067708333332
EXTRACT: note_on channel=0 note=38 velocity=122 time=0.021446067708333332
EXTRACT: note_on channel=2 note=79 velocity=111 time=0
EXTRACT: note_on channel=9 note=36 velocity=118 time=0
EXTRACT: note_on channel=9 note=42 velocity=34 time=0
EXTRACT: note_off channel=9 note=36 velocity=0 time=0.012254895833333333
EXTRACT: note_off channel=9 note=42 velocity=0 time=0
EXTRACT: note_off channel=2 note=79 velocity=0 time=0.073529375
EXTRACT: note_on channel=2 note=79 velocity=102 time=0.061274479166666666
EXTRACT: note_on channel=9 note=42 velocity=100 time=0
EXTRACT: note_off channel=9 note=42 velocity=0 time=0.012254895833333333
EXTRACT: note_off channel=2 note=79 velocity=0 time=0.08884799479166666
EXTRACT: note_off channel=0 note=38 velocity=0 time=0.03370096354166666
EXTRACT: note_off channel=11 note=53 velocity=0 time=0.0030637239583333332
EXTRACT: note_off channel=11 note=57 velocity=0 time=0
EXTRACT: note_off channel=11 note=60 velocity=0 time=0
EXTRACT: note_off channel=11 note=64 velocity=0 time=0
EXTRACT: note_off channel=11 note=69 velocity=0 time=0
EXTRACT: note_off channel=12 note=53 velocity=0 time=0
EXTRACT: note_off channel=12 note=57 velocity=0 time=0
EXTRACT: note_off channel=12 note=60 velocity=0 time=0
EXTRACT: note_off channel=12 note=64 velocity=0 time=0
EXTRACT: note_off channel=12 note=69 velocity=0 time=0
EXTRACT: note_on channel=0 note=38 velocity=102 time=0.009191171875
EXTRACT: note_on channel=2 note=79 velocity=106 time=0
EXTRACT: note_on channel=9 note=36 velocity=57 time=0
EXTRACT: note_on channel=9 note=42 velocity=44 time=0
EXTRACT: note_on channel=11 note=53 velocity=92 time=0
EXTRACT: note_on channel=11 note=57 velocity=103 time=0
EXTRACT: note_on channel=11 note=60 velocity=104 time=0
EXTRACT: note_on channel=11 note=64 velocity=104 time=0
EXTRACT: note_on channel=11 note=69 velocity=96 time=0
EXTRACT: note_on channel=12 note=53 velocity=96 time=0
EXTRACT: note_on channel=12 note=57 velocity=99 time=0
EXTRACT: note_on channel=12 note=60 velocity=99 time=0
EXTRACT: note_on channel=12 note=64 velocity=108 time=0
EXTRACT: note_on channel=12 note=69 velocity=93 time=0
EXTRACT: note_off channel=9 note=36 velocity=0 time=0.012254895833333333
EXTRACT: note_off channel=9 note=42 velocity=0 time=0
EXTRACT: note_off channel=2 note=79 velocity=0 time=0.073529375
EXTRACT: note_off channel=0 note=38 velocity=0 time=0.03982841145833333
EXTRACT: note_on channel=0 note=38 velocity=124 time=0.021446067708333332
EXTRACT: note_on channel=2 note=79 velocity=102 time=0
EXTRACT: note_on channel=9 note=36 velocity=118 time=0
EXTRACT: note_on channel=9 note=42 velocity=38 time=0
EXTRACT: note_off channel=9 note=36 velocity=0 time=0.012254895833333333
EXTRACT: note_off channel=9 note=42 velocity=0 time=0
EXTRACT: note_off channel=2 note=79 velocity=0 time=0.061274479166666666
EXTRACT: note_on channel=2 note=81 velocity=122 time=0.073529375
EXTRACT: note_on channel=9 note=42 velocity=42 time=0
EXTRACT: note_off channel=9 note=42 velocity=0 time=0.012254895833333333
EXTRACT: note_off channel=0 note=38 velocity=0 time=0.09497544270833333
EXTRACT: note_off channel=11 note=53 velocity=0 time=0.030637239583333333
EXTRACT: note_off channel=11 note=57 velocity=0 time=0
EXTRACT: note_off channel=11 note=60 velocity=0 time=0
EXTRACT: note_off channel=11 note=64 velocity=0 time=0
EXTRACT: note_off channel=11 note=69 velocity=0 time=0
EXTRACT: note_off channel=12 note=53 velocity=0 time=0
EXTRACT: note_off channel=12 note=57 velocity=0 time=0
EXTRACT: note_off channel=12 note=60 velocity=0 time=0
EXTRACT: note_off channel=12 note=64 velocity=0 time=0
EXTRACT: note_off channel=12 note=69 velocity=0 time=0
EXTRACT: control_change channel=4 control=84 value=77 time=0.0030637239583333332
EXTRACT: control_change channel=5 control=84 value=73 time=0
EXTRACT: control_change channel=4 control=5 value=80 time=0.0030637239583333332
EXTRACT: control_change channel=5 control=5 value=80 time=0
EXTRACT: note_on channel=0 note=40 velocity=121 time=0.0030637239583333332
EXTRACT: note_on channel=4 note=71 velocity=115 time=0
EXTRACT: note_on channel=5 note=67 velocity=117 time=0
EXTRACT: note_on channel=9 note=40 velocity=127 time=0
EXTRACT: note_on channel=9 note=42 velocity=104 time=0
EXTRACT: note_on channel=7 note=76 velocity=125 time=0
EXTRACT: note_on channel=11 note=53 velocity=101 time=0
EXTRACT: note_on channel=11 note=57 velocity=102 time=0
EXTRACT: note_on channel=11 note=60 velocity=96 time=0
EXTRACT: note_on channel=11 note=64 velocity=108 time=0
EXTRACT: note_on channel=11 note=69 velocity=102 time=0
EXTRACT: note_on channel=12 note=53 velocity=98 time=0
EXTRACT: note_on channel=12 note=57 velocity=101 time=0
EXTRACT: note_on channel=12 note=60 velocity=93 time=0
EXTRACT: note_on channel=12 note=64 velocity=102 time=0
EXTRACT: note_on channel=12 note=69 velocity=100 time=0
EXTRACT: note_off channel=9 note=40 velocity=0 time=0.012254895833333333
EXTRACT: note_off channel=9 note=42 velocity=0 time=0
EXTRACT: note_on channel=9 note=42 velocity=57 time=0.13480385416666665
EXTRACT: note_off channel=9 note=42 velocity=0 time=0.012254895833333333
EXTRACT: note_off channel=2 note=81 velocity=0 time=0.045955859375
EXTRACT: note_off channel=0 note=40 velocity=0 time=0.045955859375
EXTRACT: note_off channel=11 note=53 velocity=0 time=0.03370096354166666
EXTRACT: note_off channel=11 note=57 velocity=0 time=0
EXTRACT: note_off channel=11 note=60 velocity=0 time=0
EXTRACT: note_off channel=11 note=64 velocity=0 time=0
EXTRACT: note_off channel=11 note=69 velocity=0 time=0
EXTRACT: note_off channel=12 note=53 velocity=0 time=0
EXTRACT: note_off channel=12 note=57 velocity=0 time=0
EXTRACT: note_off channel=12 note=60 velocity=0 time=0
EXTRACT: note_off channel=12 note=64 velocity=0 time=0
EXTRACT: note_off channel=12 note=69 velocity=0 time=0
EXTRACT: note_on channel=0 note=40 velocity=118 time=0.009191171875
EXTRACT: note_on channel=2 note=79 velocity=117 time=0
EXTRACT: note_on channel=9 note=46 velocity=95 time=0
EXTRACT: note_on channel=11 note=53 velocity=102 time=0
EXTRACT: note_on channel=11 note=57 velocity=102 time=0
EXTRACT: note_on channel=11 note=60 velocity=97 time=0
EXTRACT: note_on channel=11 note=64 velocity=104 time=0
EXTRACT: note_on channel=11 note=69 velocity=99 time=0
EXTRACT: note_on channel=12 note=53 velocity=102 time=0
EXTRACT: note_on channel=12 note=57 velocity=103 time=0
EXTRACT: note_on channel=12 note=60 velocity=98 time=0
EXTRACT: note_on channel=12 note=64 velocity=103 time=0
EXTRACT: note_on channel=12 note=69 velocity=101 time=0
EXTRACT: note_off channel=9 note=46 velocity=0 time=0.012254895833333333
EXTRACT: note_off channel=7 note=76 velocity=0 time=0.03370096354166666
EXTRACT: note_off channel=11 note=53 velocity=0 time=0.09191171875
EXTRACT: note_off channel=11 note=57 velocity=0 time=0
EXTRACT: note_off channel=11 note=60 velocity=0 time=0
EXTRACT: note_off channel=11 note=64 velocity=0 time=0
EXTRACT: note_off channel=11 note=69 velocity=0 time=0
EXTRACT: note_off channel=12 note=53 velocity=0 time=0
EXTRACT: note_off channel=12 note=57 velocity=0 time=0
EXTRACT: note_off channel=12 note=60 velocity=0 time=0
EXTRACT: note_off channel=12 note=64 velocity=0 time=0
EXTRACT: note_off channel=12 note=69 velocity=0 time=0
EXTRACT: note_on channel=9 note=36 velocity=57 time=0.009191171875
EXTRACT: note_on channel=11 note=53 velocity=79 time=0
EXTRACT: note_on channel=11 note=57 velocity=89 time=0
EXTRACT: note_on channel=11 note=60 velocity=73 time=0
EXTRACT: note_on channel=11 note=64 velocity=76 time=0
EXTRACT: note_on channel=11 note=69 velocity=80 time=0
EXTRACT: note_on channel=12 note=53 velocity=77 time=0
EXTRACT: note_on channel=12 note=57 velocity=92 time=0
EXTRACT: note_on channel=12 note=60 velocity=78 time=0
EXTRACT: note_on channel=12 note=64 velocity=75 time=0
EXTRACT: note_on channel=12 note=69 velocity=81 time=0
EXTRACT: note_off channel=9 note=36 velocity=0 time=0.012254895833333333
EXTRACT: note_off channel=2 note=79 velocity=0 time=0.04901958333333333
EXTRACT: note_off channel=1 note=76 velocity=0 time=0.061274479166666666
EXTRACT: note_off channel=1 note=69 velocity=0 time=0
EXTRACT: note_off channel=1 note=72 velocity=0 time=0
EXTRACT: note_on channel=1 note=67 velocity=97 time=0.009191171875
EXTRACT: note_on channel=1 note=71 velocity=101 time=0
EXTRACT: note_on channel=1 note=74 velocity=106 time=0
EXTRACT: note_off channel=0 note=40 velocity=0 time=0.0061274479166666665
EXTRACT: note_off channel=11 note=53 velocity=0 time=0
EXTRACT: note_off channel=11 note=57 velocity=0 time=0
EXTRACT: note_off channel=11 note=60 velocity=0 time=0
EXTRACT: note_off channel=11 note=64 velocity=0 time=0
EXTRACT: note_off channel=11 note=69 velocity=0 time=0
EXTRACT: note_off channel=12 note=53 velocity=0 time=0
EXTRACT: note_off channel=12 note=57 velocity=0 time=0
EXTRACT: note_off channel=12 note=60 velocity=0 time=0
EXTRACT: note_off channel=12 note=64 velocity=0 time=0
EXTRACT: note_off channel=12 note=69 velocity=0 time=0
EXTRACT: note_on channel=0 note=31 velocity=108 time=0.009191171875
EXTRACT: note_on channel=2 note=79 velocity=115 time=0
EXTRACT: note_on channel=9 note=36 velocity=120 time=0
EXTRACT: note_on channel=9 note=42 velocity=114 time=0
EXTRACT: note_on channel=7 note=71 velocity=124 time=0
EXTRACT: note_on channel=11 note=43 velocity=97 time=0
EXTRACT: note_on channel=11 note=50 velocity=98 time=0
EXTRACT: note_on channel=11 note=55 velocity=105 time=0
EXTRACT: note_on channel=11 note=59 velocity=95 time=0
EXTRACT: note_on channel=11 note=62 velocity=103 time=0
EXTRACT: note_on channel=11 note=67 velocity=97 time=0
EXTRACT: note_on channel=12 note=43 velocity=101 time=0
EXTRACT: note_on channel=12 note=50 velocity=97 time=0
EXTRACT: note_on channel=12 note=55 velocity=99 time=0
EXTRACT: note_on channel=12 note=59 velocity=98 time=0
EXTRACT: note_on channel=12 note=62 velocity=100 time=0
EXTRACT: note_on channel=12 note=67 velocity=95 time=0
EXTRACT: note_off channel=9 note=36 velocity=0 time=0.012254895833333333
EXTRACT: note_off channel=9 note=42 velocity=0 time=0
EXTRACT: note_on channel=9 note=42 velocity=49 time=0.13480385416666665
EXTRACT: note_off channel=9 note=42 velocity=0 time=0.012254895833333333
EXTRACT: note_off channel=0 note=31 velocity=0 time=0.07965682291666666
EXTRACT: note_off channel=11 note=43 velocity=0 time=0.045955859375
EXTRACT: note_off channel=11 note=50 velocity=0 time=0
EXTRACT: note_off channel=11 note=55 velocity=0 time=0
EXTRACT: note_off channel=11 note=59 velocity=0 time=0
EXTRACT: note_off channel=11 note=62 velocity=0 time=0
EXTRACT: note_off channel=11 note=67 velocity=0 time=0
EXTRACT: note_off channel=12 note=43 velocity=0 time=0
EXTRACT: note_off channel=12 note=50 velocity=0 time=0
EXTRACT: note_off channel=12 note=55 velocity=0 time=0
EXTRACT: note_off channel=12 note=59 velocity=0 time=0
EXTRACT: note_off channel=12 note=62 velocity=0 time=0
EXTRACT: note_off channel=12 note=67 velocity=0 time=0
EXTRACT: note_on channel=0 note=31 velocity=113 time=0.009191171875
EXTRACT: note_on channel=9 note=36 velocity=65 time=0
EXTRACT: note_on channel=9 note=42 velocity=48 time=0
EXTRACT: note_on channel=11 note=43 velocity=73 time=0
EXTRACT: note_on channel=11 note=50 velocity=75 time=0
EXTRACT: note_on channel=11 note=55 velocity=68 time=0
EXTRACT: note_on channel=11 note=59 velocity=72 time=0
EXTRACT: note_on channel=11 note=62 velocity=87 time=0
EXTRACT: note_on channel=11 note=67 velocity=80 time=0
EXTRACT: note_on channel=12 note=43 velocity=72 time=0
EXTRACT: note_on channel=12 note=50 velocity=78 time=0
EXTRACT: note_on channel=12 note=55 velocity=72 time=0
EXTRACT: note_on channel=12 note=59 velocity=72 time=0
EXTRACT: note_on channel=12 note=62 velocity=86 time=0
EXTRACT: note_on channel=12 note=67 velocity=78 time=0
EXTRACT: note_off channel=9 note=36 velocity=0 time=0.012254895833333333
EXTRACT: note_off channel=9 note=42 velocity=0 time=0
EXTRACT: note_off channel=11 note=43 velocity=0 time=0.12561268229166667
EXTRACT: note_off channel=11 note=50 velocity=0 time=0
EXTRACT: note_off channel=11 note=55 velocity=0 time=0
EXTRACT: note_off channel=11 note=59 velocity=0 time=0
EXTRACT: note_off channel=11 note=62 velocity=0 time=0
EXTRACT: note_off channel=11 note=67 velocity=0 time=0
EXTRACT: note_off channel=12 note=43 velocity=0 time=0
EXTRACT: note_off channel=12 note=50 velocity=0 time=0
EXTRACT: note_off channel=12 note=55 velocity=0 time=0
EXTRACT: note_off channel=12 note=59 velocity=0 time=0
EXTRACT: note_off channel=12 note=62 velocity=0 time=0
EXTRACT: note_off channel=12 note=67 velocity=0 time=0
EXTRACT: note_on channel=9 note=42 velocity=45 time=0.009191171875
EXTRACT: note_on channel=11 note=43 velocity=87 time=0
EXTRACT: note_on channel=11 note=50 velocity=84 time=0
EXTRACT: note_on channel=11 note=55 velocity=90 time=0
EXTRACT: note_on channel=11 note=59 velocity=96 time=0
EXTRACT: note_on channel=11 note=62 velocity=102 time=0
EXTRACT: note_on channel=11 note=67 velocity=96 time=0
EXTRACT: note_on channel=12 note=43 velocity=91 time=0
EXTRACT: note_on channel=12 note=50 velocity=87 time=0
EXTRACT: note_on channel=12 note=55 velocity=89 time=0
EXTRACT: note_on channel=12 note=59 velocity=93 time=0
EXTRACT: note_on channel=12 note=62 velocity=107 time=0
EXTRACT: note_on channel=12 note=67 velocity=96 time=0
EXTRACT: note_off channel=9 note=42 velocity=0 time=0.012254895833333333
EXTRACT: note_off channel=0 note=31 velocity=0 time=0.10416661458333333
EXTRACT: note_on channel=0 note=31 velocity=121 time=0.030637239583333333
EXTRACT: note_on channel=9 note=40 velocity=118 time=0
EXTRACT: note_on channel=9 note=42 velocity=98 time=0
EXTRACT: note_off channel=9 note=40 velocity=0 time=0.012254895833333333
EXTRACT: note_off channel=9 note=42 velocity=0 time=0
EXTRACT: note_off channel=2 note=79 velocity=0 time=0.09497544270833333
EXTRACT: note_off channel=11 note=43 velocity=0 time=0.030637239583333333
EXTRACT: note_off channel=11 note=50 velocity=0 time=0
EXTRACT: note_off channel=11 note=55 velocity=0 time=0
EXTRACT: note_off channel=11 note=59 velocity=0 time=0
EXTRACT: note_off channel=11 note=62 velocity=0 time=0
EXTRACT: note_off channel=11 note=67 velocity=0 time=0
EXTRACT: note_off channel=12 note=43 velocity=0 time=0
EXTRACT: note_off channel=12 note=50 velocity=0 time=0
EXTRACT: note_off channel=12 note=55 velocity=0 time=0
EXTRACT: note_off channel=12 note=59 velocity=0 time=0
EXTRACT: note_off channel=12 note=62 velocity=0 time=0
EXTRACT: note_off channel=12 note=67 velocity=0 time=0
EXTRACT: note_on channel=9 note=42 velocity=42 time=0.009191171875
EXTRACT: note_on channel=11 note=43 velocity=70 time=0
EXTRACT: note_on channel=11 note=50 velocity=87 time=0
EXTRACT: note_on channel=11 note=55 velocity=78 time=0
EXTRACT: note_on channel=11 note=59 velocity=74 time=0
EXTRACT: note_on channel=11 note=62 velocity=93 time=0
EXTRACT: note_on channel=11 note=67 velocity=86 time=0
EXTRACT: note_on channel=12 note=43 velocity=71 time=0
EXTRACT: note_on channel=12 note=50 velocity=94 time=0
EXTRACT: note_on channel=12 note=55 velocity=74 time=0
EXTRACT: note_on channel=12 note=59 velocity=78 time=0
EXTRACT: note_on channel=12 note=62 velocity=93 time=0
EXTRACT: note_on channel=12 note=67 velocity=89 time=0
EXTRACT: note_off channel=9 note=42 velocity=0 time=0.012254895833333333
EXTRACT: note_off channel=0 note=31 velocity=0 time=0.082720546875
EXTRACT: note_off channel=11 note=43 velocity=0 time=0.042892135416666664
EXTRACT: note_off channel=11 note=50 velocity=0 time=0
EXTRACT: note_off channel=11 note=55 velocity=0 time=0
EXTRACT: note_off channel=11 note=59 velocity=0 time=0
EXTRACT: note_off channel=11 note=62 velocity=0 time=0
EXTRACT: note_off channel=11 note=67 velocity=0 time=0
EXTRACT: note_off channel=12 note=43 velocity=0 time=0
EXTRACT: note_off channel=12 note=50 velocity=0 time=0
EXTRACT: note_off channel=12 note=55 velocity=0 time=0
EXTRACT: note_off channel=12 note=59 velocity=0 time=0
EXTRACT: note_off channel=12 note=62 velocity=0 time=0
EXTRACT: note_off channel=12 note=67 velocity=0 time=0
EXTRACT: note_on channel=0 note=31 velocity=107 time=0.009191171875
EXTRACT: note_on channel=9 note=42 velocity=45 time=0
EXTRACT: note_on channel=11 note=43 velocity=99 time=0
EXTRACT: note_on channel=11 note=50 velocity=99 time=0
EXTRACT: note_on channel=11 note=55 velocity=97 time=0
EXTRACT: note_on channel=11 note=59 velocity=100 time=0
EXTRACT: note_on channel=11 note=62 velocity=105 time=0
EXTRACT: note_on channel=11 note=67 velocity=98 time=0
EXTRACT: note_on channel=12 note=43 velocity=103 time=0
EXTRACT: note_on channel=12 note=50 velocity=99 time=0
EXTRACT: note_on channel=12 note=55 velocity=96 time=0
EXTRACT: note_on channel=12 note=59 velocity=97 time=0
EXTRACT: note_on channel=12 note=62 velocity=105 time=0
EXTRACT: note_on channel=12 note=67 velocity=100 time=0
EXTRACT: note_off channel=9 note=42 velocity=0 time=0.012254895833333333
EXTRACT: note_off channel=0 note=31 velocity=0 time=0.12867640624999999
EXTRACT: note_on channel=0 note=31 velocity=116 time=0.0061274479166666665
EXTRACT: note_on channel=9 note=36 velocity=118 time=0
EXTRACT: note_on channel=9 note=42 velocity=45 time=0
EXTRACT: note_off channel=9 note=36 velocity=0 time=0.012254895833333333
EXTRACT: note_off channel=9 note=42 velocity=0 time=0
EXTRACT: note_on channel=9 note=42 velocity=104 time=0.13480385416666665
EXTRACT: note_off channel=9 note=42 velocity=0 time=0.012254895833333333
EXTRACT: note_off channel=0 note=31 velocity=0 time=0.073529375
EXTRACT: note_off channel=11 note=43 velocity=0 time=0.052083307291666665
EXTRACT: note_off channel=11 note=50 velocity=0 time=0
EXTRACT: note_off channel=11 note=55 velocity=0 time=0
EXTRACT: note_off channel=11 note=59 velocity=0 time=0
EXTRACT: note_off channel=11 note=62 velocity=0 time=0
EXTRACT: note_off channel=11 note=67 velocity=0 time=0
EXTRACT: note_off channel=12 note=43 velocity=0 time=0
EXTRACT: note_off channel=12 note=50 velocity=0 time=0
EXTRACT: note_off channel=12 note=55 velocity=0 time=0
EXTRACT: note_off channel=12 note=59 velocity=0 time=0
EXTRACT: note_off channel=12 note=62 velocity=0 time=0
EXTRACT: note_off channel=12 note=67 velocity=0 time=0
EXTRACT: note_on channel=0 note=31 velocity=114 time=0.009191171875
EXTRACT: note_on channel=9 note=36 velocity=59 time=0
EXTRACT: note_on channel=9 note=42 velocity=52 time=0
EXTRACT: note_on channel=11 note=43 velocity=99 time=0
EXTRACT: note_on channel=11 note=50 velocity=104 time=0
EXTRACT: note_on channel=11 note=55 velocity=102 time=0
EXTRACT: note_on channel=11 note=59 velocity=94 time=0
EXTRACT: note_on channel=11 note=62 velocity=97 time=0
EXTRACT: note_on channel=11 note=67 velocity=100 time=0
EXTRACT: note_on channel=12 note=43 velocity=101 time=0
EXTRACT: note_on channel=12 note=50 velocity=105 time=0
EXTRACT: note_on channel=12 note=55 velocity=104 time=0
EXTRACT: note_on channel=12 note=59 velocity=93 time=0
EXTRACT: note_on channel=12 note=62 velocity=100 time=0
EXTRACT: note_on channel=12 note=67 velocity=94 time=0
EXTRACT: note_off channel=9 note=36 velocity=0 time=0.012254895833333333
EXTRACT: note_off channel=9 note=42 velocity=0 time=0
EXTRACT: note_off channel=7 note=71 velocity=0 time=0.042892135416666664
EXTRACT: note_off channel=0 note=31 velocity=0 time=0.07965682291666666
EXTRACT: note_on channel=0 note=31 velocity=117 time=0.012254895833333333
EXTRACT: note_on channel=2 note=76 velocity=101 time=0
EXTRACT: note_on channel=9 note=36 velocity=121 time=0
EXTRACT: note_on channel=9 note=42 velocity=38 time=0
EXTRACT: note_off channel=9 note=36 velocity=0 time=0.012254895833333333
EXTRACT: note_off channel=9 note=42 velocity=0 time=0
EXTRACT: note_on channel=9 note=42 velocity=32 time=0.13480385416666665
EXTRACT: note_off channel=9 note=42 velocity=0 time=0.012254895833333333
EXTRACT: note_off channel=2 note=76 velocity=0 time=0.08884799479166666
EXTRACT: note_off channel=0 note=31 velocity=0 time=0.012254895833333333
EXTRACT: note_off channel=4 note=71 velocity=0 time=0.024509791666666666
EXTRACT: note_off channel=5 note=67 velocity=0 time=0
EXTRACT: note_off channel=11 note=43 velocity=0 time=0
EXTRACT: note_off channel=11 note=50 velocity=0 time=0
EXTRACT: note_off channel=11 note=55 velocity=0 time=0
EXTRACT: note_off channel=11 note=59 velocity=0 time=0
EXTRACT: note_off channel=11 note=62 velocity=0 time=0
EXTRACT: note_off channel=11 note=67 velocity=0 time=0
EXTRACT: note_off channel=12 note=43 velocity=0 time=0
EXTRACT: note_off channel=12 note=50 velocity=0 time=0
EXTRACT: note_off channel=12 note=55 velocity=0 time=0
EXTRACT: note_off channel=12 note=59 velocity=0 time=0
EXTRACT: note_off channel=12 note=62 velocity=0 time=0
EXTRACT: note_off channel=12 note=67 velocity=0 time=0
EXTRACT: note_on channel=0 note=31 velocity=116 time=0.009191171875
EXTRACT: note_on channel=2 note=77 velocity=101 time=0
EXTRACT: note_on channel=9 note=40 velocity=111 time=0
EXTRACT: note_on channel=9 note=42 velocity=105 time=0
EXTRACT: note_on channel=11 note=43 velocity=98 time=0
EXTRACT: note_on channel=11 note=50 velocity=96 time=0
EXTRACT: note_on channel=11 note=55 velocity=95 time=0
EXTRACT: note_on channel=11 note=59 velocity=101 time=0
EXTRACT: note_on channel=11 note=62 velocity=107 time=0
EXTRACT: note_on channel=11 note=67 velocity=94 time=0
EXTRACT: note_on channel=12 note=43 velocity=96 time=0
EXTRACT: note_on channel=12 note=50 velocity=98 time=0
EXTRACT: note_on channel=12 note=55 velocity=100 time=0
EXTRACT: note_on channel=12 note=59 velocity=102 time=0
EXTRACT: note_on channel=12 note=62 velocity=105 time=0
EXTRACT: note_on channel=12 note=67 velocity=94 time=0
EXTRACT: note_off channel=9 note=40 velocity=0 time=0.012254895833333333
EXTRACT: note_off channel=9 note=42 velocity=0 time=0
EXTRACT: note_on channel=9 note=42 velocity=50 time=0.13480385416666665
EXTRACT: note_off channel=9 note=42 velocity=0 time=0.012254895833333333
EXTRACT: note_off channel=0 note=31 velocity=0 time=0.09497544270833333
EXTRACT: note_off channel=2 note=77 velocity=0 time=0
EXTRACT: note_off channel=11 note=43 velocity=0 time=0.030637239583333333
EXTRACT: note_off channel=11 note=50 velocity=0 time=0
EXTRACT: note_off channel=11 note=55 velocity=0 time=0
EXTRACT: note_off channel=11 note=59 velocity=0 time=0
EXTRACT: note_off channel=11 note=62 velocity=0 time=0
EXTRACT: note_off channel=11 note=67 velocity=0 time=0
EXTRACT: note_off channel=12 note=43 velocity=0 time=0
EXTRACT: note_off channel=12 note=50 velocity=0 time=0
EXTRACT: note_off channel=12 note=55 velocity=0 time=0
EXTRACT: note_off channel=12 note=59 velocity=0 time=0
EXTRACT: note_off channel=12 note=62 velocity=0 time=0
EXTRACT: note_off channel=12 note=67 velocity=0 time=0
EXTRACT: note_on channel=0 note=31 velocity=115 time=0.009191171875
EXTRACT: note_on channel=2 note=76 velocity=102 time=0
EXTRACT: note_on channel=9 note=42 velocity=35 time=0
EXTRACT: note_on channel=11 note=43 velocity=95 time=0
EXTRACT: note_on channel=11 note=50 velocity=96 time=0
EXTRACT: note_on channel=11 note=55 velocity=94 time=0
EXTRACT: note_on channel=11 note=59 velocity=88 time=0
EXTRACT: note_on channel=11 note=62 velocity=99 time=0
EXTRACT: note_on channel=11 note=67 velocity=93 time=0
EXTRACT: note_on channel=12 note=43 velocity=98 time=0
EXTRACT: note_on channel=12 note=50 velocity=100 time=0
EXTRACT: note_on channel=12 note=55 velocity=92 time=0
EXTRACT: note_on channel=12 note=59 velocity=95 time=0
EXTRACT: note_on channel=12 note=62 velocity=100 time=0
EXTRACT: note_on channel=12 note=67 velocity=97 time=0
EXTRACT: note_off channel=9 note=42 velocity=0 time=0.012254895833333333
EXTRACT: note_off channel=0 note=31 velocity=0 time=0.10416661458333333
EXTRACT: note_off channel=11 note=43 velocity=0 time=0.021446067708333332
EXTRACT: note_off channel=11 note=50 velocity=0 time=0
EXTRACT: note_off channel=11 note=55 velocity=0 time=0
EXTRACT: note_off channel=11 note=59 velocity=0 time=0
EXTRACT: note_off channel=11 note=62 velocity=0 time=0
EXTRACT: note_off channel=11 note=67 velocity=0 time=0
EXTRACT: note_off channel=12 note=43 velocity=0 time=0
EXTRACT: note_off channel=12 note=50 velocity=0 time=0
EXTRACT: note_off channel=12 note=55 velocity=0 time=0
EXTRACT: note_off channel=12 note=59 velocity=0 time=0
EXTRACT: note_off channel=12 note=62 velocity=0 time=0
EXTRACT: note_off channel=12 note=67 velocity=0 time=0
EXTRACT: note_on channel=0 note=31 velocity=120 time=0.009191171875
EXTRACT: note_on channel=9 note=36 velocity=52 time=0
EXTRACT: note_on channel=9 note=40 velocity=56 time=0
EXTRACT: note_on channel=9 note=42 velocity=32 time=0
EXTRACT: note_on channel=11 note=43 velocity=55 time=0
EXTRACT: note_on channel=11 note=50 velocity=78 time=0
EXTRACT: note_on channel=11 note=55 velocity=66 time=0
EXTRACT: note_on channel=11 note=59 velocity=71 time=0
EXTRACT: note_on channel=11 note=62 velocity=84 time=0
EXTRACT: note_on channel=11 note=67 velocity=69 time=0
EXTRACT: note_on channel=12 note=43 velocity=57 time=0
EXTRACT: note_on channel=12 note=50 velocity=76 time=0
EXTRACT: note_on channel=12 note=55 velocity=65 time=0
EXTRACT: note_on channel=12 note=59 velocity=67 time=0
EXTRACT: note_on channel=12 note=62 velocity=87 time=0
EXTRACT: note_on channel=12 note=67 velocity=68 time=0
EXTRACT: note_off channel=9 note=36 velocity=0 time=0.012254895833333333
EXTRACT: note_off channel=9 note=40 velocity=0 time=0
EXTRACT: note_off channel=9 note=42 velocity=0 time=0
EXTRACT: note_off channel=0 note=31 velocity=0 time=0.10723033854166666
EXTRACT: note_off channel=11 note=43 velocity=0 time=0.01838234375
EXTRACT: note_off channel=11 note=50 velocity=0 time=0
EXTRACT: note_off channel=11 note=55 velocity=0 time=0
EXTRACT: note_off channel=11 note=59 velocity=0 time=0
EXTRACT: note_off channel=11 note=62 velocity=0 time=0
EXTRACT: note_off channel=11 note=67 velocity=0 time=0
EXTRACT: note_off channel=12 note=43 velocity=0 time=0
EXTRACT: note_off channel=12 note=50 velocity=0 time=0
EXTRACT: note_off channel=12 note=55 velocity=0 time=0
EXTRACT: note_off channel=12 note=59 velocity=0 time=0
EXTRACT: note_off channel=12 note=62 velocity=0 time=0
EXTRACT: note_off channel=12 note=67 velocity=0 time=0
EXTRACT: note_on channel=0 note=31 velocity=122 time=0.009191171875
EXTRACT: note_on channel=3 note=55 velocity=111 time=0
EXTRACT: note_on channel=3 note=62 velocity=105 time=0
EXTRACT: note_on channel=9 note=36 velocity=115 time=0
EXTRACT: note_on channel=9 note=42 velocity=99 time=0
EXTRACT: note_on channel=11 note=43 velocity=97 time=0
EXTRACT: note_on channel=11 note=50 velocity=99 time=0
EXTRACT: note_on channel=11 note=55 velocity=87 time=0
EXTRACT: note_on channel=11 note=59 velocity=99 time=0
EXTRACT: note_on channel=11 note=62 velocity=109 time=0
EXTRACT: note_on channel=11 note=67 velocity=103 time=0
EXTRACT: note_on channel=12 note=43 velocity=101 time=0
EXTRACT: note_on channel=12 note=50 velocity=98 time=0
EXTRACT: note_on channel=12 note=55 velocity=90 time=0
EXTRACT: note_on channel=12 note=59 velocity=97 time=0
EXTRACT: note_on channel=12 note=62 velocity=102 time=0
EXTRACT: note_on channel=12 note=67 velocity=105 time=0
EXTRACT: note_off channel=9 note=36 velocity=0 time=0.012254895833333333
EXTRACT: note_off channel=9 note=42 velocity=0 time=0
EXTRACT: note_off channel=3 note=55 velocity=0 time=0.073529375
EXTRACT: note_off channel=3 note=62 velocity=0 time=0
EXTRACT: note_on channel=3 note=55 velocity=98 time=0.061274479166666666
EXTRACT: note_on channel=3 note=62 velocity=95 time=0
EXTRACT: note_on channel=9 note=42 velocity=24 time=0
EXTRACT: note_off channel=9 note=42 velocity=0 time=0.012254895833333333
EXTRACT: note_off channel=3 note=55 velocity=0 time=0.073529375
EXTRACT: note_off channel=3 note=62 velocity=0 time=0
EXTRACT: note_off channel=0 note=31 velocity=0 time=0.021446067708333332
EXTRACT: note_off channel=11 note=43 velocity=0 time=0.030637239583333333
EXTRACT: note_off channel=11 note=50 velocity=0 time=0
EXTRACT: note_off channel=11 note=55 velocity=0 time=0
EXTRACT: note_off channel=11 note=59 velocity=0 time=0
EXTRACT: note_off channel=11 note=62 velocity=0 time=0
EXTRACT: note_off channel=11 note=67 velocity=0 time=0
EXTRACT: note_off channel=12 note=43 velocity=0 time=0
EXTRACT: note_off channel=12 note=50 velocity=0 time=0
EXTRACT: note_off channel=12 note=55 velocity=0 time=0
EXTRACT: note_off channel=12 note=59 velocity=0 time=0
EXTRACT: note_off channel=12 note=62 velocity=0 time=0
EXTRACT: note_off channel=12 note=67 velocity=0 time=0
EXTRACT: note_on channel=0 note=31 velocity=120 time=0.009191171875
EXTRACT: note_on channel=9 note=36 velocity=64 time=0
EXTRACT: note_on channel=9 note=42 velocity=35 time=0
EXTRACT: note_on channel=11 note=43 velocity=71 time=0
EXTRACT: note_on channel=11 note=50 velocity=88 time=0
EXTRACT: note_on channel=11 note=55 velocity=70 time=0
EXTRACT: note_on channel=11 note=59 velocity=88 time=0
EXTRACT: note_on channel=11 note=62 velocity=89 time=0
EXTRACT: note_on channel=11 note=67 velocity=85 time=0
EXTRACT: note_on channel=12 note=43 velocity=64 time=0
EXTRACT: note_on channel=12 note=50 velocity=91 time=0
EXTRACT: note_on channel=12 note=55 velocity=71 time=0
EXTRACT: note_on channel=12 note=59 velocity=85 time=0
EXTRACT: note_on channel=12 note=62 velocity=94 time=0
EXTRACT: note_on channel=12 note=67 velocity=82 time=0
EXTRACT: note_off channel=9 note=36 velocity=0 time=0.012254895833333333
EXTRACT: note_off channel=9 note=42 velocity=0 time=0
EXTRACT: note_off channel=11 note=43 velocity=0 time=0.12561268229166667
EXTRACT: note_off channel=11 note=50 velocity=0 time=0
EXTRACT: note_off channel=11 note=55 velocity=0 time=0
EXTRACT: note_off channel=11 note=59 velocity=0 time=0
EXTRACT: note_off channel=11 note=62 velocity=0 time=0
EXTRACT: note_off channel=11 note=67 velocity=0 time=0
EXTRACT: note_off channel=12 note=43 velocity=0 time=0
EXTRACT: note_off channel=12 note=50 velocity=0 time=0
EXTRACT: note_off channel=12 note=55 velocity=0 time=0
EXTRACT: note_off channel=12 note=59 velocity=0 time=0
EXTRACT: note_off channel=12 note=62 velocity=0 time=0
EXTRACT: note_off channel=12 note=67 velocity=0 time=0
EXTRACT: note_on channel=3 note=55 velocity=110 time=0.009191171875
EXTRACT: note_on channel=3 note=62 velocity=98 time=0
EXTRACT: note_on channel=9 note=42 velocity=30 time=0
EXTRACT: note_on channel=11 note=43 velocity=100 time=0
EXTRACT: note_on channel=11 note=50 velocity=96 time=0
EXTRACT: note_on channel=11 note=55 velocity=95 time=0
EXTRACT: note_on channel=11 note=59 velocity=100 time=0
EXTRACT: note_on channel=11 note=62 velocity=105 time=0
EXTRACT: note_on channel=11 note=67 velocity=100 time=0
EXTRACT: note_on channel=12 note=43 velocity=100 time=0
EXTRACT: note_on channel=12 note=50 velocity=93 time=0
EXTRACT: note_on channel=12 note=55 velocity=97 time=0
EXTRACT: note_on channel=12 note=59 velocity=102 time=0
EXTRACT: note_on channel=12 note=62 velocity=104 time=0
EXTRACT: note_on channel=12 note=67 velocity=96 time=0
EXTRACT: note_off channel=9 note=42 velocity=0 time=0.012254895833333333
EXTRACT: note_off channel=0 note=31 velocity=0 time=0.06433820312499999
EXTRACT: note_off channel=3 note=55 velocity=0 time=0.009191171875
EXTRACT: note_off channel=3 note=62 velocity=0 time=0
EXTRACT: note_off channel=2 note=76 velocity=0 time=0.012254895833333333
EXTRACT: note_on channel=0 note=31 velocity=117 time=0.04901958333333333
EXTRACT: note_on channel=9 note=40 velocity=116 time=0
EXTRACT: note_on channel=9 note=42 velocity=100 time=0
EXTRACT: note_off channel=9 note=40 velocity=0 time=0.012254895833333333
EXTRACT: note_off channel=9 note=42 velocity=0 time=0
EXTRACT: note_off channel=11 note=43 velocity=0 time=0.12561268229166667
EXTRACT: note_off channel=11 note=50 velocity=0 time=0
EXTRACT: note_off channel=11 note=55 velocity=0 time=0
EXTRACT: note_off channel=11 note=59 velocity=0 time=0
EXTRACT: note_off channel=11 note=62 velocity=0 time=0
EXTRACT: note_off channel=11 note=67 velocity=0 time=0
EXTRACT: note_off channel=12 note=43 velocity=0 time=0
EXTRACT: note_off channel=12 note=50 velocity=0 time=0
EXTRACT: note_off channel=12 note=55 velocity=0 time=0
EXTRACT: note_off channel=12 note=59 velocity=0 time=0
EXTRACT: note_off channel=12 note=62 velocity=0 time=0
EXTRACT: note_off channel=12 note=67 velocity=0 time=0
EXTRACT: note_on channel=3 note=55 velocity=114 time=0.009191171875
EXTRACT: note_on channel=3 note=62 velocity=108 time=0
EXTRACT: note_on channel=9 note=42 velocity=48 time=0
EXTRACT: note_on channel=11 note=43 velocity=67 time=0
EXTRACT: note_on channel=11 note=50 velocity=85 time=0
EXTRACT: note_on channel=11 note=55 velocity=69 time=0
EXTRACT: note_on channel=11 note=59 velocity=73 time=0
EXTRACT: note_on channel=11 note=62 velocity=83 time=0
EXTRACT: note_on channel=11 note=67 velocity=77 time=0
EXTRACT: note_on channel=12 note=43 velocity=71 time=0
EXTRACT: note_on channel=12 note=50 velocity=88 time=0
EXTRACT: note_on channel=12 note=55 velocity=71 time=0
EXTRACT: note_on channel=12 note=59 velocity=79 time=0
EXTRACT: note_on channel=12 note=62 velocity=89 time=0
EXTRACT: note_on channel=12 note=67 velocity=82 time=0
EXTRACT: note_off channel=9 note=42 velocity=0 time=0.012254895833333333
EXTRACT: note_off channel=3 note=55 velocity=0 time=0.073529375
EXTRACT: note_off channel=3 note=62 velocity=0 time=0
EXTRACT: note_off channel=0 note=31 velocity=0 time=0.015318619791666667
EXTRACT: note_off channel=11 note=43 velocity=0 time=0.0367646875
EXTRACT: note_off channel=11 note=50 velocity=0 time=0
EXTRACT: note_off channel=11 note=55 velocity=0 time=0
EXTRACT: note_off channel=11 note=59 velocity=0 time=0
EXTRACT: note_off channel=11 note=62 velocity=0 time=0
EXTRACT: note_off channel=11 note=67 velocity=0 time=0
EXTRACT: note_off channel=12 note=43 velocity=0 time=0
EXTRACT: note_off channel=12 note=50 velocity=0 time=0
EXTRACT: note_off channel=12 note=55 velocity=0 time=0
EXTRACT: note_off channel=12 note=59 velocity=0 time=0
EXTRACT: note_off channel=12 note=62 velocity=0 time=0
EXTRACT: note_off channel=12 note=67 velocity=0 time=0
EXTRACT: note_on channel=0 note=31 velocity=123 time=0.009191171875
EXTRACT: note_on channel=3 note=55 velocity=111 time=0
EXTRACT: note_on channel=3 note=62 velocity=111 time=0
EXTRACT: note_on channel=9 note=42 velocity=39 time=0
EXTRACT: note_on channel=11 note=43 velocity=102 time=0
EXTRACT: note_on channel=11 note=50 velocity=97 time=0
EXTRACT: note_on channel=11 note=55 velocity=96 time=0
EXTRACT: note_on channel=11 note=59 velocity=97 time=0
EXTRACT: note_on channel=11 note=62 velocity=100 time=0
EXTRACT: note_on channel=11 note=67 velocity=91 time=0
EXTRACT: note_on channel=12 note=43 velocity=99 time=0
EXTRACT: note_on channel=12 note=50 velocity=102 time=0
EXTRACT: note_on channel=12 note=55 velocity=98 time=0
EXTRACT: note_on channel=12 note=59 velocity=98 time=0
EXTRACT: note_on channel=12 note=62 velocity=102 time=0
EXTRACT: note_on channel=12 note=67 velocity=97 time=0
EXTRACT: note_off channel=9 note=42 velocity=0 time=0.012254895833333333
EXTRACT: note_off channel=3 note=55 velocity=0 time=0.073529375
EXTRACT: note_off channel=3 note=62 velocity=0 time=0
EXTRACT: note_off channel=0 note=31 velocity=0 time=0.05514703125
EXTRACT: note_off channel=1 note=79 velocity=0 time=0.0061274479166666665
EXTRACT: note_off channel=1 note=67 velocity=0 time=0
EXTRACT: note_off channel=1 note=71 velocity=0 time=0
EXTRACT: note_off channel=1 note=74 velocity=0 time=0
EXTRACT: note_off channel=11 note=43 velocity=0 time=0
EXTRACT: note_off channel=11 note=50 velocity=0 time=0
EXTRACT: note_off channel=11 note=55 velocity=0 time=0
EXTRACT: note_off channel=11 note=59 velocity=0 time=0
EXTRACT: note_off channel=11 note=62 velocity=0 time=0
EXTRACT: note_off channel=11 note=67 velocity=0 time=0
EXTRACT: note_off channel=12 note=43 velocity=0 time=0
EXTRACT: note_off channel=12 note=50 velocity=0 time=0
EXTRACT: note_off channel=12 note=55 velocity=0 time=0
EXTRACT: note_off channel=12 note=59 velocity=0 time=0
EXTRACT: note_off channel=12 note=62 velocity=0 time=0
EXTRACT: note_off channel=12 note=67 velocity=0 time=0
