EXTRACT: control_change channel=0 control=101 value=0 time=0
EXTRACT: control_change channel=0 control=100 value=0 time=0
EXTRACT: control_change channel=0 control=6 value=12 time=0
EXTRACT: control_change channel=0 control=38 value=0 time=0
EXTRACT: control_change channel=1 control=101 value=0 time=0
EXTRACT: control_change channel=1 control=100 value=0 time=0
EXTRACT: control_change channel=1 control=6 value=12 time=0
EXTRACT: control_change channel=1 control=38 value=0 time=0
EXTRACT: control_change channel=2 control=101 value=0 time=0
EXTRACT: control_change channel=2 control=100 value=0 time=0
EXTRACT: control_change channel=2 control=6 value=12 time=0
EXTRACT: control_change channel=2 control=38 value=0 time=0
EXTRACT: control_change channel=3 control=101 value=0 time=0
EXTRACT: control_change channel=3 control=100 value=0 time=0
EXTRACT: control_change channel=3 control=6 value=12 time=0
EXTRACT: control_change channel=3 control=38 value=0 time=0
EXTRACT: control_change channel=4 control=101 value=0 time=0
EXTRACT: control_change channel=4 control=100 value=0 time=0
EXTRACT: control_change channel=4 control=6 value=12 time=0
EXTRACT: control_change channel=4 control=38 value=0 time=0
EXTRACT: control_change channel=5 control=101 value=0 time=0
EXTRACT: control_change channel=5 control=100 value=0 time=0
EXTRACT: control_change channel=5 control=6 value=12 time=0
EXTRACT: control_change channel=5 control=38 value=0 time=0
EXTRACT: control_change channel=6 control=101 value=0 time=0
EXTRACT: control_change channel=6 control=100 value=0 time=0
EXTRACT: control_change channel=6 control=6 value=12 time=0
EXTRACT: control_change channel=6 control=38 value=0 time=0
EXTRACT: control_change channel=7 control=101 value=0 time=0
EXTRACT: control_change channel=7 control=100 value=0 time=0
EXTRACT: control_change channel=7 control=6 value=12 time=0
EXTRACT: control_change channel=7 control=38 value=0 time=0
EXTRACT: control_change channel=8 control=101 value=0 time=0
EXTRACT: control_change channel=8 control=100 value=0 time=0
EXTRACT: control_change channel=8 control=6 value=12 time=0
EXTRACT: control_change channel=8 control=38 value=0 time=0
EXTRACT: control_change channel=9 control=101 value=0 time=0
EXTRACT: control_change channel=9 control=100 value=0 time=0
EXTRACT: control_change channel=9 control=6 value=12 time=0
EXTRACT: control_change channel=9 control=38 value=0 time=0
EXTRACT: control_change channel=10 control=101 value=0 time=0
EXTRACT: control_change channel=10 control=100 value=0 time=0
EXTRACT: control_change channel=10 control=6 value=12 time=0
EXTRACT: control_change channel=10 control=38 value=0 time=0
EXTRACT: control_change channel=11 control=101 value=0 time=0
EXTRACT: control_change channel=11 control=100 value=0 time=0
EXTRACT: control_change channel=11 control=6 value=12 time=0
EXTRACT: control_change channel=11 control=38 value=0 time=0
EXTRACT: control_change channel=12 control=101 value=0 time=0
EXTRACT: control_change channel=12 control=100 value=0 time=0
EXTRACT: control_change channel=12 control=6 value=12 time=0
EXTRACT: control_change channel=12 control=38 value=0 time=0
EXTRACT: control_change channel=13 control=101 value=0 time=0
EXTRACT: control_change channel=13 control=100 value=0 time=0
EXTRACT: control_change channel=13 control=6 value=12 time=0
EXTRACT: control_change channel=13 control=38 value=0 time=0
EXTRACT: control_change channel=14 control=101 value=0 time=0
EXTRACT: control_change channel=14 control=100 value=0 time=0
EXTRACT: control_change channel=14 control=6 value=12 time=0
EXTRACT: control_change channel=14 control=38 value=0 time=0
EXTRACT: control_change channel=15 control=101 value=0 time=0
EXTRACT: control_change channel=15 control=100 value=0 time=0
EXTRACT: control_change channel=15 control=6 value=12 time=0
EXTRACT: control_change channel=15 control=38 value=0 time=0
EXTRACT: pitchwheel channel=0 pitch=0 time=0
EXTRACT: control_change channel=0 control=7 value=63 time=0
EXTRACT: control_change channel=0 control=10 value=63 time=0
EXTRACT: control_change channel=0 control=93 value=0 time=0
EXTRACT: control_change channel=0 control=91 value=0 time=0
EXTRACT: control_change channel=0 control=95 value=0 time=0
EXTRACT: control_change channel=0 control=92 value=0 time=0
EXTRACT: control_change channel=0 control=11 value=127 time=0
EXTRACT: program_change channel=0 program=27 time=0
EXTRACT: control_change channel=1 control=7 value=63 time=0
EXTRACT: control_change channel=1 control=10 value=63 time=0
EXTRACT: control_change channel=1 control=93 value=0 time=0
EXTRACT: control_change channel=1 control=91 value=0 time=0
EXTRACT: control_change channel=1 control=95 value=0 time=0
EXTRACT: control_change channel=1 control=92 value=0 time=0
EXTRACT: control_change channel=1 control=11 value=127 time=0
EXTRACT: program_change channel=1 program=27 time=0
EXTRACT: pitchwheel channel=2 pitch=0 time=0
EXTRACT: control_change channel=2 control=7 value=127 time=0
EXTRACT: control_change channel=2 control=10 value=63 time=0
EXTRACT: control_change channel=2 control=93 value=0 time=0
EXTRACT: control_change channel=2 control=91 value=0 time=0
EXTRACT: control_change channel=2 control=95 value=0 time=0
EXTRACT: control_change channel=2 control=92 value=0 time=0
EXTRACT: control_change channel=2 control=11 value=127 time=0
EXTRACT: program_change channel=2 program=27 time=0
EXTRACT: control_change channel=3 control=7 value=127 time=0
EXTRACT: control_change channel=3 control=10 value=63 time=0
EXTRACT: control_change channel=3 control=93 value=0 time=0
EXTRACT: control_change channel=3 control=91 value=0 time=0
EXTRACT: control_change channel=3 control=95 value=0 time=0
EXTRACT: control_change channel=3 control=92 value=0 time=0
EXTRACT: control_change channel=3 control=11 value=127 time=0
EXTRACT: program_change channel=3 program=27 time=0
EXTRACT: pitchwheel channel=4 pitch=0 time=0
EXTRACT: control_change channel=4 control=7 value=127 time=0
EXTRACT: control_change channel=4 control=10 value=63 time=0
EXTRACT: control_change channel=4 control=93 value=0 time=0
EXTRACT: control_change channel=4 control=91 value=0 time=0
EXTRACT: control_change channel=4 control=95 value=0 time=0
EXTRACT: control_change channel=4 control=92 value=0 time=0
EXTRACT: control_change channel=4 control=11 value=127 time=0
EXTRACT: program_change channel=4 program=25 time=0
EXTRACT: control_change channel=5 control=7 value=127 time=0
EXTRACT: control_change channel=5 control=10 value=63 time=0
EXTRACT: control_change channel=5 control=93 value=0 time=0
EXTRACT: control_change channel=5 control=91 value=0 time=0
EXTRACT: control_change channel=5 control=95 value=0 time=0
EXTRACT: control_change channel=5 control=92 value=0 time=0
EXTRACT: control_change channel=5 control=11 value=127 time=0
EXTRACT: program_change channel=5 program=25 time=0
EXTRACT: pitchwheel channel=6 pitch=0 time=0
EXTRACT: control_change channel=6 control=7 value=127 time=0
EXTRACT: control_change channel=6 control=10 value=63 time=0
EXTRACT: control_change channel=6 control=93 value=0 time=0
EXTRACT: control_change channel=6 control=91 value=0 time=0
EXTRACT: control_change channel=6 control=95 value=0 time=0
EXTRACT: control_change channel=6 control=92 value=0 time=0
EXTRACT: control_change channel=6 control=11 value=127 time=0
EXTRACT: program_change channel=6 program=56 time=0
EXTRACT: control_change channel=7 control=7 value=127 time=0
EXTRACT: control_change channel=7 control=10 value=63 time=0
EXTRACT: control_change channel=7 control=93 value=0 time=0
EXTRACT: control_change channel=7 control=91 value=0 time=0
EXTRACT: control_change channel=7 control=95 value=0 time=0
EXTRACT: control_change channel=7 control=92 value=0 time=0
EXTRACT: control_change channel=7 control=11 value=127 time=0
EXTRACT: program_change channel=7 program=56 time=0
EXTRACT: pitchwheel channel=12 pitch=0 time=0
EXTRACT: control_change channel=12 control=7 value=127 time=0
EXTRACT: control_change channel=12 control=10 value=63 time=0
EXTRACT: control_change channel=12 control=93 value=0 time=0
EXTRACT: control_change channel=12 control=91 value=0 time=0
EXTRACT: control_change channel=12 control=95 value=0 time=0
EXTRACT: control_change channel=12 control=92 value=0 time=0
EXTRACT: control_change channel=12 control=11 value=127 time=0
EXTRACT: program_change channel=12 program=33 time=0
EXTRACT: control_change channel=13 control=7 value=127 time=0
EXTRACT: control_change channel=13 control=10 value=63 time=0
EXTRACT: control_change channel=13 control=93 value=0 time=0
EXTRACT: control_change channel=13 control=91 value=0 time=0
EXTRACT: control_change channel=13 control=95 value=0 time=0
EXTRACT: control_change channel=13 control=92 value=0 time=0
EXTRACT: control_change channel=13 control=11 value=127 time=0
EXTRACT: program_change channel=13 program=33 time=0
EXTRACT: note_on channel=12 note=37 velocity=95 time=0
EXTRACT: pitchwheel channel=14 pitch=0 time=0
EXTRACT: control_change channel=14 control=7 value=127 time=0
EXTRACT: control_change channel=14 control=10 value=63 time=0
EXTRACT: control_change channel=14 control=93 value=0 time=0
EXTRACT: control_change channel=14 control=91 value=0 time=0
EXTRACT: control_change channel=14 control=95 value=0 time=0
EXTRACT: control_change channel=14 control=92 value=0 time=0
EXTRACT: control_change channel=14 control=11 value=127 time=0
EXTRACT: program_change channel=14 program=56 time=0
EXTRACT: control_change channel=15 control=7 value=127 time=0
EXTRACT: control_change channel=15 control=10 value=63 time=0
EXTRACT: control_change channel=15 control=93 value=0 time=0
EXTRACT: control_change channel=15 control=91 value=0 time=0
EXTRACT: control_change channel=15 control=95 value=0 time=0
EXTRACT: control_change channel=15 control=92 value=0 time=0
EXTRACT: control_change channel=15 control=11 value=127 time=0
EXTRACT: program_change channel=15 program=56 time=0
EXTRACT: pitchwheel channel=9 pitch=0 time=0
EXTRACT: control_change channel=9 control=7 value=127 time=0
EXTRACT: control_change channel=9 control=10 value=63 time=0
EXTRACT: control_change channel=9 control=93 value=0 time=0
EXTRACT: control_change channel=9 control=91 value=0 time=0
EXTRACT: control_change channel=9 control=95 value=0 time=0
EXTRACT: control_change channel=9 control=92 value=0 time=0
EXTRACT: control_change channel=9 control=11 value=127 time=0
EXTRACT: program_change channel=9 program=0 time=0
EXTRACT: note_on channel=9 note=42 velocity=95 time=0
EXTRACT: note_on channel=9 note=36 velocity=95 time=0
EXTRACT: note_on channel=0 note=73 velocity=95 time=0.1666665
EXTRACT: note_on channel=0 note=68 velocity=95 time=0
EXTRACT: note_on channel=0 note=64 velocity=95 time=0
EXTRACT: note_on channel=0 note=61 velocity=95 time=0
EXTRACT: note_off channel=9 note=42 velocity=95 time=0
EXTRACT: note_off channel=9 note=36 velocity=95 time=0
EXTRACT: note_off channel=0 note=73 velocity=95 time=0.1666665
EXTRACT: note_off channel=0 note=68 velocity=95 time=0
EXTRACT: note_off channel=0 note=64 velocity=95 time=0
EXTRACT: note_off channel=0 note=61 velocity=95 time=0
EXTRACT: note_on channel=6 note=80 velocity=95 time=0
EXTRACT: note_on channel=6 note=68 velocity=95 time=0
EXTRACT: note_on channel=9 note=42 velocity=95 time=0
EXTRACT: note_on channel=9 note=40 velocity=95 time=0
EXTRACT: note_on channel=0 note=73 velocity=95 time=0.1666665
EXTRACT: note_on channel=0 note=68 velocity=95 time=0
EXTRACT: note_on channel=0 note=64 velocity=95 time=0
EXTRACT: note_on channel=0 note=61 velocity=95 time=0
EXTRACT: note_off channel=6 note=80 velocity=95 time=0
EXTRACT: note_off channel=6 note=68 velocity=95 time=0
EXTRACT: note_off channel=12 note=37 velocity=95 time=0
EXTRACT: note_on channel=12 note=44 velocity=95 time=0
EXTRACT: note_off channel=9 note=42 velocity=95 time=0
EXTRACT: note_off channel=9 note=40 velocity=95 time=0
EXTRACT: note_on channel=9 note=42 velocity=95 time=0
EXTRACT: note_off channel=0 note=73 velocity=95 time=0.1666665
EXTRACT: note_off channel=0 note=68 velocity=95 time=0
EXTRACT: note_off channel=0 note=64 velocity=95 time=0
EXTRACT: note_off channel=0 note=61 velocity=95 time=0
EXTRACT: note_on channel=6 note=80 velocity=95 time=0
EXTRACT: note_on channel=6 note=68 velocity=95 time=0
EXTRACT: note_off channel=12 note=44 velocity=95 time=0
EXTRACT: note_on channel=12 note=44 velocity=95 time=0
EXTRACT: note_off channel=9 note=42 velocity=95 time=0
EXTRACT: note_on channel=9 note=42 velocity=95 time=0
EXTRACT: note_on channel=9 note=36 velocity=95 time=0
EXTRACT: note_on channel=0 note=73 velocity=95 time=0.1666665
EXTRACT: note_on channel=0 note=68 velocity=95 time=0
EXTRACT: note_on channel=0 note=64 velocity=95 time=0
EXTRACT: note_on channel=0 note=61 velocity=95 time=0
EXTRACT: note_off channel=6 note=80 velocity=95 time=0
EXTRACT: note_off channel=6 note=68 velocity=95 time=0
EXTRACT: note_off channel=9 note=42 velocity=95 time=0
EXTRACT: note_off channel=9 note=36 velocity=95 time=0
EXTRACT: note_off channel=0 note=73 velocity=95 time=0.1666665
EXTRACT: note_off channel=0 note=68 velocity=95 time=0
EXTRACT: note_off channel=0 note=64 velocity=95 time=0
EXTRACT: note_off channel=0 note=61 velocity=95 time=0
EXTRACT: note_off channel=12 note=44 velocity=95 time=0
EXTRACT: note_on channel=12 note=42 velocity=95 time=0
EXTRACT: note_on channel=9 note=42 velocity=95 time=0
EXTRACT: note_on channel=9 note=40 velocity=95 time=0
EXTRACT: note_on channel=0 note=73 velocity=95 time=0.1666665
EXTRACT: note_on channel=0 note=68 velocity=95 time=0
EXTRACT: note_on channel=0 note=64 velocity=95 time=0
EXTRACT: note_on channel=0 note=61 velocity=95 time=0
EXTRACT: note_on channel=6 note=76 velocity=95 time=0
EXTRACT: note_on channel=6 note=64 velocity=95 time=0
EXTRACT: note_off channel=12 note=42 velocity=95 time=0
EXTRACT: note_on channel=12 note=44 velocity=70 time=0
EXTRACT: note_off channel=9 note=42 velocity=95 time=0
EXTRACT: note_off channel=9 note=40 velocity=95 time=0
EXTRACT: note_on channel=9 note=42 velocity=95 time=0
EXTRACT: note_off channel=0 note=73 velocity=95 time=0.1666665
EXTRACT: note_off channel=0 note=68 velocity=95 time=0
EXTRACT: note_off channel=0 note=64 velocity=95 time=0
EXTRACT: note_off channel=0 note=61 velocity=95 time=0
EXTRACT: note_off channel=6 note=76 velocity=95 time=0
EXTRACT: note_off channel=6 note=64 velocity=95 time=0
EXTRACT: note_on channel=6 note=78 velocity=95 time=0
EXTRACT: note_on channel=6 note=66 velocity=95 time=0
EXTRACT: note_off channel=12 note=44 velocity=70 time=0
EXTRACT: note_on channel=12 note=37 velocity=95 time=0
EXTRACT: note_off channel=9 note=42 velocity=95 time=0
EXTRACT: note_on channel=9 note=42 velocity=95 time=0
EXTRACT: note_on channel=9 note=36 velocity=95 time=0
EXTRACT: note_on channel=0 note=73 velocity=95 time=0.1666665
EXTRACT: note_on channel=0 note=68 velocity=95 time=0
EXTRACT: note_on channel=0 note=64 velocity=95 time=0
EXTRACT: note_on channel=0 note=61 velocity=95 time=0
EXTRACT: note_off channel=6 note=78 velocity=95 time=0
EXTRACT: note_off channel=6 note=66 velocity=95 time=0
EXTRACT: note_on channel=6 note=81 velocity=95 time=0
EXTRACT: note_on channel=6 note=69 velocity=95 time=0
EXTRACT: note_off channel=9 note=42 velocity=95 time=0
EXTRACT: note_off channel=9 note=36 velocity=95 time=0
EXTRACT: note_off channel=0 note=73 velocity=95 time=0.1666665
EXTRACT: note_off channel=0 note=68 velocity=95 time=0
EXTRACT: note_off channel=0 note=64 velocity=95 time=0
EXTRACT: note_off channel=0 note=61 velocity=95 time=0
EXTRACT: note_off channel=6 note=81 velocity=95 time=0
EXTRACT: note_off channel=6 note=69 velocity=95 time=0
EXTRACT: note_on channel=9 note=42 velocity=95 time=0
EXTRACT: note_on channel=9 note=40 velocity=95 time=0
EXTRACT: note_on channel=0 note=73 velocity=95 time=0.1666665
EXTRACT: note_on channel=0 note=68 velocity=95 time=0
EXTRACT: note_on channel=0 note=64 velocity=95 time=0
EXTRACT: note_on channel=0 note=61 velocity=95 time=0
EXTRACT: note_on channel=6 note=81 velocity=95 time=0
EXTRACT: note_on channel=6 note=69 velocity=95 time=0
EXTRACT: note_off channel=12 note=37 velocity=95 time=0
EXTRACT: note_on channel=12 note=44 velocity=95 time=0
EXTRACT: note_off channel=9 note=42 velocity=95 time=0
EXTRACT: note_off channel=9 note=40 velocity=95 time=0
EXTRACT: note_on channel=9 note=42 velocity=95 time=0
EXTRACT: note_off channel=0 note=73 velocity=95 time=0.1666665
EXTRACT: note_off channel=0 note=68 velocity=95 time=0
EXTRACT: note_off channel=0 note=64 velocity=95 time=0
EXTRACT: note_off channel=0 note=61 velocity=95 time=0
EXTRACT: note_off channel=6 note=81 velocity=95 time=0
EXTRACT: note_off channel=6 note=69 velocity=95 time=0
EXTRACT: note_off channel=12 note=44 velocity=95 time=0
EXTRACT: note_on channel=12 note=44 velocity=95 time=0
EXTRACT: note_off channel=9 note=42 velocity=95 time=0
EXTRACT: note_on channel=9 note=42 velocity=95 time=0
EXTRACT: note_on channel=0 note=73 velocity=95 time=0.1666665
EXTRACT: note_on channel=0 note=68 velocity=95 time=0
EXTRACT: note_on channel=0 note=64 velocity=95 time=0
EXTRACT: note_on channel=0 note=61 velocity=95 time=0
EXTRACT: note_on channel=6 note=80 velocity=95 time=0
EXTRACT: note_on channel=6 note=68 velocity=95 time=0
EXTRACT: note_off channel=9 note=42 velocity=95 time=0
EXTRACT: note_on channel=9 note=36 velocity=95 time=0
EXTRACT: note_off channel=0 note=73 velocity=95 time=0.1666665
EXTRACT: note_off channel=0 note=68 velocity=95 time=0
EXTRACT: note_off channel=0 note=64 velocity=95 time=0
EXTRACT: note_off channel=0 note=61 velocity=95 time=0
EXTRACT: note_off channel=12 note=44 velocity=95 time=0
EXTRACT: note_on channel=12 note=42 velocity=95 time=0
EXTRACT: note_off channel=9 note=36 velocity=95 time=0
EXTRACT: note_on channel=9 note=42 velocity=95 time=0
EXTRACT: note_on channel=9 note=40 velocity=95 time=0
EXTRACT: note_on channel=0 note=73 velocity=95 time=0.1666665
EXTRACT: note_on channel=0 note=68 velocity=95 time=0
EXTRACT: note_on channel=0 note=64 velocity=95 time=0
EXTRACT: note_on channel=0 note=61 velocity=95 time=0
EXTRACT: note_off channel=6 note=80 velocity=95 time=0
EXTRACT: note_off channel=6 note=68 velocity=95 time=0
EXTRACT: note_off channel=12 note=42 velocity=95 time=0
EXTRACT: note_on channel=12 note=44 velocity=70 time=0
EXTRACT: note_off channel=9 note=42 velocity=95 time=0
EXTRACT: note_off channel=9 note=40 velocity=95 time=0
EXTRACT: note_on channel=9 note=42 velocity=95 time=0
EXTRACT: note_off channel=0 note=73 velocity=95 time=0.1666665
EXTRACT: note_off channel=0 note=68 velocity=95 time=0
EXTRACT: note_off channel=0 note=64 velocity=95 time=0
EXTRACT: note_off channel=0 note=61 velocity=95 time=0
EXTRACT: note_off channel=12 note=44 velocity=70 time=0
EXTRACT: note_on channel=12 note=37 velocity=95 time=0
EXTRACT: note_off channel=9 note=42 velocity=95 time=0
EXTRACT: note_on channel=9 note=42 velocity=95 time=0
EXTRACT: note_on channel=9 note=36 velocity=95 time=0
EXTRACT: note_on channel=0 note=73 velocity=95 time=0.1666665
EXTRACT: note_on channel=0 note=68 velocity=95 time=0
EXTRACT: note_on channel=0 note=64 velocity=95 time=0
EXTRACT: note_on channel=0 note=61 velocity=95 time=0
EXTRACT: note_off channel=9 note=42 velocity=95 time=0
EXTRACT: note_off channel=9 note=36 velocity=95 time=0
EXTRACT: note_off channel=0 note=73 velocity=95 time=0.1666665
EXTRACT: note_off channel=0 note=68 velocity=95 time=0
EXTRACT: note_off channel=0 note=64 velocity=95 time=0
EXTRACT: note_off channel=0 note=61 velocity=95 time=0
EXTRACT: note_on channel=6 note=80 velocity=95 time=0
EXTRACT: note_on channel=6 note=68 velocity=95 time=0
EXTRACT: note_on channel=9 note=42 velocity=95 time=0
EXTRACT: note_on channel=9 note=40 velocity=95 time=0
EXTRACT: note_on channel=0 note=73 velocity=95 time=0.1666665
EXTRACT: note_on channel=0 note=68 velocity=95 time=0
EXTRACT: note_on channel=0 note=64 velocity=95 time=0
EXTRACT: note_on channel=0 note=61 velocity=95 time=0
EXTRACT: note_off channel=6 note=80 velocity=95 time=0
EXTRACT: note_off channel=6 note=68 velocity=95 time=0
EXTRACT: note_off channel=12 note=37 velocity=95 time=0
EXTRACT: note_on channel=12 note=44 velocity=95 time=0
EXTRACT: note_off channel=9 note=42 velocity=95 time=0
EXTRACT: note_off channel=9 note=40 velocity=95 time=0
EXTRACT: note_on channel=9 note=42 velocity=95 time=0
EXTRACT: note_off channel=0 note=73 velocity=95 time=0.1666665
EXTRACT: note_off channel=0 note=68 velocity=95 time=0
EXTRACT: note_off channel=0 note=64 velocity=95 time=0
EXTRACT: note_off channel=0 note=61 velocity=95 time=0
EXTRACT: note_on channel=6 note=80 velocity=95 time=0
EXTRACT: note_on channel=6 note=68 velocity=95 time=0
EXTRACT: note_off channel=12 note=44 velocity=95 time=0
EXTRACT: note_on channel=12 note=44 velocity=95 time=0
EXTRACT: note_off channel=9 note=42 velocity=95 time=0
EXTRACT: note_on channel=9 note=42 velocity=95 time=0
EXTRACT: note_on channel=9 note=36 velocity=95 time=0
EXTRACT: note_on channel=0 note=73 velocity=95 time=0.1666665
EXTRACT: note_on channel=0 note=68 velocity=95 time=0
EXTRACT: note_on channel=0 note=64 velocity=95 time=0
EXTRACT: note_on channel=0 note=61 velocity=95 time=0
EXTRACT: note_off channel=6 note=80 velocity=95 time=0
EXTRACT: note_off channel=6 note=68 velocity=95 time=0
EXTRACT: note_off channel=9 note=42 velocity=95 time=0
EXTRACT: note_off channel=9 note=36 velocity=95 time=0
EXTRACT: note_off channel=0 note=73 velocity=95 time=0.1666665
EXTRACT: note_off channel=0 note=68 velocity=95 time=0
EXTRACT: note_off channel=0 note=64 velocity=95 time=0
EXTRACT: note_off channel=0 note=61 velocity=95 time=0
EXTRACT: note_off channel=12 note=44 velocity=95 time=0
EXTRACT: note_on channel=12 note=42 velocity=95 time=0
EXTRACT: note_on channel=9 note=42 velocity=95 time=0
EXTRACT: note_on channel=9 note=40 velocity=95 time=0
EXTRACT: note_on channel=0 note=73 velocity=95 time=0.1666665
EXTRACT: note_on channel=0 note=68 velocity=95 time=0
EXTRACT: note_on channel=0 note=64 velocity=95 time=0
EXTRACT: note_on channel=0 note=61 velocity=95 time=0
EXTRACT: note_on channel=6 note=75 velocity=95 time=0
EXTRACT: note_on channel=6 note=63 velocity=95 time=0
EXTRACT: note_off channel=12 note=42 velocity=95 time=0
EXTRACT: note_on channel=12 note=44 velocity=70 time=0
EXTRACT: note_off channel=9 note=42 velocity=95 time=0
EXTRACT: note_off channel=9 note=40 velocity=95 time=0
EXTRACT: note_on channel=9 note=42 velocity=95 time=0
EXTRACT: note_off channel=0 note=73 velocity=95 time=0.1666665
EXTRACT: note_off channel=0 note=68 velocity=95 time=0
EXTRACT: note_off channel=0 note=64 velocity=95 time=0
EXTRACT: note_off channel=0 note=61 velocity=95 time=0
EXTRACT: note_off channel=6 note=75 velocity=95 time=0
EXTRACT: note_off channel=6 note=63 velocity=95 time=0
EXTRACT: note_on channel=6 note=75 velocity=95 time=0
EXTRACT: note_on channel=6 note=63 velocity=95 time=0
EXTRACT: note_off channel=12 note=44 velocity=70 time=0
EXTRACT: note_on channel=12 note=37 velocity=95 time=0
EXTRACT: note_off channel=9 note=42 velocity=95 time=0
EXTRACT: note_on channel=9 note=42 velocity=95 time=0
EXTRACT: note_on channel=9 note=36 velocity=95 time=0
EXTRACT: note_on channel=0 note=73 velocity=95 time=0.1666665
EXTRACT: note_on channel=0 note=68 velocity=95 time=0
EXTRACT: note_on channel=0 note=64 velocity=95 time=0
EXTRACT: note_on channel=0 note=61 velocity=95 time=0
EXTRACT: note_off channel=6 note=75 velocity=95 time=0
EXTRACT: note_off channel=6 note=63 velocity=95 time=0
EXTRACT: note_on channel=6 note=78 velocity=95 time=0
EXTRACT: note_on channel=6 note=66 velocity=95 time=0
EXTRACT: note_off channel=9 note=42 velocity=95 time=0
EXTRACT: note_off channel=9 note=36 velocity=95 time=0
EXTRACT: note_off channel=0 note=73 velocity=95 time=0.1666665
EXTRACT: note_off channel=0 note=68 velocity=95 time=0
EXTRACT: note_off channel=0 note=64 velocity=95 time=0
EXTRACT: note_off channel=0 note=61 velocity=95 time=0
EXTRACT: note_off channel=6 note=78 velocity=95 time=0
EXTRACT: note_off channel=6 note=66 velocity=95 time=0
EXTRACT: note_on channel=9 note=42 velocity=95 time=0
EXTRACT: note_on channel=9 note=40 velocity=95 time=0
EXTRACT: note_on channel=0 note=73 velocity=95 time=0.1666665
EXTRACT: note_on channel=0 note=68 velocity=95 time=0
EXTRACT: note_on channel=0 note=64 velocity=95 time=0
EXTRACT: note_on channel=0 note=61 velocity=95 time=0
EXTRACT: note_on channel=6 note=78 velocity=95 time=0
EXTRACT: note_on channel=6 note=66 velocity=95 time=0
EXTRACT: note_off channel=12 note=37 velocity=95 time=0
EXTRACT: note_on channel=12 note=44 velocity=95 time=0
EXTRACT: note_off channel=9 note=42 velocity=95 time=0
EXTRACT: note_off channel=9 note=40 velocity=95 time=0
EXTRACT: note_on channel=9 note=42 velocity=95 time=0
EXTRACT: note_off channel=0 note=73 velocity=95 time=0.1666665
EXTRACT: note_off channel=0 note=68 velocity=95 time=0
EXTRACT: note_off channel=0 note=64 velocity=95 time=0
EXTRACT: note_off channel=0 note=61 velocity=95 time=0
EXTRACT: note_off channel=6 note=78 velocity=95 time=0
EXTRACT: note_off channel=6 note=66 velocity=95 time=0
EXTRACT: note_off channel=12 note=44 velocity=95 time=0
EXTRACT: note_on channel=12 note=44 velocity=95 time=0
EXTRACT: note_off channel=9 note=42 velocity=95 time=0
EXTRACT: note_on channel=9 note=42 velocity=95 time=0
EXTRACT: note_on channel=0 note=73 velocity=95 time=0.1666665
EXTRACT: note_on channel=0 note=68 velocity=95 time=0
EXTRACT: note_on channel=0 note=64 velocity=95 time=0
EXTRACT: note_on channel=0 note=61 velocity=95 time=0
EXTRACT: note_on channel=6 note=76 velocity=95 time=0
EXTRACT: note_on channel=6 note=64 velocity=95 time=0
EXTRACT: note_off channel=9 note=42 velocity=95 time=0
EXTRACT: note_on channel=9 note=36 velocity=95 time=0
EXTRACT: note_off channel=0 note=73 velocity=95 time=0.1666665
EXTRACT: note_off channel=0 note=68 velocity=95 time=0
EXTRACT: note_off channel=0 note=64 velocity=95 time=0
EXTRACT: note_off channel=0 note=61 velocity=95 time=0
EXTRACT: note_off channel=12 note=44 velocity=95 time=0
EXTRACT: note_on channel=12 note=42 velocity=95 time=0
EXTRACT: note_off channel=9 note=36 velocity=95 time=0
EXTRACT: note_on channel=9 note=42 velocity=95 time=0
EXTRACT: note_on channel=9 note=40 velocity=95 time=0
EXTRACT: note_off channel=6 note=76 velocity=95 time=0.1041665625
EXTRACT: note_off channel=6 note=64 velocity=95 time=0
EXTRACT: note_on channel=0 note=73 velocity=95 time=0.062499937500000005
EXTRACT: note_on channel=0 note=68 velocity=95 time=0
EXTRACT: note_on channel=0 note=64 velocity=95 time=0
EXTRACT: note_on channel=0 note=61 velocity=95 time=0
EXTRACT: note_off channel=12 note=42 velocity=95 time=0
EXTRACT: note_on channel=12 note=44 velocity=70 time=0
EXTRACT: note_off channel=9 note=42 velocity=95 time=0
EXTRACT: note_off channel=9 note=40 velocity=95 time=0
EXTRACT: note_on channel=9 note=42 velocity=95 time=0
EXTRACT: note_off channel=0 note=73 velocity=95 time=0.1666665
EXTRACT: note_off channel=0 note=68 velocity=95 time=0
EXTRACT: note_off channel=0 note=64 velocity=95 time=0
EXTRACT: note_off channel=0 note=61 velocity=95 time=0
EXTRACT: note_off channel=12 note=44 velocity=70 time=0
EXTRACT: note_on channel=12 note=37 velocity=95 time=0
EXTRACT: note_off channel=9 note=42 velocity=95 time=0
EXTRACT: note_on channel=9 note=42 velocity=95 time=0
EXTRACT: note_on channel=9 note=36 velocity=95 time=0
EXTRACT: note_on channel=0 note=73 velocity=95 time=0.1666665
EXTRACT: note_on channel=0 note=68 velocity=95 time=0
EXTRACT: note_on channel=0 note=64 velocity=95 time=0
EXTRACT: note_on channel=0 note=61 velocity=95 time=0
EXTRACT: note_off channel=9 note=42 velocity=95 time=0
EXTRACT: note_off channel=9 note=36 velocity=95 time=0
EXTRACT: note_off channel=0 note=73 velocity=95 time=0.1666665
EXTRACT: note_off channel=0 note=68 velocity=95 time=0
EXTRACT: note_off channel=0 note=64 velocity=95 time=0
EXTRACT: note_off channel=0 note=61 velocity=95 time=0
EXTRACT: note_on channel=6 note=80 velocity=95 time=0
EXTRACT: note_on channel=6 note=68 velocity=95 time=0
EXTRACT: note_on channel=9 note=42 velocity=95 time=0
EXTRACT: note_on channel=9 note=40 velocity=95 time=0
EXTRACT: note_on channel=0 note=73 velocity=95 time=0.1666665
EXTRACT: note_on channel=0 note=68 velocity=95 time=0
EXTRACT: note_on channel=0 note=64 velocity=95 time=0
EXTRACT: note_on channel=0 note=61 velocity=95 time=0
EXTRACT: note_off channel=6 note=80 velocity=95 time=0
EXTRACT: note_off channel=6 note=68 velocity=95 time=0
EXTRACT: note_off channel=12 note=37 velocity=95 time=0
EXTRACT: note_on channel=12 note=44 velocity=95 time=0
EXTRACT: note_off channel=9 note=42 velocity=95 time=0
EXTRACT: note_off channel=9 note=40 velocity=95 time=0
EXTRACT: note_on channel=9 note=42 velocity=95 time=0
EXTRACT: note_off channel=0 note=73 velocity=95 time=0.1666665
EXTRACT: note_off channel=0 note=68 velocity=95 time=0
EXTRACT: note_off channel=0 note=64 velocity=95 time=0
EXTRACT: note_off channel=0 note=61 velocity=95 time=0
EXTRACT: note_on channel=6 note=80 velocity=95 time=0
EXTRACT: note_on channel=6 note=68 velocity=95 time=0
EXTRACT: note_off channel=12 note=44 velocity=95 time=0
EXTRACT: note_on channel=12 note=44 velocity=95 time=0
EXTRACT: note_off channel=9 note=42 velocity=95 time=0
EXTRACT: note_on channel=9 note=42 velocity=95 time=0
EXTRACT: note_on channel=9 note=36 velocity=95 time=0
EXTRACT: note_on channel=0 note=73 velocity=95 time=0.1666665
EXTRACT: note_on channel=0 note=68 velocity=95 time=0
EXTRACT: note_on channel=0 note=64 velocity=95 time=0
EXTRACT: note_on channel=0 note=61 velocity=95 time=0
EXTRACT: note_off channel=6 note=80 velocity=95 time=0
EXTRACT: note_off channel=6 note=68 velocity=95 time=0
EXTRACT: note_off channel=9 note=42 velocity=95 time=0
EXTRACT: note_off channel=9 note=36 velocity=95 time=0
EXTRACT: note_off channel=0 note=73 velocity=95 time=0.1666665
EXTRACT: note_off channel=0 note=68 velocity=95 time=0
EXTRACT: note_off channel=0 note=64 velocity=95 time=0
EXTRACT: note_off channel=0 note=61 velocity=95 time=0
EXTRACT: note_off channel=12 note=44 velocity=95 time=0
EXTRACT: note_on channel=12 note=42 velocity=95 time=0
EXTRACT: note_on channel=9 note=42 velocity=95 time=0
EXTRACT: note_on channel=9 note=40 velocity=95 time=0
EXTRACT: note_on channel=0 note=73 velocity=95 time=0.1666665
EXTRACT: note_on channel=0 note=68 velocity=95 time=0
EXTRACT: note_on channel=0 note=64 velocity=95 time=0
EXTRACT: note_on channel=0 note=61 velocity=95 time=0
EXTRACT: note_on channel=6 note=64 velocity=95 time=0
EXTRACT: note_on channel=6 note=76 velocity=95 time=0
EXTRACT: note_off channel=12 note=42 velocity=95 time=0
EXTRACT: note_on channel=12 note=44 velocity=70 time=0
EXTRACT: note_off channel=9 note=42 velocity=95 time=0
EXTRACT: note_off channel=9 note=40 velocity=95 time=0
EXTRACT: note_on channel=9 note=42 velocity=95 time=0
EXTRACT: note_off channel=0 note=73 velocity=95 time=0.1666665
EXTRACT: note_off channel=0 note=68 velocity=95 time=0
EXTRACT: note_off channel=0 note=64 velocity=95 time=0
EXTRACT: note_off channel=0 note=61 velocity=95 time=0
EXTRACT: note_off channel=6 note=64 velocity=95 time=0
EXTRACT: note_off channel=6 note=76 velocity=95 time=0
EXTRACT: note_on channel=6 note=78 velocity=95 time=0
EXTRACT: note_on channel=6 note=66 velocity=95 time=0
EXTRACT: note_off channel=12 note=44 velocity=70 time=0
EXTRACT: note_on channel=12 note=37 velocity=95 time=0
EXTRACT: note_off channel=9 note=42 velocity=95 time=0
EXTRACT: note_on channel=9 note=42 velocity=95 time=0
EXTRACT: note_on channel=9 note=36 velocity=95 time=0
EXTRACT: note_on channel=0 note=73 velocity=95 time=0.1666665
EXTRACT: note_on channel=0 note=68 velocity=95 time=0
EXTRACT: note_on channel=0 note=64 velocity=95 time=0
EXTRACT: note_on channel=0 note=61 velocity=95 time=0
EXTRACT: note_off channel=6 note=78 velocity=95 time=0
EXTRACT: note_off channel=6 note=66 velocity=95 time=0
EXTRACT: note_on channel=6 note=81 velocity=95 time=0
EXTRACT: note_on channel=6 note=69 velocity=95 time=0
EXTRACT: note_off channel=9 note=42 velocity=95 time=0
EXTRACT: note_off channel=9 note=36 velocity=95 time=0
EXTRACT: note_off channel=0 note=73 velocity=95 time=0.1666665
EXTRACT: note_off channel=0 note=68 velocity=95 time=0
EXTRACT: note_off channel=0 note=64 velocity=95 time=0
EXTRACT: note_off channel=0 note=61 velocity=95 time=0
EXTRACT: note_off channel=6 note=81 velocity=95 time=0
EXTRACT: note_off channel=6 note=69 velocity=95 time=0
EXTRACT: note_on channel=9 note=42 velocity=95 time=0
EXTRACT: note_on channel=9 note=40 velocity=95 time=0
EXTRACT: note_on channel=0 note=73 velocity=95 time=0.1666665
EXTRACT: note_on channel=0 note=68 velocity=95 time=0
EXTRACT: note_on channel=0 note=64 velocity=95 time=0
EXTRACT: note_on channel=0 note=61 velocity=95 time=0
EXTRACT: note_on channel=6 note=81 velocity=95 time=0
EXTRACT: note_on channel=6 note=69 velocity=95 time=0
EXTRACT: note_off channel=12 note=37 velocity=95 time=0
EXTRACT: note_on channel=12 note=44 velocity=95 time=0
EXTRACT: note_off channel=9 note=42 velocity=95 time=0
EXTRACT: note_off channel=9 note=40 velocity=95 time=0
EXTRACT: note_on channel=9 note=42 velocity=95 time=0
EXTRACT: note_off channel=0 note=73 velocity=95 time=0.1666665
EXTRACT: note_off channel=0 note=68 velocity=95 time=0
EXTRACT: note_off channel=0 note=64 velocity=95 time=0
EXTRACT: note_off channel=0 note=61 velocity=95 time=0
EXTRACT: note_off channel=6 note=81 velocity=95 time=0
EXTRACT: note_off channel=6 note=69 velocity=95 time=0
EXTRACT: note_off channel=12 note=44 velocity=95 time=0
EXTRACT: note_on channel=12 note=44 velocity=95 time=0
EXTRACT: note_off channel=9 note=42 velocity=95 time=0
EXTRACT: note_on channel=9 note=42 velocity=95 time=0
EXTRACT: note_on channel=0 note=73 velocity=95 time=0.1666665
EXTRACT: note_on channel=0 note=68 velocity=95 time=0
EXTRACT: note_on channel=0 note=64 velocity=95 time=0
EXTRACT: note_on channel=0 note=61 velocity=95 time=0
EXTRACT: note_on channel=6 note=80 velocity=95 time=0
EXTRACT: note_on channel=6 note=68 velocity=95 time=0
EXTRACT: note_off channel=9 note=42 velocity=95 time=0
EXTRACT: note_on channel=9 note=36 velocity=95 time=0
EXTRACT: note_off channel=0 note=73 velocity=95 time=0.1666665
EXTRACT: note_off channel=0 note=68 velocity=95 time=0
EXTRACT: note_off channel=0 note=64 velocity=95 time=0
EXTRACT: note_off channel=0 note=61 velocity=95 time=0
EXTRACT: note_off channel=12 note=44 velocity=95 time=0
EXTRACT: note_on channel=12 note=42 velocity=95 time=0
EXTRACT: note_off channel=9 note=36 velocity=95 time=0
EXTRACT: note_on channel=9 note=42 velocity=95 time=0
EXTRACT: note_on channel=9 note=40 velocity=95 time=0
EXTRACT: note_on channel=0 note=73 velocity=95 time=0.1666665
EXTRACT: note_on channel=0 note=68 velocity=95 time=0
EXTRACT: note_on channel=0 note=64 velocity=95 time=0
EXTRACT: note_on channel=0 note=61 velocity=95 time=0
EXTRACT: note_off channel=6 note=80 velocity=95 time=0
EXTRACT: note_off channel=6 note=68 velocity=95 time=0
EXTRACT: note_off channel=12 note=42 velocity=95 time=0
EXTRACT: note_on channel=12 note=44 velocity=70 time=0
EXTRACT: note_off channel=9 note=42 velocity=95 time=0
EXTRACT: note_off channel=9 note=40 velocity=95 time=0
EXTRACT: note_on channel=9 note=42 velocity=95 time=0
EXTRACT: note_off channel=0 note=73 velocity=95 time=0.1666665
EXTRACT: note_off channel=0 note=68 velocity=95 time=0
EXTRACT: note_off channel=0 note=64 velocity=95 time=0
EXTRACT: note_off channel=0 note=61 velocity=95 time=0
EXTRACT: note_off channel=12 note=44 velocity=70 time=0
EXTRACT: note_on channel=12 note=37 velocity=95 time=0
EXTRACT: note_off channel=9 note=42 velocity=95 time=0
EXTRACT: note_on channel=9 note=42 velocity=95 time=0
EXTRACT: note_on channel=9 note=36 velocity=95 time=0
EXTRACT: note_on channel=0 note=73 velocity=95 time=0.1666665
EXTRACT: note_on channel=0 note=68 velocity=95 time=0
EXTRACT: note_on channel=0 note=64 velocity=95 time=0
EXTRACT: note_on channel=0 note=61 velocity=95 time=0
EXTRACT: note_off channel=9 note=42 velocity=95 time=0
EXTRACT: note_off channel=9 note=36 velocity=95 time=0
EXTRACT: note_off channel=0 note=73 velocity=95 time=0.1666665
EXTRACT: note_off channel=0 note=68 velocity=95 time=0
EXTRACT: note_off channel=0 note=64 velocity=95 time=0
EXTRACT: note_off channel=0 note=61 velocity=95 time=0
EXTRACT: note_on channel=6 note=80 velocity=95 time=0
EXTRACT: note_on channel=6 note=68 velocity=95 time=0
EXTRACT: note_on channel=9 note=42 velocity=95 time=0
EXTRACT: note_on channel=9 note=40 velocity=95 time=0
EXTRACT: note_on channel=0 note=73 velocity=95 time=0.1666665
EXTRACT: note_on channel=0 note=68 velocity=95 time=0
EXTRACT: note_on channel=0 note=64 velocity=95 time=0
EXTRACT: note_on channel=0 note=61 velocity=95 time=0
EXTRACT: note_off channel=6 note=80 velocity=95 time=0
EXTRACT: note_off channel=6 note=68 velocity=95 time=0
EXTRACT: note_off channel=12 note=37 velocity=95 time=0
EXTRACT: note_on channel=12 note=44 velocity=95 time=0
EXTRACT: note_off channel=9 note=42 velocity=95 time=0
EXTRACT: note_off channel=9 note=40 velocity=95 time=0
EXTRACT: note_on channel=9 note=42 velocity=95 time=0
EXTRACT: note_off channel=0 note=73 velocity=95 time=0.1666665
EXTRACT: note_off channel=0 note=68 velocity=95 time=0
EXTRACT: note_off channel=0 note=64 velocity=95 time=0
EXTRACT: note_off channel=0 note=61 velocity=95 time=0
EXTRACT: note_on channel=6 note=80 velocity=95 time=0
EXTRACT: note_on channel=6 note=68 velocity=95 time=0
EXTRACT: note_off channel=12 note=44 velocity=95 time=0
EXTRACT: note_on channel=12 note=44 velocity=95 time=0
EXTRACT: note_off channel=9 note=42 velocity=95 time=0
EXTRACT: note_on channel=9 note=42 velocity=95 time=0
EXTRACT: note_on channel=9 note=36 velocity=95 time=0
EXTRACT: note_on channel=0 note=73 velocity=95 time=0.1666665
EXTRACT: note_on channel=0 note=68 velocity=95 time=0
EXTRACT: note_on channel=0 note=64 velocity=95 time=0
EXTRACT: note_on channel=0 note=61 velocity=95 time=0
EXTRACT: note_off channel=6 note=80 velocity=95 time=0
EXTRACT: note_off channel=6 note=68 velocity=95 time=0
EXTRACT: note_off channel=9 note=42 velocity=95 time=0
EXTRACT: note_off channel=9 note=36 velocity=95 time=0
EXTRACT: note_off channel=0 note=73 velocity=95 time=0.1666665
EXTRACT: note_off channel=0 note=68 velocity=95 time=0
EXTRACT: note_off channel=0 note=64 velocity=95 time=0
EXTRACT: note_off channel=0 note=61 velocity=95 time=0
EXTRACT: note_off channel=12 note=44 velocity=95 time=0
EXTRACT: note_on channel=12 note=42 velocity=95 time=0
EXTRACT: note_on channel=9 note=42 velocity=95 time=0
EXTRACT: note_on channel=9 note=40 velocity=95 time=0
EXTRACT: note_on channel=0 note=73 velocity=95 time=0.1666665
EXTRACT: note_on channel=0 note=68 velocity=95 time=0
EXTRACT: note_on channel=0 note=64 velocity=95 time=0
EXTRACT: note_on channel=0 note=61 velocity=95 time=0
EXTRACT: note_on channel=6 note=75 velocity=95 time=0
EXTRACT: note_on channel=6 note=63 velocity=95 time=0
EXTRACT: note_off channel=12 note=42 velocity=95 time=0
EXTRACT: note_on channel=12 note=44 velocity=70 time=0
EXTRACT: note_off channel=9 note=42 velocity=95 time=0
EXTRACT: note_off channel=9 note=40 velocity=95 time=0
EXTRACT: note_on channel=9 note=42 velocity=95 time=0
EXTRACT: note_off channel=0 note=73 velocity=95 time=0.1666665
EXTRACT: note_off channel=0 note=68 velocity=95 time=0
EXTRACT: note_off channel=0 note=64 velocity=95 time=0
EXTRACT: note_off channel=0 note=61 velocity=95 time=0
EXTRACT: note_off channel=6 note=75 velocity=95 time=0
EXTRACT: note_off channel=6 note=63 velocity=95 time=0
EXTRACT: note_on channel=6 note=75 velocity=95 time=0
EXTRACT: note_on channel=6 note=63 velocity=95 time=0
EXTRACT: note_off channel=12 note=44 velocity=70 time=0
EXTRACT: note_on channel=12 note=37 velocity=95 time=0
EXTRACT: note_off channel=9 note=42 velocity=95 time=0
EXTRACT: note_on channel=9 note=42 velocity=95 time=0
EXTRACT: note_on channel=9 note=36 velocity=95 time=0
EXTRACT: note_on channel=0 note=73 velocity=95 time=0.1666665
EXTRACT: note_on channel=0 note=68 velocity=95 time=0
EXTRACT: note_on channel=0 note=64 velocity=95 time=0
EXTRACT: note_on channel=0 note=61 velocity=95 time=0
EXTRACT: note_off channel=6 note=75 velocity=95 time=0
EXTRACT: note_off channel=6 note=63 velocity=95 time=0
EXTRACT: note_on channel=6 note=78 velocity=95 time=0
EXTRACT: note_on channel=6 note=66 velocity=95 time=0
EXTRACT: note_off channel=9 note=42 velocity=95 time=0
EXTRACT: note_off channel=9 note=36 velocity=95 time=0
EXTRACT: note_off channel=0 note=73 velocity=95 time=0.1666665
EXTRACT: note_off channel=0 note=68 velocity=95 time=0
EXTRACT: note_off channel=0 note=64 velocity=95 time=0
EXTRACT: note_off channel=0 note=61 velocity=95 time=0
EXTRACT: note_off channel=6 note=78 velocity=95 time=0
EXTRACT: note_off channel=6 note=66 velocity=95 time=0
EXTRACT: note_on channel=9 note=42 velocity=95 time=0
EXTRACT: note_on channel=9 note=40 velocity=95 time=0
EXTRACT: note_on channel=0 note=73 velocity=95 time=0.1666665
EXTRACT: note_on channel=0 note=68 velocity=95 time=0
EXTRACT: note_on channel=0 note=64 velocity=95 time=0
EXTRACT: note_on channel=0 note=61 velocity=95 time=0
EXTRACT: note_on channel=6 note=78 velocity=95 time=0
EXTRACT: note_on channel=6 note=66 velocity=95 time=0
EXTRACT: note_off channel=12 note=37 velocity=95 time=0
EXTRACT: note_on channel=12 note=44 velocity=95 time=0
EXTRACT: note_off channel=9 note=42 velocity=95 time=0
EXTRACT: note_off channel=9 note=40 velocity=95 time=0
EXTRACT: note_on channel=9 note=42 velocity=95 time=0
EXTRACT: note_off channel=0 note=73 velocity=95 time=0.1666665
EXTRACT: note_off channel=0 note=68 velocity=95 time=0
EXTRACT: note_off channel=0 note=64 velocity=95 time=0
EXTRACT: note_off channel=0 note=61 velocity=95 time=0
EXTRACT: note_off channel=6 note=78 velocity=95 time=0
EXTRACT: note_off channel=6 note=66 velocity=95 time=0
EXTRACT: note_off channel=12 note=44 velocity=95 time=0
EXTRACT: note_on channel=12 note=44 velocity=95 time=0
EXTRACT: note_off channel=9 note=42 velocity=95 time=0
EXTRACT: note_on channel=9 note=42 velocity=95 time=0
EXTRACT: note_on channel=0 note=73 velocity=95 time=0.1666665
EXTRACT: note_on channel=0 note=68 velocity=95 time=0
EXTRACT: note_on channel=0 note=64 velocity=95 time=0
EXTRACT: note_on channel=0 note=61 velocity=95 time=0
EXTRACT: note_on channel=6 note=76 velocity=95 time=0
EXTRACT: note_on channel=6 note=64 velocity=95 time=0
EXTRACT: note_off channel=9 note=42 velocity=95 time=0
EXTRACT: note_on channel=9 note=36 velocity=95 time=0
EXTRACT: note_off channel=0 note=73 velocity=95 time=0.1666665
EXTRACT: note_off channel=0 note=68 velocity=95 time=0
EXTRACT: note_off channel=0 note=64 velocity=95 time=0
EXTRACT: note_off channel=0 note=61 velocity=95 time=0
EXTRACT: note_off channel=12 note=44 velocity=95 time=0
EXTRACT: note_on channel=12 note=42 velocity=95 time=0
EXTRACT: note_off channel=9 note=36 velocity=95 time=0
EXTRACT: note_on channel=9 note=42 velocity=95 time=0
EXTRACT: note_on channel=9 note=40 velocity=95 time=0
EXTRACT: note_off channel=6 note=76 velocity=95 time=0.1041665625
EXTRACT: note_off channel=6 note=64 velocity=95 time=0
EXTRACT: note_on channel=0 note=73 velocity=95 time=0.062499937500000005
EXTRACT: note_on channel=0 note=68 velocity=95 time=0
EXTRACT: note_on channel=0 note=64 velocity=95 time=0
EXTRACT: note_on channel=0 note=61 velocity=95 time=0
EXTRACT: note_off channel=12 note=42 velocity=95 time=0
EXTRACT: note_on channel=12 note=44 velocity=70 time=0
EXTRACT: note_off channel=9 note=42 velocity=95 time=0
EXTRACT: note_off channel=9 note=40 velocity=95 time=0
EXTRACT: note_on channel=9 note=42 velocity=95 time=0
EXTRACT: note_off channel=0 note=73 velocity=95 time=0.1666665
EXTRACT: note_off channel=0 note=68 velocity=95 time=0
EXTRACT: note_off channel=0 note=64 velocity=95 time=0
EXTRACT: note_off channel=0 note=61 velocity=95 time=0
EXTRACT: note_off channel=12 note=44 velocity=70 time=0
EXTRACT: note_on channel=12 note=37 velocity=95 time=0
EXTRACT: note_off channel=9 note=42 velocity=95 time=0
EXTRACT: note_on channel=9 note=42 velocity=95 time=0
EXTRACT: note_on channel=9 note=36 velocity=95 time=0
EXTRACT: note_on channel=0 note=73 velocity=95 time=0.1666665
EXTRACT: note_on channel=0 note=68 velocity=95 time=0
EXTRACT: note_on channel=0 note=64 velocity=95 time=0
EXTRACT: note_on channel=0 note=61 velocity=95 time=0
EXTRACT: note_off channel=9 note=42 velocity=95 time=0
EXTRACT: note_off channel=9 note=36 velocity=95 time=0
EXTRACT: note_off channel=0 note=73 velocity=95 time=0.1666665
EXTRACT: note_off channel=0 note=68 velocity=95 time=0
EXTRACT: note_off channel=0 note=64 velocity=95 time=0
EXTRACT: note_off channel=0 note=61 velocity=95 time=0
EXTRACT: note_on channel=6 note=68 velocity=95 time=0
EXTRACT: note_on channel=6 note=56 velocity=95 time=0
EXTRACT: note_on channel=9 note=42 velocity=95 time=0
EXTRACT: note_on channel=9 note=40 velocity=95 time=0
EXTRACT: note_on channel=0 note=73 velocity=95 time=0.1666665
EXTRACT: note_on channel=0 note=68 velocity=95 time=0
EXTRACT: note_on channel=0 note=64 velocity=95 time=0
EXTRACT: note_on channel=0 note=61 velocity=95 time=0
EXTRACT: note_off channel=12 note=37 velocity=95 time=0
EXTRACT: note_on channel=12 note=44 velocity=95 time=0
EXTRACT: note_off channel=9 note=42 velocity=95 time=0
EXTRACT: note_off channel=9 note=40 velocity=95 time=0
EXTRACT: note_on channel=9 note=42 velocity=95 time=0
EXTRACT: note_off channel=6 note=68 velocity=95 time=0.1041665625
EXTRACT: note_off channel=6 note=56 velocity=95 time=0
EXTRACT: note_off channel=0 note=73 velocity=95 time=0.062499937500000005
EXTRACT: note_off channel=0 note=68 velocity=95 time=0
EXTRACT: note_off channel=0 note=64 velocity=95 time=0
EXTRACT: note_off channel=0 note=61 velocity=95 time=0
EXTRACT: note_on channel=6 note=68 velocity=95 time=0
EXTRACT: note_on channel=6 note=56 velocity=95 time=0
EXTRACT: note_off channel=12 note=44 velocity=95 time=0
EXTRACT: note_on channel=12 note=44 velocity=95 time=0
EXTRACT: note_off channel=9 note=42 velocity=95 time=0
EXTRACT: note_on channel=9 note=42 velocity=95 time=0
EXTRACT: note_on channel=9 note=36 velocity=95 time=0
EXTRACT: note_on channel=0 note=73 velocity=95 time=0.1666665
EXTRACT: note_on channel=0 note=68 velocity=95 time=0
EXTRACT: note_on channel=0 note=64 velocity=95 time=0
EXTRACT: note_on channel=0 note=61 velocity=95 time=0
EXTRACT: note_off channel=9 note=42 velocity=95 time=0
EXTRACT: note_off channel=9 note=36 velocity=95 time=0
EXTRACT: note_off channel=0 note=73 velocity=95 time=0.1666665
EXTRACT: note_off channel=0 note=68 velocity=95 time=0
EXTRACT: note_off channel=0 note=64 velocity=95 time=0
EXTRACT: note_off channel=0 note=61 velocity=95 time=0
EXTRACT: note_off channel=12 note=44 velocity=95 time=0
EXTRACT: note_on channel=12 note=42 velocity=95 time=0
EXTRACT: note_on channel=9 note=42 velocity=95 time=0
EXTRACT: note_on channel=9 note=40 velocity=95 time=0
EXTRACT: note_off channel=6 note=68 velocity=95 time=0.1041665625
EXTRACT: note_off channel=6 note=56 velocity=95 time=0
EXTRACT: note_on channel=0 note=73 velocity=95 time=0.062499937500000005
EXTRACT: note_on channel=0 note=68 velocity=95 time=0
EXTRACT: note_on channel=0 note=64 velocity=95 time=0
EXTRACT: note_on channel=0 note=61 velocity=95 time=0
EXTRACT: note_on channel=6 note=64 velocity=95 time=0
EXTRACT: note_on channel=6 note=52 velocity=95 time=0
EXTRACT: note_off channel=12 note=42 velocity=95 time=0
EXTRACT: note_on channel=12 note=44 velocity=70 time=0
EXTRACT: note_off channel=9 note=42 velocity=95 time=0
EXTRACT: note_off channel=9 note=40 velocity=95 time=0
EXTRACT: note_on channel=9 note=42 velocity=95 time=0
EXTRACT: note_off channel=0 note=73 velocity=95 time=0.1666665
EXTRACT: note_off channel=0 note=68 velocity=95 time=0
EXTRACT: note_off channel=0 note=64 velocity=95 time=0
EXTRACT: note_off channel=0 note=61 velocity=95 time=0
EXTRACT: note_off channel=6 note=64 velocity=95 time=0
EXTRACT: note_off channel=6 note=52 velocity=95 time=0
EXTRACT: note_on channel=6 note=66 velocity=95 time=0
EXTRACT: note_on channel=6 note=54 velocity=95 time=0
EXTRACT: note_off channel=12 note=44 velocity=70 time=0
EXTRACT: note_on channel=12 note=37 velocity=95 time=0
EXTRACT: note_off channel=9 note=42 velocity=95 time=0
EXTRACT: note_on channel=9 note=42 velocity=95 time=0
EXTRACT: note_on channel=9 note=36 velocity=95 time=0
EXTRACT: note_on channel=0 note=73 velocity=95 time=0.1666665
EXTRACT: note_on channel=0 note=68 velocity=95 time=0
EXTRACT: note_on channel=0 note=64 velocity=95 time=0
EXTRACT: note_on channel=0 note=61 velocity=95 time=0
EXTRACT: note_off channel=6 note=66 velocity=95 time=0
EXTRACT: note_off channel=6 note=54 velocity=95 time=0
EXTRACT: note_on channel=6 note=69 velocity=95 time=0
EXTRACT: note_on channel=6 note=57 velocity=95 time=0
EXTRACT: note_off channel=9 note=42 velocity=95 time=0
EXTRACT: note_off channel=9 note=36 velocity=95 time=0
EXTRACT: note_off channel=0 note=73 velocity=95 time=0.1666665
EXTRACT: note_off channel=0 note=68 velocity=95 time=0
EXTRACT: note_off channel=0 note=64 velocity=95 time=0
EXTRACT: note_off channel=0 note=61 velocity=95 time=0
EXTRACT: note_on channel=9 note=42 velocity=95 time=0
EXTRACT: note_on channel=9 note=40 velocity=95 time=0
EXTRACT: note_on channel=0 note=73 velocity=95 time=0.1666665
EXTRACT: note_on channel=0 note=68 velocity=95 time=0
EXTRACT: note_on channel=0 note=64 velocity=95 time=0
EXTRACT: note_on channel=0 note=61 velocity=95 time=0
EXTRACT: note_off channel=6 note=69 velocity=95 time=0
EXTRACT: note_off channel=6 note=57 velocity=95 time=0
EXTRACT: note_on channel=6 note=69 velocity=95 time=0
EXTRACT: note_on channel=6 note=57 velocity=95 time=0
EXTRACT: note_off channel=12 note=37 velocity=95 time=0
EXTRACT: note_on channel=12 note=44 velocity=95 time=0
EXTRACT: note_off channel=9 note=42 velocity=95 time=0
EXTRACT: note_off channel=9 note=40 velocity=95 time=0
EXTRACT: note_on channel=9 note=42 velocity=95 time=0
EXTRACT: note_off channel=0 note=73 velocity=95 time=0.1666665
EXTRACT: note_off channel=0 note=68 velocity=95 time=0
EXTRACT: note_off channel=0 note=64 velocity=95 time=0
EXTRACT: note_off channel=0 note=61 velocity=95 time=0
EXTRACT: note_off channel=12 note=44 velocity=95 time=0
EXTRACT: note_on channel=12 note=44 velocity=95 time=0
EXTRACT: note_off channel=9 note=42 velocity=95 time=0
EXTRACT: note_on channel=9 note=42 velocity=95 time=0
EXTRACT: note_on channel=0 note=73 velocity=95 time=0.1666665
EXTRACT: note_on channel=0 note=68 velocity=95 time=0
EXTRACT: note_on channel=0 note=64 velocity=95 time=0
EXTRACT: note_on channel=0 note=61 velocity=95 time=0
EXTRACT: note_off channel=6 note=69 velocity=95 time=0
EXTRACT: note_off channel=6 note=57 velocity=95 time=0
EXTRACT: note_on channel=6 note=68 velocity=95 time=0
EXTRACT: note_on channel=6 note=56 velocity=95 time=0
EXTRACT: note_off channel=9 note=42 velocity=95 time=0
EXTRACT: note_on channel=9 note=36 velocity=95 time=0
EXTRACT: note_off channel=0 note=73 velocity=95 time=0.1666665
EXTRACT: note_off channel=0 note=68 velocity=95 time=0
EXTRACT: note_off channel=0 note=64 velocity=95 time=0
EXTRACT: note_off channel=0 note=61 velocity=95 time=0
EXTRACT: note_off channel=12 note=44 velocity=95 time=0
EXTRACT: note_on channel=12 note=42 velocity=95 time=0
EXTRACT: note_off channel=9 note=36 velocity=95 time=0
EXTRACT: note_on channel=9 note=42 velocity=95 time=0
EXTRACT: note_on channel=9 note=40 velocity=95 time=0
EXTRACT: note_on channel=0 note=73 velocity=95 time=0.1666665
EXTRACT: note_on channel=0 note=68 velocity=95 time=0
EXTRACT: note_on channel=0 note=64 velocity=95 time=0
EXTRACT: note_on channel=0 note=61 velocity=95 time=0
EXTRACT: note_off channel=12 note=42 velocity=95 time=0
EXTRACT: note_on channel=12 note=44 velocity=70 time=0
EXTRACT: note_off channel=9 note=42 velocity=95 time=0
EXTRACT: note_off channel=9 note=40 velocity=95 time=0
EXTRACT: note_on channel=9 note=42 velocity=95 time=0
EXTRACT: note_off channel=6 note=68 velocity=95 time=0.1041665625
EXTRACT: note_off channel=6 note=56 velocity=95 time=0
EXTRACT: note_off channel=0 note=73 velocity=95 time=0.062499937500000005
EXTRACT: note_off channel=0 note=68 velocity=95 time=0
EXTRACT: note_off channel=0 note=64 velocity=95 time=0
EXTRACT: note_off channel=0 note=61 velocity=95 time=0
EXTRACT: note_off channel=12 note=44 velocity=70 time=0
EXTRACT: note_on channel=12 note=37 velocity=95 time=0
EXTRACT: note_off channel=9 note=42 velocity=95 time=0
EXTRACT: note_on channel=9 note=42 velocity=95 time=0
EXTRACT: note_on channel=9 note=36 velocity=95 time=0
EXTRACT: note_on channel=0 note=73 velocity=95 time=0.1666665
EXTRACT: note_on channel=0 note=68 velocity=95 time=0
EXTRACT: note_on channel=0 note=64 velocity=95 time=0
EXTRACT: note_on channel=0 note=61 velocity=95 time=0
EXTRACT: note_off channel=9 note=42 velocity=95 time=0
EXTRACT: note_off channel=9 note=36 velocity=95 time=0
EXTRACT: note_off channel=0 note=73 velocity=95 time=0.1666665
EXTRACT: note_off channel=0 note=68 velocity=95 time=0
EXTRACT: note_off channel=0 note=64 velocity=95 time=0
EXTRACT: note_off channel=0 note=61 velocity=95 time=0
EXTRACT: note_on channel=6 note=68 velocity=95 time=0
EXTRACT: note_on channel=6 note=56 velocity=95 time=0
EXTRACT: note_on channel=9 note=42 velocity=95 time=0
EXTRACT: note_on channel=9 note=40 velocity=95 time=0
EXTRACT: note_on channel=0 note=73 velocity=95 time=0.1666665
EXTRACT: note_on channel=0 note=68 velocity=95 time=0
EXTRACT: note_on channel=0 note=64 velocity=95 time=0
EXTRACT: note_on channel=0 note=61 velocity=95 time=0
EXTRACT: note_off channel=12 note=37 velocity=95 time=0
EXTRACT: note_on channel=12 note=44 velocity=95 time=0
EXTRACT: note_off channel=9 note=42 velocity=95 time=0
EXTRACT: note_off channel=9 note=40 velocity=95 time=0
EXTRACT: note_on channel=9 note=42 velocity=95 time=0
EXTRACT: note_off channel=6 note=68 velocity=95 time=0.1041665625
EXTRACT: note_off channel=6 note=56 velocity=95 time=0
EXTRACT: note_off channel=0 note=73 velocity=95 time=0.062499937500000005
EXTRACT: note_off channel=0 note=68 velocity=95 time=0
EXTRACT: note_off channel=0 note=64 velocity=95 time=0
EXTRACT: note_off channel=0 note=61 velocity=95 time=0
EXTRACT: note_on channel=6 note=68 velocity=95 time=0
EXTRACT: note_on channel=6 note=56 velocity=95 time=0
EXTRACT: note_off channel=12 note=44 velocity=95 time=0
EXTRACT: note_on channel=12 note=44 velocity=95 time=0
EXTRACT: note_off channel=9 note=42 velocity=95 time=0
EXTRACT: note_on channel=9 note=42 velocity=95 time=0
EXTRACT: note_on channel=9 note=36 velocity=95 time=0
EXTRACT: note_on channel=0 note=73 velocity=95 time=0.1666665
EXTRACT: note_on channel=0 note=68 velocity=95 time=0
EXTRACT: note_on channel=0 note=64 velocity=95 time=0
EXTRACT: note_on channel=0 note=61 velocity=95 time=0
EXTRACT: note_off channel=9 note=42 velocity=95 time=0
EXTRACT: note_off channel=9 note=36 velocity=95 time=0
EXTRACT: note_off channel=0 note=73 velocity=95 time=0.1666665
EXTRACT: note_off channel=0 note=68 velocity=95 time=0
EXTRACT: note_off channel=0 note=64 velocity=95 time=0
EXTRACT: note_off channel=0 note=61 velocity=95 time=0
EXTRACT: note_off channel=12 note=44 velocity=95 time=0
EXTRACT: note_on channel=12 note=42 velocity=95 time=0
EXTRACT: note_on channel=9 note=42 velocity=95 time=0
EXTRACT: note_on channel=9 note=40 velocity=95 time=0
EXTRACT: note_off channel=6 note=68 velocity=95 time=0.1041665625
EXTRACT: note_off channel=6 note=56 velocity=95 time=0
EXTRACT: note_on channel=0 note=73 velocity=95 time=0.062499937500000005
EXTRACT: note_on channel=0 note=68 velocity=95 time=0
EXTRACT: note_on channel=0 note=64 velocity=95 time=0
EXTRACT: note_on channel=0 note=61 velocity=95 time=0
EXTRACT: note_on channel=6 note=63 velocity=95 time=0
EXTRACT: note_on channel=6 note=51 velocity=95 time=0
EXTRACT: note_off channel=12 note=42 velocity=95 time=0
EXTRACT: note_on channel=12 note=44 velocity=70 time=0
EXTRACT: note_off channel=9 note=42 velocity=95 time=0
EXTRACT: note_off channel=9 note=40 velocity=95 time=0
EXTRACT: note_on channel=9 note=42 velocity=95 time=0
EXTRACT: note_off channel=0 note=73 velocity=95 time=0.1666665
EXTRACT: note_off channel=0 note=68 velocity=95 time=0
EXTRACT: note_off channel=0 note=64 velocity=95 time=0
EXTRACT: note_off channel=0 note=61 velocity=95 time=0
EXTRACT: note_off channel=6 note=63 velocity=95 time=0
EXTRACT: note_off channel=6 note=51 velocity=95 time=0
EXTRACT: note_on channel=6 note=63 velocity=95 time=0
EXTRACT: note_on channel=6 note=51 velocity=95 time=0
EXTRACT: note_off channel=12 note=44 velocity=70 time=0
EXTRACT: note_on channel=12 note=37 velocity=95 time=0
EXTRACT: note_off channel=9 note=42 velocity=95 time=0
EXTRACT: note_on channel=9 note=42 velocity=95 time=0
EXTRACT: note_on channel=9 note=36 velocity=95 time=0
EXTRACT: note_on channel=0 note=73 velocity=95 time=0.1666665
EXTRACT: note_on channel=0 note=68 velocity=95 time=0
EXTRACT: note_on channel=0 note=64 velocity=95 time=0
EXTRACT: note_on channel=0 note=61 velocity=95 time=0
EXTRACT: note_off channel=6 note=63 velocity=95 time=0
EXTRACT: note_off channel=6 note=51 velocity=95 time=0
EXTRACT: note_on channel=6 note=66 velocity=95 time=0
EXTRACT: note_on channel=6 note=54 velocity=95 time=0
EXTRACT: note_off channel=9 note=42 velocity=95 time=0
EXTRACT: note_off channel=9 note=36 velocity=95 time=0
EXTRACT: note_off channel=0 note=73 velocity=95 time=0.1666665
EXTRACT: note_off channel=0 note=68 velocity=95 time=0
EXTRACT: note_off channel=0 note=64 velocity=95 time=0
EXTRACT: note_off channel=0 note=61 velocity=95 time=0
EXTRACT: note_on channel=9 note=42 velocity=95 time=0
EXTRACT: note_on channel=9 note=40 velocity=95 time=0
EXTRACT: note_on channel=0 note=73 velocity=95 time=0.1666665
EXTRACT: note_on channel=0 note=68 velocity=95 time=0
EXTRACT: note_on channel=0 note=64 velocity=95 time=0
EXTRACT: note_on channel=0 note=61 velocity=95 time=0
EXTRACT: note_off channel=6 note=66 velocity=95 time=0
EXTRACT: note_off channel=6 note=54 velocity=95 time=0
EXTRACT: note_on channel=6 note=64 velocity=95 time=0
EXTRACT: note_on channel=6 note=52 velocity=95 time=0
EXTRACT: note_off channel=12 note=37 velocity=95 time=0
EXTRACT: note_on channel=12 note=44 velocity=95 time=0
EXTRACT: note_off channel=9 note=42 velocity=95 time=0
EXTRACT: note_off channel=9 note=40 velocity=95 time=0
EXTRACT: note_on channel=9 note=42 velocity=95 time=0
EXTRACT: note_off channel=0 note=73 velocity=95 time=0.1666665
EXTRACT: note_off channel=0 note=68 velocity=95 time=0
EXTRACT: note_off channel=0 note=64 velocity=95 time=0
EXTRACT: note_off channel=0 note=61 velocity=95 time=0
EXTRACT: note_off channel=12 note=44 velocity=95 time=0
EXTRACT: note_on channel=12 note=44 velocity=95 time=0
EXTRACT: note_off channel=9 note=42 velocity=95 time=0
EXTRACT: note_on channel=9 note=42 velocity=95 time=0
EXTRACT: note_on channel=0 note=73 velocity=95 time=0.1666665
EXTRACT: note_on channel=0 note=68 velocity=95 time=0
EXTRACT: note_on channel=0 note=64 velocity=95 time=0
EXTRACT: note_on channel=0 note=61 velocity=95 time=0
EXTRACT: note_off channel=9 note=42 velocity=95 time=0
EXTRACT: note_on channel=9 note=36 velocity=95 time=0
EXTRACT: note_off channel=6 note=64 velocity=95 time=0.1041665625
EXTRACT: note_off channel=6 note=52 velocity=95 time=0
EXTRACT: note_off channel=0 note=73 velocity=95 time=0.062499937500000005
EXTRACT: note_off channel=0 note=68 velocity=95 time=0
EXTRACT: note_off channel=0 note=64 velocity=95 time=0
EXTRACT: note_off channel=0 note=61 velocity=95 time=0
EXTRACT: note_off channel=12 note=44 velocity=95 time=0
EXTRACT: note_on channel=12 note=42 velocity=95 time=0
EXTRACT: note_off channel=9 note=36 velocity=95 time=0
EXTRACT: note_on channel=9 note=42 velocity=95 time=0
EXTRACT: note_on channel=9 note=40 velocity=95 time=0
EXTRACT: note_on channel=0 note=73 velocity=95 time=0.1666665
EXTRACT: note_on channel=0 note=68 velocity=95 time=0
EXTRACT: note_on channel=0 note=64 velocity=95 time=0
EXTRACT: note_on channel=0 note=61 velocity=95 time=0
EXTRACT: note_off channel=12 note=42 velocity=95 time=0
EXTRACT: note_on channel=12 note=44 velocity=70 time=0
EXTRACT: note_off channel=9 note=42 velocity=95 time=0
EXTRACT: note_off channel=9 note=40 velocity=95 time=0
EXTRACT: note_on channel=9 note=42 velocity=95 time=0
EXTRACT: note_off channel=0 note=73 velocity=95 time=0.1666665
EXTRACT: note_off channel=0 note=68 velocity=95 time=0
EXTRACT: note_off channel=0 note=64 velocity=95 time=0
EXTRACT: note_off channel=0 note=61 velocity=95 time=0
EXTRACT: note_off channel=12 note=44 velocity=70 time=0
EXTRACT: note_on channel=12 note=37 velocity=95 time=0
EXTRACT: note_off channel=9 note=42 velocity=95 time=0
EXTRACT: note_on channel=9 note=42 velocity=95 time=0
EXTRACT: note_on channel=9 note=36 velocity=95 time=0
EXTRACT: note_on channel=0 note=73 velocity=95 time=0.1666665
EXTRACT: note_on channel=0 note=68 velocity=95 time=0
EXTRACT: note_on channel=0 note=64 velocity=95 time=0
EXTRACT: note_on channel=0 note=61 velocity=95 time=0
EXTRACT: note_off channel=9 note=42 velocity=95 time=0
EXTRACT: note_off channel=9 note=36 velocity=95 time=0
EXTRACT: note_off channel=0 note=73 velocity=95 time=0.1666665
EXTRACT: note_off channel=0 note=68 velocity=95 time=0
EXTRACT: note_off channel=0 note=64 velocity=95 time=0
EXTRACT: note_off channel=0 note=61 velocity=95 time=0
EXTRACT: note_on channel=6 note=68 velocity=95 time=0
EXTRACT: note_on channel=6 note=56 velocity=95 time=0
EXTRACT: note_on channel=9 note=42 velocity=95 time=0
EXTRACT: note_on channel=9 note=40 velocity=95 time=0
EXTRACT: note_on channel=0 note=73 velocity=95 time=0.1666665
EXTRACT: note_on channel=0 note=68 velocity=95 time=0
EXTRACT: note_on channel=0 note=64 velocity=95 time=0
EXTRACT: note_on channel=0 note=61 velocity=95 time=0
EXTRACT: note_off channel=12 note=37 velocity=95 time=0
EXTRACT: note_on channel=12 note=44 velocity=95 time=0
EXTRACT: note_off channel=9 note=42 velocity=95 time=0
EXTRACT: note_off channel=9 note=40 velocity=95 time=0
EXTRACT: note_on channel=9 note=42 velocity=95 time=0
EXTRACT: note_off channel=6 note=68 velocity=95 time=0.1041665625
EXTRACT: note_off channel=6 note=56 velocity=95 time=0
EXTRACT: note_off channel=0 note=73 velocity=95 time=0.062499937500000005
EXTRACT: note_off channel=0 note=68 velocity=95 time=0
EXTRACT: note_off channel=0 note=64 velocity=95 time=0
EXTRACT: note_off channel=0 note=61 velocity=95 time=0
EXTRACT: note_on channel=6 note=68 velocity=95 time=0
EXTRACT: note_on channel=6 note=56 velocity=95 time=0
EXTRACT: note_off channel=12 note=44 velocity=95 time=0
EXTRACT: note_on channel=12 note=44 velocity=95 time=0
EXTRACT: note_off channel=9 note=42 velocity=95 time=0
EXTRACT: note_on channel=9 note=42 velocity=95 time=0
EXTRACT: note_on channel=9 note=36 velocity=95 time=0
EXTRACT: note_on channel=0 note=73 velocity=95 time=0.1666665
EXTRACT: note_on channel=0 note=68 velocity=95 time=0
EXTRACT: note_on channel=0 note=64 velocity=95 time=0
EXTRACT: note_on channel=0 note=61 velocity=95 time=0
EXTRACT: note_off channel=9 note=42 velocity=95 time=0
EXTRACT: note_off channel=9 note=36 velocity=95 time=0
EXTRACT: note_off channel=0 note=73 velocity=95 time=0.1666665
EXTRACT: note_off channel=0 note=68 velocity=95 time=0
EXTRACT: note_off channel=0 note=64 velocity=95 time=0
EXTRACT: note_off channel=0 note=61 velocity=95 time=0
EXTRACT: note_off channel=12 note=44 velocity=95 time=0
EXTRACT: note_on channel=12 note=42 velocity=95 time=0
EXTRACT: note_on channel=9 note=42 velocity=95 time=0
EXTRACT: note_on channel=9 note=40 velocity=95 time=0
EXTRACT: note_off channel=6 note=68 velocity=95 time=0.1041665625
EXTRACT: note_off channel=6 note=56 velocity=95 time=0
EXTRACT: note_on channel=0 note=73 velocity=95 time=0.062499937500000005
EXTRACT: note_on channel=0 note=68 velocity=95 time=0
EXTRACT: note_on channel=0 note=64 velocity=95 time=0
EXTRACT: note_on channel=0 note=61 velocity=95 time=0
EXTRACT: note_on channel=6 note=64 velocity=95 time=0
EXTRACT: note_on channel=6 note=52 velocity=95 time=0
EXTRACT: note_off channel=12 note=42 velocity=95 time=0
EXTRACT: note_on channel=12 note=44 velocity=70 time=0
EXTRACT: note_off channel=9 note=42 velocity=95 time=0
EXTRACT: note_off channel=9 note=40 velocity=95 time=0
EXTRACT: note_on channel=9 note=42 velocity=95 time=0
EXTRACT: note_off channel=0 note=73 velocity=95 time=0.1666665
EXTRACT: note_off channel=0 note=68 velocity=95 time=0
EXTRACT: note_off channel=0 note=64 velocity=95 time=0
EXTRACT: note_off channel=0 note=61 velocity=95 time=0
EXTRACT: note_off channel=6 note=64 velocity=95 time=0
EXTRACT: note_off channel=6 note=52 velocity=95 time=0
EXTRACT: note_on channel=6 note=66 velocity=95 time=0
EXTRACT: note_on channel=6 note=54 velocity=95 time=0
EXTRACT: note_off channel=12 note=44 velocity=70 time=0
EXTRACT: note_on channel=12 note=37 velocity=95 time=0
EXTRACT: note_off channel=9 note=42 velocity=95 time=0
EXTRACT: note_on channel=9 note=42 velocity=95 time=0
EXTRACT: note_on channel=9 note=36 velocity=95 time=0
EXTRACT: note_on channel=0 note=73 velocity=95 time=0.1666665
EXTRACT: note_on channel=0 note=68 velocity=95 time=0
EXTRACT: note_on channel=0 note=64 velocity=95 time=0
EXTRACT: note_on channel=0 note=61 velocity=95 time=0
EXTRACT: note_off channel=6 note=66 velocity=95 time=0
EXTRACT: note_off channel=6 note=54 velocity=95 time=0
EXTRACT: note_on channel=6 note=69 velocity=95 time=0
EXTRACT: note_on channel=6 note=57 velocity=95 time=0
EXTRACT: note_off channel=9 note=42 velocity=95 time=0
EXTRACT: note_off channel=9 note=36 velocity=95 time=0
EXTRACT: note_off channel=0 note=73 velocity=95 time=0.1666665
EXTRACT: note_off channel=0 note=68 velocity=95 time=0
EXTRACT: note_off channel=0 note=64 velocity=95 time=0
EXTRACT: note_off channel=0 note=61 velocity=95 time=0
EXTRACT: note_on channel=9 note=42 velocity=95 time=0
EXTRACT: note_on channel=9 note=40 velocity=95 time=0
EXTRACT: note_on channel=0 note=73 velocity=95 time=0.1666665
EXTRACT: note_on channel=0 note=68 velocity=95 time=0
EXTRACT: note_on channel=0 note=64 velocity=95 time=0
EXTRACT: note_on channel=0 note=61 velocity=95 time=0
EXTRACT: note_off channel=6 note=69 velocity=95 time=0
EXTRACT: note_off channel=6 note=57 velocity=95 time=0
EXTRACT: note_on channel=6 note=69 velocity=95 time=0
EXTRACT: note_on channel=6 note=57 velocity=95 time=0
EXTRACT: note_off channel=12 note=37 velocity=95 time=0
EXTRACT: note_on channel=12 note=44 velocity=95 time=0
EXTRACT: note_off channel=9 note=42 velocity=95 time=0
EXTRACT: note_off channel=9 note=40 velocity=95 time=0
EXTRACT: note_on channel=9 note=42 velocity=95 time=0
EXTRACT: note_off channel=0 note=73 velocity=95 time=0.1666665
EXTRACT: note_off channel=0 note=68 velocity=95 time=0
EXTRACT: note_off channel=0 note=64 velocity=95 time=0
EXTRACT: note_off channel=0 note=61 velocity=95 time=0
EXTRACT: note_off channel=12 note=44 velocity=95 time=0
EXTRACT: note_on channel=12 note=44 velocity=95 time=0
EXTRACT: note_off channel=9 note=42 velocity=95 time=0
EXTRACT: note_on channel=9 note=42 velocity=95 time=0
EXTRACT: note_on channel=0 note=73 velocity=95 time=0.1666665
EXTRACT: note_on channel=0 note=68 velocity=95 time=0
EXTRACT: note_on channel=0 note=64 velocity=95 time=0
EXTRACT: note_on channel=0 note=61 velocity=95 time=0
EXTRACT: note_off channel=6 note=69 velocity=95 time=0
EXTRACT: note_off channel=6 note=57 velocity=95 time=0
EXTRACT: note_on channel=6 note=68 velocity=95 time=0
EXTRACT: note_on channel=6 note=56 velocity=95 time=0
EXTRACT: note_off channel=9 note=42 velocity=95 time=0
EXTRACT: note_on channel=9 note=36 velocity=95 time=0
EXTRACT: note_off channel=0 note=73 velocity=95 time=0.1666665
EXTRACT: note_off channel=0 note=68 velocity=95 time=0
EXTRACT: note_off channel=0 note=64 velocity=95 time=0
EXTRACT: note_off channel=0 note=61 velocity=95 time=0
EXTRACT: note_off channel=12 note=44 velocity=95 time=0
EXTRACT: note_on channel=12 note=42 velocity=95 time=0
EXTRACT: note_off channel=9 note=36 velocity=95 time=0
EXTRACT: note_on channel=9 note=42 velocity=95 time=0
EXTRACT: note_on channel=9 note=40 velocity=95 time=0
EXTRACT: note_on channel=0 note=73 velocity=95 time=0.1666665
EXTRACT: note_on channel=0 note=68 velocity=95 time=0
EXTRACT: note_on channel=0 note=64 velocity=95 time=0
EXTRACT: note_on channel=0 note=61 velocity=95 time=0
EXTRACT: note_off channel=12 note=42 velocity=95 time=0
EXTRACT: note_on channel=12 note=44 velocity=70 time=0
EXTRACT: note_off channel=9 note=42 velocity=95 time=0
EXTRACT: note_off channel=9 note=40 velocity=95 time=0
EXTRACT: note_on channel=9 note=42 velocity=95 time=0
EXTRACT: note_off channel=6 note=68 velocity=95 time=0.1041665625
EXTRACT: note_off channel=6 note=56 velocity=95 time=0
EXTRACT: note_off channel=0 note=73 velocity=95 time=0.062499937500000005
EXTRACT: note_off channel=0 note=68 velocity=95 time=0
EXTRACT: note_off channel=0 note=64 velocity=95 time=0
EXTRACT: note_off channel=0 note=61 velocity=95 time=0
EXTRACT: note_off channel=12 note=44 velocity=70 time=0
EXTRACT: note_on channel=12 note=37 velocity=95 time=0
EXTRACT: note_off channel=9 note=42 velocity=95 time=0
EXTRACT: note_on channel=9 note=42 velocity=95 time=0
EXTRACT: note_on channel=9 note=36 velocity=95 time=0
EXTRACT: note_on channel=0 note=73 velocity=95 time=0.1666665
EXTRACT: note_on channel=0 note=68 velocity=95 time=0
EXTRACT: note_on channel=0 note=64 velocity=95 time=0
EXTRACT: note_on channel=0 note=61 velocity=95 time=0
EXTRACT: note_off channel=9 note=42 velocity=95 time=0
EXTRACT: note_off channel=9 note=36 velocity=95 time=0
EXTRACT: note_off channel=0 note=73 velocity=95 time=0.1666665
EXTRACT: note_off channel=0 note=68 velocity=95 time=0
EXTRACT: note_off channel=0 note=64 velocity=95 time=0
EXTRACT: note_off channel=0 note=61 velocity=95 time=0
EXTRACT: note_on channel=6 note=68 velocity=95 time=0
EXTRACT: note_on channel=6 note=56 velocity=95 time=0
EXTRACT: note_on channel=9 note=42 velocity=95 time=0
EXTRACT: note_on channel=9 note=40 velocity=95 time=0
EXTRACT: note_on channel=0 note=73 velocity=95 time=0.1666665
EXTRACT: note_on channel=0 note=68 velocity=95 time=0
EXTRACT: note_on channel=0 note=64 velocity=95 time=0
EXTRACT: note_on channel=0 note=61 velocity=95 time=0
EXTRACT: note_off channel=12 note=37 velocity=95 time=0
EXTRACT: note_on channel=12 note=44 velocity=95 time=0
EXTRACT: note_off channel=9 note=42 velocity=95 time=0
EXTRACT: note_off channel=9 note=40 velocity=95 time=0
EXTRACT: note_on channel=9 note=42 velocity=95 time=0
EXTRACT: note_off channel=6 note=68 velocity=95 time=0.1041665625
EXTRACT: note_off channel=6 note=56 velocity=95 time=0
EXTRACT: note_off channel=0 note=73 velocity=95 time=0.062499937500000005
EXTRACT: note_off channel=0 note=68 velocity=95 time=0
EXTRACT: note_off channel=0 note=64 velocity=95 time=0
EXTRACT: note_off channel=0 note=61 velocity=95 time=0
EXTRACT: note_on channel=6 note=68 velocity=95 time=0
EXTRACT: note_on channel=6 note=56 velocity=95 time=0
EXTRACT: note_off channel=12 note=44 velocity=95 time=0
EXTRACT: note_on channel=12 note=44 velocity=95 time=0
EXTRACT: note_off channel=9 note=42 velocity=95 time=0
EXTRACT: note_on channel=9 note=42 velocity=95 time=0
EXTRACT: note_on channel=9 note=36 velocity=95 time=0
EXTRACT: note_on channel=0 note=73 velocity=95 time=0.1666665
EXTRACT: note_on channel=0 note=68 velocity=95 time=0
EXTRACT: note_on channel=0 note=64 velocity=95 time=0
EXTRACT: note_on channel=0 note=61 velocity=95 time=0
EXTRACT: note_off channel=9 note=42 velocity=95 time=0
EXTRACT: note_off channel=9 note=36 velocity=95 time=0
EXTRACT: note_off channel=6 note=68 velocity=95 time=0.1041665625
EXTRACT: note_off channel=6 note=56 velocity=95 time=0
EXTRACT: note_off channel=0 note=73 velocity=95 time=0.062499937500000005
EXTRACT: note_off channel=0 note=68 velocity=95 time=0
EXTRACT: note_off channel=0 note=64 velocity=95 time=0
EXTRACT: note_off channel=0 note=61 velocity=95 time=0
EXTRACT: note_on channel=6 note=63 velocity=95 time=0
EXTRACT: note_on channel=6 note=51 velocity=95 time=0
EXTRACT: note_off channel=12 note=44 velocity=95 time=0
EXTRACT: note_on channel=12 note=42 velocity=95 time=0
EXTRACT: note_on channel=9 note=42 velocity=95 time=0
EXTRACT: note_on channel=9 note=40 velocity=95 time=0
EXTRACT: note_on channel=0 note=73 velocity=95 time=0.1666665
EXTRACT: note_on channel=0 note=68 velocity=95 time=0
EXTRACT: note_on channel=0 note=64 velocity=95 time=0
EXTRACT: note_on channel=0 note=61 velocity=95 time=0
EXTRACT: note_off channel=6 note=63 velocity=95 time=0
EXTRACT: note_off channel=6 note=51 velocity=95 time=0
EXTRACT: note_on channel=6 note=63 velocity=95 time=0
EXTRACT: note_on channel=6 note=51 velocity=95 time=0
EXTRACT: note_off channel=12 note=42 velocity=95 time=0
EXTRACT: note_on channel=12 note=44 velocity=70 time=0
EXTRACT: note_off channel=9 note=42 velocity=95 time=0
EXTRACT: note_off channel=9 note=40 velocity=95 time=0
EXTRACT: note_on channel=9 note=42 velocity=95 time=0
EXTRACT: note_off channel=0 note=73 velocity=95 time=0.1666665
EXTRACT: note_off channel=0 note=68 velocity=95 time=0
EXTRACT: note_off channel=0 note=64 velocity=95 time=0
EXTRACT: note_off channel=0 note=61 velocity=95 time=0
EXTRACT: note_off channel=6 note=63 velocity=95 time=0
EXTRACT: note_off channel=6 note=51 velocity=95 time=0
EXTRACT: note_on channel=6 note=63 velocity=95 time=0
EXTRACT: note_on channel=6 note=51 velocity=95 time=0
EXTRACT: note_off channel=12 note=44 velocity=70 time=0
EXTRACT: note_on channel=12 note=37 velocity=95 time=0
EXTRACT: note_off channel=9 note=42 velocity=95 time=0
EXTRACT: note_on channel=9 note=42 velocity=95 time=0
EXTRACT: note_on channel=9 note=36 velocity=95 time=0
EXTRACT: note_on channel=0 note=73 velocity=95 time=0.1666665
EXTRACT: note_on channel=0 note=68 velocity=95 time=0
EXTRACT: note_on channel=0 note=64 velocity=95 time=0
EXTRACT: note_on channel=0 note=61 velocity=95 time=0
EXTRACT: note_off channel=6 note=63 velocity=95 time=0
EXTRACT: note_off channel=6 note=51 velocity=95 time=0
EXTRACT: note_on channel=6 note=66 velocity=95 time=0
EXTRACT: note_on channel=6 note=54 velocity=95 time=0
EXTRACT: note_off channel=9 note=42 velocity=95 time=0
EXTRACT: note_off channel=9 note=36 velocity=95 time=0
EXTRACT: note_off channel=0 note=73 velocity=95 time=0.1666665
EXTRACT: note_off channel=0 note=68 velocity=95 time=0
EXTRACT: note_off channel=0 note=64 velocity=95 time=0
EXTRACT: note_off channel=0 note=61 velocity=95 time=0
EXTRACT: note_on channel=9 note=42 velocity=95 time=0
EXTRACT: note_on channel=9 note=40 velocity=95 time=0
EXTRACT: note_on channel=0 note=73 velocity=95 time=0.1666665
EXTRACT: note_on channel=0 note=68 velocity=95 time=0
EXTRACT: note_on channel=0 note=64 velocity=95 time=0
EXTRACT: note_on channel=0 note=61 velocity=95 time=0
EXTRACT: note_off channel=6 note=66 velocity=95 time=0
EXTRACT: note_off channel=6 note=54 velocity=95 time=0
EXTRACT: note_on channel=6 note=64 velocity=95 time=0
EXTRACT: note_on channel=6 note=52 velocity=95 time=0
EXTRACT: note_off channel=12 note=37 velocity=95 time=0
EXTRACT: note_on channel=12 note=44 velocity=95 time=0
EXTRACT: note_off channel=9 note=42 velocity=95 time=0
EXTRACT: note_off channel=9 note=40 velocity=95 time=0
EXTRACT: note_on channel=9 note=42 velocity=95 time=0
EXTRACT: note_off channel=0 note=73 velocity=95 time=0.1666665
EXTRACT: note_off channel=0 note=68 velocity=95 time=0
EXTRACT: note_off channel=0 note=64 velocity=95 time=0
EXTRACT: note_off channel=0 note=61 velocity=95 time=0
EXTRACT: note_off channel=12 note=44 velocity=95 time=0
EXTRACT: note_on channel=12 note=44 velocity=95 time=0
EXTRACT: note_off channel=9 note=42 velocity=95 time=0
EXTRACT: note_on channel=9 note=42 velocity=95 time=0
EXTRACT: note_on channel=0 note=73 velocity=95 time=0.1666665
EXTRACT: note_on channel=0 note=68 velocity=95 time=0
EXTRACT: note_on channel=0 note=64 velocity=95 time=0
EXTRACT: note_on channel=0 note=61 velocity=95 time=0
EXTRACT: note_off channel=9 note=42 velocity=95 time=0
EXTRACT: note_on channel=9 note=36 velocity=95 time=0
EXTRACT: note_off channel=6 note=64 velocity=95 time=0.1041665625
EXTRACT: note_off channel=6 note=52 velocity=95 time=0
EXTRACT: note_off channel=0 note=73 velocity=95 time=0.062499937500000005
EXTRACT: note_off channel=0 note=68 velocity=95 time=0
EXTRACT: note_off channel=0 note=64 velocity=95 time=0
EXTRACT: note_off channel=0 note=61 velocity=95 time=0
EXTRACT: note_on channel=3 note=49 velocity=95 time=0
EXTRACT: note_off channel=12 note=44 velocity=95 time=0
EXTRACT: note_on channel=12 note=42 velocity=95 time=0
EXTRACT: note_off channel=9 note=36 velocity=95 time=0
EXTRACT: note_on channel=9 note=42 velocity=95 time=0
EXTRACT: note_on channel=9 note=40 velocity=95 time=0
EXTRACT: pitchwheel channel=3 pitch=-1024 time=0.041666625
EXTRACT: pitchwheel channel=3 pitch=-2048 time=0.041666625
EXTRACT: pitchwheel channel=3 pitch=-3072 time=0.041666625
EXTRACT: note_on channel=0 note=73 velocity=95 time=0.041666625
EXTRACT: note_on channel=0 note=68 velocity=95 time=0
EXTRACT: note_on channel=0 note=64 velocity=95 time=0
EXTRACT: note_on channel=0 note=61 velocity=95 time=0
EXTRACT: pitchwheel channel=3 pitch=-4224 time=0
EXTRACT: note_off channel=12 note=42 velocity=95 time=0
EXTRACT: note_on channel=12 note=44 velocity=70 time=0
EXTRACT: note_off channel=9 note=42 velocity=95 time=0
EXTRACT: note_off channel=9 note=40 velocity=95 time=0
EXTRACT: note_on channel=9 note=42 velocity=95 time=0
EXTRACT: pitchwheel channel=3 pitch=-5248 time=0.041666625
EXTRACT: pitchwheel channel=3 pitch=-6272 time=0.041666625
EXTRACT: pitchwheel channel=3 pitch=-7296 time=0.041666625
EXTRACT: note_off channel=0 note=73 velocity=95 time=0.041666625
EXTRACT: note_off channel=0 note=68 velocity=95 time=0
EXTRACT: note_off channel=0 note=64 velocity=95 time=0
EXTRACT: note_off channel=0 note=61 velocity=95 time=0
EXTRACT: pitchwheel channel=3 pitch=-8192 time=0
EXTRACT: pitchwheel channel=3 pitch=0 time=0
EXTRACT: note_off channel=3 note=49 velocity=95 time=0
EXTRACT: note_on channel=2 note=37 velocity=95 time=0
EXTRACT: note_off channel=12 note=44 velocity=70 time=0
EXTRACT: note_on channel=12 note=37 velocity=95 time=0
EXTRACT: note_off channel=9 note=42 velocity=95 time=0
EXTRACT: note_on channel=9 note=42 velocity=95 time=0
EXTRACT: note_on channel=9 note=36 velocity=95 time=0
EXTRACT: note_on channel=0 note=73 velocity=95 time=0.1666665
EXTRACT: note_on channel=0 note=68 velocity=95 time=0
EXTRACT: note_on channel=0 note=64 velocity=95 time=0
EXTRACT: note_on channel=0 note=61 velocity=95 time=0
EXTRACT: note_off channel=9 note=42 velocity=95 time=0
EXTRACT: note_off channel=9 note=36 velocity=95 time=0
EXTRACT: note_off channel=0 note=73 velocity=95 time=0.1666665
EXTRACT: note_off channel=0 note=68 velocity=95 time=0
EXTRACT: note_off channel=0 note=64 velocity=95 time=0
EXTRACT: note_off channel=0 note=61 velocity=95 time=0
EXTRACT: note_off channel=2 note=37 velocity=95 time=0
EXTRACT: note_on channel=2 note=37 velocity=95 time=0
EXTRACT: note_on channel=9 note=42 velocity=95 time=0
EXTRACT: note_on channel=9 note=40 velocity=95 time=0
EXTRACT: note_on channel=0 note=73 velocity=95 time=0.1666665
EXTRACT: note_on channel=0 note=68 velocity=95 time=0
EXTRACT: note_on channel=0 note=64 velocity=95 time=0
EXTRACT: note_on channel=0 note=61 velocity=95 time=0
EXTRACT: note_off channel=2 note=37 velocity=95 time=0
EXTRACT: note_on channel=2 note=37 velocity=95 time=0
EXTRACT: note_off channel=12 note=37 velocity=95 time=0
EXTRACT: note_on channel=12 note=44 velocity=95 time=0
EXTRACT: note_off channel=9 note=42 velocity=95 time=0
EXTRACT: note_off channel=9 note=40 velocity=95 time=0
EXTRACT: note_on channel=9 note=42 velocity=95 time=0
EXTRACT: note_off channel=0 note=73 velocity=95 time=0.1666665
EXTRACT: note_off channel=0 note=68 velocity=95 time=0
EXTRACT: note_off channel=0 note=64 velocity=95 time=0
EXTRACT: note_off channel=0 note=61 velocity=95 time=0
EXTRACT: note_off channel=2 note=37 velocity=95 time=0
EXTRACT: note_on channel=2 note=40 velocity=95 time=0
EXTRACT: note_off channel=12 note=44 velocity=95 time=0
EXTRACT: note_on channel=12 note=44 velocity=95 time=0
EXTRACT: note_off channel=9 note=42 velocity=95 time=0
EXTRACT: note_on channel=9 note=42 velocity=95 time=0
EXTRACT: note_on channel=9 note=36 velocity=95 time=0
EXTRACT: note_on channel=0 note=73 velocity=95 time=0.1666665
EXTRACT: note_on channel=0 note=68 velocity=95 time=0
EXTRACT: note_on channel=0 note=64 velocity=95 time=0
EXTRACT: note_on channel=0 note=61 velocity=95 time=0
EXTRACT: note_off channel=2 note=40 velocity=95 time=0
EXTRACT: note_on channel=2 note=42 velocity=95 time=0
EXTRACT: note_off channel=9 note=42 velocity=95 time=0
EXTRACT: note_off channel=9 note=36 velocity=95 time=0
EXTRACT: note_off channel=0 note=73 velocity=95 time=0.1666665
EXTRACT: note_off channel=0 note=68 velocity=95 time=0
EXTRACT: note_off channel=0 note=64 velocity=95 time=0
EXTRACT: note_off channel=0 note=61 velocity=95 time=0
EXTRACT: note_off channel=2 note=42 velocity=95 time=0
EXTRACT: note_on channel=2 note=37 velocity=95 time=0
EXTRACT: note_off channel=12 note=44 velocity=95 time=0
EXTRACT: note_on channel=12 note=42 velocity=95 time=0
EXTRACT: note_on channel=9 note=42 velocity=95 time=0
EXTRACT: note_on channel=9 note=40 velocity=95 time=0
EXTRACT: note_off channel=2 note=37 velocity=95 time=0.041666625
EXTRACT: pitchwheel channel=3 pitch=0 time=0
EXTRACT: note_on channel=3 note=42 velocity=95 time=0
EXTRACT: pitchwheel channel=3 pitch=128 time=0.013888875
EXTRACT: pitchwheel channel=3 pitch=256 time=0.013888875
EXTRACT: pitchwheel channel=3 pitch=384 time=0.013888875
EXTRACT: pitchwheel channel=3 pitch=512 time=0.013888875
EXTRACT: pitchwheel channel=3 pitch=640 time=0.013888875
EXTRACT: pitchwheel channel=3 pitch=768 time=0.013888875
EXTRACT: pitchwheel channel=3 pitch=896 time=0.013888875
EXTRACT: pitchwheel channel=3 pitch=1024 time=0.013888875
EXTRACT: note_on channel=0 note=73 velocity=95 time=0.013888875
EXTRACT: note_on channel=0 note=68 velocity=95 time=0
EXTRACT: note_on channel=0 note=64 velocity=95 time=0
EXTRACT: note_on channel=0 note=61 velocity=95 time=0
EXTRACT: pitchwheel channel=3 pitch=1152 time=0
EXTRACT: note_off channel=12 note=42 velocity=95 time=0
EXTRACT: note_on channel=12 note=44 velocity=70 time=0
EXTRACT: note_off channel=9 note=42 velocity=95 time=0
EXTRACT: note_off channel=9 note=40 velocity=95 time=0
EXTRACT: note_on channel=9 note=42 velocity=95 time=0
EXTRACT: pitchwheel channel=3 pitch=1280 time=0.013888875
EXTRACT: pitchwheel channel=3 pitch=1408 time=0.013888875
EXTRACT: pitchwheel channel=3 pitch=1408 time=0.00347221875
EXTRACT: note_off channel=0 note=73 velocity=95 time=0.13541653125
EXTRACT: note_off channel=0 note=68 velocity=95 time=0
EXTRACT: note_off channel=0 note=64 velocity=95 time=0
EXTRACT: note_off channel=0 note=61 velocity=95 time=0
EXTRACT: note_off channel=12 note=44 velocity=70 time=0
EXTRACT: note_on channel=12 note=37 velocity=95 time=0
EXTRACT: note_off channel=9 note=42 velocity=95 time=0
EXTRACT: note_on channel=9 note=42 velocity=95 time=0
EXTRACT: note_on channel=9 note=36 velocity=95 time=0
EXTRACT: pitchwheel channel=3 pitch=1408 time=0.0208333125
EXTRACT: pitchwheel channel=3 pitch=1280 time=0.013888875
EXTRACT: pitchwheel channel=3 pitch=1152 time=0.013888875
EXTRACT: pitchwheel channel=3 pitch=1024 time=0.013888875
EXTRACT: pitchwheel channel=3 pitch=896 time=0.013888875
EXTRACT: pitchwheel channel=3 pitch=768 time=0.013888875
EXTRACT: pitchwheel channel=3 pitch=640 time=0.013888875
EXTRACT: pitchwheel channel=3 pitch=512 time=0.013888875
EXTRACT: pitchwheel channel=3 pitch=384 time=0.013888875
EXTRACT: pitchwheel channel=3 pitch=256 time=0.013888875
EXTRACT: pitchwheel channel=3 pitch=128 time=0.013888875
EXTRACT: note_on channel=0 note=73 velocity=95 time=0.0069444375
EXTRACT: note_on channel=0 note=68 velocity=95 time=0
EXTRACT: note_on channel=0 note=64 velocity=95 time=0
EXTRACT: note_on channel=0 note=61 velocity=95 time=0
EXTRACT: note_off channel=9 note=42 velocity=95 time=0
EXTRACT: note_off channel=9 note=36 velocity=95 time=0
EXTRACT: pitchwheel channel=3 pitch=0 time=0.0069444375
EXTRACT: pitchwheel channel=3 pitch=0 time=0.00347221875
EXTRACT: note_off channel=0 note=73 velocity=95 time=0.15624984375
EXTRACT: note_off channel=0 note=68 velocity=95 time=0
EXTRACT: note_off channel=0 note=64 velocity=95 time=0
EXTRACT: note_off channel=0 note=61 velocity=95 time=0
EXTRACT: pitchwheel channel=3 pitch=0 time=0
EXTRACT: pitchwheel channel=3 pitch=0 time=0
EXTRACT: note_off channel=3 note=42 velocity=95 time=0
EXTRACT: note_on channel=2 note=40 velocity=95 time=0
EXTRACT: note_on channel=9 note=42 velocity=95 time=0
EXTRACT: note_on channel=9 note=40 velocity=95 time=0
EXTRACT: note_on channel=0 note=73 velocity=95 time=0.1666665
EXTRACT: note_on channel=0 note=68 velocity=95 time=0
EXTRACT: note_on channel=0 note=64 velocity=95 time=0
EXTRACT: note_on channel=0 note=61 velocity=95 time=0
EXTRACT: note_off channel=2 note=40 velocity=95 time=0
EXTRACT: note_on channel=2 note=42 velocity=95 time=0
EXTRACT: note_off channel=12 note=37 velocity=95 time=0
EXTRACT: note_on channel=12 note=44 velocity=95 time=0
EXTRACT: note_off channel=9 note=42 velocity=95 time=0
EXTRACT: note_off channel=9 note=40 velocity=95 time=0
EXTRACT: note_on channel=9 note=42 velocity=95 time=0
EXTRACT: note_off channel=0 note=73 velocity=95 time=0.1666665
EXTRACT: note_off channel=0 note=68 velocity=95 time=0
EXTRACT: note_off channel=0 note=64 velocity=95 time=0
EXTRACT: note_off channel=0 note=61 velocity=95 time=0
EXTRACT: note_off channel=12 note=44 velocity=95 time=0
EXTRACT: note_on channel=12 note=44 velocity=95 time=0
EXTRACT: note_off channel=9 note=42 velocity=95 time=0
EXTRACT: note_on channel=9 note=42 velocity=95 time=0
EXTRACT: note_on channel=0 note=73 velocity=95 time=0.1666665
EXTRACT: note_on channel=0 note=68 velocity=95 time=0
EXTRACT: note_on channel=0 note=64 velocity=95 time=0
EXTRACT: note_on channel=0 note=61 velocity=95 time=0
EXTRACT: note_off channel=2 note=42 velocity=95 time=0
EXTRACT: note_on channel=2 note=40 velocity=95 time=0
EXTRACT: note_off channel=9 note=42 velocity=95 time=0
EXTRACT: note_on channel=9 note=36 velocity=95 time=0
EXTRACT: note_off channel=0 note=73 velocity=95 time=0.1666665
EXTRACT: note_off channel=0 note=68 velocity=95 time=0
EXTRACT: note_off channel=0 note=64 velocity=95 time=0
EXTRACT: note_off channel=0 note=61 velocity=95 time=0
EXTRACT: note_off channel=2 note=40 velocity=95 time=0
EXTRACT: note_on channel=2 note=42 velocity=95 time=0
EXTRACT: note_off channel=12 note=44 velocity=95 time=0
EXTRACT: note_on channel=12 note=42 velocity=95 time=0
EXTRACT: note_off channel=9 note=36 velocity=95 time=0
EXTRACT: note_on channel=9 note=42 velocity=95 time=0
EXTRACT: note_on channel=9 note=40 velocity=95 time=0
EXTRACT: note_on channel=0 note=73 velocity=95 time=0.1666665
EXTRACT: note_on channel=0 note=68 velocity=95 time=0
EXTRACT: note_on channel=0 note=64 velocity=95 time=0
EXTRACT: note_on channel=0 note=61 velocity=95 time=0
EXTRACT: note_off channel=2 note=42 velocity=95 time=0
EXTRACT: note_on channel=2 note=40 velocity=95 time=0
EXTRACT: note_off channel=12 note=42 velocity=95 time=0
EXTRACT: note_on channel=12 note=44 velocity=70 time=0
EXTRACT: note_off channel=9 note=42 velocity=95 time=0
EXTRACT: note_off channel=9 note=40 velocity=95 time=0
EXTRACT: note_on channel=9 note=42 velocity=95 time=0
EXTRACT: note_off channel=0 note=73 velocity=95 time=0.1666665
EXTRACT: note_off channel=0 note=68 velocity=95 time=0
EXTRACT: note_off channel=0 note=64 velocity=95 time=0
EXTRACT: note_off channel=0 note=61 velocity=95 time=0
EXTRACT: note_off channel=2 note=40 velocity=95 time=0
EXTRACT: note_on channel=2 note=37 velocity=95 time=0
EXTRACT: note_off channel=12 note=44 velocity=70 time=0
EXTRACT: note_on channel=12 note=37 velocity=95 time=0
EXTRACT: note_off channel=9 note=42 velocity=95 time=0
EXTRACT: note_on channel=9 note=42 velocity=95 time=0
EXTRACT: note_on channel=9 note=36 velocity=95 time=0
EXTRACT: note_on channel=0 note=73 velocity=95 time=0.1666665
EXTRACT: note_on channel=0 note=68 velocity=95 time=0
EXTRACT: note_on channel=0 note=64 velocity=95 time=0
EXTRACT: note_on channel=0 note=61 velocity=95 time=0
EXTRACT: note_off channel=9 note=42 velocity=95 time=0
EXTRACT: note_off channel=9 note=36 velocity=95 time=0
EXTRACT: note_off channel=0 note=73 velocity=95 time=0.1666665
EXTRACT: note_off channel=0 note=68 velocity=95 time=0
EXTRACT: note_off channel=0 note=64 velocity=95 time=0
EXTRACT: note_off channel=0 note=61 velocity=95 time=0
EXTRACT: note_off channel=2 note=37 velocity=95 time=0
EXTRACT: note_on channel=2 note=37 velocity=95 time=0
EXTRACT: note_on channel=9 note=42 velocity=95 time=0
EXTRACT: note_on channel=9 note=40 velocity=95 time=0
EXTRACT: note_on channel=0 note=73 velocity=95 time=0.1666665
EXTRACT: note_on channel=0 note=68 velocity=95 time=0
EXTRACT: note_on channel=0 note=64 velocity=95 time=0
EXTRACT: note_on channel=0 note=61 velocity=95 time=0
EXTRACT: note_off channel=2 note=37 velocity=95 time=0
EXTRACT: note_on channel=2 note=37 velocity=95 time=0
EXTRACT: note_off channel=12 note=37 velocity=95 time=0
EXTRACT: note_on channel=12 note=44 velocity=95 time=0
EXTRACT: note_off channel=9 note=42 velocity=95 time=0
EXTRACT: note_off channel=9 note=40 velocity=95 time=0
EXTRACT: note_on channel=9 note=42 velocity=95 time=0
EXTRACT: note_off channel=0 note=73 velocity=95 time=0.1666665
EXTRACT: note_off channel=0 note=68 velocity=95 time=0
EXTRACT: note_off channel=0 note=64 velocity=95 time=0
EXTRACT: note_off channel=0 note=61 velocity=95 time=0
EXTRACT: note_off channel=2 note=37 velocity=95 time=0
EXTRACT: pitchwheel channel=3 pitch=0 time=0
EXTRACT: note_on channel=3 note=40 velocity=95 time=0
EXTRACT: note_off channel=12 note=44 velocity=95 time=0
EXTRACT: note_on channel=12 note=44 velocity=95 time=0
EXTRACT: note_off channel=9 note=42 velocity=95 time=0
EXTRACT: note_on channel=9 note=42 velocity=95 time=0
EXTRACT: note_on channel=9 note=36 velocity=95 time=0
EXTRACT: pitchwheel channel=3 pitch=128 time=0.01666665
EXTRACT: pitchwheel channel=3 pitch=256 time=0.01666665
EXTRACT: pitchwheel channel=3 pitch=384 time=0.01666665
EXTRACT: pitchwheel channel=3 pitch=512 time=0.01666665
EXTRACT: pitchwheel channel=3 pitch=640 time=0.01666665
EXTRACT: pitchwheel channel=3 pitch=640 time=0
EXTRACT: note_on channel=0 note=73 velocity=95 time=0.08333325
EXTRACT: note_on channel=0 note=68 velocity=95 time=0
EXTRACT: note_on channel=0 note=64 velocity=95 time=0
EXTRACT: note_on channel=0 note=61 velocity=95 time=0
EXTRACT: pitchwheel channel=3 pitch=640 time=0
EXTRACT: pitchwheel channel=3 pitch=0 time=0
EXTRACT: note_off channel=3 note=40 velocity=95 time=0
EXTRACT: note_on channel=2 note=37 velocity=95 time=0
EXTRACT: note_off channel=9 note=42 velocity=95 time=0
EXTRACT: note_off channel=9 note=36 velocity=95 time=0
EXTRACT: note_off channel=0 note=73 velocity=95 time=0.1666665
EXTRACT: note_off channel=0 note=68 velocity=95 time=0
EXTRACT: note_off channel=0 note=64 velocity=95 time=0
EXTRACT: note_off channel=0 note=61 velocity=95 time=0
EXTRACT: note_off channel=12 note=44 velocity=95 time=0
EXTRACT: note_on channel=12 note=42 velocity=95 time=0
EXTRACT: note_on channel=9 note=42 velocity=95 time=0
EXTRACT: note_on channel=9 note=40 velocity=95 time=0
EXTRACT: note_on channel=0 note=73 velocity=95 time=0.1666665
EXTRACT: note_on channel=0 note=68 velocity=95 time=0
EXTRACT: note_on channel=0 note=64 velocity=95 time=0
EXTRACT: note_on channel=0 note=61 velocity=95 time=0
EXTRACT: note_on channel=6 note=61 velocity=95 time=0
EXTRACT: note_on channel=6 note=49 velocity=95 time=0
EXTRACT: note_off channel=12 note=42 velocity=95 time=0
EXTRACT: note_on channel=12 note=44 velocity=70 time=0
EXTRACT: note_off channel=9 note=42 velocity=95 time=0
EXTRACT: note_off channel=9 note=40 velocity=95 time=0
EXTRACT: note_on channel=9 note=42 velocity=95 time=0
EXTRACT: note_off channel=0 note=73 velocity=95 time=0.1666665
EXTRACT: note_off channel=0 note=68 velocity=95 time=0
EXTRACT: note_off channel=0 note=64 velocity=95 time=0
EXTRACT: note_off channel=0 note=61 velocity=95 time=0
EXTRACT: note_off channel=2 note=37 velocity=95 time=0
EXTRACT: note_on channel=3 note=52 velocity=95 time=0
EXTRACT: note_off channel=12 note=44 velocity=70 time=0
EXTRACT: note_on channel=12 note=37 velocity=95 time=0
EXTRACT: note_off channel=9 note=42 velocity=95 time=0
EXTRACT: note_on channel=9 note=42 velocity=95 time=0
EXTRACT: note_on channel=9 note=36 velocity=95 time=0
EXTRACT: note_on channel=0 note=73 velocity=95 time=0.1666665
EXTRACT: note_on channel=0 note=68 velocity=95 time=0
EXTRACT: note_on channel=0 note=64 velocity=95 time=0
EXTRACT: note_on channel=0 note=61 velocity=95 time=0
EXTRACT: note_off channel=9 note=42 velocity=95 time=0
EXTRACT: note_off channel=9 note=36 velocity=95 time=0
EXTRACT: note_off channel=0 note=73 velocity=95 time=0.1666665
EXTRACT: note_off channel=0 note=68 velocity=95 time=0
EXTRACT: note_off channel=0 note=64 velocity=95 time=0
EXTRACT: note_off channel=0 note=61 velocity=95 time=0
EXTRACT: note_on channel=9 note=42 velocity=95 time=0
EXTRACT: note_on channel=9 note=40 velocity=95 time=0
EXTRACT: note_on channel=0 note=73 velocity=95 time=0.1666665
EXTRACT: note_on channel=0 note=68 velocity=95 time=0
EXTRACT: note_on channel=0 note=64 velocity=95 time=0
EXTRACT: note_on channel=0 note=61 velocity=95 time=0
EXTRACT: note_off channel=12 note=37 velocity=95 time=0
EXTRACT: note_on channel=12 note=44 velocity=95 time=0
EXTRACT: note_off channel=9 note=42 velocity=95 time=0
EXTRACT: note_off channel=9 note=40 velocity=95 time=0
EXTRACT: note_on channel=9 note=42 velocity=95 time=0
EXTRACT: note_off channel=0 note=73 velocity=95 time=0.1666665
EXTRACT: note_off channel=0 note=68 velocity=95 time=0
EXTRACT: note_off channel=0 note=64 velocity=95 time=0
EXTRACT: note_off channel=0 note=61 velocity=95 time=0
EXTRACT: note_off channel=12 note=44 velocity=95 time=0
EXTRACT: note_on channel=12 note=44 velocity=95 time=0
EXTRACT: note_off channel=9 note=42 velocity=95 time=0
EXTRACT: note_on channel=9 note=42 velocity=95 time=0
EXTRACT: note_on channel=0 note=73 velocity=95 time=0.1666665
EXTRACT: note_on channel=0 note=68 velocity=95 time=0
EXTRACT: note_on channel=0 note=64 velocity=95 time=0
EXTRACT: note_on channel=0 note=61 velocity=95 time=0
EXTRACT: note_off channel=9 note=42 velocity=95 time=0
EXTRACT: note_on channel=9 note=36 velocity=95 time=0
EXTRACT: note_off channel=0 note=73 velocity=95 time=0.1666665
EXTRACT: note_off channel=0 note=68 velocity=95 time=0
EXTRACT: note_off channel=0 note=64 velocity=95 time=0
EXTRACT: note_off channel=0 note=61 velocity=95 time=0
EXTRACT: note_off channel=12 note=44 velocity=95 time=0
EXTRACT: note_on channel=12 note=42 velocity=95 time=0
EXTRACT: note_off channel=9 note=36 velocity=95 time=0
EXTRACT: note_on channel=9 note=42 velocity=95 time=0
EXTRACT: note_on channel=9 note=40 velocity=95 time=0
EXTRACT: note_off channel=6 note=61 velocity=95 time=0.08333325
EXTRACT: note_off channel=6 note=49 velocity=95 time=0
EXTRACT: note_on channel=0 note=73 velocity=95 time=0.08333325
EXTRACT: note_on channel=0 note=68 velocity=95 time=0
EXTRACT: note_on channel=0 note=64 velocity=95 time=0
EXTRACT: note_on channel=0 note=61 velocity=95 time=0
EXTRACT: note_off channel=12 note=42 velocity=95 time=0
EXTRACT: note_on channel=12 note=44 velocity=70 time=0
EXTRACT: note_off channel=9 note=42 velocity=95 time=0
EXTRACT: note_off channel=9 note=40 velocity=95 time=0
EXTRACT: note_on channel=9 note=42 velocity=95 time=0
EXTRACT: note_off channel=0 note=73 velocity=95 time=0.1666665
EXTRACT: note_off channel=0 note=68 velocity=95 time=0
EXTRACT: note_off channel=0 note=64 velocity=95 time=0
EXTRACT: note_off channel=0 note=61 velocity=95 time=0
EXTRACT: note_off channel=3 note=52 velocity=95 time=0
EXTRACT: note_off channel=12 note=44 velocity=70 time=0
EXTRACT: note_on channel=12 note=37 velocity=95 time=0
EXTRACT: note_off channel=9 note=42 velocity=95 time=0
EXTRACT: note_on channel=9 note=42 velocity=95 time=0
EXTRACT: note_on channel=9 note=36 velocity=95 time=0
EXTRACT: note_on channel=0 note=73 velocity=95 time=0.1666665
EXTRACT: note_on channel=0 note=68 velocity=95 time=0
EXTRACT: note_on channel=0 note=64 velocity=95 time=0
EXTRACT: note_on channel=0 note=61 velocity=95 time=0
EXTRACT: note_off channel=9 note=42 velocity=95 time=0
EXTRACT: note_off channel=9 note=36 velocity=95 time=0
EXTRACT: note_off channel=0 note=73 velocity=95 time=0.1666665
EXTRACT: note_off channel=0 note=68 velocity=95 time=0
EXTRACT: note_off channel=0 note=64 velocity=95 time=0
EXTRACT: note_off channel=0 note=61 velocity=95 time=0
EXTRACT: note_on channel=6 note=56 velocity=95 time=0
EXTRACT: note_on channel=14 note=68 velocity=95 time=0
EXTRACT: note_on channel=9 note=42 velocity=95 time=0
EXTRACT: note_on channel=9 note=40 velocity=95 time=0
EXTRACT: note_on channel=0 note=73 velocity=95 time=0.1666665
EXTRACT: note_on channel=0 note=68 velocity=95 time=0
EXTRACT: note_on channel=0 note=64 velocity=95 time=0
EXTRACT: note_on channel=0 note=61 velocity=95 time=0
EXTRACT: note_off channel=12 note=37 velocity=95 time=0
EXTRACT: note_on channel=12 note=44 velocity=95 time=0
EXTRACT: note_off channel=9 note=42 velocity=95 time=0
EXTRACT: note_off channel=9 note=40 velocity=95 time=0
EXTRACT: note_on channel=9 note=42 velocity=95 time=0
EXTRACT: note_off channel=6 note=56 velocity=95 time=0.1041665625
EXTRACT: note_off channel=14 note=68 velocity=95 time=0
EXTRACT: note_off channel=0 note=73 velocity=95 time=0.062499937500000005
EXTRACT: note_off channel=0 note=68 velocity=95 time=0
EXTRACT: note_off channel=0 note=64 velocity=95 time=0
EXTRACT: note_off channel=0 note=61 velocity=95 time=0
EXTRACT: note_on channel=6 note=56 velocity=95 time=0
EXTRACT: note_off channel=12 note=44 velocity=95 time=0
EXTRACT: note_on channel=12 note=44 velocity=95 time=0
EXTRACT: note_on channel=14 note=68 velocity=95 time=0
EXTRACT: note_off channel=9 note=42 velocity=95 time=0
EXTRACT: note_on channel=9 note=42 velocity=95 time=0
EXTRACT: note_on channel=9 note=36 velocity=95 time=0
EXTRACT: note_on channel=0 note=73 velocity=95 time=0.1666665
EXTRACT: note_on channel=0 note=68 velocity=95 time=0
EXTRACT: note_on channel=0 note=64 velocity=95 time=0
EXTRACT: note_on channel=0 note=61 velocity=95 time=0
EXTRACT: note_off channel=9 note=42 velocity=95 time=0
EXTRACT: note_off channel=9 note=36 velocity=95 time=0
EXTRACT: note_off channel=0 note=73 velocity=95 time=0.1666665
EXTRACT: note_off channel=0 note=68 velocity=95 time=0
EXTRACT: note_off channel=0 note=64 velocity=95 time=0
EXTRACT: note_off channel=0 note=61 velocity=95 time=0
EXTRACT: note_off channel=12 note=44 velocity=95 time=0
EXTRACT: note_on channel=12 note=42 velocity=95 time=0
EXTRACT: note_on channel=9 note=42 velocity=95 time=0
EXTRACT: note_on channel=9 note=40 velocity=95 time=0
EXTRACT: note_off channel=6 note=56 velocity=95 time=0.1041665625
EXTRACT: note_off channel=14 note=68 velocity=95 time=0
EXTRACT: note_on channel=0 note=73 velocity=95 time=0.062499937500000005
EXTRACT: note_on channel=0 note=68 velocity=95 time=0
EXTRACT: note_on channel=0 note=64 velocity=95 time=0
EXTRACT: note_on channel=0 note=61 velocity=95 time=0
EXTRACT: note_on channel=6 note=52 velocity=95 time=0
EXTRACT: note_off channel=12 note=42 velocity=95 time=0
EXTRACT: note_on channel=12 note=44 velocity=70 time=0
EXTRACT: note_on channel=14 note=64 velocity=95 time=0
EXTRACT: note_off channel=9 note=42 velocity=95 time=0
EXTRACT: note_off channel=9 note=40 velocity=95 time=0
EXTRACT: note_on channel=9 note=42 velocity=95 time=0
EXTRACT: note_off channel=0 note=73 velocity=95 time=0.1666665
EXTRACT: note_off channel=0 note=68 velocity=95 time=0
EXTRACT: note_off channel=0 note=64 velocity=95 time=0
EXTRACT: note_off channel=0 note=61 velocity=95 time=0
EXTRACT: note_off channel=6 note=52 velocity=95 time=0
EXTRACT: note_on channel=6 note=54 velocity=95 time=0
EXTRACT: note_off channel=12 note=44 velocity=70 time=0
EXTRACT: note_on channel=12 note=37 velocity=95 time=0
EXTRACT: note_off channel=14 note=64 velocity=95 time=0
EXTRACT: note_on channel=14 note=66 velocity=95 time=0
EXTRACT: note_off channel=9 note=42 velocity=95 time=0
EXTRACT: note_on channel=9 note=42 velocity=95 time=0
EXTRACT: note_on channel=9 note=36 velocity=95 time=0
EXTRACT: note_on channel=0 note=73 velocity=95 time=0.1666665
EXTRACT: note_on channel=0 note=68 velocity=95 time=0
EXTRACT: note_on channel=0 note=64 velocity=95 time=0
EXTRACT: note_on channel=0 note=61 velocity=95 time=0
EXTRACT: note_off channel=6 note=54 velocity=95 time=0
EXTRACT: note_on channel=6 note=57 velocity=95 time=0
EXTRACT: note_off channel=14 note=66 velocity=95 time=0
EXTRACT: note_on channel=14 note=69 velocity=95 time=0
EXTRACT: note_off channel=9 note=42 velocity=95 time=0
EXTRACT: note_off channel=9 note=36 velocity=95 time=0
EXTRACT: note_off channel=0 note=73 velocity=95 time=0.1666665
EXTRACT: note_off channel=0 note=68 velocity=95 time=0
EXTRACT: note_off channel=0 note=64 velocity=95 time=0
EXTRACT: note_off channel=0 note=61 velocity=95 time=0
EXTRACT: note_on channel=9 note=42 velocity=95 time=0
EXTRACT: note_on channel=9 note=40 velocity=95 time=0
EXTRACT: note_on channel=0 note=73 velocity=95 time=0.1666665
EXTRACT: note_on channel=0 note=68 velocity=95 time=0
EXTRACT: note_on channel=0 note=64 velocity=95 time=0
EXTRACT: note_on channel=0 note=61 velocity=95 time=0
EXTRACT: note_off channel=6 note=57 velocity=95 time=0
EXTRACT: note_on channel=6 note=57 velocity=95 time=0
EXTRACT: note_off channel=12 note=37 velocity=95 time=0
EXTRACT: note_on channel=12 note=44 velocity=95 time=0
EXTRACT: note_off channel=14 note=69 velocity=95 time=0
EXTRACT: note_on channel=14 note=69 velocity=95 time=0
EXTRACT: note_off channel=9 note=42 velocity=95 time=0
EXTRACT: note_off channel=9 note=40 velocity=95 time=0
EXTRACT: note_on channel=9 note=42 velocity=95 time=0
EXTRACT: note_off channel=0 note=73 velocity=95 time=0.1666665
EXTRACT: note_off channel=0 note=68 velocity=95 time=0
EXTRACT: note_off channel=0 note=64 velocity=95 time=0
EXTRACT: note_off channel=0 note=61 velocity=95 time=0
EXTRACT: note_off channel=12 note=44 velocity=95 time=0
EXTRACT: note_on channel=12 note=44 velocity=95 time=0
EXTRACT: note_off channel=9 note=42 velocity=95 time=0
EXTRACT: note_on channel=9 note=42 velocity=95 time=0
EXTRACT: note_on channel=0 note=73 velocity=95 time=0.1666665
EXTRACT: note_on channel=0 note=68 velocity=95 time=0
EXTRACT: note_on channel=0 note=64 velocity=95 time=0
EXTRACT: note_on channel=0 note=61 velocity=95 time=0
EXTRACT: note_off channel=6 note=57 velocity=95 time=0
EXTRACT: note_on channel=6 note=56 velocity=95 time=0
EXTRACT: note_off channel=14 note=69 velocity=95 time=0
EXTRACT: note_on channel=14 note=68 velocity=95 time=0
EXTRACT: note_off channel=9 note=42 velocity=95 time=0
EXTRACT: note_on channel=9 note=36 velocity=95 time=0
EXTRACT: note_off channel=0 note=73 velocity=95 time=0.1666665
EXTRACT: note_off channel=0 note=68 velocity=95 time=0
EXTRACT: note_off channel=0 note=64 velocity=95 time=0
EXTRACT: note_off channel=0 note=61 velocity=95 time=0
EXTRACT: note_off channel=12 note=44 velocity=95 time=0
EXTRACT: note_on channel=12 note=42 velocity=95 time=0
EXTRACT: note_off channel=9 note=36 velocity=95 time=0
EXTRACT: note_on channel=9 note=42 velocity=95 time=0
EXTRACT: note_on channel=9 note=40 velocity=95 time=0
EXTRACT: note_on channel=0 note=73 velocity=95 time=0.1666665
EXTRACT: note_on channel=0 note=68 velocity=95 time=0
EXTRACT: note_on channel=0 note=64 velocity=95 time=0
EXTRACT: note_on channel=0 note=61 velocity=95 time=0
EXTRACT: note_off channel=12 note=42 velocity=95 time=0
EXTRACT: note_on channel=12 note=44 velocity=70 time=0
EXTRACT: note_off channel=9 note=42 velocity=95 time=0
EXTRACT: note_off channel=9 note=40 velocity=95 time=0
EXTRACT: note_on channel=9 note=42 velocity=95 time=0
EXTRACT: note_off channel=6 note=56 velocity=95 time=0.1041665625
EXTRACT: note_off channel=14 note=68 velocity=95 time=0
EXTRACT: note_off channel=0 note=73 velocity=95 time=0.062499937500000005
EXTRACT: note_off channel=0 note=68 velocity=95 time=0
EXTRACT: note_off channel=0 note=64 velocity=95 time=0
EXTRACT: note_off channel=0 note=61 velocity=95 time=0
EXTRACT: note_off channel=12 note=44 velocity=70 time=0
EXTRACT: note_on channel=12 note=37 velocity=95 time=0
EXTRACT: note_off channel=9 note=42 velocity=95 time=0
EXTRACT: note_on channel=9 note=42 velocity=95 time=0
EXTRACT: note_on channel=9 note=36 velocity=95 time=0
EXTRACT: note_on channel=0 note=73 velocity=95 time=0.1666665
EXTRACT: note_on channel=0 note=68 velocity=95 time=0
EXTRACT: note_on channel=0 note=64 velocity=95 time=0
EXTRACT: note_on channel=0 note=61 velocity=95 time=0
EXTRACT: note_off channel=9 note=42 velocity=95 time=0
EXTRACT: note_off channel=9 note=36 velocity=95 time=0
EXTRACT: note_off channel=0 note=73 velocity=95 time=0.1666665
EXTRACT: note_off channel=0 note=68 velocity=95 time=0
EXTRACT: note_off channel=0 note=64 velocity=95 time=0
EXTRACT: note_off channel=0 note=61 velocity=95 time=0
EXTRACT: note_on channel=6 note=56 velocity=95 time=0
EXTRACT: note_on channel=14 note=68 velocity=95 time=0
EXTRACT: note_on channel=9 note=42 velocity=95 time=0
EXTRACT: note_on channel=9 note=40 velocity=95 time=0
EXTRACT: note_on channel=0 note=73 velocity=95 time=0.1666665
EXTRACT: note_on channel=0 note=68 velocity=95 time=0
EXTRACT: note_on channel=0 note=64 velocity=95 time=0
EXTRACT: note_on channel=0 note=61 velocity=95 time=0
EXTRACT: note_off channel=12 note=37 velocity=95 time=0
EXTRACT: note_on channel=12 note=44 velocity=95 time=0
EXTRACT: note_off channel=9 note=42 velocity=95 time=0
EXTRACT: note_off channel=9 note=40 velocity=95 time=0
EXTRACT: note_on channel=9 note=42 velocity=95 time=0
EXTRACT: note_off channel=6 note=56 velocity=95 time=0.1041665625
EXTRACT: note_off channel=14 note=68 velocity=95 time=0
EXTRACT: note_off channel=0 note=73 velocity=95 time=0.062499937500000005
EXTRACT: note_off channel=0 note=68 velocity=95 time=0
EXTRACT: note_off channel=0 note=64 velocity=95 time=0
EXTRACT: note_off channel=0 note=61 velocity=95 time=0
EXTRACT: note_on channel=6 note=56 velocity=95 time=0
EXTRACT: note_off channel=12 note=44 velocity=95 time=0
EXTRACT: note_on channel=12 note=44 velocity=95 time=0
EXTRACT: note_on channel=14 note=68 velocity=95 time=0
EXTRACT: note_off channel=9 note=42 velocity=95 time=0
EXTRACT: note_on channel=9 note=42 velocity=95 time=0
EXTRACT: note_on channel=9 note=36 velocity=95 time=0
EXTRACT: note_on channel=0 note=73 velocity=95 time=0.1666665
EXTRACT: note_on channel=0 note=68 velocity=95 time=0
EXTRACT: note_on channel=0 note=64 velocity=95 time=0
EXTRACT: note_on channel=0 note=61 velocity=95 time=0
EXTRACT: note_off channel=9 note=42 velocity=95 time=0
EXTRACT: note_off channel=9 note=36 velocity=95 time=0
EXTRACT: note_off channel=0 note=73 velocity=95 time=0.1666665
EXTRACT: note_off channel=0 note=68 velocity=95 time=0
EXTRACT: note_off channel=0 note=64 velocity=95 time=0
EXTRACT: note_off channel=0 note=61 velocity=95 time=0
EXTRACT: note_off channel=12 note=44 velocity=95 time=0
EXTRACT: note_on channel=12 note=42 velocity=95 time=0
EXTRACT: note_on channel=9 note=42 velocity=95 time=0
EXTRACT: note_on channel=9 note=40 velocity=95 time=0
EXTRACT: note_off channel=6 note=56 velocity=95 time=0.1041665625
EXTRACT: note_off channel=14 note=68 velocity=95 time=0
EXTRACT: note_on channel=0 note=73 velocity=95 time=0.062499937500000005
EXTRACT: note_on channel=0 note=68 velocity=95 time=0
EXTRACT: note_on channel=0 note=64 velocity=95 time=0
EXTRACT: note_on channel=0 note=61 velocity=95 time=0
EXTRACT: note_on channel=6 note=51 velocity=95 time=0
EXTRACT: note_off channel=12 note=42 velocity=95 time=0
EXTRACT: note_on channel=12 note=44 velocity=70 time=0
EXTRACT: note_on channel=14 note=63 velocity=95 time=0
EXTRACT: note_off channel=9 note=42 velocity=95 time=0
EXTRACT: note_off channel=9 note=40 velocity=95 time=0
EXTRACT: note_on channel=9 note=42 velocity=95 time=0
EXTRACT: note_off channel=0 note=73 velocity=95 time=0.1666665
EXTRACT: note_off channel=0 note=68 velocity=95 time=0
EXTRACT: note_off channel=0 note=64 velocity=95 time=0
EXTRACT: note_off channel=0 note=61 velocity=95 time=0
EXTRACT: note_off channel=6 note=51 velocity=95 time=0
EXTRACT: note_on channel=6 note=51 velocity=95 time=0
EXTRACT: note_off channel=12 note=44 velocity=70 time=0
EXTRACT: note_on channel=12 note=37 velocity=95 time=0
EXTRACT: note_off channel=14 note=63 velocity=95 time=0
EXTRACT: note_on channel=14 note=63 velocity=95 time=0
EXTRACT: note_off channel=9 note=42 velocity=95 time=0
EXTRACT: note_on channel=9 note=42 velocity=95 time=0
EXTRACT: note_on channel=9 note=36 velocity=95 time=0
EXTRACT: note_on channel=0 note=73 velocity=95 time=0.1666665
EXTRACT: note_on channel=0 note=68 velocity=95 time=0
EXTRACT: note_on channel=0 note=64 velocity=95 time=0
EXTRACT: note_on channel=0 note=61 velocity=95 time=0
EXTRACT: note_off channel=6 note=51 velocity=95 time=0
EXTRACT: note_on channel=6 note=54 velocity=95 time=0
EXTRACT: note_off channel=14 note=63 velocity=95 time=0
EXTRACT: note_on channel=14 note=66 velocity=95 time=0
EXTRACT: note_off channel=9 note=42 velocity=95 time=0
EXTRACT: note_off channel=9 note=36 velocity=95 time=0
EXTRACT: note_off channel=0 note=73 velocity=95 time=0.1666665
EXTRACT: note_off channel=0 note=68 velocity=95 time=0
EXTRACT: note_off channel=0 note=64 velocity=95 time=0
EXTRACT: note_off channel=0 note=61 velocity=95 time=0
EXTRACT: note_on channel=9 note=42 velocity=95 time=0
EXTRACT: note_on channel=9 note=40 velocity=95 time=0
EXTRACT: note_on channel=0 note=73 velocity=95 time=0.1666665
EXTRACT: note_on channel=0 note=68 velocity=95 time=0
EXTRACT: note_on channel=0 note=64 velocity=95 time=0
EXTRACT: note_on channel=0 note=61 velocity=95 time=0
EXTRACT: note_off channel=6 note=54 velocity=95 time=0
EXTRACT: note_on channel=6 note=52 velocity=95 time=0
EXTRACT: note_off channel=12 note=37 velocity=95 time=0
EXTRACT: note_on channel=12 note=44 velocity=95 time=0
EXTRACT: note_off channel=14 note=66 velocity=95 time=0
EXTRACT: note_on channel=14 note=64 velocity=95 time=0
EXTRACT: note_off channel=9 note=42 velocity=95 time=0
EXTRACT: note_off channel=9 note=40 velocity=95 time=0
EXTRACT: note_on channel=9 note=42 velocity=95 time=0
EXTRACT: note_off channel=0 note=73 velocity=95 time=0.1666665
EXTRACT: note_off channel=0 note=68 velocity=95 time=0
EXTRACT: note_off channel=0 note=64 velocity=95 time=0
EXTRACT: note_off channel=0 note=61 velocity=95 time=0
EXTRACT: note_off channel=12 note=44 velocity=95 time=0
EXTRACT: note_on channel=12 note=44 velocity=95 time=0
EXTRACT: note_off channel=9 note=42 velocity=95 time=0
EXTRACT: note_on channel=9 note=42 velocity=95 time=0
EXTRACT: note_on channel=0 note=73 velocity=95 time=0.1666665
EXTRACT: note_on channel=0 note=68 velocity=95 time=0
EXTRACT: note_on channel=0 note=64 velocity=95 time=0
EXTRACT: note_on channel=0 note=61 velocity=95 time=0
EXTRACT: note_on channel=2 note=61 velocity=95 time=0
EXTRACT: pitchwheel channel=3 pitch=0 time=0
EXTRACT: note_on channel=3 note=54 velocity=95 time=0
EXTRACT: note_off channel=9 note=42 velocity=95 time=0
EXTRACT: note_on channel=9 note=36 velocity=95 time=0
EXTRACT: pitchwheel channel=3 pitch=128 time=0.0072916593750000005
EXTRACT: pitchwheel channel=3 pitch=256 time=0.0072916593750000005
EXTRACT: pitchwheel channel=3 pitch=384 time=0.0072916593750000005
EXTRACT: pitchwheel channel=3 pitch=512 time=0.0072916593750000005
EXTRACT: pitchwheel channel=3 pitch=640 time=0.0072916593750000005
EXTRACT: pitchwheel channel=3 pitch=768 time=0.0072916593750000005
EXTRACT: pitchwheel channel=3 pitch=896 time=0.0072916593750000005
EXTRACT: pitchwheel channel=3 pitch=1024 time=0.0072916593750000005
EXTRACT: pitchwheel channel=3 pitch=1152 time=0.0072916593750000005
EXTRACT: pitchwheel channel=3 pitch=1280 time=0.0072916593750000005
EXTRACT: pitchwheel channel=3 pitch=1408 time=0.0072916593750000005
EXTRACT: pitchwheel channel=3 pitch=1408 time=0.003124996875
EXTRACT: note_off channel=6 note=52 velocity=95 time=0.0208333125
EXTRACT: note_off channel=14 note=64 velocity=95 time=0
EXTRACT: note_off channel=0 note=73 velocity=95 time=0.062499937500000005
EXTRACT: note_off channel=0 note=68 velocity=95 time=0
EXTRACT: note_off channel=0 note=64 velocity=95 time=0
EXTRACT: note_off channel=0 note=61 velocity=95 time=0
EXTRACT: pitchwheel channel=3 pitch=1408 time=0
EXTRACT: note_off channel=12 note=44 velocity=95 time=0
EXTRACT: note_on channel=12 note=42 velocity=95 time=0
EXTRACT: note_off channel=9 note=36 velocity=95 time=0
EXTRACT: note_on channel=9 note=42 velocity=95 time=0
EXTRACT: note_on channel=9 note=40 velocity=95 time=0
EXTRACT: pitchwheel channel=3 pitch=1280 time=0.0072916593750000005
EXTRACT: pitchwheel channel=3 pitch=1152 time=0.0072916593750000005
EXTRACT: pitchwheel channel=3 pitch=1024 time=0.0072916593750000005
EXTRACT: pitchwheel channel=3 pitch=896 time=0.0072916593750000005
EXTRACT: pitchwheel channel=3 pitch=768 time=0.0072916593750000005
EXTRACT: pitchwheel channel=3 pitch=640 time=0.0072916593750000005
EXTRACT: pitchwheel channel=3 pitch=512 time=0.0072916593750000005
EXTRACT: pitchwheel channel=3 pitch=384 time=0.0072916593750000005
EXTRACT: pitchwheel channel=3 pitch=256 time=0.0072916593750000005
EXTRACT: pitchwheel channel=3 pitch=128 time=0.0072916593750000005
EXTRACT: pitchwheel channel=3 pitch=0 time=0.0072916593750000005
EXTRACT: pitchwheel channel=3 pitch=0 time=0.003124996875
EXTRACT: note_on channel=0 note=73 velocity=95 time=0.08333325
EXTRACT: note_on channel=0 note=68 velocity=95 time=0
EXTRACT: note_on channel=0 note=64 velocity=95 time=0
EXTRACT: note_on channel=0 note=61 velocity=95 time=0
EXTRACT: note_off channel=2 note=61 velocity=95 time=0
EXTRACT: pitchwheel channel=3 pitch=0 time=0
EXTRACT: pitchwheel channel=3 pitch=0 time=0
EXTRACT: note_off channel=3 note=54 velocity=95 time=0
EXTRACT: note_on channel=2 note=52 velocity=95 time=0
EXTRACT: note_off channel=12 note=42 velocity=95 time=0
EXTRACT: note_on channel=12 note=44 velocity=70 time=0
EXTRACT: note_off channel=9 note=42 velocity=95 time=0
EXTRACT: note_off channel=9 note=40 velocity=95 time=0
EXTRACT: note_on channel=9 note=42 velocity=95 time=0
EXTRACT: note_off channel=0 note=73 velocity=95 time=0.1666665
EXTRACT: note_off channel=0 note=68 velocity=95 time=0
EXTRACT: note_off channel=0 note=64 velocity=95 time=0
EXTRACT: note_off channel=0 note=61 velocity=95 time=0
EXTRACT: note_off channel=2 note=52 velocity=95 time=0
EXTRACT: note_on channel=2 note=49 velocity=95 time=0
EXTRACT: note_off channel=12 note=44 velocity=70 time=0
EXTRACT: note_on channel=12 note=37 velocity=95 time=0
EXTRACT: note_off channel=9 note=42 velocity=95 time=0
EXTRACT: note_on channel=9 note=42 velocity=95 time=0
EXTRACT: note_on channel=9 note=36 velocity=95 time=0
EXTRACT: note_on channel=0 note=73 velocity=95 time=0.1666665
EXTRACT: note_on channel=0 note=68 velocity=95 time=0
EXTRACT: note_on channel=0 note=64 velocity=95 time=0
EXTRACT: note_on channel=0 note=61 velocity=95 time=0
EXTRACT: note_off channel=9 note=42 velocity=95 time=0
EXTRACT: note_off channel=9 note=36 velocity=95 time=0
EXTRACT: note_off channel=0 note=73 velocity=95 time=0.1666665
EXTRACT: note_off channel=0 note=68 velocity=95 time=0
EXTRACT: note_off channel=0 note=64 velocity=95 time=0
EXTRACT: note_off channel=0 note=61 velocity=95 time=0
EXTRACT: note_off channel=2 note=49 velocity=95 time=0
EXTRACT: note_on channel=6 note=56 velocity=95 time=0
EXTRACT: note_on channel=14 note=68 velocity=95 time=0
EXTRACT: note_on channel=9 note=42 velocity=95 time=0
EXTRACT: note_on channel=9 note=40 velocity=95 time=0
EXTRACT: note_on channel=0 note=73 velocity=95 time=0.1666665
EXTRACT: note_on channel=0 note=68 velocity=95 time=0
EXTRACT: note_on channel=0 note=64 velocity=95 time=0
EXTRACT: note_on channel=0 note=61 velocity=95 time=0
EXTRACT: note_off channel=12 note=37 velocity=95 time=0
EXTRACT: note_on channel=12 note=44 velocity=95 time=0
EXTRACT: note_off channel=9 note=42 velocity=95 time=0
EXTRACT: note_off channel=9 note=40 velocity=95 time=0
EXTRACT: note_on channel=9 note=42 velocity=95 time=0
EXTRACT: note_off channel=6 note=56 velocity=95 time=0.1041665625
EXTRACT: note_off channel=14 note=68 velocity=95 time=0
EXTRACT: note_off channel=0 note=73 velocity=95 time=0.062499937500000005
EXTRACT: note_off channel=0 note=68 velocity=95 time=0
EXTRACT: note_off channel=0 note=64 velocity=95 time=0
EXTRACT: note_off channel=0 note=61 velocity=95 time=0
EXTRACT: note_on channel=6 note=56 velocity=95 time=0
EXTRACT: note_off channel=12 note=44 velocity=95 time=0
EXTRACT: note_on channel=12 note=44 velocity=95 time=0
EXTRACT: note_on channel=14 note=68 velocity=95 time=0
EXTRACT: note_off channel=9 note=42 velocity=95 time=0
EXTRACT: note_on channel=9 note=42 velocity=95 time=0
EXTRACT: note_on channel=9 note=36 velocity=95 time=0
EXTRACT: note_on channel=0 note=73 velocity=95 time=0.1666665
EXTRACT: note_on channel=0 note=68 velocity=95 time=0
EXTRACT: note_on channel=0 note=64 velocity=95 time=0
EXTRACT: note_on channel=0 note=61 velocity=95 time=0
EXTRACT: note_off channel=9 note=42 velocity=95 time=0
EXTRACT: note_off channel=9 note=36 velocity=95 time=0
EXTRACT: note_off channel=0 note=73 velocity=95 time=0.1666665
EXTRACT: note_off channel=0 note=68 velocity=95 time=0
EXTRACT: note_off channel=0 note=64 velocity=95 time=0
EXTRACT: note_off channel=0 note=61 velocity=95 time=0
EXTRACT: note_off channel=12 note=44 velocity=95 time=0
EXTRACT: note_on channel=12 note=42 velocity=95 time=0
EXTRACT: note_on channel=9 note=42 velocity=95 time=0
EXTRACT: note_on channel=9 note=40 velocity=95 time=0
EXTRACT: note_off channel=6 note=56 velocity=95 time=0.1041665625
EXTRACT: note_off channel=14 note=68 velocity=95 time=0
EXTRACT: note_on channel=0 note=73 velocity=95 time=0.062499937500000005
EXTRACT: note_on channel=0 note=68 velocity=95 time=0
EXTRACT: note_on channel=0 note=64 velocity=95 time=0
EXTRACT: note_on channel=0 note=61 velocity=95 time=0
EXTRACT: note_on channel=6 note=52 velocity=95 time=0
EXTRACT: note_off channel=12 note=42 velocity=95 time=0
EXTRACT: note_on channel=12 note=44 velocity=70 time=0
EXTRACT: note_on channel=14 note=64 velocity=95 time=0
EXTRACT: note_off channel=9 note=42 velocity=95 time=0
EXTRACT: note_off channel=9 note=40 velocity=95 time=0
EXTRACT: note_on channel=9 note=42 velocity=95 time=0
EXTRACT: note_off channel=0 note=73 velocity=95 time=0.1666665
EXTRACT: note_off channel=0 note=68 velocity=95 time=0
EXTRACT: note_off channel=0 note=64 velocity=95 time=0
EXTRACT: note_off channel=0 note=61 velocity=95 time=0
EXTRACT: note_off channel=6 note=52 velocity=95 time=0
EXTRACT: note_on channel=6 note=54 velocity=95 time=0
EXTRACT: note_off channel=12 note=44 velocity=70 time=0
EXTRACT: note_on channel=12 note=37 velocity=95 time=0
EXTRACT: note_off channel=14 note=64 velocity=95 time=0
EXTRACT: note_on channel=14 note=66 velocity=95 time=0
EXTRACT: note_off channel=9 note=42 velocity=95 time=0
EXTRACT: note_on channel=9 note=42 velocity=95 time=0
EXTRACT: note_on channel=9 note=36 velocity=95 time=0
EXTRACT: note_on channel=0 note=73 velocity=95 time=0.1666665
EXTRACT: note_on channel=0 note=68 velocity=95 time=0
EXTRACT: note_on channel=0 note=64 velocity=95 time=0
EXTRACT: note_on channel=0 note=61 velocity=95 time=0
EXTRACT: note_off channel=6 note=54 velocity=95 time=0
EXTRACT: note_on channel=6 note=57 velocity=95 time=0
EXTRACT: note_off channel=14 note=66 velocity=95 time=0
EXTRACT: note_on channel=14 note=69 velocity=95 time=0
EXTRACT: note_off channel=9 note=42 velocity=95 time=0
EXTRACT: note_off channel=9 note=36 velocity=95 time=0
EXTRACT: note_off channel=0 note=73 velocity=95 time=0.1666665
EXTRACT: note_off channel=0 note=68 velocity=95 time=0
EXTRACT: note_off channel=0 note=64 velocity=95 time=0
EXTRACT: note_off channel=0 note=61 velocity=95 time=0
EXTRACT: note_on channel=9 note=42 velocity=95 time=0
EXTRACT: note_on channel=9 note=40 velocity=95 time=0
EXTRACT: note_on channel=0 note=73 velocity=95 time=0.1666665
EXTRACT: note_on channel=0 note=68 velocity=95 time=0
EXTRACT: note_on channel=0 note=64 velocity=95 time=0
EXTRACT: note_on channel=0 note=61 velocity=95 time=0
EXTRACT: note_off channel=6 note=57 velocity=95 time=0
EXTRACT: note_on channel=6 note=57 velocity=95 time=0
EXTRACT: note_off channel=12 note=37 velocity=95 time=0
EXTRACT: note_on channel=12 note=44 velocity=95 time=0
EXTRACT: note_off channel=14 note=69 velocity=95 time=0
EXTRACT: note_on channel=14 note=69 velocity=95 time=0
EXTRACT: note_off channel=9 note=42 velocity=95 time=0
EXTRACT: note_off channel=9 note=40 velocity=95 time=0
EXTRACT: note_on channel=9 note=42 velocity=95 time=0
EXTRACT: note_off channel=0 note=73 velocity=95 time=0.1666665
EXTRACT: note_off channel=0 note=68 velocity=95 time=0
EXTRACT: note_off channel=0 note=64 velocity=95 time=0
EXTRACT: note_off channel=0 note=61 velocity=95 time=0
EXTRACT: note_off channel=12 note=44 velocity=95 time=0
EXTRACT: note_on channel=12 note=44 velocity=95 time=0
EXTRACT: note_off channel=9 note=42 velocity=95 time=0
EXTRACT: note_on channel=9 note=42 velocity=95 time=0
EXTRACT: note_on channel=0 note=73 velocity=95 time=0.1666665
EXTRACT: note_on channel=0 note=68 velocity=95 time=0
EXTRACT: note_on channel=0 note=64 velocity=95 time=0
EXTRACT: note_on channel=0 note=61 velocity=95 time=0
EXTRACT: note_off channel=6 note=57 velocity=95 time=0
EXTRACT: note_on channel=6 note=56 velocity=95 time=0
EXTRACT: note_off channel=14 note=69 velocity=95 time=0
EXTRACT: note_on channel=14 note=68 velocity=95 time=0
EXTRACT: note_off channel=9 note=42 velocity=95 time=0
EXTRACT: note_on channel=9 note=36 velocity=95 time=0
EXTRACT: note_off channel=0 note=73 velocity=95 time=0.1666665
EXTRACT: note_off channel=0 note=68 velocity=95 time=0
EXTRACT: note_off channel=0 note=64 velocity=95 time=0
EXTRACT: note_off channel=0 note=61 velocity=95 time=0
EXTRACT: note_off channel=12 note=44 velocity=95 time=0
EXTRACT: note_on channel=12 note=42 velocity=95 time=0
EXTRACT: note_off channel=9 note=36 velocity=95 time=0
EXTRACT: note_on channel=9 note=42 velocity=95 time=0
EXTRACT: note_on channel=9 note=40 velocity=95 time=0
EXTRACT: note_on channel=0 note=73 velocity=95 time=0.1666665
EXTRACT: note_on channel=0 note=68 velocity=95 time=0
EXTRACT: note_on channel=0 note=64 velocity=95 time=0
EXTRACT: note_on channel=0 note=61 velocity=95 time=0
EXTRACT: note_off channel=12 note=42 velocity=95 time=0
EXTRACT: note_on channel=12 note=44 velocity=70 time=0
EXTRACT: note_off channel=9 note=42 velocity=95 time=0
EXTRACT: note_off channel=9 note=40 velocity=95 time=0
EXTRACT: note_on channel=9 note=42 velocity=95 time=0
EXTRACT: note_off channel=6 note=56 velocity=95 time=0.1041665625
EXTRACT: note_off channel=14 note=68 velocity=95 time=0
EXTRACT: note_off channel=0 note=73 velocity=95 time=0.062499937500000005
EXTRACT: note_off channel=0 note=68 velocity=95 time=0
EXTRACT: note_off channel=0 note=64 velocity=95 time=0
EXTRACT: note_off channel=0 note=61 velocity=95 time=0
EXTRACT: note_off channel=12 note=44 velocity=70 time=0
EXTRACT: note_on channel=12 note=37 velocity=95 time=0
EXTRACT: note_off channel=9 note=42 velocity=95 time=0
EXTRACT: note_on channel=9 note=42 velocity=95 time=0
EXTRACT: note_on channel=9 note=36 velocity=95 time=0
EXTRACT: note_on channel=0 note=73 velocity=95 time=0.1666665
EXTRACT: note_on channel=0 note=68 velocity=95 time=0
EXTRACT: note_on channel=0 note=64 velocity=95 time=0
EXTRACT: note_on channel=0 note=61 velocity=95 time=0
EXTRACT: note_off channel=9 note=42 velocity=95 time=0
EXTRACT: note_off channel=9 note=36 velocity=95 time=0
EXTRACT: note_off channel=0 note=73 velocity=95 time=0.1666665
EXTRACT: note_off channel=0 note=68 velocity=95 time=0
EXTRACT: note_off channel=0 note=64 velocity=95 time=0
EXTRACT: note_off channel=0 note=61 velocity=95 time=0
EXTRACT: note_on channel=6 note=56 velocity=95 time=0
EXTRACT: note_on channel=14 note=68 velocity=95 time=0
EXTRACT: note_on channel=9 note=42 velocity=95 time=0
EXTRACT: note_on channel=9 note=40 velocity=95 time=0
EXTRACT: note_on channel=0 note=73 velocity=95 time=0.1666665
EXTRACT: note_on channel=0 note=68 velocity=95 time=0
EXTRACT: note_on channel=0 note=64 velocity=95 time=0
EXTRACT: note_on channel=0 note=61 velocity=95 time=0
EXTRACT: note_off channel=12 note=37 velocity=95 time=0
EXTRACT: note_on channel=12 note=44 velocity=95 time=0
EXTRACT: note_off channel=9 note=42 velocity=95 time=0
EXTRACT: note_off channel=9 note=40 velocity=95 time=0
EXTRACT: note_on channel=9 note=42 velocity=95 time=0
EXTRACT: note_off channel=6 note=56 velocity=95 time=0.1041665625
EXTRACT: note_off channel=14 note=68 velocity=95 time=0
EXTRACT: note_off channel=0 note=73 velocity=95 time=0.062499937500000005
EXTRACT: note_off channel=0 note=68 velocity=95 time=0
EXTRACT: note_off channel=0 note=64 velocity=95 time=0
EXTRACT: note_off channel=0 note=61 velocity=95 time=0
EXTRACT: note_on channel=6 note=56 velocity=95 time=0
EXTRACT: note_off channel=12 note=44 velocity=95 time=0
EXTRACT: note_on channel=12 note=44 velocity=95 time=0
EXTRACT: note_on channel=14 note=68 velocity=95 time=0
EXTRACT: note_off channel=9 note=42 velocity=95 time=0
EXTRACT: note_on channel=9 note=42 velocity=95 time=0
EXTRACT: note_on channel=9 note=36 velocity=95 time=0
EXTRACT: note_on channel=0 note=73 velocity=95 time=0.1666665
EXTRACT: note_on channel=0 note=68 velocity=95 time=0
EXTRACT: note_on channel=0 note=64 velocity=95 time=0
EXTRACT: note_on channel=0 note=61 velocity=95 time=0
EXTRACT: note_off channel=9 note=42 velocity=95 time=0
EXTRACT: note_off channel=9 note=36 velocity=95 time=0
EXTRACT: note_off channel=6 note=56 velocity=95 time=0.1041665625
EXTRACT: note_off channel=14 note=68 velocity=95 time=0
EXTRACT: note_off channel=0 note=73 velocity=95 time=0.062499937500000005
EXTRACT: note_off channel=0 note=68 velocity=95 time=0
EXTRACT: note_off channel=0 note=64 velocity=95 time=0
EXTRACT: note_off channel=0 note=61 velocity=95 time=0
EXTRACT: note_on channel=6 note=51 velocity=95 time=0
EXTRACT: note_off channel=12 note=44 velocity=95 time=0
EXTRACT: note_on channel=12 note=42 velocity=95 time=0
EXTRACT: note_on channel=14 note=63 velocity=95 time=0
EXTRACT: note_on channel=9 note=42 velocity=95 time=0
EXTRACT: note_on channel=9 note=40 velocity=95 time=0
EXTRACT: note_on channel=0 note=73 velocity=95 time=0.1666665
EXTRACT: note_on channel=0 note=68 velocity=95 time=0
EXTRACT: note_on channel=0 note=64 velocity=95 time=0
EXTRACT: note_on channel=0 note=61 velocity=95 time=0
EXTRACT: note_off channel=12 note=42 velocity=95 time=0
EXTRACT: note_on channel=12 note=44 velocity=70 time=0
EXTRACT: note_off channel=9 note=42 velocity=95 time=0
EXTRACT: note_off channel=9 note=40 velocity=95 time=0
EXTRACT: note_on channel=9 note=42 velocity=95 time=0
EXTRACT: note_off channel=6 note=51 velocity=95 time=0.1041665625
EXTRACT: note_off channel=14 note=63 velocity=95 time=0
EXTRACT: note_off channel=0 note=73 velocity=95 time=0.062499937500000005
EXTRACT: note_off channel=0 note=68 velocity=95 time=0
EXTRACT: note_off channel=0 note=64 velocity=95 time=0
EXTRACT: note_off channel=0 note=61 velocity=95 time=0
EXTRACT: note_on channel=6 note=51 velocity=95 time=0
EXTRACT: note_off channel=12 note=44 velocity=70 time=0
EXTRACT: note_on channel=12 note=37 velocity=95 time=0
EXTRACT: note_on channel=14 note=63 velocity=95 time=0
EXTRACT: note_off channel=9 note=42 velocity=95 time=0
EXTRACT: note_on channel=9 note=42 velocity=95 time=0
EXTRACT: note_on channel=9 note=36 velocity=95 time=0
EXTRACT: note_on channel=0 note=73 velocity=95 time=0.1666665
EXTRACT: note_on channel=0 note=68 velocity=95 time=0
EXTRACT: note_on channel=0 note=64 velocity=95 time=0
EXTRACT: note_on channel=0 note=61 velocity=95 time=0
EXTRACT: note_off channel=6 note=51 velocity=95 time=0
EXTRACT: note_on channel=6 note=54 velocity=95 time=0
EXTRACT: note_off channel=14 note=63 velocity=95 time=0
EXTRACT: note_on channel=14 note=66 velocity=95 time=0
EXTRACT: note_off channel=9 note=42 velocity=95 time=0
EXTRACT: note_off channel=9 note=36 velocity=95 time=0
EXTRACT: note_off channel=0 note=73 velocity=95 time=0.1666665
EXTRACT: note_off channel=0 note=68 velocity=95 time=0
EXTRACT: note_off channel=0 note=64 velocity=95 time=0
EXTRACT: note_off channel=0 note=61 velocity=95 time=0
EXTRACT: note_on channel=9 note=42 velocity=95 time=0
EXTRACT: note_on channel=9 note=40 velocity=95 time=0
EXTRACT: note_on channel=0 note=73 velocity=95 time=0.1666665
EXTRACT: note_on channel=0 note=68 velocity=95 time=0
EXTRACT: note_on channel=0 note=64 velocity=95 time=0
EXTRACT: note_on channel=0 note=61 velocity=95 time=0
EXTRACT: note_on channel=3 note=59 velocity=95 time=0
EXTRACT: note_off channel=6 note=54 velocity=95 time=0
EXTRACT: note_on channel=6 note=52 velocity=95 time=0
EXTRACT: note_off channel=12 note=37 velocity=95 time=0
EXTRACT: note_on channel=12 note=44 velocity=95 time=0
EXTRACT: note_off channel=14 note=66 velocity=95 time=0
EXTRACT: note_on channel=14 note=64 velocity=95 time=0
EXTRACT: note_off channel=9 note=42 velocity=95 time=0
EXTRACT: note_off channel=9 note=40 velocity=95 time=0
EXTRACT: note_on channel=9 note=42 velocity=95 time=0
EXTRACT: pitchwheel channel=3 pitch=1408 time=0.041666625
EXTRACT: pitchwheel channel=3 pitch=0 time=0
EXTRACT: note_off channel=3 note=59 velocity=95 time=0
EXTRACT: note_on channel=2 note=61 velocity=95 time=0
EXTRACT: note_on channel=2 note=61 velocity=95 time=0
EXTRACT: note_off channel=0 note=73 velocity=95 time=0.12499987500000001
EXTRACT: note_off channel=0 note=68 velocity=95 time=0
EXTRACT: note_off channel=0 note=64 velocity=95 time=0
EXTRACT: note_off channel=0 note=61 velocity=95 time=0
EXTRACT: note_off channel=12 note=44 velocity=95 time=0
EXTRACT: note_on channel=12 note=44 velocity=95 time=0
EXTRACT: note_off channel=9 note=42 velocity=95 time=0
EXTRACT: note_on channel=9 note=42 velocity=95 time=0
EXTRACT: note_on channel=0 note=73 velocity=95 time=0.1666665
EXTRACT: note_on channel=0 note=68 velocity=95 time=0
EXTRACT: note_on channel=0 note=64 velocity=95 time=0
EXTRACT: note_on channel=0 note=61 velocity=95 time=0
EXTRACT: note_off channel=2 note=61 velocity=95 time=0
EXTRACT: note_off channel=2 note=61 velocity=95 time=0
EXTRACT: note_on channel=2 note=61 velocity=95 time=0
EXTRACT: note_on channel=2 note=61 velocity=95 time=0
EXTRACT: note_off channel=9 note=42 velocity=95 time=0
EXTRACT: note_on channel=9 note=36 velocity=95 time=0
EXTRACT: note_off channel=6 note=52 velocity=95 time=0.1041665625
EXTRACT: note_off channel=14 note=64 velocity=95 time=0
EXTRACT: note_off channel=0 note=73 velocity=95 time=0.062499937500000005
EXTRACT: note_off channel=0 note=68 velocity=95 time=0
EXTRACT: note_off channel=0 note=64 velocity=95 time=0
EXTRACT: note_off channel=0 note=61 velocity=95 time=0
EXTRACT: note_off channel=2 note=61 velocity=95 time=0
EXTRACT: note_off channel=2 note=61 velocity=95 time=0
EXTRACT: note_on channel=2 note=61 velocity=95 time=0
EXTRACT: note_on channel=2 note=61 velocity=95 time=0
EXTRACT: note_off channel=12 note=44 velocity=95 time=0
EXTRACT: note_on channel=12 note=42 velocity=95 time=0
EXTRACT: note_off channel=9 note=36 velocity=95 time=0
EXTRACT: note_on channel=9 note=42 velocity=95 time=0
EXTRACT: note_on channel=9 note=40 velocity=95 time=0
EXTRACT: note_on channel=0 note=73 velocity=95 time=0.1666665
EXTRACT: note_on channel=0 note=68 velocity=95 time=0
EXTRACT: note_on channel=0 note=64 velocity=95 time=0
EXTRACT: note_on channel=0 note=61 velocity=95 time=0
EXTRACT: note_off channel=2 note=61 velocity=95 time=0
EXTRACT: note_off channel=2 note=61 velocity=95 time=0
EXTRACT: note_on channel=2 note=61 velocity=95 time=0
EXTRACT: note_on channel=2 note=61 velocity=95 time=0
EXTRACT: note_on channel=6 note=56 velocity=95 time=0
EXTRACT: note_off channel=12 note=42 velocity=95 time=0
EXTRACT: note_on channel=12 note=44 velocity=70 time=0
EXTRACT: note_off channel=9 note=42 velocity=95 time=0
EXTRACT: note_off channel=9 note=40 velocity=95 time=0
EXTRACT: note_on channel=9 note=42 velocity=95 time=0
EXTRACT: note_off channel=0 note=73 velocity=95 time=0.1666665
EXTRACT: note_off channel=0 note=68 velocity=95 time=0
EXTRACT: note_off channel=0 note=64 velocity=95 time=0
EXTRACT: note_off channel=0 note=61 velocity=95 time=0
EXTRACT: note_off channel=2 note=61 velocity=95 time=0
EXTRACT: note_off channel=2 note=61 velocity=95 time=0
EXTRACT: note_on channel=2 note=61 velocity=95 time=0
EXTRACT: note_on channel=2 note=61 velocity=95 time=0
EXTRACT: note_off channel=6 note=56 velocity=95 time=0
EXTRACT: note_on channel=6 note=61 velocity=95 time=0
EXTRACT: note_on channel=6 note=57 velocity=95 time=0
EXTRACT: note_off channel=12 note=44 velocity=70 time=0
EXTRACT: note_on channel=12 note=30 velocity=95 time=0
EXTRACT: note_on channel=14 note=78 velocity=95 time=0
EXTRACT: note_on channel=14 note=66 velocity=95 time=0
EXTRACT: note_off channel=9 note=42 velocity=95 time=0
EXTRACT: note_on channel=9 note=42 velocity=95 time=0
EXTRACT: note_on channel=9 note=36 velocity=95 time=0
EXTRACT: note_on channel=0 note=66 velocity=95 time=0.1666665
EXTRACT: note_on channel=0 note=61 velocity=95 time=0
EXTRACT: note_on channel=0 note=57 velocity=95 time=0
EXTRACT: note_on channel=0 note=54 velocity=95 time=0
EXTRACT: note_off channel=9 note=42 velocity=95 time=0
EXTRACT: note_off channel=9 note=36 velocity=95 time=0
EXTRACT: note_off channel=6 note=61 velocity=95 time=0.1041665625
EXTRACT: note_off channel=6 note=57 velocity=95 time=0
EXTRACT: note_off channel=0 note=66 velocity=95 time=0.062499937500000005
EXTRACT: note_off channel=0 note=61 velocity=95 time=0
EXTRACT: note_off channel=0 note=57 velocity=95 time=0
EXTRACT: note_off channel=0 note=54 velocity=95 time=0
EXTRACT: note_on channel=6 note=61 velocity=95 time=0
EXTRACT: note_on channel=6 note=57 velocity=95 time=0
EXTRACT: note_on channel=9 note=42 velocity=95 time=0
EXTRACT: note_on channel=9 note=40 velocity=95 time=0
EXTRACT: note_on channel=0 note=66 velocity=95 time=0.1666665
EXTRACT: note_on channel=0 note=61 velocity=95 time=0
EXTRACT: note_on channel=0 note=57 velocity=95 time=0
EXTRACT: note_on channel=0 note=54 velocity=95 time=0
EXTRACT: note_off channel=6 note=61 velocity=95 time=0
EXTRACT: note_off channel=6 note=57 velocity=95 time=0
EXTRACT: note_on channel=6 note=61 velocity=95 time=0
EXTRACT: note_on channel=6 note=57 velocity=95 time=0
EXTRACT: note_off channel=12 note=30 velocity=95 time=0
EXTRACT: note_on channel=12 note=37 velocity=95 time=0
EXTRACT: note_off channel=9 note=42 velocity=95 time=0
EXTRACT: note_off channel=9 note=40 velocity=95 time=0
EXTRACT: note_on channel=9 note=42 velocity=95 time=0
EXTRACT: note_off channel=0 note=66 velocity=95 time=0.1666665
EXTRACT: note_off channel=0 note=61 velocity=95 time=0
EXTRACT: note_off channel=0 note=57 velocity=95 time=0
EXTRACT: note_off channel=0 note=54 velocity=95 time=0
EXTRACT: note_off channel=9 note=42 velocity=95 time=0
EXTRACT: note_on channel=9 note=42 velocity=95 time=0
EXTRACT: note_on channel=9 note=36 velocity=95 time=0
EXTRACT: note_on channel=0 note=66 velocity=95 time=0.1666665
EXTRACT: note_on channel=0 note=61 velocity=95 time=0
EXTRACT: note_on channel=0 note=57 velocity=95 time=0
EXTRACT: note_on channel=0 note=54 velocity=95 time=0
EXTRACT: note_off channel=6 note=61 velocity=95 time=0
EXTRACT: note_off channel=6 note=57 velocity=95 time=0
EXTRACT: note_on channel=6 note=61 velocity=95 time=0
EXTRACT: note_on channel=6 note=57 velocity=95 time=0
EXTRACT: note_off channel=9 note=42 velocity=95 time=0
EXTRACT: note_off channel=9 note=36 velocity=95 time=0
EXTRACT: note_off channel=0 note=66 velocity=95 time=0.1666665
EXTRACT: note_off channel=0 note=61 velocity=95 time=0
EXTRACT: note_off channel=0 note=57 velocity=95 time=0
EXTRACT: note_off channel=0 note=54 velocity=95 time=0
EXTRACT: note_off channel=12 note=37 velocity=95 time=0
EXTRACT: note_on channel=12 note=35 velocity=95 time=0
EXTRACT: note_on channel=9 note=42 velocity=95 time=0
EXTRACT: note_on channel=9 note=40 velocity=95 time=0
EXTRACT: note_on channel=0 note=66 velocity=95 time=0.1666665
EXTRACT: note_on channel=0 note=61 velocity=95 time=0
EXTRACT: note_on channel=0 note=57 velocity=95 time=0
EXTRACT: note_on channel=0 note=54 velocity=95 time=0
EXTRACT: note_off channel=6 note=61 velocity=95 time=0
EXTRACT: note_off channel=6 note=57 velocity=95 time=0
EXTRACT: note_on channel=6 note=61 velocity=95 time=0
EXTRACT: note_on channel=6 note=57 velocity=95 time=0
EXTRACT: note_off channel=12 note=35 velocity=95 time=0
EXTRACT: note_on channel=12 note=37 velocity=70 time=0
EXTRACT: note_off channel=9 note=42 velocity=95 time=0
EXTRACT: note_off channel=9 note=40 velocity=95 time=0
EXTRACT: note_on channel=9 note=42 velocity=95 time=0
EXTRACT: note_off channel=0 note=66 velocity=95 time=0.1666665
EXTRACT: note_off channel=0 note=61 velocity=95 time=0
EXTRACT: note_off channel=0 note=57 velocity=95 time=0
EXTRACT: note_off channel=0 note=54 velocity=95 time=0
EXTRACT: note_off channel=2 note=61 velocity=95 time=0
EXTRACT: note_off channel=2 note=61 velocity=95 time=0
EXTRACT: note_off channel=12 note=37 velocity=70 time=0
EXTRACT: note_on channel=12 note=30 velocity=95 time=0
EXTRACT: note_off channel=9 note=42 velocity=95 time=0
EXTRACT: note_on channel=9 note=42 velocity=95 time=0
EXTRACT: note_on channel=9 note=36 velocity=95 time=0
EXTRACT: note_on channel=0 note=66 velocity=95 time=0.1666665
EXTRACT: note_on channel=0 note=61 velocity=95 time=0
EXTRACT: note_on channel=0 note=57 velocity=95 time=0
EXTRACT: note_on channel=0 note=54 velocity=95 time=0
EXTRACT: note_off channel=6 note=61 velocity=95 time=0
EXTRACT: note_off channel=6 note=57 velocity=95 time=0
EXTRACT: note_on channel=6 note=61 velocity=95 time=0
EXTRACT: note_on channel=6 note=57 velocity=95 time=0
EXTRACT: note_off channel=9 note=42 velocity=95 time=0
EXTRACT: note_off channel=9 note=36 velocity=95 time=0
EXTRACT: note_off channel=0 note=66 velocity=95 time=0.1666665
EXTRACT: note_off channel=0 note=61 velocity=95 time=0
EXTRACT: note_off channel=0 note=57 velocity=95 time=0
EXTRACT: note_off channel=0 note=54 velocity=95 time=0
EXTRACT: note_on channel=9 note=42 velocity=95 time=0
EXTRACT: note_on channel=9 note=40 velocity=95 time=0
EXTRACT: note_on channel=0 note=66 velocity=95 time=0.1666665
EXTRACT: note_on channel=0 note=61 velocity=95 time=0
EXTRACT: note_on channel=0 note=57 velocity=95 time=0
EXTRACT: note_on channel=0 note=54 velocity=95 time=0
EXTRACT: note_off channel=6 note=61 velocity=95 time=0
EXTRACT: note_off channel=6 note=57 velocity=95 time=0
EXTRACT: note_on channel=6 note=63 velocity=95 time=0
EXTRACT: note_on channel=6 note=59 velocity=95 time=0
EXTRACT: note_off channel=12 note=30 velocity=95 time=0
EXTRACT: note_on channel=12 note=37 velocity=95 time=0
EXTRACT: note_off channel=9 note=42 velocity=95 time=0
EXTRACT: note_off channel=9 note=40 velocity=95 time=0
EXTRACT: note_on channel=9 note=42 velocity=95 time=0
EXTRACT: note_off channel=14 note=78 velocity=95 time=0.08333325
EXTRACT: note_off channel=14 note=66 velocity=95 time=0
EXTRACT: note_off channel=0 note=66 velocity=95 time=0.08333325
EXTRACT: note_off channel=0 note=61 velocity=95 time=0
EXTRACT: note_off channel=0 note=57 velocity=95 time=0
EXTRACT: note_off channel=0 note=54 velocity=95 time=0
EXTRACT: note_on channel=14 note=81 velocity=95 time=0
EXTRACT: note_on channel=14 note=69 velocity=95 time=0
EXTRACT: note_off channel=9 note=42 velocity=95 time=0
EXTRACT: note_on channel=9 note=42 velocity=95 time=0
EXTRACT: note_on channel=0 note=66 velocity=95 time=0.1666665
EXTRACT: note_on channel=0 note=61 velocity=95 time=0
EXTRACT: note_on channel=0 note=57 velocity=95 time=0
EXTRACT: note_on channel=0 note=54 velocity=95 time=0
EXTRACT: note_off channel=6 note=63 velocity=95 time=0
EXTRACT: note_off channel=6 note=59 velocity=95 time=0
EXTRACT: note_on channel=6 note=64 velocity=95 time=0
EXTRACT: note_on channel=6 note=61 velocity=95 time=0
EXTRACT: note_off channel=9 note=42 velocity=95 time=0
EXTRACT: note_on channel=9 note=36 velocity=95 time=0
EXTRACT: note_off channel=0 note=66 velocity=95 time=0.1666665
EXTRACT: note_off channel=0 note=61 velocity=95 time=0
EXTRACT: note_off channel=0 note=57 velocity=95 time=0
EXTRACT: note_off channel=0 note=54 velocity=95 time=0
EXTRACT: note_off channel=12 note=37 velocity=95 time=0
EXTRACT: note_on channel=12 note=35 velocity=95 time=0
EXTRACT: note_off channel=9 note=36 velocity=95 time=0
EXTRACT: note_on channel=9 note=42 velocity=95 time=0
EXTRACT: note_on channel=9 note=40 velocity=95 time=0
EXTRACT: note_on channel=0 note=66 velocity=95 time=0.1666665
EXTRACT: note_on channel=0 note=61 velocity=95 time=0
EXTRACT: note_on channel=0 note=57 velocity=95 time=0
EXTRACT: note_on channel=0 note=54 velocity=95 time=0
EXTRACT: note_off channel=6 note=64 velocity=95 time=0
EXTRACT: note_off channel=6 note=61 velocity=95 time=0
EXTRACT: note_on channel=6 note=64 velocity=95 time=0
EXTRACT: note_on channel=6 note=61 velocity=95 time=0
EXTRACT: note_off channel=12 note=35 velocity=95 time=0
EXTRACT: note_on channel=12 note=37 velocity=70 time=0
EXTRACT: note_off channel=9 note=42 velocity=95 time=0
EXTRACT: note_off channel=9 note=40 velocity=95 time=0
EXTRACT: note_on channel=9 note=42 velocity=95 time=0
EXTRACT: note_off channel=14 note=81 velocity=95 time=0.08333325
EXTRACT: note_off channel=14 note=69 velocity=95 time=0
EXTRACT: note_off channel=0 note=66 velocity=95 time=0.08333325
EXTRACT: note_off channel=0 note=61 velocity=95 time=0
EXTRACT: note_off channel=0 note=57 velocity=95 time=0
EXTRACT: note_off channel=0 note=54 velocity=95 time=0
EXTRACT: note_off channel=12 note=37 velocity=70 time=0
EXTRACT: note_on channel=12 note=32 velocity=95 time=0
EXTRACT: note_on channel=14 note=83 velocity=95 time=0
EXTRACT: note_on channel=14 note=71 velocity=95 time=0
EXTRACT: note_off channel=9 note=42 velocity=95 time=0
EXTRACT: note_on channel=9 note=42 velocity=95 time=0
EXTRACT: note_on channel=9 note=36 velocity=95 time=0
EXTRACT: note_on channel=0 note=68 velocity=95 time=0.1666665
EXTRACT: note_on channel=0 note=63 velocity=95 time=0
EXTRACT: note_on channel=0 note=59 velocity=95 time=0
EXTRACT: note_on channel=0 note=56 velocity=95 time=0
EXTRACT: note_off channel=9 note=42 velocity=95 time=0
EXTRACT: note_off channel=9 note=36 velocity=95 time=0
EXTRACT: note_off channel=6 note=64 velocity=95 time=0.1041665625
EXTRACT: note_off channel=6 note=61 velocity=95 time=0
EXTRACT: note_off channel=0 note=68 velocity=95 time=0.062499937500000005
EXTRACT: note_off channel=0 note=63 velocity=95 time=0
EXTRACT: note_off channel=0 note=59 velocity=95 time=0
EXTRACT: note_off channel=0 note=56 velocity=95 time=0
EXTRACT: note_on channel=6 note=63 velocity=95 time=0
EXTRACT: note_on channel=6 note=59 velocity=95 time=0
EXTRACT: note_on channel=9 note=42 velocity=95 time=0
EXTRACT: note_on channel=9 note=40 velocity=95 time=0
EXTRACT: note_on channel=0 note=68 velocity=95 time=0.1666665
EXTRACT: note_on channel=0 note=63 velocity=95 time=0
EXTRACT: note_on channel=0 note=59 velocity=95 time=0
EXTRACT: note_on channel=0 note=56 velocity=95 time=0
EXTRACT: note_off channel=6 note=63 velocity=95 time=0
EXTRACT: note_off channel=6 note=59 velocity=95 time=0
EXTRACT: note_on channel=6 note=63 velocity=95 time=0
EXTRACT: note_on channel=6 note=59 velocity=95 time=0
EXTRACT: note_off channel=12 note=32 velocity=95 time=0
EXTRACT: note_on channel=12 note=39 velocity=95 time=0
EXTRACT: note_off channel=9 note=42 velocity=95 time=0
EXTRACT: note_off channel=9 note=40 velocity=95 time=0
EXTRACT: note_on channel=9 note=42 velocity=95 time=0
EXTRACT: note_off channel=0 note=68 velocity=95 time=0.1666665
EXTRACT: note_off channel=0 note=63 velocity=95 time=0
EXTRACT: note_off channel=0 note=59 velocity=95 time=0
EXTRACT: note_off channel=0 note=56 velocity=95 time=0
EXTRACT: note_off channel=9 note=42 velocity=95 time=0
EXTRACT: note_on channel=9 note=42 velocity=95 time=0
EXTRACT: note_on channel=9 note=36 velocity=95 time=0
EXTRACT: note_on channel=0 note=68 velocity=95 time=0.1666665
EXTRACT: note_on channel=0 note=63 velocity=95 time=0
EXTRACT: note_on channel=0 note=59 velocity=95 time=0
EXTRACT: note_on channel=0 note=56 velocity=95 time=0
EXTRACT: note_off channel=6 note=63 velocity=95 time=0
EXTRACT: note_off channel=6 note=59 velocity=95 time=0
EXTRACT: note_on channel=6 note=61 velocity=95 time=0
EXTRACT: note_on channel=6 note=56 velocity=95 time=0
EXTRACT: note_off channel=9 note=42 velocity=95 time=0
EXTRACT: note_off channel=9 note=36 velocity=95 time=0
EXTRACT: note_off channel=0 note=68 velocity=95 time=0.1666665
EXTRACT: note_off channel=0 note=63 velocity=95 time=0
EXTRACT: note_off channel=0 note=59 velocity=95 time=0
EXTRACT: note_off channel=0 note=56 velocity=95 time=0
EXTRACT: note_off channel=6 note=61 velocity=95 time=0
EXTRACT: note_off channel=6 note=56 velocity=95 time=0
EXTRACT: note_on channel=6 note=63 velocity=95 time=0
EXTRACT: note_on channel=6 note=59 velocity=95 time=0
EXTRACT: note_off channel=12 note=39 velocity=95 time=0
EXTRACT: note_on channel=12 note=37 velocity=95 time=0
EXTRACT: note_on channel=9 note=42 velocity=95 time=0
EXTRACT: note_on channel=9 note=40 velocity=95 time=0
EXTRACT: note_on channel=0 note=68 velocity=95 time=0.1666665
EXTRACT: note_on channel=0 note=63 velocity=95 time=0
EXTRACT: note_on channel=0 note=59 velocity=95 time=0
EXTRACT: note_on channel=0 note=56 velocity=95 time=0
EXTRACT: note_off channel=12 note=37 velocity=95 time=0
EXTRACT: note_on channel=12 note=39 velocity=70 time=0
EXTRACT: note_off channel=9 note=42 velocity=95 time=0
EXTRACT: note_off channel=9 note=40 velocity=95 time=0
EXTRACT: note_on channel=9 note=42 velocity=95 time=0
EXTRACT: note_off channel=0 note=68 velocity=95 time=0.1666665
EXTRACT: note_off channel=0 note=63 velocity=95 time=0
EXTRACT: note_off channel=0 note=59 velocity=95 time=0
EXTRACT: note_off channel=0 note=56 velocity=95 time=0
EXTRACT: note_off channel=12 note=39 velocity=70 time=0
EXTRACT: note_on channel=12 note=32 velocity=95 time=0
EXTRACT: note_off channel=9 note=42 velocity=95 time=0
EXTRACT: note_on channel=9 note=42 velocity=95 time=0
EXTRACT: note_on channel=9 note=36 velocity=95 time=0
EXTRACT: note_on channel=0 note=68 velocity=95 time=0.1666665
EXTRACT: note_on channel=0 note=63 velocity=95 time=0
EXTRACT: note_on channel=0 note=59 velocity=95 time=0
EXTRACT: note_on channel=0 note=56 velocity=95 time=0
EXTRACT: note_off channel=9 note=42 velocity=95 time=0
EXTRACT: note_off channel=9 note=36 velocity=95 time=0
EXTRACT: note_off channel=0 note=68 velocity=95 time=0.1666665
EXTRACT: note_off channel=0 note=63 velocity=95 time=0
EXTRACT: note_off channel=0 note=59 velocity=95 time=0
EXTRACT: note_off channel=0 note=56 velocity=95 time=0
EXTRACT: note_on channel=9 note=42 velocity=95 time=0
EXTRACT: note_on channel=9 note=40 velocity=95 time=0
EXTRACT: note_on channel=0 note=68 velocity=95 time=0.1666665
EXTRACT: note_on channel=0 note=63 velocity=95 time=0
EXTRACT: note_on channel=0 note=59 velocity=95 time=0
EXTRACT: note_on channel=0 note=56 velocity=95 time=0
EXTRACT: note_on channel=2 note=61 velocity=95 time=0
EXTRACT: note_on channel=3 note=59 velocity=95 time=0
EXTRACT: note_off channel=12 note=32 velocity=95 time=0
EXTRACT: note_on channel=12 note=39 velocity=95 time=0
EXTRACT: note_off channel=9 note=42 velocity=95 time=0
EXTRACT: note_off channel=9 note=40 velocity=95 time=0
EXTRACT: note_on channel=9 note=42 velocity=95 time=0
EXTRACT: pitchwheel channel=3 pitch=256 time=0.041666625
EXTRACT: pitchwheel channel=3 pitch=640 time=0.041666625
EXTRACT: note_off channel=6 note=63 velocity=95 time=0
EXTRACT: note_off channel=6 note=59 velocity=95 time=0
EXTRACT: pitchwheel channel=3 pitch=1024 time=0.041666625
EXTRACT: note_off channel=0 note=68 velocity=95 time=0.041666625
EXTRACT: note_off channel=0 note=63 velocity=95 time=0
EXTRACT: note_off channel=0 note=59 velocity=95 time=0
EXTRACT: note_off channel=0 note=56 velocity=95 time=0
EXTRACT: note_off channel=2 note=61 velocity=95 time=0
EXTRACT: pitchwheel channel=3 pitch=1408 time=0
EXTRACT: pitchwheel channel=3 pitch=0 time=0
EXTRACT: note_off channel=3 note=59 velocity=95 time=0
EXTRACT: note_on channel=2 note=61 velocity=95 time=0
EXTRACT: note_on channel=2 note=61 velocity=95 time=0
EXTRACT: note_off channel=9 note=42 velocity=95 time=0
EXTRACT: note_on channel=9 note=42 velocity=95 time=0
EXTRACT: note_on channel=0 note=68 velocity=95 time=0.1666665
EXTRACT: note_on channel=0 note=63 velocity=95 time=0
EXTRACT: note_on channel=0 note=59 velocity=95 time=0
EXTRACT: note_on channel=0 note=56 velocity=95 time=0
EXTRACT: note_off channel=2 note=61 velocity=95 time=0
EXTRACT: note_off channel=2 note=61 velocity=95 time=0
EXTRACT: note_on channel=2 note=56 velocity=70 time=0
EXTRACT: note_off channel=9 note=42 velocity=95 time=0
EXTRACT: note_on channel=9 note=36 velocity=95 time=0
EXTRACT: note_off channel=14 note=83 velocity=95 time=0.08333325
EXTRACT: note_off channel=14 note=71 velocity=95 time=0
EXTRACT: note_off channel=0 note=68 velocity=95 time=0.08333325
EXTRACT: note_off channel=0 note=63 velocity=95 time=0
EXTRACT: note_off channel=0 note=59 velocity=95 time=0
EXTRACT: note_off channel=0 note=56 velocity=95 time=0
EXTRACT: note_off channel=2 note=56 velocity=70 time=0
EXTRACT: note_on channel=2 note=56 velocity=95 time=0
EXTRACT: note_off channel=12 note=39 velocity=95 time=0
EXTRACT: note_on channel=12 note=37 velocity=95 time=0
EXTRACT: note_on channel=14 note=80 velocity=95 time=0
EXTRACT: note_on channel=14 note=68 velocity=95 time=0
EXTRACT: note_off channel=9 note=36 velocity=95 time=0
EXTRACT: note_on channel=9 note=42 velocity=95 time=0
EXTRACT: note_on channel=9 note=40 velocity=95 time=0
EXTRACT: note_off channel=2 note=56 velocity=95 time=0.08333325
EXTRACT: note_on channel=2 note=54 velocity=70 time=0
EXTRACT: note_on channel=0 note=68 velocity=95 time=0.08333325
EXTRACT: note_on channel=0 note=63 velocity=95 time=0
EXTRACT: note_on channel=0 note=59 velocity=95 time=0
EXTRACT: note_on channel=0 note=56 velocity=95 time=0
EXTRACT: note_off channel=2 note=54 velocity=70 time=0
EXTRACT: note_on channel=2 note=52 velocity=70 time=0
EXTRACT: note_on channel=6 note=56 velocity=95 time=0
EXTRACT: note_off channel=12 note=37 velocity=95 time=0
EXTRACT: note_on channel=12 note=39 velocity=70 time=0
EXTRACT: note_off channel=9 note=42 velocity=95 time=0
EXTRACT: note_off channel=9 note=40 velocity=95 time=0
EXTRACT: note_on channel=9 note=42 velocity=95 time=0
EXTRACT: note_off channel=14 note=80 velocity=95 time=0.1041665625
EXTRACT: note_off channel=14 note=68 velocity=95 time=0
EXTRACT: note_off channel=0 note=68 velocity=95 time=0.062499937500000005
EXTRACT: note_off channel=0 note=63 velocity=95 time=0
EXTRACT: note_off channel=0 note=59 velocity=95 time=0
EXTRACT: note_off channel=0 note=56 velocity=95 time=0
EXTRACT: note_off channel=2 note=52 velocity=70 time=0
EXTRACT: note_on channel=3 note=59 velocity=95 time=0
EXTRACT: note_off channel=6 note=56 velocity=95 time=0
EXTRACT: note_on channel=6 note=61 velocity=95 time=0
EXTRACT: note_off channel=12 note=39 velocity=70 time=0
EXTRACT: note_on channel=12 note=33 velocity=95 time=0
EXTRACT: note_on channel=14 note=85 velocity=95 time=0
EXTRACT: note_on channel=14 note=73 velocity=95 time=0
EXTRACT: note_off channel=9 note=42 velocity=95 time=0
EXTRACT: note_on channel=9 note=42 velocity=95 time=0
EXTRACT: note_on channel=9 note=36 velocity=95 time=0
EXTRACT: pitchwheel channel=3 pitch=1408 time=0.041666625
EXTRACT: pitchwheel channel=3 pitch=0 time=0
EXTRACT: note_off channel=3 note=59 velocity=95 time=0
EXTRACT: note_on channel=2 note=61 velocity=95 time=0
EXTRACT: note_on channel=0 note=69 velocity=95 time=0.12499987500000001
EXTRACT: note_on channel=0 note=64 velocity=95 time=0
EXTRACT: note_on channel=0 note=61 velocity=95 time=0
EXTRACT: note_on channel=0 note=57 velocity=95 time=0
EXTRACT: note_off channel=9 note=42 velocity=95 time=0
EXTRACT: note_off channel=9 note=36 velocity=95 time=0
EXTRACT: note_off channel=6 note=61 velocity=95 time=0.1041665625
EXTRACT: note_off channel=0 note=69 velocity=95 time=0.062499937500000005
EXTRACT: note_off channel=0 note=64 velocity=95 time=0
EXTRACT: note_off channel=0 note=61 velocity=95 time=0
EXTRACT: note_off channel=0 note=57 velocity=95 time=0
EXTRACT: note_on channel=6 note=61 velocity=95 time=0
EXTRACT: note_on channel=9 note=42 velocity=95 time=0
EXTRACT: note_on channel=9 note=40 velocity=95 time=0
EXTRACT: note_on channel=0 note=69 velocity=95 time=0.1666665
EXTRACT: note_on channel=0 note=64 velocity=95 time=0
EXTRACT: note_on channel=0 note=61 velocity=95 time=0
EXTRACT: note_on channel=0 note=57 velocity=95 time=0
EXTRACT: note_off channel=6 note=61 velocity=95 time=0
EXTRACT: note_on channel=6 note=61 velocity=95 time=0
EXTRACT: note_off channel=12 note=33 velocity=95 time=0
EXTRACT: note_on channel=12 note=40 velocity=95 time=0
EXTRACT: note_off channel=9 note=42 velocity=95 time=0
EXTRACT: note_off channel=9 note=40 velocity=95 time=0
EXTRACT: note_on channel=9 note=42 velocity=95 time=0
EXTRACT: note_off channel=0 note=69 velocity=95 time=0.1666665
EXTRACT: note_off channel=0 note=64 velocity=95 time=0
EXTRACT: note_off channel=0 note=61 velocity=95 time=0
EXTRACT: note_off channel=0 note=57 velocity=95 time=0
EXTRACT: note_off channel=9 note=42 velocity=95 time=0
EXTRACT: note_on channel=9 note=42 velocity=95 time=0
EXTRACT: note_on channel=9 note=36 velocity=95 time=0
EXTRACT: note_on channel=0 note=69 velocity=95 time=0.1666665
EXTRACT: note_on channel=0 note=64 velocity=95 time=0
EXTRACT: note_on channel=0 note=61 velocity=95 time=0
EXTRACT: note_on channel=0 note=57 velocity=95 time=0
EXTRACT: note_off channel=6 note=61 velocity=95 time=0
EXTRACT: note_on channel=6 note=61 velocity=95 time=0
EXTRACT: note_off channel=9 note=42 velocity=95 time=0
EXTRACT: note_off channel=9 note=36 velocity=95 time=0
EXTRACT: note_off channel=0 note=69 velocity=95 time=0.1666665
EXTRACT: note_off channel=0 note=64 velocity=95 time=0
EXTRACT: note_off channel=0 note=61 velocity=95 time=0
EXTRACT: note_off channel=0 note=57 velocity=95 time=0
EXTRACT: note_off channel=12 note=40 velocity=95 time=0
EXTRACT: note_on channel=12 note=37 velocity=95 time=0
EXTRACT: note_on channel=9 note=42 velocity=95 time=0
EXTRACT: note_on channel=9 note=40 velocity=95 time=0
EXTRACT: note_on channel=0 note=69 velocity=95 time=0.1666665
EXTRACT: note_on channel=0 note=64 velocity=95 time=0
EXTRACT: note_on channel=0 note=61 velocity=95 time=0
EXTRACT: note_on channel=0 note=57 velocity=95 time=0
EXTRACT: note_off channel=6 note=61 velocity=95 time=0
EXTRACT: note_on channel=6 note=61 velocity=95 time=0
EXTRACT: note_off channel=12 note=37 velocity=95 time=0
EXTRACT: note_on channel=12 note=40 velocity=70 time=0
EXTRACT: note_off channel=9 note=42 velocity=95 time=0
EXTRACT: note_off channel=9 note=40 velocity=95 time=0
EXTRACT: note_on channel=9 note=42 velocity=95 time=0
EXTRACT: note_off channel=0 note=69 velocity=95 time=0.1666665
EXTRACT: note_off channel=0 note=64 velocity=95 time=0
EXTRACT: note_off channel=0 note=61 velocity=95 time=0
EXTRACT: note_off channel=0 note=57 velocity=95 time=0
EXTRACT: note_off channel=2 note=61 velocity=95 time=0
EXTRACT: note_off channel=12 note=40 velocity=70 time=0
EXTRACT: note_on channel=12 note=33 velocity=95 time=0
EXTRACT: note_off channel=9 note=42 velocity=95 time=0
EXTRACT: note_on channel=9 note=42 velocity=95 time=0
EXTRACT: note_on channel=9 note=36 velocity=95 time=0
EXTRACT: note_on channel=0 note=69 velocity=95 time=0.1666665
EXTRACT: note_on channel=0 note=64 velocity=95 time=0
EXTRACT: note_on channel=0 note=61 velocity=95 time=0
EXTRACT: note_on channel=0 note=57 velocity=95 time=0
EXTRACT: note_off channel=6 note=61 velocity=95 time=0
EXTRACT: note_on channel=6 note=61 velocity=95 time=0
EXTRACT: note_off channel=9 note=42 velocity=95 time=0
EXTRACT: note_off channel=9 note=36 velocity=95 time=0
EXTRACT: note_off channel=0 note=69 velocity=95 time=0.1666665
EXTRACT: note_off channel=0 note=64 velocity=95 time=0
EXTRACT: note_off channel=0 note=61 velocity=95 time=0
EXTRACT: note_off channel=0 note=57 velocity=95 time=0
EXTRACT: note_on channel=9 note=42 velocity=95 time=0
EXTRACT: note_on channel=9 note=40 velocity=95 time=0
EXTRACT: note_on channel=0 note=69 velocity=95 time=0.1666665
EXTRACT: note_on channel=0 note=64 velocity=95 time=0
EXTRACT: note_on channel=0 note=61 velocity=95 time=0
EXTRACT: note_on channel=0 note=57 velocity=95 time=0
EXTRACT: note_off channel=6 note=61 velocity=95 time=0
EXTRACT: note_on channel=6 note=63 velocity=95 time=0
EXTRACT: note_off channel=12 note=33 velocity=95 time=0
EXTRACT: note_on channel=12 note=40 velocity=95 time=0
EXTRACT: note_off channel=9 note=42 velocity=95 time=0
EXTRACT: note_off channel=9 note=40 velocity=95 time=0
EXTRACT: note_on channel=9 note=42 velocity=95 time=0
EXTRACT: note_off channel=0 note=69 velocity=95 time=0.1666665
EXTRACT: note_off channel=0 note=64 velocity=95 time=0
EXTRACT: note_off channel=0 note=61 velocity=95 time=0
EXTRACT: note_off channel=0 note=57 velocity=95 time=0
EXTRACT: note_off channel=9 note=42 velocity=95 time=0
EXTRACT: note_on channel=9 note=42 velocity=95 time=0
EXTRACT: note_on channel=0 note=69 velocity=95 time=0.1666665
EXTRACT: note_on channel=0 note=64 velocity=95 time=0
EXTRACT: note_on channel=0 note=61 velocity=95 time=0
EXTRACT: note_on channel=0 note=57 velocity=95 time=0
EXTRACT: note_off channel=6 note=63 velocity=95 time=0
EXTRACT: note_on channel=6 note=64 velocity=95 time=0
EXTRACT: note_off channel=9 note=42 velocity=95 time=0
EXTRACT: note_on channel=9 note=36 velocity=95 time=0
EXTRACT: note_off channel=0 note=69 velocity=95 time=0.1666665
EXTRACT: note_off channel=0 note=64 velocity=95 time=0
EXTRACT: note_off channel=0 note=61 velocity=95 time=0
EXTRACT: note_off channel=0 note=57 velocity=95 time=0
EXTRACT: note_off channel=12 note=40 velocity=95 time=0
EXTRACT: note_on channel=12 note=37 velocity=95 time=0
EXTRACT: note_off channel=9 note=36 velocity=95 time=0
EXTRACT: note_on channel=9 note=42 velocity=95 time=0
EXTRACT: note_on channel=9 note=40 velocity=95 time=0
EXTRACT: note_on channel=0 note=69 velocity=95 time=0.1666665
EXTRACT: note_on channel=0 note=64 velocity=95 time=0
EXTRACT: note_on channel=0 note=61 velocity=95 time=0
EXTRACT: note_on channel=0 note=57 velocity=95 time=0
EXTRACT: note_off channel=6 note=64 velocity=95 time=0
EXTRACT: note_on channel=6 note=68 velocity=95 time=0
EXTRACT: note_off channel=12 note=37 velocity=95 time=0
EXTRACT: note_on channel=12 note=40 velocity=70 time=0
EXTRACT: note_off channel=9 note=42 velocity=95 time=0
EXTRACT: note_off channel=9 note=40 velocity=95 time=0
EXTRACT: note_on channel=9 note=42 velocity=95 time=0
EXTRACT: note_off channel=14 note=85 velocity=95 time=0.08333325
EXTRACT: note_off channel=14 note=73 velocity=95 time=0
EXTRACT: note_off channel=0 note=69 velocity=95 time=0.08333325
EXTRACT: note_off channel=0 note=64 velocity=95 time=0
EXTRACT: note_off channel=0 note=61 velocity=95 time=0
EXTRACT: note_off channel=0 note=57 velocity=95 time=0
EXTRACT: note_off channel=12 note=40 velocity=70 time=0
EXTRACT: note_on channel=14 note=87 velocity=95 time=0
EXTRACT: note_on channel=14 note=75 velocity=95 time=0
EXTRACT: note_off channel=9 note=42 velocity=95 time=0
EXTRACT: note_on channel=9 note=42 velocity=95 time=0
EXTRACT: note_on channel=9 note=36 velocity=95 time=0
EXTRACT: note_on channel=0 note=71 velocity=95 time=0.1666665
EXTRACT: note_on channel=0 note=66 velocity=95 time=0
EXTRACT: note_on channel=0 note=63 velocity=95 time=0
EXTRACT: note_on channel=0 note=59 velocity=95 time=0
EXTRACT: note_on channel=12 note=35 velocity=95 time=0
EXTRACT: note_off channel=9 note=42 velocity=95 time=0
EXTRACT: note_off channel=9 note=36 velocity=95 time=0
EXTRACT: note_off channel=12 note=35 velocity=95 time=0.08333325
EXTRACT: note_off channel=6 note=68 velocity=95 time=0.0208333125
EXTRACT: note_off channel=0 note=71 velocity=95 time=0.062499937500000005
EXTRACT: note_off channel=0 note=66 velocity=95 time=0
EXTRACT: note_off channel=0 note=63 velocity=95 time=0
EXTRACT: note_off channel=0 note=59 velocity=95 time=0
EXTRACT: note_on channel=6 note=66 velocity=95 time=0
EXTRACT: note_on channel=12 note=35 velocity=95 time=0
EXTRACT: note_on channel=9 note=42 velocity=95 time=0
EXTRACT: note_on channel=9 note=40 velocity=95 time=0
EXTRACT: note_off channel=12 note=35 velocity=95 time=0.08333325
EXTRACT: note_on channel=0 note=71 velocity=95 time=0.08333325
EXTRACT: note_on channel=0 note=66 velocity=95 time=0
EXTRACT: note_on channel=0 note=63 velocity=95 time=0
EXTRACT: note_on channel=0 note=59 velocity=95 time=0
EXTRACT: note_off channel=6 note=66 velocity=95 time=0
EXTRACT: note_on channel=6 note=66 velocity=95 time=0
EXTRACT: note_on channel=12 note=35 velocity=95 time=0
EXTRACT: note_off channel=9 note=42 velocity=95 time=0
EXTRACT: note_off channel=9 note=40 velocity=95 time=0
EXTRACT: note_on channel=9 note=42 velocity=95 time=0
EXTRACT: note_off channel=12 note=35 velocity=95 time=0.08333325
EXTRACT: note_off channel=0 note=71 velocity=95 time=0.08333325
EXTRACT: note_off channel=0 note=66 velocity=95 time=0
EXTRACT: note_off channel=0 note=63 velocity=95 time=0
EXTRACT: note_off channel=0 note=59 velocity=95 time=0
EXTRACT: note_on channel=12 note=35 velocity=95 time=0
EXTRACT: note_off channel=9 note=42 velocity=95 time=0
EXTRACT: note_on channel=9 note=42 velocity=95 time=0
EXTRACT: note_on channel=9 note=36 velocity=95 time=0
EXTRACT: note_off channel=12 note=35 velocity=95 time=0.08333325
EXTRACT: note_on channel=0 note=71 velocity=95 time=0.08333325
EXTRACT: note_on channel=0 note=66 velocity=95 time=0
EXTRACT: note_on channel=0 note=63 velocity=95 time=0
EXTRACT: note_on channel=0 note=59 velocity=95 time=0
EXTRACT: note_off channel=6 note=66 velocity=95 time=0
EXTRACT: note_on channel=6 note=64 velocity=95 time=0
EXTRACT: note_on channel=12 note=35 velocity=95 time=0
EXTRACT: note_off channel=9 note=42 velocity=95 time=0
EXTRACT: note_off channel=9 note=36 velocity=95 time=0
EXTRACT: note_off channel=12 note=35 velocity=95 time=0.08333325
EXTRACT: note_off channel=0 note=71 velocity=95 time=0.08333325
EXTRACT: note_off channel=0 note=66 velocity=95 time=0
EXTRACT: note_off channel=0 note=63 velocity=95 time=0
EXTRACT: note_off channel=0 note=59 velocity=95 time=0
EXTRACT: note_on channel=12 note=35 velocity=95 time=0
EXTRACT: note_on channel=9 note=42 velocity=95 time=0
EXTRACT: note_on channel=9 note=40 velocity=95 time=0
EXTRACT: note_off channel=12 note=35 velocity=95 time=0.08333325
EXTRACT: note_on channel=0 note=71 velocity=95 time=0.08333325
EXTRACT: note_on channel=0 note=66 velocity=95 time=0
EXTRACT: note_on channel=0 note=63 velocity=95 time=0
EXTRACT: note_on channel=0 note=59 velocity=95 time=0
EXTRACT: note_off channel=6 note=64 velocity=95 time=0
EXTRACT: note_on channel=6 note=66 velocity=95 time=0
EXTRACT: note_on channel=12 note=35 velocity=95 time=0
EXTRACT: note_off channel=9 note=42 velocity=95 time=0
EXTRACT: note_off channel=9 note=40 velocity=95 time=0
EXTRACT: note_on channel=9 note=42 velocity=95 time=0
EXTRACT: note_off channel=12 note=35 velocity=95 time=0.08333325
EXTRACT: note_off channel=0 note=71 velocity=95 time=0.08333325
EXTRACT: note_off channel=0 note=66 velocity=95 time=0
EXTRACT: note_off channel=0 note=63 velocity=95 time=0
EXTRACT: note_off channel=0 note=59 velocity=95 time=0
EXTRACT: note_off channel=9 note=42 velocity=95 time=0
EXTRACT: note_on channel=9 note=42 velocity=95 time=0
EXTRACT: note_on channel=9 note=36 velocity=95 time=0
EXTRACT: note_on channel=0 note=71 velocity=95 time=0.1666665
EXTRACT: note_on channel=0 note=66 velocity=95 time=0
EXTRACT: note_on channel=0 note=63 velocity=95 time=0
EXTRACT: note_on channel=0 note=59 velocity=95 time=0
EXTRACT: note_on channel=12 note=35 velocity=95 time=0
EXTRACT: note_off channel=9 note=42 velocity=95 time=0
EXTRACT: note_off channel=9 note=36 velocity=95 time=0
EXTRACT: note_off channel=12 note=35 velocity=95 time=0.08333325
EXTRACT: note_off channel=0 note=71 velocity=95 time=0.08333325
EXTRACT: note_off channel=0 note=66 velocity=95 time=0
EXTRACT: note_off channel=0 note=63 velocity=95 time=0
EXTRACT: note_off channel=0 note=59 velocity=95 time=0
EXTRACT: note_on channel=12 note=35 velocity=95 time=0
EXTRACT: note_on channel=9 note=42 velocity=95 time=0
EXTRACT: note_on channel=9 note=40 velocity=95 time=0
EXTRACT: note_off channel=12 note=35 velocity=95 time=0.08333325
EXTRACT: note_on channel=0 note=71 velocity=95 time=0.08333325
EXTRACT: note_on channel=0 note=66 velocity=95 time=0
EXTRACT: note_on channel=0 note=63 velocity=95 time=0
EXTRACT: note_on channel=0 note=59 velocity=95 time=0
EXTRACT: note_on channel=12 note=35 velocity=95 time=0
EXTRACT: note_off channel=9 note=42 velocity=95 time=0
EXTRACT: note_off channel=9 note=40 velocity=95 time=0
EXTRACT: note_on channel=9 note=42 velocity=95 time=0
EXTRACT: note_off channel=12 note=35 velocity=95 time=0.08333325
EXTRACT: note_off channel=0 note=71 velocity=95 time=0.08333325
EXTRACT: note_off channel=0 note=66 velocity=95 time=0
EXTRACT: note_off channel=0 note=63 velocity=95 time=0
EXTRACT: note_off channel=0 note=59 velocity=95 time=0
EXTRACT: note_on channel=12 note=35 velocity=95 time=0
EXTRACT: note_off channel=9 note=42 velocity=95 time=0
EXTRACT: note_on channel=9 note=42 velocity=95 time=0
EXTRACT: note_off channel=6 note=66 velocity=95 time=0.08333325
EXTRACT: note_off channel=12 note=35 velocity=95 time=0
EXTRACT: note_on channel=0 note=71 velocity=95 time=0.08333325
EXTRACT: note_on channel=0 note=66 velocity=95 time=0
EXTRACT: note_on channel=0 note=63 velocity=95 time=0
EXTRACT: note_on channel=0 note=59 velocity=95 time=0
EXTRACT: note_on channel=6 note=64 velocity=95 time=0
EXTRACT: note_on channel=12 note=35 velocity=95 time=0
EXTRACT: note_off channel=9 note=42 velocity=95 time=0
EXTRACT: note_on channel=9 note=36 velocity=95 time=0
EXTRACT: note_off channel=12 note=35 velocity=95 time=0.08333325
EXTRACT: note_off channel=0 note=71 velocity=95 time=0.08333325
EXTRACT: note_off channel=0 note=66 velocity=95 time=0
EXTRACT: note_off channel=0 note=63 velocity=95 time=0
EXTRACT: note_off channel=0 note=59 velocity=95 time=0
EXTRACT: note_off channel=6 note=64 velocity=95 time=0
EXTRACT: note_on channel=6 note=66 velocity=95 time=0
EXTRACT: note_on channel=12 note=35 velocity=95 time=0
EXTRACT: note_off channel=9 note=36 velocity=95 time=0
EXTRACT: note_on channel=9 note=42 velocity=95 time=0
EXTRACT: note_on channel=9 note=40 velocity=95 time=0
EXTRACT: note_off channel=12 note=35 velocity=95 time=0.08333325
EXTRACT: note_on channel=0 note=71 velocity=95 time=0.08333325
EXTRACT: note_on channel=0 note=66 velocity=95 time=0
EXTRACT: note_on channel=0 note=63 velocity=95 time=0
EXTRACT: note_on channel=0 note=59 velocity=95 time=0
EXTRACT: note_off channel=6 note=66 velocity=95 time=0
EXTRACT: note_on channel=6 note=68 velocity=95 time=0
EXTRACT: note_on channel=12 note=35 velocity=95 time=0
EXTRACT: note_off channel=9 note=42 velocity=95 time=0
EXTRACT: note_off channel=9 note=40 velocity=95 time=0
EXTRACT: note_on channel=9 note=42 velocity=95 time=0
EXTRACT: note_off channel=12 note=35 velocity=95 time=0.08333325
EXTRACT: note_off channel=14 note=87 velocity=95 time=0
EXTRACT: note_off channel=14 note=75 velocity=95 time=0
EXTRACT: note_off channel=0 note=71 velocity=95 time=0.08333325
EXTRACT: note_off channel=0 note=66 velocity=95 time=0
EXTRACT: note_off channel=0 note=63 velocity=95 time=0
EXTRACT: note_off channel=0 note=59 velocity=95 time=0
EXTRACT: note_off channel=9 note=42 velocity=95 time=0
EXTRACT: note_on channel=9 note=42 velocity=95 time=0
EXTRACT: note_on channel=9 note=36 velocity=95 time=0
EXTRACT: note_on channel=0 note=68 velocity=95 time=0.1666665
EXTRACT: note_on channel=0 note=63 velocity=95 time=0
EXTRACT: note_on channel=0 note=61 velocity=95 time=0
EXTRACT: note_on channel=0 note=56 velocity=95 time=0
EXTRACT: note_off channel=6 note=68 velocity=95 time=0
EXTRACT: note_on channel=6 note=66 velocity=95 time=0
EXTRACT: note_on channel=12 note=32 velocity=95 time=0
EXTRACT: note_on channel=14 note=80 velocity=95 time=0
EXTRACT: note_off channel=9 note=42 velocity=95 time=0
EXTRACT: note_off channel=9 note=36 velocity=95 time=0
EXTRACT: note_off channel=12 note=32 velocity=95 time=0.08333325
EXTRACT: note_off channel=0 note=68 velocity=95 time=0.08333325
EXTRACT: note_off channel=0 note=63 velocity=95 time=0
EXTRACT: note_off channel=0 note=61 velocity=95 time=0
EXTRACT: note_off channel=0 note=56 velocity=95 time=0
EXTRACT: note_on channel=0 note=68 velocity=95 time=0
EXTRACT: note_on channel=0 note=63 velocity=95 time=0
EXTRACT: note_on channel=0 note=61 velocity=95 time=0
EXTRACT: note_on channel=0 note=56 velocity=95 time=0
EXTRACT: note_on channel=12 note=32 velocity=95 time=0
EXTRACT: note_off channel=14 note=80 velocity=95 time=0
EXTRACT: note_on channel=14 note=80 velocity=95 time=0
EXTRACT: note_on channel=9 note=42 velocity=95 time=0
EXTRACT: note_on channel=9 note=40 velocity=95 time=0
EXTRACT: note_off channel=12 note=32 velocity=95 time=0.08333325
EXTRACT: note_off channel=0 note=68 velocity=95 time=0.08333325
EXTRACT: note_off channel=0 note=63 velocity=95 time=0
EXTRACT: note_off channel=0 note=61 velocity=95 time=0
EXTRACT: note_off channel=0 note=56 velocity=95 time=0
EXTRACT: note_off channel=6 note=66 velocity=95 time=0
EXTRACT: note_on channel=6 note=66 velocity=95 time=0
EXTRACT: note_on channel=12 note=32 velocity=95 time=0
EXTRACT: note_off channel=14 note=80 velocity=95 time=0
EXTRACT: note_off channel=9 note=42 velocity=95 time=0
EXTRACT: note_off channel=9 note=40 velocity=95 time=0
EXTRACT: note_on channel=9 note=42 velocity=95 time=0
EXTRACT: note_off channel=12 note=32 velocity=95 time=0.08333325
EXTRACT: note_on channel=0 note=68 velocity=95 time=0.08333325
EXTRACT: note_on channel=0 note=63 velocity=95 time=0
EXTRACT: note_on channel=0 note=61 velocity=95 time=0
EXTRACT: note_on channel=0 note=56 velocity=95 time=0
EXTRACT: note_on channel=12 note=32 velocity=95 time=0
EXTRACT: note_on channel=14 note=80 velocity=95 time=0
EXTRACT: note_off channel=9 note=42 velocity=95 time=0
EXTRACT: note_on channel=9 note=42 velocity=95 time=0
EXTRACT: note_on channel=9 note=36 velocity=95 time=0
EXTRACT: note_off channel=12 note=32 velocity=95 time=0.08333325
EXTRACT: note_off channel=0 note=68 velocity=95 time=0.08333325
EXTRACT: note_off channel=0 note=63 velocity=95 time=0
EXTRACT: note_off channel=0 note=61 velocity=95 time=0
EXTRACT: note_off channel=0 note=56 velocity=95 time=0
EXTRACT: note_off channel=6 note=66 velocity=95 time=0
EXTRACT: note_on channel=6 note=64 velocity=95 time=0
EXTRACT: note_on channel=12 note=32 velocity=95 time=0
EXTRACT: note_off channel=14 note=80 velocity=95 time=0
EXTRACT: note_off channel=9 note=42 velocity=95 time=0
EXTRACT: note_off channel=9 note=36 velocity=95 time=0
EXTRACT: note_off channel=12 note=32 velocity=95 time=0.08333325
EXTRACT: note_on channel=12 note=32 velocity=95 time=0.08333325
EXTRACT: note_on channel=9 note=42 velocity=95 time=0
EXTRACT: note_on channel=9 note=40 velocity=95 time=0
EXTRACT: note_off channel=12 note=32 velocity=95 time=0.08333325
EXTRACT: note_on channel=0 note=68 velocity=95 time=0.08333325
EXTRACT: note_on channel=0 note=63 velocity=95 time=0
EXTRACT: note_on channel=0 note=61 velocity=95 time=0
EXTRACT: note_on channel=0 note=56 velocity=95 time=0
EXTRACT: note_off channel=6 note=64 velocity=95 time=0
EXTRACT: note_on channel=6 note=68 velocity=95 time=0
EXTRACT: note_on channel=12 note=32 velocity=95 time=0
EXTRACT: note_on channel=14 note=80 velocity=95 time=0
EXTRACT: note_off channel=9 note=42 velocity=95 time=0
EXTRACT: note_off channel=9 note=40 velocity=95 time=0
EXTRACT: note_on channel=9 note=42 velocity=95 time=0
EXTRACT: note_off channel=12 note=32 velocity=95 time=0.08333325
EXTRACT: note_off channel=0 note=68 velocity=95 time=0.08333325
EXTRACT: note_off channel=0 note=63 velocity=95 time=0
EXTRACT: note_off channel=0 note=61 velocity=95 time=0
EXTRACT: note_off channel=0 note=56 velocity=95 time=0
EXTRACT: note_on channel=12 note=32 velocity=95 time=0
EXTRACT: note_off channel=14 note=80 velocity=95 time=0
EXTRACT: note_off channel=9 note=42 velocity=95 time=0
EXTRACT: note_on channel=9 note=42 velocity=95 time=0
EXTRACT: note_on channel=9 note=36 velocity=95 time=0
EXTRACT: note_off channel=6 note=68 velocity=95 time=0.1041665625
EXTRACT: note_on channel=2 note=56 velocity=95 time=0.062499937500000005
EXTRACT: note_on channel=3 note=54 velocity=95 time=0
EXTRACT: note_on channel=14 note=80 velocity=95 time=0
EXTRACT: note_off channel=9 note=42 velocity=95 time=0
EXTRACT: note_off channel=9 note=36 velocity=95 time=0
EXTRACT: note_off channel=2 note=56 velocity=95 time=0.041666625
EXTRACT: pitchwheel channel=3 pitch=1408 time=0
EXTRACT: pitchwheel channel=3 pitch=0 time=0
EXTRACT: note_off channel=3 note=54 velocity=95 time=0
EXTRACT: note_on channel=2 note=56 velocity=95 time=0
EXTRACT: note_on channel=2 note=56 velocity=95 time=0
EXTRACT: note_on channel=0 note=68 velocity=95 time=0.12499987500000001
EXTRACT: note_on channel=0 note=63 velocity=95 time=0
EXTRACT: note_on channel=0 note=61 velocity=95 time=0
EXTRACT: note_on channel=0 note=56 velocity=95 time=0
EXTRACT: note_on channel=6 note=68 velocity=95 time=0
EXTRACT: note_off channel=14 note=80 velocity=95 time=0
EXTRACT: note_on channel=9 note=42 velocity=95 time=0
EXTRACT: note_on channel=9 note=40 velocity=95 time=0
EXTRACT: note_off channel=0 note=68 velocity=95 time=0.1666665
EXTRACT: note_off channel=0 note=63 velocity=95 time=0
EXTRACT: note_off channel=0 note=61 velocity=95 time=0
EXTRACT: note_off channel=0 note=56 velocity=95 time=0
EXTRACT: note_off channel=6 note=68 velocity=95 time=0
EXTRACT: note_on channel=6 note=68 velocity=95 time=0
EXTRACT: note_off channel=12 note=32 velocity=95 time=0
EXTRACT: note_off channel=9 note=42 velocity=95 time=0
EXTRACT: note_off channel=9 note=40 velocity=95 time=0
EXTRACT: note_on channel=9 note=42 velocity=95 time=0
EXTRACT: note_off channel=2 note=56 velocity=95 time=0.1666665
EXTRACT: note_off channel=2 note=56 velocity=95 time=0
EXTRACT: note_on channel=2 note=61 velocity=95 time=0
EXTRACT: note_on channel=14 note=80 velocity=95 time=0
EXTRACT: note_off channel=9 note=42 velocity=95 time=0
EXTRACT: note_on channel=9 note=42 velocity=95 time=0
EXTRACT: note_off channel=14 note=80 velocity=95 time=0.1666665
EXTRACT: note_off channel=9 note=42 velocity=95 time=0
EXTRACT: note_on channel=9 note=36 velocity=95 time=0
EXTRACT: note_off channel=6 note=68 velocity=95 time=0.1041665625
EXTRACT: note_on channel=14 note=80 velocity=95 time=0.062499937500000005
EXTRACT: note_off channel=9 note=36 velocity=95 time=0
EXTRACT: note_on channel=9 note=42 velocity=95 time=0
EXTRACT: note_on channel=9 note=40 velocity=95 time=0
EXTRACT: note_off channel=14 note=80 velocity=95 time=0.1666665
EXTRACT: note_off channel=9 note=42 velocity=95 time=0
EXTRACT: note_off channel=9 note=40 velocity=95 time=0
EXTRACT: note_on channel=9 note=42 velocity=95 time=0
EXTRACT: note_on channel=4 note=64 velocity=95 time=0.1666665
EXTRACT: note_on channel=4 note=61 velocity=95 time=0
EXTRACT: note_on channel=4 note=56 velocity=95 time=0
EXTRACT: note_on channel=4 note=49 velocity=95 time=0
EXTRACT: note_on channel=6 note=68 velocity=95 time=0
EXTRACT: note_on channel=6 note=64 velocity=95 time=0
EXTRACT: note_on channel=12 note=37 velocity=95 time=0
EXTRACT: note_off channel=9 note=42 velocity=95 time=0
EXTRACT: note_on channel=9 note=42 velocity=95 time=0
EXTRACT: note_on channel=9 note=36 velocity=95 time=0
EXTRACT: note_on channel=0 note=73 velocity=95 time=0.1666665
EXTRACT: note_on channel=0 note=68 velocity=95 time=0
EXTRACT: note_on channel=0 note=64 velocity=95 time=0
EXTRACT: note_on channel=0 note=61 velocity=95 time=0
EXTRACT: note_off channel=4 note=64 velocity=95 time=0
EXTRACT: note_off channel=4 note=61 velocity=95 time=0
EXTRACT: note_off channel=4 note=56 velocity=95 time=0
EXTRACT: note_off channel=4 note=49 velocity=95 time=0
EXTRACT: note_on channel=4 note=56 velocity=95 time=0
EXTRACT: note_on channel=4 note=52 velocity=95 time=0
EXTRACT: note_on channel=4 note=47 velocity=95 time=0
EXTRACT: note_off channel=9 note=42 velocity=95 time=0
EXTRACT: note_off channel=9 note=36 velocity=95 time=0
EXTRACT: note_off channel=4 note=56 velocity=95 time=0.031249968750000003
EXTRACT: note_off channel=4 note=52 velocity=95 time=0
EXTRACT: note_off channel=4 note=47 velocity=95 time=0
EXTRACT: note_off channel=0 note=73 velocity=95 time=0.13541653125
EXTRACT: note_off channel=0 note=68 velocity=95 time=0
EXTRACT: note_off channel=0 note=64 velocity=95 time=0
EXTRACT: note_off channel=0 note=61 velocity=95 time=0
EXTRACT: note_on channel=4 note=56 velocity=95 time=0
EXTRACT: note_on channel=4 note=52 velocity=95 time=0
EXTRACT: note_on channel=4 note=47 velocity=95 time=0
EXTRACT: note_on channel=9 note=42 velocity=95 time=0
EXTRACT: note_on channel=9 note=40 velocity=95 time=0
EXTRACT: note_off channel=4 note=56 velocity=95 time=0.031249968750000003
EXTRACT: note_off channel=4 note=52 velocity=95 time=0
EXTRACT: note_off channel=4 note=47 velocity=95 time=0
EXTRACT: note_off channel=6 note=68 velocity=95 time=0.07291659375000001
EXTRACT: note_off channel=6 note=64 velocity=95 time=0
EXTRACT: note_on channel=0 note=73 velocity=95 time=0.062499937500000005
EXTRACT: note_on channel=0 note=68 velocity=95 time=0
EXTRACT: note_on channel=0 note=64 velocity=95 time=0
EXTRACT: note_on channel=0 note=61 velocity=95 time=0
EXTRACT: note_on channel=4 note=64 velocity=95 time=0
EXTRACT: note_on channel=4 note=61 velocity=95 time=0
EXTRACT: note_on channel=4 note=56 velocity=95 time=0
EXTRACT: note_on channel=4 note=49 velocity=95 time=0
EXTRACT: note_on channel=6 note=68 velocity=95 time=0
EXTRACT: note_on channel=6 note=64 velocity=95 time=0
EXTRACT: note_off channel=12 note=37 velocity=95 time=0
EXTRACT: note_on channel=12 note=32 velocity=95 time=0
EXTRACT: note_off channel=9 note=42 velocity=95 time=0
EXTRACT: note_off channel=9 note=40 velocity=95 time=0
EXTRACT: note_on channel=9 note=42 velocity=95 time=0
EXTRACT: note_off channel=0 note=73 velocity=95 time=0.1666665
EXTRACT: note_off channel=0 note=68 velocity=95 time=0
EXTRACT: note_off channel=0 note=64 velocity=95 time=0
EXTRACT: note_off channel=0 note=61 velocity=95 time=0
EXTRACT: note_off channel=4 note=64 velocity=95 time=0
EXTRACT: note_off channel=4 note=61 velocity=95 time=0
EXTRACT: note_off channel=4 note=56 velocity=95 time=0
EXTRACT: note_off channel=4 note=49 velocity=95 time=0
EXTRACT: note_on channel=4 note=56 velocity=95 time=0
EXTRACT: note_on channel=4 note=52 velocity=95 time=0
EXTRACT: note_on channel=4 note=47 velocity=95 time=0
EXTRACT: note_off channel=9 note=42 velocity=95 time=0
EXTRACT: note_on channel=9 note=42 velocity=95 time=0
EXTRACT: note_on channel=9 note=36 velocity=95 time=0
EXTRACT: note_off channel=4 note=56 velocity=95 time=0.031249968750000003
EXTRACT: note_off channel=4 note=52 velocity=95 time=0
EXTRACT: note_off channel=4 note=47 velocity=95 time=0
EXTRACT: note_on channel=0 note=73 velocity=95 time=0.13541653125
EXTRACT: note_on channel=0 note=68 velocity=95 time=0
EXTRACT: note_on channel=0 note=64 velocity=95 time=0
EXTRACT: note_on channel=0 note=61 velocity=95 time=0
EXTRACT: note_on channel=4 note=56 velocity=95 time=0
EXTRACT: note_on channel=4 note=52 velocity=95 time=0
EXTRACT: note_on channel=4 note=47 velocity=95 time=0
EXTRACT: note_off channel=9 note=42 velocity=95 time=0
EXTRACT: note_off channel=9 note=36 velocity=95 time=0
EXTRACT: note_off channel=4 note=56 velocity=95 time=0.031249968750000003
EXTRACT: note_off channel=4 note=52 velocity=95 time=0
EXTRACT: note_off channel=4 note=47 velocity=95 time=0
EXTRACT: note_off channel=6 note=68 velocity=95 time=0.07291659375000001
EXTRACT: note_off channel=6 note=64 velocity=95 time=0
EXTRACT: note_off channel=0 note=73 velocity=95 time=0.062499937500000005
EXTRACT: note_off channel=0 note=68 velocity=95 time=0
EXTRACT: note_off channel=0 note=64 velocity=95 time=0
EXTRACT: note_off channel=0 note=61 velocity=95 time=0
EXTRACT: note_on channel=4 note=64 velocity=95 time=0
EXTRACT: note_on channel=4 note=61 velocity=95 time=0
EXTRACT: note_on channel=4 note=56 velocity=95 time=0
EXTRACT: note_on channel=4 note=49 velocity=95 time=0
EXTRACT: note_on channel=6 note=68 velocity=95 time=0
EXTRACT: note_on channel=6 note=64 velocity=95 time=0
EXTRACT: note_off channel=12 note=32 velocity=95 time=0
EXTRACT: note_on channel=12 note=35 velocity=95 time=0
EXTRACT: note_on channel=9 note=42 velocity=95 time=0
EXTRACT: note_on channel=9 note=40 velocity=95 time=0
EXTRACT: note_on channel=0 note=73 velocity=95 time=0.1666665
EXTRACT: note_on channel=0 note=68 velocity=95 time=0
EXTRACT: note_on channel=0 note=64 velocity=95 time=0
EXTRACT: note_on channel=0 note=61 velocity=95 time=0
EXTRACT: note_off channel=4 note=64 velocity=95 time=0
EXTRACT: note_off channel=4 note=61 velocity=95 time=0
EXTRACT: note_off channel=4 note=56 velocity=95 time=0
EXTRACT: note_off channel=4 note=49 velocity=95 time=0
EXTRACT: note_on channel=4 note=56 velocity=95 time=0
EXTRACT: note_on channel=4 note=52 velocity=95 time=0
EXTRACT: note_on channel=4 note=47 velocity=95 time=0
EXTRACT: note_off channel=9 note=42 velocity=95 time=0
EXTRACT: note_off channel=9 note=40 velocity=95 time=0
EXTRACT: note_on channel=9 note=42 velocity=95 time=0
EXTRACT: note_off channel=4 note=56 velocity=95 time=0.031249968750000003
EXTRACT: note_off channel=4 note=52 velocity=95 time=0
EXTRACT: note_off channel=4 note=47 velocity=95 time=0
EXTRACT: note_off channel=0 note=73 velocity=95 time=0.13541653125
EXTRACT: note_off channel=0 note=68 velocity=95 time=0
EXTRACT: note_off channel=0 note=64 velocity=95 time=0
EXTRACT: note_off channel=0 note=61 velocity=95 time=0
EXTRACT: note_off channel=2 note=61 velocity=95 time=0
EXTRACT: note_on channel=4 note=56 velocity=95 time=0
EXTRACT: note_on channel=4 note=52 velocity=95 time=0
EXTRACT: note_on channel=4 note=47 velocity=95 time=0
EXTRACT: note_off channel=9 note=42 velocity=95 time=0
EXTRACT: note_on channel=9 note=42 velocity=95 time=0
EXTRACT: note_on channel=9 note=36 velocity=95 time=0
EXTRACT: note_off channel=4 note=56 velocity=95 time=0.031249968750000003
EXTRACT: note_off channel=4 note=52 velocity=95 time=0
EXTRACT: note_off channel=4 note=47 velocity=95 time=0
EXTRACT: note_on channel=0 note=73 velocity=95 time=0.13541653125
EXTRACT: note_on channel=0 note=68 velocity=95 time=0
EXTRACT: note_on channel=0 note=64 velocity=95 time=0
EXTRACT: note_on channel=0 note=61 velocity=95 time=0
EXTRACT: note_on channel=2 note=52 velocity=95 time=0
EXTRACT: note_on channel=4 note=64 velocity=95 time=0
EXTRACT: note_on channel=4 note=61 velocity=95 time=0
EXTRACT: note_on channel=4 note=56 velocity=95 time=0
EXTRACT: note_on channel=4 note=49 velocity=95 time=0
EXTRACT: note_off channel=6 note=68 velocity=95 time=0
EXTRACT: note_off channel=6 note=64 velocity=95 time=0
EXTRACT: note_on channel=6 note=68 velocity=95 time=0
EXTRACT: note_on channel=6 note=64 velocity=95 time=0
EXTRACT: note_off channel=12 note=35 velocity=95 time=0
EXTRACT: note_on channel=12 note=37 velocity=95 time=0
EXTRACT: note_off channel=9 note=42 velocity=95 time=0
EXTRACT: note_off channel=9 note=36 velocity=95 time=0
EXTRACT: note_off channel=0 note=73 velocity=95 time=0.1666665
EXTRACT: note_off channel=0 note=68 velocity=95 time=0
EXTRACT: note_off channel=0 note=64 velocity=95 time=0
EXTRACT: note_off channel=0 note=61 velocity=95 time=0
EXTRACT: note_off channel=4 note=64 velocity=95 time=0
EXTRACT: note_off channel=4 note=61 velocity=95 time=0
EXTRACT: note_off channel=4 note=56 velocity=95 time=0
EXTRACT: note_off channel=4 note=49 velocity=95 time=0
EXTRACT: note_on channel=4 note=64 velocity=95 time=0
EXTRACT: note_on channel=4 note=61 velocity=95 time=0
EXTRACT: note_on channel=4 note=56 velocity=95 time=0
EXTRACT: note_on channel=4 note=49 velocity=95 time=0
EXTRACT: note_on channel=9 note=42 velocity=95 time=0
EXTRACT: note_on channel=9 note=40 velocity=95 time=0
EXTRACT: note_on channel=0 note=73 velocity=95 time=0.1666665
EXTRACT: note_on channel=0 note=68 velocity=95 time=0
EXTRACT: note_on channel=0 note=64 velocity=95 time=0
EXTRACT: note_on channel=0 note=61 velocity=95 time=0
EXTRACT: note_off channel=2 note=52 velocity=95 time=0
EXTRACT: note_on channel=2 note=56 velocity=95 time=0
EXTRACT: note_off channel=4 note=64 velocity=95 time=0
EXTRACT: note_off channel=4 note=61 velocity=95 time=0
EXTRACT: note_off channel=4 note=56 velocity=95 time=0
EXTRACT: note_off channel=4 note=49 velocity=95 time=0
EXTRACT: note_on channel=4 note=64 velocity=95 time=0
EXTRACT: note_on channel=4 note=61 velocity=95 time=0
EXTRACT: note_on channel=4 note=56 velocity=95 time=0
EXTRACT: note_on channel=4 note=49 velocity=95 time=0
EXTRACT: note_off channel=12 note=37 velocity=95 time=0
EXTRACT: note_on channel=12 note=37 velocity=95 time=0
EXTRACT: note_off channel=9 note=42 velocity=95 time=0
EXTRACT: note_off channel=9 note=40 velocity=95 time=0
EXTRACT: note_on channel=9 note=42 velocity=95 time=0
EXTRACT: note_off channel=6 note=68 velocity=95 time=0.1041665625
EXTRACT: note_off channel=6 note=64 velocity=95 time=0
EXTRACT: note_off channel=0 note=73 velocity=95 time=0.062499937500000005
EXTRACT: note_off channel=0 note=68 velocity=95 time=0
EXTRACT: note_off channel=0 note=64 velocity=95 time=0
EXTRACT: note_off channel=0 note=61 velocity=95 time=0
EXTRACT: note_off channel=2 note=56 velocity=95 time=0
EXTRACT: note_on channel=3 note=55 velocity=95 time=0
EXTRACT: note_off channel=4 note=64 velocity=95 time=0
EXTRACT: note_off channel=4 note=61 velocity=95 time=0
EXTRACT: note_off channel=4 note=56 velocity=95 time=0
EXTRACT: note_off channel=4 note=49 velocity=95 time=0
EXTRACT: note_on channel=4 note=64 velocity=95 time=0
EXTRACT: note_on channel=4 note=61 velocity=95 time=0
EXTRACT: note_on channel=4 note=56 velocity=95 time=0
EXTRACT: note_on channel=4 note=49 velocity=95 time=0
EXTRACT: note_on channel=6 note=68 velocity=95 time=0
EXTRACT: note_on channel=6 note=64 velocity=95 time=0
EXTRACT: note_off channel=12 note=37 velocity=95 time=0
EXTRACT: note_on channel=12 note=40 velocity=95 time=0
EXTRACT: note_off channel=9 note=42 velocity=95 time=0
EXTRACT: note_on channel=9 note=42 velocity=95 time=0
EXTRACT: pitchwheel channel=3 pitch=-640 time=0.041666625
EXTRACT: pitchwheel channel=3 pitch=0 time=0
EXTRACT: note_off channel=3 note=55 velocity=95 time=0
EXTRACT: note_on channel=2 note=54 velocity=95 time=0
EXTRACT: note_on channel=0 note=73 velocity=95 time=0.12499987500000001
EXTRACT: note_on channel=0 note=68 velocity=95 time=0
EXTRACT: note_on channel=0 note=64 velocity=95 time=0
EXTRACT: note_on channel=0 note=61 velocity=95 time=0
EXTRACT: note_off channel=2 note=54 velocity=95 time=0
EXTRACT: note_on channel=2 note=52 velocity=70 time=0
EXTRACT: note_off channel=4 note=64 velocity=95 time=0
EXTRACT: note_off channel=4 note=61 velocity=95 time=0
EXTRACT: note_off channel=4 note=56 velocity=95 time=0
EXTRACT: note_off channel=4 note=49 velocity=95 time=0
EXTRACT: note_on channel=4 note=56 velocity=95 time=0
EXTRACT: note_on channel=4 note=52 velocity=95 time=0
EXTRACT: note_on channel=4 note=47 velocity=95 time=0
EXTRACT: note_off channel=12 note=40 velocity=95 time=0
EXTRACT: note_on channel=12 note=39 velocity=95 time=0
EXTRACT: note_off channel=9 note=42 velocity=95 time=0
EXTRACT: note_on channel=9 note=36 velocity=95 time=0
EXTRACT: note_off channel=4 note=56 velocity=95 time=0.031249968750000003
EXTRACT: note_off channel=4 note=52 velocity=95 time=0
EXTRACT: note_off channel=4 note=47 velocity=95 time=0
EXTRACT: note_off channel=0 note=73 velocity=95 time=0.13541653125
EXTRACT: note_off channel=0 note=68 velocity=95 time=0
EXTRACT: note_off channel=0 note=64 velocity=95 time=0
EXTRACT: note_off channel=0 note=61 velocity=95 time=0
EXTRACT: note_off channel=2 note=52 velocity=70 time=0
EXTRACT: note_on channel=3 note=49 velocity=95 time=0
EXTRACT: note_on channel=4 note=56 velocity=95 time=0
EXTRACT: note_on channel=4 note=52 velocity=95 time=0
EXTRACT: note_on channel=4 note=47 velocity=95 time=0
EXTRACT: note_off channel=12 note=39 velocity=95 time=0
EXTRACT: note_on channel=12 note=37 velocity=95 time=0
EXTRACT: note_on channel=14 note=80 velocity=95 time=0
EXTRACT: note_on channel=14 note=73 velocity=95 time=0
EXTRACT: note_off channel=9 note=36 velocity=95 time=0
EXTRACT: note_on channel=9 note=42 velocity=95 time=0
EXTRACT: note_on channel=9 note=40 velocity=95 time=0
EXTRACT: note_off channel=4 note=56 velocity=95 time=0.031249968750000003
EXTRACT: note_off channel=4 note=52 velocity=95 time=0
EXTRACT: note_off channel=4 note=47 velocity=95 time=0
EXTRACT: pitchwheel channel=3 pitch=0 time=0.02430553125
EXTRACT: note_off channel=6 note=68 velocity=95 time=0.0486110625
EXTRACT: note_off channel=6 note=64 velocity=95 time=0
EXTRACT: pitchwheel channel=3 pitch=128 time=0.0069444375
EXTRACT: note_on channel=0 note=73 velocity=95 time=0.0555555
EXTRACT: note_on channel=0 note=68 velocity=95 time=0
EXTRACT: note_on channel=0 note=64 velocity=95 time=0
EXTRACT: note_on channel=0 note=61 velocity=95 time=0
EXTRACT: pitchwheel channel=3 pitch=0 time=0
EXTRACT: note_on channel=4 note=56 velocity=95 time=0
EXTRACT: note_on channel=4 note=52 velocity=95 time=0
EXTRACT: note_on channel=4 note=47 velocity=95 time=0
EXTRACT: note_on channel=6 note=56 velocity=95 time=0
EXTRACT: note_off channel=12 note=37 velocity=95 time=0
EXTRACT: note_on channel=12 note=33 velocity=95 time=0
EXTRACT: note_off channel=14 note=80 velocity=95 time=0
EXTRACT: note_off channel=14 note=73 velocity=95 time=0
EXTRACT: note_off channel=9 note=42 velocity=95 time=0
EXTRACT: note_off channel=9 note=40 velocity=95 time=0
EXTRACT: note_on channel=9 note=42 velocity=95 time=0
EXTRACT: note_off channel=4 note=56 velocity=95 time=0.031249968750000003
EXTRACT: note_off channel=4 note=52 velocity=95 time=0
EXTRACT: note_off channel=4 note=47 velocity=95 time=0
EXTRACT: note_off channel=12 note=33 velocity=95 time=0
EXTRACT: pitchwheel channel=3 pitch=128 time=0.02430553125
EXTRACT: pitchwheel channel=3 pitch=0 time=0.0555555
EXTRACT: note_off channel=0 note=73 velocity=95 time=0.0555555
EXTRACT: note_off channel=0 note=68 velocity=95 time=0
EXTRACT: note_off channel=0 note=64 velocity=95 time=0
EXTRACT: note_off channel=0 note=61 velocity=95 time=0
EXTRACT: pitchwheel channel=3 pitch=128 time=0
EXTRACT: pitchwheel channel=3 pitch=0 time=0
EXTRACT: note_off channel=3 note=49 velocity=95 time=0
EXTRACT: note_on channel=4 note=63 velocity=95 time=0
EXTRACT: note_on channel=4 note=59 velocity=95 time=0
EXTRACT: note_on channel=4 note=54 velocity=95 time=0
EXTRACT: note_on channel=4 note=47 velocity=95 time=0
EXTRACT: note_off channel=6 note=56 velocity=95 time=0
EXTRACT: note_on channel=6 note=63 velocity=95 time=0
EXTRACT: note_on channel=12 note=35 velocity=95 time=0
EXTRACT: note_off channel=9 note=42 velocity=95 time=0
EXTRACT: note_on channel=9 note=42 velocity=95 time=0
EXTRACT: note_on channel=9 note=36 velocity=95 time=0
EXTRACT: note_on channel=0 note=71 velocity=95 time=0.1666665
EXTRACT: note_on channel=0 note=66 velocity=95 time=0
EXTRACT: note_on channel=0 note=63 velocity=95 time=0
EXTRACT: note_on channel=0 note=59 velocity=95 time=0
EXTRACT: note_off channel=4 note=63 velocity=95 time=0
EXTRACT: note_off channel=4 note=59 velocity=95 time=0
EXTRACT: note_off channel=4 note=54 velocity=95 time=0
EXTRACT: note_off channel=4 note=47 velocity=95 time=0
EXTRACT: note_on channel=4 note=56 velocity=95 time=0
EXTRACT: note_on channel=4 note=52 velocity=95 time=0
EXTRACT: note_on channel=4 note=47 velocity=95 time=0
EXTRACT: note_off channel=6 note=63 velocity=95 time=0
EXTRACT: note_on channel=6 note=63 velocity=95 time=0
EXTRACT: note_off channel=9 note=42 velocity=95 time=0
EXTRACT: note_off channel=9 note=36 velocity=95 time=0
EXTRACT: note_off channel=4 note=56 velocity=95 time=0.031249968750000003
EXTRACT: note_off channel=4 note=52 velocity=95 time=0
EXTRACT: note_off channel=4 note=47 velocity=95 time=0
EXTRACT: note_off channel=0 note=71 velocity=95 time=0.13541653125
EXTRACT: note_off channel=0 note=66 velocity=95 time=0
EXTRACT: note_off channel=0 note=63 velocity=95 time=0
EXTRACT: note_off channel=0 note=59 velocity=95 time=0
EXTRACT: note_on channel=4 note=56 velocity=95 time=0
EXTRACT: note_on channel=4 note=52 velocity=95 time=0
EXTRACT: note_on channel=4 note=47 velocity=95 time=0
EXTRACT: note_off channel=6 note=63 velocity=95 time=0
EXTRACT: note_on channel=6 note=63 velocity=95 time=0
EXTRACT: note_off channel=12 note=35 velocity=95 time=0
EXTRACT: note_on channel=9 note=42 velocity=95 time=0
EXTRACT: note_on channel=9 note=40 velocity=95 time=0
EXTRACT: note_off channel=4 note=56 velocity=95 time=0.031249968750000003
EXTRACT: note_off channel=4 note=52 velocity=95 time=0
EXTRACT: note_off channel=4 note=47 velocity=95 time=0
EXTRACT: note_on channel=0 note=71 velocity=95 time=0.13541653125
EXTRACT: note_on channel=0 note=66 velocity=95 time=0
EXTRACT: note_on channel=0 note=63 velocity=95 time=0
EXTRACT: note_on channel=0 note=59 velocity=95 time=0
EXTRACT: note_on channel=4 note=63 velocity=95 time=0
EXTRACT: note_on channel=4 note=59 velocity=95 time=0
EXTRACT: note_on channel=4 note=54 velocity=95 time=0
EXTRACT: note_on channel=4 note=47 velocity=95 time=0
EXTRACT: note_off channel=6 note=63 velocity=95 time=0
EXTRACT: note_on channel=6 note=63 velocity=95 time=0
EXTRACT: note_on channel=12 note=30 velocity=95 time=0
EXTRACT: note_off channel=9 note=42 velocity=95 time=0
EXTRACT: note_off channel=9 note=40 velocity=95 time=0
EXTRACT: note_on channel=9 note=42 velocity=95 time=0
EXTRACT: note_off channel=12 note=30 velocity=95 time=0.08333325
EXTRACT: note_off channel=0 note=71 velocity=95 time=0.08333325
EXTRACT: note_off channel=0 note=66 velocity=95 time=0
EXTRACT: note_off channel=0 note=63 velocity=95 time=0
EXTRACT: note_off channel=0 note=59 velocity=95 time=0
EXTRACT: note_off channel=4 note=63 velocity=95 time=0
EXTRACT: note_off channel=4 note=59 velocity=95 time=0
EXTRACT: note_off channel=4 note=54 velocity=95 time=0
EXTRACT: note_off channel=4 note=47 velocity=95 time=0
EXTRACT: note_on channel=4 note=56 velocity=95 time=0
EXTRACT: note_on channel=4 note=52 velocity=95 time=0
EXTRACT: note_on channel=4 note=47 velocity=95 time=0
EXTRACT: note_on channel=12 note=30 velocity=95 time=0
EXTRACT: note_off channel=9 note=42 velocity=95 time=0
EXTRACT: note_on channel=9 note=42 velocity=95 time=0
EXTRACT: note_on channel=9 note=36 velocity=95 time=0
EXTRACT: note_off channel=4 note=56 velocity=95 time=0.031249968750000003
EXTRACT: note_off channel=4 note=52 velocity=95 time=0
EXTRACT: note_off channel=4 note=47 velocity=95 time=0
EXTRACT: note_on channel=0 note=71 velocity=95 time=0.13541653125
EXTRACT: note_on channel=0 note=66 velocity=95 time=0
EXTRACT: note_on channel=0 note=63 velocity=95 time=0
EXTRACT: note_on channel=0 note=59 velocity=95 time=0
EXTRACT: note_on channel=4 note=56 velocity=95 time=0
EXTRACT: note_on channel=4 note=52 velocity=95 time=0
EXTRACT: note_on channel=4 note=47 velocity=95 time=0
EXTRACT: note_off channel=6 note=63 velocity=95 time=0
EXTRACT: note_on channel=6 note=66 velocity=95 time=0
EXTRACT: note_off channel=9 note=42 velocity=95 time=0
EXTRACT: note_off channel=9 note=36 velocity=95 time=0
EXTRACT: note_off channel=4 note=56 velocity=95 time=0.031249968750000003
EXTRACT: note_off channel=4 note=52 velocity=95 time=0
EXTRACT: note_off channel=4 note=47 velocity=95 time=0
EXTRACT: note_off channel=0 note=71 velocity=95 time=0.13541653125
EXTRACT: note_off channel=0 note=66 velocity=95 time=0
EXTRACT: note_off channel=0 note=63 velocity=95 time=0
EXTRACT: note_off channel=0 note=59 velocity=95 time=0
EXTRACT: note_on channel=4 note=56 velocity=95 time=0
EXTRACT: note_on channel=4 note=52 velocity=95 time=0
EXTRACT: note_on channel=4 note=47 velocity=95 time=0
EXTRACT: note_off channel=12 note=30 velocity=95 time=0
EXTRACT: note_on channel=12 note=33 velocity=95 time=0
EXTRACT: note_on channel=9 note=42 velocity=95 time=0
EXTRACT: note_on channel=9 note=40 velocity=95 time=0
EXTRACT: note_off channel=4 note=56 velocity=95 time=0.031249968750000003
EXTRACT: note_off channel=4 note=52 velocity=95 time=0
EXTRACT: note_off channel=4 note=47 velocity=95 time=0
EXTRACT: note_on channel=0 note=71 velocity=95 time=0.13541653125
EXTRACT: note_on channel=0 note=66 velocity=95 time=0
EXTRACT: note_on channel=0 note=63 velocity=95 time=0
EXTRACT: note_on channel=0 note=59 velocity=95 time=0
EXTRACT: note_on channel=4 note=56 velocity=95 time=0
EXTRACT: note_on channel=4 note=52 velocity=95 time=0
EXTRACT: note_on channel=4 note=47 velocity=95 time=0
EXTRACT: note_off channel=6 note=66 velocity=95 time=0
EXTRACT: note_on channel=6 note=66 velocity=95 time=0
EXTRACT: note_off channel=9 note=42 velocity=95 time=0
EXTRACT: note_off channel=9 note=40 velocity=95 time=0
EXTRACT: note_on channel=9 note=42 velocity=95 time=0
EXTRACT: note_off channel=4 note=56 velocity=95 time=0.031249968750000003
EXTRACT: note_off channel=4 note=52 velocity=95 time=0
EXTRACT: note_off channel=4 note=47 velocity=95 time=0
EXTRACT: note_off channel=0 note=71 velocity=95 time=0.13541653125
EXTRACT: note_off channel=0 note=66 velocity=95 time=0
EXTRACT: note_off channel=0 note=63 velocity=95 time=0
EXTRACT: note_off channel=0 note=59 velocity=95 time=0
EXTRACT: note_on channel=4 note=56 velocity=95 time=0
EXTRACT: note_on channel=4 note=52 velocity=95 time=0
EXTRACT: note_on channel=4 note=47 velocity=95 time=0
EXTRACT: note_off channel=12 note=33 velocity=95 time=0
EXTRACT: note_on channel=12 note=37 velocity=95 time=0
EXTRACT: note_off channel=9 note=42 velocity=95 time=0
EXTRACT: note_on channel=9 note=42 velocity=95 time=0
EXTRACT: note_on channel=9 note=36 velocity=95 time=0
EXTRACT: note_off channel=4 note=56 velocity=95 time=0.031249968750000003
EXTRACT: note_off channel=4 note=52 velocity=95 time=0
EXTRACT: note_off channel=4 note=47 velocity=95 time=0
EXTRACT: note_on channel=0 note=73 velocity=95 time=0.13541653125
EXTRACT: note_on channel=0 note=68 velocity=95 time=0
EXTRACT: note_on channel=0 note=64 velocity=95 time=0
EXTRACT: note_on channel=0 note=61 velocity=95 time=0
EXTRACT: note_on channel=2 note=56 velocity=95 time=0
EXTRACT: note_on channel=4 note=64 velocity=95 time=0
EXTRACT: note_on channel=4 note=61 velocity=95 time=0
EXTRACT: note_on channel=4 note=56 velocity=95 time=0
EXTRACT: note_on channel=4 note=49 velocity=95 time=0
EXTRACT: note_off channel=6 note=66 velocity=95 time=0
EXTRACT: note_on channel=6 note=64 velocity=95 time=0
EXTRACT: note_on channel=14 note=80 velocity=95 time=0
EXTRACT: note_on channel=14 note=73 velocity=95 time=0
EXTRACT: note_off channel=9 note=42 velocity=95 time=0
EXTRACT: note_off channel=9 note=36 velocity=95 time=0
EXTRACT: note_off channel=0 note=73 velocity=95 time=0.1666665
EXTRACT: note_off channel=0 note=68 velocity=95 time=0
EXTRACT: note_off channel=0 note=64 velocity=95 time=0
EXTRACT: note_off channel=0 note=61 velocity=95 time=0
EXTRACT: note_off channel=2 note=56 velocity=95 time=0
EXTRACT: note_on channel=3 note=61 velocity=95 time=0
EXTRACT: note_off channel=4 note=64 velocity=95 time=0
EXTRACT: note_off channel=4 note=61 velocity=95 time=0
EXTRACT: note_off channel=4 note=56 velocity=95 time=0
EXTRACT: note_off channel=4 note=49 velocity=95 time=0
EXTRACT: note_on channel=4 note=64 velocity=95 time=0
EXTRACT: note_on channel=4 note=61 velocity=95 time=0
EXTRACT: note_on channel=4 note=56 velocity=95 time=0
EXTRACT: note_on channel=4 note=49 velocity=95 time=0
EXTRACT: note_on channel=9 note=42 velocity=95 time=0
EXTRACT: note_on channel=9 note=40 velocity=95 time=0
EXTRACT: pitchwheel channel=3 pitch=-128 time=0.041666625
EXTRACT: pitchwheel channel=3 pitch=-256 time=0.041666625
EXTRACT: pitchwheel channel=3 pitch=-512 time=0.041666625
EXTRACT: note_on channel=0 note=73 velocity=95 time=0.041666625
EXTRACT: note_on channel=0 note=68 velocity=95 time=0
EXTRACT: note_on channel=0 note=64 velocity=95 time=0
EXTRACT: note_on channel=0 note=61 velocity=95 time=0
EXTRACT: pitchwheel channel=3 pitch=-640 time=0
EXTRACT: pitchwheel channel=3 pitch=0 time=0
EXTRACT: note_off channel=3 note=61 velocity=95 time=0
EXTRACT: note_on channel=2 note=60 velocity=95 time=0
EXTRACT: note_off channel=4 note=64 velocity=95 time=0
EXTRACT: note_off channel=4 note=61 velocity=95 time=0
EXTRACT: note_off channel=4 note=56 velocity=95 time=0
EXTRACT: note_off channel=4 note=49 velocity=95 time=0
EXTRACT: note_on channel=4 note=64 velocity=95 time=0
EXTRACT: note_on channel=4 note=61 velocity=95 time=0
EXTRACT: note_on channel=4 note=56 velocity=95 time=0
EXTRACT: note_on channel=4 note=49 velocity=95 time=0
EXTRACT: note_off channel=12 note=37 velocity=95 time=0
EXTRACT: note_on channel=12 note=37 velocity=95 time=0
EXTRACT: note_off channel=14 note=80 velocity=95 time=0
EXTRACT: note_off channel=14 note=73 velocity=95 time=0
EXTRACT: note_on channel=14 note=79 velocity=95 time=0
EXTRACT: note_on channel=14 note=72 velocity=95 time=0
EXTRACT: note_off channel=9 note=42 velocity=95 time=0
EXTRACT: note_off channel=9 note=40 velocity=95 time=0
EXTRACT: note_on channel=9 note=42 velocity=95 time=0
EXTRACT: note_off channel=0 note=73 velocity=95 time=0.1666665
EXTRACT: note_off channel=0 note=68 velocity=95 time=0
EXTRACT: note_off channel=0 note=64 velocity=95 time=0
EXTRACT: note_off channel=0 note=61 velocity=95 time=0
EXTRACT: note_off channel=2 note=60 velocity=95 time=0
EXTRACT: note_on channel=3 note=61 velocity=95 time=0
EXTRACT: note_off channel=4 note=64 velocity=95 time=0
EXTRACT: note_off channel=4 note=61 velocity=95 time=0
EXTRACT: note_off channel=4 note=56 velocity=95 time=0
EXTRACT: note_off channel=4 note=49 velocity=95 time=0
EXTRACT: note_on channel=4 note=64 velocity=95 time=0
EXTRACT: note_on channel=4 note=61 velocity=95 time=0
EXTRACT: note_on channel=4 note=56 velocity=95 time=0
EXTRACT: note_on channel=4 note=49 velocity=95 time=0
EXTRACT: note_off channel=12 note=37 velocity=95 time=0
EXTRACT: note_on channel=12 note=32 velocity=95 time=0
EXTRACT: note_off channel=14 note=79 velocity=95 time=0
EXTRACT: note_off channel=14 note=72 velocity=95 time=0
EXTRACT: note_on channel=14 note=80 velocity=95 time=0
EXTRACT: note_on channel=14 note=73 velocity=95 time=0
EXTRACT: note_off channel=9 note=42 velocity=95 time=0
EXTRACT: note_on channel=9 note=42 velocity=95 time=0
EXTRACT: pitchwheel channel=3 pitch=0 time=0.0555555
EXTRACT: pitchwheel channel=3 pitch=128 time=0.0555555
EXTRACT: note_on channel=0 note=73 velocity=95 time=0.0555555
EXTRACT: note_on channel=0 note=68 velocity=95 time=0
EXTRACT: note_on channel=0 note=64 velocity=95 time=0
EXTRACT: note_on channel=0 note=61 velocity=95 time=0
EXTRACT: pitchwheel channel=3 pitch=0 time=0
EXTRACT: note_off channel=4 note=64 velocity=95 time=0
EXTRACT: note_off channel=4 note=61 velocity=95 time=0
EXTRACT: note_off channel=4 note=56 velocity=95 time=0
EXTRACT: note_off channel=4 note=49 velocity=95 time=0
EXTRACT: note_on channel=4 note=64 velocity=95 time=0
EXTRACT: note_on channel=4 note=61 velocity=95 time=0
EXTRACT: note_on channel=4 note=56 velocity=95 time=0
EXTRACT: note_on channel=4 note=49 velocity=95 time=0
EXTRACT: note_off channel=14 note=80 velocity=95 time=0
EXTRACT: note_off channel=14 note=73 velocity=95 time=0
EXTRACT: note_on channel=14 note=79 velocity=95 time=0
EXTRACT: note_on channel=14 note=72 velocity=95 time=0
EXTRACT: note_off channel=9 note=42 velocity=95 time=0
EXTRACT: note_on channel=9 note=36 velocity=95 time=0
EXTRACT: pitchwheel channel=3 pitch=128 time=0.0555555
EXTRACT: note_off channel=6 note=64 velocity=95 time=0.02777775
EXTRACT: pitchwheel channel=3 pitch=0 time=0.02777775
EXTRACT: note_off channel=0 note=73 velocity=95 time=0.0555555
EXTRACT: note_off channel=0 note=68 velocity=95 time=0
EXTRACT: note_off channel=0 note=64 velocity=95 time=0
EXTRACT: note_off channel=0 note=61 velocity=95 time=0
EXTRACT: pitchwheel channel=3 pitch=128 time=0
EXTRACT: pitchwheel channel=3 pitch=0 time=0
EXTRACT: note_off channel=3 note=61 velocity=95 time=0
EXTRACT: note_on channel=3 note=61 velocity=95 time=0
EXTRACT: note_off channel=4 note=64 velocity=95 time=0
EXTRACT: note_off channel=4 note=61 velocity=95 time=0
EXTRACT: note_off channel=4 note=56 velocity=95 time=0
EXTRACT: note_off channel=4 note=49 velocity=95 time=0
EXTRACT: note_on channel=4 note=56 velocity=95 time=0
EXTRACT: note_on channel=4 note=52 velocity=95 time=0
EXTRACT: note_on channel=4 note=47 velocity=95 time=0
EXTRACT: note_on channel=6 note=61 velocity=95 time=0
EXTRACT: note_off channel=12 note=32 velocity=95 time=0
EXTRACT: note_on channel=12 note=35 velocity=95 time=0
EXTRACT: note_off channel=14 note=79 velocity=95 time=0
EXTRACT: note_off channel=14 note=72 velocity=95 time=0
EXTRACT: note_on channel=14 note=80 velocity=95 time=0
EXTRACT: note_on channel=14 note=73 velocity=95 time=0
EXTRACT: note_off channel=9 note=36 velocity=95 time=0
EXTRACT: note_on channel=9 note=42 velocity=95 time=0
EXTRACT: note_on channel=9 note=40 velocity=95 time=0
EXTRACT: note_off channel=4 note=56 velocity=95 time=0.031249968750000003
EXTRACT: note_off channel=4 note=52 velocity=95 time=0
EXTRACT: note_off channel=4 note=47 velocity=95 time=0
EXTRACT: pitchwheel channel=3 pitch=0 time=0.02430553125
EXTRACT: pitchwheel channel=3 pitch=128 time=0.0555555
EXTRACT: note_on channel=0 note=73 velocity=95 time=0.0555555
EXTRACT: note_on channel=0 note=68 velocity=95 time=0
EXTRACT: note_on channel=0 note=64 velocity=95 time=0
EXTRACT: note_on channel=0 note=61 velocity=95 time=0
EXTRACT: pitchwheel channel=3 pitch=0 time=0
EXTRACT: note_on channel=4 note=56 velocity=95 time=0
EXTRACT: note_on channel=4 note=52 velocity=95 time=0
EXTRACT: note_on channel=4 note=47 velocity=95 time=0
EXTRACT: note_off channel=12 note=35 velocity=95 time=0
EXTRACT: note_on channel=12 note=35 velocity=95 time=0
EXTRACT: note_off channel=14 note=80 velocity=95 time=0
EXTRACT: note_off channel=14 note=73 velocity=95 time=0
EXTRACT: note_on channel=14 note=79 velocity=95 time=0
EXTRACT: note_on channel=14 note=72 velocity=95 time=0
EXTRACT: note_off channel=9 note=42 velocity=95 time=0
EXTRACT: note_off channel=9 note=40 velocity=95 time=0
EXTRACT: note_on channel=9 note=42 velocity=95 time=0
EXTRACT: note_off channel=4 note=56 velocity=95 time=0.031249968750000003
EXTRACT: note_off channel=4 note=52 velocity=95 time=0
EXTRACT: note_off channel=4 note=47 velocity=95 time=0
EXTRACT: pitchwheel channel=3 pitch=128 time=0.02430553125
EXTRACT: note_off channel=6 note=61 velocity=95 time=0.0486110625
EXTRACT: pitchwheel channel=3 pitch=0 time=0.0069444375
EXTRACT: note_off channel=0 note=73 velocity=95 time=0.0555555
EXTRACT: note_off channel=0 note=68 velocity=95 time=0
EXTRACT: note_off channel=0 note=64 velocity=95 time=0
EXTRACT: note_off channel=0 note=61 velocity=95 time=0
EXTRACT: pitchwheel channel=3 pitch=128 time=0
EXTRACT: pitchwheel channel=3 pitch=0 time=0
EXTRACT: note_off channel=3 note=61 velocity=95 time=0
EXTRACT: note_on channel=4 note=64 velocity=95 time=0
EXTRACT: note_on channel=4 note=61 velocity=95 time=0
EXTRACT: note_on channel=4 note=56 velocity=95 time=0
EXTRACT: note_on channel=4 note=49 velocity=95 time=0
EXTRACT: note_on channel=6 note=68 velocity=95 time=0
EXTRACT: note_on channel=6 note=64 velocity=95 time=0
EXTRACT: note_off channel=12 note=35 velocity=95 time=0
EXTRACT: note_on channel=12 note=37 velocity=95 time=0
EXTRACT: note_off channel=14 note=79 velocity=95 time=0
EXTRACT: note_off channel=14 note=72 velocity=95 time=0
EXTRACT: note_on channel=14 note=80 velocity=95 time=0
EXTRACT: note_on channel=14 note=73 velocity=95 time=0
EXTRACT: note_off channel=9 note=42 velocity=95 time=0
EXTRACT: note_on channel=9 note=42 velocity=95 time=0
EXTRACT: note_on channel=9 note=36 velocity=95 time=0
EXTRACT: note_on channel=0 note=73 velocity=95 time=0.1666665
EXTRACT: note_on channel=0 note=68 velocity=95 time=0
EXTRACT: note_on channel=0 note=64 velocity=95 time=0
EXTRACT: note_on channel=0 note=61 velocity=95 time=0
EXTRACT: note_off channel=4 note=64 velocity=95 time=0
EXTRACT: note_off channel=4 note=61 velocity=95 time=0
EXTRACT: note_off channel=4 note=56 velocity=95 time=0
EXTRACT: note_off channel=4 note=49 velocity=95 time=0
EXTRACT: note_on channel=4 note=56 velocity=95 time=0
EXTRACT: note_on channel=4 note=52 velocity=95 time=0
EXTRACT: note_on channel=4 note=47 velocity=95 time=0
EXTRACT: note_off channel=14 note=80 velocity=95 time=0
EXTRACT: note_off channel=14 note=73 velocity=95 time=0
EXTRACT: note_off channel=9 note=42 velocity=95 time=0
EXTRACT: note_off channel=9 note=36 velocity=95 time=0
EXTRACT: note_off channel=4 note=56 velocity=95 time=0.031249968750000003
EXTRACT: note_off channel=4 note=52 velocity=95 time=0
EXTRACT: note_off channel=4 note=47 velocity=95 time=0
EXTRACT: note_off channel=0 note=73 velocity=95 time=0.13541653125
EXTRACT: note_off channel=0 note=68 velocity=95 time=0
EXTRACT: note_off channel=0 note=64 velocity=95 time=0
EXTRACT: note_off channel=0 note=61 velocity=95 time=0
EXTRACT: note_on channel=4 note=56 velocity=95 time=0
EXTRACT: note_on channel=4 note=52 velocity=95 time=0
EXTRACT: note_on channel=4 note=47 velocity=95 time=0
EXTRACT: note_on channel=9 note=42 velocity=95 time=0
EXTRACT: note_on channel=9 note=40 velocity=95 time=0
EXTRACT: note_off channel=4 note=56 velocity=95 time=0.031249968750000003
EXTRACT: note_off channel=4 note=52 velocity=95 time=0
EXTRACT: note_off channel=4 note=47 velocity=95 time=0
EXTRACT: note_off channel=6 note=68 velocity=95 time=0.07291659375000001
EXTRACT: note_off channel=6 note=64 velocity=95 time=0
EXTRACT: note_on channel=0 note=73 velocity=95 time=0.062499937500000005
EXTRACT: note_on channel=0 note=68 velocity=95 time=0
EXTRACT: note_on channel=0 note=64 velocity=95 time=0
EXTRACT: note_on channel=0 note=61 velocity=95 time=0
EXTRACT: note_on channel=4 note=64 velocity=95 time=0
EXTRACT: note_on channel=4 note=61 velocity=95 time=0
EXTRACT: note_on channel=4 note=56 velocity=95 time=0
EXTRACT: note_on channel=4 note=49 velocity=95 time=0
EXTRACT: note_on channel=6 note=68 velocity=95 time=0
EXTRACT: note_on channel=6 note=64 velocity=95 time=0
EXTRACT: note_off channel=12 note=37 velocity=95 time=0
EXTRACT: note_on channel=12 note=32 velocity=95 time=0
EXTRACT: note_off channel=9 note=42 velocity=95 time=0
EXTRACT: note_off channel=9 note=40 velocity=95 time=0
EXTRACT: note_on channel=9 note=42 velocity=95 time=0
EXTRACT: note_off channel=0 note=73 velocity=95 time=0.1666665
EXTRACT: note_off channel=0 note=68 velocity=95 time=0
EXTRACT: note_off channel=0 note=64 velocity=95 time=0
EXTRACT: note_off channel=0 note=61 velocity=95 time=0
EXTRACT: note_off channel=4 note=64 velocity=95 time=0
EXTRACT: note_off channel=4 note=61 velocity=95 time=0
EXTRACT: note_off channel=4 note=56 velocity=95 time=0
EXTRACT: note_off channel=4 note=49 velocity=95 time=0
EXTRACT: note_on channel=4 note=56 velocity=95 time=0
EXTRACT: note_on channel=4 note=52 velocity=95 time=0
EXTRACT: note_on channel=4 note=47 velocity=95 time=0
EXTRACT: note_off channel=9 note=42 velocity=95 time=0
EXTRACT: note_on channel=9 note=42 velocity=95 time=0
EXTRACT: note_on channel=9 note=36 velocity=95 time=0
EXTRACT: note_off channel=4 note=56 velocity=95 time=0.031249968750000003
EXTRACT: note_off channel=4 note=52 velocity=95 time=0
EXTRACT: note_off channel=4 note=47 velocity=95 time=0
EXTRACT: note_on channel=0 note=73 velocity=95 time=0.13541653125
EXTRACT: note_on channel=0 note=68 velocity=95 time=0
EXTRACT: note_on channel=0 note=64 velocity=95 time=0
EXTRACT: note_on channel=0 note=61 velocity=95 time=0
EXTRACT: note_on channel=4 note=56 velocity=95 time=0
EXTRACT: note_on channel=4 note=52 velocity=95 time=0
EXTRACT: note_on channel=4 note=47 velocity=95 time=0
EXTRACT: note_off channel=9 note=42 velocity=95 time=0
EXTRACT: note_off channel=9 note=36 velocity=95 time=0
EXTRACT: note_off channel=4 note=56 velocity=95 time=0.031249968750000003
EXTRACT: note_off channel=4 note=52 velocity=95 time=0
EXTRACT: note_off channel=4 note=47 velocity=95 time=0
EXTRACT: note_off channel=6 note=68 velocity=95 time=0.07291659375000001
EXTRACT: note_off channel=6 note=64 velocity=95 time=0
EXTRACT: note_off channel=0 note=73 velocity=95 time=0.062499937500000005
EXTRACT: note_off channel=0 note=68 velocity=95 time=0
EXTRACT: note_off channel=0 note=64 velocity=95 time=0
EXTRACT: note_off channel=0 note=61 velocity=95 time=0
EXTRACT: note_on channel=4 note=64 velocity=95 time=0
EXTRACT: note_on channel=4 note=61 velocity=95 time=0
EXTRACT: note_on channel=4 note=56 velocity=95 time=0
EXTRACT: note_on channel=4 note=49 velocity=95 time=0
EXTRACT: note_on channel=6 note=68 velocity=95 time=0
EXTRACT: note_on channel=6 note=64 velocity=95 time=0
EXTRACT: note_off channel=12 note=32 velocity=95 time=0
EXTRACT: note_on channel=12 note=35 velocity=95 time=0
EXTRACT: note_on channel=9 note=42 velocity=95 time=0
EXTRACT: note_on channel=9 note=40 velocity=95 time=0
EXTRACT: note_on channel=0 note=73 velocity=95 time=0.1666665
EXTRACT: note_on channel=0 note=68 velocity=95 time=0
EXTRACT: note_on channel=0 note=64 velocity=95 time=0
EXTRACT: note_on channel=0 note=61 velocity=95 time=0
EXTRACT: note_off channel=4 note=64 velocity=95 time=0
EXTRACT: note_off channel=4 note=61 velocity=95 time=0
EXTRACT: note_off channel=4 note=56 velocity=95 time=0
EXTRACT: note_off channel=4 note=49 velocity=95 time=0
EXTRACT: note_on channel=4 note=56 velocity=95 time=0
EXTRACT: note_on channel=4 note=52 velocity=95 time=0
EXTRACT: note_on channel=4 note=47 velocity=95 time=0
EXTRACT: note_off channel=9 note=42 velocity=95 time=0
EXTRACT: note_off channel=9 note=40 velocity=95 time=0
EXTRACT: note_on channel=9 note=42 velocity=95 time=0
EXTRACT: note_off channel=4 note=56 velocity=95 time=0.031249968750000003
EXTRACT: note_off channel=4 note=52 velocity=95 time=0
EXTRACT: note_off channel=4 note=47 velocity=95 time=0
EXTRACT: note_off channel=0 note=73 velocity=95 time=0.13541653125
EXTRACT: note_off channel=0 note=68 velocity=95 time=0
EXTRACT: note_off channel=0 note=64 velocity=95 time=0
EXTRACT: note_off channel=0 note=61 velocity=95 time=0
EXTRACT: note_on channel=4 note=56 velocity=95 time=0
EXTRACT: note_on channel=4 note=52 velocity=95 time=0
EXTRACT: note_on channel=4 note=47 velocity=95 time=0
EXTRACT: note_off channel=9 note=42 velocity=95 time=0
EXTRACT: note_on channel=9 note=42 velocity=95 time=0
EXTRACT: note_on channel=9 note=36 velocity=95 time=0
EXTRACT: note_off channel=4 note=56 velocity=95 time=0.031249968750000003
EXTRACT: note_off channel=4 note=52 velocity=95 time=0
EXTRACT: note_off channel=4 note=47 velocity=95 time=0
EXTRACT: note_on channel=0 note=73 velocity=95 time=0.13541653125
EXTRACT: note_on channel=0 note=68 velocity=95 time=0
EXTRACT: note_on channel=0 note=64 velocity=95 time=0
EXTRACT: note_on channel=0 note=61 velocity=95 time=0
EXTRACT: note_on channel=4 note=64 velocity=95 time=0
EXTRACT: note_on channel=4 note=61 velocity=95 time=0
EXTRACT: note_on channel=4 note=56 velocity=95 time=0
EXTRACT: note_on channel=4 note=49 velocity=95 time=0
EXTRACT: note_off channel=6 note=68 velocity=95 time=0
EXTRACT: note_off channel=6 note=64 velocity=95 time=0
EXTRACT: note_on channel=6 note=68 velocity=95 time=0
EXTRACT: note_on channel=6 note=64 velocity=95 time=0
EXTRACT: note_off channel=12 note=35 velocity=95 time=0
EXTRACT: note_on channel=12 note=37 velocity=95 time=0
EXTRACT: note_off channel=9 note=42 velocity=95 time=0
EXTRACT: note_off channel=9 note=36 velocity=95 time=0
EXTRACT: note_off channel=0 note=73 velocity=95 time=0.1666665
EXTRACT: note_off channel=0 note=68 velocity=95 time=0
EXTRACT: note_off channel=0 note=64 velocity=95 time=0
EXTRACT: note_off channel=0 note=61 velocity=95 time=0
EXTRACT: note_off channel=4 note=64 velocity=95 time=0
EXTRACT: note_off channel=4 note=61 velocity=95 time=0
EXTRACT: note_off channel=4 note=56 velocity=95 time=0
EXTRACT: note_off channel=4 note=49 velocity=95 time=0
EXTRACT: note_on channel=4 note=64 velocity=95 time=0
EXTRACT: note_on channel=4 note=61 velocity=95 time=0
EXTRACT: note_on channel=4 note=56 velocity=95 time=0
EXTRACT: note_on channel=4 note=49 velocity=95 time=0
EXTRACT: note_on channel=9 note=42 velocity=95 time=0
EXTRACT: note_on channel=9 note=40 velocity=95 time=0
EXTRACT: note_on channel=0 note=73 velocity=95 time=0.1666665
EXTRACT: note_on channel=0 note=68 velocity=95 time=0
EXTRACT: note_on channel=0 note=64 velocity=95 time=0
EXTRACT: note_on channel=0 note=61 velocity=95 time=0
EXTRACT: note_off channel=4 note=64 velocity=95 time=0
EXTRACT: note_off channel=4 note=61 velocity=95 time=0
EXTRACT: note_off channel=4 note=56 velocity=95 time=0
EXTRACT: note_off channel=4 note=49 velocity=95 time=0
EXTRACT: note_on channel=4 note=64 velocity=95 time=0
EXTRACT: note_on channel=4 note=61 velocity=95 time=0
EXTRACT: note_on channel=4 note=56 velocity=95 time=0
EXTRACT: note_on channel=4 note=49 velocity=95 time=0
EXTRACT: note_off channel=12 note=37 velocity=95 time=0
EXTRACT: note_on channel=12 note=37 velocity=95 time=0
EXTRACT: note_off channel=9 note=42 velocity=95 time=0
EXTRACT: note_off channel=9 note=40 velocity=95 time=0
EXTRACT: note_on channel=9 note=42 velocity=95 time=0
EXTRACT: note_off channel=6 note=68 velocity=95 time=0.1041665625
EXTRACT: note_off channel=6 note=64 velocity=95 time=0
EXTRACT: note_off channel=0 note=73 velocity=95 time=0.062499937500000005
EXTRACT: note_off channel=0 note=68 velocity=95 time=0
EXTRACT: note_off channel=0 note=64 velocity=95 time=0
EXTRACT: note_off channel=0 note=61 velocity=95 time=0
EXTRACT: pitchwheel channel=3 pitch=0 time=0
EXTRACT: note_on channel=3 note=54 velocity=95 time=0
EXTRACT: note_off channel=4 note=64 velocity=95 time=0
EXTRACT: note_off channel=4 note=61 velocity=95 time=0
EXTRACT: note_off channel=4 note=56 velocity=95 time=0
EXTRACT: note_off channel=4 note=49 velocity=95 time=0
EXTRACT: note_on channel=4 note=64 velocity=95 time=0
EXTRACT: note_on channel=4 note=61 velocity=95 time=0
EXTRACT: note_on channel=4 note=56 velocity=95 time=0
EXTRACT: note_on channel=4 note=49 velocity=95 time=0
EXTRACT: note_on channel=6 note=68 velocity=95 time=0
EXTRACT: note_on channel=6 note=64 velocity=95 time=0
EXTRACT: note_off channel=12 note=37 velocity=95 time=0
EXTRACT: note_on channel=12 note=40 velocity=95 time=0
EXTRACT: note_off channel=9 note=42 velocity=95 time=0
EXTRACT: note_on channel=9 note=42 velocity=95 time=0
EXTRACT: pitchwheel channel=3 pitch=128 time=0.0072916593750000005
EXTRACT: pitchwheel channel=3 pitch=256 time=0.0072916593750000005
EXTRACT: pitchwheel channel=3 pitch=384 time=0.0072916593750000005
EXTRACT: pitchwheel channel=3 pitch=512 time=0.0072916593750000005
EXTRACT: pitchwheel channel=3 pitch=640 time=0.0072916593750000005
EXTRACT: pitchwheel channel=3 pitch=768 time=0.0072916593750000005
EXTRACT: pitchwheel channel=3 pitch=896 time=0.0072916593750000005
EXTRACT: pitchwheel channel=3 pitch=1024 time=0.0072916593750000005
EXTRACT: pitchwheel channel=3 pitch=1152 time=0.0072916593750000005
EXTRACT: pitchwheel channel=3 pitch=1280 time=0.0072916593750000005
EXTRACT: pitchwheel channel=3 pitch=1408 time=0.0072916593750000005
EXTRACT: pitchwheel channel=3 pitch=1408 time=0.003124996875
EXTRACT: note_on channel=0 note=73 velocity=95 time=0.08333325
EXTRACT: note_on channel=0 note=68 velocity=95 time=0
EXTRACT: note_on channel=0 note=64 velocity=95 time=0
EXTRACT: note_on channel=0 note=61 velocity=95 time=0
EXTRACT: pitchwheel channel=3 pitch=1408 time=0
EXTRACT: note_off channel=4 note=64 velocity=95 time=0
EXTRACT: note_off channel=4 note=61 velocity=95 time=0
EXTRACT: note_off channel=4 note=56 velocity=95 time=0
EXTRACT: note_off channel=4 note=49 velocity=95 time=0
EXTRACT: note_on channel=4 note=56 velocity=95 time=0
EXTRACT: note_on channel=4 note=52 velocity=95 time=0
EXTRACT: note_on channel=4 note=47 velocity=95 time=0
EXTRACT: note_off channel=12 note=40 velocity=95 time=0
EXTRACT: note_on channel=12 note=39 velocity=95 time=0
EXTRACT: note_off channel=9 note=42 velocity=95 time=0
EXTRACT: note_on channel=9 note=36 velocity=95 time=0
EXTRACT: pitchwheel channel=3 pitch=1280 time=0.0072916593750000005
EXTRACT: pitchwheel channel=3 pitch=1152 time=0.0072916593750000005
EXTRACT: pitchwheel channel=3 pitch=1024 time=0.0072916593750000005
EXTRACT: pitchwheel channel=3 pitch=896 time=0.0072916593750000005
EXTRACT: note_off channel=4 note=56 velocity=95 time=0.00208333125
EXTRACT: note_off channel=4 note=52 velocity=95 time=0
EXTRACT: note_off channel=4 note=47 velocity=95 time=0
EXTRACT: pitchwheel channel=3 pitch=768 time=0.005208328125
EXTRACT: pitchwheel channel=3 pitch=640 time=0.0072916593750000005
EXTRACT: pitchwheel channel=3 pitch=512 time=0.0072916593750000005
EXTRACT: pitchwheel channel=3 pitch=384 time=0.0072916593750000005
EXTRACT: pitchwheel channel=3 pitch=256 time=0.0072916593750000005
EXTRACT: pitchwheel channel=3 pitch=128 time=0.0072916593750000005
EXTRACT: pitchwheel channel=3 pitch=0 time=0.0072916593750000005
EXTRACT: pitchwheel channel=3 pitch=0 time=0.003124996875
EXTRACT: note_off channel=0 note=73 velocity=95 time=0.08333325
EXTRACT: note_off channel=0 note=68 velocity=95 time=0
EXTRACT: note_off channel=0 note=64 velocity=95 time=0
EXTRACT: note_off channel=0 note=61 velocity=95 time=0
EXTRACT: pitchwheel channel=3 pitch=0 time=0
EXTRACT: pitchwheel channel=3 pitch=0 time=0
EXTRACT: note_off channel=3 note=54 velocity=95 time=0
EXTRACT: note_on channel=2 note=52 velocity=95 time=0
EXTRACT: note_on channel=4 note=56 velocity=95 time=0
EXTRACT: note_on channel=4 note=52 velocity=95 time=0
EXTRACT: note_on channel=4 note=47 velocity=95 time=0
EXTRACT: note_off channel=12 note=39 velocity=95 time=0
EXTRACT: note_on channel=12 note=37 velocity=95 time=0
EXTRACT: note_off channel=9 note=36 velocity=95 time=0
EXTRACT: note_on channel=9 note=42 velocity=95 time=0
EXTRACT: note_on channel=9 note=40 velocity=95 time=0
EXTRACT: note_off channel=4 note=56 velocity=95 time=0.031249968750000003
EXTRACT: note_off channel=4 note=52 velocity=95 time=0
EXTRACT: note_off channel=4 note=47 velocity=95 time=0
EXTRACT: note_off channel=6 note=68 velocity=95 time=0.07291659375000001
EXTRACT: note_off channel=6 note=64 velocity=95 time=0
EXTRACT: note_on channel=0 note=73 velocity=95 time=0.062499937500000005
EXTRACT: note_on channel=0 note=68 velocity=95 time=0
EXTRACT: note_on channel=0 note=64 velocity=95 time=0
EXTRACT: note_on channel=0 note=61 velocity=95 time=0
EXTRACT: note_off channel=2 note=52 velocity=95 time=0
EXTRACT: note_on channel=2 note=54 velocity=70 time=0
EXTRACT: note_on channel=4 note=56 velocity=95 time=0
EXTRACT: note_on channel=4 note=52 velocity=95 time=0
EXTRACT: note_on channel=4 note=47 velocity=95 time=0
EXTRACT: note_on channel=6 note=56 velocity=95 time=0
EXTRACT: note_off channel=12 note=37 velocity=95 time=0
EXTRACT: note_on channel=12 note=33 velocity=95 time=0
EXTRACT: note_off channel=9 note=42 velocity=95 time=0
EXTRACT: note_off channel=9 note=40 velocity=95 time=0
EXTRACT: note_on channel=9 note=42 velocity=95 time=0
EXTRACT: note_off channel=4 note=56 velocity=95 time=0.031249968750000003
EXTRACT: note_off channel=4 note=52 velocity=95 time=0
EXTRACT: note_off channel=4 note=47 velocity=95 time=0
EXTRACT: note_off channel=12 note=33 velocity=95 time=0
EXTRACT: note_off channel=0 note=73 velocity=95 time=0.13541653125
EXTRACT: note_off channel=0 note=68 velocity=95 time=0
EXTRACT: note_off channel=0 note=64 velocity=95 time=0
EXTRACT: note_off channel=0 note=61 velocity=95 time=0
EXTRACT: note_off channel=2 note=54 velocity=70 time=0
EXTRACT: note_on channel=2 note=47 velocity=95 time=0
EXTRACT: note_on channel=4 note=63 velocity=95 time=0
EXTRACT: note_on channel=4 note=59 velocity=95 time=0
EXTRACT: note_on channel=4 note=54 velocity=95 time=0
EXTRACT: note_on channel=4 note=47 velocity=95 time=0
EXTRACT: note_off channel=6 note=56 velocity=95 time=0
EXTRACT: note_on channel=6 note=63 velocity=95 time=0
EXTRACT: note_on channel=12 note=35 velocity=95 time=0
EXTRACT: note_off channel=9 note=42 velocity=95 time=0
EXTRACT: note_on channel=9 note=42 velocity=95 time=0
EXTRACT: note_on channel=9 note=36 velocity=95 time=0
EXTRACT: note_on channel=0 note=71 velocity=95 time=0.1666665
EXTRACT: note_on channel=0 note=66 velocity=95 time=0
EXTRACT: note_on channel=0 note=63 velocity=95 time=0
EXTRACT: note_on channel=0 note=59 velocity=95 time=0
EXTRACT: note_off channel=2 note=47 velocity=95 time=0
EXTRACT: note_off channel=4 note=63 velocity=95 time=0
EXTRACT: note_off channel=4 note=59 velocity=95 time=0
EXTRACT: note_off channel=4 note=54 velocity=95 time=0
EXTRACT: note_off channel=4 note=47 velocity=95 time=0
EXTRACT: note_on channel=4 note=56 velocity=95 time=0
EXTRACT: note_on channel=4 note=52 velocity=95 time=0
EXTRACT: note_on channel=4 note=47 velocity=95 time=0
EXTRACT: note_off channel=6 note=63 velocity=95 time=0
EXTRACT: note_on channel=6 note=63 velocity=95 time=0
EXTRACT: note_off channel=9 note=42 velocity=95 time=0
EXTRACT: note_off channel=9 note=36 velocity=95 time=0
EXTRACT: note_off channel=4 note=56 velocity=95 time=0.031249968750000003
EXTRACT: note_off channel=4 note=52 velocity=95 time=0
EXTRACT: note_off channel=4 note=47 velocity=95 time=0
EXTRACT: note_off channel=0 note=71 velocity=95 time=0.13541653125
EXTRACT: note_off channel=0 note=66 velocity=95 time=0
EXTRACT: note_off channel=0 note=63 velocity=95 time=0
EXTRACT: note_off channel=0 note=59 velocity=95 time=0
EXTRACT: note_on channel=4 note=56 velocity=95 time=0
EXTRACT: note_on channel=4 note=52 velocity=95 time=0
EXTRACT: note_on channel=4 note=47 velocity=95 time=0
EXTRACT: note_off channel=6 note=63 velocity=95 time=0
EXTRACT: note_on channel=6 note=63 velocity=95 time=0
EXTRACT: note_off channel=12 note=35 velocity=95 time=0
EXTRACT: note_on channel=9 note=42 velocity=95 time=0
EXTRACT: note_on channel=9 note=40 velocity=95 time=0
EXTRACT: note_off channel=4 note=56 velocity=95 time=0.031249968750000003
EXTRACT: note_off channel=4 note=52 velocity=95 time=0
EXTRACT: note_off channel=4 note=47 velocity=95 time=0
EXTRACT: note_on channel=0 note=71 velocity=95 time=0.13541653125
EXTRACT: note_on channel=0 note=66 velocity=95 time=0
EXTRACT: note_on channel=0 note=63 velocity=95 time=0
EXTRACT: note_on channel=0 note=59 velocity=95 time=0
EXTRACT: note_on channel=4 note=63 velocity=95 time=0
EXTRACT: note_on channel=4 note=59 velocity=95 time=0
EXTRACT: note_on channel=4 note=54 velocity=95 time=0
EXTRACT: note_on channel=4 note=47 velocity=95 time=0
EXTRACT: note_off channel=6 note=63 velocity=95 time=0
EXTRACT: note_on channel=6 note=63 velocity=95 time=0
EXTRACT: note_on channel=12 note=30 velocity=95 time=0
EXTRACT: note_off channel=9 note=42 velocity=95 time=0
EXTRACT: note_off channel=9 note=40 velocity=95 time=0
EXTRACT: note_on channel=9 note=42 velocity=95 time=0
EXTRACT: note_off channel=0 note=71 velocity=95 time=0.1666665
EXTRACT: note_off channel=0 note=66 velocity=95 time=0
EXTRACT: note_off channel=0 note=63 velocity=95 time=0
EXTRACT: note_off channel=0 note=59 velocity=95 time=0
EXTRACT: note_off channel=4 note=63 velocity=95 time=0
EXTRACT: note_off channel=4 note=59 velocity=95 time=0
EXTRACT: note_off channel=4 note=54 velocity=95 time=0
EXTRACT: note_off channel=4 note=47 velocity=95 time=0
EXTRACT: note_on channel=4 note=56 velocity=95 time=0
EXTRACT: note_on channel=4 note=52 velocity=95 time=0
EXTRACT: note_on channel=4 note=47 velocity=95 time=0
EXTRACT: note_off channel=12 note=30 velocity=95 time=0
EXTRACT: note_on channel=12 note=30 velocity=95 time=0
EXTRACT: note_off channel=9 note=42 velocity=95 time=0
EXTRACT: note_on channel=9 note=42 velocity=95 time=0
EXTRACT: note_on channel=9 note=36 velocity=95 time=0
EXTRACT: note_off channel=4 note=56 velocity=95 time=0.031249968750000003
EXTRACT: note_off channel=4 note=52 velocity=95 time=0
EXTRACT: note_off channel=4 note=47 velocity=95 time=0
EXTRACT: note_on channel=0 note=71 velocity=95 time=0.13541653125
EXTRACT: note_on channel=0 note=66 velocity=95 time=0
EXTRACT: note_on channel=0 note=63 velocity=95 time=0
EXTRACT: note_on channel=0 note=59 velocity=95 time=0
EXTRACT: note_on channel=4 note=56 velocity=95 time=0
EXTRACT: note_on channel=4 note=52 velocity=95 time=0
EXTRACT: note_on channel=4 note=47 velocity=95 time=0
EXTRACT: note_off channel=6 note=63 velocity=95 time=0
EXTRACT: note_on channel=6 note=64 velocity=95 time=0
EXTRACT: note_off channel=9 note=42 velocity=95 time=0
EXTRACT: note_off channel=9 note=36 velocity=95 time=0
EXTRACT: note_off channel=4 note=56 velocity=95 time=0.031249968750000003
EXTRACT: note_off channel=4 note=52 velocity=95 time=0
EXTRACT: note_off channel=4 note=47 velocity=95 time=0
EXTRACT: note_off channel=0 note=71 velocity=95 time=0.13541653125
EXTRACT: note_off channel=0 note=66 velocity=95 time=0
EXTRACT: note_off channel=0 note=63 velocity=95 time=0
EXTRACT: note_off channel=0 note=59 velocity=95 time=0
EXTRACT: note_on channel=4 note=56 velocity=95 time=0
EXTRACT: note_on channel=4 note=52 velocity=95 time=0
EXTRACT: note_on channel=4 note=47 velocity=95 time=0
EXTRACT: note_off channel=12 note=30 velocity=95 time=0
EXTRACT: note_on channel=12 note=33 velocity=95 time=0
EXTRACT: note_on channel=9 note=42 velocity=95 time=0
EXTRACT: note_on channel=9 note=40 velocity=95 time=0
EXTRACT: note_off channel=4 note=56 velocity=95 time=0.031249968750000003
EXTRACT: note_off channel=4 note=52 velocity=95 time=0
EXTRACT: note_off channel=4 note=47 velocity=95 time=0
EXTRACT: note_on channel=0 note=71 velocity=95 time=0.13541653125
EXTRACT: note_on channel=0 note=66 velocity=95 time=0
EXTRACT: note_on channel=0 note=63 velocity=95 time=0
EXTRACT: note_on channel=0 note=59 velocity=95 time=0
EXTRACT: note_on channel=4 note=56 velocity=95 time=0
EXTRACT: note_on channel=4 note=52 velocity=95 time=0
EXTRACT: note_on channel=4 note=47 velocity=95 time=0
EXTRACT: note_off channel=6 note=64 velocity=95 time=0
EXTRACT: note_on channel=6 note=63 velocity=95 time=0
EXTRACT: note_off channel=9 note=42 velocity=95 time=0
EXTRACT: note_off channel=9 note=40 velocity=95 time=0
EXTRACT: note_on channel=9 note=42 velocity=95 time=0
EXTRACT: note_off channel=4 note=56 velocity=95 time=0.031249968750000003
EXTRACT: note_off channel=4 note=52 velocity=95 time=0
EXTRACT: note_off channel=4 note=47 velocity=95 time=0
EXTRACT: note_off channel=0 note=71 velocity=95 time=0.13541653125
EXTRACT: note_off channel=0 note=66 velocity=95 time=0
EXTRACT: note_off channel=0 note=63 velocity=95 time=0
EXTRACT: note_off channel=0 note=59 velocity=95 time=0
EXTRACT: note_on channel=4 note=56 velocity=95 time=0
EXTRACT: note_on channel=4 note=52 velocity=95 time=0
EXTRACT: note_on channel=4 note=47 velocity=95 time=0
EXTRACT: note_off channel=12 note=33 velocity=95 time=0
EXTRACT: note_on channel=12 note=37 velocity=95 time=0
EXTRACT: note_off channel=9 note=42 velocity=95 time=0
EXTRACT: note_on channel=9 note=42 velocity=95 time=0
EXTRACT: note_on channel=9 note=36 velocity=95 time=0
EXTRACT: note_off channel=4 note=56 velocity=95 time=0.031249968750000003
EXTRACT: note_off channel=4 note=52 velocity=95 time=0
EXTRACT: note_off channel=4 note=47 velocity=95 time=0
EXTRACT: note_on channel=0 note=73 velocity=95 time=0.13541653125
EXTRACT: note_on channel=0 note=68 velocity=95 time=0
EXTRACT: note_on channel=0 note=64 velocity=95 time=0
EXTRACT: note_on channel=0 note=61 velocity=95 time=0
EXTRACT: note_on channel=2 note=56 velocity=95 time=0
EXTRACT: note_on channel=4 note=64 velocity=95 time=0
EXTRACT: note_on channel=4 note=61 velocity=95 time=0
EXTRACT: note_on channel=4 note=56 velocity=95 time=0
EXTRACT: note_on channel=4 note=49 velocity=95 time=0
EXTRACT: note_off channel=6 note=63 velocity=95 time=0
EXTRACT: note_on channel=6 note=61 velocity=95 time=0
EXTRACT: note_off channel=9 note=42 velocity=95 time=0
EXTRACT: note_off channel=9 note=36 velocity=95 time=0
EXTRACT: note_off channel=0 note=73 velocity=95 time=0.1666665
EXTRACT: note_off channel=0 note=68 velocity=95 time=0
EXTRACT: note_off channel=0 note=64 velocity=95 time=0
EXTRACT: note_off channel=0 note=61 velocity=95 time=0
EXTRACT: note_off channel=2 note=56 velocity=95 time=0
EXTRACT: note_on channel=3 note=61 velocity=95 time=0
EXTRACT: note_off channel=4 note=64 velocity=95 time=0
EXTRACT: note_off channel=4 note=61 velocity=95 time=0
EXTRACT: note_off channel=4 note=56 velocity=95 time=0
EXTRACT: note_off channel=4 note=49 velocity=95 time=0
EXTRACT: note_on channel=4 note=64 velocity=95 time=0
EXTRACT: note_on channel=4 note=61 velocity=95 time=0
EXTRACT: note_on channel=4 note=56 velocity=95 time=0
EXTRACT: note_on channel=4 note=49 velocity=95 time=0
EXTRACT: note_on channel=14 note=80 velocity=95 time=0
EXTRACT: note_on channel=14 note=73 velocity=95 time=0
EXTRACT: note_on channel=9 note=42 velocity=95 time=0
EXTRACT: note_on channel=9 note=40 velocity=95 time=0
EXTRACT: pitchwheel channel=3 pitch=-128 time=0.041666625
EXTRACT: pitchwheel channel=3 pitch=-256 time=0.041666625
EXTRACT: pitchwheel channel=3 pitch=-512 time=0.041666625
EXTRACT: note_on channel=0 note=73 velocity=95 time=0.041666625
EXTRACT: note_on channel=0 note=68 velocity=95 time=0
EXTRACT: note_on channel=0 note=64 velocity=95 time=0
EXTRACT: note_on channel=0 note=61 velocity=95 time=0
EXTRACT: pitchwheel channel=3 pitch=-640 time=0
EXTRACT: pitchwheel channel=3 pitch=0 time=0
EXTRACT: note_off channel=3 note=61 velocity=95 time=0
EXTRACT: note_on channel=2 note=60 velocity=95 time=0
EXTRACT: note_off channel=4 note=64 velocity=95 time=0
EXTRACT: note_off channel=4 note=61 velocity=95 time=0
EXTRACT: note_off channel=4 note=56 velocity=95 time=0
EXTRACT: note_off channel=4 note=49 velocity=95 time=0
EXTRACT: note_on channel=4 note=64 velocity=95 time=0
EXTRACT: note_on channel=4 note=61 velocity=95 time=0
EXTRACT: note_on channel=4 note=56 velocity=95 time=0
EXTRACT: note_on channel=4 note=49 velocity=95 time=0
EXTRACT: note_off channel=12 note=37 velocity=95 time=0
EXTRACT: note_on channel=12 note=37 velocity=95 time=0
EXTRACT: note_off channel=14 note=80 velocity=95 time=0
EXTRACT: note_off channel=14 note=73 velocity=95 time=0
EXTRACT: note_off channel=9 note=42 velocity=95 time=0
EXTRACT: note_off channel=9 note=40 velocity=95 time=0
EXTRACT: note_on channel=9 note=42 velocity=95 time=0
EXTRACT: note_off channel=0 note=73 velocity=95 time=0.1666665
EXTRACT: note_off channel=0 note=68 velocity=95 time=0
EXTRACT: note_off channel=0 note=64 velocity=95 time=0
EXTRACT: note_off channel=0 note=61 velocity=95 time=0
EXTRACT: note_off channel=2 note=60 velocity=95 time=0
EXTRACT: note_on channel=3 note=61 velocity=95 time=0
EXTRACT: note_off channel=4 note=64 velocity=95 time=0
EXTRACT: note_off channel=4 note=61 velocity=95 time=0
EXTRACT: note_off channel=4 note=56 velocity=95 time=0
EXTRACT: note_off channel=4 note=49 velocity=95 time=0
EXTRACT: note_on channel=4 note=64 velocity=95 time=0
EXTRACT: note_on channel=4 note=61 velocity=95 time=0
EXTRACT: note_on channel=4 note=56 velocity=95 time=0
EXTRACT: note_on channel=4 note=49 velocity=95 time=0
EXTRACT: note_off channel=12 note=37 velocity=95 time=0
EXTRACT: note_on channel=12 note=32 velocity=95 time=0
EXTRACT: note_on channel=14 note=80 velocity=95 time=0
EXTRACT: note_on channel=14 note=73 velocity=95 time=0
EXTRACT: note_off channel=9 note=42 velocity=95 time=0
EXTRACT: note_on channel=9 note=42 velocity=95 time=0
EXTRACT: pitchwheel channel=3 pitch=0 time=0.0555555
EXTRACT: note_off channel=6 note=61 velocity=95 time=0.02777775
EXTRACT: pitchwheel channel=3 pitch=128 time=0.02777775
EXTRACT: note_on channel=0 note=73 velocity=95 time=0.0555555
EXTRACT: note_on channel=0 note=68 velocity=95 time=0
EXTRACT: note_on channel=0 note=64 velocity=95 time=0
EXTRACT: note_on channel=0 note=61 velocity=95 time=0
EXTRACT: pitchwheel channel=3 pitch=0 time=0
EXTRACT: note_off channel=4 note=64 velocity=95 time=0
EXTRACT: note_off channel=4 note=61 velocity=95 time=0
EXTRACT: note_off channel=4 note=56 velocity=95 time=0
EXTRACT: note_off channel=4 note=49 velocity=95 time=0
EXTRACT: note_on channel=4 note=64 velocity=95 time=0
EXTRACT: note_on channel=4 note=61 velocity=95 time=0
EXTRACT: note_on channel=4 note=56 velocity=95 time=0
EXTRACT: note_on channel=4 note=49 velocity=95 time=0
EXTRACT: note_off channel=14 note=80 velocity=95 time=0
EXTRACT: note_off channel=14 note=73 velocity=95 time=0
EXTRACT: note_off channel=9 note=42 velocity=95 time=0
EXTRACT: note_on channel=9 note=36 velocity=95 time=0
EXTRACT: pitchwheel channel=3 pitch=128 time=0.0555555
EXTRACT: pitchwheel channel=3 pitch=0 time=0.0555555
EXTRACT: note_off channel=0 note=73 velocity=95 time=0.0555555
EXTRACT: note_off channel=0 note=68 velocity=95 time=0
EXTRACT: note_off channel=0 note=64 velocity=95 time=0
EXTRACT: note_off channel=0 note=61 velocity=95 time=0
EXTRACT: pitchwheel channel=3 pitch=128 time=0
EXTRACT: pitchwheel channel=3 pitch=0 time=0
EXTRACT: note_off channel=3 note=61 velocity=95 time=0
EXTRACT: note_on channel=3 note=59 velocity=95 time=0
EXTRACT: note_off channel=4 note=64 velocity=95 time=0
EXTRACT: note_off channel=4 note=61 velocity=95 time=0
EXTRACT: note_off channel=4 note=56 velocity=95 time=0
EXTRACT: note_off channel=4 note=49 velocity=95 time=0
EXTRACT: note_on channel=4 note=56 velocity=95 time=0
EXTRACT: note_on channel=4 note=52 velocity=95 time=0
EXTRACT: note_on channel=4 note=47 velocity=95 time=0
EXTRACT: note_on channel=6 note=61 velocity=95 time=0
EXTRACT: note_off channel=12 note=32 velocity=95 time=0
EXTRACT: note_on channel=12 note=35 velocity=95 time=0
EXTRACT: note_off channel=9 note=36 velocity=95 time=0
EXTRACT: note_on channel=9 note=42 velocity=95 time=0
EXTRACT: note_on channel=9 note=40 velocity=95 time=0
EXTRACT: note_off channel=4 note=56 velocity=95 time=0.031249968750000003
EXTRACT: note_off channel=4 note=52 velocity=95 time=0
EXTRACT: note_off channel=4 note=47 velocity=95 time=0
EXTRACT: pitchwheel channel=3 pitch=256 time=0.01041665625
EXTRACT: pitchwheel channel=3 pitch=640 time=0.041666625
EXTRACT: pitchwheel channel=3 pitch=1024 time=0.041666625
EXTRACT: note_on channel=0 note=73 velocity=95 time=0.041666625
EXTRACT: note_on channel=0 note=68 velocity=95 time=0
EXTRACT: note_on channel=0 note=64 velocity=95 time=0
EXTRACT: note_on channel=0 note=61 velocity=95 time=0
EXTRACT: pitchwheel channel=3 pitch=1408 time=0
EXTRACT: pitchwheel channel=3 pitch=0 time=0
EXTRACT: note_off channel=3 note=59 velocity=95 time=0
EXTRACT: note_on channel=2 note=61 velocity=95 time=0
EXTRACT: note_on channel=4 note=56 velocity=95 time=0
EXTRACT: note_on channel=4 note=52 velocity=95 time=0
EXTRACT: note_on channel=4 note=47 velocity=95 time=0
EXTRACT: note_off channel=12 note=35 velocity=95 time=0
EXTRACT: note_on channel=12 note=35 velocity=95 time=0
EXTRACT: note_off channel=9 note=42 velocity=95 time=0
EXTRACT: note_off channel=9 note=40 velocity=95 time=0
EXTRACT: note_on channel=9 note=42 velocity=95 time=0
EXTRACT: note_off channel=4 note=56 velocity=95 time=0.031249968750000003
EXTRACT: note_off channel=4 note=52 velocity=95 time=0
EXTRACT: note_off channel=4 note=47 velocity=95 time=0
EXTRACT: note_off channel=6 note=61 velocity=95 time=0.07291659375000001
EXTRACT: note_off channel=0 note=73 velocity=95 time=0.062499937500000005
EXTRACT: note_off channel=0 note=68 velocity=95 time=0
EXTRACT: note_off channel=0 note=64 velocity=95 time=0
EXTRACT: note_off channel=0 note=61 velocity=95 time=0
EXTRACT: note_off channel=2 note=61 velocity=95 time=0
EXTRACT: note_on channel=4 note=64 velocity=95 time=0
EXTRACT: note_on channel=4 note=61 velocity=95 time=0
EXTRACT: note_on channel=4 note=56 velocity=95 time=0
EXTRACT: note_on channel=4 note=49 velocity=95 time=0
EXTRACT: note_on channel=6 note=68 velocity=95 time=0
EXTRACT: note_on channel=6 note=64 velocity=95 time=0
EXTRACT: note_off channel=12 note=35 velocity=95 time=0
EXTRACT: note_on channel=12 note=37 velocity=95 time=0
EXTRACT: note_off channel=9 note=42 velocity=95 time=0
EXTRACT: note_on channel=9 note=42 velocity=95 time=0
EXTRACT: note_on channel=9 note=36 velocity=95 time=0
EXTRACT: note_on channel=0 note=73 velocity=95 time=0.1666665
EXTRACT: note_on channel=0 note=68 velocity=95 time=0
EXTRACT: note_on channel=0 note=64 velocity=95 time=0
EXTRACT: note_on channel=0 note=61 velocity=95 time=0
EXTRACT: note_off channel=4 note=64 velocity=95 time=0
EXTRACT: note_off channel=4 note=61 velocity=95 time=0
EXTRACT: note_off channel=4 note=56 velocity=95 time=0
EXTRACT: note_off channel=4 note=49 velocity=95 time=0
EXTRACT: note_on channel=4 note=56 velocity=95 time=0
EXTRACT: note_on channel=4 note=52 velocity=95 time=0
EXTRACT: note_on channel=4 note=47 velocity=95 time=0
EXTRACT: note_off channel=9 note=42 velocity=95 time=0
EXTRACT: note_off channel=9 note=36 velocity=95 time=0
EXTRACT: note_off channel=4 note=56 velocity=95 time=0.031249968750000003
EXTRACT: note_off channel=4 note=52 velocity=95 time=0
EXTRACT: note_off channel=4 note=47 velocity=95 time=0
EXTRACT: note_off channel=0 note=73 velocity=95 time=0.13541653125
EXTRACT: note_off channel=0 note=68 velocity=95 time=0
EXTRACT: note_off channel=0 note=64 velocity=95 time=0
EXTRACT: note_off channel=0 note=61 velocity=95 time=0
EXTRACT: note_on channel=4 note=56 velocity=95 time=0
EXTRACT: note_on channel=4 note=52 velocity=95 time=0
EXTRACT: note_on channel=4 note=47 velocity=95 time=0
EXTRACT: note_on channel=9 note=42 velocity=95 time=0
EXTRACT: note_on channel=9 note=40 velocity=95 time=0
EXTRACT: note_off channel=4 note=56 velocity=95 time=0.031249968750000003
EXTRACT: note_off channel=4 note=52 velocity=95 time=0
EXTRACT: note_off channel=4 note=47 velocity=95 time=0
EXTRACT: note_off channel=6 note=68 velocity=95 time=0.07291659375000001
EXTRACT: note_off channel=6 note=64 velocity=95 time=0
EXTRACT: note_on channel=0 note=73 velocity=95 time=0.062499937500000005
EXTRACT: note_on channel=0 note=68 velocity=95 time=0
EXTRACT: note_on channel=0 note=64 velocity=95 time=0
EXTRACT: note_on channel=0 note=61 velocity=95 time=0
EXTRACT: note_on channel=4 note=64 velocity=95 time=0
EXTRACT: note_on channel=4 note=61 velocity=95 time=0
EXTRACT: note_on channel=4 note=56 velocity=95 time=0
EXTRACT: note_on channel=4 note=49 velocity=95 time=0
EXTRACT: note_on channel=6 note=68 velocity=95 time=0
EXTRACT: note_on channel=6 note=64 velocity=95 time=0
EXTRACT: note_off channel=12 note=37 velocity=95 time=0
EXTRACT: note_on channel=12 note=32 velocity=95 time=0
EXTRACT: note_off channel=9 note=42 velocity=95 time=0
EXTRACT: note_off channel=9 note=40 velocity=95 time=0
EXTRACT: note_on channel=9 note=42 velocity=95 time=0
EXTRACT: note_off channel=0 note=73 velocity=95 time=0.1666665
EXTRACT: note_off channel=0 note=68 velocity=95 time=0
EXTRACT: note_off channel=0 note=64 velocity=95 time=0
EXTRACT: note_off channel=0 note=61 velocity=95 time=0
EXTRACT: note_off channel=4 note=64 velocity=95 time=0
EXTRACT: note_off channel=4 note=61 velocity=95 time=0
EXTRACT: note_off channel=4 note=56 velocity=95 time=0
EXTRACT: note_off channel=4 note=49 velocity=95 time=0
EXTRACT: note_on channel=4 note=56 velocity=95 time=0
EXTRACT: note_on channel=4 note=52 velocity=95 time=0
EXTRACT: note_on channel=4 note=47 velocity=95 time=0
EXTRACT: note_off channel=9 note=42 velocity=95 time=0
EXTRACT: note_on channel=9 note=42 velocity=95 time=0
EXTRACT: note_on channel=9 note=36 velocity=95 time=0
EXTRACT: note_off channel=4 note=56 velocity=95 time=0.031249968750000003
EXTRACT: note_off channel=4 note=52 velocity=95 time=0
EXTRACT: note_off channel=4 note=47 velocity=95 time=0
EXTRACT: note_on channel=0 note=73 velocity=95 time=0.13541653125
EXTRACT: note_on channel=0 note=68 velocity=95 time=0
EXTRACT: note_on channel=0 note=64 velocity=95 time=0
EXTRACT: note_on channel=0 note=61 velocity=95 time=0
EXTRACT: note_on channel=4 note=56 velocity=95 time=0
EXTRACT: note_on channel=4 note=52 velocity=95 time=0
EXTRACT: note_on channel=4 note=47 velocity=95 time=0
EXTRACT: note_off channel=9 note=42 velocity=95 time=0
EXTRACT: note_off channel=9 note=36 velocity=95 time=0
EXTRACT: note_off channel=4 note=56 velocity=95 time=0.031249968750000003
EXTRACT: note_off channel=4 note=52 velocity=95 time=0
EXTRACT: note_off channel=4 note=47 velocity=95 time=0
EXTRACT: note_off channel=6 note=68 velocity=95 time=0.07291659375000001
EXTRACT: note_off channel=6 note=64 velocity=95 time=0
EXTRACT: note_off channel=0 note=73 velocity=95 time=0.062499937500000005
EXTRACT: note_off channel=0 note=68 velocity=95 time=0
EXTRACT: note_off channel=0 note=64 velocity=95 time=0
EXTRACT: note_off channel=0 note=61 velocity=95 time=0
EXTRACT: note_on channel=4 note=64 velocity=95 time=0
EXTRACT: note_on channel=4 note=61 velocity=95 time=0
EXTRACT: note_on channel=4 note=56 velocity=95 time=0
EXTRACT: note_on channel=4 note=49 velocity=95 time=0
EXTRACT: note_on channel=6 note=68 velocity=95 time=0
EXTRACT: note_on channel=6 note=64 velocity=95 time=0
EXTRACT: note_off channel=12 note=32 velocity=95 time=0
EXTRACT: note_on channel=12 note=35 velocity=95 time=0
EXTRACT: note_on channel=9 note=42 velocity=95 time=0
EXTRACT: note_on channel=9 note=40 velocity=95 time=0
EXTRACT: note_on channel=0 note=73 velocity=95 time=0.1666665
EXTRACT: note_on channel=0 note=68 velocity=95 time=0
EXTRACT: note_on channel=0 note=64 velocity=95 time=0
EXTRACT: note_on channel=0 note=61 velocity=95 time=0
EXTRACT: note_off channel=4 note=64 velocity=95 time=0
EXTRACT: note_off channel=4 note=61 velocity=95 time=0
EXTRACT: note_off channel=4 note=56 velocity=95 time=0
EXTRACT: note_off channel=4 note=49 velocity=95 time=0
EXTRACT: note_on channel=4 note=56 velocity=95 time=0
EXTRACT: note_on channel=4 note=52 velocity=95 time=0
EXTRACT: note_on channel=4 note=47 velocity=95 time=0
EXTRACT: note_off channel=9 note=42 velocity=95 time=0
EXTRACT: note_off channel=9 note=40 velocity=95 time=0
EXTRACT: note_on channel=9 note=42 velocity=95 time=0
EXTRACT: note_off channel=4 note=56 velocity=95 time=0.031249968750000003
EXTRACT: note_off channel=4 note=52 velocity=95 time=0
EXTRACT: note_off channel=4 note=47 velocity=95 time=0
EXTRACT: note_off channel=0 note=73 velocity=95 time=0.13541653125
EXTRACT: note_off channel=0 note=68 velocity=95 time=0
EXTRACT: note_off channel=0 note=64 velocity=95 time=0
EXTRACT: note_off channel=0 note=61 velocity=95 time=0
EXTRACT: note_on channel=4 note=56 velocity=95 time=0
EXTRACT: note_on channel=4 note=52 velocity=95 time=0
EXTRACT: note_on channel=4 note=47 velocity=95 time=0
EXTRACT: note_off channel=9 note=42 velocity=95 time=0
EXTRACT: note_on channel=9 note=42 velocity=95 time=0
EXTRACT: note_on channel=9 note=36 velocity=95 time=0
EXTRACT: note_off channel=4 note=56 velocity=95 time=0.031249968750000003
EXTRACT: note_off channel=4 note=52 velocity=95 time=0
EXTRACT: note_off channel=4 note=47 velocity=95 time=0
EXTRACT: note_on channel=0 note=73 velocity=95 time=0.13541653125
EXTRACT: note_on channel=0 note=68 velocity=95 time=0
EXTRACT: note_on channel=0 note=64 velocity=95 time=0
EXTRACT: note_on channel=0 note=61 velocity=95 time=0
EXTRACT: note_on channel=4 note=64 velocity=95 time=0
EXTRACT: note_on channel=4 note=61 velocity=95 time=0
EXTRACT: note_on channel=4 note=56 velocity=95 time=0
EXTRACT: note_on channel=4 note=49 velocity=95 time=0
EXTRACT: note_off channel=6 note=68 velocity=95 time=0
EXTRACT: note_off channel=6 note=64 velocity=95 time=0
EXTRACT: note_on channel=6 note=68 velocity=95 time=0
EXTRACT: note_on channel=6 note=64 velocity=95 time=0
EXTRACT: note_off channel=12 note=35 velocity=95 time=0
EXTRACT: note_on channel=12 note=37 velocity=95 time=0
EXTRACT: note_off channel=9 note=42 velocity=95 time=0
EXTRACT: note_off channel=9 note=36 velocity=95 time=0
EXTRACT: note_off channel=0 note=73 velocity=95 time=0.1666665
EXTRACT: note_off channel=0 note=68 velocity=95 time=0
EXTRACT: note_off channel=0 note=64 velocity=95 time=0
EXTRACT: note_off channel=0 note=61 velocity=95 time=0
EXTRACT: note_off channel=4 note=64 velocity=95 time=0
EXTRACT: note_off channel=4 note=61 velocity=95 time=0
EXTRACT: note_off channel=4 note=56 velocity=95 time=0
EXTRACT: note_off channel=4 note=49 velocity=95 time=0
EXTRACT: note_on channel=4 note=64 velocity=95 time=0
EXTRACT: note_on channel=4 note=61 velocity=95 time=0
EXTRACT: note_on channel=4 note=56 velocity=95 time=0
EXTRACT: note_on channel=4 note=49 velocity=95 time=0
EXTRACT: note_on channel=9 note=42 velocity=95 time=0
EXTRACT: note_on channel=9 note=40 velocity=95 time=0
EXTRACT: note_on channel=0 note=73 velocity=95 time=0.1666665
EXTRACT: note_on channel=0 note=68 velocity=95 time=0
EXTRACT: note_on channel=0 note=64 velocity=95 time=0
EXTRACT: note_on channel=0 note=61 velocity=95 time=0
EXTRACT: note_off channel=4 note=64 velocity=95 time=0
EXTRACT: note_off channel=4 note=61 velocity=95 time=0
EXTRACT: note_off channel=4 note=56 velocity=95 time=0
EXTRACT: note_off channel=4 note=49 velocity=95 time=0
EXTRACT: note_on channel=4 note=64 velocity=95 time=0
EXTRACT: note_on channel=4 note=61 velocity=95 time=0
EXTRACT: note_on channel=4 note=56 velocity=95 time=0
EXTRACT: note_on channel=4 note=49 velocity=95 time=0
EXTRACT: note_off channel=12 note=37 velocity=95 time=0
EXTRACT: note_on channel=12 note=37 velocity=95 time=0
EXTRACT: note_off channel=9 note=42 velocity=95 time=0
EXTRACT: note_off channel=9 note=40 velocity=95 time=0
EXTRACT: note_on channel=9 note=42 velocity=95 time=0
EXTRACT: note_off channel=6 note=68 velocity=95 time=0.1041665625
EXTRACT: note_off channel=6 note=64 velocity=95 time=0
EXTRACT: note_off channel=0 note=73 velocity=95 time=0.062499937500000005
EXTRACT: note_off channel=0 note=68 velocity=95 time=0
EXTRACT: note_off channel=0 note=64 velocity=95 time=0
EXTRACT: note_off channel=0 note=61 velocity=95 time=0
EXTRACT: note_on channel=2 note=54 velocity=95 time=0
EXTRACT: note_off channel=4 note=64 velocity=95 time=0
EXTRACT: note_off channel=4 note=61 velocity=95 time=0
EXTRACT: note_off channel=4 note=56 velocity=95 time=0
EXTRACT: note_off channel=4 note=49 velocity=95 time=0
EXTRACT: note_on channel=4 note=64 velocity=95 time=0
EXTRACT: note_on channel=4 note=61 velocity=95 time=0
EXTRACT: note_on channel=4 note=56 velocity=95 time=0
EXTRACT: note_on channel=4 note=49 velocity=95 time=0
EXTRACT: note_on channel=6 note=68 velocity=95 time=0
EXTRACT: note_on channel=6 note=64 velocity=95 time=0
EXTRACT: note_off channel=12 note=37 velocity=95 time=0
EXTRACT: note_on channel=12 note=40 velocity=95 time=0
EXTRACT: note_off channel=9 note=42 velocity=95 time=0
EXTRACT: note_on channel=9 note=42 velocity=95 time=0
EXTRACT: note_on channel=0 note=73 velocity=95 time=0.1666665
EXTRACT: note_on channel=0 note=68 velocity=95 time=0
EXTRACT: note_on channel=0 note=64 velocity=95 time=0
EXTRACT: note_on channel=0 note=61 velocity=95 time=0
EXTRACT: note_off channel=2 note=54 velocity=95 time=0
EXTRACT: note_on channel=2 note=52 velocity=95 time=0
EXTRACT: note_off channel=4 note=64 velocity=95 time=0
EXTRACT: note_off channel=4 note=61 velocity=95 time=0
EXTRACT: note_off channel=4 note=56 velocity=95 time=0
EXTRACT: note_off channel=4 note=49 velocity=95 time=0
EXTRACT: note_on channel=4 note=56 velocity=95 time=0
EXTRACT: note_on channel=4 note=52 velocity=95 time=0
EXTRACT: note_on channel=4 note=47 velocity=95 time=0
EXTRACT: note_off channel=12 note=40 velocity=95 time=0
EXTRACT: note_on channel=12 note=39 velocity=95 time=0
EXTRACT: note_off channel=9 note=42 velocity=95 time=0
EXTRACT: note_on channel=9 note=36 velocity=95 time=0
EXTRACT: note_off channel=4 note=56 velocity=95 time=0.031249968750000003
EXTRACT: note_off channel=4 note=52 velocity=95 time=0
EXTRACT: note_off channel=4 note=47 velocity=95 time=0
EXTRACT: note_off channel=0 note=73 velocity=95 time=0.13541653125
EXTRACT: note_off channel=0 note=68 velocity=95 time=0
EXTRACT: note_off channel=0 note=64 velocity=95 time=0
EXTRACT: note_off channel=0 note=61 velocity=95 time=0
EXTRACT: note_off channel=2 note=52 velocity=95 time=0
EXTRACT: note_on channel=3 note=49 velocity=95 time=0
EXTRACT: note_on channel=4 note=56 velocity=95 time=0
EXTRACT: note_on channel=4 note=52 velocity=95 time=0
EXTRACT: note_on channel=4 note=47 velocity=95 time=0
EXTRACT: note_off channel=12 note=39 velocity=95 time=0
EXTRACT: note_on channel=12 note=37 velocity=95 time=0
EXTRACT: note_off channel=9 note=36 velocity=95 time=0
EXTRACT: note_on channel=9 note=42 velocity=95 time=0
EXTRACT: note_on channel=9 note=40 velocity=95 time=0
EXTRACT: note_off channel=4 note=56 velocity=95 time=0.031249968750000003
EXTRACT: note_off channel=4 note=52 velocity=95 time=0
EXTRACT: note_off channel=4 note=47 velocity=95 time=0
EXTRACT: pitchwheel channel=3 pitch=0 time=0.02430553125
EXTRACT: note_off channel=6 note=68 velocity=95 time=0.0486110625
EXTRACT: note_off channel=6 note=64 velocity=95 time=0
EXTRACT: pitchwheel channel=3 pitch=128 time=0.0069444375
EXTRACT: note_on channel=0 note=73 velocity=95 time=0.0555555
EXTRACT: note_on channel=0 note=68 velocity=95 time=0
EXTRACT: note_on channel=0 note=64 velocity=95 time=0
EXTRACT: note_on channel=0 note=61 velocity=95 time=0
EXTRACT: pitchwheel channel=3 pitch=0 time=0
EXTRACT: note_on channel=4 note=56 velocity=95 time=0
EXTRACT: note_on channel=4 note=52 velocity=95 time=0
EXTRACT: note_on channel=4 note=47 velocity=95 time=0
EXTRACT: note_on channel=6 note=56 velocity=95 time=0
EXTRACT: note_off channel=12 note=37 velocity=95 time=0
EXTRACT: note_on channel=12 note=33 velocity=95 time=0
EXTRACT: note_off channel=9 note=42 velocity=95 time=0
EXTRACT: note_off channel=9 note=40 velocity=95 time=0
EXTRACT: note_on channel=9 note=42 velocity=95 time=0
EXTRACT: note_off channel=4 note=56 velocity=95 time=0.031249968750000003
EXTRACT: note_off channel=4 note=52 velocity=95 time=0
EXTRACT: note_off channel=4 note=47 velocity=95 time=0
EXTRACT: note_off channel=12 note=33 velocity=95 time=0
EXTRACT: pitchwheel channel=3 pitch=128 time=0.02430553125
EXTRACT: pitchwheel channel=3 pitch=0 time=0.0555555
EXTRACT: note_off channel=0 note=73 velocity=95 time=0.0555555
EXTRACT: note_off channel=0 note=68 velocity=95 time=0
EXTRACT: note_off channel=0 note=64 velocity=95 time=0
EXTRACT: note_off channel=0 note=61 velocity=95 time=0
EXTRACT: pitchwheel channel=3 pitch=128 time=0
EXTRACT: pitchwheel channel=3 pitch=0 time=0
EXTRACT: note_off channel=3 note=49 velocity=95 time=0
EXTRACT: note_on channel=4 note=63 velocity=95 time=0
EXTRACT: note_on channel=4 note=59 velocity=95 time=0
EXTRACT: note_on channel=4 note=54 velocity=95 time=0
EXTRACT: note_on channel=4 note=47 velocity=95 time=0
EXTRACT: note_off channel=6 note=56 velocity=95 time=0
EXTRACT: note_on channel=6 note=63 velocity=95 time=0
EXTRACT: note_on channel=12 note=35 velocity=95 time=0
EXTRACT: note_off channel=9 note=42 velocity=95 time=0
EXTRACT: note_on channel=9 note=42 velocity=95 time=0
EXTRACT: note_on channel=9 note=36 velocity=95 time=0
EXTRACT: note_on channel=0 note=71 velocity=95 time=0.1666665
EXTRACT: note_on channel=0 note=66 velocity=95 time=0
EXTRACT: note_on channel=0 note=63 velocity=95 time=0
EXTRACT: note_on channel=0 note=59 velocity=95 time=0
EXTRACT: note_off channel=4 note=63 velocity=95 time=0
EXTRACT: note_off channel=4 note=59 velocity=95 time=0
EXTRACT: note_off channel=4 note=54 velocity=95 time=0
EXTRACT: note_off channel=4 note=47 velocity=95 time=0
EXTRACT: note_on channel=4 note=56 velocity=95 time=0
EXTRACT: note_on channel=4 note=52 velocity=95 time=0
EXTRACT: note_on channel=4 note=47 velocity=95 time=0
EXTRACT: note_off channel=6 note=63 velocity=95 time=0
EXTRACT: note_on channel=6 note=63 velocity=95 time=0
EXTRACT: note_off channel=9 note=42 velocity=95 time=0
EXTRACT: note_off channel=9 note=36 velocity=95 time=0
EXTRACT: note_off channel=4 note=56 velocity=95 time=0.031249968750000003
EXTRACT: note_off channel=4 note=52 velocity=95 time=0
EXTRACT: note_off channel=4 note=47 velocity=95 time=0
EXTRACT: note_off channel=0 note=71 velocity=95 time=0.13541653125
EXTRACT: note_off channel=0 note=66 velocity=95 time=0
EXTRACT: note_off channel=0 note=63 velocity=95 time=0
EXTRACT: note_off channel=0 note=59 velocity=95 time=0
EXTRACT: note_on channel=4 note=56 velocity=95 time=0
EXTRACT: note_on channel=4 note=52 velocity=95 time=0
EXTRACT: note_on channel=4 note=47 velocity=95 time=0
EXTRACT: note_off channel=6 note=63 velocity=95 time=0
EXTRACT: note_on channel=6 note=63 velocity=95 time=0
EXTRACT: note_off channel=12 note=35 velocity=95 time=0
EXTRACT: note_on channel=9 note=42 velocity=95 time=0
EXTRACT: note_on channel=9 note=40 velocity=95 time=0
EXTRACT: note_off channel=4 note=56 velocity=95 time=0.031249968750000003
EXTRACT: note_off channel=4 note=52 velocity=95 time=0
EXTRACT: note_off channel=4 note=47 velocity=95 time=0
EXTRACT: note_on channel=0 note=71 velocity=95 time=0.13541653125
EXTRACT: note_on channel=0 note=66 velocity=95 time=0
EXTRACT: note_on channel=0 note=63 velocity=95 time=0
EXTRACT: note_on channel=0 note=59 velocity=95 time=0
EXTRACT: note_on channel=4 note=63 velocity=95 time=0
EXTRACT: note_on channel=4 note=59 velocity=95 time=0
EXTRACT: note_on channel=4 note=54 velocity=95 time=0
EXTRACT: note_on channel=4 note=47 velocity=95 time=0
EXTRACT: note_off channel=6 note=63 velocity=95 time=0
EXTRACT: note_on channel=6 note=63 velocity=95 time=0
EXTRACT: note_on channel=12 note=30 velocity=95 time=0
EXTRACT: note_off channel=9 note=42 velocity=95 time=0
EXTRACT: note_off channel=9 note=40 velocity=95 time=0
EXTRACT: note_on channel=9 note=42 velocity=95 time=0
EXTRACT: note_off channel=12 note=30 velocity=95 time=0.08333325
EXTRACT: note_off channel=0 note=71 velocity=95 time=0.08333325
EXTRACT: note_off channel=0 note=66 velocity=95 time=0
EXTRACT: note_off channel=0 note=63 velocity=95 time=0
EXTRACT: note_off channel=0 note=59 velocity=95 time=0
EXTRACT: note_off channel=4 note=63 velocity=95 time=0
EXTRACT: note_off channel=4 note=59 velocity=95 time=0
EXTRACT: note_off channel=4 note=54 velocity=95 time=0
EXTRACT: note_off channel=4 note=47 velocity=95 time=0
EXTRACT: note_on channel=4 note=56 velocity=95 time=0
EXTRACT: note_on channel=4 note=52 velocity=95 time=0
EXTRACT: note_on channel=4 note=47 velocity=95 time=0
EXTRACT: note_on channel=12 note=30 velocity=95 time=0
EXTRACT: note_off channel=9 note=42 velocity=95 time=0
EXTRACT: note_on channel=9 note=42 velocity=95 time=0
EXTRACT: note_on channel=9 note=36 velocity=95 time=0
EXTRACT: note_off channel=4 note=56 velocity=95 time=0.031249968750000003
EXTRACT: note_off channel=4 note=52 velocity=95 time=0
EXTRACT: note_off channel=4 note=47 velocity=95 time=0
EXTRACT: note_on channel=0 note=71 velocity=95 time=0.13541653125
EXTRACT: note_on channel=0 note=66 velocity=95 time=0
EXTRACT: note_on channel=0 note=63 velocity=95 time=0
EXTRACT: note_on channel=0 note=59 velocity=95 time=0
EXTRACT: note_on channel=4 note=56 velocity=95 time=0
EXTRACT: note_on channel=4 note=52 velocity=95 time=0
EXTRACT: note_on channel=4 note=47 velocity=95 time=0
EXTRACT: note_off channel=6 note=63 velocity=95 time=0
EXTRACT: note_on channel=6 note=66 velocity=95 time=0
EXTRACT: note_off channel=9 note=42 velocity=95 time=0
EXTRACT: note_off channel=9 note=36 velocity=95 time=0
EXTRACT: note_off channel=4 note=56 velocity=95 time=0.031249968750000003
EXTRACT: note_off channel=4 note=52 velocity=95 time=0
EXTRACT: note_off channel=4 note=47 velocity=95 time=0
EXTRACT: note_off channel=0 note=71 velocity=95 time=0.13541653125
EXTRACT: note_off channel=0 note=66 velocity=95 time=0
EXTRACT: note_off channel=0 note=63 velocity=95 time=0
EXTRACT: note_off channel=0 note=59 velocity=95 time=0
EXTRACT: note_on channel=4 note=56 velocity=95 time=0
EXTRACT: note_on channel=4 note=52 velocity=95 time=0
EXTRACT: note_on channel=4 note=47 velocity=95 time=0
EXTRACT: note_off channel=12 note=30 velocity=95 time=0
EXTRACT: note_on channel=12 note=33 velocity=95 time=0
EXTRACT: note_on channel=9 note=42 velocity=95 time=0
EXTRACT: note_on channel=9 note=40 velocity=95 time=0
EXTRACT: note_off channel=4 note=56 velocity=95 time=0.031249968750000003
EXTRACT: note_off channel=4 note=52 velocity=95 time=0
EXTRACT: note_off channel=4 note=47 velocity=95 time=0
EXTRACT: note_on channel=0 note=71 velocity=95 time=0.13541653125
EXTRACT: note_on channel=0 note=66 velocity=95 time=0
EXTRACT: note_on channel=0 note=63 velocity=95 time=0
EXTRACT: note_on channel=0 note=59 velocity=95 time=0
EXTRACT: note_on channel=4 note=56 velocity=95 time=0
EXTRACT: note_on channel=4 note=52 velocity=95 time=0
EXTRACT: note_on channel=4 note=47 velocity=95 time=0
EXTRACT: note_off channel=6 note=66 velocity=95 time=0
EXTRACT: note_on channel=6 note=66 velocity=95 time=0
EXTRACT: note_off channel=9 note=42 velocity=95 time=0
EXTRACT: note_off channel=9 note=40 velocity=95 time=0
EXTRACT: note_on channel=9 note=42 velocity=95 time=0
EXTRACT: note_off channel=4 note=56 velocity=95 time=0.031249968750000003
EXTRACT: note_off channel=4 note=52 velocity=95 time=0
EXTRACT: note_off channel=4 note=47 velocity=95 time=0
EXTRACT: note_off channel=0 note=71 velocity=95 time=0.13541653125
EXTRACT: note_off channel=0 note=66 velocity=95 time=0
EXTRACT: note_off channel=0 note=63 velocity=95 time=0
EXTRACT: note_off channel=0 note=59 velocity=95 time=0
EXTRACT: note_on channel=4 note=56 velocity=95 time=0
EXTRACT: note_on channel=4 note=52 velocity=95 time=0
EXTRACT: note_on channel=4 note=47 velocity=95 time=0
EXTRACT: note_off channel=12 note=33 velocity=95 time=0
EXTRACT: note_on channel=12 note=37 velocity=95 time=0
EXTRACT: note_off channel=9 note=42 velocity=95 time=0
EXTRACT: note_on channel=9 note=42 velocity=95 time=0
EXTRACT: note_on channel=9 note=36 velocity=95 time=0
EXTRACT: note_off channel=4 note=56 velocity=95 time=0.031249968750000003
EXTRACT: note_off channel=4 note=52 velocity=95 time=0
EXTRACT: note_off channel=4 note=47 velocity=95 time=0
EXTRACT: note_on channel=0 note=73 velocity=95 time=0.13541653125
EXTRACT: note_on channel=0 note=68 velocity=95 time=0
EXTRACT: note_on channel=0 note=64 velocity=95 time=0
EXTRACT: note_on channel=0 note=61 velocity=95 time=0
EXTRACT: note_on channel=2 note=56 velocity=95 time=0
EXTRACT: note_on channel=4 note=64 velocity=95 time=0
EXTRACT: note_on channel=4 note=61 velocity=95 time=0
EXTRACT: note_on channel=4 note=56 velocity=95 time=0
EXTRACT: note_on channel=4 note=49 velocity=95 time=0
EXTRACT: note_off channel=6 note=66 velocity=95 time=0
EXTRACT: note_on channel=6 note=64 velocity=95 time=0
EXTRACT: note_on channel=14 note=80 velocity=95 time=0
EXTRACT: note_on channel=14 note=73 velocity=95 time=0
EXTRACT: note_off channel=9 note=42 velocity=95 time=0
EXTRACT: note_off channel=9 note=36 velocity=95 time=0
EXTRACT: note_off channel=0 note=73 velocity=95 time=0.1666665
EXTRACT: note_off channel=0 note=68 velocity=95 time=0
EXTRACT: note_off channel=0 note=64 velocity=95 time=0
EXTRACT: note_off channel=0 note=61 velocity=95 time=0
EXTRACT: note_off channel=2 note=56 velocity=95 time=0
EXTRACT: note_on channel=2 note=61 velocity=95 time=0
EXTRACT: note_off channel=4 note=64 velocity=95 time=0
EXTRACT: note_off channel=4 note=61 velocity=95 time=0
EXTRACT: note_off channel=4 note=56 velocity=95 time=0
EXTRACT: note_off channel=4 note=49 velocity=95 time=0
EXTRACT: note_on channel=4 note=64 velocity=95 time=0
EXTRACT: note_on channel=4 note=61 velocity=95 time=0
EXTRACT: note_on channel=4 note=56 velocity=95 time=0
EXTRACT: note_on channel=4 note=49 velocity=95 time=0
EXTRACT: note_off channel=14 note=80 velocity=95 time=0
EXTRACT: note_off channel=14 note=73 velocity=95 time=0
EXTRACT: note_on channel=9 note=42 velocity=95 time=0
EXTRACT: note_on channel=9 note=40 velocity=95 time=0
EXTRACT: note_on channel=0 note=73 velocity=95 time=0.1666665
EXTRACT: note_on channel=0 note=68 velocity=95 time=0
EXTRACT: note_on channel=0 note=64 velocity=95 time=0
EXTRACT: note_on channel=0 note=61 velocity=95 time=0
EXTRACT: note_off channel=2 note=61 velocity=95 time=0
EXTRACT: note_on channel=2 note=61 velocity=95 time=0
EXTRACT: note_off channel=4 note=64 velocity=95 time=0
EXTRACT: note_off channel=4 note=61 velocity=95 time=0
EXTRACT: note_off channel=4 note=56 velocity=95 time=0
EXTRACT: note_off channel=4 note=49 velocity=95 time=0
EXTRACT: note_on channel=4 note=64 velocity=95 time=0
EXTRACT: note_on channel=4 note=61 velocity=95 time=0
EXTRACT: note_on channel=4 note=56 velocity=95 time=0
EXTRACT: note_on channel=4 note=49 velocity=95 time=0
EXTRACT: note_off channel=12 note=37 velocity=95 time=0
EXTRACT: note_on channel=12 note=37 velocity=95 time=0
EXTRACT: note_on channel=14 note=80 velocity=95 time=0
EXTRACT: note_on channel=14 note=73 velocity=95 time=0
EXTRACT: note_off channel=9 note=42 velocity=95 time=0
EXTRACT: note_off channel=9 note=40 velocity=95 time=0
EXTRACT: note_on channel=9 note=42 velocity=95 time=0
EXTRACT: note_off channel=0 note=73 velocity=95 time=0.1666665
EXTRACT: note_off channel=0 note=68 velocity=95 time=0
EXTRACT: note_off channel=0 note=64 velocity=95 time=0
EXTRACT: note_off channel=0 note=61 velocity=95 time=0
EXTRACT: note_off channel=2 note=61 velocity=95 time=0
EXTRACT: note_on channel=2 note=61 velocity=95 time=0
EXTRACT: note_off channel=4 note=64 velocity=95 time=0
EXTRACT: note_off channel=4 note=61 velocity=95 time=0
EXTRACT: note_off channel=4 note=56 velocity=95 time=0
EXTRACT: note_off channel=4 note=49 velocity=95 time=0
EXTRACT: note_on channel=4 note=64 velocity=95 time=0
EXTRACT: note_on channel=4 note=61 velocity=95 time=0
EXTRACT: note_on channel=4 note=56 velocity=95 time=0
EXTRACT: note_on channel=4 note=49 velocity=95 time=0
EXTRACT: note_off channel=12 note=37 velocity=95 time=0
EXTRACT: note_on channel=12 note=32 velocity=95 time=0
EXTRACT: note_off channel=14 note=80 velocity=95 time=0
EXTRACT: note_off channel=14 note=73 velocity=95 time=0
EXTRACT: note_off channel=9 note=42 velocity=95 time=0
EXTRACT: note_on channel=9 note=42 velocity=95 time=0
EXTRACT: note_on channel=0 note=73 velocity=95 time=0.1666665
EXTRACT: note_on channel=0 note=68 velocity=95 time=0
EXTRACT: note_on channel=0 note=64 velocity=95 time=0
EXTRACT: note_on channel=0 note=61 velocity=95 time=0
EXTRACT: note_off channel=2 note=61 velocity=95 time=0
EXTRACT: note_on channel=2 note=61 velocity=95 time=0
EXTRACT: note_off channel=4 note=64 velocity=95 time=0
EXTRACT: note_off channel=4 note=61 velocity=95 time=0
EXTRACT: note_off channel=4 note=56 velocity=95 time=0
EXTRACT: note_off channel=4 note=49 velocity=95 time=0
EXTRACT: note_on channel=4 note=64 velocity=95 time=0
EXTRACT: note_on channel=4 note=61 velocity=95 time=0
EXTRACT: note_on channel=4 note=56 velocity=95 time=0
EXTRACT: note_on channel=4 note=49 velocity=95 time=0
EXTRACT: note_on channel=14 note=80 velocity=95 time=0
EXTRACT: note_on channel=14 note=73 velocity=95 time=0
EXTRACT: note_off channel=9 note=42 velocity=95 time=0
EXTRACT: note_on channel=9 note=36 velocity=95 time=0
EXTRACT: note_off channel=6 note=64 velocity=95 time=0.08333325
EXTRACT: note_off channel=0 note=73 velocity=95 time=0.08333325
EXTRACT: note_off channel=0 note=68 velocity=95 time=0
EXTRACT: note_off channel=0 note=64 velocity=95 time=0
EXTRACT: note_off channel=0 note=61 velocity=95 time=0
EXTRACT: note_off channel=2 note=61 velocity=95 time=0
EXTRACT: note_on channel=2 note=61 velocity=95 time=0
EXTRACT: note_off channel=4 note=64 velocity=95 time=0
EXTRACT: note_off channel=4 note=61 velocity=95 time=0
EXTRACT: note_off channel=4 note=56 velocity=95 time=0
EXTRACT: note_off channel=4 note=49 velocity=95 time=0
EXTRACT: note_on channel=4 note=56 velocity=95 time=0
EXTRACT: note_on channel=4 note=52 velocity=95 time=0
EXTRACT: note_on channel=4 note=47 velocity=95 time=0
EXTRACT: note_off channel=12 note=32 velocity=95 time=0
EXTRACT: note_on channel=12 note=35 velocity=95 time=0
EXTRACT: note_off channel=14 note=80 velocity=95 time=0
EXTRACT: note_off channel=14 note=73 velocity=95 time=0
EXTRACT: note_off channel=9 note=36 velocity=95 time=0
EXTRACT: note_on channel=9 note=42 velocity=95 time=0
EXTRACT: note_on channel=9 note=40 velocity=95 time=0
EXTRACT: note_off channel=4 note=56 velocity=95 time=0.031249968750000003
EXTRACT: note_off channel=4 note=52 velocity=95 time=0
EXTRACT: note_off channel=4 note=47 velocity=95 time=0
EXTRACT: note_on channel=0 note=73 velocity=95 time=0.13541653125
EXTRACT: note_on channel=0 note=68 velocity=95 time=0
EXTRACT: note_on channel=0 note=64 velocity=95 time=0
EXTRACT: note_on channel=0 note=61 velocity=95 time=0
EXTRACT: note_on channel=4 note=56 velocity=95 time=0
EXTRACT: note_on channel=4 note=52 velocity=95 time=0
EXTRACT: note_on channel=4 note=47 velocity=95 time=0
EXTRACT: note_off channel=12 note=35 velocity=95 time=0
EXTRACT: note_on channel=12 note=35 velocity=95 time=0
EXTRACT: note_off channel=9 note=42 velocity=95 time=0
EXTRACT: note_off channel=9 note=40 velocity=95 time=0
EXTRACT: note_on channel=9 note=42 velocity=95 time=0
EXTRACT: note_off channel=4 note=56 velocity=95 time=0.031249968750000003
EXTRACT: note_off channel=4 note=52 velocity=95 time=0
EXTRACT: note_off channel=4 note=47 velocity=95 time=0
EXTRACT: note_off channel=0 note=73 velocity=95 time=0.13541653125
EXTRACT: note_off channel=0 note=68 velocity=95 time=0
EXTRACT: note_off channel=0 note=64 velocity=95 time=0
EXTRACT: note_off channel=0 note=61 velocity=95 time=0
EXTRACT: note_off channel=2 note=61 velocity=95 time=0
EXTRACT: note_on channel=4 note=64 velocity=95 time=0
EXTRACT: note_on channel=4 note=61 velocity=95 time=0
EXTRACT: note_on channel=4 note=56 velocity=95 time=0
EXTRACT: note_on channel=4 note=49 velocity=95 time=0
EXTRACT: note_on channel=6 note=64 velocity=95 time=0
EXTRACT: note_on channel=6 note=68 velocity=95 time=0
EXTRACT: note_off channel=12 note=35 velocity=95 time=0
EXTRACT: note_on channel=12 note=37 velocity=95 time=0
EXTRACT: note_off channel=9 note=42 velocity=95 time=0
EXTRACT: note_on channel=9 note=42 velocity=95 time=0
EXTRACT: note_on channel=9 note=36 velocity=95 time=0
EXTRACT: note_on channel=0 note=73 velocity=95 time=0.1666665
EXTRACT: note_on channel=0 note=68 velocity=95 time=0
EXTRACT: note_on channel=0 note=64 velocity=95 time=0
EXTRACT: note_on channel=0 note=61 velocity=95 time=0
EXTRACT: note_off channel=4 note=64 velocity=95 time=0
EXTRACT: note_off channel=4 note=61 velocity=95 time=0
EXTRACT: note_off channel=4 note=56 velocity=95 time=0
EXTRACT: note_off channel=4 note=49 velocity=95 time=0
EXTRACT: note_on channel=4 note=56 velocity=95 time=0
EXTRACT: note_on channel=4 note=52 velocity=95 time=0
EXTRACT: note_on channel=4 note=47 velocity=95 time=0
EXTRACT: note_off channel=9 note=42 velocity=95 time=0
EXTRACT: note_off channel=9 note=36 velocity=95 time=0
EXTRACT: note_off channel=4 note=56 velocity=95 time=0.031249968750000003
EXTRACT: note_off channel=4 note=52 velocity=95 time=0
EXTRACT: note_off channel=4 note=47 velocity=95 time=0
EXTRACT: note_off channel=0 note=73 velocity=95 time=0.13541653125
EXTRACT: note_off channel=0 note=68 velocity=95 time=0
EXTRACT: note_off channel=0 note=64 velocity=95 time=0
EXTRACT: note_off channel=0 note=61 velocity=95 time=0
EXTRACT: note_on channel=4 note=56 velocity=95 time=0
EXTRACT: note_on channel=4 note=52 velocity=95 time=0
EXTRACT: note_on channel=4 note=47 velocity=95 time=0
EXTRACT: note_on channel=9 note=42 velocity=95 time=0
EXTRACT: note_on channel=9 note=40 velocity=95 time=0
EXTRACT: note_off channel=4 note=56 velocity=95 time=0.031249968750000003
EXTRACT: note_off channel=4 note=52 velocity=95 time=0
EXTRACT: note_off channel=4 note=47 velocity=95 time=0
EXTRACT: note_off channel=6 note=64 velocity=95 time=0.07291659375000001
EXTRACT: note_off channel=6 note=68 velocity=95 time=0
EXTRACT: note_on channel=0 note=73 velocity=95 time=0.062499937500000005
EXTRACT: note_on channel=0 note=68 velocity=95 time=0
EXTRACT: note_on channel=0 note=64 velocity=95 time=0
EXTRACT: note_on channel=0 note=61 velocity=95 time=0
EXTRACT: note_on channel=4 note=64 velocity=95 time=0
EXTRACT: note_on channel=4 note=61 velocity=95 time=0
EXTRACT: note_on channel=4 note=56 velocity=95 time=0
EXTRACT: note_on channel=4 note=49 velocity=95 time=0
EXTRACT: note_on channel=6 note=68 velocity=95 time=0
EXTRACT: note_on channel=6 note=64 velocity=95 time=0
EXTRACT: note_off channel=12 note=37 velocity=95 time=0
EXTRACT: note_on channel=12 note=32 velocity=95 time=0
EXTRACT: note_off channel=9 note=42 velocity=95 time=0
EXTRACT: note_off channel=9 note=40 velocity=95 time=0
EXTRACT: note_on channel=9 note=42 velocity=95 time=0
EXTRACT: note_off channel=0 note=73 velocity=95 time=0.1666665
EXTRACT: note_off channel=0 note=68 velocity=95 time=0
EXTRACT: note_off channel=0 note=64 velocity=95 time=0
EXTRACT: note_off channel=0 note=61 velocity=95 time=0
EXTRACT: note_off channel=4 note=64 velocity=95 time=0
EXTRACT: note_off channel=4 note=61 velocity=95 time=0
EXTRACT: note_off channel=4 note=56 velocity=95 time=0
EXTRACT: note_off channel=4 note=49 velocity=95 time=0
EXTRACT: note_on channel=4 note=56 velocity=95 time=0
EXTRACT: note_on channel=4 note=52 velocity=95 time=0
EXTRACT: note_on channel=4 note=47 velocity=95 time=0
EXTRACT: note_off channel=9 note=42 velocity=95 time=0
EXTRACT: note_on channel=9 note=42 velocity=95 time=0
EXTRACT: note_on channel=9 note=36 velocity=95 time=0
EXTRACT: note_off channel=4 note=56 velocity=95 time=0.031249968750000003
EXTRACT: note_off channel=4 note=52 velocity=95 time=0
EXTRACT: note_off channel=4 note=47 velocity=95 time=0
EXTRACT: note_on channel=0 note=73 velocity=95 time=0.13541653125
EXTRACT: note_on channel=0 note=68 velocity=95 time=0
EXTRACT: note_on channel=0 note=64 velocity=95 time=0
EXTRACT: note_on channel=0 note=61 velocity=95 time=0
EXTRACT: note_on channel=4 note=56 velocity=95 time=0
EXTRACT: note_on channel=4 note=52 velocity=95 time=0
EXTRACT: note_on channel=4 note=47 velocity=95 time=0
EXTRACT: note_off channel=9 note=42 velocity=95 time=0
EXTRACT: note_off channel=9 note=36 velocity=95 time=0
EXTRACT: note_off channel=4 note=56 velocity=95 time=0.031249968750000003
EXTRACT: note_off channel=4 note=52 velocity=95 time=0
EXTRACT: note_off channel=4 note=47 velocity=95 time=0
EXTRACT: note_off channel=6 note=68 velocity=95 time=0.07291659375000001
EXTRACT: note_off channel=6 note=64 velocity=95 time=0
EXTRACT: note_off channel=0 note=73 velocity=95 time=0.062499937500000005
EXTRACT: note_off channel=0 note=68 velocity=95 time=0
EXTRACT: note_off channel=0 note=64 velocity=95 time=0
EXTRACT: note_off channel=0 note=61 velocity=95 time=0
EXTRACT: note_on channel=4 note=64 velocity=95 time=0
EXTRACT: note_on channel=4 note=61 velocity=95 time=0
EXTRACT: note_on channel=4 note=56 velocity=95 time=0
EXTRACT: note_on channel=4 note=49 velocity=95 time=0
EXTRACT: note_on channel=6 note=68 velocity=95 time=0
EXTRACT: note_on channel=6 note=64 velocity=95 time=0
EXTRACT: note_off channel=12 note=32 velocity=95 time=0
EXTRACT: note_on channel=12 note=35 velocity=95 time=0
EXTRACT: note_on channel=9 note=42 velocity=95 time=0
EXTRACT: note_on channel=9 note=40 velocity=95 time=0
EXTRACT: note_on channel=0 note=73 velocity=95 time=0.1666665
EXTRACT: note_on channel=0 note=68 velocity=95 time=0
EXTRACT: note_on channel=0 note=64 velocity=95 time=0
EXTRACT: note_on channel=0 note=61 velocity=95 time=0
EXTRACT: note_off channel=4 note=64 velocity=95 time=0
EXTRACT: note_off channel=4 note=61 velocity=95 time=0
EXTRACT: note_off channel=4 note=56 velocity=95 time=0
EXTRACT: note_off channel=4 note=49 velocity=95 time=0
EXTRACT: note_on channel=4 note=56 velocity=95 time=0
EXTRACT: note_on channel=4 note=52 velocity=95 time=0
EXTRACT: note_on channel=4 note=47 velocity=95 time=0
EXTRACT: note_off channel=9 note=42 velocity=95 time=0
EXTRACT: note_off channel=9 note=40 velocity=95 time=0
EXTRACT: note_on channel=9 note=42 velocity=95 time=0
EXTRACT: note_off channel=4 note=56 velocity=95 time=0.031249968750000003
EXTRACT: note_off channel=4 note=52 velocity=95 time=0
EXTRACT: note_off channel=4 note=47 velocity=95 time=0
EXTRACT: note_off channel=0 note=73 velocity=95 time=0.13541653125
EXTRACT: note_off channel=0 note=68 velocity=95 time=0
EXTRACT: note_off channel=0 note=64 velocity=95 time=0
EXTRACT: note_off channel=0 note=61 velocity=95 time=0
EXTRACT: note_on channel=4 note=56 velocity=95 time=0
EXTRACT: note_on channel=4 note=52 velocity=95 time=0
EXTRACT: note_on channel=4 note=47 velocity=95 time=0
EXTRACT: note_off channel=9 note=42 velocity=95 time=0
EXTRACT: note_on channel=9 note=42 velocity=95 time=0
EXTRACT: note_on channel=9 note=36 velocity=95 time=0
EXTRACT: note_off channel=4 note=56 velocity=95 time=0.031249968750000003
EXTRACT: note_off channel=4 note=52 velocity=95 time=0
EXTRACT: note_off channel=4 note=47 velocity=95 time=0
EXTRACT: note_on channel=0 note=73 velocity=95 time=0.13541653125
EXTRACT: note_on channel=0 note=68 velocity=95 time=0
EXTRACT: note_on channel=0 note=64 velocity=95 time=0
EXTRACT: note_on channel=0 note=61 velocity=95 time=0
EXTRACT: note_on channel=4 note=64 velocity=95 time=0
EXTRACT: note_on channel=4 note=61 velocity=95 time=0
EXTRACT: note_on channel=4 note=56 velocity=95 time=0
EXTRACT: note_on channel=4 note=49 velocity=95 time=0
EXTRACT: note_off channel=6 note=68 velocity=95 time=0
EXTRACT: note_off channel=6 note=64 velocity=95 time=0
EXTRACT: note_on channel=6 note=68 velocity=95 time=0
EXTRACT: note_on channel=6 note=64 velocity=95 time=0
EXTRACT: note_off channel=12 note=35 velocity=95 time=0
EXTRACT: note_on channel=12 note=37 velocity=95 time=0
EXTRACT: note_off channel=9 note=42 velocity=95 time=0
EXTRACT: note_off channel=9 note=36 velocity=95 time=0
EXTRACT: note_off channel=0 note=73 velocity=95 time=0.1666665
EXTRACT: note_off channel=0 note=68 velocity=95 time=0
EXTRACT: note_off channel=0 note=64 velocity=95 time=0
EXTRACT: note_off channel=0 note=61 velocity=95 time=0
EXTRACT: note_off channel=4 note=64 velocity=95 time=0
EXTRACT: note_off channel=4 note=61 velocity=95 time=0
EXTRACT: note_off channel=4 note=56 velocity=95 time=0
EXTRACT: note_off channel=4 note=49 velocity=95 time=0
EXTRACT: note_on channel=4 note=64 velocity=95 time=0
EXTRACT: note_on channel=4 note=61 velocity=95 time=0
EXTRACT: note_on channel=4 note=56 velocity=95 time=0
EXTRACT: note_on channel=4 note=49 velocity=95 time=0
EXTRACT: note_on channel=9 note=42 velocity=95 time=0
EXTRACT: note_on channel=9 note=40 velocity=95 time=0
EXTRACT: note_on channel=0 note=73 velocity=95 time=0.1666665
EXTRACT: note_on channel=0 note=68 velocity=95 time=0
EXTRACT: note_on channel=0 note=64 velocity=95 time=0
EXTRACT: note_on channel=0 note=61 velocity=95 time=0
EXTRACT: note_off channel=4 note=64 velocity=95 time=0
EXTRACT: note_off channel=4 note=61 velocity=95 time=0
EXTRACT: note_off channel=4 note=56 velocity=95 time=0
EXTRACT: note_off channel=4 note=49 velocity=95 time=0
EXTRACT: note_on channel=4 note=64 velocity=95 time=0
EXTRACT: note_on channel=4 note=61 velocity=95 time=0
EXTRACT: note_on channel=4 note=56 velocity=95 time=0
EXTRACT: note_on channel=4 note=49 velocity=95 time=0
EXTRACT: note_off channel=12 note=37 velocity=95 time=0
EXTRACT: note_on channel=12 note=37 velocity=95 time=0
EXTRACT: note_off channel=9 note=42 velocity=95 time=0
EXTRACT: note_off channel=9 note=40 velocity=95 time=0
EXTRACT: note_on channel=9 note=42 velocity=95 time=0
EXTRACT: note_off channel=6 note=68 velocity=95 time=0.1041665625
EXTRACT: note_off channel=6 note=64 velocity=95 time=0
EXTRACT: note_off channel=0 note=73 velocity=95 time=0.062499937500000005
EXTRACT: note_off channel=0 note=68 velocity=95 time=0
EXTRACT: note_off channel=0 note=64 velocity=95 time=0
EXTRACT: note_off channel=0 note=61 velocity=95 time=0
EXTRACT: note_off channel=4 note=64 velocity=95 time=0
EXTRACT: note_off channel=4 note=61 velocity=95 time=0
EXTRACT: note_off channel=4 note=56 velocity=95 time=0
EXTRACT: note_off channel=4 note=49 velocity=95 time=0
EXTRACT: note_on channel=4 note=64 velocity=95 time=0
EXTRACT: note_on channel=4 note=61 velocity=95 time=0
EXTRACT: note_on channel=4 note=56 velocity=95 time=0
EXTRACT: note_on channel=4 note=49 velocity=95 time=0
EXTRACT: note_on channel=6 note=68 velocity=95 time=0
EXTRACT: note_on channel=6 note=64 velocity=95 time=0
EXTRACT: note_off channel=12 note=37 velocity=95 time=0
EXTRACT: note_on channel=12 note=40 velocity=95 time=0
EXTRACT: note_off channel=9 note=42 velocity=95 time=0
EXTRACT: note_on channel=9 note=42 velocity=95 time=0
EXTRACT: note_on channel=0 note=73 velocity=95 time=0.1666665
EXTRACT: note_on channel=0 note=68 velocity=95 time=0
EXTRACT: note_on channel=0 note=64 velocity=95 time=0
EXTRACT: note_on channel=0 note=61 velocity=95 time=0
EXTRACT: pitchwheel channel=3 pitch=0 time=0
EXTRACT: note_on channel=3 note=54 velocity=95 time=0
EXTRACT: note_off channel=4 note=64 velocity=95 time=0
EXTRACT: note_off channel=4 note=61 velocity=95 time=0
EXTRACT: note_off channel=4 note=56 velocity=95 time=0
EXTRACT: note_off channel=4 note=49 velocity=95 time=0
EXTRACT: note_on channel=4 note=56 velocity=95 time=0
EXTRACT: note_on channel=4 note=52 velocity=95 time=0
EXTRACT: note_on channel=4 note=47 velocity=95 time=0
EXTRACT: note_off channel=12 note=40 velocity=95 time=0
EXTRACT: note_on channel=12 note=39 velocity=95 time=0
EXTRACT: note_off channel=9 note=42 velocity=95 time=0
EXTRACT: note_on channel=9 note=36 velocity=95 time=0
EXTRACT: pitchwheel channel=3 pitch=128 time=0.0072916593750000005
EXTRACT: pitchwheel channel=3 pitch=256 time=0.0072916593750000005
EXTRACT: pitchwheel channel=3 pitch=384 time=0.0072916593750000005
EXTRACT: pitchwheel channel=3 pitch=512 time=0.0072916593750000005
EXTRACT: note_off channel=4 note=56 velocity=95 time=0.00208333125
EXTRACT: note_off channel=4 note=52 velocity=95 time=0
EXTRACT: note_off channel=4 note=47 velocity=95 time=0
EXTRACT: pitchwheel channel=3 pitch=640 time=0.005208328125
EXTRACT: pitchwheel channel=3 pitch=768 time=0.0072916593750000005
EXTRACT: pitchwheel channel=3 pitch=896 time=0.0072916593750000005
EXTRACT: pitchwheel channel=3 pitch=1024 time=0.0072916593750000005
EXTRACT: pitchwheel channel=3 pitch=1152 time=0.0072916593750000005
EXTRACT: pitchwheel channel=3 pitch=1280 time=0.0072916593750000005
EXTRACT: pitchwheel channel=3 pitch=1408 time=0.0072916593750000005
EXTRACT: pitchwheel channel=3 pitch=1408 time=0.003124996875
EXTRACT: note_off channel=0 note=73 velocity=95 time=0.08333325
EXTRACT: note_off channel=0 note=68 velocity=95 time=0
EXTRACT: note_off channel=0 note=64 velocity=95 time=0
EXTRACT: note_off channel=0 note=61 velocity=95 time=0
EXTRACT: pitchwheel channel=3 pitch=1408 time=0
EXTRACT: note_on channel=4 note=56 velocity=95 time=0
EXTRACT: note_on channel=4 note=52 velocity=95 time=0
EXTRACT: note_on channel=4 note=47 velocity=95 time=0
EXTRACT: note_off channel=12 note=39 velocity=95 time=0
EXTRACT: note_on channel=12 note=37 velocity=95 time=0
EXTRACT: note_off channel=9 note=36 velocity=95 time=0
EXTRACT: note_on channel=9 note=42 velocity=95 time=0
EXTRACT: note_on channel=9 note=40 velocity=95 time=0
EXTRACT: pitchwheel channel=3 pitch=1280 time=0.0072916593750000005
EXTRACT: pitchwheel channel=3 pitch=1152 time=0.0072916593750000005
EXTRACT: pitchwheel channel=3 pitch=1024 time=0.0072916593750000005
EXTRACT: pitchwheel channel=3 pitch=896 time=0.0072916593750000005
EXTRACT: note_off channel=4 note=56 velocity=95 time=0.00208333125
EXTRACT: note_off channel=4 note=52 velocity=95 time=0
EXTRACT: note_off channel=4 note=47 velocity=95 time=0
EXTRACT: pitchwheel channel=3 pitch=768 time=0.005208328125
EXTRACT: pitchwheel channel=3 pitch=640 time=0.0072916593750000005
EXTRACT: pitchwheel channel=3 pitch=512 time=0.0072916593750000005
EXTRACT: pitchwheel channel=3 pitch=384 time=0.0072916593750000005
EXTRACT: pitchwheel channel=3 pitch=256 time=0.0072916593750000005
EXTRACT: pitchwheel channel=3 pitch=128 time=0.0072916593750000005
EXTRACT: pitchwheel channel=3 pitch=0 time=0.0072916593750000005
EXTRACT: pitchwheel channel=3 pitch=0 time=0.003124996875
EXTRACT: note_off channel=6 note=68 velocity=95 time=0.0208333125
EXTRACT: note_off channel=6 note=64 velocity=95 time=0
EXTRACT: note_on channel=0 note=73 velocity=95 time=0.062499937500000005
EXTRACT: note_on channel=0 note=68 velocity=95 time=0
EXTRACT: note_on channel=0 note=64 velocity=95 time=0
EXTRACT: note_on channel=0 note=61 velocity=95 time=0
EXTRACT: pitchwheel channel=3 pitch=0 time=0
EXTRACT: pitchwheel channel=3 pitch=0 time=0
EXTRACT: note_off channel=3 note=54 velocity=95 time=0
EXTRACT: note_on channel=2 note=52 velocity=95 time=0
EXTRACT: note_on channel=4 note=56 velocity=95 time=0
EXTRACT: note_on channel=4 note=52 velocity=95 time=0
EXTRACT: note_on channel=4 note=47 velocity=95 time=0
EXTRACT: note_off channel=12 note=37 velocity=95 time=0
EXTRACT: note_on channel=12 note=33 velocity=95 time=0
EXTRACT: note_off channel=9 note=42 velocity=95 time=0
EXTRACT: note_off channel=9 note=40 velocity=95 time=0
EXTRACT: note_on channel=9 note=42 velocity=95 time=0
EXTRACT: note_off channel=4 note=56 velocity=95 time=0.031249968750000003
EXTRACT: note_off channel=4 note=52 velocity=95 time=0
EXTRACT: note_off channel=4 note=47 velocity=95 time=0
EXTRACT: note_off channel=12 note=33 velocity=95 time=0
EXTRACT: note_off channel=0 note=73 velocity=95 time=0.13541653125
EXTRACT: note_off channel=0 note=68 velocity=95 time=0
EXTRACT: note_off channel=0 note=64 velocity=95 time=0
EXTRACT: note_off channel=0 note=61 velocity=95 time=0
EXTRACT: note_off channel=2 note=52 velocity=95 time=0
EXTRACT: note_on channel=4 note=63 velocity=95 time=0
EXTRACT: note_on channel=4 note=59 velocity=95 time=0
EXTRACT: note_on channel=4 note=54 velocity=95 time=0
EXTRACT: note_on channel=4 note=47 velocity=95 time=0
EXTRACT: note_on channel=6 note=63 velocity=95 time=0
EXTRACT: note_on channel=12 note=35 velocity=95 time=0
EXTRACT: note_off channel=9 note=42 velocity=95 time=0
EXTRACT: note_on channel=9 note=42 velocity=95 time=0
EXTRACT: note_on channel=9 note=36 velocity=95 time=0
EXTRACT: note_on channel=0 note=71 velocity=95 time=0.1666665
EXTRACT: note_on channel=0 note=66 velocity=95 time=0
EXTRACT: note_on channel=0 note=63 velocity=95 time=0
EXTRACT: note_on channel=0 note=59 velocity=95 time=0
EXTRACT: note_off channel=4 note=63 velocity=95 time=0
EXTRACT: note_off channel=4 note=59 velocity=95 time=0
EXTRACT: note_off channel=4 note=54 velocity=95 time=0
EXTRACT: note_off channel=4 note=47 velocity=95 time=0
EXTRACT: note_on channel=4 note=56 velocity=95 time=0
EXTRACT: note_on channel=4 note=52 velocity=95 time=0
EXTRACT: note_on channel=4 note=47 velocity=95 time=0
EXTRACT: note_off channel=6 note=63 velocity=95 time=0
EXTRACT: note_on channel=6 note=63 velocity=95 time=0
EXTRACT: note_off channel=9 note=42 velocity=95 time=0
EXTRACT: note_off channel=9 note=36 velocity=95 time=0
EXTRACT: note_off channel=4 note=56 velocity=95 time=0.031249968750000003
EXTRACT: note_off channel=4 note=52 velocity=95 time=0
EXTRACT: note_off channel=4 note=47 velocity=95 time=0
EXTRACT: note_off channel=0 note=71 velocity=95 time=0.13541653125
EXTRACT: note_off channel=0 note=66 velocity=95 time=0
EXTRACT: note_off channel=0 note=63 velocity=95 time=0
EXTRACT: note_off channel=0 note=59 velocity=95 time=0
EXTRACT: note_on channel=4 note=56 velocity=95 time=0
EXTRACT: note_on channel=4 note=52 velocity=95 time=0
EXTRACT: note_on channel=4 note=47 velocity=95 time=0
EXTRACT: note_off channel=6 note=63 velocity=95 time=0
EXTRACT: note_on channel=6 note=63 velocity=95 time=0
EXTRACT: note_off channel=12 note=35 velocity=95 time=0
EXTRACT: note_on channel=9 note=42 velocity=95 time=0
EXTRACT: note_on channel=9 note=40 velocity=95 time=0
EXTRACT: note_off channel=4 note=56 velocity=95 time=0.031249968750000003
EXTRACT: note_off channel=4 note=52 velocity=95 time=0
EXTRACT: note_off channel=4 note=47 velocity=95 time=0
EXTRACT: note_on channel=0 note=71 velocity=95 time=0.13541653125
EXTRACT: note_on channel=0 note=66 velocity=95 time=0
EXTRACT: note_on channel=0 note=63 velocity=95 time=0
EXTRACT: note_on channel=0 note=59 velocity=95 time=0
EXTRACT: note_on channel=4 note=63 velocity=95 time=0
EXTRACT: note_on channel=4 note=59 velocity=95 time=0
EXTRACT: note_on channel=4 note=54 velocity=95 time=0
EXTRACT: note_on channel=4 note=47 velocity=95 time=0
EXTRACT: note_off channel=6 note=63 velocity=95 time=0
EXTRACT: note_on channel=6 note=63 velocity=95 time=0
EXTRACT: note_on channel=12 note=30 velocity=95 time=0
EXTRACT: note_off channel=9 note=42 velocity=95 time=0
EXTRACT: note_off channel=9 note=40 velocity=95 time=0
EXTRACT: note_on channel=9 note=42 velocity=95 time=0
EXTRACT: note_off channel=0 note=71 velocity=95 time=0.1666665
EXTRACT: note_off channel=0 note=66 velocity=95 time=0
EXTRACT: note_off channel=0 note=63 velocity=95 time=0
EXTRACT: note_off channel=0 note=59 velocity=95 time=0
EXTRACT: note_off channel=4 note=63 velocity=95 time=0
EXTRACT: note_off channel=4 note=59 velocity=95 time=0
EXTRACT: note_off channel=4 note=54 velocity=95 time=0
EXTRACT: note_off channel=4 note=47 velocity=95 time=0
EXTRACT: note_on channel=4 note=56 velocity=95 time=0
EXTRACT: note_on channel=4 note=52 velocity=95 time=0
EXTRACT: note_on channel=4 note=47 velocity=95 time=0
EXTRACT: note_off channel=12 note=30 velocity=95 time=0
EXTRACT: note_on channel=12 note=30 velocity=95 time=0
EXTRACT: note_off channel=9 note=42 velocity=95 time=0
EXTRACT: note_on channel=9 note=42 velocity=95 time=0
EXTRACT: note_on channel=9 note=36 velocity=95 time=0
EXTRACT: note_off channel=4 note=56 velocity=95 time=0.031249968750000003
EXTRACT: note_off channel=4 note=52 velocity=95 time=0
EXTRACT: note_off channel=4 note=47 velocity=95 time=0
EXTRACT: note_on channel=0 note=71 velocity=95 time=0.13541653125
EXTRACT: note_on channel=0 note=66 velocity=95 time=0
EXTRACT: note_on channel=0 note=63 velocity=95 time=0
EXTRACT: note_on channel=0 note=59 velocity=95 time=0
EXTRACT: note_on channel=4 note=56 velocity=95 time=0
EXTRACT: note_on channel=4 note=52 velocity=95 time=0
EXTRACT: note_on channel=4 note=47 velocity=95 time=0
EXTRACT: note_off channel=6 note=63 velocity=95 time=0
EXTRACT: note_on channel=6 note=64 velocity=95 time=0
EXTRACT: note_off channel=9 note=42 velocity=95 time=0
EXTRACT: note_off channel=9 note=36 velocity=95 time=0
EXTRACT: note_off channel=4 note=56 velocity=95 time=0.031249968750000003
EXTRACT: note_off channel=4 note=52 velocity=95 time=0
EXTRACT: note_off channel=4 note=47 velocity=95 time=0
EXTRACT: note_off channel=0 note=71 velocity=95 time=0.13541653125
EXTRACT: note_off channel=0 note=66 velocity=95 time=0
EXTRACT: note_off channel=0 note=63 velocity=95 time=0
EXTRACT: note_off channel=0 note=59 velocity=95 time=0
EXTRACT: note_on channel=4 note=56 velocity=95 time=0
EXTRACT: note_on channel=4 note=52 velocity=95 time=0
EXTRACT: note_on channel=4 note=47 velocity=95 time=0
EXTRACT: note_off channel=12 note=30 velocity=95 time=0
EXTRACT: note_on channel=12 note=33 velocity=95 time=0
EXTRACT: note_on channel=9 note=42 velocity=95 time=0
EXTRACT: note_on channel=9 note=40 velocity=95 time=0
EXTRACT: note_off channel=4 note=56 velocity=95 time=0.031249968750000003
EXTRACT: note_off channel=4 note=52 velocity=95 time=0
EXTRACT: note_off channel=4 note=47 velocity=95 time=0
EXTRACT: note_on channel=0 note=71 velocity=95 time=0.13541653125
EXTRACT: note_on channel=0 note=66 velocity=95 time=0
EXTRACT: note_on channel=0 note=63 velocity=95 time=0
EXTRACT: note_on channel=0 note=59 velocity=95 time=0
EXTRACT: note_on channel=4 note=56 velocity=95 time=0
EXTRACT: note_on channel=4 note=52 velocity=95 time=0
EXTRACT: note_on channel=4 note=47 velocity=95 time=0
EXTRACT: note_off channel=6 note=64 velocity=95 time=0
EXTRACT: note_on channel=6 note=63 velocity=95 time=0
EXTRACT: note_off channel=9 note=42 velocity=95 time=0
EXTRACT: note_off channel=9 note=40 velocity=95 time=0
EXTRACT: note_on channel=9 note=42 velocity=95 time=0
EXTRACT: note_off channel=4 note=56 velocity=95 time=0.031249968750000003
EXTRACT: note_off channel=4 note=52 velocity=95 time=0
EXTRACT: note_off channel=4 note=47 velocity=95 time=0
EXTRACT: note_off channel=0 note=71 velocity=95 time=0.13541653125
EXTRACT: note_off channel=0 note=66 velocity=95 time=0
EXTRACT: note_off channel=0 note=63 velocity=95 time=0
EXTRACT: note_off channel=0 note=59 velocity=95 time=0
EXTRACT: note_on channel=4 note=56 velocity=95 time=0
EXTRACT: note_on channel=4 note=52 velocity=95 time=0
EXTRACT: note_on channel=4 note=47 velocity=95 time=0
EXTRACT: note_off channel=12 note=33 velocity=95 time=0
EXTRACT: note_on channel=12 note=37 velocity=95 time=0
EXTRACT: note_off channel=9 note=42 velocity=95 time=0
EXTRACT: note_on channel=9 note=42 velocity=95 time=0
EXTRACT: note_on channel=9 note=36 velocity=95 time=0
EXTRACT: note_off channel=4 note=56 velocity=95 time=0.031249968750000003
EXTRACT: note_off channel=4 note=52 velocity=95 time=0
EXTRACT: note_off channel=4 note=47 velocity=95 time=0
EXTRACT: note_on channel=0 note=73 velocity=95 time=0.13541653125
EXTRACT: note_on channel=0 note=68 velocity=95 time=0
EXTRACT: note_on channel=0 note=64 velocity=95 time=0
EXTRACT: note_on channel=0 note=61 velocity=95 time=0
EXTRACT: note_on channel=3 note=59 velocity=95 time=0
EXTRACT: note_on channel=4 note=64 velocity=95 time=0
EXTRACT: note_on channel=4 note=61 velocity=95 time=0
EXTRACT: note_on channel=4 note=56 velocity=95 time=0
EXTRACT: note_on channel=4 note=49 velocity=95 time=0
EXTRACT: note_off channel=6 note=63 velocity=95 time=0
EXTRACT: note_on channel=6 note=61 velocity=95 time=0
EXTRACT: note_off channel=9 note=42 velocity=95 time=0
EXTRACT: note_off channel=9 note=36 velocity=95 time=0
EXTRACT: pitchwheel channel=3 pitch=1408 time=0.041666625
EXTRACT: pitchwheel channel=3 pitch=0 time=0
EXTRACT: note_off channel=3 note=59 velocity=95 time=0
EXTRACT: note_on channel=2 note=61 velocity=95 time=0
EXTRACT: note_off channel=0 note=73 velocity=95 time=0.12499987500000001
EXTRACT: note_off channel=0 note=68 velocity=95 time=0
EXTRACT: note_off channel=0 note=64 velocity=95 time=0
EXTRACT: note_off channel=0 note=61 velocity=95 time=0
EXTRACT: note_off channel=4 note=64 velocity=95 time=0
EXTRACT: note_off channel=4 note=61 velocity=95 time=0
EXTRACT: note_off channel=4 note=56 velocity=95 time=0
EXTRACT: note_off channel=4 note=49 velocity=95 time=0
EXTRACT: note_on channel=4 note=64 velocity=95 time=0
EXTRACT: note_on channel=4 note=61 velocity=95 time=0
EXTRACT: note_on channel=4 note=56 velocity=95 time=0
EXTRACT: note_on channel=4 note=49 velocity=95 time=0
EXTRACT: note_off channel=6 note=61 velocity=95 time=0
EXTRACT: note_on channel=6 note=68 velocity=95 time=0
EXTRACT: note_on channel=9 note=42 velocity=95 time=0
EXTRACT: note_on channel=9 note=40 velocity=95 time=0
EXTRACT: note_on channel=0 note=73 velocity=95 time=0.1666665
EXTRACT: note_on channel=0 note=68 velocity=95 time=0
EXTRACT: note_on channel=0 note=64 velocity=95 time=0
EXTRACT: note_on channel=0 note=61 velocity=95 time=0
EXTRACT: note_off channel=2 note=61 velocity=95 time=0
EXTRACT: note_on channel=2 note=56 velocity=95 time=0
EXTRACT: note_off channel=4 note=64 velocity=95 time=0
EXTRACT: note_off channel=4 note=61 velocity=95 time=0
EXTRACT: note_off channel=4 note=56 velocity=95 time=0
EXTRACT: note_off channel=4 note=49 velocity=95 time=0
EXTRACT: note_on channel=4 note=64 velocity=95 time=0
EXTRACT: note_on channel=4 note=61 velocity=95 time=0
EXTRACT: note_on channel=4 note=56 velocity=95 time=0
EXTRACT: note_on channel=4 note=49 velocity=95 time=0
EXTRACT: note_off channel=6 note=68 velocity=95 time=0
EXTRACT: note_on channel=6 note=68 velocity=95 time=0
EXTRACT: note_off channel=12 note=37 velocity=95 time=0
EXTRACT: note_on channel=12 note=37 velocity=95 time=0
EXTRACT: note_off channel=9 note=42 velocity=95 time=0
EXTRACT: note_off channel=9 note=40 velocity=95 time=0
EXTRACT: note_on channel=9 note=42 velocity=95 time=0
EXTRACT: note_off channel=0 note=73 velocity=95 time=0.1666665
EXTRACT: note_off channel=0 note=68 velocity=95 time=0
EXTRACT: note_off channel=0 note=64 velocity=95 time=0
EXTRACT: note_off channel=0 note=61 velocity=95 time=0
EXTRACT: note_off channel=2 note=56 velocity=95 time=0
EXTRACT: note_on channel=2 note=61 velocity=95 time=0
EXTRACT: note_off channel=4 note=64 velocity=95 time=0
EXTRACT: note_off channel=4 note=61 velocity=95 time=0
EXTRACT: note_off channel=4 note=56 velocity=95 time=0
EXTRACT: note_off channel=4 note=49 velocity=95 time=0
EXTRACT: note_on channel=4 note=64 velocity=95 time=0
EXTRACT: note_on channel=4 note=61 velocity=95 time=0
EXTRACT: note_on channel=4 note=56 velocity=95 time=0
EXTRACT: note_on channel=4 note=49 velocity=95 time=0
EXTRACT: note_off channel=12 note=37 velocity=95 time=0
EXTRACT: note_on channel=12 note=32 velocity=95 time=0
EXTRACT: note_off channel=9 note=42 velocity=95 time=0
EXTRACT: note_on channel=9 note=42 velocity=95 time=0
EXTRACT: note_on channel=0 note=73 velocity=95 time=0.1666665
EXTRACT: note_on channel=0 note=68 velocity=95 time=0
EXTRACT: note_on channel=0 note=64 velocity=95 time=0
EXTRACT: note_on channel=0 note=61 velocity=95 time=0
EXTRACT: note_off channel=2 note=61 velocity=95 time=0
EXTRACT: note_on channel=2 note=61 velocity=95 time=0
EXTRACT: note_off channel=4 note=64 velocity=95 time=0
EXTRACT: note_off channel=4 note=61 velocity=95 time=0
EXTRACT: note_off channel=4 note=56 velocity=95 time=0
EXTRACT: note_off channel=4 note=49 velocity=95 time=0
EXTRACT: note_on channel=4 note=64 velocity=95 time=0
EXTRACT: note_on channel=4 note=61 velocity=95 time=0
EXTRACT: note_on channel=4 note=56 velocity=95 time=0
EXTRACT: note_on channel=4 note=49 velocity=95 time=0
EXTRACT: note_off channel=9 note=42 velocity=95 time=0
EXTRACT: note_on channel=9 note=36 velocity=95 time=0
EXTRACT: note_off channel=6 note=68 velocity=95 time=0.1041665625
EXTRACT: note_off channel=0 note=73 velocity=95 time=0.062499937500000005
EXTRACT: note_off channel=0 note=68 velocity=95 time=0
EXTRACT: note_off channel=0 note=64 velocity=95 time=0
EXTRACT: note_off channel=0 note=61 velocity=95 time=0
EXTRACT: note_off channel=2 note=61 velocity=95 time=0
EXTRACT: note_on channel=3 note=61 velocity=95 time=0
EXTRACT: note_off channel=4 note=64 velocity=95 time=0
EXTRACT: note_off channel=4 note=61 velocity=95 time=0
EXTRACT: note_off channel=4 note=56 velocity=95 time=0
EXTRACT: note_off channel=4 note=49 velocity=95 time=0
EXTRACT: note_on channel=4 note=56 velocity=95 time=0
EXTRACT: note_on channel=4 note=52 velocity=95 time=0
EXTRACT: note_on channel=4 note=47 velocity=95 time=0
EXTRACT: note_off channel=12 note=32 velocity=95 time=0
EXTRACT: note_on channel=12 note=35 velocity=95 time=0
EXTRACT: note_on channel=14 note=80 velocity=95 time=0
EXTRACT: note_on channel=14 note=73 velocity=95 time=0
EXTRACT: note_off channel=9 note=36 velocity=95 time=0
EXTRACT: note_on channel=9 note=42 velocity=95 time=0
EXTRACT: note_on channel=9 note=40 velocity=95 time=0
EXTRACT: note_off channel=4 note=56 velocity=95 time=0.031249968750000003
EXTRACT: note_off channel=4 note=52 velocity=95 time=0
EXTRACT: note_off channel=4 note=47 velocity=95 time=0
EXTRACT: pitchwheel channel=3 pitch=0 time=0.02430553125
EXTRACT: pitchwheel channel=3 pitch=128 time=0.0555555
EXTRACT: note_on channel=0 note=73 velocity=95 time=0.0555555
EXTRACT: note_on channel=0 note=68 velocity=95 time=0
EXTRACT: note_on channel=0 note=64 velocity=95 time=0
EXTRACT: note_on channel=0 note=61 velocity=95 time=0
EXTRACT: pitchwheel channel=3 pitch=0 time=0
EXTRACT: note_on channel=4 note=56 velocity=95 time=0
EXTRACT: note_on channel=4 note=52 velocity=95 time=0
EXTRACT: note_on channel=4 note=47 velocity=95 time=0
EXTRACT: note_off channel=12 note=35 velocity=95 time=0
EXTRACT: note_on channel=12 note=35 velocity=95 time=0
EXTRACT: note_off channel=14 note=80 velocity=95 time=0
EXTRACT: note_off channel=14 note=73 velocity=95 time=0
EXTRACT: note_off channel=9 note=42 velocity=95 time=0
EXTRACT: note_off channel=9 note=40 velocity=95 time=0
EXTRACT: note_on channel=9 note=42 velocity=95 time=0
EXTRACT: note_off channel=4 note=56 velocity=95 time=0.031249968750000003
EXTRACT: note_off channel=4 note=52 velocity=95 time=0
EXTRACT: note_off channel=4 note=47 velocity=95 time=0
EXTRACT: pitchwheel channel=3 pitch=128 time=0.02430553125
EXTRACT: pitchwheel channel=3 pitch=0 time=0.0555555
EXTRACT: note_off channel=0 note=73 velocity=95 time=0.0555555
EXTRACT: note_off channel=0 note=68 velocity=95 time=0
EXTRACT: note_off channel=0 note=64 velocity=95 time=0
EXTRACT: note_off channel=0 note=61 velocity=95 time=0
EXTRACT: pitchwheel channel=3 pitch=128 time=0
EXTRACT: note_on channel=4 note=63 velocity=95 time=0
EXTRACT: note_on channel=4 note=59 velocity=95 time=0
EXTRACT: note_on channel=4 note=54 velocity=95 time=0
EXTRACT: note_on channel=4 note=47 velocity=95 time=0
EXTRACT: note_on channel=6 note=63 velocity=95 time=0
EXTRACT: note_off channel=12 note=35 velocity=95 time=0
EXTRACT: note_on channel=12 note=35 velocity=95 time=0
EXTRACT: note_off channel=9 note=42 velocity=95 time=0
EXTRACT: note_on channel=9 note=42 velocity=95 time=0
EXTRACT: note_on channel=9 note=36 velocity=95 time=0
EXTRACT: pitchwheel channel=3 pitch=0 time=0.0555555
EXTRACT: pitchwheel channel=3 pitch=128 time=0.0555555
EXTRACT: note_on channel=0 note=71 velocity=95 time=0.0555555
EXTRACT: note_on channel=0 note=66 velocity=95 time=0
EXTRACT: note_on channel=0 note=63 velocity=95 time=0
EXTRACT: note_on channel=0 note=59 velocity=95 time=0
EXTRACT: pitchwheel channel=3 pitch=0 time=0
EXTRACT: note_off channel=4 note=63 velocity=95 time=0
EXTRACT: note_off channel=4 note=59 velocity=95 time=0
EXTRACT: note_off channel=4 note=54 velocity=95 time=0
EXTRACT: note_off channel=4 note=47 velocity=95 time=0
EXTRACT: note_on channel=4 note=56 velocity=95 time=0
EXTRACT: note_on channel=4 note=52 velocity=95 time=0
EXTRACT: note_on channel=4 note=47 velocity=95 time=0
EXTRACT: note_off channel=6 note=63 velocity=95 time=0
EXTRACT: note_on channel=6 note=63 velocity=95 time=0
EXTRACT: note_off channel=9 note=42 velocity=95 time=0
EXTRACT: note_off channel=9 note=36 velocity=95 time=0
EXTRACT: note_off channel=4 note=56 velocity=95 time=0.031249968750000003
EXTRACT: note_off channel=4 note=52 velocity=95 time=0
EXTRACT: note_off channel=4 note=47 velocity=95 time=0
EXTRACT: pitchwheel channel=3 pitch=128 time=0.02430553125
EXTRACT: pitchwheel channel=3 pitch=0 time=0.0555555
EXTRACT: note_off channel=0 note=71 velocity=95 time=0.0555555
EXTRACT: note_off channel=0 note=66 velocity=95 time=0
EXTRACT: note_off channel=0 note=63 velocity=95 time=0
EXTRACT: note_off channel=0 note=59 velocity=95 time=0
EXTRACT: pitchwheel channel=3 pitch=128 time=0
EXTRACT: pitchwheel channel=3 pitch=0 time=0
EXTRACT: note_off channel=3 note=61 velocity=95 time=0
EXTRACT: note_on channel=4 note=56 velocity=95 time=0
EXTRACT: note_on channel=4 note=52 velocity=95 time=0
EXTRACT: note_on channel=4 note=47 velocity=95 time=0
EXTRACT: note_off channel=6 note=63 velocity=95 time=0
EXTRACT: note_on channel=6 note=63 velocity=95 time=0
EXTRACT: note_off channel=12 note=35 velocity=95 time=0
EXTRACT: note_on channel=9 note=42 velocity=95 time=0
EXTRACT: note_on channel=9 note=40 velocity=95 time=0
EXTRACT: note_off channel=4 note=56 velocity=95 time=0.031249968750000003
EXTRACT: note_off channel=4 note=52 velocity=95 time=0
EXTRACT: note_off channel=4 note=47 velocity=95 time=0
EXTRACT: note_on channel=0 note=71 velocity=95 time=0.13541653125
EXTRACT: note_on channel=0 note=66 velocity=95 time=0
EXTRACT: note_on channel=0 note=63 velocity=95 time=0
EXTRACT: note_on channel=0 note=59 velocity=95 time=0
EXTRACT: note_on channel=4 note=63 velocity=95 time=0
EXTRACT: note_on channel=4 note=59 velocity=95 time=0
EXTRACT: note_on channel=4 note=54 velocity=95 time=0
EXTRACT: note_on channel=4 note=47 velocity=95 time=0
EXTRACT: note_off channel=6 note=63 velocity=95 time=0
EXTRACT: note_on channel=6 note=63 velocity=95 time=0
EXTRACT: note_on channel=12 note=30 velocity=95 time=0
EXTRACT: note_off channel=9 note=42 velocity=95 time=0
EXTRACT: note_off channel=9 note=40 velocity=95 time=0
EXTRACT: note_on channel=9 note=42 velocity=95 time=0
EXTRACT: note_off channel=0 note=71 velocity=95 time=0.1666665
EXTRACT: note_off channel=0 note=66 velocity=95 time=0
EXTRACT: note_off channel=0 note=63 velocity=95 time=0
EXTRACT: note_off channel=0 note=59 velocity=95 time=0
EXTRACT: note_off channel=4 note=63 velocity=95 time=0
EXTRACT: note_off channel=4 note=59 velocity=95 time=0
EXTRACT: note_off channel=4 note=54 velocity=95 time=0
EXTRACT: note_off channel=4 note=47 velocity=95 time=0
EXTRACT: note_on channel=4 note=56 velocity=95 time=0
EXTRACT: note_on channel=4 note=52 velocity=95 time=0
EXTRACT: note_on channel=4 note=47 velocity=95 time=0
EXTRACT: note_off channel=12 note=30 velocity=95 time=0
EXTRACT: note_on channel=12 note=30 velocity=95 time=0
EXTRACT: note_off channel=9 note=42 velocity=95 time=0
EXTRACT: note_on channel=9 note=42 velocity=95 time=0
EXTRACT: note_on channel=9 note=36 velocity=95 time=0
EXTRACT: note_off channel=4 note=56 velocity=95 time=0.031249968750000003
EXTRACT: note_off channel=4 note=52 velocity=95 time=0
EXTRACT: note_off channel=4 note=47 velocity=95 time=0
EXTRACT: note_on channel=0 note=71 velocity=95 time=0.13541653125
EXTRACT: note_on channel=0 note=66 velocity=95 time=0
EXTRACT: note_on channel=0 note=63 velocity=95 time=0
EXTRACT: note_on channel=0 note=59 velocity=95 time=0
EXTRACT: note_on channel=4 note=56 velocity=95 time=0
EXTRACT: note_on channel=4 note=52 velocity=95 time=0
EXTRACT: note_on channel=4 note=47 velocity=95 time=0
EXTRACT: note_off channel=6 note=63 velocity=95 time=0
EXTRACT: note_on channel=6 note=64 velocity=95 time=0
EXTRACT: note_off channel=9 note=42 velocity=95 time=0
EXTRACT: note_off channel=9 note=36 velocity=95 time=0
EXTRACT: note_off channel=4 note=56 velocity=95 time=0.031249968750000003
EXTRACT: note_off channel=4 note=52 velocity=95 time=0
EXTRACT: note_off channel=4 note=47 velocity=95 time=0
EXTRACT: note_off channel=0 note=71 velocity=95 time=0.13541653125
EXTRACT: note_off channel=0 note=66 velocity=95 time=0
EXTRACT: note_off channel=0 note=63 velocity=95 time=0
EXTRACT: note_off channel=0 note=59 velocity=95 time=0
EXTRACT: note_on channel=4 note=56 velocity=95 time=0
EXTRACT: note_on channel=4 note=52 velocity=95 time=0
EXTRACT: note_on channel=4 note=47 velocity=95 time=0
EXTRACT: note_off channel=12 note=30 velocity=95 time=0
EXTRACT: note_on channel=12 note=33 velocity=95 time=0
EXTRACT: note_on channel=9 note=42 velocity=95 time=0
EXTRACT: note_on channel=9 note=40 velocity=95 time=0
EXTRACT: note_off channel=4 note=56 velocity=95 time=0.031249968750000003
EXTRACT: note_off channel=4 note=52 velocity=95 time=0
EXTRACT: note_off channel=4 note=47 velocity=95 time=0
EXTRACT: note_on channel=0 note=71 velocity=95 time=0.13541653125
EXTRACT: note_on channel=0 note=66 velocity=95 time=0
EXTRACT: note_on channel=0 note=63 velocity=95 time=0
EXTRACT: note_on channel=0 note=59 velocity=95 time=0
EXTRACT: note_on channel=4 note=56 velocity=95 time=0
EXTRACT: note_on channel=4 note=52 velocity=95 time=0
EXTRACT: note_on channel=4 note=47 velocity=95 time=0
EXTRACT: note_off channel=6 note=64 velocity=95 time=0
EXTRACT: note_on channel=6 note=63 velocity=95 time=0
EXTRACT: note_off channel=9 note=42 velocity=95 time=0
EXTRACT: note_off channel=9 note=40 velocity=95 time=0
EXTRACT: note_on channel=9 note=42 velocity=95 time=0
EXTRACT: note_off channel=4 note=56 velocity=95 time=0.031249968750000003
EXTRACT: note_off channel=4 note=52 velocity=95 time=0
EXTRACT: note_off channel=4 note=47 velocity=95 time=0
EXTRACT: note_off channel=0 note=71 velocity=95 time=0.13541653125
EXTRACT: note_off channel=0 note=66 velocity=95 time=0
EXTRACT: note_off channel=0 note=63 velocity=95 time=0
EXTRACT: note_off channel=0 note=59 velocity=95 time=0
EXTRACT: note_on channel=4 note=56 velocity=95 time=0
EXTRACT: note_on channel=4 note=52 velocity=95 time=0
EXTRACT: note_on channel=4 note=47 velocity=95 time=0
EXTRACT: note_off channel=12 note=33 velocity=95 time=0
EXTRACT: note_on channel=12 note=37 velocity=95 time=0
EXTRACT: note_off channel=9 note=42 velocity=95 time=0
EXTRACT: note_on channel=9 note=42 velocity=95 time=0
EXTRACT: note_on channel=9 note=36 velocity=95 time=0
EXTRACT: note_off channel=4 note=56 velocity=95 time=0.031249968750000003
EXTRACT: note_off channel=4 note=52 velocity=95 time=0
EXTRACT: note_off channel=4 note=47 velocity=95 time=0
EXTRACT: note_on channel=0 note=73 velocity=95 time=0.13541653125
EXTRACT: note_on channel=0 note=68 velocity=95 time=0
EXTRACT: note_on channel=0 note=64 velocity=95 time=0
EXTRACT: note_on channel=0 note=61 velocity=95 time=0
EXTRACT: note_on channel=2 note=56 velocity=95 time=0
EXTRACT: note_on channel=4 note=64 velocity=95 time=0
EXTRACT: note_on channel=4 note=61 velocity=95 time=0
EXTRACT: note_on channel=4 note=56 velocity=95 time=0
EXTRACT: note_on channel=4 note=49 velocity=95 time=0
EXTRACT: note_off channel=6 note=63 velocity=95 time=0
EXTRACT: note_on channel=6 note=61 velocity=95 time=0
EXTRACT: note_off channel=9 note=42 velocity=95 time=0
EXTRACT: note_off channel=9 note=36 velocity=95 time=0
EXTRACT: note_off channel=0 note=73 velocity=95 time=0.1666665
EXTRACT: note_off channel=0 note=68 velocity=95 time=0
EXTRACT: note_off channel=0 note=64 velocity=95 time=0
EXTRACT: note_off channel=0 note=61 velocity=95 time=0
EXTRACT: note_off channel=2 note=56 velocity=95 time=0
EXTRACT: note_on channel=2 note=61 velocity=95 time=0
EXTRACT: note_off channel=4 note=64 velocity=95 time=0
EXTRACT: note_off channel=4 note=61 velocity=95 time=0
EXTRACT: note_off channel=4 note=56 velocity=95 time=0
EXTRACT: note_off channel=4 note=49 velocity=95 time=0
EXTRACT: note_on channel=4 note=64 velocity=95 time=0
EXTRACT: note_on channel=4 note=61 velocity=95 time=0
EXTRACT: note_on channel=4 note=56 velocity=95 time=0
EXTRACT: note_on channel=4 note=49 velocity=95 time=0
EXTRACT: note_off channel=6 note=61 velocity=95 time=0
EXTRACT: note_on channel=6 note=68 velocity=95 time=0
EXTRACT: note_on channel=9 note=42 velocity=95 time=0
EXTRACT: note_on channel=9 note=40 velocity=95 time=0
EXTRACT: note_on channel=0 note=73 velocity=95 time=0.1666665
EXTRACT: note_on channel=0 note=68 velocity=95 time=0
EXTRACT: note_on channel=0 note=64 velocity=95 time=0
EXTRACT: note_on channel=0 note=61 velocity=95 time=0
EXTRACT: note_off channel=2 note=61 velocity=95 time=0
EXTRACT: note_on channel=2 note=61 velocity=95 time=0
EXTRACT: note_off channel=4 note=64 velocity=95 time=0
EXTRACT: note_off channel=4 note=61 velocity=95 time=0
EXTRACT: note_off channel=4 note=56 velocity=95 time=0
EXTRACT: note_off channel=4 note=49 velocity=95 time=0
EXTRACT: note_on channel=4 note=64 velocity=95 time=0
EXTRACT: note_on channel=4 note=61 velocity=95 time=0
EXTRACT: note_on channel=4 note=56 velocity=95 time=0
EXTRACT: note_on channel=4 note=49 velocity=95 time=0
EXTRACT: note_off channel=6 note=68 velocity=95 time=0
EXTRACT: note_on channel=6 note=68 velocity=95 time=0
EXTRACT: note_off channel=12 note=37 velocity=95 time=0
EXTRACT: note_on channel=12 note=37 velocity=95 time=0
EXTRACT: note_off channel=9 note=42 velocity=95 time=0
EXTRACT: note_off channel=9 note=40 velocity=95 time=0
EXTRACT: note_on channel=9 note=42 velocity=95 time=0
EXTRACT: note_off channel=0 note=73 velocity=95 time=0.1666665
EXTRACT: note_off channel=0 note=68 velocity=95 time=0
EXTRACT: note_off channel=0 note=64 velocity=95 time=0
EXTRACT: note_off channel=0 note=61 velocity=95 time=0
EXTRACT: note_off channel=2 note=61 velocity=95 time=0
EXTRACT: note_on channel=2 note=61 velocity=95 time=0
EXTRACT: note_off channel=4 note=64 velocity=95 time=0
EXTRACT: note_off channel=4 note=61 velocity=95 time=0
EXTRACT: note_off channel=4 note=56 velocity=95 time=0
EXTRACT: note_off channel=4 note=49 velocity=95 time=0
EXTRACT: note_on channel=4 note=64 velocity=95 time=0
EXTRACT: note_on channel=4 note=61 velocity=95 time=0
EXTRACT: note_on channel=4 note=56 velocity=95 time=0
EXTRACT: note_on channel=4 note=49 velocity=95 time=0
EXTRACT: note_off channel=12 note=37 velocity=95 time=0
EXTRACT: note_on channel=12 note=32 velocity=95 time=0
EXTRACT: note_off channel=9 note=42 velocity=95 time=0
EXTRACT: note_on channel=9 note=42 velocity=95 time=0
EXTRACT: note_on channel=0 note=73 velocity=95 time=0.1666665
EXTRACT: note_on channel=0 note=68 velocity=95 time=0
EXTRACT: note_on channel=0 note=64 velocity=95 time=0
EXTRACT: note_on channel=0 note=61 velocity=95 time=0
EXTRACT: note_off channel=2 note=61 velocity=95 time=0
EXTRACT: note_on channel=3 note=61 velocity=95 time=0
EXTRACT: note_off channel=4 note=64 velocity=95 time=0
EXTRACT: note_off channel=4 note=61 velocity=95 time=0
EXTRACT: note_off channel=4 note=56 velocity=95 time=0
EXTRACT: note_off channel=4 note=49 velocity=95 time=0
EXTRACT: note_on channel=4 note=64 velocity=95 time=0
EXTRACT: note_on channel=4 note=61 velocity=95 time=0
EXTRACT: note_on channel=4 note=56 velocity=95 time=0
EXTRACT: note_on channel=4 note=49 velocity=95 time=0
EXTRACT: note_off channel=9 note=42 velocity=95 time=0
EXTRACT: note_on channel=9 note=36 velocity=95 time=0
EXTRACT: pitchwheel channel=3 pitch=0 time=0.0555555
EXTRACT: note_off channel=6 note=68 velocity=95 time=0.0486110625
EXTRACT: pitchwheel channel=3 pitch=128 time=0.0069444375
EXTRACT: note_off channel=0 note=73 velocity=95 time=0.0555555
EXTRACT: note_off channel=0 note=68 velocity=95 time=0
EXTRACT: note_off channel=0 note=64 velocity=95 time=0
EXTRACT: note_off channel=0 note=61 velocity=95 time=0
EXTRACT: pitchwheel channel=3 pitch=0 time=0
EXTRACT: pitchwheel channel=3 pitch=128 time=0
EXTRACT: pitchwheel channel=3 pitch=0 time=0
EXTRACT: note_off channel=3 note=61 velocity=95 time=0
EXTRACT: note_on channel=3 note=61 velocity=95 time=0
EXTRACT: note_off channel=4 note=64 velocity=95 time=0
EXTRACT: note_off channel=4 note=61 velocity=95 time=0
EXTRACT: note_off channel=4 note=56 velocity=95 time=0
EXTRACT: note_off channel=4 note=49 velocity=95 time=0
EXTRACT: note_on channel=4 note=56 velocity=95 time=0
EXTRACT: note_on channel=4 note=52 velocity=95 time=0
EXTRACT: note_on channel=4 note=47 velocity=95 time=0
EXTRACT: note_off channel=12 note=32 velocity=95 time=0
EXTRACT: note_on channel=12 note=35 velocity=95 time=0
EXTRACT: note_on channel=14 note=80 velocity=95 time=0
EXTRACT: note_on channel=14 note=73 velocity=95 time=0
EXTRACT: note_off channel=9 note=36 velocity=95 time=0
EXTRACT: note_on channel=9 note=42 velocity=95 time=0
EXTRACT: note_on channel=9 note=40 velocity=95 time=0
EXTRACT: note_off channel=4 note=56 velocity=95 time=0.031249968750000003
EXTRACT: note_off channel=4 note=52 velocity=95 time=0
EXTRACT: note_off channel=4 note=47 velocity=95 time=0
EXTRACT: pitchwheel channel=3 pitch=0 time=0.02430553125
EXTRACT: pitchwheel channel=3 pitch=128 time=0.0555555
EXTRACT: note_on channel=0 note=73 velocity=95 time=0.0555555
EXTRACT: note_on channel=0 note=68 velocity=95 time=0
EXTRACT: note_on channel=0 note=64 velocity=95 time=0
EXTRACT: note_on channel=0 note=61 velocity=95 time=0
EXTRACT: pitchwheel channel=3 pitch=0 time=0
EXTRACT: pitchwheel channel=3 pitch=128 time=0
EXTRACT: pitchwheel channel=3 pitch=0 time=0
EXTRACT: note_off channel=3 note=61 velocity=95 time=0
EXTRACT: note_on channel=3 note=61 velocity=95 time=0
EXTRACT: note_on channel=4 note=56 velocity=95 time=0
EXTRACT: note_on channel=4 note=52 velocity=95 time=0
EXTRACT: note_on channel=4 note=47 velocity=95 time=0
EXTRACT: note_off channel=12 note=35 velocity=95 time=0
EXTRACT: note_on channel=12 note=35 velocity=95 time=0
EXTRACT: note_off channel=14 note=80 velocity=95 time=0
EXTRACT: note_off channel=14 note=73 velocity=95 time=0
EXTRACT: note_off channel=9 note=42 velocity=95 time=0
EXTRACT: note_off channel=9 note=40 velocity=95 time=0
EXTRACT: note_on channel=9 note=42 velocity=95 time=0
EXTRACT: note_off channel=4 note=56 velocity=95 time=0.031249968750000003
EXTRACT: note_off channel=4 note=52 velocity=95 time=0
EXTRACT: note_off channel=4 note=47 velocity=95 time=0
EXTRACT: pitchwheel channel=3 pitch=0 time=0.02430553125
EXTRACT: pitchwheel channel=3 pitch=128 time=0.0555555
EXTRACT: note_off channel=0 note=73 velocity=95 time=0.0555555
EXTRACT: note_off channel=0 note=68 velocity=95 time=0
EXTRACT: note_off channel=0 note=64 velocity=95 time=0
EXTRACT: note_off channel=0 note=61 velocity=95 time=0
EXTRACT: pitchwheel channel=3 pitch=0 time=0
EXTRACT: note_on channel=4 note=63 velocity=95 time=0
EXTRACT: note_on channel=4 note=59 velocity=95 time=0
EXTRACT: note_on channel=4 note=54 velocity=95 time=0
EXTRACT: note_on channel=4 note=47 velocity=95 time=0
EXTRACT: note_on channel=6 note=63 velocity=95 time=0
EXTRACT: note_off channel=12 note=35 velocity=95 time=0
EXTRACT: note_on channel=12 note=35 velocity=95 time=0
EXTRACT: note_off channel=9 note=42 velocity=95 time=0
EXTRACT: note_on channel=9 note=42 velocity=95 time=0
EXTRACT: note_on channel=9 note=36 velocity=95 time=0
EXTRACT: pitchwheel channel=3 pitch=128 time=0.0555555
EXTRACT: pitchwheel channel=3 pitch=0 time=0.0555555
EXTRACT: note_on channel=0 note=71 velocity=95 time=0.0555555
EXTRACT: note_on channel=0 note=66 velocity=95 time=0
EXTRACT: note_on channel=0 note=63 velocity=95 time=0
EXTRACT: note_on channel=0 note=59 velocity=95 time=0
EXTRACT: pitchwheel channel=3 pitch=128 time=0
EXTRACT: note_off channel=4 note=63 velocity=95 time=0
EXTRACT: note_off channel=4 note=59 velocity=95 time=0
EXTRACT: note_off channel=4 note=54 velocity=95 time=0
EXTRACT: note_off channel=4 note=47 velocity=95 time=0
EXTRACT: note_on channel=4 note=56 velocity=95 time=0
EXTRACT: note_on channel=4 note=52 velocity=95 time=0
EXTRACT: note_on channel=4 note=47 velocity=95 time=0
EXTRACT: note_off channel=6 note=63 velocity=95 time=0
EXTRACT: note_on channel=6 note=63 velocity=95 time=0
EXTRACT: note_off channel=9 note=42 velocity=95 time=0
EXTRACT: note_off channel=9 note=36 velocity=95 time=0
EXTRACT: note_off channel=4 note=56 velocity=95 time=0.031249968750000003
EXTRACT: note_off channel=4 note=52 velocity=95 time=0
EXTRACT: note_off channel=4 note=47 velocity=95 time=0
EXTRACT: pitchwheel channel=3 pitch=0 time=0.02430553125
EXTRACT: pitchwheel channel=3 pitch=128 time=0.0555555
EXTRACT: note_off channel=0 note=71 velocity=95 time=0.0555555
EXTRACT: note_off channel=0 note=66 velocity=95 time=0
EXTRACT: note_off channel=0 note=63 velocity=95 time=0
EXTRACT: note_off channel=0 note=59 velocity=95 time=0
EXTRACT: pitchwheel channel=3 pitch=0 time=0
EXTRACT: pitchwheel channel=3 pitch=128 time=0
EXTRACT: pitchwheel channel=3 pitch=0 time=0
EXTRACT: note_off channel=3 note=61 velocity=95 time=0
EXTRACT: note_on channel=4 note=56 velocity=95 time=0
EXTRACT: note_on channel=4 note=52 velocity=95 time=0
EXTRACT: note_on channel=4 note=47 velocity=95 time=0
EXTRACT: note_off channel=6 note=63 velocity=95 time=0
EXTRACT: note_on channel=6 note=63 velocity=95 time=0
EXTRACT: note_off channel=12 note=35 velocity=95 time=0
EXTRACT: note_on channel=9 note=42 velocity=95 time=0
EXTRACT: note_on channel=9 note=40 velocity=95 time=0
EXTRACT: note_off channel=4 note=56 velocity=95 time=0.031249968750000003
EXTRACT: note_off channel=4 note=52 velocity=95 time=0
EXTRACT: note_off channel=4 note=47 velocity=95 time=0
EXTRACT: note_on channel=0 note=71 velocity=95 time=0.13541653125
EXTRACT: note_on channel=0 note=66 velocity=95 time=0
EXTRACT: note_on channel=0 note=63 velocity=95 time=0
EXTRACT: note_on channel=0 note=59 velocity=95 time=0
EXTRACT: note_on channel=4 note=63 velocity=95 time=0
EXTRACT: note_on channel=4 note=59 velocity=95 time=0
EXTRACT: note_on channel=4 note=54 velocity=95 time=0
EXTRACT: note_on channel=4 note=47 velocity=95 time=0
EXTRACT: note_off channel=6 note=63 velocity=95 time=0
EXTRACT: note_on channel=6 note=63 velocity=95 time=0
EXTRACT: note_on channel=12 note=30 velocity=95 time=0
EXTRACT: note_off channel=9 note=42 velocity=95 time=0
EXTRACT: note_off channel=9 note=40 velocity=95 time=0
EXTRACT: note_on channel=9 note=42 velocity=95 time=0
EXTRACT: note_off channel=0 note=71 velocity=95 time=0.1666665
EXTRACT: note_off channel=0 note=66 velocity=95 time=0
EXTRACT: note_off channel=0 note=63 velocity=95 time=0
EXTRACT: note_off channel=0 note=59 velocity=95 time=0
EXTRACT: note_off channel=4 note=63 velocity=95 time=0
EXTRACT: note_off channel=4 note=59 velocity=95 time=0
EXTRACT: note_off channel=4 note=54 velocity=95 time=0
EXTRACT: note_off channel=4 note=47 velocity=95 time=0
EXTRACT: note_on channel=4 note=56 velocity=95 time=0
EXTRACT: note_on channel=4 note=52 velocity=95 time=0
EXTRACT: note_on channel=4 note=47 velocity=95 time=0
EXTRACT: note_off channel=12 note=30 velocity=95 time=0
EXTRACT: note_on channel=12 note=30 velocity=95 time=0
EXTRACT: note_off channel=9 note=42 velocity=95 time=0
EXTRACT: note_on channel=9 note=42 velocity=95 time=0
EXTRACT: note_on channel=9 note=36 velocity=95 time=0
EXTRACT: note_off channel=4 note=56 velocity=95 time=0.031249968750000003
EXTRACT: note_off channel=4 note=52 velocity=95 time=0
EXTRACT: note_off channel=4 note=47 velocity=95 time=0
EXTRACT: note_on channel=0 note=71 velocity=95 time=0.13541653125
EXTRACT: note_on channel=0 note=66 velocity=95 time=0
EXTRACT: note_on channel=0 note=63 velocity=95 time=0
EXTRACT: note_on channel=0 note=59 velocity=95 time=0
EXTRACT: note_on channel=4 note=56 velocity=95 time=0
EXTRACT: note_on channel=4 note=52 velocity=95 time=0
EXTRACT: note_on channel=4 note=47 velocity=95 time=0
EXTRACT: note_off channel=6 note=63 velocity=95 time=0
EXTRACT: note_on channel=6 note=66 velocity=95 time=0
EXTRACT: note_off channel=9 note=42 velocity=95 time=0
EXTRACT: note_off channel=9 note=36 velocity=95 time=0
EXTRACT: note_off channel=4 note=56 velocity=95 time=0.031249968750000003
EXTRACT: note_off channel=4 note=52 velocity=95 time=0
EXTRACT: note_off channel=4 note=47 velocity=95 time=0
EXTRACT: note_off channel=0 note=71 velocity=95 time=0.13541653125
EXTRACT: note_off channel=0 note=66 velocity=95 time=0
EXTRACT: note_off channel=0 note=63 velocity=95 time=0
EXTRACT: note_off channel=0 note=59 velocity=95 time=0
EXTRACT: note_on channel=4 note=56 velocity=95 time=0
EXTRACT: note_on channel=4 note=52 velocity=95 time=0
EXTRACT: note_on channel=4 note=47 velocity=95 time=0
EXTRACT: note_off channel=12 note=30 velocity=95 time=0
EXTRACT: note_on channel=12 note=33 velocity=95 time=0
EXTRACT: note_on channel=9 note=42 velocity=95 time=0
EXTRACT: note_on channel=9 note=40 velocity=95 time=0
EXTRACT: note_off channel=4 note=56 velocity=95 time=0.031249968750000003
EXTRACT: note_off channel=4 note=52 velocity=95 time=0
EXTRACT: note_off channel=4 note=47 velocity=95 time=0
EXTRACT: note_on channel=0 note=71 velocity=95 time=0.13541653125
EXTRACT: note_on channel=0 note=66 velocity=95 time=0
EXTRACT: note_on channel=0 note=63 velocity=95 time=0
EXTRACT: note_on channel=0 note=59 velocity=95 time=0
EXTRACT: note_on channel=3 note=59 velocity=95 time=0
EXTRACT: note_on channel=4 note=56 velocity=95 time=0
EXTRACT: note_on channel=4 note=52 velocity=95 time=0
EXTRACT: note_on channel=4 note=47 velocity=95 time=0
EXTRACT: note_off channel=6 note=66 velocity=95 time=0
EXTRACT: note_on channel=6 note=66 velocity=95 time=0
EXTRACT: note_off channel=9 note=42 velocity=95 time=0
EXTRACT: note_off channel=9 note=40 velocity=95 time=0
EXTRACT: note_on channel=9 note=42 velocity=95 time=0
EXTRACT: note_off channel=4 note=56 velocity=95 time=0.031249968750000003
EXTRACT: note_off channel=4 note=52 velocity=95 time=0
EXTRACT: note_off channel=4 note=47 velocity=95 time=0
EXTRACT: pitchwheel channel=3 pitch=1408 time=0.01041665625
EXTRACT: pitchwheel channel=3 pitch=0 time=0
EXTRACT: note_off channel=3 note=59 velocity=95 time=0
EXTRACT: note_on channel=2 note=61 velocity=95 time=0
EXTRACT: note_on channel=2 note=61 velocity=95 time=0
EXTRACT: note_off channel=0 note=71 velocity=95 time=0.12499987500000001
EXTRACT: note_off channel=0 note=66 velocity=95 time=0
EXTRACT: note_off channel=0 note=63 velocity=95 time=0
EXTRACT: note_off channel=0 note=59 velocity=95 time=0
EXTRACT: note_on channel=4 note=56 velocity=95 time=0
EXTRACT: note_on channel=4 note=52 velocity=95 time=0
EXTRACT: note_on channel=4 note=47 velocity=95 time=0
EXTRACT: note_off channel=12 note=33 velocity=95 time=0
EXTRACT: note_on channel=12 note=37 velocity=95 time=0
EXTRACT: note_off channel=9 note=42 velocity=95 time=0
EXTRACT: note_on channel=9 note=42 velocity=95 time=0
EXTRACT: note_on channel=9 note=36 velocity=95 time=0
EXTRACT: note_off channel=4 note=56 velocity=95 time=0.031249968750000003
EXTRACT: note_off channel=4 note=52 velocity=95 time=0
EXTRACT: note_off channel=4 note=47 velocity=95 time=0
EXTRACT: note_on channel=0 note=73 velocity=95 time=0.13541653125
EXTRACT: note_on channel=0 note=68 velocity=95 time=0
EXTRACT: note_on channel=0 note=64 velocity=95 time=0
EXTRACT: note_on channel=0 note=61 velocity=95 time=0
EXTRACT: note_off channel=2 note=61 velocity=95 time=0
EXTRACT: note_off channel=2 note=61 velocity=95 time=0
EXTRACT: note_on channel=2 note=61 velocity=95 time=0
EXTRACT: note_on channel=4 note=64 velocity=95 time=0
EXTRACT: note_on channel=4 note=61 velocity=95 time=0
EXTRACT: note_on channel=4 note=56 velocity=95 time=0
EXTRACT: note_on channel=4 note=49 velocity=95 time=0
EXTRACT: note_off channel=6 note=66 velocity=95 time=0
EXTRACT: note_on channel=6 note=64 velocity=95 time=0
EXTRACT: note_off channel=9 note=42 velocity=95 time=0
EXTRACT: note_off channel=9 note=36 velocity=95 time=0
EXTRACT: note_off channel=0 note=73 velocity=95 time=0.1666665
EXTRACT: note_off channel=0 note=68 velocity=95 time=0
EXTRACT: note_off channel=0 note=64 velocity=95 time=0
EXTRACT: note_off channel=0 note=61 velocity=95 time=0
EXTRACT: note_off channel=2 note=61 velocity=95 time=0
EXTRACT: note_on channel=2 note=61 velocity=95 time=0
EXTRACT: note_off channel=4 note=64 velocity=95 time=0
EXTRACT: note_off channel=4 note=61 velocity=95 time=0
EXTRACT: note_off channel=4 note=56 velocity=95 time=0
EXTRACT: note_off channel=4 note=49 velocity=95 time=0
EXTRACT: note_on channel=4 note=64 velocity=95 time=0
EXTRACT: note_on channel=4 note=61 velocity=95 time=0
EXTRACT: note_on channel=4 note=56 velocity=95 time=0
EXTRACT: note_on channel=4 note=49 velocity=95 time=0
EXTRACT: note_on channel=9 note=42 velocity=95 time=0
EXTRACT: note_on channel=9 note=40 velocity=95 time=0
EXTRACT: note_on channel=0 note=73 velocity=95 time=0.1666665
EXTRACT: note_on channel=0 note=68 velocity=95 time=0
EXTRACT: note_on channel=0 note=64 velocity=95 time=0
EXTRACT: note_on channel=0 note=61 velocity=95 time=0
EXTRACT: note_off channel=2 note=61 velocity=95 time=0
EXTRACT: note_on channel=2 note=61 velocity=95 time=0
EXTRACT: note_off channel=4 note=64 velocity=95 time=0
EXTRACT: note_off channel=4 note=61 velocity=95 time=0
EXTRACT: note_off channel=4 note=56 velocity=95 time=0
EXTRACT: note_off channel=4 note=49 velocity=95 time=0
EXTRACT: note_on channel=4 note=64 velocity=95 time=0
EXTRACT: note_on channel=4 note=61 velocity=95 time=0
EXTRACT: note_on channel=4 note=56 velocity=95 time=0
EXTRACT: note_on channel=4 note=49 velocity=95 time=0
EXTRACT: note_off channel=12 note=37 velocity=95 time=0
EXTRACT: note_on channel=12 note=37 velocity=95 time=0
EXTRACT: note_off channel=9 note=42 velocity=95 time=0
EXTRACT: note_off channel=9 note=40 velocity=95 time=0
EXTRACT: note_on channel=9 note=42 velocity=95 time=0
EXTRACT: note_off channel=0 note=73 velocity=95 time=0.1666665
EXTRACT: note_off channel=0 note=68 velocity=95 time=0
EXTRACT: note_off channel=0 note=64 velocity=95 time=0
EXTRACT: note_off channel=0 note=61 velocity=95 time=0
EXTRACT: note_off channel=2 note=61 velocity=95 time=0
EXTRACT: pitchwheel channel=3 pitch=0 time=0
EXTRACT: note_on channel=3 note=64 velocity=95 time=0
EXTRACT: note_off channel=4 note=64 velocity=95 time=0
EXTRACT: note_off channel=4 note=61 velocity=95 time=0
EXTRACT: note_off channel=4 note=56 velocity=95 time=0
EXTRACT: note_off channel=4 note=49 velocity=95 time=0
EXTRACT: note_on channel=4 note=64 velocity=95 time=0
EXTRACT: note_on channel=4 note=61 velocity=95 time=0
EXTRACT: note_on channel=4 note=56 velocity=95 time=0
EXTRACT: note_on channel=4 note=49 velocity=95 time=0
EXTRACT: note_off channel=12 note=37 velocity=95 time=0
EXTRACT: note_on channel=12 note=32 velocity=95 time=0
EXTRACT: note_off channel=9 note=42 velocity=95 time=0
EXTRACT: note_on channel=9 note=42 velocity=95 time=0
EXTRACT: pitchwheel channel=3 pitch=128 time=0.041666625
EXTRACT: pitchwheel channel=3 pitch=256 time=0.041666625
EXTRACT: pitchwheel channel=3 pitch=256 time=0
EXTRACT: note_off channel=6 note=64 velocity=95 time=0
EXTRACT: note_on channel=0 note=73 velocity=95 time=0.08333325
EXTRACT: note_on channel=0 note=68 velocity=95 time=0
EXTRACT: note_on channel=0 note=64 velocity=95 time=0
EXTRACT: note_on channel=0 note=61 velocity=95 time=0
EXTRACT: pitchwheel channel=3 pitch=256 time=0
EXTRACT: pitchwheel channel=3 pitch=0 time=0
EXTRACT: note_off channel=3 note=64 velocity=95 time=0
EXTRACT: note_on channel=2 note=61 velocity=95 time=0
EXTRACT: note_off channel=4 note=64 velocity=95 time=0
EXTRACT: note_off channel=4 note=61 velocity=95 time=0
EXTRACT: note_off channel=4 note=56 velocity=95 time=0
EXTRACT: note_off channel=4 note=49 velocity=95 time=0
EXTRACT: note_on channel=4 note=64 velocity=95 time=0
EXTRACT: note_on channel=4 note=61 velocity=95 time=0
EXTRACT: note_on channel=4 note=56 velocity=95 time=0
EXTRACT: note_on channel=4 note=49 velocity=95 time=0
EXTRACT: note_off channel=9 note=42 velocity=95 time=0
EXTRACT: note_on channel=9 note=36 velocity=95 time=0
EXTRACT: note_off channel=0 note=73 velocity=95 time=0.1666665
EXTRACT: note_off channel=0 note=68 velocity=95 time=0
EXTRACT: note_off channel=0 note=64 velocity=95 time=0
EXTRACT: note_off channel=0 note=61 velocity=95 time=0
EXTRACT: note_off channel=2 note=61 velocity=95 time=0
EXTRACT: note_on channel=3 note=59 velocity=95 time=0
EXTRACT: note_off channel=4 note=64 velocity=95 time=0
EXTRACT: note_off channel=4 note=61 velocity=95 time=0
EXTRACT: note_off channel=4 note=56 velocity=95 time=0
EXTRACT: note_off channel=4 note=49 velocity=95 time=0
EXTRACT: note_on channel=4 note=56 velocity=95 time=0
EXTRACT: note_on channel=4 note=52 velocity=95 time=0
EXTRACT: note_on channel=4 note=47 velocity=95 time=0
EXTRACT: note_off channel=12 note=32 velocity=95 time=0
EXTRACT: note_on channel=12 note=35 velocity=95 time=0
EXTRACT: note_off channel=9 note=36 velocity=95 time=0
EXTRACT: note_on channel=9 note=42 velocity=95 time=0
EXTRACT: note_on channel=9 note=40 velocity=95 time=0
EXTRACT: note_off channel=4 note=56 velocity=95 time=0.031249968750000003
EXTRACT: note_off channel=4 note=52 velocity=95 time=0
EXTRACT: note_off channel=4 note=47 velocity=95 time=0
EXTRACT: pitchwheel channel=3 pitch=1408 time=0.01041665625
EXTRACT: pitchwheel channel=3 pitch=0 time=0
EXTRACT: note_off channel=3 note=59 velocity=95 time=0
EXTRACT: note_on channel=3 note=61 velocity=95 time=0
EXTRACT: pitchwheel channel=3 pitch=0 time=0.0555555
EXTRACT: pitchwheel channel=3 pitch=128 time=0.0555555
EXTRACT: note_on channel=0 note=73 velocity=95 time=0.013888875
EXTRACT: note_on channel=0 note=68 velocity=95 time=0
EXTRACT: note_on channel=0 note=64 velocity=95 time=0
EXTRACT: note_on channel=0 note=61 velocity=95 time=0
EXTRACT: note_on channel=4 note=56 velocity=95 time=0
EXTRACT: note_on channel=4 note=52 velocity=95 time=0
EXTRACT: note_on channel=4 note=47 velocity=95 time=0
EXTRACT: note_off channel=12 note=35 velocity=95 time=0
EXTRACT: note_on channel=12 note=35 velocity=95 time=0
EXTRACT: note_off channel=9 note=42 velocity=95 time=0
EXTRACT: note_off channel=9 note=40 velocity=95 time=0
EXTRACT: note_on channel=9 note=42 velocity=95 time=0
EXTRACT: note_off channel=4 note=56 velocity=95 time=0.031249968750000003
EXTRACT: note_off channel=4 note=52 velocity=95 time=0
EXTRACT: note_off channel=4 note=47 velocity=95 time=0
EXTRACT: pitchwheel channel=3 pitch=0 time=0.01041665625
EXTRACT: pitchwheel channel=3 pitch=128 time=0.0555555
EXTRACT: pitchwheel channel=3 pitch=0 time=0.0555555
EXTRACT: note_off channel=0 note=73 velocity=95 time=0.013888875
EXTRACT: note_off channel=0 note=68 velocity=95 time=0
EXTRACT: note_off channel=0 note=64 velocity=95 time=0
EXTRACT: note_off channel=0 note=61 velocity=95 time=0
EXTRACT: pitchwheel channel=3 pitch=128 time=0
EXTRACT: pitchwheel channel=3 pitch=0 time=0
EXTRACT: note_off channel=3 note=61 velocity=95 time=0
EXTRACT: note_off channel=12 note=35 velocity=95 time=0
EXTRACT: note_on channel=12 note=37 velocity=95 time=0
EXTRACT: note_off channel=9 note=42 velocity=95 time=0
EXTRACT: note_on channel=9 note=42 velocity=95 time=0
EXTRACT: note_on channel=9 note=36 velocity=95 time=0
EXTRACT: note_on channel=0 note=73 velocity=95 time=0.1666665
EXTRACT: note_on channel=0 note=68 velocity=95 time=0
EXTRACT: note_on channel=0 note=64 velocity=95 time=0
EXTRACT: note_on channel=0 note=61 velocity=95 time=0
EXTRACT: note_off channel=9 note=42 velocity=95 time=0
EXTRACT: note_off channel=9 note=36 velocity=95 time=0
EXTRACT: note_off channel=0 note=73 velocity=95 time=0.1666665
EXTRACT: note_off channel=0 note=68 velocity=95 time=0
EXTRACT: note_off channel=0 note=64 velocity=95 time=0
EXTRACT: note_off channel=0 note=61 velocity=95 time=0
EXTRACT: note_on channel=6 note=80 velocity=95 time=0
EXTRACT: note_on channel=6 note=68 velocity=95 time=0
EXTRACT: note_on channel=9 note=42 velocity=95 time=0
EXTRACT: note_on channel=9 note=40 velocity=95 time=0
EXTRACT: note_on channel=0 note=73 velocity=95 time=0.1666665
EXTRACT: note_on channel=0 note=68 velocity=95 time=0
EXTRACT: note_on channel=0 note=64 velocity=95 time=0
EXTRACT: note_on channel=0 note=61 velocity=95 time=0
EXTRACT: note_off channel=6 note=80 velocity=95 time=0
EXTRACT: note_off channel=6 note=68 velocity=95 time=0
EXTRACT: note_off channel=12 note=37 velocity=95 time=0
EXTRACT: note_on channel=12 note=44 velocity=95 time=0
EXTRACT: note_off channel=9 note=42 velocity=95 time=0
EXTRACT: note_off channel=9 note=40 velocity=95 time=0
EXTRACT: note_on channel=9 note=42 velocity=95 time=0
EXTRACT: note_off channel=0 note=73 velocity=95 time=0.1666665
EXTRACT: note_off channel=0 note=68 velocity=95 time=0
EXTRACT: note_off channel=0 note=64 velocity=95 time=0
EXTRACT: note_off channel=0 note=61 velocity=95 time=0
EXTRACT: note_on channel=6 note=80 velocity=95 time=0
EXTRACT: note_on channel=6 note=68 velocity=95 time=0
EXTRACT: note_off channel=12 note=44 velocity=95 time=0
EXTRACT: note_on channel=12 note=44 velocity=95 time=0
EXTRACT: note_off channel=9 note=42 velocity=95 time=0
EXTRACT: note_on channel=9 note=42 velocity=95 time=0
EXTRACT: note_on channel=9 note=36 velocity=95 time=0
EXTRACT: note_on channel=0 note=73 velocity=95 time=0.1666665
EXTRACT: note_on channel=0 note=68 velocity=95 time=0
EXTRACT: note_on channel=0 note=64 velocity=95 time=0
EXTRACT: note_on channel=0 note=61 velocity=95 time=0
EXTRACT: note_off channel=6 note=80 velocity=95 time=0
EXTRACT: note_off channel=6 note=68 velocity=95 time=0
EXTRACT: note_off channel=9 note=42 velocity=95 time=0
EXTRACT: note_off channel=9 note=36 velocity=95 time=0
EXTRACT: note_off channel=0 note=73 velocity=95 time=0.1666665
EXTRACT: note_off channel=0 note=68 velocity=95 time=0
EXTRACT: note_off channel=0 note=64 velocity=95 time=0
EXTRACT: note_off channel=0 note=61 velocity=95 time=0
EXTRACT: note_off channel=12 note=44 velocity=95 time=0
EXTRACT: note_on channel=12 note=42 velocity=95 time=0
EXTRACT: note_on channel=9 note=42 velocity=95 time=0
EXTRACT: note_on channel=9 note=40 velocity=95 time=0
EXTRACT: note_on channel=0 note=73 velocity=95 time=0.1666665
EXTRACT: note_on channel=0 note=68 velocity=95 time=0
EXTRACT: note_on channel=0 note=64 velocity=95 time=0
EXTRACT: note_on channel=0 note=61 velocity=95 time=0
EXTRACT: note_on channel=6 note=64 velocity=95 time=0
EXTRACT: note_on channel=6 note=76 velocity=95 time=0
EXTRACT: note_off channel=12 note=42 velocity=95 time=0
EXTRACT: note_on channel=12 note=44 velocity=70 time=0
EXTRACT: note_off channel=9 note=42 velocity=95 time=0
EXTRACT: note_off channel=9 note=40 velocity=95 time=0
EXTRACT: note_on channel=9 note=42 velocity=95 time=0
EXTRACT: note_off channel=0 note=73 velocity=95 time=0.1666665
EXTRACT: note_off channel=0 note=68 velocity=95 time=0
EXTRACT: note_off channel=0 note=64 velocity=95 time=0
EXTRACT: note_off channel=0 note=61 velocity=95 time=0
EXTRACT: note_off channel=6 note=64 velocity=95 time=0
EXTRACT: note_off channel=6 note=76 velocity=95 time=0
EXTRACT: note_on channel=6 note=78 velocity=95 time=0
EXTRACT: note_on channel=6 note=66 velocity=95 time=0
EXTRACT: note_off channel=12 note=44 velocity=70 time=0
EXTRACT: note_on channel=12 note=37 velocity=95 time=0
EXTRACT: note_off channel=9 note=42 velocity=95 time=0
EXTRACT: note_on channel=9 note=42 velocity=95 time=0
EXTRACT: note_on channel=9 note=36 velocity=95 time=0
EXTRACT: note_on channel=0 note=73 velocity=95 time=0.1666665
EXTRACT: note_on channel=0 note=68 velocity=95 time=0
EXTRACT: note_on channel=0 note=64 velocity=95 time=0
EXTRACT: note_on channel=0 note=61 velocity=95 time=0
EXTRACT: note_off channel=6 note=78 velocity=95 time=0
EXTRACT: note_off channel=6 note=66 velocity=95 time=0
EXTRACT: note_on channel=6 note=81 velocity=95 time=0
EXTRACT: note_on channel=6 note=69 velocity=95 time=0
EXTRACT: note_off channel=9 note=42 velocity=95 time=0
EXTRACT: note_off channel=9 note=36 velocity=95 time=0
EXTRACT: note_off channel=0 note=73 velocity=95 time=0.1666665
EXTRACT: note_off channel=0 note=68 velocity=95 time=0
EXTRACT: note_off channel=0 note=64 velocity=95 time=0
EXTRACT: note_off channel=0 note=61 velocity=95 time=0
EXTRACT: note_off channel=6 note=81 velocity=95 time=0
EXTRACT: note_off channel=6 note=69 velocity=95 time=0
EXTRACT: note_on channel=9 note=42 velocity=95 time=0
EXTRACT: note_on channel=9 note=40 velocity=95 time=0
EXTRACT: note_on channel=0 note=73 velocity=95 time=0.1666665
EXTRACT: note_on channel=0 note=68 velocity=95 time=0
EXTRACT: note_on channel=0 note=64 velocity=95 time=0
EXTRACT: note_on channel=0 note=61 velocity=95 time=0
EXTRACT: note_on channel=6 note=81 velocity=95 time=0
EXTRACT: note_on channel=6 note=69 velocity=95 time=0
EXTRACT: note_off channel=12 note=37 velocity=95 time=0
EXTRACT: note_on channel=12 note=44 velocity=95 time=0
EXTRACT: note_off channel=9 note=42 velocity=95 time=0
EXTRACT: note_off channel=9 note=40 velocity=95 time=0
EXTRACT: note_on channel=9 note=42 velocity=95 time=0
EXTRACT: note_off channel=0 note=73 velocity=95 time=0.1666665
EXTRACT: note_off channel=0 note=68 velocity=95 time=0
EXTRACT: note_off channel=0 note=64 velocity=95 time=0
EXTRACT: note_off channel=0 note=61 velocity=95 time=0
EXTRACT: note_off channel=6 note=81 velocity=95 time=0
EXTRACT: note_off channel=6 note=69 velocity=95 time=0
EXTRACT: note_off channel=12 note=44 velocity=95 time=0
EXTRACT: note_on channel=12 note=44 velocity=95 time=0
EXTRACT: note_off channel=9 note=42 velocity=95 time=0
EXTRACT: note_on channel=9 note=42 velocity=95 time=0
EXTRACT: note_on channel=0 note=73 velocity=95 time=0.1666665
EXTRACT: note_on channel=0 note=68 velocity=95 time=0
EXTRACT: note_on channel=0 note=64 velocity=95 time=0
EXTRACT: note_on channel=0 note=61 velocity=95 time=0
EXTRACT: note_on channel=6 note=80 velocity=95 time=0
EXTRACT: note_on channel=6 note=68 velocity=95 time=0
EXTRACT: note_off channel=9 note=42 velocity=95 time=0
EXTRACT: note_on channel=9 note=36 velocity=95 time=0
EXTRACT: note_off channel=0 note=73 velocity=95 time=0.1666665
EXTRACT: note_off channel=0 note=68 velocity=95 time=0
EXTRACT: note_off channel=0 note=64 velocity=95 time=0
EXTRACT: note_off channel=0 note=61 velocity=95 time=0
EXTRACT: note_off channel=12 note=44 velocity=95 time=0
EXTRACT: note_on channel=12 note=42 velocity=95 time=0
EXTRACT: note_off channel=9 note=36 velocity=95 time=0
EXTRACT: note_on channel=9 note=42 velocity=95 time=0
EXTRACT: note_on channel=9 note=40 velocity=95 time=0
EXTRACT: note_on channel=0 note=73 velocity=95 time=0.1666665
EXTRACT: note_on channel=0 note=68 velocity=95 time=0
EXTRACT: note_on channel=0 note=64 velocity=95 time=0
EXTRACT: note_on channel=0 note=61 velocity=95 time=0
EXTRACT: note_off channel=6 note=80 velocity=95 time=0
EXTRACT: note_off channel=6 note=68 velocity=95 time=0
EXTRACT: note_off channel=12 note=42 velocity=95 time=0
EXTRACT: note_on channel=12 note=44 velocity=70 time=0
EXTRACT: note_off channel=9 note=42 velocity=95 time=0
EXTRACT: note_off channel=9 note=40 velocity=95 time=0
EXTRACT: note_on channel=9 note=42 velocity=95 time=0
EXTRACT: note_off channel=0 note=73 velocity=95 time=0.1666665
EXTRACT: note_off channel=0 note=68 velocity=95 time=0
EXTRACT: note_off channel=0 note=64 velocity=95 time=0
EXTRACT: note_off channel=0 note=61 velocity=95 time=0
EXTRACT: note_off channel=12 note=44 velocity=70 time=0
EXTRACT: note_on channel=12 note=37 velocity=95 time=0
EXTRACT: note_off channel=9 note=42 velocity=95 time=0
EXTRACT: note_on channel=9 note=42 velocity=95 time=0
EXTRACT: note_on channel=9 note=36 velocity=95 time=0
EXTRACT: note_on channel=0 note=73 velocity=95 time=0.1666665
EXTRACT: note_on channel=0 note=68 velocity=95 time=0
EXTRACT: note_on channel=0 note=64 velocity=95 time=0
EXTRACT: note_on channel=0 note=61 velocity=95 time=0
EXTRACT: note_off channel=9 note=42 velocity=95 time=0
EXTRACT: note_off channel=9 note=36 velocity=95 time=0
EXTRACT: note_off channel=0 note=73 velocity=95 time=0.1666665
EXTRACT: note_off channel=0 note=68 velocity=95 time=0
EXTRACT: note_off channel=0 note=64 velocity=95 time=0
EXTRACT: note_off channel=0 note=61 velocity=95 time=0
EXTRACT: note_on channel=6 note=80 velocity=95 time=0
EXTRACT: note_on channel=6 note=68 velocity=95 time=0
EXTRACT: note_on channel=9 note=42 velocity=95 time=0
EXTRACT: note_on channel=9 note=40 velocity=95 time=0
EXTRACT: note_on channel=0 note=73 velocity=95 time=0.1666665
EXTRACT: note_on channel=0 note=68 velocity=95 time=0
EXTRACT: note_on channel=0 note=64 velocity=95 time=0
EXTRACT: note_on channel=0 note=61 velocity=95 time=0
EXTRACT: note_off channel=6 note=80 velocity=95 time=0
EXTRACT: note_off channel=6 note=68 velocity=95 time=0
EXTRACT: note_off channel=12 note=37 velocity=95 time=0
EXTRACT: note_on channel=12 note=44 velocity=95 time=0
EXTRACT: note_off channel=9 note=42 velocity=95 time=0
EXTRACT: note_off channel=9 note=40 velocity=95 time=0
EXTRACT: note_on channel=9 note=42 velocity=95 time=0
EXTRACT: note_off channel=0 note=73 velocity=95 time=0.1666665
EXTRACT: note_off channel=0 note=68 velocity=95 time=0
EXTRACT: note_off channel=0 note=64 velocity=95 time=0
EXTRACT: note_off channel=0 note=61 velocity=95 time=0
EXTRACT: note_on channel=6 note=80 velocity=95 time=0
EXTRACT: note_on channel=6 note=68 velocity=95 time=0
EXTRACT: note_off channel=12 note=44 velocity=95 time=0
EXTRACT: note_on channel=12 note=44 velocity=95 time=0
EXTRACT: note_off channel=9 note=42 velocity=95 time=0
EXTRACT: note_on channel=9 note=42 velocity=95 time=0
EXTRACT: note_on channel=9 note=36 velocity=95 time=0
EXTRACT: note_on channel=0 note=73 velocity=95 time=0.1666665
EXTRACT: note_on channel=0 note=68 velocity=95 time=0
EXTRACT: note_on channel=0 note=64 velocity=95 time=0
EXTRACT: note_on channel=0 note=61 velocity=95 time=0
EXTRACT: note_off channel=6 note=80 velocity=95 time=0
EXTRACT: note_off channel=6 note=68 velocity=95 time=0
EXTRACT: note_off channel=9 note=42 velocity=95 time=0
EXTRACT: note_off channel=9 note=36 velocity=95 time=0
EXTRACT: note_off channel=0 note=73 velocity=95 time=0.1666665
EXTRACT: note_off channel=0 note=68 velocity=95 time=0
EXTRACT: note_off channel=0 note=64 velocity=95 time=0
EXTRACT: note_off channel=0 note=61 velocity=95 time=0
EXTRACT: note_off channel=12 note=44 velocity=95 time=0
EXTRACT: note_on channel=12 note=42 velocity=95 time=0
EXTRACT: note_on channel=9 note=42 velocity=95 time=0
EXTRACT: note_on channel=9 note=40 velocity=95 time=0
EXTRACT: note_on channel=0 note=73 velocity=95 time=0.1666665
EXTRACT: note_on channel=0 note=68 velocity=95 time=0
EXTRACT: note_on channel=0 note=64 velocity=95 time=0
EXTRACT: note_on channel=0 note=61 velocity=95 time=0
EXTRACT: note_on channel=6 note=75 velocity=95 time=0
EXTRACT: note_on channel=6 note=63 velocity=95 time=0
EXTRACT: note_off channel=12 note=42 velocity=95 time=0
EXTRACT: note_on channel=12 note=44 velocity=70 time=0
EXTRACT: note_off channel=9 note=42 velocity=95 time=0
EXTRACT: note_off channel=9 note=40 velocity=95 time=0
EXTRACT: note_on channel=9 note=42 velocity=95 time=0
EXTRACT: note_off channel=0 note=73 velocity=95 time=0.1666665
EXTRACT: note_off channel=0 note=68 velocity=95 time=0
EXTRACT: note_off channel=0 note=64 velocity=95 time=0
EXTRACT: note_off channel=0 note=61 velocity=95 time=0
EXTRACT: note_off channel=6 note=75 velocity=95 time=0
EXTRACT: note_off channel=6 note=63 velocity=95 time=0
EXTRACT: note_on channel=6 note=75 velocity=95 time=0
EXTRACT: note_on channel=6 note=63 velocity=95 time=0
EXTRACT: note_off channel=12 note=44 velocity=70 time=0
EXTRACT: note_on channel=12 note=37 velocity=95 time=0
EXTRACT: note_off channel=9 note=42 velocity=95 time=0
EXTRACT: note_on channel=9 note=42 velocity=95 time=0
EXTRACT: note_on channel=9 note=36 velocity=95 time=0
EXTRACT: note_on channel=0 note=73 velocity=95 time=0.1666665
EXTRACT: note_on channel=0 note=68 velocity=95 time=0
EXTRACT: note_on channel=0 note=64 velocity=95 time=0
EXTRACT: note_on channel=0 note=61 velocity=95 time=0
EXTRACT: note_off channel=6 note=75 velocity=95 time=0
EXTRACT: note_off channel=6 note=63 velocity=95 time=0
EXTRACT: note_on channel=6 note=78 velocity=95 time=0
EXTRACT: note_on channel=6 note=66 velocity=95 time=0
EXTRACT: note_off channel=9 note=42 velocity=95 time=0
EXTRACT: note_off channel=9 note=36 velocity=95 time=0
EXTRACT: note_off channel=0 note=73 velocity=95 time=0.1666665
EXTRACT: note_off channel=0 note=68 velocity=95 time=0
EXTRACT: note_off channel=0 note=64 velocity=95 time=0
EXTRACT: note_off channel=0 note=61 velocity=95 time=0
EXTRACT: note_off channel=6 note=78 velocity=95 time=0
EXTRACT: note_off channel=6 note=66 velocity=95 time=0
EXTRACT: note_on channel=9 note=42 velocity=95 time=0
EXTRACT: note_on channel=9 note=40 velocity=95 time=0
EXTRACT: note_on channel=0 note=73 velocity=95 time=0.1666665
EXTRACT: note_on channel=0 note=68 velocity=95 time=0
EXTRACT: note_on channel=0 note=64 velocity=95 time=0
EXTRACT: note_on channel=0 note=61 velocity=95 time=0
EXTRACT: note_on channel=6 note=78 velocity=95 time=0
EXTRACT: note_on channel=6 note=66 velocity=95 time=0
EXTRACT: note_off channel=12 note=37 velocity=95 time=0
EXTRACT: note_on channel=12 note=44 velocity=95 time=0
EXTRACT: note_off channel=9 note=42 velocity=95 time=0
EXTRACT: note_off channel=9 note=40 velocity=95 time=0
EXTRACT: note_on channel=9 note=42 velocity=95 time=0
EXTRACT: note_off channel=0 note=73 velocity=95 time=0.1666665
EXTRACT: note_off channel=0 note=68 velocity=95 time=0
EXTRACT: note_off channel=0 note=64 velocity=95 time=0
EXTRACT: note_off channel=0 note=61 velocity=95 time=0
EXTRACT: note_off channel=6 note=78 velocity=95 time=0
EXTRACT: note_off channel=6 note=66 velocity=95 time=0
EXTRACT: note_off channel=12 note=44 velocity=95 time=0
EXTRACT: note_on channel=12 note=44 velocity=95 time=0
EXTRACT: note_off channel=9 note=42 velocity=95 time=0
EXTRACT: note_on channel=9 note=42 velocity=95 time=0
EXTRACT: note_on channel=0 note=73 velocity=95 time=0.1666665
EXTRACT: note_on channel=0 note=68 velocity=95 time=0
EXTRACT: note_on channel=0 note=64 velocity=95 time=0
EXTRACT: note_on channel=0 note=61 velocity=95 time=0
EXTRACT: note_on channel=6 note=76 velocity=95 time=0
EXTRACT: note_on channel=6 note=64 velocity=95 time=0
EXTRACT: note_off channel=9 note=42 velocity=95 time=0
EXTRACT: note_on channel=9 note=36 velocity=95 time=0
EXTRACT: note_off channel=0 note=73 velocity=95 time=0.1666665
EXTRACT: note_off channel=0 note=68 velocity=95 time=0
EXTRACT: note_off channel=0 note=64 velocity=95 time=0
EXTRACT: note_off channel=0 note=61 velocity=95 time=0
EXTRACT: note_off channel=12 note=44 velocity=95 time=0
EXTRACT: note_on channel=12 note=42 velocity=95 time=0
EXTRACT: note_off channel=9 note=36 velocity=95 time=0
EXTRACT: note_on channel=9 note=42 velocity=95 time=0
EXTRACT: note_on channel=9 note=40 velocity=95 time=0
EXTRACT: note_off channel=6 note=76 velocity=95 time=0.1041665625
EXTRACT: note_off channel=6 note=64 velocity=95 time=0
EXTRACT: note_on channel=0 note=73 velocity=95 time=0.062499937500000005
EXTRACT: note_on channel=0 note=68 velocity=95 time=0
EXTRACT: note_on channel=0 note=64 velocity=95 time=0
EXTRACT: note_on channel=0 note=61 velocity=95 time=0
EXTRACT: note_off channel=12 note=42 velocity=95 time=0
EXTRACT: note_on channel=12 note=44 velocity=70 time=0
EXTRACT: note_off channel=9 note=42 velocity=95 time=0
EXTRACT: note_off channel=9 note=40 velocity=95 time=0
EXTRACT: note_on channel=9 note=42 velocity=95 time=0
EXTRACT: note_off channel=0 note=73 velocity=95 time=0.1666665
EXTRACT: note_off channel=0 note=68 velocity=95 time=0
EXTRACT: note_off channel=0 note=64 velocity=95 time=0
EXTRACT: note_off channel=0 note=61 velocity=95 time=0
EXTRACT: note_off channel=12 note=44 velocity=70 time=0
EXTRACT: note_on channel=12 note=37 velocity=95 time=0
EXTRACT: note_off channel=9 note=42 velocity=95 time=0
EXTRACT: note_on channel=9 note=42 velocity=95 time=0
EXTRACT: note_on channel=9 note=36 velocity=95 time=0
EXTRACT: note_on channel=0 note=73 velocity=95 time=0.1666665
EXTRACT: note_on channel=0 note=68 velocity=95 time=0
EXTRACT: note_on channel=0 note=64 velocity=95 time=0
EXTRACT: note_on channel=0 note=61 velocity=95 time=0
EXTRACT: note_off channel=9 note=42 velocity=95 time=0
EXTRACT: note_off channel=9 note=36 velocity=95 time=0
EXTRACT: note_off channel=0 note=73 velocity=95 time=0.1666665
EXTRACT: note_off channel=0 note=68 velocity=95 time=0
EXTRACT: note_off channel=0 note=64 velocity=95 time=0
EXTRACT: note_off channel=0 note=61 velocity=95 time=0
EXTRACT: note_on channel=6 note=80 velocity=95 time=0
EXTRACT: note_on channel=6 note=68 velocity=95 time=0
EXTRACT: note_on channel=9 note=42 velocity=95 time=0
EXTRACT: note_on channel=9 note=40 velocity=95 time=0
EXTRACT: note_on channel=0 note=73 velocity=95 time=0.1666665
EXTRACT: note_on channel=0 note=68 velocity=95 time=0
EXTRACT: note_on channel=0 note=64 velocity=95 time=0
EXTRACT: note_on channel=0 note=61 velocity=95 time=0
EXTRACT: note_off channel=6 note=80 velocity=95 time=0
EXTRACT: note_off channel=6 note=68 velocity=95 time=0
EXTRACT: note_off channel=12 note=37 velocity=95 time=0
EXTRACT: note_on channel=12 note=44 velocity=95 time=0
EXTRACT: note_off channel=9 note=42 velocity=95 time=0
EXTRACT: note_off channel=9 note=40 velocity=95 time=0
EXTRACT: note_on channel=9 note=42 velocity=95 time=0
EXTRACT: note_off channel=0 note=73 velocity=95 time=0.1666665
EXTRACT: note_off channel=0 note=68 velocity=95 time=0
EXTRACT: note_off channel=0 note=64 velocity=95 time=0
EXTRACT: note_off channel=0 note=61 velocity=95 time=0
EXTRACT: note_on channel=6 note=80 velocity=95 time=0
EXTRACT: note_on channel=6 note=68 velocity=95 time=0
EXTRACT: note_off channel=12 note=44 velocity=95 time=0
EXTRACT: note_on channel=12 note=44 velocity=95 time=0
EXTRACT: note_off channel=9 note=42 velocity=95 time=0
EXTRACT: note_on channel=9 note=42 velocity=95 time=0
EXTRACT: note_on channel=9 note=36 velocity=95 time=0
EXTRACT: note_on channel=0 note=73 velocity=95 time=0.1666665
EXTRACT: note_on channel=0 note=68 velocity=95 time=0
EXTRACT: note_on channel=0 note=64 velocity=95 time=0
EXTRACT: note_on channel=0 note=61 velocity=95 time=0
EXTRACT: note_off channel=6 note=80 velocity=95 time=0
EXTRACT: note_off channel=6 note=68 velocity=95 time=0
EXTRACT: note_off channel=9 note=42 velocity=95 time=0
EXTRACT: note_off channel=9 note=36 velocity=95 time=0
EXTRACT: note_off channel=0 note=73 velocity=95 time=0.1666665
EXTRACT: note_off channel=0 note=68 velocity=95 time=0
EXTRACT: note_off channel=0 note=64 velocity=95 time=0
EXTRACT: note_off channel=0 note=61 velocity=95 time=0
EXTRACT: note_off channel=12 note=44 velocity=95 time=0
EXTRACT: note_on channel=12 note=42 velocity=95 time=0
EXTRACT: note_on channel=9 note=42 velocity=95 time=0
EXTRACT: note_on channel=9 note=40 velocity=95 time=0
EXTRACT: note_on channel=0 note=73 velocity=95 time=0.1666665
EXTRACT: note_on channel=0 note=68 velocity=95 time=0
EXTRACT: note_on channel=0 note=64 velocity=95 time=0
EXTRACT: note_on channel=0 note=61 velocity=95 time=0
EXTRACT: note_on channel=6 note=64 velocity=95 time=0
EXTRACT: note_on channel=6 note=76 velocity=95 time=0
EXTRACT: note_off channel=12 note=42 velocity=95 time=0
EXTRACT: note_on channel=12 note=44 velocity=70 time=0
EXTRACT: note_off channel=9 note=42 velocity=95 time=0
EXTRACT: note_off channel=9 note=40 velocity=95 time=0
EXTRACT: note_on channel=9 note=42 velocity=95 time=0
EXTRACT: note_off channel=0 note=73 velocity=95 time=0.1666665
EXTRACT: note_off channel=0 note=68 velocity=95 time=0
EXTRACT: note_off channel=0 note=64 velocity=95 time=0
EXTRACT: note_off channel=0 note=61 velocity=95 time=0
EXTRACT: note_off channel=6 note=64 velocity=95 time=0
EXTRACT: note_off channel=6 note=76 velocity=95 time=0
EXTRACT: note_on channel=6 note=78 velocity=95 time=0
EXTRACT: note_on channel=6 note=66 velocity=95 time=0
EXTRACT: note_off channel=12 note=44 velocity=70 time=0
EXTRACT: note_on channel=12 note=37 velocity=95 time=0
EXTRACT: note_off channel=9 note=42 velocity=95 time=0
EXTRACT: note_on channel=9 note=42 velocity=95 time=0
EXTRACT: note_on channel=9 note=36 velocity=95 time=0
EXTRACT: note_on channel=0 note=73 velocity=95 time=0.1666665
EXTRACT: note_on channel=0 note=68 velocity=95 time=0
EXTRACT: note_on channel=0 note=64 velocity=95 time=0
EXTRACT: note_on channel=0 note=61 velocity=95 time=0
EXTRACT: note_off channel=6 note=78 velocity=95 time=0
EXTRACT: note_off channel=6 note=66 velocity=95 time=0
EXTRACT: note_on channel=6 note=81 velocity=95 time=0
EXTRACT: note_on channel=6 note=69 velocity=95 time=0
EXTRACT: note_off channel=9 note=42 velocity=95 time=0
EXTRACT: note_off channel=9 note=36 velocity=95 time=0
EXTRACT: note_off channel=0 note=73 velocity=95 time=0.1666665
EXTRACT: note_off channel=0 note=68 velocity=95 time=0
EXTRACT: note_off channel=0 note=64 velocity=95 time=0
EXTRACT: note_off channel=0 note=61 velocity=95 time=0
EXTRACT: note_off channel=6 note=81 velocity=95 time=0
EXTRACT: note_off channel=6 note=69 velocity=95 time=0
EXTRACT: note_on channel=9 note=42 velocity=95 time=0
EXTRACT: note_on channel=9 note=40 velocity=95 time=0
EXTRACT: note_on channel=0 note=73 velocity=95 time=0.1666665
EXTRACT: note_on channel=0 note=68 velocity=95 time=0
EXTRACT: note_on channel=0 note=64 velocity=95 time=0
EXTRACT: note_on channel=0 note=61 velocity=95 time=0
EXTRACT: note_on channel=6 note=81 velocity=95 time=0
EXTRACT: note_on channel=6 note=69 velocity=95 time=0
EXTRACT: note_off channel=12 note=37 velocity=95 time=0
EXTRACT: note_on channel=12 note=44 velocity=95 time=0
EXTRACT: note_off channel=9 note=42 velocity=95 time=0
EXTRACT: note_off channel=9 note=40 velocity=95 time=0
EXTRACT: note_on channel=9 note=42 velocity=95 time=0
EXTRACT: note_off channel=0 note=73 velocity=95 time=0.1666665
EXTRACT: note_off channel=0 note=68 velocity=95 time=0
EXTRACT: note_off channel=0 note=64 velocity=95 time=0
EXTRACT: note_off channel=0 note=61 velocity=95 time=0
EXTRACT: note_off channel=6 note=81 velocity=95 time=0
EXTRACT: note_off channel=6 note=69 velocity=95 time=0
EXTRACT: note_off channel=12 note=44 velocity=95 time=0
EXTRACT: note_on channel=12 note=44 velocity=95 time=0
EXTRACT: note_off channel=9 note=42 velocity=95 time=0
EXTRACT: note_on channel=9 note=42 velocity=95 time=0
EXTRACT: note_on channel=0 note=73 velocity=95 time=0.1666665
EXTRACT: note_on channel=0 note=68 velocity=95 time=0
EXTRACT: note_on channel=0 note=64 velocity=95 time=0
EXTRACT: note_on channel=0 note=61 velocity=95 time=0
EXTRACT: note_on channel=6 note=80 velocity=95 time=0
EXTRACT: note_on channel=6 note=68 velocity=95 time=0
EXTRACT: note_off channel=9 note=42 velocity=95 time=0
EXTRACT: note_on channel=9 note=36 velocity=95 time=0
EXTRACT: note_off channel=0 note=73 velocity=95 time=0.1666665
EXTRACT: note_off channel=0 note=68 velocity=95 time=0
EXTRACT: note_off channel=0 note=64 velocity=95 time=0
EXTRACT: note_off channel=0 note=61 velocity=95 time=0
EXTRACT: note_off channel=12 note=44 velocity=95 time=0
EXTRACT: note_on channel=12 note=42 velocity=95 time=0
EXTRACT: note_off channel=9 note=36 velocity=95 time=0
EXTRACT: note_on channel=9 note=42 velocity=95 time=0
EXTRACT: note_on channel=9 note=40 velocity=95 time=0
EXTRACT: note_on channel=0 note=73 velocity=95 time=0.1666665
EXTRACT: note_on channel=0 note=68 velocity=95 time=0
EXTRACT: note_on channel=0 note=64 velocity=95 time=0
EXTRACT: note_on channel=0 note=61 velocity=95 time=0
EXTRACT: note_off channel=6 note=80 velocity=95 time=0
EXTRACT: note_off channel=6 note=68 velocity=95 time=0
EXTRACT: note_off channel=12 note=42 velocity=95 time=0
EXTRACT: note_on channel=12 note=44 velocity=70 time=0
EXTRACT: note_off channel=9 note=42 velocity=95 time=0
EXTRACT: note_off channel=9 note=40 velocity=95 time=0
EXTRACT: note_on channel=9 note=42 velocity=95 time=0
EXTRACT: note_off channel=0 note=73 velocity=95 time=0.1666665
EXTRACT: note_off channel=0 note=68 velocity=95 time=0
EXTRACT: note_off channel=0 note=64 velocity=95 time=0
EXTRACT: note_off channel=0 note=61 velocity=95 time=0
EXTRACT: note_off channel=12 note=44 velocity=70 time=0
EXTRACT: note_on channel=12 note=37 velocity=95 time=0
EXTRACT: note_off channel=9 note=42 velocity=95 time=0
EXTRACT: note_on channel=9 note=42 velocity=95 time=0
EXTRACT: note_on channel=9 note=36 velocity=95 time=0
EXTRACT: note_on channel=0 note=73 velocity=95 time=0.1666665
EXTRACT: note_on channel=0 note=68 velocity=95 time=0
EXTRACT: note_on channel=0 note=64 velocity=95 time=0
EXTRACT: note_on channel=0 note=61 velocity=95 time=0
EXTRACT: note_off channel=9 note=42 velocity=95 time=0
EXTRACT: note_off channel=9 note=36 velocity=95 time=0
EXTRACT: note_off channel=0 note=73 velocity=95 time=0.1666665
EXTRACT: note_off channel=0 note=68 velocity=95 time=0
EXTRACT: note_off channel=0 note=64 velocity=95 time=0
EXTRACT: note_off channel=0 note=61 velocity=95 time=0
EXTRACT: note_on channel=6 note=80 velocity=95 time=0
EXTRACT: note_on channel=6 note=68 velocity=95 time=0
EXTRACT: note_on channel=9 note=42 velocity=95 time=0
EXTRACT: note_on channel=9 note=40 velocity=95 time=0
EXTRACT: note_on channel=0 note=73 velocity=95 time=0.1666665
EXTRACT: note_on channel=0 note=68 velocity=95 time=0
EXTRACT: note_on channel=0 note=64 velocity=95 time=0
EXTRACT: note_on channel=0 note=61 velocity=95 time=0
EXTRACT: note_off channel=6 note=80 velocity=95 time=0
EXTRACT: note_off channel=6 note=68 velocity=95 time=0
EXTRACT: note_off channel=12 note=37 velocity=95 time=0
EXTRACT: note_on channel=12 note=44 velocity=95 time=0
EXTRACT: note_off channel=9 note=42 velocity=95 time=0
EXTRACT: note_off channel=9 note=40 velocity=95 time=0
EXTRACT: note_on channel=9 note=42 velocity=95 time=0
EXTRACT: note_off channel=0 note=73 velocity=95 time=0.1666665
EXTRACT: note_off channel=0 note=68 velocity=95 time=0
EXTRACT: note_off channel=0 note=64 velocity=95 time=0
EXTRACT: note_off channel=0 note=61 velocity=95 time=0
EXTRACT: note_on channel=6 note=80 velocity=95 time=0
EXTRACT: note_on channel=6 note=68 velocity=95 time=0
EXTRACT: note_off channel=12 note=44 velocity=95 time=0
EXTRACT: note_on channel=12 note=44 velocity=95 time=0
EXTRACT: note_off channel=9 note=42 velocity=95 time=0
EXTRACT: note_on channel=9 note=42 velocity=95 time=0
EXTRACT: note_on channel=9 note=36 velocity=95 time=0
EXTRACT: note_on channel=0 note=73 velocity=95 time=0.1666665
EXTRACT: note_on channel=0 note=68 velocity=95 time=0
EXTRACT: note_on channel=0 note=64 velocity=95 time=0
EXTRACT: note_on channel=0 note=61 velocity=95 time=0
EXTRACT: note_off channel=6 note=80 velocity=95 time=0
EXTRACT: note_off channel=6 note=68 velocity=95 time=0
EXTRACT: note_off channel=9 note=42 velocity=95 time=0
EXTRACT: note_off channel=9 note=36 velocity=95 time=0
EXTRACT: note_off channel=0 note=73 velocity=95 time=0.1666665
EXTRACT: note_off channel=0 note=68 velocity=95 time=0
EXTRACT: note_off channel=0 note=64 velocity=95 time=0
EXTRACT: note_off channel=0 note=61 velocity=95 time=0
EXTRACT: note_off channel=12 note=44 velocity=95 time=0
EXTRACT: note_on channel=12 note=42 velocity=95 time=0
EXTRACT: note_on channel=9 note=42 velocity=95 time=0
EXTRACT: note_on channel=9 note=40 velocity=95 time=0
EXTRACT: note_on channel=0 note=73 velocity=95 time=0.1666665
EXTRACT: note_on channel=0 note=68 velocity=95 time=0
EXTRACT: note_on channel=0 note=64 velocity=95 time=0
EXTRACT: note_on channel=0 note=61 velocity=95 time=0
EXTRACT: note_on channel=6 note=75 velocity=95 time=0
EXTRACT: note_on channel=6 note=63 velocity=95 time=0
EXTRACT: note_off channel=12 note=42 velocity=95 time=0
EXTRACT: note_on channel=12 note=44 velocity=70 time=0
EXTRACT: note_off channel=9 note=42 velocity=95 time=0
EXTRACT: note_off channel=9 note=40 velocity=95 time=0
EXTRACT: note_on channel=9 note=42 velocity=95 time=0
EXTRACT: note_off channel=0 note=73 velocity=95 time=0.1666665
EXTRACT: note_off channel=0 note=68 velocity=95 time=0
EXTRACT: note_off channel=0 note=64 velocity=95 time=0
EXTRACT: note_off channel=0 note=61 velocity=95 time=0
EXTRACT: note_off channel=6 note=75 velocity=95 time=0
EXTRACT: note_off channel=6 note=63 velocity=95 time=0
EXTRACT: note_on channel=6 note=75 velocity=95 time=0
EXTRACT: note_on channel=6 note=63 velocity=95 time=0
EXTRACT: note_off channel=12 note=44 velocity=70 time=0
EXTRACT: note_on channel=12 note=37 velocity=95 time=0
EXTRACT: note_off channel=9 note=42 velocity=95 time=0
EXTRACT: note_on channel=9 note=42 velocity=95 time=0
EXTRACT: note_on channel=9 note=36 velocity=95 time=0
EXTRACT: note_on channel=0 note=73 velocity=95 time=0.1666665
EXTRACT: note_on channel=0 note=68 velocity=95 time=0
EXTRACT: note_on channel=0 note=64 velocity=95 time=0
EXTRACT: note_on channel=0 note=61 velocity=95 time=0
EXTRACT: note_off channel=6 note=75 velocity=95 time=0
EXTRACT: note_off channel=6 note=63 velocity=95 time=0
EXTRACT: note_on channel=6 note=78 velocity=95 time=0
EXTRACT: note_on channel=6 note=66 velocity=95 time=0
EXTRACT: note_off channel=9 note=42 velocity=95 time=0
EXTRACT: note_off channel=9 note=36 velocity=95 time=0
EXTRACT: note_off channel=0 note=73 velocity=95 time=0.1666665
EXTRACT: note_off channel=0 note=68 velocity=95 time=0
EXTRACT: note_off channel=0 note=64 velocity=95 time=0
EXTRACT: note_off channel=0 note=61 velocity=95 time=0
EXTRACT: note_off channel=6 note=78 velocity=95 time=0
EXTRACT: note_off channel=6 note=66 velocity=95 time=0
EXTRACT: note_on channel=9 note=42 velocity=95 time=0
EXTRACT: note_on channel=9 note=40 velocity=95 time=0
EXTRACT: note_on channel=0 note=73 velocity=95 time=0.1666665
EXTRACT: note_on channel=0 note=68 velocity=95 time=0
EXTRACT: note_on channel=0 note=64 velocity=95 time=0
EXTRACT: note_on channel=0 note=61 velocity=95 time=0
EXTRACT: note_on channel=6 note=78 velocity=95 time=0
EXTRACT: note_on channel=6 note=66 velocity=95 time=0
EXTRACT: note_off channel=12 note=37 velocity=95 time=0
EXTRACT: note_on channel=12 note=44 velocity=95 time=0
EXTRACT: note_off channel=9 note=42 velocity=95 time=0
EXTRACT: note_off channel=9 note=40 velocity=95 time=0
EXTRACT: note_on channel=9 note=42 velocity=95 time=0
EXTRACT: note_off channel=0 note=73 velocity=95 time=0.1666665
EXTRACT: note_off channel=0 note=68 velocity=95 time=0
EXTRACT: note_off channel=0 note=64 velocity=95 time=0
EXTRACT: note_off channel=0 note=61 velocity=95 time=0
EXTRACT: note_off channel=6 note=78 velocity=95 time=0
EXTRACT: note_off channel=6 note=66 velocity=95 time=0
EXTRACT: note_off channel=12 note=44 velocity=95 time=0
EXTRACT: note_on channel=12 note=44 velocity=95 time=0
EXTRACT: note_off channel=9 note=42 velocity=95 time=0
EXTRACT: note_on channel=9 note=42 velocity=95 time=0
EXTRACT: note_on channel=0 note=73 velocity=95 time=0.1666665
EXTRACT: note_on channel=0 note=68 velocity=95 time=0
EXTRACT: note_on channel=0 note=64 velocity=95 time=0
EXTRACT: note_on channel=0 note=61 velocity=95 time=0
EXTRACT: note_on channel=6 note=76 velocity=95 time=0
EXTRACT: note_on channel=6 note=64 velocity=95 time=0
EXTRACT: note_off channel=9 note=42 velocity=95 time=0
EXTRACT: note_on channel=9 note=36 velocity=95 time=0
EXTRACT: note_off channel=0 note=73 velocity=95 time=0.1666665
EXTRACT: note_off channel=0 note=68 velocity=95 time=0
EXTRACT: note_off channel=0 note=64 velocity=95 time=0
EXTRACT: note_off channel=0 note=61 velocity=95 time=0
EXTRACT: note_off channel=12 note=44 velocity=95 time=0
EXTRACT: note_on channel=12 note=42 velocity=95 time=0
EXTRACT: note_off channel=9 note=36 velocity=95 time=0
EXTRACT: note_on channel=9 note=42 velocity=95 time=0
EXTRACT: note_on channel=9 note=40 velocity=95 time=0
EXTRACT: note_off channel=6 note=76 velocity=95 time=0.1041665625
EXTRACT: note_off channel=6 note=64 velocity=95 time=0
EXTRACT: note_on channel=0 note=73 velocity=95 time=0.062499937500000005
EXTRACT: note_on channel=0 note=68 velocity=95 time=0
EXTRACT: note_on channel=0 note=64 velocity=95 time=0
EXTRACT: note_on channel=0 note=61 velocity=95 time=0
EXTRACT: note_off channel=12 note=42 velocity=95 time=0
EXTRACT: note_on channel=12 note=44 velocity=70 time=0
EXTRACT: note_off channel=9 note=42 velocity=95 time=0
EXTRACT: note_off channel=9 note=40 velocity=95 time=0
EXTRACT: note_on channel=9 note=42 velocity=95 time=0
EXTRACT: note_off channel=0 note=73 velocity=95 time=0.1666665
EXTRACT: note_off channel=0 note=68 velocity=95 time=0
EXTRACT: note_off channel=0 note=64 velocity=95 time=0
EXTRACT: note_off channel=0 note=61 velocity=95 time=0
EXTRACT: note_off channel=12 note=44 velocity=70 time=0
EXTRACT: note_off channel=9 note=42 velocity=95 time=0
EXTRACT: note_on channel=9 note=42 velocity=95 time=0
EXTRACT: note_on channel=0 note=73 velocity=95 time=0.1666665
EXTRACT: note_on channel=0 note=68 velocity=95 time=0
EXTRACT: note_on channel=0 note=64 velocity=95 time=0
EXTRACT: note_on channel=0 note=61 velocity=95 time=0
EXTRACT: note_off channel=0 note=73 velocity=95 time=0.1666665
EXTRACT: note_off channel=0 note=68 velocity=95 time=0
EXTRACT: note_off channel=0 note=64 velocity=95 time=0
EXTRACT: note_off channel=0 note=61 velocity=95 time=0
EXTRACT: note_on channel=6 note=56 velocity=95 time=0
EXTRACT: note_off channel=9 note=42 velocity=95 time=0
EXTRACT: note_on channel=9 note=42 velocity=95 time=0
EXTRACT: note_on channel=0 note=73 velocity=95 time=0.1666665
EXTRACT: note_on channel=0 note=68 velocity=95 time=0
EXTRACT: note_on channel=0 note=64 velocity=95 time=0
EXTRACT: note_on channel=0 note=61 velocity=95 time=0
EXTRACT: note_off channel=9 note=42 velocity=95 time=0
EXTRACT: note_on channel=9 note=42 velocity=95 time=0
EXTRACT: note_off channel=6 note=56 velocity=95 time=0.1041665625
EXTRACT: note_off channel=0 note=73 velocity=95 time=0.062499937500000005
EXTRACT: note_off channel=0 note=68 velocity=95 time=0
EXTRACT: note_off channel=0 note=64 velocity=95 time=0
EXTRACT: note_off channel=0 note=61 velocity=95 time=0
EXTRACT: note_on channel=6 note=56 velocity=95 time=0
EXTRACT: note_off channel=9 note=42 velocity=95 time=0
EXTRACT: note_on channel=9 note=42 velocity=95 time=0
EXTRACT: note_on channel=0 note=73 velocity=95 time=0.1666665
EXTRACT: note_on channel=0 note=68 velocity=95 time=0
EXTRACT: note_on channel=0 note=64 velocity=95 time=0
EXTRACT: note_on channel=0 note=61 velocity=95 time=0
EXTRACT: note_off channel=6 note=56 velocity=95 time=0.1041665625
EXTRACT: note_off channel=0 note=73 velocity=95 time=0.062499937500000005
EXTRACT: note_off channel=0 note=68 velocity=95 time=0
EXTRACT: note_off channel=0 note=64 velocity=95 time=0
EXTRACT: note_off channel=0 note=61 velocity=95 time=0
EXTRACT: note_off channel=9 note=42 velocity=95 time=0
EXTRACT: note_on channel=9 note=42 velocity=95 time=0
EXTRACT: note_on channel=0 note=73 velocity=95 time=0.1666665
EXTRACT: note_on channel=0 note=68 velocity=95 time=0
EXTRACT: note_on channel=0 note=64 velocity=95 time=0
EXTRACT: note_on channel=0 note=61 velocity=95 time=0
EXTRACT: note_on channel=6 note=52 velocity=95 time=0
EXTRACT: note_off channel=9 note=42 velocity=95 time=0
EXTRACT: note_on channel=9 note=42 velocity=95 time=0
EXTRACT: note_off channel=0 note=73 velocity=95 time=0.1666665
EXTRACT: note_off channel=0 note=68 velocity=95 time=0
EXTRACT: note_off channel=0 note=64 velocity=95 time=0
EXTRACT: note_off channel=0 note=61 velocity=95 time=0
EXTRACT: note_off channel=6 note=52 velocity=95 time=0
EXTRACT: note_on channel=6 note=54 velocity=95 time=0
EXTRACT: note_off channel=9 note=42 velocity=95 time=0
EXTRACT: note_on channel=9 note=42 velocity=95 time=0
EXTRACT: note_on channel=0 note=73 velocity=95 time=0.1666665
EXTRACT: note_on channel=0 note=68 velocity=95 time=0
EXTRACT: note_on channel=0 note=64 velocity=95 time=0
EXTRACT: note_on channel=0 note=61 velocity=95 time=0
EXTRACT: note_off channel=6 note=54 velocity=95 time=0
EXTRACT: note_on channel=6 note=57 velocity=95 time=0
EXTRACT: note_off channel=0 note=73 velocity=95 time=0.1666665
EXTRACT: note_off channel=0 note=68 velocity=95 time=0
EXTRACT: note_off channel=0 note=64 velocity=95 time=0
EXTRACT: note_off channel=0 note=61 velocity=95 time=0
EXTRACT: note_off channel=6 note=57 velocity=95 time=0
EXTRACT: note_off channel=9 note=42 velocity=95 time=0
EXTRACT: note_on channel=9 note=42 velocity=95 time=0
EXTRACT: note_on channel=0 note=73 velocity=95 time=0.1666665
EXTRACT: note_on channel=0 note=68 velocity=95 time=0
EXTRACT: note_on channel=0 note=64 velocity=95 time=0
EXTRACT: note_on channel=0 note=61 velocity=95 time=0
EXTRACT: note_on channel=6 note=57 velocity=95 time=0
EXTRACT: note_off channel=9 note=42 velocity=95 time=0
EXTRACT: note_on channel=9 note=42 velocity=95 time=0
EXTRACT: note_off channel=0 note=73 velocity=95 time=0.1666665
EXTRACT: note_off channel=0 note=68 velocity=95 time=0
EXTRACT: note_off channel=0 note=64 velocity=95 time=0
EXTRACT: note_off channel=0 note=61 velocity=95 time=0
EXTRACT: note_off channel=6 note=57 velocity=95 time=0
EXTRACT: note_off channel=9 note=42 velocity=95 time=0
EXTRACT: note_on channel=9 note=42 velocity=95 time=0
EXTRACT: note_on channel=0 note=73 velocity=95 time=0.1666665
EXTRACT: note_on channel=0 note=68 velocity=95 time=0
EXTRACT: note_on channel=0 note=64 velocity=95 time=0
EXTRACT: note_on channel=0 note=61 velocity=95 time=0
EXTRACT: note_on channel=6 note=56 velocity=95 time=0
EXTRACT: note_off channel=0 note=73 velocity=95 time=0.1666665
EXTRACT: note_off channel=0 note=68 velocity=95 time=0
EXTRACT: note_off channel=0 note=64 velocity=95 time=0
EXTRACT: note_off channel=0 note=61 velocity=95 time=0
EXTRACT: note_off channel=9 note=42 velocity=95 time=0
EXTRACT: note_on channel=9 note=42 velocity=95 time=0
EXTRACT: note_off channel=6 note=56 velocity=95 time=0.1041665625
EXTRACT: note_on channel=0 note=73 velocity=95 time=0.062499937500000005
EXTRACT: note_on channel=0 note=68 velocity=95 time=0
EXTRACT: note_on channel=0 note=64 velocity=95 time=0
EXTRACT: note_on channel=0 note=61 velocity=95 time=0
EXTRACT: note_off channel=9 note=42 velocity=95 time=0
EXTRACT: note_on channel=9 note=42 velocity=95 time=0
EXTRACT: note_off channel=0 note=73 velocity=95 time=0.1666665
EXTRACT: note_off channel=0 note=68 velocity=95 time=0
EXTRACT: note_off channel=0 note=64 velocity=95 time=0
EXTRACT: note_off channel=0 note=61 velocity=95 time=0
EXTRACT: note_on channel=12 note=37 velocity=95 time=0
EXTRACT: note_off channel=9 note=42 velocity=95 time=0
EXTRACT: note_on channel=9 note=42 velocity=95 time=0
EXTRACT: note_on channel=9 note=36 velocity=95 time=0
EXTRACT: note_on channel=0 note=73 velocity=95 time=0.1666665
EXTRACT: note_on channel=0 note=68 velocity=95 time=0
EXTRACT: note_on channel=0 note=64 velocity=95 time=0
EXTRACT: note_on channel=0 note=61 velocity=95 time=0
EXTRACT: note_off channel=9 note=42 velocity=95 time=0
EXTRACT: note_off channel=9 note=36 velocity=95 time=0
EXTRACT: note_off channel=0 note=73 velocity=95 time=0.1666665
EXTRACT: note_off channel=0 note=68 velocity=95 time=0
EXTRACT: note_off channel=0 note=64 velocity=95 time=0
EXTRACT: note_off channel=0 note=61 velocity=95 time=0
EXTRACT: note_on channel=6 note=68 velocity=95 time=0
EXTRACT: note_on channel=6 note=56 velocity=95 time=0
EXTRACT: note_on channel=9 note=42 velocity=95 time=0
EXTRACT: note_on channel=9 note=40 velocity=95 time=0
EXTRACT: note_on channel=0 note=73 velocity=95 time=0.1666665
EXTRACT: note_on channel=0 note=68 velocity=95 time=0
EXTRACT: note_on channel=0 note=64 velocity=95 time=0
EXTRACT: note_on channel=0 note=61 velocity=95 time=0
EXTRACT: note_off channel=6 note=68 velocity=95 time=0
EXTRACT: note_off channel=6 note=56 velocity=95 time=0
EXTRACT: note_on channel=6 note=68 velocity=95 time=0
EXTRACT: note_on channel=6 note=56 velocity=95 time=0
EXTRACT: note_off channel=12 note=37 velocity=95 time=0
EXTRACT: note_on channel=12 note=44 velocity=95 time=0
EXTRACT: note_off channel=9 note=42 velocity=95 time=0
EXTRACT: note_off channel=9 note=40 velocity=95 time=0
EXTRACT: note_on channel=9 note=42 velocity=95 time=0
EXTRACT: note_off channel=0 note=73 velocity=95 time=0.1666665
EXTRACT: note_off channel=0 note=68 velocity=95 time=0
EXTRACT: note_off channel=0 note=64 velocity=95 time=0
EXTRACT: note_off channel=0 note=61 velocity=95 time=0
EXTRACT: note_off channel=6 note=68 velocity=95 time=0
EXTRACT: note_off channel=6 note=56 velocity=95 time=0
EXTRACT: note_on channel=6 note=68 velocity=95 time=0
EXTRACT: note_on channel=6 note=56 velocity=95 time=0
EXTRACT: note_off channel=12 note=44 velocity=95 time=0
EXTRACT: note_on channel=12 note=44 velocity=95 time=0
EXTRACT: note_off channel=9 note=42 velocity=95 time=0
EXTRACT: note_on channel=9 note=42 velocity=95 time=0
EXTRACT: note_on channel=9 note=36 velocity=95 time=0
EXTRACT: note_on channel=0 note=73 velocity=95 time=0.1666665
EXTRACT: note_on channel=0 note=68 velocity=95 time=0
EXTRACT: note_on channel=0 note=64 velocity=95 time=0
EXTRACT: note_on channel=0 note=61 velocity=95 time=0
EXTRACT: note_off channel=9 note=42 velocity=95 time=0
EXTRACT: note_off channel=9 note=36 velocity=95 time=0
EXTRACT: note_off channel=6 note=68 velocity=95 time=0.1041665625
EXTRACT: note_off channel=6 note=56 velocity=95 time=0
EXTRACT: note_off channel=0 note=73 velocity=95 time=0.062499937500000005
EXTRACT: note_off channel=0 note=68 velocity=95 time=0
EXTRACT: note_off channel=0 note=64 velocity=95 time=0
EXTRACT: note_off channel=0 note=61 velocity=95 time=0
EXTRACT: note_on channel=6 note=63 velocity=95 time=0
EXTRACT: note_on channel=6 note=51 velocity=95 time=0
EXTRACT: note_off channel=12 note=44 velocity=95 time=0
EXTRACT: note_on channel=12 note=42 velocity=95 time=0
EXTRACT: note_on channel=9 note=42 velocity=95 time=0
EXTRACT: note_on channel=9 note=40 velocity=95 time=0
EXTRACT: note_on channel=0 note=73 velocity=95 time=0.1666665
EXTRACT: note_on channel=0 note=68 velocity=95 time=0
EXTRACT: note_on channel=0 note=64 velocity=95 time=0
EXTRACT: note_on channel=0 note=61 velocity=95 time=0
EXTRACT: note_off channel=12 note=42 velocity=95 time=0
EXTRACT: note_on channel=12 note=44 velocity=70 time=0
EXTRACT: note_off channel=9 note=42 velocity=95 time=0
EXTRACT: note_off channel=9 note=40 velocity=95 time=0
EXTRACT: note_on channel=9 note=42 velocity=95 time=0
EXTRACT: note_off channel=6 note=63 velocity=95 time=0.1041665625
EXTRACT: note_off channel=6 note=51 velocity=95 time=0
EXTRACT: note_off channel=0 note=73 velocity=95 time=0.062499937500000005
EXTRACT: note_off channel=0 note=68 velocity=95 time=0
EXTRACT: note_off channel=0 note=64 velocity=95 time=0
EXTRACT: note_off channel=0 note=61 velocity=95 time=0
EXTRACT: note_on channel=6 note=63 velocity=95 time=0
EXTRACT: note_on channel=6 note=51 velocity=95 time=0
EXTRACT: note_off channel=12 note=44 velocity=70 time=0
EXTRACT: note_on channel=12 note=37 velocity=95 time=0
EXTRACT: note_off channel=9 note=42 velocity=95 time=0
EXTRACT: note_on channel=9 note=42 velocity=95 time=0
EXTRACT: note_on channel=9 note=36 velocity=95 time=0
EXTRACT: note_on channel=0 note=73 velocity=95 time=0.1666665
EXTRACT: note_on channel=0 note=68 velocity=95 time=0
EXTRACT: note_on channel=0 note=64 velocity=95 time=0
EXTRACT: note_on channel=0 note=61 velocity=95 time=0
EXTRACT: note_off channel=6 note=63 velocity=95 time=0
EXTRACT: note_off channel=6 note=51 velocity=95 time=0
EXTRACT: note_on channel=6 note=66 velocity=95 time=0
EXTRACT: note_on channel=6 note=54 velocity=95 time=0
EXTRACT: note_off channel=9 note=42 velocity=95 time=0
EXTRACT: note_off channel=9 note=36 velocity=95 time=0
EXTRACT: note_off channel=0 note=73 velocity=95 time=0.1666665
EXTRACT: note_off channel=0 note=68 velocity=95 time=0
EXTRACT: note_off channel=0 note=64 velocity=95 time=0
EXTRACT: note_off channel=0 note=61 velocity=95 time=0
EXTRACT: note_on channel=9 note=42 velocity=95 time=0
EXTRACT: note_on channel=9 note=40 velocity=95 time=0
EXTRACT: note_on channel=0 note=73 velocity=95 time=0.1666665
EXTRACT: note_on channel=0 note=68 velocity=95 time=0
EXTRACT: note_on channel=0 note=64 velocity=95 time=0
EXTRACT: note_on channel=0 note=61 velocity=95 time=0
EXTRACT: note_off channel=6 note=66 velocity=95 time=0
EXTRACT: note_off channel=6 note=54 velocity=95 time=0
EXTRACT: note_on channel=6 note=64 velocity=95 time=0
EXTRACT: note_on channel=6 note=52 velocity=95 time=0
EXTRACT: note_off channel=12 note=37 velocity=95 time=0
EXTRACT: note_on channel=12 note=44 velocity=95 time=0
EXTRACT: note_off channel=9 note=42 velocity=95 time=0
EXTRACT: note_off channel=9 note=40 velocity=95 time=0
EXTRACT: note_on channel=9 note=42 velocity=95 time=0
EXTRACT: note_off channel=0 note=73 velocity=95 time=0.1666665
EXTRACT: note_off channel=0 note=68 velocity=95 time=0
EXTRACT: note_off channel=0 note=64 velocity=95 time=0
EXTRACT: note_off channel=0 note=61 velocity=95 time=0
EXTRACT: note_off channel=12 note=44 velocity=95 time=0
EXTRACT: note_on channel=12 note=44 velocity=95 time=0
EXTRACT: note_off channel=9 note=42 velocity=95 time=0
EXTRACT: note_on channel=9 note=42 velocity=95 time=0
EXTRACT: note_on channel=0 note=73 velocity=95 time=0.1666665
EXTRACT: note_on channel=0 note=68 velocity=95 time=0
EXTRACT: note_on channel=0 note=64 velocity=95 time=0
EXTRACT: note_on channel=0 note=61 velocity=95 time=0
EXTRACT: note_off channel=9 note=42 velocity=95 time=0
EXTRACT: note_on channel=9 note=36 velocity=95 time=0
EXTRACT: note_off channel=6 note=64 velocity=95 time=0.1041665625
EXTRACT: note_off channel=6 note=52 velocity=95 time=0
EXTRACT: note_off channel=0 note=73 velocity=95 time=0.062499937500000005
EXTRACT: note_off channel=0 note=68 velocity=95 time=0
EXTRACT: note_off channel=0 note=64 velocity=95 time=0
EXTRACT: note_off channel=0 note=61 velocity=95 time=0
EXTRACT: note_off channel=12 note=44 velocity=95 time=0
EXTRACT: note_on channel=12 note=42 velocity=95 time=0
EXTRACT: note_off channel=9 note=36 velocity=95 time=0
EXTRACT: note_on channel=9 note=42 velocity=95 time=0
EXTRACT: note_on channel=9 note=40 velocity=95 time=0
EXTRACT: note_on channel=0 note=73 velocity=95 time=0.1666665
EXTRACT: note_on channel=0 note=68 velocity=95 time=0
EXTRACT: note_on channel=0 note=64 velocity=95 time=0
EXTRACT: note_on channel=0 note=61 velocity=95 time=0
EXTRACT: note_off channel=12 note=42 velocity=95 time=0
EXTRACT: note_on channel=12 note=44 velocity=70 time=0
EXTRACT: note_off channel=9 note=42 velocity=95 time=0
EXTRACT: note_off channel=9 note=40 velocity=95 time=0
EXTRACT: note_on channel=9 note=42 velocity=95 time=0
EXTRACT: note_off channel=0 note=73 velocity=95 time=0.1666665
EXTRACT: note_off channel=0 note=68 velocity=95 time=0
EXTRACT: note_off channel=0 note=64 velocity=95 time=0
EXTRACT: note_off channel=0 note=61 velocity=95 time=0
EXTRACT: note_off channel=12 note=44 velocity=70 time=0
EXTRACT: note_on channel=12 note=37 velocity=95 time=0
EXTRACT: note_off channel=9 note=42 velocity=95 time=0
EXTRACT: note_on channel=9 note=42 velocity=95 time=0
EXTRACT: note_on channel=9 note=36 velocity=95 time=0
EXTRACT: note_on channel=0 note=73 velocity=95 time=0.1666665
EXTRACT: note_on channel=0 note=68 velocity=95 time=0
EXTRACT: note_on channel=0 note=64 velocity=95 time=0
EXTRACT: note_on channel=0 note=61 velocity=95 time=0
EXTRACT: note_on channel=6 note=68 velocity=95 time=0
EXTRACT: note_on channel=6 note=56 velocity=95 time=0
EXTRACT: note_off channel=9 note=42 velocity=95 time=0
EXTRACT: note_off channel=9 note=36 velocity=95 time=0
EXTRACT: note_off channel=0 note=73 velocity=95 time=0.1666665
EXTRACT: note_off channel=0 note=68 velocity=95 time=0
EXTRACT: note_off channel=0 note=64 velocity=95 time=0
EXTRACT: note_off channel=0 note=61 velocity=95 time=0
EXTRACT: note_off channel=6 note=68 velocity=95 time=0
EXTRACT: note_off channel=6 note=56 velocity=95 time=0
EXTRACT: note_on channel=6 note=68 velocity=95 time=0
EXTRACT: note_on channel=6 note=56 velocity=95 time=0
EXTRACT: note_on channel=9 note=42 velocity=95 time=0
EXTRACT: note_on channel=9 note=40 velocity=95 time=0
EXTRACT: note_on channel=0 note=73 velocity=95 time=0.1666665
EXTRACT: note_on channel=0 note=68 velocity=95 time=0
EXTRACT: note_on channel=0 note=64 velocity=95 time=0
EXTRACT: note_on channel=0 note=61 velocity=95 time=0
EXTRACT: note_off channel=6 note=68 velocity=95 time=0
EXTRACT: note_off channel=6 note=56 velocity=95 time=0
EXTRACT: note_on channel=6 note=68 velocity=95 time=0
EXTRACT: note_on channel=6 note=56 velocity=95 time=0
EXTRACT: note_off channel=12 note=37 velocity=95 time=0
EXTRACT: note_on channel=12 note=44 velocity=95 time=0
EXTRACT: note_off channel=9 note=42 velocity=95 time=0
EXTRACT: note_off channel=9 note=40 velocity=95 time=0
EXTRACT: note_on channel=9 note=42 velocity=95 time=0
EXTRACT: note_off channel=0 note=73 velocity=95 time=0.1666665
EXTRACT: note_off channel=0 note=68 velocity=95 time=0
EXTRACT: note_off channel=0 note=64 velocity=95 time=0
EXTRACT: note_off channel=0 note=61 velocity=95 time=0
EXTRACT: note_off channel=6 note=68 velocity=95 time=0
EXTRACT: note_off channel=6 note=56 velocity=95 time=0
EXTRACT: note_on channel=6 note=68 velocity=95 time=0
EXTRACT: note_on channel=6 note=56 velocity=95 time=0
EXTRACT: note_off channel=12 note=44 velocity=95 time=0
EXTRACT: note_on channel=12 note=44 velocity=95 time=0
EXTRACT: note_off channel=9 note=42 velocity=95 time=0
EXTRACT: note_on channel=9 note=42 velocity=95 time=0
EXTRACT: note_on channel=9 note=36 velocity=95 time=0
EXTRACT: note_on channel=0 note=73 velocity=95 time=0.1666665
EXTRACT: note_on channel=0 note=68 velocity=95 time=0
EXTRACT: note_on channel=0 note=64 velocity=95 time=0
EXTRACT: note_on channel=0 note=61 velocity=95 time=0
EXTRACT: note_off channel=9 note=42 velocity=95 time=0
EXTRACT: note_off channel=9 note=36 velocity=95 time=0
EXTRACT: note_off channel=6 note=68 velocity=95 time=0.1041665625
EXTRACT: note_off channel=6 note=56 velocity=95 time=0
EXTRACT: note_off channel=0 note=73 velocity=95 time=0.062499937500000005
EXTRACT: note_off channel=0 note=68 velocity=95 time=0
EXTRACT: note_off channel=0 note=64 velocity=95 time=0
EXTRACT: note_off channel=0 note=61 velocity=95 time=0
EXTRACT: note_on channel=6 note=64 velocity=95 time=0
EXTRACT: note_on channel=6 note=52 velocity=95 time=0
EXTRACT: note_off channel=12 note=44 velocity=95 time=0
EXTRACT: note_on channel=12 note=42 velocity=95 time=0
EXTRACT: note_on channel=9 note=42 velocity=95 time=0
EXTRACT: note_on channel=9 note=40 velocity=95 time=0
EXTRACT: note_on channel=0 note=73 velocity=95 time=0.1666665
EXTRACT: note_on channel=0 note=68 velocity=95 time=0
EXTRACT: note_on channel=0 note=64 velocity=95 time=0
EXTRACT: note_on channel=0 note=61 velocity=95 time=0
EXTRACT: note_off channel=6 note=64 velocity=95 time=0
EXTRACT: note_off channel=6 note=52 velocity=95 time=0
EXTRACT: note_on channel=6 note=64 velocity=95 time=0
EXTRACT: note_on channel=6 note=52 velocity=95 time=0
EXTRACT: note_off channel=12 note=42 velocity=95 time=0
EXTRACT: note_on channel=12 note=44 velocity=70 time=0
EXTRACT: note_off channel=9 note=42 velocity=95 time=0
EXTRACT: note_off channel=9 note=40 velocity=95 time=0
EXTRACT: note_on channel=9 note=42 velocity=95 time=0
EXTRACT: note_off channel=0 note=73 velocity=95 time=0.1666665
EXTRACT: note_off channel=0 note=68 velocity=95 time=0
EXTRACT: note_off channel=0 note=64 velocity=95 time=0
EXTRACT: note_off channel=0 note=61 velocity=95 time=0
EXTRACT: note_off channel=6 note=64 velocity=95 time=0
EXTRACT: note_off channel=6 note=52 velocity=95 time=0
EXTRACT: note_on channel=6 note=66 velocity=95 time=0
EXTRACT: note_on channel=6 note=54 velocity=95 time=0
EXTRACT: note_off channel=12 note=44 velocity=70 time=0
EXTRACT: note_on channel=12 note=37 velocity=95 time=0
EXTRACT: note_off channel=9 note=42 velocity=95 time=0
EXTRACT: note_on channel=9 note=42 velocity=95 time=0
EXTRACT: note_on channel=9 note=36 velocity=95 time=0
EXTRACT: note_on channel=0 note=73 velocity=95 time=0.1666665
EXTRACT: note_on channel=0 note=68 velocity=95 time=0
EXTRACT: note_on channel=0 note=64 velocity=95 time=0
EXTRACT: note_on channel=0 note=61 velocity=95 time=0
EXTRACT: note_off channel=6 note=66 velocity=95 time=0
EXTRACT: note_off channel=6 note=54 velocity=95 time=0
EXTRACT: note_on channel=6 note=69 velocity=95 time=0
EXTRACT: note_on channel=6 note=57 velocity=95 time=0
EXTRACT: note_off channel=9 note=42 velocity=95 time=0
EXTRACT: note_off channel=9 note=36 velocity=95 time=0
EXTRACT: note_off channel=0 note=73 velocity=95 time=0.1666665
EXTRACT: note_off channel=0 note=68 velocity=95 time=0
EXTRACT: note_off channel=0 note=64 velocity=95 time=0
EXTRACT: note_off channel=0 note=61 velocity=95 time=0
EXTRACT: note_on channel=9 note=42 velocity=95 time=0
EXTRACT: note_on channel=9 note=40 velocity=95 time=0
EXTRACT: note_on channel=0 note=73 velocity=95 time=0.1666665
EXTRACT: note_on channel=0 note=68 velocity=95 time=0
EXTRACT: note_on channel=0 note=64 velocity=95 time=0
EXTRACT: note_on channel=0 note=61 velocity=95 time=0
EXTRACT: note_off channel=6 note=69 velocity=95 time=0
EXTRACT: note_off channel=6 note=57 velocity=95 time=0
EXTRACT: note_on channel=6 note=69 velocity=95 time=0
EXTRACT: note_on channel=6 note=57 velocity=95 time=0
EXTRACT: note_off channel=12 note=37 velocity=95 time=0
EXTRACT: note_on channel=12 note=44 velocity=95 time=0
EXTRACT: note_off channel=9 note=42 velocity=95 time=0
EXTRACT: note_off channel=9 note=40 velocity=95 time=0
EXTRACT: note_on channel=9 note=42 velocity=95 time=0
EXTRACT: note_off channel=0 note=73 velocity=95 time=0.1666665
EXTRACT: note_off channel=0 note=68 velocity=95 time=0
EXTRACT: note_off channel=0 note=64 velocity=95 time=0
EXTRACT: note_off channel=0 note=61 velocity=95 time=0
EXTRACT: note_off channel=12 note=44 velocity=95 time=0
EXTRACT: note_on channel=12 note=44 velocity=95 time=0
EXTRACT: note_off channel=9 note=42 velocity=95 time=0
EXTRACT: note_on channel=9 note=42 velocity=95 time=0
EXTRACT: note_on channel=0 note=73 velocity=95 time=0.1666665
EXTRACT: note_on channel=0 note=68 velocity=95 time=0
EXTRACT: note_on channel=0 note=64 velocity=95 time=0
EXTRACT: note_on channel=0 note=61 velocity=95 time=0
EXTRACT: note_off channel=6 note=69 velocity=95 time=0
EXTRACT: note_off channel=6 note=57 velocity=95 time=0
EXTRACT: note_on channel=6 note=68 velocity=95 time=0
EXTRACT: note_on channel=6 note=56 velocity=95 time=0
EXTRACT: note_off channel=9 note=42 velocity=95 time=0
EXTRACT: note_on channel=9 note=36 velocity=95 time=0
EXTRACT: note_off channel=0 note=73 velocity=95 time=0.1666665
EXTRACT: note_off channel=0 note=68 velocity=95 time=0
EXTRACT: note_off channel=0 note=64 velocity=95 time=0
EXTRACT: note_off channel=0 note=61 velocity=95 time=0
EXTRACT: note_off channel=12 note=44 velocity=95 time=0
EXTRACT: note_on channel=12 note=42 velocity=95 time=0
EXTRACT: note_off channel=9 note=36 velocity=95 time=0
EXTRACT: note_on channel=9 note=42 velocity=95 time=0
EXTRACT: note_on channel=9 note=40 velocity=95 time=0
EXTRACT: note_on channel=0 note=73 velocity=95 time=0.1666665
EXTRACT: note_on channel=0 note=68 velocity=95 time=0
EXTRACT: note_on channel=0 note=64 velocity=95 time=0
EXTRACT: note_on channel=0 note=61 velocity=95 time=0
EXTRACT: note_off channel=12 note=42 velocity=95 time=0
EXTRACT: note_on channel=12 note=44 velocity=70 time=0
EXTRACT: note_off channel=9 note=42 velocity=95 time=0
EXTRACT: note_off channel=9 note=40 velocity=95 time=0
EXTRACT: note_on channel=9 note=42 velocity=95 time=0
EXTRACT: note_off channel=6 note=68 velocity=95 time=0.1041665625
EXTRACT: note_off channel=6 note=56 velocity=95 time=0
EXTRACT: note_off channel=0 note=73 velocity=95 time=0.062499937500000005
EXTRACT: note_off channel=0 note=68 velocity=95 time=0
EXTRACT: note_off channel=0 note=64 velocity=95 time=0
EXTRACT: note_off channel=0 note=61 velocity=95 time=0
EXTRACT: note_off channel=12 note=44 velocity=70 time=0
EXTRACT: note_on channel=12 note=37 velocity=95 time=0
EXTRACT: note_off channel=9 note=42 velocity=95 time=0
EXTRACT: note_on channel=9 note=42 velocity=95 time=0
EXTRACT: note_on channel=9 note=36 velocity=95 time=0
EXTRACT: note_on channel=0 note=73 velocity=95 time=0.1666665
EXTRACT: note_on channel=0 note=68 velocity=95 time=0
EXTRACT: note_on channel=0 note=64 velocity=95 time=0
EXTRACT: note_on channel=0 note=61 velocity=95 time=0
EXTRACT: note_on channel=6 note=68 velocity=95 time=0
EXTRACT: note_on channel=6 note=56 velocity=95 time=0
EXTRACT: note_off channel=9 note=42 velocity=95 time=0
EXTRACT: note_off channel=9 note=36 velocity=95 time=0
EXTRACT: note_off channel=0 note=73 velocity=95 time=0.1666665
EXTRACT: note_off channel=0 note=68 velocity=95 time=0
EXTRACT: note_off channel=0 note=64 velocity=95 time=0
EXTRACT: note_off channel=0 note=61 velocity=95 time=0
EXTRACT: note_off channel=6 note=68 velocity=95 time=0
EXTRACT: note_off channel=6 note=56 velocity=95 time=0
EXTRACT: note_on channel=6 note=68 velocity=95 time=0
EXTRACT: note_on channel=6 note=56 velocity=95 time=0
EXTRACT: note_on channel=9 note=42 velocity=95 time=0
EXTRACT: note_on channel=9 note=40 velocity=95 time=0
EXTRACT: note_on channel=0 note=73 velocity=95 time=0.1666665
EXTRACT: note_on channel=0 note=68 velocity=95 time=0
EXTRACT: note_on channel=0 note=64 velocity=95 time=0
EXTRACT: note_on channel=0 note=61 velocity=95 time=0
EXTRACT: note_off channel=6 note=68 velocity=95 time=0
EXTRACT: note_off channel=6 note=56 velocity=95 time=0
EXTRACT: note_on channel=6 note=68 velocity=95 time=0
EXTRACT: note_on channel=6 note=56 velocity=95 time=0
EXTRACT: note_off channel=12 note=37 velocity=95 time=0
EXTRACT: note_on channel=12 note=44 velocity=95 time=0
EXTRACT: note_off channel=9 note=42 velocity=95 time=0
EXTRACT: note_off channel=9 note=40 velocity=95 time=0
EXTRACT: note_on channel=9 note=42 velocity=95 time=0
EXTRACT: note_off channel=0 note=73 velocity=95 time=0.1666665
EXTRACT: note_off channel=0 note=68 velocity=95 time=0
EXTRACT: note_off channel=0 note=64 velocity=95 time=0
EXTRACT: note_off channel=0 note=61 velocity=95 time=0
EXTRACT: note_off channel=6 note=68 velocity=95 time=0
EXTRACT: note_off channel=6 note=56 velocity=95 time=0
EXTRACT: note_on channel=6 note=68 velocity=95 time=0
EXTRACT: note_on channel=6 note=56 velocity=95 time=0
EXTRACT: note_off channel=12 note=44 velocity=95 time=0
EXTRACT: note_on channel=12 note=44 velocity=95 time=0
EXTRACT: note_off channel=9 note=42 velocity=95 time=0
EXTRACT: note_on channel=9 note=42 velocity=95 time=0
EXTRACT: note_on channel=9 note=36 velocity=95 time=0
EXTRACT: note_on channel=0 note=73 velocity=95 time=0.1666665
EXTRACT: note_on channel=0 note=68 velocity=95 time=0
EXTRACT: note_on channel=0 note=64 velocity=95 time=0
EXTRACT: note_on channel=0 note=61 velocity=95 time=0
EXTRACT: note_off channel=9 note=42 velocity=95 time=0
EXTRACT: note_off channel=9 note=36 velocity=95 time=0
EXTRACT: note_off channel=6 note=68 velocity=95 time=0.1041665625
EXTRACT: note_off channel=6 note=56 velocity=95 time=0
EXTRACT: note_off channel=0 note=73 velocity=95 time=0.062499937500000005
EXTRACT: note_off channel=0 note=68 velocity=95 time=0
EXTRACT: note_off channel=0 note=64 velocity=95 time=0
EXTRACT: note_off channel=0 note=61 velocity=95 time=0
EXTRACT: note_on channel=6 note=63 velocity=95 time=0
EXTRACT: note_on channel=6 note=51 velocity=95 time=0
EXTRACT: note_off channel=12 note=44 velocity=95 time=0
EXTRACT: note_on channel=12 note=42 velocity=95 time=0
EXTRACT: note_on channel=9 note=42 velocity=95 time=0
EXTRACT: note_on channel=9 note=40 velocity=95 time=0
EXTRACT: note_on channel=0 note=73 velocity=95 time=0.1666665
EXTRACT: note_on channel=0 note=68 velocity=95 time=0
EXTRACT: note_on channel=0 note=64 velocity=95 time=0
EXTRACT: note_on channel=0 note=61 velocity=95 time=0
EXTRACT: note_off channel=6 note=63 velocity=95 time=0
EXTRACT: note_off channel=6 note=51 velocity=95 time=0
EXTRACT: note_on channel=6 note=63 velocity=95 time=0
EXTRACT: note_on channel=6 note=51 velocity=95 time=0
EXTRACT: note_off channel=12 note=42 velocity=95 time=0
EXTRACT: note_on channel=12 note=44 velocity=70 time=0
EXTRACT: note_off channel=9 note=42 velocity=95 time=0
EXTRACT: note_off channel=9 note=40 velocity=95 time=0
EXTRACT: note_on channel=9 note=42 velocity=95 time=0
EXTRACT: note_off channel=0 note=73 velocity=95 time=0.1666665
EXTRACT: note_off channel=0 note=68 velocity=95 time=0
EXTRACT: note_off channel=0 note=64 velocity=95 time=0
EXTRACT: note_off channel=0 note=61 velocity=95 time=0
EXTRACT: note_off channel=6 note=63 velocity=95 time=0
EXTRACT: note_off channel=6 note=51 velocity=95 time=0
EXTRACT: note_on channel=6 note=63 velocity=95 time=0
EXTRACT: note_on channel=6 note=51 velocity=95 time=0
EXTRACT: note_off channel=12 note=44 velocity=70 time=0
EXTRACT: note_on channel=12 note=37 velocity=95 time=0
EXTRACT: note_off channel=9 note=42 velocity=95 time=0
EXTRACT: note_on channel=9 note=42 velocity=95 time=0
EXTRACT: note_on channel=9 note=36 velocity=95 time=0
EXTRACT: note_on channel=0 note=73 velocity=95 time=0.1666665
EXTRACT: note_on channel=0 note=68 velocity=95 time=0
EXTRACT: note_on channel=0 note=64 velocity=95 time=0
EXTRACT: note_on channel=0 note=61 velocity=95 time=0
EXTRACT: note_off channel=6 note=63 velocity=95 time=0
EXTRACT: note_off channel=6 note=51 velocity=95 time=0
EXTRACT: note_on channel=6 note=66 velocity=95 time=0
EXTRACT: note_on channel=6 note=54 velocity=95 time=0
EXTRACT: note_off channel=9 note=42 velocity=95 time=0
EXTRACT: note_off channel=9 note=36 velocity=95 time=0
EXTRACT: note_off channel=0 note=73 velocity=95 time=0.1666665
EXTRACT: note_off channel=0 note=68 velocity=95 time=0
EXTRACT: note_off channel=0 note=64 velocity=95 time=0
EXTRACT: note_off channel=0 note=61 velocity=95 time=0
EXTRACT: note_on channel=9 note=42 velocity=95 time=0
EXTRACT: note_on channel=9 note=40 velocity=95 time=0
EXTRACT: note_on channel=0 note=73 velocity=95 time=0.1666665
EXTRACT: note_on channel=0 note=68 velocity=95 time=0
EXTRACT: note_on channel=0 note=64 velocity=95 time=0
EXTRACT: note_on channel=0 note=61 velocity=95 time=0
EXTRACT: note_off channel=6 note=66 velocity=95 time=0
EXTRACT: note_off channel=6 note=54 velocity=95 time=0
EXTRACT: note_on channel=6 note=64 velocity=95 time=0
EXTRACT: note_on channel=6 note=52 velocity=95 time=0
EXTRACT: note_off channel=12 note=37 velocity=95 time=0
EXTRACT: note_on channel=12 note=44 velocity=95 time=0
EXTRACT: note_off channel=9 note=42 velocity=95 time=0
EXTRACT: note_off channel=9 note=40 velocity=95 time=0
EXTRACT: note_on channel=9 note=42 velocity=95 time=0
EXTRACT: note_off channel=0 note=73 velocity=95 time=0.1666665
EXTRACT: note_off channel=0 note=68 velocity=95 time=0
EXTRACT: note_off channel=0 note=64 velocity=95 time=0
EXTRACT: note_off channel=0 note=61 velocity=95 time=0
EXTRACT: note_off channel=12 note=44 velocity=95 time=0
EXTRACT: note_on channel=12 note=44 velocity=95 time=0
EXTRACT: note_off channel=9 note=42 velocity=95 time=0
EXTRACT: note_on channel=9 note=42 velocity=95 time=0
EXTRACT: note_on channel=0 note=73 velocity=95 time=0.1666665
EXTRACT: note_on channel=0 note=68 velocity=95 time=0
EXTRACT: note_on channel=0 note=64 velocity=95 time=0
EXTRACT: note_on channel=0 note=61 velocity=95 time=0
EXTRACT: note_off channel=9 note=42 velocity=95 time=0
EXTRACT: note_on channel=9 note=36 velocity=95 time=0
EXTRACT: note_off channel=6 note=64 velocity=95 time=0.08333325
EXTRACT: note_off channel=6 note=52 velocity=95 time=0
EXTRACT: note_off channel=0 note=73 velocity=95 time=0.08333325
EXTRACT: note_off channel=0 note=68 velocity=95 time=0
EXTRACT: note_off channel=0 note=64 velocity=95 time=0
EXTRACT: note_off channel=0 note=61 velocity=95 time=0
EXTRACT: note_off channel=12 note=44 velocity=95 time=0
EXTRACT: note_on channel=12 note=42 velocity=95 time=0
EXTRACT: note_off channel=9 note=36 velocity=95 time=0
EXTRACT: note_on channel=9 note=42 velocity=95 time=0
EXTRACT: note_on channel=9 note=40 velocity=95 time=0
EXTRACT: note_on channel=0 note=73 velocity=95 time=0.1666665
EXTRACT: note_on channel=0 note=68 velocity=95 time=0
EXTRACT: note_on channel=0 note=64 velocity=95 time=0
EXTRACT: note_on channel=0 note=61 velocity=95 time=0
EXTRACT: note_on channel=6 note=56 velocity=95 time=0
EXTRACT: note_off channel=12 note=42 velocity=95 time=0
EXTRACT: note_on channel=12 note=44 velocity=70 time=0
EXTRACT: note_off channel=9 note=42 velocity=95 time=0
EXTRACT: note_off channel=9 note=40 velocity=95 time=0
EXTRACT: note_on channel=9 note=42 velocity=95 time=0
EXTRACT: note_off channel=0 note=73 velocity=95 time=0.1666665
EXTRACT: note_off channel=0 note=68 velocity=95 time=0
EXTRACT: note_off channel=0 note=64 velocity=95 time=0
EXTRACT: note_off channel=0 note=61 velocity=95 time=0
EXTRACT: note_on channel=2 note=61 velocity=95 time=0
EXTRACT: note_on channel=2 note=61 velocity=95 time=0
EXTRACT: note_off channel=6 note=56 velocity=95 time=0
EXTRACT: note_on channel=6 note=61 velocity=95 time=0
EXTRACT: note_on channel=6 note=57 velocity=95 time=0
EXTRACT: note_off channel=12 note=44 velocity=70 time=0
EXTRACT: note_on channel=12 note=30 velocity=95 time=0
EXTRACT: note_on channel=14 note=78 velocity=95 time=0
EXTRACT: note_on channel=14 note=66 velocity=95 time=0
EXTRACT: note_off channel=9 note=42 velocity=95 time=0
EXTRACT: note_on channel=9 note=42 velocity=95 time=0
EXTRACT: note_on channel=9 note=36 velocity=95 time=0
EXTRACT: note_on channel=0 note=66 velocity=95 time=0.1666665
EXTRACT: note_on channel=0 note=61 velocity=95 time=0
EXTRACT: note_on channel=0 note=57 velocity=95 time=0
EXTRACT: note_on channel=0 note=54 velocity=95 time=0
EXTRACT: note_off channel=9 note=42 velocity=95 time=0
EXTRACT: note_off channel=9 note=36 velocity=95 time=0
EXTRACT: note_off channel=6 note=61 velocity=95 time=0.1041665625
EXTRACT: note_off channel=6 note=57 velocity=95 time=0
EXTRACT: note_off channel=0 note=66 velocity=95 time=0.062499937500000005
EXTRACT: note_off channel=0 note=61 velocity=95 time=0
EXTRACT: note_off channel=0 note=57 velocity=95 time=0
EXTRACT: note_off channel=0 note=54 velocity=95 time=0
EXTRACT: note_on channel=6 note=61 velocity=95 time=0
EXTRACT: note_on channel=6 note=57 velocity=95 time=0
EXTRACT: note_on channel=9 note=42 velocity=95 time=0
EXTRACT: note_on channel=9 note=40 velocity=95 time=0
EXTRACT: note_on channel=0 note=66 velocity=95 time=0.1666665
EXTRACT: note_on channel=0 note=61 velocity=95 time=0
EXTRACT: note_on channel=0 note=57 velocity=95 time=0
EXTRACT: note_on channel=0 note=54 velocity=95 time=0
EXTRACT: note_off channel=6 note=61 velocity=95 time=0
EXTRACT: note_off channel=6 note=57 velocity=95 time=0
EXTRACT: note_on channel=6 note=61 velocity=95 time=0
EXTRACT: note_on channel=6 note=57 velocity=95 time=0
EXTRACT: note_off channel=12 note=30 velocity=95 time=0
EXTRACT: note_on channel=12 note=37 velocity=95 time=0
EXTRACT: note_off channel=9 note=42 velocity=95 time=0
EXTRACT: note_off channel=9 note=40 velocity=95 time=0
EXTRACT: note_on channel=9 note=42 velocity=95 time=0
EXTRACT: note_off channel=0 note=66 velocity=95 time=0.1666665
EXTRACT: note_off channel=0 note=61 velocity=95 time=0
EXTRACT: note_off channel=0 note=57 velocity=95 time=0
EXTRACT: note_off channel=0 note=54 velocity=95 time=0
EXTRACT: note_off channel=9 note=42 velocity=95 time=0
EXTRACT: note_on channel=9 note=42 velocity=95 time=0
EXTRACT: note_on channel=9 note=36 velocity=95 time=0
EXTRACT: note_on channel=0 note=66 velocity=95 time=0.1666665
EXTRACT: note_on channel=0 note=61 velocity=95 time=0
EXTRACT: note_on channel=0 note=57 velocity=95 time=0
EXTRACT: note_on channel=0 note=54 velocity=95 time=0
EXTRACT: note_off channel=6 note=61 velocity=95 time=0
EXTRACT: note_off channel=6 note=57 velocity=95 time=0
EXTRACT: note_on channel=6 note=61 velocity=95 time=0
EXTRACT: note_on channel=6 note=57 velocity=95 time=0
EXTRACT: note_off channel=9 note=42 velocity=95 time=0
EXTRACT: note_off channel=9 note=36 velocity=95 time=0
EXTRACT: note_off channel=0 note=66 velocity=95 time=0.1666665
EXTRACT: note_off channel=0 note=61 velocity=95 time=0
EXTRACT: note_off channel=0 note=57 velocity=95 time=0
EXTRACT: note_off channel=0 note=54 velocity=95 time=0
EXTRACT: note_off channel=12 note=37 velocity=95 time=0
EXTRACT: note_on channel=12 note=35 velocity=95 time=0
EXTRACT: note_on channel=9 note=42 velocity=95 time=0
EXTRACT: note_on channel=9 note=40 velocity=95 time=0
EXTRACT: note_on channel=0 note=66 velocity=95 time=0.1666665
EXTRACT: note_on channel=0 note=61 velocity=95 time=0
EXTRACT: note_on channel=0 note=57 velocity=95 time=0
EXTRACT: note_on channel=0 note=54 velocity=95 time=0
EXTRACT: note_off channel=6 note=61 velocity=95 time=0
EXTRACT: note_off channel=6 note=57 velocity=95 time=0
EXTRACT: note_on channel=6 note=61 velocity=95 time=0
EXTRACT: note_on channel=6 note=57 velocity=95 time=0
EXTRACT: note_off channel=12 note=35 velocity=95 time=0
EXTRACT: note_on channel=12 note=37 velocity=70 time=0
EXTRACT: note_off channel=9 note=42 velocity=95 time=0
EXTRACT: note_off channel=9 note=40 velocity=95 time=0
EXTRACT: note_on channel=9 note=42 velocity=95 time=0
EXTRACT: note_off channel=0 note=66 velocity=95 time=0.1666665
EXTRACT: note_off channel=0 note=61 velocity=95 time=0
EXTRACT: note_off channel=0 note=57 velocity=95 time=0
EXTRACT: note_off channel=0 note=54 velocity=95 time=0
EXTRACT: note_off channel=2 note=61 velocity=95 time=0
EXTRACT: note_off channel=2 note=61 velocity=95 time=0
EXTRACT: note_off channel=12 note=37 velocity=70 time=0
EXTRACT: note_on channel=12 note=30 velocity=95 time=0
EXTRACT: note_off channel=9 note=42 velocity=95 time=0
EXTRACT: note_on channel=9 note=42 velocity=95 time=0
EXTRACT: note_on channel=9 note=36 velocity=95 time=0
EXTRACT: note_on channel=0 note=66 velocity=95 time=0.1666665
EXTRACT: note_on channel=0 note=61 velocity=95 time=0
EXTRACT: note_on channel=0 note=57 velocity=95 time=0
EXTRACT: note_on channel=0 note=54 velocity=95 time=0
EXTRACT: note_off channel=6 note=61 velocity=95 time=0
EXTRACT: note_off channel=6 note=57 velocity=95 time=0
EXTRACT: note_on channel=6 note=61 velocity=95 time=0
EXTRACT: note_on channel=6 note=57 velocity=95 time=0
EXTRACT: note_off channel=9 note=42 velocity=95 time=0
EXTRACT: note_off channel=9 note=36 velocity=95 time=0
EXTRACT: note_off channel=0 note=66 velocity=95 time=0.1666665
EXTRACT: note_off channel=0 note=61 velocity=95 time=0
EXTRACT: note_off channel=0 note=57 velocity=95 time=0
EXTRACT: note_off channel=0 note=54 velocity=95 time=0
EXTRACT: note_on channel=9 note=42 velocity=95 time=0
EXTRACT: note_on channel=9 note=40 velocity=95 time=0
EXTRACT: note_on channel=0 note=66 velocity=95 time=0.1666665
EXTRACT: note_on channel=0 note=61 velocity=95 time=0
EXTRACT: note_on channel=0 note=57 velocity=95 time=0
EXTRACT: note_on channel=0 note=54 velocity=95 time=0
EXTRACT: note_off channel=6 note=61 velocity=95 time=0
EXTRACT: note_off channel=6 note=57 velocity=95 time=0
EXTRACT: note_on channel=6 note=63 velocity=95 time=0
EXTRACT: note_on channel=6 note=59 velocity=95 time=0
EXTRACT: note_off channel=12 note=30 velocity=95 time=0
EXTRACT: note_on channel=12 note=37 velocity=95 time=0
EXTRACT: note_off channel=9 note=42 velocity=95 time=0
EXTRACT: note_off channel=9 note=40 velocity=95 time=0
EXTRACT: note_on channel=9 note=42 velocity=95 time=0
EXTRACT: note_off channel=14 note=78 velocity=95 time=0.08333325
EXTRACT: note_off channel=14 note=66 velocity=95 time=0
EXTRACT: note_off channel=0 note=66 velocity=95 time=0.08333325
EXTRACT: note_off channel=0 note=61 velocity=95 time=0
EXTRACT: note_off channel=0 note=57 velocity=95 time=0
EXTRACT: note_off channel=0 note=54 velocity=95 time=0
EXTRACT: note_on channel=14 note=81 velocity=95 time=0
EXTRACT: note_on channel=14 note=69 velocity=95 time=0
EXTRACT: note_off channel=9 note=42 velocity=95 time=0
EXTRACT: note_on channel=9 note=42 velocity=95 time=0
EXTRACT: note_on channel=0 note=66 velocity=95 time=0.1666665
EXTRACT: note_on channel=0 note=61 velocity=95 time=0
EXTRACT: note_on channel=0 note=57 velocity=95 time=0
EXTRACT: note_on channel=0 note=54 velocity=95 time=0
EXTRACT: note_off channel=6 note=63 velocity=95 time=0
EXTRACT: note_off channel=6 note=59 velocity=95 time=0
EXTRACT: note_on channel=6 note=64 velocity=95 time=0
EXTRACT: note_on channel=6 note=61 velocity=95 time=0
EXTRACT: note_off channel=9 note=42 velocity=95 time=0
EXTRACT: note_on channel=9 note=36 velocity=95 time=0
EXTRACT: note_off channel=0 note=66 velocity=95 time=0.1666665
EXTRACT: note_off channel=0 note=61 velocity=95 time=0
EXTRACT: note_off channel=0 note=57 velocity=95 time=0
EXTRACT: note_off channel=0 note=54 velocity=95 time=0
EXTRACT: note_off channel=12 note=37 velocity=95 time=0
EXTRACT: note_on channel=12 note=35 velocity=95 time=0
EXTRACT: note_off channel=9 note=36 velocity=95 time=0
EXTRACT: note_on channel=9 note=42 velocity=95 time=0
EXTRACT: note_on channel=9 note=40 velocity=95 time=0
EXTRACT: note_on channel=0 note=66 velocity=95 time=0.1666665
EXTRACT: note_on channel=0 note=61 velocity=95 time=0
EXTRACT: note_on channel=0 note=57 velocity=95 time=0
EXTRACT: note_on channel=0 note=54 velocity=95 time=0
EXTRACT: note_off channel=6 note=64 velocity=95 time=0
EXTRACT: note_off channel=6 note=61 velocity=95 time=0
EXTRACT: note_on channel=6 note=64 velocity=95 time=0
EXTRACT: note_on channel=6 note=61 velocity=95 time=0
EXTRACT: note_off channel=12 note=35 velocity=95 time=0
EXTRACT: note_on channel=12 note=37 velocity=70 time=0
EXTRACT: note_off channel=9 note=42 velocity=95 time=0
EXTRACT: note_off channel=9 note=40 velocity=95 time=0
EXTRACT: note_on channel=9 note=42 velocity=95 time=0
EXTRACT: note_off channel=14 note=81 velocity=95 time=0.08333325
EXTRACT: note_off channel=14 note=69 velocity=95 time=0
EXTRACT: note_off channel=0 note=66 velocity=95 time=0.08333325
EXTRACT: note_off channel=0 note=61 velocity=95 time=0
EXTRACT: note_off channel=0 note=57 velocity=95 time=0
EXTRACT: note_off channel=0 note=54 velocity=95 time=0
EXTRACT: note_off channel=12 note=37 velocity=70 time=0
EXTRACT: note_on channel=12 note=32 velocity=95 time=0
EXTRACT: note_on channel=14 note=83 velocity=95 time=0
EXTRACT: note_on channel=14 note=71 velocity=95 time=0
EXTRACT: note_off channel=9 note=42 velocity=95 time=0
EXTRACT: note_on channel=9 note=42 velocity=95 time=0
EXTRACT: note_on channel=9 note=36 velocity=95 time=0
EXTRACT: note_on channel=0 note=68 velocity=95 time=0.1666665
EXTRACT: note_on channel=0 note=63 velocity=95 time=0
EXTRACT: note_on channel=0 note=59 velocity=95 time=0
EXTRACT: note_on channel=0 note=56 velocity=95 time=0
EXTRACT: note_off channel=9 note=42 velocity=95 time=0
EXTRACT: note_off channel=9 note=36 velocity=95 time=0
EXTRACT: note_off channel=6 note=64 velocity=95 time=0.1041665625
EXTRACT: note_off channel=6 note=61 velocity=95 time=0
EXTRACT: note_off channel=0 note=68 velocity=95 time=0.062499937500000005
EXTRACT: note_off channel=0 note=63 velocity=95 time=0
EXTRACT: note_off channel=0 note=59 velocity=95 time=0
EXTRACT: note_off channel=0 note=56 velocity=95 time=0
EXTRACT: note_on channel=6 note=63 velocity=95 time=0
EXTRACT: note_on channel=6 note=59 velocity=95 time=0
EXTRACT: note_on channel=9 note=42 velocity=95 time=0
EXTRACT: note_on channel=9 note=40 velocity=95 time=0
EXTRACT: note_on channel=0 note=68 velocity=95 time=0.1666665
EXTRACT: note_on channel=0 note=63 velocity=95 time=0
EXTRACT: note_on channel=0 note=59 velocity=95 time=0
EXTRACT: note_on channel=0 note=56 velocity=95 time=0
EXTRACT: note_off channel=6 note=63 velocity=95 time=0
EXTRACT: note_off channel=6 note=59 velocity=95 time=0
EXTRACT: note_on channel=6 note=63 velocity=95 time=0
EXTRACT: note_on channel=6 note=59 velocity=95 time=0
EXTRACT: note_off channel=12 note=32 velocity=95 time=0
EXTRACT: note_on channel=12 note=39 velocity=95 time=0
EXTRACT: note_off channel=9 note=42 velocity=95 time=0
EXTRACT: note_off channel=9 note=40 velocity=95 time=0
EXTRACT: note_on channel=9 note=42 velocity=95 time=0
EXTRACT: note_off channel=0 note=68 velocity=95 time=0.1666665
EXTRACT: note_off channel=0 note=63 velocity=95 time=0
EXTRACT: note_off channel=0 note=59 velocity=95 time=0
EXTRACT: note_off channel=0 note=56 velocity=95 time=0
EXTRACT: note_off channel=9 note=42 velocity=95 time=0
EXTRACT: note_on channel=9 note=42 velocity=95 time=0
EXTRACT: note_on channel=9 note=36 velocity=95 time=0
EXTRACT: note_on channel=0 note=68 velocity=95 time=0.1666665
EXTRACT: note_on channel=0 note=63 velocity=95 time=0
EXTRACT: note_on channel=0 note=59 velocity=95 time=0
EXTRACT: note_on channel=0 note=56 velocity=95 time=0
EXTRACT: note_off channel=6 note=63 velocity=95 time=0
EXTRACT: note_off channel=6 note=59 velocity=95 time=0
EXTRACT: note_on channel=6 note=61 velocity=95 time=0
EXTRACT: note_on channel=6 note=56 velocity=95 time=0
EXTRACT: note_off channel=9 note=42 velocity=95 time=0
EXTRACT: note_off channel=9 note=36 velocity=95 time=0
EXTRACT: note_off channel=0 note=68 velocity=95 time=0.1666665
EXTRACT: note_off channel=0 note=63 velocity=95 time=0
EXTRACT: note_off channel=0 note=59 velocity=95 time=0
EXTRACT: note_off channel=0 note=56 velocity=95 time=0
EXTRACT: note_off channel=6 note=61 velocity=95 time=0
EXTRACT: note_off channel=6 note=56 velocity=95 time=0
EXTRACT: note_on channel=6 note=63 velocity=95 time=0
EXTRACT: note_on channel=6 note=59 velocity=95 time=0
EXTRACT: note_off channel=12 note=39 velocity=95 time=0
EXTRACT: note_on channel=12 note=37 velocity=95 time=0
EXTRACT: note_on channel=9 note=42 velocity=95 time=0
EXTRACT: note_on channel=9 note=40 velocity=95 time=0
EXTRACT: note_on channel=0 note=68 velocity=95 time=0.1666665
EXTRACT: note_on channel=0 note=63 velocity=95 time=0
EXTRACT: note_on channel=0 note=59 velocity=95 time=0
EXTRACT: note_on channel=0 note=56 velocity=95 time=0
EXTRACT: note_off channel=12 note=37 velocity=95 time=0
EXTRACT: note_on channel=12 note=39 velocity=70 time=0
EXTRACT: note_off channel=9 note=42 velocity=95 time=0
EXTRACT: note_off channel=9 note=40 velocity=95 time=0
EXTRACT: note_on channel=9 note=42 velocity=95 time=0
EXTRACT: note_off channel=0 note=68 velocity=95 time=0.1666665
EXTRACT: note_off channel=0 note=63 velocity=95 time=0
EXTRACT: note_off channel=0 note=59 velocity=95 time=0
EXTRACT: note_off channel=0 note=56 velocity=95 time=0
EXTRACT: note_off channel=12 note=39 velocity=70 time=0
EXTRACT: note_on channel=12 note=32 velocity=95 time=0
EXTRACT: note_off channel=9 note=42 velocity=95 time=0
EXTRACT: note_on channel=9 note=42 velocity=95 time=0
EXTRACT: note_on channel=9 note=36 velocity=95 time=0
EXTRACT: note_on channel=0 note=68 velocity=95 time=0.1666665
EXTRACT: note_on channel=0 note=63 velocity=95 time=0
EXTRACT: note_on channel=0 note=59 velocity=95 time=0
EXTRACT: note_on channel=0 note=56 velocity=95 time=0
EXTRACT: note_off channel=9 note=42 velocity=95 time=0
EXTRACT: note_off channel=9 note=36 velocity=95 time=0
EXTRACT: note_off channel=0 note=68 velocity=95 time=0.1666665
EXTRACT: note_off channel=0 note=63 velocity=95 time=0
EXTRACT: note_off channel=0 note=59 velocity=95 time=0
EXTRACT: note_off channel=0 note=56 velocity=95 time=0
EXTRACT: note_on channel=9 note=42 velocity=95 time=0
EXTRACT: note_on channel=9 note=40 velocity=95 time=0
EXTRACT: note_on channel=0 note=68 velocity=95 time=0.1666665
EXTRACT: note_on channel=0 note=63 velocity=95 time=0
EXTRACT: note_on channel=0 note=59 velocity=95 time=0
EXTRACT: note_on channel=0 note=56 velocity=95 time=0
EXTRACT: note_on channel=2 note=61 velocity=95 time=0
EXTRACT: note_on channel=3 note=59 velocity=95 time=0
EXTRACT: note_off channel=12 note=32 velocity=95 time=0
EXTRACT: note_on channel=12 note=39 velocity=95 time=0
EXTRACT: note_off channel=9 note=42 velocity=95 time=0
EXTRACT: note_off channel=9 note=40 velocity=95 time=0
EXTRACT: note_on channel=9 note=42 velocity=95 time=0
EXTRACT: pitchwheel channel=3 pitch=256 time=0.041666625
EXTRACT: pitchwheel channel=3 pitch=640 time=0.041666625
EXTRACT: note_off channel=6 note=63 velocity=95 time=0
EXTRACT: note_off channel=6 note=59 velocity=95 time=0
EXTRACT: pitchwheel channel=3 pitch=1024 time=0.041666625
EXTRACT: note_off channel=0 note=68 velocity=95 time=0.041666625
EXTRACT: note_off channel=0 note=63 velocity=95 time=0
EXTRACT: note_off channel=0 note=59 velocity=95 time=0
EXTRACT: note_off channel=0 note=56 velocity=95 time=0
EXTRACT: note_off channel=2 note=61 velocity=95 time=0
EXTRACT: pitchwheel channel=3 pitch=1408 time=0
EXTRACT: pitchwheel channel=3 pitch=0 time=0
EXTRACT: note_off channel=3 note=59 velocity=95 time=0
EXTRACT: note_on channel=2 note=61 velocity=95 time=0
EXTRACT: note_on channel=2 note=61 velocity=95 time=0
EXTRACT: note_off channel=9 note=42 velocity=95 time=0
EXTRACT: note_on channel=9 note=42 velocity=95 time=0
EXTRACT: note_on channel=0 note=68 velocity=95 time=0.1666665
EXTRACT: note_on channel=0 note=63 velocity=95 time=0
EXTRACT: note_on channel=0 note=59 velocity=95 time=0
EXTRACT: note_on channel=0 note=56 velocity=95 time=0
EXTRACT: note_off channel=2 note=61 velocity=95 time=0
EXTRACT: note_off channel=2 note=61 velocity=95 time=0
EXTRACT: note_on channel=2 note=56 velocity=70 time=0
EXTRACT: note_off channel=9 note=42 velocity=95 time=0
EXTRACT: note_on channel=9 note=36 velocity=95 time=0
EXTRACT: note_off channel=14 note=83 velocity=95 time=0.08333325
EXTRACT: note_off channel=14 note=71 velocity=95 time=0
EXTRACT: note_off channel=0 note=68 velocity=95 time=0.08333325
EXTRACT: note_off channel=0 note=63 velocity=95 time=0
EXTRACT: note_off channel=0 note=59 velocity=95 time=0
EXTRACT: note_off channel=0 note=56 velocity=95 time=0
EXTRACT: note_off channel=2 note=56 velocity=70 time=0
EXTRACT: note_on channel=2 note=56 velocity=95 time=0
EXTRACT: note_off channel=12 note=39 velocity=95 time=0
EXTRACT: note_on channel=12 note=37 velocity=95 time=0
EXTRACT: note_on channel=14 note=80 velocity=95 time=0
EXTRACT: note_on channel=14 note=68 velocity=95 time=0
EXTRACT: note_off channel=9 note=36 velocity=95 time=0
EXTRACT: note_on channel=9 note=42 velocity=95 time=0
EXTRACT: note_on channel=9 note=40 velocity=95 time=0
EXTRACT: note_off channel=2 note=56 velocity=95 time=0.08333325
EXTRACT: note_on channel=2 note=54 velocity=70 time=0
EXTRACT: note_on channel=0 note=68 velocity=95 time=0.08333325
EXTRACT: note_on channel=0 note=63 velocity=95 time=0
EXTRACT: note_on channel=0 note=59 velocity=95 time=0
EXTRACT: note_on channel=0 note=56 velocity=95 time=0
EXTRACT: note_off channel=2 note=54 velocity=70 time=0
EXTRACT: note_on channel=2 note=52 velocity=70 time=0
EXTRACT: note_on channel=6 note=56 velocity=95 time=0
EXTRACT: note_off channel=12 note=37 velocity=95 time=0
EXTRACT: note_on channel=12 note=39 velocity=70 time=0
EXTRACT: note_off channel=9 note=42 velocity=95 time=0
EXTRACT: note_off channel=9 note=40 velocity=95 time=0
EXTRACT: note_on channel=9 note=42 velocity=95 time=0
EXTRACT: note_off channel=14 note=80 velocity=95 time=0.1041665625
EXTRACT: note_off channel=14 note=68 velocity=95 time=0
EXTRACT: note_off channel=0 note=68 velocity=95 time=0.062499937500000005
EXTRACT: note_off channel=0 note=63 velocity=95 time=0
EXTRACT: note_off channel=0 note=59 velocity=95 time=0
EXTRACT: note_off channel=0 note=56 velocity=95 time=0
EXTRACT: note_off channel=2 note=52 velocity=70 time=0
EXTRACT: note_on channel=3 note=59 velocity=95 time=0
EXTRACT: note_off channel=6 note=56 velocity=95 time=0
EXTRACT: note_on channel=6 note=61 velocity=95 time=0
EXTRACT: note_off channel=12 note=39 velocity=70 time=0
EXTRACT: note_on channel=12 note=33 velocity=95 time=0
EXTRACT: note_on channel=14 note=85 velocity=95 time=0
EXTRACT: note_on channel=14 note=73 velocity=95 time=0
EXTRACT: note_off channel=9 note=42 velocity=95 time=0
EXTRACT: note_on channel=9 note=42 velocity=95 time=0
EXTRACT: note_on channel=9 note=36 velocity=95 time=0
EXTRACT: pitchwheel channel=3 pitch=1408 time=0.041666625
EXTRACT: pitchwheel channel=3 pitch=0 time=0
EXTRACT: note_off channel=3 note=59 velocity=95 time=0
EXTRACT: note_on channel=2 note=61 velocity=95 time=0
EXTRACT: note_on channel=0 note=69 velocity=95 time=0.12499987500000001
EXTRACT: note_on channel=0 note=64 velocity=95 time=0
EXTRACT: note_on channel=0 note=61 velocity=95 time=0
EXTRACT: note_on channel=0 note=57 velocity=95 time=0
EXTRACT: note_off channel=9 note=42 velocity=95 time=0
EXTRACT: note_off channel=9 note=36 velocity=95 time=0
EXTRACT: note_off channel=6 note=61 velocity=95 time=0.1041665625
EXTRACT: note_off channel=0 note=69 velocity=95 time=0.062499937500000005
EXTRACT: note_off channel=0 note=64 velocity=95 time=0
EXTRACT: note_off channel=0 note=61 velocity=95 time=0
EXTRACT: note_off channel=0 note=57 velocity=95 time=0
EXTRACT: note_on channel=6 note=61 velocity=95 time=0
EXTRACT: note_on channel=9 note=42 velocity=95 time=0
EXTRACT: note_on channel=9 note=40 velocity=95 time=0
EXTRACT: note_on channel=0 note=69 velocity=95 time=0.1666665
EXTRACT: note_on channel=0 note=64 velocity=95 time=0
EXTRACT: note_on channel=0 note=61 velocity=95 time=0
EXTRACT: note_on channel=0 note=57 velocity=95 time=0
EXTRACT: note_off channel=6 note=61 velocity=95 time=0
EXTRACT: note_on channel=6 note=61 velocity=95 time=0
EXTRACT: note_off channel=12 note=33 velocity=95 time=0
EXTRACT: note_on channel=12 note=40 velocity=95 time=0
EXTRACT: note_off channel=9 note=42 velocity=95 time=0
EXTRACT: note_off channel=9 note=40 velocity=95 time=0
EXTRACT: note_on channel=9 note=42 velocity=95 time=0
EXTRACT: note_off channel=0 note=69 velocity=95 time=0.1666665
EXTRACT: note_off channel=0 note=64 velocity=95 time=0
EXTRACT: note_off channel=0 note=61 velocity=95 time=0
EXTRACT: note_off channel=0 note=57 velocity=95 time=0
EXTRACT: note_off channel=9 note=42 velocity=95 time=0
EXTRACT: note_on channel=9 note=42 velocity=95 time=0
EXTRACT: note_on channel=9 note=36 velocity=95 time=0
EXTRACT: note_on channel=0 note=69 velocity=95 time=0.1666665
EXTRACT: note_on channel=0 note=64 velocity=95 time=0
EXTRACT: note_on channel=0 note=61 velocity=95 time=0
EXTRACT: note_on channel=0 note=57 velocity=95 time=0
EXTRACT: note_off channel=6 note=61 velocity=95 time=0
EXTRACT: note_on channel=6 note=61 velocity=95 time=0
EXTRACT: note_off channel=9 note=42 velocity=95 time=0
EXTRACT: note_off channel=9 note=36 velocity=95 time=0
EXTRACT: note_off channel=0 note=69 velocity=95 time=0.1666665
EXTRACT: note_off channel=0 note=64 velocity=95 time=0
EXTRACT: note_off channel=0 note=61 velocity=95 time=0
EXTRACT: note_off channel=0 note=57 velocity=95 time=0
EXTRACT: note_off channel=12 note=40 velocity=95 time=0
EXTRACT: note_on channel=12 note=37 velocity=95 time=0
EXTRACT: note_on channel=9 note=42 velocity=95 time=0
EXTRACT: note_on channel=9 note=40 velocity=95 time=0
EXTRACT: note_on channel=0 note=69 velocity=95 time=0.1666665
EXTRACT: note_on channel=0 note=64 velocity=95 time=0
EXTRACT: note_on channel=0 note=61 velocity=95 time=0
EXTRACT: note_on channel=0 note=57 velocity=95 time=0
EXTRACT: note_off channel=6 note=61 velocity=95 time=0
EXTRACT: note_on channel=6 note=61 velocity=95 time=0
EXTRACT: note_off channel=12 note=37 velocity=95 time=0
EXTRACT: note_on channel=12 note=40 velocity=70 time=0
EXTRACT: note_off channel=9 note=42 velocity=95 time=0
EXTRACT: note_off channel=9 note=40 velocity=95 time=0
EXTRACT: note_on channel=9 note=42 velocity=95 time=0
EXTRACT: note_off channel=0 note=69 velocity=95 time=0.1666665
EXTRACT: note_off channel=0 note=64 velocity=95 time=0
EXTRACT: note_off channel=0 note=61 velocity=95 time=0
EXTRACT: note_off channel=0 note=57 velocity=95 time=0
EXTRACT: note_off channel=2 note=61 velocity=95 time=0
EXTRACT: note_off channel=12 note=40 velocity=70 time=0
EXTRACT: note_on channel=12 note=33 velocity=95 time=0
EXTRACT: note_off channel=9 note=42 velocity=95 time=0
EXTRACT: note_on channel=9 note=42 velocity=95 time=0
EXTRACT: note_on channel=9 note=36 velocity=95 time=0
EXTRACT: note_on channel=0 note=69 velocity=95 time=0.1666665
EXTRACT: note_on channel=0 note=64 velocity=95 time=0
EXTRACT: note_on channel=0 note=61 velocity=95 time=0
EXTRACT: note_on channel=0 note=57 velocity=95 time=0
EXTRACT: note_off channel=6 note=61 velocity=95 time=0
EXTRACT: note_on channel=6 note=61 velocity=95 time=0
EXTRACT: note_off channel=9 note=42 velocity=95 time=0
EXTRACT: note_off channel=9 note=36 velocity=95 time=0
EXTRACT: note_off channel=0 note=69 velocity=95 time=0.1666665
EXTRACT: note_off channel=0 note=64 velocity=95 time=0
EXTRACT: note_off channel=0 note=61 velocity=95 time=0
EXTRACT: note_off channel=0 note=57 velocity=95 time=0
EXTRACT: note_on channel=9 note=42 velocity=95 time=0
EXTRACT: note_on channel=9 note=40 velocity=95 time=0
EXTRACT: note_on channel=0 note=69 velocity=95 time=0.1666665
EXTRACT: note_on channel=0 note=64 velocity=95 time=0
EXTRACT: note_on channel=0 note=61 velocity=95 time=0
EXTRACT: note_on channel=0 note=57 velocity=95 time=0
EXTRACT: note_off channel=6 note=61 velocity=95 time=0
EXTRACT: note_on channel=6 note=63 velocity=95 time=0
EXTRACT: note_off channel=12 note=33 velocity=95 time=0
EXTRACT: note_on channel=12 note=40 velocity=95 time=0
EXTRACT: note_off channel=9 note=42 velocity=95 time=0
EXTRACT: note_off channel=9 note=40 velocity=95 time=0
EXTRACT: note_on channel=9 note=42 velocity=95 time=0
EXTRACT: note_off channel=0 note=69 velocity=95 time=0.1666665
EXTRACT: note_off channel=0 note=64 velocity=95 time=0
EXTRACT: note_off channel=0 note=61 velocity=95 time=0
EXTRACT: note_off channel=0 note=57 velocity=95 time=0
EXTRACT: note_off channel=9 note=42 velocity=95 time=0
EXTRACT: note_on channel=9 note=42 velocity=95 time=0
EXTRACT: note_on channel=0 note=69 velocity=95 time=0.1666665
EXTRACT: note_on channel=0 note=64 velocity=95 time=0
EXTRACT: note_on channel=0 note=61 velocity=95 time=0
EXTRACT: note_on channel=0 note=57 velocity=95 time=0
EXTRACT: note_off channel=6 note=63 velocity=95 time=0
EXTRACT: note_on channel=6 note=64 velocity=95 time=0
EXTRACT: note_off channel=9 note=42 velocity=95 time=0
EXTRACT: note_on channel=9 note=36 velocity=95 time=0
EXTRACT: note_off channel=0 note=69 velocity=95 time=0.1666665
EXTRACT: note_off channel=0 note=64 velocity=95 time=0
EXTRACT: note_off channel=0 note=61 velocity=95 time=0
EXTRACT: note_off channel=0 note=57 velocity=95 time=0
EXTRACT: note_off channel=12 note=40 velocity=95 time=0
EXTRACT: note_on channel=12 note=37 velocity=95 time=0
EXTRACT: note_off channel=9 note=36 velocity=95 time=0
EXTRACT: note_on channel=9 note=42 velocity=95 time=0
EXTRACT: note_on channel=9 note=40 velocity=95 time=0
EXTRACT: note_on channel=0 note=69 velocity=95 time=0.1666665
EXTRACT: note_on channel=0 note=64 velocity=95 time=0
EXTRACT: note_on channel=0 note=61 velocity=95 time=0
EXTRACT: note_on channel=0 note=57 velocity=95 time=0
EXTRACT: note_off channel=6 note=64 velocity=95 time=0
EXTRACT: note_on channel=6 note=68 velocity=95 time=0
EXTRACT: note_off channel=12 note=37 velocity=95 time=0
EXTRACT: note_on channel=12 note=40 velocity=70 time=0
EXTRACT: note_off channel=9 note=42 velocity=95 time=0
EXTRACT: note_off channel=9 note=40 velocity=95 time=0
EXTRACT: note_on channel=9 note=42 velocity=95 time=0
EXTRACT: note_off channel=14 note=85 velocity=95 time=0.08333325
EXTRACT: note_off channel=14 note=73 velocity=95 time=0
EXTRACT: note_off channel=0 note=69 velocity=95 time=0.08333325
EXTRACT: note_off channel=0 note=64 velocity=95 time=0
EXTRACT: note_off channel=0 note=61 velocity=95 time=0
EXTRACT: note_off channel=0 note=57 velocity=95 time=0
EXTRACT: note_off channel=12 note=40 velocity=70 time=0
EXTRACT: note_on channel=14 note=87 velocity=95 time=0
EXTRACT: note_on channel=14 note=75 velocity=95 time=0
EXTRACT: note_off channel=9 note=42 velocity=95 time=0
EXTRACT: note_on channel=9 note=42 velocity=95 time=0
EXTRACT: note_on channel=9 note=36 velocity=95 time=0
EXTRACT: note_on channel=0 note=71 velocity=95 time=0.1666665
EXTRACT: note_on channel=0 note=66 velocity=95 time=0
EXTRACT: note_on channel=0 note=63 velocity=95 time=0
EXTRACT: note_on channel=0 note=59 velocity=95 time=0
EXTRACT: note_on channel=12 note=35 velocity=95 time=0
EXTRACT: note_off channel=9 note=42 velocity=95 time=0
EXTRACT: note_off channel=9 note=36 velocity=95 time=0
EXTRACT: note_off channel=12 note=35 velocity=95 time=0.08333325
EXTRACT: note_off channel=6 note=68 velocity=95 time=0.0208333125
EXTRACT: note_off channel=0 note=71 velocity=95 time=0.062499937500000005
EXTRACT: note_off channel=0 note=66 velocity=95 time=0
EXTRACT: note_off channel=0 note=63 velocity=95 time=0
EXTRACT: note_off channel=0 note=59 velocity=95 time=0
EXTRACT: note_on channel=6 note=66 velocity=95 time=0
EXTRACT: note_on channel=12 note=35 velocity=95 time=0
EXTRACT: note_on channel=9 note=42 velocity=95 time=0
EXTRACT: note_on channel=9 note=40 velocity=95 time=0
EXTRACT: note_off channel=12 note=35 velocity=95 time=0.08333325
EXTRACT: note_on channel=0 note=71 velocity=95 time=0.08333325
EXTRACT: note_on channel=0 note=66 velocity=95 time=0
EXTRACT: note_on channel=0 note=63 velocity=95 time=0
EXTRACT: note_on channel=0 note=59 velocity=95 time=0
EXTRACT: note_off channel=6 note=66 velocity=95 time=0
EXTRACT: note_on channel=6 note=66 velocity=95 time=0
EXTRACT: note_on channel=12 note=35 velocity=95 time=0
EXTRACT: note_off channel=9 note=42 velocity=95 time=0
EXTRACT: note_off channel=9 note=40 velocity=95 time=0
EXTRACT: note_on channel=9 note=42 velocity=95 time=0
EXTRACT: note_off channel=12 note=35 velocity=95 time=0.08333325
EXTRACT: note_off channel=0 note=71 velocity=95 time=0.08333325
EXTRACT: note_off channel=0 note=66 velocity=95 time=0
EXTRACT: note_off channel=0 note=63 velocity=95 time=0
EXTRACT: note_off channel=0 note=59 velocity=95 time=0
EXTRACT: note_on channel=12 note=35 velocity=95 time=0
EXTRACT: note_off channel=9 note=42 velocity=95 time=0
EXTRACT: note_on channel=9 note=42 velocity=95 time=0
EXTRACT: note_on channel=9 note=36 velocity=95 time=0
EXTRACT: note_off channel=12 note=35 velocity=95 time=0.08333325
EXTRACT: note_on channel=0 note=71 velocity=95 time=0.08333325
EXTRACT: note_on channel=0 note=66 velocity=95 time=0
EXTRACT: note_on channel=0 note=63 velocity=95 time=0
EXTRACT: note_on channel=0 note=59 velocity=95 time=0
EXTRACT: note_off channel=6 note=66 velocity=95 time=0
EXTRACT: note_on channel=6 note=64 velocity=95 time=0
EXTRACT: note_on channel=12 note=35 velocity=95 time=0
EXTRACT: note_off channel=9 note=42 velocity=95 time=0
EXTRACT: note_off channel=9 note=36 velocity=95 time=0
EXTRACT: note_off channel=12 note=35 velocity=95 time=0.08333325
EXTRACT: note_off channel=0 note=71 velocity=95 time=0.08333325
EXTRACT: note_off channel=0 note=66 velocity=95 time=0
EXTRACT: note_off channel=0 note=63 velocity=95 time=0
EXTRACT: note_off channel=0 note=59 velocity=95 time=0
EXTRACT: note_on channel=12 note=35 velocity=95 time=0
EXTRACT: note_on channel=9 note=42 velocity=95 time=0
EXTRACT: note_on channel=9 note=40 velocity=95 time=0
EXTRACT: note_off channel=12 note=35 velocity=95 time=0.08333325
EXTRACT: note_on channel=0 note=71 velocity=95 time=0.08333325
EXTRACT: note_on channel=0 note=66 velocity=95 time=0
EXTRACT: note_on channel=0 note=63 velocity=95 time=0
EXTRACT: note_on channel=0 note=59 velocity=95 time=0
EXTRACT: note_off channel=6 note=64 velocity=95 time=0
EXTRACT: note_on channel=6 note=66 velocity=95 time=0
EXTRACT: note_on channel=12 note=35 velocity=95 time=0
EXTRACT: note_off channel=9 note=42 velocity=95 time=0
EXTRACT: note_off channel=9 note=40 velocity=95 time=0
EXTRACT: note_on channel=9 note=42 velocity=95 time=0
EXTRACT: note_off channel=12 note=35 velocity=95 time=0.08333325
EXTRACT: note_off channel=0 note=71 velocity=95 time=0.08333325
EXTRACT: note_off channel=0 note=66 velocity=95 time=0
EXTRACT: note_off channel=0 note=63 velocity=95 time=0
EXTRACT: note_off channel=0 note=59 velocity=95 time=0
EXTRACT: note_off channel=9 note=42 velocity=95 time=0
EXTRACT: note_on channel=9 note=42 velocity=95 time=0
EXTRACT: note_on channel=9 note=36 velocity=95 time=0
EXTRACT: note_on channel=0 note=71 velocity=95 time=0.1666665
EXTRACT: note_on channel=0 note=66 velocity=95 time=0
EXTRACT: note_on channel=0 note=63 velocity=95 time=0
EXTRACT: note_on channel=0 note=59 velocity=95 time=0
EXTRACT: note_on channel=12 note=35 velocity=95 time=0
EXTRACT: note_off channel=9 note=42 velocity=95 time=0
EXTRACT: note_off channel=9 note=36 velocity=95 time=0
EXTRACT: note_off channel=12 note=35 velocity=95 time=0.08333325
EXTRACT: note_off channel=0 note=71 velocity=95 time=0.08333325
EXTRACT: note_off channel=0 note=66 velocity=95 time=0
EXTRACT: note_off channel=0 note=63 velocity=95 time=0
EXTRACT: note_off channel=0 note=59 velocity=95 time=0
EXTRACT: note_on channel=12 note=35 velocity=95 time=0
EXTRACT: note_on channel=9 note=42 velocity=95 time=0
EXTRACT: note_on channel=9 note=40 velocity=95 time=0
EXTRACT: note_off channel=12 note=35 velocity=95 time=0.08333325
EXTRACT: note_on channel=0 note=71 velocity=95 time=0.08333325
EXTRACT: note_on channel=0 note=66 velocity=95 time=0
EXTRACT: note_on channel=0 note=63 velocity=95 time=0
EXTRACT: note_on channel=0 note=59 velocity=95 time=0
EXTRACT: note_on channel=12 note=35 velocity=95 time=0
EXTRACT: note_off channel=9 note=42 velocity=95 time=0
EXTRACT: note_off channel=9 note=40 velocity=95 time=0
EXTRACT: note_on channel=9 note=42 velocity=95 time=0
EXTRACT: note_off channel=12 note=35 velocity=95 time=0.08333325
EXTRACT: note_off channel=0 note=71 velocity=95 time=0.08333325
EXTRACT: note_off channel=0 note=66 velocity=95 time=0
EXTRACT: note_off channel=0 note=63 velocity=95 time=0
EXTRACT: note_off channel=0 note=59 velocity=95 time=0
EXTRACT: note_on channel=12 note=35 velocity=95 time=0
EXTRACT: note_off channel=9 note=42 velocity=95 time=0
EXTRACT: note_on channel=9 note=42 velocity=95 time=0
EXTRACT: note_off channel=6 note=66 velocity=95 time=0.08333325
EXTRACT: note_off channel=12 note=35 velocity=95 time=0
EXTRACT: note_on channel=0 note=71 velocity=95 time=0.08333325
EXTRACT: note_on channel=0 note=66 velocity=95 time=0
EXTRACT: note_on channel=0 note=63 velocity=95 time=0
EXTRACT: note_on channel=0 note=59 velocity=95 time=0
EXTRACT: note_on channel=6 note=64 velocity=95 time=0
EXTRACT: note_on channel=12 note=35 velocity=95 time=0
EXTRACT: note_off channel=9 note=42 velocity=95 time=0
EXTRACT: note_on channel=9 note=36 velocity=95 time=0
EXTRACT: note_off channel=12 note=35 velocity=95 time=0.08333325
EXTRACT: note_off channel=0 note=71 velocity=95 time=0.08333325
EXTRACT: note_off channel=0 note=66 velocity=95 time=0
EXTRACT: note_off channel=0 note=63 velocity=95 time=0
EXTRACT: note_off channel=0 note=59 velocity=95 time=0
EXTRACT: note_off channel=6 note=64 velocity=95 time=0
EXTRACT: note_on channel=6 note=66 velocity=95 time=0
EXTRACT: note_on channel=12 note=35 velocity=95 time=0
EXTRACT: note_off channel=9 note=36 velocity=95 time=0
EXTRACT: note_on channel=9 note=42 velocity=95 time=0
EXTRACT: note_on channel=9 note=40 velocity=95 time=0
EXTRACT: note_off channel=12 note=35 velocity=95 time=0.08333325
EXTRACT: note_on channel=0 note=71 velocity=95 time=0.08333325
EXTRACT: note_on channel=0 note=66 velocity=95 time=0
EXTRACT: note_on channel=0 note=63 velocity=95 time=0
EXTRACT: note_on channel=0 note=59 velocity=95 time=0
EXTRACT: note_off channel=6 note=66 velocity=95 time=0
EXTRACT: note_on channel=6 note=68 velocity=95 time=0
EXTRACT: note_on channel=12 note=35 velocity=95 time=0
EXTRACT: note_off channel=9 note=42 velocity=95 time=0
EXTRACT: note_off channel=9 note=40 velocity=95 time=0
EXTRACT: note_on channel=9 note=42 velocity=95 time=0
EXTRACT: note_off channel=12 note=35 velocity=95 time=0.08333325
EXTRACT: note_off channel=14 note=87 velocity=95 time=0
EXTRACT: note_off channel=14 note=75 velocity=95 time=0
EXTRACT: note_off channel=0 note=71 velocity=95 time=0.08333325
EXTRACT: note_off channel=0 note=66 velocity=95 time=0
EXTRACT: note_off channel=0 note=63 velocity=95 time=0
EXTRACT: note_off channel=0 note=59 velocity=95 time=0
EXTRACT: note_off channel=9 note=42 velocity=95 time=0
EXTRACT: note_on channel=9 note=42 velocity=95 time=0
EXTRACT: note_on channel=9 note=36 velocity=95 time=0
EXTRACT: note_on channel=0 note=68 velocity=95 time=0.1666665
EXTRACT: note_on channel=0 note=63 velocity=95 time=0
EXTRACT: note_on channel=0 note=61 velocity=95 time=0
EXTRACT: note_on channel=0 note=56 velocity=95 time=0
EXTRACT: note_off channel=6 note=68 velocity=95 time=0
EXTRACT: note_on channel=6 note=66 velocity=95 time=0
EXTRACT: note_on channel=12 note=32 velocity=95 time=0
EXTRACT: note_on channel=14 note=80 velocity=95 time=0
EXTRACT: note_off channel=9 note=42 velocity=95 time=0
EXTRACT: note_off channel=9 note=36 velocity=95 time=0
EXTRACT: note_off channel=12 note=32 velocity=95 time=0.08333325
EXTRACT: note_off channel=0 note=68 velocity=95 time=0.08333325
EXTRACT: note_off channel=0 note=63 velocity=95 time=0
EXTRACT: note_off channel=0 note=61 velocity=95 time=0
EXTRACT: note_off channel=0 note=56 velocity=95 time=0
EXTRACT: note_on channel=0 note=68 velocity=95 time=0
EXTRACT: note_on channel=0 note=63 velocity=95 time=0
EXTRACT: note_on channel=0 note=61 velocity=95 time=0
EXTRACT: note_on channel=0 note=56 velocity=95 time=0
EXTRACT: note_on channel=12 note=32 velocity=95 time=0
EXTRACT: note_off channel=14 note=80 velocity=95 time=0
EXTRACT: note_on channel=14 note=80 velocity=95 time=0
EXTRACT: note_on channel=9 note=42 velocity=95 time=0
EXTRACT: note_on channel=9 note=40 velocity=95 time=0
EXTRACT: note_off channel=12 note=32 velocity=95 time=0.08333325
EXTRACT: note_off channel=0 note=68 velocity=95 time=0.08333325
EXTRACT: note_off channel=0 note=63 velocity=95 time=0
EXTRACT: note_off channel=0 note=61 velocity=95 time=0
EXTRACT: note_off channel=0 note=56 velocity=95 time=0
EXTRACT: note_off channel=6 note=66 velocity=95 time=0
EXTRACT: note_on channel=6 note=66 velocity=95 time=0
EXTRACT: note_on channel=12 note=32 velocity=95 time=0
EXTRACT: note_off channel=14 note=80 velocity=95 time=0
EXTRACT: note_off channel=9 note=42 velocity=95 time=0
EXTRACT: note_off channel=9 note=40 velocity=95 time=0
EXTRACT: note_on channel=9 note=42 velocity=95 time=0
EXTRACT: note_off channel=12 note=32 velocity=95 time=0.08333325
EXTRACT: note_on channel=0 note=68 velocity=95 time=0.08333325
EXTRACT: note_on channel=0 note=63 velocity=95 time=0
EXTRACT: note_on channel=0 note=61 velocity=95 time=0
EXTRACT: note_on channel=0 note=56 velocity=95 time=0
EXTRACT: note_on channel=12 note=32 velocity=95 time=0
EXTRACT: note_on channel=14 note=80 velocity=95 time=0
EXTRACT: note_off channel=9 note=42 velocity=95 time=0
EXTRACT: note_on channel=9 note=42 velocity=95 time=0
EXTRACT: note_on channel=9 note=36 velocity=95 time=0
EXTRACT: note_off channel=12 note=32 velocity=95 time=0.08333325
EXTRACT: note_off channel=0 note=68 velocity=95 time=0.08333325
EXTRACT: note_off channel=0 note=63 velocity=95 time=0
EXTRACT: note_off channel=0 note=61 velocity=95 time=0
EXTRACT: note_off channel=0 note=56 velocity=95 time=0
EXTRACT: note_off channel=6 note=66 velocity=95 time=0
EXTRACT: note_on channel=6 note=64 velocity=95 time=0
EXTRACT: note_on channel=12 note=32 velocity=95 time=0
EXTRACT: note_off channel=14 note=80 velocity=95 time=0
EXTRACT: note_off channel=9 note=42 velocity=95 time=0
EXTRACT: note_off channel=9 note=36 velocity=95 time=0
EXTRACT: note_off channel=12 note=32 velocity=95 time=0.08333325
EXTRACT: note_on channel=12 note=32 velocity=95 time=0.08333325
EXTRACT: note_on channel=9 note=42 velocity=95 time=0
EXTRACT: note_on channel=9 note=40 velocity=95 time=0
EXTRACT: note_off channel=12 note=32 velocity=95 time=0.08333325
EXTRACT: note_on channel=0 note=68 velocity=95 time=0.08333325
EXTRACT: note_on channel=0 note=63 velocity=95 time=0
EXTRACT: note_on channel=0 note=61 velocity=95 time=0
EXTRACT: note_on channel=0 note=56 velocity=95 time=0
EXTRACT: note_on channel=3 note=59 velocity=95 time=0
EXTRACT: note_off channel=6 note=64 velocity=95 time=0
EXTRACT: note_on channel=6 note=68 velocity=95 time=0
EXTRACT: note_on channel=12 note=32 velocity=95 time=0
EXTRACT: note_on channel=14 note=80 velocity=95 time=0
EXTRACT: note_off channel=9 note=42 velocity=95 time=0
EXTRACT: note_off channel=9 note=40 velocity=95 time=0
EXTRACT: note_on channel=9 note=42 velocity=95 time=0
EXTRACT: pitchwheel channel=3 pitch=1408 time=0.041666625
EXTRACT: pitchwheel channel=3 pitch=0 time=0
EXTRACT: note_off channel=3 note=59 velocity=95 time=0
EXTRACT: note_on channel=2 note=61 velocity=95 time=0
EXTRACT: note_on channel=2 note=61 velocity=95 time=0
EXTRACT: note_off channel=12 note=32 velocity=95 time=0.041666625
EXTRACT: note_off channel=0 note=68 velocity=95 time=0.08333325
EXTRACT: note_off channel=0 note=63 velocity=95 time=0
EXTRACT: note_off channel=0 note=61 velocity=95 time=0
EXTRACT: note_off channel=0 note=56 velocity=95 time=0
EXTRACT: note_on channel=12 note=32 velocity=95 time=0
EXTRACT: note_off channel=14 note=80 velocity=95 time=0
EXTRACT: note_off channel=9 note=42 velocity=95 time=0
EXTRACT: note_on channel=9 note=42 velocity=95 time=0
EXTRACT: note_on channel=9 note=36 velocity=95 time=0
EXTRACT: note_off channel=6 note=68 velocity=95 time=0.1041665625
EXTRACT: note_off channel=2 note=61 velocity=95 time=0.062499937500000005
EXTRACT: note_off channel=2 note=61 velocity=95 time=0
EXTRACT: note_on channel=2 note=61 velocity=95 time=0
EXTRACT: note_on channel=2 note=61 velocity=95 time=0
EXTRACT: note_on channel=14 note=80 velocity=95 time=0
EXTRACT: note_off channel=9 note=42 velocity=95 time=0
EXTRACT: note_off channel=9 note=36 velocity=95 time=0
EXTRACT: note_on channel=0 note=68 velocity=95 time=0.1666665
EXTRACT: note_on channel=0 note=63 velocity=95 time=0
EXTRACT: note_on channel=0 note=61 velocity=95 time=0
EXTRACT: note_on channel=0 note=56 velocity=95 time=0
EXTRACT: note_off channel=2 note=61 velocity=95 time=0
EXTRACT: note_off channel=2 note=61 velocity=95 time=0
EXTRACT: note_on channel=2 note=61 velocity=95 time=0
EXTRACT: note_on channel=2 note=61 velocity=95 time=0
EXTRACT: note_on channel=6 note=68 velocity=95 time=0
EXTRACT: note_off channel=14 note=80 velocity=95 time=0
EXTRACT: note_on channel=9 note=42 velocity=95 time=0
EXTRACT: note_on channel=9 note=40 velocity=95 time=0
EXTRACT: note_off channel=0 note=68 velocity=95 time=0.1666665
EXTRACT: note_off channel=0 note=63 velocity=95 time=0
EXTRACT: note_off channel=0 note=61 velocity=95 time=0
EXTRACT: note_off channel=0 note=56 velocity=95 time=0
EXTRACT: note_off channel=2 note=61 velocity=95 time=0
EXTRACT: note_off channel=2 note=61 velocity=95 time=0
EXTRACT: note_on channel=2 note=61 velocity=95 time=0
EXTRACT: note_on channel=2 note=61 velocity=95 time=0
EXTRACT: note_off channel=6 note=68 velocity=95 time=0
EXTRACT: note_on channel=6 note=68 velocity=95 time=0
EXTRACT: note_off channel=12 note=32 velocity=95 time=0
EXTRACT: note_off channel=9 note=42 velocity=95 time=0
EXTRACT: note_off channel=9 note=40 velocity=95 time=0
EXTRACT: note_on channel=9 note=42 velocity=95 time=0
EXTRACT: note_off channel=2 note=61 velocity=95 time=0.1666665
EXTRACT: note_off channel=2 note=61 velocity=95 time=0
EXTRACT: note_on channel=2 note=64 velocity=95 time=0
EXTRACT: note_on channel=14 note=80 velocity=95 time=0
EXTRACT: note_off channel=9 note=42 velocity=95 time=0
EXTRACT: note_on channel=9 note=42 velocity=95 time=0
EXTRACT: note_off channel=2 note=64 velocity=95 time=0.1666665
EXTRACT: note_on channel=2 note=61 velocity=95 time=0
EXTRACT: note_off channel=14 note=80 velocity=95 time=0
EXTRACT: note_off channel=9 note=42 velocity=95 time=0
EXTRACT: note_on channel=9 note=36 velocity=95 time=0
EXTRACT: note_off channel=6 note=68 velocity=95 time=0.1041665625
EXTRACT: note_off channel=2 note=61 velocity=95 time=0.062499937500000005
EXTRACT: note_on channel=2 note=61 velocity=95 time=0
EXTRACT: note_on channel=3 note=59 velocity=95 time=0
EXTRACT: note_on channel=14 note=80 velocity=95 time=0
EXTRACT: note_off channel=9 note=36 velocity=95 time=0
EXTRACT: note_on channel=9 note=42 velocity=95 time=0
EXTRACT: note_on channel=9 note=40 velocity=95 time=0
EXTRACT: pitchwheel channel=3 pitch=256 time=0.041666625
EXTRACT: pitchwheel channel=3 pitch=640 time=0.041666625
EXTRACT: pitchwheel channel=3 pitch=1024 time=0.041666625
EXTRACT: note_off channel=2 note=61 velocity=95 time=0.041666625
EXTRACT: pitchwheel channel=3 pitch=1408 time=0
EXTRACT: pitchwheel channel=3 pitch=0 time=0
EXTRACT: note_off channel=3 note=59 velocity=95 time=0
EXTRACT: note_on channel=2 note=61 velocity=95 time=0
EXTRACT: note_off channel=14 note=80 velocity=95 time=0
EXTRACT: note_off channel=9 note=42 velocity=95 time=0
EXTRACT: note_off channel=9 note=40 velocity=95 time=0
EXTRACT: note_on channel=9 note=42 velocity=95 time=0
EXTRACT: note_on channel=4 note=64 velocity=95 time=0.1666665
EXTRACT: note_on channel=4 note=61 velocity=95 time=0
EXTRACT: note_on channel=4 note=56 velocity=95 time=0
EXTRACT: note_on channel=4 note=49 velocity=95 time=0
EXTRACT: note_on channel=6 note=68 velocity=95 time=0
EXTRACT: note_on channel=6 note=64 velocity=95 time=0
EXTRACT: note_on channel=12 note=37 velocity=95 time=0
EXTRACT: note_off channel=9 note=42 velocity=95 time=0
EXTRACT: note_on channel=9 note=42 velocity=95 time=0
EXTRACT: note_on channel=9 note=36 velocity=95 time=0
EXTRACT: note_on channel=0 note=73 velocity=95 time=0.1666665
EXTRACT: note_on channel=0 note=68 velocity=95 time=0
EXTRACT: note_on channel=0 note=64 velocity=95 time=0
EXTRACT: note_on channel=0 note=61 velocity=95 time=0
EXTRACT: note_off channel=4 note=64 velocity=95 time=0
EXTRACT: note_off channel=4 note=61 velocity=95 time=0
EXTRACT: note_off channel=4 note=56 velocity=95 time=0
EXTRACT: note_off channel=4 note=49 velocity=95 time=0
EXTRACT: note_on channel=4 note=56 velocity=95 time=0
EXTRACT: note_on channel=4 note=52 velocity=95 time=0
EXTRACT: note_on channel=4 note=47 velocity=95 time=0
EXTRACT: note_off channel=9 note=42 velocity=95 time=0
EXTRACT: note_off channel=9 note=36 velocity=95 time=0
EXTRACT: note_off channel=4 note=56 velocity=95 time=0.031249968750000003
EXTRACT: note_off channel=4 note=52 velocity=95 time=0
EXTRACT: note_off channel=4 note=47 velocity=95 time=0
EXTRACT: note_off channel=0 note=73 velocity=95 time=0.13541653125
EXTRACT: note_off channel=0 note=68 velocity=95 time=0
EXTRACT: note_off channel=0 note=64 velocity=95 time=0
EXTRACT: note_off channel=0 note=61 velocity=95 time=0
EXTRACT: note_on channel=4 note=56 velocity=95 time=0
EXTRACT: note_on channel=4 note=52 velocity=95 time=0
EXTRACT: note_on channel=4 note=47 velocity=95 time=0
EXTRACT: note_on channel=9 note=42 velocity=95 time=0
EXTRACT: note_on channel=9 note=40 velocity=95 time=0
EXTRACT: note_off channel=4 note=56 velocity=95 time=0.031249968750000003
EXTRACT: note_off channel=4 note=52 velocity=95 time=0
EXTRACT: note_off channel=4 note=47 velocity=95 time=0
EXTRACT: note_off channel=6 note=68 velocity=95 time=0.07291659375000001
EXTRACT: note_off channel=6 note=64 velocity=95 time=0
EXTRACT: note_on channel=0 note=73 velocity=95 time=0.062499937500000005
EXTRACT: note_on channel=0 note=68 velocity=95 time=0
EXTRACT: note_on channel=0 note=64 velocity=95 time=0
EXTRACT: note_on channel=0 note=61 velocity=95 time=0
EXTRACT: note_on channel=4 note=64 velocity=95 time=0
EXTRACT: note_on channel=4 note=61 velocity=95 time=0
EXTRACT: note_on channel=4 note=56 velocity=95 time=0
EXTRACT: note_on channel=4 note=49 velocity=95 time=0
EXTRACT: note_on channel=6 note=68 velocity=95 time=0
EXTRACT: note_on channel=6 note=64 velocity=95 time=0
EXTRACT: note_off channel=12 note=37 velocity=95 time=0
EXTRACT: note_on channel=12 note=32 velocity=95 time=0
EXTRACT: note_off channel=9 note=42 velocity=95 time=0
EXTRACT: note_off channel=9 note=40 velocity=95 time=0
EXTRACT: note_on channel=9 note=42 velocity=95 time=0
EXTRACT: note_off channel=0 note=73 velocity=95 time=0.1666665
EXTRACT: note_off channel=0 note=68 velocity=95 time=0
EXTRACT: note_off channel=0 note=64 velocity=95 time=0
EXTRACT: note_off channel=0 note=61 velocity=95 time=0
EXTRACT: note_off channel=4 note=64 velocity=95 time=0
EXTRACT: note_off channel=4 note=61 velocity=95 time=0
EXTRACT: note_off channel=4 note=56 velocity=95 time=0
EXTRACT: note_off channel=4 note=49 velocity=95 time=0
EXTRACT: note_on channel=4 note=56 velocity=95 time=0
EXTRACT: note_on channel=4 note=52 velocity=95 time=0
EXTRACT: note_on channel=4 note=47 velocity=95 time=0
EXTRACT: note_off channel=9 note=42 velocity=95 time=0
EXTRACT: note_on channel=9 note=42 velocity=95 time=0
EXTRACT: note_on channel=9 note=36 velocity=95 time=0
EXTRACT: note_off channel=4 note=56 velocity=95 time=0.031249968750000003
EXTRACT: note_off channel=4 note=52 velocity=95 time=0
EXTRACT: note_off channel=4 note=47 velocity=95 time=0
EXTRACT: note_on channel=0 note=73 velocity=95 time=0.13541653125
EXTRACT: note_on channel=0 note=68 velocity=95 time=0
EXTRACT: note_on channel=0 note=64 velocity=95 time=0
EXTRACT: note_on channel=0 note=61 velocity=95 time=0
EXTRACT: note_on channel=4 note=56 velocity=95 time=0
EXTRACT: note_on channel=4 note=52 velocity=95 time=0
EXTRACT: note_on channel=4 note=47 velocity=95 time=0
EXTRACT: note_off channel=9 note=42 velocity=95 time=0
EXTRACT: note_off channel=9 note=36 velocity=95 time=0
EXTRACT: note_off channel=4 note=56 velocity=95 time=0.031249968750000003
EXTRACT: note_off channel=4 note=52 velocity=95 time=0
EXTRACT: note_off channel=4 note=47 velocity=95 time=0
EXTRACT: note_off channel=6 note=68 velocity=95 time=0.07291659375000001
EXTRACT: note_off channel=6 note=64 velocity=95 time=0
EXTRACT: note_off channel=0 note=73 velocity=95 time=0.062499937500000005
EXTRACT: note_off channel=0 note=68 velocity=95 time=0
EXTRACT: note_off channel=0 note=64 velocity=95 time=0
EXTRACT: note_off channel=0 note=61 velocity=95 time=0
EXTRACT: note_on channel=4 note=64 velocity=95 time=0
EXTRACT: note_on channel=4 note=61 velocity=95 time=0
EXTRACT: note_on channel=4 note=56 velocity=95 time=0
EXTRACT: note_on channel=4 note=49 velocity=95 time=0
EXTRACT: note_on channel=6 note=68 velocity=95 time=0
EXTRACT: note_on channel=6 note=64 velocity=95 time=0
EXTRACT: note_off channel=12 note=32 velocity=95 time=0
EXTRACT: note_on channel=12 note=35 velocity=95 time=0
EXTRACT: note_on channel=9 note=42 velocity=95 time=0
EXTRACT: note_on channel=9 note=40 velocity=95 time=0
EXTRACT: note_on channel=0 note=73 velocity=95 time=0.1666665
EXTRACT: note_on channel=0 note=68 velocity=95 time=0
EXTRACT: note_on channel=0 note=64 velocity=95 time=0
EXTRACT: note_on channel=0 note=61 velocity=95 time=0
EXTRACT: note_off channel=4 note=64 velocity=95 time=0
EXTRACT: note_off channel=4 note=61 velocity=95 time=0
EXTRACT: note_off channel=4 note=56 velocity=95 time=0
EXTRACT: note_off channel=4 note=49 velocity=95 time=0
EXTRACT: note_on channel=4 note=56 velocity=95 time=0
EXTRACT: note_on channel=4 note=52 velocity=95 time=0
EXTRACT: note_on channel=4 note=47 velocity=95 time=0
EXTRACT: note_off channel=9 note=42 velocity=95 time=0
EXTRACT: note_off channel=9 note=40 velocity=95 time=0
EXTRACT: note_on channel=9 note=42 velocity=95 time=0
EXTRACT: note_off channel=4 note=56 velocity=95 time=0.031249968750000003
EXTRACT: note_off channel=4 note=52 velocity=95 time=0
EXTRACT: note_off channel=4 note=47 velocity=95 time=0
EXTRACT: note_off channel=0 note=73 velocity=95 time=0.13541653125
EXTRACT: note_off channel=0 note=68 velocity=95 time=0
EXTRACT: note_off channel=0 note=64 velocity=95 time=0
EXTRACT: note_off channel=0 note=61 velocity=95 time=0
EXTRACT: note_off channel=2 note=61 velocity=95 time=0
EXTRACT: note_on channel=4 note=56 velocity=95 time=0
EXTRACT: note_on channel=4 note=52 velocity=95 time=0
EXTRACT: note_on channel=4 note=47 velocity=95 time=0
EXTRACT: note_off channel=9 note=42 velocity=95 time=0
EXTRACT: note_on channel=9 note=42 velocity=95 time=0
EXTRACT: note_on channel=9 note=36 velocity=95 time=0
EXTRACT: note_off channel=4 note=56 velocity=95 time=0.031249968750000003
EXTRACT: note_off channel=4 note=52 velocity=95 time=0
EXTRACT: note_off channel=4 note=47 velocity=95 time=0
EXTRACT: note_on channel=0 note=73 velocity=95 time=0.13541653125
EXTRACT: note_on channel=0 note=68 velocity=95 time=0
EXTRACT: note_on channel=0 note=64 velocity=95 time=0
EXTRACT: note_on channel=0 note=61 velocity=95 time=0
EXTRACT: note_on channel=2 note=52 velocity=95 time=0
EXTRACT: note_on channel=4 note=64 velocity=95 time=0
EXTRACT: note_on channel=4 note=61 velocity=95 time=0
EXTRACT: note_on channel=4 note=56 velocity=95 time=0
EXTRACT: note_on channel=4 note=49 velocity=95 time=0
EXTRACT: note_off channel=6 note=68 velocity=95 time=0
EXTRACT: note_off channel=6 note=64 velocity=95 time=0
EXTRACT: note_on channel=6 note=68 velocity=95 time=0
EXTRACT: note_on channel=6 note=64 velocity=95 time=0
EXTRACT: note_off channel=12 note=35 velocity=95 time=0
EXTRACT: note_on channel=12 note=37 velocity=95 time=0
EXTRACT: note_off channel=9 note=42 velocity=95 time=0
EXTRACT: note_off channel=9 note=36 velocity=95 time=0
EXTRACT: note_off channel=0 note=73 velocity=95 time=0.1666665
EXTRACT: note_off channel=0 note=68 velocity=95 time=0
EXTRACT: note_off channel=0 note=64 velocity=95 time=0
EXTRACT: note_off channel=0 note=61 velocity=95 time=0
EXTRACT: note_off channel=4 note=64 velocity=95 time=0
EXTRACT: note_off channel=4 note=61 velocity=95 time=0
EXTRACT: note_off channel=4 note=56 velocity=95 time=0
EXTRACT: note_off channel=4 note=49 velocity=95 time=0
EXTRACT: note_on channel=4 note=64 velocity=95 time=0
EXTRACT: note_on channel=4 note=61 velocity=95 time=0
EXTRACT: note_on channel=4 note=56 velocity=95 time=0
EXTRACT: note_on channel=4 note=49 velocity=95 time=0
EXTRACT: note_on channel=9 note=42 velocity=95 time=0
EXTRACT: note_on channel=9 note=40 velocity=95 time=0
EXTRACT: note_on channel=0 note=73 velocity=95 time=0.1666665
EXTRACT: note_on channel=0 note=68 velocity=95 time=0
EXTRACT: note_on channel=0 note=64 velocity=95 time=0
EXTRACT: note_on channel=0 note=61 velocity=95 time=0
EXTRACT: note_off channel=2 note=52 velocity=95 time=0
EXTRACT: note_on channel=2 note=56 velocity=95 time=0
EXTRACT: note_off channel=4 note=64 velocity=95 time=0
EXTRACT: note_off channel=4 note=61 velocity=95 time=0
EXTRACT: note_off channel=4 note=56 velocity=95 time=0
EXTRACT: note_off channel=4 note=49 velocity=95 time=0
EXTRACT: note_on channel=4 note=64 velocity=95 time=0
EXTRACT: note_on channel=4 note=61 velocity=95 time=0
EXTRACT: note_on channel=4 note=56 velocity=95 time=0
EXTRACT: note_on channel=4 note=49 velocity=95 time=0
EXTRACT: note_off channel=12 note=37 velocity=95 time=0
EXTRACT: note_on channel=12 note=37 velocity=95 time=0
EXTRACT: note_off channel=9 note=42 velocity=95 time=0
EXTRACT: note_off channel=9 note=40 velocity=95 time=0
EXTRACT: note_on channel=9 note=42 velocity=95 time=0
EXTRACT: note_off channel=6 note=68 velocity=95 time=0.1041665625
EXTRACT: note_off channel=6 note=64 velocity=95 time=0
EXTRACT: note_off channel=0 note=73 velocity=95 time=0.062499937500000005
EXTRACT: note_off channel=0 note=68 velocity=95 time=0
EXTRACT: note_off channel=0 note=64 velocity=95 time=0
EXTRACT: note_off channel=0 note=61 velocity=95 time=0
EXTRACT: note_off channel=2 note=56 velocity=95 time=0
EXTRACT: note_on channel=3 note=55 velocity=95 time=0
EXTRACT: note_off channel=4 note=64 velocity=95 time=0
EXTRACT: note_off channel=4 note=61 velocity=95 time=0
EXTRACT: note_off channel=4 note=56 velocity=95 time=0
EXTRACT: note_off channel=4 note=49 velocity=95 time=0
EXTRACT: note_on channel=4 note=64 velocity=95 time=0
EXTRACT: note_on channel=4 note=61 velocity=95 time=0
EXTRACT: note_on channel=4 note=56 velocity=95 time=0
EXTRACT: note_on channel=4 note=49 velocity=95 time=0
EXTRACT: note_on channel=6 note=68 velocity=95 time=0
EXTRACT: note_on channel=6 note=64 velocity=95 time=0
EXTRACT: note_off channel=12 note=37 velocity=95 time=0
EXTRACT: note_on channel=12 note=40 velocity=95 time=0
EXTRACT: note_off channel=9 note=42 velocity=95 time=0
EXTRACT: note_on channel=9 note=42 velocity=95 time=0
EXTRACT: pitchwheel channel=3 pitch=-640 time=0.041666625
EXTRACT: pitchwheel channel=3 pitch=0 time=0
EXTRACT: note_off channel=3 note=55 velocity=95 time=0
EXTRACT: note_on channel=2 note=54 velocity=95 time=0
EXTRACT: note_on channel=0 note=73 velocity=95 time=0.12499987500000001
EXTRACT: note_on channel=0 note=68 velocity=95 time=0
EXTRACT: note_on channel=0 note=64 velocity=95 time=0
EXTRACT: note_on channel=0 note=61 velocity=95 time=0
EXTRACT: note_off channel=2 note=54 velocity=95 time=0
EXTRACT: note_on channel=2 note=52 velocity=70 time=0
EXTRACT: note_off channel=4 note=64 velocity=95 time=0
EXTRACT: note_off channel=4 note=61 velocity=95 time=0
EXTRACT: note_off channel=4 note=56 velocity=95 time=0
EXTRACT: note_off channel=4 note=49 velocity=95 time=0
EXTRACT: note_on channel=4 note=56 velocity=95 time=0
EXTRACT: note_on channel=4 note=52 velocity=95 time=0
EXTRACT: note_on channel=4 note=47 velocity=95 time=0
EXTRACT: note_off channel=12 note=40 velocity=95 time=0
EXTRACT: note_on channel=12 note=39 velocity=95 time=0
EXTRACT: note_off channel=9 note=42 velocity=95 time=0
EXTRACT: note_on channel=9 note=36 velocity=95 time=0
EXTRACT: note_off channel=4 note=56 velocity=95 time=0.031249968750000003
EXTRACT: note_off channel=4 note=52 velocity=95 time=0
EXTRACT: note_off channel=4 note=47 velocity=95 time=0
EXTRACT: note_off channel=0 note=73 velocity=95 time=0.13541653125
EXTRACT: note_off channel=0 note=68 velocity=95 time=0
EXTRACT: note_off channel=0 note=64 velocity=95 time=0
EXTRACT: note_off channel=0 note=61 velocity=95 time=0
EXTRACT: note_off channel=2 note=52 velocity=70 time=0
EXTRACT: note_on channel=3 note=49 velocity=95 time=0
EXTRACT: note_on channel=4 note=56 velocity=95 time=0
EXTRACT: note_on channel=4 note=52 velocity=95 time=0
EXTRACT: note_on channel=4 note=47 velocity=95 time=0
EXTRACT: note_off channel=12 note=39 velocity=95 time=0
EXTRACT: note_on channel=12 note=37 velocity=95 time=0
EXTRACT: note_on channel=14 note=80 velocity=95 time=0
EXTRACT: note_on channel=14 note=73 velocity=95 time=0
EXTRACT: note_off channel=9 note=36 velocity=95 time=0
EXTRACT: note_on channel=9 note=42 velocity=95 time=0
EXTRACT: note_on channel=9 note=40 velocity=95 time=0
EXTRACT: note_off channel=4 note=56 velocity=95 time=0.031249968750000003
EXTRACT: note_off channel=4 note=52 velocity=95 time=0
EXTRACT: note_off channel=4 note=47 velocity=95 time=0
EXTRACT: pitchwheel channel=3 pitch=0 time=0.02430553125
EXTRACT: note_off channel=6 note=68 velocity=95 time=0.0486110625
EXTRACT: note_off channel=6 note=64 velocity=95 time=0
EXTRACT: pitchwheel channel=3 pitch=128 time=0.0069444375
EXTRACT: note_on channel=0 note=73 velocity=95 time=0.0555555
EXTRACT: note_on channel=0 note=68 velocity=95 time=0
EXTRACT: note_on channel=0 note=64 velocity=95 time=0
EXTRACT: note_on channel=0 note=61 velocity=95 time=0
EXTRACT: pitchwheel channel=3 pitch=0 time=0
EXTRACT: note_on channel=4 note=56 velocity=95 time=0
EXTRACT: note_on channel=4 note=52 velocity=95 time=0
EXTRACT: note_on channel=4 note=47 velocity=95 time=0
EXTRACT: note_on channel=6 note=56 velocity=95 time=0
EXTRACT: note_off channel=12 note=37 velocity=95 time=0
EXTRACT: note_on channel=12 note=33 velocity=95 time=0
EXTRACT: note_off channel=14 note=80 velocity=95 time=0
EXTRACT: note_off channel=14 note=73 velocity=95 time=0
EXTRACT: note_off channel=9 note=42 velocity=95 time=0
EXTRACT: note_off channel=9 note=40 velocity=95 time=0
EXTRACT: note_on channel=9 note=42 velocity=95 time=0
EXTRACT: note_off channel=4 note=56 velocity=95 time=0.031249968750000003
EXTRACT: note_off channel=4 note=52 velocity=95 time=0
EXTRACT: note_off channel=4 note=47 velocity=95 time=0
EXTRACT: note_off channel=12 note=33 velocity=95 time=0
EXTRACT: pitchwheel channel=3 pitch=128 time=0.02430553125
EXTRACT: pitchwheel channel=3 pitch=0 time=0.0555555
EXTRACT: note_off channel=0 note=73 velocity=95 time=0.0555555
EXTRACT: note_off channel=0 note=68 velocity=95 time=0
EXTRACT: note_off channel=0 note=64 velocity=95 time=0
EXTRACT: note_off channel=0 note=61 velocity=95 time=0
EXTRACT: pitchwheel channel=3 pitch=128 time=0
EXTRACT: pitchwheel channel=3 pitch=0 time=0
EXTRACT: note_off channel=3 note=49 velocity=95 time=0
EXTRACT: note_on channel=4 note=63 velocity=95 time=0
EXTRACT: note_on channel=4 note=59 velocity=95 time=0
EXTRACT: note_on channel=4 note=54 velocity=95 time=0
EXTRACT: note_on channel=4 note=47 velocity=95 time=0
EXTRACT: note_off channel=6 note=56 velocity=95 time=0
EXTRACT: note_on channel=6 note=63 velocity=95 time=0
EXTRACT: note_on channel=12 note=35 velocity=95 time=0
EXTRACT: note_off channel=9 note=42 velocity=95 time=0
EXTRACT: note_on channel=9 note=42 velocity=95 time=0
EXTRACT: note_on channel=9 note=36 velocity=95 time=0
EXTRACT: note_on channel=0 note=71 velocity=95 time=0.1666665
EXTRACT: note_on channel=0 note=66 velocity=95 time=0
EXTRACT: note_on channel=0 note=63 velocity=95 time=0
EXTRACT: note_on channel=0 note=59 velocity=95 time=0
EXTRACT: note_off channel=4 note=63 velocity=95 time=0
EXTRACT: note_off channel=4 note=59 velocity=95 time=0
EXTRACT: note_off channel=4 note=54 velocity=95 time=0
EXTRACT: note_off channel=4 note=47 velocity=95 time=0
EXTRACT: note_on channel=4 note=56 velocity=95 time=0
EXTRACT: note_on channel=4 note=52 velocity=95 time=0
EXTRACT: note_on channel=4 note=47 velocity=95 time=0
EXTRACT: note_off channel=6 note=63 velocity=95 time=0
EXTRACT: note_on channel=6 note=63 velocity=95 time=0
EXTRACT: note_off channel=9 note=42 velocity=95 time=0
EXTRACT: note_off channel=9 note=36 velocity=95 time=0
EXTRACT: note_off channel=4 note=56 velocity=95 time=0.031249968750000003
EXTRACT: note_off channel=4 note=52 velocity=95 time=0
EXTRACT: note_off channel=4 note=47 velocity=95 time=0
EXTRACT: note_off channel=0 note=71 velocity=95 time=0.13541653125
EXTRACT: note_off channel=0 note=66 velocity=95 time=0
EXTRACT: note_off channel=0 note=63 velocity=95 time=0
EXTRACT: note_off channel=0 note=59 velocity=95 time=0
EXTRACT: note_on channel=4 note=56 velocity=95 time=0
EXTRACT: note_on channel=4 note=52 velocity=95 time=0
EXTRACT: note_on channel=4 note=47 velocity=95 time=0
EXTRACT: note_off channel=6 note=63 velocity=95 time=0
EXTRACT: note_on channel=6 note=63 velocity=95 time=0
EXTRACT: note_off channel=12 note=35 velocity=95 time=0
EXTRACT: note_on channel=9 note=42 velocity=95 time=0
EXTRACT: note_on channel=9 note=40 velocity=95 time=0
EXTRACT: note_off channel=4 note=56 velocity=95 time=0.031249968750000003
EXTRACT: note_off channel=4 note=52 velocity=95 time=0
EXTRACT: note_off channel=4 note=47 velocity=95 time=0
EXTRACT: note_on channel=0 note=71 velocity=95 time=0.13541653125
EXTRACT: note_on channel=0 note=66 velocity=95 time=0
EXTRACT: note_on channel=0 note=63 velocity=95 time=0
EXTRACT: note_on channel=0 note=59 velocity=95 time=0
EXTRACT: note_on channel=4 note=63 velocity=95 time=0
EXTRACT: note_on channel=4 note=59 velocity=95 time=0
EXTRACT: note_on channel=4 note=54 velocity=95 time=0
EXTRACT: note_on channel=4 note=47 velocity=95 time=0
EXTRACT: note_off channel=6 note=63 velocity=95 time=0
EXTRACT: note_on channel=6 note=63 velocity=95 time=0
EXTRACT: note_on channel=12 note=30 velocity=95 time=0
EXTRACT: note_off channel=9 note=42 velocity=95 time=0
EXTRACT: note_off channel=9 note=40 velocity=95 time=0
EXTRACT: note_on channel=9 note=42 velocity=95 time=0
EXTRACT: note_off channel=12 note=30 velocity=95 time=0.08333325
EXTRACT: note_off channel=0 note=71 velocity=95 time=0.08333325
EXTRACT: note_off channel=0 note=66 velocity=95 time=0
EXTRACT: note_off channel=0 note=63 velocity=95 time=0
EXTRACT: note_off channel=0 note=59 velocity=95 time=0
EXTRACT: note_off channel=4 note=63 velocity=95 time=0
EXTRACT: note_off channel=4 note=59 velocity=95 time=0
EXTRACT: note_off channel=4 note=54 velocity=95 time=0
EXTRACT: note_off channel=4 note=47 velocity=95 time=0
EXTRACT: note_on channel=4 note=56 velocity=95 time=0
EXTRACT: note_on channel=4 note=52 velocity=95 time=0
EXTRACT: note_on channel=4 note=47 velocity=95 time=0
EXTRACT: note_on channel=12 note=30 velocity=95 time=0
EXTRACT: note_off channel=9 note=42 velocity=95 time=0
EXTRACT: note_on channel=9 note=42 velocity=95 time=0
EXTRACT: note_on channel=9 note=36 velocity=95 time=0
EXTRACT: note_off channel=4 note=56 velocity=95 time=0.031249968750000003
EXTRACT: note_off channel=4 note=52 velocity=95 time=0
EXTRACT: note_off channel=4 note=47 velocity=95 time=0
EXTRACT: note_on channel=0 note=71 velocity=95 time=0.13541653125
EXTRACT: note_on channel=0 note=66 velocity=95 time=0
EXTRACT: note_on channel=0 note=63 velocity=95 time=0
EXTRACT: note_on channel=0 note=59 velocity=95 time=0
EXTRACT: note_on channel=4 note=56 velocity=95 time=0
EXTRACT: note_on channel=4 note=52 velocity=95 time=0
EXTRACT: note_on channel=4 note=47 velocity=95 time=0
EXTRACT: note_off channel=6 note=63 velocity=95 time=0
EXTRACT: note_on channel=6 note=66 velocity=95 time=0
EXTRACT: note_off channel=9 note=42 velocity=95 time=0
EXTRACT: note_off channel=9 note=36 velocity=95 time=0
EXTRACT: note_off channel=4 note=56 velocity=95 time=0.031249968750000003
EXTRACT: note_off channel=4 note=52 velocity=95 time=0
EXTRACT: note_off channel=4 note=47 velocity=95 time=0
EXTRACT: note_off channel=0 note=71 velocity=95 time=0.13541653125
EXTRACT: note_off channel=0 note=66 velocity=95 time=0
EXTRACT: note_off channel=0 note=63 velocity=95 time=0
EXTRACT: note_off channel=0 note=59 velocity=95 time=0
EXTRACT: note_on channel=4 note=56 velocity=95 time=0
EXTRACT: note_on channel=4 note=52 velocity=95 time=0
EXTRACT: note_on channel=4 note=47 velocity=95 time=0
EXTRACT: note_off channel=12 note=30 velocity=95 time=0
EXTRACT: note_on channel=12 note=33 velocity=95 time=0
EXTRACT: note_on channel=9 note=42 velocity=95 time=0
EXTRACT: note_on channel=9 note=40 velocity=95 time=0
EXTRACT: note_off channel=4 note=56 velocity=95 time=0.031249968750000003
EXTRACT: note_off channel=4 note=52 velocity=95 time=0
EXTRACT: note_off channel=4 note=47 velocity=95 time=0
EXTRACT: note_on channel=0 note=71 velocity=95 time=0.13541653125
EXTRACT: note_on channel=0 note=66 velocity=95 time=0
EXTRACT: note_on channel=0 note=63 velocity=95 time=0
EXTRACT: note_on channel=0 note=59 velocity=95 time=0
EXTRACT: note_on channel=4 note=56 velocity=95 time=0
EXTRACT: note_on channel=4 note=52 velocity=95 time=0
EXTRACT: note_on channel=4 note=47 velocity=95 time=0
EXTRACT: note_off channel=6 note=66 velocity=95 time=0
EXTRACT: note_on channel=6 note=66 velocity=95 time=0
EXTRACT: note_off channel=9 note=42 velocity=95 time=0
EXTRACT: note_off channel=9 note=40 velocity=95 time=0
EXTRACT: note_on channel=9 note=42 velocity=95 time=0
EXTRACT: note_off channel=4 note=56 velocity=95 time=0.031249968750000003
EXTRACT: note_off channel=4 note=52 velocity=95 time=0
EXTRACT: note_off channel=4 note=47 velocity=95 time=0
EXTRACT: note_off channel=0 note=71 velocity=95 time=0.13541653125
EXTRACT: note_off channel=0 note=66 velocity=95 time=0
EXTRACT: note_off channel=0 note=63 velocity=95 time=0
EXTRACT: note_off channel=0 note=59 velocity=95 time=0
EXTRACT: note_on channel=4 note=56 velocity=95 time=0
EXTRACT: note_on channel=4 note=52 velocity=95 time=0
EXTRACT: note_on channel=4 note=47 velocity=95 time=0
EXTRACT: note_off channel=12 note=33 velocity=95 time=0
EXTRACT: note_on channel=12 note=37 velocity=95 time=0
EXTRACT: note_off channel=9 note=42 velocity=95 time=0
EXTRACT: note_on channel=9 note=42 velocity=95 time=0
EXTRACT: note_on channel=9 note=36 velocity=95 time=0
EXTRACT: note_off channel=4 note=56 velocity=95 time=0.031249968750000003
EXTRACT: note_off channel=4 note=52 velocity=95 time=0
EXTRACT: note_off channel=4 note=47 velocity=95 time=0
EXTRACT: note_on channel=0 note=73 velocity=95 time=0.13541653125
EXTRACT: note_on channel=0 note=68 velocity=95 time=0
EXTRACT: note_on channel=0 note=64 velocity=95 time=0
EXTRACT: note_on channel=0 note=61 velocity=95 time=0
EXTRACT: note_on channel=2 note=56 velocity=95 time=0
EXTRACT: note_on channel=4 note=64 velocity=95 time=0
EXTRACT: note_on channel=4 note=61 velocity=95 time=0
EXTRACT: note_on channel=4 note=56 velocity=95 time=0
EXTRACT: note_on channel=4 note=49 velocity=95 time=0
EXTRACT: note_off channel=6 note=66 velocity=95 time=0
EXTRACT: note_on channel=6 note=64 velocity=95 time=0
EXTRACT: note_on channel=14 note=80 velocity=95 time=0
EXTRACT: note_on channel=14 note=73 velocity=95 time=0
EXTRACT: note_off channel=9 note=42 velocity=95 time=0
EXTRACT: note_off channel=9 note=36 velocity=95 time=0
EXTRACT: note_off channel=0 note=73 velocity=95 time=0.1666665
EXTRACT: note_off channel=0 note=68 velocity=95 time=0
EXTRACT: note_off channel=0 note=64 velocity=95 time=0
EXTRACT: note_off channel=0 note=61 velocity=95 time=0
EXTRACT: note_off channel=2 note=56 velocity=95 time=0
EXTRACT: note_on channel=3 note=61 velocity=95 time=0
EXTRACT: note_off channel=4 note=64 velocity=95 time=0
EXTRACT: note_off channel=4 note=61 velocity=95 time=0
EXTRACT: note_off channel=4 note=56 velocity=95 time=0
EXTRACT: note_off channel=4 note=49 velocity=95 time=0
EXTRACT: note_on channel=4 note=64 velocity=95 time=0
EXTRACT: note_on channel=4 note=61 velocity=95 time=0
EXTRACT: note_on channel=4 note=56 velocity=95 time=0
EXTRACT: note_on channel=4 note=49 velocity=95 time=0
EXTRACT: note_on channel=9 note=42 velocity=95 time=0
EXTRACT: note_on channel=9 note=40 velocity=95 time=0
EXTRACT: pitchwheel channel=3 pitch=-128 time=0.041666625
EXTRACT: pitchwheel channel=3 pitch=-256 time=0.041666625
EXTRACT: pitchwheel channel=3 pitch=-512 time=0.041666625
EXTRACT: note_on channel=0 note=73 velocity=95 time=0.041666625
EXTRACT: note_on channel=0 note=68 velocity=95 time=0
EXTRACT: note_on channel=0 note=64 velocity=95 time=0
EXTRACT: note_on channel=0 note=61 velocity=95 time=0
EXTRACT: pitchwheel channel=3 pitch=-640 time=0
EXTRACT: pitchwheel channel=3 pitch=0 time=0
EXTRACT: note_off channel=3 note=61 velocity=95 time=0
EXTRACT: note_on channel=2 note=60 velocity=95 time=0
EXTRACT: note_off channel=4 note=64 velocity=95 time=0
EXTRACT: note_off channel=4 note=61 velocity=95 time=0
EXTRACT: note_off channel=4 note=56 velocity=95 time=0
EXTRACT: note_off channel=4 note=49 velocity=95 time=0
EXTRACT: note_on channel=4 note=64 velocity=95 time=0
EXTRACT: note_on channel=4 note=61 velocity=95 time=0
EXTRACT: note_on channel=4 note=56 velocity=95 time=0
EXTRACT: note_on channel=4 note=49 velocity=95 time=0
EXTRACT: note_off channel=12 note=37 velocity=95 time=0
EXTRACT: note_on channel=12 note=37 velocity=95 time=0
EXTRACT: note_off channel=14 note=80 velocity=95 time=0
EXTRACT: note_off channel=14 note=73 velocity=95 time=0
EXTRACT: note_on channel=14 note=79 velocity=95 time=0
EXTRACT: note_on channel=14 note=72 velocity=95 time=0
EXTRACT: note_off channel=9 note=42 velocity=95 time=0
EXTRACT: note_off channel=9 note=40 velocity=95 time=0
EXTRACT: note_on channel=9 note=42 velocity=95 time=0
EXTRACT: note_off channel=0 note=73 velocity=95 time=0.1666665
EXTRACT: note_off channel=0 note=68 velocity=95 time=0
EXTRACT: note_off channel=0 note=64 velocity=95 time=0
EXTRACT: note_off channel=0 note=61 velocity=95 time=0
EXTRACT: note_off channel=2 note=60 velocity=95 time=0
EXTRACT: note_on channel=3 note=61 velocity=95 time=0
EXTRACT: note_off channel=4 note=64 velocity=95 time=0
EXTRACT: note_off channel=4 note=61 velocity=95 time=0
EXTRACT: note_off channel=4 note=56 velocity=95 time=0
EXTRACT: note_off channel=4 note=49 velocity=95 time=0
EXTRACT: note_on channel=4 note=64 velocity=95 time=0
EXTRACT: note_on channel=4 note=61 velocity=95 time=0
EXTRACT: note_on channel=4 note=56 velocity=95 time=0
EXTRACT: note_on channel=4 note=49 velocity=95 time=0
EXTRACT: note_off channel=12 note=37 velocity=95 time=0
EXTRACT: note_on channel=12 note=32 velocity=95 time=0
EXTRACT: note_off channel=14 note=79 velocity=95 time=0
EXTRACT: note_off channel=14 note=72 velocity=95 time=0
EXTRACT: note_on channel=14 note=80 velocity=95 time=0
EXTRACT: note_on channel=14 note=73 velocity=95 time=0
EXTRACT: note_off channel=9 note=42 velocity=95 time=0
EXTRACT: note_on channel=9 note=42 velocity=95 time=0
EXTRACT: pitchwheel channel=3 pitch=0 time=0.0555555
EXTRACT: pitchwheel channel=3 pitch=128 time=0.0555555
EXTRACT: note_on channel=0 note=73 velocity=95 time=0.0555555
EXTRACT: note_on channel=0 note=68 velocity=95 time=0
EXTRACT: note_on channel=0 note=64 velocity=95 time=0
EXTRACT: note_on channel=0 note=61 velocity=95 time=0
EXTRACT: pitchwheel channel=3 pitch=0 time=0
EXTRACT: note_off channel=4 note=64 velocity=95 time=0
EXTRACT: note_off channel=4 note=61 velocity=95 time=0
EXTRACT: note_off channel=4 note=56 velocity=95 time=0
EXTRACT: note_off channel=4 note=49 velocity=95 time=0
EXTRACT: note_on channel=4 note=64 velocity=95 time=0
EXTRACT: note_on channel=4 note=61 velocity=95 time=0
EXTRACT: note_on channel=4 note=56 velocity=95 time=0
EXTRACT: note_on channel=4 note=49 velocity=95 time=0
EXTRACT: note_off channel=14 note=80 velocity=95 time=0
EXTRACT: note_off channel=14 note=73 velocity=95 time=0
EXTRACT: note_on channel=14 note=79 velocity=95 time=0
EXTRACT: note_on channel=14 note=72 velocity=95 time=0
EXTRACT: note_off channel=9 note=42 velocity=95 time=0
EXTRACT: note_on channel=9 note=36 velocity=95 time=0
EXTRACT: pitchwheel channel=3 pitch=128 time=0.0555555
EXTRACT: note_off channel=6 note=64 velocity=95 time=0.02777775
EXTRACT: pitchwheel channel=3 pitch=0 time=0.02777775
EXTRACT: note_off channel=0 note=73 velocity=95 time=0.0555555
EXTRACT: note_off channel=0 note=68 velocity=95 time=0
EXTRACT: note_off channel=0 note=64 velocity=95 time=0
EXTRACT: note_off channel=0 note=61 velocity=95 time=0
EXTRACT: pitchwheel channel=3 pitch=128 time=0
EXTRACT: pitchwheel channel=3 pitch=0 time=0
EXTRACT: note_off channel=3 note=61 velocity=95 time=0
EXTRACT: note_on channel=3 note=61 velocity=95 time=0
EXTRACT: note_off channel=4 note=64 velocity=95 time=0
EXTRACT: note_off channel=4 note=61 velocity=95 time=0
EXTRACT: note_off channel=4 note=56 velocity=95 time=0
EXTRACT: note_off channel=4 note=49 velocity=95 time=0
EXTRACT: note_on channel=4 note=56 velocity=95 time=0
EXTRACT: note_on channel=4 note=52 velocity=95 time=0
EXTRACT: note_on channel=4 note=47 velocity=95 time=0
EXTRACT: note_on channel=6 note=61 velocity=95 time=0
EXTRACT: note_off channel=12 note=32 velocity=95 time=0
EXTRACT: note_on channel=12 note=35 velocity=95 time=0
EXTRACT: note_off channel=14 note=79 velocity=95 time=0
EXTRACT: note_off channel=14 note=72 velocity=95 time=0
EXTRACT: note_on channel=14 note=80 velocity=95 time=0
EXTRACT: note_on channel=14 note=73 velocity=95 time=0
EXTRACT: note_off channel=9 note=36 velocity=95 time=0
EXTRACT: note_on channel=9 note=42 velocity=95 time=0
EXTRACT: note_on channel=9 note=40 velocity=95 time=0
EXTRACT: note_off channel=4 note=56 velocity=95 time=0.031249968750000003
EXTRACT: note_off channel=4 note=52 velocity=95 time=0
EXTRACT: note_off channel=4 note=47 velocity=95 time=0
EXTRACT: pitchwheel channel=3 pitch=0 time=0.02430553125
EXTRACT: pitchwheel channel=3 pitch=128 time=0.0555555
EXTRACT: note_on channel=0 note=73 velocity=95 time=0.0555555
EXTRACT: note_on channel=0 note=68 velocity=95 time=0
EXTRACT: note_on channel=0 note=64 velocity=95 time=0
EXTRACT: note_on channel=0 note=61 velocity=95 time=0
EXTRACT: pitchwheel channel=3 pitch=0 time=0
EXTRACT: note_on channel=4 note=56 velocity=95 time=0
EXTRACT: note_on channel=4 note=52 velocity=95 time=0
EXTRACT: note_on channel=4 note=47 velocity=95 time=0
EXTRACT: note_off channel=12 note=35 velocity=95 time=0
EXTRACT: note_on channel=12 note=35 velocity=95 time=0
EXTRACT: note_off channel=14 note=80 velocity=95 time=0
EXTRACT: note_off channel=14 note=73 velocity=95 time=0
EXTRACT: note_on channel=14 note=79 velocity=95 time=0
EXTRACT: note_on channel=14 note=72 velocity=95 time=0
EXTRACT: note_off channel=9 note=42 velocity=95 time=0
EXTRACT: note_off channel=9 note=40 velocity=95 time=0
EXTRACT: note_on channel=9 note=42 velocity=95 time=0
EXTRACT: note_off channel=4 note=56 velocity=95 time=0.031249968750000003
EXTRACT: note_off channel=4 note=52 velocity=95 time=0
EXTRACT: note_off channel=4 note=47 velocity=95 time=0
EXTRACT: pitchwheel channel=3 pitch=128 time=0.02430553125
EXTRACT: note_off channel=6 note=61 velocity=95 time=0.0486110625
EXTRACT: pitchwheel channel=3 pitch=0 time=0.0069444375
EXTRACT: note_off channel=0 note=73 velocity=95 time=0.0555555
EXTRACT: note_off channel=0 note=68 velocity=95 time=0
EXTRACT: note_off channel=0 note=64 velocity=95 time=0
EXTRACT: note_off channel=0 note=61 velocity=95 time=0
EXTRACT: pitchwheel channel=3 pitch=128 time=0
EXTRACT: pitchwheel channel=3 pitch=0 time=0
EXTRACT: note_off channel=3 note=61 velocity=95 time=0
EXTRACT: note_on channel=4 note=64 velocity=95 time=0
EXTRACT: note_on channel=4 note=61 velocity=95 time=0
EXTRACT: note_on channel=4 note=56 velocity=95 time=0
EXTRACT: note_on channel=4 note=49 velocity=95 time=0
EXTRACT: note_on channel=6 note=68 velocity=95 time=0
EXTRACT: note_on channel=6 note=64 velocity=95 time=0
EXTRACT: note_off channel=12 note=35 velocity=95 time=0
EXTRACT: note_on channel=12 note=37 velocity=95 time=0
EXTRACT: note_off channel=14 note=79 velocity=95 time=0
EXTRACT: note_off channel=14 note=72 velocity=95 time=0
EXTRACT: note_on channel=14 note=80 velocity=95 time=0
EXTRACT: note_on channel=14 note=73 velocity=95 time=0
EXTRACT: note_off channel=9 note=42 velocity=95 time=0
EXTRACT: note_on channel=9 note=42 velocity=95 time=0
EXTRACT: note_on channel=9 note=36 velocity=95 time=0
EXTRACT: note_on channel=0 note=73 velocity=95 time=0.1666665
EXTRACT: note_on channel=0 note=68 velocity=95 time=0
EXTRACT: note_on channel=0 note=64 velocity=95 time=0
EXTRACT: note_on channel=0 note=61 velocity=95 time=0
EXTRACT: note_off channel=4 note=64 velocity=95 time=0
EXTRACT: note_off channel=4 note=61 velocity=95 time=0
EXTRACT: note_off channel=4 note=56 velocity=95 time=0
EXTRACT: note_off channel=4 note=49 velocity=95 time=0
EXTRACT: note_on channel=4 note=56 velocity=95 time=0
EXTRACT: note_on channel=4 note=52 velocity=95 time=0
EXTRACT: note_on channel=4 note=47 velocity=95 time=0
EXTRACT: note_off channel=14 note=80 velocity=95 time=0
EXTRACT: note_off channel=14 note=73 velocity=95 time=0
EXTRACT: note_off channel=9 note=42 velocity=95 time=0
EXTRACT: note_off channel=9 note=36 velocity=95 time=0
EXTRACT: note_off channel=4 note=56 velocity=95 time=0.031249968750000003
EXTRACT: note_off channel=4 note=52 velocity=95 time=0
EXTRACT: note_off channel=4 note=47 velocity=95 time=0
EXTRACT: note_off channel=0 note=73 velocity=95 time=0.13541653125
EXTRACT: note_off channel=0 note=68 velocity=95 time=0
EXTRACT: note_off channel=0 note=64 velocity=95 time=0
EXTRACT: note_off channel=0 note=61 velocity=95 time=0
EXTRACT: note_on channel=4 note=56 velocity=95 time=0
EXTRACT: note_on channel=4 note=52 velocity=95 time=0
EXTRACT: note_on channel=4 note=47 velocity=95 time=0
EXTRACT: note_on channel=9 note=42 velocity=95 time=0
EXTRACT: note_on channel=9 note=40 velocity=95 time=0
EXTRACT: note_off channel=4 note=56 velocity=95 time=0.031249968750000003
EXTRACT: note_off channel=4 note=52 velocity=95 time=0
EXTRACT: note_off channel=4 note=47 velocity=95 time=0
EXTRACT: note_off channel=6 note=68 velocity=95 time=0.07291659375000001
EXTRACT: note_off channel=6 note=64 velocity=95 time=0
EXTRACT: note_on channel=0 note=73 velocity=95 time=0.062499937500000005
EXTRACT: note_on channel=0 note=68 velocity=95 time=0
EXTRACT: note_on channel=0 note=64 velocity=95 time=0
EXTRACT: note_on channel=0 note=61 velocity=95 time=0
EXTRACT: note_on channel=4 note=64 velocity=95 time=0
EXTRACT: note_on channel=4 note=61 velocity=95 time=0
EXTRACT: note_on channel=4 note=56 velocity=95 time=0
EXTRACT: note_on channel=4 note=49 velocity=95 time=0
EXTRACT: note_on channel=6 note=68 velocity=95 time=0
EXTRACT: note_on channel=6 note=64 velocity=95 time=0
EXTRACT: note_off channel=12 note=37 velocity=95 time=0
EXTRACT: note_on channel=12 note=32 velocity=95 time=0
EXTRACT: note_off channel=9 note=42 velocity=95 time=0
EXTRACT: note_off channel=9 note=40 velocity=95 time=0
EXTRACT: note_on channel=9 note=42 velocity=95 time=0
EXTRACT: note_off channel=0 note=73 velocity=95 time=0.1666665
EXTRACT: note_off channel=0 note=68 velocity=95 time=0
EXTRACT: note_off channel=0 note=64 velocity=95 time=0
EXTRACT: note_off channel=0 note=61 velocity=95 time=0
EXTRACT: note_off channel=4 note=64 velocity=95 time=0
EXTRACT: note_off channel=4 note=61 velocity=95 time=0
EXTRACT: note_off channel=4 note=56 velocity=95 time=0
EXTRACT: note_off channel=4 note=49 velocity=95 time=0
EXTRACT: note_on channel=4 note=56 velocity=95 time=0
EXTRACT: note_on channel=4 note=52 velocity=95 time=0
EXTRACT: note_on channel=4 note=47 velocity=95 time=0
EXTRACT: note_off channel=9 note=42 velocity=95 time=0
EXTRACT: note_on channel=9 note=42 velocity=95 time=0
EXTRACT: note_on channel=9 note=36 velocity=95 time=0
EXTRACT: note_off channel=4 note=56 velocity=95 time=0.031249968750000003
EXTRACT: note_off channel=4 note=52 velocity=95 time=0
EXTRACT: note_off channel=4 note=47 velocity=95 time=0
EXTRACT: note_on channel=0 note=73 velocity=95 time=0.13541653125
EXTRACT: note_on channel=0 note=68 velocity=95 time=0
EXTRACT: note_on channel=0 note=64 velocity=95 time=0
EXTRACT: note_on channel=0 note=61 velocity=95 time=0
EXTRACT: note_on channel=4 note=56 velocity=95 time=0
EXTRACT: note_on channel=4 note=52 velocity=95 time=0
EXTRACT: note_on channel=4 note=47 velocity=95 time=0
EXTRACT: note_off channel=9 note=42 velocity=95 time=0
EXTRACT: note_off channel=9 note=36 velocity=95 time=0
EXTRACT: note_off channel=4 note=56 velocity=95 time=0.031249968750000003
EXTRACT: note_off channel=4 note=52 velocity=95 time=0
EXTRACT: note_off channel=4 note=47 velocity=95 time=0
EXTRACT: note_off channel=6 note=68 velocity=95 time=0.07291659375000001
EXTRACT: note_off channel=6 note=64 velocity=95 time=0
EXTRACT: note_off channel=0 note=73 velocity=95 time=0.062499937500000005
EXTRACT: note_off channel=0 note=68 velocity=95 time=0
EXTRACT: note_off channel=0 note=64 velocity=95 time=0
EXTRACT: note_off channel=0 note=61 velocity=95 time=0
EXTRACT: note_on channel=4 note=64 velocity=95 time=0
EXTRACT: note_on channel=4 note=61 velocity=95 time=0
EXTRACT: note_on channel=4 note=56 velocity=95 time=0
EXTRACT: note_on channel=4 note=49 velocity=95 time=0
EXTRACT: note_on channel=6 note=68 velocity=95 time=0
EXTRACT: note_on channel=6 note=64 velocity=95 time=0
EXTRACT: note_off channel=12 note=32 velocity=95 time=0
EXTRACT: note_on channel=12 note=35 velocity=95 time=0
EXTRACT: note_on channel=9 note=42 velocity=95 time=0
EXTRACT: note_on channel=9 note=40 velocity=95 time=0
EXTRACT: note_on channel=0 note=73 velocity=95 time=0.1666665
EXTRACT: note_on channel=0 note=68 velocity=95 time=0
EXTRACT: note_on channel=0 note=64 velocity=95 time=0
EXTRACT: note_on channel=0 note=61 velocity=95 time=0
EXTRACT: note_off channel=4 note=64 velocity=95 time=0
EXTRACT: note_off channel=4 note=61 velocity=95 time=0
EXTRACT: note_off channel=4 note=56 velocity=95 time=0
EXTRACT: note_off channel=4 note=49 velocity=95 time=0
EXTRACT: note_on channel=4 note=56 velocity=95 time=0
EXTRACT: note_on channel=4 note=52 velocity=95 time=0
EXTRACT: note_on channel=4 note=47 velocity=95 time=0
EXTRACT: note_off channel=9 note=42 velocity=95 time=0
EXTRACT: note_off channel=9 note=40 velocity=95 time=0
EXTRACT: note_on channel=9 note=42 velocity=95 time=0
EXTRACT: note_off channel=4 note=56 velocity=95 time=0.031249968750000003
EXTRACT: note_off channel=4 note=52 velocity=95 time=0
EXTRACT: note_off channel=4 note=47 velocity=95 time=0
EXTRACT: note_off channel=0 note=73 velocity=95 time=0.13541653125
EXTRACT: note_off channel=0 note=68 velocity=95 time=0
EXTRACT: note_off channel=0 note=64 velocity=95 time=0
EXTRACT: note_off channel=0 note=61 velocity=95 time=0
EXTRACT: note_on channel=4 note=56 velocity=95 time=0
EXTRACT: note_on channel=4 note=52 velocity=95 time=0
EXTRACT: note_on channel=4 note=47 velocity=95 time=0
EXTRACT: note_off channel=9 note=42 velocity=95 time=0
EXTRACT: note_on channel=9 note=42 velocity=95 time=0
EXTRACT: note_on channel=9 note=36 velocity=95 time=0
EXTRACT: note_off channel=4 note=56 velocity=95 time=0.031249968750000003
EXTRACT: note_off channel=4 note=52 velocity=95 time=0
EXTRACT: note_off channel=4 note=47 velocity=95 time=0
EXTRACT: note_on channel=0 note=73 velocity=95 time=0.13541653125
EXTRACT: note_on channel=0 note=68 velocity=95 time=0
EXTRACT: note_on channel=0 note=64 velocity=95 time=0
EXTRACT: note_on channel=0 note=61 velocity=95 time=0
EXTRACT: note_on channel=4 note=64 velocity=95 time=0
EXTRACT: note_on channel=4 note=61 velocity=95 time=0
EXTRACT: note_on channel=4 note=56 velocity=95 time=0
EXTRACT: note_on channel=4 note=49 velocity=95 time=0
EXTRACT: note_off channel=6 note=68 velocity=95 time=0
EXTRACT: note_off channel=6 note=64 velocity=95 time=0
EXTRACT: note_on channel=6 note=68 velocity=95 time=0
EXTRACT: note_on channel=6 note=64 velocity=95 time=0
EXTRACT: note_off channel=12 note=35 velocity=95 time=0
EXTRACT: note_on channel=12 note=37 velocity=95 time=0
EXTRACT: note_off channel=9 note=42 velocity=95 time=0
EXTRACT: note_off channel=9 note=36 velocity=95 time=0
EXTRACT: note_off channel=0 note=73 velocity=95 time=0.1666665
EXTRACT: note_off channel=0 note=68 velocity=95 time=0
EXTRACT: note_off channel=0 note=64 velocity=95 time=0
EXTRACT: note_off channel=0 note=61 velocity=95 time=0
EXTRACT: note_off channel=4 note=64 velocity=95 time=0
EXTRACT: note_off channel=4 note=61 velocity=95 time=0
EXTRACT: note_off channel=4 note=56 velocity=95 time=0
EXTRACT: note_off channel=4 note=49 velocity=95 time=0
EXTRACT: note_on channel=4 note=64 velocity=95 time=0
EXTRACT: note_on channel=4 note=61 velocity=95 time=0
EXTRACT: note_on channel=4 note=56 velocity=95 time=0
EXTRACT: note_on channel=4 note=49 velocity=95 time=0
EXTRACT: note_on channel=9 note=42 velocity=95 time=0
EXTRACT: note_on channel=9 note=40 velocity=95 time=0
EXTRACT: note_on channel=0 note=73 velocity=95 time=0.1666665
EXTRACT: note_on channel=0 note=68 velocity=95 time=0
EXTRACT: note_on channel=0 note=64 velocity=95 time=0
EXTRACT: note_on channel=0 note=61 velocity=95 time=0
EXTRACT: note_off channel=4 note=64 velocity=95 time=0
EXTRACT: note_off channel=4 note=61 velocity=95 time=0
EXTRACT: note_off channel=4 note=56 velocity=95 time=0
EXTRACT: note_off channel=4 note=49 velocity=95 time=0
EXTRACT: note_on channel=4 note=64 velocity=95 time=0
EXTRACT: note_on channel=4 note=61 velocity=95 time=0
EXTRACT: note_on channel=4 note=56 velocity=95 time=0
EXTRACT: note_on channel=4 note=49 velocity=95 time=0
EXTRACT: note_off channel=12 note=37 velocity=95 time=0
EXTRACT: note_on channel=12 note=37 velocity=95 time=0
EXTRACT: note_off channel=9 note=42 velocity=95 time=0
EXTRACT: note_off channel=9 note=40 velocity=95 time=0
EXTRACT: note_on channel=9 note=42 velocity=95 time=0
EXTRACT: note_off channel=6 note=68 velocity=95 time=0.1041665625
EXTRACT: note_off channel=6 note=64 velocity=95 time=0
EXTRACT: note_off channel=0 note=73 velocity=95 time=0.062499937500000005
EXTRACT: note_off channel=0 note=68 velocity=95 time=0
EXTRACT: note_off channel=0 note=64 velocity=95 time=0
EXTRACT: note_off channel=0 note=61 velocity=95 time=0
EXTRACT: pitchwheel channel=3 pitch=0 time=0
EXTRACT: note_on channel=3 note=54 velocity=95 time=0
EXTRACT: note_off channel=4 note=64 velocity=95 time=0
EXTRACT: note_off channel=4 note=61 velocity=95 time=0
EXTRACT: note_off channel=4 note=56 velocity=95 time=0
EXTRACT: note_off channel=4 note=49 velocity=95 time=0
EXTRACT: note_on channel=4 note=64 velocity=95 time=0
EXTRACT: note_on channel=4 note=61 velocity=95 time=0
EXTRACT: note_on channel=4 note=56 velocity=95 time=0
EXTRACT: note_on channel=4 note=49 velocity=95 time=0
EXTRACT: note_on channel=6 note=68 velocity=95 time=0
EXTRACT: note_on channel=6 note=64 velocity=95 time=0
EXTRACT: note_off channel=12 note=37 velocity=95 time=0
EXTRACT: note_on channel=12 note=40 velocity=95 time=0
EXTRACT: note_off channel=9 note=42 velocity=95 time=0
EXTRACT: note_on channel=9 note=42 velocity=95 time=0
EXTRACT: pitchwheel channel=3 pitch=128 time=0.0072916593750000005
EXTRACT: pitchwheel channel=3 pitch=256 time=0.0072916593750000005
EXTRACT: pitchwheel channel=3 pitch=384 time=0.0072916593750000005
EXTRACT: pitchwheel channel=3 pitch=512 time=0.0072916593750000005
EXTRACT: pitchwheel channel=3 pitch=640 time=0.0072916593750000005
EXTRACT: pitchwheel channel=3 pitch=768 time=0.0072916593750000005
EXTRACT: pitchwheel channel=3 pitch=896 time=0.0072916593750000005
EXTRACT: pitchwheel channel=3 pitch=1024 time=0.0072916593750000005
EXTRACT: pitchwheel channel=3 pitch=1152 time=0.0072916593750000005
EXTRACT: pitchwheel channel=3 pitch=1280 time=0.0072916593750000005
EXTRACT: pitchwheel channel=3 pitch=1408 time=0.0072916593750000005
EXTRACT: pitchwheel channel=3 pitch=1408 time=0.003124996875
EXTRACT: note_on channel=0 note=73 velocity=95 time=0.08333325
EXTRACT: note_on channel=0 note=68 velocity=95 time=0
EXTRACT: note_on channel=0 note=64 velocity=95 time=0
EXTRACT: note_on channel=0 note=61 velocity=95 time=0
EXTRACT: pitchwheel channel=3 pitch=1408 time=0
EXTRACT: note_off channel=4 note=64 velocity=95 time=0
EXTRACT: note_off channel=4 note=61 velocity=95 time=0
EXTRACT: note_off channel=4 note=56 velocity=95 time=0
EXTRACT: note_off channel=4 note=49 velocity=95 time=0
EXTRACT: note_on channel=4 note=56 velocity=95 time=0
EXTRACT: note_on channel=4 note=52 velocity=95 time=0
EXTRACT: note_on channel=4 note=47 velocity=95 time=0
EXTRACT: note_off channel=12 note=40 velocity=95 time=0
EXTRACT: note_on channel=12 note=39 velocity=95 time=0
EXTRACT: note_off channel=9 note=42 velocity=95 time=0
EXTRACT: note_on channel=9 note=36 velocity=95 time=0
EXTRACT: pitchwheel channel=3 pitch=1280 time=0.0072916593750000005
EXTRACT: pitchwheel channel=3 pitch=1152 time=0.0072916593750000005
EXTRACT: pitchwheel channel=3 pitch=1024 time=0.0072916593750000005
EXTRACT: pitchwheel channel=3 pitch=896 time=0.0072916593750000005
EXTRACT: note_off channel=4 note=56 velocity=95 time=0.00208333125
EXTRACT: note_off channel=4 note=52 velocity=95 time=0
EXTRACT: note_off channel=4 note=47 velocity=95 time=0
EXTRACT: pitchwheel channel=3 pitch=768 time=0.005208328125
EXTRACT: pitchwheel channel=3 pitch=640 time=0.0072916593750000005
EXTRACT: pitchwheel channel=3 pitch=512 time=0.0072916593750000005
EXTRACT: pitchwheel channel=3 pitch=384 time=0.0072916593750000005
EXTRACT: pitchwheel channel=3 pitch=256 time=0.0072916593750000005
EXTRACT: pitchwheel channel=3 pitch=128 time=0.0072916593750000005
EXTRACT: pitchwheel channel=3 pitch=0 time=0.0072916593750000005
EXTRACT: pitchwheel channel=3 pitch=0 time=0.003124996875
EXTRACT: note_off channel=0 note=73 velocity=95 time=0.08333325
EXTRACT: note_off channel=0 note=68 velocity=95 time=0
EXTRACT: note_off channel=0 note=64 velocity=95 time=0
EXTRACT: note_off channel=0 note=61 velocity=95 time=0
EXTRACT: pitchwheel channel=3 pitch=0 time=0
EXTRACT: pitchwheel channel=3 pitch=0 time=0
EXTRACT: note_off channel=3 note=54 velocity=95 time=0
EXTRACT: note_on channel=2 note=52 velocity=95 time=0
EXTRACT: note_on channel=4 note=56 velocity=95 time=0
EXTRACT: note_on channel=4 note=52 velocity=95 time=0
EXTRACT: note_on channel=4 note=47 velocity=95 time=0
EXTRACT: note_off channel=12 note=39 velocity=95 time=0
EXTRACT: note_on channel=12 note=37 velocity=95 time=0
EXTRACT: note_off channel=9 note=36 velocity=95 time=0
EXTRACT: note_on channel=9 note=42 velocity=95 time=0
EXTRACT: note_on channel=9 note=40 velocity=95 time=0
EXTRACT: note_off channel=4 note=56 velocity=95 time=0.031249968750000003
EXTRACT: note_off channel=4 note=52 velocity=95 time=0
EXTRACT: note_off channel=4 note=47 velocity=95 time=0
EXTRACT: note_off channel=6 note=68 velocity=95 time=0.07291659375000001
EXTRACT: note_off channel=6 note=64 velocity=95 time=0
EXTRACT: note_on channel=0 note=73 velocity=95 time=0.062499937500000005
EXTRACT: note_on channel=0 note=68 velocity=95 time=0
EXTRACT: note_on channel=0 note=64 velocity=95 time=0
EXTRACT: note_on channel=0 note=61 velocity=95 time=0
EXTRACT: note_off channel=2 note=52 velocity=95 time=0
EXTRACT: note_on channel=2 note=54 velocity=70 time=0
EXTRACT: note_on channel=4 note=56 velocity=95 time=0
EXTRACT: note_on channel=4 note=52 velocity=95 time=0
EXTRACT: note_on channel=4 note=47 velocity=95 time=0
EXTRACT: note_on channel=6 note=56 velocity=95 time=0
EXTRACT: note_off channel=12 note=37 velocity=95 time=0
EXTRACT: note_on channel=12 note=33 velocity=95 time=0
EXTRACT: note_off channel=9 note=42 velocity=95 time=0
EXTRACT: note_off channel=9 note=40 velocity=95 time=0
EXTRACT: note_on channel=9 note=42 velocity=95 time=0
EXTRACT: note_off channel=4 note=56 velocity=95 time=0.031249968750000003
EXTRACT: note_off channel=4 note=52 velocity=95 time=0
EXTRACT: note_off channel=4 note=47 velocity=95 time=0
EXTRACT: note_off channel=12 note=33 velocity=95 time=0
EXTRACT: note_off channel=0 note=73 velocity=95 time=0.13541653125
EXTRACT: note_off channel=0 note=68 velocity=95 time=0
EXTRACT: note_off channel=0 note=64 velocity=95 time=0
EXTRACT: note_off channel=0 note=61 velocity=95 time=0
EXTRACT: note_off channel=2 note=54 velocity=70 time=0
EXTRACT: note_on channel=2 note=47 velocity=95 time=0
EXTRACT: note_on channel=4 note=63 velocity=95 time=0
EXTRACT: note_on channel=4 note=59 velocity=95 time=0
EXTRACT: note_on channel=4 note=54 velocity=95 time=0
EXTRACT: note_on channel=4 note=47 velocity=95 time=0
EXTRACT: note_off channel=6 note=56 velocity=95 time=0
EXTRACT: note_on channel=6 note=63 velocity=95 time=0
EXTRACT: note_on channel=12 note=35 velocity=95 time=0
EXTRACT: note_off channel=9 note=42 velocity=95 time=0
EXTRACT: note_on channel=9 note=42 velocity=95 time=0
EXTRACT: note_on channel=9 note=36 velocity=95 time=0
EXTRACT: note_on channel=0 note=71 velocity=95 time=0.1666665
EXTRACT: note_on channel=0 note=66 velocity=95 time=0
EXTRACT: note_on channel=0 note=63 velocity=95 time=0
EXTRACT: note_on channel=0 note=59 velocity=95 time=0
EXTRACT: note_off channel=2 note=47 velocity=95 time=0
EXTRACT: note_off channel=4 note=63 velocity=95 time=0
EXTRACT: note_off channel=4 note=59 velocity=95 time=0
EXTRACT: note_off channel=4 note=54 velocity=95 time=0
EXTRACT: note_off channel=4 note=47 velocity=95 time=0
EXTRACT: note_on channel=4 note=56 velocity=95 time=0
EXTRACT: note_on channel=4 note=52 velocity=95 time=0
EXTRACT: note_on channel=4 note=47 velocity=95 time=0
EXTRACT: note_off channel=6 note=63 velocity=95 time=0
EXTRACT: note_on channel=6 note=63 velocity=95 time=0
EXTRACT: note_off channel=9 note=42 velocity=95 time=0
EXTRACT: note_off channel=9 note=36 velocity=95 time=0
EXTRACT: note_off channel=4 note=56 velocity=95 time=0.031249968750000003
EXTRACT: note_off channel=4 note=52 velocity=95 time=0
EXTRACT: note_off channel=4 note=47 velocity=95 time=0
EXTRACT: note_off channel=0 note=71 velocity=95 time=0.13541653125
EXTRACT: note_off channel=0 note=66 velocity=95 time=0
EXTRACT: note_off channel=0 note=63 velocity=95 time=0
EXTRACT: note_off channel=0 note=59 velocity=95 time=0
EXTRACT: note_on channel=4 note=56 velocity=95 time=0
EXTRACT: note_on channel=4 note=52 velocity=95 time=0
EXTRACT: note_on channel=4 note=47 velocity=95 time=0
EXTRACT: note_off channel=6 note=63 velocity=95 time=0
EXTRACT: note_on channel=6 note=63 velocity=95 time=0
EXTRACT: note_off channel=12 note=35 velocity=95 time=0
EXTRACT: note_on channel=9 note=42 velocity=95 time=0
EXTRACT: note_on channel=9 note=40 velocity=95 time=0
EXTRACT: note_off channel=4 note=56 velocity=95 time=0.031249968750000003
EXTRACT: note_off channel=4 note=52 velocity=95 time=0
EXTRACT: note_off channel=4 note=47 velocity=95 time=0
EXTRACT: note_on channel=0 note=71 velocity=95 time=0.13541653125
EXTRACT: note_on channel=0 note=66 velocity=95 time=0
EXTRACT: note_on channel=0 note=63 velocity=95 time=0
EXTRACT: note_on channel=0 note=59 velocity=95 time=0
EXTRACT: note_on channel=4 note=63 velocity=95 time=0
EXTRACT: note_on channel=4 note=59 velocity=95 time=0
EXTRACT: note_on channel=4 note=54 velocity=95 time=0
EXTRACT: note_on channel=4 note=47 velocity=95 time=0
EXTRACT: note_off channel=6 note=63 velocity=95 time=0
EXTRACT: note_on channel=6 note=63 velocity=95 time=0
EXTRACT: note_on channel=12 note=30 velocity=95 time=0
EXTRACT: note_off channel=9 note=42 velocity=95 time=0
EXTRACT: note_off channel=9 note=40 velocity=95 time=0
EXTRACT: note_on channel=9 note=42 velocity=95 time=0
EXTRACT: note_off channel=0 note=71 velocity=95 time=0.1666665
EXTRACT: note_off channel=0 note=66 velocity=95 time=0
EXTRACT: note_off channel=0 note=63 velocity=95 time=0
EXTRACT: note_off channel=0 note=59 velocity=95 time=0
EXTRACT: note_off channel=4 note=63 velocity=95 time=0
EXTRACT: note_off channel=4 note=59 velocity=95 time=0
EXTRACT: note_off channel=4 note=54 velocity=95 time=0
EXTRACT: note_off channel=4 note=47 velocity=95 time=0
EXTRACT: note_on channel=4 note=56 velocity=95 time=0
EXTRACT: note_on channel=4 note=52 velocity=95 time=0
EXTRACT: note_on channel=4 note=47 velocity=95 time=0
EXTRACT: note_off channel=12 note=30 velocity=95 time=0
EXTRACT: note_on channel=12 note=30 velocity=95 time=0
EXTRACT: note_off channel=9 note=42 velocity=95 time=0
EXTRACT: note_on channel=9 note=42 velocity=95 time=0
EXTRACT: note_on channel=9 note=36 velocity=95 time=0
EXTRACT: note_off channel=4 note=56 velocity=95 time=0.031249968750000003
EXTRACT: note_off channel=4 note=52 velocity=95 time=0
EXTRACT: note_off channel=4 note=47 velocity=95 time=0
EXTRACT: note_on channel=0 note=71 velocity=95 time=0.13541653125
EXTRACT: note_on channel=0 note=66 velocity=95 time=0
EXTRACT: note_on channel=0 note=63 velocity=95 time=0
EXTRACT: note_on channel=0 note=59 velocity=95 time=0
EXTRACT: note_on channel=4 note=56 velocity=95 time=0
EXTRACT: note_on channel=4 note=52 velocity=95 time=0
EXTRACT: note_on channel=4 note=47 velocity=95 time=0
EXTRACT: note_off channel=6 note=63 velocity=95 time=0
EXTRACT: note_on channel=6 note=64 velocity=95 time=0
EXTRACT: note_off channel=9 note=42 velocity=95 time=0
EXTRACT: note_off channel=9 note=36 velocity=95 time=0
EXTRACT: note_off channel=4 note=56 velocity=95 time=0.031249968750000003
EXTRACT: note_off channel=4 note=52 velocity=95 time=0
EXTRACT: note_off channel=4 note=47 velocity=95 time=0
EXTRACT: note_off channel=0 note=71 velocity=95 time=0.13541653125
EXTRACT: note_off channel=0 note=66 velocity=95 time=0
EXTRACT: note_off channel=0 note=63 velocity=95 time=0
EXTRACT: note_off channel=0 note=59 velocity=95 time=0
EXTRACT: note_on channel=4 note=56 velocity=95 time=0
EXTRACT: note_on channel=4 note=52 velocity=95 time=0
EXTRACT: note_on channel=4 note=47 velocity=95 time=0
EXTRACT: note_off channel=12 note=30 velocity=95 time=0
EXTRACT: note_on channel=12 note=33 velocity=95 time=0
EXTRACT: note_on channel=9 note=42 velocity=95 time=0
EXTRACT: note_on channel=9 note=40 velocity=95 time=0
EXTRACT: note_off channel=4 note=56 velocity=95 time=0.031249968750000003
EXTRACT: note_off channel=4 note=52 velocity=95 time=0
EXTRACT: note_off channel=4 note=47 velocity=95 time=0
EXTRACT: note_on channel=0 note=71 velocity=95 time=0.13541653125
EXTRACT: note_on channel=0 note=66 velocity=95 time=0
EXTRACT: note_on channel=0 note=63 velocity=95 time=0
EXTRACT: note_on channel=0 note=59 velocity=95 time=0
EXTRACT: note_on channel=4 note=56 velocity=95 time=0
EXTRACT: note_on channel=4 note=52 velocity=95 time=0
EXTRACT: note_on channel=4 note=47 velocity=95 time=0
EXTRACT: note_off channel=6 note=64 velocity=95 time=0
EXTRACT: note_on channel=6 note=63 velocity=95 time=0
EXTRACT: note_off channel=9 note=42 velocity=95 time=0
EXTRACT: note_off channel=9 note=40 velocity=95 time=0
EXTRACT: note_on channel=9 note=42 velocity=95 time=0
EXTRACT: note_off channel=4 note=56 velocity=95 time=0.031249968750000003
EXTRACT: note_off channel=4 note=52 velocity=95 time=0
EXTRACT: note_off channel=4 note=47 velocity=95 time=0
EXTRACT: note_off channel=0 note=71 velocity=95 time=0.13541653125
EXTRACT: note_off channel=0 note=66 velocity=95 time=0
EXTRACT: note_off channel=0 note=63 velocity=95 time=0
EXTRACT: note_off channel=0 note=59 velocity=95 time=0
EXTRACT: note_on channel=4 note=56 velocity=95 time=0
EXTRACT: note_on channel=4 note=52 velocity=95 time=0
EXTRACT: note_on channel=4 note=47 velocity=95 time=0
EXTRACT: note_off channel=12 note=33 velocity=95 time=0
EXTRACT: note_on channel=12 note=37 velocity=95 time=0
EXTRACT: note_off channel=9 note=42 velocity=95 time=0
EXTRACT: note_on channel=9 note=42 velocity=95 time=0
EXTRACT: note_on channel=9 note=36 velocity=95 time=0
EXTRACT: note_off channel=4 note=56 velocity=95 time=0.031249968750000003
EXTRACT: note_off channel=4 note=52 velocity=95 time=0
EXTRACT: note_off channel=4 note=47 velocity=95 time=0
EXTRACT: note_on channel=0 note=73 velocity=95 time=0.13541653125
EXTRACT: note_on channel=0 note=68 velocity=95 time=0
EXTRACT: note_on channel=0 note=64 velocity=95 time=0
EXTRACT: note_on channel=0 note=61 velocity=95 time=0
EXTRACT: note_on channel=2 note=56 velocity=95 time=0
EXTRACT: note_on channel=4 note=64 velocity=95 time=0
EXTRACT: note_on channel=4 note=61 velocity=95 time=0
EXTRACT: note_on channel=4 note=56 velocity=95 time=0
EXTRACT: note_on channel=4 note=49 velocity=95 time=0
EXTRACT: note_off channel=6 note=63 velocity=95 time=0
EXTRACT: note_on channel=6 note=61 velocity=95 time=0
EXTRACT: note_off channel=9 note=42 velocity=95 time=0
EXTRACT: note_off channel=9 note=36 velocity=95 time=0
EXTRACT: note_off channel=0 note=73 velocity=95 time=0.1666665
EXTRACT: note_off channel=0 note=68 velocity=95 time=0
EXTRACT: note_off channel=0 note=64 velocity=95 time=0
EXTRACT: note_off channel=0 note=61 velocity=95 time=0
EXTRACT: note_off channel=2 note=56 velocity=95 time=0
EXTRACT: note_on channel=3 note=61 velocity=95 time=0
EXTRACT: note_off channel=4 note=64 velocity=95 time=0
EXTRACT: note_off channel=4 note=61 velocity=95 time=0
EXTRACT: note_off channel=4 note=56 velocity=95 time=0
EXTRACT: note_off channel=4 note=49 velocity=95 time=0
EXTRACT: note_on channel=4 note=64 velocity=95 time=0
EXTRACT: note_on channel=4 note=61 velocity=95 time=0
EXTRACT: note_on channel=4 note=56 velocity=95 time=0
EXTRACT: note_on channel=4 note=49 velocity=95 time=0
EXTRACT: note_on channel=14 note=80 velocity=95 time=0
EXTRACT: note_on channel=14 note=73 velocity=95 time=0
EXTRACT: note_on channel=9 note=42 velocity=95 time=0
EXTRACT: note_on channel=9 note=40 velocity=95 time=0
EXTRACT: pitchwheel channel=3 pitch=-128 time=0.041666625
EXTRACT: pitchwheel channel=3 pitch=-256 time=0.041666625
EXTRACT: pitchwheel channel=3 pitch=-512 time=0.041666625
EXTRACT: note_on channel=0 note=73 velocity=95 time=0.041666625
EXTRACT: note_on channel=0 note=68 velocity=95 time=0
EXTRACT: note_on channel=0 note=64 velocity=95 time=0
EXTRACT: note_on channel=0 note=61 velocity=95 time=0
EXTRACT: pitchwheel channel=3 pitch=-640 time=0
EXTRACT: pitchwheel channel=3 pitch=0 time=0
EXTRACT: note_off channel=3 note=61 velocity=95 time=0
EXTRACT: note_on channel=2 note=60 velocity=95 time=0
EXTRACT: note_off channel=4 note=64 velocity=95 time=0
EXTRACT: note_off channel=4 note=61 velocity=95 time=0
EXTRACT: note_off channel=4 note=56 velocity=95 time=0
EXTRACT: note_off channel=4 note=49 velocity=95 time=0
EXTRACT: note_on channel=4 note=64 velocity=95 time=0
EXTRACT: note_on channel=4 note=61 velocity=95 time=0
EXTRACT: note_on channel=4 note=56 velocity=95 time=0
EXTRACT: note_on channel=4 note=49 velocity=95 time=0
EXTRACT: note_off channel=12 note=37 velocity=95 time=0
EXTRACT: note_on channel=12 note=37 velocity=95 time=0
EXTRACT: note_off channel=14 note=80 velocity=95 time=0
EXTRACT: note_off channel=14 note=73 velocity=95 time=0
EXTRACT: note_off channel=9 note=42 velocity=95 time=0
EXTRACT: note_off channel=9 note=40 velocity=95 time=0
EXTRACT: note_on channel=9 note=42 velocity=95 time=0
EXTRACT: note_off channel=0 note=73 velocity=95 time=0.1666665
EXTRACT: note_off channel=0 note=68 velocity=95 time=0
EXTRACT: note_off channel=0 note=64 velocity=95 time=0
EXTRACT: note_off channel=0 note=61 velocity=95 time=0
EXTRACT: note_off channel=2 note=60 velocity=95 time=0
EXTRACT: note_on channel=3 note=61 velocity=95 time=0
EXTRACT: note_off channel=4 note=64 velocity=95 time=0
EXTRACT: note_off channel=4 note=61 velocity=95 time=0
EXTRACT: note_off channel=4 note=56 velocity=95 time=0
EXTRACT: note_off channel=4 note=49 velocity=95 time=0
EXTRACT: note_on channel=4 note=64 velocity=95 time=0
EXTRACT: note_on channel=4 note=61 velocity=95 time=0
EXTRACT: note_on channel=4 note=56 velocity=95 time=0
EXTRACT: note_on channel=4 note=49 velocity=95 time=0
EXTRACT: note_off channel=12 note=37 velocity=95 time=0
EXTRACT: note_on channel=12 note=32 velocity=95 time=0
EXTRACT: note_on channel=14 note=80 velocity=95 time=0
EXTRACT: note_on channel=14 note=73 velocity=95 time=0
EXTRACT: note_off channel=9 note=42 velocity=95 time=0
EXTRACT: note_on channel=9 note=42 velocity=95 time=0
EXTRACT: pitchwheel channel=3 pitch=0 time=0.0555555
EXTRACT: note_off channel=6 note=61 velocity=95 time=0.02777775
EXTRACT: pitchwheel channel=3 pitch=128 time=0.02777775
EXTRACT: note_on channel=0 note=73 velocity=95 time=0.0555555
EXTRACT: note_on channel=0 note=68 velocity=95 time=0
EXTRACT: note_on channel=0 note=64 velocity=95 time=0
EXTRACT: note_on channel=0 note=61 velocity=95 time=0
EXTRACT: pitchwheel channel=3 pitch=0 time=0
EXTRACT: note_off channel=4 note=64 velocity=95 time=0
EXTRACT: note_off channel=4 note=61 velocity=95 time=0
EXTRACT: note_off channel=4 note=56 velocity=95 time=0
EXTRACT: note_off channel=4 note=49 velocity=95 time=0
EXTRACT: note_on channel=4 note=64 velocity=95 time=0
EXTRACT: note_on channel=4 note=61 velocity=95 time=0
EXTRACT: note_on channel=4 note=56 velocity=95 time=0
EXTRACT: note_on channel=4 note=49 velocity=95 time=0
EXTRACT: note_off channel=14 note=80 velocity=95 time=0
EXTRACT: note_off channel=14 note=73 velocity=95 time=0
EXTRACT: note_off channel=9 note=42 velocity=95 time=0
EXTRACT: note_on channel=9 note=36 velocity=95 time=0
EXTRACT: pitchwheel channel=3 pitch=128 time=0.0555555
EXTRACT: pitchwheel channel=3 pitch=0 time=0.0555555
EXTRACT: note_off channel=0 note=73 velocity=95 time=0.0555555
EXTRACT: note_off channel=0 note=68 velocity=95 time=0
EXTRACT: note_off channel=0 note=64 velocity=95 time=0
EXTRACT: note_off channel=0 note=61 velocity=95 time=0
EXTRACT: pitchwheel channel=3 pitch=128 time=0
EXTRACT: pitchwheel channel=3 pitch=0 time=0
EXTRACT: note_off channel=3 note=61 velocity=95 time=0
EXTRACT: note_on channel=3 note=59 velocity=95 time=0
EXTRACT: note_off channel=4 note=64 velocity=95 time=0
EXTRACT: note_off channel=4 note=61 velocity=95 time=0
EXTRACT: note_off channel=4 note=56 velocity=95 time=0
EXTRACT: note_off channel=4 note=49 velocity=95 time=0
EXTRACT: note_on channel=4 note=56 velocity=95 time=0
EXTRACT: note_on channel=4 note=52 velocity=95 time=0
EXTRACT: note_on channel=4 note=47 velocity=95 time=0
EXTRACT: note_on channel=6 note=61 velocity=95 time=0
EXTRACT: note_off channel=12 note=32 velocity=95 time=0
EXTRACT: note_on channel=12 note=35 velocity=95 time=0
EXTRACT: note_off channel=9 note=36 velocity=95 time=0
EXTRACT: note_on channel=9 note=42 velocity=95 time=0
EXTRACT: note_on channel=9 note=40 velocity=95 time=0
EXTRACT: note_off channel=4 note=56 velocity=95 time=0.031249968750000003
EXTRACT: note_off channel=4 note=52 velocity=95 time=0
EXTRACT: note_off channel=4 note=47 velocity=95 time=0
EXTRACT: pitchwheel channel=3 pitch=256 time=0.01041665625
EXTRACT: pitchwheel channel=3 pitch=640 time=0.041666625
EXTRACT: pitchwheel channel=3 pitch=1024 time=0.041666625
EXTRACT: note_on channel=0 note=73 velocity=95 time=0.041666625
EXTRACT: note_on channel=0 note=68 velocity=95 time=0
EXTRACT: note_on channel=0 note=64 velocity=95 time=0
EXTRACT: note_on channel=0 note=61 velocity=95 time=0
EXTRACT: pitchwheel channel=3 pitch=1408 time=0
EXTRACT: pitchwheel channel=3 pitch=0 time=0
EXTRACT: note_off channel=3 note=59 velocity=95 time=0
EXTRACT: note_on channel=2 note=61 velocity=95 time=0
EXTRACT: note_on channel=4 note=56 velocity=95 time=0
EXTRACT: note_on channel=4 note=52 velocity=95 time=0
EXTRACT: note_on channel=4 note=47 velocity=95 time=0
EXTRACT: note_off channel=12 note=35 velocity=95 time=0
EXTRACT: note_on channel=12 note=35 velocity=95 time=0
EXTRACT: note_off channel=9 note=42 velocity=95 time=0
EXTRACT: note_off channel=9 note=40 velocity=95 time=0
EXTRACT: note_on channel=9 note=42 velocity=95 time=0
EXTRACT: note_off channel=4 note=56 velocity=95 time=0.031249968750000003
EXTRACT: note_off channel=4 note=52 velocity=95 time=0
EXTRACT: note_off channel=4 note=47 velocity=95 time=0
EXTRACT: note_off channel=6 note=61 velocity=95 time=0.07291659375000001
EXTRACT: note_off channel=0 note=73 velocity=95 time=0.062499937500000005
EXTRACT: note_off channel=0 note=68 velocity=95 time=0
EXTRACT: note_off channel=0 note=64 velocity=95 time=0
EXTRACT: note_off channel=0 note=61 velocity=95 time=0
EXTRACT: note_off channel=2 note=61 velocity=95 time=0
EXTRACT: note_on channel=4 note=64 velocity=95 time=0
EXTRACT: note_on channel=4 note=61 velocity=95 time=0
EXTRACT: note_on channel=4 note=56 velocity=95 time=0
EXTRACT: note_on channel=4 note=49 velocity=95 time=0
EXTRACT: note_on channel=6 note=68 velocity=95 time=0
EXTRACT: note_on channel=6 note=64 velocity=95 time=0
EXTRACT: note_off channel=12 note=35 velocity=95 time=0
EXTRACT: note_on channel=12 note=37 velocity=95 time=0
EXTRACT: note_off channel=9 note=42 velocity=95 time=0
EXTRACT: note_on channel=9 note=42 velocity=95 time=0
EXTRACT: note_on channel=9 note=36 velocity=95 time=0
EXTRACT: note_on channel=0 note=73 velocity=95 time=0.1666665
EXTRACT: note_on channel=0 note=68 velocity=95 time=0
EXTRACT: note_on channel=0 note=64 velocity=95 time=0
EXTRACT: note_on channel=0 note=61 velocity=95 time=0
EXTRACT: note_off channel=4 note=64 velocity=95 time=0
EXTRACT: note_off channel=4 note=61 velocity=95 time=0
EXTRACT: note_off channel=4 note=56 velocity=95 time=0
EXTRACT: note_off channel=4 note=49 velocity=95 time=0
EXTRACT: note_on channel=4 note=56 velocity=95 time=0
EXTRACT: note_on channel=4 note=52 velocity=95 time=0
EXTRACT: note_on channel=4 note=47 velocity=95 time=0
EXTRACT: note_off channel=9 note=42 velocity=95 time=0
EXTRACT: note_off channel=9 note=36 velocity=95 time=0
EXTRACT: note_off channel=4 note=56 velocity=95 time=0.031249968750000003
EXTRACT: note_off channel=4 note=52 velocity=95 time=0
EXTRACT: note_off channel=4 note=47 velocity=95 time=0
EXTRACT: note_off channel=0 note=73 velocity=95 time=0.13541653125
EXTRACT: note_off channel=0 note=68 velocity=95 time=0
EXTRACT: note_off channel=0 note=64 velocity=95 time=0
EXTRACT: note_off channel=0 note=61 velocity=95 time=0
EXTRACT: note_on channel=4 note=56 velocity=95 time=0
EXTRACT: note_on channel=4 note=52 velocity=95 time=0
EXTRACT: note_on channel=4 note=47 velocity=95 time=0
EXTRACT: note_on channel=9 note=42 velocity=95 time=0
EXTRACT: note_on channel=9 note=40 velocity=95 time=0
EXTRACT: note_off channel=4 note=56 velocity=95 time=0.031249968750000003
EXTRACT: note_off channel=4 note=52 velocity=95 time=0
EXTRACT: note_off channel=4 note=47 velocity=95 time=0
EXTRACT: note_off channel=6 note=68 velocity=95 time=0.07291659375000001
EXTRACT: note_off channel=6 note=64 velocity=95 time=0
EXTRACT: note_on channel=0 note=73 velocity=95 time=0.062499937500000005
EXTRACT: note_on channel=0 note=68 velocity=95 time=0
EXTRACT: note_on channel=0 note=64 velocity=95 time=0
EXTRACT: note_on channel=0 note=61 velocity=95 time=0
EXTRACT: note_on channel=4 note=64 velocity=95 time=0
EXTRACT: note_on channel=4 note=61 velocity=95 time=0
EXTRACT: note_on channel=4 note=56 velocity=95 time=0
EXTRACT: note_on channel=4 note=49 velocity=95 time=0
EXTRACT: note_on channel=6 note=68 velocity=95 time=0
EXTRACT: note_on channel=6 note=64 velocity=95 time=0
EXTRACT: note_off channel=12 note=37 velocity=95 time=0
EXTRACT: note_on channel=12 note=32 velocity=95 time=0
EXTRACT: note_off channel=9 note=42 velocity=95 time=0
EXTRACT: note_off channel=9 note=40 velocity=95 time=0
EXTRACT: note_on channel=9 note=42 velocity=95 time=0
EXTRACT: note_off channel=0 note=73 velocity=95 time=0.1666665
EXTRACT: note_off channel=0 note=68 velocity=95 time=0
EXTRACT: note_off channel=0 note=64 velocity=95 time=0
EXTRACT: note_off channel=0 note=61 velocity=95 time=0
EXTRACT: note_off channel=4 note=64 velocity=95 time=0
EXTRACT: note_off channel=4 note=61 velocity=95 time=0
EXTRACT: note_off channel=4 note=56 velocity=95 time=0
EXTRACT: note_off channel=4 note=49 velocity=95 time=0
EXTRACT: note_on channel=4 note=56 velocity=95 time=0
EXTRACT: note_on channel=4 note=52 velocity=95 time=0
EXTRACT: note_on channel=4 note=47 velocity=95 time=0
EXTRACT: note_off channel=9 note=42 velocity=95 time=0
EXTRACT: note_on channel=9 note=42 velocity=95 time=0
EXTRACT: note_on channel=9 note=36 velocity=95 time=0
EXTRACT: note_off channel=4 note=56 velocity=95 time=0.031249968750000003
EXTRACT: note_off channel=4 note=52 velocity=95 time=0
EXTRACT: note_off channel=4 note=47 velocity=95 time=0
EXTRACT: note_on channel=0 note=73 velocity=95 time=0.13541653125
EXTRACT: note_on channel=0 note=68 velocity=95 time=0
EXTRACT: note_on channel=0 note=64 velocity=95 time=0
EXTRACT: note_on channel=0 note=61 velocity=95 time=0
EXTRACT: note_on channel=4 note=56 velocity=95 time=0
EXTRACT: note_on channel=4 note=52 velocity=95 time=0
EXTRACT: note_on channel=4 note=47 velocity=95 time=0
EXTRACT: note_off channel=9 note=42 velocity=95 time=0
EXTRACT: note_off channel=9 note=36 velocity=95 time=0
EXTRACT: note_off channel=4 note=56 velocity=95 time=0.031249968750000003
EXTRACT: note_off channel=4 note=52 velocity=95 time=0
EXTRACT: note_off channel=4 note=47 velocity=95 time=0
EXTRACT: note_off channel=6 note=68 velocity=95 time=0.07291659375000001
EXTRACT: note_off channel=6 note=64 velocity=95 time=0
EXTRACT: note_off channel=0 note=73 velocity=95 time=0.062499937500000005
EXTRACT: note_off channel=0 note=68 velocity=95 time=0
EXTRACT: note_off channel=0 note=64 velocity=95 time=0
EXTRACT: note_off channel=0 note=61 velocity=95 time=0
EXTRACT: note_on channel=4 note=64 velocity=95 time=0
EXTRACT: note_on channel=4 note=61 velocity=95 time=0
EXTRACT: note_on channel=4 note=56 velocity=95 time=0
EXTRACT: note_on channel=4 note=49 velocity=95 time=0
EXTRACT: note_on channel=6 note=68 velocity=95 time=0
EXTRACT: note_on channel=6 note=64 velocity=95 time=0
EXTRACT: note_off channel=12 note=32 velocity=95 time=0
EXTRACT: note_on channel=12 note=35 velocity=95 time=0
EXTRACT: note_on channel=9 note=42 velocity=95 time=0
EXTRACT: note_on channel=9 note=40 velocity=95 time=0
EXTRACT: note_on channel=0 note=73 velocity=95 time=0.1666665
EXTRACT: note_on channel=0 note=68 velocity=95 time=0
EXTRACT: note_on channel=0 note=64 velocity=95 time=0
EXTRACT: note_on channel=0 note=61 velocity=95 time=0
EXTRACT: note_off channel=4 note=64 velocity=95 time=0
EXTRACT: note_off channel=4 note=61 velocity=95 time=0
EXTRACT: note_off channel=4 note=56 velocity=95 time=0
EXTRACT: note_off channel=4 note=49 velocity=95 time=0
EXTRACT: note_on channel=4 note=56 velocity=95 time=0
EXTRACT: note_on channel=4 note=52 velocity=95 time=0
EXTRACT: note_on channel=4 note=47 velocity=95 time=0
EXTRACT: note_off channel=9 note=42 velocity=95 time=0
EXTRACT: note_off channel=9 note=40 velocity=95 time=0
EXTRACT: note_on channel=9 note=42 velocity=95 time=0
EXTRACT: note_off channel=4 note=56 velocity=95 time=0.031249968750000003
EXTRACT: note_off channel=4 note=52 velocity=95 time=0
EXTRACT: note_off channel=4 note=47 velocity=95 time=0
EXTRACT: note_off channel=0 note=73 velocity=95 time=0.13541653125
EXTRACT: note_off channel=0 note=68 velocity=95 time=0
EXTRACT: note_off channel=0 note=64 velocity=95 time=0
EXTRACT: note_off channel=0 note=61 velocity=95 time=0
EXTRACT: note_on channel=4 note=56 velocity=95 time=0
EXTRACT: note_on channel=4 note=52 velocity=95 time=0
EXTRACT: note_on channel=4 note=47 velocity=95 time=0
EXTRACT: note_off channel=9 note=42 velocity=95 time=0
EXTRACT: note_on channel=9 note=42 velocity=95 time=0
EXTRACT: note_on channel=9 note=36 velocity=95 time=0
EXTRACT: note_off channel=4 note=56 velocity=95 time=0.031249968750000003
EXTRACT: note_off channel=4 note=52 velocity=95 time=0
EXTRACT: note_off channel=4 note=47 velocity=95 time=0
EXTRACT: note_on channel=0 note=73 velocity=95 time=0.13541653125
EXTRACT: note_on channel=0 note=68 velocity=95 time=0
EXTRACT: note_on channel=0 note=64 velocity=95 time=0
EXTRACT: note_on channel=0 note=61 velocity=95 time=0
EXTRACT: note_on channel=4 note=64 velocity=95 time=0
EXTRACT: note_on channel=4 note=61 velocity=95 time=0
EXTRACT: note_on channel=4 note=56 velocity=95 time=0
EXTRACT: note_on channel=4 note=49 velocity=95 time=0
EXTRACT: note_off channel=6 note=68 velocity=95 time=0
EXTRACT: note_off channel=6 note=64 velocity=95 time=0
EXTRACT: note_on channel=6 note=68 velocity=95 time=0
EXTRACT: note_on channel=6 note=64 velocity=95 time=0
EXTRACT: note_off channel=12 note=35 velocity=95 time=0
EXTRACT: note_on channel=12 note=37 velocity=95 time=0
EXTRACT: note_off channel=9 note=42 velocity=95 time=0
EXTRACT: note_off channel=9 note=36 velocity=95 time=0
EXTRACT: note_off channel=0 note=73 velocity=95 time=0.1666665
EXTRACT: note_off channel=0 note=68 velocity=95 time=0
EXTRACT: note_off channel=0 note=64 velocity=95 time=0
EXTRACT: note_off channel=0 note=61 velocity=95 time=0
EXTRACT: note_off channel=4 note=64 velocity=95 time=0
EXTRACT: note_off channel=4 note=61 velocity=95 time=0
EXTRACT: note_off channel=4 note=56 velocity=95 time=0
EXTRACT: note_off channel=4 note=49 velocity=95 time=0
EXTRACT: note_on channel=4 note=64 velocity=95 time=0
EXTRACT: note_on channel=4 note=61 velocity=95 time=0
EXTRACT: note_on channel=4 note=56 velocity=95 time=0
EXTRACT: note_on channel=4 note=49 velocity=95 time=0
EXTRACT: note_on channel=9 note=42 velocity=95 time=0
EXTRACT: note_on channel=9 note=40 velocity=95 time=0
EXTRACT: note_on channel=0 note=73 velocity=95 time=0.1666665
EXTRACT: note_on channel=0 note=68 velocity=95 time=0
EXTRACT: note_on channel=0 note=64 velocity=95 time=0
EXTRACT: note_on channel=0 note=61 velocity=95 time=0
EXTRACT: note_off channel=4 note=64 velocity=95 time=0
EXTRACT: note_off channel=4 note=61 velocity=95 time=0
EXTRACT: note_off channel=4 note=56 velocity=95 time=0
EXTRACT: note_off channel=4 note=49 velocity=95 time=0
EXTRACT: note_on channel=4 note=64 velocity=95 time=0
EXTRACT: note_on channel=4 note=61 velocity=95 time=0
EXTRACT: note_on channel=4 note=56 velocity=95 time=0
EXTRACT: note_on channel=4 note=49 velocity=95 time=0
EXTRACT: note_off channel=12 note=37 velocity=95 time=0
EXTRACT: note_on channel=12 note=37 velocity=95 time=0
EXTRACT: note_off channel=9 note=42 velocity=95 time=0
EXTRACT: note_off channel=9 note=40 velocity=95 time=0
EXTRACT: note_on channel=9 note=42 velocity=95 time=0
EXTRACT: note_off channel=6 note=68 velocity=95 time=0.1041665625
EXTRACT: note_off channel=6 note=64 velocity=95 time=0
EXTRACT: note_off channel=0 note=73 velocity=95 time=0.062499937500000005
EXTRACT: note_off channel=0 note=68 velocity=95 time=0
EXTRACT: note_off channel=0 note=64 velocity=95 time=0
EXTRACT: note_off channel=0 note=61 velocity=95 time=0
EXTRACT: note_on channel=2 note=54 velocity=95 time=0
EXTRACT: note_off channel=4 note=64 velocity=95 time=0
EXTRACT: note_off channel=4 note=61 velocity=95 time=0
EXTRACT: note_off channel=4 note=56 velocity=95 time=0
EXTRACT: note_off channel=4 note=49 velocity=95 time=0
EXTRACT: note_on channel=4 note=64 velocity=95 time=0
EXTRACT: note_on channel=4 note=61 velocity=95 time=0
EXTRACT: note_on channel=4 note=56 velocity=95 time=0
EXTRACT: note_on channel=4 note=49 velocity=95 time=0
EXTRACT: note_on channel=6 note=68 velocity=95 time=0
EXTRACT: note_on channel=6 note=64 velocity=95 time=0
EXTRACT: note_off channel=12 note=37 velocity=95 time=0
EXTRACT: note_on channel=12 note=40 velocity=95 time=0
EXTRACT: note_off channel=9 note=42 velocity=95 time=0
EXTRACT: note_on channel=9 note=42 velocity=95 time=0
EXTRACT: note_on channel=0 note=73 velocity=95 time=0.1666665
EXTRACT: note_on channel=0 note=68 velocity=95 time=0
EXTRACT: note_on channel=0 note=64 velocity=95 time=0
EXTRACT: note_on channel=0 note=61 velocity=95 time=0
EXTRACT: note_off channel=2 note=54 velocity=95 time=0
EXTRACT: note_on channel=2 note=52 velocity=95 time=0
EXTRACT: note_off channel=4 note=64 velocity=95 time=0
EXTRACT: note_off channel=4 note=61 velocity=95 time=0
EXTRACT: note_off channel=4 note=56 velocity=95 time=0
EXTRACT: note_off channel=4 note=49 velocity=95 time=0
EXTRACT: note_on channel=4 note=56 velocity=95 time=0
EXTRACT: note_on channel=4 note=52 velocity=95 time=0
EXTRACT: note_on channel=4 note=47 velocity=95 time=0
EXTRACT: note_off channel=12 note=40 velocity=95 time=0
EXTRACT: note_on channel=12 note=39 velocity=95 time=0
EXTRACT: note_off channel=9 note=42 velocity=95 time=0
EXTRACT: note_on channel=9 note=36 velocity=95 time=0
EXTRACT: note_off channel=4 note=56 velocity=95 time=0.031249968750000003
EXTRACT: note_off channel=4 note=52 velocity=95 time=0
EXTRACT: note_off channel=4 note=47 velocity=95 time=0
EXTRACT: note_off channel=0 note=73 velocity=95 time=0.13541653125
EXTRACT: note_off channel=0 note=68 velocity=95 time=0
EXTRACT: note_off channel=0 note=64 velocity=95 time=0
EXTRACT: note_off channel=0 note=61 velocity=95 time=0
EXTRACT: note_off channel=2 note=52 velocity=95 time=0
EXTRACT: note_on channel=3 note=49 velocity=95 time=0
EXTRACT: note_on channel=4 note=56 velocity=95 time=0
EXTRACT: note_on channel=4 note=52 velocity=95 time=0
EXTRACT: note_on channel=4 note=47 velocity=95 time=0
EXTRACT: note_off channel=12 note=39 velocity=95 time=0
EXTRACT: note_on channel=12 note=37 velocity=95 time=0
EXTRACT: note_off channel=9 note=36 velocity=95 time=0
EXTRACT: note_on channel=9 note=42 velocity=95 time=0
EXTRACT: note_on channel=9 note=40 velocity=95 time=0
EXTRACT: note_off channel=4 note=56 velocity=95 time=0.031249968750000003
EXTRACT: note_off channel=4 note=52 velocity=95 time=0
EXTRACT: note_off channel=4 note=47 velocity=95 time=0
EXTRACT: pitchwheel channel=3 pitch=0 time=0.02430553125
EXTRACT: note_off channel=6 note=68 velocity=95 time=0.0486110625
EXTRACT: note_off channel=6 note=64 velocity=95 time=0
EXTRACT: pitchwheel channel=3 pitch=128 time=0.0069444375
EXTRACT: note_on channel=0 note=73 velocity=95 time=0.0555555
EXTRACT: note_on channel=0 note=68 velocity=95 time=0
EXTRACT: note_on channel=0 note=64 velocity=95 time=0
EXTRACT: note_on channel=0 note=61 velocity=95 time=0
EXTRACT: pitchwheel channel=3 pitch=0 time=0
EXTRACT: note_on channel=4 note=56 velocity=95 time=0
EXTRACT: note_on channel=4 note=52 velocity=95 time=0
EXTRACT: note_on channel=4 note=47 velocity=95 time=0
EXTRACT: note_on channel=6 note=56 velocity=95 time=0
EXTRACT: note_off channel=12 note=37 velocity=95 time=0
EXTRACT: note_on channel=12 note=33 velocity=95 time=0
EXTRACT: note_off channel=9 note=42 velocity=95 time=0
EXTRACT: note_off channel=9 note=40 velocity=95 time=0
EXTRACT: note_on channel=9 note=42 velocity=95 time=0
EXTRACT: note_off channel=4 note=56 velocity=95 time=0.031249968750000003
EXTRACT: note_off channel=4 note=52 velocity=95 time=0
EXTRACT: note_off channel=4 note=47 velocity=95 time=0
EXTRACT: note_off channel=12 note=33 velocity=95 time=0
EXTRACT: pitchwheel channel=3 pitch=128 time=0.02430553125
EXTRACT: pitchwheel channel=3 pitch=0 time=0.0555555
EXTRACT: note_off channel=0 note=73 velocity=95 time=0.0555555
EXTRACT: note_off channel=0 note=68 velocity=95 time=0
EXTRACT: note_off channel=0 note=64 velocity=95 time=0
EXTRACT: note_off channel=0 note=61 velocity=95 time=0
EXTRACT: pitchwheel channel=3 pitch=128 time=0
EXTRACT: pitchwheel channel=3 pitch=0 time=0
EXTRACT: note_off channel=3 note=49 velocity=95 time=0
EXTRACT: note_on channel=4 note=63 velocity=95 time=0
EXTRACT: note_on channel=4 note=59 velocity=95 time=0
EXTRACT: note_on channel=4 note=54 velocity=95 time=0
EXTRACT: note_on channel=4 note=47 velocity=95 time=0
EXTRACT: note_off channel=6 note=56 velocity=95 time=0
EXTRACT: note_on channel=6 note=63 velocity=95 time=0
EXTRACT: note_on channel=12 note=35 velocity=95 time=0
EXTRACT: note_off channel=9 note=42 velocity=95 time=0
EXTRACT: note_on channel=9 note=42 velocity=95 time=0
EXTRACT: note_on channel=9 note=36 velocity=95 time=0
EXTRACT: note_on channel=0 note=71 velocity=95 time=0.1666665
EXTRACT: note_on channel=0 note=66 velocity=95 time=0
EXTRACT: note_on channel=0 note=63 velocity=95 time=0
EXTRACT: note_on channel=0 note=59 velocity=95 time=0
EXTRACT: note_off channel=4 note=63 velocity=95 time=0
EXTRACT: note_off channel=4 note=59 velocity=95 time=0
EXTRACT: note_off channel=4 note=54 velocity=95 time=0
EXTRACT: note_off channel=4 note=47 velocity=95 time=0
EXTRACT: note_on channel=4 note=56 velocity=95 time=0
EXTRACT: note_on channel=4 note=52 velocity=95 time=0
EXTRACT: note_on channel=4 note=47 velocity=95 time=0
EXTRACT: note_off channel=6 note=63 velocity=95 time=0
EXTRACT: note_on channel=6 note=63 velocity=95 time=0
EXTRACT: note_off channel=9 note=42 velocity=95 time=0
EXTRACT: note_off channel=9 note=36 velocity=95 time=0
EXTRACT: note_off channel=4 note=56 velocity=95 time=0.031249968750000003
EXTRACT: note_off channel=4 note=52 velocity=95 time=0
EXTRACT: note_off channel=4 note=47 velocity=95 time=0
EXTRACT: note_off channel=0 note=71 velocity=95 time=0.13541653125
EXTRACT: note_off channel=0 note=66 velocity=95 time=0
EXTRACT: note_off channel=0 note=63 velocity=95 time=0
EXTRACT: note_off channel=0 note=59 velocity=95 time=0
EXTRACT: note_on channel=4 note=56 velocity=95 time=0
EXTRACT: note_on channel=4 note=52 velocity=95 time=0
EXTRACT: note_on channel=4 note=47 velocity=95 time=0
EXTRACT: note_off channel=6 note=63 velocity=95 time=0
EXTRACT: note_on channel=6 note=63 velocity=95 time=0
EXTRACT: note_off channel=12 note=35 velocity=95 time=0
EXTRACT: note_on channel=9 note=42 velocity=95 time=0
EXTRACT: note_on channel=9 note=40 velocity=95 time=0
EXTRACT: note_off channel=4 note=56 velocity=95 time=0.031249968750000003
EXTRACT: note_off channel=4 note=52 velocity=95 time=0
EXTRACT: note_off channel=4 note=47 velocity=95 time=0
EXTRACT: note_on channel=0 note=71 velocity=95 time=0.13541653125
EXTRACT: note_on channel=0 note=66 velocity=95 time=0
EXTRACT: note_on channel=0 note=63 velocity=95 time=0
EXTRACT: note_on channel=0 note=59 velocity=95 time=0
EXTRACT: note_on channel=4 note=63 velocity=95 time=0
EXTRACT: note_on channel=4 note=59 velocity=95 time=0
EXTRACT: note_on channel=4 note=54 velocity=95 time=0
EXTRACT: note_on channel=4 note=47 velocity=95 time=0
EXTRACT: note_off channel=6 note=63 velocity=95 time=0
EXTRACT: note_on channel=6 note=63 velocity=95 time=0
EXTRACT: note_on channel=12 note=30 velocity=95 time=0
EXTRACT: note_off channel=9 note=42 velocity=95 time=0
EXTRACT: note_off channel=9 note=40 velocity=95 time=0
EXTRACT: note_on channel=9 note=42 velocity=95 time=0
EXTRACT: note_off channel=12 note=30 velocity=95 time=0.08333325
EXTRACT: note_off channel=0 note=71 velocity=95 time=0.08333325
EXTRACT: note_off channel=0 note=66 velocity=95 time=0
EXTRACT: note_off channel=0 note=63 velocity=95 time=0
EXTRACT: note_off channel=0 note=59 velocity=95 time=0
EXTRACT: note_off channel=4 note=63 velocity=95 time=0
EXTRACT: note_off channel=4 note=59 velocity=95 time=0
EXTRACT: note_off channel=4 note=54 velocity=95 time=0
EXTRACT: note_off channel=4 note=47 velocity=95 time=0
EXTRACT: note_on channel=4 note=56 velocity=95 time=0
EXTRACT: note_on channel=4 note=52 velocity=95 time=0
EXTRACT: note_on channel=4 note=47 velocity=95 time=0
EXTRACT: note_on channel=12 note=30 velocity=95 time=0
EXTRACT: note_off channel=9 note=42 velocity=95 time=0
EXTRACT: note_on channel=9 note=42 velocity=95 time=0
EXTRACT: note_on channel=9 note=36 velocity=95 time=0
EXTRACT: note_off channel=4 note=56 velocity=95 time=0.031249968750000003
EXTRACT: note_off channel=4 note=52 velocity=95 time=0
EXTRACT: note_off channel=4 note=47 velocity=95 time=0
EXTRACT: note_on channel=0 note=71 velocity=95 time=0.13541653125
EXTRACT: note_on channel=0 note=66 velocity=95 time=0
EXTRACT: note_on channel=0 note=63 velocity=95 time=0
EXTRACT: note_on channel=0 note=59 velocity=95 time=0
EXTRACT: note_on channel=4 note=56 velocity=95 time=0
EXTRACT: note_on channel=4 note=52 velocity=95 time=0
EXTRACT: note_on channel=4 note=47 velocity=95 time=0
EXTRACT: note_off channel=6 note=63 velocity=95 time=0
EXTRACT: note_on channel=6 note=66 velocity=95 time=0
EXTRACT: note_off channel=9 note=42 velocity=95 time=0
EXTRACT: note_off channel=9 note=36 velocity=95 time=0
EXTRACT: note_off channel=4 note=56 velocity=95 time=0.031249968750000003
EXTRACT: note_off channel=4 note=52 velocity=95 time=0
EXTRACT: note_off channel=4 note=47 velocity=95 time=0
EXTRACT: note_off channel=0 note=71 velocity=95 time=0.13541653125
EXTRACT: note_off channel=0 note=66 velocity=95 time=0
EXTRACT: note_off channel=0 note=63 velocity=95 time=0
EXTRACT: note_off channel=0 note=59 velocity=95 time=0
EXTRACT: note_on channel=4 note=56 velocity=95 time=0
EXTRACT: note_on channel=4 note=52 velocity=95 time=0
EXTRACT: note_on channel=4 note=47 velocity=95 time=0
EXTRACT: note_off channel=12 note=30 velocity=95 time=0
EXTRACT: note_on channel=12 note=33 velocity=95 time=0
EXTRACT: note_on channel=9 note=42 velocity=95 time=0
EXTRACT: note_on channel=9 note=40 velocity=95 time=0
EXTRACT: note_off channel=4 note=56 velocity=95 time=0.031249968750000003
EXTRACT: note_off channel=4 note=52 velocity=95 time=0
EXTRACT: note_off channel=4 note=47 velocity=95 time=0
EXTRACT: note_on channel=0 note=71 velocity=95 time=0.13541653125
EXTRACT: note_on channel=0 note=66 velocity=95 time=0
EXTRACT: note_on channel=0 note=63 velocity=95 time=0
EXTRACT: note_on channel=0 note=59 velocity=95 time=0
EXTRACT: note_on channel=4 note=56 velocity=95 time=0
EXTRACT: note_on channel=4 note=52 velocity=95 time=0
EXTRACT: note_on channel=4 note=47 velocity=95 time=0
EXTRACT: note_off channel=6 note=66 velocity=95 time=0
EXTRACT: note_on channel=6 note=66 velocity=95 time=0
EXTRACT: note_off channel=9 note=42 velocity=95 time=0
EXTRACT: note_off channel=9 note=40 velocity=95 time=0
EXTRACT: note_on channel=9 note=42 velocity=95 time=0
EXTRACT: note_off channel=4 note=56 velocity=95 time=0.031249968750000003
EXTRACT: note_off channel=4 note=52 velocity=95 time=0
EXTRACT: note_off channel=4 note=47 velocity=95 time=0
EXTRACT: note_off channel=0 note=71 velocity=95 time=0.13541653125
EXTRACT: note_off channel=0 note=66 velocity=95 time=0
EXTRACT: note_off channel=0 note=63 velocity=95 time=0
EXTRACT: note_off channel=0 note=59 velocity=95 time=0
EXTRACT: note_on channel=4 note=56 velocity=95 time=0
EXTRACT: note_on channel=4 note=52 velocity=95 time=0
EXTRACT: note_on channel=4 note=47 velocity=95 time=0
EXTRACT: note_off channel=12 note=33 velocity=95 time=0
EXTRACT: note_on channel=12 note=37 velocity=95 time=0
EXTRACT: note_off channel=9 note=42 velocity=95 time=0
EXTRACT: note_on channel=9 note=42 velocity=95 time=0
EXTRACT: note_on channel=9 note=36 velocity=95 time=0
EXTRACT: note_off channel=4 note=56 velocity=95 time=0.031249968750000003
EXTRACT: note_off channel=4 note=52 velocity=95 time=0
EXTRACT: note_off channel=4 note=47 velocity=95 time=0
EXTRACT: note_on channel=0 note=73 velocity=95 time=0.13541653125
EXTRACT: note_on channel=0 note=68 velocity=95 time=0
EXTRACT: note_on channel=0 note=64 velocity=95 time=0
EXTRACT: note_on channel=0 note=61 velocity=95 time=0
EXTRACT: note_on channel=2 note=56 velocity=95 time=0
EXTRACT: note_on channel=4 note=64 velocity=95 time=0
EXTRACT: note_on channel=4 note=61 velocity=95 time=0
EXTRACT: note_on channel=4 note=56 velocity=95 time=0
EXTRACT: note_on channel=4 note=49 velocity=95 time=0
EXTRACT: note_off channel=6 note=66 velocity=95 time=0
EXTRACT: note_on channel=6 note=64 velocity=95 time=0
EXTRACT: note_on channel=14 note=80 velocity=95 time=0
EXTRACT: note_on channel=14 note=73 velocity=95 time=0
EXTRACT: note_off channel=9 note=42 velocity=95 time=0
EXTRACT: note_off channel=9 note=36 velocity=95 time=0
EXTRACT: note_off channel=0 note=73 velocity=95 time=0.1666665
EXTRACT: note_off channel=0 note=68 velocity=95 time=0
EXTRACT: note_off channel=0 note=64 velocity=95 time=0
EXTRACT: note_off channel=0 note=61 velocity=95 time=0
EXTRACT: note_off channel=2 note=56 velocity=95 time=0
EXTRACT: note_on channel=2 note=61 velocity=95 time=0
EXTRACT: note_off channel=4 note=64 velocity=95 time=0
EXTRACT: note_off channel=4 note=61 velocity=95 time=0
EXTRACT: note_off channel=4 note=56 velocity=95 time=0
EXTRACT: note_off channel=4 note=49 velocity=95 time=0
EXTRACT: note_on channel=4 note=64 velocity=95 time=0
EXTRACT: note_on channel=4 note=61 velocity=95 time=0
EXTRACT: note_on channel=4 note=56 velocity=95 time=0
EXTRACT: note_on channel=4 note=49 velocity=95 time=0
EXTRACT: note_off channel=14 note=80 velocity=95 time=0
EXTRACT: note_off channel=14 note=73 velocity=95 time=0
EXTRACT: note_on channel=9 note=42 velocity=95 time=0
EXTRACT: note_on channel=9 note=40 velocity=95 time=0
EXTRACT: note_on channel=0 note=73 velocity=95 time=0.1666665
EXTRACT: note_on channel=0 note=68 velocity=95 time=0
EXTRACT: note_on channel=0 note=64 velocity=95 time=0
EXTRACT: note_on channel=0 note=61 velocity=95 time=0
EXTRACT: note_off channel=2 note=61 velocity=95 time=0
EXTRACT: note_on channel=2 note=61 velocity=95 time=0
EXTRACT: note_off channel=4 note=64 velocity=95 time=0
EXTRACT: note_off channel=4 note=61 velocity=95 time=0
EXTRACT: note_off channel=4 note=56 velocity=95 time=0
EXTRACT: note_off channel=4 note=49 velocity=95 time=0
EXTRACT: note_on channel=4 note=64 velocity=95 time=0
EXTRACT: note_on channel=4 note=61 velocity=95 time=0
EXTRACT: note_on channel=4 note=56 velocity=95 time=0
EXTRACT: note_on channel=4 note=49 velocity=95 time=0
EXTRACT: note_off channel=12 note=37 velocity=95 time=0
EXTRACT: note_on channel=12 note=37 velocity=95 time=0
EXTRACT: note_on channel=14 note=80 velocity=95 time=0
EXTRACT: note_on channel=14 note=73 velocity=95 time=0
EXTRACT: note_off channel=9 note=42 velocity=95 time=0
EXTRACT: note_off channel=9 note=40 velocity=95 time=0
EXTRACT: note_on channel=9 note=42 velocity=95 time=0
EXTRACT: note_off channel=0 note=73 velocity=95 time=0.1666665
EXTRACT: note_off channel=0 note=68 velocity=95 time=0
EXTRACT: note_off channel=0 note=64 velocity=95 time=0
EXTRACT: note_off channel=0 note=61 velocity=95 time=0
EXTRACT: note_off channel=2 note=61 velocity=95 time=0
EXTRACT: note_on channel=2 note=61 velocity=95 time=0
EXTRACT: note_off channel=4 note=64 velocity=95 time=0
EXTRACT: note_off channel=4 note=61 velocity=95 time=0
EXTRACT: note_off channel=4 note=56 velocity=95 time=0
EXTRACT: note_off channel=4 note=49 velocity=95 time=0
EXTRACT: note_on channel=4 note=64 velocity=95 time=0
EXTRACT: note_on channel=4 note=61 velocity=95 time=0
EXTRACT: note_on channel=4 note=56 velocity=95 time=0
EXTRACT: note_on channel=4 note=49 velocity=95 time=0
EXTRACT: note_off channel=12 note=37 velocity=95 time=0
EXTRACT: note_on channel=12 note=32 velocity=95 time=0
EXTRACT: note_off channel=14 note=80 velocity=95 time=0
EXTRACT: note_off channel=14 note=73 velocity=95 time=0
EXTRACT: note_off channel=9 note=42 velocity=95 time=0
EXTRACT: note_on channel=9 note=42 velocity=95 time=0
EXTRACT: note_on channel=0 note=73 velocity=95 time=0.1666665
EXTRACT: note_on channel=0 note=68 velocity=95 time=0
EXTRACT: note_on channel=0 note=64 velocity=95 time=0
EXTRACT: note_on channel=0 note=61 velocity=95 time=0
EXTRACT: note_off channel=2 note=61 velocity=95 time=0
EXTRACT: note_on channel=2 note=61 velocity=95 time=0
EXTRACT: note_off channel=4 note=64 velocity=95 time=0
EXTRACT: note_off channel=4 note=61 velocity=95 time=0
EXTRACT: note_off channel=4 note=56 velocity=95 time=0
EXTRACT: note_off channel=4 note=49 velocity=95 time=0
EXTRACT: note_on channel=4 note=64 velocity=95 time=0
EXTRACT: note_on channel=4 note=61 velocity=95 time=0
EXTRACT: note_on channel=4 note=56 velocity=95 time=0
EXTRACT: note_on channel=4 note=49 velocity=95 time=0
EXTRACT: note_on channel=14 note=80 velocity=95 time=0
EXTRACT: note_on channel=14 note=73 velocity=95 time=0
EXTRACT: note_off channel=9 note=42 velocity=95 time=0
EXTRACT: note_on channel=9 note=36 velocity=95 time=0
EXTRACT: note_off channel=6 note=64 velocity=95 time=0.08333325
EXTRACT: note_off channel=0 note=73 velocity=95 time=0.08333325
EXTRACT: note_off channel=0 note=68 velocity=95 time=0
EXTRACT: note_off channel=0 note=64 velocity=95 time=0
EXTRACT: note_off channel=0 note=61 velocity=95 time=0
EXTRACT: note_off channel=2 note=61 velocity=95 time=0
EXTRACT: note_on channel=2 note=61 velocity=95 time=0
EXTRACT: note_off channel=4 note=64 velocity=95 time=0
EXTRACT: note_off channel=4 note=61 velocity=95 time=0
EXTRACT: note_off channel=4 note=56 velocity=95 time=0
EXTRACT: note_off channel=4 note=49 velocity=95 time=0
EXTRACT: note_on channel=4 note=56 velocity=95 time=0
EXTRACT: note_on channel=4 note=52 velocity=95 time=0
EXTRACT: note_on channel=4 note=47 velocity=95 time=0
EXTRACT: note_off channel=12 note=32 velocity=95 time=0
EXTRACT: note_on channel=12 note=35 velocity=95 time=0
EXTRACT: note_off channel=14 note=80 velocity=95 time=0
EXTRACT: note_off channel=14 note=73 velocity=95 time=0
EXTRACT: note_off channel=9 note=36 velocity=95 time=0
EXTRACT: note_on channel=9 note=42 velocity=95 time=0
EXTRACT: note_on channel=9 note=40 velocity=95 time=0
EXTRACT: note_off channel=4 note=56 velocity=95 time=0.031249968750000003
EXTRACT: note_off channel=4 note=52 velocity=95 time=0
EXTRACT: note_off channel=4 note=47 velocity=95 time=0
EXTRACT: note_on channel=0 note=73 velocity=95 time=0.13541653125
EXTRACT: note_on channel=0 note=68 velocity=95 time=0
EXTRACT: note_on channel=0 note=64 velocity=95 time=0
EXTRACT: note_on channel=0 note=61 velocity=95 time=0
EXTRACT: note_on channel=4 note=56 velocity=95 time=0
EXTRACT: note_on channel=4 note=52 velocity=95 time=0
EXTRACT: note_on channel=4 note=47 velocity=95 time=0
EXTRACT: note_off channel=12 note=35 velocity=95 time=0
EXTRACT: note_on channel=12 note=35 velocity=95 time=0
EXTRACT: note_off channel=9 note=42 velocity=95 time=0
EXTRACT: note_off channel=9 note=40 velocity=95 time=0
EXTRACT: note_on channel=9 note=42 velocity=95 time=0
EXTRACT: note_off channel=4 note=56 velocity=95 time=0.031249968750000003
EXTRACT: note_off channel=4 note=52 velocity=95 time=0
EXTRACT: note_off channel=4 note=47 velocity=95 time=0
EXTRACT: note_off channel=0 note=73 velocity=95 time=0.13541653125
EXTRACT: note_off channel=0 note=68 velocity=95 time=0
EXTRACT: note_off channel=0 note=64 velocity=95 time=0
EXTRACT: note_off channel=0 note=61 velocity=95 time=0
EXTRACT: note_off channel=2 note=61 velocity=95 time=0
EXTRACT: note_on channel=4 note=64 velocity=95 time=0
EXTRACT: note_on channel=4 note=61 velocity=95 time=0
EXTRACT: note_on channel=4 note=56 velocity=95 time=0
EXTRACT: note_on channel=4 note=49 velocity=95 time=0
EXTRACT: note_on channel=6 note=64 velocity=95 time=0
EXTRACT: note_on channel=6 note=68 velocity=95 time=0
EXTRACT: note_off channel=12 note=35 velocity=95 time=0
EXTRACT: note_on channel=12 note=37 velocity=95 time=0
EXTRACT: note_off channel=9 note=42 velocity=95 time=0
EXTRACT: note_on channel=9 note=42 velocity=95 time=0
EXTRACT: note_on channel=9 note=36 velocity=95 time=0
EXTRACT: note_on channel=0 note=73 velocity=95 time=0.1666665
EXTRACT: note_on channel=0 note=68 velocity=95 time=0
EXTRACT: note_on channel=0 note=64 velocity=95 time=0
EXTRACT: note_on channel=0 note=61 velocity=95 time=0
EXTRACT: note_off channel=4 note=64 velocity=95 time=0
EXTRACT: note_off channel=4 note=61 velocity=95 time=0
EXTRACT: note_off channel=4 note=56 velocity=95 time=0
EXTRACT: note_off channel=4 note=49 velocity=95 time=0
EXTRACT: note_on channel=4 note=56 velocity=95 time=0
EXTRACT: note_on channel=4 note=52 velocity=95 time=0
EXTRACT: note_on channel=4 note=47 velocity=95 time=0
EXTRACT: note_off channel=9 note=42 velocity=95 time=0
EXTRACT: note_off channel=9 note=36 velocity=95 time=0
EXTRACT: note_off channel=4 note=56 velocity=95 time=0.031249968750000003
EXTRACT: note_off channel=4 note=52 velocity=95 time=0
EXTRACT: note_off channel=4 note=47 velocity=95 time=0
EXTRACT: note_off channel=0 note=73 velocity=95 time=0.13541653125
EXTRACT: note_off channel=0 note=68 velocity=95 time=0
EXTRACT: note_off channel=0 note=64 velocity=95 time=0
EXTRACT: note_off channel=0 note=61 velocity=95 time=0
EXTRACT: note_on channel=4 note=56 velocity=95 time=0
EXTRACT: note_on channel=4 note=52 velocity=95 time=0
EXTRACT: note_on channel=4 note=47 velocity=95 time=0
EXTRACT: note_on channel=9 note=42 velocity=95 time=0
EXTRACT: note_on channel=9 note=40 velocity=95 time=0
EXTRACT: note_off channel=4 note=56 velocity=95 time=0.031249968750000003
EXTRACT: note_off channel=4 note=52 velocity=95 time=0
EXTRACT: note_off channel=4 note=47 velocity=95 time=0
EXTRACT: note_off channel=6 note=64 velocity=95 time=0.07291659375000001
EXTRACT: note_off channel=6 note=68 velocity=95 time=0
EXTRACT: note_on channel=0 note=73 velocity=95 time=0.062499937500000005
EXTRACT: note_on channel=0 note=68 velocity=95 time=0
EXTRACT: note_on channel=0 note=64 velocity=95 time=0
EXTRACT: note_on channel=0 note=61 velocity=95 time=0
EXTRACT: note_on channel=4 note=64 velocity=95 time=0
EXTRACT: note_on channel=4 note=61 velocity=95 time=0
EXTRACT: note_on channel=4 note=56 velocity=95 time=0
EXTRACT: note_on channel=4 note=49 velocity=95 time=0
EXTRACT: note_on channel=6 note=68 velocity=95 time=0
EXTRACT: note_on channel=6 note=64 velocity=95 time=0
EXTRACT: note_off channel=12 note=37 velocity=95 time=0
EXTRACT: note_on channel=12 note=32 velocity=95 time=0
EXTRACT: note_off channel=9 note=42 velocity=95 time=0
EXTRACT: note_off channel=9 note=40 velocity=95 time=0
EXTRACT: note_on channel=9 note=42 velocity=95 time=0
EXTRACT: note_off channel=0 note=73 velocity=95 time=0.1666665
EXTRACT: note_off channel=0 note=68 velocity=95 time=0
EXTRACT: note_off channel=0 note=64 velocity=95 time=0
EXTRACT: note_off channel=0 note=61 velocity=95 time=0
EXTRACT: note_off channel=4 note=64 velocity=95 time=0
EXTRACT: note_off channel=4 note=61 velocity=95 time=0
EXTRACT: note_off channel=4 note=56 velocity=95 time=0
EXTRACT: note_off channel=4 note=49 velocity=95 time=0
EXTRACT: note_on channel=4 note=56 velocity=95 time=0
EXTRACT: note_on channel=4 note=52 velocity=95 time=0
EXTRACT: note_on channel=4 note=47 velocity=95 time=0
EXTRACT: note_off channel=9 note=42 velocity=95 time=0
EXTRACT: note_on channel=9 note=42 velocity=95 time=0
EXTRACT: note_on channel=9 note=36 velocity=95 time=0
EXTRACT: note_off channel=4 note=56 velocity=95 time=0.031249968750000003
EXTRACT: note_off channel=4 note=52 velocity=95 time=0
EXTRACT: note_off channel=4 note=47 velocity=95 time=0
EXTRACT: note_on channel=0 note=73 velocity=95 time=0.13541653125
EXTRACT: note_on channel=0 note=68 velocity=95 time=0
EXTRACT: note_on channel=0 note=64 velocity=95 time=0
EXTRACT: note_on channel=0 note=61 velocity=95 time=0
EXTRACT: note_on channel=4 note=56 velocity=95 time=0
EXTRACT: note_on channel=4 note=52 velocity=95 time=0
EXTRACT: note_on channel=4 note=47 velocity=95 time=0
EXTRACT: note_off channel=9 note=42 velocity=95 time=0
EXTRACT: note_off channel=9 note=36 velocity=95 time=0
EXTRACT: note_off channel=4 note=56 velocity=95 time=0.031249968750000003
EXTRACT: note_off channel=4 note=52 velocity=95 time=0
EXTRACT: note_off channel=4 note=47 velocity=95 time=0
EXTRACT: note_off channel=6 note=68 velocity=95 time=0.07291659375000001
EXTRACT: note_off channel=6 note=64 velocity=95 time=0
EXTRACT: note_off channel=0 note=73 velocity=95 time=0.062499937500000005
EXTRACT: note_off channel=0 note=68 velocity=95 time=0
EXTRACT: note_off channel=0 note=64 velocity=95 time=0
EXTRACT: note_off channel=0 note=61 velocity=95 time=0
EXTRACT: note_on channel=4 note=64 velocity=95 time=0
EXTRACT: note_on channel=4 note=61 velocity=95 time=0
EXTRACT: note_on channel=4 note=56 velocity=95 time=0
EXTRACT: note_on channel=4 note=49 velocity=95 time=0
EXTRACT: note_on channel=6 note=68 velocity=95 time=0
EXTRACT: note_on channel=6 note=64 velocity=95 time=0
EXTRACT: note_off channel=12 note=32 velocity=95 time=0
EXTRACT: note_on channel=12 note=35 velocity=95 time=0
EXTRACT: note_on channel=9 note=42 velocity=95 time=0
EXTRACT: note_on channel=9 note=40 velocity=95 time=0
EXTRACT: note_on channel=0 note=73 velocity=95 time=0.1666665
EXTRACT: note_on channel=0 note=68 velocity=95 time=0
EXTRACT: note_on channel=0 note=64 velocity=95 time=0
EXTRACT: note_on channel=0 note=61 velocity=95 time=0
EXTRACT: note_off channel=4 note=64 velocity=95 time=0
EXTRACT: note_off channel=4 note=61 velocity=95 time=0
EXTRACT: note_off channel=4 note=56 velocity=95 time=0
EXTRACT: note_off channel=4 note=49 velocity=95 time=0
EXTRACT: note_on channel=4 note=56 velocity=95 time=0
EXTRACT: note_on channel=4 note=52 velocity=95 time=0
EXTRACT: note_on channel=4 note=47 velocity=95 time=0
EXTRACT: note_off channel=9 note=42 velocity=95 time=0
EXTRACT: note_off channel=9 note=40 velocity=95 time=0
EXTRACT: note_on channel=9 note=42 velocity=95 time=0
EXTRACT: note_off channel=4 note=56 velocity=95 time=0.031249968750000003
EXTRACT: note_off channel=4 note=52 velocity=95 time=0
EXTRACT: note_off channel=4 note=47 velocity=95 time=0
EXTRACT: note_off channel=0 note=73 velocity=95 time=0.13541653125
EXTRACT: note_off channel=0 note=68 velocity=95 time=0
EXTRACT: note_off channel=0 note=64 velocity=95 time=0
EXTRACT: note_off channel=0 note=61 velocity=95 time=0
EXTRACT: note_on channel=4 note=56 velocity=95 time=0
EXTRACT: note_on channel=4 note=52 velocity=95 time=0
EXTRACT: note_on channel=4 note=47 velocity=95 time=0
EXTRACT: note_off channel=9 note=42 velocity=95 time=0
EXTRACT: note_on channel=9 note=42 velocity=95 time=0
EXTRACT: note_on channel=9 note=36 velocity=95 time=0
EXTRACT: note_off channel=4 note=56 velocity=95 time=0.031249968750000003
EXTRACT: note_off channel=4 note=52 velocity=95 time=0
EXTRACT: note_off channel=4 note=47 velocity=95 time=0
EXTRACT: note_on channel=0 note=73 velocity=95 time=0.13541653125
EXTRACT: note_on channel=0 note=68 velocity=95 time=0
EXTRACT: note_on channel=0 note=64 velocity=95 time=0
EXTRACT: note_on channel=0 note=61 velocity=95 time=0
EXTRACT: note_on channel=4 note=64 velocity=95 time=0
EXTRACT: note_on channel=4 note=61 velocity=95 time=0
EXTRACT: note_on channel=4 note=56 velocity=95 time=0
EXTRACT: note_on channel=4 note=49 velocity=95 time=0
EXTRACT: note_off channel=6 note=68 velocity=95 time=0
EXTRACT: note_off channel=6 note=64 velocity=95 time=0
EXTRACT: note_on channel=6 note=68 velocity=95 time=0
EXTRACT: note_on channel=6 note=64 velocity=95 time=0
EXTRACT: note_off channel=12 note=35 velocity=95 time=0
EXTRACT: note_on channel=12 note=37 velocity=95 time=0
EXTRACT: note_off channel=9 note=42 velocity=95 time=0
EXTRACT: note_off channel=9 note=36 velocity=95 time=0
EXTRACT: note_off channel=0 note=73 velocity=95 time=0.1666665
EXTRACT: note_off channel=0 note=68 velocity=95 time=0
EXTRACT: note_off channel=0 note=64 velocity=95 time=0
EXTRACT: note_off channel=0 note=61 velocity=95 time=0
EXTRACT: note_off channel=4 note=64 velocity=95 time=0
EXTRACT: note_off channel=4 note=61 velocity=95 time=0
EXTRACT: note_off channel=4 note=56 velocity=95 time=0
EXTRACT: note_off channel=4 note=49 velocity=95 time=0
EXTRACT: note_on channel=4 note=64 velocity=95 time=0
EXTRACT: note_on channel=4 note=61 velocity=95 time=0
EXTRACT: note_on channel=4 note=56 velocity=95 time=0
EXTRACT: note_on channel=4 note=49 velocity=95 time=0
EXTRACT: note_on channel=9 note=42 velocity=95 time=0
EXTRACT: note_on channel=9 note=40 velocity=95 time=0
EXTRACT: note_on channel=0 note=73 velocity=95 time=0.1666665
EXTRACT: note_on channel=0 note=68 velocity=95 time=0
EXTRACT: note_on channel=0 note=64 velocity=95 time=0
EXTRACT: note_on channel=0 note=61 velocity=95 time=0
EXTRACT: note_off channel=4 note=64 velocity=95 time=0
EXTRACT: note_off channel=4 note=61 velocity=95 time=0
EXTRACT: note_off channel=4 note=56 velocity=95 time=0
EXTRACT: note_off channel=4 note=49 velocity=95 time=0
EXTRACT: note_on channel=4 note=64 velocity=95 time=0
EXTRACT: note_on channel=4 note=61 velocity=95 time=0
EXTRACT: note_on channel=4 note=56 velocity=95 time=0
EXTRACT: note_on channel=4 note=49 velocity=95 time=0
EXTRACT: note_off channel=12 note=37 velocity=95 time=0
EXTRACT: note_on channel=12 note=37 velocity=95 time=0
EXTRACT: note_off channel=9 note=42 velocity=95 time=0
EXTRACT: note_off channel=9 note=40 velocity=95 time=0
EXTRACT: note_on channel=9 note=42 velocity=95 time=0
EXTRACT: note_off channel=6 note=68 velocity=95 time=0.1041665625
EXTRACT: note_off channel=6 note=64 velocity=95 time=0
EXTRACT: note_off channel=0 note=73 velocity=95 time=0.062499937500000005
EXTRACT: note_off channel=0 note=68 velocity=95 time=0
EXTRACT: note_off channel=0 note=64 velocity=95 time=0
EXTRACT: note_off channel=0 note=61 velocity=95 time=0
EXTRACT: note_off channel=4 note=64 velocity=95 time=0
EXTRACT: note_off channel=4 note=61 velocity=95 time=0
EXTRACT: note_off channel=4 note=56 velocity=95 time=0
EXTRACT: note_off channel=4 note=49 velocity=95 time=0
EXTRACT: note_on channel=4 note=64 velocity=95 time=0
EXTRACT: note_on channel=4 note=61 velocity=95 time=0
EXTRACT: note_on channel=4 note=56 velocity=95 time=0
EXTRACT: note_on channel=4 note=49 velocity=95 time=0
EXTRACT: note_on channel=6 note=68 velocity=95 time=0
EXTRACT: note_on channel=6 note=64 velocity=95 time=0
EXTRACT: note_off channel=12 note=37 velocity=95 time=0
EXTRACT: note_on channel=12 note=40 velocity=95 time=0
EXTRACT: note_off channel=9 note=42 velocity=95 time=0
EXTRACT: note_on channel=9 note=42 velocity=95 time=0
EXTRACT: note_on channel=0 note=73 velocity=95 time=0.1666665
EXTRACT: note_on channel=0 note=68 velocity=95 time=0
EXTRACT: note_on channel=0 note=64 velocity=95 time=0
EXTRACT: note_on channel=0 note=61 velocity=95 time=0
EXTRACT: pitchwheel channel=3 pitch=0 time=0
EXTRACT: note_on channel=3 note=54 velocity=95 time=0
EXTRACT: note_off channel=4 note=64 velocity=95 time=0
EXTRACT: note_off channel=4 note=61 velocity=95 time=0
EXTRACT: note_off channel=4 note=56 velocity=95 time=0
EXTRACT: note_off channel=4 note=49 velocity=95 time=0
EXTRACT: note_on channel=4 note=56 velocity=95 time=0
EXTRACT: note_on channel=4 note=52 velocity=95 time=0
EXTRACT: note_on channel=4 note=47 velocity=95 time=0
EXTRACT: note_off channel=12 note=40 velocity=95 time=0
EXTRACT: note_on channel=12 note=39 velocity=95 time=0
EXTRACT: note_off channel=9 note=42 velocity=95 time=0
EXTRACT: note_on channel=9 note=36 velocity=95 time=0
EXTRACT: pitchwheel channel=3 pitch=128 time=0.0072916593750000005
EXTRACT: pitchwheel channel=3 pitch=256 time=0.0072916593750000005
EXTRACT: pitchwheel channel=3 pitch=384 time=0.0072916593750000005
EXTRACT: pitchwheel channel=3 pitch=512 time=0.0072916593750000005
EXTRACT: note_off channel=4 note=56 velocity=95 time=0.00208333125
EXTRACT: note_off channel=4 note=52 velocity=95 time=0
EXTRACT: note_off channel=4 note=47 velocity=95 time=0
EXTRACT: pitchwheel channel=3 pitch=640 time=0.005208328125
EXTRACT: pitchwheel channel=3 pitch=768 time=0.0072916593750000005
EXTRACT: pitchwheel channel=3 pitch=896 time=0.0072916593750000005
EXTRACT: pitchwheel channel=3 pitch=1024 time=0.0072916593750000005
EXTRACT: pitchwheel channel=3 pitch=1152 time=0.0072916593750000005
EXTRACT: pitchwheel channel=3 pitch=1280 time=0.0072916593750000005
EXTRACT: pitchwheel channel=3 pitch=1408 time=0.0072916593750000005
EXTRACT: pitchwheel channel=3 pitch=1408 time=0.003124996875
EXTRACT: note_off channel=0 note=73 velocity=95 time=0.08333325
EXTRACT: note_off channel=0 note=68 velocity=95 time=0
EXTRACT: note_off channel=0 note=64 velocity=95 time=0
EXTRACT: note_off channel=0 note=61 velocity=95 time=0
EXTRACT: pitchwheel channel=3 pitch=1408 time=0
EXTRACT: note_on channel=4 note=56 velocity=95 time=0
EXTRACT: note_on channel=4 note=52 velocity=95 time=0
EXTRACT: note_on channel=4 note=47 velocity=95 time=0
EXTRACT: note_off channel=12 note=39 velocity=95 time=0
EXTRACT: note_on channel=12 note=37 velocity=95 time=0
EXTRACT: note_off channel=9 note=36 velocity=95 time=0
EXTRACT: note_on channel=9 note=42 velocity=95 time=0
EXTRACT: note_on channel=9 note=40 velocity=95 time=0
EXTRACT: pitchwheel channel=3 pitch=1280 time=0.0072916593750000005
EXTRACT: pitchwheel channel=3 pitch=1152 time=0.0072916593750000005
EXTRACT: pitchwheel channel=3 pitch=1024 time=0.0072916593750000005
EXTRACT: pitchwheel channel=3 pitch=896 time=0.0072916593750000005
EXTRACT: note_off channel=4 note=56 velocity=95 time=0.00208333125
EXTRACT: note_off channel=4 note=52 velocity=95 time=0
EXTRACT: note_off channel=4 note=47 velocity=95 time=0
EXTRACT: pitchwheel channel=3 pitch=768 time=0.005208328125
EXTRACT: pitchwheel channel=3 pitch=640 time=0.0072916593750000005
EXTRACT: pitchwheel channel=3 pitch=512 time=0.0072916593750000005
EXTRACT: pitchwheel channel=3 pitch=384 time=0.0072916593750000005
EXTRACT: pitchwheel channel=3 pitch=256 time=0.0072916593750000005
EXTRACT: pitchwheel channel=3 pitch=128 time=0.0072916593750000005
EXTRACT: pitchwheel channel=3 pitch=0 time=0.0072916593750000005
EXTRACT: pitchwheel channel=3 pitch=0 time=0.003124996875
EXTRACT: note_off channel=6 note=68 velocity=95 time=0.0208333125
EXTRACT: note_off channel=6 note=64 velocity=95 time=0
EXTRACT: note_on channel=0 note=73 velocity=95 time=0.062499937500000005
EXTRACT: note_on channel=0 note=68 velocity=95 time=0
EXTRACT: note_on channel=0 note=64 velocity=95 time=0
EXTRACT: note_on channel=0 note=61 velocity=95 time=0
EXTRACT: pitchwheel channel=3 pitch=0 time=0
EXTRACT: pitchwheel channel=3 pitch=0 time=0
EXTRACT: note_off channel=3 note=54 velocity=95 time=0
EXTRACT: note_on channel=2 note=52 velocity=95 time=0
EXTRACT: note_on channel=4 note=56 velocity=95 time=0
EXTRACT: note_on channel=4 note=52 velocity=95 time=0
EXTRACT: note_on channel=4 note=47 velocity=95 time=0
EXTRACT: note_off channel=12 note=37 velocity=95 time=0
EXTRACT: note_on channel=12 note=33 velocity=95 time=0
EXTRACT: note_off channel=9 note=42 velocity=95 time=0
EXTRACT: note_off channel=9 note=40 velocity=95 time=0
EXTRACT: note_on channel=9 note=42 velocity=95 time=0
EXTRACT: note_off channel=4 note=56 velocity=95 time=0.031249968750000003
EXTRACT: note_off channel=4 note=52 velocity=95 time=0
EXTRACT: note_off channel=4 note=47 velocity=95 time=0
EXTRACT: note_off channel=12 note=33 velocity=95 time=0
EXTRACT: note_off channel=0 note=73 velocity=95 time=0.13541653125
EXTRACT: note_off channel=0 note=68 velocity=95 time=0
EXTRACT: note_off channel=0 note=64 velocity=95 time=0
EXTRACT: note_off channel=0 note=61 velocity=95 time=0
EXTRACT: note_off channel=2 note=52 velocity=95 time=0
EXTRACT: note_on channel=4 note=63 velocity=95 time=0
EXTRACT: note_on channel=4 note=59 velocity=95 time=0
EXTRACT: note_on channel=4 note=54 velocity=95 time=0
EXTRACT: note_on channel=4 note=47 velocity=95 time=0
EXTRACT: note_on channel=6 note=63 velocity=95 time=0
EXTRACT: note_on channel=12 note=35 velocity=95 time=0
EXTRACT: note_off channel=9 note=42 velocity=95 time=0
EXTRACT: note_on channel=9 note=42 velocity=95 time=0
EXTRACT: note_on channel=9 note=36 velocity=95 time=0
EXTRACT: note_on channel=0 note=71 velocity=95 time=0.1666665
EXTRACT: note_on channel=0 note=66 velocity=95 time=0
EXTRACT: note_on channel=0 note=63 velocity=95 time=0
EXTRACT: note_on channel=0 note=59 velocity=95 time=0
EXTRACT: note_off channel=4 note=63 velocity=95 time=0
EXTRACT: note_off channel=4 note=59 velocity=95 time=0
EXTRACT: note_off channel=4 note=54 velocity=95 time=0
EXTRACT: note_off channel=4 note=47 velocity=95 time=0
EXTRACT: note_on channel=4 note=56 velocity=95 time=0
EXTRACT: note_on channel=4 note=52 velocity=95 time=0
EXTRACT: note_on channel=4 note=47 velocity=95 time=0
EXTRACT: note_off channel=6 note=63 velocity=95 time=0
EXTRACT: note_on channel=6 note=63 velocity=95 time=0
EXTRACT: note_off channel=9 note=42 velocity=95 time=0
EXTRACT: note_off channel=9 note=36 velocity=95 time=0
EXTRACT: note_off channel=4 note=56 velocity=95 time=0.031249968750000003
EXTRACT: note_off channel=4 note=52 velocity=95 time=0
EXTRACT: note_off channel=4 note=47 velocity=95 time=0
EXTRACT: note_off channel=0 note=71 velocity=95 time=0.13541653125
EXTRACT: note_off channel=0 note=66 velocity=95 time=0
EXTRACT: note_off channel=0 note=63 velocity=95 time=0
EXTRACT: note_off channel=0 note=59 velocity=95 time=0
EXTRACT: note_on channel=4 note=56 velocity=95 time=0
EXTRACT: note_on channel=4 note=52 velocity=95 time=0
EXTRACT: note_on channel=4 note=47 velocity=95 time=0
EXTRACT: note_off channel=6 note=63 velocity=95 time=0
EXTRACT: note_on channel=6 note=63 velocity=95 time=0
EXTRACT: note_off channel=12 note=35 velocity=95 time=0
EXTRACT: note_on channel=9 note=42 velocity=95 time=0
EXTRACT: note_on channel=9 note=40 velocity=95 time=0
EXTRACT: note_off channel=4 note=56 velocity=95 time=0.031249968750000003
EXTRACT: note_off channel=4 note=52 velocity=95 time=0
EXTRACT: note_off channel=4 note=47 velocity=95 time=0
EXTRACT: note_on channel=0 note=71 velocity=95 time=0.13541653125
EXTRACT: note_on channel=0 note=66 velocity=95 time=0
EXTRACT: note_on channel=0 note=63 velocity=95 time=0
EXTRACT: note_on channel=0 note=59 velocity=95 time=0
EXTRACT: note_on channel=4 note=63 velocity=95 time=0
EXTRACT: note_on channel=4 note=59 velocity=95 time=0
EXTRACT: note_on channel=4 note=54 velocity=95 time=0
EXTRACT: note_on channel=4 note=47 velocity=95 time=0
EXTRACT: note_off channel=6 note=63 velocity=95 time=0
EXTRACT: note_on channel=6 note=63 velocity=95 time=0
EXTRACT: note_on channel=12 note=30 velocity=95 time=0
EXTRACT: note_off channel=9 note=42 velocity=95 time=0
EXTRACT: note_off channel=9 note=40 velocity=95 time=0
EXTRACT: note_on channel=9 note=42 velocity=95 time=0
EXTRACT: note_off channel=0 note=71 velocity=95 time=0.1666665
EXTRACT: note_off channel=0 note=66 velocity=95 time=0
EXTRACT: note_off channel=0 note=63 velocity=95 time=0
EXTRACT: note_off channel=0 note=59 velocity=95 time=0
EXTRACT: note_off channel=4 note=63 velocity=95 time=0
EXTRACT: note_off channel=4 note=59 velocity=95 time=0
EXTRACT: note_off channel=4 note=54 velocity=95 time=0
EXTRACT: note_off channel=4 note=47 velocity=95 time=0
EXTRACT: note_on channel=4 note=56 velocity=95 time=0
EXTRACT: note_on channel=4 note=52 velocity=95 time=0
EXTRACT: note_on channel=4 note=47 velocity=95 time=0
EXTRACT: note_off channel=12 note=30 velocity=95 time=0
EXTRACT: note_on channel=12 note=30 velocity=95 time=0
EXTRACT: note_off channel=9 note=42 velocity=95 time=0
EXTRACT: note_on channel=9 note=42 velocity=95 time=0
EXTRACT: note_on channel=9 note=36 velocity=95 time=0
EXTRACT: note_off channel=4 note=56 velocity=95 time=0.031249968750000003
EXTRACT: note_off channel=4 note=52 velocity=95 time=0
EXTRACT: note_off channel=4 note=47 velocity=95 time=0
EXTRACT: note_on channel=0 note=71 velocity=95 time=0.13541653125
EXTRACT: note_on channel=0 note=66 velocity=95 time=0
EXTRACT: note_on channel=0 note=63 velocity=95 time=0
EXTRACT: note_on channel=0 note=59 velocity=95 time=0
EXTRACT: note_on channel=4 note=56 velocity=95 time=0
EXTRACT: note_on channel=4 note=52 velocity=95 time=0
EXTRACT: note_on channel=4 note=47 velocity=95 time=0
EXTRACT: note_off channel=6 note=63 velocity=95 time=0
EXTRACT: note_on channel=6 note=64 velocity=95 time=0
EXTRACT: note_off channel=9 note=42 velocity=95 time=0
EXTRACT: note_off channel=9 note=36 velocity=95 time=0
EXTRACT: note_off channel=4 note=56 velocity=95 time=0.031249968750000003
EXTRACT: note_off channel=4 note=52 velocity=95 time=0
EXTRACT: note_off channel=4 note=47 velocity=95 time=0
EXTRACT: note_off channel=0 note=71 velocity=95 time=0.13541653125
EXTRACT: note_off channel=0 note=66 velocity=95 time=0
EXTRACT: note_off channel=0 note=63 velocity=95 time=0
EXTRACT: note_off channel=0 note=59 velocity=95 time=0
EXTRACT: note_on channel=4 note=56 velocity=95 time=0
EXTRACT: note_on channel=4 note=52 velocity=95 time=0
EXTRACT: note_on channel=4 note=47 velocity=95 time=0
EXTRACT: note_off channel=12 note=30 velocity=95 time=0
EXTRACT: note_on channel=12 note=33 velocity=95 time=0
EXTRACT: note_on channel=9 note=42 velocity=95 time=0
EXTRACT: note_on channel=9 note=40 velocity=95 time=0
EXTRACT: note_off channel=4 note=56 velocity=95 time=0.031249968750000003
EXTRACT: note_off channel=4 note=52 velocity=95 time=0
EXTRACT: note_off channel=4 note=47 velocity=95 time=0
EXTRACT: note_on channel=0 note=71 velocity=95 time=0.13541653125
EXTRACT: note_on channel=0 note=66 velocity=95 time=0
EXTRACT: note_on channel=0 note=63 velocity=95 time=0
EXTRACT: note_on channel=0 note=59 velocity=95 time=0
EXTRACT: note_on channel=4 note=56 velocity=95 time=0
EXTRACT: note_on channel=4 note=52 velocity=95 time=0
EXTRACT: note_on channel=4 note=47 velocity=95 time=0
EXTRACT: note_off channel=6 note=64 velocity=95 time=0
EXTRACT: note_on channel=6 note=63 velocity=95 time=0
EXTRACT: note_off channel=9 note=42 velocity=95 time=0
EXTRACT: note_off channel=9 note=40 velocity=95 time=0
EXTRACT: note_on channel=9 note=42 velocity=95 time=0
EXTRACT: note_off channel=4 note=56 velocity=95 time=0.031249968750000003
EXTRACT: note_off channel=4 note=52 velocity=95 time=0
EXTRACT: note_off channel=4 note=47 velocity=95 time=0
EXTRACT: note_off channel=0 note=71 velocity=95 time=0.13541653125
EXTRACT: note_off channel=0 note=66 velocity=95 time=0
EXTRACT: note_off channel=0 note=63 velocity=95 time=0
EXTRACT: note_off channel=0 note=59 velocity=95 time=0
EXTRACT: note_on channel=4 note=56 velocity=95 time=0
EXTRACT: note_on channel=4 note=52 velocity=95 time=0
EXTRACT: note_on channel=4 note=47 velocity=95 time=0
EXTRACT: note_off channel=12 note=33 velocity=95 time=0
EXTRACT: note_on channel=12 note=37 velocity=95 time=0
EXTRACT: note_off channel=9 note=42 velocity=95 time=0
EXTRACT: note_on channel=9 note=42 velocity=95 time=0
EXTRACT: note_on channel=9 note=36 velocity=95 time=0
EXTRACT: note_off channel=4 note=56 velocity=95 time=0.031249968750000003
EXTRACT: note_off channel=4 note=52 velocity=95 time=0
EXTRACT: note_off channel=4 note=47 velocity=95 time=0
EXTRACT: note_on channel=0 note=73 velocity=95 time=0.13541653125
EXTRACT: note_on channel=0 note=68 velocity=95 time=0
EXTRACT: note_on channel=0 note=64 velocity=95 time=0
EXTRACT: note_on channel=0 note=61 velocity=95 time=0
EXTRACT: note_on channel=3 note=59 velocity=95 time=0
EXTRACT: note_on channel=4 note=64 velocity=95 time=0
EXTRACT: note_on channel=4 note=61 velocity=95 time=0
EXTRACT: note_on channel=4 note=56 velocity=95 time=0
EXTRACT: note_on channel=4 note=49 velocity=95 time=0
EXTRACT: note_off channel=6 note=63 velocity=95 time=0
EXTRACT: note_on channel=6 note=61 velocity=95 time=0
EXTRACT: note_off channel=9 note=42 velocity=95 time=0
EXTRACT: note_off channel=9 note=36 velocity=95 time=0
EXTRACT: pitchwheel channel=3 pitch=1408 time=0.041666625
EXTRACT: pitchwheel channel=3 pitch=0 time=0
EXTRACT: note_off channel=3 note=59 velocity=95 time=0
EXTRACT: note_on channel=2 note=61 velocity=95 time=0
EXTRACT: note_off channel=0 note=73 velocity=95 time=0.12499987500000001
EXTRACT: note_off channel=0 note=68 velocity=95 time=0
EXTRACT: note_off channel=0 note=64 velocity=95 time=0
EXTRACT: note_off channel=0 note=61 velocity=95 time=0
EXTRACT: note_off channel=4 note=64 velocity=95 time=0
EXTRACT: note_off channel=4 note=61 velocity=95 time=0
EXTRACT: note_off channel=4 note=56 velocity=95 time=0
EXTRACT: note_off channel=4 note=49 velocity=95 time=0
EXTRACT: note_on channel=4 note=64 velocity=95 time=0
EXTRACT: note_on channel=4 note=61 velocity=95 time=0
EXTRACT: note_on channel=4 note=56 velocity=95 time=0
EXTRACT: note_on channel=4 note=49 velocity=95 time=0
EXTRACT: note_off channel=6 note=61 velocity=95 time=0
EXTRACT: note_on channel=6 note=68 velocity=95 time=0
EXTRACT: note_on channel=9 note=42 velocity=95 time=0
EXTRACT: note_on channel=9 note=40 velocity=95 time=0
EXTRACT: note_on channel=0 note=73 velocity=95 time=0.1666665
EXTRACT: note_on channel=0 note=68 velocity=95 time=0
EXTRACT: note_on channel=0 note=64 velocity=95 time=0
EXTRACT: note_on channel=0 note=61 velocity=95 time=0
EXTRACT: note_off channel=2 note=61 velocity=95 time=0
EXTRACT: note_on channel=2 note=56 velocity=95 time=0
EXTRACT: note_off channel=4 note=64 velocity=95 time=0
EXTRACT: note_off channel=4 note=61 velocity=95 time=0
EXTRACT: note_off channel=4 note=56 velocity=95 time=0
EXTRACT: note_off channel=4 note=49 velocity=95 time=0
EXTRACT: note_on channel=4 note=64 velocity=95 time=0
EXTRACT: note_on channel=4 note=61 velocity=95 time=0
EXTRACT: note_on channel=4 note=56 velocity=95 time=0
EXTRACT: note_on channel=4 note=49 velocity=95 time=0
EXTRACT: note_off channel=6 note=68 velocity=95 time=0
EXTRACT: note_on channel=6 note=68 velocity=95 time=0
EXTRACT: note_off channel=12 note=37 velocity=95 time=0
EXTRACT: note_on channel=12 note=37 velocity=95 time=0
EXTRACT: note_off channel=9 note=42 velocity=95 time=0
EXTRACT: note_off channel=9 note=40 velocity=95 time=0
EXTRACT: note_on channel=9 note=42 velocity=95 time=0
EXTRACT: note_off channel=0 note=73 velocity=95 time=0.1666665
EXTRACT: note_off channel=0 note=68 velocity=95 time=0
EXTRACT: note_off channel=0 note=64 velocity=95 time=0
EXTRACT: note_off channel=0 note=61 velocity=95 time=0
EXTRACT: note_off channel=2 note=56 velocity=95 time=0
EXTRACT: note_on channel=2 note=61 velocity=95 time=0
EXTRACT: note_off channel=4 note=64 velocity=95 time=0
EXTRACT: note_off channel=4 note=61 velocity=95 time=0
EXTRACT: note_off channel=4 note=56 velocity=95 time=0
EXTRACT: note_off channel=4 note=49 velocity=95 time=0
EXTRACT: note_on channel=4 note=64 velocity=95 time=0
EXTRACT: note_on channel=4 note=61 velocity=95 time=0
EXTRACT: note_on channel=4 note=56 velocity=95 time=0
EXTRACT: note_on channel=4 note=49 velocity=95 time=0
EXTRACT: note_off channel=12 note=37 velocity=95 time=0
EXTRACT: note_on channel=12 note=32 velocity=95 time=0
EXTRACT: note_off channel=9 note=42 velocity=95 time=0
EXTRACT: note_on channel=9 note=42 velocity=95 time=0
EXTRACT: note_on channel=0 note=73 velocity=95 time=0.1666665
EXTRACT: note_on channel=0 note=68 velocity=95 time=0
EXTRACT: note_on channel=0 note=64 velocity=95 time=0
EXTRACT: note_on channel=0 note=61 velocity=95 time=0
EXTRACT: note_off channel=2 note=61 velocity=95 time=0
EXTRACT: note_on channel=2 note=61 velocity=95 time=0
EXTRACT: note_off channel=4 note=64 velocity=95 time=0
EXTRACT: note_off channel=4 note=61 velocity=95 time=0
EXTRACT: note_off channel=4 note=56 velocity=95 time=0
EXTRACT: note_off channel=4 note=49 velocity=95 time=0
EXTRACT: note_on channel=4 note=64 velocity=95 time=0
EXTRACT: note_on channel=4 note=61 velocity=95 time=0
EXTRACT: note_on channel=4 note=56 velocity=95 time=0
EXTRACT: note_on channel=4 note=49 velocity=95 time=0
EXTRACT: note_off channel=9 note=42 velocity=95 time=0
EXTRACT: note_on channel=9 note=36 velocity=95 time=0
EXTRACT: note_off channel=6 note=68 velocity=95 time=0.1041665625
EXTRACT: note_off channel=0 note=73 velocity=95 time=0.062499937500000005
EXTRACT: note_off channel=0 note=68 velocity=95 time=0
EXTRACT: note_off channel=0 note=64 velocity=95 time=0
EXTRACT: note_off channel=0 note=61 velocity=95 time=0
EXTRACT: note_off channel=2 note=61 velocity=95 time=0
EXTRACT: note_on channel=3 note=61 velocity=95 time=0
EXTRACT: note_off channel=4 note=64 velocity=95 time=0
EXTRACT: note_off channel=4 note=61 velocity=95 time=0
EXTRACT: note_off channel=4 note=56 velocity=95 time=0
EXTRACT: note_off channel=4 note=49 velocity=95 time=0
EXTRACT: note_on channel=4 note=56 velocity=95 time=0
EXTRACT: note_on channel=4 note=52 velocity=95 time=0
EXTRACT: note_on channel=4 note=47 velocity=95 time=0
EXTRACT: note_off channel=12 note=32 velocity=95 time=0
EXTRACT: note_on channel=12 note=35 velocity=95 time=0
EXTRACT: note_on channel=14 note=80 velocity=95 time=0
EXTRACT: note_on channel=14 note=73 velocity=95 time=0
EXTRACT: note_off channel=9 note=36 velocity=95 time=0
EXTRACT: note_on channel=9 note=42 velocity=95 time=0
EXTRACT: note_on channel=9 note=40 velocity=95 time=0
EXTRACT: note_off channel=4 note=56 velocity=95 time=0.031249968750000003
EXTRACT: note_off channel=4 note=52 velocity=95 time=0
EXTRACT: note_off channel=4 note=47 velocity=95 time=0
EXTRACT: pitchwheel channel=3 pitch=0 time=0.02430553125
EXTRACT: pitchwheel channel=3 pitch=128 time=0.0555555
EXTRACT: note_on channel=0 note=73 velocity=95 time=0.0555555
EXTRACT: note_on channel=0 note=68 velocity=95 time=0
EXTRACT: note_on channel=0 note=64 velocity=95 time=0
EXTRACT: note_on channel=0 note=61 velocity=95 time=0
EXTRACT: pitchwheel channel=3 pitch=0 time=0
EXTRACT: note_on channel=4 note=56 velocity=95 time=0
EXTRACT: note_on channel=4 note=52 velocity=95 time=0
EXTRACT: note_on channel=4 note=47 velocity=95 time=0
EXTRACT: note_off channel=12 note=35 velocity=95 time=0
EXTRACT: note_on channel=12 note=35 velocity=95 time=0
EXTRACT: note_off channel=14 note=80 velocity=95 time=0
EXTRACT: note_off channel=14 note=73 velocity=95 time=0
EXTRACT: note_off channel=9 note=42 velocity=95 time=0
EXTRACT: note_off channel=9 note=40 velocity=95 time=0
EXTRACT: note_on channel=9 note=42 velocity=95 time=0
EXTRACT: note_off channel=4 note=56 velocity=95 time=0.031249968750000003
EXTRACT: note_off channel=4 note=52 velocity=95 time=0
EXTRACT: note_off channel=4 note=47 velocity=95 time=0
EXTRACT: pitchwheel channel=3 pitch=128 time=0.02430553125
EXTRACT: pitchwheel channel=3 pitch=0 time=0.0555555
EXTRACT: note_off channel=0 note=73 velocity=95 time=0.0555555
EXTRACT: note_off channel=0 note=68 velocity=95 time=0
EXTRACT: note_off channel=0 note=64 velocity=95 time=0
EXTRACT: note_off channel=0 note=61 velocity=95 time=0
EXTRACT: pitchwheel channel=3 pitch=128 time=0
EXTRACT: note_on channel=4 note=63 velocity=95 time=0
EXTRACT: note_on channel=4 note=59 velocity=95 time=0
EXTRACT: note_on channel=4 note=54 velocity=95 time=0
EXTRACT: note_on channel=4 note=47 velocity=95 time=0
EXTRACT: note_on channel=6 note=63 velocity=95 time=0
EXTRACT: note_off channel=12 note=35 velocity=95 time=0
EXTRACT: note_on channel=12 note=35 velocity=95 time=0
EXTRACT: note_off channel=9 note=42 velocity=95 time=0
EXTRACT: note_on channel=9 note=42 velocity=95 time=0
EXTRACT: note_on channel=9 note=36 velocity=95 time=0
EXTRACT: pitchwheel channel=3 pitch=0 time=0.0555555
EXTRACT: pitchwheel channel=3 pitch=128 time=0.0555555
EXTRACT: note_on channel=0 note=71 velocity=95 time=0.0555555
EXTRACT: note_on channel=0 note=66 velocity=95 time=0
EXTRACT: note_on channel=0 note=63 velocity=95 time=0
EXTRACT: note_on channel=0 note=59 velocity=95 time=0
EXTRACT: pitchwheel channel=3 pitch=0 time=0
EXTRACT: note_off channel=4 note=63 velocity=95 time=0
EXTRACT: note_off channel=4 note=59 velocity=95 time=0
EXTRACT: note_off channel=4 note=54 velocity=95 time=0
EXTRACT: note_off channel=4 note=47 velocity=95 time=0
EXTRACT: note_on channel=4 note=56 velocity=95 time=0
EXTRACT: note_on channel=4 note=52 velocity=95 time=0
EXTRACT: note_on channel=4 note=47 velocity=95 time=0
EXTRACT: note_off channel=6 note=63 velocity=95 time=0
EXTRACT: note_on channel=6 note=63 velocity=95 time=0
EXTRACT: note_off channel=9 note=42 velocity=95 time=0
EXTRACT: note_off channel=9 note=36 velocity=95 time=0
EXTRACT: note_off channel=4 note=56 velocity=95 time=0.031249968750000003
EXTRACT: note_off channel=4 note=52 velocity=95 time=0
EXTRACT: note_off channel=4 note=47 velocity=95 time=0
EXTRACT: pitchwheel channel=3 pitch=128 time=0.02430553125
EXTRACT: pitchwheel channel=3 pitch=0 time=0.0555555
EXTRACT: note_off channel=0 note=71 velocity=95 time=0.0555555
EXTRACT: note_off channel=0 note=66 velocity=95 time=0
EXTRACT: note_off channel=0 note=63 velocity=95 time=0
EXTRACT: note_off channel=0 note=59 velocity=95 time=0
EXTRACT: pitchwheel channel=3 pitch=128 time=0
EXTRACT: pitchwheel channel=3 pitch=0 time=0
EXTRACT: note_off channel=3 note=61 velocity=95 time=0
EXTRACT: note_on channel=4 note=56 velocity=95 time=0
EXTRACT: note_on channel=4 note=52 velocity=95 time=0
EXTRACT: note_on channel=4 note=47 velocity=95 time=0
EXTRACT: note_off channel=6 note=63 velocity=95 time=0
EXTRACT: note_on channel=6 note=63 velocity=95 time=0
EXTRACT: note_off channel=12 note=35 velocity=95 time=0
EXTRACT: note_on channel=9 note=42 velocity=95 time=0
EXTRACT: note_on channel=9 note=40 velocity=95 time=0
EXTRACT: note_off channel=4 note=56 velocity=95 time=0.031249968750000003
EXTRACT: note_off channel=4 note=52 velocity=95 time=0
EXTRACT: note_off channel=4 note=47 velocity=95 time=0
EXTRACT: note_on channel=0 note=71 velocity=95 time=0.13541653125
EXTRACT: note_on channel=0 note=66 velocity=95 time=0
EXTRACT: note_on channel=0 note=63 velocity=95 time=0
EXTRACT: note_on channel=0 note=59 velocity=95 time=0
EXTRACT: note_on channel=4 note=63 velocity=95 time=0
EXTRACT: note_on channel=4 note=59 velocity=95 time=0
EXTRACT: note_on channel=4 note=54 velocity=95 time=0
EXTRACT: note_on channel=4 note=47 velocity=95 time=0
EXTRACT: note_off channel=6 note=63 velocity=95 time=0
EXTRACT: note_on channel=6 note=63 velocity=95 time=0
EXTRACT: note_on channel=12 note=30 velocity=95 time=0
EXTRACT: note_off channel=9 note=42 velocity=95 time=0
EXTRACT: note_off channel=9 note=40 velocity=95 time=0
EXTRACT: note_on channel=9 note=42 velocity=95 time=0
EXTRACT: note_off channel=0 note=71 velocity=95 time=0.1666665
EXTRACT: note_off channel=0 note=66 velocity=95 time=0
EXTRACT: note_off channel=0 note=63 velocity=95 time=0
EXTRACT: note_off channel=0 note=59 velocity=95 time=0
EXTRACT: note_off channel=4 note=63 velocity=95 time=0
EXTRACT: note_off channel=4 note=59 velocity=95 time=0
EXTRACT: note_off channel=4 note=54 velocity=95 time=0
EXTRACT: note_off channel=4 note=47 velocity=95 time=0
EXTRACT: note_on channel=4 note=56 velocity=95 time=0
EXTRACT: note_on channel=4 note=52 velocity=95 time=0
EXTRACT: note_on channel=4 note=47 velocity=95 time=0
EXTRACT: note_off channel=12 note=30 velocity=95 time=0
EXTRACT: note_on channel=12 note=30 velocity=95 time=0
EXTRACT: note_off channel=9 note=42 velocity=95 time=0
EXTRACT: note_on channel=9 note=42 velocity=95 time=0
EXTRACT: note_on channel=9 note=36 velocity=95 time=0
EXTRACT: note_off channel=4 note=56 velocity=95 time=0.031249968750000003
EXTRACT: note_off channel=4 note=52 velocity=95 time=0
EXTRACT: note_off channel=4 note=47 velocity=95 time=0
EXTRACT: note_on channel=0 note=71 velocity=95 time=0.13541653125
EXTRACT: note_on channel=0 note=66 velocity=95 time=0
EXTRACT: note_on channel=0 note=63 velocity=95 time=0
EXTRACT: note_on channel=0 note=59 velocity=95 time=0
EXTRACT: note_on channel=4 note=56 velocity=95 time=0
EXTRACT: note_on channel=4 note=52 velocity=95 time=0
EXTRACT: note_on channel=4 note=47 velocity=95 time=0
EXTRACT: note_off channel=6 note=63 velocity=95 time=0
EXTRACT: note_on channel=6 note=64 velocity=95 time=0
EXTRACT: note_off channel=9 note=42 velocity=95 time=0
EXTRACT: note_off channel=9 note=36 velocity=95 time=0
EXTRACT: note_off channel=4 note=56 velocity=95 time=0.031249968750000003
EXTRACT: note_off channel=4 note=52 velocity=95 time=0
EXTRACT: note_off channel=4 note=47 velocity=95 time=0
EXTRACT: note_off channel=0 note=71 velocity=95 time=0.13541653125
EXTRACT: note_off channel=0 note=66 velocity=95 time=0
EXTRACT: note_off channel=0 note=63 velocity=95 time=0
EXTRACT: note_off channel=0 note=59 velocity=95 time=0
EXTRACT: note_on channel=4 note=56 velocity=95 time=0
EXTRACT: note_on channel=4 note=52 velocity=95 time=0
EXTRACT: note_on channel=4 note=47 velocity=95 time=0
EXTRACT: note_off channel=12 note=30 velocity=95 time=0
EXTRACT: note_on channel=12 note=33 velocity=95 time=0
EXTRACT: note_on channel=9 note=42 velocity=95 time=0
EXTRACT: note_on channel=9 note=40 velocity=95 time=0
EXTRACT: note_off channel=4 note=56 velocity=95 time=0.031249968750000003
EXTRACT: note_off channel=4 note=52 velocity=95 time=0
EXTRACT: note_off channel=4 note=47 velocity=95 time=0
EXTRACT: note_on channel=0 note=71 velocity=95 time=0.13541653125
EXTRACT: note_on channel=0 note=66 velocity=95 time=0
EXTRACT: note_on channel=0 note=63 velocity=95 time=0
EXTRACT: note_on channel=0 note=59 velocity=95 time=0
EXTRACT: note_on channel=4 note=56 velocity=95 time=0
EXTRACT: note_on channel=4 note=52 velocity=95 time=0
EXTRACT: note_on channel=4 note=47 velocity=95 time=0
EXTRACT: note_off channel=6 note=64 velocity=95 time=0
EXTRACT: note_on channel=6 note=63 velocity=95 time=0
EXTRACT: note_off channel=9 note=42 velocity=95 time=0
EXTRACT: note_off channel=9 note=40 velocity=95 time=0
EXTRACT: note_on channel=9 note=42 velocity=95 time=0
EXTRACT: note_off channel=4 note=56 velocity=95 time=0.031249968750000003
EXTRACT: note_off channel=4 note=52 velocity=95 time=0
EXTRACT: note_off channel=4 note=47 velocity=95 time=0
EXTRACT: note_off channel=0 note=71 velocity=95 time=0.13541653125
EXTRACT: note_off channel=0 note=66 velocity=95 time=0
EXTRACT: note_off channel=0 note=63 velocity=95 time=0
EXTRACT: note_off channel=0 note=59 velocity=95 time=0
EXTRACT: note_on channel=4 note=56 velocity=95 time=0
EXTRACT: note_on channel=4 note=52 velocity=95 time=0
EXTRACT: note_on channel=4 note=47 velocity=95 time=0
EXTRACT: note_off channel=12 note=33 velocity=95 time=0
EXTRACT: note_on channel=12 note=37 velocity=95 time=0
EXTRACT: note_off channel=9 note=42 velocity=95 time=0
EXTRACT: note_on channel=9 note=42 velocity=95 time=0
EXTRACT: note_on channel=9 note=36 velocity=95 time=0
EXTRACT: note_off channel=4 note=56 velocity=95 time=0.031249968750000003
EXTRACT: note_off channel=4 note=52 velocity=95 time=0
EXTRACT: note_off channel=4 note=47 velocity=95 time=0
EXTRACT: note_on channel=0 note=73 velocity=95 time=0.13541653125
EXTRACT: note_on channel=0 note=68 velocity=95 time=0
EXTRACT: note_on channel=0 note=64 velocity=95 time=0
EXTRACT: note_on channel=0 note=61 velocity=95 time=0
EXTRACT: note_on channel=2 note=56 velocity=95 time=0
EXTRACT: note_on channel=4 note=64 velocity=95 time=0
EXTRACT: note_on channel=4 note=61 velocity=95 time=0
EXTRACT: note_on channel=4 note=56 velocity=95 time=0
EXTRACT: note_on channel=4 note=49 velocity=95 time=0
EXTRACT: note_off channel=6 note=63 velocity=95 time=0
EXTRACT: note_on channel=6 note=61 velocity=95 time=0
EXTRACT: note_off channel=9 note=42 velocity=95 time=0
EXTRACT: note_off channel=9 note=36 velocity=95 time=0
EXTRACT: note_off channel=0 note=73 velocity=95 time=0.1666665
EXTRACT: note_off channel=0 note=68 velocity=95 time=0
EXTRACT: note_off channel=0 note=64 velocity=95 time=0
EXTRACT: note_off channel=0 note=61 velocity=95 time=0
EXTRACT: note_off channel=2 note=56 velocity=95 time=0
EXTRACT: note_on channel=2 note=61 velocity=95 time=0
EXTRACT: note_off channel=4 note=64 velocity=95 time=0
EXTRACT: note_off channel=4 note=61 velocity=95 time=0
EXTRACT: note_off channel=4 note=56 velocity=95 time=0
EXTRACT: note_off channel=4 note=49 velocity=95 time=0
EXTRACT: note_on channel=4 note=64 velocity=95 time=0
EXTRACT: note_on channel=4 note=61 velocity=95 time=0
EXTRACT: note_on channel=4 note=56 velocity=95 time=0
EXTRACT: note_on channel=4 note=49 velocity=95 time=0
EXTRACT: note_off channel=6 note=61 velocity=95 time=0
EXTRACT: note_on channel=6 note=68 velocity=95 time=0
EXTRACT: note_on channel=9 note=42 velocity=95 time=0
EXTRACT: note_on channel=9 note=40 velocity=95 time=0
EXTRACT: note_on channel=0 note=73 velocity=95 time=0.1666665
EXTRACT: note_on channel=0 note=68 velocity=95 time=0
EXTRACT: note_on channel=0 note=64 velocity=95 time=0
EXTRACT: note_on channel=0 note=61 velocity=95 time=0
EXTRACT: note_off channel=2 note=61 velocity=95 time=0
EXTRACT: note_on channel=2 note=61 velocity=95 time=0
EXTRACT: note_off channel=4 note=64 velocity=95 time=0
EXTRACT: note_off channel=4 note=61 velocity=95 time=0
EXTRACT: note_off channel=4 note=56 velocity=95 time=0
EXTRACT: note_off channel=4 note=49 velocity=95 time=0
EXTRACT: note_on channel=4 note=64 velocity=95 time=0
EXTRACT: note_on channel=4 note=61 velocity=95 time=0
EXTRACT: note_on channel=4 note=56 velocity=95 time=0
EXTRACT: note_on channel=4 note=49 velocity=95 time=0
EXTRACT: note_off channel=6 note=68 velocity=95 time=0
EXTRACT: note_on channel=6 note=68 velocity=95 time=0
EXTRACT: note_off channel=12 note=37 velocity=95 time=0
EXTRACT: note_on channel=12 note=37 velocity=95 time=0
EXTRACT: note_off channel=9 note=42 velocity=95 time=0
EXTRACT: note_off channel=9 note=40 velocity=95 time=0
EXTRACT: note_on channel=9 note=42 velocity=95 time=0
EXTRACT: note_off channel=0 note=73 velocity=95 time=0.1666665
EXTRACT: note_off channel=0 note=68 velocity=95 time=0
EXTRACT: note_off channel=0 note=64 velocity=95 time=0
EXTRACT: note_off channel=0 note=61 velocity=95 time=0
EXTRACT: note_off channel=2 note=61 velocity=95 time=0
EXTRACT: note_on channel=2 note=61 velocity=95 time=0
EXTRACT: note_off channel=4 note=64 velocity=95 time=0
EXTRACT: note_off channel=4 note=61 velocity=95 time=0
EXTRACT: note_off channel=4 note=56 velocity=95 time=0
EXTRACT: note_off channel=4 note=49 velocity=95 time=0
EXTRACT: note_on channel=4 note=64 velocity=95 time=0
EXTRACT: note_on channel=4 note=61 velocity=95 time=0
EXTRACT: note_on channel=4 note=56 velocity=95 time=0
EXTRACT: note_on channel=4 note=49 velocity=95 time=0
EXTRACT: note_off channel=12 note=37 velocity=95 time=0
EXTRACT: note_on channel=12 note=32 velocity=95 time=0
EXTRACT: note_off channel=9 note=42 velocity=95 time=0
EXTRACT: note_on channel=9 note=42 velocity=95 time=0
EXTRACT: note_on channel=0 note=73 velocity=95 time=0.1666665
EXTRACT: note_on channel=0 note=68 velocity=95 time=0
EXTRACT: note_on channel=0 note=64 velocity=95 time=0
EXTRACT: note_on channel=0 note=61 velocity=95 time=0
EXTRACT: note_off channel=2 note=61 velocity=95 time=0
EXTRACT: note_on channel=3 note=61 velocity=95 time=0
EXTRACT: note_off channel=4 note=64 velocity=95 time=0
EXTRACT: note_off channel=4 note=61 velocity=95 time=0
EXTRACT: note_off channel=4 note=56 velocity=95 time=0
EXTRACT: note_off channel=4 note=49 velocity=95 time=0
EXTRACT: note_on channel=4 note=64 velocity=95 time=0
EXTRACT: note_on channel=4 note=61 velocity=95 time=0
EXTRACT: note_on channel=4 note=56 velocity=95 time=0
EXTRACT: note_on channel=4 note=49 velocity=95 time=0
EXTRACT: note_off channel=9 note=42 velocity=95 time=0
EXTRACT: note_on channel=9 note=36 velocity=95 time=0
EXTRACT: pitchwheel channel=3 pitch=0 time=0.0555555
EXTRACT: note_off channel=6 note=68 velocity=95 time=0.0486110625
EXTRACT: pitchwheel channel=3 pitch=128 time=0.0069444375
EXTRACT: note_off channel=0 note=73 velocity=95 time=0.0555555
EXTRACT: note_off channel=0 note=68 velocity=95 time=0
EXTRACT: note_off channel=0 note=64 velocity=95 time=0
EXTRACT: note_off channel=0 note=61 velocity=95 time=0
EXTRACT: pitchwheel channel=3 pitch=0 time=0
EXTRACT: pitchwheel channel=3 pitch=128 time=0
EXTRACT: pitchwheel channel=3 pitch=0 time=0
EXTRACT: note_off channel=3 note=61 velocity=95 time=0
EXTRACT: note_on channel=3 note=61 velocity=95 time=0
EXTRACT: note_off channel=4 note=64 velocity=95 time=0
EXTRACT: note_off channel=4 note=61 velocity=95 time=0
EXTRACT: note_off channel=4 note=56 velocity=95 time=0
EXTRACT: note_off channel=4 note=49 velocity=95 time=0
EXTRACT: note_on channel=4 note=56 velocity=95 time=0
EXTRACT: note_on channel=4 note=52 velocity=95 time=0
EXTRACT: note_on channel=4 note=47 velocity=95 time=0
EXTRACT: note_off channel=12 note=32 velocity=95 time=0
EXTRACT: note_on channel=12 note=35 velocity=95 time=0
EXTRACT: note_on channel=14 note=80 velocity=95 time=0
EXTRACT: note_on channel=14 note=73 velocity=95 time=0
EXTRACT: note_off channel=9 note=36 velocity=95 time=0
EXTRACT: note_on channel=9 note=42 velocity=95 time=0
EXTRACT: note_on channel=9 note=40 velocity=95 time=0
EXTRACT: note_off channel=4 note=56 velocity=95 time=0.031249968750000003
EXTRACT: note_off channel=4 note=52 velocity=95 time=0
EXTRACT: note_off channel=4 note=47 velocity=95 time=0
EXTRACT: pitchwheel channel=3 pitch=0 time=0.02430553125
EXTRACT: pitchwheel channel=3 pitch=128 time=0.0555555
EXTRACT: note_on channel=0 note=73 velocity=95 time=0.0555555
EXTRACT: note_on channel=0 note=68 velocity=95 time=0
EXTRACT: note_on channel=0 note=64 velocity=95 time=0
EXTRACT: note_on channel=0 note=61 velocity=95 time=0
EXTRACT: pitchwheel channel=3 pitch=0 time=0
EXTRACT: pitchwheel channel=3 pitch=128 time=0
EXTRACT: pitchwheel channel=3 pitch=0 time=0
EXTRACT: note_off channel=3 note=61 velocity=95 time=0
EXTRACT: note_on channel=3 note=61 velocity=95 time=0
EXTRACT: note_on channel=4 note=56 velocity=95 time=0
EXTRACT: note_on channel=4 note=52 velocity=95 time=0
EXTRACT: note_on channel=4 note=47 velocity=95 time=0
EXTRACT: note_off channel=12 note=35 velocity=95 time=0
EXTRACT: note_on channel=12 note=35 velocity=95 time=0
EXTRACT: note_off channel=14 note=80 velocity=95 time=0
EXTRACT: note_off channel=14 note=73 velocity=95 time=0
EXTRACT: note_off channel=9 note=42 velocity=95 time=0
EXTRACT: note_off channel=9 note=40 velocity=95 time=0
EXTRACT: note_on channel=9 note=42 velocity=95 time=0
EXTRACT: note_off channel=4 note=56 velocity=95 time=0.031249968750000003
EXTRACT: note_off channel=4 note=52 velocity=95 time=0
EXTRACT: note_off channel=4 note=47 velocity=95 time=0
EXTRACT: pitchwheel channel=3 pitch=0 time=0.02430553125
EXTRACT: pitchwheel channel=3 pitch=128 time=0.0555555
EXTRACT: note_off channel=0 note=73 velocity=95 time=0.0555555
EXTRACT: note_off channel=0 note=68 velocity=95 time=0
EXTRACT: note_off channel=0 note=64 velocity=95 time=0
EXTRACT: note_off channel=0 note=61 velocity=95 time=0
EXTRACT: pitchwheel channel=3 pitch=0 time=0
EXTRACT: note_on channel=4 note=63 velocity=95 time=0
EXTRACT: note_on channel=4 note=59 velocity=95 time=0
EXTRACT: note_on channel=4 note=54 velocity=95 time=0
EXTRACT: note_on channel=4 note=47 velocity=95 time=0
EXTRACT: note_on channel=6 note=63 velocity=95 time=0
EXTRACT: note_off channel=12 note=35 velocity=95 time=0
EXTRACT: note_on channel=12 note=35 velocity=95 time=0
EXTRACT: note_off channel=9 note=42 velocity=95 time=0
EXTRACT: note_on channel=9 note=42 velocity=95 time=0
EXTRACT: note_on channel=9 note=36 velocity=95 time=0
EXTRACT: pitchwheel channel=3 pitch=128 time=0.0555555
EXTRACT: pitchwheel channel=3 pitch=0 time=0.0555555
EXTRACT: note_on channel=0 note=71 velocity=95 time=0.0555555
EXTRACT: note_on channel=0 note=66 velocity=95 time=0
EXTRACT: note_on channel=0 note=63 velocity=95 time=0
EXTRACT: note_on channel=0 note=59 velocity=95 time=0
EXTRACT: pitchwheel channel=3 pitch=128 time=0
EXTRACT: note_off channel=4 note=63 velocity=95 time=0
EXTRACT: note_off channel=4 note=59 velocity=95 time=0
EXTRACT: note_off channel=4 note=54 velocity=95 time=0
EXTRACT: note_off channel=4 note=47 velocity=95 time=0
EXTRACT: note_on channel=4 note=56 velocity=95 time=0
EXTRACT: note_on channel=4 note=52 velocity=95 time=0
EXTRACT: note_on channel=4 note=47 velocity=95 time=0
EXTRACT: note_off channel=6 note=63 velocity=95 time=0
EXTRACT: note_on channel=6 note=63 velocity=95 time=0
EXTRACT: note_off channel=9 note=42 velocity=95 time=0
EXTRACT: note_off channel=9 note=36 velocity=95 time=0
EXTRACT: note_off channel=4 note=56 velocity=95 time=0.031249968750000003
EXTRACT: note_off channel=4 note=52 velocity=95 time=0
EXTRACT: note_off channel=4 note=47 velocity=95 time=0
EXTRACT: pitchwheel channel=3 pitch=0 time=0.02430553125
EXTRACT: pitchwheel channel=3 pitch=128 time=0.0555555
EXTRACT: note_off channel=0 note=71 velocity=95 time=0.0555555
EXTRACT: note_off channel=0 note=66 velocity=95 time=0
EXTRACT: note_off channel=0 note=63 velocity=95 time=0
EXTRACT: note_off channel=0 note=59 velocity=95 time=0
EXTRACT: pitchwheel channel=3 pitch=0 time=0
EXTRACT: pitchwheel channel=3 pitch=128 time=0
EXTRACT: pitchwheel channel=3 pitch=0 time=0
EXTRACT: note_off channel=3 note=61 velocity=95 time=0
EXTRACT: note_on channel=4 note=56 velocity=95 time=0
EXTRACT: note_on channel=4 note=52 velocity=95 time=0
EXTRACT: note_on channel=4 note=47 velocity=95 time=0
EXTRACT: note_off channel=6 note=63 velocity=95 time=0
EXTRACT: note_on channel=6 note=63 velocity=95 time=0
EXTRACT: note_off channel=12 note=35 velocity=95 time=0
EXTRACT: note_on channel=9 note=42 velocity=95 time=0
EXTRACT: note_on channel=9 note=40 velocity=95 time=0
EXTRACT: note_off channel=4 note=56 velocity=95 time=0.031249968750000003
EXTRACT: note_off channel=4 note=52 velocity=95 time=0
EXTRACT: note_off channel=4 note=47 velocity=95 time=0
EXTRACT: note_on channel=0 note=71 velocity=95 time=0.13541653125
EXTRACT: note_on channel=0 note=66 velocity=95 time=0
EXTRACT: note_on channel=0 note=63 velocity=95 time=0
EXTRACT: note_on channel=0 note=59 velocity=95 time=0
EXTRACT: note_on channel=4 note=63 velocity=95 time=0
EXTRACT: note_on channel=4 note=59 velocity=95 time=0
EXTRACT: note_on channel=4 note=54 velocity=95 time=0
EXTRACT: note_on channel=4 note=47 velocity=95 time=0
EXTRACT: note_off channel=6 note=63 velocity=95 time=0
EXTRACT: note_on channel=6 note=63 velocity=95 time=0
EXTRACT: note_on channel=12 note=30 velocity=95 time=0
EXTRACT: note_off channel=9 note=42 velocity=95 time=0
EXTRACT: note_off channel=9 note=40 velocity=95 time=0
EXTRACT: note_on channel=9 note=42 velocity=95 time=0
EXTRACT: note_off channel=0 note=71 velocity=95 time=0.1666665
EXTRACT: note_off channel=0 note=66 velocity=95 time=0
EXTRACT: note_off channel=0 note=63 velocity=95 time=0
EXTRACT: note_off channel=0 note=59 velocity=95 time=0
EXTRACT: note_off channel=4 note=63 velocity=95 time=0
EXTRACT: note_off channel=4 note=59 velocity=95 time=0
EXTRACT: note_off channel=4 note=54 velocity=95 time=0
EXTRACT: note_off channel=4 note=47 velocity=95 time=0
EXTRACT: note_on channel=4 note=56 velocity=95 time=0
EXTRACT: note_on channel=4 note=52 velocity=95 time=0
EXTRACT: note_on channel=4 note=47 velocity=95 time=0
EXTRACT: note_off channel=12 note=30 velocity=95 time=0
EXTRACT: note_on channel=12 note=30 velocity=95 time=0
EXTRACT: note_off channel=9 note=42 velocity=95 time=0
EXTRACT: note_on channel=9 note=42 velocity=95 time=0
EXTRACT: note_on channel=9 note=36 velocity=95 time=0
EXTRACT: note_off channel=4 note=56 velocity=95 time=0.031249968750000003
EXTRACT: note_off channel=4 note=52 velocity=95 time=0
EXTRACT: note_off channel=4 note=47 velocity=95 time=0
EXTRACT: note_on channel=0 note=71 velocity=95 time=0.13541653125
EXTRACT: note_on channel=0 note=66 velocity=95 time=0
EXTRACT: note_on channel=0 note=63 velocity=95 time=0
EXTRACT: note_on channel=0 note=59 velocity=95 time=0
EXTRACT: note_on channel=4 note=56 velocity=95 time=0
EXTRACT: note_on channel=4 note=52 velocity=95 time=0
EXTRACT: note_on channel=4 note=47 velocity=95 time=0
EXTRACT: note_off channel=6 note=63 velocity=95 time=0
EXTRACT: note_on channel=6 note=66 velocity=95 time=0
EXTRACT: note_off channel=9 note=42 velocity=95 time=0
EXTRACT: note_off channel=9 note=36 velocity=95 time=0
EXTRACT: note_off channel=4 note=56 velocity=95 time=0.031249968750000003
EXTRACT: note_off channel=4 note=52 velocity=95 time=0
EXTRACT: note_off channel=4 note=47 velocity=95 time=0
EXTRACT: note_off channel=0 note=71 velocity=95 time=0.13541653125
EXTRACT: note_off channel=0 note=66 velocity=95 time=0
EXTRACT: note_off channel=0 note=63 velocity=95 time=0
EXTRACT: note_off channel=0 note=59 velocity=95 time=0
EXTRACT: note_on channel=4 note=56 velocity=95 time=0
EXTRACT: note_on channel=4 note=52 velocity=95 time=0
EXTRACT: note_on channel=4 note=47 velocity=95 time=0
EXTRACT: note_off channel=12 note=30 velocity=95 time=0
EXTRACT: note_on channel=12 note=33 velocity=95 time=0
EXTRACT: note_on channel=9 note=42 velocity=95 time=0
EXTRACT: note_on channel=9 note=40 velocity=95 time=0
EXTRACT: note_off channel=4 note=56 velocity=95 time=0.031249968750000003
EXTRACT: note_off channel=4 note=52 velocity=95 time=0
EXTRACT: note_off channel=4 note=47 velocity=95 time=0
EXTRACT: note_on channel=0 note=71 velocity=95 time=0.13541653125
EXTRACT: note_on channel=0 note=66 velocity=95 time=0
EXTRACT: note_on channel=0 note=63 velocity=95 time=0
EXTRACT: note_on channel=0 note=59 velocity=95 time=0
EXTRACT: note_on channel=4 note=56 velocity=95 time=0
EXTRACT: note_on channel=4 note=52 velocity=95 time=0
EXTRACT: note_on channel=4 note=47 velocity=95 time=0
EXTRACT: note_off channel=6 note=66 velocity=95 time=0
EXTRACT: note_on channel=6 note=66 velocity=95 time=0
EXTRACT: note_off channel=9 note=42 velocity=95 time=0
EXTRACT: note_off channel=9 note=40 velocity=95 time=0
EXTRACT: note_on channel=9 note=42 velocity=95 time=0
EXTRACT: note_off channel=4 note=56 velocity=95 time=0.031249968750000003
EXTRACT: note_off channel=4 note=52 velocity=95 time=0
EXTRACT: note_off channel=4 note=47 velocity=95 time=0
EXTRACT: note_off channel=0 note=71 velocity=95 time=0.13541653125
EXTRACT: note_off channel=0 note=66 velocity=95 time=0
EXTRACT: note_off channel=0 note=63 velocity=95 time=0
EXTRACT: note_off channel=0 note=59 velocity=95 time=0
EXTRACT: note_on channel=4 note=56 velocity=95 time=0
EXTRACT: note_on channel=4 note=52 velocity=95 time=0
EXTRACT: note_on channel=4 note=47 velocity=95 time=0
EXTRACT: note_off channel=12 note=33 velocity=95 time=0
EXTRACT: note_on channel=12 note=37 velocity=95 time=0
EXTRACT: note_off channel=9 note=42 velocity=95 time=0
EXTRACT: note_on channel=9 note=42 velocity=95 time=0
EXTRACT: note_on channel=9 note=36 velocity=95 time=0
EXTRACT: note_off channel=4 note=56 velocity=95 time=0.031249968750000003
EXTRACT: note_off channel=4 note=52 velocity=95 time=0
EXTRACT: note_off channel=4 note=47 velocity=95 time=0
EXTRACT: note_on channel=0 note=73 velocity=95 time=0.13541653125
EXTRACT: note_on channel=0 note=68 velocity=95 time=0
EXTRACT: note_on channel=0 note=64 velocity=95 time=0
EXTRACT: note_on channel=0 note=61 velocity=95 time=0
EXTRACT: note_on channel=3 note=54 velocity=95 time=0
EXTRACT: note_on channel=4 note=64 velocity=95 time=0
EXTRACT: note_on channel=4 note=61 velocity=95 time=0
EXTRACT: note_on channel=4 note=56 velocity=95 time=0
EXTRACT: note_on channel=4 note=49 velocity=95 time=0
EXTRACT: note_off channel=6 note=66 velocity=95 time=0
EXTRACT: note_on channel=6 note=64 velocity=95 time=0
EXTRACT: note_off channel=9 note=42 velocity=95 time=0
EXTRACT: note_off channel=9 note=36 velocity=95 time=0
EXTRACT: pitchwheel channel=3 pitch=256 time=0.041666625
EXTRACT: pitchwheel channel=3 pitch=640 time=0.041666625
EXTRACT: pitchwheel channel=3 pitch=1024 time=0.041666625
EXTRACT: note_off channel=0 note=73 velocity=95 time=0.041666625
EXTRACT: note_off channel=0 note=68 velocity=95 time=0
EXTRACT: note_off channel=0 note=64 velocity=95 time=0
EXTRACT: note_off channel=0 note=61 velocity=95 time=0
EXTRACT: pitchwheel channel=3 pitch=1408 time=0
EXTRACT: pitchwheel channel=3 pitch=0 time=0
EXTRACT: note_off channel=3 note=54 velocity=95 time=0
EXTRACT: note_on channel=2 note=56 velocity=95 time=0
EXTRACT: note_off channel=4 note=64 velocity=95 time=0
EXTRACT: note_off channel=4 note=61 velocity=95 time=0
EXTRACT: note_off channel=4 note=56 velocity=95 time=0
EXTRACT: note_off channel=4 note=49 velocity=95 time=0
EXTRACT: note_on channel=4 note=64 velocity=95 time=0
EXTRACT: note_on channel=4 note=61 velocity=95 time=0
EXTRACT: note_on channel=4 note=56 velocity=95 time=0
EXTRACT: note_on channel=4 note=49 velocity=95 time=0
EXTRACT: note_on channel=9 note=42 velocity=95 time=0
EXTRACT: note_on channel=9 note=40 velocity=95 time=0
EXTRACT: note_on channel=0 note=73 velocity=95 time=0.1666665
EXTRACT: note_on channel=0 note=68 velocity=95 time=0
EXTRACT: note_on channel=0 note=64 velocity=95 time=0
EXTRACT: note_on channel=0 note=61 velocity=95 time=0
EXTRACT: note_off channel=2 note=56 velocity=95 time=0
EXTRACT: note_on channel=2 note=61 velocity=95 time=0
EXTRACT: note_off channel=4 note=64 velocity=95 time=0
EXTRACT: note_off channel=4 note=61 velocity=95 time=0
EXTRACT: note_off channel=4 note=56 velocity=95 time=0
EXTRACT: note_off channel=4 note=49 velocity=95 time=0
EXTRACT: note_on channel=4 note=64 velocity=95 time=0
EXTRACT: note_on channel=4 note=61 velocity=95 time=0
EXTRACT: note_on channel=4 note=56 velocity=95 time=0
EXTRACT: note_on channel=4 note=49 velocity=95 time=0
EXTRACT: note_off channel=12 note=37 velocity=95 time=0
EXTRACT: note_on channel=12 note=37 velocity=95 time=0
EXTRACT: note_off channel=9 note=42 velocity=95 time=0
EXTRACT: note_off channel=9 note=40 velocity=95 time=0
EXTRACT: note_on channel=9 note=42 velocity=95 time=0
EXTRACT: note_off channel=0 note=73 velocity=95 time=0.1666665
EXTRACT: note_off channel=0 note=68 velocity=95 time=0
EXTRACT: note_off channel=0 note=64 velocity=95 time=0
EXTRACT: note_off channel=0 note=61 velocity=95 time=0
EXTRACT: note_off channel=4 note=64 velocity=95 time=0
EXTRACT: note_off channel=4 note=61 velocity=95 time=0
EXTRACT: note_off channel=4 note=56 velocity=95 time=0
EXTRACT: note_off channel=4 note=49 velocity=95 time=0
EXTRACT: note_on channel=4 note=64 velocity=95 time=0
EXTRACT: note_on channel=4 note=61 velocity=95 time=0
EXTRACT: note_on channel=4 note=56 velocity=95 time=0
EXTRACT: note_on channel=4 note=49 velocity=95 time=0
EXTRACT: note_off channel=12 note=37 velocity=95 time=0
EXTRACT: note_on channel=12 note=32 velocity=95 time=0
EXTRACT: note_off channel=9 note=42 velocity=95 time=0
EXTRACT: note_on channel=9 note=42 velocity=95 time=0
EXTRACT: note_off channel=6 note=64 velocity=95 time=0.08333325
EXTRACT: note_on channel=0 note=73 velocity=95 time=0.08333325
EXTRACT: note_on channel=0 note=68 velocity=95 time=0
EXTRACT: note_on channel=0 note=64 velocity=95 time=0
EXTRACT: note_on channel=0 note=61 velocity=95 time=0
EXTRACT: note_off channel=2 note=61 velocity=95 time=0
EXTRACT: note_on channel=2 note=56 velocity=95 time=0
EXTRACT: note_off channel=4 note=64 velocity=95 time=0
EXTRACT: note_off channel=4 note=61 velocity=95 time=0
EXTRACT: note_off channel=4 note=56 velocity=95 time=0
EXTRACT: note_off channel=4 note=49 velocity=95 time=0
EXTRACT: note_on channel=4 note=64 velocity=95 time=0
EXTRACT: note_on channel=4 note=61 velocity=95 time=0
EXTRACT: note_on channel=4 note=56 velocity=95 time=0
EXTRACT: note_on channel=4 note=49 velocity=95 time=0
EXTRACT: note_off channel=9 note=42 velocity=95 time=0
EXTRACT: note_on channel=9 note=36 velocity=95 time=0
EXTRACT: note_off channel=0 note=73 velocity=95 time=0.1666665
EXTRACT: note_off channel=0 note=68 velocity=95 time=0
EXTRACT: note_off channel=0 note=64 velocity=95 time=0
EXTRACT: note_off channel=0 note=61 velocity=95 time=0
EXTRACT: note_off channel=2 note=56 velocity=95 time=0
EXTRACT: note_on channel=2 note=56 velocity=95 time=0
EXTRACT: note_off channel=4 note=64 velocity=95 time=0
EXTRACT: note_off channel=4 note=61 velocity=95 time=0
EXTRACT: note_off channel=4 note=56 velocity=95 time=0
EXTRACT: note_off channel=4 note=49 velocity=95 time=0
EXTRACT: note_on channel=4 note=56 velocity=95 time=0
EXTRACT: note_on channel=4 note=52 velocity=95 time=0
EXTRACT: note_on channel=4 note=47 velocity=95 time=0
EXTRACT: note_off channel=12 note=32 velocity=95 time=0
EXTRACT: note_on channel=12 note=35 velocity=95 time=0
EXTRACT: note_off channel=9 note=36 velocity=95 time=0
EXTRACT: note_on channel=9 note=42 velocity=95 time=0
EXTRACT: note_on channel=9 note=40 velocity=95 time=0
EXTRACT: note_off channel=4 note=56 velocity=95 time=0.031249968750000003
EXTRACT: note_off channel=4 note=52 velocity=95 time=0
EXTRACT: note_off channel=4 note=47 velocity=95 time=0
EXTRACT: note_on channel=0 note=73 velocity=95 time=0.13541653125
EXTRACT: note_on channel=0 note=68 velocity=95 time=0
EXTRACT: note_on channel=0 note=64 velocity=95 time=0
EXTRACT: note_on channel=0 note=61 velocity=95 time=0
EXTRACT: note_off channel=2 note=56 velocity=95 time=0
EXTRACT: note_on channel=2 note=56 velocity=95 time=0
EXTRACT: note_on channel=4 note=56 velocity=95 time=0
EXTRACT: note_on channel=4 note=52 velocity=95 time=0
EXTRACT: note_on channel=4 note=47 velocity=95 time=0
EXTRACT: note_off channel=12 note=35 velocity=95 time=0
EXTRACT: note_on channel=12 note=35 velocity=95 time=0
EXTRACT: note_off channel=9 note=42 velocity=95 time=0
EXTRACT: note_off channel=9 note=40 velocity=95 time=0
EXTRACT: note_on channel=9 note=42 velocity=95 time=0
EXTRACT: note_off channel=4 note=56 velocity=95 time=0.031249968750000003
EXTRACT: note_off channel=4 note=52 velocity=95 time=0
EXTRACT: note_off channel=4 note=47 velocity=95 time=0
EXTRACT: note_off channel=0 note=73 velocity=95 time=0.13541653125
EXTRACT: note_off channel=0 note=68 velocity=95 time=0
EXTRACT: note_off channel=0 note=64 velocity=95 time=0
EXTRACT: note_off channel=0 note=61 velocity=95 time=0
EXTRACT: note_off channel=2 note=56 velocity=95 time=0
EXTRACT: note_on channel=2 note=37 velocity=95 time=0
EXTRACT: note_off channel=12 note=35 velocity=95 time=0
EXTRACT: note_on channel=12 note=37 velocity=95 time=0
EXTRACT: note_off channel=9 note=42 velocity=95 time=0
EXTRACT: note_on channel=9 note=42 velocity=95 time=0
EXTRACT: note_on channel=9 note=36 velocity=95 time=0
EXTRACT: note_on channel=0 note=73 velocity=95 time=0.1666665
EXTRACT: note_on channel=0 note=68 velocity=95 time=0
EXTRACT: note_on channel=0 note=64 velocity=95 time=0
EXTRACT: note_on channel=0 note=61 velocity=95 time=0
EXTRACT: note_off channel=9 note=42 velocity=95 time=0
EXTRACT: note_off channel=9 note=36 velocity=95 time=0
EXTRACT: note_off channel=0 note=73 velocity=95 time=0.1666665
EXTRACT: note_off channel=0 note=68 velocity=95 time=0
EXTRACT: note_off channel=0 note=64 velocity=95 time=0
EXTRACT: note_off channel=0 note=61 velocity=95 time=0
EXTRACT: note_off channel=2 note=37 velocity=95 time=0
EXTRACT: note_on channel=2 note=37 velocity=95 time=0
EXTRACT: note_on channel=9 note=42 velocity=95 time=0
EXTRACT: note_on channel=9 note=40 velocity=95 time=0
EXTRACT: note_on channel=0 note=73 velocity=95 time=0.1666665
EXTRACT: note_on channel=0 note=68 velocity=95 time=0
EXTRACT: note_on channel=0 note=64 velocity=95 time=0
EXTRACT: note_on channel=0 note=61 velocity=95 time=0
EXTRACT: note_off channel=2 note=37 velocity=95 time=0
EXTRACT: note_on channel=2 note=37 velocity=95 time=0
EXTRACT: note_off channel=12 note=37 velocity=95 time=0
EXTRACT: note_on channel=12 note=44 velocity=95 time=0
EXTRACT: note_off channel=9 note=42 velocity=95 time=0
EXTRACT: note_off channel=9 note=40 velocity=95 time=0
EXTRACT: note_on channel=9 note=42 velocity=95 time=0
EXTRACT: note_off channel=0 note=73 velocity=95 time=0.1666665
EXTRACT: note_off channel=0 note=68 velocity=95 time=0
EXTRACT: note_off channel=0 note=64 velocity=95 time=0
EXTRACT: note_off channel=0 note=61 velocity=95 time=0
EXTRACT: note_off channel=2 note=37 velocity=95 time=0
EXTRACT: note_on channel=2 note=40 velocity=95 time=0
EXTRACT: note_off channel=12 note=44 velocity=95 time=0
EXTRACT: note_on channel=12 note=44 velocity=95 time=0
EXTRACT: note_off channel=9 note=42 velocity=95 time=0
EXTRACT: note_on channel=9 note=42 velocity=95 time=0
EXTRACT: note_on channel=9 note=36 velocity=95 time=0
EXTRACT: note_on channel=0 note=73 velocity=95 time=0.1666665
EXTRACT: note_on channel=0 note=68 velocity=95 time=0
EXTRACT: note_on channel=0 note=64 velocity=95 time=0
EXTRACT: note_on channel=0 note=61 velocity=95 time=0
EXTRACT: note_off channel=2 note=40 velocity=95 time=0
EXTRACT: note_on channel=2 note=42 velocity=95 time=0
EXTRACT: note_off channel=9 note=42 velocity=95 time=0
EXTRACT: note_off channel=9 note=36 velocity=95 time=0
EXTRACT: note_off channel=0 note=73 velocity=95 time=0.1666665
EXTRACT: note_off channel=0 note=68 velocity=95 time=0
EXTRACT: note_off channel=0 note=64 velocity=95 time=0
EXTRACT: note_off channel=0 note=61 velocity=95 time=0
EXTRACT: note_off channel=2 note=42 velocity=95 time=0
EXTRACT: note_on channel=2 note=37 velocity=95 time=0
EXTRACT: note_off channel=12 note=44 velocity=95 time=0
EXTRACT: note_on channel=12 note=42 velocity=95 time=0
EXTRACT: note_on channel=9 note=42 velocity=95 time=0
EXTRACT: note_on channel=9 note=40 velocity=95 time=0
EXTRACT: note_on channel=0 note=73 velocity=95 time=0.1666665
EXTRACT: note_on channel=0 note=68 velocity=95 time=0
EXTRACT: note_on channel=0 note=64 velocity=95 time=0
EXTRACT: note_on channel=0 note=61 velocity=95 time=0
EXTRACT: note_off channel=2 note=37 velocity=95 time=0
EXTRACT: note_on channel=2 note=42 velocity=95 time=0
EXTRACT: note_off channel=12 note=42 velocity=95 time=0
EXTRACT: note_on channel=12 note=44 velocity=70 time=0
EXTRACT: note_off channel=9 note=42 velocity=95 time=0
EXTRACT: note_off channel=9 note=40 velocity=95 time=0
EXTRACT: note_on channel=9 note=42 velocity=95 time=0
EXTRACT: note_off channel=0 note=73 velocity=95 time=0.1666665
EXTRACT: note_off channel=0 note=68 velocity=95 time=0
EXTRACT: note_off channel=0 note=64 velocity=95 time=0
EXTRACT: note_off channel=0 note=61 velocity=95 time=0
EXTRACT: note_off channel=2 note=42 velocity=95 time=0
EXTRACT: pitchwheel channel=3 pitch=0 time=0
EXTRACT: note_on channel=3 note=42 velocity=95 time=0
EXTRACT: note_off channel=12 note=44 velocity=70 time=0
EXTRACT: note_on channel=12 note=37 velocity=95 time=0
EXTRACT: note_off channel=9 note=42 velocity=95 time=0
EXTRACT: note_on channel=9 note=42 velocity=95 time=0
EXTRACT: note_on channel=9 note=36 velocity=95 time=0
EXTRACT: pitchwheel channel=3 pitch=128 time=0.014930540625
EXTRACT: pitchwheel channel=3 pitch=256 time=0.014930540625
EXTRACT: pitchwheel channel=3 pitch=384 time=0.014930540625
EXTRACT: pitchwheel channel=3 pitch=512 time=0.014930540625
EXTRACT: pitchwheel channel=3 pitch=640 time=0.014930540625
EXTRACT: pitchwheel channel=3 pitch=768 time=0.014930540625
EXTRACT: pitchwheel channel=3 pitch=896 time=0.014930540625
EXTRACT: pitchwheel channel=3 pitch=1024 time=0.014930540625
EXTRACT: pitchwheel channel=3 pitch=1152 time=0.014930540625
EXTRACT: pitchwheel channel=3 pitch=1280 time=0.014930540625
EXTRACT: pitchwheel channel=3 pitch=1408 time=0.014930540625
EXTRACT: note_on channel=0 note=73 velocity=95 time=0.002430553125
EXTRACT: note_on channel=0 note=68 velocity=95 time=0
EXTRACT: note_on channel=0 note=64 velocity=95 time=0
EXTRACT: note_on channel=0 note=61 velocity=95 time=0
EXTRACT: pitchwheel channel=3 pitch=1408 time=0
EXTRACT: note_off channel=9 note=42 velocity=95 time=0
EXTRACT: note_off channel=9 note=36 velocity=95 time=0
EXTRACT: note_off channel=0 note=73 velocity=95 time=0.1666665
EXTRACT: note_off channel=0 note=68 velocity=95 time=0
EXTRACT: note_off channel=0 note=64 velocity=95 time=0
EXTRACT: note_off channel=0 note=61 velocity=95 time=0
EXTRACT: pitchwheel channel=3 pitch=1408 time=0
EXTRACT: pitchwheel channel=3 pitch=0 time=0
EXTRACT: note_off channel=3 note=42 velocity=95 time=0
EXTRACT: note_on channel=2 note=40 velocity=95 time=0
EXTRACT: note_on channel=9 note=42 velocity=95 time=0
EXTRACT: note_on channel=9 note=40 velocity=95 time=0
EXTRACT: note_on channel=0 note=73 velocity=95 time=0.1666665
EXTRACT: note_on channel=0 note=68 velocity=95 time=0
EXTRACT: note_on channel=0 note=64 velocity=95 time=0
EXTRACT: note_on channel=0 note=61 velocity=95 time=0
EXTRACT: note_off channel=2 note=40 velocity=95 time=0
EXTRACT: note_on channel=2 note=42 velocity=95 time=0
EXTRACT: note_off channel=12 note=37 velocity=95 time=0
EXTRACT: note_on channel=12 note=44 velocity=95 time=0
EXTRACT: note_off channel=9 note=42 velocity=95 time=0
EXTRACT: note_off channel=9 note=40 velocity=95 time=0
EXTRACT: note_on channel=9 note=42 velocity=95 time=0
EXTRACT: note_off channel=0 note=73 velocity=95 time=0.1666665
EXTRACT: note_off channel=0 note=68 velocity=95 time=0
EXTRACT: note_off channel=0 note=64 velocity=95 time=0
EXTRACT: note_off channel=0 note=61 velocity=95 time=0
EXTRACT: note_off channel=2 note=42 velocity=95 time=0
EXTRACT: note_off channel=12 note=44 velocity=95 time=0
EXTRACT: note_on channel=12 note=44 velocity=95 time=0
EXTRACT: note_off channel=9 note=42 velocity=95 time=0
EXTRACT: note_on channel=9 note=42 velocity=95 time=0
EXTRACT: note_on channel=0 note=73 velocity=95 time=0.1666665
EXTRACT: note_on channel=0 note=68 velocity=95 time=0
EXTRACT: note_on channel=0 note=64 velocity=95 time=0
EXTRACT: note_on channel=0 note=61 velocity=95 time=0
EXTRACT: note_on channel=2 note=40 velocity=95 time=0
EXTRACT: note_off channel=9 note=42 velocity=95 time=0
EXTRACT: note_on channel=9 note=36 velocity=95 time=0
EXTRACT: note_off channel=0 note=73 velocity=95 time=0.1666665
EXTRACT: note_off channel=0 note=68 velocity=95 time=0
EXTRACT: note_off channel=0 note=64 velocity=95 time=0
EXTRACT: note_off channel=0 note=61 velocity=95 time=0
EXTRACT: note_off channel=2 note=40 velocity=95 time=0
EXTRACT: note_off channel=12 note=44 velocity=95 time=0
EXTRACT: note_on channel=12 note=42 velocity=95 time=0
EXTRACT: note_on channel=14 note=80 velocity=95 time=0
EXTRACT: note_on channel=14 note=73 velocity=95 time=0
EXTRACT: note_off channel=9 note=36 velocity=95 time=0
EXTRACT: note_on channel=9 note=42 velocity=95 time=0
EXTRACT: note_on channel=9 note=40 velocity=95 time=0
EXTRACT: note_on channel=0 note=73 velocity=95 time=0.1666665
EXTRACT: note_on channel=0 note=68 velocity=95 time=0
EXTRACT: note_on channel=0 note=64 velocity=95 time=0
EXTRACT: note_on channel=0 note=61 velocity=95 time=0
EXTRACT: note_on channel=2 note=42 velocity=95 time=0
EXTRACT: note_off channel=12 note=42 velocity=95 time=0
EXTRACT: note_on channel=12 note=44 velocity=70 time=0
EXTRACT: note_off channel=14 note=80 velocity=95 time=0
EXTRACT: note_off channel=14 note=73 velocity=95 time=0
EXTRACT: note_off channel=9 note=42 velocity=95 time=0
EXTRACT: note_off channel=9 note=40 velocity=95 time=0
EXTRACT: note_on channel=9 note=42 velocity=95 time=0
EXTRACT: note_off channel=0 note=73 velocity=95 time=0.1666665
EXTRACT: note_off channel=0 note=68 velocity=95 time=0
EXTRACT: note_off channel=0 note=64 velocity=95 time=0
EXTRACT: note_off channel=0 note=61 velocity=95 time=0
EXTRACT: note_on channel=0 note=71 velocity=95 time=0
EXTRACT: note_on channel=0 note=66 velocity=95 time=0
EXTRACT: note_on channel=0 note=63 velocity=95 time=0
EXTRACT: note_on channel=0 note=59 velocity=95 time=0
EXTRACT: note_off channel=12 note=44 velocity=70 time=0
EXTRACT: note_on channel=12 note=37 velocity=95 time=0
EXTRACT: note_off channel=9 note=42 velocity=95 time=0
EXTRACT: note_on channel=9 note=42 velocity=95 time=0
EXTRACT: note_on channel=9 note=36 velocity=95 time=0
EXTRACT: note_off channel=0 note=71 velocity=95 time=0.1666665
EXTRACT: note_off channel=0 note=66 velocity=95 time=0
EXTRACT: note_off channel=0 note=63 velocity=95 time=0
EXTRACT: note_off channel=0 note=59 velocity=95 time=0
EXTRACT: note_on channel=0 note=71 velocity=95 time=0
EXTRACT: note_on channel=0 note=66 velocity=95 time=0
EXTRACT: note_on channel=0 note=63 velocity=95 time=0
EXTRACT: note_on channel=0 note=59 velocity=95 time=0
EXTRACT: note_off channel=2 note=42 velocity=95 time=0
EXTRACT: note_on channel=2 note=42 velocity=95 time=0
EXTRACT: note_off channel=9 note=42 velocity=95 time=0
EXTRACT: note_off channel=9 note=36 velocity=95 time=0
EXTRACT: note_off channel=0 note=71 velocity=95 time=0.1666665
EXTRACT: note_off channel=0 note=66 velocity=95 time=0
EXTRACT: note_off channel=0 note=63 velocity=95 time=0
EXTRACT: note_off channel=0 note=59 velocity=95 time=0
EXTRACT: note_off channel=2 note=42 velocity=95 time=0
EXTRACT: note_on channel=2 note=42 velocity=95 time=0
EXTRACT: note_on channel=9 note=42 velocity=95 time=0
EXTRACT: note_on channel=9 note=40 velocity=95 time=0
EXTRACT: note_on channel=0 note=71 velocity=95 time=0.1666665
EXTRACT: note_on channel=0 note=66 velocity=95 time=0
EXTRACT: note_on channel=0 note=63 velocity=95 time=0
EXTRACT: note_on channel=0 note=59 velocity=95 time=0
EXTRACT: note_off channel=2 note=42 velocity=95 time=0
EXTRACT: note_on channel=2 note=42 velocity=95 time=0
EXTRACT: note_off channel=12 note=37 velocity=95 time=0
EXTRACT: note_on channel=12 note=44 velocity=95 time=0
EXTRACT: note_off channel=9 note=42 velocity=95 time=0
EXTRACT: note_off channel=9 note=40 velocity=95 time=0
EXTRACT: note_on channel=9 note=42 velocity=95 time=0
EXTRACT: note_off channel=0 note=71 velocity=95 time=0.1666665
EXTRACT: note_off channel=0 note=66 velocity=95 time=0
EXTRACT: note_off channel=0 note=63 velocity=95 time=0
EXTRACT: note_off channel=0 note=59 velocity=95 time=0
EXTRACT: note_off channel=2 note=42 velocity=95 time=0
EXTRACT: note_on channel=2 note=44 velocity=70 time=0
EXTRACT: note_off channel=12 note=44 velocity=95 time=0
EXTRACT: note_on channel=12 note=44 velocity=95 time=0
EXTRACT: note_off channel=9 note=42 velocity=95 time=0
EXTRACT: note_on channel=9 note=42 velocity=95 time=0
EXTRACT: note_on channel=9 note=36 velocity=95 time=0
EXTRACT: note_on channel=0 note=71 velocity=95 time=0.1666665
EXTRACT: note_on channel=0 note=66 velocity=95 time=0
EXTRACT: note_on channel=0 note=63 velocity=95 time=0
EXTRACT: note_on channel=0 note=59 velocity=95 time=0
EXTRACT: note_off channel=2 note=44 velocity=70 time=0
EXTRACT: note_on channel=2 note=52 velocity=95 time=0
EXTRACT: note_off channel=9 note=42 velocity=95 time=0
EXTRACT: note_off channel=9 note=36 velocity=95 time=0
EXTRACT: note_off channel=0 note=71 velocity=95 time=0.1666665
EXTRACT: note_off channel=0 note=66 velocity=95 time=0
EXTRACT: note_off channel=0 note=63 velocity=95 time=0
EXTRACT: note_off channel=0 note=59 velocity=95 time=0
EXTRACT: note_off channel=12 note=44 velocity=95 time=0
EXTRACT: note_on channel=12 note=42 velocity=95 time=0
EXTRACT: note_on channel=9 note=42 velocity=95 time=0
EXTRACT: note_on channel=9 note=40 velocity=95 time=0
EXTRACT: note_on channel=0 note=73 velocity=95 time=0.1666665
EXTRACT: note_on channel=0 note=68 velocity=95 time=0
EXTRACT: note_on channel=0 note=64 velocity=95 time=0
EXTRACT: note_on channel=0 note=61 velocity=95 time=0
EXTRACT: note_off channel=2 note=52 velocity=95 time=0
EXTRACT: note_on channel=3 note=49 velocity=95 time=0
EXTRACT: note_off channel=12 note=42 velocity=95 time=0
EXTRACT: note_on channel=12 note=44 velocity=70 time=0
EXTRACT: note_off channel=9 note=42 velocity=95 time=0
EXTRACT: note_off channel=9 note=40 velocity=95 time=0
EXTRACT: note_on channel=9 note=42 velocity=95 time=0
EXTRACT: pitchwheel channel=3 pitch=0 time=0.0555555
EXTRACT: pitchwheel channel=3 pitch=128 time=0.0555555
EXTRACT: note_off channel=0 note=73 velocity=95 time=0.0555555
EXTRACT: note_off channel=0 note=68 velocity=95 time=0
EXTRACT: note_off channel=0 note=64 velocity=95 time=0
EXTRACT: note_off channel=0 note=61 velocity=95 time=0
EXTRACT: pitchwheel channel=3 pitch=0 time=0
EXTRACT: note_off channel=12 note=44 velocity=70 time=0
EXTRACT: note_on channel=12 note=37 velocity=95 time=0
EXTRACT: note_off channel=9 note=42 velocity=95 time=0
EXTRACT: note_on channel=9 note=42 velocity=95 time=0
EXTRACT: note_on channel=9 note=36 velocity=95 time=0
EXTRACT: pitchwheel channel=3 pitch=128 time=0.0555555
EXTRACT: pitchwheel channel=3 pitch=0 time=0.0555555
EXTRACT: note_on channel=0 note=73 velocity=95 time=0.0555555
EXTRACT: note_on channel=0 note=68 velocity=95 time=0
EXTRACT: note_on channel=0 note=64 velocity=95 time=0
EXTRACT: note_on channel=0 note=61 velocity=95 time=0
EXTRACT: pitchwheel channel=3 pitch=128 time=0
EXTRACT: note_on channel=14 note=80 velocity=95 time=0
EXTRACT: note_on channel=14 note=73 velocity=95 time=0
EXTRACT: note_off channel=9 note=42 velocity=95 time=0
EXTRACT: note_off channel=9 note=36 velocity=95 time=0
EXTRACT: pitchwheel channel=3 pitch=0 time=0.0555555
EXTRACT: pitchwheel channel=3 pitch=128 time=0.0555555
EXTRACT: note_off channel=0 note=73 velocity=95 time=0.0555555
EXTRACT: note_off channel=0 note=68 velocity=95 time=0
EXTRACT: note_off channel=0 note=64 velocity=95 time=0
EXTRACT: note_off channel=0 note=61 velocity=95 time=0
EXTRACT: pitchwheel channel=3 pitch=0 time=0
EXTRACT: pitchwheel channel=3 pitch=128 time=0
EXTRACT: pitchwheel channel=3 pitch=0 time=0
EXTRACT: note_off channel=3 note=49 velocity=95 time=0
EXTRACT: note_on channel=2 note=49 velocity=95 time=0
EXTRACT: note_off channel=14 note=80 velocity=95 time=0
EXTRACT: note_off channel=14 note=73 velocity=95 time=0
EXTRACT: note_on channel=14 note=79 velocity=95 time=0
EXTRACT: note_on channel=14 note=72 velocity=95 time=0
EXTRACT: note_on channel=9 note=42 velocity=95 time=0
EXTRACT: note_on channel=9 note=40 velocity=95 time=0
EXTRACT: note_on channel=0 note=73 velocity=95 time=0.1666665
EXTRACT: note_on channel=0 note=68 velocity=95 time=0
EXTRACT: note_on channel=0 note=64 velocity=95 time=0
EXTRACT: note_on channel=0 note=61 velocity=95 time=0
EXTRACT: note_off channel=2 note=49 velocity=95 time=0
EXTRACT: note_on channel=2 note=47 velocity=95 time=0
EXTRACT: note_off channel=12 note=37 velocity=95 time=0
EXTRACT: note_on channel=12 note=44 velocity=95 time=0
EXTRACT: note_off channel=14 note=79 velocity=95 time=0
EXTRACT: note_off channel=14 note=72 velocity=95 time=0
EXTRACT: note_on channel=14 note=80 velocity=95 time=0
EXTRACT: note_on channel=14 note=73 velocity=95 time=0
EXTRACT: note_off channel=9 note=42 velocity=95 time=0
EXTRACT: note_off channel=9 note=40 velocity=95 time=0
EXTRACT: note_on channel=9 note=42 velocity=95 time=0
EXTRACT: note_off channel=0 note=73 velocity=95 time=0.1666665
EXTRACT: note_off channel=0 note=68 velocity=95 time=0
EXTRACT: note_off channel=0 note=64 velocity=95 time=0
EXTRACT: note_off channel=0 note=61 velocity=95 time=0
EXTRACT: note_off channel=2 note=47 velocity=95 time=0
EXTRACT: note_on channel=2 note=40 velocity=95 time=0
EXTRACT: note_off channel=12 note=44 velocity=95 time=0
EXTRACT: note_on channel=12 note=44 velocity=95 time=0
EXTRACT: note_off channel=14 note=80 velocity=95 time=0
EXTRACT: note_off channel=14 note=73 velocity=95 time=0
EXTRACT: note_on channel=14 note=79 velocity=95 time=0
EXTRACT: note_on channel=14 note=72 velocity=95 time=0
EXTRACT: note_off channel=9 note=42 velocity=95 time=0
EXTRACT: note_on channel=9 note=42 velocity=95 time=0
EXTRACT: note_on channel=0 note=73 velocity=95 time=0.1666665
EXTRACT: note_on channel=0 note=68 velocity=95 time=0
EXTRACT: note_on channel=0 note=64 velocity=95 time=0
EXTRACT: note_on channel=0 note=61 velocity=95 time=0
EXTRACT: note_off channel=2 note=40 velocity=95 time=0
EXTRACT: note_on channel=2 note=37 velocity=95 time=0
EXTRACT: note_off channel=14 note=79 velocity=95 time=0
EXTRACT: note_off channel=14 note=72 velocity=95 time=0
EXTRACT: note_on channel=14 note=80 velocity=95 time=0
EXTRACT: note_on channel=14 note=73 velocity=95 time=0
EXTRACT: note_off channel=9 note=42 velocity=95 time=0
EXTRACT: note_on channel=9 note=36 velocity=95 time=0
EXTRACT: note_off channel=0 note=73 velocity=95 time=0.1666665
EXTRACT: note_off channel=0 note=68 velocity=95 time=0
EXTRACT: note_off channel=0 note=64 velocity=95 time=0
EXTRACT: note_off channel=0 note=61 velocity=95 time=0
EXTRACT: note_off channel=2 note=37 velocity=95 time=0
EXTRACT: pitchwheel channel=3 pitch=0 time=0
EXTRACT: note_on channel=3 note=40 velocity=95 time=0
EXTRACT: note_off channel=12 note=44 velocity=95 time=0
EXTRACT: note_on channel=12 note=42 velocity=95 time=0
EXTRACT: note_off channel=14 note=80 velocity=95 time=0
EXTRACT: note_off channel=14 note=73 velocity=95 time=0
EXTRACT: note_off channel=9 note=36 velocity=95 time=0
EXTRACT: note_on channel=9 note=42 velocity=95 time=0
EXTRACT: note_on channel=9 note=40 velocity=95 time=0
EXTRACT: pitchwheel channel=3 pitch=128 time=0.08333325
EXTRACT: note_on channel=0 note=73 velocity=95 time=0.08333325
EXTRACT: note_on channel=0 note=68 velocity=95 time=0
EXTRACT: note_on channel=0 note=64 velocity=95 time=0
EXTRACT: note_on channel=0 note=61 velocity=95 time=0
EXTRACT: pitchwheel channel=3 pitch=256 time=0
EXTRACT: pitchwheel channel=3 pitch=256 time=0
EXTRACT: note_off channel=12 note=42 velocity=95 time=0
EXTRACT: note_on channel=12 note=44 velocity=70 time=0
EXTRACT: note_on channel=14 note=80 velocity=95 time=0
EXTRACT: note_on channel=14 note=73 velocity=95 time=0
EXTRACT: note_off channel=9 note=42 velocity=95 time=0
EXTRACT: note_off channel=9 note=40 velocity=95 time=0
EXTRACT: note_on channel=9 note=42 velocity=95 time=0
EXTRACT: note_off channel=0 note=73 velocity=95 time=0.1666665
EXTRACT: note_off channel=0 note=68 velocity=95 time=0
EXTRACT: note_off channel=0 note=64 velocity=95 time=0
EXTRACT: note_off channel=0 note=61 velocity=95 time=0
EXTRACT: pitchwheel channel=3 pitch=256 time=0
EXTRACT: pitchwheel channel=3 pitch=0 time=0
EXTRACT: note_off channel=3 note=40 velocity=95 time=0
EXTRACT: note_on channel=2 note=37 velocity=95 time=0
EXTRACT: note_off channel=12 note=44 velocity=70 time=0
EXTRACT: note_on channel=12 note=37 velocity=95 time=0
EXTRACT: note_off channel=14 note=80 velocity=95 time=0
EXTRACT: note_off channel=14 note=73 velocity=95 time=0
EXTRACT: note_off channel=9 note=42 velocity=95 time=0
EXTRACT: note_on channel=9 note=42 velocity=95 time=0
EXTRACT: note_on channel=9 note=36 velocity=95 time=0
EXTRACT: note_on channel=0 note=73 velocity=95 time=0.1666665
EXTRACT: note_on channel=0 note=68 velocity=95 time=0
EXTRACT: note_on channel=0 note=64 velocity=95 time=0
EXTRACT: note_on channel=0 note=61 velocity=95 time=0
EXTRACT: note_on channel=14 note=80 velocity=95 time=0
EXTRACT: note_on channel=14 note=73 velocity=95 time=0
EXTRACT: note_off channel=9 note=42 velocity=95 time=0
EXTRACT: note_off channel=9 note=36 velocity=95 time=0
EXTRACT: note_off channel=0 note=73 velocity=95 time=0.1666665
EXTRACT: note_off channel=0 note=68 velocity=95 time=0
EXTRACT: note_off channel=0 note=64 velocity=95 time=0
EXTRACT: note_off channel=0 note=61 velocity=95 time=0
EXTRACT: note_off channel=2 note=37 velocity=95 time=0
EXTRACT: note_on channel=2 note=37 velocity=95 time=0
EXTRACT: note_on channel=9 note=42 velocity=95 time=0
EXTRACT: note_on channel=9 note=40 velocity=95 time=0
EXTRACT: note_off channel=14 note=80 velocity=95 time=0.1041665625
EXTRACT: note_off channel=14 note=73 velocity=95 time=0
EXTRACT: note_on channel=0 note=73 velocity=95 time=0.062499937500000005
EXTRACT: note_on channel=0 note=68 velocity=95 time=0
EXTRACT: note_on channel=0 note=64 velocity=95 time=0
EXTRACT: note_on channel=0 note=61 velocity=95 time=0
EXTRACT: note_off channel=2 note=37 velocity=95 time=0
EXTRACT: note_on channel=2 note=37 velocity=95 time=0
EXTRACT: note_off channel=12 note=37 velocity=95 time=0
EXTRACT: note_on channel=12 note=44 velocity=95 time=0
EXTRACT: note_off channel=9 note=42 velocity=95 time=0
EXTRACT: note_off channel=9 note=40 velocity=95 time=0
EXTRACT: note_on channel=9 note=42 velocity=95 time=0
EXTRACT: note_off channel=0 note=73 velocity=95 time=0.1666665
EXTRACT: note_off channel=0 note=68 velocity=95 time=0
EXTRACT: note_off channel=0 note=64 velocity=95 time=0
EXTRACT: note_off channel=0 note=61 velocity=95 time=0
EXTRACT: note_off channel=2 note=37 velocity=95 time=0
EXTRACT: note_on channel=2 note=40 velocity=95 time=0
EXTRACT: note_off channel=12 note=44 velocity=95 time=0
EXTRACT: note_on channel=12 note=44 velocity=95 time=0
EXTRACT: note_off channel=9 note=42 velocity=95 time=0
EXTRACT: note_on channel=9 note=42 velocity=95 time=0
EXTRACT: note_on channel=9 note=36 velocity=95 time=0
EXTRACT: note_on channel=0 note=73 velocity=95 time=0.1666665
EXTRACT: note_on channel=0 note=68 velocity=95 time=0
EXTRACT: note_on channel=0 note=64 velocity=95 time=0
EXTRACT: note_on channel=0 note=61 velocity=95 time=0
EXTRACT: note_off channel=2 note=40 velocity=95 time=0
EXTRACT: note_on channel=2 note=42 velocity=95 time=0
EXTRACT: note_off channel=9 note=42 velocity=95 time=0
EXTRACT: note_off channel=9 note=36 velocity=95 time=0
EXTRACT: note_off channel=0 note=73 velocity=95 time=0.1666665
EXTRACT: note_off channel=0 note=68 velocity=95 time=0
EXTRACT: note_off channel=0 note=64 velocity=95 time=0
EXTRACT: note_off channel=0 note=61 velocity=95 time=0
EXTRACT: note_off channel=2 note=42 velocity=95 time=0
EXTRACT: note_on channel=2 note=40 velocity=95 time=0
EXTRACT: note_off channel=12 note=44 velocity=95 time=0
EXTRACT: note_on channel=12 note=42 velocity=95 time=0
EXTRACT: note_on channel=9 note=42 velocity=95 time=0
EXTRACT: note_on channel=9 note=40 velocity=95 time=0
EXTRACT: note_on channel=0 note=73 velocity=95 time=0.1666665
EXTRACT: note_on channel=0 note=68 velocity=95 time=0
EXTRACT: note_on channel=0 note=64 velocity=95 time=0
EXTRACT: note_on channel=0 note=61 velocity=95 time=0
EXTRACT: note_off channel=2 note=40 velocity=95 time=0
EXTRACT: note_on channel=2 note=42 velocity=95 time=0
EXTRACT: note_off channel=12 note=42 velocity=95 time=0
EXTRACT: note_on channel=12 note=44 velocity=70 time=0
EXTRACT: note_off channel=9 note=42 velocity=95 time=0
EXTRACT: note_off channel=9 note=40 velocity=95 time=0
EXTRACT: note_on channel=9 note=42 velocity=95 time=0
EXTRACT: note_off channel=0 note=73 velocity=95 time=0.1666665
EXTRACT: note_off channel=0 note=68 velocity=95 time=0
EXTRACT: note_off channel=0 note=64 velocity=95 time=0
EXTRACT: note_off channel=0 note=61 velocity=95 time=0
EXTRACT: note_off channel=2 note=42 velocity=95 time=0
EXTRACT: pitchwheel channel=3 pitch=0 time=0
EXTRACT: note_on channel=3 note=42 velocity=95 time=0
EXTRACT: note_off channel=12 note=44 velocity=70 time=0
EXTRACT: note_on channel=12 note=37 velocity=95 time=0
EXTRACT: note_off channel=9 note=42 velocity=95 time=0
EXTRACT: note_on channel=9 note=42 velocity=95 time=0
EXTRACT: note_on channel=9 note=36 velocity=95 time=0
EXTRACT: pitchwheel channel=3 pitch=128 time=0.014930540625
EXTRACT: pitchwheel channel=3 pitch=256 time=0.014930540625
EXTRACT: pitchwheel channel=3 pitch=384 time=0.014930540625
EXTRACT: pitchwheel channel=3 pitch=512 time=0.014930540625
EXTRACT: pitchwheel channel=3 pitch=640 time=0.014930540625
EXTRACT: pitchwheel channel=3 pitch=768 time=0.014930540625
EXTRACT: pitchwheel channel=3 pitch=896 time=0.014930540625
EXTRACT: pitchwheel channel=3 pitch=1024 time=0.014930540625
EXTRACT: pitchwheel channel=3 pitch=1152 time=0.014930540625
EXTRACT: pitchwheel channel=3 pitch=1280 time=0.014930540625
EXTRACT: pitchwheel channel=3 pitch=1408 time=0.014930540625
EXTRACT: note_on channel=0 note=73 velocity=95 time=0.002430553125
EXTRACT: note_on channel=0 note=68 velocity=95 time=0
EXTRACT: note_on channel=0 note=64 velocity=95 time=0
EXTRACT: note_on channel=0 note=61 velocity=95 time=0
EXTRACT: pitchwheel channel=3 pitch=1408 time=0
EXTRACT: note_off channel=9 note=42 velocity=95 time=0
EXTRACT: note_off channel=9 note=36 velocity=95 time=0
EXTRACT: note_off channel=0 note=73 velocity=95 time=0.1666665
EXTRACT: note_off channel=0 note=68 velocity=95 time=0
EXTRACT: note_off channel=0 note=64 velocity=95 time=0
EXTRACT: note_off channel=0 note=61 velocity=95 time=0
EXTRACT: pitchwheel channel=3 pitch=1408 time=0
EXTRACT: pitchwheel channel=3 pitch=0 time=0
EXTRACT: note_off channel=3 note=42 velocity=95 time=0
EXTRACT: note_on channel=2 note=40 velocity=95 time=0
EXTRACT: note_on channel=14 note=80 velocity=95 time=0
EXTRACT: note_on channel=14 note=73 velocity=95 time=0
EXTRACT: note_on channel=9 note=42 velocity=95 time=0
EXTRACT: note_on channel=9 note=40 velocity=95 time=0
EXTRACT: note_on channel=0 note=73 velocity=95 time=0.1666665
EXTRACT: note_on channel=0 note=68 velocity=95 time=0
EXTRACT: note_on channel=0 note=64 velocity=95 time=0
EXTRACT: note_on channel=0 note=61 velocity=95 time=0
EXTRACT: note_off channel=2 note=40 velocity=95 time=0
EXTRACT: note_on channel=2 note=37 velocity=95 time=0
EXTRACT: note_off channel=12 note=37 velocity=95 time=0
EXTRACT: note_on channel=12 note=44 velocity=95 time=0
EXTRACT: note_off channel=14 note=80 velocity=95 time=0
EXTRACT: note_off channel=14 note=73 velocity=95 time=0
EXTRACT: note_off channel=9 note=42 velocity=95 time=0
EXTRACT: note_off channel=9 note=40 velocity=95 time=0
EXTRACT: note_on channel=9 note=42 velocity=95 time=0
EXTRACT: note_off channel=0 note=73 velocity=95 time=0.1666665
EXTRACT: note_off channel=0 note=68 velocity=95 time=0
EXTRACT: note_off channel=0 note=64 velocity=95 time=0
EXTRACT: note_off channel=0 note=61 velocity=95 time=0
EXTRACT: note_off channel=2 note=37 velocity=95 time=0
EXTRACT: note_on channel=3 note=49 velocity=95 time=0
EXTRACT: note_off channel=12 note=44 velocity=95 time=0
EXTRACT: note_on channel=12 note=44 velocity=95 time=0
EXTRACT: note_on channel=14 note=80 velocity=95 time=0
EXTRACT: note_on channel=14 note=73 velocity=95 time=0
EXTRACT: note_off channel=9 note=42 velocity=95 time=0
EXTRACT: note_on channel=9 note=42 velocity=95 time=0
EXTRACT: pitchwheel channel=3 pitch=0 time=0.0555555
EXTRACT: pitchwheel channel=3 pitch=128 time=0.0555555
EXTRACT: note_on channel=0 note=73 velocity=95 time=0.0555555
EXTRACT: note_on channel=0 note=68 velocity=95 time=0
EXTRACT: note_on channel=0 note=64 velocity=95 time=0
EXTRACT: note_on channel=0 note=61 velocity=95 time=0
EXTRACT: pitchwheel channel=3 pitch=0 time=0
EXTRACT: note_off channel=14 note=80 velocity=95 time=0
EXTRACT: note_off channel=14 note=73 velocity=95 time=0
EXTRACT: note_off channel=9 note=42 velocity=95 time=0
EXTRACT: note_on channel=9 note=36 velocity=95 time=0
EXTRACT: pitchwheel channel=3 pitch=128 time=0.0555555
EXTRACT: pitchwheel channel=3 pitch=0 time=0.0555555
EXTRACT: note_off channel=0 note=73 velocity=95 time=0.0555555
EXTRACT: note_off channel=0 note=68 velocity=95 time=0
EXTRACT: note_off channel=0 note=64 velocity=95 time=0
EXTRACT: note_off channel=0 note=61 velocity=95 time=0
EXTRACT: pitchwheel channel=3 pitch=128 time=0
EXTRACT: pitchwheel channel=3 pitch=0 time=0
EXTRACT: note_off channel=3 note=49 velocity=95 time=0
EXTRACT: note_on channel=2 note=37 velocity=95 time=0
EXTRACT: note_off channel=12 note=44 velocity=95 time=0
EXTRACT: note_on channel=12 note=42 velocity=95 time=0
EXTRACT: note_off channel=9 note=36 velocity=95 time=0
EXTRACT: note_on channel=9 note=42 velocity=95 time=0
EXTRACT: note_on channel=9 note=40 velocity=95 time=0
EXTRACT: note_on channel=0 note=73 velocity=95 time=0.1666665
EXTRACT: note_on channel=0 note=68 velocity=95 time=0
EXTRACT: note_on channel=0 note=64 velocity=95 time=0
EXTRACT: note_on channel=0 note=61 velocity=95 time=0
EXTRACT: note_off channel=2 note=37 velocity=95 time=0
EXTRACT: note_on channel=2 note=37 velocity=95 time=0
EXTRACT: note_off channel=12 note=42 velocity=95 time=0
EXTRACT: note_on channel=12 note=44 velocity=70 time=0
EXTRACT: note_off channel=9 note=42 velocity=95 time=0
EXTRACT: note_off channel=9 note=40 velocity=95 time=0
EXTRACT: note_on channel=9 note=42 velocity=95 time=0
EXTRACT: note_off channel=0 note=73 velocity=95 time=0.1666665
EXTRACT: note_off channel=0 note=68 velocity=95 time=0
EXTRACT: note_off channel=0 note=64 velocity=95 time=0
EXTRACT: note_off channel=0 note=61 velocity=95 time=0
EXTRACT: note_on channel=0 note=71 velocity=95 time=0
EXTRACT: note_on channel=0 note=66 velocity=95 time=0
EXTRACT: note_on channel=0 note=63 velocity=95 time=0
EXTRACT: note_on channel=0 note=59 velocity=95 time=0
EXTRACT: note_off channel=2 note=37 velocity=95 time=0
EXTRACT: note_on channel=2 note=61 velocity=95 time=0
EXTRACT: note_on channel=2 note=59 velocity=95 time=0
EXTRACT: note_off channel=12 note=44 velocity=70 time=0
EXTRACT: note_on channel=12 note=37 velocity=95 time=0
EXTRACT: note_off channel=9 note=42 velocity=95 time=0
EXTRACT: note_on channel=9 note=42 velocity=95 time=0
EXTRACT: note_on channel=9 note=36 velocity=95 time=0
EXTRACT: note_off channel=0 note=71 velocity=95 time=0.1666665
EXTRACT: note_off channel=0 note=66 velocity=95 time=0
EXTRACT: note_off channel=0 note=63 velocity=95 time=0
EXTRACT: note_off channel=0 note=59 velocity=95 time=0
EXTRACT: note_on channel=0 note=71 velocity=95 time=0
EXTRACT: note_on channel=0 note=66 velocity=95 time=0
EXTRACT: note_on channel=0 note=63 velocity=95 time=0
EXTRACT: note_on channel=0 note=59 velocity=95 time=0
EXTRACT: note_off channel=2 note=61 velocity=95 time=0
EXTRACT: note_off channel=2 note=59 velocity=95 time=0
EXTRACT: note_on channel=2 note=61 velocity=95 time=0
EXTRACT: note_on channel=2 note=59 velocity=95 time=0
EXTRACT: note_on channel=14 note=80 velocity=95 time=0
EXTRACT: note_on channel=14 note=73 velocity=95 time=0
EXTRACT: note_off channel=9 note=42 velocity=95 time=0
EXTRACT: note_off channel=9 note=36 velocity=95 time=0
EXTRACT: note_off channel=0 note=71 velocity=95 time=0.1666665
EXTRACT: note_off channel=0 note=66 velocity=95 time=0
EXTRACT: note_off channel=0 note=63 velocity=95 time=0
EXTRACT: note_off channel=0 note=59 velocity=95 time=0
EXTRACT: note_off channel=2 note=61 velocity=95 time=0
EXTRACT: note_off channel=2 note=59 velocity=95 time=0
EXTRACT: note_on channel=2 note=61 velocity=95 time=0
EXTRACT: note_on channel=2 note=59 velocity=95 time=0
EXTRACT: note_off channel=14 note=80 velocity=95 time=0
EXTRACT: note_off channel=14 note=73 velocity=95 time=0
EXTRACT: note_on channel=14 note=79 velocity=95 time=0
EXTRACT: note_on channel=14 note=72 velocity=95 time=0
EXTRACT: note_on channel=9 note=42 velocity=95 time=0
EXTRACT: note_on channel=9 note=40 velocity=95 time=0
EXTRACT: note_on channel=0 note=71 velocity=95 time=0.1666665
EXTRACT: note_on channel=0 note=66 velocity=95 time=0
EXTRACT: note_on channel=0 note=63 velocity=95 time=0
EXTRACT: note_on channel=0 note=59 velocity=95 time=0
EXTRACT: note_off channel=2 note=61 velocity=95 time=0
EXTRACT: note_off channel=2 note=59 velocity=95 time=0
EXTRACT: note_on channel=2 note=61 velocity=95 time=0
EXTRACT: note_on channel=2 note=59 velocity=95 time=0
EXTRACT: note_off channel=12 note=37 velocity=95 time=0
EXTRACT: note_on channel=12 note=44 velocity=95 time=0
EXTRACT: note_off channel=14 note=79 velocity=95 time=0
EXTRACT: note_off channel=14 note=72 velocity=95 time=0
EXTRACT: note_on channel=14 note=80 velocity=95 time=0
EXTRACT: note_on channel=14 note=73 velocity=95 time=0
EXTRACT: note_off channel=9 note=42 velocity=95 time=0
EXTRACT: note_off channel=9 note=40 velocity=95 time=0
EXTRACT: note_on channel=9 note=42 velocity=95 time=0
EXTRACT: note_off channel=0 note=71 velocity=95 time=0.1666665
EXTRACT: note_off channel=0 note=66 velocity=95 time=0
EXTRACT: note_off channel=0 note=63 velocity=95 time=0
EXTRACT: note_off channel=0 note=59 velocity=95 time=0
EXTRACT: note_off channel=2 note=61 velocity=95 time=0
EXTRACT: note_off channel=2 note=59 velocity=95 time=0
EXTRACT: note_on channel=2 note=61 velocity=95 time=0
EXTRACT: note_on channel=2 note=59 velocity=95 time=0
EXTRACT: note_off channel=12 note=44 velocity=95 time=0
EXTRACT: note_on channel=12 note=44 velocity=95 time=0
EXTRACT: note_off channel=14 note=80 velocity=95 time=0
EXTRACT: note_off channel=14 note=73 velocity=95 time=0
EXTRACT: note_on channel=14 note=79 velocity=95 time=0
EXTRACT: note_on channel=14 note=72 velocity=95 time=0
EXTRACT: note_off channel=9 note=42 velocity=95 time=0
EXTRACT: note_on channel=9 note=42 velocity=95 time=0
EXTRACT: note_on channel=9 note=36 velocity=95 time=0
EXTRACT: note_on channel=0 note=71 velocity=95 time=0.1666665
EXTRACT: note_on channel=0 note=66 velocity=95 time=0
EXTRACT: note_on channel=0 note=63 velocity=95 time=0
EXTRACT: note_on channel=0 note=59 velocity=95 time=0
EXTRACT: note_off channel=2 note=61 velocity=95 time=0
EXTRACT: note_off channel=2 note=59 velocity=95 time=0
EXTRACT: note_on channel=2 note=56 velocity=95 time=0
EXTRACT: note_off channel=14 note=79 velocity=95 time=0
EXTRACT: note_off channel=14 note=72 velocity=95 time=0
EXTRACT: note_on channel=14 note=80 velocity=95 time=0
EXTRACT: note_on channel=14 note=73 velocity=95 time=0
EXTRACT: note_off channel=9 note=42 velocity=95 time=0
EXTRACT: note_off channel=9 note=36 velocity=95 time=0
EXTRACT: note_off channel=0 note=71 velocity=95 time=0.1666665
EXTRACT: note_off channel=0 note=66 velocity=95 time=0
EXTRACT: note_off channel=0 note=63 velocity=95 time=0
EXTRACT: note_off channel=0 note=59 velocity=95 time=0
EXTRACT: note_off channel=2 note=56 velocity=95 time=0
EXTRACT: note_on channel=2 note=59 velocity=95 time=0
EXTRACT: note_off channel=12 note=44 velocity=95 time=0
EXTRACT: note_on channel=12 note=42 velocity=95 time=0
EXTRACT: note_off channel=14 note=80 velocity=95 time=0
EXTRACT: note_off channel=14 note=73 velocity=95 time=0
EXTRACT: note_on channel=9 note=42 velocity=95 time=0
EXTRACT: note_on channel=9 note=40 velocity=95 time=0
EXTRACT: note_on channel=0 note=73 velocity=95 time=0.1666665
EXTRACT: note_on channel=0 note=68 velocity=95 time=0
EXTRACT: note_on channel=0 note=64 velocity=95 time=0
EXTRACT: note_on channel=0 note=61 velocity=95 time=0
EXTRACT: note_off channel=2 note=59 velocity=95 time=0
EXTRACT: note_on channel=3 note=61 velocity=95 time=0
EXTRACT: note_off channel=12 note=42 velocity=95 time=0
EXTRACT: note_on channel=12 note=44 velocity=70 time=0
EXTRACT: note_on channel=14 note=80 velocity=95 time=0
EXTRACT: note_on channel=14 note=73 velocity=95 time=0
EXTRACT: note_off channel=9 note=42 velocity=95 time=0
EXTRACT: note_off channel=9 note=40 velocity=95 time=0
EXTRACT: note_on channel=9 note=42 velocity=95 time=0
EXTRACT: pitchwheel channel=3 pitch=0 time=0.0555555
EXTRACT: pitchwheel channel=3 pitch=128 time=0.0555555
EXTRACT: note_off channel=0 note=73 velocity=95 time=0.0555555
EXTRACT: note_off channel=0 note=68 velocity=95 time=0
EXTRACT: note_off channel=0 note=64 velocity=95 time=0
EXTRACT: note_off channel=0 note=61 velocity=95 time=0
EXTRACT: pitchwheel channel=3 pitch=0 time=0
EXTRACT: note_off channel=12 note=44 velocity=70 time=0
EXTRACT: note_on channel=12 note=37 velocity=95 time=0
EXTRACT: note_off channel=14 note=80 velocity=95 time=0
EXTRACT: note_off channel=14 note=73 velocity=95 time=0
EXTRACT: note_off channel=9 note=42 velocity=95 time=0
EXTRACT: note_on channel=9 note=42 velocity=95 time=0
EXTRACT: note_on channel=9 note=36 velocity=95 time=0
EXTRACT: pitchwheel channel=3 pitch=128 time=0.0555555
EXTRACT: pitchwheel channel=3 pitch=0 time=0.0555555
EXTRACT: note_on channel=0 note=73 velocity=95 time=0.0555555
EXTRACT: note_on channel=0 note=68 velocity=95 time=0
EXTRACT: note_on channel=0 note=64 velocity=95 time=0
EXTRACT: note_on channel=0 note=61 velocity=95 time=0
EXTRACT: pitchwheel channel=3 pitch=128 time=0
EXTRACT: pitchwheel channel=3 pitch=0 time=0
EXTRACT: note_off channel=3 note=61 velocity=95 time=0
EXTRACT: note_on channel=2 note=61 velocity=95 time=0
EXTRACT: note_on channel=14 note=80 velocity=95 time=0
EXTRACT: note_on channel=14 note=73 velocity=95 time=0
EXTRACT: note_off channel=9 note=42 velocity=95 time=0
EXTRACT: note_off channel=9 note=36 velocity=95 time=0
EXTRACT: note_off channel=0 note=73 velocity=95 time=0.1666665
EXTRACT: note_off channel=0 note=68 velocity=95 time=0
EXTRACT: note_off channel=0 note=64 velocity=95 time=0
EXTRACT: note_off channel=0 note=61 velocity=95 time=0
EXTRACT: note_off channel=2 note=61 velocity=95 time=0
EXTRACT: note_on channel=2 note=61 velocity=95 time=0
EXTRACT: note_off channel=14 note=80 velocity=95 time=0
EXTRACT: note_off channel=14 note=73 velocity=95 time=0
EXTRACT: note_on channel=9 note=42 velocity=95 time=0
EXTRACT: note_on channel=9 note=40 velocity=95 time=0
EXTRACT: note_on channel=0 note=73 velocity=95 time=0.1666665
EXTRACT: note_on channel=0 note=68 velocity=95 time=0
EXTRACT: note_on channel=0 note=64 velocity=95 time=0
EXTRACT: note_on channel=0 note=61 velocity=95 time=0
EXTRACT: note_off channel=2 note=61 velocity=95 time=0
EXTRACT: note_on channel=2 note=61 velocity=95 time=0
EXTRACT: note_off channel=12 note=37 velocity=95 time=0
EXTRACT: note_on channel=12 note=44 velocity=95 time=0
EXTRACT: note_on channel=14 note=80 velocity=95 time=0
EXTRACT: note_on channel=14 note=73 velocity=95 time=0
EXTRACT: note_off channel=9 note=42 velocity=95 time=0
EXTRACT: note_off channel=9 note=40 velocity=95 time=0
EXTRACT: note_on channel=9 note=42 velocity=95 time=0
EXTRACT: note_off channel=0 note=73 velocity=95 time=0.1666665
EXTRACT: note_off channel=0 note=68 velocity=95 time=0
EXTRACT: note_off channel=0 note=64 velocity=95 time=0
EXTRACT: note_off channel=0 note=61 velocity=95 time=0
EXTRACT: note_off channel=2 note=61 velocity=95 time=0
EXTRACT: note_on channel=2 note=64 velocity=95 time=0
EXTRACT: note_off channel=12 note=44 velocity=95 time=0
EXTRACT: note_on channel=12 note=44 velocity=95 time=0
EXTRACT: note_off channel=14 note=80 velocity=95 time=0
EXTRACT: note_off channel=14 note=73 velocity=95 time=0
EXTRACT: note_off channel=9 note=42 velocity=95 time=0
EXTRACT: note_on channel=9 note=42 velocity=95 time=0
EXTRACT: note_on channel=0 note=73 velocity=95 time=0.1666665
EXTRACT: note_on channel=0 note=68 velocity=95 time=0
EXTRACT: note_on channel=0 note=64 velocity=95 time=0
EXTRACT: note_on channel=0 note=61 velocity=95 time=0
EXTRACT: note_off channel=2 note=64 velocity=95 time=0
EXTRACT: note_on channel=2 note=61 velocity=95 time=0
EXTRACT: note_on channel=14 note=80 velocity=95 time=0
EXTRACT: note_on channel=14 note=73 velocity=95 time=0
EXTRACT: note_off channel=9 note=42 velocity=95 time=0
EXTRACT: note_on channel=9 note=36 velocity=95 time=0
EXTRACT: note_off channel=0 note=73 velocity=95 time=0.1666665
EXTRACT: note_off channel=0 note=68 velocity=95 time=0
EXTRACT: note_off channel=0 note=64 velocity=95 time=0
EXTRACT: note_off channel=0 note=61 velocity=95 time=0
EXTRACT: note_off channel=2 note=61 velocity=95 time=0
EXTRACT: note_on channel=2 note=59 velocity=95 time=0
EXTRACT: note_off channel=12 note=44 velocity=95 time=0
EXTRACT: note_on channel=12 note=42 velocity=95 time=0
EXTRACT: note_off channel=9 note=36 velocity=95 time=0
EXTRACT: note_on channel=9 note=42 velocity=95 time=0
EXTRACT: note_on channel=9 note=40 velocity=95 time=0
EXTRACT: note_off channel=14 note=80 velocity=95 time=0.1041665625
EXTRACT: note_off channel=14 note=73 velocity=95 time=0
EXTRACT: note_on channel=0 note=73 velocity=95 time=0.062499937500000005
EXTRACT: note_on channel=0 note=68 velocity=95 time=0
EXTRACT: note_on channel=0 note=64 velocity=95 time=0
EXTRACT: note_on channel=0 note=61 velocity=95 time=0
EXTRACT: note_off channel=2 note=59 velocity=95 time=0
EXTRACT: note_on channel=3 note=61 velocity=95 time=0
EXTRACT: note_on channel=6 note=56 velocity=95 time=0
EXTRACT: note_off channel=12 note=42 velocity=95 time=0
EXTRACT: note_on channel=12 note=44 velocity=70 time=0
EXTRACT: note_off channel=9 note=42 velocity=95 time=0
EXTRACT: note_off channel=9 note=40 velocity=95 time=0
EXTRACT: note_on channel=9 note=42 velocity=95 time=0
EXTRACT: pitchwheel channel=3 pitch=0 time=0.0555555
EXTRACT: pitchwheel channel=3 pitch=128 time=0.0555555
EXTRACT: note_off channel=0 note=73 velocity=95 time=0.0555555
EXTRACT: note_off channel=0 note=68 velocity=95 time=0
EXTRACT: note_off channel=0 note=64 velocity=95 time=0
EXTRACT: note_off channel=0 note=61 velocity=95 time=0
EXTRACT: pitchwheel channel=3 pitch=0 time=0
EXTRACT: pitchwheel channel=3 pitch=128 time=0
EXTRACT: pitchwheel channel=3 pitch=0 time=0
EXTRACT: note_off channel=3 note=61 velocity=95 time=0
EXTRACT: note_on channel=2 note=61 velocity=95 time=0
EXTRACT: note_on channel=2 note=61 velocity=95 time=0
EXTRACT: note_off channel=6 note=56 velocity=95 time=0
EXTRACT: note_on channel=6 note=61 velocity=95 time=0
EXTRACT: note_on channel=6 note=57 velocity=95 time=0
EXTRACT: note_off channel=12 note=44 velocity=70 time=0
EXTRACT: note_on channel=12 note=30 velocity=95 time=0
EXTRACT: note_on channel=14 note=78 velocity=95 time=0
EXTRACT: note_on channel=14 note=66 velocity=95 time=0
EXTRACT: note_off channel=9 note=42 velocity=95 time=0
EXTRACT: note_on channel=9 note=42 velocity=95 time=0
EXTRACT: note_on channel=9 note=36 velocity=95 time=0
EXTRACT: note_on channel=0 note=66 velocity=95 time=0.1666665
EXTRACT: note_on channel=0 note=61 velocity=95 time=0
EXTRACT: note_on channel=0 note=57 velocity=95 time=0
EXTRACT: note_on channel=0 note=54 velocity=95 time=0
EXTRACT: note_off channel=9 note=42 velocity=95 time=0
EXTRACT: note_off channel=9 note=36 velocity=95 time=0
EXTRACT: note_off channel=6 note=61 velocity=95 time=0.1041665625
EXTRACT: note_off channel=6 note=57 velocity=95 time=0
EXTRACT: note_off channel=0 note=66 velocity=95 time=0.062499937500000005
EXTRACT: note_off channel=0 note=61 velocity=95 time=0
EXTRACT: note_off channel=0 note=57 velocity=95 time=0
EXTRACT: note_off channel=0 note=54 velocity=95 time=0
EXTRACT: note_on channel=6 note=61 velocity=95 time=0
EXTRACT: note_on channel=6 note=57 velocity=95 time=0
EXTRACT: note_on channel=9 note=42 velocity=95 time=0
EXTRACT: note_on channel=9 note=40 velocity=95 time=0
EXTRACT: note_on channel=0 note=66 velocity=95 time=0.1666665
EXTRACT: note_on channel=0 note=61 velocity=95 time=0
EXTRACT: note_on channel=0 note=57 velocity=95 time=0
EXTRACT: note_on channel=0 note=54 velocity=95 time=0
EXTRACT: note_off channel=6 note=61 velocity=95 time=0
EXTRACT: note_off channel=6 note=57 velocity=95 time=0
EXTRACT: note_on channel=6 note=61 velocity=95 time=0
EXTRACT: note_on channel=6 note=57 velocity=95 time=0
EXTRACT: note_off channel=12 note=30 velocity=95 time=0
EXTRACT: note_on channel=12 note=37 velocity=95 time=0
EXTRACT: note_off channel=9 note=42 velocity=95 time=0
EXTRACT: note_off channel=9 note=40 velocity=95 time=0
EXTRACT: note_on channel=9 note=42 velocity=95 time=0
EXTRACT: note_off channel=0 note=66 velocity=95 time=0.1666665
EXTRACT: note_off channel=0 note=61 velocity=95 time=0
EXTRACT: note_off channel=0 note=57 velocity=95 time=0
EXTRACT: note_off channel=0 note=54 velocity=95 time=0
EXTRACT: note_off channel=9 note=42 velocity=95 time=0
EXTRACT: note_on channel=9 note=42 velocity=95 time=0
EXTRACT: note_on channel=9 note=36 velocity=95 time=0
EXTRACT: note_on channel=0 note=66 velocity=95 time=0.1666665
EXTRACT: note_on channel=0 note=61 velocity=95 time=0
EXTRACT: note_on channel=0 note=57 velocity=95 time=0
EXTRACT: note_on channel=0 note=54 velocity=95 time=0
EXTRACT: note_off channel=6 note=61 velocity=95 time=0
EXTRACT: note_off channel=6 note=57 velocity=95 time=0
EXTRACT: note_on channel=6 note=61 velocity=95 time=0
EXTRACT: note_on channel=6 note=57 velocity=95 time=0
EXTRACT: note_off channel=9 note=42 velocity=95 time=0
EXTRACT: note_off channel=9 note=36 velocity=95 time=0
EXTRACT: note_off channel=0 note=66 velocity=95 time=0.1666665
EXTRACT: note_off channel=0 note=61 velocity=95 time=0
EXTRACT: note_off channel=0 note=57 velocity=95 time=0
EXTRACT: note_off channel=0 note=54 velocity=95 time=0
EXTRACT: note_off channel=12 note=37 velocity=95 time=0
EXTRACT: note_on channel=12 note=35 velocity=95 time=0
EXTRACT: note_on channel=9 note=42 velocity=95 time=0
EXTRACT: note_on channel=9 note=40 velocity=95 time=0
EXTRACT: note_on channel=0 note=66 velocity=95 time=0.1666665
EXTRACT: note_on channel=0 note=61 velocity=95 time=0
EXTRACT: note_on channel=0 note=57 velocity=95 time=0
EXTRACT: note_on channel=0 note=54 velocity=95 time=0
EXTRACT: note_off channel=6 note=61 velocity=95 time=0
EXTRACT: note_off channel=6 note=57 velocity=95 time=0
EXTRACT: note_on channel=6 note=61 velocity=95 time=0
EXTRACT: note_on channel=6 note=57 velocity=95 time=0
EXTRACT: note_off channel=12 note=35 velocity=95 time=0
EXTRACT: note_on channel=12 note=37 velocity=70 time=0
EXTRACT: note_off channel=9 note=42 velocity=95 time=0
EXTRACT: note_off channel=9 note=40 velocity=95 time=0
EXTRACT: note_on channel=9 note=42 velocity=95 time=0
EXTRACT: note_off channel=0 note=66 velocity=95 time=0.1666665
EXTRACT: note_off channel=0 note=61 velocity=95 time=0
EXTRACT: note_off channel=0 note=57 velocity=95 time=0
EXTRACT: note_off channel=0 note=54 velocity=95 time=0
EXTRACT: note_off channel=2 note=61 velocity=95 time=0
EXTRACT: note_off channel=2 note=61 velocity=95 time=0
EXTRACT: note_off channel=12 note=37 velocity=70 time=0
EXTRACT: note_on channel=12 note=30 velocity=95 time=0
EXTRACT: note_off channel=9 note=42 velocity=95 time=0
EXTRACT: note_on channel=9 note=42 velocity=95 time=0
EXTRACT: note_on channel=9 note=36 velocity=95 time=0
EXTRACT: note_on channel=0 note=66 velocity=95 time=0.1666665
EXTRACT: note_on channel=0 note=61 velocity=95 time=0
EXTRACT: note_on channel=0 note=57 velocity=95 time=0
EXTRACT: note_on channel=0 note=54 velocity=95 time=0
EXTRACT: note_off channel=6 note=61 velocity=95 time=0
EXTRACT: note_off channel=6 note=57 velocity=95 time=0
EXTRACT: note_on channel=6 note=61 velocity=95 time=0
EXTRACT: note_on channel=6 note=57 velocity=95 time=0
EXTRACT: note_off channel=9 note=42 velocity=95 time=0
EXTRACT: note_off channel=9 note=36 velocity=95 time=0
EXTRACT: note_off channel=0 note=66 velocity=95 time=0.1666665
EXTRACT: note_off channel=0 note=61 velocity=95 time=0
EXTRACT: note_off channel=0 note=57 velocity=95 time=0
EXTRACT: note_off channel=0 note=54 velocity=95 time=0
EXTRACT: note_on channel=9 note=42 velocity=95 time=0
EXTRACT: note_on channel=9 note=40 velocity=95 time=0
EXTRACT: note_on channel=0 note=66 velocity=95 time=0.1666665
EXTRACT: note_on channel=0 note=61 velocity=95 time=0
EXTRACT: note_on channel=0 note=57 velocity=95 time=0
EXTRACT: note_on channel=0 note=54 velocity=95 time=0
EXTRACT: note_off channel=6 note=61 velocity=95 time=0
EXTRACT: note_off channel=6 note=57 velocity=95 time=0
EXTRACT: note_on channel=6 note=63 velocity=95 time=0
EXTRACT: note_on channel=6 note=59 velocity=95 time=0
EXTRACT: note_off channel=12 note=30 velocity=95 time=0
EXTRACT: note_on channel=12 note=37 velocity=95 time=0
EXTRACT: note_off channel=9 note=42 velocity=95 time=0
EXTRACT: note_off channel=9 note=40 velocity=95 time=0
EXTRACT: note_on channel=9 note=42 velocity=95 time=0
EXTRACT: note_off channel=14 note=78 velocity=95 time=0.08333325
EXTRACT: note_off channel=14 note=66 velocity=95 time=0
EXTRACT: note_off channel=0 note=66 velocity=95 time=0.08333325
EXTRACT: note_off channel=0 note=61 velocity=95 time=0
EXTRACT: note_off channel=0 note=57 velocity=95 time=0
EXTRACT: note_off channel=0 note=54 velocity=95 time=0
EXTRACT: note_on channel=14 note=81 velocity=95 time=0
EXTRACT: note_on channel=14 note=69 velocity=95 time=0
EXTRACT: note_off channel=9 note=42 velocity=95 time=0
EXTRACT: note_on channel=9 note=42 velocity=95 time=0
EXTRACT: note_on channel=0 note=66 velocity=95 time=0.1666665
EXTRACT: note_on channel=0 note=61 velocity=95 time=0
EXTRACT: note_on channel=0 note=57 velocity=95 time=0
EXTRACT: note_on channel=0 note=54 velocity=95 time=0
EXTRACT: note_off channel=6 note=63 velocity=95 time=0
EXTRACT: note_off channel=6 note=59 velocity=95 time=0
EXTRACT: note_on channel=6 note=64 velocity=95 time=0
EXTRACT: note_on channel=6 note=61 velocity=95 time=0
EXTRACT: note_off channel=9 note=42 velocity=95 time=0
EXTRACT: note_on channel=9 note=36 velocity=95 time=0
EXTRACT: note_off channel=0 note=66 velocity=95 time=0.1666665
EXTRACT: note_off channel=0 note=61 velocity=95 time=0
EXTRACT: note_off channel=0 note=57 velocity=95 time=0
EXTRACT: note_off channel=0 note=54 velocity=95 time=0
EXTRACT: note_off channel=12 note=37 velocity=95 time=0
EXTRACT: note_on channel=12 note=35 velocity=95 time=0
EXTRACT: note_off channel=9 note=36 velocity=95 time=0
EXTRACT: note_on channel=9 note=42 velocity=95 time=0
EXTRACT: note_on channel=9 note=40 velocity=95 time=0
EXTRACT: note_on channel=0 note=66 velocity=95 time=0.1666665
EXTRACT: note_on channel=0 note=61 velocity=95 time=0
EXTRACT: note_on channel=0 note=57 velocity=95 time=0
EXTRACT: note_on channel=0 note=54 velocity=95 time=0
EXTRACT: note_off channel=6 note=64 velocity=95 time=0
EXTRACT: note_off channel=6 note=61 velocity=95 time=0
EXTRACT: note_on channel=6 note=64 velocity=95 time=0
EXTRACT: note_on channel=6 note=61 velocity=95 time=0
EXTRACT: note_off channel=12 note=35 velocity=95 time=0
EXTRACT: note_on channel=12 note=37 velocity=70 time=0
EXTRACT: note_off channel=9 note=42 velocity=95 time=0
EXTRACT: note_off channel=9 note=40 velocity=95 time=0
EXTRACT: note_on channel=9 note=42 velocity=95 time=0
EXTRACT: note_off channel=14 note=81 velocity=95 time=0.08333325
EXTRACT: note_off channel=14 note=69 velocity=95 time=0
EXTRACT: note_off channel=0 note=66 velocity=95 time=0.08333325
EXTRACT: note_off channel=0 note=61 velocity=95 time=0
EXTRACT: note_off channel=0 note=57 velocity=95 time=0
EXTRACT: note_off channel=0 note=54 velocity=95 time=0
EXTRACT: note_off channel=12 note=37 velocity=70 time=0
EXTRACT: note_on channel=12 note=32 velocity=95 time=0
EXTRACT: note_on channel=14 note=83 velocity=95 time=0
EXTRACT: note_on channel=14 note=71 velocity=95 time=0
EXTRACT: note_off channel=9 note=42 velocity=95 time=0
EXTRACT: note_on channel=9 note=42 velocity=95 time=0
EXTRACT: note_on channel=9 note=36 velocity=95 time=0
EXTRACT: note_on channel=0 note=68 velocity=95 time=0.1666665
EXTRACT: note_on channel=0 note=63 velocity=95 time=0
EXTRACT: note_on channel=0 note=59 velocity=95 time=0
EXTRACT: note_on channel=0 note=56 velocity=95 time=0
EXTRACT: note_off channel=9 note=42 velocity=95 time=0
EXTRACT: note_off channel=9 note=36 velocity=95 time=0
EXTRACT: note_off channel=6 note=64 velocity=95 time=0.1041665625
EXTRACT: note_off channel=6 note=61 velocity=95 time=0
EXTRACT: note_off channel=0 note=68 velocity=95 time=0.062499937500000005
EXTRACT: note_off channel=0 note=63 velocity=95 time=0
EXTRACT: note_off channel=0 note=59 velocity=95 time=0
EXTRACT: note_off channel=0 note=56 velocity=95 time=0
EXTRACT: note_on channel=6 note=63 velocity=95 time=0
EXTRACT: note_on channel=6 note=59 velocity=95 time=0
EXTRACT: note_on channel=9 note=42 velocity=95 time=0
EXTRACT: note_on channel=9 note=40 velocity=95 time=0
EXTRACT: note_on channel=0 note=68 velocity=95 time=0.1666665
EXTRACT: note_on channel=0 note=63 velocity=95 time=0
EXTRACT: note_on channel=0 note=59 velocity=95 time=0
EXTRACT: note_on channel=0 note=56 velocity=95 time=0
EXTRACT: note_off channel=6 note=63 velocity=95 time=0
EXTRACT: note_off channel=6 note=59 velocity=95 time=0
EXTRACT: note_on channel=6 note=63 velocity=95 time=0
EXTRACT: note_on channel=6 note=59 velocity=95 time=0
EXTRACT: note_off channel=12 note=32 velocity=95 time=0
EXTRACT: note_on channel=12 note=39 velocity=95 time=0
EXTRACT: note_off channel=9 note=42 velocity=95 time=0
EXTRACT: note_off channel=9 note=40 velocity=95 time=0
EXTRACT: note_on channel=9 note=42 velocity=95 time=0
EXTRACT: note_off channel=0 note=68 velocity=95 time=0.1666665
EXTRACT: note_off channel=0 note=63 velocity=95 time=0
EXTRACT: note_off channel=0 note=59 velocity=95 time=0
EXTRACT: note_off channel=0 note=56 velocity=95 time=0
EXTRACT: note_off channel=9 note=42 velocity=95 time=0
EXTRACT: note_on channel=9 note=42 velocity=95 time=0
EXTRACT: note_on channel=9 note=36 velocity=95 time=0
EXTRACT: note_on channel=0 note=68 velocity=95 time=0.1666665
EXTRACT: note_on channel=0 note=63 velocity=95 time=0
EXTRACT: note_on channel=0 note=59 velocity=95 time=0
EXTRACT: note_on channel=0 note=56 velocity=95 time=0
EXTRACT: note_off channel=6 note=63 velocity=95 time=0
EXTRACT: note_off channel=6 note=59 velocity=95 time=0
EXTRACT: note_on channel=6 note=61 velocity=95 time=0
EXTRACT: note_on channel=6 note=56 velocity=95 time=0
EXTRACT: note_off channel=9 note=42 velocity=95 time=0
EXTRACT: note_off channel=9 note=36 velocity=95 time=0
EXTRACT: note_off channel=0 note=68 velocity=95 time=0.1666665
EXTRACT: note_off channel=0 note=63 velocity=95 time=0
EXTRACT: note_off channel=0 note=59 velocity=95 time=0
EXTRACT: note_off channel=0 note=56 velocity=95 time=0
EXTRACT: note_off channel=6 note=61 velocity=95 time=0
EXTRACT: note_off channel=6 note=56 velocity=95 time=0
EXTRACT: note_on channel=6 note=63 velocity=95 time=0
EXTRACT: note_on channel=6 note=59 velocity=95 time=0
EXTRACT: note_off channel=12 note=39 velocity=95 time=0
EXTRACT: note_on channel=12 note=37 velocity=95 time=0
EXTRACT: note_on channel=9 note=42 velocity=95 time=0
EXTRACT: note_on channel=9 note=40 velocity=95 time=0
EXTRACT: note_on channel=0 note=68 velocity=95 time=0.1666665
EXTRACT: note_on channel=0 note=63 velocity=95 time=0
EXTRACT: note_on channel=0 note=59 velocity=95 time=0
EXTRACT: note_on channel=0 note=56 velocity=95 time=0
EXTRACT: note_off channel=12 note=37 velocity=95 time=0
EXTRACT: note_on channel=12 note=39 velocity=70 time=0
EXTRACT: note_off channel=9 note=42 velocity=95 time=0
EXTRACT: note_off channel=9 note=40 velocity=95 time=0
EXTRACT: note_on channel=9 note=42 velocity=95 time=0
EXTRACT: note_off channel=0 note=68 velocity=95 time=0.1666665
EXTRACT: note_off channel=0 note=63 velocity=95 time=0
EXTRACT: note_off channel=0 note=59 velocity=95 time=0
EXTRACT: note_off channel=0 note=56 velocity=95 time=0
EXTRACT: note_off channel=12 note=39 velocity=70 time=0
EXTRACT: note_on channel=12 note=32 velocity=95 time=0
EXTRACT: note_off channel=9 note=42 velocity=95 time=0
EXTRACT: note_on channel=9 note=42 velocity=95 time=0
EXTRACT: note_on channel=9 note=36 velocity=95 time=0
EXTRACT: note_on channel=0 note=68 velocity=95 time=0.1666665
EXTRACT: note_on channel=0 note=63 velocity=95 time=0
EXTRACT: note_on channel=0 note=59 velocity=95 time=0
EXTRACT: note_on channel=0 note=56 velocity=95 time=0
EXTRACT: note_off channel=9 note=42 velocity=95 time=0
EXTRACT: note_off channel=9 note=36 velocity=95 time=0
EXTRACT: note_off channel=0 note=68 velocity=95 time=0.1666665
EXTRACT: note_off channel=0 note=63 velocity=95 time=0
EXTRACT: note_off channel=0 note=59 velocity=95 time=0
EXTRACT: note_off channel=0 note=56 velocity=95 time=0
EXTRACT: note_on channel=9 note=42 velocity=95 time=0
EXTRACT: note_on channel=9 note=40 velocity=95 time=0
EXTRACT: note_on channel=0 note=68 velocity=95 time=0.1666665
EXTRACT: note_on channel=0 note=63 velocity=95 time=0
EXTRACT: note_on channel=0 note=59 velocity=95 time=0
EXTRACT: note_on channel=0 note=56 velocity=95 time=0
EXTRACT: note_on channel=2 note=61 velocity=95 time=0
EXTRACT: note_on channel=3 note=59 velocity=95 time=0
EXTRACT: note_off channel=12 note=32 velocity=95 time=0
EXTRACT: note_on channel=12 note=39 velocity=95 time=0
EXTRACT: note_off channel=9 note=42 velocity=95 time=0
EXTRACT: note_off channel=9 note=40 velocity=95 time=0
EXTRACT: note_on channel=9 note=42 velocity=95 time=0
EXTRACT: pitchwheel channel=3 pitch=256 time=0.041666625
EXTRACT: pitchwheel channel=3 pitch=640 time=0.041666625
EXTRACT: note_off channel=6 note=63 velocity=95 time=0
EXTRACT: note_off channel=6 note=59 velocity=95 time=0
EXTRACT: pitchwheel channel=3 pitch=1024 time=0.041666625
EXTRACT: note_off channel=0 note=68 velocity=95 time=0.041666625
EXTRACT: note_off channel=0 note=63 velocity=95 time=0
EXTRACT: note_off channel=0 note=59 velocity=95 time=0
EXTRACT: note_off channel=0 note=56 velocity=95 time=0
EXTRACT: note_off channel=2 note=61 velocity=95 time=0
EXTRACT: pitchwheel channel=3 pitch=1408 time=0
EXTRACT: pitchwheel channel=3 pitch=0 time=0
EXTRACT: note_off channel=3 note=59 velocity=95 time=0
EXTRACT: note_on channel=2 note=61 velocity=95 time=0
EXTRACT: note_on channel=2 note=61 velocity=95 time=0
EXTRACT: note_off channel=9 note=42 velocity=95 time=0
EXTRACT: note_on channel=9 note=42 velocity=95 time=0
EXTRACT: note_on channel=0 note=68 velocity=95 time=0.1666665
EXTRACT: note_on channel=0 note=63 velocity=95 time=0
EXTRACT: note_on channel=0 note=59 velocity=95 time=0
EXTRACT: note_on channel=0 note=56 velocity=95 time=0
EXTRACT: note_off channel=2 note=61 velocity=95 time=0
EXTRACT: note_off channel=2 note=61 velocity=95 time=0
EXTRACT: note_on channel=2 note=56 velocity=70 time=0
EXTRACT: note_off channel=9 note=42 velocity=95 time=0
EXTRACT: note_on channel=9 note=36 velocity=95 time=0
EXTRACT: note_off channel=14 note=83 velocity=95 time=0.08333325
EXTRACT: note_off channel=14 note=71 velocity=95 time=0
EXTRACT: note_off channel=0 note=68 velocity=95 time=0.08333325
EXTRACT: note_off channel=0 note=63 velocity=95 time=0
EXTRACT: note_off channel=0 note=59 velocity=95 time=0
EXTRACT: note_off channel=0 note=56 velocity=95 time=0
EXTRACT: note_off channel=2 note=56 velocity=70 time=0
EXTRACT: note_on channel=2 note=56 velocity=95 time=0
EXTRACT: note_off channel=12 note=39 velocity=95 time=0
EXTRACT: note_on channel=12 note=37 velocity=95 time=0
EXTRACT: note_on channel=14 note=80 velocity=95 time=0
EXTRACT: note_on channel=14 note=68 velocity=95 time=0
EXTRACT: note_off channel=9 note=36 velocity=95 time=0
EXTRACT: note_on channel=9 note=42 velocity=95 time=0
EXTRACT: note_on channel=9 note=40 velocity=95 time=0
EXTRACT: note_off channel=2 note=56 velocity=95 time=0.08333325
EXTRACT: note_on channel=2 note=54 velocity=70 time=0
EXTRACT: note_on channel=0 note=68 velocity=95 time=0.08333325
EXTRACT: note_on channel=0 note=63 velocity=95 time=0
EXTRACT: note_on channel=0 note=59 velocity=95 time=0
EXTRACT: note_on channel=0 note=56 velocity=95 time=0
EXTRACT: note_off channel=2 note=54 velocity=70 time=0
EXTRACT: note_on channel=2 note=52 velocity=70 time=0
EXTRACT: note_on channel=6 note=56 velocity=95 time=0
EXTRACT: note_off channel=12 note=37 velocity=95 time=0
EXTRACT: note_on channel=12 note=39 velocity=70 time=0
EXTRACT: note_off channel=9 note=42 velocity=95 time=0
EXTRACT: note_off channel=9 note=40 velocity=95 time=0
EXTRACT: note_on channel=9 note=42 velocity=95 time=0
EXTRACT: note_off channel=14 note=80 velocity=95 time=0.1041665625
EXTRACT: note_off channel=14 note=68 velocity=95 time=0
EXTRACT: note_off channel=0 note=68 velocity=95 time=0.062499937500000005
EXTRACT: note_off channel=0 note=63 velocity=95 time=0
EXTRACT: note_off channel=0 note=59 velocity=95 time=0
EXTRACT: note_off channel=0 note=56 velocity=95 time=0
EXTRACT: note_off channel=2 note=52 velocity=70 time=0
EXTRACT: note_on channel=3 note=59 velocity=95 time=0
EXTRACT: note_off channel=6 note=56 velocity=95 time=0
EXTRACT: note_on channel=6 note=61 velocity=95 time=0
EXTRACT: note_off channel=12 note=39 velocity=70 time=0
EXTRACT: note_on channel=12 note=33 velocity=95 time=0
EXTRACT: note_on channel=14 note=85 velocity=95 time=0
EXTRACT: note_on channel=14 note=73 velocity=95 time=0
EXTRACT: note_off channel=9 note=42 velocity=95 time=0
EXTRACT: note_on channel=9 note=42 velocity=95 time=0
EXTRACT: note_on channel=9 note=36 velocity=95 time=0
EXTRACT: pitchwheel channel=3 pitch=1408 time=0.041666625
EXTRACT: pitchwheel channel=3 pitch=0 time=0
EXTRACT: note_off channel=3 note=59 velocity=95 time=0
EXTRACT: note_on channel=2 note=61 velocity=95 time=0
EXTRACT: note_on channel=0 note=69 velocity=95 time=0.12499987500000001
EXTRACT: note_on channel=0 note=64 velocity=95 time=0
EXTRACT: note_on channel=0 note=61 velocity=95 time=0
EXTRACT: note_on channel=0 note=57 velocity=95 time=0
EXTRACT: note_off channel=9 note=42 velocity=95 time=0
EXTRACT: note_off channel=9 note=36 velocity=95 time=0
EXTRACT: note_off channel=6 note=61 velocity=95 time=0.1041665625
EXTRACT: note_off channel=0 note=69 velocity=95 time=0.062499937500000005
EXTRACT: note_off channel=0 note=64 velocity=95 time=0
EXTRACT: note_off channel=0 note=61 velocity=95 time=0
EXTRACT: note_off channel=0 note=57 velocity=95 time=0
EXTRACT: note_on channel=6 note=61 velocity=95 time=0
EXTRACT: note_on channel=9 note=42 velocity=95 time=0
EXTRACT: note_on channel=9 note=40 velocity=95 time=0
EXTRACT: note_on channel=0 note=69 velocity=95 time=0.1666665
EXTRACT: note_on channel=0 note=64 velocity=95 time=0
EXTRACT: note_on channel=0 note=61 velocity=95 time=0
EXTRACT: note_on channel=0 note=57 velocity=95 time=0
EXTRACT: note_off channel=6 note=61 velocity=95 time=0
EXTRACT: note_on channel=6 note=61 velocity=95 time=0
EXTRACT: note_off channel=12 note=33 velocity=95 time=0
EXTRACT: note_on channel=12 note=40 velocity=95 time=0
EXTRACT: note_off channel=9 note=42 velocity=95 time=0
EXTRACT: note_off channel=9 note=40 velocity=95 time=0
EXTRACT: note_on channel=9 note=42 velocity=95 time=0
EXTRACT: note_off channel=0 note=69 velocity=95 time=0.1666665
EXTRACT: note_off channel=0 note=64 velocity=95 time=0
EXTRACT: note_off channel=0 note=61 velocity=95 time=0
EXTRACT: note_off channel=0 note=57 velocity=95 time=0
EXTRACT: note_off channel=9 note=42 velocity=95 time=0
EXTRACT: note_on channel=9 note=42 velocity=95 time=0
EXTRACT: note_on channel=9 note=36 velocity=95 time=0
EXTRACT: note_on channel=0 note=69 velocity=95 time=0.1666665
EXTRACT: note_on channel=0 note=64 velocity=95 time=0
EXTRACT: note_on channel=0 note=61 velocity=95 time=0
EXTRACT: note_on channel=0 note=57 velocity=95 time=0
EXTRACT: note_off channel=6 note=61 velocity=95 time=0
EXTRACT: note_on channel=6 note=61 velocity=95 time=0
EXTRACT: note_off channel=9 note=42 velocity=95 time=0
EXTRACT: note_off channel=9 note=36 velocity=95 time=0
EXTRACT: note_off channel=0 note=69 velocity=95 time=0.1666665
EXTRACT: note_off channel=0 note=64 velocity=95 time=0
EXTRACT: note_off channel=0 note=61 velocity=95 time=0
EXTRACT: note_off channel=0 note=57 velocity=95 time=0
EXTRACT: note_off channel=12 note=40 velocity=95 time=0
EXTRACT: note_on channel=12 note=37 velocity=95 time=0
EXTRACT: note_on channel=9 note=42 velocity=95 time=0
EXTRACT: note_on channel=9 note=40 velocity=95 time=0
EXTRACT: note_on channel=0 note=69 velocity=95 time=0.1666665
EXTRACT: note_on channel=0 note=64 velocity=95 time=0
EXTRACT: note_on channel=0 note=61 velocity=95 time=0
EXTRACT: note_on channel=0 note=57 velocity=95 time=0
EXTRACT: note_off channel=6 note=61 velocity=95 time=0
EXTRACT: note_on channel=6 note=61 velocity=95 time=0
EXTRACT: note_off channel=12 note=37 velocity=95 time=0
EXTRACT: note_on channel=12 note=40 velocity=70 time=0
EXTRACT: note_off channel=9 note=42 velocity=95 time=0
EXTRACT: note_off channel=9 note=40 velocity=95 time=0
EXTRACT: note_on channel=9 note=42 velocity=95 time=0
EXTRACT: note_off channel=0 note=69 velocity=95 time=0.1666665
EXTRACT: note_off channel=0 note=64 velocity=95 time=0
EXTRACT: note_off channel=0 note=61 velocity=95 time=0
EXTRACT: note_off channel=0 note=57 velocity=95 time=0
EXTRACT: note_off channel=2 note=61 velocity=95 time=0
EXTRACT: note_off channel=12 note=40 velocity=70 time=0
EXTRACT: note_on channel=12 note=33 velocity=95 time=0
EXTRACT: note_off channel=9 note=42 velocity=95 time=0
EXTRACT: note_on channel=9 note=42 velocity=95 time=0
EXTRACT: note_on channel=9 note=36 velocity=95 time=0
EXTRACT: note_on channel=0 note=69 velocity=95 time=0.1666665
EXTRACT: note_on channel=0 note=64 velocity=95 time=0
EXTRACT: note_on channel=0 note=61 velocity=95 time=0
EXTRACT: note_on channel=0 note=57 velocity=95 time=0
EXTRACT: note_off channel=6 note=61 velocity=95 time=0
EXTRACT: note_on channel=6 note=61 velocity=95 time=0
EXTRACT: note_off channel=9 note=42 velocity=95 time=0
EXTRACT: note_off channel=9 note=36 velocity=95 time=0
EXTRACT: note_off channel=0 note=69 velocity=95 time=0.1666665
EXTRACT: note_off channel=0 note=64 velocity=95 time=0
EXTRACT: note_off channel=0 note=61 velocity=95 time=0
EXTRACT: note_off channel=0 note=57 velocity=95 time=0
EXTRACT: note_on channel=9 note=42 velocity=95 time=0
EXTRACT: note_on channel=9 note=40 velocity=95 time=0
EXTRACT: note_on channel=0 note=69 velocity=95 time=0.1666665
EXTRACT: note_on channel=0 note=64 velocity=95 time=0
EXTRACT: note_on channel=0 note=61 velocity=95 time=0
EXTRACT: note_on channel=0 note=57 velocity=95 time=0
EXTRACT: note_off channel=6 note=61 velocity=95 time=0
EXTRACT: note_on channel=6 note=63 velocity=95 time=0
EXTRACT: note_off channel=12 note=33 velocity=95 time=0
EXTRACT: note_on channel=12 note=40 velocity=95 time=0
EXTRACT: note_off channel=9 note=42 velocity=95 time=0
EXTRACT: note_off channel=9 note=40 velocity=95 time=0
EXTRACT: note_on channel=9 note=42 velocity=95 time=0
EXTRACT: note_off channel=0 note=69 velocity=95 time=0.1666665
EXTRACT: note_off channel=0 note=64 velocity=95 time=0
EXTRACT: note_off channel=0 note=61 velocity=95 time=0
EXTRACT: note_off channel=0 note=57 velocity=95 time=0
EXTRACT: note_off channel=9 note=42 velocity=95 time=0
EXTRACT: note_on channel=9 note=42 velocity=95 time=0
EXTRACT: note_on channel=0 note=69 velocity=95 time=0.1666665
EXTRACT: note_on channel=0 note=64 velocity=95 time=0
EXTRACT: note_on channel=0 note=61 velocity=95 time=0
EXTRACT: note_on channel=0 note=57 velocity=95 time=0
EXTRACT: note_off channel=6 note=63 velocity=95 time=0
EXTRACT: note_on channel=6 note=64 velocity=95 time=0
EXTRACT: note_off channel=9 note=42 velocity=95 time=0
EXTRACT: note_on channel=9 note=36 velocity=95 time=0
EXTRACT: note_off channel=0 note=69 velocity=95 time=0.1666665
EXTRACT: note_off channel=0 note=64 velocity=95 time=0
EXTRACT: note_off channel=0 note=61 velocity=95 time=0
EXTRACT: note_off channel=0 note=57 velocity=95 time=0
EXTRACT: note_off channel=12 note=40 velocity=95 time=0
EXTRACT: note_on channel=12 note=37 velocity=95 time=0
EXTRACT: note_off channel=9 note=36 velocity=95 time=0
EXTRACT: note_on channel=9 note=42 velocity=95 time=0
EXTRACT: note_on channel=9 note=40 velocity=95 time=0
EXTRACT: note_on channel=0 note=69 velocity=95 time=0.1666665
EXTRACT: note_on channel=0 note=64 velocity=95 time=0
EXTRACT: note_on channel=0 note=61 velocity=95 time=0
EXTRACT: note_on channel=0 note=57 velocity=95 time=0
EXTRACT: note_off channel=6 note=64 velocity=95 time=0
EXTRACT: note_on channel=6 note=68 velocity=95 time=0
EXTRACT: note_off channel=12 note=37 velocity=95 time=0
EXTRACT: note_on channel=12 note=40 velocity=70 time=0
EXTRACT: note_off channel=9 note=42 velocity=95 time=0
EXTRACT: note_off channel=9 note=40 velocity=95 time=0
EXTRACT: note_on channel=9 note=42 velocity=95 time=0
EXTRACT: note_off channel=14 note=85 velocity=95 time=0.08333325
EXTRACT: note_off channel=14 note=73 velocity=95 time=0
EXTRACT: note_off channel=0 note=69 velocity=95 time=0.08333325
EXTRACT: note_off channel=0 note=64 velocity=95 time=0
EXTRACT: note_off channel=0 note=61 velocity=95 time=0
EXTRACT: note_off channel=0 note=57 velocity=95 time=0
EXTRACT: note_off channel=12 note=40 velocity=70 time=0
EXTRACT: note_on channel=14 note=87 velocity=95 time=0
EXTRACT: note_on channel=14 note=75 velocity=95 time=0
EXTRACT: note_off channel=9 note=42 velocity=95 time=0
EXTRACT: note_on channel=9 note=42 velocity=95 time=0
EXTRACT: note_on channel=9 note=36 velocity=95 time=0
EXTRACT: note_on channel=0 note=71 velocity=95 time=0.1666665
EXTRACT: note_on channel=0 note=66 velocity=95 time=0
EXTRACT: note_on channel=0 note=63 velocity=95 time=0
EXTRACT: note_on channel=0 note=59 velocity=95 time=0
EXTRACT: note_on channel=12 note=35 velocity=95 time=0
EXTRACT: note_off channel=9 note=42 velocity=95 time=0
EXTRACT: note_off channel=9 note=36 velocity=95 time=0
EXTRACT: note_off channel=12 note=35 velocity=95 time=0.08333325
EXTRACT: note_off channel=6 note=68 velocity=95 time=0.0208333125
EXTRACT: note_off channel=0 note=71 velocity=95 time=0.062499937500000005
EXTRACT: note_off channel=0 note=66 velocity=95 time=0
EXTRACT: note_off channel=0 note=63 velocity=95 time=0
EXTRACT: note_off channel=0 note=59 velocity=95 time=0
EXTRACT: note_on channel=6 note=66 velocity=95 time=0
EXTRACT: note_on channel=12 note=35 velocity=95 time=0
EXTRACT: note_on channel=9 note=42 velocity=95 time=0
EXTRACT: note_on channel=9 note=40 velocity=95 time=0
EXTRACT: note_off channel=12 note=35 velocity=95 time=0.08333325
EXTRACT: note_on channel=0 note=71 velocity=95 time=0.08333325
EXTRACT: note_on channel=0 note=66 velocity=95 time=0
EXTRACT: note_on channel=0 note=63 velocity=95 time=0
EXTRACT: note_on channel=0 note=59 velocity=95 time=0
EXTRACT: note_off channel=6 note=66 velocity=95 time=0
EXTRACT: note_on channel=6 note=66 velocity=95 time=0
EXTRACT: note_on channel=12 note=35 velocity=95 time=0
EXTRACT: note_off channel=9 note=42 velocity=95 time=0
EXTRACT: note_off channel=9 note=40 velocity=95 time=0
EXTRACT: note_on channel=9 note=42 velocity=95 time=0
EXTRACT: note_off channel=12 note=35 velocity=95 time=0.08333325
EXTRACT: note_off channel=0 note=71 velocity=95 time=0.08333325
EXTRACT: note_off channel=0 note=66 velocity=95 time=0
EXTRACT: note_off channel=0 note=63 velocity=95 time=0
EXTRACT: note_off channel=0 note=59 velocity=95 time=0
EXTRACT: note_on channel=12 note=35 velocity=95 time=0
EXTRACT: note_off channel=9 note=42 velocity=95 time=0
EXTRACT: note_on channel=9 note=42 velocity=95 time=0
EXTRACT: note_on channel=9 note=36 velocity=95 time=0
EXTRACT: note_off channel=12 note=35 velocity=95 time=0.08333325
EXTRACT: note_on channel=0 note=71 velocity=95 time=0.08333325
EXTRACT: note_on channel=0 note=66 velocity=95 time=0
EXTRACT: note_on channel=0 note=63 velocity=95 time=0
EXTRACT: note_on channel=0 note=59 velocity=95 time=0
EXTRACT: note_off channel=6 note=66 velocity=95 time=0
EXTRACT: note_on channel=6 note=64 velocity=95 time=0
EXTRACT: note_on channel=12 note=35 velocity=95 time=0
EXTRACT: note_off channel=9 note=42 velocity=95 time=0
EXTRACT: note_off channel=9 note=36 velocity=95 time=0
EXTRACT: note_off channel=12 note=35 velocity=95 time=0.08333325
EXTRACT: note_off channel=0 note=71 velocity=95 time=0.08333325
EXTRACT: note_off channel=0 note=66 velocity=95 time=0
EXTRACT: note_off channel=0 note=63 velocity=95 time=0
EXTRACT: note_off channel=0 note=59 velocity=95 time=0
EXTRACT: note_on channel=12 note=35 velocity=95 time=0
EXTRACT: note_on channel=9 note=42 velocity=95 time=0
EXTRACT: note_on channel=9 note=40 velocity=95 time=0
EXTRACT: note_off channel=12 note=35 velocity=95 time=0.08333325
EXTRACT: note_on channel=0 note=71 velocity=95 time=0.08333325
EXTRACT: note_on channel=0 note=66 velocity=95 time=0
EXTRACT: note_on channel=0 note=63 velocity=95 time=0
EXTRACT: note_on channel=0 note=59 velocity=95 time=0
EXTRACT: note_off channel=6 note=64 velocity=95 time=0
EXTRACT: note_on channel=6 note=66 velocity=95 time=0
EXTRACT: note_on channel=12 note=35 velocity=95 time=0
EXTRACT: note_off channel=9 note=42 velocity=95 time=0
EXTRACT: note_off channel=9 note=40 velocity=95 time=0
EXTRACT: note_on channel=9 note=42 velocity=95 time=0
EXTRACT: note_off channel=12 note=35 velocity=95 time=0.08333325
EXTRACT: note_off channel=0 note=71 velocity=95 time=0.08333325
EXTRACT: note_off channel=0 note=66 velocity=95 time=0
EXTRACT: note_off channel=0 note=63 velocity=95 time=0
EXTRACT: note_off channel=0 note=59 velocity=95 time=0
EXTRACT: note_off channel=9 note=42 velocity=95 time=0
EXTRACT: note_on channel=9 note=42 velocity=95 time=0
EXTRACT: note_on channel=9 note=36 velocity=95 time=0
EXTRACT: note_on channel=0 note=71 velocity=95 time=0.1666665
EXTRACT: note_on channel=0 note=66 velocity=95 time=0
EXTRACT: note_on channel=0 note=63 velocity=95 time=0
EXTRACT: note_on channel=0 note=59 velocity=95 time=0
EXTRACT: note_on channel=12 note=35 velocity=95 time=0
EXTRACT: note_off channel=9 note=42 velocity=95 time=0
EXTRACT: note_off channel=9 note=36 velocity=95 time=0
EXTRACT: note_off channel=12 note=35 velocity=95 time=0.08333325
EXTRACT: note_off channel=0 note=71 velocity=95 time=0.08333325
EXTRACT: note_off channel=0 note=66 velocity=95 time=0
EXTRACT: note_off channel=0 note=63 velocity=95 time=0
EXTRACT: note_off channel=0 note=59 velocity=95 time=0
EXTRACT: note_on channel=12 note=35 velocity=95 time=0
EXTRACT: note_on channel=9 note=42 velocity=95 time=0
EXTRACT: note_on channel=9 note=40 velocity=95 time=0
EXTRACT: note_off channel=12 note=35 velocity=95 time=0.08333325
EXTRACT: note_on channel=0 note=71 velocity=95 time=0.08333325
EXTRACT: note_on channel=0 note=66 velocity=95 time=0
EXTRACT: note_on channel=0 note=63 velocity=95 time=0
EXTRACT: note_on channel=0 note=59 velocity=95 time=0
EXTRACT: note_on channel=12 note=35 velocity=95 time=0
EXTRACT: note_off channel=9 note=42 velocity=95 time=0
EXTRACT: note_off channel=9 note=40 velocity=95 time=0
EXTRACT: note_on channel=9 note=42 velocity=95 time=0
EXTRACT: note_off channel=12 note=35 velocity=95 time=0.08333325
EXTRACT: note_off channel=0 note=71 velocity=95 time=0.08333325
EXTRACT: note_off channel=0 note=66 velocity=95 time=0
EXTRACT: note_off channel=0 note=63 velocity=95 time=0
EXTRACT: note_off channel=0 note=59 velocity=95 time=0
EXTRACT: note_on channel=12 note=35 velocity=95 time=0
EXTRACT: note_off channel=9 note=42 velocity=95 time=0
EXTRACT: note_on channel=9 note=42 velocity=95 time=0
EXTRACT: note_off channel=6 note=66 velocity=95 time=0.08333325
EXTRACT: note_off channel=12 note=35 velocity=95 time=0
EXTRACT: note_on channel=0 note=71 velocity=95 time=0.08333325
EXTRACT: note_on channel=0 note=66 velocity=95 time=0
EXTRACT: note_on channel=0 note=63 velocity=95 time=0
EXTRACT: note_on channel=0 note=59 velocity=95 time=0
EXTRACT: note_on channel=6 note=64 velocity=95 time=0
EXTRACT: note_on channel=12 note=35 velocity=95 time=0
EXTRACT: note_off channel=9 note=42 velocity=95 time=0
EXTRACT: note_on channel=9 note=36 velocity=95 time=0
EXTRACT: note_off channel=12 note=35 velocity=95 time=0.08333325
EXTRACT: note_off channel=0 note=71 velocity=95 time=0.08333325
EXTRACT: note_off channel=0 note=66 velocity=95 time=0
EXTRACT: note_off channel=0 note=63 velocity=95 time=0
EXTRACT: note_off channel=0 note=59 velocity=95 time=0
EXTRACT: note_off channel=6 note=64 velocity=95 time=0
EXTRACT: note_on channel=6 note=66 velocity=95 time=0
EXTRACT: note_on channel=12 note=35 velocity=95 time=0
EXTRACT: note_off channel=9 note=36 velocity=95 time=0
EXTRACT: note_on channel=9 note=42 velocity=95 time=0
EXTRACT: note_on channel=9 note=40 velocity=95 time=0
EXTRACT: note_off channel=12 note=35 velocity=95 time=0.08333325
EXTRACT: note_on channel=0 note=71 velocity=95 time=0.08333325
EXTRACT: note_on channel=0 note=66 velocity=95 time=0
EXTRACT: note_on channel=0 note=63 velocity=95 time=0
EXTRACT: note_on channel=0 note=59 velocity=95 time=0
EXTRACT: note_off channel=6 note=66 velocity=95 time=0
EXTRACT: note_on channel=6 note=68 velocity=95 time=0
EXTRACT: note_on channel=12 note=35 velocity=95 time=0
EXTRACT: note_off channel=9 note=42 velocity=95 time=0
EXTRACT: note_off channel=9 note=40 velocity=95 time=0
EXTRACT: note_on channel=9 note=42 velocity=95 time=0
EXTRACT: note_off channel=12 note=35 velocity=95 time=0.08333325
EXTRACT: note_off channel=14 note=87 velocity=95 time=0
EXTRACT: note_off channel=14 note=75 velocity=95 time=0
EXTRACT: note_off channel=0 note=71 velocity=95 time=0.08333325
EXTRACT: note_off channel=0 note=66 velocity=95 time=0
EXTRACT: note_off channel=0 note=63 velocity=95 time=0
EXTRACT: note_off channel=0 note=59 velocity=95 time=0
EXTRACT: note_off channel=9 note=42 velocity=95 time=0
EXTRACT: note_on channel=9 note=42 velocity=95 time=0
EXTRACT: note_on channel=9 note=36 velocity=95 time=0
EXTRACT: note_on channel=0 note=68 velocity=95 time=0.1666665
EXTRACT: note_on channel=0 note=63 velocity=95 time=0
EXTRACT: note_on channel=0 note=61 velocity=95 time=0
EXTRACT: note_on channel=0 note=56 velocity=95 time=0
EXTRACT: note_on channel=2 note=37 velocity=95 time=0
EXTRACT: note_off channel=6 note=68 velocity=95 time=0
EXTRACT: note_on channel=6 note=66 velocity=95 time=0
EXTRACT: note_on channel=12 note=32 velocity=95 time=0
EXTRACT: note_on channel=14 note=80 velocity=95 time=0
EXTRACT: note_off channel=9 note=42 velocity=95 time=0
EXTRACT: note_off channel=9 note=36 velocity=95 time=0
EXTRACT: note_off channel=12 note=32 velocity=95 time=0.08333325
EXTRACT: note_off channel=0 note=68 velocity=95 time=0.08333325
EXTRACT: note_off channel=0 note=63 velocity=95 time=0
EXTRACT: note_off channel=0 note=61 velocity=95 time=0
EXTRACT: note_off channel=0 note=56 velocity=95 time=0
EXTRACT: note_on channel=0 note=68 velocity=95 time=0
EXTRACT: note_on channel=0 note=63 velocity=95 time=0
EXTRACT: note_on channel=0 note=61 velocity=95 time=0
EXTRACT: note_on channel=0 note=56 velocity=95 time=0
EXTRACT: note_off channel=2 note=37 velocity=95 time=0
EXTRACT: note_on channel=2 note=40 velocity=95 time=0
EXTRACT: note_on channel=12 note=32 velocity=95 time=0
EXTRACT: note_off channel=14 note=80 velocity=95 time=0
EXTRACT: note_on channel=14 note=80 velocity=95 time=0
EXTRACT: note_on channel=9 note=42 velocity=95 time=0
EXTRACT: note_on channel=9 note=40 velocity=95 time=0
EXTRACT: note_off channel=12 note=32 velocity=95 time=0.08333325
EXTRACT: note_off channel=0 note=68 velocity=95 time=0.08333325
EXTRACT: note_off channel=0 note=63 velocity=95 time=0
EXTRACT: note_off channel=0 note=61 velocity=95 time=0
EXTRACT: note_off channel=0 note=56 velocity=95 time=0
EXTRACT: note_off channel=2 note=40 velocity=95 time=0
EXTRACT: note_on channel=2 note=37 velocity=95 time=0
EXTRACT: note_off channel=6 note=66 velocity=95 time=0
EXTRACT: note_on channel=6 note=66 velocity=95 time=0
EXTRACT: note_on channel=12 note=32 velocity=95 time=0
EXTRACT: note_off channel=14 note=80 velocity=95 time=0
EXTRACT: note_off channel=9 note=42 velocity=95 time=0
EXTRACT: note_off channel=9 note=40 velocity=95 time=0
EXTRACT: note_on channel=9 note=42 velocity=95 time=0
EXTRACT: note_off channel=12 note=32 velocity=95 time=0.08333325
EXTRACT: note_on channel=0 note=68 velocity=95 time=0.08333325
EXTRACT: note_on channel=0 note=63 velocity=95 time=0
EXTRACT: note_on channel=0 note=61 velocity=95 time=0
EXTRACT: note_on channel=0 note=56 velocity=95 time=0
EXTRACT: note_off channel=2 note=37 velocity=95 time=0
EXTRACT: note_on channel=2 note=42 velocity=95 time=0
EXTRACT: note_on channel=12 note=32 velocity=95 time=0
EXTRACT: note_on channel=14 note=80 velocity=95 time=0
EXTRACT: note_off channel=9 note=42 velocity=95 time=0
EXTRACT: note_on channel=9 note=42 velocity=95 time=0
EXTRACT: note_on channel=9 note=36 velocity=95 time=0
EXTRACT: note_off channel=12 note=32 velocity=95 time=0.08333325
EXTRACT: note_off channel=0 note=68 velocity=95 time=0.08333325
EXTRACT: note_off channel=0 note=63 velocity=95 time=0
EXTRACT: note_off channel=0 note=61 velocity=95 time=0
EXTRACT: note_off channel=0 note=56 velocity=95 time=0
EXTRACT: note_off channel=2 note=42 velocity=95 time=0
EXTRACT: note_on channel=2 note=40 velocity=95 time=0
EXTRACT: note_off channel=6 note=66 velocity=95 time=0
EXTRACT: note_on channel=6 note=64 velocity=95 time=0
EXTRACT: note_on channel=12 note=32 velocity=95 time=0
EXTRACT: note_off channel=14 note=80 velocity=95 time=0
EXTRACT: note_off channel=9 note=42 velocity=95 time=0
EXTRACT: note_off channel=9 note=36 velocity=95 time=0
EXTRACT: note_off channel=12 note=32 velocity=95 time=0.08333325
EXTRACT: note_off channel=2 note=40 velocity=95 time=0.08333325
EXTRACT: note_on channel=2 note=37 velocity=95 time=0
EXTRACT: note_on channel=12 note=32 velocity=95 time=0
EXTRACT: note_on channel=9 note=42 velocity=95 time=0
EXTRACT: note_on channel=9 note=40 velocity=95 time=0
EXTRACT: note_off channel=12 note=32 velocity=95 time=0.08333325
EXTRACT: note_on channel=0 note=68 velocity=95 time=0.08333325
EXTRACT: note_on channel=0 note=63 velocity=95 time=0
EXTRACT: note_on channel=0 note=61 velocity=95 time=0
EXTRACT: note_on channel=0 note=56 velocity=95 time=0
EXTRACT: note_off channel=2 note=37 velocity=95 time=0
EXTRACT: note_on channel=2 note=37 velocity=95 time=0
EXTRACT: note_off channel=6 note=64 velocity=95 time=0
EXTRACT: note_on channel=6 note=68 velocity=95 time=0
EXTRACT: note_on channel=12 note=32 velocity=95 time=0
EXTRACT: note_on channel=14 note=80 velocity=95 time=0
EXTRACT: note_off channel=9 note=42 velocity=95 time=0
EXTRACT: note_off channel=9 note=40 velocity=95 time=0
EXTRACT: note_on channel=9 note=42 velocity=95 time=0
EXTRACT: note_off channel=12 note=32 velocity=95 time=0.08333325
EXTRACT: note_off channel=0 note=68 velocity=95 time=0.08333325
EXTRACT: note_off channel=0 note=63 velocity=95 time=0
EXTRACT: note_off channel=0 note=61 velocity=95 time=0
EXTRACT: note_off channel=0 note=56 velocity=95 time=0
EXTRACT: note_off channel=2 note=37 velocity=95 time=0
EXTRACT: note_on channel=3 note=52 velocity=95 time=0
EXTRACT: note_on channel=12 note=32 velocity=95 time=0
EXTRACT: note_off channel=14 note=80 velocity=95 time=0
EXTRACT: note_off channel=9 note=42 velocity=95 time=0
EXTRACT: note_on channel=9 note=42 velocity=95 time=0
EXTRACT: note_on channel=9 note=36 velocity=95 time=0
EXTRACT: pitchwheel channel=3 pitch=0 time=0.041666625
EXTRACT: pitchwheel channel=3 pitch=0 time=0.041666625
EXTRACT: note_off channel=6 note=68 velocity=95 time=0.0208333125
EXTRACT: pitchwheel channel=3 pitch=0 time=0.0208333125
EXTRACT: pitchwheel channel=3 pitch=0 time=0.041666625
EXTRACT: note_on channel=14 note=80 velocity=95 time=0
EXTRACT: note_off channel=9 note=42 velocity=95 time=0
EXTRACT: note_off channel=9 note=36 velocity=95 time=0
EXTRACT: pitchwheel channel=3 pitch=0 time=0.041666625
EXTRACT: pitchwheel channel=3 pitch=0 time=0.041666625
EXTRACT: pitchwheel channel=3 pitch=0 time=0.041666625
EXTRACT: note_on channel=0 note=68 velocity=95 time=0.041666625
EXTRACT: note_on channel=0 note=63 velocity=95 time=0
EXTRACT: note_on channel=0 note=61 velocity=95 time=0
EXTRACT: note_on channel=0 note=56 velocity=95 time=0
EXTRACT: pitchwheel channel=3 pitch=0 time=0
EXTRACT: note_on channel=6 note=68 velocity=95 time=0
EXTRACT: note_off channel=14 note=80 velocity=95 time=0
EXTRACT: note_on channel=9 note=42 velocity=95 time=0
EXTRACT: note_on channel=9 note=40 velocity=95 time=0
EXTRACT: pitchwheel channel=3 pitch=0 time=0.041666625
EXTRACT: pitchwheel channel=3 pitch=0 time=0.041666625
EXTRACT: pitchwheel channel=3 pitch=0 time=0.041666625
EXTRACT: note_off channel=0 note=68 velocity=95 time=0.041666625
EXTRACT: note_off channel=0 note=63 velocity=95 time=0
EXTRACT: note_off channel=0 note=61 velocity=95 time=0
EXTRACT: note_off channel=0 note=56 velocity=95 time=0
EXTRACT: pitchwheel channel=3 pitch=0 time=0
EXTRACT: note_off channel=6 note=68 velocity=95 time=0
EXTRACT: note_on channel=6 note=68 velocity=95 time=0
EXTRACT: note_off channel=12 note=32 velocity=95 time=0
EXTRACT: note_off channel=9 note=42 velocity=95 time=0
EXTRACT: note_off channel=9 note=40 velocity=95 time=0
EXTRACT: note_on channel=9 note=42 velocity=95 time=0
EXTRACT: pitchwheel channel=3 pitch=0 time=0.041666625
EXTRACT: pitchwheel channel=3 pitch=0 time=0.041666625
EXTRACT: pitchwheel channel=3 pitch=0 time=0.041666625
EXTRACT: pitchwheel channel=3 pitch=0 time=0.041666625
EXTRACT: note_on channel=14 note=80 velocity=95 time=0
EXTRACT: note_off channel=9 note=42 velocity=95 time=0
EXTRACT: note_on channel=9 note=42 velocity=95 time=0
EXTRACT: pitchwheel channel=3 pitch=0 time=0.041666625
EXTRACT: pitchwheel channel=3 pitch=0 time=0.041666625
EXTRACT: pitchwheel channel=3 pitch=0 time=0.041666625
EXTRACT: pitchwheel channel=3 pitch=0 time=0.041666625
EXTRACT: note_off channel=14 note=80 velocity=95 time=0
EXTRACT: note_off channel=9 note=42 velocity=95 time=0
EXTRACT: note_on channel=9 note=36 velocity=95 time=0
EXTRACT: pitchwheel channel=3 pitch=0 time=0.041666625
EXTRACT: pitchwheel channel=3 pitch=0 time=0.041666625
EXTRACT: note_off channel=6 note=68 velocity=95 time=0.0208333125
EXTRACT: pitchwheel channel=3 pitch=0 time=0.0208333125
EXTRACT: pitchwheel channel=3 pitch=0 time=0.041666625
EXTRACT: note_on channel=14 note=80 velocity=95 time=0
EXTRACT: note_off channel=9 note=36 velocity=95 time=0
EXTRACT: note_on channel=9 note=42 velocity=95 time=0
EXTRACT: note_on channel=9 note=40 velocity=95 time=0
EXTRACT: pitchwheel channel=3 pitch=0 time=0.041666625
EXTRACT: pitchwheel channel=3 pitch=0 time=0.041666625
EXTRACT: pitchwheel channel=3 pitch=0 time=0.041666625
EXTRACT: pitchwheel channel=3 pitch=0 time=0.041666625
EXTRACT: note_off channel=14 note=80 velocity=95 time=0
EXTRACT: note_off channel=9 note=42 velocity=95 time=0
EXTRACT: note_off channel=9 note=40 velocity=95 time=0
EXTRACT: note_on channel=9 note=42 velocity=95 time=0
EXTRACT: pitchwheel channel=3 pitch=0 time=0.041666625
EXTRACT: pitchwheel channel=3 pitch=0 time=0.041666625
EXTRACT: pitchwheel channel=3 pitch=0 time=0.041666625
EXTRACT: pitchwheel channel=3 pitch=0 time=0.041666625
EXTRACT: pitchwheel channel=3 pitch=0 time=0
EXTRACT: note_on channel=4 note=64 velocity=95 time=0
EXTRACT: note_on channel=4 note=61 velocity=95 time=0
EXTRACT: note_on channel=4 note=56 velocity=95 time=0
EXTRACT: note_on channel=4 note=49 velocity=95 time=0
EXTRACT: note_on channel=6 note=68 velocity=95 time=0
EXTRACT: note_on channel=6 note=64 velocity=95 time=0
EXTRACT: note_on channel=12 note=37 velocity=95 time=0
EXTRACT: note_off channel=9 note=42 velocity=95 time=0
EXTRACT: note_on channel=9 note=42 velocity=95 time=0
EXTRACT: note_on channel=9 note=36 velocity=95 time=0
EXTRACT: note_on channel=0 note=73 velocity=95 time=0.1666665
EXTRACT: note_on channel=0 note=68 velocity=95 time=0
EXTRACT: note_on channel=0 note=64 velocity=95 time=0
EXTRACT: note_on channel=0 note=61 velocity=95 time=0
EXTRACT: note_off channel=4 note=64 velocity=95 time=0
EXTRACT: note_off channel=4 note=61 velocity=95 time=0
EXTRACT: note_off channel=4 note=56 velocity=95 time=0
EXTRACT: note_off channel=4 note=49 velocity=95 time=0
EXTRACT: note_on channel=4 note=56 velocity=95 time=0
EXTRACT: note_on channel=4 note=52 velocity=95 time=0
EXTRACT: note_on channel=4 note=47 velocity=95 time=0
EXTRACT: note_off channel=9 note=42 velocity=95 time=0
EXTRACT: note_off channel=9 note=36 velocity=95 time=0
EXTRACT: note_off channel=4 note=56 velocity=95 time=0.031249968750000003
EXTRACT: note_off channel=4 note=52 velocity=95 time=0
EXTRACT: note_off channel=4 note=47 velocity=95 time=0
EXTRACT: note_off channel=0 note=73 velocity=95 time=0.13541653125
EXTRACT: note_off channel=0 note=68 velocity=95 time=0
EXTRACT: note_off channel=0 note=64 velocity=95 time=0
EXTRACT: note_off channel=0 note=61 velocity=95 time=0
EXTRACT: note_on channel=4 note=56 velocity=95 time=0
EXTRACT: note_on channel=4 note=52 velocity=95 time=0
EXTRACT: note_on channel=4 note=47 velocity=95 time=0
EXTRACT: note_on channel=9 note=42 velocity=95 time=0
EXTRACT: note_on channel=9 note=40 velocity=95 time=0
EXTRACT: note_off channel=4 note=56 velocity=95 time=0.031249968750000003
EXTRACT: note_off channel=4 note=52 velocity=95 time=0
EXTRACT: note_off channel=4 note=47 velocity=95 time=0
EXTRACT: note_off channel=6 note=68 velocity=95 time=0.07291659375000001
EXTRACT: note_off channel=6 note=64 velocity=95 time=0
EXTRACT: note_on channel=0 note=73 velocity=95 time=0.062499937500000005
EXTRACT: note_on channel=0 note=68 velocity=95 time=0
EXTRACT: note_on channel=0 note=64 velocity=95 time=0
EXTRACT: note_on channel=0 note=61 velocity=95 time=0
EXTRACT: note_on channel=4 note=64 velocity=95 time=0
EXTRACT: note_on channel=4 note=61 velocity=95 time=0
EXTRACT: note_on channel=4 note=56 velocity=95 time=0
EXTRACT: note_on channel=4 note=49 velocity=95 time=0
EXTRACT: note_on channel=6 note=68 velocity=95 time=0
EXTRACT: note_on channel=6 note=64 velocity=95 time=0
EXTRACT: note_off channel=12 note=37 velocity=95 time=0
EXTRACT: note_on channel=12 note=32 velocity=95 time=0
EXTRACT: note_off channel=9 note=42 velocity=95 time=0
EXTRACT: note_off channel=9 note=40 velocity=95 time=0
EXTRACT: note_on channel=9 note=42 velocity=95 time=0
EXTRACT: note_off channel=0 note=73 velocity=95 time=0.1666665
EXTRACT: note_off channel=0 note=68 velocity=95 time=0
EXTRACT: note_off channel=0 note=64 velocity=95 time=0
EXTRACT: note_off channel=0 note=61 velocity=95 time=0
EXTRACT: note_off channel=4 note=64 velocity=95 time=0
EXTRACT: note_off channel=4 note=61 velocity=95 time=0
EXTRACT: note_off channel=4 note=56 velocity=95 time=0
EXTRACT: note_off channel=4 note=49 velocity=95 time=0
EXTRACT: note_on channel=4 note=56 velocity=95 time=0
EXTRACT: note_on channel=4 note=52 velocity=95 time=0
EXTRACT: note_on channel=4 note=47 velocity=95 time=0
EXTRACT: note_off channel=9 note=42 velocity=95 time=0
EXTRACT: note_on channel=9 note=42 velocity=95 time=0
EXTRACT: note_on channel=9 note=36 velocity=95 time=0
EXTRACT: note_off channel=4 note=56 velocity=95 time=0.031249968750000003
EXTRACT: note_off channel=4 note=52 velocity=95 time=0
EXTRACT: note_off channel=4 note=47 velocity=95 time=0
EXTRACT: note_on channel=0 note=73 velocity=95 time=0.13541653125
EXTRACT: note_on channel=0 note=68 velocity=95 time=0
EXTRACT: note_on channel=0 note=64 velocity=95 time=0
EXTRACT: note_on channel=0 note=61 velocity=95 time=0
EXTRACT: note_on channel=4 note=56 velocity=95 time=0
EXTRACT: note_on channel=4 note=52 velocity=95 time=0
EXTRACT: note_on channel=4 note=47 velocity=95 time=0
EXTRACT: note_off channel=9 note=42 velocity=95 time=0
EXTRACT: note_off channel=9 note=36 velocity=95 time=0
EXTRACT: note_off channel=4 note=56 velocity=95 time=0.031249968750000003
EXTRACT: note_off channel=4 note=52 velocity=95 time=0
EXTRACT: note_off channel=4 note=47 velocity=95 time=0
EXTRACT: note_off channel=6 note=68 velocity=95 time=0.07291659375000001
EXTRACT: note_off channel=6 note=64 velocity=95 time=0
EXTRACT: note_off channel=0 note=73 velocity=95 time=0.062499937500000005
EXTRACT: note_off channel=0 note=68 velocity=95 time=0
EXTRACT: note_off channel=0 note=64 velocity=95 time=0
EXTRACT: note_off channel=0 note=61 velocity=95 time=0
EXTRACT: note_on channel=4 note=64 velocity=95 time=0
EXTRACT: note_on channel=4 note=61 velocity=95 time=0
EXTRACT: note_on channel=4 note=56 velocity=95 time=0
EXTRACT: note_on channel=4 note=49 velocity=95 time=0
EXTRACT: note_on channel=6 note=68 velocity=95 time=0
EXTRACT: note_on channel=6 note=64 velocity=95 time=0
EXTRACT: note_off channel=12 note=32 velocity=95 time=0
EXTRACT: note_on channel=12 note=35 velocity=95 time=0
EXTRACT: note_on channel=9 note=42 velocity=95 time=0
EXTRACT: note_on channel=9 note=40 velocity=95 time=0
EXTRACT: note_on channel=0 note=73 velocity=95 time=0.1666665
EXTRACT: note_on channel=0 note=68 velocity=95 time=0
EXTRACT: note_on channel=0 note=64 velocity=95 time=0
EXTRACT: note_on channel=0 note=61 velocity=95 time=0
EXTRACT: note_off channel=4 note=64 velocity=95 time=0
EXTRACT: note_off channel=4 note=61 velocity=95 time=0
EXTRACT: note_off channel=4 note=56 velocity=95 time=0
EXTRACT: note_off channel=4 note=49 velocity=95 time=0
EXTRACT: note_on channel=4 note=56 velocity=95 time=0
EXTRACT: note_on channel=4 note=52 velocity=95 time=0
EXTRACT: note_on channel=4 note=47 velocity=95 time=0
EXTRACT: note_off channel=9 note=42 velocity=95 time=0
EXTRACT: note_off channel=9 note=40 velocity=95 time=0
EXTRACT: note_on channel=9 note=42 velocity=95 time=0
EXTRACT: note_off channel=4 note=56 velocity=95 time=0.031249968750000003
EXTRACT: note_off channel=4 note=52 velocity=95 time=0
EXTRACT: note_off channel=4 note=47 velocity=95 time=0
EXTRACT: note_off channel=0 note=73 velocity=95 time=0.13541653125
EXTRACT: note_off channel=0 note=68 velocity=95 time=0
EXTRACT: note_off channel=0 note=64 velocity=95 time=0
EXTRACT: note_off channel=0 note=61 velocity=95 time=0
EXTRACT: note_off channel=3 note=52 velocity=95 time=0
EXTRACT: note_on channel=4 note=56 velocity=95 time=0
EXTRACT: note_on channel=4 note=52 velocity=95 time=0
EXTRACT: note_on channel=4 note=47 velocity=95 time=0
EXTRACT: note_off channel=9 note=42 velocity=95 time=0
EXTRACT: note_on channel=9 note=42 velocity=95 time=0
EXTRACT: note_on channel=9 note=36 velocity=95 time=0
EXTRACT: note_off channel=4 note=56 velocity=95 time=0.031249968750000003
EXTRACT: note_off channel=4 note=52 velocity=95 time=0
EXTRACT: note_off channel=4 note=47 velocity=95 time=0
EXTRACT: note_on channel=0 note=73 velocity=95 time=0.13541653125
EXTRACT: note_on channel=0 note=68 velocity=95 time=0
EXTRACT: note_on channel=0 note=64 velocity=95 time=0
EXTRACT: note_on channel=0 note=61 velocity=95 time=0
EXTRACT: note_on channel=2 note=52 velocity=95 time=0
EXTRACT: note_on channel=4 note=64 velocity=95 time=0
EXTRACT: note_on channel=4 note=61 velocity=95 time=0
EXTRACT: note_on channel=4 note=56 velocity=95 time=0
EXTRACT: note_on channel=4 note=49 velocity=95 time=0
EXTRACT: note_off channel=6 note=68 velocity=95 time=0
EXTRACT: note_off channel=6 note=64 velocity=95 time=0
EXTRACT: note_on channel=6 note=68 velocity=95 time=0
EXTRACT: note_on channel=6 note=64 velocity=95 time=0
EXTRACT: note_off channel=12 note=35 velocity=95 time=0
EXTRACT: note_on channel=12 note=37 velocity=95 time=0
EXTRACT: note_off channel=9 note=42 velocity=95 time=0
EXTRACT: note_off channel=9 note=36 velocity=95 time=0
EXTRACT: note_off channel=0 note=73 velocity=95 time=0.1666665
EXTRACT: note_off channel=0 note=68 velocity=95 time=0
EXTRACT: note_off channel=0 note=64 velocity=95 time=0
EXTRACT: note_off channel=0 note=61 velocity=95 time=0
EXTRACT: note_off channel=4 note=64 velocity=95 time=0
EXTRACT: note_off channel=4 note=61 velocity=95 time=0
EXTRACT: note_off channel=4 note=56 velocity=95 time=0
EXTRACT: note_off channel=4 note=49 velocity=95 time=0
EXTRACT: note_on channel=4 note=64 velocity=95 time=0
EXTRACT: note_on channel=4 note=61 velocity=95 time=0
EXTRACT: note_on channel=4 note=56 velocity=95 time=0
EXTRACT: note_on channel=4 note=49 velocity=95 time=0
EXTRACT: note_on channel=9 note=42 velocity=95 time=0
EXTRACT: note_on channel=9 note=40 velocity=95 time=0
EXTRACT: note_on channel=0 note=73 velocity=95 time=0.1666665
EXTRACT: note_on channel=0 note=68 velocity=95 time=0
EXTRACT: note_on channel=0 note=64 velocity=95 time=0
EXTRACT: note_on channel=0 note=61 velocity=95 time=0
EXTRACT: note_off channel=2 note=52 velocity=95 time=0
EXTRACT: note_on channel=2 note=56 velocity=95 time=0
EXTRACT: note_off channel=4 note=64 velocity=95 time=0
EXTRACT: note_off channel=4 note=61 velocity=95 time=0
EXTRACT: note_off channel=4 note=56 velocity=95 time=0
EXTRACT: note_off channel=4 note=49 velocity=95 time=0
EXTRACT: note_on channel=4 note=64 velocity=95 time=0
EXTRACT: note_on channel=4 note=61 velocity=95 time=0
EXTRACT: note_on channel=4 note=56 velocity=95 time=0
EXTRACT: note_on channel=4 note=49 velocity=95 time=0
EXTRACT: note_off channel=12 note=37 velocity=95 time=0
EXTRACT: note_on channel=12 note=37 velocity=95 time=0
EXTRACT: note_off channel=9 note=42 velocity=95 time=0
EXTRACT: note_off channel=9 note=40 velocity=95 time=0
EXTRACT: note_on channel=9 note=42 velocity=95 time=0
EXTRACT: note_off channel=6 note=68 velocity=95 time=0.1041665625
EXTRACT: note_off channel=6 note=64 velocity=95 time=0
EXTRACT: note_off channel=0 note=73 velocity=95 time=0.062499937500000005
EXTRACT: note_off channel=0 note=68 velocity=95 time=0
EXTRACT: note_off channel=0 note=64 velocity=95 time=0
EXTRACT: note_off channel=0 note=61 velocity=95 time=0
EXTRACT: note_off channel=2 note=56 velocity=95 time=0
EXTRACT: note_on channel=3 note=55 velocity=95 time=0
EXTRACT: note_off channel=4 note=64 velocity=95 time=0
EXTRACT: note_off channel=4 note=61 velocity=95 time=0
EXTRACT: note_off channel=4 note=56 velocity=95 time=0
EXTRACT: note_off channel=4 note=49 velocity=95 time=0
EXTRACT: note_on channel=4 note=64 velocity=95 time=0
EXTRACT: note_on channel=4 note=61 velocity=95 time=0
EXTRACT: note_on channel=4 note=56 velocity=95 time=0
EXTRACT: note_on channel=4 note=49 velocity=95 time=0
EXTRACT: note_on channel=6 note=68 velocity=95 time=0
EXTRACT: note_on channel=6 note=64 velocity=95 time=0
EXTRACT: note_off channel=12 note=37 velocity=95 time=0
EXTRACT: note_on channel=12 note=40 velocity=95 time=0
EXTRACT: note_off channel=9 note=42 velocity=95 time=0
EXTRACT: note_on channel=9 note=42 velocity=95 time=0
EXTRACT: pitchwheel channel=3 pitch=-640 time=0.041666625
EXTRACT: pitchwheel channel=3 pitch=0 time=0
EXTRACT: note_off channel=3 note=55 velocity=95 time=0
EXTRACT: note_on channel=2 note=54 velocity=95 time=0
EXTRACT: note_on channel=0 note=73 velocity=95 time=0.12499987500000001
EXTRACT: note_on channel=0 note=68 velocity=95 time=0
EXTRACT: note_on channel=0 note=64 velocity=95 time=0
EXTRACT: note_on channel=0 note=61 velocity=95 time=0
EXTRACT: note_off channel=2 note=54 velocity=95 time=0
EXTRACT: note_on channel=2 note=52 velocity=70 time=0
EXTRACT: note_off channel=4 note=64 velocity=95 time=0
EXTRACT: note_off channel=4 note=61 velocity=95 time=0
EXTRACT: note_off channel=4 note=56 velocity=95 time=0
EXTRACT: note_off channel=4 note=49 velocity=95 time=0
EXTRACT: note_on channel=4 note=56 velocity=95 time=0
EXTRACT: note_on channel=4 note=52 velocity=95 time=0
EXTRACT: note_on channel=4 note=47 velocity=95 time=0
EXTRACT: note_off channel=12 note=40 velocity=95 time=0
EXTRACT: note_on channel=12 note=39 velocity=95 time=0
EXTRACT: note_off channel=9 note=42 velocity=95 time=0
EXTRACT: note_on channel=9 note=36 velocity=95 time=0
EXTRACT: note_off channel=4 note=56 velocity=95 time=0.031249968750000003
EXTRACT: note_off channel=4 note=52 velocity=95 time=0
EXTRACT: note_off channel=4 note=47 velocity=95 time=0
EXTRACT: note_off channel=0 note=73 velocity=95 time=0.13541653125
EXTRACT: note_off channel=0 note=68 velocity=95 time=0
EXTRACT: note_off channel=0 note=64 velocity=95 time=0
EXTRACT: note_off channel=0 note=61 velocity=95 time=0
EXTRACT: note_off channel=2 note=52 velocity=70 time=0
EXTRACT: note_on channel=3 note=49 velocity=95 time=0
EXTRACT: note_on channel=4 note=56 velocity=95 time=0
EXTRACT: note_on channel=4 note=52 velocity=95 time=0
EXTRACT: note_on channel=4 note=47 velocity=95 time=0
EXTRACT: note_off channel=12 note=39 velocity=95 time=0
EXTRACT: note_on channel=12 note=37 velocity=95 time=0
EXTRACT: note_on channel=14 note=80 velocity=95 time=0
EXTRACT: note_on channel=14 note=73 velocity=95 time=0
EXTRACT: note_off channel=9 note=36 velocity=95 time=0
EXTRACT: note_on channel=9 note=42 velocity=95 time=0
EXTRACT: note_on channel=9 note=40 velocity=95 time=0
EXTRACT: note_off channel=4 note=56 velocity=95 time=0.031249968750000003
EXTRACT: note_off channel=4 note=52 velocity=95 time=0
EXTRACT: note_off channel=4 note=47 velocity=95 time=0
EXTRACT: pitchwheel channel=3 pitch=0 time=0.02430553125
EXTRACT: note_off channel=6 note=68 velocity=95 time=0.0486110625
EXTRACT: note_off channel=6 note=64 velocity=95 time=0
EXTRACT: pitchwheel channel=3 pitch=128 time=0.0069444375
EXTRACT: note_on channel=0 note=73 velocity=95 time=0.0555555
EXTRACT: note_on channel=0 note=68 velocity=95 time=0
EXTRACT: note_on channel=0 note=64 velocity=95 time=0
EXTRACT: note_on channel=0 note=61 velocity=95 time=0
EXTRACT: pitchwheel channel=3 pitch=0 time=0
EXTRACT: note_on channel=4 note=56 velocity=95 time=0
EXTRACT: note_on channel=4 note=52 velocity=95 time=0
EXTRACT: note_on channel=4 note=47 velocity=95 time=0
EXTRACT: note_on channel=6 note=56 velocity=95 time=0
EXTRACT: note_off channel=12 note=37 velocity=95 time=0
EXTRACT: note_on channel=12 note=33 velocity=95 time=0
EXTRACT: note_off channel=14 note=80 velocity=95 time=0
EXTRACT: note_off channel=14 note=73 velocity=95 time=0
EXTRACT: note_off channel=9 note=42 velocity=95 time=0
EXTRACT: note_off channel=9 note=40 velocity=95 time=0
EXTRACT: note_on channel=9 note=42 velocity=95 time=0
EXTRACT: note_off channel=4 note=56 velocity=95 time=0.031249968750000003
EXTRACT: note_off channel=4 note=52 velocity=95 time=0
EXTRACT: note_off channel=4 note=47 velocity=95 time=0
EXTRACT: note_off channel=12 note=33 velocity=95 time=0
EXTRACT: pitchwheel channel=3 pitch=128 time=0.02430553125
EXTRACT: pitchwheel channel=3 pitch=0 time=0.0555555
EXTRACT: note_off channel=0 note=73 velocity=95 time=0.0555555
EXTRACT: note_off channel=0 note=68 velocity=95 time=0
EXTRACT: note_off channel=0 note=64 velocity=95 time=0
EXTRACT: note_off channel=0 note=61 velocity=95 time=0
EXTRACT: pitchwheel channel=3 pitch=128 time=0
EXTRACT: pitchwheel channel=3 pitch=0 time=0
EXTRACT: note_off channel=3 note=49 velocity=95 time=0
EXTRACT: note_on channel=4 note=63 velocity=95 time=0
EXTRACT: note_on channel=4 note=59 velocity=95 time=0
EXTRACT: note_on channel=4 note=54 velocity=95 time=0
EXTRACT: note_on channel=4 note=47 velocity=95 time=0
EXTRACT: note_off channel=6 note=56 velocity=95 time=0
EXTRACT: note_on channel=6 note=63 velocity=95 time=0
EXTRACT: note_on channel=12 note=35 velocity=95 time=0
EXTRACT: note_off channel=9 note=42 velocity=95 time=0
EXTRACT: note_on channel=9 note=42 velocity=95 time=0
EXTRACT: note_on channel=9 note=36 velocity=95 time=0
EXTRACT: note_on channel=0 note=71 velocity=95 time=0.1666665
EXTRACT: note_on channel=0 note=66 velocity=95 time=0
EXTRACT: note_on channel=0 note=63 velocity=95 time=0
EXTRACT: note_on channel=0 note=59 velocity=95 time=0
EXTRACT: note_off channel=4 note=63 velocity=95 time=0
EXTRACT: note_off channel=4 note=59 velocity=95 time=0
EXTRACT: note_off channel=4 note=54 velocity=95 time=0
EXTRACT: note_off channel=4 note=47 velocity=95 time=0
EXTRACT: note_on channel=4 note=56 velocity=95 time=0
EXTRACT: note_on channel=4 note=52 velocity=95 time=0
EXTRACT: note_on channel=4 note=47 velocity=95 time=0
EXTRACT: note_off channel=6 note=63 velocity=95 time=0
EXTRACT: note_on channel=6 note=63 velocity=95 time=0
EXTRACT: note_off channel=9 note=42 velocity=95 time=0
EXTRACT: note_off channel=9 note=36 velocity=95 time=0
EXTRACT: note_off channel=4 note=56 velocity=95 time=0.031249968750000003
EXTRACT: note_off channel=4 note=52 velocity=95 time=0
EXTRACT: note_off channel=4 note=47 velocity=95 time=0
EXTRACT: note_off channel=0 note=71 velocity=95 time=0.13541653125
EXTRACT: note_off channel=0 note=66 velocity=95 time=0
EXTRACT: note_off channel=0 note=63 velocity=95 time=0
EXTRACT: note_off channel=0 note=59 velocity=95 time=0
EXTRACT: note_on channel=4 note=56 velocity=95 time=0
EXTRACT: note_on channel=4 note=52 velocity=95 time=0
EXTRACT: note_on channel=4 note=47 velocity=95 time=0
EXTRACT: note_off channel=6 note=63 velocity=95 time=0
EXTRACT: note_on channel=6 note=63 velocity=95 time=0
EXTRACT: note_off channel=12 note=35 velocity=95 time=0
EXTRACT: note_on channel=9 note=42 velocity=95 time=0
EXTRACT: note_on channel=9 note=40 velocity=95 time=0
EXTRACT: note_off channel=4 note=56 velocity=95 time=0.031249968750000003
EXTRACT: note_off channel=4 note=52 velocity=95 time=0
EXTRACT: note_off channel=4 note=47 velocity=95 time=0
EXTRACT: note_on channel=0 note=71 velocity=95 time=0.13541653125
EXTRACT: note_on channel=0 note=66 velocity=95 time=0
EXTRACT: note_on channel=0 note=63 velocity=95 time=0
EXTRACT: note_on channel=0 note=59 velocity=95 time=0
EXTRACT: note_on channel=4 note=63 velocity=95 time=0
EXTRACT: note_on channel=4 note=59 velocity=95 time=0
EXTRACT: note_on channel=4 note=54 velocity=95 time=0
EXTRACT: note_on channel=4 note=47 velocity=95 time=0
EXTRACT: note_off channel=6 note=63 velocity=95 time=0
EXTRACT: note_on channel=6 note=63 velocity=95 time=0
EXTRACT: note_on channel=12 note=30 velocity=95 time=0
EXTRACT: note_off channel=9 note=42 velocity=95 time=0
EXTRACT: note_off channel=9 note=40 velocity=95 time=0
EXTRACT: note_on channel=9 note=42 velocity=95 time=0
EXTRACT: note_off channel=12 note=30 velocity=95 time=0.08333325
EXTRACT: note_off channel=0 note=71 velocity=95 time=0.08333325
EXTRACT: note_off channel=0 note=66 velocity=95 time=0
EXTRACT: note_off channel=0 note=63 velocity=95 time=0
EXTRACT: note_off channel=0 note=59 velocity=95 time=0
EXTRACT: note_off channel=4 note=63 velocity=95 time=0
EXTRACT: note_off channel=4 note=59 velocity=95 time=0
EXTRACT: note_off channel=4 note=54 velocity=95 time=0
EXTRACT: note_off channel=4 note=47 velocity=95 time=0
EXTRACT: note_on channel=4 note=56 velocity=95 time=0
EXTRACT: note_on channel=4 note=52 velocity=95 time=0
EXTRACT: note_on channel=4 note=47 velocity=95 time=0
EXTRACT: note_on channel=12 note=30 velocity=95 time=0
EXTRACT: note_off channel=9 note=42 velocity=95 time=0
EXTRACT: note_on channel=9 note=42 velocity=95 time=0
EXTRACT: note_on channel=9 note=36 velocity=95 time=0
EXTRACT: note_off channel=4 note=56 velocity=95 time=0.031249968750000003
EXTRACT: note_off channel=4 note=52 velocity=95 time=0
EXTRACT: note_off channel=4 note=47 velocity=95 time=0
EXTRACT: note_on channel=0 note=71 velocity=95 time=0.13541653125
EXTRACT: note_on channel=0 note=66 velocity=95 time=0
EXTRACT: note_on channel=0 note=63 velocity=95 time=0
EXTRACT: note_on channel=0 note=59 velocity=95 time=0
EXTRACT: note_on channel=4 note=56 velocity=95 time=0
EXTRACT: note_on channel=4 note=52 velocity=95 time=0
EXTRACT: note_on channel=4 note=47 velocity=95 time=0
EXTRACT: note_off channel=6 note=63 velocity=95 time=0
EXTRACT: note_on channel=6 note=66 velocity=95 time=0
EXTRACT: note_off channel=9 note=42 velocity=95 time=0
EXTRACT: note_off channel=9 note=36 velocity=95 time=0
EXTRACT: note_off channel=4 note=56 velocity=95 time=0.031249968750000003
EXTRACT: note_off channel=4 note=52 velocity=95 time=0
EXTRACT: note_off channel=4 note=47 velocity=95 time=0
EXTRACT: note_off channel=0 note=71 velocity=95 time=0.13541653125
EXTRACT: note_off channel=0 note=66 velocity=95 time=0
EXTRACT: note_off channel=0 note=63 velocity=95 time=0
EXTRACT: note_off channel=0 note=59 velocity=95 time=0
EXTRACT: note_on channel=4 note=56 velocity=95 time=0
EXTRACT: note_on channel=4 note=52 velocity=95 time=0
EXTRACT: note_on channel=4 note=47 velocity=95 time=0
EXTRACT: note_off channel=12 note=30 velocity=95 time=0
EXTRACT: note_on channel=12 note=33 velocity=95 time=0
EXTRACT: note_on channel=9 note=42 velocity=95 time=0
EXTRACT: note_on channel=9 note=40 velocity=95 time=0
EXTRACT: note_off channel=4 note=56 velocity=95 time=0.031249968750000003
EXTRACT: note_off channel=4 note=52 velocity=95 time=0
EXTRACT: note_off channel=4 note=47 velocity=95 time=0
EXTRACT: note_on channel=0 note=71 velocity=95 time=0.13541653125
EXTRACT: note_on channel=0 note=66 velocity=95 time=0
EXTRACT: note_on channel=0 note=63 velocity=95 time=0
EXTRACT: note_on channel=0 note=59 velocity=95 time=0
EXTRACT: note_on channel=4 note=56 velocity=95 time=0
EXTRACT: note_on channel=4 note=52 velocity=95 time=0
EXTRACT: note_on channel=4 note=47 velocity=95 time=0
EXTRACT: note_off channel=6 note=66 velocity=95 time=0
EXTRACT: note_on channel=6 note=66 velocity=95 time=0
EXTRACT: note_off channel=9 note=42 velocity=95 time=0
EXTRACT: note_off channel=9 note=40 velocity=95 time=0
EXTRACT: note_on channel=9 note=42 velocity=95 time=0
EXTRACT: note_off channel=4 note=56 velocity=95 time=0.031249968750000003
EXTRACT: note_off channel=4 note=52 velocity=95 time=0
EXTRACT: note_off channel=4 note=47 velocity=95 time=0
EXTRACT: note_off channel=0 note=71 velocity=95 time=0.13541653125
EXTRACT: note_off channel=0 note=66 velocity=95 time=0
EXTRACT: note_off channel=0 note=63 velocity=95 time=0
EXTRACT: note_off channel=0 note=59 velocity=95 time=0
EXTRACT: note_on channel=4 note=56 velocity=95 time=0
EXTRACT: note_on channel=4 note=52 velocity=95 time=0
EXTRACT: note_on channel=4 note=47 velocity=95 time=0
EXTRACT: note_off channel=12 note=33 velocity=95 time=0
EXTRACT: note_on channel=12 note=37 velocity=95 time=0
EXTRACT: note_off channel=9 note=42 velocity=95 time=0
EXTRACT: note_on channel=9 note=42 velocity=95 time=0
EXTRACT: note_on channel=9 note=36 velocity=95 time=0
EXTRACT: note_off channel=4 note=56 velocity=95 time=0.031249968750000003
EXTRACT: note_off channel=4 note=52 velocity=95 time=0
EXTRACT: note_off channel=4 note=47 velocity=95 time=0
EXTRACT: note_on channel=0 note=73 velocity=95 time=0.13541653125
EXTRACT: note_on channel=0 note=68 velocity=95 time=0
EXTRACT: note_on channel=0 note=64 velocity=95 time=0
EXTRACT: note_on channel=0 note=61 velocity=95 time=0
EXTRACT: note_on channel=2 note=56 velocity=95 time=0
EXTRACT: note_on channel=4 note=64 velocity=95 time=0
EXTRACT: note_on channel=4 note=61 velocity=95 time=0
EXTRACT: note_on channel=4 note=56 velocity=95 time=0
EXTRACT: note_on channel=4 note=49 velocity=95 time=0
EXTRACT: note_off channel=6 note=66 velocity=95 time=0
EXTRACT: note_on channel=6 note=64 velocity=95 time=0
EXTRACT: note_on channel=14 note=80 velocity=95 time=0
EXTRACT: note_on channel=14 note=73 velocity=95 time=0
EXTRACT: note_off channel=9 note=42 velocity=95 time=0
EXTRACT: note_off channel=9 note=36 velocity=95 time=0
EXTRACT: note_off channel=0 note=73 velocity=95 time=0.1666665
EXTRACT: note_off channel=0 note=68 velocity=95 time=0
EXTRACT: note_off channel=0 note=64 velocity=95 time=0
EXTRACT: note_off channel=0 note=61 velocity=95 time=0
EXTRACT: note_off channel=2 note=56 velocity=95 time=0
EXTRACT: note_on channel=3 note=61 velocity=95 time=0
EXTRACT: note_off channel=4 note=64 velocity=95 time=0
EXTRACT: note_off channel=4 note=61 velocity=95 time=0
EXTRACT: note_off channel=4 note=56 velocity=95 time=0
EXTRACT: note_off channel=4 note=49 velocity=95 time=0
EXTRACT: note_on channel=4 note=64 velocity=95 time=0
EXTRACT: note_on channel=4 note=61 velocity=95 time=0
EXTRACT: note_on channel=4 note=56 velocity=95 time=0
EXTRACT: note_on channel=4 note=49 velocity=95 time=0
EXTRACT: note_on channel=9 note=42 velocity=95 time=0
EXTRACT: note_on channel=9 note=40 velocity=95 time=0
EXTRACT: pitchwheel channel=3 pitch=-128 time=0.041666625
EXTRACT: pitchwheel channel=3 pitch=-256 time=0.041666625
EXTRACT: pitchwheel channel=3 pitch=-512 time=0.041666625
EXTRACT: note_on channel=0 note=73 velocity=95 time=0.041666625
EXTRACT: note_on channel=0 note=68 velocity=95 time=0
EXTRACT: note_on channel=0 note=64 velocity=95 time=0
EXTRACT: note_on channel=0 note=61 velocity=95 time=0
EXTRACT: pitchwheel channel=3 pitch=-640 time=0
EXTRACT: pitchwheel channel=3 pitch=0 time=0
EXTRACT: note_off channel=3 note=61 velocity=95 time=0
EXTRACT: note_on channel=2 note=60 velocity=95 time=0
EXTRACT: note_off channel=4 note=64 velocity=95 time=0
EXTRACT: note_off channel=4 note=61 velocity=95 time=0
EXTRACT: note_off channel=4 note=56 velocity=95 time=0
EXTRACT: note_off channel=4 note=49 velocity=95 time=0
EXTRACT: note_on channel=4 note=64 velocity=95 time=0
EXTRACT: note_on channel=4 note=61 velocity=95 time=0
EXTRACT: note_on channel=4 note=56 velocity=95 time=0
EXTRACT: note_on channel=4 note=49 velocity=95 time=0
EXTRACT: note_off channel=12 note=37 velocity=95 time=0
EXTRACT: note_on channel=12 note=37 velocity=95 time=0
EXTRACT: note_off channel=14 note=80 velocity=95 time=0
EXTRACT: note_off channel=14 note=73 velocity=95 time=0
EXTRACT: note_on channel=14 note=79 velocity=95 time=0
EXTRACT: note_on channel=14 note=72 velocity=95 time=0
EXTRACT: note_off channel=9 note=42 velocity=95 time=0
EXTRACT: note_off channel=9 note=40 velocity=95 time=0
EXTRACT: note_on channel=9 note=42 velocity=95 time=0
EXTRACT: note_off channel=0 note=73 velocity=95 time=0.1666665
EXTRACT: note_off channel=0 note=68 velocity=95 time=0
EXTRACT: note_off channel=0 note=64 velocity=95 time=0
EXTRACT: note_off channel=0 note=61 velocity=95 time=0
EXTRACT: note_off channel=2 note=60 velocity=95 time=0
EXTRACT: note_on channel=3 note=61 velocity=95 time=0
EXTRACT: note_off channel=4 note=64 velocity=95 time=0
EXTRACT: note_off channel=4 note=61 velocity=95 time=0
EXTRACT: note_off channel=4 note=56 velocity=95 time=0
EXTRACT: note_off channel=4 note=49 velocity=95 time=0
EXTRACT: note_on channel=4 note=64 velocity=95 time=0
EXTRACT: note_on channel=4 note=61 velocity=95 time=0
EXTRACT: note_on channel=4 note=56 velocity=95 time=0
EXTRACT: note_on channel=4 note=49 velocity=95 time=0
EXTRACT: note_off channel=12 note=37 velocity=95 time=0
EXTRACT: note_on channel=12 note=32 velocity=95 time=0
EXTRACT: note_off channel=14 note=79 velocity=95 time=0
EXTRACT: note_off channel=14 note=72 velocity=95 time=0
EXTRACT: note_on channel=14 note=80 velocity=95 time=0
EXTRACT: note_on channel=14 note=73 velocity=95 time=0
EXTRACT: note_off channel=9 note=42 velocity=95 time=0
EXTRACT: note_on channel=9 note=42 velocity=95 time=0
EXTRACT: pitchwheel channel=3 pitch=0 time=0.0555555
EXTRACT: pitchwheel channel=3 pitch=128 time=0.0555555
EXTRACT: note_on channel=0 note=73 velocity=95 time=0.0555555
EXTRACT: note_on channel=0 note=68 velocity=95 time=0
EXTRACT: note_on channel=0 note=64 velocity=95 time=0
EXTRACT: note_on channel=0 note=61 velocity=95 time=0
EXTRACT: pitchwheel channel=3 pitch=0 time=0
EXTRACT: note_off channel=4 note=64 velocity=95 time=0
EXTRACT: note_off channel=4 note=61 velocity=95 time=0
EXTRACT: note_off channel=4 note=56 velocity=95 time=0
EXTRACT: note_off channel=4 note=49 velocity=95 time=0
EXTRACT: note_on channel=4 note=64 velocity=95 time=0
EXTRACT: note_on channel=4 note=61 velocity=95 time=0
EXTRACT: note_on channel=4 note=56 velocity=95 time=0
EXTRACT: note_on channel=4 note=49 velocity=95 time=0
EXTRACT: note_off channel=14 note=80 velocity=95 time=0
EXTRACT: note_off channel=14 note=73 velocity=95 time=0
EXTRACT: note_on channel=14 note=79 velocity=95 time=0
EXTRACT: note_on channel=14 note=72 velocity=95 time=0
EXTRACT: note_off channel=9 note=42 velocity=95 time=0
EXTRACT: note_on channel=9 note=36 velocity=95 time=0
EXTRACT: pitchwheel channel=3 pitch=128 time=0.0555555
EXTRACT: note_off channel=6 note=64 velocity=95 time=0.02777775
EXTRACT: pitchwheel channel=3 pitch=0 time=0.02777775
EXTRACT: note_off channel=0 note=73 velocity=95 time=0.0555555
EXTRACT: note_off channel=0 note=68 velocity=95 time=0
EXTRACT: note_off channel=0 note=64 velocity=95 time=0
EXTRACT: note_off channel=0 note=61 velocity=95 time=0
EXTRACT: pitchwheel channel=3 pitch=128 time=0
EXTRACT: pitchwheel channel=3 pitch=0 time=0
EXTRACT: note_off channel=3 note=61 velocity=95 time=0
EXTRACT: note_on channel=3 note=61 velocity=95 time=0
EXTRACT: note_off channel=4 note=64 velocity=95 time=0
EXTRACT: note_off channel=4 note=61 velocity=95 time=0
EXTRACT: note_off channel=4 note=56 velocity=95 time=0
EXTRACT: note_off channel=4 note=49 velocity=95 time=0
EXTRACT: note_on channel=4 note=56 velocity=95 time=0
EXTRACT: note_on channel=4 note=52 velocity=95 time=0
EXTRACT: note_on channel=4 note=47 velocity=95 time=0
EXTRACT: note_on channel=6 note=61 velocity=95 time=0
EXTRACT: note_off channel=12 note=32 velocity=95 time=0
EXTRACT: note_on channel=12 note=35 velocity=95 time=0
EXTRACT: note_off channel=14 note=79 velocity=95 time=0
EXTRACT: note_off channel=14 note=72 velocity=95 time=0
EXTRACT: note_on channel=14 note=80 velocity=95 time=0
EXTRACT: note_on channel=14 note=73 velocity=95 time=0
EXTRACT: note_off channel=9 note=36 velocity=95 time=0
EXTRACT: note_on channel=9 note=42 velocity=95 time=0
EXTRACT: note_on channel=9 note=40 velocity=95 time=0
EXTRACT: note_off channel=4 note=56 velocity=95 time=0.031249968750000003
EXTRACT: note_off channel=4 note=52 velocity=95 time=0
EXTRACT: note_off channel=4 note=47 velocity=95 time=0
EXTRACT: pitchwheel channel=3 pitch=0 time=0.02430553125
EXTRACT: pitchwheel channel=3 pitch=128 time=0.0555555
EXTRACT: note_on channel=0 note=73 velocity=95 time=0.0555555
EXTRACT: note_on channel=0 note=68 velocity=95 time=0
EXTRACT: note_on channel=0 note=64 velocity=95 time=0
EXTRACT: note_on channel=0 note=61 velocity=95 time=0
EXTRACT: pitchwheel channel=3 pitch=0 time=0
EXTRACT: note_on channel=4 note=56 velocity=95 time=0
EXTRACT: note_on channel=4 note=52 velocity=95 time=0
EXTRACT: note_on channel=4 note=47 velocity=95 time=0
EXTRACT: note_off channel=12 note=35 velocity=95 time=0
EXTRACT: note_on channel=12 note=35 velocity=95 time=0
EXTRACT: note_off channel=14 note=80 velocity=95 time=0
EXTRACT: note_off channel=14 note=73 velocity=95 time=0
EXTRACT: note_on channel=14 note=79 velocity=95 time=0
EXTRACT: note_on channel=14 note=72 velocity=95 time=0
EXTRACT: note_off channel=9 note=42 velocity=95 time=0
EXTRACT: note_off channel=9 note=40 velocity=95 time=0
EXTRACT: note_on channel=9 note=42 velocity=95 time=0
EXTRACT: note_off channel=4 note=56 velocity=95 time=0.031249968750000003
EXTRACT: note_off channel=4 note=52 velocity=95 time=0
EXTRACT: note_off channel=4 note=47 velocity=95 time=0
EXTRACT: pitchwheel channel=3 pitch=128 time=0.02430553125
EXTRACT: note_off channel=6 note=61 velocity=95 time=0.0486110625
EXTRACT: pitchwheel channel=3 pitch=0 time=0.0069444375
EXTRACT: note_off channel=0 note=73 velocity=95 time=0.0555555
EXTRACT: note_off channel=0 note=68 velocity=95 time=0
EXTRACT: note_off channel=0 note=64 velocity=95 time=0
EXTRACT: note_off channel=0 note=61 velocity=95 time=0
EXTRACT: pitchwheel channel=3 pitch=128 time=0
EXTRACT: pitchwheel channel=3 pitch=0 time=0
EXTRACT: note_off channel=3 note=61 velocity=95 time=0
EXTRACT: note_on channel=4 note=64 velocity=95 time=0
EXTRACT: note_on channel=4 note=61 velocity=95 time=0
EXTRACT: note_on channel=4 note=56 velocity=95 time=0
EXTRACT: note_on channel=4 note=49 velocity=95 time=0
EXTRACT: note_on channel=6 note=68 velocity=95 time=0
EXTRACT: note_on channel=6 note=64 velocity=95 time=0
EXTRACT: note_off channel=12 note=35 velocity=95 time=0
EXTRACT: note_on channel=12 note=37 velocity=95 time=0
EXTRACT: note_off channel=14 note=79 velocity=95 time=0
EXTRACT: note_off channel=14 note=72 velocity=95 time=0
EXTRACT: note_on channel=14 note=80 velocity=95 time=0
EXTRACT: note_on channel=14 note=73 velocity=95 time=0
EXTRACT: note_off channel=9 note=42 velocity=95 time=0
EXTRACT: note_on channel=9 note=42 velocity=95 time=0
EXTRACT: note_on channel=9 note=36 velocity=95 time=0
EXTRACT: note_on channel=0 note=73 velocity=95 time=0.1666665
EXTRACT: note_on channel=0 note=68 velocity=95 time=0
EXTRACT: note_on channel=0 note=64 velocity=95 time=0
EXTRACT: note_on channel=0 note=61 velocity=95 time=0
EXTRACT: note_off channel=4 note=64 velocity=95 time=0
EXTRACT: note_off channel=4 note=61 velocity=95 time=0
EXTRACT: note_off channel=4 note=56 velocity=95 time=0
EXTRACT: note_off channel=4 note=49 velocity=95 time=0
EXTRACT: note_on channel=4 note=56 velocity=95 time=0
EXTRACT: note_on channel=4 note=52 velocity=95 time=0
EXTRACT: note_on channel=4 note=47 velocity=95 time=0
EXTRACT: note_off channel=14 note=80 velocity=95 time=0
EXTRACT: note_off channel=14 note=73 velocity=95 time=0
EXTRACT: note_off channel=9 note=42 velocity=95 time=0
EXTRACT: note_off channel=9 note=36 velocity=95 time=0
EXTRACT: note_off channel=4 note=56 velocity=95 time=0.031249968750000003
EXTRACT: note_off channel=4 note=52 velocity=95 time=0
EXTRACT: note_off channel=4 note=47 velocity=95 time=0
EXTRACT: note_off channel=0 note=73 velocity=95 time=0.13541653125
EXTRACT: note_off channel=0 note=68 velocity=95 time=0
EXTRACT: note_off channel=0 note=64 velocity=95 time=0
EXTRACT: note_off channel=0 note=61 velocity=95 time=0
EXTRACT: note_on channel=4 note=56 velocity=95 time=0
EXTRACT: note_on channel=4 note=52 velocity=95 time=0
EXTRACT: note_on channel=4 note=47 velocity=95 time=0
EXTRACT: note_on channel=9 note=42 velocity=95 time=0
EXTRACT: note_on channel=9 note=40 velocity=95 time=0
EXTRACT: note_off channel=4 note=56 velocity=95 time=0.031249968750000003
EXTRACT: note_off channel=4 note=52 velocity=95 time=0
EXTRACT: note_off channel=4 note=47 velocity=95 time=0
EXTRACT: note_off channel=6 note=68 velocity=95 time=0.07291659375000001
EXTRACT: note_off channel=6 note=64 velocity=95 time=0
EXTRACT: note_on channel=0 note=73 velocity=95 time=0.062499937500000005
EXTRACT: note_on channel=0 note=68 velocity=95 time=0
EXTRACT: note_on channel=0 note=64 velocity=95 time=0
EXTRACT: note_on channel=0 note=61 velocity=95 time=0
EXTRACT: note_on channel=4 note=64 velocity=95 time=0
EXTRACT: note_on channel=4 note=61 velocity=95 time=0
EXTRACT: note_on channel=4 note=56 velocity=95 time=0
EXTRACT: note_on channel=4 note=49 velocity=95 time=0
EXTRACT: note_on channel=6 note=68 velocity=95 time=0
EXTRACT: note_on channel=6 note=64 velocity=95 time=0
EXTRACT: note_off channel=12 note=37 velocity=95 time=0
EXTRACT: note_on channel=12 note=32 velocity=95 time=0
EXTRACT: note_off channel=9 note=42 velocity=95 time=0
EXTRACT: note_off channel=9 note=40 velocity=95 time=0
EXTRACT: note_on channel=9 note=42 velocity=95 time=0
EXTRACT: note_off channel=0 note=73 velocity=95 time=0.1666665
EXTRACT: note_off channel=0 note=68 velocity=95 time=0
EXTRACT: note_off channel=0 note=64 velocity=95 time=0
EXTRACT: note_off channel=0 note=61 velocity=95 time=0
EXTRACT: note_off channel=4 note=64 velocity=95 time=0
EXTRACT: note_off channel=4 note=61 velocity=95 time=0
EXTRACT: note_off channel=4 note=56 velocity=95 time=0
EXTRACT: note_off channel=4 note=49 velocity=95 time=0
EXTRACT: note_on channel=4 note=56 velocity=95 time=0
EXTRACT: note_on channel=4 note=52 velocity=95 time=0
EXTRACT: note_on channel=4 note=47 velocity=95 time=0
EXTRACT: note_off channel=9 note=42 velocity=95 time=0
EXTRACT: note_on channel=9 note=42 velocity=95 time=0
EXTRACT: note_on channel=9 note=36 velocity=95 time=0
EXTRACT: note_off channel=4 note=56 velocity=95 time=0.031249968750000003
EXTRACT: note_off channel=4 note=52 velocity=95 time=0
EXTRACT: note_off channel=4 note=47 velocity=95 time=0
EXTRACT: note_on channel=0 note=73 velocity=95 time=0.13541653125
EXTRACT: note_on channel=0 note=68 velocity=95 time=0
EXTRACT: note_on channel=0 note=64 velocity=95 time=0
EXTRACT: note_on channel=0 note=61 velocity=95 time=0
EXTRACT: note_on channel=4 note=56 velocity=95 time=0
EXTRACT: note_on channel=4 note=52 velocity=95 time=0
EXTRACT: note_on channel=4 note=47 velocity=95 time=0
EXTRACT: note_off channel=9 note=42 velocity=95 time=0
EXTRACT: note_off channel=9 note=36 velocity=95 time=0
EXTRACT: note_off channel=4 note=56 velocity=95 time=0.031249968750000003
EXTRACT: note_off channel=4 note=52 velocity=95 time=0
EXTRACT: note_off channel=4 note=47 velocity=95 time=0
EXTRACT: note_off channel=6 note=68 velocity=95 time=0.07291659375000001
EXTRACT: note_off channel=6 note=64 velocity=95 time=0
EXTRACT: note_off channel=0 note=73 velocity=95 time=0.062499937500000005
EXTRACT: note_off channel=0 note=68 velocity=95 time=0
EXTRACT: note_off channel=0 note=64 velocity=95 time=0
EXTRACT: note_off channel=0 note=61 velocity=95 time=0
EXTRACT: note_on channel=4 note=64 velocity=95 time=0
EXTRACT: note_on channel=4 note=61 velocity=95 time=0
EXTRACT: note_on channel=4 note=56 velocity=95 time=0
EXTRACT: note_on channel=4 note=49 velocity=95 time=0
EXTRACT: note_on channel=6 note=68 velocity=95 time=0
EXTRACT: note_on channel=6 note=64 velocity=95 time=0
EXTRACT: note_off channel=12 note=32 velocity=95 time=0
EXTRACT: note_on channel=12 note=35 velocity=95 time=0
EXTRACT: note_on channel=9 note=42 velocity=95 time=0
EXTRACT: note_on channel=9 note=40 velocity=95 time=0
EXTRACT: note_on channel=0 note=73 velocity=95 time=0.1666665
EXTRACT: note_on channel=0 note=68 velocity=95 time=0
EXTRACT: note_on channel=0 note=64 velocity=95 time=0
EXTRACT: note_on channel=0 note=61 velocity=95 time=0
EXTRACT: note_off channel=4 note=64 velocity=95 time=0
EXTRACT: note_off channel=4 note=61 velocity=95 time=0
EXTRACT: note_off channel=4 note=56 velocity=95 time=0
EXTRACT: note_off channel=4 note=49 velocity=95 time=0
EXTRACT: note_on channel=4 note=56 velocity=95 time=0
EXTRACT: note_on channel=4 note=52 velocity=95 time=0
EXTRACT: note_on channel=4 note=47 velocity=95 time=0
EXTRACT: note_off channel=9 note=42 velocity=95 time=0
EXTRACT: note_off channel=9 note=40 velocity=95 time=0
EXTRACT: note_on channel=9 note=42 velocity=95 time=0
EXTRACT: note_off channel=4 note=56 velocity=95 time=0.031249968750000003
EXTRACT: note_off channel=4 note=52 velocity=95 time=0
EXTRACT: note_off channel=4 note=47 velocity=95 time=0
EXTRACT: note_off channel=0 note=73 velocity=95 time=0.13541653125
EXTRACT: note_off channel=0 note=68 velocity=95 time=0
EXTRACT: note_off channel=0 note=64 velocity=95 time=0
EXTRACT: note_off channel=0 note=61 velocity=95 time=0
EXTRACT: note_on channel=4 note=56 velocity=95 time=0
EXTRACT: note_on channel=4 note=52 velocity=95 time=0
EXTRACT: note_on channel=4 note=47 velocity=95 time=0
EXTRACT: note_off channel=9 note=42 velocity=95 time=0
EXTRACT: note_on channel=9 note=42 velocity=95 time=0
EXTRACT: note_on channel=9 note=36 velocity=95 time=0
EXTRACT: note_off channel=4 note=56 velocity=95 time=0.031249968750000003
EXTRACT: note_off channel=4 note=52 velocity=95 time=0
EXTRACT: note_off channel=4 note=47 velocity=95 time=0
EXTRACT: note_on channel=0 note=73 velocity=95 time=0.13541653125
EXTRACT: note_on channel=0 note=68 velocity=95 time=0
EXTRACT: note_on channel=0 note=64 velocity=95 time=0
EXTRACT: note_on channel=0 note=61 velocity=95 time=0
EXTRACT: note_on channel=4 note=64 velocity=95 time=0
EXTRACT: note_on channel=4 note=61 velocity=95 time=0
EXTRACT: note_on channel=4 note=56 velocity=95 time=0
EXTRACT: note_on channel=4 note=49 velocity=95 time=0
EXTRACT: note_off channel=6 note=68 velocity=95 time=0
EXTRACT: note_off channel=6 note=64 velocity=95 time=0
EXTRACT: note_on channel=6 note=68 velocity=95 time=0
EXTRACT: note_on channel=6 note=64 velocity=95 time=0
EXTRACT: note_off channel=12 note=35 velocity=95 time=0
EXTRACT: note_on channel=12 note=37 velocity=95 time=0
EXTRACT: note_off channel=9 note=42 velocity=95 time=0
EXTRACT: note_off channel=9 note=36 velocity=95 time=0
EXTRACT: note_off channel=0 note=73 velocity=95 time=0.1666665
EXTRACT: note_off channel=0 note=68 velocity=95 time=0
EXTRACT: note_off channel=0 note=64 velocity=95 time=0
EXTRACT: note_off channel=0 note=61 velocity=95 time=0
EXTRACT: note_off channel=4 note=64 velocity=95 time=0
EXTRACT: note_off channel=4 note=61 velocity=95 time=0
EXTRACT: note_off channel=4 note=56 velocity=95 time=0
EXTRACT: note_off channel=4 note=49 velocity=95 time=0
EXTRACT: note_on channel=4 note=64 velocity=95 time=0
EXTRACT: note_on channel=4 note=61 velocity=95 time=0
EXTRACT: note_on channel=4 note=56 velocity=95 time=0
EXTRACT: note_on channel=4 note=49 velocity=95 time=0
EXTRACT: note_on channel=9 note=42 velocity=95 time=0
EXTRACT: note_on channel=9 note=40 velocity=95 time=0
EXTRACT: note_on channel=0 note=73 velocity=95 time=0.1666665
EXTRACT: note_on channel=0 note=68 velocity=95 time=0
EXTRACT: note_on channel=0 note=64 velocity=95 time=0
EXTRACT: note_on channel=0 note=61 velocity=95 time=0
EXTRACT: note_off channel=4 note=64 velocity=95 time=0
EXTRACT: note_off channel=4 note=61 velocity=95 time=0
EXTRACT: note_off channel=4 note=56 velocity=95 time=0
EXTRACT: note_off channel=4 note=49 velocity=95 time=0
EXTRACT: note_on channel=4 note=64 velocity=95 time=0
EXTRACT: note_on channel=4 note=61 velocity=95 time=0
EXTRACT: note_on channel=4 note=56 velocity=95 time=0
EXTRACT: note_on channel=4 note=49 velocity=95 time=0
EXTRACT: note_off channel=12 note=37 velocity=95 time=0
EXTRACT: note_on channel=12 note=37 velocity=95 time=0
EXTRACT: note_off channel=9 note=42 velocity=95 time=0
EXTRACT: note_off channel=9 note=40 velocity=95 time=0
EXTRACT: note_on channel=9 note=42 velocity=95 time=0
EXTRACT: note_off channel=6 note=68 velocity=95 time=0.1041665625
EXTRACT: note_off channel=6 note=64 velocity=95 time=0
EXTRACT: note_off channel=0 note=73 velocity=95 time=0.062499937500000005
EXTRACT: note_off channel=0 note=68 velocity=95 time=0
EXTRACT: note_off channel=0 note=64 velocity=95 time=0
EXTRACT: note_off channel=0 note=61 velocity=95 time=0
EXTRACT: pitchwheel channel=3 pitch=0 time=0
EXTRACT: note_on channel=3 note=54 velocity=95 time=0
EXTRACT: note_off channel=4 note=64 velocity=95 time=0
EXTRACT: note_off channel=4 note=61 velocity=95 time=0
EXTRACT: note_off channel=4 note=56 velocity=95 time=0
EXTRACT: note_off channel=4 note=49 velocity=95 time=0
EXTRACT: note_on channel=4 note=64 velocity=95 time=0
EXTRACT: note_on channel=4 note=61 velocity=95 time=0
EXTRACT: note_on channel=4 note=56 velocity=95 time=0
EXTRACT: note_on channel=4 note=49 velocity=95 time=0
EXTRACT: note_on channel=6 note=68 velocity=95 time=0
EXTRACT: note_on channel=6 note=64 velocity=95 time=0
EXTRACT: note_off channel=12 note=37 velocity=95 time=0
EXTRACT: note_on channel=12 note=40 velocity=95 time=0
EXTRACT: note_off channel=9 note=42 velocity=95 time=0
EXTRACT: note_on channel=9 note=42 velocity=95 time=0
EXTRACT: pitchwheel channel=3 pitch=128 time=0.0072916593750000005
EXTRACT: pitchwheel channel=3 pitch=256 time=0.0072916593750000005
EXTRACT: pitchwheel channel=3 pitch=384 time=0.0072916593750000005
EXTRACT: pitchwheel channel=3 pitch=512 time=0.0072916593750000005
EXTRACT: pitchwheel channel=3 pitch=640 time=0.0072916593750000005
EXTRACT: pitchwheel channel=3 pitch=768 time=0.0072916593750000005
EXTRACT: pitchwheel channel=3 pitch=896 time=0.0072916593750000005
EXTRACT: pitchwheel channel=3 pitch=1024 time=0.0072916593750000005
EXTRACT: pitchwheel channel=3 pitch=1152 time=0.0072916593750000005
EXTRACT: pitchwheel channel=3 pitch=1280 time=0.0072916593750000005
EXTRACT: pitchwheel channel=3 pitch=1408 time=0.0072916593750000005
EXTRACT: pitchwheel channel=3 pitch=1408 time=0.003124996875
EXTRACT: note_on channel=0 note=73 velocity=95 time=0.08333325
EXTRACT: note_on channel=0 note=68 velocity=95 time=0
EXTRACT: note_on channel=0 note=64 velocity=95 time=0
EXTRACT: note_on channel=0 note=61 velocity=95 time=0
EXTRACT: pitchwheel channel=3 pitch=1408 time=0
EXTRACT: note_off channel=4 note=64 velocity=95 time=0
EXTRACT: note_off channel=4 note=61 velocity=95 time=0
EXTRACT: note_off channel=4 note=56 velocity=95 time=0
EXTRACT: note_off channel=4 note=49 velocity=95 time=0
EXTRACT: note_on channel=4 note=56 velocity=95 time=0
EXTRACT: note_on channel=4 note=52 velocity=95 time=0
EXTRACT: note_on channel=4 note=47 velocity=95 time=0
EXTRACT: note_off channel=12 note=40 velocity=95 time=0
EXTRACT: note_on channel=12 note=39 velocity=95 time=0
EXTRACT: note_off channel=9 note=42 velocity=95 time=0
EXTRACT: note_on channel=9 note=36 velocity=95 time=0
EXTRACT: pitchwheel channel=3 pitch=1280 time=0.0072916593750000005
EXTRACT: pitchwheel channel=3 pitch=1152 time=0.0072916593750000005
EXTRACT: pitchwheel channel=3 pitch=1024 time=0.0072916593750000005
EXTRACT: pitchwheel channel=3 pitch=896 time=0.0072916593750000005
EXTRACT: note_off channel=4 note=56 velocity=95 time=0.00208333125
EXTRACT: note_off channel=4 note=52 velocity=95 time=0
EXTRACT: note_off channel=4 note=47 velocity=95 time=0
EXTRACT: pitchwheel channel=3 pitch=768 time=0.005208328125
EXTRACT: pitchwheel channel=3 pitch=640 time=0.0072916593750000005
EXTRACT: pitchwheel channel=3 pitch=512 time=0.0072916593750000005
EXTRACT: pitchwheel channel=3 pitch=384 time=0.0072916593750000005
EXTRACT: pitchwheel channel=3 pitch=256 time=0.0072916593750000005
EXTRACT: pitchwheel channel=3 pitch=128 time=0.0072916593750000005
EXTRACT: pitchwheel channel=3 pitch=0 time=0.0072916593750000005
EXTRACT: pitchwheel channel=3 pitch=0 time=0.003124996875
EXTRACT: note_off channel=0 note=73 velocity=95 time=0.08333325
EXTRACT: note_off channel=0 note=68 velocity=95 time=0
EXTRACT: note_off channel=0 note=64 velocity=95 time=0
EXTRACT: note_off channel=0 note=61 velocity=95 time=0
EXTRACT: pitchwheel channel=3 pitch=0 time=0
EXTRACT: pitchwheel channel=3 pitch=0 time=0
EXTRACT: note_off channel=3 note=54 velocity=95 time=0
EXTRACT: note_on channel=2 note=52 velocity=95 time=0
EXTRACT: note_on channel=4 note=56 velocity=95 time=0
EXTRACT: note_on channel=4 note=52 velocity=95 time=0
EXTRACT: note_on channel=4 note=47 velocity=95 time=0
EXTRACT: note_off channel=12 note=39 velocity=95 time=0
EXTRACT: note_on channel=12 note=37 velocity=95 time=0
EXTRACT: note_off channel=9 note=36 velocity=95 time=0
EXTRACT: note_on channel=9 note=42 velocity=95 time=0
EXTRACT: note_on channel=9 note=40 velocity=95 time=0
EXTRACT: note_off channel=4 note=56 velocity=95 time=0.031249968750000003
EXTRACT: note_off channel=4 note=52 velocity=95 time=0
EXTRACT: note_off channel=4 note=47 velocity=95 time=0
EXTRACT: note_off channel=6 note=68 velocity=95 time=0.07291659375000001
EXTRACT: note_off channel=6 note=64 velocity=95 time=0
EXTRACT: note_on channel=0 note=73 velocity=95 time=0.062499937500000005
EXTRACT: note_on channel=0 note=68 velocity=95 time=0
EXTRACT: note_on channel=0 note=64 velocity=95 time=0
EXTRACT: note_on channel=0 note=61 velocity=95 time=0
EXTRACT: note_off channel=2 note=52 velocity=95 time=0
EXTRACT: note_on channel=2 note=54 velocity=70 time=0
EXTRACT: note_on channel=4 note=56 velocity=95 time=0
EXTRACT: note_on channel=4 note=52 velocity=95 time=0
EXTRACT: note_on channel=4 note=47 velocity=95 time=0
EXTRACT: note_on channel=6 note=56 velocity=95 time=0
EXTRACT: note_off channel=12 note=37 velocity=95 time=0
EXTRACT: note_on channel=12 note=33 velocity=95 time=0
EXTRACT: note_off channel=9 note=42 velocity=95 time=0
EXTRACT: note_off channel=9 note=40 velocity=95 time=0
EXTRACT: note_on channel=9 note=42 velocity=95 time=0
EXTRACT: note_off channel=4 note=56 velocity=95 time=0.031249968750000003
EXTRACT: note_off channel=4 note=52 velocity=95 time=0
EXTRACT: note_off channel=4 note=47 velocity=95 time=0
EXTRACT: note_off channel=12 note=33 velocity=95 time=0
EXTRACT: note_off channel=0 note=73 velocity=95 time=0.13541653125
EXTRACT: note_off channel=0 note=68 velocity=95 time=0
EXTRACT: note_off channel=0 note=64 velocity=95 time=0
EXTRACT: note_off channel=0 note=61 velocity=95 time=0
EXTRACT: note_off channel=2 note=54 velocity=70 time=0
EXTRACT: note_on channel=2 note=47 velocity=95 time=0
EXTRACT: note_on channel=4 note=63 velocity=95 time=0
EXTRACT: note_on channel=4 note=59 velocity=95 time=0
EXTRACT: note_on channel=4 note=54 velocity=95 time=0
EXTRACT: note_on channel=4 note=47 velocity=95 time=0
EXTRACT: note_off channel=6 note=56 velocity=95 time=0
EXTRACT: note_on channel=6 note=63 velocity=95 time=0
EXTRACT: note_on channel=12 note=35 velocity=95 time=0
EXTRACT: note_off channel=9 note=42 velocity=95 time=0
EXTRACT: note_on channel=9 note=42 velocity=95 time=0
EXTRACT: note_on channel=9 note=36 velocity=95 time=0
EXTRACT: note_on channel=0 note=71 velocity=95 time=0.1666665
EXTRACT: note_on channel=0 note=66 velocity=95 time=0
EXTRACT: note_on channel=0 note=63 velocity=95 time=0
EXTRACT: note_on channel=0 note=59 velocity=95 time=0
EXTRACT: note_off channel=2 note=47 velocity=95 time=0
EXTRACT: note_off channel=4 note=63 velocity=95 time=0
EXTRACT: note_off channel=4 note=59 velocity=95 time=0
EXTRACT: note_off channel=4 note=54 velocity=95 time=0
EXTRACT: note_off channel=4 note=47 velocity=95 time=0
EXTRACT: note_on channel=4 note=56 velocity=95 time=0
EXTRACT: note_on channel=4 note=52 velocity=95 time=0
EXTRACT: note_on channel=4 note=47 velocity=95 time=0
EXTRACT: note_off channel=6 note=63 velocity=95 time=0
EXTRACT: note_on channel=6 note=63 velocity=95 time=0
EXTRACT: note_off channel=9 note=42 velocity=95 time=0
EXTRACT: note_off channel=9 note=36 velocity=95 time=0
EXTRACT: note_off channel=4 note=56 velocity=95 time=0.031249968750000003
EXTRACT: note_off channel=4 note=52 velocity=95 time=0
EXTRACT: note_off channel=4 note=47 velocity=95 time=0
EXTRACT: note_off channel=0 note=71 velocity=95 time=0.13541653125
EXTRACT: note_off channel=0 note=66 velocity=95 time=0
EXTRACT: note_off channel=0 note=63 velocity=95 time=0
EXTRACT: note_off channel=0 note=59 velocity=95 time=0
EXTRACT: note_on channel=4 note=56 velocity=95 time=0
EXTRACT: note_on channel=4 note=52 velocity=95 time=0
EXTRACT: note_on channel=4 note=47 velocity=95 time=0
EXTRACT: note_off channel=6 note=63 velocity=95 time=0
EXTRACT: note_on channel=6 note=63 velocity=95 time=0
EXTRACT: note_off channel=12 note=35 velocity=95 time=0
EXTRACT: note_on channel=9 note=42 velocity=95 time=0
EXTRACT: note_on channel=9 note=40 velocity=95 time=0
EXTRACT: note_off channel=4 note=56 velocity=95 time=0.031249968750000003
EXTRACT: note_off channel=4 note=52 velocity=95 time=0
EXTRACT: note_off channel=4 note=47 velocity=95 time=0
EXTRACT: note_on channel=0 note=71 velocity=95 time=0.13541653125
EXTRACT: note_on channel=0 note=66 velocity=95 time=0
EXTRACT: note_on channel=0 note=63 velocity=95 time=0
EXTRACT: note_on channel=0 note=59 velocity=95 time=0
EXTRACT: note_on channel=4 note=63 velocity=95 time=0
EXTRACT: note_on channel=4 note=59 velocity=95 time=0
EXTRACT: note_on channel=4 note=54 velocity=95 time=0
EXTRACT: note_on channel=4 note=47 velocity=95 time=0
EXTRACT: note_off channel=6 note=63 velocity=95 time=0
EXTRACT: note_on channel=6 note=63 velocity=95 time=0
EXTRACT: note_on channel=12 note=30 velocity=95 time=0
EXTRACT: note_off channel=9 note=42 velocity=95 time=0
EXTRACT: note_off channel=9 note=40 velocity=95 time=0
EXTRACT: note_on channel=9 note=42 velocity=95 time=0
EXTRACT: note_off channel=0 note=71 velocity=95 time=0.1666665
EXTRACT: note_off channel=0 note=66 velocity=95 time=0
EXTRACT: note_off channel=0 note=63 velocity=95 time=0
EXTRACT: note_off channel=0 note=59 velocity=95 time=0
EXTRACT: note_off channel=4 note=63 velocity=95 time=0
EXTRACT: note_off channel=4 note=59 velocity=95 time=0
EXTRACT: note_off channel=4 note=54 velocity=95 time=0
EXTRACT: note_off channel=4 note=47 velocity=95 time=0
EXTRACT: note_on channel=4 note=56 velocity=95 time=0
EXTRACT: note_on channel=4 note=52 velocity=95 time=0
EXTRACT: note_on channel=4 note=47 velocity=95 time=0
EXTRACT: note_off channel=12 note=30 velocity=95 time=0
EXTRACT: note_on channel=12 note=30 velocity=95 time=0
EXTRACT: note_off channel=9 note=42 velocity=95 time=0
EXTRACT: note_on channel=9 note=42 velocity=95 time=0
EXTRACT: note_on channel=9 note=36 velocity=95 time=0
EXTRACT: note_off channel=4 note=56 velocity=95 time=0.031249968750000003
EXTRACT: note_off channel=4 note=52 velocity=95 time=0
EXTRACT: note_off channel=4 note=47 velocity=95 time=0
EXTRACT: note_on channel=0 note=71 velocity=95 time=0.13541653125
EXTRACT: note_on channel=0 note=66 velocity=95 time=0
EXTRACT: note_on channel=0 note=63 velocity=95 time=0
EXTRACT: note_on channel=0 note=59 velocity=95 time=0
EXTRACT: note_on channel=4 note=56 velocity=95 time=0
EXTRACT: note_on channel=4 note=52 velocity=95 time=0
EXTRACT: note_on channel=4 note=47 velocity=95 time=0
EXTRACT: note_off channel=6 note=63 velocity=95 time=0
EXTRACT: note_on channel=6 note=64 velocity=95 time=0
EXTRACT: note_off channel=9 note=42 velocity=95 time=0
EXTRACT: note_off channel=9 note=36 velocity=95 time=0
EXTRACT: note_off channel=4 note=56 velocity=95 time=0.031249968750000003
EXTRACT: note_off channel=4 note=52 velocity=95 time=0
EXTRACT: note_off channel=4 note=47 velocity=95 time=0
EXTRACT: note_off channel=0 note=71 velocity=95 time=0.13541653125
EXTRACT: note_off channel=0 note=66 velocity=95 time=0
EXTRACT: note_off channel=0 note=63 velocity=95 time=0
EXTRACT: note_off channel=0 note=59 velocity=95 time=0
EXTRACT: note_on channel=4 note=56 velocity=95 time=0
EXTRACT: note_on channel=4 note=52 velocity=95 time=0
EXTRACT: note_on channel=4 note=47 velocity=95 time=0
EXTRACT: note_off channel=12 note=30 velocity=95 time=0
EXTRACT: note_on channel=12 note=33 velocity=95 time=0
EXTRACT: note_on channel=9 note=42 velocity=95 time=0
EXTRACT: note_on channel=9 note=40 velocity=95 time=0
EXTRACT: note_off channel=4 note=56 velocity=95 time=0.031249968750000003
EXTRACT: note_off channel=4 note=52 velocity=95 time=0
EXTRACT: note_off channel=4 note=47 velocity=95 time=0
EXTRACT: note_on channel=0 note=71 velocity=95 time=0.13541653125
EXTRACT: note_on channel=0 note=66 velocity=95 time=0
EXTRACT: note_on channel=0 note=63 velocity=95 time=0
EXTRACT: note_on channel=0 note=59 velocity=95 time=0
EXTRACT: note_on channel=4 note=56 velocity=95 time=0
EXTRACT: note_on channel=4 note=52 velocity=95 time=0
EXTRACT: note_on channel=4 note=47 velocity=95 time=0
EXTRACT: note_off channel=6 note=64 velocity=95 time=0
EXTRACT: note_on channel=6 note=63 velocity=95 time=0
EXTRACT: note_off channel=9 note=42 velocity=95 time=0
EXTRACT: note_off channel=9 note=40 velocity=95 time=0
EXTRACT: note_on channel=9 note=42 velocity=95 time=0
EXTRACT: note_off channel=4 note=56 velocity=95 time=0.031249968750000003
EXTRACT: note_off channel=4 note=52 velocity=95 time=0
EXTRACT: note_off channel=4 note=47 velocity=95 time=0
EXTRACT: note_off channel=0 note=71 velocity=95 time=0.13541653125
EXTRACT: note_off channel=0 note=66 velocity=95 time=0
EXTRACT: note_off channel=0 note=63 velocity=95 time=0
EXTRACT: note_off channel=0 note=59 velocity=95 time=0
EXTRACT: note_on channel=4 note=56 velocity=95 time=0
EXTRACT: note_on channel=4 note=52 velocity=95 time=0
EXTRACT: note_on channel=4 note=47 velocity=95 time=0
EXTRACT: note_off channel=12 note=33 velocity=95 time=0
EXTRACT: note_on channel=12 note=37 velocity=95 time=0
EXTRACT: note_off channel=9 note=42 velocity=95 time=0
EXTRACT: note_on channel=9 note=42 velocity=95 time=0
EXTRACT: note_on channel=9 note=36 velocity=95 time=0
EXTRACT: note_off channel=4 note=56 velocity=95 time=0.031249968750000003
EXTRACT: note_off channel=4 note=52 velocity=95 time=0
EXTRACT: note_off channel=4 note=47 velocity=95 time=0
EXTRACT: note_on channel=0 note=73 velocity=95 time=0.13541653125
EXTRACT: note_on channel=0 note=68 velocity=95 time=0
EXTRACT: note_on channel=0 note=64 velocity=95 time=0
EXTRACT: note_on channel=0 note=61 velocity=95 time=0
EXTRACT: note_on channel=2 note=56 velocity=95 time=0
EXTRACT: note_on channel=4 note=64 velocity=95 time=0
EXTRACT: note_on channel=4 note=61 velocity=95 time=0
EXTRACT: note_on channel=4 note=56 velocity=95 time=0
EXTRACT: note_on channel=4 note=49 velocity=95 time=0
EXTRACT: note_off channel=6 note=63 velocity=95 time=0
EXTRACT: note_on channel=6 note=61 velocity=95 time=0
EXTRACT: note_off channel=9 note=42 velocity=95 time=0
EXTRACT: note_off channel=9 note=36 velocity=95 time=0
EXTRACT: note_off channel=0 note=73 velocity=95 time=0.1666665
EXTRACT: note_off channel=0 note=68 velocity=95 time=0
EXTRACT: note_off channel=0 note=64 velocity=95 time=0
EXTRACT: note_off channel=0 note=61 velocity=95 time=0
EXTRACT: note_off channel=2 note=56 velocity=95 time=0
EXTRACT: note_on channel=3 note=61 velocity=95 time=0
EXTRACT: note_off channel=4 note=64 velocity=95 time=0
EXTRACT: note_off channel=4 note=61 velocity=95 time=0
EXTRACT: note_off channel=4 note=56 velocity=95 time=0
EXTRACT: note_off channel=4 note=49 velocity=95 time=0
EXTRACT: note_on channel=4 note=64 velocity=95 time=0
EXTRACT: note_on channel=4 note=61 velocity=95 time=0
EXTRACT: note_on channel=4 note=56 velocity=95 time=0
EXTRACT: note_on channel=4 note=49 velocity=95 time=0
EXTRACT: note_on channel=14 note=80 velocity=95 time=0
EXTRACT: note_on channel=14 note=73 velocity=95 time=0
EXTRACT: note_on channel=9 note=42 velocity=95 time=0
EXTRACT: note_on channel=9 note=40 velocity=95 time=0
EXTRACT: pitchwheel channel=3 pitch=-128 time=0.041666625
EXTRACT: pitchwheel channel=3 pitch=-256 time=0.041666625
EXTRACT: pitchwheel channel=3 pitch=-512 time=0.041666625
EXTRACT: note_on channel=0 note=73 velocity=95 time=0.041666625
EXTRACT: note_on channel=0 note=68 velocity=95 time=0
EXTRACT: note_on channel=0 note=64 velocity=95 time=0
EXTRACT: note_on channel=0 note=61 velocity=95 time=0
EXTRACT: pitchwheel channel=3 pitch=-640 time=0
EXTRACT: pitchwheel channel=3 pitch=0 time=0
EXTRACT: note_off channel=3 note=61 velocity=95 time=0
EXTRACT: note_on channel=2 note=60 velocity=95 time=0
EXTRACT: note_off channel=4 note=64 velocity=95 time=0
EXTRACT: note_off channel=4 note=61 velocity=95 time=0
EXTRACT: note_off channel=4 note=56 velocity=95 time=0
EXTRACT: note_off channel=4 note=49 velocity=95 time=0
EXTRACT: note_on channel=4 note=64 velocity=95 time=0
EXTRACT: note_on channel=4 note=61 velocity=95 time=0
EXTRACT: note_on channel=4 note=56 velocity=95 time=0
EXTRACT: note_on channel=4 note=49 velocity=95 time=0
EXTRACT: note_off channel=12 note=37 velocity=95 time=0
EXTRACT: note_on channel=12 note=37 velocity=95 time=0
EXTRACT: note_off channel=14 note=80 velocity=95 time=0
EXTRACT: note_off channel=14 note=73 velocity=95 time=0
EXTRACT: note_off channel=9 note=42 velocity=95 time=0
EXTRACT: note_off channel=9 note=40 velocity=95 time=0
EXTRACT: note_on channel=9 note=42 velocity=95 time=0
EXTRACT: note_off channel=0 note=73 velocity=95 time=0.1666665
EXTRACT: note_off channel=0 note=68 velocity=95 time=0
EXTRACT: note_off channel=0 note=64 velocity=95 time=0
EXTRACT: note_off channel=0 note=61 velocity=95 time=0
EXTRACT: note_off channel=2 note=60 velocity=95 time=0
EXTRACT: note_on channel=3 note=61 velocity=95 time=0
EXTRACT: note_off channel=4 note=64 velocity=95 time=0
EXTRACT: note_off channel=4 note=61 velocity=95 time=0
EXTRACT: note_off channel=4 note=56 velocity=95 time=0
EXTRACT: note_off channel=4 note=49 velocity=95 time=0
EXTRACT: note_on channel=4 note=64 velocity=95 time=0
EXTRACT: note_on channel=4 note=61 velocity=95 time=0
EXTRACT: note_on channel=4 note=56 velocity=95 time=0
EXTRACT: note_on channel=4 note=49 velocity=95 time=0
EXTRACT: note_off channel=12 note=37 velocity=95 time=0
EXTRACT: note_on channel=12 note=32 velocity=95 time=0
EXTRACT: note_on channel=14 note=80 velocity=95 time=0
EXTRACT: note_on channel=14 note=73 velocity=95 time=0
EXTRACT: note_off channel=9 note=42 velocity=95 time=0
EXTRACT: note_on channel=9 note=42 velocity=95 time=0
EXTRACT: pitchwheel channel=3 pitch=0 time=0.0555555
EXTRACT: note_off channel=6 note=61 velocity=95 time=0.02777775
EXTRACT: pitchwheel channel=3 pitch=128 time=0.02777775
EXTRACT: note_on channel=0 note=73 velocity=95 time=0.0555555
EXTRACT: note_on channel=0 note=68 velocity=95 time=0
EXTRACT: note_on channel=0 note=64 velocity=95 time=0
EXTRACT: note_on channel=0 note=61 velocity=95 time=0
EXTRACT: pitchwheel channel=3 pitch=0 time=0
EXTRACT: note_off channel=4 note=64 velocity=95 time=0
EXTRACT: note_off channel=4 note=61 velocity=95 time=0
EXTRACT: note_off channel=4 note=56 velocity=95 time=0
EXTRACT: note_off channel=4 note=49 velocity=95 time=0
EXTRACT: note_on channel=4 note=64 velocity=95 time=0
EXTRACT: note_on channel=4 note=61 velocity=95 time=0
EXTRACT: note_on channel=4 note=56 velocity=95 time=0
EXTRACT: note_on channel=4 note=49 velocity=95 time=0
EXTRACT: note_off channel=14 note=80 velocity=95 time=0
EXTRACT: note_off channel=14 note=73 velocity=95 time=0
EXTRACT: note_off channel=9 note=42 velocity=95 time=0
EXTRACT: note_on channel=9 note=36 velocity=95 time=0
EXTRACT: pitchwheel channel=3 pitch=128 time=0.0555555
EXTRACT: pitchwheel channel=3 pitch=0 time=0.0555555
EXTRACT: note_off channel=0 note=73 velocity=95 time=0.0555555
EXTRACT: note_off channel=0 note=68 velocity=95 time=0
EXTRACT: note_off channel=0 note=64 velocity=95 time=0
EXTRACT: note_off channel=0 note=61 velocity=95 time=0
EXTRACT: pitchwheel channel=3 pitch=128 time=0
EXTRACT: pitchwheel channel=3 pitch=0 time=0
EXTRACT: note_off channel=3 note=61 velocity=95 time=0
EXTRACT: note_on channel=3 note=59 velocity=95 time=0
EXTRACT: note_off channel=4 note=64 velocity=95 time=0
EXTRACT: note_off channel=4 note=61 velocity=95 time=0
EXTRACT: note_off channel=4 note=56 velocity=95 time=0
EXTRACT: note_off channel=4 note=49 velocity=95 time=0
EXTRACT: note_on channel=4 note=56 velocity=95 time=0
EXTRACT: note_on channel=4 note=52 velocity=95 time=0
EXTRACT: note_on channel=4 note=47 velocity=95 time=0
EXTRACT: note_on channel=6 note=61 velocity=95 time=0
EXTRACT: note_off channel=12 note=32 velocity=95 time=0
EXTRACT: note_on channel=12 note=35 velocity=95 time=0
EXTRACT: note_off channel=9 note=36 velocity=95 time=0
EXTRACT: note_on channel=9 note=42 velocity=95 time=0
EXTRACT: note_on channel=9 note=40 velocity=95 time=0
EXTRACT: note_off channel=4 note=56 velocity=95 time=0.031249968750000003
EXTRACT: note_off channel=4 note=52 velocity=95 time=0
EXTRACT: note_off channel=4 note=47 velocity=95 time=0
EXTRACT: pitchwheel channel=3 pitch=256 time=0.01041665625
EXTRACT: pitchwheel channel=3 pitch=640 time=0.041666625
EXTRACT: pitchwheel channel=3 pitch=1024 time=0.041666625
EXTRACT: note_on channel=0 note=73 velocity=95 time=0.041666625
EXTRACT: note_on channel=0 note=68 velocity=95 time=0
EXTRACT: note_on channel=0 note=64 velocity=95 time=0
EXTRACT: note_on channel=0 note=61 velocity=95 time=0
EXTRACT: pitchwheel channel=3 pitch=1408 time=0
EXTRACT: pitchwheel channel=3 pitch=0 time=0
EXTRACT: note_off channel=3 note=59 velocity=95 time=0
EXTRACT: note_on channel=2 note=61 velocity=95 time=0
EXTRACT: note_on channel=4 note=56 velocity=95 time=0
EXTRACT: note_on channel=4 note=52 velocity=95 time=0
EXTRACT: note_on channel=4 note=47 velocity=95 time=0
EXTRACT: note_off channel=12 note=35 velocity=95 time=0
EXTRACT: note_on channel=12 note=35 velocity=95 time=0
EXTRACT: note_off channel=9 note=42 velocity=95 time=0
EXTRACT: note_off channel=9 note=40 velocity=95 time=0
EXTRACT: note_on channel=9 note=42 velocity=95 time=0
EXTRACT: note_off channel=4 note=56 velocity=95 time=0.031249968750000003
EXTRACT: note_off channel=4 note=52 velocity=95 time=0
EXTRACT: note_off channel=4 note=47 velocity=95 time=0
EXTRACT: note_off channel=6 note=61 velocity=95 time=0.07291659375000001
EXTRACT: note_off channel=0 note=73 velocity=95 time=0.062499937500000005
EXTRACT: note_off channel=0 note=68 velocity=95 time=0
EXTRACT: note_off channel=0 note=64 velocity=95 time=0
EXTRACT: note_off channel=0 note=61 velocity=95 time=0
EXTRACT: note_off channel=2 note=61 velocity=95 time=0
EXTRACT: note_on channel=4 note=64 velocity=95 time=0
EXTRACT: note_on channel=4 note=61 velocity=95 time=0
EXTRACT: note_on channel=4 note=56 velocity=95 time=0
EXTRACT: note_on channel=4 note=49 velocity=95 time=0
EXTRACT: note_on channel=6 note=68 velocity=95 time=0
EXTRACT: note_on channel=6 note=64 velocity=95 time=0
EXTRACT: note_off channel=12 note=35 velocity=95 time=0
EXTRACT: note_on channel=12 note=37 velocity=95 time=0
EXTRACT: note_off channel=9 note=42 velocity=95 time=0
EXTRACT: note_on channel=9 note=42 velocity=95 time=0
EXTRACT: note_on channel=9 note=36 velocity=95 time=0
EXTRACT: note_on channel=0 note=73 velocity=95 time=0.1666665
EXTRACT: note_on channel=0 note=68 velocity=95 time=0
EXTRACT: note_on channel=0 note=64 velocity=95 time=0
EXTRACT: note_on channel=0 note=61 velocity=95 time=0
EXTRACT: note_off channel=4 note=64 velocity=95 time=0
EXTRACT: note_off channel=4 note=61 velocity=95 time=0
EXTRACT: note_off channel=4 note=56 velocity=95 time=0
EXTRACT: note_off channel=4 note=49 velocity=95 time=0
EXTRACT: note_on channel=4 note=56 velocity=95 time=0
EXTRACT: note_on channel=4 note=52 velocity=95 time=0
EXTRACT: note_on channel=4 note=47 velocity=95 time=0
EXTRACT: note_off channel=9 note=42 velocity=95 time=0
EXTRACT: note_off channel=9 note=36 velocity=95 time=0
EXTRACT: note_off channel=4 note=56 velocity=95 time=0.031249968750000003
EXTRACT: note_off channel=4 note=52 velocity=95 time=0
EXTRACT: note_off channel=4 note=47 velocity=95 time=0
EXTRACT: note_off channel=0 note=73 velocity=95 time=0.13541653125
EXTRACT: note_off channel=0 note=68 velocity=95 time=0
EXTRACT: note_off channel=0 note=64 velocity=95 time=0
EXTRACT: note_off channel=0 note=61 velocity=95 time=0
EXTRACT: note_on channel=4 note=56 velocity=95 time=0
EXTRACT: note_on channel=4 note=52 velocity=95 time=0
EXTRACT: note_on channel=4 note=47 velocity=95 time=0
EXTRACT: note_on channel=9 note=42 velocity=95 time=0
EXTRACT: note_on channel=9 note=40 velocity=95 time=0
EXTRACT: note_off channel=4 note=56 velocity=95 time=0.031249968750000003
EXTRACT: note_off channel=4 note=52 velocity=95 time=0
EXTRACT: note_off channel=4 note=47 velocity=95 time=0
EXTRACT: note_off channel=6 note=68 velocity=95 time=0.07291659375000001
EXTRACT: note_off channel=6 note=64 velocity=95 time=0
EXTRACT: note_on channel=0 note=73 velocity=95 time=0.062499937500000005
EXTRACT: note_on channel=0 note=68 velocity=95 time=0
EXTRACT: note_on channel=0 note=64 velocity=95 time=0
EXTRACT: note_on channel=0 note=61 velocity=95 time=0
EXTRACT: note_on channel=4 note=64 velocity=95 time=0
EXTRACT: note_on channel=4 note=61 velocity=95 time=0
EXTRACT: note_on channel=4 note=56 velocity=95 time=0
EXTRACT: note_on channel=4 note=49 velocity=95 time=0
EXTRACT: note_on channel=6 note=68 velocity=95 time=0
EXTRACT: note_on channel=6 note=64 velocity=95 time=0
EXTRACT: note_off channel=12 note=37 velocity=95 time=0
EXTRACT: note_on channel=12 note=32 velocity=95 time=0
EXTRACT: note_off channel=9 note=42 velocity=95 time=0
EXTRACT: note_off channel=9 note=40 velocity=95 time=0
EXTRACT: note_on channel=9 note=42 velocity=95 time=0
EXTRACT: note_off channel=0 note=73 velocity=95 time=0.1666665
EXTRACT: note_off channel=0 note=68 velocity=95 time=0
EXTRACT: note_off channel=0 note=64 velocity=95 time=0
EXTRACT: note_off channel=0 note=61 velocity=95 time=0
EXTRACT: note_off channel=4 note=64 velocity=95 time=0
EXTRACT: note_off channel=4 note=61 velocity=95 time=0
EXTRACT: note_off channel=4 note=56 velocity=95 time=0
EXTRACT: note_off channel=4 note=49 velocity=95 time=0
EXTRACT: note_on channel=4 note=56 velocity=95 time=0
EXTRACT: note_on channel=4 note=52 velocity=95 time=0
EXTRACT: note_on channel=4 note=47 velocity=95 time=0
EXTRACT: note_off channel=9 note=42 velocity=95 time=0
EXTRACT: note_on channel=9 note=42 velocity=95 time=0
EXTRACT: note_on channel=9 note=36 velocity=95 time=0
EXTRACT: note_off channel=4 note=56 velocity=95 time=0.031249968750000003
EXTRACT: note_off channel=4 note=52 velocity=95 time=0
EXTRACT: note_off channel=4 note=47 velocity=95 time=0
EXTRACT: note_on channel=0 note=73 velocity=95 time=0.13541653125
EXTRACT: note_on channel=0 note=68 velocity=95 time=0
EXTRACT: note_on channel=0 note=64 velocity=95 time=0
EXTRACT: note_on channel=0 note=61 velocity=95 time=0
EXTRACT: note_on channel=4 note=56 velocity=95 time=0
EXTRACT: note_on channel=4 note=52 velocity=95 time=0
EXTRACT: note_on channel=4 note=47 velocity=95 time=0
EXTRACT: note_off channel=9 note=42 velocity=95 time=0
EXTRACT: note_off channel=9 note=36 velocity=95 time=0
EXTRACT: note_off channel=4 note=56 velocity=95 time=0.031249968750000003
EXTRACT: note_off channel=4 note=52 velocity=95 time=0
EXTRACT: note_off channel=4 note=47 velocity=95 time=0
EXTRACT: note_off channel=6 note=68 velocity=95 time=0.07291659375000001
EXTRACT: note_off channel=6 note=64 velocity=95 time=0
EXTRACT: note_off channel=0 note=73 velocity=95 time=0.062499937500000005
EXTRACT: note_off channel=0 note=68 velocity=95 time=0
EXTRACT: note_off channel=0 note=64 velocity=95 time=0
EXTRACT: note_off channel=0 note=61 velocity=95 time=0
EXTRACT: note_on channel=4 note=64 velocity=95 time=0
EXTRACT: note_on channel=4 note=61 velocity=95 time=0
EXTRACT: note_on channel=4 note=56 velocity=95 time=0
EXTRACT: note_on channel=4 note=49 velocity=95 time=0
EXTRACT: note_on channel=6 note=68 velocity=95 time=0
EXTRACT: note_on channel=6 note=64 velocity=95 time=0
EXTRACT: note_off channel=12 note=32 velocity=95 time=0
EXTRACT: note_on channel=12 note=35 velocity=95 time=0
EXTRACT: note_on channel=9 note=42 velocity=95 time=0
EXTRACT: note_on channel=9 note=40 velocity=95 time=0
EXTRACT: note_on channel=0 note=73 velocity=95 time=0.1666665
EXTRACT: note_on channel=0 note=68 velocity=95 time=0
EXTRACT: note_on channel=0 note=64 velocity=95 time=0
EXTRACT: note_on channel=0 note=61 velocity=95 time=0
EXTRACT: note_off channel=4 note=64 velocity=95 time=0
EXTRACT: note_off channel=4 note=61 velocity=95 time=0
EXTRACT: note_off channel=4 note=56 velocity=95 time=0
EXTRACT: note_off channel=4 note=49 velocity=95 time=0
EXTRACT: note_on channel=4 note=56 velocity=95 time=0
EXTRACT: note_on channel=4 note=52 velocity=95 time=0
EXTRACT: note_on channel=4 note=47 velocity=95 time=0
EXTRACT: note_off channel=9 note=42 velocity=95 time=0
EXTRACT: note_off channel=9 note=40 velocity=95 time=0
EXTRACT: note_on channel=9 note=42 velocity=95 time=0
EXTRACT: note_off channel=4 note=56 velocity=95 time=0.031249968750000003
EXTRACT: note_off channel=4 note=52 velocity=95 time=0
EXTRACT: note_off channel=4 note=47 velocity=95 time=0
EXTRACT: note_off channel=0 note=73 velocity=95 time=0.13541653125
EXTRACT: note_off channel=0 note=68 velocity=95 time=0
EXTRACT: note_off channel=0 note=64 velocity=95 time=0
EXTRACT: note_off channel=0 note=61 velocity=95 time=0
EXTRACT: note_on channel=4 note=56 velocity=95 time=0
EXTRACT: note_on channel=4 note=52 velocity=95 time=0
EXTRACT: note_on channel=4 note=47 velocity=95 time=0
EXTRACT: note_off channel=9 note=42 velocity=95 time=0
EXTRACT: note_on channel=9 note=42 velocity=95 time=0
EXTRACT: note_on channel=9 note=36 velocity=95 time=0
EXTRACT: note_off channel=4 note=56 velocity=95 time=0.031249968750000003
EXTRACT: note_off channel=4 note=52 velocity=95 time=0
EXTRACT: note_off channel=4 note=47 velocity=95 time=0
EXTRACT: note_on channel=0 note=73 velocity=95 time=0.13541653125
EXTRACT: note_on channel=0 note=68 velocity=95 time=0
EXTRACT: note_on channel=0 note=64 velocity=95 time=0
EXTRACT: note_on channel=0 note=61 velocity=95 time=0
EXTRACT: note_on channel=4 note=64 velocity=95 time=0
EXTRACT: note_on channel=4 note=61 velocity=95 time=0
EXTRACT: note_on channel=4 note=56 velocity=95 time=0
EXTRACT: note_on channel=4 note=49 velocity=95 time=0
EXTRACT: note_off channel=6 note=68 velocity=95 time=0
EXTRACT: note_off channel=6 note=64 velocity=95 time=0
EXTRACT: note_on channel=6 note=68 velocity=95 time=0
EXTRACT: note_on channel=6 note=64 velocity=95 time=0
EXTRACT: note_off channel=12 note=35 velocity=95 time=0
EXTRACT: note_on channel=12 note=37 velocity=95 time=0
EXTRACT: note_off channel=9 note=42 velocity=95 time=0
EXTRACT: note_off channel=9 note=36 velocity=95 time=0
EXTRACT: note_off channel=0 note=73 velocity=95 time=0.1666665
EXTRACT: note_off channel=0 note=68 velocity=95 time=0
EXTRACT: note_off channel=0 note=64 velocity=95 time=0
EXTRACT: note_off channel=0 note=61 velocity=95 time=0
EXTRACT: note_off channel=4 note=64 velocity=95 time=0
EXTRACT: note_off channel=4 note=61 velocity=95 time=0
EXTRACT: note_off channel=4 note=56 velocity=95 time=0
EXTRACT: note_off channel=4 note=49 velocity=95 time=0
EXTRACT: note_on channel=4 note=64 velocity=95 time=0
EXTRACT: note_on channel=4 note=61 velocity=95 time=0
EXTRACT: note_on channel=4 note=56 velocity=95 time=0
EXTRACT: note_on channel=4 note=49 velocity=95 time=0
EXTRACT: note_on channel=9 note=42 velocity=95 time=0
EXTRACT: note_on channel=9 note=40 velocity=95 time=0
EXTRACT: note_on channel=0 note=73 velocity=95 time=0.1666665
EXTRACT: note_on channel=0 note=68 velocity=95 time=0
EXTRACT: note_on channel=0 note=64 velocity=95 time=0
EXTRACT: note_on channel=0 note=61 velocity=95 time=0
EXTRACT: note_off channel=4 note=64 velocity=95 time=0
EXTRACT: note_off channel=4 note=61 velocity=95 time=0
EXTRACT: note_off channel=4 note=56 velocity=95 time=0
EXTRACT: note_off channel=4 note=49 velocity=95 time=0
EXTRACT: note_on channel=4 note=64 velocity=95 time=0
EXTRACT: note_on channel=4 note=61 velocity=95 time=0
EXTRACT: note_on channel=4 note=56 velocity=95 time=0
EXTRACT: note_on channel=4 note=49 velocity=95 time=0
EXTRACT: note_off channel=12 note=37 velocity=95 time=0
EXTRACT: note_on channel=12 note=37 velocity=95 time=0
EXTRACT: note_off channel=9 note=42 velocity=95 time=0
EXTRACT: note_off channel=9 note=40 velocity=95 time=0
EXTRACT: note_on channel=9 note=42 velocity=95 time=0
EXTRACT: note_off channel=6 note=68 velocity=95 time=0.1041665625
EXTRACT: note_off channel=6 note=64 velocity=95 time=0
EXTRACT: note_off channel=0 note=73 velocity=95 time=0.062499937500000005
EXTRACT: note_off channel=0 note=68 velocity=95 time=0
EXTRACT: note_off channel=0 note=64 velocity=95 time=0
EXTRACT: note_off channel=0 note=61 velocity=95 time=0
EXTRACT: note_on channel=2 note=54 velocity=95 time=0
EXTRACT: note_off channel=4 note=64 velocity=95 time=0
EXTRACT: note_off channel=4 note=61 velocity=95 time=0
EXTRACT: note_off channel=4 note=56 velocity=95 time=0
EXTRACT: note_off channel=4 note=49 velocity=95 time=0
EXTRACT: note_on channel=4 note=64 velocity=95 time=0
EXTRACT: note_on channel=4 note=61 velocity=95 time=0
EXTRACT: note_on channel=4 note=56 velocity=95 time=0
EXTRACT: note_on channel=4 note=49 velocity=95 time=0
EXTRACT: note_on channel=6 note=68 velocity=95 time=0
EXTRACT: note_on channel=6 note=64 velocity=95 time=0
EXTRACT: note_off channel=12 note=37 velocity=95 time=0
EXTRACT: note_on channel=12 note=40 velocity=95 time=0
EXTRACT: note_off channel=9 note=42 velocity=95 time=0
EXTRACT: note_on channel=9 note=42 velocity=95 time=0
EXTRACT: note_on channel=0 note=73 velocity=95 time=0.1666665
EXTRACT: note_on channel=0 note=68 velocity=95 time=0
EXTRACT: note_on channel=0 note=64 velocity=95 time=0
EXTRACT: note_on channel=0 note=61 velocity=95 time=0
EXTRACT: note_off channel=2 note=54 velocity=95 time=0
EXTRACT: note_on channel=2 note=52 velocity=95 time=0
EXTRACT: note_off channel=4 note=64 velocity=95 time=0
EXTRACT: note_off channel=4 note=61 velocity=95 time=0
EXTRACT: note_off channel=4 note=56 velocity=95 time=0
EXTRACT: note_off channel=4 note=49 velocity=95 time=0
EXTRACT: note_on channel=4 note=56 velocity=95 time=0
EXTRACT: note_on channel=4 note=52 velocity=95 time=0
EXTRACT: note_on channel=4 note=47 velocity=95 time=0
EXTRACT: note_off channel=12 note=40 velocity=95 time=0
EXTRACT: note_on channel=12 note=39 velocity=95 time=0
EXTRACT: note_off channel=9 note=42 velocity=95 time=0
EXTRACT: note_on channel=9 note=36 velocity=95 time=0
EXTRACT: note_off channel=4 note=56 velocity=95 time=0.031249968750000003
EXTRACT: note_off channel=4 note=52 velocity=95 time=0
EXTRACT: note_off channel=4 note=47 velocity=95 time=0
EXTRACT: note_off channel=0 note=73 velocity=95 time=0.13541653125
EXTRACT: note_off channel=0 note=68 velocity=95 time=0
EXTRACT: note_off channel=0 note=64 velocity=95 time=0
EXTRACT: note_off channel=0 note=61 velocity=95 time=0
EXTRACT: note_off channel=2 note=52 velocity=95 time=0
EXTRACT: note_on channel=3 note=49 velocity=95 time=0
EXTRACT: note_on channel=4 note=56 velocity=95 time=0
EXTRACT: note_on channel=4 note=52 velocity=95 time=0
EXTRACT: note_on channel=4 note=47 velocity=95 time=0
EXTRACT: note_off channel=12 note=39 velocity=95 time=0
EXTRACT: note_on channel=12 note=37 velocity=95 time=0
EXTRACT: note_off channel=9 note=36 velocity=95 time=0
EXTRACT: note_on channel=9 note=42 velocity=95 time=0
EXTRACT: note_on channel=9 note=40 velocity=95 time=0
EXTRACT: note_off channel=4 note=56 velocity=95 time=0.031249968750000003
EXTRACT: note_off channel=4 note=52 velocity=95 time=0
EXTRACT: note_off channel=4 note=47 velocity=95 time=0
EXTRACT: pitchwheel channel=3 pitch=0 time=0.02430553125
EXTRACT: note_off channel=6 note=68 velocity=95 time=0.0486110625
EXTRACT: note_off channel=6 note=64 velocity=95 time=0
EXTRACT: pitchwheel channel=3 pitch=128 time=0.0069444375
EXTRACT: note_on channel=0 note=73 velocity=95 time=0.0555555
EXTRACT: note_on channel=0 note=68 velocity=95 time=0
EXTRACT: note_on channel=0 note=64 velocity=95 time=0
EXTRACT: note_on channel=0 note=61 velocity=95 time=0
EXTRACT: pitchwheel channel=3 pitch=0 time=0
EXTRACT: note_on channel=4 note=56 velocity=95 time=0
EXTRACT: note_on channel=4 note=52 velocity=95 time=0
EXTRACT: note_on channel=4 note=47 velocity=95 time=0
EXTRACT: note_on channel=6 note=56 velocity=95 time=0
EXTRACT: note_off channel=12 note=37 velocity=95 time=0
EXTRACT: note_on channel=12 note=33 velocity=95 time=0
EXTRACT: note_off channel=9 note=42 velocity=95 time=0
EXTRACT: note_off channel=9 note=40 velocity=95 time=0
EXTRACT: note_on channel=9 note=42 velocity=95 time=0
EXTRACT: note_off channel=4 note=56 velocity=95 time=0.031249968750000003
EXTRACT: note_off channel=4 note=52 velocity=95 time=0
EXTRACT: note_off channel=4 note=47 velocity=95 time=0
EXTRACT: note_off channel=12 note=33 velocity=95 time=0
EXTRACT: pitchwheel channel=3 pitch=128 time=0.02430553125
EXTRACT: pitchwheel channel=3 pitch=0 time=0.0555555
EXTRACT: note_off channel=0 note=73 velocity=95 time=0.0555555
EXTRACT: note_off channel=0 note=68 velocity=95 time=0
EXTRACT: note_off channel=0 note=64 velocity=95 time=0
EXTRACT: note_off channel=0 note=61 velocity=95 time=0
EXTRACT: pitchwheel channel=3 pitch=128 time=0
EXTRACT: pitchwheel channel=3 pitch=0 time=0
EXTRACT: note_off channel=3 note=49 velocity=95 time=0
EXTRACT: note_on channel=4 note=63 velocity=95 time=0
EXTRACT: note_on channel=4 note=59 velocity=95 time=0
EXTRACT: note_on channel=4 note=54 velocity=95 time=0
EXTRACT: note_on channel=4 note=47 velocity=95 time=0
EXTRACT: note_off channel=6 note=56 velocity=95 time=0
EXTRACT: note_on channel=6 note=63 velocity=95 time=0
EXTRACT: note_on channel=12 note=35 velocity=95 time=0
EXTRACT: note_off channel=9 note=42 velocity=95 time=0
EXTRACT: note_on channel=9 note=42 velocity=95 time=0
EXTRACT: note_on channel=9 note=36 velocity=95 time=0
EXTRACT: note_on channel=0 note=71 velocity=95 time=0.1666665
EXTRACT: note_on channel=0 note=66 velocity=95 time=0
EXTRACT: note_on channel=0 note=63 velocity=95 time=0
EXTRACT: note_on channel=0 note=59 velocity=95 time=0
EXTRACT: note_off channel=4 note=63 velocity=95 time=0
EXTRACT: note_off channel=4 note=59 velocity=95 time=0
EXTRACT: note_off channel=4 note=54 velocity=95 time=0
EXTRACT: note_off channel=4 note=47 velocity=95 time=0
EXTRACT: note_on channel=4 note=56 velocity=95 time=0
EXTRACT: note_on channel=4 note=52 velocity=95 time=0
EXTRACT: note_on channel=4 note=47 velocity=95 time=0
EXTRACT: note_off channel=6 note=63 velocity=95 time=0
EXTRACT: note_on channel=6 note=63 velocity=95 time=0
EXTRACT: note_off channel=9 note=42 velocity=95 time=0
EXTRACT: note_off channel=9 note=36 velocity=95 time=0
EXTRACT: note_off channel=4 note=56 velocity=95 time=0.031249968750000003
EXTRACT: note_off channel=4 note=52 velocity=95 time=0
EXTRACT: note_off channel=4 note=47 velocity=95 time=0
EXTRACT: note_off channel=0 note=71 velocity=95 time=0.13541653125
EXTRACT: note_off channel=0 note=66 velocity=95 time=0
EXTRACT: note_off channel=0 note=63 velocity=95 time=0
EXTRACT: note_off channel=0 note=59 velocity=95 time=0
EXTRACT: note_on channel=4 note=56 velocity=95 time=0
EXTRACT: note_on channel=4 note=52 velocity=95 time=0
EXTRACT: note_on channel=4 note=47 velocity=95 time=0
EXTRACT: note_off channel=6 note=63 velocity=95 time=0
EXTRACT: note_on channel=6 note=63 velocity=95 time=0
EXTRACT: note_off channel=12 note=35 velocity=95 time=0
EXTRACT: note_on channel=9 note=42 velocity=95 time=0
EXTRACT: note_on channel=9 note=40 velocity=95 time=0
EXTRACT: note_off channel=4 note=56 velocity=95 time=0.031249968750000003
EXTRACT: note_off channel=4 note=52 velocity=95 time=0
EXTRACT: note_off channel=4 note=47 velocity=95 time=0
EXTRACT: note_on channel=0 note=71 velocity=95 time=0.13541653125
EXTRACT: note_on channel=0 note=66 velocity=95 time=0
EXTRACT: note_on channel=0 note=63 velocity=95 time=0
EXTRACT: note_on channel=0 note=59 velocity=95 time=0
EXTRACT: note_on channel=4 note=63 velocity=95 time=0
EXTRACT: note_on channel=4 note=59 velocity=95 time=0
EXTRACT: note_on channel=4 note=54 velocity=95 time=0
EXTRACT: note_on channel=4 note=47 velocity=95 time=0
EXTRACT: note_off channel=6 note=63 velocity=95 time=0
EXTRACT: note_on channel=6 note=63 velocity=95 time=0
EXTRACT: note_on channel=12 note=30 velocity=95 time=0
EXTRACT: note_off channel=9 note=42 velocity=95 time=0
EXTRACT: note_off channel=9 note=40 velocity=95 time=0
EXTRACT: note_on channel=9 note=42 velocity=95 time=0
EXTRACT: note_off channel=12 note=30 velocity=95 time=0.08333325
EXTRACT: note_off channel=0 note=71 velocity=95 time=0.08333325
EXTRACT: note_off channel=0 note=66 velocity=95 time=0
EXTRACT: note_off channel=0 note=63 velocity=95 time=0
EXTRACT: note_off channel=0 note=59 velocity=95 time=0
EXTRACT: note_off channel=4 note=63 velocity=95 time=0
EXTRACT: note_off channel=4 note=59 velocity=95 time=0
EXTRACT: note_off channel=4 note=54 velocity=95 time=0
EXTRACT: note_off channel=4 note=47 velocity=95 time=0
EXTRACT: note_on channel=4 note=56 velocity=95 time=0
EXTRACT: note_on channel=4 note=52 velocity=95 time=0
EXTRACT: note_on channel=4 note=47 velocity=95 time=0
EXTRACT: note_on channel=12 note=30 velocity=95 time=0
EXTRACT: note_off channel=9 note=42 velocity=95 time=0
EXTRACT: note_on channel=9 note=42 velocity=95 time=0
EXTRACT: note_on channel=9 note=36 velocity=95 time=0
EXTRACT: note_off channel=4 note=56 velocity=95 time=0.031249968750000003
EXTRACT: note_off channel=4 note=52 velocity=95 time=0
EXTRACT: note_off channel=4 note=47 velocity=95 time=0
EXTRACT: note_on channel=0 note=71 velocity=95 time=0.13541653125
EXTRACT: note_on channel=0 note=66 velocity=95 time=0
EXTRACT: note_on channel=0 note=63 velocity=95 time=0
EXTRACT: note_on channel=0 note=59 velocity=95 time=0
EXTRACT: note_on channel=4 note=56 velocity=95 time=0
EXTRACT: note_on channel=4 note=52 velocity=95 time=0
EXTRACT: note_on channel=4 note=47 velocity=95 time=0
EXTRACT: note_off channel=6 note=63 velocity=95 time=0
EXTRACT: note_on channel=6 note=66 velocity=95 time=0
EXTRACT: note_off channel=9 note=42 velocity=95 time=0
EXTRACT: note_off channel=9 note=36 velocity=95 time=0
EXTRACT: note_off channel=4 note=56 velocity=95 time=0.031249968750000003
EXTRACT: note_off channel=4 note=52 velocity=95 time=0
EXTRACT: note_off channel=4 note=47 velocity=95 time=0
EXTRACT: note_off channel=0 note=71 velocity=95 time=0.13541653125
EXTRACT: note_off channel=0 note=66 velocity=95 time=0
EXTRACT: note_off channel=0 note=63 velocity=95 time=0
EXTRACT: note_off channel=0 note=59 velocity=95 time=0
EXTRACT: note_on channel=4 note=56 velocity=95 time=0
EXTRACT: note_on channel=4 note=52 velocity=95 time=0
EXTRACT: note_on channel=4 note=47 velocity=95 time=0
EXTRACT: note_off channel=12 note=30 velocity=95 time=0
EXTRACT: note_on channel=12 note=33 velocity=95 time=0
EXTRACT: note_on channel=9 note=42 velocity=95 time=0
EXTRACT: note_on channel=9 note=40 velocity=95 time=0
EXTRACT: note_off channel=4 note=56 velocity=95 time=0.031249968750000003
EXTRACT: note_off channel=4 note=52 velocity=95 time=0
EXTRACT: note_off channel=4 note=47 velocity=95 time=0
EXTRACT: note_on channel=0 note=71 velocity=95 time=0.13541653125
EXTRACT: note_on channel=0 note=66 velocity=95 time=0
EXTRACT: note_on channel=0 note=63 velocity=95 time=0
EXTRACT: note_on channel=0 note=59 velocity=95 time=0
EXTRACT: note_on channel=4 note=56 velocity=95 time=0
EXTRACT: note_on channel=4 note=52 velocity=95 time=0
EXTRACT: note_on channel=4 note=47 velocity=95 time=0
EXTRACT: note_off channel=6 note=66 velocity=95 time=0
EXTRACT: note_on channel=6 note=66 velocity=95 time=0
EXTRACT: note_off channel=9 note=42 velocity=95 time=0
EXTRACT: note_off channel=9 note=40 velocity=95 time=0
EXTRACT: note_on channel=9 note=42 velocity=95 time=0
EXTRACT: note_off channel=4 note=56 velocity=95 time=0.031249968750000003
EXTRACT: note_off channel=4 note=52 velocity=95 time=0
EXTRACT: note_off channel=4 note=47 velocity=95 time=0
EXTRACT: note_off channel=0 note=71 velocity=95 time=0.13541653125
EXTRACT: note_off channel=0 note=66 velocity=95 time=0
EXTRACT: note_off channel=0 note=63 velocity=95 time=0
EXTRACT: note_off channel=0 note=59 velocity=95 time=0
EXTRACT: note_on channel=4 note=56 velocity=95 time=0
EXTRACT: note_on channel=4 note=52 velocity=95 time=0
EXTRACT: note_on channel=4 note=47 velocity=95 time=0
EXTRACT: note_off channel=12 note=33 velocity=95 time=0
EXTRACT: note_on channel=12 note=37 velocity=95 time=0
EXTRACT: note_off channel=9 note=42 velocity=95 time=0
EXTRACT: note_on channel=9 note=42 velocity=95 time=0
EXTRACT: note_on channel=9 note=36 velocity=95 time=0
EXTRACT: note_off channel=4 note=56 velocity=95 time=0.031249968750000003
EXTRACT: note_off channel=4 note=52 velocity=95 time=0
EXTRACT: note_off channel=4 note=47 velocity=95 time=0
EXTRACT: note_on channel=0 note=73 velocity=95 time=0.13541653125
EXTRACT: note_on channel=0 note=68 velocity=95 time=0
EXTRACT: note_on channel=0 note=64 velocity=95 time=0
EXTRACT: note_on channel=0 note=61 velocity=95 time=0
EXTRACT: note_on channel=2 note=56 velocity=95 time=0
EXTRACT: note_on channel=4 note=64 velocity=95 time=0
EXTRACT: note_on channel=4 note=61 velocity=95 time=0
EXTRACT: note_on channel=4 note=56 velocity=95 time=0
EXTRACT: note_on channel=4 note=49 velocity=95 time=0
EXTRACT: note_off channel=6 note=66 velocity=95 time=0
EXTRACT: note_on channel=6 note=64 velocity=95 time=0
EXTRACT: note_on channel=14 note=80 velocity=95 time=0
EXTRACT: note_on channel=14 note=73 velocity=95 time=0
EXTRACT: note_off channel=9 note=42 velocity=95 time=0
EXTRACT: note_off channel=9 note=36 velocity=95 time=0
EXTRACT: note_off channel=0 note=73 velocity=95 time=0.1666665
EXTRACT: note_off channel=0 note=68 velocity=95 time=0
EXTRACT: note_off channel=0 note=64 velocity=95 time=0
EXTRACT: note_off channel=0 note=61 velocity=95 time=0
EXTRACT: note_off channel=2 note=56 velocity=95 time=0
EXTRACT: note_on channel=2 note=61 velocity=95 time=0
EXTRACT: note_off channel=4 note=64 velocity=95 time=0
EXTRACT: note_off channel=4 note=61 velocity=95 time=0
EXTRACT: note_off channel=4 note=56 velocity=95 time=0
EXTRACT: note_off channel=4 note=49 velocity=95 time=0
EXTRACT: note_on channel=4 note=64 velocity=95 time=0
EXTRACT: note_on channel=4 note=61 velocity=95 time=0
EXTRACT: note_on channel=4 note=56 velocity=95 time=0
EXTRACT: note_on channel=4 note=49 velocity=95 time=0
EXTRACT: note_off channel=14 note=80 velocity=95 time=0
EXTRACT: note_off channel=14 note=73 velocity=95 time=0
EXTRACT: note_on channel=9 note=42 velocity=95 time=0
EXTRACT: note_on channel=9 note=40 velocity=95 time=0
EXTRACT: note_on channel=0 note=73 velocity=95 time=0.1666665
EXTRACT: note_on channel=0 note=68 velocity=95 time=0
EXTRACT: note_on channel=0 note=64 velocity=95 time=0
EXTRACT: note_on channel=0 note=61 velocity=95 time=0
EXTRACT: note_off channel=2 note=61 velocity=95 time=0
EXTRACT: note_on channel=2 note=61 velocity=95 time=0
EXTRACT: note_off channel=4 note=64 velocity=95 time=0
EXTRACT: note_off channel=4 note=61 velocity=95 time=0
EXTRACT: note_off channel=4 note=56 velocity=95 time=0
EXTRACT: note_off channel=4 note=49 velocity=95 time=0
EXTRACT: note_on channel=4 note=64 velocity=95 time=0
EXTRACT: note_on channel=4 note=61 velocity=95 time=0
EXTRACT: note_on channel=4 note=56 velocity=95 time=0
EXTRACT: note_on channel=4 note=49 velocity=95 time=0
EXTRACT: note_off channel=12 note=37 velocity=95 time=0
EXTRACT: note_on channel=12 note=37 velocity=95 time=0
EXTRACT: note_on channel=14 note=80 velocity=95 time=0
EXTRACT: note_on channel=14 note=73 velocity=95 time=0
EXTRACT: note_off channel=9 note=42 velocity=95 time=0
EXTRACT: note_off channel=9 note=40 velocity=95 time=0
EXTRACT: note_on channel=9 note=42 velocity=95 time=0
EXTRACT: note_off channel=0 note=73 velocity=95 time=0.1666665
EXTRACT: note_off channel=0 note=68 velocity=95 time=0
EXTRACT: note_off channel=0 note=64 velocity=95 time=0
EXTRACT: note_off channel=0 note=61 velocity=95 time=0
EXTRACT: note_off channel=2 note=61 velocity=95 time=0
EXTRACT: note_on channel=2 note=61 velocity=95 time=0
EXTRACT: note_off channel=4 note=64 velocity=95 time=0
EXTRACT: note_off channel=4 note=61 velocity=95 time=0
EXTRACT: note_off channel=4 note=56 velocity=95 time=0
EXTRACT: note_off channel=4 note=49 velocity=95 time=0
EXTRACT: note_on channel=4 note=64 velocity=95 time=0
EXTRACT: note_on channel=4 note=61 velocity=95 time=0
EXTRACT: note_on channel=4 note=56 velocity=95 time=0
EXTRACT: note_on channel=4 note=49 velocity=95 time=0
EXTRACT: note_off channel=12 note=37 velocity=95 time=0
EXTRACT: note_on channel=12 note=32 velocity=95 time=0
EXTRACT: note_off channel=14 note=80 velocity=95 time=0
EXTRACT: note_off channel=14 note=73 velocity=95 time=0
EXTRACT: note_off channel=9 note=42 velocity=95 time=0
EXTRACT: note_on channel=9 note=42 velocity=95 time=0
EXTRACT: note_on channel=0 note=73 velocity=95 time=0.1666665
EXTRACT: note_on channel=0 note=68 velocity=95 time=0
EXTRACT: note_on channel=0 note=64 velocity=95 time=0
EXTRACT: note_on channel=0 note=61 velocity=95 time=0
EXTRACT: note_off channel=2 note=61 velocity=95 time=0
EXTRACT: note_on channel=2 note=61 velocity=95 time=0
EXTRACT: note_off channel=4 note=64 velocity=95 time=0
EXTRACT: note_off channel=4 note=61 velocity=95 time=0
EXTRACT: note_off channel=4 note=56 velocity=95 time=0
EXTRACT: note_off channel=4 note=49 velocity=95 time=0
EXTRACT: note_on channel=4 note=64 velocity=95 time=0
EXTRACT: note_on channel=4 note=61 velocity=95 time=0
EXTRACT: note_on channel=4 note=56 velocity=95 time=0
EXTRACT: note_on channel=4 note=49 velocity=95 time=0
EXTRACT: note_on channel=14 note=80 velocity=95 time=0
EXTRACT: note_on channel=14 note=73 velocity=95 time=0
EXTRACT: note_off channel=9 note=42 velocity=95 time=0
EXTRACT: note_on channel=9 note=36 velocity=95 time=0
EXTRACT: note_off channel=6 note=64 velocity=95 time=0.08333325
EXTRACT: note_off channel=0 note=73 velocity=95 time=0.08333325
EXTRACT: note_off channel=0 note=68 velocity=95 time=0
EXTRACT: note_off channel=0 note=64 velocity=95 time=0
EXTRACT: note_off channel=0 note=61 velocity=95 time=0
EXTRACT: note_off channel=2 note=61 velocity=95 time=0
EXTRACT: note_on channel=2 note=61 velocity=95 time=0
EXTRACT: note_off channel=4 note=64 velocity=95 time=0
EXTRACT: note_off channel=4 note=61 velocity=95 time=0
EXTRACT: note_off channel=4 note=56 velocity=95 time=0
EXTRACT: note_off channel=4 note=49 velocity=95 time=0
EXTRACT: note_on channel=4 note=56 velocity=95 time=0
EXTRACT: note_on channel=4 note=52 velocity=95 time=0
EXTRACT: note_on channel=4 note=47 velocity=95 time=0
EXTRACT: note_off channel=12 note=32 velocity=95 time=0
EXTRACT: note_on channel=12 note=35 velocity=95 time=0
EXTRACT: note_off channel=14 note=80 velocity=95 time=0
EXTRACT: note_off channel=14 note=73 velocity=95 time=0
EXTRACT: note_off channel=9 note=36 velocity=95 time=0
EXTRACT: note_on channel=9 note=42 velocity=95 time=0
EXTRACT: note_on channel=9 note=40 velocity=95 time=0
EXTRACT: note_off channel=4 note=56 velocity=95 time=0.031249968750000003
EXTRACT: note_off channel=4 note=52 velocity=95 time=0
EXTRACT: note_off channel=4 note=47 velocity=95 time=0
EXTRACT: note_on channel=0 note=73 velocity=95 time=0.13541653125
EXTRACT: note_on channel=0 note=68 velocity=95 time=0
EXTRACT: note_on channel=0 note=64 velocity=95 time=0
EXTRACT: note_on channel=0 note=61 velocity=95 time=0
EXTRACT: note_on channel=4 note=56 velocity=95 time=0
EXTRACT: note_on channel=4 note=52 velocity=95 time=0
EXTRACT: note_on channel=4 note=47 velocity=95 time=0
EXTRACT: note_off channel=12 note=35 velocity=95 time=0
EXTRACT: note_on channel=12 note=35 velocity=95 time=0
EXTRACT: note_off channel=9 note=42 velocity=95 time=0
EXTRACT: note_off channel=9 note=40 velocity=95 time=0
EXTRACT: note_on channel=9 note=42 velocity=95 time=0
EXTRACT: note_off channel=4 note=56 velocity=95 time=0.031249968750000003
EXTRACT: note_off channel=4 note=52 velocity=95 time=0
EXTRACT: note_off channel=4 note=47 velocity=95 time=0
EXTRACT: note_off channel=0 note=73 velocity=95 time=0.13541653125
EXTRACT: note_off channel=0 note=68 velocity=95 time=0
EXTRACT: note_off channel=0 note=64 velocity=95 time=0
EXTRACT: note_off channel=0 note=61 velocity=95 time=0
EXTRACT: note_off channel=2 note=61 velocity=95 time=0
EXTRACT: note_on channel=4 note=64 velocity=95 time=0
EXTRACT: note_on channel=4 note=61 velocity=95 time=0
EXTRACT: note_on channel=4 note=56 velocity=95 time=0
EXTRACT: note_on channel=4 note=49 velocity=95 time=0
EXTRACT: note_on channel=6 note=64 velocity=95 time=0
EXTRACT: note_on channel=6 note=68 velocity=95 time=0
EXTRACT: note_off channel=12 note=35 velocity=95 time=0
EXTRACT: note_on channel=12 note=37 velocity=95 time=0
EXTRACT: note_off channel=9 note=42 velocity=95 time=0
EXTRACT: note_on channel=9 note=42 velocity=95 time=0
EXTRACT: note_on channel=9 note=36 velocity=95 time=0
EXTRACT: note_on channel=0 note=73 velocity=95 time=0.1666665
EXTRACT: note_on channel=0 note=68 velocity=95 time=0
EXTRACT: note_on channel=0 note=64 velocity=95 time=0
EXTRACT: note_on channel=0 note=61 velocity=95 time=0
EXTRACT: note_off channel=4 note=64 velocity=95 time=0
EXTRACT: note_off channel=4 note=61 velocity=95 time=0
EXTRACT: note_off channel=4 note=56 velocity=95 time=0
EXTRACT: note_off channel=4 note=49 velocity=95 time=0
EXTRACT: note_on channel=4 note=56 velocity=95 time=0
EXTRACT: note_on channel=4 note=52 velocity=95 time=0
EXTRACT: note_on channel=4 note=47 velocity=95 time=0
EXTRACT: note_off channel=9 note=42 velocity=95 time=0
EXTRACT: note_off channel=9 note=36 velocity=95 time=0
EXTRACT: note_off channel=4 note=56 velocity=95 time=0.031249968750000003
EXTRACT: note_off channel=4 note=52 velocity=95 time=0
EXTRACT: note_off channel=4 note=47 velocity=95 time=0
EXTRACT: note_off channel=0 note=73 velocity=95 time=0.13541653125
EXTRACT: note_off channel=0 note=68 velocity=95 time=0
EXTRACT: note_off channel=0 note=64 velocity=95 time=0
EXTRACT: note_off channel=0 note=61 velocity=95 time=0
EXTRACT: note_on channel=4 note=56 velocity=95 time=0
EXTRACT: note_on channel=4 note=52 velocity=95 time=0
EXTRACT: note_on channel=4 note=47 velocity=95 time=0
EXTRACT: note_on channel=9 note=42 velocity=95 time=0
EXTRACT: note_on channel=9 note=40 velocity=95 time=0
EXTRACT: note_off channel=4 note=56 velocity=95 time=0.031249968750000003
EXTRACT: note_off channel=4 note=52 velocity=95 time=0
EXTRACT: note_off channel=4 note=47 velocity=95 time=0
EXTRACT: note_off channel=6 note=64 velocity=95 time=0.07291659375000001
EXTRACT: note_off channel=6 note=68 velocity=95 time=0
EXTRACT: note_on channel=0 note=73 velocity=95 time=0.062499937500000005
EXTRACT: note_on channel=0 note=68 velocity=95 time=0
EXTRACT: note_on channel=0 note=64 velocity=95 time=0
EXTRACT: note_on channel=0 note=61 velocity=95 time=0
EXTRACT: note_on channel=4 note=64 velocity=95 time=0
EXTRACT: note_on channel=4 note=61 velocity=95 time=0
EXTRACT: note_on channel=4 note=56 velocity=95 time=0
EXTRACT: note_on channel=4 note=49 velocity=95 time=0
EXTRACT: note_on channel=6 note=68 velocity=95 time=0
EXTRACT: note_on channel=6 note=64 velocity=95 time=0
EXTRACT: note_off channel=12 note=37 velocity=95 time=0
EXTRACT: note_on channel=12 note=32 velocity=95 time=0
EXTRACT: note_off channel=9 note=42 velocity=95 time=0
EXTRACT: note_off channel=9 note=40 velocity=95 time=0
EXTRACT: note_on channel=9 note=42 velocity=95 time=0
EXTRACT: note_off channel=0 note=73 velocity=95 time=0.1666665
EXTRACT: note_off channel=0 note=68 velocity=95 time=0
EXTRACT: note_off channel=0 note=64 velocity=95 time=0
EXTRACT: note_off channel=0 note=61 velocity=95 time=0
EXTRACT: note_off channel=4 note=64 velocity=95 time=0
EXTRACT: note_off channel=4 note=61 velocity=95 time=0
EXTRACT: note_off channel=4 note=56 velocity=95 time=0
EXTRACT: note_off channel=4 note=49 velocity=95 time=0
EXTRACT: note_on channel=4 note=56 velocity=95 time=0
EXTRACT: note_on channel=4 note=52 velocity=95 time=0
EXTRACT: note_on channel=4 note=47 velocity=95 time=0
EXTRACT: note_off channel=9 note=42 velocity=95 time=0
EXTRACT: note_on channel=9 note=42 velocity=95 time=0
EXTRACT: note_on channel=9 note=36 velocity=95 time=0
EXTRACT: note_off channel=4 note=56 velocity=95 time=0.031249968750000003
EXTRACT: note_off channel=4 note=52 velocity=95 time=0
EXTRACT: note_off channel=4 note=47 velocity=95 time=0
EXTRACT: note_on channel=0 note=73 velocity=95 time=0.13541653125
EXTRACT: note_on channel=0 note=68 velocity=95 time=0
EXTRACT: note_on channel=0 note=64 velocity=95 time=0
EXTRACT: note_on channel=0 note=61 velocity=95 time=0
EXTRACT: note_on channel=4 note=56 velocity=95 time=0
EXTRACT: note_on channel=4 note=52 velocity=95 time=0
EXTRACT: note_on channel=4 note=47 velocity=95 time=0
EXTRACT: note_off channel=9 note=42 velocity=95 time=0
EXTRACT: note_off channel=9 note=36 velocity=95 time=0
EXTRACT: note_off channel=4 note=56 velocity=95 time=0.031249968750000003
EXTRACT: note_off channel=4 note=52 velocity=95 time=0
EXTRACT: note_off channel=4 note=47 velocity=95 time=0
EXTRACT: note_off channel=6 note=68 velocity=95 time=0.07291659375000001
EXTRACT: note_off channel=6 note=64 velocity=95 time=0
EXTRACT: note_off channel=0 note=73 velocity=95 time=0.062499937500000005
EXTRACT: note_off channel=0 note=68 velocity=95 time=0
EXTRACT: note_off channel=0 note=64 velocity=95 time=0
EXTRACT: note_off channel=0 note=61 velocity=95 time=0
EXTRACT: note_on channel=4 note=64 velocity=95 time=0
EXTRACT: note_on channel=4 note=61 velocity=95 time=0
EXTRACT: note_on channel=4 note=56 velocity=95 time=0
EXTRACT: note_on channel=4 note=49 velocity=95 time=0
EXTRACT: note_on channel=6 note=68 velocity=95 time=0
EXTRACT: note_on channel=6 note=64 velocity=95 time=0
EXTRACT: note_off channel=12 note=32 velocity=95 time=0
EXTRACT: note_on channel=12 note=35 velocity=95 time=0
EXTRACT: note_on channel=9 note=42 velocity=95 time=0
EXTRACT: note_on channel=9 note=40 velocity=95 time=0
EXTRACT: note_on channel=0 note=73 velocity=95 time=0.1666665
EXTRACT: note_on channel=0 note=68 velocity=95 time=0
EXTRACT: note_on channel=0 note=64 velocity=95 time=0
EXTRACT: note_on channel=0 note=61 velocity=95 time=0
EXTRACT: note_off channel=4 note=64 velocity=95 time=0
EXTRACT: note_off channel=4 note=61 velocity=95 time=0
EXTRACT: note_off channel=4 note=56 velocity=95 time=0
EXTRACT: note_off channel=4 note=49 velocity=95 time=0
EXTRACT: note_on channel=4 note=56 velocity=95 time=0
EXTRACT: note_on channel=4 note=52 velocity=95 time=0
EXTRACT: note_on channel=4 note=47 velocity=95 time=0
EXTRACT: note_off channel=9 note=42 velocity=95 time=0
EXTRACT: note_off channel=9 note=40 velocity=95 time=0
EXTRACT: note_on channel=9 note=42 velocity=95 time=0
EXTRACT: note_off channel=4 note=56 velocity=95 time=0.031249968750000003
EXTRACT: note_off channel=4 note=52 velocity=95 time=0
EXTRACT: note_off channel=4 note=47 velocity=95 time=0
EXTRACT: note_off channel=0 note=73 velocity=95 time=0.13541653125
EXTRACT: note_off channel=0 note=68 velocity=95 time=0
EXTRACT: note_off channel=0 note=64 velocity=95 time=0
EXTRACT: note_off channel=0 note=61 velocity=95 time=0
EXTRACT: note_on channel=4 note=56 velocity=95 time=0
EXTRACT: note_on channel=4 note=52 velocity=95 time=0
EXTRACT: note_on channel=4 note=47 velocity=95 time=0
EXTRACT: note_off channel=9 note=42 velocity=95 time=0
EXTRACT: note_on channel=9 note=42 velocity=95 time=0
EXTRACT: note_on channel=9 note=36 velocity=95 time=0
EXTRACT: note_off channel=4 note=56 velocity=95 time=0.031249968750000003
EXTRACT: note_off channel=4 note=52 velocity=95 time=0
EXTRACT: note_off channel=4 note=47 velocity=95 time=0
EXTRACT: note_on channel=0 note=73 velocity=95 time=0.13541653125
EXTRACT: note_on channel=0 note=68 velocity=95 time=0
EXTRACT: note_on channel=0 note=64 velocity=95 time=0
EXTRACT: note_on channel=0 note=61 velocity=95 time=0
EXTRACT: note_on channel=4 note=64 velocity=95 time=0
EXTRACT: note_on channel=4 note=61 velocity=95 time=0
EXTRACT: note_on channel=4 note=56 velocity=95 time=0
EXTRACT: note_on channel=4 note=49 velocity=95 time=0
EXTRACT: note_off channel=6 note=68 velocity=95 time=0
EXTRACT: note_off channel=6 note=64 velocity=95 time=0
EXTRACT: note_on channel=6 note=68 velocity=95 time=0
EXTRACT: note_on channel=6 note=64 velocity=95 time=0
EXTRACT: note_off channel=12 note=35 velocity=95 time=0
EXTRACT: note_on channel=12 note=37 velocity=95 time=0
EXTRACT: note_off channel=9 note=42 velocity=95 time=0
EXTRACT: note_off channel=9 note=36 velocity=95 time=0
EXTRACT: note_off channel=0 note=73 velocity=95 time=0.1666665
EXTRACT: note_off channel=0 note=68 velocity=95 time=0
EXTRACT: note_off channel=0 note=64 velocity=95 time=0
EXTRACT: note_off channel=0 note=61 velocity=95 time=0
EXTRACT: note_off channel=4 note=64 velocity=95 time=0
EXTRACT: note_off channel=4 note=61 velocity=95 time=0
EXTRACT: note_off channel=4 note=56 velocity=95 time=0
EXTRACT: note_off channel=4 note=49 velocity=95 time=0
EXTRACT: note_on channel=4 note=64 velocity=95 time=0
EXTRACT: note_on channel=4 note=61 velocity=95 time=0
EXTRACT: note_on channel=4 note=56 velocity=95 time=0
EXTRACT: note_on channel=4 note=49 velocity=95 time=0
EXTRACT: note_on channel=9 note=42 velocity=95 time=0
EXTRACT: note_on channel=9 note=40 velocity=95 time=0
EXTRACT: note_on channel=0 note=73 velocity=95 time=0.1666665
EXTRACT: note_on channel=0 note=68 velocity=95 time=0
EXTRACT: note_on channel=0 note=64 velocity=95 time=0
EXTRACT: note_on channel=0 note=61 velocity=95 time=0
EXTRACT: note_off channel=4 note=64 velocity=95 time=0
EXTRACT: note_off channel=4 note=61 velocity=95 time=0
EXTRACT: note_off channel=4 note=56 velocity=95 time=0
EXTRACT: note_off channel=4 note=49 velocity=95 time=0
EXTRACT: note_on channel=4 note=64 velocity=95 time=0
EXTRACT: note_on channel=4 note=61 velocity=95 time=0
EXTRACT: note_on channel=4 note=56 velocity=95 time=0
EXTRACT: note_on channel=4 note=49 velocity=95 time=0
EXTRACT: note_off channel=12 note=37 velocity=95 time=0
EXTRACT: note_on channel=12 note=37 velocity=95 time=0
EXTRACT: note_off channel=9 note=42 velocity=95 time=0
EXTRACT: note_off channel=9 note=40 velocity=95 time=0
EXTRACT: note_on channel=9 note=42 velocity=95 time=0
EXTRACT: note_off channel=6 note=68 velocity=95 time=0.1041665625
EXTRACT: note_off channel=6 note=64 velocity=95 time=0
EXTRACT: note_off channel=0 note=73 velocity=95 time=0.062499937500000005
EXTRACT: note_off channel=0 note=68 velocity=95 time=0
EXTRACT: note_off channel=0 note=64 velocity=95 time=0
EXTRACT: note_off channel=0 note=61 velocity=95 time=0
EXTRACT: note_off channel=4 note=64 velocity=95 time=0
EXTRACT: note_off channel=4 note=61 velocity=95 time=0
EXTRACT: note_off channel=4 note=56 velocity=95 time=0
EXTRACT: note_off channel=4 note=49 velocity=95 time=0
EXTRACT: note_on channel=4 note=64 velocity=95 time=0
EXTRACT: note_on channel=4 note=61 velocity=95 time=0
EXTRACT: note_on channel=4 note=56 velocity=95 time=0
EXTRACT: note_on channel=4 note=49 velocity=95 time=0
EXTRACT: note_on channel=6 note=68 velocity=95 time=0
EXTRACT: note_on channel=6 note=64 velocity=95 time=0
EXTRACT: note_off channel=12 note=37 velocity=95 time=0
EXTRACT: note_on channel=12 note=40 velocity=95 time=0
EXTRACT: note_off channel=9 note=42 velocity=95 time=0
EXTRACT: note_on channel=9 note=42 velocity=95 time=0
EXTRACT: note_on channel=0 note=73 velocity=95 time=0.1666665
EXTRACT: note_on channel=0 note=68 velocity=95 time=0
EXTRACT: note_on channel=0 note=64 velocity=95 time=0
EXTRACT: note_on channel=0 note=61 velocity=95 time=0
EXTRACT: pitchwheel channel=3 pitch=0 time=0
EXTRACT: note_on channel=3 note=54 velocity=95 time=0
EXTRACT: note_off channel=4 note=64 velocity=95 time=0
EXTRACT: note_off channel=4 note=61 velocity=95 time=0
EXTRACT: note_off channel=4 note=56 velocity=95 time=0
EXTRACT: note_off channel=4 note=49 velocity=95 time=0
EXTRACT: note_on channel=4 note=56 velocity=95 time=0
EXTRACT: note_on channel=4 note=52 velocity=95 time=0
EXTRACT: note_on channel=4 note=47 velocity=95 time=0
EXTRACT: note_off channel=12 note=40 velocity=95 time=0
EXTRACT: note_on channel=12 note=39 velocity=95 time=0
EXTRACT: note_off channel=9 note=42 velocity=95 time=0
EXTRACT: note_on channel=9 note=36 velocity=95 time=0
EXTRACT: pitchwheel channel=3 pitch=128 time=0.0072916593750000005
EXTRACT: pitchwheel channel=3 pitch=256 time=0.0072916593750000005
EXTRACT: pitchwheel channel=3 pitch=384 time=0.0072916593750000005
EXTRACT: pitchwheel channel=3 pitch=512 time=0.0072916593750000005
EXTRACT: note_off channel=4 note=56 velocity=95 time=0.00208333125
EXTRACT: note_off channel=4 note=52 velocity=95 time=0
EXTRACT: note_off channel=4 note=47 velocity=95 time=0
EXTRACT: pitchwheel channel=3 pitch=640 time=0.005208328125
EXTRACT: pitchwheel channel=3 pitch=768 time=0.0072916593750000005
EXTRACT: pitchwheel channel=3 pitch=896 time=0.0072916593750000005
EXTRACT: pitchwheel channel=3 pitch=1024 time=0.0072916593750000005
EXTRACT: pitchwheel channel=3 pitch=1152 time=0.0072916593750000005
EXTRACT: pitchwheel channel=3 pitch=1280 time=0.0072916593750000005
EXTRACT: pitchwheel channel=3 pitch=1408 time=0.0072916593750000005
EXTRACT: pitchwheel channel=3 pitch=1408 time=0.003124996875
EXTRACT: note_off channel=0 note=73 velocity=95 time=0.08333325
EXTRACT: note_off channel=0 note=68 velocity=95 time=0
EXTRACT: note_off channel=0 note=64 velocity=95 time=0
EXTRACT: note_off channel=0 note=61 velocity=95 time=0
EXTRACT: pitchwheel channel=3 pitch=1408 time=0
EXTRACT: note_on channel=4 note=56 velocity=95 time=0
EXTRACT: note_on channel=4 note=52 velocity=95 time=0
EXTRACT: note_on channel=4 note=47 velocity=95 time=0
EXTRACT: note_off channel=12 note=39 velocity=95 time=0
EXTRACT: note_on channel=12 note=37 velocity=95 time=0
EXTRACT: note_off channel=9 note=36 velocity=95 time=0
EXTRACT: note_on channel=9 note=42 velocity=95 time=0
EXTRACT: note_on channel=9 note=40 velocity=95 time=0
EXTRACT: pitchwheel channel=3 pitch=1280 time=0.0072916593750000005
EXTRACT: pitchwheel channel=3 pitch=1152 time=0.0072916593750000005
EXTRACT: pitchwheel channel=3 pitch=1024 time=0.0072916593750000005
EXTRACT: pitchwheel channel=3 pitch=896 time=0.0072916593750000005
EXTRACT: note_off channel=4 note=56 velocity=95 time=0.00208333125
EXTRACT: note_off channel=4 note=52 velocity=95 time=0
EXTRACT: note_off channel=4 note=47 velocity=95 time=0
EXTRACT: pitchwheel channel=3 pitch=768 time=0.005208328125
EXTRACT: pitchwheel channel=3 pitch=640 time=0.0072916593750000005
EXTRACT: pitchwheel channel=3 pitch=512 time=0.0072916593750000005
EXTRACT: pitchwheel channel=3 pitch=384 time=0.0072916593750000005
EXTRACT: pitchwheel channel=3 pitch=256 time=0.0072916593750000005
EXTRACT: pitchwheel channel=3 pitch=128 time=0.0072916593750000005
EXTRACT: pitchwheel channel=3 pitch=0 time=0.0072916593750000005
EXTRACT: pitchwheel channel=3 pitch=0 time=0.003124996875
EXTRACT: note_off channel=6 note=68 velocity=95 time=0.0208333125
EXTRACT: note_off channel=6 note=64 velocity=95 time=0
EXTRACT: note_on channel=0 note=73 velocity=95 time=0.062499937500000005
EXTRACT: note_on channel=0 note=68 velocity=95 time=0
EXTRACT: note_on channel=0 note=64 velocity=95 time=0
EXTRACT: note_on channel=0 note=61 velocity=95 time=0
EXTRACT: pitchwheel channel=3 pitch=0 time=0
EXTRACT: pitchwheel channel=3 pitch=0 time=0
EXTRACT: note_off channel=3 note=54 velocity=95 time=0
EXTRACT: note_on channel=2 note=52 velocity=95 time=0
EXTRACT: note_on channel=4 note=56 velocity=95 time=0
EXTRACT: note_on channel=4 note=52 velocity=95 time=0
EXTRACT: note_on channel=4 note=47 velocity=95 time=0
EXTRACT: note_off channel=12 note=37 velocity=95 time=0
EXTRACT: note_on channel=12 note=33 velocity=95 time=0
EXTRACT: note_off channel=9 note=42 velocity=95 time=0
EXTRACT: note_off channel=9 note=40 velocity=95 time=0
EXTRACT: note_on channel=9 note=42 velocity=95 time=0
EXTRACT: note_off channel=4 note=56 velocity=95 time=0.031249968750000003
EXTRACT: note_off channel=4 note=52 velocity=95 time=0
EXTRACT: note_off channel=4 note=47 velocity=95 time=0
EXTRACT: note_off channel=12 note=33 velocity=95 time=0
EXTRACT: note_off channel=0 note=73 velocity=95 time=0.13541653125
EXTRACT: note_off channel=0 note=68 velocity=95 time=0
EXTRACT: note_off channel=0 note=64 velocity=95 time=0
EXTRACT: note_off channel=0 note=61 velocity=95 time=0
EXTRACT: note_off channel=2 note=52 velocity=95 time=0
EXTRACT: note_on channel=4 note=63 velocity=95 time=0
EXTRACT: note_on channel=4 note=59 velocity=95 time=0
EXTRACT: note_on channel=4 note=54 velocity=95 time=0
EXTRACT: note_on channel=4 note=47 velocity=95 time=0
EXTRACT: note_on channel=6 note=63 velocity=95 time=0
EXTRACT: note_on channel=12 note=35 velocity=95 time=0
EXTRACT: note_off channel=9 note=42 velocity=95 time=0
EXTRACT: note_on channel=9 note=42 velocity=95 time=0
EXTRACT: note_on channel=9 note=36 velocity=95 time=0
EXTRACT: note_on channel=0 note=71 velocity=95 time=0.1666665
EXTRACT: note_on channel=0 note=66 velocity=95 time=0
EXTRACT: note_on channel=0 note=63 velocity=95 time=0
EXTRACT: note_on channel=0 note=59 velocity=95 time=0
EXTRACT: note_off channel=4 note=63 velocity=95 time=0
EXTRACT: note_off channel=4 note=59 velocity=95 time=0
EXTRACT: note_off channel=4 note=54 velocity=95 time=0
EXTRACT: note_off channel=4 note=47 velocity=95 time=0
EXTRACT: note_on channel=4 note=56 velocity=95 time=0
EXTRACT: note_on channel=4 note=52 velocity=95 time=0
EXTRACT: note_on channel=4 note=47 velocity=95 time=0
EXTRACT: note_off channel=6 note=63 velocity=95 time=0
EXTRACT: note_on channel=6 note=63 velocity=95 time=0
EXTRACT: note_off channel=9 note=42 velocity=95 time=0
EXTRACT: note_off channel=9 note=36 velocity=95 time=0
EXTRACT: note_off channel=4 note=56 velocity=95 time=0.031249968750000003
EXTRACT: note_off channel=4 note=52 velocity=95 time=0
EXTRACT: note_off channel=4 note=47 velocity=95 time=0
EXTRACT: note_off channel=0 note=71 velocity=95 time=0.13541653125
EXTRACT: note_off channel=0 note=66 velocity=95 time=0
EXTRACT: note_off channel=0 note=63 velocity=95 time=0
EXTRACT: note_off channel=0 note=59 velocity=95 time=0
EXTRACT: note_on channel=3 note=56 velocity=95 time=0
EXTRACT: note_on channel=4 note=56 velocity=95 time=0
EXTRACT: note_on channel=4 note=52 velocity=95 time=0
EXTRACT: note_on channel=4 note=47 velocity=95 time=0
EXTRACT: note_off channel=6 note=63 velocity=95 time=0
EXTRACT: note_on channel=6 note=63 velocity=95 time=0
EXTRACT: note_off channel=12 note=35 velocity=95 time=0
EXTRACT: note_on channel=9 note=42 velocity=95 time=0
EXTRACT: note_on channel=9 note=40 velocity=95 time=0
EXTRACT: note_off channel=4 note=56 velocity=95 time=0.031249968750000003
EXTRACT: note_off channel=4 note=52 velocity=95 time=0
EXTRACT: note_off channel=4 note=47 velocity=95 time=0
EXTRACT: pitchwheel channel=3 pitch=-1408 time=0.01041665625
EXTRACT: pitchwheel channel=3 pitch=0 time=0
EXTRACT: note_off channel=3 note=56 velocity=95 time=0
EXTRACT: note_on channel=2 note=54 velocity=95 time=0
EXTRACT: note_on channel=0 note=71 velocity=95 time=0.12499987500000001
EXTRACT: note_on channel=0 note=66 velocity=95 time=0
EXTRACT: note_on channel=0 note=63 velocity=95 time=0
EXTRACT: note_on channel=0 note=59 velocity=95 time=0
EXTRACT: note_off channel=2 note=54 velocity=95 time=0
EXTRACT: note_on channel=2 note=52 velocity=95 time=0
EXTRACT: note_on channel=4 note=63 velocity=95 time=0
EXTRACT: note_on channel=4 note=59 velocity=95 time=0
EXTRACT: note_on channel=4 note=54 velocity=95 time=0
EXTRACT: note_on channel=4 note=47 velocity=95 time=0
EXTRACT: note_off channel=6 note=63 velocity=95 time=0
EXTRACT: note_on channel=6 note=63 velocity=95 time=0
EXTRACT: note_on channel=12 note=30 velocity=95 time=0
EXTRACT: note_off channel=9 note=42 velocity=95 time=0
EXTRACT: note_off channel=9 note=40 velocity=95 time=0
EXTRACT: note_on channel=9 note=42 velocity=95 time=0
EXTRACT: note_off channel=0 note=71 velocity=95 time=0.1666665
EXTRACT: note_off channel=0 note=66 velocity=95 time=0
EXTRACT: note_off channel=0 note=63 velocity=95 time=0
EXTRACT: note_off channel=0 note=59 velocity=95 time=0
EXTRACT: note_off channel=2 note=52 velocity=95 time=0
EXTRACT: note_on channel=3 note=49 velocity=95 time=0
EXTRACT: note_off channel=4 note=63 velocity=95 time=0
EXTRACT: note_off channel=4 note=59 velocity=95 time=0
EXTRACT: note_off channel=4 note=54 velocity=95 time=0
EXTRACT: note_off channel=4 note=47 velocity=95 time=0
EXTRACT: note_on channel=4 note=56 velocity=95 time=0
EXTRACT: note_on channel=4 note=52 velocity=95 time=0
EXTRACT: note_on channel=4 note=47 velocity=95 time=0
EXTRACT: note_off channel=12 note=30 velocity=95 time=0
EXTRACT: note_on channel=12 note=30 velocity=95 time=0
EXTRACT: note_off channel=9 note=42 velocity=95 time=0
EXTRACT: note_on channel=9 note=42 velocity=95 time=0
EXTRACT: note_on channel=9 note=36 velocity=95 time=0
EXTRACT: note_off channel=4 note=56 velocity=95 time=0.031249968750000003
EXTRACT: note_off channel=4 note=52 velocity=95 time=0
EXTRACT: note_off channel=4 note=47 velocity=95 time=0
EXTRACT: pitchwheel channel=3 pitch=0 time=0.02430553125
EXTRACT: pitchwheel channel=3 pitch=128 time=0.0555555
EXTRACT: note_on channel=0 note=71 velocity=95 time=0.0555555
EXTRACT: note_on channel=0 note=66 velocity=95 time=0
EXTRACT: note_on channel=0 note=63 velocity=95 time=0
EXTRACT: note_on channel=0 note=59 velocity=95 time=0
EXTRACT: pitchwheel channel=3 pitch=0 time=0
EXTRACT: note_on channel=4 note=56 velocity=95 time=0
EXTRACT: note_on channel=4 note=52 velocity=95 time=0
EXTRACT: note_on channel=4 note=47 velocity=95 time=0
EXTRACT: note_off channel=6 note=63 velocity=95 time=0
EXTRACT: note_on channel=6 note=64 velocity=95 time=0
EXTRACT: note_off channel=9 note=42 velocity=95 time=0
EXTRACT: note_off channel=9 note=36 velocity=95 time=0
EXTRACT: note_off channel=4 note=56 velocity=95 time=0.031249968750000003
EXTRACT: note_off channel=4 note=52 velocity=95 time=0
EXTRACT: note_off channel=4 note=47 velocity=95 time=0
EXTRACT: pitchwheel channel=3 pitch=128 time=0.02430553125
EXTRACT: pitchwheel channel=3 pitch=0 time=0.0555555
EXTRACT: note_off channel=0 note=71 velocity=95 time=0.0555555
EXTRACT: note_off channel=0 note=66 velocity=95 time=0
EXTRACT: note_off channel=0 note=63 velocity=95 time=0
EXTRACT: note_off channel=0 note=59 velocity=95 time=0
EXTRACT: pitchwheel channel=3 pitch=128 time=0
EXTRACT: note_on channel=4 note=56 velocity=95 time=0
EXTRACT: note_on channel=4 note=52 velocity=95 time=0
EXTRACT: note_on channel=4 note=47 velocity=95 time=0
EXTRACT: note_off channel=12 note=30 velocity=95 time=0
EXTRACT: note_on channel=12 note=33 velocity=95 time=0
EXTRACT: note_on channel=9 note=42 velocity=95 time=0
EXTRACT: note_on channel=9 note=40 velocity=95 time=0
EXTRACT: note_off channel=4 note=56 velocity=95 time=0.031249968750000003
EXTRACT: note_off channel=4 note=52 velocity=95 time=0
EXTRACT: note_off channel=4 note=47 velocity=95 time=0
EXTRACT: pitchwheel channel=3 pitch=0 time=0.02430553125
EXTRACT: pitchwheel channel=3 pitch=128 time=0.0555555
EXTRACT: note_on channel=0 note=71 velocity=95 time=0.0555555
EXTRACT: note_on channel=0 note=66 velocity=95 time=0
EXTRACT: note_on channel=0 note=63 velocity=95 time=0
EXTRACT: note_on channel=0 note=59 velocity=95 time=0
EXTRACT: pitchwheel channel=3 pitch=0 time=0
EXTRACT: note_on channel=4 note=56 velocity=95 time=0
EXTRACT: note_on channel=4 note=52 velocity=95 time=0
EXTRACT: note_on channel=4 note=47 velocity=95 time=0
EXTRACT: note_off channel=6 note=64 velocity=95 time=0
EXTRACT: note_on channel=6 note=63 velocity=95 time=0
EXTRACT: note_off channel=9 note=42 velocity=95 time=0
EXTRACT: note_off channel=9 note=40 velocity=95 time=0
EXTRACT: note_on channel=9 note=42 velocity=95 time=0
EXTRACT: note_off channel=4 note=56 velocity=95 time=0.031249968750000003
EXTRACT: note_off channel=4 note=52 velocity=95 time=0
EXTRACT: note_off channel=4 note=47 velocity=95 time=0
EXTRACT: pitchwheel channel=3 pitch=128 time=0.02430553125
EXTRACT: pitchwheel channel=3 pitch=0 time=0.0555555
EXTRACT: note_off channel=0 note=71 velocity=95 time=0.0555555
EXTRACT: note_off channel=0 note=66 velocity=95 time=0
EXTRACT: note_off channel=0 note=63 velocity=95 time=0
EXTRACT: note_off channel=0 note=59 velocity=95 time=0
EXTRACT: pitchwheel channel=3 pitch=128 time=0
EXTRACT: pitchwheel channel=3 pitch=0 time=0
EXTRACT: note_off channel=3 note=49 velocity=95 time=0
EXTRACT: note_on channel=4 note=56 velocity=95 time=0
EXTRACT: note_on channel=4 note=52 velocity=95 time=0
EXTRACT: note_on channel=4 note=47 velocity=95 time=0
EXTRACT: note_off channel=12 note=33 velocity=95 time=0
EXTRACT: note_on channel=12 note=37 velocity=95 time=0
EXTRACT: note_off channel=9 note=42 velocity=95 time=0
EXTRACT: note_on channel=9 note=42 velocity=95 time=0
EXTRACT: note_on channel=9 note=36 velocity=95 time=0
EXTRACT: note_off channel=4 note=56 velocity=95 time=0.031249968750000003
EXTRACT: note_off channel=4 note=52 velocity=95 time=0
EXTRACT: note_off channel=4 note=47 velocity=95 time=0
EXTRACT: note_on channel=0 note=73 velocity=95 time=0.13541653125
EXTRACT: note_on channel=0 note=68 velocity=95 time=0
EXTRACT: note_on channel=0 note=64 velocity=95 time=0
EXTRACT: note_on channel=0 note=61 velocity=95 time=0
EXTRACT: note_on channel=2 note=56 velocity=95 time=0
EXTRACT: note_on channel=4 note=64 velocity=95 time=0
EXTRACT: note_on channel=4 note=61 velocity=95 time=0
EXTRACT: note_on channel=4 note=56 velocity=95 time=0
EXTRACT: note_on channel=4 note=49 velocity=95 time=0
EXTRACT: note_off channel=6 note=63 velocity=95 time=0
EXTRACT: note_on channel=6 note=61 velocity=95 time=0
EXTRACT: note_off channel=9 note=42 velocity=95 time=0
EXTRACT: note_off channel=9 note=36 velocity=95 time=0
EXTRACT: note_off channel=0 note=73 velocity=95 time=0.1666665
EXTRACT: note_off channel=0 note=68 velocity=95 time=0
EXTRACT: note_off channel=0 note=64 velocity=95 time=0
EXTRACT: note_off channel=0 note=61 velocity=95 time=0
EXTRACT: note_off channel=2 note=56 velocity=95 time=0
EXTRACT: note_on channel=2 note=61 velocity=95 time=0
EXTRACT: note_off channel=4 note=64 velocity=95 time=0
EXTRACT: note_off channel=4 note=61 velocity=95 time=0
EXTRACT: note_off channel=4 note=56 velocity=95 time=0
EXTRACT: note_off channel=4 note=49 velocity=95 time=0
EXTRACT: note_on channel=4 note=64 velocity=95 time=0
EXTRACT: note_on channel=4 note=61 velocity=95 time=0
EXTRACT: note_on channel=4 note=56 velocity=95 time=0
EXTRACT: note_on channel=4 note=49 velocity=95 time=0
EXTRACT: note_on channel=9 note=42 velocity=95 time=0
EXTRACT: note_on channel=9 note=40 velocity=95 time=0
EXTRACT: note_on channel=0 note=73 velocity=95 time=0.1666665
EXTRACT: note_on channel=0 note=68 velocity=95 time=0
EXTRACT: note_on channel=0 note=64 velocity=95 time=0
EXTRACT: note_on channel=0 note=61 velocity=95 time=0
EXTRACT: note_off channel=2 note=61 velocity=95 time=0
EXTRACT: note_on channel=2 note=61 velocity=95 time=0
EXTRACT: note_off channel=4 note=64 velocity=95 time=0
EXTRACT: note_off channel=4 note=61 velocity=95 time=0
EXTRACT: note_off channel=4 note=56 velocity=95 time=0
EXTRACT: note_off channel=4 note=49 velocity=95 time=0
EXTRACT: note_on channel=4 note=64 velocity=95 time=0
EXTRACT: note_on channel=4 note=61 velocity=95 time=0
EXTRACT: note_on channel=4 note=56 velocity=95 time=0
EXTRACT: note_on channel=4 note=49 velocity=95 time=0
EXTRACT: note_off channel=12 note=37 velocity=95 time=0
EXTRACT: note_on channel=12 note=37 velocity=95 time=0
EXTRACT: note_off channel=9 note=42 velocity=95 time=0
EXTRACT: note_off channel=9 note=40 velocity=95 time=0
EXTRACT: note_on channel=9 note=42 velocity=95 time=0
EXTRACT: note_off channel=0 note=73 velocity=95 time=0.1666665
EXTRACT: note_off channel=0 note=68 velocity=95 time=0
EXTRACT: note_off channel=0 note=64 velocity=95 time=0
EXTRACT: note_off channel=0 note=61 velocity=95 time=0
EXTRACT: note_off channel=2 note=61 velocity=95 time=0
EXTRACT: note_on channel=2 note=61 velocity=95 time=0
EXTRACT: note_off channel=4 note=64 velocity=95 time=0
EXTRACT: note_off channel=4 note=61 velocity=95 time=0
EXTRACT: note_off channel=4 note=56 velocity=95 time=0
EXTRACT: note_off channel=4 note=49 velocity=95 time=0
EXTRACT: note_on channel=4 note=64 velocity=95 time=0
EXTRACT: note_on channel=4 note=61 velocity=95 time=0
EXTRACT: note_on channel=4 note=56 velocity=95 time=0
EXTRACT: note_on channel=4 note=49 velocity=95 time=0
EXTRACT: note_off channel=12 note=37 velocity=95 time=0
EXTRACT: note_on channel=12 note=32 velocity=95 time=0
EXTRACT: note_off channel=9 note=42 velocity=95 time=0
EXTRACT: note_on channel=9 note=42 velocity=95 time=0
EXTRACT: note_off channel=6 note=61 velocity=95 time=0.08333325
EXTRACT: note_on channel=0 note=73 velocity=95 time=0.08333325
EXTRACT: note_on channel=0 note=68 velocity=95 time=0
EXTRACT: note_on channel=0 note=64 velocity=95 time=0
EXTRACT: note_on channel=0 note=61 velocity=95 time=0
EXTRACT: note_off channel=2 note=61 velocity=95 time=0
EXTRACT: note_on channel=2 note=61 velocity=95 time=0
EXTRACT: note_off channel=4 note=64 velocity=95 time=0
EXTRACT: note_off channel=4 note=61 velocity=95 time=0
EXTRACT: note_off channel=4 note=56 velocity=95 time=0
EXTRACT: note_off channel=4 note=49 velocity=95 time=0
EXTRACT: note_on channel=4 note=64 velocity=95 time=0
EXTRACT: note_on channel=4 note=61 velocity=95 time=0
EXTRACT: note_on channel=4 note=56 velocity=95 time=0
EXTRACT: note_on channel=4 note=49 velocity=95 time=0
EXTRACT: note_off channel=9 note=42 velocity=95 time=0
EXTRACT: note_on channel=9 note=36 velocity=95 time=0
EXTRACT: note_off channel=0 note=73 velocity=95 time=0.1666665
EXTRACT: note_off channel=0 note=68 velocity=95 time=0
EXTRACT: note_off channel=0 note=64 velocity=95 time=0
EXTRACT: note_off channel=0 note=61 velocity=95 time=0
EXTRACT: note_off channel=2 note=61 velocity=95 time=0
EXTRACT: note_on channel=2 note=61 velocity=95 time=0
EXTRACT: note_off channel=4 note=64 velocity=95 time=0
EXTRACT: note_off channel=4 note=61 velocity=95 time=0
EXTRACT: note_off channel=4 note=56 velocity=95 time=0
EXTRACT: note_off channel=4 note=49 velocity=95 time=0
EXTRACT: note_on channel=4 note=56 velocity=95 time=0
EXTRACT: note_on channel=4 note=52 velocity=95 time=0
EXTRACT: note_on channel=4 note=47 velocity=95 time=0
EXTRACT: note_off channel=12 note=32 velocity=95 time=0
EXTRACT: note_on channel=12 note=35 velocity=95 time=0
EXTRACT: note_on channel=14 note=80 velocity=95 time=0
EXTRACT: note_on channel=14 note=73 velocity=95 time=0
EXTRACT: note_off channel=9 note=36 velocity=95 time=0
EXTRACT: note_on channel=9 note=42 velocity=95 time=0
EXTRACT: note_on channel=9 note=40 velocity=95 time=0
EXTRACT: note_off channel=4 note=56 velocity=95 time=0.031249968750000003
EXTRACT: note_off channel=4 note=52 velocity=95 time=0
EXTRACT: note_off channel=4 note=47 velocity=95 time=0
EXTRACT: note_on channel=0 note=73 velocity=95 time=0.13541653125
EXTRACT: note_on channel=0 note=68 velocity=95 time=0
EXTRACT: note_on channel=0 note=64 velocity=95 time=0
EXTRACT: note_on channel=0 note=61 velocity=95 time=0
EXTRACT: note_on channel=4 note=56 velocity=95 time=0
EXTRACT: note_on channel=4 note=52 velocity=95 time=0
EXTRACT: note_on channel=4 note=47 velocity=95 time=0
EXTRACT: note_off channel=12 note=35 velocity=95 time=0
EXTRACT: note_on channel=12 note=35 velocity=95 time=0
EXTRACT: note_off channel=14 note=80 velocity=95 time=0
EXTRACT: note_off channel=14 note=73 velocity=95 time=0
EXTRACT: note_off channel=9 note=42 velocity=95 time=0
EXTRACT: note_off channel=9 note=40 velocity=95 time=0
EXTRACT: note_on channel=9 note=42 velocity=95 time=0
EXTRACT: note_off channel=4 note=56 velocity=95 time=0.031249968750000003
EXTRACT: note_off channel=4 note=52 velocity=95 time=0
EXTRACT: note_off channel=4 note=47 velocity=95 time=0
EXTRACT: note_off channel=0 note=73 velocity=95 time=0.13541653125
EXTRACT: note_off channel=0 note=68 velocity=95 time=0
EXTRACT: note_off channel=0 note=64 velocity=95 time=0
EXTRACT: note_off channel=0 note=61 velocity=95 time=0
EXTRACT: note_off channel=2 note=61 velocity=95 time=0
EXTRACT: note_on channel=4 note=64 velocity=95 time=0
EXTRACT: note_on channel=4 note=61 velocity=95 time=0
EXTRACT: note_on channel=4 note=56 velocity=95 time=0
EXTRACT: note_on channel=4 note=49 velocity=95 time=0
EXTRACT: note_on channel=6 note=68 velocity=95 time=0
EXTRACT: note_on channel=6 note=64 velocity=95 time=0
EXTRACT: note_off channel=12 note=35 velocity=95 time=0
EXTRACT: note_on channel=12 note=37 velocity=95 time=0
EXTRACT: note_off channel=9 note=42 velocity=95 time=0
EXTRACT: note_on channel=9 note=42 velocity=95 time=0
EXTRACT: note_on channel=9 note=36 velocity=95 time=0
EXTRACT: note_on channel=0 note=73 velocity=95 time=0.1666665
EXTRACT: note_on channel=0 note=68 velocity=95 time=0
EXTRACT: note_on channel=0 note=64 velocity=95 time=0
EXTRACT: note_on channel=0 note=61 velocity=95 time=0
EXTRACT: note_off channel=4 note=64 velocity=95 time=0
EXTRACT: note_off channel=4 note=61 velocity=95 time=0
EXTRACT: note_off channel=4 note=56 velocity=95 time=0
EXTRACT: note_off channel=4 note=49 velocity=95 time=0
EXTRACT: note_on channel=4 note=56 velocity=95 time=0
EXTRACT: note_on channel=4 note=52 velocity=95 time=0
EXTRACT: note_on channel=4 note=47 velocity=95 time=0
EXTRACT: note_off channel=9 note=42 velocity=95 time=0
EXTRACT: note_off channel=9 note=36 velocity=95 time=0
EXTRACT: note_off channel=4 note=56 velocity=95 time=0.031249968750000003
EXTRACT: note_off channel=4 note=52 velocity=95 time=0
EXTRACT: note_off channel=4 note=47 velocity=95 time=0
EXTRACT: note_off channel=0 note=73 velocity=95 time=0.13541653125
EXTRACT: note_off channel=0 note=68 velocity=95 time=0
EXTRACT: note_off channel=0 note=64 velocity=95 time=0
EXTRACT: note_off channel=0 note=61 velocity=95 time=0
EXTRACT: note_on channel=4 note=56 velocity=95 time=0
EXTRACT: note_on channel=4 note=52 velocity=95 time=0
EXTRACT: note_on channel=4 note=47 velocity=95 time=0
EXTRACT: note_on channel=9 note=42 velocity=95 time=0
EXTRACT: note_on channel=9 note=40 velocity=95 time=0
EXTRACT: note_off channel=4 note=56 velocity=95 time=0.031249968750000003
EXTRACT: note_off channel=4 note=52 velocity=95 time=0
EXTRACT: note_off channel=4 note=47 velocity=95 time=0
EXTRACT: note_off channel=6 note=68 velocity=95 time=0.07291659375000001
EXTRACT: note_off channel=6 note=64 velocity=95 time=0
EXTRACT: note_on channel=0 note=73 velocity=95 time=0.062499937500000005
EXTRACT: note_on channel=0 note=68 velocity=95 time=0
EXTRACT: note_on channel=0 note=64 velocity=95 time=0
EXTRACT: note_on channel=0 note=61 velocity=95 time=0
EXTRACT: note_on channel=4 note=64 velocity=95 time=0
EXTRACT: note_on channel=4 note=61 velocity=95 time=0
EXTRACT: note_on channel=4 note=56 velocity=95 time=0
EXTRACT: note_on channel=4 note=49 velocity=95 time=0
EXTRACT: note_on channel=6 note=68 velocity=95 time=0
EXTRACT: note_on channel=6 note=64 velocity=95 time=0
EXTRACT: note_off channel=12 note=37 velocity=95 time=0
EXTRACT: note_on channel=12 note=32 velocity=95 time=0
EXTRACT: note_off channel=9 note=42 velocity=95 time=0
EXTRACT: note_off channel=9 note=40 velocity=95 time=0
EXTRACT: note_on channel=9 note=42 velocity=95 time=0
EXTRACT: note_off channel=0 note=73 velocity=95 time=0.1666665
EXTRACT: note_off channel=0 note=68 velocity=95 time=0
EXTRACT: note_off channel=0 note=64 velocity=95 time=0
EXTRACT: note_off channel=0 note=61 velocity=95 time=0
EXTRACT: note_off channel=4 note=64 velocity=95 time=0
EXTRACT: note_off channel=4 note=61 velocity=95 time=0
EXTRACT: note_off channel=4 note=56 velocity=95 time=0
EXTRACT: note_off channel=4 note=49 velocity=95 time=0
EXTRACT: note_on channel=4 note=56 velocity=95 time=0
EXTRACT: note_on channel=4 note=52 velocity=95 time=0
EXTRACT: note_on channel=4 note=47 velocity=95 time=0
EXTRACT: note_off channel=9 note=42 velocity=95 time=0
EXTRACT: note_on channel=9 note=42 velocity=95 time=0
EXTRACT: note_on channel=9 note=36 velocity=95 time=0
EXTRACT: note_off channel=4 note=56 velocity=95 time=0.031249968750000003
EXTRACT: note_off channel=4 note=52 velocity=95 time=0
EXTRACT: note_off channel=4 note=47 velocity=95 time=0
EXTRACT: note_on channel=0 note=73 velocity=95 time=0.13541653125
EXTRACT: note_on channel=0 note=68 velocity=95 time=0
EXTRACT: note_on channel=0 note=64 velocity=95 time=0
EXTRACT: note_on channel=0 note=61 velocity=95 time=0
EXTRACT: note_on channel=2 note=73 velocity=95 time=0
EXTRACT: note_on channel=2 note=68 velocity=95 time=0
EXTRACT: note_on channel=4 note=56 velocity=95 time=0
EXTRACT: note_on channel=4 note=52 velocity=95 time=0
EXTRACT: note_on channel=4 note=47 velocity=95 time=0
EXTRACT: note_off channel=9 note=42 velocity=95 time=0
EXTRACT: note_off channel=9 note=36 velocity=95 time=0
EXTRACT: note_off channel=4 note=56 velocity=95 time=0.031249968750000003
EXTRACT: note_off channel=4 note=52 velocity=95 time=0
EXTRACT: note_off channel=4 note=47 velocity=95 time=0
EXTRACT: note_off channel=6 note=68 velocity=95 time=0.07291659375000001
EXTRACT: note_off channel=6 note=64 velocity=95 time=0
EXTRACT: note_off channel=0 note=73 velocity=95 time=0.062499937500000005
EXTRACT: note_off channel=0 note=68 velocity=95 time=0
EXTRACT: note_off channel=0 note=64 velocity=95 time=0
EXTRACT: note_off channel=0 note=61 velocity=95 time=0
EXTRACT: note_off channel=2 note=73 velocity=95 time=0
EXTRACT: note_off channel=2 note=68 velocity=95 time=0
EXTRACT: note_on channel=4 note=64 velocity=95 time=0
EXTRACT: note_on channel=4 note=61 velocity=95 time=0
EXTRACT: note_on channel=4 note=56 velocity=95 time=0
EXTRACT: note_on channel=4 note=49 velocity=95 time=0
EXTRACT: note_on channel=6 note=68 velocity=95 time=0
EXTRACT: note_on channel=6 note=64 velocity=95 time=0
EXTRACT: note_off channel=12 note=32 velocity=95 time=0
EXTRACT: note_on channel=12 note=35 velocity=95 time=0
EXTRACT: note_on channel=9 note=42 velocity=95 time=0
EXTRACT: note_on channel=9 note=40 velocity=95 time=0
EXTRACT: note_on channel=0 note=73 velocity=95 time=0.1666665
EXTRACT: note_on channel=0 note=68 velocity=95 time=0
EXTRACT: note_on channel=0 note=64 velocity=95 time=0
EXTRACT: note_on channel=0 note=61 velocity=95 time=0
EXTRACT: note_on channel=2 note=73 velocity=95 time=0
EXTRACT: note_on channel=2 note=68 velocity=95 time=0
EXTRACT: note_off channel=4 note=64 velocity=95 time=0
EXTRACT: note_off channel=4 note=61 velocity=95 time=0
EXTRACT: note_off channel=4 note=56 velocity=95 time=0
EXTRACT: note_off channel=4 note=49 velocity=95 time=0
EXTRACT: note_on channel=4 note=56 velocity=95 time=0
EXTRACT: note_on channel=4 note=52 velocity=95 time=0
EXTRACT: note_on channel=4 note=47 velocity=95 time=0
EXTRACT: note_off channel=9 note=42 velocity=95 time=0
EXTRACT: note_off channel=9 note=40 velocity=95 time=0
EXTRACT: note_on channel=9 note=42 velocity=95 time=0
EXTRACT: note_off channel=4 note=56 velocity=95 time=0.031249968750000003
EXTRACT: note_off channel=4 note=52 velocity=95 time=0
EXTRACT: note_off channel=4 note=47 velocity=95 time=0
EXTRACT: note_off channel=0 note=73 velocity=95 time=0.13541653125
EXTRACT: note_off channel=0 note=68 velocity=95 time=0
EXTRACT: note_off channel=0 note=64 velocity=95 time=0
EXTRACT: note_off channel=0 note=61 velocity=95 time=0
EXTRACT: note_off channel=2 note=73 velocity=95 time=0
EXTRACT: note_off channel=2 note=68 velocity=95 time=0
EXTRACT: note_on channel=2 note=71 velocity=95 time=0
EXTRACT: note_on channel=2 note=66 velocity=95 time=0
EXTRACT: note_on channel=4 note=56 velocity=95 time=0
EXTRACT: note_on channel=4 note=52 velocity=95 time=0
EXTRACT: note_on channel=4 note=47 velocity=95 time=0
EXTRACT: note_off channel=9 note=42 velocity=95 time=0
EXTRACT: note_on channel=9 note=42 velocity=95 time=0
EXTRACT: note_on channel=9 note=36 velocity=95 time=0
EXTRACT: note_off channel=4 note=56 velocity=95 time=0.031249968750000003
EXTRACT: note_off channel=4 note=52 velocity=95 time=0
EXTRACT: note_off channel=4 note=47 velocity=95 time=0
EXTRACT: note_on channel=0 note=73 velocity=95 time=0.13541653125
EXTRACT: note_on channel=0 note=68 velocity=95 time=0
EXTRACT: note_on channel=0 note=64 velocity=95 time=0
EXTRACT: note_on channel=0 note=61 velocity=95 time=0
EXTRACT: note_on channel=4 note=64 velocity=95 time=0
EXTRACT: note_on channel=4 note=61 velocity=95 time=0
EXTRACT: note_on channel=4 note=56 velocity=95 time=0
EXTRACT: note_on channel=4 note=49 velocity=95 time=0
EXTRACT: note_off channel=6 note=68 velocity=95 time=0
EXTRACT: note_off channel=6 note=64 velocity=95 time=0
EXTRACT: note_on channel=6 note=68 velocity=95 time=0
EXTRACT: note_on channel=6 note=64 velocity=95 time=0
EXTRACT: note_off channel=12 note=35 velocity=95 time=0
EXTRACT: note_on channel=12 note=37 velocity=95 time=0
EXTRACT: note_off channel=9 note=42 velocity=95 time=0
EXTRACT: note_off channel=9 note=36 velocity=95 time=0
EXTRACT: note_off channel=0 note=73 velocity=95 time=0.1666665
EXTRACT: note_off channel=0 note=68 velocity=95 time=0
EXTRACT: note_off channel=0 note=64 velocity=95 time=0
EXTRACT: note_off channel=0 note=61 velocity=95 time=0
EXTRACT: note_off channel=4 note=64 velocity=95 time=0
EXTRACT: note_off channel=4 note=61 velocity=95 time=0
EXTRACT: note_off channel=4 note=56 velocity=95 time=0
EXTRACT: note_off channel=4 note=49 velocity=95 time=0
EXTRACT: note_on channel=4 note=64 velocity=95 time=0
EXTRACT: note_on channel=4 note=61 velocity=95 time=0
EXTRACT: note_on channel=4 note=56 velocity=95 time=0
EXTRACT: note_on channel=4 note=49 velocity=95 time=0
EXTRACT: note_on channel=9 note=42 velocity=95 time=0
EXTRACT: note_on channel=9 note=40 velocity=95 time=0
EXTRACT: note_on channel=0 note=73 velocity=95 time=0.1666665
EXTRACT: note_on channel=0 note=68 velocity=95 time=0
EXTRACT: note_on channel=0 note=64 velocity=95 time=0
EXTRACT: note_on channel=0 note=61 velocity=95 time=0
EXTRACT: note_off channel=2 note=71 velocity=95 time=0
EXTRACT: note_off channel=2 note=66 velocity=95 time=0
EXTRACT: note_on channel=3 note=71 velocity=95 time=0
EXTRACT: note_on channel=3 note=66 velocity=95 time=0
EXTRACT: note_off channel=4 note=64 velocity=95 time=0
EXTRACT: note_off channel=4 note=61 velocity=95 time=0
EXTRACT: note_off channel=4 note=56 velocity=95 time=0
EXTRACT: note_off channel=4 note=49 velocity=95 time=0
EXTRACT: note_on channel=4 note=64 velocity=95 time=0
EXTRACT: note_on channel=4 note=61 velocity=95 time=0
EXTRACT: note_on channel=4 note=56 velocity=95 time=0
EXTRACT: note_on channel=4 note=49 velocity=95 time=0
EXTRACT: note_off channel=12 note=37 velocity=95 time=0
EXTRACT: note_on channel=12 note=37 velocity=95 time=0
EXTRACT: note_off channel=9 note=42 velocity=95 time=0
EXTRACT: note_off channel=9 note=40 velocity=95 time=0
EXTRACT: note_on channel=9 note=42 velocity=95 time=0
EXTRACT: note_off channel=6 note=68 velocity=95 time=0.1041665625
EXTRACT: note_off channel=6 note=64 velocity=95 time=0
EXTRACT: note_off channel=0 note=73 velocity=95 time=0.062499937500000005
EXTRACT: note_off channel=0 note=68 velocity=95 time=0
EXTRACT: note_off channel=0 note=64 velocity=95 time=0
EXTRACT: note_off channel=0 note=61 velocity=95 time=0
EXTRACT: note_off channel=3 note=71 velocity=95 time=0
EXTRACT: note_off channel=3 note=66 velocity=95 time=0
EXTRACT: note_off channel=4 note=64 velocity=95 time=0
EXTRACT: note_off channel=4 note=61 velocity=95 time=0
EXTRACT: note_off channel=4 note=56 velocity=95 time=0
EXTRACT: note_off channel=4 note=49 velocity=95 time=0
EXTRACT: note_on channel=4 note=64 velocity=95 time=0
EXTRACT: note_on channel=4 note=61 velocity=95 time=0
EXTRACT: note_on channel=4 note=56 velocity=95 time=0
EXTRACT: note_on channel=4 note=49 velocity=95 time=0
EXTRACT: note_on channel=6 note=68 velocity=95 time=0
EXTRACT: note_on channel=6 note=64 velocity=95 time=0
EXTRACT: note_off channel=12 note=37 velocity=95 time=0
EXTRACT: note_on channel=12 note=40 velocity=95 time=0
EXTRACT: note_off channel=9 note=42 velocity=95 time=0
EXTRACT: note_on channel=9 note=42 velocity=95 time=0
EXTRACT: note_on channel=0 note=73 velocity=95 time=0.1666665
EXTRACT: note_on channel=0 note=68 velocity=95 time=0
EXTRACT: note_on channel=0 note=64 velocity=95 time=0
EXTRACT: note_on channel=0 note=61 velocity=95 time=0
EXTRACT: note_off channel=4 note=64 velocity=95 time=0
EXTRACT: note_off channel=4 note=61 velocity=95 time=0
EXTRACT: note_off channel=4 note=56 velocity=95 time=0
EXTRACT: note_off channel=4 note=49 velocity=95 time=0
EXTRACT: note_on channel=4 note=56 velocity=95 time=0
EXTRACT: note_on channel=4 note=52 velocity=95 time=0
EXTRACT: note_on channel=4 note=47 velocity=95 time=0
EXTRACT: note_off channel=12 note=40 velocity=95 time=0
EXTRACT: note_on channel=12 note=39 velocity=95 time=0
EXTRACT: note_off channel=9 note=42 velocity=95 time=0
EXTRACT: note_on channel=9 note=36 velocity=95 time=0
EXTRACT: note_off channel=4 note=56 velocity=95 time=0.031249968750000003
EXTRACT: note_off channel=4 note=52 velocity=95 time=0
EXTRACT: note_off channel=4 note=47 velocity=95 time=0
EXTRACT: note_off channel=0 note=73 velocity=95 time=0.13541653125
EXTRACT: note_off channel=0 note=68 velocity=95 time=0
EXTRACT: note_off channel=0 note=64 velocity=95 time=0
EXTRACT: note_off channel=0 note=61 velocity=95 time=0
EXTRACT: note_on channel=4 note=56 velocity=95 time=0
EXTRACT: note_on channel=4 note=52 velocity=95 time=0
EXTRACT: note_on channel=4 note=47 velocity=95 time=0
EXTRACT: note_off channel=12 note=39 velocity=95 time=0
EXTRACT: note_on channel=12 note=37 velocity=95 time=0
EXTRACT: note_on channel=14 note=80 velocity=95 time=0
EXTRACT: note_on channel=14 note=73 velocity=95 time=0
EXTRACT: note_off channel=9 note=36 velocity=95 time=0
EXTRACT: note_on channel=9 note=42 velocity=95 time=0
EXTRACT: note_on channel=9 note=40 velocity=95 time=0
EXTRACT: note_off channel=4 note=56 velocity=95 time=0.031249968750000003
EXTRACT: note_off channel=4 note=52 velocity=95 time=0
EXTRACT: note_off channel=4 note=47 velocity=95 time=0
EXTRACT: note_off channel=6 note=68 velocity=95 time=0.07291659375000001
EXTRACT: note_off channel=6 note=64 velocity=95 time=0
EXTRACT: note_on channel=0 note=73 velocity=95 time=0.062499937500000005
EXTRACT: note_on channel=0 note=68 velocity=95 time=0
EXTRACT: note_on channel=0 note=64 velocity=95 time=0
EXTRACT: note_on channel=0 note=61 velocity=95 time=0
EXTRACT: note_on channel=4 note=56 velocity=95 time=0
EXTRACT: note_on channel=4 note=52 velocity=95 time=0
EXTRACT: note_on channel=4 note=47 velocity=95 time=0
EXTRACT: note_on channel=6 note=56 velocity=95 time=0
EXTRACT: note_off channel=12 note=37 velocity=95 time=0
EXTRACT: note_on channel=12 note=33 velocity=95 time=0
EXTRACT: note_off channel=14 note=80 velocity=95 time=0
EXTRACT: note_off channel=14 note=73 velocity=95 time=0
EXTRACT: note_off channel=9 note=42 velocity=95 time=0
EXTRACT: note_off channel=9 note=40 velocity=95 time=0
EXTRACT: note_on channel=9 note=42 velocity=95 time=0
EXTRACT: note_off channel=4 note=56 velocity=95 time=0.031249968750000003
EXTRACT: note_off channel=4 note=52 velocity=95 time=0
EXTRACT: note_off channel=4 note=47 velocity=95 time=0
EXTRACT: note_off channel=12 note=33 velocity=95 time=0
EXTRACT: note_off channel=0 note=73 velocity=95 time=0.13541653125
EXTRACT: note_off channel=0 note=68 velocity=95 time=0
EXTRACT: note_off channel=0 note=64 velocity=95 time=0
EXTRACT: note_off channel=0 note=61 velocity=95 time=0
EXTRACT: note_on channel=4 note=63 velocity=95 time=0
EXTRACT: note_on channel=4 note=59 velocity=95 time=0
EXTRACT: note_on channel=4 note=54 velocity=95 time=0
EXTRACT: note_on channel=4 note=47 velocity=95 time=0
EXTRACT: note_off channel=6 note=56 velocity=95 time=0
EXTRACT: note_on channel=6 note=63 velocity=95 time=0
EXTRACT: note_on channel=12 note=35 velocity=95 time=0
EXTRACT: note_off channel=9 note=42 velocity=95 time=0
EXTRACT: note_on channel=9 note=42 velocity=95 time=0
EXTRACT: note_on channel=9 note=36 velocity=95 time=0
EXTRACT: note_on channel=0 note=71 velocity=95 time=0.1666665
EXTRACT: note_on channel=0 note=66 velocity=95 time=0
EXTRACT: note_on channel=0 note=63 velocity=95 time=0
EXTRACT: note_on channel=0 note=59 velocity=95 time=0
EXTRACT: note_on channel=2 note=71 velocity=95 time=0
EXTRACT: note_on channel=2 note=66 velocity=95 time=0
EXTRACT: note_off channel=4 note=63 velocity=95 time=0
EXTRACT: note_off channel=4 note=59 velocity=95 time=0
EXTRACT: note_off channel=4 note=54 velocity=95 time=0
EXTRACT: note_off channel=4 note=47 velocity=95 time=0
EXTRACT: note_on channel=4 note=56 velocity=95 time=0
EXTRACT: note_on channel=4 note=52 velocity=95 time=0
EXTRACT: note_on channel=4 note=47 velocity=95 time=0
EXTRACT: note_off channel=6 note=63 velocity=95 time=0
EXTRACT: note_on channel=6 note=63 velocity=95 time=0
EXTRACT: note_off channel=9 note=42 velocity=95 time=0
EXTRACT: note_off channel=9 note=36 velocity=95 time=0
EXTRACT: note_off channel=4 note=56 velocity=95 time=0.031249968750000003
EXTRACT: note_off channel=4 note=52 velocity=95 time=0
EXTRACT: note_off channel=4 note=47 velocity=95 time=0
EXTRACT: note_off channel=0 note=71 velocity=95 time=0.13541653125
EXTRACT: note_off channel=0 note=66 velocity=95 time=0
EXTRACT: note_off channel=0 note=63 velocity=95 time=0
EXTRACT: note_off channel=0 note=59 velocity=95 time=0
EXTRACT: note_off channel=2 note=71 velocity=95 time=0
EXTRACT: note_off channel=2 note=66 velocity=95 time=0
EXTRACT: note_on channel=2 note=71 velocity=95 time=0
EXTRACT: note_on channel=2 note=66 velocity=95 time=0
EXTRACT: note_on channel=4 note=56 velocity=95 time=0
EXTRACT: note_on channel=4 note=52 velocity=95 time=0
EXTRACT: note_on channel=4 note=47 velocity=95 time=0
EXTRACT: note_off channel=6 note=63 velocity=95 time=0
EXTRACT: note_on channel=6 note=63 velocity=95 time=0
EXTRACT: note_off channel=12 note=35 velocity=95 time=0
EXTRACT: note_on channel=9 note=42 velocity=95 time=0
EXTRACT: note_on channel=9 note=40 velocity=95 time=0
EXTRACT: note_off channel=4 note=56 velocity=95 time=0.031249968750000003
EXTRACT: note_off channel=4 note=52 velocity=95 time=0
EXTRACT: note_off channel=4 note=47 velocity=95 time=0
EXTRACT: note_on channel=0 note=71 velocity=95 time=0.13541653125
EXTRACT: note_on channel=0 note=66 velocity=95 time=0
EXTRACT: note_on channel=0 note=63 velocity=95 time=0
EXTRACT: note_on channel=0 note=59 velocity=95 time=0
EXTRACT: note_off channel=2 note=71 velocity=95 time=0
EXTRACT: note_off channel=2 note=66 velocity=95 time=0
EXTRACT: note_on channel=2 note=71 velocity=95 time=0
EXTRACT: note_on channel=2 note=66 velocity=95 time=0
EXTRACT: note_on channel=4 note=63 velocity=95 time=0
EXTRACT: note_on channel=4 note=59 velocity=95 time=0
EXTRACT: note_on channel=4 note=54 velocity=95 time=0
EXTRACT: note_on channel=4 note=47 velocity=95 time=0
EXTRACT: note_off channel=6 note=63 velocity=95 time=0
EXTRACT: note_on channel=6 note=63 velocity=95 time=0
EXTRACT: note_on channel=12 note=30 velocity=95 time=0
EXTRACT: note_off channel=9 note=42 velocity=95 time=0
EXTRACT: note_off channel=9 note=40 velocity=95 time=0
EXTRACT: note_on channel=9 note=42 velocity=95 time=0
EXTRACT: note_off channel=12 note=30 velocity=95 time=0.08333325
EXTRACT: note_off channel=0 note=71 velocity=95 time=0.08333325
EXTRACT: note_off channel=0 note=66 velocity=95 time=0
EXTRACT: note_off channel=0 note=63 velocity=95 time=0
EXTRACT: note_off channel=0 note=59 velocity=95 time=0
EXTRACT: note_off channel=2 note=71 velocity=95 time=0
EXTRACT: note_off channel=2 note=66 velocity=95 time=0
EXTRACT: note_on channel=3 note=71 velocity=95 time=0
EXTRACT: note_on channel=3 note=66 velocity=95 time=0
EXTRACT: note_off channel=4 note=63 velocity=95 time=0
EXTRACT: note_off channel=4 note=59 velocity=95 time=0
EXTRACT: note_off channel=4 note=54 velocity=95 time=0
EXTRACT: note_off channel=4 note=47 velocity=95 time=0
EXTRACT: note_on channel=4 note=56 velocity=95 time=0
EXTRACT: note_on channel=4 note=52 velocity=95 time=0
EXTRACT: note_on channel=4 note=47 velocity=95 time=0
EXTRACT: note_on channel=12 note=30 velocity=95 time=0
EXTRACT: note_off channel=9 note=42 velocity=95 time=0
EXTRACT: note_on channel=9 note=42 velocity=95 time=0
EXTRACT: note_on channel=9 note=36 velocity=95 time=0
EXTRACT: note_off channel=4 note=56 velocity=95 time=0.031249968750000003
EXTRACT: note_off channel=4 note=52 velocity=95 time=0
EXTRACT: note_off channel=4 note=47 velocity=95 time=0
EXTRACT: pitchwheel channel=3 pitch=256 time=0.01041665625
EXTRACT: pitchwheel channel=3 pitch=256 time=0
EXTRACT: pitchwheel channel=3 pitch=640 time=0.041666625
EXTRACT: pitchwheel channel=3 pitch=640 time=0
EXTRACT: pitchwheel channel=3 pitch=1024 time=0.041666625
EXTRACT: pitchwheel channel=3 pitch=1024 time=0
EXTRACT: note_on channel=0 note=71 velocity=95 time=0.041666625
EXTRACT: note_on channel=0 note=66 velocity=95 time=0
EXTRACT: note_on channel=0 note=63 velocity=95 time=0
EXTRACT: note_on channel=0 note=59 velocity=95 time=0
EXTRACT: pitchwheel channel=3 pitch=1408 time=0
EXTRACT: pitchwheel channel=3 pitch=0 time=0
EXTRACT: note_off channel=3 note=71 velocity=95 time=0
EXTRACT: pitchwheel channel=3 pitch=1408 time=0
EXTRACT: pitchwheel channel=3 pitch=0 time=0
EXTRACT: note_off channel=3 note=66 velocity=95 time=0
EXTRACT: note_on channel=2 note=73 velocity=95 time=0
EXTRACT: note_on channel=2 note=68 velocity=95 time=0
EXTRACT: note_on channel=4 note=56 velocity=95 time=0
EXTRACT: note_on channel=4 note=52 velocity=95 time=0
EXTRACT: note_on channel=4 note=47 velocity=95 time=0
EXTRACT: note_off channel=6 note=63 velocity=95 time=0
EXTRACT: note_on channel=6 note=66 velocity=95 time=0
EXTRACT: note_off channel=9 note=42 velocity=95 time=0
EXTRACT: note_off channel=9 note=36 velocity=95 time=0
EXTRACT: note_off channel=4 note=56 velocity=95 time=0.031249968750000003
EXTRACT: note_off channel=4 note=52 velocity=95 time=0
EXTRACT: note_off channel=4 note=47 velocity=95 time=0
EXTRACT: note_off channel=0 note=71 velocity=95 time=0.13541653125
EXTRACT: note_off channel=0 note=66 velocity=95 time=0
EXTRACT: note_off channel=0 note=63 velocity=95 time=0
EXTRACT: note_off channel=0 note=59 velocity=95 time=0
EXTRACT: note_off channel=2 note=73 velocity=95 time=0
EXTRACT: note_off channel=2 note=68 velocity=95 time=0
EXTRACT: note_on channel=2 note=73 velocity=95 time=0
EXTRACT: note_on channel=2 note=68 velocity=95 time=0
EXTRACT: note_on channel=4 note=56 velocity=95 time=0
EXTRACT: note_on channel=4 note=52 velocity=95 time=0
EXTRACT: note_on channel=4 note=47 velocity=95 time=0
EXTRACT: note_off channel=12 note=30 velocity=95 time=0
EXTRACT: note_on channel=12 note=33 velocity=95 time=0
EXTRACT: note_on channel=9 note=42 velocity=95 time=0
EXTRACT: note_on channel=9 note=40 velocity=95 time=0
EXTRACT: note_off channel=4 note=56 velocity=95 time=0.031249968750000003
EXTRACT: note_off channel=4 note=52 velocity=95 time=0
EXTRACT: note_off channel=4 note=47 velocity=95 time=0
EXTRACT: note_on channel=0 note=71 velocity=95 time=0.13541653125
EXTRACT: note_on channel=0 note=66 velocity=95 time=0
EXTRACT: note_on channel=0 note=63 velocity=95 time=0
EXTRACT: note_on channel=0 note=59 velocity=95 time=0
EXTRACT: note_on channel=4 note=56 velocity=95 time=0
EXTRACT: note_on channel=4 note=52 velocity=95 time=0
EXTRACT: note_on channel=4 note=47 velocity=95 time=0
EXTRACT: note_off channel=6 note=66 velocity=95 time=0
EXTRACT: note_on channel=6 note=66 velocity=95 time=0
EXTRACT: note_off channel=9 note=42 velocity=95 time=0
EXTRACT: note_off channel=9 note=40 velocity=95 time=0
EXTRACT: note_on channel=9 note=42 velocity=95 time=0
EXTRACT: note_off channel=4 note=56 velocity=95 time=0.031249968750000003
EXTRACT: note_off channel=4 note=52 velocity=95 time=0
EXTRACT: note_off channel=4 note=47 velocity=95 time=0
EXTRACT: note_off channel=0 note=71 velocity=95 time=0.13541653125
EXTRACT: note_off channel=0 note=66 velocity=95 time=0
EXTRACT: note_off channel=0 note=63 velocity=95 time=0
EXTRACT: note_off channel=0 note=59 velocity=95 time=0
EXTRACT: note_on channel=4 note=56 velocity=95 time=0
EXTRACT: note_on channel=4 note=52 velocity=95 time=0
EXTRACT: note_on channel=4 note=47 velocity=95 time=0
EXTRACT: note_off channel=12 note=33 velocity=95 time=0
EXTRACT: note_on channel=12 note=37 velocity=95 time=0
EXTRACT: note_off channel=9 note=42 velocity=95 time=0
EXTRACT: note_on channel=9 note=42 velocity=95 time=0
EXTRACT: note_on channel=9 note=36 velocity=95 time=0
EXTRACT: note_off channel=4 note=56 velocity=95 time=0.031249968750000003
EXTRACT: note_off channel=4 note=52 velocity=95 time=0
EXTRACT: note_off channel=4 note=47 velocity=95 time=0
EXTRACT: note_on channel=0 note=73 velocity=95 time=0.13541653125
EXTRACT: note_on channel=0 note=68 velocity=95 time=0
EXTRACT: note_on channel=0 note=64 velocity=95 time=0
EXTRACT: note_on channel=0 note=61 velocity=95 time=0
EXTRACT: note_on channel=4 note=64 velocity=95 time=0
EXTRACT: note_on channel=4 note=61 velocity=95 time=0
EXTRACT: note_on channel=4 note=56 velocity=95 time=0
EXTRACT: note_on channel=4 note=49 velocity=95 time=0
EXTRACT: note_off channel=6 note=66 velocity=95 time=0
EXTRACT: note_on channel=6 note=64 velocity=95 time=0
EXTRACT: note_on channel=14 note=80 velocity=95 time=0
EXTRACT: note_on channel=14 note=73 velocity=95 time=0
EXTRACT: note_off channel=9 note=42 velocity=95 time=0
EXTRACT: note_off channel=9 note=36 velocity=95 time=0
EXTRACT: note_off channel=0 note=73 velocity=95 time=0.1666665
EXTRACT: note_off channel=0 note=68 velocity=95 time=0
EXTRACT: note_off channel=0 note=64 velocity=95 time=0
EXTRACT: note_off channel=0 note=61 velocity=95 time=0
EXTRACT: note_off channel=2 note=73 velocity=95 time=0
EXTRACT: note_off channel=2 note=68 velocity=95 time=0
EXTRACT: note_off channel=4 note=64 velocity=95 time=0
EXTRACT: note_off channel=4 note=61 velocity=95 time=0
EXTRACT: note_off channel=4 note=56 velocity=95 time=0
EXTRACT: note_off channel=4 note=49 velocity=95 time=0
EXTRACT: note_on channel=4 note=64 velocity=95 time=0
EXTRACT: note_on channel=4 note=61 velocity=95 time=0
EXTRACT: note_on channel=4 note=56 velocity=95 time=0
EXTRACT: note_on channel=4 note=49 velocity=95 time=0
EXTRACT: note_on channel=9 note=42 velocity=95 time=0
EXTRACT: note_on channel=9 note=40 velocity=95 time=0
EXTRACT: note_on channel=0 note=73 velocity=95 time=0.1666665
EXTRACT: note_on channel=0 note=68 velocity=95 time=0
EXTRACT: note_on channel=0 note=64 velocity=95 time=0
EXTRACT: note_on channel=0 note=61 velocity=95 time=0
EXTRACT: note_off channel=4 note=64 velocity=95 time=0
EXTRACT: note_off channel=4 note=61 velocity=95 time=0
EXTRACT: note_off channel=4 note=56 velocity=95 time=0
EXTRACT: note_off channel=4 note=49 velocity=95 time=0
EXTRACT: note_on channel=4 note=64 velocity=95 time=0
EXTRACT: note_on channel=4 note=61 velocity=95 time=0
EXTRACT: note_on channel=4 note=56 velocity=95 time=0
EXTRACT: note_on channel=4 note=49 velocity=95 time=0
EXTRACT: note_off channel=12 note=37 velocity=95 time=0
EXTRACT: note_on channel=12 note=37 velocity=95 time=0
EXTRACT: note_off channel=14 note=80 velocity=95 time=0
EXTRACT: note_off channel=14 note=73 velocity=95 time=0
EXTRACT: note_on channel=14 note=79 velocity=95 time=0
EXTRACT: note_on channel=14 note=72 velocity=95 time=0
EXTRACT: note_off channel=9 note=42 velocity=95 time=0
EXTRACT: note_off channel=9 note=40 velocity=95 time=0
EXTRACT: note_on channel=9 note=42 velocity=95 time=0
EXTRACT: note_off channel=0 note=73 velocity=95 time=0.1666665
EXTRACT: note_off channel=0 note=68 velocity=95 time=0
EXTRACT: note_off channel=0 note=64 velocity=95 time=0
EXTRACT: note_off channel=0 note=61 velocity=95 time=0
EXTRACT: note_off channel=4 note=64 velocity=95 time=0
EXTRACT: note_off channel=4 note=61 velocity=95 time=0
EXTRACT: note_off channel=4 note=56 velocity=95 time=0
EXTRACT: note_off channel=4 note=49 velocity=95 time=0
EXTRACT: note_on channel=4 note=64 velocity=95 time=0
EXTRACT: note_on channel=4 note=61 velocity=95 time=0
EXTRACT: note_on channel=4 note=56 velocity=95 time=0
EXTRACT: note_on channel=4 note=49 velocity=95 time=0
EXTRACT: note_off channel=12 note=37 velocity=95 time=0
EXTRACT: note_on channel=12 note=32 velocity=95 time=0
EXTRACT: note_off channel=14 note=79 velocity=95 time=0
EXTRACT: note_off channel=14 note=72 velocity=95 time=0
EXTRACT: note_on channel=14 note=80 velocity=95 time=0
EXTRACT: note_on channel=14 note=73 velocity=95 time=0
EXTRACT: note_off channel=9 note=42 velocity=95 time=0
EXTRACT: note_on channel=9 note=42 velocity=95 time=0
EXTRACT: note_on channel=0 note=73 velocity=95 time=0.1666665
EXTRACT: note_on channel=0 note=68 velocity=95 time=0
EXTRACT: note_on channel=0 note=64 velocity=95 time=0
EXTRACT: note_on channel=0 note=61 velocity=95 time=0
EXTRACT: note_off channel=4 note=64 velocity=95 time=0
EXTRACT: note_off channel=4 note=61 velocity=95 time=0
EXTRACT: note_off channel=4 note=56 velocity=95 time=0
EXTRACT: note_off channel=4 note=49 velocity=95 time=0
EXTRACT: note_on channel=4 note=64 velocity=95 time=0
EXTRACT: note_on channel=4 note=61 velocity=95 time=0
EXTRACT: note_on channel=4 note=56 velocity=95 time=0
EXTRACT: note_on channel=4 note=49 velocity=95 time=0
EXTRACT: note_off channel=14 note=80 velocity=95 time=0
EXTRACT: note_off channel=14 note=73 velocity=95 time=0
EXTRACT: note_on channel=14 note=79 velocity=95 time=0
EXTRACT: note_on channel=14 note=72 velocity=95 time=0
EXTRACT: note_off channel=9 note=42 velocity=95 time=0
EXTRACT: note_on channel=9 note=36 velocity=95 time=0
EXTRACT: note_off channel=6 note=64 velocity=95 time=0.08333325
EXTRACT: note_off channel=0 note=73 velocity=95 time=0.08333325
EXTRACT: note_off channel=0 note=68 velocity=95 time=0
EXTRACT: note_off channel=0 note=64 velocity=95 time=0
EXTRACT: note_off channel=0 note=61 velocity=95 time=0
EXTRACT: note_off channel=4 note=64 velocity=95 time=0
EXTRACT: note_off channel=4 note=61 velocity=95 time=0
EXTRACT: note_off channel=4 note=56 velocity=95 time=0
EXTRACT: note_off channel=4 note=49 velocity=95 time=0
EXTRACT: note_on channel=4 note=56 velocity=95 time=0
EXTRACT: note_on channel=4 note=52 velocity=95 time=0
EXTRACT: note_on channel=4 note=47 velocity=95 time=0
EXTRACT: note_on channel=6 note=61 velocity=95 time=0
EXTRACT: note_off channel=12 note=32 velocity=95 time=0
EXTRACT: note_on channel=12 note=35 velocity=95 time=0
EXTRACT: note_off channel=14 note=79 velocity=95 time=0
EXTRACT: note_off channel=14 note=72 velocity=95 time=0
EXTRACT: note_on channel=14 note=80 velocity=95 time=0
EXTRACT: note_on channel=14 note=73 velocity=95 time=0
EXTRACT: note_off channel=9 note=36 velocity=95 time=0
EXTRACT: note_on channel=9 note=42 velocity=95 time=0
EXTRACT: note_on channel=9 note=40 velocity=95 time=0
EXTRACT: note_off channel=4 note=56 velocity=95 time=0.031249968750000003
EXTRACT: note_off channel=4 note=52 velocity=95 time=0
EXTRACT: note_off channel=4 note=47 velocity=95 time=0
EXTRACT: note_on channel=0 note=73 velocity=95 time=0.13541653125
EXTRACT: note_on channel=0 note=68 velocity=95 time=0
EXTRACT: note_on channel=0 note=64 velocity=95 time=0
EXTRACT: note_on channel=0 note=61 velocity=95 time=0
EXTRACT: note_on channel=4 note=56 velocity=95 time=0
EXTRACT: note_on channel=4 note=52 velocity=95 time=0
EXTRACT: note_on channel=4 note=47 velocity=95 time=0
EXTRACT: note_off channel=12 note=35 velocity=95 time=0
EXTRACT: note_on channel=12 note=35 velocity=95 time=0
EXTRACT: note_off channel=14 note=80 velocity=95 time=0
EXTRACT: note_off channel=14 note=73 velocity=95 time=0
EXTRACT: note_on channel=14 note=79 velocity=95 time=0
EXTRACT: note_on channel=14 note=72 velocity=95 time=0
EXTRACT: note_off channel=9 note=42 velocity=95 time=0
EXTRACT: note_off channel=9 note=40 velocity=95 time=0
EXTRACT: note_on channel=9 note=42 velocity=95 time=0
EXTRACT: note_off channel=4 note=56 velocity=95 time=0.031249968750000003
EXTRACT: note_off channel=4 note=52 velocity=95 time=0
EXTRACT: note_off channel=4 note=47 velocity=95 time=0
EXTRACT: note_off channel=6 note=61 velocity=95 time=0.07291659375000001
EXTRACT: note_off channel=0 note=73 velocity=95 time=0.062499937500000005
EXTRACT: note_off channel=0 note=68 velocity=95 time=0
EXTRACT: note_off channel=0 note=64 velocity=95 time=0
EXTRACT: note_off channel=0 note=61 velocity=95 time=0
EXTRACT: note_on channel=4 note=64 velocity=95 time=0
EXTRACT: note_on channel=4 note=61 velocity=95 time=0
EXTRACT: note_on channel=4 note=56 velocity=95 time=0
EXTRACT: note_on channel=4 note=49 velocity=95 time=0
EXTRACT: note_on channel=6 note=68 velocity=95 time=0
EXTRACT: note_on channel=6 note=64 velocity=95 time=0
EXTRACT: note_off channel=12 note=35 velocity=95 time=0
EXTRACT: note_on channel=12 note=37 velocity=95 time=0
EXTRACT: note_off channel=14 note=79 velocity=95 time=0
EXTRACT: note_off channel=14 note=72 velocity=95 time=0
EXTRACT: note_on channel=14 note=80 velocity=95 time=0
EXTRACT: note_on channel=14 note=73 velocity=95 time=0
EXTRACT: note_off channel=9 note=42 velocity=95 time=0
EXTRACT: note_on channel=9 note=42 velocity=95 time=0
EXTRACT: note_on channel=9 note=36 velocity=95 time=0
EXTRACT: note_on channel=0 note=73 velocity=95 time=0.1666665
EXTRACT: note_on channel=0 note=68 velocity=95 time=0
EXTRACT: note_on channel=0 note=64 velocity=95 time=0
EXTRACT: note_on channel=0 note=61 velocity=95 time=0
EXTRACT: note_off channel=4 note=64 velocity=95 time=0
EXTRACT: note_off channel=4 note=61 velocity=95 time=0
EXTRACT: note_off channel=4 note=56 velocity=95 time=0
EXTRACT: note_off channel=4 note=49 velocity=95 time=0
EXTRACT: note_on channel=4 note=56 velocity=95 time=0
EXTRACT: note_on channel=4 note=52 velocity=95 time=0
EXTRACT: note_on channel=4 note=47 velocity=95 time=0
EXTRACT: note_off channel=14 note=80 velocity=95 time=0
EXTRACT: note_off channel=14 note=73 velocity=95 time=0
EXTRACT: note_off channel=9 note=42 velocity=95 time=0
EXTRACT: note_off channel=9 note=36 velocity=95 time=0
EXTRACT: note_off channel=4 note=56 velocity=95 time=0.031249968750000003
EXTRACT: note_off channel=4 note=52 velocity=95 time=0
EXTRACT: note_off channel=4 note=47 velocity=95 time=0
EXTRACT: note_off channel=0 note=73 velocity=95 time=0.13541653125
EXTRACT: note_off channel=0 note=68 velocity=95 time=0
EXTRACT: note_off channel=0 note=64 velocity=95 time=0
EXTRACT: note_off channel=0 note=61 velocity=95 time=0
EXTRACT: note_on channel=4 note=56 velocity=95 time=0
EXTRACT: note_on channel=4 note=52 velocity=95 time=0
EXTRACT: note_on channel=4 note=47 velocity=95 time=0
EXTRACT: note_on channel=9 note=42 velocity=95 time=0
EXTRACT: note_on channel=9 note=40 velocity=95 time=0
EXTRACT: note_off channel=4 note=56 velocity=95 time=0.031249968750000003
EXTRACT: note_off channel=4 note=52 velocity=95 time=0
EXTRACT: note_off channel=4 note=47 velocity=95 time=0
EXTRACT: note_off channel=6 note=68 velocity=95 time=0.07291659375000001
EXTRACT: note_off channel=6 note=64 velocity=95 time=0
EXTRACT: note_on channel=0 note=73 velocity=95 time=0.062499937500000005
EXTRACT: note_on channel=0 note=68 velocity=95 time=0
EXTRACT: note_on channel=0 note=64 velocity=95 time=0
EXTRACT: note_on channel=0 note=61 velocity=95 time=0
EXTRACT: note_on channel=4 note=64 velocity=95 time=0
EXTRACT: note_on channel=4 note=61 velocity=95 time=0
EXTRACT: note_on channel=4 note=56 velocity=95 time=0
EXTRACT: note_on channel=4 note=49 velocity=95 time=0
EXTRACT: note_on channel=6 note=68 velocity=95 time=0
EXTRACT: note_on channel=6 note=64 velocity=95 time=0
EXTRACT: note_off channel=12 note=37 velocity=95 time=0
EXTRACT: note_on channel=12 note=32 velocity=95 time=0
EXTRACT: note_off channel=9 note=42 velocity=95 time=0
EXTRACT: note_off channel=9 note=40 velocity=95 time=0
EXTRACT: note_on channel=9 note=42 velocity=95 time=0
EXTRACT: note_off channel=0 note=73 velocity=95 time=0.1666665
EXTRACT: note_off channel=0 note=68 velocity=95 time=0
EXTRACT: note_off channel=0 note=64 velocity=95 time=0
EXTRACT: note_off channel=0 note=61 velocity=95 time=0
EXTRACT: note_on channel=2 note=73 velocity=95 time=0
EXTRACT: note_on channel=2 note=68 velocity=95 time=0
EXTRACT: note_off channel=4 note=64 velocity=95 time=0
EXTRACT: note_off channel=4 note=61 velocity=95 time=0
EXTRACT: note_off channel=4 note=56 velocity=95 time=0
EXTRACT: note_off channel=4 note=49 velocity=95 time=0
EXTRACT: note_on channel=4 note=56 velocity=95 time=0
EXTRACT: note_on channel=4 note=52 velocity=95 time=0
EXTRACT: note_on channel=4 note=47 velocity=95 time=0
EXTRACT: note_off channel=9 note=42 velocity=95 time=0
EXTRACT: note_on channel=9 note=42 velocity=95 time=0
EXTRACT: note_on channel=9 note=36 velocity=95 time=0
EXTRACT: note_off channel=4 note=56 velocity=95 time=0.031249968750000003
EXTRACT: note_off channel=4 note=52 velocity=95 time=0
EXTRACT: note_off channel=4 note=47 velocity=95 time=0
EXTRACT: note_off channel=2 note=73 velocity=95 time=0.05208328125
EXTRACT: note_off channel=2 note=68 velocity=95 time=0
EXTRACT: note_on channel=0 note=73 velocity=95 time=0.08333325
EXTRACT: note_on channel=0 note=68 velocity=95 time=0
EXTRACT: note_on channel=0 note=64 velocity=95 time=0
EXTRACT: note_on channel=0 note=61 velocity=95 time=0
EXTRACT: note_on channel=2 note=61 velocity=95 time=0
EXTRACT: note_on channel=2 note=56 velocity=95 time=0
EXTRACT: note_on channel=4 note=56 velocity=95 time=0
EXTRACT: note_on channel=4 note=52 velocity=95 time=0
EXTRACT: note_on channel=4 note=47 velocity=95 time=0
EXTRACT: note_off channel=9 note=42 velocity=95 time=0
EXTRACT: note_off channel=9 note=36 velocity=95 time=0
EXTRACT: note_off channel=2 note=61 velocity=95 time=0.031249968750000003
EXTRACT: note_off channel=2 note=56 velocity=95 time=0
EXTRACT: note_off channel=4 note=56 velocity=95 time=0
EXTRACT: note_off channel=4 note=52 velocity=95 time=0
EXTRACT: note_off channel=4 note=47 velocity=95 time=0
EXTRACT: note_off channel=6 note=68 velocity=95 time=0.07291659375000001
EXTRACT: note_off channel=6 note=64 velocity=95 time=0
EXTRACT: note_off channel=0 note=73 velocity=95 time=0.062499937500000005
EXTRACT: note_off channel=0 note=68 velocity=95 time=0
EXTRACT: note_off channel=0 note=64 velocity=95 time=0
EXTRACT: note_off channel=0 note=61 velocity=95 time=0
EXTRACT: note_on channel=2 note=61 velocity=95 time=0
EXTRACT: note_on channel=2 note=56 velocity=95 time=0
EXTRACT: note_on channel=4 note=64 velocity=95 time=0
EXTRACT: note_on channel=4 note=61 velocity=95 time=0
EXTRACT: note_on channel=4 note=56 velocity=95 time=0
EXTRACT: note_on channel=4 note=49 velocity=95 time=0
EXTRACT: note_on channel=6 note=68 velocity=95 time=0
EXTRACT: note_on channel=6 note=64 velocity=95 time=0
EXTRACT: note_off channel=12 note=32 velocity=95 time=0
EXTRACT: note_on channel=12 note=35 velocity=95 time=0
EXTRACT: note_on channel=9 note=42 velocity=95 time=0
EXTRACT: note_on channel=9 note=40 velocity=95 time=0
EXTRACT: note_off channel=2 note=61 velocity=95 time=0.031249968750000003
EXTRACT: note_off channel=2 note=56 velocity=95 time=0
EXTRACT: note_on channel=0 note=73 velocity=95 time=0.13541653125
EXTRACT: note_on channel=0 note=68 velocity=95 time=0
EXTRACT: note_on channel=0 note=64 velocity=95 time=0
EXTRACT: note_on channel=0 note=61 velocity=95 time=0
EXTRACT: note_on channel=2 note=71 velocity=95 time=0
EXTRACT: note_on channel=2 note=66 velocity=95 time=0
EXTRACT: note_off channel=4 note=64 velocity=95 time=0
EXTRACT: note_off channel=4 note=61 velocity=95 time=0
EXTRACT: note_off channel=4 note=56 velocity=95 time=0
EXTRACT: note_off channel=4 note=49 velocity=95 time=0
EXTRACT: note_on channel=4 note=56 velocity=95 time=0
EXTRACT: note_on channel=4 note=52 velocity=95 time=0
EXTRACT: note_on channel=4 note=47 velocity=95 time=0
EXTRACT: note_off channel=9 note=42 velocity=95 time=0
EXTRACT: note_off channel=9 note=40 velocity=95 time=0
EXTRACT: note_on channel=9 note=42 velocity=95 time=0
EXTRACT: note_off channel=4 note=56 velocity=95 time=0.031249968750000003
EXTRACT: note_off channel=4 note=52 velocity=95 time=0
EXTRACT: note_off channel=4 note=47 velocity=95 time=0
EXTRACT: note_off channel=0 note=73 velocity=95 time=0.13541653125
EXTRACT: note_off channel=0 note=68 velocity=95 time=0
EXTRACT: note_off channel=0 note=64 velocity=95 time=0
EXTRACT: note_off channel=0 note=61 velocity=95 time=0
EXTRACT: note_off channel=2 note=71 velocity=95 time=0
EXTRACT: note_off channel=2 note=66 velocity=95 time=0
EXTRACT: note_on channel=3 note=71 velocity=95 time=0
EXTRACT: note_on channel=3 note=66 velocity=95 time=0
EXTRACT: note_on channel=4 note=56 velocity=95 time=0
EXTRACT: note_on channel=4 note=52 velocity=95 time=0
EXTRACT: note_on channel=4 note=47 velocity=95 time=0
EXTRACT: note_off channel=9 note=42 velocity=95 time=0
EXTRACT: note_on channel=9 note=42 velocity=95 time=0
EXTRACT: note_on channel=9 note=36 velocity=95 time=0
EXTRACT: note_off channel=4 note=56 velocity=95 time=0.031249968750000003
EXTRACT: note_off channel=4 note=52 velocity=95 time=0
EXTRACT: note_off channel=4 note=47 velocity=95 time=0
EXTRACT: note_on channel=0 note=73 velocity=95 time=0.13541653125
EXTRACT: note_on channel=0 note=68 velocity=95 time=0
EXTRACT: note_on channel=0 note=64 velocity=95 time=0
EXTRACT: note_on channel=0 note=61 velocity=95 time=0
EXTRACT: note_on channel=4 note=64 velocity=95 time=0
EXTRACT: note_on channel=4 note=61 velocity=95 time=0
EXTRACT: note_on channel=4 note=56 velocity=95 time=0
EXTRACT: note_on channel=4 note=49 velocity=95 time=0
EXTRACT: note_off channel=6 note=68 velocity=95 time=0
EXTRACT: note_off channel=6 note=64 velocity=95 time=0
EXTRACT: note_on channel=6 note=68 velocity=95 time=0
EXTRACT: note_on channel=6 note=64 velocity=95 time=0
EXTRACT: note_off channel=12 note=35 velocity=95 time=0
EXTRACT: note_on channel=12 note=37 velocity=95 time=0
EXTRACT: note_off channel=9 note=42 velocity=95 time=0
EXTRACT: note_off channel=9 note=36 velocity=95 time=0
EXTRACT: note_off channel=0 note=73 velocity=95 time=0.1666665
EXTRACT: note_off channel=0 note=68 velocity=95 time=0
EXTRACT: note_off channel=0 note=64 velocity=95 time=0
EXTRACT: note_off channel=0 note=61 velocity=95 time=0
EXTRACT: note_off channel=3 note=71 velocity=95 time=0
EXTRACT: note_off channel=3 note=66 velocity=95 time=0
EXTRACT: note_off channel=4 note=64 velocity=95 time=0
EXTRACT: note_off channel=4 note=61 velocity=95 time=0
EXTRACT: note_off channel=4 note=56 velocity=95 time=0
EXTRACT: note_off channel=4 note=49 velocity=95 time=0
EXTRACT: note_on channel=4 note=64 velocity=95 time=0
EXTRACT: note_on channel=4 note=61 velocity=95 time=0
EXTRACT: note_on channel=4 note=56 velocity=95 time=0
EXTRACT: note_on channel=4 note=49 velocity=95 time=0
EXTRACT: note_on channel=9 note=42 velocity=95 time=0
EXTRACT: note_on channel=9 note=40 velocity=95 time=0
EXTRACT: note_on channel=0 note=73 velocity=95 time=0.1666665
EXTRACT: note_on channel=0 note=68 velocity=95 time=0
EXTRACT: note_on channel=0 note=64 velocity=95 time=0
EXTRACT: note_on channel=0 note=61 velocity=95 time=0
EXTRACT: note_off channel=4 note=64 velocity=95 time=0
EXTRACT: note_off channel=4 note=61 velocity=95 time=0
EXTRACT: note_off channel=4 note=56 velocity=95 time=0
EXTRACT: note_off channel=4 note=49 velocity=95 time=0
EXTRACT: note_on channel=4 note=64 velocity=95 time=0
EXTRACT: note_on channel=4 note=61 velocity=95 time=0
EXTRACT: note_on channel=4 note=56 velocity=95 time=0
EXTRACT: note_on channel=4 note=49 velocity=95 time=0
EXTRACT: note_off channel=12 note=37 velocity=95 time=0
EXTRACT: note_on channel=12 note=37 velocity=95 time=0
EXTRACT: note_off channel=9 note=42 velocity=95 time=0
EXTRACT: note_off channel=9 note=40 velocity=95 time=0
EXTRACT: note_on channel=9 note=42 velocity=95 time=0
EXTRACT: note_off channel=6 note=68 velocity=95 time=0.1041665625
EXTRACT: note_off channel=6 note=64 velocity=95 time=0
EXTRACT: note_off channel=0 note=73 velocity=95 time=0.062499937500000005
EXTRACT: note_off channel=0 note=68 velocity=95 time=0
EXTRACT: note_off channel=0 note=64 velocity=95 time=0
EXTRACT: note_off channel=0 note=61 velocity=95 time=0
EXTRACT: note_off channel=4 note=64 velocity=95 time=0
EXTRACT: note_off channel=4 note=61 velocity=95 time=0
EXTRACT: note_off channel=4 note=56 velocity=95 time=0
EXTRACT: note_off channel=4 note=49 velocity=95 time=0
EXTRACT: note_on channel=4 note=64 velocity=95 time=0
EXTRACT: note_on channel=4 note=61 velocity=95 time=0
EXTRACT: note_on channel=4 note=56 velocity=95 time=0
EXTRACT: note_on channel=4 note=49 velocity=95 time=0
EXTRACT: note_on channel=6 note=68 velocity=95 time=0
EXTRACT: note_on channel=6 note=64 velocity=95 time=0
EXTRACT: note_off channel=12 note=37 velocity=95 time=0
EXTRACT: note_on channel=12 note=40 velocity=95 time=0
EXTRACT: note_off channel=9 note=42 velocity=95 time=0
EXTRACT: note_on channel=9 note=42 velocity=95 time=0
EXTRACT: note_on channel=0 note=73 velocity=95 time=0.1666665
EXTRACT: note_on channel=0 note=68 velocity=95 time=0
EXTRACT: note_on channel=0 note=64 velocity=95 time=0
EXTRACT: note_on channel=0 note=61 velocity=95 time=0
EXTRACT: note_off channel=4 note=64 velocity=95 time=0
EXTRACT: note_off channel=4 note=61 velocity=95 time=0
EXTRACT: note_off channel=4 note=56 velocity=95 time=0
EXTRACT: note_off channel=4 note=49 velocity=95 time=0
EXTRACT: note_on channel=4 note=56 velocity=95 time=0
EXTRACT: note_on channel=4 note=52 velocity=95 time=0
EXTRACT: note_on channel=4 note=47 velocity=95 time=0
EXTRACT: note_off channel=12 note=40 velocity=95 time=0
EXTRACT: note_on channel=12 note=39 velocity=95 time=0
EXTRACT: note_off channel=9 note=42 velocity=95 time=0
EXTRACT: note_on channel=9 note=36 velocity=95 time=0
EXTRACT: note_off channel=4 note=56 velocity=95 time=0.031249968750000003
EXTRACT: note_off channel=4 note=52 velocity=95 time=0
EXTRACT: note_off channel=4 note=47 velocity=95 time=0
EXTRACT: note_off channel=0 note=73 velocity=95 time=0.13541653125
EXTRACT: note_off channel=0 note=68 velocity=95 time=0
EXTRACT: note_off channel=0 note=64 velocity=95 time=0
EXTRACT: note_off channel=0 note=61 velocity=95 time=0
EXTRACT: note_on channel=4 note=56 velocity=95 time=0
EXTRACT: note_on channel=4 note=52 velocity=95 time=0
EXTRACT: note_on channel=4 note=47 velocity=95 time=0
EXTRACT: note_off channel=12 note=39 velocity=95 time=0
EXTRACT: note_on channel=12 note=37 velocity=95 time=0
EXTRACT: note_off channel=9 note=36 velocity=95 time=0
EXTRACT: note_on channel=9 note=42 velocity=95 time=0
EXTRACT: note_on channel=9 note=40 velocity=95 time=0
EXTRACT: note_off channel=4 note=56 velocity=95 time=0.031249968750000003
EXTRACT: note_off channel=4 note=52 velocity=95 time=0
EXTRACT: note_off channel=4 note=47 velocity=95 time=0
EXTRACT: note_off channel=6 note=68 velocity=95 time=0.07291659375000001
EXTRACT: note_off channel=6 note=64 velocity=95 time=0
EXTRACT: note_on channel=0 note=73 velocity=95 time=0.062499937500000005
EXTRACT: note_on channel=0 note=68 velocity=95 time=0
EXTRACT: note_on channel=0 note=64 velocity=95 time=0
EXTRACT: note_on channel=0 note=61 velocity=95 time=0
EXTRACT: note_on channel=4 note=56 velocity=95 time=0
EXTRACT: note_on channel=4 note=52 velocity=95 time=0
EXTRACT: note_on channel=4 note=47 velocity=95 time=0
EXTRACT: note_on channel=6 note=56 velocity=95 time=0
EXTRACT: note_off channel=12 note=37 velocity=95 time=0
EXTRACT: note_on channel=12 note=33 velocity=95 time=0
EXTRACT: note_off channel=9 note=42 velocity=95 time=0
EXTRACT: note_off channel=9 note=40 velocity=95 time=0
EXTRACT: note_on channel=9 note=42 velocity=95 time=0
EXTRACT: note_off channel=4 note=56 velocity=95 time=0.031249968750000003
EXTRACT: note_off channel=4 note=52 velocity=95 time=0
EXTRACT: note_off channel=4 note=47 velocity=95 time=0
EXTRACT: note_off channel=12 note=33 velocity=95 time=0
EXTRACT: note_off channel=0 note=73 velocity=95 time=0.13541653125
EXTRACT: note_off channel=0 note=68 velocity=95 time=0
EXTRACT: note_off channel=0 note=64 velocity=95 time=0
EXTRACT: note_off channel=0 note=61 velocity=95 time=0
EXTRACT: note_on channel=4 note=63 velocity=95 time=0
EXTRACT: note_on channel=4 note=59 velocity=95 time=0
EXTRACT: note_on channel=4 note=54 velocity=95 time=0
EXTRACT: note_on channel=4 note=47 velocity=95 time=0
EXTRACT: note_off channel=6 note=56 velocity=95 time=0
EXTRACT: note_on channel=6 note=63 velocity=95 time=0
EXTRACT: note_on channel=12 note=35 velocity=95 time=0
EXTRACT: note_off channel=9 note=42 velocity=95 time=0
EXTRACT: note_on channel=9 note=42 velocity=95 time=0
EXTRACT: note_on channel=9 note=36 velocity=95 time=0
EXTRACT: note_on channel=0 note=71 velocity=95 time=0.1666665
EXTRACT: note_on channel=0 note=66 velocity=95 time=0
EXTRACT: note_on channel=0 note=63 velocity=95 time=0
EXTRACT: note_on channel=0 note=59 velocity=95 time=0
EXTRACT: note_on channel=2 note=71 velocity=95 time=0
EXTRACT: note_on channel=2 note=66 velocity=95 time=0
EXTRACT: note_off channel=4 note=63 velocity=95 time=0
EXTRACT: note_off channel=4 note=59 velocity=95 time=0
EXTRACT: note_off channel=4 note=54 velocity=95 time=0
EXTRACT: note_off channel=4 note=47 velocity=95 time=0
EXTRACT: note_on channel=4 note=56 velocity=95 time=0
EXTRACT: note_on channel=4 note=52 velocity=95 time=0
EXTRACT: note_on channel=4 note=47 velocity=95 time=0
EXTRACT: note_off channel=6 note=63 velocity=95 time=0
EXTRACT: note_on channel=6 note=63 velocity=95 time=0
EXTRACT: note_off channel=9 note=42 velocity=95 time=0
EXTRACT: note_off channel=9 note=36 velocity=95 time=0
EXTRACT: note_off channel=4 note=56 velocity=95 time=0.031249968750000003
EXTRACT: note_off channel=4 note=52 velocity=95 time=0
EXTRACT: note_off channel=4 note=47 velocity=95 time=0
EXTRACT: note_off channel=0 note=71 velocity=95 time=0.13541653125
EXTRACT: note_off channel=0 note=66 velocity=95 time=0
EXTRACT: note_off channel=0 note=63 velocity=95 time=0
EXTRACT: note_off channel=0 note=59 velocity=95 time=0
EXTRACT: note_off channel=2 note=71 velocity=95 time=0
EXTRACT: note_off channel=2 note=66 velocity=95 time=0
EXTRACT: note_on channel=2 note=71 velocity=95 time=0
EXTRACT: note_on channel=2 note=66 velocity=95 time=0
EXTRACT: note_on channel=4 note=56 velocity=95 time=0
EXTRACT: note_on channel=4 note=52 velocity=95 time=0
EXTRACT: note_on channel=4 note=47 velocity=95 time=0
EXTRACT: note_off channel=6 note=63 velocity=95 time=0
EXTRACT: note_on channel=6 note=63 velocity=95 time=0
EXTRACT: note_off channel=12 note=35 velocity=95 time=0
EXTRACT: note_on channel=9 note=42 velocity=95 time=0
EXTRACT: note_on channel=9 note=40 velocity=95 time=0
EXTRACT: note_off channel=4 note=56 velocity=95 time=0.031249968750000003
EXTRACT: note_off channel=4 note=52 velocity=95 time=0
EXTRACT: note_off channel=4 note=47 velocity=95 time=0
EXTRACT: note_on channel=0 note=71 velocity=95 time=0.13541653125
EXTRACT: note_on channel=0 note=66 velocity=95 time=0
EXTRACT: note_on channel=0 note=63 velocity=95 time=0
EXTRACT: note_on channel=0 note=59 velocity=95 time=0
EXTRACT: note_off channel=2 note=71 velocity=95 time=0
EXTRACT: note_off channel=2 note=66 velocity=95 time=0
EXTRACT: note_on channel=2 note=71 velocity=95 time=0
EXTRACT: note_on channel=2 note=66 velocity=95 time=0
EXTRACT: note_on channel=4 note=63 velocity=95 time=0
EXTRACT: note_on channel=4 note=59 velocity=95 time=0
EXTRACT: note_on channel=4 note=54 velocity=95 time=0
EXTRACT: note_on channel=4 note=47 velocity=95 time=0
EXTRACT: note_off channel=6 note=63 velocity=95 time=0
EXTRACT: note_on channel=6 note=63 velocity=95 time=0
EXTRACT: note_on channel=12 note=30 velocity=95 time=0
EXTRACT: note_off channel=9 note=42 velocity=95 time=0
EXTRACT: note_off channel=9 note=40 velocity=95 time=0
EXTRACT: note_on channel=9 note=42 velocity=95 time=0
EXTRACT: note_off channel=0 note=71 velocity=95 time=0.1666665
EXTRACT: note_off channel=0 note=66 velocity=95 time=0
EXTRACT: note_off channel=0 note=63 velocity=95 time=0
EXTRACT: note_off channel=0 note=59 velocity=95 time=0
EXTRACT: note_off channel=2 note=71 velocity=95 time=0
EXTRACT: note_off channel=2 note=66 velocity=95 time=0
EXTRACT: note_on channel=3 note=71 velocity=95 time=0
EXTRACT: note_on channel=3 note=66 velocity=95 time=0
EXTRACT: note_off channel=4 note=63 velocity=95 time=0
EXTRACT: note_off channel=4 note=59 velocity=95 time=0
EXTRACT: note_off channel=4 note=54 velocity=95 time=0
EXTRACT: note_off channel=4 note=47 velocity=95 time=0
EXTRACT: note_on channel=4 note=56 velocity=95 time=0
EXTRACT: note_on channel=4 note=52 velocity=95 time=0
EXTRACT: note_on channel=4 note=47 velocity=95 time=0
EXTRACT: note_off channel=12 note=30 velocity=95 time=0
EXTRACT: note_on channel=12 note=30 velocity=95 time=0
EXTRACT: note_off channel=9 note=42 velocity=95 time=0
EXTRACT: note_on channel=9 note=42 velocity=95 time=0
EXTRACT: note_on channel=9 note=36 velocity=95 time=0
EXTRACT: note_off channel=4 note=56 velocity=95 time=0.031249968750000003
EXTRACT: note_off channel=4 note=52 velocity=95 time=0
EXTRACT: note_off channel=4 note=47 velocity=95 time=0
EXTRACT: pitchwheel channel=3 pitch=256 time=0.01041665625
EXTRACT: pitchwheel channel=3 pitch=256 time=0
EXTRACT: pitchwheel channel=3 pitch=640 time=0.041666625
EXTRACT: pitchwheel channel=3 pitch=640 time=0
EXTRACT: pitchwheel channel=3 pitch=1024 time=0.041666625
EXTRACT: pitchwheel channel=3 pitch=1024 time=0
EXTRACT: note_on channel=0 note=71 velocity=95 time=0.041666625
EXTRACT: note_on channel=0 note=66 velocity=95 time=0
EXTRACT: note_on channel=0 note=63 velocity=95 time=0
EXTRACT: note_on channel=0 note=59 velocity=95 time=0
EXTRACT: pitchwheel channel=3 pitch=1408 time=0
EXTRACT: pitchwheel channel=3 pitch=0 time=0
EXTRACT: note_off channel=3 note=71 velocity=95 time=0
EXTRACT: pitchwheel channel=3 pitch=1408 time=0
EXTRACT: pitchwheel channel=3 pitch=0 time=0
EXTRACT: note_off channel=3 note=66 velocity=95 time=0
EXTRACT: note_on channel=2 note=73 velocity=95 time=0
EXTRACT: note_on channel=2 note=68 velocity=95 time=0
EXTRACT: note_on channel=4 note=56 velocity=95 time=0
EXTRACT: note_on channel=4 note=52 velocity=95 time=0
EXTRACT: note_on channel=4 note=47 velocity=95 time=0
EXTRACT: note_off channel=6 note=63 velocity=95 time=0
EXTRACT: note_on channel=6 note=64 velocity=95 time=0
EXTRACT: note_off channel=9 note=42 velocity=95 time=0
EXTRACT: note_off channel=9 note=36 velocity=95 time=0
EXTRACT: note_off channel=4 note=56 velocity=95 time=0.031249968750000003
EXTRACT: note_off channel=4 note=52 velocity=95 time=0
EXTRACT: note_off channel=4 note=47 velocity=95 time=0
EXTRACT: note_off channel=0 note=71 velocity=95 time=0.13541653125
EXTRACT: note_off channel=0 note=66 velocity=95 time=0
EXTRACT: note_off channel=0 note=63 velocity=95 time=0
EXTRACT: note_off channel=0 note=59 velocity=95 time=0
EXTRACT: note_off channel=2 note=73 velocity=95 time=0
EXTRACT: note_off channel=2 note=68 velocity=95 time=0
EXTRACT: note_on channel=2 note=73 velocity=95 time=0
EXTRACT: note_on channel=2 note=68 velocity=95 time=0
EXTRACT: note_on channel=4 note=56 velocity=95 time=0
EXTRACT: note_on channel=4 note=52 velocity=95 time=0
EXTRACT: note_on channel=4 note=47 velocity=95 time=0
EXTRACT: note_off channel=12 note=30 velocity=95 time=0
EXTRACT: note_on channel=12 note=33 velocity=95 time=0
EXTRACT: note_on channel=9 note=42 velocity=95 time=0
EXTRACT: note_on channel=9 note=40 velocity=95 time=0
EXTRACT: note_off channel=4 note=56 velocity=95 time=0.031249968750000003
EXTRACT: note_off channel=4 note=52 velocity=95 time=0
EXTRACT: note_off channel=4 note=47 velocity=95 time=0
EXTRACT: note_on channel=0 note=71 velocity=95 time=0.13541653125
EXTRACT: note_on channel=0 note=66 velocity=95 time=0
EXTRACT: note_on channel=0 note=63 velocity=95 time=0
EXTRACT: note_on channel=0 note=59 velocity=95 time=0
EXTRACT: note_on channel=4 note=56 velocity=95 time=0
EXTRACT: note_on channel=4 note=52 velocity=95 time=0
EXTRACT: note_on channel=4 note=47 velocity=95 time=0
EXTRACT: note_off channel=6 note=64 velocity=95 time=0
EXTRACT: note_on channel=6 note=63 velocity=95 time=0
EXTRACT: note_off channel=9 note=42 velocity=95 time=0
EXTRACT: note_off channel=9 note=40 velocity=95 time=0
EXTRACT: note_on channel=9 note=42 velocity=95 time=0
EXTRACT: note_off channel=4 note=56 velocity=95 time=0.031249968750000003
EXTRACT: note_off channel=4 note=52 velocity=95 time=0
EXTRACT: note_off channel=4 note=47 velocity=95 time=0
EXTRACT: note_off channel=0 note=71 velocity=95 time=0.13541653125
EXTRACT: note_off channel=0 note=66 velocity=95 time=0
EXTRACT: note_off channel=0 note=63 velocity=95 time=0
EXTRACT: note_off channel=0 note=59 velocity=95 time=0
EXTRACT: note_off channel=2 note=73 velocity=95 time=0
EXTRACT: note_off channel=2 note=68 velocity=95 time=0
EXTRACT: note_on channel=3 note=73 velocity=95 time=0
EXTRACT: note_on channel=3 note=68 velocity=95 time=0
EXTRACT: note_on channel=4 note=56 velocity=95 time=0
EXTRACT: note_on channel=4 note=52 velocity=95 time=0
EXTRACT: note_on channel=4 note=47 velocity=95 time=0
EXTRACT: note_off channel=12 note=33 velocity=95 time=0
EXTRACT: note_on channel=12 note=37 velocity=95 time=0
EXTRACT: note_off channel=9 note=42 velocity=95 time=0
EXTRACT: note_on channel=9 note=42 velocity=95 time=0
EXTRACT: note_on channel=9 note=36 velocity=95 time=0
EXTRACT: note_off channel=4 note=56 velocity=95 time=0.031249968750000003
EXTRACT: note_off channel=4 note=52 velocity=95 time=0
EXTRACT: note_off channel=4 note=47 velocity=95 time=0
EXTRACT: pitchwheel channel=3 pitch=0 time=0.02430553125
EXTRACT: pitchwheel channel=3 pitch=0 time=0
EXTRACT: pitchwheel channel=3 pitch=128 time=0.0555555
EXTRACT: pitchwheel channel=3 pitch=128 time=0
EXTRACT: note_on channel=0 note=73 velocity=95 time=0.0555555
EXTRACT: note_on channel=0 note=68 velocity=95 time=0
EXTRACT: note_on channel=0 note=64 velocity=95 time=0
EXTRACT: note_on channel=0 note=61 velocity=95 time=0
EXTRACT: pitchwheel channel=3 pitch=0 time=0
EXTRACT: pitchwheel channel=3 pitch=0 time=0
EXTRACT: note_on channel=4 note=64 velocity=95 time=0
EXTRACT: note_on channel=4 note=61 velocity=95 time=0
EXTRACT: note_on channel=4 note=56 velocity=95 time=0
EXTRACT: note_on channel=4 note=49 velocity=95 time=0
EXTRACT: note_off channel=6 note=63 velocity=95 time=0
EXTRACT: note_on channel=6 note=61 velocity=95 time=0
EXTRACT: note_off channel=9 note=42 velocity=95 time=0
EXTRACT: note_off channel=9 note=36 velocity=95 time=0
EXTRACT: pitchwheel channel=3 pitch=128 time=0.0555555
EXTRACT: pitchwheel channel=3 pitch=128 time=0
EXTRACT: pitchwheel channel=3 pitch=0 time=0.0555555
EXTRACT: pitchwheel channel=3 pitch=0 time=0
EXTRACT: note_off channel=0 note=73 velocity=95 time=0.0555555
EXTRACT: note_off channel=0 note=68 velocity=95 time=0
EXTRACT: note_off channel=0 note=64 velocity=95 time=0
EXTRACT: note_off channel=0 note=61 velocity=95 time=0
EXTRACT: pitchwheel channel=3 pitch=128 time=0
EXTRACT: pitchwheel channel=3 pitch=128 time=0
EXTRACT: note_off channel=4 note=64 velocity=95 time=0
EXTRACT: note_off channel=4 note=61 velocity=95 time=0
EXTRACT: note_off channel=4 note=56 velocity=95 time=0
EXTRACT: note_off channel=4 note=49 velocity=95 time=0
EXTRACT: note_on channel=4 note=64 velocity=95 time=0
EXTRACT: note_on channel=4 note=61 velocity=95 time=0
EXTRACT: note_on channel=4 note=56 velocity=95 time=0
EXTRACT: note_on channel=4 note=49 velocity=95 time=0
EXTRACT: note_on channel=14 note=80 velocity=95 time=0
EXTRACT: note_on channel=14 note=73 velocity=95 time=0
EXTRACT: note_on channel=9 note=42 velocity=95 time=0
EXTRACT: note_on channel=9 note=40 velocity=95 time=0
EXTRACT: pitchwheel channel=3 pitch=0 time=0.0555555
EXTRACT: pitchwheel channel=3 pitch=0 time=0
EXTRACT: pitchwheel channel=3 pitch=128 time=0.0555555
EXTRACT: pitchwheel channel=3 pitch=128 time=0
EXTRACT: note_on channel=0 note=73 velocity=95 time=0.0555555
EXTRACT: note_on channel=0 note=68 velocity=95 time=0
EXTRACT: note_on channel=0 note=64 velocity=95 time=0
EXTRACT: note_on channel=0 note=61 velocity=95 time=0
EXTRACT: pitchwheel channel=3 pitch=0 time=0
EXTRACT: pitchwheel channel=3 pitch=0 time=0
EXTRACT: note_off channel=4 note=64 velocity=95 time=0
EXTRACT: note_off channel=4 note=61 velocity=95 time=0
EXTRACT: note_off channel=4 note=56 velocity=95 time=0
EXTRACT: note_off channel=4 note=49 velocity=95 time=0
EXTRACT: note_on channel=4 note=64 velocity=95 time=0
EXTRACT: note_on channel=4 note=61 velocity=95 time=0
EXTRACT: note_on channel=4 note=56 velocity=95 time=0
EXTRACT: note_on channel=4 note=49 velocity=95 time=0
EXTRACT: note_off channel=12 note=37 velocity=95 time=0
EXTRACT: note_on channel=12 note=37 velocity=95 time=0
EXTRACT: note_off channel=14 note=80 velocity=95 time=0
EXTRACT: note_off channel=14 note=73 velocity=95 time=0
EXTRACT: note_off channel=9 note=42 velocity=95 time=0
EXTRACT: note_off channel=9 note=40 velocity=95 time=0
EXTRACT: note_on channel=9 note=42 velocity=95 time=0
EXTRACT: pitchwheel channel=3 pitch=128 time=0.0555555
EXTRACT: pitchwheel channel=3 pitch=128 time=0
EXTRACT: pitchwheel channel=3 pitch=0 time=0.0555555
EXTRACT: pitchwheel channel=3 pitch=0 time=0
EXTRACT: note_off channel=0 note=73 velocity=95 time=0.0555555
EXTRACT: note_off channel=0 note=68 velocity=95 time=0
EXTRACT: note_off channel=0 note=64 velocity=95 time=0
EXTRACT: note_off channel=0 note=61 velocity=95 time=0
EXTRACT: pitchwheel channel=3 pitch=128 time=0
EXTRACT: pitchwheel channel=3 pitch=0 time=0
EXTRACT: note_off channel=3 note=73 velocity=95 time=0
EXTRACT: pitchwheel channel=3 pitch=128 time=0
EXTRACT: pitchwheel channel=3 pitch=0 time=0
EXTRACT: note_off channel=3 note=68 velocity=95 time=0
EXTRACT: note_off channel=4 note=64 velocity=95 time=0
EXTRACT: note_off channel=4 note=61 velocity=95 time=0
EXTRACT: note_off channel=4 note=56 velocity=95 time=0
EXTRACT: note_off channel=4 note=49 velocity=95 time=0
EXTRACT: note_on channel=4 note=64 velocity=95 time=0
EXTRACT: note_on channel=4 note=61 velocity=95 time=0
EXTRACT: note_on channel=4 note=56 velocity=95 time=0
EXTRACT: note_on channel=4 note=49 velocity=95 time=0
EXTRACT: note_off channel=12 note=37 velocity=95 time=0
EXTRACT: note_on channel=12 note=32 velocity=95 time=0
EXTRACT: note_on channel=14 note=80 velocity=95 time=0
EXTRACT: note_on channel=14 note=73 velocity=95 time=0
EXTRACT: note_off channel=9 note=42 velocity=95 time=0
EXTRACT: note_on channel=9 note=42 velocity=95 time=0
EXTRACT: note_off channel=6 note=61 velocity=95 time=0.08333325
EXTRACT: note_on channel=0 note=73 velocity=95 time=0.08333325
EXTRACT: note_on channel=0 note=68 velocity=95 time=0
EXTRACT: note_on channel=0 note=64 velocity=95 time=0
EXTRACT: note_on channel=0 note=61 velocity=95 time=0
EXTRACT: note_off channel=4 note=64 velocity=95 time=0
EXTRACT: note_off channel=4 note=61 velocity=95 time=0
EXTRACT: note_off channel=4 note=56 velocity=95 time=0
EXTRACT: note_off channel=4 note=49 velocity=95 time=0
EXTRACT: note_on channel=4 note=64 velocity=95 time=0
EXTRACT: note_on channel=4 note=61 velocity=95 time=0
EXTRACT: note_on channel=4 note=56 velocity=95 time=0
EXTRACT: note_on channel=4 note=49 velocity=95 time=0
EXTRACT: note_off channel=14 note=80 velocity=95 time=0
EXTRACT: note_off channel=14 note=73 velocity=95 time=0
EXTRACT: note_off channel=9 note=42 velocity=95 time=0
EXTRACT: note_on channel=9 note=36 velocity=95 time=0
EXTRACT: note_off channel=0 note=73 velocity=95 time=0.1666665
EXTRACT: note_off channel=0 note=68 velocity=95 time=0
EXTRACT: note_off channel=0 note=64 velocity=95 time=0
EXTRACT: note_off channel=0 note=61 velocity=95 time=0
EXTRACT: note_off channel=4 note=64 velocity=95 time=0
EXTRACT: note_off channel=4 note=61 velocity=95 time=0
EXTRACT: note_off channel=4 note=56 velocity=95 time=0
EXTRACT: note_off channel=4 note=49 velocity=95 time=0
EXTRACT: note_on channel=4 note=56 velocity=95 time=0
EXTRACT: note_on channel=4 note=52 velocity=95 time=0
EXTRACT: note_on channel=4 note=47 velocity=95 time=0
EXTRACT: note_on channel=6 note=61 velocity=95 time=0
EXTRACT: note_off channel=12 note=32 velocity=95 time=0
EXTRACT: note_on channel=12 note=35 velocity=95 time=0
EXTRACT: note_off channel=9 note=36 velocity=95 time=0
EXTRACT: note_on channel=9 note=42 velocity=95 time=0
EXTRACT: note_on channel=9 note=40 velocity=95 time=0
EXTRACT: note_off channel=4 note=56 velocity=95 time=0.031249968750000003
EXTRACT: note_off channel=4 note=52 velocity=95 time=0
EXTRACT: note_off channel=4 note=47 velocity=95 time=0
EXTRACT: note_on channel=0 note=73 velocity=95 time=0.13541653125
EXTRACT: note_on channel=0 note=68 velocity=95 time=0
EXTRACT: note_on channel=0 note=64 velocity=95 time=0
EXTRACT: note_on channel=0 note=61 velocity=95 time=0
EXTRACT: note_on channel=4 note=56 velocity=95 time=0
EXTRACT: note_on channel=4 note=52 velocity=95 time=0
EXTRACT: note_on channel=4 note=47 velocity=95 time=0
EXTRACT: note_off channel=12 note=35 velocity=95 time=0
EXTRACT: note_on channel=12 note=35 velocity=95 time=0
EXTRACT: note_off channel=9 note=42 velocity=95 time=0
EXTRACT: note_off channel=9 note=40 velocity=95 time=0
EXTRACT: note_on channel=9 note=42 velocity=95 time=0
EXTRACT: note_off channel=4 note=56 velocity=95 time=0.031249968750000003
EXTRACT: note_off channel=4 note=52 velocity=95 time=0
EXTRACT: note_off channel=4 note=47 velocity=95 time=0
EXTRACT: note_off channel=6 note=61 velocity=95 time=0.07291659375000001
EXTRACT: note_off channel=0 note=73 velocity=95 time=0.062499937500000005
EXTRACT: note_off channel=0 note=68 velocity=95 time=0
EXTRACT: note_off channel=0 note=64 velocity=95 time=0
EXTRACT: note_off channel=0 note=61 velocity=95 time=0
EXTRACT: note_on channel=4 note=64 velocity=95 time=0
EXTRACT: note_on channel=4 note=61 velocity=95 time=0
EXTRACT: note_on channel=4 note=56 velocity=95 time=0
EXTRACT: note_on channel=4 note=49 velocity=95 time=0
EXTRACT: note_on channel=6 note=68 velocity=95 time=0
EXTRACT: note_on channel=6 note=64 velocity=95 time=0
EXTRACT: note_off channel=12 note=35 velocity=95 time=0
EXTRACT: note_on channel=12 note=37 velocity=95 time=0
EXTRACT: note_off channel=9 note=42 velocity=95 time=0
EXTRACT: note_on channel=9 note=42 velocity=95 time=0
EXTRACT: note_on channel=9 note=36 velocity=95 time=0
EXTRACT: note_on channel=0 note=73 velocity=95 time=0.1666665
EXTRACT: note_on channel=0 note=68 velocity=95 time=0
EXTRACT: note_on channel=0 note=64 velocity=95 time=0
EXTRACT: note_on channel=0 note=61 velocity=95 time=0
EXTRACT: note_off channel=4 note=64 velocity=95 time=0
EXTRACT: note_off channel=4 note=61 velocity=95 time=0
EXTRACT: note_off channel=4 note=56 velocity=95 time=0
EXTRACT: note_off channel=4 note=49 velocity=95 time=0
EXTRACT: note_on channel=4 note=56 velocity=95 time=0
EXTRACT: note_on channel=4 note=52 velocity=95 time=0
EXTRACT: note_on channel=4 note=47 velocity=95 time=0
EXTRACT: note_off channel=9 note=42 velocity=95 time=0
EXTRACT: note_off channel=9 note=36 velocity=95 time=0
EXTRACT: note_off channel=4 note=56 velocity=95 time=0.031249968750000003
EXTRACT: note_off channel=4 note=52 velocity=95 time=0
EXTRACT: note_off channel=4 note=47 velocity=95 time=0
EXTRACT: note_off channel=0 note=73 velocity=95 time=0.13541653125
EXTRACT: note_off channel=0 note=68 velocity=95 time=0
EXTRACT: note_off channel=0 note=64 velocity=95 time=0
EXTRACT: note_off channel=0 note=61 velocity=95 time=0
EXTRACT: note_on channel=4 note=56 velocity=95 time=0
EXTRACT: note_on channel=4 note=52 velocity=95 time=0
EXTRACT: note_on channel=4 note=47 velocity=95 time=0
EXTRACT: note_on channel=9 note=42 velocity=95 time=0
EXTRACT: note_on channel=9 note=40 velocity=95 time=0
EXTRACT: note_off channel=4 note=56 velocity=95 time=0.031249968750000003
EXTRACT: note_off channel=4 note=52 velocity=95 time=0
EXTRACT: note_off channel=4 note=47 velocity=95 time=0
EXTRACT: note_off channel=6 note=68 velocity=95 time=0.07291659375000001
EXTRACT: note_off channel=6 note=64 velocity=95 time=0
EXTRACT: note_on channel=0 note=73 velocity=95 time=0.062499937500000005
EXTRACT: note_on channel=0 note=68 velocity=95 time=0
EXTRACT: note_on channel=0 note=64 velocity=95 time=0
EXTRACT: note_on channel=0 note=61 velocity=95 time=0
EXTRACT: note_on channel=4 note=64 velocity=95 time=0
EXTRACT: note_on channel=4 note=61 velocity=95 time=0
EXTRACT: note_on channel=4 note=56 velocity=95 time=0
EXTRACT: note_on channel=4 note=49 velocity=95 time=0
EXTRACT: note_on channel=6 note=68 velocity=95 time=0
EXTRACT: note_on channel=6 note=64 velocity=95 time=0
EXTRACT: note_off channel=12 note=37 velocity=95 time=0
EXTRACT: note_on channel=12 note=32 velocity=95 time=0
EXTRACT: note_off channel=9 note=42 velocity=95 time=0
EXTRACT: note_off channel=9 note=40 velocity=95 time=0
EXTRACT: note_on channel=9 note=42 velocity=95 time=0
EXTRACT: note_off channel=0 note=73 velocity=95 time=0.1666665
EXTRACT: note_off channel=0 note=68 velocity=95 time=0
EXTRACT: note_off channel=0 note=64 velocity=95 time=0
EXTRACT: note_off channel=0 note=61 velocity=95 time=0
EXTRACT: note_off channel=4 note=64 velocity=95 time=0
EXTRACT: note_off channel=4 note=61 velocity=95 time=0
EXTRACT: note_off channel=4 note=56 velocity=95 time=0
EXTRACT: note_off channel=4 note=49 velocity=95 time=0
EXTRACT: note_on channel=4 note=56 velocity=95 time=0
EXTRACT: note_on channel=4 note=52 velocity=95 time=0
EXTRACT: note_on channel=4 note=47 velocity=95 time=0
EXTRACT: note_off channel=9 note=42 velocity=95 time=0
EXTRACT: note_on channel=9 note=42 velocity=95 time=0
EXTRACT: note_on channel=9 note=36 velocity=95 time=0
EXTRACT: note_off channel=4 note=56 velocity=95 time=0.031249968750000003
EXTRACT: note_off channel=4 note=52 velocity=95 time=0
EXTRACT: note_off channel=4 note=47 velocity=95 time=0
EXTRACT: note_on channel=0 note=73 velocity=95 time=0.13541653125
EXTRACT: note_on channel=0 note=68 velocity=95 time=0
EXTRACT: note_on channel=0 note=64 velocity=95 time=0
EXTRACT: note_on channel=0 note=61 velocity=95 time=0
EXTRACT: note_on channel=3 note=54 velocity=95 time=0
EXTRACT: note_on channel=4 note=56 velocity=95 time=0
EXTRACT: note_on channel=4 note=52 velocity=95 time=0
EXTRACT: note_on channel=4 note=47 velocity=95 time=0
EXTRACT: note_off channel=9 note=42 velocity=95 time=0
EXTRACT: note_off channel=9 note=36 velocity=95 time=0
EXTRACT: note_off channel=4 note=56 velocity=95 time=0.031249968750000003
EXTRACT: note_off channel=4 note=52 velocity=95 time=0
EXTRACT: note_off channel=4 note=47 velocity=95 time=0
EXTRACT: pitchwheel channel=3 pitch=256 time=0.01041665625
EXTRACT: pitchwheel channel=3 pitch=640 time=0.041666625
EXTRACT: note_off channel=6 note=68 velocity=95 time=0.0208333125
EXTRACT: note_off channel=6 note=64 velocity=95 time=0
EXTRACT: pitchwheel channel=3 pitch=1024 time=0.0208333125
EXTRACT: note_off channel=0 note=73 velocity=95 time=0.041666625
EXTRACT: note_off channel=0 note=68 velocity=95 time=0
EXTRACT: note_off channel=0 note=64 velocity=95 time=0
EXTRACT: note_off channel=0 note=61 velocity=95 time=0
EXTRACT: pitchwheel channel=3 pitch=1408 time=0
EXTRACT: pitchwheel channel=3 pitch=0 time=0
EXTRACT: note_off channel=3 note=54 velocity=95 time=0
EXTRACT: note_on channel=2 note=56 velocity=95 time=0
EXTRACT: note_on channel=4 note=64 velocity=95 time=0
EXTRACT: note_on channel=4 note=61 velocity=95 time=0
EXTRACT: note_on channel=4 note=56 velocity=95 time=0
EXTRACT: note_on channel=4 note=49 velocity=95 time=0
EXTRACT: note_on channel=6 note=68 velocity=95 time=0
EXTRACT: note_on channel=6 note=64 velocity=95 time=0
EXTRACT: note_off channel=12 note=32 velocity=95 time=0
EXTRACT: note_on channel=12 note=35 velocity=95 time=0
EXTRACT: note_on channel=9 note=42 velocity=95 time=0
EXTRACT: note_on channel=9 note=40 velocity=95 time=0
EXTRACT: note_on channel=0 note=73 velocity=95 time=0.1666665
EXTRACT: note_on channel=0 note=68 velocity=95 time=0
EXTRACT: note_on channel=0 note=64 velocity=95 time=0
EXTRACT: note_on channel=0 note=61 velocity=95 time=0
EXTRACT: note_off channel=2 note=56 velocity=95 time=0
EXTRACT: note_on channel=2 note=61 velocity=95 time=0
EXTRACT: note_off channel=4 note=64 velocity=95 time=0
EXTRACT: note_off channel=4 note=61 velocity=95 time=0
EXTRACT: note_off channel=4 note=56 velocity=95 time=0
EXTRACT: note_off channel=4 note=49 velocity=95 time=0
EXTRACT: note_on channel=4 note=56 velocity=95 time=0
EXTRACT: note_on channel=4 note=52 velocity=95 time=0
EXTRACT: note_on channel=4 note=47 velocity=95 time=0
EXTRACT: note_off channel=9 note=42 velocity=95 time=0
EXTRACT: note_off channel=9 note=40 velocity=95 time=0
EXTRACT: note_on channel=9 note=42 velocity=95 time=0
EXTRACT: note_off channel=4 note=56 velocity=95 time=0.031249968750000003
EXTRACT: note_off channel=4 note=52 velocity=95 time=0
EXTRACT: note_off channel=4 note=47 velocity=95 time=0
EXTRACT: note_off channel=0 note=73 velocity=95 time=0.13541653125
EXTRACT: note_off channel=0 note=68 velocity=95 time=0
EXTRACT: note_off channel=0 note=64 velocity=95 time=0
EXTRACT: note_off channel=0 note=61 velocity=95 time=0
EXTRACT: note_off channel=2 note=61 velocity=95 time=0
EXTRACT: note_on channel=3 note=56 velocity=95 time=0
EXTRACT: note_on channel=4 note=56 velocity=95 time=0
EXTRACT: note_on channel=4 note=52 velocity=95 time=0
EXTRACT: note_on channel=4 note=47 velocity=95 time=0
EXTRACT: note_off channel=9 note=42 velocity=95 time=0
EXTRACT: note_on channel=9 note=42 velocity=95 time=0
EXTRACT: note_on channel=9 note=36 velocity=95 time=0
EXTRACT: note_off channel=4 note=56 velocity=95 time=0.031249968750000003
EXTRACT: note_off channel=4 note=52 velocity=95 time=0
EXTRACT: note_off channel=4 note=47 velocity=95 time=0
EXTRACT: pitchwheel channel=3 pitch=-1408 time=0.01041665625
EXTRACT: pitchwheel channel=3 pitch=0 time=0
EXTRACT: note_off channel=3 note=56 velocity=95 time=0
EXTRACT: note_on channel=2 note=54 velocity=95 time=0
EXTRACT: note_on channel=0 note=73 velocity=95 time=0.12499987500000001
EXTRACT: note_on channel=0 note=68 velocity=95 time=0
EXTRACT: note_on channel=0 note=64 velocity=95 time=0
EXTRACT: note_on channel=0 note=61 velocity=95 time=0
EXTRACT: note_on channel=4 note=64 velocity=95 time=0
EXTRACT: note_on channel=4 note=61 velocity=95 time=0
EXTRACT: note_on channel=4 note=56 velocity=95 time=0
EXTRACT: note_on channel=4 note=49 velocity=95 time=0
EXTRACT: note_off channel=6 note=68 velocity=95 time=0
EXTRACT: note_off channel=6 note=64 velocity=95 time=0
EXTRACT: note_on channel=6 note=68 velocity=95 time=0
EXTRACT: note_on channel=6 note=64 velocity=95 time=0
EXTRACT: note_off channel=12 note=35 velocity=95 time=0
EXTRACT: note_on channel=12 note=37 velocity=95 time=0
EXTRACT: note_off channel=9 note=42 velocity=95 time=0
EXTRACT: note_off channel=9 note=36 velocity=95 time=0
EXTRACT: note_off channel=0 note=73 velocity=95 time=0.1666665
EXTRACT: note_off channel=0 note=68 velocity=95 time=0
EXTRACT: note_off channel=0 note=64 velocity=95 time=0
EXTRACT: note_off channel=0 note=61 velocity=95 time=0
EXTRACT: note_off channel=2 note=54 velocity=95 time=0
EXTRACT: note_on channel=2 note=59 velocity=95 time=0
EXTRACT: note_off channel=4 note=64 velocity=95 time=0
EXTRACT: note_off channel=4 note=61 velocity=95 time=0
EXTRACT: note_off channel=4 note=56 velocity=95 time=0
EXTRACT: note_off channel=4 note=49 velocity=95 time=0
EXTRACT: note_on channel=4 note=64 velocity=95 time=0
EXTRACT: note_on channel=4 note=61 velocity=95 time=0
EXTRACT: note_on channel=4 note=56 velocity=95 time=0
EXTRACT: note_on channel=4 note=49 velocity=95 time=0
EXTRACT: note_on channel=9 note=42 velocity=95 time=0
EXTRACT: note_on channel=9 note=40 velocity=95 time=0
EXTRACT: note_on channel=0 note=73 velocity=95 time=0.1666665
EXTRACT: note_on channel=0 note=68 velocity=95 time=0
EXTRACT: note_on channel=0 note=64 velocity=95 time=0
EXTRACT: note_on channel=0 note=61 velocity=95 time=0
EXTRACT: note_off channel=2 note=59 velocity=95 time=0
EXTRACT: note_on channel=2 note=59 velocity=95 time=0
EXTRACT: note_off channel=4 note=64 velocity=95 time=0
EXTRACT: note_off channel=4 note=61 velocity=95 time=0
EXTRACT: note_off channel=4 note=56 velocity=95 time=0
EXTRACT: note_off channel=4 note=49 velocity=95 time=0
EXTRACT: note_on channel=4 note=64 velocity=95 time=0
EXTRACT: note_on channel=4 note=61 velocity=95 time=0
EXTRACT: note_on channel=4 note=56 velocity=95 time=0
EXTRACT: note_on channel=4 note=49 velocity=95 time=0
EXTRACT: note_off channel=12 note=37 velocity=95 time=0
EXTRACT: note_on channel=12 note=37 velocity=95 time=0
EXTRACT: note_off channel=9 note=42 velocity=95 time=0
EXTRACT: note_off channel=9 note=40 velocity=95 time=0
EXTRACT: note_on channel=9 note=42 velocity=95 time=0
EXTRACT: note_off channel=6 note=68 velocity=95 time=0.1041665625
EXTRACT: note_off channel=6 note=64 velocity=95 time=0
EXTRACT: note_off channel=0 note=73 velocity=95 time=0.062499937500000005
EXTRACT: note_off channel=0 note=68 velocity=95 time=0
EXTRACT: note_off channel=0 note=64 velocity=95 time=0
EXTRACT: note_off channel=0 note=61 velocity=95 time=0
EXTRACT: note_off channel=4 note=64 velocity=95 time=0
EXTRACT: note_off channel=4 note=61 velocity=95 time=0
EXTRACT: note_off channel=4 note=56 velocity=95 time=0
EXTRACT: note_off channel=4 note=49 velocity=95 time=0
EXTRACT: note_on channel=4 note=64 velocity=95 time=0
EXTRACT: note_on channel=4 note=61 velocity=95 time=0
EXTRACT: note_on channel=4 note=56 velocity=95 time=0
EXTRACT: note_on channel=4 note=49 velocity=95 time=0
EXTRACT: note_on channel=6 note=68 velocity=95 time=0
EXTRACT: note_on channel=6 note=64 velocity=95 time=0
EXTRACT: note_off channel=12 note=37 velocity=95 time=0
EXTRACT: note_on channel=12 note=40 velocity=95 time=0
EXTRACT: note_off channel=9 note=42 velocity=95 time=0
EXTRACT: note_on channel=9 note=42 velocity=95 time=0
EXTRACT: note_on channel=0 note=73 velocity=95 time=0.1666665
EXTRACT: note_on channel=0 note=68 velocity=95 time=0
EXTRACT: note_on channel=0 note=64 velocity=95 time=0
EXTRACT: note_on channel=0 note=61 velocity=95 time=0
EXTRACT: note_off channel=4 note=64 velocity=95 time=0
EXTRACT: note_off channel=4 note=61 velocity=95 time=0
EXTRACT: note_off channel=4 note=56 velocity=95 time=0
EXTRACT: note_off channel=4 note=49 velocity=95 time=0
EXTRACT: note_on channel=4 note=56 velocity=95 time=0
EXTRACT: note_on channel=4 note=52 velocity=95 time=0
EXTRACT: note_on channel=4 note=47 velocity=95 time=0
EXTRACT: note_off channel=12 note=40 velocity=95 time=0
EXTRACT: note_on channel=12 note=39 velocity=95 time=0
EXTRACT: note_off channel=9 note=42 velocity=95 time=0
EXTRACT: note_on channel=9 note=36 velocity=95 time=0
EXTRACT: note_off channel=4 note=56 velocity=95 time=0.031249968750000003
EXTRACT: note_off channel=4 note=52 velocity=95 time=0
EXTRACT: note_off channel=4 note=47 velocity=95 time=0
EXTRACT: note_off channel=0 note=73 velocity=95 time=0.13541653125
EXTRACT: note_off channel=0 note=68 velocity=95 time=0
EXTRACT: note_off channel=0 note=64 velocity=95 time=0
EXTRACT: note_off channel=0 note=61 velocity=95 time=0
EXTRACT: note_off channel=2 note=59 velocity=95 time=0
EXTRACT: note_on channel=4 note=56 velocity=95 time=0
EXTRACT: note_on channel=4 note=52 velocity=95 time=0
EXTRACT: note_on channel=4 note=47 velocity=95 time=0
EXTRACT: note_off channel=12 note=39 velocity=95 time=0
EXTRACT: note_on channel=12 note=37 velocity=95 time=0
EXTRACT: note_off channel=9 note=36 velocity=95 time=0
EXTRACT: note_on channel=9 note=42 velocity=95 time=0
EXTRACT: note_on channel=9 note=40 velocity=95 time=0
EXTRACT: note_off channel=4 note=56 velocity=95 time=0.031249968750000003
EXTRACT: note_off channel=4 note=52 velocity=95 time=0
EXTRACT: note_off channel=4 note=47 velocity=95 time=0
EXTRACT: note_off channel=6 note=68 velocity=95 time=0.07291659375000001
EXTRACT: note_off channel=6 note=64 velocity=95 time=0
EXTRACT: note_on channel=0 note=73 velocity=95 time=0.062499937500000005
EXTRACT: note_on channel=0 note=68 velocity=95 time=0
EXTRACT: note_on channel=0 note=64 velocity=95 time=0
EXTRACT: note_on channel=0 note=61 velocity=95 time=0
EXTRACT: note_on channel=4 note=56 velocity=95 time=0
EXTRACT: note_on channel=4 note=52 velocity=95 time=0
EXTRACT: note_on channel=4 note=47 velocity=95 time=0
EXTRACT: note_on channel=6 note=56 velocity=95 time=0
EXTRACT: note_off channel=12 note=37 velocity=95 time=0
EXTRACT: note_on channel=12 note=33 velocity=95 time=0
EXTRACT: note_off channel=9 note=42 velocity=95 time=0
EXTRACT: note_off channel=9 note=40 velocity=95 time=0
EXTRACT: note_on channel=9 note=42 velocity=95 time=0
EXTRACT: note_off channel=4 note=56 velocity=95 time=0.031249968750000003
EXTRACT: note_off channel=4 note=52 velocity=95 time=0
EXTRACT: note_off channel=4 note=47 velocity=95 time=0
EXTRACT: note_off channel=12 note=33 velocity=95 time=0
EXTRACT: note_off channel=0 note=73 velocity=95 time=0.13541653125
EXTRACT: note_off channel=0 note=68 velocity=95 time=0
EXTRACT: note_off channel=0 note=64 velocity=95 time=0
EXTRACT: note_off channel=0 note=61 velocity=95 time=0
EXTRACT: note_on channel=4 note=63 velocity=95 time=0
EXTRACT: note_on channel=4 note=59 velocity=95 time=0
EXTRACT: note_on channel=4 note=54 velocity=95 time=0
EXTRACT: note_on channel=4 note=47 velocity=95 time=0
EXTRACT: note_off channel=6 note=56 velocity=95 time=0
EXTRACT: note_on channel=6 note=63 velocity=95 time=0
EXTRACT: note_on channel=12 note=35 velocity=95 time=0
EXTRACT: note_off channel=9 note=42 velocity=95 time=0
EXTRACT: note_on channel=9 note=42 velocity=95 time=0
EXTRACT: note_on channel=9 note=36 velocity=95 time=0
EXTRACT: note_on channel=0 note=71 velocity=95 time=0.1666665
EXTRACT: note_on channel=0 note=66 velocity=95 time=0
EXTRACT: note_on channel=0 note=63 velocity=95 time=0
EXTRACT: note_on channel=0 note=59 velocity=95 time=0
EXTRACT: note_on channel=3 note=54 velocity=95 time=0
EXTRACT: note_off channel=4 note=63 velocity=95 time=0
EXTRACT: note_off channel=4 note=59 velocity=95 time=0
EXTRACT: note_off channel=4 note=54 velocity=95 time=0
EXTRACT: note_off channel=4 note=47 velocity=95 time=0
EXTRACT: note_on channel=4 note=56 velocity=95 time=0
EXTRACT: note_on channel=4 note=52 velocity=95 time=0
EXTRACT: note_on channel=4 note=47 velocity=95 time=0
EXTRACT: note_off channel=6 note=63 velocity=95 time=0
EXTRACT: note_on channel=6 note=63 velocity=95 time=0
EXTRACT: note_off channel=9 note=42 velocity=95 time=0
EXTRACT: note_off channel=9 note=36 velocity=95 time=0
EXTRACT: note_off channel=4 note=56 velocity=95 time=0.031249968750000003
EXTRACT: note_off channel=4 note=52 velocity=95 time=0
EXTRACT: note_off channel=4 note=47 velocity=95 time=0
EXTRACT: pitchwheel channel=3 pitch=256 time=0.01041665625
EXTRACT: pitchwheel channel=3 pitch=640 time=0.041666625
EXTRACT: pitchwheel channel=3 pitch=1024 time=0.041666625
EXTRACT: note_off channel=0 note=71 velocity=95 time=0.041666625
EXTRACT: note_off channel=0 note=66 velocity=95 time=0
EXTRACT: note_off channel=0 note=63 velocity=95 time=0
EXTRACT: note_off channel=0 note=59 velocity=95 time=0
EXTRACT: pitchwheel channel=3 pitch=1408 time=0
EXTRACT: pitchwheel channel=3 pitch=0 time=0
EXTRACT: note_off channel=3 note=54 velocity=95 time=0
EXTRACT: note_on channel=2 note=56 velocity=95 time=0
EXTRACT: note_on channel=4 note=56 velocity=95 time=0
EXTRACT: note_on channel=4 note=52 velocity=95 time=0
EXTRACT: note_on channel=4 note=47 velocity=95 time=0
EXTRACT: note_off channel=6 note=63 velocity=95 time=0
EXTRACT: note_on channel=6 note=63 velocity=95 time=0
EXTRACT: note_off channel=12 note=35 velocity=95 time=0
EXTRACT: note_on channel=9 note=42 velocity=95 time=0
EXTRACT: note_on channel=9 note=40 velocity=95 time=0
EXTRACT: note_off channel=4 note=56 velocity=95 time=0.031249968750000003
EXTRACT: note_off channel=4 note=52 velocity=95 time=0
EXTRACT: note_off channel=4 note=47 velocity=95 time=0
EXTRACT: note_on channel=0 note=71 velocity=95 time=0.13541653125
EXTRACT: note_on channel=0 note=66 velocity=95 time=0
EXTRACT: note_on channel=0 note=63 velocity=95 time=0
EXTRACT: note_on channel=0 note=59 velocity=95 time=0
EXTRACT: note_off channel=2 note=56 velocity=95 time=0
EXTRACT: note_on channel=2 note=61 velocity=95 time=0
EXTRACT: note_on channel=4 note=63 velocity=95 time=0
EXTRACT: note_on channel=4 note=59 velocity=95 time=0
EXTRACT: note_on channel=4 note=54 velocity=95 time=0
EXTRACT: note_on channel=4 note=47 velocity=95 time=0
EXTRACT: note_off channel=6 note=63 velocity=95 time=0
EXTRACT: note_on channel=6 note=63 velocity=95 time=0
EXTRACT: note_on channel=12 note=30 velocity=95 time=0
EXTRACT: note_off channel=9 note=42 velocity=95 time=0
EXTRACT: note_off channel=9 note=40 velocity=95 time=0
EXTRACT: note_on channel=9 note=42 velocity=95 time=0
EXTRACT: note_off channel=12 note=30 velocity=95 time=0.08333325
EXTRACT: note_off channel=0 note=71 velocity=95 time=0.08333325
EXTRACT: note_off channel=0 note=66 velocity=95 time=0
EXTRACT: note_off channel=0 note=63 velocity=95 time=0
EXTRACT: note_off channel=0 note=59 velocity=95 time=0
EXTRACT: note_off channel=4 note=63 velocity=95 time=0
EXTRACT: note_off channel=4 note=59 velocity=95 time=0
EXTRACT: note_off channel=4 note=54 velocity=95 time=0
EXTRACT: note_off channel=4 note=47 velocity=95 time=0
EXTRACT: note_on channel=4 note=56 velocity=95 time=0
EXTRACT: note_on channel=4 note=52 velocity=95 time=0
EXTRACT: note_on channel=4 note=47 velocity=95 time=0
EXTRACT: note_on channel=12 note=30 velocity=95 time=0
EXTRACT: note_off channel=9 note=42 velocity=95 time=0
EXTRACT: note_on channel=9 note=42 velocity=95 time=0
EXTRACT: note_on channel=9 note=36 velocity=95 time=0
EXTRACT: note_off channel=4 note=56 velocity=95 time=0.031249968750000003
EXTRACT: note_off channel=4 note=52 velocity=95 time=0
EXTRACT: note_off channel=4 note=47 velocity=95 time=0
EXTRACT: note_on channel=0 note=71 velocity=95 time=0.13541653125
EXTRACT: note_on channel=0 note=66 velocity=95 time=0
EXTRACT: note_on channel=0 note=63 velocity=95 time=0
EXTRACT: note_on channel=0 note=59 velocity=95 time=0
EXTRACT: note_off channel=2 note=61 velocity=95 time=0
EXTRACT: note_on channel=2 note=56 velocity=95 time=0
EXTRACT: note_on channel=4 note=56 velocity=95 time=0
EXTRACT: note_on channel=4 note=52 velocity=95 time=0
EXTRACT: note_on channel=4 note=47 velocity=95 time=0
EXTRACT: note_off channel=6 note=63 velocity=95 time=0
EXTRACT: note_on channel=6 note=66 velocity=95 time=0
EXTRACT: note_off channel=9 note=42 velocity=95 time=0
EXTRACT: note_off channel=9 note=36 velocity=95 time=0
EXTRACT: note_off channel=4 note=56 velocity=95 time=0.031249968750000003
EXTRACT: note_off channel=4 note=52 velocity=95 time=0
EXTRACT: note_off channel=4 note=47 velocity=95 time=0
EXTRACT: note_off channel=0 note=71 velocity=95 time=0.13541653125
EXTRACT: note_off channel=0 note=66 velocity=95 time=0
EXTRACT: note_off channel=0 note=63 velocity=95 time=0
EXTRACT: note_off channel=0 note=59 velocity=95 time=0
EXTRACT: note_off channel=2 note=56 velocity=95 time=0
EXTRACT: note_on channel=3 note=59 velocity=95 time=0
EXTRACT: note_on channel=4 note=56 velocity=95 time=0
EXTRACT: note_on channel=4 note=52 velocity=95 time=0
EXTRACT: note_on channel=4 note=47 velocity=95 time=0
EXTRACT: note_off channel=12 note=30 velocity=95 time=0
EXTRACT: note_on channel=12 note=33 velocity=95 time=0
EXTRACT: note_on channel=9 note=42 velocity=95 time=0
EXTRACT: note_on channel=9 note=40 velocity=95 time=0
EXTRACT: note_off channel=4 note=56 velocity=95 time=0.031249968750000003
EXTRACT: note_off channel=4 note=52 velocity=95 time=0
EXTRACT: note_off channel=4 note=47 velocity=95 time=0
EXTRACT: pitchwheel channel=3 pitch=256 time=0.01041665625
EXTRACT: pitchwheel channel=3 pitch=640 time=0.041666625
EXTRACT: pitchwheel channel=3 pitch=1024 time=0.041666625
EXTRACT: note_on channel=0 note=71 velocity=95 time=0.041666625
EXTRACT: note_on channel=0 note=66 velocity=95 time=0
EXTRACT: note_on channel=0 note=63 velocity=95 time=0
EXTRACT: note_on channel=0 note=59 velocity=95 time=0
EXTRACT: pitchwheel channel=3 pitch=1408 time=0
EXTRACT: pitchwheel channel=3 pitch=0 time=0
EXTRACT: note_off channel=3 note=59 velocity=95 time=0
EXTRACT: note_on channel=2 note=61 velocity=95 time=0
EXTRACT: note_on channel=4 note=56 velocity=95 time=0
EXTRACT: note_on channel=4 note=52 velocity=95 time=0
EXTRACT: note_on channel=4 note=47 velocity=95 time=0
EXTRACT: note_off channel=6 note=66 velocity=95 time=0
EXTRACT: note_on channel=6 note=66 velocity=95 time=0
EXTRACT: note_off channel=9 note=42 velocity=95 time=0
EXTRACT: note_off channel=9 note=40 velocity=95 time=0
EXTRACT: note_on channel=9 note=42 velocity=95 time=0
EXTRACT: note_off channel=4 note=56 velocity=95 time=0.031249968750000003
EXTRACT: note_off channel=4 note=52 velocity=95 time=0
EXTRACT: note_off channel=4 note=47 velocity=95 time=0
EXTRACT: note_off channel=0 note=71 velocity=95 time=0.13541653125
EXTRACT: note_off channel=0 note=66 velocity=95 time=0
EXTRACT: note_off channel=0 note=63 velocity=95 time=0
EXTRACT: note_off channel=0 note=59 velocity=95 time=0
EXTRACT: note_on channel=4 note=56 velocity=95 time=0
EXTRACT: note_on channel=4 note=52 velocity=95 time=0
EXTRACT: note_on channel=4 note=47 velocity=95 time=0
EXTRACT: note_off channel=12 note=33 velocity=95 time=0
EXTRACT: note_on channel=12 note=37 velocity=95 time=0
EXTRACT: note_off channel=9 note=42 velocity=95 time=0
EXTRACT: note_on channel=9 note=42 velocity=95 time=0
EXTRACT: note_on channel=9 note=36 velocity=95 time=0
EXTRACT: note_off channel=4 note=56 velocity=95 time=0.031249968750000003
EXTRACT: note_off channel=4 note=52 velocity=95 time=0
EXTRACT: note_off channel=4 note=47 velocity=95 time=0
EXTRACT: note_on channel=0 note=73 velocity=95 time=0.13541653125
EXTRACT: note_on channel=0 note=68 velocity=95 time=0
EXTRACT: note_on channel=0 note=64 velocity=95 time=0
EXTRACT: note_on channel=0 note=61 velocity=95 time=0
EXTRACT: note_on channel=4 note=64 velocity=95 time=0
EXTRACT: note_on channel=4 note=61 velocity=95 time=0
EXTRACT: note_on channel=4 note=56 velocity=95 time=0
EXTRACT: note_on channel=4 note=49 velocity=95 time=0
EXTRACT: note_off channel=6 note=66 velocity=95 time=0
EXTRACT: note_on channel=6 note=64 velocity=95 time=0
EXTRACT: note_on channel=14 note=80 velocity=95 time=0
EXTRACT: note_on channel=14 note=73 velocity=95 time=0
EXTRACT: note_off channel=9 note=42 velocity=95 time=0
EXTRACT: note_off channel=9 note=36 velocity=95 time=0
EXTRACT: note_off channel=0 note=73 velocity=95 time=0.1666665
EXTRACT: note_off channel=0 note=68 velocity=95 time=0
EXTRACT: note_off channel=0 note=64 velocity=95 time=0
EXTRACT: note_off channel=0 note=61 velocity=95 time=0
EXTRACT: note_off channel=2 note=61 velocity=95 time=0
EXTRACT: note_off channel=4 note=64 velocity=95 time=0
EXTRACT: note_off channel=4 note=61 velocity=95 time=0
EXTRACT: note_off channel=4 note=56 velocity=95 time=0
EXTRACT: note_off channel=4 note=49 velocity=95 time=0
EXTRACT: note_on channel=4 note=64 velocity=95 time=0
EXTRACT: note_on channel=4 note=61 velocity=95 time=0
EXTRACT: note_on channel=4 note=56 velocity=95 time=0
EXTRACT: note_on channel=4 note=49 velocity=95 time=0
EXTRACT: note_off channel=14 note=80 velocity=95 time=0
EXTRACT: note_off channel=14 note=73 velocity=95 time=0
EXTRACT: note_on channel=9 note=42 velocity=95 time=0
EXTRACT: note_on channel=9 note=40 velocity=95 time=0
EXTRACT: note_on channel=0 note=73 velocity=95 time=0.1666665
EXTRACT: note_on channel=0 note=68 velocity=95 time=0
EXTRACT: note_on channel=0 note=64 velocity=95 time=0
EXTRACT: note_on channel=0 note=61 velocity=95 time=0
EXTRACT: note_off channel=4 note=64 velocity=95 time=0
EXTRACT: note_off channel=4 note=61 velocity=95 time=0
EXTRACT: note_off channel=4 note=56 velocity=95 time=0
EXTRACT: note_off channel=4 note=49 velocity=95 time=0
EXTRACT: note_on channel=4 note=64 velocity=95 time=0
EXTRACT: note_on channel=4 note=61 velocity=95 time=0
EXTRACT: note_on channel=4 note=56 velocity=95 time=0
EXTRACT: note_on channel=4 note=49 velocity=95 time=0
EXTRACT: note_off channel=12 note=37 velocity=95 time=0
EXTRACT: note_on channel=12 note=37 velocity=95 time=0
EXTRACT: note_on channel=14 note=80 velocity=95 time=0
EXTRACT: note_on channel=14 note=73 velocity=95 time=0
EXTRACT: note_off channel=9 note=42 velocity=95 time=0
EXTRACT: note_off channel=9 note=40 velocity=95 time=0
EXTRACT: note_on channel=9 note=42 velocity=95 time=0
EXTRACT: note_off channel=0 note=73 velocity=95 time=0.1666665
EXTRACT: note_off channel=0 note=68 velocity=95 time=0
EXTRACT: note_off channel=0 note=64 velocity=95 time=0
EXTRACT: note_off channel=0 note=61 velocity=95 time=0
EXTRACT: note_off channel=4 note=64 velocity=95 time=0
EXTRACT: note_off channel=4 note=61 velocity=95 time=0
EXTRACT: note_off channel=4 note=56 velocity=95 time=0
EXTRACT: note_off channel=4 note=49 velocity=95 time=0
EXTRACT: note_on channel=4 note=64 velocity=95 time=0
EXTRACT: note_on channel=4 note=61 velocity=95 time=0
EXTRACT: note_on channel=4 note=56 velocity=95 time=0
EXTRACT: note_on channel=4 note=49 velocity=95 time=0
EXTRACT: note_off channel=12 note=37 velocity=95 time=0
EXTRACT: note_on channel=12 note=32 velocity=95 time=0
EXTRACT: note_off channel=14 note=80 velocity=95 time=0
EXTRACT: note_off channel=14 note=73 velocity=95 time=0
EXTRACT: note_off channel=9 note=42 velocity=95 time=0
EXTRACT: note_on channel=9 note=42 velocity=95 time=0
EXTRACT: note_on channel=0 note=73 velocity=95 time=0.1666665
EXTRACT: note_on channel=0 note=68 velocity=95 time=0
EXTRACT: note_on channel=0 note=64 velocity=95 time=0
EXTRACT: note_on channel=0 note=61 velocity=95 time=0
EXTRACT: note_off channel=4 note=64 velocity=95 time=0
EXTRACT: note_off channel=4 note=61 velocity=95 time=0
EXTRACT: note_off channel=4 note=56 velocity=95 time=0
EXTRACT: note_off channel=4 note=49 velocity=95 time=0
EXTRACT: note_on channel=4 note=64 velocity=95 time=0
EXTRACT: note_on channel=4 note=61 velocity=95 time=0
EXTRACT: note_on channel=4 note=56 velocity=95 time=0
EXTRACT: note_on channel=4 note=49 velocity=95 time=0
EXTRACT: note_on channel=14 note=80 velocity=95 time=0
EXTRACT: note_on channel=14 note=73 velocity=95 time=0
EXTRACT: note_off channel=9 note=42 velocity=95 time=0
EXTRACT: note_on channel=9 note=36 velocity=95 time=0
EXTRACT: note_off channel=6 note=64 velocity=95 time=0.08333325
EXTRACT: note_off channel=0 note=73 velocity=95 time=0.08333325
EXTRACT: note_off channel=0 note=68 velocity=95 time=0
EXTRACT: note_off channel=0 note=64 velocity=95 time=0
EXTRACT: note_off channel=0 note=61 velocity=95 time=0
EXTRACT: note_off channel=4 note=64 velocity=95 time=0
EXTRACT: note_off channel=4 note=61 velocity=95 time=0
EXTRACT: note_off channel=4 note=56 velocity=95 time=0
EXTRACT: note_off channel=4 note=49 velocity=95 time=0
EXTRACT: note_on channel=4 note=56 velocity=95 time=0
EXTRACT: note_on channel=4 note=52 velocity=95 time=0
EXTRACT: note_on channel=4 note=47 velocity=95 time=0
EXTRACT: note_off channel=12 note=32 velocity=95 time=0
EXTRACT: note_on channel=12 note=35 velocity=95 time=0
EXTRACT: note_off channel=14 note=80 velocity=95 time=0
EXTRACT: note_off channel=14 note=73 velocity=95 time=0
EXTRACT: note_off channel=9 note=36 velocity=95 time=0
EXTRACT: note_on channel=9 note=42 velocity=95 time=0
EXTRACT: note_on channel=9 note=40 velocity=95 time=0
EXTRACT: note_off channel=4 note=56 velocity=95 time=0.031249968750000003
EXTRACT: note_off channel=4 note=52 velocity=95 time=0
EXTRACT: note_off channel=4 note=47 velocity=95 time=0
EXTRACT: note_on channel=0 note=73 velocity=95 time=0.13541653125
EXTRACT: note_on channel=0 note=68 velocity=95 time=0
EXTRACT: note_on channel=0 note=64 velocity=95 time=0
EXTRACT: note_on channel=0 note=61 velocity=95 time=0
EXTRACT: note_on channel=4 note=56 velocity=95 time=0
EXTRACT: note_on channel=4 note=52 velocity=95 time=0
EXTRACT: note_on channel=4 note=47 velocity=95 time=0
EXTRACT: note_off channel=12 note=35 velocity=95 time=0
EXTRACT: note_on channel=12 note=35 velocity=95 time=0
EXTRACT: note_off channel=9 note=42 velocity=95 time=0
EXTRACT: note_off channel=9 note=40 velocity=95 time=0
EXTRACT: note_on channel=9 note=42 velocity=95 time=0
EXTRACT: note_off channel=4 note=56 velocity=95 time=0.031249968750000003
EXTRACT: note_off channel=4 note=52 velocity=95 time=0
EXTRACT: note_off channel=4 note=47 velocity=95 time=0
EXTRACT: note_off channel=0 note=73 velocity=95 time=0.13541653125
EXTRACT: note_off channel=0 note=68 velocity=95 time=0
EXTRACT: note_off channel=0 note=64 velocity=95 time=0
EXTRACT: note_off channel=0 note=61 velocity=95 time=0
EXTRACT: note_on channel=4 note=64 velocity=95 time=0
EXTRACT: note_on channel=4 note=61 velocity=95 time=0
EXTRACT: note_on channel=4 note=56 velocity=95 time=0
EXTRACT: note_on channel=4 note=49 velocity=95 time=0
EXTRACT: note_on channel=6 note=64 velocity=95 time=0
EXTRACT: note_on channel=6 note=68 velocity=95 time=0
EXTRACT: note_off channel=12 note=35 velocity=95 time=0
EXTRACT: note_on channel=12 note=37 velocity=95 time=0
EXTRACT: note_off channel=9 note=42 velocity=95 time=0
EXTRACT: note_on channel=9 note=42 velocity=95 time=0
EXTRACT: note_on channel=9 note=36 velocity=95 time=0
EXTRACT: note_on channel=0 note=73 velocity=95 time=0.1666665
EXTRACT: note_on channel=0 note=68 velocity=95 time=0
EXTRACT: note_on channel=0 note=64 velocity=95 time=0
EXTRACT: note_on channel=0 note=61 velocity=95 time=0
EXTRACT: note_on channel=2 note=61 velocity=95 time=0
EXTRACT: note_on channel=2 note=56 velocity=95 time=0
EXTRACT: note_off channel=4 note=64 velocity=95 time=0
EXTRACT: note_off channel=4 note=61 velocity=95 time=0
EXTRACT: note_off channel=4 note=56 velocity=95 time=0
EXTRACT: note_off channel=4 note=49 velocity=95 time=0
EXTRACT: note_on channel=4 note=56 velocity=95 time=0
EXTRACT: note_on channel=4 note=52 velocity=95 time=0
EXTRACT: note_on channel=4 note=47 velocity=95 time=0
EXTRACT: note_off channel=9 note=42 velocity=95 time=0
EXTRACT: note_off channel=9 note=36 velocity=95 time=0
EXTRACT: note_off channel=4 note=56 velocity=95 time=0.031249968750000003
EXTRACT: note_off channel=4 note=52 velocity=95 time=0
EXTRACT: note_off channel=4 note=47 velocity=95 time=0
EXTRACT: note_off channel=0 note=73 velocity=95 time=0.13541653125
EXTRACT: note_off channel=0 note=68 velocity=95 time=0
EXTRACT: note_off channel=0 note=64 velocity=95 time=0
EXTRACT: note_off channel=0 note=61 velocity=95 time=0
EXTRACT: note_on channel=4 note=56 velocity=95 time=0
EXTRACT: note_on channel=4 note=52 velocity=95 time=0
EXTRACT: note_on channel=4 note=47 velocity=95 time=0
EXTRACT: note_on channel=9 note=42 velocity=95 time=0
EXTRACT: note_on channel=9 note=40 velocity=95 time=0
EXTRACT: note_off channel=4 note=56 velocity=95 time=0.031249968750000003
EXTRACT: note_off channel=4 note=52 velocity=95 time=0
EXTRACT: note_off channel=4 note=47 velocity=95 time=0
EXTRACT: note_off channel=6 note=64 velocity=95 time=0.07291659375000001
EXTRACT: note_off channel=6 note=68 velocity=95 time=0
EXTRACT: note_on channel=0 note=73 velocity=95 time=0.062499937500000005
EXTRACT: note_on channel=0 note=68 velocity=95 time=0
EXTRACT: note_on channel=0 note=64 velocity=95 time=0
EXTRACT: note_on channel=0 note=61 velocity=95 time=0
EXTRACT: note_off channel=2 note=61 velocity=95 time=0
EXTRACT: note_off channel=2 note=56 velocity=95 time=0
EXTRACT: note_on channel=2 note=61 velocity=95 time=0
EXTRACT: note_on channel=2 note=56 velocity=95 time=0
EXTRACT: note_on channel=4 note=64 velocity=95 time=0
EXTRACT: note_on channel=4 note=61 velocity=95 time=0
EXTRACT: note_on channel=4 note=56 velocity=95 time=0
EXTRACT: note_on channel=4 note=49 velocity=95 time=0
EXTRACT: note_on channel=6 note=68 velocity=95 time=0
EXTRACT: note_on channel=6 note=64 velocity=95 time=0
EXTRACT: note_off channel=12 note=37 velocity=95 time=0
EXTRACT: note_on channel=12 note=32 velocity=95 time=0
EXTRACT: note_off channel=9 note=42 velocity=95 time=0
EXTRACT: note_off channel=9 note=40 velocity=95 time=0
EXTRACT: note_on channel=9 note=42 velocity=95 time=0
EXTRACT: note_off channel=0 note=73 velocity=95 time=0.1666665
EXTRACT: note_off channel=0 note=68 velocity=95 time=0
EXTRACT: note_off channel=0 note=64 velocity=95 time=0
EXTRACT: note_off channel=0 note=61 velocity=95 time=0
EXTRACT: note_off channel=2 note=61 velocity=95 time=0
EXTRACT: note_off channel=2 note=56 velocity=95 time=0
EXTRACT: note_on channel=2 note=64 velocity=95 time=0
EXTRACT: note_off channel=4 note=64 velocity=95 time=0
EXTRACT: note_off channel=4 note=61 velocity=95 time=0
EXTRACT: note_off channel=4 note=56 velocity=95 time=0
EXTRACT: note_off channel=4 note=49 velocity=95 time=0
EXTRACT: note_on channel=4 note=56 velocity=95 time=0
EXTRACT: note_on channel=4 note=52 velocity=95 time=0
EXTRACT: note_on channel=4 note=47 velocity=95 time=0
EXTRACT: note_off channel=9 note=42 velocity=95 time=0
EXTRACT: note_on channel=9 note=42 velocity=95 time=0
EXTRACT: note_on channel=9 note=36 velocity=95 time=0
EXTRACT: note_off channel=4 note=56 velocity=95 time=0.031249968750000003
EXTRACT: note_off channel=4 note=52 velocity=95 time=0
EXTRACT: note_off channel=4 note=47 velocity=95 time=0
EXTRACT: note_on channel=0 note=73 velocity=95 time=0.13541653125
EXTRACT: note_on channel=0 note=68 velocity=95 time=0
EXTRACT: note_on channel=0 note=64 velocity=95 time=0
EXTRACT: note_on channel=0 note=61 velocity=95 time=0
EXTRACT: note_off channel=2 note=64 velocity=95 time=0
EXTRACT: note_on channel=2 note=61 velocity=95 time=0
EXTRACT: note_on channel=4 note=56 velocity=95 time=0
EXTRACT: note_on channel=4 note=52 velocity=95 time=0
EXTRACT: note_on channel=4 note=47 velocity=95 time=0
EXTRACT: note_off channel=9 note=42 velocity=95 time=0
EXTRACT: note_off channel=9 note=36 velocity=95 time=0
EXTRACT: note_off channel=4 note=56 velocity=95 time=0.031249968750000003
EXTRACT: note_off channel=4 note=52 velocity=95 time=0
EXTRACT: note_off channel=4 note=47 velocity=95 time=0
EXTRACT: note_off channel=6 note=68 velocity=95 time=0.07291659375000001
EXTRACT: note_off channel=6 note=64 velocity=95 time=0
EXTRACT: note_off channel=0 note=73 velocity=95 time=0.062499937500000005
EXTRACT: note_off channel=0 note=68 velocity=95 time=0
EXTRACT: note_off channel=0 note=64 velocity=95 time=0
EXTRACT: note_off channel=0 note=61 velocity=95 time=0
EXTRACT: note_off channel=2 note=61 velocity=95 time=0
EXTRACT: note_on channel=2 note=56 velocity=95 time=0
EXTRACT: note_on channel=4 note=64 velocity=95 time=0
EXTRACT: note_on channel=4 note=61 velocity=95 time=0
EXTRACT: note_on channel=4 note=56 velocity=95 time=0
EXTRACT: note_on channel=4 note=49 velocity=95 time=0
EXTRACT: note_on channel=6 note=68 velocity=95 time=0
EXTRACT: note_on channel=6 note=64 velocity=95 time=0
EXTRACT: note_off channel=12 note=32 velocity=95 time=0
EXTRACT: note_on channel=12 note=35 velocity=95 time=0
EXTRACT: note_on channel=9 note=42 velocity=95 time=0
EXTRACT: note_on channel=9 note=40 velocity=95 time=0
EXTRACT: note_on channel=0 note=73 velocity=95 time=0.1666665
EXTRACT: note_on channel=0 note=68 velocity=95 time=0
EXTRACT: note_on channel=0 note=64 velocity=95 time=0
EXTRACT: note_on channel=0 note=61 velocity=95 time=0
EXTRACT: note_off channel=2 note=56 velocity=95 time=0
EXTRACT: note_on channel=3 note=59 velocity=95 time=0
EXTRACT: note_off channel=4 note=64 velocity=95 time=0
EXTRACT: note_off channel=4 note=61 velocity=95 time=0
EXTRACT: note_off channel=4 note=56 velocity=95 time=0
EXTRACT: note_off channel=4 note=49 velocity=95 time=0
EXTRACT: note_on channel=4 note=56 velocity=95 time=0
EXTRACT: note_on channel=4 note=52 velocity=95 time=0
EXTRACT: note_on channel=4 note=47 velocity=95 time=0
EXTRACT: note_off channel=9 note=42 velocity=95 time=0
EXTRACT: note_off channel=9 note=40 velocity=95 time=0
EXTRACT: note_on channel=9 note=42 velocity=95 time=0
EXTRACT: note_off channel=4 note=56 velocity=95 time=0.031249968750000003
EXTRACT: note_off channel=4 note=52 velocity=95 time=0
EXTRACT: note_off channel=4 note=47 velocity=95 time=0
EXTRACT: pitchwheel channel=3 pitch=0 time=0.02430553125
EXTRACT: pitchwheel channel=3 pitch=128 time=0.0555555
EXTRACT: note_off channel=0 note=73 velocity=95 time=0.0555555
EXTRACT: note_off channel=0 note=68 velocity=95 time=0
EXTRACT: note_off channel=0 note=64 velocity=95 time=0
EXTRACT: note_off channel=0 note=61 velocity=95 time=0
EXTRACT: pitchwheel channel=3 pitch=0 time=0
EXTRACT: note_on channel=4 note=56 velocity=95 time=0
EXTRACT: note_on channel=4 note=52 velocity=95 time=0
EXTRACT: note_on channel=4 note=47 velocity=95 time=0
EXTRACT: note_off channel=9 note=42 velocity=95 time=0
EXTRACT: note_on channel=9 note=42 velocity=95 time=0
EXTRACT: note_on channel=9 note=36 velocity=95 time=0
EXTRACT: note_off channel=4 note=56 velocity=95 time=0.031249968750000003
EXTRACT: note_off channel=4 note=52 velocity=95 time=0
EXTRACT: note_off channel=4 note=47 velocity=95 time=0
EXTRACT: pitchwheel channel=3 pitch=128 time=0.02430553125
EXTRACT: pitchwheel channel=3 pitch=0 time=0.0555555
EXTRACT: note_on channel=0 note=73 velocity=95 time=0.0555555
EXTRACT: note_on channel=0 note=68 velocity=95 time=0
EXTRACT: note_on channel=0 note=64 velocity=95 time=0
EXTRACT: note_on channel=0 note=61 velocity=95 time=0
EXTRACT: pitchwheel channel=3 pitch=128 time=0
EXTRACT: note_on channel=4 note=64 velocity=95 time=0
EXTRACT: note_on channel=4 note=61 velocity=95 time=0
EXTRACT: note_on channel=4 note=56 velocity=95 time=0
EXTRACT: note_on channel=4 note=49 velocity=95 time=0
EXTRACT: note_off channel=6 note=68 velocity=95 time=0
EXTRACT: note_off channel=6 note=64 velocity=95 time=0
EXTRACT: note_on channel=6 note=68 velocity=95 time=0
EXTRACT: note_on channel=6 note=64 velocity=95 time=0
EXTRACT: note_off channel=12 note=35 velocity=95 time=0
EXTRACT: note_on channel=12 note=37 velocity=95 time=0
EXTRACT: note_off channel=9 note=42 velocity=95 time=0
EXTRACT: note_off channel=9 note=36 velocity=95 time=0
EXTRACT: pitchwheel channel=3 pitch=0 time=0.0555555
EXTRACT: pitchwheel channel=3 pitch=128 time=0.0555555
EXTRACT: note_off channel=0 note=73 velocity=95 time=0.0555555
EXTRACT: note_off channel=0 note=68 velocity=95 time=0
EXTRACT: note_off channel=0 note=64 velocity=95 time=0
EXTRACT: note_off channel=0 note=61 velocity=95 time=0
EXTRACT: pitchwheel channel=3 pitch=0 time=0
EXTRACT: note_off channel=4 note=64 velocity=95 time=0
EXTRACT: note_off channel=4 note=61 velocity=95 time=0
EXTRACT: note_off channel=4 note=56 velocity=95 time=0
EXTRACT: note_off channel=4 note=49 velocity=95 time=0
EXTRACT: note_on channel=4 note=64 velocity=95 time=0
EXTRACT: note_on channel=4 note=61 velocity=95 time=0
EXTRACT: note_on channel=4 note=56 velocity=95 time=0
EXTRACT: note_on channel=4 note=49 velocity=95 time=0
EXTRACT: note_on channel=9 note=42 velocity=95 time=0
EXTRACT: note_on channel=9 note=40 velocity=95 time=0
EXTRACT: pitchwheel channel=3 pitch=128 time=0.0555555
EXTRACT: pitchwheel channel=3 pitch=0 time=0.0555555
EXTRACT: note_on channel=0 note=73 velocity=95 time=0.0555555
EXTRACT: note_on channel=0 note=68 velocity=95 time=0
EXTRACT: note_on channel=0 note=64 velocity=95 time=0
EXTRACT: note_on channel=0 note=61 velocity=95 time=0
EXTRACT: pitchwheel channel=3 pitch=128 time=0
EXTRACT: note_off channel=4 note=64 velocity=95 time=0
EXTRACT: note_off channel=4 note=61 velocity=95 time=0
EXTRACT: note_off channel=4 note=56 velocity=95 time=0
EXTRACT: note_off channel=4 note=49 velocity=95 time=0
EXTRACT: note_on channel=4 note=64 velocity=95 time=0
EXTRACT: note_on channel=4 note=61 velocity=95 time=0
EXTRACT: note_on channel=4 note=56 velocity=95 time=0
EXTRACT: note_on channel=4 note=49 velocity=95 time=0
EXTRACT: note_off channel=12 note=37 velocity=95 time=0
EXTRACT: note_on channel=12 note=37 velocity=95 time=0
EXTRACT: note_off channel=9 note=42 velocity=95 time=0
EXTRACT: note_off channel=9 note=40 velocity=95 time=0
EXTRACT: note_on channel=9 note=42 velocity=95 time=0
EXTRACT: pitchwheel channel=3 pitch=0 time=0.0555555
EXTRACT: note_off channel=6 note=68 velocity=95 time=0.0486110625
EXTRACT: note_off channel=6 note=64 velocity=95 time=0
EXTRACT: pitchwheel channel=3 pitch=128 time=0.0069444375
EXTRACT: note_off channel=0 note=73 velocity=95 time=0.0555555
EXTRACT: note_off channel=0 note=68 velocity=95 time=0
EXTRACT: note_off channel=0 note=64 velocity=95 time=0
EXTRACT: note_off channel=0 note=61 velocity=95 time=0
EXTRACT: pitchwheel channel=3 pitch=0 time=0
EXTRACT: pitchwheel channel=3 pitch=128 time=0
EXTRACT: pitchwheel channel=3 pitch=0 time=0
EXTRACT: note_off channel=3 note=59 velocity=95 time=0
EXTRACT: note_off channel=4 note=64 velocity=95 time=0
EXTRACT: note_off channel=4 note=61 velocity=95 time=0
EXTRACT: note_off channel=4 note=56 velocity=95 time=0
EXTRACT: note_off channel=4 note=49 velocity=95 time=0
EXTRACT: note_on channel=4 note=64 velocity=95 time=0
EXTRACT: note_on channel=4 note=61 velocity=95 time=0
EXTRACT: note_on channel=4 note=56 velocity=95 time=0
EXTRACT: note_on channel=4 note=49 velocity=95 time=0
EXTRACT: note_on channel=6 note=68 velocity=95 time=0
EXTRACT: note_on channel=6 note=64 velocity=95 time=0
EXTRACT: note_off channel=12 note=37 velocity=95 time=0
EXTRACT: note_on channel=12 note=40 velocity=95 time=0
EXTRACT: note_off channel=9 note=42 velocity=95 time=0
EXTRACT: note_on channel=9 note=42 velocity=95 time=0
EXTRACT: note_on channel=0 note=73 velocity=95 time=0.1666665
EXTRACT: note_on channel=0 note=68 velocity=95 time=0
EXTRACT: note_on channel=0 note=64 velocity=95 time=0
EXTRACT: note_on channel=0 note=61 velocity=95 time=0
EXTRACT: note_off channel=4 note=64 velocity=95 time=0
EXTRACT: note_off channel=4 note=61 velocity=95 time=0
EXTRACT: note_off channel=4 note=56 velocity=95 time=0
EXTRACT: note_off channel=4 note=49 velocity=95 time=0
EXTRACT: note_on channel=4 note=56 velocity=95 time=0
EXTRACT: note_on channel=4 note=52 velocity=95 time=0
EXTRACT: note_on channel=4 note=47 velocity=95 time=0
EXTRACT: note_off channel=12 note=40 velocity=95 time=0
EXTRACT: note_on channel=12 note=39 velocity=95 time=0
EXTRACT: note_off channel=9 note=42 velocity=95 time=0
EXTRACT: note_on channel=9 note=36 velocity=95 time=0
EXTRACT: note_off channel=4 note=56 velocity=95 time=0.031249968750000003
EXTRACT: note_off channel=4 note=52 velocity=95 time=0
EXTRACT: note_off channel=4 note=47 velocity=95 time=0
EXTRACT: note_off channel=0 note=73 velocity=95 time=0.13541653125
EXTRACT: note_off channel=0 note=68 velocity=95 time=0
EXTRACT: note_off channel=0 note=64 velocity=95 time=0
EXTRACT: note_off channel=0 note=61 velocity=95 time=0
EXTRACT: note_on channel=4 note=56 velocity=95 time=0
EXTRACT: note_on channel=4 note=52 velocity=95 time=0
EXTRACT: note_on channel=4 note=47 velocity=95 time=0
EXTRACT: note_off channel=12 note=39 velocity=95 time=0
EXTRACT: note_on channel=12 note=37 velocity=95 time=0
EXTRACT: note_off channel=9 note=36 velocity=95 time=0
EXTRACT: note_on channel=9 note=42 velocity=95 time=0
EXTRACT: note_on channel=9 note=40 velocity=95 time=0
EXTRACT: note_off channel=4 note=56 velocity=95 time=0.031249968750000003
EXTRACT: note_off channel=4 note=52 velocity=95 time=0
EXTRACT: note_off channel=4 note=47 velocity=95 time=0
EXTRACT: note_off channel=6 note=68 velocity=95 time=0.07291659375000001
EXTRACT: note_off channel=6 note=64 velocity=95 time=0
EXTRACT: note_on channel=0 note=73 velocity=95 time=0.062499937500000005
EXTRACT: note_on channel=0 note=68 velocity=95 time=0
EXTRACT: note_on channel=0 note=64 velocity=95 time=0
EXTRACT: note_on channel=0 note=61 velocity=95 time=0
EXTRACT: note_on channel=4 note=56 velocity=95 time=0
EXTRACT: note_on channel=4 note=52 velocity=95 time=0
EXTRACT: note_on channel=4 note=47 velocity=95 time=0
EXTRACT: note_off channel=12 note=37 velocity=95 time=0
EXTRACT: note_on channel=12 note=33 velocity=95 time=0
EXTRACT: note_off channel=9 note=42 velocity=95 time=0
EXTRACT: note_off channel=9 note=40 velocity=95 time=0
EXTRACT: note_on channel=9 note=42 velocity=95 time=0
EXTRACT: note_off channel=4 note=56 velocity=95 time=0.031249968750000003
EXTRACT: note_off channel=4 note=52 velocity=95 time=0
EXTRACT: note_off channel=4 note=47 velocity=95 time=0
EXTRACT: note_off channel=12 note=33 velocity=95 time=0
EXTRACT: note_off channel=0 note=73 velocity=95 time=0.13541653125
EXTRACT: note_off channel=0 note=68 velocity=95 time=0
EXTRACT: note_off channel=0 note=64 velocity=95 time=0
EXTRACT: note_off channel=0 note=61 velocity=95 time=0
EXTRACT: note_on channel=4 note=63 velocity=95 time=0
EXTRACT: note_on channel=4 note=59 velocity=95 time=0
EXTRACT: note_on channel=4 note=54 velocity=95 time=0
EXTRACT: note_on channel=4 note=47 velocity=95 time=0
EXTRACT: note_on channel=6 note=63 velocity=95 time=0
EXTRACT: note_on channel=12 note=35 velocity=95 time=0
EXTRACT: note_off channel=9 note=42 velocity=95 time=0
EXTRACT: note_on channel=9 note=42 velocity=95 time=0
EXTRACT: note_on channel=9 note=36 velocity=95 time=0
EXTRACT: note_on channel=0 note=71 velocity=95 time=0.1666665
EXTRACT: note_on channel=0 note=66 velocity=95 time=0
EXTRACT: note_on channel=0 note=63 velocity=95 time=0
EXTRACT: note_on channel=0 note=59 velocity=95 time=0
EXTRACT: note_on channel=2 note=61 velocity=95 time=0
EXTRACT: note_on channel=2 note=61 velocity=95 time=0
EXTRACT: note_off channel=4 note=63 velocity=95 time=0
EXTRACT: note_off channel=4 note=59 velocity=95 time=0
EXTRACT: note_off channel=4 note=54 velocity=95 time=0
EXTRACT: note_off channel=4 note=47 velocity=95 time=0
EXTRACT: note_on channel=4 note=56 velocity=95 time=0
EXTRACT: note_on channel=4 note=52 velocity=95 time=0
EXTRACT: note_on channel=4 note=47 velocity=95 time=0
EXTRACT: note_off channel=6 note=63 velocity=95 time=0
EXTRACT: note_on channel=6 note=63 velocity=95 time=0
EXTRACT: note_off channel=9 note=42 velocity=95 time=0
EXTRACT: note_off channel=9 note=36 velocity=95 time=0
EXTRACT: note_off channel=4 note=56 velocity=95 time=0.031249968750000003
EXTRACT: note_off channel=4 note=52 velocity=95 time=0
EXTRACT: note_off channel=4 note=47 velocity=95 time=0
EXTRACT: note_off channel=0 note=71 velocity=95 time=0.13541653125
EXTRACT: note_off channel=0 note=66 velocity=95 time=0
EXTRACT: note_off channel=0 note=63 velocity=95 time=0
EXTRACT: note_off channel=0 note=59 velocity=95 time=0
EXTRACT: note_off channel=2 note=61 velocity=95 time=0
EXTRACT: note_off channel=2 note=61 velocity=95 time=0
EXTRACT: note_on channel=2 note=61 velocity=95 time=0
EXTRACT: note_on channel=4 note=56 velocity=95 time=0
EXTRACT: note_on channel=4 note=52 velocity=95 time=0
EXTRACT: note_on channel=4 note=47 velocity=95 time=0
EXTRACT: note_off channel=6 note=63 velocity=95 time=0
EXTRACT: note_on channel=6 note=63 velocity=95 time=0
EXTRACT: note_off channel=12 note=35 velocity=95 time=0
EXTRACT: note_on channel=9 note=42 velocity=95 time=0
EXTRACT: note_on channel=9 note=40 velocity=95 time=0
EXTRACT: note_off channel=4 note=56 velocity=95 time=0.031249968750000003
EXTRACT: note_off channel=4 note=52 velocity=95 time=0
EXTRACT: note_off channel=4 note=47 velocity=95 time=0
EXTRACT: note_on channel=0 note=71 velocity=95 time=0.13541653125
EXTRACT: note_on channel=0 note=66 velocity=95 time=0
EXTRACT: note_on channel=0 note=63 velocity=95 time=0
EXTRACT: note_on channel=0 note=59 velocity=95 time=0
EXTRACT: note_off channel=2 note=61 velocity=95 time=0
EXTRACT: note_on channel=2 note=61 velocity=95 time=0
EXTRACT: note_on channel=4 note=63 velocity=95 time=0
EXTRACT: note_on channel=4 note=59 velocity=95 time=0
EXTRACT: note_on channel=4 note=54 velocity=95 time=0
EXTRACT: note_on channel=4 note=47 velocity=95 time=0
EXTRACT: note_off channel=6 note=63 velocity=95 time=0
EXTRACT: note_on channel=6 note=63 velocity=95 time=0
EXTRACT: note_on channel=12 note=30 velocity=95 time=0
EXTRACT: note_off channel=9 note=42 velocity=95 time=0
EXTRACT: note_off channel=9 note=40 velocity=95 time=0
EXTRACT: note_on channel=9 note=42 velocity=95 time=0
EXTRACT: note_off channel=0 note=71 velocity=95 time=0.1666665
EXTRACT: note_off channel=0 note=66 velocity=95 time=0
EXTRACT: note_off channel=0 note=63 velocity=95 time=0
EXTRACT: note_off channel=0 note=59 velocity=95 time=0
EXTRACT: note_off channel=2 note=61 velocity=95 time=0
EXTRACT: note_on channel=2 note=61 velocity=95 time=0
EXTRACT: note_off channel=4 note=63 velocity=95 time=0
EXTRACT: note_off channel=4 note=59 velocity=95 time=0
EXTRACT: note_off channel=4 note=54 velocity=95 time=0
EXTRACT: note_off channel=4 note=47 velocity=95 time=0
EXTRACT: note_on channel=4 note=56 velocity=95 time=0
EXTRACT: note_on channel=4 note=52 velocity=95 time=0
EXTRACT: note_on channel=4 note=47 velocity=95 time=0
EXTRACT: note_off channel=12 note=30 velocity=95 time=0
EXTRACT: note_on channel=12 note=30 velocity=95 time=0
EXTRACT: note_off channel=9 note=42 velocity=95 time=0
EXTRACT: note_on channel=9 note=42 velocity=95 time=0
EXTRACT: note_on channel=9 note=36 velocity=95 time=0
EXTRACT: note_off channel=4 note=56 velocity=95 time=0.031249968750000003
EXTRACT: note_off channel=4 note=52 velocity=95 time=0
EXTRACT: note_off channel=4 note=47 velocity=95 time=0
EXTRACT: note_on channel=0 note=71 velocity=95 time=0.13541653125
EXTRACT: note_on channel=0 note=66 velocity=95 time=0
EXTRACT: note_on channel=0 note=63 velocity=95 time=0
EXTRACT: note_on channel=0 note=59 velocity=95 time=0
EXTRACT: note_off channel=2 note=61 velocity=95 time=0
EXTRACT: note_on channel=2 note=59 velocity=95 time=0
EXTRACT: note_on channel=4 note=56 velocity=95 time=0
EXTRACT: note_on channel=4 note=52 velocity=95 time=0
EXTRACT: note_on channel=4 note=47 velocity=95 time=0
EXTRACT: note_off channel=6 note=63 velocity=95 time=0
EXTRACT: note_on channel=6 note=64 velocity=95 time=0
EXTRACT: note_off channel=9 note=42 velocity=95 time=0
EXTRACT: note_off channel=9 note=36 velocity=95 time=0
EXTRACT: note_off channel=4 note=56 velocity=95 time=0.031249968750000003
EXTRACT: note_off channel=4 note=52 velocity=95 time=0
EXTRACT: note_off channel=4 note=47 velocity=95 time=0
EXTRACT: note_off channel=0 note=71 velocity=95 time=0.13541653125
EXTRACT: note_off channel=0 note=66 velocity=95 time=0
EXTRACT: note_off channel=0 note=63 velocity=95 time=0
EXTRACT: note_off channel=0 note=59 velocity=95 time=0
EXTRACT: note_off channel=2 note=59 velocity=95 time=0
EXTRACT: note_on channel=2 note=56 velocity=95 time=0
EXTRACT: note_on channel=4 note=56 velocity=95 time=0
EXTRACT: note_on channel=4 note=52 velocity=95 time=0
EXTRACT: note_on channel=4 note=47 velocity=95 time=0
EXTRACT: note_off channel=12 note=30 velocity=95 time=0
EXTRACT: note_on channel=12 note=33 velocity=95 time=0
EXTRACT: note_on channel=9 note=42 velocity=95 time=0
EXTRACT: note_on channel=9 note=40 velocity=95 time=0
EXTRACT: note_off channel=4 note=56 velocity=95 time=0.031249968750000003
EXTRACT: note_off channel=4 note=52 velocity=95 time=0
EXTRACT: note_off channel=4 note=47 velocity=95 time=0
EXTRACT: note_on channel=0 note=71 velocity=95 time=0.13541653125
EXTRACT: note_on channel=0 note=66 velocity=95 time=0
EXTRACT: note_on channel=0 note=63 velocity=95 time=0
EXTRACT: note_on channel=0 note=59 velocity=95 time=0
EXTRACT: note_off channel=2 note=56 velocity=95 time=0
EXTRACT: note_on channel=3 note=59 velocity=95 time=0
EXTRACT: note_on channel=4 note=56 velocity=95 time=0
EXTRACT: note_on channel=4 note=52 velocity=95 time=0
EXTRACT: note_on channel=4 note=47 velocity=95 time=0
EXTRACT: note_off channel=6 note=64 velocity=95 time=0
EXTRACT: note_on channel=6 note=63 velocity=95 time=0
EXTRACT: note_off channel=9 note=42 velocity=95 time=0
EXTRACT: note_off channel=9 note=40 velocity=95 time=0
EXTRACT: note_on channel=9 note=42 velocity=95 time=0
EXTRACT: note_off channel=4 note=56 velocity=95 time=0.031249968750000003
EXTRACT: note_off channel=4 note=52 velocity=95 time=0
EXTRACT: note_off channel=4 note=47 velocity=95 time=0
EXTRACT: pitchwheel channel=3 pitch=0 time=0.02430553125
EXTRACT: pitchwheel channel=3 pitch=128 time=0.0555555
EXTRACT: note_off channel=0 note=71 velocity=95 time=0.0555555
EXTRACT: note_off channel=0 note=66 velocity=95 time=0
EXTRACT: note_off channel=0 note=63 velocity=95 time=0
EXTRACT: note_off channel=0 note=59 velocity=95 time=0
EXTRACT: pitchwheel channel=3 pitch=0 time=0
EXTRACT: note_on channel=4 note=56 velocity=95 time=0
EXTRACT: note_on channel=4 note=52 velocity=95 time=0
EXTRACT: note_on channel=4 note=47 velocity=95 time=0
EXTRACT: note_off channel=12 note=33 velocity=95 time=0
EXTRACT: note_on channel=12 note=37 velocity=95 time=0
EXTRACT: note_off channel=9 note=42 velocity=95 time=0
EXTRACT: note_on channel=9 note=42 velocity=95 time=0
EXTRACT: note_on channel=9 note=36 velocity=95 time=0
EXTRACT: note_off channel=4 note=56 velocity=95 time=0.031249968750000003
EXTRACT: note_off channel=4 note=52 velocity=95 time=0
EXTRACT: note_off channel=4 note=47 velocity=95 time=0
EXTRACT: pitchwheel channel=3 pitch=128 time=0.02430553125
EXTRACT: pitchwheel channel=3 pitch=0 time=0.0555555
EXTRACT: note_on channel=0 note=73 velocity=95 time=0.0555555
EXTRACT: note_on channel=0 note=68 velocity=95 time=0
EXTRACT: note_on channel=0 note=64 velocity=95 time=0
EXTRACT: note_on channel=0 note=61 velocity=95 time=0
EXTRACT: pitchwheel channel=3 pitch=128 time=0
EXTRACT: note_on channel=4 note=64 velocity=95 time=0
EXTRACT: note_on channel=4 note=61 velocity=95 time=0
EXTRACT: note_on channel=4 note=56 velocity=95 time=0
EXTRACT: note_on channel=4 note=49 velocity=95 time=0
EXTRACT: note_off channel=6 note=63 velocity=95 time=0
EXTRACT: note_on channel=6 note=61 velocity=95 time=0
EXTRACT: note_off channel=9 note=42 velocity=95 time=0
EXTRACT: note_off channel=9 note=36 velocity=95 time=0
EXTRACT: pitchwheel channel=3 pitch=0 time=0.0555555
EXTRACT: pitchwheel channel=3 pitch=128 time=0.0555555
EXTRACT: note_off channel=0 note=73 velocity=95 time=0.0555555
EXTRACT: note_off channel=0 note=68 velocity=95 time=0
EXTRACT: note_off channel=0 note=64 velocity=95 time=0
EXTRACT: note_off channel=0 note=61 velocity=95 time=0
EXTRACT: pitchwheel channel=3 pitch=0 time=0
EXTRACT: pitchwheel channel=3 pitch=128 time=0
EXTRACT: pitchwheel channel=3 pitch=0 time=0
EXTRACT: note_off channel=3 note=59 velocity=95 time=0
EXTRACT: note_on channel=3 note=59 velocity=95 time=0
EXTRACT: note_off channel=4 note=64 velocity=95 time=0
EXTRACT: note_off channel=4 note=61 velocity=95 time=0
EXTRACT: note_off channel=4 note=56 velocity=95 time=0
EXTRACT: note_off channel=4 note=49 velocity=95 time=0
EXTRACT: note_on channel=4 note=64 velocity=95 time=0
EXTRACT: note_on channel=4 note=61 velocity=95 time=0
EXTRACT: note_on channel=4 note=56 velocity=95 time=0
EXTRACT: note_on channel=4 note=49 velocity=95 time=0
EXTRACT: note_off channel=6 note=61 velocity=95 time=0
EXTRACT: note_on channel=6 note=68 velocity=95 time=0
EXTRACT: note_on channel=9 note=42 velocity=95 time=0
EXTRACT: note_on channel=9 note=40 velocity=95 time=0
EXTRACT: pitchwheel channel=3 pitch=0 time=0.0555555
EXTRACT: pitchwheel channel=3 pitch=128 time=0.0555555
EXTRACT: note_on channel=0 note=73 velocity=95 time=0.0555555
EXTRACT: note_on channel=0 note=68 velocity=95 time=0
EXTRACT: note_on channel=0 note=64 velocity=95 time=0
EXTRACT: note_on channel=0 note=61 velocity=95 time=0
EXTRACT: pitchwheel channel=3 pitch=0 time=0
EXTRACT: note_off channel=4 note=64 velocity=95 time=0
EXTRACT: note_off channel=4 note=61 velocity=95 time=0
EXTRACT: note_off channel=4 note=56 velocity=95 time=0
EXTRACT: note_off channel=4 note=49 velocity=95 time=0
EXTRACT: note_on channel=4 note=64 velocity=95 time=0
EXTRACT: note_on channel=4 note=61 velocity=95 time=0
EXTRACT: note_on channel=4 note=56 velocity=95 time=0
EXTRACT: note_on channel=4 note=49 velocity=95 time=0
EXTRACT: note_off channel=6 note=68 velocity=95 time=0
EXTRACT: note_on channel=6 note=68 velocity=95 time=0
EXTRACT: note_off channel=12 note=37 velocity=95 time=0
EXTRACT: note_on channel=12 note=37 velocity=95 time=0
EXTRACT: note_off channel=9 note=42 velocity=95 time=0
EXTRACT: note_off channel=9 note=40 velocity=95 time=0
EXTRACT: note_on channel=9 note=42 velocity=95 time=0
EXTRACT: pitchwheel channel=3 pitch=128 time=0.0555555
EXTRACT: pitchwheel channel=3 pitch=0 time=0.0555555
EXTRACT: note_off channel=0 note=73 velocity=95 time=0.0555555
EXTRACT: note_off channel=0 note=68 velocity=95 time=0
EXTRACT: note_off channel=0 note=64 velocity=95 time=0
EXTRACT: note_off channel=0 note=61 velocity=95 time=0
EXTRACT: pitchwheel channel=3 pitch=128 time=0
EXTRACT: pitchwheel channel=3 pitch=0 time=0
EXTRACT: note_off channel=3 note=59 velocity=95 time=0
EXTRACT: note_off channel=4 note=64 velocity=95 time=0
EXTRACT: note_off channel=4 note=61 velocity=95 time=0
EXTRACT: note_off channel=4 note=56 velocity=95 time=0
EXTRACT: note_off channel=4 note=49 velocity=95 time=0
EXTRACT: note_on channel=4 note=64 velocity=95 time=0
EXTRACT: note_on channel=4 note=61 velocity=95 time=0
EXTRACT: note_on channel=4 note=56 velocity=95 time=0
EXTRACT: note_on channel=4 note=49 velocity=95 time=0
EXTRACT: note_off channel=12 note=37 velocity=95 time=0
EXTRACT: note_on channel=12 note=32 velocity=95 time=0
EXTRACT: note_off channel=9 note=42 velocity=95 time=0
EXTRACT: note_on channel=9 note=42 velocity=95 time=0
EXTRACT: note_on channel=0 note=73 velocity=95 time=0.1666665
EXTRACT: note_on channel=0 note=68 velocity=95 time=0
EXTRACT: note_on channel=0 note=64 velocity=95 time=0
EXTRACT: note_on channel=0 note=61 velocity=95 time=0
EXTRACT: note_off channel=4 note=64 velocity=95 time=0
EXTRACT: note_off channel=4 note=61 velocity=95 time=0
EXTRACT: note_off channel=4 note=56 velocity=95 time=0
EXTRACT: note_off channel=4 note=49 velocity=95 time=0
EXTRACT: note_on channel=4 note=64 velocity=95 time=0
EXTRACT: note_on channel=4 note=61 velocity=95 time=0
EXTRACT: note_on channel=4 note=56 velocity=95 time=0
EXTRACT: note_on channel=4 note=49 velocity=95 time=0
EXTRACT: note_off channel=9 note=42 velocity=95 time=0
EXTRACT: note_on channel=9 note=36 velocity=95 time=0
EXTRACT: note_off channel=6 note=68 velocity=95 time=0.1041665625
EXTRACT: note_off channel=0 note=73 velocity=95 time=0.062499937500000005
EXTRACT: note_off channel=0 note=68 velocity=95 time=0
EXTRACT: note_off channel=0 note=64 velocity=95 time=0
EXTRACT: note_off channel=0 note=61 velocity=95 time=0
EXTRACT: note_off channel=4 note=64 velocity=95 time=0
EXTRACT: note_off channel=4 note=61 velocity=95 time=0
EXTRACT: note_off channel=4 note=56 velocity=95 time=0
EXTRACT: note_off channel=4 note=49 velocity=95 time=0
EXTRACT: note_on channel=4 note=56 velocity=95 time=0
EXTRACT: note_on channel=4 note=52 velocity=95 time=0
EXTRACT: note_on channel=4 note=47 velocity=95 time=0
EXTRACT: note_off channel=12 note=32 velocity=95 time=0
EXTRACT: note_on channel=12 note=35 velocity=95 time=0
EXTRACT: note_on channel=14 note=80 velocity=95 time=0
EXTRACT: note_on channel=14 note=73 velocity=95 time=0
EXTRACT: note_off channel=9 note=36 velocity=95 time=0
EXTRACT: note_on channel=9 note=42 velocity=95 time=0
EXTRACT: note_on channel=9 note=40 velocity=95 time=0
EXTRACT: note_off channel=4 note=56 velocity=95 time=0.031249968750000003
EXTRACT: note_off channel=4 note=52 velocity=95 time=0
EXTRACT: note_off channel=4 note=47 velocity=95 time=0
EXTRACT: note_on channel=0 note=73 velocity=95 time=0.13541653125
EXTRACT: note_on channel=0 note=68 velocity=95 time=0
EXTRACT: note_on channel=0 note=64 velocity=95 time=0
EXTRACT: note_on channel=0 note=61 velocity=95 time=0
EXTRACT: note_on channel=4 note=56 velocity=95 time=0
EXTRACT: note_on channel=4 note=52 velocity=95 time=0
EXTRACT: note_on channel=4 note=47 velocity=95 time=0
EXTRACT: note_off channel=12 note=35 velocity=95 time=0
EXTRACT: note_on channel=12 note=35 velocity=95 time=0
EXTRACT: note_off channel=14 note=80 velocity=95 time=0
EXTRACT: note_off channel=14 note=73 velocity=95 time=0
EXTRACT: note_off channel=9 note=42 velocity=95 time=0
EXTRACT: note_off channel=9 note=40 velocity=95 time=0
EXTRACT: note_on channel=9 note=42 velocity=95 time=0
EXTRACT: note_off channel=4 note=56 velocity=95 time=0.031249968750000003
EXTRACT: note_off channel=4 note=52 velocity=95 time=0
EXTRACT: note_off channel=4 note=47 velocity=95 time=0
EXTRACT: note_off channel=0 note=73 velocity=95 time=0.13541653125
EXTRACT: note_off channel=0 note=68 velocity=95 time=0
EXTRACT: note_off channel=0 note=64 velocity=95 time=0
EXTRACT: note_off channel=0 note=61 velocity=95 time=0
EXTRACT: note_on channel=4 note=63 velocity=95 time=0
EXTRACT: note_on channel=4 note=59 velocity=95 time=0
EXTRACT: note_on channel=4 note=54 velocity=95 time=0
EXTRACT: note_on channel=4 note=47 velocity=95 time=0
EXTRACT: note_on channel=6 note=63 velocity=95 time=0
EXTRACT: note_off channel=12 note=35 velocity=95 time=0
EXTRACT: note_on channel=12 note=35 velocity=95 time=0
EXTRACT: note_off channel=9 note=42 velocity=95 time=0
EXTRACT: note_on channel=9 note=42 velocity=95 time=0
EXTRACT: note_on channel=9 note=36 velocity=95 time=0
EXTRACT: note_on channel=0 note=71 velocity=95 time=0.1666665
EXTRACT: note_on channel=0 note=66 velocity=95 time=0
EXTRACT: note_on channel=0 note=63 velocity=95 time=0
EXTRACT: note_on channel=0 note=59 velocity=95 time=0
EXTRACT: note_on channel=2 note=61 velocity=95 time=0
EXTRACT: note_off channel=4 note=63 velocity=95 time=0
EXTRACT: note_off channel=4 note=59 velocity=95 time=0
EXTRACT: note_off channel=4 note=54 velocity=95 time=0
EXTRACT: note_off channel=4 note=47 velocity=95 time=0
EXTRACT: note_on channel=4 note=56 velocity=95 time=0
EXTRACT: note_on channel=4 note=52 velocity=95 time=0
EXTRACT: note_on channel=4 note=47 velocity=95 time=0
EXTRACT: note_off channel=6 note=63 velocity=95 time=0
EXTRACT: note_on channel=6 note=63 velocity=95 time=0
EXTRACT: note_off channel=9 note=42 velocity=95 time=0
EXTRACT: note_off channel=9 note=36 velocity=95 time=0
EXTRACT: note_off channel=4 note=56 velocity=95 time=0.031249968750000003
EXTRACT: note_off channel=4 note=52 velocity=95 time=0
EXTRACT: note_off channel=4 note=47 velocity=95 time=0
EXTRACT: note_off channel=0 note=71 velocity=95 time=0.13541653125
EXTRACT: note_off channel=0 note=66 velocity=95 time=0
EXTRACT: note_off channel=0 note=63 velocity=95 time=0
EXTRACT: note_off channel=0 note=59 velocity=95 time=0
EXTRACT: note_off channel=2 note=61 velocity=95 time=0
EXTRACT: note_on channel=2 note=61 velocity=95 time=0
EXTRACT: note_on channel=4 note=56 velocity=95 time=0
EXTRACT: note_on channel=4 note=52 velocity=95 time=0
EXTRACT: note_on channel=4 note=47 velocity=95 time=0
EXTRACT: note_off channel=6 note=63 velocity=95 time=0
EXTRACT: note_on channel=6 note=63 velocity=95 time=0
EXTRACT: note_off channel=12 note=35 velocity=95 time=0
EXTRACT: note_on channel=9 note=42 velocity=95 time=0
EXTRACT: note_on channel=9 note=40 velocity=95 time=0
EXTRACT: note_off channel=4 note=56 velocity=95 time=0.031249968750000003
EXTRACT: note_off channel=4 note=52 velocity=95 time=0
EXTRACT: note_off channel=4 note=47 velocity=95 time=0
EXTRACT: note_on channel=0 note=71 velocity=95 time=0.13541653125
EXTRACT: note_on channel=0 note=66 velocity=95 time=0
EXTRACT: note_on channel=0 note=63 velocity=95 time=0
EXTRACT: note_on channel=0 note=59 velocity=95 time=0
EXTRACT: note_off channel=2 note=61 velocity=95 time=0
EXTRACT: note_on channel=2 note=61 velocity=95 time=0
EXTRACT: note_on channel=4 note=63 velocity=95 time=0
EXTRACT: note_on channel=4 note=59 velocity=95 time=0
EXTRACT: note_on channel=4 note=54 velocity=95 time=0
EXTRACT: note_on channel=4 note=47 velocity=95 time=0
EXTRACT: note_off channel=6 note=63 velocity=95 time=0
EXTRACT: note_on channel=6 note=63 velocity=95 time=0
EXTRACT: note_on channel=12 note=30 velocity=95 time=0
EXTRACT: note_off channel=9 note=42 velocity=95 time=0
EXTRACT: note_off channel=9 note=40 velocity=95 time=0
EXTRACT: note_on channel=9 note=42 velocity=95 time=0
EXTRACT: note_off channel=0 note=71 velocity=95 time=0.1666665
EXTRACT: note_off channel=0 note=66 velocity=95 time=0
EXTRACT: note_off channel=0 note=63 velocity=95 time=0
EXTRACT: note_off channel=0 note=59 velocity=95 time=0
EXTRACT: note_off channel=2 note=61 velocity=95 time=0
EXTRACT: note_on channel=2 note=61 velocity=95 time=0
EXTRACT: note_off channel=4 note=63 velocity=95 time=0
EXTRACT: note_off channel=4 note=59 velocity=95 time=0
EXTRACT: note_off channel=4 note=54 velocity=95 time=0
EXTRACT: note_off channel=4 note=47 velocity=95 time=0
EXTRACT: note_on channel=4 note=56 velocity=95 time=0
EXTRACT: note_on channel=4 note=52 velocity=95 time=0
EXTRACT: note_on channel=4 note=47 velocity=95 time=0
EXTRACT: note_off channel=12 note=30 velocity=95 time=0
EXTRACT: note_on channel=12 note=30 velocity=95 time=0
EXTRACT: note_off channel=9 note=42 velocity=95 time=0
EXTRACT: note_on channel=9 note=42 velocity=95 time=0
EXTRACT: note_on channel=9 note=36 velocity=95 time=0
EXTRACT: note_off channel=4 note=56 velocity=95 time=0.031249968750000003
EXTRACT: note_off channel=4 note=52 velocity=95 time=0
EXTRACT: note_off channel=4 note=47 velocity=95 time=0
EXTRACT: note_on channel=0 note=71 velocity=95 time=0.13541653125
EXTRACT: note_on channel=0 note=66 velocity=95 time=0
EXTRACT: note_on channel=0 note=63 velocity=95 time=0
EXTRACT: note_on channel=0 note=59 velocity=95 time=0
EXTRACT: note_off channel=2 note=61 velocity=95 time=0
EXTRACT: note_on channel=2 note=59 velocity=95 time=0
EXTRACT: note_on channel=4 note=56 velocity=95 time=0
EXTRACT: note_on channel=4 note=52 velocity=95 time=0
EXTRACT: note_on channel=4 note=47 velocity=95 time=0
EXTRACT: note_off channel=6 note=63 velocity=95 time=0
EXTRACT: note_on channel=6 note=64 velocity=95 time=0
EXTRACT: note_off channel=9 note=42 velocity=95 time=0
EXTRACT: note_off channel=9 note=36 velocity=95 time=0
EXTRACT: note_off channel=4 note=56 velocity=95 time=0.031249968750000003
EXTRACT: note_off channel=4 note=52 velocity=95 time=0
EXTRACT: note_off channel=4 note=47 velocity=95 time=0
EXTRACT: note_off channel=0 note=71 velocity=95 time=0.13541653125
EXTRACT: note_off channel=0 note=66 velocity=95 time=0
EXTRACT: note_off channel=0 note=63 velocity=95 time=0
EXTRACT: note_off channel=0 note=59 velocity=95 time=0
EXTRACT: note_off channel=2 note=59 velocity=95 time=0
EXTRACT: note_on channel=2 note=56 velocity=95 time=0
EXTRACT: note_on channel=4 note=56 velocity=95 time=0
EXTRACT: note_on channel=4 note=52 velocity=95 time=0
EXTRACT: note_on channel=4 note=47 velocity=95 time=0
EXTRACT: note_off channel=12 note=30 velocity=95 time=0
EXTRACT: note_on channel=12 note=33 velocity=95 time=0
EXTRACT: note_on channel=9 note=42 velocity=95 time=0
EXTRACT: note_on channel=9 note=40 velocity=95 time=0
EXTRACT: note_off channel=4 note=56 velocity=95 time=0.031249968750000003
EXTRACT: note_off channel=4 note=52 velocity=95 time=0
EXTRACT: note_off channel=4 note=47 velocity=95 time=0
EXTRACT: note_on channel=0 note=71 velocity=95 time=0.13541653125
EXTRACT: note_on channel=0 note=66 velocity=95 time=0
EXTRACT: note_on channel=0 note=63 velocity=95 time=0
EXTRACT: note_on channel=0 note=59 velocity=95 time=0
EXTRACT: note_off channel=2 note=56 velocity=95 time=0
EXTRACT: note_on channel=3 note=59 velocity=95 time=0
EXTRACT: note_on channel=4 note=56 velocity=95 time=0
EXTRACT: note_on channel=4 note=52 velocity=95 time=0
EXTRACT: note_on channel=4 note=47 velocity=95 time=0
EXTRACT: note_off channel=6 note=64 velocity=95 time=0
EXTRACT: note_on channel=6 note=63 velocity=95 time=0
EXTRACT: note_off channel=9 note=42 velocity=95 time=0
EXTRACT: note_off channel=9 note=40 velocity=95 time=0
EXTRACT: note_on channel=9 note=42 velocity=95 time=0
EXTRACT: note_off channel=4 note=56 velocity=95 time=0.031249968750000003
EXTRACT: note_off channel=4 note=52 velocity=95 time=0
EXTRACT: note_off channel=4 note=47 velocity=95 time=0
EXTRACT: pitchwheel channel=3 pitch=0 time=0.02430553125
EXTRACT: pitchwheel channel=3 pitch=128 time=0.0555555
EXTRACT: note_off channel=0 note=71 velocity=95 time=0.0555555
EXTRACT: note_off channel=0 note=66 velocity=95 time=0
EXTRACT: note_off channel=0 note=63 velocity=95 time=0
EXTRACT: note_off channel=0 note=59 velocity=95 time=0
EXTRACT: pitchwheel channel=3 pitch=0 time=0
EXTRACT: note_on channel=4 note=56 velocity=95 time=0
EXTRACT: note_on channel=4 note=52 velocity=95 time=0
EXTRACT: note_on channel=4 note=47 velocity=95 time=0
EXTRACT: note_off channel=12 note=33 velocity=95 time=0
EXTRACT: note_on channel=12 note=37 velocity=95 time=0
EXTRACT: note_off channel=9 note=42 velocity=95 time=0
EXTRACT: note_on channel=9 note=42 velocity=95 time=0
EXTRACT: note_on channel=9 note=36 velocity=95 time=0
EXTRACT: note_off channel=4 note=56 velocity=95 time=0.031249968750000003
EXTRACT: note_off channel=4 note=52 velocity=95 time=0
EXTRACT: note_off channel=4 note=47 velocity=95 time=0
EXTRACT: pitchwheel channel=3 pitch=128 time=0.02430553125
EXTRACT: pitchwheel channel=3 pitch=0 time=0.0555555
EXTRACT: note_on channel=0 note=73 velocity=95 time=0.0555555
EXTRACT: note_on channel=0 note=68 velocity=95 time=0
EXTRACT: note_on channel=0 note=64 velocity=95 time=0
EXTRACT: note_on channel=0 note=61 velocity=95 time=0
EXTRACT: pitchwheel channel=3 pitch=128 time=0
EXTRACT: note_on channel=4 note=64 velocity=95 time=0
EXTRACT: note_on channel=4 note=61 velocity=95 time=0
EXTRACT: note_on channel=4 note=56 velocity=95 time=0
EXTRACT: note_on channel=4 note=49 velocity=95 time=0
EXTRACT: note_off channel=6 note=63 velocity=95 time=0
EXTRACT: note_on channel=6 note=61 velocity=95 time=0
EXTRACT: note_off channel=9 note=42 velocity=95 time=0
EXTRACT: note_off channel=9 note=36 velocity=95 time=0
EXTRACT: pitchwheel channel=3 pitch=0 time=0.0555555
EXTRACT: pitchwheel channel=3 pitch=128 time=0.0555555
EXTRACT: note_off channel=0 note=73 velocity=95 time=0.0555555
EXTRACT: note_off channel=0 note=68 velocity=95 time=0
EXTRACT: note_off channel=0 note=64 velocity=95 time=0
EXTRACT: note_off channel=0 note=61 velocity=95 time=0
EXTRACT: pitchwheel channel=3 pitch=0 time=0
EXTRACT: note_off channel=4 note=64 velocity=95 time=0
EXTRACT: note_off channel=4 note=61 velocity=95 time=0
EXTRACT: note_off channel=4 note=56 velocity=95 time=0
EXTRACT: note_off channel=4 note=49 velocity=95 time=0
EXTRACT: note_on channel=4 note=64 velocity=95 time=0
EXTRACT: note_on channel=4 note=61 velocity=95 time=0
EXTRACT: note_on channel=4 note=56 velocity=95 time=0
EXTRACT: note_on channel=4 note=49 velocity=95 time=0
EXTRACT: note_off channel=6 note=61 velocity=95 time=0
EXTRACT: note_on channel=6 note=68 velocity=95 time=0
EXTRACT: note_on channel=9 note=42 velocity=95 time=0
EXTRACT: note_on channel=9 note=40 velocity=95 time=0
EXTRACT: pitchwheel channel=3 pitch=128 time=0.0555555
EXTRACT: pitchwheel channel=3 pitch=0 time=0.0555555
EXTRACT: note_on channel=0 note=73 velocity=95 time=0.0555555
EXTRACT: note_on channel=0 note=68 velocity=95 time=0
EXTRACT: note_on channel=0 note=64 velocity=95 time=0
EXTRACT: note_on channel=0 note=61 velocity=95 time=0
EXTRACT: pitchwheel channel=3 pitch=128 time=0
EXTRACT: note_off channel=4 note=64 velocity=95 time=0
EXTRACT: note_off channel=4 note=61 velocity=95 time=0
EXTRACT: note_off channel=4 note=56 velocity=95 time=0
EXTRACT: note_off channel=4 note=49 velocity=95 time=0
EXTRACT: note_on channel=4 note=64 velocity=95 time=0
EXTRACT: note_on channel=4 note=61 velocity=95 time=0
EXTRACT: note_on channel=4 note=56 velocity=95 time=0
EXTRACT: note_on channel=4 note=49 velocity=95 time=0
EXTRACT: note_off channel=6 note=68 velocity=95 time=0
EXTRACT: note_on channel=6 note=68 velocity=95 time=0
EXTRACT: note_off channel=12 note=37 velocity=95 time=0
EXTRACT: note_on channel=12 note=37 velocity=95 time=0
EXTRACT: note_off channel=9 note=42 velocity=95 time=0
EXTRACT: note_off channel=9 note=40 velocity=95 time=0
EXTRACT: note_on channel=9 note=42 velocity=95 time=0
EXTRACT: pitchwheel channel=3 pitch=0 time=0.0555555
EXTRACT: pitchwheel channel=3 pitch=128 time=0.0555555
EXTRACT: note_off channel=0 note=73 velocity=95 time=0.0555555
EXTRACT: note_off channel=0 note=68 velocity=95 time=0
EXTRACT: note_off channel=0 note=64 velocity=95 time=0
EXTRACT: note_off channel=0 note=61 velocity=95 time=0
EXTRACT: pitchwheel channel=3 pitch=0 time=0
EXTRACT: pitchwheel channel=3 pitch=128 time=0
EXTRACT: pitchwheel channel=3 pitch=0 time=0
EXTRACT: note_off channel=3 note=59 velocity=95 time=0
EXTRACT: note_off channel=4 note=64 velocity=95 time=0
EXTRACT: note_off channel=4 note=61 velocity=95 time=0
EXTRACT: note_off channel=4 note=56 velocity=95 time=0
EXTRACT: note_off channel=4 note=49 velocity=95 time=0
EXTRACT: note_on channel=4 note=64 velocity=95 time=0
EXTRACT: note_on channel=4 note=61 velocity=95 time=0
EXTRACT: note_on channel=4 note=56 velocity=95 time=0
EXTRACT: note_on channel=4 note=49 velocity=95 time=0
EXTRACT: note_off channel=12 note=37 velocity=95 time=0
EXTRACT: note_on channel=12 note=32 velocity=95 time=0
EXTRACT: note_off channel=9 note=42 velocity=95 time=0
EXTRACT: note_on channel=9 note=42 velocity=95 time=0
EXTRACT: note_on channel=0 note=73 velocity=95 time=0.1666665
EXTRACT: note_on channel=0 note=68 velocity=95 time=0
EXTRACT: note_on channel=0 note=64 velocity=95 time=0
EXTRACT: note_on channel=0 note=61 velocity=95 time=0
EXTRACT: note_off channel=4 note=64 velocity=95 time=0
EXTRACT: note_off channel=4 note=61 velocity=95 time=0
EXTRACT: note_off channel=4 note=56 velocity=95 time=0
EXTRACT: note_off channel=4 note=49 velocity=95 time=0
EXTRACT: note_on channel=4 note=64 velocity=95 time=0
EXTRACT: note_on channel=4 note=61 velocity=95 time=0
EXTRACT: note_on channel=4 note=56 velocity=95 time=0
EXTRACT: note_on channel=4 note=49 velocity=95 time=0
EXTRACT: note_off channel=9 note=42 velocity=95 time=0
EXTRACT: note_on channel=9 note=36 velocity=95 time=0
EXTRACT: note_off channel=6 note=68 velocity=95 time=0.1041665625
EXTRACT: note_off channel=0 note=73 velocity=95 time=0.062499937500000005
EXTRACT: note_off channel=0 note=68 velocity=95 time=0
EXTRACT: note_off channel=0 note=64 velocity=95 time=0
EXTRACT: note_off channel=0 note=61 velocity=95 time=0
EXTRACT: note_off channel=4 note=64 velocity=95 time=0
EXTRACT: note_off channel=4 note=61 velocity=95 time=0
EXTRACT: note_off channel=4 note=56 velocity=95 time=0
EXTRACT: note_off channel=4 note=49 velocity=95 time=0
EXTRACT: note_on channel=4 note=56 velocity=95 time=0
EXTRACT: note_on channel=4 note=52 velocity=95 time=0
EXTRACT: note_on channel=4 note=47 velocity=95 time=0
EXTRACT: note_off channel=12 note=32 velocity=95 time=0
EXTRACT: note_on channel=12 note=35 velocity=95 time=0
EXTRACT: note_on channel=14 note=80 velocity=95 time=0
EXTRACT: note_on channel=14 note=73 velocity=95 time=0
EXTRACT: note_off channel=9 note=36 velocity=95 time=0
EXTRACT: note_on channel=9 note=42 velocity=95 time=0
EXTRACT: note_on channel=9 note=40 velocity=95 time=0
EXTRACT: note_off channel=4 note=56 velocity=95 time=0.031249968750000003
EXTRACT: note_off channel=4 note=52 velocity=95 time=0
EXTRACT: note_off channel=4 note=47 velocity=95 time=0
EXTRACT: note_on channel=0 note=73 velocity=95 time=0.13541653125
EXTRACT: note_on channel=0 note=68 velocity=95 time=0
EXTRACT: note_on channel=0 note=64 velocity=95 time=0
EXTRACT: note_on channel=0 note=61 velocity=95 time=0
EXTRACT: note_on channel=3 note=40 velocity=95 time=0
EXTRACT: note_on channel=4 note=56 velocity=95 time=0
EXTRACT: note_on channel=4 note=52 velocity=95 time=0
EXTRACT: note_on channel=4 note=47 velocity=95 time=0
EXTRACT: note_off channel=12 note=35 velocity=95 time=0
EXTRACT: note_on channel=12 note=35 velocity=95 time=0
EXTRACT: note_off channel=14 note=80 velocity=95 time=0
EXTRACT: note_off channel=14 note=73 velocity=95 time=0
EXTRACT: note_off channel=9 note=42 velocity=95 time=0
EXTRACT: note_off channel=9 note=40 velocity=95 time=0
EXTRACT: note_on channel=9 note=42 velocity=95 time=0
EXTRACT: note_off channel=4 note=56 velocity=95 time=0.031249968750000003
EXTRACT: note_off channel=4 note=52 velocity=95 time=0
EXTRACT: note_off channel=4 note=47 velocity=95 time=0
EXTRACT: pitchwheel channel=3 pitch=1408 time=0.01041665625
EXTRACT: pitchwheel channel=3 pitch=0 time=0
EXTRACT: note_off channel=3 note=40 velocity=95 time=0
EXTRACT: note_on channel=2 note=42 velocity=95 time=0
EXTRACT: note_off channel=0 note=73 velocity=95 time=0.12499987500000001
EXTRACT: note_off channel=0 note=68 velocity=95 time=0
EXTRACT: note_off channel=0 note=64 velocity=95 time=0
EXTRACT: note_off channel=0 note=61 velocity=95 time=0
EXTRACT: note_on channel=4 note=63 velocity=95 time=0
EXTRACT: note_on channel=4 note=59 velocity=95 time=0
EXTRACT: note_on channel=4 note=54 velocity=95 time=0
EXTRACT: note_on channel=4 note=47 velocity=95 time=0
EXTRACT: note_on channel=6 note=63 velocity=95 time=0
EXTRACT: note_off channel=12 note=35 velocity=95 time=0
EXTRACT: note_on channel=12 note=35 velocity=95 time=0
EXTRACT: note_off channel=9 note=42 velocity=95 time=0
EXTRACT: note_on channel=9 note=42 velocity=95 time=0
EXTRACT: note_on channel=9 note=36 velocity=95 time=0
EXTRACT: note_on channel=0 note=71 velocity=95 time=0.1666665
EXTRACT: note_on channel=0 note=66 velocity=95 time=0
EXTRACT: note_on channel=0 note=63 velocity=95 time=0
EXTRACT: note_on channel=0 note=59 velocity=95 time=0
EXTRACT: note_off channel=2 note=42 velocity=95 time=0
EXTRACT: note_on channel=2 note=37 velocity=95 time=0
EXTRACT: note_off channel=4 note=63 velocity=95 time=0
EXTRACT: note_off channel=4 note=59 velocity=95 time=0
EXTRACT: note_off channel=4 note=54 velocity=95 time=0
EXTRACT: note_off channel=4 note=47 velocity=95 time=0
EXTRACT: note_on channel=4 note=56 velocity=95 time=0
EXTRACT: note_on channel=4 note=52 velocity=95 time=0
EXTRACT: note_on channel=4 note=47 velocity=95 time=0
EXTRACT: note_off channel=6 note=63 velocity=95 time=0
EXTRACT: note_on channel=6 note=63 velocity=95 time=0
EXTRACT: note_off channel=9 note=42 velocity=95 time=0
EXTRACT: note_off channel=9 note=36 velocity=95 time=0
EXTRACT: note_off channel=4 note=56 velocity=95 time=0.031249968750000003
EXTRACT: note_off channel=4 note=52 velocity=95 time=0
EXTRACT: note_off channel=4 note=47 velocity=95 time=0
EXTRACT: note_off channel=0 note=71 velocity=95 time=0.13541653125
EXTRACT: note_off channel=0 note=66 velocity=95 time=0
EXTRACT: note_off channel=0 note=63 velocity=95 time=0
EXTRACT: note_off channel=0 note=59 velocity=95 time=0
EXTRACT: note_off channel=2 note=37 velocity=95 time=0
EXTRACT: note_on channel=2 note=49 velocity=95 time=0
EXTRACT: note_on channel=4 note=56 velocity=95 time=0
EXTRACT: note_on channel=4 note=52 velocity=95 time=0
EXTRACT: note_on channel=4 note=47 velocity=95 time=0
EXTRACT: note_off channel=6 note=63 velocity=95 time=0
EXTRACT: note_on channel=6 note=63 velocity=95 time=0
EXTRACT: note_off channel=12 note=35 velocity=95 time=0
EXTRACT: note_on channel=9 note=42 velocity=95 time=0
EXTRACT: note_on channel=9 note=40 velocity=95 time=0
EXTRACT: note_off channel=4 note=56 velocity=95 time=0.031249968750000003
EXTRACT: note_off channel=4 note=52 velocity=95 time=0
EXTRACT: note_off channel=4 note=47 velocity=95 time=0
EXTRACT: note_on channel=0 note=71 velocity=95 time=0.13541653125
EXTRACT: note_on channel=0 note=66 velocity=95 time=0
EXTRACT: note_on channel=0 note=63 velocity=95 time=0
EXTRACT: note_on channel=0 note=59 velocity=95 time=0
EXTRACT: note_off channel=2 note=49 velocity=95 time=0
EXTRACT: note_on channel=2 note=49 velocity=95 time=0
EXTRACT: note_on channel=4 note=63 velocity=95 time=0
EXTRACT: note_on channel=4 note=59 velocity=95 time=0
EXTRACT: note_on channel=4 note=54 velocity=95 time=0
EXTRACT: note_on channel=4 note=47 velocity=95 time=0
EXTRACT: note_off channel=6 note=63 velocity=95 time=0
EXTRACT: note_on channel=6 note=63 velocity=95 time=0
EXTRACT: note_on channel=12 note=30 velocity=95 time=0
EXTRACT: note_off channel=9 note=42 velocity=95 time=0
EXTRACT: note_off channel=9 note=40 velocity=95 time=0
EXTRACT: note_on channel=9 note=42 velocity=95 time=0
EXTRACT: note_off channel=0 note=71 velocity=95 time=0.1666665
EXTRACT: note_off channel=0 note=66 velocity=95 time=0
EXTRACT: note_off channel=0 note=63 velocity=95 time=0
EXTRACT: note_off channel=0 note=59 velocity=95 time=0
EXTRACT: note_off channel=2 note=49 velocity=95 time=0
EXTRACT: note_off channel=4 note=63 velocity=95 time=0
EXTRACT: note_off channel=4 note=59 velocity=95 time=0
EXTRACT: note_off channel=4 note=54 velocity=95 time=0
EXTRACT: note_off channel=4 note=47 velocity=95 time=0
EXTRACT: note_on channel=4 note=56 velocity=95 time=0
EXTRACT: note_on channel=4 note=52 velocity=95 time=0
EXTRACT: note_on channel=4 note=47 velocity=95 time=0
EXTRACT: note_off channel=12 note=30 velocity=95 time=0
EXTRACT: note_on channel=12 note=30 velocity=95 time=0
EXTRACT: note_off channel=9 note=42 velocity=95 time=0
EXTRACT: note_on channel=9 note=42 velocity=95 time=0
EXTRACT: note_on channel=9 note=36 velocity=95 time=0
EXTRACT: note_off channel=4 note=56 velocity=95 time=0.031249968750000003
EXTRACT: note_off channel=4 note=52 velocity=95 time=0
EXTRACT: note_off channel=4 note=47 velocity=95 time=0
EXTRACT: note_on channel=0 note=71 velocity=95 time=0.13541653125
EXTRACT: note_on channel=0 note=66 velocity=95 time=0
EXTRACT: note_on channel=0 note=63 velocity=95 time=0
EXTRACT: note_on channel=0 note=59 velocity=95 time=0
EXTRACT: note_on channel=2 note=47 velocity=95 time=0
EXTRACT: note_on channel=4 note=56 velocity=95 time=0
EXTRACT: note_on channel=4 note=52 velocity=95 time=0
EXTRACT: note_on channel=4 note=47 velocity=95 time=0
EXTRACT: note_off channel=6 note=63 velocity=95 time=0
EXTRACT: note_on channel=6 note=66 velocity=95 time=0
EXTRACT: note_off channel=9 note=42 velocity=95 time=0
EXTRACT: note_off channel=9 note=36 velocity=95 time=0
EXTRACT: note_off channel=4 note=56 velocity=95 time=0.031249968750000003
EXTRACT: note_off channel=4 note=52 velocity=95 time=0
EXTRACT: note_off channel=4 note=47 velocity=95 time=0
EXTRACT: note_off channel=0 note=71 velocity=95 time=0.13541653125
EXTRACT: note_off channel=0 note=66 velocity=95 time=0
EXTRACT: note_off channel=0 note=63 velocity=95 time=0
EXTRACT: note_off channel=0 note=59 velocity=95 time=0
EXTRACT: note_off channel=2 note=47 velocity=95 time=0
EXTRACT: note_on channel=2 note=49 velocity=95 time=0
EXTRACT: note_on channel=4 note=56 velocity=95 time=0
EXTRACT: note_on channel=4 note=52 velocity=95 time=0
EXTRACT: note_on channel=4 note=47 velocity=95 time=0
EXTRACT: note_off channel=12 note=30 velocity=95 time=0
EXTRACT: note_on channel=12 note=33 velocity=95 time=0
EXTRACT: note_on channel=9 note=42 velocity=95 time=0
EXTRACT: note_on channel=9 note=40 velocity=95 time=0
EXTRACT: note_off channel=4 note=56 velocity=95 time=0.031249968750000003
EXTRACT: note_off channel=4 note=52 velocity=95 time=0
EXTRACT: note_off channel=4 note=47 velocity=95 time=0
EXTRACT: note_on channel=0 note=71 velocity=95 time=0.13541653125
EXTRACT: note_on channel=0 note=66 velocity=95 time=0
EXTRACT: note_on channel=0 note=63 velocity=95 time=0
EXTRACT: note_on channel=0 note=59 velocity=95 time=0
EXTRACT: note_off channel=2 note=49 velocity=95 time=0
EXTRACT: note_on channel=2 note=47 velocity=95 time=0
EXTRACT: note_on channel=4 note=56 velocity=95 time=0
EXTRACT: note_on channel=4 note=52 velocity=95 time=0
EXTRACT: note_on channel=4 note=47 velocity=95 time=0
EXTRACT: note_off channel=6 note=66 velocity=95 time=0
EXTRACT: note_on channel=6 note=66 velocity=95 time=0
EXTRACT: note_off channel=9 note=42 velocity=95 time=0
EXTRACT: note_off channel=9 note=40 velocity=95 time=0
EXTRACT: note_on channel=9 note=42 velocity=95 time=0
EXTRACT: note_off channel=4 note=56 velocity=95 time=0.031249968750000003
EXTRACT: note_off channel=4 note=52 velocity=95 time=0
EXTRACT: note_off channel=4 note=47 velocity=95 time=0
EXTRACT: note_off channel=0 note=71 velocity=95 time=0.13541653125
EXTRACT: note_off channel=0 note=66 velocity=95 time=0
EXTRACT: note_off channel=0 note=63 velocity=95 time=0
EXTRACT: note_off channel=0 note=59 velocity=95 time=0
EXTRACT: note_off channel=2 note=47 velocity=95 time=0
EXTRACT: note_on channel=2 note=37 velocity=95 time=0
EXTRACT: note_on channel=4 note=56 velocity=95 time=0
EXTRACT: note_on channel=4 note=52 velocity=95 time=0
EXTRACT: note_on channel=4 note=47 velocity=95 time=0
EXTRACT: note_off channel=12 note=33 velocity=95 time=0
EXTRACT: note_on channel=12 note=37 velocity=95 time=0
EXTRACT: note_off channel=9 note=42 velocity=95 time=0
EXTRACT: note_on channel=9 note=42 velocity=95 time=0
EXTRACT: note_on channel=9 note=36 velocity=95 time=0
EXTRACT: note_off channel=4 note=56 velocity=95 time=0.031249968750000003
EXTRACT: note_off channel=4 note=52 velocity=95 time=0
EXTRACT: note_off channel=4 note=47 velocity=95 time=0
EXTRACT: note_on channel=0 note=73 velocity=95 time=0.13541653125
EXTRACT: note_on channel=0 note=68 velocity=95 time=0
EXTRACT: note_on channel=0 note=64 velocity=95 time=0
EXTRACT: note_on channel=0 note=61 velocity=95 time=0
EXTRACT: note_on channel=4 note=64 velocity=95 time=0
EXTRACT: note_on channel=4 note=61 velocity=95 time=0
EXTRACT: note_on channel=4 note=56 velocity=95 time=0
EXTRACT: note_on channel=4 note=49 velocity=95 time=0
EXTRACT: note_off channel=6 note=66 velocity=95 time=0
EXTRACT: note_on channel=6 note=64 velocity=95 time=0
EXTRACT: note_off channel=9 note=42 velocity=95 time=0
EXTRACT: note_off channel=9 note=36 velocity=95 time=0
EXTRACT: note_off channel=0 note=73 velocity=95 time=0.1666665
EXTRACT: note_off channel=0 note=68 velocity=95 time=0
EXTRACT: note_off channel=0 note=64 velocity=95 time=0
EXTRACT: note_off channel=0 note=61 velocity=95 time=0
EXTRACT: note_off channel=2 note=37 velocity=95 time=0
EXTRACT: note_on channel=2 note=37 velocity=95 time=0
EXTRACT: note_off channel=4 note=64 velocity=95 time=0
EXTRACT: note_off channel=4 note=61 velocity=95 time=0
EXTRACT: note_off channel=4 note=56 velocity=95 time=0
EXTRACT: note_off channel=4 note=49 velocity=95 time=0
EXTRACT: note_on channel=4 note=64 velocity=95 time=0
EXTRACT: note_on channel=4 note=61 velocity=95 time=0
EXTRACT: note_on channel=4 note=56 velocity=95 time=0
EXTRACT: note_on channel=4 note=49 velocity=95 time=0
EXTRACT: note_on channel=9 note=42 velocity=95 time=0
EXTRACT: note_on channel=9 note=40 velocity=95 time=0
EXTRACT: note_on channel=0 note=73 velocity=95 time=0.1666665
EXTRACT: note_on channel=0 note=68 velocity=95 time=0
EXTRACT: note_on channel=0 note=64 velocity=95 time=0
EXTRACT: note_on channel=0 note=61 velocity=95 time=0
EXTRACT: note_off channel=2 note=37 velocity=95 time=0
EXTRACT: note_on channel=2 note=37 velocity=95 time=0
EXTRACT: note_off channel=4 note=64 velocity=95 time=0
EXTRACT: note_off channel=4 note=61 velocity=95 time=0
EXTRACT: note_off channel=4 note=56 velocity=95 time=0
EXTRACT: note_off channel=4 note=49 velocity=95 time=0
EXTRACT: note_on channel=4 note=64 velocity=95 time=0
EXTRACT: note_on channel=4 note=61 velocity=95 time=0
EXTRACT: note_on channel=4 note=56 velocity=95 time=0
EXTRACT: note_on channel=4 note=49 velocity=95 time=0
EXTRACT: note_off channel=12 note=37 velocity=95 time=0
EXTRACT: note_on channel=12 note=37 velocity=95 time=0
EXTRACT: note_off channel=9 note=42 velocity=95 time=0
EXTRACT: note_off channel=9 note=40 velocity=95 time=0
EXTRACT: note_on channel=9 note=42 velocity=95 time=0
EXTRACT: note_off channel=0 note=73 velocity=95 time=0.1666665
EXTRACT: note_off channel=0 note=68 velocity=95 time=0
EXTRACT: note_off channel=0 note=64 velocity=95 time=0
EXTRACT: note_off channel=0 note=61 velocity=95 time=0
EXTRACT: note_off channel=2 note=37 velocity=95 time=0
EXTRACT: note_on channel=2 note=40 velocity=95 time=0
EXTRACT: note_off channel=4 note=64 velocity=95 time=0
EXTRACT: note_off channel=4 note=61 velocity=95 time=0
EXTRACT: note_off channel=4 note=56 velocity=95 time=0
EXTRACT: note_off channel=4 note=49 velocity=95 time=0
EXTRACT: note_on channel=4 note=64 velocity=95 time=0
EXTRACT: note_on channel=4 note=61 velocity=95 time=0
EXTRACT: note_on channel=4 note=56 velocity=95 time=0
EXTRACT: note_on channel=4 note=49 velocity=95 time=0
EXTRACT: note_off channel=12 note=37 velocity=95 time=0
EXTRACT: note_on channel=12 note=32 velocity=95 time=0
EXTRACT: note_off channel=9 note=42 velocity=95 time=0
EXTRACT: note_on channel=9 note=42 velocity=95 time=0
EXTRACT: note_off channel=6 note=64 velocity=95 time=0.08333325
EXTRACT: note_on channel=0 note=73 velocity=95 time=0.08333325
EXTRACT: note_on channel=0 note=68 velocity=95 time=0
EXTRACT: note_on channel=0 note=64 velocity=95 time=0
EXTRACT: note_on channel=0 note=61 velocity=95 time=0
EXTRACT: note_off channel=2 note=40 velocity=95 time=0
EXTRACT: note_on channel=2 note=42 velocity=95 time=0
EXTRACT: note_off channel=4 note=64 velocity=95 time=0
EXTRACT: note_off channel=4 note=61 velocity=95 time=0
EXTRACT: note_off channel=4 note=56 velocity=95 time=0
EXTRACT: note_off channel=4 note=49 velocity=95 time=0
EXTRACT: note_on channel=4 note=64 velocity=95 time=0
EXTRACT: note_on channel=4 note=61 velocity=95 time=0
EXTRACT: note_on channel=4 note=56 velocity=95 time=0
EXTRACT: note_on channel=4 note=49 velocity=95 time=0
EXTRACT: note_off channel=9 note=42 velocity=95 time=0
EXTRACT: note_on channel=9 note=36 velocity=95 time=0
EXTRACT: note_off channel=0 note=73 velocity=95 time=0.1666665
EXTRACT: note_off channel=0 note=68 velocity=95 time=0
EXTRACT: note_off channel=0 note=64 velocity=95 time=0
EXTRACT: note_off channel=0 note=61 velocity=95 time=0
EXTRACT: note_off channel=2 note=42 velocity=95 time=0
EXTRACT: note_on channel=2 note=37 velocity=95 time=0
EXTRACT: note_off channel=4 note=64 velocity=95 time=0
EXTRACT: note_off channel=4 note=61 velocity=95 time=0
EXTRACT: note_off channel=4 note=56 velocity=95 time=0
EXTRACT: note_off channel=4 note=49 velocity=95 time=0
EXTRACT: note_on channel=4 note=56 velocity=95 time=0
EXTRACT: note_on channel=4 note=52 velocity=95 time=0
EXTRACT: note_on channel=4 note=47 velocity=95 time=0
EXTRACT: note_off channel=12 note=32 velocity=95 time=0
EXTRACT: note_on channel=12 note=35 velocity=95 time=0
EXTRACT: note_off channel=9 note=36 velocity=95 time=0
EXTRACT: note_on channel=9 note=42 velocity=95 time=0
EXTRACT: note_on channel=9 note=40 velocity=95 time=0
EXTRACT: note_off channel=4 note=56 velocity=95 time=0.031249968750000003
EXTRACT: note_off channel=4 note=52 velocity=95 time=0
EXTRACT: note_off channel=4 note=47 velocity=95 time=0
EXTRACT: note_on channel=0 note=73 velocity=95 time=0.13541653125
EXTRACT: note_on channel=0 note=68 velocity=95 time=0
EXTRACT: note_on channel=0 note=64 velocity=95 time=0
EXTRACT: note_on channel=0 note=61 velocity=95 time=0
EXTRACT: note_off channel=2 note=37 velocity=95 time=0
EXTRACT: note_on channel=2 note=42 velocity=95 time=0
EXTRACT: note_on channel=4 note=56 velocity=95 time=0
EXTRACT: note_on channel=4 note=52 velocity=95 time=0
EXTRACT: note_on channel=4 note=47 velocity=95 time=0
EXTRACT: note_off channel=12 note=35 velocity=95 time=0
EXTRACT: note_on channel=12 note=35 velocity=95 time=0
EXTRACT: note_off channel=9 note=42 velocity=95 time=0
EXTRACT: note_off channel=9 note=40 velocity=95 time=0
EXTRACT: note_on channel=9 note=42 velocity=95 time=0
EXTRACT: note_off channel=4 note=56 velocity=95 time=0.031249968750000003
EXTRACT: note_off channel=4 note=52 velocity=95 time=0
EXTRACT: note_off channel=4 note=47 velocity=95 time=0
EXTRACT: note_off channel=0 note=73 velocity=95 time=0.13541653125
EXTRACT: note_off channel=0 note=68 velocity=95 time=0
EXTRACT: note_off channel=0 note=64 velocity=95 time=0
EXTRACT: note_off channel=0 note=61 velocity=95 time=0
EXTRACT: note_off channel=2 note=42 velocity=95 time=0
EXTRACT: pitchwheel channel=3 pitch=0 time=0
EXTRACT: note_on channel=3 note=42 velocity=95 time=0
EXTRACT: note_off channel=12 note=35 velocity=95 time=0
EXTRACT: note_on channel=12 note=37 velocity=95 time=0
EXTRACT: note_off channel=9 note=42 velocity=95 time=0
EXTRACT: note_on channel=9 note=42 velocity=95 time=0
EXTRACT: note_on channel=9 note=36 velocity=95 time=0
EXTRACT: pitchwheel channel=3 pitch=128 time=0.014930540625
EXTRACT: pitchwheel channel=3 pitch=256 time=0.014930540625
EXTRACT: pitchwheel channel=3 pitch=384 time=0.014930540625
EXTRACT: pitchwheel channel=3 pitch=512 time=0.014930540625
EXTRACT: pitchwheel channel=3 pitch=640 time=0.014930540625
EXTRACT: pitchwheel channel=3 pitch=768 time=0.014930540625
EXTRACT: pitchwheel channel=3 pitch=896 time=0.014930540625
EXTRACT: pitchwheel channel=3 pitch=1024 time=0.014930540625
EXTRACT: pitchwheel channel=3 pitch=1152 time=0.014930540625
EXTRACT: pitchwheel channel=3 pitch=1280 time=0.014930540625
EXTRACT: pitchwheel channel=3 pitch=1408 time=0.014930540625
EXTRACT: note_on channel=0 note=73 velocity=95 time=0.002430553125
EXTRACT: note_on channel=0 note=68 velocity=95 time=0
EXTRACT: note_on channel=0 note=64 velocity=95 time=0
EXTRACT: note_on channel=0 note=61 velocity=95 time=0
EXTRACT: pitchwheel channel=3 pitch=1408 time=0
EXTRACT: note_off channel=9 note=42 velocity=95 time=0
EXTRACT: note_off channel=9 note=36 velocity=95 time=0
EXTRACT: note_off channel=0 note=73 velocity=95 time=0.1666665
EXTRACT: note_off channel=0 note=68 velocity=95 time=0
EXTRACT: note_off channel=0 note=64 velocity=95 time=0
EXTRACT: note_off channel=0 note=61 velocity=95 time=0
EXTRACT: pitchwheel channel=3 pitch=1408 time=0
EXTRACT: pitchwheel channel=3 pitch=0 time=0
EXTRACT: note_off channel=3 note=42 velocity=95 time=0
EXTRACT: note_on channel=2 note=40 velocity=95 time=0
EXTRACT: note_on channel=9 note=42 velocity=95 time=0
EXTRACT: note_on channel=9 note=40 velocity=95 time=0
EXTRACT: note_on channel=0 note=73 velocity=95 time=0.1666665
EXTRACT: note_on channel=0 note=68 velocity=95 time=0
EXTRACT: note_on channel=0 note=64 velocity=95 time=0
EXTRACT: note_on channel=0 note=61 velocity=95 time=0
EXTRACT: note_off channel=2 note=40 velocity=95 time=0
EXTRACT: note_on channel=2 note=42 velocity=95 time=0
EXTRACT: note_off channel=12 note=37 velocity=95 time=0
EXTRACT: note_on channel=12 note=32 velocity=95 time=0
EXTRACT: note_off channel=9 note=42 velocity=95 time=0
EXTRACT: note_off channel=9 note=40 velocity=95 time=0
EXTRACT: note_on channel=9 note=42 velocity=95 time=0
EXTRACT: note_off channel=0 note=73 velocity=95 time=0.1666665
EXTRACT: note_off channel=0 note=68 velocity=95 time=0
EXTRACT: note_off channel=0 note=64 velocity=95 time=0
EXTRACT: note_off channel=0 note=61 velocity=95 time=0
EXTRACT: note_off channel=2 note=42 velocity=95 time=0
EXTRACT: note_off channel=9 note=42 velocity=95 time=0
EXTRACT: note_on channel=9 note=42 velocity=95 time=0
EXTRACT: note_on channel=9 note=36 velocity=95 time=0
EXTRACT: note_on channel=0 note=73 velocity=95 time=0.1666665
EXTRACT: note_on channel=0 note=68 velocity=95 time=0
EXTRACT: note_on channel=0 note=64 velocity=95 time=0
EXTRACT: note_on channel=0 note=61 velocity=95 time=0
EXTRACT: note_on channel=2 note=40 velocity=95 time=0
EXTRACT: note_off channel=9 note=42 velocity=95 time=0
EXTRACT: note_off channel=9 note=36 velocity=95 time=0
EXTRACT: note_off channel=0 note=73 velocity=95 time=0.1666665
EXTRACT: note_off channel=0 note=68 velocity=95 time=0
EXTRACT: note_off channel=0 note=64 velocity=95 time=0
EXTRACT: note_off channel=0 note=61 velocity=95 time=0
EXTRACT: note_off channel=2 note=40 velocity=95 time=0
EXTRACT: note_off channel=12 note=32 velocity=95 time=0
EXTRACT: note_on channel=12 note=35 velocity=95 time=0
EXTRACT: note_on channel=9 note=42 velocity=95 time=0
EXTRACT: note_on channel=9 note=40 velocity=95 time=0
EXTRACT: note_on channel=0 note=73 velocity=95 time=0.1666665
EXTRACT: note_on channel=0 note=68 velocity=95 time=0
EXTRACT: note_on channel=0 note=64 velocity=95 time=0
EXTRACT: note_on channel=0 note=61 velocity=95 time=0
EXTRACT: note_on channel=2 note=42 velocity=95 time=0
EXTRACT: note_off channel=9 note=42 velocity=95 time=0
EXTRACT: note_off channel=9 note=40 velocity=95 time=0
EXTRACT: note_on channel=9 note=42 velocity=95 time=0
EXTRACT: note_off channel=0 note=73 velocity=95 time=0.1666665
EXTRACT: note_off channel=0 note=68 velocity=95 time=0
EXTRACT: note_off channel=0 note=64 velocity=95 time=0
EXTRACT: note_off channel=0 note=61 velocity=95 time=0
EXTRACT: note_off channel=9 note=42 velocity=95 time=0
EXTRACT: note_on channel=9 note=42 velocity=95 time=0
EXTRACT: note_on channel=9 note=36 velocity=95 time=0
EXTRACT: note_on channel=0 note=73 velocity=95 time=0.1666665
EXTRACT: note_on channel=0 note=68 velocity=95 time=0
EXTRACT: note_on channel=0 note=64 velocity=95 time=0
EXTRACT: note_on channel=0 note=61 velocity=95 time=0
EXTRACT: note_off channel=12 note=35 velocity=95 time=0
EXTRACT: note_on channel=12 note=37 velocity=95 time=0
EXTRACT: note_off channel=9 note=42 velocity=95 time=0
EXTRACT: note_off channel=9 note=36 velocity=95 time=0
EXTRACT: note_off channel=0 note=73 velocity=95 time=0.1666665
EXTRACT: note_off channel=0 note=68 velocity=95 time=0
EXTRACT: note_off channel=0 note=64 velocity=95 time=0
EXTRACT: note_off channel=0 note=61 velocity=95 time=0
EXTRACT: note_off channel=2 note=42 velocity=95 time=0
EXTRACT: note_on channel=2 note=42 velocity=95 time=0
EXTRACT: note_on channel=9 note=42 velocity=95 time=0
EXTRACT: note_on channel=9 note=40 velocity=95 time=0
EXTRACT: note_on channel=0 note=73 velocity=95 time=0.1666665
EXTRACT: note_on channel=0 note=68 velocity=95 time=0
EXTRACT: note_on channel=0 note=64 velocity=95 time=0
EXTRACT: note_on channel=0 note=61 velocity=95 time=0
EXTRACT: note_off channel=2 note=42 velocity=95 time=0
EXTRACT: note_on channel=2 note=42 velocity=95 time=0
EXTRACT: note_off channel=12 note=37 velocity=95 time=0
EXTRACT: note_on channel=12 note=37 velocity=95 time=0
EXTRACT: note_off channel=9 note=42 velocity=95 time=0
EXTRACT: note_off channel=9 note=40 velocity=95 time=0
EXTRACT: note_on channel=9 note=42 velocity=95 time=0
EXTRACT: note_off channel=0 note=73 velocity=95 time=0.1666665
EXTRACT: note_off channel=0 note=68 velocity=95 time=0
EXTRACT: note_off channel=0 note=64 velocity=95 time=0
EXTRACT: note_off channel=0 note=61 velocity=95 time=0
EXTRACT: note_off channel=2 note=42 velocity=95 time=0
EXTRACT: note_on channel=2 note=44 velocity=70 time=0
EXTRACT: note_off channel=12 note=37 velocity=95 time=0
EXTRACT: note_on channel=12 note=40 velocity=95 time=0
EXTRACT: note_off channel=9 note=42 velocity=95 time=0
EXTRACT: note_on channel=9 note=42 velocity=95 time=0
EXTRACT: note_on channel=0 note=73 velocity=95 time=0.1666665
EXTRACT: note_on channel=0 note=68 velocity=95 time=0
EXTRACT: note_on channel=0 note=64 velocity=95 time=0
EXTRACT: note_on channel=0 note=61 velocity=95 time=0
EXTRACT: note_off channel=2 note=44 velocity=70 time=0
EXTRACT: note_on channel=2 note=52 velocity=95 time=0
EXTRACT: note_off channel=12 note=40 velocity=95 time=0
EXTRACT: note_on channel=12 note=39 velocity=95 time=0
EXTRACT: note_off channel=9 note=42 velocity=95 time=0
EXTRACT: note_on channel=9 note=36 velocity=95 time=0
EXTRACT: note_off channel=0 note=73 velocity=95 time=0.1666665
EXTRACT: note_off channel=0 note=68 velocity=95 time=0
EXTRACT: note_off channel=0 note=64 velocity=95 time=0
EXTRACT: note_off channel=0 note=61 velocity=95 time=0
EXTRACT: note_off channel=12 note=39 velocity=95 time=0
EXTRACT: note_on channel=12 note=37 velocity=95 time=0
EXTRACT: note_on channel=14 note=85 velocity=95 time=0
EXTRACT: note_on channel=14 note=73 velocity=95 time=0
EXTRACT: note_off channel=9 note=36 velocity=95 time=0
EXTRACT: note_on channel=9 note=42 velocity=95 time=0
EXTRACT: note_on channel=9 note=40 velocity=95 time=0
EXTRACT: note_on channel=0 note=73 velocity=95 time=0.1666665
EXTRACT: note_on channel=0 note=68 velocity=95 time=0
EXTRACT: note_on channel=0 note=64 velocity=95 time=0
EXTRACT: note_on channel=0 note=61 velocity=95 time=0
EXTRACT: note_off channel=2 note=52 velocity=95 time=0
EXTRACT: note_on channel=3 note=49 velocity=95 time=0
EXTRACT: note_off channel=12 note=37 velocity=95 time=0
EXTRACT: note_on channel=12 note=33 velocity=95 time=0
EXTRACT: note_off channel=14 note=85 velocity=95 time=0
EXTRACT: note_off channel=14 note=73 velocity=95 time=0
EXTRACT: note_off channel=9 note=42 velocity=95 time=0
EXTRACT: note_off channel=9 note=40 velocity=95 time=0
EXTRACT: note_on channel=9 note=42 velocity=95 time=0
EXTRACT: note_off channel=12 note=33 velocity=95 time=0.031249968750000003
EXTRACT: pitchwheel channel=3 pitch=0 time=0.02430553125
EXTRACT: pitchwheel channel=3 pitch=128 time=0.0555555
EXTRACT: note_off channel=0 note=73 velocity=95 time=0.0555555
EXTRACT: note_off channel=0 note=68 velocity=95 time=0
EXTRACT: note_off channel=0 note=64 velocity=95 time=0
EXTRACT: note_off channel=0 note=61 velocity=95 time=0
EXTRACT: note_on channel=0 note=71 velocity=95 time=0
EXTRACT: note_on channel=0 note=66 velocity=95 time=0
EXTRACT: note_on channel=0 note=63 velocity=95 time=0
EXTRACT: note_on channel=0 note=59 velocity=95 time=0
EXTRACT: pitchwheel channel=3 pitch=0 time=0
EXTRACT: pitchwheel channel=3 pitch=128 time=0
EXTRACT: pitchwheel channel=3 pitch=0 time=0
EXTRACT: note_off channel=3 note=49 velocity=95 time=0
EXTRACT: note_on channel=2 note=49 velocity=95 time=0
EXTRACT: note_on channel=12 note=35 velocity=95 time=0
EXTRACT: note_off channel=9 note=42 velocity=95 time=0
EXTRACT: note_on channel=9 note=42 velocity=95 time=0
EXTRACT: note_on channel=9 note=36 velocity=95 time=0
EXTRACT: note_off channel=0 note=71 velocity=95 time=0.1666665
EXTRACT: note_off channel=0 note=66 velocity=95 time=0
EXTRACT: note_off channel=0 note=63 velocity=95 time=0
EXTRACT: note_off channel=0 note=59 velocity=95 time=0
EXTRACT: note_on channel=0 note=71 velocity=95 time=0
EXTRACT: note_on channel=0 note=66 velocity=95 time=0
EXTRACT: note_on channel=0 note=63 velocity=95 time=0
EXTRACT: note_on channel=0 note=59 velocity=95 time=0
EXTRACT: note_off channel=9 note=42 velocity=95 time=0
EXTRACT: note_off channel=9 note=36 velocity=95 time=0
EXTRACT: note_off channel=0 note=71 velocity=95 time=0.1666665
EXTRACT: note_off channel=0 note=66 velocity=95 time=0
EXTRACT: note_off channel=0 note=63 velocity=95 time=0
EXTRACT: note_off channel=0 note=59 velocity=95 time=0
EXTRACT: note_off channel=2 note=49 velocity=95 time=0
EXTRACT: note_on channel=2 note=47 velocity=95 time=0
EXTRACT: note_off channel=12 note=35 velocity=95 time=0
EXTRACT: note_on channel=9 note=42 velocity=95 time=0
EXTRACT: note_on channel=9 note=40 velocity=95 time=0
EXTRACT: note_off channel=2 note=47 velocity=95 time=0.041666625
EXTRACT: note_on channel=2 note=49 velocity=70 time=0
EXTRACT: note_on channel=0 note=71 velocity=95 time=0.12499987500000001
EXTRACT: note_on channel=0 note=66 velocity=95 time=0
EXTRACT: note_on channel=0 note=63 velocity=95 time=0
EXTRACT: note_on channel=0 note=59 velocity=95 time=0
EXTRACT: note_off channel=2 note=49 velocity=70 time=0
EXTRACT: note_on channel=2 note=47 velocity=95 time=0
EXTRACT: note_on channel=12 note=30 velocity=95 time=0
EXTRACT: note_off channel=9 note=42 velocity=95 time=0
EXTRACT: note_off channel=9 note=40 velocity=95 time=0
EXTRACT: note_on channel=9 note=42 velocity=95 time=0
EXTRACT: note_off channel=0 note=71 velocity=95 time=0.1666665
EXTRACT: note_off channel=0 note=66 velocity=95 time=0
EXTRACT: note_off channel=0 note=63 velocity=95 time=0
EXTRACT: note_off channel=0 note=59 velocity=95 time=0
EXTRACT: note_off channel=2 note=47 velocity=95 time=0
EXTRACT: note_on channel=2 note=40 velocity=95 time=0
EXTRACT: note_off channel=12 note=30 velocity=95 time=0
EXTRACT: note_on channel=12 note=30 velocity=95 time=0
EXTRACT: note_off channel=9 note=42 velocity=95 time=0
EXTRACT: note_on channel=9 note=42 velocity=95 time=0
EXTRACT: note_on channel=9 note=36 velocity=95 time=0
EXTRACT: note_on channel=0 note=71 velocity=95 time=0.1666665
EXTRACT: note_on channel=0 note=66 velocity=95 time=0
EXTRACT: note_on channel=0 note=63 velocity=95 time=0
EXTRACT: note_on channel=0 note=59 velocity=95 time=0
EXTRACT: note_off channel=2 note=40 velocity=95 time=0
EXTRACT: note_on channel=2 note=37 velocity=95 time=0
EXTRACT: note_off channel=9 note=42 velocity=95 time=0
EXTRACT: note_off channel=9 note=36 velocity=95 time=0
EXTRACT: note_off channel=0 note=71 velocity=95 time=0.1666665
EXTRACT: note_off channel=0 note=66 velocity=95 time=0
EXTRACT: note_off channel=0 note=63 velocity=95 time=0
EXTRACT: note_off channel=0 note=59 velocity=95 time=0
EXTRACT: note_off channel=2 note=37 velocity=95 time=0
EXTRACT: pitchwheel channel=3 pitch=0 time=0
EXTRACT: note_on channel=3 note=40 velocity=95 time=0
EXTRACT: note_off channel=12 note=30 velocity=95 time=0
EXTRACT: note_on channel=12 note=33 velocity=95 time=0
EXTRACT: note_on channel=9 note=42 velocity=95 time=0
EXTRACT: note_on channel=9 note=40 velocity=95 time=0
EXTRACT: pitchwheel channel=3 pitch=128 time=0.08333325
EXTRACT: note_on channel=0 note=73 velocity=95 time=0.08333325
EXTRACT: note_on channel=0 note=68 velocity=95 time=0
EXTRACT: note_on channel=0 note=64 velocity=95 time=0
EXTRACT: note_on channel=0 note=61 velocity=95 time=0
EXTRACT: pitchwheel channel=3 pitch=256 time=0
EXTRACT: pitchwheel channel=3 pitch=256 time=0
EXTRACT: note_off channel=9 note=42 velocity=95 time=0
EXTRACT: note_off channel=9 note=40 velocity=95 time=0
EXTRACT: note_on channel=9 note=42 velocity=95 time=0
EXTRACT: note_off channel=0 note=73 velocity=95 time=0.1666665
EXTRACT: note_off channel=0 note=68 velocity=95 time=0
EXTRACT: note_off channel=0 note=64 velocity=95 time=0
EXTRACT: note_off channel=0 note=61 velocity=95 time=0
EXTRACT: pitchwheel channel=3 pitch=256 time=0
EXTRACT: pitchwheel channel=3 pitch=0 time=0
EXTRACT: note_off channel=3 note=40 velocity=95 time=0
EXTRACT: note_on channel=2 note=37 velocity=95 time=0
EXTRACT: note_off channel=12 note=33 velocity=95 time=0
EXTRACT: note_on channel=12 note=37 velocity=95 time=0
EXTRACT: note_off channel=9 note=42 velocity=95 time=0
EXTRACT: note_on channel=9 note=42 velocity=95 time=0
EXTRACT: note_on channel=9 note=36 velocity=95 time=0
EXTRACT: note_on channel=0 note=73 velocity=95 time=0.1666665
EXTRACT: note_on channel=0 note=68 velocity=95 time=0
EXTRACT: note_on channel=0 note=64 velocity=95 time=0
EXTRACT: note_on channel=0 note=61 velocity=95 time=0
EXTRACT: note_off channel=9 note=42 velocity=95 time=0
EXTRACT: note_off channel=9 note=36 velocity=95 time=0
EXTRACT: note_off channel=0 note=73 velocity=95 time=0.1666665
EXTRACT: note_off channel=0 note=68 velocity=95 time=0
EXTRACT: note_off channel=0 note=64 velocity=95 time=0
EXTRACT: note_off channel=0 note=61 velocity=95 time=0
EXTRACT: note_off channel=2 note=37 velocity=95 time=0
EXTRACT: note_on channel=2 note=37 velocity=95 time=0
EXTRACT: note_on channel=14 note=80 velocity=95 time=0
EXTRACT: note_on channel=14 note=73 velocity=95 time=0
EXTRACT: note_on channel=9 note=42 velocity=95 time=0
EXTRACT: note_on channel=9 note=40 velocity=95 time=0
EXTRACT: note_on channel=0 note=73 velocity=95 time=0.1666665
EXTRACT: note_on channel=0 note=68 velocity=95 time=0
EXTRACT: note_on channel=0 note=64 velocity=95 time=0
EXTRACT: note_on channel=0 note=61 velocity=95 time=0
EXTRACT: note_off channel=2 note=37 velocity=95 time=0
EXTRACT: note_on channel=2 note=37 velocity=95 time=0
EXTRACT: note_off channel=12 note=37 velocity=95 time=0
EXTRACT: note_on channel=12 note=37 velocity=95 time=0
EXTRACT: note_off channel=14 note=80 velocity=95 time=0
EXTRACT: note_off channel=14 note=73 velocity=95 time=0
EXTRACT: note_on channel=14 note=79 velocity=95 time=0
EXTRACT: note_on channel=14 note=72 velocity=95 time=0
EXTRACT: note_off channel=9 note=42 velocity=95 time=0
EXTRACT: note_off channel=9 note=40 velocity=95 time=0
EXTRACT: note_on channel=9 note=42 velocity=95 time=0
EXTRACT: note_off channel=0 note=73 velocity=95 time=0.1666665
EXTRACT: note_off channel=0 note=68 velocity=95 time=0
EXTRACT: note_off channel=0 note=64 velocity=95 time=0
EXTRACT: note_off channel=0 note=61 velocity=95 time=0
EXTRACT: note_off channel=2 note=37 velocity=95 time=0
EXTRACT: note_on channel=2 note=40 velocity=95 time=0
EXTRACT: note_off channel=12 note=37 velocity=95 time=0
EXTRACT: note_on channel=12 note=32 velocity=95 time=0
EXTRACT: note_off channel=14 note=79 velocity=95 time=0
EXTRACT: note_off channel=14 note=72 velocity=95 time=0
EXTRACT: note_on channel=14 note=80 velocity=95 time=0
EXTRACT: note_on channel=14 note=73 velocity=95 time=0
EXTRACT: note_off channel=9 note=42 velocity=95 time=0
EXTRACT: note_on channel=9 note=42 velocity=95 time=0
EXTRACT: note_on channel=0 note=73 velocity=95 time=0.1666665
EXTRACT: note_on channel=0 note=68 velocity=95 time=0
EXTRACT: note_on channel=0 note=64 velocity=95 time=0
EXTRACT: note_on channel=0 note=61 velocity=95 time=0
EXTRACT: note_off channel=2 note=40 velocity=95 time=0
EXTRACT: note_on channel=2 note=42 velocity=95 time=0
EXTRACT: note_off channel=14 note=80 velocity=95 time=0
EXTRACT: note_off channel=14 note=73 velocity=95 time=0
EXTRACT: note_on channel=14 note=79 velocity=95 time=0
EXTRACT: note_on channel=14 note=72 velocity=95 time=0
EXTRACT: note_off channel=9 note=42 velocity=95 time=0
EXTRACT: note_on channel=9 note=36 velocity=95 time=0
EXTRACT: note_off channel=0 note=73 velocity=95 time=0.1666665
EXTRACT: note_off channel=0 note=68 velocity=95 time=0
EXTRACT: note_off channel=0 note=64 velocity=95 time=0
EXTRACT: note_off channel=0 note=61 velocity=95 time=0
EXTRACT: note_off channel=2 note=42 velocity=95 time=0
EXTRACT: note_on channel=2 note=42 velocity=95 time=0
EXTRACT: note_off channel=12 note=32 velocity=95 time=0
EXTRACT: note_on channel=12 note=35 velocity=95 time=0
EXTRACT: note_off channel=14 note=79 velocity=95 time=0
EXTRACT: note_off channel=14 note=72 velocity=95 time=0
EXTRACT: note_on channel=14 note=80 velocity=95 time=0
EXTRACT: note_on channel=14 note=73 velocity=95 time=0
EXTRACT: note_off channel=9 note=36 velocity=95 time=0
EXTRACT: note_on channel=9 note=42 velocity=95 time=0
EXTRACT: note_on channel=9 note=40 velocity=95 time=0
EXTRACT: note_on channel=0 note=73 velocity=95 time=0.1666665
EXTRACT: note_on channel=0 note=68 velocity=95 time=0
EXTRACT: note_on channel=0 note=64 velocity=95 time=0
EXTRACT: note_on channel=0 note=61 velocity=95 time=0
EXTRACT: note_off channel=2 note=42 velocity=95 time=0
EXTRACT: note_on channel=2 note=42 velocity=95 time=0
EXTRACT: note_off channel=12 note=35 velocity=95 time=0
EXTRACT: note_on channel=12 note=35 velocity=95 time=0
EXTRACT: note_off channel=14 note=80 velocity=95 time=0
EXTRACT: note_off channel=14 note=73 velocity=95 time=0
EXTRACT: note_on channel=14 note=79 velocity=95 time=0
EXTRACT: note_on channel=14 note=72 velocity=95 time=0
EXTRACT: note_off channel=9 note=42 velocity=95 time=0
EXTRACT: note_off channel=9 note=40 velocity=95 time=0
EXTRACT: note_on channel=9 note=42 velocity=95 time=0
EXTRACT: note_off channel=0 note=73 velocity=95 time=0.1666665
EXTRACT: note_off channel=0 note=68 velocity=95 time=0
EXTRACT: note_off channel=0 note=64 velocity=95 time=0
EXTRACT: note_off channel=0 note=61 velocity=95 time=0
EXTRACT: note_off channel=2 note=42 velocity=95 time=0
EXTRACT: pitchwheel channel=3 pitch=0 time=0
EXTRACT: note_on channel=3 note=42 velocity=95 time=0
EXTRACT: note_off channel=12 note=35 velocity=95 time=0
EXTRACT: note_on channel=12 note=37 velocity=95 time=0
EXTRACT: note_off channel=14 note=79 velocity=95 time=0
EXTRACT: note_off channel=14 note=72 velocity=95 time=0
EXTRACT: note_on channel=14 note=80 velocity=95 time=0
EXTRACT: note_on channel=14 note=73 velocity=95 time=0
EXTRACT: note_off channel=9 note=42 velocity=95 time=0
EXTRACT: note_on channel=9 note=42 velocity=95 time=0
EXTRACT: note_on channel=9 note=36 velocity=95 time=0
EXTRACT: pitchwheel channel=3 pitch=128 time=0.014930540625
EXTRACT: pitchwheel channel=3 pitch=256 time=0.014930540625
EXTRACT: pitchwheel channel=3 pitch=384 time=0.014930540625
EXTRACT: pitchwheel channel=3 pitch=512 time=0.014930540625
EXTRACT: pitchwheel channel=3 pitch=640 time=0.014930540625
EXTRACT: pitchwheel channel=3 pitch=768 time=0.014930540625
EXTRACT: pitchwheel channel=3 pitch=896 time=0.014930540625
EXTRACT: pitchwheel channel=3 pitch=1024 time=0.014930540625
EXTRACT: pitchwheel channel=3 pitch=1152 time=0.014930540625
EXTRACT: pitchwheel channel=3 pitch=1280 time=0.014930540625
EXTRACT: pitchwheel channel=3 pitch=1408 time=0.014930540625
EXTRACT: note_on channel=0 note=73 velocity=95 time=0.002430553125
EXTRACT: note_on channel=0 note=68 velocity=95 time=0
EXTRACT: note_on channel=0 note=64 velocity=95 time=0
EXTRACT: note_on channel=0 note=61 velocity=95 time=0
EXTRACT: pitchwheel channel=3 pitch=1408 time=0
EXTRACT: note_off channel=14 note=80 velocity=95 time=0
EXTRACT: note_off channel=14 note=73 velocity=95 time=0
EXTRACT: note_off channel=9 note=42 velocity=95 time=0
EXTRACT: note_off channel=9 note=36 velocity=95 time=0
EXTRACT: note_off channel=0 note=73 velocity=95 time=0.1666665
EXTRACT: note_off channel=0 note=68 velocity=95 time=0
EXTRACT: note_off channel=0 note=64 velocity=95 time=0
EXTRACT: note_off channel=0 note=61 velocity=95 time=0
EXTRACT: pitchwheel channel=3 pitch=1408 time=0
EXTRACT: pitchwheel channel=3 pitch=0 time=0
EXTRACT: note_off channel=3 note=42 velocity=95 time=0
EXTRACT: note_on channel=2 note=42 velocity=95 time=0
EXTRACT: note_on channel=9 note=42 velocity=95 time=0
EXTRACT: note_on channel=9 note=40 velocity=95 time=0
EXTRACT: note_on channel=0 note=73 velocity=95 time=0.1666665
EXTRACT: note_on channel=0 note=68 velocity=95 time=0
EXTRACT: note_on channel=0 note=64 velocity=95 time=0
EXTRACT: note_on channel=0 note=61 velocity=95 time=0
EXTRACT: note_off channel=2 note=42 velocity=95 time=0
EXTRACT: note_on channel=2 note=40 velocity=95 time=0
EXTRACT: note_off channel=12 note=37 velocity=95 time=0
EXTRACT: note_on channel=12 note=32 velocity=95 time=0
EXTRACT: note_off channel=9 note=42 velocity=95 time=0
EXTRACT: note_off channel=9 note=40 velocity=95 time=0
EXTRACT: note_on channel=9 note=42 velocity=95 time=0
EXTRACT: note_off channel=0 note=73 velocity=95 time=0.1666665
EXTRACT: note_off channel=0 note=68 velocity=95 time=0
EXTRACT: note_off channel=0 note=64 velocity=95 time=0
EXTRACT: note_off channel=0 note=61 velocity=95 time=0
EXTRACT: note_off channel=2 note=40 velocity=95 time=0
EXTRACT: note_on channel=2 note=42 velocity=95 time=0
EXTRACT: note_off channel=9 note=42 velocity=95 time=0
EXTRACT: note_on channel=9 note=42 velocity=95 time=0
EXTRACT: note_on channel=9 note=36 velocity=95 time=0
EXTRACT: note_on channel=0 note=73 velocity=95 time=0.1666665
EXTRACT: note_on channel=0 note=68 velocity=95 time=0
EXTRACT: note_on channel=0 note=64 velocity=95 time=0
EXTRACT: note_on channel=0 note=61 velocity=95 time=0
EXTRACT: note_off channel=2 note=42 velocity=95 time=0
EXTRACT: note_on channel=2 note=40 velocity=95 time=0
EXTRACT: note_off channel=9 note=42 velocity=95 time=0
EXTRACT: note_off channel=9 note=36 velocity=95 time=0
EXTRACT: note_off channel=0 note=73 velocity=95 time=0.1666665
EXTRACT: note_off channel=0 note=68 velocity=95 time=0
EXTRACT: note_off channel=0 note=64 velocity=95 time=0
EXTRACT: note_off channel=0 note=61 velocity=95 time=0
EXTRACT: note_off channel=2 note=40 velocity=95 time=0
EXTRACT: note_off channel=12 note=32 velocity=95 time=0
EXTRACT: note_on channel=12 note=35 velocity=95 time=0
EXTRACT: note_on channel=9 note=42 velocity=95 time=0
EXTRACT: note_on channel=9 note=40 velocity=95 time=0
EXTRACT: note_on channel=0 note=73 velocity=95 time=0.1666665
EXTRACT: note_on channel=0 note=68 velocity=95 time=0
EXTRACT: note_on channel=0 note=64 velocity=95 time=0
EXTRACT: note_on channel=0 note=61 velocity=95 time=0
EXTRACT: note_on channel=2 note=42 velocity=95 time=0
EXTRACT: note_off channel=9 note=42 velocity=95 time=0
EXTRACT: note_off channel=9 note=40 velocity=95 time=0
EXTRACT: note_on channel=9 note=42 velocity=95 time=0
EXTRACT: note_off channel=0 note=73 velocity=95 time=0.1666665
EXTRACT: note_off channel=0 note=68 velocity=95 time=0
EXTRACT: note_off channel=0 note=64 velocity=95 time=0
EXTRACT: note_off channel=0 note=61 velocity=95 time=0
EXTRACT: note_off channel=9 note=42 velocity=95 time=0
EXTRACT: note_on channel=9 note=42 velocity=95 time=0
EXTRACT: note_on channel=9 note=36 velocity=95 time=0
EXTRACT: note_on channel=0 note=73 velocity=95 time=0.1666665
EXTRACT: note_on channel=0 note=68 velocity=95 time=0
EXTRACT: note_on channel=0 note=64 velocity=95 time=0
EXTRACT: note_on channel=0 note=61 velocity=95 time=0
EXTRACT: note_off channel=12 note=35 velocity=95 time=0
EXTRACT: note_on channel=12 note=37 velocity=95 time=0
EXTRACT: note_off channel=9 note=42 velocity=95 time=0
EXTRACT: note_off channel=9 note=36 velocity=95 time=0
EXTRACT: note_off channel=0 note=73 velocity=95 time=0.1666665
EXTRACT: note_off channel=0 note=68 velocity=95 time=0
EXTRACT: note_off channel=0 note=64 velocity=95 time=0
EXTRACT: note_off channel=0 note=61 velocity=95 time=0
EXTRACT: note_off channel=2 note=42 velocity=95 time=0
EXTRACT: note_on channel=2 note=42 velocity=95 time=0
EXTRACT: note_on channel=9 note=42 velocity=95 time=0
EXTRACT: note_on channel=9 note=40 velocity=95 time=0
EXTRACT: note_on channel=0 note=73 velocity=95 time=0.1666665
EXTRACT: note_on channel=0 note=68 velocity=95 time=0
EXTRACT: note_on channel=0 note=64 velocity=95 time=0
EXTRACT: note_on channel=0 note=61 velocity=95 time=0
EXTRACT: note_off channel=2 note=42 velocity=95 time=0
EXTRACT: note_on channel=2 note=42 velocity=95 time=0
EXTRACT: note_off channel=12 note=37 velocity=95 time=0
EXTRACT: note_on channel=12 note=37 velocity=95 time=0
EXTRACT: note_off channel=9 note=42 velocity=95 time=0
EXTRACT: note_off channel=9 note=40 velocity=95 time=0
EXTRACT: note_on channel=9 note=42 velocity=95 time=0
EXTRACT: note_off channel=0 note=73 velocity=95 time=0.1666665
EXTRACT: note_off channel=0 note=68 velocity=95 time=0
EXTRACT: note_off channel=0 note=64 velocity=95 time=0
EXTRACT: note_off channel=0 note=61 velocity=95 time=0
EXTRACT: note_off channel=2 note=42 velocity=95 time=0
EXTRACT: note_on channel=2 note=44 velocity=95 time=0
EXTRACT: note_off channel=12 note=37 velocity=95 time=0
EXTRACT: note_on channel=12 note=40 velocity=95 time=0
EXTRACT: note_off channel=9 note=42 velocity=95 time=0
EXTRACT: note_on channel=9 note=42 velocity=95 time=0
EXTRACT: note_on channel=0 note=73 velocity=95 time=0.1666665
EXTRACT: note_on channel=0 note=68 velocity=95 time=0
EXTRACT: note_on channel=0 note=64 velocity=95 time=0
EXTRACT: note_on channel=0 note=61 velocity=95 time=0
EXTRACT: note_off channel=2 note=44 velocity=95 time=0
EXTRACT: note_on channel=2 note=52 velocity=95 time=0
EXTRACT: note_off channel=12 note=40 velocity=95 time=0
EXTRACT: note_on channel=12 note=39 velocity=95 time=0
EXTRACT: note_off channel=9 note=42 velocity=95 time=0
EXTRACT: note_on channel=9 note=36 velocity=95 time=0
EXTRACT: note_off channel=0 note=73 velocity=95 time=0.1666665
EXTRACT: note_off channel=0 note=68 velocity=95 time=0
EXTRACT: note_off channel=0 note=64 velocity=95 time=0
EXTRACT: note_off channel=0 note=61 velocity=95 time=0
EXTRACT: note_off channel=12 note=39 velocity=95 time=0
EXTRACT: note_on channel=12 note=37 velocity=95 time=0
EXTRACT: note_off channel=9 note=36 velocity=95 time=0
EXTRACT: note_on channel=9 note=42 velocity=95 time=0
EXTRACT: note_on channel=9 note=40 velocity=95 time=0
EXTRACT: note_on channel=0 note=73 velocity=95 time=0.1666665
EXTRACT: note_on channel=0 note=68 velocity=95 time=0
EXTRACT: note_on channel=0 note=64 velocity=95 time=0
EXTRACT: note_on channel=0 note=61 velocity=95 time=0
EXTRACT: note_off channel=2 note=52 velocity=95 time=0
EXTRACT: note_on channel=3 note=49 velocity=95 time=0
EXTRACT: note_off channel=12 note=37 velocity=95 time=0
EXTRACT: note_on channel=12 note=33 velocity=95 time=0
EXTRACT: note_off channel=9 note=42 velocity=95 time=0
EXTRACT: note_off channel=9 note=40 velocity=95 time=0
EXTRACT: note_on channel=9 note=42 velocity=95 time=0
EXTRACT: note_off channel=12 note=33 velocity=95 time=0.031249968750000003
EXTRACT: pitchwheel channel=3 pitch=0 time=0.02430553125
EXTRACT: pitchwheel channel=3 pitch=128 time=0.0555555
EXTRACT: note_off channel=0 note=73 velocity=95 time=0.0555555
EXTRACT: note_off channel=0 note=68 velocity=95 time=0
EXTRACT: note_off channel=0 note=64 velocity=95 time=0
EXTRACT: note_off channel=0 note=61 velocity=95 time=0
EXTRACT: note_on channel=0 note=71 velocity=95 time=0
EXTRACT: note_on channel=0 note=66 velocity=95 time=0
EXTRACT: note_on channel=0 note=63 velocity=95 time=0
EXTRACT: note_on channel=0 note=59 velocity=95 time=0
EXTRACT: pitchwheel channel=3 pitch=0 time=0
EXTRACT: note_on channel=12 note=35 velocity=95 time=0
EXTRACT: note_off channel=9 note=42 velocity=95 time=0
EXTRACT: note_on channel=9 note=42 velocity=95 time=0
EXTRACT: note_on channel=9 note=36 velocity=95 time=0
EXTRACT: pitchwheel channel=3 pitch=128 time=0.0555555
EXTRACT: pitchwheel channel=3 pitch=0 time=0.0555555
EXTRACT: note_off channel=0 note=71 velocity=95 time=0.0555555
EXTRACT: note_off channel=0 note=66 velocity=95 time=0
EXTRACT: note_off channel=0 note=63 velocity=95 time=0
EXTRACT: note_off channel=0 note=59 velocity=95 time=0
EXTRACT: note_on channel=0 note=71 velocity=95 time=0
EXTRACT: note_on channel=0 note=66 velocity=95 time=0
EXTRACT: note_on channel=0 note=63 velocity=95 time=0
EXTRACT: note_on channel=0 note=59 velocity=95 time=0
EXTRACT: pitchwheel channel=3 pitch=128 time=0
EXTRACT: note_off channel=9 note=42 velocity=95 time=0
EXTRACT: note_off channel=9 note=36 velocity=95 time=0
EXTRACT: pitchwheel channel=3 pitch=0 time=0.0555555
EXTRACT: pitchwheel channel=3 pitch=128 time=0.0555555
EXTRACT: note_off channel=0 note=71 velocity=95 time=0.0555555
EXTRACT: note_off channel=0 note=66 velocity=95 time=0
EXTRACT: note_off channel=0 note=63 velocity=95 time=0
EXTRACT: note_off channel=0 note=59 velocity=95 time=0
EXTRACT: pitchwheel channel=3 pitch=0 time=0
EXTRACT: pitchwheel channel=3 pitch=128 time=0
EXTRACT: pitchwheel channel=3 pitch=0 time=0
EXTRACT: note_off channel=3 note=49 velocity=95 time=0
EXTRACT: note_on channel=2 note=49 velocity=95 time=0
EXTRACT: note_off channel=12 note=35 velocity=95 time=0
EXTRACT: note_on channel=9 note=42 velocity=95 time=0
EXTRACT: note_on channel=9 note=40 velocity=95 time=0
EXTRACT: note_on channel=0 note=71 velocity=95 time=0.1666665
EXTRACT: note_on channel=0 note=66 velocity=95 time=0
EXTRACT: note_on channel=0 note=63 velocity=95 time=0
EXTRACT: note_on channel=0 note=59 velocity=95 time=0
EXTRACT: note_off channel=2 note=49 velocity=95 time=0
EXTRACT: note_on channel=2 note=47 velocity=95 time=0
EXTRACT: note_on channel=12 note=30 velocity=95 time=0
EXTRACT: note_off channel=9 note=42 velocity=95 time=0
EXTRACT: note_off channel=9 note=40 velocity=95 time=0
EXTRACT: note_on channel=9 note=42 velocity=95 time=0
EXTRACT: note_off channel=0 note=71 velocity=95 time=0.1666665
EXTRACT: note_off channel=0 note=66 velocity=95 time=0
EXTRACT: note_off channel=0 note=63 velocity=95 time=0
EXTRACT: note_off channel=0 note=59 velocity=95 time=0
EXTRACT: note_off channel=2 note=47 velocity=95 time=0
EXTRACT: note_on channel=2 note=40 velocity=95 time=0
EXTRACT: note_off channel=12 note=30 velocity=95 time=0
EXTRACT: note_on channel=12 note=30 velocity=95 time=0
EXTRACT: note_off channel=9 note=42 velocity=95 time=0
EXTRACT: note_on channel=9 note=42 velocity=95 time=0
EXTRACT: note_on channel=9 note=36 velocity=95 time=0
EXTRACT: note_on channel=0 note=71 velocity=95 time=0.1666665
EXTRACT: note_on channel=0 note=66 velocity=95 time=0
EXTRACT: note_on channel=0 note=63 velocity=95 time=0
EXTRACT: note_on channel=0 note=59 velocity=95 time=0
EXTRACT: note_off channel=2 note=40 velocity=95 time=0
EXTRACT: note_on channel=2 note=37 velocity=95 time=0
EXTRACT: note_off channel=9 note=42 velocity=95 time=0
EXTRACT: note_off channel=9 note=36 velocity=95 time=0
EXTRACT: note_off channel=0 note=71 velocity=95 time=0.1666665
EXTRACT: note_off channel=0 note=66 velocity=95 time=0
EXTRACT: note_off channel=0 note=63 velocity=95 time=0
EXTRACT: note_off channel=0 note=59 velocity=95 time=0
EXTRACT: note_off channel=2 note=37 velocity=95 time=0
EXTRACT: note_on channel=3 note=49 velocity=95 time=0
EXTRACT: note_off channel=12 note=30 velocity=95 time=0
EXTRACT: note_on channel=12 note=33 velocity=95 time=0
EXTRACT: note_on channel=9 note=42 velocity=95 time=0
EXTRACT: note_on channel=9 note=40 velocity=95 time=0
EXTRACT: pitchwheel channel=3 pitch=0 time=0.0555555
EXTRACT: pitchwheel channel=3 pitch=128 time=0.0555555
EXTRACT: note_on channel=0 note=73 velocity=95 time=0.0555555
EXTRACT: note_on channel=0 note=68 velocity=95 time=0
EXTRACT: note_on channel=0 note=64 velocity=95 time=0
EXTRACT: note_on channel=0 note=61 velocity=95 time=0
EXTRACT: pitchwheel channel=3 pitch=0 time=0
EXTRACT: note_off channel=9 note=42 velocity=95 time=0
EXTRACT: note_off channel=9 note=40 velocity=95 time=0
EXTRACT: note_on channel=9 note=42 velocity=95 time=0
EXTRACT: pitchwheel channel=3 pitch=128 time=0.0555555
EXTRACT: pitchwheel channel=3 pitch=0 time=0.0555555
EXTRACT: note_off channel=0 note=73 velocity=95 time=0.0555555
EXTRACT: note_off channel=0 note=68 velocity=95 time=0
EXTRACT: note_off channel=0 note=64 velocity=95 time=0
EXTRACT: note_off channel=0 note=61 velocity=95 time=0
EXTRACT: pitchwheel channel=3 pitch=128 time=0
EXTRACT: pitchwheel channel=3 pitch=0 time=0
EXTRACT: note_off channel=3 note=49 velocity=95 time=0
EXTRACT: note_on channel=2 note=37 velocity=95 time=0
EXTRACT: note_off channel=12 note=33 velocity=95 time=0
EXTRACT: note_on channel=12 note=37 velocity=95 time=0
EXTRACT: note_off channel=9 note=42 velocity=95 time=0
EXTRACT: note_on channel=9 note=42 velocity=95 time=0
EXTRACT: note_on channel=9 note=36 velocity=95 time=0
EXTRACT: note_on channel=0 note=73 velocity=95 time=0.1666665
EXTRACT: note_on channel=0 note=68 velocity=95 time=0
EXTRACT: note_on channel=0 note=64 velocity=95 time=0
EXTRACT: note_on channel=0 note=61 velocity=95 time=0
EXTRACT: note_off channel=9 note=42 velocity=95 time=0
EXTRACT: note_off channel=9 note=36 velocity=95 time=0
EXTRACT: note_off channel=0 note=73 velocity=95 time=0.1666665
EXTRACT: note_off channel=0 note=68 velocity=95 time=0
EXTRACT: note_off channel=0 note=64 velocity=95 time=0
EXTRACT: note_off channel=0 note=61 velocity=95 time=0
EXTRACT: note_off channel=2 note=37 velocity=95 time=0
EXTRACT: note_on channel=2 note=37 velocity=95 time=0
EXTRACT: note_on channel=14 note=80 velocity=95 time=0
EXTRACT: note_on channel=14 note=73 velocity=95 time=0
EXTRACT: note_on channel=9 note=42 velocity=95 time=0
EXTRACT: note_on channel=9 note=40 velocity=95 time=0
EXTRACT: note_on channel=0 note=73 velocity=95 time=0.1666665
EXTRACT: note_on channel=0 note=68 velocity=95 time=0
EXTRACT: note_on channel=0 note=64 velocity=95 time=0
EXTRACT: note_on channel=0 note=61 velocity=95 time=0
EXTRACT: note_off channel=2 note=37 velocity=95 time=0
EXTRACT: note_on channel=2 note=37 velocity=95 time=0
EXTRACT: note_off channel=12 note=37 velocity=95 time=0
EXTRACT: note_on channel=12 note=37 velocity=95 time=0
EXTRACT: note_off channel=14 note=80 velocity=95 time=0
EXTRACT: note_off channel=14 note=73 velocity=95 time=0
EXTRACT: note_off channel=9 note=42 velocity=95 time=0
EXTRACT: note_off channel=9 note=40 velocity=95 time=0
EXTRACT: note_on channel=9 note=42 velocity=95 time=0
EXTRACT: note_off channel=0 note=73 velocity=95 time=0.1666665
EXTRACT: note_off channel=0 note=68 velocity=95 time=0
EXTRACT: note_off channel=0 note=64 velocity=95 time=0
EXTRACT: note_off channel=0 note=61 velocity=95 time=0
EXTRACT: note_off channel=2 note=37 velocity=95 time=0
EXTRACT: note_on channel=2 note=40 velocity=95 time=0
EXTRACT: note_off channel=12 note=37 velocity=95 time=0
EXTRACT: note_on channel=12 note=32 velocity=95 time=0
EXTRACT: note_on channel=14 note=80 velocity=95 time=0
EXTRACT: note_on channel=14 note=73 velocity=95 time=0
EXTRACT: note_off channel=9 note=42 velocity=95 time=0
EXTRACT: note_on channel=9 note=42 velocity=95 time=0
EXTRACT: note_on channel=0 note=73 velocity=95 time=0.1666665
EXTRACT: note_on channel=0 note=68 velocity=95 time=0
EXTRACT: note_on channel=0 note=64 velocity=95 time=0
EXTRACT: note_on channel=0 note=61 velocity=95 time=0
EXTRACT: note_off channel=2 note=40 velocity=95 time=0
EXTRACT: note_on channel=2 note=42 velocity=95 time=0
EXTRACT: note_off channel=14 note=80 velocity=95 time=0
EXTRACT: note_off channel=14 note=73 velocity=95 time=0
EXTRACT: note_off channel=9 note=42 velocity=95 time=0
EXTRACT: note_on channel=9 note=36 velocity=95 time=0
EXTRACT: note_off channel=0 note=73 velocity=95 time=0.1666665
EXTRACT: note_off channel=0 note=68 velocity=95 time=0
EXTRACT: note_off channel=0 note=64 velocity=95 time=0
EXTRACT: note_off channel=0 note=61 velocity=95 time=0
EXTRACT: note_off channel=2 note=42 velocity=95 time=0
EXTRACT: note_on channel=2 note=37 velocity=95 time=0
EXTRACT: note_off channel=12 note=32 velocity=95 time=0
EXTRACT: note_on channel=12 note=35 velocity=95 time=0
EXTRACT: note_off channel=9 note=36 velocity=95 time=0
EXTRACT: note_on channel=9 note=42 velocity=95 time=0
EXTRACT: note_on channel=9 note=40 velocity=95 time=0
EXTRACT: note_on channel=0 note=73 velocity=95 time=0.1666665
EXTRACT: note_on channel=0 note=68 velocity=95 time=0
EXTRACT: note_on channel=0 note=64 velocity=95 time=0
EXTRACT: note_on channel=0 note=61 velocity=95 time=0
EXTRACT: note_off channel=2 note=37 velocity=95 time=0
EXTRACT: note_on channel=2 note=42 velocity=95 time=0
EXTRACT: note_off channel=12 note=35 velocity=95 time=0
EXTRACT: note_on channel=12 note=35 velocity=95 time=0
EXTRACT: note_off channel=9 note=42 velocity=95 time=0
EXTRACT: note_off channel=9 note=40 velocity=95 time=0
EXTRACT: note_on channel=9 note=42 velocity=95 time=0
EXTRACT: note_off channel=0 note=73 velocity=95 time=0.1666665
EXTRACT: note_off channel=0 note=68 velocity=95 time=0
EXTRACT: note_off channel=0 note=64 velocity=95 time=0
EXTRACT: note_off channel=0 note=61 velocity=95 time=0
EXTRACT: note_off channel=2 note=42 velocity=95 time=0
EXTRACT: pitchwheel channel=3 pitch=0 time=0
EXTRACT: note_on channel=3 note=42 velocity=95 time=0
EXTRACT: note_off channel=12 note=35 velocity=95 time=0
EXTRACT: note_on channel=12 note=37 velocity=95 time=0
EXTRACT: note_off channel=9 note=42 velocity=95 time=0
EXTRACT: note_on channel=9 note=42 velocity=95 time=0
EXTRACT: note_on channel=9 note=36 velocity=95 time=0
EXTRACT: pitchwheel channel=3 pitch=128 time=0.014930540625
EXTRACT: pitchwheel channel=3 pitch=256 time=0.014930540625
EXTRACT: pitchwheel channel=3 pitch=384 time=0.014930540625
EXTRACT: pitchwheel channel=3 pitch=512 time=0.014930540625
EXTRACT: pitchwheel channel=3 pitch=640 time=0.014930540625
EXTRACT: pitchwheel channel=3 pitch=768 time=0.014930540625
EXTRACT: pitchwheel channel=3 pitch=896 time=0.014930540625
EXTRACT: pitchwheel channel=3 pitch=1024 time=0.014930540625
EXTRACT: pitchwheel channel=3 pitch=1152 time=0.014930540625
EXTRACT: pitchwheel channel=3 pitch=1280 time=0.014930540625
EXTRACT: pitchwheel channel=3 pitch=1408 time=0.014930540625
EXTRACT: note_on channel=0 note=73 velocity=95 time=0.002430553125
EXTRACT: note_on channel=0 note=68 velocity=95 time=0
EXTRACT: note_on channel=0 note=64 velocity=95 time=0
EXTRACT: note_on channel=0 note=61 velocity=95 time=0
EXTRACT: pitchwheel channel=3 pitch=1408 time=0
EXTRACT: note_off channel=9 note=42 velocity=95 time=0
EXTRACT: note_off channel=9 note=36 velocity=95 time=0
EXTRACT: note_off channel=0 note=73 velocity=95 time=0.1666665
EXTRACT: note_off channel=0 note=68 velocity=95 time=0
EXTRACT: note_off channel=0 note=64 velocity=95 time=0
EXTRACT: note_off channel=0 note=61 velocity=95 time=0
EXTRACT: pitchwheel channel=3 pitch=1408 time=0
EXTRACT: pitchwheel channel=3 pitch=0 time=0
EXTRACT: note_off channel=3 note=42 velocity=95 time=0
EXTRACT: note_on channel=2 note=40 velocity=95 time=0
EXTRACT: note_on channel=9 note=42 velocity=95 time=0
EXTRACT: note_on channel=9 note=40 velocity=95 time=0
EXTRACT: note_on channel=0 note=73 velocity=95 time=0.1666665
EXTRACT: note_on channel=0 note=68 velocity=95 time=0
EXTRACT: note_on channel=0 note=64 velocity=95 time=0
EXTRACT: note_on channel=0 note=61 velocity=95 time=0
EXTRACT: note_off channel=2 note=40 velocity=95 time=0
EXTRACT: note_on channel=2 note=42 velocity=95 time=0
EXTRACT: note_off channel=12 note=37 velocity=95 time=0
EXTRACT: note_on channel=12 note=32 velocity=95 time=0
EXTRACT: note_off channel=9 note=42 velocity=95 time=0
EXTRACT: note_off channel=9 note=40 velocity=95 time=0
EXTRACT: note_on channel=9 note=42 velocity=95 time=0
EXTRACT: note_off channel=0 note=73 velocity=95 time=0.1666665
EXTRACT: note_off channel=0 note=68 velocity=95 time=0
EXTRACT: note_off channel=0 note=64 velocity=95 time=0
EXTRACT: note_off channel=0 note=61 velocity=95 time=0
EXTRACT: note_off channel=2 note=42 velocity=95 time=0
EXTRACT: note_off channel=9 note=42 velocity=95 time=0
EXTRACT: note_on channel=9 note=42 velocity=95 time=0
EXTRACT: note_on channel=9 note=36 velocity=95 time=0
EXTRACT: note_on channel=0 note=73 velocity=95 time=0.1666665
EXTRACT: note_on channel=0 note=68 velocity=95 time=0
EXTRACT: note_on channel=0 note=64 velocity=95 time=0
EXTRACT: note_on channel=0 note=61 velocity=95 time=0
EXTRACT: note_on channel=2 note=40 velocity=95 time=0
EXTRACT: note_on channel=14 note=79 velocity=95 time=0
EXTRACT: note_off channel=9 note=42 velocity=95 time=0
EXTRACT: note_off channel=9 note=36 velocity=95 time=0
EXTRACT: note_off channel=0 note=73 velocity=95 time=0.1666665
EXTRACT: note_off channel=0 note=68 velocity=95 time=0
EXTRACT: note_off channel=0 note=64 velocity=95 time=0
EXTRACT: note_off channel=0 note=61 velocity=95 time=0
EXTRACT: note_off channel=2 note=40 velocity=95 time=0
EXTRACT: note_on channel=2 note=37 velocity=95 time=0
EXTRACT: note_off channel=12 note=32 velocity=95 time=0
EXTRACT: note_on channel=12 note=35 velocity=95 time=0
EXTRACT: note_off channel=14 note=79 velocity=95 time=0
EXTRACT: note_on channel=14 note=80 velocity=95 time=0
EXTRACT: note_on channel=9 note=42 velocity=95 time=0
EXTRACT: note_on channel=9 note=40 velocity=95 time=0
EXTRACT: note_on channel=0 note=73 velocity=95 time=0.1666665
EXTRACT: note_on channel=0 note=68 velocity=95 time=0
EXTRACT: note_on channel=0 note=64 velocity=95 time=0
EXTRACT: note_on channel=0 note=61 velocity=95 time=0
EXTRACT: note_off channel=2 note=37 velocity=95 time=0
EXTRACT: note_on channel=2 note=37 velocity=95 time=0
EXTRACT: note_off channel=14 note=80 velocity=95 time=0
EXTRACT: note_on channel=14 note=85 velocity=95 time=0
EXTRACT: note_off channel=9 note=42 velocity=95 time=0
EXTRACT: note_off channel=9 note=40 velocity=95 time=0
EXTRACT: note_on channel=9 note=42 velocity=95 time=0
EXTRACT: note_off channel=0 note=73 velocity=95 time=0.1666665
EXTRACT: note_off channel=0 note=68 velocity=95 time=0
EXTRACT: note_off channel=0 note=64 velocity=95 time=0
EXTRACT: note_off channel=0 note=61 velocity=95 time=0
EXTRACT: note_off channel=2 note=37 velocity=95 time=0
EXTRACT: note_on channel=2 note=42 velocity=95 time=0
EXTRACT: note_off channel=9 note=42 velocity=95 time=0
EXTRACT: note_on channel=9 note=42 velocity=95 time=0
EXTRACT: note_on channel=9 note=36 velocity=95 time=0
EXTRACT: note_on channel=0 note=73 velocity=95 time=0.1666665
EXTRACT: note_on channel=0 note=68 velocity=95 time=0
EXTRACT: note_on channel=0 note=64 velocity=95 time=0
EXTRACT: note_on channel=0 note=61 velocity=95 time=0
EXTRACT: note_off channel=2 note=42 velocity=95 time=0
EXTRACT: note_on channel=2 note=42 velocity=95 time=0
EXTRACT: note_off channel=12 note=35 velocity=95 time=0
EXTRACT: note_on channel=12 note=37 velocity=95 time=0
EXTRACT: note_off channel=9 note=42 velocity=95 time=0
EXTRACT: note_off channel=9 note=36 velocity=95 time=0
EXTRACT: note_off channel=0 note=73 velocity=95 time=0.1666665
EXTRACT: note_off channel=0 note=68 velocity=95 time=0
EXTRACT: note_off channel=0 note=64 velocity=95 time=0
EXTRACT: note_off channel=0 note=61 velocity=95 time=0
EXTRACT: note_off channel=2 note=42 velocity=95 time=0
EXTRACT: note_on channel=2 note=42 velocity=95 time=0
EXTRACT: note_on channel=9 note=42 velocity=95 time=0
EXTRACT: note_on channel=9 note=40 velocity=95 time=0
EXTRACT: note_on channel=0 note=73 velocity=95 time=0.1666665
EXTRACT: note_on channel=0 note=68 velocity=95 time=0
EXTRACT: note_on channel=0 note=64 velocity=95 time=0
EXTRACT: note_on channel=0 note=61 velocity=95 time=0
EXTRACT: note_off channel=2 note=42 velocity=95 time=0
EXTRACT: note_on channel=2 note=42 velocity=95 time=0
EXTRACT: note_off channel=12 note=37 velocity=95 time=0
EXTRACT: note_on channel=12 note=37 velocity=95 time=0
EXTRACT: note_off channel=9 note=42 velocity=95 time=0
EXTRACT: note_off channel=9 note=40 velocity=95 time=0
EXTRACT: note_on channel=9 note=42 velocity=95 time=0
EXTRACT: note_off channel=0 note=73 velocity=95 time=0.1666665
EXTRACT: note_off channel=0 note=68 velocity=95 time=0
EXTRACT: note_off channel=0 note=64 velocity=95 time=0
EXTRACT: note_off channel=0 note=61 velocity=95 time=0
EXTRACT: note_off channel=2 note=42 velocity=95 time=0
EXTRACT: note_on channel=2 note=44 velocity=95 time=0
EXTRACT: note_off channel=12 note=37 velocity=95 time=0
EXTRACT: note_on channel=12 note=40 velocity=95 time=0
EXTRACT: note_off channel=9 note=42 velocity=95 time=0
EXTRACT: note_on channel=9 note=42 velocity=95 time=0
EXTRACT: note_off channel=14 note=85 velocity=95 time=0.08333325
EXTRACT: note_on channel=0 note=73 velocity=95 time=0.08333325
EXTRACT: note_on channel=0 note=68 velocity=95 time=0
EXTRACT: note_on channel=0 note=64 velocity=95 time=0
EXTRACT: note_on channel=0 note=61 velocity=95 time=0
EXTRACT: note_off channel=2 note=44 velocity=95 time=0
EXTRACT: note_on channel=2 note=47 velocity=95 time=0
EXTRACT: note_off channel=12 note=40 velocity=95 time=0
EXTRACT: note_on channel=12 note=39 velocity=95 time=0
EXTRACT: note_on channel=14 note=85 velocity=95 time=0
EXTRACT: note_off channel=9 note=42 velocity=95 time=0
EXTRACT: note_on channel=9 note=36 velocity=95 time=0
EXTRACT: note_off channel=0 note=73 velocity=95 time=0.1666665
EXTRACT: note_off channel=0 note=68 velocity=95 time=0
EXTRACT: note_off channel=0 note=64 velocity=95 time=0
EXTRACT: note_off channel=0 note=61 velocity=95 time=0
EXTRACT: note_off channel=12 note=39 velocity=95 time=0
EXTRACT: note_on channel=12 note=37 velocity=95 time=0
EXTRACT: note_off channel=14 note=85 velocity=95 time=0
EXTRACT: note_off channel=9 note=36 velocity=95 time=0
EXTRACT: note_on channel=9 note=42 velocity=95 time=0
EXTRACT: note_on channel=9 note=40 velocity=95 time=0
EXTRACT: note_on channel=0 note=73 velocity=95 time=0.1666665
EXTRACT: note_on channel=0 note=68 velocity=95 time=0
EXTRACT: note_on channel=0 note=64 velocity=95 time=0
EXTRACT: note_on channel=0 note=61 velocity=95 time=0
EXTRACT: note_off channel=2 note=47 velocity=95 time=0
EXTRACT: note_on channel=3 note=49 velocity=95 time=0
EXTRACT: note_off channel=12 note=37 velocity=95 time=0
EXTRACT: note_on channel=12 note=33 velocity=95 time=0
EXTRACT: note_on channel=14 note=85 velocity=95 time=0
EXTRACT: note_off channel=9 note=42 velocity=95 time=0
EXTRACT: note_off channel=9 note=40 velocity=95 time=0
EXTRACT: note_on channel=9 note=42 velocity=95 time=0
EXTRACT: note_off channel=12 note=33 velocity=95 time=0.031249968750000003
EXTRACT: pitchwheel channel=3 pitch=0 time=0.02430553125
EXTRACT: pitchwheel channel=3 pitch=128 time=0.0555555
EXTRACT: note_off channel=0 note=73 velocity=95 time=0.0555555
EXTRACT: note_off channel=0 note=68 velocity=95 time=0
EXTRACT: note_off channel=0 note=64 velocity=95 time=0
EXTRACT: note_off channel=0 note=61 velocity=95 time=0
EXTRACT: pitchwheel channel=3 pitch=0 time=0
EXTRACT: note_on channel=12 note=35 velocity=95 time=0
EXTRACT: note_off channel=14 note=85 velocity=95 time=0
EXTRACT: note_off channel=9 note=42 velocity=95 time=0
EXTRACT: note_on channel=9 note=42 velocity=95 time=0
EXTRACT: note_on channel=9 note=36 velocity=95 time=0
EXTRACT: pitchwheel channel=3 pitch=128 time=0.0555555
EXTRACT: pitchwheel channel=3 pitch=0 time=0.0555555
EXTRACT: note_on channel=0 note=73 velocity=95 time=0.0555555
EXTRACT: note_on channel=0 note=68 velocity=95 time=0
EXTRACT: note_on channel=0 note=64 velocity=95 time=0
EXTRACT: note_on channel=0 note=61 velocity=95 time=0
EXTRACT: pitchwheel channel=3 pitch=128 time=0
EXTRACT: pitchwheel channel=3 pitch=0 time=0
EXTRACT: note_off channel=3 note=49 velocity=95 time=0
EXTRACT: note_on channel=2 note=37 velocity=95 time=0
EXTRACT: note_on channel=14 note=85 velocity=95 time=0
EXTRACT: note_off channel=9 note=42 velocity=95 time=0
EXTRACT: note_off channel=9 note=36 velocity=95 time=0
EXTRACT: note_off channel=0 note=73 velocity=95 time=0.1666665
EXTRACT: note_off channel=0 note=68 velocity=95 time=0
EXTRACT: note_off channel=0 note=64 velocity=95 time=0
EXTRACT: note_off channel=0 note=61 velocity=95 time=0
EXTRACT: note_off channel=2 note=37 velocity=95 time=0
EXTRACT: note_on channel=2 note=40 velocity=95 time=0
EXTRACT: note_off channel=12 note=35 velocity=95 time=0
EXTRACT: note_off channel=14 note=85 velocity=95 time=0
EXTRACT: note_on channel=9 note=42 velocity=95 time=0
EXTRACT: note_on channel=9 note=40 velocity=95 time=0
EXTRACT: note_on channel=0 note=73 velocity=95 time=0.1666665
EXTRACT: note_on channel=0 note=68 velocity=95 time=0
EXTRACT: note_on channel=0 note=64 velocity=95 time=0
EXTRACT: note_on channel=0 note=61 velocity=95 time=0
EXTRACT: note_off channel=2 note=40 velocity=95 time=0
EXTRACT: note_on channel=2 note=37 velocity=95 time=0
EXTRACT: note_on channel=12 note=30 velocity=95 time=0
EXTRACT: note_on channel=14 note=85 velocity=95 time=0
EXTRACT: note_off channel=9 note=42 velocity=95 time=0
EXTRACT: note_off channel=9 note=40 velocity=95 time=0
EXTRACT: note_on channel=9 note=42 velocity=95 time=0
EXTRACT: note_off channel=0 note=73 velocity=95 time=0.1666665
EXTRACT: note_off channel=0 note=68 velocity=95 time=0
EXTRACT: note_off channel=0 note=64 velocity=95 time=0
EXTRACT: note_off channel=0 note=61 velocity=95 time=0
EXTRACT: note_off channel=2 note=37 velocity=95 time=0
EXTRACT: note_on channel=2 note=42 velocity=95 time=0
EXTRACT: note_off channel=12 note=30 velocity=95 time=0
EXTRACT: note_on channel=12 note=30 velocity=95 time=0
EXTRACT: note_off channel=14 note=85 velocity=95 time=0
EXTRACT: note_off channel=9 note=42 velocity=95 time=0
EXTRACT: note_on channel=9 note=42 velocity=95 time=0
EXTRACT: note_on channel=9 note=36 velocity=95 time=0
EXTRACT: note_on channel=0 note=73 velocity=95 time=0.1666665
EXTRACT: note_on channel=0 note=68 velocity=95 time=0
EXTRACT: note_on channel=0 note=64 velocity=95 time=0
EXTRACT: note_on channel=0 note=61 velocity=95 time=0
EXTRACT: note_off channel=2 note=42 velocity=95 time=0
EXTRACT: note_on channel=2 note=42 velocity=95 time=0
EXTRACT: note_on channel=14 note=85 velocity=95 time=0
EXTRACT: note_off channel=9 note=42 velocity=95 time=0
EXTRACT: note_off channel=9 note=36 velocity=95 time=0
EXTRACT: note_off channel=0 note=73 velocity=95 time=0.1666665
EXTRACT: note_off channel=0 note=68 velocity=95 time=0
EXTRACT: note_off channel=0 note=64 velocity=95 time=0
EXTRACT: note_off channel=0 note=61 velocity=95 time=0
EXTRACT: note_off channel=2 note=42 velocity=95 time=0
EXTRACT: pitchwheel channel=3 pitch=0 time=0
EXTRACT: note_on channel=3 note=40 velocity=95 time=0
EXTRACT: note_off channel=12 note=30 velocity=95 time=0
EXTRACT: note_on channel=12 note=33 velocity=95 time=0
EXTRACT: note_off channel=14 note=85 velocity=95 time=0
EXTRACT: note_on channel=9 note=42 velocity=95 time=0
EXTRACT: note_on channel=9 note=40 velocity=95 time=0
EXTRACT: pitchwheel channel=3 pitch=128 time=0.041666625
EXTRACT: pitchwheel channel=3 pitch=256 time=0.041666625
EXTRACT: pitchwheel channel=3 pitch=256 time=0
EXTRACT: note_on channel=0 note=73 velocity=95 time=0.08333325
EXTRACT: note_on channel=0 note=68 velocity=95 time=0
EXTRACT: note_on channel=0 note=64 velocity=95 time=0
EXTRACT: note_on channel=0 note=61 velocity=95 time=0
EXTRACT: pitchwheel channel=3 pitch=256 time=0
EXTRACT: pitchwheel channel=3 pitch=0 time=0
EXTRACT: note_off channel=3 note=40 velocity=95 time=0
EXTRACT: note_on channel=2 note=37 velocity=95 time=0
EXTRACT: note_on channel=14 note=88 velocity=95 time=0
EXTRACT: note_off channel=9 note=42 velocity=95 time=0
EXTRACT: note_off channel=9 note=40 velocity=95 time=0
EXTRACT: note_on channel=9 note=42 velocity=95 time=0
EXTRACT: note_off channel=0 note=73 velocity=95 time=0.1666665
EXTRACT: note_off channel=0 note=68 velocity=95 time=0
EXTRACT: note_off channel=0 note=64 velocity=95 time=0
EXTRACT: note_off channel=0 note=61 velocity=95 time=0
EXTRACT: note_on channel=0 note=71 velocity=95 time=0
EXTRACT: note_on channel=0 note=66 velocity=95 time=0
EXTRACT: note_on channel=0 note=63 velocity=95 time=0
EXTRACT: note_on channel=0 note=59 velocity=95 time=0
EXTRACT: note_off channel=2 note=37 velocity=95 time=0
EXTRACT: note_on channel=2 note=37 velocity=95 time=0
EXTRACT: note_off channel=12 note=33 velocity=95 time=0
EXTRACT: note_on channel=12 note=37 velocity=95 time=0
EXTRACT: note_off channel=14 note=88 velocity=95 time=0
EXTRACT: note_off channel=9 note=42 velocity=95 time=0
EXTRACT: note_on channel=9 note=42 velocity=95 time=0
EXTRACT: note_on channel=9 note=36 velocity=95 time=0
EXTRACT: note_off channel=0 note=71 velocity=95 time=0.1666665
EXTRACT: note_off channel=0 note=66 velocity=95 time=0
EXTRACT: note_off channel=0 note=63 velocity=95 time=0
EXTRACT: note_off channel=0 note=59 velocity=95 time=0
EXTRACT: note_on channel=0 note=71 velocity=95 time=0
EXTRACT: note_on channel=0 note=66 velocity=95 time=0
EXTRACT: note_on channel=0 note=63 velocity=95 time=0
EXTRACT: note_on channel=0 note=59 velocity=95 time=0
EXTRACT: note_on channel=14 note=80 velocity=95 time=0
EXTRACT: note_on channel=14 note=73 velocity=95 time=0
EXTRACT: note_off channel=9 note=42 velocity=95 time=0
EXTRACT: note_off channel=9 note=36 velocity=95 time=0
EXTRACT: note_off channel=0 note=71 velocity=95 time=0.1666665
EXTRACT: note_off channel=0 note=66 velocity=95 time=0
EXTRACT: note_off channel=0 note=63 velocity=95 time=0
EXTRACT: note_off channel=0 note=59 velocity=95 time=0
EXTRACT: note_off channel=2 note=37 velocity=95 time=0
EXTRACT: note_on channel=2 note=37 velocity=95 time=0
EXTRACT: note_off channel=14 note=80 velocity=95 time=0
EXTRACT: note_off channel=14 note=73 velocity=95 time=0
EXTRACT: note_on channel=9 note=42 velocity=95 time=0
EXTRACT: note_on channel=9 note=40 velocity=95 time=0
EXTRACT: note_on channel=0 note=71 velocity=95 time=0.1666665
EXTRACT: note_on channel=0 note=66 velocity=95 time=0
EXTRACT: note_on channel=0 note=63 velocity=95 time=0
EXTRACT: note_on channel=0 note=59 velocity=95 time=0
EXTRACT: note_off channel=2 note=37 velocity=95 time=0
EXTRACT: note_on channel=2 note=37 velocity=95 time=0
EXTRACT: note_off channel=12 note=37 velocity=95 time=0
EXTRACT: note_on channel=12 note=37 velocity=95 time=0
EXTRACT: note_on channel=14 note=80 velocity=95 time=0
EXTRACT: note_on channel=14 note=73 velocity=95 time=0
EXTRACT: note_off channel=9 note=42 velocity=95 time=0
EXTRACT: note_off channel=9 note=40 velocity=95 time=0
EXTRACT: note_on channel=9 note=42 velocity=95 time=0
EXTRACT: note_off channel=0 note=71 velocity=95 time=0.1666665
EXTRACT: note_off channel=0 note=66 velocity=95 time=0
EXTRACT: note_off channel=0 note=63 velocity=95 time=0
EXTRACT: note_off channel=0 note=59 velocity=95 time=0
EXTRACT: note_off channel=2 note=37 velocity=95 time=0
EXTRACT: note_on channel=2 note=40 velocity=95 time=0
EXTRACT: note_off channel=12 note=37 velocity=95 time=0
EXTRACT: note_on channel=12 note=32 velocity=95 time=0
EXTRACT: note_off channel=14 note=80 velocity=95 time=0
EXTRACT: note_off channel=14 note=73 velocity=95 time=0
EXTRACT: note_off channel=9 note=42 velocity=95 time=0
EXTRACT: note_on channel=9 note=42 velocity=95 time=0
EXTRACT: note_on channel=0 note=71 velocity=95 time=0.1666665
EXTRACT: note_on channel=0 note=66 velocity=95 time=0
EXTRACT: note_on channel=0 note=63 velocity=95 time=0
EXTRACT: note_on channel=0 note=59 velocity=95 time=0
EXTRACT: note_off channel=2 note=40 velocity=95 time=0
EXTRACT: note_on channel=2 note=42 velocity=95 time=0
EXTRACT: note_on channel=14 note=80 velocity=95 time=0
EXTRACT: note_on channel=14 note=73 velocity=95 time=0
EXTRACT: note_off channel=9 note=42 velocity=95 time=0
EXTRACT: note_on channel=9 note=36 velocity=95 time=0
EXTRACT: note_off channel=0 note=71 velocity=95 time=0.1666665
EXTRACT: note_off channel=0 note=66 velocity=95 time=0
EXTRACT: note_off channel=0 note=63 velocity=95 time=0
EXTRACT: note_off channel=0 note=59 velocity=95 time=0
EXTRACT: note_off channel=2 note=42 velocity=95 time=0
EXTRACT: note_on channel=2 note=37 velocity=95 time=0
EXTRACT: note_off channel=12 note=32 velocity=95 time=0
EXTRACT: note_on channel=12 note=35 velocity=95 time=0
EXTRACT: note_off channel=14 note=80 velocity=95 time=0
EXTRACT: note_off channel=14 note=73 velocity=95 time=0
EXTRACT: note_off channel=9 note=36 velocity=95 time=0
EXTRACT: note_on channel=9 note=42 velocity=95 time=0
EXTRACT: note_on channel=9 note=40 velocity=95 time=0
EXTRACT: note_on channel=0 note=73 velocity=95 time=0.1666665
EXTRACT: note_on channel=0 note=68 velocity=95 time=0
EXTRACT: note_on channel=0 note=64 velocity=95 time=0
EXTRACT: note_on channel=0 note=61 velocity=95 time=0
EXTRACT: note_off channel=2 note=37 velocity=95 time=0
EXTRACT: pitchwheel channel=3 pitch=0 time=0
EXTRACT: note_on channel=3 note=42 velocity=95 time=0
EXTRACT: note_off channel=12 note=35 velocity=95 time=0
EXTRACT: note_on channel=12 note=35 velocity=95 time=0
EXTRACT: note_on channel=14 note=80 velocity=95 time=0
EXTRACT: note_on channel=14 note=73 velocity=95 time=0
EXTRACT: note_off channel=9 note=42 velocity=95 time=0
EXTRACT: note_off channel=9 note=40 velocity=95 time=0
EXTRACT: note_on channel=9 note=42 velocity=95 time=0
EXTRACT: pitchwheel channel=3 pitch=128 time=0.022569421875000002
EXTRACT: pitchwheel channel=3 pitch=256 time=0.022569421875000002
EXTRACT: pitchwheel channel=3 pitch=384 time=0.022569421875000002
EXTRACT: pitchwheel channel=3 pitch=512 time=0.022569421875000002
EXTRACT: pitchwheel channel=3 pitch=640 time=0.022569421875000002
EXTRACT: pitchwheel channel=3 pitch=768 time=0.022569421875000002
EXTRACT: pitchwheel channel=3 pitch=896 time=0.022569421875000002
EXTRACT: note_off channel=0 note=73 velocity=95 time=0.008680546875
EXTRACT: note_off channel=0 note=68 velocity=95 time=0
EXTRACT: note_off channel=0 note=64 velocity=95 time=0
EXTRACT: note_off channel=0 note=61 velocity=95 time=0
EXTRACT: note_off channel=12 note=35 velocity=95 time=0
EXTRACT: note_on channel=12 note=37 velocity=95 time=0
EXTRACT: note_off channel=14 note=80 velocity=95 time=0
EXTRACT: note_off channel=14 note=73 velocity=95 time=0
EXTRACT: note_off channel=9 note=42 velocity=95 time=0
EXTRACT: note_on channel=9 note=42 velocity=95 time=0
EXTRACT: note_on channel=9 note=36 velocity=95 time=0
EXTRACT: pitchwheel channel=3 pitch=1024 time=0.013888875
EXTRACT: pitchwheel channel=3 pitch=1152 time=0.022569421875000002
EXTRACT: pitchwheel channel=3 pitch=1280 time=0.022569421875000002
EXTRACT: pitchwheel channel=3 pitch=1408 time=0.022569421875000002
EXTRACT: pitchwheel channel=3 pitch=1408 time=0.001736109375
EXTRACT: note_on channel=0 note=73 velocity=95 time=0.08333325
EXTRACT: note_on channel=0 note=68 velocity=95 time=0
EXTRACT: note_on channel=0 note=64 velocity=95 time=0
EXTRACT: note_on channel=0 note=61 velocity=95 time=0
EXTRACT: note_off channel=9 note=42 velocity=95 time=0
EXTRACT: note_off channel=9 note=36 velocity=95 time=0
EXTRACT: note_off channel=0 note=73 velocity=95 time=0.1666665
EXTRACT: note_off channel=0 note=68 velocity=95 time=0
EXTRACT: note_off channel=0 note=64 velocity=95 time=0
EXTRACT: note_off channel=0 note=61 velocity=95 time=0
EXTRACT: pitchwheel channel=3 pitch=1408 time=0
EXTRACT: pitchwheel channel=3 pitch=0 time=0
EXTRACT: note_off channel=3 note=42 velocity=95 time=0
EXTRACT: note_on channel=2 note=42 velocity=95 time=0
EXTRACT: note_on channel=9 note=42 velocity=95 time=0
EXTRACT: note_on channel=9 note=40 velocity=95 time=0
EXTRACT: note_on channel=0 note=73 velocity=95 time=0.1666665
EXTRACT: note_on channel=0 note=68 velocity=95 time=0
EXTRACT: note_on channel=0 note=64 velocity=95 time=0
EXTRACT: note_on channel=0 note=61 velocity=95 time=0
EXTRACT: note_off channel=2 note=42 velocity=95 time=0
EXTRACT: note_on channel=2 note=40 velocity=95 time=0
EXTRACT: note_off channel=12 note=37 velocity=95 time=0
EXTRACT: note_on channel=12 note=32 velocity=95 time=0
EXTRACT: note_off channel=9 note=42 velocity=95 time=0
EXTRACT: note_off channel=9 note=40 velocity=95 time=0
EXTRACT: note_on channel=9 note=42 velocity=95 time=0
EXTRACT: note_off channel=0 note=73 velocity=95 time=0.1666665
EXTRACT: note_off channel=0 note=68 velocity=95 time=0
EXTRACT: note_off channel=0 note=64 velocity=95 time=0
EXTRACT: note_off channel=0 note=61 velocity=95 time=0
EXTRACT: note_off channel=2 note=40 velocity=95 time=0
EXTRACT: note_on channel=2 note=42 velocity=95 time=0
EXTRACT: note_off channel=9 note=42 velocity=95 time=0
EXTRACT: note_on channel=9 note=42 velocity=95 time=0
EXTRACT: note_on channel=9 note=36 velocity=95 time=0
EXTRACT: note_on channel=0 note=73 velocity=95 time=0.1666665
EXTRACT: note_on channel=0 note=68 velocity=95 time=0
EXTRACT: note_on channel=0 note=64 velocity=95 time=0
EXTRACT: note_on channel=0 note=61 velocity=95 time=0
EXTRACT: note_off channel=2 note=42 velocity=95 time=0
EXTRACT: pitchwheel channel=3 pitch=0 time=0
EXTRACT: note_on channel=3 note=40 velocity=95 time=0
EXTRACT: note_off channel=9 note=42 velocity=95 time=0
EXTRACT: note_off channel=9 note=36 velocity=95 time=0
EXTRACT: pitchwheel channel=3 pitch=128 time=0.041666625
EXTRACT: pitchwheel channel=3 pitch=256 time=0.041666625
EXTRACT: pitchwheel channel=3 pitch=256 time=0
EXTRACT: note_off channel=0 note=73 velocity=95 time=0.08333325
EXTRACT: note_off channel=0 note=68 velocity=95 time=0
EXTRACT: note_off channel=0 note=64 velocity=95 time=0
EXTRACT: note_off channel=0 note=61 velocity=95 time=0
EXTRACT: pitchwheel channel=3 pitch=256 time=0
EXTRACT: pitchwheel channel=3 pitch=0 time=0
EXTRACT: note_off channel=3 note=40 velocity=95 time=0
EXTRACT: note_on channel=2 note=37 velocity=95 time=0
EXTRACT: note_off channel=12 note=32 velocity=95 time=0
EXTRACT: note_on channel=12 note=35 velocity=95 time=0
EXTRACT: note_on channel=9 note=42 velocity=95 time=0
EXTRACT: note_on channel=9 note=40 velocity=95 time=0
EXTRACT: note_on channel=0 note=73 velocity=95 time=0.1666665
EXTRACT: note_on channel=0 note=68 velocity=95 time=0
EXTRACT: note_on channel=0 note=64 velocity=95 time=0
EXTRACT: note_on channel=0 note=61 velocity=95 time=0
EXTRACT: note_off channel=2 note=37 velocity=95 time=0
EXTRACT: note_on channel=2 note=37 velocity=95 time=0
EXTRACT: note_off channel=9 note=42 velocity=95 time=0
EXTRACT: note_off channel=9 note=40 velocity=95 time=0
EXTRACT: note_on channel=9 note=42 velocity=95 time=0
EXTRACT: note_off channel=0 note=73 velocity=95 time=0.1666665
EXTRACT: note_off channel=0 note=68 velocity=95 time=0
EXTRACT: note_off channel=0 note=64 velocity=95 time=0
EXTRACT: note_off channel=0 note=61 velocity=95 time=0
EXTRACT: note_off channel=2 note=37 velocity=95 time=0
EXTRACT: note_on channel=2 note=42 velocity=95 time=0
EXTRACT: note_off channel=9 note=42 velocity=95 time=0
EXTRACT: note_on channel=9 note=42 velocity=95 time=0
EXTRACT: note_on channel=9 note=36 velocity=95 time=0
EXTRACT: note_on channel=0 note=73 velocity=95 time=0.1666665
EXTRACT: note_on channel=0 note=68 velocity=95 time=0
EXTRACT: note_on channel=0 note=64 velocity=95 time=0
EXTRACT: note_on channel=0 note=61 velocity=95 time=0
EXTRACT: note_off channel=12 note=35 velocity=95 time=0
EXTRACT: note_on channel=12 note=37 velocity=95 time=0
EXTRACT: note_off channel=9 note=42 velocity=95 time=0
EXTRACT: note_off channel=9 note=36 velocity=95 time=0
EXTRACT: note_off channel=0 note=73 velocity=95 time=0.1666665
EXTRACT: note_off channel=0 note=68 velocity=95 time=0
EXTRACT: note_off channel=0 note=64 velocity=95 time=0
EXTRACT: note_off channel=0 note=61 velocity=95 time=0
EXTRACT: note_off channel=2 note=42 velocity=95 time=0
EXTRACT: note_on channel=2 note=42 velocity=95 time=0
EXTRACT: note_on channel=9 note=42 velocity=95 time=0
EXTRACT: note_on channel=9 note=40 velocity=95 time=0
EXTRACT: note_on channel=0 note=73 velocity=95 time=0.1666665
EXTRACT: note_on channel=0 note=68 velocity=95 time=0
EXTRACT: note_on channel=0 note=64 velocity=95 time=0
EXTRACT: note_on channel=0 note=61 velocity=95 time=0
EXTRACT: note_off channel=2 note=42 velocity=95 time=0
EXTRACT: note_on channel=2 note=42 velocity=95 time=0
EXTRACT: note_off channel=12 note=37 velocity=95 time=0
EXTRACT: note_on channel=12 note=37 velocity=95 time=0
EXTRACT: note_off channel=9 note=42 velocity=95 time=0
EXTRACT: note_off channel=9 note=40 velocity=95 time=0
EXTRACT: note_on channel=9 note=42 velocity=95 time=0
EXTRACT: note_off channel=0 note=73 velocity=95 time=0.1666665
EXTRACT: note_off channel=0 note=68 velocity=95 time=0
EXTRACT: note_off channel=0 note=64 velocity=95 time=0
EXTRACT: note_off channel=0 note=61 velocity=95 time=0
EXTRACT: note_off channel=2 note=42 velocity=95 time=0
EXTRACT: note_on channel=2 note=42 velocity=95 time=0
EXTRACT: note_off channel=12 note=37 velocity=95 time=0
EXTRACT: note_on channel=12 note=40 velocity=95 time=0
EXTRACT: note_off channel=9 note=42 velocity=95 time=0
EXTRACT: note_on channel=9 note=42 velocity=95 time=0
EXTRACT: note_off channel=2 note=42 velocity=95 time=0.041666625
EXTRACT: note_on channel=2 note=44 velocity=70 time=0
EXTRACT: note_on channel=0 note=73 velocity=95 time=0.12499987500000001
EXTRACT: note_on channel=0 note=68 velocity=95 time=0
EXTRACT: note_on channel=0 note=64 velocity=95 time=0
EXTRACT: note_on channel=0 note=61 velocity=95 time=0
EXTRACT: note_off channel=2 note=44 velocity=70 time=0
EXTRACT: note_on channel=2 note=47 velocity=95 time=0
EXTRACT: note_off channel=12 note=40 velocity=95 time=0
EXTRACT: note_on channel=12 note=39 velocity=95 time=0
EXTRACT: note_off channel=9 note=42 velocity=95 time=0
EXTRACT: note_on channel=9 note=36 velocity=95 time=0
EXTRACT: note_off channel=0 note=73 velocity=95 time=0.1666665
EXTRACT: note_off channel=0 note=68 velocity=95 time=0
EXTRACT: note_off channel=0 note=64 velocity=95 time=0
EXTRACT: note_off channel=0 note=61 velocity=95 time=0
EXTRACT: note_off channel=12 note=39 velocity=95 time=0
EXTRACT: note_on channel=12 note=37 velocity=95 time=0
EXTRACT: note_off channel=9 note=36 velocity=95 time=0
EXTRACT: note_on channel=9 note=42 velocity=95 time=0
EXTRACT: note_on channel=9 note=40 velocity=95 time=0
EXTRACT: note_on channel=0 note=73 velocity=95 time=0.1666665
EXTRACT: note_on channel=0 note=68 velocity=95 time=0
EXTRACT: note_on channel=0 note=64 velocity=95 time=0
EXTRACT: note_on channel=0 note=61 velocity=95 time=0
EXTRACT: note_off channel=2 note=47 velocity=95 time=0
EXTRACT: note_on channel=3 note=49 velocity=95 time=0
EXTRACT: note_off channel=12 note=37 velocity=95 time=0
EXTRACT: note_on channel=12 note=33 velocity=95 time=0
EXTRACT: note_off channel=9 note=42 velocity=95 time=0
EXTRACT: note_off channel=9 note=40 velocity=95 time=0
EXTRACT: note_on channel=9 note=42 velocity=95 time=0
EXTRACT: note_off channel=12 note=33 velocity=95 time=0.031249968750000003
EXTRACT: pitchwheel channel=3 pitch=0 time=0.02430553125
EXTRACT: pitchwheel channel=3 pitch=128 time=0.0555555
EXTRACT: note_off channel=0 note=73 velocity=95 time=0.0555555
EXTRACT: note_off channel=0 note=68 velocity=95 time=0
EXTRACT: note_off channel=0 note=64 velocity=95 time=0
EXTRACT: note_off channel=0 note=61 velocity=95 time=0
EXTRACT: pitchwheel channel=3 pitch=0 time=0
EXTRACT: note_on channel=6 note=66 velocity=95 time=0
EXTRACT: note_on channel=12 note=35 velocity=95 time=0
EXTRACT: note_off channel=9 note=42 velocity=95 time=0
EXTRACT: note_on channel=9 note=42 velocity=95 time=0
EXTRACT: note_on channel=9 note=36 velocity=95 time=0
EXTRACT: pitchwheel channel=3 pitch=128 time=0.0555555
EXTRACT: pitchwheel channel=3 pitch=0 time=0.0555555
EXTRACT: note_on channel=0 note=73 velocity=95 time=0.0555555
EXTRACT: note_on channel=0 note=68 velocity=95 time=0
EXTRACT: note_on channel=0 note=64 velocity=95 time=0
EXTRACT: note_on channel=0 note=61 velocity=95 time=0
EXTRACT: pitchwheel channel=3 pitch=128 time=0
EXTRACT: pitchwheel channel=3 pitch=0 time=0
EXTRACT: note_off channel=3 note=49 velocity=95 time=0
EXTRACT: note_on channel=2 note=37 velocity=95 time=0
EXTRACT: note_off channel=6 note=66 velocity=95 time=0
EXTRACT: note_on channel=6 note=66 velocity=95 time=0
EXTRACT: note_off channel=9 note=42 velocity=95 time=0
EXTRACT: note_off channel=9 note=36 velocity=95 time=0
EXTRACT: note_off channel=0 note=73 velocity=95 time=0.1666665
EXTRACT: note_off channel=0 note=68 velocity=95 time=0
EXTRACT: note_off channel=0 note=64 velocity=95 time=0
EXTRACT: note_off channel=0 note=61 velocity=95 time=0
EXTRACT: note_off channel=2 note=37 velocity=95 time=0
EXTRACT: note_on channel=2 note=40 velocity=95 time=0
EXTRACT: note_off channel=6 note=66 velocity=95 time=0
EXTRACT: note_on channel=6 note=66 velocity=95 time=0
EXTRACT: note_off channel=12 note=35 velocity=95 time=0
EXTRACT: note_on channel=9 note=42 velocity=95 time=0
EXTRACT: note_on channel=9 note=40 velocity=95 time=0
EXTRACT: note_on channel=0 note=73 velocity=95 time=0.1666665
EXTRACT: note_on channel=0 note=68 velocity=95 time=0
EXTRACT: note_on channel=0 note=64 velocity=95 time=0
EXTRACT: note_on channel=0 note=61 velocity=95 time=0
EXTRACT: note_off channel=2 note=40 velocity=95 time=0
EXTRACT: note_on channel=2 note=37 velocity=95 time=0
EXTRACT: note_off channel=6 note=66 velocity=95 time=0
EXTRACT: note_on channel=6 note=66 velocity=95 time=0
EXTRACT: note_on channel=12 note=30 velocity=95 time=0
EXTRACT: note_off channel=9 note=42 velocity=95 time=0
EXTRACT: note_off channel=9 note=40 velocity=95 time=0
EXTRACT: note_on channel=9 note=42 velocity=95 time=0
EXTRACT: note_off channel=0 note=73 velocity=95 time=0.1666665
EXTRACT: note_off channel=0 note=68 velocity=95 time=0
EXTRACT: note_off channel=0 note=64 velocity=95 time=0
EXTRACT: note_off channel=0 note=61 velocity=95 time=0
EXTRACT: note_off channel=2 note=37 velocity=95 time=0
EXTRACT: note_on channel=3 note=49 velocity=95 time=0
EXTRACT: note_off channel=6 note=66 velocity=95 time=0
EXTRACT: note_on channel=6 note=66 velocity=95 time=0
EXTRACT: note_off channel=12 note=30 velocity=95 time=0
EXTRACT: note_on channel=12 note=30 velocity=95 time=0
EXTRACT: note_off channel=9 note=42 velocity=95 time=0
EXTRACT: note_on channel=9 note=42 velocity=95 time=0
EXTRACT: note_on channel=9 note=36 velocity=95 time=0
EXTRACT: pitchwheel channel=3 pitch=0 time=0.0555555
EXTRACT: pitchwheel channel=3 pitch=128 time=0.0555555
EXTRACT: note_on channel=0 note=73 velocity=95 time=0.0555555
EXTRACT: note_on channel=0 note=68 velocity=95 time=0
EXTRACT: note_on channel=0 note=64 velocity=95 time=0
EXTRACT: note_on channel=0 note=61 velocity=95 time=0
EXTRACT: pitchwheel channel=3 pitch=0 time=0
EXTRACT: note_off channel=6 note=66 velocity=95 time=0
EXTRACT: note_on channel=6 note=66 velocity=95 time=0
EXTRACT: note_off channel=9 note=42 velocity=95 time=0
EXTRACT: note_off channel=9 note=36 velocity=95 time=0
EXTRACT: pitchwheel channel=3 pitch=128 time=0.0555555
EXTRACT: pitchwheel channel=3 pitch=0 time=0.0555555
EXTRACT: note_off channel=0 note=73 velocity=95 time=0.0555555
EXTRACT: note_off channel=0 note=68 velocity=95 time=0
EXTRACT: note_off channel=0 note=64 velocity=95 time=0
EXTRACT: note_off channel=0 note=61 velocity=95 time=0
EXTRACT: pitchwheel channel=3 pitch=128 time=0
EXTRACT: pitchwheel channel=3 pitch=0 time=0
EXTRACT: note_off channel=3 note=49 velocity=95 time=0
EXTRACT: note_on channel=2 note=37 velocity=95 time=0
EXTRACT: note_off channel=6 note=66 velocity=95 time=0
EXTRACT: note_on channel=6 note=67 velocity=95 time=0
EXTRACT: note_off channel=12 note=30 velocity=95 time=0
EXTRACT: note_on channel=12 note=33 velocity=95 time=0
EXTRACT: note_on channel=9 note=42 velocity=95 time=0
EXTRACT: note_on channel=9 note=40 velocity=95 time=0
EXTRACT: note_on channel=0 note=73 velocity=95 time=0.1666665
EXTRACT: note_on channel=0 note=68 velocity=95 time=0
EXTRACT: note_on channel=0 note=64 velocity=95 time=0
EXTRACT: note_on channel=0 note=61 velocity=95 time=0
EXTRACT: note_off channel=2 note=37 velocity=95 time=0
EXTRACT: note_on channel=2 note=37 velocity=95 time=0
EXTRACT: note_off channel=6 note=67 velocity=95 time=0
EXTRACT: note_on channel=6 note=68 velocity=95 time=0
EXTRACT: note_off channel=9 note=42 velocity=95 time=0
EXTRACT: note_off channel=9 note=40 velocity=95 time=0
EXTRACT: note_on channel=9 note=42 velocity=95 time=0
EXTRACT: note_off channel=0 note=73 velocity=95 time=0.1666665
EXTRACT: note_off channel=0 note=68 velocity=95 time=0
EXTRACT: note_off channel=0 note=64 velocity=95 time=0
EXTRACT: note_off channel=0 note=61 velocity=95 time=0
EXTRACT: note_on channel=0 note=71 velocity=95 time=0
EXTRACT: note_on channel=0 note=66 velocity=95 time=0
EXTRACT: note_on channel=0 note=63 velocity=95 time=0
EXTRACT: note_on channel=0 note=59 velocity=95 time=0
EXTRACT: note_off channel=2 note=37 velocity=95 time=0
EXTRACT: note_on channel=2 note=61 velocity=95 time=0
EXTRACT: note_on channel=2 note=59 velocity=95 time=0
EXTRACT: note_off channel=12 note=33 velocity=95 time=0
EXTRACT: note_on channel=12 note=37 velocity=95 time=0
EXTRACT: note_off channel=9 note=42 velocity=95 time=0
EXTRACT: note_on channel=9 note=42 velocity=95 time=0
EXTRACT: note_on channel=9 note=36 velocity=95 time=0
EXTRACT: note_off channel=0 note=71 velocity=95 time=0.1666665
EXTRACT: note_off channel=0 note=66 velocity=95 time=0
EXTRACT: note_off channel=0 note=63 velocity=95 time=0
EXTRACT: note_off channel=0 note=59 velocity=95 time=0
EXTRACT: note_on channel=0 note=71 velocity=95 time=0
EXTRACT: note_on channel=0 note=66 velocity=95 time=0
EXTRACT: note_on channel=0 note=63 velocity=95 time=0
EXTRACT: note_on channel=0 note=59 velocity=95 time=0
EXTRACT: note_off channel=2 note=61 velocity=95 time=0
EXTRACT: note_off channel=2 note=59 velocity=95 time=0
EXTRACT: note_on channel=2 note=61 velocity=95 time=0
EXTRACT: note_on channel=2 note=59 velocity=95 time=0
EXTRACT: note_off channel=6 note=68 velocity=95 time=0
EXTRACT: note_on channel=6 note=61 velocity=95 time=0
EXTRACT: note_off channel=9 note=42 velocity=95 time=0
EXTRACT: note_off channel=9 note=36 velocity=95 time=0
EXTRACT: note_off channel=0 note=71 velocity=95 time=0.1666665
EXTRACT: note_off channel=0 note=66 velocity=95 time=0
EXTRACT: note_off channel=0 note=63 velocity=95 time=0
EXTRACT: note_off channel=0 note=59 velocity=95 time=0
EXTRACT: note_off channel=2 note=61 velocity=95 time=0
EXTRACT: note_off channel=2 note=59 velocity=95 time=0
EXTRACT: note_on channel=2 note=61 velocity=95 time=0
EXTRACT: note_on channel=2 note=59 velocity=95 time=0
EXTRACT: note_on channel=14 note=80 velocity=95 time=0
EXTRACT: note_on channel=14 note=73 velocity=95 time=0
EXTRACT: note_on channel=9 note=42 velocity=95 time=0
EXTRACT: note_on channel=9 note=40 velocity=95 time=0
EXTRACT: note_on channel=0 note=71 velocity=95 time=0.1666665
EXTRACT: note_on channel=0 note=66 velocity=95 time=0
EXTRACT: note_on channel=0 note=63 velocity=95 time=0
EXTRACT: note_on channel=0 note=59 velocity=95 time=0
EXTRACT: note_off channel=2 note=61 velocity=95 time=0
EXTRACT: note_off channel=2 note=59 velocity=95 time=0
EXTRACT: note_on channel=2 note=61 velocity=95 time=0
EXTRACT: note_on channel=2 note=59 velocity=95 time=0
EXTRACT: note_off channel=6 note=61 velocity=95 time=0
EXTRACT: note_on channel=6 note=64 velocity=95 time=0
EXTRACT: note_off channel=12 note=37 velocity=95 time=0
EXTRACT: note_on channel=12 note=37 velocity=95 time=0
EXTRACT: note_off channel=14 note=80 velocity=95 time=0
EXTRACT: note_off channel=14 note=73 velocity=95 time=0
EXTRACT: note_on channel=14 note=79 velocity=95 time=0
EXTRACT: note_on channel=14 note=72 velocity=95 time=0
EXTRACT: note_off channel=9 note=42 velocity=95 time=0
EXTRACT: note_off channel=9 note=40 velocity=95 time=0
EXTRACT: note_on channel=9 note=42 velocity=95 time=0
EXTRACT: note_off channel=0 note=71 velocity=95 time=0.1666665
EXTRACT: note_off channel=0 note=66 velocity=95 time=0
EXTRACT: note_off channel=0 note=63 velocity=95 time=0
EXTRACT: note_off channel=0 note=59 velocity=95 time=0
EXTRACT: note_off channel=2 note=61 velocity=95 time=0
EXTRACT: note_off channel=2 note=59 velocity=95 time=0
EXTRACT: note_on channel=2 note=59 velocity=95 time=0
EXTRACT: note_off channel=12 note=37 velocity=95 time=0
EXTRACT: note_on channel=12 note=32 velocity=95 time=0
EXTRACT: note_off channel=14 note=79 velocity=95 time=0
EXTRACT: note_off channel=14 note=72 velocity=95 time=0
EXTRACT: note_on channel=14 note=80 velocity=95 time=0
EXTRACT: note_on channel=14 note=73 velocity=95 time=0
EXTRACT: note_off channel=9 note=42 velocity=95 time=0
EXTRACT: note_on channel=9 note=42 velocity=95 time=0
EXTRACT: note_on channel=0 note=71 velocity=95 time=0.1666665
EXTRACT: note_on channel=0 note=66 velocity=95 time=0
EXTRACT: note_on channel=0 note=63 velocity=95 time=0
EXTRACT: note_on channel=0 note=59 velocity=95 time=0
EXTRACT: note_off channel=2 note=59 velocity=95 time=0
EXTRACT: note_on channel=2 note=56 velocity=70 time=0
EXTRACT: note_off channel=6 note=64 velocity=95 time=0
EXTRACT: note_on channel=6 note=66 velocity=95 time=0
EXTRACT: note_off channel=14 note=80 velocity=95 time=0
EXTRACT: note_off channel=14 note=73 velocity=95 time=0
EXTRACT: note_on channel=14 note=79 velocity=95 time=0
EXTRACT: note_on channel=14 note=72 velocity=95 time=0
EXTRACT: note_off channel=9 note=42 velocity=95 time=0
EXTRACT: note_on channel=9 note=36 velocity=95 time=0
EXTRACT: note_off channel=0 note=71 velocity=95 time=0.1666665
EXTRACT: note_off channel=0 note=66 velocity=95 time=0
EXTRACT: note_off channel=0 note=63 velocity=95 time=0
EXTRACT: note_off channel=0 note=59 velocity=95 time=0
EXTRACT: note_off channel=2 note=56 velocity=70 time=0
EXTRACT: note_on channel=2 note=59 velocity=95 time=0
EXTRACT: note_off channel=12 note=32 velocity=95 time=0
EXTRACT: note_on channel=12 note=35 velocity=95 time=0
EXTRACT: note_off channel=14 note=79 velocity=95 time=0
EXTRACT: note_off channel=14 note=72 velocity=95 time=0
EXTRACT: note_on channel=14 note=80 velocity=95 time=0
EXTRACT: note_on channel=14 note=73 velocity=95 time=0
EXTRACT: note_off channel=9 note=36 velocity=95 time=0
EXTRACT: note_on channel=9 note=42 velocity=95 time=0
EXTRACT: note_on channel=9 note=40 velocity=95 time=0
EXTRACT: note_off channel=6 note=66 velocity=95 time=0.1041665625
EXTRACT: note_on channel=0 note=73 velocity=95 time=0.062499937500000005
EXTRACT: note_on channel=0 note=68 velocity=95 time=0
EXTRACT: note_on channel=0 note=64 velocity=95 time=0
EXTRACT: note_on channel=0 note=61 velocity=95 time=0
EXTRACT: note_off channel=2 note=59 velocity=95 time=0
EXTRACT: note_on channel=3 note=61 velocity=95 time=0
EXTRACT: note_off channel=12 note=35 velocity=95 time=0
EXTRACT: note_on channel=12 note=35 velocity=95 time=0
EXTRACT: note_off channel=14 note=80 velocity=95 time=0
EXTRACT: note_off channel=14 note=73 velocity=95 time=0
EXTRACT: note_on channel=14 note=79 velocity=95 time=0
EXTRACT: note_on channel=14 note=72 velocity=95 time=0
EXTRACT: note_off channel=9 note=42 velocity=95 time=0
EXTRACT: note_off channel=9 note=40 velocity=95 time=0
EXTRACT: note_on channel=9 note=42 velocity=95 time=0
EXTRACT: pitchwheel channel=3 pitch=0 time=0.0555555
EXTRACT: pitchwheel channel=3 pitch=128 time=0.0555555
EXTRACT: note_off channel=0 note=73 velocity=95 time=0.0555555
EXTRACT: note_off channel=0 note=68 velocity=95 time=0
EXTRACT: note_off channel=0 note=64 velocity=95 time=0
EXTRACT: note_off channel=0 note=61 velocity=95 time=0
EXTRACT: pitchwheel channel=3 pitch=0 time=0
EXTRACT: note_on channel=6 note=66 velocity=95 time=0
EXTRACT: note_off channel=12 note=35 velocity=95 time=0
EXTRACT: note_on channel=12 note=35 velocity=95 time=0
EXTRACT: note_off channel=14 note=79 velocity=95 time=0
EXTRACT: note_off channel=14 note=72 velocity=95 time=0
EXTRACT: note_on channel=14 note=80 velocity=95 time=0
EXTRACT: note_on channel=14 note=73 velocity=95 time=0
EXTRACT: note_off channel=9 note=42 velocity=95 time=0
EXTRACT: note_on channel=9 note=42 velocity=95 time=0
EXTRACT: note_on channel=9 note=36 velocity=95 time=0
EXTRACT: pitchwheel channel=3 pitch=128 time=0.0555555
EXTRACT: pitchwheel channel=3 pitch=0 time=0.0555555
EXTRACT: note_on channel=0 note=73 velocity=95 time=0.0555555
EXTRACT: note_on channel=0 note=68 velocity=95 time=0
EXTRACT: note_on channel=0 note=64 velocity=95 time=0
EXTRACT: note_on channel=0 note=61 velocity=95 time=0
EXTRACT: pitchwheel channel=3 pitch=128 time=0
EXTRACT: pitchwheel channel=3 pitch=0 time=0
EXTRACT: note_off channel=3 note=61 velocity=95 time=0
EXTRACT: note_on channel=2 note=42 velocity=95 time=0
EXTRACT: note_off channel=6 note=66 velocity=95 time=0
EXTRACT: note_on channel=6 note=66 velocity=95 time=0
EXTRACT: note_off channel=14 note=80 velocity=95 time=0
EXTRACT: note_off channel=14 note=73 velocity=95 time=0
EXTRACT: note_off channel=9 note=42 velocity=95 time=0
EXTRACT: note_off channel=9 note=36 velocity=95 time=0
EXTRACT: note_off channel=0 note=73 velocity=95 time=0.1666665
EXTRACT: note_off channel=0 note=68 velocity=95 time=0
EXTRACT: note_off channel=0 note=64 velocity=95 time=0
EXTRACT: note_off channel=0 note=61 velocity=95 time=0
EXTRACT: note_off channel=2 note=42 velocity=95 time=0
EXTRACT: note_on channel=2 note=49 velocity=95 time=0
EXTRACT: note_off channel=6 note=66 velocity=95 time=0
EXTRACT: note_on channel=6 note=66 velocity=95 time=0
EXTRACT: note_off channel=12 note=35 velocity=95 time=0
EXTRACT: note_on channel=9 note=42 velocity=95 time=0
EXTRACT: note_on channel=9 note=40 velocity=95 time=0
EXTRACT: note_on channel=0 note=73 velocity=95 time=0.1666665
EXTRACT: note_on channel=0 note=68 velocity=95 time=0
EXTRACT: note_on channel=0 note=64 velocity=95 time=0
EXTRACT: note_on channel=0 note=61 velocity=95 time=0
EXTRACT: note_off channel=2 note=49 velocity=95 time=0
EXTRACT: note_on channel=2 note=52 velocity=95 time=0
EXTRACT: note_off channel=6 note=66 velocity=95 time=0
EXTRACT: note_on channel=6 note=66 velocity=95 time=0
EXTRACT: note_on channel=12 note=30 velocity=95 time=0
EXTRACT: note_off channel=9 note=42 velocity=95 time=0
EXTRACT: note_off channel=9 note=40 velocity=95 time=0
EXTRACT: note_on channel=9 note=42 velocity=95 time=0
EXTRACT: note_off channel=0 note=73 velocity=95 time=0.1666665
EXTRACT: note_off channel=0 note=68 velocity=95 time=0
EXTRACT: note_off channel=0 note=64 velocity=95 time=0
EXTRACT: note_off channel=0 note=61 velocity=95 time=0
EXTRACT: note_off channel=2 note=52 velocity=95 time=0
EXTRACT: pitchwheel channel=3 pitch=0 time=0
EXTRACT: note_on channel=3 note=54 velocity=95 time=0
EXTRACT: note_off channel=6 note=66 velocity=95 time=0
EXTRACT: note_on channel=6 note=66 velocity=95 time=0
EXTRACT: note_off channel=12 note=30 velocity=95 time=0
EXTRACT: note_on channel=12 note=30 velocity=95 time=0
EXTRACT: note_off channel=9 note=42 velocity=95 time=0
EXTRACT: note_on channel=9 note=42 velocity=95 time=0
EXTRACT: note_on channel=9 note=36 velocity=95 time=0
EXTRACT: pitchwheel channel=3 pitch=128 time=0.0072916593750000005
EXTRACT: pitchwheel channel=3 pitch=256 time=0.0072916593750000005
EXTRACT: pitchwheel channel=3 pitch=384 time=0.0072916593750000005
EXTRACT: pitchwheel channel=3 pitch=512 time=0.0072916593750000005
EXTRACT: pitchwheel channel=3 pitch=640 time=0.0072916593750000005
EXTRACT: pitchwheel channel=3 pitch=768 time=0.0072916593750000005
EXTRACT: pitchwheel channel=3 pitch=896 time=0.0072916593750000005
EXTRACT: pitchwheel channel=3 pitch=1024 time=0.0072916593750000005
EXTRACT: pitchwheel channel=3 pitch=1152 time=0.0072916593750000005
EXTRACT: pitchwheel channel=3 pitch=1280 time=0.0072916593750000005
EXTRACT: pitchwheel channel=3 pitch=1408 time=0.0072916593750000005
EXTRACT: pitchwheel channel=3 pitch=1408 time=0.003124996875
EXTRACT: note_on channel=0 note=73 velocity=95 time=0.08333325
EXTRACT: note_on channel=0 note=68 velocity=95 time=0
EXTRACT: note_on channel=0 note=64 velocity=95 time=0
EXTRACT: note_on channel=0 note=61 velocity=95 time=0
EXTRACT: pitchwheel channel=3 pitch=1408 time=0
EXTRACT: note_off channel=6 note=66 velocity=95 time=0
EXTRACT: note_on channel=6 note=66 velocity=95 time=0
EXTRACT: note_off channel=9 note=42 velocity=95 time=0
EXTRACT: note_off channel=9 note=36 velocity=95 time=0
EXTRACT: pitchwheel channel=3 pitch=1280 time=0.0072916593750000005
EXTRACT: pitchwheel channel=3 pitch=1152 time=0.0072916593750000005
EXTRACT: pitchwheel channel=3 pitch=1024 time=0.0072916593750000005
EXTRACT: pitchwheel channel=3 pitch=896 time=0.0072916593750000005
EXTRACT: pitchwheel channel=3 pitch=768 time=0.0072916593750000005
EXTRACT: pitchwheel channel=3 pitch=640 time=0.0072916593750000005
EXTRACT: pitchwheel channel=3 pitch=512 time=0.0072916593750000005
EXTRACT: pitchwheel channel=3 pitch=384 time=0.0072916593750000005
EXTRACT: pitchwheel channel=3 pitch=256 time=0.0072916593750000005
EXTRACT: pitchwheel channel=3 pitch=128 time=0.0072916593750000005
EXTRACT: pitchwheel channel=3 pitch=0 time=0.0072916593750000005
EXTRACT: pitchwheel channel=3 pitch=0 time=0.003124996875
EXTRACT: note_off channel=0 note=73 velocity=95 time=0.08333325
EXTRACT: note_off channel=0 note=68 velocity=95 time=0
EXTRACT: note_off channel=0 note=64 velocity=95 time=0
EXTRACT: note_off channel=0 note=61 velocity=95 time=0
EXTRACT: pitchwheel channel=3 pitch=0 time=0
EXTRACT: pitchwheel channel=3 pitch=0 time=0
EXTRACT: note_off channel=3 note=54 velocity=95 time=0
EXTRACT: note_on channel=2 note=52 velocity=95 time=0
EXTRACT: note_off channel=6 note=66 velocity=95 time=0
EXTRACT: note_on channel=6 note=67 velocity=95 time=0
EXTRACT: note_off channel=12 note=30 velocity=95 time=0
EXTRACT: note_on channel=12 note=33 velocity=95 time=0
EXTRACT: note_on channel=9 note=42 velocity=95 time=0
EXTRACT: note_on channel=9 note=40 velocity=95 time=0
EXTRACT: note_on channel=0 note=73 velocity=95 time=0.1666665
EXTRACT: note_on channel=0 note=68 velocity=95 time=0
EXTRACT: note_on channel=0 note=64 velocity=95 time=0
EXTRACT: note_on channel=0 note=61 velocity=95 time=0
EXTRACT: note_off channel=2 note=52 velocity=95 time=0
EXTRACT: note_on channel=2 note=49 velocity=95 time=0
EXTRACT: note_off channel=6 note=67 velocity=95 time=0
EXTRACT: note_on channel=6 note=68 velocity=95 time=0
EXTRACT: note_off channel=9 note=42 velocity=95 time=0
EXTRACT: note_off channel=9 note=40 velocity=95 time=0
EXTRACT: note_on channel=9 note=42 velocity=95 time=0
EXTRACT: note_off channel=0 note=73 velocity=95 time=0.1666665
EXTRACT: note_off channel=0 note=68 velocity=95 time=0
EXTRACT: note_off channel=0 note=64 velocity=95 time=0
EXTRACT: note_off channel=0 note=61 velocity=95 time=0
EXTRACT: note_on channel=0 note=71 velocity=95 time=0
EXTRACT: note_on channel=0 note=66 velocity=95 time=0
EXTRACT: note_on channel=0 note=63 velocity=95 time=0
EXTRACT: note_on channel=0 note=59 velocity=95 time=0
EXTRACT: note_off channel=2 note=49 velocity=95 time=0
EXTRACT: note_on channel=2 note=61 velocity=95 time=0
EXTRACT: note_on channel=2 note=59 velocity=95 time=0
EXTRACT: note_off channel=12 note=33 velocity=95 time=0
EXTRACT: note_on channel=12 note=37 velocity=95 time=0
EXTRACT: note_off channel=9 note=42 velocity=95 time=0
EXTRACT: note_on channel=9 note=42 velocity=95 time=0
EXTRACT: note_on channel=9 note=36 velocity=95 time=0
EXTRACT: note_off channel=0 note=71 velocity=95 time=0.1666665
EXTRACT: note_off channel=0 note=66 velocity=95 time=0
EXTRACT: note_off channel=0 note=63 velocity=95 time=0
EXTRACT: note_off channel=0 note=59 velocity=95 time=0
EXTRACT: note_off channel=2 note=61 velocity=95 time=0
EXTRACT: note_off channel=2 note=59 velocity=95 time=0
EXTRACT: note_on channel=2 note=61 velocity=95 time=0
EXTRACT: note_on channel=2 note=59 velocity=95 time=0
EXTRACT: note_off channel=6 note=68 velocity=95 time=0
EXTRACT: note_on channel=6 note=61 velocity=95 time=0
EXTRACT: note_off channel=9 note=42 velocity=95 time=0
EXTRACT: note_off channel=9 note=36 velocity=95 time=0
EXTRACT: note_on channel=0 note=56 velocity=95 time=0.1666665
EXTRACT: note_on channel=0 note=52 velocity=95 time=0
EXTRACT: note_on channel=0 note=47 velocity=95 time=0
EXTRACT: note_off channel=2 note=61 velocity=95 time=0
EXTRACT: note_off channel=2 note=59 velocity=95 time=0
EXTRACT: note_on channel=2 note=61 velocity=95 time=0
EXTRACT: note_on channel=2 note=59 velocity=95 time=0
EXTRACT: note_on channel=9 note=42 velocity=95 time=0
EXTRACT: note_on channel=9 note=40 velocity=95 time=0
EXTRACT: note_off channel=0 note=56 velocity=95 time=0.031249968750000003
EXTRACT: note_off channel=0 note=52 velocity=95 time=0
EXTRACT: note_off channel=0 note=47 velocity=95 time=0
EXTRACT: note_on channel=0 note=71 velocity=95 time=0.13541653125
EXTRACT: note_on channel=0 note=66 velocity=95 time=0
EXTRACT: note_on channel=0 note=63 velocity=95 time=0
EXTRACT: note_on channel=0 note=59 velocity=95 time=0
EXTRACT: note_off channel=2 note=61 velocity=95 time=0
EXTRACT: note_off channel=2 note=59 velocity=95 time=0
EXTRACT: note_on channel=2 note=61 velocity=95 time=0
EXTRACT: note_on channel=2 note=59 velocity=95 time=0
EXTRACT: note_off channel=6 note=61 velocity=95 time=0
EXTRACT: note_on channel=6 note=64 velocity=95 time=0
EXTRACT: note_off channel=12 note=37 velocity=95 time=0
EXTRACT: note_on channel=12 note=37 velocity=95 time=0
EXTRACT: note_off channel=9 note=42 velocity=95 time=0
EXTRACT: note_off channel=9 note=40 velocity=95 time=0
EXTRACT: note_on channel=9 note=42 velocity=95 time=0
EXTRACT: note_off channel=0 note=71 velocity=95 time=0.1666665
EXTRACT: note_off channel=0 note=66 velocity=95 time=0
EXTRACT: note_off channel=0 note=63 velocity=95 time=0
EXTRACT: note_off channel=0 note=59 velocity=95 time=0
EXTRACT: note_on channel=0 note=71 velocity=95 time=0
EXTRACT: note_on channel=0 note=66 velocity=95 time=0
EXTRACT: note_on channel=0 note=63 velocity=95 time=0
EXTRACT: note_on channel=0 note=59 velocity=95 time=0
EXTRACT: note_off channel=2 note=61 velocity=95 time=0
EXTRACT: note_off channel=2 note=59 velocity=95 time=0
EXTRACT: note_on channel=2 note=61 velocity=95 time=0
EXTRACT: note_on channel=2 note=59 velocity=95 time=0
EXTRACT: note_off channel=12 note=37 velocity=95 time=0
EXTRACT: note_on channel=12 note=32 velocity=95 time=0
EXTRACT: note_off channel=9 note=42 velocity=95 time=0
EXTRACT: note_on channel=9 note=42 velocity=95 time=0
EXTRACT: note_off channel=0 note=71 velocity=95 time=0.1666665
EXTRACT: note_off channel=0 note=66 velocity=95 time=0
EXTRACT: note_off channel=0 note=63 velocity=95 time=0
EXTRACT: note_off channel=0 note=59 velocity=95 time=0
EXTRACT: note_on channel=0 note=71 velocity=95 time=0
EXTRACT: note_on channel=0 note=66 velocity=95 time=0
EXTRACT: note_on channel=0 note=63 velocity=95 time=0
EXTRACT: note_on channel=0 note=59 velocity=95 time=0
EXTRACT: note_off channel=6 note=64 velocity=95 time=0
EXTRACT: note_on channel=6 note=66 velocity=95 time=0
EXTRACT: note_off channel=9 note=42 velocity=95 time=0
EXTRACT: note_on channel=9 note=36 velocity=95 time=0
EXTRACT: note_off channel=0 note=71 velocity=95 time=0.1666665
EXTRACT: note_off channel=0 note=66 velocity=95 time=0
EXTRACT: note_off channel=0 note=63 velocity=95 time=0
EXTRACT: note_off channel=0 note=59 velocity=95 time=0
EXTRACT: note_on channel=0 note=56 velocity=95 time=0
EXTRACT: note_on channel=0 note=52 velocity=95 time=0
EXTRACT: note_on channel=0 note=47 velocity=95 time=0
EXTRACT: note_off channel=2 note=61 velocity=95 time=0
EXTRACT: note_off channel=2 note=59 velocity=95 time=0
EXTRACT: pitchwheel channel=3 pitch=0 time=0
EXTRACT: note_on channel=3 note=40 velocity=95 time=0
EXTRACT: note_off channel=12 note=32 velocity=95 time=0
EXTRACT: note_on channel=12 note=35 velocity=95 time=0
EXTRACT: note_off channel=9 note=36 velocity=95 time=0
EXTRACT: note_on channel=9 note=42 velocity=95 time=0
EXTRACT: note_on channel=9 note=40 velocity=95 time=0
EXTRACT: note_off channel=0 note=56 velocity=95 time=0.031249968750000003
EXTRACT: note_off channel=0 note=52 velocity=95 time=0
EXTRACT: note_off channel=0 note=47 velocity=95 time=0
EXTRACT: pitchwheel channel=3 pitch=128 time=0.01041665625
EXTRACT: pitchwheel channel=3 pitch=256 time=0.041666625
EXTRACT: pitchwheel channel=3 pitch=256 time=0
EXTRACT: note_off channel=6 note=66 velocity=95 time=0.0208333125
EXTRACT: note_on channel=0 note=73 velocity=95 time=0.062499937500000005
EXTRACT: note_on channel=0 note=68 velocity=95 time=0
EXTRACT: note_on channel=0 note=64 velocity=95 time=0
EXTRACT: note_on channel=0 note=61 velocity=95 time=0
EXTRACT: pitchwheel channel=3 pitch=256 time=0
EXTRACT: pitchwheel channel=3 pitch=0 time=0
EXTRACT: note_off channel=3 note=40 velocity=95 time=0
EXTRACT: note_on channel=2 note=37 velocity=95 time=0
EXTRACT: note_off channel=12 note=35 velocity=95 time=0
EXTRACT: note_on channel=12 note=35 velocity=95 time=0
EXTRACT: note_off channel=9 note=42 velocity=95 time=0
EXTRACT: note_off channel=9 note=40 velocity=95 time=0
EXTRACT: note_on channel=9 note=42 velocity=95 time=0
EXTRACT: note_off channel=0 note=73 velocity=95 time=0.1666665
EXTRACT: note_off channel=0 note=68 velocity=95 time=0
EXTRACT: note_off channel=0 note=64 velocity=95 time=0
EXTRACT: note_off channel=0 note=61 velocity=95 time=0
EXTRACT: note_on channel=6 note=66 velocity=95 time=0
EXTRACT: note_off channel=12 note=35 velocity=95 time=0
EXTRACT: note_on channel=12 note=35 velocity=95 time=0
EXTRACT: note_off channel=9 note=42 velocity=95 time=0
EXTRACT: note_on channel=9 note=42 velocity=95 time=0
EXTRACT: note_on channel=9 note=36 velocity=95 time=0
EXTRACT: note_on channel=0 note=73 velocity=95 time=0.1666665
EXTRACT: note_on channel=0 note=68 velocity=95 time=0
EXTRACT: note_on channel=0 note=64 velocity=95 time=0
EXTRACT: note_on channel=0 note=61 velocity=95 time=0
EXTRACT: note_off channel=2 note=37 velocity=95 time=0
EXTRACT: note_on channel=2 note=42 velocity=95 time=0
EXTRACT: note_off channel=6 note=66 velocity=95 time=0
EXTRACT: note_on channel=6 note=66 velocity=95 time=0
EXTRACT: note_off channel=9 note=42 velocity=95 time=0
EXTRACT: note_off channel=9 note=36 velocity=95 time=0
EXTRACT: note_off channel=0 note=73 velocity=95 time=0.1666665
EXTRACT: note_off channel=0 note=68 velocity=95 time=0
EXTRACT: note_off channel=0 note=64 velocity=95 time=0
EXTRACT: note_off channel=0 note=61 velocity=95 time=0
EXTRACT: note_off channel=2 note=42 velocity=95 time=0
EXTRACT: note_on channel=2 note=49 velocity=95 time=0
EXTRACT: note_off channel=6 note=66 velocity=95 time=0
EXTRACT: note_on channel=6 note=66 velocity=95 time=0
EXTRACT: note_off channel=12 note=35 velocity=95 time=0
EXTRACT: note_on channel=14 note=80 velocity=95 time=0
EXTRACT: note_on channel=14 note=73 velocity=95 time=0
EXTRACT: note_on channel=9 note=42 velocity=95 time=0
EXTRACT: note_on channel=9 note=40 velocity=95 time=0
EXTRACT: note_on channel=0 note=73 velocity=95 time=0.1666665
EXTRACT: note_on channel=0 note=68 velocity=95 time=0
EXTRACT: note_on channel=0 note=64 velocity=95 time=0
EXTRACT: note_on channel=0 note=61 velocity=95 time=0
EXTRACT: note_off channel=2 note=49 velocity=95 time=0
EXTRACT: note_on channel=2 note=52 velocity=95 time=0
EXTRACT: note_off channel=6 note=66 velocity=95 time=0
EXTRACT: note_on channel=6 note=66 velocity=95 time=0
EXTRACT: note_on channel=12 note=30 velocity=95 time=0
EXTRACT: note_off channel=14 note=80 velocity=95 time=0
EXTRACT: note_off channel=14 note=73 velocity=95 time=0
EXTRACT: note_on channel=14 note=79 velocity=95 time=0
EXTRACT: note_on channel=14 note=72 velocity=95 time=0
EXTRACT: note_off channel=9 note=42 velocity=95 time=0
EXTRACT: note_off channel=9 note=40 velocity=95 time=0
EXTRACT: note_on channel=9 note=42 velocity=95 time=0
EXTRACT: note_off channel=0 note=73 velocity=95 time=0.1666665
EXTRACT: note_off channel=0 note=68 velocity=95 time=0
EXTRACT: note_off channel=0 note=64 velocity=95 time=0
EXTRACT: note_off channel=0 note=61 velocity=95 time=0
EXTRACT: note_off channel=2 note=52 velocity=95 time=0
EXTRACT: pitchwheel channel=3 pitch=0 time=0
EXTRACT: note_on channel=3 note=54 velocity=95 time=0
EXTRACT: note_off channel=6 note=66 velocity=95 time=0
EXTRACT: note_on channel=6 note=66 velocity=95 time=0
EXTRACT: note_off channel=12 note=30 velocity=95 time=0
EXTRACT: note_on channel=12 note=30 velocity=95 time=0
EXTRACT: note_off channel=14 note=79 velocity=95 time=0
EXTRACT: note_off channel=14 note=72 velocity=95 time=0
EXTRACT: note_on channel=14 note=80 velocity=95 time=0
EXTRACT: note_on channel=14 note=73 velocity=95 time=0
EXTRACT: note_off channel=9 note=42 velocity=95 time=0
EXTRACT: note_on channel=9 note=42 velocity=95 time=0
EXTRACT: note_on channel=9 note=36 velocity=95 time=0
EXTRACT: pitchwheel channel=3 pitch=128 time=0.0072916593750000005
EXTRACT: pitchwheel channel=3 pitch=256 time=0.0072916593750000005
EXTRACT: pitchwheel channel=3 pitch=384 time=0.0072916593750000005
EXTRACT: pitchwheel channel=3 pitch=512 time=0.0072916593750000005
EXTRACT: pitchwheel channel=3 pitch=640 time=0.0072916593750000005
EXTRACT: pitchwheel channel=3 pitch=768 time=0.0072916593750000005
EXTRACT: pitchwheel channel=3 pitch=896 time=0.0072916593750000005
EXTRACT: pitchwheel channel=3 pitch=1024 time=0.0072916593750000005
EXTRACT: pitchwheel channel=3 pitch=1152 time=0.0072916593750000005
EXTRACT: pitchwheel channel=3 pitch=1280 time=0.0072916593750000005
EXTRACT: pitchwheel channel=3 pitch=1408 time=0.0072916593750000005
EXTRACT: pitchwheel channel=3 pitch=1408 time=0.003124996875
EXTRACT: note_on channel=0 note=73 velocity=95 time=0.08333325
EXTRACT: note_on channel=0 note=68 velocity=95 time=0
EXTRACT: note_on channel=0 note=64 velocity=95 time=0
EXTRACT: note_on channel=0 note=61 velocity=95 time=0
EXTRACT: pitchwheel channel=3 pitch=1408 time=0
EXTRACT: note_off channel=6 note=66 velocity=95 time=0
EXTRACT: note_on channel=6 note=66 velocity=95 time=0
EXTRACT: note_off channel=14 note=80 velocity=95 time=0
EXTRACT: note_off channel=14 note=73 velocity=95 time=0
EXTRACT: note_on channel=14 note=79 velocity=95 time=0
EXTRACT: note_on channel=14 note=72 velocity=95 time=0
EXTRACT: note_off channel=9 note=42 velocity=95 time=0
EXTRACT: note_off channel=9 note=36 velocity=95 time=0
EXTRACT: pitchwheel channel=3 pitch=1280 time=0.0072916593750000005
EXTRACT: pitchwheel channel=3 pitch=1152 time=0.0072916593750000005
EXTRACT: pitchwheel channel=3 pitch=1024 time=0.0072916593750000005
EXTRACT: pitchwheel channel=3 pitch=896 time=0.0072916593750000005
EXTRACT: pitchwheel channel=3 pitch=768 time=0.0072916593750000005
EXTRACT: pitchwheel channel=3 pitch=640 time=0.0072916593750000005
EXTRACT: pitchwheel channel=3 pitch=512 time=0.0072916593750000005
EXTRACT: pitchwheel channel=3 pitch=384 time=0.0072916593750000005
EXTRACT: pitchwheel channel=3 pitch=256 time=0.0072916593750000005
EXTRACT: pitchwheel channel=3 pitch=128 time=0.0072916593750000005
EXTRACT: pitchwheel channel=3 pitch=0 time=0.0072916593750000005
EXTRACT: pitchwheel channel=3 pitch=0 time=0.003124996875
EXTRACT: note_off channel=0 note=73 velocity=95 time=0.08333325
EXTRACT: note_off channel=0 note=68 velocity=95 time=0
EXTRACT: note_off channel=0 note=64 velocity=95 time=0
EXTRACT: note_off channel=0 note=61 velocity=95 time=0
EXTRACT: pitchwheel channel=3 pitch=0 time=0
EXTRACT: pitchwheel channel=3 pitch=0 time=0
EXTRACT: note_off channel=3 note=54 velocity=95 time=0
EXTRACT: note_on channel=2 note=52 velocity=95 time=0
EXTRACT: note_off channel=6 note=66 velocity=95 time=0
EXTRACT: note_on channel=6 note=67 velocity=95 time=0
EXTRACT: note_off channel=12 note=30 velocity=95 time=0
EXTRACT: note_on channel=12 note=33 velocity=95 time=0
EXTRACT: note_off channel=14 note=79 velocity=95 time=0
EXTRACT: note_off channel=14 note=72 velocity=95 time=0
EXTRACT: note_on channel=14 note=80 velocity=95 time=0
EXTRACT: note_on channel=14 note=73 velocity=95 time=0
EXTRACT: note_on channel=9 note=42 velocity=95 time=0
EXTRACT: note_on channel=9 note=40 velocity=95 time=0
EXTRACT: note_on channel=0 note=73 velocity=95 time=0.1666665
EXTRACT: note_on channel=0 note=68 velocity=95 time=0
EXTRACT: note_on channel=0 note=64 velocity=95 time=0
EXTRACT: note_on channel=0 note=61 velocity=95 time=0
EXTRACT: note_off channel=2 note=52 velocity=95 time=0
EXTRACT: note_on channel=2 note=49 velocity=95 time=0
EXTRACT: note_off channel=6 note=67 velocity=95 time=0
EXTRACT: note_on channel=6 note=68 velocity=95 time=0
EXTRACT: note_off channel=14 note=80 velocity=95 time=0
EXTRACT: note_off channel=14 note=73 velocity=95 time=0
EXTRACT: note_on channel=14 note=79 velocity=95 time=0
EXTRACT: note_on channel=14 note=72 velocity=95 time=0
EXTRACT: note_off channel=9 note=42 velocity=95 time=0
EXTRACT: note_off channel=9 note=40 velocity=95 time=0
EXTRACT: note_on channel=9 note=42 velocity=95 time=0
EXTRACT: note_off channel=0 note=73 velocity=95 time=0.1666665
EXTRACT: note_off channel=0 note=68 velocity=95 time=0
EXTRACT: note_off channel=0 note=64 velocity=95 time=0
EXTRACT: note_off channel=0 note=61 velocity=95 time=0
EXTRACT: note_on channel=0 note=71 velocity=95 time=0
EXTRACT: note_on channel=0 note=66 velocity=95 time=0
EXTRACT: note_on channel=0 note=63 velocity=95 time=0
EXTRACT: note_on channel=0 note=59 velocity=95 time=0
EXTRACT: note_off channel=2 note=49 velocity=95 time=0
EXTRACT: note_on channel=2 note=61 velocity=95 time=0
EXTRACT: note_on channel=2 note=59 velocity=95 time=0
EXTRACT: note_off channel=12 note=33 velocity=95 time=0
EXTRACT: note_on channel=12 note=37 velocity=95 time=0
EXTRACT: note_off channel=14 note=79 velocity=95 time=0
EXTRACT: note_off channel=14 note=72 velocity=95 time=0
EXTRACT: note_on channel=14 note=80 velocity=95 time=0
EXTRACT: note_on channel=14 note=73 velocity=95 time=0
EXTRACT: note_off channel=9 note=42 velocity=95 time=0
EXTRACT: note_on channel=9 note=42 velocity=95 time=0
EXTRACT: note_on channel=9 note=36 velocity=95 time=0
EXTRACT: note_off channel=6 note=68 velocity=95 time=0.1041665625
EXTRACT: note_off channel=0 note=71 velocity=95 time=0.062499937500000005
EXTRACT: note_off channel=0 note=66 velocity=95 time=0
EXTRACT: note_off channel=0 note=63 velocity=95 time=0
EXTRACT: note_off channel=0 note=59 velocity=95 time=0
EXTRACT: note_on channel=0 note=71 velocity=95 time=0
EXTRACT: note_on channel=0 note=66 velocity=95 time=0
EXTRACT: note_on channel=0 note=63 velocity=95 time=0
EXTRACT: note_on channel=0 note=59 velocity=95 time=0
EXTRACT: note_off channel=2 note=61 velocity=95 time=0
EXTRACT: note_off channel=2 note=59 velocity=95 time=0
EXTRACT: note_on channel=2 note=61 velocity=95 time=0
EXTRACT: note_on channel=2 note=59 velocity=95 time=0
EXTRACT: note_off channel=14 note=80 velocity=95 time=0
EXTRACT: note_off channel=14 note=73 velocity=95 time=0
EXTRACT: note_off channel=9 note=42 velocity=95 time=0
EXTRACT: note_off channel=9 note=36 velocity=95 time=0
EXTRACT: note_off channel=0 note=71 velocity=95 time=0.1666665
EXTRACT: note_off channel=0 note=66 velocity=95 time=0
EXTRACT: note_off channel=0 note=63 velocity=95 time=0
EXTRACT: note_off channel=0 note=59 velocity=95 time=0
EXTRACT: note_off channel=2 note=61 velocity=95 time=0
EXTRACT: note_off channel=2 note=59 velocity=95 time=0
EXTRACT: note_on channel=2 note=61 velocity=95 time=0
EXTRACT: note_on channel=2 note=59 velocity=95 time=0
EXTRACT: note_on channel=9 note=42 velocity=95 time=0
EXTRACT: note_on channel=9 note=40 velocity=95 time=0
EXTRACT: note_on channel=0 note=71 velocity=95 time=0.1666665
EXTRACT: note_on channel=0 note=66 velocity=95 time=0
EXTRACT: note_on channel=0 note=63 velocity=95 time=0
EXTRACT: note_on channel=0 note=59 velocity=95 time=0
EXTRACT: note_off channel=2 note=61 velocity=95 time=0
EXTRACT: note_off channel=2 note=59 velocity=95 time=0
EXTRACT: note_on channel=2 note=61 velocity=95 time=0
EXTRACT: note_on channel=2 note=59 velocity=95 time=0
EXTRACT: note_off channel=12 note=37 velocity=95 time=0
EXTRACT: note_on channel=12 note=37 velocity=95 time=0
EXTRACT: note_off channel=9 note=42 velocity=95 time=0
EXTRACT: note_off channel=9 note=40 velocity=95 time=0
EXTRACT: note_on channel=9 note=42 velocity=95 time=0
EXTRACT: note_off channel=0 note=71 velocity=95 time=0.1666665
EXTRACT: note_off channel=0 note=66 velocity=95 time=0
EXTRACT: note_off channel=0 note=63 velocity=95 time=0
EXTRACT: note_off channel=0 note=59 velocity=95 time=0
EXTRACT: note_on channel=0 note=71 velocity=95 time=0
EXTRACT: note_on channel=0 note=66 velocity=95 time=0
EXTRACT: note_on channel=0 note=63 velocity=95 time=0
EXTRACT: note_on channel=0 note=59 velocity=95 time=0
EXTRACT: note_off channel=2 note=61 velocity=95 time=0
EXTRACT: note_off channel=2 note=59 velocity=95 time=0
EXTRACT: note_on channel=2 note=61 velocity=95 time=0
EXTRACT: note_on channel=2 note=59 velocity=95 time=0
EXTRACT: note_off channel=12 note=37 velocity=95 time=0
EXTRACT: note_on channel=12 note=32 velocity=95 time=0
EXTRACT: note_off channel=9 note=42 velocity=95 time=0
EXTRACT: note_on channel=9 note=42 velocity=95 time=0
EXTRACT: note_off channel=0 note=71 velocity=95 time=0.1666665
EXTRACT: note_off channel=0 note=66 velocity=95 time=0
EXTRACT: note_off channel=0 note=63 velocity=95 time=0
EXTRACT: note_off channel=0 note=59 velocity=95 time=0
EXTRACT: note_on channel=0 note=71 velocity=95 time=0
EXTRACT: note_on channel=0 note=66 velocity=95 time=0
EXTRACT: note_on channel=0 note=63 velocity=95 time=0
EXTRACT: note_on channel=0 note=59 velocity=95 time=0
EXTRACT: note_off channel=9 note=42 velocity=95 time=0
EXTRACT: note_on channel=9 note=36 velocity=95 time=0
EXTRACT: note_off channel=0 note=71 velocity=95 time=0.1666665
EXTRACT: note_off channel=0 note=66 velocity=95 time=0
EXTRACT: note_off channel=0 note=63 velocity=95 time=0
EXTRACT: note_off channel=0 note=59 velocity=95 time=0
EXTRACT: note_off channel=2 note=61 velocity=95 time=0
EXTRACT: note_off channel=2 note=59 velocity=95 time=0
EXTRACT: pitchwheel channel=3 pitch=0 time=0
EXTRACT: note_on channel=3 note=40 velocity=95 time=0
EXTRACT: note_off channel=12 note=32 velocity=95 time=0
EXTRACT: note_on channel=12 note=35 velocity=95 time=0
EXTRACT: note_off channel=9 note=36 velocity=95 time=0
EXTRACT: note_on channel=9 note=42 velocity=95 time=0
EXTRACT: note_on channel=9 note=40 velocity=95 time=0
EXTRACT: pitchwheel channel=3 pitch=128 time=0.041666625
EXTRACT: pitchwheel channel=3 pitch=256 time=0.041666625
EXTRACT: pitchwheel channel=3 pitch=256 time=0
EXTRACT: note_on channel=0 note=73 velocity=95 time=0.08333325
EXTRACT: note_on channel=0 note=68 velocity=95 time=0
EXTRACT: note_on channel=0 note=64 velocity=95 time=0
EXTRACT: note_on channel=0 note=61 velocity=95 time=0
EXTRACT: pitchwheel channel=3 pitch=256 time=0
EXTRACT: pitchwheel channel=3 pitch=0 time=0
EXTRACT: note_off channel=3 note=40 velocity=95 time=0
EXTRACT: note_on channel=2 note=37 velocity=95 time=0
EXTRACT: note_off channel=12 note=35 velocity=95 time=0
EXTRACT: note_on channel=12 note=37 velocity=95 time=0
EXTRACT: note_off channel=9 note=42 velocity=95 time=0
EXTRACT: note_off channel=9 note=40 velocity=95 time=0
EXTRACT: note_on channel=9 note=42 velocity=95 time=0
EXTRACT: note_off channel=0 note=73 velocity=95 time=0.1666665
EXTRACT: note_off channel=0 note=68 velocity=95 time=0
EXTRACT: note_off channel=0 note=64 velocity=95 time=0
EXTRACT: note_off channel=0 note=61 velocity=95 time=0
EXTRACT: note_off channel=2 note=37 velocity=95 time=0
EXTRACT: note_off channel=12 note=37 velocity=95 time=0
EXTRACT: note_off channel=9 note=42 velocity=95 time=0
