EXTRACT: program_change channel=0 program=75 time=0
EXTRACT: control_change channel=0 control=7 value=127 time=0
EXTRACT: control_change channel=0 control=10 value=64 time=0
EXTRACT: program_change channel=0 program=75 time=0
EXTRACT: control_change channel=0 control=7 value=127 time=0
EXTRACT: control_change channel=0 control=10 value=64 time=0
EXTRACT: program_change channel=1 program=0 time=0
EXTRACT: control_change channel=1 control=7 value=127 time=0
EXTRACT: control_change channel=1 control=10 value=64 time=0
EXTRACT: program_change channel=1 program=0 time=0
EXTRACT: control_change channel=1 control=7 value=127 time=0
EXTRACT: control_change channel=1 control=10 value=64 time=0
EXTRACT: program_change channel=1 program=0 time=0
EXTRACT: control_change channel=1 control=7 value=127 time=0
EXTRACT: control_change channel=1 control=10 value=64 time=0
EXTRACT: program_change channel=1 program=0 time=0
EXTRACT: control_change channel=1 control=7 value=127 time=0
EXTRACT: control_change channel=1 control=10 value=64 time=0
EXTRACT: program_change channel=2 program=43 time=0
EXTRACT: control_change channel=2 control=7 value=127 time=0
EXTRACT: control_change channel=2 control=10 value=64 time=0
EXTRACT: program_change channel=2 program=43 time=0
EXTRACT: control_change channel=2 control=7 value=127 time=0
EXTRACT: control_change channel=2 control=10 value=64 time=0
EXTRACT: program_change channel=2 program=43 time=0
EXTRACT: control_change channel=2 control=7 value=127 time=0
EXTRACT: control_change channel=2 control=10 value=64 time=0
EXTRACT: program_change channel=2 program=43 time=0
EXTRACT: control_change channel=2 control=7 value=127 time=0
EXTRACT: control_change channel=2 control=10 value=64 time=0
EXTRACT: program_change channel=3 program=48 time=0
EXTRACT: control_change channel=3 control=7 value=127 time=0
EXTRACT: control_change channel=3 control=10 value=64 time=0
EXTRACT: program_change channel=3 program=48 time=0
EXTRACT: control_change channel=3 control=7 value=127 time=0
EXTRACT: control_change channel=3 control=10 value=64 time=0
EXTRACT: program_change channel=4 program=4 time=0
EXTRACT: control_change channel=4 control=7 value=127 time=0
EXTRACT: control_change channel=4 control=10 value=64 time=0
EXTRACT: program_change channel=4 program=4 time=0
EXTRACT: control_change channel=4 control=7 value=127 time=0
EXTRACT: control_change channel=4 control=10 value=64 time=0
EXTRACT: program_change channel=4 program=4 time=0
EXTRACT: control_change channel=4 control=7 value=127 time=0
EXTRACT: control_change channel=4 control=10 value=64 time=0
EXTRACT: program_change channel=4 program=4 time=0
EXTRACT: control_change channel=4 control=7 value=127 time=0
EXTRACT: control_change channel=4 control=10 value=64 time=0
EXTRACT: program_change channel=5 program=1 time=0
EXTRACT: control_change channel=5 control=7 value=127 time=0
EXTRACT: control_change channel=5 control=10 value=64 time=0
EXTRACT: program_change channel=5 program=1 time=0
EXTRACT: control_change channel=5 control=7 value=127 time=0
EXTRACT: control_change channel=5 control=10 value=64 time=0
EXTRACT: program_change channel=5 program=1 time=0
EXTRACT: control_change channel=5 control=7 value=127 time=0
EXTRACT: control_change channel=5 control=10 value=64 time=0
EXTRACT: program_change channel=5 program=1 time=0
EXTRACT: control_change channel=5 control=7 value=127 time=0
EXTRACT: control_change channel=5 control=10 value=64 time=0
EXTRACT: program_change channel=6 program=38 time=0
EXTRACT: control_change channel=6 control=7 value=127 time=0
EXTRACT: control_change channel=6 control=10 value=64 time=0
EXTRACT: program_change channel=6 program=38 time=0
EXTRACT: control_change channel=6 control=7 value=127 time=0
EXTRACT: control_change channel=6 control=10 value=64 time=0
EXTRACT: program_change channel=7 program=78 time=0
EXTRACT: control_change channel=7 control=7 value=127 time=0
EXTRACT: control_change channel=7 control=10 value=64 time=0
EXTRACT: program_change channel=7 program=78 time=0
EXTRACT: control_change channel=7 control=7 value=127 time=0
EXTRACT: control_change channel=7 control=10 value=64 time=0
EXTRACT: program_change channel=8 program=7 time=0
EXTRACT: control_change channel=8 control=7 value=127 time=0
EXTRACT: control_change channel=8 control=10 value=64 time=0
EXTRACT: program_change channel=8 program=7 time=0
EXTRACT: control_change channel=8 control=7 value=127 time=0
EXTRACT: control_change channel=8 control=10 value=64 time=0
EXTRACT: control_change channel=9 control=7 value=127 time=0
EXTRACT: control_change channel=9 control=10 value=64 time=0
EXTRACT: control_change channel=9 control=7 value=127 time=0
EXTRACT: control_change channel=9 control=10 value=64 time=0
EXTRACT: control_change channel=9 control=7 value=127 time=0
EXTRACT: control_change channel=9 control=10 value=64 time=0
EXTRACT: control_change channel=9 control=7 value=127 time=0
EXTRACT: control_change channel=9 control=10 value=64 time=0
EXTRACT: program_change channel=10 program=49 time=0
EXTRACT: control_change channel=10 control=7 value=127 time=0
EXTRACT: control_change channel=10 control=10 value=64 time=0
EXTRACT: program_change channel=10 program=49 time=0
EXTRACT: control_change channel=10 control=7 value=127 time=0
EXTRACT: control_change channel=10 control=10 value=64 time=0
EXTRACT: program_change channel=10 program=49 time=0
EXTRACT: control_change channel=10 control=7 value=127 time=0
EXTRACT: control_change channel=10 control=10 value=64 time=0
EXTRACT: program_change channel=10 program=49 time=0
EXTRACT: control_change channel=10 control=7 value=127 time=0
EXTRACT: control_change channel=10 control=10 value=64 time=0
EXTRACT: program_change channel=11 program=25 time=0
EXTRACT: control_change channel=11 control=7 value=127 time=0
EXTRACT: control_change channel=11 control=10 value=64 time=0
EXTRACT: program_change channel=11 program=25 time=0
EXTRACT: control_change channel=11 control=7 value=127 time=0
EXTRACT: control_change channel=11 control=10 value=64 time=0
EXTRACT: program_change channel=12 program=52 time=0
EXTRACT: control_change channel=12 control=7 value=127 time=0
EXTRACT: control_change channel=12 control=10 value=64 time=0
EXTRACT: program_change channel=12 program=52 time=0
EXTRACT: control_change channel=12 control=7 value=127 time=0
EXTRACT: control_change channel=12 control=10 value=64 time=0
EXTRACT: program_change channel=13 program=120 time=0
EXTRACT: control_change channel=13 control=7 value=127 time=0
EXTRACT: control_change channel=13 control=10 value=64 time=0
EXTRACT: program_change channel=13 program=120 time=0
EXTRACT: control_change channel=13 control=7 value=127 time=0
EXTRACT: control_change channel=13 control=10 value=64 time=0
EXTRACT: program_change channel=14 program=127 time=0
EXTRACT: control_change channel=14 control=7 value=127 time=0
EXTRACT: control_change channel=14 control=10 value=64 time=0
EXTRACT: program_change channel=14 program=127 time=0
EXTRACT: control_change channel=14 control=7 value=127 time=0
EXTRACT: control_change channel=14 control=10 value=64 time=0
EXTRACT: program_change channel=15 program=39 time=0
EXTRACT: control_change channel=15 control=7 value=127 time=0
EXTRACT: control_change channel=15 control=10 value=64 time=0
EXTRACT: program_change channel=15 program=39 time=0
EXTRACT: control_change channel=15 control=7 value=127 time=0
EXTRACT: control_change channel=15 control=10 value=64 time=0
EXTRACT: control_change channel=0 control=7 value=127 time=0
EXTRACT: control_change channel=0 control=10 value=64 time=0
EXTRACT: control_change channel=0 control=7 value=127 time=0
EXTRACT: control_change channel=0 control=10 value=64 time=0
EXTRACT: note_on channel=1 note=55 velocity=92 time=2.666664
EXTRACT: note_on channel=1 note=58 velocity=92 time=0
EXTRACT: note_on channel=1 note=43 velocity=92 time=0
EXTRACT: note_on channel=2 note=50 velocity=92 time=0
EXTRACT: note_on channel=2 note=55 velocity=92 time=0
EXTRACT: note_on channel=1 note=55 velocity=0 time=1.1597210625
EXTRACT: note_on channel=1 note=58 velocity=0 time=0
EXTRACT: note_on channel=1 note=58 velocity=92 time=0.1736109375
EXTRACT: note_on channel=3 note=62 velocity=92 time=0
EXTRACT: note_on channel=3 note=70 velocity=92 time=0
EXTRACT: note_on channel=1 note=58 velocity=0 time=0.555555
EXTRACT: note_on channel=3 note=62 velocity=0 time=0
EXTRACT: note_on channel=3 note=70 velocity=0 time=0
EXTRACT: note_on channel=1 note=57 velocity=92 time=0.111111
EXTRACT: note_on channel=3 note=69 velocity=92 time=0
EXTRACT: note_on channel=1 note=43 velocity=0 time=0.4999995
EXTRACT: note_on channel=2 note=50 velocity=0 time=0
EXTRACT: note_on channel=2 note=55 velocity=0 time=0
EXTRACT: note_on channel=1 note=57 velocity=0 time=0.0555555
EXTRACT: note_on channel=3 note=69 velocity=0 time=0
EXTRACT: note_on channel=1 note=53 velocity=92 time=0.111111
EXTRACT: note_on channel=1 note=58 velocity=92 time=0
EXTRACT: note_on channel=1 note=46 velocity=92 time=0
EXTRACT: note_on channel=2 note=53 velocity=92 time=0
EXTRACT: note_on channel=2 note=58 velocity=92 time=0
EXTRACT: note_on channel=3 note=65 velocity=92 time=0
EXTRACT: note_on channel=1 note=53 velocity=0 time=2.4999975
EXTRACT: note_on channel=1 note=58 velocity=0 time=0
EXTRACT: note_on channel=1 note=46 velocity=0 time=0
EXTRACT: note_on channel=2 note=53 velocity=0 time=0
EXTRACT: note_on channel=2 note=58 velocity=0 time=0
EXTRACT: note_on channel=3 note=65 velocity=0 time=0
EXTRACT: note_on channel=1 note=55 velocity=92 time=0.1666665
EXTRACT: note_on channel=1 note=60 velocity=92 time=0
EXTRACT: note_on channel=1 note=48 velocity=92 time=0
EXTRACT: note_on channel=2 note=55 velocity=92 time=0
EXTRACT: note_on channel=2 note=60 velocity=92 time=0
EXTRACT: note_on channel=3 note=60 velocity=92 time=0
EXTRACT: note_on channel=3 note=67 velocity=92 time=0
EXTRACT: note_on channel=1 note=55 velocity=0 time=2.4999975
EXTRACT: note_on channel=1 note=60 velocity=0 time=0
EXTRACT: note_on channel=1 note=48 velocity=0 time=0
EXTRACT: note_on channel=2 note=55 velocity=0 time=0
EXTRACT: note_on channel=2 note=60 velocity=0 time=0
EXTRACT: note_on channel=3 note=60 velocity=0 time=0
EXTRACT: note_on channel=3 note=67 velocity=0 time=0
EXTRACT: note_on channel=1 note=58 velocity=92 time=0.1666665
EXTRACT: note_on channel=1 note=63 velocity=92 time=0
EXTRACT: note_on channel=1 note=51 velocity=92 time=0
EXTRACT: note_on channel=2 note=51 velocity=92 time=0
EXTRACT: note_on channel=2 note=58 velocity=92 time=0
EXTRACT: note_on channel=3 note=63 velocity=92 time=0
EXTRACT: note_on channel=3 note=70 velocity=92 time=0
EXTRACT: note_on channel=1 note=58 velocity=0 time=1.1666655
EXTRACT: note_on channel=1 note=63 velocity=0 time=0
EXTRACT: note_on channel=3 note=63 velocity=0 time=0
EXTRACT: note_on channel=3 note=70 velocity=0 time=0
EXTRACT: note_on channel=1 note=60 velocity=92 time=0.1666665
EXTRACT: note_on channel=3 note=72 velocity=92 time=0
EXTRACT: note_on channel=1 note=60 velocity=0 time=0.555555
EXTRACT: note_on channel=3 note=72 velocity=0 time=0
EXTRACT: note_on channel=1 note=62 velocity=92 time=0.111111
EXTRACT: note_on channel=3 note=74 velocity=92 time=0
EXTRACT: note_on channel=1 note=51 velocity=0 time=0.4999995
EXTRACT: note_on channel=2 note=51 velocity=0 time=0
EXTRACT: note_on channel=2 note=58 velocity=0 time=0
EXTRACT: note_on channel=1 note=62 velocity=0 time=0.0555555
EXTRACT: note_on channel=3 note=74 velocity=0 time=0
EXTRACT: note_on channel=1 note=53 velocity=92 time=0.111111
EXTRACT: note_on channel=1 note=58 velocity=92 time=0
EXTRACT: note_on channel=1 note=46 velocity=92 time=0
EXTRACT: note_on channel=2 note=58 velocity=92 time=0
EXTRACT: note_on channel=2 note=62 velocity=92 time=0
EXTRACT: note_on channel=3 note=65 velocity=92 time=0
EXTRACT: note_on channel=3 note=70 velocity=92 time=0
EXTRACT: note_on channel=9 note=82 velocity=92 time=0
EXTRACT: note_on channel=9 note=82 velocity=0 time=0.2013886875
EXTRACT: note_on channel=9 note=82 velocity=92 time=0.0069444375
EXTRACT: note_on channel=9 note=82 velocity=0 time=0.1180554375
EXTRACT: note_on channel=9 note=82 velocity=92 time=0.0069444375
EXTRACT: note_on channel=9 note=82 velocity=0 time=0.2013886875
EXTRACT: note_on channel=9 note=82 velocity=92 time=0.0069444375
EXTRACT: note_on channel=9 note=82 velocity=0 time=0.1180554375
EXTRACT: note_on channel=9 note=82 velocity=92 time=0.0069444375
EXTRACT: note_on channel=9 note=82 velocity=0 time=0.2013886875
EXTRACT: note_on channel=9 note=82 velocity=92 time=0.0069444375
EXTRACT: note_on channel=9 note=82 velocity=0 time=0.1180554375
EXTRACT: note_on channel=9 note=82 velocity=92 time=0.0069444375
EXTRACT: note_on channel=1 note=53 velocity=0 time=0.1666665
EXTRACT: note_on channel=1 note=58 velocity=0 time=0
EXTRACT: note_on channel=9 note=82 velocity=0 time=0.0347221875
EXTRACT: note_on channel=9 note=82 velocity=92 time=0.0069444375
EXTRACT: note_on channel=9 note=82 velocity=0 time=0.1180554375
EXTRACT: note_on channel=1 note=62 velocity=92 time=0.0069444375
EXTRACT: note_on channel=9 note=82 velocity=92 time=0.208333125
EXTRACT: note_on channel=9 note=82 velocity=0 time=0.0763888125
EXTRACT: note_on channel=9 note=82 velocity=92 time=0.2569441875
EXTRACT: note_on channel=1 note=62 velocity=0 time=0.013888875
EXTRACT: note_on channel=9 note=82 velocity=0 time=0.1041665625
EXTRACT: note_on channel=1 note=60 velocity=92 time=0.0069444375
EXTRACT: note_on channel=9 note=82 velocity=92 time=0
EXTRACT: note_on channel=9 note=82 velocity=0 time=0.2013886875
EXTRACT: note_on channel=9 note=82 velocity=92 time=0.0069444375
EXTRACT: note_on channel=9 note=82 velocity=0 time=0.1180554375
EXTRACT: note_on channel=9 note=82 velocity=92 time=0.0069444375
EXTRACT: note_on channel=1 note=46 velocity=0 time=0.1666665
EXTRACT: note_on channel=2 note=58 velocity=0 time=0
EXTRACT: note_on channel=2 note=62 velocity=0 time=0
EXTRACT: note_on channel=3 note=65 velocity=0 time=0
EXTRACT: note_on channel=3 note=70 velocity=0 time=0
EXTRACT: note_on channel=9 note=82 velocity=0 time=0.0347221875
EXTRACT: note_on channel=9 note=82 velocity=92 time=0.0069444375
EXTRACT: note_on channel=1 note=60 velocity=0 time=0.013888875
EXTRACT: note_on channel=9 note=82 velocity=0 time=0.1041665625
EXTRACT: note_on channel=1 note=53 velocity=92 time=0.0069444375
EXTRACT: note_on channel=1 note=57 velocity=92 time=0
EXTRACT: note_on channel=1 note=60 velocity=92 time=0
EXTRACT: note_on channel=1 note=65 velocity=92 time=0
EXTRACT: note_on channel=2 note=57 velocity=92 time=0
EXTRACT: note_on channel=3 note=69 velocity=92 time=0
EXTRACT: note_on channel=9 note=82 velocity=92 time=0
EXTRACT: note_on channel=9 note=82 velocity=0 time=0.2013886875
EXTRACT: note_on channel=9 note=82 velocity=92 time=0.0069444375
EXTRACT: note_on channel=9 note=82 velocity=0 time=0.1180554375
EXTRACT: note_on channel=9 note=82 velocity=92 time=0.0069444375
EXTRACT: note_on channel=9 note=82 velocity=0 time=0.2013886875
EXTRACT: note_on channel=9 note=82 velocity=92 time=0.0069444375
EXTRACT: note_on channel=9 note=82 velocity=0 time=0.1180554375
EXTRACT: note_on channel=9 note=82 velocity=92 time=0.0069444375
EXTRACT: note_on channel=14 note=96 velocity=92 time=0
EXTRACT: note_on channel=14 note=96 velocity=0 time=0.0347221875
EXTRACT: note_on channel=9 note=82 velocity=0 time=0.1666665
EXTRACT: note_on channel=9 note=82 velocity=92 time=0.0069444375
EXTRACT: note_on channel=9 note=82 velocity=0 time=0.1180554375
EXTRACT: note_on channel=9 note=82 velocity=92 time=0.0069444375
EXTRACT: note_on channel=9 note=82 velocity=0 time=0.2013886875
EXTRACT: note_on channel=9 note=82 velocity=92 time=0.0069444375
EXTRACT: note_on channel=9 note=82 velocity=0 time=0.1180554375
EXTRACT: note_on channel=9 note=82 velocity=92 time=0.2152775625
EXTRACT: note_on channel=9 note=82 velocity=0 time=0.0763888125
EXTRACT: note_on channel=9 note=82 velocity=92 time=0.2569441875
EXTRACT: note_on channel=9 note=82 velocity=0 time=0.1180554375
EXTRACT: note_on channel=9 note=82 velocity=92 time=0.0069444375
EXTRACT: note_on channel=9 note=82 velocity=0 time=0.2013886875
EXTRACT: note_on channel=9 note=82 velocity=92 time=0.0069444375
EXTRACT: note_on channel=9 note=82 velocity=0 time=0.1180554375
EXTRACT: note_on channel=9 note=82 velocity=92 time=0.0069444375
EXTRACT: note_on channel=1 note=53 velocity=0 time=0.1666665
EXTRACT: note_on channel=1 note=57 velocity=0 time=0
EXTRACT: note_on channel=1 note=60 velocity=0 time=0
EXTRACT: note_on channel=1 note=65 velocity=0 time=0
EXTRACT: note_on channel=2 note=57 velocity=0 time=0
EXTRACT: note_on channel=3 note=69 velocity=0 time=0
EXTRACT: note_on channel=9 note=82 velocity=0 time=0.0347221875
EXTRACT: note_on channel=9 note=82 velocity=92 time=0.0069444375
EXTRACT: note_on channel=9 note=82 velocity=0 time=0.1180554375
EXTRACT: note_on channel=1 note=52 velocity=92 time=0.0069444375
EXTRACT: note_on channel=1 note=55 velocity=92 time=0
EXTRACT: note_on channel=1 note=62 velocity=92 time=0
EXTRACT: note_on channel=1 note=48 velocity=92 time=0
EXTRACT: note_on channel=2 note=55 velocity=92 time=0
EXTRACT: note_on channel=3 note=64 velocity=92 time=0
EXTRACT: note_on channel=3 note=67 velocity=92 time=0
EXTRACT: note_on channel=9 note=82 velocity=92 time=0
EXTRACT: note_on channel=9 note=82 velocity=0 time=0.2013886875
EXTRACT: note_on channel=9 note=82 velocity=92 time=0.0069444375
EXTRACT: note_on channel=9 note=82 velocity=0 time=0.1180554375
EXTRACT: note_on channel=9 note=82 velocity=92 time=0.0069444375
EXTRACT: note_on channel=9 note=82 velocity=0 time=0.2013886875
EXTRACT: note_on channel=9 note=82 velocity=92 time=0.0069444375
EXTRACT: note_on channel=9 note=82 velocity=0 time=0.1180554375
EXTRACT: note_on channel=9 note=82 velocity=92 time=0.0069444375
EXTRACT: note_on channel=9 note=82 velocity=0 time=0.2013886875
EXTRACT: note_on channel=9 note=82 velocity=92 time=0.0069444375
EXTRACT: note_on channel=9 note=82 velocity=0 time=0.1180554375
EXTRACT: note_on channel=9 note=82 velocity=92 time=0.0069444375
EXTRACT: note_on channel=2 note=55 velocity=0 time=0.1666665
EXTRACT: note_on channel=3 note=64 velocity=0 time=0
EXTRACT: note_on channel=3 note=67 velocity=0 time=0
EXTRACT: note_on channel=9 note=82 velocity=0 time=0.0347221875
EXTRACT: note_on channel=9 note=82 velocity=92 time=0.0069444375
EXTRACT: note_on channel=9 note=82 velocity=0 time=0.1180554375
EXTRACT: note_on channel=2 note=60 velocity=92 time=0.0069444375
EXTRACT: note_on channel=3 note=72 velocity=92 time=0
EXTRACT: note_on channel=9 note=82 velocity=92 time=0.208333125
EXTRACT: note_on channel=9 note=82 velocity=0 time=0.0763888125
EXTRACT: note_on channel=9 note=82 velocity=92 time=0.2569441875
EXTRACT: note_on channel=9 note=82 velocity=0 time=0.1180554375
EXTRACT: note_on channel=9 note=82 velocity=92 time=0.0069444375
EXTRACT: note_on channel=9 note=82 velocity=0 time=0.2013886875
EXTRACT: note_on channel=9 note=82 velocity=92 time=0.0069444375
EXTRACT: note_on channel=9 note=82 velocity=0 time=0.1180554375
EXTRACT: note_on channel=9 note=82 velocity=92 time=0.0069444375
EXTRACT: note_on channel=1 note=52 velocity=0 time=0.1180554375
EXTRACT: note_on channel=1 note=55 velocity=0 time=0
EXTRACT: note_on channel=1 note=62 velocity=0 time=0
EXTRACT: note_on channel=1 note=48 velocity=0 time=0.0486110625
EXTRACT: note_on channel=2 note=60 velocity=0 time=0
EXTRACT: note_on channel=3 note=72 velocity=0 time=0
EXTRACT: note_on channel=9 note=82 velocity=0 time=0.0347221875
EXTRACT: note_on channel=9 note=82 velocity=92 time=0.0069444375
EXTRACT: note_on channel=9 note=82 velocity=0 time=0.1180554375
EXTRACT: note_on channel=1 note=55 velocity=92 time=0.0069444375
EXTRACT: note_on channel=1 note=58 velocity=92 time=0
EXTRACT: note_on channel=1 note=51 velocity=92 time=0
EXTRACT: note_on channel=2 note=51 velocity=92 time=0
EXTRACT: note_on channel=3 note=63 velocity=92 time=0
EXTRACT: note_on channel=3 note=70 velocity=92 time=0
EXTRACT: note_on channel=9 note=82 velocity=92 time=0
EXTRACT: note_on channel=9 note=82 velocity=0 time=0.2013886875
EXTRACT: note_on channel=9 note=82 velocity=92 time=0.0069444375
EXTRACT: note_on channel=9 note=82 velocity=0 time=0.1180554375
EXTRACT: note_on channel=9 note=82 velocity=92 time=0.0069444375
EXTRACT: note_on channel=9 note=82 velocity=0 time=0.2013886875
EXTRACT: note_on channel=9 note=82 velocity=92 time=0.0069444375
EXTRACT: note_on channel=9 note=82 velocity=0 time=0.1180554375
EXTRACT: note_on channel=9 note=82 velocity=92 time=0.0069444375
EXTRACT: note_on channel=9 note=82 velocity=0 time=0.2013886875
EXTRACT: note_on channel=9 note=82 velocity=92 time=0.0069444375
EXTRACT: note_on channel=9 note=82 velocity=0 time=0.1180554375
EXTRACT: note_on channel=9 note=82 velocity=92 time=0.0069444375
EXTRACT: note_on channel=1 note=55 velocity=0 time=0.1666665
EXTRACT: note_on channel=1 note=58 velocity=0 time=0
EXTRACT: note_on channel=3 note=63 velocity=0 time=0
EXTRACT: note_on channel=3 note=70 velocity=0 time=0
EXTRACT: note_on channel=9 note=82 velocity=0 time=0.0347221875
EXTRACT: note_on channel=9 note=82 velocity=92 time=0.0069444375
EXTRACT: note_on channel=9 note=82 velocity=0 time=0.1180554375
EXTRACT: note_on channel=1 note=60 velocity=92 time=0.0069444375
EXTRACT: note_on channel=3 note=72 velocity=92 time=0
EXTRACT: note_on channel=9 note=82 velocity=92 time=0.208333125
EXTRACT: note_on channel=9 note=82 velocity=0 time=0.0763888125
EXTRACT: note_on channel=9 note=82 velocity=92 time=0.2569441875
EXTRACT: note_on channel=1 note=60 velocity=0 time=0.013888875
EXTRACT: note_on channel=3 note=72 velocity=0 time=0
EXTRACT: note_on channel=9 note=82 velocity=0 time=0.1041665625
EXTRACT: note_on channel=1 note=62 velocity=92 time=0.0069444375
EXTRACT: note_on channel=3 note=74 velocity=92 time=0
EXTRACT: note_on channel=9 note=82 velocity=92 time=0
EXTRACT: note_on channel=9 note=82 velocity=0 time=0.2013886875
EXTRACT: note_on channel=9 note=82 velocity=92 time=0.0069444375
EXTRACT: note_on channel=9 note=82 velocity=0 time=0.1180554375
EXTRACT: note_on channel=9 note=82 velocity=92 time=0.0069444375
EXTRACT: note_on channel=0 note=70 velocity=127 time=0.041666625
EXTRACT: note_on channel=0 note=70 velocity=0 time=0.1180554375
EXTRACT: note_on channel=1 note=51 velocity=0 time=0.0069444375
EXTRACT: note_on channel=2 note=51 velocity=0 time=0
EXTRACT: note_on channel=9 note=82 velocity=0 time=0.0347221875
EXTRACT: note_on channel=9 note=82 velocity=92 time=0.0069444375
EXTRACT: note_on channel=1 note=62 velocity=0 time=0.013888875
EXTRACT: note_on channel=3 note=74 velocity=0 time=0
EXTRACT: note_on channel=9 note=82 velocity=0 time=0.1041665625
EXTRACT: note_on channel=4 note=55 velocity=92 time=0.0069444375
EXTRACT: note_on channel=4 note=58 velocity=92 time=0
EXTRACT: note_on channel=9 note=70 velocity=92 time=0
EXTRACT: note_on channel=9 note=81 velocity=92 time=0
EXTRACT: note_on channel=9 note=35 velocity=92 time=0
EXTRACT: note_on channel=9 note=42 velocity=92 time=0
EXTRACT: note_on channel=15 note=34 velocity=92 time=0
EXTRACT: note_on channel=0 note=74 velocity=127 time=0.041666625
EXTRACT: note_on channel=9 note=70 velocity=0 time=0.0347221875
EXTRACT: note_on channel=9 note=81 velocity=0 time=0
EXTRACT: note_on channel=9 note=35 velocity=0 time=0
EXTRACT: note_on channel=9 note=42 velocity=0 time=0
EXTRACT: note_on channel=15 note=34 velocity=0 time=0.1666665
EXTRACT: note_on channel=0 note=74 velocity=0 time=0.08333325
EXTRACT: note_on channel=4 note=55 velocity=0 time=0
EXTRACT: note_on channel=4 note=58 velocity=0 time=0
EXTRACT: note_on channel=0 note=72 velocity=127 time=0.0069444375
EXTRACT: note_on channel=4 note=53 velocity=92 time=0
EXTRACT: note_on channel=4 note=57 velocity=92 time=0
EXTRACT: note_on channel=9 note=70 velocity=92 time=0
EXTRACT: note_on channel=9 note=42 velocity=92 time=0
EXTRACT: note_on channel=9 note=70 velocity=0 time=0.0763888125
EXTRACT: note_on channel=9 note=42 velocity=0 time=0
EXTRACT: note_on channel=0 note=72 velocity=0 time=0.124999875
EXTRACT: note_on channel=0 note=70 velocity=127 time=0.0069444375
EXTRACT: note_on channel=4 note=53 velocity=0 time=0.1180554375
EXTRACT: note_on channel=4 note=57 velocity=0 time=0
EXTRACT: note_on channel=4 note=55 velocity=92 time=0.0069444375
EXTRACT: note_on channel=4 note=58 velocity=92 time=0
EXTRACT: note_on channel=9 note=70 velocity=92 time=0
EXTRACT: note_on channel=9 note=38 velocity=92 time=0
EXTRACT: note_on channel=9 note=42 velocity=92 time=0
EXTRACT: note_on channel=9 note=70 velocity=0 time=0.0763888125
EXTRACT: note_on channel=9 note=38 velocity=0 time=0
EXTRACT: note_on channel=9 note=42 velocity=0 time=0
EXTRACT: note_on channel=4 note=55 velocity=0 time=0.24999975
EXTRACT: note_on channel=4 note=58 velocity=0 time=0
EXTRACT: note_on channel=4 note=53 velocity=92 time=0.0069444375
EXTRACT: note_on channel=4 note=57 velocity=92 time=0
EXTRACT: note_on channel=9 note=70 velocity=92 time=0
EXTRACT: note_on channel=9 note=42 velocity=92 time=0
EXTRACT: note_on channel=0 note=70 velocity=0 time=0.0763888125
EXTRACT: note_on channel=9 note=70 velocity=0 time=0
EXTRACT: note_on channel=9 note=42 velocity=0 time=0.08333325
EXTRACT: note_on channel=9 note=35 velocity=92 time=0.0069444375
EXTRACT: note_on channel=15 note=34 velocity=92 time=0
EXTRACT: note_on channel=4 note=53 velocity=0 time=0.1597220625
EXTRACT: note_on channel=4 note=57 velocity=0 time=0
EXTRACT: note_on channel=9 note=35 velocity=0 time=0
EXTRACT: note_on channel=15 note=34 velocity=0 time=0
EXTRACT: note_on channel=4 note=55 velocity=92 time=0.0069444375
EXTRACT: note_on channel=4 note=58 velocity=92 time=0
EXTRACT: note_on channel=9 note=70 velocity=92 time=0
EXTRACT: note_on channel=9 note=35 velocity=92 time=0
EXTRACT: note_on channel=9 note=42 velocity=92 time=0
EXTRACT: note_on channel=15 note=34 velocity=92 time=0
EXTRACT: note_on channel=9 note=70 velocity=0 time=0.0763888125
EXTRACT: note_on channel=9 note=35 velocity=0 time=0
EXTRACT: note_on channel=9 note=42 velocity=0 time=0
EXTRACT: note_on channel=15 note=34 velocity=0 time=0.1666665
EXTRACT: note_on channel=4 note=55 velocity=0 time=0.08333325
EXTRACT: note_on channel=4 note=58 velocity=0 time=0
EXTRACT: note_on channel=0 note=69 velocity=127 time=0.0069444375
EXTRACT: note_on channel=4 note=53 velocity=92 time=0
EXTRACT: note_on channel=4 note=57 velocity=92 time=0
EXTRACT: note_on channel=9 note=70 velocity=92 time=0
EXTRACT: note_on channel=9 note=42 velocity=92 time=0
EXTRACT: note_on channel=0 note=69 velocity=0 time=0.0763888125
EXTRACT: note_on channel=9 note=70 velocity=0 time=0
EXTRACT: note_on channel=9 note=42 velocity=0 time=0
EXTRACT: note_on channel=4 note=53 velocity=0 time=0.24999975
EXTRACT: note_on channel=4 note=57 velocity=0 time=0
EXTRACT: note_on channel=0 note=70 velocity=127 time=0.0069444375
EXTRACT: note_on channel=4 note=55 velocity=92 time=0
EXTRACT: note_on channel=4 note=58 velocity=92 time=0
EXTRACT: note_on channel=9 note=70 velocity=92 time=0
EXTRACT: note_on channel=9 note=38 velocity=92 time=0
EXTRACT: note_on channel=9 note=42 velocity=92 time=0
EXTRACT: note_on channel=0 note=70 velocity=0 time=0.0763888125
EXTRACT: note_on channel=9 note=70 velocity=0 time=0
EXTRACT: note_on channel=9 note=38 velocity=0 time=0
EXTRACT: note_on channel=9 note=42 velocity=0 time=0
EXTRACT: note_on channel=4 note=55 velocity=0 time=0.24999975
EXTRACT: note_on channel=4 note=58 velocity=0 time=0
EXTRACT: note_on channel=0 note=70 velocity=127 time=0.0069444375
EXTRACT: note_on channel=4 note=53 velocity=92 time=0
EXTRACT: note_on channel=4 note=57 velocity=92 time=0
EXTRACT: note_on channel=9 note=70 velocity=92 time=0
EXTRACT: note_on channel=9 note=42 velocity=92 time=0
EXTRACT: note_on channel=9 note=70 velocity=0 time=0.0763888125
EXTRACT: note_on channel=9 note=42 velocity=0 time=0.08333325
EXTRACT: note_on channel=9 note=35 velocity=92 time=0.0069444375
EXTRACT: note_on channel=15 note=34 velocity=92 time=0
EXTRACT: note_on channel=0 note=70 velocity=0 time=0.0347221875
EXTRACT: note_on channel=0 note=69 velocity=127 time=0.0069444375
EXTRACT: note_on channel=4 note=53 velocity=0 time=0.1180554375
EXTRACT: note_on channel=4 note=57 velocity=0 time=0
EXTRACT: note_on channel=9 note=35 velocity=0 time=0
EXTRACT: note_on channel=15 note=34 velocity=0 time=0
EXTRACT: note_on channel=4 note=53 velocity=92 time=0.0069444375
EXTRACT: note_on channel=4 note=58 velocity=92 time=0
EXTRACT: note_on channel=9 note=70 velocity=92 time=0
EXTRACT: note_on channel=9 note=35 velocity=92 time=0
EXTRACT: note_on channel=9 note=42 velocity=92 time=0
EXTRACT: note_on channel=15 note=31 velocity=92 time=0
EXTRACT: note_on channel=9 note=70 velocity=0 time=0.0763888125
EXTRACT: note_on channel=9 note=35 velocity=0 time=0
EXTRACT: note_on channel=9 note=42 velocity=0 time=0
EXTRACT: note_on channel=15 note=31 velocity=0 time=0.1666665
EXTRACT: note_on channel=4 note=53 velocity=0 time=0.08333325
EXTRACT: note_on channel=4 note=58 velocity=0 time=0
EXTRACT: note_on channel=4 note=50 velocity=92 time=0.0069444375
EXTRACT: note_on channel=4 note=55 velocity=92 time=0
EXTRACT: note_on channel=9 note=70 velocity=92 time=0
EXTRACT: note_on channel=9 note=42 velocity=92 time=0
EXTRACT: note_on channel=0 note=69 velocity=0 time=0.0347221875
EXTRACT: note_on channel=0 note=70 velocity=127 time=0.0069444375
EXTRACT: note_on channel=9 note=70 velocity=0 time=0.0347221875
EXTRACT: note_on channel=9 note=42 velocity=0 time=0
EXTRACT: note_on channel=4 note=50 velocity=0 time=0.24999975
EXTRACT: note_on channel=4 note=55 velocity=0 time=0
EXTRACT: note_on channel=4 note=53 velocity=92 time=0.0069444375
EXTRACT: note_on channel=4 note=58 velocity=92 time=0
EXTRACT: note_on channel=9 note=70 velocity=92 time=0
EXTRACT: note_on channel=9 note=38 velocity=92 time=0
EXTRACT: note_on channel=9 note=42 velocity=92 time=0
EXTRACT: note_on channel=9 note=70 velocity=0 time=0.0763888125
EXTRACT: note_on channel=9 note=38 velocity=0 time=0
EXTRACT: note_on channel=9 note=42 velocity=0 time=0
EXTRACT: note_on channel=0 note=70 velocity=0 time=0.1666665
EXTRACT: note_on channel=4 note=53 velocity=0 time=0.08333325
EXTRACT: note_on channel=4 note=58 velocity=0 time=0
EXTRACT: note_on channel=4 note=50 velocity=92 time=0.0069444375
EXTRACT: note_on channel=4 note=55 velocity=92 time=0
EXTRACT: note_on channel=9 note=70 velocity=92 time=0
EXTRACT: note_on channel=9 note=42 velocity=92 time=0
EXTRACT: note_on channel=9 note=70 velocity=0 time=0.0763888125
EXTRACT: note_on channel=9 note=42 velocity=0 time=0.08333325
EXTRACT: note_on channel=9 note=35 velocity=92 time=0.0069444375
EXTRACT: note_on channel=15 note=31 velocity=92 time=0
EXTRACT: note_on channel=4 note=50 velocity=0 time=0.1597220625
EXTRACT: note_on channel=4 note=55 velocity=0 time=0
EXTRACT: note_on channel=9 note=35 velocity=0 time=0
EXTRACT: note_on channel=15 note=31 velocity=0 time=0
EXTRACT: note_on channel=4 note=53 velocity=92 time=0.0069444375
EXTRACT: note_on channel=4 note=58 velocity=92 time=0
EXTRACT: note_on channel=9 note=70 velocity=92 time=0
EXTRACT: note_on channel=9 note=35 velocity=92 time=0
EXTRACT: note_on channel=9 note=42 velocity=92 time=0
EXTRACT: note_on channel=15 note=31 velocity=92 time=0
EXTRACT: note_on channel=9 note=70 velocity=0 time=0.0763888125
EXTRACT: note_on channel=9 note=35 velocity=0 time=0
EXTRACT: note_on channel=9 note=42 velocity=0 time=0
EXTRACT: note_on channel=15 note=31 velocity=0 time=0.1666665
EXTRACT: note_on channel=4 note=53 velocity=0 time=0.08333325
EXTRACT: note_on channel=4 note=58 velocity=0 time=0
EXTRACT: note_on channel=4 note=50 velocity=92 time=0.0069444375
EXTRACT: note_on channel=4 note=55 velocity=92 time=0
EXTRACT: note_on channel=9 note=70 velocity=92 time=0
EXTRACT: note_on channel=9 note=42 velocity=92 time=0
EXTRACT: note_on channel=9 note=70 velocity=0 time=0.0763888125
EXTRACT: note_on channel=9 note=42 velocity=0 time=0
EXTRACT: note_on channel=4 note=50 velocity=0 time=0.24999975
EXTRACT: note_on channel=4 note=55 velocity=0 time=0
EXTRACT: note_on channel=4 note=53 velocity=92 time=0.0069444375
EXTRACT: note_on channel=4 note=58 velocity=92 time=0
EXTRACT: note_on channel=9 note=70 velocity=92 time=0
EXTRACT: note_on channel=9 note=38 velocity=92 time=0
EXTRACT: note_on channel=9 note=42 velocity=92 time=0
EXTRACT: note_on channel=9 note=70 velocity=0 time=0.0763888125
EXTRACT: note_on channel=9 note=38 velocity=0 time=0
EXTRACT: note_on channel=9 note=42 velocity=0 time=0
EXTRACT: note_on channel=4 note=53 velocity=0 time=0.24999975
EXTRACT: note_on channel=4 note=58 velocity=0 time=0
EXTRACT: note_on channel=4 note=50 velocity=92 time=0.0069444375
EXTRACT: note_on channel=4 note=55 velocity=92 time=0
EXTRACT: note_on channel=9 note=70 velocity=92 time=0
EXTRACT: note_on channel=9 note=42 velocity=92 time=0
EXTRACT: note_on channel=0 note=67 velocity=127 time=0.041666625
EXTRACT: note_on channel=9 note=70 velocity=0 time=0.0347221875
EXTRACT: note_on channel=9 note=42 velocity=0 time=0.08333325
EXTRACT: note_on channel=9 note=35 velocity=92 time=0.0069444375
EXTRACT: note_on channel=15 note=31 velocity=92 time=0
EXTRACT: note_on channel=0 note=67 velocity=0 time=0.1597220625
EXTRACT: note_on channel=4 note=50 velocity=0 time=0
EXTRACT: note_on channel=4 note=55 velocity=0 time=0
EXTRACT: note_on channel=9 note=35 velocity=0 time=0
EXTRACT: note_on channel=15 note=31 velocity=0 time=0
EXTRACT: note_on channel=0 note=70 velocity=127 time=0.0069444375
EXTRACT: note_on channel=4 note=55 velocity=92 time=0
EXTRACT: note_on channel=4 note=58 velocity=92 time=0
EXTRACT: note_on channel=9 note=70 velocity=92 time=0
EXTRACT: note_on channel=9 note=35 velocity=92 time=0
EXTRACT: note_on channel=9 note=42 velocity=92 time=0
EXTRACT: note_on channel=15 note=34 velocity=92 time=0
EXTRACT: note_on channel=9 note=70 velocity=0 time=0.0763888125
EXTRACT: note_on channel=9 note=35 velocity=0 time=0
EXTRACT: note_on channel=9 note=42 velocity=0 time=0
EXTRACT: note_on channel=0 note=70 velocity=0 time=0.08333325
EXTRACT: note_on channel=15 note=34 velocity=0 time=0.08333325
EXTRACT: note_on channel=4 note=55 velocity=0 time=0.08333325
EXTRACT: note_on channel=4 note=58 velocity=0 time=0
EXTRACT: note_on channel=0 note=70 velocity=127 time=0.0069444375
EXTRACT: note_on channel=4 note=53 velocity=92 time=0
EXTRACT: note_on channel=4 note=57 velocity=92 time=0
EXTRACT: note_on channel=9 note=70 velocity=92 time=0
EXTRACT: note_on channel=9 note=42 velocity=92 time=0
EXTRACT: note_on channel=9 note=70 velocity=0 time=0.0763888125
EXTRACT: note_on channel=9 note=42 velocity=0 time=0
EXTRACT: note_on channel=0 note=70 velocity=0 time=0.08333325
EXTRACT: note_on channel=4 note=53 velocity=0 time=0.1666665
EXTRACT: note_on channel=4 note=57 velocity=0 time=0
EXTRACT: note_on channel=4 note=55 velocity=92 time=0.0069444375
EXTRACT: note_on channel=4 note=58 velocity=92 time=0
EXTRACT: note_on channel=9 note=70 velocity=92 time=0
EXTRACT: note_on channel=9 note=38 velocity=92 time=0
EXTRACT: note_on channel=9 note=42 velocity=92 time=0
EXTRACT: note_on channel=9 note=70 velocity=0 time=0.0763888125
EXTRACT: note_on channel=9 note=38 velocity=0 time=0
EXTRACT: note_on channel=9 note=42 velocity=0 time=0
EXTRACT: note_on channel=4 note=55 velocity=0 time=0.24999975
EXTRACT: note_on channel=4 note=58 velocity=0 time=0
EXTRACT: note_on channel=0 note=72 velocity=127 time=0.0069444375
EXTRACT: note_on channel=4 note=53 velocity=92 time=0
EXTRACT: note_on channel=4 note=57 velocity=92 time=0
EXTRACT: note_on channel=9 note=70 velocity=92 time=0
EXTRACT: note_on channel=9 note=42 velocity=92 time=0
EXTRACT: note_on channel=9 note=70 velocity=0 time=0.0763888125
EXTRACT: note_on channel=0 note=72 velocity=0 time=0.08333325
EXTRACT: note_on channel=9 note=42 velocity=0 time=0
EXTRACT: note_on channel=9 note=35 velocity=92 time=0.0069444375
EXTRACT: note_on channel=15 note=34 velocity=92 time=0
EXTRACT: note_on channel=4 note=53 velocity=0 time=0.1597220625
EXTRACT: note_on channel=4 note=57 velocity=0 time=0
EXTRACT: note_on channel=9 note=35 velocity=0 time=0
EXTRACT: note_on channel=15 note=34 velocity=0 time=0
EXTRACT: note_on channel=4 note=55 velocity=92 time=0.0069444375
EXTRACT: note_on channel=4 note=58 velocity=92 time=0
EXTRACT: note_on channel=9 note=70 velocity=92 time=0
EXTRACT: note_on channel=9 note=35 velocity=92 time=0
EXTRACT: note_on channel=9 note=42 velocity=92 time=0
EXTRACT: note_on channel=15 note=34 velocity=92 time=0
EXTRACT: note_on channel=9 note=70 velocity=0 time=0.0763888125
EXTRACT: note_on channel=9 note=35 velocity=0 time=0
EXTRACT: note_on channel=9 note=42 velocity=0 time=0
EXTRACT: note_on channel=15 note=34 velocity=0 time=0.1666665
EXTRACT: note_on channel=4 note=55 velocity=0 time=0.08333325
EXTRACT: note_on channel=4 note=58 velocity=0 time=0
EXTRACT: note_on channel=0 note=74 velocity=127 time=0.0069444375
EXTRACT: note_on channel=4 note=53 velocity=92 time=0
EXTRACT: note_on channel=4 note=57 velocity=92 time=0
EXTRACT: note_on channel=9 note=70 velocity=92 time=0
EXTRACT: note_on channel=9 note=42 velocity=92 time=0
EXTRACT: note_on channel=9 note=70 velocity=0 time=0.0763888125
EXTRACT: note_on channel=9 note=42 velocity=0 time=0
EXTRACT: note_on channel=0 note=74 velocity=0 time=0.041666625
EXTRACT: note_on channel=4 note=53 velocity=0 time=0.208333125
EXTRACT: note_on channel=4 note=57 velocity=0 time=0
EXTRACT: note_on channel=4 note=55 velocity=92 time=0.0069444375
EXTRACT: note_on channel=4 note=58 velocity=92 time=0
EXTRACT: note_on channel=9 note=70 velocity=92 time=0
EXTRACT: note_on channel=9 note=38 velocity=92 time=0
EXTRACT: note_on channel=9 note=42 velocity=92 time=0
EXTRACT: note_on channel=9 note=70 velocity=0 time=0.0763888125
EXTRACT: note_on channel=9 note=38 velocity=0 time=0
EXTRACT: note_on channel=9 note=42 velocity=0 time=0
EXTRACT: note_on channel=4 note=55 velocity=0 time=0.24999975
EXTRACT: note_on channel=4 note=58 velocity=0 time=0
EXTRACT: note_on channel=0 note=74 velocity=127 time=0.0069444375
EXTRACT: note_on channel=4 note=53 velocity=92 time=0
EXTRACT: note_on channel=4 note=57 velocity=92 time=0
EXTRACT: note_on channel=9 note=70 velocity=92 time=0
EXTRACT: note_on channel=9 note=42 velocity=92 time=0
EXTRACT: note_on channel=9 note=70 velocity=0 time=0.0763888125
EXTRACT: note_on channel=9 note=42 velocity=0 time=0.08333325
EXTRACT: note_on channel=9 note=35 velocity=92 time=0.0069444375
EXTRACT: note_on channel=15 note=34 velocity=92 time=0
EXTRACT: note_on channel=4 note=53 velocity=0 time=0.1597220625
EXTRACT: note_on channel=4 note=57 velocity=0 time=0
EXTRACT: note_on channel=9 note=35 velocity=0 time=0
EXTRACT: note_on channel=15 note=34 velocity=0 time=0
EXTRACT: note_on channel=4 note=55 velocity=92 time=0.0069444375
EXTRACT: note_on channel=4 note=60 velocity=92 time=0
EXTRACT: note_on channel=9 note=70 velocity=92 time=0
EXTRACT: note_on channel=9 note=35 velocity=92 time=0
EXTRACT: note_on channel=9 note=42 velocity=92 time=0
EXTRACT: note_on channel=15 note=29 velocity=92 time=0
EXTRACT: note_on channel=9 note=70 velocity=0 time=0.0763888125
EXTRACT: note_on channel=9 note=35 velocity=0 time=0
EXTRACT: note_on channel=9 note=42 velocity=0 time=0
EXTRACT: note_on channel=15 note=29 velocity=0 time=0.1666665
EXTRACT: note_on channel=4 note=55 velocity=0 time=0.08333325
EXTRACT: note_on channel=4 note=60 velocity=0 time=0
EXTRACT: note_on channel=4 note=53 velocity=92 time=0.0069444375
EXTRACT: note_on channel=4 note=57 velocity=92 time=0
EXTRACT: note_on channel=9 note=70 velocity=92 time=0
EXTRACT: note_on channel=9 note=42 velocity=92 time=0
EXTRACT: note_on channel=9 note=70 velocity=0 time=0.0763888125
EXTRACT: note_on channel=9 note=42 velocity=0 time=0
EXTRACT: note_on channel=4 note=53 velocity=0 time=0.24999975
EXTRACT: note_on channel=4 note=57 velocity=0 time=0
EXTRACT: note_on channel=4 note=55 velocity=92 time=0.0069444375
EXTRACT: note_on channel=4 note=60 velocity=92 time=0
EXTRACT: note_on channel=9 note=70 velocity=92 time=0
EXTRACT: note_on channel=9 note=38 velocity=92 time=0
EXTRACT: note_on channel=9 note=42 velocity=92 time=0
EXTRACT: note_on channel=9 note=70 velocity=0 time=0.0763888125
EXTRACT: note_on channel=9 note=38 velocity=0 time=0
EXTRACT: note_on channel=9 note=42 velocity=0 time=0
EXTRACT: note_on channel=4 note=55 velocity=0 time=0.24999975
EXTRACT: note_on channel=4 note=60 velocity=0 time=0
EXTRACT: note_on channel=4 note=53 velocity=92 time=0.0069444375
EXTRACT: note_on channel=4 note=57 velocity=92 time=0
EXTRACT: note_on channel=9 note=70 velocity=92 time=0
EXTRACT: note_on channel=9 note=42 velocity=92 time=0
EXTRACT: note_on channel=0 note=74 velocity=0 time=0.0347221875
EXTRACT: note_on channel=9 note=70 velocity=0 time=0.041666625
EXTRACT: note_on channel=9 note=42 velocity=0 time=0.08333325
EXTRACT: note_on channel=9 note=35 velocity=92 time=0.0069444375
EXTRACT: note_on channel=15 note=29 velocity=92 time=0
EXTRACT: note_on channel=4 note=53 velocity=0 time=0.1597220625
EXTRACT: note_on channel=4 note=57 velocity=0 time=0
EXTRACT: note_on channel=9 note=35 velocity=0 time=0
EXTRACT: note_on channel=15 note=29 velocity=0 time=0
EXTRACT: note_on channel=4 note=55 velocity=92 time=0.0069444375
EXTRACT: note_on channel=4 note=60 velocity=92 time=0
EXTRACT: note_on channel=9 note=70 velocity=92 time=0
EXTRACT: note_on channel=9 note=35 velocity=92 time=0
EXTRACT: note_on channel=9 note=42 velocity=92 time=0
EXTRACT: note_on channel=15 note=29 velocity=92 time=0
EXTRACT: note_on channel=9 note=70 velocity=0 time=0.0763888125
EXTRACT: note_on channel=9 note=35 velocity=0 time=0
EXTRACT: note_on channel=9 note=42 velocity=0 time=0
EXTRACT: note_on channel=15 note=29 velocity=0 time=0.1666665
EXTRACT: note_on channel=4 note=55 velocity=0 time=0.08333325
EXTRACT: note_on channel=4 note=60 velocity=0 time=0
EXTRACT: note_on channel=4 note=53 velocity=92 time=0.0069444375
EXTRACT: note_on channel=4 note=57 velocity=92 time=0
EXTRACT: note_on channel=9 note=70 velocity=92 time=0
EXTRACT: note_on channel=9 note=42 velocity=92 time=0
EXTRACT: note_on channel=9 note=70 velocity=0 time=0.0763888125
EXTRACT: note_on channel=9 note=42 velocity=0 time=0
EXTRACT: note_on channel=4 note=53 velocity=0 time=0.24999975
EXTRACT: note_on channel=4 note=57 velocity=0 time=0
EXTRACT: note_on channel=4 note=55 velocity=92 time=0.0069444375
EXTRACT: note_on channel=4 note=60 velocity=92 time=0
EXTRACT: note_on channel=9 note=70 velocity=92 time=0
EXTRACT: note_on channel=9 note=38 velocity=92 time=0
EXTRACT: note_on channel=9 note=42 velocity=92 time=0
EXTRACT: note_on channel=9 note=70 velocity=0 time=0.0763888125
EXTRACT: note_on channel=9 note=38 velocity=0 time=0
EXTRACT: note_on channel=9 note=42 velocity=0 time=0
EXTRACT: note_on channel=4 note=55 velocity=0 time=0.24999975
EXTRACT: note_on channel=4 note=60 velocity=0 time=0
EXTRACT: note_on channel=0 note=72 velocity=127 time=0.0069444375
EXTRACT: note_on channel=4 note=53 velocity=92 time=0
EXTRACT: note_on channel=4 note=57 velocity=92 time=0
EXTRACT: note_on channel=9 note=70 velocity=92 time=0
EXTRACT: note_on channel=9 note=42 velocity=92 time=0
EXTRACT: note_on channel=0 note=72 velocity=0 time=0.0763888125
EXTRACT: note_on channel=9 note=70 velocity=0 time=0
EXTRACT: note_on channel=9 note=42 velocity=0 time=0.08333325
EXTRACT: note_on channel=9 note=35 velocity=92 time=0.0069444375
EXTRACT: note_on channel=15 note=29 velocity=92 time=0
EXTRACT: note_on channel=4 note=53 velocity=0 time=0.1597220625
EXTRACT: note_on channel=4 note=57 velocity=0 time=0
EXTRACT: note_on channel=9 note=35 velocity=0 time=0
EXTRACT: note_on channel=15 note=29 velocity=0 time=0
EXTRACT: note_on channel=0 note=72 velocity=127 time=0.0069444375
EXTRACT: note_on channel=4 note=55 velocity=92 time=0
EXTRACT: note_on channel=4 note=58 velocity=92 time=0
EXTRACT: note_on channel=9 note=70 velocity=92 time=0
EXTRACT: note_on channel=9 note=81 velocity=92 time=0
EXTRACT: note_on channel=9 note=35 velocity=92 time=0
EXTRACT: note_on channel=9 note=42 velocity=92 time=0
EXTRACT: note_on channel=15 note=34 velocity=92 time=0
EXTRACT: note_on channel=9 note=70 velocity=0 time=0.0763888125
EXTRACT: note_on channel=9 note=81 velocity=0 time=0
EXTRACT: note_on channel=9 note=35 velocity=0 time=0
EXTRACT: note_on channel=9 note=42 velocity=0 time=0
EXTRACT: note_on channel=15 note=34 velocity=0 time=0.1666665
EXTRACT: note_on channel=4 note=55 velocity=0 time=0.08333325
EXTRACT: note_on channel=4 note=58 velocity=0 time=0
EXTRACT: note_on channel=4 note=53 velocity=92 time=0.0069444375
EXTRACT: note_on channel=4 note=57 velocity=92 time=0
EXTRACT: note_on channel=9 note=70 velocity=92 time=0
EXTRACT: note_on channel=9 note=42 velocity=92 time=0
EXTRACT: note_on channel=0 note=72 velocity=0 time=0.0347221875
EXTRACT: note_on channel=0 note=74 velocity=127 time=0.0069444375
EXTRACT: note_on channel=9 note=70 velocity=0 time=0.0347221875
EXTRACT: note_on channel=9 note=42 velocity=0 time=0
EXTRACT: note_on channel=4 note=53 velocity=0 time=0.24999975
EXTRACT: note_on channel=4 note=57 velocity=0 time=0
EXTRACT: note_on channel=4 note=55 velocity=92 time=0.0069444375
EXTRACT: note_on channel=4 note=58 velocity=92 time=0
EXTRACT: note_on channel=9 note=70 velocity=92 time=0
EXTRACT: note_on channel=9 note=38 velocity=92 time=0
EXTRACT: note_on channel=9 note=42 velocity=92 time=0
EXTRACT: note_on channel=9 note=70 velocity=0 time=0.0763888125
EXTRACT: note_on channel=9 note=38 velocity=0 time=0
EXTRACT: note_on channel=9 note=42 velocity=0 time=0
EXTRACT: note_on channel=4 note=55 velocity=0 time=0.24999975
EXTRACT: note_on channel=4 note=58 velocity=0 time=0
EXTRACT: note_on channel=4 note=53 velocity=92 time=0.0069444375
EXTRACT: note_on channel=4 note=57 velocity=92 time=0
EXTRACT: note_on channel=9 note=70 velocity=92 time=0
EXTRACT: note_on channel=9 note=42 velocity=92 time=0
EXTRACT: note_on channel=9 note=70 velocity=0 time=0.0763888125
EXTRACT: note_on channel=0 note=74 velocity=0 time=0.08333325
EXTRACT: note_on channel=9 note=42 velocity=0 time=0
EXTRACT: note_on channel=9 note=35 velocity=92 time=0.0069444375
EXTRACT: note_on channel=15 note=34 velocity=92 time=0
EXTRACT: note_on channel=4 note=53 velocity=0 time=0.1597220625
EXTRACT: note_on channel=4 note=57 velocity=0 time=0
EXTRACT: note_on channel=9 note=35 velocity=0 time=0
EXTRACT: note_on channel=15 note=34 velocity=0 time=0
EXTRACT: note_on channel=4 note=55 velocity=92 time=0.0069444375
EXTRACT: note_on channel=4 note=58 velocity=92 time=0
EXTRACT: note_on channel=9 note=70 velocity=92 time=0
EXTRACT: note_on channel=9 note=35 velocity=92 time=0
EXTRACT: note_on channel=9 note=42 velocity=92 time=0
EXTRACT: note_on channel=15 note=34 velocity=92 time=0
EXTRACT: note_on channel=9 note=70 velocity=0 time=0.0763888125
EXTRACT: note_on channel=9 note=35 velocity=0 time=0
EXTRACT: note_on channel=9 note=42 velocity=0 time=0
EXTRACT: note_on channel=15 note=34 velocity=0 time=0.1666665
EXTRACT: note_on channel=4 note=55 velocity=0 time=0.08333325
EXTRACT: note_on channel=4 note=58 velocity=0 time=0
EXTRACT: note_on channel=4 note=53 velocity=92 time=0.0069444375
EXTRACT: note_on channel=4 note=57 velocity=92 time=0
EXTRACT: note_on channel=9 note=70 velocity=92 time=0
EXTRACT: note_on channel=9 note=42 velocity=92 time=0
EXTRACT: note_on channel=0 note=69 velocity=127 time=0.041666625
EXTRACT: note_on channel=9 note=70 velocity=0 time=0.0347221875
EXTRACT: note_on channel=9 note=42 velocity=0 time=0
EXTRACT: note_on channel=0 note=69 velocity=0 time=0.08333325
EXTRACT: note_on channel=0 note=70 velocity=127 time=0.0069444375
EXTRACT: note_on channel=0 note=70 velocity=0 time=0.1597220625
EXTRACT: note_on channel=4 note=53 velocity=0 time=0
EXTRACT: note_on channel=4 note=57 velocity=0 time=0
EXTRACT: note_on channel=0 note=69 velocity=127 time=0.0069444375
EXTRACT: note_on channel=4 note=55 velocity=92 time=0
EXTRACT: note_on channel=4 note=58 velocity=92 time=0
EXTRACT: note_on channel=9 note=70 velocity=92 time=0
EXTRACT: note_on channel=9 note=38 velocity=92 time=0
EXTRACT: note_on channel=9 note=42 velocity=92 time=0
EXTRACT: note_on channel=9 note=70 velocity=0 time=0.0763888125
EXTRACT: note_on channel=9 note=38 velocity=0 time=0
EXTRACT: note_on channel=9 note=42 velocity=0 time=0
EXTRACT: note_on channel=0 note=69 velocity=0 time=0.08333325
EXTRACT: note_on channel=4 note=55 velocity=0 time=0.1666665
EXTRACT: note_on channel=4 note=58 velocity=0 time=0
EXTRACT: note_on channel=0 note=70 velocity=127 time=0.0069444375
EXTRACT: note_on channel=4 note=53 velocity=92 time=0
EXTRACT: note_on channel=4 note=57 velocity=92 time=0
EXTRACT: note_on channel=9 note=70 velocity=92 time=0
EXTRACT: note_on channel=9 note=42 velocity=92 time=0
EXTRACT: note_on channel=0 note=70 velocity=0 time=0.0763888125
EXTRACT: note_on channel=9 note=70 velocity=0 time=0
EXTRACT: note_on channel=9 note=42 velocity=0 time=0.08333325
EXTRACT: note_on channel=9 note=35 velocity=92 time=0.0069444375
EXTRACT: note_on channel=15 note=34 velocity=92 time=0
EXTRACT: note_on channel=0 note=69 velocity=127 time=0.124999875
EXTRACT: note_on channel=4 note=53 velocity=0 time=0.0347221875
EXTRACT: note_on channel=4 note=57 velocity=0 time=0
EXTRACT: note_on channel=9 note=35 velocity=0 time=0
EXTRACT: note_on channel=15 note=34 velocity=0 time=0
EXTRACT: note_on channel=4 note=53 velocity=92 time=0.0069444375
EXTRACT: note_on channel=4 note=58 velocity=92 time=0
EXTRACT: note_on channel=9 note=70 velocity=92 time=0
EXTRACT: note_on channel=9 note=35 velocity=92 time=0
EXTRACT: note_on channel=9 note=42 velocity=92 time=0
EXTRACT: note_on channel=15 note=31 velocity=92 time=0
EXTRACT: note_on channel=9 note=70 velocity=0 time=0.0763888125
EXTRACT: note_on channel=9 note=35 velocity=0 time=0
EXTRACT: note_on channel=9 note=42 velocity=0 time=0
EXTRACT: note_on channel=15 note=31 velocity=0 time=0.1666665
EXTRACT: note_on channel=0 note=69 velocity=0 time=0.08333325
EXTRACT: note_on channel=4 note=53 velocity=0 time=0
EXTRACT: note_on channel=4 note=58 velocity=0 time=0
EXTRACT: note_on channel=0 note=65 velocity=127 time=0.0069444375
EXTRACT: note_on channel=4 note=50 velocity=92 time=0
EXTRACT: note_on channel=4 note=55 velocity=92 time=0
EXTRACT: note_on channel=9 note=70 velocity=92 time=0
EXTRACT: note_on channel=9 note=42 velocity=92 time=0
EXTRACT: note_on channel=9 note=70 velocity=0 time=0.0763888125
EXTRACT: note_on channel=9 note=42 velocity=0 time=0
EXTRACT: note_on channel=4 note=50 velocity=0 time=0.24999975
EXTRACT: note_on channel=4 note=55 velocity=0 time=0
EXTRACT: note_on channel=4 note=53 velocity=92 time=0.0069444375
EXTRACT: note_on channel=4 note=58 velocity=92 time=0
EXTRACT: note_on channel=9 note=70 velocity=92 time=0
EXTRACT: note_on channel=9 note=38 velocity=92 time=0
EXTRACT: note_on channel=9 note=42 velocity=92 time=0
EXTRACT: note_on channel=9 note=70 velocity=0 time=0.0763888125
EXTRACT: note_on channel=9 note=38 velocity=0 time=0
EXTRACT: note_on channel=9 note=42 velocity=0 time=0
EXTRACT: note_on channel=4 note=53 velocity=0 time=0.24999975
EXTRACT: note_on channel=4 note=58 velocity=0 time=0
EXTRACT: note_on channel=4 note=50 velocity=92 time=0.0069444375
EXTRACT: note_on channel=4 note=55 velocity=92 time=0
EXTRACT: note_on channel=9 note=70 velocity=92 time=0
EXTRACT: note_on channel=9 note=42 velocity=92 time=0
EXTRACT: note_on channel=9 note=70 velocity=0 time=0.0763888125
EXTRACT: note_on channel=9 note=42 velocity=0 time=0.08333325
EXTRACT: note_on channel=9 note=35 velocity=92 time=0.0069444375
EXTRACT: note_on channel=15 note=31 velocity=92 time=0
EXTRACT: note_on channel=0 note=65 velocity=0 time=0.0555555
EXTRACT: note_on channel=4 note=50 velocity=0 time=0.1041665625
EXTRACT: note_on channel=4 note=55 velocity=0 time=0
EXTRACT: note_on channel=9 note=35 velocity=0 time=0
EXTRACT: note_on channel=15 note=31 velocity=0 time=0
EXTRACT: note_on channel=4 note=53 velocity=92 time=0.0069444375
EXTRACT: note_on channel=4 note=58 velocity=92 time=0
EXTRACT: note_on channel=9 note=70 velocity=92 time=0
EXTRACT: note_on channel=9 note=35 velocity=92 time=0
EXTRACT: note_on channel=9 note=42 velocity=92 time=0
EXTRACT: note_on channel=15 note=31 velocity=92 time=0
EXTRACT: note_on channel=9 note=70 velocity=0 time=0.0763888125
EXTRACT: note_on channel=9 note=35 velocity=0 time=0
EXTRACT: note_on channel=9 note=42 velocity=0 time=0
EXTRACT: note_on channel=15 note=31 velocity=0 time=0.1666665
EXTRACT: note_on channel=4 note=53 velocity=0 time=0.08333325
EXTRACT: note_on channel=4 note=58 velocity=0 time=0
EXTRACT: note_on channel=4 note=50 velocity=92 time=0.0069444375
EXTRACT: note_on channel=4 note=55 velocity=92 time=0
EXTRACT: note_on channel=9 note=70 velocity=92 time=0
EXTRACT: note_on channel=9 note=42 velocity=92 time=0
EXTRACT: note_on channel=9 note=70 velocity=0 time=0.0763888125
EXTRACT: note_on channel=9 note=42 velocity=0 time=0
EXTRACT: note_on channel=4 note=50 velocity=0 time=0.24999975
EXTRACT: note_on channel=4 note=55 velocity=0 time=0
EXTRACT: note_on channel=4 note=53 velocity=92 time=0.0069444375
EXTRACT: note_on channel=4 note=58 velocity=92 time=0
EXTRACT: note_on channel=9 note=70 velocity=92 time=0
EXTRACT: note_on channel=9 note=38 velocity=92 time=0
EXTRACT: note_on channel=9 note=42 velocity=92 time=0
EXTRACT: note_on channel=9 note=70 velocity=0 time=0.0763888125
EXTRACT: note_on channel=9 note=38 velocity=0 time=0
EXTRACT: note_on channel=9 note=42 velocity=0 time=0
EXTRACT: note_on channel=4 note=53 velocity=0 time=0.24999975
EXTRACT: note_on channel=4 note=58 velocity=0 time=0
EXTRACT: note_on channel=4 note=50 velocity=92 time=0.0069444375
EXTRACT: note_on channel=4 note=55 velocity=92 time=0
EXTRACT: note_on channel=9 note=70 velocity=92 time=0
EXTRACT: note_on channel=9 note=42 velocity=92 time=0
EXTRACT: note_on channel=9 note=70 velocity=0 time=0.0763888125
EXTRACT: note_on channel=9 note=42 velocity=0 time=0.08333325
EXTRACT: note_on channel=9 note=35 velocity=92 time=0.0069444375
EXTRACT: note_on channel=15 note=31 velocity=92 time=0
EXTRACT: note_on channel=4 note=50 velocity=0 time=0.1597220625
EXTRACT: note_on channel=4 note=55 velocity=0 time=0
EXTRACT: note_on channel=9 note=35 velocity=0 time=0
EXTRACT: note_on channel=15 note=31 velocity=0 time=0
EXTRACT: note_on channel=4 note=55 velocity=92 time=0.0069444375
EXTRACT: note_on channel=4 note=58 velocity=92 time=0
EXTRACT: note_on channel=9 note=70 velocity=92 time=0
EXTRACT: note_on channel=9 note=35 velocity=92 time=0
EXTRACT: note_on channel=9 note=42 velocity=92 time=0
EXTRACT: note_on channel=15 note=34 velocity=92 time=0
EXTRACT: note_on channel=0 note=70 velocity=127 time=0.041666625
EXTRACT: note_on channel=9 note=70 velocity=0 time=0.0347221875
EXTRACT: note_on channel=9 note=35 velocity=0 time=0
EXTRACT: note_on channel=9 note=42 velocity=0 time=0
EXTRACT: note_on channel=0 note=70 velocity=0 time=0.08333325
EXTRACT: note_on channel=15 note=34 velocity=0 time=0.08333325
EXTRACT: note_on channel=4 note=55 velocity=0 time=0.08333325
EXTRACT: note_on channel=4 note=58 velocity=0 time=0
EXTRACT: note_on channel=0 note=70 velocity=127 time=0.0069444375
EXTRACT: note_on channel=4 note=53 velocity=92 time=0
EXTRACT: note_on channel=4 note=57 velocity=92 time=0
EXTRACT: note_on channel=9 note=70 velocity=92 time=0
EXTRACT: note_on channel=9 note=42 velocity=92 time=0
EXTRACT: note_on channel=9 note=70 velocity=0 time=0.0763888125
EXTRACT: note_on channel=9 note=42 velocity=0 time=0
EXTRACT: note_on channel=0 note=70 velocity=0 time=0.24999975
EXTRACT: note_on channel=4 note=53 velocity=0 time=0
EXTRACT: note_on channel=4 note=57 velocity=0 time=0
EXTRACT: note_on channel=4 note=55 velocity=92 time=0.0069444375
EXTRACT: note_on channel=4 note=58 velocity=92 time=0
EXTRACT: note_on channel=9 note=70 velocity=92 time=0
EXTRACT: note_on channel=9 note=38 velocity=92 time=0
EXTRACT: note_on channel=9 note=42 velocity=92 time=0
EXTRACT: note_on channel=9 note=70 velocity=0 time=0.0763888125
EXTRACT: note_on channel=9 note=38 velocity=0 time=0
EXTRACT: note_on channel=9 note=42 velocity=0 time=0
EXTRACT: note_on channel=4 note=55 velocity=0 time=0.24999975
EXTRACT: note_on channel=4 note=58 velocity=0 time=0
EXTRACT: note_on channel=0 note=72 velocity=127 time=0.0069444375
EXTRACT: note_on channel=4 note=53 velocity=92 time=0
EXTRACT: note_on channel=4 note=57 velocity=92 time=0
EXTRACT: note_on channel=9 note=70 velocity=92 time=0
EXTRACT: note_on channel=9 note=42 velocity=92 time=0
EXTRACT: note_on channel=9 note=70 velocity=0 time=0.0763888125
EXTRACT: note_on channel=9 note=42 velocity=0 time=0.08333325
EXTRACT: note_on channel=9 note=35 velocity=92 time=0.0069444375
EXTRACT: note_on channel=15 note=34 velocity=92 time=0
EXTRACT: note_on channel=0 note=72 velocity=0 time=0.1597220625
EXTRACT: note_on channel=4 note=53 velocity=0 time=0
EXTRACT: note_on channel=4 note=57 velocity=0 time=0
EXTRACT: note_on channel=9 note=35 velocity=0 time=0
EXTRACT: note_on channel=15 note=34 velocity=0 time=0
EXTRACT: note_on channel=4 note=55 velocity=92 time=0.0069444375
EXTRACT: note_on channel=4 note=58 velocity=92 time=0
EXTRACT: note_on channel=9 note=70 velocity=92 time=0
EXTRACT: note_on channel=9 note=35 velocity=92 time=0
EXTRACT: note_on channel=9 note=42 velocity=92 time=0
EXTRACT: note_on channel=15 note=34 velocity=92 time=0
EXTRACT: note_on channel=9 note=70 velocity=0 time=0.0763888125
EXTRACT: note_on channel=9 note=35 velocity=0 time=0
EXTRACT: note_on channel=9 note=42 velocity=0 time=0
EXTRACT: note_on channel=15 note=34 velocity=0 time=0.1666665
EXTRACT: note_on channel=0 note=74 velocity=127 time=0.0486110625
EXTRACT: note_on channel=4 note=55 velocity=0 time=0.0347221875
EXTRACT: note_on channel=4 note=58 velocity=0 time=0
EXTRACT: note_on channel=4 note=53 velocity=92 time=0.0069444375
EXTRACT: note_on channel=4 note=57 velocity=92 time=0
EXTRACT: note_on channel=9 note=70 velocity=92 time=0
EXTRACT: note_on channel=9 note=42 velocity=92 time=0
EXTRACT: note_on channel=9 note=70 velocity=0 time=0.0763888125
EXTRACT: note_on channel=9 note=42 velocity=0 time=0
EXTRACT: note_on channel=0 note=74 velocity=0 time=0.24999975
EXTRACT: note_on channel=4 note=53 velocity=0 time=0
EXTRACT: note_on channel=4 note=57 velocity=0 time=0
EXTRACT: note_on channel=4 note=55 velocity=92 time=0.0069444375
EXTRACT: note_on channel=4 note=58 velocity=92 time=0
EXTRACT: note_on channel=9 note=70 velocity=92 time=0
EXTRACT: note_on channel=9 note=38 velocity=92 time=0
EXTRACT: note_on channel=9 note=42 velocity=92 time=0
EXTRACT: note_on channel=9 note=70 velocity=0 time=0.0763888125
EXTRACT: note_on channel=9 note=38 velocity=0 time=0
EXTRACT: note_on channel=9 note=42 velocity=0 time=0
EXTRACT: note_on channel=4 note=55 velocity=0 time=0.24999975
EXTRACT: note_on channel=4 note=58 velocity=0 time=0
EXTRACT: note_on channel=0 note=74 velocity=127 time=0.0069444375
EXTRACT: note_on channel=4 note=53 velocity=92 time=0
EXTRACT: note_on channel=4 note=57 velocity=92 time=0
EXTRACT: note_on channel=9 note=70 velocity=92 time=0
EXTRACT: note_on channel=9 note=42 velocity=92 time=0
EXTRACT: note_on channel=9 note=70 velocity=0 time=0.0763888125
EXTRACT: note_on channel=9 note=42 velocity=0 time=0.08333325
EXTRACT: note_on channel=9 note=35 velocity=92 time=0.0069444375
EXTRACT: note_on channel=15 note=34 velocity=92 time=0
EXTRACT: note_on channel=4 note=53 velocity=0 time=0.1597220625
EXTRACT: note_on channel=4 note=57 velocity=0 time=0
EXTRACT: note_on channel=9 note=35 velocity=0 time=0
EXTRACT: note_on channel=15 note=34 velocity=0 time=0
EXTRACT: note_on channel=4 note=55 velocity=92 time=0.0069444375
EXTRACT: note_on channel=4 note=60 velocity=92 time=0
EXTRACT: note_on channel=9 note=70 velocity=92 time=0
EXTRACT: note_on channel=9 note=35 velocity=92 time=0
EXTRACT: note_on channel=9 note=42 velocity=92 time=0
EXTRACT: note_on channel=15 note=29 velocity=92 time=0
EXTRACT: note_on channel=9 note=70 velocity=0 time=0.0763888125
EXTRACT: note_on channel=9 note=35 velocity=0 time=0
EXTRACT: note_on channel=9 note=42 velocity=0 time=0
EXTRACT: note_on channel=15 note=29 velocity=0 time=0.1666665
EXTRACT: note_on channel=0 note=74 velocity=0 time=0.08333325
EXTRACT: note_on channel=4 note=55 velocity=0 time=0
EXTRACT: note_on channel=4 note=60 velocity=0 time=0
EXTRACT: note_on channel=0 note=72 velocity=127 time=0.0069444375
EXTRACT: note_on channel=4 note=53 velocity=92 time=0
EXTRACT: note_on channel=4 note=57 velocity=92 time=0
EXTRACT: note_on channel=9 note=70 velocity=92 time=0
EXTRACT: note_on channel=9 note=42 velocity=92 time=0
EXTRACT: note_on channel=9 note=70 velocity=0 time=0.0763888125
EXTRACT: note_on channel=9 note=42 velocity=0 time=0
EXTRACT: note_on channel=4 note=53 velocity=0 time=0.24999975
EXTRACT: note_on channel=4 note=57 velocity=0 time=0
EXTRACT: note_on channel=4 note=55 velocity=92 time=0.0069444375
EXTRACT: note_on channel=4 note=60 velocity=92 time=0
EXTRACT: note_on channel=9 note=70 velocity=92 time=0
EXTRACT: note_on channel=9 note=38 velocity=92 time=0
EXTRACT: note_on channel=9 note=42 velocity=92 time=0
EXTRACT: note_on channel=9 note=70 velocity=0 time=0.0763888125
EXTRACT: note_on channel=9 note=38 velocity=0 time=0
EXTRACT: note_on channel=9 note=42 velocity=0 time=0
EXTRACT: note_on channel=4 note=55 velocity=0 time=0.24999975
EXTRACT: note_on channel=4 note=60 velocity=0 time=0
EXTRACT: note_on channel=4 note=53 velocity=92 time=0.0069444375
EXTRACT: note_on channel=4 note=57 velocity=92 time=0
EXTRACT: note_on channel=9 note=70 velocity=92 time=0
EXTRACT: note_on channel=9 note=42 velocity=92 time=0
EXTRACT: note_on channel=9 note=70 velocity=0 time=0.0763888125
EXTRACT: note_on channel=9 note=42 velocity=0 time=0.08333325
EXTRACT: note_on channel=9 note=35 velocity=92 time=0.0069444375
EXTRACT: note_on channel=15 note=29 velocity=92 time=0
EXTRACT: note_on channel=0 note=72 velocity=0 time=0.0555555
EXTRACT: note_on channel=4 note=53 velocity=0 time=0.1041665625
EXTRACT: note_on channel=4 note=57 velocity=0 time=0
EXTRACT: note_on channel=9 note=35 velocity=0 time=0
EXTRACT: note_on channel=15 note=29 velocity=0 time=0
EXTRACT: note_on channel=4 note=55 velocity=92 time=0.0069444375
EXTRACT: note_on channel=4 note=60 velocity=92 time=0
EXTRACT: note_on channel=9 note=70 velocity=92 time=0
EXTRACT: note_on channel=9 note=35 velocity=92 time=0
EXTRACT: note_on channel=9 note=42 velocity=92 time=0
EXTRACT: note_on channel=15 note=29 velocity=92 time=0
EXTRACT: note_on channel=9 note=70 velocity=0 time=0.0763888125
EXTRACT: note_on channel=9 note=35 velocity=0 time=0
EXTRACT: note_on channel=9 note=42 velocity=0 time=0
EXTRACT: note_on channel=15 note=29 velocity=0 time=0.1666665
EXTRACT: note_on channel=4 note=55 velocity=0 time=0.08333325
EXTRACT: note_on channel=4 note=60 velocity=0 time=0
EXTRACT: note_on channel=0 note=74 velocity=127 time=0.0069444375
EXTRACT: note_on channel=4 note=53 velocity=92 time=0
EXTRACT: note_on channel=4 note=57 velocity=92 time=0
EXTRACT: note_on channel=9 note=70 velocity=92 time=0
EXTRACT: note_on channel=9 note=42 velocity=92 time=0
EXTRACT: note_on channel=9 note=70 velocity=0 time=0.0763888125
EXTRACT: note_on channel=9 note=42 velocity=0 time=0
EXTRACT: note_on channel=0 note=74 velocity=0 time=0.08333325
EXTRACT: note_on channel=0 note=72 velocity=127 time=0.0069444375
EXTRACT: note_on channel=0 note=72 velocity=0 time=0.1597220625
EXTRACT: note_on channel=4 note=53 velocity=0 time=0
EXTRACT: note_on channel=4 note=57 velocity=0 time=0
EXTRACT: note_on channel=0 note=74 velocity=127 time=0.0069444375
EXTRACT: note_on channel=4 note=55 velocity=92 time=0
EXTRACT: note_on channel=4 note=60 velocity=92 time=0
EXTRACT: note_on channel=9 note=70 velocity=92 time=0
EXTRACT: note_on channel=9 note=38 velocity=92 time=0
EXTRACT: note_on channel=9 note=42 velocity=92 time=0
EXTRACT: note_on channel=9 note=70 velocity=0 time=0.0763888125
EXTRACT: note_on channel=9 note=38 velocity=0 time=0
EXTRACT: note_on channel=9 note=42 velocity=0 time=0
EXTRACT: note_on channel=0 note=74 velocity=0 time=0.24999975
EXTRACT: note_on channel=4 note=55 velocity=0 time=0
EXTRACT: note_on channel=4 note=60 velocity=0 time=0
EXTRACT: note_on channel=0 note=72 velocity=127 time=0.0069444375
EXTRACT: note_on channel=4 note=53 velocity=92 time=0
EXTRACT: note_on channel=4 note=57 velocity=92 time=0
EXTRACT: note_on channel=9 note=70 velocity=92 time=0
EXTRACT: note_on channel=9 note=46 velocity=92 time=0
EXTRACT: note_on channel=15 note=22 velocity=92 time=0
EXTRACT: note_on channel=9 note=70 velocity=0 time=0.0763888125
EXTRACT: note_on channel=0 note=72 velocity=0 time=0.041666625
EXTRACT: note_on channel=9 note=46 velocity=0 time=0.041666625
EXTRACT: note_on channel=15 note=22 velocity=0 time=0
EXTRACT: note_on channel=9 note=35 velocity=92 time=0.0069444375
EXTRACT: note_on channel=15 note=24 velocity=92 time=0
EXTRACT: note_on channel=4 note=53 velocity=0 time=0.1597220625
EXTRACT: note_on channel=4 note=57 velocity=0 time=0
EXTRACT: note_on channel=9 note=35 velocity=0 time=0
EXTRACT: note_on channel=15 note=24 velocity=0 time=0
EXTRACT: note_on channel=0 note=74 velocity=127 time=0.0069444375
EXTRACT: note_on channel=6 note=62 velocity=92 time=0
EXTRACT: note_on channel=6 note=65 velocity=92 time=0
EXTRACT: note_on channel=9 note=70 velocity=92 time=0
EXTRACT: note_on channel=9 note=81 velocity=92 time=0
EXTRACT: note_on channel=9 note=35 velocity=92 time=0
EXTRACT: note_on channel=9 note=42 velocity=92 time=0
EXTRACT: note_on channel=15 note=27 velocity=92 time=0
EXTRACT: note_on channel=5 note=55 velocity=92 time=0.041666625
EXTRACT: note_on channel=5 note=58 velocity=92 time=0
EXTRACT: note_on channel=5 note=62 velocity=92 time=0
EXTRACT: note_on channel=5 note=39 velocity=92 time=0
EXTRACT: note_on channel=9 note=70 velocity=0 time=0.0347221875
EXTRACT: note_on channel=9 note=81 velocity=0 time=0
EXTRACT: note_on channel=9 note=35 velocity=0 time=0
EXTRACT: note_on channel=9 note=42 velocity=0 time=0
EXTRACT: note_on channel=6 note=62 velocity=0 time=0.124999875
EXTRACT: note_on channel=6 note=65 velocity=0 time=0
EXTRACT: note_on channel=6 note=62 velocity=92 time=0.0069444375
EXTRACT: note_on channel=6 note=65 velocity=92 time=0
EXTRACT: note_on channel=6 note=62 velocity=0 time=0.0763888125
EXTRACT: note_on channel=6 note=65 velocity=0 time=0
EXTRACT: note_on channel=9 note=70 velocity=92 time=0.0486110625
EXTRACT: note_on channel=9 note=42 velocity=92 time=0
EXTRACT: note_on channel=9 note=70 velocity=0 time=0.0763888125
EXTRACT: note_on channel=9 note=42 velocity=0 time=0
EXTRACT: note_on channel=6 note=62 velocity=92 time=0.0486110625
EXTRACT: note_on channel=6 note=65 velocity=92 time=0
EXTRACT: note_on channel=6 note=62 velocity=0 time=0.2013886875
EXTRACT: note_on channel=6 note=65 velocity=0 time=0
EXTRACT: note_on channel=6 note=62 velocity=92 time=0.0069444375
EXTRACT: note_on channel=6 note=65 velocity=92 time=0
EXTRACT: note_on channel=9 note=70 velocity=92 time=0
EXTRACT: note_on channel=9 note=38 velocity=92 time=0
EXTRACT: note_on channel=9 note=42 velocity=92 time=0
EXTRACT: note_on channel=6 note=62 velocity=0 time=0.0347221875
EXTRACT: note_on channel=6 note=65 velocity=0 time=0
EXTRACT: note_on channel=9 note=70 velocity=0 time=0.041666625
EXTRACT: note_on channel=9 note=38 velocity=0 time=0
EXTRACT: note_on channel=9 note=42 velocity=0 time=0
EXTRACT: note_on channel=6 note=62 velocity=92 time=0.1319443125
EXTRACT: note_on channel=6 note=65 velocity=92 time=0
EXTRACT: note_on channel=15 note=27 velocity=0 time=0.013888875
EXTRACT: note_on channel=6 note=62 velocity=0 time=0.0624999375
EXTRACT: note_on channel=6 note=65 velocity=0 time=0
EXTRACT: note_on channel=9 note=70 velocity=92 time=0.0486110625
EXTRACT: note_on channel=9 note=42 velocity=92 time=0
EXTRACT: note_on channel=9 note=70 velocity=0 time=0.0763888125
EXTRACT: note_on channel=6 note=62 velocity=92 time=0.0486110625
EXTRACT: note_on channel=6 note=65 velocity=92 time=0
EXTRACT: note_on channel=6 note=62 velocity=0 time=0.0347221875
EXTRACT: note_on channel=6 note=65 velocity=0 time=0
EXTRACT: note_on channel=9 note=42 velocity=0 time=0
EXTRACT: note_on channel=9 note=35 velocity=92 time=0.0069444375
EXTRACT: note_on channel=15 note=27 velocity=92 time=0
EXTRACT: note_on channel=9 note=35 velocity=0 time=0.1597220625
EXTRACT: note_on channel=15 note=27 velocity=0 time=0
EXTRACT: note_on channel=6 note=62 velocity=92 time=0.0069444375
EXTRACT: note_on channel=6 note=65 velocity=92 time=0
EXTRACT: note_on channel=9 note=70 velocity=92 time=0
EXTRACT: note_on channel=9 note=35 velocity=92 time=0
EXTRACT: note_on channel=9 note=42 velocity=92 time=0
EXTRACT: note_on channel=15 note=27 velocity=92 time=0
EXTRACT: note_on channel=15 note=27 velocity=0 time=0.0347221875
EXTRACT: note_on channel=9 note=70 velocity=0 time=0.041666625
EXTRACT: note_on channel=9 note=35 velocity=0 time=0
EXTRACT: note_on channel=9 note=42 velocity=0 time=0
EXTRACT: note_on channel=6 note=62 velocity=0 time=0.124999875
EXTRACT: note_on channel=6 note=65 velocity=0 time=0
EXTRACT: note_on channel=6 note=62 velocity=92 time=0.0069444375
EXTRACT: note_on channel=6 note=65 velocity=92 time=0
EXTRACT: note_on channel=5 note=39 velocity=0 time=0.013888875
EXTRACT: note_on channel=6 note=62 velocity=0 time=0.0624999375
EXTRACT: note_on channel=6 note=65 velocity=0 time=0
EXTRACT: note_on channel=9 note=70 velocity=92 time=0.0486110625
EXTRACT: note_on channel=9 note=42 velocity=92 time=0
EXTRACT: note_on channel=15 note=27 velocity=92 time=0
EXTRACT: note_on channel=5 note=55 velocity=0 time=0.0347221875
EXTRACT: note_on channel=5 note=58 velocity=0 time=0
EXTRACT: note_on channel=5 note=62 velocity=0 time=0
EXTRACT: note_on channel=9 note=70 velocity=0 time=0.041666625
EXTRACT: note_on channel=9 note=42 velocity=0 time=0
EXTRACT: note_on channel=6 note=62 velocity=92 time=0.0486110625
EXTRACT: note_on channel=6 note=65 velocity=92 time=0
EXTRACT: note_on channel=6 note=62 velocity=0 time=0.0347221875
EXTRACT: note_on channel=6 note=65 velocity=0 time=0
EXTRACT: note_on channel=6 note=62 velocity=92 time=0.1736109375
EXTRACT: note_on channel=6 note=65 velocity=92 time=0
EXTRACT: note_on channel=9 note=70 velocity=92 time=0
EXTRACT: note_on channel=9 note=38 velocity=92 time=0
EXTRACT: note_on channel=9 note=42 velocity=92 time=0
EXTRACT: note_on channel=9 note=70 velocity=0 time=0.0763888125
EXTRACT: note_on channel=9 note=38 velocity=0 time=0
EXTRACT: note_on channel=9 note=42 velocity=0 time=0
EXTRACT: note_on channel=15 note=27 velocity=0 time=0.08333325
EXTRACT: note_on channel=6 note=62 velocity=0 time=0.041666625
EXTRACT: note_on channel=6 note=65 velocity=0 time=0
EXTRACT: note_on channel=6 note=62 velocity=92 time=0.0069444375
EXTRACT: note_on channel=6 note=65 velocity=92 time=0
EXTRACT: note_on channel=6 note=62 velocity=0 time=0.0763888125
EXTRACT: note_on channel=6 note=65 velocity=0 time=0
EXTRACT: note_on channel=9 note=70 velocity=92 time=0.0486110625
EXTRACT: note_on channel=9 note=46 velocity=92 time=0
EXTRACT: note_on channel=15 note=31 velocity=92 time=0
EXTRACT: note_on channel=9 note=70 velocity=0 time=0.0763888125
EXTRACT: note_on channel=6 note=62 velocity=92 time=0.0486110625
EXTRACT: note_on channel=6 note=65 velocity=92 time=0
EXTRACT: note_on channel=6 note=62 velocity=0 time=0.0347221875
EXTRACT: note_on channel=6 note=65 velocity=0 time=0
EXTRACT: note_on channel=9 note=46 velocity=0 time=0
EXTRACT: note_on channel=9 note=35 velocity=92 time=0.0069444375
EXTRACT: note_on channel=9 note=35 velocity=0 time=0.1597220625
EXTRACT: note_on channel=15 note=31 velocity=0 time=0
EXTRACT: note_on channel=5 note=53 velocity=92 time=0.0069444375
EXTRACT: note_on channel=5 note=57 velocity=92 time=0
EXTRACT: note_on channel=5 note=60 velocity=92 time=0
EXTRACT: note_on channel=5 note=41 velocity=92 time=0
EXTRACT: note_on channel=9 note=70 velocity=92 time=0
EXTRACT: note_on channel=9 note=35 velocity=92 time=0
EXTRACT: note_on channel=9 note=42 velocity=92 time=0
EXTRACT: note_on channel=15 note=29 velocity=92 time=0
EXTRACT: note_on channel=9 note=70 velocity=0 time=0.0763888125
EXTRACT: note_on channel=9 note=35 velocity=0 time=0
EXTRACT: note_on channel=9 note=42 velocity=0 time=0
EXTRACT: note_on channel=9 note=70 velocity=92 time=0.2569441875
EXTRACT: note_on channel=9 note=42 velocity=92 time=0
EXTRACT: note_on channel=0 note=74 velocity=0 time=0.0763888125
EXTRACT: note_on channel=9 note=70 velocity=0 time=0
EXTRACT: note_on channel=9 note=42 velocity=0 time=0
EXTRACT: note_on channel=0 note=72 velocity=127 time=0.0069444375
EXTRACT: note_on channel=9 note=70 velocity=92 time=0.24999975
EXTRACT: note_on channel=9 note=38 velocity=92 time=0
EXTRACT: note_on channel=9 note=42 velocity=92 time=0
EXTRACT: note_on channel=9 note=70 velocity=0 time=0.0763888125
EXTRACT: note_on channel=9 note=38 velocity=0 time=0
EXTRACT: note_on channel=9 note=42 velocity=0 time=0
EXTRACT: note_on channel=9 note=70 velocity=92 time=0.2569441875
EXTRACT: note_on channel=9 note=42 velocity=92 time=0
EXTRACT: note_on channel=9 note=70 velocity=0 time=0.0763888125
EXTRACT: note_on channel=9 note=42 velocity=0 time=0.08333325
EXTRACT: note_on channel=9 note=35 velocity=92 time=0.0069444375
EXTRACT: note_on channel=15 note=29 velocity=0 time=0
EXTRACT: note_on channel=0 note=72 velocity=0 time=0.0555555
EXTRACT: note_on channel=9 note=35 velocity=0 time=0.1041665625
EXTRACT: note_on channel=9 note=70 velocity=92 time=0.0069444375
EXTRACT: note_on channel=9 note=35 velocity=92 time=0
EXTRACT: note_on channel=9 note=42 velocity=92 time=0
EXTRACT: note_on channel=15 note=41 velocity=92 time=0
EXTRACT: note_on channel=9 note=70 velocity=0 time=0.0763888125
EXTRACT: note_on channel=9 note=35 velocity=0 time=0
EXTRACT: note_on channel=9 note=42 velocity=0 time=0
EXTRACT: note_on channel=5 note=53 velocity=0 time=0.1666665
EXTRACT: note_on channel=5 note=57 velocity=0 time=0
EXTRACT: note_on channel=5 note=60 velocity=0 time=0
EXTRACT: note_on channel=5 note=41 velocity=0 time=0
EXTRACT: note_on channel=9 note=70 velocity=92 time=0.0902776875
EXTRACT: note_on channel=9 note=42 velocity=92 time=0
EXTRACT: note_on channel=0 note=72 velocity=127 time=0.041666625
EXTRACT: note_on channel=9 note=70 velocity=0 time=0.0347221875
EXTRACT: note_on channel=9 note=42 velocity=0 time=0
EXTRACT: note_on channel=0 note=72 velocity=0 time=0.124999875
EXTRACT: note_on channel=0 note=70 velocity=127 time=0.0069444375
EXTRACT: note_on channel=15 note=41 velocity=0 time=0.013888875
EXTRACT: note_on channel=0 note=70 velocity=0 time=0.1041665625
EXTRACT: note_on channel=0 note=72 velocity=127 time=0.0069444375
EXTRACT: note_on channel=9 note=70 velocity=92 time=0
EXTRACT: note_on channel=9 note=38 velocity=92 time=0
EXTRACT: note_on channel=9 note=42 velocity=92 time=0
EXTRACT: note_on channel=15 note=36 velocity=92 time=0
EXTRACT: note_on channel=9 note=70 velocity=0 time=0.0763888125
EXTRACT: note_on channel=9 note=38 velocity=0 time=0
EXTRACT: note_on channel=9 note=42 velocity=0 time=0
EXTRACT: note_on channel=0 note=72 velocity=0 time=0.24999975
EXTRACT: note_on channel=0 note=74 velocity=127 time=0.0069444375
EXTRACT: note_on channel=9 note=70 velocity=92 time=0
EXTRACT: note_on channel=9 note=46 velocity=92 time=0
EXTRACT: note_on channel=9 note=70 velocity=0 time=0.0763888125
EXTRACT: note_on channel=0 note=74 velocity=0 time=0.08333325
EXTRACT: note_on channel=9 note=46 velocity=0 time=0
EXTRACT: note_on channel=9 note=35 velocity=92 time=0.0069444375
EXTRACT: note_on channel=15 note=36 velocity=0 time=0.0555555
EXTRACT: note_on channel=9 note=35 velocity=0 time=0.1041665625
EXTRACT: note_on channel=0 note=77 velocity=127 time=0.0069444375
EXTRACT: note_on channel=5 note=55 velocity=92 time=0
EXTRACT: note_on channel=5 note=58 velocity=92 time=0
EXTRACT: note_on channel=5 note=62 velocity=92 time=0
EXTRACT: note_on channel=5 note=39 velocity=92 time=0
EXTRACT: note_on channel=6 note=62 velocity=92 time=0
EXTRACT: note_on channel=6 note=65 velocity=92 time=0
EXTRACT: note_on channel=9 note=70 velocity=92 time=0
EXTRACT: note_on channel=9 note=35 velocity=92 time=0
EXTRACT: note_on channel=9 note=42 velocity=92 time=0
EXTRACT: note_on channel=15 note=27 velocity=92 time=0
EXTRACT: note_on channel=9 note=70 velocity=0 time=0.0763888125
EXTRACT: note_on channel=9 note=35 velocity=0 time=0
EXTRACT: note_on channel=9 note=42 velocity=0 time=0
EXTRACT: note_on channel=6 note=62 velocity=0 time=0.124999875
EXTRACT: note_on channel=6 note=65 velocity=0 time=0
EXTRACT: note_on channel=6 note=62 velocity=92 time=0.0069444375
EXTRACT: note_on channel=6 note=65 velocity=92 time=0
EXTRACT: note_on channel=6 note=62 velocity=0 time=0.0763888125
EXTRACT: note_on channel=6 note=65 velocity=0 time=0
EXTRACT: note_on channel=9 note=70 velocity=92 time=0.0486110625
EXTRACT: note_on channel=9 note=42 velocity=92 time=0
EXTRACT: note_on channel=9 note=70 velocity=0 time=0.0763888125
EXTRACT: note_on channel=9 note=42 velocity=0 time=0
EXTRACT: note_on channel=6 note=62 velocity=92 time=0.0486110625
EXTRACT: note_on channel=6 note=65 velocity=92 time=0
EXTRACT: note_on channel=6 note=62 velocity=0 time=0.2013886875
EXTRACT: note_on channel=6 note=65 velocity=0 time=0
EXTRACT: note_on channel=6 note=62 velocity=92 time=0.0069444375
EXTRACT: note_on channel=6 note=65 velocity=92 time=0
EXTRACT: note_on channel=9 note=70 velocity=92 time=0
EXTRACT: note_on channel=9 note=38 velocity=92 time=0
EXTRACT: note_on channel=9 note=42 velocity=92 time=0
EXTRACT: note_on channel=6 note=62 velocity=0 time=0.0347221875
EXTRACT: note_on channel=6 note=65 velocity=0 time=0
EXTRACT: note_on channel=9 note=70 velocity=0 time=0.041666625
EXTRACT: note_on channel=9 note=38 velocity=0 time=0
EXTRACT: note_on channel=9 note=42 velocity=0 time=0
EXTRACT: note_on channel=6 note=62 velocity=92 time=0.1319443125
EXTRACT: note_on channel=6 note=65 velocity=92 time=0
EXTRACT: note_on channel=15 note=27 velocity=0 time=0.013888875
EXTRACT: note_on channel=6 note=62 velocity=0 time=0.0624999375
EXTRACT: note_on channel=6 note=65 velocity=0 time=0
EXTRACT: note_on channel=9 note=70 velocity=92 time=0.0486110625
EXTRACT: note_on channel=9 note=42 velocity=92 time=0
EXTRACT: note_on channel=9 note=70 velocity=0 time=0.0763888125
EXTRACT: note_on channel=6 note=62 velocity=92 time=0.0486110625
EXTRACT: note_on channel=6 note=65 velocity=92 time=0
EXTRACT: note_on channel=6 note=62 velocity=0 time=0.0347221875
EXTRACT: note_on channel=6 note=65 velocity=0 time=0
EXTRACT: note_on channel=9 note=42 velocity=0 time=0
EXTRACT: note_on channel=5 note=55 velocity=0 time=0.0069444375
EXTRACT: note_on channel=5 note=58 velocity=0 time=0
EXTRACT: note_on channel=5 note=62 velocity=0 time=0
EXTRACT: note_on channel=9 note=35 velocity=92 time=0
EXTRACT: note_on channel=15 note=27 velocity=92 time=0
EXTRACT: note_on channel=9 note=35 velocity=0 time=0.1597220625
EXTRACT: note_on channel=15 note=27 velocity=0 time=0
EXTRACT: note_on channel=5 note=65 velocity=92 time=0.0069444375
EXTRACT: note_on channel=6 note=62 velocity=92 time=0
EXTRACT: note_on channel=6 note=65 velocity=92 time=0
EXTRACT: note_on channel=9 note=70 velocity=92 time=0
EXTRACT: note_on channel=9 note=35 velocity=92 time=0
EXTRACT: note_on channel=9 note=42 velocity=92 time=0
EXTRACT: note_on channel=15 note=27 velocity=92 time=0
EXTRACT: note_on channel=9 note=70 velocity=0 time=0.0763888125
EXTRACT: note_on channel=9 note=35 velocity=0 time=0
EXTRACT: note_on channel=9 note=42 velocity=0 time=0
EXTRACT: note_on channel=15 note=27 velocity=0 time=0.041666625
EXTRACT: note_on channel=6 note=62 velocity=0 time=0.08333325
EXTRACT: note_on channel=6 note=65 velocity=0 time=0
EXTRACT: note_on channel=6 note=62 velocity=92 time=0.0069444375
EXTRACT: note_on channel=6 note=65 velocity=92 time=0
EXTRACT: note_on channel=6 note=62 velocity=0 time=0.0763888125
EXTRACT: note_on channel=6 note=65 velocity=0 time=0
EXTRACT: note_on channel=9 note=70 velocity=92 time=0.0486110625
EXTRACT: note_on channel=9 note=42 velocity=92 time=0
EXTRACT: note_on channel=15 note=27 velocity=92 time=0
EXTRACT: note_on channel=0 note=77 velocity=0 time=0.0347221875
EXTRACT: note_on channel=0 note=74 velocity=127 time=0.0069444375
EXTRACT: note_on channel=9 note=70 velocity=0 time=0.0347221875
EXTRACT: note_on channel=9 note=42 velocity=0 time=0
EXTRACT: note_on channel=6 note=62 velocity=92 time=0.0486110625
EXTRACT: note_on channel=6 note=65 velocity=92 time=0
EXTRACT: note_on channel=6 note=62 velocity=0 time=0.0347221875
EXTRACT: note_on channel=6 note=65 velocity=0 time=0
EXTRACT: note_on channel=5 note=65 velocity=0 time=0.0624999375
EXTRACT: note_on channel=5 note=62 velocity=92 time=0.111111
EXTRACT: note_on channel=6 note=62 velocity=92 time=0
EXTRACT: note_on channel=6 note=65 velocity=92 time=0
EXTRACT: note_on channel=9 note=70 velocity=92 time=0
EXTRACT: note_on channel=9 note=38 velocity=92 time=0
EXTRACT: note_on channel=9 note=42 velocity=92 time=0
EXTRACT: note_on channel=5 note=39 velocity=0 time=0.0347221875
EXTRACT: note_on channel=9 note=70 velocity=0 time=0.041666625
EXTRACT: note_on channel=9 note=38 velocity=0 time=0
EXTRACT: note_on channel=9 note=42 velocity=0 time=0
EXTRACT: note_on channel=5 note=62 velocity=0 time=0.124999875
EXTRACT: note_on channel=6 note=62 velocity=0 time=0
EXTRACT: note_on channel=6 note=65 velocity=0 time=0
EXTRACT: note_on channel=6 note=62 velocity=92 time=0.0069444375
EXTRACT: note_on channel=6 note=65 velocity=92 time=0
EXTRACT: note_on channel=6 note=62 velocity=0 time=0.0763888125
EXTRACT: note_on channel=6 note=65 velocity=0 time=0
EXTRACT: note_on channel=15 note=27 velocity=0 time=0.041666625
EXTRACT: note_on channel=9 note=70 velocity=92 time=0.0069444375
EXTRACT: note_on channel=9 note=46 velocity=92 time=0
EXTRACT: note_on channel=15 note=31 velocity=92 time=0
EXTRACT: note_on channel=9 note=70 velocity=0 time=0.0763888125
EXTRACT: note_on channel=6 note=62 velocity=92 time=0.0486110625
EXTRACT: note_on channel=6 note=65 velocity=92 time=0
EXTRACT: note_on channel=6 note=62 velocity=0 time=0.0347221875
EXTRACT: note_on channel=6 note=65 velocity=0 time=0
EXTRACT: note_on channel=9 note=46 velocity=0 time=0
EXTRACT: note_on channel=9 note=35 velocity=92 time=0.0069444375
EXTRACT: note_on channel=9 note=35 velocity=0 time=0.1597220625
EXTRACT: note_on channel=15 note=31 velocity=0 time=0
EXTRACT: note_on channel=5 note=53 velocity=92 time=0.0069444375
EXTRACT: note_on channel=5 note=57 velocity=92 time=0
EXTRACT: note_on channel=5 note=60 velocity=92 time=0
EXTRACT: note_on channel=5 note=41 velocity=92 time=0
EXTRACT: note_on channel=6 note=65 velocity=92 time=0
EXTRACT: note_on channel=6 note=69 velocity=92 time=0
EXTRACT: note_on channel=9 note=70 velocity=92 time=0
EXTRACT: note_on channel=9 note=35 velocity=92 time=0
EXTRACT: note_on channel=9 note=42 velocity=92 time=0
EXTRACT: note_on channel=15 note=29 velocity=92 time=0
EXTRACT: note_on channel=6 note=65 velocity=0 time=0.0347221875
EXTRACT: note_on channel=6 note=69 velocity=0 time=0
EXTRACT: note_on channel=0 note=74 velocity=0 time=0.041666625
EXTRACT: note_on channel=9 note=70 velocity=0 time=0
EXTRACT: note_on channel=9 note=35 velocity=0 time=0
EXTRACT: note_on channel=9 note=42 velocity=0 time=0
EXTRACT: note_on channel=0 note=72 velocity=127 time=0.0069444375
EXTRACT: note_on channel=6 note=65 velocity=92 time=0.124999875
EXTRACT: note_on channel=6 note=69 velocity=92 time=0
EXTRACT: note_on channel=6 note=65 velocity=0 time=0.0347221875
EXTRACT: note_on channel=6 note=69 velocity=0 time=0
EXTRACT: note_on channel=9 note=70 velocity=92 time=0.0902776875
EXTRACT: note_on channel=9 note=42 velocity=92 time=0
EXTRACT: note_on channel=9 note=70 velocity=0 time=0.0763888125
EXTRACT: note_on channel=9 note=42 velocity=0 time=0
EXTRACT: note_on channel=6 note=65 velocity=92 time=0.0486110625
EXTRACT: note_on channel=6 note=69 velocity=92 time=0
EXTRACT: note_on channel=6 note=65 velocity=0 time=0.0347221875
EXTRACT: note_on channel=6 note=69 velocity=0 time=0
EXTRACT: note_on channel=6 note=65 velocity=92 time=0.1736109375
EXTRACT: note_on channel=6 note=69 velocity=92 time=0
EXTRACT: note_on channel=9 note=70 velocity=92 time=0
EXTRACT: note_on channel=9 note=42 velocity=92 time=0
EXTRACT: note_on channel=9 note=70 velocity=0 time=0.0763888125
EXTRACT: note_on channel=9 note=42 velocity=0 time=0
EXTRACT: note_on channel=6 note=65 velocity=0 time=0.124999875
EXTRACT: note_on channel=6 note=69 velocity=0 time=0
EXTRACT: note_on channel=6 note=65 velocity=92 time=0.0069444375
EXTRACT: note_on channel=6 note=69 velocity=92 time=0
EXTRACT: note_on channel=15 note=29 velocity=0 time=0.013888875
EXTRACT: note_on channel=6 note=65 velocity=0 time=0.0624999375
EXTRACT: note_on channel=6 note=69 velocity=0 time=0
EXTRACT: note_on channel=9 note=70 velocity=92 time=0.0486110625
EXTRACT: note_on channel=9 note=42 velocity=92 time=0
EXTRACT: note_on channel=9 note=70 velocity=0 time=0.0763888125
EXTRACT: note_on channel=9 note=42 velocity=0 time=0
EXTRACT: note_on channel=0 note=72 velocity=0 time=0.041666625
EXTRACT: note_on channel=6 note=65 velocity=92 time=0.0069444375
EXTRACT: note_on channel=6 note=69 velocity=92 time=0
EXTRACT: note_on channel=6 note=65 velocity=0 time=0.0347221875
EXTRACT: note_on channel=6 note=69 velocity=0 time=0
EXTRACT: note_on channel=15 note=29 velocity=92 time=0.0069444375
EXTRACT: note_on channel=15 note=29 velocity=0 time=0.1597220625
EXTRACT: note_on channel=6 note=65 velocity=92 time=0.0069444375
EXTRACT: note_on channel=6 note=69 velocity=92 time=0
EXTRACT: note_on channel=9 note=70 velocity=92 time=0
EXTRACT: note_on channel=9 note=24 velocity=92 time=0
EXTRACT: note_on channel=9 note=42 velocity=92 time=0
EXTRACT: note_on channel=15 note=29 velocity=92 time=0
EXTRACT: note_on channel=6 note=65 velocity=0 time=0.0347221875
EXTRACT: note_on channel=6 note=69 velocity=0 time=0
EXTRACT: note_on channel=9 note=70 velocity=0 time=0.041666625
EXTRACT: note_on channel=15 note=29 velocity=0 time=0
EXTRACT: note_on channel=9 note=24 velocity=0 time=0.08333325
EXTRACT: note_on channel=9 note=42 velocity=0 time=0
EXTRACT: note_on channel=9 note=24 velocity=92 time=0.0069444375
EXTRACT: note_on channel=6 note=65 velocity=92 time=0.041666625
EXTRACT: note_on channel=6 note=69 velocity=92 time=0
EXTRACT: note_on channel=5 note=53 velocity=0 time=0.0347221875
EXTRACT: note_on channel=5 note=57 velocity=0 time=0
EXTRACT: note_on channel=5 note=60 velocity=0 time=0
EXTRACT: note_on channel=5 note=41 velocity=0 time=0
EXTRACT: note_on channel=6 note=65 velocity=0 time=0.041666625
EXTRACT: note_on channel=6 note=69 velocity=0 time=0
EXTRACT: note_on channel=9 note=24 velocity=0 time=0.041666625
EXTRACT: note_on channel=9 note=70 velocity=92 time=0.0069444375
EXTRACT: note_on channel=9 note=24 velocity=92 time=0
EXTRACT: note_on channel=9 note=42 velocity=92 time=0
EXTRACT: note_on channel=15 note=29 velocity=92 time=0
EXTRACT: note_on channel=15 note=29 velocity=0 time=0.0347221875
EXTRACT: note_on channel=9 note=70 velocity=0 time=0.041666625
EXTRACT: note_on channel=6 note=65 velocity=92 time=0.0486110625
EXTRACT: note_on channel=6 note=69 velocity=92 time=0
EXTRACT: note_on channel=6 note=65 velocity=0 time=0.0347221875
EXTRACT: note_on channel=6 note=69 velocity=0 time=0
EXTRACT: note_on channel=9 note=24 velocity=0 time=0
EXTRACT: note_on channel=9 note=42 velocity=0 time=0
EXTRACT: note_on channel=9 note=40 velocity=92 time=0.0069444375
EXTRACT: note_on channel=9 note=40 velocity=0 time=0.1597220625
EXTRACT: note_on channel=6 note=65 velocity=92 time=0.0069444375
EXTRACT: note_on channel=6 note=69 velocity=92 time=0
EXTRACT: note_on channel=9 note=70 velocity=92 time=0
EXTRACT: note_on channel=9 note=40 velocity=92 time=0
EXTRACT: note_on channel=9 note=42 velocity=92 time=0
EXTRACT: note_on channel=15 note=29 velocity=92 time=0
EXTRACT: note_on channel=6 note=65 velocity=0 time=0.0347221875
EXTRACT: note_on channel=6 note=69 velocity=0 time=0
EXTRACT: note_on channel=9 note=70 velocity=0 time=0.041666625
EXTRACT: note_on channel=9 note=40 velocity=0 time=0
EXTRACT: note_on channel=9 note=42 velocity=0 time=0
EXTRACT: note_on channel=15 note=29 velocity=0 time=0.08333325
EXTRACT: note_on channel=15 note=31 velocity=92 time=0.0069444375
EXTRACT: note_on channel=6 note=65 velocity=92 time=0.041666625
EXTRACT: note_on channel=6 note=69 velocity=92 time=0
EXTRACT: note_on channel=6 note=65 velocity=0 time=0.0347221875
EXTRACT: note_on channel=6 note=69 velocity=0 time=0
EXTRACT: note_on channel=15 note=31 velocity=0 time=0.08333325
EXTRACT: note_on channel=9 note=70 velocity=92 time=0.0069444375
EXTRACT: note_on channel=9 note=40 velocity=92 time=0
EXTRACT: note_on channel=9 note=42 velocity=92 time=0
EXTRACT: note_on channel=15 note=34 velocity=92 time=0
EXTRACT: note_on channel=9 note=70 velocity=0 time=0.0763888125
EXTRACT: note_on channel=6 note=65 velocity=92 time=0.0486110625
EXTRACT: note_on channel=6 note=69 velocity=92 time=0
EXTRACT: note_on channel=6 note=65 velocity=0 time=0.0347221875
EXTRACT: note_on channel=6 note=69 velocity=0 time=0
EXTRACT: note_on channel=9 note=40 velocity=0 time=0
EXTRACT: note_on channel=9 note=42 velocity=0 time=0
EXTRACT: note_on channel=9 note=40 velocity=92 time=0.0069444375
EXTRACT: note_on channel=9 note=40 velocity=0 time=0.1597220625
EXTRACT: note_on channel=15 note=34 velocity=0 time=0
EXTRACT: note_on channel=0 note=82 velocity=127 time=0.0069444375
EXTRACT: note_on channel=3 note=58 velocity=92 time=0
EXTRACT: note_on channel=3 note=62 velocity=92 time=0
EXTRACT: note_on channel=3 note=65 velocity=92 time=0
EXTRACT: note_on channel=9 note=53 velocity=92 time=0
EXTRACT: note_on channel=9 note=57 velocity=92 time=0
EXTRACT: note_on channel=9 note=82 velocity=92 time=0
EXTRACT: note_on channel=9 note=35 velocity=92 time=0
EXTRACT: note_on channel=9 note=42 velocity=92 time=0
EXTRACT: note_on channel=15 note=34 velocity=92 time=0
EXTRACT: note_on channel=7 note=58 velocity=92 time=0.041666625
EXTRACT: note_on channel=9 note=35 velocity=0 time=0.0347221875
EXTRACT: note_on channel=9 note=42 velocity=0 time=0
EXTRACT: note_on channel=7 note=58 velocity=0 time=0.124999875
EXTRACT: note_on channel=9 note=53 velocity=0 time=0
EXTRACT: note_on channel=9 note=57 velocity=0 time=0
EXTRACT: note_on channel=9 note=82 velocity=0 time=0
EXTRACT: note_on channel=7 note=60 velocity=92 time=0.0069444375
EXTRACT: note_on channel=9 note=82 velocity=92 time=0
EXTRACT: note_on channel=7 note=60 velocity=0 time=0.1180554375
EXTRACT: note_on channel=9 note=82 velocity=0 time=0
EXTRACT: note_on channel=7 note=62 velocity=92 time=0.0069444375
EXTRACT: note_on channel=9 note=82 velocity=92 time=0
EXTRACT: note_on channel=9 note=42 velocity=92 time=0
EXTRACT: note_on channel=9 note=42 velocity=0 time=0.0763888125
EXTRACT: note_on channel=7 note=62 velocity=0 time=0.08333325
EXTRACT: note_on channel=7 note=58 velocity=92 time=0.0069444375
EXTRACT: note_on channel=9 note=82 velocity=0 time=0.0347221875
EXTRACT: note_on channel=9 note=82 velocity=92 time=0.0069444375
EXTRACT: note_on channel=0 note=82 velocity=0 time=0.013888875
EXTRACT: note_on channel=7 note=58 velocity=0 time=0.1041665625
EXTRACT: note_on channel=9 note=82 velocity=0 time=0
EXTRACT: note_on channel=0 note=77 velocity=127 time=0.0069444375
EXTRACT: note_on channel=7 note=60 velocity=92 time=0
EXTRACT: note_on channel=9 note=82 velocity=92 time=0
EXTRACT: note_on channel=9 note=40 velocity=92 time=0
EXTRACT: note_on channel=9 note=42 velocity=92 time=0
EXTRACT: note_on channel=9 note=40 velocity=0 time=0.0763888125
EXTRACT: note_on channel=9 note=42 velocity=0 time=0
EXTRACT: note_on channel=7 note=60 velocity=0 time=0.08333325
EXTRACT: note_on channel=7 note=62 velocity=92 time=0.0069444375
EXTRACT: note_on channel=9 note=82 velocity=0 time=0.0347221875
EXTRACT: note_on channel=9 note=82 velocity=92 time=0.0069444375
EXTRACT: note_on channel=0 note=77 velocity=0 time=0.1180554375
EXTRACT: note_on channel=7 note=62 velocity=0 time=0
EXTRACT: note_on channel=9 note=82 velocity=0 time=0
EXTRACT: note_on channel=0 note=79 velocity=127 time=0.0069444375
EXTRACT: note_on channel=7 note=58 velocity=92 time=0
EXTRACT: note_on channel=9 note=82 velocity=92 time=0
EXTRACT: note_on channel=9 note=42 velocity=92 time=0
EXTRACT: note_on channel=9 note=42 velocity=0 time=0.0763888125
EXTRACT: note_on channel=0 note=79 velocity=0 time=0.08333325
EXTRACT: note_on channel=7 note=58 velocity=0 time=0
EXTRACT: note_on channel=15 note=34 velocity=0 time=0
EXTRACT: note_on channel=0 note=79 velocity=127 time=0.0069444375
EXTRACT: note_on channel=7 note=60 velocity=92 time=0
EXTRACT: note_on channel=15 note=34 velocity=92 time=0
EXTRACT: note_on channel=9 note=82 velocity=0 time=0.0347221875
EXTRACT: note_on channel=9 note=82 velocity=92 time=0.0069444375
EXTRACT: note_on channel=7 note=60 velocity=0 time=0.1180554375
EXTRACT: note_on channel=9 note=82 velocity=0 time=0
EXTRACT: note_on channel=15 note=34 velocity=0 time=0
EXTRACT: note_on channel=7 note=62 velocity=92 time=0.0069444375
EXTRACT: note_on channel=9 note=35 velocity=92 time=0
EXTRACT: note_on channel=9 note=42 velocity=92 time=0
EXTRACT: note_on channel=15 note=29 velocity=92 time=0
EXTRACT: note_on channel=9 note=35 velocity=0 time=0.0763888125
EXTRACT: note_on channel=9 note=42 velocity=0 time=0
EXTRACT: note_on channel=7 note=62 velocity=0 time=0.08333325
EXTRACT: note_on channel=15 note=29 velocity=0 time=0
EXTRACT: note_on channel=7 note=58 velocity=92 time=0.0069444375
EXTRACT: note_on channel=15 note=31 velocity=92 time=0
EXTRACT: note_on channel=9 note=82 velocity=92 time=0.041666625
EXTRACT: note_on channel=9 note=82 velocity=0 time=0.0763888125
EXTRACT: note_on channel=0 note=79 velocity=0 time=0.041666625
EXTRACT: note_on channel=7 note=58 velocity=0 time=0
EXTRACT: note_on channel=15 note=31 velocity=0 time=0
EXTRACT: note_on channel=0 note=77 velocity=127 time=0.0069444375
EXTRACT: note_on channel=7 note=60 velocity=92 time=0
EXTRACT: note_on channel=9 note=35 velocity=92 time=0
EXTRACT: note_on channel=9 note=46 velocity=92 time=0
EXTRACT: note_on channel=15 note=34 velocity=92 time=0
EXTRACT: note_on channel=9 note=35 velocity=0 time=0.0763888125
EXTRACT: note_on channel=9 note=46 velocity=0 time=0
EXTRACT: note_on channel=7 note=60 velocity=0 time=0.08333325
EXTRACT: note_on channel=3 note=58 velocity=0 time=0.0069444375
EXTRACT: note_on channel=3 note=62 velocity=0 time=0
EXTRACT: note_on channel=3 note=65 velocity=0 time=0
EXTRACT: note_on channel=7 note=62 velocity=92 time=0
EXTRACT: note_on channel=9 note=82 velocity=92 time=0.041666625
EXTRACT: note_on channel=0 note=77 velocity=0 time=0.1180554375
EXTRACT: note_on channel=7 note=62 velocity=0 time=0
EXTRACT: note_on channel=9 note=82 velocity=0 time=0
EXTRACT: note_on channel=0 note=77 velocity=127 time=0.0069444375
EXTRACT: note_on channel=3 note=57 velocity=92 time=0
EXTRACT: note_on channel=7 note=58 velocity=92 time=0
EXTRACT: note_on channel=9 note=82 velocity=92 time=0
EXTRACT: note_on channel=9 note=40 velocity=92 time=0
EXTRACT: note_on channel=9 note=42 velocity=92 time=0
EXTRACT: note_on channel=9 note=40 velocity=0 time=0.0763888125
EXTRACT: note_on channel=9 note=42 velocity=0 time=0
EXTRACT: note_on channel=7 note=58 velocity=0 time=0.08333325
EXTRACT: note_on channel=15 note=34 velocity=0 time=0
EXTRACT: note_on channel=7 note=60 velocity=92 time=0.0069444375
EXTRACT: note_on channel=0 note=77 velocity=0 time=0.0347221875
EXTRACT: note_on channel=9 note=82 velocity=0 time=0
EXTRACT: note_on channel=0 note=75 velocity=127 time=0.0069444375
EXTRACT: note_on channel=9 note=82 velocity=92 time=0
EXTRACT: note_on channel=7 note=60 velocity=0 time=0.1180554375
EXTRACT: note_on channel=9 note=82 velocity=0 time=0
EXTRACT: note_on channel=7 note=62 velocity=92 time=0.0069444375
EXTRACT: note_on channel=9 note=82 velocity=92 time=0
EXTRACT: note_on channel=9 note=42 velocity=92 time=0
EXTRACT: note_on channel=15 note=34 velocity=92 time=0
EXTRACT: note_on channel=0 note=75 velocity=0 time=0.0347221875
EXTRACT: note_on channel=0 note=74 velocity=127 time=0.0069444375
EXTRACT: note_on channel=9 note=42 velocity=0 time=0.0347221875
EXTRACT: note_on channel=0 note=74 velocity=0 time=0.08333325
EXTRACT: note_on channel=0 note=75 velocity=127 time=0.0069444375
EXTRACT: note_on channel=9 note=82 velocity=0 time=0.0347221875
EXTRACT: note_on channel=9 note=82 velocity=92 time=0.0069444375
EXTRACT: note_on channel=3 note=57 velocity=0 time=0.013888875
EXTRACT: note_on channel=0 note=75 velocity=0 time=0.1041665625
EXTRACT: note_on channel=7 note=62 velocity=0 time=0
EXTRACT: note_on channel=9 note=82 velocity=0 time=0
EXTRACT: note_on channel=15 note=34 velocity=0 time=0
EXTRACT: note_on channel=0 note=74 velocity=127 time=0.0069444375
EXTRACT: note_on channel=3 note=53 velocity=92 time=0
EXTRACT: note_on channel=3 note=60 velocity=92 time=0
EXTRACT: note_on channel=9 note=82 velocity=92 time=0
EXTRACT: note_on channel=9 note=35 velocity=92 time=0
EXTRACT: note_on channel=9 note=42 velocity=92 time=0
EXTRACT: note_on channel=15 note=29 velocity=92 time=0
EXTRACT: note_on channel=7 note=58 velocity=92 time=0.041666625
EXTRACT: note_on channel=9 note=35 velocity=0 time=0.0347221875
EXTRACT: note_on channel=9 note=42 velocity=0 time=0
EXTRACT: note_on channel=7 note=58 velocity=0 time=0.124999875
EXTRACT: note_on channel=9 note=82 velocity=0 time=0
EXTRACT: note_on channel=7 note=60 velocity=92 time=0.0069444375
EXTRACT: note_on channel=9 note=82 velocity=92 time=0
EXTRACT: note_on channel=7 note=60 velocity=0 time=0.1180554375
EXTRACT: note_on channel=9 note=82 velocity=0 time=0
EXTRACT: note_on channel=7 note=62 velocity=92 time=0.0069444375
EXTRACT: note_on channel=9 note=82 velocity=92 time=0
EXTRACT: note_on channel=9 note=42 velocity=92 time=0
EXTRACT: note_on channel=9 note=42 velocity=0 time=0.0763888125
EXTRACT: note_on channel=7 note=62 velocity=0 time=0.08333325
EXTRACT: note_on channel=7 note=58 velocity=92 time=0.0069444375
EXTRACT: note_on channel=9 note=82 velocity=0 time=0.0347221875
EXTRACT: note_on channel=9 note=82 velocity=92 time=0.0069444375
EXTRACT: note_on channel=0 note=74 velocity=0 time=0.013888875
EXTRACT: note_on channel=7 note=58 velocity=0 time=0.1041665625
EXTRACT: note_on channel=9 note=82 velocity=0 time=0
EXTRACT: note_on channel=7 note=60 velocity=92 time=0.0069444375
EXTRACT: note_on channel=9 note=82 velocity=92 time=0
EXTRACT: note_on channel=9 note=40 velocity=92 time=0
EXTRACT: note_on channel=9 note=42 velocity=92 time=0
EXTRACT: note_on channel=9 note=40 velocity=0 time=0.0763888125
EXTRACT: note_on channel=9 note=42 velocity=0 time=0
EXTRACT: note_on channel=7 note=60 velocity=0 time=0.08333325
EXTRACT: note_on channel=7 note=62 velocity=92 time=0.0069444375
EXTRACT: note_on channel=9 note=82 velocity=0 time=0.0347221875
EXTRACT: note_on channel=9 note=82 velocity=92 time=0.0069444375
EXTRACT: note_on channel=7 note=62 velocity=0 time=0.1180554375
EXTRACT: note_on channel=9 note=82 velocity=0 time=0
EXTRACT: note_on channel=7 note=58 velocity=92 time=0.0069444375
EXTRACT: note_on channel=8 note=58 velocity=92 time=0
EXTRACT: note_on channel=9 note=82 velocity=92 time=0
EXTRACT: note_on channel=9 note=42 velocity=92 time=0
EXTRACT: note_on channel=9 note=42 velocity=0 time=0.0763888125
EXTRACT: note_on channel=7 note=58 velocity=0 time=0.08333325
EXTRACT: note_on channel=8 note=58 velocity=0 time=0
EXTRACT: note_on channel=15 note=29 velocity=0 time=0
EXTRACT: note_on channel=7 note=60 velocity=92 time=0.0069444375
EXTRACT: note_on channel=8 note=60 velocity=92 time=0
EXTRACT: note_on channel=15 note=29 velocity=92 time=0
EXTRACT: note_on channel=9 note=82 velocity=0 time=0.0347221875
EXTRACT: note_on channel=9 note=82 velocity=92 time=0.0069444375
EXTRACT: note_on channel=7 note=60 velocity=0 time=0.1180554375
EXTRACT: note_on channel=8 note=60 velocity=0 time=0
EXTRACT: note_on channel=9 note=82 velocity=0 time=0
EXTRACT: note_on channel=15 note=29 velocity=0 time=0
EXTRACT: note_on channel=7 note=62 velocity=92 time=0.0069444375
EXTRACT: note_on channel=8 note=62 velocity=92 time=0
EXTRACT: note_on channel=9 note=35 velocity=92 time=0
EXTRACT: note_on channel=9 note=42 velocity=92 time=0
EXTRACT: note_on channel=15 note=29 velocity=92 time=0
EXTRACT: note_on channel=9 note=35 velocity=0 time=0.0763888125
EXTRACT: note_on channel=9 note=42 velocity=0 time=0
EXTRACT: note_on channel=15 note=29 velocity=0 time=0.041666625
EXTRACT: note_on channel=0 note=74 velocity=127 time=0.0069444375
EXTRACT: note_on channel=7 note=62 velocity=0 time=0.0347221875
EXTRACT: note_on channel=8 note=62 velocity=0 time=0
EXTRACT: note_on channel=7 note=58 velocity=92 time=0.0069444375
EXTRACT: note_on channel=8 note=58 velocity=92 time=0
EXTRACT: note_on channel=9 note=82 velocity=92 time=0.041666625
EXTRACT: note_on channel=9 note=82 velocity=0 time=0.0763888125
EXTRACT: note_on channel=7 note=58 velocity=0 time=0.041666625
EXTRACT: note_on channel=8 note=58 velocity=0 time=0
EXTRACT: note_on channel=7 note=60 velocity=92 time=0.0069444375
EXTRACT: note_on channel=8 note=60 velocity=92 time=0
EXTRACT: note_on channel=9 note=35 velocity=92 time=0
EXTRACT: note_on channel=9 note=46 velocity=92 time=0
EXTRACT: note_on channel=15 note=29 velocity=92 time=0
EXTRACT: note_on channel=9 note=35 velocity=0 time=0.0763888125
EXTRACT: note_on channel=9 note=46 velocity=0 time=0
EXTRACT: note_on channel=0 note=74 velocity=0 time=0.08333325
EXTRACT: note_on channel=7 note=60 velocity=0 time=0
EXTRACT: note_on channel=8 note=60 velocity=0 time=0
EXTRACT: note_on channel=15 note=29 velocity=0 time=0
EXTRACT: note_on channel=0 note=74 velocity=127 time=0.0069444375
EXTRACT: note_on channel=7 note=62 velocity=92 time=0
EXTRACT: note_on channel=8 note=62 velocity=92 time=0
EXTRACT: note_on channel=9 note=82 velocity=92 time=0.041666625
EXTRACT: note_on channel=0 note=74 velocity=0 time=0.1180554375
EXTRACT: note_on channel=7 note=62 velocity=0 time=0
EXTRACT: note_on channel=8 note=62 velocity=0 time=0
EXTRACT: note_on channel=9 note=82 velocity=0 time=0
EXTRACT: note_on channel=0 note=74 velocity=127 time=0.0069444375
EXTRACT: note_on channel=7 note=58 velocity=92 time=0
EXTRACT: note_on channel=8 note=58 velocity=92 time=0
EXTRACT: note_on channel=9 note=82 velocity=92 time=0
EXTRACT: note_on channel=9 note=40 velocity=92 time=0
EXTRACT: note_on channel=9 note=42 velocity=92 time=0
EXTRACT: note_on channel=15 note=29 velocity=92 time=0
EXTRACT: note_on channel=9 note=40 velocity=0 time=0.0763888125
EXTRACT: note_on channel=9 note=42 velocity=0 time=0
EXTRACT: note_on channel=7 note=58 velocity=0 time=0.08333325
EXTRACT: note_on channel=8 note=58 velocity=0 time=0
EXTRACT: note_on channel=15 note=29 velocity=0 time=0
EXTRACT: note_on channel=7 note=60 velocity=92 time=0.0069444375
EXTRACT: note_on channel=8 note=60 velocity=92 time=0
EXTRACT: note_on channel=15 note=31 velocity=92 time=0
EXTRACT: note_on channel=9 note=82 velocity=0 time=0.0347221875
EXTRACT: note_on channel=9 note=82 velocity=92 time=0.0069444375
EXTRACT: note_on channel=0 note=74 velocity=0 time=0.1180554375
EXTRACT: note_on channel=7 note=60 velocity=0 time=0
EXTRACT: note_on channel=8 note=60 velocity=0 time=0
EXTRACT: note_on channel=9 note=82 velocity=0 time=0
EXTRACT: note_on channel=15 note=31 velocity=0 time=0
EXTRACT: note_on channel=0 note=72 velocity=127 time=0.0069444375
EXTRACT: note_on channel=7 note=62 velocity=92 time=0
EXTRACT: note_on channel=8 note=62 velocity=92 time=0
EXTRACT: note_on channel=9 note=82 velocity=92 time=0
EXTRACT: note_on channel=9 note=46 velocity=92 time=0
EXTRACT: note_on channel=15 note=34 velocity=92 time=0
EXTRACT: note_on channel=9 note=46 velocity=0 time=0.0763888125
EXTRACT: note_on channel=3 note=53 velocity=0 time=0.0902776875
EXTRACT: note_on channel=3 note=60 velocity=0 time=0
EXTRACT: note_on channel=0 note=72 velocity=0 time=0.0347221875
EXTRACT: note_on channel=9 note=82 velocity=0 time=0
EXTRACT: note_on channel=0 note=70 velocity=127 time=0.0069444375
EXTRACT: note_on channel=9 note=82 velocity=92 time=0
EXTRACT: note_on channel=0 note=70 velocity=0 time=0.1180554375
EXTRACT: note_on channel=7 note=62 velocity=0 time=0
EXTRACT: note_on channel=8 note=62 velocity=0 time=0
EXTRACT: note_on channel=9 note=82 velocity=0 time=0
EXTRACT: note_on channel=15 note=34 velocity=0 time=0
EXTRACT: note_on channel=3 note=63 velocity=92 time=0.0069444375
EXTRACT: note_on channel=3 note=67 velocity=92 time=0
EXTRACT: note_on channel=9 note=82 velocity=92 time=0
EXTRACT: note_on channel=9 note=35 velocity=92 time=0
EXTRACT: note_on channel=9 note=42 velocity=92 time=0
EXTRACT: note_on channel=15 note=36 velocity=92 time=0
EXTRACT: note_on channel=0 note=70 velocity=127 time=0.041666625
EXTRACT: note_on channel=7 note=58 velocity=92 time=0
EXTRACT: note_on channel=8 note=58 velocity=92 time=0
EXTRACT: note_on channel=9 note=35 velocity=0 time=0.0347221875
EXTRACT: note_on channel=9 note=42 velocity=0 time=0
EXTRACT: note_on channel=7 note=58 velocity=0 time=0.124999875
EXTRACT: note_on channel=8 note=58 velocity=0 time=0
EXTRACT: note_on channel=9 note=82 velocity=0 time=0
EXTRACT: note_on channel=7 note=60 velocity=92 time=0.0069444375
EXTRACT: note_on channel=8 note=60 velocity=92 time=0
EXTRACT: note_on channel=9 note=82 velocity=92 time=0
EXTRACT: note_on channel=7 note=60 velocity=0 time=0.1180554375
EXTRACT: note_on channel=8 note=60 velocity=0 time=0
EXTRACT: note_on channel=9 note=82 velocity=0 time=0
EXTRACT: note_on channel=7 note=62 velocity=92 time=0.0069444375
EXTRACT: note_on channel=8 note=62 velocity=92 time=0
EXTRACT: note_on channel=9 note=82 velocity=92 time=0
EXTRACT: note_on channel=9 note=42 velocity=92 time=0
EXTRACT: note_on channel=0 note=70 velocity=0 time=0.0763888125
EXTRACT: note_on channel=9 note=42 velocity=0 time=0
EXTRACT: note_on channel=0 note=72 velocity=127 time=0.0069444375
EXTRACT: note_on channel=7 note=62 velocity=0 time=0.0763888125
EXTRACT: note_on channel=8 note=62 velocity=0 time=0
EXTRACT: note_on channel=7 note=58 velocity=92 time=0.0069444375
EXTRACT: note_on channel=8 note=58 velocity=92 time=0
EXTRACT: note_on channel=9 note=82 velocity=0 time=0.0347221875
EXTRACT: note_on channel=9 note=82 velocity=92 time=0.0069444375
EXTRACT: note_on channel=7 note=58 velocity=0 time=0.1180554375
EXTRACT: note_on channel=8 note=58 velocity=0 time=0
EXTRACT: note_on channel=9 note=82 velocity=0 time=0
EXTRACT: note_on channel=7 note=60 velocity=92 time=0.0069444375
EXTRACT: note_on channel=8 note=60 velocity=92 time=0
EXTRACT: note_on channel=9 note=82 velocity=92 time=0
EXTRACT: note_on channel=9 note=40 velocity=92 time=0
EXTRACT: note_on channel=9 note=42 velocity=92 time=0
EXTRACT: note_on channel=9 note=40 velocity=0 time=0.0763888125
EXTRACT: note_on channel=9 note=42 velocity=0 time=0
EXTRACT: note_on channel=7 note=60 velocity=0 time=0.08333325
EXTRACT: note_on channel=8 note=60 velocity=0 time=0
EXTRACT: note_on channel=7 note=62 velocity=92 time=0.0069444375
EXTRACT: note_on channel=8 note=62 velocity=92 time=0
EXTRACT: note_on channel=9 note=82 velocity=0 time=0.0347221875
EXTRACT: note_on channel=9 note=82 velocity=92 time=0.0069444375
EXTRACT: note_on channel=15 note=36 velocity=0 time=0.013888875
EXTRACT: note_on channel=0 note=72 velocity=0 time=0.1041665625
EXTRACT: note_on channel=7 note=62 velocity=0 time=0
EXTRACT: note_on channel=8 note=62 velocity=0 time=0
EXTRACT: note_on channel=9 note=82 velocity=0 time=0
EXTRACT: note_on channel=7 note=58 velocity=92 time=0.0069444375
EXTRACT: note_on channel=8 note=58 velocity=92 time=0
EXTRACT: note_on channel=9 note=82 velocity=92 time=0
EXTRACT: note_on channel=9 note=42 velocity=92 time=0
EXTRACT: note_on channel=9 note=42 velocity=0 time=0.0763888125
EXTRACT: note_on channel=7 note=58 velocity=0 time=0.08333325
EXTRACT: note_on channel=8 note=58 velocity=0 time=0
EXTRACT: note_on channel=7 note=60 velocity=92 time=0.0069444375
EXTRACT: note_on channel=8 note=60 velocity=92 time=0
EXTRACT: note_on channel=15 note=36 velocity=92 time=0
EXTRACT: note_on channel=9 note=82 velocity=0 time=0.0347221875
EXTRACT: note_on channel=9 note=82 velocity=92 time=0.0069444375
EXTRACT: note_on channel=7 note=60 velocity=0 time=0.1180554375
EXTRACT: note_on channel=8 note=60 velocity=0 time=0
EXTRACT: note_on channel=9 note=82 velocity=0 time=0
EXTRACT: note_on channel=15 note=36 velocity=0 time=0
EXTRACT: note_on channel=7 note=62 velocity=92 time=0.0069444375
EXTRACT: note_on channel=8 note=62 velocity=92 time=0
EXTRACT: note_on channel=9 note=35 velocity=92 time=0
EXTRACT: note_on channel=9 note=42 velocity=92 time=0
EXTRACT: note_on channel=15 note=36 velocity=92 time=0
EXTRACT: note_on channel=9 note=35 velocity=0 time=0.0763888125
EXTRACT: note_on channel=9 note=42 velocity=0 time=0
EXTRACT: note_on channel=15 note=36 velocity=0 time=0.041666625
EXTRACT: note_on channel=0 note=74 velocity=127 time=0.0069444375
EXTRACT: note_on channel=7 note=62 velocity=0 time=0.0347221875
EXTRACT: note_on channel=7 note=58 velocity=92 time=0.0069444375
EXTRACT: note_on channel=8 note=62 velocity=0 time=0.0347221875
EXTRACT: note_on channel=9 note=82 velocity=92 time=0.0069444375
EXTRACT: note_on channel=9 note=82 velocity=0 time=0.0763888125
EXTRACT: note_on channel=7 note=58 velocity=0 time=0.041666625
EXTRACT: note_on channel=7 note=60 velocity=92 time=0.0069444375
EXTRACT: note_on channel=9 note=35 velocity=92 time=0
EXTRACT: note_on channel=9 note=46 velocity=92 time=0
EXTRACT: note_on channel=15 note=36 velocity=92 time=0
EXTRACT: note_on channel=9 note=35 velocity=0 time=0.0763888125
EXTRACT: note_on channel=9 note=46 velocity=0 time=0
EXTRACT: note_on channel=7 note=60 velocity=0 time=0.08333325
EXTRACT: note_on channel=7 note=62 velocity=92 time=0.0069444375
EXTRACT: note_on channel=0 note=74 velocity=0 time=0.0347221875
EXTRACT: note_on channel=0 note=74 velocity=127 time=0.0069444375
EXTRACT: note_on channel=9 note=82 velocity=92 time=0
EXTRACT: note_on channel=0 note=74 velocity=0 time=0.1180554375
EXTRACT: note_on channel=7 note=62 velocity=0 time=0
EXTRACT: note_on channel=9 note=82 velocity=0 time=0
EXTRACT: note_on channel=7 note=58 velocity=92 time=0.0069444375
EXTRACT: note_on channel=9 note=82 velocity=92 time=0
EXTRACT: note_on channel=9 note=40 velocity=92 time=0
EXTRACT: note_on channel=9 note=42 velocity=92 time=0
EXTRACT: note_on channel=0 note=74 velocity=127 time=0.041666625
EXTRACT: note_on channel=9 note=40 velocity=0 time=0.0347221875
EXTRACT: note_on channel=9 note=42 velocity=0 time=0
EXTRACT: note_on channel=7 note=58 velocity=0 time=0.08333325
EXTRACT: note_on channel=7 note=60 velocity=92 time=0.0069444375
EXTRACT: note_on channel=9 note=82 velocity=0 time=0.0347221875
EXTRACT: note_on channel=9 note=82 velocity=92 time=0.0069444375
EXTRACT: note_on channel=7 note=60 velocity=0 time=0.1180554375
EXTRACT: note_on channel=9 note=82 velocity=0 time=0
EXTRACT: note_on channel=15 note=36 velocity=0 time=0
EXTRACT: note_on channel=7 note=62 velocity=92 time=0.0069444375
EXTRACT: note_on channel=9 note=82 velocity=92 time=0
EXTRACT: note_on channel=9 note=42 velocity=92 time=0
EXTRACT: note_on channel=15 note=38 velocity=92 time=0
EXTRACT: note_on channel=0 note=74 velocity=0 time=0.0347221875
EXTRACT: note_on channel=0 note=72 velocity=127 time=0.0069444375
EXTRACT: note_on channel=9 note=42 velocity=0 time=0.0347221875
EXTRACT: note_on channel=3 note=63 velocity=0 time=0.0902776875
EXTRACT: note_on channel=3 note=67 velocity=0 time=0
EXTRACT: note_on channel=0 note=72 velocity=0 time=0.0347221875
EXTRACT: note_on channel=9 note=82 velocity=0 time=0
EXTRACT: note_on channel=0 note=70 velocity=127 time=0.0069444375
EXTRACT: note_on channel=9 note=82 velocity=92 time=0
EXTRACT: note_on channel=0 note=70 velocity=0 time=0.1180554375
EXTRACT: note_on channel=7 note=62 velocity=0 time=0
EXTRACT: note_on channel=9 note=82 velocity=0 time=0
EXTRACT: note_on channel=15 note=38 velocity=0 time=0
EXTRACT: note_on channel=3 note=70 velocity=92 time=0.0069444375
EXTRACT: note_on channel=9 note=82 velocity=92 time=0
EXTRACT: note_on channel=9 note=35 velocity=92 time=0
EXTRACT: note_on channel=9 note=42 velocity=92 time=0
EXTRACT: note_on channel=15 note=39 velocity=92 time=0
EXTRACT: note_on channel=0 note=70 velocity=127 time=0.041666625
EXTRACT: note_on channel=7 note=58 velocity=92 time=0
EXTRACT: note_on channel=8 note=58 velocity=92 time=0
EXTRACT: note_on channel=9 note=35 velocity=0 time=0.0347221875
EXTRACT: note_on channel=9 note=42 velocity=0 time=0
EXTRACT: note_on channel=7 note=58 velocity=0 time=0.124999875
EXTRACT: note_on channel=8 note=58 velocity=0 time=0
EXTRACT: note_on channel=9 note=82 velocity=0 time=0
EXTRACT: note_on channel=7 note=60 velocity=92 time=0.0069444375
EXTRACT: note_on channel=8 note=60 velocity=92 time=0
EXTRACT: note_on channel=9 note=82 velocity=92 time=0
EXTRACT: note_on channel=7 note=60 velocity=0 time=0.1180554375
EXTRACT: note_on channel=8 note=60 velocity=0 time=0
EXTRACT: note_on channel=9 note=82 velocity=0 time=0
EXTRACT: note_on channel=7 note=62 velocity=92 time=0.0069444375
EXTRACT: note_on channel=8 note=62 velocity=92 time=0
EXTRACT: note_on channel=9 note=82 velocity=92 time=0
EXTRACT: note_on channel=9 note=42 velocity=92 time=0
EXTRACT: note_on channel=0 note=70 velocity=0 time=0.0347221875
EXTRACT: note_on channel=0 note=67 velocity=127 time=0.0069444375
EXTRACT: note_on channel=9 note=42 velocity=0 time=0.0347221875
EXTRACT: note_on channel=15 note=39 velocity=0 time=0.041666625
EXTRACT: note_on channel=7 note=62 velocity=0 time=0.041666625
EXTRACT: note_on channel=8 note=62 velocity=0 time=0
EXTRACT: note_on channel=7 note=58 velocity=92 time=0.0069444375
EXTRACT: note_on channel=8 note=58 velocity=92 time=0
EXTRACT: note_on channel=9 note=82 velocity=0 time=0.0347221875
EXTRACT: note_on channel=9 note=82 velocity=92 time=0.0069444375
EXTRACT: note_on channel=7 note=58 velocity=0 time=0.1180554375
EXTRACT: note_on channel=8 note=58 velocity=0 time=0
EXTRACT: note_on channel=9 note=82 velocity=0 time=0
EXTRACT: note_on channel=7 note=60 velocity=92 time=0.0069444375
EXTRACT: note_on channel=8 note=60 velocity=92 time=0
EXTRACT: note_on channel=9 note=82 velocity=92 time=0
EXTRACT: note_on channel=9 note=40 velocity=92 time=0
EXTRACT: note_on channel=9 note=42 velocity=92 time=0
EXTRACT: note_on channel=15 note=39 velocity=92 time=0
EXTRACT: note_on channel=9 note=40 velocity=0 time=0.0763888125
EXTRACT: note_on channel=9 note=42 velocity=0 time=0
EXTRACT: note_on channel=7 note=60 velocity=0 time=0.08333325
EXTRACT: note_on channel=8 note=60 velocity=0 time=0
EXTRACT: note_on channel=7 note=62 velocity=92 time=0.0069444375
EXTRACT: note_on channel=8 note=62 velocity=92 time=0
EXTRACT: note_on channel=9 note=82 velocity=0 time=0.0347221875
EXTRACT: note_on channel=9 note=82 velocity=92 time=0.0069444375
EXTRACT: note_on channel=7 note=62 velocity=0 time=0.1180554375
EXTRACT: note_on channel=8 note=62 velocity=0 time=0
EXTRACT: note_on channel=9 note=82 velocity=0 time=0
EXTRACT: note_on channel=7 note=58 velocity=92 time=0.0069444375
EXTRACT: note_on channel=8 note=58 velocity=92 time=0
EXTRACT: note_on channel=9 note=82 velocity=92 time=0
EXTRACT: note_on channel=9 note=42 velocity=92 time=0
EXTRACT: note_on channel=9 note=42 velocity=0 time=0.0763888125
EXTRACT: note_on channel=0 note=67 velocity=0 time=0.041666625
EXTRACT: note_on channel=7 note=58 velocity=0 time=0.041666625
EXTRACT: note_on channel=8 note=58 velocity=0 time=0
EXTRACT: note_on channel=3 note=70 velocity=0 time=0.0069444375
EXTRACT: note_on channel=7 note=60 velocity=92 time=0
EXTRACT: note_on channel=8 note=60 velocity=92 time=0
EXTRACT: note_on channel=9 note=82 velocity=0 time=0.0347221875
EXTRACT: note_on channel=9 note=82 velocity=92 time=0.0069444375
EXTRACT: note_on channel=15 note=39 velocity=0 time=0.013888875
EXTRACT: note_on channel=7 note=60 velocity=0 time=0.1041665625
EXTRACT: note_on channel=8 note=60 velocity=0 time=0
EXTRACT: note_on channel=9 note=82 velocity=0 time=0
EXTRACT: note_on channel=3 note=72 velocity=92 time=0.0069444375
EXTRACT: note_on channel=7 note=62 velocity=92 time=0
EXTRACT: note_on channel=8 note=62 velocity=92 time=0
EXTRACT: note_on channel=9 note=35 velocity=92 time=0
EXTRACT: note_on channel=9 note=42 velocity=92 time=0
EXTRACT: note_on channel=15 note=36 velocity=92 time=0
EXTRACT: note_on channel=9 note=35 velocity=0 time=0.0763888125
EXTRACT: note_on channel=9 note=42 velocity=0 time=0
EXTRACT: note_on channel=7 note=62 velocity=0 time=0.08333325
EXTRACT: note_on channel=8 note=62 velocity=0 time=0
EXTRACT: note_on channel=7 note=58 velocity=92 time=0.0069444375
EXTRACT: note_on channel=8 note=58 velocity=92 time=0
EXTRACT: note_on channel=9 note=82 velocity=92 time=0.041666625
EXTRACT: note_on channel=9 note=82 velocity=0 time=0.0763888125
EXTRACT: note_on channel=7 note=58 velocity=0 time=0.041666625
EXTRACT: note_on channel=8 note=58 velocity=0 time=0
EXTRACT: note_on channel=7 note=60 velocity=92 time=0.0069444375
EXTRACT: note_on channel=8 note=60 velocity=92 time=0
EXTRACT: note_on channel=9 note=35 velocity=92 time=0
EXTRACT: note_on channel=9 note=46 velocity=92 time=0
EXTRACT: note_on channel=9 note=35 velocity=0 time=0.0763888125
EXTRACT: note_on channel=9 note=46 velocity=0 time=0
EXTRACT: note_on channel=7 note=60 velocity=0 time=0.08333325
EXTRACT: note_on channel=8 note=60 velocity=0 time=0
EXTRACT: note_on channel=15 note=36 velocity=0 time=0
EXTRACT: note_on channel=7 note=62 velocity=92 time=0.0069444375
EXTRACT: note_on channel=8 note=62 velocity=92 time=0
EXTRACT: note_on channel=9 note=82 velocity=92 time=0.041666625
EXTRACT: note_on channel=3 note=72 velocity=0 time=0.013888875
EXTRACT: note_on channel=7 note=62 velocity=0 time=0.1041665625
EXTRACT: note_on channel=8 note=62 velocity=0 time=0
EXTRACT: note_on channel=9 note=82 velocity=0 time=0
EXTRACT: note_on channel=3 note=74 velocity=92 time=0.0069444375
EXTRACT: note_on channel=7 note=58 velocity=92 time=0
EXTRACT: note_on channel=8 note=58 velocity=92 time=0
EXTRACT: note_on channel=9 note=82 velocity=92 time=0
EXTRACT: note_on channel=9 note=40 velocity=92 time=0
EXTRACT: note_on channel=9 note=42 velocity=92 time=0
EXTRACT: note_on channel=15 note=36 velocity=92 time=0
EXTRACT: note_on channel=9 note=40 velocity=0 time=0.0763888125
EXTRACT: note_on channel=9 note=42 velocity=0 time=0
EXTRACT: note_on channel=7 note=58 velocity=0 time=0.08333325
EXTRACT: note_on channel=8 note=58 velocity=0 time=0
EXTRACT: note_on channel=15 note=36 velocity=0 time=0
EXTRACT: note_on channel=7 note=60 velocity=92 time=0.0069444375
EXTRACT: note_on channel=8 note=60 velocity=92 time=0
EXTRACT: note_on channel=15 note=39 velocity=92 time=0
EXTRACT: note_on channel=9 note=82 velocity=0 time=0.0347221875
EXTRACT: note_on channel=9 note=82 velocity=92 time=0.0069444375
EXTRACT: note_on channel=7 note=60 velocity=0 time=0.1180554375
EXTRACT: note_on channel=8 note=60 velocity=0 time=0
EXTRACT: note_on channel=9 note=82 velocity=0 time=0
EXTRACT: note_on channel=15 note=39 velocity=0 time=0
EXTRACT: note_on channel=7 note=62 velocity=92 time=0.0069444375
EXTRACT: note_on channel=8 note=62 velocity=92 time=0
EXTRACT: note_on channel=9 note=82 velocity=92 time=0
EXTRACT: note_on channel=9 note=42 velocity=92 time=0
EXTRACT: note_on channel=15 note=41 velocity=92 time=0
EXTRACT: note_on channel=9 note=42 velocity=0 time=0.0763888125
EXTRACT: note_on channel=9 note=82 velocity=0 time=0.124999875
EXTRACT: note_on channel=9 note=82 velocity=92 time=0.0069444375
EXTRACT: note_on channel=3 note=74 velocity=0 time=0.013888875
EXTRACT: note_on channel=7 note=62 velocity=0 time=0.1041665625
EXTRACT: note_on channel=8 note=62 velocity=0 time=0
EXTRACT: note_on channel=9 note=82 velocity=0 time=0
EXTRACT: note_on channel=15 note=41 velocity=0 time=0
EXTRACT: note_on channel=0 note=82 velocity=127 time=0.0069444375
EXTRACT: note_on channel=3 note=58 velocity=92 time=0
EXTRACT: note_on channel=3 note=65 velocity=92 time=0
EXTRACT: note_on channel=3 note=70 velocity=92 time=0
EXTRACT: note_on channel=3 note=74 velocity=92 time=0
EXTRACT: note_on channel=9 note=57 velocity=92 time=0
EXTRACT: note_on channel=9 note=82 velocity=92 time=0
EXTRACT: note_on channel=9 note=35 velocity=92 time=0
EXTRACT: note_on channel=9 note=42 velocity=92 time=0
EXTRACT: note_on channel=9 note=52 velocity=92 time=0
EXTRACT: note_on channel=15 note=34 velocity=92 time=0
EXTRACT: note_on channel=7 note=58 velocity=92 time=0.041666625
EXTRACT: note_on channel=9 note=35 velocity=0 time=0.0347221875
EXTRACT: note_on channel=9 note=42 velocity=0 time=0
EXTRACT: note_on channel=9 note=52 velocity=0 time=0
EXTRACT: note_on channel=7 note=58 velocity=0 time=0.124999875
EXTRACT: note_on channel=9 note=57 velocity=0 time=0
EXTRACT: note_on channel=9 note=82 velocity=0 time=0
EXTRACT: note_on channel=7 note=60 velocity=92 time=0.0069444375
EXTRACT: note_on channel=9 note=82 velocity=92 time=0
EXTRACT: note_on channel=7 note=60 velocity=0 time=0.1180554375
EXTRACT: note_on channel=9 note=82 velocity=0 time=0
EXTRACT: note_on channel=7 note=62 velocity=92 time=0.0069444375
EXTRACT: note_on channel=9 note=82 velocity=92 time=0
EXTRACT: note_on channel=9 note=42 velocity=92 time=0
EXTRACT: note_on channel=9 note=42 velocity=0 time=0.0763888125
EXTRACT: note_on channel=7 note=62 velocity=0 time=0.08333325
EXTRACT: note_on channel=7 note=58 velocity=92 time=0.0069444375
EXTRACT: note_on channel=9 note=82 velocity=0 time=0.0347221875
EXTRACT: note_on channel=9 note=82 velocity=92 time=0.0069444375
EXTRACT: note_on channel=0 note=82 velocity=0 time=0.013888875
EXTRACT: note_on channel=7 note=58 velocity=0 time=0.1041665625
EXTRACT: note_on channel=9 note=82 velocity=0 time=0
EXTRACT: note_on channel=0 note=77 velocity=127 time=0.0069444375
EXTRACT: note_on channel=7 note=60 velocity=92 time=0
EXTRACT: note_on channel=9 note=82 velocity=92 time=0
EXTRACT: note_on channel=9 note=40 velocity=92 time=0
EXTRACT: note_on channel=9 note=42 velocity=92 time=0
EXTRACT: note_on channel=9 note=40 velocity=0 time=0.0763888125
EXTRACT: note_on channel=9 note=42 velocity=0 time=0
EXTRACT: note_on channel=7 note=60 velocity=0 time=0.08333325
EXTRACT: note_on channel=7 note=62 velocity=92 time=0.0069444375
EXTRACT: note_on channel=9 note=82 velocity=0 time=0.0347221875
EXTRACT: note_on channel=9 note=82 velocity=92 time=0.0069444375
EXTRACT: note_on channel=0 note=77 velocity=0 time=0.0763888125
EXTRACT: note_on channel=0 note=79 velocity=127 time=0.0069444375
EXTRACT: note_on channel=7 note=62 velocity=0 time=0.0347221875
EXTRACT: note_on channel=9 note=82 velocity=0 time=0
EXTRACT: note_on channel=7 note=58 velocity=92 time=0.0069444375
EXTRACT: note_on channel=9 note=82 velocity=92 time=0
EXTRACT: note_on channel=9 note=42 velocity=92 time=0
EXTRACT: note_on channel=9 note=42 velocity=0 time=0.0763888125
EXTRACT: note_on channel=0 note=79 velocity=0 time=0.08333325
EXTRACT: note_on channel=7 note=58 velocity=0 time=0
EXTRACT: note_on channel=15 note=34 velocity=0 time=0
EXTRACT: note_on channel=0 note=79 velocity=127 time=0.0069444375
EXTRACT: note_on channel=7 note=60 velocity=92 time=0
EXTRACT: note_on channel=15 note=34 velocity=92 time=0
EXTRACT: note_on channel=9 note=82 velocity=0 time=0.0347221875
EXTRACT: note_on channel=9 note=82 velocity=92 time=0.0069444375
EXTRACT: note_on channel=7 note=60 velocity=0 time=0.1180554375
EXTRACT: note_on channel=9 note=82 velocity=0 time=0
EXTRACT: note_on channel=15 note=34 velocity=0 time=0
EXTRACT: note_on channel=7 note=62 velocity=92 time=0.0069444375
EXTRACT: note_on channel=9 note=35 velocity=92 time=0
EXTRACT: note_on channel=9 note=42 velocity=92 time=0
EXTRACT: note_on channel=15 note=29 velocity=92 time=0
EXTRACT: note_on channel=9 note=35 velocity=0 time=0.0763888125
EXTRACT: note_on channel=9 note=42 velocity=0 time=0
EXTRACT: note_on channel=7 note=62 velocity=0 time=0.08333325
EXTRACT: note_on channel=15 note=29 velocity=0 time=0
EXTRACT: note_on channel=7 note=58 velocity=92 time=0.0069444375
EXTRACT: note_on channel=15 note=31 velocity=92 time=0
EXTRACT: note_on channel=9 note=82 velocity=92 time=0.041666625
EXTRACT: note_on channel=9 note=82 velocity=0 time=0.0763888125
EXTRACT: note_on channel=0 note=79 velocity=0 time=0.041666625
EXTRACT: note_on channel=7 note=58 velocity=0 time=0
EXTRACT: note_on channel=15 note=31 velocity=0 time=0
EXTRACT: note_on channel=0 note=77 velocity=127 time=0.0069444375
EXTRACT: note_on channel=7 note=60 velocity=92 time=0
EXTRACT: note_on channel=9 note=35 velocity=92 time=0
EXTRACT: note_on channel=9 note=46 velocity=92 time=0
EXTRACT: note_on channel=15 note=34 velocity=92 time=0
EXTRACT: note_on channel=9 note=35 velocity=0 time=0.0763888125
EXTRACT: note_on channel=9 note=46 velocity=0 time=0
EXTRACT: note_on channel=7 note=60 velocity=0 time=0.08333325
EXTRACT: note_on channel=7 note=62 velocity=92 time=0.0069444375
EXTRACT: note_on channel=9 note=82 velocity=92 time=0.041666625
EXTRACT: note_on channel=0 note=77 velocity=0 time=0.1180554375
EXTRACT: note_on channel=7 note=62 velocity=0 time=0
EXTRACT: note_on channel=9 note=82 velocity=0 time=0
EXTRACT: note_on channel=15 note=34 velocity=0 time=0
EXTRACT: note_on channel=0 note=77 velocity=127 time=0.0069444375
EXTRACT: note_on channel=7 note=58 velocity=92 time=0
EXTRACT: note_on channel=9 note=82 velocity=92 time=0
EXTRACT: note_on channel=9 note=40 velocity=92 time=0
EXTRACT: note_on channel=9 note=42 velocity=92 time=0
EXTRACT: note_on channel=15 note=38 velocity=92 time=0
EXTRACT: note_on channel=9 note=40 velocity=0 time=0.0763888125
EXTRACT: note_on channel=9 note=42 velocity=0 time=0
EXTRACT: note_on channel=0 note=77 velocity=0 time=0.08333325
EXTRACT: note_on channel=7 note=58 velocity=0 time=0
EXTRACT: note_on channel=0 note=75 velocity=127 time=0.0069444375
EXTRACT: note_on channel=7 note=60 velocity=92 time=0
EXTRACT: note_on channel=9 note=82 velocity=0 time=0.0347221875
EXTRACT: note_on channel=9 note=82 velocity=92 time=0.0069444375
EXTRACT: note_on channel=0 note=75 velocity=0 time=0.1180554375
EXTRACT: note_on channel=7 note=60 velocity=0 time=0
EXTRACT: note_on channel=9 note=82 velocity=0 time=0
EXTRACT: note_on channel=15 note=38 velocity=0 time=0
EXTRACT: note_on channel=0 note=74 velocity=127 time=0.0069444375
EXTRACT: note_on channel=7 note=62 velocity=92 time=0
EXTRACT: note_on channel=9 note=82 velocity=92 time=0
EXTRACT: note_on channel=9 note=42 velocity=92 time=0
EXTRACT: note_on channel=15 note=34 velocity=92 time=0
EXTRACT: note_on channel=9 note=42 velocity=0 time=0.0763888125
EXTRACT: note_on channel=3 note=58 velocity=0 time=0.0902776875
EXTRACT: note_on channel=3 note=65 velocity=0 time=0
EXTRACT: note_on channel=3 note=70 velocity=0 time=0
EXTRACT: note_on channel=3 note=74 velocity=0 time=0
EXTRACT: note_on channel=0 note=74 velocity=0 time=0.0347221875
EXTRACT: note_on channel=9 note=82 velocity=0 time=0
EXTRACT: note_on channel=0 note=75 velocity=127 time=0.0069444375
EXTRACT: note_on channel=9 note=82 velocity=92 time=0
EXTRACT: note_on channel=7 note=62 velocity=0 time=0.1180554375
EXTRACT: note_on channel=9 note=82 velocity=0 time=0
EXTRACT: note_on channel=15 note=34 velocity=0 time=0
EXTRACT: note_on channel=3 note=57 velocity=92 time=0.0069444375
EXTRACT: note_on channel=3 note=69 velocity=92 time=0
EXTRACT: note_on channel=9 note=82 velocity=92 time=0
EXTRACT: note_on channel=9 note=35 velocity=92 time=0
EXTRACT: note_on channel=9 note=42 velocity=92 time=0
EXTRACT: note_on channel=15 note=29 velocity=92 time=0
EXTRACT: note_on channel=0 note=75 velocity=0 time=0.0347221875
EXTRACT: note_on channel=0 note=74 velocity=127 time=0.0069444375
EXTRACT: note_on channel=7 note=58 velocity=92 time=0
EXTRACT: note_on channel=9 note=35 velocity=0 time=0.0347221875
EXTRACT: note_on channel=9 note=42 velocity=0 time=0
EXTRACT: note_on channel=7 note=58 velocity=0 time=0.124999875
EXTRACT: note_on channel=9 note=82 velocity=0 time=0
EXTRACT: note_on channel=7 note=60 velocity=92 time=0.0069444375
EXTRACT: note_on channel=9 note=82 velocity=92 time=0
EXTRACT: note_on channel=7 note=60 velocity=0 time=0.1180554375
EXTRACT: note_on channel=9 note=82 velocity=0 time=0
EXTRACT: note_on channel=7 note=62 velocity=92 time=0.0069444375
EXTRACT: note_on channel=9 note=82 velocity=92 time=0
EXTRACT: note_on channel=9 note=42 velocity=92 time=0
EXTRACT: note_on channel=9 note=42 velocity=0 time=0.0763888125
EXTRACT: note_on channel=7 note=62 velocity=0 time=0.08333325
EXTRACT: note_on channel=7 note=58 velocity=92 time=0.0069444375
EXTRACT: note_on channel=9 note=82 velocity=0 time=0.0347221875
EXTRACT: note_on channel=9 note=82 velocity=92 time=0.0069444375
EXTRACT: note_on channel=7 note=58 velocity=0 time=0.1180554375
EXTRACT: note_on channel=9 note=82 velocity=0 time=0
EXTRACT: note_on channel=7 note=60 velocity=92 time=0.0069444375
EXTRACT: note_on channel=9 note=82 velocity=92 time=0
EXTRACT: note_on channel=9 note=40 velocity=92 time=0
EXTRACT: note_on channel=9 note=42 velocity=92 time=0
EXTRACT: note_on channel=9 note=40 velocity=0 time=0.0763888125
EXTRACT: note_on channel=9 note=42 velocity=0 time=0
EXTRACT: note_on channel=0 note=74 velocity=0 time=0.041666625
EXTRACT: note_on channel=7 note=60 velocity=0 time=0.041666625
EXTRACT: note_on channel=7 note=62 velocity=92 time=0.0069444375
EXTRACT: note_on channel=9 note=82 velocity=0 time=0.0347221875
EXTRACT: note_on channel=9 note=82 velocity=92 time=0.0069444375
EXTRACT: note_on channel=15 note=29 velocity=0 time=0.0763888125
EXTRACT: note_on channel=7 note=62 velocity=0 time=0.041666625
EXTRACT: note_on channel=9 note=82 velocity=0 time=0
EXTRACT: note_on channel=7 note=58 velocity=92 time=0.0069444375
EXTRACT: note_on channel=9 note=82 velocity=92 time=0
EXTRACT: note_on channel=9 note=42 velocity=92 time=0
EXTRACT: note_on channel=9 note=42 velocity=0 time=0.0763888125
EXTRACT: note_on channel=7 note=58 velocity=0 time=0.08333325
EXTRACT: note_on channel=7 note=60 velocity=92 time=0.0069444375
EXTRACT: note_on channel=15 note=29 velocity=92 time=0
EXTRACT: note_on channel=9 note=82 velocity=0 time=0.0347221875
EXTRACT: note_on channel=9 note=82 velocity=92 time=0.0069444375
EXTRACT: note_on channel=7 note=60 velocity=0 time=0.1180554375
EXTRACT: note_on channel=9 note=82 velocity=0 time=0
EXTRACT: note_on channel=15 note=29 velocity=0 time=0
EXTRACT: note_on channel=7 note=62 velocity=92 time=0.0069444375
EXTRACT: note_on channel=8 note=62 velocity=92 time=0
EXTRACT: note_on channel=9 note=35 velocity=92 time=0
EXTRACT: note_on channel=9 note=42 velocity=92 time=0
EXTRACT: note_on channel=15 note=29 velocity=92 time=0
EXTRACT: note_on channel=9 note=35 velocity=0 time=0.0763888125
EXTRACT: note_on channel=9 note=42 velocity=0 time=0
EXTRACT: note_on channel=7 note=62 velocity=0 time=0.08333325
EXTRACT: note_on channel=8 note=62 velocity=0 time=0
EXTRACT: note_on channel=15 note=29 velocity=0 time=0
EXTRACT: note_on channel=0 note=74 velocity=127 time=0.0069444375
EXTRACT: note_on channel=7 note=58 velocity=92 time=0
EXTRACT: note_on channel=8 note=58 velocity=92 time=0
EXTRACT: note_on channel=15 note=27 velocity=92 time=0
EXTRACT: note_on channel=9 note=82 velocity=92 time=0.041666625
EXTRACT: note_on channel=9 note=82 velocity=0 time=0.0763888125
EXTRACT: note_on channel=7 note=58 velocity=0 time=0.041666625
EXTRACT: note_on channel=8 note=58 velocity=0 time=0
EXTRACT: note_on channel=15 note=27 velocity=0 time=0
EXTRACT: note_on channel=7 note=60 velocity=92 time=0.0069444375
EXTRACT: note_on channel=8 note=60 velocity=92 time=0
EXTRACT: note_on channel=9 note=35 velocity=92 time=0
EXTRACT: note_on channel=9 note=42 velocity=92 time=0
EXTRACT: note_on channel=15 note=29 velocity=92 time=0
EXTRACT: note_on channel=9 note=35 velocity=0 time=0.0763888125
EXTRACT: note_on channel=9 note=42 velocity=0 time=0
EXTRACT: note_on channel=7 note=60 velocity=0 time=0.08333325
EXTRACT: note_on channel=8 note=60 velocity=0 time=0
EXTRACT: note_on channel=7 note=62 velocity=92 time=0.0069444375
EXTRACT: note_on channel=8 note=62 velocity=92 time=0
EXTRACT: note_on channel=0 note=74 velocity=0 time=0.0347221875
EXTRACT: note_on channel=0 note=74 velocity=127 time=0.0069444375
EXTRACT: note_on channel=9 note=82 velocity=92 time=0
EXTRACT: note_on channel=0 note=74 velocity=0 time=0.1180554375
EXTRACT: note_on channel=7 note=62 velocity=0 time=0
EXTRACT: note_on channel=8 note=62 velocity=0 time=0
EXTRACT: note_on channel=9 note=82 velocity=0 time=0
EXTRACT: note_on channel=15 note=29 velocity=0 time=0
EXTRACT: note_on channel=7 note=58 velocity=92 time=0.0069444375
EXTRACT: note_on channel=8 note=58 velocity=92 time=0
EXTRACT: note_on channel=9 note=82 velocity=92 time=0
EXTRACT: note_on channel=9 note=40 velocity=92 time=0
EXTRACT: note_on channel=9 note=42 velocity=92 time=0
EXTRACT: note_on channel=15 note=31 velocity=92 time=0
EXTRACT: note_on channel=0 note=74 velocity=127 time=0.041666625
EXTRACT: note_on channel=9 note=40 velocity=0 time=0.0347221875
EXTRACT: note_on channel=9 note=42 velocity=0 time=0
EXTRACT: note_on channel=7 note=58 velocity=0 time=0.08333325
EXTRACT: note_on channel=8 note=58 velocity=0 time=0
EXTRACT: note_on channel=7 note=60 velocity=92 time=0.0069444375
EXTRACT: note_on channel=8 note=60 velocity=92 time=0
EXTRACT: note_on channel=9 note=82 velocity=0 time=0.0347221875
EXTRACT: note_on channel=9 note=82 velocity=92 time=0.0069444375
EXTRACT: note_on channel=7 note=60 velocity=0 time=0.1180554375
EXTRACT: note_on channel=8 note=60 velocity=0 time=0
EXTRACT: note_on channel=9 note=82 velocity=0 time=0
EXTRACT: note_on channel=15 note=31 velocity=0 time=0
EXTRACT: note_on channel=7 note=62 velocity=92 time=0.0069444375
EXTRACT: note_on channel=8 note=62 velocity=92 time=0
EXTRACT: note_on channel=9 note=82 velocity=92 time=0
EXTRACT: note_on channel=9 note=46 velocity=92 time=0
EXTRACT: note_on channel=15 note=34 velocity=92 time=0
EXTRACT: note_on channel=0 note=74 velocity=0 time=0.0347221875
EXTRACT: note_on channel=0 note=72 velocity=127 time=0.0069444375
EXTRACT: note_on channel=9 note=46 velocity=0 time=0.0347221875
EXTRACT: note_on channel=3 note=57 velocity=0 time=0.0902776875
EXTRACT: note_on channel=3 note=69 velocity=0 time=0
EXTRACT: note_on channel=0 note=72 velocity=0 time=0.0347221875
EXTRACT: note_on channel=9 note=82 velocity=0 time=0
EXTRACT: note_on channel=0 note=70 velocity=127 time=0.0069444375
EXTRACT: note_on channel=9 note=82 velocity=92 time=0
EXTRACT: note_on channel=0 note=70 velocity=0 time=0.1180554375
EXTRACT: note_on channel=7 note=62 velocity=0 time=0
EXTRACT: note_on channel=8 note=62 velocity=0 time=0
EXTRACT: note_on channel=9 note=82 velocity=0 time=0
EXTRACT: note_on channel=15 note=34 velocity=0 time=0
EXTRACT: note_on channel=3 note=58 velocity=92 time=0.0069444375
EXTRACT: note_on channel=3 note=63 velocity=92 time=0
EXTRACT: note_on channel=3 note=67 velocity=92 time=0
EXTRACT: note_on channel=9 note=82 velocity=92 time=0
EXTRACT: note_on channel=9 note=35 velocity=92 time=0
EXTRACT: note_on channel=9 note=42 velocity=92 time=0
EXTRACT: note_on channel=15 note=36 velocity=92 time=0
EXTRACT: note_on channel=0 note=70 velocity=127 time=0.041666625
EXTRACT: note_on channel=7 note=58 velocity=92 time=0
EXTRACT: note_on channel=8 note=58 velocity=92 time=0
EXTRACT: note_on channel=9 note=35 velocity=0 time=0.0347221875
EXTRACT: note_on channel=9 note=42 velocity=0 time=0
EXTRACT: note_on channel=7 note=58 velocity=0 time=0.124999875
EXTRACT: note_on channel=8 note=58 velocity=0 time=0
EXTRACT: note_on channel=9 note=82 velocity=0 time=0
EXTRACT: note_on channel=7 note=60 velocity=92 time=0.0069444375
EXTRACT: note_on channel=8 note=60 velocity=92 time=0
EXTRACT: note_on channel=9 note=82 velocity=92 time=0
EXTRACT: note_on channel=7 note=60 velocity=0 time=0.1180554375
EXTRACT: note_on channel=8 note=60 velocity=0 time=0
EXTRACT: note_on channel=9 note=82 velocity=0 time=0
EXTRACT: note_on channel=7 note=62 velocity=92 time=0.0069444375
EXTRACT: note_on channel=8 note=62 velocity=92 time=0
EXTRACT: note_on channel=9 note=82 velocity=92 time=0
EXTRACT: note_on channel=9 note=42 velocity=92 time=0
EXTRACT: note_on channel=0 note=70 velocity=0 time=0.0347221875
EXTRACT: note_on channel=0 note=72 velocity=127 time=0.0069444375
EXTRACT: note_on channel=9 note=42 velocity=0 time=0.0347221875
EXTRACT: note_on channel=7 note=62 velocity=0 time=0.08333325
EXTRACT: note_on channel=8 note=62 velocity=0 time=0
EXTRACT: note_on channel=7 note=58 velocity=92 time=0.0069444375
EXTRACT: note_on channel=8 note=58 velocity=92 time=0
EXTRACT: note_on channel=9 note=82 velocity=0 time=0.0347221875
EXTRACT: note_on channel=9 note=82 velocity=92 time=0.0069444375
EXTRACT: note_on channel=7 note=58 velocity=0 time=0.1180554375
EXTRACT: note_on channel=8 note=58 velocity=0 time=0
EXTRACT: note_on channel=9 note=82 velocity=0 time=0
EXTRACT: note_on channel=7 note=60 velocity=92 time=0.0069444375
EXTRACT: note_on channel=8 note=60 velocity=92 time=0
EXTRACT: note_on channel=9 note=82 velocity=92 time=0
EXTRACT: note_on channel=9 note=40 velocity=92 time=0
EXTRACT: note_on channel=9 note=42 velocity=92 time=0
EXTRACT: note_on channel=9 note=40 velocity=0 time=0.0763888125
EXTRACT: note_on channel=9 note=42 velocity=0 time=0
EXTRACT: note_on channel=7 note=60 velocity=0 time=0.08333325
EXTRACT: note_on channel=8 note=60 velocity=0 time=0
EXTRACT: note_on channel=7 note=62 velocity=92 time=0.0069444375
EXTRACT: note_on channel=8 note=62 velocity=92 time=0
EXTRACT: note_on channel=9 note=82 velocity=0 time=0.0347221875
EXTRACT: note_on channel=9 note=82 velocity=92 time=0.0069444375
EXTRACT: note_on channel=0 note=72 velocity=0 time=0.1180554375
EXTRACT: note_on channel=7 note=62 velocity=0 time=0
EXTRACT: note_on channel=8 note=62 velocity=0 time=0
EXTRACT: note_on channel=9 note=82 velocity=0 time=0
EXTRACT: note_on channel=7 note=58 velocity=92 time=0.0069444375
EXTRACT: note_on channel=8 note=58 velocity=92 time=0
EXTRACT: note_on channel=9 note=82 velocity=92 time=0
EXTRACT: note_on channel=9 note=42 velocity=92 time=0
EXTRACT: note_on channel=9 note=42 velocity=0 time=0.0763888125
EXTRACT: note_on channel=7 note=58 velocity=0 time=0.08333325
EXTRACT: note_on channel=8 note=58 velocity=0 time=0
EXTRACT: note_on channel=15 note=36 velocity=0 time=0
EXTRACT: note_on channel=3 note=58 velocity=0 time=0.0069444375
EXTRACT: note_on channel=3 note=63 velocity=0 time=0
EXTRACT: note_on channel=3 note=67 velocity=0 time=0
EXTRACT: note_on channel=7 note=60 velocity=92 time=0
EXTRACT: note_on channel=8 note=60 velocity=92 time=0
EXTRACT: note_on channel=15 note=34 velocity=92 time=0
EXTRACT: note_on channel=9 note=82 velocity=0 time=0.0347221875
EXTRACT: note_on channel=9 note=82 velocity=92 time=0.0069444375
EXTRACT: note_on channel=7 note=60 velocity=0 time=0.1180554375
EXTRACT: note_on channel=8 note=60 velocity=0 time=0
EXTRACT: note_on channel=9 note=82 velocity=0 time=0
EXTRACT: note_on channel=15 note=34 velocity=0 time=0
EXTRACT: note_on channel=3 note=72 velocity=92 time=0.0069444375
EXTRACT: note_on channel=7 note=62 velocity=92 time=0
EXTRACT: note_on channel=8 note=62 velocity=92 time=0
EXTRACT: note_on channel=9 note=35 velocity=92 time=0
EXTRACT: note_on channel=9 note=42 velocity=92 time=0
EXTRACT: note_on channel=15 note=36 velocity=92 time=0
EXTRACT: note_on channel=9 note=35 velocity=0 time=0.0763888125
EXTRACT: note_on channel=9 note=42 velocity=0 time=0
EXTRACT: note_on channel=7 note=62 velocity=0 time=0.08333325
EXTRACT: note_on channel=0 note=74 velocity=127 time=0.0069444375
EXTRACT: note_on channel=7 note=58 velocity=92 time=0
EXTRACT: note_on channel=8 note=62 velocity=0 time=0.0347221875
EXTRACT: note_on channel=9 note=82 velocity=92 time=0.0069444375
EXTRACT: note_on channel=9 note=82 velocity=0 time=0.0763888125
EXTRACT: note_on channel=7 note=58 velocity=0 time=0.041666625
EXTRACT: note_on channel=15 note=36 velocity=0 time=0
EXTRACT: note_on channel=7 note=60 velocity=92 time=0.0069444375
EXTRACT: note_on channel=9 note=35 velocity=92 time=0
EXTRACT: note_on channel=9 note=46 velocity=92 time=0
EXTRACT: note_on channel=15 note=22 velocity=92 time=0
EXTRACT: note_on channel=9 note=35 velocity=0 time=0.0763888125
EXTRACT: note_on channel=9 note=46 velocity=0 time=0
EXTRACT: note_on channel=7 note=60 velocity=0 time=0.08333325
EXTRACT: note_on channel=7 note=62 velocity=92 time=0.0069444375
EXTRACT: note_on channel=9 note=82 velocity=92 time=0.041666625
EXTRACT: note_on channel=0 note=74 velocity=0 time=0.0347221875
EXTRACT: note_on channel=0 note=74 velocity=127 time=0.0069444375
EXTRACT: note_on channel=0 note=74 velocity=0 time=0.0763888125
EXTRACT: note_on channel=7 note=62 velocity=0 time=0
EXTRACT: note_on channel=9 note=82 velocity=0 time=0
EXTRACT: note_on channel=15 note=22 velocity=0 time=0
EXTRACT: note_on channel=7 note=58 velocity=92 time=0.0069444375
EXTRACT: note_on channel=9 note=82 velocity=92 time=0
EXTRACT: note_on channel=9 note=40 velocity=92 time=0
EXTRACT: note_on channel=9 note=42 velocity=92 time=0
EXTRACT: note_on channel=15 note=24 velocity=92 time=0
EXTRACT: note_on channel=0 note=74 velocity=127 time=0.041666625
EXTRACT: note_on channel=9 note=40 velocity=0 time=0.0347221875
EXTRACT: note_on channel=9 note=42 velocity=0 time=0
EXTRACT: note_on channel=7 note=58 velocity=0 time=0.08333325
EXTRACT: note_on channel=7 note=60 velocity=92 time=0.0069444375
EXTRACT: note_on channel=9 note=82 velocity=0 time=0.0347221875
EXTRACT: note_on channel=9 note=82 velocity=92 time=0.0069444375
EXTRACT: note_on channel=7 note=60 velocity=0 time=0.1180554375
EXTRACT: note_on channel=9 note=82 velocity=0 time=0
EXTRACT: note_on channel=15 note=24 velocity=0 time=0
EXTRACT: note_on channel=7 note=62 velocity=92 time=0.0069444375
EXTRACT: note_on channel=9 note=82 velocity=92 time=0
EXTRACT: note_on channel=9 note=46 velocity=92 time=0
EXTRACT: note_on channel=15 note=26 velocity=92 time=0
EXTRACT: note_on channel=0 note=74 velocity=0 time=0.0763888125
EXTRACT: note_on channel=9 note=46 velocity=0 time=0
EXTRACT: note_on channel=0 note=72 velocity=127 time=0.0069444375
EXTRACT: note_on channel=3 note=72 velocity=0 time=0.08333325
EXTRACT: note_on channel=9 note=82 velocity=0 time=0.0347221875
EXTRACT: note_on channel=9 note=82 velocity=92 time=0.0069444375
EXTRACT: note_on channel=0 note=72 velocity=0 time=0.0347221875
EXTRACT: note_on channel=0 note=70 velocity=127 time=0.0069444375
EXTRACT: note_on channel=0 note=70 velocity=0 time=0.0763888125
EXTRACT: note_on channel=7 note=62 velocity=0 time=0
EXTRACT: note_on channel=9 note=82 velocity=0 time=0
EXTRACT: note_on channel=15 note=26 velocity=0 time=0
EXTRACT: note_on channel=3 note=70 velocity=92 time=0.0069444375
EXTRACT: note_on channel=9 note=82 velocity=92 time=0
EXTRACT: note_on channel=9 note=35 velocity=92 time=0
EXTRACT: note_on channel=9 note=42 velocity=92 time=0
EXTRACT: note_on channel=15 note=27 velocity=92 time=0
EXTRACT: note_on channel=7 note=58 velocity=92 time=0.041666625
EXTRACT: note_on channel=9 note=35 velocity=0 time=0.0347221875
EXTRACT: note_on channel=9 note=42 velocity=0 time=0
EXTRACT: note_on channel=0 note=70 velocity=127 time=0.0069444375
EXTRACT: note_on channel=7 note=58 velocity=0 time=0.1180554375
EXTRACT: note_on channel=9 note=82 velocity=0 time=0
EXTRACT: note_on channel=7 note=60 velocity=92 time=0.0069444375
EXTRACT: note_on channel=9 note=82 velocity=92 time=0
EXTRACT: note_on channel=7 note=60 velocity=0 time=0.1180554375
EXTRACT: note_on channel=9 note=82 velocity=0 time=0
EXTRACT: note_on channel=7 note=62 velocity=92 time=0.0069444375
EXTRACT: note_on channel=9 note=82 velocity=92 time=0
EXTRACT: note_on channel=9 note=42 velocity=92 time=0
EXTRACT: note_on channel=0 note=70 velocity=0 time=0.0763888125
EXTRACT: note_on channel=9 note=42 velocity=0 time=0
EXTRACT: note_on channel=0 note=72 velocity=127 time=0.0069444375
EXTRACT: note_on channel=7 note=62 velocity=0 time=0.0763888125
EXTRACT: note_on channel=7 note=58 velocity=92 time=0.0069444375
EXTRACT: note_on channel=8 note=58 velocity=92 time=0
EXTRACT: note_on channel=9 note=82 velocity=0 time=0.0347221875
EXTRACT: note_on channel=9 note=82 velocity=92 time=0.0069444375
EXTRACT: note_on channel=7 note=58 velocity=0 time=0.1180554375
EXTRACT: note_on channel=8 note=58 velocity=0 time=0
EXTRACT: note_on channel=9 note=82 velocity=0 time=0
EXTRACT: note_on channel=7 note=60 velocity=92 time=0.0069444375
EXTRACT: note_on channel=8 note=60 velocity=92 time=0
EXTRACT: note_on channel=9 note=82 velocity=92 time=0
EXTRACT: note_on channel=9 note=40 velocity=92 time=0
EXTRACT: note_on channel=9 note=42 velocity=92 time=0
EXTRACT: note_on channel=9 note=40 velocity=0 time=0.0763888125
EXTRACT: note_on channel=9 note=42 velocity=0 time=0
EXTRACT: note_on channel=7 note=60 velocity=0 time=0.08333325
EXTRACT: note_on channel=8 note=60 velocity=0 time=0
EXTRACT: note_on channel=7 note=62 velocity=92 time=0.0069444375
EXTRACT: note_on channel=8 note=62 velocity=92 time=0
EXTRACT: note_on channel=9 note=82 velocity=0 time=0.0347221875
EXTRACT: note_on channel=9 note=82 velocity=92 time=0.0069444375
EXTRACT: note_on channel=7 note=62 velocity=0 time=0.1180554375
EXTRACT: note_on channel=8 note=62 velocity=0 time=0
EXTRACT: note_on channel=9 note=82 velocity=0 time=0
EXTRACT: note_on channel=7 note=58 velocity=92 time=0.0069444375
EXTRACT: note_on channel=8 note=58 velocity=92 time=0
EXTRACT: note_on channel=9 note=82 velocity=92 time=0
EXTRACT: note_on channel=9 note=42 velocity=92 time=0
EXTRACT: note_on channel=9 note=42 velocity=0 time=0.0763888125
EXTRACT: note_on channel=7 note=58 velocity=0 time=0.08333325
EXTRACT: note_on channel=8 note=58 velocity=0 time=0
EXTRACT: note_on channel=15 note=27 velocity=0 time=0
EXTRACT: note_on channel=3 note=70 velocity=0 time=0.0069444375
EXTRACT: note_on channel=7 note=60 velocity=92 time=0
EXTRACT: note_on channel=8 note=60 velocity=92 time=0
EXTRACT: note_on channel=15 note=27 velocity=92 time=0
EXTRACT: note_on channel=9 note=82 velocity=0 time=0.0347221875
EXTRACT: note_on channel=9 note=82 velocity=92 time=0.0069444375
EXTRACT: note_on channel=0 note=72 velocity=0 time=0.013888875
EXTRACT: note_on channel=7 note=60 velocity=0 time=0.1041665625
EXTRACT: note_on channel=8 note=60 velocity=0 time=0
EXTRACT: note_on channel=9 note=82 velocity=0 time=0
EXTRACT: note_on channel=15 note=27 velocity=0 time=0
EXTRACT: note_on channel=3 note=60 velocity=92 time=0.0069444375
EXTRACT: note_on channel=3 note=72 velocity=92 time=0
EXTRACT: note_on channel=7 note=62 velocity=92 time=0
EXTRACT: note_on channel=8 note=62 velocity=92 time=0
EXTRACT: note_on channel=9 note=35 velocity=92 time=0
EXTRACT: note_on channel=9 note=42 velocity=92 time=0
EXTRACT: note_on channel=15 note=27 velocity=92 time=0
EXTRACT: note_on channel=9 note=35 velocity=0 time=0.0763888125
EXTRACT: note_on channel=9 note=42 velocity=0 time=0
EXTRACT: note_on channel=15 note=27 velocity=0 time=0
EXTRACT: note_on channel=7 note=62 velocity=0 time=0.08333325
EXTRACT: note_on channel=8 note=62 velocity=0 time=0
EXTRACT: note_on channel=7 note=58 velocity=92 time=0.0069444375
EXTRACT: note_on channel=8 note=58 velocity=92 time=0
EXTRACT: note_on channel=9 note=82 velocity=92 time=0.041666625
EXTRACT: note_on channel=9 note=82 velocity=0 time=0.0763888125
EXTRACT: note_on channel=7 note=58 velocity=0 time=0.041666625
EXTRACT: note_on channel=8 note=58 velocity=0 time=0
EXTRACT: note_on channel=7 note=60 velocity=92 time=0.0069444375
EXTRACT: note_on channel=8 note=60 velocity=92 time=0
EXTRACT: note_on channel=9 note=35 velocity=92 time=0
EXTRACT: note_on channel=9 note=42 velocity=92 time=0
EXTRACT: note_on channel=15 note=27 velocity=92 time=0
EXTRACT: note_on channel=9 note=35 velocity=0 time=0.0763888125
EXTRACT: note_on channel=9 note=42 velocity=0 time=0
EXTRACT: note_on channel=7 note=60 velocity=0 time=0.08333325
EXTRACT: note_on channel=8 note=60 velocity=0 time=0
EXTRACT: note_on channel=7 note=62 velocity=92 time=0.0069444375
EXTRACT: note_on channel=8 note=62 velocity=92 time=0
EXTRACT: note_on channel=9 note=82 velocity=92 time=0.041666625
EXTRACT: note_on channel=3 note=60 velocity=0 time=0.013888875
EXTRACT: note_on channel=3 note=72 velocity=0 time=0
EXTRACT: note_on channel=7 note=62 velocity=0 time=0.1041665625
EXTRACT: note_on channel=8 note=62 velocity=0 time=0
EXTRACT: note_on channel=9 note=82 velocity=0 time=0
EXTRACT: note_on channel=15 note=27 velocity=0 time=0
EXTRACT: note_on channel=3 note=62 velocity=92 time=0.0069444375
EXTRACT: note_on channel=3 note=74 velocity=92 time=0
EXTRACT: note_on channel=7 note=58 velocity=92 time=0
EXTRACT: note_on channel=8 note=58 velocity=92 time=0
EXTRACT: note_on channel=9 note=82 velocity=92 time=0
EXTRACT: note_on channel=9 note=40 velocity=92 time=0
EXTRACT: note_on channel=9 note=42 velocity=92 time=0
EXTRACT: note_on channel=15 note=29 velocity=92 time=0
EXTRACT: note_on channel=9 note=40 velocity=0 time=0.0763888125
EXTRACT: note_on channel=9 note=42 velocity=0 time=0
EXTRACT: note_on channel=7 note=58 velocity=0 time=0.08333325
EXTRACT: note_on channel=8 note=58 velocity=0 time=0
EXTRACT: note_on channel=15 note=29 velocity=0 time=0
EXTRACT: note_on channel=7 note=60 velocity=92 time=0.0069444375
EXTRACT: note_on channel=8 note=60 velocity=92 time=0
EXTRACT: note_on channel=15 note=31 velocity=92 time=0
EXTRACT: note_on channel=9 note=82 velocity=0 time=0.0347221875
EXTRACT: note_on channel=9 note=82 velocity=92 time=0.0069444375
EXTRACT: note_on channel=7 note=60 velocity=0 time=0.1180554375
EXTRACT: note_on channel=8 note=60 velocity=0 time=0
EXTRACT: note_on channel=9 note=82 velocity=0 time=0
EXTRACT: note_on channel=15 note=31 velocity=0 time=0
EXTRACT: note_on channel=7 note=62 velocity=92 time=0.0069444375
EXTRACT: note_on channel=8 note=62 velocity=92 time=0
EXTRACT: note_on channel=9 note=82 velocity=92 time=0
EXTRACT: note_on channel=9 note=42 velocity=92 time=0
EXTRACT: note_on channel=15 note=34 velocity=92 time=0
EXTRACT: note_on channel=9 note=42 velocity=0 time=0.0763888125
EXTRACT: note_on channel=15 note=34 velocity=0 time=0.08333325
EXTRACT: note_on channel=0 note=72 velocity=127 time=0.0069444375
EXTRACT: note_on channel=15 note=31 velocity=92 time=0
EXTRACT: note_on channel=9 note=82 velocity=0 time=0.0347221875
EXTRACT: note_on channel=9 note=82 velocity=92 time=0.0069444375
EXTRACT: note_on channel=3 note=62 velocity=0 time=0.013888875
EXTRACT: note_on channel=3 note=74 velocity=0 time=0
EXTRACT: note_on channel=0 note=72 velocity=0 time=0.1041665625
EXTRACT: note_on channel=7 note=62 velocity=0 time=0
EXTRACT: note_on channel=8 note=62 velocity=0 time=0
EXTRACT: note_on channel=9 note=82 velocity=0 time=0
EXTRACT: note_on channel=15 note=31 velocity=0 time=0
EXTRACT: note_on channel=0 note=74 velocity=127 time=0.0069444375
EXTRACT: note_on channel=4 note=55 velocity=92 time=0
EXTRACT: note_on channel=4 note=58 velocity=92 time=0
EXTRACT: note_on channel=9 note=70 velocity=92 time=0
EXTRACT: note_on channel=9 note=81 velocity=92 time=0
EXTRACT: note_on channel=9 note=35 velocity=92 time=0
EXTRACT: note_on channel=9 note=42 velocity=92 time=0
EXTRACT: note_on channel=15 note=34 velocity=92 time=0
EXTRACT: note_on channel=9 note=70 velocity=0 time=0.0763888125
EXTRACT: note_on channel=9 note=81 velocity=0 time=0
EXTRACT: note_on channel=9 note=35 velocity=0 time=0
EXTRACT: note_on channel=9 note=42 velocity=0 time=0
EXTRACT: note_on channel=15 note=34 velocity=0 time=0.1666665
EXTRACT: note_on channel=0 note=74 velocity=0 time=0.08333325
EXTRACT: note_on channel=4 note=55 velocity=0 time=0
EXTRACT: note_on channel=4 note=58 velocity=0 time=0
EXTRACT: note_on channel=0 note=70 velocity=127 time=0.0069444375
EXTRACT: note_on channel=4 note=53 velocity=92 time=0
EXTRACT: note_on channel=4 note=57 velocity=92 time=0
EXTRACT: note_on channel=9 note=70 velocity=92 time=0
EXTRACT: note_on channel=9 note=42 velocity=92 time=0
EXTRACT: note_on channel=9 note=70 velocity=0 time=0.0763888125
EXTRACT: note_on channel=9 note=42 velocity=0 time=0
EXTRACT: note_on channel=0 note=70 velocity=0 time=0.124999875
EXTRACT: note_on channel=0 note=74 velocity=127 time=0.0069444375
EXTRACT: note_on channel=4 note=53 velocity=0 time=0.1180554375
EXTRACT: note_on channel=4 note=57 velocity=0 time=0
EXTRACT: note_on channel=4 note=55 velocity=92 time=0.0069444375
EXTRACT: note_on channel=4 note=58 velocity=92 time=0
EXTRACT: note_on channel=9 note=70 velocity=92 time=0
EXTRACT: note_on channel=9 note=38 velocity=92 time=0
EXTRACT: note_on channel=9 note=42 velocity=92 time=0
EXTRACT: note_on channel=9 note=70 velocity=0 time=0.0763888125
EXTRACT: note_on channel=9 note=38 velocity=0 time=0
EXTRACT: note_on channel=9 note=42 velocity=0 time=0
EXTRACT: note_on channel=4 note=55 velocity=0 time=0.24999975
EXTRACT: note_on channel=4 note=58 velocity=0 time=0
EXTRACT: note_on channel=4 note=53 velocity=92 time=0.0069444375
EXTRACT: note_on channel=4 note=57 velocity=92 time=0
EXTRACT: note_on channel=9 note=70 velocity=92 time=0
EXTRACT: note_on channel=9 note=42 velocity=92 time=0
EXTRACT: note_on channel=9 note=70 velocity=0 time=0.0763888125
EXTRACT: note_on channel=9 note=42 velocity=0 time=0.08333325
EXTRACT: note_on channel=9 note=35 velocity=92 time=0.0069444375
EXTRACT: note_on channel=15 note=34 velocity=92 time=0
EXTRACT: note_on channel=4 note=53 velocity=0 time=0.1597220625
EXTRACT: note_on channel=4 note=57 velocity=0 time=0
EXTRACT: note_on channel=9 note=35 velocity=0 time=0
EXTRACT: note_on channel=15 note=34 velocity=0 time=0
EXTRACT: note_on channel=4 note=55 velocity=92 time=0.0069444375
EXTRACT: note_on channel=4 note=58 velocity=92 time=0
EXTRACT: note_on channel=9 note=70 velocity=92 time=0
EXTRACT: note_on channel=9 note=35 velocity=92 time=0
EXTRACT: note_on channel=9 note=42 velocity=92 time=0
EXTRACT: note_on channel=15 note=34 velocity=92 time=0
EXTRACT: note_on channel=0 note=74 velocity=0 time=0.0347221875
EXTRACT: note_on channel=9 note=70 velocity=0 time=0.041666625
EXTRACT: note_on channel=9 note=35 velocity=0 time=0
EXTRACT: note_on channel=9 note=42 velocity=0 time=0
EXTRACT: note_on channel=15 note=34 velocity=0 time=0.1666665
EXTRACT: note_on channel=4 note=55 velocity=0 time=0.08333325
EXTRACT: note_on channel=4 note=58 velocity=0 time=0
EXTRACT: note_on channel=4 note=53 velocity=92 time=0.0069444375
EXTRACT: note_on channel=4 note=57 velocity=92 time=0
EXTRACT: note_on channel=9 note=70 velocity=92 time=0
EXTRACT: note_on channel=9 note=42 velocity=92 time=0
EXTRACT: note_on channel=9 note=70 velocity=0 time=0.0763888125
EXTRACT: note_on channel=9 note=42 velocity=0 time=0
EXTRACT: note_on channel=4 note=53 velocity=0 time=0.24999975
EXTRACT: note_on channel=4 note=57 velocity=0 time=0
EXTRACT: note_on channel=4 note=55 velocity=92 time=0.0069444375
EXTRACT: note_on channel=4 note=58 velocity=92 time=0
EXTRACT: note_on channel=9 note=70 velocity=92 time=0
EXTRACT: note_on channel=9 note=38 velocity=92 time=0
EXTRACT: note_on channel=9 note=42 velocity=92 time=0
EXTRACT: note_on channel=0 note=70 velocity=127 time=0.041666625
EXTRACT: note_on channel=9 note=70 velocity=0 time=0.0347221875
EXTRACT: note_on channel=9 note=38 velocity=0 time=0
EXTRACT: note_on channel=9 note=42 velocity=0 time=0
EXTRACT: note_on channel=0 note=70 velocity=0 time=0.124999875
EXTRACT: note_on channel=0 note=69 velocity=127 time=0.0069444375
EXTRACT: note_on channel=4 note=55 velocity=0 time=0.1180554375
EXTRACT: note_on channel=4 note=58 velocity=0 time=0
EXTRACT: note_on channel=4 note=53 velocity=92 time=0.0069444375
EXTRACT: note_on channel=4 note=57 velocity=92 time=0
EXTRACT: note_on channel=9 note=70 velocity=92 time=0
EXTRACT: note_on channel=9 note=42 velocity=92 time=0
EXTRACT: note_on channel=9 note=70 velocity=0 time=0.0763888125
EXTRACT: note_on channel=0 note=69 velocity=0 time=0.08333325
EXTRACT: note_on channel=9 note=42 velocity=0 time=0
EXTRACT: note_on channel=0 note=70 velocity=127 time=0.0069444375
EXTRACT: note_on channel=9 note=35 velocity=92 time=0
EXTRACT: note_on channel=15 note=34 velocity=92 time=0
EXTRACT: note_on channel=0 note=70 velocity=0 time=0.1597220625
EXTRACT: note_on channel=4 note=53 velocity=0 time=0
EXTRACT: note_on channel=4 note=57 velocity=0 time=0
EXTRACT: note_on channel=9 note=35 velocity=0 time=0
EXTRACT: note_on channel=15 note=34 velocity=0 time=0
EXTRACT: note_on channel=4 note=53 velocity=92 time=0.0069444375
EXTRACT: note_on channel=4 note=58 velocity=92 time=0
EXTRACT: note_on channel=9 note=70 velocity=92 time=0
EXTRACT: note_on channel=9 note=35 velocity=92 time=0
EXTRACT: note_on channel=9 note=42 velocity=92 time=0
EXTRACT: note_on channel=15 note=31 velocity=92 time=0
EXTRACT: note_on channel=0 note=72 velocity=127 time=0.041666625
EXTRACT: note_on channel=9 note=70 velocity=0 time=0.0347221875
EXTRACT: note_on channel=9 note=35 velocity=0 time=0
EXTRACT: note_on channel=9 note=42 velocity=0 time=0
EXTRACT: note_on channel=15 note=31 velocity=0 time=0.1666665
EXTRACT: note_on channel=4 note=53 velocity=0 time=0.08333325
EXTRACT: note_on channel=4 note=58 velocity=0 time=0
EXTRACT: note_on channel=4 note=50 velocity=92 time=0.0069444375
EXTRACT: note_on channel=4 note=55 velocity=92 time=0
EXTRACT: note_on channel=9 note=70 velocity=92 time=0
EXTRACT: note_on channel=9 note=42 velocity=92 time=0
EXTRACT: note_on channel=9 note=70 velocity=0 time=0.0763888125
EXTRACT: note_on channel=9 note=42 velocity=0 time=0
EXTRACT: note_on channel=4 note=50 velocity=0 time=0.24999975
EXTRACT: note_on channel=4 note=55 velocity=0 time=0
EXTRACT: note_on channel=4 note=53 velocity=92 time=0.0069444375
EXTRACT: note_on channel=4 note=58 velocity=92 time=0
EXTRACT: note_on channel=9 note=70 velocity=92 time=0
EXTRACT: note_on channel=9 note=38 velocity=92 time=0
EXTRACT: note_on channel=9 note=42 velocity=92 time=0
EXTRACT: note_on channel=9 note=70 velocity=0 time=0.0763888125
EXTRACT: note_on channel=9 note=38 velocity=0 time=0
EXTRACT: note_on channel=9 note=42 velocity=0 time=0
EXTRACT: note_on channel=4 note=53 velocity=0 time=0.24999975
EXTRACT: note_on channel=4 note=58 velocity=0 time=0
EXTRACT: note_on channel=4 note=50 velocity=92 time=0.0069444375
EXTRACT: note_on channel=4 note=55 velocity=92 time=0
EXTRACT: note_on channel=9 note=70 velocity=92 time=0
EXTRACT: note_on channel=9 note=42 velocity=92 time=0
EXTRACT: note_on channel=9 note=70 velocity=0 time=0.0763888125
EXTRACT: note_on channel=0 note=72 velocity=0 time=0.041666625
EXTRACT: note_on channel=9 note=42 velocity=0 time=0.041666625
EXTRACT: note_on channel=9 note=35 velocity=92 time=0.0069444375
EXTRACT: note_on channel=15 note=31 velocity=92 time=0
EXTRACT: note_on channel=4 note=50 velocity=0 time=0.1597220625
EXTRACT: note_on channel=4 note=55 velocity=0 time=0
EXTRACT: note_on channel=9 note=35 velocity=0 time=0
EXTRACT: note_on channel=15 note=31 velocity=0 time=0
EXTRACT: note_on channel=4 note=53 velocity=92 time=0.0069444375
EXTRACT: note_on channel=4 note=58 velocity=92 time=0
EXTRACT: note_on channel=9 note=70 velocity=92 time=0
EXTRACT: note_on channel=9 note=35 velocity=92 time=0
EXTRACT: note_on channel=9 note=42 velocity=92 time=0
EXTRACT: note_on channel=15 note=31 velocity=92 time=0
EXTRACT: note_on channel=9 note=70 velocity=0 time=0.0763888125
EXTRACT: note_on channel=9 note=35 velocity=0 time=0
EXTRACT: note_on channel=9 note=42 velocity=0 time=0
EXTRACT: note_on channel=15 note=31 velocity=0 time=0.1666665
EXTRACT: note_on channel=4 note=53 velocity=0 time=0.08333325
EXTRACT: note_on channel=4 note=58 velocity=0 time=0
EXTRACT: note_on channel=4 note=50 velocity=92 time=0.0069444375
EXTRACT: note_on channel=4 note=55 velocity=92 time=0
EXTRACT: note_on channel=9 note=70 velocity=92 time=0
EXTRACT: note_on channel=9 note=42 velocity=92 time=0
EXTRACT: note_on channel=9 note=70 velocity=0 time=0.0763888125
EXTRACT: note_on channel=9 note=42 velocity=0 time=0
EXTRACT: note_on channel=4 note=50 velocity=0 time=0.24999975
EXTRACT: note_on channel=4 note=55 velocity=0 time=0
EXTRACT: note_on channel=4 note=53 velocity=92 time=0.0069444375
EXTRACT: note_on channel=4 note=58 velocity=92 time=0
EXTRACT: note_on channel=9 note=70 velocity=92 time=0
EXTRACT: note_on channel=9 note=38 velocity=92 time=0
EXTRACT: note_on channel=9 note=42 velocity=92 time=0
EXTRACT: note_on channel=9 note=70 velocity=0 time=0.0763888125
EXTRACT: note_on channel=9 note=38 velocity=0 time=0
EXTRACT: note_on channel=9 note=42 velocity=0 time=0
EXTRACT: note_on channel=4 note=53 velocity=0 time=0.24999975
EXTRACT: note_on channel=4 note=58 velocity=0 time=0
EXTRACT: note_on channel=4 note=50 velocity=92 time=0.0069444375
EXTRACT: note_on channel=4 note=55 velocity=92 time=0
EXTRACT: note_on channel=9 note=70 velocity=92 time=0
EXTRACT: note_on channel=9 note=42 velocity=92 time=0
EXTRACT: note_on channel=9 note=70 velocity=0 time=0.0763888125
EXTRACT: note_on channel=9 note=42 velocity=0 time=0.08333325
EXTRACT: note_on channel=9 note=35 velocity=92 time=0.0069444375
EXTRACT: note_on channel=15 note=31 velocity=92 time=0
EXTRACT: note_on channel=0 note=70 velocity=127 time=0.08333325
EXTRACT: note_on channel=4 note=50 velocity=0 time=0.0763888125
EXTRACT: note_on channel=4 note=55 velocity=0 time=0
EXTRACT: note_on channel=9 note=35 velocity=0 time=0
EXTRACT: note_on channel=15 note=31 velocity=0 time=0
EXTRACT: note_on channel=4 note=55 velocity=92 time=0.0069444375
EXTRACT: note_on channel=4 note=58 velocity=92 time=0
EXTRACT: note_on channel=9 note=70 velocity=92 time=0
EXTRACT: note_on channel=9 note=35 velocity=92 time=0
EXTRACT: note_on channel=9 note=42 velocity=92 time=0
EXTRACT: note_on channel=15 note=34 velocity=92 time=0
EXTRACT: note_on channel=9 note=70 velocity=0 time=0.0763888125
EXTRACT: note_on channel=9 note=35 velocity=0 time=0
EXTRACT: note_on channel=9 note=42 velocity=0 time=0
EXTRACT: note_on channel=15 note=34 velocity=0 time=0.1666665
EXTRACT: note_on channel=4 note=55 velocity=0 time=0.08333325
EXTRACT: note_on channel=4 note=58 velocity=0 time=0
EXTRACT: note_on channel=4 note=53 velocity=92 time=0.0069444375
EXTRACT: note_on channel=4 note=57 velocity=92 time=0
EXTRACT: note_on channel=9 note=70 velocity=92 time=0
EXTRACT: note_on channel=9 note=42 velocity=92 time=0
EXTRACT: note_on channel=0 note=70 velocity=0 time=0.0347221875
EXTRACT: note_on channel=0 note=70 velocity=127 time=0.0069444375
EXTRACT: note_on channel=9 note=70 velocity=0 time=0.0347221875
EXTRACT: note_on channel=9 note=42 velocity=0 time=0
EXTRACT: note_on channel=4 note=53 velocity=0 time=0.24999975
EXTRACT: note_on channel=4 note=57 velocity=0 time=0
EXTRACT: note_on channel=4 note=55 velocity=92 time=0.0069444375
EXTRACT: note_on channel=4 note=58 velocity=92 time=0
EXTRACT: note_on channel=9 note=70 velocity=92 time=0
EXTRACT: note_on channel=9 note=38 velocity=92 time=0
EXTRACT: note_on channel=9 note=42 velocity=92 time=0
EXTRACT: note_on channel=9 note=70 velocity=0 time=0.0763888125
EXTRACT: note_on channel=9 note=38 velocity=0 time=0
EXTRACT: note_on channel=9 note=42 velocity=0 time=0
EXTRACT: note_on channel=0 note=70 velocity=0 time=0.041666625
EXTRACT: note_on channel=0 note=70 velocity=127 time=0.1736109375
EXTRACT: note_on channel=4 note=55 velocity=0 time=0.0347221875
EXTRACT: note_on channel=4 note=58 velocity=0 time=0
EXTRACT: note_on channel=4 note=53 velocity=92 time=0.0069444375
EXTRACT: note_on channel=4 note=57 velocity=92 time=0
EXTRACT: note_on channel=9 note=70 velocity=92 time=0
EXTRACT: note_on channel=9 note=42 velocity=92 time=0
EXTRACT: note_on channel=9 note=70 velocity=0 time=0.0763888125
EXTRACT: note_on channel=0 note=70 velocity=0 time=0.041666625
EXTRACT: note_on channel=0 note=70 velocity=127 time=0.0069444375
EXTRACT: note_on channel=9 note=42 velocity=0 time=0.0347221875
EXTRACT: note_on channel=9 note=35 velocity=92 time=0.0069444375
EXTRACT: note_on channel=15 note=34 velocity=92 time=0
EXTRACT: note_on channel=0 note=70 velocity=0 time=0.1597220625
EXTRACT: note_on channel=4 note=53 velocity=0 time=0
EXTRACT: note_on channel=4 note=57 velocity=0 time=0
EXTRACT: note_on channel=9 note=35 velocity=0 time=0
EXTRACT: note_on channel=15 note=34 velocity=0 time=0
EXTRACT: note_on channel=4 note=55 velocity=92 time=0.0069444375
EXTRACT: note_on channel=4 note=58 velocity=92 time=0
EXTRACT: note_on channel=9 note=70 velocity=92 time=0
EXTRACT: note_on channel=9 note=35 velocity=92 time=0
EXTRACT: note_on channel=9 note=42 velocity=92 time=0
EXTRACT: note_on channel=15 note=34 velocity=92 time=0
EXTRACT: note_on channel=0 note=72 velocity=127 time=0.041666625
EXTRACT: note_on channel=9 note=70 velocity=0 time=0.0347221875
EXTRACT: note_on channel=9 note=35 velocity=0 time=0
EXTRACT: note_on channel=9 note=42 velocity=0 time=0
EXTRACT: note_on channel=15 note=34 velocity=0 time=0.1666665
EXTRACT: note_on channel=4 note=55 velocity=0 time=0.08333325
EXTRACT: note_on channel=4 note=58 velocity=0 time=0
EXTRACT: note_on channel=4 note=53 velocity=92 time=0.0069444375
EXTRACT: note_on channel=4 note=57 velocity=92 time=0
EXTRACT: note_on channel=9 note=70 velocity=92 time=0
EXTRACT: note_on channel=9 note=42 velocity=92 time=0
EXTRACT: note_on channel=9 note=70 velocity=0 time=0.0763888125
EXTRACT: note_on channel=9 note=42 velocity=0 time=0
EXTRACT: note_on channel=4 note=53 velocity=0 time=0.24999975
EXTRACT: note_on channel=4 note=57 velocity=0 time=0
EXTRACT: note_on channel=4 note=55 velocity=92 time=0.0069444375
EXTRACT: note_on channel=4 note=58 velocity=92 time=0
EXTRACT: note_on channel=9 note=70 velocity=92 time=0
EXTRACT: note_on channel=9 note=38 velocity=92 time=0
EXTRACT: note_on channel=9 note=42 velocity=92 time=0
EXTRACT: note_on channel=9 note=70 velocity=0 time=0.0763888125
EXTRACT: note_on channel=9 note=38 velocity=0 time=0
EXTRACT: note_on channel=9 note=42 velocity=0 time=0
EXTRACT: note_on channel=0 note=72 velocity=0 time=0.24999975
EXTRACT: note_on channel=4 note=55 velocity=0 time=0
EXTRACT: note_on channel=4 note=58 velocity=0 time=0
EXTRACT: note_on channel=0 note=74 velocity=127 time=0.0069444375
EXTRACT: note_on channel=4 note=53 velocity=92 time=0
EXTRACT: note_on channel=4 note=57 velocity=92 time=0
EXTRACT: note_on channel=9 note=70 velocity=92 time=0
EXTRACT: note_on channel=9 note=42 velocity=92 time=0
EXTRACT: note_on channel=9 note=70 velocity=0 time=0.0763888125
EXTRACT: note_on channel=0 note=74 velocity=0 time=0.08333325
EXTRACT: note_on channel=9 note=42 velocity=0 time=0
EXTRACT: note_on channel=9 note=35 velocity=92 time=0.0069444375
EXTRACT: note_on channel=15 note=34 velocity=92 time=0
EXTRACT: note_on channel=4 note=53 velocity=0 time=0.1597220625
EXTRACT: note_on channel=4 note=57 velocity=0 time=0
EXTRACT: note_on channel=9 note=35 velocity=0 time=0
EXTRACT: note_on channel=15 note=34 velocity=0 time=0
EXTRACT: note_on channel=0 note=74 velocity=127 time=0.0069444375
EXTRACT: note_on channel=4 note=55 velocity=92 time=0
EXTRACT: note_on channel=4 note=60 velocity=92 time=0
EXTRACT: note_on channel=9 note=70 velocity=92 time=0
EXTRACT: note_on channel=9 note=35 velocity=92 time=0
EXTRACT: note_on channel=9 note=42 velocity=92 time=0
EXTRACT: note_on channel=15 note=29 velocity=92 time=0
EXTRACT: note_on channel=9 note=70 velocity=0 time=0.0763888125
EXTRACT: note_on channel=9 note=35 velocity=0 time=0
EXTRACT: note_on channel=9 note=42 velocity=0 time=0
EXTRACT: note_on channel=15 note=29 velocity=0 time=0.1666665
EXTRACT: note_on channel=4 note=55 velocity=0 time=0.08333325
EXTRACT: note_on channel=4 note=60 velocity=0 time=0
EXTRACT: note_on channel=4 note=53 velocity=92 time=0.0069444375
EXTRACT: note_on channel=4 note=57 velocity=92 time=0
EXTRACT: note_on channel=9 note=70 velocity=92 time=0
EXTRACT: note_on channel=9 note=42 velocity=92 time=0
EXTRACT: note_on channel=9 note=70 velocity=0 time=0.0763888125
EXTRACT: note_on channel=9 note=42 velocity=0 time=0
EXTRACT: note_on channel=0 note=74 velocity=0 time=0.041666625
EXTRACT: note_on channel=0 note=72 velocity=127 time=0.0069444375
EXTRACT: note_on channel=4 note=53 velocity=0 time=0.2013886875
EXTRACT: note_on channel=4 note=57 velocity=0 time=0
EXTRACT: note_on channel=4 note=55 velocity=92 time=0.0069444375
EXTRACT: note_on channel=4 note=60 velocity=92 time=0
EXTRACT: note_on channel=9 note=70 velocity=92 time=0
EXTRACT: note_on channel=9 note=38 velocity=92 time=0
EXTRACT: note_on channel=9 note=42 velocity=92 time=0
EXTRACT: note_on channel=9 note=70 velocity=0 time=0.0763888125
EXTRACT: note_on channel=9 note=38 velocity=0 time=0
EXTRACT: note_on channel=9 note=42 velocity=0 time=0
EXTRACT: note_on channel=4 note=55 velocity=0 time=0.24999975
EXTRACT: note_on channel=4 note=60 velocity=0 time=0
EXTRACT: note_on channel=4 note=53 velocity=92 time=0.0069444375
EXTRACT: note_on channel=4 note=57 velocity=92 time=0
EXTRACT: note_on channel=9 note=70 velocity=92 time=0
EXTRACT: note_on channel=9 note=42 velocity=92 time=0
EXTRACT: note_on channel=9 note=70 velocity=0 time=0.0763888125
EXTRACT: note_on channel=9 note=42 velocity=0 time=0.08333325
EXTRACT: note_on channel=9 note=35 velocity=92 time=0.0069444375
EXTRACT: note_on channel=15 note=29 velocity=92 time=0
EXTRACT: note_on channel=4 note=53 velocity=0 time=0.1597220625
EXTRACT: note_on channel=4 note=57 velocity=0 time=0
EXTRACT: note_on channel=9 note=35 velocity=0 time=0
EXTRACT: note_on channel=15 note=29 velocity=0 time=0
EXTRACT: note_on channel=4 note=55 velocity=92 time=0.0069444375
EXTRACT: note_on channel=4 note=60 velocity=92 time=0
EXTRACT: note_on channel=9 note=70 velocity=92 time=0
EXTRACT: note_on channel=9 note=35 velocity=92 time=0
EXTRACT: note_on channel=9 note=42 velocity=92 time=0
EXTRACT: note_on channel=15 note=29 velocity=92 time=0
EXTRACT: note_on channel=9 note=70 velocity=0 time=0.0763888125
EXTRACT: note_on channel=9 note=35 velocity=0 time=0
EXTRACT: note_on channel=9 note=42 velocity=0 time=0
EXTRACT: note_on channel=15 note=29 velocity=0 time=0.1666665
EXTRACT: note_on channel=0 note=72 velocity=0 time=0.041666625
EXTRACT: note_on channel=4 note=55 velocity=0 time=0.041666625
EXTRACT: note_on channel=4 note=60 velocity=0 time=0
EXTRACT: note_on channel=4 note=53 velocity=92 time=0.0069444375
EXTRACT: note_on channel=4 note=57 velocity=92 time=0
EXTRACT: note_on channel=9 note=70 velocity=92 time=0
EXTRACT: note_on channel=9 note=42 velocity=92 time=0
EXTRACT: note_on channel=9 note=70 velocity=0 time=0.0763888125
EXTRACT: note_on channel=9 note=42 velocity=0 time=0
EXTRACT: note_on channel=4 note=53 velocity=0 time=0.24999975
EXTRACT: note_on channel=4 note=57 velocity=0 time=0
EXTRACT: note_on channel=4 note=55 velocity=92 time=0.0069444375
EXTRACT: note_on channel=4 note=60 velocity=92 time=0
EXTRACT: note_on channel=9 note=70 velocity=92 time=0
EXTRACT: note_on channel=9 note=38 velocity=92 time=0
EXTRACT: note_on channel=9 note=42 velocity=92 time=0
EXTRACT: note_on channel=9 note=70 velocity=0 time=0.0763888125
EXTRACT: note_on channel=9 note=38 velocity=0 time=0
EXTRACT: note_on channel=9 note=42 velocity=0 time=0
EXTRACT: note_on channel=4 note=55 velocity=0 time=0.24999975
EXTRACT: note_on channel=4 note=60 velocity=0 time=0
EXTRACT: note_on channel=4 note=53 velocity=92 time=0.0069444375
EXTRACT: note_on channel=4 note=57 velocity=92 time=0
EXTRACT: note_on channel=9 note=70 velocity=92 time=0
EXTRACT: note_on channel=9 note=42 velocity=92 time=0
EXTRACT: note_on channel=0 note=74 velocity=127 time=0.041666625
EXTRACT: note_on channel=9 note=70 velocity=0 time=0.0347221875
EXTRACT: note_on channel=0 note=74 velocity=0 time=0.08333325
EXTRACT: note_on channel=9 note=42 velocity=0 time=0
EXTRACT: note_on channel=0 note=70 velocity=127 time=0.0069444375
EXTRACT: note_on channel=9 note=35 velocity=92 time=0
EXTRACT: note_on channel=15 note=29 velocity=92 time=0
EXTRACT: note_on channel=0 note=70 velocity=0 time=0.1597220625
EXTRACT: note_on channel=4 note=53 velocity=0 time=0
EXTRACT: note_on channel=4 note=57 velocity=0 time=0
EXTRACT: note_on channel=9 note=35 velocity=0 time=0
EXTRACT: note_on channel=15 note=29 velocity=0 time=0
EXTRACT: note_on channel=4 note=55 velocity=92 time=0.0069444375
EXTRACT: note_on channel=4 note=58 velocity=92 time=0
EXTRACT: note_on channel=9 note=70 velocity=92 time=0
EXTRACT: note_on channel=9 note=81 velocity=92 time=0
EXTRACT: note_on channel=9 note=35 velocity=92 time=0
EXTRACT: note_on channel=9 note=42 velocity=92 time=0
EXTRACT: note_on channel=15 note=34 velocity=92 time=0
EXTRACT: note_on channel=0 note=74 velocity=127 time=0.041666625
EXTRACT: note_on channel=9 note=70 velocity=0 time=0.0347221875
EXTRACT: note_on channel=9 note=81 velocity=0 time=0
EXTRACT: note_on channel=9 note=35 velocity=0 time=0
EXTRACT: note_on channel=9 note=42 velocity=0 time=0
EXTRACT: note_on channel=0 note=74 velocity=0 time=0.124999875
EXTRACT: note_on channel=15 note=34 velocity=0 time=0.041666625
EXTRACT: note_on channel=4 note=55 velocity=0 time=0.08333325
EXTRACT: note_on channel=4 note=58 velocity=0 time=0
EXTRACT: note_on channel=4 note=53 velocity=92 time=0.0069444375
EXTRACT: note_on channel=4 note=57 velocity=92 time=0
EXTRACT: note_on channel=9 note=70 velocity=92 time=0
EXTRACT: note_on channel=9 note=42 velocity=92 time=0
EXTRACT: note_on channel=0 note=74 velocity=127 time=0.041666625
EXTRACT: note_on channel=9 note=70 velocity=0 time=0.0347221875
EXTRACT: note_on channel=9 note=42 velocity=0 time=0
EXTRACT: note_on channel=4 note=53 velocity=0 time=0.24999975
EXTRACT: note_on channel=4 note=57 velocity=0 time=0
EXTRACT: note_on channel=4 note=55 velocity=92 time=0.0069444375
EXTRACT: note_on channel=4 note=58 velocity=92 time=0
EXTRACT: note_on channel=9 note=70 velocity=92 time=0
EXTRACT: note_on channel=9 note=38 velocity=92 time=0
EXTRACT: note_on channel=9 note=42 velocity=92 time=0
EXTRACT: note_on channel=9 note=70 velocity=0 time=0.0763888125
EXTRACT: note_on channel=9 note=38 velocity=0 time=0
EXTRACT: note_on channel=9 note=42 velocity=0 time=0
EXTRACT: note_on channel=4 note=55 velocity=0 time=0.24999975
EXTRACT: note_on channel=4 note=58 velocity=0 time=0
EXTRACT: note_on channel=4 note=53 velocity=92 time=0.0069444375
EXTRACT: note_on channel=4 note=57 velocity=92 time=0
EXTRACT: note_on channel=9 note=70 velocity=92 time=0
EXTRACT: note_on channel=9 note=42 velocity=92 time=0
EXTRACT: note_on channel=0 note=74 velocity=0 time=0.0347221875
EXTRACT: note_on channel=0 note=70 velocity=127 time=0.0069444375
EXTRACT: note_on channel=9 note=70 velocity=0 time=0.0347221875
EXTRACT: note_on channel=9 note=42 velocity=0 time=0.08333325
EXTRACT: note_on channel=9 note=35 velocity=92 time=0.0069444375
EXTRACT: note_on channel=15 note=34 velocity=92 time=0
EXTRACT: note_on channel=4 note=53 velocity=0 time=0.1597220625
EXTRACT: note_on channel=4 note=57 velocity=0 time=0
EXTRACT: note_on channel=9 note=35 velocity=0 time=0
EXTRACT: note_on channel=15 note=34 velocity=0 time=0
EXTRACT: note_on channel=4 note=55 velocity=92 time=0.0069444375
EXTRACT: note_on channel=4 note=58 velocity=92 time=0
EXTRACT: note_on channel=9 note=70 velocity=92 time=0
EXTRACT: note_on channel=9 note=35 velocity=92 time=0
EXTRACT: note_on channel=9 note=42 velocity=92 time=0
EXTRACT: note_on channel=15 note=34 velocity=92 time=0
EXTRACT: note_on channel=9 note=70 velocity=0 time=0.0763888125
EXTRACT: note_on channel=9 note=35 velocity=0 time=0
EXTRACT: note_on channel=9 note=42 velocity=0 time=0
EXTRACT: note_on channel=15 note=34 velocity=0 time=0.1666665
EXTRACT: note_on channel=0 note=70 velocity=0 time=0.08333325
EXTRACT: note_on channel=4 note=55 velocity=0 time=0
EXTRACT: note_on channel=4 note=58 velocity=0 time=0
EXTRACT: note_on channel=0 note=72 velocity=127 time=0.0069444375
EXTRACT: note_on channel=4 note=53 velocity=92 time=0
EXTRACT: note_on channel=4 note=57 velocity=92 time=0
EXTRACT: note_on channel=9 note=70 velocity=92 time=0
EXTRACT: note_on channel=9 note=42 velocity=92 time=0
EXTRACT: note_on channel=9 note=70 velocity=0 time=0.0763888125
EXTRACT: note_on channel=9 note=42 velocity=0 time=0
EXTRACT: note_on channel=4 note=53 velocity=0 time=0.24999975
EXTRACT: note_on channel=4 note=57 velocity=0 time=0
EXTRACT: note_on channel=4 note=55 velocity=92 time=0.0069444375
EXTRACT: note_on channel=4 note=58 velocity=92 time=0
EXTRACT: note_on channel=9 note=70 velocity=92 time=0
EXTRACT: note_on channel=9 note=38 velocity=92 time=0
EXTRACT: note_on channel=9 note=42 velocity=92 time=0
EXTRACT: note_on channel=9 note=70 velocity=0 time=0.0763888125
EXTRACT: note_on channel=9 note=38 velocity=0 time=0
EXTRACT: note_on channel=9 note=42 velocity=0 time=0
EXTRACT: note_on channel=0 note=72 velocity=0 time=0.08333325
EXTRACT: note_on channel=0 note=69 velocity=127 time=0.0069444375
EXTRACT: note_on channel=4 note=55 velocity=0 time=0.1597220625
EXTRACT: note_on channel=4 note=58 velocity=0 time=0
EXTRACT: note_on channel=4 note=53 velocity=92 time=0.0069444375
EXTRACT: note_on channel=4 note=57 velocity=92 time=0
EXTRACT: note_on channel=9 note=70 velocity=92 time=0
EXTRACT: note_on channel=9 note=42 velocity=92 time=0
EXTRACT: note_on channel=9 note=70 velocity=0 time=0.0763888125
EXTRACT: note_on channel=0 note=69 velocity=0 time=0.041666625
EXTRACT: note_on channel=9 note=42 velocity=0 time=0.041666625
EXTRACT: note_on channel=9 note=35 velocity=92 time=0.0069444375
EXTRACT: note_on channel=15 note=34 velocity=92 time=0
EXTRACT: note_on channel=0 note=69 velocity=127 time=0.124999875
EXTRACT: note_on channel=4 note=53 velocity=0 time=0.0347221875
EXTRACT: note_on channel=4 note=57 velocity=0 time=0
EXTRACT: note_on channel=9 note=35 velocity=0 time=0
EXTRACT: note_on channel=15 note=34 velocity=0 time=0
EXTRACT: note_on channel=4 note=53 velocity=92 time=0.0069444375
EXTRACT: note_on channel=4 note=58 velocity=92 time=0
EXTRACT: note_on channel=9 note=70 velocity=92 time=0
EXTRACT: note_on channel=9 note=35 velocity=92 time=0
EXTRACT: note_on channel=9 note=42 velocity=92 time=0
EXTRACT: note_on channel=15 note=31 velocity=92 time=0
EXTRACT: note_on channel=9 note=70 velocity=0 time=0.0763888125
EXTRACT: note_on channel=9 note=35 velocity=0 time=0
EXTRACT: note_on channel=9 note=42 velocity=0 time=0
EXTRACT: note_on channel=15 note=31 velocity=0 time=0.1666665
EXTRACT: note_on channel=4 note=53 velocity=0 time=0.08333325
EXTRACT: note_on channel=4 note=58 velocity=0 time=0
EXTRACT: note_on channel=4 note=50 velocity=92 time=0.0069444375
EXTRACT: note_on channel=4 note=55 velocity=92 time=0
EXTRACT: note_on channel=9 note=70 velocity=92 time=0
EXTRACT: note_on channel=9 note=42 velocity=92 time=0
EXTRACT: note_on channel=9 note=70 velocity=0 time=0.0763888125
EXTRACT: note_on channel=9 note=42 velocity=0 time=0
EXTRACT: note_on channel=0 note=69 velocity=0 time=0.041666625
EXTRACT: note_on channel=0 note=67 velocity=127 time=0.0069444375
EXTRACT: note_on channel=4 note=50 velocity=0 time=0.2013886875
EXTRACT: note_on channel=4 note=55 velocity=0 time=0
EXTRACT: note_on channel=4 note=53 velocity=92 time=0.0069444375
EXTRACT: note_on channel=4 note=58 velocity=92 time=0
EXTRACT: note_on channel=9 note=70 velocity=92 time=0
EXTRACT: note_on channel=9 note=38 velocity=92 time=0
EXTRACT: note_on channel=9 note=42 velocity=92 time=0
EXTRACT: note_on channel=9 note=70 velocity=0 time=0.0763888125
EXTRACT: note_on channel=9 note=38 velocity=0 time=0
EXTRACT: note_on channel=9 note=42 velocity=0 time=0
EXTRACT: note_on channel=4 note=53 velocity=0 time=0.24999975
EXTRACT: note_on channel=4 note=58 velocity=0 time=0
EXTRACT: note_on channel=4 note=50 velocity=92 time=0.0069444375
EXTRACT: note_on channel=4 note=55 velocity=92 time=0
EXTRACT: note_on channel=9 note=70 velocity=92 time=0
EXTRACT: note_on channel=9 note=42 velocity=92 time=0
EXTRACT: note_on channel=9 note=70 velocity=0 time=0.0763888125
EXTRACT: note_on channel=9 note=42 velocity=0 time=0.08333325
EXTRACT: note_on channel=9 note=35 velocity=92 time=0.0069444375
EXTRACT: note_on channel=15 note=31 velocity=92 time=0
EXTRACT: note_on channel=4 note=50 velocity=0 time=0.1597220625
EXTRACT: note_on channel=4 note=55 velocity=0 time=0
EXTRACT: note_on channel=9 note=35 velocity=0 time=0
EXTRACT: note_on channel=15 note=31 velocity=0 time=0
EXTRACT: note_on channel=4 note=53 velocity=92 time=0.0069444375
EXTRACT: note_on channel=4 note=58 velocity=92 time=0
EXTRACT: note_on channel=9 note=70 velocity=92 time=0
EXTRACT: note_on channel=9 note=35 velocity=92 time=0
EXTRACT: note_on channel=9 note=42 velocity=92 time=0
EXTRACT: note_on channel=15 note=31 velocity=92 time=0
EXTRACT: note_on channel=9 note=70 velocity=0 time=0.0763888125
EXTRACT: note_on channel=9 note=35 velocity=0 time=0
EXTRACT: note_on channel=9 note=42 velocity=0 time=0
EXTRACT: note_on channel=0 note=67 velocity=0 time=0.1458331875
EXTRACT: note_on channel=15 note=31 velocity=0 time=0.0208333125
EXTRACT: note_on channel=4 note=53 velocity=0 time=0.08333325
EXTRACT: note_on channel=4 note=58 velocity=0 time=0
EXTRACT: note_on channel=4 note=50 velocity=92 time=0.0069444375
EXTRACT: note_on channel=4 note=55 velocity=92 time=0
EXTRACT: note_on channel=9 note=70 velocity=92 time=0
EXTRACT: note_on channel=9 note=42 velocity=92 time=0
EXTRACT: note_on channel=9 note=70 velocity=0 time=0.0763888125
EXTRACT: note_on channel=9 note=42 velocity=0 time=0
EXTRACT: note_on channel=4 note=50 velocity=0 time=0.24999975
EXTRACT: note_on channel=4 note=55 velocity=0 time=0
EXTRACT: note_on channel=4 note=53 velocity=92 time=0.0069444375
EXTRACT: note_on channel=4 note=58 velocity=92 time=0
EXTRACT: note_on channel=9 note=70 velocity=92 time=0
EXTRACT: note_on channel=9 note=38 velocity=92 time=0
EXTRACT: note_on channel=9 note=42 velocity=92 time=0
EXTRACT: note_on channel=9 note=70 velocity=0 time=0.0763888125
EXTRACT: note_on channel=9 note=38 velocity=0 time=0
EXTRACT: note_on channel=9 note=42 velocity=0 time=0
EXTRACT: note_on channel=4 note=53 velocity=0 time=0.24999975
EXTRACT: note_on channel=4 note=58 velocity=0 time=0
EXTRACT: note_on channel=0 note=67 velocity=127 time=0.0069444375
EXTRACT: note_on channel=4 note=50 velocity=92 time=0
EXTRACT: note_on channel=4 note=55 velocity=92 time=0
EXTRACT: note_on channel=9 note=70 velocity=92 time=0
EXTRACT: note_on channel=9 note=42 velocity=92 time=0
EXTRACT: note_on channel=9 note=70 velocity=0 time=0.0763888125
EXTRACT: note_on channel=9 note=42 velocity=0 time=0.08333325
EXTRACT: note_on channel=9 note=35 velocity=92 time=0.0069444375
EXTRACT: note_on channel=15 note=31 velocity=92 time=0
EXTRACT: note_on channel=0 note=67 velocity=0 time=0.1597220625
EXTRACT: note_on channel=4 note=50 velocity=0 time=0
EXTRACT: note_on channel=4 note=55 velocity=0 time=0
EXTRACT: note_on channel=9 note=35 velocity=0 time=0
EXTRACT: note_on channel=15 note=31 velocity=0 time=0
EXTRACT: note_on channel=0 note=70 velocity=127 time=0.0069444375
EXTRACT: note_on channel=4 note=55 velocity=92 time=0
EXTRACT: note_on channel=4 note=58 velocity=92 time=0
EXTRACT: note_on channel=9 note=70 velocity=92 time=0
EXTRACT: note_on channel=9 note=35 velocity=92 time=0
EXTRACT: note_on channel=9 note=42 velocity=92 time=0
EXTRACT: note_on channel=15 note=34 velocity=92 time=0
EXTRACT: note_on channel=9 note=70 velocity=0 time=0.0763888125
EXTRACT: note_on channel=9 note=35 velocity=0 time=0
EXTRACT: note_on channel=9 note=42 velocity=0 time=0
EXTRACT: note_on channel=15 note=34 velocity=0 time=0.1666665
EXTRACT: note_on channel=4 note=55 velocity=0 time=0.08333325
EXTRACT: note_on channel=4 note=58 velocity=0 time=0
EXTRACT: note_on channel=4 note=53 velocity=92 time=0.0069444375
EXTRACT: note_on channel=4 note=57 velocity=92 time=0
EXTRACT: note_on channel=9 note=70 velocity=92 time=0
EXTRACT: note_on channel=9 note=42 velocity=92 time=0
EXTRACT: note_on channel=0 note=70 velocity=0 time=0.0347221875
EXTRACT: note_on channel=0 note=70 velocity=127 time=0.0069444375
EXTRACT: note_on channel=9 note=70 velocity=0 time=0.0347221875
EXTRACT: note_on channel=9 note=42 velocity=0 time=0
EXTRACT: note_on channel=0 note=70 velocity=0 time=0.24999975
EXTRACT: note_on channel=4 note=53 velocity=0 time=0
EXTRACT: note_on channel=4 note=57 velocity=0 time=0
EXTRACT: note_on channel=4 note=55 velocity=92 time=0.0069444375
EXTRACT: note_on channel=4 note=58 velocity=92 time=0
EXTRACT: note_on channel=9 note=70 velocity=92 time=0
EXTRACT: note_on channel=9 note=38 velocity=92 time=0
EXTRACT: note_on channel=9 note=42 velocity=92 time=0
EXTRACT: note_on channel=9 note=70 velocity=0 time=0.0763888125
EXTRACT: note_on channel=9 note=38 velocity=0 time=0
EXTRACT: note_on channel=9 note=42 velocity=0 time=0
EXTRACT: note_on channel=4 note=55 velocity=0 time=0.24999975
EXTRACT: note_on channel=4 note=58 velocity=0 time=0
EXTRACT: note_on channel=0 note=72 velocity=127 time=0.0069444375
EXTRACT: note_on channel=4 note=53 velocity=92 time=0
EXTRACT: note_on channel=4 note=57 velocity=92 time=0
EXTRACT: note_on channel=9 note=70 velocity=92 time=0
EXTRACT: note_on channel=9 note=42 velocity=92 time=0
EXTRACT: note_on channel=9 note=70 velocity=0 time=0.0763888125
EXTRACT: note_on channel=9 note=42 velocity=0 time=0.08333325
EXTRACT: note_on channel=9 note=35 velocity=92 time=0.0069444375
EXTRACT: note_on channel=15 note=34 velocity=92 time=0
EXTRACT: note_on channel=4 note=53 velocity=0 time=0.1597220625
EXTRACT: note_on channel=4 note=57 velocity=0 time=0
EXTRACT: note_on channel=9 note=35 velocity=0 time=0
EXTRACT: note_on channel=15 note=34 velocity=0 time=0
EXTRACT: note_on channel=4 note=55 velocity=92 time=0.0069444375
EXTRACT: note_on channel=4 note=58 velocity=92 time=0
EXTRACT: note_on channel=9 note=70 velocity=92 time=0
EXTRACT: note_on channel=9 note=35 velocity=92 time=0
EXTRACT: note_on channel=9 note=42 velocity=92 time=0
EXTRACT: note_on channel=15 note=34 velocity=92 time=0
EXTRACT: note_on channel=9 note=70 velocity=0 time=0.0763888125
EXTRACT: note_on channel=9 note=35 velocity=0 time=0
EXTRACT: note_on channel=9 note=42 velocity=0 time=0
EXTRACT: note_on channel=15 note=34 velocity=0 time=0.1666665
EXTRACT: note_on channel=0 note=72 velocity=0 time=0.08333325
EXTRACT: note_on channel=4 note=55 velocity=0 time=0
EXTRACT: note_on channel=4 note=58 velocity=0 time=0
EXTRACT: note_on channel=0 note=72 velocity=127 time=0.0069444375
EXTRACT: note_on channel=4 note=53 velocity=92 time=0
EXTRACT: note_on channel=4 note=57 velocity=92 time=0
EXTRACT: note_on channel=9 note=70 velocity=92 time=0
EXTRACT: note_on channel=9 note=42 velocity=92 time=0
EXTRACT: note_on channel=9 note=70 velocity=0 time=0.0763888125
EXTRACT: note_on channel=9 note=42 velocity=0 time=0
EXTRACT: note_on channel=0 note=72 velocity=0 time=0.24999975
EXTRACT: note_on channel=4 note=53 velocity=0 time=0
EXTRACT: note_on channel=4 note=57 velocity=0 time=0
EXTRACT: note_on channel=4 note=55 velocity=92 time=0.0069444375
EXTRACT: note_on channel=4 note=58 velocity=92 time=0
EXTRACT: note_on channel=9 note=70 velocity=92 time=0
EXTRACT: note_on channel=9 note=38 velocity=92 time=0
EXTRACT: note_on channel=9 note=42 velocity=92 time=0
EXTRACT: note_on channel=9 note=70 velocity=0 time=0.0763888125
EXTRACT: note_on channel=9 note=38 velocity=0 time=0
EXTRACT: note_on channel=9 note=42 velocity=0 time=0
EXTRACT: note_on channel=0 note=74 velocity=127 time=0.0902776875
EXTRACT: note_on channel=4 note=55 velocity=0 time=0.1597220625
EXTRACT: note_on channel=4 note=58 velocity=0 time=0
EXTRACT: note_on channel=4 note=53 velocity=92 time=0.0069444375
EXTRACT: note_on channel=4 note=57 velocity=92 time=0
EXTRACT: note_on channel=9 note=70 velocity=92 time=0
EXTRACT: note_on channel=9 note=42 velocity=92 time=0
EXTRACT: note_on channel=9 note=70 velocity=0 time=0.0763888125
EXTRACT: note_on channel=0 note=74 velocity=0 time=0.041666625
EXTRACT: note_on channel=9 note=42 velocity=0 time=0.041666625
EXTRACT: note_on channel=9 note=35 velocity=92 time=0.0069444375
EXTRACT: note_on channel=15 note=34 velocity=92 time=0
EXTRACT: note_on channel=0 note=74 velocity=127 time=0.124999875
EXTRACT: note_on channel=4 note=53 velocity=0 time=0.0347221875
EXTRACT: note_on channel=4 note=57 velocity=0 time=0
EXTRACT: note_on channel=9 note=35 velocity=0 time=0
EXTRACT: note_on channel=15 note=34 velocity=0 time=0
EXTRACT: note_on channel=4 note=55 velocity=92 time=0.0069444375
EXTRACT: note_on channel=4 note=60 velocity=92 time=0
EXTRACT: note_on channel=9 note=70 velocity=92 time=0
EXTRACT: note_on channel=9 note=35 velocity=92 time=0
EXTRACT: note_on channel=9 note=42 velocity=92 time=0
EXTRACT: note_on channel=15 note=29 velocity=92 time=0
EXTRACT: note_on channel=9 note=70 velocity=0 time=0.0763888125
EXTRACT: note_on channel=9 note=35 velocity=0 time=0
EXTRACT: note_on channel=9 note=42 velocity=0 time=0
EXTRACT: note_on channel=15 note=29 velocity=0 time=0.1666665
EXTRACT: note_on channel=4 note=55 velocity=0 time=0.08333325
EXTRACT: note_on channel=4 note=60 velocity=0 time=0
EXTRACT: note_on channel=4 note=53 velocity=92 time=0.0069444375
EXTRACT: note_on channel=4 note=57 velocity=92 time=0
EXTRACT: note_on channel=9 note=70 velocity=92 time=0
EXTRACT: note_on channel=9 note=42 velocity=92 time=0
EXTRACT: note_on channel=9 note=70 velocity=0 time=0.0763888125
EXTRACT: note_on channel=9 note=42 velocity=0 time=0
EXTRACT: note_on channel=0 note=74 velocity=0 time=0.08333325
EXTRACT: note_on channel=0 note=72 velocity=127 time=0.0069444375
EXTRACT: note_on channel=4 note=53 velocity=0 time=0.1597220625
EXTRACT: note_on channel=4 note=57 velocity=0 time=0
EXTRACT: note_on channel=4 note=55 velocity=92 time=0.0069444375
EXTRACT: note_on channel=4 note=60 velocity=92 time=0
EXTRACT: note_on channel=9 note=70 velocity=92 time=0
EXTRACT: note_on channel=9 note=38 velocity=92 time=0
EXTRACT: note_on channel=9 note=42 velocity=92 time=0
EXTRACT: note_on channel=9 note=70 velocity=0 time=0.0763888125
EXTRACT: note_on channel=9 note=38 velocity=0 time=0
EXTRACT: note_on channel=9 note=42 velocity=0 time=0
EXTRACT: note_on channel=4 note=55 velocity=0 time=0.24999975
EXTRACT: note_on channel=4 note=60 velocity=0 time=0
EXTRACT: note_on channel=4 note=53 velocity=92 time=0.0069444375
EXTRACT: note_on channel=4 note=57 velocity=92 time=0
EXTRACT: note_on channel=9 note=70 velocity=92 time=0
EXTRACT: note_on channel=9 note=42 velocity=92 time=0
EXTRACT: note_on channel=9 note=70 velocity=0 time=0.0763888125
EXTRACT: note_on channel=9 note=42 velocity=0 time=0.08333325
EXTRACT: note_on channel=9 note=35 velocity=92 time=0.0069444375
EXTRACT: note_on channel=15 note=29 velocity=92 time=0
EXTRACT: note_on channel=4 note=53 velocity=0 time=0.1597220625
EXTRACT: note_on channel=4 note=57 velocity=0 time=0
EXTRACT: note_on channel=9 note=35 velocity=0 time=0
EXTRACT: note_on channel=15 note=29 velocity=0 time=0
EXTRACT: note_on channel=4 note=55 velocity=92 time=0.0069444375
EXTRACT: note_on channel=4 note=60 velocity=92 time=0
EXTRACT: note_on channel=9 note=70 velocity=92 time=0
EXTRACT: note_on channel=9 note=35 velocity=92 time=0
EXTRACT: note_on channel=9 note=42 velocity=92 time=0
EXTRACT: note_on channel=15 note=29 velocity=92 time=0
EXTRACT: note_on channel=9 note=70 velocity=0 time=0.0763888125
EXTRACT: note_on channel=9 note=35 velocity=0 time=0
EXTRACT: note_on channel=9 note=42 velocity=0 time=0
EXTRACT: note_on channel=0 note=72 velocity=0 time=0.124999875
EXTRACT: note_on channel=0 note=72 velocity=127 time=0.0069444375
EXTRACT: note_on channel=15 note=29 velocity=0 time=0.0347221875
EXTRACT: note_on channel=0 note=72 velocity=0 time=0.08333325
EXTRACT: note_on channel=4 note=55 velocity=0 time=0
EXTRACT: note_on channel=4 note=60 velocity=0 time=0
EXTRACT: note_on channel=0 note=74 velocity=127 time=0.0069444375
EXTRACT: note_on channel=4 note=53 velocity=92 time=0
EXTRACT: note_on channel=4 note=57 velocity=92 time=0
EXTRACT: note_on channel=9 note=70 velocity=92 time=0
EXTRACT: note_on channel=9 note=42 velocity=92 time=0
EXTRACT: note_on channel=9 note=70 velocity=0 time=0.0763888125
EXTRACT: note_on channel=9 note=42 velocity=0 time=0
EXTRACT: note_on channel=0 note=74 velocity=0 time=0.124999875
EXTRACT: note_on channel=0 note=70 velocity=127 time=0.0069444375
EXTRACT: note_on channel=0 note=70 velocity=0 time=0.1180554375
EXTRACT: note_on channel=4 note=53 velocity=0 time=0
EXTRACT: note_on channel=4 note=57 velocity=0 time=0
EXTRACT: note_on channel=0 note=74 velocity=127 time=0.0069444375
EXTRACT: note_on channel=4 note=55 velocity=92 time=0
EXTRACT: note_on channel=4 note=60 velocity=92 time=0
EXTRACT: note_on channel=9 note=70 velocity=92 time=0
EXTRACT: note_on channel=9 note=38 velocity=92 time=0
EXTRACT: note_on channel=9 note=42 velocity=92 time=0
EXTRACT: note_on channel=9 note=70 velocity=0 time=0.0763888125
EXTRACT: note_on channel=9 note=38 velocity=0 time=0
EXTRACT: note_on channel=9 note=42 velocity=0 time=0
EXTRACT: note_on channel=4 note=55 velocity=0 time=0.24999975
EXTRACT: note_on channel=4 note=60 velocity=0 time=0
EXTRACT: note_on channel=4 note=53 velocity=92 time=0.0069444375
EXTRACT: note_on channel=4 note=57 velocity=92 time=0
EXTRACT: note_on channel=9 note=70 velocity=92 time=0
EXTRACT: note_on channel=9 note=46 velocity=92 time=0
EXTRACT: note_on channel=15 note=22 velocity=92 time=0
EXTRACT: note_on channel=0 note=74 velocity=0 time=0.0347221875
EXTRACT: note_on channel=0 note=70 velocity=127 time=0.0069444375
EXTRACT: note_on channel=9 note=70 velocity=0 time=0.0347221875
EXTRACT: note_on channel=9 note=46 velocity=0 time=0.08333325
EXTRACT: note_on channel=15 note=22 velocity=0 time=0
EXTRACT: note_on channel=9 note=35 velocity=92 time=0.0069444375
EXTRACT: note_on channel=15 note=24 velocity=92 time=0
EXTRACT: note_on channel=0 note=70 velocity=0 time=0.1597220625
EXTRACT: note_on channel=4 note=53 velocity=0 time=0
EXTRACT: note_on channel=4 note=57 velocity=0 time=0
EXTRACT: note_on channel=9 note=35 velocity=0 time=0
EXTRACT: note_on channel=15 note=24 velocity=0 time=0
EXTRACT: note_on channel=6 note=62 velocity=92 time=0.0069444375
EXTRACT: note_on channel=6 note=65 velocity=92 time=0
EXTRACT: note_on channel=9 note=70 velocity=92 time=0
EXTRACT: note_on channel=9 note=81 velocity=92 time=0
EXTRACT: note_on channel=9 note=35 velocity=92 time=0
EXTRACT: note_on channel=9 note=42 velocity=92 time=0
EXTRACT: note_on channel=15 note=27 velocity=92 time=0
EXTRACT: note_on channel=0 note=74 velocity=127 time=0.041666625
EXTRACT: note_on channel=5 note=55 velocity=92 time=0
EXTRACT: note_on channel=5 note=58 velocity=92 time=0
EXTRACT: note_on channel=5 note=62 velocity=92 time=0
EXTRACT: note_on channel=5 note=39 velocity=92 time=0
EXTRACT: note_on channel=9 note=70 velocity=0 time=0.0347221875
EXTRACT: note_on channel=9 note=81 velocity=0 time=0
EXTRACT: note_on channel=9 note=35 velocity=0 time=0
EXTRACT: note_on channel=9 note=42 velocity=0 time=0
EXTRACT: note_on channel=6 note=62 velocity=0 time=0.124999875
EXTRACT: note_on channel=6 note=65 velocity=0 time=0
EXTRACT: note_on channel=6 note=62 velocity=92 time=0.0069444375
EXTRACT: note_on channel=6 note=65 velocity=92 time=0
EXTRACT: note_on channel=6 note=62 velocity=0 time=0.0763888125
EXTRACT: note_on channel=6 note=65 velocity=0 time=0
EXTRACT: note_on channel=9 note=70 velocity=92 time=0.0486110625
EXTRACT: note_on channel=9 note=42 velocity=92 time=0
EXTRACT: note_on channel=9 note=70 velocity=0 time=0.0763888125
EXTRACT: note_on channel=9 note=42 velocity=0 time=0
EXTRACT: note_on channel=6 note=62 velocity=92 time=0.0486110625
EXTRACT: note_on channel=6 note=65 velocity=92 time=0
EXTRACT: note_on channel=6 note=62 velocity=0 time=0.2013886875
EXTRACT: note_on channel=6 note=65 velocity=0 time=0
EXTRACT: note_on channel=6 note=62 velocity=92 time=0.0069444375
EXTRACT: note_on channel=6 note=65 velocity=92 time=0
EXTRACT: note_on channel=9 note=70 velocity=92 time=0
EXTRACT: note_on channel=9 note=38 velocity=92 time=0
EXTRACT: note_on channel=9 note=42 velocity=92 time=0
EXTRACT: note_on channel=6 note=62 velocity=0 time=0.0347221875
EXTRACT: note_on channel=6 note=65 velocity=0 time=0
EXTRACT: note_on channel=9 note=70 velocity=0 time=0.041666625
EXTRACT: note_on channel=9 note=38 velocity=0 time=0
EXTRACT: note_on channel=9 note=42 velocity=0 time=0
EXTRACT: note_on channel=6 note=62 velocity=92 time=0.1319443125
EXTRACT: note_on channel=6 note=65 velocity=92 time=0
EXTRACT: note_on channel=15 note=27 velocity=0 time=0.013888875
EXTRACT: note_on channel=6 note=62 velocity=0 time=0.0624999375
EXTRACT: note_on channel=6 note=65 velocity=0 time=0
EXTRACT: note_on channel=9 note=70 velocity=92 time=0.0486110625
EXTRACT: note_on channel=9 note=42 velocity=92 time=0
EXTRACT: note_on channel=9 note=70 velocity=0 time=0.0763888125
EXTRACT: note_on channel=6 note=62 velocity=92 time=0.0486110625
EXTRACT: note_on channel=6 note=65 velocity=92 time=0
EXTRACT: note_on channel=6 note=62 velocity=0 time=0.0347221875
EXTRACT: note_on channel=6 note=65 velocity=0 time=0
EXTRACT: note_on channel=9 note=42 velocity=0 time=0
EXTRACT: note_on channel=9 note=35 velocity=92 time=0.0069444375
EXTRACT: note_on channel=15 note=27 velocity=92 time=0
EXTRACT: note_on channel=9 note=35 velocity=0 time=0.1597220625
EXTRACT: note_on channel=15 note=27 velocity=0 time=0
EXTRACT: note_on channel=6 note=62 velocity=92 time=0.0069444375
EXTRACT: note_on channel=6 note=65 velocity=92 time=0
EXTRACT: note_on channel=9 note=70 velocity=92 time=0
EXTRACT: note_on channel=9 note=35 velocity=92 time=0
EXTRACT: note_on channel=9 note=42 velocity=92 time=0
EXTRACT: note_on channel=15 note=27 velocity=92 time=0
EXTRACT: note_on channel=15 note=27 velocity=0 time=0.0347221875
EXTRACT: note_on channel=9 note=70 velocity=0 time=0.041666625
EXTRACT: note_on channel=9 note=35 velocity=0 time=0
EXTRACT: note_on channel=9 note=42 velocity=0 time=0
EXTRACT: note_on channel=6 note=62 velocity=0 time=0.124999875
EXTRACT: note_on channel=6 note=65 velocity=0 time=0
EXTRACT: note_on channel=6 note=62 velocity=92 time=0.0069444375
EXTRACT: note_on channel=6 note=65 velocity=92 time=0
EXTRACT: note_on channel=5 note=39 velocity=0 time=0.013888875
EXTRACT: note_on channel=6 note=62 velocity=0 time=0.0624999375
EXTRACT: note_on channel=6 note=65 velocity=0 time=0
EXTRACT: note_on channel=9 note=70 velocity=92 time=0.0486110625
EXTRACT: note_on channel=9 note=42 velocity=92 time=0
EXTRACT: note_on channel=15 note=27 velocity=92 time=0
EXTRACT: note_on channel=5 note=55 velocity=0 time=0.0347221875
EXTRACT: note_on channel=5 note=58 velocity=0 time=0
EXTRACT: note_on channel=5 note=62 velocity=0 time=0
EXTRACT: note_on channel=9 note=70 velocity=0 time=0.041666625
EXTRACT: note_on channel=9 note=42 velocity=0 time=0
EXTRACT: note_on channel=6 note=62 velocity=92 time=0.0486110625
EXTRACT: note_on channel=6 note=65 velocity=92 time=0
EXTRACT: note_on channel=6 note=62 velocity=0 time=0.0347221875
EXTRACT: note_on channel=6 note=65 velocity=0 time=0
EXTRACT: note_on channel=6 note=62 velocity=92 time=0.1736109375
EXTRACT: note_on channel=6 note=65 velocity=92 time=0
EXTRACT: note_on channel=9 note=70 velocity=92 time=0
EXTRACT: note_on channel=9 note=38 velocity=92 time=0
EXTRACT: note_on channel=9 note=42 velocity=92 time=0
EXTRACT: note_on channel=9 note=70 velocity=0 time=0.0763888125
EXTRACT: note_on channel=9 note=38 velocity=0 time=0
EXTRACT: note_on channel=9 note=42 velocity=0 time=0
EXTRACT: note_on channel=15 note=27 velocity=0 time=0.08333325
EXTRACT: note_on channel=6 note=62 velocity=0 time=0.041666625
EXTRACT: note_on channel=6 note=65 velocity=0 time=0
EXTRACT: note_on channel=6 note=62 velocity=92 time=0.0069444375
EXTRACT: note_on channel=6 note=65 velocity=92 time=0
EXTRACT: note_on channel=6 note=62 velocity=0 time=0.0763888125
EXTRACT: note_on channel=6 note=65 velocity=0 time=0
EXTRACT: note_on channel=9 note=70 velocity=92 time=0.0486110625
EXTRACT: note_on channel=9 note=46 velocity=92 time=0
EXTRACT: note_on channel=15 note=31 velocity=92 time=0
EXTRACT: note_on channel=9 note=70 velocity=0 time=0.0763888125
EXTRACT: note_on channel=6 note=62 velocity=92 time=0.0486110625
EXTRACT: note_on channel=6 note=65 velocity=92 time=0
EXTRACT: note_on channel=6 note=62 velocity=0 time=0.0347221875
EXTRACT: note_on channel=6 note=65 velocity=0 time=0
EXTRACT: note_on channel=9 note=46 velocity=0 time=0
EXTRACT: note_on channel=9 note=35 velocity=92 time=0.0069444375
EXTRACT: note_on channel=9 note=35 velocity=0 time=0.1597220625
EXTRACT: note_on channel=15 note=31 velocity=0 time=0
EXTRACT: note_on channel=5 note=53 velocity=92 time=0.0069444375
EXTRACT: note_on channel=5 note=57 velocity=92 time=0
EXTRACT: note_on channel=5 note=60 velocity=92 time=0
EXTRACT: note_on channel=5 note=41 velocity=92 time=0
EXTRACT: note_on channel=9 note=70 velocity=92 time=0
EXTRACT: note_on channel=9 note=35 velocity=92 time=0
EXTRACT: note_on channel=9 note=42 velocity=92 time=0
EXTRACT: note_on channel=15 note=29 velocity=92 time=0
EXTRACT: note_on channel=0 note=74 velocity=0 time=0.0347221875
EXTRACT: note_on channel=0 note=72 velocity=127 time=0.0069444375
EXTRACT: note_on channel=9 note=70 velocity=0 time=0.0347221875
EXTRACT: note_on channel=9 note=35 velocity=0 time=0
EXTRACT: note_on channel=9 note=42 velocity=0 time=0
EXTRACT: note_on channel=9 note=70 velocity=92 time=0.2569441875
EXTRACT: note_on channel=9 note=42 velocity=92 time=0
EXTRACT: note_on channel=9 note=70 velocity=0 time=0.0763888125
EXTRACT: note_on channel=9 note=42 velocity=0 time=0
EXTRACT: note_on channel=9 note=70 velocity=92 time=0.2569441875
EXTRACT: note_on channel=9 note=38 velocity=92 time=0
EXTRACT: note_on channel=9 note=42 velocity=92 time=0
EXTRACT: note_on channel=9 note=70 velocity=0 time=0.0763888125
EXTRACT: note_on channel=9 note=38 velocity=0 time=0
EXTRACT: note_on channel=9 note=42 velocity=0 time=0
EXTRACT: note_on channel=9 note=70 velocity=92 time=0.2569441875
EXTRACT: note_on channel=9 note=42 velocity=92 time=0
EXTRACT: note_on channel=0 note=72 velocity=0 time=0.0763888125
EXTRACT: note_on channel=9 note=70 velocity=0 time=0
EXTRACT: note_on channel=9 note=42 velocity=0 time=0.08333325
EXTRACT: note_on channel=9 note=35 velocity=92 time=0.0069444375
EXTRACT: note_on channel=15 note=29 velocity=0 time=0
EXTRACT: note_on channel=9 note=35 velocity=0 time=0.1597220625
EXTRACT: note_on channel=9 note=70 velocity=92 time=0.0069444375
EXTRACT: note_on channel=9 note=35 velocity=92 time=0
EXTRACT: note_on channel=9 note=42 velocity=92 time=0
EXTRACT: note_on channel=15 note=41 velocity=92 time=0
EXTRACT: note_on channel=9 note=70 velocity=0 time=0.0763888125
EXTRACT: note_on channel=9 note=35 velocity=0 time=0
EXTRACT: note_on channel=9 note=42 velocity=0 time=0
EXTRACT: note_on channel=0 note=72 velocity=127 time=0.0902776875
EXTRACT: note_on channel=5 note=53 velocity=0 time=0.0763888125
EXTRACT: note_on channel=5 note=57 velocity=0 time=0
EXTRACT: note_on channel=5 note=60 velocity=0 time=0
EXTRACT: note_on channel=5 note=41 velocity=0 time=0
EXTRACT: note_on channel=0 note=72 velocity=0 time=0.08333325
EXTRACT: note_on channel=0 note=74 velocity=127 time=0.0069444375
EXTRACT: note_on channel=9 note=70 velocity=92 time=0
EXTRACT: note_on channel=9 note=42 velocity=92 time=0
EXTRACT: note_on channel=9 note=70 velocity=0 time=0.0763888125
EXTRACT: note_on channel=9 note=42 velocity=0 time=0
EXTRACT: note_on channel=0 note=74 velocity=0 time=0.041666625
EXTRACT: note_on channel=0 note=70 velocity=127 time=0.0069444375
EXTRACT: note_on channel=15 note=41 velocity=0 time=0.097222125
EXTRACT: note_on channel=0 note=70 velocity=0 time=0.0624999375
EXTRACT: note_on channel=0 note=74 velocity=127 time=0.0069444375
EXTRACT: note_on channel=9 note=70 velocity=92 time=0.041666625
EXTRACT: note_on channel=9 note=38 velocity=92 time=0
EXTRACT: note_on channel=9 note=42 velocity=92 time=0
EXTRACT: note_on channel=15 note=36 velocity=92 time=0
EXTRACT: note_on channel=9 note=70 velocity=0 time=0.0763888125
EXTRACT: note_on channel=9 note=38 velocity=0 time=0
EXTRACT: note_on channel=9 note=42 velocity=0 time=0
EXTRACT: note_on channel=0 note=74 velocity=0 time=0.24999975
EXTRACT: note_on channel=0 note=70 velocity=127 time=0.0069444375
EXTRACT: note_on channel=9 note=70 velocity=92 time=0
EXTRACT: note_on channel=9 note=46 velocity=92 time=0
EXTRACT: note_on channel=9 note=70 velocity=0 time=0.0763888125
EXTRACT: note_on channel=9 note=46 velocity=0 time=0.08333325
EXTRACT: note_on channel=9 note=35 velocity=92 time=0.0069444375
EXTRACT: note_on channel=15 note=36 velocity=0 time=0.0555555
EXTRACT: note_on channel=0 note=70 velocity=0 time=0.1041665625
EXTRACT: note_on channel=9 note=35 velocity=0 time=0
EXTRACT: note_on channel=5 note=55 velocity=92 time=0.0069444375
EXTRACT: note_on channel=5 note=58 velocity=92 time=0
EXTRACT: note_on channel=5 note=62 velocity=92 time=0
EXTRACT: note_on channel=5 note=39 velocity=92 time=0
EXTRACT: note_on channel=6 note=62 velocity=92 time=0
EXTRACT: note_on channel=6 note=65 velocity=92 time=0
EXTRACT: note_on channel=9 note=70 velocity=92 time=0
EXTRACT: note_on channel=9 note=35 velocity=92 time=0
EXTRACT: note_on channel=9 note=42 velocity=92 time=0
EXTRACT: note_on channel=15 note=27 velocity=92 time=0
EXTRACT: note_on channel=0 note=77 velocity=127 time=0.041666625
EXTRACT: note_on channel=9 note=70 velocity=0 time=0.0347221875
EXTRACT: note_on channel=9 note=35 velocity=0 time=0
EXTRACT: note_on channel=9 note=42 velocity=0 time=0
EXTRACT: note_on channel=6 note=62 velocity=0 time=0.124999875
EXTRACT: note_on channel=6 note=65 velocity=0 time=0
EXTRACT: note_on channel=6 note=62 velocity=92 time=0.0069444375
EXTRACT: note_on channel=6 note=65 velocity=92 time=0
EXTRACT: note_on channel=6 note=62 velocity=0 time=0.0763888125
EXTRACT: note_on channel=6 note=65 velocity=0 time=0
EXTRACT: note_on channel=9 note=70 velocity=92 time=0.0486110625
EXTRACT: note_on channel=9 note=42 velocity=92 time=0
EXTRACT: note_on channel=9 note=70 velocity=0 time=0.0763888125
EXTRACT: note_on channel=9 note=42 velocity=0 time=0
EXTRACT: note_on channel=6 note=62 velocity=92 time=0.0486110625
EXTRACT: note_on channel=6 note=65 velocity=92 time=0
EXTRACT: note_on channel=6 note=62 velocity=0 time=0.2013886875
EXTRACT: note_on channel=6 note=65 velocity=0 time=0
EXTRACT: note_on channel=6 note=62 velocity=92 time=0.0069444375
EXTRACT: note_on channel=6 note=65 velocity=92 time=0
EXTRACT: note_on channel=9 note=70 velocity=92 time=0
EXTRACT: note_on channel=9 note=38 velocity=92 time=0
EXTRACT: note_on channel=9 note=42 velocity=92 time=0
EXTRACT: note_on channel=6 note=62 velocity=0 time=0.0347221875
EXTRACT: note_on channel=6 note=65 velocity=0 time=0
EXTRACT: note_on channel=9 note=70 velocity=0 time=0.041666625
EXTRACT: note_on channel=9 note=38 velocity=0 time=0
EXTRACT: note_on channel=9 note=42 velocity=0 time=0
EXTRACT: note_on channel=6 note=62 velocity=92 time=0.1319443125
EXTRACT: note_on channel=6 note=65 velocity=92 time=0
EXTRACT: note_on channel=15 note=27 velocity=0 time=0.013888875
EXTRACT: note_on channel=6 note=62 velocity=0 time=0.0624999375
EXTRACT: note_on channel=6 note=65 velocity=0 time=0
EXTRACT: note_on channel=9 note=70 velocity=92 time=0.0486110625
EXTRACT: note_on channel=9 note=42 velocity=92 time=0
EXTRACT: note_on channel=9 note=70 velocity=0 time=0.0763888125
EXTRACT: note_on channel=6 note=62 velocity=92 time=0.0486110625
EXTRACT: note_on channel=6 note=65 velocity=92 time=0
EXTRACT: note_on channel=6 note=62 velocity=0 time=0.0347221875
EXTRACT: note_on channel=6 note=65 velocity=0 time=0
EXTRACT: note_on channel=9 note=42 velocity=0 time=0
EXTRACT: note_on channel=5 note=55 velocity=0 time=0.0069444375
EXTRACT: note_on channel=5 note=58 velocity=0 time=0
EXTRACT: note_on channel=5 note=62 velocity=0 time=0
EXTRACT: note_on channel=9 note=35 velocity=92 time=0
EXTRACT: note_on channel=15 note=27 velocity=92 time=0
EXTRACT: note_on channel=9 note=35 velocity=0 time=0.1597220625
EXTRACT: note_on channel=15 note=27 velocity=0 time=0
EXTRACT: note_on channel=5 note=65 velocity=92 time=0.0069444375
EXTRACT: note_on channel=6 note=62 velocity=92 time=0
EXTRACT: note_on channel=6 note=65 velocity=92 time=0
EXTRACT: note_on channel=9 note=70 velocity=92 time=0
EXTRACT: note_on channel=9 note=35 velocity=92 time=0
EXTRACT: note_on channel=9 note=42 velocity=92 time=0
EXTRACT: note_on channel=15 note=27 velocity=92 time=0
EXTRACT: note_on channel=9 note=70 velocity=0 time=0.0763888125
EXTRACT: note_on channel=9 note=35 velocity=0 time=0
EXTRACT: note_on channel=9 note=42 velocity=0 time=0
EXTRACT: note_on channel=15 note=27 velocity=0 time=0.041666625
EXTRACT: note_on channel=6 note=62 velocity=0 time=0.08333325
EXTRACT: note_on channel=6 note=65 velocity=0 time=0
EXTRACT: note_on channel=6 note=62 velocity=92 time=0.0069444375
EXTRACT: note_on channel=6 note=65 velocity=92 time=0
EXTRACT: note_on channel=6 note=62 velocity=0 time=0.0763888125
EXTRACT: note_on channel=6 note=65 velocity=0 time=0
EXTRACT: note_on channel=9 note=70 velocity=92 time=0.0486110625
EXTRACT: note_on channel=9 note=42 velocity=92 time=0
EXTRACT: note_on channel=15 note=27 velocity=92 time=0
EXTRACT: note_on channel=0 note=77 velocity=0 time=0.0347221875
EXTRACT: note_on channel=0 note=74 velocity=127 time=0.0069444375
EXTRACT: note_on channel=9 note=70 velocity=0 time=0.0347221875
EXTRACT: note_on channel=9 note=42 velocity=0 time=0
EXTRACT: note_on channel=6 note=62 velocity=92 time=0.0486110625
EXTRACT: note_on channel=6 note=65 velocity=92 time=0
EXTRACT: note_on channel=6 note=62 velocity=0 time=0.0347221875
EXTRACT: note_on channel=6 note=65 velocity=0 time=0
EXTRACT: note_on channel=5 note=65 velocity=0 time=0.0624999375
EXTRACT: note_on channel=5 note=62 velocity=92 time=0.111111
EXTRACT: note_on channel=6 note=62 velocity=92 time=0
EXTRACT: note_on channel=6 note=65 velocity=92 time=0
EXTRACT: note_on channel=9 note=70 velocity=92 time=0
EXTRACT: note_on channel=9 note=38 velocity=92 time=0
EXTRACT: note_on channel=9 note=42 velocity=92 time=0
EXTRACT: note_on channel=5 note=39 velocity=0 time=0.0347221875
EXTRACT: note_on channel=9 note=70 velocity=0 time=0.041666625
EXTRACT: note_on channel=9 note=38 velocity=0 time=0
EXTRACT: note_on channel=9 note=42 velocity=0 time=0
EXTRACT: note_on channel=5 note=62 velocity=0 time=0.124999875
EXTRACT: note_on channel=6 note=62 velocity=0 time=0
EXTRACT: note_on channel=6 note=65 velocity=0 time=0
EXTRACT: note_on channel=6 note=62 velocity=92 time=0.0069444375
EXTRACT: note_on channel=6 note=65 velocity=92 time=0
EXTRACT: note_on channel=6 note=62 velocity=0 time=0.0763888125
EXTRACT: note_on channel=6 note=65 velocity=0 time=0
EXTRACT: note_on channel=15 note=27 velocity=0 time=0.041666625
EXTRACT: note_on channel=9 note=70 velocity=92 time=0.0069444375
EXTRACT: note_on channel=9 note=46 velocity=92 time=0
EXTRACT: note_on channel=15 note=31 velocity=92 time=0
EXTRACT: note_on channel=9 note=70 velocity=0 time=0.0763888125
EXTRACT: note_on channel=6 note=62 velocity=92 time=0.0486110625
EXTRACT: note_on channel=6 note=65 velocity=92 time=0
EXTRACT: note_on channel=6 note=62 velocity=0 time=0.0347221875
EXTRACT: note_on channel=6 note=65 velocity=0 time=0
EXTRACT: note_on channel=9 note=46 velocity=0 time=0
EXTRACT: note_on channel=9 note=35 velocity=92 time=0.0069444375
EXTRACT: note_on channel=9 note=35 velocity=0 time=0.1597220625
EXTRACT: note_on channel=15 note=31 velocity=0 time=0
EXTRACT: note_on channel=5 note=53 velocity=92 time=0.0069444375
EXTRACT: note_on channel=5 note=57 velocity=92 time=0
EXTRACT: note_on channel=5 note=60 velocity=92 time=0
EXTRACT: note_on channel=5 note=41 velocity=92 time=0
EXTRACT: note_on channel=6 note=65 velocity=92 time=0
EXTRACT: note_on channel=6 note=69 velocity=92 time=0
EXTRACT: note_on channel=9 note=70 velocity=92 time=0
EXTRACT: note_on channel=9 note=35 velocity=92 time=0
EXTRACT: note_on channel=9 note=42 velocity=92 time=0
EXTRACT: note_on channel=15 note=29 velocity=92 time=0
EXTRACT: note_on channel=0 note=74 velocity=0 time=0.0347221875
EXTRACT: note_on channel=6 note=65 velocity=0 time=0
EXTRACT: note_on channel=6 note=69 velocity=0 time=0
EXTRACT: note_on channel=0 note=72 velocity=127 time=0.0069444375
EXTRACT: note_on channel=9 note=70 velocity=0 time=0.0347221875
EXTRACT: note_on channel=9 note=35 velocity=0 time=0
EXTRACT: note_on channel=9 note=42 velocity=0 time=0
EXTRACT: note_on channel=6 note=65 velocity=92 time=0.1319443125
EXTRACT: note_on channel=6 note=69 velocity=92 time=0
EXTRACT: note_on channel=6 note=65 velocity=0 time=0.0347221875
EXTRACT: note_on channel=6 note=69 velocity=0 time=0
EXTRACT: note_on channel=9 note=70 velocity=92 time=0.0902776875
EXTRACT: note_on channel=9 note=42 velocity=92 time=0
EXTRACT: note_on channel=9 note=70 velocity=0 time=0.0763888125
EXTRACT: note_on channel=9 note=42 velocity=0 time=0
EXTRACT: note_on channel=6 note=65 velocity=92 time=0.0486110625
EXTRACT: note_on channel=6 note=69 velocity=92 time=0
EXTRACT: note_on channel=6 note=65 velocity=0 time=0.0347221875
EXTRACT: note_on channel=6 note=69 velocity=0 time=0
EXTRACT: note_on channel=6 note=65 velocity=92 time=0.1736109375
EXTRACT: note_on channel=6 note=69 velocity=92 time=0
EXTRACT: note_on channel=9 note=70 velocity=92 time=0
EXTRACT: note_on channel=9 note=42 velocity=92 time=0
EXTRACT: note_on channel=9 note=70 velocity=0 time=0.0763888125
EXTRACT: note_on channel=9 note=42 velocity=0 time=0
EXTRACT: note_on channel=6 note=65 velocity=0 time=0.124999875
EXTRACT: note_on channel=6 note=69 velocity=0 time=0
EXTRACT: note_on channel=6 note=65 velocity=92 time=0.0069444375
EXTRACT: note_on channel=6 note=69 velocity=92 time=0
EXTRACT: note_on channel=15 note=29 velocity=0 time=0.013888875
EXTRACT: note_on channel=6 note=65 velocity=0 time=0.0624999375
EXTRACT: note_on channel=6 note=69 velocity=0 time=0
EXTRACT: note_on channel=9 note=70 velocity=92 time=0.0486110625
EXTRACT: note_on channel=9 note=42 velocity=92 time=0
EXTRACT: note_on channel=9 note=70 velocity=0 time=0.0763888125
EXTRACT: note_on channel=9 note=42 velocity=0 time=0
EXTRACT: note_on channel=6 note=65 velocity=92 time=0.0486110625
EXTRACT: note_on channel=6 note=69 velocity=92 time=0
EXTRACT: note_on channel=6 note=65 velocity=0 time=0.0347221875
EXTRACT: note_on channel=6 note=69 velocity=0 time=0
EXTRACT: note_on channel=15 note=29 velocity=92 time=0.0069444375
EXTRACT: note_on channel=15 note=29 velocity=0 time=0.1597220625
EXTRACT: note_on channel=6 note=65 velocity=92 time=0.0069444375
EXTRACT: note_on channel=6 note=69 velocity=92 time=0
EXTRACT: note_on channel=9 note=70 velocity=92 time=0
EXTRACT: note_on channel=9 note=42 velocity=92 time=0
EXTRACT: note_on channel=15 note=29 velocity=92 time=0
EXTRACT: note_on channel=0 note=72 velocity=0 time=0.0347221875
EXTRACT: note_on channel=6 note=65 velocity=0 time=0
EXTRACT: note_on channel=6 note=69 velocity=0 time=0
EXTRACT: note_on channel=9 note=70 velocity=0 time=0.041666625
EXTRACT: note_on channel=15 note=29 velocity=0 time=0
EXTRACT: note_on channel=9 note=42 velocity=0 time=0.08333325
EXTRACT: note_on channel=9 note=25 velocity=92 time=0.0069444375
EXTRACT: note_on channel=6 note=65 velocity=92 time=0.041666625
EXTRACT: note_on channel=6 note=69 velocity=92 time=0
EXTRACT: note_on channel=6 note=65 velocity=0 time=0.0763888125
EXTRACT: note_on channel=6 note=69 velocity=0 time=0
EXTRACT: note_on channel=9 note=25 velocity=0 time=0.041666625
EXTRACT: note_on channel=9 note=70 velocity=92 time=0.0069444375
EXTRACT: note_on channel=9 note=40 velocity=92 time=0
EXTRACT: note_on channel=9 note=42 velocity=92 time=0
EXTRACT: note_on channel=15 note=29 velocity=92 time=0
EXTRACT: note_on channel=15 note=29 velocity=0 time=0.0347221875
EXTRACT: note_on channel=9 note=70 velocity=0 time=0.041666625
EXTRACT: note_on channel=9 note=40 velocity=0 time=0
EXTRACT: note_on channel=9 note=42 velocity=0 time=0
EXTRACT: note_on channel=6 note=65 velocity=92 time=0.0486110625
EXTRACT: note_on channel=6 note=69 velocity=92 time=0
EXTRACT: note_on channel=6 note=65 velocity=0 time=0.0347221875
EXTRACT: note_on channel=6 note=69 velocity=0 time=0
EXTRACT: note_on channel=6 note=65 velocity=92 time=0.1736109375
EXTRACT: note_on channel=6 note=69 velocity=92 time=0
EXTRACT: note_on channel=9 note=70 velocity=92 time=0
EXTRACT: note_on channel=9 note=40 velocity=92 time=0
EXTRACT: note_on channel=9 note=42 velocity=92 time=0
EXTRACT: note_on channel=15 note=29 velocity=92 time=0
EXTRACT: note_on channel=6 note=65 velocity=0 time=0.0347221875
EXTRACT: note_on channel=6 note=69 velocity=0 time=0
EXTRACT: note_on channel=9 note=70 velocity=0 time=0.041666625
EXTRACT: note_on channel=9 note=40 velocity=0 time=0
EXTRACT: note_on channel=9 note=42 velocity=0 time=0
EXTRACT: note_on channel=15 note=29 velocity=0 time=0.08333325
EXTRACT: note_on channel=15 note=31 velocity=92 time=0.0069444375
EXTRACT: note_on channel=6 note=65 velocity=92 time=0.041666625
EXTRACT: note_on channel=6 note=69 velocity=92 time=0
EXTRACT: note_on channel=6 note=65 velocity=0 time=0.0347221875
EXTRACT: note_on channel=6 note=69 velocity=0 time=0
EXTRACT: note_on channel=15 note=31 velocity=0 time=0.08333325
EXTRACT: note_on channel=9 note=70 velocity=92 time=0.0069444375
EXTRACT: note_on channel=9 note=40 velocity=92 time=0
EXTRACT: note_on channel=9 note=42 velocity=92 time=0
EXTRACT: note_on channel=15 note=34 velocity=92 time=0
EXTRACT: note_on channel=9 note=70 velocity=0 time=0.0763888125
EXTRACT: note_on channel=6 note=65 velocity=92 time=0.0486110625
EXTRACT: note_on channel=6 note=69 velocity=92 time=0
EXTRACT: note_on channel=6 note=65 velocity=0 time=0.0347221875
EXTRACT: note_on channel=6 note=69 velocity=0 time=0
EXTRACT: note_on channel=9 note=40 velocity=0 time=0
EXTRACT: note_on channel=9 note=42 velocity=0 time=0
EXTRACT: note_on channel=5 note=53 velocity=0 time=0.0069444375
EXTRACT: note_on channel=5 note=57 velocity=0 time=0
EXTRACT: note_on channel=5 note=60 velocity=0 time=0
EXTRACT: note_on channel=9 note=40 velocity=92 time=0
EXTRACT: note_on channel=9 note=40 velocity=0 time=0.1597220625
EXTRACT: note_on channel=15 note=34 velocity=0 time=0
EXTRACT: note_on channel=3 note=58 velocity=92 time=0.0069444375
EXTRACT: note_on channel=3 note=62 velocity=92 time=0
EXTRACT: note_on channel=3 note=65 velocity=92 time=0
EXTRACT: note_on channel=9 note=53 velocity=92 time=0
EXTRACT: note_on channel=9 note=57 velocity=92 time=0
EXTRACT: note_on channel=9 note=82 velocity=92 time=0
EXTRACT: note_on channel=9 note=35 velocity=92 time=0
EXTRACT: note_on channel=9 note=42 velocity=92 time=0
EXTRACT: note_on channel=15 note=34 velocity=92 time=0
EXTRACT: note_on channel=5 note=41 velocity=0 time=0.0347221875
EXTRACT: note_on channel=0 note=82 velocity=127 time=0.0069444375
EXTRACT: note_on channel=7 note=58 velocity=92 time=0
EXTRACT: note_on channel=9 note=35 velocity=0 time=0.0347221875
EXTRACT: note_on channel=9 note=42 velocity=0 time=0
EXTRACT: note_on channel=7 note=58 velocity=0 time=0.124999875
EXTRACT: note_on channel=9 note=53 velocity=0 time=0
EXTRACT: note_on channel=9 note=57 velocity=0 time=0
EXTRACT: note_on channel=9 note=82 velocity=0 time=0
EXTRACT: note_on channel=7 note=60 velocity=92 time=0.0069444375
EXTRACT: note_on channel=9 note=82 velocity=92 time=0
EXTRACT: note_on channel=7 note=60 velocity=0 time=0.1180554375
EXTRACT: note_on channel=9 note=82 velocity=0 time=0
EXTRACT: note_on channel=7 note=62 velocity=92 time=0.0069444375
EXTRACT: note_on channel=9 note=82 velocity=92 time=0
EXTRACT: note_on channel=9 note=42 velocity=92 time=0
EXTRACT: note_on channel=9 note=42 velocity=0 time=0.0763888125
EXTRACT: note_on channel=7 note=62 velocity=0 time=0.08333325
EXTRACT: note_on channel=7 note=58 velocity=92 time=0.0069444375
EXTRACT: note_on channel=9 note=82 velocity=0 time=0.0347221875
EXTRACT: note_on channel=9 note=82 velocity=92 time=0.0069444375
EXTRACT: note_on channel=7 note=58 velocity=0 time=0.1180554375
EXTRACT: note_on channel=9 note=82 velocity=0 time=0
EXTRACT: note_on channel=7 note=60 velocity=92 time=0.0069444375
EXTRACT: note_on channel=9 note=82 velocity=92 time=0
EXTRACT: note_on channel=9 note=40 velocity=92 time=0
EXTRACT: note_on channel=9 note=42 velocity=92 time=0
EXTRACT: note_on channel=0 note=82 velocity=0 time=0.0347221875
EXTRACT: note_on channel=0 note=77 velocity=127 time=0.0069444375
EXTRACT: note_on channel=9 note=40 velocity=0 time=0.0347221875
EXTRACT: note_on channel=9 note=42 velocity=0 time=0
EXTRACT: note_on channel=7 note=60 velocity=0 time=0.08333325
EXTRACT: note_on channel=7 note=62 velocity=92 time=0.0069444375
EXTRACT: note_on channel=9 note=82 velocity=0 time=0.0347221875
EXTRACT: note_on channel=9 note=82 velocity=92 time=0.0069444375
EXTRACT: note_on channel=0 note=77 velocity=0 time=0.1180554375
EXTRACT: note_on channel=7 note=62 velocity=0 time=0
EXTRACT: note_on channel=9 note=82 velocity=0 time=0
EXTRACT: note_on channel=0 note=79 velocity=127 time=0.0069444375
EXTRACT: note_on channel=7 note=58 velocity=92 time=0
EXTRACT: note_on channel=9 note=82 velocity=92 time=0
EXTRACT: note_on channel=9 note=42 velocity=92 time=0
EXTRACT: note_on channel=9 note=42 velocity=0 time=0.0763888125
EXTRACT: note_on channel=7 note=58 velocity=0 time=0.08333325
EXTRACT: note_on channel=15 note=34 velocity=0 time=0
EXTRACT: note_on channel=7 note=60 velocity=92 time=0.0069444375
EXTRACT: note_on channel=15 note=34 velocity=92 time=0
EXTRACT: note_on channel=0 note=79 velocity=0 time=0.0347221875
EXTRACT: note_on channel=9 note=82 velocity=0 time=0
EXTRACT: note_on channel=0 note=79 velocity=127 time=0.0069444375
EXTRACT: note_on channel=9 note=82 velocity=92 time=0
EXTRACT: note_on channel=7 note=60 velocity=0 time=0.1180554375
EXTRACT: note_on channel=9 note=82 velocity=0 time=0
EXTRACT: note_on channel=15 note=34 velocity=0 time=0
EXTRACT: note_on channel=7 note=62 velocity=92 time=0.0069444375
EXTRACT: note_on channel=9 note=35 velocity=92 time=0
EXTRACT: note_on channel=9 note=42 velocity=92 time=0
EXTRACT: note_on channel=15 note=29 velocity=92 time=0
EXTRACT: note_on channel=9 note=35 velocity=0 time=0.0763888125
EXTRACT: note_on channel=9 note=42 velocity=0 time=0
EXTRACT: note_on channel=7 note=62 velocity=0 time=0.08333325
EXTRACT: note_on channel=15 note=29 velocity=0 time=0
EXTRACT: note_on channel=7 note=58 velocity=92 time=0.0069444375
EXTRACT: note_on channel=15 note=31 velocity=92 time=0
EXTRACT: note_on channel=9 note=82 velocity=92 time=0.041666625
EXTRACT: note_on channel=9 note=82 velocity=0 time=0.0763888125
EXTRACT: note_on channel=7 note=58 velocity=0 time=0.041666625
EXTRACT: note_on channel=15 note=31 velocity=0 time=0
EXTRACT: note_on channel=7 note=60 velocity=92 time=0.0069444375
EXTRACT: note_on channel=9 note=35 velocity=92 time=0
EXTRACT: note_on channel=9 note=46 velocity=92 time=0
EXTRACT: note_on channel=15 note=34 velocity=92 time=0
EXTRACT: note_on channel=0 note=79 velocity=0 time=0.0347221875
EXTRACT: note_on channel=0 note=77 velocity=127 time=0.0069444375
EXTRACT: note_on channel=9 note=35 velocity=0 time=0.0347221875
EXTRACT: note_on channel=9 note=46 velocity=0 time=0
EXTRACT: note_on channel=7 note=60 velocity=0 time=0.08333325
EXTRACT: note_on channel=3 note=58 velocity=0 time=0.0069444375
EXTRACT: note_on channel=3 note=62 velocity=0 time=0
EXTRACT: note_on channel=3 note=65 velocity=0 time=0
EXTRACT: note_on channel=7 note=62 velocity=92 time=0
EXTRACT: note_on channel=9 note=82 velocity=92 time=0.041666625
EXTRACT: note_on channel=0 note=77 velocity=0 time=0.1180554375
EXTRACT: note_on channel=7 note=62 velocity=0 time=0
EXTRACT: note_on channel=9 note=82 velocity=0 time=0
EXTRACT: note_on channel=0 note=77 velocity=127 time=0.0069444375
EXTRACT: note_on channel=3 note=57 velocity=92 time=0
EXTRACT: note_on channel=7 note=58 velocity=92 time=0
EXTRACT: note_on channel=9 note=82 velocity=92 time=0
EXTRACT: note_on channel=9 note=40 velocity=92 time=0
EXTRACT: note_on channel=9 note=42 velocity=92 time=0
EXTRACT: note_on channel=9 note=40 velocity=0 time=0.0763888125
EXTRACT: note_on channel=9 note=42 velocity=0 time=0
EXTRACT: note_on channel=7 note=58 velocity=0 time=0.08333325
EXTRACT: note_on channel=15 note=34 velocity=0 time=0
EXTRACT: note_on channel=7 note=60 velocity=92 time=0.0069444375
EXTRACT: note_on channel=0 note=77 velocity=0 time=0.0347221875
EXTRACT: note_on channel=9 note=82 velocity=0 time=0
EXTRACT: note_on channel=0 note=75 velocity=127 time=0.0069444375
EXTRACT: note_on channel=9 note=82 velocity=92 time=0
EXTRACT: note_on channel=0 note=75 velocity=0 time=0.1180554375
EXTRACT: note_on channel=7 note=60 velocity=0 time=0
EXTRACT: note_on channel=9 note=82 velocity=0 time=0
EXTRACT: note_on channel=0 note=74 velocity=127 time=0.0069444375
EXTRACT: note_on channel=7 note=62 velocity=92 time=0
EXTRACT: note_on channel=9 note=82 velocity=92 time=0
EXTRACT: note_on channel=9 note=42 velocity=92 time=0
EXTRACT: note_on channel=15 note=34 velocity=92 time=0
EXTRACT: note_on channel=9 note=42 velocity=0 time=0.0763888125
EXTRACT: note_on channel=0 note=74 velocity=0 time=0.08333325
EXTRACT: note_on channel=0 note=75 velocity=127 time=0.0069444375
EXTRACT: note_on channel=9 note=82 velocity=0 time=0.0347221875
EXTRACT: note_on channel=9 note=82 velocity=92 time=0.0069444375
EXTRACT: note_on channel=3 note=57 velocity=0 time=0.013888875
EXTRACT: note_on channel=0 note=75 velocity=0 time=0.1041665625
EXTRACT: note_on channel=7 note=62 velocity=0 time=0
EXTRACT: note_on channel=9 note=82 velocity=0 time=0
EXTRACT: note_on channel=15 note=34 velocity=0 time=0
EXTRACT: note_on channel=3 note=53 velocity=92 time=0.0069444375
EXTRACT: note_on channel=3 note=60 velocity=92 time=0
EXTRACT: note_on channel=9 note=82 velocity=92 time=0
EXTRACT: note_on channel=9 note=35 velocity=92 time=0
EXTRACT: note_on channel=9 note=42 velocity=92 time=0
EXTRACT: note_on channel=15 note=29 velocity=92 time=0
EXTRACT: note_on channel=0 note=75 velocity=127 time=0.041666625
EXTRACT: note_on channel=7 note=58 velocity=92 time=0
EXTRACT: note_on channel=9 note=35 velocity=0 time=0.0347221875
EXTRACT: note_on channel=9 note=42 velocity=0 time=0
EXTRACT: note_on channel=7 note=58 velocity=0 time=0.124999875
EXTRACT: note_on channel=9 note=82 velocity=0 time=0
EXTRACT: note_on channel=7 note=60 velocity=92 time=0.0069444375
EXTRACT: note_on channel=9 note=82 velocity=92 time=0
EXTRACT: note_on channel=7 note=60 velocity=0 time=0.1180554375
EXTRACT: note_on channel=9 note=82 velocity=0 time=0
EXTRACT: note_on channel=7 note=62 velocity=92 time=0.0069444375
EXTRACT: note_on channel=9 note=82 velocity=92 time=0
EXTRACT: note_on channel=9 note=42 velocity=92 time=0
EXTRACT: note_on channel=0 note=75 velocity=0 time=0.0763888125
EXTRACT: note_on channel=9 note=42 velocity=0 time=0
EXTRACT: note_on channel=0 note=74 velocity=127 time=0.0069444375
EXTRACT: note_on channel=7 note=62 velocity=0 time=0.0763888125
EXTRACT: note_on channel=7 note=58 velocity=92 time=0.0069444375
EXTRACT: note_on channel=9 note=82 velocity=0 time=0.0347221875
EXTRACT: note_on channel=9 note=82 velocity=92 time=0.0069444375
EXTRACT: note_on channel=7 note=58 velocity=0 time=0.1180554375
EXTRACT: note_on channel=9 note=82 velocity=0 time=0
EXTRACT: note_on channel=7 note=60 velocity=92 time=0.0069444375
EXTRACT: note_on channel=9 note=82 velocity=92 time=0
EXTRACT: note_on channel=9 note=40 velocity=92 time=0
EXTRACT: note_on channel=9 note=42 velocity=92 time=0
EXTRACT: note_on channel=9 note=40 velocity=0 time=0.0763888125
EXTRACT: note_on channel=9 note=42 velocity=0 time=0
EXTRACT: note_on channel=7 note=60 velocity=0 time=0.08333325
EXTRACT: note_on channel=7 note=62 velocity=92 time=0.0069444375
EXTRACT: note_on channel=9 note=82 velocity=0 time=0.0347221875
EXTRACT: note_on channel=9 note=82 velocity=92 time=0.0069444375
EXTRACT: note_on channel=7 note=62 velocity=0 time=0.1180554375
EXTRACT: note_on channel=9 note=82 velocity=0 time=0
EXTRACT: note_on channel=7 note=58 velocity=92 time=0.0069444375
EXTRACT: note_on channel=8 note=58 velocity=92 time=0
EXTRACT: note_on channel=9 note=82 velocity=92 time=0
EXTRACT: note_on channel=9 note=42 velocity=92 time=0
EXTRACT: note_on channel=9 note=42 velocity=0 time=0.0763888125
EXTRACT: note_on channel=0 note=74 velocity=0 time=0.041666625
EXTRACT: note_on channel=7 note=58 velocity=0 time=0.041666625
EXTRACT: note_on channel=8 note=58 velocity=0 time=0
EXTRACT: note_on channel=15 note=29 velocity=0 time=0
EXTRACT: note_on channel=7 note=60 velocity=92 time=0.0069444375
EXTRACT: note_on channel=8 note=60 velocity=92 time=0
EXTRACT: note_on channel=15 note=29 velocity=92 time=0
EXTRACT: note_on channel=9 note=82 velocity=0 time=0.0347221875
EXTRACT: note_on channel=9 note=82 velocity=92 time=0.0069444375
EXTRACT: note_on channel=7 note=60 velocity=0 time=0.1180554375
EXTRACT: note_on channel=8 note=60 velocity=0 time=0
EXTRACT: note_on channel=9 note=82 velocity=0 time=0
EXTRACT: note_on channel=15 note=29 velocity=0 time=0
EXTRACT: note_on channel=7 note=62 velocity=92 time=0.0069444375
EXTRACT: note_on channel=8 note=62 velocity=92 time=0
EXTRACT: note_on channel=9 note=35 velocity=92 time=0
EXTRACT: note_on channel=9 note=42 velocity=92 time=0
EXTRACT: note_on channel=15 note=29 velocity=92 time=0
EXTRACT: note_on channel=9 note=35 velocity=0 time=0.0763888125
EXTRACT: note_on channel=9 note=42 velocity=0 time=0
EXTRACT: note_on channel=15 note=29 velocity=0 time=0.041666625
EXTRACT: note_on channel=7 note=62 velocity=0 time=0.041666625
EXTRACT: note_on channel=8 note=62 velocity=0 time=0
EXTRACT: note_on channel=0 note=74 velocity=127 time=0.0069444375
EXTRACT: note_on channel=7 note=58 velocity=92 time=0
EXTRACT: note_on channel=8 note=58 velocity=92 time=0
EXTRACT: note_on channel=9 note=82 velocity=92 time=0.041666625
EXTRACT: note_on channel=9 note=82 velocity=0 time=0.0763888125
EXTRACT: note_on channel=7 note=58 velocity=0 time=0.041666625
EXTRACT: note_on channel=8 note=58 velocity=0 time=0
EXTRACT: note_on channel=7 note=60 velocity=92 time=0.0069444375
EXTRACT: note_on channel=8 note=60 velocity=92 time=0
EXTRACT: note_on channel=9 note=35 velocity=92 time=0
EXTRACT: note_on channel=9 note=46 velocity=92 time=0
EXTRACT: note_on channel=15 note=29 velocity=92 time=0
EXTRACT: note_on channel=0 note=74 velocity=0 time=0.0763888125
EXTRACT: note_on channel=9 note=35 velocity=0 time=0
EXTRACT: note_on channel=9 note=46 velocity=0 time=0
EXTRACT: note_on channel=0 note=74 velocity=127 time=0.0069444375
EXTRACT: note_on channel=7 note=60 velocity=0 time=0.0763888125
EXTRACT: note_on channel=8 note=60 velocity=0 time=0
EXTRACT: note_on channel=15 note=29 velocity=0 time=0
EXTRACT: note_on channel=7 note=62 velocity=92 time=0.0069444375
EXTRACT: note_on channel=8 note=62 velocity=92 time=0
EXTRACT: note_on channel=9 note=82 velocity=92 time=0.041666625
EXTRACT: note_on channel=0 note=74 velocity=0 time=0.0763888125
EXTRACT: note_on channel=0 note=74 velocity=127 time=0.0069444375
EXTRACT: note_on channel=7 note=62 velocity=0 time=0.0347221875
EXTRACT: note_on channel=8 note=62 velocity=0 time=0
EXTRACT: note_on channel=9 note=82 velocity=0 time=0
EXTRACT: note_on channel=7 note=58 velocity=92 time=0.0069444375
EXTRACT: note_on channel=8 note=58 velocity=92 time=0
EXTRACT: note_on channel=9 note=82 velocity=92 time=0
EXTRACT: note_on channel=9 note=40 velocity=92 time=0
EXTRACT: note_on channel=9 note=42 velocity=92 time=0
EXTRACT: note_on channel=15 note=29 velocity=92 time=0
EXTRACT: note_on channel=9 note=40 velocity=0 time=0.0763888125
EXTRACT: note_on channel=9 note=42 velocity=0 time=0
EXTRACT: note_on channel=7 note=58 velocity=0 time=0.08333325
EXTRACT: note_on channel=8 note=58 velocity=0 time=0
EXTRACT: note_on channel=15 note=29 velocity=0 time=0
EXTRACT: note_on channel=7 note=60 velocity=92 time=0.0069444375
EXTRACT: note_on channel=8 note=60 velocity=92 time=0
EXTRACT: note_on channel=15 note=31 velocity=92 time=0
EXTRACT: note_on channel=9 note=82 velocity=0 time=0.0347221875
EXTRACT: note_on channel=9 note=82 velocity=92 time=0.0069444375
EXTRACT: note_on channel=0 note=74 velocity=0 time=0.1180554375
EXTRACT: note_on channel=7 note=60 velocity=0 time=0
EXTRACT: note_on channel=8 note=60 velocity=0 time=0
EXTRACT: note_on channel=9 note=82 velocity=0 time=0
EXTRACT: note_on channel=15 note=31 velocity=0 time=0
EXTRACT: note_on channel=0 note=72 velocity=127 time=0.0069444375
EXTRACT: note_on channel=7 note=62 velocity=92 time=0
EXTRACT: note_on channel=8 note=62 velocity=92 time=0
EXTRACT: note_on channel=9 note=82 velocity=92 time=0
EXTRACT: note_on channel=9 note=46 velocity=92 time=0
EXTRACT: note_on channel=15 note=34 velocity=92 time=0
EXTRACT: note_on channel=9 note=46 velocity=0 time=0.0763888125
EXTRACT: note_on channel=0 note=72 velocity=0 time=0.08333325
EXTRACT: note_on channel=0 note=70 velocity=127 time=0.0069444375
EXTRACT: note_on channel=3 note=53 velocity=0 time=0
EXTRACT: note_on channel=3 note=60 velocity=0 time=0
EXTRACT: note_on channel=9 note=82 velocity=0 time=0.0347221875
EXTRACT: note_on channel=9 note=82 velocity=92 time=0.0069444375
EXTRACT: note_on channel=0 note=70 velocity=0 time=0.1180554375
EXTRACT: note_on channel=7 note=62 velocity=0 time=0
EXTRACT: note_on channel=8 note=62 velocity=0 time=0
EXTRACT: note_on channel=9 note=82 velocity=0 time=0
EXTRACT: note_on channel=15 note=34 velocity=0 time=0
EXTRACT: note_on channel=3 note=63 velocity=92 time=0.0069444375
EXTRACT: note_on channel=3 note=67 velocity=92 time=0
EXTRACT: note_on channel=9 note=82 velocity=92 time=0
EXTRACT: note_on channel=9 note=35 velocity=92 time=0
EXTRACT: note_on channel=9 note=42 velocity=92 time=0
EXTRACT: note_on channel=15 note=36 velocity=92 time=0
EXTRACT: note_on channel=0 note=70 velocity=127 time=0.041666625
EXTRACT: note_on channel=7 note=58 velocity=92 time=0
EXTRACT: note_on channel=8 note=58 velocity=92 time=0
EXTRACT: note_on channel=9 note=35 velocity=0 time=0.0347221875
EXTRACT: note_on channel=9 note=42 velocity=0 time=0
EXTRACT: note_on channel=7 note=58 velocity=0 time=0.124999875
EXTRACT: note_on channel=8 note=58 velocity=0 time=0
EXTRACT: note_on channel=9 note=82 velocity=0 time=0
EXTRACT: note_on channel=7 note=60 velocity=92 time=0.0069444375
EXTRACT: note_on channel=8 note=60 velocity=92 time=0
EXTRACT: note_on channel=9 note=82 velocity=92 time=0
EXTRACT: note_on channel=7 note=60 velocity=0 time=0.1180554375
EXTRACT: note_on channel=8 note=60 velocity=0 time=0
EXTRACT: note_on channel=9 note=82 velocity=0 time=0
EXTRACT: note_on channel=7 note=62 velocity=92 time=0.0069444375
EXTRACT: note_on channel=8 note=62 velocity=92 time=0
EXTRACT: note_on channel=9 note=82 velocity=92 time=0
EXTRACT: note_on channel=9 note=42 velocity=92 time=0
EXTRACT: note_on channel=0 note=70 velocity=0 time=0.0763888125
EXTRACT: note_on channel=9 note=42 velocity=0 time=0
EXTRACT: note_on channel=0 note=72 velocity=127 time=0.0069444375
EXTRACT: note_on channel=7 note=62 velocity=0 time=0.0763888125
EXTRACT: note_on channel=8 note=62 velocity=0 time=0
EXTRACT: note_on channel=7 note=58 velocity=92 time=0.0069444375
EXTRACT: note_on channel=8 note=58 velocity=92 time=0
EXTRACT: note_on channel=9 note=82 velocity=0 time=0.0347221875
EXTRACT: note_on channel=9 note=82 velocity=92 time=0.0069444375
EXTRACT: note_on channel=7 note=58 velocity=0 time=0.1180554375
EXTRACT: note_on channel=8 note=58 velocity=0 time=0
EXTRACT: note_on channel=9 note=82 velocity=0 time=0
EXTRACT: note_on channel=7 note=60 velocity=92 time=0.0069444375
EXTRACT: note_on channel=8 note=60 velocity=92 time=0
EXTRACT: note_on channel=9 note=82 velocity=92 time=0
EXTRACT: note_on channel=9 note=40 velocity=92 time=0
EXTRACT: note_on channel=9 note=42 velocity=92 time=0
EXTRACT: note_on channel=9 note=40 velocity=0 time=0.0763888125
EXTRACT: note_on channel=9 note=42 velocity=0 time=0
EXTRACT: note_on channel=7 note=60 velocity=0 time=0.08333325
EXTRACT: note_on channel=8 note=60 velocity=0 time=0
EXTRACT: note_on channel=7 note=62 velocity=92 time=0.0069444375
EXTRACT: note_on channel=8 note=62 velocity=92 time=0
EXTRACT: note_on channel=9 note=82 velocity=0 time=0.0347221875
EXTRACT: note_on channel=9 note=82 velocity=92 time=0.0069444375
EXTRACT: note_on channel=15 note=36 velocity=0 time=0.013888875
EXTRACT: note_on channel=7 note=62 velocity=0 time=0.1041665625
EXTRACT: note_on channel=8 note=62 velocity=0 time=0
EXTRACT: note_on channel=9 note=82 velocity=0 time=0
EXTRACT: note_on channel=7 note=58 velocity=92 time=0.0069444375
EXTRACT: note_on channel=8 note=58 velocity=92 time=0
EXTRACT: note_on channel=9 note=82 velocity=92 time=0
EXTRACT: note_on channel=9 note=42 velocity=92 time=0
EXTRACT: note_on channel=9 note=42 velocity=0 time=0.0763888125
EXTRACT: note_on channel=7 note=58 velocity=0 time=0.08333325
EXTRACT: note_on channel=8 note=58 velocity=0 time=0
EXTRACT: note_on channel=7 note=60 velocity=92 time=0.0069444375
EXTRACT: note_on channel=8 note=60 velocity=92 time=0
EXTRACT: note_on channel=15 note=36 velocity=92 time=0
EXTRACT: note_on channel=9 note=82 velocity=0 time=0.0347221875
EXTRACT: note_on channel=9 note=82 velocity=92 time=0.0069444375
EXTRACT: note_on channel=0 note=72 velocity=0 time=0.013888875
EXTRACT: note_on channel=7 note=60 velocity=0 time=0.1041665625
EXTRACT: note_on channel=8 note=60 velocity=0 time=0
EXTRACT: note_on channel=9 note=82 velocity=0 time=0
EXTRACT: note_on channel=15 note=36 velocity=0 time=0
EXTRACT: note_on channel=7 note=62 velocity=92 time=0.0069444375
EXTRACT: note_on channel=8 note=62 velocity=92 time=0
EXTRACT: note_on channel=9 note=35 velocity=92 time=0
EXTRACT: note_on channel=9 note=42 velocity=92 time=0
EXTRACT: note_on channel=15 note=36 velocity=92 time=0
EXTRACT: note_on channel=9 note=35 velocity=0 time=0.0763888125
EXTRACT: note_on channel=9 note=42 velocity=0 time=0
EXTRACT: note_on channel=15 note=36 velocity=0 time=0.041666625
EXTRACT: note_on channel=7 note=62 velocity=0 time=0.041666625
EXTRACT: note_on channel=0 note=74 velocity=127 time=0.0069444375
EXTRACT: note_on channel=7 note=58 velocity=92 time=0
EXTRACT: note_on channel=8 note=62 velocity=0 time=0.0347221875
EXTRACT: note_on channel=9 note=82 velocity=92 time=0.0069444375
EXTRACT: note_on channel=9 note=82 velocity=0 time=0.0763888125
EXTRACT: note_on channel=7 note=58 velocity=0 time=0.041666625
EXTRACT: note_on channel=7 note=60 velocity=92 time=0.0069444375
EXTRACT: note_on channel=9 note=35 velocity=92 time=0
EXTRACT: note_on channel=9 note=46 velocity=92 time=0
EXTRACT: note_on channel=15 note=36 velocity=92 time=0
EXTRACT: note_on channel=9 note=35 velocity=0 time=0.0763888125
EXTRACT: note_on channel=9 note=46 velocity=0 time=0
EXTRACT: note_on channel=7 note=60 velocity=0 time=0.08333325
EXTRACT: note_on channel=7 note=62 velocity=92 time=0.0069444375
EXTRACT: note_on channel=0 note=74 velocity=0 time=0.0347221875
EXTRACT: note_on channel=0 note=74 velocity=127 time=0.0069444375
EXTRACT: note_on channel=9 note=82 velocity=92 time=0
EXTRACT: note_on channel=0 note=74 velocity=0 time=0.1180554375
EXTRACT: note_on channel=7 note=62 velocity=0 time=0
EXTRACT: note_on channel=9 note=82 velocity=0 time=0
EXTRACT: note_on channel=7 note=58 velocity=92 time=0.0069444375
EXTRACT: note_on channel=9 note=82 velocity=92 time=0
EXTRACT: note_on channel=9 note=40 velocity=92 time=0
EXTRACT: note_on channel=9 note=42 velocity=92 time=0
EXTRACT: note_on channel=0 note=74 velocity=127 time=0.041666625
EXTRACT: note_on channel=9 note=40 velocity=0 time=0.0347221875
EXTRACT: note_on channel=9 note=42 velocity=0 time=0
EXTRACT: note_on channel=7 note=58 velocity=0 time=0.08333325
EXTRACT: note_on channel=7 note=60 velocity=92 time=0.0069444375
EXTRACT: note_on channel=9 note=82 velocity=0 time=0.0347221875
EXTRACT: note_on channel=9 note=82 velocity=92 time=0.0069444375
EXTRACT: note_on channel=7 note=60 velocity=0 time=0.1180554375
EXTRACT: note_on channel=9 note=82 velocity=0 time=0
EXTRACT: note_on channel=15 note=36 velocity=0 time=0
EXTRACT: note_on channel=7 note=62 velocity=92 time=0.0069444375
EXTRACT: note_on channel=9 note=82 velocity=92 time=0
EXTRACT: note_on channel=9 note=46 velocity=92 time=0
EXTRACT: note_on channel=15 note=38 velocity=92 time=0
EXTRACT: note_on channel=0 note=74 velocity=0 time=0.0763888125
EXTRACT: note_on channel=9 note=46 velocity=0 time=0
EXTRACT: note_on channel=0 note=72 velocity=127 time=0.0069444375
EXTRACT: note_on channel=3 note=63 velocity=0 time=0.08333325
EXTRACT: note_on channel=3 note=67 velocity=0 time=0
EXTRACT: note_on channel=0 note=72 velocity=0 time=0.0347221875
EXTRACT: note_on channel=9 note=82 velocity=0 time=0
EXTRACT: note_on channel=0 note=70 velocity=127 time=0.0069444375
EXTRACT: note_on channel=9 note=82 velocity=92 time=0
EXTRACT: note_on channel=0 note=70 velocity=0 time=0.1180554375
EXTRACT: note_on channel=7 note=62 velocity=0 time=0
EXTRACT: note_on channel=9 note=82 velocity=0 time=0
EXTRACT: note_on channel=15 note=38 velocity=0 time=0
EXTRACT: note_on channel=3 note=70 velocity=92 time=0.0069444375
EXTRACT: note_on channel=9 note=82 velocity=92 time=0
EXTRACT: note_on channel=9 note=35 velocity=92 time=0
EXTRACT: note_on channel=9 note=42 velocity=92 time=0
EXTRACT: note_on channel=15 note=39 velocity=92 time=0
EXTRACT: note_on channel=7 note=58 velocity=92 time=0.041666625
EXTRACT: note_on channel=8 note=58 velocity=92 time=0
EXTRACT: note_on channel=9 note=35 velocity=0 time=0.0347221875
EXTRACT: note_on channel=9 note=42 velocity=0 time=0
EXTRACT: note_on channel=0 note=70 velocity=127 time=0.0069444375
EXTRACT: note_on channel=7 note=58 velocity=0 time=0.1180554375
EXTRACT: note_on channel=8 note=58 velocity=0 time=0
EXTRACT: note_on channel=9 note=82 velocity=0 time=0
EXTRACT: note_on channel=7 note=60 velocity=92 time=0.0069444375
EXTRACT: note_on channel=8 note=60 velocity=92 time=0
EXTRACT: note_on channel=9 note=82 velocity=92 time=0
EXTRACT: note_on channel=7 note=60 velocity=0 time=0.1180554375
EXTRACT: note_on channel=8 note=60 velocity=0 time=0
EXTRACT: note_on channel=9 note=82 velocity=0 time=0
EXTRACT: note_on channel=7 note=62 velocity=92 time=0.0069444375
EXTRACT: note_on channel=8 note=62 velocity=92 time=0
EXTRACT: note_on channel=9 note=82 velocity=92 time=0
EXTRACT: note_on channel=9 note=42 velocity=92 time=0
EXTRACT: note_on channel=0 note=70 velocity=0 time=0.0763888125
EXTRACT: note_on channel=9 note=42 velocity=0 time=0
EXTRACT: note_on channel=0 note=67 velocity=127 time=0.0069444375
EXTRACT: note_on channel=15 note=39 velocity=0 time=0.0347221875
EXTRACT: note_on channel=7 note=62 velocity=0 time=0.041666625
EXTRACT: note_on channel=8 note=62 velocity=0 time=0
EXTRACT: note_on channel=7 note=58 velocity=92 time=0.0069444375
EXTRACT: note_on channel=8 note=58 velocity=92 time=0
EXTRACT: note_on channel=9 note=82 velocity=0 time=0.0347221875
EXTRACT: note_on channel=9 note=82 velocity=92 time=0.0069444375
EXTRACT: note_on channel=7 note=58 velocity=0 time=0.1180554375
EXTRACT: note_on channel=8 note=58 velocity=0 time=0
EXTRACT: note_on channel=9 note=82 velocity=0 time=0
EXTRACT: note_on channel=7 note=60 velocity=92 time=0.0069444375
EXTRACT: note_on channel=8 note=60 velocity=92 time=0
EXTRACT: note_on channel=9 note=82 velocity=92 time=0
EXTRACT: note_on channel=9 note=40 velocity=92 time=0
EXTRACT: note_on channel=9 note=42 velocity=92 time=0
EXTRACT: note_on channel=15 note=39 velocity=92 time=0
EXTRACT: note_on channel=9 note=40 velocity=0 time=0.0763888125
EXTRACT: note_on channel=9 note=42 velocity=0 time=0
EXTRACT: note_on channel=7 note=60 velocity=0 time=0.08333325
EXTRACT: note_on channel=8 note=60 velocity=0 time=0
EXTRACT: note_on channel=7 note=62 velocity=92 time=0.0069444375
EXTRACT: note_on channel=8 note=62 velocity=92 time=0
EXTRACT: note_on channel=9 note=82 velocity=0 time=0.0347221875
EXTRACT: note_on channel=9 note=82 velocity=92 time=0.0069444375
EXTRACT: note_on channel=7 note=62 velocity=0 time=0.1180554375
EXTRACT: note_on channel=8 note=62 velocity=0 time=0
EXTRACT: note_on channel=9 note=82 velocity=0 time=0
EXTRACT: note_on channel=7 note=58 velocity=92 time=0.0069444375
EXTRACT: note_on channel=8 note=58 velocity=92 time=0
EXTRACT: note_on channel=9 note=82 velocity=92 time=0
EXTRACT: note_on channel=9 note=42 velocity=92 time=0
EXTRACT: note_on channel=9 note=42 velocity=0 time=0.0763888125
EXTRACT: note_on channel=7 note=58 velocity=0 time=0.08333325
EXTRACT: note_on channel=8 note=58 velocity=0 time=0
EXTRACT: note_on channel=3 note=70 velocity=0 time=0.0069444375
EXTRACT: note_on channel=7 note=60 velocity=92 time=0
EXTRACT: note_on channel=8 note=60 velocity=92 time=0
EXTRACT: note_on channel=9 note=82 velocity=0 time=0.0347221875
EXTRACT: note_on channel=9 note=82 velocity=92 time=0.0069444375
EXTRACT: note_on channel=0 note=67 velocity=0 time=0.013888875
EXTRACT: note_on channel=15 note=39 velocity=0 time=0
EXTRACT: note_on channel=7 note=60 velocity=0 time=0.1041665625
EXTRACT: note_on channel=8 note=60 velocity=0 time=0
EXTRACT: note_on channel=9 note=82 velocity=0 time=0
EXTRACT: note_on channel=3 note=72 velocity=92 time=0.0069444375
EXTRACT: note_on channel=7 note=62 velocity=92 time=0
EXTRACT: note_on channel=8 note=62 velocity=92 time=0
EXTRACT: note_on channel=9 note=35 velocity=92 time=0
EXTRACT: note_on channel=9 note=42 velocity=92 time=0
EXTRACT: note_on channel=15 note=36 velocity=92 time=0
EXTRACT: note_on channel=9 note=35 velocity=0 time=0.0763888125
EXTRACT: note_on channel=9 note=42 velocity=0 time=0
EXTRACT: note_on channel=7 note=62 velocity=0 time=0.08333325
EXTRACT: note_on channel=8 note=62 velocity=0 time=0
EXTRACT: note_on channel=7 note=58 velocity=92 time=0.0069444375
EXTRACT: note_on channel=8 note=58 velocity=92 time=0
EXTRACT: note_on channel=9 note=82 velocity=92 time=0.041666625
EXTRACT: note_on channel=9 note=82 velocity=0 time=0.0763888125
EXTRACT: note_on channel=7 note=58 velocity=0 time=0.041666625
EXTRACT: note_on channel=8 note=58 velocity=0 time=0
EXTRACT: note_on channel=7 note=60 velocity=92 time=0.0069444375
EXTRACT: note_on channel=8 note=60 velocity=92 time=0
EXTRACT: note_on channel=9 note=35 velocity=92 time=0
EXTRACT: note_on channel=9 note=46 velocity=92 time=0
EXTRACT: note_on channel=9 note=35 velocity=0 time=0.0763888125
EXTRACT: note_on channel=9 note=46 velocity=0 time=0
EXTRACT: note_on channel=7 note=60 velocity=0 time=0.08333325
EXTRACT: note_on channel=8 note=60 velocity=0 time=0
EXTRACT: note_on channel=15 note=36 velocity=0 time=0
EXTRACT: note_on channel=7 note=62 velocity=92 time=0.0069444375
EXTRACT: note_on channel=8 note=62 velocity=92 time=0
EXTRACT: note_on channel=9 note=82 velocity=92 time=0.041666625
EXTRACT: note_on channel=3 note=72 velocity=0 time=0.013888875
EXTRACT: note_on channel=7 note=62 velocity=0 time=0.1041665625
EXTRACT: note_on channel=8 note=62 velocity=0 time=0
EXTRACT: note_on channel=9 note=82 velocity=0 time=0
EXTRACT: note_on channel=3 note=74 velocity=92 time=0.0069444375
EXTRACT: note_on channel=7 note=58 velocity=92 time=0
EXTRACT: note_on channel=8 note=58 velocity=92 time=0
EXTRACT: note_on channel=9 note=82 velocity=92 time=0
EXTRACT: note_on channel=9 note=40 velocity=92 time=0
EXTRACT: note_on channel=9 note=42 velocity=92 time=0
EXTRACT: note_on channel=15 note=36 velocity=92 time=0
EXTRACT: note_on channel=9 note=40 velocity=0 time=0.0347221875
EXTRACT: note_on channel=9 note=42 velocity=0 time=0
EXTRACT: note_on channel=9 note=40 velocity=92 time=0.0069444375
EXTRACT: note_on channel=9 note=40 velocity=0 time=0.0347221875
EXTRACT: note_on channel=7 note=58 velocity=0 time=0.08333325
EXTRACT: note_on channel=8 note=58 velocity=0 time=0
EXTRACT: note_on channel=15 note=36 velocity=0 time=0
EXTRACT: note_on channel=7 note=60 velocity=92 time=0.0069444375
EXTRACT: note_on channel=8 note=60 velocity=92 time=0
EXTRACT: note_on channel=15 note=39 velocity=92 time=0
EXTRACT: note_on channel=9 note=82 velocity=0 time=0.0347221875
EXTRACT: note_on channel=9 note=82 velocity=92 time=0.0069444375
EXTRACT: note_on channel=7 note=60 velocity=0 time=0.1180554375
EXTRACT: note_on channel=8 note=60 velocity=0 time=0
EXTRACT: note_on channel=9 note=82 velocity=0 time=0
EXTRACT: note_on channel=15 note=39 velocity=0 time=0
EXTRACT: note_on channel=7 note=62 velocity=92 time=0.0069444375
EXTRACT: note_on channel=8 note=62 velocity=92 time=0
EXTRACT: note_on channel=9 note=82 velocity=92 time=0
EXTRACT: note_on channel=9 note=40 velocity=92 time=0
EXTRACT: note_on channel=9 note=42 velocity=92 time=0
EXTRACT: note_on channel=15 note=41 velocity=92 time=0
EXTRACT: note_on channel=9 note=40 velocity=0 time=0.1597220625
EXTRACT: note_on channel=9 note=42 velocity=0 time=0
EXTRACT: note_on channel=9 note=40 velocity=92 time=0.0069444375
EXTRACT: note_on channel=9 note=82 velocity=0 time=0.0347221875
EXTRACT: note_on channel=9 note=82 velocity=92 time=0.0069444375
EXTRACT: note_on channel=3 note=74 velocity=0 time=0.013888875
EXTRACT: note_on channel=7 note=62 velocity=0 time=0.1041665625
EXTRACT: note_on channel=8 note=62 velocity=0 time=0
EXTRACT: note_on channel=9 note=82 velocity=0 time=0
EXTRACT: note_on channel=9 note=40 velocity=0 time=0
EXTRACT: note_on channel=15 note=41 velocity=0 time=0
EXTRACT: note_on channel=0 note=82 velocity=127 time=0.0069444375
EXTRACT: note_on channel=3 note=58 velocity=92 time=0
EXTRACT: note_on channel=3 note=65 velocity=92 time=0
EXTRACT: note_on channel=3 note=70 velocity=92 time=0
EXTRACT: note_on channel=3 note=74 velocity=92 time=0
EXTRACT: note_on channel=9 note=57 velocity=92 time=0
EXTRACT: note_on channel=9 note=82 velocity=92 time=0
EXTRACT: note_on channel=9 note=35 velocity=92 time=0
EXTRACT: note_on channel=9 note=42 velocity=92 time=0
EXTRACT: note_on channel=9 note=52 velocity=92 time=0
EXTRACT: note_on channel=15 note=34 velocity=92 time=0
EXTRACT: note_on channel=7 note=58 velocity=92 time=0.041666625
EXTRACT: note_on channel=9 note=35 velocity=0 time=0.0347221875
EXTRACT: note_on channel=9 note=42 velocity=0 time=0
EXTRACT: note_on channel=9 note=52 velocity=0 time=0
EXTRACT: note_on channel=7 note=58 velocity=0 time=0.124999875
EXTRACT: note_on channel=9 note=57 velocity=0 time=0
EXTRACT: note_on channel=9 note=82 velocity=0 time=0
EXTRACT: note_on channel=7 note=60 velocity=92 time=0.0069444375
EXTRACT: note_on channel=9 note=82 velocity=92 time=0
EXTRACT: note_on channel=7 note=60 velocity=0 time=0.1180554375
EXTRACT: note_on channel=9 note=82 velocity=0 time=0
EXTRACT: note_on channel=7 note=62 velocity=92 time=0.0069444375
EXTRACT: note_on channel=9 note=82 velocity=92 time=0
EXTRACT: note_on channel=9 note=42 velocity=92 time=0
EXTRACT: note_on channel=9 note=42 velocity=0 time=0.0763888125
EXTRACT: note_on channel=7 note=62 velocity=0 time=0.08333325
EXTRACT: note_on channel=7 note=58 velocity=92 time=0.0069444375
EXTRACT: note_on channel=9 note=82 velocity=0 time=0.0347221875
EXTRACT: note_on channel=9 note=82 velocity=92 time=0.0069444375
EXTRACT: note_on channel=7 note=58 velocity=0 time=0.1180554375
EXTRACT: note_on channel=9 note=82 velocity=0 time=0
EXTRACT: note_on channel=7 note=60 velocity=92 time=0.0069444375
EXTRACT: note_on channel=9 note=82 velocity=92 time=0
EXTRACT: note_on channel=9 note=40 velocity=92 time=0
EXTRACT: note_on channel=9 note=42 velocity=92 time=0
EXTRACT: note_on channel=0 note=82 velocity=0 time=0.0347221875
EXTRACT: note_on channel=0 note=77 velocity=127 time=0.0069444375
EXTRACT: note_on channel=9 note=40 velocity=0 time=0.0347221875
EXTRACT: note_on channel=9 note=42 velocity=0 time=0
EXTRACT: note_on channel=7 note=60 velocity=0 time=0.08333325
EXTRACT: note_on channel=7 note=62 velocity=92 time=0.0069444375
EXTRACT: note_on channel=9 note=82 velocity=0 time=0.0347221875
EXTRACT: note_on channel=9 note=82 velocity=92 time=0.0069444375
EXTRACT: note_on channel=0 note=77 velocity=0 time=0.1180554375
EXTRACT: note_on channel=7 note=62 velocity=0 time=0
EXTRACT: note_on channel=9 note=82 velocity=0 time=0
EXTRACT: note_on channel=0 note=79 velocity=127 time=0.0069444375
EXTRACT: note_on channel=7 note=58 velocity=92 time=0
EXTRACT: note_on channel=9 note=82 velocity=92 time=0
EXTRACT: note_on channel=9 note=42 velocity=92 time=0
EXTRACT: note_on channel=9 note=42 velocity=0 time=0.0763888125
EXTRACT: note_on channel=7 note=58 velocity=0 time=0.08333325
EXTRACT: note_on channel=15 note=34 velocity=0 time=0
EXTRACT: note_on channel=7 note=60 velocity=92 time=0.0069444375
EXTRACT: note_on channel=15 note=34 velocity=92 time=0
EXTRACT: note_on channel=0 note=79 velocity=0 time=0.0347221875
EXTRACT: note_on channel=9 note=82 velocity=0 time=0
EXTRACT: note_on channel=0 note=79 velocity=127 time=0.0069444375
EXTRACT: note_on channel=9 note=82 velocity=92 time=0
EXTRACT: note_on channel=7 note=60 velocity=0 time=0.1180554375
EXTRACT: note_on channel=9 note=82 velocity=0 time=0
EXTRACT: note_on channel=15 note=34 velocity=0 time=0
EXTRACT: note_on channel=7 note=62 velocity=92 time=0.0069444375
EXTRACT: note_on channel=9 note=35 velocity=92 time=0
EXTRACT: note_on channel=9 note=42 velocity=92 time=0
EXTRACT: note_on channel=15 note=29 velocity=92 time=0
EXTRACT: note_on channel=9 note=35 velocity=0 time=0.0763888125
EXTRACT: note_on channel=9 note=42 velocity=0 time=0
EXTRACT: note_on channel=7 note=62 velocity=0 time=0.08333325
EXTRACT: note_on channel=15 note=29 velocity=0 time=0
EXTRACT: note_on channel=7 note=58 velocity=92 time=0.0069444375
EXTRACT: note_on channel=15 note=31 velocity=92 time=0
EXTRACT: note_on channel=9 note=82 velocity=92 time=0.041666625
EXTRACT: note_on channel=9 note=82 velocity=0 time=0.0763888125
EXTRACT: note_on channel=0 note=79 velocity=0 time=0.041666625
EXTRACT: note_on channel=7 note=58 velocity=0 time=0
EXTRACT: note_on channel=15 note=31 velocity=0 time=0
EXTRACT: note_on channel=0 note=77 velocity=127 time=0.0069444375
EXTRACT: note_on channel=7 note=60 velocity=92 time=0
EXTRACT: note_on channel=9 note=35 velocity=92 time=0
EXTRACT: note_on channel=9 note=46 velocity=92 time=0
EXTRACT: note_on channel=15 note=34 velocity=92 time=0
EXTRACT: note_on channel=9 note=35 velocity=0 time=0.0763888125
EXTRACT: note_on channel=9 note=46 velocity=0 time=0
EXTRACT: note_on channel=7 note=60 velocity=0 time=0.08333325
EXTRACT: note_on channel=7 note=62 velocity=92 time=0.0069444375
EXTRACT: note_on channel=9 note=82 velocity=92 time=0.041666625
EXTRACT: note_on channel=0 note=77 velocity=0 time=0.1180554375
EXTRACT: note_on channel=7 note=62 velocity=0 time=0
EXTRACT: note_on channel=9 note=82 velocity=0 time=0
EXTRACT: note_on channel=15 note=34 velocity=0 time=0
EXTRACT: note_on channel=0 note=77 velocity=127 time=0.0069444375
EXTRACT: note_on channel=7 note=58 velocity=92 time=0
EXTRACT: note_on channel=9 note=82 velocity=92 time=0
EXTRACT: note_on channel=9 note=40 velocity=92 time=0
EXTRACT: note_on channel=9 note=42 velocity=92 time=0
EXTRACT: note_on channel=15 note=38 velocity=92 time=0
EXTRACT: note_on channel=9 note=40 velocity=0 time=0.0763888125
EXTRACT: note_on channel=9 note=42 velocity=0 time=0
EXTRACT: note_on channel=7 note=58 velocity=0 time=0.08333325
EXTRACT: note_on channel=7 note=60 velocity=92 time=0.0069444375
EXTRACT: note_on channel=0 note=77 velocity=0 time=0.0347221875
EXTRACT: note_on channel=9 note=82 velocity=0 time=0
EXTRACT: note_on channel=0 note=75 velocity=127 time=0.0069444375
EXTRACT: note_on channel=9 note=82 velocity=92 time=0
EXTRACT: note_on channel=7 note=60 velocity=0 time=0.1180554375
EXTRACT: note_on channel=9 note=82 velocity=0 time=0
EXTRACT: note_on channel=15 note=38 velocity=0 time=0
EXTRACT: note_on channel=7 note=62 velocity=92 time=0.0069444375
EXTRACT: note_on channel=9 note=82 velocity=92 time=0
EXTRACT: note_on channel=9 note=42 velocity=92 time=0
EXTRACT: note_on channel=15 note=34 velocity=92 time=0
EXTRACT: note_on channel=0 note=75 velocity=0 time=0.0347221875
EXTRACT: note_on channel=0 note=74 velocity=127 time=0.0069444375
EXTRACT: note_on channel=9 note=42 velocity=0 time=0.0347221875
EXTRACT: note_on channel=0 note=74 velocity=0 time=0.08333325
EXTRACT: note_on channel=0 note=75 velocity=127 time=0.0069444375
EXTRACT: note_on channel=3 note=58 velocity=0 time=0
EXTRACT: note_on channel=3 note=65 velocity=0 time=0
EXTRACT: note_on channel=3 note=70 velocity=0 time=0
EXTRACT: note_on channel=3 note=74 velocity=0 time=0
EXTRACT: note_on channel=9 note=82 velocity=0 time=0.0347221875
EXTRACT: note_on channel=9 note=82 velocity=92 time=0.0069444375
EXTRACT: note_on channel=0 note=75 velocity=0 time=0.1180554375
EXTRACT: note_on channel=7 note=62 velocity=0 time=0
EXTRACT: note_on channel=9 note=82 velocity=0 time=0
EXTRACT: note_on channel=15 note=34 velocity=0 time=0
EXTRACT: note_on channel=3 note=57 velocity=92 time=0.0069444375
EXTRACT: note_on channel=3 note=69 velocity=92 time=0
EXTRACT: note_on channel=9 note=82 velocity=92 time=0
EXTRACT: note_on channel=9 note=35 velocity=92 time=0
EXTRACT: note_on channel=9 note=42 velocity=92 time=0
EXTRACT: note_on channel=15 note=29 velocity=92 time=0
EXTRACT: note_on channel=0 note=75 velocity=127 time=0.041666625
EXTRACT: note_on channel=7 note=58 velocity=92 time=0
EXTRACT: note_on channel=9 note=35 velocity=0 time=0.0347221875
EXTRACT: note_on channel=9 note=42 velocity=0 time=0
EXTRACT: note_on channel=7 note=58 velocity=0 time=0.124999875
EXTRACT: note_on channel=9 note=82 velocity=0 time=0
EXTRACT: note_on channel=7 note=60 velocity=92 time=0.0069444375
EXTRACT: note_on channel=9 note=82 velocity=92 time=0
EXTRACT: note_on channel=7 note=60 velocity=0 time=0.1180554375
EXTRACT: note_on channel=9 note=82 velocity=0 time=0
EXTRACT: note_on channel=7 note=62 velocity=92 time=0.0069444375
EXTRACT: note_on channel=9 note=82 velocity=92 time=0
EXTRACT: note_on channel=9 note=42 velocity=92 time=0
EXTRACT: note_on channel=9 note=42 velocity=0 time=0.0763888125
EXTRACT: note_on channel=0 note=75 velocity=0 time=0.08333325
EXTRACT: note_on channel=7 note=62 velocity=0 time=0
EXTRACT: note_on channel=0 note=74 velocity=127 time=0.0069444375
EXTRACT: note_on channel=7 note=58 velocity=92 time=0
EXTRACT: note_on channel=9 note=82 velocity=0 time=0.0347221875
EXTRACT: note_on channel=9 note=82 velocity=92 time=0.0069444375
EXTRACT: note_on channel=7 note=58 velocity=0 time=0.1180554375
EXTRACT: note_on channel=9 note=82 velocity=0 time=0
EXTRACT: note_on channel=7 note=60 velocity=92 time=0.0069444375
EXTRACT: note_on channel=9 note=82 velocity=92 time=0
EXTRACT: note_on channel=9 note=40 velocity=92 time=0
EXTRACT: note_on channel=9 note=42 velocity=92 time=0
EXTRACT: note_on channel=9 note=40 velocity=0 time=0.0763888125
EXTRACT: note_on channel=9 note=42 velocity=0 time=0
EXTRACT: note_on channel=7 note=60 velocity=0 time=0.08333325
EXTRACT: note_on channel=7 note=62 velocity=92 time=0.0069444375
EXTRACT: note_on channel=9 note=82 velocity=0 time=0.0347221875
EXTRACT: note_on channel=9 note=82 velocity=92 time=0.0069444375
EXTRACT: note_on channel=15 note=29 velocity=0 time=0.0763888125
EXTRACT: note_on channel=7 note=62 velocity=0 time=0.041666625
EXTRACT: note_on channel=9 note=82 velocity=0 time=0
EXTRACT: note_on channel=7 note=58 velocity=92 time=0.0069444375
EXTRACT: note_on channel=9 note=82 velocity=92 time=0
EXTRACT: note_on channel=9 note=42 velocity=92 time=0
EXTRACT: note_on channel=9 note=42 velocity=0 time=0.0763888125
EXTRACT: note_on channel=0 note=74 velocity=0 time=0.08333325
EXTRACT: note_on channel=7 note=58 velocity=0 time=0
EXTRACT: note_on channel=7 note=60 velocity=92 time=0.0069444375
EXTRACT: note_on channel=15 note=29 velocity=92 time=0
EXTRACT: note_on channel=9 note=82 velocity=0 time=0.0347221875
EXTRACT: note_on channel=9 note=82 velocity=92 time=0.0069444375
EXTRACT: note_on channel=7 note=60 velocity=0 time=0.1180554375
EXTRACT: note_on channel=9 note=82 velocity=0 time=0
EXTRACT: note_on channel=15 note=29 velocity=0 time=0
EXTRACT: note_on channel=7 note=62 velocity=92 time=0.0069444375
EXTRACT: note_on channel=8 note=62 velocity=92 time=0
EXTRACT: note_on channel=9 note=35 velocity=92 time=0
EXTRACT: note_on channel=9 note=42 velocity=92 time=0
EXTRACT: note_on channel=15 note=29 velocity=92 time=0
EXTRACT: note_on channel=9 note=35 velocity=0 time=0.0763888125
EXTRACT: note_on channel=9 note=42 velocity=0 time=0
EXTRACT: note_on channel=7 note=62 velocity=0 time=0.08333325
EXTRACT: note_on channel=8 note=62 velocity=0 time=0
EXTRACT: note_on channel=15 note=29 velocity=0 time=0
EXTRACT: note_on channel=0 note=74 velocity=127 time=0.0069444375
EXTRACT: note_on channel=7 note=58 velocity=92 time=0
EXTRACT: note_on channel=8 note=58 velocity=92 time=0
EXTRACT: note_on channel=15 note=27 velocity=92 time=0
EXTRACT: note_on channel=9 note=82 velocity=92 time=0.041666625
EXTRACT: note_on channel=9 note=82 velocity=0 time=0.0763888125
EXTRACT: note_on channel=7 note=58 velocity=0 time=0.041666625
EXTRACT: note_on channel=8 note=58 velocity=0 time=0
EXTRACT: note_on channel=15 note=27 velocity=0 time=0
EXTRACT: note_on channel=7 note=60 velocity=92 time=0.0069444375
EXTRACT: note_on channel=8 note=60 velocity=92 time=0
EXTRACT: note_on channel=9 note=35 velocity=92 time=0
EXTRACT: note_on channel=9 note=46 velocity=92 time=0
EXTRACT: note_on channel=15 note=29 velocity=92 time=0
EXTRACT: note_on channel=9 note=35 velocity=0 time=0.0763888125
EXTRACT: note_on channel=9 note=46 velocity=0 time=0
EXTRACT: note_on channel=0 note=74 velocity=0 time=0.08333325
EXTRACT: note_on channel=7 note=60 velocity=0 time=0
EXTRACT: note_on channel=8 note=60 velocity=0 time=0
EXTRACT: note_on channel=0 note=74 velocity=127 time=0.0069444375
EXTRACT: note_on channel=7 note=62 velocity=92 time=0
EXTRACT: note_on channel=8 note=62 velocity=92 time=0
EXTRACT: note_on channel=9 note=82 velocity=92 time=0.041666625
EXTRACT: note_on channel=0 note=74 velocity=0 time=0.1180554375
EXTRACT: note_on channel=7 note=62 velocity=0 time=0
EXTRACT: note_on channel=8 note=62 velocity=0 time=0
EXTRACT: note_on channel=9 note=82 velocity=0 time=0
EXTRACT: note_on channel=15 note=29 velocity=0 time=0
EXTRACT: note_on channel=0 note=74 velocity=127 time=0.0069444375
EXTRACT: note_on channel=7 note=58 velocity=92 time=0
EXTRACT: note_on channel=8 note=58 velocity=92 time=0
EXTRACT: note_on channel=9 note=82 velocity=92 time=0
EXTRACT: note_on channel=9 note=40 velocity=92 time=0
EXTRACT: note_on channel=9 note=42 velocity=92 time=0
EXTRACT: note_on channel=15 note=31 velocity=92 time=0
EXTRACT: note_on channel=9 note=40 velocity=0 time=0.0763888125
EXTRACT: note_on channel=9 note=42 velocity=0 time=0
EXTRACT: note_on channel=7 note=58 velocity=0 time=0.08333325
EXTRACT: note_on channel=8 note=58 velocity=0 time=0
EXTRACT: note_on channel=7 note=60 velocity=92 time=0.0069444375
EXTRACT: note_on channel=8 note=60 velocity=92 time=0
EXTRACT: note_on channel=9 note=82 velocity=0 time=0.0347221875
EXTRACT: note_on channel=9 note=82 velocity=92 time=0.0069444375
EXTRACT: note_on channel=7 note=60 velocity=0 time=0.1180554375
EXTRACT: note_on channel=8 note=60 velocity=0 time=0
EXTRACT: note_on channel=9 note=82 velocity=0 time=0
EXTRACT: note_on channel=15 note=31 velocity=0 time=0
EXTRACT: note_on channel=7 note=62 velocity=92 time=0.0069444375
EXTRACT: note_on channel=8 note=62 velocity=92 time=0
EXTRACT: note_on channel=9 note=82 velocity=92 time=0
EXTRACT: note_on channel=9 note=42 velocity=92 time=0
EXTRACT: note_on channel=15 note=34 velocity=92 time=0
EXTRACT: note_on channel=0 note=74 velocity=0 time=0.0347221875
EXTRACT: note_on channel=0 note=72 velocity=127 time=0.0069444375
EXTRACT: note_on channel=9 note=42 velocity=0 time=0.0347221875
EXTRACT: note_on channel=0 note=72 velocity=0 time=0.08333325
EXTRACT: note_on channel=0 note=70 velocity=127 time=0.0069444375
EXTRACT: note_on channel=3 note=57 velocity=0 time=0
EXTRACT: note_on channel=3 note=69 velocity=0 time=0
EXTRACT: note_on channel=9 note=82 velocity=0 time=0.0347221875
EXTRACT: note_on channel=9 note=82 velocity=92 time=0.0069444375
EXTRACT: note_on channel=0 note=70 velocity=0 time=0.1180554375
EXTRACT: note_on channel=7 note=62 velocity=0 time=0
EXTRACT: note_on channel=8 note=62 velocity=0 time=0
EXTRACT: note_on channel=9 note=82 velocity=0 time=0
EXTRACT: note_on channel=15 note=34 velocity=0 time=0
EXTRACT: note_on channel=3 note=58 velocity=92 time=0.0069444375
EXTRACT: note_on channel=3 note=63 velocity=92 time=0
EXTRACT: note_on channel=3 note=67 velocity=92 time=0
EXTRACT: note_on channel=9 note=82 velocity=92 time=0
EXTRACT: note_on channel=9 note=35 velocity=92 time=0
EXTRACT: note_on channel=9 note=42 velocity=92 time=0
EXTRACT: note_on channel=15 note=36 velocity=92 time=0
EXTRACT: note_on channel=0 note=70 velocity=127 time=0.041666625
EXTRACT: note_on channel=7 note=58 velocity=92 time=0
EXTRACT: note_on channel=8 note=58 velocity=92 time=0
EXTRACT: note_on channel=9 note=35 velocity=0 time=0.0347221875
EXTRACT: note_on channel=9 note=42 velocity=0 time=0
EXTRACT: note_on channel=7 note=58 velocity=0 time=0.124999875
EXTRACT: note_on channel=8 note=58 velocity=0 time=0
EXTRACT: note_on channel=9 note=82 velocity=0 time=0
EXTRACT: note_on channel=7 note=60 velocity=92 time=0.0069444375
EXTRACT: note_on channel=8 note=60 velocity=92 time=0
EXTRACT: note_on channel=9 note=82 velocity=92 time=0
EXTRACT: note_on channel=7 note=60 velocity=0 time=0.1180554375
EXTRACT: note_on channel=8 note=60 velocity=0 time=0
EXTRACT: note_on channel=9 note=82 velocity=0 time=0
EXTRACT: note_on channel=7 note=62 velocity=92 time=0.0069444375
EXTRACT: note_on channel=8 note=62 velocity=92 time=0
EXTRACT: note_on channel=9 note=82 velocity=92 time=0
EXTRACT: note_on channel=9 note=42 velocity=92 time=0
EXTRACT: note_on channel=0 note=70 velocity=0 time=0.0347221875
EXTRACT: note_on channel=0 note=72 velocity=127 time=0.0069444375
EXTRACT: note_on channel=9 note=42 velocity=0 time=0.0347221875
EXTRACT: note_on channel=7 note=62 velocity=0 time=0.08333325
EXTRACT: note_on channel=8 note=62 velocity=0 time=0
EXTRACT: note_on channel=7 note=58 velocity=92 time=0.0069444375
EXTRACT: note_on channel=8 note=58 velocity=92 time=0
EXTRACT: note_on channel=9 note=82 velocity=0 time=0.0347221875
EXTRACT: note_on channel=9 note=82 velocity=92 time=0.0069444375
EXTRACT: note_on channel=7 note=58 velocity=0 time=0.1180554375
EXTRACT: note_on channel=8 note=58 velocity=0 time=0
EXTRACT: note_on channel=9 note=82 velocity=0 time=0
EXTRACT: note_on channel=7 note=60 velocity=92 time=0.0069444375
EXTRACT: note_on channel=8 note=60 velocity=92 time=0
EXTRACT: note_on channel=9 note=82 velocity=92 time=0
EXTRACT: note_on channel=9 note=40 velocity=92 time=0
EXTRACT: note_on channel=9 note=42 velocity=92 time=0
EXTRACT: note_on channel=9 note=40 velocity=0 time=0.0763888125
EXTRACT: note_on channel=9 note=42 velocity=0 time=0
EXTRACT: note_on channel=7 note=60 velocity=0 time=0.08333325
EXTRACT: note_on channel=8 note=60 velocity=0 time=0
EXTRACT: note_on channel=7 note=62 velocity=92 time=0.0069444375
EXTRACT: note_on channel=8 note=62 velocity=92 time=0
EXTRACT: note_on channel=9 note=82 velocity=0 time=0.0347221875
EXTRACT: note_on channel=9 note=82 velocity=92 time=0.0069444375
EXTRACT: note_on channel=7 note=62 velocity=0 time=0.1180554375
EXTRACT: note_on channel=8 note=62 velocity=0 time=0
EXTRACT: note_on channel=9 note=82 velocity=0 time=0
EXTRACT: note_on channel=7 note=58 velocity=92 time=0.0069444375
EXTRACT: note_on channel=8 note=58 velocity=92 time=0
EXTRACT: note_on channel=9 note=82 velocity=92 time=0
EXTRACT: note_on channel=9 note=42 velocity=92 time=0
EXTRACT: note_on channel=9 note=42 velocity=0 time=0.0763888125
EXTRACT: note_on channel=7 note=58 velocity=0 time=0.08333325
EXTRACT: note_on channel=8 note=58 velocity=0 time=0
EXTRACT: note_on channel=15 note=36 velocity=0 time=0
EXTRACT: note_on channel=3 note=58 velocity=0 time=0.0069444375
EXTRACT: note_on channel=3 note=63 velocity=0 time=0
EXTRACT: note_on channel=3 note=67 velocity=0 time=0
EXTRACT: note_on channel=7 note=60 velocity=92 time=0
EXTRACT: note_on channel=8 note=60 velocity=92 time=0
EXTRACT: note_on channel=15 note=34 velocity=92 time=0
EXTRACT: note_on channel=9 note=82 velocity=0 time=0.0347221875
EXTRACT: note_on channel=9 note=82 velocity=92 time=0.0069444375
EXTRACT: note_on channel=7 note=60 velocity=0 time=0.1180554375
EXTRACT: note_on channel=8 note=60 velocity=0 time=0
EXTRACT: note_on channel=9 note=82 velocity=0 time=0
EXTRACT: note_on channel=15 note=34 velocity=0 time=0
EXTRACT: note_on channel=3 note=72 velocity=92 time=0.0069444375
EXTRACT: note_on channel=7 note=62 velocity=92 time=0
EXTRACT: note_on channel=8 note=62 velocity=92 time=0
EXTRACT: note_on channel=9 note=35 velocity=92 time=0
EXTRACT: note_on channel=9 note=42 velocity=92 time=0
EXTRACT: note_on channel=15 note=36 velocity=92 time=0
EXTRACT: note_on channel=9 note=35 velocity=0 time=0.0763888125
EXTRACT: note_on channel=9 note=42 velocity=0 time=0
EXTRACT: note_on channel=0 note=72 velocity=0 time=0.08333325
EXTRACT: note_on channel=7 note=62 velocity=0 time=0
EXTRACT: note_on channel=0 note=74 velocity=127 time=0.0069444375
EXTRACT: note_on channel=7 note=58 velocity=92 time=0
EXTRACT: note_on channel=8 note=62 velocity=0 time=0.0347221875
EXTRACT: note_on channel=9 note=82 velocity=92 time=0.0069444375
EXTRACT: note_on channel=9 note=82 velocity=0 time=0.0763888125
EXTRACT: note_on channel=7 note=58 velocity=0 time=0.041666625
EXTRACT: note_on channel=15 note=36 velocity=0 time=0
EXTRACT: note_on channel=7 note=60 velocity=92 time=0.0069444375
EXTRACT: note_on channel=9 note=35 velocity=92 time=0
EXTRACT: note_on channel=9 note=46 velocity=92 time=0
EXTRACT: note_on channel=15 note=22 velocity=92 time=0
EXTRACT: note_on channel=9 note=35 velocity=0 time=0.0763888125
EXTRACT: note_on channel=9 note=46 velocity=0 time=0
EXTRACT: note_on channel=7 note=60 velocity=0 time=0.08333325
EXTRACT: note_on channel=7 note=62 velocity=92 time=0.0069444375
EXTRACT: note_on channel=0 note=74 velocity=0 time=0.0347221875
EXTRACT: note_on channel=0 note=74 velocity=127 time=0.0069444375
EXTRACT: note_on channel=9 note=82 velocity=92 time=0
EXTRACT: note_on channel=0 note=74 velocity=0 time=0.1180554375
EXTRACT: note_on channel=7 note=62 velocity=0 time=0
EXTRACT: note_on channel=9 note=82 velocity=0 time=0
EXTRACT: note_on channel=15 note=22 velocity=0 time=0
EXTRACT: note_on channel=7 note=58 velocity=92 time=0.0069444375
EXTRACT: note_on channel=9 note=82 velocity=92 time=0
EXTRACT: note_on channel=9 note=40 velocity=92 time=0
EXTRACT: note_on channel=9 note=42 velocity=92 time=0
EXTRACT: note_on channel=15 note=24 velocity=92 time=0
EXTRACT: note_on channel=0 note=74 velocity=127 time=0.041666625
EXTRACT: note_on channel=9 note=40 velocity=0 time=0.0347221875
EXTRACT: note_on channel=9 note=42 velocity=0 time=0
EXTRACT: note_on channel=7 note=58 velocity=0 time=0.08333325
EXTRACT: note_on channel=7 note=60 velocity=92 time=0.0069444375
EXTRACT: note_on channel=9 note=82 velocity=0 time=0.0347221875
EXTRACT: note_on channel=9 note=82 velocity=92 time=0.0069444375
EXTRACT: note_on channel=7 note=60 velocity=0 time=0.1180554375
EXTRACT: note_on channel=9 note=82 velocity=0 time=0
EXTRACT: note_on channel=15 note=24 velocity=0 time=0
EXTRACT: note_on channel=7 note=62 velocity=92 time=0.0069444375
EXTRACT: note_on channel=9 note=82 velocity=92 time=0
EXTRACT: note_on channel=9 note=42 velocity=92 time=0
EXTRACT: note_on channel=15 note=26 velocity=92 time=0
EXTRACT: note_on channel=0 note=74 velocity=0 time=0.0347221875
EXTRACT: note_on channel=0 note=72 velocity=127 time=0.0069444375
EXTRACT: note_on channel=9 note=42 velocity=0 time=0.0347221875
EXTRACT: note_on channel=3 note=72 velocity=0 time=0.0902776875
EXTRACT: note_on channel=0 note=72 velocity=0 time=0.0347221875
EXTRACT: note_on channel=9 note=82 velocity=0 time=0
EXTRACT: note_on channel=0 note=70 velocity=127 time=0.0069444375
EXTRACT: note_on channel=9 note=82 velocity=92 time=0
EXTRACT: note_on channel=0 note=70 velocity=0 time=0.1180554375
EXTRACT: note_on channel=7 note=62 velocity=0 time=0
EXTRACT: note_on channel=9 note=82 velocity=0 time=0
EXTRACT: note_on channel=15 note=26 velocity=0 time=0
EXTRACT: note_on channel=3 note=70 velocity=92 time=0.0069444375
EXTRACT: note_on channel=9 note=82 velocity=92 time=0
EXTRACT: note_on channel=9 note=35 velocity=92 time=0
EXTRACT: note_on channel=9 note=42 velocity=92 time=0
EXTRACT: note_on channel=15 note=27 velocity=92 time=0
EXTRACT: note_on channel=7 note=58 velocity=92 time=0.041666625
EXTRACT: note_on channel=9 note=35 velocity=0 time=0.0347221875
EXTRACT: note_on channel=9 note=42 velocity=0 time=0
EXTRACT: note_on channel=0 note=70 velocity=127 time=0.0069444375
EXTRACT: note_on channel=7 note=58 velocity=0 time=0.1180554375
EXTRACT: note_on channel=9 note=82 velocity=0 time=0
EXTRACT: note_on channel=7 note=60 velocity=92 time=0.0069444375
EXTRACT: note_on channel=9 note=82 velocity=92 time=0
EXTRACT: note_on channel=7 note=60 velocity=0 time=0.1180554375
EXTRACT: note_on channel=9 note=82 velocity=0 time=0
EXTRACT: note_on channel=7 note=62 velocity=92 time=0.0069444375
EXTRACT: note_on channel=9 note=82 velocity=92 time=0
EXTRACT: note_on channel=9 note=42 velocity=92 time=0
EXTRACT: note_on channel=0 note=70 velocity=0 time=0.0763888125
EXTRACT: note_on channel=9 note=42 velocity=0 time=0
EXTRACT: note_on channel=0 note=72 velocity=127 time=0.0069444375
EXTRACT: note_on channel=7 note=62 velocity=0 time=0.0763888125
EXTRACT: note_on channel=7 note=58 velocity=92 time=0.0069444375
EXTRACT: note_on channel=8 note=58 velocity=92 time=0
EXTRACT: note_on channel=9 note=82 velocity=0 time=0.0347221875
EXTRACT: note_on channel=9 note=82 velocity=92 time=0.0069444375
EXTRACT: note_on channel=7 note=58 velocity=0 time=0.1180554375
EXTRACT: note_on channel=8 note=58 velocity=0 time=0
EXTRACT: note_on channel=9 note=82 velocity=0 time=0
EXTRACT: note_on channel=7 note=60 velocity=92 time=0.0069444375
EXTRACT: note_on channel=8 note=60 velocity=92 time=0
EXTRACT: note_on channel=9 note=82 velocity=92 time=0
EXTRACT: note_on channel=9 note=40 velocity=92 time=0
EXTRACT: note_on channel=9 note=42 velocity=92 time=0
EXTRACT: note_on channel=9 note=40 velocity=0 time=0.0763888125
EXTRACT: note_on channel=9 note=42 velocity=0 time=0
EXTRACT: note_on channel=7 note=60 velocity=0 time=0.08333325
EXTRACT: note_on channel=8 note=60 velocity=0 time=0
EXTRACT: note_on channel=7 note=62 velocity=92 time=0.0069444375
EXTRACT: note_on channel=8 note=62 velocity=92 time=0
EXTRACT: note_on channel=9 note=82 velocity=0 time=0.0347221875
EXTRACT: note_on channel=9 note=82 velocity=92 time=0.0069444375
EXTRACT: note_on channel=7 note=62 velocity=0 time=0.1180554375
EXTRACT: note_on channel=8 note=62 velocity=0 time=0
EXTRACT: note_on channel=9 note=82 velocity=0 time=0
EXTRACT: note_on channel=7 note=58 velocity=92 time=0.0069444375
EXTRACT: note_on channel=8 note=58 velocity=92 time=0
EXTRACT: note_on channel=9 note=82 velocity=92 time=0
EXTRACT: note_on channel=9 note=42 velocity=92 time=0
EXTRACT: note_on channel=9 note=42 velocity=0 time=0.0763888125
EXTRACT: note_on channel=7 note=58 velocity=0 time=0.08333325
EXTRACT: note_on channel=8 note=58 velocity=0 time=0
EXTRACT: note_on channel=15 note=27 velocity=0 time=0
EXTRACT: note_on channel=3 note=70 velocity=0 time=0.0069444375
EXTRACT: note_on channel=7 note=60 velocity=92 time=0
EXTRACT: note_on channel=8 note=60 velocity=92 time=0
EXTRACT: note_on channel=15 note=27 velocity=92 time=0
EXTRACT: note_on channel=9 note=82 velocity=0 time=0.0347221875
EXTRACT: note_on channel=9 note=82 velocity=92 time=0.0069444375
EXTRACT: note_on channel=0 note=72 velocity=0 time=0.013888875
EXTRACT: note_on channel=7 note=60 velocity=0 time=0.1041665625
EXTRACT: note_on channel=8 note=60 velocity=0 time=0
EXTRACT: note_on channel=9 note=82 velocity=0 time=0
EXTRACT: note_on channel=15 note=27 velocity=0 time=0
EXTRACT: note_on channel=3 note=60 velocity=92 time=0.0069444375
EXTRACT: note_on channel=3 note=72 velocity=92 time=0
EXTRACT: note_on channel=7 note=62 velocity=92 time=0
EXTRACT: note_on channel=8 note=62 velocity=92 time=0
EXTRACT: note_on channel=9 note=35 velocity=92 time=0
EXTRACT: note_on channel=9 note=42 velocity=92 time=0
EXTRACT: note_on channel=15 note=27 velocity=92 time=0
EXTRACT: note_on channel=9 note=35 velocity=0 time=0.0763888125
EXTRACT: note_on channel=9 note=42 velocity=0 time=0
EXTRACT: note_on channel=15 note=27 velocity=0 time=0
EXTRACT: note_on channel=7 note=62 velocity=0 time=0.08333325
EXTRACT: note_on channel=8 note=62 velocity=0 time=0
EXTRACT: note_on channel=7 note=58 velocity=92 time=0.0069444375
EXTRACT: note_on channel=8 note=58 velocity=92 time=0
EXTRACT: note_on channel=9 note=82 velocity=92 time=0.041666625
EXTRACT: note_on channel=9 note=82 velocity=0 time=0.0763888125
EXTRACT: note_on channel=7 note=58 velocity=0 time=0.041666625
EXTRACT: note_on channel=8 note=58 velocity=0 time=0
EXTRACT: note_on channel=7 note=60 velocity=92 time=0.0069444375
EXTRACT: note_on channel=8 note=60 velocity=92 time=0
EXTRACT: note_on channel=9 note=35 velocity=92 time=0
EXTRACT: note_on channel=9 note=46 velocity=92 time=0
EXTRACT: note_on channel=15 note=27 velocity=92 time=0
EXTRACT: note_on channel=9 note=35 velocity=0 time=0.0763888125
EXTRACT: note_on channel=9 note=46 velocity=0 time=0
EXTRACT: note_on channel=7 note=60 velocity=0 time=0.08333325
EXTRACT: note_on channel=8 note=60 velocity=0 time=0
EXTRACT: note_on channel=7 note=62 velocity=92 time=0.0069444375
EXTRACT: note_on channel=8 note=62 velocity=92 time=0
EXTRACT: note_on channel=9 note=82 velocity=92 time=0.041666625
EXTRACT: note_on channel=3 note=60 velocity=0 time=0.013888875
EXTRACT: note_on channel=3 note=72 velocity=0 time=0
EXTRACT: note_on channel=7 note=62 velocity=0 time=0.1041665625
EXTRACT: note_on channel=8 note=62 velocity=0 time=0
EXTRACT: note_on channel=9 note=82 velocity=0 time=0
EXTRACT: note_on channel=15 note=27 velocity=0 time=0
EXTRACT: note_on channel=3 note=62 velocity=92 time=0.0069444375
EXTRACT: note_on channel=3 note=74 velocity=92 time=0
EXTRACT: note_on channel=7 note=58 velocity=92 time=0
EXTRACT: note_on channel=8 note=58 velocity=92 time=0
EXTRACT: note_on channel=9 note=82 velocity=92 time=0
EXTRACT: note_on channel=9 note=40 velocity=92 time=0
EXTRACT: note_on channel=9 note=42 velocity=92 time=0
EXTRACT: note_on channel=15 note=29 velocity=92 time=0
EXTRACT: note_on channel=9 note=40 velocity=0 time=0.0763888125
EXTRACT: note_on channel=9 note=42 velocity=0 time=0
EXTRACT: note_on channel=7 note=58 velocity=0 time=0.08333325
EXTRACT: note_on channel=8 note=58 velocity=0 time=0
EXTRACT: note_on channel=15 note=29 velocity=0 time=0
EXTRACT: note_on channel=7 note=60 velocity=92 time=0.0069444375
EXTRACT: note_on channel=8 note=60 velocity=92 time=0
EXTRACT: note_on channel=15 note=31 velocity=92 time=0
EXTRACT: note_on channel=9 note=82 velocity=0 time=0.0347221875
EXTRACT: note_on channel=9 note=82 velocity=92 time=0.0069444375
EXTRACT: note_on channel=7 note=60 velocity=0 time=0.1180554375
EXTRACT: note_on channel=8 note=60 velocity=0 time=0
EXTRACT: note_on channel=9 note=82 velocity=0 time=0
EXTRACT: note_on channel=15 note=31 velocity=0 time=0
EXTRACT: note_on channel=7 note=62 velocity=92 time=0.0069444375
EXTRACT: note_on channel=8 note=62 velocity=92 time=0
EXTRACT: note_on channel=9 note=82 velocity=92 time=0
EXTRACT: note_on channel=9 note=42 velocity=92 time=0
EXTRACT: note_on channel=15 note=34 velocity=92 time=0
EXTRACT: note_on channel=9 note=42 velocity=0 time=0.0763888125
EXTRACT: note_on channel=15 note=34 velocity=0 time=0.08333325
EXTRACT: note_on channel=15 note=31 velocity=92 time=0.0069444375
EXTRACT: note_on channel=9 note=82 velocity=0 time=0.0347221875
EXTRACT: note_on channel=9 note=82 velocity=92 time=0.0069444375
EXTRACT: note_on channel=3 note=62 velocity=0 time=0.013888875
EXTRACT: note_on channel=3 note=74 velocity=0 time=0
EXTRACT: note_on channel=7 note=62 velocity=0 time=0.1041665625
EXTRACT: note_on channel=8 note=62 velocity=0 time=0
EXTRACT: note_on channel=9 note=82 velocity=0 time=0
EXTRACT: note_on channel=15 note=31 velocity=0 time=0
EXTRACT: note_on channel=4 note=70 velocity=92 time=0.0069444375
EXTRACT: note_on channel=4 note=74 velocity=92 time=0
EXTRACT: note_on channel=9 note=82 velocity=92 time=0
EXTRACT: note_on channel=9 note=35 velocity=92 time=0
EXTRACT: note_on channel=9 note=42 velocity=92 time=0
EXTRACT: note_on channel=10 note=77 velocity=92 time=0
EXTRACT: note_on channel=10 note=65 velocity=92 time=0
EXTRACT: note_on channel=15 note=27 velocity=92 time=0
EXTRACT: note_on channel=9 note=82 velocity=0 time=0.0763888125
EXTRACT: note_on channel=9 note=35 velocity=0 time=0
EXTRACT: note_on channel=9 note=42 velocity=0 time=0
EXTRACT: note_on channel=0 note=72 velocity=127 time=0.1736109375
EXTRACT: note_on channel=9 note=82 velocity=92 time=0.08333325
EXTRACT: note_on channel=9 note=42 velocity=92 time=0
EXTRACT: note_on channel=0 note=72 velocity=0 time=0.0763888125
EXTRACT: note_on channel=9 note=82 velocity=0 time=0
EXTRACT: note_on channel=9 note=42 velocity=0 time=0
EXTRACT: note_on channel=0 note=74 velocity=127 time=0.0069444375
EXTRACT: note_on channel=4 note=70 velocity=0 time=0.13888875
EXTRACT: note_on channel=4 note=74 velocity=0 time=0
EXTRACT: note_on channel=0 note=74 velocity=0 time=0.0208333125
EXTRACT: note_on channel=0 note=72 velocity=127 time=0.0069444375
EXTRACT: note_on channel=4 note=69 velocity=92 time=0.08333325
EXTRACT: note_on channel=4 note=72 velocity=92 time=0
EXTRACT: note_on channel=9 note=82 velocity=92 time=0
EXTRACT: note_on channel=9 note=40 velocity=92 time=0
EXTRACT: note_on channel=9 note=42 velocity=92 time=0
EXTRACT: note_on channel=0 note=72 velocity=0 time=0.0763888125
EXTRACT: note_on channel=9 note=82 velocity=0 time=0
EXTRACT: note_on channel=9 note=40 velocity=0 time=0
EXTRACT: note_on channel=9 note=42 velocity=0 time=0
EXTRACT: note_on channel=0 note=74 velocity=127 time=0.0069444375
EXTRACT: note_on channel=0 note=74 velocity=0 time=0.1597220625
EXTRACT: note_on channel=0 note=72 velocity=127 time=0.0069444375
EXTRACT: note_on channel=9 note=82 velocity=92 time=0.08333325
EXTRACT: note_on channel=9 note=42 velocity=92 time=0
EXTRACT: note_on channel=9 note=82 velocity=0 time=0.0763888125
EXTRACT: note_on channel=9 note=42 velocity=0 time=0
EXTRACT: note_on channel=0 note=72 velocity=0 time=0.041666625
EXTRACT: note_on channel=0 note=74 velocity=127 time=0.0069444375
EXTRACT: note_on channel=15 note=27 velocity=0 time=0.041666625
EXTRACT: note_on channel=4 note=69 velocity=0 time=0.0555555
EXTRACT: note_on channel=4 note=72 velocity=0 time=0
EXTRACT: note_on channel=4 note=70 velocity=92 time=0.111111
EXTRACT: note_on channel=4 note=74 velocity=92 time=0
EXTRACT: note_on channel=9 note=82 velocity=92 time=0
EXTRACT: note_on channel=9 note=35 velocity=92 time=0
EXTRACT: note_on channel=9 note=42 velocity=92 time=0
EXTRACT: note_on channel=15 note=29 velocity=92 time=0
EXTRACT: note_on channel=9 note=82 velocity=0 time=0.0763888125
EXTRACT: note_on channel=9 note=35 velocity=0 time=0
EXTRACT: note_on channel=9 note=42 velocity=0 time=0
EXTRACT: note_on channel=15 note=29 velocity=0 time=0.08333325
EXTRACT: note_on channel=15 note=31 velocity=92 time=0.0069444375
EXTRACT: note_on channel=0 note=74 velocity=0 time=0.1597220625
EXTRACT: note_on channel=15 note=31 velocity=0 time=0
EXTRACT: note_on channel=0 note=72 velocity=127 time=0.0069444375
EXTRACT: note_on channel=9 note=82 velocity=92 time=0
EXTRACT: note_on channel=9 note=35 velocity=92 time=0
EXTRACT: note_on channel=9 note=46 velocity=92 time=0
EXTRACT: note_on channel=15 note=34 velocity=92 time=0
EXTRACT: note_on channel=9 note=82 velocity=0 time=0.0763888125
EXTRACT: note_on channel=9 note=35 velocity=0 time=0
EXTRACT: note_on channel=9 note=46 velocity=0 time=0
EXTRACT: note_on channel=0 note=72 velocity=0 time=0.124999875
EXTRACT: note_on channel=0 note=74 velocity=127 time=0.0069444375
EXTRACT: note_on channel=4 note=70 velocity=0 time=0.013888875
EXTRACT: note_on channel=4 note=74 velocity=0 time=0
EXTRACT: note_on channel=15 note=34 velocity=0 time=0.1041665625
EXTRACT: note_on channel=4 note=69 velocity=92 time=0.0069444375
EXTRACT: note_on channel=4 note=72 velocity=92 time=0
EXTRACT: note_on channel=9 note=82 velocity=92 time=0
EXTRACT: note_on channel=9 note=40 velocity=92 time=0
EXTRACT: note_on channel=9 note=42 velocity=92 time=0
EXTRACT: note_on channel=9 note=82 velocity=0 time=0.0763888125
EXTRACT: note_on channel=9 note=40 velocity=0 time=0
EXTRACT: note_on channel=9 note=42 velocity=0 time=0
EXTRACT: note_on channel=15 note=34 velocity=92 time=0.0902776875
EXTRACT: note_on channel=15 note=34 velocity=0 time=0.1597220625
EXTRACT: note_on channel=9 note=82 velocity=92 time=0.0069444375
EXTRACT: note_on channel=9 note=42 velocity=92 time=0
EXTRACT: note_on channel=15 note=38 velocity=92 time=0
EXTRACT: note_on channel=9 note=82 velocity=0 time=0.0763888125
EXTRACT: note_on channel=9 note=42 velocity=0 time=0
EXTRACT: note_on channel=0 note=74 velocity=0 time=0.1458331875
EXTRACT: note_on channel=4 note=69 velocity=0 time=0
EXTRACT: note_on channel=4 note=72 velocity=0 time=0
EXTRACT: note_on channel=15 note=38 velocity=0 time=0.1041665625
EXTRACT: note_on channel=4 note=70 velocity=92 time=0.0069444375
EXTRACT: note_on channel=4 note=74 velocity=92 time=0
EXTRACT: note_on channel=9 note=82 velocity=92 time=0
EXTRACT: note_on channel=9 note=35 velocity=92 time=0
EXTRACT: note_on channel=9 note=42 velocity=92 time=0
EXTRACT: note_on channel=15 note=31 velocity=92 time=0
EXTRACT: note_on channel=9 note=82 velocity=0 time=0.0763888125
EXTRACT: note_on channel=9 note=35 velocity=0 time=0
EXTRACT: note_on channel=9 note=42 velocity=0 time=0
EXTRACT: note_on channel=0 note=74 velocity=127 time=0.1736109375
EXTRACT: note_on channel=9 note=82 velocity=92 time=0.08333325
EXTRACT: note_on channel=9 note=42 velocity=92 time=0
EXTRACT: note_on channel=0 note=74 velocity=0 time=0.0763888125
EXTRACT: note_on channel=9 note=82 velocity=0 time=0
EXTRACT: note_on channel=9 note=42 velocity=0 time=0
EXTRACT: note_on channel=0 note=77 velocity=127 time=0.0069444375
EXTRACT: note_on channel=4 note=70 velocity=0 time=0.13888875
EXTRACT: note_on channel=4 note=74 velocity=0 time=0
EXTRACT: note_on channel=0 note=77 velocity=0 time=0.0208333125
EXTRACT: note_on channel=0 note=77 velocity=127 time=0.0069444375
EXTRACT: note_on channel=4 note=69 velocity=92 time=0.08333325
EXTRACT: note_on channel=4 note=72 velocity=92 time=0
EXTRACT: note_on channel=9 note=82 velocity=92 time=0
EXTRACT: note_on channel=9 note=40 velocity=92 time=0
EXTRACT: note_on channel=9 note=42 velocity=92 time=0
EXTRACT: note_on channel=9 note=82 velocity=0 time=0.0763888125
EXTRACT: note_on channel=9 note=40 velocity=0 time=0
EXTRACT: note_on channel=9 note=42 velocity=0 time=0
EXTRACT: note_on channel=0 note=77 velocity=0 time=0.08333325
EXTRACT: note_on channel=0 note=77 velocity=127 time=0.0069444375
EXTRACT: note_on channel=0 note=77 velocity=0 time=0.1597220625
EXTRACT: note_on channel=0 note=77 velocity=127 time=0.0069444375
EXTRACT: note_on channel=9 note=82 velocity=92 time=0
EXTRACT: note_on channel=9 note=42 velocity=92 time=0
EXTRACT: note_on channel=9 note=82 velocity=0 time=0.0763888125
EXTRACT: note_on channel=9 note=42 velocity=0 time=0
EXTRACT: note_on channel=15 note=31 velocity=0 time=0.08333325
EXTRACT: note_on channel=15 note=31 velocity=92 time=0.0069444375
EXTRACT: note_on channel=0 note=77 velocity=0 time=0.0347221875
EXTRACT: note_on channel=0 note=77 velocity=127 time=0.0069444375
EXTRACT: note_on channel=4 note=69 velocity=0 time=0.013888875
EXTRACT: note_on channel=4 note=72 velocity=0 time=0
EXTRACT: note_on channel=15 note=31 velocity=0 time=0.1041665625
EXTRACT: note_on channel=4 note=70 velocity=92 time=0.0069444375
EXTRACT: note_on channel=4 note=74 velocity=92 time=0
EXTRACT: note_on channel=9 note=82 velocity=92 time=0
EXTRACT: note_on channel=9 note=35 velocity=92 time=0
EXTRACT: note_on channel=9 note=42 velocity=92 time=0
EXTRACT: note_on channel=15 note=26 velocity=92 time=0
EXTRACT: note_on channel=9 note=82 velocity=0 time=0.0763888125
EXTRACT: note_on channel=9 note=35 velocity=0 time=0
EXTRACT: note_on channel=9 note=42 velocity=0 time=0
EXTRACT: note_on channel=15 note=26 velocity=0 time=0.041666625
EXTRACT: note_on channel=0 note=77 velocity=0 time=0.08333325
EXTRACT: note_on channel=0 note=79 velocity=127 time=0.0069444375
EXTRACT: note_on channel=9 note=82 velocity=92 time=0.124999875
EXTRACT: note_on channel=9 note=35 velocity=92 time=0
EXTRACT: note_on channel=9 note=46 velocity=92 time=0
EXTRACT: note_on channel=15 note=26 velocity=92 time=0
EXTRACT: note_on channel=9 note=82 velocity=0 time=0.0763888125
EXTRACT: note_on channel=9 note=35 velocity=0 time=0
EXTRACT: note_on channel=9 note=46 velocity=0 time=0
EXTRACT: note_on channel=15 note=26 velocity=0 time=0.041666625
EXTRACT: note_on channel=10 note=77 velocity=0 time=0.0486110625
EXTRACT: note_on channel=10 note=65 velocity=0 time=0
EXTRACT: note_on channel=4 note=70 velocity=0 time=0.0555555
EXTRACT: note_on channel=4 note=74 velocity=0 time=0
EXTRACT: note_on channel=0 note=79 velocity=0 time=0.0624999375
EXTRACT: note_on channel=0 note=77 velocity=127 time=0.0069444375
EXTRACT: note_on channel=4 note=69 velocity=92 time=0.041666625
EXTRACT: note_on channel=4 note=72 velocity=92 time=0
EXTRACT: note_on channel=9 note=82 velocity=92 time=0
EXTRACT: note_on channel=9 note=40 velocity=92 time=0
EXTRACT: note_on channel=9 note=42 velocity=92 time=0
EXTRACT: note_on channel=10 note=67 velocity=92 time=0
EXTRACT: note_on channel=10 note=70 velocity=92 time=0
EXTRACT: note_on channel=10 note=75 velocity=92 time=0
EXTRACT: note_on channel=10 note=63 velocity=92 time=0
EXTRACT: note_on channel=15 note=31 velocity=92 time=0
EXTRACT: note_on channel=9 note=82 velocity=0 time=0.0763888125
EXTRACT: note_on channel=9 note=40 velocity=0 time=0
EXTRACT: note_on channel=9 note=42 velocity=0 time=0
EXTRACT: note_on channel=15 note=31 velocity=0 time=0.24999975
EXTRACT: note_on channel=9 note=82 velocity=92 time=0.0069444375
EXTRACT: note_on channel=9 note=42 velocity=92 time=0
EXTRACT: note_on channel=15 note=26 velocity=92 time=0
EXTRACT: note_on channel=9 note=82 velocity=0 time=0.0763888125
EXTRACT: note_on channel=9 note=42 velocity=0 time=0
EXTRACT: note_on channel=15 note=26 velocity=0 time=0.08333325
EXTRACT: note_on channel=0 note=77 velocity=0 time=0.0624999375
EXTRACT: note_on channel=4 note=69 velocity=0 time=0
EXTRACT: note_on channel=4 note=72 velocity=0 time=0
EXTRACT: note_on channel=10 note=67 velocity=0 time=0
EXTRACT: note_on channel=10 note=70 velocity=0 time=0
EXTRACT: note_on channel=10 note=75 velocity=0 time=0
EXTRACT: note_on channel=10 note=63 velocity=0 time=0
EXTRACT: note_on channel=4 note=70 velocity=92 time=0.111111
EXTRACT: note_on channel=4 note=74 velocity=92 time=0
EXTRACT: note_on channel=9 note=82 velocity=92 time=0
EXTRACT: note_on channel=9 note=35 velocity=92 time=0
EXTRACT: note_on channel=9 note=42 velocity=92 time=0
EXTRACT: note_on channel=10 note=74 velocity=92 time=0
EXTRACT: note_on channel=10 note=62 velocity=92 time=0
EXTRACT: note_on channel=15 note=27 velocity=92 time=0
EXTRACT: note_on channel=9 note=82 velocity=0 time=0.0763888125
EXTRACT: note_on channel=9 note=35 velocity=0 time=0
EXTRACT: note_on channel=9 note=42 velocity=0 time=0
EXTRACT: note_on channel=9 note=82 velocity=92 time=0.2569441875
EXTRACT: note_on channel=9 note=42 velocity=92 time=0
EXTRACT: note_on channel=0 note=72 velocity=127 time=0.041666625
EXTRACT: note_on channel=9 note=82 velocity=0 time=0.0347221875
EXTRACT: note_on channel=9 note=42 velocity=0 time=0
EXTRACT: note_on channel=0 note=72 velocity=0 time=0.08333325
EXTRACT: note_on channel=4 note=70 velocity=0 time=0.0624999375
EXTRACT: note_on channel=4 note=74 velocity=0 time=0
EXTRACT: note_on channel=4 note=69 velocity=92 time=0.111111
EXTRACT: note_on channel=4 note=72 velocity=92 time=0
EXTRACT: note_on channel=9 note=82 velocity=92 time=0
EXTRACT: note_on channel=9 note=40 velocity=92 time=0
EXTRACT: note_on channel=9 note=42 velocity=92 time=0
EXTRACT: note_on channel=9 note=82 velocity=0 time=0.0763888125
EXTRACT: note_on channel=9 note=40 velocity=0 time=0
EXTRACT: note_on channel=9 note=42 velocity=0 time=0
EXTRACT: note_on channel=0 note=72 velocity=127 time=0.0069444375
EXTRACT: note_on channel=9 note=82 velocity=92 time=0.24999975
EXTRACT: note_on channel=9 note=42 velocity=92 time=0
EXTRACT: note_on channel=9 note=82 velocity=0 time=0.0763888125
EXTRACT: note_on channel=9 note=42 velocity=0 time=0
EXTRACT: note_on channel=15 note=27 velocity=0 time=0.08333325
EXTRACT: note_on channel=15 note=27 velocity=92 time=0.0069444375
EXTRACT: note_on channel=4 note=69 velocity=0 time=0.0555555
EXTRACT: note_on channel=4 note=72 velocity=0 time=0
EXTRACT: note_on channel=0 note=72 velocity=0 time=0.1041665625
EXTRACT: note_on channel=15 note=27 velocity=0 time=0
EXTRACT: note_on channel=0 note=74 velocity=127 time=0.0069444375
EXTRACT: note_on channel=4 note=70 velocity=92 time=0
EXTRACT: note_on channel=4 note=74 velocity=92 time=0
EXTRACT: note_on channel=9 note=82 velocity=92 time=0
EXTRACT: note_on channel=9 note=35 velocity=92 time=0
EXTRACT: note_on channel=9 note=42 velocity=92 time=0
EXTRACT: note_on channel=15 note=29 velocity=92 time=0
EXTRACT: note_on channel=9 note=82 velocity=0 time=0.0763888125
EXTRACT: note_on channel=9 note=35 velocity=0 time=0
EXTRACT: note_on channel=9 note=42 velocity=0 time=0
EXTRACT: note_on channel=15 note=29 velocity=0 time=0.08333325
EXTRACT: note_on channel=15 note=31 velocity=92 time=0.0069444375
EXTRACT: note_on channel=15 note=31 velocity=0 time=0.1597220625
EXTRACT: note_on channel=9 note=82 velocity=92 time=0.0069444375
EXTRACT: note_on channel=9 note=35 velocity=92 time=0
EXTRACT: note_on channel=9 note=42 velocity=92 time=0
EXTRACT: note_on channel=15 note=34 velocity=92 time=0
EXTRACT: note_on channel=9 note=82 velocity=0 time=0.0763888125
EXTRACT: note_on channel=9 note=35 velocity=0 time=0
EXTRACT: note_on channel=9 note=42 velocity=0 time=0
EXTRACT: note_on channel=4 note=70 velocity=0 time=0.1458331875
EXTRACT: note_on channel=4 note=74 velocity=0 time=0
EXTRACT: note_on channel=15 note=34 velocity=0 time=0.1041665625
EXTRACT: note_on channel=4 note=69 velocity=92 time=0.0069444375
EXTRACT: note_on channel=4 note=72 velocity=92 time=0
EXTRACT: note_on channel=9 note=82 velocity=92 time=0
EXTRACT: note_on channel=9 note=40 velocity=92 time=0
EXTRACT: note_on channel=9 note=42 velocity=92 time=0
EXTRACT: note_on channel=9 note=82 velocity=0 time=0.0763888125
EXTRACT: note_on channel=9 note=40 velocity=0 time=0
EXTRACT: note_on channel=9 note=42 velocity=0 time=0
EXTRACT: note_on channel=0 note=74 velocity=0 time=0.208333125
EXTRACT: note_on channel=0 note=70 velocity=127 time=0.0069444375
EXTRACT: note_on channel=9 note=82 velocity=92 time=0.041666625
EXTRACT: note_on channel=9 note=46 velocity=92 time=0
EXTRACT: note_on channel=15 note=36 velocity=92 time=0
EXTRACT: note_on channel=9 note=82 velocity=0 time=0.0763888125
EXTRACT: note_on channel=9 note=46 velocity=0 time=0
EXTRACT: note_on channel=15 note=36 velocity=0 time=0.041666625
EXTRACT: note_on channel=0 note=70 velocity=0 time=0.041666625
EXTRACT: note_on channel=4 note=69 velocity=0 time=0
EXTRACT: note_on channel=4 note=72 velocity=0 time=0
EXTRACT: note_on channel=0 note=72 velocity=127 time=0.0069444375
EXTRACT: note_on channel=10 note=74 velocity=0 time=0
EXTRACT: note_on channel=10 note=62 velocity=0 time=0
EXTRACT: note_on channel=0 note=72 velocity=0 time=0.1597220625
EXTRACT: note_on channel=4 note=65 velocity=92 time=0.0069444375
EXTRACT: note_on channel=4 note=69 velocity=92 time=0
EXTRACT: note_on channel=4 note=72 velocity=92 time=0
EXTRACT: note_on channel=9 note=82 velocity=92 time=0
EXTRACT: note_on channel=9 note=35 velocity=92 time=0
EXTRACT: note_on channel=9 note=42 velocity=92 time=0
EXTRACT: note_on channel=10 note=69 velocity=92 time=0
EXTRACT: note_on channel=10 note=72 velocity=92 time=0
EXTRACT: note_on channel=10 note=60 velocity=92 time=0
EXTRACT: note_on channel=10 note=65 velocity=92 time=0
EXTRACT: note_on channel=15 note=29 velocity=92 time=0
EXTRACT: note_on channel=0 note=74 velocity=127 time=0.041666625
EXTRACT: note_on channel=9 note=82 velocity=0 time=0.0347221875
EXTRACT: note_on channel=9 note=35 velocity=0 time=0
EXTRACT: note_on channel=9 note=42 velocity=0 time=0
EXTRACT: note_on channel=9 note=82 velocity=92 time=0.2569441875
EXTRACT: note_on channel=9 note=42 velocity=92 time=0
EXTRACT: note_on channel=9 note=82 velocity=0 time=0.0763888125
EXTRACT: note_on channel=9 note=42 velocity=0 time=0
EXTRACT: note_on channel=0 note=74 velocity=0 time=0.08333325
EXTRACT: note_on channel=0 note=72 velocity=127 time=0.0069444375
EXTRACT: note_on channel=9 note=82 velocity=92 time=0.1666665
EXTRACT: note_on channel=9 note=40 velocity=92 time=0
EXTRACT: note_on channel=9 note=42 velocity=92 time=0
EXTRACT: note_on channel=9 note=82 velocity=0 time=0.0763888125
EXTRACT: note_on channel=9 note=40 velocity=0 time=0
EXTRACT: note_on channel=9 note=42 velocity=0 time=0
EXTRACT: note_on channel=15 note=29 velocity=0 time=0.208333125
EXTRACT: note_on channel=9 note=82 velocity=92 time=0.0486110625
EXTRACT: note_on channel=9 note=42 velocity=92 time=0
EXTRACT: note_on channel=9 note=82 velocity=0 time=0.0763888125
EXTRACT: note_on channel=9 note=42 velocity=0 time=0
EXTRACT: note_on channel=4 note=65 velocity=0 time=0.08333325
EXTRACT: note_on channel=4 note=69 velocity=0 time=0
EXTRACT: note_on channel=4 note=72 velocity=0 time=0
EXTRACT: note_on channel=15 note=29 velocity=92 time=0.0069444375
EXTRACT: note_on channel=15 note=29 velocity=0 time=0.1597220625
EXTRACT: note_on channel=4 note=65 velocity=92 time=0.0069444375
EXTRACT: note_on channel=4 note=69 velocity=92 time=0
EXTRACT: note_on channel=4 note=72 velocity=92 time=0
EXTRACT: note_on channel=9 note=82 velocity=92 time=0
EXTRACT: note_on channel=9 note=35 velocity=92 time=0
EXTRACT: note_on channel=9 note=42 velocity=92 time=0
EXTRACT: note_on channel=15 note=38 velocity=92 time=0
EXTRACT: note_on channel=9 note=82 velocity=0 time=0.0763888125
EXTRACT: note_on channel=9 note=35 velocity=0 time=0
EXTRACT: note_on channel=9 note=42 velocity=0 time=0
EXTRACT: note_on channel=15 note=38 velocity=0 time=0.24999975
EXTRACT: note_on channel=9 note=82 velocity=92 time=0.0069444375
EXTRACT: note_on channel=9 note=35 velocity=92 time=0
EXTRACT: note_on channel=9 note=46 velocity=92 time=0
EXTRACT: note_on channel=15 note=36 velocity=92 time=0
EXTRACT: note_on channel=0 note=72 velocity=0 time=0.0347221875
EXTRACT: note_on channel=9 note=82 velocity=0 time=0.041666625
EXTRACT: note_on channel=9 note=35 velocity=0 time=0
EXTRACT: note_on channel=9 note=46 velocity=0 time=0
EXTRACT: note_on channel=4 note=65 velocity=0 time=0.1458331875
EXTRACT: note_on channel=4 note=69 velocity=0 time=0
EXTRACT: note_on channel=4 note=72 velocity=0 time=0
EXTRACT: note_on channel=4 note=74 velocity=92 time=0.111111
EXTRACT: note_on channel=9 note=82 velocity=92 time=0
EXTRACT: note_on channel=9 note=40 velocity=92 time=0
EXTRACT: note_on channel=9 note=42 velocity=92 time=0
EXTRACT: note_on channel=9 note=82 velocity=0 time=0.0763888125
EXTRACT: note_on channel=9 note=40 velocity=0 time=0
EXTRACT: note_on channel=9 note=42 velocity=0 time=0
EXTRACT: note_on channel=10 note=60 velocity=0 time=0.208333125
EXTRACT: note_on channel=10 note=65 velocity=0 time=0
EXTRACT: note_on channel=4 note=74 velocity=0 time=0.041666625
EXTRACT: note_on channel=10 note=69 velocity=0 time=0
EXTRACT: note_on channel=10 note=72 velocity=0 time=0
EXTRACT: note_on channel=15 note=36 velocity=0 time=0
EXTRACT: note_on channel=4 note=77 velocity=92 time=0.0069444375
EXTRACT: note_on channel=9 note=82 velocity=92 time=0
EXTRACT: note_on channel=9 note=42 velocity=92 time=0
EXTRACT: note_on channel=15 note=31 velocity=92 time=0
EXTRACT: note_on channel=9 note=82 velocity=0 time=0.0763888125
EXTRACT: note_on channel=9 note=42 velocity=0 time=0
EXTRACT: note_on channel=15 note=31 velocity=0 time=0.08333325
EXTRACT: note_on channel=15 note=29 velocity=92 time=0.0069444375
EXTRACT: note_on channel=4 note=77 velocity=0 time=0.1597220625
EXTRACT: note_on channel=15 note=29 velocity=0 time=0
EXTRACT: note_on channel=0 note=77 velocity=127 time=0.0069444375
EXTRACT: note_on channel=4 note=70 velocity=92 time=0
EXTRACT: note_on channel=4 note=74 velocity=92 time=0
EXTRACT: note_on channel=9 note=82 velocity=92 time=0
EXTRACT: note_on channel=9 note=35 velocity=92 time=0
EXTRACT: note_on channel=9 note=42 velocity=92 time=0
EXTRACT: note_on channel=10 note=77 velocity=92 time=0
EXTRACT: note_on channel=10 note=65 velocity=92 time=0
EXTRACT: note_on channel=15 note=27 velocity=92 time=0
EXTRACT: note_on channel=9 note=82 velocity=0 time=0.0763888125
EXTRACT: note_on channel=9 note=35 velocity=0 time=0
EXTRACT: note_on channel=9 note=42 velocity=0 time=0
EXTRACT: note_on channel=0 note=77 velocity=0 time=0.24999975
EXTRACT: note_on channel=0 note=74 velocity=127 time=0.0069444375
EXTRACT: note_on channel=9 note=82 velocity=92 time=0
EXTRACT: note_on channel=9 note=42 velocity=92 time=0
EXTRACT: note_on channel=9 note=82 velocity=0 time=0.0763888125
EXTRACT: note_on channel=9 note=42 velocity=0 time=0
EXTRACT: note_on channel=0 note=74 velocity=0 time=0.041666625
EXTRACT: note_on channel=4 note=70 velocity=0 time=0.1041665625
EXTRACT: note_on channel=4 note=74 velocity=0 time=0
EXTRACT: note_on channel=4 note=69 velocity=92 time=0.111111
EXTRACT: note_on channel=4 note=72 velocity=92 time=0
EXTRACT: note_on channel=9 note=82 velocity=92 time=0
EXTRACT: note_on channel=9 note=40 velocity=92 time=0
EXTRACT: note_on channel=9 note=42 velocity=92 time=0
EXTRACT: note_on channel=0 note=77 velocity=127 time=0.041666625
EXTRACT: note_on channel=9 note=82 velocity=0 time=0.0347221875
EXTRACT: note_on channel=9 note=40 velocity=0 time=0
EXTRACT: note_on channel=9 note=42 velocity=0 time=0
EXTRACT: note_on channel=0 note=77 velocity=0 time=0.124999875
EXTRACT: note_on channel=0 note=74 velocity=127 time=0.0069444375
EXTRACT: note_on channel=15 note=27 velocity=0 time=0.013888875
EXTRACT: note_on channel=0 note=74 velocity=0 time=0.1041665625
EXTRACT: note_on channel=9 note=82 velocity=92 time=0.0069444375
EXTRACT: note_on channel=9 note=42 velocity=92 time=0
EXTRACT: note_on channel=9 note=82 velocity=0 time=0.0763888125
EXTRACT: note_on channel=9 note=42 velocity=0 time=0
EXTRACT: note_on channel=0 note=77 velocity=127 time=0.0902776875
EXTRACT: note_on channel=15 note=27 velocity=92 time=0
EXTRACT: note_on channel=4 note=69 velocity=0 time=0.0555555
EXTRACT: note_on channel=4 note=72 velocity=0 time=0
EXTRACT: note_on channel=0 note=77 velocity=0 time=0.1041665625
EXTRACT: note_on channel=15 note=27 velocity=0 time=0
EXTRACT: note_on channel=4 note=70 velocity=92 time=0.0069444375
EXTRACT: note_on channel=4 note=74 velocity=92 time=0
EXTRACT: note_on channel=9 note=82 velocity=92 time=0
EXTRACT: note_on channel=9 note=35 velocity=92 time=0
EXTRACT: note_on channel=9 note=42 velocity=92 time=0
EXTRACT: note_on channel=15 note=29 velocity=92 time=0
EXTRACT: note_on channel=9 note=82 velocity=0 time=0.0763888125
EXTRACT: note_on channel=9 note=35 velocity=0 time=0
EXTRACT: note_on channel=9 note=42 velocity=0 time=0
EXTRACT: note_on channel=0 note=74 velocity=127 time=0.0069444375
EXTRACT: note_on channel=15 note=29 velocity=0 time=0.0763888125
EXTRACT: note_on channel=15 note=31 velocity=92 time=0.0069444375
EXTRACT: note_on channel=0 note=74 velocity=0 time=0.0347221875
EXTRACT: note_on channel=15 note=31 velocity=0 time=0.124999875
EXTRACT: note_on channel=9 note=82 velocity=92 time=0.0069444375
EXTRACT: note_on channel=9 note=35 velocity=92 time=0
EXTRACT: note_on channel=9 note=42 velocity=92 time=0
EXTRACT: note_on channel=15 note=34 velocity=92 time=0
EXTRACT: note_on channel=0 note=77 velocity=127 time=0.041666625
EXTRACT: note_on channel=9 note=82 velocity=0 time=0.0347221875
EXTRACT: note_on channel=9 note=35 velocity=0 time=0
EXTRACT: note_on channel=9 note=42 velocity=0 time=0
EXTRACT: note_on channel=4 note=70 velocity=0 time=0.1458331875
EXTRACT: note_on channel=4 note=74 velocity=0 time=0
EXTRACT: note_on channel=15 note=34 velocity=0 time=0.1041665625
EXTRACT: note_on channel=4 note=69 velocity=92 time=0.0069444375
EXTRACT: note_on channel=4 note=72 velocity=92 time=0
EXTRACT: note_on channel=9 note=82 velocity=92 time=0
EXTRACT: note_on channel=9 note=40 velocity=92 time=0
EXTRACT: note_on channel=9 note=42 velocity=92 time=0
EXTRACT: note_on channel=9 note=82 velocity=0 time=0.0763888125
EXTRACT: note_on channel=9 note=40 velocity=0 time=0
EXTRACT: note_on channel=9 note=42 velocity=0 time=0
EXTRACT: note_on channel=15 note=34 velocity=92 time=0.0902776875
EXTRACT: note_on channel=15 note=34 velocity=0 time=0.1597220625
EXTRACT: note_on channel=9 note=82 velocity=92 time=0.0069444375
EXTRACT: note_on channel=9 note=46 velocity=92 time=0
EXTRACT: note_on channel=15 note=38 velocity=92 time=0
EXTRACT: note_on channel=9 note=82 velocity=0 time=0.0763888125
EXTRACT: note_on channel=9 note=46 velocity=0 time=0
EXTRACT: note_on channel=0 note=77 velocity=0 time=0.041666625
EXTRACT: note_on channel=0 note=72 velocity=127 time=0.0069444375
EXTRACT: note_on channel=10 note=77 velocity=0 time=0.041666625
EXTRACT: note_on channel=4 note=69 velocity=0 time=0.0555555
EXTRACT: note_on channel=4 note=72 velocity=0 time=0
EXTRACT: note_on channel=0 note=72 velocity=0 time=0.1041665625
EXTRACT: note_on channel=15 note=38 velocity=0 time=0
EXTRACT: note_on channel=4 note=70 velocity=92 time=0.0069444375
EXTRACT: note_on channel=4 note=74 velocity=92 time=0
EXTRACT: note_on channel=9 note=82 velocity=92 time=0
EXTRACT: note_on channel=9 note=35 velocity=92 time=0
EXTRACT: note_on channel=9 note=42 velocity=92 time=0
EXTRACT: note_on channel=10 note=84 velocity=92 time=0
EXTRACT: note_on channel=15 note=31 velocity=92 time=0
EXTRACT: note_on channel=0 note=74 velocity=127 time=0.041666625
EXTRACT: note_on channel=9 note=82 velocity=0 time=0.0347221875
EXTRACT: note_on channel=9 note=35 velocity=0 time=0
EXTRACT: note_on channel=9 note=42 velocity=0 time=0
EXTRACT: note_on channel=0 note=74 velocity=0 time=0.208333125
EXTRACT: note_on channel=0 note=72 velocity=127 time=0.0069444375
EXTRACT: note_on channel=9 note=82 velocity=92 time=0.041666625
EXTRACT: note_on channel=9 note=42 velocity=92 time=0
EXTRACT: note_on channel=9 note=82 velocity=0 time=0.0763888125
EXTRACT: note_on channel=9 note=42 velocity=0 time=0
EXTRACT: note_on channel=0 note=72 velocity=0 time=0.08333325
EXTRACT: note_on channel=4 note=70 velocity=0 time=0.0624999375
EXTRACT: note_on channel=4 note=74 velocity=0 time=0
EXTRACT: note_on channel=15 note=31 velocity=0 time=0
EXTRACT: note_on channel=4 note=69 velocity=92 time=0.111111
EXTRACT: note_on channel=4 note=72 velocity=92 time=0
EXTRACT: note_on channel=9 note=82 velocity=92 time=0
EXTRACT: note_on channel=9 note=40 velocity=92 time=0
EXTRACT: note_on channel=9 note=42 velocity=92 time=0
EXTRACT: note_on channel=9 note=82 velocity=0 time=0.0763888125
EXTRACT: note_on channel=9 note=40 velocity=0 time=0
EXTRACT: note_on channel=9 note=42 velocity=0 time=0
EXTRACT: note_on channel=0 note=74 velocity=127 time=0.0069444375
EXTRACT: note_on channel=15 note=43 velocity=92 time=0.08333325
EXTRACT: note_on channel=0 note=74 velocity=0 time=0.1180554375
EXTRACT: note_on channel=0 note=72 velocity=127 time=0.0069444375
EXTRACT: note_on channel=15 note=43 velocity=0 time=0.0347221875
EXTRACT: note_on channel=9 note=82 velocity=92 time=0.0069444375
EXTRACT: note_on channel=9 note=42 velocity=92 time=0
EXTRACT: note_on channel=15 note=46 velocity=92 time=0
EXTRACT: note_on channel=9 note=82 velocity=0 time=0.0763888125
EXTRACT: note_on channel=9 note=42 velocity=0 time=0
EXTRACT: note_on channel=15 note=46 velocity=0 time=0.08333325
EXTRACT: note_on channel=10 note=84 velocity=0 time=0.0069444375
EXTRACT: note_on channel=10 note=65 velocity=0 time=0
EXTRACT: note_on channel=15 note=45 velocity=92 time=0
EXTRACT: note_on channel=0 note=72 velocity=0 time=0.0347221875
EXTRACT: note_on channel=0 note=74 velocity=127 time=0.0069444375
EXTRACT: note_on channel=4 note=69 velocity=0 time=0.013888875
EXTRACT: note_on channel=4 note=72 velocity=0 time=0
EXTRACT: note_on channel=0 note=74 velocity=0 time=0.1041665625
EXTRACT: note_on channel=15 note=45 velocity=0 time=0
EXTRACT: note_on channel=4 note=70 velocity=92 time=0.0069444375
EXTRACT: note_on channel=4 note=74 velocity=92 time=0
EXTRACT: note_on channel=9 note=82 velocity=92 time=0
EXTRACT: note_on channel=9 note=35 velocity=92 time=0
EXTRACT: note_on channel=9 note=42 velocity=92 time=0
EXTRACT: note_on channel=10 note=67 velocity=92 time=0
EXTRACT: note_on channel=10 note=70 velocity=92 time=0
EXTRACT: note_on channel=10 note=75 velocity=92 time=0
EXTRACT: note_on channel=10 note=63 velocity=92 time=0
EXTRACT: note_on channel=15 note=43 velocity=92 time=0
EXTRACT: note_on channel=9 note=82 velocity=0 time=0.0763888125
EXTRACT: note_on channel=9 note=35 velocity=0 time=0
EXTRACT: note_on channel=9 note=42 velocity=0 time=0
EXTRACT: note_on channel=0 note=72 velocity=127 time=0.0069444375
EXTRACT: note_on channel=15 note=43 velocity=0 time=0.0763888125
EXTRACT: note_on channel=15 note=38 velocity=92 time=0.0069444375
EXTRACT: note_on channel=15 note=38 velocity=0 time=0.1597220625
EXTRACT: note_on channel=9 note=82 velocity=92 time=0.0069444375
EXTRACT: note_on channel=9 note=35 velocity=92 time=0
EXTRACT: note_on channel=9 note=46 velocity=92 time=0
EXTRACT: note_on channel=15 note=34 velocity=92 time=0
EXTRACT: note_on channel=0 note=72 velocity=0 time=0.0347221875
EXTRACT: note_on channel=0 note=72 velocity=127 time=0.0069444375
EXTRACT: note_on channel=9 note=82 velocity=0 time=0.0347221875
EXTRACT: note_on channel=9 note=35 velocity=0 time=0
EXTRACT: note_on channel=9 note=46 velocity=0 time=0
EXTRACT: note_on channel=0 note=72 velocity=0 time=0.08333325
EXTRACT: note_on channel=15 note=34 velocity=0 time=0
EXTRACT: note_on channel=15 note=33 velocity=92 time=0.0069444375
EXTRACT: note_on channel=4 note=70 velocity=0 time=0.0555555
EXTRACT: note_on channel=4 note=74 velocity=0 time=0
EXTRACT: note_on channel=15 note=33 velocity=0 time=0.1041665625
EXTRACT: note_on channel=0 note=74 velocity=127 time=0.0069444375
EXTRACT: note_on channel=4 note=69 velocity=92 time=0
EXTRACT: note_on channel=4 note=72 velocity=92 time=0
EXTRACT: note_on channel=9 note=82 velocity=92 time=0
EXTRACT: note_on channel=9 note=40 velocity=92 time=0
EXTRACT: note_on channel=9 note=42 velocity=92 time=0
EXTRACT: note_on channel=15 note=31 velocity=92 time=0
EXTRACT: note_on channel=9 note=82 velocity=0 time=0.0763888125
EXTRACT: note_on channel=9 note=40 velocity=0 time=0
EXTRACT: note_on channel=9 note=42 velocity=0 time=0
EXTRACT: note_on channel=15 note=31 velocity=0 time=0.08333325
EXTRACT: note_on channel=15 note=22 velocity=92 time=0.0069444375
EXTRACT: note_on channel=0 note=74 velocity=0 time=0.1180554375
EXTRACT: note_on channel=0 note=72 velocity=127 time=0.0069444375
EXTRACT: note_on channel=15 note=22 velocity=0 time=0.0347221875
EXTRACT: note_on channel=9 note=82 velocity=92 time=0.0069444375
EXTRACT: note_on channel=9 note=42 velocity=92 time=0
EXTRACT: note_on channel=15 note=24 velocity=92 time=0
EXTRACT: note_on channel=9 note=82 velocity=0 time=0.0763888125
EXTRACT: note_on channel=9 note=42 velocity=0 time=0
EXTRACT: note_on channel=0 note=72 velocity=0 time=0.08333325
EXTRACT: note_on channel=15 note=24 velocity=0 time=0
EXTRACT: note_on channel=0 note=74 velocity=127 time=0.0069444375
EXTRACT: note_on channel=10 note=67 velocity=0 time=0
EXTRACT: note_on channel=10 note=70 velocity=0 time=0
EXTRACT: note_on channel=10 note=75 velocity=0 time=0
EXTRACT: note_on channel=10 note=63 velocity=0 time=0
EXTRACT: note_on channel=15 note=26 velocity=92 time=0
EXTRACT: note_on channel=4 note=69 velocity=0 time=0.0555555
EXTRACT: note_on channel=4 note=72 velocity=0 time=0
EXTRACT: note_on channel=15 note=26 velocity=0 time=0.1041665625
EXTRACT: note_on channel=4 note=70 velocity=92 time=0.0069444375
EXTRACT: note_on channel=4 note=74 velocity=92 time=0
EXTRACT: note_on channel=9 note=82 velocity=92 time=0
EXTRACT: note_on channel=9 note=35 velocity=92 time=0
EXTRACT: note_on channel=9 note=42 velocity=92 time=0
EXTRACT: note_on channel=10 note=74 velocity=92 time=0
EXTRACT: note_on channel=10 note=62 velocity=92 time=0
EXTRACT: note_on channel=15 note=27 velocity=92 time=0
EXTRACT: note_on channel=9 note=82 velocity=0 time=0.0763888125
EXTRACT: note_on channel=9 note=35 velocity=0 time=0
EXTRACT: note_on channel=9 note=42 velocity=0 time=0
EXTRACT: note_on channel=0 note=74 velocity=0 time=0.041666625
EXTRACT: note_on channel=0 note=79 velocity=127 time=0.0069444375
EXTRACT: note_on channel=9 note=82 velocity=92 time=0.208333125
EXTRACT: note_on channel=9 note=42 velocity=92 time=0
EXTRACT: note_on channel=9 note=82 velocity=0 time=0.0763888125
EXTRACT: note_on channel=9 note=42 velocity=0 time=0
EXTRACT: note_on channel=4 note=70 velocity=0 time=0.1458331875
EXTRACT: note_on channel=4 note=74 velocity=0 time=0
EXTRACT: note_on channel=0 note=79 velocity=0 time=0.1041665625
EXTRACT: note_on channel=4 note=69 velocity=92 time=0.0069444375
EXTRACT: note_on channel=4 note=72 velocity=92 time=0
EXTRACT: note_on channel=9 note=82 velocity=92 time=0
EXTRACT: note_on channel=9 note=40 velocity=92 time=0
EXTRACT: note_on channel=9 note=42 velocity=92 time=0
EXTRACT: note_on channel=0 note=77 velocity=127 time=0.041666625
EXTRACT: note_on channel=9 note=82 velocity=0 time=0.0347221875
EXTRACT: note_on channel=9 note=40 velocity=0 time=0
EXTRACT: note_on channel=9 note=42 velocity=0 time=0
EXTRACT: note_on channel=9 note=82 velocity=92 time=0.2569441875
EXTRACT: note_on channel=9 note=42 velocity=92 time=0
EXTRACT: note_on channel=9 note=82 velocity=0 time=0.0763888125
EXTRACT: note_on channel=9 note=42 velocity=0 time=0
EXTRACT: note_on channel=15 note=27 velocity=0 time=0.08333325
EXTRACT: note_on channel=10 note=74 velocity=0 time=0.0069444375
EXTRACT: note_on channel=15 note=27 velocity=92 time=0
EXTRACT: note_on channel=4 note=69 velocity=0 time=0.0555555
EXTRACT: note_on channel=4 note=72 velocity=0 time=0
EXTRACT: note_on channel=15 note=27 velocity=0 time=0.1041665625
EXTRACT: note_on channel=4 note=70 velocity=92 time=0.0069444375
EXTRACT: note_on channel=4 note=74 velocity=92 time=0
EXTRACT: note_on channel=9 note=82 velocity=92 time=0
EXTRACT: note_on channel=9 note=35 velocity=92 time=0
EXTRACT: note_on channel=9 note=42 velocity=92 time=0
EXTRACT: note_on channel=10 note=79 velocity=92 time=0
EXTRACT: note_on channel=10 note=82 velocity=92 time=0
EXTRACT: note_on channel=15 note=29 velocity=92 time=0
EXTRACT: note_on channel=9 note=82 velocity=0 time=0.0763888125
EXTRACT: note_on channel=9 note=35 velocity=0 time=0
EXTRACT: note_on channel=9 note=42 velocity=0 time=0
EXTRACT: note_on channel=15 note=29 velocity=0 time=0.08333325
EXTRACT: note_on channel=15 note=31 velocity=92 time=0.0069444375
EXTRACT: note_on channel=15 note=31 velocity=0 time=0.1597220625
EXTRACT: note_on channel=9 note=82 velocity=92 time=0.0069444375
EXTRACT: note_on channel=9 note=35 velocity=92 time=0
EXTRACT: note_on channel=9 note=42 velocity=92 time=0
EXTRACT: note_on channel=15 note=34 velocity=92 time=0
EXTRACT: note_on channel=9 note=82 velocity=0 time=0.0763888125
EXTRACT: note_on channel=9 note=35 velocity=0 time=0
EXTRACT: note_on channel=9 note=42 velocity=0 time=0
EXTRACT: note_on channel=4 note=70 velocity=0 time=0.1458331875
EXTRACT: note_on channel=4 note=74 velocity=0 time=0
EXTRACT: note_on channel=15 note=34 velocity=0 time=0.1041665625
EXTRACT: note_on channel=4 note=69 velocity=92 time=0.0069444375
EXTRACT: note_on channel=4 note=72 velocity=92 time=0
EXTRACT: note_on channel=9 note=82 velocity=92 time=0
EXTRACT: note_on channel=9 note=40 velocity=92 time=0
EXTRACT: note_on channel=9 note=42 velocity=92 time=0
EXTRACT: note_on channel=9 note=82 velocity=0 time=0.0763888125
EXTRACT: note_on channel=9 note=40 velocity=0 time=0
EXTRACT: note_on channel=9 note=42 velocity=0 time=0
EXTRACT: note_on channel=15 note=22 velocity=92 time=0.0902776875
EXTRACT: note_on channel=0 note=77 velocity=0 time=0.0763888125
EXTRACT: note_on channel=0 note=79 velocity=127 time=0.0069444375
EXTRACT: note_on channel=15 note=22 velocity=0 time=0.0763888125
EXTRACT: note_on channel=9 note=82 velocity=92 time=0.0069444375
EXTRACT: note_on channel=9 note=46 velocity=92 time=0
EXTRACT: note_on channel=15 note=24 velocity=92 time=0
EXTRACT: note_on channel=9 note=82 velocity=0 time=0.0763888125
EXTRACT: note_on channel=9 note=46 velocity=0 time=0
EXTRACT: note_on channel=15 note=24 velocity=0 time=0.08333325
EXTRACT: note_on channel=10 note=79 velocity=0 time=0.0069444375
EXTRACT: note_on channel=10 note=82 velocity=0 time=0
EXTRACT: note_on channel=10 note=62 velocity=0 time=0
EXTRACT: note_on channel=15 note=27 velocity=92 time=0
EXTRACT: note_on channel=4 note=69 velocity=0 time=0.0555555
EXTRACT: note_on channel=4 note=72 velocity=0 time=0
EXTRACT: note_on channel=0 note=79 velocity=0 time=0.0624999375
EXTRACT: note_on channel=0 note=79 velocity=127 time=0.0069444375
EXTRACT: note_on channel=15 note=27 velocity=0 time=0.0347221875
EXTRACT: note_on channel=4 note=77 velocity=92 time=0.0069444375
EXTRACT: note_on channel=4 note=81 velocity=92 time=0
EXTRACT: note_on channel=9 note=82 velocity=92 time=0
EXTRACT: note_on channel=9 note=35 velocity=92 time=0
EXTRACT: note_on channel=9 note=42 velocity=92 time=0
EXTRACT: note_on channel=10 note=69 velocity=92 time=0
EXTRACT: note_on channel=10 note=72 velocity=92 time=0
EXTRACT: note_on channel=10 note=77 velocity=92 time=0
EXTRACT: note_on channel=10 note=60 velocity=92 time=0
EXTRACT: note_on channel=10 note=65 velocity=92 time=0
EXTRACT: note_on channel=15 note=29 velocity=92 time=0
EXTRACT: note_on channel=9 note=82 velocity=0 time=0.0763888125
EXTRACT: note_on channel=9 note=35 velocity=0 time=0
EXTRACT: note_on channel=9 note=42 velocity=0 time=0
EXTRACT: note_on channel=9 note=82 velocity=92 time=0.2569441875
EXTRACT: note_on channel=9 note=42 velocity=92 time=0
EXTRACT: note_on channel=9 note=82 velocity=0 time=0.0763888125
EXTRACT: note_on channel=9 note=42 velocity=0 time=0
EXTRACT: note_on channel=0 note=79 velocity=0 time=0.1458331875
EXTRACT: note_on channel=0 note=77 velocity=127 time=0.111111
EXTRACT: note_on channel=9 note=82 velocity=92 time=0
EXTRACT: note_on channel=9 note=40 velocity=92 time=0
EXTRACT: note_on channel=9 note=42 velocity=92 time=0
EXTRACT: note_on channel=9 note=82 velocity=0 time=0.0763888125
EXTRACT: note_on channel=9 note=40 velocity=0 time=0
EXTRACT: note_on channel=9 note=42 velocity=0 time=0
EXTRACT: note_on channel=9 note=82 velocity=92 time=0.2569441875
EXTRACT: note_on channel=9 note=42 velocity=92 time=0
EXTRACT: note_on channel=9 note=82 velocity=0 time=0.0763888125
EXTRACT: note_on channel=9 note=42 velocity=0 time=0
EXTRACT: note_on channel=15 note=29 velocity=0 time=0.08333325
EXTRACT: note_on channel=4 note=77 velocity=0 time=0.0069444375
EXTRACT: note_on channel=4 note=81 velocity=0 time=0
EXTRACT: note_on channel=15 note=29 velocity=92 time=0
EXTRACT: note_on channel=15 note=29 velocity=0 time=0.1597220625
EXTRACT: note_on channel=4 note=84 velocity=92 time=0.0069444375
EXTRACT: note_on channel=9 note=82 velocity=92 time=0
EXTRACT: note_on channel=9 note=35 velocity=92 time=0
EXTRACT: note_on channel=9 note=42 velocity=92 time=0
EXTRACT: note_on channel=15 note=29 velocity=92 time=0
EXTRACT: note_on channel=9 note=82 velocity=0 time=0.0763888125
EXTRACT: note_on channel=9 note=35 velocity=0 time=0
EXTRACT: note_on channel=9 note=42 velocity=0 time=0
EXTRACT: note_on channel=15 note=29 velocity=0 time=0
EXTRACT: note_on channel=9 note=82 velocity=92 time=0.2569441875
EXTRACT: note_on channel=9 note=35 velocity=92 time=0
EXTRACT: note_on channel=9 note=42 velocity=92 time=0
EXTRACT: note_on channel=15 note=29 velocity=92 time=0
EXTRACT: note_on channel=9 note=82 velocity=0 time=0.0763888125
EXTRACT: note_on channel=9 note=35 velocity=0 time=0
EXTRACT: note_on channel=9 note=42 velocity=0 time=0
EXTRACT: note_on channel=4 note=84 velocity=0 time=0.1458331875
EXTRACT: note_on channel=15 note=29 velocity=0 time=0.1041665625
EXTRACT: note_on channel=4 note=89 velocity=92 time=0.0069444375
EXTRACT: note_on channel=9 note=82 velocity=92 time=0
EXTRACT: note_on channel=9 note=40 velocity=92 time=0
EXTRACT: note_on channel=9 note=42 velocity=92 time=0
EXTRACT: note_on channel=15 note=38 velocity=92 time=0
EXTRACT: note_on channel=9 note=82 velocity=0 time=0.0763888125
EXTRACT: note_on channel=9 note=40 velocity=0 time=0
EXTRACT: note_on channel=9 note=42 velocity=0 time=0
EXTRACT: note_on channel=0 note=77 velocity=0 time=0.124999875
EXTRACT: note_on channel=15 note=38 velocity=0 time=0.124999875
EXTRACT: note_on channel=9 note=82 velocity=92 time=0.0069444375
EXTRACT: note_on channel=9 note=46 velocity=92 time=0
EXTRACT: note_on channel=15 note=36 velocity=92 time=0
EXTRACT: note_on channel=9 note=82 velocity=0 time=0.0763888125
EXTRACT: note_on channel=9 note=46 velocity=0 time=0
EXTRACT: note_on channel=10 note=69 velocity=0 time=0.0902776875
EXTRACT: note_on channel=10 note=72 velocity=0 time=0
EXTRACT: note_on channel=10 note=77 velocity=0 time=0
EXTRACT: note_on channel=4 note=89 velocity=0 time=0.0555555
EXTRACT: note_on channel=15 note=36 velocity=0 time=0.1041665625
EXTRACT: note_on channel=4 note=65 velocity=92 time=0.0069444375
EXTRACT: note_on channel=4 note=69 velocity=92 time=0
EXTRACT: note_on channel=4 note=72 velocity=92 time=0
EXTRACT: note_on channel=9 note=82 velocity=92 time=0
EXTRACT: note_on channel=9 note=35 velocity=92 time=0
EXTRACT: note_on channel=9 note=42 velocity=92 time=0
EXTRACT: note_on channel=10 note=81 velocity=92 time=0
EXTRACT: note_on channel=10 note=84 velocity=92 time=0
EXTRACT: note_on channel=15 note=29 velocity=92 time=0
EXTRACT: note_on channel=9 note=82 velocity=0 time=0.0763888125
EXTRACT: note_on channel=9 note=35 velocity=0 time=0
EXTRACT: note_on channel=9 note=42 velocity=0 time=0
EXTRACT: note_on channel=9 note=82 velocity=92 time=0.2569441875
EXTRACT: note_on channel=9 note=42 velocity=92 time=0
EXTRACT: note_on channel=9 note=82 velocity=0 time=0.0763888125
EXTRACT: note_on channel=9 note=42 velocity=0 time=0
EXTRACT: note_on channel=9 note=82 velocity=92 time=0.2569441875
EXTRACT: note_on channel=9 note=40 velocity=92 time=0
EXTRACT: note_on channel=9 note=42 velocity=92 time=0
EXTRACT: note_on channel=9 note=82 velocity=0 time=0.0763888125
EXTRACT: note_on channel=9 note=40 velocity=0 time=0
EXTRACT: note_on channel=9 note=42 velocity=0 time=0
EXTRACT: note_on channel=15 note=29 velocity=0 time=0.208333125
EXTRACT: note_on channel=9 note=82 velocity=92 time=0.0486110625
EXTRACT: note_on channel=9 note=42 velocity=92 time=0
EXTRACT: note_on channel=9 note=82 velocity=0 time=0.0763888125
EXTRACT: note_on channel=9 note=42 velocity=0 time=0
EXTRACT: note_on channel=15 note=29 velocity=92 time=0.0902776875
EXTRACT: note_on channel=15 note=29 velocity=0 time=0.1597220625
EXTRACT: note_on channel=9 note=82 velocity=92 time=0.0069444375
EXTRACT: note_on channel=9 note=35 velocity=92 time=0
EXTRACT: note_on channel=9 note=42 velocity=92 time=0
EXTRACT: note_on channel=15 note=43 velocity=92 time=0
EXTRACT: note_on channel=9 note=82 velocity=0 time=0.0763888125
EXTRACT: note_on channel=9 note=35 velocity=0 time=0
EXTRACT: note_on channel=9 note=42 velocity=0 time=0
EXTRACT: note_on channel=0 note=72 velocity=127 time=0.1319443125
EXTRACT: note_on channel=0 note=72 velocity=0 time=0.1180554375
EXTRACT: note_on channel=15 note=43 velocity=0 time=0
EXTRACT: note_on channel=0 note=74 velocity=127 time=0.0069444375
EXTRACT: note_on channel=9 note=82 velocity=92 time=0
EXTRACT: note_on channel=9 note=35 velocity=92 time=0
EXTRACT: note_on channel=9 note=42 velocity=92 time=0
EXTRACT: note_on channel=15 note=41 velocity=92 time=0
EXTRACT: note_on channel=9 note=82 velocity=0 time=0.0763888125
EXTRACT: note_on channel=9 note=35 velocity=0 time=0
EXTRACT: note_on channel=9 note=42 velocity=0 time=0
EXTRACT: note_on channel=0 note=74 velocity=0 time=0.08333325
EXTRACT: note_on channel=0 note=72 velocity=127 time=0.0069444375
EXTRACT: note_on channel=0 note=72 velocity=0 time=0.1597220625
EXTRACT: note_on channel=15 note=41 velocity=0 time=0
EXTRACT: note_on channel=0 note=74 velocity=127 time=0.0069444375
EXTRACT: note_on channel=9 note=82 velocity=92 time=0
EXTRACT: note_on channel=9 note=40 velocity=92 time=0
EXTRACT: note_on channel=9 note=42 velocity=92 time=0
EXTRACT: note_on channel=15 note=38 velocity=92 time=0
EXTRACT: note_on channel=9 note=82 velocity=0 time=0.0763888125
EXTRACT: note_on channel=9 note=40 velocity=0 time=0
EXTRACT: note_on channel=9 note=42 velocity=0 time=0
EXTRACT: note_on channel=15 note=38 velocity=0 time=0.08333325
EXTRACT: note_on channel=15 note=36 velocity=92 time=0.0069444375
EXTRACT: note_on channel=0 note=74 velocity=0 time=0.1597220625
EXTRACT: note_on channel=15 note=36 velocity=0 time=0
EXTRACT: note_on channel=0 note=77 velocity=127 time=0.0069444375
EXTRACT: note_on channel=9 note=82 velocity=92 time=0
EXTRACT: note_on channel=9 note=40 velocity=92 time=0
EXTRACT: note_on channel=9 note=42 velocity=92 time=0
EXTRACT: note_on channel=15 note=31 velocity=92 time=0
EXTRACT: note_on channel=9 note=82 velocity=0 time=0.0763888125
EXTRACT: note_on channel=9 note=40 velocity=0 time=0.08333325
EXTRACT: note_on channel=9 note=42 velocity=0 time=0
EXTRACT: note_on channel=15 note=31 velocity=0 time=0
EXTRACT: note_on channel=4 note=65 velocity=0 time=0.0069444375
EXTRACT: note_on channel=4 note=69 velocity=0 time=0
EXTRACT: note_on channel=4 note=72 velocity=0 time=0
EXTRACT: note_on channel=9 note=40 velocity=92 time=0
EXTRACT: note_on channel=10 note=81 velocity=0 time=0
EXTRACT: note_on channel=10 note=84 velocity=0 time=0
EXTRACT: note_on channel=10 note=60 velocity=0 time=0
EXTRACT: note_on channel=10 note=65 velocity=0 time=0
EXTRACT: note_on channel=15 note=29 velocity=92 time=0
EXTRACT: note_on channel=13 note=70 velocity=92 time=0.124999875
EXTRACT: note_on channel=0 note=77 velocity=0 time=0.0347221875
EXTRACT: note_on channel=9 note=40 velocity=0 time=0
EXTRACT: note_on channel=15 note=29 velocity=0 time=0
EXTRACT: note_on channel=0 note=79 velocity=127 time=0.0069444375
EXTRACT: note_on channel=6 note=62 velocity=92 time=0
EXTRACT: note_on channel=6 note=65 velocity=92 time=0
EXTRACT: note_on channel=9 note=54 velocity=92 time=0
EXTRACT: note_on channel=9 note=81 velocity=92 time=0
EXTRACT: note_on channel=9 note=82 velocity=92 time=0
EXTRACT: note_on channel=9 note=35 velocity=92 time=0
EXTRACT: note_on channel=9 note=42 velocity=92 time=0
EXTRACT: note_on channel=10 note=70 velocity=92 time=0
EXTRACT: note_on channel=10 note=55 velocity=92 time=0
EXTRACT: note_on channel=10 note=58 velocity=92 time=0
EXTRACT: note_on channel=10 note=62 velocity=92 time=0
EXTRACT: note_on channel=11 note=51 velocity=92 time=0
EXTRACT: note_on channel=11 note=55 velocity=92 time=0
EXTRACT: note_on channel=11 note=58 velocity=92 time=0
EXTRACT: note_on channel=11 note=62 velocity=92 time=0
EXTRACT: note_on channel=11 note=65 velocity=92 time=0
EXTRACT: note_on channel=15 note=27 velocity=92 time=0
EXTRACT: note_on channel=5 note=55 velocity=92 time=0.041666625
EXTRACT: note_on channel=5 note=58 velocity=92 time=0
EXTRACT: note_on channel=5 note=62 velocity=92 time=0
EXTRACT: note_on channel=5 note=39 velocity=92 time=0
EXTRACT: note_on channel=9 note=35 velocity=0 time=0.0347221875
EXTRACT: note_on channel=9 note=42 velocity=0 time=0
EXTRACT: note_on channel=9 note=54 velocity=0 time=0.08333325
EXTRACT: note_on channel=9 note=81 velocity=0 time=0
EXTRACT: note_on channel=9 note=82 velocity=0 time=0
EXTRACT: note_on channel=10 note=70 velocity=0 time=0
EXTRACT: note_on channel=11 note=51 velocity=0 time=0
EXTRACT: note_on channel=11 note=55 velocity=0 time=0
EXTRACT: note_on channel=11 note=58 velocity=0 time=0
EXTRACT: note_on channel=11 note=62 velocity=0 time=0
EXTRACT: note_on channel=11 note=65 velocity=0 time=0
EXTRACT: note_on channel=9 note=54 velocity=92 time=0.0069444375
EXTRACT: note_on channel=10 note=74 velocity=92 time=0
EXTRACT: note_on channel=6 note=62 velocity=0 time=0.0347221875
EXTRACT: note_on channel=6 note=65 velocity=0 time=0
EXTRACT: note_on channel=9 note=54 velocity=0 time=0
EXTRACT: note_on channel=6 note=62 velocity=92 time=0.0069444375
EXTRACT: note_on channel=6 note=65 velocity=92 time=0
EXTRACT: note_on channel=9 note=82 velocity=92 time=0
EXTRACT: note_on channel=6 note=62 velocity=0 time=0.0763888125
EXTRACT: note_on channel=6 note=65 velocity=0 time=0
EXTRACT: note_on channel=9 note=82 velocity=0 time=0.041666625
EXTRACT: note_on channel=9 note=54 velocity=92 time=0.0069444375
EXTRACT: note_on channel=9 note=82 velocity=92 time=0
EXTRACT: note_on channel=9 note=42 velocity=92 time=0
EXTRACT: note_on channel=11 note=51 velocity=92 time=0
EXTRACT: note_on channel=11 note=55 velocity=92 time=0
EXTRACT: note_on channel=11 note=58 velocity=92 time=0
EXTRACT: note_on channel=11 note=62 velocity=92 time=0
EXTRACT: note_on channel=11 note=65 velocity=92 time=0
EXTRACT: note_on channel=9 note=42 velocity=0 time=0.0763888125
EXTRACT: note_on channel=11 note=51 velocity=0 time=0.041666625
EXTRACT: note_on channel=11 note=55 velocity=0 time=0
EXTRACT: note_on channel=11 note=58 velocity=0 time=0
EXTRACT: note_on channel=11 note=62 velocity=0 time=0
EXTRACT: note_on channel=11 note=65 velocity=0 time=0
EXTRACT: note_on channel=6 note=62 velocity=92 time=0.0069444375
EXTRACT: note_on channel=6 note=65 velocity=92 time=0
EXTRACT: note_on channel=9 note=54 velocity=0 time=0.0347221875
EXTRACT: note_on channel=9 note=82 velocity=0 time=0
EXTRACT: note_on channel=9 note=54 velocity=92 time=0.0069444375
EXTRACT: note_on channel=9 note=54 velocity=0 time=0.0347221875
EXTRACT: note_on channel=9 note=82 velocity=92 time=0.0069444375
EXTRACT: note_on channel=6 note=62 velocity=0 time=0.1180554375
EXTRACT: note_on channel=6 note=65 velocity=0 time=0
EXTRACT: note_on channel=9 note=82 velocity=0 time=0
EXTRACT: note_on channel=6 note=62 velocity=92 time=0.0069444375
EXTRACT: note_on channel=6 note=65 velocity=92 time=0
EXTRACT: note_on channel=9 note=54 velocity=92 time=0
EXTRACT: note_on channel=9 note=82 velocity=92 time=0
EXTRACT: note_on channel=9 note=40 velocity=92 time=0
EXTRACT: note_on channel=9 note=42 velocity=92 time=0
EXTRACT: note_on channel=11 note=51 velocity=92 time=0
EXTRACT: note_on channel=11 note=55 velocity=92 time=0
EXTRACT: note_on channel=11 note=58 velocity=92 time=0
EXTRACT: note_on channel=11 note=62 velocity=92 time=0
EXTRACT: note_on channel=11 note=65 velocity=92 time=0
EXTRACT: note_on channel=0 note=79 velocity=0 time=0.0347221875
EXTRACT: note_on channel=6 note=62 velocity=0 time=0
EXTRACT: note_on channel=6 note=65 velocity=0 time=0
EXTRACT: note_on channel=0 note=77 velocity=127 time=0.0069444375
EXTRACT: note_on channel=9 note=40 velocity=0 time=0.0347221875
EXTRACT: note_on channel=9 note=42 velocity=0 time=0
EXTRACT: note_on channel=9 note=54 velocity=0 time=0.08333325
EXTRACT: note_on channel=9 note=82 velocity=0 time=0
EXTRACT: note_on channel=9 note=54 velocity=92 time=0.0069444375
EXTRACT: note_on channel=9 note=54 velocity=0 time=0.0347221875
EXTRACT: note_on channel=6 note=62 velocity=92 time=0.0069444375
EXTRACT: note_on channel=6 note=65 velocity=92 time=0
EXTRACT: note_on channel=9 note=82 velocity=92 time=0
EXTRACT: note_on channel=15 note=27 velocity=0 time=0.013888875
EXTRACT: note_on channel=6 note=62 velocity=0 time=0.0624999375
EXTRACT: note_on channel=6 note=65 velocity=0 time=0
EXTRACT: note_on channel=11 note=51 velocity=0 time=0
EXTRACT: note_on channel=11 note=55 velocity=0 time=0
EXTRACT: note_on channel=11 note=58 velocity=0 time=0
EXTRACT: note_on channel=11 note=62 velocity=0 time=0
EXTRACT: note_on channel=11 note=65 velocity=0 time=0
EXTRACT: note_on channel=9 note=82 velocity=0 time=0.041666625
EXTRACT: note_on channel=9 note=54 velocity=92 time=0.0069444375
EXTRACT: note_on channel=9 note=82 velocity=92 time=0
EXTRACT: note_on channel=9 note=42 velocity=92 time=0
EXTRACT: note_on channel=9 note=42 velocity=0 time=0.0763888125
EXTRACT: note_on channel=6 note=62 velocity=92 time=0.0486110625
EXTRACT: note_on channel=6 note=65 velocity=92 time=0
EXTRACT: note_on channel=6 note=62 velocity=0 time=0.0347221875
EXTRACT: note_on channel=6 note=65 velocity=0 time=0
EXTRACT: note_on channel=9 note=54 velocity=0 time=0
EXTRACT: note_on channel=9 note=82 velocity=0 time=0
EXTRACT: note_on channel=9 note=54 velocity=92 time=0.0069444375
EXTRACT: note_on channel=11 note=51 velocity=92 time=0
EXTRACT: note_on channel=11 note=55 velocity=92 time=0
EXTRACT: note_on channel=11 note=58 velocity=92 time=0
EXTRACT: note_on channel=11 note=62 velocity=92 time=0
EXTRACT: note_on channel=11 note=65 velocity=92 time=0
EXTRACT: note_on channel=15 note=27 velocity=92 time=0
EXTRACT: note_on channel=9 note=54 velocity=0 time=0.0347221875
EXTRACT: note_on channel=9 note=82 velocity=92 time=0.0069444375
EXTRACT: note_on channel=9 note=82 velocity=0 time=0.1180554375
EXTRACT: note_on channel=11 note=51 velocity=0 time=0
EXTRACT: note_on channel=11 note=55 velocity=0 time=0
EXTRACT: note_on channel=11 note=58 velocity=0 time=0
EXTRACT: note_on channel=11 note=62 velocity=0 time=0
EXTRACT: note_on channel=11 note=65 velocity=0 time=0
EXTRACT: note_on channel=15 note=27 velocity=0 time=0
EXTRACT: note_on channel=6 note=62 velocity=92 time=0.0069444375
EXTRACT: note_on channel=6 note=65 velocity=92 time=0
EXTRACT: note_on channel=9 note=54 velocity=92 time=0
EXTRACT: note_on channel=9 note=35 velocity=92 time=0
EXTRACT: note_on channel=9 note=42 velocity=92 time=0
EXTRACT: note_on channel=11 note=51 velocity=92 time=0
EXTRACT: note_on channel=11 note=55 velocity=92 time=0
EXTRACT: note_on channel=11 note=58 velocity=92 time=0
EXTRACT: note_on channel=11 note=62 velocity=92 time=0
EXTRACT: note_on channel=11 note=65 velocity=92 time=0
EXTRACT: note_on channel=15 note=27 velocity=92 time=0
EXTRACT: note_on channel=9 note=35 velocity=0 time=0.0763888125
EXTRACT: note_on channel=9 note=42 velocity=0 time=0
EXTRACT: note_on channel=15 note=27 velocity=0 time=0
EXTRACT: note_on channel=9 note=54 velocity=0 time=0.08333325
EXTRACT: note_on channel=11 note=51 velocity=0 time=0
EXTRACT: note_on channel=11 note=55 velocity=0 time=0
EXTRACT: note_on channel=11 note=58 velocity=0 time=0
EXTRACT: note_on channel=11 note=62 velocity=0 time=0
EXTRACT: note_on channel=11 note=65 velocity=0 time=0
EXTRACT: note_on channel=9 note=54 velocity=92 time=0.0069444375
EXTRACT: note_on channel=11 note=51 velocity=92 time=0
EXTRACT: note_on channel=11 note=55 velocity=92 time=0
EXTRACT: note_on channel=11 note=58 velocity=92 time=0
EXTRACT: note_on channel=11 note=62 velocity=92 time=0
EXTRACT: note_on channel=11 note=65 velocity=92 time=0
EXTRACT: note_on channel=6 note=62 velocity=0 time=0.0347221875
EXTRACT: note_on channel=6 note=65 velocity=0 time=0
EXTRACT: note_on channel=9 note=54 velocity=0 time=0
EXTRACT: note_on channel=6 note=62 velocity=92 time=0.0069444375
EXTRACT: note_on channel=6 note=65 velocity=92 time=0
EXTRACT: note_on channel=9 note=82 velocity=92 time=0
EXTRACT: note_on channel=5 note=39 velocity=0 time=0.013888875
EXTRACT: note_on channel=6 note=62 velocity=0 time=0.0624999375
EXTRACT: note_on channel=6 note=65 velocity=0 time=0
EXTRACT: note_on channel=9 note=82 velocity=0 time=0.041666625
EXTRACT: note_on channel=11 note=51 velocity=0 time=0
EXTRACT: note_on channel=11 note=55 velocity=0 time=0
EXTRACT: note_on channel=11 note=58 velocity=0 time=0
EXTRACT: note_on channel=11 note=62 velocity=0 time=0
EXTRACT: note_on channel=11 note=65 velocity=0 time=0
EXTRACT: note_on channel=9 note=54 velocity=92 time=0.0069444375
EXTRACT: note_on channel=9 note=35 velocity=92 time=0
EXTRACT: note_on channel=9 note=42 velocity=92 time=0
EXTRACT: note_on channel=11 note=51 velocity=92 time=0
EXTRACT: note_on channel=11 note=55 velocity=92 time=0
EXTRACT: note_on channel=11 note=58 velocity=92 time=0
EXTRACT: note_on channel=11 note=62 velocity=92 time=0
EXTRACT: note_on channel=11 note=65 velocity=92 time=0
EXTRACT: note_on channel=15 note=27 velocity=92 time=0
EXTRACT: note_on channel=5 note=55 velocity=0 time=0.0347221875
EXTRACT: note_on channel=5 note=58 velocity=0 time=0
EXTRACT: note_on channel=5 note=62 velocity=0 time=0
EXTRACT: note_on channel=9 note=35 velocity=0 time=0.041666625
EXTRACT: note_on channel=9 note=42 velocity=0 time=0
EXTRACT: note_on channel=0 note=77 velocity=0 time=0.041666625
EXTRACT: note_on channel=6 note=62 velocity=92 time=0.0069444375
EXTRACT: note_on channel=6 note=65 velocity=92 time=0
EXTRACT: note_on channel=6 note=62 velocity=0 time=0.0347221875
EXTRACT: note_on channel=6 note=65 velocity=0 time=0
EXTRACT: note_on channel=9 note=54 velocity=0 time=0
EXTRACT: note_on channel=11 note=51 velocity=0 time=0
EXTRACT: note_on channel=11 note=55 velocity=0 time=0
EXTRACT: note_on channel=11 note=58 velocity=0 time=0
EXTRACT: note_on channel=11 note=62 velocity=0 time=0
EXTRACT: note_on channel=11 note=65 velocity=0 time=0
EXTRACT: note_on channel=9 note=54 velocity=92 time=0.0069444375
EXTRACT: note_on channel=11 note=51 velocity=92 time=0
EXTRACT: note_on channel=11 note=55 velocity=92 time=0
EXTRACT: note_on channel=11 note=58 velocity=92 time=0
EXTRACT: note_on channel=11 note=62 velocity=92 time=0
EXTRACT: note_on channel=11 note=65 velocity=92 time=0
EXTRACT: note_on channel=9 note=54 velocity=0 time=0.0347221875
EXTRACT: note_on channel=9 note=82 velocity=92 time=0.0069444375
EXTRACT: note_on channel=9 note=82 velocity=0 time=0.1180554375
EXTRACT: note_on channel=11 note=51 velocity=0 time=0
EXTRACT: note_on channel=11 note=55 velocity=0 time=0
EXTRACT: note_on channel=11 note=58 velocity=0 time=0
EXTRACT: note_on channel=11 note=62 velocity=0 time=0
EXTRACT: note_on channel=11 note=65 velocity=0 time=0
EXTRACT: note_on channel=6 note=62 velocity=92 time=0.0069444375
EXTRACT: note_on channel=6 note=65 velocity=92 time=0
EXTRACT: note_on channel=9 note=54 velocity=92 time=0
EXTRACT: note_on channel=9 note=82 velocity=92 time=0
EXTRACT: note_on channel=9 note=40 velocity=92 time=0
EXTRACT: note_on channel=9 note=42 velocity=92 time=0
EXTRACT: note_on channel=11 note=51 velocity=92 time=0
EXTRACT: note_on channel=11 note=55 velocity=92 time=0
EXTRACT: note_on channel=11 note=58 velocity=92 time=0
EXTRACT: note_on channel=11 note=62 velocity=92 time=0
EXTRACT: note_on channel=11 note=65 velocity=92 time=0
EXTRACT: note_on channel=9 note=40 velocity=0 time=0.0763888125
EXTRACT: note_on channel=9 note=42 velocity=0 time=0
EXTRACT: note_on channel=9 note=54 velocity=0 time=0.08333325
EXTRACT: note_on channel=9 note=82 velocity=0 time=0
EXTRACT: note_on channel=9 note=54 velocity=92 time=0.0069444375
EXTRACT: note_on channel=6 note=62 velocity=0 time=0.0347221875
EXTRACT: note_on channel=6 note=65 velocity=0 time=0
EXTRACT: note_on channel=9 note=54 velocity=0 time=0
EXTRACT: note_on channel=6 note=62 velocity=92 time=0.0069444375
EXTRACT: note_on channel=6 note=65 velocity=92 time=0
EXTRACT: note_on channel=9 note=82 velocity=92 time=0
EXTRACT: note_on channel=6 note=62 velocity=0 time=0.0763888125
EXTRACT: note_on channel=6 note=65 velocity=0 time=0
EXTRACT: note_on channel=9 note=82 velocity=0 time=0.041666625
EXTRACT: note_on channel=11 note=51 velocity=0 time=0
EXTRACT: note_on channel=11 note=55 velocity=0 time=0
EXTRACT: note_on channel=11 note=58 velocity=0 time=0
EXTRACT: note_on channel=11 note=62 velocity=0 time=0
EXTRACT: note_on channel=11 note=65 velocity=0 time=0
EXTRACT: note_on channel=15 note=27 velocity=0 time=0
EXTRACT: note_on channel=9 note=54 velocity=92 time=0.0069444375
EXTRACT: note_on channel=9 note=82 velocity=92 time=0
EXTRACT: note_on channel=9 note=46 velocity=92 time=0
EXTRACT: note_on channel=11 note=51 velocity=92 time=0
EXTRACT: note_on channel=11 note=55 velocity=92 time=0
EXTRACT: note_on channel=11 note=58 velocity=92 time=0
EXTRACT: note_on channel=11 note=62 velocity=92 time=0
EXTRACT: note_on channel=11 note=65 velocity=92 time=0
EXTRACT: note_on channel=15 note=31 velocity=92 time=0
EXTRACT: note_on channel=9 note=46 velocity=0 time=0.0763888125
EXTRACT: note_on channel=6 note=62 velocity=92 time=0.0486110625
EXTRACT: note_on channel=6 note=65 velocity=92 time=0
EXTRACT: note_on channel=6 note=62 velocity=0 time=0.0347221875
EXTRACT: note_on channel=6 note=65 velocity=0 time=0
EXTRACT: note_on channel=9 note=54 velocity=0 time=0
EXTRACT: note_on channel=9 note=82 velocity=0 time=0
EXTRACT: note_on channel=9 note=54 velocity=92 time=0.0069444375
EXTRACT: note_on channel=10 note=74 velocity=0 time=0
EXTRACT: note_on channel=10 note=55 velocity=0 time=0
EXTRACT: note_on channel=10 note=58 velocity=0 time=0
EXTRACT: note_on channel=10 note=62 velocity=0 time=0
EXTRACT: note_on channel=13 note=70 velocity=0 time=0
EXTRACT: note_on channel=9 note=54 velocity=0 time=0.0347221875
EXTRACT: note_on channel=9 note=82 velocity=92 time=0.0069444375
EXTRACT: note_on channel=9 note=82 velocity=0 time=0.1180554375
EXTRACT: note_on channel=11 note=51 velocity=0 time=0
EXTRACT: note_on channel=11 note=55 velocity=0 time=0
EXTRACT: note_on channel=11 note=58 velocity=0 time=0
EXTRACT: note_on channel=11 note=62 velocity=0 time=0
EXTRACT: note_on channel=11 note=65 velocity=0 time=0
EXTRACT: note_on channel=15 note=31 velocity=0 time=0
EXTRACT: note_on channel=5 note=53 velocity=92 time=0.0069444375
EXTRACT: note_on channel=5 note=57 velocity=92 time=0
EXTRACT: note_on channel=5 note=60 velocity=92 time=0
EXTRACT: note_on channel=5 note=41 velocity=92 time=0
EXTRACT: note_on channel=9 note=54 velocity=92 time=0
EXTRACT: note_on channel=9 note=82 velocity=92 time=0
EXTRACT: note_on channel=9 note=35 velocity=92 time=0
EXTRACT: note_on channel=9 note=42 velocity=92 time=0
EXTRACT: note_on channel=10 note=69 velocity=92 time=0
EXTRACT: note_on channel=10 note=72 velocity=92 time=0
EXTRACT: note_on channel=10 note=53 velocity=92 time=0
EXTRACT: note_on channel=10 note=57 velocity=92 time=0
EXTRACT: note_on channel=10 note=60 velocity=92 time=0
EXTRACT: note_on channel=11 note=53 velocity=92 time=0
EXTRACT: note_on channel=11 note=57 velocity=92 time=0
EXTRACT: note_on channel=11 note=60 velocity=92 time=0
EXTRACT: note_on channel=11 note=65 velocity=92 time=0
EXTRACT: note_on channel=13 note=65 velocity=92 time=0
EXTRACT: note_on channel=15 note=29 velocity=92 time=0
EXTRACT: note_on channel=9 note=35 velocity=0 time=0.0763888125
EXTRACT: note_on channel=9 note=42 velocity=0 time=0
EXTRACT: note_on channel=9 note=54 velocity=0 time=0.08333325
EXTRACT: note_on channel=9 note=82 velocity=0 time=0
EXTRACT: note_on channel=11 note=53 velocity=0 time=0
EXTRACT: note_on channel=11 note=57 velocity=0 time=0
EXTRACT: note_on channel=11 note=60 velocity=0 time=0
EXTRACT: note_on channel=11 note=65 velocity=0 time=0
EXTRACT: note_on channel=9 note=54 velocity=92 time=0.0069444375
EXTRACT: note_on channel=9 note=54 velocity=0 time=0.0347221875
EXTRACT: note_on channel=9 note=82 velocity=92 time=0.0069444375
EXTRACT: note_on channel=9 note=82 velocity=0 time=0.1180554375
EXTRACT: note_on channel=9 note=54 velocity=92 time=0.0069444375
EXTRACT: note_on channel=9 note=82 velocity=92 time=0
EXTRACT: note_on channel=9 note=42 velocity=92 time=0
EXTRACT: note_on channel=11 note=53 velocity=92 time=0
EXTRACT: note_on channel=11 note=57 velocity=92 time=0
EXTRACT: note_on channel=11 note=60 velocity=92 time=0
EXTRACT: note_on channel=11 note=65 velocity=92 time=0
EXTRACT: note_on channel=9 note=42 velocity=0 time=0.0763888125
EXTRACT: note_on channel=11 note=53 velocity=0 time=0.041666625
EXTRACT: note_on channel=11 note=57 velocity=0 time=0
EXTRACT: note_on channel=11 note=60 velocity=0 time=0
EXTRACT: note_on channel=11 note=65 velocity=0 time=0
EXTRACT: note_on channel=9 note=54 velocity=0 time=0.041666625
EXTRACT: note_on channel=9 note=82 velocity=0 time=0
EXTRACT: note_on channel=9 note=54 velocity=92 time=0.0069444375
EXTRACT: note_on channel=9 note=54 velocity=0 time=0.0347221875
EXTRACT: note_on channel=9 note=82 velocity=92 time=0.0069444375
EXTRACT: note_on channel=9 note=82 velocity=0 time=0.1180554375
EXTRACT: note_on channel=9 note=54 velocity=92 time=0.0069444375
EXTRACT: note_on channel=9 note=82 velocity=92 time=0
EXTRACT: note_on channel=9 note=40 velocity=92 time=0
EXTRACT: note_on channel=9 note=42 velocity=92 time=0
EXTRACT: note_on channel=11 note=53 velocity=92 time=0
EXTRACT: note_on channel=11 note=57 velocity=92 time=0
EXTRACT: note_on channel=11 note=60 velocity=92 time=0
EXTRACT: note_on channel=11 note=65 velocity=92 time=0
EXTRACT: note_on channel=9 note=40 velocity=0 time=0.0763888125
EXTRACT: note_on channel=9 note=42 velocity=0 time=0
EXTRACT: note_on channel=15 note=29 velocity=0 time=0.041666625
EXTRACT: note_on channel=9 note=54 velocity=0 time=0.041666625
EXTRACT: note_on channel=9 note=82 velocity=0 time=0
EXTRACT: note_on channel=9 note=54 velocity=92 time=0.0069444375
EXTRACT: note_on channel=9 note=54 velocity=0 time=0.0347221875
EXTRACT: note_on channel=9 note=82 velocity=92 time=0.0069444375
EXTRACT: note_on channel=9 note=82 velocity=0 time=0.1180554375
EXTRACT: note_on channel=11 note=53 velocity=0 time=0
EXTRACT: note_on channel=11 note=57 velocity=0 time=0
EXTRACT: note_on channel=11 note=60 velocity=0 time=0
EXTRACT: note_on channel=11 note=65 velocity=0 time=0
EXTRACT: note_on channel=9 note=54 velocity=92 time=0.0069444375
EXTRACT: note_on channel=9 note=82 velocity=92 time=0
EXTRACT: note_on channel=9 note=42 velocity=92 time=0
EXTRACT: note_on channel=9 note=42 velocity=0 time=0.0763888125
EXTRACT: note_on channel=9 note=54 velocity=0 time=0.08333325
EXTRACT: note_on channel=9 note=82 velocity=0 time=0
EXTRACT: note_on channel=9 note=54 velocity=92 time=0.0069444375
EXTRACT: note_on channel=11 note=53 velocity=92 time=0
EXTRACT: note_on channel=11 note=57 velocity=92 time=0
EXTRACT: note_on channel=11 note=60 velocity=92 time=0
EXTRACT: note_on channel=11 note=65 velocity=92 time=0
EXTRACT: note_on channel=15 note=29 velocity=92 time=0
EXTRACT: note_on channel=9 note=54 velocity=0 time=0.0347221875
EXTRACT: note_on channel=9 note=82 velocity=92 time=0.0069444375
EXTRACT: note_on channel=9 note=82 velocity=0 time=0.1180554375
EXTRACT: note_on channel=11 note=53 velocity=0 time=0
EXTRACT: note_on channel=11 note=57 velocity=0 time=0
EXTRACT: note_on channel=11 note=60 velocity=0 time=0
EXTRACT: note_on channel=11 note=65 velocity=0 time=0
EXTRACT: note_on channel=15 note=29 velocity=0 time=0
EXTRACT: note_on channel=9 note=54 velocity=92 time=0.0069444375
EXTRACT: note_on channel=9 note=35 velocity=92 time=0
EXTRACT: note_on channel=9 note=42 velocity=92 time=0
EXTRACT: note_on channel=11 note=53 velocity=92 time=0
EXTRACT: note_on channel=11 note=57 velocity=92 time=0
EXTRACT: note_on channel=11 note=60 velocity=92 time=0
EXTRACT: note_on channel=11 note=65 velocity=92 time=0
EXTRACT: note_on channel=15 note=41 velocity=92 time=0
EXTRACT: note_on channel=9 note=35 velocity=0 time=0.0763888125
EXTRACT: note_on channel=9 note=42 velocity=0 time=0
EXTRACT: note_on channel=15 note=41 velocity=0 time=0
EXTRACT: note_on channel=9 note=54 velocity=0 time=0.08333325
EXTRACT: note_on channel=11 note=53 velocity=0 time=0
EXTRACT: note_on channel=11 note=57 velocity=0 time=0
EXTRACT: note_on channel=11 note=60 velocity=0 time=0
EXTRACT: note_on channel=11 note=65 velocity=0 time=0
EXTRACT: note_on channel=9 note=54 velocity=92 time=0.0069444375
EXTRACT: note_on channel=11 note=53 velocity=92 time=0
EXTRACT: note_on channel=11 note=57 velocity=92 time=0
EXTRACT: note_on channel=11 note=60 velocity=92 time=0
EXTRACT: note_on channel=11 note=65 velocity=92 time=0
EXTRACT: note_on channel=9 note=54 velocity=0 time=0.0347221875
EXTRACT: note_on channel=0 note=72 velocity=127 time=0.0069444375
EXTRACT: note_on channel=9 note=82 velocity=92 time=0
EXTRACT: note_on channel=5 note=53 velocity=0 time=0.0347221875
EXTRACT: note_on channel=5 note=57 velocity=0 time=0
EXTRACT: note_on channel=5 note=60 velocity=0 time=0
EXTRACT: note_on channel=5 note=41 velocity=0 time=0
EXTRACT: note_on channel=0 note=72 velocity=0 time=0.08333325
EXTRACT: note_on channel=9 note=82 velocity=0 time=0
EXTRACT: note_on channel=11 note=53 velocity=0 time=0
EXTRACT: note_on channel=11 note=57 velocity=0 time=0
EXTRACT: note_on channel=11 note=60 velocity=0 time=0
EXTRACT: note_on channel=11 note=65 velocity=0 time=0
EXTRACT: note_on channel=0 note=74 velocity=127 time=0.0069444375
EXTRACT: note_on channel=9 note=54 velocity=92 time=0
EXTRACT: note_on channel=9 note=35 velocity=92 time=0
EXTRACT: note_on channel=9 note=42 velocity=92 time=0
EXTRACT: note_on channel=11 note=53 velocity=92 time=0
EXTRACT: note_on channel=11 note=57 velocity=92 time=0
EXTRACT: note_on channel=11 note=60 velocity=92 time=0
EXTRACT: note_on channel=11 note=65 velocity=92 time=0
EXTRACT: note_on channel=15 note=41 velocity=92 time=0
EXTRACT: note_on channel=9 note=35 velocity=0 time=0.0763888125
EXTRACT: note_on channel=9 note=42 velocity=0 time=0
EXTRACT: note_on channel=0 note=74 velocity=0 time=0.08333325
EXTRACT: note_on channel=9 note=54 velocity=0 time=0
EXTRACT: note_on channel=11 note=53 velocity=0 time=0
EXTRACT: note_on channel=11 note=57 velocity=0 time=0
EXTRACT: note_on channel=11 note=60 velocity=0 time=0
EXTRACT: note_on channel=11 note=65 velocity=0 time=0
EXTRACT: note_on channel=0 note=72 velocity=127 time=0.0069444375
EXTRACT: note_on channel=9 note=54 velocity=92 time=0
EXTRACT: note_on channel=11 note=53 velocity=92 time=0
EXTRACT: note_on channel=11 note=57 velocity=92 time=0
EXTRACT: note_on channel=11 note=60 velocity=92 time=0
EXTRACT: note_on channel=11 note=65 velocity=92 time=0
EXTRACT: note_on channel=9 note=54 velocity=0 time=0.0347221875
EXTRACT: note_on channel=9 note=82 velocity=92 time=0.0069444375
EXTRACT: note_on channel=0 note=72 velocity=0 time=0.1180554375
EXTRACT: note_on channel=9 note=82 velocity=0 time=0
EXTRACT: note_on channel=11 note=53 velocity=0 time=0
EXTRACT: note_on channel=11 note=57 velocity=0 time=0
EXTRACT: note_on channel=11 note=60 velocity=0 time=0
EXTRACT: note_on channel=11 note=65 velocity=0 time=0
EXTRACT: note_on channel=15 note=41 velocity=0 time=0
EXTRACT: note_on channel=0 note=74 velocity=127 time=0.0069444375
EXTRACT: note_on channel=9 note=54 velocity=92 time=0
EXTRACT: note_on channel=9 note=82 velocity=92 time=0
EXTRACT: note_on channel=9 note=40 velocity=92 time=0
EXTRACT: note_on channel=9 note=42 velocity=92 time=0
EXTRACT: note_on channel=11 note=53 velocity=92 time=0
EXTRACT: note_on channel=11 note=57 velocity=92 time=0
EXTRACT: note_on channel=11 note=60 velocity=92 time=0
EXTRACT: note_on channel=11 note=65 velocity=92 time=0
EXTRACT: note_on channel=15 note=36 velocity=92 time=0
EXTRACT: note_on channel=9 note=40 velocity=0 time=0.0763888125
EXTRACT: note_on channel=9 note=42 velocity=0 time=0
EXTRACT: note_on channel=9 note=54 velocity=0 time=0.08333325
EXTRACT: note_on channel=9 note=82 velocity=0 time=0
EXTRACT: note_on channel=9 note=54 velocity=92 time=0.0069444375
EXTRACT: note_on channel=9 note=54 velocity=0 time=0.0347221875
EXTRACT: note_on channel=9 note=82 velocity=92 time=0.0069444375
EXTRACT: note_on channel=0 note=74 velocity=0 time=0.0763888125
EXTRACT: note_on channel=0 note=77 velocity=127 time=0.0069444375
EXTRACT: note_on channel=9 note=82 velocity=0 time=0.0347221875
EXTRACT: note_on channel=11 note=53 velocity=0 time=0
EXTRACT: note_on channel=11 note=57 velocity=0 time=0
EXTRACT: note_on channel=11 note=60 velocity=0 time=0
EXTRACT: note_on channel=11 note=65 velocity=0 time=0
EXTRACT: note_on channel=9 note=54 velocity=92 time=0.0069444375
EXTRACT: note_on channel=9 note=82 velocity=92 time=0
EXTRACT: note_on channel=9 note=46 velocity=92 time=0
EXTRACT: note_on channel=11 note=53 velocity=92 time=0
EXTRACT: note_on channel=11 note=57 velocity=92 time=0
EXTRACT: note_on channel=11 note=60 velocity=92 time=0
EXTRACT: note_on channel=11 note=65 velocity=92 time=0
EXTRACT: note_on channel=9 note=46 velocity=0 time=0.0763888125
EXTRACT: note_on channel=9 note=54 velocity=0 time=0.08333325
EXTRACT: note_on channel=9 note=82 velocity=0 time=0
EXTRACT: note_on channel=9 note=54 velocity=92 time=0.0069444375
EXTRACT: note_on channel=10 note=69 velocity=0 time=0
EXTRACT: note_on channel=10 note=72 velocity=0 time=0
EXTRACT: note_on channel=10 note=53 velocity=0 time=0
EXTRACT: note_on channel=10 note=57 velocity=0 time=0
EXTRACT: note_on channel=10 note=60 velocity=0 time=0
EXTRACT: note_on channel=13 note=65 velocity=0 time=0
EXTRACT: note_on channel=9 note=54 velocity=0 time=0.0347221875
EXTRACT: note_on channel=9 note=82 velocity=92 time=0.0069444375
EXTRACT: note_on channel=15 note=36 velocity=0 time=0.013888875
EXTRACT: note_on channel=0 note=77 velocity=0 time=0.1041665625
EXTRACT: note_on channel=9 note=82 velocity=0 time=0
EXTRACT: note_on channel=11 note=53 velocity=0 time=0
EXTRACT: note_on channel=11 note=57 velocity=0 time=0
EXTRACT: note_on channel=11 note=60 velocity=0 time=0
EXTRACT: note_on channel=11 note=65 velocity=0 time=0
EXTRACT: note_on channel=0 note=82 velocity=127 time=0.0069444375
EXTRACT: note_on channel=5 note=55 velocity=92 time=0
EXTRACT: note_on channel=5 note=58 velocity=92 time=0
EXTRACT: note_on channel=5 note=62 velocity=92 time=0
EXTRACT: note_on channel=5 note=39 velocity=92 time=0
EXTRACT: note_on channel=6 note=62 velocity=92 time=0
EXTRACT: note_on channel=6 note=65 velocity=92 time=0
EXTRACT: note_on channel=9 note=54 velocity=92 time=0
EXTRACT: note_on channel=9 note=82 velocity=92 time=0
EXTRACT: note_on channel=9 note=35 velocity=92 time=0
EXTRACT: note_on channel=9 note=42 velocity=92 time=0
EXTRACT: note_on channel=10 note=70 velocity=92 time=0
EXTRACT: note_on channel=10 note=55 velocity=92 time=0
EXTRACT: note_on channel=10 note=58 velocity=92 time=0
EXTRACT: note_on channel=10 note=62 velocity=92 time=0
EXTRACT: note_on channel=11 note=51 velocity=92 time=0
EXTRACT: note_on channel=11 note=55 velocity=92 time=0
EXTRACT: note_on channel=11 note=58 velocity=92 time=0
EXTRACT: note_on channel=11 note=62 velocity=92 time=0
EXTRACT: note_on channel=11 note=65 velocity=92 time=0
EXTRACT: note_on channel=13 note=70 velocity=92 time=0
EXTRACT: note_on channel=15 note=27 velocity=92 time=0
EXTRACT: note_on channel=9 note=35 velocity=0 time=0.0763888125
EXTRACT: note_on channel=9 note=42 velocity=0 time=0
EXTRACT: note_on channel=9 note=54 velocity=0 time=0.08333325
EXTRACT: note_on channel=9 note=82 velocity=0 time=0
EXTRACT: note_on channel=10 note=70 velocity=0 time=0
EXTRACT: note_on channel=11 note=51 velocity=0 time=0
EXTRACT: note_on channel=11 note=55 velocity=0 time=0
EXTRACT: note_on channel=11 note=58 velocity=0 time=0
EXTRACT: note_on channel=11 note=62 velocity=0 time=0
EXTRACT: note_on channel=11 note=65 velocity=0 time=0
EXTRACT: note_on channel=9 note=54 velocity=92 time=0.0069444375
EXTRACT: note_on channel=10 note=74 velocity=92 time=0
EXTRACT: note_on channel=6 note=62 velocity=0 time=0.0347221875
EXTRACT: note_on channel=6 note=65 velocity=0 time=0
EXTRACT: note_on channel=9 note=54 velocity=0 time=0
EXTRACT: note_on channel=6 note=62 velocity=92 time=0.0069444375
EXTRACT: note_on channel=6 note=65 velocity=92 time=0
EXTRACT: note_on channel=9 note=82 velocity=92 time=0
EXTRACT: note_on channel=6 note=62 velocity=0 time=0.0763888125
EXTRACT: note_on channel=6 note=65 velocity=0 time=0
EXTRACT: note_on channel=9 note=82 velocity=0 time=0.041666625
EXTRACT: note_on channel=9 note=54 velocity=92 time=0.0069444375
EXTRACT: note_on channel=9 note=82 velocity=92 time=0
EXTRACT: note_on channel=9 note=42 velocity=92 time=0
EXTRACT: note_on channel=11 note=51 velocity=92 time=0
EXTRACT: note_on channel=11 note=55 velocity=92 time=0
EXTRACT: note_on channel=11 note=58 velocity=92 time=0
EXTRACT: note_on channel=11 note=62 velocity=92 time=0
EXTRACT: note_on channel=11 note=65 velocity=92 time=0
EXTRACT: note_on channel=9 note=42 velocity=0 time=0.0763888125
EXTRACT: note_on channel=11 note=51 velocity=0 time=0.041666625
EXTRACT: note_on channel=11 note=55 velocity=0 time=0
EXTRACT: note_on channel=11 note=58 velocity=0 time=0
EXTRACT: note_on channel=11 note=62 velocity=0 time=0
EXTRACT: note_on channel=11 note=65 velocity=0 time=0
EXTRACT: note_on channel=6 note=62 velocity=92 time=0.0069444375
EXTRACT: note_on channel=6 note=65 velocity=92 time=0
EXTRACT: note_on channel=9 note=54 velocity=0 time=0.0347221875
EXTRACT: note_on channel=9 note=82 velocity=0 time=0
EXTRACT: note_on channel=9 note=54 velocity=92 time=0.0069444375
EXTRACT: note_on channel=9 note=54 velocity=0 time=0.0347221875
EXTRACT: note_on channel=9 note=82 velocity=92 time=0.0069444375
EXTRACT: note_on channel=6 note=62 velocity=0 time=0.1180554375
EXTRACT: note_on channel=6 note=65 velocity=0 time=0
EXTRACT: note_on channel=9 note=82 velocity=0 time=0
EXTRACT: note_on channel=6 note=62 velocity=92 time=0.0069444375
EXTRACT: note_on channel=6 note=65 velocity=92 time=0
EXTRACT: note_on channel=9 note=54 velocity=92 time=0
EXTRACT: note_on channel=9 note=82 velocity=92 time=0
EXTRACT: note_on channel=9 note=40 velocity=92 time=0
EXTRACT: note_on channel=9 note=42 velocity=92 time=0
EXTRACT: note_on channel=11 note=51 velocity=92 time=0
EXTRACT: note_on channel=11 note=55 velocity=92 time=0
EXTRACT: note_on channel=11 note=58 velocity=92 time=0
EXTRACT: note_on channel=11 note=62 velocity=92 time=0
EXTRACT: note_on channel=11 note=65 velocity=92 time=0
EXTRACT: note_on channel=6 note=62 velocity=0 time=0.0347221875
EXTRACT: note_on channel=6 note=65 velocity=0 time=0
EXTRACT: note_on channel=9 note=40 velocity=0 time=0.041666625
EXTRACT: note_on channel=9 note=42 velocity=0 time=0
EXTRACT: note_on channel=9 note=54 velocity=0 time=0.08333325
EXTRACT: note_on channel=9 note=82 velocity=0 time=0
EXTRACT: note_on channel=9 note=54 velocity=92 time=0.0069444375
EXTRACT: note_on channel=9 note=54 velocity=0 time=0.0347221875
EXTRACT: note_on channel=6 note=62 velocity=92 time=0.0069444375
EXTRACT: note_on channel=6 note=65 velocity=92 time=0
EXTRACT: note_on channel=9 note=82 velocity=92 time=0
EXTRACT: note_on channel=15 note=27 velocity=0 time=0.013888875
EXTRACT: note_on channel=6 note=62 velocity=0 time=0.0624999375
EXTRACT: note_on channel=6 note=65 velocity=0 time=0
EXTRACT: note_on channel=11 note=51 velocity=0 time=0
EXTRACT: note_on channel=11 note=55 velocity=0 time=0
EXTRACT: note_on channel=11 note=58 velocity=0 time=0
EXTRACT: note_on channel=11 note=62 velocity=0 time=0
EXTRACT: note_on channel=11 note=65 velocity=0 time=0
EXTRACT: note_on channel=9 note=82 velocity=0 time=0.041666625
EXTRACT: note_on channel=9 note=54 velocity=92 time=0.0069444375
EXTRACT: note_on channel=9 note=82 velocity=92 time=0
EXTRACT: note_on channel=9 note=42 velocity=92 time=0
EXTRACT: note_on channel=9 note=42 velocity=0 time=0.0763888125
EXTRACT: note_on channel=6 note=62 velocity=92 time=0.0486110625
EXTRACT: note_on channel=6 note=65 velocity=92 time=0
EXTRACT: note_on channel=6 note=62 velocity=0 time=0.0347221875
EXTRACT: note_on channel=6 note=65 velocity=0 time=0
EXTRACT: note_on channel=9 note=54 velocity=0 time=0
EXTRACT: note_on channel=9 note=82 velocity=0 time=0
EXTRACT: note_on channel=5 note=55 velocity=0 time=0.0069444375
EXTRACT: note_on channel=5 note=58 velocity=0 time=0
EXTRACT: note_on channel=5 note=62 velocity=0 time=0
EXTRACT: note_on channel=9 note=54 velocity=92 time=0
EXTRACT: note_on channel=11 note=51 velocity=92 time=0
EXTRACT: note_on channel=11 note=55 velocity=92 time=0
EXTRACT: note_on channel=11 note=58 velocity=92 time=0
EXTRACT: note_on channel=11 note=62 velocity=92 time=0
EXTRACT: note_on channel=11 note=65 velocity=92 time=0
EXTRACT: note_on channel=15 note=27 velocity=92 time=0
EXTRACT: note_on channel=9 note=54 velocity=0 time=0.0347221875
EXTRACT: note_on channel=9 note=82 velocity=92 time=0.0069444375
EXTRACT: note_on channel=9 note=82 velocity=0 time=0.1180554375
EXTRACT: note_on channel=11 note=51 velocity=0 time=0
EXTRACT: note_on channel=11 note=55 velocity=0 time=0
EXTRACT: note_on channel=11 note=58 velocity=0 time=0
EXTRACT: note_on channel=11 note=62 velocity=0 time=0
EXTRACT: note_on channel=11 note=65 velocity=0 time=0
EXTRACT: note_on channel=15 note=27 velocity=0 time=0
EXTRACT: note_on channel=5 note=65 velocity=92 time=0.0069444375
EXTRACT: note_on channel=6 note=62 velocity=92 time=0
EXTRACT: note_on channel=6 note=65 velocity=92 time=0
EXTRACT: note_on channel=9 note=54 velocity=92 time=0
EXTRACT: note_on channel=9 note=35 velocity=92 time=0
EXTRACT: note_on channel=9 note=42 velocity=92 time=0
EXTRACT: note_on channel=11 note=51 velocity=92 time=0
EXTRACT: note_on channel=11 note=55 velocity=92 time=0
EXTRACT: note_on channel=11 note=58 velocity=92 time=0
EXTRACT: note_on channel=11 note=62 velocity=92 time=0
EXTRACT: note_on channel=11 note=65 velocity=92 time=0
EXTRACT: note_on channel=15 note=27 velocity=92 time=0
EXTRACT: note_on channel=9 note=35 velocity=0 time=0.0763888125
EXTRACT: note_on channel=9 note=42 velocity=0 time=0
EXTRACT: note_on channel=15 note=27 velocity=0 time=0
EXTRACT: note_on channel=9 note=54 velocity=0 time=0.08333325
EXTRACT: note_on channel=11 note=51 velocity=0 time=0
EXTRACT: note_on channel=11 note=55 velocity=0 time=0
EXTRACT: note_on channel=11 note=58 velocity=0 time=0
EXTRACT: note_on channel=11 note=62 velocity=0 time=0
EXTRACT: note_on channel=11 note=65 velocity=0 time=0
EXTRACT: note_on channel=9 note=54 velocity=92 time=0.0069444375
EXTRACT: note_on channel=11 note=51 velocity=92 time=0
EXTRACT: note_on channel=11 note=55 velocity=92 time=0
EXTRACT: note_on channel=11 note=58 velocity=92 time=0
EXTRACT: note_on channel=11 note=62 velocity=92 time=0
EXTRACT: note_on channel=11 note=65 velocity=92 time=0
EXTRACT: note_on channel=6 note=62 velocity=0 time=0.0347221875
EXTRACT: note_on channel=6 note=65 velocity=0 time=0
EXTRACT: note_on channel=9 note=54 velocity=0 time=0
EXTRACT: note_on channel=6 note=62 velocity=92 time=0.0069444375
EXTRACT: note_on channel=6 note=65 velocity=92 time=0
EXTRACT: note_on channel=9 note=82 velocity=92 time=0
EXTRACT: note_on channel=6 note=62 velocity=0 time=0.0763888125
EXTRACT: note_on channel=6 note=65 velocity=0 time=0
EXTRACT: note_on channel=9 note=82 velocity=0 time=0.041666625
EXTRACT: note_on channel=11 note=51 velocity=0 time=0
EXTRACT: note_on channel=11 note=55 velocity=0 time=0
EXTRACT: note_on channel=11 note=58 velocity=0 time=0
EXTRACT: note_on channel=11 note=62 velocity=0 time=0
EXTRACT: note_on channel=11 note=65 velocity=0 time=0
EXTRACT: note_on channel=9 note=54 velocity=92 time=0.0069444375
EXTRACT: note_on channel=9 note=35 velocity=92 time=0
EXTRACT: note_on channel=9 note=42 velocity=92 time=0
EXTRACT: note_on channel=11 note=51 velocity=92 time=0
EXTRACT: note_on channel=11 note=55 velocity=92 time=0
EXTRACT: note_on channel=11 note=58 velocity=92 time=0
EXTRACT: note_on channel=11 note=62 velocity=92 time=0
EXTRACT: note_on channel=11 note=65 velocity=92 time=0
EXTRACT: note_on channel=15 note=27 velocity=92 time=0
EXTRACT: note_on channel=9 note=35 velocity=0 time=0.0763888125
EXTRACT: note_on channel=9 note=42 velocity=0 time=0
EXTRACT: note_on channel=6 note=62 velocity=92 time=0.0486110625
EXTRACT: note_on channel=6 note=65 velocity=92 time=0
EXTRACT: note_on channel=6 note=62 velocity=0 time=0.0347221875
EXTRACT: note_on channel=6 note=65 velocity=0 time=0
EXTRACT: note_on channel=9 note=54 velocity=0 time=0
EXTRACT: note_on channel=11 note=51 velocity=0 time=0
EXTRACT: note_on channel=11 note=55 velocity=0 time=0
EXTRACT: note_on channel=11 note=58 velocity=0 time=0
EXTRACT: note_on channel=11 note=62 velocity=0 time=0
EXTRACT: note_on channel=11 note=65 velocity=0 time=0
EXTRACT: note_on channel=9 note=54 velocity=92 time=0.0069444375
EXTRACT: note_on channel=11 note=51 velocity=92 time=0
EXTRACT: note_on channel=11 note=55 velocity=92 time=0
EXTRACT: note_on channel=11 note=58 velocity=92 time=0
EXTRACT: note_on channel=11 note=62 velocity=92 time=0
EXTRACT: note_on channel=11 note=65 velocity=92 time=0
EXTRACT: note_on channel=9 note=54 velocity=0 time=0.0347221875
EXTRACT: note_on channel=9 note=82 velocity=92 time=0.0069444375
EXTRACT: note_on channel=5 note=65 velocity=0 time=0.013888875
EXTRACT: note_on channel=9 note=82 velocity=0 time=0.1041665625
EXTRACT: note_on channel=11 note=51 velocity=0 time=0
EXTRACT: note_on channel=11 note=55 velocity=0 time=0
EXTRACT: note_on channel=11 note=58 velocity=0 time=0
EXTRACT: note_on channel=11 note=62 velocity=0 time=0
EXTRACT: note_on channel=11 note=65 velocity=0 time=0
EXTRACT: note_on channel=5 note=62 velocity=92 time=0.0069444375
EXTRACT: note_on channel=6 note=62 velocity=92 time=0
EXTRACT: note_on channel=6 note=65 velocity=92 time=0
EXTRACT: note_on channel=9 note=54 velocity=92 time=0
EXTRACT: note_on channel=9 note=82 velocity=92 time=0
EXTRACT: note_on channel=9 note=40 velocity=92 time=0
EXTRACT: note_on channel=9 note=42 velocity=92 time=0
EXTRACT: note_on channel=11 note=51 velocity=92 time=0
EXTRACT: note_on channel=11 note=55 velocity=92 time=0
EXTRACT: note_on channel=11 note=58 velocity=92 time=0
EXTRACT: note_on channel=11 note=62 velocity=92 time=0
EXTRACT: note_on channel=11 note=65 velocity=92 time=0
EXTRACT: note_on channel=5 note=39 velocity=0 time=0.0347221875
EXTRACT: note_on channel=9 note=40 velocity=0 time=0.041666625
EXTRACT: note_on channel=9 note=42 velocity=0 time=0
EXTRACT: note_on channel=9 note=54 velocity=0 time=0.08333325
EXTRACT: note_on channel=9 note=82 velocity=0 time=0
EXTRACT: note_on channel=9 note=54 velocity=92 time=0.0069444375
EXTRACT: note_on channel=5 note=62 velocity=0 time=0.0347221875
EXTRACT: note_on channel=6 note=62 velocity=0 time=0
EXTRACT: note_on channel=6 note=65 velocity=0 time=0
EXTRACT: note_on channel=9 note=54 velocity=0 time=0
EXTRACT: note_on channel=6 note=62 velocity=92 time=0.0069444375
EXTRACT: note_on channel=6 note=65 velocity=92 time=0
EXTRACT: note_on channel=9 note=82 velocity=92 time=0
EXTRACT: note_on channel=6 note=62 velocity=0 time=0.0763888125
EXTRACT: note_on channel=6 note=65 velocity=0 time=0
EXTRACT: note_on channel=9 note=82 velocity=0 time=0.041666625
EXTRACT: note_on channel=11 note=51 velocity=0 time=0
EXTRACT: note_on channel=11 note=55 velocity=0 time=0
EXTRACT: note_on channel=11 note=58 velocity=0 time=0
EXTRACT: note_on channel=11 note=62 velocity=0 time=0
EXTRACT: note_on channel=11 note=65 velocity=0 time=0
EXTRACT: note_on channel=15 note=27 velocity=0 time=0
EXTRACT: note_on channel=9 note=54 velocity=92 time=0.0069444375
EXTRACT: note_on channel=9 note=82 velocity=92 time=0
EXTRACT: note_on channel=9 note=46 velocity=92 time=0
EXTRACT: note_on channel=11 note=51 velocity=92 time=0
EXTRACT: note_on channel=11 note=55 velocity=92 time=0
EXTRACT: note_on channel=11 note=58 velocity=92 time=0
EXTRACT: note_on channel=11 note=62 velocity=92 time=0
EXTRACT: note_on channel=11 note=65 velocity=92 time=0
EXTRACT: note_on channel=15 note=31 velocity=92 time=0
EXTRACT: note_on channel=9 note=46 velocity=0 time=0.0763888125
EXTRACT: note_on channel=6 note=62 velocity=92 time=0.0486110625
EXTRACT: note_on channel=6 note=65 velocity=92 time=0
EXTRACT: note_on channel=6 note=62 velocity=0 time=0.0347221875
EXTRACT: note_on channel=6 note=65 velocity=0 time=0
EXTRACT: note_on channel=9 note=54 velocity=0 time=0
EXTRACT: note_on channel=9 note=82 velocity=0 time=0
EXTRACT: note_on channel=0 note=82 velocity=0 time=0.0069444375
EXTRACT: note_on channel=9 note=54 velocity=92 time=0
EXTRACT: note_on channel=10 note=74 velocity=0 time=0
EXTRACT: note_on channel=10 note=55 velocity=0 time=0
EXTRACT: note_on channel=10 note=58 velocity=0 time=0
EXTRACT: note_on channel=10 note=62 velocity=0 time=0
EXTRACT: note_on channel=13 note=70 velocity=0 time=0
EXTRACT: note_on channel=9 note=54 velocity=0 time=0.0347221875
EXTRACT: note_on channel=9 note=82 velocity=92 time=0.0069444375
EXTRACT: note_on channel=9 note=82 velocity=0 time=0.1180554375
EXTRACT: note_on channel=11 note=51 velocity=0 time=0
EXTRACT: note_on channel=11 note=55 velocity=0 time=0
EXTRACT: note_on channel=11 note=58 velocity=0 time=0
EXTRACT: note_on channel=11 note=62 velocity=0 time=0
EXTRACT: note_on channel=11 note=65 velocity=0 time=0
EXTRACT: note_on channel=15 note=31 velocity=0 time=0
EXTRACT: note_on channel=0 note=77 velocity=127 time=0.0069444375
EXTRACT: note_on channel=5 note=53 velocity=92 time=0
EXTRACT: note_on channel=5 note=57 velocity=92 time=0
EXTRACT: note_on channel=5 note=60 velocity=92 time=0
EXTRACT: note_on channel=5 note=41 velocity=92 time=0
EXTRACT: note_on channel=6 note=65 velocity=92 time=0
EXTRACT: note_on channel=6 note=69 velocity=92 time=0
EXTRACT: note_on channel=9 note=54 velocity=92 time=0
EXTRACT: note_on channel=9 note=82 velocity=92 time=0
EXTRACT: note_on channel=9 note=35 velocity=92 time=0
EXTRACT: note_on channel=9 note=42 velocity=92 time=0
EXTRACT: note_on channel=10 note=69 velocity=92 time=0
EXTRACT: note_on channel=10 note=72 velocity=92 time=0
EXTRACT: note_on channel=10 note=53 velocity=92 time=0
EXTRACT: note_on channel=10 note=57 velocity=92 time=0
EXTRACT: note_on channel=10 note=60 velocity=92 time=0
EXTRACT: note_on channel=11 note=53 velocity=92 time=0
EXTRACT: note_on channel=11 note=57 velocity=92 time=0
EXTRACT: note_on channel=11 note=60 velocity=92 time=0
EXTRACT: note_on channel=11 note=65 velocity=92 time=0
EXTRACT: note_on channel=13 note=65 velocity=92 time=0
EXTRACT: note_on channel=15 note=29 velocity=92 time=0
EXTRACT: note_on channel=6 note=65 velocity=0 time=0.0347221875
EXTRACT: note_on channel=6 note=69 velocity=0 time=0
EXTRACT: note_on channel=9 note=35 velocity=0 time=0.041666625
EXTRACT: note_on channel=9 note=42 velocity=0 time=0
EXTRACT: note_on channel=9 note=54 velocity=0 time=0.08333325
EXTRACT: note_on channel=9 note=82 velocity=0 time=0
EXTRACT: note_on channel=11 note=53 velocity=0 time=0
EXTRACT: note_on channel=11 note=57 velocity=0 time=0
EXTRACT: note_on channel=11 note=60 velocity=0 time=0
EXTRACT: note_on channel=11 note=65 velocity=0 time=0
EXTRACT: note_on channel=9 note=54 velocity=92 time=0.0069444375
EXTRACT: note_on channel=9 note=54 velocity=0 time=0.0347221875
EXTRACT: note_on channel=6 note=65 velocity=92 time=0.0069444375
EXTRACT: note_on channel=6 note=69 velocity=92 time=0
EXTRACT: note_on channel=9 note=82 velocity=92 time=0
EXTRACT: note_on channel=6 note=65 velocity=0 time=0.0347221875
EXTRACT: note_on channel=6 note=69 velocity=0 time=0
EXTRACT: note_on channel=9 note=82 velocity=0 time=0.08333325
EXTRACT: note_on channel=9 note=54 velocity=92 time=0.0069444375
EXTRACT: note_on channel=9 note=82 velocity=92 time=0
EXTRACT: note_on channel=9 note=42 velocity=92 time=0
EXTRACT: note_on channel=11 note=53 velocity=92 time=0
EXTRACT: note_on channel=11 note=57 velocity=92 time=0
EXTRACT: note_on channel=11 note=60 velocity=92 time=0
EXTRACT: note_on channel=11 note=65 velocity=92 time=0
EXTRACT: note_on channel=9 note=42 velocity=0 time=0.0763888125
EXTRACT: note_on channel=11 note=53 velocity=0 time=0.041666625
EXTRACT: note_on channel=11 note=57 velocity=0 time=0
EXTRACT: note_on channel=11 note=60 velocity=0 time=0
EXTRACT: note_on channel=11 note=65 velocity=0 time=0
EXTRACT: note_on channel=6 note=65 velocity=92 time=0.0069444375
EXTRACT: note_on channel=6 note=69 velocity=92 time=0
EXTRACT: note_on channel=6 note=65 velocity=0 time=0.0347221875
EXTRACT: note_on channel=6 note=69 velocity=0 time=0
EXTRACT: note_on channel=9 note=54 velocity=0 time=0
EXTRACT: note_on channel=9 note=82 velocity=0 time=0
EXTRACT: note_on channel=9 note=54 velocity=92 time=0.0069444375
EXTRACT: note_on channel=9 note=54 velocity=0 time=0.0347221875
EXTRACT: note_on channel=9 note=82 velocity=92 time=0.0069444375
EXTRACT: note_on channel=9 note=82 velocity=0 time=0.1180554375
EXTRACT: note_on channel=6 note=65 velocity=92 time=0.0069444375
EXTRACT: note_on channel=6 note=69 velocity=92 time=0
EXTRACT: note_on channel=9 note=54 velocity=92 time=0
EXTRACT: note_on channel=9 note=82 velocity=92 time=0
EXTRACT: note_on channel=9 note=40 velocity=92 time=0
EXTRACT: note_on channel=9 note=42 velocity=92 time=0
EXTRACT: note_on channel=11 note=53 velocity=92 time=0
EXTRACT: note_on channel=11 note=57 velocity=92 time=0
EXTRACT: note_on channel=11 note=60 velocity=92 time=0
EXTRACT: note_on channel=11 note=65 velocity=92 time=0
EXTRACT: note_on channel=9 note=40 velocity=0 time=0.0763888125
EXTRACT: note_on channel=9 note=42 velocity=0 time=0
EXTRACT: note_on channel=9 note=54 velocity=0 time=0.08333325
EXTRACT: note_on channel=9 note=82 velocity=0 time=0
EXTRACT: note_on channel=15 note=29 velocity=0 time=0
EXTRACT: note_on channel=9 note=54 velocity=92 time=0.0069444375
EXTRACT: note_on channel=15 note=29 velocity=92 time=0
EXTRACT: note_on channel=6 note=65 velocity=0 time=0.0347221875
EXTRACT: note_on channel=6 note=69 velocity=0 time=0
EXTRACT: note_on channel=9 note=54 velocity=0 time=0
EXTRACT: note_on channel=6 note=65 velocity=92 time=0.0069444375
EXTRACT: note_on channel=6 note=69 velocity=92 time=0
EXTRACT: note_on channel=9 note=82 velocity=92 time=0
EXTRACT: note_on channel=0 note=77 velocity=0 time=0.013888875
EXTRACT: note_on channel=6 note=65 velocity=0 time=0.0624999375
EXTRACT: note_on channel=6 note=69 velocity=0 time=0
EXTRACT: note_on channel=9 note=82 velocity=0 time=0.041666625
EXTRACT: note_on channel=11 note=53 velocity=0 time=0
EXTRACT: note_on channel=11 note=57 velocity=0 time=0
EXTRACT: note_on channel=11 note=60 velocity=0 time=0
EXTRACT: note_on channel=11 note=65 velocity=0 time=0
EXTRACT: note_on channel=15 note=29 velocity=0 time=0
EXTRACT: note_on channel=9 note=54 velocity=92 time=0.0069444375
EXTRACT: note_on channel=9 note=82 velocity=92 time=0
EXTRACT: note_on channel=9 note=42 velocity=92 time=0
EXTRACT: note_on channel=15 note=43 velocity=92 time=0
EXTRACT: note_on channel=9 note=42 velocity=0 time=0.0763888125
EXTRACT: note_on channel=6 note=65 velocity=92 time=0.0486110625
EXTRACT: note_on channel=6 note=69 velocity=92 time=0
EXTRACT: note_on channel=6 note=65 velocity=0 time=0.0347221875
EXTRACT: note_on channel=6 note=69 velocity=0 time=0
EXTRACT: note_on channel=9 note=54 velocity=0 time=0
EXTRACT: note_on channel=9 note=82 velocity=0 time=0
EXTRACT: note_on channel=15 note=43 velocity=0 time=0
EXTRACT: note_on channel=9 note=54 velocity=92 time=0.0069444375
EXTRACT: note_on channel=11 note=53 velocity=92 time=0
EXTRACT: note_on channel=11 note=57 velocity=92 time=0
EXTRACT: note_on channel=11 note=60 velocity=92 time=0
EXTRACT: note_on channel=11 note=65 velocity=92 time=0
EXTRACT: note_on channel=15 note=42 velocity=92 time=0
EXTRACT: note_on channel=9 note=54 velocity=0 time=0.0347221875
EXTRACT: note_on channel=9 note=82 velocity=92 time=0.0069444375
EXTRACT: note_on channel=9 note=82 velocity=0 time=0.1180554375
EXTRACT: note_on channel=11 note=53 velocity=0 time=0
EXTRACT: note_on channel=11 note=57 velocity=0 time=0
EXTRACT: note_on channel=11 note=60 velocity=0 time=0
EXTRACT: note_on channel=11 note=65 velocity=0 time=0
EXTRACT: note_on channel=15 note=42 velocity=0 time=0
EXTRACT: note_on channel=6 note=65 velocity=92 time=0.0069444375
EXTRACT: note_on channel=6 note=69 velocity=92 time=0
EXTRACT: note_on channel=9 note=54 velocity=92 time=0
EXTRACT: note_on channel=9 note=35 velocity=92 time=0
EXTRACT: note_on channel=9 note=42 velocity=92 time=0
EXTRACT: note_on channel=11 note=53 velocity=92 time=0
EXTRACT: note_on channel=11 note=57 velocity=92 time=0
EXTRACT: note_on channel=11 note=60 velocity=92 time=0
EXTRACT: note_on channel=11 note=65 velocity=92 time=0
EXTRACT: note_on channel=15 note=41 velocity=92 time=0
EXTRACT: note_on channel=6 note=65 velocity=0 time=0.0347221875
EXTRACT: note_on channel=6 note=69 velocity=0 time=0
EXTRACT: note_on channel=9 note=35 velocity=0 time=0.041666625
EXTRACT: note_on channel=9 note=42 velocity=0 time=0
EXTRACT: note_on channel=9 note=54 velocity=0 time=0.08333325
EXTRACT: note_on channel=11 note=53 velocity=0 time=0
EXTRACT: note_on channel=11 note=57 velocity=0 time=0
EXTRACT: note_on channel=11 note=60 velocity=0 time=0
EXTRACT: note_on channel=11 note=65 velocity=0 time=0
EXTRACT: note_on channel=15 note=41 velocity=0 time=0
EXTRACT: note_on channel=9 note=54 velocity=92 time=0.0069444375
EXTRACT: note_on channel=11 note=53 velocity=92 time=0
EXTRACT: note_on channel=11 note=57 velocity=92 time=0
EXTRACT: note_on channel=11 note=60 velocity=92 time=0
EXTRACT: note_on channel=11 note=65 velocity=92 time=0
EXTRACT: note_on channel=15 note=36 velocity=92 time=0
EXTRACT: note_on channel=9 note=54 velocity=0 time=0.0347221875
EXTRACT: note_on channel=6 note=65 velocity=92 time=0.0069444375
EXTRACT: note_on channel=6 note=69 velocity=92 time=0
EXTRACT: note_on channel=9 note=82 velocity=92 time=0
EXTRACT: note_on channel=6 note=65 velocity=0 time=0.0763888125
EXTRACT: note_on channel=6 note=69 velocity=0 time=0
EXTRACT: note_on channel=9 note=82 velocity=0 time=0.041666625
EXTRACT: note_on channel=11 note=53 velocity=0 time=0
EXTRACT: note_on channel=11 note=57 velocity=0 time=0
EXTRACT: note_on channel=11 note=60 velocity=0 time=0
EXTRACT: note_on channel=11 note=65 velocity=0 time=0
EXTRACT: note_on channel=15 note=36 velocity=0 time=0
EXTRACT: note_on channel=0 note=79 velocity=127 time=0.0069444375
EXTRACT: note_on channel=9 note=54 velocity=92 time=0
EXTRACT: note_on channel=9 note=35 velocity=92 time=0
EXTRACT: note_on channel=9 note=42 velocity=92 time=0
EXTRACT: note_on channel=11 note=53 velocity=92 time=0
EXTRACT: note_on channel=11 note=57 velocity=92 time=0
EXTRACT: note_on channel=11 note=60 velocity=92 time=0
EXTRACT: note_on channel=11 note=65 velocity=92 time=0
EXTRACT: note_on channel=15 note=33 velocity=92 time=0
EXTRACT: note_on channel=9 note=35 velocity=0 time=0.0763888125
EXTRACT: note_on channel=9 note=42 velocity=0 time=0
EXTRACT: note_on channel=6 note=65 velocity=92 time=0.0486110625
EXTRACT: note_on channel=6 note=69 velocity=92 time=0
EXTRACT: note_on channel=6 note=65 velocity=0 time=0.0347221875
EXTRACT: note_on channel=6 note=69 velocity=0 time=0
EXTRACT: note_on channel=9 note=54 velocity=0 time=0
EXTRACT: note_on channel=11 note=53 velocity=0 time=0
EXTRACT: note_on channel=11 note=57 velocity=0 time=0
EXTRACT: note_on channel=11 note=60 velocity=0 time=0
EXTRACT: note_on channel=11 note=65 velocity=0 time=0
EXTRACT: note_on channel=15 note=33 velocity=0 time=0
EXTRACT: note_on channel=9 note=54 velocity=92 time=0.0069444375
EXTRACT: note_on channel=11 note=53 velocity=92 time=0
EXTRACT: note_on channel=11 note=57 velocity=92 time=0
EXTRACT: note_on channel=11 note=60 velocity=92 time=0
EXTRACT: note_on channel=11 note=65 velocity=92 time=0
EXTRACT: note_on channel=15 note=31 velocity=92 time=0
EXTRACT: note_on channel=9 note=54 velocity=0 time=0.0347221875
EXTRACT: note_on channel=9 note=82 velocity=92 time=0.0069444375
EXTRACT: note_on channel=9 note=82 velocity=0 time=0.1180554375
EXTRACT: note_on channel=11 note=53 velocity=0 time=0
EXTRACT: note_on channel=11 note=57 velocity=0 time=0
EXTRACT: note_on channel=11 note=60 velocity=0 time=0
EXTRACT: note_on channel=11 note=65 velocity=0 time=0
EXTRACT: note_on channel=15 note=31 velocity=0 time=0
EXTRACT: note_on channel=6 note=65 velocity=92 time=0.0069444375
EXTRACT: note_on channel=6 note=69 velocity=92 time=0
EXTRACT: note_on channel=9 note=54 velocity=92 time=0
EXTRACT: note_on channel=9 note=82 velocity=92 time=0
EXTRACT: note_on channel=9 note=40 velocity=92 time=0
EXTRACT: note_on channel=9 note=42 velocity=92 time=0
EXTRACT: note_on channel=11 note=53 velocity=92 time=0
EXTRACT: note_on channel=11 note=57 velocity=92 time=0
EXTRACT: note_on channel=11 note=60 velocity=92 time=0
EXTRACT: note_on channel=11 note=65 velocity=92 time=0
EXTRACT: note_on channel=15 note=29 velocity=92 time=0
EXTRACT: note_on channel=6 note=65 velocity=0 time=0.0347221875
EXTRACT: note_on channel=6 note=69 velocity=0 time=0
EXTRACT: note_on channel=9 note=40 velocity=0 time=0.041666625
EXTRACT: note_on channel=9 note=42 velocity=0 time=0
EXTRACT: note_on channel=9 note=54 velocity=0 time=0.08333325
EXTRACT: note_on channel=9 note=82 velocity=0 time=0
EXTRACT: note_on channel=9 note=54 velocity=92 time=0.0069444375
EXTRACT: note_on channel=0 note=79 velocity=0 time=0.0347221875
EXTRACT: note_on channel=9 note=54 velocity=0 time=0
EXTRACT: note_on channel=0 note=77 velocity=127 time=0.0069444375
EXTRACT: note_on channel=6 note=65 velocity=92 time=0
EXTRACT: note_on channel=6 note=69 velocity=92 time=0
EXTRACT: note_on channel=9 note=82 velocity=92 time=0
EXTRACT: note_on channel=6 note=65 velocity=0 time=0.0347221875
EXTRACT: note_on channel=6 note=69 velocity=0 time=0
EXTRACT: note_on channel=9 note=82 velocity=0 time=0.08333325
EXTRACT: note_on channel=11 note=53 velocity=0 time=0
EXTRACT: note_on channel=11 note=57 velocity=0 time=0
EXTRACT: note_on channel=11 note=60 velocity=0 time=0
EXTRACT: note_on channel=11 note=65 velocity=0 time=0
EXTRACT: note_on channel=9 note=54 velocity=92 time=0.0069444375
EXTRACT: note_on channel=9 note=82 velocity=92 time=0
EXTRACT: note_on channel=9 note=46 velocity=92 time=0
EXTRACT: note_on channel=11 note=53 velocity=92 time=0
EXTRACT: note_on channel=11 note=57 velocity=92 time=0
EXTRACT: note_on channel=11 note=60 velocity=92 time=0
EXTRACT: note_on channel=11 note=65 velocity=92 time=0
EXTRACT: note_on channel=9 note=46 velocity=0 time=0.0763888125
EXTRACT: note_on channel=6 note=65 velocity=92 time=0.0486110625
EXTRACT: note_on channel=6 note=69 velocity=92 time=0
EXTRACT: note_on channel=6 note=65 velocity=0 time=0.0347221875
EXTRACT: note_on channel=6 note=69 velocity=0 time=0
EXTRACT: note_on channel=9 note=54 velocity=0 time=0
EXTRACT: note_on channel=9 note=82 velocity=0 time=0
EXTRACT: note_on channel=5 note=53 velocity=0 time=0.0069444375
EXTRACT: note_on channel=5 note=57 velocity=0 time=0
EXTRACT: note_on channel=5 note=60 velocity=0 time=0
EXTRACT: note_on channel=9 note=54 velocity=92 time=0
EXTRACT: note_on channel=10 note=69 velocity=0 time=0
EXTRACT: note_on channel=10 note=72 velocity=0 time=0
EXTRACT: note_on channel=10 note=53 velocity=0 time=0
EXTRACT: note_on channel=10 note=57 velocity=0 time=0
EXTRACT: note_on channel=10 note=60 velocity=0 time=0
EXTRACT: note_on channel=9 note=54 velocity=0 time=0.0347221875
EXTRACT: note_on channel=9 note=82 velocity=92 time=0.0069444375
EXTRACT: note_on channel=15 note=29 velocity=0 time=0.013888875
EXTRACT: note_on channel=0 note=77 velocity=0 time=0.0624999375
EXTRACT: note_on channel=0 note=79 velocity=127 time=0.0069444375
EXTRACT: note_on channel=9 note=82 velocity=0 time=0.0347221875
EXTRACT: note_on channel=11 note=53 velocity=0 time=0
EXTRACT: note_on channel=11 note=57 velocity=0 time=0
EXTRACT: note_on channel=11 note=60 velocity=0 time=0
EXTRACT: note_on channel=11 note=65 velocity=0 time=0
EXTRACT: note_on channel=6 note=62 velocity=92 time=0.0069444375
EXTRACT: note_on channel=6 note=65 velocity=92 time=0
EXTRACT: note_on channel=9 note=54 velocity=92 time=0
EXTRACT: note_on channel=9 note=81 velocity=92 time=0
EXTRACT: note_on channel=9 note=82 velocity=92 time=0
EXTRACT: note_on channel=9 note=35 velocity=92 time=0
EXTRACT: note_on channel=9 note=42 velocity=92 time=0
EXTRACT: note_on channel=10 note=70 velocity=92 time=0
EXTRACT: note_on channel=10 note=55 velocity=92 time=0
EXTRACT: note_on channel=10 note=58 velocity=92 time=0
EXTRACT: note_on channel=10 note=62 velocity=92 time=0
EXTRACT: note_on channel=11 note=51 velocity=92 time=0
EXTRACT: note_on channel=11 note=55 velocity=92 time=0
EXTRACT: note_on channel=11 note=58 velocity=92 time=0
EXTRACT: note_on channel=11 note=62 velocity=92 time=0
EXTRACT: note_on channel=11 note=65 velocity=92 time=0
EXTRACT: note_on channel=15 note=27 velocity=92 time=0
EXTRACT: note_on channel=5 note=41 velocity=0 time=0.0347221875
EXTRACT: note_on channel=13 note=65 velocity=0 time=0
EXTRACT: note_on channel=5 note=55 velocity=92 time=0.0069444375
EXTRACT: note_on channel=5 note=58 velocity=92 time=0
EXTRACT: note_on channel=5 note=62 velocity=92 time=0
EXTRACT: note_on channel=5 note=39 velocity=92 time=0
EXTRACT: note_on channel=13 note=70 velocity=92 time=0
EXTRACT: note_on channel=9 note=35 velocity=0 time=0.0347221875
EXTRACT: note_on channel=9 note=42 velocity=0 time=0
EXTRACT: note_on channel=9 note=54 velocity=0 time=0.08333325
EXTRACT: note_on channel=9 note=81 velocity=0 time=0
EXTRACT: note_on channel=9 note=82 velocity=0 time=0
EXTRACT: note_on channel=10 note=70 velocity=0 time=0
EXTRACT: note_on channel=11 note=51 velocity=0 time=0
EXTRACT: note_on channel=11 note=55 velocity=0 time=0
EXTRACT: note_on channel=11 note=58 velocity=0 time=0
EXTRACT: note_on channel=11 note=62 velocity=0 time=0
EXTRACT: note_on channel=11 note=65 velocity=0 time=0
EXTRACT: note_on channel=9 note=54 velocity=92 time=0.0069444375
EXTRACT: note_on channel=10 note=74 velocity=92 time=0
EXTRACT: note_on channel=6 note=62 velocity=0 time=0.0347221875
EXTRACT: note_on channel=6 note=65 velocity=0 time=0
EXTRACT: note_on channel=9 note=54 velocity=0 time=0
EXTRACT: note_on channel=6 note=62 velocity=92 time=0.0069444375
EXTRACT: note_on channel=6 note=65 velocity=92 time=0
EXTRACT: note_on channel=9 note=82 velocity=92 time=0
EXTRACT: note_on channel=6 note=62 velocity=0 time=0.0763888125
EXTRACT: note_on channel=6 note=65 velocity=0 time=0
EXTRACT: note_on channel=9 note=82 velocity=0 time=0.041666625
EXTRACT: note_on channel=9 note=54 velocity=92 time=0.0069444375
EXTRACT: note_on channel=9 note=82 velocity=92 time=0
EXTRACT: note_on channel=9 note=42 velocity=92 time=0
EXTRACT: note_on channel=11 note=51 velocity=92 time=0
EXTRACT: note_on channel=11 note=55 velocity=92 time=0
EXTRACT: note_on channel=11 note=58 velocity=92 time=0
EXTRACT: note_on channel=11 note=62 velocity=92 time=0
EXTRACT: note_on channel=11 note=65 velocity=92 time=0
EXTRACT: note_on channel=9 note=42 velocity=0 time=0.0763888125
EXTRACT: note_on channel=11 note=51 velocity=0 time=0.041666625
EXTRACT: note_on channel=11 note=55 velocity=0 time=0
EXTRACT: note_on channel=11 note=58 velocity=0 time=0
EXTRACT: note_on channel=11 note=62 velocity=0 time=0
EXTRACT: note_on channel=11 note=65 velocity=0 time=0
EXTRACT: note_on channel=6 note=62 velocity=92 time=0.0069444375
EXTRACT: note_on channel=6 note=65 velocity=92 time=0
EXTRACT: note_on channel=9 note=54 velocity=0 time=0.0347221875
EXTRACT: note_on channel=9 note=82 velocity=0 time=0
EXTRACT: note_on channel=9 note=54 velocity=92 time=0.0069444375
EXTRACT: note_on channel=9 note=54 velocity=0 time=0.0347221875
EXTRACT: note_on channel=9 note=82 velocity=92 time=0.0069444375
EXTRACT: note_on channel=6 note=62 velocity=0 time=0.1180554375
EXTRACT: note_on channel=6 note=65 velocity=0 time=0
EXTRACT: note_on channel=9 note=82 velocity=0 time=0
EXTRACT: note_on channel=6 note=62 velocity=92 time=0.0069444375
EXTRACT: note_on channel=6 note=65 velocity=92 time=0
EXTRACT: note_on channel=9 note=54 velocity=92 time=0
EXTRACT: note_on channel=9 note=82 velocity=92 time=0
EXTRACT: note_on channel=9 note=40 velocity=92 time=0
EXTRACT: note_on channel=9 note=42 velocity=92 time=0
EXTRACT: note_on channel=11 note=51 velocity=92 time=0
EXTRACT: note_on channel=11 note=55 velocity=92 time=0
EXTRACT: note_on channel=11 note=58 velocity=92 time=0
EXTRACT: note_on channel=11 note=62 velocity=92 time=0
EXTRACT: note_on channel=11 note=65 velocity=92 time=0
EXTRACT: note_on channel=6 note=62 velocity=0 time=0.0347221875
EXTRACT: note_on channel=6 note=65 velocity=0 time=0
EXTRACT: note_on channel=9 note=40 velocity=0 time=0.041666625
EXTRACT: note_on channel=9 note=42 velocity=0 time=0
EXTRACT: note_on channel=9 note=54 velocity=0 time=0.08333325
EXTRACT: note_on channel=9 note=82 velocity=0 time=0
EXTRACT: note_on channel=9 note=54 velocity=92 time=0.0069444375
EXTRACT: note_on channel=9 note=54 velocity=0 time=0.0347221875
EXTRACT: note_on channel=6 note=62 velocity=92 time=0.0069444375
EXTRACT: note_on channel=6 note=65 velocity=92 time=0
EXTRACT: note_on channel=9 note=82 velocity=92 time=0
EXTRACT: note_on channel=15 note=27 velocity=0 time=0.013888875
EXTRACT: note_on channel=6 note=62 velocity=0 time=0.0624999375
EXTRACT: note_on channel=6 note=65 velocity=0 time=0
EXTRACT: note_on channel=11 note=51 velocity=0 time=0
EXTRACT: note_on channel=11 note=55 velocity=0 time=0
EXTRACT: note_on channel=11 note=58 velocity=0 time=0
EXTRACT: note_on channel=11 note=62 velocity=0 time=0
EXTRACT: note_on channel=11 note=65 velocity=0 time=0
EXTRACT: note_on channel=9 note=82 velocity=0 time=0.041666625
EXTRACT: note_on channel=9 note=54 velocity=92 time=0.0069444375
EXTRACT: note_on channel=9 note=82 velocity=92 time=0
EXTRACT: note_on channel=9 note=42 velocity=92 time=0
EXTRACT: note_on channel=9 note=42 velocity=0 time=0.0763888125
EXTRACT: note_on channel=6 note=62 velocity=92 time=0.0486110625
EXTRACT: note_on channel=6 note=65 velocity=92 time=0
EXTRACT: note_on channel=6 note=62 velocity=0 time=0.0347221875
EXTRACT: note_on channel=6 note=65 velocity=0 time=0
EXTRACT: note_on channel=9 note=54 velocity=0 time=0
EXTRACT: note_on channel=9 note=82 velocity=0 time=0
EXTRACT: note_on channel=9 note=54 velocity=92 time=0.0069444375
EXTRACT: note_on channel=11 note=51 velocity=92 time=0
EXTRACT: note_on channel=11 note=55 velocity=92 time=0
EXTRACT: note_on channel=11 note=58 velocity=92 time=0
EXTRACT: note_on channel=11 note=62 velocity=92 time=0
EXTRACT: note_on channel=11 note=65 velocity=92 time=0
EXTRACT: note_on channel=15 note=27 velocity=92 time=0
EXTRACT: note_on channel=9 note=54 velocity=0 time=0.0347221875
EXTRACT: note_on channel=9 note=82 velocity=92 time=0.0069444375
EXTRACT: note_on channel=9 note=82 velocity=0 time=0.1180554375
EXTRACT: note_on channel=11 note=51 velocity=0 time=0
EXTRACT: note_on channel=11 note=55 velocity=0 time=0
EXTRACT: note_on channel=11 note=58 velocity=0 time=0
EXTRACT: note_on channel=11 note=62 velocity=0 time=0
EXTRACT: note_on channel=11 note=65 velocity=0 time=0
EXTRACT: note_on channel=15 note=27 velocity=0 time=0
EXTRACT: note_on channel=6 note=62 velocity=92 time=0.0069444375
EXTRACT: note_on channel=6 note=65 velocity=92 time=0
EXTRACT: note_on channel=9 note=54 velocity=92 time=0
EXTRACT: note_on channel=9 note=35 velocity=92 time=0
EXTRACT: note_on channel=9 note=42 velocity=92 time=0
EXTRACT: note_on channel=11 note=51 velocity=92 time=0
EXTRACT: note_on channel=11 note=55 velocity=92 time=0
EXTRACT: note_on channel=11 note=58 velocity=92 time=0
EXTRACT: note_on channel=11 note=62 velocity=92 time=0
EXTRACT: note_on channel=11 note=65 velocity=92 time=0
EXTRACT: note_on channel=15 note=27 velocity=92 time=0
EXTRACT: note_on channel=9 note=35 velocity=0 time=0.0763888125
EXTRACT: note_on channel=9 note=42 velocity=0 time=0
EXTRACT: note_on channel=15 note=27 velocity=0 time=0
EXTRACT: note_on channel=9 note=54 velocity=0 time=0.08333325
EXTRACT: note_on channel=11 note=51 velocity=0 time=0
EXTRACT: note_on channel=11 note=55 velocity=0 time=0
EXTRACT: note_on channel=11 note=58 velocity=0 time=0
EXTRACT: note_on channel=11 note=62 velocity=0 time=0
EXTRACT: note_on channel=11 note=65 velocity=0 time=0
EXTRACT: note_on channel=9 note=54 velocity=92 time=0.0069444375
EXTRACT: note_on channel=11 note=51 velocity=92 time=0
EXTRACT: note_on channel=11 note=55 velocity=92 time=0
EXTRACT: note_on channel=11 note=58 velocity=92 time=0
EXTRACT: note_on channel=11 note=62 velocity=92 time=0
EXTRACT: note_on channel=11 note=65 velocity=92 time=0
EXTRACT: note_on channel=6 note=62 velocity=0 time=0.0347221875
EXTRACT: note_on channel=6 note=65 velocity=0 time=0
EXTRACT: note_on channel=9 note=54 velocity=0 time=0
EXTRACT: note_on channel=6 note=62 velocity=92 time=0.0069444375
EXTRACT: note_on channel=6 note=65 velocity=92 time=0
EXTRACT: note_on channel=9 note=82 velocity=92 time=0
EXTRACT: note_on channel=5 note=39 velocity=0 time=0.013888875
EXTRACT: note_on channel=6 note=62 velocity=0 time=0.0624999375
EXTRACT: note_on channel=6 note=65 velocity=0 time=0
EXTRACT: note_on channel=9 note=82 velocity=0 time=0.041666625
EXTRACT: note_on channel=11 note=51 velocity=0 time=0
EXTRACT: note_on channel=11 note=55 velocity=0 time=0
EXTRACT: note_on channel=11 note=58 velocity=0 time=0
EXTRACT: note_on channel=11 note=62 velocity=0 time=0
EXTRACT: note_on channel=11 note=65 velocity=0 time=0
EXTRACT: note_on channel=9 note=54 velocity=92 time=0.0069444375
EXTRACT: note_on channel=9 note=35 velocity=92 time=0
EXTRACT: note_on channel=9 note=42 velocity=92 time=0
EXTRACT: note_on channel=11 note=51 velocity=92 time=0
EXTRACT: note_on channel=11 note=55 velocity=92 time=0
EXTRACT: note_on channel=11 note=58 velocity=92 time=0
EXTRACT: note_on channel=11 note=62 velocity=92 time=0
EXTRACT: note_on channel=11 note=65 velocity=92 time=0
EXTRACT: note_on channel=15 note=27 velocity=92 time=0
EXTRACT: note_on channel=5 note=55 velocity=0 time=0.0347221875
EXTRACT: note_on channel=5 note=58 velocity=0 time=0
EXTRACT: note_on channel=5 note=62 velocity=0 time=0
EXTRACT: note_on channel=9 note=35 velocity=0 time=0.041666625
EXTRACT: note_on channel=9 note=42 velocity=0 time=0
EXTRACT: note_on channel=6 note=62 velocity=92 time=0.0486110625
EXTRACT: note_on channel=6 note=65 velocity=92 time=0
EXTRACT: note_on channel=6 note=62 velocity=0 time=0.0347221875
EXTRACT: note_on channel=6 note=65 velocity=0 time=0
EXTRACT: note_on channel=9 note=54 velocity=0 time=0
EXTRACT: note_on channel=11 note=51 velocity=0 time=0
EXTRACT: note_on channel=11 note=55 velocity=0 time=0
EXTRACT: note_on channel=11 note=58 velocity=0 time=0
EXTRACT: note_on channel=11 note=62 velocity=0 time=0
EXTRACT: note_on channel=11 note=65 velocity=0 time=0
EXTRACT: note_on channel=9 note=54 velocity=92 time=0.0069444375
EXTRACT: note_on channel=11 note=51 velocity=92 time=0
EXTRACT: note_on channel=11 note=55 velocity=92 time=0
EXTRACT: note_on channel=11 note=58 velocity=92 time=0
EXTRACT: note_on channel=11 note=62 velocity=92 time=0
EXTRACT: note_on channel=11 note=65 velocity=92 time=0
EXTRACT: note_on channel=9 note=54 velocity=0 time=0.0347221875
EXTRACT: note_on channel=9 note=82 velocity=92 time=0.0069444375
EXTRACT: note_on channel=9 note=82 velocity=0 time=0.1180554375
EXTRACT: note_on channel=11 note=51 velocity=0 time=0
EXTRACT: note_on channel=11 note=55 velocity=0 time=0
EXTRACT: note_on channel=11 note=58 velocity=0 time=0
EXTRACT: note_on channel=11 note=62 velocity=0 time=0
EXTRACT: note_on channel=11 note=65 velocity=0 time=0
EXTRACT: note_on channel=6 note=62 velocity=92 time=0.0069444375
EXTRACT: note_on channel=6 note=65 velocity=92 time=0
EXTRACT: note_on channel=9 note=54 velocity=92 time=0
EXTRACT: note_on channel=9 note=82 velocity=92 time=0
EXTRACT: note_on channel=9 note=40 velocity=92 time=0
EXTRACT: note_on channel=9 note=42 velocity=92 time=0
EXTRACT: note_on channel=11 note=51 velocity=92 time=0
EXTRACT: note_on channel=11 note=55 velocity=92 time=0
EXTRACT: note_on channel=11 note=58 velocity=92 time=0
EXTRACT: note_on channel=11 note=62 velocity=92 time=0
EXTRACT: note_on channel=11 note=65 velocity=92 time=0
EXTRACT: note_on channel=9 note=40 velocity=0 time=0.0763888125
EXTRACT: note_on channel=9 note=42 velocity=0 time=0
EXTRACT: note_on channel=9 note=54 velocity=0 time=0.08333325
EXTRACT: note_on channel=9 note=82 velocity=0 time=0
EXTRACT: note_on channel=9 note=54 velocity=92 time=0.0069444375
EXTRACT: note_on channel=6 note=62 velocity=0 time=0.0347221875
EXTRACT: note_on channel=6 note=65 velocity=0 time=0
EXTRACT: note_on channel=9 note=54 velocity=0 time=0
EXTRACT: note_on channel=6 note=62 velocity=92 time=0.0069444375
EXTRACT: note_on channel=6 note=65 velocity=92 time=0
EXTRACT: note_on channel=9 note=82 velocity=92 time=0
EXTRACT: note_on channel=6 note=62 velocity=0 time=0.0763888125
EXTRACT: note_on channel=6 note=65 velocity=0 time=0
EXTRACT: note_on channel=9 note=82 velocity=0 time=0.041666625
EXTRACT: note_on channel=11 note=51 velocity=0 time=0
EXTRACT: note_on channel=11 note=55 velocity=0 time=0
EXTRACT: note_on channel=11 note=58 velocity=0 time=0
EXTRACT: note_on channel=11 note=62 velocity=0 time=0
EXTRACT: note_on channel=11 note=65 velocity=0 time=0
EXTRACT: note_on channel=15 note=27 velocity=0 time=0
EXTRACT: note_on channel=9 note=54 velocity=92 time=0.0069444375
EXTRACT: note_on channel=9 note=82 velocity=92 time=0
EXTRACT: note_on channel=9 note=46 velocity=92 time=0
EXTRACT: note_on channel=11 note=51 velocity=92 time=0
EXTRACT: note_on channel=11 note=55 velocity=92 time=0
EXTRACT: note_on channel=11 note=58 velocity=92 time=0
EXTRACT: note_on channel=11 note=62 velocity=92 time=0
EXTRACT: note_on channel=11 note=65 velocity=92 time=0
EXTRACT: note_on channel=15 note=31 velocity=92 time=0
EXTRACT: note_on channel=9 note=46 velocity=0 time=0.0763888125
EXTRACT: note_on channel=6 note=62 velocity=92 time=0.0486110625
EXTRACT: note_on channel=6 note=65 velocity=92 time=0
EXTRACT: note_on channel=6 note=62 velocity=0 time=0.0347221875
EXTRACT: note_on channel=6 note=65 velocity=0 time=0
EXTRACT: note_on channel=9 note=54 velocity=0 time=0
EXTRACT: note_on channel=9 note=82 velocity=0 time=0
EXTRACT: note_on channel=9 note=54 velocity=92 time=0.0069444375
EXTRACT: note_on channel=10 note=74 velocity=0 time=0
EXTRACT: note_on channel=10 note=55 velocity=0 time=0
EXTRACT: note_on channel=10 note=58 velocity=0 time=0
EXTRACT: note_on channel=10 note=62 velocity=0 time=0
EXTRACT: note_on channel=13 note=70 velocity=0 time=0
EXTRACT: note_on channel=9 note=54 velocity=0 time=0.0347221875
EXTRACT: note_on channel=9 note=82 velocity=92 time=0.0069444375
EXTRACT: note_on channel=9 note=82 velocity=0 time=0.1180554375
EXTRACT: note_on channel=11 note=51 velocity=0 time=0
EXTRACT: note_on channel=11 note=55 velocity=0 time=0
EXTRACT: note_on channel=11 note=58 velocity=0 time=0
EXTRACT: note_on channel=11 note=62 velocity=0 time=0
EXTRACT: note_on channel=11 note=65 velocity=0 time=0
EXTRACT: note_on channel=15 note=31 velocity=0 time=0
EXTRACT: note_on channel=5 note=53 velocity=92 time=0.0069444375
EXTRACT: note_on channel=5 note=57 velocity=92 time=0
EXTRACT: note_on channel=5 note=60 velocity=92 time=0
EXTRACT: note_on channel=5 note=41 velocity=92 time=0
EXTRACT: note_on channel=9 note=54 velocity=92 time=0
EXTRACT: note_on channel=9 note=82 velocity=92 time=0
EXTRACT: note_on channel=9 note=35 velocity=92 time=0
EXTRACT: note_on channel=9 note=42 velocity=92 time=0
EXTRACT: note_on channel=10 note=69 velocity=92 time=0
EXTRACT: note_on channel=10 note=72 velocity=92 time=0
EXTRACT: note_on channel=10 note=53 velocity=92 time=0
EXTRACT: note_on channel=10 note=57 velocity=92 time=0
EXTRACT: note_on channel=10 note=60 velocity=92 time=0
EXTRACT: note_on channel=11 note=53 velocity=92 time=0
EXTRACT: note_on channel=11 note=57 velocity=92 time=0
EXTRACT: note_on channel=11 note=60 velocity=92 time=0
EXTRACT: note_on channel=11 note=65 velocity=92 time=0
EXTRACT: note_on channel=13 note=65 velocity=92 time=0
EXTRACT: note_on channel=15 note=29 velocity=92 time=0
EXTRACT: note_on channel=0 note=79 velocity=0 time=0.0347221875
EXTRACT: note_on channel=0 note=77 velocity=127 time=0.0069444375
EXTRACT: note_on channel=9 note=35 velocity=0 time=0.0347221875
EXTRACT: note_on channel=9 note=42 velocity=0 time=0
EXTRACT: note_on channel=9 note=54 velocity=0 time=0.08333325
EXTRACT: note_on channel=9 note=82 velocity=0 time=0
EXTRACT: note_on channel=11 note=53 velocity=0 time=0
EXTRACT: note_on channel=11 note=57 velocity=0 time=0
EXTRACT: note_on channel=11 note=60 velocity=0 time=0
EXTRACT: note_on channel=11 note=65 velocity=0 time=0
EXTRACT: note_on channel=9 note=54 velocity=92 time=0.0069444375
EXTRACT: note_on channel=9 note=54 velocity=0 time=0.0347221875
EXTRACT: note_on channel=9 note=82 velocity=92 time=0.0069444375
EXTRACT: note_on channel=9 note=82 velocity=0 time=0.1180554375
EXTRACT: note_on channel=9 note=54 velocity=92 time=0.0069444375
EXTRACT: note_on channel=9 note=82 velocity=92 time=0
EXTRACT: note_on channel=9 note=42 velocity=92 time=0
EXTRACT: note_on channel=11 note=53 velocity=92 time=0
EXTRACT: note_on channel=11 note=57 velocity=92 time=0
EXTRACT: note_on channel=11 note=60 velocity=92 time=0
EXTRACT: note_on channel=11 note=65 velocity=92 time=0
EXTRACT: note_on channel=9 note=42 velocity=0 time=0.0763888125
EXTRACT: note_on channel=11 note=53 velocity=0 time=0.041666625
EXTRACT: note_on channel=11 note=57 velocity=0 time=0
EXTRACT: note_on channel=11 note=60 velocity=0 time=0
EXTRACT: note_on channel=11 note=65 velocity=0 time=0
EXTRACT: note_on channel=9 note=54 velocity=0 time=0.041666625
EXTRACT: note_on channel=9 note=82 velocity=0 time=0
EXTRACT: note_on channel=9 note=54 velocity=92 time=0.0069444375
EXTRACT: note_on channel=9 note=54 velocity=0 time=0.0347221875
EXTRACT: note_on channel=9 note=82 velocity=92 time=0.0069444375
EXTRACT: note_on channel=9 note=82 velocity=0 time=0.1180554375
EXTRACT: note_on channel=9 note=54 velocity=92 time=0.0069444375
EXTRACT: note_on channel=9 note=82 velocity=92 time=0
EXTRACT: note_on channel=9 note=40 velocity=92 time=0
EXTRACT: note_on channel=9 note=42 velocity=92 time=0
EXTRACT: note_on channel=11 note=53 velocity=92 time=0
EXTRACT: note_on channel=11 note=57 velocity=92 time=0
EXTRACT: note_on channel=11 note=60 velocity=92 time=0
EXTRACT: note_on channel=11 note=65 velocity=92 time=0
EXTRACT: note_on channel=9 note=40 velocity=0 time=0.0763888125
EXTRACT: note_on channel=9 note=42 velocity=0 time=0
EXTRACT: note_on channel=9 note=54 velocity=0 time=0.08333325
EXTRACT: note_on channel=9 note=82 velocity=0 time=0
EXTRACT: note_on channel=9 note=54 velocity=92 time=0.0069444375
EXTRACT: note_on channel=9 note=54 velocity=0 time=0.0347221875
EXTRACT: note_on channel=9 note=82 velocity=92 time=0.0069444375
EXTRACT: note_on channel=15 note=29 velocity=0 time=0.0763888125
EXTRACT: note_on channel=0 note=77 velocity=0 time=0.041666625
EXTRACT: note_on channel=9 note=82 velocity=0 time=0
EXTRACT: note_on channel=11 note=53 velocity=0 time=0
EXTRACT: note_on channel=11 note=57 velocity=0 time=0
EXTRACT: note_on channel=11 note=60 velocity=0 time=0
EXTRACT: note_on channel=11 note=65 velocity=0 time=0
EXTRACT: note_on channel=9 note=54 velocity=92 time=0.0069444375
EXTRACT: note_on channel=9 note=82 velocity=92 time=0
EXTRACT: note_on channel=9 note=42 velocity=92 time=0
EXTRACT: note_on channel=9 note=42 velocity=0 time=0.0763888125
EXTRACT: note_on channel=9 note=54 velocity=0 time=0.08333325
EXTRACT: note_on channel=9 note=82 velocity=0 time=0
EXTRACT: note_on channel=9 note=54 velocity=92 time=0.0069444375
EXTRACT: note_on channel=11 note=53 velocity=92 time=0
EXTRACT: note_on channel=11 note=57 velocity=92 time=0
EXTRACT: note_on channel=11 note=60 velocity=92 time=0
EXTRACT: note_on channel=11 note=65 velocity=92 time=0
EXTRACT: note_on channel=15 note=36 velocity=92 time=0
EXTRACT: note_on channel=9 note=54 velocity=0 time=0.0347221875
EXTRACT: note_on channel=9 note=82 velocity=92 time=0.0069444375
EXTRACT: note_on channel=9 note=82 velocity=0 time=0.1180554375
EXTRACT: note_on channel=11 note=53 velocity=0 time=0
EXTRACT: note_on channel=11 note=57 velocity=0 time=0
EXTRACT: note_on channel=11 note=60 velocity=0 time=0
EXTRACT: note_on channel=11 note=65 velocity=0 time=0
EXTRACT: note_on channel=15 note=36 velocity=0 time=0
EXTRACT: note_on channel=9 note=54 velocity=92 time=0.0069444375
EXTRACT: note_on channel=9 note=35 velocity=92 time=0
EXTRACT: note_on channel=9 note=42 velocity=92 time=0
EXTRACT: note_on channel=11 note=53 velocity=92 time=0
EXTRACT: note_on channel=11 note=57 velocity=92 time=0
EXTRACT: note_on channel=11 note=60 velocity=92 time=0
EXTRACT: note_on channel=11 note=65 velocity=92 time=0
EXTRACT: note_on channel=15 note=41 velocity=92 time=0
EXTRACT: note_on channel=9 note=35 velocity=0 time=0.0763888125
EXTRACT: note_on channel=9 note=42 velocity=0 time=0
EXTRACT: note_on channel=9 note=54 velocity=0 time=0.08333325
EXTRACT: note_on channel=11 note=53 velocity=0 time=0
EXTRACT: note_on channel=11 note=57 velocity=0 time=0
EXTRACT: note_on channel=11 note=60 velocity=0 time=0
EXTRACT: note_on channel=11 note=65 velocity=0 time=0
EXTRACT: note_on channel=9 note=54 velocity=92 time=0.0069444375
EXTRACT: note_on channel=11 note=53 velocity=92 time=0
EXTRACT: note_on channel=11 note=57 velocity=92 time=0
EXTRACT: note_on channel=11 note=60 velocity=92 time=0
EXTRACT: note_on channel=11 note=65 velocity=92 time=0
EXTRACT: note_on channel=9 note=54 velocity=0 time=0.0347221875
EXTRACT: note_on channel=9 note=82 velocity=92 time=0.0069444375
EXTRACT: note_on channel=5 note=53 velocity=0 time=0.0347221875
EXTRACT: note_on channel=5 note=57 velocity=0 time=0
EXTRACT: note_on channel=5 note=60 velocity=0 time=0
EXTRACT: note_on channel=5 note=41 velocity=0 time=0
EXTRACT: note_on channel=9 note=82 velocity=0 time=0.08333325
EXTRACT: note_on channel=11 note=53 velocity=0 time=0
EXTRACT: note_on channel=11 note=57 velocity=0 time=0
EXTRACT: note_on channel=11 note=60 velocity=0 time=0
EXTRACT: note_on channel=11 note=65 velocity=0 time=0
EXTRACT: note_on channel=15 note=41 velocity=0 time=0
EXTRACT: note_on channel=9 note=54 velocity=92 time=0.0069444375
EXTRACT: note_on channel=9 note=35 velocity=92 time=0
EXTRACT: note_on channel=9 note=42 velocity=92 time=0
EXTRACT: note_on channel=11 note=53 velocity=92 time=0
EXTRACT: note_on channel=11 note=57 velocity=92 time=0
EXTRACT: note_on channel=11 note=60 velocity=92 time=0
EXTRACT: note_on channel=11 note=65 velocity=92 time=0
EXTRACT: note_on channel=15 note=41 velocity=92 time=0
EXTRACT: note_on channel=9 note=35 velocity=0 time=0.0763888125
EXTRACT: note_on channel=9 note=42 velocity=0 time=0
EXTRACT: note_on channel=9 note=54 velocity=0 time=0.08333325
EXTRACT: note_on channel=11 note=53 velocity=0 time=0
EXTRACT: note_on channel=11 note=57 velocity=0 time=0
EXTRACT: note_on channel=11 note=60 velocity=0 time=0
EXTRACT: note_on channel=11 note=65 velocity=0 time=0
EXTRACT: note_on channel=9 note=54 velocity=92 time=0.0069444375
EXTRACT: note_on channel=11 note=53 velocity=92 time=0
EXTRACT: note_on channel=11 note=57 velocity=92 time=0
EXTRACT: note_on channel=11 note=60 velocity=92 time=0
EXTRACT: note_on channel=11 note=65 velocity=92 time=0
EXTRACT: note_on channel=9 note=54 velocity=0 time=0.0347221875
EXTRACT: note_on channel=0 note=74 velocity=127 time=0.0069444375
EXTRACT: note_on channel=9 note=82 velocity=92 time=0
EXTRACT: note_on channel=9 note=82 velocity=0 time=0.1180554375
EXTRACT: note_on channel=11 note=53 velocity=0 time=0
EXTRACT: note_on channel=11 note=57 velocity=0 time=0
EXTRACT: note_on channel=11 note=60 velocity=0 time=0
EXTRACT: note_on channel=11 note=65 velocity=0 time=0
EXTRACT: note_on channel=15 note=41 velocity=0 time=0
EXTRACT: note_on channel=9 note=54 velocity=92 time=0.0069444375
EXTRACT: note_on channel=9 note=82 velocity=92 time=0
EXTRACT: note_on channel=9 note=40 velocity=92 time=0
EXTRACT: note_on channel=9 note=42 velocity=92 time=0
EXTRACT: note_on channel=11 note=53 velocity=92 time=0
EXTRACT: note_on channel=11 note=57 velocity=92 time=0
EXTRACT: note_on channel=11 note=60 velocity=92 time=0
EXTRACT: note_on channel=11 note=65 velocity=92 time=0
EXTRACT: note_on channel=15 note=36 velocity=92 time=0
EXTRACT: note_on channel=0 note=74 velocity=0 time=0.0347221875
EXTRACT: note_on channel=0 note=77 velocity=127 time=0.0069444375
EXTRACT: note_on channel=9 note=40 velocity=0 time=0.0347221875
EXTRACT: note_on channel=9 note=42 velocity=0 time=0
EXTRACT: note_on channel=0 note=77 velocity=0 time=0.08333325
EXTRACT: note_on channel=9 note=54 velocity=0 time=0
EXTRACT: note_on channel=9 note=82 velocity=0 time=0
EXTRACT: note_on channel=9 note=54 velocity=92 time=0.0069444375
EXTRACT: note_on channel=9 note=54 velocity=0 time=0.0347221875
EXTRACT: note_on channel=9 note=82 velocity=92 time=0.0069444375
EXTRACT: note_on channel=9 note=82 velocity=0 time=0.1180554375
EXTRACT: note_on channel=11 note=53 velocity=0 time=0
EXTRACT: note_on channel=11 note=57 velocity=0 time=0
EXTRACT: note_on channel=11 note=60 velocity=0 time=0
EXTRACT: note_on channel=11 note=65 velocity=0 time=0
EXTRACT: note_on channel=9 note=54 velocity=92 time=0.0069444375
EXTRACT: note_on channel=9 note=82 velocity=92 time=0
EXTRACT: note_on channel=9 note=46 velocity=92 time=0
EXTRACT: note_on channel=11 note=53 velocity=92 time=0
EXTRACT: note_on channel=11 note=57 velocity=92 time=0
EXTRACT: note_on channel=11 note=60 velocity=92 time=0
EXTRACT: note_on channel=11 note=65 velocity=92 time=0
EXTRACT: note_on channel=0 note=77 velocity=127 time=0.041666625
EXTRACT: note_on channel=9 note=46 velocity=0 time=0.0347221875
EXTRACT: note_on channel=0 note=77 velocity=0 time=0.08333325
EXTRACT: note_on channel=9 note=54 velocity=0 time=0
EXTRACT: note_on channel=9 note=82 velocity=0 time=0
EXTRACT: note_on channel=9 note=54 velocity=92 time=0.0069444375
EXTRACT: note_on channel=10 note=69 velocity=0 time=0
EXTRACT: note_on channel=10 note=72 velocity=0 time=0
EXTRACT: note_on channel=10 note=53 velocity=0 time=0
EXTRACT: note_on channel=10 note=57 velocity=0 time=0
EXTRACT: note_on channel=10 note=60 velocity=0 time=0
EXTRACT: note_on channel=13 note=65 velocity=0 time=0
EXTRACT: note_on channel=9 note=54 velocity=0 time=0.0347221875
EXTRACT: note_on channel=9 note=82 velocity=92 time=0.0069444375
EXTRACT: note_on channel=15 note=36 velocity=0 time=0.013888875
EXTRACT: note_on channel=9 note=82 velocity=0 time=0.1041665625
EXTRACT: note_on channel=11 note=53 velocity=0 time=0
EXTRACT: note_on channel=11 note=57 velocity=0 time=0
EXTRACT: note_on channel=11 note=60 velocity=0 time=0
EXTRACT: note_on channel=11 note=65 velocity=0 time=0
EXTRACT: note_on channel=5 note=55 velocity=92 time=0.0069444375
EXTRACT: note_on channel=5 note=58 velocity=92 time=0
EXTRACT: note_on channel=5 note=62 velocity=92 time=0
EXTRACT: note_on channel=5 note=39 velocity=92 time=0
EXTRACT: note_on channel=6 note=62 velocity=92 time=0
EXTRACT: note_on channel=6 note=65 velocity=92 time=0
EXTRACT: note_on channel=9 note=54 velocity=92 time=0
EXTRACT: note_on channel=9 note=82 velocity=92 time=0
EXTRACT: note_on channel=9 note=35 velocity=92 time=0
EXTRACT: note_on channel=9 note=42 velocity=92 time=0
EXTRACT: note_on channel=10 note=70 velocity=92 time=0
EXTRACT: note_on channel=10 note=55 velocity=92 time=0
EXTRACT: note_on channel=10 note=58 velocity=92 time=0
EXTRACT: note_on channel=10 note=62 velocity=92 time=0
EXTRACT: note_on channel=11 note=51 velocity=92 time=0
EXTRACT: note_on channel=11 note=55 velocity=92 time=0
EXTRACT: note_on channel=11 note=58 velocity=92 time=0
EXTRACT: note_on channel=11 note=62 velocity=92 time=0
EXTRACT: note_on channel=11 note=65 velocity=92 time=0
EXTRACT: note_on channel=13 note=70 velocity=92 time=0
EXTRACT: note_on channel=15 note=27 velocity=92 time=0
EXTRACT: note_on channel=0 note=77 velocity=127 time=0.041666625
EXTRACT: note_on channel=9 note=35 velocity=0 time=0.0347221875
EXTRACT: note_on channel=9 note=42 velocity=0 time=0
EXTRACT: note_on channel=9 note=54 velocity=0 time=0.08333325
EXTRACT: note_on channel=9 note=82 velocity=0 time=0
EXTRACT: note_on channel=10 note=70 velocity=0 time=0
EXTRACT: note_on channel=11 note=51 velocity=0 time=0
EXTRACT: note_on channel=11 note=55 velocity=0 time=0
EXTRACT: note_on channel=11 note=58 velocity=0 time=0
EXTRACT: note_on channel=11 note=62 velocity=0 time=0
EXTRACT: note_on channel=11 note=65 velocity=0 time=0
EXTRACT: note_on channel=9 note=54 velocity=92 time=0.0069444375
EXTRACT: note_on channel=10 note=74 velocity=92 time=0
EXTRACT: note_on channel=6 note=62 velocity=0 time=0.0347221875
EXTRACT: note_on channel=6 note=65 velocity=0 time=0
EXTRACT: note_on channel=9 note=54 velocity=0 time=0
EXTRACT: note_on channel=6 note=62 velocity=92 time=0.0069444375
EXTRACT: note_on channel=6 note=65 velocity=92 time=0
EXTRACT: note_on channel=9 note=82 velocity=92 time=0
EXTRACT: note_on channel=6 note=62 velocity=0 time=0.0763888125
EXTRACT: note_on channel=6 note=65 velocity=0 time=0
EXTRACT: note_on channel=9 note=82 velocity=0 time=0.041666625
EXTRACT: note_on channel=9 note=54 velocity=92 time=0.0069444375
EXTRACT: note_on channel=9 note=82 velocity=92 time=0
EXTRACT: note_on channel=9 note=42 velocity=92 time=0
EXTRACT: note_on channel=11 note=51 velocity=92 time=0
EXTRACT: note_on channel=11 note=55 velocity=92 time=0
EXTRACT: note_on channel=11 note=58 velocity=92 time=0
EXTRACT: note_on channel=11 note=62 velocity=92 time=0
EXTRACT: note_on channel=11 note=65 velocity=92 time=0
EXTRACT: note_on channel=9 note=42 velocity=0 time=0.0763888125
EXTRACT: note_on channel=11 note=51 velocity=0 time=0.041666625
EXTRACT: note_on channel=11 note=55 velocity=0 time=0
EXTRACT: note_on channel=11 note=58 velocity=0 time=0
EXTRACT: note_on channel=11 note=62 velocity=0 time=0
EXTRACT: note_on channel=11 note=65 velocity=0 time=0
EXTRACT: note_on channel=6 note=62 velocity=92 time=0.0069444375
EXTRACT: note_on channel=6 note=65 velocity=92 time=0
EXTRACT: note_on channel=9 note=54 velocity=0 time=0.0347221875
EXTRACT: note_on channel=9 note=82 velocity=0 time=0
EXTRACT: note_on channel=9 note=54 velocity=92 time=0.0069444375
EXTRACT: note_on channel=9 note=54 velocity=0 time=0.0347221875
EXTRACT: note_on channel=9 note=82 velocity=92 time=0.0069444375
EXTRACT: note_on channel=6 note=62 velocity=0 time=0.1180554375
EXTRACT: note_on channel=6 note=65 velocity=0 time=0
EXTRACT: note_on channel=9 note=82 velocity=0 time=0
EXTRACT: note_on channel=6 note=62 velocity=92 time=0.0069444375
EXTRACT: note_on channel=6 note=65 velocity=92 time=0
EXTRACT: note_on channel=9 note=54 velocity=92 time=0
EXTRACT: note_on channel=9 note=82 velocity=92 time=0
EXTRACT: note_on channel=9 note=40 velocity=92 time=0
EXTRACT: note_on channel=9 note=42 velocity=92 time=0
EXTRACT: note_on channel=11 note=51 velocity=92 time=0
EXTRACT: note_on channel=11 note=55 velocity=92 time=0
EXTRACT: note_on channel=11 note=58 velocity=92 time=0
EXTRACT: note_on channel=11 note=62 velocity=92 time=0
EXTRACT: note_on channel=11 note=65 velocity=92 time=0
EXTRACT: note_on channel=6 note=62 velocity=0 time=0.0347221875
EXTRACT: note_on channel=6 note=65 velocity=0 time=0
EXTRACT: note_on channel=9 note=40 velocity=0 time=0.041666625
EXTRACT: note_on channel=9 note=42 velocity=0 time=0
EXTRACT: note_on channel=9 note=54 velocity=0 time=0.08333325
EXTRACT: note_on channel=9 note=82 velocity=0 time=0
EXTRACT: note_on channel=9 note=54 velocity=92 time=0.0069444375
EXTRACT: note_on channel=9 note=54 velocity=0 time=0.0347221875
EXTRACT: note_on channel=6 note=62 velocity=92 time=0.0069444375
EXTRACT: note_on channel=6 note=65 velocity=92 time=0
EXTRACT: note_on channel=9 note=82 velocity=92 time=0
EXTRACT: note_on channel=15 note=27 velocity=0 time=0.013888875
EXTRACT: note_on channel=6 note=62 velocity=0 time=0.0624999375
EXTRACT: note_on channel=6 note=65 velocity=0 time=0
EXTRACT: note_on channel=11 note=51 velocity=0 time=0
EXTRACT: note_on channel=11 note=55 velocity=0 time=0
EXTRACT: note_on channel=11 note=58 velocity=0 time=0
EXTRACT: note_on channel=11 note=62 velocity=0 time=0
EXTRACT: note_on channel=11 note=65 velocity=0 time=0
EXTRACT: note_on channel=9 note=82 velocity=0 time=0.041666625
EXTRACT: note_on channel=9 note=54 velocity=92 time=0.0069444375
EXTRACT: note_on channel=9 note=82 velocity=92 time=0
EXTRACT: note_on channel=9 note=42 velocity=92 time=0
EXTRACT: note_on channel=15 note=22 velocity=92 time=0
EXTRACT: note_on channel=9 note=42 velocity=0 time=0.0763888125
EXTRACT: note_on channel=6 note=62 velocity=92 time=0.0486110625
EXTRACT: note_on channel=6 note=65 velocity=92 time=0
EXTRACT: note_on channel=6 note=62 velocity=0 time=0.0347221875
EXTRACT: note_on channel=6 note=65 velocity=0 time=0
EXTRACT: note_on channel=9 note=54 velocity=0 time=0
EXTRACT: note_on channel=9 note=82 velocity=0 time=0
EXTRACT: note_on channel=15 note=22 velocity=0 time=0
EXTRACT: note_on channel=5 note=55 velocity=0 time=0.0069444375
EXTRACT: note_on channel=5 note=58 velocity=0 time=0
EXTRACT: note_on channel=5 note=62 velocity=0 time=0
EXTRACT: note_on channel=9 note=54 velocity=92 time=0
EXTRACT: note_on channel=11 note=51 velocity=92 time=0
EXTRACT: note_on channel=11 note=55 velocity=92 time=0
EXTRACT: note_on channel=11 note=58 velocity=92 time=0
EXTRACT: note_on channel=11 note=62 velocity=92 time=0
EXTRACT: note_on channel=11 note=65 velocity=92 time=0
EXTRACT: note_on channel=15 note=24 velocity=92 time=0
EXTRACT: note_on channel=9 note=54 velocity=0 time=0.0347221875
EXTRACT: note_on channel=9 note=82 velocity=92 time=0.0069444375
EXTRACT: note_on channel=9 note=82 velocity=0 time=0.1180554375
EXTRACT: note_on channel=11 note=51 velocity=0 time=0
EXTRACT: note_on channel=11 note=55 velocity=0 time=0
EXTRACT: note_on channel=11 note=58 velocity=0 time=0
EXTRACT: note_on channel=11 note=62 velocity=0 time=0
EXTRACT: note_on channel=11 note=65 velocity=0 time=0
EXTRACT: note_on channel=15 note=24 velocity=0 time=0
EXTRACT: note_on channel=5 note=65 velocity=92 time=0.0069444375
EXTRACT: note_on channel=6 note=62 velocity=92 time=0
EXTRACT: note_on channel=6 note=65 velocity=92 time=0
EXTRACT: note_on channel=9 note=54 velocity=92 time=0
EXTRACT: note_on channel=9 note=35 velocity=92 time=0
EXTRACT: note_on channel=9 note=42 velocity=92 time=0
EXTRACT: note_on channel=11 note=51 velocity=92 time=0
EXTRACT: note_on channel=11 note=55 velocity=92 time=0
EXTRACT: note_on channel=11 note=58 velocity=92 time=0
EXTRACT: note_on channel=11 note=62 velocity=92 time=0
EXTRACT: note_on channel=11 note=65 velocity=92 time=0
EXTRACT: note_on channel=15 note=27 velocity=92 time=0
EXTRACT: note_on channel=9 note=35 velocity=0 time=0.0763888125
EXTRACT: note_on channel=9 note=42 velocity=0 time=0
EXTRACT: note_on channel=15 note=27 velocity=0 time=0.041666625
EXTRACT: note_on channel=9 note=54 velocity=0 time=0.041666625
EXTRACT: note_on channel=11 note=51 velocity=0 time=0
EXTRACT: note_on channel=11 note=55 velocity=0 time=0
EXTRACT: note_on channel=11 note=58 velocity=0 time=0
EXTRACT: note_on channel=11 note=62 velocity=0 time=0
EXTRACT: note_on channel=11 note=65 velocity=0 time=0
EXTRACT: note_on channel=9 note=54 velocity=92 time=0.0069444375
EXTRACT: note_on channel=11 note=51 velocity=92 time=0
EXTRACT: note_on channel=11 note=55 velocity=92 time=0
EXTRACT: note_on channel=11 note=58 velocity=92 time=0
EXTRACT: note_on channel=11 note=62 velocity=92 time=0
EXTRACT: note_on channel=11 note=65 velocity=92 time=0
EXTRACT: note_on channel=6 note=62 velocity=0 time=0.0347221875
EXTRACT: note_on channel=6 note=65 velocity=0 time=0
EXTRACT: note_on channel=9 note=54 velocity=0 time=0
EXTRACT: note_on channel=6 note=62 velocity=92 time=0.0069444375
EXTRACT: note_on channel=6 note=65 velocity=92 time=0
EXTRACT: note_on channel=9 note=82 velocity=92 time=0
EXTRACT: note_on channel=6 note=62 velocity=0 time=0.0763888125
EXTRACT: note_on channel=6 note=65 velocity=0 time=0
EXTRACT: note_on channel=9 note=82 velocity=0 time=0.041666625
EXTRACT: note_on channel=11 note=51 velocity=0 time=0
EXTRACT: note_on channel=11 note=55 velocity=0 time=0
EXTRACT: note_on channel=11 note=58 velocity=0 time=0
EXTRACT: note_on channel=11 note=62 velocity=0 time=0
EXTRACT: note_on channel=11 note=65 velocity=0 time=0
EXTRACT: note_on channel=9 note=54 velocity=92 time=0.0069444375
EXTRACT: note_on channel=9 note=35 velocity=92 time=0
EXTRACT: note_on channel=9 note=42 velocity=92 time=0
EXTRACT: note_on channel=11 note=51 velocity=92 time=0
EXTRACT: note_on channel=11 note=55 velocity=92 time=0
EXTRACT: note_on channel=11 note=58 velocity=92 time=0
EXTRACT: note_on channel=11 note=62 velocity=92 time=0
EXTRACT: note_on channel=11 note=65 velocity=92 time=0
EXTRACT: note_on channel=15 note=27 velocity=92 time=0
EXTRACT: note_on channel=9 note=35 velocity=0 time=0.0763888125
EXTRACT: note_on channel=9 note=42 velocity=0 time=0
EXTRACT: note_on channel=6 note=62 velocity=92 time=0.0486110625
EXTRACT: note_on channel=6 note=65 velocity=92 time=0
EXTRACT: note_on channel=6 note=62 velocity=0 time=0.0347221875
EXTRACT: note_on channel=6 note=65 velocity=0 time=0
EXTRACT: note_on channel=9 note=54 velocity=0 time=0
EXTRACT: note_on channel=11 note=51 velocity=0 time=0
EXTRACT: note_on channel=11 note=55 velocity=0 time=0
EXTRACT: note_on channel=11 note=58 velocity=0 time=0
EXTRACT: note_on channel=11 note=62 velocity=0 time=0
EXTRACT: note_on channel=11 note=65 velocity=0 time=0
EXTRACT: note_on channel=9 note=54 velocity=92 time=0.0069444375
EXTRACT: note_on channel=11 note=51 velocity=92 time=0
EXTRACT: note_on channel=11 note=55 velocity=92 time=0
EXTRACT: note_on channel=11 note=58 velocity=92 time=0
EXTRACT: note_on channel=11 note=62 velocity=92 time=0
EXTRACT: note_on channel=11 note=65 velocity=92 time=0
EXTRACT: note_on channel=9 note=54 velocity=0 time=0.0347221875
EXTRACT: note_on channel=9 note=82 velocity=92 time=0.0069444375
EXTRACT: note_on channel=5 note=65 velocity=0 time=0.013888875
EXTRACT: note_on channel=9 note=82 velocity=0 time=0.1041665625
EXTRACT: note_on channel=11 note=51 velocity=0 time=0
EXTRACT: note_on channel=11 note=55 velocity=0 time=0
EXTRACT: note_on channel=11 note=58 velocity=0 time=0
EXTRACT: note_on channel=11 note=62 velocity=0 time=0
EXTRACT: note_on channel=11 note=65 velocity=0 time=0
EXTRACT: note_on channel=5 note=62 velocity=92 time=0.0069444375
EXTRACT: note_on channel=6 note=62 velocity=92 time=0
EXTRACT: note_on channel=6 note=65 velocity=92 time=0
EXTRACT: note_on channel=9 note=54 velocity=92 time=0
EXTRACT: note_on channel=9 note=82 velocity=92 time=0
EXTRACT: note_on channel=9 note=40 velocity=92 time=0
EXTRACT: note_on channel=9 note=42 velocity=92 time=0
EXTRACT: note_on channel=11 note=51 velocity=92 time=0
EXTRACT: note_on channel=11 note=55 velocity=92 time=0
EXTRACT: note_on channel=11 note=58 velocity=92 time=0
EXTRACT: note_on channel=11 note=62 velocity=92 time=0
EXTRACT: note_on channel=11 note=65 velocity=92 time=0
EXTRACT: note_on channel=5 note=39 velocity=0 time=0.0347221875
EXTRACT: note_on channel=9 note=40 velocity=0 time=0.041666625
EXTRACT: note_on channel=9 note=42 velocity=0 time=0
EXTRACT: note_on channel=9 note=54 velocity=0 time=0.08333325
EXTRACT: note_on channel=9 note=82 velocity=0 time=0
EXTRACT: note_on channel=15 note=27 velocity=0 time=0
EXTRACT: note_on channel=9 note=54 velocity=92 time=0.0069444375
EXTRACT: note_on channel=5 note=62 velocity=0 time=0.0347221875
EXTRACT: note_on channel=6 note=62 velocity=0 time=0
EXTRACT: note_on channel=6 note=65 velocity=0 time=0
EXTRACT: note_on channel=9 note=54 velocity=0 time=0
EXTRACT: note_on channel=6 note=62 velocity=92 time=0.0069444375
EXTRACT: note_on channel=6 note=65 velocity=92 time=0
EXTRACT: note_on channel=9 note=82 velocity=92 time=0
EXTRACT: note_on channel=0 note=77 velocity=0 time=0.0347221875
EXTRACT: note_on channel=0 note=75 velocity=127 time=0.0069444375
EXTRACT: note_on channel=6 note=62 velocity=0 time=0.0347221875
EXTRACT: note_on channel=6 note=65 velocity=0 time=0
EXTRACT: note_on channel=9 note=82 velocity=0 time=0.041666625
EXTRACT: note_on channel=11 note=51 velocity=0 time=0
EXTRACT: note_on channel=11 note=55 velocity=0 time=0
EXTRACT: note_on channel=11 note=58 velocity=0 time=0
EXTRACT: note_on channel=11 note=62 velocity=0 time=0
EXTRACT: note_on channel=11 note=65 velocity=0 time=0
EXTRACT: note_on channel=9 note=54 velocity=92 time=0.0069444375
EXTRACT: note_on channel=9 note=82 velocity=92 time=0
EXTRACT: note_on channel=9 note=46 velocity=92 time=0
EXTRACT: note_on channel=11 note=51 velocity=92 time=0
EXTRACT: note_on channel=11 note=55 velocity=92 time=0
EXTRACT: note_on channel=11 note=58 velocity=92 time=0
EXTRACT: note_on channel=11 note=62 velocity=92 time=0
EXTRACT: note_on channel=11 note=65 velocity=92 time=0
EXTRACT: note_on channel=15 note=31 velocity=92 time=0
EXTRACT: note_on channel=9 note=46 velocity=0 time=0.0763888125
EXTRACT: note_on channel=0 note=75 velocity=0 time=0.041666625
EXTRACT: note_on channel=0 note=74 velocity=127 time=0.0069444375
EXTRACT: note_on channel=6 note=62 velocity=92 time=0
EXTRACT: note_on channel=6 note=65 velocity=92 time=0
EXTRACT: note_on channel=6 note=62 velocity=0 time=0.0347221875
EXTRACT: note_on channel=6 note=65 velocity=0 time=0
EXTRACT: note_on channel=9 note=54 velocity=0 time=0
EXTRACT: note_on channel=9 note=82 velocity=0 time=0
EXTRACT: note_on channel=9 note=54 velocity=92 time=0.0069444375
EXTRACT: note_on channel=10 note=74 velocity=0 time=0
EXTRACT: note_on channel=10 note=55 velocity=0 time=0
EXTRACT: note_on channel=10 note=58 velocity=0 time=0
EXTRACT: note_on channel=10 note=62 velocity=0 time=0
EXTRACT: note_on channel=13 note=70 velocity=0 time=0
EXTRACT: note_on channel=9 note=54 velocity=0 time=0.0347221875
EXTRACT: note_on channel=9 note=82 velocity=92 time=0.0069444375
EXTRACT: note_on channel=9 note=82 velocity=0 time=0.1180554375
EXTRACT: note_on channel=11 note=51 velocity=0 time=0
EXTRACT: note_on channel=11 note=55 velocity=0 time=0
EXTRACT: note_on channel=11 note=58 velocity=0 time=0
EXTRACT: note_on channel=11 note=62 velocity=0 time=0
EXTRACT: note_on channel=11 note=65 velocity=0 time=0
EXTRACT: note_on channel=15 note=31 velocity=0 time=0
EXTRACT: note_on channel=5 note=53 velocity=92 time=0.0069444375
EXTRACT: note_on channel=5 note=57 velocity=92 time=0
EXTRACT: note_on channel=5 note=60 velocity=92 time=0
EXTRACT: note_on channel=5 note=41 velocity=92 time=0
EXTRACT: note_on channel=6 note=65 velocity=92 time=0
EXTRACT: note_on channel=6 note=69 velocity=92 time=0
EXTRACT: note_on channel=9 note=54 velocity=92 time=0
EXTRACT: note_on channel=9 note=82 velocity=92 time=0
EXTRACT: note_on channel=9 note=35 velocity=92 time=0
EXTRACT: note_on channel=9 note=42 velocity=92 time=0
EXTRACT: note_on channel=10 note=69 velocity=92 time=0
EXTRACT: note_on channel=10 note=72 velocity=92 time=0
EXTRACT: note_on channel=10 note=53 velocity=92 time=0
EXTRACT: note_on channel=10 note=57 velocity=92 time=0
EXTRACT: note_on channel=10 note=60 velocity=92 time=0
EXTRACT: note_on channel=11 note=53 velocity=92 time=0
EXTRACT: note_on channel=11 note=57 velocity=92 time=0
EXTRACT: note_on channel=11 note=60 velocity=92 time=0
EXTRACT: note_on channel=11 note=65 velocity=92 time=0
EXTRACT: note_on channel=15 note=29 velocity=92 time=0
EXTRACT: note_on channel=0 note=74 velocity=0 time=0.0347221875
EXTRACT: note_on channel=6 note=65 velocity=0 time=0
EXTRACT: note_on channel=6 note=69 velocity=0 time=0
EXTRACT: note_on channel=0 note=72 velocity=127 time=0.0069444375
EXTRACT: note_on channel=13 note=65 velocity=92 time=0
EXTRACT: note_on channel=9 note=35 velocity=0 time=0.0347221875
EXTRACT: note_on channel=9 note=42 velocity=0 time=0
EXTRACT: note_on channel=9 note=54 velocity=0 time=0.08333325
EXTRACT: note_on channel=9 note=82 velocity=0 time=0
EXTRACT: note_on channel=11 note=53 velocity=0 time=0
EXTRACT: note_on channel=11 note=57 velocity=0 time=0
EXTRACT: note_on channel=11 note=60 velocity=0 time=0
EXTRACT: note_on channel=11 note=65 velocity=0 time=0
EXTRACT: note_on channel=9 note=54 velocity=92 time=0.0069444375
EXTRACT: note_on channel=9 note=54 velocity=0 time=0.0347221875
EXTRACT: note_on channel=6 note=65 velocity=92 time=0.0069444375
EXTRACT: note_on channel=6 note=69 velocity=92 time=0
EXTRACT: note_on channel=9 note=82 velocity=92 time=0
EXTRACT: note_on channel=6 note=65 velocity=0 time=0.0347221875
EXTRACT: note_on channel=6 note=69 velocity=0 time=0
EXTRACT: note_on channel=9 note=82 velocity=0 time=0.08333325
EXTRACT: note_on channel=9 note=54 velocity=92 time=0.0069444375
EXTRACT: note_on channel=9 note=82 velocity=92 time=0
EXTRACT: note_on channel=9 note=42 velocity=92 time=0
EXTRACT: note_on channel=11 note=53 velocity=92 time=0
EXTRACT: note_on channel=11 note=57 velocity=92 time=0
EXTRACT: note_on channel=11 note=60 velocity=92 time=0
EXTRACT: note_on channel=11 note=65 velocity=92 time=0
EXTRACT: note_on channel=9 note=42 velocity=0 time=0.0763888125
EXTRACT: note_on channel=11 note=53 velocity=0 time=0.041666625
EXTRACT: note_on channel=11 note=57 velocity=0 time=0
EXTRACT: note_on channel=11 note=60 velocity=0 time=0
EXTRACT: note_on channel=11 note=65 velocity=0 time=0
EXTRACT: note_on channel=6 note=65 velocity=92 time=0.0069444375
EXTRACT: note_on channel=6 note=69 velocity=92 time=0
EXTRACT: note_on channel=6 note=65 velocity=0 time=0.0347221875
EXTRACT: note_on channel=6 note=69 velocity=0 time=0
EXTRACT: note_on channel=9 note=54 velocity=0 time=0
EXTRACT: note_on channel=9 note=82 velocity=0 time=0
EXTRACT: note_on channel=9 note=54 velocity=92 time=0.0069444375
EXTRACT: note_on channel=9 note=54 velocity=0 time=0.0347221875
EXTRACT: note_on channel=9 note=82 velocity=92 time=0.0069444375
EXTRACT: note_on channel=9 note=82 velocity=0 time=0.1180554375
EXTRACT: note_on channel=6 note=65 velocity=92 time=0.0069444375
EXTRACT: note_on channel=6 note=69 velocity=92 time=0
EXTRACT: note_on channel=9 note=54 velocity=92 time=0
EXTRACT: note_on channel=9 note=82 velocity=92 time=0
EXTRACT: note_on channel=9 note=40 velocity=92 time=0
EXTRACT: note_on channel=9 note=42 velocity=92 time=0
EXTRACT: note_on channel=11 note=53 velocity=92 time=0
EXTRACT: note_on channel=11 note=57 velocity=92 time=0
EXTRACT: note_on channel=11 note=60 velocity=92 time=0
EXTRACT: note_on channel=11 note=65 velocity=92 time=0
EXTRACT: note_on channel=9 note=40 velocity=0 time=0.0763888125
EXTRACT: note_on channel=9 note=42 velocity=0 time=0
EXTRACT: note_on channel=9 note=54 velocity=0 time=0.08333325
EXTRACT: note_on channel=9 note=82 velocity=0 time=0
EXTRACT: note_on channel=9 note=54 velocity=92 time=0.0069444375
EXTRACT: note_on channel=6 note=65 velocity=0 time=0.0347221875
EXTRACT: note_on channel=6 note=69 velocity=0 time=0
EXTRACT: note_on channel=9 note=54 velocity=0 time=0
EXTRACT: note_on channel=6 note=65 velocity=92 time=0.0069444375
EXTRACT: note_on channel=6 note=69 velocity=92 time=0
EXTRACT: note_on channel=9 note=82 velocity=92 time=0
EXTRACT: note_on channel=15 note=29 velocity=0 time=0.013888875
EXTRACT: note_on channel=6 note=65 velocity=0 time=0.0624999375
EXTRACT: note_on channel=6 note=69 velocity=0 time=0
EXTRACT: note_on channel=9 note=82 velocity=0 time=0.041666625
EXTRACT: note_on channel=11 note=53 velocity=0 time=0
EXTRACT: note_on channel=11 note=57 velocity=0 time=0
EXTRACT: note_on channel=11 note=60 velocity=0 time=0
EXTRACT: note_on channel=11 note=65 velocity=0 time=0
EXTRACT: note_on channel=9 note=54 velocity=92 time=0.0069444375
EXTRACT: note_on channel=9 note=82 velocity=92 time=0
EXTRACT: note_on channel=9 note=42 velocity=92 time=0
EXTRACT: note_on channel=9 note=42 velocity=0 time=0.0763888125
EXTRACT: note_on channel=6 note=65 velocity=92 time=0.0486110625
EXTRACT: note_on channel=6 note=69 velocity=92 time=0
EXTRACT: note_on channel=0 note=72 velocity=0 time=0.0347221875
EXTRACT: note_on channel=6 note=65 velocity=0 time=0
EXTRACT: note_on channel=6 note=69 velocity=0 time=0
EXTRACT: note_on channel=9 note=54 velocity=0 time=0
EXTRACT: note_on channel=9 note=82 velocity=0 time=0
EXTRACT: note_on channel=9 note=54 velocity=92 time=0.0069444375
EXTRACT: note_on channel=11 note=53 velocity=92 time=0
EXTRACT: note_on channel=11 note=57 velocity=92 time=0
EXTRACT: note_on channel=11 note=60 velocity=92 time=0
EXTRACT: note_on channel=11 note=65 velocity=92 time=0
EXTRACT: note_on channel=15 note=29 velocity=92 time=0
EXTRACT: note_on channel=9 note=54 velocity=0 time=0.0347221875
EXTRACT: note_on channel=9 note=82 velocity=92 time=0.0069444375
EXTRACT: note_on channel=9 note=82 velocity=0 time=0.1180554375
EXTRACT: note_on channel=11 note=53 velocity=0 time=0
EXTRACT: note_on channel=11 note=57 velocity=0 time=0
EXTRACT: note_on channel=11 note=60 velocity=0 time=0
EXTRACT: note_on channel=11 note=65 velocity=0 time=0
EXTRACT: note_on channel=15 note=29 velocity=0 time=0
EXTRACT: note_on channel=6 note=65 velocity=92 time=0.0069444375
EXTRACT: note_on channel=6 note=69 velocity=92 time=0
EXTRACT: note_on channel=9 note=54 velocity=92 time=0
EXTRACT: note_on channel=9 note=35 velocity=92 time=0
EXTRACT: note_on channel=9 note=42 velocity=92 time=0
EXTRACT: note_on channel=11 note=53 velocity=92 time=0
EXTRACT: note_on channel=11 note=57 velocity=92 time=0
EXTRACT: note_on channel=11 note=60 velocity=92 time=0
EXTRACT: note_on channel=11 note=65 velocity=92 time=0
EXTRACT: note_on channel=15 note=29 velocity=92 time=0
EXTRACT: note_on channel=6 note=65 velocity=0 time=0.0347221875
EXTRACT: note_on channel=6 note=69 velocity=0 time=0
EXTRACT: note_on channel=9 note=35 velocity=0 time=0.041666625
EXTRACT: note_on channel=9 note=42 velocity=0 time=0
EXTRACT: note_on channel=15 note=29 velocity=0 time=0.041666625
EXTRACT: note_on channel=9 note=54 velocity=0 time=0.041666625
EXTRACT: note_on channel=11 note=53 velocity=0 time=0
EXTRACT: note_on channel=11 note=57 velocity=0 time=0
EXTRACT: note_on channel=11 note=60 velocity=0 time=0
EXTRACT: note_on channel=11 note=65 velocity=0 time=0
EXTRACT: note_on channel=9 note=54 velocity=92 time=0.0069444375
EXTRACT: note_on channel=11 note=53 velocity=92 time=0
EXTRACT: note_on channel=11 note=57 velocity=92 time=0
EXTRACT: note_on channel=11 note=60 velocity=92 time=0
EXTRACT: note_on channel=11 note=65 velocity=92 time=0
EXTRACT: note_on channel=9 note=54 velocity=0 time=0.0347221875
EXTRACT: note_on channel=6 note=65 velocity=92 time=0.0069444375
EXTRACT: note_on channel=6 note=69 velocity=92 time=0
EXTRACT: note_on channel=9 note=82 velocity=92 time=0
EXTRACT: note_on channel=6 note=65 velocity=0 time=0.0763888125
EXTRACT: note_on channel=6 note=69 velocity=0 time=0
EXTRACT: note_on channel=9 note=82 velocity=0 time=0.041666625
EXTRACT: note_on channel=11 note=53 velocity=0 time=0
EXTRACT: note_on channel=11 note=57 velocity=0 time=0
EXTRACT: note_on channel=11 note=60 velocity=0 time=0
EXTRACT: note_on channel=11 note=65 velocity=0 time=0
EXTRACT: note_on channel=9 note=54 velocity=92 time=0.0069444375
EXTRACT: note_on channel=9 note=35 velocity=92 time=0
EXTRACT: note_on channel=9 note=42 velocity=92 time=0
EXTRACT: note_on channel=11 note=53 velocity=92 time=0
EXTRACT: note_on channel=11 note=57 velocity=92 time=0
EXTRACT: note_on channel=11 note=60 velocity=92 time=0
EXTRACT: note_on channel=11 note=65 velocity=92 time=0
EXTRACT: note_on channel=15 note=29 velocity=92 time=0
EXTRACT: note_on channel=9 note=35 velocity=0 time=0.0763888125
EXTRACT: note_on channel=9 note=42 velocity=0 time=0
EXTRACT: note_on channel=6 note=65 velocity=92 time=0.0486110625
EXTRACT: note_on channel=6 note=69 velocity=92 time=0
EXTRACT: note_on channel=6 note=65 velocity=0 time=0.0347221875
EXTRACT: note_on channel=6 note=69 velocity=0 time=0
EXTRACT: note_on channel=9 note=54 velocity=0 time=0
EXTRACT: note_on channel=11 note=53 velocity=0 time=0
EXTRACT: note_on channel=11 note=57 velocity=0 time=0
EXTRACT: note_on channel=11 note=60 velocity=0 time=0
EXTRACT: note_on channel=11 note=65 velocity=0 time=0
EXTRACT: note_on channel=9 note=54 velocity=92 time=0.0069444375
EXTRACT: note_on channel=11 note=53 velocity=92 time=0
EXTRACT: note_on channel=11 note=57 velocity=92 time=0
EXTRACT: note_on channel=11 note=60 velocity=92 time=0
EXTRACT: note_on channel=11 note=65 velocity=92 time=0
EXTRACT: note_on channel=9 note=54 velocity=0 time=0.0347221875
EXTRACT: note_on channel=9 note=82 velocity=92 time=0.0069444375
EXTRACT: note_on channel=9 note=82 velocity=0 time=0.1180554375
EXTRACT: note_on channel=11 note=53 velocity=0 time=0
EXTRACT: note_on channel=11 note=57 velocity=0 time=0
EXTRACT: note_on channel=11 note=60 velocity=0 time=0
EXTRACT: note_on channel=11 note=65 velocity=0 time=0
EXTRACT: note_on channel=15 note=29 velocity=0 time=0
EXTRACT: note_on channel=6 note=65 velocity=92 time=0.0069444375
EXTRACT: note_on channel=6 note=69 velocity=92 time=0
EXTRACT: note_on channel=9 note=54 velocity=92 time=0
EXTRACT: note_on channel=9 note=82 velocity=92 time=0
EXTRACT: note_on channel=9 note=40 velocity=92 time=0
EXTRACT: note_on channel=9 note=42 velocity=92 time=0
EXTRACT: note_on channel=11 note=53 velocity=92 time=0
EXTRACT: note_on channel=11 note=57 velocity=92 time=0
EXTRACT: note_on channel=11 note=60 velocity=92 time=0
EXTRACT: note_on channel=11 note=65 velocity=92 time=0
EXTRACT: note_on channel=15 note=36 velocity=92 time=0
EXTRACT: note_on channel=6 note=65 velocity=0 time=0.0347221875
EXTRACT: note_on channel=6 note=69 velocity=0 time=0
EXTRACT: note_on channel=9 note=40 velocity=0 time=0.041666625
EXTRACT: note_on channel=9 note=42 velocity=0 time=0
EXTRACT: note_on channel=9 note=54 velocity=0 time=0.08333325
EXTRACT: note_on channel=9 note=82 velocity=0 time=0
EXTRACT: note_on channel=9 note=54 velocity=92 time=0.0069444375
EXTRACT: note_on channel=9 note=54 velocity=0 time=0.0347221875
EXTRACT: note_on channel=6 note=65 velocity=92 time=0.0069444375
EXTRACT: note_on channel=6 note=69 velocity=92 time=0
EXTRACT: note_on channel=9 note=82 velocity=92 time=0
EXTRACT: note_on channel=6 note=65 velocity=0 time=0.0347221875
EXTRACT: note_on channel=6 note=69 velocity=0 time=0
EXTRACT: note_on channel=9 note=82 velocity=0 time=0.08333325
EXTRACT: note_on channel=11 note=53 velocity=0 time=0
EXTRACT: note_on channel=11 note=57 velocity=0 time=0
EXTRACT: note_on channel=11 note=60 velocity=0 time=0
EXTRACT: note_on channel=11 note=65 velocity=0 time=0
EXTRACT: note_on channel=9 note=54 velocity=92 time=0.0069444375
EXTRACT: note_on channel=9 note=82 velocity=92 time=0
EXTRACT: note_on channel=9 note=46 velocity=92 time=0
EXTRACT: note_on channel=11 note=53 velocity=92 time=0
EXTRACT: note_on channel=11 note=57 velocity=92 time=0
EXTRACT: note_on channel=11 note=60 velocity=92 time=0
EXTRACT: note_on channel=11 note=65 velocity=92 time=0
EXTRACT: note_on channel=9 note=46 velocity=0 time=0.0763888125
EXTRACT: note_on channel=6 note=65 velocity=92 time=0.0486110625
EXTRACT: note_on channel=6 note=69 velocity=92 time=0
EXTRACT: note_on channel=6 note=65 velocity=0 time=0.0347221875
EXTRACT: note_on channel=6 note=69 velocity=0 time=0
EXTRACT: note_on channel=9 note=54 velocity=0 time=0
EXTRACT: note_on channel=9 note=82 velocity=0 time=0
EXTRACT: note_on channel=5 note=53 velocity=0 time=0.0069444375
EXTRACT: note_on channel=5 note=57 velocity=0 time=0
EXTRACT: note_on channel=5 note=60 velocity=0 time=0
EXTRACT: note_on channel=5 note=41 velocity=0 time=0
EXTRACT: note_on channel=9 note=54 velocity=92 time=0
EXTRACT: note_on channel=13 note=65 velocity=0 time=0
EXTRACT: note_on channel=9 note=54 velocity=0 time=0.0347221875
EXTRACT: note_on channel=9 note=82 velocity=92 time=0.0069444375
EXTRACT: note_on channel=15 note=36 velocity=0 time=0.013888875
EXTRACT: note_on channel=9 note=82 velocity=0 time=0.1041665625
EXTRACT: note_on channel=11 note=53 velocity=0 time=0
EXTRACT: note_on channel=11 note=57 velocity=0 time=0
EXTRACT: note_on channel=11 note=60 velocity=0 time=0
EXTRACT: note_on channel=11 note=65 velocity=0 time=0
EXTRACT: note_on channel=5 note=53 velocity=92 time=0.0069444375
EXTRACT: note_on channel=5 note=57 velocity=92 time=0
EXTRACT: note_on channel=5 note=60 velocity=92 time=0
EXTRACT: note_on channel=5 note=41 velocity=92 time=0
EXTRACT: note_on channel=9 note=54 velocity=92 time=0
EXTRACT: note_on channel=9 note=82 velocity=92 time=0
EXTRACT: note_on channel=9 note=35 velocity=92 time=0
EXTRACT: note_on channel=9 note=42 velocity=92 time=0
EXTRACT: note_on channel=11 note=53 velocity=92 time=0
EXTRACT: note_on channel=11 note=57 velocity=92 time=0
EXTRACT: note_on channel=11 note=60 velocity=92 time=0
EXTRACT: note_on channel=11 note=65 velocity=92 time=0
EXTRACT: note_on channel=13 note=65 velocity=92 time=0
EXTRACT: note_on channel=15 note=29 velocity=92 time=0
EXTRACT: note_on channel=9 note=35 velocity=0 time=0.0763888125
EXTRACT: note_on channel=9 note=42 velocity=0 time=0
EXTRACT: note_on channel=9 note=54 velocity=0 time=0.08333325
EXTRACT: note_on channel=9 note=82 velocity=0 time=0
EXTRACT: note_on channel=11 note=53 velocity=0 time=0
EXTRACT: note_on channel=11 note=57 velocity=0 time=0
EXTRACT: note_on channel=11 note=60 velocity=0 time=0
EXTRACT: note_on channel=11 note=65 velocity=0 time=0
EXTRACT: note_on channel=9 note=54 velocity=92 time=0.0069444375
EXTRACT: note_on channel=9 note=54 velocity=0 time=0.0347221875
EXTRACT: note_on channel=9 note=82 velocity=92 time=0.0069444375
EXTRACT: note_on channel=9 note=82 velocity=0 time=0.1180554375
EXTRACT: note_on channel=9 note=54 velocity=92 time=0.0069444375
EXTRACT: note_on channel=9 note=82 velocity=92 time=0
EXTRACT: note_on channel=9 note=42 velocity=92 time=0
EXTRACT: note_on channel=11 note=53 velocity=92 time=0
EXTRACT: note_on channel=11 note=57 velocity=92 time=0
EXTRACT: note_on channel=11 note=60 velocity=92 time=0
EXTRACT: note_on channel=11 note=65 velocity=92 time=0
EXTRACT: note_on channel=9 note=42 velocity=0 time=0.0763888125
EXTRACT: note_on channel=11 note=53 velocity=0 time=0.041666625
EXTRACT: note_on channel=11 note=57 velocity=0 time=0
EXTRACT: note_on channel=11 note=60 velocity=0 time=0
EXTRACT: note_on channel=11 note=65 velocity=0 time=0
EXTRACT: note_on channel=9 note=54 velocity=0 time=0.041666625
EXTRACT: note_on channel=9 note=82 velocity=0 time=0
EXTRACT: note_on channel=9 note=54 velocity=92 time=0.0069444375
EXTRACT: note_on channel=9 note=54 velocity=0 time=0.0347221875
EXTRACT: note_on channel=9 note=82 velocity=92 time=0.0069444375
EXTRACT: note_on channel=9 note=82 velocity=0 time=0.1180554375
EXTRACT: note_on channel=9 note=54 velocity=92 time=0.0069444375
EXTRACT: note_on channel=9 note=82 velocity=92 time=0
EXTRACT: note_on channel=9 note=40 velocity=92 time=0
EXTRACT: note_on channel=9 note=42 velocity=92 time=0
EXTRACT: note_on channel=11 note=53 velocity=92 time=0
EXTRACT: note_on channel=11 note=57 velocity=92 time=0
EXTRACT: note_on channel=11 note=60 velocity=92 time=0
EXTRACT: note_on channel=11 note=65 velocity=92 time=0
EXTRACT: note_on channel=9 note=40 velocity=0 time=0.0763888125
EXTRACT: note_on channel=9 note=42 velocity=0 time=0
EXTRACT: note_on channel=9 note=54 velocity=0 time=0.08333325
EXTRACT: note_on channel=9 note=82 velocity=0 time=0
EXTRACT: note_on channel=9 note=54 velocity=92 time=0.0069444375
EXTRACT: note_on channel=9 note=54 velocity=0 time=0.0347221875
EXTRACT: note_on channel=9 note=82 velocity=92 time=0.0069444375
EXTRACT: note_on channel=9 note=82 velocity=0 time=0.1180554375
EXTRACT: note_on channel=11 note=53 velocity=0 time=0
EXTRACT: note_on channel=11 note=57 velocity=0 time=0
EXTRACT: note_on channel=11 note=60 velocity=0 time=0
EXTRACT: note_on channel=11 note=65 velocity=0 time=0
EXTRACT: note_on channel=9 note=54 velocity=92 time=0.0069444375
EXTRACT: note_on channel=9 note=82 velocity=92 time=0
EXTRACT: note_on channel=9 note=42 velocity=92 time=0
EXTRACT: note_on channel=9 note=42 velocity=0 time=0.0763888125
EXTRACT: note_on channel=9 note=54 velocity=0 time=0.08333325
EXTRACT: note_on channel=9 note=82 velocity=0 time=0
EXTRACT: note_on channel=15 note=29 velocity=0 time=0
EXTRACT: note_on channel=9 note=54 velocity=92 time=0.0069444375
EXTRACT: note_on channel=11 note=53 velocity=92 time=0
EXTRACT: note_on channel=11 note=57 velocity=92 time=0
EXTRACT: note_on channel=11 note=60 velocity=92 time=0
EXTRACT: note_on channel=11 note=65 velocity=92 time=0
EXTRACT: note_on channel=15 note=41 velocity=92 time=0
EXTRACT: note_on channel=9 note=54 velocity=0 time=0.0347221875
EXTRACT: note_on channel=9 note=82 velocity=92 time=0.0069444375
EXTRACT: note_on channel=9 note=82 velocity=0 time=0.1180554375
EXTRACT: note_on channel=11 note=53 velocity=0 time=0
EXTRACT: note_on channel=11 note=57 velocity=0 time=0
EXTRACT: note_on channel=11 note=60 velocity=0 time=0
EXTRACT: note_on channel=11 note=65 velocity=0 time=0
EXTRACT: note_on channel=15 note=41 velocity=0 time=0
EXTRACT: note_on channel=9 note=54 velocity=92 time=0.0069444375
EXTRACT: note_on channel=9 note=35 velocity=92 time=0
EXTRACT: note_on channel=9 note=40 velocity=92 time=0
EXTRACT: note_on channel=9 note=42 velocity=92 time=0
EXTRACT: note_on channel=11 note=53 velocity=92 time=0
EXTRACT: note_on channel=11 note=57 velocity=92 time=0
EXTRACT: note_on channel=11 note=60 velocity=92 time=0
EXTRACT: note_on channel=11 note=65 velocity=92 time=0
EXTRACT: note_on channel=15 note=41 velocity=92 time=0
EXTRACT: note_on channel=15 note=41 velocity=0 time=0.0347221875
EXTRACT: note_on channel=9 note=35 velocity=0 time=0.041666625
EXTRACT: note_on channel=9 note=40 velocity=0 time=0
EXTRACT: note_on channel=9 note=42 velocity=0 time=0
EXTRACT: note_on channel=9 note=54 velocity=0 time=0.08333325
EXTRACT: note_on channel=11 note=53 velocity=0 time=0
EXTRACT: note_on channel=11 note=57 velocity=0 time=0
EXTRACT: note_on channel=11 note=60 velocity=0 time=0
EXTRACT: note_on channel=11 note=65 velocity=0 time=0
EXTRACT: note_on channel=9 note=54 velocity=92 time=0.0069444375
EXTRACT: note_on channel=11 note=53 velocity=92 time=0
EXTRACT: note_on channel=11 note=57 velocity=92 time=0
EXTRACT: note_on channel=11 note=60 velocity=92 time=0
EXTRACT: note_on channel=11 note=65 velocity=92 time=0
EXTRACT: note_on channel=9 note=54 velocity=0 time=0.0347221875
EXTRACT: note_on channel=9 note=82 velocity=92 time=0.0069444375
EXTRACT: note_on channel=9 note=82 velocity=0 time=0.1180554375
EXTRACT: note_on channel=11 note=53 velocity=0 time=0
EXTRACT: note_on channel=11 note=57 velocity=0 time=0
EXTRACT: note_on channel=11 note=60 velocity=0 time=0
EXTRACT: note_on channel=11 note=65 velocity=0 time=0
EXTRACT: note_on channel=9 note=54 velocity=92 time=0.0069444375
EXTRACT: note_on channel=9 note=35 velocity=92 time=0
EXTRACT: note_on channel=9 note=40 velocity=92 time=0
EXTRACT: note_on channel=9 note=42 velocity=92 time=0
EXTRACT: note_on channel=11 note=53 velocity=92 time=0
EXTRACT: note_on channel=11 note=57 velocity=92 time=0
EXTRACT: note_on channel=11 note=60 velocity=92 time=0
EXTRACT: note_on channel=11 note=65 velocity=92 time=0
EXTRACT: note_on channel=15 note=41 velocity=92 time=0
EXTRACT: note_on channel=9 note=54 velocity=0 time=0.1597220625
EXTRACT: note_on channel=9 note=35 velocity=0 time=0
EXTRACT: note_on channel=9 note=40 velocity=0 time=0
EXTRACT: note_on channel=9 note=42 velocity=0 time=0
EXTRACT: note_on channel=11 note=53 velocity=0 time=0
EXTRACT: note_on channel=11 note=57 velocity=0 time=0
EXTRACT: note_on channel=11 note=60 velocity=0 time=0
EXTRACT: note_on channel=11 note=65 velocity=0 time=0
EXTRACT: note_on channel=9 note=54 velocity=92 time=0.0069444375
EXTRACT: note_on channel=9 note=40 velocity=92 time=0
EXTRACT: note_on channel=11 note=53 velocity=92 time=0
EXTRACT: note_on channel=11 note=57 velocity=92 time=0
EXTRACT: note_on channel=11 note=60 velocity=92 time=0
EXTRACT: note_on channel=11 note=65 velocity=92 time=0
EXTRACT: note_on channel=9 note=54 velocity=0 time=0.0347221875
EXTRACT: note_on channel=9 note=82 velocity=92 time=0.0069444375
EXTRACT: note_on channel=9 note=82 velocity=0 time=0.1180554375
EXTRACT: note_on channel=9 note=40 velocity=0 time=0
EXTRACT: note_on channel=11 note=53 velocity=0 time=0
EXTRACT: note_on channel=11 note=57 velocity=0 time=0
EXTRACT: note_on channel=11 note=60 velocity=0 time=0
EXTRACT: note_on channel=11 note=65 velocity=0 time=0
EXTRACT: note_on channel=15 note=41 velocity=0 time=0
EXTRACT: note_on channel=9 note=54 velocity=92 time=0.0069444375
EXTRACT: note_on channel=9 note=82 velocity=92 time=0
EXTRACT: note_on channel=9 note=40 velocity=92 time=0
EXTRACT: note_on channel=9 note=42 velocity=92 time=0
EXTRACT: note_on channel=11 note=53 velocity=92 time=0
EXTRACT: note_on channel=11 note=57 velocity=92 time=0
EXTRACT: note_on channel=11 note=60 velocity=92 time=0
EXTRACT: note_on channel=11 note=65 velocity=92 time=0
EXTRACT: note_on channel=15 note=38 velocity=92 time=0
EXTRACT: note_on channel=9 note=40 velocity=0 time=0.0763888125
EXTRACT: note_on channel=9 note=42 velocity=0 time=0
EXTRACT: note_on channel=9 note=54 velocity=0 time=0.08333325
EXTRACT: note_on channel=9 note=82 velocity=0 time=0
EXTRACT: note_on channel=15 note=38 velocity=0 time=0
EXTRACT: note_on channel=9 note=54 velocity=92 time=0.0069444375
EXTRACT: note_on channel=15 note=36 velocity=92 time=0
EXTRACT: note_on channel=9 note=54 velocity=0 time=0.0347221875
EXTRACT: note_on channel=9 note=82 velocity=92 time=0.0069444375
EXTRACT: note_on channel=9 note=82 velocity=0 time=0.1180554375
EXTRACT: note_on channel=11 note=53 velocity=0 time=0
EXTRACT: note_on channel=11 note=57 velocity=0 time=0
EXTRACT: note_on channel=11 note=60 velocity=0 time=0
EXTRACT: note_on channel=11 note=65 velocity=0 time=0
EXTRACT: note_on channel=15 note=36 velocity=0 time=0
EXTRACT: note_on channel=9 note=54 velocity=92 time=0.0069444375
EXTRACT: note_on channel=9 note=82 velocity=92 time=0
EXTRACT: note_on channel=9 note=40 velocity=92 time=0
EXTRACT: note_on channel=9 note=42 velocity=92 time=0
EXTRACT: note_on channel=11 note=53 velocity=92 time=0
EXTRACT: note_on channel=11 note=57 velocity=92 time=0
EXTRACT: note_on channel=11 note=60 velocity=92 time=0
EXTRACT: note_on channel=11 note=65 velocity=92 time=0
EXTRACT: note_on channel=15 note=31 velocity=92 time=0
EXTRACT: note_on channel=9 note=54 velocity=0 time=0.1597220625
EXTRACT: note_on channel=9 note=82 velocity=0 time=0
EXTRACT: note_on channel=9 note=40 velocity=0 time=0
EXTRACT: note_on channel=9 note=42 velocity=0 time=0
EXTRACT: note_on channel=15 note=31 velocity=0 time=0
EXTRACT: note_on channel=5 note=53 velocity=0 time=0.0069444375
EXTRACT: note_on channel=5 note=57 velocity=0 time=0
EXTRACT: note_on channel=5 note=60 velocity=0 time=0
EXTRACT: note_on channel=5 note=41 velocity=0 time=0
EXTRACT: note_on channel=9 note=54 velocity=92 time=0
EXTRACT: note_on channel=9 note=40 velocity=92 time=0
EXTRACT: note_on channel=10 note=69 velocity=0 time=0
EXTRACT: note_on channel=10 note=72 velocity=0 time=0
EXTRACT: note_on channel=10 note=53 velocity=0 time=0
EXTRACT: note_on channel=10 note=57 velocity=0 time=0
EXTRACT: note_on channel=10 note=60 velocity=0 time=0
EXTRACT: note_on channel=13 note=65 velocity=0 time=0
EXTRACT: note_on channel=15 note=29 velocity=92 time=0
EXTRACT: note_on channel=9 note=54 velocity=0 time=0.0347221875
EXTRACT: note_on channel=9 note=82 velocity=92 time=0.0069444375
EXTRACT: note_on channel=9 note=82 velocity=0 time=0.1180554375
EXTRACT: note_on channel=9 note=40 velocity=0 time=0
EXTRACT: note_on channel=11 note=53 velocity=0 time=0
EXTRACT: note_on channel=11 note=57 velocity=0 time=0
EXTRACT: note_on channel=11 note=60 velocity=0 time=0
EXTRACT: note_on channel=11 note=65 velocity=0 time=0
EXTRACT: note_on channel=15 note=29 velocity=0 time=0
EXTRACT: note_on channel=3 note=58 velocity=92 time=0.0069444375
EXTRACT: note_on channel=3 note=62 velocity=92 time=0
EXTRACT: note_on channel=3 note=65 velocity=92 time=0
EXTRACT: note_on channel=5 note=53 velocity=92 time=0
EXTRACT: note_on channel=5 note=58 velocity=92 time=0
EXTRACT: note_on channel=5 note=62 velocity=92 time=0
EXTRACT: note_on channel=5 note=46 velocity=92 time=0
EXTRACT: note_on channel=9 note=53 velocity=92 time=0
EXTRACT: note_on channel=9 note=54 velocity=92 time=0
EXTRACT: note_on channel=9 note=57 velocity=92 time=0
EXTRACT: note_on channel=9 note=82 velocity=92 time=0
EXTRACT: note_on channel=9 note=35 velocity=92 time=0
EXTRACT: note_on channel=9 note=42 velocity=92 time=0
EXTRACT: note_on channel=11 note=53 velocity=92 time=0
EXTRACT: note_on channel=11 note=58 velocity=92 time=0
EXTRACT: note_on channel=11 note=62 velocity=92 time=0
EXTRACT: note_on channel=11 note=65 velocity=92 time=0
EXTRACT: note_on channel=12 note=70 velocity=92 time=0
EXTRACT: note_on channel=12 note=77 velocity=92 time=0
EXTRACT: note_on channel=15 note=34 velocity=92 time=0
EXTRACT: note_on channel=5 note=53 velocity=0 time=0.0347221875
EXTRACT: note_on channel=5 note=58 velocity=0 time=0
EXTRACT: note_on channel=5 note=62 velocity=0 time=0
EXTRACT: note_on channel=0 note=82 velocity=127 time=0.0069444375
EXTRACT: note_on channel=7 note=58 velocity=92 time=0
EXTRACT: note_on channel=13 note=70 velocity=92 time=0
EXTRACT: note_on channel=9 note=35 velocity=0 time=0.0347221875
EXTRACT: note_on channel=9 note=42 velocity=0 time=0
EXTRACT: note_on channel=9 note=53 velocity=0 time=0.08333325
EXTRACT: note_on channel=9 note=54 velocity=0 time=0
EXTRACT: note_on channel=9 note=57 velocity=0 time=0
EXTRACT: note_on channel=9 note=82 velocity=0 time=0
EXTRACT: note_on channel=11 note=53 velocity=0 time=0
EXTRACT: note_on channel=11 note=58 velocity=0 time=0
EXTRACT: note_on channel=11 note=62 velocity=0 time=0
EXTRACT: note_on channel=11 note=65 velocity=0 time=0
EXTRACT: note_on channel=9 note=54 velocity=92 time=0.0069444375
EXTRACT: note_on channel=7 note=58 velocity=0 time=0.0347221875
EXTRACT: note_on channel=9 note=54 velocity=0 time=0
EXTRACT: note_on channel=7 note=60 velocity=92 time=0.0069444375
EXTRACT: note_on channel=9 note=82 velocity=92 time=0
EXTRACT: note_on channel=7 note=60 velocity=0 time=0.1180554375
EXTRACT: note_on channel=9 note=82 velocity=0 time=0
EXTRACT: note_on channel=7 note=62 velocity=92 time=0.0069444375
EXTRACT: note_on channel=9 note=54 velocity=92 time=0
EXTRACT: note_on channel=9 note=82 velocity=92 time=0
EXTRACT: note_on channel=9 note=42 velocity=92 time=0
EXTRACT: note_on channel=11 note=53 velocity=92 time=0
EXTRACT: note_on channel=11 note=58 velocity=92 time=0
EXTRACT: note_on channel=11 note=62 velocity=92 time=0
EXTRACT: note_on channel=11 note=65 velocity=92 time=0
EXTRACT: note_on channel=9 note=42 velocity=0 time=0.0763888125
EXTRACT: note_on channel=11 note=53 velocity=0 time=0.041666625
EXTRACT: note_on channel=11 note=58 velocity=0 time=0
EXTRACT: note_on channel=11 note=62 velocity=0 time=0
EXTRACT: note_on channel=11 note=65 velocity=0 time=0
EXTRACT: note_on channel=7 note=62 velocity=0 time=0.041666625
EXTRACT: note_on channel=9 note=54 velocity=0 time=0
EXTRACT: note_on channel=9 note=82 velocity=0 time=0
EXTRACT: note_on channel=7 note=58 velocity=92 time=0.0069444375
EXTRACT: note_on channel=9 note=54 velocity=92 time=0
EXTRACT: note_on channel=9 note=54 velocity=0 time=0.0347221875
EXTRACT: note_on channel=9 note=82 velocity=92 time=0.0069444375
EXTRACT: note_on channel=7 note=58 velocity=0 time=0.1180554375
EXTRACT: note_on channel=9 note=82 velocity=0 time=0
EXTRACT: note_on channel=7 note=60 velocity=92 time=0.0069444375
EXTRACT: note_on channel=9 note=54 velocity=92 time=0
EXTRACT: note_on channel=9 note=82 velocity=92 time=0
EXTRACT: note_on channel=9 note=40 velocity=92 time=0
EXTRACT: note_on channel=9 note=42 velocity=92 time=0
EXTRACT: note_on channel=11 note=53 velocity=92 time=0
EXTRACT: note_on channel=11 note=58 velocity=92 time=0
EXTRACT: note_on channel=11 note=62 velocity=92 time=0
EXTRACT: note_on channel=11 note=65 velocity=92 time=0
EXTRACT: note_on channel=0 note=82 velocity=0 time=0.0347221875
EXTRACT: note_on channel=0 note=77 velocity=127 time=0.0069444375
EXTRACT: note_on channel=9 note=40 velocity=0 time=0.0347221875
EXTRACT: note_on channel=9 note=42 velocity=0 time=0
EXTRACT: note_on channel=7 note=60 velocity=0 time=0.08333325
EXTRACT: note_on channel=9 note=54 velocity=0 time=0
EXTRACT: note_on channel=9 note=82 velocity=0 time=0
EXTRACT: note_on channel=7 note=62 velocity=92 time=0.0069444375
EXTRACT: note_on channel=9 note=54 velocity=92 time=0
EXTRACT: note_on channel=9 note=54 velocity=0 time=0.0347221875
EXTRACT: note_on channel=9 note=82 velocity=92 time=0.0069444375
EXTRACT: note_on channel=0 note=77 velocity=0 time=0.1180554375
EXTRACT: note_on channel=7 note=62 velocity=0 time=0
EXTRACT: note_on channel=9 note=82 velocity=0 time=0
EXTRACT: note_on channel=11 note=53 velocity=0 time=0
EXTRACT: note_on channel=11 note=58 velocity=0 time=0
EXTRACT: note_on channel=11 note=62 velocity=0 time=0
EXTRACT: note_on channel=11 note=65 velocity=0 time=0
EXTRACT: note_on channel=0 note=79 velocity=127 time=0.0069444375
EXTRACT: note_on channel=7 note=58 velocity=92 time=0
EXTRACT: note_on channel=9 note=54 velocity=92 time=0
EXTRACT: note_on channel=9 note=82 velocity=92 time=0
EXTRACT: note_on channel=9 note=42 velocity=92 time=0
EXTRACT: note_on channel=9 note=42 velocity=0 time=0.0763888125
EXTRACT: note_on channel=7 note=58 velocity=0 time=0.08333325
EXTRACT: note_on channel=9 note=54 velocity=0 time=0
EXTRACT: note_on channel=9 note=82 velocity=0 time=0
EXTRACT: note_on channel=15 note=34 velocity=0 time=0
EXTRACT: note_on channel=7 note=60 velocity=92 time=0.0069444375
EXTRACT: note_on channel=9 note=54 velocity=92 time=0
EXTRACT: note_on channel=11 note=53 velocity=92 time=0
EXTRACT: note_on channel=11 note=58 velocity=92 time=0
EXTRACT: note_on channel=11 note=62 velocity=92 time=0
EXTRACT: note_on channel=11 note=65 velocity=92 time=0
EXTRACT: note_on channel=15 note=34 velocity=92 time=0
EXTRACT: note_on channel=0 note=79 velocity=0 time=0.0347221875
EXTRACT: note_on channel=9 note=54 velocity=0 time=0
EXTRACT: note_on channel=0 note=79 velocity=127 time=0.0069444375
EXTRACT: note_on channel=9 note=82 velocity=92 time=0
EXTRACT: note_on channel=7 note=60 velocity=0 time=0.1180554375
EXTRACT: note_on channel=9 note=82 velocity=0 time=0
EXTRACT: note_on channel=11 note=53 velocity=0 time=0
EXTRACT: note_on channel=11 note=58 velocity=0 time=0
EXTRACT: note_on channel=11 note=62 velocity=0 time=0
EXTRACT: note_on channel=11 note=65 velocity=0 time=0
EXTRACT: note_on channel=15 note=34 velocity=0 time=0
EXTRACT: note_on channel=7 note=62 velocity=92 time=0.0069444375
EXTRACT: note_on channel=9 note=54 velocity=92 time=0
EXTRACT: note_on channel=9 note=35 velocity=92 time=0
EXTRACT: note_on channel=9 note=42 velocity=92 time=0
EXTRACT: note_on channel=11 note=53 velocity=92 time=0
EXTRACT: note_on channel=11 note=58 velocity=92 time=0
EXTRACT: note_on channel=11 note=62 velocity=92 time=0
EXTRACT: note_on channel=11 note=65 velocity=92 time=0
EXTRACT: note_on channel=15 note=29 velocity=92 time=0
EXTRACT: note_on channel=9 note=35 velocity=0 time=0.0763888125
EXTRACT: note_on channel=9 note=42 velocity=0 time=0
EXTRACT: note_on channel=7 note=62 velocity=0 time=0.08333325
EXTRACT: note_on channel=9 note=54 velocity=0 time=0
EXTRACT: note_on channel=11 note=53 velocity=0 time=0
EXTRACT: note_on channel=11 note=58 velocity=0 time=0
EXTRACT: note_on channel=11 note=62 velocity=0 time=0
EXTRACT: note_on channel=11 note=65 velocity=0 time=0
EXTRACT: note_on channel=15 note=29 velocity=0 time=0
EXTRACT: note_on channel=7 note=58 velocity=92 time=0.0069444375
EXTRACT: note_on channel=9 note=54 velocity=92 time=0
EXTRACT: note_on channel=11 note=53 velocity=92 time=0
EXTRACT: note_on channel=11 note=58 velocity=92 time=0
EXTRACT: note_on channel=11 note=62 velocity=92 time=0
EXTRACT: note_on channel=11 note=65 velocity=92 time=0
EXTRACT: note_on channel=15 note=31 velocity=92 time=0
EXTRACT: note_on channel=9 note=54 velocity=0 time=0.0347221875
EXTRACT: note_on channel=9 note=82 velocity=92 time=0.0069444375
EXTRACT: note_on channel=7 note=58 velocity=0 time=0.1180554375
EXTRACT: note_on channel=9 note=82 velocity=0 time=0
EXTRACT: note_on channel=11 note=53 velocity=0 time=0
EXTRACT: note_on channel=11 note=58 velocity=0 time=0
EXTRACT: note_on channel=11 note=62 velocity=0 time=0
EXTRACT: note_on channel=11 note=65 velocity=0 time=0
EXTRACT: note_on channel=15 note=31 velocity=0 time=0
EXTRACT: note_on channel=7 note=60 velocity=92 time=0.0069444375
EXTRACT: note_on channel=9 note=54 velocity=92 time=0
EXTRACT: note_on channel=9 note=35 velocity=92 time=0
EXTRACT: note_on channel=9 note=46 velocity=92 time=0
EXTRACT: note_on channel=11 note=53 velocity=92 time=0
EXTRACT: note_on channel=11 note=58 velocity=92 time=0
EXTRACT: note_on channel=11 note=62 velocity=92 time=0
EXTRACT: note_on channel=11 note=65 velocity=92 time=0
EXTRACT: note_on channel=15 note=34 velocity=92 time=0
EXTRACT: note_on channel=0 note=79 velocity=0 time=0.0347221875
EXTRACT: note_on channel=0 note=77 velocity=127 time=0.0069444375
EXTRACT: note_on channel=9 note=35 velocity=0 time=0.0347221875
EXTRACT: note_on channel=9 note=46 velocity=0 time=0
EXTRACT: note_on channel=7 note=60 velocity=0 time=0.08333325
EXTRACT: note_on channel=9 note=54 velocity=0 time=0
EXTRACT: note_on channel=11 note=53 velocity=0 time=0
EXTRACT: note_on channel=11 note=58 velocity=0 time=0
EXTRACT: note_on channel=11 note=62 velocity=0 time=0
EXTRACT: note_on channel=11 note=65 velocity=0 time=0
EXTRACT: note_on channel=3 note=58 velocity=0 time=0.0069444375
EXTRACT: note_on channel=3 note=62 velocity=0 time=0
EXTRACT: note_on channel=3 note=65 velocity=0 time=0
EXTRACT: note_on channel=7 note=62 velocity=92 time=0
EXTRACT: note_on channel=9 note=54 velocity=92 time=0
EXTRACT: note_on channel=11 note=53 velocity=92 time=0
EXTRACT: note_on channel=11 note=58 velocity=92 time=0
EXTRACT: note_on channel=11 note=62 velocity=92 time=0
EXTRACT: note_on channel=11 note=65 velocity=92 time=0
EXTRACT: note_on channel=9 note=54 velocity=0 time=0.0347221875
EXTRACT: note_on channel=9 note=82 velocity=92 time=0.0069444375
EXTRACT: note_on channel=0 note=77 velocity=0 time=0.1180554375
EXTRACT: note_on channel=7 note=62 velocity=0 time=0
EXTRACT: note_on channel=9 note=82 velocity=0 time=0
EXTRACT: note_on channel=11 note=53 velocity=0 time=0
EXTRACT: note_on channel=11 note=58 velocity=0 time=0
EXTRACT: note_on channel=11 note=62 velocity=0 time=0
EXTRACT: note_on channel=11 note=65 velocity=0 time=0
EXTRACT: note_on channel=0 note=77 velocity=127 time=0.0069444375
EXTRACT: note_on channel=3 note=57 velocity=92 time=0
EXTRACT: note_on channel=7 note=58 velocity=92 time=0
EXTRACT: note_on channel=9 note=54 velocity=92 time=0
EXTRACT: note_on channel=9 note=82 velocity=92 time=0
EXTRACT: note_on channel=9 note=40 velocity=92 time=0
EXTRACT: note_on channel=9 note=42 velocity=92 time=0
EXTRACT: note_on channel=11 note=53 velocity=92 time=0
EXTRACT: note_on channel=11 note=58 velocity=92 time=0
EXTRACT: note_on channel=11 note=62 velocity=92 time=0
EXTRACT: note_on channel=11 note=65 velocity=92 time=0
EXTRACT: note_on channel=9 note=40 velocity=0 time=0.0763888125
EXTRACT: note_on channel=9 note=42 velocity=0 time=0
EXTRACT: note_on channel=5 note=46 velocity=0 time=0.08333325
EXTRACT: note_on channel=7 note=58 velocity=0 time=0
EXTRACT: note_on channel=9 note=54 velocity=0 time=0
EXTRACT: note_on channel=9 note=82 velocity=0 time=0
EXTRACT: note_on channel=15 note=34 velocity=0 time=0
EXTRACT: note_on channel=7 note=60 velocity=92 time=0.0069444375
EXTRACT: note_on channel=9 note=54 velocity=92 time=0
EXTRACT: note_on channel=0 note=77 velocity=0 time=0.0347221875
EXTRACT: note_on channel=9 note=54 velocity=0 time=0
EXTRACT: note_on channel=0 note=75 velocity=127 time=0.0069444375
EXTRACT: note_on channel=9 note=82 velocity=92 time=0
EXTRACT: note_on channel=0 note=75 velocity=0 time=0.1180554375
EXTRACT: note_on channel=7 note=60 velocity=0 time=0
EXTRACT: note_on channel=9 note=82 velocity=0 time=0
EXTRACT: note_on channel=11 note=53 velocity=0 time=0
EXTRACT: note_on channel=11 note=58 velocity=0 time=0
EXTRACT: note_on channel=11 note=62 velocity=0 time=0
EXTRACT: note_on channel=11 note=65 velocity=0 time=0
EXTRACT: note_on channel=0 note=74 velocity=127 time=0.0069444375
EXTRACT: note_on channel=7 note=62 velocity=92 time=0
EXTRACT: note_on channel=9 note=54 velocity=92 time=0
EXTRACT: note_on channel=9 note=82 velocity=92 time=0
EXTRACT: note_on channel=9 note=42 velocity=92 time=0
EXTRACT: note_on channel=11 note=53 velocity=92 time=0
EXTRACT: note_on channel=11 note=58 velocity=92 time=0
EXTRACT: note_on channel=11 note=62 velocity=92 time=0
EXTRACT: note_on channel=11 note=65 velocity=92 time=0
EXTRACT: note_on channel=15 note=34 velocity=92 time=0
EXTRACT: note_on channel=9 note=42 velocity=0 time=0.0763888125
EXTRACT: note_on channel=0 note=74 velocity=0 time=0.08333325
EXTRACT: note_on channel=9 note=54 velocity=0 time=0
EXTRACT: note_on channel=9 note=82 velocity=0 time=0
EXTRACT: note_on channel=0 note=75 velocity=127 time=0.0069444375
EXTRACT: note_on channel=9 note=54 velocity=92 time=0
EXTRACT: note_on channel=12 note=70 velocity=0 time=0
EXTRACT: note_on channel=12 note=77 velocity=0 time=0
EXTRACT: note_on channel=13 note=70 velocity=0 time=0
EXTRACT: note_on channel=9 note=54 velocity=0 time=0.0347221875
EXTRACT: note_on channel=9 note=82 velocity=92 time=0.0069444375
EXTRACT: note_on channel=3 note=57 velocity=0 time=0.013888875
EXTRACT: note_on channel=0 note=75 velocity=0 time=0.1041665625
EXTRACT: note_on channel=7 note=62 velocity=0 time=0
EXTRACT: note_on channel=9 note=82 velocity=0 time=0
EXTRACT: note_on channel=11 note=53 velocity=0 time=0
EXTRACT: note_on channel=11 note=58 velocity=0 time=0
EXTRACT: note_on channel=11 note=62 velocity=0 time=0
EXTRACT: note_on channel=11 note=65 velocity=0 time=0
EXTRACT: note_on channel=15 note=34 velocity=0 time=0
EXTRACT: note_on channel=3 note=53 velocity=92 time=0.0069444375
EXTRACT: note_on channel=3 note=60 velocity=92 time=0
EXTRACT: note_on channel=5 note=53 velocity=92 time=0
EXTRACT: note_on channel=5 note=57 velocity=92 time=0
EXTRACT: note_on channel=5 note=60 velocity=92 time=0
EXTRACT: note_on channel=5 note=41 velocity=92 time=0
EXTRACT: note_on channel=9 note=54 velocity=92 time=0
EXTRACT: note_on channel=9 note=82 velocity=92 time=0
EXTRACT: note_on channel=9 note=35 velocity=92 time=0
EXTRACT: note_on channel=9 note=42 velocity=92 time=0
EXTRACT: note_on channel=11 note=53 velocity=92 time=0
EXTRACT: note_on channel=11 note=57 velocity=92 time=0
EXTRACT: note_on channel=11 note=60 velocity=92 time=0
EXTRACT: note_on channel=11 note=65 velocity=92 time=0
EXTRACT: note_on channel=12 note=69 velocity=92 time=0
EXTRACT: note_on channel=13 note=65 velocity=92 time=0
EXTRACT: note_on channel=15 note=29 velocity=92 time=0
EXTRACT: note_on channel=0 note=75 velocity=127 time=0.041666625
EXTRACT: note_on channel=7 note=58 velocity=92 time=0
EXTRACT: note_on channel=9 note=35 velocity=0 time=0.0347221875
EXTRACT: note_on channel=9 note=42 velocity=0 time=0
EXTRACT: note_on channel=9 note=54 velocity=0 time=0.08333325
EXTRACT: note_on channel=9 note=82 velocity=0 time=0
EXTRACT: note_on channel=11 note=53 velocity=0 time=0
EXTRACT: note_on channel=11 note=57 velocity=0 time=0
EXTRACT: note_on channel=11 note=60 velocity=0 time=0
EXTRACT: note_on channel=11 note=65 velocity=0 time=0
EXTRACT: note_on channel=9 note=54 velocity=92 time=0.0069444375
EXTRACT: note_on channel=7 note=58 velocity=0 time=0.0347221875
EXTRACT: note_on channel=9 note=54 velocity=0 time=0
EXTRACT: note_on channel=7 note=60 velocity=92 time=0.0069444375
EXTRACT: note_on channel=9 note=82 velocity=92 time=0
EXTRACT: note_on channel=7 note=60 velocity=0 time=0.1180554375
EXTRACT: note_on channel=9 note=82 velocity=0 time=0
EXTRACT: note_on channel=7 note=62 velocity=92 time=0.0069444375
EXTRACT: note_on channel=9 note=54 velocity=92 time=0
EXTRACT: note_on channel=9 note=82 velocity=92 time=0
EXTRACT: note_on channel=9 note=42 velocity=92 time=0
EXTRACT: note_on channel=11 note=53 velocity=92 time=0
EXTRACT: note_on channel=11 note=57 velocity=92 time=0
EXTRACT: note_on channel=11 note=60 velocity=92 time=0
EXTRACT: note_on channel=11 note=65 velocity=92 time=0
EXTRACT: note_on channel=0 note=75 velocity=0 time=0.0763888125
EXTRACT: note_on channel=9 note=42 velocity=0 time=0
EXTRACT: note_on channel=0 note=74 velocity=127 time=0.0069444375
EXTRACT: note_on channel=11 note=53 velocity=0 time=0.0347221875
EXTRACT: note_on channel=11 note=57 velocity=0 time=0
EXTRACT: note_on channel=11 note=60 velocity=0 time=0
EXTRACT: note_on channel=11 note=65 velocity=0 time=0
EXTRACT: note_on channel=7 note=62 velocity=0 time=0.041666625
EXTRACT: note_on channel=9 note=54 velocity=0 time=0
EXTRACT: note_on channel=9 note=82 velocity=0 time=0
EXTRACT: note_on channel=7 note=58 velocity=92 time=0.0069444375
EXTRACT: note_on channel=9 note=54 velocity=92 time=0
EXTRACT: note_on channel=9 note=54 velocity=0 time=0.0347221875
EXTRACT: note_on channel=9 note=82 velocity=92 time=0.0069444375
EXTRACT: note_on channel=7 note=58 velocity=0 time=0.1180554375
EXTRACT: note_on channel=9 note=82 velocity=0 time=0
EXTRACT: note_on channel=7 note=60 velocity=92 time=0.0069444375
EXTRACT: note_on channel=9 note=54 velocity=92 time=0
EXTRACT: note_on channel=9 note=82 velocity=92 time=0
EXTRACT: note_on channel=9 note=40 velocity=92 time=0
EXTRACT: note_on channel=9 note=42 velocity=92 time=0
EXTRACT: note_on channel=11 note=53 velocity=92 time=0
EXTRACT: note_on channel=11 note=57 velocity=92 time=0
EXTRACT: note_on channel=11 note=60 velocity=92 time=0
EXTRACT: note_on channel=11 note=65 velocity=92 time=0
EXTRACT: note_on channel=9 note=40 velocity=0 time=0.0763888125
EXTRACT: note_on channel=9 note=42 velocity=0 time=0
EXTRACT: note_on channel=7 note=60 velocity=0 time=0.08333325
EXTRACT: note_on channel=9 note=54 velocity=0 time=0
EXTRACT: note_on channel=9 note=82 velocity=0 time=0
EXTRACT: note_on channel=7 note=62 velocity=92 time=0.0069444375
EXTRACT: note_on channel=9 note=54 velocity=92 time=0
EXTRACT: note_on channel=9 note=54 velocity=0 time=0.0347221875
EXTRACT: note_on channel=9 note=82 velocity=92 time=0.0069444375
EXTRACT: note_on channel=7 note=62 velocity=0 time=0.1180554375
EXTRACT: note_on channel=9 note=82 velocity=0 time=0
EXTRACT: note_on channel=11 note=53 velocity=0 time=0
EXTRACT: note_on channel=11 note=57 velocity=0 time=0
EXTRACT: note_on channel=11 note=60 velocity=0 time=0
EXTRACT: note_on channel=11 note=65 velocity=0 time=0
EXTRACT: note_on channel=7 note=58 velocity=92 time=0.0069444375
EXTRACT: note_on channel=8 note=58 velocity=92 time=0
EXTRACT: note_on channel=9 note=54 velocity=92 time=0
EXTRACT: note_on channel=9 note=82 velocity=92 time=0
EXTRACT: note_on channel=9 note=42 velocity=92 time=0
EXTRACT: note_on channel=9 note=42 velocity=0 time=0.0763888125
EXTRACT: note_on channel=0 note=74 velocity=0 time=0.041666625
EXTRACT: note_on channel=7 note=58 velocity=0 time=0.041666625
EXTRACT: note_on channel=8 note=58 velocity=0 time=0
EXTRACT: note_on channel=9 note=54 velocity=0 time=0
EXTRACT: note_on channel=9 note=82 velocity=0 time=0
EXTRACT: note_on channel=15 note=29 velocity=0 time=0
EXTRACT: note_on channel=7 note=60 velocity=92 time=0.0069444375
EXTRACT: note_on channel=8 note=60 velocity=92 time=0
EXTRACT: note_on channel=9 note=54 velocity=92 time=0
EXTRACT: note_on channel=11 note=53 velocity=92 time=0
EXTRACT: note_on channel=11 note=57 velocity=92 time=0
EXTRACT: note_on channel=11 note=60 velocity=92 time=0
EXTRACT: note_on channel=11 note=65 velocity=92 time=0
EXTRACT: note_on channel=15 note=29 velocity=92 time=0
EXTRACT: note_on channel=9 note=54 velocity=0 time=0.0347221875
EXTRACT: note_on channel=9 note=82 velocity=92 time=0.0069444375
EXTRACT: note_on channel=7 note=60 velocity=0 time=0.1180554375
EXTRACT: note_on channel=8 note=60 velocity=0 time=0
EXTRACT: note_on channel=9 note=82 velocity=0 time=0
EXTRACT: note_on channel=11 note=53 velocity=0 time=0
EXTRACT: note_on channel=11 note=57 velocity=0 time=0
EXTRACT: note_on channel=11 note=60 velocity=0 time=0
EXTRACT: note_on channel=11 note=65 velocity=0 time=0
EXTRACT: note_on channel=15 note=29 velocity=0 time=0
EXTRACT: note_on channel=7 note=62 velocity=92 time=0.0069444375
EXTRACT: note_on channel=8 note=62 velocity=92 time=0
EXTRACT: note_on channel=9 note=54 velocity=92 time=0
EXTRACT: note_on channel=9 note=35 velocity=92 time=0
EXTRACT: note_on channel=9 note=42 velocity=92 time=0
EXTRACT: note_on channel=11 note=53 velocity=92 time=0
EXTRACT: note_on channel=11 note=57 velocity=92 time=0
EXTRACT: note_on channel=11 note=60 velocity=92 time=0
EXTRACT: note_on channel=11 note=65 velocity=92 time=0
EXTRACT: note_on channel=15 note=29 velocity=92 time=0
EXTRACT: note_on channel=9 note=35 velocity=0 time=0.0763888125
EXTRACT: note_on channel=9 note=42 velocity=0 time=0
EXTRACT: note_on channel=15 note=29 velocity=0 time=0.041666625
EXTRACT: note_on channel=7 note=62 velocity=0 time=0.041666625
EXTRACT: note_on channel=8 note=62 velocity=0 time=0
EXTRACT: note_on channel=9 note=54 velocity=0 time=0
EXTRACT: note_on channel=11 note=53 velocity=0 time=0
EXTRACT: note_on channel=11 note=57 velocity=0 time=0
EXTRACT: note_on channel=11 note=60 velocity=0 time=0
EXTRACT: note_on channel=11 note=65 velocity=0 time=0
EXTRACT: note_on channel=0 note=74 velocity=127 time=0.0069444375
EXTRACT: note_on channel=7 note=58 velocity=92 time=0
EXTRACT: note_on channel=8 note=58 velocity=92 time=0
EXTRACT: note_on channel=9 note=54 velocity=92 time=0
EXTRACT: note_on channel=11 note=53 velocity=92 time=0
EXTRACT: note_on channel=11 note=57 velocity=92 time=0
EXTRACT: note_on channel=11 note=60 velocity=92 time=0
EXTRACT: note_on channel=11 note=65 velocity=92 time=0
EXTRACT: note_on channel=9 note=54 velocity=0 time=0.0347221875
EXTRACT: note_on channel=9 note=82 velocity=92 time=0.0069444375
EXTRACT: note_on channel=7 note=58 velocity=0 time=0.1180554375
EXTRACT: note_on channel=8 note=58 velocity=0 time=0
EXTRACT: note_on channel=9 note=82 velocity=0 time=0
EXTRACT: note_on channel=11 note=53 velocity=0 time=0
EXTRACT: note_on channel=11 note=57 velocity=0 time=0
EXTRACT: note_on channel=11 note=60 velocity=0 time=0
EXTRACT: note_on channel=11 note=65 velocity=0 time=0
EXTRACT: note_on channel=7 note=60 velocity=92 time=0.0069444375
EXTRACT: note_on channel=8 note=60 velocity=92 time=0
EXTRACT: note_on channel=9 note=54 velocity=92 time=0
EXTRACT: note_on channel=9 note=35 velocity=92 time=0
EXTRACT: note_on channel=9 note=46 velocity=92 time=0
EXTRACT: note_on channel=11 note=53 velocity=92 time=0
EXTRACT: note_on channel=11 note=57 velocity=92 time=0
EXTRACT: note_on channel=11 note=60 velocity=92 time=0
EXTRACT: note_on channel=11 note=65 velocity=92 time=0
EXTRACT: note_on channel=15 note=29 velocity=92 time=0
EXTRACT: note_on channel=0 note=74 velocity=0 time=0.0763888125
EXTRACT: note_on channel=9 note=35 velocity=0 time=0
EXTRACT: note_on channel=9 note=46 velocity=0 time=0
EXTRACT: note_on channel=0 note=74 velocity=127 time=0.0069444375
EXTRACT: note_on channel=7 note=60 velocity=0 time=0.0763888125
EXTRACT: note_on channel=8 note=60 velocity=0 time=0
EXTRACT: note_on channel=9 note=54 velocity=0 time=0
EXTRACT: note_on channel=11 note=53 velocity=0 time=0
EXTRACT: note_on channel=11 note=57 velocity=0 time=0
EXTRACT: note_on channel=11 note=60 velocity=0 time=0
EXTRACT: note_on channel=11 note=65 velocity=0 time=0
EXTRACT: note_on channel=15 note=29 velocity=0 time=0
EXTRACT: note_on channel=7 note=62 velocity=92 time=0.0069444375
EXTRACT: note_on channel=8 note=62 velocity=92 time=0
EXTRACT: note_on channel=9 note=54 velocity=92 time=0
EXTRACT: note_on channel=11 note=53 velocity=92 time=0
EXTRACT: note_on channel=11 note=57 velocity=92 time=0
EXTRACT: note_on channel=11 note=60 velocity=92 time=0
EXTRACT: note_on channel=11 note=65 velocity=92 time=0
EXTRACT: note_on channel=9 note=54 velocity=0 time=0.0347221875
EXTRACT: note_on channel=9 note=82 velocity=92 time=0.0069444375
EXTRACT: note_on channel=0 note=74 velocity=0 time=0.0763888125
EXTRACT: note_on channel=0 note=74 velocity=127 time=0.0069444375
EXTRACT: note_on channel=7 note=62 velocity=0 time=0.0347221875
EXTRACT: note_on channel=8 note=62 velocity=0 time=0
EXTRACT: note_on channel=9 note=82 velocity=0 time=0
EXTRACT: note_on channel=11 note=53 velocity=0 time=0
EXTRACT: note_on channel=11 note=57 velocity=0 time=0
EXTRACT: note_on channel=11 note=60 velocity=0 time=0
EXTRACT: note_on channel=11 note=65 velocity=0 time=0
EXTRACT: note_on channel=7 note=58 velocity=92 time=0.0069444375
EXTRACT: note_on channel=8 note=58 velocity=92 time=0
EXTRACT: note_on channel=9 note=54 velocity=92 time=0
EXTRACT: note_on channel=9 note=82 velocity=92 time=0
EXTRACT: note_on channel=9 note=40 velocity=92 time=0
EXTRACT: note_on channel=9 note=42 velocity=92 time=0
EXTRACT: note_on channel=11 note=53 velocity=92 time=0
EXTRACT: note_on channel=11 note=57 velocity=92 time=0
EXTRACT: note_on channel=11 note=60 velocity=92 time=0
EXTRACT: note_on channel=11 note=65 velocity=92 time=0
EXTRACT: note_on channel=15 note=29 velocity=92 time=0
EXTRACT: note_on channel=5 note=53 velocity=0 time=0.0763888125
EXTRACT: note_on channel=5 note=57 velocity=0 time=0
EXTRACT: note_on channel=5 note=60 velocity=0 time=0
EXTRACT: note_on channel=9 note=40 velocity=0 time=0
EXTRACT: note_on channel=9 note=42 velocity=0 time=0
EXTRACT: note_on channel=5 note=41 velocity=0 time=0.08333325
EXTRACT: note_on channel=7 note=58 velocity=0 time=0
EXTRACT: note_on channel=8 note=58 velocity=0 time=0
EXTRACT: note_on channel=9 note=54 velocity=0 time=0
EXTRACT: note_on channel=9 note=82 velocity=0 time=0
EXTRACT: note_on channel=12 note=69 velocity=0 time=0
EXTRACT: note_on channel=15 note=29 velocity=0 time=0
EXTRACT: note_on channel=7 note=60 velocity=92 time=0.0069444375
EXTRACT: note_on channel=8 note=60 velocity=92 time=0
EXTRACT: note_on channel=9 note=54 velocity=92 time=0
EXTRACT: note_on channel=15 note=31 velocity=92 time=0
EXTRACT: note_on channel=9 note=54 velocity=0 time=0.0347221875
EXTRACT: note_on channel=9 note=82 velocity=92 time=0.0069444375
EXTRACT: note_on channel=0 note=74 velocity=0 time=0.1180554375
EXTRACT: note_on channel=7 note=60 velocity=0 time=0
EXTRACT: note_on channel=8 note=60 velocity=0 time=0
EXTRACT: note_on channel=9 note=82 velocity=0 time=0
EXTRACT: note_on channel=11 note=53 velocity=0 time=0
EXTRACT: note_on channel=11 note=57 velocity=0 time=0
EXTRACT: note_on channel=11 note=60 velocity=0 time=0
EXTRACT: note_on channel=11 note=65 velocity=0 time=0
EXTRACT: note_on channel=15 note=31 velocity=0 time=0
EXTRACT: note_on channel=0 note=72 velocity=127 time=0.0069444375
EXTRACT: note_on channel=7 note=62 velocity=92 time=0
EXTRACT: note_on channel=8 note=62 velocity=92 time=0
EXTRACT: note_on channel=9 note=54 velocity=92 time=0
EXTRACT: note_on channel=9 note=82 velocity=92 time=0
EXTRACT: note_on channel=9 note=46 velocity=92 time=0
EXTRACT: note_on channel=11 note=53 velocity=92 time=0
EXTRACT: note_on channel=11 note=57 velocity=92 time=0
EXTRACT: note_on channel=11 note=60 velocity=92 time=0
EXTRACT: note_on channel=11 note=65 velocity=92 time=0
EXTRACT: note_on channel=15 note=34 velocity=92 time=0
EXTRACT: note_on channel=9 note=46 velocity=0 time=0.0763888125
EXTRACT: note_on channel=0 note=72 velocity=0 time=0.08333325
EXTRACT: note_on channel=9 note=54 velocity=0 time=0
EXTRACT: note_on channel=9 note=82 velocity=0 time=0
EXTRACT: note_on channel=0 note=70 velocity=127 time=0.0069444375
EXTRACT: note_on channel=3 note=53 velocity=0 time=0
EXTRACT: note_on channel=3 note=60 velocity=0 time=0
EXTRACT: note_on channel=9 note=54 velocity=92 time=0
EXTRACT: note_on channel=9 note=54 velocity=0 time=0.0347221875
EXTRACT: note_on channel=9 note=82 velocity=92 time=0.0069444375
EXTRACT: note_on channel=0 note=70 velocity=0 time=0.1180554375
EXTRACT: note_on channel=7 note=62 velocity=0 time=0
EXTRACT: note_on channel=8 note=62 velocity=0 time=0
EXTRACT: note_on channel=9 note=82 velocity=0 time=0
EXTRACT: note_on channel=11 note=53 velocity=0 time=0
EXTRACT: note_on channel=11 note=57 velocity=0 time=0
EXTRACT: note_on channel=11 note=60 velocity=0 time=0
EXTRACT: note_on channel=11 note=65 velocity=0 time=0
EXTRACT: note_on channel=15 note=34 velocity=0 time=0
EXTRACT: note_on channel=3 note=63 velocity=92 time=0.0069444375
EXTRACT: note_on channel=3 note=67 velocity=92 time=0
EXTRACT: note_on channel=5 note=55 velocity=92 time=0
EXTRACT: note_on channel=5 note=60 velocity=92 time=0
EXTRACT: note_on channel=5 note=63 velocity=92 time=0
EXTRACT: note_on channel=5 note=48 velocity=92 time=0
EXTRACT: note_on channel=9 note=54 velocity=92 time=0
EXTRACT: note_on channel=9 note=82 velocity=92 time=0
EXTRACT: note_on channel=9 note=35 velocity=92 time=0
EXTRACT: note_on channel=9 note=42 velocity=92 time=0
EXTRACT: note_on channel=11 note=55 velocity=92 time=0
EXTRACT: note_on channel=11 note=60 velocity=92 time=0
EXTRACT: note_on channel=11 note=63 velocity=92 time=0
EXTRACT: note_on channel=11 note=67 velocity=92 time=0
EXTRACT: note_on channel=12 note=67 velocity=92 time=0
EXTRACT: note_on channel=12 note=75 velocity=92 time=0
EXTRACT: note_on channel=15 note=36 velocity=92 time=0
EXTRACT: note_on channel=13 note=65 velocity=0 time=0.0347221875
EXTRACT: note_on channel=0 note=70 velocity=127 time=0.0069444375
EXTRACT: note_on channel=7 note=58 velocity=92 time=0
EXTRACT: note_on channel=8 note=58 velocity=92 time=0
EXTRACT: note_on channel=13 note=72 velocity=92 time=0
EXTRACT: note_on channel=9 note=35 velocity=0 time=0.0347221875
EXTRACT: note_on channel=9 note=42 velocity=0 time=0
EXTRACT: note_on channel=9 note=54 velocity=0 time=0.08333325
EXTRACT: note_on channel=9 note=82 velocity=0 time=0
EXTRACT: note_on channel=11 note=55 velocity=0 time=0
EXTRACT: note_on channel=11 note=60 velocity=0 time=0
EXTRACT: note_on channel=11 note=63 velocity=0 time=0
EXTRACT: note_on channel=11 note=67 velocity=0 time=0
EXTRACT: note_on channel=9 note=54 velocity=92 time=0.0069444375
EXTRACT: note_on channel=7 note=58 velocity=0 time=0.0347221875
EXTRACT: note_on channel=8 note=58 velocity=0 time=0
EXTRACT: note_on channel=9 note=54 velocity=0 time=0
EXTRACT: note_on channel=7 note=60 velocity=92 time=0.0069444375
EXTRACT: note_on channel=8 note=60 velocity=92 time=0
EXTRACT: note_on channel=9 note=82 velocity=92 time=0
EXTRACT: note_on channel=7 note=60 velocity=0 time=0.1180554375
EXTRACT: note_on channel=8 note=60 velocity=0 time=0
EXTRACT: note_on channel=9 note=82 velocity=0 time=0
EXTRACT: note_on channel=7 note=62 velocity=92 time=0.0069444375
EXTRACT: note_on channel=8 note=62 velocity=92 time=0
EXTRACT: note_on channel=9 note=54 velocity=92 time=0
EXTRACT: note_on channel=9 note=82 velocity=92 time=0
EXTRACT: note_on channel=9 note=42 velocity=92 time=0
EXTRACT: note_on channel=11 note=55 velocity=92 time=0
EXTRACT: note_on channel=11 note=60 velocity=92 time=0
EXTRACT: note_on channel=11 note=63 velocity=92 time=0
EXTRACT: note_on channel=11 note=67 velocity=92 time=0
EXTRACT: note_on channel=0 note=70 velocity=0 time=0.0763888125
EXTRACT: note_on channel=9 note=42 velocity=0 time=0
EXTRACT: note_on channel=0 note=72 velocity=127 time=0.0069444375
EXTRACT: note_on channel=11 note=55 velocity=0 time=0.0347221875
EXTRACT: note_on channel=11 note=60 velocity=0 time=0
EXTRACT: note_on channel=11 note=63 velocity=0 time=0
EXTRACT: note_on channel=11 note=67 velocity=0 time=0
EXTRACT: note_on channel=7 note=62 velocity=0 time=0.041666625
EXTRACT: note_on channel=8 note=62 velocity=0 time=0
EXTRACT: note_on channel=9 note=54 velocity=0 time=0
EXTRACT: note_on channel=9 note=82 velocity=0 time=0
EXTRACT: note_on channel=7 note=58 velocity=92 time=0.0069444375
EXTRACT: note_on channel=8 note=58 velocity=92 time=0
EXTRACT: note_on channel=9 note=54 velocity=92 time=0
EXTRACT: note_on channel=9 note=54 velocity=0 time=0.0347221875
EXTRACT: note_on channel=9 note=82 velocity=92 time=0.0069444375
EXTRACT: note_on channel=7 note=58 velocity=0 time=0.1180554375
EXTRACT: note_on channel=8 note=58 velocity=0 time=0
EXTRACT: note_on channel=9 note=82 velocity=0 time=0
EXTRACT: note_on channel=7 note=60 velocity=92 time=0.0069444375
EXTRACT: note_on channel=8 note=60 velocity=92 time=0
EXTRACT: note_on channel=9 note=54 velocity=92 time=0
EXTRACT: note_on channel=9 note=82 velocity=92 time=0
EXTRACT: note_on channel=9 note=40 velocity=92 time=0
EXTRACT: note_on channel=9 note=42 velocity=92 time=0
EXTRACT: note_on channel=11 note=55 velocity=92 time=0
EXTRACT: note_on channel=11 note=60 velocity=92 time=0
EXTRACT: note_on channel=11 note=63 velocity=92 time=0
EXTRACT: note_on channel=11 note=67 velocity=92 time=0
EXTRACT: note_on channel=9 note=40 velocity=0 time=0.0763888125
EXTRACT: note_on channel=9 note=42 velocity=0 time=0
EXTRACT: note_on channel=7 note=60 velocity=0 time=0.08333325
EXTRACT: note_on channel=8 note=60 velocity=0 time=0
EXTRACT: note_on channel=9 note=54 velocity=0 time=0
EXTRACT: note_on channel=9 note=82 velocity=0 time=0
EXTRACT: note_on channel=7 note=62 velocity=92 time=0.0069444375
EXTRACT: note_on channel=8 note=62 velocity=92 time=0
EXTRACT: note_on channel=9 note=54 velocity=92 time=0
EXTRACT: note_on channel=9 note=54 velocity=0 time=0.0347221875
EXTRACT: note_on channel=9 note=82 velocity=92 time=0.0069444375
EXTRACT: note_on channel=15 note=36 velocity=0 time=0.013888875
EXTRACT: note_on channel=7 note=62 velocity=0 time=0.1041665625
EXTRACT: note_on channel=8 note=62 velocity=0 time=0
EXTRACT: note_on channel=9 note=82 velocity=0 time=0
EXTRACT: note_on channel=11 note=55 velocity=0 time=0
EXTRACT: note_on channel=11 note=60 velocity=0 time=0
EXTRACT: note_on channel=11 note=63 velocity=0 time=0
EXTRACT: note_on channel=11 note=67 velocity=0 time=0
EXTRACT: note_on channel=7 note=58 velocity=92 time=0.0069444375
EXTRACT: note_on channel=8 note=58 velocity=92 time=0
EXTRACT: note_on channel=9 note=54 velocity=92 time=0
EXTRACT: note_on channel=9 note=82 velocity=92 time=0
EXTRACT: note_on channel=9 note=42 velocity=92 time=0
EXTRACT: note_on channel=9 note=42 velocity=0 time=0.0763888125
EXTRACT: note_on channel=7 note=58 velocity=0 time=0.08333325
EXTRACT: note_on channel=8 note=58 velocity=0 time=0
EXTRACT: note_on channel=9 note=54 velocity=0 time=0
EXTRACT: note_on channel=9 note=82 velocity=0 time=0
EXTRACT: note_on channel=7 note=60 velocity=92 time=0.0069444375
EXTRACT: note_on channel=8 note=60 velocity=92 time=0
EXTRACT: note_on channel=9 note=54 velocity=92 time=0
EXTRACT: note_on channel=11 note=55 velocity=92 time=0
EXTRACT: note_on channel=11 note=60 velocity=92 time=0
EXTRACT: note_on channel=11 note=63 velocity=92 time=0
EXTRACT: note_on channel=11 note=67 velocity=92 time=0
EXTRACT: note_on channel=15 note=36 velocity=92 time=0
EXTRACT: note_on channel=9 note=54 velocity=0 time=0.0347221875
EXTRACT: note_on channel=9 note=82 velocity=92 time=0.0069444375
EXTRACT: note_on channel=0 note=72 velocity=0 time=0.013888875
EXTRACT: note_on channel=7 note=60 velocity=0 time=0.1041665625
EXTRACT: note_on channel=8 note=60 velocity=0 time=0
EXTRACT: note_on channel=9 note=82 velocity=0 time=0
EXTRACT: note_on channel=11 note=55 velocity=0 time=0
EXTRACT: note_on channel=11 note=60 velocity=0 time=0
EXTRACT: note_on channel=11 note=63 velocity=0 time=0
EXTRACT: note_on channel=11 note=67 velocity=0 time=0
EXTRACT: note_on channel=15 note=36 velocity=0 time=0
EXTRACT: note_on channel=7 note=62 velocity=92 time=0.0069444375
EXTRACT: note_on channel=8 note=62 velocity=92 time=0
EXTRACT: note_on channel=9 note=54 velocity=92 time=0
EXTRACT: note_on channel=9 note=35 velocity=92 time=0
EXTRACT: note_on channel=9 note=42 velocity=92 time=0
EXTRACT: note_on channel=11 note=55 velocity=92 time=0
EXTRACT: note_on channel=11 note=60 velocity=92 time=0
EXTRACT: note_on channel=11 note=63 velocity=92 time=0
EXTRACT: note_on channel=11 note=67 velocity=92 time=0
EXTRACT: note_on channel=15 note=36 velocity=92 time=0
EXTRACT: note_on channel=9 note=35 velocity=0 time=0.0763888125
EXTRACT: note_on channel=9 note=42 velocity=0 time=0
EXTRACT: note_on channel=15 note=36 velocity=0 time=0.041666625
EXTRACT: note_on channel=7 note=62 velocity=0 time=0.041666625
EXTRACT: note_on channel=9 note=54 velocity=0 time=0
EXTRACT: note_on channel=11 note=55 velocity=0 time=0
EXTRACT: note_on channel=11 note=60 velocity=0 time=0
EXTRACT: note_on channel=11 note=63 velocity=0 time=0
EXTRACT: note_on channel=11 note=67 velocity=0 time=0
EXTRACT: note_on channel=0 note=74 velocity=127 time=0.0069444375
EXTRACT: note_on channel=7 note=58 velocity=92 time=0
EXTRACT: note_on channel=9 note=54 velocity=92 time=0
EXTRACT: note_on channel=11 note=55 velocity=92 time=0
EXTRACT: note_on channel=11 note=60 velocity=92 time=0
EXTRACT: note_on channel=11 note=63 velocity=92 time=0
EXTRACT: note_on channel=11 note=67 velocity=92 time=0
EXTRACT: note_on channel=8 note=62 velocity=0 time=0.0347221875
EXTRACT: note_on channel=9 note=54 velocity=0 time=0
EXTRACT: note_on channel=9 note=82 velocity=92 time=0.0069444375
EXTRACT: note_on channel=7 note=58 velocity=0 time=0.1180554375
EXTRACT: note_on channel=9 note=82 velocity=0 time=0
EXTRACT: note_on channel=11 note=55 velocity=0 time=0
EXTRACT: note_on channel=11 note=60 velocity=0 time=0
EXTRACT: note_on channel=11 note=63 velocity=0 time=0
EXTRACT: note_on channel=11 note=67 velocity=0 time=0
EXTRACT: note_on channel=7 note=60 velocity=92 time=0.0069444375
EXTRACT: note_on channel=9 note=54 velocity=92 time=0
EXTRACT: note_on channel=9 note=35 velocity=92 time=0
EXTRACT: note_on channel=9 note=46 velocity=92 time=0
EXTRACT: note_on channel=11 note=55 velocity=92 time=0
EXTRACT: note_on channel=11 note=60 velocity=92 time=0
EXTRACT: note_on channel=11 note=63 velocity=92 time=0
EXTRACT: note_on channel=11 note=67 velocity=92 time=0
EXTRACT: note_on channel=15 note=36 velocity=92 time=0
EXTRACT: note_on channel=9 note=35 velocity=0 time=0.0763888125
EXTRACT: note_on channel=9 note=46 velocity=0 time=0
EXTRACT: note_on channel=7 note=60 velocity=0 time=0.08333325
EXTRACT: note_on channel=9 note=54 velocity=0 time=0
EXTRACT: note_on channel=11 note=55 velocity=0 time=0
EXTRACT: note_on channel=11 note=60 velocity=0 time=0
EXTRACT: note_on channel=11 note=63 velocity=0 time=0
EXTRACT: note_on channel=11 note=67 velocity=0 time=0
EXTRACT: note_on channel=7 note=62 velocity=92 time=0.0069444375
EXTRACT: note_on channel=9 note=54 velocity=92 time=0
EXTRACT: note_on channel=11 note=55 velocity=92 time=0
EXTRACT: note_on channel=11 note=60 velocity=92 time=0
EXTRACT: note_on channel=11 note=63 velocity=92 time=0
EXTRACT: note_on channel=11 note=67 velocity=92 time=0
EXTRACT: note_on channel=0 note=74 velocity=0 time=0.0347221875
EXTRACT: note_on channel=9 note=54 velocity=0 time=0
EXTRACT: note_on channel=0 note=74 velocity=127 time=0.0069444375
EXTRACT: note_on channel=9 note=82 velocity=92 time=0
EXTRACT: note_on channel=0 note=74 velocity=0 time=0.1180554375
EXTRACT: note_on channel=7 note=62 velocity=0 time=0
EXTRACT: note_on channel=9 note=82 velocity=0 time=0
EXTRACT: note_on channel=11 note=55 velocity=0 time=0
EXTRACT: note_on channel=11 note=60 velocity=0 time=0
EXTRACT: note_on channel=11 note=63 velocity=0 time=0
EXTRACT: note_on channel=11 note=67 velocity=0 time=0
EXTRACT: note_on channel=7 note=58 velocity=92 time=0.0069444375
EXTRACT: note_on channel=9 note=54 velocity=92 time=0
EXTRACT: note_on channel=9 note=82 velocity=92 time=0
EXTRACT: note_on channel=9 note=40 velocity=92 time=0
EXTRACT: note_on channel=9 note=42 velocity=92 time=0
EXTRACT: note_on channel=11 note=55 velocity=92 time=0
EXTRACT: note_on channel=11 note=60 velocity=92 time=0
EXTRACT: note_on channel=11 note=63 velocity=92 time=0
EXTRACT: note_on channel=11 note=67 velocity=92 time=0
EXTRACT: note_on channel=0 note=74 velocity=127 time=0.041666625
EXTRACT: note_on channel=9 note=40 velocity=0 time=0.0347221875
EXTRACT: note_on channel=9 note=42 velocity=0 time=0
EXTRACT: note_on channel=7 note=58 velocity=0 time=0.08333325
EXTRACT: note_on channel=9 note=54 velocity=0 time=0
EXTRACT: note_on channel=9 note=82 velocity=0 time=0
EXTRACT: note_on channel=7 note=60 velocity=92 time=0.0069444375
EXTRACT: note_on channel=9 note=54 velocity=92 time=0
EXTRACT: note_on channel=5 note=55 velocity=0 time=0.0347221875
EXTRACT: note_on channel=5 note=60 velocity=0 time=0
EXTRACT: note_on channel=5 note=63 velocity=0 time=0
EXTRACT: note_on channel=9 note=54 velocity=0 time=0
EXTRACT: note_on channel=9 note=82 velocity=92 time=0.0069444375
EXTRACT: note_on channel=5 note=48 velocity=0 time=0.0763888125
EXTRACT: note_on channel=7 note=60 velocity=0 time=0.041666625
EXTRACT: note_on channel=9 note=82 velocity=0 time=0
EXTRACT: note_on channel=11 note=55 velocity=0 time=0
EXTRACT: note_on channel=11 note=60 velocity=0 time=0
EXTRACT: note_on channel=11 note=63 velocity=0 time=0
EXTRACT: note_on channel=11 note=67 velocity=0 time=0
EXTRACT: note_on channel=15 note=36 velocity=0 time=0
EXTRACT: note_on channel=7 note=62 velocity=92 time=0.0069444375
EXTRACT: note_on channel=9 note=54 velocity=92 time=0
EXTRACT: note_on channel=9 note=82 velocity=92 time=0
EXTRACT: note_on channel=9 note=42 velocity=92 time=0
EXTRACT: note_on channel=11 note=55 velocity=92 time=0
EXTRACT: note_on channel=11 note=60 velocity=92 time=0
EXTRACT: note_on channel=11 note=63 velocity=92 time=0
EXTRACT: note_on channel=11 note=67 velocity=92 time=0
EXTRACT: note_on channel=15 note=38 velocity=92 time=0
EXTRACT: note_on channel=0 note=74 velocity=0 time=0.0763888125
EXTRACT: note_on channel=9 note=42 velocity=0 time=0
EXTRACT: note_on channel=0 note=72 velocity=127 time=0.0069444375
EXTRACT: note_on channel=9 note=54 velocity=0 time=0.0763888125
EXTRACT: note_on channel=9 note=82 velocity=0 time=0
EXTRACT: note_on channel=3 note=63 velocity=0 time=0.0069444375
EXTRACT: note_on channel=3 note=67 velocity=0 time=0
EXTRACT: note_on channel=9 note=54 velocity=92 time=0
EXTRACT: note_on channel=13 note=72 velocity=0 time=0
EXTRACT: note_on channel=0 note=72 velocity=0 time=0.0347221875
EXTRACT: note_on channel=9 note=54 velocity=0 time=0
EXTRACT: note_on channel=0 note=70 velocity=127 time=0.0069444375
EXTRACT: note_on channel=9 note=82 velocity=92 time=0
EXTRACT: note_on channel=0 note=70 velocity=0 time=0.1180554375
EXTRACT: note_on channel=7 note=62 velocity=0 time=0
EXTRACT: note_on channel=9 note=82 velocity=0 time=0
EXTRACT: note_on channel=11 note=55 velocity=0 time=0
EXTRACT: note_on channel=11 note=60 velocity=0 time=0
EXTRACT: note_on channel=11 note=63 velocity=0 time=0
EXTRACT: note_on channel=11 note=67 velocity=0 time=0
EXTRACT: note_on channel=15 note=38 velocity=0 time=0
EXTRACT: note_on channel=3 note=70 velocity=92 time=0.0069444375
EXTRACT: note_on channel=5 note=55 velocity=92 time=0
EXTRACT: note_on channel=5 note=58 velocity=92 time=0
EXTRACT: note_on channel=5 note=63 velocity=92 time=0
EXTRACT: note_on channel=5 note=51 velocity=92 time=0
EXTRACT: note_on channel=9 note=54 velocity=92 time=0
EXTRACT: note_on channel=9 note=82 velocity=92 time=0
EXTRACT: note_on channel=9 note=35 velocity=92 time=0
EXTRACT: note_on channel=9 note=42 velocity=92 time=0
EXTRACT: note_on channel=11 note=55 velocity=92 time=0
EXTRACT: note_on channel=11 note=58 velocity=92 time=0
EXTRACT: note_on channel=11 note=63 velocity=92 time=0
EXTRACT: note_on channel=11 note=67 velocity=92 time=0
EXTRACT: note_on channel=13 note=75 velocity=92 time=0
EXTRACT: note_on channel=15 note=39 velocity=92 time=0
EXTRACT: note_on channel=7 note=58 velocity=92 time=0.041666625
EXTRACT: note_on channel=8 note=58 velocity=92 time=0
EXTRACT: note_on channel=9 note=35 velocity=0 time=0.0347221875
EXTRACT: note_on channel=9 note=42 velocity=0 time=0
EXTRACT: note_on channel=0 note=70 velocity=127 time=0.0069444375
EXTRACT: note_on channel=9 note=54 velocity=0 time=0.0763888125
EXTRACT: note_on channel=9 note=82 velocity=0 time=0
EXTRACT: note_on channel=11 note=55 velocity=0 time=0
EXTRACT: note_on channel=11 note=58 velocity=0 time=0
EXTRACT: note_on channel=11 note=63 velocity=0 time=0
EXTRACT: note_on channel=11 note=67 velocity=0 time=0
EXTRACT: note_on channel=9 note=54 velocity=92 time=0.0069444375
EXTRACT: note_on channel=7 note=58 velocity=0 time=0.0347221875
EXTRACT: note_on channel=8 note=58 velocity=0 time=0
EXTRACT: note_on channel=9 note=54 velocity=0 time=0
EXTRACT: note_on channel=7 note=60 velocity=92 time=0.0069444375
EXTRACT: note_on channel=8 note=60 velocity=92 time=0
EXTRACT: note_on channel=9 note=82 velocity=92 time=0
EXTRACT: note_on channel=7 note=60 velocity=0 time=0.1180554375
EXTRACT: note_on channel=8 note=60 velocity=0 time=0
EXTRACT: note_on channel=9 note=82 velocity=0 time=0
EXTRACT: note_on channel=7 note=62 velocity=92 time=0.0069444375
EXTRACT: note_on channel=8 note=62 velocity=92 time=0
EXTRACT: note_on channel=9 note=54 velocity=92 time=0
EXTRACT: note_on channel=9 note=82 velocity=92 time=0
EXTRACT: note_on channel=9 note=42 velocity=92 time=0
EXTRACT: note_on channel=11 note=55 velocity=92 time=0
EXTRACT: note_on channel=11 note=58 velocity=92 time=0
EXTRACT: note_on channel=11 note=63 velocity=92 time=0
EXTRACT: note_on channel=11 note=67 velocity=92 time=0
EXTRACT: note_on channel=0 note=70 velocity=0 time=0.0763888125
EXTRACT: note_on channel=9 note=42 velocity=0 time=0
EXTRACT: note_on channel=0 note=67 velocity=127 time=0.0069444375
EXTRACT: note_on channel=11 note=55 velocity=0 time=0.0347221875
EXTRACT: note_on channel=11 note=58 velocity=0 time=0
EXTRACT: note_on channel=11 note=63 velocity=0 time=0
EXTRACT: note_on channel=11 note=67 velocity=0 time=0
EXTRACT: note_on channel=15 note=39 velocity=0 time=0
EXTRACT: note_on channel=7 note=62 velocity=0 time=0.041666625
EXTRACT: note_on channel=8 note=62 velocity=0 time=0
EXTRACT: note_on channel=9 note=54 velocity=0 time=0
EXTRACT: note_on channel=9 note=82 velocity=0 time=0
EXTRACT: note_on channel=7 note=58 velocity=92 time=0.0069444375
EXTRACT: note_on channel=8 note=58 velocity=92 time=0
EXTRACT: note_on channel=9 note=54 velocity=92 time=0
EXTRACT: note_on channel=9 note=54 velocity=0 time=0.0347221875
EXTRACT: note_on channel=9 note=82 velocity=92 time=0.0069444375
EXTRACT: note_on channel=7 note=58 velocity=0 time=0.1180554375
EXTRACT: note_on channel=8 note=58 velocity=0 time=0
EXTRACT: note_on channel=9 note=82 velocity=0 time=0
EXTRACT: note_on channel=7 note=60 velocity=92 time=0.0069444375
EXTRACT: note_on channel=8 note=60 velocity=92 time=0
EXTRACT: note_on channel=9 note=54 velocity=92 time=0
EXTRACT: note_on channel=9 note=82 velocity=92 time=0
EXTRACT: note_on channel=9 note=40 velocity=92 time=0
EXTRACT: note_on channel=9 note=42 velocity=92 time=0
EXTRACT: note_on channel=11 note=55 velocity=92 time=0
EXTRACT: note_on channel=11 note=58 velocity=92 time=0
EXTRACT: note_on channel=11 note=63 velocity=92 time=0
EXTRACT: note_on channel=11 note=67 velocity=92 time=0
EXTRACT: note_on channel=15 note=39 velocity=92 time=0
EXTRACT: note_on channel=9 note=40 velocity=0 time=0.0763888125
EXTRACT: note_on channel=9 note=42 velocity=0 time=0
EXTRACT: note_on channel=7 note=60 velocity=0 time=0.08333325
EXTRACT: note_on channel=8 note=60 velocity=0 time=0
EXTRACT: note_on channel=9 note=54 velocity=0 time=0
EXTRACT: note_on channel=9 note=82 velocity=0 time=0
EXTRACT: note_on channel=7 note=62 velocity=92 time=0.0069444375
EXTRACT: note_on channel=8 note=62 velocity=92 time=0
EXTRACT: note_on channel=9 note=54 velocity=92 time=0
EXTRACT: note_on channel=9 note=54 velocity=0 time=0.0347221875
EXTRACT: note_on channel=9 note=82 velocity=92 time=0.0069444375
EXTRACT: note_on channel=7 note=62 velocity=0 time=0.1180554375
EXTRACT: note_on channel=8 note=62 velocity=0 time=0
EXTRACT: note_on channel=9 note=82 velocity=0 time=0
EXTRACT: note_on channel=11 note=55 velocity=0 time=0
EXTRACT: note_on channel=11 note=58 velocity=0 time=0
EXTRACT: note_on channel=11 note=63 velocity=0 time=0
EXTRACT: note_on channel=11 note=67 velocity=0 time=0
EXTRACT: note_on channel=7 note=58 velocity=92 time=0.0069444375
EXTRACT: note_on channel=8 note=58 velocity=92 time=0
EXTRACT: note_on channel=9 note=54 velocity=92 time=0
EXTRACT: note_on channel=9 note=82 velocity=92 time=0
EXTRACT: note_on channel=9 note=42 velocity=92 time=0
EXTRACT: note_on channel=9 note=42 velocity=0 time=0.0763888125
EXTRACT: note_on channel=7 note=58 velocity=0 time=0.08333325
EXTRACT: note_on channel=8 note=58 velocity=0 time=0
EXTRACT: note_on channel=9 note=54 velocity=0 time=0
EXTRACT: note_on channel=9 note=82 velocity=0 time=0
EXTRACT: note_on channel=3 note=70 velocity=0 time=0.0069444375
EXTRACT: note_on channel=7 note=60 velocity=92 time=0
EXTRACT: note_on channel=8 note=60 velocity=92 time=0
EXTRACT: note_on channel=9 note=54 velocity=92 time=0
EXTRACT: note_on channel=11 note=55 velocity=92 time=0
EXTRACT: note_on channel=11 note=58 velocity=92 time=0
EXTRACT: note_on channel=11 note=63 velocity=92 time=0
EXTRACT: note_on channel=11 note=67 velocity=92 time=0
EXTRACT: note_on channel=9 note=54 velocity=0 time=0.0347221875
EXTRACT: note_on channel=9 note=82 velocity=92 time=0.0069444375
EXTRACT: note_on channel=0 note=67 velocity=0 time=0.013888875
EXTRACT: note_on channel=15 note=39 velocity=0 time=0
EXTRACT: note_on channel=7 note=60 velocity=0 time=0.1041665625
EXTRACT: note_on channel=8 note=60 velocity=0 time=0
EXTRACT: note_on channel=9 note=82 velocity=0 time=0
EXTRACT: note_on channel=11 note=55 velocity=0 time=0
EXTRACT: note_on channel=11 note=58 velocity=0 time=0
EXTRACT: note_on channel=11 note=63 velocity=0 time=0
EXTRACT: note_on channel=11 note=67 velocity=0 time=0
EXTRACT: note_on channel=3 note=72 velocity=92 time=0.0069444375
EXTRACT: note_on channel=7 note=62 velocity=92 time=0
EXTRACT: note_on channel=8 note=62 velocity=92 time=0
EXTRACT: note_on channel=9 note=54 velocity=92 time=0
EXTRACT: note_on channel=9 note=35 velocity=92 time=0
EXTRACT: note_on channel=9 note=42 velocity=92 time=0
EXTRACT: note_on channel=11 note=55 velocity=92 time=0
EXTRACT: note_on channel=11 note=58 velocity=92 time=0
EXTRACT: note_on channel=11 note=63 velocity=92 time=0
EXTRACT: note_on channel=11 note=67 velocity=92 time=0
EXTRACT: note_on channel=15 note=36 velocity=92 time=0
EXTRACT: note_on channel=9 note=35 velocity=0 time=0.0763888125
EXTRACT: note_on channel=9 note=42 velocity=0 time=0
EXTRACT: note_on channel=7 note=62 velocity=0 time=0.08333325
EXTRACT: note_on channel=8 note=62 velocity=0 time=0
EXTRACT: note_on channel=9 note=54 velocity=0 time=0
EXTRACT: note_on channel=11 note=55 velocity=0 time=0
EXTRACT: note_on channel=11 note=58 velocity=0 time=0
EXTRACT: note_on channel=11 note=63 velocity=0 time=0
EXTRACT: note_on channel=11 note=67 velocity=0 time=0
EXTRACT: note_on channel=7 note=58 velocity=92 time=0.0069444375
EXTRACT: note_on channel=8 note=58 velocity=92 time=0
EXTRACT: note_on channel=9 note=54 velocity=92 time=0
EXTRACT: note_on channel=11 note=55 velocity=92 time=0
EXTRACT: note_on channel=11 note=58 velocity=92 time=0
EXTRACT: note_on channel=11 note=63 velocity=92 time=0
EXTRACT: note_on channel=11 note=67 velocity=92 time=0
EXTRACT: note_on channel=9 note=54 velocity=0 time=0.0347221875
EXTRACT: note_on channel=9 note=82 velocity=92 time=0.0069444375
EXTRACT: note_on channel=7 note=58 velocity=0 time=0.1180554375
EXTRACT: note_on channel=8 note=58 velocity=0 time=0
EXTRACT: note_on channel=9 note=82 velocity=0 time=0
EXTRACT: note_on channel=11 note=55 velocity=0 time=0
EXTRACT: note_on channel=11 note=58 velocity=0 time=0
EXTRACT: note_on channel=11 note=63 velocity=0 time=0
EXTRACT: note_on channel=11 note=67 velocity=0 time=0
EXTRACT: note_on channel=7 note=60 velocity=92 time=0.0069444375
EXTRACT: note_on channel=8 note=60 velocity=92 time=0
EXTRACT: note_on channel=9 note=54 velocity=92 time=0
EXTRACT: note_on channel=9 note=35 velocity=92 time=0
EXTRACT: note_on channel=9 note=46 velocity=92 time=0
EXTRACT: note_on channel=11 note=55 velocity=92 time=0
EXTRACT: note_on channel=11 note=58 velocity=92 time=0
EXTRACT: note_on channel=11 note=63 velocity=92 time=0
EXTRACT: note_on channel=11 note=67 velocity=92 time=0
EXTRACT: note_on channel=9 note=35 velocity=0 time=0.0763888125
EXTRACT: note_on channel=9 note=46 velocity=0 time=0
EXTRACT: note_on channel=7 note=60 velocity=0 time=0.08333325
EXTRACT: note_on channel=8 note=60 velocity=0 time=0
EXTRACT: note_on channel=9 note=54 velocity=0 time=0
EXTRACT: note_on channel=11 note=55 velocity=0 time=0
EXTRACT: note_on channel=11 note=58 velocity=0 time=0
EXTRACT: note_on channel=11 note=63 velocity=0 time=0
EXTRACT: note_on channel=11 note=67 velocity=0 time=0
EXTRACT: note_on channel=15 note=36 velocity=0 time=0
EXTRACT: note_on channel=7 note=62 velocity=92 time=0.0069444375
EXTRACT: note_on channel=8 note=62 velocity=92 time=0
EXTRACT: note_on channel=9 note=54 velocity=92 time=0
EXTRACT: note_on channel=11 note=55 velocity=92 time=0
EXTRACT: note_on channel=11 note=58 velocity=92 time=0
EXTRACT: note_on channel=11 note=63 velocity=92 time=0
EXTRACT: note_on channel=11 note=67 velocity=92 time=0
EXTRACT: note_on channel=9 note=54 velocity=0 time=0.0347221875
EXTRACT: note_on channel=9 note=82 velocity=92 time=0.0069444375
EXTRACT: note_on channel=3 note=72 velocity=0 time=0.013888875
EXTRACT: note_on channel=7 note=62 velocity=0 time=0.1041665625
EXTRACT: note_on channel=8 note=62 velocity=0 time=0
EXTRACT: note_on channel=9 note=82 velocity=0 time=0
EXTRACT: note_on channel=11 note=55 velocity=0 time=0
EXTRACT: note_on channel=11 note=58 velocity=0 time=0
EXTRACT: note_on channel=11 note=63 velocity=0 time=0
EXTRACT: note_on channel=11 note=67 velocity=0 time=0
EXTRACT: note_on channel=3 note=74 velocity=92 time=0.0069444375
EXTRACT: note_on channel=7 note=58 velocity=92 time=0
EXTRACT: note_on channel=8 note=58 velocity=92 time=0
EXTRACT: note_on channel=9 note=54 velocity=92 time=0
EXTRACT: note_on channel=9 note=82 velocity=92 time=0
EXTRACT: note_on channel=9 note=40 velocity=92 time=0
EXTRACT: note_on channel=9 note=42 velocity=92 time=0
EXTRACT: note_on channel=11 note=55 velocity=92 time=0
EXTRACT: note_on channel=11 note=58 velocity=92 time=0
EXTRACT: note_on channel=11 note=63 velocity=92 time=0
EXTRACT: note_on channel=11 note=67 velocity=92 time=0
EXTRACT: note_on channel=15 note=36 velocity=92 time=0
EXTRACT: note_on channel=9 note=40 velocity=0 time=0.0347221875
EXTRACT: note_on channel=9 note=42 velocity=0 time=0
EXTRACT: note_on channel=9 note=40 velocity=92 time=0.0069444375
EXTRACT: note_on channel=9 note=40 velocity=0 time=0.0347221875
EXTRACT: note_on channel=7 note=58 velocity=0 time=0.08333325
EXTRACT: note_on channel=8 note=58 velocity=0 time=0
EXTRACT: note_on channel=9 note=54 velocity=0 time=0
EXTRACT: note_on channel=9 note=82 velocity=0 time=0
EXTRACT: note_on channel=12 note=67 velocity=0 time=0
EXTRACT: note_on channel=12 note=75 velocity=0 time=0
EXTRACT: note_on channel=15 note=36 velocity=0 time=0
EXTRACT: note_on channel=7 note=60 velocity=92 time=0.0069444375
EXTRACT: note_on channel=8 note=60 velocity=92 time=0
EXTRACT: note_on channel=9 note=54 velocity=92 time=0
EXTRACT: note_on channel=15 note=39 velocity=92 time=0
EXTRACT: note_on channel=9 note=54 velocity=0 time=0.0347221875
EXTRACT: note_on channel=9 note=82 velocity=92 time=0.0069444375
EXTRACT: note_on channel=7 note=60 velocity=0 time=0.1180554375
EXTRACT: note_on channel=8 note=60 velocity=0 time=0
EXTRACT: note_on channel=9 note=82 velocity=0 time=0
EXTRACT: note_on channel=11 note=55 velocity=0 time=0
EXTRACT: note_on channel=11 note=58 velocity=0 time=0
EXTRACT: note_on channel=11 note=63 velocity=0 time=0
EXTRACT: note_on channel=11 note=67 velocity=0 time=0
EXTRACT: note_on channel=15 note=39 velocity=0 time=0
EXTRACT: note_on channel=7 note=62 velocity=92 time=0.0069444375
EXTRACT: note_on channel=8 note=62 velocity=92 time=0
EXTRACT: note_on channel=9 note=54 velocity=92 time=0
EXTRACT: note_on channel=9 note=82 velocity=92 time=0
EXTRACT: note_on channel=9 note=40 velocity=92 time=0
EXTRACT: note_on channel=9 note=42 velocity=92 time=0
EXTRACT: note_on channel=11 note=55 velocity=92 time=0
EXTRACT: note_on channel=11 note=58 velocity=92 time=0
EXTRACT: note_on channel=11 note=63 velocity=92 time=0
EXTRACT: note_on channel=11 note=67 velocity=92 time=0
EXTRACT: note_on channel=15 note=41 velocity=92 time=0
EXTRACT: note_on channel=9 note=54 velocity=0 time=0.1597220625
EXTRACT: note_on channel=9 note=82 velocity=0 time=0
EXTRACT: note_on channel=9 note=40 velocity=0 time=0
EXTRACT: note_on channel=9 note=42 velocity=0 time=0
EXTRACT: note_on channel=5 note=55 velocity=0 time=0.0069444375
EXTRACT: note_on channel=5 note=58 velocity=0 time=0
EXTRACT: note_on channel=5 note=63 velocity=0 time=0
EXTRACT: note_on channel=5 note=51 velocity=0 time=0
EXTRACT: note_on channel=9 note=54 velocity=92 time=0
EXTRACT: note_on channel=9 note=40 velocity=92 time=0
EXTRACT: note_on channel=9 note=54 velocity=0 time=0.0347221875
EXTRACT: note_on channel=9 note=82 velocity=92 time=0.0069444375
EXTRACT: note_on channel=3 note=74 velocity=0 time=0.013888875
EXTRACT: note_on channel=13 note=75 velocity=0 time=0.0624999375
EXTRACT: note_on channel=13 note=70 velocity=92 time=0.0069444375
EXTRACT: note_on channel=7 note=62 velocity=0 time=0.0347221875
EXTRACT: note_on channel=8 note=62 velocity=0 time=0
EXTRACT: note_on channel=9 note=82 velocity=0 time=0
EXTRACT: note_on channel=9 note=40 velocity=0 time=0
EXTRACT: note_on channel=11 note=55 velocity=0 time=0
EXTRACT: note_on channel=11 note=58 velocity=0 time=0
EXTRACT: note_on channel=11 note=63 velocity=0 time=0
EXTRACT: note_on channel=11 note=67 velocity=0 time=0
EXTRACT: note_on channel=15 note=41 velocity=0 time=0
EXTRACT: note_on channel=0 note=82 velocity=127 time=0.0069444375
EXTRACT: note_on channel=3 note=58 velocity=92 time=0
EXTRACT: note_on channel=3 note=65 velocity=92 time=0
EXTRACT: note_on channel=3 note=70 velocity=92 time=0
EXTRACT: note_on channel=3 note=74 velocity=92 time=0
EXTRACT: note_on channel=5 note=53 velocity=92 time=0
EXTRACT: note_on channel=5 note=58 velocity=92 time=0
EXTRACT: note_on channel=5 note=62 velocity=92 time=0
EXTRACT: note_on channel=5 note=46 velocity=92 time=0
EXTRACT: note_on channel=9 note=54 velocity=92 time=0
EXTRACT: note_on channel=9 note=57 velocity=92 time=0
EXTRACT: note_on channel=9 note=82 velocity=92 time=0
EXTRACT: note_on channel=9 note=35 velocity=92 time=0
EXTRACT: note_on channel=9 note=42 velocity=92 time=0
EXTRACT: note_on channel=9 note=52 velocity=92 time=0
EXTRACT: note_on channel=11 note=53 velocity=92 time=0
EXTRACT: note_on channel=11 note=58 velocity=92 time=0
EXTRACT: note_on channel=11 note=62 velocity=92 time=0
EXTRACT: note_on channel=11 note=65 velocity=92 time=0
EXTRACT: note_on channel=12 note=70 velocity=92 time=0
EXTRACT: note_on channel=12 note=77 velocity=92 time=0
EXTRACT: note_on channel=15 note=34 velocity=92 time=0
EXTRACT: note_on channel=7 note=58 velocity=92 time=0.041666625
EXTRACT: note_on channel=9 note=35 velocity=0 time=0.0347221875
EXTRACT: note_on channel=9 note=42 velocity=0 time=0
EXTRACT: note_on channel=9 note=52 velocity=0 time=0
EXTRACT: note_on channel=9 note=54 velocity=0 time=0.08333325
EXTRACT: note_on channel=9 note=57 velocity=0 time=0
EXTRACT: note_on channel=9 note=82 velocity=0 time=0
EXTRACT: note_on channel=11 note=53 velocity=0 time=0
EXTRACT: note_on channel=11 note=58 velocity=0 time=0
EXTRACT: note_on channel=11 note=62 velocity=0 time=0
EXTRACT: note_on channel=11 note=65 velocity=0 time=0
EXTRACT: note_on channel=9 note=54 velocity=92 time=0.0069444375
EXTRACT: note_on channel=7 note=58 velocity=0 time=0.0347221875
EXTRACT: note_on channel=9 note=54 velocity=0 time=0
EXTRACT: note_on channel=7 note=60 velocity=92 time=0.0069444375
EXTRACT: note_on channel=9 note=82 velocity=92 time=0
EXTRACT: note_on channel=7 note=60 velocity=0 time=0.1180554375
EXTRACT: note_on channel=9 note=82 velocity=0 time=0
EXTRACT: note_on channel=7 note=62 velocity=92 time=0.0069444375
EXTRACT: note_on channel=9 note=54 velocity=92 time=0
EXTRACT: note_on channel=9 note=82 velocity=92 time=0
EXTRACT: note_on channel=9 note=42 velocity=92 time=0
EXTRACT: note_on channel=11 note=53 velocity=92 time=0
EXTRACT: note_on channel=11 note=58 velocity=92 time=0
EXTRACT: note_on channel=11 note=62 velocity=92 time=0
EXTRACT: note_on channel=11 note=65 velocity=92 time=0
EXTRACT: note_on channel=9 note=42 velocity=0 time=0.0763888125
EXTRACT: note_on channel=11 note=53 velocity=0 time=0.041666625
EXTRACT: note_on channel=11 note=58 velocity=0 time=0
EXTRACT: note_on channel=11 note=62 velocity=0 time=0
EXTRACT: note_on channel=11 note=65 velocity=0 time=0
EXTRACT: note_on channel=7 note=62 velocity=0 time=0.041666625
EXTRACT: note_on channel=9 note=54 velocity=0 time=0
EXTRACT: note_on channel=9 note=82 velocity=0 time=0
EXTRACT: note_on channel=7 note=58 velocity=92 time=0.0069444375
EXTRACT: note_on channel=9 note=54 velocity=92 time=0
EXTRACT: note_on channel=9 note=54 velocity=0 time=0.0347221875
EXTRACT: note_on channel=9 note=82 velocity=92 time=0.0069444375
EXTRACT: note_on channel=7 note=58 velocity=0 time=0.1180554375
EXTRACT: note_on channel=9 note=82 velocity=0 time=0
EXTRACT: note_on channel=7 note=60 velocity=92 time=0.0069444375
EXTRACT: note_on channel=9 note=54 velocity=92 time=0
EXTRACT: note_on channel=9 note=82 velocity=92 time=0
EXTRACT: note_on channel=9 note=40 velocity=92 time=0
EXTRACT: note_on channel=9 note=42 velocity=92 time=0
EXTRACT: note_on channel=11 note=53 velocity=92 time=0
EXTRACT: note_on channel=11 note=58 velocity=92 time=0
EXTRACT: note_on channel=11 note=62 velocity=92 time=0
EXTRACT: note_on channel=11 note=65 velocity=92 time=0
EXTRACT: note_on channel=0 note=82 velocity=0 time=0.0347221875
EXTRACT: note_on channel=0 note=77 velocity=127 time=0.0069444375
EXTRACT: note_on channel=9 note=40 velocity=0 time=0.0347221875
EXTRACT: note_on channel=9 note=42 velocity=0 time=0
EXTRACT: note_on channel=7 note=60 velocity=0 time=0.08333325
EXTRACT: note_on channel=9 note=54 velocity=0 time=0
EXTRACT: note_on channel=9 note=82 velocity=0 time=0
EXTRACT: note_on channel=7 note=62 velocity=92 time=0.0069444375
EXTRACT: note_on channel=9 note=54 velocity=92 time=0
EXTRACT: note_on channel=9 note=54 velocity=0 time=0.0347221875
EXTRACT: note_on channel=9 note=82 velocity=92 time=0.0069444375
EXTRACT: note_on channel=0 note=77 velocity=0 time=0.1180554375
EXTRACT: note_on channel=7 note=62 velocity=0 time=0
EXTRACT: note_on channel=9 note=82 velocity=0 time=0
EXTRACT: note_on channel=11 note=53 velocity=0 time=0
EXTRACT: note_on channel=11 note=58 velocity=0 time=0
EXTRACT: note_on channel=11 note=62 velocity=0 time=0
EXTRACT: note_on channel=11 note=65 velocity=0 time=0
EXTRACT: note_on channel=0 note=79 velocity=127 time=0.0069444375
EXTRACT: note_on channel=7 note=58 velocity=92 time=0
EXTRACT: note_on channel=9 note=54 velocity=92 time=0
EXTRACT: note_on channel=9 note=82 velocity=92 time=0
EXTRACT: note_on channel=9 note=42 velocity=92 time=0
EXTRACT: note_on channel=9 note=42 velocity=0 time=0.0763888125
EXTRACT: note_on channel=7 note=58 velocity=0 time=0.08333325
EXTRACT: note_on channel=9 note=54 velocity=0 time=0
EXTRACT: note_on channel=9 note=82 velocity=0 time=0
EXTRACT: note_on channel=15 note=34 velocity=0 time=0
EXTRACT: note_on channel=7 note=60 velocity=92 time=0.0069444375
EXTRACT: note_on channel=9 note=54 velocity=92 time=0
EXTRACT: note_on channel=11 note=53 velocity=92 time=0
EXTRACT: note_on channel=11 note=58 velocity=92 time=0
EXTRACT: note_on channel=11 note=62 velocity=92 time=0
EXTRACT: note_on channel=11 note=65 velocity=92 time=0
EXTRACT: note_on channel=15 note=34 velocity=92 time=0
EXTRACT: note_on channel=0 note=79 velocity=0 time=0.0347221875
EXTRACT: note_on channel=9 note=54 velocity=0 time=0
EXTRACT: note_on channel=0 note=79 velocity=127 time=0.0069444375
EXTRACT: note_on channel=9 note=82 velocity=92 time=0
EXTRACT: note_on channel=7 note=60 velocity=0 time=0.1180554375
EXTRACT: note_on channel=9 note=82 velocity=0 time=0
EXTRACT: note_on channel=11 note=53 velocity=0 time=0
EXTRACT: note_on channel=11 note=58 velocity=0 time=0
EXTRACT: note_on channel=11 note=62 velocity=0 time=0
EXTRACT: note_on channel=11 note=65 velocity=0 time=0
EXTRACT: note_on channel=15 note=34 velocity=0 time=0
EXTRACT: note_on channel=7 note=62 velocity=92 time=0.0069444375
EXTRACT: note_on channel=9 note=54 velocity=92 time=0
EXTRACT: note_on channel=9 note=35 velocity=92 time=0
EXTRACT: note_on channel=9 note=42 velocity=92 time=0
EXTRACT: note_on channel=11 note=53 velocity=92 time=0
EXTRACT: note_on channel=11 note=58 velocity=92 time=0
EXTRACT: note_on channel=11 note=62 velocity=92 time=0
EXTRACT: note_on channel=11 note=65 velocity=92 time=0
EXTRACT: note_on channel=15 note=29 velocity=92 time=0
EXTRACT: note_on channel=9 note=35 velocity=0 time=0.0763888125
EXTRACT: note_on channel=9 note=42 velocity=0 time=0
EXTRACT: note_on channel=7 note=62 velocity=0 time=0.08333325
EXTRACT: note_on channel=9 note=54 velocity=0 time=0
EXTRACT: note_on channel=11 note=53 velocity=0 time=0
EXTRACT: note_on channel=11 note=58 velocity=0 time=0
EXTRACT: note_on channel=11 note=62 velocity=0 time=0
EXTRACT: note_on channel=11 note=65 velocity=0 time=0
EXTRACT: note_on channel=15 note=29 velocity=0 time=0
EXTRACT: note_on channel=7 note=58 velocity=92 time=0.0069444375
EXTRACT: note_on channel=9 note=54 velocity=92 time=0
EXTRACT: note_on channel=11 note=53 velocity=92 time=0
EXTRACT: note_on channel=11 note=58 velocity=92 time=0
EXTRACT: note_on channel=11 note=62 velocity=92 time=0
EXTRACT: note_on channel=11 note=65 velocity=92 time=0
EXTRACT: note_on channel=15 note=31 velocity=92 time=0
EXTRACT: note_on channel=9 note=54 velocity=0 time=0.0347221875
EXTRACT: note_on channel=9 note=82 velocity=92 time=0.0069444375
EXTRACT: note_on channel=0 note=79 velocity=0 time=0.1180554375
EXTRACT: note_on channel=7 note=58 velocity=0 time=0
EXTRACT: note_on channel=9 note=82 velocity=0 time=0
EXTRACT: note_on channel=11 note=53 velocity=0 time=0
EXTRACT: note_on channel=11 note=58 velocity=0 time=0
EXTRACT: note_on channel=11 note=62 velocity=0 time=0
EXTRACT: note_on channel=11 note=65 velocity=0 time=0
EXTRACT: note_on channel=15 note=31 velocity=0 time=0
EXTRACT: note_on channel=0 note=77 velocity=127 time=0.0069444375
EXTRACT: note_on channel=7 note=60 velocity=92 time=0
EXTRACT: note_on channel=9 note=54 velocity=92 time=0
EXTRACT: note_on channel=9 note=35 velocity=92 time=0
EXTRACT: note_on channel=9 note=46 velocity=92 time=0
EXTRACT: note_on channel=11 note=53 velocity=92 time=0
EXTRACT: note_on channel=11 note=58 velocity=92 time=0
EXTRACT: note_on channel=11 note=62 velocity=92 time=0
EXTRACT: note_on channel=11 note=65 velocity=92 time=0
EXTRACT: note_on channel=15 note=34 velocity=92 time=0
EXTRACT: note_on channel=9 note=35 velocity=0 time=0.0763888125
EXTRACT: note_on channel=9 note=46 velocity=0 time=0
EXTRACT: note_on channel=7 note=60 velocity=0 time=0.08333325
EXTRACT: note_on channel=9 note=54 velocity=0 time=0
EXTRACT: note_on channel=11 note=53 velocity=0 time=0
EXTRACT: note_on channel=11 note=58 velocity=0 time=0
EXTRACT: note_on channel=11 note=62 velocity=0 time=0
EXTRACT: note_on channel=11 note=65 velocity=0 time=0
EXTRACT: note_on channel=7 note=62 velocity=92 time=0.0069444375
EXTRACT: note_on channel=9 note=54 velocity=92 time=0
EXTRACT: note_on channel=11 note=53 velocity=92 time=0
EXTRACT: note_on channel=11 note=58 velocity=92 time=0
EXTRACT: note_on channel=11 note=62 velocity=92 time=0
EXTRACT: note_on channel=11 note=65 velocity=92 time=0
EXTRACT: note_on channel=9 note=54 velocity=0 time=0.0347221875
EXTRACT: note_on channel=9 note=82 velocity=92 time=0.0069444375
EXTRACT: note_on channel=0 note=77 velocity=0 time=0.1180554375
EXTRACT: note_on channel=7 note=62 velocity=0 time=0
EXTRACT: note_on channel=9 note=82 velocity=0 time=0
EXTRACT: note_on channel=11 note=53 velocity=0 time=0
EXTRACT: note_on channel=11 note=58 velocity=0 time=0
EXTRACT: note_on channel=11 note=62 velocity=0 time=0
EXTRACT: note_on channel=11 note=65 velocity=0 time=0
EXTRACT: note_on channel=15 note=34 velocity=0 time=0
EXTRACT: note_on channel=0 note=77 velocity=127 time=0.0069444375
EXTRACT: note_on channel=7 note=58 velocity=92 time=0
EXTRACT: note_on channel=9 note=54 velocity=92 time=0
EXTRACT: note_on channel=9 note=82 velocity=92 time=0
EXTRACT: note_on channel=9 note=40 velocity=92 time=0
EXTRACT: note_on channel=9 note=42 velocity=92 time=0
EXTRACT: note_on channel=11 note=53 velocity=92 time=0
EXTRACT: note_on channel=11 note=58 velocity=92 time=0
EXTRACT: note_on channel=11 note=62 velocity=92 time=0
EXTRACT: note_on channel=11 note=65 velocity=92 time=0
EXTRACT: note_on channel=15 note=38 velocity=92 time=0
EXTRACT: note_on channel=9 note=40 velocity=0 time=0.0763888125
EXTRACT: note_on channel=9 note=42 velocity=0 time=0
EXTRACT: note_on channel=5 note=53 velocity=0 time=0.08333325
EXTRACT: note_on channel=5 note=58 velocity=0 time=0
EXTRACT: note_on channel=5 note=62 velocity=0 time=0
EXTRACT: note_on channel=5 note=46 velocity=0 time=0
EXTRACT: note_on channel=7 note=58 velocity=0 time=0
EXTRACT: note_on channel=9 note=54 velocity=0 time=0
EXTRACT: note_on channel=9 note=82 velocity=0 time=0
EXTRACT: note_on channel=7 note=60 velocity=92 time=0.0069444375
EXTRACT: note_on channel=9 note=54 velocity=92 time=0
EXTRACT: note_on channel=0 note=77 velocity=0 time=0.0347221875
EXTRACT: note_on channel=9 note=54 velocity=0 time=0
EXTRACT: note_on channel=0 note=75 velocity=127 time=0.0069444375
EXTRACT: note_on channel=9 note=82 velocity=92 time=0
EXTRACT: note_on channel=7 note=60 velocity=0 time=0.1180554375
EXTRACT: note_on channel=9 note=82 velocity=0 time=0
EXTRACT: note_on channel=11 note=53 velocity=0 time=0
EXTRACT: note_on channel=11 note=58 velocity=0 time=0
EXTRACT: note_on channel=11 note=62 velocity=0 time=0
EXTRACT: note_on channel=11 note=65 velocity=0 time=0
EXTRACT: note_on channel=15 note=38 velocity=0 time=0
EXTRACT: note_on channel=7 note=62 velocity=92 time=0.0069444375
EXTRACT: note_on channel=9 note=54 velocity=92 time=0
EXTRACT: note_on channel=9 note=82 velocity=92 time=0
EXTRACT: note_on channel=9 note=42 velocity=92 time=0
EXTRACT: note_on channel=11 note=53 velocity=92 time=0
EXTRACT: note_on channel=11 note=58 velocity=92 time=0
EXTRACT: note_on channel=11 note=62 velocity=92 time=0
EXTRACT: note_on channel=11 note=65 velocity=92 time=0
EXTRACT: note_on channel=15 note=34 velocity=92 time=0
EXTRACT: note_on channel=0 note=75 velocity=0 time=0.0347221875
EXTRACT: note_on channel=0 note=74 velocity=127 time=0.0069444375
EXTRACT: note_on channel=9 note=42 velocity=0 time=0.0347221875
EXTRACT: note_on channel=0 note=74 velocity=0 time=0.08333325
EXTRACT: note_on channel=9 note=54 velocity=0 time=0
EXTRACT: note_on channel=9 note=82 velocity=0 time=0
EXTRACT: note_on channel=0 note=75 velocity=127 time=0.0069444375
EXTRACT: note_on channel=3 note=58 velocity=0 time=0
EXTRACT: note_on channel=3 note=65 velocity=0 time=0
EXTRACT: note_on channel=3 note=70 velocity=0 time=0
EXTRACT: note_on channel=3 note=74 velocity=0 time=0
EXTRACT: note_on channel=9 note=54 velocity=92 time=0
EXTRACT: note_on channel=12 note=70 velocity=0 time=0
EXTRACT: note_on channel=12 note=77 velocity=0 time=0
EXTRACT: note_on channel=13 note=70 velocity=0 time=0
EXTRACT: note_on channel=9 note=54 velocity=0 time=0.0347221875
EXTRACT: note_on channel=9 note=82 velocity=92 time=0.0069444375
EXTRACT: note_on channel=0 note=75 velocity=0 time=0.1180554375
EXTRACT: note_on channel=7 note=62 velocity=0 time=0
EXTRACT: note_on channel=9 note=82 velocity=0 time=0
EXTRACT: note_on channel=11 note=53 velocity=0 time=0
EXTRACT: note_on channel=11 note=58 velocity=0 time=0
EXTRACT: note_on channel=11 note=62 velocity=0 time=0
EXTRACT: note_on channel=11 note=65 velocity=0 time=0
EXTRACT: note_on channel=15 note=34 velocity=0 time=0
EXTRACT: note_on channel=3 note=57 velocity=92 time=0.0069444375
EXTRACT: note_on channel=3 note=69 velocity=92 time=0
EXTRACT: note_on channel=5 note=53 velocity=92 time=0
EXTRACT: note_on channel=5 note=57 velocity=92 time=0
EXTRACT: note_on channel=5 note=60 velocity=92 time=0
EXTRACT: note_on channel=5 note=41 velocity=92 time=0
EXTRACT: note_on channel=9 note=54 velocity=92 time=0
EXTRACT: note_on channel=9 note=82 velocity=92 time=0
EXTRACT: note_on channel=9 note=35 velocity=92 time=0
EXTRACT: note_on channel=9 note=42 velocity=92 time=0
EXTRACT: note_on channel=11 note=53 velocity=92 time=0
EXTRACT: note_on channel=11 note=57 velocity=92 time=0
EXTRACT: note_on channel=11 note=60 velocity=92 time=0
EXTRACT: note_on channel=11 note=65 velocity=92 time=0
EXTRACT: note_on channel=12 note=69 velocity=92 time=0
EXTRACT: note_on channel=13 note=65 velocity=92 time=0
EXTRACT: note_on channel=15 note=29 velocity=92 time=0
EXTRACT: note_on channel=0 note=75 velocity=127 time=0.041666625
EXTRACT: note_on channel=7 note=58 velocity=92 time=0
EXTRACT: note_on channel=9 note=35 velocity=0 time=0.0347221875
EXTRACT: note_on channel=9 note=42 velocity=0 time=0
EXTRACT: note_on channel=9 note=54 velocity=0 time=0.08333325
EXTRACT: note_on channel=9 note=82 velocity=0 time=0
EXTRACT: note_on channel=11 note=53 velocity=0 time=0
EXTRACT: note_on channel=11 note=57 velocity=0 time=0
EXTRACT: note_on channel=11 note=60 velocity=0 time=0
EXTRACT: note_on channel=11 note=65 velocity=0 time=0
EXTRACT: note_on channel=9 note=54 velocity=92 time=0.0069444375
EXTRACT: note_on channel=7 note=58 velocity=0 time=0.0347221875
EXTRACT: note_on channel=9 note=54 velocity=0 time=0
EXTRACT: note_on channel=7 note=60 velocity=92 time=0.0069444375
EXTRACT: note_on channel=9 note=82 velocity=92 time=0
EXTRACT: note_on channel=7 note=60 velocity=0 time=0.1180554375
EXTRACT: note_on channel=9 note=82 velocity=0 time=0
EXTRACT: note_on channel=7 note=62 velocity=92 time=0.0069444375
EXTRACT: note_on channel=9 note=54 velocity=92 time=0
EXTRACT: note_on channel=9 note=82 velocity=92 time=0
EXTRACT: note_on channel=9 note=42 velocity=92 time=0
EXTRACT: note_on channel=11 note=53 velocity=92 time=0
EXTRACT: note_on channel=11 note=57 velocity=92 time=0
EXTRACT: note_on channel=11 note=60 velocity=92 time=0
EXTRACT: note_on channel=11 note=65 velocity=92 time=0
EXTRACT: note_on channel=9 note=42 velocity=0 time=0.0763888125
EXTRACT: note_on channel=11 note=53 velocity=0 time=0.041666625
EXTRACT: note_on channel=11 note=57 velocity=0 time=0
EXTRACT: note_on channel=11 note=60 velocity=0 time=0
EXTRACT: note_on channel=11 note=65 velocity=0 time=0
EXTRACT: note_on channel=0 note=75 velocity=0 time=0.041666625
EXTRACT: note_on channel=7 note=62 velocity=0 time=0
EXTRACT: note_on channel=9 note=54 velocity=0 time=0
EXTRACT: note_on channel=9 note=82 velocity=0 time=0
EXTRACT: note_on channel=0 note=74 velocity=127 time=0.0069444375
EXTRACT: note_on channel=7 note=58 velocity=92 time=0
EXTRACT: note_on channel=9 note=54 velocity=92 time=0
EXTRACT: note_on channel=9 note=54 velocity=0 time=0.0347221875
EXTRACT: note_on channel=9 note=82 velocity=92 time=0.0069444375
EXTRACT: note_on channel=7 note=58 velocity=0 time=0.1180554375
EXTRACT: note_on channel=9 note=82 velocity=0 time=0
EXTRACT: note_on channel=7 note=60 velocity=92 time=0.0069444375
EXTRACT: note_on channel=9 note=54 velocity=92 time=0
EXTRACT: note_on channel=9 note=82 velocity=92 time=0
EXTRACT: note_on channel=9 note=40 velocity=92 time=0
EXTRACT: note_on channel=9 note=42 velocity=92 time=0
EXTRACT: note_on channel=11 note=53 velocity=92 time=0
EXTRACT: note_on channel=11 note=57 velocity=92 time=0
EXTRACT: note_on channel=11 note=60 velocity=92 time=0
EXTRACT: note_on channel=11 note=65 velocity=92 time=0
EXTRACT: note_on channel=9 note=40 velocity=0 time=0.0763888125
EXTRACT: note_on channel=9 note=42 velocity=0 time=0
EXTRACT: note_on channel=7 note=60 velocity=0 time=0.08333325
EXTRACT: note_on channel=9 note=54 velocity=0 time=0
EXTRACT: note_on channel=9 note=82 velocity=0 time=0
EXTRACT: note_on channel=7 note=62 velocity=92 time=0.0069444375
EXTRACT: note_on channel=9 note=54 velocity=92 time=0
EXTRACT: note_on channel=9 note=54 velocity=0 time=0.0347221875
EXTRACT: note_on channel=9 note=82 velocity=92 time=0.0069444375
EXTRACT: note_on channel=15 note=29 velocity=0 time=0.0763888125
EXTRACT: note_on channel=7 note=62 velocity=0 time=0.041666625
EXTRACT: note_on channel=9 note=82 velocity=0 time=0
EXTRACT: note_on channel=11 note=53 velocity=0 time=0
EXTRACT: note_on channel=11 note=57 velocity=0 time=0
EXTRACT: note_on channel=11 note=60 velocity=0 time=0
EXTRACT: note_on channel=11 note=65 velocity=0 time=0
EXTRACT: note_on channel=7 note=58 velocity=92 time=0.0069444375
EXTRACT: note_on channel=9 note=54 velocity=92 time=0
EXTRACT: note_on channel=9 note=82 velocity=92 time=0
EXTRACT: note_on channel=9 note=42 velocity=92 time=0
EXTRACT: note_on channel=9 note=42 velocity=0 time=0.0763888125
EXTRACT: note_on channel=0 note=74 velocity=0 time=0.08333325
EXTRACT: note_on channel=7 note=58 velocity=0 time=0
EXTRACT: note_on channel=9 note=54 velocity=0 time=0
EXTRACT: note_on channel=9 note=82 velocity=0 time=0
EXTRACT: note_on channel=7 note=60 velocity=92 time=0.0069444375
EXTRACT: note_on channel=9 note=54 velocity=92 time=0
EXTRACT: note_on channel=11 note=53 velocity=92 time=0
EXTRACT: note_on channel=11 note=57 velocity=92 time=0
EXTRACT: note_on channel=11 note=60 velocity=92 time=0
EXTRACT: note_on channel=11 note=65 velocity=92 time=0
EXTRACT: note_on channel=15 note=29 velocity=92 time=0
EXTRACT: note_on channel=9 note=54 velocity=0 time=0.0347221875
EXTRACT: note_on channel=9 note=82 velocity=92 time=0.0069444375
EXTRACT: note_on channel=7 note=60 velocity=0 time=0.1180554375
EXTRACT: note_on channel=9 note=82 velocity=0 time=0
EXTRACT: note_on channel=11 note=53 velocity=0 time=0
EXTRACT: note_on channel=11 note=57 velocity=0 time=0
EXTRACT: note_on channel=11 note=60 velocity=0 time=0
EXTRACT: note_on channel=11 note=65 velocity=0 time=0
EXTRACT: note_on channel=15 note=29 velocity=0 time=0
EXTRACT: note_on channel=7 note=62 velocity=92 time=0.0069444375
EXTRACT: note_on channel=8 note=62 velocity=92 time=0
EXTRACT: note_on channel=9 note=54 velocity=92 time=0
EXTRACT: note_on channel=9 note=35 velocity=92 time=0
EXTRACT: note_on channel=9 note=42 velocity=92 time=0
EXTRACT: note_on channel=11 note=53 velocity=92 time=0
EXTRACT: note_on channel=11 note=57 velocity=92 time=0
EXTRACT: note_on channel=11 note=60 velocity=92 time=0
EXTRACT: note_on channel=11 note=65 velocity=92 time=0
EXTRACT: note_on channel=15 note=29 velocity=92 time=0
EXTRACT: note_on channel=9 note=35 velocity=0 time=0.0763888125
EXTRACT: note_on channel=9 note=42 velocity=0 time=0
EXTRACT: note_on channel=7 note=62 velocity=0 time=0.08333325
EXTRACT: note_on channel=8 note=62 velocity=0 time=0
EXTRACT: note_on channel=9 note=54 velocity=0 time=0
EXTRACT: note_on channel=11 note=53 velocity=0 time=0
EXTRACT: note_on channel=11 note=57 velocity=0 time=0
EXTRACT: note_on channel=11 note=60 velocity=0 time=0
EXTRACT: note_on channel=11 note=65 velocity=0 time=0
EXTRACT: note_on channel=15 note=29 velocity=0 time=0
EXTRACT: note_on channel=0 note=74 velocity=127 time=0.0069444375
EXTRACT: note_on channel=7 note=58 velocity=92 time=0
EXTRACT: note_on channel=8 note=58 velocity=92 time=0
EXTRACT: note_on channel=9 note=54 velocity=92 time=0
EXTRACT: note_on channel=11 note=53 velocity=92 time=0
EXTRACT: note_on channel=11 note=57 velocity=92 time=0
EXTRACT: note_on channel=11 note=60 velocity=92 time=0
EXTRACT: note_on channel=11 note=65 velocity=92 time=0
EXTRACT: note_on channel=15 note=27 velocity=92 time=0
EXTRACT: note_on channel=9 note=54 velocity=0 time=0.0347221875
EXTRACT: note_on channel=9 note=82 velocity=92 time=0.0069444375
EXTRACT: note_on channel=7 note=58 velocity=0 time=0.1180554375
EXTRACT: note_on channel=8 note=58 velocity=0 time=0
EXTRACT: note_on channel=9 note=82 velocity=0 time=0
EXTRACT: note_on channel=11 note=53 velocity=0 time=0
EXTRACT: note_on channel=11 note=57 velocity=0 time=0
EXTRACT: note_on channel=11 note=60 velocity=0 time=0
EXTRACT: note_on channel=11 note=65 velocity=0 time=0
EXTRACT: note_on channel=15 note=27 velocity=0 time=0
EXTRACT: note_on channel=7 note=60 velocity=92 time=0.0069444375
EXTRACT: note_on channel=8 note=60 velocity=92 time=0
EXTRACT: note_on channel=9 note=54 velocity=92 time=0
EXTRACT: note_on channel=9 note=35 velocity=92 time=0
EXTRACT: note_on channel=9 note=42 velocity=92 time=0
EXTRACT: note_on channel=11 note=53 velocity=92 time=0
EXTRACT: note_on channel=11 note=57 velocity=92 time=0
EXTRACT: note_on channel=11 note=60 velocity=92 time=0
EXTRACT: note_on channel=11 note=65 velocity=92 time=0
EXTRACT: note_on channel=15 note=29 velocity=92 time=0
EXTRACT: note_on channel=9 note=35 velocity=0 time=0.0763888125
EXTRACT: note_on channel=9 note=42 velocity=0 time=0
EXTRACT: note_on channel=0 note=74 velocity=0 time=0.08333325
EXTRACT: note_on channel=7 note=60 velocity=0 time=0
EXTRACT: note_on channel=8 note=60 velocity=0 time=0
EXTRACT: note_on channel=9 note=54 velocity=0 time=0
EXTRACT: note_on channel=11 note=53 velocity=0 time=0
EXTRACT: note_on channel=11 note=57 velocity=0 time=0
EXTRACT: note_on channel=11 note=60 velocity=0 time=0
EXTRACT: note_on channel=11 note=65 velocity=0 time=0
EXTRACT: note_on channel=0 note=74 velocity=127 time=0.0069444375
EXTRACT: note_on channel=7 note=62 velocity=92 time=0
EXTRACT: note_on channel=8 note=62 velocity=92 time=0
EXTRACT: note_on channel=9 note=54 velocity=92 time=0
EXTRACT: note_on channel=11 note=53 velocity=92 time=0
EXTRACT: note_on channel=11 note=57 velocity=92 time=0
EXTRACT: note_on channel=11 note=60 velocity=92 time=0
EXTRACT: note_on channel=11 note=65 velocity=92 time=0
EXTRACT: note_on channel=9 note=54 velocity=0 time=0.0347221875
EXTRACT: note_on channel=9 note=82 velocity=92 time=0.0069444375
EXTRACT: note_on channel=0 note=74 velocity=0 time=0.1180554375
EXTRACT: note_on channel=7 note=62 velocity=0 time=0
EXTRACT: note_on channel=8 note=62 velocity=0 time=0
EXTRACT: note_on channel=9 note=82 velocity=0 time=0
EXTRACT: note_on channel=11 note=53 velocity=0 time=0
EXTRACT: note_on channel=11 note=57 velocity=0 time=0
EXTRACT: note_on channel=11 note=60 velocity=0 time=0
EXTRACT: note_on channel=11 note=65 velocity=0 time=0
EXTRACT: note_on channel=15 note=29 velocity=0 time=0
EXTRACT: note_on channel=0 note=74 velocity=127 time=0.0069444375
EXTRACT: note_on channel=7 note=58 velocity=92 time=0
EXTRACT: note_on channel=8 note=58 velocity=92 time=0
EXTRACT: note_on channel=9 note=54 velocity=92 time=0
EXTRACT: note_on channel=9 note=82 velocity=92 time=0
EXTRACT: note_on channel=9 note=40 velocity=92 time=0
EXTRACT: note_on channel=9 note=42 velocity=92 time=0
EXTRACT: note_on channel=11 note=53 velocity=92 time=0
EXTRACT: note_on channel=11 note=57 velocity=92 time=0
EXTRACT: note_on channel=11 note=60 velocity=92 time=0
EXTRACT: note_on channel=11 note=65 velocity=92 time=0
EXTRACT: note_on channel=15 note=31 velocity=92 time=0
EXTRACT: note_on channel=5 note=53 velocity=0 time=0.0763888125
EXTRACT: note_on channel=5 note=57 velocity=0 time=0
EXTRACT: note_on channel=5 note=60 velocity=0 time=0
EXTRACT: note_on channel=9 note=40 velocity=0 time=0
EXTRACT: note_on channel=9 note=42 velocity=0 time=0
EXTRACT: note_on channel=5 note=41 velocity=0 time=0.08333325
EXTRACT: note_on channel=7 note=58 velocity=0 time=0
EXTRACT: note_on channel=8 note=58 velocity=0 time=0
EXTRACT: note_on channel=9 note=54 velocity=0 time=0
EXTRACT: note_on channel=9 note=82 velocity=0 time=0
EXTRACT: note_on channel=12 note=69 velocity=0 time=0
EXTRACT: note_on channel=7 note=60 velocity=92 time=0.0069444375
EXTRACT: note_on channel=8 note=60 velocity=92 time=0
EXTRACT: note_on channel=9 note=54 velocity=92 time=0
EXTRACT: note_on channel=9 note=54 velocity=0 time=0.0347221875
EXTRACT: note_on channel=9 note=82 velocity=92 time=0.0069444375
EXTRACT: note_on channel=7 note=60 velocity=0 time=0.1180554375
EXTRACT: note_on channel=8 note=60 velocity=0 time=0
EXTRACT: note_on channel=9 note=82 velocity=0 time=0
EXTRACT: note_on channel=11 note=53 velocity=0 time=0
EXTRACT: note_on channel=11 note=57 velocity=0 time=0
EXTRACT: note_on channel=11 note=60 velocity=0 time=0
EXTRACT: note_on channel=11 note=65 velocity=0 time=0
EXTRACT: note_on channel=15 note=31 velocity=0 time=0
EXTRACT: note_on channel=7 note=62 velocity=92 time=0.0069444375
EXTRACT: note_on channel=8 note=62 velocity=92 time=0
EXTRACT: note_on channel=9 note=54 velocity=92 time=0
EXTRACT: note_on channel=9 note=82 velocity=92 time=0
EXTRACT: note_on channel=9 note=46 velocity=92 time=0
EXTRACT: note_on channel=11 note=53 velocity=92 time=0
EXTRACT: note_on channel=11 note=57 velocity=92 time=0
EXTRACT: note_on channel=11 note=60 velocity=92 time=0
EXTRACT: note_on channel=11 note=65 velocity=92 time=0
EXTRACT: note_on channel=15 note=34 velocity=92 time=0
EXTRACT: note_on channel=0 note=74 velocity=0 time=0.0347221875
EXTRACT: note_on channel=0 note=72 velocity=127 time=0.0069444375
EXTRACT: note_on channel=9 note=46 velocity=0 time=0.0347221875
EXTRACT: note_on channel=0 note=72 velocity=0 time=0.08333325
EXTRACT: note_on channel=9 note=54 velocity=0 time=0
EXTRACT: note_on channel=9 note=82 velocity=0 time=0
EXTRACT: note_on channel=0 note=70 velocity=127 time=0.0069444375
EXTRACT: note_on channel=3 note=57 velocity=0 time=0
EXTRACT: note_on channel=3 note=69 velocity=0 time=0
EXTRACT: note_on channel=9 note=54 velocity=92 time=0
EXTRACT: note_on channel=13 note=65 velocity=0 time=0
EXTRACT: note_on channel=9 note=54 velocity=0 time=0.0347221875
EXTRACT: note_on channel=9 note=82 velocity=92 time=0.0069444375
EXTRACT: note_on channel=0 note=70 velocity=0 time=0.1180554375
EXTRACT: note_on channel=7 note=62 velocity=0 time=0
EXTRACT: note_on channel=8 note=62 velocity=0 time=0
EXTRACT: note_on channel=9 note=82 velocity=0 time=0
EXTRACT: note_on channel=11 note=53 velocity=0 time=0
EXTRACT: note_on channel=11 note=57 velocity=0 time=0
EXTRACT: note_on channel=11 note=60 velocity=0 time=0
EXTRACT: note_on channel=11 note=65 velocity=0 time=0
EXTRACT: note_on channel=15 note=34 velocity=0 time=0
EXTRACT: note_on channel=3 note=58 velocity=92 time=0.0069444375
EXTRACT: note_on channel=3 note=63 velocity=92 time=0
EXTRACT: note_on channel=3 note=67 velocity=92 time=0
EXTRACT: note_on channel=5 note=55 velocity=92 time=0
EXTRACT: note_on channel=5 note=60 velocity=92 time=0
EXTRACT: note_on channel=5 note=63 velocity=92 time=0
EXTRACT: note_on channel=5 note=48 velocity=92 time=0
EXTRACT: note_on channel=9 note=54 velocity=92 time=0
EXTRACT: note_on channel=9 note=82 velocity=92 time=0
EXTRACT: note_on channel=9 note=35 velocity=92 time=0
EXTRACT: note_on channel=9 note=42 velocity=92 time=0
EXTRACT: note_on channel=11 note=55 velocity=92 time=0
EXTRACT: note_on channel=11 note=60 velocity=92 time=0
EXTRACT: note_on channel=11 note=63 velocity=92 time=0
EXTRACT: note_on channel=11 note=67 velocity=92 time=0
EXTRACT: note_on channel=12 note=67 velocity=92 time=0
EXTRACT: note_on channel=12 note=75 velocity=92 time=0
EXTRACT: note_on channel=13 note=70 velocity=92 time=0
EXTRACT: note_on channel=15 note=36 velocity=92 time=0
EXTRACT: note_on channel=0 note=70 velocity=127 time=0.041666625
EXTRACT: note_on channel=7 note=58 velocity=92 time=0
EXTRACT: note_on channel=8 note=58 velocity=92 time=0
EXTRACT: note_on channel=9 note=35 velocity=0 time=0.0347221875
EXTRACT: note_on channel=9 note=42 velocity=0 time=0
EXTRACT: note_on channel=9 note=54 velocity=0 time=0.08333325
EXTRACT: note_on channel=9 note=82 velocity=0 time=0
EXTRACT: note_on channel=11 note=55 velocity=0 time=0
EXTRACT: note_on channel=11 note=60 velocity=0 time=0
EXTRACT: note_on channel=11 note=63 velocity=0 time=0
EXTRACT: note_on channel=11 note=67 velocity=0 time=0
EXTRACT: note_on channel=9 note=54 velocity=92 time=0.0069444375
EXTRACT: note_on channel=7 note=58 velocity=0 time=0.0347221875
EXTRACT: note_on channel=8 note=58 velocity=0 time=0
EXTRACT: note_on channel=9 note=54 velocity=0 time=0
EXTRACT: note_on channel=7 note=60 velocity=92 time=0.0069444375
EXTRACT: note_on channel=8 note=60 velocity=92 time=0
EXTRACT: note_on channel=9 note=82 velocity=92 time=0
EXTRACT: note_on channel=7 note=60 velocity=0 time=0.1180554375
EXTRACT: note_on channel=8 note=60 velocity=0 time=0
EXTRACT: note_on channel=9 note=82 velocity=0 time=0
EXTRACT: note_on channel=7 note=62 velocity=92 time=0.0069444375
EXTRACT: note_on channel=8 note=62 velocity=92 time=0
EXTRACT: note_on channel=9 note=54 velocity=92 time=0
EXTRACT: note_on channel=9 note=82 velocity=92 time=0
EXTRACT: note_on channel=9 note=42 velocity=92 time=0
EXTRACT: note_on channel=11 note=55 velocity=92 time=0
EXTRACT: note_on channel=11 note=60 velocity=92 time=0
EXTRACT: note_on channel=11 note=63 velocity=92 time=0
EXTRACT: note_on channel=11 note=67 velocity=92 time=0
EXTRACT: note_on channel=0 note=70 velocity=0 time=0.0347221875
EXTRACT: note_on channel=0 note=72 velocity=127 time=0.0069444375
EXTRACT: note_on channel=9 note=42 velocity=0 time=0.0347221875
EXTRACT: note_on channel=11 note=55 velocity=0 time=0.041666625
EXTRACT: note_on channel=11 note=60 velocity=0 time=0
EXTRACT: note_on channel=11 note=63 velocity=0 time=0
EXTRACT: note_on channel=11 note=67 velocity=0 time=0
EXTRACT: note_on channel=7 note=62 velocity=0 time=0.041666625
EXTRACT: note_on channel=8 note=62 velocity=0 time=0
EXTRACT: note_on channel=9 note=54 velocity=0 time=0
EXTRACT: note_on channel=9 note=82 velocity=0 time=0
EXTRACT: note_on channel=7 note=58 velocity=92 time=0.0069444375
EXTRACT: note_on channel=8 note=58 velocity=92 time=0
EXTRACT: note_on channel=9 note=54 velocity=92 time=0
EXTRACT: note_on channel=9 note=54 velocity=0 time=0.0347221875
EXTRACT: note_on channel=9 note=82 velocity=92 time=0.0069444375
EXTRACT: note_on channel=7 note=58 velocity=0 time=0.1180554375
EXTRACT: note_on channel=8 note=58 velocity=0 time=0
EXTRACT: note_on channel=9 note=82 velocity=0 time=0
EXTRACT: note_on channel=7 note=60 velocity=92 time=0.0069444375
EXTRACT: note_on channel=8 note=60 velocity=92 time=0
EXTRACT: note_on channel=9 note=54 velocity=92 time=0
EXTRACT: note_on channel=9 note=82 velocity=92 time=0
EXTRACT: note_on channel=9 note=40 velocity=92 time=0
EXTRACT: note_on channel=9 note=42 velocity=92 time=0
EXTRACT: note_on channel=11 note=55 velocity=92 time=0
EXTRACT: note_on channel=11 note=60 velocity=92 time=0
EXTRACT: note_on channel=11 note=63 velocity=92 time=0
EXTRACT: note_on channel=11 note=67 velocity=92 time=0
EXTRACT: note_on channel=9 note=40 velocity=0 time=0.0763888125
EXTRACT: note_on channel=9 note=42 velocity=0 time=0
EXTRACT: note_on channel=7 note=60 velocity=0 time=0.08333325
EXTRACT: note_on channel=8 note=60 velocity=0 time=0
EXTRACT: note_on channel=9 note=54 velocity=0 time=0
EXTRACT: note_on channel=9 note=82 velocity=0 time=0
EXTRACT: note_on channel=7 note=62 velocity=92 time=0.0069444375
EXTRACT: note_on channel=8 note=62 velocity=92 time=0
EXTRACT: note_on channel=9 note=54 velocity=92 time=0
EXTRACT: note_on channel=9 note=54 velocity=0 time=0.0347221875
EXTRACT: note_on channel=9 note=82 velocity=92 time=0.0069444375
EXTRACT: note_on channel=7 note=62 velocity=0 time=0.1180554375
EXTRACT: note_on channel=8 note=62 velocity=0 time=0
EXTRACT: note_on channel=9 note=82 velocity=0 time=0
EXTRACT: note_on channel=11 note=55 velocity=0 time=0
EXTRACT: note_on channel=11 note=60 velocity=0 time=0
EXTRACT: note_on channel=11 note=63 velocity=0 time=0
EXTRACT: note_on channel=11 note=67 velocity=0 time=0
EXTRACT: note_on channel=7 note=58 velocity=92 time=0.0069444375
EXTRACT: note_on channel=8 note=58 velocity=92 time=0
EXTRACT: note_on channel=9 note=54 velocity=92 time=0
EXTRACT: note_on channel=9 note=82 velocity=92 time=0
EXTRACT: note_on channel=9 note=42 velocity=92 time=0
EXTRACT: note_on channel=9 note=42 velocity=0 time=0.0763888125
EXTRACT: note_on channel=7 note=58 velocity=0 time=0.08333325
EXTRACT: note_on channel=8 note=58 velocity=0 time=0
EXTRACT: note_on channel=9 note=54 velocity=0 time=0
EXTRACT: note_on channel=9 note=82 velocity=0 time=0
EXTRACT: note_on channel=15 note=36 velocity=0 time=0
EXTRACT: note_on channel=3 note=58 velocity=0 time=0.0069444375
EXTRACT: note_on channel=3 note=63 velocity=0 time=0
EXTRACT: note_on channel=3 note=67 velocity=0 time=0
EXTRACT: note_on channel=7 note=60 velocity=92 time=0
EXTRACT: note_on channel=8 note=60 velocity=92 time=0
EXTRACT: note_on channel=9 note=54 velocity=92 time=0
EXTRACT: note_on channel=11 note=55 velocity=92 time=0
EXTRACT: note_on channel=11 note=60 velocity=92 time=0
EXTRACT: note_on channel=11 note=63 velocity=92 time=0
EXTRACT: note_on channel=11 note=67 velocity=92 time=0
EXTRACT: note_on channel=15 note=34 velocity=92 time=0
EXTRACT: note_on channel=9 note=54 velocity=0 time=0.0347221875
EXTRACT: note_on channel=9 note=82 velocity=92 time=0.0069444375
EXTRACT: note_on channel=7 note=60 velocity=0 time=0.1180554375
EXTRACT: note_on channel=8 note=60 velocity=0 time=0
EXTRACT: note_on channel=9 note=82 velocity=0 time=0
EXTRACT: note_on channel=11 note=55 velocity=0 time=0
EXTRACT: note_on channel=11 note=60 velocity=0 time=0
EXTRACT: note_on channel=11 note=63 velocity=0 time=0
EXTRACT: note_on channel=11 note=67 velocity=0 time=0
EXTRACT: note_on channel=15 note=34 velocity=0 time=0
EXTRACT: note_on channel=3 note=72 velocity=92 time=0.0069444375
EXTRACT: note_on channel=7 note=62 velocity=92 time=0
EXTRACT: note_on channel=8 note=62 velocity=92 time=0
EXTRACT: note_on channel=9 note=54 velocity=92 time=0
EXTRACT: note_on channel=9 note=35 velocity=92 time=0
EXTRACT: note_on channel=9 note=42 velocity=92 time=0
EXTRACT: note_on channel=11 note=55 velocity=92 time=0
EXTRACT: note_on channel=11 note=60 velocity=92 time=0
EXTRACT: note_on channel=11 note=63 velocity=92 time=0
EXTRACT: note_on channel=11 note=67 velocity=92 time=0
EXTRACT: note_on channel=15 note=36 velocity=92 time=0
EXTRACT: note_on channel=9 note=35 velocity=0 time=0.0763888125
EXTRACT: note_on channel=9 note=42 velocity=0 time=0
EXTRACT: note_on channel=0 note=72 velocity=0 time=0.08333325
EXTRACT: note_on channel=7 note=62 velocity=0 time=0
EXTRACT: note_on channel=9 note=54 velocity=0 time=0
EXTRACT: note_on channel=11 note=55 velocity=0 time=0
EXTRACT: note_on channel=11 note=60 velocity=0 time=0
EXTRACT: note_on channel=11 note=63 velocity=0 time=0
EXTRACT: note_on channel=11 note=67 velocity=0 time=0
EXTRACT: note_on channel=0 note=74 velocity=127 time=0.0069444375
EXTRACT: note_on channel=7 note=58 velocity=92 time=0
EXTRACT: note_on channel=9 note=54 velocity=92 time=0
EXTRACT: note_on channel=11 note=55 velocity=92 time=0
EXTRACT: note_on channel=11 note=60 velocity=92 time=0
EXTRACT: note_on channel=11 note=63 velocity=92 time=0
EXTRACT: note_on channel=11 note=67 velocity=92 time=0
EXTRACT: note_on channel=8 note=62 velocity=0 time=0.0347221875
EXTRACT: note_on channel=9 note=54 velocity=0 time=0
EXTRACT: note_on channel=9 note=82 velocity=92 time=0.0069444375
EXTRACT: note_on channel=7 note=58 velocity=0 time=0.1180554375
EXTRACT: note_on channel=9 note=82 velocity=0 time=0
EXTRACT: note_on channel=11 note=55 velocity=0 time=0
EXTRACT: note_on channel=11 note=60 velocity=0 time=0
EXTRACT: note_on channel=11 note=63 velocity=0 time=0
EXTRACT: note_on channel=11 note=67 velocity=0 time=0
EXTRACT: note_on channel=15 note=36 velocity=0 time=0
EXTRACT: note_on channel=7 note=60 velocity=92 time=0.0069444375
EXTRACT: note_on channel=9 note=54 velocity=92 time=0
EXTRACT: note_on channel=9 note=35 velocity=92 time=0
EXTRACT: note_on channel=9 note=46 velocity=92 time=0
EXTRACT: note_on channel=11 note=55 velocity=92 time=0
EXTRACT: note_on channel=11 note=60 velocity=92 time=0
EXTRACT: note_on channel=11 note=63 velocity=92 time=0
EXTRACT: note_on channel=11 note=67 velocity=92 time=0
EXTRACT: note_on channel=15 note=22 velocity=92 time=0
EXTRACT: note_on channel=9 note=35 velocity=0 time=0.0763888125
EXTRACT: note_on channel=9 note=46 velocity=0 time=0
EXTRACT: note_on channel=7 note=60 velocity=0 time=0.08333325
EXTRACT: note_on channel=9 note=54 velocity=0 time=0
EXTRACT: note_on channel=11 note=55 velocity=0 time=0
EXTRACT: note_on channel=11 note=60 velocity=0 time=0
EXTRACT: note_on channel=11 note=63 velocity=0 time=0
EXTRACT: note_on channel=11 note=67 velocity=0 time=0
EXTRACT: note_on channel=7 note=62 velocity=92 time=0.0069444375
EXTRACT: note_on channel=9 note=54 velocity=92 time=0
EXTRACT: note_on channel=11 note=55 velocity=92 time=0
EXTRACT: note_on channel=11 note=60 velocity=92 time=0
EXTRACT: note_on channel=11 note=63 velocity=92 time=0
EXTRACT: note_on channel=11 note=67 velocity=92 time=0
EXTRACT: note_on channel=0 note=74 velocity=0 time=0.0347221875
EXTRACT: note_on channel=9 note=54 velocity=0 time=0
EXTRACT: note_on channel=0 note=74 velocity=127 time=0.0069444375
EXTRACT: note_on channel=9 note=82 velocity=92 time=0
EXTRACT: note_on channel=0 note=74 velocity=0 time=0.1180554375
EXTRACT: note_on channel=7 note=62 velocity=0 time=0
EXTRACT: note_on channel=9 note=82 velocity=0 time=0
EXTRACT: note_on channel=11 note=55 velocity=0 time=0
EXTRACT: note_on channel=11 note=60 velocity=0 time=0
EXTRACT: note_on channel=11 note=63 velocity=0 time=0
EXTRACT: note_on channel=11 note=67 velocity=0 time=0
EXTRACT: note_on channel=15 note=22 velocity=0 time=0
EXTRACT: note_on channel=7 note=58 velocity=92 time=0.0069444375
EXTRACT: note_on channel=9 note=54 velocity=92 time=0
EXTRACT: note_on channel=9 note=82 velocity=92 time=0
EXTRACT: note_on channel=9 note=40 velocity=92 time=0
EXTRACT: note_on channel=9 note=42 velocity=92 time=0
EXTRACT: note_on channel=11 note=55 velocity=92 time=0
EXTRACT: note_on channel=11 note=60 velocity=92 time=0
EXTRACT: note_on channel=11 note=63 velocity=92 time=0
EXTRACT: note_on channel=11 note=67 velocity=92 time=0
EXTRACT: note_on channel=15 note=24 velocity=92 time=0
EXTRACT: note_on channel=0 note=74 velocity=127 time=0.041666625
EXTRACT: note_on channel=9 note=40 velocity=0 time=0.0347221875
EXTRACT: note_on channel=9 note=42 velocity=0 time=0
EXTRACT: note_on channel=7 note=58 velocity=0 time=0.08333325
EXTRACT: note_on channel=9 note=54 velocity=0 time=0
EXTRACT: note_on channel=9 note=82 velocity=0 time=0
EXTRACT: note_on channel=7 note=60 velocity=92 time=0.0069444375
EXTRACT: note_on channel=9 note=54 velocity=92 time=0
EXTRACT: note_on channel=5 note=55 velocity=0 time=0.0347221875
EXTRACT: note_on channel=5 note=60 velocity=0 time=0
EXTRACT: note_on channel=5 note=63 velocity=0 time=0
EXTRACT: note_on channel=9 note=54 velocity=0 time=0
EXTRACT: note_on channel=9 note=82 velocity=92 time=0.0069444375
EXTRACT: note_on channel=5 note=48 velocity=0 time=0.0763888125
EXTRACT: note_on channel=7 note=60 velocity=0 time=0.041666625
EXTRACT: note_on channel=9 note=82 velocity=0 time=0
EXTRACT: note_on channel=11 note=55 velocity=0 time=0
EXTRACT: note_on channel=11 note=60 velocity=0 time=0
EXTRACT: note_on channel=11 note=63 velocity=0 time=0
EXTRACT: note_on channel=11 note=67 velocity=0 time=0
EXTRACT: note_on channel=15 note=24 velocity=0 time=0
EXTRACT: note_on channel=7 note=62 velocity=92 time=0.0069444375
EXTRACT: note_on channel=9 note=54 velocity=92 time=0
EXTRACT: note_on channel=9 note=82 velocity=92 time=0
EXTRACT: note_on channel=9 note=46 velocity=92 time=0
EXTRACT: note_on channel=11 note=55 velocity=92 time=0
EXTRACT: note_on channel=11 note=60 velocity=92 time=0
EXTRACT: note_on channel=11 note=63 velocity=92 time=0
EXTRACT: note_on channel=11 note=67 velocity=92 time=0
EXTRACT: note_on channel=15 note=26 velocity=92 time=0
EXTRACT: note_on channel=0 note=74 velocity=0 time=0.0347221875
EXTRACT: note_on channel=0 note=72 velocity=127 time=0.0069444375
EXTRACT: note_on channel=9 note=46 velocity=0 time=0.0347221875
EXTRACT: note_on channel=9 note=54 velocity=0 time=0.08333325
EXTRACT: note_on channel=9 note=82 velocity=0 time=0
EXTRACT: note_on channel=3 note=72 velocity=0 time=0.0069444375
EXTRACT: note_on channel=9 note=54 velocity=92 time=0
EXTRACT: note_on channel=13 note=70 velocity=0 time=0
EXTRACT: note_on channel=0 note=72 velocity=0 time=0.0347221875
EXTRACT: note_on channel=9 note=54 velocity=0 time=0
EXTRACT: note_on channel=0 note=70 velocity=127 time=0.0069444375
EXTRACT: note_on channel=9 note=82 velocity=92 time=0
EXTRACT: note_on channel=0 note=70 velocity=0 time=0.1180554375
EXTRACT: note_on channel=7 note=62 velocity=0 time=0
EXTRACT: note_on channel=9 note=82 velocity=0 time=0
EXTRACT: note_on channel=11 note=55 velocity=0 time=0
EXTRACT: note_on channel=11 note=60 velocity=0 time=0
EXTRACT: note_on channel=11 note=63 velocity=0 time=0
EXTRACT: note_on channel=11 note=67 velocity=0 time=0
EXTRACT: note_on channel=15 note=26 velocity=0 time=0
EXTRACT: note_on channel=3 note=70 velocity=92 time=0.0069444375
EXTRACT: note_on channel=5 note=55 velocity=92 time=0
EXTRACT: note_on channel=5 note=58 velocity=92 time=0
EXTRACT: note_on channel=5 note=63 velocity=92 time=0
EXTRACT: note_on channel=5 note=51 velocity=92 time=0
EXTRACT: note_on channel=9 note=54 velocity=92 time=0
EXTRACT: note_on channel=9 note=82 velocity=92 time=0
EXTRACT: note_on channel=9 note=35 velocity=92 time=0
EXTRACT: note_on channel=9 note=42 velocity=92 time=0
EXTRACT: note_on channel=11 note=55 velocity=92 time=0
EXTRACT: note_on channel=11 note=58 velocity=92 time=0
EXTRACT: note_on channel=11 note=63 velocity=92 time=0
EXTRACT: note_on channel=11 note=67 velocity=92 time=0
EXTRACT: note_on channel=13 note=65 velocity=92 time=0
EXTRACT: note_on channel=15 note=27 velocity=92 time=0
EXTRACT: note_on channel=7 note=58 velocity=92 time=0.041666625
EXTRACT: note_on channel=9 note=35 velocity=0 time=0.0347221875
EXTRACT: note_on channel=9 note=42 velocity=0 time=0
EXTRACT: note_on channel=0 note=70 velocity=127 time=0.0069444375
EXTRACT: note_on channel=9 note=54 velocity=0 time=0.0763888125
EXTRACT: note_on channel=9 note=82 velocity=0 time=0
EXTRACT: note_on channel=11 note=55 velocity=0 time=0
EXTRACT: note_on channel=11 note=58 velocity=0 time=0
EXTRACT: note_on channel=11 note=63 velocity=0 time=0
EXTRACT: note_on channel=11 note=67 velocity=0 time=0
EXTRACT: note_on channel=9 note=54 velocity=92 time=0.0069444375
EXTRACT: note_on channel=7 note=58 velocity=0 time=0.0347221875
EXTRACT: note_on channel=9 note=54 velocity=0 time=0
EXTRACT: note_on channel=7 note=60 velocity=92 time=0.0069444375
EXTRACT: note_on channel=9 note=82 velocity=92 time=0
EXTRACT: note_on channel=7 note=60 velocity=0 time=0.1180554375
EXTRACT: note_on channel=9 note=82 velocity=0 time=0
EXTRACT: note_on channel=7 note=62 velocity=92 time=0.0069444375
EXTRACT: note_on channel=9 note=54 velocity=92 time=0
EXTRACT: note_on channel=9 note=82 velocity=92 time=0
EXTRACT: note_on channel=9 note=42 velocity=92 time=0
EXTRACT: note_on channel=11 note=55 velocity=92 time=0
EXTRACT: note_on channel=11 note=58 velocity=92 time=0
EXTRACT: note_on channel=11 note=63 velocity=92 time=0
EXTRACT: note_on channel=11 note=67 velocity=92 time=0
EXTRACT: note_on channel=0 note=70 velocity=0 time=0.0763888125
EXTRACT: note_on channel=9 note=42 velocity=0 time=0
EXTRACT: note_on channel=0 note=65 velocity=127 time=0.0069444375
EXTRACT: note_on channel=11 note=55 velocity=0 time=0.0347221875
EXTRACT: note_on channel=11 note=58 velocity=0 time=0
EXTRACT: note_on channel=11 note=63 velocity=0 time=0
EXTRACT: note_on channel=11 note=67 velocity=0 time=0
EXTRACT: note_on channel=7 note=62 velocity=0 time=0.041666625
EXTRACT: note_on channel=9 note=54 velocity=0 time=0
EXTRACT: note_on channel=9 note=82 velocity=0 time=0
EXTRACT: note_on channel=7 note=58 velocity=92 time=0.0069444375
EXTRACT: note_on channel=8 note=58 velocity=92 time=0
EXTRACT: note_on channel=9 note=54 velocity=92 time=0
EXTRACT: note_on channel=9 note=54 velocity=0 time=0.0347221875
EXTRACT: note_on channel=9 note=82 velocity=92 time=0.0069444375
EXTRACT: note_on channel=7 note=58 velocity=0 time=0.1180554375
EXTRACT: note_on channel=8 note=58 velocity=0 time=0
EXTRACT: note_on channel=9 note=82 velocity=0 time=0
EXTRACT: note_on channel=7 note=60 velocity=92 time=0.0069444375
EXTRACT: note_on channel=8 note=60 velocity=92 time=0
EXTRACT: note_on channel=9 note=54 velocity=92 time=0
EXTRACT: note_on channel=9 note=82 velocity=92 time=0
EXTRACT: note_on channel=9 note=40 velocity=92 time=0
EXTRACT: note_on channel=9 note=42 velocity=92 time=0
EXTRACT: note_on channel=11 note=55 velocity=92 time=0
EXTRACT: note_on channel=11 note=58 velocity=92 time=0
EXTRACT: note_on channel=11 note=63 velocity=92 time=0
EXTRACT: note_on channel=11 note=67 velocity=92 time=0
EXTRACT: note_on channel=9 note=40 velocity=0 time=0.0763888125
EXTRACT: note_on channel=9 note=42 velocity=0 time=0
EXTRACT: note_on channel=7 note=60 velocity=0 time=0.08333325
EXTRACT: note_on channel=8 note=60 velocity=0 time=0
EXTRACT: note_on channel=9 note=54 velocity=0 time=0
EXTRACT: note_on channel=9 note=82 velocity=0 time=0
EXTRACT: note_on channel=7 note=62 velocity=92 time=0.0069444375
EXTRACT: note_on channel=8 note=62 velocity=92 time=0
EXTRACT: note_on channel=9 note=54 velocity=92 time=0
EXTRACT: note_on channel=9 note=54 velocity=0 time=0.0347221875
EXTRACT: note_on channel=9 note=82 velocity=92 time=0.0069444375
EXTRACT: note_on channel=7 note=62 velocity=0 time=0.1180554375
EXTRACT: note_on channel=8 note=62 velocity=0 time=0
EXTRACT: note_on channel=9 note=82 velocity=0 time=0
EXTRACT: note_on channel=11 note=55 velocity=0 time=0
EXTRACT: note_on channel=11 note=58 velocity=0 time=0
EXTRACT: note_on channel=11 note=63 velocity=0 time=0
EXTRACT: note_on channel=11 note=67 velocity=0 time=0
EXTRACT: note_on channel=7 note=58 velocity=92 time=0.0069444375
EXTRACT: note_on channel=8 note=58 velocity=92 time=0
EXTRACT: note_on channel=9 note=54 velocity=92 time=0
EXTRACT: note_on channel=9 note=82 velocity=92 time=0
EXTRACT: note_on channel=9 note=42 velocity=92 time=0
EXTRACT: note_on channel=9 note=42 velocity=0 time=0.0763888125
EXTRACT: note_on channel=7 note=58 velocity=0 time=0.08333325
EXTRACT: note_on channel=8 note=58 velocity=0 time=0
EXTRACT: note_on channel=9 note=54 velocity=0 time=0
EXTRACT: note_on channel=9 note=82 velocity=0 time=0
EXTRACT: note_on channel=15 note=27 velocity=0 time=0
EXTRACT: note_on channel=3 note=70 velocity=0 time=0.0069444375
EXTRACT: note_on channel=7 note=60 velocity=92 time=0
EXTRACT: note_on channel=8 note=60 velocity=92 time=0
EXTRACT: note_on channel=9 note=54 velocity=92 time=0
EXTRACT: note_on channel=11 note=55 velocity=92 time=0
EXTRACT: note_on channel=11 note=58 velocity=92 time=0
EXTRACT: note_on channel=11 note=63 velocity=92 time=0
EXTRACT: note_on channel=11 note=67 velocity=92 time=0
EXTRACT: note_on channel=15 note=27 velocity=92 time=0
EXTRACT: note_on channel=9 note=54 velocity=0 time=0.0347221875
EXTRACT: note_on channel=9 note=82 velocity=92 time=0.0069444375
EXTRACT: note_on channel=0 note=65 velocity=0 time=0.013888875
EXTRACT: note_on channel=7 note=60 velocity=0 time=0.1041665625
EXTRACT: note_on channel=8 note=60 velocity=0 time=0
EXTRACT: note_on channel=9 note=82 velocity=0 time=0
EXTRACT: note_on channel=11 note=55 velocity=0 time=0
EXTRACT: note_on channel=11 note=58 velocity=0 time=0
EXTRACT: note_on channel=11 note=63 velocity=0 time=0
EXTRACT: note_on channel=11 note=67 velocity=0 time=0
EXTRACT: note_on channel=15 note=27 velocity=0 time=0
EXTRACT: note_on channel=3 note=60 velocity=92 time=0.0069444375
EXTRACT: note_on channel=3 note=72 velocity=92 time=0
EXTRACT: note_on channel=7 note=62 velocity=92 time=0
EXTRACT: note_on channel=8 note=62 velocity=92 time=0
EXTRACT: note_on channel=9 note=54 velocity=92 time=0
EXTRACT: note_on channel=9 note=24 velocity=92 time=0
EXTRACT: note_on channel=9 note=35 velocity=92 time=0
EXTRACT: note_on channel=9 note=42 velocity=92 time=0
EXTRACT: note_on channel=11 note=55 velocity=92 time=0
EXTRACT: note_on channel=11 note=58 velocity=92 time=0
EXTRACT: note_on channel=11 note=63 velocity=92 time=0
EXTRACT: note_on channel=11 note=67 velocity=92 time=0
EXTRACT: note_on channel=15 note=27 velocity=92 time=0
EXTRACT: note_on channel=15 note=27 velocity=0 time=0.0763888125
EXTRACT: note_on channel=7 note=62 velocity=0 time=0.08333325
EXTRACT: note_on channel=8 note=62 velocity=0 time=0
EXTRACT: note_on channel=9 note=54 velocity=0 time=0
EXTRACT: note_on channel=9 note=24 velocity=0 time=0
EXTRACT: note_on channel=9 note=35 velocity=0 time=0
EXTRACT: note_on channel=9 note=42 velocity=0 time=0
EXTRACT: note_on channel=11 note=55 velocity=0 time=0
EXTRACT: note_on channel=11 note=58 velocity=0 time=0
EXTRACT: note_on channel=11 note=63 velocity=0 time=0
EXTRACT: note_on channel=11 note=67 velocity=0 time=0
EXTRACT: note_on channel=7 note=58 velocity=92 time=0.0069444375
EXTRACT: note_on channel=8 note=58 velocity=92 time=0
EXTRACT: note_on channel=9 note=54 velocity=92 time=0
EXTRACT: note_on channel=9 note=24 velocity=92 time=0
EXTRACT: note_on channel=11 note=55 velocity=92 time=0
EXTRACT: note_on channel=11 note=58 velocity=92 time=0
EXTRACT: note_on channel=11 note=63 velocity=92 time=0
EXTRACT: note_on channel=11 note=67 velocity=92 time=0
EXTRACT: note_on channel=9 note=54 velocity=0 time=0.0347221875
EXTRACT: note_on channel=9 note=82 velocity=92 time=0.0069444375
EXTRACT: note_on channel=9 note=24 velocity=0 time=0.0347221875
EXTRACT: note_on channel=9 note=24 velocity=92 time=0.0069444375
EXTRACT: note_on channel=7 note=58 velocity=0 time=0.0763888125
EXTRACT: note_on channel=8 note=58 velocity=0 time=0
EXTRACT: note_on channel=9 note=82 velocity=0 time=0
EXTRACT: note_on channel=9 note=24 velocity=0 time=0
EXTRACT: note_on channel=11 note=55 velocity=0 time=0
EXTRACT: note_on channel=11 note=58 velocity=0 time=0
EXTRACT: note_on channel=11 note=63 velocity=0 time=0
EXTRACT: note_on channel=11 note=67 velocity=0 time=0
EXTRACT: note_on channel=7 note=60 velocity=92 time=0.0069444375
EXTRACT: note_on channel=8 note=60 velocity=92 time=0
EXTRACT: note_on channel=9 note=54 velocity=92 time=0
EXTRACT: note_on channel=9 note=24 velocity=92 time=0
EXTRACT: note_on channel=9 note=35 velocity=92 time=0
EXTRACT: note_on channel=9 note=42 velocity=92 time=0
EXTRACT: note_on channel=11 note=55 velocity=92 time=0
EXTRACT: note_on channel=11 note=58 velocity=92 time=0
EXTRACT: note_on channel=11 note=63 velocity=92 time=0
EXTRACT: note_on channel=11 note=67 velocity=92 time=0
EXTRACT: note_on channel=15 note=27 velocity=92 time=0
EXTRACT: note_on channel=7 note=60 velocity=0 time=0.1597220625
EXTRACT: note_on channel=8 note=60 velocity=0 time=0
EXTRACT: note_on channel=9 note=54 velocity=0 time=0
EXTRACT: note_on channel=9 note=24 velocity=0 time=0
EXTRACT: note_on channel=9 note=35 velocity=0 time=0
EXTRACT: note_on channel=9 note=42 velocity=0 time=0
EXTRACT: note_on channel=11 note=55 velocity=0 time=0
EXTRACT: note_on channel=11 note=58 velocity=0 time=0
EXTRACT: note_on channel=11 note=63 velocity=0 time=0
EXTRACT: note_on channel=11 note=67 velocity=0 time=0
EXTRACT: note_on channel=7 note=62 velocity=92 time=0.0069444375
EXTRACT: note_on channel=8 note=62 velocity=92 time=0
EXTRACT: note_on channel=9 note=54 velocity=92 time=0
EXTRACT: note_on channel=9 note=24 velocity=92 time=0
EXTRACT: note_on channel=11 note=55 velocity=92 time=0
EXTRACT: note_on channel=11 note=58 velocity=92 time=0
EXTRACT: note_on channel=11 note=63 velocity=92 time=0
EXTRACT: note_on channel=11 note=67 velocity=92 time=0
EXTRACT: note_on channel=9 note=54 velocity=0 time=0.0347221875
EXTRACT: note_on channel=9 note=82 velocity=92 time=0.0069444375
EXTRACT: note_on channel=3 note=60 velocity=0 time=0.013888875
EXTRACT: note_on channel=3 note=72 velocity=0 time=0
EXTRACT: note_on channel=7 note=62 velocity=0 time=0.1041665625
EXTRACT: note_on channel=8 note=62 velocity=0 time=0
EXTRACT: note_on channel=9 note=82 velocity=0 time=0
EXTRACT: note_on channel=9 note=24 velocity=0 time=0
EXTRACT: note_on channel=11 note=55 velocity=0 time=0
EXTRACT: note_on channel=11 note=58 velocity=0 time=0
EXTRACT: note_on channel=11 note=63 velocity=0 time=0
EXTRACT: note_on channel=11 note=67 velocity=0 time=0
EXTRACT: note_on channel=15 note=27 velocity=0 time=0
EXTRACT: note_on channel=3 note=62 velocity=92 time=0.0069444375
EXTRACT: note_on channel=3 note=74 velocity=92 time=0
EXTRACT: note_on channel=7 note=58 velocity=92 time=0
EXTRACT: note_on channel=8 note=58 velocity=92 time=0
EXTRACT: note_on channel=9 note=54 velocity=92 time=0
EXTRACT: note_on channel=9 note=82 velocity=92 time=0
EXTRACT: note_on channel=9 note=24 velocity=92 time=0
EXTRACT: note_on channel=9 note=40 velocity=92 time=0
EXTRACT: note_on channel=9 note=42 velocity=92 time=0
EXTRACT: note_on channel=11 note=55 velocity=92 time=0
EXTRACT: note_on channel=11 note=58 velocity=92 time=0
EXTRACT: note_on channel=11 note=63 velocity=92 time=0
EXTRACT: note_on channel=11 note=67 velocity=92 time=0
EXTRACT: note_on channel=15 note=29 velocity=92 time=0
EXTRACT: note_on channel=7 note=58 velocity=0 time=0.1597220625
EXTRACT: note_on channel=8 note=58 velocity=0 time=0
EXTRACT: note_on channel=9 note=54 velocity=0 time=0
EXTRACT: note_on channel=9 note=82 velocity=0 time=0
EXTRACT: note_on channel=9 note=24 velocity=0 time=0
EXTRACT: note_on channel=9 note=40 velocity=0 time=0
EXTRACT: note_on channel=9 note=42 velocity=0 time=0
EXTRACT: note_on channel=12 note=67 velocity=0 time=0
EXTRACT: note_on channel=12 note=75 velocity=0 time=0
EXTRACT: note_on channel=15 note=29 velocity=0 time=0
EXTRACT: note_on channel=7 note=60 velocity=92 time=0.0069444375
EXTRACT: note_on channel=8 note=60 velocity=92 time=0
EXTRACT: note_on channel=9 note=54 velocity=92 time=0
EXTRACT: note_on channel=9 note=24 velocity=92 time=0
EXTRACT: note_on channel=15 note=31 velocity=92 time=0
EXTRACT: note_on channel=9 note=54 velocity=0 time=0.0347221875
EXTRACT: note_on channel=9 note=82 velocity=92 time=0.0069444375
EXTRACT: note_on channel=7 note=60 velocity=0 time=0.1180554375
EXTRACT: note_on channel=8 note=60 velocity=0 time=0
EXTRACT: note_on channel=9 note=82 velocity=0 time=0
EXTRACT: note_on channel=9 note=24 velocity=0 time=0
EXTRACT: note_on channel=11 note=55 velocity=0 time=0
EXTRACT: note_on channel=11 note=58 velocity=0 time=0
EXTRACT: note_on channel=11 note=63 velocity=0 time=0
EXTRACT: note_on channel=11 note=67 velocity=0 time=0
EXTRACT: note_on channel=15 note=31 velocity=0 time=0
EXTRACT: note_on channel=7 note=62 velocity=92 time=0.0069444375
EXTRACT: note_on channel=8 note=62 velocity=92 time=0
EXTRACT: note_on channel=9 note=54 velocity=92 time=0
EXTRACT: note_on channel=9 note=82 velocity=92 time=0
EXTRACT: note_on channel=9 note=24 velocity=92 time=0
EXTRACT: note_on channel=9 note=42 velocity=92 time=0
EXTRACT: note_on channel=11 note=55 velocity=92 time=0
EXTRACT: note_on channel=11 note=58 velocity=92 time=0
EXTRACT: note_on channel=11 note=63 velocity=92 time=0
EXTRACT: note_on channel=11 note=67 velocity=92 time=0
EXTRACT: note_on channel=15 note=34 velocity=92 time=0
EXTRACT: note_on channel=9 note=54 velocity=0 time=0.1597220625
EXTRACT: note_on channel=9 note=82 velocity=0 time=0
EXTRACT: note_on channel=9 note=24 velocity=0 time=0
EXTRACT: note_on channel=9 note=42 velocity=0 time=0
EXTRACT: note_on channel=15 note=34 velocity=0 time=0
EXTRACT: note_on channel=5 note=55 velocity=0 time=0.0069444375
EXTRACT: note_on channel=5 note=58 velocity=0 time=0
EXTRACT: note_on channel=5 note=63 velocity=0 time=0
EXTRACT: note_on channel=5 note=51 velocity=0 time=0
EXTRACT: note_on channel=9 note=54 velocity=92 time=0
EXTRACT: note_on channel=9 note=24 velocity=92 time=0
EXTRACT: note_on channel=15 note=31 velocity=92 time=0
EXTRACT: note_on channel=9 note=54 velocity=0 time=0.0347221875
EXTRACT: note_on channel=9 note=82 velocity=92 time=0.0069444375
EXTRACT: note_on channel=3 note=62 velocity=0 time=0.013888875
EXTRACT: note_on channel=3 note=74 velocity=0 time=0
EXTRACT: note_on channel=7 note=62 velocity=0 time=0.1041665625
EXTRACT: note_on channel=8 note=62 velocity=0 time=0
EXTRACT: note_on channel=9 note=82 velocity=0 time=0
EXTRACT: note_on channel=9 note=24 velocity=0 time=0
EXTRACT: note_on channel=11 note=55 velocity=0 time=0
EXTRACT: note_on channel=11 note=58 velocity=0 time=0
EXTRACT: note_on channel=11 note=63 velocity=0 time=0
EXTRACT: note_on channel=11 note=67 velocity=0 time=0
EXTRACT: note_on channel=15 note=31 velocity=0 time=0
EXTRACT: note_on channel=3 note=58 velocity=92 time=0.0069444375
EXTRACT: note_on channel=3 note=62 velocity=92 time=0
EXTRACT: note_on channel=3 note=65 velocity=92 time=0
EXTRACT: note_on channel=5 note=53 velocity=92 time=0
EXTRACT: note_on channel=5 note=58 velocity=92 time=0
EXTRACT: note_on channel=5 note=62 velocity=92 time=0
EXTRACT: note_on channel=5 note=46 velocity=92 time=0
EXTRACT: note_on channel=9 note=53 velocity=92 time=0
EXTRACT: note_on channel=9 note=54 velocity=92 time=0
EXTRACT: note_on channel=9 note=57 velocity=92 time=0
EXTRACT: note_on channel=9 note=82 velocity=92 time=0
EXTRACT: note_on channel=9 note=35 velocity=92 time=0
EXTRACT: note_on channel=9 note=42 velocity=92 time=0
EXTRACT: note_on channel=11 note=53 velocity=92 time=0
EXTRACT: note_on channel=11 note=58 velocity=92 time=0
EXTRACT: note_on channel=11 note=62 velocity=92 time=0
EXTRACT: note_on channel=11 note=65 velocity=92 time=0
EXTRACT: note_on channel=12 note=70 velocity=92 time=0
EXTRACT: note_on channel=12 note=77 velocity=92 time=0
EXTRACT: note_on channel=15 note=34 velocity=92 time=0
EXTRACT: note_on channel=3 note=58 velocity=0 time=0.0347221875
EXTRACT: note_on channel=3 note=62 velocity=0 time=0
EXTRACT: note_on channel=3 note=65 velocity=0 time=0
EXTRACT: note_on channel=13 note=65 velocity=0 time=0
EXTRACT: note_on channel=0 note=82 velocity=127 time=0.0069444375
EXTRACT: note_on channel=7 note=58 velocity=92 time=0
EXTRACT: note_on channel=13 note=70 velocity=92 time=0
EXTRACT: note_on channel=9 note=35 velocity=0 time=0.0347221875
EXTRACT: note_on channel=9 note=42 velocity=0 time=0
EXTRACT: note_on channel=9 note=53 velocity=0 time=0.08333325
EXTRACT: note_on channel=9 note=54 velocity=0 time=0
EXTRACT: note_on channel=9 note=57 velocity=0 time=0
EXTRACT: note_on channel=9 note=82 velocity=0 time=0
EXTRACT: note_on channel=11 note=53 velocity=0 time=0
EXTRACT: note_on channel=11 note=58 velocity=0 time=0
EXTRACT: note_on channel=11 note=62 velocity=0 time=0
EXTRACT: note_on channel=11 note=65 velocity=0 time=0
EXTRACT: note_on channel=9 note=54 velocity=92 time=0.0069444375
EXTRACT: note_on channel=7 note=58 velocity=0 time=0.0347221875
EXTRACT: note_on channel=9 note=54 velocity=0 time=0
EXTRACT: note_on channel=7 note=60 velocity=92 time=0.0069444375
EXTRACT: note_on channel=9 note=82 velocity=92 time=0
EXTRACT: note_on channel=7 note=60 velocity=0 time=0.1180554375
EXTRACT: note_on channel=9 note=82 velocity=0 time=0
EXTRACT: note_on channel=7 note=62 velocity=92 time=0.0069444375
EXTRACT: note_on channel=9 note=54 velocity=92 time=0
EXTRACT: note_on channel=9 note=82 velocity=92 time=0
EXTRACT: note_on channel=9 note=42 velocity=92 time=0
EXTRACT: note_on channel=11 note=53 velocity=92 time=0
EXTRACT: note_on channel=11 note=58 velocity=92 time=0
EXTRACT: note_on channel=11 note=62 velocity=92 time=0
EXTRACT: note_on channel=11 note=65 velocity=92 time=0
EXTRACT: note_on channel=9 note=42 velocity=0 time=0.0763888125
EXTRACT: note_on channel=11 note=53 velocity=0 time=0.041666625
EXTRACT: note_on channel=11 note=58 velocity=0 time=0
EXTRACT: note_on channel=11 note=62 velocity=0 time=0
EXTRACT: note_on channel=11 note=65 velocity=0 time=0
EXTRACT: note_on channel=7 note=62 velocity=0 time=0.041666625
EXTRACT: note_on channel=9 note=54 velocity=0 time=0
EXTRACT: note_on channel=9 note=82 velocity=0 time=0
EXTRACT: note_on channel=7 note=58 velocity=92 time=0.0069444375
EXTRACT: note_on channel=9 note=54 velocity=92 time=0
EXTRACT: note_on channel=9 note=54 velocity=0 time=0.0347221875
EXTRACT: note_on channel=9 note=82 velocity=92 time=0.0069444375
EXTRACT: note_on channel=7 note=58 velocity=0 time=0.1180554375
EXTRACT: note_on channel=9 note=82 velocity=0 time=0
EXTRACT: note_on channel=7 note=60 velocity=92 time=0.0069444375
EXTRACT: note_on channel=9 note=54 velocity=92 time=0
EXTRACT: note_on channel=9 note=82 velocity=92 time=0
EXTRACT: note_on channel=9 note=40 velocity=92 time=0
EXTRACT: note_on channel=9 note=42 velocity=92 time=0
EXTRACT: note_on channel=11 note=53 velocity=92 time=0
EXTRACT: note_on channel=11 note=58 velocity=92 time=0
EXTRACT: note_on channel=11 note=62 velocity=92 time=0
EXTRACT: note_on channel=11 note=65 velocity=92 time=0
EXTRACT: note_on channel=0 note=82 velocity=0 time=0.0347221875
EXTRACT: note_on channel=0 note=77 velocity=127 time=0.0069444375
EXTRACT: note_on channel=9 note=40 velocity=0 time=0.0347221875
EXTRACT: note_on channel=9 note=42 velocity=0 time=0
EXTRACT: note_on channel=7 note=60 velocity=0 time=0.08333325
EXTRACT: note_on channel=9 note=54 velocity=0 time=0
EXTRACT: note_on channel=9 note=82 velocity=0 time=0
EXTRACT: note_on channel=7 note=62 velocity=92 time=0.0069444375
EXTRACT: note_on channel=9 note=54 velocity=92 time=0
EXTRACT: note_on channel=9 note=54 velocity=0 time=0.0347221875
EXTRACT: note_on channel=9 note=82 velocity=92 time=0.0069444375
EXTRACT: note_on channel=0 note=77 velocity=0 time=0.1180554375
EXTRACT: note_on channel=7 note=62 velocity=0 time=0
EXTRACT: note_on channel=9 note=82 velocity=0 time=0
EXTRACT: note_on channel=11 note=53 velocity=0 time=0
EXTRACT: note_on channel=11 note=58 velocity=0 time=0
EXTRACT: note_on channel=11 note=62 velocity=0 time=0
EXTRACT: note_on channel=11 note=65 velocity=0 time=0
EXTRACT: note_on channel=0 note=79 velocity=127 time=0.0069444375
EXTRACT: note_on channel=7 note=58 velocity=92 time=0
EXTRACT: note_on channel=9 note=54 velocity=92 time=0
EXTRACT: note_on channel=9 note=82 velocity=92 time=0
EXTRACT: note_on channel=9 note=42 velocity=92 time=0
EXTRACT: note_on channel=9 note=42 velocity=0 time=0.0763888125
EXTRACT: note_on channel=7 note=58 velocity=0 time=0.08333325
EXTRACT: note_on channel=9 note=54 velocity=0 time=0
EXTRACT: note_on channel=9 note=82 velocity=0 time=0
EXTRACT: note_on channel=15 note=34 velocity=0 time=0
EXTRACT: note_on channel=7 note=60 velocity=92 time=0.0069444375
EXTRACT: note_on channel=9 note=54 velocity=92 time=0
EXTRACT: note_on channel=11 note=53 velocity=92 time=0
EXTRACT: note_on channel=11 note=58 velocity=92 time=0
EXTRACT: note_on channel=11 note=62 velocity=92 time=0
EXTRACT: note_on channel=11 note=65 velocity=92 time=0
EXTRACT: note_on channel=15 note=34 velocity=92 time=0
EXTRACT: note_on channel=0 note=79 velocity=0 time=0.0347221875
EXTRACT: note_on channel=9 note=54 velocity=0 time=0
EXTRACT: note_on channel=0 note=79 velocity=127 time=0.0069444375
EXTRACT: note_on channel=9 note=82 velocity=92 time=0
EXTRACT: note_on channel=7 note=60 velocity=0 time=0.1180554375
EXTRACT: note_on channel=9 note=82 velocity=0 time=0
EXTRACT: note_on channel=11 note=53 velocity=0 time=0
EXTRACT: note_on channel=11 note=58 velocity=0 time=0
EXTRACT: note_on channel=11 note=62 velocity=0 time=0
EXTRACT: note_on channel=11 note=65 velocity=0 time=0
EXTRACT: note_on channel=15 note=34 velocity=0 time=0
EXTRACT: note_on channel=7 note=62 velocity=92 time=0.0069444375
EXTRACT: note_on channel=9 note=54 velocity=92 time=0
EXTRACT: note_on channel=9 note=35 velocity=92 time=0
EXTRACT: note_on channel=9 note=42 velocity=92 time=0
EXTRACT: note_on channel=11 note=53 velocity=92 time=0
EXTRACT: note_on channel=11 note=58 velocity=92 time=0
EXTRACT: note_on channel=11 note=62 velocity=92 time=0
EXTRACT: note_on channel=11 note=65 velocity=92 time=0
EXTRACT: note_on channel=15 note=29 velocity=92 time=0
EXTRACT: note_on channel=9 note=35 velocity=0 time=0.0763888125
EXTRACT: note_on channel=9 note=42 velocity=0 time=0
EXTRACT: note_on channel=7 note=62 velocity=0 time=0.08333325
EXTRACT: note_on channel=9 note=54 velocity=0 time=0
EXTRACT: note_on channel=11 note=53 velocity=0 time=0
EXTRACT: note_on channel=11 note=58 velocity=0 time=0
EXTRACT: note_on channel=11 note=62 velocity=0 time=0
EXTRACT: note_on channel=11 note=65 velocity=0 time=0
EXTRACT: note_on channel=15 note=29 velocity=0 time=0
EXTRACT: note_on channel=7 note=58 velocity=92 time=0.0069444375
EXTRACT: note_on channel=9 note=54 velocity=92 time=0
EXTRACT: note_on channel=11 note=53 velocity=92 time=0
EXTRACT: note_on channel=11 note=58 velocity=92 time=0
EXTRACT: note_on channel=11 note=62 velocity=92 time=0
EXTRACT: note_on channel=11 note=65 velocity=92 time=0
EXTRACT: note_on channel=15 note=31 velocity=92 time=0
EXTRACT: note_on channel=9 note=54 velocity=0 time=0.0347221875
EXTRACT: note_on channel=9 note=82 velocity=92 time=0.0069444375
EXTRACT: note_on channel=7 note=58 velocity=0 time=0.1180554375
EXTRACT: note_on channel=9 note=82 velocity=0 time=0
EXTRACT: note_on channel=11 note=53 velocity=0 time=0
EXTRACT: note_on channel=11 note=58 velocity=0 time=0
EXTRACT: note_on channel=11 note=62 velocity=0 time=0
EXTRACT: note_on channel=11 note=65 velocity=0 time=0
EXTRACT: note_on channel=15 note=31 velocity=0 time=0
EXTRACT: note_on channel=7 note=60 velocity=92 time=0.0069444375
EXTRACT: note_on channel=9 note=54 velocity=92 time=0
EXTRACT: note_on channel=9 note=35 velocity=92 time=0
EXTRACT: note_on channel=9 note=46 velocity=92 time=0
EXTRACT: note_on channel=11 note=53 velocity=92 time=0
EXTRACT: note_on channel=11 note=58 velocity=92 time=0
EXTRACT: note_on channel=11 note=62 velocity=92 time=0
EXTRACT: note_on channel=11 note=65 velocity=92 time=0
EXTRACT: note_on channel=15 note=34 velocity=92 time=0
EXTRACT: note_on channel=0 note=79 velocity=0 time=0.0347221875
EXTRACT: note_on channel=0 note=77 velocity=127 time=0.0069444375
EXTRACT: note_on channel=9 note=35 velocity=0 time=0.0347221875
EXTRACT: note_on channel=9 note=46 velocity=0 time=0
EXTRACT: note_on channel=7 note=60 velocity=0 time=0.08333325
EXTRACT: note_on channel=9 note=54 velocity=0 time=0
EXTRACT: note_on channel=11 note=53 velocity=0 time=0
EXTRACT: note_on channel=11 note=58 velocity=0 time=0
EXTRACT: note_on channel=11 note=62 velocity=0 time=0
EXTRACT: note_on channel=11 note=65 velocity=0 time=0
EXTRACT: note_on channel=7 note=62 velocity=92 time=0.0069444375
EXTRACT: note_on channel=9 note=54 velocity=92 time=0
EXTRACT: note_on channel=11 note=53 velocity=92 time=0
EXTRACT: note_on channel=11 note=58 velocity=92 time=0
EXTRACT: note_on channel=11 note=62 velocity=92 time=0
EXTRACT: note_on channel=11 note=65 velocity=92 time=0
EXTRACT: note_on channel=9 note=54 velocity=0 time=0.0347221875
EXTRACT: note_on channel=9 note=82 velocity=92 time=0.0069444375
EXTRACT: note_on channel=0 note=77 velocity=0 time=0.1180554375
EXTRACT: note_on channel=7 note=62 velocity=0 time=0
EXTRACT: note_on channel=9 note=82 velocity=0 time=0
EXTRACT: note_on channel=11 note=53 velocity=0 time=0
EXTRACT: note_on channel=11 note=58 velocity=0 time=0
EXTRACT: note_on channel=11 note=62 velocity=0 time=0
EXTRACT: note_on channel=11 note=65 velocity=0 time=0
EXTRACT: note_on channel=0 note=77 velocity=127 time=0.0069444375
EXTRACT: note_on channel=3 note=57 velocity=92 time=0
EXTRACT: note_on channel=7 note=58 velocity=92 time=0
EXTRACT: note_on channel=9 note=54 velocity=92 time=0
EXTRACT: note_on channel=9 note=82 velocity=92 time=0
EXTRACT: note_on channel=9 note=40 velocity=92 time=0
EXTRACT: note_on channel=9 note=42 velocity=92 time=0
EXTRACT: note_on channel=11 note=53 velocity=92 time=0
EXTRACT: note_on channel=11 note=58 velocity=92 time=0
EXTRACT: note_on channel=11 note=62 velocity=92 time=0
EXTRACT: note_on channel=11 note=65 velocity=92 time=0
EXTRACT: note_on channel=9 note=40 velocity=0 time=0.0763888125
EXTRACT: note_on channel=9 note=42 velocity=0 time=0
EXTRACT: note_on channel=5 note=53 velocity=0 time=0.08333325
EXTRACT: note_on channel=5 note=58 velocity=0 time=0
EXTRACT: note_on channel=5 note=62 velocity=0 time=0
EXTRACT: note_on channel=5 note=46 velocity=0 time=0
EXTRACT: note_on channel=7 note=58 velocity=0 time=0
EXTRACT: note_on channel=9 note=54 velocity=0 time=0
EXTRACT: note_on channel=9 note=82 velocity=0 time=0
EXTRACT: note_on channel=15 note=34 velocity=0 time=0
EXTRACT: note_on channel=7 note=60 velocity=92 time=0.0069444375
EXTRACT: note_on channel=9 note=54 velocity=92 time=0
EXTRACT: note_on channel=0 note=77 velocity=0 time=0.0347221875
EXTRACT: note_on channel=9 note=54 velocity=0 time=0
EXTRACT: note_on channel=0 note=75 velocity=127 time=0.0069444375
EXTRACT: note_on channel=9 note=82 velocity=92 time=0
EXTRACT: note_on channel=0 note=75 velocity=0 time=0.1180554375
EXTRACT: note_on channel=7 note=60 velocity=0 time=0
EXTRACT: note_on channel=9 note=82 velocity=0 time=0
EXTRACT: note_on channel=11 note=53 velocity=0 time=0
EXTRACT: note_on channel=11 note=58 velocity=0 time=0
EXTRACT: note_on channel=11 note=62 velocity=0 time=0
EXTRACT: note_on channel=11 note=65 velocity=0 time=0
EXTRACT: note_on channel=0 note=74 velocity=127 time=0.0069444375
EXTRACT: note_on channel=7 note=62 velocity=92 time=0
EXTRACT: note_on channel=9 note=54 velocity=92 time=0
EXTRACT: note_on channel=9 note=82 velocity=92 time=0
EXTRACT: note_on channel=9 note=42 velocity=92 time=0
EXTRACT: note_on channel=11 note=53 velocity=92 time=0
EXTRACT: note_on channel=11 note=58 velocity=92 time=0
EXTRACT: note_on channel=11 note=62 velocity=92 time=0
EXTRACT: note_on channel=11 note=65 velocity=92 time=0
EXTRACT: note_on channel=15 note=34 velocity=92 time=0
EXTRACT: note_on channel=9 note=42 velocity=0 time=0.0763888125
EXTRACT: note_on channel=0 note=74 velocity=0 time=0.08333325
EXTRACT: note_on channel=9 note=54 velocity=0 time=0
EXTRACT: note_on channel=9 note=82 velocity=0 time=0
EXTRACT: note_on channel=0 note=75 velocity=127 time=0.0069444375
EXTRACT: note_on channel=9 note=54 velocity=92 time=0
EXTRACT: note_on channel=12 note=70 velocity=0 time=0
EXTRACT: note_on channel=12 note=77 velocity=0 time=0
EXTRACT: note_on channel=13 note=70 velocity=0 time=0
EXTRACT: note_on channel=9 note=54 velocity=0 time=0.0347221875
EXTRACT: note_on channel=9 note=82 velocity=92 time=0.0069444375
EXTRACT: note_on channel=3 note=57 velocity=0 time=0.013888875
EXTRACT: note_on channel=0 note=75 velocity=0 time=0.1041665625
EXTRACT: note_on channel=7 note=62 velocity=0 time=0
EXTRACT: note_on channel=9 note=82 velocity=0 time=0
EXTRACT: note_on channel=11 note=53 velocity=0 time=0
EXTRACT: note_on channel=11 note=58 velocity=0 time=0
EXTRACT: note_on channel=11 note=62 velocity=0 time=0
EXTRACT: note_on channel=11 note=65 velocity=0 time=0
EXTRACT: note_on channel=15 note=34 velocity=0 time=0
EXTRACT: note_on channel=3 note=53 velocity=92 time=0.0069444375
EXTRACT: note_on channel=3 note=60 velocity=92 time=0
EXTRACT: note_on channel=5 note=53 velocity=92 time=0
EXTRACT: note_on channel=5 note=57 velocity=92 time=0
EXTRACT: note_on channel=5 note=60 velocity=92 time=0
EXTRACT: note_on channel=5 note=41 velocity=92 time=0
EXTRACT: note_on channel=9 note=54 velocity=92 time=0
EXTRACT: note_on channel=9 note=82 velocity=92 time=0
EXTRACT: note_on channel=9 note=35 velocity=92 time=0
EXTRACT: note_on channel=9 note=42 velocity=92 time=0
EXTRACT: note_on channel=11 note=53 velocity=92 time=0
EXTRACT: note_on channel=11 note=57 velocity=92 time=0
EXTRACT: note_on channel=11 note=60 velocity=92 time=0
EXTRACT: note_on channel=11 note=65 velocity=92 time=0
EXTRACT: note_on channel=12 note=69 velocity=92 time=0
EXTRACT: note_on channel=13 note=65 velocity=92 time=0
EXTRACT: note_on channel=15 note=29 velocity=92 time=0
EXTRACT: note_on channel=0 note=75 velocity=127 time=0.041666625
EXTRACT: note_on channel=7 note=58 velocity=92 time=0
EXTRACT: note_on channel=9 note=35 velocity=0 time=0.0347221875
EXTRACT: note_on channel=9 note=42 velocity=0 time=0
EXTRACT: note_on channel=9 note=54 velocity=0 time=0.08333325
EXTRACT: note_on channel=9 note=82 velocity=0 time=0
EXTRACT: note_on channel=11 note=53 velocity=0 time=0
EXTRACT: note_on channel=11 note=57 velocity=0 time=0
EXTRACT: note_on channel=11 note=60 velocity=0 time=0
EXTRACT: note_on channel=11 note=65 velocity=0 time=0
EXTRACT: note_on channel=9 note=54 velocity=92 time=0.0069444375
EXTRACT: note_on channel=7 note=58 velocity=0 time=0.0347221875
EXTRACT: note_on channel=9 note=54 velocity=0 time=0
EXTRACT: note_on channel=7 note=60 velocity=92 time=0.0069444375
EXTRACT: note_on channel=9 note=82 velocity=92 time=0
EXTRACT: note_on channel=7 note=60 velocity=0 time=0.1180554375
EXTRACT: note_on channel=9 note=82 velocity=0 time=0
EXTRACT: note_on channel=7 note=62 velocity=92 time=0.0069444375
EXTRACT: note_on channel=9 note=54 velocity=92 time=0
EXTRACT: note_on channel=9 note=82 velocity=92 time=0
EXTRACT: note_on channel=9 note=42 velocity=92 time=0
EXTRACT: note_on channel=11 note=53 velocity=92 time=0
EXTRACT: note_on channel=11 note=57 velocity=92 time=0
EXTRACT: note_on channel=11 note=60 velocity=92 time=0
EXTRACT: note_on channel=11 note=65 velocity=92 time=0
EXTRACT: note_on channel=0 note=75 velocity=0 time=0.0763888125
EXTRACT: note_on channel=9 note=42 velocity=0 time=0
EXTRACT: note_on channel=0 note=74 velocity=127 time=0.0069444375
EXTRACT: note_on channel=11 note=53 velocity=0 time=0.0347221875
EXTRACT: note_on channel=11 note=57 velocity=0 time=0
EXTRACT: note_on channel=11 note=60 velocity=0 time=0
EXTRACT: note_on channel=11 note=65 velocity=0 time=0
EXTRACT: note_on channel=7 note=62 velocity=0 time=0.041666625
EXTRACT: note_on channel=9 note=54 velocity=0 time=0
EXTRACT: note_on channel=9 note=82 velocity=0 time=0
EXTRACT: note_on channel=7 note=58 velocity=92 time=0.0069444375
EXTRACT: note_on channel=9 note=54 velocity=92 time=0
EXTRACT: note_on channel=9 note=54 velocity=0 time=0.0347221875
EXTRACT: note_on channel=9 note=82 velocity=92 time=0.0069444375
EXTRACT: note_on channel=7 note=58 velocity=0 time=0.1180554375
EXTRACT: note_on channel=9 note=82 velocity=0 time=0
EXTRACT: note_on channel=7 note=60 velocity=92 time=0.0069444375
EXTRACT: note_on channel=9 note=54 velocity=92 time=0
EXTRACT: note_on channel=9 note=82 velocity=92 time=0
EXTRACT: note_on channel=9 note=40 velocity=92 time=0
EXTRACT: note_on channel=9 note=42 velocity=92 time=0
EXTRACT: note_on channel=11 note=53 velocity=92 time=0
EXTRACT: note_on channel=11 note=57 velocity=92 time=0
EXTRACT: note_on channel=11 note=60 velocity=92 time=0
EXTRACT: note_on channel=11 note=65 velocity=92 time=0
EXTRACT: note_on channel=9 note=40 velocity=0 time=0.0763888125
EXTRACT: note_on channel=9 note=42 velocity=0 time=0
EXTRACT: note_on channel=7 note=60 velocity=0 time=0.08333325
EXTRACT: note_on channel=9 note=54 velocity=0 time=0
EXTRACT: note_on channel=9 note=82 velocity=0 time=0
EXTRACT: note_on channel=7 note=62 velocity=92 time=0.0069444375
EXTRACT: note_on channel=9 note=54 velocity=92 time=0
EXTRACT: note_on channel=9 note=54 velocity=0 time=0.0347221875
EXTRACT: note_on channel=9 note=82 velocity=92 time=0.0069444375
EXTRACT: note_on channel=7 note=62 velocity=0 time=0.1180554375
EXTRACT: note_on channel=9 note=82 velocity=0 time=0
EXTRACT: note_on channel=11 note=53 velocity=0 time=0
EXTRACT: note_on channel=11 note=57 velocity=0 time=0
EXTRACT: note_on channel=11 note=60 velocity=0 time=0
EXTRACT: note_on channel=11 note=65 velocity=0 time=0
EXTRACT: note_on channel=7 note=58 velocity=92 time=0.0069444375
EXTRACT: note_on channel=8 note=58 velocity=92 time=0
EXTRACT: note_on channel=9 note=54 velocity=92 time=0
EXTRACT: note_on channel=9 note=82 velocity=92 time=0
EXTRACT: note_on channel=9 note=42 velocity=92 time=0
EXTRACT: note_on channel=9 note=42 velocity=0 time=0.0763888125
EXTRACT: note_on channel=0 note=74 velocity=0 time=0.041666625
EXTRACT: note_on channel=7 note=58 velocity=0 time=0.041666625
EXTRACT: note_on channel=8 note=58 velocity=0 time=0
EXTRACT: note_on channel=9 note=54 velocity=0 time=0
EXTRACT: note_on channel=9 note=82 velocity=0 time=0
EXTRACT: note_on channel=15 note=29 velocity=0 time=0
EXTRACT: note_on channel=7 note=60 velocity=92 time=0.0069444375
EXTRACT: note_on channel=8 note=60 velocity=92 time=0
EXTRACT: note_on channel=9 note=54 velocity=92 time=0
EXTRACT: note_on channel=11 note=53 velocity=92 time=0
EXTRACT: note_on channel=11 note=57 velocity=92 time=0
EXTRACT: note_on channel=11 note=60 velocity=92 time=0
EXTRACT: note_on channel=11 note=65 velocity=92 time=0
EXTRACT: note_on channel=15 note=29 velocity=92 time=0
EXTRACT: note_on channel=9 note=54 velocity=0 time=0.0347221875
EXTRACT: note_on channel=9 note=82 velocity=92 time=0.0069444375
EXTRACT: note_on channel=7 note=60 velocity=0 time=0.1180554375
EXTRACT: note_on channel=8 note=60 velocity=0 time=0
EXTRACT: note_on channel=9 note=82 velocity=0 time=0
EXTRACT: note_on channel=11 note=53 velocity=0 time=0
EXTRACT: note_on channel=11 note=57 velocity=0 time=0
EXTRACT: note_on channel=11 note=60 velocity=0 time=0
EXTRACT: note_on channel=11 note=65 velocity=0 time=0
EXTRACT: note_on channel=15 note=29 velocity=0 time=0
EXTRACT: note_on channel=7 note=62 velocity=92 time=0.0069444375
EXTRACT: note_on channel=8 note=62 velocity=92 time=0
EXTRACT: note_on channel=9 note=54 velocity=92 time=0
EXTRACT: note_on channel=9 note=35 velocity=92 time=0
EXTRACT: note_on channel=9 note=42 velocity=92 time=0
EXTRACT: note_on channel=11 note=53 velocity=92 time=0
EXTRACT: note_on channel=11 note=57 velocity=92 time=0
EXTRACT: note_on channel=11 note=60 velocity=92 time=0
EXTRACT: note_on channel=11 note=65 velocity=92 time=0
EXTRACT: note_on channel=15 note=29 velocity=92 time=0
EXTRACT: note_on channel=9 note=35 velocity=0 time=0.0763888125
EXTRACT: note_on channel=9 note=42 velocity=0 time=0
EXTRACT: note_on channel=15 note=29 velocity=0 time=0.041666625
EXTRACT: note_on channel=7 note=62 velocity=0 time=0.041666625
EXTRACT: note_on channel=8 note=62 velocity=0 time=0
EXTRACT: note_on channel=9 note=54 velocity=0 time=0
EXTRACT: note_on channel=11 note=53 velocity=0 time=0
EXTRACT: note_on channel=11 note=57 velocity=0 time=0
EXTRACT: note_on channel=11 note=60 velocity=0 time=0
EXTRACT: note_on channel=11 note=65 velocity=0 time=0
EXTRACT: note_on channel=0 note=74 velocity=127 time=0.0069444375
EXTRACT: note_on channel=7 note=58 velocity=92 time=0
EXTRACT: note_on channel=8 note=58 velocity=92 time=0
EXTRACT: note_on channel=9 note=54 velocity=92 time=0
EXTRACT: note_on channel=11 note=53 velocity=92 time=0
EXTRACT: note_on channel=11 note=57 velocity=92 time=0
EXTRACT: note_on channel=11 note=60 velocity=92 time=0
EXTRACT: note_on channel=11 note=65 velocity=92 time=0
EXTRACT: note_on channel=9 note=54 velocity=0 time=0.0347221875
EXTRACT: note_on channel=9 note=82 velocity=92 time=0.0069444375
EXTRACT: note_on channel=7 note=58 velocity=0 time=0.1180554375
EXTRACT: note_on channel=8 note=58 velocity=0 time=0
EXTRACT: note_on channel=9 note=82 velocity=0 time=0
EXTRACT: note_on channel=11 note=53 velocity=0 time=0
EXTRACT: note_on channel=11 note=57 velocity=0 time=0
EXTRACT: note_on channel=11 note=60 velocity=0 time=0
EXTRACT: note_on channel=11 note=65 velocity=0 time=0
EXTRACT: note_on channel=7 note=60 velocity=92 time=0.0069444375
EXTRACT: note_on channel=8 note=60 velocity=92 time=0
EXTRACT: note_on channel=9 note=54 velocity=92 time=0
EXTRACT: note_on channel=9 note=35 velocity=92 time=0
EXTRACT: note_on channel=9 note=46 velocity=92 time=0
EXTRACT: note_on channel=11 note=53 velocity=92 time=0
EXTRACT: note_on channel=11 note=57 velocity=92 time=0
EXTRACT: note_on channel=11 note=60 velocity=92 time=0
EXTRACT: note_on channel=11 note=65 velocity=92 time=0
EXTRACT: note_on channel=15 note=29 velocity=92 time=0
EXTRACT: note_on channel=0 note=74 velocity=0 time=0.0763888125
EXTRACT: note_on channel=9 note=35 velocity=0 time=0
EXTRACT: note_on channel=9 note=46 velocity=0 time=0
EXTRACT: note_on channel=0 note=74 velocity=127 time=0.0069444375
EXTRACT: note_on channel=7 note=60 velocity=0 time=0.0763888125
EXTRACT: note_on channel=8 note=60 velocity=0 time=0
EXTRACT: note_on channel=9 note=54 velocity=0 time=0
EXTRACT: note_on channel=11 note=53 velocity=0 time=0
EXTRACT: note_on channel=11 note=57 velocity=0 time=0
EXTRACT: note_on channel=11 note=60 velocity=0 time=0
EXTRACT: note_on channel=11 note=65 velocity=0 time=0
EXTRACT: note_on channel=15 note=29 velocity=0 time=0
EXTRACT: note_on channel=7 note=62 velocity=92 time=0.0069444375
EXTRACT: note_on channel=8 note=62 velocity=92 time=0
EXTRACT: note_on channel=9 note=54 velocity=92 time=0
EXTRACT: note_on channel=11 note=53 velocity=92 time=0
EXTRACT: note_on channel=11 note=57 velocity=92 time=0
EXTRACT: note_on channel=11 note=60 velocity=92 time=0
EXTRACT: note_on channel=11 note=65 velocity=92 time=0
EXTRACT: note_on channel=9 note=54 velocity=0 time=0.0347221875
EXTRACT: note_on channel=9 note=82 velocity=92 time=0.0069444375
EXTRACT: note_on channel=0 note=74 velocity=0 time=0.0763888125
EXTRACT: note_on channel=0 note=74 velocity=127 time=0.0069444375
EXTRACT: note_on channel=7 note=62 velocity=0 time=0.0347221875
EXTRACT: note_on channel=8 note=62 velocity=0 time=0
EXTRACT: note_on channel=9 note=82 velocity=0 time=0
EXTRACT: note_on channel=11 note=53 velocity=0 time=0
EXTRACT: note_on channel=11 note=57 velocity=0 time=0
EXTRACT: note_on channel=11 note=60 velocity=0 time=0
EXTRACT: note_on channel=11 note=65 velocity=0 time=0
EXTRACT: note_on channel=7 note=58 velocity=92 time=0.0069444375
EXTRACT: note_on channel=8 note=58 velocity=92 time=0
EXTRACT: note_on channel=9 note=54 velocity=92 time=0
EXTRACT: note_on channel=9 note=82 velocity=92 time=0
EXTRACT: note_on channel=9 note=40 velocity=92 time=0
EXTRACT: note_on channel=9 note=42 velocity=92 time=0
EXTRACT: note_on channel=11 note=53 velocity=92 time=0
EXTRACT: note_on channel=11 note=57 velocity=92 time=0
EXTRACT: note_on channel=11 note=60 velocity=92 time=0
EXTRACT: note_on channel=11 note=65 velocity=92 time=0
EXTRACT: note_on channel=15 note=29 velocity=92 time=0
EXTRACT: note_on channel=5 note=53 velocity=0 time=0.0763888125
EXTRACT: note_on channel=5 note=57 velocity=0 time=0
EXTRACT: note_on channel=5 note=60 velocity=0 time=0
EXTRACT: note_on channel=9 note=40 velocity=0 time=0
EXTRACT: note_on channel=9 note=42 velocity=0 time=0
EXTRACT: note_on channel=5 note=41 velocity=0 time=0.08333325
EXTRACT: note_on channel=7 note=58 velocity=0 time=0
EXTRACT: note_on channel=8 note=58 velocity=0 time=0
EXTRACT: note_on channel=9 note=54 velocity=0 time=0
EXTRACT: note_on channel=9 note=82 velocity=0 time=0
EXTRACT: note_on channel=12 note=69 velocity=0 time=0
EXTRACT: note_on channel=15 note=29 velocity=0 time=0
EXTRACT: note_on channel=7 note=60 velocity=92 time=0.0069444375
EXTRACT: note_on channel=8 note=60 velocity=92 time=0
EXTRACT: note_on channel=9 note=54 velocity=92 time=0
EXTRACT: note_on channel=15 note=31 velocity=92 time=0
EXTRACT: note_on channel=9 note=54 velocity=0 time=0.0347221875
EXTRACT: note_on channel=9 note=82 velocity=92 time=0.0069444375
EXTRACT: note_on channel=0 note=74 velocity=0 time=0.1180554375
EXTRACT: note_on channel=7 note=60 velocity=0 time=0
EXTRACT: note_on channel=8 note=60 velocity=0 time=0
EXTRACT: note_on channel=9 note=82 velocity=0 time=0
EXTRACT: note_on channel=11 note=53 velocity=0 time=0
EXTRACT: note_on channel=11 note=57 velocity=0 time=0
EXTRACT: note_on channel=11 note=60 velocity=0 time=0
EXTRACT: note_on channel=11 note=65 velocity=0 time=0
EXTRACT: note_on channel=15 note=31 velocity=0 time=0
EXTRACT: note_on channel=0 note=72 velocity=127 time=0.0069444375
EXTRACT: note_on channel=7 note=62 velocity=92 time=0
EXTRACT: note_on channel=8 note=62 velocity=92 time=0
EXTRACT: note_on channel=9 note=54 velocity=92 time=0
EXTRACT: note_on channel=9 note=82 velocity=92 time=0
EXTRACT: note_on channel=9 note=46 velocity=92 time=0
EXTRACT: note_on channel=11 note=53 velocity=92 time=0
EXTRACT: note_on channel=11 note=57 velocity=92 time=0
EXTRACT: note_on channel=11 note=60 velocity=92 time=0
EXTRACT: note_on channel=11 note=65 velocity=92 time=0
EXTRACT: note_on channel=15 note=34 velocity=92 time=0
EXTRACT: note_on channel=9 note=46 velocity=0 time=0.0763888125
EXTRACT: note_on channel=0 note=72 velocity=0 time=0.08333325
EXTRACT: note_on channel=9 note=54 velocity=0 time=0
EXTRACT: note_on channel=9 note=82 velocity=0 time=0
EXTRACT: note_on channel=0 note=70 velocity=127 time=0.0069444375
EXTRACT: note_on channel=3 note=53 velocity=0 time=0
EXTRACT: note_on channel=3 note=60 velocity=0 time=0
EXTRACT: note_on channel=9 note=54 velocity=92 time=0
EXTRACT: note_on channel=13 note=65 velocity=0 time=0
EXTRACT: note_on channel=9 note=54 velocity=0 time=0.0347221875
EXTRACT: note_on channel=9 note=82 velocity=92 time=0.0069444375
EXTRACT: note_on channel=0 note=70 velocity=0 time=0.1180554375
EXTRACT: note_on channel=7 note=62 velocity=0 time=0
EXTRACT: note_on channel=8 note=62 velocity=0 time=0
EXTRACT: note_on channel=9 note=82 velocity=0 time=0
EXTRACT: note_on channel=11 note=53 velocity=0 time=0
EXTRACT: note_on channel=11 note=57 velocity=0 time=0
EXTRACT: note_on channel=11 note=60 velocity=0 time=0
EXTRACT: note_on channel=11 note=65 velocity=0 time=0
EXTRACT: note_on channel=15 note=34 velocity=0 time=0
EXTRACT: note_on channel=3 note=63 velocity=92 time=0.0069444375
EXTRACT: note_on channel=3 note=67 velocity=92 time=0
EXTRACT: note_on channel=5 note=55 velocity=92 time=0
EXTRACT: note_on channel=5 note=60 velocity=92 time=0
EXTRACT: note_on channel=5 note=63 velocity=92 time=0
EXTRACT: note_on channel=5 note=48 velocity=92 time=0
EXTRACT: note_on channel=9 note=54 velocity=92 time=0
EXTRACT: note_on channel=9 note=82 velocity=92 time=0
EXTRACT: note_on channel=9 note=35 velocity=92 time=0
EXTRACT: note_on channel=9 note=42 velocity=92 time=0
EXTRACT: note_on channel=11 note=55 velocity=92 time=0
EXTRACT: note_on channel=11 note=60 velocity=92 time=0
EXTRACT: note_on channel=11 note=63 velocity=92 time=0
EXTRACT: note_on channel=11 note=67 velocity=92 time=0
EXTRACT: note_on channel=12 note=67 velocity=92 time=0
EXTRACT: note_on channel=12 note=75 velocity=92 time=0
EXTRACT: note_on channel=13 note=70 velocity=92 time=0
EXTRACT: note_on channel=15 note=36 velocity=92 time=0
EXTRACT: note_on channel=0 note=70 velocity=127 time=0.041666625
EXTRACT: note_on channel=7 note=58 velocity=92 time=0
EXTRACT: note_on channel=8 note=58 velocity=92 time=0
EXTRACT: note_on channel=9 note=35 velocity=0 time=0.0347221875
EXTRACT: note_on channel=9 note=42 velocity=0 time=0
EXTRACT: note_on channel=9 note=54 velocity=0 time=0.08333325
EXTRACT: note_on channel=9 note=82 velocity=0 time=0
EXTRACT: note_on channel=11 note=55 velocity=0 time=0
EXTRACT: note_on channel=11 note=60 velocity=0 time=0
EXTRACT: note_on channel=11 note=63 velocity=0 time=0
EXTRACT: note_on channel=11 note=67 velocity=0 time=0
EXTRACT: note_on channel=9 note=54 velocity=92 time=0.0069444375
EXTRACT: note_on channel=7 note=58 velocity=0 time=0.0347221875
EXTRACT: note_on channel=8 note=58 velocity=0 time=0
EXTRACT: note_on channel=9 note=54 velocity=0 time=0
EXTRACT: note_on channel=7 note=60 velocity=92 time=0.0069444375
EXTRACT: note_on channel=8 note=60 velocity=92 time=0
EXTRACT: note_on channel=9 note=82 velocity=92 time=0
EXTRACT: note_on channel=7 note=60 velocity=0 time=0.1180554375
EXTRACT: note_on channel=8 note=60 velocity=0 time=0
EXTRACT: note_on channel=9 note=82 velocity=0 time=0
EXTRACT: note_on channel=7 note=62 velocity=92 time=0.0069444375
EXTRACT: note_on channel=8 note=62 velocity=92 time=0
EXTRACT: note_on channel=9 note=54 velocity=92 time=0
EXTRACT: note_on channel=9 note=82 velocity=92 time=0
EXTRACT: note_on channel=9 note=42 velocity=92 time=0
EXTRACT: note_on channel=11 note=55 velocity=92 time=0
EXTRACT: note_on channel=11 note=60 velocity=92 time=0
EXTRACT: note_on channel=11 note=63 velocity=92 time=0
EXTRACT: note_on channel=11 note=67 velocity=92 time=0
EXTRACT: note_on channel=0 note=70 velocity=0 time=0.0763888125
EXTRACT: note_on channel=9 note=42 velocity=0 time=0
EXTRACT: note_on channel=0 note=72 velocity=127 time=0.0069444375
EXTRACT: note_on channel=11 note=55 velocity=0 time=0.0347221875
EXTRACT: note_on channel=11 note=60 velocity=0 time=0
EXTRACT: note_on channel=11 note=63 velocity=0 time=0
EXTRACT: note_on channel=11 note=67 velocity=0 time=0
EXTRACT: note_on channel=7 note=62 velocity=0 time=0.041666625
EXTRACT: note_on channel=8 note=62 velocity=0 time=0
EXTRACT: note_on channel=9 note=54 velocity=0 time=0
EXTRACT: note_on channel=9 note=82 velocity=0 time=0
EXTRACT: note_on channel=7 note=58 velocity=92 time=0.0069444375
EXTRACT: note_on channel=8 note=58 velocity=92 time=0
EXTRACT: note_on channel=9 note=54 velocity=92 time=0
EXTRACT: note_on channel=9 note=54 velocity=0 time=0.0347221875
EXTRACT: note_on channel=9 note=82 velocity=92 time=0.0069444375
EXTRACT: note_on channel=7 note=58 velocity=0 time=0.1180554375
EXTRACT: note_on channel=8 note=58 velocity=0 time=0
EXTRACT: note_on channel=9 note=82 velocity=0 time=0
EXTRACT: note_on channel=7 note=60 velocity=92 time=0.0069444375
EXTRACT: note_on channel=8 note=60 velocity=92 time=0
EXTRACT: note_on channel=9 note=54 velocity=92 time=0
EXTRACT: note_on channel=9 note=82 velocity=92 time=0
EXTRACT: note_on channel=9 note=40 velocity=92 time=0
EXTRACT: note_on channel=9 note=42 velocity=92 time=0
EXTRACT: note_on channel=11 note=55 velocity=92 time=0
EXTRACT: note_on channel=11 note=60 velocity=92 time=0
EXTRACT: note_on channel=11 note=63 velocity=92 time=0
EXTRACT: note_on channel=11 note=67 velocity=92 time=0
EXTRACT: note_on channel=9 note=40 velocity=0 time=0.0763888125
EXTRACT: note_on channel=9 note=42 velocity=0 time=0
EXTRACT: note_on channel=7 note=60 velocity=0 time=0.08333325
EXTRACT: note_on channel=8 note=60 velocity=0 time=0
EXTRACT: note_on channel=9 note=54 velocity=0 time=0
EXTRACT: note_on channel=9 note=82 velocity=0 time=0
EXTRACT: note_on channel=7 note=62 velocity=92 time=0.0069444375
EXTRACT: note_on channel=8 note=62 velocity=92 time=0
EXTRACT: note_on channel=9 note=54 velocity=92 time=0
EXTRACT: note_on channel=9 note=54 velocity=0 time=0.0347221875
EXTRACT: note_on channel=9 note=82 velocity=92 time=0.0069444375
EXTRACT: note_on channel=15 note=36 velocity=0 time=0.013888875
EXTRACT: note_on channel=7 note=62 velocity=0 time=0.1041665625
EXTRACT: note_on channel=8 note=62 velocity=0 time=0
EXTRACT: note_on channel=9 note=82 velocity=0 time=0
EXTRACT: note_on channel=11 note=55 velocity=0 time=0
EXTRACT: note_on channel=11 note=60 velocity=0 time=0
EXTRACT: note_on channel=11 note=63 velocity=0 time=0
EXTRACT: note_on channel=11 note=67 velocity=0 time=0
EXTRACT: note_on channel=7 note=58 velocity=92 time=0.0069444375
EXTRACT: note_on channel=8 note=58 velocity=92 time=0
EXTRACT: note_on channel=9 note=54 velocity=92 time=0
EXTRACT: note_on channel=9 note=82 velocity=92 time=0
EXTRACT: note_on channel=9 note=42 velocity=92 time=0
EXTRACT: note_on channel=9 note=42 velocity=0 time=0.0763888125
EXTRACT: note_on channel=7 note=58 velocity=0 time=0.08333325
EXTRACT: note_on channel=8 note=58 velocity=0 time=0
EXTRACT: note_on channel=9 note=54 velocity=0 time=0
EXTRACT: note_on channel=9 note=82 velocity=0 time=0
EXTRACT: note_on channel=7 note=60 velocity=92 time=0.0069444375
EXTRACT: note_on channel=8 note=60 velocity=92 time=0
EXTRACT: note_on channel=9 note=54 velocity=92 time=0
EXTRACT: note_on channel=11 note=55 velocity=92 time=0
EXTRACT: note_on channel=11 note=60 velocity=92 time=0
EXTRACT: note_on channel=11 note=63 velocity=92 time=0
EXTRACT: note_on channel=11 note=67 velocity=92 time=0
EXTRACT: note_on channel=15 note=36 velocity=92 time=0
EXTRACT: note_on channel=9 note=54 velocity=0 time=0.0347221875
EXTRACT: note_on channel=9 note=82 velocity=92 time=0.0069444375
EXTRACT: note_on channel=0 note=72 velocity=0 time=0.013888875
EXTRACT: note_on channel=7 note=60 velocity=0 time=0.1041665625
EXTRACT: note_on channel=8 note=60 velocity=0 time=0
EXTRACT: note_on channel=9 note=82 velocity=0 time=0
EXTRACT: note_on channel=11 note=55 velocity=0 time=0
EXTRACT: note_on channel=11 note=60 velocity=0 time=0
EXTRACT: note_on channel=11 note=63 velocity=0 time=0
EXTRACT: note_on channel=11 note=67 velocity=0 time=0
EXTRACT: note_on channel=15 note=36 velocity=0 time=0
EXTRACT: note_on channel=7 note=62 velocity=92 time=0.0069444375
EXTRACT: note_on channel=8 note=62 velocity=92 time=0
EXTRACT: note_on channel=9 note=54 velocity=92 time=0
EXTRACT: note_on channel=9 note=35 velocity=92 time=0
EXTRACT: note_on channel=9 note=42 velocity=92 time=0
EXTRACT: note_on channel=11 note=55 velocity=92 time=0
EXTRACT: note_on channel=11 note=60 velocity=92 time=0
EXTRACT: note_on channel=11 note=63 velocity=92 time=0
EXTRACT: note_on channel=11 note=67 velocity=92 time=0
EXTRACT: note_on channel=15 note=36 velocity=92 time=0
EXTRACT: note_on channel=9 note=35 velocity=0 time=0.0763888125
EXTRACT: note_on channel=9 note=42 velocity=0 time=0
EXTRACT: note_on channel=15 note=36 velocity=0 time=0.041666625
EXTRACT: note_on channel=7 note=62 velocity=0 time=0.041666625
EXTRACT: note_on channel=9 note=54 velocity=0 time=0
EXTRACT: note_on channel=11 note=55 velocity=0 time=0
EXTRACT: note_on channel=11 note=60 velocity=0 time=0
EXTRACT: note_on channel=11 note=63 velocity=0 time=0
EXTRACT: note_on channel=11 note=67 velocity=0 time=0
EXTRACT: note_on channel=0 note=74 velocity=127 time=0.0069444375
EXTRACT: note_on channel=7 note=58 velocity=92 time=0
EXTRACT: note_on channel=9 note=54 velocity=92 time=0
EXTRACT: note_on channel=11 note=55 velocity=92 time=0
EXTRACT: note_on channel=11 note=60 velocity=92 time=0
EXTRACT: note_on channel=11 note=63 velocity=92 time=0
EXTRACT: note_on channel=11 note=67 velocity=92 time=0
EXTRACT: note_on channel=8 note=62 velocity=0 time=0.0347221875
EXTRACT: note_on channel=9 note=54 velocity=0 time=0
EXTRACT: note_on channel=9 note=82 velocity=92 time=0.0069444375
EXTRACT: note_on channel=7 note=58 velocity=0 time=0.1180554375
EXTRACT: note_on channel=9 note=82 velocity=0 time=0
EXTRACT: note_on channel=11 note=55 velocity=0 time=0
EXTRACT: note_on channel=11 note=60 velocity=0 time=0
EXTRACT: note_on channel=11 note=63 velocity=0 time=0
EXTRACT: note_on channel=11 note=67 velocity=0 time=0
EXTRACT: note_on channel=7 note=60 velocity=92 time=0.0069444375
EXTRACT: note_on channel=9 note=54 velocity=92 time=0
EXTRACT: note_on channel=9 note=35 velocity=92 time=0
EXTRACT: note_on channel=9 note=46 velocity=92 time=0
EXTRACT: note_on channel=11 note=55 velocity=92 time=0
EXTRACT: note_on channel=11 note=60 velocity=92 time=0
EXTRACT: note_on channel=11 note=63 velocity=92 time=0
EXTRACT: note_on channel=11 note=67 velocity=92 time=0
EXTRACT: note_on channel=15 note=36 velocity=92 time=0
EXTRACT: note_on channel=9 note=35 velocity=0 time=0.0763888125
EXTRACT: note_on channel=9 note=46 velocity=0 time=0
EXTRACT: note_on channel=7 note=60 velocity=0 time=0.08333325
EXTRACT: note_on channel=9 note=54 velocity=0 time=0
EXTRACT: note_on channel=11 note=55 velocity=0 time=0
EXTRACT: note_on channel=11 note=60 velocity=0 time=0
EXTRACT: note_on channel=11 note=63 velocity=0 time=0
EXTRACT: note_on channel=11 note=67 velocity=0 time=0
EXTRACT: note_on channel=7 note=62 velocity=92 time=0.0069444375
EXTRACT: note_on channel=9 note=54 velocity=92 time=0
EXTRACT: note_on channel=11 note=55 velocity=92 time=0
EXTRACT: note_on channel=11 note=60 velocity=92 time=0
EXTRACT: note_on channel=11 note=63 velocity=92 time=0
EXTRACT: note_on channel=11 note=67 velocity=92 time=0
EXTRACT: note_on channel=0 note=74 velocity=0 time=0.0347221875
EXTRACT: note_on channel=9 note=54 velocity=0 time=0
EXTRACT: note_on channel=0 note=74 velocity=127 time=0.0069444375
EXTRACT: note_on channel=9 note=82 velocity=92 time=0
EXTRACT: note_on channel=0 note=74 velocity=0 time=0.1180554375
EXTRACT: note_on channel=7 note=62 velocity=0 time=0
EXTRACT: note_on channel=9 note=82 velocity=0 time=0
EXTRACT: note_on channel=11 note=55 velocity=0 time=0
EXTRACT: note_on channel=11 note=60 velocity=0 time=0
EXTRACT: note_on channel=11 note=63 velocity=0 time=0
EXTRACT: note_on channel=11 note=67 velocity=0 time=0
EXTRACT: note_on channel=7 note=58 velocity=92 time=0.0069444375
EXTRACT: note_on channel=9 note=54 velocity=92 time=0
EXTRACT: note_on channel=9 note=82 velocity=92 time=0
EXTRACT: note_on channel=9 note=40 velocity=92 time=0
EXTRACT: note_on channel=9 note=42 velocity=92 time=0
EXTRACT: note_on channel=11 note=55 velocity=92 time=0
EXTRACT: note_on channel=11 note=60 velocity=92 time=0
EXTRACT: note_on channel=11 note=63 velocity=92 time=0
EXTRACT: note_on channel=11 note=67 velocity=92 time=0
EXTRACT: note_on channel=0 note=74 velocity=127 time=0.041666625
EXTRACT: note_on channel=9 note=40 velocity=0 time=0.0347221875
EXTRACT: note_on channel=9 note=42 velocity=0 time=0
EXTRACT: note_on channel=7 note=58 velocity=0 time=0.08333325
EXTRACT: note_on channel=9 note=54 velocity=0 time=0
EXTRACT: note_on channel=9 note=82 velocity=0 time=0
EXTRACT: note_on channel=7 note=60 velocity=92 time=0.0069444375
EXTRACT: note_on channel=9 note=54 velocity=92 time=0
EXTRACT: note_on channel=5 note=55 velocity=0 time=0.0347221875
EXTRACT: note_on channel=5 note=60 velocity=0 time=0
EXTRACT: note_on channel=5 note=63 velocity=0 time=0
EXTRACT: note_on channel=9 note=54 velocity=0 time=0
EXTRACT: note_on channel=9 note=82 velocity=92 time=0.0069444375
EXTRACT: note_on channel=5 note=48 velocity=0 time=0.0763888125
EXTRACT: note_on channel=7 note=60 velocity=0 time=0.041666625
EXTRACT: note_on channel=9 note=82 velocity=0 time=0
EXTRACT: note_on channel=11 note=55 velocity=0 time=0
EXTRACT: note_on channel=11 note=60 velocity=0 time=0
EXTRACT: note_on channel=11 note=63 velocity=0 time=0
EXTRACT: note_on channel=11 note=67 velocity=0 time=0
EXTRACT: note_on channel=15 note=36 velocity=0 time=0
EXTRACT: note_on channel=7 note=62 velocity=92 time=0.0069444375
EXTRACT: note_on channel=9 note=54 velocity=92 time=0
EXTRACT: note_on channel=9 note=82 velocity=92 time=0
EXTRACT: note_on channel=9 note=46 velocity=92 time=0
EXTRACT: note_on channel=11 note=55 velocity=92 time=0
EXTRACT: note_on channel=11 note=60 velocity=92 time=0
EXTRACT: note_on channel=11 note=63 velocity=92 time=0
EXTRACT: note_on channel=11 note=67 velocity=92 time=0
EXTRACT: note_on channel=15 note=38 velocity=92 time=0
EXTRACT: note_on channel=0 note=74 velocity=0 time=0.0763888125
EXTRACT: note_on channel=9 note=46 velocity=0 time=0
EXTRACT: note_on channel=0 note=72 velocity=127 time=0.0069444375
EXTRACT: note_on channel=9 note=54 velocity=0 time=0.0763888125
EXTRACT: note_on channel=9 note=82 velocity=0 time=0
EXTRACT: note_on channel=3 note=63 velocity=0 time=0.0069444375
EXTRACT: note_on channel=3 note=67 velocity=0 time=0
EXTRACT: note_on channel=9 note=54 velocity=92 time=0
EXTRACT: note_on channel=13 note=70 velocity=0 time=0
EXTRACT: note_on channel=0 note=72 velocity=0 time=0.0347221875
EXTRACT: note_on channel=9 note=54 velocity=0 time=0
EXTRACT: note_on channel=0 note=70 velocity=127 time=0.0069444375
EXTRACT: note_on channel=9 note=82 velocity=92 time=0
EXTRACT: note_on channel=0 note=70 velocity=0 time=0.1180554375
EXTRACT: note_on channel=7 note=62 velocity=0 time=0
EXTRACT: note_on channel=9 note=82 velocity=0 time=0
EXTRACT: note_on channel=11 note=55 velocity=0 time=0
EXTRACT: note_on channel=11 note=60 velocity=0 time=0
EXTRACT: note_on channel=11 note=63 velocity=0 time=0
EXTRACT: note_on channel=11 note=67 velocity=0 time=0
EXTRACT: note_on channel=15 note=38 velocity=0 time=0
EXTRACT: note_on channel=3 note=70 velocity=92 time=0.0069444375
EXTRACT: note_on channel=5 note=55 velocity=92 time=0
EXTRACT: note_on channel=5 note=58 velocity=92 time=0
EXTRACT: note_on channel=5 note=63 velocity=92 time=0
EXTRACT: note_on channel=5 note=51 velocity=92 time=0
EXTRACT: note_on channel=9 note=54 velocity=92 time=0
EXTRACT: note_on channel=9 note=82 velocity=92 time=0
EXTRACT: note_on channel=9 note=35 velocity=92 time=0
EXTRACT: note_on channel=9 note=42 velocity=92 time=0
EXTRACT: note_on channel=11 note=55 velocity=92 time=0
EXTRACT: note_on channel=11 note=58 velocity=92 time=0
EXTRACT: note_on channel=11 note=63 velocity=92 time=0
EXTRACT: note_on channel=11 note=67 velocity=92 time=0
EXTRACT: note_on channel=15 note=39 velocity=92 time=0
EXTRACT: note_on channel=7 note=58 velocity=92 time=0.041666625
EXTRACT: note_on channel=8 note=58 velocity=92 time=0
EXTRACT: note_on channel=13 note=65 velocity=92 time=0
EXTRACT: note_on channel=9 note=35 velocity=0 time=0.0347221875
EXTRACT: note_on channel=9 note=42 velocity=0 time=0
EXTRACT: note_on channel=0 note=70 velocity=127 time=0.0069444375
EXTRACT: note_on channel=9 note=54 velocity=0 time=0.0763888125
EXTRACT: note_on channel=9 note=82 velocity=0 time=0
EXTRACT: note_on channel=11 note=55 velocity=0 time=0
EXTRACT: note_on channel=11 note=58 velocity=0 time=0
EXTRACT: note_on channel=11 note=63 velocity=0 time=0
EXTRACT: note_on channel=11 note=67 velocity=0 time=0
EXTRACT: note_on channel=9 note=54 velocity=92 time=0.0069444375
EXTRACT: note_on channel=7 note=58 velocity=0 time=0.0347221875
EXTRACT: note_on channel=8 note=58 velocity=0 time=0
EXTRACT: note_on channel=9 note=54 velocity=0 time=0
EXTRACT: note_on channel=7 note=60 velocity=92 time=0.0069444375
EXTRACT: note_on channel=8 note=60 velocity=92 time=0
EXTRACT: note_on channel=9 note=82 velocity=92 time=0
EXTRACT: note_on channel=7 note=60 velocity=0 time=0.1180554375
EXTRACT: note_on channel=8 note=60 velocity=0 time=0
EXTRACT: note_on channel=9 note=82 velocity=0 time=0
EXTRACT: note_on channel=7 note=62 velocity=92 time=0.0069444375
EXTRACT: note_on channel=8 note=62 velocity=92 time=0
EXTRACT: note_on channel=9 note=54 velocity=92 time=0
EXTRACT: note_on channel=9 note=82 velocity=92 time=0
EXTRACT: note_on channel=9 note=42 velocity=92 time=0
EXTRACT: note_on channel=11 note=55 velocity=92 time=0
EXTRACT: note_on channel=11 note=58 velocity=92 time=0
EXTRACT: note_on channel=11 note=63 velocity=92 time=0
EXTRACT: note_on channel=11 note=67 velocity=92 time=0
EXTRACT: note_on channel=0 note=70 velocity=0 time=0.0763888125
EXTRACT: note_on channel=9 note=42 velocity=0 time=0
EXTRACT: note_on channel=0 note=67 velocity=127 time=0.0069444375
EXTRACT: note_on channel=11 note=55 velocity=0 time=0.0347221875
EXTRACT: note_on channel=11 note=58 velocity=0 time=0
EXTRACT: note_on channel=11 note=63 velocity=0 time=0
EXTRACT: note_on channel=11 note=67 velocity=0 time=0
EXTRACT: note_on channel=15 note=39 velocity=0 time=0
EXTRACT: note_on channel=7 note=62 velocity=0 time=0.041666625
EXTRACT: note_on channel=8 note=62 velocity=0 time=0
EXTRACT: note_on channel=9 note=54 velocity=0 time=0
EXTRACT: note_on channel=9 note=82 velocity=0 time=0
EXTRACT: note_on channel=7 note=58 velocity=92 time=0.0069444375
EXTRACT: note_on channel=8 note=58 velocity=92 time=0
EXTRACT: note_on channel=9 note=54 velocity=92 time=0
EXTRACT: note_on channel=9 note=54 velocity=0 time=0.0347221875
EXTRACT: note_on channel=9 note=82 velocity=92 time=0.0069444375
EXTRACT: note_on channel=7 note=58 velocity=0 time=0.1180554375
EXTRACT: note_on channel=8 note=58 velocity=0 time=0
EXTRACT: note_on channel=9 note=82 velocity=0 time=0
EXTRACT: note_on channel=7 note=60 velocity=92 time=0.0069444375
EXTRACT: note_on channel=8 note=60 velocity=92 time=0
EXTRACT: note_on channel=9 note=54 velocity=92 time=0
EXTRACT: note_on channel=9 note=82 velocity=92 time=0
EXTRACT: note_on channel=9 note=40 velocity=92 time=0
EXTRACT: note_on channel=9 note=42 velocity=92 time=0
EXTRACT: note_on channel=11 note=55 velocity=92 time=0
EXTRACT: note_on channel=11 note=58 velocity=92 time=0
EXTRACT: note_on channel=11 note=63 velocity=92 time=0
EXTRACT: note_on channel=11 note=67 velocity=92 time=0
EXTRACT: note_on channel=15 note=39 velocity=92 time=0
EXTRACT: note_on channel=9 note=40 velocity=0 time=0.0763888125
EXTRACT: note_on channel=9 note=42 velocity=0 time=0
EXTRACT: note_on channel=7 note=60 velocity=0 time=0.08333325
EXTRACT: note_on channel=8 note=60 velocity=0 time=0
EXTRACT: note_on channel=9 note=54 velocity=0 time=0
EXTRACT: note_on channel=9 note=82 velocity=0 time=0
EXTRACT: note_on channel=7 note=62 velocity=92 time=0.0069444375
EXTRACT: note_on channel=8 note=62 velocity=92 time=0
EXTRACT: note_on channel=9 note=54 velocity=92 time=0
EXTRACT: note_on channel=9 note=54 velocity=0 time=0.0347221875
EXTRACT: note_on channel=9 note=82 velocity=92 time=0.0069444375
EXTRACT: note_on channel=7 note=62 velocity=0 time=0.1180554375
EXTRACT: note_on channel=8 note=62 velocity=0 time=0
EXTRACT: note_on channel=9 note=82 velocity=0 time=0
EXTRACT: note_on channel=11 note=55 velocity=0 time=0
EXTRACT: note_on channel=11 note=58 velocity=0 time=0
EXTRACT: note_on channel=11 note=63 velocity=0 time=0
EXTRACT: note_on channel=11 note=67 velocity=0 time=0
EXTRACT: note_on channel=7 note=58 velocity=92 time=0.0069444375
EXTRACT: note_on channel=8 note=58 velocity=92 time=0
EXTRACT: note_on channel=9 note=54 velocity=92 time=0
EXTRACT: note_on channel=9 note=82 velocity=92 time=0
EXTRACT: note_on channel=9 note=42 velocity=92 time=0
EXTRACT: note_on channel=9 note=42 velocity=0 time=0.0763888125
EXTRACT: note_on channel=7 note=58 velocity=0 time=0.08333325
EXTRACT: note_on channel=8 note=58 velocity=0 time=0
EXTRACT: note_on channel=9 note=54 velocity=0 time=0
EXTRACT: note_on channel=9 note=82 velocity=0 time=0
EXTRACT: note_on channel=3 note=70 velocity=0 time=0.0069444375
EXTRACT: note_on channel=7 note=60 velocity=92 time=0
EXTRACT: note_on channel=8 note=60 velocity=92 time=0
EXTRACT: note_on channel=9 note=54 velocity=92 time=0
EXTRACT: note_on channel=11 note=55 velocity=92 time=0
EXTRACT: note_on channel=11 note=58 velocity=92 time=0
EXTRACT: note_on channel=11 note=63 velocity=92 time=0
EXTRACT: note_on channel=11 note=67 velocity=92 time=0
EXTRACT: note_on channel=9 note=54 velocity=0 time=0.0347221875
EXTRACT: note_on channel=9 note=82 velocity=92 time=0.0069444375
EXTRACT: note_on channel=0 note=67 velocity=0 time=0.013888875
EXTRACT: note_on channel=15 note=39 velocity=0 time=0
EXTRACT: note_on channel=7 note=60 velocity=0 time=0.1041665625
EXTRACT: note_on channel=8 note=60 velocity=0 time=0
EXTRACT: note_on channel=9 note=82 velocity=0 time=0
EXTRACT: note_on channel=11 note=55 velocity=0 time=0
EXTRACT: note_on channel=11 note=58 velocity=0 time=0
EXTRACT: note_on channel=11 note=63 velocity=0 time=0
EXTRACT: note_on channel=11 note=67 velocity=0 time=0
EXTRACT: note_on channel=3 note=72 velocity=92 time=0.0069444375
EXTRACT: note_on channel=7 note=62 velocity=92 time=0
EXTRACT: note_on channel=8 note=62 velocity=92 time=0
EXTRACT: note_on channel=9 note=54 velocity=92 time=0
EXTRACT: note_on channel=9 note=35 velocity=92 time=0
EXTRACT: note_on channel=9 note=42 velocity=92 time=0
EXTRACT: note_on channel=11 note=55 velocity=92 time=0
EXTRACT: note_on channel=11 note=58 velocity=92 time=0
EXTRACT: note_on channel=11 note=63 velocity=92 time=0
EXTRACT: note_on channel=11 note=67 velocity=92 time=0
EXTRACT: note_on channel=15 note=36 velocity=92 time=0
EXTRACT: note_on channel=9 note=35 velocity=0 time=0.0763888125
EXTRACT: note_on channel=9 note=42 velocity=0 time=0
EXTRACT: note_on channel=7 note=62 velocity=0 time=0.08333325
EXTRACT: note_on channel=8 note=62 velocity=0 time=0
EXTRACT: note_on channel=9 note=54 velocity=0 time=0
EXTRACT: note_on channel=11 note=55 velocity=0 time=0
EXTRACT: note_on channel=11 note=58 velocity=0 time=0
EXTRACT: note_on channel=11 note=63 velocity=0 time=0
EXTRACT: note_on channel=11 note=67 velocity=0 time=0
EXTRACT: note_on channel=7 note=58 velocity=92 time=0.0069444375
EXTRACT: note_on channel=8 note=58 velocity=92 time=0
EXTRACT: note_on channel=9 note=54 velocity=92 time=0
EXTRACT: note_on channel=11 note=55 velocity=92 time=0
EXTRACT: note_on channel=11 note=58 velocity=92 time=0
EXTRACT: note_on channel=11 note=63 velocity=92 time=0
EXTRACT: note_on channel=11 note=67 velocity=92 time=0
EXTRACT: note_on channel=9 note=54 velocity=0 time=0.0347221875
EXTRACT: note_on channel=9 note=82 velocity=92 time=0.0069444375
EXTRACT: note_on channel=7 note=58 velocity=0 time=0.1180554375
EXTRACT: note_on channel=8 note=58 velocity=0 time=0
EXTRACT: note_on channel=9 note=82 velocity=0 time=0
EXTRACT: note_on channel=11 note=55 velocity=0 time=0
EXTRACT: note_on channel=11 note=58 velocity=0 time=0
EXTRACT: note_on channel=11 note=63 velocity=0 time=0
EXTRACT: note_on channel=11 note=67 velocity=0 time=0
EXTRACT: note_on channel=7 note=60 velocity=92 time=0.0069444375
EXTRACT: note_on channel=8 note=60 velocity=92 time=0
EXTRACT: note_on channel=9 note=54 velocity=92 time=0
EXTRACT: note_on channel=9 note=35 velocity=92 time=0
EXTRACT: note_on channel=9 note=46 velocity=92 time=0
EXTRACT: note_on channel=11 note=55 velocity=92 time=0
EXTRACT: note_on channel=11 note=58 velocity=92 time=0
EXTRACT: note_on channel=11 note=63 velocity=92 time=0
EXTRACT: note_on channel=11 note=67 velocity=92 time=0
EXTRACT: note_on channel=9 note=35 velocity=0 time=0.0763888125
EXTRACT: note_on channel=9 note=46 velocity=0 time=0
EXTRACT: note_on channel=7 note=60 velocity=0 time=0.08333325
EXTRACT: note_on channel=8 note=60 velocity=0 time=0
EXTRACT: note_on channel=9 note=54 velocity=0 time=0
EXTRACT: note_on channel=11 note=55 velocity=0 time=0
EXTRACT: note_on channel=11 note=58 velocity=0 time=0
EXTRACT: note_on channel=11 note=63 velocity=0 time=0
EXTRACT: note_on channel=11 note=67 velocity=0 time=0
EXTRACT: note_on channel=15 note=36 velocity=0 time=0
EXTRACT: note_on channel=7 note=62 velocity=92 time=0.0069444375
EXTRACT: note_on channel=8 note=62 velocity=92 time=0
EXTRACT: note_on channel=9 note=54 velocity=92 time=0
EXTRACT: note_on channel=11 note=55 velocity=92 time=0
EXTRACT: note_on channel=11 note=58 velocity=92 time=0
EXTRACT: note_on channel=11 note=63 velocity=92 time=0
EXTRACT: note_on channel=11 note=67 velocity=92 time=0
EXTRACT: note_on channel=9 note=54 velocity=0 time=0.0347221875
EXTRACT: note_on channel=9 note=82 velocity=92 time=0.0069444375
EXTRACT: note_on channel=3 note=72 velocity=0 time=0.013888875
EXTRACT: note_on channel=7 note=62 velocity=0 time=0.1041665625
EXTRACT: note_on channel=8 note=62 velocity=0 time=0
EXTRACT: note_on channel=9 note=82 velocity=0 time=0
EXTRACT: note_on channel=11 note=55 velocity=0 time=0
EXTRACT: note_on channel=11 note=58 velocity=0 time=0
EXTRACT: note_on channel=11 note=63 velocity=0 time=0
EXTRACT: note_on channel=11 note=67 velocity=0 time=0
EXTRACT: note_on channel=3 note=74 velocity=92 time=0.0069444375
EXTRACT: note_on channel=7 note=58 velocity=92 time=0
EXTRACT: note_on channel=8 note=58 velocity=92 time=0
EXTRACT: note_on channel=9 note=54 velocity=92 time=0
EXTRACT: note_on channel=9 note=82 velocity=92 time=0
EXTRACT: note_on channel=9 note=40 velocity=92 time=0
EXTRACT: note_on channel=9 note=42 velocity=92 time=0
EXTRACT: note_on channel=11 note=55 velocity=92 time=0
EXTRACT: note_on channel=11 note=58 velocity=92 time=0
EXTRACT: note_on channel=11 note=63 velocity=92 time=0
EXTRACT: note_on channel=11 note=67 velocity=92 time=0
EXTRACT: note_on channel=15 note=36 velocity=92 time=0
EXTRACT: note_on channel=9 note=40 velocity=0 time=0.0763888125
EXTRACT: note_on channel=9 note=42 velocity=0 time=0
EXTRACT: note_on channel=7 note=58 velocity=0 time=0.08333325
EXTRACT: note_on channel=8 note=58 velocity=0 time=0
EXTRACT: note_on channel=9 note=54 velocity=0 time=0
EXTRACT: note_on channel=9 note=82 velocity=0 time=0
EXTRACT: note_on channel=12 note=67 velocity=0 time=0
EXTRACT: note_on channel=12 note=75 velocity=0 time=0
EXTRACT: note_on channel=15 note=36 velocity=0 time=0
EXTRACT: note_on channel=7 note=60 velocity=92 time=0.0069444375
EXTRACT: note_on channel=8 note=60 velocity=92 time=0
EXTRACT: note_on channel=9 note=54 velocity=92 time=0
EXTRACT: note_on channel=15 note=39 velocity=92 time=0
EXTRACT: note_on channel=9 note=54 velocity=0 time=0.0347221875
EXTRACT: note_on channel=9 note=82 velocity=92 time=0.0069444375
EXTRACT: note_on channel=7 note=60 velocity=0 time=0.1180554375
EXTRACT: note_on channel=8 note=60 velocity=0 time=0
EXTRACT: note_on channel=9 note=82 velocity=0 time=0
EXTRACT: note_on channel=11 note=55 velocity=0 time=0
EXTRACT: note_on channel=11 note=58 velocity=0 time=0
EXTRACT: note_on channel=11 note=63 velocity=0 time=0
EXTRACT: note_on channel=11 note=67 velocity=0 time=0
EXTRACT: note_on channel=15 note=39 velocity=0 time=0
EXTRACT: note_on channel=7 note=62 velocity=92 time=0.0069444375
EXTRACT: note_on channel=8 note=62 velocity=92 time=0
EXTRACT: note_on channel=9 note=54 velocity=92 time=0
EXTRACT: note_on channel=9 note=82 velocity=92 time=0
EXTRACT: note_on channel=9 note=42 velocity=92 time=0
EXTRACT: note_on channel=11 note=55 velocity=92 time=0
EXTRACT: note_on channel=11 note=58 velocity=92 time=0
EXTRACT: note_on channel=11 note=63 velocity=92 time=0
EXTRACT: note_on channel=11 note=67 velocity=92 time=0
EXTRACT: note_on channel=15 note=41 velocity=92 time=0
EXTRACT: note_on channel=9 note=42 velocity=0 time=0.0763888125
EXTRACT: note_on channel=9 note=54 velocity=0 time=0.08333325
EXTRACT: note_on channel=9 note=82 velocity=0 time=0
EXTRACT: note_on channel=5 note=55 velocity=0 time=0.0069444375
EXTRACT: note_on channel=5 note=58 velocity=0 time=0
EXTRACT: note_on channel=5 note=63 velocity=0 time=0
EXTRACT: note_on channel=5 note=51 velocity=0 time=0
EXTRACT: note_on channel=9 note=54 velocity=92 time=0
EXTRACT: note_on channel=13 note=65 velocity=0 time=0
EXTRACT: note_on channel=9 note=54 velocity=0 time=0.0347221875
EXTRACT: note_on channel=9 note=82 velocity=92 time=0.0069444375
EXTRACT: note_on channel=3 note=74 velocity=0 time=0.013888875
EXTRACT: note_on channel=7 note=62 velocity=0 time=0.1041665625
EXTRACT: note_on channel=8 note=62 velocity=0 time=0
EXTRACT: note_on channel=9 note=82 velocity=0 time=0
EXTRACT: note_on channel=11 note=55 velocity=0 time=0
EXTRACT: note_on channel=11 note=58 velocity=0 time=0
EXTRACT: note_on channel=11 note=63 velocity=0 time=0
EXTRACT: note_on channel=11 note=67 velocity=0 time=0
EXTRACT: note_on channel=15 note=41 velocity=0 time=0
EXTRACT: note_on channel=0 note=82 velocity=127 time=0.0069444375
EXTRACT: note_on channel=3 note=58 velocity=92 time=0
EXTRACT: note_on channel=3 note=65 velocity=92 time=0
EXTRACT: note_on channel=3 note=70 velocity=92 time=0
EXTRACT: note_on channel=3 note=74 velocity=92 time=0
EXTRACT: note_on channel=5 note=53 velocity=92 time=0
EXTRACT: note_on channel=5 note=58 velocity=92 time=0
EXTRACT: note_on channel=5 note=62 velocity=92 time=0
EXTRACT: note_on channel=5 note=46 velocity=92 time=0
EXTRACT: note_on channel=9 note=54 velocity=92 time=0
EXTRACT: note_on channel=9 note=57 velocity=92 time=0
EXTRACT: note_on channel=9 note=82 velocity=92 time=0
EXTRACT: note_on channel=9 note=35 velocity=92 time=0
EXTRACT: note_on channel=9 note=42 velocity=92 time=0
EXTRACT: note_on channel=9 note=52 velocity=92 time=0
EXTRACT: note_on channel=11 note=53 velocity=92 time=0
EXTRACT: note_on channel=11 note=58 velocity=92 time=0
EXTRACT: note_on channel=11 note=62 velocity=92 time=0
EXTRACT: note_on channel=11 note=65 velocity=92 time=0
EXTRACT: note_on channel=12 note=70 velocity=92 time=0
EXTRACT: note_on channel=12 note=77 velocity=92 time=0
EXTRACT: note_on channel=13 note=65 velocity=92 time=0
EXTRACT: note_on channel=15 note=34 velocity=92 time=0
EXTRACT: note_on channel=7 note=58 velocity=92 time=0.041666625
EXTRACT: note_on channel=9 note=35 velocity=0 time=0.0347221875
EXTRACT: note_on channel=9 note=42 velocity=0 time=0
EXTRACT: note_on channel=9 note=52 velocity=0 time=0
EXTRACT: note_on channel=9 note=54 velocity=0 time=0.08333325
EXTRACT: note_on channel=9 note=57 velocity=0 time=0
EXTRACT: note_on channel=9 note=82 velocity=0 time=0
EXTRACT: note_on channel=11 note=53 velocity=0 time=0
EXTRACT: note_on channel=11 note=58 velocity=0 time=0
EXTRACT: note_on channel=11 note=62 velocity=0 time=0
EXTRACT: note_on channel=11 note=65 velocity=0 time=0
EXTRACT: note_on channel=9 note=54 velocity=92 time=0.0069444375
EXTRACT: note_on channel=7 note=58 velocity=0 time=0.0347221875
EXTRACT: note_on channel=9 note=54 velocity=0 time=0
EXTRACT: note_on channel=7 note=60 velocity=92 time=0.0069444375
EXTRACT: note_on channel=9 note=82 velocity=92 time=0
EXTRACT: note_on channel=7 note=60 velocity=0 time=0.1180554375
EXTRACT: note_on channel=9 note=82 velocity=0 time=0
EXTRACT: note_on channel=7 note=62 velocity=92 time=0.0069444375
EXTRACT: note_on channel=9 note=54 velocity=92 time=0
EXTRACT: note_on channel=9 note=82 velocity=92 time=0
EXTRACT: note_on channel=9 note=42 velocity=92 time=0
EXTRACT: note_on channel=11 note=53 velocity=92 time=0
EXTRACT: note_on channel=11 note=58 velocity=92 time=0
EXTRACT: note_on channel=11 note=62 velocity=92 time=0
EXTRACT: note_on channel=11 note=65 velocity=92 time=0
EXTRACT: note_on channel=9 note=42 velocity=0 time=0.0763888125
EXTRACT: note_on channel=11 note=53 velocity=0 time=0.041666625
EXTRACT: note_on channel=11 note=58 velocity=0 time=0
EXTRACT: note_on channel=11 note=62 velocity=0 time=0
EXTRACT: note_on channel=11 note=65 velocity=0 time=0
EXTRACT: note_on channel=7 note=62 velocity=0 time=0.041666625
EXTRACT: note_on channel=9 note=54 velocity=0 time=0
EXTRACT: note_on channel=9 note=82 velocity=0 time=0
EXTRACT: note_on channel=7 note=58 velocity=92 time=0.0069444375
EXTRACT: note_on channel=9 note=54 velocity=92 time=0
EXTRACT: note_on channel=9 note=54 velocity=0 time=0.0347221875
EXTRACT: note_on channel=9 note=82 velocity=92 time=0.0069444375
EXTRACT: note_on channel=7 note=58 velocity=0 time=0.1180554375
EXTRACT: note_on channel=9 note=82 velocity=0 time=0
EXTRACT: note_on channel=7 note=60 velocity=92 time=0.0069444375
EXTRACT: note_on channel=9 note=54 velocity=92 time=0
EXTRACT: note_on channel=9 note=82 velocity=92 time=0
EXTRACT: note_on channel=9 note=40 velocity=92 time=0
EXTRACT: note_on channel=9 note=42 velocity=92 time=0
EXTRACT: note_on channel=11 note=53 velocity=92 time=0
EXTRACT: note_on channel=11 note=58 velocity=92 time=0
EXTRACT: note_on channel=11 note=62 velocity=92 time=0
EXTRACT: note_on channel=11 note=65 velocity=92 time=0
EXTRACT: note_on channel=0 note=82 velocity=0 time=0.0347221875
EXTRACT: note_on channel=0 note=77 velocity=127 time=0.0069444375
EXTRACT: note_on channel=9 note=40 velocity=0 time=0.0347221875
EXTRACT: note_on channel=9 note=42 velocity=0 time=0
EXTRACT: note_on channel=7 note=60 velocity=0 time=0.08333325
EXTRACT: note_on channel=9 note=54 velocity=0 time=0
EXTRACT: note_on channel=9 note=82 velocity=0 time=0
EXTRACT: note_on channel=7 note=62 velocity=92 time=0.0069444375
EXTRACT: note_on channel=9 note=54 velocity=92 time=0
EXTRACT: note_on channel=9 note=54 velocity=0 time=0.0347221875
EXTRACT: note_on channel=9 note=82 velocity=92 time=0.0069444375
EXTRACT: note_on channel=0 note=77 velocity=0 time=0.1180554375
EXTRACT: note_on channel=7 note=62 velocity=0 time=0
EXTRACT: note_on channel=9 note=82 velocity=0 time=0
EXTRACT: note_on channel=11 note=53 velocity=0 time=0
EXTRACT: note_on channel=11 note=58 velocity=0 time=0
EXTRACT: note_on channel=11 note=62 velocity=0 time=0
EXTRACT: note_on channel=11 note=65 velocity=0 time=0
EXTRACT: note_on channel=0 note=79 velocity=127 time=0.0069444375
EXTRACT: note_on channel=7 note=58 velocity=92 time=0
EXTRACT: note_on channel=9 note=54 velocity=92 time=0
EXTRACT: note_on channel=9 note=82 velocity=92 time=0
EXTRACT: note_on channel=9 note=42 velocity=92 time=0
EXTRACT: note_on channel=9 note=42 velocity=0 time=0.0763888125
EXTRACT: note_on channel=7 note=58 velocity=0 time=0.08333325
EXTRACT: note_on channel=9 note=54 velocity=0 time=0
EXTRACT: note_on channel=9 note=82 velocity=0 time=0
EXTRACT: note_on channel=15 note=34 velocity=0 time=0
EXTRACT: note_on channel=7 note=60 velocity=92 time=0.0069444375
EXTRACT: note_on channel=9 note=54 velocity=92 time=0
EXTRACT: note_on channel=11 note=53 velocity=92 time=0
EXTRACT: note_on channel=11 note=58 velocity=92 time=0
EXTRACT: note_on channel=11 note=62 velocity=92 time=0
EXTRACT: note_on channel=11 note=65 velocity=92 time=0
EXTRACT: note_on channel=15 note=34 velocity=92 time=0
EXTRACT: note_on channel=0 note=79 velocity=0 time=0.0347221875
EXTRACT: note_on channel=9 note=54 velocity=0 time=0
EXTRACT: note_on channel=0 note=79 velocity=127 time=0.0069444375
EXTRACT: note_on channel=9 note=82 velocity=92 time=0
EXTRACT: note_on channel=7 note=60 velocity=0 time=0.1180554375
EXTRACT: note_on channel=9 note=82 velocity=0 time=0
EXTRACT: note_on channel=11 note=53 velocity=0 time=0
EXTRACT: note_on channel=11 note=58 velocity=0 time=0
EXTRACT: note_on channel=11 note=62 velocity=0 time=0
EXTRACT: note_on channel=11 note=65 velocity=0 time=0
EXTRACT: note_on channel=15 note=34 velocity=0 time=0
EXTRACT: note_on channel=7 note=62 velocity=92 time=0.0069444375
EXTRACT: note_on channel=9 note=54 velocity=92 time=0
EXTRACT: note_on channel=9 note=35 velocity=92 time=0
EXTRACT: note_on channel=9 note=42 velocity=92 time=0
EXTRACT: note_on channel=11 note=53 velocity=92 time=0
EXTRACT: note_on channel=11 note=58 velocity=92 time=0
EXTRACT: note_on channel=11 note=62 velocity=92 time=0
EXTRACT: note_on channel=11 note=65 velocity=92 time=0
EXTRACT: note_on channel=15 note=29 velocity=92 time=0
EXTRACT: note_on channel=9 note=35 velocity=0 time=0.0763888125
EXTRACT: note_on channel=9 note=42 velocity=0 time=0
EXTRACT: note_on channel=7 note=62 velocity=0 time=0.08333325
EXTRACT: note_on channel=9 note=54 velocity=0 time=0
EXTRACT: note_on channel=11 note=53 velocity=0 time=0
EXTRACT: note_on channel=11 note=58 velocity=0 time=0
EXTRACT: note_on channel=11 note=62 velocity=0 time=0
EXTRACT: note_on channel=11 note=65 velocity=0 time=0
EXTRACT: note_on channel=15 note=29 velocity=0 time=0
EXTRACT: note_on channel=7 note=58 velocity=92 time=0.0069444375
EXTRACT: note_on channel=9 note=54 velocity=92 time=0
EXTRACT: note_on channel=11 note=53 velocity=92 time=0
EXTRACT: note_on channel=11 note=58 velocity=92 time=0
EXTRACT: note_on channel=11 note=62 velocity=92 time=0
EXTRACT: note_on channel=11 note=65 velocity=92 time=0
EXTRACT: note_on channel=15 note=31 velocity=92 time=0
EXTRACT: note_on channel=9 note=54 velocity=0 time=0.0347221875
EXTRACT: note_on channel=9 note=82 velocity=92 time=0.0069444375
EXTRACT: note_on channel=0 note=79 velocity=0 time=0.1180554375
EXTRACT: note_on channel=7 note=58 velocity=0 time=0
EXTRACT: note_on channel=9 note=82 velocity=0 time=0
EXTRACT: note_on channel=11 note=53 velocity=0 time=0
EXTRACT: note_on channel=11 note=58 velocity=0 time=0
EXTRACT: note_on channel=11 note=62 velocity=0 time=0
EXTRACT: note_on channel=11 note=65 velocity=0 time=0
EXTRACT: note_on channel=15 note=31 velocity=0 time=0
EXTRACT: note_on channel=0 note=77 velocity=127 time=0.0069444375
EXTRACT: note_on channel=7 note=60 velocity=92 time=0
EXTRACT: note_on channel=9 note=54 velocity=92 time=0
EXTRACT: note_on channel=9 note=35 velocity=92 time=0
EXTRACT: note_on channel=9 note=46 velocity=92 time=0
EXTRACT: note_on channel=11 note=53 velocity=92 time=0
EXTRACT: note_on channel=11 note=58 velocity=92 time=0
EXTRACT: note_on channel=11 note=62 velocity=92 time=0
EXTRACT: note_on channel=11 note=65 velocity=92 time=0
EXTRACT: note_on channel=15 note=34 velocity=92 time=0
EXTRACT: note_on channel=9 note=35 velocity=0 time=0.0763888125
EXTRACT: note_on channel=9 note=46 velocity=0 time=0
EXTRACT: note_on channel=7 note=60 velocity=0 time=0.08333325
EXTRACT: note_on channel=9 note=54 velocity=0 time=0
EXTRACT: note_on channel=11 note=53 velocity=0 time=0
EXTRACT: note_on channel=11 note=58 velocity=0 time=0
EXTRACT: note_on channel=11 note=62 velocity=0 time=0
EXTRACT: note_on channel=11 note=65 velocity=0 time=0
EXTRACT: note_on channel=7 note=62 velocity=92 time=0.0069444375
EXTRACT: note_on channel=9 note=54 velocity=92 time=0
EXTRACT: note_on channel=11 note=53 velocity=92 time=0
EXTRACT: note_on channel=11 note=58 velocity=92 time=0
EXTRACT: note_on channel=11 note=62 velocity=92 time=0
EXTRACT: note_on channel=11 note=65 velocity=92 time=0
EXTRACT: note_on channel=9 note=54 velocity=0 time=0.0347221875
EXTRACT: note_on channel=9 note=82 velocity=92 time=0.0069444375
EXTRACT: note_on channel=0 note=77 velocity=0 time=0.1180554375
EXTRACT: note_on channel=7 note=62 velocity=0 time=0
EXTRACT: note_on channel=9 note=82 velocity=0 time=0
EXTRACT: note_on channel=11 note=53 velocity=0 time=0
EXTRACT: note_on channel=11 note=58 velocity=0 time=0
EXTRACT: note_on channel=11 note=62 velocity=0 time=0
EXTRACT: note_on channel=11 note=65 velocity=0 time=0
EXTRACT: note_on channel=15 note=34 velocity=0 time=0
EXTRACT: note_on channel=0 note=77 velocity=127 time=0.0069444375
EXTRACT: note_on channel=7 note=58 velocity=92 time=0
EXTRACT: note_on channel=9 note=54 velocity=92 time=0
EXTRACT: note_on channel=9 note=82 velocity=92 time=0
EXTRACT: note_on channel=9 note=40 velocity=92 time=0
EXTRACT: note_on channel=9 note=42 velocity=92 time=0
EXTRACT: note_on channel=11 note=53 velocity=92 time=0
EXTRACT: note_on channel=11 note=58 velocity=92 time=0
EXTRACT: note_on channel=11 note=62 velocity=92 time=0
EXTRACT: note_on channel=11 note=65 velocity=92 time=0
EXTRACT: note_on channel=15 note=38 velocity=92 time=0
EXTRACT: note_on channel=9 note=40 velocity=0 time=0.0763888125
EXTRACT: note_on channel=9 note=42 velocity=0 time=0
EXTRACT: note_on channel=5 note=53 velocity=0 time=0.08333325
EXTRACT: note_on channel=5 note=58 velocity=0 time=0
EXTRACT: note_on channel=5 note=62 velocity=0 time=0
EXTRACT: note_on channel=5 note=46 velocity=0 time=0
EXTRACT: note_on channel=7 note=58 velocity=0 time=0
EXTRACT: note_on channel=9 note=54 velocity=0 time=0
EXTRACT: note_on channel=9 note=82 velocity=0 time=0
EXTRACT: note_on channel=7 note=60 velocity=92 time=0.0069444375
EXTRACT: note_on channel=9 note=54 velocity=92 time=0
EXTRACT: note_on channel=0 note=77 velocity=0 time=0.0347221875
EXTRACT: note_on channel=9 note=54 velocity=0 time=0
EXTRACT: note_on channel=0 note=75 velocity=127 time=0.0069444375
EXTRACT: note_on channel=9 note=82 velocity=92 time=0
EXTRACT: note_on channel=7 note=60 velocity=0 time=0.1180554375
EXTRACT: note_on channel=9 note=82 velocity=0 time=0
EXTRACT: note_on channel=11 note=53 velocity=0 time=0
EXTRACT: note_on channel=11 note=58 velocity=0 time=0
EXTRACT: note_on channel=11 note=62 velocity=0 time=0
EXTRACT: note_on channel=11 note=65 velocity=0 time=0
EXTRACT: note_on channel=15 note=38 velocity=0 time=0
EXTRACT: note_on channel=7 note=62 velocity=92 time=0.0069444375
EXTRACT: note_on channel=9 note=54 velocity=92 time=0
EXTRACT: note_on channel=9 note=82 velocity=92 time=0
EXTRACT: note_on channel=9 note=42 velocity=92 time=0
EXTRACT: note_on channel=11 note=53 velocity=92 time=0
EXTRACT: note_on channel=11 note=58 velocity=92 time=0
EXTRACT: note_on channel=11 note=62 velocity=92 time=0
EXTRACT: note_on channel=11 note=65 velocity=92 time=0
EXTRACT: note_on channel=15 note=34 velocity=92 time=0
EXTRACT: note_on channel=0 note=75 velocity=0 time=0.0347221875
EXTRACT: note_on channel=0 note=74 velocity=127 time=0.0069444375
EXTRACT: note_on channel=9 note=42 velocity=0 time=0.0347221875
EXTRACT: note_on channel=0 note=74 velocity=0 time=0.08333325
EXTRACT: note_on channel=9 note=54 velocity=0 time=0
EXTRACT: note_on channel=9 note=82 velocity=0 time=0
EXTRACT: note_on channel=0 note=75 velocity=127 time=0.0069444375
EXTRACT: note_on channel=3 note=58 velocity=0 time=0
EXTRACT: note_on channel=3 note=65 velocity=0 time=0
EXTRACT: note_on channel=3 note=70 velocity=0 time=0
EXTRACT: note_on channel=3 note=74 velocity=0 time=0
EXTRACT: note_on channel=9 note=54 velocity=92 time=0
EXTRACT: note_on channel=12 note=70 velocity=0 time=0
EXTRACT: note_on channel=12 note=77 velocity=0 time=0
EXTRACT: note_on channel=13 note=65 velocity=0 time=0
EXTRACT: note_on channel=9 note=54 velocity=0 time=0.0347221875
EXTRACT: note_on channel=9 note=82 velocity=92 time=0.0069444375
EXTRACT: note_on channel=0 note=75 velocity=0 time=0.1180554375
EXTRACT: note_on channel=7 note=62 velocity=0 time=0
EXTRACT: note_on channel=9 note=82 velocity=0 time=0
EXTRACT: note_on channel=11 note=53 velocity=0 time=0
EXTRACT: note_on channel=11 note=58 velocity=0 time=0
EXTRACT: note_on channel=11 note=62 velocity=0 time=0
EXTRACT: note_on channel=11 note=65 velocity=0 time=0
EXTRACT: note_on channel=15 note=34 velocity=0 time=0
EXTRACT: note_on channel=3 note=57 velocity=92 time=0.0069444375
EXTRACT: note_on channel=3 note=69 velocity=92 time=0
EXTRACT: note_on channel=5 note=53 velocity=92 time=0
EXTRACT: note_on channel=5 note=57 velocity=92 time=0
EXTRACT: note_on channel=5 note=60 velocity=92 time=0
EXTRACT: note_on channel=5 note=41 velocity=92 time=0
EXTRACT: note_on channel=9 note=54 velocity=92 time=0
EXTRACT: note_on channel=9 note=82 velocity=92 time=0
EXTRACT: note_on channel=9 note=35 velocity=92 time=0
EXTRACT: note_on channel=9 note=42 velocity=92 time=0
EXTRACT: note_on channel=11 note=53 velocity=92 time=0
EXTRACT: note_on channel=11 note=57 velocity=92 time=0
EXTRACT: note_on channel=11 note=60 velocity=92 time=0
EXTRACT: note_on channel=11 note=65 velocity=92 time=0
EXTRACT: note_on channel=12 note=69 velocity=92 time=0
EXTRACT: note_on channel=15 note=29 velocity=92 time=0
EXTRACT: note_on channel=0 note=75 velocity=127 time=0.041666625
EXTRACT: note_on channel=7 note=58 velocity=92 time=0
EXTRACT: note_on channel=13 note=70 velocity=92 time=0
EXTRACT: note_on channel=9 note=35 velocity=0 time=0.0347221875
EXTRACT: note_on channel=9 note=42 velocity=0 time=0
EXTRACT: note_on channel=9 note=54 velocity=0 time=0.08333325
EXTRACT: note_on channel=9 note=82 velocity=0 time=0
EXTRACT: note_on channel=11 note=53 velocity=0 time=0
EXTRACT: note_on channel=11 note=57 velocity=0 time=0
EXTRACT: note_on channel=11 note=60 velocity=0 time=0
EXTRACT: note_on channel=11 note=65 velocity=0 time=0
EXTRACT: note_on channel=9 note=54 velocity=92 time=0.0069444375
EXTRACT: note_on channel=7 note=58 velocity=0 time=0.0347221875
EXTRACT: note_on channel=9 note=54 velocity=0 time=0
EXTRACT: note_on channel=7 note=60 velocity=92 time=0.0069444375
EXTRACT: note_on channel=9 note=82 velocity=92 time=0
EXTRACT: note_on channel=7 note=60 velocity=0 time=0.1180554375
EXTRACT: note_on channel=9 note=82 velocity=0 time=0
EXTRACT: note_on channel=7 note=62 velocity=92 time=0.0069444375
EXTRACT: note_on channel=9 note=54 velocity=92 time=0
EXTRACT: note_on channel=9 note=82 velocity=92 time=0
EXTRACT: note_on channel=9 note=42 velocity=92 time=0
EXTRACT: note_on channel=11 note=53 velocity=92 time=0
EXTRACT: note_on channel=11 note=57 velocity=92 time=0
EXTRACT: note_on channel=11 note=60 velocity=92 time=0
EXTRACT: note_on channel=11 note=65 velocity=92 time=0
EXTRACT: note_on channel=9 note=42 velocity=0 time=0.0763888125
EXTRACT: note_on channel=11 note=53 velocity=0 time=0.041666625
EXTRACT: note_on channel=11 note=57 velocity=0 time=0
EXTRACT: note_on channel=11 note=60 velocity=0 time=0
EXTRACT: note_on channel=11 note=65 velocity=0 time=0
EXTRACT: note_on channel=0 note=75 velocity=0 time=0.041666625
EXTRACT: note_on channel=7 note=62 velocity=0 time=0
EXTRACT: note_on channel=9 note=54 velocity=0 time=0
EXTRACT: note_on channel=9 note=82 velocity=0 time=0
EXTRACT: note_on channel=0 note=74 velocity=127 time=0.0069444375
EXTRACT: note_on channel=7 note=58 velocity=92 time=0
EXTRACT: note_on channel=9 note=54 velocity=92 time=0
EXTRACT: note_on channel=9 note=54 velocity=0 time=0.0347221875
EXTRACT: note_on channel=9 note=82 velocity=92 time=0.0069444375
EXTRACT: note_on channel=7 note=58 velocity=0 time=0.1180554375
EXTRACT: note_on channel=9 note=82 velocity=0 time=0
EXTRACT: note_on channel=7 note=60 velocity=92 time=0.0069444375
EXTRACT: note_on channel=9 note=54 velocity=92 time=0
EXTRACT: note_on channel=9 note=82 velocity=92 time=0
EXTRACT: note_on channel=9 note=40 velocity=92 time=0
EXTRACT: note_on channel=9 note=42 velocity=92 time=0
EXTRACT: note_on channel=11 note=53 velocity=92 time=0
EXTRACT: note_on channel=11 note=57 velocity=92 time=0
EXTRACT: note_on channel=11 note=60 velocity=92 time=0
EXTRACT: note_on channel=11 note=65 velocity=92 time=0
EXTRACT: note_on channel=9 note=40 velocity=0 time=0.0763888125
EXTRACT: note_on channel=9 note=42 velocity=0 time=0
EXTRACT: note_on channel=7 note=60 velocity=0 time=0.08333325
EXTRACT: note_on channel=9 note=54 velocity=0 time=0
EXTRACT: note_on channel=9 note=82 velocity=0 time=0
EXTRACT: note_on channel=7 note=62 velocity=92 time=0.0069444375
EXTRACT: note_on channel=9 note=54 velocity=92 time=0
EXTRACT: note_on channel=9 note=54 velocity=0 time=0.0347221875
EXTRACT: note_on channel=9 note=82 velocity=92 time=0.0069444375
EXTRACT: note_on channel=15 note=29 velocity=0 time=0.0763888125
EXTRACT: note_on channel=7 note=62 velocity=0 time=0.041666625
EXTRACT: note_on channel=9 note=82 velocity=0 time=0
EXTRACT: note_on channel=11 note=53 velocity=0 time=0
EXTRACT: note_on channel=11 note=57 velocity=0 time=0
EXTRACT: note_on channel=11 note=60 velocity=0 time=0
EXTRACT: note_on channel=11 note=65 velocity=0 time=0
EXTRACT: note_on channel=7 note=58 velocity=92 time=0.0069444375
EXTRACT: note_on channel=9 note=54 velocity=92 time=0
EXTRACT: note_on channel=9 note=82 velocity=92 time=0
EXTRACT: note_on channel=9 note=42 velocity=92 time=0
EXTRACT: note_on channel=9 note=42 velocity=0 time=0.0763888125
EXTRACT: note_on channel=0 note=74 velocity=0 time=0.08333325
EXTRACT: note_on channel=7 note=58 velocity=0 time=0
EXTRACT: note_on channel=9 note=54 velocity=0 time=0
EXTRACT: note_on channel=9 note=82 velocity=0 time=0
EXTRACT: note_on channel=7 note=60 velocity=92 time=0.0069444375
EXTRACT: note_on channel=9 note=54 velocity=92 time=0
EXTRACT: note_on channel=11 note=53 velocity=92 time=0
EXTRACT: note_on channel=11 note=57 velocity=92 time=0
EXTRACT: note_on channel=11 note=60 velocity=92 time=0
EXTRACT: note_on channel=11 note=65 velocity=92 time=0
EXTRACT: note_on channel=15 note=29 velocity=92 time=0
EXTRACT: note_on channel=9 note=54 velocity=0 time=0.0347221875
EXTRACT: note_on channel=9 note=82 velocity=92 time=0.0069444375
EXTRACT: note_on channel=7 note=60 velocity=0 time=0.1180554375
EXTRACT: note_on channel=9 note=82 velocity=0 time=0
EXTRACT: note_on channel=11 note=53 velocity=0 time=0
EXTRACT: note_on channel=11 note=57 velocity=0 time=0
EXTRACT: note_on channel=11 note=60 velocity=0 time=0
EXTRACT: note_on channel=11 note=65 velocity=0 time=0
EXTRACT: note_on channel=15 note=29 velocity=0 time=0
EXTRACT: note_on channel=7 note=62 velocity=92 time=0.0069444375
EXTRACT: note_on channel=8 note=62 velocity=92 time=0
EXTRACT: note_on channel=9 note=54 velocity=92 time=0
EXTRACT: note_on channel=9 note=35 velocity=92 time=0
EXTRACT: note_on channel=9 note=42 velocity=92 time=0
EXTRACT: note_on channel=11 note=53 velocity=92 time=0
EXTRACT: note_on channel=11 note=57 velocity=92 time=0
EXTRACT: note_on channel=11 note=60 velocity=92 time=0
EXTRACT: note_on channel=11 note=65 velocity=92 time=0
EXTRACT: note_on channel=15 note=29 velocity=92 time=0
EXTRACT: note_on channel=9 note=35 velocity=0 time=0.0763888125
EXTRACT: note_on channel=9 note=42 velocity=0 time=0
EXTRACT: note_on channel=7 note=62 velocity=0 time=0.08333325
EXTRACT: note_on channel=8 note=62 velocity=0 time=0
EXTRACT: note_on channel=9 note=54 velocity=0 time=0
EXTRACT: note_on channel=11 note=53 velocity=0 time=0
EXTRACT: note_on channel=11 note=57 velocity=0 time=0
EXTRACT: note_on channel=11 note=60 velocity=0 time=0
EXTRACT: note_on channel=11 note=65 velocity=0 time=0
EXTRACT: note_on channel=15 note=29 velocity=0 time=0
EXTRACT: note_on channel=0 note=74 velocity=127 time=0.0069444375
EXTRACT: note_on channel=7 note=58 velocity=92 time=0
EXTRACT: note_on channel=8 note=58 velocity=92 time=0
EXTRACT: note_on channel=9 note=54 velocity=92 time=0
EXTRACT: note_on channel=11 note=53 velocity=92 time=0
EXTRACT: note_on channel=11 note=57 velocity=92 time=0
EXTRACT: note_on channel=11 note=60 velocity=92 time=0
EXTRACT: note_on channel=11 note=65 velocity=92 time=0
EXTRACT: note_on channel=15 note=27 velocity=92 time=0
EXTRACT: note_on channel=9 note=54 velocity=0 time=0.0347221875
EXTRACT: note_on channel=9 note=82 velocity=92 time=0.0069444375
EXTRACT: note_on channel=7 note=58 velocity=0 time=0.1180554375
EXTRACT: note_on channel=8 note=58 velocity=0 time=0
EXTRACT: note_on channel=9 note=82 velocity=0 time=0
EXTRACT: note_on channel=11 note=53 velocity=0 time=0
EXTRACT: note_on channel=11 note=57 velocity=0 time=0
EXTRACT: note_on channel=11 note=60 velocity=0 time=0
EXTRACT: note_on channel=11 note=65 velocity=0 time=0
EXTRACT: note_on channel=15 note=27 velocity=0 time=0
EXTRACT: note_on channel=7 note=60 velocity=92 time=0.0069444375
EXTRACT: note_on channel=8 note=60 velocity=92 time=0
EXTRACT: note_on channel=9 note=54 velocity=92 time=0
EXTRACT: note_on channel=9 note=35 velocity=92 time=0
EXTRACT: note_on channel=9 note=46 velocity=92 time=0
EXTRACT: note_on channel=11 note=53 velocity=92 time=0
EXTRACT: note_on channel=11 note=57 velocity=92 time=0
EXTRACT: note_on channel=11 note=60 velocity=92 time=0
EXTRACT: note_on channel=11 note=65 velocity=92 time=0
EXTRACT: note_on channel=15 note=29 velocity=92 time=0
EXTRACT: note_on channel=9 note=35 velocity=0 time=0.0763888125
EXTRACT: note_on channel=9 note=46 velocity=0 time=0
EXTRACT: note_on channel=0 note=74 velocity=0 time=0.08333325
EXTRACT: note_on channel=7 note=60 velocity=0 time=0
EXTRACT: note_on channel=8 note=60 velocity=0 time=0
EXTRACT: note_on channel=9 note=54 velocity=0 time=0
EXTRACT: note_on channel=11 note=53 velocity=0 time=0
EXTRACT: note_on channel=11 note=57 velocity=0 time=0
EXTRACT: note_on channel=11 note=60 velocity=0 time=0
EXTRACT: note_on channel=11 note=65 velocity=0 time=0
EXTRACT: note_on channel=0 note=74 velocity=127 time=0.0069444375
EXTRACT: note_on channel=7 note=62 velocity=92 time=0
EXTRACT: note_on channel=8 note=62 velocity=92 time=0
EXTRACT: note_on channel=9 note=54 velocity=92 time=0
EXTRACT: note_on channel=11 note=53 velocity=92 time=0
EXTRACT: note_on channel=11 note=57 velocity=92 time=0
EXTRACT: note_on channel=11 note=60 velocity=92 time=0
EXTRACT: note_on channel=11 note=65 velocity=92 time=0
EXTRACT: note_on channel=9 note=54 velocity=0 time=0.0347221875
EXTRACT: note_on channel=9 note=82 velocity=92 time=0.0069444375
EXTRACT: note_on channel=0 note=74 velocity=0 time=0.1180554375
EXTRACT: note_on channel=7 note=62 velocity=0 time=0
EXTRACT: note_on channel=8 note=62 velocity=0 time=0
EXTRACT: note_on channel=9 note=82 velocity=0 time=0
EXTRACT: note_on channel=11 note=53 velocity=0 time=0
EXTRACT: note_on channel=11 note=57 velocity=0 time=0
EXTRACT: note_on channel=11 note=60 velocity=0 time=0
EXTRACT: note_on channel=11 note=65 velocity=0 time=0
EXTRACT: note_on channel=15 note=29 velocity=0 time=0
EXTRACT: note_on channel=0 note=74 velocity=127 time=0.0069444375
EXTRACT: note_on channel=7 note=58 velocity=92 time=0
EXTRACT: note_on channel=8 note=58 velocity=92 time=0
EXTRACT: note_on channel=9 note=54 velocity=92 time=0
EXTRACT: note_on channel=9 note=82 velocity=92 time=0
EXTRACT: note_on channel=9 note=40 velocity=92 time=0
EXTRACT: note_on channel=9 note=42 velocity=92 time=0
EXTRACT: note_on channel=11 note=53 velocity=92 time=0
EXTRACT: note_on channel=11 note=57 velocity=92 time=0
EXTRACT: note_on channel=11 note=60 velocity=92 time=0
EXTRACT: note_on channel=11 note=65 velocity=92 time=0
EXTRACT: note_on channel=15 note=31 velocity=92 time=0
EXTRACT: note_on channel=5 note=53 velocity=0 time=0.0763888125
EXTRACT: note_on channel=5 note=57 velocity=0 time=0
EXTRACT: note_on channel=5 note=60 velocity=0 time=0
EXTRACT: note_on channel=9 note=40 velocity=0 time=0
EXTRACT: note_on channel=9 note=42 velocity=0 time=0
EXTRACT: note_on channel=5 note=41 velocity=0 time=0.08333325
EXTRACT: note_on channel=7 note=58 velocity=0 time=0
EXTRACT: note_on channel=8 note=58 velocity=0 time=0
EXTRACT: note_on channel=9 note=54 velocity=0 time=0
EXTRACT: note_on channel=9 note=82 velocity=0 time=0
EXTRACT: note_on channel=12 note=69 velocity=0 time=0
EXTRACT: note_on channel=7 note=60 velocity=92 time=0.0069444375
EXTRACT: note_on channel=8 note=60 velocity=92 time=0
EXTRACT: note_on channel=9 note=54 velocity=92 time=0
EXTRACT: note_on channel=9 note=54 velocity=0 time=0.0347221875
EXTRACT: note_on channel=9 note=82 velocity=92 time=0.0069444375
EXTRACT: note_on channel=7 note=60 velocity=0 time=0.1180554375
EXTRACT: note_on channel=8 note=60 velocity=0 time=0
EXTRACT: note_on channel=9 note=82 velocity=0 time=0
EXTRACT: note_on channel=11 note=53 velocity=0 time=0
EXTRACT: note_on channel=11 note=57 velocity=0 time=0
EXTRACT: note_on channel=11 note=60 velocity=0 time=0
EXTRACT: note_on channel=11 note=65 velocity=0 time=0
EXTRACT: note_on channel=15 note=31 velocity=0 time=0
EXTRACT: note_on channel=7 note=62 velocity=92 time=0.0069444375
EXTRACT: note_on channel=8 note=62 velocity=92 time=0
EXTRACT: note_on channel=9 note=54 velocity=92 time=0
EXTRACT: note_on channel=9 note=82 velocity=92 time=0
EXTRACT: note_on channel=9 note=42 velocity=92 time=0
EXTRACT: note_on channel=11 note=53 velocity=92 time=0
EXTRACT: note_on channel=11 note=57 velocity=92 time=0
EXTRACT: note_on channel=11 note=60 velocity=92 time=0
EXTRACT: note_on channel=11 note=65 velocity=92 time=0
EXTRACT: note_on channel=15 note=34 velocity=92 time=0
EXTRACT: note_on channel=0 note=74 velocity=0 time=0.0347221875
EXTRACT: note_on channel=0 note=72 velocity=127 time=0.0069444375
EXTRACT: note_on channel=9 note=42 velocity=0 time=0.0347221875
EXTRACT: note_on channel=0 note=72 velocity=0 time=0.08333325
EXTRACT: note_on channel=9 note=54 velocity=0 time=0
EXTRACT: note_on channel=9 note=82 velocity=0 time=0
EXTRACT: note_on channel=0 note=70 velocity=127 time=0.0069444375
EXTRACT: note_on channel=3 note=57 velocity=0 time=0
EXTRACT: note_on channel=3 note=69 velocity=0 time=0
EXTRACT: note_on channel=9 note=54 velocity=92 time=0
EXTRACT: note_on channel=13 note=70 velocity=0 time=0
EXTRACT: note_on channel=9 note=54 velocity=0 time=0.0347221875
EXTRACT: note_on channel=9 note=82 velocity=92 time=0.0069444375
EXTRACT: note_on channel=0 note=70 velocity=0 time=0.1180554375
EXTRACT: note_on channel=7 note=62 velocity=0 time=0
EXTRACT: note_on channel=8 note=62 velocity=0 time=0
EXTRACT: note_on channel=9 note=82 velocity=0 time=0
EXTRACT: note_on channel=11 note=53 velocity=0 time=0
EXTRACT: note_on channel=11 note=57 velocity=0 time=0
EXTRACT: note_on channel=11 note=60 velocity=0 time=0
EXTRACT: note_on channel=11 note=65 velocity=0 time=0
EXTRACT: note_on channel=15 note=34 velocity=0 time=0
EXTRACT: note_on channel=3 note=58 velocity=92 time=0.0069444375
EXTRACT: note_on channel=3 note=63 velocity=92 time=0
EXTRACT: note_on channel=3 note=67 velocity=92 time=0
EXTRACT: note_on channel=5 note=55 velocity=92 time=0
EXTRACT: note_on channel=5 note=60 velocity=92 time=0
EXTRACT: note_on channel=5 note=63 velocity=92 time=0
EXTRACT: note_on channel=5 note=48 velocity=92 time=0
EXTRACT: note_on channel=9 note=54 velocity=92 time=0
EXTRACT: note_on channel=9 note=82 velocity=92 time=0
EXTRACT: note_on channel=9 note=35 velocity=92 time=0
EXTRACT: note_on channel=9 note=42 velocity=92 time=0
EXTRACT: note_on channel=11 note=55 velocity=92 time=0
EXTRACT: note_on channel=11 note=60 velocity=92 time=0
EXTRACT: note_on channel=11 note=63 velocity=92 time=0
EXTRACT: note_on channel=11 note=67 velocity=92 time=0
EXTRACT: note_on channel=12 note=67 velocity=92 time=0
EXTRACT: note_on channel=12 note=75 velocity=92 time=0
EXTRACT: note_on channel=13 note=65 velocity=92 time=0
EXTRACT: note_on channel=15 note=36 velocity=92 time=0
EXTRACT: note_on channel=0 note=70 velocity=127 time=0.041666625
EXTRACT: note_on channel=7 note=58 velocity=92 time=0
EXTRACT: note_on channel=8 note=58 velocity=92 time=0
EXTRACT: note_on channel=9 note=35 velocity=0 time=0.0347221875
EXTRACT: note_on channel=9 note=42 velocity=0 time=0
EXTRACT: note_on channel=9 note=54 velocity=0 time=0.08333325
EXTRACT: note_on channel=9 note=82 velocity=0 time=0
EXTRACT: note_on channel=11 note=55 velocity=0 time=0
EXTRACT: note_on channel=11 note=60 velocity=0 time=0
EXTRACT: note_on channel=11 note=63 velocity=0 time=0
EXTRACT: note_on channel=11 note=67 velocity=0 time=0
EXTRACT: note_on channel=9 note=54 velocity=92 time=0.0069444375
EXTRACT: note_on channel=7 note=58 velocity=0 time=0.0347221875
EXTRACT: note_on channel=8 note=58 velocity=0 time=0
EXTRACT: note_on channel=9 note=54 velocity=0 time=0
EXTRACT: note_on channel=7 note=60 velocity=92 time=0.0069444375
EXTRACT: note_on channel=8 note=60 velocity=92 time=0
EXTRACT: note_on channel=9 note=82 velocity=92 time=0
EXTRACT: note_on channel=7 note=60 velocity=0 time=0.1180554375
EXTRACT: note_on channel=8 note=60 velocity=0 time=0
EXTRACT: note_on channel=9 note=82 velocity=0 time=0
EXTRACT: note_on channel=7 note=62 velocity=92 time=0.0069444375
EXTRACT: note_on channel=8 note=62 velocity=92 time=0
EXTRACT: note_on channel=9 note=54 velocity=92 time=0
EXTRACT: note_on channel=9 note=82 velocity=92 time=0
EXTRACT: note_on channel=9 note=42 velocity=92 time=0
EXTRACT: note_on channel=11 note=55 velocity=92 time=0
EXTRACT: note_on channel=11 note=60 velocity=92 time=0
EXTRACT: note_on channel=11 note=63 velocity=92 time=0
EXTRACT: note_on channel=11 note=67 velocity=92 time=0
EXTRACT: note_on channel=0 note=70 velocity=0 time=0.0347221875
EXTRACT: note_on channel=0 note=72 velocity=127 time=0.0069444375
EXTRACT: note_on channel=9 note=42 velocity=0 time=0.0347221875
EXTRACT: note_on channel=11 note=55 velocity=0 time=0.041666625
EXTRACT: note_on channel=11 note=60 velocity=0 time=0
EXTRACT: note_on channel=11 note=63 velocity=0 time=0
EXTRACT: note_on channel=11 note=67 velocity=0 time=0
EXTRACT: note_on channel=7 note=62 velocity=0 time=0.041666625
EXTRACT: note_on channel=8 note=62 velocity=0 time=0
EXTRACT: note_on channel=9 note=54 velocity=0 time=0
EXTRACT: note_on channel=9 note=82 velocity=0 time=0
EXTRACT: note_on channel=7 note=58 velocity=92 time=0.0069444375
EXTRACT: note_on channel=8 note=58 velocity=92 time=0
EXTRACT: note_on channel=9 note=54 velocity=92 time=0
EXTRACT: note_on channel=9 note=54 velocity=0 time=0.0347221875
EXTRACT: note_on channel=9 note=82 velocity=92 time=0.0069444375
EXTRACT: note_on channel=7 note=58 velocity=0 time=0.1180554375
EXTRACT: note_on channel=8 note=58 velocity=0 time=0
EXTRACT: note_on channel=9 note=82 velocity=0 time=0
EXTRACT: note_on channel=7 note=60 velocity=92 time=0.0069444375
EXTRACT: note_on channel=8 note=60 velocity=92 time=0
EXTRACT: note_on channel=9 note=54 velocity=92 time=0
EXTRACT: note_on channel=9 note=82 velocity=92 time=0
EXTRACT: note_on channel=9 note=40 velocity=92 time=0
EXTRACT: note_on channel=9 note=42 velocity=92 time=0
EXTRACT: note_on channel=11 note=55 velocity=92 time=0
EXTRACT: note_on channel=11 note=60 velocity=92 time=0
EXTRACT: note_on channel=11 note=63 velocity=92 time=0
EXTRACT: note_on channel=11 note=67 velocity=92 time=0
EXTRACT: note_on channel=9 note=40 velocity=0 time=0.0763888125
EXTRACT: note_on channel=9 note=42 velocity=0 time=0
EXTRACT: note_on channel=7 note=60 velocity=0 time=0.08333325
EXTRACT: note_on channel=8 note=60 velocity=0 time=0
EXTRACT: note_on channel=9 note=54 velocity=0 time=0
EXTRACT: note_on channel=9 note=82 velocity=0 time=0
EXTRACT: note_on channel=7 note=62 velocity=92 time=0.0069444375
EXTRACT: note_on channel=8 note=62 velocity=92 time=0
EXTRACT: note_on channel=9 note=54 velocity=92 time=0
EXTRACT: note_on channel=9 note=54 velocity=0 time=0.0347221875
EXTRACT: note_on channel=9 note=82 velocity=92 time=0.0069444375
EXTRACT: note_on channel=15 note=36 velocity=0 time=0.013888875
EXTRACT: note_on channel=7 note=62 velocity=0 time=0.1041665625
EXTRACT: note_on channel=8 note=62 velocity=0 time=0
EXTRACT: note_on channel=9 note=82 velocity=0 time=0
EXTRACT: note_on channel=11 note=55 velocity=0 time=0
EXTRACT: note_on channel=11 note=60 velocity=0 time=0
EXTRACT: note_on channel=11 note=63 velocity=0 time=0
EXTRACT: note_on channel=11 note=67 velocity=0 time=0
EXTRACT: note_on channel=7 note=58 velocity=92 time=0.0069444375
EXTRACT: note_on channel=8 note=58 velocity=92 time=0
EXTRACT: note_on channel=9 note=54 velocity=92 time=0
EXTRACT: note_on channel=9 note=82 velocity=92 time=0
EXTRACT: note_on channel=9 note=42 velocity=92 time=0
EXTRACT: note_on channel=15 note=43 velocity=92 time=0
EXTRACT: note_on channel=9 note=42 velocity=0 time=0.0763888125
EXTRACT: note_on channel=7 note=58 velocity=0 time=0.08333325
EXTRACT: note_on channel=8 note=58 velocity=0 time=0
EXTRACT: note_on channel=9 note=54 velocity=0 time=0
EXTRACT: note_on channel=9 note=82 velocity=0 time=0
EXTRACT: note_on channel=3 note=58 velocity=0 time=0.0069444375
EXTRACT: note_on channel=3 note=63 velocity=0 time=0
EXTRACT: note_on channel=3 note=67 velocity=0 time=0
EXTRACT: note_on channel=7 note=60 velocity=92 time=0
EXTRACT: note_on channel=8 note=60 velocity=92 time=0
EXTRACT: note_on channel=9 note=54 velocity=92 time=0
EXTRACT: note_on channel=11 note=55 velocity=92 time=0
EXTRACT: note_on channel=11 note=60 velocity=92 time=0
EXTRACT: note_on channel=11 note=63 velocity=92 time=0
EXTRACT: note_on channel=11 note=67 velocity=92 time=0
EXTRACT: note_on channel=9 note=54 velocity=0 time=0.0347221875
EXTRACT: note_on channel=9 note=82 velocity=92 time=0.0069444375
EXTRACT: note_on channel=7 note=60 velocity=0 time=0.1180554375
EXTRACT: note_on channel=8 note=60 velocity=0 time=0
EXTRACT: note_on channel=9 note=82 velocity=0 time=0
EXTRACT: note_on channel=11 note=55 velocity=0 time=0
EXTRACT: note_on channel=11 note=60 velocity=0 time=0
EXTRACT: note_on channel=11 note=63 velocity=0 time=0
EXTRACT: note_on channel=11 note=67 velocity=0 time=0
EXTRACT: note_on channel=15 note=43 velocity=0 time=0
EXTRACT: note_on channel=3 note=72 velocity=92 time=0.0069444375
EXTRACT: note_on channel=7 note=62 velocity=92 time=0
EXTRACT: note_on channel=8 note=62 velocity=92 time=0
EXTRACT: note_on channel=9 note=54 velocity=92 time=0
EXTRACT: note_on channel=9 note=35 velocity=92 time=0
EXTRACT: note_on channel=9 note=42 velocity=92 time=0
EXTRACT: note_on channel=11 note=55 velocity=92 time=0
EXTRACT: note_on channel=11 note=60 velocity=92 time=0
EXTRACT: note_on channel=11 note=63 velocity=92 time=0
EXTRACT: note_on channel=11 note=67 velocity=92 time=0
EXTRACT: note_on channel=15 note=48 velocity=92 time=0
EXTRACT: note_on channel=9 note=35 velocity=0 time=0.0763888125
EXTRACT: note_on channel=9 note=42 velocity=0 time=0
EXTRACT: note_on channel=0 note=72 velocity=0 time=0.08333325
EXTRACT: note_on channel=7 note=62 velocity=0 time=0
EXTRACT: note_on channel=9 note=54 velocity=0 time=0
EXTRACT: note_on channel=11 note=55 velocity=0 time=0
EXTRACT: note_on channel=11 note=60 velocity=0 time=0
EXTRACT: note_on channel=11 note=63 velocity=0 time=0
EXTRACT: note_on channel=11 note=67 velocity=0 time=0
EXTRACT: note_on channel=0 note=74 velocity=127 time=0.0069444375
EXTRACT: note_on channel=7 note=58 velocity=92 time=0
EXTRACT: note_on channel=9 note=54 velocity=92 time=0
EXTRACT: note_on channel=11 note=55 velocity=92 time=0
EXTRACT: note_on channel=11 note=60 velocity=92 time=0
EXTRACT: note_on channel=11 note=63 velocity=92 time=0
EXTRACT: note_on channel=11 note=67 velocity=92 time=0
EXTRACT: note_on channel=8 note=62 velocity=0 time=0.0347221875
EXTRACT: note_on channel=9 note=54 velocity=0 time=0
EXTRACT: note_on channel=9 note=82 velocity=92 time=0.0069444375
EXTRACT: note_on channel=7 note=58 velocity=0 time=0.1180554375
EXTRACT: note_on channel=9 note=82 velocity=0 time=0
EXTRACT: note_on channel=11 note=55 velocity=0 time=0
EXTRACT: note_on channel=11 note=60 velocity=0 time=0
EXTRACT: note_on channel=11 note=63 velocity=0 time=0
EXTRACT: note_on channel=11 note=67 velocity=0 time=0
EXTRACT: note_on channel=15 note=48 velocity=0 time=0
EXTRACT: note_on channel=7 note=60 velocity=92 time=0.0069444375
EXTRACT: note_on channel=9 note=54 velocity=92 time=0
EXTRACT: note_on channel=9 note=35 velocity=92 time=0
EXTRACT: note_on channel=9 note=46 velocity=92 time=0
EXTRACT: note_on channel=11 note=55 velocity=92 time=0
EXTRACT: note_on channel=11 note=60 velocity=92 time=0
EXTRACT: note_on channel=11 note=63 velocity=92 time=0
EXTRACT: note_on channel=11 note=67 velocity=92 time=0
EXTRACT: note_on channel=15 note=46 velocity=92 time=0
EXTRACT: note_on channel=9 note=35 velocity=0 time=0.0763888125
EXTRACT: note_on channel=9 note=46 velocity=0 time=0
EXTRACT: note_on channel=7 note=60 velocity=0 time=0.08333325
EXTRACT: note_on channel=9 note=54 velocity=0 time=0
EXTRACT: note_on channel=11 note=55 velocity=0 time=0
EXTRACT: note_on channel=11 note=60 velocity=0 time=0
EXTRACT: note_on channel=11 note=63 velocity=0 time=0
EXTRACT: note_on channel=11 note=67 velocity=0 time=0
EXTRACT: note_on channel=7 note=62 velocity=92 time=0.0069444375
EXTRACT: note_on channel=9 note=54 velocity=92 time=0
EXTRACT: note_on channel=11 note=55 velocity=92 time=0
EXTRACT: note_on channel=11 note=60 velocity=92 time=0
EXTRACT: note_on channel=11 note=63 velocity=92 time=0
EXTRACT: note_on channel=11 note=67 velocity=92 time=0
EXTRACT: note_on channel=0 note=74 velocity=0 time=0.0347221875
EXTRACT: note_on channel=9 note=54 velocity=0 time=0
EXTRACT: note_on channel=0 note=74 velocity=127 time=0.0069444375
EXTRACT: note_on channel=9 note=82 velocity=92 time=0
EXTRACT: note_on channel=0 note=74 velocity=0 time=0.1180554375
EXTRACT: note_on channel=7 note=62 velocity=0 time=0
EXTRACT: note_on channel=9 note=82 velocity=0 time=0
EXTRACT: note_on channel=11 note=55 velocity=0 time=0
EXTRACT: note_on channel=11 note=60 velocity=0 time=0
EXTRACT: note_on channel=11 note=63 velocity=0 time=0
EXTRACT: note_on channel=11 note=67 velocity=0 time=0
EXTRACT: note_on channel=15 note=46 velocity=0 time=0
EXTRACT: note_on channel=7 note=58 velocity=92 time=0.0069444375
EXTRACT: note_on channel=9 note=54 velocity=92 time=0
EXTRACT: note_on channel=9 note=82 velocity=92 time=0
EXTRACT: note_on channel=9 note=40 velocity=92 time=0
EXTRACT: note_on channel=9 note=42 velocity=92 time=0
EXTRACT: note_on channel=11 note=55 velocity=92 time=0
EXTRACT: note_on channel=11 note=60 velocity=92 time=0
EXTRACT: note_on channel=11 note=63 velocity=92 time=0
EXTRACT: note_on channel=11 note=67 velocity=92 time=0
EXTRACT: note_on channel=15 note=43 velocity=92 time=0
EXTRACT: note_on channel=0 note=74 velocity=127 time=0.041666625
EXTRACT: note_on channel=9 note=40 velocity=0 time=0.0347221875
EXTRACT: note_on channel=9 note=42 velocity=0 time=0
EXTRACT: note_on channel=7 note=58 velocity=0 time=0.08333325
EXTRACT: note_on channel=9 note=54 velocity=0 time=0
EXTRACT: note_on channel=9 note=82 velocity=0 time=0
EXTRACT: note_on channel=7 note=60 velocity=92 time=0.0069444375
EXTRACT: note_on channel=9 note=54 velocity=92 time=0
EXTRACT: note_on channel=5 note=55 velocity=0 time=0.0347221875
EXTRACT: note_on channel=5 note=60 velocity=0 time=0
EXTRACT: note_on channel=5 note=63 velocity=0 time=0
EXTRACT: note_on channel=9 note=54 velocity=0 time=0
EXTRACT: note_on channel=9 note=82 velocity=92 time=0.0069444375
EXTRACT: note_on channel=5 note=48 velocity=0 time=0.0763888125
EXTRACT: note_on channel=7 note=60 velocity=0 time=0.041666625
EXTRACT: note_on channel=9 note=82 velocity=0 time=0
EXTRACT: note_on channel=11 note=55 velocity=0 time=0
EXTRACT: note_on channel=11 note=60 velocity=0 time=0
EXTRACT: note_on channel=11 note=63 velocity=0 time=0
EXTRACT: note_on channel=11 note=67 velocity=0 time=0
EXTRACT: note_on channel=15 note=43 velocity=0 time=0
EXTRACT: note_on channel=7 note=62 velocity=92 time=0.0069444375
EXTRACT: note_on channel=9 note=54 velocity=92 time=0
EXTRACT: note_on channel=9 note=82 velocity=92 time=0
EXTRACT: note_on channel=9 note=42 velocity=92 time=0
EXTRACT: note_on channel=11 note=55 velocity=92 time=0
EXTRACT: note_on channel=11 note=60 velocity=92 time=0
EXTRACT: note_on channel=11 note=63 velocity=92 time=0
EXTRACT: note_on channel=11 note=67 velocity=92 time=0
EXTRACT: note_on channel=15 note=46 velocity=92 time=0
EXTRACT: note_on channel=0 note=74 velocity=0 time=0.0347221875
EXTRACT: note_on channel=0 note=72 velocity=127 time=0.0069444375
EXTRACT: note_on channel=9 note=42 velocity=0 time=0.0347221875
EXTRACT: note_on channel=9 note=54 velocity=0 time=0.08333325
EXTRACT: note_on channel=9 note=82 velocity=0 time=0
EXTRACT: note_on channel=3 note=72 velocity=0 time=0.0069444375
EXTRACT: note_on channel=9 note=54 velocity=92 time=0
EXTRACT: note_on channel=0 note=72 velocity=0 time=0.0347221875
EXTRACT: note_on channel=9 note=54 velocity=0 time=0
EXTRACT: note_on channel=0 note=70 velocity=127 time=0.0069444375
EXTRACT: note_on channel=9 note=82 velocity=92 time=0
EXTRACT: note_on channel=0 note=70 velocity=0 time=0.1180554375
EXTRACT: note_on channel=7 note=62 velocity=0 time=0
EXTRACT: note_on channel=9 note=82 velocity=0 time=0
EXTRACT: note_on channel=11 note=55 velocity=0 time=0
EXTRACT: note_on channel=11 note=60 velocity=0 time=0
EXTRACT: note_on channel=11 note=63 velocity=0 time=0
EXTRACT: note_on channel=11 note=67 velocity=0 time=0
EXTRACT: note_on channel=15 note=46 velocity=0 time=0
EXTRACT: note_on channel=3 note=70 velocity=92 time=0.0069444375
EXTRACT: note_on channel=5 note=55 velocity=92 time=0
EXTRACT: note_on channel=5 note=58 velocity=92 time=0
EXTRACT: note_on channel=5 note=63 velocity=92 time=0
EXTRACT: note_on channel=5 note=51 velocity=92 time=0
EXTRACT: note_on channel=9 note=54 velocity=92 time=0
EXTRACT: note_on channel=9 note=82 velocity=92 time=0
EXTRACT: note_on channel=9 note=35 velocity=92 time=0
EXTRACT: note_on channel=9 note=42 velocity=92 time=0
EXTRACT: note_on channel=11 note=55 velocity=92 time=0
EXTRACT: note_on channel=11 note=58 velocity=92 time=0
EXTRACT: note_on channel=11 note=63 velocity=92 time=0
EXTRACT: note_on channel=11 note=67 velocity=92 time=0
EXTRACT: note_on channel=15 note=39 velocity=92 time=0
EXTRACT: note_on channel=13 note=65 velocity=0 time=0.0347221875
EXTRACT: note_on channel=7 note=58 velocity=92 time=0.0069444375
EXTRACT: note_on channel=13 note=72 velocity=92 time=0
EXTRACT: note_on channel=9 note=35 velocity=0 time=0.0347221875
EXTRACT: note_on channel=9 note=42 velocity=0 time=0
EXTRACT: note_on channel=15 note=39 velocity=0 time=0
EXTRACT: note_on channel=0 note=70 velocity=127 time=0.0069444375
EXTRACT: note_on channel=9 note=54 velocity=0 time=0.0763888125
EXTRACT: note_on channel=9 note=82 velocity=0 time=0
EXTRACT: note_on channel=11 note=55 velocity=0 time=0
EXTRACT: note_on channel=11 note=58 velocity=0 time=0
EXTRACT: note_on channel=11 note=63 velocity=0 time=0
EXTRACT: note_on channel=11 note=67 velocity=0 time=0
EXTRACT: note_on channel=9 note=54 velocity=92 time=0.0069444375
EXTRACT: note_on channel=7 note=58 velocity=0 time=0.0347221875
EXTRACT: note_on channel=9 note=54 velocity=0 time=0
EXTRACT: note_on channel=7 note=60 velocity=92 time=0.0069444375
EXTRACT: note_on channel=9 note=82 velocity=92 time=0
EXTRACT: note_on channel=7 note=60 velocity=0 time=0.1180554375
EXTRACT: note_on channel=9 note=82 velocity=0 time=0
EXTRACT: note_on channel=7 note=62 velocity=92 time=0.0069444375
EXTRACT: note_on channel=9 note=54 velocity=92 time=0
EXTRACT: note_on channel=9 note=82 velocity=92 time=0
EXTRACT: note_on channel=9 note=42 velocity=92 time=0
EXTRACT: note_on channel=11 note=55 velocity=92 time=0
EXTRACT: note_on channel=11 note=58 velocity=92 time=0
EXTRACT: note_on channel=11 note=63 velocity=92 time=0
EXTRACT: note_on channel=11 note=67 velocity=92 time=0
EXTRACT: note_on channel=15 note=39 velocity=92 time=0
EXTRACT: note_on channel=0 note=70 velocity=0 time=0.0763888125
EXTRACT: note_on channel=9 note=42 velocity=0 time=0
EXTRACT: note_on channel=0 note=65 velocity=127 time=0.0069444375
EXTRACT: note_on channel=11 note=55 velocity=0 time=0.0347221875
EXTRACT: note_on channel=11 note=58 velocity=0 time=0
EXTRACT: note_on channel=11 note=63 velocity=0 time=0
EXTRACT: note_on channel=11 note=67 velocity=0 time=0
EXTRACT: note_on channel=7 note=62 velocity=0 time=0.041666625
EXTRACT: note_on channel=9 note=54 velocity=0 time=0
EXTRACT: note_on channel=9 note=82 velocity=0 time=0
EXTRACT: note_on channel=7 note=58 velocity=92 time=0.0069444375
EXTRACT: note_on channel=8 note=58 velocity=92 time=0
EXTRACT: note_on channel=9 note=54 velocity=92 time=0
EXTRACT: note_on channel=9 note=54 velocity=0 time=0.0347221875
EXTRACT: note_on channel=9 note=82 velocity=92 time=0.0069444375
EXTRACT: note_on channel=7 note=58 velocity=0 time=0.1180554375
EXTRACT: note_on channel=8 note=58 velocity=0 time=0
EXTRACT: note_on channel=9 note=82 velocity=0 time=0
EXTRACT: note_on channel=7 note=60 velocity=92 time=0.0069444375
EXTRACT: note_on channel=8 note=60 velocity=92 time=0
EXTRACT: note_on channel=9 note=54 velocity=92 time=0
EXTRACT: note_on channel=9 note=82 velocity=92 time=0
EXTRACT: note_on channel=9 note=40 velocity=92 time=0
EXTRACT: note_on channel=9 note=42 velocity=92 time=0
EXTRACT: note_on channel=11 note=55 velocity=92 time=0
EXTRACT: note_on channel=11 note=58 velocity=92 time=0
EXTRACT: note_on channel=11 note=63 velocity=92 time=0
EXTRACT: note_on channel=11 note=67 velocity=92 time=0
EXTRACT: note_on channel=9 note=40 velocity=0 time=0.0763888125
EXTRACT: note_on channel=9 note=42 velocity=0 time=0
EXTRACT: note_on channel=7 note=60 velocity=0 time=0.08333325
EXTRACT: note_on channel=8 note=60 velocity=0 time=0
EXTRACT: note_on channel=9 note=54 velocity=0 time=0
EXTRACT: note_on channel=9 note=82 velocity=0 time=0
EXTRACT: note_on channel=7 note=62 velocity=92 time=0.0069444375
EXTRACT: note_on channel=8 note=62 velocity=92 time=0
EXTRACT: note_on channel=9 note=54 velocity=92 time=0
EXTRACT: note_on channel=9 note=54 velocity=0 time=0.0347221875
EXTRACT: note_on channel=9 note=82 velocity=92 time=0.0069444375
EXTRACT: note_on channel=7 note=62 velocity=0 time=0.1180554375
EXTRACT: note_on channel=8 note=62 velocity=0 time=0
EXTRACT: note_on channel=9 note=82 velocity=0 time=0
EXTRACT: note_on channel=11 note=55 velocity=0 time=0
EXTRACT: note_on channel=11 note=58 velocity=0 time=0
EXTRACT: note_on channel=11 note=63 velocity=0 time=0
EXTRACT: note_on channel=11 note=67 velocity=0 time=0
EXTRACT: note_on channel=7 note=58 velocity=92 time=0.0069444375
EXTRACT: note_on channel=8 note=58 velocity=92 time=0
EXTRACT: note_on channel=9 note=54 velocity=92 time=0
EXTRACT: note_on channel=9 note=82 velocity=92 time=0
EXTRACT: note_on channel=9 note=42 velocity=92 time=0
EXTRACT: note_on channel=9 note=42 velocity=0 time=0.0763888125
EXTRACT: note_on channel=7 note=58 velocity=0 time=0.08333325
EXTRACT: note_on channel=8 note=58 velocity=0 time=0
EXTRACT: note_on channel=9 note=54 velocity=0 time=0
EXTRACT: note_on channel=9 note=82 velocity=0 time=0
EXTRACT: note_on channel=3 note=70 velocity=0 time=0.0069444375
EXTRACT: note_on channel=7 note=60 velocity=92 time=0
EXTRACT: note_on channel=8 note=60 velocity=92 time=0
EXTRACT: note_on channel=9 note=54 velocity=92 time=0
EXTRACT: note_on channel=11 note=55 velocity=92 time=0
EXTRACT: note_on channel=11 note=58 velocity=92 time=0
EXTRACT: note_on channel=11 note=63 velocity=92 time=0
EXTRACT: note_on channel=11 note=67 velocity=92 time=0
EXTRACT: note_on channel=9 note=54 velocity=0 time=0.0347221875
EXTRACT: note_on channel=9 note=82 velocity=92 time=0.0069444375
EXTRACT: note_on channel=0 note=65 velocity=0 time=0.013888875
EXTRACT: note_on channel=15 note=39 velocity=0 time=0
EXTRACT: note_on channel=7 note=60 velocity=0 time=0.1041665625
EXTRACT: note_on channel=8 note=60 velocity=0 time=0
EXTRACT: note_on channel=9 note=82 velocity=0 time=0
EXTRACT: note_on channel=11 note=55 velocity=0 time=0
EXTRACT: note_on channel=11 note=58 velocity=0 time=0
EXTRACT: note_on channel=11 note=63 velocity=0 time=0
EXTRACT: note_on channel=11 note=67 velocity=0 time=0
EXTRACT: note_on channel=3 note=60 velocity=92 time=0.0069444375
EXTRACT: note_on channel=3 note=72 velocity=92 time=0
EXTRACT: note_on channel=7 note=62 velocity=92 time=0
EXTRACT: note_on channel=8 note=62 velocity=92 time=0
EXTRACT: note_on channel=9 note=54 velocity=92 time=0
EXTRACT: note_on channel=9 note=35 velocity=92 time=0
EXTRACT: note_on channel=9 note=42 velocity=92 time=0
EXTRACT: note_on channel=11 note=55 velocity=92 time=0
EXTRACT: note_on channel=11 note=58 velocity=92 time=0
EXTRACT: note_on channel=11 note=63 velocity=92 time=0
EXTRACT: note_on channel=11 note=67 velocity=92 time=0
EXTRACT: note_on channel=15 note=39 velocity=92 time=0
EXTRACT: note_on channel=9 note=35 velocity=0 time=0.0763888125
EXTRACT: note_on channel=9 note=42 velocity=0 time=0
EXTRACT: note_on channel=7 note=62 velocity=0 time=0.08333325
EXTRACT: note_on channel=8 note=62 velocity=0 time=0
EXTRACT: note_on channel=9 note=54 velocity=0 time=0
EXTRACT: note_on channel=11 note=55 velocity=0 time=0
EXTRACT: note_on channel=11 note=58 velocity=0 time=0
EXTRACT: note_on channel=11 note=63 velocity=0 time=0
EXTRACT: note_on channel=11 note=67 velocity=0 time=0
EXTRACT: note_on channel=7 note=58 velocity=92 time=0.0069444375
EXTRACT: note_on channel=8 note=58 velocity=92 time=0
EXTRACT: note_on channel=9 note=54 velocity=92 time=0
EXTRACT: note_on channel=11 note=55 velocity=92 time=0
EXTRACT: note_on channel=11 note=58 velocity=92 time=0
EXTRACT: note_on channel=11 note=63 velocity=92 time=0
EXTRACT: note_on channel=11 note=67 velocity=92 time=0
EXTRACT: note_on channel=9 note=54 velocity=0 time=0.0347221875
EXTRACT: note_on channel=9 note=82 velocity=92 time=0.0069444375
EXTRACT: note_on channel=7 note=58 velocity=0 time=0.1180554375
EXTRACT: note_on channel=8 note=58 velocity=0 time=0
EXTRACT: note_on channel=9 note=82 velocity=0 time=0
EXTRACT: note_on channel=11 note=55 velocity=0 time=0
EXTRACT: note_on channel=11 note=58 velocity=0 time=0
EXTRACT: note_on channel=11 note=63 velocity=0 time=0
EXTRACT: note_on channel=11 note=67 velocity=0 time=0
EXTRACT: note_on channel=15 note=39 velocity=0 time=0
EXTRACT: note_on channel=7 note=60 velocity=92 time=0.0069444375
EXTRACT: note_on channel=8 note=60 velocity=92 time=0
EXTRACT: note_on channel=9 note=54 velocity=92 time=0
EXTRACT: note_on channel=9 note=35 velocity=92 time=0
EXTRACT: note_on channel=9 note=46 velocity=92 time=0
EXTRACT: note_on channel=11 note=55 velocity=92 time=0
EXTRACT: note_on channel=11 note=58 velocity=92 time=0
EXTRACT: note_on channel=11 note=63 velocity=92 time=0
EXTRACT: note_on channel=11 note=67 velocity=92 time=0
EXTRACT: note_on channel=15 note=34 velocity=92 time=0
EXTRACT: note_on channel=9 note=35 velocity=0 time=0.0763888125
EXTRACT: note_on channel=9 note=46 velocity=0 time=0
EXTRACT: note_on channel=7 note=60 velocity=0 time=0.08333325
EXTRACT: note_on channel=8 note=60 velocity=0 time=0
EXTRACT: note_on channel=9 note=54 velocity=0 time=0
EXTRACT: note_on channel=11 note=55 velocity=0 time=0
EXTRACT: note_on channel=11 note=58 velocity=0 time=0
EXTRACT: note_on channel=11 note=63 velocity=0 time=0
EXTRACT: note_on channel=11 note=67 velocity=0 time=0
EXTRACT: note_on channel=7 note=62 velocity=92 time=0.0069444375
EXTRACT: note_on channel=8 note=62 velocity=92 time=0
EXTRACT: note_on channel=9 note=54 velocity=92 time=0
EXTRACT: note_on channel=11 note=55 velocity=92 time=0
EXTRACT: note_on channel=11 note=58 velocity=92 time=0
EXTRACT: note_on channel=11 note=63 velocity=92 time=0
EXTRACT: note_on channel=11 note=67 velocity=92 time=0
EXTRACT: note_on channel=9 note=54 velocity=0 time=0.0347221875
EXTRACT: note_on channel=9 note=82 velocity=92 time=0.0069444375
EXTRACT: note_on channel=3 note=60 velocity=0 time=0.013888875
EXTRACT: note_on channel=3 note=72 velocity=0 time=0
EXTRACT: note_on channel=7 note=62 velocity=0 time=0.1041665625
EXTRACT: note_on channel=8 note=62 velocity=0 time=0
EXTRACT: note_on channel=9 note=82 velocity=0 time=0
EXTRACT: note_on channel=11 note=55 velocity=0 time=0
EXTRACT: note_on channel=11 note=58 velocity=0 time=0
EXTRACT: note_on channel=11 note=63 velocity=0 time=0
EXTRACT: note_on channel=11 note=67 velocity=0 time=0
EXTRACT: note_on channel=15 note=34 velocity=0 time=0
EXTRACT: note_on channel=3 note=62 velocity=92 time=0.0069444375
EXTRACT: note_on channel=3 note=74 velocity=92 time=0
EXTRACT: note_on channel=7 note=58 velocity=92 time=0
EXTRACT: note_on channel=8 note=58 velocity=92 time=0
EXTRACT: note_on channel=9 note=54 velocity=92 time=0
EXTRACT: note_on channel=9 note=82 velocity=92 time=0
EXTRACT: note_on channel=9 note=40 velocity=92 time=0
EXTRACT: note_on channel=9 note=42 velocity=92 time=0
EXTRACT: note_on channel=11 note=55 velocity=92 time=0
EXTRACT: note_on channel=11 note=58 velocity=92 time=0
EXTRACT: note_on channel=11 note=63 velocity=92 time=0
EXTRACT: note_on channel=11 note=67 velocity=92 time=0
EXTRACT: note_on channel=15 note=41 velocity=92 time=0
EXTRACT: note_on channel=9 note=40 velocity=0 time=0.0763888125
EXTRACT: note_on channel=9 note=42 velocity=0 time=0
EXTRACT: note_on channel=7 note=58 velocity=0 time=0.08333325
EXTRACT: note_on channel=8 note=58 velocity=0 time=0
EXTRACT: note_on channel=9 note=54 velocity=0 time=0
EXTRACT: note_on channel=9 note=82 velocity=0 time=0
EXTRACT: note_on channel=12 note=67 velocity=0 time=0
EXTRACT: note_on channel=12 note=75 velocity=0 time=0
EXTRACT: note_on channel=7 note=60 velocity=92 time=0.0069444375
EXTRACT: note_on channel=8 note=60 velocity=92 time=0
EXTRACT: note_on channel=9 note=54 velocity=92 time=0
EXTRACT: note_on channel=9 note=54 velocity=0 time=0.0347221875
EXTRACT: note_on channel=9 note=82 velocity=92 time=0.0069444375
EXTRACT: note_on channel=7 note=60 velocity=0 time=0.1180554375
EXTRACT: note_on channel=8 note=60 velocity=0 time=0
EXTRACT: note_on channel=9 note=82 velocity=0 time=0
EXTRACT: note_on channel=11 note=55 velocity=0 time=0
EXTRACT: note_on channel=11 note=58 velocity=0 time=0
EXTRACT: note_on channel=11 note=63 velocity=0 time=0
EXTRACT: note_on channel=11 note=67 velocity=0 time=0
EXTRACT: note_on channel=15 note=41 velocity=0 time=0
EXTRACT: note_on channel=7 note=62 velocity=92 time=0.0069444375
EXTRACT: note_on channel=8 note=62 velocity=92 time=0
EXTRACT: note_on channel=9 note=54 velocity=92 time=0
EXTRACT: note_on channel=9 note=82 velocity=92 time=0
EXTRACT: note_on channel=9 note=40 velocity=92 time=0
EXTRACT: note_on channel=9 note=42 velocity=92 time=0
EXTRACT: note_on channel=11 note=55 velocity=92 time=0
EXTRACT: note_on channel=11 note=58 velocity=92 time=0
EXTRACT: note_on channel=11 note=63 velocity=92 time=0
EXTRACT: note_on channel=11 note=67 velocity=92 time=0
EXTRACT: note_on channel=15 note=43 velocity=92 time=0
EXTRACT: note_on channel=9 note=54 velocity=0 time=0.1597220625
EXTRACT: note_on channel=9 note=82 velocity=0 time=0
EXTRACT: note_on channel=9 note=40 velocity=0 time=0
EXTRACT: note_on channel=9 note=42 velocity=0 time=0
EXTRACT: note_on channel=5 note=55 velocity=0 time=0.0069444375
EXTRACT: note_on channel=5 note=58 velocity=0 time=0
EXTRACT: note_on channel=5 note=63 velocity=0 time=0
EXTRACT: note_on channel=5 note=51 velocity=0 time=0
EXTRACT: note_on channel=9 note=54 velocity=92 time=0
EXTRACT: note_on channel=9 note=40 velocity=92 time=0
EXTRACT: note_on channel=13 note=72 velocity=0 time=0
EXTRACT: note_on channel=9 note=54 velocity=0 time=0.0347221875
EXTRACT: note_on channel=9 note=82 velocity=92 time=0.0069444375
EXTRACT: note_on channel=3 note=62 velocity=0 time=0.013888875
EXTRACT: note_on channel=3 note=74 velocity=0 time=0
EXTRACT: note_on channel=7 note=62 velocity=0 time=0.1041665625
EXTRACT: note_on channel=8 note=62 velocity=0 time=0
EXTRACT: note_on channel=9 note=82 velocity=0 time=0
EXTRACT: note_on channel=9 note=40 velocity=0 time=0
EXTRACT: note_on channel=11 note=55 velocity=0 time=0
EXTRACT: note_on channel=11 note=58 velocity=0 time=0
EXTRACT: note_on channel=11 note=63 velocity=0 time=0
EXTRACT: note_on channel=11 note=67 velocity=0 time=0
EXTRACT: note_on channel=15 note=43 velocity=0 time=0
EXTRACT: note_on channel=3 note=58 velocity=92 time=0.0069444375
EXTRACT: note_on channel=3 note=62 velocity=92 time=0
EXTRACT: note_on channel=3 note=65 velocity=92 time=0
EXTRACT: note_on channel=5 note=53 velocity=92 time=0
EXTRACT: note_on channel=5 note=58 velocity=92 time=0
EXTRACT: note_on channel=5 note=62 velocity=92 time=0
EXTRACT: note_on channel=5 note=46 velocity=92 time=0
EXTRACT: note_on channel=9 note=53 velocity=92 time=0
EXTRACT: note_on channel=9 note=54 velocity=92 time=0
EXTRACT: note_on channel=9 note=57 velocity=92 time=0
EXTRACT: note_on channel=9 note=82 velocity=92 time=0
EXTRACT: note_on channel=9 note=35 velocity=92 time=0
EXTRACT: note_on channel=9 note=42 velocity=92 time=0
EXTRACT: note_on channel=11 note=53 velocity=92 time=0
EXTRACT: note_on channel=11 note=58 velocity=92 time=0
EXTRACT: note_on channel=11 note=62 velocity=92 time=0
EXTRACT: note_on channel=11 note=65 velocity=92 time=0
EXTRACT: note_on channel=12 note=70 velocity=92 time=0
EXTRACT: note_on channel=12 note=77 velocity=92 time=0
EXTRACT: note_on channel=13 note=75 velocity=92 time=0
EXTRACT: note_on channel=15 note=34 velocity=92 time=0
EXTRACT: note_on channel=3 note=58 velocity=0 time=0.0347221875
EXTRACT: note_on channel=3 note=62 velocity=0 time=0
EXTRACT: note_on channel=3 note=65 velocity=0 time=0
EXTRACT: note_on channel=0 note=82 velocity=127 time=0.0069444375
EXTRACT: note_on channel=7 note=58 velocity=92 time=0
EXTRACT: note_on channel=9 note=35 velocity=0 time=0.0347221875
EXTRACT: note_on channel=9 note=42 velocity=0 time=0
EXTRACT: note_on channel=9 note=53 velocity=0 time=0.08333325
EXTRACT: note_on channel=9 note=54 velocity=0 time=0
EXTRACT: note_on channel=9 note=57 velocity=0 time=0
EXTRACT: note_on channel=9 note=82 velocity=0 time=0
EXTRACT: note_on channel=11 note=53 velocity=0 time=0
EXTRACT: note_on channel=11 note=58 velocity=0 time=0
EXTRACT: note_on channel=11 note=62 velocity=0 time=0
EXTRACT: note_on channel=11 note=65 velocity=0 time=0
EXTRACT: note_on channel=9 note=54 velocity=92 time=0.0069444375
EXTRACT: note_on channel=7 note=58 velocity=0 time=0.0347221875
EXTRACT: note_on channel=9 note=54 velocity=0 time=0
EXTRACT: note_on channel=7 note=60 velocity=92 time=0.0069444375
EXTRACT: note_on channel=9 note=82 velocity=92 time=0
EXTRACT: note_on channel=7 note=60 velocity=0 time=0.1180554375
EXTRACT: note_on channel=9 note=82 velocity=0 time=0
EXTRACT: note_on channel=7 note=62 velocity=92 time=0.0069444375
EXTRACT: note_on channel=9 note=54 velocity=92 time=0
EXTRACT: note_on channel=9 note=82 velocity=92 time=0
EXTRACT: note_on channel=9 note=42 velocity=92 time=0
EXTRACT: note_on channel=11 note=53 velocity=92 time=0
EXTRACT: note_on channel=11 note=58 velocity=92 time=0
EXTRACT: note_on channel=11 note=62 velocity=92 time=0
EXTRACT: note_on channel=11 note=65 velocity=92 time=0
EXTRACT: note_on channel=9 note=42 velocity=0 time=0.0763888125
EXTRACT: note_on channel=11 note=53 velocity=0 time=0.041666625
EXTRACT: note_on channel=11 note=58 velocity=0 time=0
EXTRACT: note_on channel=11 note=62 velocity=0 time=0
EXTRACT: note_on channel=11 note=65 velocity=0 time=0
EXTRACT: note_on channel=7 note=62 velocity=0 time=0.041666625
EXTRACT: note_on channel=9 note=54 velocity=0 time=0
EXTRACT: note_on channel=9 note=82 velocity=0 time=0
EXTRACT: note_on channel=7 note=58 velocity=92 time=0.0069444375
EXTRACT: note_on channel=9 note=54 velocity=92 time=0
EXTRACT: note_on channel=9 note=54 velocity=0 time=0.0347221875
EXTRACT: note_on channel=9 note=82 velocity=92 time=0.0069444375
EXTRACT: note_on channel=7 note=58 velocity=0 time=0.1180554375
EXTRACT: note_on channel=9 note=82 velocity=0 time=0
EXTRACT: note_on channel=7 note=60 velocity=92 time=0.0069444375
EXTRACT: note_on channel=9 note=54 velocity=92 time=0
EXTRACT: note_on channel=9 note=82 velocity=92 time=0
EXTRACT: note_on channel=9 note=40 velocity=92 time=0
EXTRACT: note_on channel=9 note=42 velocity=92 time=0
EXTRACT: note_on channel=11 note=53 velocity=92 time=0
EXTRACT: note_on channel=11 note=58 velocity=92 time=0
EXTRACT: note_on channel=11 note=62 velocity=92 time=0
EXTRACT: note_on channel=11 note=65 velocity=92 time=0
EXTRACT: note_on channel=0 note=82 velocity=0 time=0.0347221875
EXTRACT: note_on channel=0 note=77 velocity=127 time=0.0069444375
EXTRACT: note_on channel=9 note=40 velocity=0 time=0.0347221875
EXTRACT: note_on channel=9 note=42 velocity=0 time=0
EXTRACT: note_on channel=7 note=60 velocity=0 time=0.08333325
EXTRACT: note_on channel=9 note=54 velocity=0 time=0
EXTRACT: note_on channel=9 note=82 velocity=0 time=0
EXTRACT: note_on channel=7 note=62 velocity=92 time=0.0069444375
EXTRACT: note_on channel=9 note=54 velocity=92 time=0
EXTRACT: note_on channel=9 note=54 velocity=0 time=0.0347221875
EXTRACT: note_on channel=9 note=82 velocity=92 time=0.0069444375
EXTRACT: note_on channel=0 note=77 velocity=0 time=0.1180554375
EXTRACT: note_on channel=7 note=62 velocity=0 time=0
EXTRACT: note_on channel=9 note=82 velocity=0 time=0
EXTRACT: note_on channel=11 note=53 velocity=0 time=0
EXTRACT: note_on channel=11 note=58 velocity=0 time=0
EXTRACT: note_on channel=11 note=62 velocity=0 time=0
EXTRACT: note_on channel=11 note=65 velocity=0 time=0
EXTRACT: note_on channel=0 note=79 velocity=127 time=0.0069444375
EXTRACT: note_on channel=7 note=58 velocity=92 time=0
EXTRACT: note_on channel=9 note=54 velocity=92 time=0
EXTRACT: note_on channel=9 note=82 velocity=92 time=0
EXTRACT: note_on channel=9 note=42 velocity=92 time=0
EXTRACT: note_on channel=9 note=42 velocity=0 time=0.0763888125
EXTRACT: note_on channel=7 note=58 velocity=0 time=0.08333325
EXTRACT: note_on channel=9 note=54 velocity=0 time=0
EXTRACT: note_on channel=9 note=82 velocity=0 time=0
EXTRACT: note_on channel=15 note=34 velocity=0 time=0
EXTRACT: note_on channel=7 note=60 velocity=92 time=0.0069444375
EXTRACT: note_on channel=9 note=54 velocity=92 time=0
EXTRACT: note_on channel=11 note=53 velocity=92 time=0
EXTRACT: note_on channel=11 note=58 velocity=92 time=0
EXTRACT: note_on channel=11 note=62 velocity=92 time=0
EXTRACT: note_on channel=11 note=65 velocity=92 time=0
EXTRACT: note_on channel=15 note=34 velocity=92 time=0
EXTRACT: note_on channel=0 note=79 velocity=0 time=0.0347221875
EXTRACT: note_on channel=9 note=54 velocity=0 time=0
EXTRACT: note_on channel=0 note=79 velocity=127 time=0.0069444375
EXTRACT: note_on channel=9 note=82 velocity=92 time=0
EXTRACT: note_on channel=7 note=60 velocity=0 time=0.1180554375
EXTRACT: note_on channel=9 note=82 velocity=0 time=0
EXTRACT: note_on channel=11 note=53 velocity=0 time=0
EXTRACT: note_on channel=11 note=58 velocity=0 time=0
EXTRACT: note_on channel=11 note=62 velocity=0 time=0
EXTRACT: note_on channel=11 note=65 velocity=0 time=0
EXTRACT: note_on channel=15 note=34 velocity=0 time=0
EXTRACT: note_on channel=7 note=62 velocity=92 time=0.0069444375
EXTRACT: note_on channel=9 note=54 velocity=92 time=0
EXTRACT: note_on channel=9 note=35 velocity=92 time=0
EXTRACT: note_on channel=9 note=42 velocity=92 time=0
EXTRACT: note_on channel=11 note=53 velocity=92 time=0
EXTRACT: note_on channel=11 note=58 velocity=92 time=0
EXTRACT: note_on channel=11 note=62 velocity=92 time=0
EXTRACT: note_on channel=11 note=65 velocity=92 time=0
EXTRACT: note_on channel=15 note=29 velocity=92 time=0
EXTRACT: note_on channel=9 note=35 velocity=0 time=0.0763888125
EXTRACT: note_on channel=9 note=42 velocity=0 time=0
EXTRACT: note_on channel=7 note=62 velocity=0 time=0.08333325
EXTRACT: note_on channel=9 note=54 velocity=0 time=0
EXTRACT: note_on channel=11 note=53 velocity=0 time=0
EXTRACT: note_on channel=11 note=58 velocity=0 time=0
EXTRACT: note_on channel=11 note=62 velocity=0 time=0
EXTRACT: note_on channel=11 note=65 velocity=0 time=0
EXTRACT: note_on channel=15 note=29 velocity=0 time=0
EXTRACT: note_on channel=7 note=58 velocity=92 time=0.0069444375
EXTRACT: note_on channel=9 note=54 velocity=92 time=0
EXTRACT: note_on channel=11 note=53 velocity=92 time=0
EXTRACT: note_on channel=11 note=58 velocity=92 time=0
EXTRACT: note_on channel=11 note=62 velocity=92 time=0
EXTRACT: note_on channel=11 note=65 velocity=92 time=0
EXTRACT: note_on channel=15 note=31 velocity=92 time=0
EXTRACT: note_on channel=9 note=54 velocity=0 time=0.0347221875
EXTRACT: note_on channel=9 note=82 velocity=92 time=0.0069444375
EXTRACT: note_on channel=7 note=58 velocity=0 time=0.1180554375
EXTRACT: note_on channel=9 note=82 velocity=0 time=0
EXTRACT: note_on channel=11 note=53 velocity=0 time=0
EXTRACT: note_on channel=11 note=58 velocity=0 time=0
EXTRACT: note_on channel=11 note=62 velocity=0 time=0
EXTRACT: note_on channel=11 note=65 velocity=0 time=0
EXTRACT: note_on channel=15 note=31 velocity=0 time=0
EXTRACT: note_on channel=7 note=60 velocity=92 time=0.0069444375
EXTRACT: note_on channel=9 note=54 velocity=92 time=0
EXTRACT: note_on channel=9 note=35 velocity=92 time=0
EXTRACT: note_on channel=9 note=46 velocity=92 time=0
EXTRACT: note_on channel=11 note=53 velocity=92 time=0
EXTRACT: note_on channel=11 note=58 velocity=92 time=0
EXTRACT: note_on channel=11 note=62 velocity=92 time=0
EXTRACT: note_on channel=11 note=65 velocity=92 time=0
EXTRACT: note_on channel=15 note=34 velocity=92 time=0
EXTRACT: note_on channel=0 note=79 velocity=0 time=0.0347221875
EXTRACT: note_on channel=0 note=77 velocity=127 time=0.0069444375
EXTRACT: note_on channel=9 note=35 velocity=0 time=0.0347221875
EXTRACT: note_on channel=9 note=46 velocity=0 time=0
EXTRACT: note_on channel=7 note=60 velocity=0 time=0.08333325
EXTRACT: note_on channel=9 note=54 velocity=0 time=0
EXTRACT: note_on channel=11 note=53 velocity=0 time=0
EXTRACT: note_on channel=11 note=58 velocity=0 time=0
EXTRACT: note_on channel=11 note=62 velocity=0 time=0
EXTRACT: note_on channel=11 note=65 velocity=0 time=0
EXTRACT: note_on channel=7 note=62 velocity=92 time=0.0069444375
EXTRACT: note_on channel=9 note=54 velocity=92 time=0
EXTRACT: note_on channel=11 note=53 velocity=92 time=0
EXTRACT: note_on channel=11 note=58 velocity=92 time=0
EXTRACT: note_on channel=11 note=62 velocity=92 time=0
EXTRACT: note_on channel=11 note=65 velocity=92 time=0
EXTRACT: note_on channel=9 note=54 velocity=0 time=0.0347221875
EXTRACT: note_on channel=9 note=82 velocity=92 time=0.0069444375
EXTRACT: note_on channel=0 note=77 velocity=0 time=0.1180554375
EXTRACT: note_on channel=7 note=62 velocity=0 time=0
EXTRACT: note_on channel=9 note=82 velocity=0 time=0
EXTRACT: note_on channel=11 note=53 velocity=0 time=0
EXTRACT: note_on channel=11 note=58 velocity=0 time=0
EXTRACT: note_on channel=11 note=62 velocity=0 time=0
EXTRACT: note_on channel=11 note=65 velocity=0 time=0
EXTRACT: note_on channel=0 note=77 velocity=127 time=0.0069444375
EXTRACT: note_on channel=3 note=57 velocity=92 time=0
EXTRACT: note_on channel=7 note=58 velocity=92 time=0
EXTRACT: note_on channel=9 note=54 velocity=92 time=0
EXTRACT: note_on channel=9 note=82 velocity=92 time=0
EXTRACT: note_on channel=9 note=40 velocity=92 time=0
EXTRACT: note_on channel=9 note=42 velocity=92 time=0
EXTRACT: note_on channel=11 note=53 velocity=92 time=0
EXTRACT: note_on channel=11 note=58 velocity=92 time=0
EXTRACT: note_on channel=11 note=62 velocity=92 time=0
EXTRACT: note_on channel=11 note=65 velocity=92 time=0
EXTRACT: note_on channel=9 note=40 velocity=0 time=0.0763888125
EXTRACT: note_on channel=9 note=42 velocity=0 time=0
EXTRACT: note_on channel=5 note=53 velocity=0 time=0.08333325
EXTRACT: note_on channel=5 note=58 velocity=0 time=0
EXTRACT: note_on channel=5 note=62 velocity=0 time=0
EXTRACT: note_on channel=5 note=46 velocity=0 time=0
EXTRACT: note_on channel=7 note=58 velocity=0 time=0
EXTRACT: note_on channel=9 note=54 velocity=0 time=0
EXTRACT: note_on channel=9 note=82 velocity=0 time=0
EXTRACT: note_on channel=15 note=34 velocity=0 time=0
EXTRACT: note_on channel=7 note=60 velocity=92 time=0.0069444375
EXTRACT: note_on channel=9 note=54 velocity=92 time=0
EXTRACT: note_on channel=0 note=77 velocity=0 time=0.0347221875
EXTRACT: note_on channel=9 note=54 velocity=0 time=0
EXTRACT: note_on channel=0 note=75 velocity=127 time=0.0069444375
EXTRACT: note_on channel=9 note=82 velocity=92 time=0
EXTRACT: note_on channel=0 note=75 velocity=0 time=0.1180554375
EXTRACT: note_on channel=7 note=60 velocity=0 time=0
EXTRACT: note_on channel=9 note=82 velocity=0 time=0
EXTRACT: note_on channel=11 note=53 velocity=0 time=0
EXTRACT: note_on channel=11 note=58 velocity=0 time=0
EXTRACT: note_on channel=11 note=62 velocity=0 time=0
EXTRACT: note_on channel=11 note=65 velocity=0 time=0
EXTRACT: note_on channel=0 note=74 velocity=127 time=0.0069444375
EXTRACT: note_on channel=7 note=62 velocity=92 time=0
EXTRACT: note_on channel=9 note=54 velocity=92 time=0
EXTRACT: note_on channel=9 note=82 velocity=92 time=0
EXTRACT: note_on channel=9 note=42 velocity=92 time=0
EXTRACT: note_on channel=11 note=53 velocity=92 time=0
EXTRACT: note_on channel=11 note=58 velocity=92 time=0
EXTRACT: note_on channel=11 note=62 velocity=92 time=0
EXTRACT: note_on channel=11 note=65 velocity=92 time=0
EXTRACT: note_on channel=15 note=34 velocity=92 time=0
EXTRACT: note_on channel=9 note=42 velocity=0 time=0.0763888125
EXTRACT: note_on channel=0 note=74 velocity=0 time=0.08333325
EXTRACT: note_on channel=9 note=54 velocity=0 time=0
EXTRACT: note_on channel=9 note=82 velocity=0 time=0
EXTRACT: note_on channel=0 note=75 velocity=127 time=0.0069444375
EXTRACT: note_on channel=9 note=54 velocity=92 time=0
EXTRACT: note_on channel=12 note=70 velocity=0 time=0
EXTRACT: note_on channel=12 note=77 velocity=0 time=0
EXTRACT: note_on channel=9 note=54 velocity=0 time=0.0347221875
EXTRACT: note_on channel=9 note=82 velocity=92 time=0.0069444375
EXTRACT: note_on channel=3 note=57 velocity=0 time=0.013888875
EXTRACT: note_on channel=13 note=75 velocity=0 time=0.0624999375
EXTRACT: note_on channel=13 note=70 velocity=92 time=0.0069444375
EXTRACT: note_on channel=0 note=75 velocity=0 time=0.0347221875
EXTRACT: note_on channel=7 note=62 velocity=0 time=0
EXTRACT: note_on channel=9 note=82 velocity=0 time=0
EXTRACT: note_on channel=11 note=53 velocity=0 time=0
EXTRACT: note_on channel=11 note=58 velocity=0 time=0
EXTRACT: note_on channel=11 note=62 velocity=0 time=0
EXTRACT: note_on channel=11 note=65 velocity=0 time=0
EXTRACT: note_on channel=15 note=34 velocity=0 time=0
EXTRACT: note_on channel=3 note=53 velocity=92 time=0.0069444375
EXTRACT: note_on channel=3 note=60 velocity=92 time=0
EXTRACT: note_on channel=5 note=53 velocity=92 time=0
EXTRACT: note_on channel=5 note=57 velocity=92 time=0
EXTRACT: note_on channel=5 note=60 velocity=92 time=0
EXTRACT: note_on channel=5 note=41 velocity=92 time=0
EXTRACT: note_on channel=9 note=54 velocity=92 time=0
EXTRACT: note_on channel=9 note=82 velocity=92 time=0
EXTRACT: note_on channel=9 note=35 velocity=92 time=0
EXTRACT: note_on channel=9 note=42 velocity=92 time=0
EXTRACT: note_on channel=11 note=53 velocity=92 time=0
EXTRACT: note_on channel=11 note=57 velocity=92 time=0
EXTRACT: note_on channel=11 note=60 velocity=92 time=0
EXTRACT: note_on channel=11 note=65 velocity=92 time=0
EXTRACT: note_on channel=12 note=69 velocity=92 time=0
EXTRACT: note_on channel=15 note=29 velocity=92 time=0
EXTRACT: note_on channel=0 note=75 velocity=127 time=0.041666625
EXTRACT: note_on channel=7 note=58 velocity=92 time=0
EXTRACT: note_on channel=9 note=35 velocity=0 time=0.0347221875
EXTRACT: note_on channel=9 note=42 velocity=0 time=0
EXTRACT: note_on channel=9 note=54 velocity=0 time=0.08333325
EXTRACT: note_on channel=9 note=82 velocity=0 time=0
EXTRACT: note_on channel=11 note=53 velocity=0 time=0
EXTRACT: note_on channel=11 note=57 velocity=0 time=0
EXTRACT: note_on channel=11 note=60 velocity=0 time=0
EXTRACT: note_on channel=11 note=65 velocity=0 time=0
EXTRACT: note_on channel=9 note=54 velocity=92 time=0.0069444375
EXTRACT: note_on channel=7 note=58 velocity=0 time=0.0347221875
EXTRACT: note_on channel=9 note=54 velocity=0 time=0
EXTRACT: note_on channel=7 note=60 velocity=92 time=0.0069444375
EXTRACT: note_on channel=9 note=82 velocity=92 time=0
EXTRACT: note_on channel=7 note=60 velocity=0 time=0.1180554375
EXTRACT: note_on channel=9 note=82 velocity=0 time=0
EXTRACT: note_on channel=7 note=62 velocity=92 time=0.0069444375
EXTRACT: note_on channel=9 note=54 velocity=92 time=0
EXTRACT: note_on channel=9 note=82 velocity=92 time=0
EXTRACT: note_on channel=9 note=42 velocity=92 time=0
EXTRACT: note_on channel=11 note=53 velocity=92 time=0
EXTRACT: note_on channel=11 note=57 velocity=92 time=0
EXTRACT: note_on channel=11 note=60 velocity=92 time=0
EXTRACT: note_on channel=11 note=65 velocity=92 time=0
EXTRACT: note_on channel=0 note=75 velocity=0 time=0.0763888125
EXTRACT: note_on channel=9 note=42 velocity=0 time=0
EXTRACT: note_on channel=0 note=74 velocity=127 time=0.0069444375
EXTRACT: note_on channel=11 note=53 velocity=0 time=0.0347221875
EXTRACT: note_on channel=11 note=57 velocity=0 time=0
EXTRACT: note_on channel=11 note=60 velocity=0 time=0
EXTRACT: note_on channel=11 note=65 velocity=0 time=0
EXTRACT: note_on channel=7 note=62 velocity=0 time=0.041666625
EXTRACT: note_on channel=9 note=54 velocity=0 time=0
EXTRACT: note_on channel=9 note=82 velocity=0 time=0
EXTRACT: note_on channel=7 note=58 velocity=92 time=0.0069444375
EXTRACT: note_on channel=9 note=54 velocity=92 time=0
EXTRACT: note_on channel=9 note=54 velocity=0 time=0.0347221875
EXTRACT: note_on channel=9 note=82 velocity=92 time=0.0069444375
EXTRACT: note_on channel=7 note=58 velocity=0 time=0.1180554375
EXTRACT: note_on channel=9 note=82 velocity=0 time=0
EXTRACT: note_on channel=7 note=60 velocity=92 time=0.0069444375
EXTRACT: note_on channel=9 note=54 velocity=92 time=0
EXTRACT: note_on channel=9 note=82 velocity=92 time=0
EXTRACT: note_on channel=9 note=40 velocity=92 time=0
EXTRACT: note_on channel=9 note=42 velocity=92 time=0
EXTRACT: note_on channel=11 note=53 velocity=92 time=0
EXTRACT: note_on channel=11 note=57 velocity=92 time=0
EXTRACT: note_on channel=11 note=60 velocity=92 time=0
EXTRACT: note_on channel=11 note=65 velocity=92 time=0
EXTRACT: note_on channel=9 note=40 velocity=0 time=0.0763888125
EXTRACT: note_on channel=9 note=42 velocity=0 time=0
EXTRACT: note_on channel=7 note=60 velocity=0 time=0.08333325
EXTRACT: note_on channel=9 note=54 velocity=0 time=0
EXTRACT: note_on channel=9 note=82 velocity=0 time=0
EXTRACT: note_on channel=7 note=62 velocity=92 time=0.0069444375
EXTRACT: note_on channel=9 note=54 velocity=92 time=0
EXTRACT: note_on channel=9 note=54 velocity=0 time=0.0347221875
EXTRACT: note_on channel=9 note=82 velocity=92 time=0.0069444375
EXTRACT: note_on channel=7 note=62 velocity=0 time=0.1180554375
EXTRACT: note_on channel=9 note=82 velocity=0 time=0
EXTRACT: note_on channel=11 note=53 velocity=0 time=0
EXTRACT: note_on channel=11 note=57 velocity=0 time=0
EXTRACT: note_on channel=11 note=60 velocity=0 time=0
EXTRACT: note_on channel=11 note=65 velocity=0 time=0
EXTRACT: note_on channel=7 note=58 velocity=92 time=0.0069444375
EXTRACT: note_on channel=8 note=58 velocity=92 time=0
EXTRACT: note_on channel=9 note=54 velocity=92 time=0
EXTRACT: note_on channel=9 note=82 velocity=92 time=0
EXTRACT: note_on channel=9 note=42 velocity=92 time=0
EXTRACT: note_on channel=9 note=42 velocity=0 time=0.0763888125
EXTRACT: note_on channel=0 note=74 velocity=0 time=0.041666625
EXTRACT: note_on channel=7 note=58 velocity=0 time=0.041666625
EXTRACT: note_on channel=8 note=58 velocity=0 time=0
EXTRACT: note_on channel=9 note=54 velocity=0 time=0
EXTRACT: note_on channel=9 note=82 velocity=0 time=0
EXTRACT: note_on channel=15 note=29 velocity=0 time=0
EXTRACT: note_on channel=7 note=60 velocity=92 time=0.0069444375
EXTRACT: note_on channel=8 note=60 velocity=92 time=0
EXTRACT: note_on channel=9 note=54 velocity=92 time=0
EXTRACT: note_on channel=11 note=53 velocity=92 time=0
EXTRACT: note_on channel=11 note=57 velocity=92 time=0
EXTRACT: note_on channel=11 note=60 velocity=92 time=0
EXTRACT: note_on channel=11 note=65 velocity=92 time=0
EXTRACT: note_on channel=15 note=29 velocity=92 time=0
EXTRACT: note_on channel=9 note=54 velocity=0 time=0.0347221875
EXTRACT: note_on channel=9 note=82 velocity=92 time=0.0069444375
EXTRACT: note_on channel=7 note=60 velocity=0 time=0.1180554375
EXTRACT: note_on channel=8 note=60 velocity=0 time=0
EXTRACT: note_on channel=9 note=82 velocity=0 time=0
EXTRACT: note_on channel=11 note=53 velocity=0 time=0
EXTRACT: note_on channel=11 note=57 velocity=0 time=0
EXTRACT: note_on channel=11 note=60 velocity=0 time=0
EXTRACT: note_on channel=11 note=65 velocity=0 time=0
EXTRACT: note_on channel=15 note=29 velocity=0 time=0
EXTRACT: note_on channel=7 note=62 velocity=92 time=0.0069444375
EXTRACT: note_on channel=8 note=62 velocity=92 time=0
EXTRACT: note_on channel=9 note=54 velocity=92 time=0
EXTRACT: note_on channel=9 note=35 velocity=92 time=0
EXTRACT: note_on channel=9 note=42 velocity=92 time=0
EXTRACT: note_on channel=11 note=53 velocity=92 time=0
EXTRACT: note_on channel=11 note=57 velocity=92 time=0
EXTRACT: note_on channel=11 note=60 velocity=92 time=0
EXTRACT: note_on channel=11 note=65 velocity=92 time=0
EXTRACT: note_on channel=15 note=29 velocity=92 time=0
EXTRACT: note_on channel=9 note=35 velocity=0 time=0.0763888125
EXTRACT: note_on channel=9 note=42 velocity=0 time=0
EXTRACT: note_on channel=15 note=29 velocity=0 time=0.041666625
EXTRACT: note_on channel=7 note=62 velocity=0 time=0.041666625
EXTRACT: note_on channel=8 note=62 velocity=0 time=0
EXTRACT: note_on channel=9 note=54 velocity=0 time=0
EXTRACT: note_on channel=11 note=53 velocity=0 time=0
EXTRACT: note_on channel=11 note=57 velocity=0 time=0
EXTRACT: note_on channel=11 note=60 velocity=0 time=0
EXTRACT: note_on channel=11 note=65 velocity=0 time=0
EXTRACT: note_on channel=0 note=74 velocity=127 time=0.0069444375
EXTRACT: note_on channel=7 note=58 velocity=92 time=0
EXTRACT: note_on channel=8 note=58 velocity=92 time=0
EXTRACT: note_on channel=9 note=54 velocity=92 time=0
EXTRACT: note_on channel=11 note=53 velocity=92 time=0
EXTRACT: note_on channel=11 note=57 velocity=92 time=0
EXTRACT: note_on channel=11 note=60 velocity=92 time=0
EXTRACT: note_on channel=11 note=65 velocity=92 time=0
EXTRACT: note_on channel=9 note=54 velocity=0 time=0.0347221875
EXTRACT: note_on channel=9 note=82 velocity=92 time=0.0069444375
EXTRACT: note_on channel=7 note=58 velocity=0 time=0.1180554375
EXTRACT: note_on channel=8 note=58 velocity=0 time=0
EXTRACT: note_on channel=9 note=82 velocity=0 time=0
EXTRACT: note_on channel=11 note=53 velocity=0 time=0
EXTRACT: note_on channel=11 note=57 velocity=0 time=0
EXTRACT: note_on channel=11 note=60 velocity=0 time=0
EXTRACT: note_on channel=11 note=65 velocity=0 time=0
EXTRACT: note_on channel=7 note=60 velocity=92 time=0.0069444375
EXTRACT: note_on channel=8 note=60 velocity=92 time=0
EXTRACT: note_on channel=9 note=54 velocity=92 time=0
EXTRACT: note_on channel=9 note=35 velocity=92 time=0
EXTRACT: note_on channel=9 note=46 velocity=92 time=0
EXTRACT: note_on channel=11 note=53 velocity=92 time=0
EXTRACT: note_on channel=11 note=57 velocity=92 time=0
EXTRACT: note_on channel=11 note=60 velocity=92 time=0
EXTRACT: note_on channel=11 note=65 velocity=92 time=0
EXTRACT: note_on channel=15 note=29 velocity=92 time=0
EXTRACT: note_on channel=0 note=74 velocity=0 time=0.0763888125
EXTRACT: note_on channel=9 note=35 velocity=0 time=0
EXTRACT: note_on channel=9 note=46 velocity=0 time=0
EXTRACT: note_on channel=0 note=74 velocity=127 time=0.0069444375
EXTRACT: note_on channel=7 note=60 velocity=0 time=0.0763888125
EXTRACT: note_on channel=8 note=60 velocity=0 time=0
EXTRACT: note_on channel=9 note=54 velocity=0 time=0
EXTRACT: note_on channel=11 note=53 velocity=0 time=0
EXTRACT: note_on channel=11 note=57 velocity=0 time=0
EXTRACT: note_on channel=11 note=60 velocity=0 time=0
EXTRACT: note_on channel=11 note=65 velocity=0 time=0
EXTRACT: note_on channel=15 note=29 velocity=0 time=0
EXTRACT: note_on channel=7 note=62 velocity=92 time=0.0069444375
EXTRACT: note_on channel=8 note=62 velocity=92 time=0
EXTRACT: note_on channel=9 note=54 velocity=92 time=0
EXTRACT: note_on channel=11 note=53 velocity=92 time=0
EXTRACT: note_on channel=11 note=57 velocity=92 time=0
EXTRACT: note_on channel=11 note=60 velocity=92 time=0
EXTRACT: note_on channel=11 note=65 velocity=92 time=0
EXTRACT: note_on channel=9 note=54 velocity=0 time=0.0347221875
EXTRACT: note_on channel=9 note=82 velocity=92 time=0.0069444375
EXTRACT: note_on channel=0 note=74 velocity=0 time=0.0763888125
EXTRACT: note_on channel=0 note=74 velocity=127 time=0.0069444375
EXTRACT: note_on channel=7 note=62 velocity=0 time=0.0347221875
EXTRACT: note_on channel=8 note=62 velocity=0 time=0
EXTRACT: note_on channel=9 note=82 velocity=0 time=0
EXTRACT: note_on channel=11 note=53 velocity=0 time=0
EXTRACT: note_on channel=11 note=57 velocity=0 time=0
EXTRACT: note_on channel=11 note=60 velocity=0 time=0
EXTRACT: note_on channel=11 note=65 velocity=0 time=0
EXTRACT: note_on channel=7 note=58 velocity=92 time=0.0069444375
EXTRACT: note_on channel=8 note=58 velocity=92 time=0
EXTRACT: note_on channel=9 note=54 velocity=92 time=0
EXTRACT: note_on channel=9 note=82 velocity=92 time=0
EXTRACT: note_on channel=9 note=40 velocity=92 time=0
EXTRACT: note_on channel=9 note=42 velocity=92 time=0
EXTRACT: note_on channel=11 note=53 velocity=92 time=0
EXTRACT: note_on channel=11 note=57 velocity=92 time=0
EXTRACT: note_on channel=11 note=60 velocity=92 time=0
EXTRACT: note_on channel=11 note=65 velocity=92 time=0
EXTRACT: note_on channel=15 note=29 velocity=92 time=0
EXTRACT: note_on channel=5 note=53 velocity=0 time=0.0763888125
EXTRACT: note_on channel=5 note=57 velocity=0 time=0
EXTRACT: note_on channel=5 note=60 velocity=0 time=0
EXTRACT: note_on channel=9 note=40 velocity=0 time=0
EXTRACT: note_on channel=9 note=42 velocity=0 time=0
EXTRACT: note_on channel=5 note=41 velocity=0 time=0.08333325
EXTRACT: note_on channel=7 note=58 velocity=0 time=0
EXTRACT: note_on channel=8 note=58 velocity=0 time=0
EXTRACT: note_on channel=9 note=54 velocity=0 time=0
EXTRACT: note_on channel=9 note=82 velocity=0 time=0
EXTRACT: note_on channel=12 note=69 velocity=0 time=0
EXTRACT: note_on channel=15 note=29 velocity=0 time=0
EXTRACT: note_on channel=7 note=60 velocity=92 time=0.0069444375
EXTRACT: note_on channel=8 note=60 velocity=92 time=0
EXTRACT: note_on channel=9 note=54 velocity=92 time=0
EXTRACT: note_on channel=15 note=31 velocity=92 time=0
EXTRACT: note_on channel=9 note=54 velocity=0 time=0.0347221875
EXTRACT: note_on channel=9 note=82 velocity=92 time=0.0069444375
EXTRACT: note_on channel=0 note=74 velocity=0 time=0.1180554375
EXTRACT: note_on channel=7 note=60 velocity=0 time=0
EXTRACT: note_on channel=8 note=60 velocity=0 time=0
EXTRACT: note_on channel=9 note=82 velocity=0 time=0
EXTRACT: note_on channel=11 note=53 velocity=0 time=0
EXTRACT: note_on channel=11 note=57 velocity=0 time=0
EXTRACT: note_on channel=11 note=60 velocity=0 time=0
EXTRACT: note_on channel=11 note=65 velocity=0 time=0
EXTRACT: note_on channel=15 note=31 velocity=0 time=0
EXTRACT: note_on channel=0 note=72 velocity=127 time=0.0069444375
EXTRACT: note_on channel=7 note=62 velocity=92 time=0
EXTRACT: note_on channel=8 note=62 velocity=92 time=0
EXTRACT: note_on channel=9 note=54 velocity=92 time=0
EXTRACT: note_on channel=9 note=82 velocity=92 time=0
EXTRACT: note_on channel=9 note=46 velocity=92 time=0
EXTRACT: note_on channel=11 note=53 velocity=92 time=0
EXTRACT: note_on channel=11 note=57 velocity=92 time=0
EXTRACT: note_on channel=11 note=60 velocity=92 time=0
EXTRACT: note_on channel=11 note=65 velocity=92 time=0
EXTRACT: note_on channel=15 note=34 velocity=92 time=0
EXTRACT: note_on channel=9 note=46 velocity=0 time=0.0763888125
EXTRACT: note_on channel=0 note=72 velocity=0 time=0.08333325
EXTRACT: note_on channel=9 note=54 velocity=0 time=0
EXTRACT: note_on channel=9 note=82 velocity=0 time=0
EXTRACT: note_on channel=0 note=70 velocity=127 time=0.0069444375
EXTRACT: note_on channel=3 note=53 velocity=0 time=0
EXTRACT: note_on channel=3 note=60 velocity=0 time=0
EXTRACT: note_on channel=9 note=54 velocity=92 time=0
EXTRACT: note_on channel=13 note=70 velocity=0 time=0
EXTRACT: note_on channel=9 note=54 velocity=0 time=0.0347221875
EXTRACT: note_on channel=9 note=82 velocity=92 time=0.0069444375
EXTRACT: note_on channel=0 note=70 velocity=0 time=0.1180554375
EXTRACT: note_on channel=7 note=62 velocity=0 time=0
EXTRACT: note_on channel=8 note=62 velocity=0 time=0
EXTRACT: note_on channel=9 note=82 velocity=0 time=0
EXTRACT: note_on channel=11 note=53 velocity=0 time=0
EXTRACT: note_on channel=11 note=57 velocity=0 time=0
EXTRACT: note_on channel=11 note=60 velocity=0 time=0
EXTRACT: note_on channel=11 note=65 velocity=0 time=0
EXTRACT: note_on channel=15 note=34 velocity=0 time=0
EXTRACT: note_on channel=3 note=63 velocity=92 time=0.0069444375
EXTRACT: note_on channel=3 note=67 velocity=92 time=0
EXTRACT: note_on channel=5 note=55 velocity=92 time=0
EXTRACT: note_on channel=5 note=60 velocity=92 time=0
EXTRACT: note_on channel=5 note=63 velocity=92 time=0
EXTRACT: note_on channel=5 note=48 velocity=92 time=0
EXTRACT: note_on channel=9 note=54 velocity=92 time=0
EXTRACT: note_on channel=9 note=82 velocity=92 time=0
EXTRACT: note_on channel=9 note=35 velocity=92 time=0
EXTRACT: note_on channel=9 note=42 velocity=92 time=0
EXTRACT: note_on channel=11 note=55 velocity=92 time=0
EXTRACT: note_on channel=11 note=60 velocity=92 time=0
EXTRACT: note_on channel=11 note=63 velocity=92 time=0
EXTRACT: note_on channel=11 note=67 velocity=92 time=0
EXTRACT: note_on channel=12 note=67 velocity=92 time=0
EXTRACT: note_on channel=12 note=75 velocity=92 time=0
EXTRACT: note_on channel=13 note=65 velocity=92 time=0
EXTRACT: note_on channel=15 note=36 velocity=92 time=0
EXTRACT: note_on channel=0 note=70 velocity=127 time=0.041666625
EXTRACT: note_on channel=7 note=58 velocity=92 time=0
EXTRACT: note_on channel=8 note=58 velocity=92 time=0
EXTRACT: note_on channel=9 note=35 velocity=0 time=0.0347221875
EXTRACT: note_on channel=9 note=42 velocity=0 time=0
EXTRACT: note_on channel=9 note=54 velocity=0 time=0.08333325
EXTRACT: note_on channel=9 note=82 velocity=0 time=0
EXTRACT: note_on channel=11 note=55 velocity=0 time=0
EXTRACT: note_on channel=11 note=60 velocity=0 time=0
EXTRACT: note_on channel=11 note=63 velocity=0 time=0
EXTRACT: note_on channel=11 note=67 velocity=0 time=0
EXTRACT: note_on channel=9 note=54 velocity=92 time=0.0069444375
EXTRACT: note_on channel=7 note=58 velocity=0 time=0.0347221875
EXTRACT: note_on channel=8 note=58 velocity=0 time=0
EXTRACT: note_on channel=9 note=54 velocity=0 time=0
EXTRACT: note_on channel=7 note=60 velocity=92 time=0.0069444375
EXTRACT: note_on channel=8 note=60 velocity=92 time=0
EXTRACT: note_on channel=9 note=82 velocity=92 time=0
EXTRACT: note_on channel=7 note=60 velocity=0 time=0.1180554375
EXTRACT: note_on channel=8 note=60 velocity=0 time=0
EXTRACT: note_on channel=9 note=82 velocity=0 time=0
EXTRACT: note_on channel=7 note=62 velocity=92 time=0.0069444375
EXTRACT: note_on channel=8 note=62 velocity=92 time=0
EXTRACT: note_on channel=9 note=54 velocity=92 time=0
EXTRACT: note_on channel=9 note=82 velocity=92 time=0
EXTRACT: note_on channel=9 note=42 velocity=92 time=0
EXTRACT: note_on channel=11 note=55 velocity=92 time=0
EXTRACT: note_on channel=11 note=60 velocity=92 time=0
EXTRACT: note_on channel=11 note=63 velocity=92 time=0
EXTRACT: note_on channel=11 note=67 velocity=92 time=0
EXTRACT: note_on channel=0 note=70 velocity=0 time=0.0763888125
EXTRACT: note_on channel=9 note=42 velocity=0 time=0
EXTRACT: note_on channel=0 note=72 velocity=127 time=0.0069444375
EXTRACT: note_on channel=11 note=55 velocity=0 time=0.0347221875
EXTRACT: note_on channel=11 note=60 velocity=0 time=0
EXTRACT: note_on channel=11 note=63 velocity=0 time=0
EXTRACT: note_on channel=11 note=67 velocity=0 time=0
EXTRACT: note_on channel=7 note=62 velocity=0 time=0.041666625
EXTRACT: note_on channel=8 note=62 velocity=0 time=0
EXTRACT: note_on channel=9 note=54 velocity=0 time=0
EXTRACT: note_on channel=9 note=82 velocity=0 time=0
EXTRACT: note_on channel=7 note=58 velocity=92 time=0.0069444375
EXTRACT: note_on channel=8 note=58 velocity=92 time=0
EXTRACT: note_on channel=9 note=54 velocity=92 time=0
EXTRACT: note_on channel=9 note=54 velocity=0 time=0.0347221875
EXTRACT: note_on channel=9 note=82 velocity=92 time=0.0069444375
EXTRACT: note_on channel=7 note=58 velocity=0 time=0.1180554375
EXTRACT: note_on channel=8 note=58 velocity=0 time=0
EXTRACT: note_on channel=9 note=82 velocity=0 time=0
EXTRACT: note_on channel=7 note=60 velocity=92 time=0.0069444375
EXTRACT: note_on channel=8 note=60 velocity=92 time=0
EXTRACT: note_on channel=9 note=54 velocity=92 time=0
EXTRACT: note_on channel=9 note=82 velocity=92 time=0
EXTRACT: note_on channel=9 note=40 velocity=92 time=0
EXTRACT: note_on channel=9 note=42 velocity=92 time=0
EXTRACT: note_on channel=11 note=55 velocity=92 time=0
EXTRACT: note_on channel=11 note=60 velocity=92 time=0
EXTRACT: note_on channel=11 note=63 velocity=92 time=0
EXTRACT: note_on channel=11 note=67 velocity=92 time=0
EXTRACT: note_on channel=9 note=40 velocity=0 time=0.0763888125
EXTRACT: note_on channel=9 note=42 velocity=0 time=0
EXTRACT: note_on channel=7 note=60 velocity=0 time=0.08333325
EXTRACT: note_on channel=8 note=60 velocity=0 time=0
EXTRACT: note_on channel=9 note=54 velocity=0 time=0
EXTRACT: note_on channel=9 note=82 velocity=0 time=0
EXTRACT: note_on channel=7 note=62 velocity=92 time=0.0069444375
EXTRACT: note_on channel=8 note=62 velocity=92 time=0
EXTRACT: note_on channel=9 note=54 velocity=92 time=0
EXTRACT: note_on channel=9 note=54 velocity=0 time=0.0347221875
EXTRACT: note_on channel=9 note=82 velocity=92 time=0.0069444375
EXTRACT: note_on channel=15 note=36 velocity=0 time=0.013888875
EXTRACT: note_on channel=7 note=62 velocity=0 time=0.1041665625
EXTRACT: note_on channel=8 note=62 velocity=0 time=0
EXTRACT: note_on channel=9 note=82 velocity=0 time=0
EXTRACT: note_on channel=11 note=55 velocity=0 time=0
EXTRACT: note_on channel=11 note=60 velocity=0 time=0
EXTRACT: note_on channel=11 note=63 velocity=0 time=0
EXTRACT: note_on channel=11 note=67 velocity=0 time=0
EXTRACT: note_on channel=7 note=58 velocity=92 time=0.0069444375
EXTRACT: note_on channel=8 note=58 velocity=92 time=0
EXTRACT: note_on channel=9 note=54 velocity=92 time=0
EXTRACT: note_on channel=9 note=82 velocity=92 time=0
EXTRACT: note_on channel=9 note=42 velocity=92 time=0
EXTRACT: note_on channel=9 note=42 velocity=0 time=0.0763888125
EXTRACT: note_on channel=7 note=58 velocity=0 time=0.08333325
EXTRACT: note_on channel=8 note=58 velocity=0 time=0
EXTRACT: note_on channel=9 note=54 velocity=0 time=0
EXTRACT: note_on channel=9 note=82 velocity=0 time=0
EXTRACT: note_on channel=7 note=60 velocity=92 time=0.0069444375
EXTRACT: note_on channel=8 note=60 velocity=92 time=0
EXTRACT: note_on channel=9 note=54 velocity=92 time=0
EXTRACT: note_on channel=11 note=55 velocity=92 time=0
EXTRACT: note_on channel=11 note=60 velocity=92 time=0
EXTRACT: note_on channel=11 note=63 velocity=92 time=0
EXTRACT: note_on channel=11 note=67 velocity=92 time=0
EXTRACT: note_on channel=15 note=36 velocity=92 time=0
EXTRACT: note_on channel=9 note=54 velocity=0 time=0.0347221875
EXTRACT: note_on channel=9 note=82 velocity=92 time=0.0069444375
EXTRACT: note_on channel=0 note=72 velocity=0 time=0.013888875
EXTRACT: note_on channel=7 note=60 velocity=0 time=0.1041665625
EXTRACT: note_on channel=8 note=60 velocity=0 time=0
EXTRACT: note_on channel=9 note=82 velocity=0 time=0
EXTRACT: note_on channel=11 note=55 velocity=0 time=0
EXTRACT: note_on channel=11 note=60 velocity=0 time=0
EXTRACT: note_on channel=11 note=63 velocity=0 time=0
EXTRACT: note_on channel=11 note=67 velocity=0 time=0
EXTRACT: note_on channel=15 note=36 velocity=0 time=0
EXTRACT: note_on channel=7 note=62 velocity=92 time=0.0069444375
EXTRACT: note_on channel=8 note=62 velocity=92 time=0
EXTRACT: note_on channel=9 note=54 velocity=92 time=0
EXTRACT: note_on channel=9 note=35 velocity=92 time=0
EXTRACT: note_on channel=9 note=42 velocity=92 time=0
EXTRACT: note_on channel=11 note=55 velocity=92 time=0
EXTRACT: note_on channel=11 note=60 velocity=92 time=0
EXTRACT: note_on channel=11 note=63 velocity=92 time=0
EXTRACT: note_on channel=11 note=67 velocity=92 time=0
EXTRACT: note_on channel=15 note=36 velocity=92 time=0
EXTRACT: note_on channel=9 note=35 velocity=0 time=0.0763888125
EXTRACT: note_on channel=9 note=42 velocity=0 time=0
EXTRACT: note_on channel=15 note=36 velocity=0 time=0.041666625
EXTRACT: note_on channel=7 note=62 velocity=0 time=0.041666625
EXTRACT: note_on channel=9 note=54 velocity=0 time=0
EXTRACT: note_on channel=11 note=55 velocity=0 time=0
EXTRACT: note_on channel=11 note=60 velocity=0 time=0
EXTRACT: note_on channel=11 note=63 velocity=0 time=0
EXTRACT: note_on channel=11 note=67 velocity=0 time=0
EXTRACT: note_on channel=0 note=74 velocity=127 time=0.0069444375
EXTRACT: note_on channel=7 note=58 velocity=92 time=0
EXTRACT: note_on channel=9 note=54 velocity=92 time=0
EXTRACT: note_on channel=11 note=55 velocity=92 time=0
EXTRACT: note_on channel=11 note=60 velocity=92 time=0
EXTRACT: note_on channel=11 note=63 velocity=92 time=0
EXTRACT: note_on channel=11 note=67 velocity=92 time=0
EXTRACT: note_on channel=8 note=62 velocity=0 time=0.0347221875
EXTRACT: note_on channel=9 note=54 velocity=0 time=0
EXTRACT: note_on channel=9 note=82 velocity=92 time=0.0069444375
EXTRACT: note_on channel=7 note=58 velocity=0 time=0.1180554375
EXTRACT: note_on channel=9 note=82 velocity=0 time=0
EXTRACT: note_on channel=11 note=55 velocity=0 time=0
EXTRACT: note_on channel=11 note=60 velocity=0 time=0
EXTRACT: note_on channel=11 note=63 velocity=0 time=0
EXTRACT: note_on channel=11 note=67 velocity=0 time=0
EXTRACT: note_on channel=7 note=60 velocity=92 time=0.0069444375
EXTRACT: note_on channel=9 note=54 velocity=92 time=0
EXTRACT: note_on channel=9 note=35 velocity=92 time=0
EXTRACT: note_on channel=9 note=46 velocity=92 time=0
EXTRACT: note_on channel=11 note=55 velocity=92 time=0
EXTRACT: note_on channel=11 note=60 velocity=92 time=0
EXTRACT: note_on channel=11 note=63 velocity=92 time=0
EXTRACT: note_on channel=11 note=67 velocity=92 time=0
EXTRACT: note_on channel=15 note=36 velocity=92 time=0
EXTRACT: note_on channel=9 note=35 velocity=0 time=0.0763888125
EXTRACT: note_on channel=9 note=46 velocity=0 time=0
EXTRACT: note_on channel=7 note=60 velocity=0 time=0.08333325
EXTRACT: note_on channel=9 note=54 velocity=0 time=0
EXTRACT: note_on channel=11 note=55 velocity=0 time=0
EXTRACT: note_on channel=11 note=60 velocity=0 time=0
EXTRACT: note_on channel=11 note=63 velocity=0 time=0
EXTRACT: note_on channel=11 note=67 velocity=0 time=0
EXTRACT: note_on channel=7 note=62 velocity=92 time=0.0069444375
EXTRACT: note_on channel=9 note=54 velocity=92 time=0
EXTRACT: note_on channel=11 note=55 velocity=92 time=0
EXTRACT: note_on channel=11 note=60 velocity=92 time=0
EXTRACT: note_on channel=11 note=63 velocity=92 time=0
EXTRACT: note_on channel=11 note=67 velocity=92 time=0
EXTRACT: note_on channel=0 note=74 velocity=0 time=0.0347221875
EXTRACT: note_on channel=9 note=54 velocity=0 time=0
EXTRACT: note_on channel=0 note=74 velocity=127 time=0.0069444375
EXTRACT: note_on channel=9 note=82 velocity=92 time=0
EXTRACT: note_on channel=0 note=74 velocity=0 time=0.1180554375
EXTRACT: note_on channel=7 note=62 velocity=0 time=0
EXTRACT: note_on channel=9 note=82 velocity=0 time=0
EXTRACT: note_on channel=11 note=55 velocity=0 time=0
EXTRACT: note_on channel=11 note=60 velocity=0 time=0
EXTRACT: note_on channel=11 note=63 velocity=0 time=0
EXTRACT: note_on channel=11 note=67 velocity=0 time=0
EXTRACT: note_on channel=7 note=58 velocity=92 time=0.0069444375
EXTRACT: note_on channel=9 note=54 velocity=92 time=0
EXTRACT: note_on channel=9 note=82 velocity=92 time=0
EXTRACT: note_on channel=9 note=40 velocity=92 time=0
EXTRACT: note_on channel=9 note=42 velocity=92 time=0
EXTRACT: note_on channel=11 note=55 velocity=92 time=0
EXTRACT: note_on channel=11 note=60 velocity=92 time=0
EXTRACT: note_on channel=11 note=63 velocity=92 time=0
EXTRACT: note_on channel=11 note=67 velocity=92 time=0
EXTRACT: note_on channel=0 note=74 velocity=127 time=0.041666625
EXTRACT: note_on channel=9 note=40 velocity=0 time=0.0347221875
EXTRACT: note_on channel=9 note=42 velocity=0 time=0
EXTRACT: note_on channel=7 note=58 velocity=0 time=0.08333325
EXTRACT: note_on channel=9 note=54 velocity=0 time=0
EXTRACT: note_on channel=9 note=82 velocity=0 time=0
EXTRACT: note_on channel=7 note=60 velocity=92 time=0.0069444375
EXTRACT: note_on channel=9 note=54 velocity=92 time=0
EXTRACT: note_on channel=5 note=55 velocity=0 time=0.0347221875
EXTRACT: note_on channel=5 note=60 velocity=0 time=0
EXTRACT: note_on channel=5 note=63 velocity=0 time=0
EXTRACT: note_on channel=9 note=54 velocity=0 time=0
EXTRACT: note_on channel=9 note=82 velocity=92 time=0.0069444375
EXTRACT: note_on channel=5 note=48 velocity=0 time=0.0763888125
EXTRACT: note_on channel=7 note=60 velocity=0 time=0.041666625
EXTRACT: note_on channel=9 note=82 velocity=0 time=0
EXTRACT: note_on channel=11 note=55 velocity=0 time=0
EXTRACT: note_on channel=11 note=60 velocity=0 time=0
EXTRACT: note_on channel=11 note=63 velocity=0 time=0
EXTRACT: note_on channel=11 note=67 velocity=0 time=0
EXTRACT: note_on channel=15 note=36 velocity=0 time=0
EXTRACT: note_on channel=7 note=62 velocity=92 time=0.0069444375
EXTRACT: note_on channel=9 note=54 velocity=92 time=0
EXTRACT: note_on channel=9 note=82 velocity=92 time=0
EXTRACT: note_on channel=9 note=42 velocity=92 time=0
EXTRACT: note_on channel=11 note=55 velocity=92 time=0
EXTRACT: note_on channel=11 note=60 velocity=92 time=0
EXTRACT: note_on channel=11 note=63 velocity=92 time=0
EXTRACT: note_on channel=11 note=67 velocity=92 time=0
EXTRACT: note_on channel=15 note=38 velocity=92 time=0
EXTRACT: note_on channel=0 note=74 velocity=0 time=0.0763888125
EXTRACT: note_on channel=9 note=42 velocity=0 time=0
EXTRACT: note_on channel=0 note=72 velocity=127 time=0.0069444375
EXTRACT: note_on channel=9 note=54 velocity=0 time=0.0763888125
EXTRACT: note_on channel=9 note=82 velocity=0 time=0
EXTRACT: note_on channel=3 note=63 velocity=0 time=0.0069444375
EXTRACT: note_on channel=3 note=67 velocity=0 time=0
EXTRACT: note_on channel=9 note=54 velocity=92 time=0
EXTRACT: note_on channel=13 note=65 velocity=0 time=0
EXTRACT: note_on channel=0 note=72 velocity=0 time=0.0347221875
EXTRACT: note_on channel=9 note=54 velocity=0 time=0
EXTRACT: note_on channel=0 note=70 velocity=127 time=0.0069444375
EXTRACT: note_on channel=9 note=82 velocity=92 time=0
EXTRACT: note_on channel=0 note=70 velocity=0 time=0.1180554375
EXTRACT: note_on channel=7 note=62 velocity=0 time=0
EXTRACT: note_on channel=9 note=82 velocity=0 time=0
EXTRACT: note_on channel=11 note=55 velocity=0 time=0
EXTRACT: note_on channel=11 note=60 velocity=0 time=0
EXTRACT: note_on channel=11 note=63 velocity=0 time=0
EXTRACT: note_on channel=11 note=67 velocity=0 time=0
EXTRACT: note_on channel=15 note=38 velocity=0 time=0
EXTRACT: note_on channel=3 note=70 velocity=92 time=0.0069444375
EXTRACT: note_on channel=5 note=55 velocity=92 time=0
EXTRACT: note_on channel=5 note=58 velocity=92 time=0
EXTRACT: note_on channel=5 note=63 velocity=92 time=0
EXTRACT: note_on channel=5 note=51 velocity=92 time=0
EXTRACT: note_on channel=9 note=54 velocity=92 time=0
EXTRACT: note_on channel=9 note=82 velocity=92 time=0
EXTRACT: note_on channel=9 note=35 velocity=92 time=0
EXTRACT: note_on channel=9 note=42 velocity=92 time=0
EXTRACT: note_on channel=11 note=55 velocity=92 time=0
EXTRACT: note_on channel=11 note=58 velocity=92 time=0
EXTRACT: note_on channel=11 note=63 velocity=92 time=0
EXTRACT: note_on channel=11 note=67 velocity=92 time=0
EXTRACT: note_on channel=13 note=70 velocity=92 time=0
EXTRACT: note_on channel=15 note=39 velocity=92 time=0
EXTRACT: note_on channel=7 note=58 velocity=92 time=0.041666625
EXTRACT: note_on channel=8 note=58 velocity=92 time=0
EXTRACT: note_on channel=9 note=35 velocity=0 time=0.0347221875
EXTRACT: note_on channel=9 note=42 velocity=0 time=0
EXTRACT: note_on channel=0 note=70 velocity=127 time=0.0069444375
EXTRACT: note_on channel=9 note=54 velocity=0 time=0.0763888125
EXTRACT: note_on channel=9 note=82 velocity=0 time=0
EXTRACT: note_on channel=11 note=55 velocity=0 time=0
EXTRACT: note_on channel=11 note=58 velocity=0 time=0
EXTRACT: note_on channel=11 note=63 velocity=0 time=0
EXTRACT: note_on channel=11 note=67 velocity=0 time=0
EXTRACT: note_on channel=9 note=54 velocity=92 time=0.0069444375
EXTRACT: note_on channel=7 note=58 velocity=0 time=0.0347221875
EXTRACT: note_on channel=8 note=58 velocity=0 time=0
EXTRACT: note_on channel=9 note=54 velocity=0 time=0
EXTRACT: note_on channel=7 note=60 velocity=92 time=0.0069444375
EXTRACT: note_on channel=8 note=60 velocity=92 time=0
EXTRACT: note_on channel=9 note=82 velocity=92 time=0
EXTRACT: note_on channel=7 note=60 velocity=0 time=0.1180554375
EXTRACT: note_on channel=8 note=60 velocity=0 time=0
EXTRACT: note_on channel=9 note=82 velocity=0 time=0
EXTRACT: note_on channel=7 note=62 velocity=92 time=0.0069444375
EXTRACT: note_on channel=8 note=62 velocity=92 time=0
EXTRACT: note_on channel=9 note=54 velocity=92 time=0
EXTRACT: note_on channel=9 note=82 velocity=92 time=0
EXTRACT: note_on channel=9 note=42 velocity=92 time=0
EXTRACT: note_on channel=11 note=55 velocity=92 time=0
EXTRACT: note_on channel=11 note=58 velocity=92 time=0
EXTRACT: note_on channel=11 note=63 velocity=92 time=0
EXTRACT: note_on channel=11 note=67 velocity=92 time=0
EXTRACT: note_on channel=0 note=70 velocity=0 time=0.0763888125
EXTRACT: note_on channel=9 note=42 velocity=0 time=0
EXTRACT: note_on channel=0 note=67 velocity=127 time=0.0069444375
EXTRACT: note_on channel=11 note=55 velocity=0 time=0.0347221875
EXTRACT: note_on channel=11 note=58 velocity=0 time=0
EXTRACT: note_on channel=11 note=63 velocity=0 time=0
EXTRACT: note_on channel=11 note=67 velocity=0 time=0
EXTRACT: note_on channel=15 note=39 velocity=0 time=0
EXTRACT: note_on channel=7 note=62 velocity=0 time=0.041666625
EXTRACT: note_on channel=8 note=62 velocity=0 time=0
EXTRACT: note_on channel=9 note=54 velocity=0 time=0
EXTRACT: note_on channel=9 note=82 velocity=0 time=0
EXTRACT: note_on channel=7 note=58 velocity=92 time=0.0069444375
EXTRACT: note_on channel=8 note=58 velocity=92 time=0
EXTRACT: note_on channel=9 note=54 velocity=92 time=0
EXTRACT: note_on channel=9 note=54 velocity=0 time=0.0347221875
EXTRACT: note_on channel=9 note=82 velocity=92 time=0.0069444375
EXTRACT: note_on channel=7 note=58 velocity=0 time=0.1180554375
EXTRACT: note_on channel=8 note=58 velocity=0 time=0
EXTRACT: note_on channel=9 note=82 velocity=0 time=0
EXTRACT: note_on channel=7 note=60 velocity=92 time=0.0069444375
EXTRACT: note_on channel=8 note=60 velocity=92 time=0
EXTRACT: note_on channel=9 note=54 velocity=92 time=0
EXTRACT: note_on channel=9 note=82 velocity=92 time=0
EXTRACT: note_on channel=9 note=40 velocity=92 time=0
EXTRACT: note_on channel=9 note=42 velocity=92 time=0
EXTRACT: note_on channel=11 note=55 velocity=92 time=0
EXTRACT: note_on channel=11 note=58 velocity=92 time=0
EXTRACT: note_on channel=11 note=63 velocity=92 time=0
EXTRACT: note_on channel=11 note=67 velocity=92 time=0
EXTRACT: note_on channel=15 note=39 velocity=92 time=0
EXTRACT: note_on channel=9 note=40 velocity=0 time=0.0763888125
EXTRACT: note_on channel=9 note=42 velocity=0 time=0
EXTRACT: note_on channel=7 note=60 velocity=0 time=0.08333325
EXTRACT: note_on channel=8 note=60 velocity=0 time=0
EXTRACT: note_on channel=9 note=54 velocity=0 time=0
EXTRACT: note_on channel=9 note=82 velocity=0 time=0
EXTRACT: note_on channel=7 note=62 velocity=92 time=0.0069444375
EXTRACT: note_on channel=8 note=62 velocity=92 time=0
EXTRACT: note_on channel=9 note=54 velocity=92 time=0
EXTRACT: note_on channel=9 note=54 velocity=0 time=0.0347221875
EXTRACT: note_on channel=9 note=82 velocity=92 time=0.0069444375
EXTRACT: note_on channel=7 note=62 velocity=0 time=0.1180554375
EXTRACT: note_on channel=8 note=62 velocity=0 time=0
EXTRACT: note_on channel=9 note=82 velocity=0 time=0
EXTRACT: note_on channel=11 note=55 velocity=0 time=0
EXTRACT: note_on channel=11 note=58 velocity=0 time=0
EXTRACT: note_on channel=11 note=63 velocity=0 time=0
EXTRACT: note_on channel=11 note=67 velocity=0 time=0
EXTRACT: note_on channel=7 note=58 velocity=92 time=0.0069444375
EXTRACT: note_on channel=8 note=58 velocity=92 time=0
EXTRACT: note_on channel=9 note=54 velocity=92 time=0
EXTRACT: note_on channel=9 note=82 velocity=92 time=0
EXTRACT: note_on channel=9 note=42 velocity=92 time=0
EXTRACT: note_on channel=9 note=42 velocity=0 time=0.0763888125
EXTRACT: note_on channel=7 note=58 velocity=0 time=0.08333325
EXTRACT: note_on channel=8 note=58 velocity=0 time=0
EXTRACT: note_on channel=9 note=54 velocity=0 time=0
EXTRACT: note_on channel=9 note=82 velocity=0 time=0
EXTRACT: note_on channel=3 note=70 velocity=0 time=0.0069444375
EXTRACT: note_on channel=7 note=60 velocity=92 time=0
EXTRACT: note_on channel=8 note=60 velocity=92 time=0
EXTRACT: note_on channel=9 note=54 velocity=92 time=0
EXTRACT: note_on channel=11 note=55 velocity=92 time=0
EXTRACT: note_on channel=11 note=58 velocity=92 time=0
EXTRACT: note_on channel=11 note=63 velocity=92 time=0
EXTRACT: note_on channel=11 note=67 velocity=92 time=0
EXTRACT: note_on channel=9 note=54 velocity=0 time=0.0347221875
EXTRACT: note_on channel=9 note=82 velocity=92 time=0.0069444375
EXTRACT: note_on channel=0 note=67 velocity=0 time=0.013888875
EXTRACT: note_on channel=15 note=39 velocity=0 time=0
EXTRACT: note_on channel=7 note=60 velocity=0 time=0.1041665625
EXTRACT: note_on channel=8 note=60 velocity=0 time=0
EXTRACT: note_on channel=9 note=82 velocity=0 time=0
EXTRACT: note_on channel=11 note=55 velocity=0 time=0
EXTRACT: note_on channel=11 note=58 velocity=0 time=0
EXTRACT: note_on channel=11 note=63 velocity=0 time=0
EXTRACT: note_on channel=11 note=67 velocity=0 time=0
EXTRACT: note_on channel=3 note=72 velocity=92 time=0.0069444375
EXTRACT: note_on channel=7 note=62 velocity=92 time=0
EXTRACT: note_on channel=8 note=62 velocity=92 time=0
EXTRACT: note_on channel=9 note=54 velocity=92 time=0
EXTRACT: note_on channel=9 note=35 velocity=92 time=0
EXTRACT: note_on channel=9 note=42 velocity=92 time=0
EXTRACT: note_on channel=11 note=55 velocity=92 time=0
EXTRACT: note_on channel=11 note=58 velocity=92 time=0
EXTRACT: note_on channel=11 note=63 velocity=92 time=0
EXTRACT: note_on channel=11 note=67 velocity=92 time=0
EXTRACT: note_on channel=15 note=36 velocity=92 time=0
EXTRACT: note_on channel=9 note=35 velocity=0 time=0.0763888125
EXTRACT: note_on channel=9 note=42 velocity=0 time=0
EXTRACT: note_on channel=7 note=62 velocity=0 time=0.08333325
EXTRACT: note_on channel=8 note=62 velocity=0 time=0
EXTRACT: note_on channel=9 note=54 velocity=0 time=0
EXTRACT: note_on channel=11 note=55 velocity=0 time=0
EXTRACT: note_on channel=11 note=58 velocity=0 time=0
EXTRACT: note_on channel=11 note=63 velocity=0 time=0
EXTRACT: note_on channel=11 note=67 velocity=0 time=0
EXTRACT: note_on channel=7 note=58 velocity=92 time=0.0069444375
EXTRACT: note_on channel=8 note=58 velocity=92 time=0
EXTRACT: note_on channel=9 note=54 velocity=92 time=0
EXTRACT: note_on channel=11 note=55 velocity=92 time=0
EXTRACT: note_on channel=11 note=58 velocity=92 time=0
EXTRACT: note_on channel=11 note=63 velocity=92 time=0
EXTRACT: note_on channel=11 note=67 velocity=92 time=0
EXTRACT: note_on channel=9 note=54 velocity=0 time=0.0347221875
EXTRACT: note_on channel=9 note=82 velocity=92 time=0.0069444375
EXTRACT: note_on channel=7 note=58 velocity=0 time=0.1180554375
EXTRACT: note_on channel=8 note=58 velocity=0 time=0
EXTRACT: note_on channel=9 note=82 velocity=0 time=0
EXTRACT: note_on channel=11 note=55 velocity=0 time=0
EXTRACT: note_on channel=11 note=58 velocity=0 time=0
EXTRACT: note_on channel=11 note=63 velocity=0 time=0
EXTRACT: note_on channel=11 note=67 velocity=0 time=0
EXTRACT: note_on channel=7 note=60 velocity=92 time=0.0069444375
EXTRACT: note_on channel=8 note=60 velocity=92 time=0
EXTRACT: note_on channel=9 note=54 velocity=92 time=0
EXTRACT: note_on channel=9 note=35 velocity=92 time=0
EXTRACT: note_on channel=9 note=46 velocity=92 time=0
EXTRACT: note_on channel=11 note=55 velocity=92 time=0
EXTRACT: note_on channel=11 note=58 velocity=92 time=0
EXTRACT: note_on channel=11 note=63 velocity=92 time=0
EXTRACT: note_on channel=11 note=67 velocity=92 time=0
EXTRACT: note_on channel=9 note=35 velocity=0 time=0.0763888125
EXTRACT: note_on channel=9 note=46 velocity=0 time=0
EXTRACT: note_on channel=7 note=60 velocity=0 time=0.08333325
EXTRACT: note_on channel=8 note=60 velocity=0 time=0
EXTRACT: note_on channel=9 note=54 velocity=0 time=0
EXTRACT: note_on channel=11 note=55 velocity=0 time=0
EXTRACT: note_on channel=11 note=58 velocity=0 time=0
EXTRACT: note_on channel=11 note=63 velocity=0 time=0
EXTRACT: note_on channel=11 note=67 velocity=0 time=0
EXTRACT: note_on channel=15 note=36 velocity=0 time=0
EXTRACT: note_on channel=7 note=62 velocity=92 time=0.0069444375
EXTRACT: note_on channel=8 note=62 velocity=92 time=0
EXTRACT: note_on channel=9 note=54 velocity=92 time=0
EXTRACT: note_on channel=11 note=55 velocity=92 time=0
EXTRACT: note_on channel=11 note=58 velocity=92 time=0
EXTRACT: note_on channel=11 note=63 velocity=92 time=0
EXTRACT: note_on channel=11 note=67 velocity=92 time=0
EXTRACT: note_on channel=9 note=54 velocity=0 time=0.0347221875
EXTRACT: note_on channel=9 note=82 velocity=92 time=0.0069444375
EXTRACT: note_on channel=3 note=72 velocity=0 time=0.013888875
EXTRACT: note_on channel=7 note=62 velocity=0 time=0.1041665625
EXTRACT: note_on channel=8 note=62 velocity=0 time=0
EXTRACT: note_on channel=9 note=82 velocity=0 time=0
EXTRACT: note_on channel=11 note=55 velocity=0 time=0
EXTRACT: note_on channel=11 note=58 velocity=0 time=0
EXTRACT: note_on channel=11 note=63 velocity=0 time=0
EXTRACT: note_on channel=11 note=67 velocity=0 time=0
EXTRACT: note_on channel=3 note=74 velocity=92 time=0.0069444375
EXTRACT: note_on channel=7 note=58 velocity=92 time=0
EXTRACT: note_on channel=8 note=58 velocity=92 time=0
EXTRACT: note_on channel=9 note=54 velocity=92 time=0
EXTRACT: note_on channel=9 note=82 velocity=92 time=0
EXTRACT: note_on channel=9 note=40 velocity=92 time=0
EXTRACT: note_on channel=9 note=42 velocity=92 time=0
EXTRACT: note_on channel=11 note=55 velocity=92 time=0
EXTRACT: note_on channel=11 note=58 velocity=92 time=0
EXTRACT: note_on channel=11 note=63 velocity=92 time=0
EXTRACT: note_on channel=11 note=67 velocity=92 time=0
EXTRACT: note_on channel=15 note=36 velocity=92 time=0
EXTRACT: note_on channel=9 note=40 velocity=0 time=0.0347221875
EXTRACT: note_on channel=9 note=42 velocity=0 time=0
EXTRACT: note_on channel=9 note=40 velocity=92 time=0.0069444375
EXTRACT: note_on channel=9 note=40 velocity=0 time=0.0347221875
EXTRACT: note_on channel=7 note=58 velocity=0 time=0.08333325
EXTRACT: note_on channel=8 note=58 velocity=0 time=0
EXTRACT: note_on channel=9 note=54 velocity=0 time=0
EXTRACT: note_on channel=9 note=82 velocity=0 time=0
EXTRACT: note_on channel=12 note=67 velocity=0 time=0
EXTRACT: note_on channel=12 note=75 velocity=0 time=0
EXTRACT: note_on channel=15 note=36 velocity=0 time=0
EXTRACT: note_on channel=7 note=60 velocity=92 time=0.0069444375
EXTRACT: note_on channel=8 note=60 velocity=92 time=0
EXTRACT: note_on channel=9 note=54 velocity=92 time=0
EXTRACT: note_on channel=15 note=39 velocity=92 time=0
EXTRACT: note_on channel=9 note=54 velocity=0 time=0.0347221875
EXTRACT: note_on channel=9 note=82 velocity=92 time=0.0069444375
EXTRACT: note_on channel=7 note=60 velocity=0 time=0.1180554375
EXTRACT: note_on channel=8 note=60 velocity=0 time=0
EXTRACT: note_on channel=9 note=82 velocity=0 time=0
EXTRACT: note_on channel=11 note=55 velocity=0 time=0
EXTRACT: note_on channel=11 note=58 velocity=0 time=0
EXTRACT: note_on channel=11 note=63 velocity=0 time=0
EXTRACT: note_on channel=11 note=67 velocity=0 time=0
EXTRACT: note_on channel=15 note=39 velocity=0 time=0
EXTRACT: note_on channel=7 note=62 velocity=92 time=0.0069444375
EXTRACT: note_on channel=8 note=62 velocity=92 time=0
EXTRACT: note_on channel=9 note=54 velocity=92 time=0
EXTRACT: note_on channel=9 note=82 velocity=92 time=0
EXTRACT: note_on channel=9 note=40 velocity=92 time=0
EXTRACT: note_on channel=9 note=42 velocity=92 time=0
EXTRACT: note_on channel=11 note=55 velocity=92 time=0
EXTRACT: note_on channel=11 note=58 velocity=92 time=0
EXTRACT: note_on channel=11 note=63 velocity=92 time=0
EXTRACT: note_on channel=11 note=67 velocity=92 time=0
EXTRACT: note_on channel=15 note=41 velocity=92 time=0
EXTRACT: note_on channel=9 note=54 velocity=0 time=0.1597220625
EXTRACT: note_on channel=9 note=82 velocity=0 time=0
EXTRACT: note_on channel=9 note=40 velocity=0 time=0
EXTRACT: note_on channel=9 note=42 velocity=0 time=0
EXTRACT: note_on channel=5 note=55 velocity=0 time=0.0069444375
EXTRACT: note_on channel=5 note=58 velocity=0 time=0
EXTRACT: note_on channel=5 note=63 velocity=0 time=0
EXTRACT: note_on channel=5 note=51 velocity=0 time=0
EXTRACT: note_on channel=9 note=54 velocity=92 time=0
EXTRACT: note_on channel=9 note=40 velocity=92 time=0
EXTRACT: note_on channel=13 note=70 velocity=0 time=0
EXTRACT: note_on channel=9 note=54 velocity=0 time=0.0347221875
EXTRACT: note_on channel=9 note=82 velocity=92 time=0.0069444375
EXTRACT: note_on channel=3 note=74 velocity=0 time=0.013888875
EXTRACT: note_on channel=7 note=62 velocity=0 time=0.1041665625
EXTRACT: note_on channel=8 note=62 velocity=0 time=0
EXTRACT: note_on channel=9 note=82 velocity=0 time=0
EXTRACT: note_on channel=9 note=40 velocity=0 time=0
EXTRACT: note_on channel=11 note=55 velocity=0 time=0
EXTRACT: note_on channel=11 note=58 velocity=0 time=0
EXTRACT: note_on channel=11 note=63 velocity=0 time=0
EXTRACT: note_on channel=11 note=67 velocity=0 time=0
EXTRACT: note_on channel=15 note=41 velocity=0 time=0
EXTRACT: note_on channel=0 note=82 velocity=127 time=0.0069444375
EXTRACT: note_on channel=3 note=58 velocity=92 time=0
EXTRACT: note_on channel=3 note=65 velocity=92 time=0
EXTRACT: note_on channel=3 note=70 velocity=92 time=0
EXTRACT: note_on channel=3 note=74 velocity=92 time=0
EXTRACT: note_on channel=5 note=53 velocity=92 time=0
EXTRACT: note_on channel=5 note=58 velocity=92 time=0
EXTRACT: note_on channel=5 note=62 velocity=92 time=0
EXTRACT: note_on channel=5 note=46 velocity=92 time=0
EXTRACT: note_on channel=9 note=54 velocity=92 time=0
EXTRACT: note_on channel=9 note=57 velocity=92 time=0
EXTRACT: note_on channel=9 note=82 velocity=92 time=0
EXTRACT: note_on channel=9 note=35 velocity=92 time=0
EXTRACT: note_on channel=9 note=42 velocity=92 time=0
EXTRACT: note_on channel=9 note=52 velocity=92 time=0
EXTRACT: note_on channel=11 note=53 velocity=92 time=0
EXTRACT: note_on channel=11 note=58 velocity=92 time=0
EXTRACT: note_on channel=11 note=62 velocity=92 time=0
EXTRACT: note_on channel=11 note=65 velocity=92 time=0
EXTRACT: note_on channel=12 note=70 velocity=92 time=0
EXTRACT: note_on channel=12 note=77 velocity=92 time=0
EXTRACT: note_on channel=13 note=65 velocity=92 time=0
EXTRACT: note_on channel=15 note=34 velocity=92 time=0
EXTRACT: note_on channel=7 note=58 velocity=92 time=0.041666625
EXTRACT: note_on channel=9 note=35 velocity=0 time=0.0347221875
EXTRACT: note_on channel=9 note=42 velocity=0 time=0
EXTRACT: note_on channel=9 note=52 velocity=0 time=0
EXTRACT: note_on channel=9 note=54 velocity=0 time=0.08333325
EXTRACT: note_on channel=9 note=57 velocity=0 time=0
EXTRACT: note_on channel=9 note=82 velocity=0 time=0
EXTRACT: note_on channel=11 note=53 velocity=0 time=0
EXTRACT: note_on channel=11 note=58 velocity=0 time=0
EXTRACT: note_on channel=11 note=62 velocity=0 time=0
EXTRACT: note_on channel=11 note=65 velocity=0 time=0
EXTRACT: note_on channel=9 note=54 velocity=92 time=0.0069444375
EXTRACT: note_on channel=7 note=58 velocity=0 time=0.0347221875
EXTRACT: note_on channel=9 note=54 velocity=0 time=0
EXTRACT: note_on channel=7 note=60 velocity=92 time=0.0069444375
EXTRACT: note_on channel=9 note=82 velocity=92 time=0
EXTRACT: note_on channel=7 note=60 velocity=0 time=0.1180554375
EXTRACT: note_on channel=9 note=82 velocity=0 time=0
EXTRACT: note_on channel=7 note=62 velocity=92 time=0.0069444375
EXTRACT: note_on channel=9 note=54 velocity=92 time=0
EXTRACT: note_on channel=9 note=82 velocity=92 time=0
EXTRACT: note_on channel=9 note=42 velocity=92 time=0
EXTRACT: note_on channel=11 note=53 velocity=92 time=0
EXTRACT: note_on channel=11 note=58 velocity=92 time=0
EXTRACT: note_on channel=11 note=62 velocity=92 time=0
EXTRACT: note_on channel=11 note=65 velocity=92 time=0
EXTRACT: note_on channel=9 note=42 velocity=0 time=0.0763888125
EXTRACT: note_on channel=11 note=53 velocity=0 time=0.041666625
EXTRACT: note_on channel=11 note=58 velocity=0 time=0
EXTRACT: note_on channel=11 note=62 velocity=0 time=0
EXTRACT: note_on channel=11 note=65 velocity=0 time=0
EXTRACT: note_on channel=7 note=62 velocity=0 time=0.041666625
EXTRACT: note_on channel=9 note=54 velocity=0 time=0
EXTRACT: note_on channel=9 note=82 velocity=0 time=0
EXTRACT: note_on channel=7 note=58 velocity=92 time=0.0069444375
EXTRACT: note_on channel=9 note=54 velocity=92 time=0
EXTRACT: note_on channel=9 note=54 velocity=0 time=0.0347221875
EXTRACT: note_on channel=9 note=82 velocity=92 time=0.0069444375
EXTRACT: note_on channel=7 note=58 velocity=0 time=0.1180554375
EXTRACT: note_on channel=9 note=82 velocity=0 time=0
EXTRACT: note_on channel=7 note=60 velocity=92 time=0.0069444375
EXTRACT: note_on channel=9 note=54 velocity=92 time=0
EXTRACT: note_on channel=9 note=82 velocity=92 time=0
EXTRACT: note_on channel=9 note=40 velocity=92 time=0
EXTRACT: note_on channel=9 note=42 velocity=92 time=0
EXTRACT: note_on channel=11 note=53 velocity=92 time=0
EXTRACT: note_on channel=11 note=58 velocity=92 time=0
EXTRACT: note_on channel=11 note=62 velocity=92 time=0
EXTRACT: note_on channel=11 note=65 velocity=92 time=0
EXTRACT: note_on channel=0 note=82 velocity=0 time=0.0347221875
EXTRACT: note_on channel=0 note=77 velocity=127 time=0.0069444375
EXTRACT: note_on channel=9 note=40 velocity=0 time=0.0347221875
EXTRACT: note_on channel=9 note=42 velocity=0 time=0
EXTRACT: note_on channel=7 note=60 velocity=0 time=0.08333325
EXTRACT: note_on channel=9 note=54 velocity=0 time=0
EXTRACT: note_on channel=9 note=82 velocity=0 time=0
EXTRACT: note_on channel=7 note=62 velocity=92 time=0.0069444375
EXTRACT: note_on channel=9 note=54 velocity=92 time=0
EXTRACT: note_on channel=9 note=54 velocity=0 time=0.0347221875
EXTRACT: note_on channel=9 note=82 velocity=92 time=0.0069444375
EXTRACT: note_on channel=0 note=77 velocity=0 time=0.1180554375
EXTRACT: note_on channel=7 note=62 velocity=0 time=0
EXTRACT: note_on channel=9 note=82 velocity=0 time=0
EXTRACT: note_on channel=11 note=53 velocity=0 time=0
EXTRACT: note_on channel=11 note=58 velocity=0 time=0
EXTRACT: note_on channel=11 note=62 velocity=0 time=0
EXTRACT: note_on channel=11 note=65 velocity=0 time=0
EXTRACT: note_on channel=0 note=79 velocity=127 time=0.0069444375
EXTRACT: note_on channel=7 note=58 velocity=92 time=0
EXTRACT: note_on channel=9 note=54 velocity=92 time=0
EXTRACT: note_on channel=9 note=82 velocity=92 time=0
EXTRACT: note_on channel=9 note=42 velocity=92 time=0
EXTRACT: note_on channel=9 note=42 velocity=0 time=0.0763888125
EXTRACT: note_on channel=7 note=58 velocity=0 time=0.08333325
EXTRACT: note_on channel=9 note=54 velocity=0 time=0
EXTRACT: note_on channel=9 note=82 velocity=0 time=0
EXTRACT: note_on channel=15 note=34 velocity=0 time=0
EXTRACT: note_on channel=7 note=60 velocity=92 time=0.0069444375
EXTRACT: note_on channel=9 note=54 velocity=92 time=0
EXTRACT: note_on channel=11 note=53 velocity=92 time=0
EXTRACT: note_on channel=11 note=58 velocity=92 time=0
EXTRACT: note_on channel=11 note=62 velocity=92 time=0
EXTRACT: note_on channel=11 note=65 velocity=92 time=0
EXTRACT: note_on channel=15 note=34 velocity=92 time=0
EXTRACT: note_on channel=0 note=79 velocity=0 time=0.0347221875
EXTRACT: note_on channel=9 note=54 velocity=0 time=0
EXTRACT: note_on channel=0 note=79 velocity=127 time=0.0069444375
EXTRACT: note_on channel=9 note=82 velocity=92 time=0
EXTRACT: note_on channel=7 note=60 velocity=0 time=0.1180554375
EXTRACT: note_on channel=9 note=82 velocity=0 time=0
EXTRACT: note_on channel=11 note=53 velocity=0 time=0
EXTRACT: note_on channel=11 note=58 velocity=0 time=0
EXTRACT: note_on channel=11 note=62 velocity=0 time=0
EXTRACT: note_on channel=11 note=65 velocity=0 time=0
EXTRACT: note_on channel=15 note=34 velocity=0 time=0
EXTRACT: note_on channel=7 note=62 velocity=92 time=0.0069444375
EXTRACT: note_on channel=9 note=54 velocity=92 time=0
EXTRACT: note_on channel=9 note=35 velocity=92 time=0
EXTRACT: note_on channel=9 note=42 velocity=92 time=0
EXTRACT: note_on channel=11 note=53 velocity=92 time=0
EXTRACT: note_on channel=11 note=58 velocity=92 time=0
EXTRACT: note_on channel=11 note=62 velocity=92 time=0
EXTRACT: note_on channel=11 note=65 velocity=92 time=0
EXTRACT: note_on channel=15 note=29 velocity=92 time=0
EXTRACT: note_on channel=9 note=35 velocity=0 time=0.0763888125
EXTRACT: note_on channel=9 note=42 velocity=0 time=0
EXTRACT: note_on channel=7 note=62 velocity=0 time=0.08333325
EXTRACT: note_on channel=9 note=54 velocity=0 time=0
EXTRACT: note_on channel=11 note=53 velocity=0 time=0
EXTRACT: note_on channel=11 note=58 velocity=0 time=0
EXTRACT: note_on channel=11 note=62 velocity=0 time=0
EXTRACT: note_on channel=11 note=65 velocity=0 time=0
EXTRACT: note_on channel=15 note=29 velocity=0 time=0
EXTRACT: note_on channel=7 note=58 velocity=92 time=0.0069444375
EXTRACT: note_on channel=9 note=54 velocity=92 time=0
EXTRACT: note_on channel=11 note=53 velocity=92 time=0
EXTRACT: note_on channel=11 note=58 velocity=92 time=0
EXTRACT: note_on channel=11 note=62 velocity=92 time=0
EXTRACT: note_on channel=11 note=65 velocity=92 time=0
EXTRACT: note_on channel=15 note=31 velocity=92 time=0
EXTRACT: note_on channel=9 note=54 velocity=0 time=0.0347221875
EXTRACT: note_on channel=9 note=82 velocity=92 time=0.0069444375
EXTRACT: note_on channel=0 note=79 velocity=0 time=0.1180554375
EXTRACT: note_on channel=7 note=58 velocity=0 time=0
EXTRACT: note_on channel=9 note=82 velocity=0 time=0
EXTRACT: note_on channel=11 note=53 velocity=0 time=0
EXTRACT: note_on channel=11 note=58 velocity=0 time=0
EXTRACT: note_on channel=11 note=62 velocity=0 time=0
EXTRACT: note_on channel=11 note=65 velocity=0 time=0
EXTRACT: note_on channel=15 note=31 velocity=0 time=0
EXTRACT: note_on channel=0 note=77 velocity=127 time=0.0069444375
EXTRACT: note_on channel=7 note=60 velocity=92 time=0
EXTRACT: note_on channel=9 note=54 velocity=92 time=0
EXTRACT: note_on channel=9 note=35 velocity=92 time=0
EXTRACT: note_on channel=9 note=46 velocity=92 time=0
EXTRACT: note_on channel=11 note=53 velocity=92 time=0
EXTRACT: note_on channel=11 note=58 velocity=92 time=0
EXTRACT: note_on channel=11 note=62 velocity=92 time=0
EXTRACT: note_on channel=11 note=65 velocity=92 time=0
EXTRACT: note_on channel=15 note=34 velocity=92 time=0
EXTRACT: note_on channel=9 note=35 velocity=0 time=0.0763888125
EXTRACT: note_on channel=9 note=46 velocity=0 time=0
EXTRACT: note_on channel=7 note=60 velocity=0 time=0.08333325
EXTRACT: note_on channel=9 note=54 velocity=0 time=0
EXTRACT: note_on channel=11 note=53 velocity=0 time=0
EXTRACT: note_on channel=11 note=58 velocity=0 time=0
EXTRACT: note_on channel=11 note=62 velocity=0 time=0
EXTRACT: note_on channel=11 note=65 velocity=0 time=0
EXTRACT: note_on channel=7 note=62 velocity=92 time=0.0069444375
EXTRACT: note_on channel=9 note=54 velocity=92 time=0
EXTRACT: note_on channel=11 note=53 velocity=92 time=0
EXTRACT: note_on channel=11 note=58 velocity=92 time=0
EXTRACT: note_on channel=11 note=62 velocity=92 time=0
EXTRACT: note_on channel=11 note=65 velocity=92 time=0
EXTRACT: note_on channel=9 note=54 velocity=0 time=0.0347221875
EXTRACT: note_on channel=9 note=82 velocity=92 time=0.0069444375
EXTRACT: note_on channel=0 note=77 velocity=0 time=0.1180554375
EXTRACT: note_on channel=7 note=62 velocity=0 time=0
EXTRACT: note_on channel=9 note=82 velocity=0 time=0
EXTRACT: note_on channel=11 note=53 velocity=0 time=0
EXTRACT: note_on channel=11 note=58 velocity=0 time=0
EXTRACT: note_on channel=11 note=62 velocity=0 time=0
EXTRACT: note_on channel=11 note=65 velocity=0 time=0
EXTRACT: note_on channel=15 note=34 velocity=0 time=0
EXTRACT: note_on channel=0 note=77 velocity=127 time=0.0069444375
EXTRACT: note_on channel=7 note=58 velocity=92 time=0
EXTRACT: note_on channel=9 note=54 velocity=92 time=0
EXTRACT: note_on channel=9 note=82 velocity=92 time=0
EXTRACT: note_on channel=9 note=40 velocity=92 time=0
EXTRACT: note_on channel=9 note=42 velocity=92 time=0
EXTRACT: note_on channel=11 note=53 velocity=92 time=0
EXTRACT: note_on channel=11 note=58 velocity=92 time=0
EXTRACT: note_on channel=11 note=62 velocity=92 time=0
EXTRACT: note_on channel=11 note=65 velocity=92 time=0
EXTRACT: note_on channel=15 note=38 velocity=92 time=0
EXTRACT: note_on channel=9 note=40 velocity=0 time=0.0763888125
EXTRACT: note_on channel=9 note=42 velocity=0 time=0
EXTRACT: note_on channel=5 note=53 velocity=0 time=0.08333325
EXTRACT: note_on channel=5 note=58 velocity=0 time=0
EXTRACT: note_on channel=5 note=62 velocity=0 time=0
EXTRACT: note_on channel=5 note=46 velocity=0 time=0
EXTRACT: note_on channel=7 note=58 velocity=0 time=0
EXTRACT: note_on channel=9 note=54 velocity=0 time=0
EXTRACT: note_on channel=9 note=82 velocity=0 time=0
EXTRACT: note_on channel=7 note=60 velocity=92 time=0.0069444375
EXTRACT: note_on channel=9 note=54 velocity=92 time=0
EXTRACT: note_on channel=0 note=77 velocity=0 time=0.0347221875
EXTRACT: note_on channel=9 note=54 velocity=0 time=0
EXTRACT: note_on channel=0 note=75 velocity=127 time=0.0069444375
EXTRACT: note_on channel=9 note=82 velocity=92 time=0
EXTRACT: note_on channel=7 note=60 velocity=0 time=0.1180554375
EXTRACT: note_on channel=9 note=82 velocity=0 time=0
EXTRACT: note_on channel=11 note=53 velocity=0 time=0
EXTRACT: note_on channel=11 note=58 velocity=0 time=0
EXTRACT: note_on channel=11 note=62 velocity=0 time=0
EXTRACT: note_on channel=11 note=65 velocity=0 time=0
EXTRACT: note_on channel=15 note=38 velocity=0 time=0
EXTRACT: note_on channel=7 note=62 velocity=92 time=0.0069444375
EXTRACT: note_on channel=9 note=54 velocity=92 time=0
EXTRACT: note_on channel=9 note=82 velocity=92 time=0
EXTRACT: note_on channel=9 note=42 velocity=92 time=0
EXTRACT: note_on channel=11 note=53 velocity=92 time=0
EXTRACT: note_on channel=11 note=58 velocity=92 time=0
EXTRACT: note_on channel=11 note=62 velocity=92 time=0
EXTRACT: note_on channel=11 note=65 velocity=92 time=0
EXTRACT: note_on channel=15 note=34 velocity=92 time=0
EXTRACT: note_on channel=0 note=75 velocity=0 time=0.0347221875
EXTRACT: note_on channel=0 note=74 velocity=127 time=0.0069444375
EXTRACT: note_on channel=9 note=42 velocity=0 time=0.0347221875
EXTRACT: note_on channel=0 note=74 velocity=0 time=0.08333325
EXTRACT: note_on channel=9 note=54 velocity=0 time=0
EXTRACT: note_on channel=9 note=82 velocity=0 time=0
EXTRACT: note_on channel=0 note=75 velocity=127 time=0.0069444375
EXTRACT: note_on channel=3 note=58 velocity=0 time=0
EXTRACT: note_on channel=3 note=65 velocity=0 time=0
EXTRACT: note_on channel=3 note=70 velocity=0 time=0
EXTRACT: note_on channel=3 note=74 velocity=0 time=0
EXTRACT: note_on channel=9 note=54 velocity=92 time=0
EXTRACT: note_on channel=12 note=70 velocity=0 time=0
EXTRACT: note_on channel=12 note=77 velocity=0 time=0
EXTRACT: note_on channel=9 note=54 velocity=0 time=0.0347221875
EXTRACT: note_on channel=9 note=82 velocity=92 time=0.0069444375
EXTRACT: note_on channel=0 note=75 velocity=0 time=0.1180554375
EXTRACT: note_on channel=7 note=62 velocity=0 time=0
EXTRACT: note_on channel=9 note=82 velocity=0 time=0
EXTRACT: note_on channel=11 note=53 velocity=0 time=0
EXTRACT: note_on channel=11 note=58 velocity=0 time=0
EXTRACT: note_on channel=11 note=62 velocity=0 time=0
EXTRACT: note_on channel=11 note=65 velocity=0 time=0
EXTRACT: note_on channel=15 note=34 velocity=0 time=0
EXTRACT: note_on channel=3 note=57 velocity=92 time=0.0069444375
EXTRACT: note_on channel=3 note=69 velocity=92 time=0
EXTRACT: note_on channel=5 note=53 velocity=92 time=0
EXTRACT: note_on channel=5 note=57 velocity=92 time=0
EXTRACT: note_on channel=5 note=60 velocity=92 time=0
EXTRACT: note_on channel=5 note=41 velocity=92 time=0
EXTRACT: note_on channel=9 note=54 velocity=92 time=0
EXTRACT: note_on channel=9 note=82 velocity=92 time=0
EXTRACT: note_on channel=9 note=35 velocity=92 time=0
EXTRACT: note_on channel=9 note=42 velocity=92 time=0
EXTRACT: note_on channel=11 note=53 velocity=92 time=0
EXTRACT: note_on channel=11 note=57 velocity=92 time=0
EXTRACT: note_on channel=11 note=60 velocity=92 time=0
EXTRACT: note_on channel=11 note=65 velocity=92 time=0
EXTRACT: note_on channel=12 note=69 velocity=92 time=0
EXTRACT: note_on channel=15 note=29 velocity=92 time=0
EXTRACT: note_on channel=13 note=65 velocity=0 time=0.0347221875
EXTRACT: note_on channel=0 note=75 velocity=127 time=0.0069444375
EXTRACT: note_on channel=7 note=58 velocity=92 time=0
EXTRACT: note_on channel=13 note=70 velocity=92 time=0
EXTRACT: note_on channel=9 note=35 velocity=0 time=0.0347221875
EXTRACT: note_on channel=9 note=42 velocity=0 time=0
EXTRACT: note_on channel=9 note=54 velocity=0 time=0.08333325
EXTRACT: note_on channel=9 note=82 velocity=0 time=0
EXTRACT: note_on channel=11 note=53 velocity=0 time=0
EXTRACT: note_on channel=11 note=57 velocity=0 time=0
EXTRACT: note_on channel=11 note=60 velocity=0 time=0
EXTRACT: note_on channel=11 note=65 velocity=0 time=0
EXTRACT: note_on channel=9 note=54 velocity=92 time=0.0069444375
EXTRACT: note_on channel=7 note=58 velocity=0 time=0.0347221875
EXTRACT: note_on channel=9 note=54 velocity=0 time=0
EXTRACT: note_on channel=7 note=60 velocity=92 time=0.0069444375
EXTRACT: note_on channel=9 note=82 velocity=92 time=0
EXTRACT: note_on channel=7 note=60 velocity=0 time=0.1180554375
EXTRACT: note_on channel=9 note=82 velocity=0 time=0
EXTRACT: note_on channel=7 note=62 velocity=92 time=0.0069444375
EXTRACT: note_on channel=9 note=54 velocity=92 time=0
EXTRACT: note_on channel=9 note=82 velocity=92 time=0
EXTRACT: note_on channel=9 note=42 velocity=92 time=0
EXTRACT: note_on channel=11 note=53 velocity=92 time=0
EXTRACT: note_on channel=11 note=57 velocity=92 time=0
EXTRACT: note_on channel=11 note=60 velocity=92 time=0
EXTRACT: note_on channel=11 note=65 velocity=92 time=0
EXTRACT: note_on channel=9 note=42 velocity=0 time=0.0763888125
EXTRACT: note_on channel=11 note=53 velocity=0 time=0.041666625
EXTRACT: note_on channel=11 note=57 velocity=0 time=0
EXTRACT: note_on channel=11 note=60 velocity=0 time=0
EXTRACT: note_on channel=11 note=65 velocity=0 time=0
EXTRACT: note_on channel=0 note=75 velocity=0 time=0.041666625
EXTRACT: note_on channel=7 note=62 velocity=0 time=0
EXTRACT: note_on channel=9 note=54 velocity=0 time=0
EXTRACT: note_on channel=9 note=82 velocity=0 time=0
EXTRACT: note_on channel=0 note=74 velocity=127 time=0.0069444375
EXTRACT: note_on channel=7 note=58 velocity=92 time=0
EXTRACT: note_on channel=9 note=54 velocity=92 time=0
EXTRACT: note_on channel=9 note=54 velocity=0 time=0.0347221875
EXTRACT: note_on channel=9 note=82 velocity=92 time=0.0069444375
EXTRACT: note_on channel=7 note=58 velocity=0 time=0.1180554375
EXTRACT: note_on channel=9 note=82 velocity=0 time=0
EXTRACT: note_on channel=7 note=60 velocity=92 time=0.0069444375
EXTRACT: note_on channel=9 note=54 velocity=92 time=0
EXTRACT: note_on channel=9 note=82 velocity=92 time=0
EXTRACT: note_on channel=9 note=40 velocity=92 time=0
EXTRACT: note_on channel=9 note=42 velocity=92 time=0
EXTRACT: note_on channel=11 note=53 velocity=92 time=0
EXTRACT: note_on channel=11 note=57 velocity=92 time=0
EXTRACT: note_on channel=11 note=60 velocity=92 time=0
EXTRACT: note_on channel=11 note=65 velocity=92 time=0
EXTRACT: note_on channel=9 note=40 velocity=0 time=0.0763888125
EXTRACT: note_on channel=9 note=42 velocity=0 time=0
EXTRACT: note_on channel=7 note=60 velocity=0 time=0.08333325
EXTRACT: note_on channel=9 note=54 velocity=0 time=0
EXTRACT: note_on channel=9 note=82 velocity=0 time=0
EXTRACT: note_on channel=7 note=62 velocity=92 time=0.0069444375
EXTRACT: note_on channel=9 note=54 velocity=92 time=0
EXTRACT: note_on channel=9 note=54 velocity=0 time=0.0347221875
EXTRACT: note_on channel=9 note=82 velocity=92 time=0.0069444375
EXTRACT: note_on channel=15 note=29 velocity=0 time=0.0763888125
EXTRACT: note_on channel=7 note=62 velocity=0 time=0.041666625
EXTRACT: note_on channel=9 note=82 velocity=0 time=0
EXTRACT: note_on channel=11 note=53 velocity=0 time=0
EXTRACT: note_on channel=11 note=57 velocity=0 time=0
EXTRACT: note_on channel=11 note=60 velocity=0 time=0
EXTRACT: note_on channel=11 note=65 velocity=0 time=0
EXTRACT: note_on channel=7 note=58 velocity=92 time=0.0069444375
EXTRACT: note_on channel=9 note=54 velocity=92 time=0
EXTRACT: note_on channel=9 note=82 velocity=92 time=0
EXTRACT: note_on channel=9 note=42 velocity=92 time=0
EXTRACT: note_on channel=9 note=42 velocity=0 time=0.0763888125
EXTRACT: note_on channel=0 note=74 velocity=0 time=0.08333325
EXTRACT: note_on channel=7 note=58 velocity=0 time=0
EXTRACT: note_on channel=9 note=54 velocity=0 time=0
EXTRACT: note_on channel=9 note=82 velocity=0 time=0
EXTRACT: note_on channel=7 note=60 velocity=92 time=0.0069444375
EXTRACT: note_on channel=9 note=54 velocity=92 time=0
EXTRACT: note_on channel=11 note=53 velocity=92 time=0
EXTRACT: note_on channel=11 note=57 velocity=92 time=0
EXTRACT: note_on channel=11 note=60 velocity=92 time=0
EXTRACT: note_on channel=11 note=65 velocity=92 time=0
EXTRACT: note_on channel=15 note=29 velocity=92 time=0
EXTRACT: note_on channel=9 note=54 velocity=0 time=0.0347221875
EXTRACT: note_on channel=9 note=82 velocity=92 time=0.0069444375
EXTRACT: note_on channel=7 note=60 velocity=0 time=0.1180554375
EXTRACT: note_on channel=9 note=82 velocity=0 time=0
EXTRACT: note_on channel=11 note=53 velocity=0 time=0
EXTRACT: note_on channel=11 note=57 velocity=0 time=0
EXTRACT: note_on channel=11 note=60 velocity=0 time=0
EXTRACT: note_on channel=11 note=65 velocity=0 time=0
EXTRACT: note_on channel=15 note=29 velocity=0 time=0
EXTRACT: note_on channel=7 note=62 velocity=92 time=0.0069444375
EXTRACT: note_on channel=8 note=62 velocity=92 time=0
EXTRACT: note_on channel=9 note=54 velocity=92 time=0
EXTRACT: note_on channel=9 note=35 velocity=92 time=0
EXTRACT: note_on channel=9 note=42 velocity=92 time=0
EXTRACT: note_on channel=11 note=53 velocity=92 time=0
EXTRACT: note_on channel=11 note=57 velocity=92 time=0
EXTRACT: note_on channel=11 note=60 velocity=92 time=0
EXTRACT: note_on channel=11 note=65 velocity=92 time=0
EXTRACT: note_on channel=15 note=29 velocity=92 time=0
EXTRACT: note_on channel=9 note=35 velocity=0 time=0.0763888125
EXTRACT: note_on channel=9 note=42 velocity=0 time=0
EXTRACT: note_on channel=7 note=62 velocity=0 time=0.08333325
EXTRACT: note_on channel=8 note=62 velocity=0 time=0
EXTRACT: note_on channel=9 note=54 velocity=0 time=0
EXTRACT: note_on channel=11 note=53 velocity=0 time=0
EXTRACT: note_on channel=11 note=57 velocity=0 time=0
EXTRACT: note_on channel=11 note=60 velocity=0 time=0
EXTRACT: note_on channel=11 note=65 velocity=0 time=0
EXTRACT: note_on channel=15 note=29 velocity=0 time=0
EXTRACT: note_on channel=0 note=74 velocity=127 time=0.0069444375
EXTRACT: note_on channel=7 note=58 velocity=92 time=0
EXTRACT: note_on channel=8 note=58 velocity=92 time=0
EXTRACT: note_on channel=9 note=54 velocity=92 time=0
EXTRACT: note_on channel=11 note=53 velocity=92 time=0
EXTRACT: note_on channel=11 note=57 velocity=92 time=0
EXTRACT: note_on channel=11 note=60 velocity=92 time=0
EXTRACT: note_on channel=11 note=65 velocity=92 time=0
EXTRACT: note_on channel=15 note=27 velocity=92 time=0
EXTRACT: note_on channel=9 note=54 velocity=0 time=0.0347221875
EXTRACT: note_on channel=9 note=82 velocity=92 time=0.0069444375
EXTRACT: note_on channel=7 note=58 velocity=0 time=0.1180554375
EXTRACT: note_on channel=8 note=58 velocity=0 time=0
EXTRACT: note_on channel=9 note=82 velocity=0 time=0
EXTRACT: note_on channel=11 note=53 velocity=0 time=0
EXTRACT: note_on channel=11 note=57 velocity=0 time=0
EXTRACT: note_on channel=11 note=60 velocity=0 time=0
EXTRACT: note_on channel=11 note=65 velocity=0 time=0
EXTRACT: note_on channel=15 note=27 velocity=0 time=0
EXTRACT: note_on channel=7 note=60 velocity=92 time=0.0069444375
EXTRACT: note_on channel=8 note=60 velocity=92 time=0
EXTRACT: note_on channel=9 note=54 velocity=92 time=0
EXTRACT: note_on channel=9 note=35 velocity=92 time=0
EXTRACT: note_on channel=9 note=42 velocity=92 time=0
EXTRACT: note_on channel=11 note=53 velocity=92 time=0
EXTRACT: note_on channel=11 note=57 velocity=92 time=0
EXTRACT: note_on channel=11 note=60 velocity=92 time=0
EXTRACT: note_on channel=11 note=65 velocity=92 time=0
EXTRACT: note_on channel=15 note=29 velocity=92 time=0
EXTRACT: note_on channel=9 note=35 velocity=0 time=0.0763888125
EXTRACT: note_on channel=9 note=42 velocity=0 time=0
EXTRACT: note_on channel=0 note=74 velocity=0 time=0.08333325
EXTRACT: note_on channel=7 note=60 velocity=0 time=0
EXTRACT: note_on channel=8 note=60 velocity=0 time=0
EXTRACT: note_on channel=9 note=54 velocity=0 time=0
EXTRACT: note_on channel=11 note=53 velocity=0 time=0
EXTRACT: note_on channel=11 note=57 velocity=0 time=0
EXTRACT: note_on channel=11 note=60 velocity=0 time=0
EXTRACT: note_on channel=11 note=65 velocity=0 time=0
EXTRACT: note_on channel=0 note=74 velocity=127 time=0.0069444375
EXTRACT: note_on channel=7 note=62 velocity=92 time=0
EXTRACT: note_on channel=8 note=62 velocity=92 time=0
EXTRACT: note_on channel=9 note=54 velocity=92 time=0
EXTRACT: note_on channel=11 note=53 velocity=92 time=0
EXTRACT: note_on channel=11 note=57 velocity=92 time=0
EXTRACT: note_on channel=11 note=60 velocity=92 time=0
EXTRACT: note_on channel=11 note=65 velocity=92 time=0
EXTRACT: note_on channel=9 note=54 velocity=0 time=0.0347221875
EXTRACT: note_on channel=9 note=82 velocity=92 time=0.0069444375
EXTRACT: note_on channel=0 note=74 velocity=0 time=0.1180554375
EXTRACT: note_on channel=7 note=62 velocity=0 time=0
EXTRACT: note_on channel=8 note=62 velocity=0 time=0
EXTRACT: note_on channel=9 note=82 velocity=0 time=0
EXTRACT: note_on channel=11 note=53 velocity=0 time=0
EXTRACT: note_on channel=11 note=57 velocity=0 time=0
EXTRACT: note_on channel=11 note=60 velocity=0 time=0
EXTRACT: note_on channel=11 note=65 velocity=0 time=0
EXTRACT: note_on channel=15 note=29 velocity=0 time=0
EXTRACT: note_on channel=0 note=74 velocity=127 time=0.0069444375
EXTRACT: note_on channel=7 note=58 velocity=92 time=0
EXTRACT: note_on channel=8 note=58 velocity=92 time=0
EXTRACT: note_on channel=9 note=54 velocity=92 time=0
EXTRACT: note_on channel=9 note=82 velocity=92 time=0
EXTRACT: note_on channel=9 note=40 velocity=92 time=0
EXTRACT: note_on channel=9 note=42 velocity=92 time=0
EXTRACT: note_on channel=11 note=53 velocity=92 time=0
EXTRACT: note_on channel=11 note=57 velocity=92 time=0
EXTRACT: note_on channel=11 note=60 velocity=92 time=0
EXTRACT: note_on channel=11 note=65 velocity=92 time=0
EXTRACT: note_on channel=15 note=31 velocity=92 time=0
EXTRACT: note_on channel=5 note=53 velocity=0 time=0.0763888125
EXTRACT: note_on channel=5 note=57 velocity=0 time=0
EXTRACT: note_on channel=5 note=60 velocity=0 time=0
EXTRACT: note_on channel=9 note=40 velocity=0 time=0
EXTRACT: note_on channel=9 note=42 velocity=0 time=0
EXTRACT: note_on channel=5 note=41 velocity=0 time=0.08333325
EXTRACT: note_on channel=7 note=58 velocity=0 time=0
EXTRACT: note_on channel=8 note=58 velocity=0 time=0
EXTRACT: note_on channel=9 note=54 velocity=0 time=0
EXTRACT: note_on channel=9 note=82 velocity=0 time=0
EXTRACT: note_on channel=12 note=69 velocity=0 time=0
EXTRACT: note_on channel=7 note=60 velocity=92 time=0.0069444375
EXTRACT: note_on channel=8 note=60 velocity=92 time=0
EXTRACT: note_on channel=9 note=54 velocity=92 time=0
EXTRACT: note_on channel=9 note=54 velocity=0 time=0.0347221875
EXTRACT: note_on channel=9 note=82 velocity=92 time=0.0069444375
EXTRACT: note_on channel=7 note=60 velocity=0 time=0.1180554375
EXTRACT: note_on channel=8 note=60 velocity=0 time=0
EXTRACT: note_on channel=9 note=82 velocity=0 time=0
EXTRACT: note_on channel=11 note=53 velocity=0 time=0
EXTRACT: note_on channel=11 note=57 velocity=0 time=0
EXTRACT: note_on channel=11 note=60 velocity=0 time=0
EXTRACT: note_on channel=11 note=65 velocity=0 time=0
EXTRACT: note_on channel=15 note=31 velocity=0 time=0
EXTRACT: note_on channel=7 note=62 velocity=92 time=0.0069444375
EXTRACT: note_on channel=8 note=62 velocity=92 time=0
EXTRACT: note_on channel=9 note=54 velocity=92 time=0
EXTRACT: note_on channel=9 note=82 velocity=92 time=0
EXTRACT: note_on channel=9 note=46 velocity=92 time=0
EXTRACT: note_on channel=11 note=53 velocity=92 time=0
EXTRACT: note_on channel=11 note=57 velocity=92 time=0
EXTRACT: note_on channel=11 note=60 velocity=92 time=0
EXTRACT: note_on channel=11 note=65 velocity=92 time=0
EXTRACT: note_on channel=15 note=34 velocity=92 time=0
EXTRACT: note_on channel=0 note=74 velocity=0 time=0.0347221875
EXTRACT: note_on channel=0 note=72 velocity=127 time=0.0069444375
EXTRACT: note_on channel=9 note=46 velocity=0 time=0.0347221875
EXTRACT: note_on channel=0 note=72 velocity=0 time=0.08333325
EXTRACT: note_on channel=9 note=54 velocity=0 time=0
EXTRACT: note_on channel=9 note=82 velocity=0 time=0
EXTRACT: note_on channel=0 note=70 velocity=127 time=0.0069444375
EXTRACT: note_on channel=3 note=57 velocity=0 time=0
EXTRACT: note_on channel=3 note=69 velocity=0 time=0
EXTRACT: note_on channel=9 note=54 velocity=92 time=0
EXTRACT: note_on channel=13 note=70 velocity=0 time=0
EXTRACT: note_on channel=9 note=54 velocity=0 time=0.0347221875
EXTRACT: note_on channel=9 note=82 velocity=92 time=0.0069444375
EXTRACT: note_on channel=0 note=70 velocity=0 time=0.1180554375
EXTRACT: note_on channel=7 note=62 velocity=0 time=0
EXTRACT: note_on channel=8 note=62 velocity=0 time=0
EXTRACT: note_on channel=9 note=82 velocity=0 time=0
EXTRACT: note_on channel=11 note=53 velocity=0 time=0
EXTRACT: note_on channel=11 note=57 velocity=0 time=0
EXTRACT: note_on channel=11 note=60 velocity=0 time=0
EXTRACT: note_on channel=11 note=65 velocity=0 time=0
EXTRACT: note_on channel=15 note=34 velocity=0 time=0
EXTRACT: note_on channel=3 note=58 velocity=92 time=0.0069444375
EXTRACT: note_on channel=3 note=63 velocity=92 time=0
EXTRACT: note_on channel=3 note=67 velocity=92 time=0
EXTRACT: note_on channel=5 note=55 velocity=92 time=0
EXTRACT: note_on channel=5 note=60 velocity=92 time=0
EXTRACT: note_on channel=5 note=63 velocity=92 time=0
EXTRACT: note_on channel=5 note=48 velocity=92 time=0
EXTRACT: note_on channel=9 note=54 velocity=92 time=0
EXTRACT: note_on channel=9 note=82 velocity=92 time=0
EXTRACT: note_on channel=9 note=35 velocity=92 time=0
EXTRACT: note_on channel=9 note=42 velocity=92 time=0
EXTRACT: note_on channel=11 note=55 velocity=92 time=0
EXTRACT: note_on channel=11 note=60 velocity=92 time=0
EXTRACT: note_on channel=11 note=63 velocity=92 time=0
EXTRACT: note_on channel=11 note=67 velocity=92 time=0
EXTRACT: note_on channel=12 note=67 velocity=92 time=0
EXTRACT: note_on channel=12 note=75 velocity=92 time=0
EXTRACT: note_on channel=13 note=65 velocity=92 time=0
EXTRACT: note_on channel=15 note=36 velocity=92 time=0
EXTRACT: note_on channel=0 note=70 velocity=127 time=0.041666625
EXTRACT: note_on channel=7 note=58 velocity=92 time=0
EXTRACT: note_on channel=8 note=58 velocity=92 time=0
EXTRACT: note_on channel=9 note=35 velocity=0 time=0.0347221875
EXTRACT: note_on channel=9 note=42 velocity=0 time=0
EXTRACT: note_on channel=9 note=54 velocity=0 time=0.08333325
EXTRACT: note_on channel=9 note=82 velocity=0 time=0
EXTRACT: note_on channel=11 note=55 velocity=0 time=0
EXTRACT: note_on channel=11 note=60 velocity=0 time=0
EXTRACT: note_on channel=11 note=63 velocity=0 time=0
EXTRACT: note_on channel=11 note=67 velocity=0 time=0
EXTRACT: note_on channel=9 note=54 velocity=92 time=0.0069444375
EXTRACT: note_on channel=7 note=58 velocity=0 time=0.0347221875
EXTRACT: note_on channel=8 note=58 velocity=0 time=0
EXTRACT: note_on channel=9 note=54 velocity=0 time=0
EXTRACT: note_on channel=7 note=60 velocity=92 time=0.0069444375
EXTRACT: note_on channel=8 note=60 velocity=92 time=0
EXTRACT: note_on channel=9 note=82 velocity=92 time=0
EXTRACT: note_on channel=7 note=60 velocity=0 time=0.1180554375
EXTRACT: note_on channel=8 note=60 velocity=0 time=0
EXTRACT: note_on channel=9 note=82 velocity=0 time=0
EXTRACT: note_on channel=7 note=62 velocity=92 time=0.0069444375
EXTRACT: note_on channel=8 note=62 velocity=92 time=0
EXTRACT: note_on channel=9 note=54 velocity=92 time=0
EXTRACT: note_on channel=9 note=82 velocity=92 time=0
EXTRACT: note_on channel=9 note=42 velocity=92 time=0
EXTRACT: note_on channel=11 note=55 velocity=92 time=0
EXTRACT: note_on channel=11 note=60 velocity=92 time=0
EXTRACT: note_on channel=11 note=63 velocity=92 time=0
EXTRACT: note_on channel=11 note=67 velocity=92 time=0
EXTRACT: note_on channel=0 note=70 velocity=0 time=0.0347221875
EXTRACT: note_on channel=0 note=72 velocity=127 time=0.0069444375
EXTRACT: note_on channel=9 note=42 velocity=0 time=0.0347221875
EXTRACT: note_on channel=11 note=55 velocity=0 time=0.041666625
EXTRACT: note_on channel=11 note=60 velocity=0 time=0
EXTRACT: note_on channel=11 note=63 velocity=0 time=0
EXTRACT: note_on channel=11 note=67 velocity=0 time=0
EXTRACT: note_on channel=7 note=62 velocity=0 time=0.041666625
EXTRACT: note_on channel=8 note=62 velocity=0 time=0
EXTRACT: note_on channel=9 note=54 velocity=0 time=0
EXTRACT: note_on channel=9 note=82 velocity=0 time=0
EXTRACT: note_on channel=7 note=58 velocity=92 time=0.0069444375
EXTRACT: note_on channel=8 note=58 velocity=92 time=0
EXTRACT: note_on channel=9 note=54 velocity=92 time=0
EXTRACT: note_on channel=9 note=54 velocity=0 time=0.0347221875
EXTRACT: note_on channel=9 note=82 velocity=92 time=0.0069444375
EXTRACT: note_on channel=7 note=58 velocity=0 time=0.1180554375
EXTRACT: note_on channel=8 note=58 velocity=0 time=0
EXTRACT: note_on channel=9 note=82 velocity=0 time=0
EXTRACT: note_on channel=7 note=60 velocity=92 time=0.0069444375
EXTRACT: note_on channel=8 note=60 velocity=92 time=0
EXTRACT: note_on channel=9 note=54 velocity=92 time=0
EXTRACT: note_on channel=9 note=82 velocity=92 time=0
EXTRACT: note_on channel=9 note=40 velocity=92 time=0
EXTRACT: note_on channel=9 note=42 velocity=92 time=0
EXTRACT: note_on channel=11 note=55 velocity=92 time=0
EXTRACT: note_on channel=11 note=60 velocity=92 time=0
EXTRACT: note_on channel=11 note=63 velocity=92 time=0
EXTRACT: note_on channel=11 note=67 velocity=92 time=0
EXTRACT: note_on channel=9 note=40 velocity=0 time=0.0763888125
EXTRACT: note_on channel=9 note=42 velocity=0 time=0
EXTRACT: note_on channel=7 note=60 velocity=0 time=0.08333325
EXTRACT: note_on channel=8 note=60 velocity=0 time=0
EXTRACT: note_on channel=9 note=54 velocity=0 time=0
EXTRACT: note_on channel=9 note=82 velocity=0 time=0
EXTRACT: note_on channel=7 note=62 velocity=92 time=0.0069444375
EXTRACT: note_on channel=8 note=62 velocity=92 time=0
EXTRACT: note_on channel=9 note=54 velocity=92 time=0
EXTRACT: note_on channel=9 note=54 velocity=0 time=0.0347221875
EXTRACT: note_on channel=9 note=82 velocity=92 time=0.0069444375
EXTRACT: note_on channel=7 note=62 velocity=0 time=0.1180554375
EXTRACT: note_on channel=8 note=62 velocity=0 time=0
EXTRACT: note_on channel=9 note=82 velocity=0 time=0
EXTRACT: note_on channel=11 note=55 velocity=0 time=0
EXTRACT: note_on channel=11 note=60 velocity=0 time=0
EXTRACT: note_on channel=11 note=63 velocity=0 time=0
EXTRACT: note_on channel=11 note=67 velocity=0 time=0
EXTRACT: note_on channel=7 note=58 velocity=92 time=0.0069444375
EXTRACT: note_on channel=8 note=58 velocity=92 time=0
EXTRACT: note_on channel=9 note=54 velocity=92 time=0
EXTRACT: note_on channel=9 note=82 velocity=92 time=0
EXTRACT: note_on channel=9 note=42 velocity=92 time=0
EXTRACT: note_on channel=9 note=42 velocity=0 time=0.0763888125
EXTRACT: note_on channel=7 note=58 velocity=0 time=0.08333325
EXTRACT: note_on channel=8 note=58 velocity=0 time=0
EXTRACT: note_on channel=9 note=54 velocity=0 time=0
EXTRACT: note_on channel=9 note=82 velocity=0 time=0
EXTRACT: note_on channel=15 note=36 velocity=0 time=0
EXTRACT: note_on channel=3 note=58 velocity=0 time=0.0069444375
EXTRACT: note_on channel=3 note=63 velocity=0 time=0
EXTRACT: note_on channel=3 note=67 velocity=0 time=0
EXTRACT: note_on channel=7 note=60 velocity=92 time=0
EXTRACT: note_on channel=8 note=60 velocity=92 time=0
EXTRACT: note_on channel=9 note=54 velocity=92 time=0
EXTRACT: note_on channel=11 note=55 velocity=92 time=0
EXTRACT: note_on channel=11 note=60 velocity=92 time=0
EXTRACT: note_on channel=11 note=63 velocity=92 time=0
EXTRACT: note_on channel=11 note=67 velocity=92 time=0
EXTRACT: note_on channel=15 note=34 velocity=92 time=0
EXTRACT: note_on channel=9 note=54 velocity=0 time=0.0347221875
EXTRACT: note_on channel=9 note=82 velocity=92 time=0.0069444375
EXTRACT: note_on channel=7 note=60 velocity=0 time=0.1180554375
EXTRACT: note_on channel=8 note=60 velocity=0 time=0
EXTRACT: note_on channel=9 note=82 velocity=0 time=0
EXTRACT: note_on channel=11 note=55 velocity=0 time=0
EXTRACT: note_on channel=11 note=60 velocity=0 time=0
EXTRACT: note_on channel=11 note=63 velocity=0 time=0
EXTRACT: note_on channel=11 note=67 velocity=0 time=0
EXTRACT: note_on channel=15 note=34 velocity=0 time=0
EXTRACT: note_on channel=3 note=72 velocity=92 time=0.0069444375
EXTRACT: note_on channel=7 note=62 velocity=92 time=0
EXTRACT: note_on channel=8 note=62 velocity=92 time=0
EXTRACT: note_on channel=9 note=54 velocity=92 time=0
EXTRACT: note_on channel=9 note=35 velocity=92 time=0
EXTRACT: note_on channel=9 note=42 velocity=92 time=0
EXTRACT: note_on channel=11 note=55 velocity=92 time=0
EXTRACT: note_on channel=11 note=60 velocity=92 time=0
EXTRACT: note_on channel=11 note=63 velocity=92 time=0
EXTRACT: note_on channel=11 note=67 velocity=92 time=0
EXTRACT: note_on channel=15 note=36 velocity=92 time=0
EXTRACT: note_on channel=9 note=35 velocity=0 time=0.0763888125
EXTRACT: note_on channel=9 note=42 velocity=0 time=0
EXTRACT: note_on channel=0 note=72 velocity=0 time=0.08333325
EXTRACT: note_on channel=7 note=62 velocity=0 time=0
EXTRACT: note_on channel=9 note=54 velocity=0 time=0
EXTRACT: note_on channel=11 note=55 velocity=0 time=0
EXTRACT: note_on channel=11 note=60 velocity=0 time=0
EXTRACT: note_on channel=11 note=63 velocity=0 time=0
EXTRACT: note_on channel=11 note=67 velocity=0 time=0
EXTRACT: note_on channel=0 note=74 velocity=127 time=0.0069444375
EXTRACT: note_on channel=7 note=58 velocity=92 time=0
EXTRACT: note_on channel=9 note=54 velocity=92 time=0
EXTRACT: note_on channel=11 note=55 velocity=92 time=0
EXTRACT: note_on channel=11 note=60 velocity=92 time=0
EXTRACT: note_on channel=11 note=63 velocity=92 time=0
EXTRACT: note_on channel=11 note=67 velocity=92 time=0
EXTRACT: note_on channel=8 note=62 velocity=0 time=0.0347221875
EXTRACT: note_on channel=9 note=54 velocity=0 time=0
EXTRACT: note_on channel=9 note=82 velocity=92 time=0.0069444375
EXTRACT: note_on channel=7 note=58 velocity=0 time=0.1180554375
EXTRACT: note_on channel=9 note=82 velocity=0 time=0
EXTRACT: note_on channel=11 note=55 velocity=0 time=0
EXTRACT: note_on channel=11 note=60 velocity=0 time=0
EXTRACT: note_on channel=11 note=63 velocity=0 time=0
EXTRACT: note_on channel=11 note=67 velocity=0 time=0
EXTRACT: note_on channel=15 note=36 velocity=0 time=0
EXTRACT: note_on channel=7 note=60 velocity=92 time=0.0069444375
EXTRACT: note_on channel=9 note=54 velocity=92 time=0
EXTRACT: note_on channel=9 note=35 velocity=92 time=0
EXTRACT: note_on channel=9 note=46 velocity=92 time=0
EXTRACT: note_on channel=11 note=55 velocity=92 time=0
EXTRACT: note_on channel=11 note=60 velocity=92 time=0
EXTRACT: note_on channel=11 note=63 velocity=92 time=0
EXTRACT: note_on channel=11 note=67 velocity=92 time=0
EXTRACT: note_on channel=15 note=22 velocity=92 time=0
EXTRACT: note_on channel=9 note=35 velocity=0 time=0.0763888125
EXTRACT: note_on channel=9 note=46 velocity=0 time=0
EXTRACT: note_on channel=7 note=60 velocity=0 time=0.08333325
EXTRACT: note_on channel=9 note=54 velocity=0 time=0
EXTRACT: note_on channel=11 note=55 velocity=0 time=0
EXTRACT: note_on channel=11 note=60 velocity=0 time=0
EXTRACT: note_on channel=11 note=63 velocity=0 time=0
EXTRACT: note_on channel=11 note=67 velocity=0 time=0
EXTRACT: note_on channel=7 note=62 velocity=92 time=0.0069444375
EXTRACT: note_on channel=9 note=54 velocity=92 time=0
EXTRACT: note_on channel=11 note=55 velocity=92 time=0
EXTRACT: note_on channel=11 note=60 velocity=92 time=0
EXTRACT: note_on channel=11 note=63 velocity=92 time=0
EXTRACT: note_on channel=11 note=67 velocity=92 time=0
EXTRACT: note_on channel=0 note=74 velocity=0 time=0.0347221875
EXTRACT: note_on channel=9 note=54 velocity=0 time=0
EXTRACT: note_on channel=0 note=74 velocity=127 time=0.0069444375
EXTRACT: note_on channel=9 note=82 velocity=92 time=0
EXTRACT: note_on channel=0 note=74 velocity=0 time=0.1180554375
EXTRACT: note_on channel=7 note=62 velocity=0 time=0
EXTRACT: note_on channel=9 note=82 velocity=0 time=0
EXTRACT: note_on channel=11 note=55 velocity=0 time=0
EXTRACT: note_on channel=11 note=60 velocity=0 time=0
EXTRACT: note_on channel=11 note=63 velocity=0 time=0
EXTRACT: note_on channel=11 note=67 velocity=0 time=0
EXTRACT: note_on channel=15 note=22 velocity=0 time=0
EXTRACT: note_on channel=7 note=58 velocity=92 time=0.0069444375
EXTRACT: note_on channel=9 note=54 velocity=92 time=0
EXTRACT: note_on channel=9 note=82 velocity=92 time=0
EXTRACT: note_on channel=9 note=40 velocity=92 time=0
EXTRACT: note_on channel=9 note=42 velocity=92 time=0
EXTRACT: note_on channel=11 note=55 velocity=92 time=0
EXTRACT: note_on channel=11 note=60 velocity=92 time=0
EXTRACT: note_on channel=11 note=63 velocity=92 time=0
EXTRACT: note_on channel=11 note=67 velocity=92 time=0
EXTRACT: note_on channel=15 note=24 velocity=92 time=0
EXTRACT: note_on channel=0 note=74 velocity=127 time=0.041666625
EXTRACT: note_on channel=9 note=40 velocity=0 time=0.0347221875
EXTRACT: note_on channel=9 note=42 velocity=0 time=0
EXTRACT: note_on channel=7 note=58 velocity=0 time=0.08333325
EXTRACT: note_on channel=9 note=54 velocity=0 time=0
EXTRACT: note_on channel=9 note=82 velocity=0 time=0
EXTRACT: note_on channel=7 note=60 velocity=92 time=0.0069444375
EXTRACT: note_on channel=9 note=54 velocity=92 time=0
EXTRACT: note_on channel=5 note=55 velocity=0 time=0.0347221875
EXTRACT: note_on channel=5 note=60 velocity=0 time=0
EXTRACT: note_on channel=5 note=63 velocity=0 time=0
EXTRACT: note_on channel=9 note=54 velocity=0 time=0
EXTRACT: note_on channel=9 note=82 velocity=92 time=0.0069444375
EXTRACT: note_on channel=5 note=48 velocity=0 time=0.0763888125
EXTRACT: note_on channel=7 note=60 velocity=0 time=0.041666625
EXTRACT: note_on channel=9 note=82 velocity=0 time=0
EXTRACT: note_on channel=11 note=55 velocity=0 time=0
EXTRACT: note_on channel=11 note=60 velocity=0 time=0
EXTRACT: note_on channel=11 note=63 velocity=0 time=0
EXTRACT: note_on channel=11 note=67 velocity=0 time=0
EXTRACT: note_on channel=15 note=24 velocity=0 time=0
EXTRACT: note_on channel=7 note=62 velocity=92 time=0.0069444375
EXTRACT: note_on channel=9 note=54 velocity=92 time=0
EXTRACT: note_on channel=9 note=82 velocity=92 time=0
EXTRACT: note_on channel=9 note=46 velocity=92 time=0
EXTRACT: note_on channel=11 note=55 velocity=92 time=0
EXTRACT: note_on channel=11 note=60 velocity=92 time=0
EXTRACT: note_on channel=11 note=63 velocity=92 time=0
EXTRACT: note_on channel=11 note=67 velocity=92 time=0
EXTRACT: note_on channel=15 note=26 velocity=92 time=0
EXTRACT: note_on channel=0 note=74 velocity=0 time=0.0347221875
EXTRACT: note_on channel=0 note=72 velocity=127 time=0.0069444375
EXTRACT: note_on channel=9 note=46 velocity=0 time=0.0347221875
EXTRACT: note_on channel=9 note=54 velocity=0 time=0.08333325
EXTRACT: note_on channel=9 note=82 velocity=0 time=0
EXTRACT: note_on channel=3 note=72 velocity=0 time=0.0069444375
EXTRACT: note_on channel=9 note=54 velocity=92 time=0
EXTRACT: note_on channel=13 note=65 velocity=0 time=0
EXTRACT: note_on channel=0 note=72 velocity=0 time=0.0347221875
EXTRACT: note_on channel=9 note=54 velocity=0 time=0
EXTRACT: note_on channel=0 note=70 velocity=127 time=0.0069444375
EXTRACT: note_on channel=9 note=82 velocity=92 time=0
EXTRACT: note_on channel=0 note=70 velocity=0 time=0.1180554375
EXTRACT: note_on channel=7 note=62 velocity=0 time=0
EXTRACT: note_on channel=9 note=82 velocity=0 time=0
EXTRACT: note_on channel=11 note=55 velocity=0 time=0
EXTRACT: note_on channel=11 note=60 velocity=0 time=0
EXTRACT: note_on channel=11 note=63 velocity=0 time=0
EXTRACT: note_on channel=11 note=67 velocity=0 time=0
EXTRACT: note_on channel=15 note=26 velocity=0 time=0
EXTRACT: note_on channel=3 note=70 velocity=92 time=0.0069444375
EXTRACT: note_on channel=5 note=55 velocity=92 time=0
EXTRACT: note_on channel=5 note=58 velocity=92 time=0
EXTRACT: note_on channel=5 note=63 velocity=92 time=0
EXTRACT: note_on channel=5 note=51 velocity=92 time=0
EXTRACT: note_on channel=9 note=54 velocity=92 time=0
EXTRACT: note_on channel=9 note=82 velocity=92 time=0
EXTRACT: note_on channel=9 note=35 velocity=92 time=0
EXTRACT: note_on channel=9 note=42 velocity=92 time=0
EXTRACT: note_on channel=11 note=55 velocity=92 time=0
EXTRACT: note_on channel=11 note=58 velocity=92 time=0
EXTRACT: note_on channel=11 note=63 velocity=92 time=0
EXTRACT: note_on channel=11 note=67 velocity=92 time=0
EXTRACT: note_on channel=13 note=70 velocity=92 time=0
EXTRACT: note_on channel=15 note=27 velocity=92 time=0
EXTRACT: note_on channel=7 note=58 velocity=92 time=0.041666625
EXTRACT: note_on channel=9 note=35 velocity=0 time=0.0347221875
EXTRACT: note_on channel=9 note=42 velocity=0 time=0
EXTRACT: note_on channel=0 note=70 velocity=127 time=0.0069444375
EXTRACT: note_on channel=9 note=54 velocity=0 time=0.0763888125
EXTRACT: note_on channel=9 note=82 velocity=0 time=0
EXTRACT: note_on channel=11 note=55 velocity=0 time=0
EXTRACT: note_on channel=11 note=58 velocity=0 time=0
EXTRACT: note_on channel=11 note=63 velocity=0 time=0
EXTRACT: note_on channel=11 note=67 velocity=0 time=0
EXTRACT: note_on channel=9 note=54 velocity=92 time=0.0069444375
EXTRACT: note_on channel=7 note=58 velocity=0 time=0.0347221875
EXTRACT: note_on channel=9 note=54 velocity=0 time=0
EXTRACT: note_on channel=7 note=60 velocity=92 time=0.0069444375
EXTRACT: note_on channel=9 note=82 velocity=92 time=0
EXTRACT: note_on channel=7 note=60 velocity=0 time=0.1180554375
EXTRACT: note_on channel=9 note=82 velocity=0 time=0
EXTRACT: note_on channel=7 note=62 velocity=92 time=0.0069444375
EXTRACT: note_on channel=9 note=54 velocity=92 time=0
EXTRACT: note_on channel=9 note=82 velocity=92 time=0
EXTRACT: note_on channel=9 note=42 velocity=92 time=0
EXTRACT: note_on channel=11 note=55 velocity=92 time=0
EXTRACT: note_on channel=11 note=58 velocity=92 time=0
EXTRACT: note_on channel=11 note=63 velocity=92 time=0
EXTRACT: note_on channel=11 note=67 velocity=92 time=0
EXTRACT: note_on channel=0 note=70 velocity=0 time=0.0763888125
EXTRACT: note_on channel=9 note=42 velocity=0 time=0
EXTRACT: note_on channel=0 note=65 velocity=127 time=0.0069444375
EXTRACT: note_on channel=11 note=55 velocity=0 time=0.0347221875
EXTRACT: note_on channel=11 note=58 velocity=0 time=0
EXTRACT: note_on channel=11 note=63 velocity=0 time=0
EXTRACT: note_on channel=11 note=67 velocity=0 time=0
EXTRACT: note_on channel=7 note=62 velocity=0 time=0.041666625
EXTRACT: note_on channel=9 note=54 velocity=0 time=0
EXTRACT: note_on channel=9 note=82 velocity=0 time=0
EXTRACT: note_on channel=7 note=58 velocity=92 time=0.0069444375
EXTRACT: note_on channel=8 note=58 velocity=92 time=0
EXTRACT: note_on channel=9 note=54 velocity=92 time=0
EXTRACT: note_on channel=9 note=54 velocity=0 time=0.0347221875
EXTRACT: note_on channel=9 note=82 velocity=92 time=0.0069444375
EXTRACT: note_on channel=7 note=58 velocity=0 time=0.1180554375
EXTRACT: note_on channel=8 note=58 velocity=0 time=0
EXTRACT: note_on channel=9 note=82 velocity=0 time=0
EXTRACT: note_on channel=7 note=60 velocity=92 time=0.0069444375
EXTRACT: note_on channel=8 note=60 velocity=92 time=0
EXTRACT: note_on channel=9 note=54 velocity=92 time=0
EXTRACT: note_on channel=9 note=82 velocity=92 time=0
EXTRACT: note_on channel=9 note=40 velocity=92 time=0
EXTRACT: note_on channel=9 note=42 velocity=92 time=0
EXTRACT: note_on channel=11 note=55 velocity=92 time=0
EXTRACT: note_on channel=11 note=58 velocity=92 time=0
EXTRACT: note_on channel=11 note=63 velocity=92 time=0
EXTRACT: note_on channel=11 note=67 velocity=92 time=0
EXTRACT: note_on channel=9 note=40 velocity=0 time=0.0763888125
EXTRACT: note_on channel=9 note=42 velocity=0 time=0
EXTRACT: note_on channel=7 note=60 velocity=0 time=0.08333325
EXTRACT: note_on channel=8 note=60 velocity=0 time=0
EXTRACT: note_on channel=9 note=54 velocity=0 time=0
EXTRACT: note_on channel=9 note=82 velocity=0 time=0
EXTRACT: note_on channel=7 note=62 velocity=92 time=0.0069444375
EXTRACT: note_on channel=8 note=62 velocity=92 time=0
EXTRACT: note_on channel=9 note=54 velocity=92 time=0
EXTRACT: note_on channel=9 note=54 velocity=0 time=0.0347221875
EXTRACT: note_on channel=9 note=82 velocity=92 time=0.0069444375
EXTRACT: note_on channel=7 note=62 velocity=0 time=0.1180554375
EXTRACT: note_on channel=8 note=62 velocity=0 time=0
EXTRACT: note_on channel=9 note=82 velocity=0 time=0
EXTRACT: note_on channel=11 note=55 velocity=0 time=0
EXTRACT: note_on channel=11 note=58 velocity=0 time=0
EXTRACT: note_on channel=11 note=63 velocity=0 time=0
EXTRACT: note_on channel=11 note=67 velocity=0 time=0
EXTRACT: note_on channel=7 note=58 velocity=92 time=0.0069444375
EXTRACT: note_on channel=8 note=58 velocity=92 time=0
EXTRACT: note_on channel=9 note=54 velocity=92 time=0
EXTRACT: note_on channel=9 note=82 velocity=92 time=0
EXTRACT: note_on channel=9 note=42 velocity=92 time=0
EXTRACT: note_on channel=9 note=42 velocity=0 time=0.0763888125
EXTRACT: note_on channel=7 note=58 velocity=0 time=0.08333325
EXTRACT: note_on channel=8 note=58 velocity=0 time=0
EXTRACT: note_on channel=9 note=54 velocity=0 time=0
EXTRACT: note_on channel=9 note=82 velocity=0 time=0
EXTRACT: note_on channel=15 note=27 velocity=0 time=0
EXTRACT: note_on channel=3 note=70 velocity=0 time=0.0069444375
EXTRACT: note_on channel=7 note=60 velocity=92 time=0
EXTRACT: note_on channel=8 note=60 velocity=92 time=0
EXTRACT: note_on channel=9 note=54 velocity=92 time=0
EXTRACT: note_on channel=11 note=55 velocity=92 time=0
EXTRACT: note_on channel=11 note=58 velocity=92 time=0
EXTRACT: note_on channel=11 note=63 velocity=92 time=0
EXTRACT: note_on channel=11 note=67 velocity=92 time=0
EXTRACT: note_on channel=15 note=27 velocity=92 time=0
EXTRACT: note_on channel=9 note=54 velocity=0 time=0.0347221875
EXTRACT: note_on channel=9 note=82 velocity=92 time=0.0069444375
EXTRACT: note_on channel=0 note=65 velocity=0 time=0.013888875
EXTRACT: note_on channel=7 note=60 velocity=0 time=0.1041665625
EXTRACT: note_on channel=8 note=60 velocity=0 time=0
EXTRACT: note_on channel=9 note=82 velocity=0 time=0
EXTRACT: note_on channel=11 note=55 velocity=0 time=0
EXTRACT: note_on channel=11 note=58 velocity=0 time=0
EXTRACT: note_on channel=11 note=63 velocity=0 time=0
EXTRACT: note_on channel=11 note=67 velocity=0 time=0
EXTRACT: note_on channel=15 note=27 velocity=0 time=0
EXTRACT: note_on channel=3 note=60 velocity=92 time=0.0069444375
EXTRACT: note_on channel=3 note=72 velocity=92 time=0
EXTRACT: note_on channel=7 note=62 velocity=92 time=0
EXTRACT: note_on channel=8 note=62 velocity=92 time=0
EXTRACT: note_on channel=9 note=54 velocity=92 time=0
EXTRACT: note_on channel=9 note=35 velocity=92 time=0
EXTRACT: note_on channel=9 note=42 velocity=92 time=0
EXTRACT: note_on channel=11 note=55 velocity=92 time=0
EXTRACT: note_on channel=11 note=58 velocity=92 time=0
EXTRACT: note_on channel=11 note=63 velocity=92 time=0
EXTRACT: note_on channel=11 note=67 velocity=92 time=0
EXTRACT: note_on channel=15 note=27 velocity=92 time=0
EXTRACT: note_on channel=9 note=35 velocity=0 time=0.0763888125
EXTRACT: note_on channel=9 note=42 velocity=0 time=0
EXTRACT: note_on channel=15 note=27 velocity=0 time=0
EXTRACT: note_on channel=7 note=62 velocity=0 time=0.08333325
EXTRACT: note_on channel=8 note=62 velocity=0 time=0
EXTRACT: note_on channel=9 note=54 velocity=0 time=0
EXTRACT: note_on channel=11 note=55 velocity=0 time=0
EXTRACT: note_on channel=11 note=58 velocity=0 time=0
EXTRACT: note_on channel=11 note=63 velocity=0 time=0
EXTRACT: note_on channel=11 note=67 velocity=0 time=0
EXTRACT: note_on channel=7 note=58 velocity=92 time=0.0069444375
EXTRACT: note_on channel=8 note=58 velocity=92 time=0
EXTRACT: note_on channel=9 note=54 velocity=92 time=0
EXTRACT: note_on channel=11 note=55 velocity=92 time=0
EXTRACT: note_on channel=11 note=58 velocity=92 time=0
EXTRACT: note_on channel=11 note=63 velocity=92 time=0
EXTRACT: note_on channel=11 note=67 velocity=92 time=0
EXTRACT: note_on channel=9 note=54 velocity=0 time=0.0347221875
EXTRACT: note_on channel=9 note=82 velocity=92 time=0.0069444375
EXTRACT: note_on channel=7 note=58 velocity=0 time=0.1180554375
EXTRACT: note_on channel=8 note=58 velocity=0 time=0
EXTRACT: note_on channel=9 note=82 velocity=0 time=0
EXTRACT: note_on channel=11 note=55 velocity=0 time=0
EXTRACT: note_on channel=11 note=58 velocity=0 time=0
EXTRACT: note_on channel=11 note=63 velocity=0 time=0
EXTRACT: note_on channel=11 note=67 velocity=0 time=0
EXTRACT: note_on channel=7 note=60 velocity=92 time=0.0069444375
EXTRACT: note_on channel=8 note=60 velocity=92 time=0
EXTRACT: note_on channel=9 note=54 velocity=92 time=0
EXTRACT: note_on channel=9 note=35 velocity=92 time=0
EXTRACT: note_on channel=9 note=42 velocity=92 time=0
EXTRACT: note_on channel=11 note=55 velocity=92 time=0
EXTRACT: note_on channel=11 note=58 velocity=92 time=0
EXTRACT: note_on channel=11 note=63 velocity=92 time=0
EXTRACT: note_on channel=11 note=67 velocity=92 time=0
EXTRACT: note_on channel=15 note=27 velocity=92 time=0
EXTRACT: note_on channel=9 note=35 velocity=0 time=0.0763888125
EXTRACT: note_on channel=9 note=42 velocity=0 time=0
EXTRACT: note_on channel=7 note=60 velocity=0 time=0.08333325
EXTRACT: note_on channel=8 note=60 velocity=0 time=0
EXTRACT: note_on channel=9 note=54 velocity=0 time=0
EXTRACT: note_on channel=11 note=55 velocity=0 time=0
EXTRACT: note_on channel=11 note=58 velocity=0 time=0
EXTRACT: note_on channel=11 note=63 velocity=0 time=0
EXTRACT: note_on channel=11 note=67 velocity=0 time=0
EXTRACT: note_on channel=7 note=62 velocity=92 time=0.0069444375
EXTRACT: note_on channel=8 note=62 velocity=92 time=0
EXTRACT: note_on channel=9 note=54 velocity=92 time=0
EXTRACT: note_on channel=11 note=55 velocity=92 time=0
EXTRACT: note_on channel=11 note=58 velocity=92 time=0
EXTRACT: note_on channel=11 note=63 velocity=92 time=0
EXTRACT: note_on channel=11 note=67 velocity=92 time=0
EXTRACT: note_on channel=9 note=54 velocity=0 time=0.0347221875
EXTRACT: note_on channel=9 note=82 velocity=92 time=0.0069444375
EXTRACT: note_on channel=3 note=60 velocity=0 time=0.013888875
EXTRACT: note_on channel=3 note=72 velocity=0 time=0
EXTRACT: note_on channel=7 note=62 velocity=0 time=0.1041665625
EXTRACT: note_on channel=8 note=62 velocity=0 time=0
EXTRACT: note_on channel=9 note=82 velocity=0 time=0
EXTRACT: note_on channel=11 note=55 velocity=0 time=0
EXTRACT: note_on channel=11 note=58 velocity=0 time=0
EXTRACT: note_on channel=11 note=63 velocity=0 time=0
EXTRACT: note_on channel=11 note=67 velocity=0 time=0
EXTRACT: note_on channel=15 note=27 velocity=0 time=0
EXTRACT: note_on channel=3 note=62 velocity=92 time=0.0069444375
EXTRACT: note_on channel=3 note=74 velocity=92 time=0
EXTRACT: note_on channel=7 note=58 velocity=92 time=0
EXTRACT: note_on channel=8 note=58 velocity=92 time=0
EXTRACT: note_on channel=9 note=54 velocity=92 time=0
EXTRACT: note_on channel=9 note=82 velocity=92 time=0
EXTRACT: note_on channel=9 note=40 velocity=92 time=0
EXTRACT: note_on channel=9 note=42 velocity=92 time=0
EXTRACT: note_on channel=11 note=55 velocity=92 time=0
EXTRACT: note_on channel=11 note=58 velocity=92 time=0
EXTRACT: note_on channel=11 note=63 velocity=92 time=0
EXTRACT: note_on channel=11 note=67 velocity=92 time=0
EXTRACT: note_on channel=15 note=29 velocity=92 time=0
EXTRACT: note_on channel=9 note=40 velocity=0 time=0.0763888125
EXTRACT: note_on channel=9 note=42 velocity=0 time=0
EXTRACT: note_on channel=7 note=58 velocity=0 time=0.08333325
EXTRACT: note_on channel=8 note=58 velocity=0 time=0
EXTRACT: note_on channel=9 note=54 velocity=0 time=0
EXTRACT: note_on channel=9 note=82 velocity=0 time=0
EXTRACT: note_on channel=12 note=67 velocity=0 time=0
EXTRACT: note_on channel=12 note=75 velocity=0 time=0
EXTRACT: note_on channel=15 note=29 velocity=0 time=0
EXTRACT: note_on channel=7 note=60 velocity=92 time=0.0069444375
EXTRACT: note_on channel=8 note=60 velocity=92 time=0
EXTRACT: note_on channel=9 note=54 velocity=92 time=0
EXTRACT: note_on channel=15 note=31 velocity=92 time=0
EXTRACT: note_on channel=9 note=54 velocity=0 time=0.0347221875
EXTRACT: note_on channel=9 note=82 velocity=92 time=0.0069444375
EXTRACT: note_on channel=7 note=60 velocity=0 time=0.1180554375
EXTRACT: note_on channel=8 note=60 velocity=0 time=0
EXTRACT: note_on channel=9 note=82 velocity=0 time=0
EXTRACT: note_on channel=11 note=55 velocity=0 time=0
EXTRACT: note_on channel=11 note=58 velocity=0 time=0
EXTRACT: note_on channel=11 note=63 velocity=0 time=0
EXTRACT: note_on channel=11 note=67 velocity=0 time=0
EXTRACT: note_on channel=15 note=31 velocity=0 time=0
EXTRACT: note_on channel=7 note=62 velocity=92 time=0.0069444375
EXTRACT: note_on channel=8 note=62 velocity=92 time=0
EXTRACT: note_on channel=9 note=54 velocity=92 time=0
EXTRACT: note_on channel=9 note=82 velocity=92 time=0
EXTRACT: note_on channel=9 note=42 velocity=92 time=0
EXTRACT: note_on channel=11 note=55 velocity=92 time=0
EXTRACT: note_on channel=11 note=58 velocity=92 time=0
EXTRACT: note_on channel=11 note=63 velocity=92 time=0
EXTRACT: note_on channel=11 note=67 velocity=92 time=0
EXTRACT: note_on channel=15 note=34 velocity=92 time=0
EXTRACT: note_on channel=9 note=42 velocity=0 time=0.0763888125
EXTRACT: note_on channel=9 note=54 velocity=0 time=0.08333325
EXTRACT: note_on channel=9 note=82 velocity=0 time=0
EXTRACT: note_on channel=15 note=34 velocity=0 time=0
EXTRACT: note_on channel=5 note=55 velocity=0 time=0.0069444375
EXTRACT: note_on channel=5 note=58 velocity=0 time=0
EXTRACT: note_on channel=5 note=63 velocity=0 time=0
EXTRACT: note_on channel=5 note=51 velocity=0 time=0
EXTRACT: note_on channel=9 note=54 velocity=92 time=0
EXTRACT: note_on channel=13 note=70 velocity=0 time=0
EXTRACT: note_on channel=15 note=31 velocity=92 time=0
EXTRACT: note_on channel=9 note=54 velocity=0 time=0.0347221875
EXTRACT: note_on channel=9 note=82 velocity=92 time=0.0069444375
EXTRACT: note_on channel=3 note=62 velocity=0 time=0.013888875
EXTRACT: note_on channel=3 note=74 velocity=0 time=0
EXTRACT: note_on channel=7 note=62 velocity=0 time=0.1041665625
EXTRACT: note_on channel=8 note=62 velocity=0 time=0
EXTRACT: note_on channel=9 note=82 velocity=0 time=0
EXTRACT: note_on channel=11 note=55 velocity=0 time=0
EXTRACT: note_on channel=11 note=58 velocity=0 time=0
EXTRACT: note_on channel=11 note=63 velocity=0 time=0
EXTRACT: note_on channel=11 note=67 velocity=0 time=0
EXTRACT: note_on channel=15 note=31 velocity=0 time=0
EXTRACT: note_on channel=1 note=55 velocity=92 time=0.0069444375
EXTRACT: note_on channel=1 note=58 velocity=92 time=0
EXTRACT: note_on channel=1 note=43 velocity=92 time=0
EXTRACT: note_on channel=2 note=50 velocity=92 time=0
EXTRACT: note_on channel=2 note=55 velocity=92 time=0
EXTRACT: note_on channel=9 note=82 velocity=92 time=0
EXTRACT: note_on channel=9 note=82 velocity=0 time=0.2013886875
EXTRACT: note_on channel=9 note=82 velocity=92 time=0.0069444375
EXTRACT: note_on channel=9 note=82 velocity=0 time=0.1180554375
EXTRACT: note_on channel=9 note=82 velocity=92 time=0.0069444375
EXTRACT: note_on channel=9 note=82 velocity=0 time=0.2013886875
EXTRACT: note_on channel=9 note=82 velocity=92 time=0.0069444375
EXTRACT: note_on channel=9 note=82 velocity=0 time=0.1180554375
EXTRACT: note_on channel=9 note=82 velocity=92 time=0.0069444375
EXTRACT: note_on channel=9 note=82 velocity=0 time=0.2013886875
EXTRACT: note_on channel=9 note=82 velocity=92 time=0.0069444375
EXTRACT: note_on channel=9 note=82 velocity=0 time=0.1180554375
EXTRACT: note_on channel=9 note=82 velocity=92 time=0.0069444375
EXTRACT: note_on channel=1 note=55 velocity=0 time=0.1597220625
EXTRACT: note_on channel=1 note=58 velocity=0 time=0
EXTRACT: note_on channel=9 note=82 velocity=0 time=0.041666625
EXTRACT: note_on channel=9 note=82 velocity=92 time=0.0069444375
EXTRACT: note_on channel=9 note=82 velocity=0 time=0.1180554375
EXTRACT: note_on channel=1 note=58 velocity=92 time=0.0069444375
EXTRACT: note_on channel=3 note=62 velocity=92 time=0
EXTRACT: note_on channel=3 note=70 velocity=92 time=0
EXTRACT: note_on channel=9 note=82 velocity=92 time=0.208333125
EXTRACT: note_on channel=9 note=82 velocity=0 time=0.0763888125
EXTRACT: note_on channel=9 note=82 velocity=92 time=0.2569441875
EXTRACT: note_on channel=1 note=58 velocity=0 time=0.013888875
EXTRACT: note_on channel=3 note=62 velocity=0 time=0
EXTRACT: note_on channel=3 note=70 velocity=0 time=0
EXTRACT: note_on channel=9 note=82 velocity=0 time=0.1041665625
EXTRACT: note_on channel=1 note=57 velocity=92 time=0.0069444375
EXTRACT: note_on channel=3 note=69 velocity=92 time=0
EXTRACT: note_on channel=9 note=82 velocity=92 time=0
EXTRACT: note_on channel=9 note=82 velocity=0 time=0.2013886875
EXTRACT: note_on channel=9 note=82 velocity=92 time=0.0069444375
EXTRACT: note_on channel=9 note=82 velocity=0 time=0.1180554375
EXTRACT: note_on channel=9 note=82 velocity=92 time=0.0069444375
EXTRACT: note_on channel=1 note=43 velocity=0 time=0.1666665
EXTRACT: note_on channel=2 note=50 velocity=0 time=0
EXTRACT: note_on channel=2 note=55 velocity=0 time=0
EXTRACT: note_on channel=9 note=82 velocity=0 time=0.0347221875
EXTRACT: note_on channel=9 note=82 velocity=92 time=0.0069444375
EXTRACT: note_on channel=1 note=57 velocity=0 time=0.013888875
EXTRACT: note_on channel=3 note=69 velocity=0 time=0
EXTRACT: note_on channel=9 note=82 velocity=0 time=0.1041665625
EXTRACT: note_on channel=1 note=53 velocity=92 time=0.0069444375
EXTRACT: note_on channel=1 note=58 velocity=92 time=0
EXTRACT: note_on channel=1 note=46 velocity=92 time=0
EXTRACT: note_on channel=2 note=53 velocity=92 time=0
EXTRACT: note_on channel=2 note=58 velocity=92 time=0
EXTRACT: note_on channel=3 note=65 velocity=92 time=0
EXTRACT: note_on channel=9 note=82 velocity=92 time=0
EXTRACT: note_on channel=9 note=82 velocity=0 time=0.2013886875
EXTRACT: note_on channel=9 note=82 velocity=92 time=0.0069444375
EXTRACT: note_on channel=9 note=82 velocity=0 time=0.1180554375
EXTRACT: note_on channel=9 note=82 velocity=92 time=0.0069444375
EXTRACT: note_on channel=9 note=82 velocity=0 time=0.2013886875
EXTRACT: note_on channel=9 note=82 velocity=92 time=0.0069444375
EXTRACT: note_on channel=9 note=82 velocity=0 time=0.1180554375
EXTRACT: note_on channel=9 note=82 velocity=92 time=0.0069444375
EXTRACT: note_on channel=9 note=82 velocity=0 time=0.2013886875
EXTRACT: note_on channel=9 note=82 velocity=92 time=0.0069444375
EXTRACT: note_on channel=9 note=82 velocity=0 time=0.1180554375
EXTRACT: note_on channel=9 note=82 velocity=92 time=0.0069444375
EXTRACT: note_on channel=9 note=82 velocity=0 time=0.2013886875
EXTRACT: note_on channel=9 note=82 velocity=92 time=0.0069444375
EXTRACT: note_on channel=9 note=82 velocity=0 time=0.1180554375
EXTRACT: note_on channel=9 note=82 velocity=92 time=0.2152775625
EXTRACT: note_on channel=9 note=82 velocity=0 time=0.0763888125
EXTRACT: note_on channel=9 note=82 velocity=92 time=0.2569441875
EXTRACT: note_on channel=9 note=82 velocity=0 time=0.1180554375
EXTRACT: note_on channel=9 note=82 velocity=92 time=0.0069444375
EXTRACT: note_on channel=9 note=82 velocity=0 time=0.2013886875
EXTRACT: note_on channel=9 note=82 velocity=92 time=0.0069444375
EXTRACT: note_on channel=9 note=82 velocity=0 time=0.1180554375
EXTRACT: note_on channel=9 note=82 velocity=92 time=0.0069444375
EXTRACT: note_on channel=1 note=53 velocity=0 time=0.1666665
EXTRACT: note_on channel=1 note=58 velocity=0 time=0
EXTRACT: note_on channel=1 note=46 velocity=0 time=0
EXTRACT: note_on channel=2 note=53 velocity=0 time=0
EXTRACT: note_on channel=2 note=58 velocity=0 time=0
EXTRACT: note_on channel=3 note=65 velocity=0 time=0
EXTRACT: note_on channel=9 note=82 velocity=0 time=0.0347221875
EXTRACT: note_on channel=9 note=82 velocity=92 time=0.0069444375
EXTRACT: note_on channel=9 note=82 velocity=0 time=0.1180554375
EXTRACT: note_on channel=1 note=55 velocity=92 time=0.0069444375
EXTRACT: note_on channel=1 note=60 velocity=92 time=0
EXTRACT: note_on channel=1 note=48 velocity=92 time=0
EXTRACT: note_on channel=2 note=55 velocity=92 time=0
EXTRACT: note_on channel=2 note=60 velocity=92 time=0
EXTRACT: note_on channel=3 note=60 velocity=92 time=0
EXTRACT: note_on channel=3 note=67 velocity=92 time=0
EXTRACT: note_on channel=9 note=82 velocity=92 time=0
EXTRACT: note_on channel=9 note=82 velocity=0 time=0.2013886875
EXTRACT: note_on channel=9 note=82 velocity=92 time=0.0069444375
EXTRACT: note_on channel=9 note=82 velocity=0 time=0.1180554375
EXTRACT: note_on channel=9 note=82 velocity=92 time=0.0069444375
EXTRACT: note_on channel=9 note=82 velocity=0 time=0.2013886875
EXTRACT: note_on channel=9 note=82 velocity=92 time=0.0069444375
EXTRACT: note_on channel=9 note=82 velocity=0 time=0.1180554375
EXTRACT: note_on channel=9 note=82 velocity=92 time=0.0069444375
EXTRACT: note_on channel=9 note=82 velocity=0 time=0.2013886875
EXTRACT: note_on channel=9 note=82 velocity=92 time=0.0069444375
EXTRACT: note_on channel=9 note=82 velocity=0 time=0.1180554375
EXTRACT: note_on channel=9 note=82 velocity=92 time=0.0069444375
EXTRACT: note_on channel=9 note=82 velocity=0 time=0.2013886875
EXTRACT: note_on channel=9 note=82 velocity=92 time=0.0069444375
EXTRACT: note_on channel=9 note=82 velocity=0 time=0.1180554375
EXTRACT: note_on channel=9 note=82 velocity=92 time=0.2152775625
EXTRACT: note_on channel=9 note=82 velocity=0 time=0.0763888125
EXTRACT: note_on channel=9 note=82 velocity=92 time=0.2569441875
EXTRACT: note_on channel=9 note=82 velocity=0 time=0.1180554375
EXTRACT: note_on channel=9 note=82 velocity=92 time=0.0069444375
EXTRACT: note_on channel=9 note=82 velocity=0 time=0.2013886875
EXTRACT: note_on channel=9 note=82 velocity=92 time=0.0069444375
EXTRACT: note_on channel=9 note=82 velocity=0 time=0.1180554375
EXTRACT: note_on channel=9 note=82 velocity=92 time=0.0069444375
EXTRACT: note_on channel=1 note=55 velocity=0 time=0.1666665
EXTRACT: note_on channel=1 note=60 velocity=0 time=0
EXTRACT: note_on channel=1 note=48 velocity=0 time=0
EXTRACT: note_on channel=2 note=55 velocity=0 time=0
EXTRACT: note_on channel=2 note=60 velocity=0 time=0
EXTRACT: note_on channel=3 note=60 velocity=0 time=0
EXTRACT: note_on channel=3 note=67 velocity=0 time=0
EXTRACT: note_on channel=9 note=82 velocity=0 time=0.0347221875
EXTRACT: note_on channel=9 note=82 velocity=92 time=0.0069444375
EXTRACT: note_on channel=9 note=82 velocity=0 time=0.1180554375
EXTRACT: note_on channel=1 note=58 velocity=92 time=0.0069444375
EXTRACT: note_on channel=1 note=63 velocity=92 time=0
EXTRACT: note_on channel=1 note=51 velocity=92 time=0
EXTRACT: note_on channel=2 note=51 velocity=92 time=0
EXTRACT: note_on channel=2 note=58 velocity=92 time=0
EXTRACT: note_on channel=3 note=63 velocity=92 time=0
EXTRACT: note_on channel=3 note=70 velocity=92 time=0
EXTRACT: note_on channel=9 note=82 velocity=92 time=0
EXTRACT: note_on channel=9 note=82 velocity=0 time=0.2013886875
EXTRACT: note_on channel=9 note=82 velocity=92 time=0.0069444375
EXTRACT: note_on channel=9 note=82 velocity=0 time=0.1180554375
EXTRACT: note_on channel=9 note=82 velocity=92 time=0.0069444375
EXTRACT: note_on channel=9 note=82 velocity=0 time=0.2013886875
EXTRACT: note_on channel=9 note=82 velocity=92 time=0.0069444375
EXTRACT: note_on channel=9 note=82 velocity=0 time=0.1180554375
EXTRACT: note_on channel=9 note=82 velocity=92 time=0.0069444375
EXTRACT: note_on channel=9 note=82 velocity=0 time=0.2013886875
EXTRACT: note_on channel=9 note=82 velocity=92 time=0.0069444375
EXTRACT: note_on channel=9 note=82 velocity=0 time=0.1180554375
EXTRACT: note_on channel=9 note=82 velocity=92 time=0.0069444375
EXTRACT: note_on channel=1 note=58 velocity=0 time=0.1666665
EXTRACT: note_on channel=1 note=63 velocity=0 time=0
EXTRACT: note_on channel=3 note=63 velocity=0 time=0
EXTRACT: note_on channel=3 note=70 velocity=0 time=0
EXTRACT: note_on channel=9 note=82 velocity=0 time=0.0347221875
EXTRACT: note_on channel=9 note=82 velocity=92 time=0.0069444375
EXTRACT: note_on channel=9 note=82 velocity=0 time=0.1180554375
EXTRACT: note_on channel=1 note=60 velocity=92 time=0.0069444375
EXTRACT: note_on channel=3 note=72 velocity=92 time=0
EXTRACT: note_on channel=9 note=82 velocity=92 time=0.208333125
EXTRACT: note_on channel=9 note=82 velocity=0 time=0.0763888125
EXTRACT: note_on channel=9 note=82 velocity=92 time=0.2569441875
EXTRACT: note_on channel=1 note=60 velocity=0 time=0.013888875
EXTRACT: note_on channel=3 note=72 velocity=0 time=0
EXTRACT: note_on channel=9 note=82 velocity=0 time=0.1041665625
EXTRACT: note_on channel=1 note=62 velocity=92 time=0.0069444375
EXTRACT: note_on channel=3 note=74 velocity=92 time=0
EXTRACT: note_on channel=9 note=82 velocity=92 time=0
EXTRACT: note_on channel=9 note=82 velocity=0 time=0.2013886875
EXTRACT: note_on channel=9 note=82 velocity=92 time=0.0069444375
EXTRACT: note_on channel=9 note=82 velocity=0 time=0.1180554375
EXTRACT: note_on channel=9 note=82 velocity=92 time=0.0069444375
EXTRACT: note_on channel=1 note=51 velocity=0 time=0.1666665
EXTRACT: note_on channel=2 note=51 velocity=0 time=0
EXTRACT: note_on channel=2 note=58 velocity=0 time=0
EXTRACT: note_on channel=9 note=82 velocity=0 time=0.0347221875
EXTRACT: note_on channel=9 note=82 velocity=92 time=0.0069444375
EXTRACT: note_on channel=1 note=62 velocity=0 time=0.013888875
EXTRACT: note_on channel=3 note=74 velocity=0 time=0
EXTRACT: note_on channel=9 note=82 velocity=0 time=0.1041665625
EXTRACT: note_on channel=1 note=53 velocity=92 time=0.0069444375
EXTRACT: note_on channel=1 note=58 velocity=92 time=0
EXTRACT: note_on channel=1 note=46 velocity=92 time=0
EXTRACT: note_on channel=2 note=58 velocity=92 time=0
EXTRACT: note_on channel=2 note=62 velocity=92 time=0
EXTRACT: note_on channel=3 note=65 velocity=92 time=0
EXTRACT: note_on channel=3 note=70 velocity=92 time=0
EXTRACT: note_on channel=9 note=82 velocity=92 time=0
EXTRACT: note_on channel=9 note=82 velocity=0 time=0.2013886875
EXTRACT: note_on channel=9 note=82 velocity=92 time=0.0069444375
EXTRACT: note_on channel=9 note=82 velocity=0 time=0.1180554375
EXTRACT: note_on channel=9 note=82 velocity=92 time=0.0069444375
EXTRACT: note_on channel=9 note=82 velocity=0 time=0.2013886875
EXTRACT: note_on channel=9 note=82 velocity=92 time=0.0069444375
EXTRACT: note_on channel=9 note=82 velocity=0 time=0.1180554375
EXTRACT: note_on channel=9 note=82 velocity=92 time=0.0069444375
EXTRACT: note_on channel=9 note=82 velocity=0 time=0.2013886875
EXTRACT: note_on channel=9 note=82 velocity=92 time=0.0069444375
EXTRACT: note_on channel=9 note=82 velocity=0 time=0.1180554375
EXTRACT: note_on channel=9 note=82 velocity=92 time=0.0069444375
EXTRACT: note_on channel=1 note=53 velocity=0 time=0.1666665
EXTRACT: note_on channel=1 note=58 velocity=0 time=0
EXTRACT: note_on channel=9 note=82 velocity=0 time=0.0347221875
EXTRACT: note_on channel=9 note=82 velocity=92 time=0.0069444375
EXTRACT: note_on channel=9 note=82 velocity=0 time=0.1180554375
EXTRACT: note_on channel=1 note=62 velocity=92 time=0.0069444375
EXTRACT: note_on channel=9 note=82 velocity=92 time=0.208333125
EXTRACT: note_on channel=9 note=82 velocity=0 time=0.0763888125
EXTRACT: note_on channel=9 note=82 velocity=92 time=0.2569441875
EXTRACT: note_on channel=1 note=62 velocity=0 time=0.013888875
EXTRACT: note_on channel=9 note=82 velocity=0 time=0.1041665625
EXTRACT: note_on channel=1 note=60 velocity=92 time=0.0069444375
EXTRACT: note_on channel=9 note=82 velocity=92 time=0
EXTRACT: note_on channel=9 note=82 velocity=0 time=0.2013886875
EXTRACT: note_on channel=9 note=82 velocity=92 time=0.0069444375
EXTRACT: note_on channel=9 note=82 velocity=0 time=0.1180554375
EXTRACT: note_on channel=9 note=82 velocity=92 time=0.0069444375
EXTRACT: note_on channel=1 note=46 velocity=0 time=0.1666665
EXTRACT: note_on channel=2 note=58 velocity=0 time=0
EXTRACT: note_on channel=2 note=62 velocity=0 time=0
EXTRACT: note_on channel=3 note=65 velocity=0 time=0
EXTRACT: note_on channel=3 note=70 velocity=0 time=0
EXTRACT: note_on channel=9 note=82 velocity=0 time=0.0347221875
EXTRACT: note_on channel=9 note=82 velocity=92 time=0.0069444375
EXTRACT: note_on channel=1 note=60 velocity=0 time=0.013888875
EXTRACT: note_on channel=9 note=82 velocity=0 time=0.1041665625
EXTRACT: note_on channel=1 note=53 velocity=92 time=0.0069444375
EXTRACT: note_on channel=1 note=57 velocity=92 time=0
EXTRACT: note_on channel=1 note=60 velocity=92 time=0
EXTRACT: note_on channel=1 note=65 velocity=92 time=0
EXTRACT: note_on channel=2 note=57 velocity=92 time=0
EXTRACT: note_on channel=3 note=69 velocity=92 time=0
EXTRACT: note_on channel=9 note=82 velocity=92 time=0
EXTRACT: note_on channel=9 note=82 velocity=0 time=0.2013886875
EXTRACT: note_on channel=9 note=82 velocity=92 time=0.0069444375
EXTRACT: note_on channel=9 note=82 velocity=0 time=0.1180554375
EXTRACT: note_on channel=9 note=82 velocity=92 time=0.0069444375
EXTRACT: note_on channel=9 note=82 velocity=0 time=0.2013886875
EXTRACT: note_on channel=9 note=82 velocity=92 time=0.0069444375
EXTRACT: note_on channel=9 note=82 velocity=0 time=0.1180554375
EXTRACT: note_on channel=9 note=82 velocity=92 time=0.0069444375
EXTRACT: note_on channel=9 note=82 velocity=0 time=0.2013886875
EXTRACT: note_on channel=9 note=82 velocity=92 time=0.0069444375
EXTRACT: note_on channel=9 note=82 velocity=0 time=0.1180554375
EXTRACT: note_on channel=9 note=82 velocity=92 time=0.0069444375
EXTRACT: note_on channel=9 note=82 velocity=0 time=0.2013886875
EXTRACT: note_on channel=9 note=82 velocity=92 time=0.0069444375
EXTRACT: note_on channel=9 note=82 velocity=0 time=0.1180554375
EXTRACT: note_on channel=9 note=82 velocity=92 time=0.2152775625
EXTRACT: note_on channel=9 note=82 velocity=0 time=0.0763888125
EXTRACT: note_on channel=9 note=82 velocity=92 time=0.2569441875
EXTRACT: note_on channel=9 note=82 velocity=0 time=0.1180554375
EXTRACT: note_on channel=9 note=82 velocity=92 time=0.0069444375
EXTRACT: note_on channel=9 note=82 velocity=0 time=0.2013886875
EXTRACT: note_on channel=9 note=82 velocity=92 time=0.0069444375
EXTRACT: note_on channel=9 note=82 velocity=0 time=0.1180554375
EXTRACT: note_on channel=9 note=82 velocity=92 time=0.0069444375
EXTRACT: note_on channel=1 note=53 velocity=0 time=0.1666665
EXTRACT: note_on channel=1 note=57 velocity=0 time=0
EXTRACT: note_on channel=1 note=60 velocity=0 time=0
EXTRACT: note_on channel=1 note=65 velocity=0 time=0
EXTRACT: note_on channel=2 note=57 velocity=0 time=0
EXTRACT: note_on channel=3 note=69 velocity=0 time=0
EXTRACT: note_on channel=9 note=82 velocity=0 time=0.0347221875
EXTRACT: note_on channel=9 note=82 velocity=92 time=0.0069444375
EXTRACT: note_on channel=9 note=82 velocity=0 time=0.1180554375
EXTRACT: note_on channel=1 note=52 velocity=92 time=0.0069444375
EXTRACT: note_on channel=1 note=55 velocity=92 time=0
EXTRACT: note_on channel=1 note=62 velocity=92 time=0
EXTRACT: note_on channel=1 note=48 velocity=92 time=0
EXTRACT: note_on channel=2 note=55 velocity=92 time=0
EXTRACT: note_on channel=3 note=64 velocity=92 time=0
EXTRACT: note_on channel=3 note=67 velocity=92 time=0
EXTRACT: note_on channel=9 note=82 velocity=92 time=0
EXTRACT: note_on channel=9 note=82 velocity=0 time=0.2013886875
EXTRACT: note_on channel=9 note=82 velocity=92 time=0.0069444375
EXTRACT: note_on channel=9 note=82 velocity=0 time=0.1180554375
EXTRACT: note_on channel=9 note=82 velocity=92 time=0.0069444375
EXTRACT: note_on channel=9 note=82 velocity=0 time=0.2013886875
EXTRACT: note_on channel=9 note=82 velocity=92 time=0.0069444375
EXTRACT: note_on channel=9 note=82 velocity=0 time=0.1180554375
EXTRACT: note_on channel=9 note=82 velocity=92 time=0.0069444375
EXTRACT: note_on channel=9 note=82 velocity=0 time=0.2013886875
EXTRACT: note_on channel=9 note=82 velocity=92 time=0.0069444375
EXTRACT: note_on channel=9 note=82 velocity=0 time=0.1180554375
EXTRACT: note_on channel=9 note=82 velocity=92 time=0.0069444375
EXTRACT: note_on channel=2 note=55 velocity=0 time=0.1666665
EXTRACT: note_on channel=3 note=64 velocity=0 time=0
EXTRACT: note_on channel=3 note=67 velocity=0 time=0
EXTRACT: note_on channel=9 note=82 velocity=0 time=0.0347221875
EXTRACT: note_on channel=9 note=82 velocity=92 time=0.0069444375
EXTRACT: note_on channel=9 note=82 velocity=0 time=0.1180554375
EXTRACT: note_on channel=2 note=60 velocity=92 time=0.0069444375
EXTRACT: note_on channel=3 note=72 velocity=92 time=0
EXTRACT: note_on channel=9 note=82 velocity=92 time=0.208333125
EXTRACT: note_on channel=9 note=82 velocity=0 time=0.0763888125
EXTRACT: note_on channel=9 note=82 velocity=92 time=0.2569441875
EXTRACT: note_on channel=9 note=82 velocity=0 time=0.1180554375
EXTRACT: note_on channel=9 note=82 velocity=92 time=0.0069444375
EXTRACT: note_on channel=9 note=82 velocity=0 time=0.2013886875
EXTRACT: note_on channel=9 note=82 velocity=92 time=0.0069444375
EXTRACT: note_on channel=9 note=82 velocity=0 time=0.1180554375
EXTRACT: note_on channel=9 note=82 velocity=92 time=0.0069444375
EXTRACT: note_on channel=1 note=52 velocity=0 time=0.1180554375
EXTRACT: note_on channel=1 note=55 velocity=0 time=0
EXTRACT: note_on channel=1 note=62 velocity=0 time=0
EXTRACT: note_on channel=1 note=48 velocity=0 time=0.0486110625
EXTRACT: note_on channel=2 note=60 velocity=0 time=0
EXTRACT: note_on channel=3 note=72 velocity=0 time=0
EXTRACT: note_on channel=9 note=82 velocity=0 time=0.0347221875
EXTRACT: note_on channel=9 note=82 velocity=92 time=0.0069444375
EXTRACT: note_on channel=9 note=82 velocity=0 time=0.1180554375
EXTRACT: note_on channel=1 note=55 velocity=92 time=0.0069444375
EXTRACT: note_on channel=1 note=58 velocity=92 time=0
EXTRACT: note_on channel=1 note=51 velocity=92 time=0
EXTRACT: note_on channel=2 note=51 velocity=92 time=0
EXTRACT: note_on channel=3 note=63 velocity=92 time=0
EXTRACT: note_on channel=3 note=70 velocity=92 time=0
EXTRACT: note_on channel=9 note=82 velocity=92 time=0
EXTRACT: note_on channel=9 note=82 velocity=0 time=0.2013886875
EXTRACT: note_on channel=9 note=82 velocity=92 time=0.0069444375
EXTRACT: note_on channel=9 note=82 velocity=0 time=0.1180554375
EXTRACT: note_on channel=9 note=82 velocity=92 time=0.0069444375
EXTRACT: note_on channel=9 note=82 velocity=0 time=0.2013886875
EXTRACT: note_on channel=9 note=82 velocity=92 time=0.0069444375
EXTRACT: note_on channel=9 note=82 velocity=0 time=0.1180554375
EXTRACT: note_on channel=9 note=82 velocity=92 time=0.0069444375
EXTRACT: note_on channel=9 note=82 velocity=0 time=0.2013886875
EXTRACT: note_on channel=9 note=82 velocity=92 time=0.0069444375
EXTRACT: note_on channel=9 note=82 velocity=0 time=0.1180554375
EXTRACT: note_on channel=9 note=82 velocity=92 time=0.0069444375
EXTRACT: note_on channel=1 note=55 velocity=0 time=0.1666665
EXTRACT: note_on channel=1 note=58 velocity=0 time=0
EXTRACT: note_on channel=3 note=63 velocity=0 time=0
EXTRACT: note_on channel=3 note=70 velocity=0 time=0
EXTRACT: note_on channel=9 note=82 velocity=0 time=0.0347221875
EXTRACT: note_on channel=9 note=82 velocity=92 time=0.0069444375
EXTRACT: note_on channel=9 note=82 velocity=0 time=0.1180554375
EXTRACT: note_on channel=1 note=60 velocity=92 time=0.0069444375
EXTRACT: note_on channel=3 note=72 velocity=92 time=0
EXTRACT: note_on channel=9 note=82 velocity=92 time=0.208333125
EXTRACT: note_on channel=9 note=82 velocity=0 time=0.0763888125
EXTRACT: note_on channel=9 note=82 velocity=92 time=0.2569441875
EXTRACT: note_on channel=1 note=60 velocity=0 time=0.013888875
EXTRACT: note_on channel=3 note=72 velocity=0 time=0
EXTRACT: note_on channel=9 note=82 velocity=0 time=0.1041665625
EXTRACT: note_on channel=1 note=62 velocity=92 time=0.0069444375
EXTRACT: note_on channel=3 note=74 velocity=92 time=0
EXTRACT: note_on channel=9 note=82 velocity=92 time=0
EXTRACT: note_on channel=9 note=82 velocity=0 time=0.2013886875
EXTRACT: note_on channel=9 note=82 velocity=92 time=0.0069444375
EXTRACT: note_on channel=9 note=82 velocity=0 time=0.1180554375
EXTRACT: note_on channel=9 note=82 velocity=92 time=0.0069444375
EXTRACT: note_on channel=1 note=51 velocity=0 time=0.1666665
EXTRACT: note_on channel=2 note=51 velocity=0 time=0
EXTRACT: note_on channel=9 note=82 velocity=0 time=0.0347221875
EXTRACT: note_on channel=9 note=82 velocity=92 time=0.0069444375
EXTRACT: note_on channel=1 note=62 velocity=0 time=0.013888875
EXTRACT: note_on channel=3 note=74 velocity=0 time=0
EXTRACT: note_on channel=9 note=82 velocity=0 time=0.1041665625
EXTRACT: note_on channel=2 note=34 velocity=92 time=0.0069444375
EXTRACT: note_on channel=3 note=58 velocity=92 time=0
EXTRACT: note_on channel=3 note=62 velocity=92 time=0
EXTRACT: note_on channel=3 note=65 velocity=92 time=0
EXTRACT: note_on channel=3 note=70 velocity=92 time=0
EXTRACT: note_on channel=9 note=81 velocity=92 time=0
EXTRACT: note_on channel=1 note=62 velocity=92 time=0.041666625
EXTRACT: note_on channel=1 note=34 velocity=92 time=0
EXTRACT: note_on channel=1 note=62 velocity=0 time=0.0347221875
EXTRACT: note_on channel=1 note=34 velocity=0 time=0
EXTRACT: note_on channel=1 note=65 velocity=92 time=0.0069444375
EXTRACT: note_on channel=1 note=70 velocity=92 time=0
EXTRACT: note_on channel=1 note=46 velocity=92 time=0
EXTRACT: note_on channel=9 note=81 velocity=0 time=2.3263865625
EXTRACT: note_on channel=2 note=34 velocity=0 time=0.291666375
EXTRACT: note_on channel=1 note=46 velocity=0 time=0.041666625
EXTRACT: note_on channel=3 note=58 velocity=0 time=0
EXTRACT: note_on channel=3 note=62 velocity=0 time=0
EXTRACT: note_on channel=3 note=65 velocity=0 time=0
EXTRACT: note_on channel=3 note=70 velocity=0 time=0
EXTRACT: note_on channel=1 note=65 velocity=0 time=0.041666625
EXTRACT: note_on channel=1 note=70 velocity=0 time=0
