EXTRACT: sysex data=(65,16,66,18,64,0,127,0,65) time=0
EXTRACT: program_change channel=0 program=39 time=0
EXTRACT: control_change channel=0 control=121 value=0 time=0
EXTRACT: program_change channel=1 program=35 time=0
EXTRACT: control_change channel=1 control=121 value=0 time=0
EXTRACT: program_change channel=2 program=5 time=0
EXTRACT: control_change channel=2 control=121 value=0 time=0
EXTRACT: program_change channel=3 program=88 time=0
EXTRACT: control_change channel=3 control=121 value=0 time=0
EXTRACT: program_change channel=4 program=49 time=0
EXTRACT: control_change channel=4 control=121 value=0 time=0
EXTRACT: program_change channel=6 program=120 time=0
EXTRACT: control_change channel=6 control=121 value=0 time=0
EXTRACT: program_change channel=7 program=46 time=0
EXTRACT: control_change channel=7 control=121 value=0 time=0
EXTRACT: program_change channel=8 program=26 time=0
EXTRACT: control_change channel=8 control=121 value=0 time=0
EXTRACT: program_change channel=9 program=25 time=0
EXTRACT: control_change channel=9 control=121 value=0 time=0
EXTRACT: note_on channel=9 note=31 velocity=50 time=0
EXTRACT: note_off channel=0 note=59 velocity=0 time=0
EXTRACT: note_off channel=0 note=55 velocity=0 time=0.0011467875
EXTRACT: note_off channel=0 note=62 velocity=0 time=0.0011467875
EXTRACT: note_off channel=0 note=49 velocity=0 time=0.0011467875
EXTRACT: control_change channel=0 control=0 value=0 time=0.0011467875
EXTRACT: control_change channel=1 control=0 value=0 time=0
EXTRACT: control_change channel=2 control=0 value=0 time=0
EXTRACT: control_change channel=3 control=0 value=0 time=0
EXTRACT: control_change channel=4 control=0 value=0 time=0
EXTRACT: control_change channel=6 control=0 value=0 time=0
EXTRACT: control_change channel=7 control=0 value=0 time=0
EXTRACT: control_change channel=8 control=0 value=0 time=0
EXTRACT: control_change channel=9 control=0 value=0 time=0
EXTRACT: note_off channel=0 note=64 velocity=0 time=0
EXTRACT: note_off channel=0 note=64 velocity=0 time=0.0011467875
EXTRACT: note_off channel=0 note=59 velocity=0 time=0.0011467875
EXTRACT: note_off channel=0 note=61 velocity=0 time=0.0011467875
EXTRACT: control_change channel=0 control=32 value=0 time=0.0011467875
EXTRACT: control_change channel=1 control=32 value=0 time=0
EXTRACT: control_change channel=2 control=32 value=0 time=0
EXTRACT: control_change channel=3 control=32 value=0 time=0
EXTRACT: control_change channel=4 control=32 value=0 time=0
EXTRACT: control_change channel=6 control=32 value=0 time=0
EXTRACT: control_change channel=7 control=32 value=0 time=0
EXTRACT: control_change channel=8 control=32 value=0 time=0
EXTRACT: control_change channel=9 control=32 value=0 time=0
EXTRACT: note_off channel=0 note=57 velocity=0 time=0
EXTRACT: note_off channel=0 note=50 velocity=0 time=0.0011467875
EXTRACT: note_off channel=0 note=61 velocity=0 time=0.0011467875
EXTRACT: note_off channel=0 note=50 velocity=0 time=0.0011467875
EXTRACT: program_change channel=0 program=87 time=0.0011467875
EXTRACT: program_change channel=1 program=35 time=0
EXTRACT: program_change channel=2 program=5 time=0
EXTRACT: program_change channel=3 program=88 time=0
EXTRACT: program_change channel=4 program=49 time=0
EXTRACT: program_change channel=6 program=120 time=0
EXTRACT: program_change channel=7 program=46 time=0
EXTRACT: program_change channel=8 program=26 time=0
EXTRACT: program_change channel=9 program=25 time=0
EXTRACT: note_off channel=0 note=64 velocity=0 time=0
EXTRACT: note_off channel=0 note=55 velocity=0 time=0.0011467875
EXTRACT: note_off channel=0 note=69 velocity=0 time=0.0011467875
EXTRACT: note_off channel=0 note=62 velocity=0 time=0.0011467875
EXTRACT: control_change channel=0 control=7 value=50 time=0.0011467875
EXTRACT: control_change channel=1 control=7 value=80 time=0
EXTRACT: control_change channel=2 control=7 value=60 time=0
EXTRACT: control_change channel=3 control=7 value=60 time=0
EXTRACT: control_change channel=4 control=7 value=40 time=0
EXTRACT: control_change channel=6 control=7 value=80 time=0
EXTRACT: control_change channel=7 control=7 value=80 time=0
EXTRACT: control_change channel=8 control=7 value=64 time=0
EXTRACT: control_change channel=9 control=7 value=127 time=0
EXTRACT: control_change channel=0 control=11 value=127 time=0.00458715
EXTRACT: control_change channel=1 control=11 value=127 time=0
EXTRACT: control_change channel=2 control=11 value=127 time=0
EXTRACT: control_change channel=3 control=11 value=127 time=0
EXTRACT: control_change channel=4 control=11 value=127 time=0
EXTRACT: control_change channel=6 control=11 value=127 time=0
EXTRACT: control_change channel=7 control=11 value=127 time=0
EXTRACT: control_change channel=8 control=11 value=127 time=0
EXTRACT: control_change channel=9 control=11 value=127 time=0
EXTRACT: control_change channel=0 control=10 value=64 time=0.00458715
EXTRACT: control_change channel=1 control=10 value=64 time=0
EXTRACT: control_change channel=2 control=10 value=127 time=0
EXTRACT: control_change channel=3 control=10 value=1 time=0
EXTRACT: control_change channel=4 control=10 value=64 time=0
EXTRACT: control_change channel=6 control=10 value=64 time=0
EXTRACT: control_change channel=7 control=10 value=64 time=0
EXTRACT: control_change channel=8 control=10 value=64 time=0
EXTRACT: control_change channel=9 control=10 value=64 time=0
EXTRACT: control_change channel=0 control=91 value=64 time=0.00458715
EXTRACT: control_change channel=1 control=91 value=64 time=0
EXTRACT: control_change channel=2 control=91 value=100 time=0
EXTRACT: control_change channel=3 control=91 value=100 time=0
EXTRACT: control_change channel=4 control=91 value=100 time=0
EXTRACT: control_change channel=6 control=91 value=64 time=0
EXTRACT: control_change channel=7 control=91 value=64 time=0
EXTRACT: control_change channel=8 control=91 value=64 time=0
EXTRACT: control_change channel=9 control=91 value=100 time=0
EXTRACT: control_change channel=0 control=93 value=0 time=0.00458715
EXTRACT: control_change channel=1 control=93 value=40 time=0
EXTRACT: control_change channel=2 control=93 value=0 time=0
EXTRACT: control_change channel=3 control=93 value=0 time=0
EXTRACT: control_change channel=4 control=93 value=100 time=0
EXTRACT: control_change channel=6 control=93 value=64 time=0
EXTRACT: control_change channel=7 control=93 value=20 time=0
EXTRACT: control_change channel=8 control=93 value=40 time=0
EXTRACT: control_change channel=9 control=93 value=0 time=0
EXTRACT: note_on channel=9 note=31 velocity=0 time=0.0091743
EXTRACT: note_off channel=0 note=59 velocity=0 time=0.213302475
EXTRACT: note_off channel=0 note=55 velocity=0 time=0.0814219125
EXTRACT: note_off channel=0 note=62 velocity=0 time=0.10550445
EXTRACT: note_on channel=9 note=31 velocity=50 time=0.1043576625
EXTRACT: note_on channel=9 note=31 velocity=0 time=0.045871499999999996
EXTRACT: note_off channel=0 note=49 velocity=0 time=0.006880725
EXTRACT: note_off channel=0 note=64 velocity=0 time=0.19724745
EXTRACT: note_off channel=0 note=64 velocity=0 time=0
EXTRACT: note_off channel=0 note=59 velocity=0 time=0.1548163125
EXTRACT: note_off channel=0 note=61 velocity=0 time=0.0974769375
EXTRACT: note_off channel=0 note=57 velocity=0 time=0.0275229
EXTRACT: note_on channel=9 note=31 velocity=50 time=0.020642175
EXTRACT: note_off channel=0 note=50 velocity=0 time=0.0034403625
EXTRACT: note_off channel=0 note=61 velocity=0 time=0.025229325
EXTRACT: note_on channel=9 note=31 velocity=0 time=0.0172018125
EXTRACT: note_off channel=0 note=64 velocity=0 time=0.2144492625
EXTRACT: note_on channel=9 note=36 velocity=98 time=0.0149082375
EXTRACT: note_on channel=9 note=36 velocity=0 time=0.045871499999999996
EXTRACT: note_off channel=0 note=50 velocity=0 time=0.0011467875
EXTRACT: note_off channel=0 note=55 velocity=0 time=0.06880725
EXTRACT: note_off channel=0 note=69 velocity=0 time=0.116972325
EXTRACT: note_on channel=9 note=38 velocity=127 time=0.0424311375
EXTRACT: note_off channel=0 note=62 velocity=0 time=0.0366972
EXTRACT: note_on channel=9 note=38 velocity=0 time=0.0091743
EXTRACT: note_on channel=9 note=61 velocity=44 time=0.2293575
EXTRACT: note_on channel=9 note=36 velocity=92 time=0
EXTRACT: note_on channel=9 note=61 velocity=0 time=0.045871499999999996
EXTRACT: note_on channel=9 note=36 velocity=0 time=0
EXTRACT: note_on channel=9 note=61 velocity=44 time=0.09174299999999999
EXTRACT: note_on channel=9 note=36 velocity=92 time=0
EXTRACT: note_on channel=9 note=61 velocity=0 time=0.045871499999999996
EXTRACT: note_on channel=9 note=36 velocity=0 time=0
EXTRACT: note_on channel=9 note=61 velocity=44 time=0.09633015
EXTRACT: note_on channel=9 note=42 velocity=42 time=0
EXTRACT: note_on channel=9 note=36 velocity=98 time=0
EXTRACT: note_on channel=9 note=61 velocity=0 time=0.045871499999999996
EXTRACT: note_on channel=9 note=42 velocity=0 time=0
EXTRACT: note_on channel=9 note=36 velocity=0 time=0
EXTRACT: note_on channel=9 note=42 velocity=42 time=0.2293575
EXTRACT: note_on channel=9 note=42 velocity=0 time=0.045871499999999996
EXTRACT: note_on channel=9 note=61 velocity=44 time=0.09174299999999999
EXTRACT: note_on channel=9 note=36 velocity=98 time=0
EXTRACT: note_on channel=9 note=61 velocity=0 time=0.045871499999999996
EXTRACT: note_on channel=9 note=36 velocity=0 time=0
EXTRACT: note_on channel=9 note=38 velocity=127 time=0.09174299999999999
EXTRACT: note_on channel=9 note=42 velocity=42 time=0
EXTRACT: note_on channel=9 note=38 velocity=0 time=0.045871499999999996
EXTRACT: note_on channel=9 note=42 velocity=0 time=0
EXTRACT: note_on channel=9 note=69 velocity=78 time=0.2293575
EXTRACT: note_on channel=9 note=42 velocity=42 time=0
EXTRACT: note_on channel=9 note=69 velocity=0 time=0.045871499999999996
EXTRACT: note_on channel=9 note=42 velocity=0 time=0
EXTRACT: note_on channel=9 note=69 velocity=75 time=0.09174299999999999
EXTRACT: note_on channel=9 note=69 velocity=0 time=0.045871499999999996
EXTRACT: note_on channel=9 note=69 velocity=75 time=0.09174299999999999
EXTRACT: note_on channel=9 note=42 velocity=42 time=0
EXTRACT: note_on channel=9 note=69 velocity=0 time=0.045871499999999996
EXTRACT: note_on channel=9 note=42 velocity=0 time=0
EXTRACT: note_on channel=9 note=42 velocity=42 time=0.2293575
EXTRACT: note_on channel=9 note=36 velocity=98 time=0
EXTRACT: note_on channel=9 note=42 velocity=0 time=0.045871499999999996
EXTRACT: note_on channel=9 note=36 velocity=0 time=0
EXTRACT: note_on channel=9 note=38 velocity=127 time=0.2293575
EXTRACT: note_on channel=9 note=42 velocity=42 time=0
EXTRACT: note_on channel=9 note=38 velocity=0 time=0.045871499999999996
EXTRACT: note_on channel=9 note=42 velocity=0 time=0
EXTRACT: note_on channel=9 note=69 velocity=77 time=0.2293575
EXTRACT: note_on channel=9 note=61 velocity=44 time=0
EXTRACT: note_on channel=9 note=42 velocity=42 time=0
EXTRACT: note_on channel=9 note=69 velocity=0 time=0.045871499999999996
EXTRACT: note_on channel=9 note=61 velocity=0 time=0
EXTRACT: note_on channel=9 note=42 velocity=0 time=0
EXTRACT: note_on channel=9 note=61 velocity=44 time=0.09174299999999999
EXTRACT: note_on channel=9 note=61 velocity=0 time=0.045871499999999996
EXTRACT: note_on channel=9 note=61 velocity=44 time=0.09174299999999999
EXTRACT: note_on channel=9 note=42 velocity=42 time=0
EXTRACT: note_on channel=9 note=36 velocity=98 time=0
EXTRACT: note_on channel=9 note=61 velocity=0 time=0.045871499999999996
EXTRACT: note_on channel=9 note=42 velocity=0 time=0
EXTRACT: note_on channel=9 note=36 velocity=0 time=0
EXTRACT: note_on channel=9 note=61 velocity=44 time=0.09174299999999999
EXTRACT: note_on channel=9 note=61 velocity=0 time=0.045871499999999996
EXTRACT: note_on channel=9 note=61 velocity=44 time=0.09174299999999999
EXTRACT: note_on channel=9 note=42 velocity=42 time=0
EXTRACT: note_on channel=9 note=61 velocity=0 time=0.045871499999999996
EXTRACT: note_on channel=9 note=42 velocity=0 time=0
EXTRACT: note_on channel=9 note=36 velocity=98 time=0.09174299999999999
EXTRACT: note_on channel=9 note=36 velocity=0 time=0.045871499999999996
EXTRACT: note_on channel=9 note=38 velocity=127 time=0.09174299999999999
EXTRACT: note_on channel=9 note=42 velocity=42 time=0
EXTRACT: note_on channel=9 note=38 velocity=0 time=0.045871499999999996
EXTRACT: note_on channel=9 note=42 velocity=0 time=0
EXTRACT: note_on channel=9 note=69 velocity=82 time=0.2293575
EXTRACT: note_on channel=9 note=42 velocity=42 time=0
EXTRACT: note_on channel=9 note=69 velocity=0 time=0.045871499999999996
EXTRACT: note_on channel=9 note=42 velocity=0 time=0
EXTRACT: note_on channel=9 note=69 velocity=82 time=0.09174299999999999
EXTRACT: note_on channel=9 note=69 velocity=0 time=0.045871499999999996
EXTRACT: note_on channel=9 note=69 velocity=76 time=0.09174299999999999
EXTRACT: note_on channel=9 note=42 velocity=42 time=0
EXTRACT: note_on channel=9 note=69 velocity=0 time=0.045871499999999996
EXTRACT: note_on channel=9 note=42 velocity=0 time=0
EXTRACT: note_on channel=9 note=42 velocity=42 time=0.2293575
EXTRACT: note_on channel=9 note=36 velocity=98 time=0
EXTRACT: note_on channel=9 note=42 velocity=0 time=0.045871499999999996
EXTRACT: note_on channel=9 note=36 velocity=0 time=0
EXTRACT: note_on channel=9 note=38 velocity=127 time=0.2293575
EXTRACT: note_on channel=9 note=42 velocity=42 time=0
EXTRACT: note_on channel=9 note=38 velocity=0 time=0.045871499999999996
EXTRACT: note_on channel=9 note=42 velocity=0 time=0
EXTRACT: note_on channel=9 note=61 velocity=44 time=0.2293575
EXTRACT: note_on channel=9 note=36 velocity=92 time=0
EXTRACT: note_on channel=9 note=42 velocity=42 time=0
EXTRACT: note_on channel=9 note=61 velocity=0 time=0.045871499999999996
EXTRACT: note_on channel=9 note=36 velocity=0 time=0
EXTRACT: note_on channel=9 note=42 velocity=0 time=0
EXTRACT: note_on channel=9 note=61 velocity=44 time=0.09174299999999999
EXTRACT: note_on channel=9 note=36 velocity=92 time=0
EXTRACT: note_on channel=9 note=61 velocity=0 time=0.045871499999999996
EXTRACT: note_on channel=9 note=36 velocity=0 time=0
EXTRACT: note_on channel=9 note=61 velocity=44 time=0.09174299999999999
EXTRACT: note_on channel=9 note=42 velocity=42 time=0
EXTRACT: note_on channel=9 note=36 velocity=98 time=0
EXTRACT: note_on channel=9 note=61 velocity=0 time=0.045871499999999996
EXTRACT: note_on channel=9 note=42 velocity=0 time=0
EXTRACT: note_on channel=9 note=36 velocity=0 time=0
EXTRACT: note_on channel=9 note=42 velocity=42 time=0.2293575
EXTRACT: note_on channel=9 note=42 velocity=0 time=0.045871499999999996
EXTRACT: note_on channel=9 note=61 velocity=44 time=0.09174299999999999
EXTRACT: note_on channel=9 note=36 velocity=98 time=0
EXTRACT: note_on channel=9 note=61 velocity=0 time=0.045871499999999996
EXTRACT: note_on channel=9 note=36 velocity=0 time=0
EXTRACT: note_on channel=9 note=38 velocity=127 time=0.09174299999999999
EXTRACT: note_on channel=9 note=42 velocity=42 time=0
EXTRACT: note_on channel=9 note=38 velocity=0 time=0.045871499999999996
EXTRACT: note_on channel=9 note=42 velocity=0 time=0
EXTRACT: note_on channel=9 note=69 velocity=81 time=0.2293575
EXTRACT: note_on channel=9 note=42 velocity=42 time=0
EXTRACT: note_on channel=9 note=69 velocity=0 time=0.045871499999999996
EXTRACT: note_on channel=9 note=42 velocity=0 time=0
EXTRACT: note_on channel=9 note=69 velocity=80 time=0.09174299999999999
EXTRACT: note_on channel=9 note=69 velocity=0 time=0.045871499999999996
EXTRACT: note_on channel=9 note=69 velocity=75 time=0.09174299999999999
EXTRACT: note_on channel=9 note=42 velocity=42 time=0
EXTRACT: note_on channel=9 note=69 velocity=0 time=0.045871499999999996
EXTRACT: note_on channel=9 note=42 velocity=0 time=0
EXTRACT: note_on channel=9 note=42 velocity=42 time=0.2293575
EXTRACT: note_on channel=9 note=36 velocity=98 time=0
EXTRACT: note_on channel=9 note=42 velocity=0 time=0.045871499999999996
EXTRACT: note_on channel=9 note=36 velocity=0 time=0
EXTRACT: note_on channel=9 note=38 velocity=127 time=0.2293575
EXTRACT: note_on channel=9 note=42 velocity=42 time=0
EXTRACT: note_on channel=9 note=38 velocity=0 time=0.045871499999999996
EXTRACT: note_on channel=9 note=42 velocity=0 time=0
EXTRACT: note_on channel=9 note=69 velocity=74 time=0.2293575
EXTRACT: note_on channel=9 note=61 velocity=44 time=0
EXTRACT: note_on channel=9 note=42 velocity=42 time=0
EXTRACT: note_on channel=9 note=69 velocity=0 time=0.045871499999999996
EXTRACT: note_on channel=9 note=61 velocity=0 time=0
EXTRACT: note_on channel=9 note=42 velocity=0 time=0
EXTRACT: note_on channel=9 note=61 velocity=44 time=0.09174299999999999
EXTRACT: note_on channel=9 note=61 velocity=0 time=0.045871499999999996
EXTRACT: note_on channel=9 note=61 velocity=44 time=0.09174299999999999
EXTRACT: note_on channel=9 note=42 velocity=42 time=0
EXTRACT: note_on channel=9 note=36 velocity=98 time=0
EXTRACT: note_on channel=9 note=61 velocity=0 time=0.045871499999999996
EXTRACT: note_on channel=9 note=42 velocity=0 time=0
EXTRACT: note_on channel=9 note=36 velocity=0 time=0
EXTRACT: note_on channel=9 note=61 velocity=44 time=0.09174299999999999
EXTRACT: note_on channel=9 note=61 velocity=0 time=0.045871499999999996
EXTRACT: note_on channel=9 note=61 velocity=44 time=0.09174299999999999
EXTRACT: note_on channel=9 note=42 velocity=42 time=0
EXTRACT: note_on channel=9 note=61 velocity=0 time=0.045871499999999996
EXTRACT: note_on channel=9 note=42 velocity=0 time=0
EXTRACT: note_on channel=9 note=36 velocity=98 time=0.09174299999999999
EXTRACT: note_on channel=9 note=36 velocity=0 time=0.045871499999999996
EXTRACT: note_on channel=9 note=38 velocity=127 time=0.09174299999999999
EXTRACT: note_on channel=9 note=42 velocity=42 time=0
EXTRACT: note_on channel=9 note=38 velocity=0 time=0.045871499999999996
EXTRACT: note_on channel=9 note=42 velocity=0 time=0
EXTRACT: note_on channel=9 note=69 velocity=79 time=0.2293575
EXTRACT: note_on channel=9 note=42 velocity=42 time=0
EXTRACT: note_on channel=9 note=69 velocity=0 time=0.045871499999999996
EXTRACT: note_on channel=9 note=42 velocity=0 time=0
EXTRACT: note_on channel=9 note=69 velocity=78 time=0.09174299999999999
EXTRACT: note_on channel=9 note=69 velocity=0 time=0.045871499999999996
EXTRACT: note_on channel=9 note=69 velocity=78 time=0.09174299999999999
EXTRACT: note_on channel=9 note=42 velocity=42 time=0
EXTRACT: note_on channel=9 note=69 velocity=0 time=0.045871499999999996
EXTRACT: note_on channel=9 note=42 velocity=0 time=0
EXTRACT: note_on channel=9 note=42 velocity=42 time=0.2293575
EXTRACT: note_on channel=9 note=36 velocity=98 time=0
EXTRACT: note_on channel=9 note=42 velocity=0 time=0.045871499999999996
EXTRACT: note_on channel=9 note=36 velocity=0 time=0
EXTRACT: note_on channel=9 note=38 velocity=127 time=0.2293575
EXTRACT: note_on channel=9 note=42 velocity=42 time=0
EXTRACT: note_on channel=9 note=38 velocity=0 time=0.045871499999999996
EXTRACT: note_on channel=9 note=42 velocity=0 time=0
EXTRACT: note_on channel=9 note=61 velocity=44 time=0.2293575
EXTRACT: note_on channel=9 note=36 velocity=92 time=0
EXTRACT: note_on channel=9 note=42 velocity=42 time=0
EXTRACT: note_on channel=9 note=61 velocity=0 time=0.045871499999999996
EXTRACT: note_on channel=9 note=36 velocity=0 time=0
EXTRACT: note_on channel=9 note=42 velocity=0 time=0
EXTRACT: note_on channel=9 note=61 velocity=44 time=0.09174299999999999
EXTRACT: note_on channel=9 note=36 velocity=92 time=0
EXTRACT: note_on channel=9 note=61 velocity=0 time=0.045871499999999996
EXTRACT: note_on channel=9 note=36 velocity=0 time=0
EXTRACT: note_on channel=9 note=61 velocity=44 time=0.09174299999999999
EXTRACT: note_on channel=9 note=42 velocity=42 time=0
EXTRACT: note_on channel=9 note=36 velocity=98 time=0
EXTRACT: note_on channel=9 note=61 velocity=0 time=0.045871499999999996
EXTRACT: note_on channel=9 note=42 velocity=0 time=0
EXTRACT: note_on channel=9 note=36 velocity=0 time=0
EXTRACT: note_on channel=9 note=42 velocity=42 time=0.2293575
EXTRACT: note_on channel=9 note=42 velocity=0 time=0.045871499999999996
EXTRACT: note_on channel=9 note=61 velocity=44 time=0.09174299999999999
EXTRACT: note_on channel=9 note=36 velocity=98 time=0
EXTRACT: note_on channel=9 note=61 velocity=0 time=0.045871499999999996
EXTRACT: note_on channel=9 note=36 velocity=0 time=0
EXTRACT: note_on channel=9 note=38 velocity=127 time=0.09174299999999999
EXTRACT: note_on channel=9 note=42 velocity=42 time=0
EXTRACT: note_on channel=9 note=38 velocity=0 time=0.045871499999999996
EXTRACT: note_on channel=9 note=42 velocity=0 time=0
EXTRACT: note_on channel=9 note=69 velocity=80 time=0.2293575
EXTRACT: note_on channel=9 note=42 velocity=42 time=0
EXTRACT: note_on channel=9 note=69 velocity=0 time=0.045871499999999996
EXTRACT: note_on channel=9 note=42 velocity=0 time=0
EXTRACT: note_on channel=9 note=69 velocity=82 time=0.09174299999999999
EXTRACT: note_on channel=9 note=69 velocity=0 time=0.045871499999999996
EXTRACT: note_on channel=9 note=69 velocity=75 time=0.09174299999999999
EXTRACT: note_on channel=9 note=42 velocity=42 time=0
EXTRACT: note_on channel=9 note=69 velocity=0 time=0.045871499999999996
EXTRACT: note_on channel=9 note=42 velocity=0 time=0
EXTRACT: note_on channel=9 note=42 velocity=42 time=0.2293575
EXTRACT: note_on channel=9 note=36 velocity=98 time=0
EXTRACT: note_on channel=9 note=42 velocity=0 time=0.045871499999999996
EXTRACT: note_on channel=9 note=36 velocity=0 time=0
EXTRACT: note_on channel=9 note=38 velocity=127 time=0.2293575
EXTRACT: note_on channel=9 note=42 velocity=42 time=0
EXTRACT: note_on channel=9 note=38 velocity=0 time=0.045871499999999996
EXTRACT: note_on channel=9 note=42 velocity=0 time=0
EXTRACT: note_on channel=9 note=69 velocity=74 time=0.2293575
EXTRACT: note_on channel=9 note=61 velocity=44 time=0
EXTRACT: note_on channel=9 note=42 velocity=42 time=0
EXTRACT: note_on channel=9 note=69 velocity=0 time=0.045871499999999996
EXTRACT: note_on channel=9 note=61 velocity=0 time=0
EXTRACT: note_on channel=9 note=42 velocity=0 time=0
EXTRACT: note_on channel=9 note=61 velocity=44 time=0.09174299999999999
EXTRACT: note_on channel=9 note=61 velocity=0 time=0.045871499999999996
EXTRACT: note_on channel=9 note=61 velocity=44 time=0.09174299999999999
EXTRACT: note_on channel=9 note=42 velocity=42 time=0
EXTRACT: note_on channel=9 note=36 velocity=98 time=0
EXTRACT: note_on channel=9 note=61 velocity=0 time=0.045871499999999996
EXTRACT: note_on channel=9 note=42 velocity=0 time=0
EXTRACT: note_on channel=9 note=36 velocity=0 time=0
EXTRACT: note_on channel=9 note=61 velocity=44 time=0.09174299999999999
EXTRACT: note_on channel=9 note=61 velocity=0 time=0.045871499999999996
EXTRACT: note_on channel=9 note=61 velocity=44 time=0.09174299999999999
EXTRACT: note_on channel=9 note=42 velocity=42 time=0
EXTRACT: note_on channel=9 note=61 velocity=0 time=0.045871499999999996
EXTRACT: note_on channel=9 note=42 velocity=0 time=0
EXTRACT: note_on channel=9 note=36 velocity=98 time=0.09174299999999999
EXTRACT: note_on channel=9 note=36 velocity=0 time=0.045871499999999996
EXTRACT: note_on channel=9 note=38 velocity=127 time=0.09174299999999999
EXTRACT: note_on channel=9 note=42 velocity=42 time=0
EXTRACT: note_on channel=9 note=38 velocity=0 time=0.045871499999999996
EXTRACT: note_on channel=9 note=42 velocity=0 time=0
EXTRACT: note_on channel=9 note=69 velocity=75 time=0.2293575
EXTRACT: note_on channel=9 note=42 velocity=42 time=0
EXTRACT: note_on channel=9 note=69 velocity=0 time=0.045871499999999996
EXTRACT: note_on channel=9 note=42 velocity=0 time=0
EXTRACT: note_on channel=9 note=69 velocity=78 time=0.09174299999999999
EXTRACT: note_on channel=9 note=69 velocity=0 time=0.045871499999999996
EXTRACT: note_on channel=9 note=69 velocity=74 time=0.09174299999999999
EXTRACT: note_on channel=9 note=42 velocity=42 time=0
EXTRACT: note_on channel=9 note=69 velocity=0 time=0.045871499999999996
EXTRACT: note_on channel=9 note=42 velocity=0 time=0
EXTRACT: note_on channel=9 note=42 velocity=42 time=0.2293575
EXTRACT: note_on channel=9 note=36 velocity=98 time=0
EXTRACT: note_on channel=9 note=42 velocity=0 time=0.045871499999999996
EXTRACT: note_on channel=9 note=36 velocity=0 time=0
EXTRACT: note_on channel=9 note=38 velocity=127 time=0.2293575
EXTRACT: note_on channel=9 note=42 velocity=42 time=0
EXTRACT: note_on channel=9 note=38 velocity=0 time=0.045871499999999996
EXTRACT: note_on channel=9 note=42 velocity=0 time=0
EXTRACT: note_on channel=9 note=61 velocity=44 time=0.2293575
EXTRACT: note_on channel=9 note=36 velocity=92 time=0
EXTRACT: note_on channel=9 note=42 velocity=42 time=0
EXTRACT: note_on channel=9 note=61 velocity=0 time=0.045871499999999996
EXTRACT: note_on channel=9 note=36 velocity=0 time=0
EXTRACT: note_on channel=9 note=42 velocity=0 time=0
EXTRACT: note_on channel=9 note=61 velocity=44 time=0.09174299999999999
EXTRACT: note_on channel=9 note=36 velocity=92 time=0
EXTRACT: note_on channel=9 note=61 velocity=0 time=0.045871499999999996
EXTRACT: note_on channel=9 note=36 velocity=0 time=0
EXTRACT: note_on channel=9 note=61 velocity=44 time=0.09174299999999999
EXTRACT: note_on channel=9 note=42 velocity=42 time=0
EXTRACT: note_on channel=9 note=36 velocity=98 time=0
EXTRACT: note_on channel=9 note=61 velocity=0 time=0.045871499999999996
EXTRACT: note_on channel=9 note=42 velocity=0 time=0
EXTRACT: note_on channel=9 note=36 velocity=0 time=0
EXTRACT: note_on channel=9 note=42 velocity=42 time=0.2293575
EXTRACT: note_on channel=9 note=42 velocity=0 time=0.045871499999999996
EXTRACT: note_on channel=9 note=61 velocity=44 time=0.09174299999999999
EXTRACT: note_on channel=9 note=36 velocity=98 time=0
EXTRACT: note_on channel=9 note=61 velocity=0 time=0.045871499999999996
EXTRACT: note_on channel=9 note=36 velocity=0 time=0
EXTRACT: note_on channel=9 note=38 velocity=127 time=0.09174299999999999
EXTRACT: note_on channel=9 note=42 velocity=42 time=0
EXTRACT: note_on channel=9 note=38 velocity=0 time=0.045871499999999996
EXTRACT: note_on channel=9 note=42 velocity=0 time=0
EXTRACT: note_on channel=9 note=69 velocity=77 time=0.2293575
EXTRACT: note_on channel=9 note=42 velocity=42 time=0
EXTRACT: note_on channel=9 note=69 velocity=0 time=0.045871499999999996
EXTRACT: note_on channel=9 note=42 velocity=0 time=0
EXTRACT: note_on channel=9 note=69 velocity=75 time=0.09174299999999999
EXTRACT: note_on channel=9 note=69 velocity=0 time=0.045871499999999996
EXTRACT: note_on channel=9 note=69 velocity=75 time=0.09174299999999999
EXTRACT: note_on channel=9 note=42 velocity=42 time=0
EXTRACT: note_on channel=9 note=69 velocity=0 time=0.045871499999999996
EXTRACT: note_on channel=9 note=42 velocity=0 time=0
EXTRACT: note_on channel=9 note=42 velocity=42 time=0.2293575
EXTRACT: note_on channel=9 note=36 velocity=98 time=0
EXTRACT: note_on channel=9 note=42 velocity=0 time=0.045871499999999996
EXTRACT: note_on channel=9 note=36 velocity=0 time=0
EXTRACT: note_on channel=9 note=38 velocity=127 time=0.2293575
EXTRACT: note_on channel=9 note=42 velocity=42 time=0
EXTRACT: note_on channel=9 note=38 velocity=0 time=0.045871499999999996
EXTRACT: note_on channel=9 note=42 velocity=0 time=0
EXTRACT: note_on channel=9 note=69 velocity=80 time=0.2293575
EXTRACT: note_on channel=9 note=61 velocity=44 time=0
EXTRACT: note_on channel=9 note=42 velocity=42 time=0
EXTRACT: note_on channel=9 note=69 velocity=0 time=0.045871499999999996
EXTRACT: note_on channel=9 note=61 velocity=0 time=0
EXTRACT: note_on channel=9 note=42 velocity=0 time=0
EXTRACT: note_on channel=9 note=61 velocity=44 time=0.09174299999999999
EXTRACT: note_on channel=9 note=61 velocity=0 time=0.045871499999999996
EXTRACT: note_on channel=9 note=61 velocity=44 time=0.09174299999999999
EXTRACT: note_on channel=9 note=42 velocity=42 time=0
EXTRACT: note_on channel=9 note=36 velocity=98 time=0
EXTRACT: note_on channel=9 note=61 velocity=0 time=0.045871499999999996
EXTRACT: note_on channel=9 note=42 velocity=0 time=0
EXTRACT: note_on channel=9 note=36 velocity=0 time=0
EXTRACT: note_on channel=9 note=61 velocity=44 time=0.09174299999999999
EXTRACT: note_on channel=9 note=61 velocity=0 time=0.045871499999999996
EXTRACT: note_on channel=9 note=61 velocity=44 time=0.09174299999999999
EXTRACT: note_on channel=9 note=42 velocity=42 time=0
EXTRACT: note_on channel=9 note=61 velocity=0 time=0.045871499999999996
EXTRACT: note_on channel=9 note=42 velocity=0 time=0
EXTRACT: note_on channel=9 note=36 velocity=98 time=0.09174299999999999
EXTRACT: note_on channel=9 note=36 velocity=0 time=0.045871499999999996
EXTRACT: note_on channel=9 note=38 velocity=127 time=0.09174299999999999
EXTRACT: note_on channel=9 note=42 velocity=42 time=0
EXTRACT: note_on channel=9 note=38 velocity=0 time=0.045871499999999996
EXTRACT: note_on channel=9 note=42 velocity=0 time=0
EXTRACT: note_on channel=9 note=69 velocity=75 time=0.2293575
EXTRACT: note_on channel=9 note=42 velocity=42 time=0
EXTRACT: note_on channel=9 note=69 velocity=0 time=0.045871499999999996
EXTRACT: note_on channel=9 note=42 velocity=0 time=0
EXTRACT: note_on channel=9 note=69 velocity=82 time=0.09174299999999999
EXTRACT: note_on channel=9 note=69 velocity=0 time=0.045871499999999996
EXTRACT: note_on channel=6 note=32 velocity=89 time=0.08715584999999999
EXTRACT: note_on channel=9 note=29 velocity=45 time=0.00458715
EXTRACT: note_on channel=9 note=36 velocity=92 time=0
EXTRACT: note_on channel=9 note=29 velocity=0 time=0.045871499999999996
EXTRACT: note_on channel=9 note=36 velocity=0 time=0
EXTRACT: note_on channel=6 note=32 velocity=0 time=0.0860090625
EXTRACT: note_on channel=6 note=32 velocity=91 time=0.0011467875
EXTRACT: note_on channel=9 note=29 velocity=31 time=0.00458715
EXTRACT: note_on channel=9 note=41 velocity=70 time=0
EXTRACT: note_on channel=9 note=29 velocity=0 time=0.045871499999999996
EXTRACT: note_on channel=9 note=41 velocity=0 time=0
EXTRACT: note_on channel=6 note=32 velocity=0 time=0.0860090625
EXTRACT: note_on channel=6 note=32 velocity=91 time=0.0011467875
EXTRACT: note_on channel=9 note=29 velocity=45 time=0.00458715
EXTRACT: note_on channel=9 note=36 velocity=92 time=0
EXTRACT: note_on channel=9 note=29 velocity=0 time=0.045871499999999996
EXTRACT: note_on channel=9 note=36 velocity=0 time=0
EXTRACT: note_on channel=6 note=32 velocity=0 time=0.0860090625
EXTRACT: note_on channel=6 note=32 velocity=90 time=0.0011467875
EXTRACT: note_on channel=9 note=29 velocity=31 time=0.00458715
EXTRACT: note_on channel=9 note=41 velocity=70 time=0
EXTRACT: note_on channel=9 note=29 velocity=0 time=0.045871499999999996
EXTRACT: note_on channel=9 note=41 velocity=0 time=0
EXTRACT: note_on channel=6 note=32 velocity=0 time=0.0860090625
EXTRACT: note_on channel=6 note=32 velocity=86 time=0.0011467875
EXTRACT: note_on channel=9 note=29 velocity=45 time=0.00458715
EXTRACT: note_on channel=9 note=38 velocity=127 time=0
EXTRACT: note_on channel=9 note=36 velocity=92 time=0
EXTRACT: note_on channel=9 note=29 velocity=0 time=0.045871499999999996
EXTRACT: note_on channel=9 note=38 velocity=0 time=0
EXTRACT: note_on channel=9 note=36 velocity=0 time=0
EXTRACT: note_on channel=6 note=32 velocity=0 time=0.0860090625
EXTRACT: note_on channel=6 note=32 velocity=71 time=0.0011467875
EXTRACT: note_on channel=9 note=29 velocity=31 time=0.00458715
EXTRACT: note_on channel=9 note=41 velocity=70 time=0
EXTRACT: note_on channel=9 note=29 velocity=0 time=0.045871499999999996
EXTRACT: note_on channel=9 note=41 velocity=0 time=0
EXTRACT: note_on channel=6 note=32 velocity=0 time=0.0860090625
EXTRACT: note_on channel=6 note=32 velocity=89 time=0.0011467875
EXTRACT: note_on channel=9 note=61 velocity=44 time=0.00458715
EXTRACT: note_on channel=9 note=29 velocity=45 time=0
EXTRACT: note_on channel=9 note=36 velocity=92 time=0
EXTRACT: note_on channel=9 note=61 velocity=0 time=0.045871499999999996
EXTRACT: note_on channel=9 note=29 velocity=0 time=0
EXTRACT: note_on channel=9 note=36 velocity=0 time=0
EXTRACT: note_on channel=6 note=32 velocity=0 time=0.0860090625
EXTRACT: note_on channel=6 note=32 velocity=64 time=0.0011467875
EXTRACT: note_on channel=9 note=61 velocity=44 time=0.00458715
EXTRACT: note_on channel=9 note=29 velocity=31 time=0
EXTRACT: note_on channel=9 note=41 velocity=70 time=0
EXTRACT: note_on channel=9 note=61 velocity=0 time=0.045871499999999996
EXTRACT: note_on channel=9 note=29 velocity=0 time=0
EXTRACT: note_on channel=9 note=41 velocity=0 time=0
EXTRACT: note_on channel=6 note=32 velocity=0 time=0.08715584999999999
EXTRACT: note_on channel=9 note=61 velocity=44 time=0.00458715
EXTRACT: note_on channel=9 note=57 velocity=100 time=0
EXTRACT: note_on channel=9 note=36 velocity=98 time=0
EXTRACT: note_on channel=9 note=61 velocity=0 time=0.045871499999999996
EXTRACT: note_on channel=9 note=57 velocity=0 time=0
EXTRACT: note_on channel=9 note=36 velocity=0 time=0
EXTRACT: note_on channel=9 note=42 velocity=42 time=0.2293575
EXTRACT: note_on channel=9 note=42 velocity=0 time=0.045871499999999996
EXTRACT: note_on channel=9 note=61 velocity=44 time=0.09174299999999999
EXTRACT: note_on channel=9 note=36 velocity=98 time=0
EXTRACT: note_on channel=9 note=61 velocity=0 time=0.045871499999999996
EXTRACT: note_on channel=9 note=36 velocity=0 time=0
EXTRACT: note_on channel=9 note=38 velocity=127 time=0.09174299999999999
EXTRACT: note_on channel=9 note=42 velocity=42 time=0
EXTRACT: note_on channel=9 note=38 velocity=0 time=0.045871499999999996
EXTRACT: note_on channel=9 note=42 velocity=0 time=0
EXTRACT: note_on channel=9 note=69 velocity=76 time=0.2293575
EXTRACT: note_on channel=9 note=42 velocity=42 time=0
EXTRACT: note_on channel=9 note=69 velocity=0 time=0.045871499999999996
EXTRACT: note_on channel=9 note=42 velocity=0 time=0
EXTRACT: note_on channel=9 note=69 velocity=82 time=0.09174299999999999
EXTRACT: note_on channel=9 note=69 velocity=0 time=0.045871499999999996
EXTRACT: note_on channel=9 note=69 velocity=82 time=0.09174299999999999
EXTRACT: note_on channel=9 note=42 velocity=42 time=0
EXTRACT: note_on channel=9 note=69 velocity=0 time=0.045871499999999996
EXTRACT: note_on channel=9 note=42 velocity=0 time=0
EXTRACT: note_on channel=9 note=42 velocity=42 time=0.2293575
EXTRACT: note_on channel=9 note=36 velocity=98 time=0
EXTRACT: note_on channel=9 note=42 velocity=0 time=0.045871499999999996
EXTRACT: note_on channel=9 note=36 velocity=0 time=0
EXTRACT: note_on channel=9 note=38 velocity=127 time=0.2293575
EXTRACT: note_on channel=9 note=42 velocity=42 time=0
EXTRACT: note_on channel=9 note=38 velocity=0 time=0.045871499999999996
EXTRACT: note_on channel=9 note=42 velocity=0 time=0
EXTRACT: note_on channel=9 note=69 velocity=81 time=0.2293575
EXTRACT: note_on channel=9 note=61 velocity=44 time=0
EXTRACT: note_on channel=9 note=42 velocity=42 time=0
EXTRACT: note_on channel=9 note=69 velocity=0 time=0.045871499999999996
EXTRACT: note_on channel=9 note=61 velocity=0 time=0
EXTRACT: note_on channel=9 note=42 velocity=0 time=0
EXTRACT: note_on channel=9 note=61 velocity=44 time=0.09174299999999999
EXTRACT: note_on channel=9 note=61 velocity=0 time=0.045871499999999996
EXTRACT: note_on channel=9 note=61 velocity=44 time=0.09174299999999999
EXTRACT: note_on channel=9 note=42 velocity=42 time=0
EXTRACT: note_on channel=9 note=36 velocity=98 time=0
EXTRACT: note_on channel=9 note=61 velocity=0 time=0.045871499999999996
EXTRACT: note_on channel=9 note=42 velocity=0 time=0
EXTRACT: note_on channel=9 note=36 velocity=0 time=0
EXTRACT: note_on channel=9 note=61 velocity=44 time=0.09174299999999999
EXTRACT: note_on channel=9 note=61 velocity=0 time=0.045871499999999996
EXTRACT: note_on channel=9 note=61 velocity=44 time=0.09174299999999999
EXTRACT: note_on channel=9 note=42 velocity=42 time=0
EXTRACT: note_on channel=9 note=61 velocity=0 time=0.045871499999999996
EXTRACT: note_on channel=9 note=42 velocity=0 time=0
EXTRACT: note_on channel=9 note=36 velocity=98 time=0.09174299999999999
EXTRACT: note_on channel=9 note=36 velocity=0 time=0.045871499999999996
EXTRACT: note_on channel=9 note=38 velocity=127 time=0.09174299999999999
EXTRACT: note_on channel=9 note=42 velocity=42 time=0
EXTRACT: note_on channel=9 note=38 velocity=0 time=0.045871499999999996
EXTRACT: note_on channel=9 note=42 velocity=0 time=0
EXTRACT: note_on channel=9 note=69 velocity=79 time=0.2293575
EXTRACT: note_on channel=9 note=42 velocity=42 time=0
EXTRACT: note_on channel=9 note=69 velocity=0 time=0.045871499999999996
EXTRACT: note_on channel=9 note=42 velocity=0 time=0
EXTRACT: note_on channel=9 note=69 velocity=76 time=0.09174299999999999
EXTRACT: note_on channel=9 note=69 velocity=0 time=0.045871499999999996
EXTRACT: note_on channel=9 note=69 velocity=80 time=0.09174299999999999
EXTRACT: note_on channel=9 note=42 velocity=42 time=0
EXTRACT: note_on channel=9 note=69 velocity=0 time=0.045871499999999996
EXTRACT: note_on channel=9 note=42 velocity=0 time=0
EXTRACT: note_on channel=9 note=42 velocity=42 time=0.2293575
EXTRACT: note_on channel=9 note=36 velocity=98 time=0
EXTRACT: note_on channel=9 note=42 velocity=0 time=0.045871499999999996
EXTRACT: note_on channel=9 note=36 velocity=0 time=0
EXTRACT: note_on channel=9 note=38 velocity=127 time=0.2293575
EXTRACT: note_on channel=9 note=42 velocity=42 time=0
EXTRACT: note_on channel=9 note=38 velocity=0 time=0.045871499999999996
EXTRACT: note_on channel=9 note=42 velocity=0 time=0
EXTRACT: note_on channel=9 note=61 velocity=44 time=0.2293575
EXTRACT: note_on channel=9 note=36 velocity=92 time=0
EXTRACT: note_on channel=9 note=42 velocity=42 time=0
EXTRACT: note_on channel=9 note=61 velocity=0 time=0.045871499999999996
EXTRACT: note_on channel=9 note=36 velocity=0 time=0
EXTRACT: note_on channel=9 note=42 velocity=0 time=0
EXTRACT: note_on channel=9 note=61 velocity=44 time=0.09174299999999999
EXTRACT: note_on channel=9 note=36 velocity=92 time=0
EXTRACT: note_on channel=9 note=61 velocity=0 time=0.045871499999999996
EXTRACT: note_on channel=9 note=36 velocity=0 time=0
EXTRACT: note_on channel=9 note=61 velocity=44 time=0.09174299999999999
EXTRACT: note_on channel=9 note=42 velocity=42 time=0
EXTRACT: note_on channel=9 note=36 velocity=98 time=0
EXTRACT: note_on channel=9 note=61 velocity=0 time=0.045871499999999996
EXTRACT: note_on channel=9 note=42 velocity=0 time=0
EXTRACT: note_on channel=9 note=36 velocity=0 time=0
EXTRACT: note_on channel=9 note=42 velocity=42 time=0.2293575
EXTRACT: note_on channel=9 note=42 velocity=0 time=0.045871499999999996
EXTRACT: note_on channel=9 note=61 velocity=44 time=0.09174299999999999
EXTRACT: note_on channel=9 note=36 velocity=98 time=0
EXTRACT: note_on channel=9 note=61 velocity=0 time=0.045871499999999996
EXTRACT: note_on channel=9 note=36 velocity=0 time=0
EXTRACT: note_on channel=9 note=38 velocity=127 time=0.09174299999999999
EXTRACT: note_on channel=9 note=42 velocity=42 time=0
EXTRACT: note_on channel=9 note=38 velocity=0 time=0.045871499999999996
EXTRACT: note_on channel=9 note=42 velocity=0 time=0
EXTRACT: note_on channel=9 note=69 velocity=81 time=0.2293575
EXTRACT: note_on channel=9 note=42 velocity=42 time=0
EXTRACT: note_on channel=9 note=69 velocity=0 time=0.045871499999999996
EXTRACT: note_on channel=9 note=42 velocity=0 time=0
EXTRACT: note_on channel=9 note=69 velocity=78 time=0.09174299999999999
EXTRACT: note_on channel=9 note=69 velocity=0 time=0.045871499999999996
EXTRACT: note_on channel=9 note=69 velocity=80 time=0.09174299999999999
EXTRACT: note_on channel=9 note=42 velocity=42 time=0
EXTRACT: note_on channel=9 note=69 velocity=0 time=0.045871499999999996
EXTRACT: note_on channel=9 note=42 velocity=0 time=0
EXTRACT: note_on channel=9 note=42 velocity=42 time=0.2293575
EXTRACT: note_on channel=9 note=36 velocity=98 time=0
EXTRACT: note_on channel=9 note=42 velocity=0 time=0.045871499999999996
EXTRACT: note_on channel=9 note=36 velocity=0 time=0
EXTRACT: note_on channel=9 note=38 velocity=127 time=0.2293575
EXTRACT: note_on channel=9 note=42 velocity=42 time=0
EXTRACT: note_on channel=9 note=38 velocity=0 time=0.045871499999999996
EXTRACT: note_on channel=9 note=42 velocity=0 time=0
EXTRACT: note_on channel=9 note=69 velocity=75 time=0.2293575
EXTRACT: note_on channel=9 note=61 velocity=44 time=0
EXTRACT: note_on channel=9 note=42 velocity=42 time=0
EXTRACT: note_on channel=9 note=69 velocity=0 time=0.045871499999999996
EXTRACT: note_on channel=9 note=61 velocity=0 time=0
EXTRACT: note_on channel=9 note=42 velocity=0 time=0
EXTRACT: note_on channel=9 note=61 velocity=44 time=0.09174299999999999
EXTRACT: note_on channel=9 note=61 velocity=0 time=0.045871499999999996
EXTRACT: note_on channel=9 note=61 velocity=44 time=0.09174299999999999
EXTRACT: note_on channel=9 note=42 velocity=42 time=0
EXTRACT: note_on channel=9 note=36 velocity=98 time=0
EXTRACT: note_on channel=9 note=61 velocity=0 time=0.045871499999999996
EXTRACT: note_on channel=9 note=42 velocity=0 time=0
EXTRACT: note_on channel=9 note=36 velocity=0 time=0
EXTRACT: note_on channel=9 note=61 velocity=44 time=0.09174299999999999
EXTRACT: note_on channel=9 note=61 velocity=0 time=0.045871499999999996
EXTRACT: note_on channel=9 note=61 velocity=44 time=0.09174299999999999
EXTRACT: note_on channel=9 note=42 velocity=42 time=0
EXTRACT: note_on channel=9 note=61 velocity=0 time=0.045871499999999996
EXTRACT: note_on channel=9 note=42 velocity=0 time=0
EXTRACT: note_on channel=9 note=36 velocity=98 time=0.09174299999999999
EXTRACT: note_on channel=9 note=36 velocity=0 time=0.045871499999999996
EXTRACT: note_on channel=9 note=38 velocity=127 time=0.09174299999999999
EXTRACT: note_on channel=9 note=42 velocity=42 time=0
EXTRACT: note_on channel=9 note=38 velocity=0 time=0.045871499999999996
EXTRACT: note_on channel=9 note=42 velocity=0 time=0
EXTRACT: note_on channel=9 note=69 velocity=79 time=0.2293575
EXTRACT: note_on channel=9 note=42 velocity=42 time=0
EXTRACT: note_on channel=9 note=69 velocity=0 time=0.045871499999999996
EXTRACT: note_on channel=9 note=42 velocity=0 time=0
EXTRACT: note_on channel=9 note=36 velocity=92 time=0.09174299999999999
EXTRACT: note_on channel=9 note=69 velocity=81 time=0
EXTRACT: note_on channel=9 note=36 velocity=0 time=0.045871499999999996
EXTRACT: note_on channel=9 note=69 velocity=0 time=0
EXTRACT: note_on channel=9 note=36 velocity=98 time=0.09174299999999999
EXTRACT: note_on channel=9 note=69 velocity=80 time=0
EXTRACT: note_on channel=9 note=42 velocity=42 time=0
EXTRACT: note_on channel=9 note=36 velocity=0 time=0.045871499999999996
EXTRACT: note_on channel=9 note=69 velocity=0 time=0
EXTRACT: note_on channel=9 note=42 velocity=0 time=0
EXTRACT: note_on channel=9 note=36 velocity=92 time=0.2293575
EXTRACT: note_on channel=9 note=42 velocity=42 time=0
EXTRACT: note_on channel=9 note=36 velocity=0 time=0.045871499999999996
EXTRACT: note_on channel=9 note=42 velocity=0 time=0
EXTRACT: note_on channel=9 note=36 velocity=92 time=0.09174299999999999
EXTRACT: note_on channel=9 note=36 velocity=0 time=0.045871499999999996
EXTRACT: note_on channel=9 note=38 velocity=127 time=0.09174299999999999
EXTRACT: note_on channel=9 note=42 velocity=42 time=0
EXTRACT: note_on channel=9 note=38 velocity=0 time=0.045871499999999996
EXTRACT: note_on channel=9 note=42 velocity=0 time=0
EXTRACT: note_on channel=9 note=61 velocity=44 time=0.2293575
EXTRACT: note_on channel=9 note=36 velocity=92 time=0
EXTRACT: note_on channel=9 note=42 velocity=42 time=0
EXTRACT: note_on channel=9 note=61 velocity=0 time=0.045871499999999996
EXTRACT: note_on channel=9 note=36 velocity=0 time=0
EXTRACT: note_on channel=9 note=42 velocity=0 time=0
EXTRACT: note_on channel=9 note=61 velocity=44 time=0.09174299999999999
EXTRACT: note_on channel=9 note=36 velocity=92 time=0
EXTRACT: note_on channel=9 note=61 velocity=0 time=0.045871499999999996
EXTRACT: note_on channel=9 note=36 velocity=0 time=0
EXTRACT: note_on channel=9 note=61 velocity=44 time=0.09174299999999999
EXTRACT: note_on channel=9 note=42 velocity=42 time=0
EXTRACT: note_on channel=9 note=36 velocity=98 time=0
EXTRACT: note_on channel=9 note=61 velocity=0 time=0.045871499999999996
EXTRACT: note_on channel=9 note=42 velocity=0 time=0
EXTRACT: note_on channel=9 note=36 velocity=0 time=0
EXTRACT: note_on channel=9 note=42 velocity=42 time=0.2293575
EXTRACT: note_on channel=9 note=42 velocity=0 time=0.045871499999999996
EXTRACT: note_on channel=9 note=61 velocity=44 time=0.09174299999999999
EXTRACT: note_on channel=9 note=36 velocity=98 time=0
EXTRACT: note_on channel=9 note=61 velocity=0 time=0.045871499999999996
EXTRACT: note_on channel=9 note=36 velocity=0 time=0
EXTRACT: note_on channel=9 note=38 velocity=127 time=0.09174299999999999
EXTRACT: note_on channel=9 note=42 velocity=42 time=0
EXTRACT: note_on channel=9 note=38 velocity=0 time=0.045871499999999996
EXTRACT: note_on channel=9 note=42 velocity=0 time=0
EXTRACT: note_on channel=9 note=69 velocity=82 time=0.2293575
EXTRACT: note_on channel=9 note=42 velocity=42 time=0
EXTRACT: note_on channel=9 note=69 velocity=0 time=0.045871499999999996
EXTRACT: note_on channel=9 note=42 velocity=0 time=0
EXTRACT: note_on channel=9 note=69 velocity=81 time=0.09174299999999999
EXTRACT: note_on channel=9 note=69 velocity=0 time=0.045871499999999996
EXTRACT: note_on channel=9 note=69 velocity=79 time=0.09174299999999999
EXTRACT: note_on channel=9 note=42 velocity=42 time=0
EXTRACT: note_on channel=9 note=69 velocity=0 time=0.045871499999999996
EXTRACT: note_on channel=9 note=42 velocity=0 time=0
EXTRACT: note_on channel=9 note=42 velocity=42 time=0.2293575
EXTRACT: note_on channel=9 note=36 velocity=98 time=0
EXTRACT: note_on channel=9 note=42 velocity=0 time=0.045871499999999996
EXTRACT: note_on channel=9 note=36 velocity=0 time=0
EXTRACT: note_on channel=9 note=38 velocity=127 time=0.2293575
EXTRACT: note_on channel=9 note=42 velocity=42 time=0
EXTRACT: note_on channel=9 note=38 velocity=0 time=0.045871499999999996
EXTRACT: note_on channel=9 note=42 velocity=0 time=0
EXTRACT: note_on channel=9 note=69 velocity=77 time=0.2293575
EXTRACT: note_on channel=9 note=61 velocity=44 time=0
EXTRACT: note_on channel=9 note=42 velocity=42 time=0
EXTRACT: note_on channel=9 note=69 velocity=0 time=0.045871499999999996
EXTRACT: note_on channel=9 note=61 velocity=0 time=0
EXTRACT: note_on channel=9 note=42 velocity=0 time=0
EXTRACT: note_on channel=9 note=61 velocity=44 time=0.09174299999999999
EXTRACT: note_on channel=9 note=61 velocity=0 time=0.045871499999999996
EXTRACT: note_on channel=9 note=61 velocity=44 time=0.09174299999999999
EXTRACT: note_on channel=9 note=42 velocity=42 time=0
EXTRACT: note_on channel=9 note=36 velocity=98 time=0
EXTRACT: note_on channel=9 note=61 velocity=0 time=0.045871499999999996
EXTRACT: note_on channel=9 note=42 velocity=0 time=0
EXTRACT: note_on channel=9 note=36 velocity=0 time=0
EXTRACT: note_on channel=9 note=61 velocity=44 time=0.09174299999999999
EXTRACT: note_on channel=9 note=61 velocity=0 time=0.045871499999999996
EXTRACT: note_on channel=9 note=61 velocity=44 time=0.09174299999999999
EXTRACT: note_on channel=9 note=42 velocity=42 time=0
EXTRACT: note_on channel=9 note=61 velocity=0 time=0.045871499999999996
EXTRACT: note_on channel=9 note=42 velocity=0 time=0
EXTRACT: note_on channel=9 note=36 velocity=98 time=0.09174299999999999
EXTRACT: note_on channel=9 note=36 velocity=0 time=0.045871499999999996
EXTRACT: note_on channel=9 note=38 velocity=127 time=0.09174299999999999
EXTRACT: note_on channel=9 note=42 velocity=42 time=0
EXTRACT: note_on channel=9 note=38 velocity=0 time=0.045871499999999996
EXTRACT: note_on channel=9 note=42 velocity=0 time=0
EXTRACT: note_on channel=9 note=69 velocity=82 time=0.2293575
EXTRACT: note_on channel=9 note=42 velocity=42 time=0
EXTRACT: note_on channel=9 note=69 velocity=0 time=0.045871499999999996
EXTRACT: note_on channel=9 note=42 velocity=0 time=0
EXTRACT: note_on channel=9 note=69 velocity=76 time=0.09174299999999999
EXTRACT: note_on channel=9 note=69 velocity=0 time=0.045871499999999996
EXTRACT: note_on channel=9 note=69 velocity=78 time=0.09174299999999999
EXTRACT: note_on channel=9 note=42 velocity=42 time=0
EXTRACT: note_on channel=9 note=69 velocity=0 time=0.045871499999999996
EXTRACT: note_on channel=9 note=42 velocity=0 time=0
EXTRACT: note_on channel=9 note=42 velocity=42 time=0.2293575
EXTRACT: note_on channel=9 note=36 velocity=98 time=0
EXTRACT: note_on channel=9 note=42 velocity=0 time=0.045871499999999996
EXTRACT: note_on channel=9 note=36 velocity=0 time=0
EXTRACT: note_on channel=9 note=38 velocity=127 time=0.2293575
EXTRACT: note_on channel=9 note=42 velocity=42 time=0
EXTRACT: note_on channel=9 note=38 velocity=0 time=0.045871499999999996
EXTRACT: note_on channel=9 note=42 velocity=0 time=0
EXTRACT: note_on channel=9 note=61 velocity=44 time=0.2293575
EXTRACT: note_on channel=9 note=36 velocity=92 time=0
EXTRACT: note_on channel=9 note=42 velocity=42 time=0
EXTRACT: note_on channel=9 note=61 velocity=0 time=0.045871499999999996
EXTRACT: note_on channel=9 note=36 velocity=0 time=0
EXTRACT: note_on channel=9 note=42 velocity=0 time=0
EXTRACT: note_on channel=9 note=61 velocity=44 time=0.09174299999999999
EXTRACT: note_on channel=9 note=36 velocity=92 time=0
EXTRACT: note_on channel=9 note=61 velocity=0 time=0.045871499999999996
EXTRACT: note_on channel=9 note=36 velocity=0 time=0
EXTRACT: note_on channel=9 note=61 velocity=44 time=0.09174299999999999
EXTRACT: note_on channel=9 note=42 velocity=42 time=0
EXTRACT: note_on channel=9 note=36 velocity=98 time=0
EXTRACT: note_on channel=9 note=61 velocity=0 time=0.045871499999999996
EXTRACT: note_on channel=9 note=42 velocity=0 time=0
EXTRACT: note_on channel=9 note=36 velocity=0 time=0
EXTRACT: note_on channel=9 note=42 velocity=42 time=0.2293575
EXTRACT: note_on channel=9 note=42 velocity=0 time=0.045871499999999996
EXTRACT: note_on channel=9 note=61 velocity=44 time=0.09174299999999999
EXTRACT: note_on channel=9 note=36 velocity=98 time=0
EXTRACT: note_on channel=9 note=61 velocity=0 time=0.045871499999999996
EXTRACT: note_on channel=9 note=36 velocity=0 time=0
EXTRACT: note_on channel=9 note=38 velocity=127 time=0.09174299999999999
EXTRACT: note_on channel=9 note=42 velocity=42 time=0
EXTRACT: note_on channel=9 note=38 velocity=0 time=0.045871499999999996
EXTRACT: note_on channel=9 note=42 velocity=0 time=0
EXTRACT: note_on channel=9 note=69 velocity=75 time=0.2293575
EXTRACT: note_on channel=9 note=42 velocity=42 time=0
EXTRACT: note_on channel=9 note=69 velocity=0 time=0.045871499999999996
EXTRACT: note_on channel=9 note=42 velocity=0 time=0
EXTRACT: note_on channel=9 note=69 velocity=82 time=0.09174299999999999
EXTRACT: note_on channel=9 note=69 velocity=0 time=0.045871499999999996
EXTRACT: note_on channel=9 note=69 velocity=82 time=0.09174299999999999
EXTRACT: note_on channel=9 note=42 velocity=42 time=0
EXTRACT: note_on channel=9 note=69 velocity=0 time=0.045871499999999996
EXTRACT: note_on channel=9 note=42 velocity=0 time=0
EXTRACT: note_on channel=9 note=42 velocity=42 time=0.2293575
EXTRACT: note_on channel=9 note=36 velocity=98 time=0
EXTRACT: note_on channel=9 note=42 velocity=0 time=0.045871499999999996
EXTRACT: note_on channel=9 note=36 velocity=0 time=0
EXTRACT: note_on channel=9 note=38 velocity=127 time=0.2293575
EXTRACT: note_on channel=9 note=42 velocity=42 time=0
EXTRACT: note_on channel=9 note=38 velocity=0 time=0.045871499999999996
EXTRACT: note_on channel=9 note=42 velocity=0 time=0
EXTRACT: note_on channel=9 note=69 velocity=75 time=0.2293575
EXTRACT: note_on channel=9 note=61 velocity=44 time=0
EXTRACT: note_on channel=9 note=42 velocity=42 time=0
EXTRACT: note_on channel=9 note=69 velocity=0 time=0.045871499999999996
EXTRACT: note_on channel=9 note=61 velocity=0 time=0
EXTRACT: note_on channel=9 note=42 velocity=0 time=0
EXTRACT: note_on channel=9 note=61 velocity=44 time=0.09174299999999999
EXTRACT: note_on channel=9 note=61 velocity=0 time=0.045871499999999996
EXTRACT: note_on channel=9 note=61 velocity=44 time=0.09174299999999999
EXTRACT: note_on channel=9 note=42 velocity=42 time=0
EXTRACT: note_on channel=9 note=36 velocity=98 time=0
EXTRACT: note_on channel=9 note=61 velocity=0 time=0.045871499999999996
EXTRACT: note_on channel=9 note=42 velocity=0 time=0
EXTRACT: note_on channel=9 note=36 velocity=0 time=0
EXTRACT: note_on channel=9 note=61 velocity=44 time=0.09174299999999999
EXTRACT: note_on channel=9 note=61 velocity=0 time=0.045871499999999996
EXTRACT: note_on channel=9 note=61 velocity=44 time=0.09174299999999999
EXTRACT: note_on channel=9 note=42 velocity=42 time=0
EXTRACT: note_on channel=9 note=61 velocity=0 time=0.045871499999999996
EXTRACT: note_on channel=9 note=42 velocity=0 time=0
EXTRACT: note_on channel=9 note=36 velocity=98 time=0.09174299999999999
EXTRACT: note_on channel=9 note=36 velocity=0 time=0.045871499999999996
EXTRACT: note_on channel=9 note=38 velocity=127 time=0.09174299999999999
EXTRACT: note_on channel=9 note=42 velocity=42 time=0
EXTRACT: note_on channel=9 note=38 velocity=0 time=0.045871499999999996
EXTRACT: note_on channel=9 note=42 velocity=0 time=0
EXTRACT: note_on channel=9 note=69 velocity=77 time=0.2293575
EXTRACT: note_on channel=9 note=42 velocity=42 time=0
EXTRACT: note_on channel=9 note=69 velocity=0 time=0.045871499999999996
EXTRACT: note_on channel=9 note=42 velocity=0 time=0
EXTRACT: note_on channel=9 note=69 velocity=75 time=0.09174299999999999
EXTRACT: note_on channel=9 note=69 velocity=0 time=0.045871499999999996
EXTRACT: note_on channel=6 note=32 velocity=84 time=0.08715584999999999
EXTRACT: note_on channel=9 note=29 velocity=45 time=0.00458715
EXTRACT: note_on channel=9 note=36 velocity=92 time=0
EXTRACT: note_on channel=9 note=29 velocity=0 time=0.045871499999999996
EXTRACT: note_on channel=9 note=36 velocity=0 time=0
EXTRACT: note_on channel=6 note=32 velocity=0 time=0.0860090625
EXTRACT: note_on channel=6 note=32 velocity=98 time=0.0011467875
EXTRACT: note_on channel=9 note=29 velocity=31 time=0.00458715
EXTRACT: note_on channel=9 note=41 velocity=70 time=0
EXTRACT: note_on channel=9 note=29 velocity=0 time=0.045871499999999996
EXTRACT: note_on channel=9 note=41 velocity=0 time=0
EXTRACT: note_on channel=6 note=32 velocity=0 time=0.0860090625
EXTRACT: note_on channel=6 note=32 velocity=84 time=0.0011467875
EXTRACT: note_on channel=9 note=29 velocity=45 time=0.00458715
EXTRACT: note_on channel=9 note=36 velocity=92 time=0
EXTRACT: note_on channel=9 note=29 velocity=0 time=0.045871499999999996
EXTRACT: note_on channel=9 note=36 velocity=0 time=0
EXTRACT: note_on channel=6 note=32 velocity=0 time=0.0860090625
EXTRACT: note_on channel=6 note=32 velocity=89 time=0.0011467875
EXTRACT: note_on channel=9 note=29 velocity=31 time=0.00458715
EXTRACT: note_on channel=9 note=41 velocity=70 time=0
EXTRACT: note_on channel=9 note=29 velocity=0 time=0.045871499999999996
EXTRACT: note_on channel=9 note=41 velocity=0 time=0
EXTRACT: note_on channel=6 note=32 velocity=0 time=0.0860090625
EXTRACT: note_on channel=6 note=32 velocity=100 time=0.0011467875
EXTRACT: note_on channel=9 note=29 velocity=45 time=0.00458715
EXTRACT: note_on channel=9 note=38 velocity=127 time=0
EXTRACT: note_on channel=9 note=36 velocity=92 time=0
EXTRACT: note_on channel=9 note=29 velocity=0 time=0.045871499999999996
EXTRACT: note_on channel=9 note=38 velocity=0 time=0
EXTRACT: note_on channel=9 note=36 velocity=0 time=0
EXTRACT: note_on channel=6 note=32 velocity=0 time=0.0860090625
EXTRACT: note_on channel=6 note=32 velocity=75 time=0.0011467875
EXTRACT: note_on channel=9 note=29 velocity=31 time=0.00458715
EXTRACT: note_on channel=9 note=41 velocity=70 time=0
EXTRACT: note_on channel=9 note=29 velocity=0 time=0.045871499999999996
EXTRACT: note_on channel=9 note=41 velocity=0 time=0
EXTRACT: note_on channel=6 note=32 velocity=0 time=0.0860090625
EXTRACT: note_on channel=6 note=32 velocity=82 time=0.0011467875
EXTRACT: note_on channel=9 note=61 velocity=44 time=0.00458715
EXTRACT: note_on channel=9 note=29 velocity=45 time=0
EXTRACT: note_on channel=9 note=36 velocity=92 time=0
EXTRACT: note_on channel=9 note=61 velocity=0 time=0.045871499999999996
EXTRACT: note_on channel=9 note=29 velocity=0 time=0
EXTRACT: note_on channel=9 note=36 velocity=0 time=0
EXTRACT: note_on channel=6 note=32 velocity=0 time=0.0860090625
EXTRACT: note_on channel=6 note=32 velocity=76 time=0.0011467875
EXTRACT: note_on channel=9 note=61 velocity=44 time=0.00458715
EXTRACT: note_on channel=9 note=29 velocity=31 time=0
EXTRACT: note_on channel=9 note=41 velocity=70 time=0
EXTRACT: note_on channel=9 note=61 velocity=0 time=0.045871499999999996
EXTRACT: note_on channel=9 note=29 velocity=0 time=0
EXTRACT: note_on channel=9 note=41 velocity=0 time=0
EXTRACT: note_on channel=6 note=32 velocity=0 time=0.08715584999999999
EXTRACT: note_on channel=9 note=61 velocity=44 time=0.00458715
EXTRACT: note_on channel=9 note=57 velocity=90 time=0
EXTRACT: note_on channel=9 note=36 velocity=98 time=0
EXTRACT: note_on channel=9 note=61 velocity=0 time=0.045871499999999996
EXTRACT: note_on channel=9 note=57 velocity=0 time=0
EXTRACT: note_on channel=9 note=36 velocity=0 time=0
EXTRACT: note_on channel=9 note=42 velocity=42 time=0.2293575
EXTRACT: note_on channel=9 note=42 velocity=0 time=0.045871499999999996
EXTRACT: note_on channel=9 note=61 velocity=44 time=0.09174299999999999
EXTRACT: note_on channel=9 note=36 velocity=98 time=0
EXTRACT: note_on channel=9 note=61 velocity=0 time=0.045871499999999996
EXTRACT: note_on channel=9 note=36 velocity=0 time=0
EXTRACT: note_on channel=9 note=38 velocity=127 time=0.09174299999999999
EXTRACT: note_on channel=9 note=42 velocity=42 time=0
EXTRACT: note_on channel=9 note=38 velocity=0 time=0.045871499999999996
EXTRACT: note_on channel=9 note=42 velocity=0 time=0
EXTRACT: note_on channel=9 note=69 velocity=74 time=0.2293575
EXTRACT: note_on channel=9 note=42 velocity=42 time=0
EXTRACT: note_on channel=9 note=69 velocity=0 time=0.045871499999999996
EXTRACT: note_on channel=9 note=42 velocity=0 time=0
EXTRACT: note_on channel=9 note=69 velocity=82 time=0.09174299999999999
EXTRACT: note_on channel=9 note=69 velocity=0 time=0.045871499999999996
EXTRACT: note_on channel=9 note=69 velocity=81 time=0.09174299999999999
EXTRACT: note_on channel=9 note=42 velocity=42 time=0
EXTRACT: note_on channel=9 note=69 velocity=0 time=0.045871499999999996
EXTRACT: note_on channel=9 note=42 velocity=0 time=0
EXTRACT: note_on channel=9 note=42 velocity=42 time=0.2293575
EXTRACT: note_on channel=9 note=36 velocity=98 time=0
EXTRACT: note_on channel=9 note=42 velocity=0 time=0.045871499999999996
EXTRACT: note_on channel=9 note=36 velocity=0 time=0
EXTRACT: note_on channel=9 note=38 velocity=127 time=0.2293575
EXTRACT: note_on channel=9 note=42 velocity=42 time=0
EXTRACT: note_on channel=9 note=38 velocity=0 time=0.045871499999999996
EXTRACT: note_on channel=9 note=42 velocity=0 time=0
EXTRACT: note_on channel=9 note=69 velocity=76 time=0.2293575
EXTRACT: note_on channel=9 note=61 velocity=44 time=0
EXTRACT: note_on channel=9 note=42 velocity=42 time=0
EXTRACT: note_on channel=9 note=69 velocity=0 time=0.045871499999999996
EXTRACT: note_on channel=9 note=61 velocity=0 time=0
EXTRACT: note_on channel=9 note=42 velocity=0 time=0
EXTRACT: note_on channel=9 note=61 velocity=44 time=0.09174299999999999
EXTRACT: note_on channel=9 note=61 velocity=0 time=0.045871499999999996
EXTRACT: note_on channel=9 note=61 velocity=44 time=0.09174299999999999
EXTRACT: note_on channel=9 note=42 velocity=42 time=0
EXTRACT: note_on channel=9 note=36 velocity=98 time=0
EXTRACT: note_on channel=9 note=61 velocity=0 time=0.045871499999999996
EXTRACT: note_on channel=9 note=42 velocity=0 time=0
EXTRACT: note_on channel=9 note=36 velocity=0 time=0
EXTRACT: note_on channel=9 note=61 velocity=44 time=0.09174299999999999
EXTRACT: note_on channel=9 note=61 velocity=0 time=0.045871499999999996
EXTRACT: note_on channel=9 note=61 velocity=44 time=0.09174299999999999
EXTRACT: note_on channel=9 note=42 velocity=42 time=0
EXTRACT: note_on channel=9 note=61 velocity=0 time=0.045871499999999996
EXTRACT: note_on channel=9 note=42 velocity=0 time=0
EXTRACT: note_on channel=9 note=36 velocity=98 time=0.09174299999999999
EXTRACT: note_on channel=9 note=36 velocity=0 time=0.045871499999999996
EXTRACT: note_on channel=9 note=38 velocity=127 time=0.09174299999999999
EXTRACT: note_on channel=9 note=42 velocity=42 time=0
EXTRACT: note_on channel=9 note=38 velocity=0 time=0.045871499999999996
EXTRACT: note_on channel=9 note=42 velocity=0 time=0
EXTRACT: note_on channel=9 note=69 velocity=82 time=0.2293575
EXTRACT: note_on channel=9 note=42 velocity=42 time=0
EXTRACT: note_on channel=9 note=69 velocity=0 time=0.045871499999999996
EXTRACT: note_on channel=9 note=42 velocity=0 time=0
EXTRACT: note_on channel=9 note=69 velocity=74 time=0.09174299999999999
EXTRACT: note_on channel=9 note=69 velocity=0 time=0.045871499999999996
EXTRACT: note_on channel=9 note=69 velocity=79 time=0.09174299999999999
EXTRACT: note_on channel=9 note=42 velocity=42 time=0
EXTRACT: note_on channel=9 note=69 velocity=0 time=0.045871499999999996
EXTRACT: note_on channel=9 note=42 velocity=0 time=0
EXTRACT: note_on channel=9 note=42 velocity=42 time=0.2293575
EXTRACT: note_on channel=9 note=36 velocity=98 time=0
EXTRACT: note_on channel=9 note=42 velocity=0 time=0.045871499999999996
EXTRACT: note_on channel=9 note=36 velocity=0 time=0
EXTRACT: note_on channel=9 note=38 velocity=127 time=0.2293575
EXTRACT: note_on channel=9 note=42 velocity=42 time=0
EXTRACT: note_on channel=9 note=38 velocity=0 time=0.045871499999999996
EXTRACT: note_on channel=9 note=42 velocity=0 time=0
EXTRACT: note_on channel=9 note=61 velocity=44 time=0.2293575
EXTRACT: note_on channel=9 note=36 velocity=92 time=0
EXTRACT: note_on channel=9 note=42 velocity=42 time=0
EXTRACT: note_on channel=9 note=61 velocity=0 time=0.045871499999999996
EXTRACT: note_on channel=9 note=36 velocity=0 time=0
EXTRACT: note_on channel=9 note=42 velocity=0 time=0
EXTRACT: note_on channel=9 note=61 velocity=44 time=0.09174299999999999
EXTRACT: note_on channel=9 note=36 velocity=92 time=0
EXTRACT: note_on channel=9 note=61 velocity=0 time=0.045871499999999996
EXTRACT: note_on channel=9 note=36 velocity=0 time=0
EXTRACT: note_on channel=9 note=61 velocity=44 time=0.09174299999999999
EXTRACT: note_on channel=9 note=42 velocity=42 time=0
EXTRACT: note_on channel=9 note=36 velocity=98 time=0
EXTRACT: note_on channel=9 note=61 velocity=0 time=0.045871499999999996
EXTRACT: note_on channel=9 note=42 velocity=0 time=0
EXTRACT: note_on channel=9 note=36 velocity=0 time=0
EXTRACT: note_on channel=9 note=42 velocity=42 time=0.2293575
EXTRACT: note_on channel=9 note=42 velocity=0 time=0.045871499999999996
EXTRACT: note_on channel=9 note=61 velocity=44 time=0.09174299999999999
EXTRACT: note_on channel=9 note=36 velocity=98 time=0
EXTRACT: note_on channel=9 note=61 velocity=0 time=0.045871499999999996
EXTRACT: note_on channel=9 note=36 velocity=0 time=0
EXTRACT: note_on channel=9 note=38 velocity=127 time=0.09174299999999999
EXTRACT: note_on channel=9 note=42 velocity=42 time=0
EXTRACT: note_on channel=9 note=38 velocity=0 time=0.045871499999999996
EXTRACT: note_on channel=9 note=42 velocity=0 time=0
EXTRACT: note_on channel=9 note=69 velocity=78 time=0.2293575
EXTRACT: note_on channel=9 note=42 velocity=42 time=0
EXTRACT: note_on channel=9 note=69 velocity=0 time=0.045871499999999996
EXTRACT: note_on channel=9 note=42 velocity=0 time=0
EXTRACT: note_on channel=9 note=69 velocity=75 time=0.09174299999999999
EXTRACT: note_on channel=9 note=69 velocity=0 time=0.045871499999999996
EXTRACT: note_on channel=9 note=69 velocity=78 time=0.09174299999999999
EXTRACT: note_on channel=9 note=42 velocity=42 time=0
EXTRACT: note_on channel=9 note=69 velocity=0 time=0.045871499999999996
EXTRACT: note_on channel=9 note=42 velocity=0 time=0
EXTRACT: note_on channel=9 note=42 velocity=42 time=0.2293575
EXTRACT: note_on channel=9 note=36 velocity=98 time=0
EXTRACT: note_on channel=9 note=42 velocity=0 time=0.045871499999999996
EXTRACT: note_on channel=9 note=36 velocity=0 time=0
EXTRACT: note_on channel=9 note=38 velocity=127 time=0.2293575
EXTRACT: note_on channel=9 note=42 velocity=42 time=0
EXTRACT: note_on channel=9 note=38 velocity=0 time=0.045871499999999996
EXTRACT: note_on channel=9 note=42 velocity=0 time=0
EXTRACT: note_on channel=9 note=69 velocity=76 time=0.2293575
EXTRACT: note_on channel=9 note=61 velocity=44 time=0
EXTRACT: note_on channel=9 note=42 velocity=42 time=0
EXTRACT: note_on channel=9 note=69 velocity=0 time=0.045871499999999996
EXTRACT: note_on channel=9 note=61 velocity=0 time=0
EXTRACT: note_on channel=9 note=42 velocity=0 time=0
EXTRACT: note_on channel=9 note=61 velocity=44 time=0.09174299999999999
EXTRACT: note_on channel=9 note=61 velocity=0 time=0.045871499999999996
EXTRACT: note_on channel=9 note=61 velocity=44 time=0.09174299999999999
EXTRACT: note_on channel=9 note=42 velocity=42 time=0
EXTRACT: note_on channel=9 note=36 velocity=98 time=0
EXTRACT: note_on channel=9 note=61 velocity=0 time=0.045871499999999996
EXTRACT: note_on channel=9 note=42 velocity=0 time=0
EXTRACT: note_on channel=9 note=36 velocity=0 time=0
EXTRACT: note_on channel=9 note=61 velocity=44 time=0.09174299999999999
EXTRACT: note_on channel=9 note=61 velocity=0 time=0.045871499999999996
EXTRACT: note_on channel=9 note=61 velocity=44 time=0.09174299999999999
EXTRACT: note_on channel=9 note=42 velocity=42 time=0
EXTRACT: note_on channel=9 note=61 velocity=0 time=0.045871499999999996
EXTRACT: note_on channel=9 note=42 velocity=0 time=0
EXTRACT: note_on channel=9 note=36 velocity=98 time=0.09174299999999999
EXTRACT: note_on channel=9 note=36 velocity=0 time=0.045871499999999996
EXTRACT: note_on channel=9 note=38 velocity=127 time=0.09174299999999999
EXTRACT: note_on channel=9 note=42 velocity=42 time=0
EXTRACT: note_on channel=9 note=38 velocity=0 time=0.045871499999999996
EXTRACT: note_on channel=9 note=42 velocity=0 time=0
EXTRACT: note_on channel=9 note=69 velocity=79 time=0.2293575
EXTRACT: note_on channel=9 note=42 velocity=42 time=0
EXTRACT: note_on channel=9 note=69 velocity=0 time=0.045871499999999996
EXTRACT: note_on channel=9 note=42 velocity=0 time=0
EXTRACT: note_on channel=9 note=69 velocity=82 time=0.09174299999999999
EXTRACT: note_on channel=9 note=69 velocity=0 time=0.045871499999999996
EXTRACT: note_on channel=9 note=69 velocity=81 time=0.09174299999999999
EXTRACT: note_on channel=9 note=42 velocity=42 time=0
EXTRACT: note_on channel=9 note=69 velocity=0 time=0.045871499999999996
EXTRACT: note_on channel=9 note=42 velocity=0 time=0
EXTRACT: note_on channel=9 note=42 velocity=42 time=0.2293575
EXTRACT: note_on channel=9 note=36 velocity=98 time=0
EXTRACT: note_on channel=9 note=42 velocity=0 time=0.045871499999999996
EXTRACT: note_on channel=9 note=36 velocity=0 time=0
EXTRACT: note_on channel=9 note=38 velocity=127 time=0.2293575
EXTRACT: note_on channel=9 note=42 velocity=42 time=0
EXTRACT: note_on channel=9 note=38 velocity=0 time=0.045871499999999996
EXTRACT: note_on channel=9 note=42 velocity=0 time=0
EXTRACT: note_on channel=9 note=61 velocity=44 time=0.2293575
EXTRACT: note_on channel=9 note=36 velocity=92 time=0
EXTRACT: note_on channel=9 note=42 velocity=42 time=0
EXTRACT: note_on channel=9 note=61 velocity=0 time=0.045871499999999996
EXTRACT: note_on channel=9 note=36 velocity=0 time=0
EXTRACT: note_on channel=9 note=42 velocity=0 time=0
EXTRACT: note_on channel=9 note=61 velocity=44 time=0.09174299999999999
EXTRACT: note_on channel=9 note=36 velocity=92 time=0
EXTRACT: note_on channel=9 note=61 velocity=0 time=0.045871499999999996
EXTRACT: note_on channel=9 note=36 velocity=0 time=0
EXTRACT: note_on channel=9 note=61 velocity=44 time=0.09174299999999999
EXTRACT: note_on channel=9 note=42 velocity=42 time=0
EXTRACT: note_on channel=9 note=36 velocity=98 time=0
EXTRACT: note_on channel=9 note=61 velocity=0 time=0.045871499999999996
EXTRACT: note_on channel=9 note=42 velocity=0 time=0
EXTRACT: note_on channel=9 note=36 velocity=0 time=0
EXTRACT: note_on channel=9 note=42 velocity=42 time=0.2293575
EXTRACT: note_on channel=9 note=42 velocity=0 time=0.045871499999999996
EXTRACT: note_on channel=9 note=61 velocity=44 time=0.09174299999999999
EXTRACT: note_on channel=9 note=36 velocity=98 time=0
EXTRACT: note_on channel=9 note=61 velocity=0 time=0.045871499999999996
EXTRACT: note_on channel=9 note=36 velocity=0 time=0
EXTRACT: note_on channel=9 note=38 velocity=127 time=0.09174299999999999
EXTRACT: note_on channel=9 note=42 velocity=42 time=0
EXTRACT: note_on channel=9 note=38 velocity=0 time=0.045871499999999996
EXTRACT: note_on channel=9 note=42 velocity=0 time=0
EXTRACT: note_on channel=9 note=69 velocity=75 time=0.2293575
EXTRACT: note_on channel=9 note=42 velocity=42 time=0
EXTRACT: note_on channel=9 note=69 velocity=0 time=0.045871499999999996
EXTRACT: note_on channel=9 note=42 velocity=0 time=0
EXTRACT: note_on channel=9 note=69 velocity=82 time=0.09174299999999999
EXTRACT: note_on channel=9 note=69 velocity=0 time=0.045871499999999996
EXTRACT: note_on channel=9 note=69 velocity=78 time=0.09174299999999999
EXTRACT: note_on channel=9 note=42 velocity=42 time=0
EXTRACT: note_on channel=9 note=69 velocity=0 time=0.045871499999999996
EXTRACT: note_on channel=9 note=42 velocity=0 time=0
EXTRACT: note_on channel=9 note=42 velocity=42 time=0.2293575
EXTRACT: note_on channel=9 note=36 velocity=98 time=0
EXTRACT: note_on channel=9 note=42 velocity=0 time=0.045871499999999996
EXTRACT: note_on channel=9 note=36 velocity=0 time=0
EXTRACT: note_on channel=9 note=38 velocity=127 time=0.2293575
EXTRACT: note_on channel=9 note=42 velocity=42 time=0
EXTRACT: note_on channel=9 note=38 velocity=0 time=0.045871499999999996
EXTRACT: note_on channel=9 note=42 velocity=0 time=0
EXTRACT: note_on channel=9 note=69 velocity=76 time=0.2293575
EXTRACT: note_on channel=9 note=61 velocity=44 time=0
EXTRACT: note_on channel=9 note=42 velocity=42 time=0
EXTRACT: note_on channel=9 note=69 velocity=0 time=0.045871499999999996
EXTRACT: note_on channel=9 note=61 velocity=0 time=0
EXTRACT: note_on channel=9 note=42 velocity=0 time=0
EXTRACT: note_on channel=9 note=61 velocity=44 time=0.09174299999999999
EXTRACT: note_on channel=9 note=61 velocity=0 time=0.045871499999999996
EXTRACT: note_on channel=9 note=61 velocity=44 time=0.09174299999999999
EXTRACT: note_on channel=9 note=42 velocity=42 time=0
EXTRACT: note_on channel=9 note=36 velocity=98 time=0
EXTRACT: note_on channel=9 note=61 velocity=0 time=0.045871499999999996
EXTRACT: note_on channel=9 note=42 velocity=0 time=0
EXTRACT: note_on channel=9 note=36 velocity=0 time=0
EXTRACT: note_on channel=9 note=61 velocity=44 time=0.09174299999999999
EXTRACT: note_on channel=9 note=61 velocity=0 time=0.045871499999999996
EXTRACT: note_on channel=9 note=61 velocity=44 time=0.09174299999999999
EXTRACT: note_on channel=9 note=42 velocity=42 time=0
EXTRACT: note_on channel=9 note=61 velocity=0 time=0.045871499999999996
EXTRACT: note_on channel=9 note=42 velocity=0 time=0
EXTRACT: note_on channel=9 note=36 velocity=98 time=0.09174299999999999
EXTRACT: note_on channel=9 note=36 velocity=0 time=0.045871499999999996
EXTRACT: note_on channel=9 note=38 velocity=127 time=0.09174299999999999
EXTRACT: note_on channel=9 note=42 velocity=42 time=0
EXTRACT: note_on channel=9 note=38 velocity=0 time=0.045871499999999996
EXTRACT: note_on channel=9 note=42 velocity=0 time=0
EXTRACT: note_on channel=9 note=69 velocity=78 time=0.2293575
EXTRACT: note_on channel=9 note=42 velocity=42 time=0
EXTRACT: note_on channel=9 note=69 velocity=0 time=0.045871499999999996
EXTRACT: note_on channel=9 note=42 velocity=0 time=0
EXTRACT: note_on channel=9 note=69 velocity=74 time=0.09174299999999999
EXTRACT: note_on channel=9 note=69 velocity=0 time=0.045871499999999996
EXTRACT: note_on channel=9 note=69 velocity=80 time=0.09174299999999999
EXTRACT: note_on channel=9 note=42 velocity=42 time=0
EXTRACT: note_on channel=9 note=69 velocity=0 time=0.045871499999999996
EXTRACT: note_on channel=9 note=42 velocity=0 time=0
EXTRACT: note_on channel=9 note=42 velocity=42 time=0.2293575
EXTRACT: note_on channel=9 note=36 velocity=98 time=0
EXTRACT: note_on channel=9 note=42 velocity=0 time=0.045871499999999996
EXTRACT: note_on channel=9 note=36 velocity=0 time=0
EXTRACT: note_on channel=9 note=38 velocity=127 time=0.2293575
EXTRACT: note_on channel=9 note=42 velocity=42 time=0
EXTRACT: note_on channel=9 note=38 velocity=0 time=0.045871499999999996
EXTRACT: note_on channel=9 note=42 velocity=0 time=0
EXTRACT: note_on channel=9 note=61 velocity=44 time=0.2293575
EXTRACT: note_on channel=9 note=36 velocity=92 time=0
EXTRACT: note_on channel=9 note=42 velocity=42 time=0
EXTRACT: note_on channel=9 note=61 velocity=0 time=0.045871499999999996
EXTRACT: note_on channel=9 note=36 velocity=0 time=0
EXTRACT: note_on channel=9 note=42 velocity=0 time=0
EXTRACT: note_on channel=9 note=61 velocity=44 time=0.09174299999999999
EXTRACT: note_on channel=9 note=36 velocity=92 time=0
EXTRACT: note_on channel=9 note=61 velocity=0 time=0.045871499999999996
EXTRACT: note_on channel=9 note=36 velocity=0 time=0
EXTRACT: note_on channel=9 note=61 velocity=44 time=0.09174299999999999
EXTRACT: note_on channel=9 note=42 velocity=42 time=0
EXTRACT: note_on channel=9 note=36 velocity=98 time=0
EXTRACT: note_on channel=9 note=61 velocity=0 time=0.045871499999999996
EXTRACT: note_on channel=9 note=42 velocity=0 time=0
EXTRACT: note_on channel=9 note=36 velocity=0 time=0
EXTRACT: note_on channel=9 note=42 velocity=42 time=0.2293575
EXTRACT: note_on channel=9 note=42 velocity=0 time=0.045871499999999996
EXTRACT: note_on channel=9 note=61 velocity=44 time=0.09174299999999999
EXTRACT: note_on channel=9 note=36 velocity=98 time=0
EXTRACT: note_on channel=9 note=61 velocity=0 time=0.045871499999999996
EXTRACT: note_on channel=9 note=36 velocity=0 time=0
EXTRACT: note_on channel=9 note=38 velocity=127 time=0.09174299999999999
EXTRACT: note_on channel=9 note=42 velocity=42 time=0
EXTRACT: note_on channel=9 note=38 velocity=0 time=0.045871499999999996
EXTRACT: note_on channel=9 note=42 velocity=0 time=0
EXTRACT: note_on channel=9 note=69 velocity=74 time=0.2293575
EXTRACT: note_on channel=9 note=42 velocity=42 time=0
EXTRACT: note_on channel=9 note=69 velocity=0 time=0.045871499999999996
EXTRACT: note_on channel=9 note=42 velocity=0 time=0
EXTRACT: note_on channel=9 note=69 velocity=76 time=0.09174299999999999
EXTRACT: note_on channel=9 note=69 velocity=0 time=0.045871499999999996
EXTRACT: note_on channel=9 note=69 velocity=75 time=0.09174299999999999
EXTRACT: note_on channel=9 note=42 velocity=42 time=0
EXTRACT: note_on channel=9 note=69 velocity=0 time=0.045871499999999996
EXTRACT: note_on channel=9 note=42 velocity=0 time=0
EXTRACT: note_on channel=9 note=42 velocity=42 time=0.2293575
EXTRACT: note_on channel=9 note=36 velocity=73 time=0
EXTRACT: note_on channel=9 note=42 velocity=0 time=0.045871499999999996
EXTRACT: note_on channel=9 note=36 velocity=0 time=0
EXTRACT: note_on channel=9 note=38 velocity=127 time=0.2293575
EXTRACT: note_on channel=9 note=42 velocity=42 time=0
EXTRACT: note_on channel=9 note=38 velocity=0 time=0.045871499999999996
EXTRACT: note_on channel=9 note=42 velocity=0 time=0
EXTRACT: note_on channel=9 note=69 velocity=74 time=0.2293575
EXTRACT: note_on channel=9 note=61 velocity=44 time=0
EXTRACT: note_on channel=9 note=42 velocity=42 time=0
EXTRACT: note_on channel=9 note=69 velocity=0 time=0.045871499999999996
EXTRACT: note_on channel=9 note=61 velocity=0 time=0
EXTRACT: note_on channel=9 note=42 velocity=0 time=0
EXTRACT: note_on channel=9 note=61 velocity=44 time=0.09174299999999999
EXTRACT: note_on channel=9 note=61 velocity=0 time=0.045871499999999996
EXTRACT: note_on channel=9 note=61 velocity=44 time=0.09174299999999999
EXTRACT: note_on channel=9 note=42 velocity=42 time=0
EXTRACT: note_on channel=9 note=36 velocity=98 time=0
EXTRACT: note_on channel=9 note=61 velocity=0 time=0.045871499999999996
EXTRACT: note_on channel=9 note=42 velocity=0 time=0
EXTRACT: note_on channel=9 note=36 velocity=0 time=0
EXTRACT: note_on channel=9 note=61 velocity=44 time=0.09174299999999999
EXTRACT: note_on channel=9 note=61 velocity=0 time=0.045871499999999996
EXTRACT: note_on channel=9 note=61 velocity=44 time=0.09174299999999999
EXTRACT: note_on channel=9 note=42 velocity=42 time=0
EXTRACT: note_on channel=9 note=61 velocity=0 time=0.045871499999999996
EXTRACT: note_on channel=9 note=42 velocity=0 time=0
EXTRACT: note_on channel=9 note=36 velocity=98 time=0.09174299999999999
EXTRACT: note_on channel=9 note=36 velocity=0 time=0.045871499999999996
EXTRACT: note_on channel=9 note=38 velocity=127 time=0.09174299999999999
EXTRACT: note_on channel=9 note=42 velocity=42 time=0
EXTRACT: note_on channel=9 note=38 velocity=0 time=0.045871499999999996
EXTRACT: note_on channel=9 note=42 velocity=0 time=0
EXTRACT: note_on channel=9 note=69 velocity=78 time=0.2293575
EXTRACT: note_on channel=9 note=42 velocity=42 time=0
EXTRACT: note_on channel=9 note=69 velocity=0 time=0.045871499999999996
EXTRACT: note_on channel=9 note=42 velocity=0 time=0
EXTRACT: note_on channel=9 note=69 velocity=76 time=0.09174299999999999
EXTRACT: note_on channel=9 note=69 velocity=0 time=0.045871499999999996
EXTRACT: note_on channel=6 note=32 velocity=107 time=0.08715584999999999
EXTRACT: note_on channel=9 note=29 velocity=45 time=0.00458715
EXTRACT: note_on channel=9 note=36 velocity=92 time=0
EXTRACT: note_on channel=9 note=29 velocity=0 time=0.045871499999999996
EXTRACT: note_on channel=9 note=36 velocity=0 time=0
EXTRACT: note_on channel=6 note=32 velocity=0 time=0.0860090625
EXTRACT: note_on channel=6 note=32 velocity=72 time=0.0011467875
EXTRACT: note_on channel=9 note=29 velocity=31 time=0.00458715
EXTRACT: note_on channel=9 note=41 velocity=70 time=0
EXTRACT: note_on channel=9 note=29 velocity=0 time=0.045871499999999996
EXTRACT: note_on channel=9 note=41 velocity=0 time=0
EXTRACT: note_on channel=6 note=32 velocity=0 time=0.0860090625
EXTRACT: note_on channel=6 note=32 velocity=83 time=0.0011467875
EXTRACT: note_on channel=9 note=29 velocity=45 time=0.00458715
EXTRACT: note_on channel=9 note=36 velocity=92 time=0
EXTRACT: note_on channel=9 note=29 velocity=0 time=0.045871499999999996
EXTRACT: note_on channel=9 note=36 velocity=0 time=0
EXTRACT: note_on channel=6 note=32 velocity=0 time=0.0860090625
EXTRACT: note_on channel=6 note=32 velocity=81 time=0.0011467875
EXTRACT: note_on channel=9 note=29 velocity=31 time=0.00458715
EXTRACT: note_on channel=9 note=41 velocity=70 time=0
EXTRACT: note_on channel=9 note=29 velocity=0 time=0.045871499999999996
EXTRACT: note_on channel=9 note=41 velocity=0 time=0
EXTRACT: note_on channel=6 note=32 velocity=0 time=0.0860090625
EXTRACT: note_on channel=6 note=32 velocity=103 time=0.0011467875
EXTRACT: note_on channel=8 note=60 velocity=88 time=0
EXTRACT: note_on channel=9 note=29 velocity=45 time=0.00458715
EXTRACT: note_on channel=9 note=38 velocity=127 time=0
EXTRACT: note_on channel=9 note=36 velocity=92 time=0
EXTRACT: note_on channel=9 note=29 velocity=0 time=0.045871499999999996
EXTRACT: note_on channel=9 note=38 velocity=0 time=0
EXTRACT: note_on channel=9 note=36 velocity=0 time=0
EXTRACT: note_on channel=6 note=32 velocity=0 time=0.0860090625
EXTRACT: note_on channel=6 note=32 velocity=71 time=0.0011467875
EXTRACT: note_on channel=9 note=29 velocity=31 time=0.00458715
EXTRACT: note_on channel=9 note=41 velocity=70 time=0
EXTRACT: note_on channel=9 note=29 velocity=0 time=0.045871499999999996
EXTRACT: note_on channel=9 note=41 velocity=0 time=0
EXTRACT: note_on channel=8 note=60 velocity=0 time=0.0825687
EXTRACT: note_on channel=6 note=32 velocity=0 time=0.0034403625
EXTRACT: note_on channel=6 note=32 velocity=98 time=0.0011467875
EXTRACT: note_on channel=8 note=58 velocity=86 time=0
EXTRACT: note_on channel=9 note=61 velocity=44 time=0.00458715
EXTRACT: note_on channel=9 note=29 velocity=45 time=0
EXTRACT: note_on channel=9 note=36 velocity=92 time=0
EXTRACT: note_on channel=9 note=61 velocity=0 time=0.045871499999999996
EXTRACT: note_on channel=9 note=29 velocity=0 time=0
EXTRACT: note_on channel=9 note=36 velocity=0 time=0
EXTRACT: note_on channel=6 note=32 velocity=0 time=0.0860090625
EXTRACT: note_on channel=6 note=32 velocity=92 time=0.0011467875
EXTRACT: note_on channel=9 note=61 velocity=44 time=0.00458715
EXTRACT: note_on channel=9 note=29 velocity=31 time=0
EXTRACT: note_on channel=9 note=41 velocity=70 time=0
EXTRACT: note_on channel=9 note=61 velocity=0 time=0.045871499999999996
EXTRACT: note_on channel=9 note=29 velocity=0 time=0
EXTRACT: note_on channel=9 note=41 velocity=0 time=0
EXTRACT: note_on channel=0 note=32 velocity=84 time=0.08715584999999999
EXTRACT: note_on channel=6 note=32 velocity=0 time=0
EXTRACT: note_on channel=8 note=58 velocity=0 time=0
EXTRACT: note_on channel=1 note=32 velocity=107 time=0.00458715
EXTRACT: note_on channel=9 note=61 velocity=44 time=0
EXTRACT: note_on channel=9 note=57 velocity=95 time=0
EXTRACT: note_on channel=9 note=36 velocity=98 time=0
EXTRACT: note_on channel=9 note=61 velocity=0 time=0.045871499999999996
EXTRACT: note_on channel=9 note=57 velocity=0 time=0
EXTRACT: note_on channel=9 note=36 velocity=0 time=0
EXTRACT: note_on channel=0 note=32 velocity=0 time=0.22477035
EXTRACT: note_on channel=8 note=65 velocity=92 time=0
EXTRACT: note_on channel=1 note=32 velocity=0 time=0.00458715
EXTRACT: note_on channel=9 note=42 velocity=42 time=0
EXTRACT: note_on channel=9 note=42 velocity=0 time=0.045871499999999996
EXTRACT: note_on channel=0 note=32 velocity=97 time=0.08715584999999999
EXTRACT: note_on channel=1 note=32 velocity=92 time=0.00458715
EXTRACT: note_on channel=9 note=61 velocity=44 time=0
EXTRACT: note_on channel=9 note=36 velocity=98 time=0
EXTRACT: note_on channel=9 note=61 velocity=0 time=0.045871499999999996
EXTRACT: note_on channel=9 note=36 velocity=0 time=0
EXTRACT: note_on channel=8 note=65 velocity=0 time=0.0825687
EXTRACT: note_on channel=0 note=32 velocity=0 time=0.00458715
EXTRACT: note_on channel=8 note=65 velocity=95 time=0
EXTRACT: note_on channel=1 note=32 velocity=0 time=0.00458715
EXTRACT: note_on channel=9 note=38 velocity=127 time=0
EXTRACT: note_on channel=9 note=42 velocity=42 time=0
EXTRACT: note_on channel=9 note=38 velocity=0 time=0.045871499999999996
EXTRACT: note_on channel=9 note=42 velocity=0 time=0
EXTRACT: note_on channel=8 note=65 velocity=0 time=0.2201832
EXTRACT: note_on channel=8 note=63 velocity=86 time=0.00458715
EXTRACT: note_on channel=9 note=69 velocity=76 time=0.00458715
EXTRACT: note_on channel=9 note=42 velocity=42 time=0
EXTRACT: note_on channel=9 note=69 velocity=0 time=0.045871499999999996
EXTRACT: note_on channel=9 note=42 velocity=0 time=0
EXTRACT: note_on channel=9 note=69 velocity=75 time=0.09174299999999999
EXTRACT: note_on channel=9 note=69 velocity=0 time=0.045871499999999996
EXTRACT: note_on channel=8 note=63 velocity=0 time=0.0825687
EXTRACT: note_on channel=8 note=65 velocity=114 time=0.00458715
EXTRACT: note_on channel=9 note=69 velocity=78 time=0.00458715
EXTRACT: note_on channel=9 note=42 velocity=42 time=0
EXTRACT: note_on channel=9 note=69 velocity=0 time=0.045871499999999996
EXTRACT: note_on channel=9 note=42 velocity=0 time=0
EXTRACT: note_on channel=8 note=65 velocity=0 time=0.22477035
EXTRACT: note_on channel=9 note=42 velocity=42 time=0.00458715
EXTRACT: note_on channel=9 note=36 velocity=98 time=0
EXTRACT: note_on channel=9 note=42 velocity=0 time=0.045871499999999996
EXTRACT: note_on channel=9 note=36 velocity=0 time=0
EXTRACT: note_on channel=8 note=67 velocity=96 time=0.22477035
EXTRACT: note_on channel=9 note=38 velocity=127 time=0.00458715
EXTRACT: note_on channel=9 note=42 velocity=42 time=0
EXTRACT: note_on channel=9 note=38 velocity=0 time=0.045871499999999996
EXTRACT: note_on channel=9 note=42 velocity=0 time=0
EXTRACT: note_on channel=8 note=67 velocity=0 time=0.2201832
EXTRACT: note_on channel=8 note=65 velocity=95 time=0.00458715
EXTRACT: note_on channel=9 note=69 velocity=80 time=0.00458715
EXTRACT: note_on channel=9 note=61 velocity=44 time=0
EXTRACT: note_on channel=9 note=42 velocity=42 time=0
EXTRACT: note_on channel=9 note=69 velocity=0 time=0.045871499999999996
EXTRACT: note_on channel=9 note=61 velocity=0 time=0
EXTRACT: note_on channel=9 note=42 velocity=0 time=0
EXTRACT: note_on channel=9 note=61 velocity=44 time=0.09174299999999999
EXTRACT: note_on channel=9 note=61 velocity=0 time=0.045871499999999996
EXTRACT: note_on channel=0 note=31 velocity=107 time=0.08715584999999999
EXTRACT: note_on channel=1 note=31 velocity=92 time=0.00458715
EXTRACT: note_on channel=9 note=61 velocity=44 time=0
EXTRACT: note_on channel=9 note=42 velocity=42 time=0
EXTRACT: note_on channel=9 note=36 velocity=98 time=0
EXTRACT: note_on channel=9 note=61 velocity=0 time=0.045871499999999996
EXTRACT: note_on channel=9 note=42 velocity=0 time=0
EXTRACT: note_on channel=9 note=36 velocity=0 time=0
EXTRACT: note_on channel=9 note=61 velocity=44 time=0.09174299999999999
EXTRACT: note_on channel=9 note=61 velocity=0 time=0.045871499999999996
EXTRACT: note_on channel=0 note=31 velocity=0 time=0.08715584999999999
EXTRACT: note_on channel=9 note=64 velocity=50 time=0
EXTRACT: note_on channel=1 note=31 velocity=0 time=0.00458715
EXTRACT: note_on channel=9 note=61 velocity=44 time=0
EXTRACT: note_on channel=9 note=42 velocity=42 time=0
EXTRACT: note_on channel=9 note=64 velocity=0 time=0.04128435
EXTRACT: note_on channel=9 note=61 velocity=0 time=0.00458715
EXTRACT: note_on channel=9 note=42 velocity=0 time=0
EXTRACT: note_on channel=0 note=31 velocity=97 time=0.08715584999999999
EXTRACT: note_on channel=9 note=63 velocity=50 time=0
EXTRACT: note_on channel=1 note=31 velocity=94 time=0.00458715
EXTRACT: note_on channel=9 note=36 velocity=98 time=0
EXTRACT: note_on channel=9 note=63 velocity=0 time=0.04128435
EXTRACT: note_on channel=9 note=36 velocity=0 time=0.00458715
EXTRACT: note_on channel=0 note=31 velocity=0 time=0.08715584999999999
EXTRACT: note_on channel=9 note=64 velocity=50 time=0
EXTRACT: note_on channel=1 note=31 velocity=0 time=0.00458715
EXTRACT: note_on channel=9 note=38 velocity=127 time=0
EXTRACT: note_on channel=9 note=42 velocity=42 time=0
EXTRACT: note_on channel=9 note=64 velocity=0 time=0.04128435
EXTRACT: note_on channel=9 note=38 velocity=0 time=0.00458715
EXTRACT: note_on channel=9 note=42 velocity=0 time=0
EXTRACT: note_on channel=9 note=64 velocity=50 time=0.08715584999999999
EXTRACT: note_on channel=9 note=64 velocity=0 time=0.045871499999999996
EXTRACT: note_on channel=9 note=63 velocity=50 time=0.09174299999999999
EXTRACT: note_on channel=9 note=69 velocity=76 time=0.00458715
EXTRACT: note_on channel=9 note=42 velocity=42 time=0
EXTRACT: note_on channel=9 note=63 velocity=0 time=0.04128435
EXTRACT: note_on channel=9 note=69 velocity=0 time=0.00458715
EXTRACT: note_on channel=9 note=42 velocity=0 time=0
EXTRACT: note_on channel=9 note=69 velocity=74 time=0.09174299999999999
EXTRACT: note_on channel=9 note=69 velocity=0 time=0.045871499999999996
EXTRACT: note_on channel=8 note=65 velocity=0 time=0.08715584999999999
EXTRACT: note_on channel=9 note=69 velocity=81 time=0.00458715
EXTRACT: note_on channel=9 note=42 velocity=42 time=0
EXTRACT: note_on channel=9 note=69 velocity=0 time=0.045871499999999996
EXTRACT: note_on channel=9 note=42 velocity=0 time=0
EXTRACT: note_on channel=9 note=64 velocity=50 time=0.08715584999999999
EXTRACT: note_on channel=9 note=64 velocity=0 time=0.045871499999999996
EXTRACT: note_on channel=9 note=48 velocity=50 time=0.09174299999999999
EXTRACT: note_on channel=9 note=42 velocity=42 time=0.00458715
EXTRACT: note_on channel=9 note=36 velocity=98 time=0
EXTRACT: note_on channel=9 note=48 velocity=0 time=0.04128435
EXTRACT: note_on channel=9 note=42 velocity=0 time=0.00458715
EXTRACT: note_on channel=9 note=36 velocity=0 time=0
EXTRACT: note_on channel=9 note=64 velocity=50 time=0.08715584999999999
EXTRACT: note_on channel=9 note=64 velocity=0 time=0.045871499999999996
EXTRACT: note_on channel=8 note=58 velocity=116 time=0.09174299999999999
EXTRACT: note_on channel=9 note=63 velocity=50 time=0
EXTRACT: note_on channel=9 note=38 velocity=127 time=0.00458715
EXTRACT: note_on channel=9 note=42 velocity=42 time=0
EXTRACT: note_on channel=9 note=63 velocity=0 time=0.04128435
EXTRACT: note_on channel=9 note=38 velocity=0 time=0.00458715
EXTRACT: note_on channel=9 note=42 velocity=0 time=0
EXTRACT: note_on channel=8 note=58 velocity=0 time=0.2201832
EXTRACT: note_on channel=8 note=58 velocity=92 time=0.00458715
EXTRACT: note_on channel=9 note=61 velocity=44 time=0.00458715
EXTRACT: note_on channel=9 note=36 velocity=92 time=0
EXTRACT: note_on channel=9 note=42 velocity=42 time=0
EXTRACT: note_on channel=9 note=61 velocity=0 time=0.045871499999999996
EXTRACT: note_on channel=9 note=36 velocity=0 time=0
EXTRACT: note_on channel=9 note=42 velocity=0 time=0
EXTRACT: note_on channel=9 note=61 velocity=44 time=0.09174299999999999
EXTRACT: note_on channel=9 note=36 velocity=92 time=0
EXTRACT: note_on channel=9 note=61 velocity=0 time=0.045871499999999996
EXTRACT: note_on channel=9 note=36 velocity=0 time=0
EXTRACT: note_on channel=8 note=58 velocity=0 time=0.0825687
EXTRACT: note_on channel=0 note=36 velocity=82 time=0.00458715
EXTRACT: note_on channel=8 note=65 velocity=105 time=0
EXTRACT: note_on channel=1 note=36 velocity=113 time=0.00458715
EXTRACT: note_on channel=9 note=61 velocity=44 time=0
EXTRACT: note_on channel=9 note=42 velocity=42 time=0
EXTRACT: note_on channel=9 note=36 velocity=98 time=0
EXTRACT: note_on channel=9 note=61 velocity=0 time=0.045871499999999996
EXTRACT: note_on channel=9 note=42 velocity=0 time=0
EXTRACT: note_on channel=9 note=36 velocity=0 time=0
EXTRACT: note_on channel=0 note=36 velocity=0 time=0.22477035
EXTRACT: note_on channel=8 note=65 velocity=0 time=0
EXTRACT: note_on channel=1 note=36 velocity=0 time=0.00458715
EXTRACT: note_on channel=9 note=42 velocity=42 time=0
EXTRACT: note_on channel=9 note=42 velocity=0 time=0.045871499999999996
EXTRACT: note_on channel=0 note=36 velocity=98 time=0.08715584999999999
EXTRACT: note_on channel=1 note=36 velocity=108 time=0.00458715
EXTRACT: note_on channel=9 note=61 velocity=44 time=0
EXTRACT: note_on channel=9 note=36 velocity=98 time=0
EXTRACT: note_on channel=9 note=61 velocity=0 time=0.045871499999999996
EXTRACT: note_on channel=9 note=36 velocity=0 time=0
EXTRACT: note_on channel=0 note=36 velocity=0 time=0.08715584999999999
EXTRACT: note_on channel=8 note=65 velocity=109 time=0
EXTRACT: note_on channel=1 note=36 velocity=0 time=0.00458715
EXTRACT: note_on channel=9 note=38 velocity=127 time=0
EXTRACT: note_on channel=9 note=42 velocity=42 time=0
EXTRACT: note_on channel=9 note=38 velocity=0 time=0.045871499999999996
EXTRACT: note_on channel=9 note=42 velocity=0 time=0
EXTRACT: note_on channel=8 note=65 velocity=0 time=0.2201832
EXTRACT: note_on channel=8 note=63 velocity=105 time=0.00458715
EXTRACT: note_on channel=9 note=69 velocity=79 time=0.00458715
EXTRACT: note_on channel=9 note=42 velocity=42 time=0
EXTRACT: note_on channel=9 note=69 velocity=0 time=0.045871499999999996
EXTRACT: note_on channel=9 note=42 velocity=0 time=0
EXTRACT: note_on channel=9 note=69 velocity=82 time=0.09174299999999999
EXTRACT: note_on channel=9 note=69 velocity=0 time=0.045871499999999996
EXTRACT: note_on channel=8 note=63 velocity=0 time=0.0825687
EXTRACT: note_on channel=8 note=65 velocity=105 time=0.00458715
EXTRACT: note_on channel=9 note=69 velocity=80 time=0.00458715
EXTRACT: note_on channel=9 note=42 velocity=42 time=0
EXTRACT: note_on channel=9 note=69 velocity=0 time=0.045871499999999996
EXTRACT: note_on channel=9 note=42 velocity=0 time=0
EXTRACT: note_on channel=8 note=65 velocity=0 time=0.2201832
EXTRACT: note_on channel=8 note=67 velocity=115 time=0.00458715
EXTRACT: note_on channel=9 note=42 velocity=42 time=0.00458715
EXTRACT: note_on channel=9 note=36 velocity=98 time=0
EXTRACT: note_on channel=9 note=42 velocity=0 time=0.045871499999999996
EXTRACT: note_on channel=9 note=36 velocity=0 time=0
EXTRACT: note_on channel=8 note=67 velocity=0 time=0.2201832
EXTRACT: note_on channel=8 note=70 velocity=115 time=0.00458715
EXTRACT: note_on channel=9 note=38 velocity=127 time=0.00458715
EXTRACT: note_on channel=9 note=42 velocity=42 time=0
EXTRACT: note_on channel=9 note=38 velocity=0 time=0.045871499999999996
EXTRACT: note_on channel=9 note=42 velocity=0 time=0
EXTRACT: note_on channel=8 note=70 velocity=0 time=0.2201832
EXTRACT: note_on channel=8 note=67 velocity=102 time=0.00458715
EXTRACT: note_on channel=9 note=69 velocity=76 time=0.00458715
EXTRACT: note_on channel=9 note=61 velocity=44 time=0
EXTRACT: note_on channel=9 note=42 velocity=42 time=0
EXTRACT: note_on channel=9 note=69 velocity=0 time=0.045871499999999996
EXTRACT: note_on channel=9 note=61 velocity=0 time=0
EXTRACT: note_on channel=9 note=42 velocity=0 time=0
EXTRACT: note_on channel=9 note=61 velocity=44 time=0.09174299999999999
EXTRACT: note_on channel=9 note=61 velocity=0 time=0.045871499999999996
EXTRACT: note_on channel=8 note=67 velocity=0 time=0.0825687
EXTRACT: note_on channel=0 note=34 velocity=86 time=0.00458715
EXTRACT: note_on channel=8 note=65 velocity=98 time=0
EXTRACT: note_on channel=1 note=34 velocity=94 time=0.00458715
EXTRACT: note_on channel=9 note=61 velocity=44 time=0
EXTRACT: note_on channel=9 note=42 velocity=42 time=0
EXTRACT: note_on channel=9 note=36 velocity=98 time=0
EXTRACT: note_on channel=9 note=61 velocity=0 time=0.045871499999999996
EXTRACT: note_on channel=9 note=42 velocity=0 time=0
EXTRACT: note_on channel=9 note=36 velocity=0 time=0
EXTRACT: note_on channel=9 note=61 velocity=44 time=0.09174299999999999
EXTRACT: note_on channel=9 note=61 velocity=0 time=0.045871499999999996
EXTRACT: note_on channel=0 note=34 velocity=0 time=0.08715584999999999
EXTRACT: note_on channel=9 note=64 velocity=50 time=0
EXTRACT: note_on channel=1 note=34 velocity=0 time=0.00458715
EXTRACT: note_on channel=9 note=61 velocity=44 time=0
EXTRACT: note_on channel=9 note=42 velocity=42 time=0
EXTRACT: note_on channel=9 note=64 velocity=0 time=0.04128435
EXTRACT: note_on channel=9 note=61 velocity=0 time=0.00458715
EXTRACT: note_on channel=9 note=42 velocity=0 time=0
EXTRACT: note_on channel=0 note=34 velocity=88 time=0.08715584999999999
EXTRACT: note_on channel=9 note=63 velocity=50 time=0
EXTRACT: note_on channel=1 note=34 velocity=92 time=0.00458715
EXTRACT: note_on channel=9 note=36 velocity=98 time=0
EXTRACT: note_on channel=9 note=63 velocity=0 time=0.04128435
EXTRACT: note_on channel=9 note=36 velocity=0 time=0.00458715
EXTRACT: note_on channel=0 note=34 velocity=0 time=0.08715584999999999
EXTRACT: note_on channel=9 note=64 velocity=50 time=0
EXTRACT: note_on channel=1 note=34 velocity=0 time=0.00458715
EXTRACT: note_on channel=9 note=38 velocity=127 time=0
EXTRACT: note_on channel=9 note=42 velocity=42 time=0
EXTRACT: note_on channel=9 note=64 velocity=0 time=0.04128435
EXTRACT: note_on channel=9 note=38 velocity=0 time=0.00458715
EXTRACT: note_on channel=9 note=42 velocity=0 time=0
EXTRACT: note_on channel=9 note=64 velocity=50 time=0.08715584999999999
EXTRACT: note_on channel=9 note=64 velocity=0 time=0.045871499999999996
EXTRACT: note_on channel=0 note=34 velocity=101 time=0.09174299999999999
EXTRACT: note_on channel=8 note=65 velocity=0 time=0
EXTRACT: note_on channel=9 note=63 velocity=50 time=0
EXTRACT: note_on channel=1 note=34 velocity=104 time=0.00458715
EXTRACT: note_on channel=9 note=69 velocity=81 time=0
EXTRACT: note_on channel=9 note=42 velocity=42 time=0
EXTRACT: note_on channel=9 note=63 velocity=0 time=0.04128435
EXTRACT: note_on channel=9 note=69 velocity=0 time=0.00458715
EXTRACT: note_on channel=9 note=42 velocity=0 time=0
EXTRACT: note_on channel=0 note=34 velocity=0 time=0.08715584999999999
EXTRACT: note_on channel=1 note=34 velocity=0 time=0.00458715
EXTRACT: note_on channel=9 note=69 velocity=75 time=0
EXTRACT: note_on channel=9 note=69 velocity=0 time=0.045871499999999996
EXTRACT: note_on channel=0 note=39 velocity=97 time=0.08715584999999999
EXTRACT: note_on channel=8 note=58 velocity=92 time=0
EXTRACT: note_on channel=1 note=39 velocity=104 time=0.00458715
EXTRACT: note_on channel=9 note=69 velocity=78 time=0
EXTRACT: note_on channel=9 note=42 velocity=42 time=0
EXTRACT: note_on channel=9 note=69 velocity=0 time=0.045871499999999996
EXTRACT: note_on channel=9 note=42 velocity=0 time=0
EXTRACT: note_on channel=9 note=64 velocity=50 time=0.08715584999999999
EXTRACT: note_on channel=9 note=64 velocity=0 time=0.045871499999999996
EXTRACT: note_on channel=8 note=58 velocity=0 time=0.08715584999999999
EXTRACT: note_on channel=0 note=39 velocity=0 time=0.00458715
EXTRACT: note_on channel=8 note=60 velocity=109 time=0
EXTRACT: note_on channel=9 note=48 velocity=50 time=0
EXTRACT: note_on channel=1 note=39 velocity=0 time=0.00458715
EXTRACT: note_on channel=9 note=42 velocity=42 time=0
EXTRACT: note_on channel=9 note=36 velocity=98 time=0
EXTRACT: note_on channel=9 note=48 velocity=0 time=0.04128435
EXTRACT: note_on channel=9 note=42 velocity=0 time=0.00458715
EXTRACT: note_on channel=9 note=36 velocity=0 time=0
EXTRACT: note_on channel=0 note=39 velocity=94 time=0.08715584999999999
EXTRACT: note_on channel=9 note=64 velocity=50 time=0
EXTRACT: note_on channel=1 note=39 velocity=108 time=0.00458715
EXTRACT: note_on channel=9 note=64 velocity=0 time=0.04128435
EXTRACT: note_on channel=8 note=60 velocity=0 time=0.08715584999999999
EXTRACT: note_on channel=0 note=39 velocity=0 time=0.00458715
EXTRACT: note_on channel=8 note=63 velocity=108 time=0
EXTRACT: note_on channel=9 note=63 velocity=50 time=0
EXTRACT: note_on channel=1 note=39 velocity=0 time=0.00458715
EXTRACT: note_on channel=9 note=38 velocity=127 time=0
EXTRACT: note_on channel=9 note=42 velocity=42 time=0
EXTRACT: note_on channel=9 note=63 velocity=0 time=0.04128435
EXTRACT: note_on channel=9 note=38 velocity=0 time=0.00458715
EXTRACT: note_on channel=9 note=42 velocity=0 time=0
EXTRACT: note_on channel=8 note=63 velocity=0 time=0.2201832
EXTRACT: note_on channel=8 note=67 velocity=107 time=0.00458715
EXTRACT: note_on channel=9 note=61 velocity=44 time=0.00458715
EXTRACT: note_on channel=9 note=36 velocity=92 time=0
EXTRACT: note_on channel=9 note=42 velocity=42 time=0
EXTRACT: note_on channel=9 note=61 velocity=0 time=0.045871499999999996
EXTRACT: note_on channel=9 note=36 velocity=0 time=0
EXTRACT: note_on channel=9 note=42 velocity=0 time=0
EXTRACT: note_on channel=9 note=61 velocity=44 time=0.09174299999999999
EXTRACT: note_on channel=9 note=36 velocity=92 time=0
EXTRACT: note_on channel=9 note=61 velocity=0 time=0.045871499999999996
EXTRACT: note_on channel=9 note=36 velocity=0 time=0
EXTRACT: note_on channel=8 note=67 velocity=0 time=0.0825687
EXTRACT: note_on channel=0 note=32 velocity=102 time=0.00458715
EXTRACT: note_on channel=8 note=65 velocity=85 time=0
EXTRACT: note_on channel=1 note=32 velocity=113 time=0.00458715
EXTRACT: note_on channel=9 note=61 velocity=44 time=0
EXTRACT: note_on channel=9 note=42 velocity=42 time=0
EXTRACT: note_on channel=9 note=36 velocity=98 time=0
EXTRACT: note_on channel=9 note=61 velocity=0 time=0.045871499999999996
EXTRACT: note_on channel=9 note=42 velocity=0 time=0
EXTRACT: note_on channel=9 note=36 velocity=0 time=0
EXTRACT: note_on channel=0 note=32 velocity=0 time=0.22477035
EXTRACT: note_on channel=8 note=65 velocity=0 time=0
EXTRACT: note_on channel=1 note=32 velocity=0 time=0.00458715
EXTRACT: note_on channel=9 note=42 velocity=42 time=0
EXTRACT: note_on channel=9 note=42 velocity=0 time=0.045871499999999996
EXTRACT: note_on channel=0 note=32 velocity=96 time=0.08715584999999999
EXTRACT: note_on channel=1 note=32 velocity=111 time=0.00458715
EXTRACT: note_on channel=9 note=61 velocity=44 time=0
EXTRACT: note_on channel=9 note=36 velocity=98 time=0
EXTRACT: note_on channel=9 note=61 velocity=0 time=0.045871499999999996
EXTRACT: note_on channel=9 note=36 velocity=0 time=0
EXTRACT: note_on channel=0 note=32 velocity=0 time=0.08715584999999999
EXTRACT: note_on channel=8 note=63 velocity=109 time=0
EXTRACT: note_on channel=1 note=32 velocity=0 time=0.00458715
EXTRACT: note_on channel=9 note=38 velocity=127 time=0
EXTRACT: note_on channel=9 note=42 velocity=42 time=0
EXTRACT: note_on channel=9 note=38 velocity=0 time=0.045871499999999996
EXTRACT: note_on channel=9 note=42 velocity=0 time=0
EXTRACT: note_on channel=8 note=63 velocity=0 time=0.2201832
EXTRACT: note_on channel=8 note=65 velocity=85 time=0.00458715
EXTRACT: note_on channel=9 note=69 velocity=82 time=0.00458715
EXTRACT: note_on channel=9 note=42 velocity=42 time=0
EXTRACT: note_on channel=9 note=69 velocity=0 time=0.045871499999999996
EXTRACT: note_on channel=9 note=42 velocity=0 time=0
EXTRACT: note_on channel=9 note=69 velocity=80 time=0.09174299999999999
EXTRACT: note_on channel=9 note=69 velocity=0 time=0.045871499999999996
EXTRACT: note_on channel=9 note=69 velocity=77 time=0.09174299999999999
EXTRACT: note_on channel=9 note=42 velocity=42 time=0
EXTRACT: note_on channel=9 note=69 velocity=0 time=0.045871499999999996
EXTRACT: note_on channel=9 note=42 velocity=0 time=0
EXTRACT: note_on channel=0 note=29 velocity=91 time=0.22477035
EXTRACT: note_on channel=1 note=29 velocity=102 time=0.00458715
EXTRACT: note_on channel=9 note=42 velocity=42 time=0
EXTRACT: note_on channel=9 note=36 velocity=98 time=0
EXTRACT: note_on channel=9 note=42 velocity=0 time=0.045871499999999996
EXTRACT: note_on channel=9 note=36 velocity=0 time=0
EXTRACT: note_on channel=0 note=29 velocity=0 time=0.08715584999999999
EXTRACT: note_on channel=1 note=29 velocity=0 time=0.00458715
EXTRACT: note_on channel=9 note=38 velocity=127 time=0.1376145
EXTRACT: note_on channel=9 note=42 velocity=42 time=0
EXTRACT: note_on channel=9 note=38 velocity=0 time=0.045871499999999996
EXTRACT: note_on channel=9 note=42 velocity=0 time=0
EXTRACT: note_on channel=0 note=30 velocity=102 time=0.08715584999999999
EXTRACT: note_on channel=1 note=30 velocity=102 time=0.00458715
EXTRACT: note_on channel=8 note=65 velocity=0 time=0.1284402
EXTRACT: note_on channel=0 note=30 velocity=0 time=0.00458715
EXTRACT: note_on channel=8 note=58 velocity=98 time=0
EXTRACT: note_on channel=1 note=30 velocity=0 time=0.00458715
EXTRACT: note_on channel=9 note=69 velocity=77 time=0
EXTRACT: note_on channel=9 note=61 velocity=44 time=0
EXTRACT: note_on channel=9 note=42 velocity=42 time=0
EXTRACT: note_on channel=9 note=69 velocity=0 time=0.045871499999999996
EXTRACT: note_on channel=9 note=61 velocity=0 time=0
EXTRACT: note_on channel=9 note=42 velocity=0 time=0
EXTRACT: note_on channel=9 note=61 velocity=44 time=0.09174299999999999
EXTRACT: note_on channel=9 note=61 velocity=0 time=0.045871499999999996
EXTRACT: note_on channel=8 note=58 velocity=0 time=0.0825687
EXTRACT: note_on channel=0 note=31 velocity=88 time=0.00458715
EXTRACT: note_on channel=8 note=67 velocity=85 time=0
EXTRACT: note_on channel=1 note=31 velocity=98 time=0.00458715
EXTRACT: note_on channel=9 note=61 velocity=44 time=0
EXTRACT: note_on channel=9 note=42 velocity=42 time=0
EXTRACT: note_on channel=9 note=36 velocity=98 time=0
EXTRACT: note_on channel=9 note=61 velocity=0 time=0.045871499999999996
EXTRACT: note_on channel=9 note=42 velocity=0 time=0
EXTRACT: note_on channel=9 note=36 velocity=0 time=0
EXTRACT: note_on channel=9 note=61 velocity=44 time=0.09174299999999999
EXTRACT: note_on channel=9 note=61 velocity=0 time=0.045871499999999996
EXTRACT: note_on channel=8 note=67 velocity=0 time=0.0825687
EXTRACT: note_on channel=0 note=31 velocity=0 time=0.00458715
EXTRACT: note_on channel=8 note=67 velocity=106 time=0
EXTRACT: note_on channel=9 note=64 velocity=50 time=0
EXTRACT: note_on channel=1 note=31 velocity=0 time=0.00458715
EXTRACT: note_on channel=9 note=61 velocity=44 time=0
EXTRACT: note_on channel=9 note=42 velocity=42 time=0
EXTRACT: note_on channel=9 note=64 velocity=0 time=0.04128435
EXTRACT: note_on channel=9 note=61 velocity=0 time=0.00458715
EXTRACT: note_on channel=9 note=42 velocity=0 time=0
EXTRACT: note_on channel=0 note=31 velocity=106 time=0.08715584999999999
EXTRACT: note_on channel=9 note=63 velocity=50 time=0
EXTRACT: note_on channel=1 note=31 velocity=104 time=0.00458715
EXTRACT: note_on channel=9 note=36 velocity=98 time=0
EXTRACT: note_on channel=9 note=63 velocity=0 time=0.04128435
EXTRACT: note_on channel=9 note=36 velocity=0 time=0.00458715
EXTRACT: note_on channel=8 note=67 velocity=0 time=0.0825687
EXTRACT: note_on channel=0 note=31 velocity=0 time=0.00458715
EXTRACT: note_on channel=8 note=65 velocity=86 time=0
EXTRACT: note_on channel=9 note=64 velocity=50 time=0
EXTRACT: note_on channel=1 note=31 velocity=0 time=0.00458715
EXTRACT: note_on channel=9 note=38 velocity=127 time=0
EXTRACT: note_on channel=9 note=42 velocity=42 time=0
EXTRACT: note_on channel=9 note=64 velocity=0 time=0.04128435
EXTRACT: note_on channel=9 note=38 velocity=0 time=0.00458715
EXTRACT: note_on channel=9 note=42 velocity=0 time=0
EXTRACT: note_on channel=9 note=64 velocity=50 time=0.08715584999999999
EXTRACT: note_on channel=9 note=64 velocity=0 time=0.045871499999999996
EXTRACT: note_on channel=8 note=65 velocity=0 time=0.09174299999999999
EXTRACT: note_on channel=9 note=63 velocity=50 time=0
EXTRACT: note_on channel=9 note=69 velocity=82 time=0.00458715
EXTRACT: note_on channel=9 note=42 velocity=42 time=0
EXTRACT: note_on channel=9 note=63 velocity=0 time=0.04128435
EXTRACT: note_on channel=9 note=69 velocity=0 time=0.00458715
EXTRACT: note_on channel=9 note=42 velocity=0 time=0
EXTRACT: note_on channel=9 note=69 velocity=82 time=0.09174299999999999
EXTRACT: note_on channel=9 note=69 velocity=0 time=0.045871499999999996
EXTRACT: note_on channel=8 note=63 velocity=95 time=0.08715584999999999
EXTRACT: note_on channel=9 note=69 velocity=82 time=0.00458715
EXTRACT: note_on channel=9 note=42 velocity=42 time=0
EXTRACT: note_on channel=9 note=69 velocity=0 time=0.045871499999999996
EXTRACT: note_on channel=9 note=42 velocity=0 time=0
EXTRACT: note_on channel=9 note=64 velocity=50 time=0.08715584999999999
EXTRACT: note_on channel=9 note=64 velocity=0 time=0.045871499999999996
EXTRACT: note_on channel=8 note=63 velocity=0 time=0.08715584999999999
EXTRACT: note_on channel=8 note=65 velocity=102 time=0.00458715
EXTRACT: note_on channel=9 note=48 velocity=50 time=0
EXTRACT: note_on channel=9 note=42 velocity=42 time=0.00458715
EXTRACT: note_on channel=9 note=36 velocity=98 time=0
EXTRACT: note_on channel=9 note=48 velocity=0 time=0.04128435
EXTRACT: note_on channel=9 note=42 velocity=0 time=0.00458715
EXTRACT: note_on channel=9 note=36 velocity=0 time=0
EXTRACT: note_on channel=9 note=64 velocity=50 time=0.08715584999999999
EXTRACT: note_on channel=9 note=64 velocity=0 time=0.045871499999999996
EXTRACT: note_on channel=8 note=65 velocity=0 time=0.08715584999999999
EXTRACT: note_on channel=8 note=67 velocity=93 time=0.00458715
EXTRACT: note_on channel=9 note=63 velocity=50 time=0
EXTRACT: note_on channel=9 note=38 velocity=127 time=0.00458715
EXTRACT: note_on channel=9 note=42 velocity=42 time=0
EXTRACT: note_on channel=9 note=63 velocity=0 time=0.04128435
EXTRACT: note_on channel=9 note=38 velocity=0 time=0.00458715
EXTRACT: note_on channel=9 note=42 velocity=0 time=0
EXTRACT: note_on channel=8 note=67 velocity=0 time=0.2201832
EXTRACT: note_on channel=8 note=65 velocity=95 time=0.00458715
EXTRACT: note_on channel=9 note=61 velocity=44 time=0.00458715
EXTRACT: note_on channel=9 note=36 velocity=92 time=0
EXTRACT: note_on channel=9 note=42 velocity=42 time=0
EXTRACT: note_on channel=9 note=61 velocity=0 time=0.045871499999999996
EXTRACT: note_on channel=9 note=36 velocity=0 time=0
EXTRACT: note_on channel=9 note=42 velocity=0 time=0
EXTRACT: note_on channel=9 note=61 velocity=44 time=0.09174299999999999
EXTRACT: note_on channel=9 note=36 velocity=92 time=0
EXTRACT: note_on channel=9 note=61 velocity=0 time=0.045871499999999996
EXTRACT: note_on channel=9 note=36 velocity=0 time=0
EXTRACT: note_on channel=0 note=36 velocity=85 time=0.08715584999999999
EXTRACT: note_on channel=1 note=36 velocity=104 time=0.00458715
EXTRACT: note_on channel=9 note=61 velocity=44 time=0
EXTRACT: note_on channel=9 note=42 velocity=42 time=0
EXTRACT: note_on channel=9 note=36 velocity=98 time=0
EXTRACT: note_on channel=9 note=61 velocity=0 time=0.045871499999999996
EXTRACT: note_on channel=9 note=42 velocity=0 time=0
EXTRACT: note_on channel=9 note=36 velocity=0 time=0
EXTRACT: note_on channel=8 note=65 velocity=0 time=0.2201832
EXTRACT: note_on channel=0 note=36 velocity=0 time=0.00458715
EXTRACT: note_on channel=8 note=67 velocity=96 time=0
EXTRACT: note_on channel=1 note=36 velocity=0 time=0.00458715
EXTRACT: note_on channel=9 note=42 velocity=42 time=0
EXTRACT: note_on channel=9 note=42 velocity=0 time=0.045871499999999996
EXTRACT: note_on channel=0 note=36 velocity=89 time=0.08715584999999999
EXTRACT: note_on channel=1 note=36 velocity=96 time=0.00458715
EXTRACT: note_on channel=9 note=61 velocity=44 time=0
EXTRACT: note_on channel=9 note=36 velocity=98 time=0
EXTRACT: note_on channel=9 note=61 velocity=0 time=0.045871499999999996
EXTRACT: note_on channel=9 note=36 velocity=0 time=0
EXTRACT: note_on channel=0 note=36 velocity=0 time=0.08715584999999999
EXTRACT: note_on channel=1 note=36 velocity=0 time=0.00458715
EXTRACT: note_on channel=9 note=38 velocity=127 time=0
EXTRACT: note_on channel=9 note=42 velocity=42 time=0
EXTRACT: note_on channel=9 note=38 velocity=0 time=0.045871499999999996
EXTRACT: note_on channel=9 note=42 velocity=0 time=0
EXTRACT: note_on channel=9 note=69 velocity=80 time=0.2293575
EXTRACT: note_on channel=9 note=42 velocity=42 time=0
EXTRACT: note_on channel=9 note=69 velocity=0 time=0.045871499999999996
EXTRACT: note_on channel=9 note=42 velocity=0 time=0
EXTRACT: note_on channel=9 note=69 velocity=78 time=0.09174299999999999
EXTRACT: note_on channel=9 note=69 velocity=0 time=0.045871499999999996
EXTRACT: note_on channel=9 note=69 velocity=76 time=0.09174299999999999
EXTRACT: note_on channel=9 note=42 velocity=42 time=0
EXTRACT: note_on channel=9 note=69 velocity=0 time=0.045871499999999996
EXTRACT: note_on channel=9 note=42 velocity=0 time=0
EXTRACT: note_on channel=9 note=42 velocity=42 time=0.2293575
EXTRACT: note_on channel=9 note=36 velocity=98 time=0
EXTRACT: note_on channel=9 note=42 velocity=0 time=0.045871499999999996
EXTRACT: note_on channel=9 note=36 velocity=0 time=0
EXTRACT: note_on channel=8 note=67 velocity=0 time=0.22477035
EXTRACT: note_on channel=9 note=38 velocity=127 time=0.00458715
EXTRACT: note_on channel=9 note=42 velocity=42 time=0
EXTRACT: note_on channel=9 note=38 velocity=0 time=0.045871499999999996
EXTRACT: note_on channel=9 note=42 velocity=0 time=0
EXTRACT: note_on channel=8 note=63 velocity=90 time=0.22477035
EXTRACT: note_on channel=9 note=69 velocity=76 time=0.00458715
EXTRACT: note_on channel=9 note=61 velocity=44 time=0
EXTRACT: note_on channel=9 note=42 velocity=42 time=0
EXTRACT: note_on channel=9 note=69 velocity=0 time=0.045871499999999996
EXTRACT: note_on channel=9 note=61 velocity=0 time=0
EXTRACT: note_on channel=9 note=42 velocity=0 time=0
EXTRACT: note_on channel=9 note=61 velocity=44 time=0.09174299999999999
EXTRACT: note_on channel=9 note=61 velocity=0 time=0.045871499999999996
EXTRACT: note_on channel=8 note=63 velocity=0 time=0.0825687
EXTRACT: note_on channel=0 note=34 velocity=91 time=0.00458715
EXTRACT: control_change channel=7 control=64 value=127 time=0
EXTRACT: note_on channel=8 note=72 velocity=98 time=0
EXTRACT: note_on channel=1 note=34 velocity=98 time=0.00458715
EXTRACT: note_on channel=9 note=61 velocity=44 time=0
EXTRACT: note_on channel=9 note=42 velocity=42 time=0
EXTRACT: note_on channel=9 note=36 velocity=98 time=0
EXTRACT: note_on channel=9 note=61 velocity=0 time=0.045871499999999996
EXTRACT: note_on channel=9 note=42 velocity=0 time=0
EXTRACT: note_on channel=9 note=36 velocity=0 time=0
EXTRACT: note_on channel=9 note=61 velocity=44 time=0.09174299999999999
EXTRACT: note_on channel=9 note=61 velocity=0 time=0.045871499999999996
EXTRACT: note_on channel=0 note=34 velocity=0 time=0.08715584999999999
EXTRACT: note_on channel=9 note=64 velocity=50 time=0
EXTRACT: note_on channel=1 note=34 velocity=0 time=0.00458715
EXTRACT: note_on channel=9 note=61 velocity=44 time=0
EXTRACT: note_on channel=9 note=42 velocity=42 time=0
EXTRACT: note_on channel=9 note=64 velocity=0 time=0.04128435
EXTRACT: note_on channel=9 note=61 velocity=0 time=0.00458715
EXTRACT: note_on channel=9 note=42 velocity=0 time=0
EXTRACT: note_on channel=0 note=34 velocity=102 time=0.08715584999999999
EXTRACT: note_on channel=9 note=63 velocity=50 time=0
EXTRACT: note_on channel=1 note=34 velocity=107 time=0.00458715
EXTRACT: note_on channel=9 note=36 velocity=98 time=0
EXTRACT: note_on channel=9 note=63 velocity=0 time=0.04128435
EXTRACT: note_on channel=9 note=36 velocity=0 time=0.00458715
EXTRACT: note_on channel=8 note=72 velocity=0 time=0.0825687
EXTRACT: note_on channel=0 note=34 velocity=0 time=0.00458715
EXTRACT: note_on channel=8 note=70 velocity=95 time=0
EXTRACT: note_on channel=9 note=64 velocity=50 time=0
EXTRACT: note_on channel=1 note=34 velocity=0 time=0.00458715
EXTRACT: note_on channel=9 note=38 velocity=127 time=0
EXTRACT: note_on channel=9 note=42 velocity=42 time=0
EXTRACT: note_on channel=9 note=64 velocity=0 time=0.04128435
EXTRACT: note_on channel=9 note=38 velocity=0 time=0.00458715
EXTRACT: note_on channel=9 note=42 velocity=0 time=0
EXTRACT: note_on channel=9 note=64 velocity=50 time=0.08715584999999999
EXTRACT: note_on channel=9 note=64 velocity=0 time=0.045871499999999996
EXTRACT: note_on channel=0 note=34 velocity=88 time=0.09174299999999999
EXTRACT: note_on channel=9 note=63 velocity=50 time=0
EXTRACT: note_on channel=1 note=34 velocity=93 time=0.00458715
EXTRACT: note_on channel=9 note=69 velocity=80 time=0
EXTRACT: note_on channel=9 note=42 velocity=42 time=0
EXTRACT: note_on channel=9 note=63 velocity=0 time=0.04128435
EXTRACT: note_on channel=9 note=69 velocity=0 time=0.00458715
EXTRACT: note_on channel=9 note=42 velocity=0 time=0
EXTRACT: note_on channel=0 note=34 velocity=0 time=0.08715584999999999
EXTRACT: note_on channel=1 note=34 velocity=0 time=0.00458715
EXTRACT: note_on channel=9 note=69 velocity=79 time=0
EXTRACT: note_on channel=9 note=69 velocity=0 time=0.045871499999999996
EXTRACT: note_on channel=8 note=70 velocity=0 time=0.0825687
EXTRACT: note_on channel=0 note=39 velocity=103 time=0.00458715
EXTRACT: note_on channel=6 note=32 velocity=88 time=0
EXTRACT: note_on channel=8 note=68 velocity=116 time=0
EXTRACT: note_on channel=1 note=39 velocity=102 time=0.00458715
EXTRACT: note_on channel=9 note=29 velocity=45 time=0
EXTRACT: note_on channel=9 note=36 velocity=92 time=0
EXTRACT: note_on channel=9 note=29 velocity=0 time=0.045871499999999996
EXTRACT: note_on channel=9 note=36 velocity=0 time=0
EXTRACT: note_on channel=6 note=32 velocity=0 time=0.0860090625
EXTRACT: note_on channel=6 note=32 velocity=78 time=0.0011467875
EXTRACT: note_on channel=9 note=64 velocity=50 time=0
EXTRACT: note_on channel=9 note=29 velocity=31 time=0.00458715
EXTRACT: note_on channel=9 note=41 velocity=70 time=0
EXTRACT: note_on channel=9 note=64 velocity=0 time=0.04128435
EXTRACT: note_on channel=9 note=29 velocity=0 time=0.00458715
EXTRACT: note_on channel=9 note=41 velocity=0 time=0
EXTRACT: note_on channel=7 note=31 velocity=61 time=0.0183486
EXTRACT: note_on channel=6 note=32 velocity=0 time=0.0676604625
EXTRACT: note_on channel=0 note=39 velocity=0 time=0.0011467875
EXTRACT: note_on channel=6 note=32 velocity=89 time=0
EXTRACT: note_on channel=9 note=48 velocity=50 time=0
EXTRACT: note_on channel=1 note=39 velocity=0 time=0.00458715
EXTRACT: note_on channel=7 note=33 velocity=58 time=0
EXTRACT: note_on channel=9 note=29 velocity=45 time=0
EXTRACT: note_on channel=9 note=36 velocity=92 time=0
EXTRACT: note_on channel=7 note=31 velocity=0 time=0.022935749999999998
EXTRACT: note_on channel=9 note=48 velocity=0 time=0.0183486
EXTRACT: note_on channel=9 note=29 velocity=0 time=0.00458715
EXTRACT: note_on channel=9 note=36 velocity=0 time=0
EXTRACT: note_on channel=7 note=35 velocity=74 time=0.03211005
EXTRACT: note_on channel=7 note=33 velocity=0 time=0.00458715
EXTRACT: note_on channel=6 note=32 velocity=0 time=0.0493118625
EXTRACT: note_on channel=0 note=39 velocity=95 time=0.0011467875
EXTRACT: note_on channel=6 note=32 velocity=66 time=0
EXTRACT: note_on channel=7 note=36 velocity=79 time=0
EXTRACT: note_on channel=9 note=64 velocity=50 time=0
EXTRACT: note_on channel=1 note=39 velocity=110 time=0.00458715
EXTRACT: note_on channel=9 note=29 velocity=31 time=0
EXTRACT: note_on channel=9 note=41 velocity=70 time=0
EXTRACT: note_on channel=7 note=35 velocity=0 time=0.00458715
EXTRACT: note_on channel=7 note=36 velocity=0 time=0.0366972
EXTRACT: note_on channel=9 note=64 velocity=0 time=0
EXTRACT: note_on channel=9 note=29 velocity=0 time=0.00458715
EXTRACT: note_on channel=9 note=41 velocity=0 time=0
EXTRACT: note_on channel=7 note=38 velocity=79 time=0.01376145
EXTRACT: note_on channel=7 note=38 velocity=0 time=0.04128435
EXTRACT: note_on channel=7 note=40 velocity=79 time=0.01376145
EXTRACT: note_on channel=8 note=68 velocity=0 time=0.01376145
EXTRACT: note_on channel=6 note=32 velocity=0 time=0.0034403625
EXTRACT: note_on channel=0 note=39 velocity=0 time=0.0011467875
EXTRACT: note_on channel=6 note=32 velocity=94 time=0
EXTRACT: note_on channel=8 note=67 velocity=102 time=0
EXTRACT: note_on channel=9 note=63 velocity=50 time=0
EXTRACT: note_on channel=1 note=39 velocity=0 time=0.00458715
EXTRACT: note_on channel=9 note=29 velocity=45 time=0
EXTRACT: note_on channel=9 note=38 velocity=127 time=0
EXTRACT: note_on channel=9 note=36 velocity=92 time=0
EXTRACT: note_on channel=7 note=40 velocity=0 time=0.0275229
EXTRACT: note_on channel=7 note=41 velocity=79 time=0.0091743
EXTRACT: note_on channel=9 note=63 velocity=0 time=0.00458715
EXTRACT: note_on channel=9 note=29 velocity=0 time=0.00458715
EXTRACT: note_on channel=9 note=38 velocity=0 time=0
EXTRACT: note_on channel=9 note=36 velocity=0 time=0
EXTRACT: note_on channel=7 note=43 velocity=79 time=0.05045865
EXTRACT: note_on channel=7 note=41 velocity=0 time=0.00458715
EXTRACT: note_on channel=6 note=32 velocity=0 time=0.030963262499999998
EXTRACT: note_on channel=6 note=32 velocity=93 time=0.0011467875
EXTRACT: note_on channel=9 note=29 velocity=31 time=0.00458715
EXTRACT: note_on channel=9 note=41 velocity=70 time=0
EXTRACT: note_on channel=7 note=45 velocity=74 time=0.0183486
EXTRACT: note_on channel=7 note=43 velocity=0 time=0.0091743
EXTRACT: note_on channel=9 note=29 velocity=0 time=0.0183486
EXTRACT: note_on channel=9 note=41 velocity=0 time=0
EXTRACT: note_on channel=7 note=47 velocity=79 time=0.0275229
EXTRACT: note_on channel=7 note=45 velocity=0 time=0.01376145
EXTRACT: note_on channel=6 note=32 velocity=0 time=0.0447247125
EXTRACT: note_on channel=6 note=32 velocity=96 time=0.0011467875
EXTRACT: note_on channel=7 note=48 velocity=58 time=0
EXTRACT: note_on channel=7 note=47 velocity=0 time=0.00458715
EXTRACT: note_on channel=9 note=61 velocity=44 time=0
EXTRACT: note_on channel=9 note=29 velocity=45 time=0
EXTRACT: note_on channel=9 note=36 velocity=92 time=0
EXTRACT: note_on channel=9 note=61 velocity=0 time=0.045871499999999996
EXTRACT: note_on channel=9 note=29 velocity=0 time=0
EXTRACT: note_on channel=9 note=36 velocity=0 time=0
EXTRACT: note_on channel=7 note=50 velocity=58 time=0.0091743
EXTRACT: note_on channel=7 note=48 velocity=0 time=0.00458715
EXTRACT: note_on channel=7 note=52 velocity=58 time=0.0550458
EXTRACT: note_on channel=7 note=50 velocity=0 time=0.0091743
EXTRACT: note_on channel=6 note=32 velocity=0 time=0.0080275125
EXTRACT: note_on channel=6 note=32 velocity=77 time=0.0011467875
EXTRACT: note_on channel=9 note=61 velocity=44 time=0.00458715
EXTRACT: note_on channel=9 note=29 velocity=31 time=0
EXTRACT: note_on channel=9 note=41 velocity=70 time=0
EXTRACT: note_on channel=7 note=53 velocity=62 time=0.0366972
EXTRACT: note_on channel=7 note=52 velocity=0 time=0.0091743
EXTRACT: note_on channel=9 note=61 velocity=0 time=0
EXTRACT: note_on channel=9 note=29 velocity=0 time=0
EXTRACT: note_on channel=9 note=41 velocity=0 time=0
EXTRACT: note_on channel=7 note=55 velocity=62 time=0.0550458
EXTRACT: note_on channel=7 note=53 velocity=0 time=0.00458715
EXTRACT: note_on channel=3 note=44 velocity=42 time=0.0183486
EXTRACT: note_on channel=3 note=55 velocity=61 time=0
EXTRACT: note_on channel=3 note=63 velocity=76 time=0
EXTRACT: note_on channel=3 note=60 velocity=71 time=0
EXTRACT: note_on channel=8 note=67 velocity=0 time=0.00458715
EXTRACT: note_on channel=0 note=32 velocity=97 time=0.00458715
EXTRACT: note_on channel=4 note=55 velocity=104 time=0
EXTRACT: note_on channel=4 note=63 velocity=111 time=0
EXTRACT: note_on channel=6 note=32 velocity=0 time=0
EXTRACT: control_change channel=7 control=64 value=0 time=0
EXTRACT: note_on channel=8 note=65 velocity=115 time=0
EXTRACT: note_on channel=1 note=32 velocity=92 time=0.00458715
EXTRACT: note_on channel=9 note=61 velocity=44 time=0
EXTRACT: note_on channel=9 note=57 velocity=95 time=0
EXTRACT: note_on channel=9 note=36 velocity=98 time=0
EXTRACT: note_on channel=2 note=44 velocity=36 time=0.00458715
EXTRACT: note_on channel=2 note=55 velocity=86 time=0
EXTRACT: note_on channel=2 note=63 velocity=88 time=0
EXTRACT: note_on channel=2 note=60 velocity=92 time=0
EXTRACT: note_on channel=7 note=55 velocity=0 time=0.022935749999999998
EXTRACT: note_on channel=9 note=61 velocity=0 time=0.0183486
EXTRACT: note_on channel=9 note=57 velocity=0 time=0
EXTRACT: note_on channel=9 note=36 velocity=0 time=0
EXTRACT: note_on channel=8 note=65 velocity=0 time=0.2201832
EXTRACT: note_on channel=0 note=32 velocity=0 time=0.00458715
EXTRACT: note_on channel=8 note=63 velocity=95 time=0
EXTRACT: note_on channel=1 note=32 velocity=0 time=0.00458715
EXTRACT: note_on channel=9 note=42 velocity=42 time=0
EXTRACT: note_on channel=9 note=42 velocity=0 time=0.045871499999999996
EXTRACT: note_on channel=0 note=32 velocity=83 time=0.08715584999999999
EXTRACT: note_on channel=1 note=32 velocity=98 time=0.00458715
EXTRACT: note_on channel=9 note=61 velocity=44 time=0
EXTRACT: note_on channel=9 note=36 velocity=98 time=0
EXTRACT: note_on channel=9 note=61 velocity=0 time=0.045871499999999996
EXTRACT: note_on channel=9 note=36 velocity=0 time=0
EXTRACT: note_on channel=8 note=63 velocity=0 time=0.0825687
EXTRACT: note_on channel=0 note=32 velocity=0 time=0.00458715
EXTRACT: note_on channel=8 note=65 velocity=107 time=0
EXTRACT: note_on channel=1 note=32 velocity=0 time=0.00458715
EXTRACT: note_on channel=9 note=38 velocity=127 time=0
EXTRACT: note_on channel=9 note=42 velocity=42 time=0
EXTRACT: note_on channel=9 note=38 velocity=0 time=0.045871499999999996
EXTRACT: note_on channel=9 note=42 velocity=0 time=0
EXTRACT: note_on channel=8 note=65 velocity=0 time=0.2201832
EXTRACT: note_on channel=8 note=63 velocity=92 time=0.00458715
EXTRACT: note_on channel=9 note=69 velocity=77 time=0.00458715
EXTRACT: note_on channel=9 note=42 velocity=42 time=0
EXTRACT: note_on channel=9 note=69 velocity=0 time=0.045871499999999996
EXTRACT: note_on channel=9 note=42 velocity=0 time=0
EXTRACT: note_on channel=9 note=69 velocity=82 time=0.09174299999999999
EXTRACT: note_on channel=9 note=69 velocity=0 time=0.045871499999999996
EXTRACT: note_on channel=8 note=63 velocity=0 time=0.0825687
EXTRACT: note_on channel=8 note=65 velocity=101 time=0.00458715
EXTRACT: note_on channel=9 note=69 velocity=82 time=0.00458715
EXTRACT: note_on channel=9 note=42 velocity=42 time=0
EXTRACT: note_on channel=9 note=69 velocity=0 time=0.045871499999999996
EXTRACT: note_on channel=9 note=42 velocity=0 time=0
EXTRACT: note_on channel=8 note=65 velocity=0 time=0.2201832
EXTRACT: note_on channel=8 note=63 velocity=110 time=0.00458715
EXTRACT: note_on channel=9 note=42 velocity=42 time=0.00458715
EXTRACT: note_on channel=9 note=36 velocity=98 time=0
EXTRACT: note_on channel=9 note=42 velocity=0 time=0.045871499999999996
EXTRACT: note_on channel=9 note=36 velocity=0 time=0
EXTRACT: note_on channel=8 note=63 velocity=0 time=0.2201832
EXTRACT: note_on channel=8 note=65 velocity=107 time=0.00458715
EXTRACT: note_on channel=9 note=38 velocity=127 time=0.00458715
EXTRACT: note_on channel=9 note=42 velocity=42 time=0
EXTRACT: note_on channel=9 note=38 velocity=0 time=0.045871499999999996
EXTRACT: note_on channel=9 note=42 velocity=0 time=0
EXTRACT: note_on channel=8 note=65 velocity=0 time=0.2201832
EXTRACT: note_on channel=8 note=67 velocity=102 time=0.00458715
EXTRACT: note_on channel=9 note=69 velocity=76 time=0.00458715
EXTRACT: note_on channel=9 note=61 velocity=44 time=0
EXTRACT: note_on channel=9 note=42 velocity=42 time=0
EXTRACT: note_on channel=9 note=69 velocity=0 time=0.045871499999999996
EXTRACT: note_on channel=9 note=61 velocity=0 time=0
EXTRACT: note_on channel=9 note=42 velocity=0 time=0
EXTRACT: note_on channel=9 note=61 velocity=44 time=0.09174299999999999
EXTRACT: note_on channel=9 note=61 velocity=0 time=0.045871499999999996
EXTRACT: note_on channel=3 note=44 velocity=0 time=0.07798155
EXTRACT: note_on channel=3 note=55 velocity=0 time=0
EXTRACT: note_on channel=3 note=63 velocity=0 time=0
EXTRACT: note_on channel=3 note=60 velocity=0 time=0
EXTRACT: note_on channel=3 note=55 velocity=55 time=0
EXTRACT: note_on channel=3 note=63 velocity=82 time=0
EXTRACT: note_on channel=3 note=59 velocity=58 time=0
EXTRACT: note_on channel=8 note=67 velocity=0 time=0.00458715
EXTRACT: note_on channel=0 note=31 velocity=92 time=0.00458715
EXTRACT: note_on channel=8 note=67 velocity=107 time=0
EXTRACT: note_on channel=1 note=31 velocity=113 time=0.00458715
EXTRACT: note_on channel=9 note=61 velocity=44 time=0
EXTRACT: note_on channel=9 note=42 velocity=42 time=0
EXTRACT: note_on channel=9 note=36 velocity=98 time=0
EXTRACT: note_on channel=2 note=44 velocity=0 time=0.00458715
EXTRACT: note_on channel=2 note=55 velocity=0 time=0
EXTRACT: note_on channel=2 note=63 velocity=0 time=0
EXTRACT: note_on channel=2 note=60 velocity=0 time=0
EXTRACT: note_on channel=2 note=55 velocity=84 time=0
EXTRACT: note_on channel=2 note=63 velocity=73 time=0
EXTRACT: note_on channel=2 note=59 velocity=75 time=0
EXTRACT: note_on channel=9 note=61 velocity=0 time=0.04128435
EXTRACT: note_on channel=9 note=42 velocity=0 time=0
EXTRACT: note_on channel=9 note=36 velocity=0 time=0
EXTRACT: note_on channel=9 note=61 velocity=44 time=0.09174299999999999
EXTRACT: note_on channel=9 note=61 velocity=0 time=0.045871499999999996
EXTRACT: note_on channel=8 note=67 velocity=0 time=0.0825687
EXTRACT: note_on channel=0 note=31 velocity=0 time=0.00458715
EXTRACT: note_on channel=8 note=65 velocity=105 time=0
EXTRACT: note_on channel=1 note=31 velocity=0 time=0.00458715
EXTRACT: note_on channel=9 note=61 velocity=44 time=0
EXTRACT: note_on channel=9 note=42 velocity=42 time=0
EXTRACT: note_on channel=9 note=61 velocity=0 time=0.045871499999999996
EXTRACT: note_on channel=9 note=42 velocity=0 time=0
EXTRACT: note_on channel=0 note=31 velocity=98 time=0.08715584999999999
EXTRACT: note_on channel=1 note=31 velocity=95 time=0.00458715
EXTRACT: note_on channel=9 note=36 velocity=98 time=0
EXTRACT: note_on channel=9 note=36 velocity=0 time=0.045871499999999996
EXTRACT: note_on channel=0 note=31 velocity=0 time=0.08715584999999999
EXTRACT: note_on channel=1 note=31 velocity=0 time=0.00458715
EXTRACT: note_on channel=9 note=38 velocity=127 time=0
EXTRACT: note_on channel=9 note=42 velocity=42 time=0
EXTRACT: note_on channel=9 note=38 velocity=0 time=0.045871499999999996
EXTRACT: note_on channel=9 note=42 velocity=0 time=0
EXTRACT: note_on channel=9 note=69 velocity=75 time=0.2293575
EXTRACT: note_on channel=9 note=42 velocity=42 time=0
EXTRACT: note_on channel=9 note=69 velocity=0 time=0.045871499999999996
EXTRACT: note_on channel=9 note=42 velocity=0 time=0
EXTRACT: note_on channel=9 note=69 velocity=77 time=0.09174299999999999
EXTRACT: note_on channel=9 note=69 velocity=0 time=0.045871499999999996
EXTRACT: note_on channel=8 note=65 velocity=0 time=0.08715584999999999
EXTRACT: note_on channel=9 note=69 velocity=79 time=0.00458715
EXTRACT: note_on channel=9 note=42 velocity=42 time=0
EXTRACT: note_on channel=9 note=69 velocity=0 time=0.045871499999999996
EXTRACT: note_on channel=9 note=42 velocity=0 time=0
EXTRACT: note_on channel=8 note=63 velocity=115 time=0.22477035
EXTRACT: note_on channel=9 note=42 velocity=42 time=0.00458715
EXTRACT: note_on channel=9 note=36 velocity=98 time=0
EXTRACT: note_on channel=9 note=42 velocity=0 time=0.045871499999999996
EXTRACT: note_on channel=9 note=36 velocity=0 time=0
EXTRACT: note_on channel=8 note=63 velocity=0 time=0.2201832
EXTRACT: note_on channel=8 note=63 velocity=88 time=0.00458715
EXTRACT: note_on channel=9 note=38 velocity=127 time=0.00458715
EXTRACT: note_on channel=9 note=42 velocity=42 time=0
EXTRACT: note_on channel=9 note=38 velocity=0 time=0.045871499999999996
EXTRACT: note_on channel=9 note=42 velocity=0 time=0
EXTRACT: note_on channel=8 note=63 velocity=0 time=0.2201832
EXTRACT: note_on channel=8 note=63 velocity=107 time=0.00458715
EXTRACT: note_on channel=9 note=61 velocity=44 time=0.00458715
EXTRACT: note_on channel=9 note=36 velocity=92 time=0
EXTRACT: note_on channel=9 note=42 velocity=42 time=0
EXTRACT: note_on channel=9 note=61 velocity=0 time=0.045871499999999996
EXTRACT: note_on channel=9 note=36 velocity=0 time=0
EXTRACT: note_on channel=9 note=42 velocity=0 time=0
EXTRACT: note_on channel=9 note=61 velocity=44 time=0.09174299999999999
EXTRACT: note_on channel=9 note=36 velocity=92 time=0
EXTRACT: note_on channel=9 note=61 velocity=0 time=0.045871499999999996
EXTRACT: note_on channel=9 note=36 velocity=0 time=0
EXTRACT: note_on channel=3 note=55 velocity=0 time=0.07798155
EXTRACT: note_on channel=3 note=63 velocity=0 time=0
EXTRACT: note_on channel=3 note=59 velocity=0 time=0
EXTRACT: note_on channel=3 note=55 velocity=58 time=0
EXTRACT: note_on channel=3 note=60 velocity=66 time=0
EXTRACT: note_on channel=3 note=63 velocity=57 time=0
EXTRACT: note_on channel=8 note=63 velocity=0 time=0.00458715
EXTRACT: note_on channel=0 note=36 velocity=94 time=0.00458715
EXTRACT: note_on channel=8 note=65 velocity=107 time=0
EXTRACT: note_on channel=1 note=36 velocity=111 time=0.00458715
EXTRACT: note_on channel=9 note=61 velocity=44 time=0
EXTRACT: note_on channel=9 note=42 velocity=42 time=0
EXTRACT: note_on channel=9 note=36 velocity=98 time=0
EXTRACT: note_on channel=2 note=55 velocity=0 time=0.00458715
EXTRACT: note_on channel=2 note=63 velocity=0 time=0
EXTRACT: note_on channel=2 note=59 velocity=0 time=0
EXTRACT: note_on channel=2 note=55 velocity=77 time=0
EXTRACT: note_on channel=2 note=60 velocity=61 time=0
EXTRACT: note_on channel=2 note=63 velocity=85 time=0
EXTRACT: note_on channel=9 note=61 velocity=0 time=0.04128435
EXTRACT: note_on channel=9 note=42 velocity=0 time=0
EXTRACT: note_on channel=9 note=36 velocity=0 time=0
EXTRACT: note_on channel=0 note=36 velocity=0 time=0.22477035
EXTRACT: note_on channel=8 note=65 velocity=0 time=0
EXTRACT: note_on channel=1 note=36 velocity=0 time=0.00458715
EXTRACT: note_on channel=9 note=42 velocity=42 time=0
EXTRACT: note_on channel=9 note=42 velocity=0 time=0.045871499999999996
EXTRACT: note_on channel=0 note=36 velocity=101 time=0.08715584999999999
EXTRACT: note_on channel=1 note=36 velocity=100 time=0.00458715
EXTRACT: note_on channel=9 note=61 velocity=44 time=0
EXTRACT: note_on channel=9 note=36 velocity=98 time=0
EXTRACT: note_on channel=9 note=61 velocity=0 time=0.045871499999999996
EXTRACT: note_on channel=9 note=36 velocity=0 time=0
EXTRACT: note_on channel=0 note=36 velocity=0 time=0.08715584999999999
EXTRACT: note_on channel=8 note=65 velocity=110 time=0
EXTRACT: note_on channel=1 note=36 velocity=0 time=0.00458715
EXTRACT: note_on channel=9 note=38 velocity=127 time=0
EXTRACT: note_on channel=9 note=42 velocity=42 time=0
EXTRACT: note_on channel=9 note=38 velocity=0 time=0.045871499999999996
EXTRACT: note_on channel=9 note=42 velocity=0 time=0
EXTRACT: note_on channel=8 note=65 velocity=0 time=0.2201832
EXTRACT: note_on channel=8 note=63 velocity=117 time=0.00458715
EXTRACT: note_on channel=9 note=69 velocity=81 time=0.00458715
EXTRACT: note_on channel=9 note=42 velocity=42 time=0
EXTRACT: note_on channel=9 note=69 velocity=0 time=0.045871499999999996
EXTRACT: note_on channel=9 note=42 velocity=0 time=0
EXTRACT: note_on channel=9 note=69 velocity=82 time=0.09174299999999999
EXTRACT: note_on channel=9 note=69 velocity=0 time=0.045871499999999996
EXTRACT: note_on channel=8 note=63 velocity=0 time=0.0825687
EXTRACT: note_on channel=8 note=65 velocity=111 time=0.00458715
EXTRACT: note_on channel=9 note=69 velocity=75 time=0.00458715
EXTRACT: note_on channel=9 note=42 velocity=42 time=0
EXTRACT: note_on channel=9 note=69 velocity=0 time=0.045871499999999996
EXTRACT: note_on channel=9 note=42 velocity=0 time=0
EXTRACT: note_on channel=8 note=65 velocity=0 time=0.2201832
EXTRACT: note_on channel=8 note=67 velocity=111 time=0.00458715
EXTRACT: note_on channel=9 note=42 velocity=42 time=0.00458715
EXTRACT: note_on channel=9 note=36 velocity=98 time=0
EXTRACT: note_on channel=9 note=42 velocity=0 time=0.045871499999999996
EXTRACT: note_on channel=9 note=36 velocity=0 time=0
EXTRACT: note_on channel=8 note=67 velocity=0 time=0.2201832
EXTRACT: note_on channel=8 note=70 velocity=99 time=0.00458715
EXTRACT: note_on channel=9 note=38 velocity=127 time=0.00458715
EXTRACT: note_on channel=9 note=42 velocity=42 time=0
EXTRACT: note_on channel=9 note=38 velocity=0 time=0.045871499999999996
EXTRACT: note_on channel=9 note=42 velocity=0 time=0
EXTRACT: note_on channel=8 note=70 velocity=0 time=0.2201832
EXTRACT: note_on channel=8 note=67 velocity=97 time=0.00458715
EXTRACT: note_on channel=9 note=69 velocity=82 time=0.00458715
EXTRACT: note_on channel=9 note=61 velocity=44 time=0
EXTRACT: note_on channel=9 note=42 velocity=42 time=0
EXTRACT: note_on channel=9 note=69 velocity=0 time=0.045871499999999996
EXTRACT: note_on channel=9 note=61 velocity=0 time=0
EXTRACT: note_on channel=9 note=42 velocity=0 time=0
EXTRACT: note_on channel=9 note=61 velocity=44 time=0.09174299999999999
EXTRACT: note_on channel=9 note=61 velocity=0 time=0.045871499999999996
EXTRACT: note_on channel=3 note=55 velocity=0 time=0.07798155
EXTRACT: note_on channel=3 note=60 velocity=0 time=0
EXTRACT: note_on channel=3 note=63 velocity=0 time=0
EXTRACT: note_on channel=3 note=65 velocity=77 time=0
EXTRACT: note_on channel=3 note=56 velocity=55 time=0
EXTRACT: note_on channel=3 note=58 velocity=70 time=0
EXTRACT: note_on channel=3 note=61 velocity=56 time=0
EXTRACT: note_on channel=8 note=67 velocity=0 time=0.00458715
EXTRACT: note_on channel=0 note=34 velocity=89 time=0.00458715
EXTRACT: note_on channel=4 note=55 velocity=0 time=0
EXTRACT: note_on channel=4 note=63 velocity=0 time=0
EXTRACT: note_on channel=4 note=58 velocity=82 time=0
EXTRACT: note_on channel=4 note=65 velocity=79 time=0
EXTRACT: note_on channel=8 note=65 velocity=100 time=0
EXTRACT: note_on channel=1 note=34 velocity=104 time=0.00458715
EXTRACT: note_on channel=9 note=61 velocity=44 time=0
EXTRACT: note_on channel=9 note=42 velocity=42 time=0
EXTRACT: note_on channel=9 note=36 velocity=98 time=0
EXTRACT: note_on channel=2 note=55 velocity=0 time=0.00458715
EXTRACT: note_on channel=2 note=60 velocity=0 time=0
EXTRACT: note_on channel=2 note=63 velocity=0 time=0
EXTRACT: note_on channel=2 note=65 velocity=88 time=0
EXTRACT: note_on channel=2 note=56 velocity=86 time=0
EXTRACT: note_on channel=2 note=58 velocity=66 time=0
EXTRACT: note_on channel=2 note=61 velocity=69 time=0
EXTRACT: note_on channel=9 note=61 velocity=0 time=0.04128435
EXTRACT: note_on channel=9 note=42 velocity=0 time=0
EXTRACT: note_on channel=9 note=36 velocity=0 time=0
EXTRACT: note_on channel=9 note=61 velocity=44 time=0.09174299999999999
EXTRACT: note_on channel=9 note=61 velocity=0 time=0.045871499999999996
EXTRACT: note_on channel=0 note=34 velocity=0 time=0.08715584999999999
EXTRACT: note_on channel=1 note=34 velocity=0 time=0.00458715
EXTRACT: note_on channel=9 note=61 velocity=44 time=0
EXTRACT: note_on channel=9 note=42 velocity=42 time=0
EXTRACT: note_on channel=9 note=61 velocity=0 time=0.045871499999999996
EXTRACT: note_on channel=9 note=42 velocity=0 time=0
EXTRACT: note_on channel=0 note=34 velocity=98 time=0.08715584999999999
EXTRACT: note_on channel=1 note=34 velocity=108 time=0.00458715
EXTRACT: note_on channel=9 note=36 velocity=98 time=0
EXTRACT: note_on channel=9 note=36 velocity=0 time=0.045871499999999996
EXTRACT: note_on channel=0 note=34 velocity=0 time=0.08715584999999999
EXTRACT: note_on channel=1 note=34 velocity=0 time=0.00458715
EXTRACT: note_on channel=9 note=38 velocity=127 time=0
EXTRACT: note_on channel=9 note=42 velocity=42 time=0
EXTRACT: note_on channel=9 note=38 velocity=0 time=0.045871499999999996
EXTRACT: note_on channel=9 note=42 velocity=0 time=0
EXTRACT: note_on channel=8 note=65 velocity=0 time=0.2201832
EXTRACT: note_on channel=0 note=34 velocity=100 time=0.00458715
EXTRACT: note_on channel=8 note=58 velocity=86 time=0
EXTRACT: note_on channel=1 note=34 velocity=104 time=0.00458715
EXTRACT: note_on channel=9 note=69 velocity=82 time=0
EXTRACT: note_on channel=9 note=42 velocity=42 time=0
EXTRACT: note_on channel=9 note=69 velocity=0 time=0.045871499999999996
EXTRACT: note_on channel=9 note=42 velocity=0 time=0
EXTRACT: note_on channel=0 note=34 velocity=0 time=0.08715584999999999
EXTRACT: note_on channel=1 note=34 velocity=0 time=0.00458715
EXTRACT: note_on channel=9 note=36 velocity=92 time=0
EXTRACT: note_on channel=9 note=69 velocity=80 time=0
EXTRACT: note_on channel=9 note=36 velocity=0 time=0.045871499999999996
EXTRACT: note_on channel=9 note=69 velocity=0 time=0
EXTRACT: note_on channel=3 note=65 velocity=0 time=0.07798155
EXTRACT: note_on channel=3 note=56 velocity=0 time=0
EXTRACT: note_on channel=3 note=58 velocity=0 time=0
EXTRACT: note_on channel=3 note=61 velocity=0 time=0
EXTRACT: note_on channel=3 note=61 velocity=82 time=0
EXTRACT: note_on channel=3 note=55 velocity=68 time=0
EXTRACT: note_on channel=3 note=58 velocity=59 time=0
EXTRACT: note_on channel=3 note=63 velocity=51 time=0
EXTRACT: note_on channel=8 note=58 velocity=0 time=0.00458715
EXTRACT: note_on channel=0 note=39 velocity=95 time=0.00458715
EXTRACT: note_on channel=4 note=58 velocity=0 time=0
EXTRACT: note_on channel=4 note=65 velocity=0 time=0
EXTRACT: note_on channel=4 note=55 velocity=101 time=0
EXTRACT: note_on channel=4 note=63 velocity=88 time=0
EXTRACT: note_on channel=8 note=60 velocity=87 time=0
EXTRACT: note_on channel=1 note=39 velocity=102 time=0.00458715
EXTRACT: note_on channel=9 note=36 velocity=98 time=0
EXTRACT: note_on channel=9 note=69 velocity=77 time=0
EXTRACT: note_on channel=9 note=42 velocity=42 time=0
EXTRACT: note_on channel=2 note=65 velocity=0 time=0.00458715
EXTRACT: note_on channel=2 note=56 velocity=0 time=0
EXTRACT: note_on channel=2 note=58 velocity=0 time=0
EXTRACT: note_on channel=2 note=61 velocity=0 time=0
EXTRACT: note_on channel=2 note=61 velocity=62 time=0
EXTRACT: note_on channel=2 note=55 velocity=85 time=0
EXTRACT: note_on channel=2 note=58 velocity=63 time=0
EXTRACT: note_on channel=2 note=63 velocity=75 time=0
EXTRACT: note_on channel=9 note=36 velocity=0 time=0.04128435
EXTRACT: note_on channel=9 note=69 velocity=0 time=0
EXTRACT: note_on channel=9 note=42 velocity=0 time=0
EXTRACT: note_on channel=8 note=60 velocity=0 time=0.2201832
EXTRACT: note_on channel=0 note=39 velocity=0 time=0.00458715
EXTRACT: note_on channel=8 note=63 velocity=103 time=0
EXTRACT: note_on channel=1 note=39 velocity=0 time=0.00458715
EXTRACT: note_on channel=9 note=36 velocity=92 time=0
EXTRACT: note_on channel=9 note=42 velocity=42 time=0
EXTRACT: note_on channel=9 note=36 velocity=0 time=0.045871499999999996
EXTRACT: note_on channel=9 note=42 velocity=0 time=0
EXTRACT: note_on channel=0 note=39 velocity=89 time=0.08715584999999999
EXTRACT: note_on channel=1 note=39 velocity=112 time=0.00458715
EXTRACT: note_on channel=9 note=36 velocity=92 time=0
EXTRACT: note_on channel=9 note=36 velocity=0 time=0.045871499999999996
EXTRACT: note_on channel=8 note=63 velocity=0 time=0.0825687
EXTRACT: note_on channel=0 note=39 velocity=0 time=0.00458715
EXTRACT: note_on channel=8 note=63 velocity=87 time=0
EXTRACT: note_on channel=1 note=39 velocity=0 time=0.00458715
EXTRACT: note_on channel=9 note=38 velocity=127 time=0
EXTRACT: note_on channel=9 note=42 velocity=42 time=0
EXTRACT: note_on channel=9 note=38 velocity=0 time=0.045871499999999996
EXTRACT: note_on channel=9 note=42 velocity=0 time=0
EXTRACT: note_on channel=8 note=63 velocity=0 time=0.2201832
EXTRACT: note_on channel=8 note=63 velocity=99 time=0.00458715
EXTRACT: note_on channel=9 note=61 velocity=44 time=0.00458715
EXTRACT: note_on channel=9 note=36 velocity=92 time=0
EXTRACT: note_on channel=9 note=42 velocity=42 time=0
EXTRACT: note_on channel=9 note=61 velocity=0 time=0.045871499999999996
EXTRACT: note_on channel=9 note=36 velocity=0 time=0
EXTRACT: note_on channel=9 note=42 velocity=0 time=0
EXTRACT: note_on channel=9 note=61 velocity=44 time=0.09174299999999999
EXTRACT: note_on channel=9 note=36 velocity=92 time=0
EXTRACT: note_on channel=9 note=61 velocity=0 time=0.045871499999999996
EXTRACT: note_on channel=9 note=36 velocity=0 time=0
EXTRACT: note_on channel=3 note=61 velocity=0 time=0.07798155
EXTRACT: note_on channel=3 note=55 velocity=0 time=0
EXTRACT: note_on channel=3 note=58 velocity=0 time=0
EXTRACT: note_on channel=3 note=63 velocity=0 time=0
EXTRACT: note_on channel=3 note=44 velocity=36 time=0
EXTRACT: note_on channel=3 note=55 velocity=50 time=0
EXTRACT: note_on channel=3 note=63 velocity=66 time=0
EXTRACT: note_on channel=3 note=60 velocity=50 time=0
EXTRACT: note_on channel=8 note=63 velocity=0 time=0.00458715
EXTRACT: note_on channel=0 note=32 velocity=89 time=0.00458715
EXTRACT: note_on channel=4 note=55 velocity=0 time=0
EXTRACT: note_on channel=4 note=63 velocity=0 time=0
EXTRACT: note_on channel=4 note=55 velocity=80 time=0
EXTRACT: note_on channel=4 note=63 velocity=100 time=0
EXTRACT: note_on channel=8 note=65 velocity=106 time=0
EXTRACT: note_on channel=1 note=32 velocity=107 time=0.00458715
EXTRACT: note_on channel=9 note=61 velocity=44 time=0
EXTRACT: note_on channel=9 note=42 velocity=42 time=0
EXTRACT: note_on channel=9 note=36 velocity=98 time=0
EXTRACT: note_on channel=2 note=61 velocity=0 time=0.00458715
EXTRACT: note_on channel=2 note=55 velocity=0 time=0
EXTRACT: note_on channel=2 note=58 velocity=0 time=0
EXTRACT: note_on channel=2 note=63 velocity=0 time=0
EXTRACT: note_on channel=2 note=44 velocity=45 time=0
EXTRACT: note_on channel=2 note=55 velocity=88 time=0
EXTRACT: note_on channel=2 note=63 velocity=84 time=0
EXTRACT: note_on channel=2 note=60 velocity=88 time=0
EXTRACT: note_on channel=9 note=61 velocity=0 time=0.04128435
EXTRACT: note_on channel=9 note=42 velocity=0 time=0
EXTRACT: note_on channel=9 note=36 velocity=0 time=0
EXTRACT: note_on channel=0 note=32 velocity=0 time=0.22477035
EXTRACT: note_on channel=8 note=65 velocity=0 time=0
EXTRACT: note_on channel=1 note=32 velocity=0 time=0.00458715
EXTRACT: note_on channel=9 note=42 velocity=42 time=0
EXTRACT: note_on channel=9 note=42 velocity=0 time=0.045871499999999996
EXTRACT: note_on channel=0 note=32 velocity=90 time=0.08715584999999999
EXTRACT: note_on channel=1 note=32 velocity=103 time=0.00458715
EXTRACT: note_on channel=9 note=61 velocity=44 time=0
EXTRACT: note_on channel=9 note=36 velocity=98 time=0
EXTRACT: note_on channel=9 note=61 velocity=0 time=0.045871499999999996
EXTRACT: note_on channel=9 note=36 velocity=0 time=0
EXTRACT: note_on channel=0 note=32 velocity=0 time=0.08715584999999999
EXTRACT: note_on channel=8 note=63 velocity=94 time=0
EXTRACT: note_on channel=1 note=32 velocity=0 time=0.00458715
EXTRACT: note_on channel=9 note=38 velocity=127 time=0
EXTRACT: note_on channel=9 note=42 velocity=42 time=0
EXTRACT: note_on channel=9 note=38 velocity=0 time=0.045871499999999996
EXTRACT: note_on channel=9 note=42 velocity=0 time=0
EXTRACT: note_on channel=8 note=63 velocity=0 time=0.2201832
EXTRACT: note_on channel=8 note=65 velocity=99 time=0.00458715
EXTRACT: note_on channel=9 note=69 velocity=82 time=0.00458715
EXTRACT: note_on channel=9 note=42 velocity=42 time=0
EXTRACT: note_on channel=9 note=69 velocity=0 time=0.045871499999999996
EXTRACT: note_on channel=9 note=42 velocity=0 time=0
EXTRACT: note_on channel=9 note=69 velocity=79 time=0.09174299999999999
EXTRACT: note_on channel=9 note=69 velocity=0 time=0.045871499999999996
EXTRACT: note_on channel=9 note=69 velocity=82 time=0.09174299999999999
EXTRACT: note_on channel=9 note=42 velocity=42 time=0
EXTRACT: note_on channel=9 note=69 velocity=0 time=0.045871499999999996
EXTRACT: note_on channel=9 note=42 velocity=0 time=0
EXTRACT: note_on channel=9 note=42 velocity=42 time=0.2293575
EXTRACT: note_on channel=9 note=36 velocity=98 time=0
EXTRACT: note_on channel=9 note=42 velocity=0 time=0.045871499999999996
EXTRACT: note_on channel=9 note=36 velocity=0 time=0
EXTRACT: note_on channel=8 note=65 velocity=0 time=0.2201832
EXTRACT: note_on channel=8 note=63 velocity=87 time=0.00458715
EXTRACT: note_on channel=9 note=38 velocity=127 time=0.00458715
EXTRACT: note_on channel=9 note=42 velocity=42 time=0
EXTRACT: note_on channel=9 note=38 velocity=0 time=0.045871499999999996
EXTRACT: note_on channel=9 note=42 velocity=0 time=0
EXTRACT: note_on channel=8 note=63 velocity=0 time=0.2201832
EXTRACT: note_on channel=8 note=65 velocity=117 time=0.00458715
EXTRACT: note_on channel=9 note=69 velocity=81 time=0.00458715
EXTRACT: note_on channel=9 note=61 velocity=44 time=0
EXTRACT: note_on channel=9 note=42 velocity=42 time=0
EXTRACT: note_on channel=9 note=69 velocity=0 time=0.045871499999999996
EXTRACT: note_on channel=9 note=61 velocity=0 time=0
EXTRACT: note_on channel=9 note=42 velocity=0 time=0
EXTRACT: note_on channel=9 note=61 velocity=44 time=0.09174299999999999
EXTRACT: note_on channel=9 note=61 velocity=0 time=0.045871499999999996
EXTRACT: note_on channel=3 note=44 velocity=0 time=0.07798155
EXTRACT: note_on channel=3 note=55 velocity=0 time=0
EXTRACT: note_on channel=3 note=63 velocity=0 time=0
EXTRACT: note_on channel=3 note=60 velocity=0 time=0
EXTRACT: note_on channel=3 note=55 velocity=59 time=0
EXTRACT: note_on channel=3 note=63 velocity=63 time=0
EXTRACT: note_on channel=3 note=59 velocity=58 time=0
EXTRACT: note_on channel=8 note=65 velocity=0 time=0.00458715
EXTRACT: note_on channel=0 note=31 velocity=85 time=0.00458715
EXTRACT: note_on channel=8 note=68 velocity=109 time=0
EXTRACT: note_on channel=1 note=31 velocity=96 time=0.00458715
EXTRACT: note_on channel=9 note=61 velocity=44 time=0
EXTRACT: note_on channel=9 note=42 velocity=42 time=0
EXTRACT: note_on channel=9 note=36 velocity=98 time=0
EXTRACT: note_on channel=2 note=44 velocity=0 time=0.00458715
EXTRACT: note_on channel=2 note=55 velocity=0 time=0
EXTRACT: note_on channel=2 note=63 velocity=0 time=0
EXTRACT: note_on channel=2 note=60 velocity=0 time=0
EXTRACT: note_on channel=2 note=55 velocity=76 time=0
EXTRACT: note_on channel=2 note=63 velocity=85 time=0
EXTRACT: note_on channel=2 note=59 velocity=67 time=0
EXTRACT: note_on channel=9 note=61 velocity=0 time=0.04128435
EXTRACT: note_on channel=9 note=42 velocity=0 time=0
EXTRACT: note_on channel=9 note=36 velocity=0 time=0
EXTRACT: note_on channel=9 note=61 velocity=44 time=0.09174299999999999
EXTRACT: note_on channel=9 note=61 velocity=0 time=0.045871499999999996
EXTRACT: note_on channel=0 note=31 velocity=0 time=0.08715584999999999
EXTRACT: note_on channel=1 note=31 velocity=0 time=0.00458715
EXTRACT: note_on channel=9 note=61 velocity=44 time=0
EXTRACT: note_on channel=9 note=42 velocity=42 time=0
EXTRACT: note_on channel=9 note=61 velocity=0 time=0.045871499999999996
EXTRACT: note_on channel=9 note=42 velocity=0 time=0
EXTRACT: note_on channel=0 note=31 velocity=87 time=0.08715584999999999
EXTRACT: note_on channel=1 note=31 velocity=99 time=0.00458715
EXTRACT: note_on channel=9 note=36 velocity=98 time=0
EXTRACT: note_on channel=9 note=36 velocity=0 time=0.045871499999999996
EXTRACT: note_on channel=8 note=68 velocity=0 time=0.0825687
EXTRACT: note_on channel=0 note=31 velocity=0 time=0.00458715
EXTRACT: note_on channel=8 note=67 velocity=96 time=0
EXTRACT: note_on channel=1 note=31 velocity=0 time=0.00458715
EXTRACT: note_on channel=9 note=38 velocity=127 time=0
EXTRACT: note_on channel=9 note=42 velocity=42 time=0
EXTRACT: note_on channel=9 note=38 velocity=0 time=0.045871499999999996
EXTRACT: note_on channel=9 note=42 velocity=0 time=0
EXTRACT: note_on channel=9 note=69 velocity=81 time=0.2293575
EXTRACT: note_on channel=9 note=42 velocity=42 time=0
EXTRACT: note_on channel=9 note=69 velocity=0 time=0.045871499999999996
EXTRACT: note_on channel=9 note=42 velocity=0 time=0
EXTRACT: note_on channel=9 note=69 velocity=79 time=0.09174299999999999
EXTRACT: note_on channel=9 note=69 velocity=0 time=0.045871499999999996
EXTRACT: note_on channel=8 note=67 velocity=0 time=0.0825687
EXTRACT: note_on channel=8 note=63 velocity=99 time=0.00458715
EXTRACT: note_on channel=9 note=69 velocity=76 time=0.00458715
EXTRACT: note_on channel=9 note=42 velocity=42 time=0
EXTRACT: note_on channel=9 note=69 velocity=0 time=0.045871499999999996
EXTRACT: note_on channel=9 note=42 velocity=0 time=0
EXTRACT: note_on channel=8 note=63 velocity=0 time=0.2201832
EXTRACT: note_on channel=0 note=34 velocity=95 time=0.00458715
EXTRACT: note_on channel=8 note=65 velocity=102 time=0
EXTRACT: note_on channel=1 note=34 velocity=101 time=0.00458715
EXTRACT: note_on channel=9 note=42 velocity=42 time=0
EXTRACT: note_on channel=9 note=36 velocity=98 time=0
EXTRACT: note_on channel=9 note=42 velocity=0 time=0.045871499999999996
EXTRACT: note_on channel=9 note=36 velocity=0 time=0
EXTRACT: note_on channel=0 note=34 velocity=0 time=0.08715584999999999
EXTRACT: note_on channel=1 note=34 velocity=0 time=0.00458715
EXTRACT: note_on channel=8 note=65 velocity=0 time=0.1284402
EXTRACT: note_on channel=8 note=67 velocity=91 time=0.00458715
EXTRACT: note_on channel=9 note=38 velocity=127 time=0.00458715
EXTRACT: note_on channel=9 note=42 velocity=42 time=0
EXTRACT: note_on channel=9 note=38 velocity=0 time=0.045871499999999996
EXTRACT: note_on channel=9 note=42 velocity=0 time=0
EXTRACT: note_on channel=0 note=34 velocity=92 time=0.08715584999999999
EXTRACT: note_on channel=1 note=34 velocity=110 time=0.00458715
EXTRACT: note_on channel=8 note=67 velocity=0 time=0.1284402
EXTRACT: note_on channel=0 note=34 velocity=0 time=0.00458715
EXTRACT: note_on channel=8 note=70 velocity=102 time=0
EXTRACT: note_on channel=1 note=34 velocity=0 time=0.00458715
EXTRACT: note_on channel=9 note=61 velocity=44 time=0
EXTRACT: note_on channel=9 note=36 velocity=92 time=0
EXTRACT: note_on channel=9 note=42 velocity=42 time=0
EXTRACT: note_on channel=9 note=61 velocity=0 time=0.045871499999999996
EXTRACT: note_on channel=9 note=36 velocity=0 time=0
EXTRACT: note_on channel=9 note=42 velocity=0 time=0
EXTRACT: note_on channel=9 note=61 velocity=44 time=0.09174299999999999
EXTRACT: note_on channel=9 note=36 velocity=92 time=0
EXTRACT: note_on channel=9 note=61 velocity=0 time=0.045871499999999996
EXTRACT: note_on channel=9 note=36 velocity=0 time=0
EXTRACT: note_on channel=3 note=55 velocity=0 time=0.07798155
EXTRACT: note_on channel=3 note=63 velocity=0 time=0
EXTRACT: note_on channel=3 note=59 velocity=0 time=0
EXTRACT: note_on channel=3 note=55 velocity=75 time=0
EXTRACT: note_on channel=3 note=60 velocity=65 time=0
EXTRACT: note_on channel=3 note=63 velocity=50 time=0
EXTRACT: note_on channel=0 note=36 velocity=89 time=0.0091743
EXTRACT: note_on channel=1 note=36 velocity=99 time=0.00458715
EXTRACT: note_on channel=9 note=61 velocity=44 time=0
EXTRACT: note_on channel=9 note=42 velocity=42 time=0
EXTRACT: note_on channel=9 note=36 velocity=98 time=0
EXTRACT: note_on channel=2 note=55 velocity=0 time=0.00458715
EXTRACT: note_on channel=2 note=63 velocity=0 time=0
EXTRACT: note_on channel=2 note=59 velocity=0 time=0
EXTRACT: note_on channel=2 note=55 velocity=72 time=0
EXTRACT: note_on channel=2 note=60 velocity=88 time=0
EXTRACT: note_on channel=2 note=63 velocity=77 time=0
EXTRACT: note_on channel=9 note=61 velocity=0 time=0.04128435
EXTRACT: note_on channel=9 note=42 velocity=0 time=0
EXTRACT: note_on channel=9 note=36 velocity=0 time=0
EXTRACT: note_on channel=8 note=70 velocity=0 time=0.2201832
EXTRACT: note_on channel=0 note=36 velocity=0 time=0.00458715
EXTRACT: note_on channel=8 note=65 velocity=91 time=0
EXTRACT: note_on channel=1 note=36 velocity=0 time=0.00458715
EXTRACT: note_on channel=9 note=42 velocity=42 time=0
EXTRACT: note_on channel=9 note=42 velocity=0 time=0.045871499999999996
EXTRACT: note_on channel=0 note=36 velocity=100 time=0.08715584999999999
EXTRACT: note_on channel=1 note=36 velocity=99 time=0.00458715
EXTRACT: note_on channel=9 note=61 velocity=44 time=0
EXTRACT: note_on channel=9 note=36 velocity=98 time=0
EXTRACT: note_on channel=9 note=61 velocity=0 time=0.045871499999999996
EXTRACT: note_on channel=9 note=36 velocity=0 time=0
EXTRACT: note_on channel=8 note=65 velocity=0 time=0.0825687
EXTRACT: note_on channel=0 note=36 velocity=0 time=0.00458715
EXTRACT: note_on channel=8 note=67 velocity=97 time=0
EXTRACT: note_on channel=1 note=36 velocity=0 time=0.00458715
EXTRACT: note_on channel=9 note=38 velocity=127 time=0
EXTRACT: note_on channel=9 note=42 velocity=42 time=0
EXTRACT: note_on channel=9 note=38 velocity=0 time=0.045871499999999996
EXTRACT: note_on channel=9 note=42 velocity=0 time=0
EXTRACT: note_on channel=9 note=69 velocity=78 time=0.2293575
EXTRACT: note_on channel=9 note=42 velocity=42 time=0
EXTRACT: note_on channel=9 note=69 velocity=0 time=0.045871499999999996
EXTRACT: note_on channel=9 note=42 velocity=0 time=0
EXTRACT: note_on channel=9 note=69 velocity=82 time=0.09174299999999999
EXTRACT: note_on channel=9 note=69 velocity=0 time=0.045871499999999996
EXTRACT: note_on channel=9 note=69 velocity=76 time=0.09174299999999999
EXTRACT: note_on channel=9 note=42 velocity=42 time=0
EXTRACT: note_on channel=9 note=69 velocity=0 time=0.045871499999999996
EXTRACT: note_on channel=9 note=42 velocity=0 time=0
EXTRACT: note_on channel=9 note=42 velocity=42 time=0.2293575
EXTRACT: note_on channel=9 note=36 velocity=98 time=0
EXTRACT: note_on channel=9 note=42 velocity=0 time=0.045871499999999996
EXTRACT: note_on channel=9 note=36 velocity=0 time=0
EXTRACT: note_on channel=9 note=38 velocity=127 time=0.2293575
EXTRACT: note_on channel=9 note=42 velocity=42 time=0
EXTRACT: note_on channel=9 note=38 velocity=0 time=0.045871499999999996
EXTRACT: note_on channel=9 note=42 velocity=0 time=0
EXTRACT: note_on channel=9 note=69 velocity=76 time=0.2293575
EXTRACT: note_on channel=9 note=61 velocity=44 time=0
EXTRACT: note_on channel=9 note=42 velocity=42 time=0
EXTRACT: note_on channel=9 note=69 velocity=0 time=0.045871499999999996
EXTRACT: note_on channel=9 note=61 velocity=0 time=0
EXTRACT: note_on channel=9 note=42 velocity=0 time=0
EXTRACT: note_on channel=9 note=61 velocity=44 time=0.09174299999999999
EXTRACT: note_on channel=9 note=61 velocity=0 time=0.045871499999999996
EXTRACT: note_on channel=3 note=55 velocity=0 time=0.07798155
EXTRACT: note_on channel=3 note=60 velocity=0 time=0
EXTRACT: note_on channel=3 note=63 velocity=0 time=0
EXTRACT: note_on channel=3 note=65 velocity=79 time=0
EXTRACT: note_on channel=3 note=56 velocity=74 time=0
EXTRACT: note_on channel=3 note=58 velocity=70 time=0
EXTRACT: note_on channel=3 note=61 velocity=56 time=0
EXTRACT: note_on channel=8 note=67 velocity=0 time=0.00458715
EXTRACT: note_on channel=0 note=34 velocity=99 time=0.00458715
EXTRACT: note_on channel=4 note=55 velocity=0 time=0
EXTRACT: note_on channel=4 note=63 velocity=0 time=0
EXTRACT: note_on channel=4 note=58 velocity=84 time=0
EXTRACT: note_on channel=4 note=65 velocity=60 time=0
EXTRACT: note_on channel=8 note=72 velocity=97 time=0
EXTRACT: note_on channel=1 note=34 velocity=107 time=0.00458715
EXTRACT: note_on channel=9 note=61 velocity=44 time=0
EXTRACT: note_on channel=9 note=42 velocity=42 time=0
EXTRACT: note_on channel=9 note=36 velocity=98 time=0
EXTRACT: note_on channel=2 note=55 velocity=0 time=0.00458715
EXTRACT: note_on channel=2 note=60 velocity=0 time=0
EXTRACT: note_on channel=2 note=63 velocity=0 time=0
EXTRACT: note_on channel=2 note=65 velocity=89 time=0
EXTRACT: note_on channel=2 note=56 velocity=88 time=0
EXTRACT: note_on channel=2 note=58 velocity=83 time=0
EXTRACT: note_on channel=2 note=61 velocity=71 time=0
EXTRACT: note_on channel=9 note=61 velocity=0 time=0.04128435
EXTRACT: note_on channel=9 note=42 velocity=0 time=0
EXTRACT: note_on channel=9 note=36 velocity=0 time=0
EXTRACT: note_on channel=9 note=61 velocity=44 time=0.09174299999999999
EXTRACT: note_on channel=9 note=61 velocity=0 time=0.045871499999999996
EXTRACT: note_on channel=0 note=34 velocity=0 time=0.08715584999999999
EXTRACT: note_on channel=1 note=34 velocity=0 time=0.00458715
EXTRACT: note_on channel=9 note=61 velocity=44 time=0
EXTRACT: note_on channel=9 note=42 velocity=42 time=0
EXTRACT: note_on channel=9 note=61 velocity=0 time=0.045871499999999996
EXTRACT: note_on channel=9 note=42 velocity=0 time=0
EXTRACT: note_on channel=8 note=72 velocity=0 time=0.0825687
EXTRACT: note_on channel=0 note=34 velocity=102 time=0.00458715
EXTRACT: note_on channel=8 note=70 velocity=91 time=0
EXTRACT: note_on channel=1 note=34 velocity=105 time=0.00458715
EXTRACT: note_on channel=9 note=36 velocity=98 time=0
EXTRACT: note_on channel=9 note=36 velocity=0 time=0.045871499999999996
EXTRACT: note_on channel=0 note=34 velocity=0 time=0.08715584999999999
EXTRACT: note_on channel=1 note=34 velocity=0 time=0.00458715
EXTRACT: note_on channel=9 note=38 velocity=127 time=0
EXTRACT: note_on channel=9 note=42 velocity=42 time=0
EXTRACT: note_on channel=9 note=38 velocity=0 time=0.045871499999999996
EXTRACT: note_on channel=9 note=42 velocity=0 time=0
EXTRACT: note_on channel=8 note=70 velocity=0 time=0.2201832
EXTRACT: note_on channel=0 note=34 velocity=103 time=0.00458715
EXTRACT: note_on channel=8 note=67 velocity=89 time=0
EXTRACT: note_on channel=1 note=34 velocity=104 time=0.00458715
EXTRACT: note_on channel=9 note=69 velocity=82 time=0
EXTRACT: note_on channel=9 note=42 velocity=42 time=0
EXTRACT: note_on channel=9 note=69 velocity=0 time=0.045871499999999996
EXTRACT: note_on channel=9 note=42 velocity=0 time=0
EXTRACT: note_on channel=0 note=34 velocity=0 time=0.08715584999999999
EXTRACT: note_on channel=1 note=34 velocity=0 time=0.00458715
EXTRACT: note_on channel=9 note=69 velocity=78 time=0
EXTRACT: note_on channel=9 note=69 velocity=0 time=0.045871499999999996
EXTRACT: note_on channel=3 note=65 velocity=0 time=0.07798155
EXTRACT: note_on channel=3 note=56 velocity=0 time=0
EXTRACT: note_on channel=3 note=58 velocity=0 time=0
EXTRACT: note_on channel=3 note=61 velocity=0 time=0
EXTRACT: note_on channel=3 note=61 velocity=74 time=0
EXTRACT: note_on channel=3 note=55 velocity=73 time=0
EXTRACT: note_on channel=3 note=58 velocity=67 time=0
EXTRACT: note_on channel=3 note=63 velocity=68 time=0
EXTRACT: note_on channel=8 note=67 velocity=0 time=0.00458715
EXTRACT: note_on channel=0 note=39 velocity=101 time=0.00458715
EXTRACT: note_on channel=4 note=58 velocity=0 time=0
EXTRACT: note_on channel=4 note=65 velocity=0 time=0
EXTRACT: note_on channel=4 note=55 velocity=111 time=0
EXTRACT: note_on channel=4 note=63 velocity=97 time=0
EXTRACT: note_on channel=6 note=32 velocity=100 time=0
EXTRACT: note_on channel=8 note=65 velocity=102 time=0
EXTRACT: note_on channel=1 note=39 velocity=102 time=0.00458715
EXTRACT: note_on channel=9 note=29 velocity=45 time=0
EXTRACT: note_on channel=9 note=36 velocity=92 time=0
EXTRACT: note_on channel=2 note=65 velocity=0 time=0.00458715
EXTRACT: note_on channel=2 note=56 velocity=0 time=0
EXTRACT: note_on channel=2 note=58 velocity=0 time=0
EXTRACT: note_on channel=2 note=61 velocity=0 time=0
EXTRACT: note_on channel=2 note=61 velocity=65 time=0
EXTRACT: note_on channel=2 note=55 velocity=70 time=0
EXTRACT: note_on channel=2 note=58 velocity=71 time=0
EXTRACT: note_on channel=2 note=63 velocity=81 time=0
EXTRACT: note_on channel=9 note=29 velocity=0 time=0.04128435
EXTRACT: note_on channel=9 note=36 velocity=0 time=0
EXTRACT: note_on channel=6 note=32 velocity=0 time=0.0860090625
EXTRACT: note_on channel=6 note=32 velocity=90 time=0.0011467875
EXTRACT: note_on channel=9 note=29 velocity=31 time=0.00458715
EXTRACT: note_on channel=9 note=41 velocity=70 time=0
EXTRACT: note_on channel=9 note=29 velocity=0 time=0.045871499999999996
EXTRACT: note_on channel=9 note=41 velocity=0 time=0
EXTRACT: note_on channel=8 note=65 velocity=0 time=0.0825687
EXTRACT: note_on channel=6 note=32 velocity=0 time=0.0034403625
EXTRACT: note_on channel=0 note=39 velocity=0 time=0.0011467875
EXTRACT: note_on channel=6 note=32 velocity=104 time=0
EXTRACT: note_on channel=8 note=63 velocity=113 time=0
EXTRACT: note_on channel=1 note=39 velocity=0 time=0.00458715
EXTRACT: note_on channel=9 note=29 velocity=45 time=0
EXTRACT: note_on channel=9 note=36 velocity=92 time=0
EXTRACT: note_on channel=9 note=29 velocity=0 time=0.045871499999999996
EXTRACT: note_on channel=9 note=36 velocity=0 time=0
EXTRACT: note_on channel=6 note=32 velocity=0 time=0.0860090625
EXTRACT: note_on channel=0 note=39 velocity=87 time=0.0011467875
EXTRACT: note_on channel=6 note=32 velocity=72 time=0
EXTRACT: note_on channel=1 note=39 velocity=102 time=0.00458715
EXTRACT: note_on channel=9 note=29 velocity=31 time=0
EXTRACT: note_on channel=9 note=41 velocity=70 time=0
EXTRACT: note_on channel=9 note=29 velocity=0 time=0.045871499999999996
EXTRACT: note_on channel=9 note=41 velocity=0 time=0
EXTRACT: note_on channel=8 note=63 velocity=0 time=0.0825687
EXTRACT: note_on channel=6 note=32 velocity=0 time=0.0034403625
EXTRACT: note_on channel=0 note=39 velocity=0 time=0.0011467875
EXTRACT: note_on channel=6 note=32 velocity=103 time=0
EXTRACT: note_on channel=8 note=63 velocity=108 time=0
EXTRACT: note_on channel=1 note=39 velocity=0 time=0.00458715
EXTRACT: note_on channel=9 note=29 velocity=45 time=0
EXTRACT: note_on channel=9 note=38 velocity=127 time=0
EXTRACT: note_on channel=9 note=36 velocity=92 time=0
EXTRACT: note_on channel=9 note=29 velocity=0 time=0.045871499999999996
EXTRACT: note_on channel=9 note=38 velocity=0 time=0
EXTRACT: note_on channel=9 note=36 velocity=0 time=0
EXTRACT: note_on channel=6 note=32 velocity=0 time=0.0860090625
EXTRACT: note_on channel=6 note=32 velocity=70 time=0.0011467875
EXTRACT: note_on channel=9 note=29 velocity=31 time=0.00458715
EXTRACT: note_on channel=9 note=41 velocity=70 time=0
EXTRACT: note_on channel=9 note=29 velocity=0 time=0.045871499999999996
EXTRACT: note_on channel=9 note=41 velocity=0 time=0
EXTRACT: note_on channel=6 note=32 velocity=0 time=0.0860090625
EXTRACT: note_on channel=6 note=32 velocity=93 time=0.0011467875
EXTRACT: note_on channel=9 note=61 velocity=44 time=0.00458715
EXTRACT: note_on channel=9 note=29 velocity=45 time=0
EXTRACT: note_on channel=9 note=36 velocity=92 time=0
EXTRACT: note_on channel=9 note=61 velocity=0 time=0.045871499999999996
EXTRACT: note_on channel=9 note=29 velocity=0 time=0
EXTRACT: note_on channel=9 note=36 velocity=0 time=0
EXTRACT: note_on channel=6 note=32 velocity=0 time=0.0860090625
EXTRACT: note_on channel=6 note=32 velocity=96 time=0.0011467875
EXTRACT: note_on channel=9 note=61 velocity=44 time=0.00458715
EXTRACT: note_on channel=9 note=29 velocity=31 time=0
EXTRACT: note_on channel=9 note=41 velocity=70 time=0
EXTRACT: note_on channel=9 note=61 velocity=0 time=0.045871499999999996
EXTRACT: note_on channel=9 note=29 velocity=0 time=0
EXTRACT: note_on channel=9 note=41 velocity=0 time=0
EXTRACT: note_on channel=3 note=61 velocity=0 time=0.07798155
EXTRACT: note_on channel=3 note=55 velocity=0 time=0
EXTRACT: note_on channel=3 note=58 velocity=0 time=0
EXTRACT: note_on channel=3 note=63 velocity=0 time=0
EXTRACT: note_on channel=3 note=44 velocity=33 time=0
EXTRACT: note_on channel=3 note=55 velocity=61 time=0
EXTRACT: note_on channel=3 note=63 velocity=79 time=0
EXTRACT: note_on channel=3 note=60 velocity=73 time=0
EXTRACT: note_on channel=8 note=63 velocity=0 time=0.00458715
EXTRACT: note_on channel=0 note=32 velocity=82 time=0.00458715
EXTRACT: note_on channel=4 note=55 velocity=0 time=0
EXTRACT: note_on channel=4 note=63 velocity=0 time=0
EXTRACT: note_on channel=4 note=55 velocity=90 time=0
EXTRACT: note_on channel=4 note=63 velocity=85 time=0
EXTRACT: note_on channel=6 note=32 velocity=0 time=0
EXTRACT: note_on channel=8 note=67 velocity=103 time=0
EXTRACT: note_on channel=1 note=32 velocity=104 time=0.00458715
EXTRACT: note_on channel=9 note=61 velocity=44 time=0
EXTRACT: note_on channel=9 note=57 velocity=100 time=0
EXTRACT: note_on channel=9 note=36 velocity=98 time=0
EXTRACT: note_on channel=2 note=61 velocity=0 time=0.00458715
EXTRACT: note_on channel=2 note=55 velocity=0 time=0
EXTRACT: note_on channel=2 note=58 velocity=0 time=0
EXTRACT: note_on channel=2 note=63 velocity=0 time=0
EXTRACT: note_on channel=2 note=44 velocity=58 time=0
EXTRACT: note_on channel=2 note=55 velocity=85 time=0
EXTRACT: note_on channel=2 note=63 velocity=62 time=0
EXTRACT: note_on channel=2 note=60 velocity=87 time=0
EXTRACT: note_on channel=9 note=61 velocity=0 time=0.04128435
EXTRACT: note_on channel=9 note=57 velocity=0 time=0
EXTRACT: note_on channel=9 note=36 velocity=0 time=0
EXTRACT: note_on channel=0 note=32 velocity=0 time=0.22477035
EXTRACT: note_on channel=1 note=32 velocity=0 time=0.00458715
EXTRACT: note_on channel=9 note=42 velocity=42 time=0
EXTRACT: note_on channel=9 note=42 velocity=0 time=0.045871499999999996
EXTRACT: note_on channel=0 note=32 velocity=91 time=0.08715584999999999
EXTRACT: note_on channel=1 note=32 velocity=101 time=0.00458715
EXTRACT: note_on channel=9 note=61 velocity=44 time=0
EXTRACT: note_on channel=9 note=36 velocity=98 time=0
EXTRACT: note_on channel=9 note=61 velocity=0 time=0.045871499999999996
EXTRACT: note_on channel=9 note=36 velocity=0 time=0
EXTRACT: note_on channel=0 note=32 velocity=0 time=0.08715584999999999
EXTRACT: note_on channel=1 note=32 velocity=0 time=0.00458715
EXTRACT: note_on channel=9 note=38 velocity=127 time=0
EXTRACT: note_on channel=9 note=42 velocity=42 time=0
EXTRACT: note_on channel=9 note=38 velocity=0 time=0.045871499999999996
EXTRACT: note_on channel=9 note=42 velocity=0 time=0
EXTRACT: note_on channel=8 note=67 velocity=0 time=0.2201832
EXTRACT: note_on channel=8 note=67 velocity=99 time=0.00458715
EXTRACT: note_on channel=9 note=69 velocity=75 time=0.00458715
EXTRACT: note_on channel=9 note=42 velocity=42 time=0
EXTRACT: note_on channel=9 note=69 velocity=0 time=0.045871499999999996
EXTRACT: note_on channel=9 note=42 velocity=0 time=0
EXTRACT: note_on channel=9 note=69 velocity=77 time=0.09174299999999999
EXTRACT: note_on channel=9 note=69 velocity=0 time=0.045871499999999996
EXTRACT: note_on channel=8 note=67 velocity=0 time=0.0825687
EXTRACT: note_on channel=8 note=65 velocity=95 time=0.00458715
EXTRACT: note_on channel=9 note=69 velocity=74 time=0.00458715
EXTRACT: note_on channel=9 note=42 velocity=42 time=0
EXTRACT: note_on channel=9 note=69 velocity=0 time=0.045871499999999996
EXTRACT: note_on channel=9 note=42 velocity=0 time=0
EXTRACT: note_on channel=8 note=65 velocity=0 time=0.2201832
EXTRACT: note_on channel=8 note=63 velocity=92 time=0.00458715
EXTRACT: note_on channel=9 note=42 velocity=42 time=0.00458715
EXTRACT: note_on channel=9 note=36 velocity=98 time=0
EXTRACT: note_on channel=9 note=42 velocity=0 time=0.045871499999999996
EXTRACT: note_on channel=9 note=36 velocity=0 time=0
EXTRACT: note_on channel=8 note=63 velocity=0 time=0.2201832
EXTRACT: note_on channel=8 note=63 velocity=110 time=0.00458715
EXTRACT: note_on channel=9 note=38 velocity=127 time=0.00458715
EXTRACT: note_on channel=9 note=42 velocity=42 time=0
EXTRACT: note_on channel=9 note=38 velocity=0 time=0.045871499999999996
EXTRACT: note_on channel=9 note=42 velocity=0 time=0
EXTRACT: note_on channel=9 note=69 velocity=76 time=0.2293575
EXTRACT: note_on channel=9 note=61 velocity=44 time=0
EXTRACT: note_on channel=9 note=42 velocity=42 time=0
EXTRACT: note_on channel=9 note=69 velocity=0 time=0.045871499999999996
EXTRACT: note_on channel=9 note=61 velocity=0 time=0
EXTRACT: note_on channel=9 note=42 velocity=0 time=0
EXTRACT: note_on channel=9 note=61 velocity=44 time=0.09174299999999999
EXTRACT: note_on channel=9 note=61 velocity=0 time=0.045871499999999996
EXTRACT: note_on channel=3 note=44 velocity=0 time=0.07798155
EXTRACT: note_on channel=3 note=55 velocity=0 time=0
EXTRACT: note_on channel=3 note=63 velocity=0 time=0
EXTRACT: note_on channel=3 note=60 velocity=0 time=0
EXTRACT: note_on channel=3 note=55 velocity=70 time=0
EXTRACT: note_on channel=3 note=63 velocity=60 time=0
EXTRACT: note_on channel=3 note=59 velocity=51 time=0
EXTRACT: note_on channel=8 note=63 velocity=0 time=0.00458715
EXTRACT: note_on channel=0 note=31 velocity=96 time=0.00458715
EXTRACT: note_on channel=8 note=67 velocity=102 time=0
EXTRACT: note_on channel=1 note=31 velocity=106 time=0.00458715
EXTRACT: note_on channel=9 note=61 velocity=44 time=0
EXTRACT: note_on channel=9 note=42 velocity=42 time=0
EXTRACT: note_on channel=9 note=36 velocity=98 time=0
EXTRACT: note_on channel=2 note=44 velocity=0 time=0.00458715
EXTRACT: note_on channel=2 note=55 velocity=0 time=0
EXTRACT: note_on channel=2 note=63 velocity=0 time=0
EXTRACT: note_on channel=2 note=60 velocity=0 time=0
EXTRACT: note_on channel=2 note=55 velocity=73 time=0
EXTRACT: note_on channel=2 note=63 velocity=67 time=0
EXTRACT: note_on channel=2 note=59 velocity=85 time=0
EXTRACT: note_on channel=9 note=61 velocity=0 time=0.04128435
EXTRACT: note_on channel=9 note=42 velocity=0 time=0
EXTRACT: note_on channel=9 note=36 velocity=0 time=0
EXTRACT: note_on channel=9 note=61 velocity=44 time=0.09174299999999999
EXTRACT: note_on channel=9 note=61 velocity=0 time=0.045871499999999996
EXTRACT: note_on channel=0 note=31 velocity=0 time=0.08715584999999999
EXTRACT: note_on channel=9 note=64 velocity=50 time=0
EXTRACT: note_on channel=1 note=31 velocity=0 time=0.00458715
EXTRACT: note_on channel=9 note=61 velocity=44 time=0
EXTRACT: note_on channel=9 note=42 velocity=42 time=0
EXTRACT: note_on channel=9 note=64 velocity=0 time=0.04128435
EXTRACT: note_on channel=9 note=61 velocity=0 time=0.00458715
EXTRACT: note_on channel=9 note=42 velocity=0 time=0
EXTRACT: note_on channel=0 note=31 velocity=105 time=0.08715584999999999
EXTRACT: note_on channel=9 note=63 velocity=50 time=0
EXTRACT: note_on channel=1 note=31 velocity=110 time=0.00458715
EXTRACT: note_on channel=9 note=36 velocity=98 time=0
EXTRACT: note_on channel=9 note=63 velocity=0 time=0.04128435
EXTRACT: note_on channel=9 note=36 velocity=0 time=0.00458715
EXTRACT: note_on channel=0 note=31 velocity=0 time=0.08715584999999999
EXTRACT: note_on channel=9 note=64 velocity=50 time=0
EXTRACT: note_on channel=1 note=31 velocity=0 time=0.00458715
EXTRACT: note_on channel=9 note=38 velocity=127 time=0
EXTRACT: note_on channel=9 note=42 velocity=42 time=0
EXTRACT: note_on channel=9 note=64 velocity=0 time=0.04128435
EXTRACT: note_on channel=9 note=38 velocity=0 time=0.00458715
EXTRACT: note_on channel=9 note=42 velocity=0 time=0
EXTRACT: note_on channel=9 note=64 velocity=50 time=0.08715584999999999
EXTRACT: note_on channel=9 note=64 velocity=0 time=0.045871499999999996
EXTRACT: note_on channel=8 note=67 velocity=0 time=0.08715584999999999
EXTRACT: note_on channel=8 note=67 velocity=113 time=0.00458715
EXTRACT: note_on channel=9 note=63 velocity=50 time=0
EXTRACT: note_on channel=9 note=69 velocity=78 time=0.00458715
EXTRACT: note_on channel=9 note=42 velocity=42 time=0
EXTRACT: note_on channel=9 note=63 velocity=0 time=0.04128435
EXTRACT: note_on channel=9 note=69 velocity=0 time=0.00458715
EXTRACT: note_on channel=9 note=42 velocity=0 time=0
EXTRACT: note_on channel=9 note=69 velocity=74 time=0.09174299999999999
EXTRACT: note_on channel=9 note=69 velocity=0 time=0.045871499999999996
EXTRACT: note_on channel=8 note=67 velocity=0 time=0.0825687
EXTRACT: note_on channel=8 note=65 velocity=90 time=0.00458715
EXTRACT: note_on channel=9 note=69 velocity=78 time=0.00458715
EXTRACT: note_on channel=9 note=42 velocity=42 time=0
EXTRACT: note_on channel=9 note=69 velocity=0 time=0.045871499999999996
EXTRACT: note_on channel=9 note=42 velocity=0 time=0
EXTRACT: note_on channel=9 note=64 velocity=50 time=0.08715584999999999
EXTRACT: note_on channel=9 note=64 velocity=0 time=0.045871499999999996
EXTRACT: note_on channel=8 note=65 velocity=0 time=0.08715584999999999
EXTRACT: note_on channel=8 note=63 velocity=89 time=0.00458715
EXTRACT: note_on channel=9 note=48 velocity=50 time=0
EXTRACT: note_on channel=9 note=42 velocity=42 time=0.00458715
EXTRACT: note_on channel=9 note=36 velocity=98 time=0
EXTRACT: note_on channel=9 note=48 velocity=0 time=0.04128435
EXTRACT: note_on channel=9 note=42 velocity=0 time=0.00458715
EXTRACT: note_on channel=9 note=36 velocity=0 time=0
EXTRACT: note_on channel=9 note=64 velocity=50 time=0.08715584999999999
EXTRACT: note_on channel=9 note=64 velocity=0 time=0.045871499999999996
EXTRACT: note_on channel=8 note=63 velocity=0 time=0.08715584999999999
EXTRACT: note_on channel=8 note=63 velocity=87 time=0.00458715
EXTRACT: note_on channel=9 note=63 velocity=50 time=0
EXTRACT: note_on channel=9 note=38 velocity=127 time=0.00458715
EXTRACT: note_on channel=9 note=42 velocity=42 time=0
EXTRACT: note_on channel=9 note=63 velocity=0 time=0.04128435
EXTRACT: note_on channel=9 note=38 velocity=0 time=0.00458715
EXTRACT: note_on channel=9 note=42 velocity=0 time=0
EXTRACT: note_on channel=9 note=61 velocity=44 time=0.2293575
EXTRACT: note_on channel=9 note=36 velocity=92 time=0
EXTRACT: note_on channel=9 note=42 velocity=42 time=0
EXTRACT: note_on channel=9 note=61 velocity=0 time=0.045871499999999996
EXTRACT: note_on channel=9 note=36 velocity=0 time=0
EXTRACT: note_on channel=9 note=42 velocity=0 time=0
EXTRACT: note_on channel=9 note=61 velocity=44 time=0.09174299999999999
EXTRACT: note_on channel=9 note=36 velocity=92 time=0
EXTRACT: note_on channel=9 note=61 velocity=0 time=0.045871499999999996
EXTRACT: note_on channel=9 note=36 velocity=0 time=0
EXTRACT: note_on channel=3 note=55 velocity=0 time=0.07798155
EXTRACT: note_on channel=3 note=63 velocity=0 time=0
EXTRACT: note_on channel=3 note=59 velocity=0 time=0
EXTRACT: note_on channel=3 note=55 velocity=57 time=0
EXTRACT: note_on channel=3 note=60 velocity=76 time=0
EXTRACT: note_on channel=3 note=63 velocity=82 time=0
EXTRACT: note_on channel=8 note=63 velocity=0 time=0.00458715
EXTRACT: note_on channel=0 note=36 velocity=83 time=0.00458715
EXTRACT: note_on channel=8 note=63 velocity=114 time=0
EXTRACT: note_on channel=8 note=72 velocity=80 time=0
EXTRACT: note_on channel=8 note=68 velocity=111 time=0
EXTRACT: note_on channel=1 note=36 velocity=110 time=0.00458715
EXTRACT: note_on channel=9 note=61 velocity=44 time=0
EXTRACT: note_on channel=9 note=42 velocity=42 time=0
EXTRACT: note_on channel=9 note=36 velocity=98 time=0
EXTRACT: note_on channel=2 note=55 velocity=0 time=0.00458715
EXTRACT: note_on channel=2 note=63 velocity=0 time=0
EXTRACT: note_on channel=2 note=59 velocity=0 time=0
EXTRACT: note_on channel=2 note=55 velocity=70 time=0
EXTRACT: note_on channel=2 note=60 velocity=81 time=0
EXTRACT: note_on channel=2 note=63 velocity=69 time=0
EXTRACT: note_on channel=9 note=61 velocity=0 time=0.04128435
EXTRACT: note_on channel=9 note=42 velocity=0 time=0
EXTRACT: note_on channel=9 note=36 velocity=0 time=0
EXTRACT: note_on channel=0 note=36 velocity=0 time=0.22477035
EXTRACT: note_on channel=1 note=36 velocity=0 time=0.00458715
EXTRACT: note_on channel=9 note=42 velocity=42 time=0
EXTRACT: note_on channel=9 note=42 velocity=0 time=0.045871499999999996
EXTRACT: note_on channel=0 note=36 velocity=85 time=0.08715584999999999
EXTRACT: note_on channel=1 note=36 velocity=94 time=0.00458715
EXTRACT: note_on channel=9 note=61 velocity=44 time=0
EXTRACT: note_on channel=9 note=36 velocity=98 time=0
EXTRACT: note_on channel=9 note=61 velocity=0 time=0.045871499999999996
EXTRACT: note_on channel=9 note=36 velocity=0 time=0
EXTRACT: note_on channel=8 note=63 velocity=0 time=0.0825687
EXTRACT: note_on channel=8 note=72 velocity=0 time=0
EXTRACT: note_on channel=8 note=68 velocity=0 time=0
EXTRACT: note_on channel=0 note=36 velocity=0 time=0.00458715
EXTRACT: note_on channel=8 note=63 velocity=90 time=0
EXTRACT: note_on channel=8 note=70 velocity=66 time=0
EXTRACT: note_on channel=8 note=67 velocity=97 time=0
EXTRACT: note_on channel=1 note=36 velocity=0 time=0.00458715
EXTRACT: note_on channel=9 note=38 velocity=127 time=0
EXTRACT: note_on channel=9 note=42 velocity=42 time=0
EXTRACT: note_on channel=9 note=38 velocity=0 time=0.045871499999999996
EXTRACT: note_on channel=9 note=42 velocity=0 time=0
EXTRACT: note_on channel=9 note=69 velocity=81 time=0.2293575
EXTRACT: note_on channel=9 note=42 velocity=42 time=0
EXTRACT: note_on channel=9 note=69 velocity=0 time=0.045871499999999996
EXTRACT: note_on channel=9 note=42 velocity=0 time=0
EXTRACT: note_on channel=9 note=69 velocity=82 time=0.09174299999999999
EXTRACT: note_on channel=9 note=69 velocity=0 time=0.045871499999999996
EXTRACT: note_on channel=8 note=63 velocity=0 time=0.0825687
EXTRACT: note_on channel=8 note=70 velocity=0 time=0
EXTRACT: note_on channel=8 note=67 velocity=0 time=0
EXTRACT: note_on channel=8 note=60 velocity=87 time=0.00458715
EXTRACT: note_on channel=8 note=68 velocity=80 time=0
EXTRACT: note_on channel=8 note=65 velocity=92 time=0
EXTRACT: note_on channel=9 note=69 velocity=78 time=0.00458715
EXTRACT: note_on channel=9 note=42 velocity=42 time=0
EXTRACT: note_on channel=9 note=69 velocity=0 time=0.045871499999999996
EXTRACT: note_on channel=9 note=42 velocity=0 time=0
EXTRACT: note_on channel=9 note=42 velocity=42 time=0.2293575
EXTRACT: note_on channel=9 note=36 velocity=98 time=0
EXTRACT: note_on channel=9 note=42 velocity=0 time=0.045871499999999996
EXTRACT: note_on channel=9 note=36 velocity=0 time=0
EXTRACT: note_on channel=8 note=60 velocity=0 time=0.2201832
EXTRACT: note_on channel=8 note=68 velocity=0 time=0
EXTRACT: note_on channel=8 note=65 velocity=0 time=0
EXTRACT: note_on channel=8 note=58 velocity=90 time=0.00458715
EXTRACT: note_on channel=8 note=67 velocity=83 time=0
EXTRACT: note_on channel=8 note=63 velocity=116 time=0
EXTRACT: note_on channel=9 note=38 velocity=127 time=0.00458715
EXTRACT: note_on channel=9 note=42 velocity=42 time=0
EXTRACT: note_on channel=9 note=38 velocity=0 time=0.045871499999999996
EXTRACT: note_on channel=9 note=42 velocity=0 time=0
EXTRACT: note_on channel=9 note=69 velocity=80 time=0.2293575
EXTRACT: note_on channel=9 note=61 velocity=44 time=0
EXTRACT: note_on channel=9 note=42 velocity=42 time=0
EXTRACT: note_on channel=9 note=69 velocity=0 time=0.045871499999999996
EXTRACT: note_on channel=9 note=61 velocity=0 time=0
EXTRACT: note_on channel=9 note=42 velocity=0 time=0
EXTRACT: note_on channel=9 note=61 velocity=44 time=0.09174299999999999
EXTRACT: note_on channel=9 note=61 velocity=0 time=0.045871499999999996
EXTRACT: note_on channel=3 note=55 velocity=0 time=0.07798155
EXTRACT: note_on channel=3 note=60 velocity=0 time=0
EXTRACT: note_on channel=3 note=63 velocity=0 time=0
EXTRACT: note_on channel=3 note=65 velocity=80 time=0
EXTRACT: note_on channel=3 note=56 velocity=52 time=0
EXTRACT: note_on channel=3 note=58 velocity=80 time=0
EXTRACT: note_on channel=3 note=61 velocity=75 time=0
EXTRACT: note_on channel=8 note=58 velocity=0 time=0.00458715
EXTRACT: note_on channel=8 note=67 velocity=0 time=0
EXTRACT: note_on channel=8 note=63 velocity=0 time=0
EXTRACT: note_on channel=0 note=34 velocity=105 time=0.00458715
EXTRACT: note_on channel=4 note=55 velocity=0 time=0
EXTRACT: note_on channel=4 note=63 velocity=0 time=0
EXTRACT: note_on channel=4 note=58 velocity=65 time=0
EXTRACT: note_on channel=4 note=65 velocity=109 time=0
EXTRACT: note_on channel=8 note=67 velocity=85 time=0
EXTRACT: note_on channel=1 note=34 velocity=100 time=0.00458715
EXTRACT: note_on channel=9 note=61 velocity=44 time=0
EXTRACT: note_on channel=9 note=42 velocity=42 time=0
EXTRACT: note_on channel=9 note=36 velocity=98 time=0
EXTRACT: note_on channel=2 note=55 velocity=0 time=0.00458715
EXTRACT: note_on channel=2 note=60 velocity=0 time=0
EXTRACT: note_on channel=2 note=63 velocity=0 time=0
EXTRACT: note_on channel=2 note=65 velocity=90 time=0
EXTRACT: note_on channel=2 note=56 velocity=87 time=0
EXTRACT: note_on channel=2 note=58 velocity=74 time=0
EXTRACT: note_on channel=2 note=61 velocity=84 time=0
EXTRACT: note_on channel=9 note=61 velocity=0 time=0.04128435
EXTRACT: note_on channel=9 note=42 velocity=0 time=0
EXTRACT: note_on channel=9 note=36 velocity=0 time=0
EXTRACT: note_on channel=9 note=61 velocity=44 time=0.09174299999999999
EXTRACT: note_on channel=9 note=61 velocity=0 time=0.045871499999999996
EXTRACT: note_on channel=0 note=34 velocity=0 time=0.08715584999999999
EXTRACT: note_on channel=9 note=64 velocity=50 time=0
EXTRACT: note_on channel=1 note=34 velocity=0 time=0.00458715
EXTRACT: note_on channel=9 note=61 velocity=44 time=0
EXTRACT: note_on channel=9 note=42 velocity=42 time=0
EXTRACT: note_on channel=9 note=64 velocity=0 time=0.04128435
EXTRACT: note_on channel=9 note=61 velocity=0 time=0.00458715
EXTRACT: note_on channel=9 note=42 velocity=0 time=0
EXTRACT: note_on channel=0 note=34 velocity=86 time=0.08715584999999999
EXTRACT: note_on channel=9 note=63 velocity=50 time=0
EXTRACT: note_on channel=1 note=34 velocity=108 time=0.00458715
EXTRACT: note_on channel=9 note=36 velocity=98 time=0
EXTRACT: note_on channel=9 note=63 velocity=0 time=0.04128435
EXTRACT: note_on channel=9 note=36 velocity=0 time=0.00458715
EXTRACT: note_on channel=0 note=34 velocity=0 time=0.08715584999999999
EXTRACT: note_on channel=9 note=64 velocity=50 time=0
EXTRACT: note_on channel=1 note=34 velocity=0 time=0.00458715
EXTRACT: note_on channel=9 note=38 velocity=127 time=0
EXTRACT: note_on channel=9 note=42 velocity=42 time=0
EXTRACT: note_on channel=9 note=64 velocity=0 time=0.04128435
EXTRACT: note_on channel=9 note=38 velocity=0 time=0.00458715
EXTRACT: note_on channel=9 note=42 velocity=0 time=0
EXTRACT: note_on channel=9 note=64 velocity=50 time=0.08715584999999999
EXTRACT: note_on channel=9 note=64 velocity=0 time=0.045871499999999996
EXTRACT: note_on channel=8 note=67 velocity=0 time=0.08715584999999999
EXTRACT: note_on channel=0 note=34 velocity=94 time=0.00458715
EXTRACT: note_on channel=8 note=67 velocity=87 time=0
EXTRACT: note_on channel=9 note=63 velocity=50 time=0
EXTRACT: note_on channel=1 note=34 velocity=95 time=0.00458715
EXTRACT: note_on channel=9 note=69 velocity=78 time=0
EXTRACT: note_on channel=9 note=42 velocity=42 time=0
EXTRACT: note_on channel=9 note=63 velocity=0 time=0.04128435
EXTRACT: note_on channel=9 note=69 velocity=0 time=0.00458715
EXTRACT: note_on channel=9 note=42 velocity=0 time=0
EXTRACT: note_on channel=0 note=34 velocity=0 time=0.08715584999999999
EXTRACT: note_on channel=1 note=34 velocity=0 time=0.00458715
EXTRACT: note_on channel=9 note=69 velocity=81 time=0
EXTRACT: note_on channel=9 note=69 velocity=0 time=0.045871499999999996
EXTRACT: note_on channel=3 note=65 velocity=0 time=0.07798155
EXTRACT: note_on channel=3 note=56 velocity=0 time=0
EXTRACT: note_on channel=3 note=58 velocity=0 time=0
EXTRACT: note_on channel=3 note=61 velocity=0 time=0
EXTRACT: note_on channel=3 note=61 velocity=80 time=0
EXTRACT: note_on channel=3 note=55 velocity=65 time=0
EXTRACT: note_on channel=3 note=58 velocity=59 time=0
EXTRACT: note_on channel=3 note=63 velocity=61 time=0
EXTRACT: note_on channel=8 note=67 velocity=0 time=0.00458715
EXTRACT: note_on channel=0 note=39 velocity=93 time=0.00458715
EXTRACT: note_on channel=4 note=58 velocity=0 time=0
EXTRACT: note_on channel=4 note=65 velocity=0 time=0
EXTRACT: note_on channel=4 note=55 velocity=93 time=0
EXTRACT: note_on channel=4 note=63 velocity=106 time=0
EXTRACT: note_on channel=8 note=65 velocity=107 time=0
EXTRACT: note_on channel=1 note=39 velocity=112 time=0.00458715
EXTRACT: note_on channel=9 note=69 velocity=78 time=0
EXTRACT: note_on channel=9 note=42 velocity=42 time=0
EXTRACT: note_on channel=2 note=65 velocity=0 time=0.00458715
EXTRACT: note_on channel=2 note=56 velocity=0 time=0
EXTRACT: note_on channel=2 note=58 velocity=0 time=0
EXTRACT: note_on channel=2 note=61 velocity=0 time=0
EXTRACT: note_on channel=2 note=61 velocity=77 time=0
EXTRACT: note_on channel=2 note=55 velocity=75 time=0
EXTRACT: note_on channel=2 note=58 velocity=67 time=0
EXTRACT: note_on channel=2 note=63 velocity=78 time=0
EXTRACT: note_on channel=9 note=69 velocity=0 time=0.04128435
EXTRACT: note_on channel=9 note=42 velocity=0 time=0
EXTRACT: note_on channel=9 note=64 velocity=50 time=0.08715584999999999
EXTRACT: note_on channel=9 note=64 velocity=0 time=0.045871499999999996
EXTRACT: note_on channel=8 note=65 velocity=0 time=0.08715584999999999
EXTRACT: note_on channel=0 note=39 velocity=0 time=0.00458715
EXTRACT: note_on channel=8 note=63 velocity=99 time=0
EXTRACT: note_on channel=9 note=48 velocity=50 time=0
EXTRACT: note_on channel=1 note=39 velocity=0 time=0.00458715
EXTRACT: note_on channel=9 note=42 velocity=42 time=0
EXTRACT: note_on channel=9 note=36 velocity=98 time=0
EXTRACT: note_on channel=9 note=48 velocity=0 time=0.04128435
EXTRACT: note_on channel=9 note=42 velocity=0 time=0.00458715
EXTRACT: note_on channel=9 note=36 velocity=0 time=0
EXTRACT: note_on channel=0 note=39 velocity=84 time=0.08715584999999999
EXTRACT: note_on channel=9 note=64 velocity=50 time=0
EXTRACT: note_on channel=1 note=39 velocity=105 time=0.00458715
EXTRACT: note_on channel=9 note=64 velocity=0 time=0.04128435
EXTRACT: note_on channel=8 note=63 velocity=0 time=0.08715584999999999
EXTRACT: note_on channel=0 note=39 velocity=0 time=0.00458715
EXTRACT: note_on channel=8 note=63 velocity=92 time=0
EXTRACT: note_on channel=9 note=63 velocity=50 time=0
EXTRACT: note_on channel=1 note=39 velocity=0 time=0.00458715
EXTRACT: note_on channel=9 note=38 velocity=127 time=0
EXTRACT: note_on channel=9 note=42 velocity=42 time=0
EXTRACT: note_on channel=9 note=63 velocity=0 time=0.04128435
EXTRACT: note_on channel=9 note=38 velocity=0 time=0.00458715
EXTRACT: note_on channel=9 note=42 velocity=0 time=0
EXTRACT: note_on channel=9 note=61 velocity=44 time=0.2293575
EXTRACT: note_on channel=9 note=36 velocity=92 time=0
EXTRACT: note_on channel=9 note=42 velocity=42 time=0
EXTRACT: note_on channel=9 note=61 velocity=0 time=0.045871499999999996
EXTRACT: note_on channel=9 note=36 velocity=0 time=0
EXTRACT: note_on channel=9 note=42 velocity=0 time=0
EXTRACT: note_on channel=9 note=61 velocity=44 time=0.09174299999999999
EXTRACT: note_on channel=9 note=36 velocity=92 time=0
EXTRACT: note_on channel=9 note=61 velocity=0 time=0.045871499999999996
EXTRACT: note_on channel=9 note=36 velocity=0 time=0
EXTRACT: note_on channel=3 note=61 velocity=0 time=0.07798155
EXTRACT: note_on channel=3 note=55 velocity=0 time=0
EXTRACT: note_on channel=3 note=58 velocity=0 time=0
EXTRACT: note_on channel=3 note=63 velocity=0 time=0
EXTRACT: note_on channel=3 note=44 velocity=45 time=0
EXTRACT: note_on channel=3 note=55 velocity=82 time=0
EXTRACT: note_on channel=3 note=63 velocity=68 time=0
EXTRACT: note_on channel=3 note=60 velocity=63 time=0
EXTRACT: note_on channel=8 note=63 velocity=0 time=0.00458715
EXTRACT: note_on channel=0 note=32 velocity=94 time=0.00458715
EXTRACT: note_on channel=4 note=55 velocity=0 time=0
EXTRACT: note_on channel=4 note=63 velocity=0 time=0
EXTRACT: note_on channel=4 note=55 velocity=84 time=0
EXTRACT: note_on channel=4 note=63 velocity=112 time=0
EXTRACT: note_on channel=8 note=67 velocity=116 time=0
EXTRACT: note_on channel=1 note=32 velocity=92 time=0.00458715
EXTRACT: note_on channel=9 note=61 velocity=44 time=0
EXTRACT: note_on channel=9 note=42 velocity=42 time=0
EXTRACT: note_on channel=9 note=36 velocity=98 time=0
EXTRACT: note_on channel=2 note=61 velocity=0 time=0.00458715
EXTRACT: note_on channel=2 note=55 velocity=0 time=0
EXTRACT: note_on channel=2 note=58 velocity=0 time=0
EXTRACT: note_on channel=2 note=63 velocity=0 time=0
EXTRACT: note_on channel=2 note=44 velocity=58 time=0
EXTRACT: note_on channel=2 note=55 velocity=78 time=0
EXTRACT: note_on channel=2 note=63 velocity=81 time=0
EXTRACT: note_on channel=2 note=60 velocity=84 time=0
EXTRACT: note_on channel=9 note=61 velocity=0 time=0.04128435
EXTRACT: note_on channel=9 note=42 velocity=0 time=0
EXTRACT: note_on channel=9 note=36 velocity=0 time=0
EXTRACT: note_on channel=0 note=32 velocity=0 time=0.22477035
EXTRACT: note_on channel=1 note=32 velocity=0 time=0.00458715
EXTRACT: note_on channel=9 note=42 velocity=42 time=0
EXTRACT: note_on channel=9 note=42 velocity=0 time=0.045871499999999996
EXTRACT: note_on channel=0 note=32 velocity=94 time=0.08715584999999999
EXTRACT: note_on channel=1 note=32 velocity=114 time=0.00458715
EXTRACT: note_on channel=9 note=61 velocity=44 time=0
EXTRACT: note_on channel=9 note=36 velocity=98 time=0
EXTRACT: note_on channel=9 note=61 velocity=0 time=0.045871499999999996
EXTRACT: note_on channel=9 note=36 velocity=0 time=0
EXTRACT: note_on channel=0 note=32 velocity=0 time=0.08715584999999999
EXTRACT: note_on channel=1 note=32 velocity=0 time=0.00458715
EXTRACT: note_on channel=9 note=38 velocity=127 time=0
EXTRACT: note_on channel=9 note=42 velocity=42 time=0
EXTRACT: note_on channel=9 note=38 velocity=0 time=0.045871499999999996
EXTRACT: note_on channel=9 note=42 velocity=0 time=0
EXTRACT: note_on channel=8 note=67 velocity=0 time=0.2201832
EXTRACT: note_on channel=8 note=67 velocity=109 time=0.00458715
EXTRACT: note_on channel=9 note=69 velocity=78 time=0.00458715
EXTRACT: note_on channel=9 note=42 velocity=42 time=0
EXTRACT: note_on channel=9 note=69 velocity=0 time=0.045871499999999996
EXTRACT: note_on channel=9 note=42 velocity=0 time=0
EXTRACT: note_on channel=9 note=69 velocity=76 time=0.09174299999999999
EXTRACT: note_on channel=9 note=69 velocity=0 time=0.045871499999999996
EXTRACT: note_on channel=8 note=67 velocity=0 time=0.0825687
EXTRACT: note_on channel=8 note=65 velocity=97 time=0.00458715
EXTRACT: note_on channel=9 note=69 velocity=75 time=0.00458715
EXTRACT: note_on channel=9 note=42 velocity=42 time=0
EXTRACT: note_on channel=9 note=69 velocity=0 time=0.045871499999999996
EXTRACT: note_on channel=9 note=42 velocity=0 time=0
EXTRACT: note_on channel=8 note=65 velocity=0 time=0.2201832
EXTRACT: note_on channel=0 note=29 velocity=94 time=0.00458715
EXTRACT: note_on channel=8 note=63 velocity=113 time=0
EXTRACT: note_on channel=1 note=29 velocity=112 time=0.00458715
EXTRACT: note_on channel=9 note=42 velocity=42 time=0
EXTRACT: note_on channel=9 note=36 velocity=98 time=0
EXTRACT: note_on channel=9 note=42 velocity=0 time=0.045871499999999996
EXTRACT: note_on channel=9 note=36 velocity=0 time=0
EXTRACT: note_on channel=0 note=29 velocity=0 time=0.08715584999999999
EXTRACT: note_on channel=1 note=29 velocity=0 time=0.00458715
EXTRACT: note_on channel=8 note=63 velocity=0 time=0.1284402
EXTRACT: note_on channel=8 note=63 velocity=113 time=0.00458715
EXTRACT: note_on channel=9 note=38 velocity=127 time=0.00458715
EXTRACT: note_on channel=9 note=42 velocity=42 time=0
EXTRACT: note_on channel=9 note=38 velocity=0 time=0.045871499999999996
EXTRACT: note_on channel=9 note=42 velocity=0 time=0
EXTRACT: note_on channel=0 note=30 velocity=90 time=0.08715584999999999
EXTRACT: note_on channel=1 note=30 velocity=97 time=0.00458715
EXTRACT: note_on channel=0 note=30 velocity=0 time=0.13302735
EXTRACT: note_on channel=1 note=30 velocity=0 time=0.00458715
EXTRACT: note_on channel=9 note=69 velocity=80 time=0
EXTRACT: note_on channel=9 note=61 velocity=44 time=0
EXTRACT: note_on channel=9 note=42 velocity=42 time=0
EXTRACT: note_on channel=9 note=69 velocity=0 time=0.045871499999999996
EXTRACT: note_on channel=9 note=61 velocity=0 time=0
EXTRACT: note_on channel=9 note=42 velocity=0 time=0
EXTRACT: note_on channel=9 note=61 velocity=44 time=0.09174299999999999
EXTRACT: note_on channel=9 note=61 velocity=0 time=0.045871499999999996
EXTRACT: note_on channel=3 note=44 velocity=0 time=0.07798155
EXTRACT: note_on channel=3 note=55 velocity=0 time=0
EXTRACT: note_on channel=3 note=63 velocity=0 time=0
EXTRACT: note_on channel=3 note=60 velocity=0 time=0
EXTRACT: note_on channel=3 note=55 velocity=77 time=0
EXTRACT: note_on channel=3 note=63 velocity=73 time=0
EXTRACT: note_on channel=3 note=59 velocity=68 time=0
EXTRACT: note_on channel=8 note=63 velocity=0 time=0.00458715
EXTRACT: note_on channel=0 note=31 velocity=87 time=0.00458715
EXTRACT: note_on channel=8 note=67 velocity=107 time=0
EXTRACT: note_on channel=1 note=31 velocity=104 time=0.00458715
EXTRACT: note_on channel=9 note=61 velocity=44 time=0
EXTRACT: note_on channel=9 note=42 velocity=42 time=0
EXTRACT: note_on channel=9 note=36 velocity=98 time=0
EXTRACT: note_on channel=2 note=44 velocity=0 time=0.00458715
EXTRACT: note_on channel=2 note=55 velocity=0 time=0
EXTRACT: note_on channel=2 note=63 velocity=0 time=0
EXTRACT: note_on channel=2 note=60 velocity=0 time=0
EXTRACT: note_on channel=2 note=55 velocity=86 time=0
EXTRACT: note_on channel=2 note=63 velocity=62 time=0
EXTRACT: note_on channel=2 note=59 velocity=82 time=0
EXTRACT: note_on channel=9 note=61 velocity=0 time=0.04128435
EXTRACT: note_on channel=9 note=42 velocity=0 time=0
EXTRACT: note_on channel=9 note=36 velocity=0 time=0
EXTRACT: note_on channel=9 note=61 velocity=44 time=0.09174299999999999
EXTRACT: note_on channel=9 note=61 velocity=0 time=0.045871499999999996
EXTRACT: note_on channel=0 note=31 velocity=0 time=0.08715584999999999
EXTRACT: note_on channel=9 note=64 velocity=50 time=0
EXTRACT: note_on channel=1 note=31 velocity=0 time=0.00458715
EXTRACT: note_on channel=9 note=61 velocity=44 time=0
EXTRACT: note_on channel=9 note=42 velocity=42 time=0
EXTRACT: note_on channel=9 note=64 velocity=0 time=0.04128435
EXTRACT: note_on channel=9 note=61 velocity=0 time=0.00458715
EXTRACT: note_on channel=9 note=42 velocity=0 time=0
EXTRACT: note_on channel=0 note=31 velocity=86 time=0.08715584999999999
EXTRACT: note_on channel=9 note=63 velocity=50 time=0
EXTRACT: note_on channel=1 note=31 velocity=105 time=0.00458715
EXTRACT: note_on channel=9 note=36 velocity=98 time=0
EXTRACT: note_on channel=9 note=63 velocity=0 time=0.04128435
EXTRACT: note_on channel=9 note=36 velocity=0 time=0.00458715
EXTRACT: note_on channel=0 note=31 velocity=0 time=0.08715584999999999
EXTRACT: note_on channel=9 note=64 velocity=50 time=0
EXTRACT: note_on channel=1 note=31 velocity=0 time=0.00458715
EXTRACT: note_on channel=9 note=38 velocity=127 time=0
EXTRACT: note_on channel=9 note=42 velocity=42 time=0
EXTRACT: note_on channel=9 note=64 velocity=0 time=0.04128435
EXTRACT: note_on channel=9 note=38 velocity=0 time=0.00458715
EXTRACT: note_on channel=9 note=42 velocity=0 time=0
EXTRACT: note_on channel=9 note=64 velocity=50 time=0.08715584999999999
EXTRACT: note_on channel=9 note=64 velocity=0 time=0.045871499999999996
EXTRACT: note_on channel=8 note=67 velocity=0 time=0.08715584999999999
EXTRACT: note_on channel=8 note=67 velocity=86 time=0.00458715
EXTRACT: note_on channel=9 note=63 velocity=50 time=0
EXTRACT: note_on channel=9 note=69 velocity=77 time=0.00458715
EXTRACT: note_on channel=9 note=42 velocity=42 time=0
EXTRACT: note_on channel=9 note=63 velocity=0 time=0.04128435
EXTRACT: note_on channel=9 note=69 velocity=0 time=0.00458715
EXTRACT: note_on channel=9 note=42 velocity=0 time=0
EXTRACT: note_on channel=9 note=69 velocity=75 time=0.09174299999999999
EXTRACT: note_on channel=9 note=69 velocity=0 time=0.045871499999999996
EXTRACT: note_on channel=8 note=67 velocity=0 time=0.0825687
EXTRACT: note_on channel=8 note=65 velocity=88 time=0.00458715
EXTRACT: note_on channel=9 note=69 velocity=76 time=0.00458715
EXTRACT: note_on channel=9 note=42 velocity=42 time=0
EXTRACT: note_on channel=9 note=69 velocity=0 time=0.045871499999999996
EXTRACT: note_on channel=9 note=42 velocity=0 time=0
EXTRACT: note_on channel=9 note=64 velocity=50 time=0.08715584999999999
EXTRACT: note_on channel=9 note=64 velocity=0 time=0.045871499999999996
EXTRACT: note_on channel=8 note=65 velocity=0 time=0.08715584999999999
EXTRACT: note_on channel=8 note=63 velocity=95 time=0.00458715
EXTRACT: note_on channel=9 note=48 velocity=50 time=0
EXTRACT: note_on channel=9 note=42 velocity=42 time=0.00458715
EXTRACT: note_on channel=9 note=36 velocity=98 time=0
EXTRACT: note_on channel=9 note=48 velocity=0 time=0.04128435
EXTRACT: note_on channel=9 note=42 velocity=0 time=0.00458715
EXTRACT: note_on channel=9 note=36 velocity=0 time=0
EXTRACT: note_on channel=9 note=64 velocity=50 time=0.08715584999999999
EXTRACT: note_on channel=9 note=64 velocity=0 time=0.045871499999999996
EXTRACT: note_on channel=8 note=63 velocity=0 time=0.08715584999999999
EXTRACT: note_on channel=8 note=63 velocity=88 time=0.00458715
EXTRACT: note_on channel=9 note=63 velocity=50 time=0
EXTRACT: note_on channel=9 note=38 velocity=127 time=0.00458715
EXTRACT: note_on channel=9 note=42 velocity=42 time=0
EXTRACT: note_on channel=9 note=63 velocity=0 time=0.04128435
EXTRACT: note_on channel=9 note=38 velocity=0 time=0.00458715
EXTRACT: note_on channel=9 note=42 velocity=0 time=0
EXTRACT: note_on channel=9 note=61 velocity=44 time=0.2293575
EXTRACT: note_on channel=9 note=36 velocity=92 time=0
EXTRACT: note_on channel=9 note=42 velocity=42 time=0
EXTRACT: note_on channel=9 note=61 velocity=0 time=0.045871499999999996
EXTRACT: note_on channel=9 note=36 velocity=0 time=0
EXTRACT: note_on channel=9 note=42 velocity=0 time=0
EXTRACT: note_on channel=9 note=61 velocity=44 time=0.09174299999999999
EXTRACT: note_on channel=9 note=36 velocity=92 time=0
EXTRACT: note_on channel=9 note=61 velocity=0 time=0.045871499999999996
EXTRACT: note_on channel=9 note=36 velocity=0 time=0
EXTRACT: note_on channel=3 note=55 velocity=0 time=0.07798155
EXTRACT: note_on channel=3 note=63 velocity=0 time=0
EXTRACT: note_on channel=3 note=59 velocity=0 time=0
EXTRACT: note_on channel=3 note=55 velocity=74 time=0
EXTRACT: note_on channel=3 note=60 velocity=57 time=0
EXTRACT: note_on channel=3 note=63 velocity=53 time=0
EXTRACT: note_on channel=8 note=63 velocity=0 time=0.00458715
EXTRACT: note_on channel=0 note=36 velocity=96 time=0.00458715
EXTRACT: note_on channel=8 note=63 velocity=80 time=0
EXTRACT: note_on channel=8 note=72 velocity=100 time=0
EXTRACT: note_on channel=8 note=68 velocity=111 time=0
EXTRACT: note_on channel=1 note=36 velocity=97 time=0.00458715
EXTRACT: note_on channel=9 note=61 velocity=44 time=0
EXTRACT: note_on channel=9 note=42 velocity=42 time=0
EXTRACT: note_on channel=9 note=36 velocity=98 time=0
EXTRACT: note_on channel=2 note=55 velocity=0 time=0.00458715
EXTRACT: note_on channel=2 note=63 velocity=0 time=0
EXTRACT: note_on channel=2 note=59 velocity=0 time=0
EXTRACT: note_on channel=2 note=55 velocity=73 time=0
EXTRACT: note_on channel=2 note=60 velocity=63 time=0
EXTRACT: note_on channel=2 note=63 velocity=66 time=0
EXTRACT: note_on channel=9 note=61 velocity=0 time=0.04128435
EXTRACT: note_on channel=9 note=42 velocity=0 time=0
EXTRACT: note_on channel=9 note=36 velocity=0 time=0
EXTRACT: note_on channel=0 note=36 velocity=0 time=0.22477035
EXTRACT: note_on channel=1 note=36 velocity=0 time=0.00458715
EXTRACT: note_on channel=9 note=42 velocity=42 time=0
EXTRACT: note_on channel=9 note=42 velocity=0 time=0.045871499999999996
EXTRACT: note_on channel=0 note=36 velocity=93 time=0.08715584999999999
EXTRACT: note_on channel=1 note=36 velocity=111 time=0.00458715
EXTRACT: note_on channel=9 note=61 velocity=44 time=0
EXTRACT: note_on channel=9 note=36 velocity=98 time=0
EXTRACT: note_on channel=9 note=61 velocity=0 time=0.045871499999999996
EXTRACT: note_on channel=9 note=36 velocity=0 time=0
EXTRACT: note_on channel=8 note=63 velocity=0 time=0.0825687
EXTRACT: note_on channel=8 note=72 velocity=0 time=0
EXTRACT: note_on channel=8 note=68 velocity=0 time=0
EXTRACT: note_on channel=0 note=36 velocity=0 time=0.00458715
EXTRACT: note_on channel=8 note=63 velocity=69 time=0
EXTRACT: note_on channel=8 note=70 velocity=102 time=0
EXTRACT: note_on channel=8 note=67 velocity=88 time=0
EXTRACT: note_on channel=1 note=36 velocity=0 time=0.00458715
EXTRACT: note_on channel=9 note=38 velocity=127 time=0
EXTRACT: note_on channel=9 note=42 velocity=42 time=0
EXTRACT: note_on channel=9 note=38 velocity=0 time=0.045871499999999996
EXTRACT: note_on channel=9 note=42 velocity=0 time=0
EXTRACT: note_on channel=9 note=69 velocity=80 time=0.2293575
EXTRACT: note_on channel=9 note=42 velocity=42 time=0
EXTRACT: note_on channel=9 note=69 velocity=0 time=0.045871499999999996
EXTRACT: note_on channel=9 note=42 velocity=0 time=0
EXTRACT: note_on channel=9 note=69 velocity=77 time=0.09174299999999999
EXTRACT: note_on channel=9 note=69 velocity=0 time=0.045871499999999996
EXTRACT: note_on channel=8 note=63 velocity=0 time=0.0825687
EXTRACT: note_on channel=8 note=70 velocity=0 time=0
EXTRACT: note_on channel=8 note=67 velocity=0 time=0
EXTRACT: note_on channel=8 note=60 velocity=92 time=0.00458715
EXTRACT: note_on channel=8 note=68 velocity=110 time=0
EXTRACT: note_on channel=8 note=65 velocity=92 time=0
EXTRACT: note_on channel=9 note=69 velocity=78 time=0.00458715
EXTRACT: note_on channel=9 note=42 velocity=42 time=0
EXTRACT: note_on channel=9 note=69 velocity=0 time=0.045871499999999996
EXTRACT: note_on channel=9 note=42 velocity=0 time=0
EXTRACT: note_on channel=9 note=42 velocity=42 time=0.2293575
EXTRACT: note_on channel=9 note=36 velocity=98 time=0
EXTRACT: note_on channel=9 note=42 velocity=0 time=0.045871499999999996
EXTRACT: note_on channel=9 note=36 velocity=0 time=0
EXTRACT: note_on channel=8 note=60 velocity=0 time=0.2201832
EXTRACT: note_on channel=8 note=68 velocity=0 time=0
EXTRACT: note_on channel=8 note=65 velocity=0 time=0
EXTRACT: note_on channel=8 note=58 velocity=81 time=0.00458715
EXTRACT: note_on channel=8 note=67 velocity=104 time=0
EXTRACT: note_on channel=8 note=63 velocity=97 time=0
EXTRACT: note_on channel=9 note=38 velocity=127 time=0.00458715
EXTRACT: note_on channel=9 note=42 velocity=42 time=0
EXTRACT: note_on channel=9 note=38 velocity=0 time=0.045871499999999996
EXTRACT: note_on channel=9 note=42 velocity=0 time=0
EXTRACT: note_on channel=9 note=69 velocity=76 time=0.2293575
EXTRACT: note_on channel=9 note=61 velocity=44 time=0
EXTRACT: note_on channel=9 note=42 velocity=42 time=0
EXTRACT: note_on channel=9 note=69 velocity=0 time=0.045871499999999996
EXTRACT: note_on channel=9 note=61 velocity=0 time=0
EXTRACT: note_on channel=9 note=42 velocity=0 time=0
EXTRACT: note_on channel=9 note=61 velocity=44 time=0.09174299999999999
EXTRACT: note_on channel=9 note=61 velocity=0 time=0.045871499999999996
EXTRACT: note_on channel=9 note=39 velocity=68 time=0.0733944
EXTRACT: note_on channel=3 note=55 velocity=0 time=0.00458715
EXTRACT: note_on channel=3 note=60 velocity=0 time=0
EXTRACT: note_on channel=3 note=63 velocity=0 time=0
EXTRACT: note_on channel=3 note=65 velocity=77 time=0
EXTRACT: note_on channel=3 note=56 velocity=51 time=0
EXTRACT: note_on channel=3 note=58 velocity=64 time=0
EXTRACT: note_on channel=3 note=61 velocity=75 time=0
EXTRACT: note_on channel=8 note=58 velocity=0 time=0.00458715
EXTRACT: note_on channel=8 note=67 velocity=0 time=0
EXTRACT: note_on channel=8 note=63 velocity=0 time=0
EXTRACT: note_on channel=0 note=34 velocity=94 time=0.00458715
EXTRACT: note_on channel=4 note=55 velocity=0 time=0
EXTRACT: note_on channel=4 note=63 velocity=0 time=0
EXTRACT: note_on channel=4 note=58 velocity=97 time=0
EXTRACT: note_on channel=4 note=65 velocity=104 time=0
EXTRACT: note_on channel=8 note=63 velocity=110 time=0
EXTRACT: note_on channel=1 note=34 velocity=114 time=0.00458715
EXTRACT: note_on channel=9 note=61 velocity=44 time=0
EXTRACT: note_on channel=9 note=42 velocity=42 time=0
EXTRACT: note_on channel=9 note=36 velocity=98 time=0
EXTRACT: note_on channel=2 note=55 velocity=0 time=0.00458715
EXTRACT: note_on channel=2 note=60 velocity=0 time=0
EXTRACT: note_on channel=2 note=63 velocity=0 time=0
EXTRACT: note_on channel=2 note=65 velocity=88 time=0
EXTRACT: note_on channel=2 note=56 velocity=78 time=0
EXTRACT: note_on channel=2 note=58 velocity=85 time=0
EXTRACT: note_on channel=2 note=61 velocity=72 time=0
EXTRACT: note_on channel=9 note=39 velocity=0 time=0.022935749999999998
EXTRACT: note_on channel=9 note=61 velocity=0 time=0.0183486
EXTRACT: note_on channel=9 note=42 velocity=0 time=0
EXTRACT: note_on channel=9 note=36 velocity=0 time=0
EXTRACT: note_on channel=9 note=39 velocity=58 time=0.0733944
EXTRACT: note_on channel=9 note=61 velocity=44 time=0.0183486
EXTRACT: note_on channel=9 note=39 velocity=0 time=0.0275229
EXTRACT: note_on channel=9 note=61 velocity=0 time=0.0183486
EXTRACT: note_on channel=0 note=34 velocity=0 time=0.08715584999999999
EXTRACT: note_on channel=9 note=64 velocity=50 time=0
EXTRACT: note_on channel=1 note=34 velocity=0 time=0.00458715
EXTRACT: note_on channel=9 note=61 velocity=44 time=0
EXTRACT: note_on channel=9 note=42 velocity=42 time=0
EXTRACT: note_on channel=9 note=64 velocity=0 time=0.04128435
EXTRACT: note_on channel=9 note=61 velocity=0 time=0.00458715
EXTRACT: note_on channel=9 note=42 velocity=0 time=0
EXTRACT: note_on channel=0 note=34 velocity=84 time=0.08715584999999999
EXTRACT: note_on channel=9 note=63 velocity=50 time=0
EXTRACT: note_on channel=1 note=34 velocity=108 time=0.00458715
EXTRACT: note_on channel=9 note=36 velocity=98 time=0
EXTRACT: note_on channel=9 note=63 velocity=0 time=0.04128435
EXTRACT: note_on channel=9 note=36 velocity=0 time=0.00458715
EXTRACT: note_on channel=9 note=39 velocity=59 time=0.0733944
EXTRACT: note_on channel=0 note=34 velocity=0 time=0.01376145
EXTRACT: note_on channel=9 note=64 velocity=50 time=0
EXTRACT: note_on channel=1 note=34 velocity=0 time=0.00458715
EXTRACT: note_on channel=9 note=38 velocity=127 time=0
EXTRACT: note_on channel=9 note=42 velocity=42 time=0
EXTRACT: note_on channel=9 note=39 velocity=0 time=0.0275229
EXTRACT: note_on channel=9 note=64 velocity=0 time=0.01376145
EXTRACT: note_on channel=9 note=38 velocity=0 time=0.00458715
EXTRACT: note_on channel=9 note=42 velocity=0 time=0
EXTRACT: note_on channel=9 note=39 velocity=51 time=0.0733944
EXTRACT: note_on channel=9 note=64 velocity=50 time=0.01376145
EXTRACT: note_on channel=9 note=39 velocity=0 time=0.03211005
EXTRACT: note_on channel=9 note=64 velocity=0 time=0.01376145
EXTRACT: note_on channel=0 note=34 velocity=94 time=0.09174299999999999
EXTRACT: note_on channel=9 note=63 velocity=50 time=0
EXTRACT: note_on channel=1 note=34 velocity=112 time=0.00458715
EXTRACT: note_on channel=9 note=69 velocity=82 time=0
EXTRACT: note_on channel=9 note=42 velocity=42 time=0
EXTRACT: note_on channel=9 note=63 velocity=0 time=0.04128435
EXTRACT: note_on channel=9 note=69 velocity=0 time=0.00458715
EXTRACT: note_on channel=9 note=42 velocity=0 time=0
EXTRACT: note_on channel=0 note=34 velocity=0 time=0.08715584999999999
EXTRACT: note_on channel=1 note=34 velocity=0 time=0.00458715
EXTRACT: note_on channel=9 note=69 velocity=77 time=0
EXTRACT: note_on channel=9 note=69 velocity=0 time=0.045871499999999996
EXTRACT: note_on channel=9 note=39 velocity=59 time=0.0733944
EXTRACT: note_on channel=3 note=65 velocity=0 time=0.00458715
EXTRACT: note_on channel=3 note=56 velocity=0 time=0
EXTRACT: note_on channel=3 note=58 velocity=0 time=0
EXTRACT: note_on channel=3 note=61 velocity=0 time=0
EXTRACT: note_on channel=3 note=61 velocity=62 time=0
EXTRACT: note_on channel=3 note=55 velocity=80 time=0
EXTRACT: note_on channel=3 note=58 velocity=70 time=0
EXTRACT: note_on channel=3 note=63 velocity=82 time=0
EXTRACT: note_on channel=0 note=39 velocity=94 time=0.0091743
EXTRACT: note_on channel=4 note=58 velocity=0 time=0
EXTRACT: note_on channel=4 note=65 velocity=0 time=0
EXTRACT: note_on channel=4 note=55 velocity=83 time=0
EXTRACT: note_on channel=4 note=63 velocity=90 time=0
EXTRACT: note_on channel=6 note=32 velocity=100 time=0
EXTRACT: note_on channel=1 note=39 velocity=94 time=0.00458715
EXTRACT: note_on channel=9 note=29 velocity=45 time=0
EXTRACT: note_on channel=9 note=36 velocity=92 time=0
EXTRACT: note_on channel=2 note=65 velocity=0 time=0.00458715
EXTRACT: note_on channel=2 note=56 velocity=0 time=0
EXTRACT: note_on channel=2 note=58 velocity=0 time=0
EXTRACT: note_on channel=2 note=61 velocity=0 time=0
EXTRACT: note_on channel=2 note=61 velocity=69 time=0
EXTRACT: note_on channel=2 note=55 velocity=63 time=0
EXTRACT: note_on channel=2 note=58 velocity=76 time=0
EXTRACT: note_on channel=2 note=63 velocity=83 time=0
EXTRACT: note_on channel=9 note=39 velocity=0 time=0.022935749999999998
EXTRACT: note_on channel=9 note=29 velocity=0 time=0.0183486
EXTRACT: note_on channel=9 note=36 velocity=0 time=0
EXTRACT: note_on channel=9 note=39 velocity=64 time=0.0733944
EXTRACT: note_on channel=6 note=32 velocity=0 time=0.0126146625
EXTRACT: note_on channel=6 note=32 velocity=97 time=0.0011467875
EXTRACT: note_on channel=9 note=64 velocity=50 time=0
EXTRACT: note_on channel=9 note=29 velocity=31 time=0.00458715
EXTRACT: note_on channel=9 note=41 velocity=70 time=0
EXTRACT: note_on channel=9 note=39 velocity=0 time=0.0275229
EXTRACT: note_on channel=9 note=64 velocity=0 time=0.01376145
EXTRACT: note_on channel=9 note=29 velocity=0 time=0.00458715
EXTRACT: note_on channel=9 note=41 velocity=0 time=0
EXTRACT: note_on channel=6 note=32 velocity=0 time=0.0860090625
EXTRACT: note_on channel=0 note=39 velocity=0 time=0.0011467875
EXTRACT: note_on channel=6 note=32 velocity=94 time=0
EXTRACT: note_on channel=9 note=48 velocity=50 time=0
EXTRACT: note_on channel=1 note=39 velocity=0 time=0.00458715
EXTRACT: note_on channel=9 note=29 velocity=45 time=0
EXTRACT: note_on channel=9 note=36 velocity=92 time=0
EXTRACT: note_on channel=9 note=48 velocity=0 time=0.04128435
EXTRACT: note_on channel=9 note=29 velocity=0 time=0.00458715
EXTRACT: note_on channel=9 note=36 velocity=0 time=0
EXTRACT: note_on channel=6 note=32 velocity=0 time=0.0860090625
EXTRACT: note_on channel=0 note=39 velocity=104 time=0.0011467875
EXTRACT: note_on channel=6 note=32 velocity=98 time=0
EXTRACT: note_on channel=9 note=64 velocity=50 time=0
EXTRACT: note_on channel=1 note=39 velocity=95 time=0.00458715
EXTRACT: note_on channel=9 note=29 velocity=31 time=0
EXTRACT: note_on channel=9 note=41 velocity=70 time=0
EXTRACT: note_on channel=9 note=64 velocity=0 time=0.04128435
EXTRACT: note_on channel=9 note=29 velocity=0 time=0.00458715
EXTRACT: note_on channel=9 note=41 velocity=0 time=0
EXTRACT: note_on channel=9 note=39 velocity=61 time=0.0733944
EXTRACT: note_on channel=8 note=63 velocity=0 time=0.0091743
EXTRACT: note_on channel=6 note=32 velocity=0 time=0.0034403625
EXTRACT: note_on channel=0 note=39 velocity=0 time=0.0011467875
EXTRACT: note_on channel=6 note=32 velocity=91 time=0
EXTRACT: note_on channel=8 note=58 velocity=100 time=0
EXTRACT: note_on channel=9 note=63 velocity=50 time=0
EXTRACT: note_on channel=1 note=39 velocity=0 time=0.00458715
EXTRACT: note_on channel=9 note=29 velocity=45 time=0
EXTRACT: note_on channel=9 note=38 velocity=127 time=0
EXTRACT: note_on channel=9 note=36 velocity=92 time=0
EXTRACT: note_on channel=9 note=39 velocity=0 time=0.0275229
EXTRACT: note_on channel=9 note=63 velocity=0 time=0.01376145
EXTRACT: note_on channel=9 note=29 velocity=0 time=0.00458715
EXTRACT: note_on channel=9 note=38 velocity=0 time=0
EXTRACT: note_on channel=9 note=36 velocity=0 time=0
EXTRACT: note_on channel=9 note=39 velocity=32 time=0.0733944
EXTRACT: note_on channel=6 note=32 velocity=0 time=0.0126146625
EXTRACT: note_on channel=6 note=32 velocity=62 time=0.0011467875
EXTRACT: note_on channel=9 note=29 velocity=31 time=0.00458715
EXTRACT: note_on channel=9 note=41 velocity=70 time=0
EXTRACT: note_on channel=9 note=39 velocity=0 time=0.0275229
EXTRACT: note_on channel=9 note=29 velocity=0 time=0.0183486
EXTRACT: note_on channel=9 note=41 velocity=0 time=0
EXTRACT: note_on channel=9 note=39 velocity=59 time=0.0733944
EXTRACT: note_on channel=6 note=32 velocity=0 time=0.0126146625
EXTRACT: note_on channel=6 note=32 velocity=99 time=0.0011467875
EXTRACT: note_on channel=9 note=61 velocity=44 time=0.00458715
EXTRACT: note_on channel=9 note=29 velocity=45 time=0
EXTRACT: note_on channel=9 note=36 velocity=92 time=0
EXTRACT: note_on channel=9 note=39 velocity=0 time=0.0275229
EXTRACT: note_on channel=9 note=61 velocity=0 time=0.0183486
EXTRACT: note_on channel=9 note=29 velocity=0 time=0
EXTRACT: note_on channel=9 note=36 velocity=0 time=0
EXTRACT: note_on channel=9 note=39 velocity=48 time=0.0733944
EXTRACT: note_on channel=6 note=32 velocity=0 time=0.0126146625
EXTRACT: note_on channel=6 note=32 velocity=83 time=0.0011467875
EXTRACT: note_on channel=9 note=61 velocity=44 time=0.00458715
EXTRACT: note_on channel=9 note=29 velocity=31 time=0
EXTRACT: note_on channel=9 note=41 velocity=70 time=0
EXTRACT: note_on channel=9 note=39 velocity=0 time=0.0275229
EXTRACT: note_on channel=9 note=61 velocity=0 time=0.0183486
EXTRACT: note_on channel=9 note=29 velocity=0 time=0
EXTRACT: note_on channel=9 note=41 velocity=0 time=0
EXTRACT: note_on channel=3 note=61 velocity=0 time=0.07798155
EXTRACT: note_on channel=3 note=55 velocity=0 time=0
EXTRACT: note_on channel=3 note=58 velocity=0 time=0
EXTRACT: note_on channel=3 note=63 velocity=0 time=0
EXTRACT: note_on channel=0 note=32 velocity=107 time=0.0091743
EXTRACT: note_on channel=4 note=55 velocity=0 time=0
EXTRACT: note_on channel=4 note=63 velocity=0 time=0
EXTRACT: note_on channel=6 note=32 velocity=0 time=0
EXTRACT: note_on channel=8 note=58 velocity=0 time=0
EXTRACT: note_on channel=1 note=32 velocity=97 time=0.00458715
EXTRACT: note_on channel=9 note=61 velocity=44 time=0
EXTRACT: note_on channel=9 note=57 velocity=95 time=0
EXTRACT: note_on channel=9 note=36 velocity=98 time=0
EXTRACT: note_on channel=2 note=61 velocity=0 time=0.00458715
EXTRACT: note_on channel=2 note=55 velocity=0 time=0
EXTRACT: note_on channel=2 note=58 velocity=0 time=0
EXTRACT: note_on channel=2 note=63 velocity=0 time=0
EXTRACT: note_on channel=9 note=61 velocity=0 time=0.04128435
EXTRACT: note_on channel=9 note=57 velocity=0 time=0
EXTRACT: note_on channel=9 note=36 velocity=0 time=0
EXTRACT: note_on channel=0 note=32 velocity=0 time=0.22477035
EXTRACT: note_on channel=8 note=65 velocity=106 time=0
EXTRACT: note_on channel=1 note=32 velocity=0 time=0.00458715
EXTRACT: note_on channel=9 note=42 velocity=42 time=0
EXTRACT: note_on channel=9 note=42 velocity=0 time=0.045871499999999996
EXTRACT: note_on channel=0 note=32 velocity=99 time=0.08715584999999999
EXTRACT: note_on channel=1 note=32 velocity=92 time=0.00458715
EXTRACT: note_on channel=9 note=61 velocity=44 time=0
EXTRACT: note_on channel=9 note=36 velocity=98 time=0
EXTRACT: note_on channel=9 note=61 velocity=0 time=0.045871499999999996
EXTRACT: note_on channel=9 note=36 velocity=0 time=0
EXTRACT: note_on channel=8 note=65 velocity=0 time=0.0825687
EXTRACT: note_on channel=0 note=32 velocity=0 time=0.00458715
EXTRACT: note_on channel=8 note=65 velocity=111 time=0
EXTRACT: note_on channel=1 note=32 velocity=0 time=0.00458715
EXTRACT: note_on channel=9 note=38 velocity=127 time=0
EXTRACT: note_on channel=9 note=42 velocity=42 time=0
EXTRACT: note_on channel=9 note=38 velocity=0 time=0.045871499999999996
EXTRACT: note_on channel=9 note=42 velocity=0 time=0
EXTRACT: note_on channel=8 note=65 velocity=0 time=0.2201832
EXTRACT: note_on channel=8 note=63 velocity=98 time=0.00458715
EXTRACT: note_on channel=9 note=69 velocity=77 time=0.00458715
EXTRACT: note_on channel=9 note=42 velocity=42 time=0
EXTRACT: note_on channel=9 note=69 velocity=0 time=0.045871499999999996
EXTRACT: note_on channel=9 note=42 velocity=0 time=0
EXTRACT: note_on channel=9 note=69 velocity=75 time=0.09174299999999999
EXTRACT: note_on channel=9 note=69 velocity=0 time=0.045871499999999996
EXTRACT: note_on channel=8 note=63 velocity=0 time=0.0825687
EXTRACT: note_on channel=8 note=65 velocity=91 time=0.00458715
EXTRACT: note_on channel=9 note=69 velocity=75 time=0.00458715
EXTRACT: note_on channel=9 note=42 velocity=42 time=0
EXTRACT: note_on channel=9 note=69 velocity=0 time=0.045871499999999996
EXTRACT: note_on channel=9 note=42 velocity=0 time=0
EXTRACT: note_on channel=8 note=65 velocity=0 time=0.22477035
EXTRACT: note_on channel=9 note=42 velocity=42 time=0.00458715
EXTRACT: note_on channel=9 note=36 velocity=98 time=0
EXTRACT: note_on channel=9 note=42 velocity=0 time=0.045871499999999996
EXTRACT: note_on channel=9 note=36 velocity=0 time=0
EXTRACT: note_on channel=8 note=67 velocity=101 time=0.22477035
EXTRACT: note_on channel=9 note=38 velocity=127 time=0.00458715
EXTRACT: note_on channel=9 note=42 velocity=42 time=0
EXTRACT: note_on channel=9 note=38 velocity=0 time=0.045871499999999996
EXTRACT: note_on channel=9 note=42 velocity=0 time=0
EXTRACT: note_on channel=8 note=67 velocity=0 time=0.2201832
EXTRACT: note_on channel=8 note=65 velocity=97 time=0.00458715
EXTRACT: note_on channel=9 note=69 velocity=81 time=0.00458715
EXTRACT: note_on channel=9 note=61 velocity=44 time=0
EXTRACT: note_on channel=9 note=42 velocity=42 time=0
EXTRACT: note_on channel=9 note=69 velocity=0 time=0.045871499999999996
EXTRACT: note_on channel=9 note=61 velocity=0 time=0
EXTRACT: note_on channel=9 note=42 velocity=0 time=0
EXTRACT: note_on channel=9 note=61 velocity=44 time=0.09174299999999999
EXTRACT: note_on channel=9 note=61 velocity=0 time=0.045871499999999996
EXTRACT: note_on channel=0 note=31 velocity=96 time=0.08715584999999999
EXTRACT: note_on channel=1 note=31 velocity=110 time=0.00458715
EXTRACT: note_on channel=9 note=61 velocity=44 time=0
EXTRACT: note_on channel=9 note=42 velocity=42 time=0
EXTRACT: note_on channel=9 note=36 velocity=98 time=0
EXTRACT: note_on channel=9 note=61 velocity=0 time=0.045871499999999996
EXTRACT: note_on channel=9 note=42 velocity=0 time=0
EXTRACT: note_on channel=9 note=36 velocity=0 time=0
EXTRACT: note_on channel=9 note=61 velocity=44 time=0.09174299999999999
EXTRACT: note_on channel=9 note=61 velocity=0 time=0.045871499999999996
EXTRACT: note_on channel=9 note=39 velocity=58 time=0.0733944
EXTRACT: note_on channel=0 note=31 velocity=0 time=0.01376145
EXTRACT: note_on channel=9 note=64 velocity=50 time=0
EXTRACT: note_on channel=1 note=31 velocity=0 time=0.00458715
EXTRACT: note_on channel=9 note=61 velocity=44 time=0
EXTRACT: note_on channel=9 note=42 velocity=42 time=0
EXTRACT: note_on channel=9 note=39 velocity=0 time=0.0275229
EXTRACT: note_on channel=9 note=64 velocity=0 time=0.01376145
EXTRACT: note_on channel=9 note=61 velocity=0 time=0.00458715
EXTRACT: note_on channel=9 note=42 velocity=0 time=0
EXTRACT: note_on channel=0 note=31 velocity=89 time=0.08715584999999999
EXTRACT: note_on channel=9 note=63 velocity=50 time=0
EXTRACT: note_on channel=1 note=31 velocity=102 time=0.00458715
EXTRACT: note_on channel=9 note=36 velocity=98 time=0
EXTRACT: note_on channel=9 note=63 velocity=0 time=0.04128435
EXTRACT: note_on channel=9 note=36 velocity=0 time=0.00458715
EXTRACT: note_on channel=0 note=31 velocity=0 time=0.08715584999999999
EXTRACT: note_on channel=9 note=64 velocity=50 time=0
EXTRACT: note_on channel=1 note=31 velocity=0 time=0.00458715
EXTRACT: note_on channel=9 note=38 velocity=127 time=0
EXTRACT: note_on channel=9 note=42 velocity=42 time=0
EXTRACT: note_on channel=9 note=64 velocity=0 time=0.04128435
EXTRACT: note_on channel=9 note=38 velocity=0 time=0.00458715
EXTRACT: note_on channel=9 note=42 velocity=0 time=0
EXTRACT: note_on channel=9 note=39 velocity=51 time=0.0733944
EXTRACT: note_on channel=9 note=64 velocity=50 time=0.01376145
EXTRACT: note_on channel=9 note=39 velocity=0 time=0.03211005
EXTRACT: note_on channel=9 note=64 velocity=0 time=0.01376145
EXTRACT: note_on channel=9 note=63 velocity=50 time=0.09174299999999999
EXTRACT: note_on channel=9 note=69 velocity=75 time=0.00458715
EXTRACT: note_on channel=9 note=42 velocity=42 time=0
EXTRACT: note_on channel=9 note=63 velocity=0 time=0.04128435
EXTRACT: note_on channel=9 note=69 velocity=0 time=0.00458715
EXTRACT: note_on channel=9 note=42 velocity=0 time=0
EXTRACT: note_on channel=9 note=69 velocity=79 time=0.09174299999999999
EXTRACT: note_on channel=9 note=69 velocity=0 time=0.045871499999999996
EXTRACT: note_on channel=9 note=39 velocity=62 time=0.0733944
EXTRACT: note_on channel=8 note=65 velocity=0 time=0.01376145
EXTRACT: note_on channel=9 note=69 velocity=75 time=0.00458715
EXTRACT: note_on channel=9 note=42 velocity=42 time=0
EXTRACT: note_on channel=9 note=39 velocity=0 time=0.0275229
EXTRACT: note_on channel=9 note=69 velocity=0 time=0.0183486
EXTRACT: note_on channel=9 note=42 velocity=0 time=0
EXTRACT: note_on channel=9 note=64 velocity=50 time=0.08715584999999999
EXTRACT: note_on channel=9 note=64 velocity=0 time=0.045871499999999996
EXTRACT: note_on channel=9 note=48 velocity=50 time=0.09174299999999999
EXTRACT: note_on channel=9 note=42 velocity=42 time=0.00458715
EXTRACT: note_on channel=9 note=36 velocity=98 time=0
EXTRACT: note_on channel=9 note=48 velocity=0 time=0.04128435
EXTRACT: note_on channel=9 note=42 velocity=0 time=0.00458715
EXTRACT: note_on channel=9 note=36 velocity=0 time=0
EXTRACT: note_on channel=9 note=39 velocity=68 time=0.0733944
EXTRACT: note_on channel=9 note=64 velocity=50 time=0.01376145
EXTRACT: note_on channel=9 note=39 velocity=0 time=0.03211005
EXTRACT: note_on channel=9 note=64 velocity=0 time=0.01376145
EXTRACT: note_on channel=8 note=58 velocity=99 time=0.09174299999999999
EXTRACT: note_on channel=9 note=63 velocity=50 time=0
EXTRACT: note_on channel=9 note=38 velocity=127 time=0.00458715
EXTRACT: note_on channel=9 note=42 velocity=42 time=0
EXTRACT: note_on channel=9 note=63 velocity=0 time=0.04128435
EXTRACT: note_on channel=9 note=38 velocity=0 time=0.00458715
EXTRACT: note_on channel=9 note=42 velocity=0 time=0
EXTRACT: note_on channel=8 note=58 velocity=0 time=0.2201832
EXTRACT: note_on channel=8 note=58 velocity=101 time=0.00458715
EXTRACT: note_on channel=9 note=61 velocity=44 time=0.00458715
EXTRACT: note_on channel=9 note=36 velocity=92 time=0
EXTRACT: note_on channel=9 note=42 velocity=42 time=0
EXTRACT: note_on channel=9 note=61 velocity=0 time=0.045871499999999996
EXTRACT: note_on channel=9 note=36 velocity=0 time=0
EXTRACT: note_on channel=9 note=42 velocity=0 time=0
EXTRACT: note_on channel=9 note=61 velocity=44 time=0.09174299999999999
EXTRACT: note_on channel=9 note=36 velocity=92 time=0
EXTRACT: note_on channel=9 note=61 velocity=0 time=0.045871499999999996
EXTRACT: note_on channel=9 note=36 velocity=0 time=0
EXTRACT: note_on channel=8 note=58 velocity=0 time=0.0825687
EXTRACT: note_on channel=0 note=36 velocity=107 time=0.00458715
EXTRACT: note_on channel=8 note=65 velocity=91 time=0
EXTRACT: note_on channel=1 note=36 velocity=104 time=0.00458715
EXTRACT: note_on channel=9 note=61 velocity=44 time=0
EXTRACT: note_on channel=9 note=42 velocity=42 time=0
EXTRACT: note_on channel=9 note=36 velocity=98 time=0
EXTRACT: note_on channel=9 note=61 velocity=0 time=0.045871499999999996
EXTRACT: note_on channel=9 note=42 velocity=0 time=0
EXTRACT: note_on channel=9 note=36 velocity=0 time=0
EXTRACT: note_on channel=0 note=36 velocity=0 time=0.22477035
EXTRACT: note_on channel=8 note=65 velocity=0 time=0
EXTRACT: note_on channel=1 note=36 velocity=0 time=0.00458715
EXTRACT: note_on channel=9 note=42 velocity=42 time=0
EXTRACT: note_on channel=9 note=42 velocity=0 time=0.045871499999999996
EXTRACT: note_on channel=0 note=36 velocity=86 time=0.08715584999999999
EXTRACT: note_on channel=1 note=36 velocity=109 time=0.00458715
EXTRACT: note_on channel=9 note=61 velocity=44 time=0
EXTRACT: note_on channel=9 note=36 velocity=98 time=0
EXTRACT: note_on channel=9 note=61 velocity=0 time=0.045871499999999996
EXTRACT: note_on channel=9 note=36 velocity=0 time=0
EXTRACT: note_on channel=0 note=36 velocity=0 time=0.08715584999999999
EXTRACT: note_on channel=8 note=65 velocity=93 time=0
EXTRACT: note_on channel=1 note=36 velocity=0 time=0.00458715
EXTRACT: note_on channel=9 note=38 velocity=127 time=0
EXTRACT: note_on channel=9 note=42 velocity=42 time=0
EXTRACT: note_on channel=9 note=38 velocity=0 time=0.045871499999999996
EXTRACT: note_on channel=9 note=42 velocity=0 time=0
EXTRACT: note_on channel=8 note=65 velocity=0 time=0.2201832
EXTRACT: note_on channel=8 note=63 velocity=98 time=0.00458715
EXTRACT: note_on channel=9 note=69 velocity=82 time=0.00458715
EXTRACT: note_on channel=9 note=42 velocity=42 time=0
EXTRACT: note_on channel=9 note=69 velocity=0 time=0.045871499999999996
EXTRACT: note_on channel=9 note=42 velocity=0 time=0
EXTRACT: note_on channel=9 note=69 velocity=76 time=0.09174299999999999
EXTRACT: note_on channel=9 note=69 velocity=0 time=0.045871499999999996
EXTRACT: note_on channel=8 note=63 velocity=0 time=0.0825687
EXTRACT: note_on channel=8 note=65 velocity=88 time=0.00458715
EXTRACT: note_on channel=9 note=69 velocity=76 time=0.00458715
EXTRACT: note_on channel=9 note=42 velocity=42 time=0
EXTRACT: note_on channel=9 note=69 velocity=0 time=0.045871499999999996
EXTRACT: note_on channel=9 note=42 velocity=0 time=0
EXTRACT: note_on channel=8 note=65 velocity=0 time=0.2201832
EXTRACT: note_on channel=8 note=67 velocity=106 time=0.00458715
EXTRACT: note_on channel=9 note=42 velocity=42 time=0.00458715
EXTRACT: note_on channel=9 note=36 velocity=98 time=0
EXTRACT: note_on channel=9 note=42 velocity=0 time=0.045871499999999996
EXTRACT: note_on channel=9 note=36 velocity=0 time=0
EXTRACT: note_on channel=8 note=67 velocity=0 time=0.2201832
EXTRACT: note_on channel=8 note=70 velocity=92 time=0.00458715
EXTRACT: note_on channel=9 note=38 velocity=127 time=0.00458715
EXTRACT: note_on channel=9 note=42 velocity=42 time=0
EXTRACT: note_on channel=9 note=38 velocity=0 time=0.045871499999999996
EXTRACT: note_on channel=9 note=42 velocity=0 time=0
EXTRACT: note_on channel=8 note=70 velocity=0 time=0.2201832
EXTRACT: note_on channel=8 note=67 velocity=96 time=0.00458715
EXTRACT: note_on channel=9 note=69 velocity=78 time=0.00458715
EXTRACT: note_on channel=9 note=61 velocity=44 time=0
EXTRACT: note_on channel=9 note=42 velocity=42 time=0
EXTRACT: note_on channel=9 note=69 velocity=0 time=0.045871499999999996
EXTRACT: note_on channel=9 note=61 velocity=0 time=0
EXTRACT: note_on channel=9 note=42 velocity=0 time=0
EXTRACT: note_on channel=9 note=61 velocity=44 time=0.09174299999999999
EXTRACT: note_on channel=9 note=61 velocity=0 time=0.045871499999999996
EXTRACT: note_on channel=8 note=67 velocity=0 time=0.0825687
EXTRACT: note_on channel=0 note=34 velocity=87 time=0.00458715
EXTRACT: note_on channel=8 note=65 velocity=109 time=0
EXTRACT: note_on channel=1 note=34 velocity=95 time=0.00458715
EXTRACT: note_on channel=9 note=61 velocity=44 time=0
EXTRACT: note_on channel=9 note=42 velocity=42 time=0
EXTRACT: note_on channel=9 note=36 velocity=98 time=0
EXTRACT: note_on channel=9 note=61 velocity=0 time=0.045871499999999996
EXTRACT: note_on channel=9 note=42 velocity=0 time=0
EXTRACT: note_on channel=9 note=36 velocity=0 time=0
EXTRACT: note_on channel=9 note=61 velocity=44 time=0.09174299999999999
EXTRACT: note_on channel=9 note=61 velocity=0 time=0.045871499999999996
EXTRACT: note_on channel=0 note=34 velocity=0 time=0.08715584999999999
EXTRACT: note_on channel=9 note=64 velocity=50 time=0
EXTRACT: note_on channel=1 note=34 velocity=0 time=0.00458715
EXTRACT: note_on channel=9 note=61 velocity=44 time=0
EXTRACT: note_on channel=9 note=42 velocity=42 time=0
EXTRACT: note_on channel=9 note=64 velocity=0 time=0.04128435
EXTRACT: note_on channel=9 note=61 velocity=0 time=0.00458715
EXTRACT: note_on channel=9 note=42 velocity=0 time=0
EXTRACT: note_on channel=0 note=34 velocity=101 time=0.08715584999999999
EXTRACT: note_on channel=9 note=63 velocity=50 time=0
EXTRACT: note_on channel=1 note=34 velocity=100 time=0.00458715
EXTRACT: note_on channel=9 note=36 velocity=98 time=0
EXTRACT: note_on channel=9 note=63 velocity=0 time=0.04128435
EXTRACT: note_on channel=9 note=36 velocity=0 time=0.00458715
EXTRACT: note_on channel=0 note=34 velocity=0 time=0.08715584999999999
EXTRACT: note_on channel=9 note=64 velocity=50 time=0
EXTRACT: note_on channel=1 note=34 velocity=0 time=0.00458715
EXTRACT: note_on channel=9 note=38 velocity=127 time=0
EXTRACT: note_on channel=9 note=42 velocity=42 time=0
EXTRACT: note_on channel=9 note=64 velocity=0 time=0.04128435
EXTRACT: note_on channel=9 note=38 velocity=0 time=0.00458715
EXTRACT: note_on channel=9 note=42 velocity=0 time=0
EXTRACT: note_on channel=9 note=64 velocity=50 time=0.08715584999999999
EXTRACT: note_on channel=9 note=64 velocity=0 time=0.045871499999999996
EXTRACT: note_on channel=0 note=34 velocity=101 time=0.09174299999999999
EXTRACT: note_on channel=8 note=65 velocity=0 time=0
EXTRACT: note_on channel=9 note=63 velocity=50 time=0
EXTRACT: note_on channel=1 note=34 velocity=102 time=0.00458715
EXTRACT: note_on channel=9 note=69 velocity=78 time=0
EXTRACT: note_on channel=9 note=42 velocity=42 time=0
EXTRACT: note_on channel=9 note=63 velocity=0 time=0.04128435
EXTRACT: note_on channel=9 note=69 velocity=0 time=0.00458715
EXTRACT: note_on channel=9 note=42 velocity=0 time=0
EXTRACT: note_on channel=0 note=34 velocity=0 time=0.08715584999999999
EXTRACT: note_on channel=1 note=34 velocity=0 time=0.00458715
EXTRACT: note_on channel=9 note=36 velocity=92 time=0
EXTRACT: note_on channel=9 note=69 velocity=75 time=0
EXTRACT: note_on channel=9 note=36 velocity=0 time=0.045871499999999996
EXTRACT: note_on channel=9 note=69 velocity=0 time=0
EXTRACT: note_on channel=0 note=39 velocity=95 time=0.08715584999999999
EXTRACT: note_on channel=8 note=58 velocity=112 time=0
EXTRACT: note_on channel=1 note=39 velocity=103 time=0.00458715
EXTRACT: note_on channel=9 note=36 velocity=98 time=0
EXTRACT: note_on channel=9 note=69 velocity=78 time=0
EXTRACT: note_on channel=9 note=42 velocity=42 time=0
EXTRACT: note_on channel=9 note=36 velocity=0 time=0.045871499999999996
EXTRACT: note_on channel=9 note=69 velocity=0 time=0
EXTRACT: note_on channel=9 note=42 velocity=0 time=0
EXTRACT: note_on channel=9 note=64 velocity=50 time=0.08715584999999999
EXTRACT: note_on channel=9 note=64 velocity=0 time=0.045871499999999996
EXTRACT: note_on channel=8 note=58 velocity=0 time=0.08715584999999999
EXTRACT: note_on channel=0 note=39 velocity=0 time=0.00458715
EXTRACT: note_on channel=8 note=60 velocity=102 time=0
EXTRACT: note_on channel=9 note=48 velocity=50 time=0
EXTRACT: note_on channel=1 note=39 velocity=0 time=0.00458715
EXTRACT: note_on channel=9 note=36 velocity=92 time=0
EXTRACT: note_on channel=9 note=42 velocity=42 time=0
EXTRACT: note_on channel=9 note=48 velocity=0 time=0.04128435
EXTRACT: note_on channel=9 note=36 velocity=0 time=0.00458715
EXTRACT: note_on channel=9 note=42 velocity=0 time=0
EXTRACT: note_on channel=0 note=39 velocity=87 time=0.08715584999999999
EXTRACT: note_on channel=9 note=64 velocity=50 time=0
EXTRACT: note_on channel=1 note=39 velocity=109 time=0.00458715
EXTRACT: note_on channel=9 note=36 velocity=92 time=0
EXTRACT: note_on channel=9 note=64 velocity=0 time=0.04128435
EXTRACT: note_on channel=9 note=36 velocity=0 time=0.00458715
EXTRACT: note_on channel=8 note=60 velocity=0 time=0.0825687
EXTRACT: note_on channel=0 note=39 velocity=0 time=0.00458715
EXTRACT: note_on channel=8 note=63 velocity=102 time=0
EXTRACT: note_on channel=9 note=63 velocity=50 time=0
EXTRACT: note_on channel=1 note=39 velocity=0 time=0.00458715
EXTRACT: note_on channel=9 note=38 velocity=127 time=0
EXTRACT: note_on channel=9 note=42 velocity=42 time=0
EXTRACT: note_on channel=9 note=63 velocity=0 time=0.04128435
EXTRACT: note_on channel=9 note=38 velocity=0 time=0.00458715
EXTRACT: note_on channel=9 note=42 velocity=0 time=0
EXTRACT: note_on channel=8 note=63 velocity=0 time=0.2201832
EXTRACT: note_on channel=8 note=67 velocity=88 time=0.00458715
EXTRACT: note_on channel=9 note=61 velocity=44 time=0.00458715
EXTRACT: note_on channel=9 note=36 velocity=92 time=0
EXTRACT: note_on channel=9 note=42 velocity=42 time=0
EXTRACT: note_on channel=9 note=61 velocity=0 time=0.045871499999999996
EXTRACT: note_on channel=9 note=36 velocity=0 time=0
EXTRACT: note_on channel=9 note=42 velocity=0 time=0
EXTRACT: note_on channel=9 note=61 velocity=44 time=0.09174299999999999
EXTRACT: note_on channel=9 note=36 velocity=92 time=0
EXTRACT: note_on channel=9 note=61 velocity=0 time=0.045871499999999996
EXTRACT: note_on channel=9 note=36 velocity=0 time=0
EXTRACT: note_on channel=8 note=67 velocity=0 time=0.0825687
EXTRACT: note_on channel=0 note=32 velocity=107 time=0.00458715
EXTRACT: note_on channel=8 note=65 velocity=102 time=0
EXTRACT: note_on channel=1 note=32 velocity=94 time=0.00458715
EXTRACT: note_on channel=9 note=61 velocity=44 time=0
EXTRACT: note_on channel=9 note=42 velocity=42 time=0
EXTRACT: note_on channel=9 note=36 velocity=98 time=0
EXTRACT: note_on channel=9 note=61 velocity=0 time=0.045871499999999996
EXTRACT: note_on channel=9 note=42 velocity=0 time=0
EXTRACT: note_on channel=9 note=36 velocity=0 time=0
EXTRACT: note_on channel=0 note=32 velocity=0 time=0.22477035
EXTRACT: note_on channel=8 note=65 velocity=0 time=0
EXTRACT: note_on channel=1 note=32 velocity=0 time=0.00458715
EXTRACT: note_on channel=9 note=42 velocity=42 time=0
EXTRACT: note_on channel=9 note=42 velocity=0 time=0.045871499999999996
EXTRACT: note_on channel=0 note=32 velocity=106 time=0.08715584999999999
EXTRACT: note_on channel=1 note=32 velocity=110 time=0.00458715
EXTRACT: note_on channel=9 note=61 velocity=44 time=0
EXTRACT: note_on channel=9 note=36 velocity=98 time=0
EXTRACT: note_on channel=9 note=61 velocity=0 time=0.045871499999999996
EXTRACT: note_on channel=9 note=36 velocity=0 time=0
EXTRACT: note_on channel=0 note=32 velocity=0 time=0.08715584999999999
EXTRACT: note_on channel=8 note=63 velocity=116 time=0
EXTRACT: note_on channel=1 note=32 velocity=0 time=0.00458715
EXTRACT: note_on channel=9 note=38 velocity=127 time=0
EXTRACT: note_on channel=9 note=42 velocity=42 time=0
EXTRACT: note_on channel=9 note=38 velocity=0 time=0.045871499999999996
EXTRACT: note_on channel=9 note=42 velocity=0 time=0
EXTRACT: note_on channel=8 note=63 velocity=0 time=0.2201832
EXTRACT: note_on channel=8 note=65 velocity=98 time=0.00458715
EXTRACT: note_on channel=9 note=69 velocity=76 time=0.00458715
EXTRACT: note_on channel=9 note=42 velocity=42 time=0
EXTRACT: note_on channel=9 note=69 velocity=0 time=0.045871499999999996
EXTRACT: note_on channel=9 note=42 velocity=0 time=0
EXTRACT: note_on channel=9 note=69 velocity=78 time=0.09174299999999999
EXTRACT: note_on channel=9 note=69 velocity=0 time=0.045871499999999996
EXTRACT: note_on channel=9 note=69 velocity=81 time=0.09174299999999999
EXTRACT: note_on channel=9 note=42 velocity=42 time=0
EXTRACT: note_on channel=9 note=69 velocity=0 time=0.045871499999999996
EXTRACT: note_on channel=9 note=42 velocity=0 time=0
EXTRACT: note_on channel=9 note=42 velocity=42 time=0.2293575
EXTRACT: note_on channel=9 note=36 velocity=98 time=0
EXTRACT: note_on channel=9 note=42 velocity=0 time=0.045871499999999996
EXTRACT: note_on channel=9 note=36 velocity=0 time=0
EXTRACT: note_on channel=9 note=38 velocity=127 time=0.2293575
EXTRACT: note_on channel=9 note=42 velocity=42 time=0
EXTRACT: note_on channel=9 note=38 velocity=0 time=0.045871499999999996
EXTRACT: note_on channel=9 note=42 velocity=0 time=0
EXTRACT: note_on channel=8 note=65 velocity=0 time=0.2201832
EXTRACT: note_on channel=8 note=58 velocity=88 time=0.00458715
EXTRACT: note_on channel=9 note=69 velocity=79 time=0.00458715
EXTRACT: note_on channel=9 note=61 velocity=44 time=0
EXTRACT: note_on channel=9 note=42 velocity=42 time=0
EXTRACT: note_on channel=9 note=69 velocity=0 time=0.045871499999999996
EXTRACT: note_on channel=9 note=61 velocity=0 time=0
EXTRACT: note_on channel=9 note=42 velocity=0 time=0
EXTRACT: note_on channel=9 note=61 velocity=44 time=0.09174299999999999
EXTRACT: note_on channel=9 note=61 velocity=0 time=0.045871499999999996
EXTRACT: note_on channel=8 note=58 velocity=0 time=0.0825687
EXTRACT: note_on channel=0 note=31 velocity=87 time=0.00458715
EXTRACT: note_on channel=8 note=67 velocity=93 time=0
EXTRACT: note_on channel=1 note=31 velocity=105 time=0.00458715
EXTRACT: note_on channel=9 note=61 velocity=44 time=0
EXTRACT: note_on channel=9 note=42 velocity=42 time=0
EXTRACT: note_on channel=9 note=36 velocity=98 time=0
EXTRACT: note_on channel=9 note=61 velocity=0 time=0.045871499999999996
EXTRACT: note_on channel=9 note=42 velocity=0 time=0
EXTRACT: note_on channel=9 note=36 velocity=0 time=0
EXTRACT: note_on channel=9 note=61 velocity=44 time=0.09174299999999999
EXTRACT: note_on channel=9 note=61 velocity=0 time=0.045871499999999996
EXTRACT: note_on channel=8 note=67 velocity=0 time=0.0825687
EXTRACT: note_on channel=0 note=31 velocity=0 time=0.00458715
EXTRACT: note_on channel=8 note=67 velocity=95 time=0
EXTRACT: note_on channel=9 note=64 velocity=50 time=0
EXTRACT: note_on channel=1 note=31 velocity=0 time=0.00458715
EXTRACT: note_on channel=9 note=61 velocity=44 time=0
EXTRACT: note_on channel=9 note=42 velocity=42 time=0
EXTRACT: note_on channel=9 note=64 velocity=0 time=0.04128435
EXTRACT: note_on channel=9 note=61 velocity=0 time=0.00458715
EXTRACT: note_on channel=9 note=42 velocity=0 time=0
EXTRACT: note_on channel=0 note=31 velocity=96 time=0.08715584999999999
EXTRACT: note_on channel=9 note=63 velocity=50 time=0
EXTRACT: note_on channel=1 note=31 velocity=95 time=0.00458715
EXTRACT: note_on channel=9 note=36 velocity=98 time=0
EXTRACT: note_on channel=9 note=63 velocity=0 time=0.04128435
EXTRACT: note_on channel=9 note=36 velocity=0 time=0.00458715
EXTRACT: note_on channel=8 note=67 velocity=0 time=0.0825687
EXTRACT: note_on channel=0 note=31 velocity=0 time=0.00458715
EXTRACT: note_on channel=8 note=65 velocity=113 time=0
EXTRACT: note_on channel=9 note=64 velocity=50 time=0
EXTRACT: note_on channel=1 note=31 velocity=0 time=0.00458715
EXTRACT: note_on channel=9 note=38 velocity=127 time=0
EXTRACT: note_on channel=9 note=42 velocity=42 time=0
EXTRACT: note_on channel=9 note=64 velocity=0 time=0.04128435
EXTRACT: note_on channel=9 note=38 velocity=0 time=0.00458715
EXTRACT: note_on channel=9 note=42 velocity=0 time=0
EXTRACT: note_on channel=9 note=64 velocity=50 time=0.08715584999999999
EXTRACT: note_on channel=9 note=64 velocity=0 time=0.045871499999999996
EXTRACT: note_on channel=8 note=65 velocity=0 time=0.09174299999999999
EXTRACT: note_on channel=9 note=63 velocity=50 time=0
EXTRACT: note_on channel=9 note=69 velocity=76 time=0.00458715
EXTRACT: note_on channel=9 note=42 velocity=42 time=0
EXTRACT: note_on channel=9 note=63 velocity=0 time=0.04128435
EXTRACT: note_on channel=9 note=69 velocity=0 time=0.00458715
EXTRACT: note_on channel=9 note=42 velocity=0 time=0
EXTRACT: note_on channel=9 note=69 velocity=78 time=0.09174299999999999
EXTRACT: note_on channel=9 note=69 velocity=0 time=0.045871499999999996
EXTRACT: note_on channel=8 note=63 velocity=105 time=0.08715584999999999
EXTRACT: note_on channel=9 note=69 velocity=76 time=0.00458715
EXTRACT: note_on channel=9 note=42 velocity=42 time=0
EXTRACT: note_on channel=9 note=69 velocity=0 time=0.045871499999999996
EXTRACT: note_on channel=9 note=42 velocity=0 time=0
EXTRACT: note_on channel=9 note=64 velocity=50 time=0.08715584999999999
EXTRACT: note_on channel=9 note=64 velocity=0 time=0.045871499999999996
EXTRACT: note_on channel=8 note=63 velocity=0 time=0.08715584999999999
EXTRACT: note_on channel=0 note=34 velocity=98 time=0.00458715
EXTRACT: note_on channel=8 note=65 velocity=107 time=0
EXTRACT: note_on channel=9 note=48 velocity=50 time=0
EXTRACT: note_on channel=1 note=34 velocity=107 time=0.00458715
EXTRACT: note_on channel=9 note=42 velocity=42 time=0
EXTRACT: note_on channel=9 note=36 velocity=98 time=0
EXTRACT: note_on channel=9 note=48 velocity=0 time=0.04128435
EXTRACT: note_on channel=9 note=42 velocity=0 time=0.00458715
EXTRACT: note_on channel=9 note=36 velocity=0 time=0
EXTRACT: note_on channel=0 note=34 velocity=0 time=0.08715584999999999
EXTRACT: note_on channel=9 note=64 velocity=50 time=0
EXTRACT: note_on channel=1 note=34 velocity=0 time=0.00458715
EXTRACT: note_on channel=9 note=64 velocity=0 time=0.04128435
EXTRACT: note_on channel=8 note=65 velocity=0 time=0.08715584999999999
EXTRACT: note_on channel=8 note=67 velocity=111 time=0.00458715
EXTRACT: note_on channel=9 note=63 velocity=50 time=0
EXTRACT: note_on channel=9 note=38 velocity=127 time=0.00458715
EXTRACT: note_on channel=9 note=42 velocity=42 time=0
EXTRACT: note_on channel=9 note=63 velocity=0 time=0.04128435
EXTRACT: note_on channel=9 note=38 velocity=0 time=0.00458715
EXTRACT: note_on channel=9 note=42 velocity=0 time=0
EXTRACT: note_on channel=0 note=34 velocity=104 time=0.08715584999999999
EXTRACT: note_on channel=1 note=34 velocity=93 time=0.00458715
EXTRACT: note_on channel=8 note=67 velocity=0 time=0.1284402
EXTRACT: note_on channel=0 note=34 velocity=0 time=0.00458715
EXTRACT: note_on channel=8 note=65 velocity=106 time=0
EXTRACT: note_on channel=1 note=34 velocity=0 time=0.00458715
EXTRACT: note_on channel=9 note=61 velocity=44 time=0
EXTRACT: note_on channel=9 note=36 velocity=92 time=0
EXTRACT: note_on channel=9 note=42 velocity=42 time=0
EXTRACT: note_on channel=9 note=61 velocity=0 time=0.045871499999999996
EXTRACT: note_on channel=9 note=36 velocity=0 time=0
EXTRACT: note_on channel=9 note=42 velocity=0 time=0
EXTRACT: note_on channel=9 note=61 velocity=44 time=0.09174299999999999
EXTRACT: note_on channel=9 note=36 velocity=92 time=0
EXTRACT: note_on channel=9 note=61 velocity=0 time=0.045871499999999996
EXTRACT: note_on channel=9 note=36 velocity=0 time=0
EXTRACT: note_on channel=0 note=36 velocity=90 time=0.08715584999999999
EXTRACT: note_on channel=1 note=36 velocity=96 time=0.00458715
EXTRACT: note_on channel=9 note=61 velocity=44 time=0
EXTRACT: note_on channel=9 note=42 velocity=42 time=0
EXTRACT: note_on channel=9 note=36 velocity=98 time=0
EXTRACT: note_on channel=9 note=61 velocity=0 time=0.045871499999999996
EXTRACT: note_on channel=9 note=42 velocity=0 time=0
EXTRACT: note_on channel=9 note=36 velocity=0 time=0
EXTRACT: note_on channel=8 note=65 velocity=0 time=0.2201832
EXTRACT: note_on channel=0 note=36 velocity=0 time=0.00458715
EXTRACT: note_on channel=8 note=67 velocity=90 time=0
EXTRACT: note_on channel=1 note=36 velocity=0 time=0.00458715
EXTRACT: note_on channel=9 note=42 velocity=42 time=0
EXTRACT: note_on channel=9 note=42 velocity=0 time=0.045871499999999996
EXTRACT: note_on channel=0 note=36 velocity=99 time=0.08715584999999999
EXTRACT: note_on channel=1 note=36 velocity=102 time=0.00458715
EXTRACT: note_on channel=9 note=61 velocity=44 time=0
EXTRACT: note_on channel=9 note=36 velocity=98 time=0
EXTRACT: note_on channel=9 note=61 velocity=0 time=0.045871499999999996
EXTRACT: note_on channel=9 note=36 velocity=0 time=0
EXTRACT: note_on channel=0 note=36 velocity=0 time=0.08715584999999999
EXTRACT: note_on channel=1 note=36 velocity=0 time=0.00458715
EXTRACT: note_on channel=9 note=38 velocity=127 time=0
EXTRACT: note_on channel=9 note=42 velocity=42 time=0
EXTRACT: note_on channel=9 note=38 velocity=0 time=0.045871499999999996
EXTRACT: note_on channel=9 note=42 velocity=0 time=0
EXTRACT: note_on channel=9 note=69 velocity=79 time=0.2293575
EXTRACT: note_on channel=9 note=42 velocity=42 time=0
EXTRACT: note_on channel=9 note=69 velocity=0 time=0.045871499999999996
EXTRACT: note_on channel=9 note=42 velocity=0 time=0
EXTRACT: note_on channel=9 note=69 velocity=75 time=0.09174299999999999
EXTRACT: note_on channel=9 note=69 velocity=0 time=0.045871499999999996
EXTRACT: note_on channel=9 note=69 velocity=78 time=0.09174299999999999
EXTRACT: note_on channel=9 note=42 velocity=42 time=0
EXTRACT: note_on channel=9 note=69 velocity=0 time=0.045871499999999996
EXTRACT: note_on channel=9 note=42 velocity=0 time=0
EXTRACT: note_on channel=9 note=42 velocity=42 time=0.2293575
EXTRACT: note_on channel=9 note=36 velocity=98 time=0
EXTRACT: note_on channel=9 note=42 velocity=0 time=0.045871499999999996
EXTRACT: note_on channel=9 note=36 velocity=0 time=0
EXTRACT: note_on channel=8 note=67 velocity=0 time=0.22477035
EXTRACT: note_on channel=9 note=38 velocity=127 time=0.00458715
EXTRACT: note_on channel=9 note=42 velocity=42 time=0
EXTRACT: note_on channel=9 note=38 velocity=0 time=0.045871499999999996
EXTRACT: note_on channel=9 note=42 velocity=0 time=0
EXTRACT: note_on channel=8 note=63 velocity=98 time=0.22477035
EXTRACT: note_on channel=9 note=69 velocity=76 time=0.00458715
EXTRACT: note_on channel=9 note=61 velocity=44 time=0
EXTRACT: note_on channel=9 note=42 velocity=42 time=0
EXTRACT: note_on channel=9 note=69 velocity=0 time=0.045871499999999996
EXTRACT: note_on channel=9 note=61 velocity=0 time=0
EXTRACT: note_on channel=9 note=42 velocity=0 time=0
EXTRACT: note_on channel=9 note=61 velocity=44 time=0.09174299999999999
EXTRACT: note_on channel=9 note=61 velocity=0 time=0.045871499999999996
EXTRACT: note_on channel=9 note=39 velocity=72 time=0.0733944
EXTRACT: note_on channel=8 note=63 velocity=0 time=0.0091743
EXTRACT: note_on channel=0 note=34 velocity=82 time=0.00458715
EXTRACT: control_change channel=7 control=64 value=127 time=0
EXTRACT: note_on channel=8 note=72 velocity=87 time=0
EXTRACT: note_on channel=1 note=34 velocity=112 time=0.00458715
EXTRACT: note_on channel=9 note=61 velocity=44 time=0
EXTRACT: note_on channel=9 note=42 velocity=42 time=0
EXTRACT: note_on channel=9 note=36 velocity=98 time=0
EXTRACT: note_on channel=9 note=39 velocity=0 time=0.0275229
EXTRACT: note_on channel=9 note=61 velocity=0 time=0.0183486
EXTRACT: note_on channel=9 note=42 velocity=0 time=0
EXTRACT: note_on channel=9 note=36 velocity=0 time=0
EXTRACT: note_on channel=9 note=39 velocity=61 time=0.0733944
EXTRACT: note_on channel=9 note=61 velocity=44 time=0.0183486
EXTRACT: note_on channel=9 note=39 velocity=0 time=0.0275229
EXTRACT: note_on channel=9 note=61 velocity=0 time=0.0183486
EXTRACT: note_on channel=0 note=34 velocity=0 time=0.08715584999999999
EXTRACT: note_on channel=9 note=64 velocity=50 time=0
EXTRACT: note_on channel=1 note=34 velocity=0 time=0.00458715
EXTRACT: note_on channel=9 note=61 velocity=44 time=0
EXTRACT: note_on channel=9 note=42 velocity=42 time=0
EXTRACT: note_on channel=9 note=64 velocity=0 time=0.04128435
EXTRACT: note_on channel=9 note=61 velocity=0 time=0.00458715
EXTRACT: note_on channel=9 note=42 velocity=0 time=0
EXTRACT: note_on channel=0 note=34 velocity=106 time=0.08715584999999999
EXTRACT: note_on channel=9 note=63 velocity=50 time=0
EXTRACT: note_on channel=1 note=34 velocity=111 time=0.00458715
EXTRACT: note_on channel=9 note=36 velocity=98 time=0
EXTRACT: note_on channel=9 note=63 velocity=0 time=0.04128435
EXTRACT: note_on channel=9 note=36 velocity=0 time=0.00458715
EXTRACT: note_on channel=9 note=39 velocity=63 time=0.0733944
EXTRACT: note_on channel=8 note=72 velocity=0 time=0.0091743
EXTRACT: note_on channel=0 note=34 velocity=0 time=0.00458715
EXTRACT: note_on channel=8 note=70 velocity=102 time=0
EXTRACT: note_on channel=9 note=64 velocity=50 time=0
EXTRACT: note_on channel=1 note=34 velocity=0 time=0.00458715
EXTRACT: note_on channel=9 note=38 velocity=127 time=0
EXTRACT: note_on channel=9 note=42 velocity=42 time=0
EXTRACT: note_on channel=9 note=39 velocity=0 time=0.0275229
EXTRACT: note_on channel=9 note=64 velocity=0 time=0.01376145
EXTRACT: note_on channel=9 note=38 velocity=0 time=0.00458715
EXTRACT: note_on channel=9 note=42 velocity=0 time=0
EXTRACT: note_on channel=9 note=39 velocity=51 time=0.0733944
EXTRACT: note_on channel=9 note=64 velocity=50 time=0.01376145
EXTRACT: note_on channel=9 note=39 velocity=0 time=0.03211005
EXTRACT: note_on channel=9 note=64 velocity=0 time=0.01376145
EXTRACT: note_on channel=0 note=34 velocity=92 time=0.09174299999999999
EXTRACT: note_on channel=9 note=63 velocity=50 time=0
EXTRACT: note_on channel=1 note=34 velocity=109 time=0.00458715
EXTRACT: note_on channel=9 note=69 velocity=74 time=0
EXTRACT: note_on channel=9 note=42 velocity=42 time=0
EXTRACT: note_on channel=9 note=63 velocity=0 time=0.04128435
EXTRACT: note_on channel=9 note=69 velocity=0 time=0.00458715
EXTRACT: note_on channel=9 note=42 velocity=0 time=0
EXTRACT: note_on channel=0 note=34 velocity=0 time=0.08715584999999999
EXTRACT: note_on channel=1 note=34 velocity=0 time=0.00458715
EXTRACT: note_on channel=9 note=69 velocity=76 time=0
EXTRACT: note_on channel=9 note=69 velocity=0 time=0.045871499999999996
EXTRACT: note_on channel=9 note=39 velocity=71 time=0.0733944
EXTRACT: note_on channel=8 note=70 velocity=0 time=0.0091743
EXTRACT: note_on channel=0 note=39 velocity=102 time=0.00458715
EXTRACT: note_on channel=6 note=32 velocity=104 time=0
EXTRACT: note_on channel=8 note=68 velocity=92 time=0
EXTRACT: note_on channel=1 note=39 velocity=106 time=0.00458715
EXTRACT: note_on channel=9 note=29 velocity=45 time=0
EXTRACT: note_on channel=9 note=36 velocity=92 time=0
EXTRACT: note_on channel=9 note=39 velocity=0 time=0.0275229
EXTRACT: note_on channel=9 note=29 velocity=0 time=0.0183486
EXTRACT: note_on channel=9 note=36 velocity=0 time=0
EXTRACT: note_on channel=9 note=39 velocity=59 time=0.0733944
EXTRACT: note_on channel=6 note=32 velocity=0 time=0.0126146625
EXTRACT: note_on channel=6 note=32 velocity=79 time=0.0011467875
EXTRACT: note_on channel=9 note=64 velocity=50 time=0
EXTRACT: note_on channel=9 note=29 velocity=31 time=0.00458715
EXTRACT: note_on channel=9 note=41 velocity=70 time=0
EXTRACT: note_on channel=9 note=39 velocity=0 time=0.0275229
EXTRACT: note_on channel=9 note=64 velocity=0 time=0.01376145
EXTRACT: note_on channel=9 note=29 velocity=0 time=0.00458715
EXTRACT: note_on channel=9 note=41 velocity=0 time=0
EXTRACT: note_on channel=7 note=31 velocity=61 time=0.0183486
EXTRACT: note_on channel=6 note=32 velocity=0 time=0.0676604625
EXTRACT: note_on channel=0 note=39 velocity=0 time=0.0011467875
EXTRACT: note_on channel=6 note=32 velocity=86 time=0
EXTRACT: note_on channel=9 note=48 velocity=50 time=0
EXTRACT: note_on channel=1 note=39 velocity=0 time=0.00458715
EXTRACT: note_on channel=7 note=33 velocity=58 time=0
EXTRACT: note_on channel=9 note=29 velocity=45 time=0
EXTRACT: note_on channel=9 note=36 velocity=92 time=0
EXTRACT: note_on channel=7 note=31 velocity=0 time=0.022935749999999998
EXTRACT: note_on channel=9 note=48 velocity=0 time=0.0183486
EXTRACT: note_on channel=9 note=29 velocity=0 time=0.00458715
EXTRACT: note_on channel=9 note=36 velocity=0 time=0
EXTRACT: note_on channel=7 note=35 velocity=74 time=0.03211005
EXTRACT: note_on channel=7 note=33 velocity=0 time=0.00458715
EXTRACT: note_on channel=6 note=32 velocity=0 time=0.0493118625
EXTRACT: note_on channel=0 note=39 velocity=85 time=0.0011467875
EXTRACT: note_on channel=6 note=32 velocity=98 time=0
EXTRACT: note_on channel=7 note=36 velocity=79 time=0
EXTRACT: note_on channel=9 note=64 velocity=50 time=0
EXTRACT: note_on channel=1 note=39 velocity=93 time=0.00458715
EXTRACT: note_on channel=9 note=29 velocity=31 time=0
EXTRACT: note_on channel=9 note=41 velocity=70 time=0
EXTRACT: note_on channel=7 note=35 velocity=0 time=0.00458715
EXTRACT: note_on channel=7 note=36 velocity=0 time=0.0366972
EXTRACT: note_on channel=9 note=64 velocity=0 time=0
EXTRACT: note_on channel=9 note=29 velocity=0 time=0.00458715
EXTRACT: note_on channel=9 note=41 velocity=0 time=0
EXTRACT: note_on channel=7 note=38 velocity=79 time=0.01376145
EXTRACT: note_on channel=7 note=38 velocity=0 time=0.04128435
EXTRACT: note_on channel=7 note=40 velocity=79 time=0.01376145
EXTRACT: note_on channel=9 note=39 velocity=63 time=0.00458715
EXTRACT: note_on channel=8 note=68 velocity=0 time=0.0091743
EXTRACT: note_on channel=6 note=32 velocity=0 time=0.0034403625
EXTRACT: note_on channel=0 note=39 velocity=0 time=0.0011467875
EXTRACT: note_on channel=6 note=32 velocity=98 time=0
EXTRACT: note_on channel=8 note=67 velocity=92 time=0
EXTRACT: note_on channel=9 note=63 velocity=50 time=0
EXTRACT: note_on channel=1 note=39 velocity=0 time=0.00458715
EXTRACT: note_on channel=9 note=29 velocity=45 time=0
EXTRACT: note_on channel=9 note=38 velocity=127 time=0
EXTRACT: note_on channel=9 note=36 velocity=92 time=0
EXTRACT: note_on channel=7 note=40 velocity=0 time=0.0275229
EXTRACT: note_on channel=9 note=39 velocity=0 time=0
EXTRACT: note_on channel=7 note=41 velocity=79 time=0.0091743
EXTRACT: note_on channel=9 note=63 velocity=0 time=0.00458715
EXTRACT: note_on channel=9 note=29 velocity=0 time=0.00458715
EXTRACT: note_on channel=9 note=38 velocity=0 time=0
EXTRACT: note_on channel=9 note=36 velocity=0 time=0
EXTRACT: note_on channel=7 note=43 velocity=79 time=0.05045865
EXTRACT: note_on channel=7 note=41 velocity=0 time=0.00458715
EXTRACT: note_on channel=9 note=39 velocity=57 time=0.0183486
EXTRACT: note_on channel=6 note=32 velocity=0 time=0.0126146625
EXTRACT: note_on channel=6 note=32 velocity=76 time=0.0011467875
EXTRACT: note_on channel=9 note=29 velocity=31 time=0.00458715
EXTRACT: note_on channel=9 note=41 velocity=70 time=0
EXTRACT: note_on channel=7 note=45 velocity=74 time=0.0183486
EXTRACT: note_on channel=7 note=43 velocity=0 time=0.0091743
EXTRACT: note_on channel=9 note=39 velocity=0 time=0
EXTRACT: note_on channel=9 note=29 velocity=0 time=0.0183486
EXTRACT: note_on channel=9 note=41 velocity=0 time=0
EXTRACT: note_on channel=7 note=47 velocity=79 time=0.0275229
EXTRACT: note_on channel=7 note=45 velocity=0 time=0.01376145
EXTRACT: note_on channel=9 note=39 velocity=57 time=0.03211005
EXTRACT: note_on channel=6 note=32 velocity=0 time=0.0126146625
EXTRACT: note_on channel=6 note=32 velocity=106 time=0.0011467875
EXTRACT: note_on channel=7 note=48 velocity=58 time=0
EXTRACT: note_on channel=7 note=47 velocity=0 time=0.00458715
EXTRACT: note_on channel=9 note=61 velocity=44 time=0
EXTRACT: note_on channel=9 note=29 velocity=45 time=0
EXTRACT: note_on channel=9 note=36 velocity=92 time=0
EXTRACT: note_on channel=9 note=39 velocity=0 time=0.0275229
EXTRACT: note_on channel=9 note=61 velocity=0 time=0.0183486
EXTRACT: note_on channel=9 note=29 velocity=0 time=0
EXTRACT: note_on channel=9 note=36 velocity=0 time=0
EXTRACT: note_on channel=7 note=50 velocity=58 time=0.0091743
EXTRACT: note_on channel=7 note=48 velocity=0 time=0.00458715
EXTRACT: note_on channel=7 note=52 velocity=58 time=0.0550458
EXTRACT: note_on channel=9 note=39 velocity=42 time=0.00458715
EXTRACT: note_on channel=7 note=50 velocity=0 time=0.00458715
EXTRACT: note_on channel=6 note=32 velocity=0 time=0.0080275125
EXTRACT: note_on channel=6 note=32 velocity=70 time=0.0011467875
EXTRACT: note_on channel=9 note=61 velocity=44 time=0.00458715
EXTRACT: note_on channel=9 note=29 velocity=31 time=0
EXTRACT: note_on channel=9 note=41 velocity=70 time=0
EXTRACT: note_on channel=9 note=39 velocity=0 time=0.0275229
EXTRACT: note_on channel=7 note=53 velocity=62 time=0.0091743
EXTRACT: note_on channel=7 note=52 velocity=0 time=0.0091743
EXTRACT: note_on channel=9 note=61 velocity=0 time=0
EXTRACT: note_on channel=9 note=29 velocity=0 time=0
EXTRACT: note_on channel=9 note=41 velocity=0 time=0
EXTRACT: note_on channel=7 note=55 velocity=62 time=0.0550458
EXTRACT: note_on channel=7 note=53 velocity=0 time=0.00458715
EXTRACT: note_on channel=3 note=44 velocity=33 time=0.0183486
EXTRACT: note_on channel=3 note=55 velocity=51 time=0
EXTRACT: note_on channel=3 note=63 velocity=81 time=0
EXTRACT: note_on channel=3 note=60 velocity=66 time=0
EXTRACT: note_on channel=8 note=67 velocity=0 time=0.00458715
EXTRACT: note_on channel=0 note=32 velocity=92 time=0.00458715
EXTRACT: note_on channel=4 note=55 velocity=105 time=0
EXTRACT: note_on channel=4 note=63 velocity=92 time=0
EXTRACT: note_on channel=6 note=32 velocity=0 time=0
EXTRACT: control_change channel=7 control=64 value=0 time=0
EXTRACT: note_on channel=8 note=65 velocity=112 time=0
EXTRACT: note_on channel=1 note=32 velocity=106 time=0.00458715
EXTRACT: note_on channel=9 note=61 velocity=44 time=0
EXTRACT: note_on channel=9 note=57 velocity=100 time=0
EXTRACT: note_on channel=9 note=36 velocity=98 time=0
EXTRACT: note_on channel=2 note=44 velocity=36 time=0.00458715
EXTRACT: note_on channel=2 note=55 velocity=60 time=0
EXTRACT: note_on channel=2 note=63 velocity=63 time=0
EXTRACT: note_on channel=2 note=60 velocity=85 time=0
EXTRACT: note_on channel=7 note=55 velocity=0 time=0.022935749999999998
EXTRACT: note_on channel=9 note=61 velocity=0 time=0.0183486
EXTRACT: note_on channel=9 note=57 velocity=0 time=0
EXTRACT: note_on channel=9 note=36 velocity=0 time=0
EXTRACT: note_on channel=8 note=65 velocity=0 time=0.2201832
EXTRACT: note_on channel=0 note=32 velocity=0 time=0.00458715
EXTRACT: note_on channel=8 note=63 velocity=117 time=0
EXTRACT: note_on channel=1 note=32 velocity=0 time=0.00458715
EXTRACT: note_on channel=9 note=42 velocity=42 time=0
EXTRACT: note_on channel=9 note=42 velocity=0 time=0.045871499999999996
EXTRACT: note_on channel=0 note=32 velocity=101 time=0.08715584999999999
EXTRACT: note_on channel=1 note=32 velocity=102 time=0.00458715
EXTRACT: note_on channel=9 note=61 velocity=44 time=0
EXTRACT: note_on channel=9 note=36 velocity=98 time=0
EXTRACT: note_on channel=9 note=61 velocity=0 time=0.045871499999999996
EXTRACT: note_on channel=9 note=36 velocity=0 time=0
EXTRACT: note_on channel=8 note=63 velocity=0 time=0.0825687
EXTRACT: note_on channel=0 note=32 velocity=0 time=0.00458715
EXTRACT: note_on channel=8 note=65 velocity=100 time=0
EXTRACT: note_on channel=1 note=32 velocity=0 time=0.00458715
EXTRACT: note_on channel=9 note=38 velocity=127 time=0
EXTRACT: note_on channel=9 note=42 velocity=42 time=0
EXTRACT: note_on channel=9 note=38 velocity=0 time=0.045871499999999996
EXTRACT: note_on channel=9 note=42 velocity=0 time=0
EXTRACT: note_on channel=8 note=65 velocity=0 time=0.2201832
EXTRACT: note_on channel=8 note=63 velocity=87 time=0.00458715
EXTRACT: note_on channel=9 note=69 velocity=82 time=0.00458715
EXTRACT: note_on channel=9 note=42 velocity=42 time=0
EXTRACT: note_on channel=9 note=69 velocity=0 time=0.045871499999999996
EXTRACT: note_on channel=9 note=42 velocity=0 time=0
EXTRACT: note_on channel=9 note=69 velocity=76 time=0.09174299999999999
EXTRACT: note_on channel=9 note=69 velocity=0 time=0.045871499999999996
EXTRACT: note_on channel=8 note=63 velocity=0 time=0.0825687
EXTRACT: note_on channel=8 note=65 velocity=105 time=0.00458715
EXTRACT: note_on channel=9 note=69 velocity=74 time=0.00458715
EXTRACT: note_on channel=9 note=42 velocity=42 time=0
EXTRACT: note_on channel=9 note=69 velocity=0 time=0.045871499999999996
EXTRACT: note_on channel=9 note=42 velocity=0 time=0
EXTRACT: note_on channel=8 note=65 velocity=0 time=0.2201832
EXTRACT: note_on channel=8 note=63 velocity=92 time=0.00458715
EXTRACT: note_on channel=9 note=42 velocity=42 time=0.00458715
EXTRACT: note_on channel=9 note=36 velocity=98 time=0
EXTRACT: note_on channel=9 note=42 velocity=0 time=0.045871499999999996
EXTRACT: note_on channel=9 note=36 velocity=0 time=0
EXTRACT: note_on channel=8 note=63 velocity=0 time=0.2201832
EXTRACT: note_on channel=8 note=65 velocity=116 time=0.00458715
EXTRACT: note_on channel=9 note=38 velocity=127 time=0.00458715
EXTRACT: note_on channel=9 note=42 velocity=42 time=0
EXTRACT: note_on channel=9 note=38 velocity=0 time=0.045871499999999996
EXTRACT: note_on channel=9 note=42 velocity=0 time=0
EXTRACT: note_on channel=8 note=65 velocity=0 time=0.2201832
EXTRACT: note_on channel=8 note=67 velocity=93 time=0.00458715
EXTRACT: note_on channel=9 note=69 velocity=78 time=0.00458715
EXTRACT: note_on channel=9 note=61 velocity=44 time=0
EXTRACT: note_on channel=9 note=42 velocity=42 time=0
EXTRACT: note_on channel=9 note=69 velocity=0 time=0.045871499999999996
EXTRACT: note_on channel=9 note=61 velocity=0 time=0
EXTRACT: note_on channel=9 note=42 velocity=0 time=0
EXTRACT: note_on channel=9 note=61 velocity=44 time=0.09174299999999999
EXTRACT: note_on channel=9 note=61 velocity=0 time=0.045871499999999996
EXTRACT: note_on channel=3 note=44 velocity=0 time=0.07798155
EXTRACT: note_on channel=3 note=55 velocity=0 time=0
EXTRACT: note_on channel=3 note=63 velocity=0 time=0
EXTRACT: note_on channel=3 note=60 velocity=0 time=0
EXTRACT: note_on channel=3 note=55 velocity=57 time=0
EXTRACT: note_on channel=3 note=63 velocity=80 time=0
EXTRACT: note_on channel=3 note=59 velocity=51 time=0
EXTRACT: note_on channel=8 note=67 velocity=0 time=0.00458715
EXTRACT: note_on channel=0 note=31 velocity=89 time=0.00458715
EXTRACT: note_on channel=8 note=67 velocity=92 time=0
EXTRACT: note_on channel=1 note=31 velocity=109 time=0.00458715
EXTRACT: note_on channel=9 note=61 velocity=44 time=0
EXTRACT: note_on channel=9 note=42 velocity=42 time=0
EXTRACT: note_on channel=9 note=36 velocity=98 time=0
EXTRACT: note_on channel=2 note=44 velocity=0 time=0.00458715
EXTRACT: note_on channel=2 note=55 velocity=0 time=0
EXTRACT: note_on channel=2 note=63 velocity=0 time=0
EXTRACT: note_on channel=2 note=60 velocity=0 time=0
EXTRACT: note_on channel=2 note=55 velocity=62 time=0
EXTRACT: note_on channel=2 note=63 velocity=64 time=0
EXTRACT: note_on channel=2 note=59 velocity=83 time=0
EXTRACT: note_on channel=9 note=61 velocity=0 time=0.04128435
EXTRACT: note_on channel=9 note=42 velocity=0 time=0
EXTRACT: note_on channel=9 note=36 velocity=0 time=0
EXTRACT: note_on channel=9 note=61 velocity=44 time=0.09174299999999999
EXTRACT: note_on channel=9 note=61 velocity=0 time=0.045871499999999996
EXTRACT: note_on channel=9 note=39 velocity=68 time=0.0733944
EXTRACT: note_on channel=8 note=67 velocity=0 time=0.0091743
EXTRACT: note_on channel=0 note=31 velocity=0 time=0.00458715
EXTRACT: note_on channel=8 note=65 velocity=106 time=0
EXTRACT: note_on channel=1 note=31 velocity=0 time=0.00458715
EXTRACT: note_on channel=9 note=61 velocity=44 time=0
EXTRACT: note_on channel=9 note=42 velocity=42 time=0
EXTRACT: note_on channel=9 note=39 velocity=0 time=0.0275229
EXTRACT: note_on channel=9 note=61 velocity=0 time=0.0183486
EXTRACT: note_on channel=9 note=42 velocity=0 time=0
EXTRACT: note_on channel=0 note=31 velocity=106 time=0.08715584999999999
EXTRACT: note_on channel=1 note=31 velocity=109 time=0.00458715
EXTRACT: note_on channel=9 note=36 velocity=98 time=0
EXTRACT: note_on channel=9 note=36 velocity=0 time=0.045871499999999996
EXTRACT: note_on channel=0 note=31 velocity=0 time=0.08715584999999999
EXTRACT: note_on channel=1 note=31 velocity=0 time=0.00458715
EXTRACT: note_on channel=9 note=38 velocity=127 time=0
EXTRACT: note_on channel=9 note=42 velocity=42 time=0
EXTRACT: note_on channel=9 note=38 velocity=0 time=0.045871499999999996
EXTRACT: note_on channel=9 note=42 velocity=0 time=0
EXTRACT: note_on channel=9 note=39 velocity=66 time=0.0733944
EXTRACT: note_on channel=9 note=39 velocity=0 time=0.045871499999999996
EXTRACT: note_on channel=9 note=69 velocity=76 time=0.1100916
EXTRACT: note_on channel=9 note=42 velocity=42 time=0
EXTRACT: note_on channel=9 note=69 velocity=0 time=0.045871499999999996
EXTRACT: note_on channel=9 note=42 velocity=0 time=0
EXTRACT: note_on channel=9 note=69 velocity=78 time=0.09174299999999999
EXTRACT: note_on channel=9 note=69 velocity=0 time=0.045871499999999996
EXTRACT: note_on channel=9 note=39 velocity=72 time=0.0733944
EXTRACT: note_on channel=8 note=65 velocity=0 time=0.01376145
EXTRACT: note_on channel=9 note=69 velocity=76 time=0.00458715
EXTRACT: note_on channel=9 note=42 velocity=42 time=0
EXTRACT: note_on channel=9 note=39 velocity=0 time=0.0275229
EXTRACT: note_on channel=9 note=69 velocity=0 time=0.0183486
EXTRACT: note_on channel=9 note=42 velocity=0 time=0
EXTRACT: note_on channel=8 note=63 velocity=112 time=0.22477035
EXTRACT: note_on channel=9 note=42 velocity=42 time=0.00458715
EXTRACT: note_on channel=9 note=36 velocity=98 time=0
EXTRACT: note_on channel=9 note=42 velocity=0 time=0.045871499999999996
EXTRACT: note_on channel=9 note=36 velocity=0 time=0
EXTRACT: note_on channel=9 note=39 velocity=64 time=0.0733944
EXTRACT: note_on channel=9 note=39 velocity=0 time=0.045871499999999996
EXTRACT: note_on channel=8 note=63 velocity=0 time=0.1009173
EXTRACT: note_on channel=8 note=63 velocity=109 time=0.00458715
EXTRACT: note_on channel=9 note=38 velocity=127 time=0.00458715
EXTRACT: note_on channel=9 note=42 velocity=42 time=0
EXTRACT: note_on channel=9 note=38 velocity=0 time=0.045871499999999996
EXTRACT: note_on channel=9 note=42 velocity=0 time=0
EXTRACT: note_on channel=8 note=63 velocity=0 time=0.2201832
EXTRACT: note_on channel=8 note=63 velocity=100 time=0.00458715
EXTRACT: note_on channel=9 note=61 velocity=44 time=0.00458715
EXTRACT: note_on channel=9 note=36 velocity=92 time=0
EXTRACT: note_on channel=9 note=42 velocity=42 time=0
EXTRACT: note_on channel=9 note=61 velocity=0 time=0.045871499999999996
EXTRACT: note_on channel=9 note=36 velocity=0 time=0
EXTRACT: note_on channel=9 note=42 velocity=0 time=0
EXTRACT: note_on channel=9 note=61 velocity=44 time=0.09174299999999999
EXTRACT: note_on channel=9 note=36 velocity=92 time=0
EXTRACT: note_on channel=9 note=61 velocity=0 time=0.045871499999999996
EXTRACT: note_on channel=9 note=36 velocity=0 time=0
EXTRACT: note_on channel=3 note=55 velocity=0 time=0.07798155
EXTRACT: note_on channel=3 note=63 velocity=0 time=0
EXTRACT: note_on channel=3 note=59 velocity=0 time=0
EXTRACT: note_on channel=3 note=55 velocity=50 time=0
EXTRACT: note_on channel=3 note=60 velocity=51 time=0
EXTRACT: note_on channel=3 note=63 velocity=54 time=0
EXTRACT: note_on channel=8 note=63 velocity=0 time=0.00458715
EXTRACT: note_on channel=0 note=36 velocity=85 time=0.00458715
EXTRACT: note_on channel=8 note=65 velocity=89 time=0
EXTRACT: note_on channel=1 note=36 velocity=102 time=0.00458715
EXTRACT: note_on channel=9 note=61 velocity=44 time=0
EXTRACT: note_on channel=9 note=42 velocity=42 time=0
EXTRACT: note_on channel=9 note=36 velocity=98 time=0
EXTRACT: note_on channel=2 note=55 velocity=0 time=0.00458715
EXTRACT: note_on channel=2 note=63 velocity=0 time=0
EXTRACT: note_on channel=2 note=59 velocity=0 time=0
EXTRACT: note_on channel=2 note=55 velocity=62 time=0
EXTRACT: note_on channel=2 note=60 velocity=60 time=0
EXTRACT: note_on channel=2 note=63 velocity=72 time=0
EXTRACT: note_on channel=9 note=61 velocity=0 time=0.04128435
EXTRACT: note_on channel=9 note=42 velocity=0 time=0
EXTRACT: note_on channel=9 note=36 velocity=0 time=0
EXTRACT: note_on channel=0 note=36 velocity=0 time=0.22477035
EXTRACT: note_on channel=8 note=65 velocity=0 time=0
EXTRACT: note_on channel=1 note=36 velocity=0 time=0.00458715
EXTRACT: note_on channel=9 note=42 velocity=42 time=0
EXTRACT: note_on channel=9 note=42 velocity=0 time=0.045871499999999996
EXTRACT: note_on channel=0 note=36 velocity=100 time=0.08715584999999999
EXTRACT: note_on channel=1 note=36 velocity=106 time=0.00458715
EXTRACT: note_on channel=9 note=61 velocity=44 time=0
EXTRACT: note_on channel=9 note=36 velocity=98 time=0
EXTRACT: note_on channel=9 note=61 velocity=0 time=0.045871499999999996
EXTRACT: note_on channel=9 note=36 velocity=0 time=0
EXTRACT: note_on channel=0 note=36 velocity=0 time=0.08715584999999999
EXTRACT: note_on channel=8 note=65 velocity=98 time=0
EXTRACT: note_on channel=1 note=36 velocity=0 time=0.00458715
EXTRACT: note_on channel=9 note=38 velocity=127 time=0
EXTRACT: note_on channel=9 note=42 velocity=42 time=0
EXTRACT: note_on channel=9 note=38 velocity=0 time=0.045871499999999996
EXTRACT: note_on channel=9 note=42 velocity=0 time=0
EXTRACT: note_on channel=8 note=65 velocity=0 time=0.2201832
EXTRACT: note_on channel=8 note=63 velocity=103 time=0.00458715
EXTRACT: note_on channel=9 note=69 velocity=80 time=0.00458715
EXTRACT: note_on channel=9 note=42 velocity=42 time=0
EXTRACT: note_on channel=9 note=69 velocity=0 time=0.045871499999999996
EXTRACT: note_on channel=9 note=42 velocity=0 time=0
EXTRACT: note_on channel=9 note=69 velocity=75 time=0.09174299999999999
EXTRACT: note_on channel=9 note=69 velocity=0 time=0.045871499999999996
EXTRACT: note_on channel=8 note=63 velocity=0 time=0.0825687
EXTRACT: note_on channel=8 note=65 velocity=92 time=0.00458715
EXTRACT: note_on channel=9 note=69 velocity=78 time=0.00458715
EXTRACT: note_on channel=9 note=42 velocity=42 time=0
EXTRACT: note_on channel=9 note=69 velocity=0 time=0.045871499999999996
EXTRACT: note_on channel=9 note=42 velocity=0 time=0
EXTRACT: note_on channel=8 note=65 velocity=0 time=0.2201832
EXTRACT: note_on channel=8 note=67 velocity=97 time=0.00458715
EXTRACT: note_on channel=9 note=42 velocity=42 time=0.00458715
EXTRACT: note_on channel=9 note=36 velocity=98 time=0
EXTRACT: note_on channel=9 note=42 velocity=0 time=0.045871499999999996
EXTRACT: note_on channel=9 note=36 velocity=0 time=0
EXTRACT: note_on channel=8 note=67 velocity=0 time=0.2201832
EXTRACT: note_on channel=8 note=70 velocity=112 time=0.00458715
EXTRACT: note_on channel=9 note=38 velocity=127 time=0.00458715
EXTRACT: note_on channel=9 note=42 velocity=42 time=0
EXTRACT: note_on channel=9 note=38 velocity=0 time=0.045871499999999996
EXTRACT: note_on channel=9 note=42 velocity=0 time=0
EXTRACT: note_on channel=8 note=70 velocity=0 time=0.2201832
EXTRACT: note_on channel=8 note=67 velocity=108 time=0.00458715
EXTRACT: note_on channel=9 note=69 velocity=79 time=0.00458715
EXTRACT: note_on channel=9 note=61 velocity=44 time=0
EXTRACT: note_on channel=9 note=42 velocity=42 time=0
EXTRACT: note_on channel=9 note=69 velocity=0 time=0.045871499999999996
EXTRACT: note_on channel=9 note=61 velocity=0 time=0
EXTRACT: note_on channel=9 note=42 velocity=0 time=0
EXTRACT: note_on channel=9 note=61 velocity=44 time=0.09174299999999999
EXTRACT: note_on channel=9 note=61 velocity=0 time=0.045871499999999996
EXTRACT: note_on channel=9 note=39 velocity=68 time=0.0733944
EXTRACT: note_on channel=3 note=55 velocity=0 time=0.00458715
EXTRACT: note_on channel=3 note=60 velocity=0 time=0
EXTRACT: note_on channel=3 note=63 velocity=0 time=0
EXTRACT: note_on channel=3 note=65 velocity=58 time=0
EXTRACT: note_on channel=3 note=56 velocity=79 time=0
EXTRACT: note_on channel=3 note=58 velocity=67 time=0
EXTRACT: note_on channel=3 note=61 velocity=67 time=0
EXTRACT: note_on channel=8 note=67 velocity=0 time=0.00458715
EXTRACT: note_on channel=0 note=34 velocity=83 time=0.00458715
EXTRACT: note_on channel=4 note=55 velocity=0 time=0
EXTRACT: note_on channel=4 note=63 velocity=0 time=0
EXTRACT: note_on channel=4 note=58 velocity=90 time=0
EXTRACT: note_on channel=4 note=65 velocity=103 time=0
EXTRACT: note_on channel=8 note=65 velocity=115 time=0
EXTRACT: note_on channel=1 note=34 velocity=100 time=0.00458715
EXTRACT: note_on channel=9 note=61 velocity=44 time=0
EXTRACT: note_on channel=9 note=42 velocity=42 time=0
EXTRACT: note_on channel=9 note=36 velocity=98 time=0
EXTRACT: note_on channel=2 note=55 velocity=0 time=0.00458715
EXTRACT: note_on channel=2 note=60 velocity=0 time=0
EXTRACT: note_on channel=2 note=63 velocity=0 time=0
EXTRACT: note_on channel=2 note=65 velocity=67 time=0
EXTRACT: note_on channel=2 note=56 velocity=85 time=0
EXTRACT: note_on channel=2 note=58 velocity=89 time=0
EXTRACT: note_on channel=2 note=61 velocity=87 time=0
EXTRACT: note_on channel=9 note=39 velocity=0 time=0.022935749999999998
EXTRACT: note_on channel=9 note=61 velocity=0 time=0.0183486
EXTRACT: note_on channel=9 note=42 velocity=0 time=0
EXTRACT: note_on channel=9 note=36 velocity=0 time=0
EXTRACT: note_on channel=9 note=39 velocity=52 time=0.0733944
EXTRACT: note_on channel=9 note=61 velocity=44 time=0.0183486
EXTRACT: note_on channel=9 note=39 velocity=0 time=0.0275229
EXTRACT: note_on channel=9 note=61 velocity=0 time=0.0183486
EXTRACT: note_on channel=0 note=34 velocity=0 time=0.08715584999999999
EXTRACT: note_on channel=1 note=34 velocity=0 time=0.00458715
EXTRACT: note_on channel=9 note=61 velocity=44 time=0
EXTRACT: note_on channel=9 note=42 velocity=42 time=0
EXTRACT: note_on channel=9 note=61 velocity=0 time=0.045871499999999996
EXTRACT: note_on channel=9 note=42 velocity=0 time=0
EXTRACT: note_on channel=0 note=34 velocity=106 time=0.08715584999999999
EXTRACT: note_on channel=1 note=34 velocity=110 time=0.00458715
EXTRACT: note_on channel=9 note=36 velocity=98 time=0
EXTRACT: note_on channel=9 note=36 velocity=0 time=0.045871499999999996
EXTRACT: note_on channel=9 note=39 velocity=51 time=0.0733944
EXTRACT: note_on channel=0 note=34 velocity=0 time=0.01376145
EXTRACT: note_on channel=1 note=34 velocity=0 time=0.00458715
EXTRACT: note_on channel=9 note=38 velocity=127 time=0
EXTRACT: note_on channel=9 note=42 velocity=42 time=0
EXTRACT: note_on channel=9 note=39 velocity=0 time=0.0275229
EXTRACT: note_on channel=9 note=38 velocity=0 time=0.0183486
EXTRACT: note_on channel=9 note=42 velocity=0 time=0
EXTRACT: note_on channel=9 note=39 velocity=59 time=0.0733944
EXTRACT: note_on channel=9 note=39 velocity=0 time=0.045871499999999996
EXTRACT: note_on channel=8 note=65 velocity=0 time=0.1009173
EXTRACT: note_on channel=0 note=34 velocity=91 time=0.00458715
EXTRACT: note_on channel=8 note=58 velocity=88 time=0
EXTRACT: note_on channel=1 note=34 velocity=109 time=0.00458715
EXTRACT: note_on channel=9 note=69 velocity=75 time=0
EXTRACT: note_on channel=9 note=42 velocity=42 time=0
EXTRACT: note_on channel=9 note=69 velocity=0 time=0.045871499999999996
EXTRACT: note_on channel=9 note=42 velocity=0 time=0
EXTRACT: note_on channel=0 note=34 velocity=0 time=0.08715584999999999
EXTRACT: note_on channel=1 note=34 velocity=0 time=0.00458715
EXTRACT: note_on channel=9 note=69 velocity=81 time=0
EXTRACT: note_on channel=9 note=69 velocity=0 time=0.045871499999999996
EXTRACT: note_on channel=9 note=39 velocity=58 time=0.0733944
EXTRACT: note_on channel=3 note=65 velocity=0 time=0.00458715
EXTRACT: note_on channel=3 note=56 velocity=0 time=0
EXTRACT: note_on channel=3 note=58 velocity=0 time=0
EXTRACT: note_on channel=3 note=61 velocity=0 time=0
EXTRACT: note_on channel=3 note=61 velocity=63 time=0
EXTRACT: note_on channel=3 note=55 velocity=50 time=0
EXTRACT: note_on channel=3 note=58 velocity=63 time=0
EXTRACT: note_on channel=3 note=63 velocity=55 time=0
EXTRACT: note_on channel=8 note=58 velocity=0 time=0.00458715
EXTRACT: note_on channel=0 note=39 velocity=97 time=0.00458715
EXTRACT: note_on channel=4 note=58 velocity=0 time=0
EXTRACT: note_on channel=4 note=65 velocity=0 time=0
EXTRACT: note_on channel=4 note=55 velocity=104 time=0
EXTRACT: note_on channel=4 note=63 velocity=81 time=0
EXTRACT: note_on channel=8 note=60 velocity=113 time=0
EXTRACT: note_on channel=1 note=39 velocity=104 time=0.00458715
EXTRACT: note_on channel=9 note=69 velocity=78 time=0
EXTRACT: note_on channel=9 note=42 velocity=42 time=0
EXTRACT: note_on channel=2 note=65 velocity=0 time=0.00458715
EXTRACT: note_on channel=2 note=56 velocity=0 time=0
EXTRACT: note_on channel=2 note=58 velocity=0 time=0
EXTRACT: note_on channel=2 note=61 velocity=0 time=0
EXTRACT: note_on channel=2 note=61 velocity=62 time=0
EXTRACT: note_on channel=2 note=55 velocity=78 time=0
EXTRACT: note_on channel=2 note=58 velocity=72 time=0
EXTRACT: note_on channel=2 note=63 velocity=91 time=0
EXTRACT: note_on channel=9 note=39 velocity=0 time=0.022935749999999998
EXTRACT: note_on channel=9 note=69 velocity=0 time=0.0183486
EXTRACT: note_on channel=9 note=42 velocity=0 time=0
EXTRACT: note_on channel=9 note=39 velocity=74 time=0.0733944
EXTRACT: note_on channel=9 note=39 velocity=0 time=0.045871499999999996
EXTRACT: note_on channel=8 note=60 velocity=0 time=0.1009173
EXTRACT: note_on channel=0 note=39 velocity=0 time=0.00458715
EXTRACT: note_on channel=8 note=63 velocity=111 time=0
EXTRACT: note_on channel=1 note=39 velocity=0 time=0.00458715
EXTRACT: note_on channel=9 note=42 velocity=42 time=0
EXTRACT: note_on channel=9 note=36 velocity=98 time=0
EXTRACT: note_on channel=9 note=42 velocity=0 time=0.045871499999999996
EXTRACT: note_on channel=9 note=36 velocity=0 time=0
EXTRACT: note_on channel=0 note=39 velocity=102 time=0.08715584999999999
EXTRACT: note_on channel=1 note=39 velocity=113 time=0.00458715
EXTRACT: note_on channel=9 note=39 velocity=61 time=0.1192659
EXTRACT: note_on channel=8 note=63 velocity=0 time=0.0091743
EXTRACT: note_on channel=0 note=39 velocity=0 time=0.00458715
EXTRACT: note_on channel=8 note=63 velocity=99 time=0
EXTRACT: note_on channel=1 note=39 velocity=0 time=0.00458715
EXTRACT: note_on channel=9 note=38 velocity=127 time=0
EXTRACT: note_on channel=9 note=42 velocity=42 time=0
EXTRACT: note_on channel=9 note=39 velocity=0 time=0.0275229
EXTRACT: note_on channel=9 note=38 velocity=0 time=0.0183486
EXTRACT: note_on channel=9 note=42 velocity=0 time=0
EXTRACT: note_on channel=9 note=39 velocity=37 time=0.0733944
EXTRACT: note_on channel=9 note=39 velocity=0 time=0.045871499999999996
EXTRACT: note_on channel=9 note=39 velocity=53 time=0.09174299999999999
EXTRACT: note_on channel=8 note=63 velocity=0 time=0.0091743
EXTRACT: note_on channel=8 note=63 velocity=106 time=0.00458715
EXTRACT: note_on channel=9 note=61 velocity=44 time=0.00458715
EXTRACT: note_on channel=9 note=36 velocity=92 time=0
EXTRACT: note_on channel=9 note=42 velocity=42 time=0
EXTRACT: note_on channel=9 note=39 velocity=0 time=0.0275229
EXTRACT: note_on channel=9 note=61 velocity=0 time=0.0183486
EXTRACT: note_on channel=9 note=36 velocity=0 time=0
EXTRACT: note_on channel=9 note=42 velocity=0 time=0
EXTRACT: note_on channel=9 note=39 velocity=32 time=0.0733944
EXTRACT: note_on channel=9 note=61 velocity=44 time=0.0183486
EXTRACT: note_on channel=9 note=36 velocity=92 time=0
EXTRACT: note_on channel=9 note=39 velocity=0 time=0.0275229
EXTRACT: note_on channel=9 note=61 velocity=0 time=0.0183486
EXTRACT: note_on channel=9 note=36 velocity=0 time=0
EXTRACT: note_on channel=3 note=61 velocity=0 time=0.07798155
EXTRACT: note_on channel=3 note=55 velocity=0 time=0
EXTRACT: note_on channel=3 note=58 velocity=0 time=0
EXTRACT: note_on channel=3 note=63 velocity=0 time=0
EXTRACT: note_on channel=3 note=44 velocity=40 time=0
EXTRACT: note_on channel=3 note=55 velocity=63 time=0
EXTRACT: note_on channel=3 note=63 velocity=54 time=0
EXTRACT: note_on channel=3 note=60 velocity=70 time=0
EXTRACT: note_on channel=8 note=63 velocity=0 time=0.00458715
EXTRACT: note_on channel=0 note=32 velocity=84 time=0.00458715
EXTRACT: note_on channel=4 note=55 velocity=0 time=0
EXTRACT: note_on channel=4 note=63 velocity=0 time=0
EXTRACT: note_on channel=4 note=55 velocity=96 time=0
EXTRACT: note_on channel=4 note=63 velocity=100 time=0
EXTRACT: note_on channel=8 note=65 velocity=97 time=0
EXTRACT: note_on channel=1 note=32 velocity=107 time=0.00458715
EXTRACT: note_on channel=9 note=61 velocity=44 time=0
EXTRACT: note_on channel=9 note=42 velocity=42 time=0
EXTRACT: note_on channel=9 note=36 velocity=98 time=0
EXTRACT: note_on channel=2 note=61 velocity=0 time=0.00458715
EXTRACT: note_on channel=2 note=55 velocity=0 time=0
EXTRACT: note_on channel=2 note=58 velocity=0 time=0
EXTRACT: note_on channel=2 note=63 velocity=0 time=0
EXTRACT: note_on channel=2 note=44 velocity=61 time=0
EXTRACT: note_on channel=2 note=55 velocity=70 time=0
EXTRACT: note_on channel=2 note=63 velocity=63 time=0
EXTRACT: note_on channel=2 note=60 velocity=79 time=0
EXTRACT: note_on channel=9 note=61 velocity=0 time=0.04128435
EXTRACT: note_on channel=9 note=42 velocity=0 time=0
EXTRACT: note_on channel=9 note=36 velocity=0 time=0
EXTRACT: note_on channel=0 note=32 velocity=0 time=0.22477035
EXTRACT: note_on channel=8 note=65 velocity=0 time=0
EXTRACT: note_on channel=1 note=32 velocity=0 time=0.00458715
EXTRACT: note_on channel=9 note=42 velocity=42 time=0
EXTRACT: note_on channel=9 note=42 velocity=0 time=0.045871499999999996
EXTRACT: note_on channel=0 note=32 velocity=106 time=0.08715584999999999
EXTRACT: note_on channel=1 note=32 velocity=104 time=0.00458715
EXTRACT: note_on channel=9 note=61 velocity=44 time=0
EXTRACT: note_on channel=9 note=36 velocity=98 time=0
EXTRACT: note_on channel=9 note=61 velocity=0 time=0.045871499999999996
EXTRACT: note_on channel=9 note=36 velocity=0 time=0
EXTRACT: note_on channel=0 note=32 velocity=0 time=0.08715584999999999
EXTRACT: note_on channel=8 note=63 velocity=107 time=0
EXTRACT: note_on channel=1 note=32 velocity=0 time=0.00458715
EXTRACT: note_on channel=9 note=38 velocity=127 time=0
EXTRACT: note_on channel=9 note=42 velocity=42 time=0
EXTRACT: note_on channel=9 note=38 velocity=0 time=0.045871499999999996
EXTRACT: note_on channel=9 note=42 velocity=0 time=0
EXTRACT: note_on channel=8 note=63 velocity=0 time=0.2201832
EXTRACT: note_on channel=8 note=65 velocity=93 time=0.00458715
EXTRACT: note_on channel=9 note=69 velocity=78 time=0.00458715
EXTRACT: note_on channel=9 note=42 velocity=42 time=0
EXTRACT: note_on channel=9 note=69 velocity=0 time=0.045871499999999996
EXTRACT: note_on channel=9 note=42 velocity=0 time=0
EXTRACT: note_on channel=9 note=69 velocity=80 time=0.09174299999999999
EXTRACT: note_on channel=9 note=69 velocity=0 time=0.045871499999999996
EXTRACT: note_on channel=9 note=69 velocity=76 time=0.09174299999999999
EXTRACT: note_on channel=9 note=42 velocity=42 time=0
EXTRACT: note_on channel=9 note=69 velocity=0 time=0.045871499999999996
EXTRACT: note_on channel=9 note=42 velocity=0 time=0
EXTRACT: note_on channel=0 note=29 velocity=85 time=0.22477035
EXTRACT: note_on channel=1 note=29 velocity=111 time=0.00458715
EXTRACT: note_on channel=9 note=42 velocity=42 time=0
EXTRACT: note_on channel=9 note=36 velocity=98 time=0
EXTRACT: note_on channel=9 note=42 velocity=0 time=0.045871499999999996
EXTRACT: note_on channel=9 note=36 velocity=0 time=0
EXTRACT: note_on channel=0 note=29 velocity=0 time=0.08715584999999999
EXTRACT: note_on channel=1 note=29 velocity=0 time=0.00458715
EXTRACT: note_on channel=8 note=65 velocity=0 time=0.1284402
EXTRACT: note_on channel=8 note=63 velocity=88 time=0.00458715
EXTRACT: note_on channel=9 note=38 velocity=127 time=0.00458715
EXTRACT: note_on channel=9 note=42 velocity=42 time=0
EXTRACT: note_on channel=9 note=38 velocity=0 time=0.045871499999999996
EXTRACT: note_on channel=9 note=42 velocity=0 time=0
EXTRACT: note_on channel=0 note=30 velocity=103 time=0.08715584999999999
EXTRACT: note_on channel=1 note=30 velocity=100 time=0.00458715
EXTRACT: note_on channel=8 note=63 velocity=0 time=0.1284402
EXTRACT: note_on channel=0 note=30 velocity=0 time=0.00458715
EXTRACT: note_on channel=8 note=65 velocity=105 time=0
EXTRACT: note_on channel=1 note=30 velocity=0 time=0.00458715
EXTRACT: note_on channel=9 note=69 velocity=75 time=0
EXTRACT: note_on channel=9 note=61 velocity=44 time=0
EXTRACT: note_on channel=9 note=42 velocity=42 time=0
EXTRACT: note_on channel=9 note=69 velocity=0 time=0.045871499999999996
EXTRACT: note_on channel=9 note=61 velocity=0 time=0
EXTRACT: note_on channel=9 note=42 velocity=0 time=0
EXTRACT: note_on channel=9 note=61 velocity=44 time=0.09174299999999999
EXTRACT: note_on channel=9 note=61 velocity=0 time=0.045871499999999996
EXTRACT: note_on channel=3 note=44 velocity=0 time=0.07798155
EXTRACT: note_on channel=3 note=55 velocity=0 time=0
EXTRACT: note_on channel=3 note=63 velocity=0 time=0
EXTRACT: note_on channel=3 note=60 velocity=0 time=0
EXTRACT: note_on channel=3 note=55 velocity=81 time=0
EXTRACT: note_on channel=3 note=63 velocity=77 time=0
EXTRACT: note_on channel=3 note=59 velocity=52 time=0
EXTRACT: note_on channel=8 note=65 velocity=0 time=0.00458715
EXTRACT: note_on channel=0 note=31 velocity=94 time=0.00458715
EXTRACT: note_on channel=8 note=68 velocity=111 time=0
EXTRACT: note_on channel=1 note=31 velocity=111 time=0.00458715
EXTRACT: note_on channel=9 note=61 velocity=44 time=0
EXTRACT: note_on channel=9 note=42 velocity=42 time=0
EXTRACT: note_on channel=9 note=36 velocity=98 time=0
EXTRACT: note_on channel=2 note=44 velocity=0 time=0.00458715
EXTRACT: note_on channel=2 note=55 velocity=0 time=0
EXTRACT: note_on channel=2 note=63 velocity=0 time=0
EXTRACT: note_on channel=2 note=60 velocity=0 time=0
EXTRACT: note_on channel=2 note=55 velocity=71 time=0
EXTRACT: note_on channel=2 note=63 velocity=78 time=0
EXTRACT: note_on channel=2 note=59 velocity=74 time=0
EXTRACT: note_on channel=9 note=61 velocity=0 time=0.04128435
EXTRACT: note_on channel=9 note=42 velocity=0 time=0
EXTRACT: note_on channel=9 note=36 velocity=0 time=0
EXTRACT: note_on channel=9 note=61 velocity=44 time=0.09174299999999999
EXTRACT: note_on channel=9 note=61 velocity=0 time=0.045871499999999996
EXTRACT: note_on channel=0 note=31 velocity=0 time=0.08715584999999999
EXTRACT: note_on channel=1 note=31 velocity=0 time=0.00458715
EXTRACT: note_on channel=9 note=61 velocity=44 time=0
EXTRACT: note_on channel=9 note=42 velocity=42 time=0
EXTRACT: note_on channel=9 note=61 velocity=0 time=0.045871499999999996
EXTRACT: note_on channel=9 note=42 velocity=0 time=0
EXTRACT: note_on channel=0 note=31 velocity=92 time=0.08715584999999999
EXTRACT: note_on channel=1 note=31 velocity=104 time=0.00458715
EXTRACT: note_on channel=9 note=36 velocity=98 time=0
EXTRACT: note_on channel=9 note=36 velocity=0 time=0.045871499999999996
EXTRACT: note_on channel=8 note=68 velocity=0 time=0.0825687
EXTRACT: note_on channel=0 note=31 velocity=0 time=0.00458715
EXTRACT: note_on channel=8 note=67 velocity=116 time=0
EXTRACT: note_on channel=1 note=31 velocity=0 time=0.00458715
EXTRACT: note_on channel=9 note=38 velocity=127 time=0
EXTRACT: note_on channel=9 note=42 velocity=42 time=0
EXTRACT: note_on channel=9 note=38 velocity=0 time=0.045871499999999996
EXTRACT: note_on channel=9 note=42 velocity=0 time=0
EXTRACT: note_on channel=9 note=69 velocity=82 time=0.2293575
EXTRACT: note_on channel=9 note=42 velocity=42 time=0
EXTRACT: note_on channel=9 note=69 velocity=0 time=0.045871499999999996
EXTRACT: note_on channel=9 note=42 velocity=0 time=0
EXTRACT: note_on channel=9 note=69 velocity=77 time=0.09174299999999999
EXTRACT: note_on channel=9 note=69 velocity=0 time=0.045871499999999996
EXTRACT: note_on channel=8 note=67 velocity=0 time=0.0825687
EXTRACT: note_on channel=8 note=63 velocity=104 time=0.00458715
EXTRACT: note_on channel=9 note=69 velocity=80 time=0.00458715
EXTRACT: note_on channel=9 note=42 velocity=42 time=0
EXTRACT: note_on channel=9 note=69 velocity=0 time=0.045871499999999996
EXTRACT: note_on channel=9 note=42 velocity=0 time=0
EXTRACT: note_on channel=8 note=63 velocity=0 time=0.2201832
EXTRACT: note_on channel=8 note=65 velocity=90 time=0.00458715
EXTRACT: note_on channel=9 note=42 velocity=42 time=0.00458715
EXTRACT: note_on channel=9 note=36 velocity=98 time=0
EXTRACT: note_on channel=9 note=42 velocity=0 time=0.045871499999999996
EXTRACT: note_on channel=9 note=36 velocity=0 time=0
EXTRACT: note_on channel=8 note=65 velocity=0 time=0.2201832
EXTRACT: note_on channel=8 note=67 velocity=102 time=0.00458715
EXTRACT: note_on channel=9 note=38 velocity=127 time=0.00458715
EXTRACT: note_on channel=9 note=42 velocity=42 time=0
EXTRACT: note_on channel=9 note=38 velocity=0 time=0.045871499999999996
EXTRACT: note_on channel=9 note=42 velocity=0 time=0
EXTRACT: note_on channel=8 note=67 velocity=0 time=0.2201832
EXTRACT: note_on channel=8 note=70 velocity=114 time=0.00458715
EXTRACT: note_on channel=9 note=61 velocity=44 time=0.00458715
EXTRACT: note_on channel=9 note=36 velocity=92 time=0
EXTRACT: note_on channel=9 note=42 velocity=42 time=0
EXTRACT: note_on channel=9 note=61 velocity=0 time=0.045871499999999996
EXTRACT: note_on channel=9 note=36 velocity=0 time=0
EXTRACT: note_on channel=9 note=42 velocity=0 time=0
EXTRACT: note_on channel=9 note=61 velocity=44 time=0.09174299999999999
EXTRACT: note_on channel=9 note=36 velocity=92 time=0
EXTRACT: note_on channel=9 note=61 velocity=0 time=0.045871499999999996
EXTRACT: note_on channel=9 note=36 velocity=0 time=0
EXTRACT: note_on channel=3 note=55 velocity=0 time=0.07798155
EXTRACT: note_on channel=3 note=63 velocity=0 time=0
EXTRACT: note_on channel=3 note=59 velocity=0 time=0
EXTRACT: note_on channel=3 note=55 velocity=67 time=0
EXTRACT: note_on channel=3 note=60 velocity=50 time=0
EXTRACT: note_on channel=3 note=63 velocity=68 time=0
EXTRACT: note_on channel=0 note=36 velocity=84 time=0.0091743
EXTRACT: note_on channel=1 note=36 velocity=95 time=0.00458715
EXTRACT: note_on channel=9 note=61 velocity=44 time=0
EXTRACT: note_on channel=9 note=42 velocity=42 time=0
EXTRACT: note_on channel=9 note=36 velocity=98 time=0
EXTRACT: note_on channel=2 note=55 velocity=0 time=0.00458715
EXTRACT: note_on channel=2 note=63 velocity=0 time=0
EXTRACT: note_on channel=2 note=59 velocity=0 time=0
EXTRACT: note_on channel=2 note=55 velocity=82 time=0
EXTRACT: note_on channel=2 note=60 velocity=79 time=0
EXTRACT: note_on channel=2 note=63 velocity=74 time=0
EXTRACT: note_on channel=9 note=61 velocity=0 time=0.04128435
EXTRACT: note_on channel=9 note=42 velocity=0 time=0
EXTRACT: note_on channel=9 note=36 velocity=0 time=0
EXTRACT: note_on channel=8 note=70 velocity=0 time=0.2201832
EXTRACT: note_on channel=0 note=36 velocity=0 time=0.00458715
EXTRACT: note_on channel=8 note=65 velocity=90 time=0
EXTRACT: note_on channel=1 note=36 velocity=0 time=0.00458715
EXTRACT: note_on channel=9 note=42 velocity=42 time=0
EXTRACT: note_on channel=9 note=42 velocity=0 time=0.045871499999999996
EXTRACT: note_on channel=0 note=36 velocity=92 time=0.08715584999999999
EXTRACT: note_on channel=1 note=36 velocity=106 time=0.00458715
EXTRACT: note_on channel=9 note=61 velocity=44 time=0
EXTRACT: note_on channel=9 note=36 velocity=98 time=0
EXTRACT: note_on channel=9 note=61 velocity=0 time=0.045871499999999996
EXTRACT: note_on channel=9 note=36 velocity=0 time=0
EXTRACT: note_on channel=8 note=65 velocity=0 time=0.0825687
EXTRACT: note_on channel=0 note=36 velocity=0 time=0.00458715
EXTRACT: note_on channel=8 note=67 velocity=100 time=0
EXTRACT: note_on channel=1 note=36 velocity=0 time=0.00458715
EXTRACT: note_on channel=9 note=38 velocity=127 time=0
EXTRACT: note_on channel=9 note=42 velocity=42 time=0
EXTRACT: note_on channel=9 note=38 velocity=0 time=0.045871499999999996
EXTRACT: note_on channel=9 note=42 velocity=0 time=0
EXTRACT: note_on channel=9 note=69 velocity=78 time=0.2293575
EXTRACT: note_on channel=9 note=42 velocity=42 time=0
EXTRACT: note_on channel=9 note=69 velocity=0 time=0.045871499999999996
EXTRACT: note_on channel=9 note=42 velocity=0 time=0
EXTRACT: note_on channel=9 note=69 velocity=78 time=0.09174299999999999
EXTRACT: note_on channel=9 note=69 velocity=0 time=0.045871499999999996
EXTRACT: note_on channel=9 note=69 velocity=78 time=0.09174299999999999
EXTRACT: note_on channel=9 note=42 velocity=42 time=0
EXTRACT: note_on channel=9 note=69 velocity=0 time=0.045871499999999996
EXTRACT: note_on channel=9 note=42 velocity=0 time=0
EXTRACT: note_on channel=9 note=42 velocity=42 time=0.2293575
EXTRACT: note_on channel=9 note=36 velocity=98 time=0
EXTRACT: note_on channel=9 note=42 velocity=0 time=0.045871499999999996
EXTRACT: note_on channel=9 note=36 velocity=0 time=0
EXTRACT: note_on channel=9 note=38 velocity=127 time=0.2293575
EXTRACT: note_on channel=9 note=42 velocity=42 time=0
EXTRACT: note_on channel=9 note=38 velocity=0 time=0.045871499999999996
EXTRACT: note_on channel=9 note=42 velocity=0 time=0
EXTRACT: note_on channel=9 note=69 velocity=82 time=0.2293575
EXTRACT: note_on channel=9 note=61 velocity=44 time=0
EXTRACT: note_on channel=9 note=42 velocity=42 time=0
EXTRACT: note_on channel=9 note=69 velocity=0 time=0.045871499999999996
EXTRACT: note_on channel=9 note=61 velocity=0 time=0
EXTRACT: note_on channel=9 note=42 velocity=0 time=0
EXTRACT: note_on channel=9 note=61 velocity=44 time=0.09174299999999999
EXTRACT: note_on channel=9 note=61 velocity=0 time=0.045871499999999996
EXTRACT: note_on channel=9 note=39 velocity=61 time=0.0733944
EXTRACT: note_on channel=3 note=55 velocity=0 time=0.00458715
EXTRACT: note_on channel=3 note=60 velocity=0 time=0
EXTRACT: note_on channel=3 note=63 velocity=0 time=0
EXTRACT: note_on channel=3 note=65 velocity=71 time=0
EXTRACT: note_on channel=3 note=56 velocity=63 time=0
EXTRACT: note_on channel=3 note=58 velocity=53 time=0
EXTRACT: note_on channel=3 note=61 velocity=68 time=0
EXTRACT: note_on channel=8 note=67 velocity=0 time=0.00458715
EXTRACT: note_on channel=0 note=34 velocity=94 time=0.00458715
EXTRACT: note_on channel=4 note=55 velocity=0 time=0
EXTRACT: note_on channel=4 note=63 velocity=0 time=0
EXTRACT: note_on channel=4 note=58 velocity=81 time=0
EXTRACT: note_on channel=4 note=65 velocity=108 time=0
EXTRACT: note_on channel=8 note=72 velocity=97 time=0
EXTRACT: note_on channel=1 note=34 velocity=93 time=0.00458715
EXTRACT: note_on channel=9 note=61 velocity=44 time=0
EXTRACT: note_on channel=9 note=42 velocity=42 time=0
EXTRACT: note_on channel=9 note=36 velocity=98 time=0
EXTRACT: note_on channel=2 note=55 velocity=0 time=0.00458715
EXTRACT: note_on channel=2 note=60 velocity=0 time=0
EXTRACT: note_on channel=2 note=63 velocity=0 time=0
EXTRACT: note_on channel=2 note=65 velocity=88 time=0
EXTRACT: note_on channel=2 note=56 velocity=62 time=0
EXTRACT: note_on channel=2 note=58 velocity=75 time=0
EXTRACT: note_on channel=2 note=61 velocity=81 time=0
EXTRACT: note_on channel=9 note=39 velocity=0 time=0.022935749999999998
EXTRACT: note_on channel=9 note=61 velocity=0 time=0.0183486
EXTRACT: note_on channel=9 note=42 velocity=0 time=0
EXTRACT: note_on channel=9 note=36 velocity=0 time=0
EXTRACT: note_on channel=9 note=39 velocity=56 time=0.0733944
EXTRACT: note_on channel=9 note=61 velocity=44 time=0.0183486
EXTRACT: note_on channel=9 note=39 velocity=0 time=0.0275229
EXTRACT: note_on channel=9 note=61 velocity=0 time=0.0183486
EXTRACT: note_on channel=0 note=34 velocity=0 time=0.08715584999999999
EXTRACT: note_on channel=1 note=34 velocity=0 time=0.00458715
EXTRACT: note_on channel=9 note=61 velocity=44 time=0
EXTRACT: note_on channel=9 note=42 velocity=42 time=0
EXTRACT: note_on channel=9 note=61 velocity=0 time=0.045871499999999996
EXTRACT: note_on channel=9 note=42 velocity=0 time=0
EXTRACT: note_on channel=8 note=72 velocity=0 time=0.0825687
EXTRACT: note_on channel=0 note=34 velocity=105 time=0.00458715
EXTRACT: note_on channel=8 note=70 velocity=108 time=0
EXTRACT: note_on channel=1 note=34 velocity=92 time=0.00458715
EXTRACT: note_on channel=9 note=36 velocity=98 time=0
EXTRACT: note_on channel=9 note=36 velocity=0 time=0.045871499999999996
EXTRACT: note_on channel=9 note=39 velocity=51 time=0.0733944
EXTRACT: note_on channel=0 note=34 velocity=0 time=0.01376145
EXTRACT: note_on channel=1 note=34 velocity=0 time=0.00458715
EXTRACT: note_on channel=9 note=38 velocity=127 time=0
EXTRACT: note_on channel=9 note=42 velocity=42 time=0
EXTRACT: note_on channel=9 note=39 velocity=0 time=0.0275229
EXTRACT: note_on channel=9 note=38 velocity=0 time=0.0183486
EXTRACT: note_on channel=9 note=42 velocity=0 time=0
EXTRACT: note_on channel=9 note=39 velocity=55 time=0.0733944
EXTRACT: note_on channel=9 note=39 velocity=0 time=0.045871499999999996
EXTRACT: note_on channel=8 note=70 velocity=0 time=0.1009173
EXTRACT: note_on channel=0 note=34 velocity=105 time=0.00458715
EXTRACT: note_on channel=8 note=67 velocity=104 time=0
EXTRACT: note_on channel=1 note=34 velocity=114 time=0.00458715
EXTRACT: note_on channel=9 note=69 velocity=82 time=0
EXTRACT: note_on channel=9 note=42 velocity=42 time=0
EXTRACT: note_on channel=9 note=69 velocity=0 time=0.045871499999999996
EXTRACT: note_on channel=9 note=42 velocity=0 time=0
EXTRACT: note_on channel=0 note=34 velocity=0 time=0.08715584999999999
EXTRACT: note_on channel=1 note=34 velocity=0 time=0.00458715
EXTRACT: note_on channel=9 note=69 velocity=76 time=0
EXTRACT: note_on channel=9 note=69 velocity=0 time=0.045871499999999996
EXTRACT: note_on channel=9 note=39 velocity=68 time=0.0733944
EXTRACT: note_on channel=3 note=65 velocity=0 time=0.00458715
EXTRACT: note_on channel=3 note=56 velocity=0 time=0
EXTRACT: note_on channel=3 note=58 velocity=0 time=0
EXTRACT: note_on channel=3 note=61 velocity=0 time=0
EXTRACT: note_on channel=3 note=61 velocity=73 time=0
EXTRACT: note_on channel=3 note=55 velocity=69 time=0
EXTRACT: note_on channel=3 note=58 velocity=80 time=0
EXTRACT: note_on channel=3 note=63 velocity=80 time=0
EXTRACT: note_on channel=8 note=67 velocity=0 time=0.00458715
EXTRACT: note_on channel=0 note=39 velocity=91 time=0.00458715
EXTRACT: note_on channel=4 note=58 velocity=0 time=0
EXTRACT: note_on channel=4 note=65 velocity=0 time=0
EXTRACT: note_on channel=4 note=55 velocity=81 time=0
EXTRACT: note_on channel=4 note=63 velocity=81 time=0
EXTRACT: note_on channel=6 note=32 velocity=86 time=0
EXTRACT: note_on channel=8 note=65 velocity=93 time=0
EXTRACT: note_on channel=1 note=39 velocity=98 time=0.00458715
EXTRACT: note_on channel=9 note=29 velocity=45 time=0
EXTRACT: note_on channel=9 note=36 velocity=92 time=0
EXTRACT: note_on channel=2 note=65 velocity=0 time=0.00458715
EXTRACT: note_on channel=2 note=56 velocity=0 time=0
EXTRACT: note_on channel=2 note=58 velocity=0 time=0
EXTRACT: note_on channel=2 note=61 velocity=0 time=0
EXTRACT: note_on channel=2 note=61 velocity=69 time=0
EXTRACT: note_on channel=2 note=55 velocity=73 time=0
EXTRACT: note_on channel=2 note=58 velocity=68 time=0
EXTRACT: note_on channel=2 note=63 velocity=64 time=0
EXTRACT: note_on channel=9 note=39 velocity=0 time=0.022935749999999998
EXTRACT: note_on channel=9 note=29 velocity=0 time=0.0183486
EXTRACT: note_on channel=9 note=36 velocity=0 time=0
EXTRACT: note_on channel=9 note=39 velocity=54 time=0.0733944
EXTRACT: note_on channel=6 note=32 velocity=0 time=0.0126146625
EXTRACT: note_on channel=6 note=32 velocity=90 time=0.0011467875
EXTRACT: note_on channel=9 note=29 velocity=31 time=0.00458715
EXTRACT: note_on channel=9 note=41 velocity=70 time=0
EXTRACT: note_on channel=9 note=39 velocity=0 time=0.0275229
EXTRACT: note_on channel=9 note=29 velocity=0 time=0.0183486
EXTRACT: note_on channel=9 note=41 velocity=0 time=0
EXTRACT: note_on channel=8 note=65 velocity=0 time=0.0825687
EXTRACT: note_on channel=6 note=32 velocity=0 time=0.0034403625
EXTRACT: note_on channel=0 note=39 velocity=0 time=0.0011467875
EXTRACT: note_on channel=6 note=32 velocity=86 time=0
EXTRACT: note_on channel=8 note=63 velocity=97 time=0
EXTRACT: note_on channel=1 note=39 velocity=0 time=0.00458715
EXTRACT: note_on channel=9 note=29 velocity=45 time=0
EXTRACT: note_on channel=9 note=36 velocity=92 time=0
EXTRACT: note_on channel=9 note=29 velocity=0 time=0.045871499999999996
EXTRACT: note_on channel=9 note=36 velocity=0 time=0
EXTRACT: note_on channel=6 note=32 velocity=0 time=0.0860090625
EXTRACT: note_on channel=0 note=39 velocity=97 time=0.0011467875
EXTRACT: note_on channel=6 note=32 velocity=66 time=0
EXTRACT: note_on channel=1 note=39 velocity=100 time=0.00458715
EXTRACT: note_on channel=9 note=29 velocity=31 time=0
EXTRACT: note_on channel=9 note=41 velocity=70 time=0
EXTRACT: note_on channel=9 note=29 velocity=0 time=0.045871499999999996
EXTRACT: note_on channel=9 note=41 velocity=0 time=0
EXTRACT: note_on channel=9 note=39 velocity=68 time=0.0733944
EXTRACT: note_on channel=8 note=63 velocity=0 time=0.0091743
EXTRACT: note_on channel=6 note=32 velocity=0 time=0.0034403625
EXTRACT: note_on channel=0 note=39 velocity=0 time=0.0011467875
EXTRACT: note_on channel=6 note=32 velocity=92 time=0
EXTRACT: note_on channel=8 note=63 velocity=85 time=0
EXTRACT: note_on channel=1 note=39 velocity=0 time=0.00458715
EXTRACT: note_on channel=9 note=29 velocity=45 time=0
EXTRACT: note_on channel=9 note=38 velocity=127 time=0
EXTRACT: note_on channel=9 note=36 velocity=92 time=0
EXTRACT: note_on channel=9 note=39 velocity=0 time=0.0275229
EXTRACT: note_on channel=9 note=29 velocity=0 time=0.0183486
EXTRACT: note_on channel=9 note=38 velocity=0 time=0
EXTRACT: note_on channel=9 note=36 velocity=0 time=0
EXTRACT: note_on channel=9 note=39 velocity=52 time=0.0733944
EXTRACT: note_on channel=6 note=32 velocity=0 time=0.0126146625
EXTRACT: note_on channel=6 note=32 velocity=77 time=0.0011467875
EXTRACT: note_on channel=9 note=29 velocity=31 time=0.00458715
EXTRACT: note_on channel=9 note=41 velocity=70 time=0
EXTRACT: note_on channel=9 note=39 velocity=0 time=0.0275229
EXTRACT: note_on channel=9 note=29 velocity=0 time=0.0183486
EXTRACT: note_on channel=9 note=41 velocity=0 time=0
EXTRACT: note_on channel=9 note=39 velocity=52 time=0.0733944
EXTRACT: note_on channel=6 note=32 velocity=0 time=0.0126146625
EXTRACT: note_on channel=6 note=32 velocity=102 time=0.0011467875
EXTRACT: note_on channel=9 note=61 velocity=44 time=0.00458715
EXTRACT: note_on channel=9 note=29 velocity=45 time=0
EXTRACT: note_on channel=9 note=36 velocity=92 time=0
EXTRACT: note_on channel=9 note=39 velocity=0 time=0.0275229
EXTRACT: note_on channel=9 note=61 velocity=0 time=0.0183486
EXTRACT: note_on channel=9 note=29 velocity=0 time=0
EXTRACT: note_on channel=9 note=36 velocity=0 time=0
EXTRACT: note_on channel=9 note=39 velocity=34 time=0.0733944
EXTRACT: note_on channel=6 note=32 velocity=0 time=0.0126146625
EXTRACT: note_on channel=6 note=32 velocity=66 time=0.0011467875
EXTRACT: note_on channel=9 note=61 velocity=44 time=0.00458715
EXTRACT: note_on channel=9 note=29 velocity=31 time=0
EXTRACT: note_on channel=9 note=41 velocity=70 time=0
EXTRACT: note_on channel=9 note=39 velocity=0 time=0.0275229
EXTRACT: note_on channel=9 note=61 velocity=0 time=0.0183486
EXTRACT: note_on channel=9 note=29 velocity=0 time=0
EXTRACT: note_on channel=9 note=41 velocity=0 time=0
EXTRACT: note_on channel=3 note=61 velocity=0 time=0.07798155
EXTRACT: note_on channel=3 note=55 velocity=0 time=0
EXTRACT: note_on channel=3 note=58 velocity=0 time=0
EXTRACT: note_on channel=3 note=63 velocity=0 time=0
EXTRACT: note_on channel=3 note=44 velocity=24 time=0
EXTRACT: note_on channel=3 note=55 velocity=61 time=0
EXTRACT: note_on channel=3 note=63 velocity=65 time=0
EXTRACT: note_on channel=3 note=60 velocity=74 time=0
EXTRACT: note_on channel=8 note=63 velocity=0 time=0.00458715
EXTRACT: note_on channel=0 note=32 velocity=101 time=0.00458715
EXTRACT: note_on channel=4 note=55 velocity=0 time=0
EXTRACT: note_on channel=4 note=63 velocity=0 time=0
EXTRACT: note_on channel=4 note=55 velocity=96 time=0
EXTRACT: note_on channel=4 note=63 velocity=96 time=0
EXTRACT: note_on channel=6 note=32 velocity=0 time=0
EXTRACT: note_on channel=8 note=67 velocity=96 time=0
EXTRACT: note_on channel=1 note=32 velocity=106 time=0.00458715
EXTRACT: note_on channel=9 note=61 velocity=44 time=0
EXTRACT: note_on channel=9 note=57 velocity=100 time=0
EXTRACT: note_on channel=9 note=36 velocity=98 time=0
EXTRACT: note_on channel=2 note=61 velocity=0 time=0.00458715
EXTRACT: note_on channel=2 note=55 velocity=0 time=0
EXTRACT: note_on channel=2 note=58 velocity=0 time=0
EXTRACT: note_on channel=2 note=63 velocity=0 time=0
EXTRACT: note_on channel=2 note=44 velocity=57 time=0
EXTRACT: note_on channel=2 note=55 velocity=68 time=0
EXTRACT: note_on channel=2 note=63 velocity=78 time=0
EXTRACT: note_on channel=2 note=60 velocity=87 time=0
EXTRACT: note_on channel=9 note=61 velocity=0 time=0.04128435
EXTRACT: note_on channel=9 note=57 velocity=0 time=0
EXTRACT: note_on channel=9 note=36 velocity=0 time=0
EXTRACT: note_on channel=9 note=39 velocity=55 time=0.2110089
EXTRACT: note_on channel=0 note=32 velocity=0 time=0.01376145
EXTRACT: note_on channel=1 note=32 velocity=0 time=0.00458715
EXTRACT: note_on channel=9 note=42 velocity=42 time=0
EXTRACT: note_on channel=9 note=39 velocity=0 time=0.0275229
EXTRACT: note_on channel=9 note=42 velocity=0 time=0.0183486
EXTRACT: note_on channel=0 note=32 velocity=100 time=0.08715584999999999
EXTRACT: note_on channel=1 note=32 velocity=98 time=0.00458715
EXTRACT: note_on channel=9 note=61 velocity=44 time=0
EXTRACT: note_on channel=9 note=36 velocity=98 time=0
EXTRACT: note_on channel=9 note=61 velocity=0 time=0.045871499999999996
EXTRACT: note_on channel=9 note=36 velocity=0 time=0
EXTRACT: note_on channel=0 note=32 velocity=0 time=0.08715584999999999
EXTRACT: note_on channel=1 note=32 velocity=0 time=0.00458715
EXTRACT: note_on channel=9 note=38 velocity=127 time=0
EXTRACT: note_on channel=9 note=42 velocity=42 time=0
EXTRACT: note_on channel=9 note=38 velocity=0 time=0.045871499999999996
EXTRACT: note_on channel=9 note=42 velocity=0 time=0
EXTRACT: note_on channel=9 note=39 velocity=59 time=0.0733944
EXTRACT: note_on channel=9 note=39 velocity=0 time=0.045871499999999996
EXTRACT: note_on channel=8 note=67 velocity=0 time=0.1009173
EXTRACT: note_on channel=8 note=67 velocity=113 time=0.00458715
EXTRACT: note_on channel=9 note=69 velocity=75 time=0.00458715
EXTRACT: note_on channel=9 note=42 velocity=42 time=0
EXTRACT: note_on channel=9 note=69 velocity=0 time=0.045871499999999996
EXTRACT: note_on channel=9 note=42 velocity=0 time=0
EXTRACT: note_on channel=9 note=69 velocity=82 time=0.09174299999999999
EXTRACT: note_on channel=9 note=69 velocity=0 time=0.045871499999999996
EXTRACT: note_on channel=9 note=39 velocity=68 time=0.0733944
EXTRACT: note_on channel=8 note=67 velocity=0 time=0.0091743
EXTRACT: note_on channel=8 note=65 velocity=92 time=0.00458715
EXTRACT: note_on channel=9 note=69 velocity=82 time=0.00458715
EXTRACT: note_on channel=9 note=42 velocity=42 time=0
EXTRACT: note_on channel=9 note=39 velocity=0 time=0.0275229
EXTRACT: note_on channel=9 note=69 velocity=0 time=0.0183486
EXTRACT: note_on channel=9 note=42 velocity=0 time=0
EXTRACT: note_on channel=8 note=65 velocity=0 time=0.2201832
EXTRACT: note_on channel=8 note=63 velocity=111 time=0.00458715
EXTRACT: note_on channel=9 note=42 velocity=42 time=0.00458715
EXTRACT: note_on channel=9 note=36 velocity=98 time=0
EXTRACT: note_on channel=9 note=42 velocity=0 time=0.045871499999999996
EXTRACT: note_on channel=9 note=36 velocity=0 time=0
EXTRACT: note_on channel=9 note=39 velocity=64 time=0.0733944
EXTRACT: note_on channel=9 note=39 velocity=0 time=0.045871499999999996
EXTRACT: note_on channel=8 note=63 velocity=0 time=0.1009173
EXTRACT: note_on channel=8 note=63 velocity=114 time=0.00458715
EXTRACT: note_on channel=9 note=38 velocity=127 time=0.00458715
EXTRACT: note_on channel=9 note=42 velocity=42 time=0
EXTRACT: note_on channel=9 note=38 velocity=0 time=0.045871499999999996
EXTRACT: note_on channel=9 note=42 velocity=0 time=0
EXTRACT: note_on channel=9 note=69 velocity=76 time=0.2293575
EXTRACT: note_on channel=9 note=61 velocity=44 time=0
EXTRACT: note_on channel=9 note=42 velocity=42 time=0
EXTRACT: note_on channel=9 note=69 velocity=0 time=0.045871499999999996
EXTRACT: note_on channel=9 note=61 velocity=0 time=0
EXTRACT: note_on channel=9 note=42 velocity=0 time=0
EXTRACT: note_on channel=9 note=61 velocity=44 time=0.09174299999999999
EXTRACT: note_on channel=9 note=61 velocity=0 time=0.045871499999999996
EXTRACT: note_on channel=3 note=44 velocity=0 time=0.07798155
EXTRACT: note_on channel=3 note=55 velocity=0 time=0
EXTRACT: note_on channel=3 note=63 velocity=0 time=0
EXTRACT: note_on channel=3 note=60 velocity=0 time=0
EXTRACT: note_on channel=3 note=55 velocity=77 time=0
EXTRACT: note_on channel=3 note=63 velocity=74 time=0
EXTRACT: note_on channel=3 note=59 velocity=74 time=0
EXTRACT: note_on channel=8 note=63 velocity=0 time=0.00458715
EXTRACT: note_on channel=0 note=31 velocity=82 time=0.00458715
EXTRACT: note_on channel=8 note=67 velocity=116 time=0
EXTRACT: note_on channel=1 note=31 velocity=98 time=0.00458715
EXTRACT: note_on channel=9 note=61 velocity=44 time=0
EXTRACT: note_on channel=9 note=42 velocity=42 time=0
EXTRACT: note_on channel=9 note=36 velocity=98 time=0
EXTRACT: note_on channel=2 note=44 velocity=0 time=0.00458715
EXTRACT: note_on channel=2 note=55 velocity=0 time=0
EXTRACT: note_on channel=2 note=63 velocity=0 time=0
EXTRACT: note_on channel=2 note=60 velocity=0 time=0
EXTRACT: note_on channel=2 note=55 velocity=60 time=0
EXTRACT: note_on channel=2 note=63 velocity=60 time=0
EXTRACT: note_on channel=2 note=59 velocity=88 time=0
EXTRACT: note_on channel=9 note=61 velocity=0 time=0.04128435
EXTRACT: note_on channel=9 note=42 velocity=0 time=0
EXTRACT: note_on channel=9 note=36 velocity=0 time=0
EXTRACT: note_on channel=9 note=61 velocity=44 time=0.09174299999999999
EXTRACT: note_on channel=9 note=61 velocity=0 time=0.045871499999999996
EXTRACT: note_on channel=9 note=39 velocity=65 time=0.0733944
EXTRACT: note_on channel=0 note=31 velocity=0 time=0.01376145
EXTRACT: note_on channel=9 note=64 velocity=50 time=0
EXTRACT: note_on channel=1 note=31 velocity=0 time=0.00458715
EXTRACT: note_on channel=9 note=61 velocity=44 time=0
EXTRACT: note_on channel=9 note=42 velocity=42 time=0
EXTRACT: note_on channel=9 note=39 velocity=0 time=0.0275229
EXTRACT: note_on channel=9 note=64 velocity=0 time=0.01376145
EXTRACT: note_on channel=9 note=61 velocity=0 time=0.00458715
EXTRACT: note_on channel=9 note=42 velocity=0 time=0
EXTRACT: note_on channel=0 note=31 velocity=96 time=0.08715584999999999
EXTRACT: note_on channel=9 note=63 velocity=50 time=0
EXTRACT: note_on channel=1 note=31 velocity=113 time=0.00458715
EXTRACT: note_on channel=9 note=36 velocity=98 time=0
EXTRACT: note_on channel=9 note=63 velocity=0 time=0.04128435
EXTRACT: note_on channel=9 note=36 velocity=0 time=0.00458715
EXTRACT: note_on channel=0 note=31 velocity=0 time=0.08715584999999999
EXTRACT: note_on channel=9 note=64 velocity=50 time=0
EXTRACT: note_on channel=1 note=31 velocity=0 time=0.00458715
EXTRACT: note_on channel=9 note=38 velocity=127 time=0
EXTRACT: note_on channel=9 note=42 velocity=42 time=0
EXTRACT: note_on channel=9 note=64 velocity=0 time=0.04128435
EXTRACT: note_on channel=9 note=38 velocity=0 time=0.00458715
EXTRACT: note_on channel=9 note=42 velocity=0 time=0
EXTRACT: note_on channel=9 note=39 velocity=72 time=0.0733944
EXTRACT: note_on channel=9 note=64 velocity=50 time=0.01376145
EXTRACT: note_on channel=9 note=39 velocity=0 time=0.03211005
EXTRACT: note_on channel=9 note=64 velocity=0 time=0.01376145
EXTRACT: note_on channel=8 note=67 velocity=0 time=0.08715584999999999
EXTRACT: note_on channel=8 note=67 velocity=85 time=0.00458715
EXTRACT: note_on channel=9 note=63 velocity=50 time=0
EXTRACT: note_on channel=9 note=69 velocity=75 time=0.00458715
EXTRACT: note_on channel=9 note=42 velocity=42 time=0
EXTRACT: note_on channel=9 note=63 velocity=0 time=0.04128435
EXTRACT: note_on channel=9 note=69 velocity=0 time=0.00458715
EXTRACT: note_on channel=9 note=42 velocity=0 time=0
EXTRACT: note_on channel=9 note=69 velocity=74 time=0.09174299999999999
EXTRACT: note_on channel=9 note=69 velocity=0 time=0.045871499999999996
EXTRACT: note_on channel=9 note=39 velocity=68 time=0.0733944
EXTRACT: note_on channel=8 note=67 velocity=0 time=0.0091743
EXTRACT: note_on channel=8 note=65 velocity=102 time=0.00458715
EXTRACT: note_on channel=9 note=69 velocity=74 time=0.00458715
EXTRACT: note_on channel=9 note=42 velocity=42 time=0
EXTRACT: note_on channel=9 note=39 velocity=0 time=0.0275229
EXTRACT: note_on channel=9 note=69 velocity=0 time=0.0183486
EXTRACT: note_on channel=9 note=42 velocity=0 time=0
EXTRACT: note_on channel=9 note=64 velocity=50 time=0.08715584999999999
EXTRACT: note_on channel=9 note=64 velocity=0 time=0.045871499999999996
EXTRACT: note_on channel=8 note=65 velocity=0 time=0.08715584999999999
EXTRACT: note_on channel=8 note=63 velocity=98 time=0.00458715
EXTRACT: note_on channel=9 note=48 velocity=50 time=0
EXTRACT: note_on channel=9 note=42 velocity=42 time=0.00458715
EXTRACT: note_on channel=9 note=36 velocity=98 time=0
EXTRACT: note_on channel=9 note=48 velocity=0 time=0.04128435
EXTRACT: note_on channel=9 note=42 velocity=0 time=0.00458715
EXTRACT: note_on channel=9 note=36 velocity=0 time=0
EXTRACT: note_on channel=9 note=39 velocity=53 time=0.0733944
EXTRACT: note_on channel=9 note=64 velocity=50 time=0.01376145
EXTRACT: note_on channel=9 note=39 velocity=0 time=0.03211005
EXTRACT: note_on channel=9 note=64 velocity=0 time=0.01376145
EXTRACT: note_on channel=8 note=63 velocity=0 time=0.08715584999999999
EXTRACT: note_on channel=8 note=63 velocity=102 time=0.00458715
EXTRACT: note_on channel=9 note=63 velocity=50 time=0
EXTRACT: note_on channel=9 note=38 velocity=127 time=0.00458715
EXTRACT: note_on channel=9 note=42 velocity=42 time=0
EXTRACT: note_on channel=9 note=63 velocity=0 time=0.04128435
EXTRACT: note_on channel=9 note=38 velocity=0 time=0.00458715
EXTRACT: note_on channel=9 note=42 velocity=0 time=0
EXTRACT: note_on channel=9 note=61 velocity=44 time=0.2293575
EXTRACT: note_on channel=9 note=36 velocity=92 time=0
EXTRACT: note_on channel=9 note=42 velocity=42 time=0
EXTRACT: note_on channel=9 note=61 velocity=0 time=0.045871499999999996
EXTRACT: note_on channel=9 note=36 velocity=0 time=0
EXTRACT: note_on channel=9 note=42 velocity=0 time=0
EXTRACT: note_on channel=9 note=61 velocity=44 time=0.09174299999999999
EXTRACT: note_on channel=9 note=36 velocity=92 time=0
EXTRACT: note_on channel=9 note=61 velocity=0 time=0.045871499999999996
EXTRACT: note_on channel=9 note=36 velocity=0 time=0
EXTRACT: note_on channel=3 note=55 velocity=0 time=0.07798155
EXTRACT: note_on channel=3 note=63 velocity=0 time=0
EXTRACT: note_on channel=3 note=59 velocity=0 time=0
EXTRACT: note_on channel=3 note=55 velocity=60 time=0
EXTRACT: note_on channel=3 note=60 velocity=80 time=0
EXTRACT: note_on channel=3 note=63 velocity=79 time=0
EXTRACT: note_on channel=8 note=63 velocity=0 time=0.00458715
EXTRACT: note_on channel=0 note=36 velocity=85 time=0.00458715
EXTRACT: note_on channel=8 note=63 velocity=84 time=0
EXTRACT: note_on channel=8 note=72 velocity=115 time=0
EXTRACT: note_on channel=8 note=68 velocity=117 time=0
EXTRACT: note_on channel=1 note=36 velocity=107 time=0.00458715
EXTRACT: note_on channel=9 note=61 velocity=44 time=0
EXTRACT: note_on channel=9 note=42 velocity=42 time=0
EXTRACT: note_on channel=9 note=36 velocity=98 time=0
EXTRACT: note_on channel=2 note=55 velocity=0 time=0.00458715
EXTRACT: note_on channel=2 note=63 velocity=0 time=0
EXTRACT: note_on channel=2 note=59 velocity=0 time=0
EXTRACT: note_on channel=2 note=55 velocity=87 time=0
EXTRACT: note_on channel=2 note=60 velocity=74 time=0
EXTRACT: note_on channel=2 note=63 velocity=62 time=0
EXTRACT: note_on channel=9 note=61 velocity=0 time=0.04128435
EXTRACT: note_on channel=9 note=42 velocity=0 time=0
EXTRACT: note_on channel=9 note=36 velocity=0 time=0
EXTRACT: note_on channel=9 note=39 velocity=60 time=0.2110089
EXTRACT: note_on channel=0 note=36 velocity=0 time=0.01376145
EXTRACT: note_on channel=1 note=36 velocity=0 time=0.00458715
EXTRACT: note_on channel=9 note=42 velocity=42 time=0
EXTRACT: note_on channel=9 note=39 velocity=0 time=0.0275229
EXTRACT: note_on channel=9 note=42 velocity=0 time=0.0183486
EXTRACT: note_on channel=0 note=36 velocity=89 time=0.08715584999999999
EXTRACT: note_on channel=1 note=36 velocity=112 time=0.00458715
EXTRACT: note_on channel=9 note=61 velocity=44 time=0
EXTRACT: note_on channel=9 note=36 velocity=98 time=0
EXTRACT: note_on channel=9 note=61 velocity=0 time=0.045871499999999996
EXTRACT: note_on channel=9 note=36 velocity=0 time=0
EXTRACT: note_on channel=8 note=63 velocity=0 time=0.0825687
EXTRACT: note_on channel=8 note=72 velocity=0 time=0
EXTRACT: note_on channel=8 note=68 velocity=0 time=0
EXTRACT: note_on channel=0 note=36 velocity=0 time=0.00458715
EXTRACT: note_on channel=8 note=63 velocity=84 time=0
EXTRACT: note_on channel=8 note=70 velocity=103 time=0
EXTRACT: note_on channel=8 note=67 velocity=114 time=0
EXTRACT: note_on channel=1 note=36 velocity=0 time=0.00458715
EXTRACT: note_on channel=9 note=38 velocity=127 time=0
EXTRACT: note_on channel=9 note=42 velocity=42 time=0
EXTRACT: note_on channel=9 note=38 velocity=0 time=0.045871499999999996
EXTRACT: note_on channel=9 note=42 velocity=0 time=0
EXTRACT: note_on channel=9 note=39 velocity=65 time=0.0733944
EXTRACT: note_on channel=9 note=39 velocity=0 time=0.045871499999999996
EXTRACT: note_on channel=9 note=69 velocity=78 time=0.1100916
EXTRACT: note_on channel=9 note=42 velocity=42 time=0
EXTRACT: note_on channel=9 note=69 velocity=0 time=0.045871499999999996
EXTRACT: note_on channel=9 note=42 velocity=0 time=0
EXTRACT: note_on channel=9 note=69 velocity=82 time=0.09174299999999999
EXTRACT: note_on channel=9 note=69 velocity=0 time=0.045871499999999996
EXTRACT: note_on channel=9 note=39 velocity=64 time=0.0733944
EXTRACT: note_on channel=8 note=63 velocity=0 time=0.0091743
EXTRACT: note_on channel=8 note=70 velocity=0 time=0
EXTRACT: note_on channel=8 note=67 velocity=0 time=0
EXTRACT: note_on channel=8 note=60 velocity=75 time=0.00458715
EXTRACT: note_on channel=8 note=68 velocity=114 time=0
EXTRACT: note_on channel=8 note=65 velocity=111 time=0
EXTRACT: note_on channel=9 note=69 velocity=82 time=0.00458715
EXTRACT: note_on channel=9 note=42 velocity=42 time=0
EXTRACT: note_on channel=9 note=39 velocity=0 time=0.0275229
EXTRACT: note_on channel=9 note=69 velocity=0 time=0.0183486
EXTRACT: note_on channel=9 note=42 velocity=0 time=0
EXTRACT: note_on channel=9 note=42 velocity=42 time=0.2293575
EXTRACT: note_on channel=9 note=36 velocity=98 time=0
EXTRACT: note_on channel=9 note=42 velocity=0 time=0.045871499999999996
EXTRACT: note_on channel=9 note=36 velocity=0 time=0
EXTRACT: note_on channel=9 note=39 velocity=56 time=0.0733944
EXTRACT: note_on channel=9 note=39 velocity=0 time=0.045871499999999996
EXTRACT: note_on channel=8 note=60 velocity=0 time=0.1009173
EXTRACT: note_on channel=8 note=68 velocity=0 time=0
EXTRACT: note_on channel=8 note=65 velocity=0 time=0
EXTRACT: note_on channel=8 note=58 velocity=68 time=0.00458715
EXTRACT: note_on channel=8 note=67 velocity=103 time=0
EXTRACT: note_on channel=8 note=63 velocity=95 time=0
EXTRACT: note_on channel=9 note=38 velocity=127 time=0.00458715
EXTRACT: note_on channel=9 note=42 velocity=42 time=0
EXTRACT: note_on channel=9 note=38 velocity=0 time=0.045871499999999996
EXTRACT: note_on channel=9 note=42 velocity=0 time=0
EXTRACT: note_on channel=9 note=69 velocity=76 time=0.2293575
EXTRACT: note_on channel=9 note=61 velocity=44 time=0
EXTRACT: note_on channel=9 note=42 velocity=42 time=0
EXTRACT: note_on channel=9 note=69 velocity=0 time=0.045871499999999996
EXTRACT: note_on channel=9 note=61 velocity=0 time=0
EXTRACT: note_on channel=9 note=42 velocity=0 time=0
EXTRACT: note_on channel=9 note=61 velocity=44 time=0.09174299999999999
EXTRACT: note_on channel=9 note=61 velocity=0 time=0.045871499999999996
EXTRACT: note_on channel=9 note=39 velocity=65 time=0.0733944
EXTRACT: note_on channel=3 note=55 velocity=0 time=0.00458715
EXTRACT: note_on channel=3 note=60 velocity=0 time=0
EXTRACT: note_on channel=3 note=63 velocity=0 time=0
EXTRACT: note_on channel=3 note=65 velocity=70 time=0
EXTRACT: note_on channel=3 note=56 velocity=53 time=0
EXTRACT: note_on channel=3 note=58 velocity=59 time=0
EXTRACT: note_on channel=3 note=61 velocity=62 time=0
EXTRACT: note_on channel=8 note=58 velocity=0 time=0.00458715
EXTRACT: note_on channel=8 note=67 velocity=0 time=0
EXTRACT: note_on channel=8 note=63 velocity=0 time=0
EXTRACT: note_on channel=0 note=34 velocity=100 time=0.00458715
EXTRACT: note_on channel=4 note=55 velocity=0 time=0
EXTRACT: note_on channel=4 note=63 velocity=0 time=0
EXTRACT: note_on channel=4 note=58 velocity=108 time=0
EXTRACT: note_on channel=4 note=65 velocity=66 time=0
EXTRACT: note_on channel=8 note=67 velocity=96 time=0
EXTRACT: note_on channel=1 note=34 velocity=108 time=0.00458715
EXTRACT: note_on channel=9 note=61 velocity=44 time=0
EXTRACT: note_on channel=9 note=42 velocity=42 time=0
EXTRACT: note_on channel=9 note=36 velocity=98 time=0
EXTRACT: note_on channel=2 note=55 velocity=0 time=0.00458715
EXTRACT: note_on channel=2 note=60 velocity=0 time=0
EXTRACT: note_on channel=2 note=63 velocity=0 time=0
EXTRACT: note_on channel=2 note=65 velocity=81 time=0
EXTRACT: note_on channel=2 note=56 velocity=72 time=0
EXTRACT: note_on channel=2 note=58 velocity=90 time=0
EXTRACT: note_on channel=2 note=61 velocity=72 time=0
EXTRACT: note_on channel=9 note=39 velocity=0 time=0.022935749999999998
EXTRACT: note_on channel=9 note=61 velocity=0 time=0.0183486
EXTRACT: note_on channel=9 note=42 velocity=0 time=0
EXTRACT: note_on channel=9 note=36 velocity=0 time=0
EXTRACT: note_on channel=9 note=39 velocity=66 time=0.0733944
EXTRACT: note_on channel=9 note=61 velocity=44 time=0.0183486
EXTRACT: note_on channel=9 note=39 velocity=0 time=0.0275229
EXTRACT: note_on channel=9 note=61 velocity=0 time=0.0183486
EXTRACT: note_on channel=0 note=34 velocity=0 time=0.08715584999999999
EXTRACT: note_on channel=9 note=64 velocity=50 time=0
EXTRACT: note_on channel=1 note=34 velocity=0 time=0.00458715
EXTRACT: note_on channel=9 note=61 velocity=44 time=0
EXTRACT: note_on channel=9 note=42 velocity=42 time=0
EXTRACT: note_on channel=9 note=64 velocity=0 time=0.04128435
EXTRACT: note_on channel=9 note=61 velocity=0 time=0.00458715
EXTRACT: note_on channel=9 note=42 velocity=0 time=0
EXTRACT: note_on channel=0 note=34 velocity=105 time=0.08715584999999999
EXTRACT: note_on channel=9 note=63 velocity=50 time=0
EXTRACT: note_on channel=1 note=34 velocity=106 time=0.00458715
EXTRACT: note_on channel=9 note=36 velocity=98 time=0
EXTRACT: note_on channel=9 note=63 velocity=0 time=0.04128435
EXTRACT: note_on channel=9 note=36 velocity=0 time=0.00458715
EXTRACT: note_on channel=9 note=39 velocity=55 time=0.0733944
EXTRACT: note_on channel=0 note=34 velocity=0 time=0.01376145
EXTRACT: note_on channel=9 note=64 velocity=50 time=0
EXTRACT: note_on channel=1 note=34 velocity=0 time=0.00458715
EXTRACT: note_on channel=9 note=38 velocity=127 time=0
EXTRACT: note_on channel=9 note=42 velocity=42 time=0
EXTRACT: note_on channel=9 note=39 velocity=0 time=0.0275229
EXTRACT: note_on channel=9 note=64 velocity=0 time=0.01376145
EXTRACT: note_on channel=9 note=38 velocity=0 time=0.00458715
EXTRACT: note_on channel=9 note=42 velocity=0 time=0
EXTRACT: note_on channel=9 note=39 velocity=72 time=0.0733944
EXTRACT: note_on channel=9 note=64 velocity=50 time=0.01376145
EXTRACT: note_on channel=9 note=39 velocity=0 time=0.03211005
EXTRACT: note_on channel=9 note=64 velocity=0 time=0.01376145
EXTRACT: note_on channel=8 note=67 velocity=0 time=0.08715584999999999
EXTRACT: note_on channel=0 note=34 velocity=93 time=0.00458715
EXTRACT: note_on channel=8 note=67 velocity=97 time=0
EXTRACT: note_on channel=9 note=63 velocity=50 time=0
EXTRACT: note_on channel=1 note=34 velocity=108 time=0.00458715
EXTRACT: note_on channel=9 note=69 velocity=77 time=0
EXTRACT: note_on channel=9 note=42 velocity=42 time=0
EXTRACT: note_on channel=9 note=63 velocity=0 time=0.04128435
EXTRACT: note_on channel=9 note=69 velocity=0 time=0.00458715
EXTRACT: note_on channel=9 note=42 velocity=0 time=0
EXTRACT: note_on channel=0 note=34 velocity=0 time=0.08715584999999999
EXTRACT: note_on channel=1 note=34 velocity=0 time=0.00458715
EXTRACT: note_on channel=9 note=36 velocity=92 time=0
EXTRACT: note_on channel=9 note=69 velocity=82 time=0
EXTRACT: note_on channel=9 note=36 velocity=0 time=0.045871499999999996
EXTRACT: note_on channel=9 note=69 velocity=0 time=0
EXTRACT: note_on channel=9 note=39 velocity=61 time=0.0733944
EXTRACT: note_on channel=3 note=65 velocity=0 time=0.00458715
EXTRACT: note_on channel=3 note=56 velocity=0 time=0
EXTRACT: note_on channel=3 note=58 velocity=0 time=0
EXTRACT: note_on channel=3 note=61 velocity=0 time=0
EXTRACT: note_on channel=3 note=61 velocity=75 time=0
EXTRACT: note_on channel=3 note=55 velocity=69 time=0
EXTRACT: note_on channel=3 note=58 velocity=70 time=0
EXTRACT: note_on channel=3 note=63 velocity=56 time=0
EXTRACT: note_on channel=8 note=67 velocity=0 time=0.00458715
EXTRACT: note_on channel=0 note=39 velocity=93 time=0.00458715
EXTRACT: note_on channel=4 note=58 velocity=0 time=0
EXTRACT: note_on channel=4 note=65 velocity=0 time=0
EXTRACT: note_on channel=4 note=55 velocity=111 time=0
EXTRACT: note_on channel=4 note=63 velocity=96 time=0
EXTRACT: note_on channel=8 note=65 velocity=92 time=0
EXTRACT: note_on channel=1 note=39 velocity=101 time=0.00458715
EXTRACT: note_on channel=9 note=36 velocity=98 time=0
EXTRACT: note_on channel=9 note=69 velocity=82 time=0
EXTRACT: note_on channel=9 note=42 velocity=42 time=0
EXTRACT: note_on channel=2 note=65 velocity=0 time=0.00458715
EXTRACT: note_on channel=2 note=56 velocity=0 time=0
EXTRACT: note_on channel=2 note=58 velocity=0 time=0
EXTRACT: note_on channel=2 note=61 velocity=0 time=0
EXTRACT: note_on channel=2 note=61 velocity=63 time=0
EXTRACT: note_on channel=2 note=55 velocity=87 time=0
EXTRACT: note_on channel=2 note=58 velocity=66 time=0
EXTRACT: note_on channel=2 note=63 velocity=67 time=0
EXTRACT: note_on channel=9 note=39 velocity=0 time=0.022935749999999998
EXTRACT: note_on channel=9 note=36 velocity=0 time=0.0183486
EXTRACT: note_on channel=9 note=69 velocity=0 time=0
EXTRACT: note_on channel=9 note=42 velocity=0 time=0
EXTRACT: note_on channel=9 note=39 velocity=59 time=0.0733944
EXTRACT: note_on channel=9 note=64 velocity=50 time=0.01376145
EXTRACT: note_on channel=9 note=39 velocity=0 time=0.03211005
EXTRACT: note_on channel=9 note=64 velocity=0 time=0.01376145
EXTRACT: note_on channel=8 note=65 velocity=0 time=0.08715584999999999
EXTRACT: note_on channel=0 note=39 velocity=0 time=0.00458715
EXTRACT: note_on channel=8 note=63 velocity=87 time=0
EXTRACT: note_on channel=9 note=48 velocity=50 time=0
EXTRACT: note_on channel=1 note=39 velocity=0 time=0.00458715
EXTRACT: note_on channel=9 note=36 velocity=92 time=0
EXTRACT: note_on channel=9 note=42 velocity=42 time=0
EXTRACT: note_on channel=9 note=48 velocity=0 time=0.04128435
EXTRACT: note_on channel=9 note=36 velocity=0 time=0.00458715
EXTRACT: note_on channel=9 note=42 velocity=0 time=0
EXTRACT: note_on channel=0 note=39 velocity=101 time=0.08715584999999999
EXTRACT: note_on channel=9 note=64 velocity=50 time=0
EXTRACT: note_on channel=1 note=39 velocity=104 time=0.00458715
EXTRACT: note_on channel=9 note=36 velocity=92 time=0
EXTRACT: note_on channel=9 note=64 velocity=0 time=0.04128435
EXTRACT: note_on channel=9 note=36 velocity=0 time=0.00458715
EXTRACT: note_on channel=9 note=39 velocity=70 time=0.0733944
EXTRACT: note_on channel=8 note=63 velocity=0 time=0.0091743
EXTRACT: note_on channel=0 note=39 velocity=0 time=0.00458715
EXTRACT: note_on channel=8 note=63 velocity=94 time=0
EXTRACT: note_on channel=9 note=63 velocity=50 time=0
EXTRACT: note_on channel=1 note=39 velocity=0 time=0.00458715
EXTRACT: note_on channel=9 note=38 velocity=127 time=0
EXTRACT: note_on channel=9 note=42 velocity=42 time=0
EXTRACT: note_on channel=9 note=39 velocity=0 time=0.0275229
EXTRACT: note_on channel=9 note=63 velocity=0 time=0.01376145
EXTRACT: note_on channel=9 note=38 velocity=0 time=0.00458715
EXTRACT: note_on channel=9 note=42 velocity=0 time=0
EXTRACT: note_on channel=9 note=39 velocity=49 time=0.0733944
EXTRACT: note_on channel=9 note=39 velocity=0 time=0.045871499999999996
EXTRACT: note_on channel=9 note=39 velocity=55 time=0.09174299999999999
EXTRACT: note_on channel=9 note=61 velocity=44 time=0.0183486
EXTRACT: note_on channel=9 note=36 velocity=92 time=0
EXTRACT: note_on channel=9 note=42 velocity=42 time=0
EXTRACT: note_on channel=9 note=39 velocity=0 time=0.0275229
EXTRACT: note_on channel=9 note=61 velocity=0 time=0.0183486
EXTRACT: note_on channel=9 note=36 velocity=0 time=0
EXTRACT: note_on channel=9 note=42 velocity=0 time=0
EXTRACT: note_on channel=9 note=39 velocity=41 time=0.0733944
EXTRACT: note_on channel=9 note=61 velocity=44 time=0.0183486
EXTRACT: note_on channel=9 note=36 velocity=92 time=0
EXTRACT: note_on channel=9 note=39 velocity=0 time=0.0275229
EXTRACT: note_on channel=9 note=61 velocity=0 time=0.0183486
EXTRACT: note_on channel=9 note=36 velocity=0 time=0
EXTRACT: note_on channel=3 note=61 velocity=0 time=0.07798155
EXTRACT: note_on channel=3 note=55 velocity=0 time=0
EXTRACT: note_on channel=3 note=58 velocity=0 time=0
EXTRACT: note_on channel=3 note=63 velocity=0 time=0
EXTRACT: note_on channel=3 note=44 velocity=23 time=0
EXTRACT: note_on channel=3 note=55 velocity=70 time=0
EXTRACT: note_on channel=3 note=63 velocity=54 time=0
EXTRACT: note_on channel=3 note=60 velocity=69 time=0
EXTRACT: note_on channel=8 note=63 velocity=0 time=0.00458715
EXTRACT: note_on channel=0 note=32 velocity=87 time=0.00458715
EXTRACT: note_on channel=4 note=55 velocity=0 time=0
EXTRACT: note_on channel=4 note=63 velocity=0 time=0
EXTRACT: note_on channel=4 note=55 velocity=89 time=0
EXTRACT: note_on channel=4 note=63 velocity=96 time=0
EXTRACT: note_on channel=8 note=67 velocity=101 time=0
EXTRACT: note_on channel=1 note=32 velocity=105 time=0.00458715
EXTRACT: note_on channel=9 note=61 velocity=44 time=0
EXTRACT: note_on channel=9 note=42 velocity=42 time=0
EXTRACT: note_on channel=9 note=36 velocity=98 time=0
EXTRACT: note_on channel=2 note=61 velocity=0 time=0.00458715
EXTRACT: note_on channel=2 note=55 velocity=0 time=0
EXTRACT: note_on channel=2 note=58 velocity=0 time=0
EXTRACT: note_on channel=2 note=63 velocity=0 time=0
EXTRACT: note_on channel=2 note=44 velocity=61 time=0
EXTRACT: note_on channel=2 note=55 velocity=85 time=0
EXTRACT: note_on channel=2 note=63 velocity=78 time=0
EXTRACT: note_on channel=2 note=60 velocity=65 time=0
EXTRACT: note_on channel=9 note=61 velocity=0 time=0.04128435
EXTRACT: note_on channel=9 note=42 velocity=0 time=0
EXTRACT: note_on channel=9 note=36 velocity=0 time=0
EXTRACT: note_on channel=9 note=39 velocity=58 time=0.2110089
EXTRACT: note_on channel=0 note=32 velocity=0 time=0.01376145
EXTRACT: note_on channel=1 note=32 velocity=0 time=0.00458715
EXTRACT: note_on channel=9 note=42 velocity=42 time=0
EXTRACT: note_on channel=9 note=39 velocity=0 time=0.0275229
EXTRACT: note_on channel=9 note=42 velocity=0 time=0.0183486
EXTRACT: note_on channel=0 note=32 velocity=106 time=0.08715584999999999
EXTRACT: note_on channel=1 note=32 velocity=96 time=0.00458715
EXTRACT: note_on channel=9 note=61 velocity=44 time=0
EXTRACT: note_on channel=9 note=36 velocity=98 time=0
EXTRACT: note_on channel=9 note=61 velocity=0 time=0.045871499999999996
EXTRACT: note_on channel=9 note=36 velocity=0 time=0
EXTRACT: note_on channel=0 note=32 velocity=0 time=0.08715584999999999
EXTRACT: note_on channel=1 note=32 velocity=0 time=0.00458715
EXTRACT: note_on channel=9 note=38 velocity=127 time=0
EXTRACT: note_on channel=9 note=42 velocity=42 time=0
EXTRACT: note_on channel=9 note=38 velocity=0 time=0.045871499999999996
EXTRACT: note_on channel=9 note=42 velocity=0 time=0
EXTRACT: note_on channel=9 note=39 velocity=58 time=0.0733944
EXTRACT: note_on channel=9 note=39 velocity=0 time=0.045871499999999996
EXTRACT: note_on channel=8 note=67 velocity=0 time=0.1009173
EXTRACT: note_on channel=8 note=67 velocity=97 time=0.00458715
EXTRACT: note_on channel=9 note=69 velocity=76 time=0.00458715
EXTRACT: note_on channel=9 note=42 velocity=42 time=0
EXTRACT: note_on channel=9 note=69 velocity=0 time=0.045871499999999996
EXTRACT: note_on channel=9 note=42 velocity=0 time=0
EXTRACT: note_on channel=9 note=69 velocity=76 time=0.09174299999999999
EXTRACT: note_on channel=9 note=69 velocity=0 time=0.045871499999999996
EXTRACT: note_on channel=9 note=39 velocity=69 time=0.0733944
EXTRACT: note_on channel=8 note=67 velocity=0 time=0.0091743
EXTRACT: note_on channel=8 note=65 velocity=91 time=0.00458715
EXTRACT: note_on channel=9 note=69 velocity=75 time=0.00458715
EXTRACT: note_on channel=9 note=42 velocity=42 time=0
EXTRACT: note_on channel=9 note=39 velocity=0 time=0.0275229
EXTRACT: note_on channel=9 note=69 velocity=0 time=0.0183486
EXTRACT: note_on channel=9 note=42 velocity=0 time=0
EXTRACT: note_on channel=8 note=65 velocity=0 time=0.2201832
EXTRACT: note_on channel=8 note=63 velocity=98 time=0.00458715
EXTRACT: note_on channel=9 note=42 velocity=42 time=0.00458715
EXTRACT: note_on channel=9 note=36 velocity=98 time=0
EXTRACT: note_on channel=9 note=42 velocity=0 time=0.045871499999999996
EXTRACT: note_on channel=9 note=36 velocity=0 time=0
EXTRACT: note_on channel=9 note=39 velocity=63 time=0.0733944
EXTRACT: note_on channel=9 note=39 velocity=0 time=0.045871499999999996
EXTRACT: note_on channel=8 note=63 velocity=0 time=0.1009173
EXTRACT: note_on channel=8 note=63 velocity=113 time=0.00458715
EXTRACT: note_on channel=9 note=38 velocity=127 time=0.00458715
EXTRACT: note_on channel=9 note=42 velocity=42 time=0
EXTRACT: note_on channel=9 note=38 velocity=0 time=0.045871499999999996
EXTRACT: note_on channel=9 note=42 velocity=0 time=0
EXTRACT: note_on channel=9 note=69 velocity=81 time=0.2293575
EXTRACT: note_on channel=9 note=61 velocity=44 time=0
EXTRACT: note_on channel=9 note=42 velocity=42 time=0
EXTRACT: note_on channel=9 note=69 velocity=0 time=0.045871499999999996
EXTRACT: note_on channel=9 note=61 velocity=0 time=0
EXTRACT: note_on channel=9 note=42 velocity=0 time=0
EXTRACT: note_on channel=9 note=61 velocity=44 time=0.09174299999999999
EXTRACT: note_on channel=9 note=61 velocity=0 time=0.045871499999999996
EXTRACT: note_on channel=3 note=44 velocity=0 time=0.07798155
EXTRACT: note_on channel=3 note=55 velocity=0 time=0
EXTRACT: note_on channel=3 note=63 velocity=0 time=0
EXTRACT: note_on channel=3 note=60 velocity=0 time=0
EXTRACT: note_on channel=3 note=55 velocity=75 time=0
EXTRACT: note_on channel=3 note=63 velocity=60 time=0
EXTRACT: note_on channel=3 note=59 velocity=64 time=0
EXTRACT: note_on channel=8 note=63 velocity=0 time=0.00458715
EXTRACT: note_on channel=0 note=31 velocity=107 time=0.00458715
EXTRACT: note_on channel=8 note=67 velocity=103 time=0
EXTRACT: note_on channel=1 note=31 velocity=108 time=0.00458715
EXTRACT: note_on channel=9 note=61 velocity=44 time=0
EXTRACT: note_on channel=9 note=42 velocity=42 time=0
EXTRACT: note_on channel=9 note=36 velocity=98 time=0
EXTRACT: note_on channel=2 note=44 velocity=0 time=0.00458715
EXTRACT: note_on channel=2 note=55 velocity=0 time=0
EXTRACT: note_on channel=2 note=63 velocity=0 time=0
EXTRACT: note_on channel=2 note=60 velocity=0 time=0
EXTRACT: note_on channel=2 note=55 velocity=71 time=0
EXTRACT: note_on channel=2 note=63 velocity=65 time=0
EXTRACT: note_on channel=2 note=59 velocity=83 time=0
EXTRACT: note_on channel=9 note=61 velocity=0 time=0.04128435
EXTRACT: note_on channel=9 note=42 velocity=0 time=0
EXTRACT: note_on channel=9 note=36 velocity=0 time=0
EXTRACT: note_on channel=9 note=61 velocity=44 time=0.09174299999999999
EXTRACT: note_on channel=9 note=61 velocity=0 time=0.045871499999999996
EXTRACT: note_on channel=9 note=39 velocity=67 time=0.0733944
EXTRACT: note_on channel=0 note=31 velocity=0 time=0.01376145
EXTRACT: note_on channel=9 note=64 velocity=50 time=0
EXTRACT: note_on channel=1 note=31 velocity=0 time=0.00458715
EXTRACT: note_on channel=9 note=61 velocity=44 time=0
EXTRACT: note_on channel=9 note=42 velocity=42 time=0
EXTRACT: note_on channel=9 note=39 velocity=0 time=0.0275229
EXTRACT: note_on channel=9 note=64 velocity=0 time=0.01376145
EXTRACT: note_on channel=9 note=61 velocity=0 time=0.00458715
EXTRACT: note_on channel=9 note=42 velocity=0 time=0
EXTRACT: note_on channel=0 note=31 velocity=98 time=0.08715584999999999
EXTRACT: note_on channel=9 note=63 velocity=50 time=0
EXTRACT: note_on channel=1 note=31 velocity=113 time=0.00458715
EXTRACT: note_on channel=9 note=36 velocity=98 time=0
EXTRACT: note_on channel=9 note=63 velocity=0 time=0.04128435
EXTRACT: note_on channel=9 note=36 velocity=0 time=0.00458715
EXTRACT: note_on channel=0 note=31 velocity=0 time=0.08715584999999999
EXTRACT: note_on channel=9 note=64 velocity=50 time=0
EXTRACT: note_on channel=1 note=31 velocity=0 time=0.00458715
EXTRACT: note_on channel=9 note=38 velocity=127 time=0
EXTRACT: note_on channel=9 note=42 velocity=42 time=0
EXTRACT: note_on channel=9 note=64 velocity=0 time=0.04128435
EXTRACT: note_on channel=9 note=38 velocity=0 time=0.00458715
EXTRACT: note_on channel=9 note=42 velocity=0 time=0
EXTRACT: note_on channel=9 note=39 velocity=56 time=0.0733944
EXTRACT: note_on channel=9 note=64 velocity=50 time=0.01376145
EXTRACT: note_on channel=9 note=39 velocity=0 time=0.03211005
EXTRACT: note_on channel=9 note=64 velocity=0 time=0.01376145
EXTRACT: note_on channel=8 note=67 velocity=0 time=0.08715584999999999
EXTRACT: note_on channel=8 note=67 velocity=110 time=0.00458715
EXTRACT: note_on channel=9 note=63 velocity=50 time=0
EXTRACT: note_on channel=9 note=69 velocity=80 time=0.00458715
EXTRACT: note_on channel=9 note=42 velocity=42 time=0
EXTRACT: note_on channel=9 note=63 velocity=0 time=0.04128435
EXTRACT: note_on channel=9 note=69 velocity=0 time=0.00458715
EXTRACT: note_on channel=9 note=42 velocity=0 time=0
EXTRACT: note_on channel=9 note=69 velocity=74 time=0.09174299999999999
EXTRACT: note_on channel=9 note=69 velocity=0 time=0.045871499999999996
EXTRACT: note_on channel=9 note=39 velocity=66 time=0.0733944
EXTRACT: note_on channel=8 note=67 velocity=0 time=0.0091743
EXTRACT: note_on channel=8 note=65 velocity=113 time=0.00458715
EXTRACT: note_on channel=9 note=69 velocity=79 time=0.00458715
EXTRACT: note_on channel=9 note=42 velocity=42 time=0
EXTRACT: note_on channel=9 note=39 velocity=0 time=0.0275229
EXTRACT: note_on channel=9 note=69 velocity=0 time=0.0183486
EXTRACT: note_on channel=9 note=42 velocity=0 time=0
EXTRACT: note_on channel=9 note=64 velocity=50 time=0.08715584999999999
EXTRACT: note_on channel=9 note=64 velocity=0 time=0.045871499999999996
EXTRACT: note_on channel=8 note=65 velocity=0 time=0.08715584999999999
EXTRACT: note_on channel=0 note=34 velocity=102 time=0.00458715
EXTRACT: note_on channel=8 note=63 velocity=115 time=0
EXTRACT: note_on channel=9 note=48 velocity=50 time=0
EXTRACT: note_on channel=1 note=34 velocity=104 time=0.00458715
EXTRACT: note_on channel=9 note=42 velocity=42 time=0
EXTRACT: note_on channel=9 note=36 velocity=98 time=0
EXTRACT: note_on channel=9 note=48 velocity=0 time=0.04128435
EXTRACT: note_on channel=9 note=42 velocity=0 time=0.00458715
EXTRACT: note_on channel=9 note=36 velocity=0 time=0
EXTRACT: note_on channel=9 note=39 velocity=67 time=0.0733944
EXTRACT: note_on channel=0 note=34 velocity=0 time=0.01376145
EXTRACT: note_on channel=9 note=64 velocity=50 time=0
EXTRACT: note_on channel=1 note=34 velocity=0 time=0.00458715
EXTRACT: note_on channel=9 note=39 velocity=0 time=0.0275229
EXTRACT: note_on channel=9 note=64 velocity=0 time=0.01376145
EXTRACT: note_on channel=8 note=63 velocity=0 time=0.08715584999999999
EXTRACT: note_on channel=8 note=63 velocity=91 time=0.00458715
EXTRACT: note_on channel=9 note=63 velocity=50 time=0
EXTRACT: note_on channel=9 note=38 velocity=127 time=0.00458715
EXTRACT: note_on channel=9 note=42 velocity=42 time=0
EXTRACT: note_on channel=9 note=63 velocity=0 time=0.04128435
EXTRACT: note_on channel=9 note=38 velocity=0 time=0.00458715
EXTRACT: note_on channel=9 note=42 velocity=0 time=0
EXTRACT: note_on channel=0 note=34 velocity=107 time=0.08715584999999999
EXTRACT: note_on channel=1 note=34 velocity=109 time=0.00458715
EXTRACT: note_on channel=0 note=34 velocity=0 time=0.13302735
EXTRACT: note_on channel=1 note=34 velocity=0 time=0.00458715
EXTRACT: note_on channel=9 note=61 velocity=44 time=0
EXTRACT: note_on channel=9 note=36 velocity=92 time=0
EXTRACT: note_on channel=9 note=42 velocity=42 time=0
EXTRACT: note_on channel=9 note=61 velocity=0 time=0.045871499999999996
EXTRACT: note_on channel=9 note=36 velocity=0 time=0
EXTRACT: note_on channel=9 note=42 velocity=0 time=0
EXTRACT: note_on channel=9 note=61 velocity=44 time=0.09174299999999999
EXTRACT: note_on channel=9 note=36 velocity=92 time=0
EXTRACT: note_on channel=9 note=61 velocity=0 time=0.045871499999999996
EXTRACT: note_on channel=9 note=36 velocity=0 time=0
EXTRACT: note_on channel=3 note=55 velocity=0 time=0.07798155
EXTRACT: note_on channel=3 note=63 velocity=0 time=0
EXTRACT: note_on channel=3 note=59 velocity=0 time=0
EXTRACT: note_on channel=3 note=55 velocity=63 time=0
EXTRACT: note_on channel=3 note=60 velocity=78 time=0
EXTRACT: note_on channel=3 note=63 velocity=73 time=0
EXTRACT: note_on channel=8 note=63 velocity=0 time=0.00458715
EXTRACT: note_on channel=0 note=36 velocity=99 time=0.00458715
EXTRACT: note_on channel=8 note=63 velocity=108 time=0
EXTRACT: note_on channel=8 note=72 velocity=70 time=0
EXTRACT: note_on channel=8 note=68 velocity=92 time=0
EXTRACT: note_on channel=1 note=36 velocity=102 time=0.00458715
EXTRACT: note_on channel=9 note=61 velocity=44 time=0
EXTRACT: note_on channel=9 note=42 velocity=42 time=0
EXTRACT: note_on channel=9 note=36 velocity=98 time=0
EXTRACT: note_on channel=2 note=55 velocity=0 time=0.00458715
EXTRACT: note_on channel=2 note=63 velocity=0 time=0
EXTRACT: note_on channel=2 note=59 velocity=0 time=0
EXTRACT: note_on channel=2 note=55 velocity=70 time=0
EXTRACT: note_on channel=2 note=60 velocity=74 time=0
EXTRACT: note_on channel=2 note=63 velocity=89 time=0
EXTRACT: note_on channel=9 note=61 velocity=0 time=0.04128435
EXTRACT: note_on channel=9 note=42 velocity=0 time=0
EXTRACT: note_on channel=9 note=36 velocity=0 time=0
EXTRACT: note_on channel=9 note=39 velocity=61 time=0.2110089
EXTRACT: note_on channel=0 note=36 velocity=0 time=0.01376145
EXTRACT: note_on channel=1 note=36 velocity=0 time=0.00458715
EXTRACT: note_on channel=9 note=42 velocity=42 time=0
EXTRACT: note_on channel=9 note=39 velocity=0 time=0.0275229
EXTRACT: note_on channel=9 note=42 velocity=0 time=0.0183486
EXTRACT: note_on channel=0 note=36 velocity=99 time=0.08715584999999999
EXTRACT: note_on channel=1 note=36 velocity=113 time=0.00458715
EXTRACT: note_on channel=9 note=61 velocity=44 time=0
EXTRACT: note_on channel=9 note=36 velocity=98 time=0
EXTRACT: note_on channel=9 note=61 velocity=0 time=0.045871499999999996
EXTRACT: note_on channel=9 note=36 velocity=0 time=0
EXTRACT: note_on channel=8 note=63 velocity=0 time=0.0825687
EXTRACT: note_on channel=8 note=72 velocity=0 time=0
EXTRACT: note_on channel=8 note=68 velocity=0 time=0
EXTRACT: note_on channel=0 note=36 velocity=0 time=0.00458715
EXTRACT: note_on channel=8 note=63 velocity=107 time=0
EXTRACT: note_on channel=8 note=70 velocity=96 time=0
EXTRACT: note_on channel=8 note=67 velocity=93 time=0
EXTRACT: note_on channel=1 note=36 velocity=0 time=0.00458715
EXTRACT: note_on channel=9 note=38 velocity=127 time=0
EXTRACT: note_on channel=9 note=42 velocity=42 time=0
EXTRACT: note_on channel=9 note=38 velocity=0 time=0.045871499999999996
EXTRACT: note_on channel=9 note=42 velocity=0 time=0
EXTRACT: note_on channel=9 note=39 velocity=72 time=0.0733944
EXTRACT: note_on channel=9 note=39 velocity=0 time=0.045871499999999996
EXTRACT: note_on channel=9 note=69 velocity=75 time=0.1100916
EXTRACT: note_on channel=9 note=42 velocity=42 time=0
EXTRACT: note_on channel=9 note=69 velocity=0 time=0.045871499999999996
EXTRACT: note_on channel=9 note=42 velocity=0 time=0
EXTRACT: note_on channel=9 note=69 velocity=82 time=0.09174299999999999
EXTRACT: note_on channel=9 note=69 velocity=0 time=0.045871499999999996
EXTRACT: note_on channel=9 note=39 velocity=74 time=0.0733944
EXTRACT: note_on channel=8 note=63 velocity=0 time=0.0091743
EXTRACT: note_on channel=8 note=70 velocity=0 time=0
EXTRACT: note_on channel=8 note=67 velocity=0 time=0
EXTRACT: note_on channel=8 note=60 velocity=115 time=0.00458715
EXTRACT: note_on channel=8 note=68 velocity=79 time=0
EXTRACT: note_on channel=8 note=65 velocity=107 time=0
EXTRACT: note_on channel=9 note=69 velocity=77 time=0.00458715
EXTRACT: note_on channel=9 note=42 velocity=42 time=0
EXTRACT: note_on channel=9 note=39 velocity=0 time=0.0275229
EXTRACT: note_on channel=9 note=69 velocity=0 time=0.0183486
EXTRACT: note_on channel=9 note=42 velocity=0 time=0
EXTRACT: note_on channel=9 note=42 velocity=42 time=0.2293575
EXTRACT: note_on channel=9 note=36 velocity=98 time=0
EXTRACT: note_on channel=9 note=42 velocity=0 time=0.045871499999999996
EXTRACT: note_on channel=9 note=36 velocity=0 time=0
EXTRACT: note_on channel=9 note=39 velocity=71 time=0.0733944
EXTRACT: note_on channel=9 note=39 velocity=0 time=0.045871499999999996
EXTRACT: note_on channel=8 note=60 velocity=0 time=0.1009173
EXTRACT: note_on channel=8 note=68 velocity=0 time=0
EXTRACT: note_on channel=8 note=65 velocity=0 time=0
EXTRACT: note_on channel=8 note=58 velocity=73 time=0.00458715
EXTRACT: note_on channel=8 note=67 velocity=79 time=0
EXTRACT: note_on channel=8 note=63 velocity=87 time=0
EXTRACT: note_on channel=9 note=38 velocity=127 time=0.00458715
EXTRACT: note_on channel=9 note=42 velocity=42 time=0
EXTRACT: note_on channel=9 note=38 velocity=0 time=0.045871499999999996
EXTRACT: note_on channel=9 note=42 velocity=0 time=0
EXTRACT: note_on channel=9 note=69 velocity=75 time=0.2293575
EXTRACT: note_on channel=9 note=61 velocity=44 time=0
EXTRACT: note_on channel=9 note=42 velocity=42 time=0
EXTRACT: note_on channel=9 note=69 velocity=0 time=0.045871499999999996
EXTRACT: note_on channel=9 note=61 velocity=0 time=0
EXTRACT: note_on channel=9 note=42 velocity=0 time=0
EXTRACT: note_on channel=9 note=61 velocity=44 time=0.09174299999999999
EXTRACT: note_on channel=9 note=61 velocity=0 time=0.045871499999999996
EXTRACT: note_on channel=9 note=39 velocity=65 time=0.0733944
EXTRACT: note_on channel=3 note=55 velocity=0 time=0.00458715
EXTRACT: note_on channel=3 note=60 velocity=0 time=0
EXTRACT: note_on channel=3 note=63 velocity=0 time=0
EXTRACT: note_on channel=3 note=65 velocity=55 time=0
EXTRACT: note_on channel=3 note=56 velocity=79 time=0
EXTRACT: note_on channel=3 note=58 velocity=79 time=0
EXTRACT: note_on channel=3 note=61 velocity=51 time=0
EXTRACT: note_on channel=8 note=58 velocity=0 time=0.00458715
EXTRACT: note_on channel=8 note=67 velocity=0 time=0
EXTRACT: note_on channel=8 note=63 velocity=0 time=0
EXTRACT: note_on channel=0 note=34 velocity=101 time=0.00458715
EXTRACT: note_on channel=4 note=55 velocity=0 time=0
EXTRACT: note_on channel=4 note=63 velocity=0 time=0
EXTRACT: note_on channel=4 note=58 velocity=92 time=0
EXTRACT: note_on channel=4 note=65 velocity=95 time=0
EXTRACT: note_on channel=8 note=67 velocity=111 time=0
EXTRACT: note_on channel=1 note=34 velocity=114 time=0.00458715
EXTRACT: note_on channel=9 note=61 velocity=44 time=0
EXTRACT: note_on channel=9 note=42 velocity=42 time=0
EXTRACT: note_on channel=9 note=36 velocity=98 time=0
EXTRACT: note_on channel=2 note=55 velocity=0 time=0.00458715
EXTRACT: note_on channel=2 note=60 velocity=0 time=0
EXTRACT: note_on channel=2 note=63 velocity=0 time=0
EXTRACT: note_on channel=2 note=65 velocity=68 time=0
EXTRACT: note_on channel=2 note=56 velocity=69 time=0
EXTRACT: note_on channel=2 note=58 velocity=66 time=0
EXTRACT: note_on channel=2 note=61 velocity=91 time=0
EXTRACT: note_on channel=9 note=39 velocity=0 time=0.022935749999999998
EXTRACT: note_on channel=9 note=61 velocity=0 time=0.0183486
EXTRACT: note_on channel=9 note=42 velocity=0 time=0
EXTRACT: note_on channel=9 note=36 velocity=0 time=0
EXTRACT: note_on channel=9 note=39 velocity=62 time=0.0733944
EXTRACT: note_on channel=9 note=61 velocity=44 time=0.0183486
EXTRACT: note_on channel=9 note=39 velocity=0 time=0.0275229
EXTRACT: note_on channel=9 note=61 velocity=0 time=0.0183486
EXTRACT: note_on channel=0 note=34 velocity=0 time=0.08715584999999999
EXTRACT: note_on channel=9 note=64 velocity=50 time=0
EXTRACT: note_on channel=1 note=34 velocity=0 time=0.00458715
EXTRACT: note_on channel=9 note=61 velocity=44 time=0
EXTRACT: note_on channel=9 note=42 velocity=42 time=0
EXTRACT: note_on channel=9 note=64 velocity=0 time=0.04128435
EXTRACT: note_on channel=9 note=61 velocity=0 time=0.00458715
EXTRACT: note_on channel=9 note=42 velocity=0 time=0
EXTRACT: note_on channel=0 note=34 velocity=105 time=0.08715584999999999
EXTRACT: note_on channel=9 note=63 velocity=50 time=0
EXTRACT: note_on channel=1 note=34 velocity=109 time=0.00458715
EXTRACT: note_on channel=9 note=36 velocity=98 time=0
EXTRACT: note_on channel=9 note=63 velocity=0 time=0.04128435
EXTRACT: note_on channel=9 note=36 velocity=0 time=0.00458715
EXTRACT: note_on channel=9 note=39 velocity=65 time=0.0733944
EXTRACT: note_on channel=0 note=34 velocity=0 time=0.01376145
EXTRACT: note_on channel=9 note=64 velocity=50 time=0
EXTRACT: note_on channel=1 note=34 velocity=0 time=0.00458715
EXTRACT: note_on channel=9 note=38 velocity=127 time=0
EXTRACT: note_on channel=9 note=42 velocity=42 time=0
EXTRACT: note_on channel=9 note=39 velocity=0 time=0.0275229
EXTRACT: note_on channel=9 note=64 velocity=0 time=0.01376145
EXTRACT: note_on channel=9 note=38 velocity=0 time=0.00458715
EXTRACT: note_on channel=9 note=42 velocity=0 time=0
EXTRACT: note_on channel=9 note=39 velocity=55 time=0.0733944
EXTRACT: note_on channel=9 note=64 velocity=50 time=0.01376145
EXTRACT: note_on channel=9 note=39 velocity=0 time=0.03211005
EXTRACT: note_on channel=9 note=64 velocity=0 time=0.01376145
EXTRACT: note_on channel=8 note=67 velocity=0 time=0.08715584999999999
EXTRACT: note_on channel=0 note=34 velocity=85 time=0.00458715
EXTRACT: note_on channel=8 note=67 velocity=113 time=0
EXTRACT: note_on channel=9 note=63 velocity=50 time=0
EXTRACT: note_on channel=1 note=34 velocity=95 time=0.00458715
EXTRACT: note_on channel=9 note=69 velocity=75 time=0
EXTRACT: note_on channel=9 note=42 velocity=42 time=0
EXTRACT: note_on channel=9 note=63 velocity=0 time=0.04128435
EXTRACT: note_on channel=9 note=69 velocity=0 time=0.00458715
EXTRACT: note_on channel=9 note=42 velocity=0 time=0
EXTRACT: note_on channel=0 note=34 velocity=0 time=0.08715584999999999
EXTRACT: note_on channel=1 note=34 velocity=0 time=0.00458715
EXTRACT: note_on channel=9 note=69 velocity=82 time=0
EXTRACT: note_on channel=9 note=69 velocity=0 time=0.045871499999999996
EXTRACT: note_on channel=9 note=39 velocity=68 time=0.0733944
EXTRACT: note_on channel=3 note=65 velocity=0 time=0.00458715
EXTRACT: note_on channel=3 note=56 velocity=0 time=0
EXTRACT: note_on channel=3 note=58 velocity=0 time=0
EXTRACT: note_on channel=3 note=61 velocity=0 time=0
EXTRACT: note_on channel=3 note=61 velocity=80 time=0
EXTRACT: note_on channel=3 note=55 velocity=51 time=0
EXTRACT: note_on channel=3 note=58 velocity=67 time=0
EXTRACT: note_on channel=3 note=63 velocity=79 time=0
EXTRACT: note_on channel=8 note=67 velocity=0 time=0.00458715
EXTRACT: note_on channel=0 note=39 velocity=95 time=0.00458715
EXTRACT: note_on channel=4 note=58 velocity=0 time=0
EXTRACT: note_on channel=4 note=65 velocity=0 time=0
EXTRACT: note_on channel=4 note=55 velocity=108 time=0
EXTRACT: note_on channel=4 note=63 velocity=88 time=0
EXTRACT: note_on channel=6 note=32 velocity=106 time=0
EXTRACT: note_on channel=8 note=65 velocity=114 time=0
EXTRACT: note_on channel=1 note=39 velocity=111 time=0.00458715
EXTRACT: note_on channel=9 note=29 velocity=45 time=0
EXTRACT: note_on channel=9 note=36 velocity=92 time=0
EXTRACT: note_on channel=2 note=65 velocity=0 time=0.00458715
EXTRACT: note_on channel=2 note=56 velocity=0 time=0
EXTRACT: note_on channel=2 note=58 velocity=0 time=0
EXTRACT: note_on channel=2 note=61 velocity=0 time=0
EXTRACT: note_on channel=2 note=61 velocity=92 time=0
EXTRACT: note_on channel=2 note=55 velocity=72 time=0
EXTRACT: note_on channel=2 note=58 velocity=85 time=0
EXTRACT: note_on channel=2 note=63 velocity=85 time=0
EXTRACT: note_on channel=9 note=39 velocity=0 time=0.022935749999999998
EXTRACT: note_on channel=9 note=29 velocity=0 time=0.0183486
EXTRACT: note_on channel=9 note=36 velocity=0 time=0
EXTRACT: note_on channel=9 note=39 velocity=73 time=0.0733944
EXTRACT: note_on channel=6 note=32 velocity=0 time=0.0126146625
EXTRACT: note_on channel=6 note=32 velocity=97 time=0.0011467875
EXTRACT: note_on channel=9 note=64 velocity=50 time=0
EXTRACT: note_on channel=9 note=29 velocity=31 time=0.00458715
EXTRACT: note_on channel=9 note=41 velocity=70 time=0
EXTRACT: note_on channel=9 note=39 velocity=0 time=0.0275229
EXTRACT: note_on channel=9 note=64 velocity=0 time=0.01376145
EXTRACT: note_on channel=9 note=29 velocity=0 time=0.00458715
EXTRACT: note_on channel=9 note=41 velocity=0 time=0
EXTRACT: note_on channel=8 note=65 velocity=0 time=0.0825687
EXTRACT: note_on channel=6 note=32 velocity=0 time=0.0034403625
EXTRACT: note_on channel=0 note=39 velocity=0 time=0.0011467875
EXTRACT: note_on channel=6 note=32 velocity=102 time=0
EXTRACT: note_on channel=8 note=63 velocity=113 time=0
EXTRACT: note_on channel=9 note=48 velocity=50 time=0
EXTRACT: note_on channel=1 note=39 velocity=0 time=0.00458715
EXTRACT: note_on channel=9 note=29 velocity=45 time=0
EXTRACT: note_on channel=9 note=36 velocity=92 time=0
EXTRACT: note_on channel=9 note=48 velocity=0 time=0.04128435
EXTRACT: note_on channel=9 note=29 velocity=0 time=0.00458715
EXTRACT: note_on channel=9 note=36 velocity=0 time=0
EXTRACT: note_on channel=6 note=32 velocity=0 time=0.0860090625
EXTRACT: note_on channel=0 note=39 velocity=85 time=0.0011467875
EXTRACT: note_on channel=6 note=32 velocity=94 time=0
EXTRACT: note_on channel=9 note=64 velocity=50 time=0
EXTRACT: note_on channel=1 note=39 velocity=101 time=0.00458715
EXTRACT: note_on channel=9 note=29 velocity=31 time=0
EXTRACT: note_on channel=9 note=41 velocity=70 time=0
EXTRACT: note_on channel=9 note=64 velocity=0 time=0.04128435
EXTRACT: note_on channel=9 note=29 velocity=0 time=0.00458715
EXTRACT: note_on channel=9 note=41 velocity=0 time=0
EXTRACT: note_on channel=9 note=39 velocity=68 time=0.0733944
EXTRACT: note_on channel=8 note=63 velocity=0 time=0.0091743
EXTRACT: note_on channel=6 note=32 velocity=0 time=0.0034403625
EXTRACT: note_on channel=0 note=39 velocity=0 time=0.0011467875
EXTRACT: note_on channel=6 note=32 velocity=98 time=0
EXTRACT: note_on channel=8 note=63 velocity=102 time=0
EXTRACT: note_on channel=9 note=63 velocity=50 time=0
EXTRACT: note_on channel=1 note=39 velocity=0 time=0.00458715
EXTRACT: note_on channel=9 note=29 velocity=45 time=0
EXTRACT: note_on channel=9 note=38 velocity=127 time=0
EXTRACT: note_on channel=9 note=36 velocity=92 time=0
EXTRACT: note_on channel=9 note=39 velocity=0 time=0.0275229
EXTRACT: note_on channel=9 note=63 velocity=0 time=0.01376145
EXTRACT: note_on channel=9 note=29 velocity=0 time=0.00458715
EXTRACT: note_on channel=9 note=38 velocity=0 time=0
EXTRACT: note_on channel=9 note=36 velocity=0 time=0
EXTRACT: note_on channel=9 note=39 velocity=34 time=0.0733944
EXTRACT: note_on channel=6 note=32 velocity=0 time=0.0126146625
EXTRACT: note_on channel=6 note=32 velocity=79 time=0.0011467875
EXTRACT: note_on channel=9 note=29 velocity=31 time=0.00458715
EXTRACT: note_on channel=9 note=41 velocity=70 time=0
EXTRACT: note_on channel=9 note=39 velocity=0 time=0.0275229
EXTRACT: note_on channel=9 note=29 velocity=0 time=0.0183486
EXTRACT: note_on channel=9 note=41 velocity=0 time=0
EXTRACT: note_on channel=9 note=39 velocity=56 time=0.0733944
EXTRACT: note_on channel=6 note=32 velocity=0 time=0.0126146625
EXTRACT: note_on channel=6 note=32 velocity=90 time=0.0011467875
EXTRACT: note_on channel=9 note=61 velocity=44 time=0.00458715
EXTRACT: note_on channel=9 note=29 velocity=45 time=0
EXTRACT: note_on channel=9 note=36 velocity=92 time=0
EXTRACT: note_on channel=9 note=39 velocity=0 time=0.0275229
EXTRACT: note_on channel=9 note=61 velocity=0 time=0.0183486
EXTRACT: note_on channel=9 note=29 velocity=0 time=0
EXTRACT: note_on channel=9 note=36 velocity=0 time=0
EXTRACT: note_on channel=9 note=39 velocity=44 time=0.0733944
EXTRACT: note_on channel=6 note=32 velocity=0 time=0.0126146625
EXTRACT: note_on channel=6 note=32 velocity=64 time=0.0011467875
EXTRACT: note_on channel=9 note=61 velocity=44 time=0.00458715
EXTRACT: note_on channel=9 note=29 velocity=31 time=0
EXTRACT: note_on channel=9 note=41 velocity=70 time=0
EXTRACT: note_on channel=9 note=39 velocity=0 time=0.0275229
EXTRACT: note_on channel=9 note=61 velocity=0 time=0.0183486
EXTRACT: note_on channel=9 note=29 velocity=0 time=0
EXTRACT: note_on channel=9 note=41 velocity=0 time=0
EXTRACT: note_on channel=3 note=61 velocity=0 time=0.07798155
EXTRACT: note_on channel=3 note=55 velocity=0 time=0
EXTRACT: note_on channel=3 note=58 velocity=0 time=0
EXTRACT: note_on channel=3 note=63 velocity=0 time=0
EXTRACT: note_on channel=3 note=44 velocity=16 time=0
EXTRACT: note_on channel=3 note=55 velocity=61 time=0
EXTRACT: note_on channel=3 note=63 velocity=71 time=0
EXTRACT: note_on channel=3 note=60 velocity=79 time=0
EXTRACT: note_on channel=8 note=63 velocity=0 time=0.00458715
EXTRACT: note_on channel=0 note=32 velocity=88 time=0.00458715
EXTRACT: note_on channel=4 note=55 velocity=0 time=0
EXTRACT: note_on channel=4 note=63 velocity=0 time=0
EXTRACT: note_on channel=4 note=55 velocity=108 time=0
EXTRACT: note_on channel=4 note=63 velocity=101 time=0
EXTRACT: note_on channel=6 note=32 velocity=0 time=0
EXTRACT: note_on channel=8 note=67 velocity=87 time=0
EXTRACT: note_on channel=1 note=32 velocity=92 time=0.00458715
EXTRACT: note_on channel=9 note=61 velocity=44 time=0
EXTRACT: note_on channel=9 note=57 velocity=95 time=0
EXTRACT: note_on channel=9 note=36 velocity=98 time=0
EXTRACT: note_on channel=2 note=61 velocity=0 time=0.00458715
EXTRACT: note_on channel=2 note=55 velocity=0 time=0
EXTRACT: note_on channel=2 note=58 velocity=0 time=0
EXTRACT: note_on channel=2 note=63 velocity=0 time=0
EXTRACT: note_on channel=2 note=44 velocity=31 time=0
EXTRACT: note_on channel=2 note=55 velocity=72 time=0
EXTRACT: note_on channel=2 note=63 velocity=80 time=0
EXTRACT: note_on channel=2 note=60 velocity=86 time=0
EXTRACT: note_on channel=9 note=61 velocity=0 time=0.04128435
EXTRACT: note_on channel=9 note=57 velocity=0 time=0
EXTRACT: note_on channel=9 note=36 velocity=0 time=0
EXTRACT: note_on channel=9 note=39 velocity=73 time=0.2110089
EXTRACT: note_on channel=0 note=32 velocity=0 time=0.01376145
EXTRACT: note_on channel=1 note=32 velocity=0 time=0.00458715
EXTRACT: note_on channel=9 note=42 velocity=42 time=0
EXTRACT: note_on channel=9 note=39 velocity=0 time=0.0275229
EXTRACT: note_on channel=9 note=42 velocity=0 time=0.0183486
EXTRACT: note_on channel=0 note=32 velocity=105 time=0.08715584999999999
EXTRACT: note_on channel=1 note=32 velocity=99 time=0.00458715
EXTRACT: note_on channel=9 note=61 velocity=44 time=0
EXTRACT: note_on channel=9 note=36 velocity=98 time=0
EXTRACT: note_on channel=9 note=61 velocity=0 time=0.045871499999999996
EXTRACT: note_on channel=9 note=36 velocity=0 time=0
EXTRACT: note_on channel=0 note=32 velocity=0 time=0.08715584999999999
EXTRACT: note_on channel=1 note=32 velocity=0 time=0.00458715
EXTRACT: note_on channel=9 note=38 velocity=127 time=0
EXTRACT: note_on channel=9 note=42 velocity=42 time=0
EXTRACT: note_on channel=9 note=38 velocity=0 time=0.045871499999999996
EXTRACT: note_on channel=9 note=42 velocity=0 time=0
EXTRACT: note_on channel=9 note=39 velocity=63 time=0.0733944
EXTRACT: note_on channel=9 note=39 velocity=0 time=0.045871499999999996
EXTRACT: note_on channel=8 note=67 velocity=0 time=0.1009173
EXTRACT: note_on channel=8 note=67 velocity=97 time=0.00458715
EXTRACT: note_on channel=9 note=69 velocity=79 time=0.00458715
EXTRACT: note_on channel=9 note=42 velocity=42 time=0
EXTRACT: note_on channel=9 note=69 velocity=0 time=0.045871499999999996
EXTRACT: note_on channel=9 note=42 velocity=0 time=0
EXTRACT: note_on channel=9 note=69 velocity=81 time=0.09174299999999999
EXTRACT: note_on channel=9 note=69 velocity=0 time=0.045871499999999996
EXTRACT: note_on channel=9 note=39 velocity=58 time=0.0733944
EXTRACT: note_on channel=8 note=67 velocity=0 time=0.0091743
EXTRACT: note_on channel=8 note=65 velocity=90 time=0.00458715
EXTRACT: note_on channel=9 note=69 velocity=82 time=0.00458715
EXTRACT: note_on channel=9 note=42 velocity=42 time=0
EXTRACT: note_on channel=9 note=39 velocity=0 time=0.0275229
EXTRACT: note_on channel=9 note=69 velocity=0 time=0.0183486
EXTRACT: note_on channel=9 note=42 velocity=0 time=0
EXTRACT: note_on channel=8 note=65 velocity=0 time=0.2201832
EXTRACT: note_on channel=8 note=63 velocity=112 time=0.00458715
EXTRACT: note_on channel=9 note=42 velocity=42 time=0.00458715
EXTRACT: note_on channel=9 note=36 velocity=98 time=0
EXTRACT: note_on channel=9 note=42 velocity=0 time=0.045871499999999996
EXTRACT: note_on channel=9 note=36 velocity=0 time=0
EXTRACT: note_on channel=9 note=39 velocity=52 time=0.0733944
EXTRACT: note_on channel=9 note=39 velocity=0 time=0.045871499999999996
EXTRACT: note_on channel=8 note=63 velocity=0 time=0.1009173
EXTRACT: note_on channel=8 note=63 velocity=114 time=0.00458715
EXTRACT: note_on channel=9 note=38 velocity=127 time=0.00458715
EXTRACT: note_on channel=9 note=42 velocity=42 time=0
EXTRACT: note_on channel=9 note=38 velocity=0 time=0.045871499999999996
EXTRACT: note_on channel=9 note=42 velocity=0 time=0
EXTRACT: note_on channel=9 note=69 velocity=75 time=0.2293575
EXTRACT: note_on channel=9 note=61 velocity=44 time=0
EXTRACT: note_on channel=9 note=42 velocity=42 time=0
EXTRACT: note_on channel=9 note=69 velocity=0 time=0.045871499999999996
EXTRACT: note_on channel=9 note=61 velocity=0 time=0
EXTRACT: note_on channel=9 note=42 velocity=0 time=0
EXTRACT: note_on channel=9 note=61 velocity=44 time=0.09174299999999999
EXTRACT: note_on channel=9 note=61 velocity=0 time=0.045871499999999996
EXTRACT: note_on channel=3 note=44 velocity=0 time=0.07798155
EXTRACT: note_on channel=3 note=55 velocity=0 time=0
EXTRACT: note_on channel=3 note=63 velocity=0 time=0
EXTRACT: note_on channel=3 note=60 velocity=0 time=0
EXTRACT: note_on channel=3 note=55 velocity=68 time=0
EXTRACT: note_on channel=3 note=63 velocity=77 time=0
EXTRACT: note_on channel=3 note=59 velocity=67 time=0
EXTRACT: note_on channel=8 note=63 velocity=0 time=0.00458715
EXTRACT: note_on channel=0 note=31 velocity=86 time=0.00458715
EXTRACT: note_on channel=8 note=67 velocity=96 time=0
EXTRACT: note_on channel=1 note=31 velocity=100 time=0.00458715
EXTRACT: note_on channel=9 note=61 velocity=44 time=0
EXTRACT: note_on channel=9 note=42 velocity=42 time=0
EXTRACT: note_on channel=9 note=36 velocity=98 time=0
EXTRACT: note_on channel=2 note=44 velocity=0 time=0.00458715
EXTRACT: note_on channel=2 note=55 velocity=0 time=0
EXTRACT: note_on channel=2 note=63 velocity=0 time=0
EXTRACT: note_on channel=2 note=60 velocity=0 time=0
EXTRACT: note_on channel=2 note=55 velocity=92 time=0
EXTRACT: note_on channel=2 note=63 velocity=81 time=0
EXTRACT: note_on channel=2 note=59 velocity=80 time=0
EXTRACT: note_on channel=9 note=61 velocity=0 time=0.04128435
EXTRACT: note_on channel=9 note=42 velocity=0 time=0
EXTRACT: note_on channel=9 note=36 velocity=0 time=0
EXTRACT: note_on channel=9 note=61 velocity=44 time=0.09174299999999999
EXTRACT: note_on channel=9 note=61 velocity=0 time=0.045871499999999996
EXTRACT: note_on channel=9 note=39 velocity=53 time=0.0733944
EXTRACT: note_on channel=0 note=31 velocity=0 time=0.01376145
EXTRACT: note_on channel=9 note=64 velocity=50 time=0
EXTRACT: note_on channel=1 note=31 velocity=0 time=0.00458715
EXTRACT: note_on channel=9 note=61 velocity=44 time=0
EXTRACT: note_on channel=9 note=42 velocity=42 time=0
EXTRACT: note_on channel=9 note=39 velocity=0 time=0.0275229
EXTRACT: note_on channel=9 note=64 velocity=0 time=0.01376145
EXTRACT: note_on channel=9 note=61 velocity=0 time=0.00458715
EXTRACT: note_on channel=9 note=42 velocity=0 time=0
EXTRACT: note_on channel=0 note=31 velocity=84 time=0.08715584999999999
EXTRACT: note_on channel=9 note=63 velocity=50 time=0
EXTRACT: note_on channel=1 note=31 velocity=100 time=0.00458715
EXTRACT: note_on channel=9 note=36 velocity=98 time=0
EXTRACT: note_on channel=9 note=63 velocity=0 time=0.04128435
EXTRACT: note_on channel=9 note=36 velocity=0 time=0.00458715
EXTRACT: note_on channel=0 note=31 velocity=0 time=0.08715584999999999
EXTRACT: note_on channel=9 note=64 velocity=50 time=0
EXTRACT: note_on channel=1 note=31 velocity=0 time=0.00458715
EXTRACT: note_on channel=9 note=38 velocity=127 time=0
EXTRACT: note_on channel=9 note=42 velocity=42 time=0
EXTRACT: note_on channel=9 note=64 velocity=0 time=0.04128435
EXTRACT: note_on channel=9 note=38 velocity=0 time=0.00458715
EXTRACT: note_on channel=9 note=42 velocity=0 time=0
EXTRACT: note_on channel=9 note=39 velocity=64 time=0.0733944
EXTRACT: note_on channel=9 note=64 velocity=50 time=0.01376145
EXTRACT: note_on channel=9 note=39 velocity=0 time=0.03211005
EXTRACT: note_on channel=9 note=64 velocity=0 time=0.01376145
EXTRACT: note_on channel=8 note=67 velocity=0 time=0.08715584999999999
EXTRACT: note_on channel=8 note=67 velocity=104 time=0.00458715
EXTRACT: note_on channel=9 note=63 velocity=50 time=0
EXTRACT: note_on channel=9 note=69 velocity=76 time=0.00458715
EXTRACT: note_on channel=9 note=42 velocity=42 time=0
EXTRACT: note_on channel=9 note=63 velocity=0 time=0.04128435
EXTRACT: note_on channel=9 note=69 velocity=0 time=0.00458715
EXTRACT: note_on channel=9 note=42 velocity=0 time=0
EXTRACT: note_on channel=9 note=69 velocity=78 time=0.09174299999999999
EXTRACT: note_on channel=9 note=69 velocity=0 time=0.045871499999999996
EXTRACT: note_on channel=9 note=39 velocity=68 time=0.0733944
EXTRACT: note_on channel=8 note=67 velocity=0 time=0.0091743
EXTRACT: note_on channel=8 note=65 velocity=87 time=0.00458715
EXTRACT: note_on channel=9 note=69 velocity=80 time=0.00458715
EXTRACT: note_on channel=9 note=42 velocity=42 time=0
EXTRACT: note_on channel=9 note=39 velocity=0 time=0.0275229
EXTRACT: note_on channel=9 note=69 velocity=0 time=0.0183486
EXTRACT: note_on channel=9 note=42 velocity=0 time=0
EXTRACT: note_on channel=9 note=64 velocity=50 time=0.08715584999999999
EXTRACT: note_on channel=9 note=64 velocity=0 time=0.045871499999999996
EXTRACT: note_on channel=8 note=65 velocity=0 time=0.08715584999999999
EXTRACT: note_on channel=8 note=63 velocity=112 time=0.00458715
EXTRACT: note_on channel=9 note=48 velocity=50 time=0
EXTRACT: note_on channel=9 note=42 velocity=42 time=0.00458715
EXTRACT: note_on channel=9 note=36 velocity=98 time=0
EXTRACT: note_on channel=9 note=48 velocity=0 time=0.04128435
EXTRACT: note_on channel=9 note=42 velocity=0 time=0.00458715
EXTRACT: note_on channel=9 note=36 velocity=0 time=0
EXTRACT: note_on channel=9 note=39 velocity=64 time=0.0733944
EXTRACT: note_on channel=9 note=64 velocity=50 time=0.01376145
EXTRACT: note_on channel=9 note=39 velocity=0 time=0.03211005
EXTRACT: note_on channel=9 note=64 velocity=0 time=0.01376145
EXTRACT: note_on channel=8 note=63 velocity=0 time=0.08715584999999999
EXTRACT: note_on channel=8 note=63 velocity=96 time=0.00458715
EXTRACT: note_on channel=9 note=63 velocity=50 time=0
EXTRACT: note_on channel=9 note=38 velocity=127 time=0.00458715
EXTRACT: note_on channel=9 note=42 velocity=42 time=0
EXTRACT: note_on channel=9 note=63 velocity=0 time=0.04128435
EXTRACT: note_on channel=9 note=38 velocity=0 time=0.00458715
EXTRACT: note_on channel=9 note=42 velocity=0 time=0
EXTRACT: note_on channel=9 note=61 velocity=44 time=0.2293575
EXTRACT: note_on channel=9 note=36 velocity=92 time=0
EXTRACT: note_on channel=9 note=42 velocity=42 time=0
EXTRACT: note_on channel=9 note=61 velocity=0 time=0.045871499999999996
EXTRACT: note_on channel=9 note=36 velocity=0 time=0
EXTRACT: note_on channel=9 note=42 velocity=0 time=0
EXTRACT: note_on channel=9 note=61 velocity=44 time=0.09174299999999999
EXTRACT: note_on channel=9 note=36 velocity=92 time=0
EXTRACT: note_on channel=9 note=61 velocity=0 time=0.045871499999999996
EXTRACT: note_on channel=9 note=36 velocity=0 time=0
EXTRACT: note_on channel=3 note=55 velocity=0 time=0.07798155
EXTRACT: note_on channel=3 note=63 velocity=0 time=0
EXTRACT: note_on channel=3 note=59 velocity=0 time=0
EXTRACT: note_on channel=3 note=55 velocity=74 time=0
EXTRACT: note_on channel=3 note=60 velocity=77 time=0
EXTRACT: note_on channel=3 note=63 velocity=51 time=0
EXTRACT: note_on channel=8 note=63 velocity=0 time=0.00458715
EXTRACT: note_on channel=0 note=36 velocity=83 time=0.00458715
EXTRACT: note_on channel=8 note=63 velocity=81 time=0
EXTRACT: note_on channel=8 note=72 velocity=87 time=0
EXTRACT: note_on channel=8 note=68 velocity=116 time=0
EXTRACT: note_on channel=1 note=36 velocity=110 time=0.00458715
EXTRACT: note_on channel=9 note=61 velocity=44 time=0
EXTRACT: note_on channel=9 note=42 velocity=42 time=0
EXTRACT: note_on channel=9 note=36 velocity=98 time=0
EXTRACT: note_on channel=2 note=55 velocity=0 time=0.00458715
EXTRACT: note_on channel=2 note=63 velocity=0 time=0
EXTRACT: note_on channel=2 note=59 velocity=0 time=0
EXTRACT: note_on channel=2 note=55 velocity=76 time=0
EXTRACT: note_on channel=2 note=60 velocity=88 time=0
EXTRACT: note_on channel=2 note=63 velocity=60 time=0
EXTRACT: note_on channel=9 note=61 velocity=0 time=0.04128435
EXTRACT: note_on channel=9 note=42 velocity=0 time=0
EXTRACT: note_on channel=9 note=36 velocity=0 time=0
EXTRACT: note_on channel=9 note=39 velocity=69 time=0.2110089
EXTRACT: note_on channel=0 note=36 velocity=0 time=0.01376145
EXTRACT: note_on channel=1 note=36 velocity=0 time=0.00458715
EXTRACT: note_on channel=9 note=42 velocity=42 time=0
EXTRACT: note_on channel=9 note=39 velocity=0 time=0.0275229
EXTRACT: note_on channel=9 note=42 velocity=0 time=0.0183486
EXTRACT: note_on channel=0 note=36 velocity=99 time=0.08715584999999999
EXTRACT: note_on channel=1 note=36 velocity=106 time=0.00458715
EXTRACT: note_on channel=9 note=61 velocity=44 time=0
EXTRACT: note_on channel=9 note=36 velocity=98 time=0
EXTRACT: note_on channel=9 note=61 velocity=0 time=0.045871499999999996
EXTRACT: note_on channel=9 note=36 velocity=0 time=0
EXTRACT: note_on channel=8 note=63 velocity=0 time=0.0825687
EXTRACT: note_on channel=8 note=72 velocity=0 time=0
EXTRACT: note_on channel=8 note=68 velocity=0 time=0
EXTRACT: note_on channel=0 note=36 velocity=0 time=0.00458715
EXTRACT: note_on channel=8 note=63 velocity=77 time=0
EXTRACT: note_on channel=8 note=70 velocity=85 time=0
EXTRACT: note_on channel=8 note=67 velocity=109 time=0
EXTRACT: note_on channel=1 note=36 velocity=0 time=0.00458715
EXTRACT: note_on channel=9 note=38 velocity=127 time=0
EXTRACT: note_on channel=9 note=42 velocity=42 time=0
EXTRACT: note_on channel=9 note=38 velocity=0 time=0.045871499999999996
EXTRACT: note_on channel=9 note=42 velocity=0 time=0
EXTRACT: note_on channel=9 note=39 velocity=51 time=0.0733944
EXTRACT: note_on channel=9 note=39 velocity=0 time=0.045871499999999996
EXTRACT: note_on channel=9 note=69 velocity=74 time=0.1100916
EXTRACT: note_on channel=9 note=42 velocity=42 time=0
EXTRACT: note_on channel=9 note=69 velocity=0 time=0.045871499999999996
EXTRACT: note_on channel=9 note=42 velocity=0 time=0
EXTRACT: note_on channel=9 note=69 velocity=75 time=0.09174299999999999
EXTRACT: note_on channel=9 note=69 velocity=0 time=0.045871499999999996
EXTRACT: note_on channel=9 note=39 velocity=66 time=0.0733944
EXTRACT: note_on channel=8 note=63 velocity=0 time=0.0091743
EXTRACT: note_on channel=8 note=70 velocity=0 time=0
EXTRACT: note_on channel=8 note=67 velocity=0 time=0
EXTRACT: note_on channel=8 note=60 velocity=103 time=0.00458715
EXTRACT: note_on channel=8 note=68 velocity=74 time=0
EXTRACT: note_on channel=8 note=65 velocity=93 time=0
EXTRACT: note_on channel=9 note=69 velocity=75 time=0.00458715
EXTRACT: note_on channel=9 note=42 velocity=42 time=0
EXTRACT: note_on channel=9 note=39 velocity=0 time=0.0275229
EXTRACT: note_on channel=9 note=69 velocity=0 time=0.0183486
EXTRACT: note_on channel=9 note=42 velocity=0 time=0
EXTRACT: note_on channel=9 note=42 velocity=42 time=0.2293575
EXTRACT: note_on channel=9 note=36 velocity=98 time=0
EXTRACT: note_on channel=9 note=42 velocity=0 time=0.045871499999999996
EXTRACT: note_on channel=9 note=36 velocity=0 time=0
EXTRACT: note_on channel=9 note=39 velocity=56 time=0.0733944
EXTRACT: note_on channel=9 note=39 velocity=0 time=0.045871499999999996
EXTRACT: note_on channel=8 note=60 velocity=0 time=0.1009173
EXTRACT: note_on channel=8 note=68 velocity=0 time=0
EXTRACT: note_on channel=8 note=65 velocity=0 time=0
EXTRACT: note_on channel=8 note=58 velocity=97 time=0.00458715
EXTRACT: note_on channel=8 note=67 velocity=109 time=0
EXTRACT: note_on channel=8 note=63 velocity=113 time=0
EXTRACT: note_on channel=9 note=38 velocity=127 time=0.00458715
EXTRACT: note_on channel=9 note=42 velocity=42 time=0
EXTRACT: note_on channel=9 note=38 velocity=0 time=0.045871499999999996
EXTRACT: note_on channel=9 note=42 velocity=0 time=0
EXTRACT: note_on channel=9 note=69 velocity=81 time=0.2293575
EXTRACT: note_on channel=9 note=61 velocity=44 time=0
EXTRACT: note_on channel=9 note=42 velocity=42 time=0
EXTRACT: note_on channel=9 note=69 velocity=0 time=0.045871499999999996
EXTRACT: note_on channel=9 note=61 velocity=0 time=0
EXTRACT: note_on channel=9 note=42 velocity=0 time=0
EXTRACT: note_on channel=9 note=61 velocity=44 time=0.09174299999999999
EXTRACT: note_on channel=9 note=61 velocity=0 time=0.045871499999999996
EXTRACT: note_on channel=9 note=39 velocity=52 time=0.0733944
EXTRACT: note_on channel=3 note=55 velocity=0 time=0.00458715
EXTRACT: note_on channel=3 note=60 velocity=0 time=0
EXTRACT: note_on channel=3 note=63 velocity=0 time=0
EXTRACT: note_on channel=3 note=65 velocity=73 time=0
EXTRACT: note_on channel=3 note=56 velocity=62 time=0
EXTRACT: note_on channel=3 note=58 velocity=78 time=0
EXTRACT: note_on channel=3 note=61 velocity=74 time=0
EXTRACT: note_on channel=8 note=58 velocity=0 time=0.00458715
EXTRACT: note_on channel=8 note=67 velocity=0 time=0
EXTRACT: note_on channel=8 note=63 velocity=0 time=0
EXTRACT: note_on channel=0 note=34 velocity=101 time=0.00458715
EXTRACT: note_on channel=4 note=55 velocity=0 time=0
EXTRACT: note_on channel=4 note=63 velocity=0 time=0
EXTRACT: note_on channel=4 note=58 velocity=104 time=0
EXTRACT: note_on channel=4 note=65 velocity=82 time=0
EXTRACT: note_on channel=8 note=67 velocity=104 time=0
EXTRACT: note_on channel=1 note=34 velocity=98 time=0.00458715
EXTRACT: note_on channel=9 note=61 velocity=44 time=0
EXTRACT: note_on channel=9 note=42 velocity=42 time=0
EXTRACT: note_on channel=9 note=36 velocity=98 time=0
EXTRACT: note_on channel=2 note=55 velocity=0 time=0.00458715
EXTRACT: note_on channel=2 note=60 velocity=0 time=0
EXTRACT: note_on channel=2 note=63 velocity=0 time=0
EXTRACT: note_on channel=2 note=65 velocity=89 time=0
EXTRACT: note_on channel=2 note=56 velocity=82 time=0
EXTRACT: note_on channel=2 note=58 velocity=86 time=0
EXTRACT: note_on channel=2 note=61 velocity=78 time=0
EXTRACT: note_on channel=9 note=39 velocity=0 time=0.022935749999999998
EXTRACT: note_on channel=9 note=61 velocity=0 time=0.0183486
EXTRACT: note_on channel=9 note=42 velocity=0 time=0
EXTRACT: note_on channel=9 note=36 velocity=0 time=0
EXTRACT: note_on channel=9 note=39 velocity=62 time=0.0733944
EXTRACT: note_on channel=9 note=61 velocity=44 time=0.0183486
EXTRACT: note_on channel=9 note=39 velocity=0 time=0.0275229
EXTRACT: note_on channel=9 note=61 velocity=0 time=0.0183486
EXTRACT: note_on channel=0 note=34 velocity=0 time=0.08715584999999999
EXTRACT: note_on channel=9 note=64 velocity=50 time=0
EXTRACT: note_on channel=1 note=34 velocity=0 time=0.00458715
EXTRACT: note_on channel=9 note=61 velocity=44 time=0
EXTRACT: note_on channel=9 note=42 velocity=42 time=0
EXTRACT: note_on channel=9 note=64 velocity=0 time=0.04128435
EXTRACT: note_on channel=9 note=61 velocity=0 time=0.00458715
EXTRACT: note_on channel=9 note=42 velocity=0 time=0
EXTRACT: note_on channel=0 note=34 velocity=83 time=0.08715584999999999
EXTRACT: note_on channel=9 note=63 velocity=50 time=0
EXTRACT: note_on channel=1 note=34 velocity=111 time=0.00458715
EXTRACT: note_on channel=9 note=36 velocity=98 time=0
EXTRACT: note_on channel=9 note=63 velocity=0 time=0.04128435
EXTRACT: note_on channel=9 note=36 velocity=0 time=0.00458715
EXTRACT: note_on channel=9 note=39 velocity=58 time=0.0733944
EXTRACT: note_on channel=0 note=34 velocity=0 time=0.01376145
EXTRACT: note_on channel=9 note=64 velocity=50 time=0
EXTRACT: note_on channel=1 note=34 velocity=0 time=0.00458715
EXTRACT: note_on channel=9 note=38 velocity=127 time=0
EXTRACT: note_on channel=9 note=42 velocity=42 time=0
EXTRACT: note_on channel=9 note=39 velocity=0 time=0.0275229
EXTRACT: note_on channel=9 note=64 velocity=0 time=0.01376145
EXTRACT: note_on channel=9 note=38 velocity=0 time=0.00458715
EXTRACT: note_on channel=9 note=42 velocity=0 time=0
EXTRACT: note_on channel=9 note=39 velocity=68 time=0.0733944
EXTRACT: note_on channel=9 note=64 velocity=50 time=0.01376145
EXTRACT: note_on channel=9 note=39 velocity=0 time=0.03211005
EXTRACT: note_on channel=9 note=64 velocity=0 time=0.01376145
EXTRACT: note_on channel=8 note=67 velocity=0 time=0.08715584999999999
EXTRACT: note_on channel=0 note=34 velocity=96 time=0.00458715
EXTRACT: note_on channel=8 note=67 velocity=87 time=0
EXTRACT: note_on channel=9 note=63 velocity=50 time=0
EXTRACT: note_on channel=1 note=34 velocity=102 time=0.00458715
EXTRACT: note_on channel=9 note=69 velocity=82 time=0
EXTRACT: note_on channel=9 note=42 velocity=42 time=0
EXTRACT: note_on channel=9 note=63 velocity=0 time=0.04128435
EXTRACT: note_on channel=9 note=69 velocity=0 time=0.00458715
EXTRACT: note_on channel=9 note=42 velocity=0 time=0
EXTRACT: note_on channel=0 note=34 velocity=0 time=0.08715584999999999
EXTRACT: note_on channel=1 note=34 velocity=0 time=0.00458715
EXTRACT: note_on channel=9 note=69 velocity=77 time=0
EXTRACT: note_on channel=9 note=69 velocity=0 time=0.045871499999999996
EXTRACT: note_on channel=9 note=39 velocity=55 time=0.0733944
EXTRACT: note_on channel=3 note=65 velocity=0 time=0.00458715
EXTRACT: note_on channel=3 note=56 velocity=0 time=0
EXTRACT: note_on channel=3 note=58 velocity=0 time=0
EXTRACT: note_on channel=3 note=61 velocity=0 time=0
EXTRACT: note_on channel=3 note=61 velocity=74 time=0
EXTRACT: note_on channel=3 note=55 velocity=52 time=0
EXTRACT: note_on channel=3 note=58 velocity=61 time=0
EXTRACT: note_on channel=3 note=63 velocity=79 time=0
EXTRACT: note_on channel=8 note=67 velocity=0 time=0.00458715
EXTRACT: note_on channel=0 note=39 velocity=93 time=0.00458715
EXTRACT: note_on channel=4 note=58 velocity=0 time=0
EXTRACT: note_on channel=4 note=65 velocity=0 time=0
EXTRACT: note_on channel=4 note=55 velocity=109 time=0
EXTRACT: note_on channel=4 note=63 velocity=102 time=0
EXTRACT: note_on channel=8 note=65 velocity=112 time=0
EXTRACT: note_on channel=1 note=39 velocity=114 time=0.00458715
EXTRACT: note_on channel=9 note=69 velocity=82 time=0
EXTRACT: note_on channel=9 note=42 velocity=42 time=0
EXTRACT: note_on channel=2 note=65 velocity=0 time=0.00458715
EXTRACT: note_on channel=2 note=56 velocity=0 time=0
EXTRACT: note_on channel=2 note=58 velocity=0 time=0
EXTRACT: note_on channel=2 note=61 velocity=0 time=0
EXTRACT: note_on channel=2 note=61 velocity=75 time=0
EXTRACT: note_on channel=2 note=55 velocity=72 time=0
EXTRACT: note_on channel=2 note=58 velocity=80 time=0
EXTRACT: note_on channel=2 note=63 velocity=79 time=0
EXTRACT: note_on channel=9 note=39 velocity=0 time=0.022935749999999998
EXTRACT: note_on channel=9 note=69 velocity=0 time=0.0183486
EXTRACT: note_on channel=9 note=42 velocity=0 time=0
EXTRACT: note_on channel=9 note=39 velocity=61 time=0.0733944
EXTRACT: note_on channel=9 note=64 velocity=50 time=0.01376145
EXTRACT: note_on channel=9 note=39 velocity=0 time=0.03211005
EXTRACT: note_on channel=9 note=64 velocity=0 time=0.01376145
EXTRACT: note_on channel=8 note=65 velocity=0 time=0.08715584999999999
EXTRACT: note_on channel=0 note=39 velocity=0 time=0.00458715
EXTRACT: note_on channel=8 note=63 velocity=97 time=0
EXTRACT: note_on channel=9 note=48 velocity=50 time=0
EXTRACT: note_on channel=1 note=39 velocity=0 time=0.00458715
EXTRACT: note_on channel=9 note=42 velocity=42 time=0
EXTRACT: note_on channel=9 note=36 velocity=98 time=0
EXTRACT: note_on channel=9 note=48 velocity=0 time=0.04128435
EXTRACT: note_on channel=9 note=42 velocity=0 time=0.00458715
EXTRACT: note_on channel=9 note=36 velocity=0 time=0
EXTRACT: note_on channel=0 note=39 velocity=89 time=0.08715584999999999
EXTRACT: note_on channel=9 note=64 velocity=50 time=0
EXTRACT: note_on channel=1 note=39 velocity=99 time=0.00458715
EXTRACT: note_on channel=9 note=64 velocity=0 time=0.04128435
EXTRACT: note_on channel=9 note=39 velocity=61 time=0.07798155
EXTRACT: note_on channel=8 note=63 velocity=0 time=0.0091743
EXTRACT: note_on channel=0 note=39 velocity=0 time=0.00458715
EXTRACT: note_on channel=8 note=63 velocity=88 time=0
EXTRACT: note_on channel=9 note=63 velocity=50 time=0
EXTRACT: note_on channel=1 note=39 velocity=0 time=0.00458715
EXTRACT: note_on channel=9 note=38 velocity=127 time=0
EXTRACT: note_on channel=9 note=42 velocity=42 time=0
EXTRACT: note_on channel=9 note=39 velocity=0 time=0.0275229
EXTRACT: note_on channel=9 note=63 velocity=0 time=0.01376145
EXTRACT: note_on channel=9 note=38 velocity=0 time=0.00458715
EXTRACT: note_on channel=9 note=42 velocity=0 time=0
EXTRACT: note_on channel=9 note=39 velocity=33 time=0.0733944
EXTRACT: note_on channel=9 note=39 velocity=0 time=0.045871499999999996
EXTRACT: note_on channel=9 note=39 velocity=57 time=0.09174299999999999
EXTRACT: note_on channel=9 note=61 velocity=44 time=0.0183486
EXTRACT: note_on channel=9 note=36 velocity=92 time=0
EXTRACT: note_on channel=9 note=42 velocity=42 time=0
EXTRACT: note_on channel=9 note=39 velocity=0 time=0.0275229
EXTRACT: note_on channel=9 note=61 velocity=0 time=0.0183486
EXTRACT: note_on channel=9 note=36 velocity=0 time=0
EXTRACT: note_on channel=9 note=42 velocity=0 time=0
EXTRACT: note_on channel=9 note=39 velocity=47 time=0.0733944
EXTRACT: note_on channel=9 note=61 velocity=44 time=0.0183486
EXTRACT: note_on channel=9 note=36 velocity=92 time=0
EXTRACT: note_on channel=9 note=39 velocity=0 time=0.0275229
EXTRACT: note_on channel=9 note=61 velocity=0 time=0.0183486
EXTRACT: note_on channel=9 note=36 velocity=0 time=0
EXTRACT: note_on channel=3 note=61 velocity=0 time=0.07798155
EXTRACT: note_on channel=3 note=55 velocity=0 time=0
EXTRACT: note_on channel=3 note=58 velocity=0 time=0
EXTRACT: note_on channel=3 note=63 velocity=0 time=0
EXTRACT: note_on channel=3 note=44 velocity=21 time=0
EXTRACT: note_on channel=3 note=55 velocity=64 time=0
EXTRACT: note_on channel=3 note=63 velocity=59 time=0
EXTRACT: note_on channel=3 note=60 velocity=67 time=0
EXTRACT: note_on channel=8 note=63 velocity=0 time=0.00458715
EXTRACT: note_on channel=0 note=32 velocity=97 time=0.00458715
EXTRACT: note_on channel=4 note=55 velocity=0 time=0
EXTRACT: note_on channel=4 note=63 velocity=0 time=0
EXTRACT: note_on channel=4 note=55 velocity=96 time=0
EXTRACT: note_on channel=4 note=63 velocity=95 time=0
EXTRACT: note_on channel=8 note=67 velocity=107 time=0
EXTRACT: note_on channel=1 note=32 velocity=109 time=0.00458715
EXTRACT: note_on channel=9 note=61 velocity=44 time=0
EXTRACT: note_on channel=9 note=42 velocity=42 time=0
EXTRACT: note_on channel=9 note=36 velocity=98 time=0
EXTRACT: note_on channel=2 note=61 velocity=0 time=0.00458715
EXTRACT: note_on channel=2 note=55 velocity=0 time=0
EXTRACT: note_on channel=2 note=58 velocity=0 time=0
EXTRACT: note_on channel=2 note=63 velocity=0 time=0
EXTRACT: note_on channel=2 note=44 velocity=45 time=0
EXTRACT: note_on channel=2 note=55 velocity=62 time=0
EXTRACT: note_on channel=2 note=63 velocity=71 time=0
EXTRACT: note_on channel=2 note=60 velocity=73 time=0
EXTRACT: note_on channel=9 note=61 velocity=0 time=0.04128435
EXTRACT: note_on channel=9 note=42 velocity=0 time=0
EXTRACT: note_on channel=9 note=36 velocity=0 time=0
EXTRACT: note_on channel=9 note=39 velocity=52 time=0.2110089
EXTRACT: note_on channel=0 note=32 velocity=0 time=0.01376145
EXTRACT: note_on channel=1 note=32 velocity=0 time=0.00458715
EXTRACT: note_on channel=9 note=42 velocity=42 time=0
EXTRACT: note_on channel=9 note=39 velocity=0 time=0.0275229
EXTRACT: note_on channel=9 note=42 velocity=0 time=0.0183486
EXTRACT: note_on channel=0 note=32 velocity=99 time=0.08715584999999999
EXTRACT: note_on channel=1 note=32 velocity=94 time=0.00458715
EXTRACT: note_on channel=9 note=61 velocity=44 time=0
EXTRACT: note_on channel=9 note=36 velocity=98 time=0
EXTRACT: note_on channel=9 note=61 velocity=0 time=0.045871499999999996
EXTRACT: note_on channel=9 note=36 velocity=0 time=0
EXTRACT: note_on channel=0 note=32 velocity=0 time=0.08715584999999999
EXTRACT: note_on channel=1 note=32 velocity=0 time=0.00458715
EXTRACT: note_on channel=9 note=38 velocity=127 time=0
EXTRACT: note_on channel=9 note=42 velocity=42 time=0
EXTRACT: note_on channel=9 note=38 velocity=0 time=0.045871499999999996
EXTRACT: note_on channel=9 note=42 velocity=0 time=0
EXTRACT: note_on channel=9 note=39 velocity=59 time=0.0733944
EXTRACT: note_on channel=9 note=39 velocity=0 time=0.045871499999999996
EXTRACT: note_on channel=8 note=67 velocity=0 time=0.1009173
EXTRACT: note_on channel=8 note=67 velocity=110 time=0.00458715
EXTRACT: note_on channel=9 note=69 velocity=82 time=0.00458715
EXTRACT: note_on channel=9 note=42 velocity=42 time=0
EXTRACT: note_on channel=9 note=69 velocity=0 time=0.045871499999999996
EXTRACT: note_on channel=9 note=42 velocity=0 time=0
EXTRACT: note_on channel=9 note=69 velocity=76 time=0.09174299999999999
EXTRACT: note_on channel=9 note=69 velocity=0 time=0.045871499999999996
EXTRACT: note_on channel=9 note=39 velocity=64 time=0.0733944
EXTRACT: note_on channel=8 note=67 velocity=0 time=0.0091743
EXTRACT: note_on channel=8 note=65 velocity=102 time=0.00458715
EXTRACT: note_on channel=9 note=69 velocity=81 time=0.00458715
EXTRACT: note_on channel=9 note=42 velocity=42 time=0
EXTRACT: note_on channel=9 note=39 velocity=0 time=0.0275229
EXTRACT: note_on channel=9 note=69 velocity=0 time=0.0183486
EXTRACT: note_on channel=9 note=42 velocity=0 time=0
EXTRACT: note_on channel=8 note=65 velocity=0 time=0.2201832
EXTRACT: note_on channel=0 note=29 velocity=98 time=0.00458715
EXTRACT: note_on channel=8 note=63 velocity=97 time=0
EXTRACT: note_on channel=1 note=29 velocity=108 time=0.00458715
EXTRACT: note_on channel=9 note=42 velocity=42 time=0
EXTRACT: note_on channel=9 note=36 velocity=98 time=0
EXTRACT: note_on channel=9 note=42 velocity=0 time=0.045871499999999996
EXTRACT: note_on channel=9 note=36 velocity=0 time=0
EXTRACT: note_on channel=9 note=39 velocity=63 time=0.0733944
EXTRACT: note_on channel=0 note=29 velocity=0 time=0.01376145
EXTRACT: note_on channel=1 note=29 velocity=0 time=0.00458715
EXTRACT: note_on channel=9 note=39 velocity=0 time=0.0275229
EXTRACT: note_on channel=8 note=63 velocity=0 time=0.1009173
EXTRACT: note_on channel=8 note=63 velocity=88 time=0.00458715
EXTRACT: note_on channel=9 note=38 velocity=127 time=0.00458715
EXTRACT: note_on channel=9 note=42 velocity=42 time=0
EXTRACT: note_on channel=9 note=38 velocity=0 time=0.045871499999999996
EXTRACT: note_on channel=9 note=42 velocity=0 time=0
EXTRACT: note_on channel=0 note=30 velocity=89 time=0.08715584999999999
EXTRACT: note_on channel=1 note=30 velocity=108 time=0.00458715
EXTRACT: note_on channel=0 note=30 velocity=0 time=0.13302735
EXTRACT: note_on channel=1 note=30 velocity=0 time=0.00458715
EXTRACT: note_on channel=9 note=69 velocity=75 time=0
EXTRACT: note_on channel=9 note=61 velocity=44 time=0
EXTRACT: note_on channel=9 note=42 velocity=42 time=0
EXTRACT: note_on channel=9 note=69 velocity=0 time=0.045871499999999996
EXTRACT: note_on channel=9 note=61 velocity=0 time=0
EXTRACT: note_on channel=9 note=42 velocity=0 time=0
EXTRACT: note_on channel=9 note=61 velocity=44 time=0.09174299999999999
EXTRACT: note_on channel=9 note=61 velocity=0 time=0.045871499999999996
EXTRACT: note_on channel=3 note=44 velocity=0 time=0.07798155
EXTRACT: note_on channel=3 note=55 velocity=0 time=0
EXTRACT: note_on channel=3 note=63 velocity=0 time=0
EXTRACT: note_on channel=3 note=60 velocity=0 time=0
EXTRACT: note_on channel=3 note=55 velocity=54 time=0
EXTRACT: note_on channel=3 note=63 velocity=67 time=0
EXTRACT: note_on channel=3 note=59 velocity=75 time=0
EXTRACT: note_on channel=8 note=63 velocity=0 time=0.00458715
EXTRACT: note_on channel=0 note=31 velocity=105 time=0.00458715
EXTRACT: note_on channel=8 note=67 velocity=91 time=0
EXTRACT: note_on channel=1 note=31 velocity=108 time=0.00458715
EXTRACT: note_on channel=9 note=61 velocity=44 time=0
EXTRACT: note_on channel=9 note=42 velocity=42 time=0
EXTRACT: note_on channel=9 note=36 velocity=98 time=0
EXTRACT: note_on channel=2 note=44 velocity=0 time=0.00458715
EXTRACT: note_on channel=2 note=55 velocity=0 time=0
EXTRACT: note_on channel=2 note=63 velocity=0 time=0
EXTRACT: note_on channel=2 note=60 velocity=0 time=0
EXTRACT: note_on channel=2 note=55 velocity=82 time=0
EXTRACT: note_on channel=2 note=63 velocity=79 time=0
EXTRACT: note_on channel=2 note=59 velocity=65 time=0
EXTRACT: note_on channel=9 note=61 velocity=0 time=0.04128435
EXTRACT: note_on channel=9 note=42 velocity=0 time=0
EXTRACT: note_on channel=9 note=36 velocity=0 time=0
EXTRACT: note_on channel=9 note=61 velocity=44 time=0.09174299999999999
EXTRACT: note_on channel=9 note=61 velocity=0 time=0.045871499999999996
EXTRACT: note_on channel=9 note=39 velocity=63 time=0.0733944
EXTRACT: note_on channel=0 note=31 velocity=0 time=0.01376145
EXTRACT: note_on channel=9 note=64 velocity=50 time=0
EXTRACT: note_on channel=1 note=31 velocity=0 time=0.00458715
EXTRACT: note_on channel=9 note=61 velocity=44 time=0
EXTRACT: note_on channel=9 note=42 velocity=42 time=0
EXTRACT: note_on channel=9 note=39 velocity=0 time=0.0275229
EXTRACT: note_on channel=9 note=64 velocity=0 time=0.01376145
EXTRACT: note_on channel=9 note=61 velocity=0 time=0.00458715
EXTRACT: note_on channel=9 note=42 velocity=0 time=0
EXTRACT: note_on channel=0 note=31 velocity=90 time=0.08715584999999999
EXTRACT: note_on channel=9 note=63 velocity=50 time=0
EXTRACT: note_on channel=1 note=31 velocity=113 time=0.00458715
EXTRACT: note_on channel=9 note=36 velocity=98 time=0
EXTRACT: note_on channel=9 note=63 velocity=0 time=0.04128435
EXTRACT: note_on channel=9 note=36 velocity=0 time=0.00458715
EXTRACT: note_on channel=0 note=31 velocity=0 time=0.08715584999999999
EXTRACT: note_on channel=9 note=64 velocity=50 time=0
EXTRACT: note_on channel=1 note=31 velocity=0 time=0.00458715
EXTRACT: note_on channel=9 note=38 velocity=127 time=0
EXTRACT: note_on channel=9 note=42 velocity=42 time=0
EXTRACT: note_on channel=9 note=64 velocity=0 time=0.04128435
EXTRACT: note_on channel=9 note=38 velocity=0 time=0.00458715
EXTRACT: note_on channel=9 note=42 velocity=0 time=0
EXTRACT: note_on channel=9 note=39 velocity=59 time=0.0733944
EXTRACT: note_on channel=9 note=64 velocity=50 time=0.01376145
EXTRACT: note_on channel=9 note=39 velocity=0 time=0.03211005
EXTRACT: note_on channel=9 note=64 velocity=0 time=0.01376145
EXTRACT: note_on channel=8 note=67 velocity=0 time=0.08715584999999999
EXTRACT: note_on channel=8 note=67 velocity=99 time=0.00458715
EXTRACT: note_on channel=9 note=63 velocity=50 time=0
EXTRACT: note_on channel=9 note=69 velocity=76 time=0.00458715
EXTRACT: note_on channel=9 note=42 velocity=42 time=0
EXTRACT: note_on channel=9 note=63 velocity=0 time=0.04128435
EXTRACT: note_on channel=9 note=69 velocity=0 time=0.00458715
EXTRACT: note_on channel=9 note=42 velocity=0 time=0
EXTRACT: note_on channel=9 note=69 velocity=82 time=0.09174299999999999
EXTRACT: note_on channel=9 note=69 velocity=0 time=0.045871499999999996
EXTRACT: note_on channel=9 note=39 velocity=61 time=0.0733944
EXTRACT: note_on channel=8 note=67 velocity=0 time=0.0091743
EXTRACT: note_on channel=8 note=65 velocity=97 time=0.00458715
EXTRACT: note_on channel=9 note=69 velocity=79 time=0.00458715
EXTRACT: note_on channel=9 note=42 velocity=42 time=0
EXTRACT: note_on channel=9 note=39 velocity=0 time=0.0275229
EXTRACT: note_on channel=9 note=69 velocity=0 time=0.0183486
EXTRACT: note_on channel=9 note=42 velocity=0 time=0
EXTRACT: note_on channel=9 note=64 velocity=50 time=0.08715584999999999
EXTRACT: note_on channel=9 note=64 velocity=0 time=0.045871499999999996
EXTRACT: note_on channel=8 note=65 velocity=0 time=0.08715584999999999
EXTRACT: note_on channel=8 note=63 velocity=90 time=0.00458715
EXTRACT: note_on channel=9 note=48 velocity=50 time=0
EXTRACT: note_on channel=9 note=42 velocity=42 time=0.00458715
EXTRACT: note_on channel=9 note=36 velocity=98 time=0
EXTRACT: note_on channel=9 note=48 velocity=0 time=0.04128435
EXTRACT: note_on channel=9 note=42 velocity=0 time=0.00458715
EXTRACT: note_on channel=9 note=36 velocity=0 time=0
EXTRACT: note_on channel=9 note=39 velocity=56 time=0.0733944
EXTRACT: note_on channel=9 note=64 velocity=50 time=0.01376145
EXTRACT: note_on channel=9 note=39 velocity=0 time=0.03211005
EXTRACT: note_on channel=9 note=64 velocity=0 time=0.01376145
EXTRACT: note_on channel=8 note=63 velocity=0 time=0.08715584999999999
EXTRACT: note_on channel=8 note=63 velocity=106 time=0.00458715
EXTRACT: note_on channel=9 note=63 velocity=50 time=0
EXTRACT: note_on channel=9 note=38 velocity=127 time=0.00458715
EXTRACT: note_on channel=9 note=42 velocity=42 time=0
EXTRACT: note_on channel=9 note=63 velocity=0 time=0.04128435
EXTRACT: note_on channel=9 note=38 velocity=0 time=0.00458715
EXTRACT: note_on channel=9 note=42 velocity=0 time=0
EXTRACT: note_on channel=9 note=61 velocity=44 time=0.2293575
EXTRACT: note_on channel=9 note=36 velocity=92 time=0
EXTRACT: note_on channel=9 note=42 velocity=42 time=0
EXTRACT: note_on channel=9 note=61 velocity=0 time=0.045871499999999996
EXTRACT: note_on channel=9 note=36 velocity=0 time=0
EXTRACT: note_on channel=9 note=42 velocity=0 time=0
EXTRACT: note_on channel=9 note=61 velocity=44 time=0.09174299999999999
EXTRACT: note_on channel=9 note=36 velocity=92 time=0
EXTRACT: note_on channel=9 note=61 velocity=0 time=0.045871499999999996
EXTRACT: note_on channel=9 note=36 velocity=0 time=0
EXTRACT: note_on channel=3 note=55 velocity=0 time=0.07798155
EXTRACT: note_on channel=3 note=63 velocity=0 time=0
EXTRACT: note_on channel=3 note=59 velocity=0 time=0
EXTRACT: note_on channel=3 note=55 velocity=67 time=0
EXTRACT: note_on channel=3 note=60 velocity=61 time=0
EXTRACT: note_on channel=3 note=63 velocity=51 time=0
EXTRACT: note_on channel=8 note=63 velocity=0 time=0.00458715
EXTRACT: note_on channel=0 note=36 velocity=92 time=0.00458715
EXTRACT: note_on channel=8 note=63 velocity=109 time=0
EXTRACT: note_on channel=8 note=72 velocity=80 time=0
EXTRACT: note_on channel=8 note=68 velocity=103 time=0
EXTRACT: note_on channel=1 note=36 velocity=113 time=0.00458715
EXTRACT: note_on channel=9 note=61 velocity=44 time=0
EXTRACT: note_on channel=9 note=42 velocity=42 time=0
EXTRACT: note_on channel=9 note=36 velocity=98 time=0
EXTRACT: note_on channel=2 note=55 velocity=0 time=0.00458715
EXTRACT: note_on channel=2 note=63 velocity=0 time=0
EXTRACT: note_on channel=2 note=59 velocity=0 time=0
EXTRACT: note_on channel=2 note=55 velocity=68 time=0
EXTRACT: note_on channel=2 note=60 velocity=70 time=0
EXTRACT: note_on channel=2 note=63 velocity=73 time=0
EXTRACT: note_on channel=9 note=61 velocity=0 time=0.04128435
EXTRACT: note_on channel=9 note=42 velocity=0 time=0
EXTRACT: note_on channel=9 note=36 velocity=0 time=0
EXTRACT: note_on channel=9 note=39 velocity=55 time=0.2110089
EXTRACT: note_on channel=0 note=36 velocity=0 time=0.01376145
EXTRACT: note_on channel=1 note=36 velocity=0 time=0.00458715
EXTRACT: note_on channel=9 note=42 velocity=42 time=0
EXTRACT: note_on channel=9 note=39 velocity=0 time=0.0275229
EXTRACT: note_on channel=9 note=42 velocity=0 time=0.0183486
EXTRACT: note_on channel=0 note=36 velocity=95 time=0.08715584999999999
EXTRACT: note_on channel=1 note=36 velocity=112 time=0.00458715
EXTRACT: note_on channel=9 note=61 velocity=44 time=0
EXTRACT: note_on channel=9 note=36 velocity=98 time=0
EXTRACT: note_on channel=9 note=61 velocity=0 time=0.045871499999999996
EXTRACT: note_on channel=9 note=36 velocity=0 time=0
EXTRACT: note_on channel=8 note=63 velocity=0 time=0.0825687
EXTRACT: note_on channel=8 note=72 velocity=0 time=0
EXTRACT: note_on channel=8 note=68 velocity=0 time=0
EXTRACT: note_on channel=0 note=36 velocity=0 time=0.00458715
EXTRACT: note_on channel=8 note=63 velocity=114 time=0
EXTRACT: note_on channel=8 note=70 velocity=87 time=0
EXTRACT: note_on channel=8 note=67 velocity=100 time=0
EXTRACT: note_on channel=1 note=36 velocity=0 time=0.00458715
EXTRACT: note_on channel=9 note=38 velocity=127 time=0
EXTRACT: note_on channel=9 note=42 velocity=42 time=0
EXTRACT: note_on channel=9 note=38 velocity=0 time=0.045871499999999996
EXTRACT: note_on channel=9 note=42 velocity=0 time=0
EXTRACT: note_on channel=9 note=39 velocity=67 time=0.0733944
EXTRACT: note_on channel=9 note=39 velocity=0 time=0.045871499999999996
EXTRACT: note_on channel=9 note=69 velocity=81 time=0.1100916
EXTRACT: note_on channel=9 note=42 velocity=42 time=0
EXTRACT: note_on channel=9 note=69 velocity=0 time=0.045871499999999996
EXTRACT: note_on channel=9 note=42 velocity=0 time=0
EXTRACT: note_on channel=9 note=69 velocity=82 time=0.09174299999999999
EXTRACT: note_on channel=9 note=69 velocity=0 time=0.045871499999999996
EXTRACT: note_on channel=9 note=39 velocity=57 time=0.0733944
EXTRACT: note_on channel=8 note=63 velocity=0 time=0.0091743
EXTRACT: note_on channel=8 note=70 velocity=0 time=0
EXTRACT: note_on channel=8 note=67 velocity=0 time=0
EXTRACT: note_on channel=8 note=60 velocity=75 time=0.00458715
EXTRACT: note_on channel=8 note=68 velocity=66 time=0
EXTRACT: note_on channel=8 note=65 velocity=112 time=0
EXTRACT: note_on channel=9 note=69 velocity=77 time=0.00458715
EXTRACT: note_on channel=9 note=42 velocity=42 time=0
EXTRACT: note_on channel=9 note=39 velocity=0 time=0.0275229
EXTRACT: note_on channel=9 note=69 velocity=0 time=0.0183486
EXTRACT: note_on channel=9 note=42 velocity=0 time=0
EXTRACT: note_on channel=9 note=42 velocity=42 time=0.2293575
EXTRACT: note_on channel=9 note=36 velocity=98 time=0
EXTRACT: note_on channel=9 note=42 velocity=0 time=0.045871499999999996
EXTRACT: note_on channel=9 note=36 velocity=0 time=0
EXTRACT: note_on channel=9 note=39 velocity=68 time=0.0733944
EXTRACT: note_on channel=9 note=39 velocity=0 time=0.045871499999999996
EXTRACT: note_on channel=8 note=60 velocity=0 time=0.1009173
EXTRACT: note_on channel=8 note=68 velocity=0 time=0
EXTRACT: note_on channel=8 note=65 velocity=0 time=0
EXTRACT: note_on channel=8 note=58 velocity=98 time=0.00458715
EXTRACT: note_on channel=8 note=67 velocity=91 time=0
EXTRACT: note_on channel=8 note=63 velocity=103 time=0
EXTRACT: note_on channel=9 note=38 velocity=127 time=0.00458715
EXTRACT: note_on channel=9 note=42 velocity=42 time=0
EXTRACT: note_on channel=9 note=38 velocity=0 time=0.045871499999999996
EXTRACT: note_on channel=9 note=42 velocity=0 time=0
EXTRACT: note_on channel=9 note=69 velocity=76 time=0.2293575
EXTRACT: note_on channel=9 note=61 velocity=44 time=0
EXTRACT: note_on channel=9 note=42 velocity=42 time=0
EXTRACT: note_on channel=9 note=69 velocity=0 time=0.045871499999999996
EXTRACT: note_on channel=9 note=61 velocity=0 time=0
EXTRACT: note_on channel=9 note=42 velocity=0 time=0
EXTRACT: note_on channel=9 note=61 velocity=44 time=0.09174299999999999
EXTRACT: note_on channel=9 note=61 velocity=0 time=0.045871499999999996
EXTRACT: note_on channel=9 note=39 velocity=57 time=0.0733944
EXTRACT: note_on channel=3 note=55 velocity=0 time=0.00458715
EXTRACT: note_on channel=3 note=60 velocity=0 time=0
EXTRACT: note_on channel=3 note=63 velocity=0 time=0
EXTRACT: note_on channel=3 note=65 velocity=64 time=0
EXTRACT: note_on channel=3 note=56 velocity=58 time=0
EXTRACT: note_on channel=3 note=58 velocity=78 time=0
EXTRACT: note_on channel=3 note=61 velocity=66 time=0
EXTRACT: note_on channel=8 note=58 velocity=0 time=0.00458715
EXTRACT: note_on channel=8 note=67 velocity=0 time=0
EXTRACT: note_on channel=8 note=63 velocity=0 time=0
EXTRACT: note_on channel=0 note=34 velocity=95 time=0.00458715
EXTRACT: note_on channel=4 note=55 velocity=0 time=0
EXTRACT: note_on channel=4 note=63 velocity=0 time=0
EXTRACT: note_on channel=4 note=58 velocity=103 time=0
EXTRACT: note_on channel=4 note=65 velocity=109 time=0
EXTRACT: note_on channel=8 note=67 velocity=110 time=0
EXTRACT: note_on channel=1 note=34 velocity=110 time=0.00458715
EXTRACT: note_on channel=9 note=61 velocity=44 time=0
EXTRACT: note_on channel=9 note=42 velocity=42 time=0
EXTRACT: note_on channel=9 note=36 velocity=98 time=0
EXTRACT: note_on channel=2 note=55 velocity=0 time=0.00458715
EXTRACT: note_on channel=2 note=60 velocity=0 time=0
EXTRACT: note_on channel=2 note=63 velocity=0 time=0
EXTRACT: note_on channel=2 note=65 velocity=83 time=0
EXTRACT: note_on channel=2 note=56 velocity=85 time=0
EXTRACT: note_on channel=2 note=58 velocity=60 time=0
EXTRACT: note_on channel=2 note=61 velocity=91 time=0
EXTRACT: note_on channel=9 note=39 velocity=0 time=0.022935749999999998
EXTRACT: note_on channel=9 note=61 velocity=0 time=0.0183486
EXTRACT: note_on channel=9 note=42 velocity=0 time=0
EXTRACT: note_on channel=9 note=36 velocity=0 time=0
EXTRACT: note_on channel=9 note=39 velocity=59 time=0.0733944
EXTRACT: note_on channel=9 note=61 velocity=44 time=0.0183486
EXTRACT: note_on channel=9 note=39 velocity=0 time=0.0275229
EXTRACT: note_on channel=9 note=61 velocity=0 time=0.0183486
EXTRACT: note_on channel=0 note=34 velocity=0 time=0.08715584999999999
EXTRACT: note_on channel=9 note=64 velocity=50 time=0
EXTRACT: note_on channel=1 note=34 velocity=0 time=0.00458715
EXTRACT: note_on channel=9 note=61 velocity=44 time=0
EXTRACT: note_on channel=9 note=42 velocity=42 time=0
EXTRACT: note_on channel=9 note=64 velocity=0 time=0.04128435
EXTRACT: note_on channel=9 note=61 velocity=0 time=0.00458715
EXTRACT: note_on channel=9 note=42 velocity=0 time=0
EXTRACT: note_on channel=0 note=34 velocity=105 time=0.08715584999999999
EXTRACT: note_on channel=9 note=63 velocity=50 time=0
EXTRACT: note_on channel=1 note=34 velocity=101 time=0.00458715
EXTRACT: note_on channel=9 note=36 velocity=98 time=0
EXTRACT: note_on channel=9 note=63 velocity=0 time=0.04128435
EXTRACT: note_on channel=9 note=36 velocity=0 time=0.00458715
EXTRACT: note_on channel=9 note=39 velocity=65 time=0.0733944
EXTRACT: note_on channel=0 note=34 velocity=0 time=0.01376145
EXTRACT: note_on channel=9 note=64 velocity=50 time=0
EXTRACT: note_on channel=1 note=34 velocity=0 time=0.00458715
EXTRACT: note_on channel=9 note=38 velocity=127 time=0
EXTRACT: note_on channel=9 note=42 velocity=42 time=0
EXTRACT: note_on channel=9 note=39 velocity=0 time=0.0275229
EXTRACT: note_on channel=9 note=64 velocity=0 time=0.01376145
EXTRACT: note_on channel=9 note=38 velocity=0 time=0.00458715
EXTRACT: note_on channel=9 note=42 velocity=0 time=0
EXTRACT: note_on channel=9 note=39 velocity=57 time=0.0733944
EXTRACT: note_on channel=9 note=64 velocity=50 time=0.01376145
EXTRACT: note_on channel=9 note=39 velocity=0 time=0.03211005
EXTRACT: note_on channel=9 note=64 velocity=0 time=0.01376145
EXTRACT: note_on channel=8 note=67 velocity=0 time=0.08715584999999999
EXTRACT: note_on channel=0 note=34 velocity=99 time=0.00458715
EXTRACT: note_on channel=8 note=67 velocity=91 time=0
EXTRACT: note_on channel=9 note=63 velocity=50 time=0
EXTRACT: note_on channel=1 note=34 velocity=102 time=0.00458715
EXTRACT: note_on channel=9 note=69 velocity=75 time=0
EXTRACT: note_on channel=9 note=42 velocity=42 time=0
EXTRACT: note_on channel=9 note=63 velocity=0 time=0.04128435
EXTRACT: note_on channel=9 note=69 velocity=0 time=0.00458715
EXTRACT: note_on channel=9 note=42 velocity=0 time=0
EXTRACT: note_on channel=0 note=34 velocity=0 time=0.08715584999999999
EXTRACT: note_on channel=1 note=34 velocity=0 time=0.00458715
EXTRACT: note_on channel=9 note=69 velocity=75 time=0
EXTRACT: note_on channel=9 note=69 velocity=0 time=0.045871499999999996
EXTRACT: note_on channel=9 note=39 velocity=65 time=0.0733944
EXTRACT: note_on channel=3 note=65 velocity=0 time=0.00458715
EXTRACT: note_on channel=3 note=56 velocity=0 time=0
EXTRACT: note_on channel=3 note=58 velocity=0 time=0
EXTRACT: note_on channel=3 note=61 velocity=0 time=0
EXTRACT: note_on channel=3 note=61 velocity=52 time=0
EXTRACT: note_on channel=3 note=55 velocity=80 time=0
EXTRACT: note_on channel=3 note=58 velocity=57 time=0
EXTRACT: note_on channel=3 note=63 velocity=78 time=0
EXTRACT: note_on channel=8 note=67 velocity=0 time=0.00458715
EXTRACT: note_on channel=0 note=39 velocity=100 time=0.00458715
EXTRACT: note_on channel=4 note=58 velocity=0 time=0
EXTRACT: note_on channel=4 note=65 velocity=0 time=0
EXTRACT: note_on channel=4 note=55 velocity=89 time=0
EXTRACT: note_on channel=4 note=63 velocity=94 time=0
EXTRACT: note_on channel=6 note=32 velocity=85 time=0
EXTRACT: note_on channel=8 note=65 velocity=105 time=0
EXTRACT: note_on channel=1 note=39 velocity=97 time=0.00458715
EXTRACT: note_on channel=9 note=29 velocity=45 time=0
EXTRACT: note_on channel=9 note=36 velocity=92 time=0
EXTRACT: note_on channel=2 note=65 velocity=0 time=0.00458715
EXTRACT: note_on channel=2 note=56 velocity=0 time=0
EXTRACT: note_on channel=2 note=58 velocity=0 time=0
EXTRACT: note_on channel=2 note=61 velocity=0 time=0
EXTRACT: note_on channel=2 note=61 velocity=90 time=0
EXTRACT: note_on channel=2 note=55 velocity=76 time=0
EXTRACT: note_on channel=2 note=58 velocity=87 time=0
EXTRACT: note_on channel=2 note=63 velocity=89 time=0
EXTRACT: note_on channel=9 note=39 velocity=0 time=0.022935749999999998
EXTRACT: note_on channel=9 note=29 velocity=0 time=0.0183486
EXTRACT: note_on channel=9 note=36 velocity=0 time=0
EXTRACT: note_on channel=9 note=39 velocity=59 time=0.0733944
EXTRACT: note_on channel=6 note=32 velocity=0 time=0.0126146625
EXTRACT: note_on channel=6 note=32 velocity=93 time=0.0011467875
EXTRACT: note_on channel=9 note=64 velocity=50 time=0
EXTRACT: note_on channel=9 note=29 velocity=31 time=0.00458715
EXTRACT: note_on channel=9 note=41 velocity=70 time=0
EXTRACT: note_on channel=9 note=39 velocity=0 time=0.0275229
EXTRACT: note_on channel=9 note=64 velocity=0 time=0.01376145
EXTRACT: note_on channel=9 note=29 velocity=0 time=0.00458715
EXTRACT: note_on channel=9 note=41 velocity=0 time=0
EXTRACT: note_on channel=8 note=65 velocity=0 time=0.0825687
EXTRACT: note_on channel=6 note=32 velocity=0 time=0.0034403625
EXTRACT: note_on channel=0 note=39 velocity=0 time=0.0011467875
EXTRACT: note_on channel=6 note=32 velocity=89 time=0
EXTRACT: note_on channel=8 note=63 velocity=90 time=0
EXTRACT: note_on channel=9 note=48 velocity=50 time=0
EXTRACT: note_on channel=1 note=39 velocity=0 time=0.00458715
EXTRACT: note_on channel=9 note=29 velocity=45 time=0
EXTRACT: note_on channel=9 note=36 velocity=92 time=0
EXTRACT: note_on channel=9 note=48 velocity=0 time=0.04128435
EXTRACT: note_on channel=9 note=29 velocity=0 time=0.00458715
EXTRACT: note_on channel=9 note=36 velocity=0 time=0
EXTRACT: note_on channel=6 note=32 velocity=0 time=0.0860090625
EXTRACT: note_on channel=0 note=39 velocity=84 time=0.0011467875
EXTRACT: note_on channel=6 note=32 velocity=71 time=0
EXTRACT: note_on channel=9 note=64 velocity=50 time=0
EXTRACT: note_on channel=1 note=39 velocity=114 time=0.00458715
EXTRACT: note_on channel=9 note=29 velocity=31 time=0
EXTRACT: note_on channel=9 note=41 velocity=70 time=0
EXTRACT: note_on channel=9 note=64 velocity=0 time=0.04128435
EXTRACT: note_on channel=9 note=29 velocity=0 time=0.00458715
EXTRACT: note_on channel=9 note=41 velocity=0 time=0
EXTRACT: note_on channel=9 note=39 velocity=59 time=0.0733944
EXTRACT: note_on channel=8 note=63 velocity=0 time=0.0091743
EXTRACT: note_on channel=6 note=32 velocity=0 time=0.0034403625
EXTRACT: note_on channel=0 note=39 velocity=0 time=0.0011467875
EXTRACT: note_on channel=6 note=32 velocity=100 time=0
EXTRACT: note_on channel=8 note=63 velocity=117 time=0
EXTRACT: note_on channel=9 note=63 velocity=50 time=0
EXTRACT: note_on channel=1 note=39 velocity=0 time=0.00458715
EXTRACT: note_on channel=9 note=29 velocity=45 time=0
EXTRACT: note_on channel=9 note=38 velocity=127 time=0
EXTRACT: note_on channel=9 note=36 velocity=92 time=0
EXTRACT: note_on channel=9 note=39 velocity=0 time=0.0275229
EXTRACT: note_on channel=9 note=63 velocity=0 time=0.01376145
EXTRACT: note_on channel=9 note=29 velocity=0 time=0.00458715
EXTRACT: note_on channel=9 note=38 velocity=0 time=0
EXTRACT: note_on channel=9 note=36 velocity=0 time=0
EXTRACT: note_on channel=9 note=39 velocity=57 time=0.0733944
EXTRACT: note_on channel=6 note=32 velocity=0 time=0.0126146625
EXTRACT: note_on channel=6 note=32 velocity=97 time=0.0011467875
EXTRACT: note_on channel=9 note=29 velocity=31 time=0.00458715
EXTRACT: note_on channel=9 note=41 velocity=70 time=0
EXTRACT: note_on channel=9 note=39 velocity=0 time=0.0275229
EXTRACT: note_on channel=9 note=29 velocity=0 time=0.0183486
EXTRACT: note_on channel=9 note=41 velocity=0 time=0
EXTRACT: note_on channel=9 note=39 velocity=53 time=0.0733944
EXTRACT: note_on channel=6 note=32 velocity=0 time=0.0126146625
EXTRACT: note_on channel=6 note=32 velocity=102 time=0.0011467875
EXTRACT: note_on channel=9 note=61 velocity=44 time=0.00458715
EXTRACT: note_on channel=9 note=29 velocity=45 time=0
EXTRACT: note_on channel=9 note=36 velocity=92 time=0
EXTRACT: note_on channel=9 note=39 velocity=0 time=0.0275229
EXTRACT: note_on channel=9 note=61 velocity=0 time=0.0183486
EXTRACT: note_on channel=9 note=29 velocity=0 time=0
EXTRACT: note_on channel=9 note=36 velocity=0 time=0
EXTRACT: note_on channel=9 note=39 velocity=38 time=0.0733944
EXTRACT: note_on channel=6 note=32 velocity=0 time=0.0126146625
EXTRACT: note_on channel=6 note=32 velocity=69 time=0.0011467875
EXTRACT: note_on channel=9 note=61 velocity=44 time=0.00458715
EXTRACT: note_on channel=9 note=29 velocity=31 time=0
EXTRACT: note_on channel=9 note=41 velocity=70 time=0
EXTRACT: note_on channel=9 note=39 velocity=0 time=0.0275229
EXTRACT: note_on channel=9 note=61 velocity=0 time=0.0183486
EXTRACT: note_on channel=9 note=29 velocity=0 time=0
EXTRACT: note_on channel=9 note=41 velocity=0 time=0
EXTRACT: note_on channel=3 note=61 velocity=0 time=0.07798155
EXTRACT: note_on channel=3 note=55 velocity=0 time=0
EXTRACT: note_on channel=3 note=58 velocity=0 time=0
EXTRACT: note_on channel=3 note=63 velocity=0 time=0
EXTRACT: note_on channel=4 note=55 velocity=0 time=0.0091743
EXTRACT: note_on channel=4 note=63 velocity=0 time=0
EXTRACT: note_on channel=6 note=32 velocity=0 time=0
EXTRACT: note_on channel=8 note=63 velocity=0 time=0
EXTRACT: note_on channel=9 note=61 velocity=44 time=0.00458715
EXTRACT: note_on channel=9 note=42 velocity=42 time=0
EXTRACT: note_on channel=9 note=36 velocity=98 time=0
EXTRACT: note_on channel=2 note=61 velocity=0 time=0.00458715
EXTRACT: note_on channel=2 note=55 velocity=0 time=0
EXTRACT: note_on channel=2 note=58 velocity=0 time=0
EXTRACT: note_on channel=2 note=63 velocity=0 time=0
EXTRACT: note_on channel=9 note=61 velocity=0 time=0.04128435
EXTRACT: note_on channel=9 note=42 velocity=0 time=0
EXTRACT: note_on channel=9 note=36 velocity=0 time=0
EXTRACT: note_on channel=9 note=39 velocity=55 time=0.2110089
EXTRACT: note_on channel=9 note=42 velocity=42 time=0.0183486
EXTRACT: note_on channel=9 note=39 velocity=0 time=0.0275229
EXTRACT: note_on channel=9 note=42 velocity=0 time=0.0183486
EXTRACT: note_on channel=9 note=61 velocity=44 time=0.09174299999999999
EXTRACT: note_on channel=9 note=36 velocity=98 time=0
EXTRACT: note_on channel=9 note=61 velocity=0 time=0.045871499999999996
EXTRACT: note_on channel=9 note=36 velocity=0 time=0
EXTRACT: note_on channel=9 note=38 velocity=127 time=0.09174299999999999
EXTRACT: note_on channel=9 note=42 velocity=42 time=0
EXTRACT: note_on channel=9 note=38 velocity=0 time=0.045871499999999996
EXTRACT: note_on channel=9 note=42 velocity=0 time=0
EXTRACT: note_on channel=9 note=39 velocity=69 time=0.0733944
EXTRACT: note_on channel=9 note=39 velocity=0 time=0.045871499999999996
EXTRACT: note_on channel=9 note=69 velocity=76 time=0.1100916
EXTRACT: note_on channel=9 note=42 velocity=42 time=0
EXTRACT: note_on channel=9 note=69 velocity=0 time=0.045871499999999996
EXTRACT: note_on channel=9 note=42 velocity=0 time=0
EXTRACT: note_on channel=9 note=69 velocity=74 time=0.09174299999999999
EXTRACT: note_on channel=9 note=69 velocity=0 time=0.045871499999999996
EXTRACT: note_on channel=9 note=39 velocity=63 time=0.0733944
EXTRACT: note_on channel=9 note=69 velocity=81 time=0.0183486
EXTRACT: note_on channel=9 note=42 velocity=42 time=0
EXTRACT: note_on channel=9 note=39 velocity=0 time=0.0275229
EXTRACT: note_on channel=9 note=69 velocity=0 time=0.0183486
EXTRACT: note_on channel=9 note=42 velocity=0 time=0
EXTRACT: note_on channel=9 note=42 velocity=42 time=0.2293575
EXTRACT: note_on channel=9 note=36 velocity=98 time=0
EXTRACT: note_on channel=9 note=42 velocity=0 time=0.045871499999999996
EXTRACT: note_on channel=9 note=36 velocity=0 time=0
EXTRACT: note_on channel=9 note=39 velocity=62 time=0.0733944
EXTRACT: note_on channel=9 note=39 velocity=0 time=0.045871499999999996
EXTRACT: note_on channel=9 note=38 velocity=127 time=0.1100916
EXTRACT: note_on channel=9 note=42 velocity=42 time=0
EXTRACT: note_on channel=9 note=38 velocity=0 time=0.045871499999999996
EXTRACT: note_on channel=9 note=42 velocity=0 time=0
EXTRACT: note_on channel=9 note=69 velocity=75 time=0.2293575
EXTRACT: note_on channel=9 note=61 velocity=44 time=0
EXTRACT: note_on channel=9 note=42 velocity=42 time=0
EXTRACT: note_on channel=9 note=69 velocity=0 time=0.045871499999999996
EXTRACT: note_on channel=9 note=61 velocity=0 time=0
EXTRACT: note_on channel=9 note=42 velocity=0 time=0
EXTRACT: note_on channel=9 note=61 velocity=44 time=0.09174299999999999
EXTRACT: note_on channel=9 note=61 velocity=0 time=0.045871499999999996
EXTRACT: note_on channel=9 note=61 velocity=44 time=0.09174299999999999
EXTRACT: note_on channel=9 note=42 velocity=42 time=0
EXTRACT: note_on channel=9 note=36 velocity=98 time=0
EXTRACT: note_on channel=9 note=61 velocity=0 time=0.045871499999999996
EXTRACT: note_on channel=9 note=42 velocity=0 time=0
EXTRACT: note_on channel=9 note=36 velocity=0 time=0
EXTRACT: note_on channel=9 note=61 velocity=44 time=0.09174299999999999
EXTRACT: note_on channel=9 note=61 velocity=0 time=0.045871499999999996
EXTRACT: note_on channel=9 note=39 velocity=73 time=0.0733944
EXTRACT: note_on channel=9 note=61 velocity=44 time=0.0183486
EXTRACT: note_on channel=9 note=42 velocity=42 time=0
EXTRACT: note_on channel=9 note=39 velocity=0 time=0.0275229
EXTRACT: note_on channel=9 note=61 velocity=0 time=0.0183486
EXTRACT: note_on channel=9 note=42 velocity=0 time=0
EXTRACT: note_on channel=9 note=36 velocity=98 time=0.09174299999999999
EXTRACT: note_on channel=9 note=36 velocity=0 time=0.045871499999999996
EXTRACT: note_on channel=9 note=38 velocity=127 time=0.09174299999999999
EXTRACT: note_on channel=9 note=42 velocity=42 time=0
EXTRACT: note_on channel=9 note=38 velocity=0 time=0.045871499999999996
EXTRACT: note_on channel=9 note=42 velocity=0 time=0
EXTRACT: note_on channel=9 note=39 velocity=59 time=0.0733944
EXTRACT: note_on channel=9 note=39 velocity=0 time=0.045871499999999996
EXTRACT: note_on channel=9 note=69 velocity=82 time=0.1100916
EXTRACT: note_on channel=9 note=42 velocity=42 time=0
EXTRACT: note_on channel=9 note=69 velocity=0 time=0.045871499999999996
EXTRACT: note_on channel=9 note=42 velocity=0 time=0
EXTRACT: note_on channel=9 note=69 velocity=76 time=0.09174299999999999
EXTRACT: note_on channel=9 note=69 velocity=0 time=0.045871499999999996
EXTRACT: note_on channel=9 note=39 velocity=70 time=0.0733944
EXTRACT: note_on channel=9 note=69 velocity=74 time=0.0183486
EXTRACT: note_on channel=9 note=42 velocity=42 time=0
EXTRACT: note_on channel=9 note=39 velocity=0 time=0.0275229
EXTRACT: note_on channel=9 note=69 velocity=0 time=0.0183486
EXTRACT: note_on channel=9 note=42 velocity=0 time=0
EXTRACT: note_on channel=9 note=42 velocity=42 time=0.2293575
EXTRACT: note_on channel=9 note=36 velocity=98 time=0
EXTRACT: note_on channel=9 note=42 velocity=0 time=0.045871499999999996
EXTRACT: note_on channel=9 note=36 velocity=0 time=0
EXTRACT: note_on channel=9 note=39 velocity=72 time=0.0733944
EXTRACT: note_on channel=9 note=39 velocity=0 time=0.045871499999999996
EXTRACT: note_on channel=9 note=38 velocity=127 time=0.1100916
EXTRACT: note_on channel=9 note=42 velocity=42 time=0
EXTRACT: note_on channel=9 note=38 velocity=0 time=0.045871499999999996
EXTRACT: note_on channel=9 note=42 velocity=0 time=0
EXTRACT: note_on channel=9 note=61 velocity=44 time=0.2293575
EXTRACT: note_on channel=9 note=36 velocity=92 time=0
EXTRACT: note_on channel=9 note=42 velocity=42 time=0
EXTRACT: note_on channel=9 note=61 velocity=0 time=0.045871499999999996
EXTRACT: note_on channel=9 note=36 velocity=0 time=0
EXTRACT: note_on channel=9 note=42 velocity=0 time=0
EXTRACT: note_on channel=9 note=61 velocity=44 time=0.09174299999999999
EXTRACT: note_on channel=9 note=36 velocity=92 time=0
EXTRACT: note_on channel=9 note=61 velocity=0 time=0.045871499999999996
EXTRACT: note_on channel=9 note=36 velocity=0 time=0
EXTRACT: note_on channel=0 note=36 velocity=105 time=0.08715584999999999
EXTRACT: note_on channel=1 note=36 velocity=97 time=0.00458715
EXTRACT: note_on channel=9 note=61 velocity=44 time=0
EXTRACT: note_on channel=9 note=42 velocity=42 time=0
EXTRACT: note_on channel=9 note=36 velocity=98 time=0
EXTRACT: note_on channel=9 note=61 velocity=0 time=0.045871499999999996
EXTRACT: note_on channel=9 note=42 velocity=0 time=0
EXTRACT: note_on channel=9 note=36 velocity=0 time=0
EXTRACT: note_on channel=9 note=39 velocity=68 time=0.2110089
EXTRACT: note_on channel=0 note=36 velocity=0 time=0.01376145
EXTRACT: note_on channel=1 note=36 velocity=0 time=0.00458715
EXTRACT: note_on channel=9 note=42 velocity=42 time=0
EXTRACT: note_on channel=9 note=39 velocity=0 time=0.0275229
EXTRACT: note_on channel=9 note=42 velocity=0 time=0.0183486
EXTRACT: note_on channel=0 note=36 velocity=95 time=0.08715584999999999
EXTRACT: note_on channel=1 note=36 velocity=100 time=0.00458715
EXTRACT: note_on channel=9 note=61 velocity=44 time=0
EXTRACT: note_on channel=9 note=36 velocity=98 time=0
EXTRACT: note_on channel=9 note=61 velocity=0 time=0.045871499999999996
EXTRACT: note_on channel=9 note=36 velocity=0 time=0
EXTRACT: note_on channel=0 note=36 velocity=0 time=0.08715584999999999
EXTRACT: note_on channel=1 note=36 velocity=0 time=0.00458715
EXTRACT: note_on channel=9 note=38 velocity=127 time=0
EXTRACT: note_on channel=9 note=42 velocity=42 time=0
EXTRACT: note_on channel=9 note=38 velocity=0 time=0.045871499999999996
EXTRACT: note_on channel=9 note=42 velocity=0 time=0
EXTRACT: note_on channel=9 note=39 velocity=65 time=0.0733944
EXTRACT: note_on channel=9 note=39 velocity=0 time=0.045871499999999996
EXTRACT: note_on channel=9 note=69 velocity=82 time=0.1100916
EXTRACT: note_on channel=9 note=42 velocity=42 time=0
EXTRACT: note_on channel=9 note=69 velocity=0 time=0.045871499999999996
EXTRACT: note_on channel=9 note=42 velocity=0 time=0
EXTRACT: note_on channel=9 note=69 velocity=78 time=0.09174299999999999
EXTRACT: note_on channel=9 note=69 velocity=0 time=0.045871499999999996
EXTRACT: note_on channel=9 note=39 velocity=71 time=0.0733944
EXTRACT: note_on channel=9 note=69 velocity=76 time=0.0183486
EXTRACT: note_on channel=9 note=42 velocity=42 time=0
EXTRACT: note_on channel=9 note=39 velocity=0 time=0.0275229
EXTRACT: note_on channel=9 note=69 velocity=0 time=0.0183486
EXTRACT: note_on channel=9 note=42 velocity=0 time=0
EXTRACT: note_on channel=9 note=42 velocity=42 time=0.2293575
EXTRACT: note_on channel=9 note=36 velocity=98 time=0
EXTRACT: note_on channel=9 note=42 velocity=0 time=0.045871499999999996
EXTRACT: note_on channel=9 note=36 velocity=0 time=0
EXTRACT: note_on channel=9 note=39 velocity=61 time=0.0733944
EXTRACT: note_on channel=9 note=39 velocity=0 time=0.045871499999999996
EXTRACT: note_on channel=9 note=38 velocity=127 time=0.1100916
EXTRACT: note_on channel=9 note=42 velocity=42 time=0
EXTRACT: note_on channel=9 note=38 velocity=0 time=0.045871499999999996
EXTRACT: note_on channel=9 note=42 velocity=0 time=0
EXTRACT: note_on channel=9 note=69 velocity=78 time=0.2293575
EXTRACT: note_on channel=9 note=61 velocity=44 time=0
EXTRACT: note_on channel=9 note=42 velocity=42 time=0
EXTRACT: note_on channel=9 note=69 velocity=0 time=0.045871499999999996
EXTRACT: note_on channel=9 note=61 velocity=0 time=0
EXTRACT: note_on channel=9 note=42 velocity=0 time=0
EXTRACT: note_on channel=9 note=61 velocity=44 time=0.09174299999999999
EXTRACT: note_on channel=9 note=61 velocity=0 time=0.045871499999999996
EXTRACT: note_on channel=9 note=39 velocity=68 time=0.0733944
EXTRACT: note_on channel=0 note=34 velocity=105 time=0.01376145
EXTRACT: note_on channel=1 note=34 velocity=104 time=0.00458715
EXTRACT: note_on channel=9 note=61 velocity=44 time=0
EXTRACT: note_on channel=9 note=42 velocity=42 time=0
EXTRACT: note_on channel=9 note=36 velocity=98 time=0
EXTRACT: note_on channel=9 note=39 velocity=0 time=0.0275229
EXTRACT: note_on channel=9 note=61 velocity=0 time=0.0183486
EXTRACT: note_on channel=9 note=42 velocity=0 time=0
EXTRACT: note_on channel=9 note=36 velocity=0 time=0
EXTRACT: note_on channel=9 note=39 velocity=51 time=0.0733944
EXTRACT: note_on channel=9 note=61 velocity=44 time=0.0183486
EXTRACT: note_on channel=9 note=39 velocity=0 time=0.0275229
EXTRACT: note_on channel=9 note=61 velocity=0 time=0.0183486
EXTRACT: note_on channel=0 note=34 velocity=0 time=0.08715584999999999
EXTRACT: note_on channel=1 note=34 velocity=0 time=0.00458715
EXTRACT: note_on channel=9 note=61 velocity=44 time=0
EXTRACT: note_on channel=9 note=42 velocity=42 time=0
EXTRACT: note_on channel=9 note=61 velocity=0 time=0.045871499999999996
EXTRACT: note_on channel=9 note=42 velocity=0 time=0
EXTRACT: note_on channel=0 note=34 velocity=87 time=0.08715584999999999
EXTRACT: note_on channel=1 note=34 velocity=99 time=0.00458715
EXTRACT: note_on channel=9 note=36 velocity=98 time=0
EXTRACT: note_on channel=9 note=36 velocity=0 time=0.045871499999999996
EXTRACT: note_on channel=9 note=39 velocity=62 time=0.0733944
EXTRACT: note_on channel=0 note=34 velocity=0 time=0.01376145
EXTRACT: note_on channel=1 note=34 velocity=0 time=0.00458715
EXTRACT: note_on channel=9 note=38 velocity=127 time=0
EXTRACT: note_on channel=9 note=42 velocity=42 time=0
EXTRACT: note_on channel=9 note=39 velocity=0 time=0.0275229
EXTRACT: note_on channel=9 note=38 velocity=0 time=0.0183486
EXTRACT: note_on channel=9 note=42 velocity=0 time=0
EXTRACT: note_on channel=9 note=39 velocity=61 time=0.0733944
EXTRACT: note_on channel=9 note=39 velocity=0 time=0.045871499999999996
EXTRACT: note_on channel=0 note=34 velocity=92 time=0.10550445
EXTRACT: note_on channel=1 note=34 velocity=110 time=0.00458715
EXTRACT: note_on channel=9 note=69 velocity=76 time=0
EXTRACT: note_on channel=9 note=42 velocity=42 time=0
EXTRACT: note_on channel=9 note=69 velocity=0 time=0.045871499999999996
EXTRACT: note_on channel=9 note=42 velocity=0 time=0
EXTRACT: note_on channel=0 note=34 velocity=0 time=0.08715584999999999
EXTRACT: note_on channel=1 note=34 velocity=0 time=0.00458715
EXTRACT: note_on channel=9 note=36 velocity=92 time=0
EXTRACT: note_on channel=9 note=69 velocity=75 time=0
EXTRACT: note_on channel=9 note=36 velocity=0 time=0.045871499999999996
EXTRACT: note_on channel=9 note=69 velocity=0 time=0
EXTRACT: note_on channel=9 note=39 velocity=72 time=0.0733944
EXTRACT: note_on channel=0 note=39 velocity=85 time=0.01376145
EXTRACT: note_on channel=1 note=39 velocity=110 time=0.00458715
EXTRACT: note_on channel=9 note=36 velocity=98 time=0
EXTRACT: note_on channel=9 note=69 velocity=82 time=0
EXTRACT: note_on channel=9 note=42 velocity=42 time=0
EXTRACT: note_on channel=9 note=39 velocity=0 time=0.0275229
EXTRACT: note_on channel=9 note=36 velocity=0 time=0.0183486
EXTRACT: note_on channel=9 note=69 velocity=0 time=0
EXTRACT: note_on channel=9 note=42 velocity=0 time=0
EXTRACT: note_on channel=9 note=39 velocity=74 time=0.0733944
EXTRACT: note_on channel=9 note=39 velocity=0 time=0.045871499999999996
EXTRACT: note_on channel=0 note=39 velocity=0 time=0.10550445
EXTRACT: note_on channel=1 note=39 velocity=0 time=0.00458715
EXTRACT: note_on channel=9 note=36 velocity=92 time=0
EXTRACT: note_on channel=9 note=42 velocity=42 time=0
EXTRACT: note_on channel=9 note=36 velocity=0 time=0.045871499999999996
EXTRACT: note_on channel=9 note=42 velocity=0 time=0
EXTRACT: note_on channel=0 note=39 velocity=89 time=0.08715584999999999
EXTRACT: note_on channel=1 note=39 velocity=106 time=0.00458715
EXTRACT: note_on channel=9 note=36 velocity=92 time=0
EXTRACT: note_on channel=9 note=36 velocity=0 time=0.045871499999999996
EXTRACT: note_on channel=9 note=39 velocity=62 time=0.0733944
EXTRACT: note_on channel=0 note=39 velocity=0 time=0.01376145
EXTRACT: note_on channel=1 note=39 velocity=0 time=0.00458715
EXTRACT: note_on channel=9 note=38 velocity=127 time=0
EXTRACT: note_on channel=9 note=42 velocity=42 time=0
EXTRACT: note_on channel=9 note=39 velocity=0 time=0.0275229
EXTRACT: note_on channel=9 note=38 velocity=0 time=0.0183486
EXTRACT: note_on channel=9 note=42 velocity=0 time=0
EXTRACT: note_on channel=9 note=39 velocity=51 time=0.0733944
EXTRACT: note_on channel=9 note=39 velocity=0 time=0.045871499999999996
EXTRACT: note_on channel=9 note=39 velocity=66 time=0.09174299999999999
EXTRACT: note_on channel=9 note=61 velocity=44 time=0.0183486
EXTRACT: note_on channel=9 note=36 velocity=92 time=0
EXTRACT: note_on channel=9 note=42 velocity=42 time=0
EXTRACT: note_on channel=9 note=39 velocity=0 time=0.0275229
EXTRACT: note_on channel=9 note=61 velocity=0 time=0.0183486
EXTRACT: note_on channel=9 note=36 velocity=0 time=0
EXTRACT: note_on channel=9 note=42 velocity=0 time=0
EXTRACT: note_on channel=9 note=39 velocity=30 time=0.0733944
EXTRACT: note_on channel=9 note=61 velocity=44 time=0.0183486
EXTRACT: note_on channel=9 note=36 velocity=92 time=0
EXTRACT: note_on channel=9 note=39 velocity=0 time=0.0275229
EXTRACT: note_on channel=9 note=61 velocity=0 time=0.0183486
EXTRACT: note_on channel=9 note=36 velocity=0 time=0
EXTRACT: note_on channel=0 note=32 velocity=92 time=0.08715584999999999
EXTRACT: note_on channel=1 note=32 velocity=111 time=0.00458715
EXTRACT: note_on channel=9 note=61 velocity=44 time=0
EXTRACT: note_on channel=9 note=42 velocity=42 time=0
EXTRACT: note_on channel=9 note=36 velocity=98 time=0
EXTRACT: note_on channel=9 note=61 velocity=0 time=0.045871499999999996
EXTRACT: note_on channel=9 note=42 velocity=0 time=0
EXTRACT: note_on channel=9 note=36 velocity=0 time=0
EXTRACT: note_on channel=9 note=39 velocity=58 time=0.2110089
EXTRACT: note_on channel=0 note=32 velocity=0 time=0.01376145
EXTRACT: note_on channel=1 note=32 velocity=0 time=0.00458715
EXTRACT: note_on channel=9 note=42 velocity=42 time=0
EXTRACT: note_on channel=9 note=39 velocity=0 time=0.0275229
EXTRACT: note_on channel=9 note=42 velocity=0 time=0.0183486
EXTRACT: note_on channel=0 note=32 velocity=98 time=0.08715584999999999
EXTRACT: note_on channel=1 note=32 velocity=99 time=0.00458715
EXTRACT: note_on channel=9 note=61 velocity=44 time=0
EXTRACT: note_on channel=9 note=36 velocity=98 time=0
EXTRACT: note_on channel=9 note=61 velocity=0 time=0.045871499999999996
EXTRACT: note_on channel=9 note=36 velocity=0 time=0
EXTRACT: note_on channel=0 note=32 velocity=0 time=0.08715584999999999
EXTRACT: note_on channel=1 note=32 velocity=0 time=0.00458715
EXTRACT: note_on channel=9 note=38 velocity=127 time=0
EXTRACT: note_on channel=9 note=42 velocity=42 time=0
EXTRACT: note_on channel=9 note=38 velocity=0 time=0.045871499999999996
EXTRACT: note_on channel=9 note=42 velocity=0 time=0
EXTRACT: note_on channel=9 note=39 velocity=61 time=0.0733944
EXTRACT: note_on channel=9 note=39 velocity=0 time=0.045871499999999996
EXTRACT: note_on channel=9 note=69 velocity=78 time=0.1100916
EXTRACT: note_on channel=9 note=42 velocity=42 time=0
EXTRACT: note_on channel=9 note=69 velocity=0 time=0.045871499999999996
EXTRACT: note_on channel=9 note=42 velocity=0 time=0
EXTRACT: note_on channel=9 note=69 velocity=82 time=0.09174299999999999
EXTRACT: note_on channel=9 note=69 velocity=0 time=0.045871499999999996
EXTRACT: note_on channel=9 note=39 velocity=62 time=0.0733944
EXTRACT: note_on channel=9 note=69 velocity=78 time=0.0183486
EXTRACT: note_on channel=9 note=42 velocity=42 time=0
EXTRACT: note_on channel=9 note=39 velocity=0 time=0.0275229
EXTRACT: note_on channel=9 note=69 velocity=0 time=0.0183486
EXTRACT: note_on channel=9 note=42 velocity=0 time=0
EXTRACT: note_on channel=9 note=42 velocity=42 time=0.2293575
EXTRACT: note_on channel=9 note=36 velocity=98 time=0
EXTRACT: note_on channel=9 note=42 velocity=0 time=0.045871499999999996
EXTRACT: note_on channel=9 note=36 velocity=0 time=0
EXTRACT: note_on channel=9 note=39 velocity=69 time=0.0733944
EXTRACT: note_on channel=9 note=39 velocity=0 time=0.045871499999999996
EXTRACT: note_on channel=9 note=38 velocity=127 time=0.1100916
EXTRACT: note_on channel=9 note=42 velocity=42 time=0
EXTRACT: note_on channel=9 note=38 velocity=0 time=0.045871499999999996
EXTRACT: note_on channel=9 note=42 velocity=0 time=0
EXTRACT: note_on channel=9 note=69 velocity=82 time=0.2293575
EXTRACT: note_on channel=9 note=61 velocity=44 time=0
EXTRACT: note_on channel=9 note=42 velocity=42 time=0
EXTRACT: note_on channel=9 note=69 velocity=0 time=0.045871499999999996
EXTRACT: note_on channel=9 note=61 velocity=0 time=0
EXTRACT: note_on channel=9 note=42 velocity=0 time=0
EXTRACT: note_on channel=9 note=61 velocity=44 time=0.09174299999999999
EXTRACT: note_on channel=9 note=61 velocity=0 time=0.045871499999999996
EXTRACT: note_on channel=0 note=31 velocity=85 time=0.08715584999999999
EXTRACT: note_on channel=1 note=31 velocity=96 time=0.00458715
EXTRACT: note_on channel=9 note=61 velocity=44 time=0
EXTRACT: note_on channel=9 note=42 velocity=42 time=0
EXTRACT: note_on channel=9 note=36 velocity=98 time=0
EXTRACT: note_on channel=9 note=61 velocity=0 time=0.045871499999999996
EXTRACT: note_on channel=9 note=42 velocity=0 time=0
EXTRACT: note_on channel=9 note=36 velocity=0 time=0
EXTRACT: note_on channel=9 note=61 velocity=44 time=0.09174299999999999
EXTRACT: note_on channel=9 note=61 velocity=0 time=0.045871499999999996
EXTRACT: note_on channel=9 note=39 velocity=51 time=0.0733944
EXTRACT: note_on channel=0 note=31 velocity=0 time=0.01376145
EXTRACT: note_on channel=1 note=31 velocity=0 time=0.00458715
EXTRACT: note_on channel=9 note=61 velocity=44 time=0
EXTRACT: note_on channel=9 note=42 velocity=42 time=0
EXTRACT: note_on channel=9 note=39 velocity=0 time=0.0275229
EXTRACT: note_on channel=9 note=61 velocity=0 time=0.0183486
EXTRACT: note_on channel=9 note=42 velocity=0 time=0
EXTRACT: note_on channel=0 note=31 velocity=96 time=0.08715584999999999
EXTRACT: note_on channel=1 note=31 velocity=113 time=0.00458715
EXTRACT: note_on channel=9 note=36 velocity=98 time=0
EXTRACT: note_on channel=9 note=36 velocity=0 time=0.045871499999999996
EXTRACT: note_on channel=0 note=31 velocity=0 time=0.08715584999999999
EXTRACT: note_on channel=1 note=31 velocity=0 time=0.00458715
EXTRACT: note_on channel=9 note=38 velocity=127 time=0
EXTRACT: note_on channel=9 note=42 velocity=42 time=0
EXTRACT: note_on channel=9 note=38 velocity=0 time=0.045871499999999996
EXTRACT: note_on channel=9 note=42 velocity=0 time=0
EXTRACT: note_on channel=9 note=39 velocity=65 time=0.0733944
EXTRACT: note_on channel=9 note=39 velocity=0 time=0.045871499999999996
EXTRACT: note_on channel=9 note=69 velocity=76 time=0.1100916
EXTRACT: note_on channel=9 note=42 velocity=42 time=0
EXTRACT: note_on channel=9 note=69 velocity=0 time=0.045871499999999996
EXTRACT: note_on channel=9 note=42 velocity=0 time=0
EXTRACT: note_on channel=9 note=69 velocity=78 time=0.09174299999999999
EXTRACT: note_on channel=9 note=69 velocity=0 time=0.045871499999999996
EXTRACT: note_on channel=9 note=39 velocity=57 time=0.0733944
EXTRACT: note_on channel=9 note=69 velocity=78 time=0.0183486
EXTRACT: note_on channel=9 note=42 velocity=42 time=0
EXTRACT: note_on channel=9 note=39 velocity=0 time=0.0275229
EXTRACT: note_on channel=9 note=69 velocity=0 time=0.0183486
EXTRACT: note_on channel=9 note=42 velocity=0 time=0
EXTRACT: note_on channel=0 note=34 velocity=87 time=0.22477035
EXTRACT: note_on channel=1 note=34 velocity=103 time=0.00458715
EXTRACT: note_on channel=9 note=42 velocity=42 time=0
EXTRACT: note_on channel=9 note=36 velocity=98 time=0
EXTRACT: note_on channel=9 note=42 velocity=0 time=0.045871499999999996
EXTRACT: note_on channel=9 note=36 velocity=0 time=0
EXTRACT: note_on channel=9 note=39 velocity=72 time=0.0733944
EXTRACT: note_on channel=0 note=34 velocity=0 time=0.01376145
EXTRACT: note_on channel=1 note=34 velocity=0 time=0.00458715
EXTRACT: note_on channel=9 note=39 velocity=0 time=0.0275229
EXTRACT: note_on channel=9 note=38 velocity=127 time=0.1100916
EXTRACT: note_on channel=9 note=42 velocity=42 time=0
EXTRACT: note_on channel=9 note=38 velocity=0 time=0.045871499999999996
EXTRACT: note_on channel=9 note=42 velocity=0 time=0
EXTRACT: note_on channel=0 note=34 velocity=96 time=0.08715584999999999
EXTRACT: note_on channel=1 note=34 velocity=95 time=0.00458715
EXTRACT: note_on channel=0 note=34 velocity=0 time=0.13302735
EXTRACT: note_on channel=1 note=34 velocity=0 time=0.00458715
EXTRACT: note_on channel=9 note=61 velocity=44 time=0
EXTRACT: note_on channel=9 note=36 velocity=92 time=0
EXTRACT: note_on channel=9 note=42 velocity=42 time=0
EXTRACT: note_on channel=9 note=61 velocity=0 time=0.045871499999999996
EXTRACT: note_on channel=9 note=36 velocity=0 time=0
EXTRACT: note_on channel=9 note=42 velocity=0 time=0
EXTRACT: note_on channel=9 note=61 velocity=44 time=0.09174299999999999
EXTRACT: note_on channel=9 note=36 velocity=92 time=0
EXTRACT: note_on channel=9 note=61 velocity=0 time=0.045871499999999996
EXTRACT: note_on channel=9 note=36 velocity=0 time=0
EXTRACT: note_on channel=0 note=36 velocity=85 time=0.08715584999999999
EXTRACT: note_on channel=1 note=36 velocity=98 time=0.00458715
EXTRACT: note_on channel=9 note=61 velocity=44 time=0
EXTRACT: note_on channel=9 note=42 velocity=42 time=0
EXTRACT: note_on channel=9 note=36 velocity=98 time=0
EXTRACT: note_on channel=9 note=61 velocity=0 time=0.045871499999999996
EXTRACT: note_on channel=9 note=42 velocity=0 time=0
EXTRACT: note_on channel=9 note=36 velocity=0 time=0
EXTRACT: note_on channel=9 note=39 velocity=58 time=0.2110089
EXTRACT: note_on channel=0 note=36 velocity=0 time=0.01376145
EXTRACT: note_on channel=1 note=36 velocity=0 time=0.00458715
EXTRACT: note_on channel=9 note=42 velocity=42 time=0
EXTRACT: note_on channel=9 note=39 velocity=0 time=0.0275229
EXTRACT: note_on channel=9 note=42 velocity=0 time=0.0183486
EXTRACT: note_on channel=0 note=36 velocity=101 time=0.08715584999999999
EXTRACT: note_on channel=1 note=36 velocity=94 time=0.00458715
EXTRACT: note_on channel=9 note=61 velocity=44 time=0
EXTRACT: note_on channel=9 note=36 velocity=98 time=0
EXTRACT: note_on channel=9 note=61 velocity=0 time=0.045871499999999996
EXTRACT: note_on channel=9 note=36 velocity=0 time=0
EXTRACT: note_on channel=0 note=36 velocity=0 time=0.08715584999999999
EXTRACT: note_on channel=1 note=36 velocity=0 time=0.00458715
EXTRACT: note_on channel=9 note=38 velocity=127 time=0
EXTRACT: note_on channel=9 note=42 velocity=42 time=0
EXTRACT: note_on channel=9 note=38 velocity=0 time=0.045871499999999996
EXTRACT: note_on channel=9 note=42 velocity=0 time=0
EXTRACT: note_on channel=9 note=39 velocity=56 time=0.0733944
EXTRACT: note_on channel=9 note=39 velocity=0 time=0.045871499999999996
EXTRACT: note_on channel=9 note=69 velocity=76 time=0.1100916
EXTRACT: note_on channel=9 note=42 velocity=42 time=0
EXTRACT: note_on channel=9 note=69 velocity=0 time=0.045871499999999996
EXTRACT: note_on channel=9 note=42 velocity=0 time=0
EXTRACT: note_on channel=9 note=69 velocity=80 time=0.09174299999999999
EXTRACT: note_on channel=9 note=69 velocity=0 time=0.045871499999999996
EXTRACT: note_on channel=9 note=39 velocity=55 time=0.0733944
EXTRACT: note_on channel=9 note=69 velocity=75 time=0.0183486
EXTRACT: note_on channel=9 note=42 velocity=42 time=0
EXTRACT: note_on channel=9 note=39 velocity=0 time=0.0275229
EXTRACT: note_on channel=9 note=69 velocity=0 time=0.0183486
EXTRACT: note_on channel=9 note=42 velocity=0 time=0
EXTRACT: note_on channel=9 note=42 velocity=42 time=0.2293575
EXTRACT: note_on channel=9 note=36 velocity=98 time=0
EXTRACT: note_on channel=9 note=42 velocity=0 time=0.045871499999999996
EXTRACT: note_on channel=9 note=36 velocity=0 time=0
EXTRACT: note_on channel=9 note=39 velocity=61 time=0.0733944
EXTRACT: note_on channel=9 note=39 velocity=0 time=0.045871499999999996
EXTRACT: note_on channel=9 note=38 velocity=127 time=0.1100916
EXTRACT: note_on channel=9 note=42 velocity=42 time=0
EXTRACT: note_on channel=9 note=38 velocity=0 time=0.045871499999999996
EXTRACT: note_on channel=9 note=42 velocity=0 time=0
EXTRACT: note_on channel=9 note=69 velocity=78 time=0.2293575
EXTRACT: note_on channel=9 note=61 velocity=44 time=0
EXTRACT: note_on channel=9 note=42 velocity=42 time=0
EXTRACT: note_on channel=9 note=69 velocity=0 time=0.045871499999999996
EXTRACT: note_on channel=9 note=61 velocity=0 time=0
EXTRACT: note_on channel=9 note=42 velocity=0 time=0
EXTRACT: note_on channel=9 note=61 velocity=44 time=0.09174299999999999
EXTRACT: note_on channel=9 note=61 velocity=0 time=0.045871499999999996
EXTRACT: note_on channel=9 note=39 velocity=73 time=0.0733944
EXTRACT: note_on channel=0 note=34 velocity=101 time=0.01376145
EXTRACT: note_on channel=1 note=34 velocity=110 time=0.00458715
EXTRACT: note_on channel=9 note=61 velocity=44 time=0
EXTRACT: note_on channel=9 note=42 velocity=42 time=0
EXTRACT: note_on channel=9 note=36 velocity=98 time=0
EXTRACT: note_on channel=9 note=39 velocity=0 time=0.0275229
EXTRACT: note_on channel=9 note=61 velocity=0 time=0.0183486
EXTRACT: note_on channel=9 note=42 velocity=0 time=0
EXTRACT: note_on channel=9 note=36 velocity=0 time=0
EXTRACT: note_on channel=9 note=39 velocity=51 time=0.0733944
EXTRACT: note_on channel=9 note=61 velocity=44 time=0.0183486
EXTRACT: note_on channel=9 note=39 velocity=0 time=0.0275229
EXTRACT: note_on channel=9 note=61 velocity=0 time=0.0183486
EXTRACT: note_on channel=0 note=34 velocity=0 time=0.08715584999999999
EXTRACT: note_on channel=1 note=34 velocity=0 time=0.00458715
EXTRACT: note_on channel=9 note=61 velocity=44 time=0
EXTRACT: note_on channel=9 note=42 velocity=42 time=0
EXTRACT: note_on channel=9 note=61 velocity=0 time=0.045871499999999996
EXTRACT: note_on channel=9 note=42 velocity=0 time=0
EXTRACT: note_on channel=0 note=34 velocity=91 time=0.08715584999999999
EXTRACT: note_on channel=1 note=34 velocity=104 time=0.00458715
EXTRACT: note_on channel=9 note=36 velocity=98 time=0
EXTRACT: note_on channel=9 note=36 velocity=0 time=0.045871499999999996
EXTRACT: note_on channel=9 note=39 velocity=51 time=0.0733944
EXTRACT: note_on channel=0 note=34 velocity=0 time=0.01376145
EXTRACT: note_on channel=1 note=34 velocity=0 time=0.00458715
EXTRACT: note_on channel=9 note=38 velocity=127 time=0
EXTRACT: note_on channel=9 note=42 velocity=42 time=0
EXTRACT: note_on channel=9 note=39 velocity=0 time=0.0275229
EXTRACT: note_on channel=9 note=38 velocity=0 time=0.0183486
EXTRACT: note_on channel=9 note=42 velocity=0 time=0
EXTRACT: note_on channel=9 note=39 velocity=62 time=0.0733944
EXTRACT: note_on channel=9 note=39 velocity=0 time=0.045871499999999996
EXTRACT: note_on channel=0 note=34 velocity=90 time=0.10550445
EXTRACT: note_on channel=1 note=34 velocity=93 time=0.00458715
EXTRACT: note_on channel=9 note=69 velocity=81 time=0
EXTRACT: note_on channel=9 note=42 velocity=42 time=0
EXTRACT: note_on channel=9 note=69 velocity=0 time=0.045871499999999996
EXTRACT: note_on channel=9 note=42 velocity=0 time=0
EXTRACT: note_on channel=0 note=34 velocity=0 time=0.08715584999999999
EXTRACT: note_on channel=1 note=34 velocity=0 time=0.00458715
EXTRACT: note_on channel=9 note=69 velocity=75 time=0
EXTRACT: note_on channel=9 note=69 velocity=0 time=0.045871499999999996
EXTRACT: note_on channel=9 note=39 velocity=71 time=0.0733944
EXTRACT: note_on channel=0 note=39 velocity=87 time=0.01376145
EXTRACT: note_on channel=6 note=32 velocity=86 time=0
EXTRACT: note_on channel=1 note=39 velocity=97 time=0.00458715
EXTRACT: note_on channel=9 note=29 velocity=45 time=0
EXTRACT: note_on channel=9 note=36 velocity=92 time=0
EXTRACT: note_on channel=9 note=39 velocity=0 time=0.0275229
EXTRACT: note_on channel=9 note=29 velocity=0 time=0.0183486
EXTRACT: note_on channel=9 note=36 velocity=0 time=0
EXTRACT: note_on channel=9 note=39 velocity=59 time=0.0733944
EXTRACT: note_on channel=6 note=32 velocity=0 time=0.0126146625
EXTRACT: note_on channel=6 note=32 velocity=79 time=0.0011467875
EXTRACT: note_on channel=9 note=29 velocity=31 time=0.00458715
EXTRACT: note_on channel=9 note=41 velocity=70 time=0
EXTRACT: note_on channel=9 note=39 velocity=0 time=0.0275229
EXTRACT: note_on channel=9 note=29 velocity=0 time=0.0183486
EXTRACT: note_on channel=9 note=41 velocity=0 time=0
EXTRACT: note_on channel=6 note=32 velocity=0 time=0.0860090625
EXTRACT: note_on channel=0 note=39 velocity=0 time=0.0011467875
EXTRACT: note_on channel=6 note=32 velocity=107 time=0
EXTRACT: note_on channel=1 note=39 velocity=0 time=0.00458715
EXTRACT: note_on channel=9 note=29 velocity=45 time=0
EXTRACT: note_on channel=9 note=36 velocity=92 time=0
EXTRACT: note_on channel=9 note=29 velocity=0 time=0.045871499999999996
EXTRACT: note_on channel=9 note=36 velocity=0 time=0
EXTRACT: note_on channel=6 note=32 velocity=0 time=0.0860090625
EXTRACT: note_on channel=0 note=39 velocity=107 time=0.0011467875
EXTRACT: note_on channel=6 note=32 velocity=91 time=0
EXTRACT: note_on channel=1 note=39 velocity=95 time=0.00458715
EXTRACT: note_on channel=9 note=29 velocity=31 time=0
EXTRACT: note_on channel=9 note=41 velocity=70 time=0
EXTRACT: note_on channel=9 note=29 velocity=0 time=0.045871499999999996
EXTRACT: note_on channel=9 note=41 velocity=0 time=0
EXTRACT: note_on channel=9 note=39 velocity=60 time=0.0733944
EXTRACT: note_on channel=6 note=32 velocity=0 time=0.0126146625
EXTRACT: note_on channel=0 note=39 velocity=0 time=0.0011467875
EXTRACT: note_on channel=6 note=32 velocity=96 time=0
EXTRACT: note_on channel=1 note=39 velocity=0 time=0.00458715
EXTRACT: note_on channel=9 note=29 velocity=45 time=0
EXTRACT: note_on channel=9 note=38 velocity=127 time=0
EXTRACT: note_on channel=9 note=36 velocity=92 time=0
EXTRACT: note_on channel=9 note=39 velocity=0 time=0.0275229
EXTRACT: note_on channel=9 note=29 velocity=0 time=0.0183486
EXTRACT: note_on channel=9 note=38 velocity=0 time=0
EXTRACT: note_on channel=9 note=36 velocity=0 time=0
EXTRACT: note_on channel=9 note=39 velocity=25 time=0.0733944
EXTRACT: note_on channel=6 note=32 velocity=0 time=0.0126146625
EXTRACT: note_on channel=6 note=32 velocity=60 time=0.0011467875
EXTRACT: note_on channel=9 note=29 velocity=31 time=0.00458715
EXTRACT: note_on channel=9 note=41 velocity=70 time=0
EXTRACT: note_on channel=9 note=39 velocity=0 time=0.0275229
EXTRACT: note_on channel=9 note=29 velocity=0 time=0.0183486
EXTRACT: note_on channel=9 note=41 velocity=0 time=0
EXTRACT: note_on channel=9 note=39 velocity=51 time=0.0733944
EXTRACT: note_on channel=6 note=32 velocity=0 time=0.0126146625
EXTRACT: note_on channel=6 note=32 velocity=95 time=0.0011467875
EXTRACT: note_on channel=9 note=61 velocity=44 time=0.00458715
EXTRACT: note_on channel=9 note=29 velocity=45 time=0
EXTRACT: note_on channel=9 note=36 velocity=92 time=0
EXTRACT: note_on channel=9 note=39 velocity=0 time=0.0275229
EXTRACT: note_on channel=9 note=61 velocity=0 time=0.0183486
EXTRACT: note_on channel=9 note=29 velocity=0 time=0
EXTRACT: note_on channel=9 note=36 velocity=0 time=0
EXTRACT: note_on channel=9 note=39 velocity=57 time=0.0733944
EXTRACT: note_on channel=6 note=32 velocity=0 time=0.0126146625
EXTRACT: note_on channel=6 note=32 velocity=90 time=0.0011467875
EXTRACT: note_on channel=9 note=61 velocity=44 time=0.00458715
EXTRACT: note_on channel=9 note=29 velocity=31 time=0
EXTRACT: note_on channel=9 note=41 velocity=70 time=0
EXTRACT: note_on channel=9 note=39 velocity=0 time=0.0275229
EXTRACT: note_on channel=9 note=61 velocity=0 time=0.0183486
EXTRACT: note_on channel=9 note=29 velocity=0 time=0
EXTRACT: note_on channel=9 note=41 velocity=0 time=0
EXTRACT: note_on channel=0 note=32 velocity=95 time=0.08715584999999999
EXTRACT: note_on channel=6 note=32 velocity=0 time=0
EXTRACT: note_on channel=1 note=32 velocity=94 time=0.00458715
EXTRACT: note_on channel=9 note=61 velocity=44 time=0
EXTRACT: note_on channel=9 note=57 velocity=96 time=0
EXTRACT: note_on channel=9 note=36 velocity=98 time=0
EXTRACT: note_on channel=9 note=61 velocity=0 time=0.045871499999999996
EXTRACT: note_on channel=9 note=57 velocity=0 time=0
EXTRACT: note_on channel=9 note=36 velocity=0 time=0
EXTRACT: note_on channel=9 note=39 velocity=56 time=0.2110089
EXTRACT: note_on channel=0 note=32 velocity=0 time=0.01376145
EXTRACT: note_on channel=1 note=32 velocity=0 time=0.00458715
EXTRACT: note_on channel=9 note=42 velocity=42 time=0
EXTRACT: note_on channel=9 note=39 velocity=0 time=0.0275229
EXTRACT: note_on channel=9 note=42 velocity=0 time=0.0183486
EXTRACT: note_on channel=0 note=32 velocity=96 time=0.08715584999999999
EXTRACT: note_on channel=1 note=32 velocity=100 time=0.00458715
EXTRACT: note_on channel=9 note=61 velocity=44 time=0
EXTRACT: note_on channel=9 note=36 velocity=98 time=0
EXTRACT: note_on channel=9 note=61 velocity=0 time=0.045871499999999996
EXTRACT: note_on channel=9 note=36 velocity=0 time=0
EXTRACT: note_on channel=0 note=32 velocity=0 time=0.08715584999999999
EXTRACT: note_on channel=1 note=32 velocity=0 time=0.00458715
EXTRACT: note_on channel=9 note=38 velocity=127 time=0
EXTRACT: note_on channel=9 note=42 velocity=42 time=0
EXTRACT: note_on channel=9 note=38 velocity=0 time=0.045871499999999996
EXTRACT: note_on channel=9 note=42 velocity=0 time=0
EXTRACT: note_on channel=9 note=39 velocity=55 time=0.0733944
EXTRACT: note_on channel=9 note=39 velocity=0 time=0.045871499999999996
EXTRACT: note_on channel=9 note=69 velocity=75 time=0.1100916
EXTRACT: note_on channel=9 note=42 velocity=42 time=0
EXTRACT: note_on channel=9 note=69 velocity=0 time=0.045871499999999996
EXTRACT: note_on channel=9 note=42 velocity=0 time=0
EXTRACT: note_on channel=9 note=69 velocity=81 time=0.09174299999999999
EXTRACT: note_on channel=9 note=69 velocity=0 time=0.045871499999999996
EXTRACT: note_on channel=9 note=39 velocity=72 time=0.0733944
EXTRACT: note_on channel=9 note=69 velocity=78 time=0.0183486
EXTRACT: note_on channel=9 note=42 velocity=42 time=0
EXTRACT: note_on channel=9 note=39 velocity=0 time=0.0275229
EXTRACT: note_on channel=9 note=69 velocity=0 time=0.0183486
EXTRACT: note_on channel=9 note=42 velocity=0 time=0
EXTRACT: note_on channel=9 note=42 velocity=42 time=0.2293575
EXTRACT: note_on channel=9 note=36 velocity=98 time=0
EXTRACT: note_on channel=9 note=42 velocity=0 time=0.045871499999999996
EXTRACT: note_on channel=9 note=36 velocity=0 time=0
EXTRACT: note_on channel=9 note=39 velocity=55 time=0.0733944
EXTRACT: note_on channel=9 note=39 velocity=0 time=0.045871499999999996
EXTRACT: note_on channel=9 note=38 velocity=127 time=0.1100916
EXTRACT: note_on channel=9 note=42 velocity=42 time=0
EXTRACT: note_on channel=9 note=38 velocity=0 time=0.045871499999999996
EXTRACT: note_on channel=9 note=42 velocity=0 time=0
EXTRACT: note_on channel=9 note=69 velocity=82 time=0.2293575
EXTRACT: note_on channel=9 note=61 velocity=44 time=0
EXTRACT: note_on channel=9 note=42 velocity=42 time=0
EXTRACT: note_on channel=9 note=69 velocity=0 time=0.045871499999999996
EXTRACT: note_on channel=9 note=61 velocity=0 time=0
EXTRACT: note_on channel=9 note=42 velocity=0 time=0
EXTRACT: note_on channel=9 note=61 velocity=44 time=0.09174299999999999
EXTRACT: note_on channel=9 note=61 velocity=0 time=0.045871499999999996
EXTRACT: note_on channel=0 note=31 velocity=107 time=0.08715584999999999
EXTRACT: note_on channel=1 note=31 velocity=93 time=0.00458715
EXTRACT: note_on channel=9 note=61 velocity=44 time=0
EXTRACT: note_on channel=9 note=42 velocity=42 time=0
EXTRACT: note_on channel=9 note=36 velocity=98 time=0
EXTRACT: note_on channel=9 note=61 velocity=0 time=0.045871499999999996
EXTRACT: note_on channel=9 note=42 velocity=0 time=0
EXTRACT: note_on channel=9 note=36 velocity=0 time=0
EXTRACT: note_on channel=9 note=61 velocity=44 time=0.09174299999999999
EXTRACT: note_on channel=9 note=61 velocity=0 time=0.045871499999999996
EXTRACT: note_on channel=9 note=39 velocity=59 time=0.0733944
EXTRACT: note_on channel=0 note=31 velocity=0 time=0.01376145
EXTRACT: note_on channel=1 note=31 velocity=0 time=0.00458715
EXTRACT: note_on channel=9 note=61 velocity=44 time=0
EXTRACT: note_on channel=9 note=42 velocity=42 time=0
EXTRACT: note_on channel=9 note=39 velocity=0 time=0.0275229
EXTRACT: note_on channel=9 note=61 velocity=0 time=0.0183486
EXTRACT: note_on channel=9 note=42 velocity=0 time=0
EXTRACT: note_on channel=0 note=31 velocity=97 time=0.08715584999999999
EXTRACT: note_on channel=1 note=31 velocity=109 time=0.00458715
EXTRACT: note_on channel=9 note=36 velocity=98 time=0
EXTRACT: note_on channel=9 note=36 velocity=0 time=0.045871499999999996
EXTRACT: note_on channel=0 note=31 velocity=0 time=0.08715584999999999
EXTRACT: note_on channel=1 note=31 velocity=0 time=0.00458715
EXTRACT: note_on channel=9 note=38 velocity=127 time=0
EXTRACT: note_on channel=9 note=42 velocity=42 time=0
EXTRACT: note_on channel=9 note=38 velocity=0 time=0.045871499999999996
EXTRACT: note_on channel=9 note=42 velocity=0 time=0
EXTRACT: note_on channel=9 note=39 velocity=59 time=0.0733944
EXTRACT: note_on channel=9 note=39 velocity=0 time=0.045871499999999996
EXTRACT: note_on channel=9 note=69 velocity=74 time=0.1100916
EXTRACT: note_on channel=9 note=42 velocity=42 time=0
EXTRACT: note_on channel=9 note=69 velocity=0 time=0.045871499999999996
EXTRACT: note_on channel=9 note=42 velocity=0 time=0
EXTRACT: note_on channel=9 note=69 velocity=74 time=0.09174299999999999
EXTRACT: note_on channel=9 note=69 velocity=0 time=0.045871499999999996
EXTRACT: note_on channel=9 note=39 velocity=69 time=0.0733944
EXTRACT: note_on channel=9 note=69 velocity=81 time=0.0183486
EXTRACT: note_on channel=9 note=42 velocity=42 time=0
EXTRACT: note_on channel=9 note=39 velocity=0 time=0.0275229
EXTRACT: note_on channel=9 note=69 velocity=0 time=0.0183486
EXTRACT: note_on channel=9 note=42 velocity=0 time=0
EXTRACT: note_on channel=9 note=42 velocity=42 time=0.2293575
EXTRACT: note_on channel=9 note=36 velocity=98 time=0
EXTRACT: note_on channel=9 note=42 velocity=0 time=0.045871499999999996
EXTRACT: note_on channel=9 note=36 velocity=0 time=0
EXTRACT: note_on channel=9 note=39 velocity=52 time=0.0733944
EXTRACT: note_on channel=9 note=39 velocity=0 time=0.045871499999999996
EXTRACT: note_on channel=9 note=38 velocity=127 time=0.1100916
EXTRACT: note_on channel=9 note=42 velocity=42 time=0
EXTRACT: note_on channel=9 note=38 velocity=0 time=0.045871499999999996
EXTRACT: note_on channel=9 note=42 velocity=0 time=0
EXTRACT: note_on channel=9 note=61 velocity=44 time=0.2293575
EXTRACT: note_on channel=9 note=36 velocity=92 time=0
EXTRACT: note_on channel=9 note=42 velocity=42 time=0
EXTRACT: note_on channel=9 note=61 velocity=0 time=0.045871499999999996
EXTRACT: note_on channel=9 note=36 velocity=0 time=0
EXTRACT: note_on channel=9 note=42 velocity=0 time=0
EXTRACT: note_on channel=9 note=61 velocity=44 time=0.09174299999999999
EXTRACT: note_on channel=9 note=36 velocity=92 time=0
EXTRACT: note_on channel=9 note=61 velocity=0 time=0.045871499999999996
EXTRACT: note_on channel=9 note=36 velocity=0 time=0
EXTRACT: note_on channel=0 note=36 velocity=88 time=0.08715584999999999
EXTRACT: note_on channel=1 note=36 velocity=100 time=0.00458715
EXTRACT: note_on channel=9 note=61 velocity=44 time=0
EXTRACT: note_on channel=9 note=42 velocity=42 time=0
EXTRACT: note_on channel=9 note=36 velocity=98 time=0
EXTRACT: note_on channel=9 note=61 velocity=0 time=0.045871499999999996
EXTRACT: note_on channel=9 note=42 velocity=0 time=0
EXTRACT: note_on channel=9 note=36 velocity=0 time=0
EXTRACT: note_on channel=9 note=39 velocity=69 time=0.2110089
EXTRACT: note_on channel=0 note=36 velocity=0 time=0.01376145
EXTRACT: note_on channel=1 note=36 velocity=0 time=0.00458715
EXTRACT: note_on channel=9 note=42 velocity=42 time=0
EXTRACT: note_on channel=9 note=39 velocity=0 time=0.0275229
EXTRACT: note_on channel=9 note=42 velocity=0 time=0.0183486
EXTRACT: note_on channel=0 note=36 velocity=104 time=0.08715584999999999
EXTRACT: note_on channel=1 note=36 velocity=95 time=0.00458715
EXTRACT: note_on channel=9 note=61 velocity=44 time=0
EXTRACT: note_on channel=9 note=36 velocity=98 time=0
EXTRACT: note_on channel=9 note=61 velocity=0 time=0.045871499999999996
EXTRACT: note_on channel=9 note=36 velocity=0 time=0
EXTRACT: note_on channel=0 note=36 velocity=0 time=0.08715584999999999
EXTRACT: note_on channel=1 note=36 velocity=0 time=0.00458715
EXTRACT: note_on channel=9 note=38 velocity=127 time=0
EXTRACT: note_on channel=9 note=42 velocity=42 time=0
EXTRACT: note_on channel=9 note=38 velocity=0 time=0.045871499999999996
EXTRACT: note_on channel=9 note=42 velocity=0 time=0
EXTRACT: note_on channel=9 note=39 velocity=64 time=0.0733944
EXTRACT: note_on channel=9 note=39 velocity=0 time=0.045871499999999996
EXTRACT: note_on channel=9 note=69 velocity=81 time=0.1100916
EXTRACT: note_on channel=9 note=42 velocity=42 time=0
EXTRACT: note_on channel=9 note=69 velocity=0 time=0.045871499999999996
EXTRACT: note_on channel=9 note=42 velocity=0 time=0
EXTRACT: note_on channel=9 note=69 velocity=82 time=0.09174299999999999
EXTRACT: note_on channel=9 note=69 velocity=0 time=0.045871499999999996
EXTRACT: note_on channel=9 note=39 velocity=54 time=0.0733944
EXTRACT: note_on channel=9 note=69 velocity=78 time=0.0183486
EXTRACT: note_on channel=9 note=42 velocity=42 time=0
EXTRACT: note_on channel=9 note=39 velocity=0 time=0.0275229
EXTRACT: note_on channel=9 note=69 velocity=0 time=0.0183486
EXTRACT: note_on channel=9 note=42 velocity=0 time=0
EXTRACT: note_on channel=9 note=42 velocity=42 time=0.2293575
EXTRACT: note_on channel=9 note=36 velocity=98 time=0
EXTRACT: note_on channel=9 note=42 velocity=0 time=0.045871499999999996
EXTRACT: note_on channel=9 note=36 velocity=0 time=0
EXTRACT: note_on channel=9 note=39 velocity=61 time=0.0733944
EXTRACT: note_on channel=9 note=39 velocity=0 time=0.045871499999999996
EXTRACT: note_on channel=9 note=38 velocity=127 time=0.1100916
EXTRACT: note_on channel=9 note=42 velocity=42 time=0
EXTRACT: note_on channel=9 note=38 velocity=0 time=0.045871499999999996
EXTRACT: note_on channel=9 note=42 velocity=0 time=0
EXTRACT: note_on channel=9 note=69 velocity=74 time=0.2293575
EXTRACT: note_on channel=9 note=61 velocity=44 time=0
EXTRACT: note_on channel=9 note=42 velocity=42 time=0
EXTRACT: note_on channel=9 note=69 velocity=0 time=0.045871499999999996
EXTRACT: note_on channel=9 note=61 velocity=0 time=0
EXTRACT: note_on channel=9 note=42 velocity=0 time=0
EXTRACT: note_on channel=9 note=61 velocity=44 time=0.09174299999999999
EXTRACT: note_on channel=9 note=61 velocity=0 time=0.045871499999999996
EXTRACT: note_on channel=9 note=39 velocity=67 time=0.0733944
EXTRACT: note_on channel=0 note=34 velocity=92 time=0.01376145
EXTRACT: control_change channel=7 control=64 value=127 time=0
EXTRACT: note_on channel=1 note=34 velocity=104 time=0.00458715
EXTRACT: note_on channel=9 note=61 velocity=44 time=0
EXTRACT: note_on channel=9 note=42 velocity=42 time=0
EXTRACT: note_on channel=9 note=36 velocity=98 time=0
EXTRACT: note_on channel=9 note=39 velocity=0 time=0.0275229
EXTRACT: note_on channel=9 note=61 velocity=0 time=0.0183486
EXTRACT: note_on channel=9 note=42 velocity=0 time=0
EXTRACT: note_on channel=9 note=36 velocity=0 time=0
EXTRACT: note_on channel=9 note=39 velocity=55 time=0.0733944
EXTRACT: note_on channel=9 note=61 velocity=44 time=0.0183486
EXTRACT: note_on channel=9 note=39 velocity=0 time=0.0275229
EXTRACT: note_on channel=9 note=61 velocity=0 time=0.0183486
EXTRACT: note_on channel=0 note=34 velocity=0 time=0.08715584999999999
EXTRACT: note_on channel=1 note=34 velocity=0 time=0.00458715
EXTRACT: note_on channel=9 note=61 velocity=44 time=0
EXTRACT: note_on channel=9 note=42 velocity=42 time=0
EXTRACT: note_on channel=9 note=61 velocity=0 time=0.045871499999999996
EXTRACT: note_on channel=9 note=42 velocity=0 time=0
EXTRACT: note_on channel=0 note=34 velocity=82 time=0.08715584999999999
EXTRACT: note_on channel=1 note=34 velocity=100 time=0.00458715
EXTRACT: note_on channel=9 note=36 velocity=98 time=0
EXTRACT: note_on channel=9 note=36 velocity=0 time=0.045871499999999996
EXTRACT: note_on channel=9 note=39 velocity=71 time=0.0733944
EXTRACT: note_on channel=0 note=34 velocity=0 time=0.01376145
EXTRACT: note_on channel=1 note=34 velocity=0 time=0.00458715
EXTRACT: note_on channel=9 note=38 velocity=127 time=0
EXTRACT: note_on channel=9 note=42 velocity=42 time=0
EXTRACT: note_on channel=9 note=39 velocity=0 time=0.0275229
EXTRACT: note_on channel=9 note=38 velocity=0 time=0.0183486
EXTRACT: note_on channel=9 note=42 velocity=0 time=0
EXTRACT: note_on channel=9 note=39 velocity=70 time=0.0733944
EXTRACT: note_on channel=9 note=39 velocity=0 time=0.045871499999999996
EXTRACT: note_on channel=9 note=39 velocity=52 time=0.36697199999999996
EXTRACT: note_on channel=9 note=39 velocity=0 time=0.045871499999999996
EXTRACT: note_on channel=9 note=39 velocity=69 time=0.09174299999999999
EXTRACT: note_on channel=9 note=39 velocity=0 time=0.045871499999999996
EXTRACT: note_on channel=7 note=31 velocity=61 time=0.0366972
EXTRACT: note_on channel=7 note=33 velocity=58 time=0.0733944
EXTRACT: note_on channel=7 note=31 velocity=0 time=0.022935749999999998
EXTRACT: note_on channel=7 note=35 velocity=74 time=0.0550458
EXTRACT: note_on channel=7 note=33 velocity=0 time=0.00458715
EXTRACT: note_on channel=7 note=36 velocity=79 time=0.05045865
EXTRACT: note_on channel=7 note=35 velocity=0 time=0.0091743
EXTRACT: note_on channel=7 note=36 velocity=0 time=0.0366972
EXTRACT: note_on channel=7 note=38 velocity=79 time=0.0183486
EXTRACT: note_on channel=7 note=38 velocity=0 time=0.04128435
EXTRACT: note_on channel=7 note=40 velocity=79 time=0.01376145
EXTRACT: note_on channel=9 note=39 velocity=68 time=0.00458715
EXTRACT: note_on channel=7 note=40 velocity=0 time=0.045871499999999996
EXTRACT: note_on channel=9 note=39 velocity=0 time=0
EXTRACT: note_on channel=7 note=41 velocity=79 time=0.0091743
EXTRACT: note_on channel=7 note=43 velocity=79 time=0.05963295
EXTRACT: note_on channel=7 note=41 velocity=0 time=0.00458715
EXTRACT: note_on channel=9 note=39 velocity=42 time=0.0183486
EXTRACT: note_on channel=7 note=45 velocity=74 time=0.0366972
EXTRACT: note_on channel=7 note=43 velocity=0 time=0.0091743
EXTRACT: note_on channel=9 note=39 velocity=0 time=0
EXTRACT: note_on channel=7 note=47 velocity=79 time=0.045871499999999996
EXTRACT: note_on channel=7 note=45 velocity=0 time=0.01376145
EXTRACT: note_on channel=9 note=39 velocity=53 time=0.03211005
EXTRACT: note_on channel=7 note=48 velocity=58 time=0.01376145
EXTRACT: note_on channel=7 note=47 velocity=0 time=0.00458715
EXTRACT: note_on channel=9 note=61 velocity=44 time=0
EXTRACT: note_on channel=9 note=36 velocity=92 time=0
EXTRACT: note_on channel=9 note=42 velocity=42 time=0
EXTRACT: note_on channel=9 note=39 velocity=0 time=0.0275229
EXTRACT: note_on channel=9 note=61 velocity=0 time=0.0183486
EXTRACT: note_on channel=9 note=36 velocity=0 time=0
EXTRACT: note_on channel=9 note=42 velocity=0 time=0
EXTRACT: note_on channel=7 note=50 velocity=58 time=0.0091743
EXTRACT: note_on channel=7 note=48 velocity=0 time=0.00458715
EXTRACT: note_on channel=7 note=52 velocity=58 time=0.0550458
EXTRACT: note_on channel=9 note=39 velocity=41 time=0.00458715
EXTRACT: note_on channel=7 note=50 velocity=0 time=0.00458715
EXTRACT: note_on channel=9 note=61 velocity=44 time=0.01376145
EXTRACT: note_on channel=9 note=36 velocity=92 time=0
EXTRACT: note_on channel=9 note=39 velocity=0 time=0.0275229
EXTRACT: note_on channel=7 note=53 velocity=62 time=0.0091743
EXTRACT: note_on channel=7 note=52 velocity=0 time=0.0091743
EXTRACT: note_on channel=9 note=61 velocity=0 time=0
EXTRACT: note_on channel=9 note=36 velocity=0 time=0
EXTRACT: note_on channel=7 note=55 velocity=62 time=0.0550458
EXTRACT: note_on channel=7 note=53 velocity=0 time=0.00458715
EXTRACT: note_on channel=3 note=44 velocity=52 time=0.0183486
EXTRACT: note_on channel=3 note=55 velocity=50 time=0
EXTRACT: note_on channel=3 note=63 velocity=71 time=0
EXTRACT: note_on channel=3 note=60 velocity=77 time=0
EXTRACT: note_on channel=0 note=32 velocity=89 time=0.0091743
EXTRACT: note_on channel=4 note=55 velocity=97 time=0
EXTRACT: note_on channel=4 note=63 velocity=105 time=0
EXTRACT: control_change channel=7 control=64 value=0 time=0
EXTRACT: note_on channel=8 note=67 velocity=101 time=0
EXTRACT: note_on channel=1 note=32 velocity=96 time=0.00458715
EXTRACT: note_on channel=9 note=61 velocity=44 time=0
EXTRACT: note_on channel=9 note=57 velocity=90 time=0
EXTRACT: note_on channel=9 note=36 velocity=98 time=0
EXTRACT: note_on channel=2 note=44 velocity=33 time=0.00458715
EXTRACT: note_on channel=2 note=55 velocity=81 time=0
EXTRACT: note_on channel=2 note=63 velocity=61 time=0
EXTRACT: note_on channel=2 note=60 velocity=81 time=0
EXTRACT: note_on channel=7 note=55 velocity=0 time=0.022935749999999998
EXTRACT: note_on channel=9 note=61 velocity=0 time=0.0183486
EXTRACT: note_on channel=9 note=57 velocity=0 time=0
EXTRACT: note_on channel=9 note=36 velocity=0 time=0
EXTRACT: note_on channel=0 note=32 velocity=0 time=0.22477035
EXTRACT: note_on channel=1 note=32 velocity=0 time=0.00458715
EXTRACT: note_on channel=9 note=42 velocity=42 time=0
EXTRACT: note_on channel=9 note=42 velocity=0 time=0.045871499999999996
EXTRACT: note_on channel=0 note=32 velocity=86 time=0.08715584999999999
EXTRACT: note_on channel=1 note=32 velocity=97 time=0.00458715
EXTRACT: note_on channel=9 note=61 velocity=44 time=0
EXTRACT: note_on channel=9 note=36 velocity=98 time=0
EXTRACT: note_on channel=9 note=61 velocity=0 time=0.045871499999999996
EXTRACT: note_on channel=9 note=36 velocity=0 time=0
EXTRACT: note_on channel=0 note=32 velocity=0 time=0.08715584999999999
EXTRACT: note_on channel=1 note=32 velocity=0 time=0.00458715
EXTRACT: note_on channel=9 note=38 velocity=127 time=0
EXTRACT: note_on channel=9 note=42 velocity=42 time=0
EXTRACT: note_on channel=9 note=38 velocity=0 time=0.045871499999999996
EXTRACT: note_on channel=9 note=42 velocity=0 time=0
EXTRACT: note_on channel=8 note=67 velocity=0 time=0.2201832
EXTRACT: note_on channel=8 note=67 velocity=107 time=0.00458715
EXTRACT: note_on channel=9 note=69 velocity=80 time=0.00458715
EXTRACT: note_on channel=9 note=42 velocity=42 time=0
EXTRACT: note_on channel=9 note=69 velocity=0 time=0.045871499999999996
EXTRACT: note_on channel=9 note=42 velocity=0 time=0
EXTRACT: note_on channel=9 note=69 velocity=75 time=0.09174299999999999
EXTRACT: note_on channel=9 note=69 velocity=0 time=0.045871499999999996
EXTRACT: note_on channel=8 note=67 velocity=0 time=0.0825687
EXTRACT: note_on channel=8 note=65 velocity=85 time=0.00458715
EXTRACT: note_on channel=9 note=69 velocity=76 time=0.00458715
EXTRACT: note_on channel=9 note=42 velocity=42 time=0
EXTRACT: note_on channel=9 note=69 velocity=0 time=0.045871499999999996
EXTRACT: note_on channel=9 note=42 velocity=0 time=0
EXTRACT: note_on channel=8 note=65 velocity=0 time=0.2201832
EXTRACT: note_on channel=8 note=63 velocity=107 time=0.00458715
EXTRACT: note_on channel=9 note=42 velocity=42 time=0.00458715
EXTRACT: note_on channel=9 note=36 velocity=98 time=0
EXTRACT: note_on channel=9 note=42 velocity=0 time=0.045871499999999996
EXTRACT: note_on channel=9 note=36 velocity=0 time=0
EXTRACT: note_on channel=8 note=63 velocity=0 time=0.2201832
EXTRACT: note_on channel=8 note=63 velocity=117 time=0.00458715
EXTRACT: note_on channel=9 note=38 velocity=127 time=0.00458715
EXTRACT: note_on channel=9 note=42 velocity=42 time=0
EXTRACT: note_on channel=9 note=38 velocity=0 time=0.045871499999999996
EXTRACT: note_on channel=9 note=42 velocity=0 time=0
EXTRACT: note_on channel=9 note=69 velocity=82 time=0.2293575
EXTRACT: note_on channel=9 note=61 velocity=44 time=0
EXTRACT: note_on channel=9 note=42 velocity=42 time=0
EXTRACT: note_on channel=9 note=69 velocity=0 time=0.045871499999999996
EXTRACT: note_on channel=9 note=61 velocity=0 time=0
EXTRACT: note_on channel=9 note=42 velocity=0 time=0
EXTRACT: note_on channel=9 note=61 velocity=44 time=0.09174299999999999
EXTRACT: note_on channel=9 note=61 velocity=0 time=0.045871499999999996
EXTRACT: note_on channel=3 note=44 velocity=0 time=0.07798155
EXTRACT: note_on channel=3 note=55 velocity=0 time=0
EXTRACT: note_on channel=3 note=63 velocity=0 time=0
EXTRACT: note_on channel=3 note=60 velocity=0 time=0
EXTRACT: note_on channel=3 note=55 velocity=58 time=0
EXTRACT: note_on channel=3 note=63 velocity=70 time=0
EXTRACT: note_on channel=3 note=59 velocity=73 time=0
EXTRACT: note_on channel=8 note=63 velocity=0 time=0.00458715
EXTRACT: note_on channel=0 note=31 velocity=93 time=0.00458715
EXTRACT: note_on channel=8 note=67 velocity=92 time=0
EXTRACT: note_on channel=1 note=31 velocity=102 time=0.00458715
EXTRACT: note_on channel=9 note=61 velocity=44 time=0
EXTRACT: note_on channel=9 note=42 velocity=42 time=0
EXTRACT: note_on channel=9 note=36 velocity=98 time=0
EXTRACT: note_on channel=2 note=44 velocity=0 time=0.00458715
EXTRACT: note_on channel=2 note=55 velocity=0 time=0
EXTRACT: note_on channel=2 note=63 velocity=0 time=0
EXTRACT: note_on channel=2 note=60 velocity=0 time=0
EXTRACT: note_on channel=2 note=55 velocity=81 time=0
EXTRACT: note_on channel=2 note=63 velocity=65 time=0
EXTRACT: note_on channel=2 note=59 velocity=92 time=0
EXTRACT: note_on channel=9 note=61 velocity=0 time=0.04128435
EXTRACT: note_on channel=9 note=42 velocity=0 time=0
EXTRACT: note_on channel=9 note=36 velocity=0 time=0
EXTRACT: note_on channel=9 note=61 velocity=44 time=0.09174299999999999
EXTRACT: note_on channel=9 note=61 velocity=0 time=0.045871499999999996
EXTRACT: note_on channel=0 note=31 velocity=0 time=0.08715584999999999
EXTRACT: note_on channel=1 note=31 velocity=0 time=0.00458715
EXTRACT: note_on channel=9 note=61 velocity=44 time=0
EXTRACT: note_on channel=9 note=42 velocity=42 time=0
EXTRACT: note_on channel=9 note=61 velocity=0 time=0.045871499999999996
EXTRACT: note_on channel=9 note=42 velocity=0 time=0
EXTRACT: note_on channel=0 note=31 velocity=82 time=0.08715584999999999
EXTRACT: note_on channel=1 note=31 velocity=97 time=0.00458715
EXTRACT: note_on channel=9 note=36 velocity=98 time=0
EXTRACT: note_on channel=9 note=36 velocity=0 time=0.045871499999999996
EXTRACT: note_on channel=0 note=31 velocity=0 time=0.08715584999999999
EXTRACT: note_on channel=1 note=31 velocity=0 time=0.00458715
EXTRACT: note_on channel=9 note=38 velocity=127 time=0
EXTRACT: note_on channel=9 note=42 velocity=42 time=0
EXTRACT: note_on channel=9 note=38 velocity=0 time=0.045871499999999996
EXTRACT: note_on channel=9 note=42 velocity=0 time=0
EXTRACT: note_on channel=8 note=67 velocity=0 time=0.2201832
EXTRACT: note_on channel=8 note=67 velocity=95 time=0.00458715
EXTRACT: note_on channel=9 note=69 velocity=77 time=0.00458715
EXTRACT: note_on channel=9 note=42 velocity=42 time=0
EXTRACT: note_on channel=9 note=69 velocity=0 time=0.045871499999999996
EXTRACT: note_on channel=9 note=42 velocity=0 time=0
EXTRACT: note_on channel=9 note=69 velocity=75 time=0.09174299999999999
EXTRACT: note_on channel=9 note=69 velocity=0 time=0.045871499999999996
EXTRACT: note_on channel=8 note=67 velocity=0 time=0.0825687
EXTRACT: note_on channel=8 note=65 velocity=100 time=0.00458715
EXTRACT: note_on channel=9 note=69 velocity=78 time=0.00458715
EXTRACT: note_on channel=9 note=42 velocity=42 time=0
EXTRACT: note_on channel=9 note=69 velocity=0 time=0.045871499999999996
EXTRACT: note_on channel=9 note=42 velocity=0 time=0
EXTRACT: note_on channel=8 note=65 velocity=0 time=0.2201832
EXTRACT: note_on channel=8 note=63 velocity=103 time=0.00458715
EXTRACT: note_on channel=9 note=42 velocity=42 time=0.00458715
EXTRACT: note_on channel=9 note=36 velocity=98 time=0
EXTRACT: note_on channel=9 note=42 velocity=0 time=0.045871499999999996
EXTRACT: note_on channel=9 note=36 velocity=0 time=0
EXTRACT: note_on channel=8 note=63 velocity=0 time=0.2201832
EXTRACT: note_on channel=8 note=63 velocity=87 time=0.00458715
EXTRACT: note_on channel=9 note=38 velocity=127 time=0.00458715
EXTRACT: note_on channel=9 note=42 velocity=42 time=0
EXTRACT: note_on channel=9 note=38 velocity=0 time=0.045871499999999996
EXTRACT: note_on channel=9 note=42 velocity=0 time=0
EXTRACT: note_on channel=9 note=61 velocity=44 time=0.2293575
EXTRACT: note_on channel=9 note=36 velocity=92 time=0
EXTRACT: note_on channel=9 note=42 velocity=42 time=0
EXTRACT: note_on channel=9 note=61 velocity=0 time=0.045871499999999996
EXTRACT: note_on channel=9 note=36 velocity=0 time=0
EXTRACT: note_on channel=9 note=42 velocity=0 time=0
EXTRACT: note_on channel=9 note=61 velocity=44 time=0.09174299999999999
EXTRACT: note_on channel=9 note=36 velocity=92 time=0
EXTRACT: note_on channel=9 note=61 velocity=0 time=0.045871499999999996
EXTRACT: note_on channel=9 note=36 velocity=0 time=0
EXTRACT: note_on channel=3 note=55 velocity=0 time=0.07798155
EXTRACT: note_on channel=3 note=63 velocity=0 time=0
EXTRACT: note_on channel=3 note=59 velocity=0 time=0
EXTRACT: note_on channel=3 note=55 velocity=74 time=0
EXTRACT: note_on channel=3 note=60 velocity=61 time=0
EXTRACT: note_on channel=3 note=63 velocity=80 time=0
EXTRACT: note_on channel=8 note=63 velocity=0 time=0.00458715
EXTRACT: note_on channel=0 note=36 velocity=100 time=0.00458715
EXTRACT: note_on channel=8 note=63 velocity=111 time=0
EXTRACT: note_on channel=8 note=72 velocity=74 time=0
EXTRACT: note_on channel=8 note=68 velocity=117 time=0
EXTRACT: note_on channel=1 note=36 velocity=113 time=0.00458715
EXTRACT: note_on channel=9 note=61 velocity=44 time=0
EXTRACT: note_on channel=9 note=42 velocity=42 time=0
EXTRACT: note_on channel=9 note=36 velocity=98 time=0
EXTRACT: note_on channel=2 note=55 velocity=0 time=0.00458715
EXTRACT: note_on channel=2 note=63 velocity=0 time=0
EXTRACT: note_on channel=2 note=59 velocity=0 time=0
EXTRACT: note_on channel=2 note=55 velocity=65 time=0
EXTRACT: note_on channel=2 note=60 velocity=65 time=0
EXTRACT: note_on channel=2 note=63 velocity=81 time=0
EXTRACT: note_on channel=9 note=61 velocity=0 time=0.04128435
EXTRACT: note_on channel=9 note=42 velocity=0 time=0
EXTRACT: note_on channel=9 note=36 velocity=0 time=0
EXTRACT: note_on channel=0 note=36 velocity=0 time=0.22477035
EXTRACT: note_on channel=1 note=36 velocity=0 time=0.00458715
EXTRACT: note_on channel=9 note=42 velocity=42 time=0
EXTRACT: note_on channel=9 note=42 velocity=0 time=0.045871499999999996
EXTRACT: note_on channel=0 note=36 velocity=97 time=0.08715584999999999
EXTRACT: note_on channel=1 note=36 velocity=110 time=0.00458715
EXTRACT: note_on channel=9 note=61 velocity=44 time=0
EXTRACT: note_on channel=9 note=36 velocity=98 time=0
EXTRACT: note_on channel=9 note=61 velocity=0 time=0.045871499999999996
EXTRACT: note_on channel=9 note=36 velocity=0 time=0
EXTRACT: note_on channel=8 note=63 velocity=0 time=0.0825687
EXTRACT: note_on channel=8 note=72 velocity=0 time=0
EXTRACT: note_on channel=8 note=68 velocity=0 time=0
EXTRACT: note_on channel=0 note=36 velocity=0 time=0.00458715
EXTRACT: note_on channel=8 note=63 velocity=74 time=0
EXTRACT: note_on channel=8 note=70 velocity=93 time=0
EXTRACT: note_on channel=8 note=67 velocity=106 time=0
EXTRACT: note_on channel=1 note=36 velocity=0 time=0.00458715
EXTRACT: note_on channel=9 note=38 velocity=127 time=0
EXTRACT: note_on channel=9 note=42 velocity=42 time=0
EXTRACT: note_on channel=9 note=38 velocity=0 time=0.045871499999999996
EXTRACT: note_on channel=9 note=42 velocity=0 time=0
EXTRACT: note_on channel=9 note=69 velocity=80 time=0.2293575
EXTRACT: note_on channel=9 note=42 velocity=42 time=0
EXTRACT: note_on channel=9 note=69 velocity=0 time=0.045871499999999996
EXTRACT: note_on channel=9 note=42 velocity=0 time=0
EXTRACT: note_on channel=9 note=69 velocity=75 time=0.09174299999999999
EXTRACT: note_on channel=9 note=69 velocity=0 time=0.045871499999999996
EXTRACT: note_on channel=8 note=63 velocity=0 time=0.0825687
EXTRACT: note_on channel=8 note=70 velocity=0 time=0
EXTRACT: note_on channel=8 note=67 velocity=0 time=0
EXTRACT: note_on channel=8 note=60 velocity=66 time=0.00458715
EXTRACT: note_on channel=8 note=68 velocity=97 time=0
EXTRACT: note_on channel=8 note=65 velocity=100 time=0
EXTRACT: note_on channel=9 note=69 velocity=82 time=0.00458715
EXTRACT: note_on channel=9 note=42 velocity=42 time=0
EXTRACT: note_on channel=9 note=69 velocity=0 time=0.045871499999999996
EXTRACT: note_on channel=9 note=42 velocity=0 time=0
EXTRACT: note_on channel=9 note=42 velocity=42 time=0.2293575
EXTRACT: note_on channel=9 note=36 velocity=98 time=0
EXTRACT: note_on channel=9 note=42 velocity=0 time=0.045871499999999996
EXTRACT: note_on channel=9 note=36 velocity=0 time=0
EXTRACT: note_on channel=8 note=60 velocity=0 time=0.2201832
EXTRACT: note_on channel=8 note=68 velocity=0 time=0
EXTRACT: note_on channel=8 note=65 velocity=0 time=0
EXTRACT: note_on channel=8 note=58 velocity=104 time=0.00458715
EXTRACT: note_on channel=8 note=67 velocity=113 time=0
EXTRACT: note_on channel=8 note=63 velocity=99 time=0
EXTRACT: note_on channel=9 note=38 velocity=127 time=0.00458715
EXTRACT: note_on channel=9 note=42 velocity=42 time=0
EXTRACT: note_on channel=9 note=38 velocity=0 time=0.045871499999999996
EXTRACT: note_on channel=9 note=42 velocity=0 time=0
EXTRACT: note_on channel=9 note=69 velocity=77 time=0.2293575
EXTRACT: note_on channel=9 note=61 velocity=44 time=0
EXTRACT: note_on channel=9 note=42 velocity=42 time=0
EXTRACT: note_on channel=9 note=69 velocity=0 time=0.045871499999999996
EXTRACT: note_on channel=9 note=61 velocity=0 time=0
EXTRACT: note_on channel=9 note=42 velocity=0 time=0
EXTRACT: note_on channel=9 note=61 velocity=44 time=0.09174299999999999
EXTRACT: note_on channel=9 note=61 velocity=0 time=0.045871499999999996
EXTRACT: note_on channel=3 note=55 velocity=0 time=0.07798155
EXTRACT: note_on channel=3 note=60 velocity=0 time=0
EXTRACT: note_on channel=3 note=63 velocity=0 time=0
EXTRACT: note_on channel=3 note=65 velocity=50 time=0
EXTRACT: note_on channel=3 note=56 velocity=72 time=0
EXTRACT: note_on channel=3 note=58 velocity=75 time=0
EXTRACT: note_on channel=3 note=61 velocity=66 time=0
EXTRACT: note_on channel=8 note=58 velocity=0 time=0.00458715
EXTRACT: note_on channel=8 note=67 velocity=0 time=0
EXTRACT: note_on channel=8 note=63 velocity=0 time=0
EXTRACT: note_on channel=0 note=34 velocity=99 time=0.00458715
EXTRACT: note_on channel=4 note=55 velocity=0 time=0
EXTRACT: note_on channel=4 note=63 velocity=0 time=0
EXTRACT: note_on channel=4 note=58 velocity=70 time=0
EXTRACT: note_on channel=4 note=65 velocity=110 time=0
EXTRACT: note_on channel=8 note=67 velocity=108 time=0
EXTRACT: note_on channel=1 note=34 velocity=113 time=0.00458715
EXTRACT: note_on channel=9 note=61 velocity=44 time=0
EXTRACT: note_on channel=9 note=42 velocity=42 time=0
EXTRACT: note_on channel=9 note=36 velocity=98 time=0
EXTRACT: note_on channel=2 note=55 velocity=0 time=0.00458715
EXTRACT: note_on channel=2 note=60 velocity=0 time=0
EXTRACT: note_on channel=2 note=63 velocity=0 time=0
EXTRACT: note_on channel=2 note=65 velocity=70 time=0
EXTRACT: note_on channel=2 note=56 velocity=76 time=0
EXTRACT: note_on channel=2 note=58 velocity=84 time=0
EXTRACT: note_on channel=2 note=61 velocity=73 time=0
EXTRACT: note_on channel=9 note=61 velocity=0 time=0.04128435
EXTRACT: note_on channel=9 note=42 velocity=0 time=0
EXTRACT: note_on channel=9 note=36 velocity=0 time=0
EXTRACT: note_on channel=9 note=61 velocity=44 time=0.09174299999999999
EXTRACT: note_on channel=9 note=61 velocity=0 time=0.045871499999999996
EXTRACT: note_on channel=0 note=34 velocity=0 time=0.08715584999999999
EXTRACT: note_on channel=1 note=34 velocity=0 time=0.00458715
EXTRACT: note_on channel=9 note=61 velocity=44 time=0
EXTRACT: note_on channel=9 note=42 velocity=42 time=0
EXTRACT: note_on channel=9 note=61 velocity=0 time=0.045871499999999996
EXTRACT: note_on channel=9 note=42 velocity=0 time=0
EXTRACT: note_on channel=0 note=34 velocity=97 time=0.08715584999999999
EXTRACT: note_on channel=1 note=34 velocity=112 time=0.00458715
EXTRACT: note_on channel=9 note=36 velocity=98 time=0
EXTRACT: note_on channel=9 note=36 velocity=0 time=0.045871499999999996
EXTRACT: note_on channel=0 note=34 velocity=0 time=0.08715584999999999
EXTRACT: note_on channel=1 note=34 velocity=0 time=0.00458715
EXTRACT: note_on channel=9 note=38 velocity=127 time=0
EXTRACT: note_on channel=9 note=42 velocity=42 time=0
EXTRACT: note_on channel=9 note=38 velocity=0 time=0.045871499999999996
EXTRACT: note_on channel=9 note=42 velocity=0 time=0
EXTRACT: note_on channel=8 note=67 velocity=0 time=0.2201832
EXTRACT: note_on channel=0 note=34 velocity=90 time=0.00458715
EXTRACT: note_on channel=8 note=67 velocity=89 time=0
EXTRACT: note_on channel=1 note=34 velocity=102 time=0.00458715
EXTRACT: note_on channel=9 note=69 velocity=78 time=0
EXTRACT: note_on channel=9 note=42 velocity=42 time=0
EXTRACT: note_on channel=9 note=69 velocity=0 time=0.045871499999999996
EXTRACT: note_on channel=9 note=42 velocity=0 time=0
EXTRACT: note_on channel=0 note=34 velocity=0 time=0.08715584999999999
EXTRACT: note_on channel=1 note=34 velocity=0 time=0.00458715
EXTRACT: note_on channel=9 note=36 velocity=92 time=0
EXTRACT: note_on channel=9 note=69 velocity=82 time=0
EXTRACT: note_on channel=9 note=36 velocity=0 time=0.045871499999999996
EXTRACT: note_on channel=9 note=69 velocity=0 time=0
EXTRACT: note_on channel=3 note=65 velocity=0 time=0.07798155
EXTRACT: note_on channel=3 note=56 velocity=0 time=0
EXTRACT: note_on channel=3 note=58 velocity=0 time=0
EXTRACT: note_on channel=3 note=61 velocity=0 time=0
EXTRACT: note_on channel=3 note=61 velocity=77 time=0
EXTRACT: note_on channel=3 note=55 velocity=68 time=0
EXTRACT: note_on channel=3 note=58 velocity=68 time=0
EXTRACT: note_on channel=3 note=63 velocity=67 time=0
EXTRACT: note_on channel=8 note=67 velocity=0 time=0.00458715
EXTRACT: note_on channel=0 note=39 velocity=106 time=0.00458715
EXTRACT: note_on channel=4 note=58 velocity=0 time=0
EXTRACT: note_on channel=4 note=65 velocity=0 time=0
EXTRACT: note_on channel=4 note=55 velocity=108 time=0
EXTRACT: note_on channel=4 note=63 velocity=100 time=0
EXTRACT: note_on channel=8 note=65 velocity=85 time=0
EXTRACT: note_on channel=1 note=39 velocity=101 time=0.00458715
EXTRACT: note_on channel=9 note=36 velocity=98 time=0
EXTRACT: note_on channel=9 note=69 velocity=79 time=0
EXTRACT: note_on channel=9 note=42 velocity=42 time=0
EXTRACT: note_on channel=2 note=65 velocity=0 time=0.00458715
EXTRACT: note_on channel=2 note=56 velocity=0 time=0
EXTRACT: note_on channel=2 note=58 velocity=0 time=0
EXTRACT: note_on channel=2 note=61 velocity=0 time=0
EXTRACT: note_on channel=2 note=61 velocity=72 time=0
EXTRACT: note_on channel=2 note=55 velocity=88 time=0
EXTRACT: note_on channel=2 note=58 velocity=63 time=0
EXTRACT: note_on channel=2 note=63 velocity=76 time=0
EXTRACT: note_on channel=9 note=36 velocity=0 time=0.04128435
EXTRACT: note_on channel=9 note=69 velocity=0 time=0
EXTRACT: note_on channel=9 note=42 velocity=0 time=0
EXTRACT: note_on channel=8 note=65 velocity=0 time=0.2201832
EXTRACT: note_on channel=0 note=39 velocity=0 time=0.00458715
EXTRACT: note_on channel=8 note=63 velocity=115 time=0
EXTRACT: note_on channel=1 note=39 velocity=0 time=0.00458715
EXTRACT: note_on channel=9 note=36 velocity=92 time=0
EXTRACT: note_on channel=9 note=42 velocity=42 time=0
EXTRACT: note_on channel=9 note=36 velocity=0 time=0.045871499999999996
EXTRACT: note_on channel=9 note=42 velocity=0 time=0
EXTRACT: note_on channel=0 note=39 velocity=93 time=0.08715584999999999
EXTRACT: note_on channel=1 note=39 velocity=93 time=0.00458715
EXTRACT: note_on channel=9 note=36 velocity=92 time=0
EXTRACT: note_on channel=9 note=36 velocity=0 time=0.045871499999999996
EXTRACT: note_on channel=8 note=63 velocity=0 time=0.0825687
EXTRACT: note_on channel=0 note=39 velocity=0 time=0.00458715
EXTRACT: note_on channel=8 note=63 velocity=114 time=0
EXTRACT: note_on channel=1 note=39 velocity=0 time=0.00458715
EXTRACT: note_on channel=9 note=38 velocity=127 time=0
EXTRACT: note_on channel=9 note=42 velocity=42 time=0
EXTRACT: note_on channel=9 note=38 velocity=0 time=0.045871499999999996
EXTRACT: note_on channel=9 note=42 velocity=0 time=0
EXTRACT: note_on channel=9 note=61 velocity=44 time=0.2293575
EXTRACT: note_on channel=9 note=36 velocity=92 time=0
EXTRACT: note_on channel=9 note=42 velocity=42 time=0
EXTRACT: note_on channel=9 note=61 velocity=0 time=0.045871499999999996
EXTRACT: note_on channel=9 note=36 velocity=0 time=0
EXTRACT: note_on channel=9 note=42 velocity=0 time=0
EXTRACT: note_on channel=9 note=61 velocity=44 time=0.09174299999999999
EXTRACT: note_on channel=9 note=36 velocity=92 time=0
EXTRACT: note_on channel=9 note=61 velocity=0 time=0.045871499999999996
EXTRACT: note_on channel=9 note=36 velocity=0 time=0
EXTRACT: note_on channel=3 note=61 velocity=0 time=0.07798155
EXTRACT: note_on channel=3 note=55 velocity=0 time=0
EXTRACT: note_on channel=3 note=58 velocity=0 time=0
EXTRACT: note_on channel=3 note=63 velocity=0 time=0
EXTRACT: note_on channel=3 note=44 velocity=22 time=0
EXTRACT: note_on channel=3 note=55 velocity=60 time=0
EXTRACT: note_on channel=3 note=63 velocity=63 time=0
EXTRACT: note_on channel=3 note=60 velocity=82 time=0
EXTRACT: note_on channel=8 note=63 velocity=0 time=0.00458715
EXTRACT: note_on channel=0 note=32 velocity=107 time=0.00458715
EXTRACT: note_on channel=4 note=55 velocity=0 time=0
EXTRACT: note_on channel=4 note=63 velocity=0 time=0
EXTRACT: note_on channel=4 note=55 velocity=89 time=0
EXTRACT: note_on channel=4 note=63 velocity=101 time=0
EXTRACT: note_on channel=8 note=67 velocity=99 time=0
EXTRACT: note_on channel=1 note=32 velocity=112 time=0.00458715
EXTRACT: note_on channel=9 note=61 velocity=44 time=0
EXTRACT: note_on channel=9 note=57 velocity=90 time=0
EXTRACT: note_on channel=9 note=36 velocity=98 time=0
EXTRACT: note_on channel=2 note=61 velocity=0 time=0.00458715
EXTRACT: note_on channel=2 note=55 velocity=0 time=0
EXTRACT: note_on channel=2 note=58 velocity=0 time=0
EXTRACT: note_on channel=2 note=63 velocity=0 time=0
EXTRACT: note_on channel=2 note=44 velocity=34 time=0
EXTRACT: note_on channel=2 note=55 velocity=75 time=0
EXTRACT: note_on channel=2 note=63 velocity=75 time=0
EXTRACT: note_on channel=2 note=60 velocity=83 time=0
EXTRACT: note_on channel=9 note=61 velocity=0 time=0.04128435
EXTRACT: note_on channel=9 note=57 velocity=0 time=0
EXTRACT: note_on channel=9 note=36 velocity=0 time=0
EXTRACT: note_on channel=0 note=32 velocity=0 time=0.22477035
EXTRACT: note_on channel=1 note=32 velocity=0 time=0.00458715
EXTRACT: note_on channel=9 note=42 velocity=42 time=0
EXTRACT: note_on channel=9 note=42 velocity=0 time=0.045871499999999996
EXTRACT: note_on channel=0 note=32 velocity=82 time=0.08715584999999999
EXTRACT: note_on channel=1 note=32 velocity=113 time=0.00458715
EXTRACT: note_on channel=9 note=61 velocity=44 time=0
EXTRACT: note_on channel=9 note=36 velocity=98 time=0
EXTRACT: note_on channel=9 note=61 velocity=0 time=0.045871499999999996
EXTRACT: note_on channel=9 note=36 velocity=0 time=0
EXTRACT: note_on channel=0 note=32 velocity=0 time=0.08715584999999999
EXTRACT: note_on channel=1 note=32 velocity=0 time=0.00458715
EXTRACT: note_on channel=9 note=38 velocity=127 time=0
EXTRACT: note_on channel=9 note=42 velocity=42 time=0
EXTRACT: note_on channel=9 note=38 velocity=0 time=0.045871499999999996
EXTRACT: note_on channel=9 note=42 velocity=0 time=0
EXTRACT: note_on channel=8 note=67 velocity=0 time=0.2201832
EXTRACT: note_on channel=8 note=67 velocity=113 time=0.00458715
EXTRACT: note_on channel=9 note=69 velocity=80 time=0.00458715
EXTRACT: note_on channel=9 note=42 velocity=42 time=0
EXTRACT: note_on channel=9 note=69 velocity=0 time=0.045871499999999996
EXTRACT: note_on channel=9 note=42 velocity=0 time=0
EXTRACT: note_on channel=9 note=69 velocity=78 time=0.09174299999999999
EXTRACT: note_on channel=9 note=69 velocity=0 time=0.045871499999999996
EXTRACT: note_on channel=8 note=67 velocity=0 time=0.0825687
EXTRACT: note_on channel=8 note=65 velocity=87 time=0.00458715
EXTRACT: note_on channel=9 note=69 velocity=80 time=0.00458715
EXTRACT: note_on channel=9 note=42 velocity=42 time=0
EXTRACT: note_on channel=9 note=69 velocity=0 time=0.045871499999999996
EXTRACT: note_on channel=9 note=42 velocity=0 time=0
EXTRACT: note_on channel=8 note=65 velocity=0 time=0.2201832
EXTRACT: note_on channel=8 note=63 velocity=109 time=0.00458715
EXTRACT: note_on channel=9 note=42 velocity=42 time=0.00458715
EXTRACT: note_on channel=9 note=36 velocity=98 time=0
EXTRACT: note_on channel=9 note=42 velocity=0 time=0.045871499999999996
EXTRACT: note_on channel=9 note=36 velocity=0 time=0
EXTRACT: note_on channel=8 note=63 velocity=0 time=0.2201832
EXTRACT: note_on channel=8 note=63 velocity=102 time=0.00458715
EXTRACT: note_on channel=9 note=38 velocity=127 time=0.00458715
EXTRACT: note_on channel=9 note=42 velocity=42 time=0
EXTRACT: note_on channel=9 note=38 velocity=0 time=0.045871499999999996
EXTRACT: note_on channel=9 note=42 velocity=0 time=0
EXTRACT: note_on channel=9 note=69 velocity=82 time=0.2293575
EXTRACT: note_on channel=9 note=61 velocity=44 time=0
EXTRACT: note_on channel=9 note=42 velocity=42 time=0
EXTRACT: note_on channel=9 note=69 velocity=0 time=0.045871499999999996
EXTRACT: note_on channel=9 note=61 velocity=0 time=0
EXTRACT: note_on channel=9 note=42 velocity=0 time=0
EXTRACT: note_on channel=9 note=61 velocity=44 time=0.09174299999999999
EXTRACT: note_on channel=9 note=61 velocity=0 time=0.045871499999999996
EXTRACT: note_on channel=3 note=44 velocity=0 time=0.07798155
EXTRACT: note_on channel=3 note=55 velocity=0 time=0
EXTRACT: note_on channel=3 note=63 velocity=0 time=0
EXTRACT: note_on channel=3 note=60 velocity=0 time=0
EXTRACT: note_on channel=3 note=55 velocity=71 time=0
EXTRACT: note_on channel=3 note=63 velocity=53 time=0
EXTRACT: note_on channel=3 note=59 velocity=51 time=0
EXTRACT: note_on channel=8 note=63 velocity=0 time=0.00458715
EXTRACT: note_on channel=0 note=31 velocity=94 time=0.00458715
EXTRACT: note_on channel=8 note=67 velocity=116 time=0
EXTRACT: note_on channel=1 note=31 velocity=102 time=0.00458715
EXTRACT: note_on channel=9 note=61 velocity=44 time=0
EXTRACT: note_on channel=9 note=42 velocity=42 time=0
EXTRACT: note_on channel=9 note=36 velocity=98 time=0
EXTRACT: note_on channel=2 note=44 velocity=0 time=0.00458715
EXTRACT: note_on channel=2 note=55 velocity=0 time=0
EXTRACT: note_on channel=2 note=63 velocity=0 time=0
EXTRACT: note_on channel=2 note=60 velocity=0 time=0
EXTRACT: note_on channel=2 note=55 velocity=78 time=0
EXTRACT: note_on channel=2 note=63 velocity=86 time=0
EXTRACT: note_on channel=2 note=59 velocity=62 time=0
EXTRACT: note_on channel=9 note=61 velocity=0 time=0.04128435
EXTRACT: note_on channel=9 note=42 velocity=0 time=0
EXTRACT: note_on channel=9 note=36 velocity=0 time=0
EXTRACT: note_on channel=9 note=61 velocity=44 time=0.09174299999999999
EXTRACT: note_on channel=9 note=61 velocity=0 time=0.045871499999999996
EXTRACT: note_on channel=0 note=31 velocity=0 time=0.08715584999999999
EXTRACT: note_on channel=1 note=31 velocity=0 time=0.00458715
EXTRACT: note_on channel=9 note=61 velocity=44 time=0
EXTRACT: note_on channel=9 note=42 velocity=42 time=0
EXTRACT: note_on channel=9 note=61 velocity=0 time=0.045871499999999996
EXTRACT: note_on channel=9 note=42 velocity=0 time=0
EXTRACT: note_on channel=0 note=31 velocity=95 time=0.08715584999999999
EXTRACT: note_on channel=1 note=31 velocity=99 time=0.00458715
EXTRACT: note_on channel=9 note=36 velocity=98 time=0
EXTRACT: note_on channel=9 note=36 velocity=0 time=0.045871499999999996
EXTRACT: note_on channel=0 note=31 velocity=0 time=0.08715584999999999
EXTRACT: note_on channel=1 note=31 velocity=0 time=0.00458715
EXTRACT: note_on channel=9 note=38 velocity=127 time=0
EXTRACT: note_on channel=9 note=42 velocity=42 time=0
EXTRACT: note_on channel=9 note=38 velocity=0 time=0.045871499999999996
EXTRACT: note_on channel=9 note=42 velocity=0 time=0
EXTRACT: note_on channel=8 note=67 velocity=0 time=0.2201832
EXTRACT: note_on channel=8 note=67 velocity=111 time=0.00458715
EXTRACT: note_on channel=9 note=69 velocity=75 time=0.00458715
EXTRACT: note_on channel=9 note=42 velocity=42 time=0
EXTRACT: note_on channel=9 note=69 velocity=0 time=0.045871499999999996
EXTRACT: note_on channel=9 note=42 velocity=0 time=0
EXTRACT: note_on channel=9 note=69 velocity=76 time=0.09174299999999999
EXTRACT: note_on channel=9 note=69 velocity=0 time=0.045871499999999996
EXTRACT: note_on channel=8 note=67 velocity=0 time=0.0825687
EXTRACT: note_on channel=8 note=65 velocity=92 time=0.00458715
EXTRACT: note_on channel=9 note=69 velocity=77 time=0.00458715
EXTRACT: note_on channel=9 note=42 velocity=42 time=0
EXTRACT: note_on channel=9 note=69 velocity=0 time=0.045871499999999996
EXTRACT: note_on channel=9 note=42 velocity=0 time=0
EXTRACT: note_on channel=8 note=65 velocity=0 time=0.2201832
EXTRACT: note_on channel=0 note=34 velocity=84 time=0.00458715
EXTRACT: note_on channel=8 note=63 velocity=98 time=0
EXTRACT: note_on channel=1 note=34 velocity=104 time=0.00458715
EXTRACT: note_on channel=9 note=42 velocity=42 time=0
EXTRACT: note_on channel=9 note=36 velocity=98 time=0
EXTRACT: note_on channel=9 note=42 velocity=0 time=0.045871499999999996
EXTRACT: note_on channel=9 note=36 velocity=0 time=0
EXTRACT: note_on channel=0 note=34 velocity=0 time=0.08715584999999999
EXTRACT: note_on channel=1 note=34 velocity=0 time=0.00458715
EXTRACT: note_on channel=8 note=63 velocity=0 time=0.1284402
EXTRACT: note_on channel=8 note=63 velocity=102 time=0.00458715
EXTRACT: note_on channel=9 note=38 velocity=127 time=0.00458715
EXTRACT: note_on channel=9 note=42 velocity=42 time=0
EXTRACT: note_on channel=9 note=38 velocity=0 time=0.045871499999999996
EXTRACT: note_on channel=9 note=42 velocity=0 time=0
EXTRACT: note_on channel=0 note=34 velocity=87 time=0.08715584999999999
EXTRACT: note_on channel=1 note=34 velocity=112 time=0.00458715
EXTRACT: note_on channel=0 note=34 velocity=0 time=0.13302735
EXTRACT: note_on channel=1 note=34 velocity=0 time=0.00458715
EXTRACT: note_on channel=9 note=61 velocity=44 time=0
EXTRACT: note_on channel=9 note=36 velocity=92 time=0
EXTRACT: note_on channel=9 note=42 velocity=42 time=0
EXTRACT: note_on channel=9 note=61 velocity=0 time=0.045871499999999996
EXTRACT: note_on channel=9 note=36 velocity=0 time=0
EXTRACT: note_on channel=9 note=42 velocity=0 time=0
EXTRACT: note_on channel=9 note=61 velocity=44 time=0.09174299999999999
EXTRACT: note_on channel=9 note=36 velocity=92 time=0
EXTRACT: note_on channel=9 note=61 velocity=0 time=0.045871499999999996
EXTRACT: note_on channel=9 note=36 velocity=0 time=0
EXTRACT: note_on channel=3 note=55 velocity=0 time=0.07798155
EXTRACT: note_on channel=3 note=63 velocity=0 time=0
EXTRACT: note_on channel=3 note=59 velocity=0 time=0
EXTRACT: note_on channel=3 note=55 velocity=81 time=0
EXTRACT: note_on channel=3 note=60 velocity=81 time=0
EXTRACT: note_on channel=3 note=63 velocity=70 time=0
EXTRACT: note_on channel=8 note=63 velocity=0 time=0.00458715
EXTRACT: note_on channel=0 note=36 velocity=84 time=0.00458715
EXTRACT: note_on channel=8 note=63 velocity=65 time=0
EXTRACT: note_on channel=8 note=72 velocity=87 time=0
EXTRACT: note_on channel=8 note=68 velocity=104 time=0
EXTRACT: note_on channel=1 note=36 velocity=107 time=0.00458715
EXTRACT: note_on channel=9 note=61 velocity=44 time=0
EXTRACT: note_on channel=9 note=42 velocity=42 time=0
EXTRACT: note_on channel=9 note=36 velocity=98 time=0
EXTRACT: note_on channel=2 note=55 velocity=0 time=0.00458715
EXTRACT: note_on channel=2 note=63 velocity=0 time=0
EXTRACT: note_on channel=2 note=59 velocity=0 time=0
EXTRACT: note_on channel=2 note=55 velocity=88 time=0
EXTRACT: note_on channel=2 note=60 velocity=64 time=0
EXTRACT: note_on channel=2 note=63 velocity=88 time=0
EXTRACT: note_on channel=9 note=61 velocity=0 time=0.04128435
EXTRACT: note_on channel=9 note=42 velocity=0 time=0
EXTRACT: note_on channel=9 note=36 velocity=0 time=0
EXTRACT: note_on channel=0 note=36 velocity=0 time=0.22477035
EXTRACT: note_on channel=1 note=36 velocity=0 time=0.00458715
EXTRACT: note_on channel=9 note=42 velocity=42 time=0
EXTRACT: note_on channel=9 note=42 velocity=0 time=0.045871499999999996
EXTRACT: note_on channel=0 note=36 velocity=84 time=0.08715584999999999
EXTRACT: note_on channel=1 note=36 velocity=104 time=0.00458715
EXTRACT: note_on channel=9 note=61 velocity=44 time=0
EXTRACT: note_on channel=9 note=36 velocity=98 time=0
EXTRACT: note_on channel=9 note=61 velocity=0 time=0.045871499999999996
EXTRACT: note_on channel=9 note=36 velocity=0 time=0
EXTRACT: note_on channel=8 note=63 velocity=0 time=0.0825687
EXTRACT: note_on channel=8 note=72 velocity=0 time=0
EXTRACT: note_on channel=8 note=68 velocity=0 time=0
EXTRACT: note_on channel=0 note=36 velocity=0 time=0.00458715
EXTRACT: note_on channel=8 note=63 velocity=103 time=0
EXTRACT: note_on channel=8 note=70 velocity=81 time=0
EXTRACT: note_on channel=8 note=67 velocity=96 time=0
EXTRACT: note_on channel=1 note=36 velocity=0 time=0.00458715
EXTRACT: note_on channel=9 note=38 velocity=127 time=0
EXTRACT: note_on channel=9 note=42 velocity=42 time=0
EXTRACT: note_on channel=9 note=38 velocity=0 time=0.045871499999999996
EXTRACT: note_on channel=9 note=42 velocity=0 time=0
EXTRACT: note_on channel=9 note=69 velocity=82 time=0.2293575
EXTRACT: note_on channel=9 note=42 velocity=42 time=0
EXTRACT: note_on channel=9 note=69 velocity=0 time=0.045871499999999996
EXTRACT: note_on channel=9 note=42 velocity=0 time=0
EXTRACT: note_on channel=9 note=69 velocity=76 time=0.09174299999999999
EXTRACT: note_on channel=9 note=69 velocity=0 time=0.045871499999999996
EXTRACT: note_on channel=8 note=63 velocity=0 time=0.0825687
EXTRACT: note_on channel=8 note=70 velocity=0 time=0
EXTRACT: note_on channel=8 note=67 velocity=0 time=0
EXTRACT: note_on channel=8 note=60 velocity=87 time=0.00458715
EXTRACT: note_on channel=8 note=68 velocity=109 time=0
EXTRACT: note_on channel=8 note=65 velocity=98 time=0
EXTRACT: note_on channel=9 note=69 velocity=75 time=0.00458715
EXTRACT: note_on channel=9 note=42 velocity=42 time=0
EXTRACT: note_on channel=9 note=69 velocity=0 time=0.045871499999999996
EXTRACT: note_on channel=9 note=42 velocity=0 time=0
EXTRACT: note_on channel=9 note=42 velocity=42 time=0.2293575
EXTRACT: note_on channel=9 note=36 velocity=98 time=0
EXTRACT: note_on channel=9 note=42 velocity=0 time=0.045871499999999996
EXTRACT: note_on channel=9 note=36 velocity=0 time=0
EXTRACT: note_on channel=8 note=60 velocity=0 time=0.2201832
EXTRACT: note_on channel=8 note=68 velocity=0 time=0
EXTRACT: note_on channel=8 note=65 velocity=0 time=0
EXTRACT: note_on channel=8 note=58 velocity=77 time=0.00458715
EXTRACT: note_on channel=8 note=67 velocity=67 time=0
EXTRACT: note_on channel=8 note=63 velocity=109 time=0
EXTRACT: note_on channel=9 note=38 velocity=127 time=0.00458715
EXTRACT: note_on channel=9 note=42 velocity=42 time=0
EXTRACT: note_on channel=9 note=38 velocity=0 time=0.045871499999999996
EXTRACT: note_on channel=9 note=42 velocity=0 time=0
EXTRACT: note_on channel=9 note=69 velocity=78 time=0.2293575
EXTRACT: note_on channel=9 note=61 velocity=44 time=0
EXTRACT: note_on channel=9 note=42 velocity=42 time=0
EXTRACT: note_on channel=9 note=69 velocity=0 time=0.045871499999999996
EXTRACT: note_on channel=9 note=61 velocity=0 time=0
EXTRACT: note_on channel=9 note=42 velocity=0 time=0
EXTRACT: note_on channel=9 note=61 velocity=44 time=0.09174299999999999
EXTRACT: note_on channel=9 note=61 velocity=0 time=0.045871499999999996
EXTRACT: note_on channel=3 note=55 velocity=0 time=0.07798155
EXTRACT: note_on channel=3 note=60 velocity=0 time=0
EXTRACT: note_on channel=3 note=63 velocity=0 time=0
EXTRACT: note_on channel=3 note=65 velocity=53 time=0
EXTRACT: note_on channel=3 note=56 velocity=81 time=0
EXTRACT: note_on channel=3 note=58 velocity=59 time=0
EXTRACT: note_on channel=3 note=61 velocity=52 time=0
EXTRACT: note_on channel=8 note=58 velocity=0 time=0.00458715
EXTRACT: note_on channel=8 note=67 velocity=0 time=0
EXTRACT: note_on channel=8 note=63 velocity=0 time=0
EXTRACT: note_on channel=0 note=34 velocity=103 time=0.00458715
EXTRACT: note_on channel=4 note=55 velocity=0 time=0
EXTRACT: note_on channel=4 note=63 velocity=0 time=0
EXTRACT: note_on channel=4 note=58 velocity=97 time=0
EXTRACT: note_on channel=4 note=65 velocity=85 time=0
EXTRACT: note_on channel=8 note=67 velocity=101 time=0
EXTRACT: note_on channel=1 note=34 velocity=99 time=0.00458715
EXTRACT: note_on channel=9 note=61 velocity=44 time=0
EXTRACT: note_on channel=9 note=42 velocity=42 time=0
EXTRACT: note_on channel=9 note=36 velocity=98 time=0
EXTRACT: note_on channel=2 note=55 velocity=0 time=0.00458715
EXTRACT: note_on channel=2 note=60 velocity=0 time=0
EXTRACT: note_on channel=2 note=63 velocity=0 time=0
EXTRACT: note_on channel=2 note=65 velocity=66 time=0
EXTRACT: note_on channel=2 note=56 velocity=71 time=0
EXTRACT: note_on channel=2 note=58 velocity=66 time=0
EXTRACT: note_on channel=2 note=61 velocity=67 time=0
EXTRACT: note_on channel=9 note=61 velocity=0 time=0.04128435
EXTRACT: note_on channel=9 note=42 velocity=0 time=0
EXTRACT: note_on channel=9 note=36 velocity=0 time=0
EXTRACT: note_on channel=9 note=61 velocity=44 time=0.09174299999999999
EXTRACT: note_on channel=9 note=61 velocity=0 time=0.045871499999999996
EXTRACT: note_on channel=0 note=34 velocity=0 time=0.08715584999999999
EXTRACT: note_on channel=1 note=34 velocity=0 time=0.00458715
EXTRACT: note_on channel=9 note=61 velocity=44 time=0
EXTRACT: note_on channel=9 note=42 velocity=42 time=0
EXTRACT: note_on channel=9 note=61 velocity=0 time=0.045871499999999996
EXTRACT: note_on channel=9 note=42 velocity=0 time=0
EXTRACT: note_on channel=0 note=34 velocity=104 time=0.08715584999999999
EXTRACT: note_on channel=1 note=34 velocity=103 time=0.00458715
EXTRACT: note_on channel=9 note=36 velocity=98 time=0
EXTRACT: note_on channel=9 note=36 velocity=0 time=0.045871499999999996
EXTRACT: note_on channel=0 note=34 velocity=0 time=0.08715584999999999
EXTRACT: note_on channel=1 note=34 velocity=0 time=0.00458715
EXTRACT: note_on channel=9 note=38 velocity=127 time=0
EXTRACT: note_on channel=9 note=42 velocity=42 time=0
EXTRACT: note_on channel=9 note=38 velocity=0 time=0.045871499999999996
EXTRACT: note_on channel=9 note=42 velocity=0 time=0
EXTRACT: note_on channel=8 note=67 velocity=0 time=0.2201832
EXTRACT: note_on channel=0 note=34 velocity=107 time=0.00458715
EXTRACT: note_on channel=8 note=67 velocity=95 time=0
EXTRACT: note_on channel=1 note=34 velocity=95 time=0.00458715
EXTRACT: note_on channel=9 note=69 velocity=78 time=0
EXTRACT: note_on channel=9 note=42 velocity=42 time=0
EXTRACT: note_on channel=9 note=69 velocity=0 time=0.045871499999999996
EXTRACT: note_on channel=9 note=42 velocity=0 time=0
EXTRACT: note_on channel=0 note=34 velocity=0 time=0.08715584999999999
EXTRACT: note_on channel=1 note=34 velocity=0 time=0.00458715
EXTRACT: note_on channel=9 note=69 velocity=75 time=0
EXTRACT: note_on channel=9 note=69 velocity=0 time=0.045871499999999996
EXTRACT: note_on channel=3 note=65 velocity=0 time=0.07798155
EXTRACT: note_on channel=3 note=56 velocity=0 time=0
EXTRACT: note_on channel=3 note=58 velocity=0 time=0
EXTRACT: note_on channel=3 note=61 velocity=0 time=0
EXTRACT: note_on channel=3 note=61 velocity=50 time=0
EXTRACT: note_on channel=3 note=55 velocity=79 time=0
EXTRACT: note_on channel=3 note=58 velocity=50 time=0
EXTRACT: note_on channel=3 note=63 velocity=77 time=0
EXTRACT: note_on channel=8 note=67 velocity=0 time=0.00458715
EXTRACT: note_on channel=0 note=39 velocity=105 time=0.00458715
EXTRACT: note_on channel=4 note=58 velocity=0 time=0
EXTRACT: note_on channel=4 note=65 velocity=0 time=0
EXTRACT: note_on channel=4 note=55 velocity=83 time=0
EXTRACT: note_on channel=4 note=63 velocity=96 time=0
EXTRACT: note_on channel=8 note=65 velocity=105 time=0
EXTRACT: note_on channel=1 note=39 velocity=96 time=0.00458715
EXTRACT: note_on channel=9 note=36 velocity=92 time=0
EXTRACT: note_on channel=2 note=65 velocity=0 time=0.00458715
EXTRACT: note_on channel=2 note=56 velocity=0 time=0
EXTRACT: note_on channel=2 note=58 velocity=0 time=0
EXTRACT: note_on channel=2 note=61 velocity=0 time=0
EXTRACT: note_on channel=2 note=61 velocity=85 time=0
EXTRACT: note_on channel=2 note=55 velocity=89 time=0
EXTRACT: note_on channel=2 note=58 velocity=65 time=0
EXTRACT: note_on channel=2 note=63 velocity=76 time=0
EXTRACT: note_on channel=9 note=36 velocity=0 time=0.04128435
EXTRACT: note_on channel=9 note=41 velocity=70 time=0.09174299999999999
EXTRACT: note_on channel=9 note=41 velocity=0 time=0.045871499999999996
EXTRACT: note_on channel=8 note=65 velocity=0 time=0.0825687
EXTRACT: note_on channel=0 note=39 velocity=0 time=0.00458715
EXTRACT: note_on channel=8 note=63 velocity=117 time=0
EXTRACT: note_on channel=1 note=39 velocity=0 time=0.00458715
EXTRACT: note_on channel=9 note=36 velocity=92 time=0
EXTRACT: note_on channel=9 note=36 velocity=0 time=0.045871499999999996
EXTRACT: note_on channel=0 note=39 velocity=102 time=0.08715584999999999
EXTRACT: note_on channel=1 note=39 velocity=96 time=0.00458715
EXTRACT: note_on channel=9 note=41 velocity=70 time=0
EXTRACT: note_on channel=9 note=41 velocity=0 time=0.045871499999999996
EXTRACT: note_on channel=8 note=63 velocity=0 time=0.0825687
EXTRACT: note_on channel=0 note=39 velocity=0 time=0.00458715
EXTRACT: note_on channel=8 note=63 velocity=100 time=0
EXTRACT: note_on channel=1 note=39 velocity=0 time=0.00458715
EXTRACT: note_on channel=9 note=38 velocity=127 time=0
EXTRACT: note_on channel=9 note=36 velocity=92 time=0
EXTRACT: note_on channel=9 note=38 velocity=0 time=0.045871499999999996
EXTRACT: note_on channel=9 note=36 velocity=0 time=0
EXTRACT: note_on channel=9 note=41 velocity=70 time=0.09174299999999999
EXTRACT: note_on channel=9 note=41 velocity=0 time=0.045871499999999996
EXTRACT: note_on channel=9 note=38 velocity=127 time=0.09174299999999999
EXTRACT: note_on channel=9 note=61 velocity=44 time=0
EXTRACT: note_on channel=9 note=36 velocity=92 time=0
EXTRACT: note_on channel=9 note=38 velocity=0 time=0.045871499999999996
EXTRACT: note_on channel=9 note=61 velocity=0 time=0
EXTRACT: note_on channel=9 note=36 velocity=0 time=0
EXTRACT: note_on channel=9 note=38 velocity=127 time=0.09174299999999999
EXTRACT: note_on channel=9 note=61 velocity=44 time=0
EXTRACT: note_on channel=9 note=41 velocity=70 time=0
EXTRACT: note_on channel=9 note=38 velocity=0 time=0.045871499999999996
EXTRACT: note_on channel=9 note=61 velocity=0 time=0
EXTRACT: note_on channel=9 note=41 velocity=0 time=0
EXTRACT: note_on channel=3 note=61 velocity=0 time=0.07798155
EXTRACT: note_on channel=3 note=55 velocity=0 time=0
EXTRACT: note_on channel=3 note=58 velocity=0 time=0
EXTRACT: note_on channel=3 note=63 velocity=0 time=0
EXTRACT: note_on channel=3 note=44 velocity=17 time=0
EXTRACT: note_on channel=3 note=55 velocity=51 time=0
EXTRACT: note_on channel=3 note=63 velocity=70 time=0
EXTRACT: note_on channel=3 note=60 velocity=69 time=0
EXTRACT: note_on channel=8 note=63 velocity=0 time=0.00458715
EXTRACT: note_on channel=0 note=32 velocity=106 time=0.00458715
EXTRACT: note_on channel=4 note=55 velocity=0 time=0
EXTRACT: note_on channel=4 note=63 velocity=0 time=0
EXTRACT: note_on channel=4 note=55 velocity=98 time=0
EXTRACT: note_on channel=4 note=63 velocity=99 time=0
EXTRACT: note_on channel=8 note=67 velocity=106 time=0
EXTRACT: note_on channel=1 note=32 velocity=113 time=0.00458715
EXTRACT: note_on channel=9 note=61 velocity=44 time=0
EXTRACT: note_on channel=9 note=57 velocity=100 time=0
EXTRACT: note_on channel=9 note=36 velocity=98 time=0
EXTRACT: note_on channel=2 note=61 velocity=0 time=0.00458715
EXTRACT: note_on channel=2 note=55 velocity=0 time=0
EXTRACT: note_on channel=2 note=58 velocity=0 time=0
EXTRACT: note_on channel=2 note=63 velocity=0 time=0
EXTRACT: note_on channel=2 note=44 velocity=52 time=0
EXTRACT: note_on channel=2 note=55 velocity=78 time=0
EXTRACT: note_on channel=2 note=63 velocity=80 time=0
EXTRACT: note_on channel=2 note=60 velocity=83 time=0
EXTRACT: note_on channel=9 note=61 velocity=0 time=0.04128435
EXTRACT: note_on channel=9 note=57 velocity=0 time=0
EXTRACT: note_on channel=9 note=36 velocity=0 time=0
EXTRACT: note_on channel=0 note=32 velocity=0 time=0.22477035
EXTRACT: note_on channel=1 note=32 velocity=0 time=0.00458715
EXTRACT: note_on channel=9 note=42 velocity=42 time=0
EXTRACT: note_on channel=9 note=42 velocity=0 time=0.045871499999999996
EXTRACT: note_on channel=0 note=32 velocity=102 time=0.08715584999999999
EXTRACT: note_on channel=1 note=32 velocity=104 time=0.00458715
EXTRACT: note_on channel=9 note=61 velocity=44 time=0
EXTRACT: note_on channel=9 note=36 velocity=98 time=0
EXTRACT: note_on channel=9 note=61 velocity=0 time=0.045871499999999996
EXTRACT: note_on channel=9 note=36 velocity=0 time=0
EXTRACT: note_on channel=0 note=32 velocity=0 time=0.08715584999999999
EXTRACT: note_on channel=1 note=32 velocity=0 time=0.00458715
EXTRACT: note_on channel=9 note=38 velocity=127 time=0
EXTRACT: note_on channel=9 note=42 velocity=42 time=0
EXTRACT: note_on channel=9 note=38 velocity=0 time=0.045871499999999996
EXTRACT: note_on channel=9 note=42 velocity=0 time=0
EXTRACT: note_on channel=8 note=67 velocity=0 time=0.2201832
EXTRACT: note_on channel=8 note=67 velocity=116 time=0.00458715
EXTRACT: note_on channel=9 note=69 velocity=82 time=0.00458715
EXTRACT: note_on channel=9 note=42 velocity=42 time=0
EXTRACT: note_on channel=9 note=69 velocity=0 time=0.045871499999999996
EXTRACT: note_on channel=9 note=42 velocity=0 time=0
EXTRACT: note_on channel=9 note=69 velocity=78 time=0.09174299999999999
EXTRACT: note_on channel=9 note=69 velocity=0 time=0.045871499999999996
EXTRACT: note_on channel=8 note=67 velocity=0 time=0.0825687
EXTRACT: note_on channel=8 note=65 velocity=101 time=0.00458715
EXTRACT: note_on channel=9 note=69 velocity=82 time=0.00458715
EXTRACT: note_on channel=9 note=42 velocity=42 time=0
EXTRACT: note_on channel=9 note=69 velocity=0 time=0.045871499999999996
EXTRACT: note_on channel=9 note=42 velocity=0 time=0
EXTRACT: note_on channel=8 note=65 velocity=0 time=0.2201832
EXTRACT: note_on channel=8 note=63 velocity=99 time=0.00458715
EXTRACT: note_on channel=9 note=42 velocity=42 time=0.00458715
EXTRACT: note_on channel=9 note=36 velocity=98 time=0
EXTRACT: note_on channel=9 note=42 velocity=0 time=0.045871499999999996
EXTRACT: note_on channel=9 note=36 velocity=0 time=0
EXTRACT: note_on channel=8 note=63 velocity=0 time=0.2201832
EXTRACT: note_on channel=8 note=63 velocity=86 time=0.00458715
EXTRACT: note_on channel=9 note=38 velocity=127 time=0.00458715
EXTRACT: note_on channel=9 note=42 velocity=42 time=0
EXTRACT: note_on channel=9 note=38 velocity=0 time=0.045871499999999996
EXTRACT: note_on channel=9 note=42 velocity=0 time=0
EXTRACT: note_on channel=9 note=69 velocity=74 time=0.2293575
EXTRACT: note_on channel=9 note=61 velocity=44 time=0
EXTRACT: note_on channel=9 note=42 velocity=42 time=0
EXTRACT: note_on channel=9 note=69 velocity=0 time=0.045871499999999996
EXTRACT: note_on channel=9 note=61 velocity=0 time=0
EXTRACT: note_on channel=9 note=42 velocity=0 time=0
EXTRACT: note_on channel=9 note=61 velocity=44 time=0.09174299999999999
EXTRACT: note_on channel=9 note=61 velocity=0 time=0.045871499999999996
EXTRACT: note_on channel=3 note=44 velocity=0 time=0.07798155
EXTRACT: note_on channel=3 note=55 velocity=0 time=0
EXTRACT: note_on channel=3 note=63 velocity=0 time=0
EXTRACT: note_on channel=3 note=60 velocity=0 time=0
EXTRACT: note_on channel=3 note=55 velocity=55 time=0
EXTRACT: note_on channel=3 note=63 velocity=76 time=0
EXTRACT: note_on channel=3 note=59 velocity=69 time=0
EXTRACT: note_on channel=8 note=63 velocity=0 time=0.00458715
EXTRACT: note_on channel=0 note=31 velocity=91 time=0.00458715
EXTRACT: note_on channel=8 note=67 velocity=111 time=0
EXTRACT: note_on channel=1 note=31 velocity=100 time=0.00458715
EXTRACT: note_on channel=9 note=61 velocity=44 time=0
EXTRACT: note_on channel=9 note=42 velocity=42 time=0
EXTRACT: note_on channel=9 note=36 velocity=98 time=0
EXTRACT: note_on channel=2 note=44 velocity=0 time=0.00458715
EXTRACT: note_on channel=2 note=55 velocity=0 time=0
EXTRACT: note_on channel=2 note=63 velocity=0 time=0
EXTRACT: note_on channel=2 note=60 velocity=0 time=0
EXTRACT: note_on channel=2 note=55 velocity=72 time=0
EXTRACT: note_on channel=2 note=63 velocity=78 time=0
EXTRACT: note_on channel=2 note=59 velocity=62 time=0
EXTRACT: note_on channel=9 note=61 velocity=0 time=0.04128435
EXTRACT: note_on channel=9 note=42 velocity=0 time=0
EXTRACT: note_on channel=9 note=36 velocity=0 time=0
EXTRACT: note_on channel=9 note=61 velocity=44 time=0.09174299999999999
EXTRACT: note_on channel=9 note=61 velocity=0 time=0.045871499999999996
EXTRACT: note_on channel=0 note=31 velocity=0 time=0.08715584999999999
EXTRACT: note_on channel=1 note=31 velocity=0 time=0.00458715
EXTRACT: note_on channel=9 note=61 velocity=44 time=0
EXTRACT: note_on channel=9 note=42 velocity=42 time=0
EXTRACT: note_on channel=9 note=61 velocity=0 time=0.045871499999999996
EXTRACT: note_on channel=9 note=42 velocity=0 time=0
EXTRACT: note_on channel=0 note=31 velocity=95 time=0.08715584999999999
EXTRACT: note_on channel=1 note=31 velocity=96 time=0.00458715
EXTRACT: note_on channel=9 note=36 velocity=98 time=0
EXTRACT: note_on channel=9 note=36 velocity=0 time=0.045871499999999996
EXTRACT: note_on channel=0 note=31 velocity=0 time=0.08715584999999999
EXTRACT: note_on channel=1 note=31 velocity=0 time=0.00458715
EXTRACT: note_on channel=9 note=38 velocity=127 time=0
EXTRACT: note_on channel=9 note=42 velocity=42 time=0
EXTRACT: note_on channel=9 note=38 velocity=0 time=0.045871499999999996
EXTRACT: note_on channel=9 note=42 velocity=0 time=0
EXTRACT: note_on channel=8 note=67 velocity=0 time=0.2201832
EXTRACT: note_on channel=8 note=67 velocity=92 time=0.00458715
EXTRACT: note_on channel=9 note=69 velocity=76 time=0.00458715
EXTRACT: note_on channel=9 note=42 velocity=42 time=0
EXTRACT: note_on channel=9 note=69 velocity=0 time=0.045871499999999996
EXTRACT: note_on channel=9 note=42 velocity=0 time=0
EXTRACT: note_on channel=9 note=69 velocity=78 time=0.09174299999999999
EXTRACT: note_on channel=9 note=69 velocity=0 time=0.045871499999999996
EXTRACT: note_on channel=8 note=67 velocity=0 time=0.0825687
EXTRACT: note_on channel=8 note=65 velocity=88 time=0.00458715
EXTRACT: note_on channel=9 note=69 velocity=74 time=0.00458715
EXTRACT: note_on channel=9 note=42 velocity=42 time=0
EXTRACT: note_on channel=9 note=69 velocity=0 time=0.045871499999999996
EXTRACT: note_on channel=9 note=42 velocity=0 time=0
EXTRACT: note_on channel=8 note=65 velocity=0 time=0.2201832
EXTRACT: note_on channel=8 note=63 velocity=109 time=0.00458715
EXTRACT: note_on channel=9 note=42 velocity=42 time=0.00458715
EXTRACT: note_on channel=9 note=36 velocity=98 time=0
EXTRACT: note_on channel=9 note=42 velocity=0 time=0.045871499999999996
EXTRACT: note_on channel=9 note=36 velocity=0 time=0
EXTRACT: note_on channel=8 note=63 velocity=0 time=0.2201832
EXTRACT: note_on channel=8 note=63 velocity=106 time=0.00458715
EXTRACT: note_on channel=9 note=38 velocity=127 time=0.00458715
EXTRACT: note_on channel=9 note=42 velocity=42 time=0
EXTRACT: note_on channel=9 note=38 velocity=0 time=0.045871499999999996
EXTRACT: note_on channel=9 note=42 velocity=0 time=0
EXTRACT: note_on channel=9 note=61 velocity=44 time=0.2293575
EXTRACT: note_on channel=9 note=36 velocity=92 time=0
EXTRACT: note_on channel=9 note=42 velocity=42 time=0
EXTRACT: note_on channel=9 note=61 velocity=0 time=0.045871499999999996
EXTRACT: note_on channel=9 note=36 velocity=0 time=0
EXTRACT: note_on channel=9 note=42 velocity=0 time=0
EXTRACT: note_on channel=9 note=61 velocity=44 time=0.09174299999999999
EXTRACT: note_on channel=9 note=36 velocity=92 time=0
EXTRACT: note_on channel=9 note=61 velocity=0 time=0.045871499999999996
EXTRACT: note_on channel=9 note=36 velocity=0 time=0
EXTRACT: note_on channel=3 note=55 velocity=0 time=0.07798155
EXTRACT: note_on channel=3 note=63 velocity=0 time=0
EXTRACT: note_on channel=3 note=59 velocity=0 time=0
EXTRACT: note_on channel=3 note=55 velocity=81 time=0
EXTRACT: note_on channel=3 note=60 velocity=68 time=0
EXTRACT: note_on channel=3 note=63 velocity=55 time=0
EXTRACT: note_on channel=8 note=63 velocity=0 time=0.00458715
EXTRACT: note_on channel=0 note=36 velocity=92 time=0.00458715
EXTRACT: note_on channel=8 note=63 velocity=86 time=0
EXTRACT: note_on channel=8 note=72 velocity=68 time=0
EXTRACT: note_on channel=8 note=68 velocity=99 time=0
EXTRACT: note_on channel=1 note=36 velocity=100 time=0.00458715
EXTRACT: note_on channel=9 note=61 velocity=44 time=0
EXTRACT: note_on channel=9 note=42 velocity=42 time=0
EXTRACT: note_on channel=9 note=36 velocity=98 time=0
EXTRACT: note_on channel=2 note=55 velocity=0 time=0.00458715
EXTRACT: note_on channel=2 note=63 velocity=0 time=0
EXTRACT: note_on channel=2 note=59 velocity=0 time=0
EXTRACT: note_on channel=2 note=55 velocity=86 time=0
EXTRACT: note_on channel=2 note=60 velocity=82 time=0
EXTRACT: note_on channel=2 note=63 velocity=84 time=0
EXTRACT: note_on channel=9 note=61 velocity=0 time=0.04128435
EXTRACT: note_on channel=9 note=42 velocity=0 time=0
EXTRACT: note_on channel=9 note=36 velocity=0 time=0
EXTRACT: note_on channel=0 note=36 velocity=0 time=0.22477035
EXTRACT: note_on channel=1 note=36 velocity=0 time=0.00458715
EXTRACT: note_on channel=9 note=42 velocity=42 time=0
EXTRACT: note_on channel=9 note=42 velocity=0 time=0.045871499999999996
EXTRACT: note_on channel=0 note=36 velocity=90 time=0.08715584999999999
EXTRACT: note_on channel=1 note=36 velocity=106 time=0.00458715
EXTRACT: note_on channel=9 note=61 velocity=44 time=0
EXTRACT: note_on channel=9 note=36 velocity=98 time=0
EXTRACT: note_on channel=9 note=61 velocity=0 time=0.045871499999999996
EXTRACT: note_on channel=9 note=36 velocity=0 time=0
EXTRACT: note_on channel=8 note=63 velocity=0 time=0.0825687
EXTRACT: note_on channel=8 note=72 velocity=0 time=0
EXTRACT: note_on channel=8 note=68 velocity=0 time=0
EXTRACT: note_on channel=0 note=36 velocity=0 time=0.00458715
EXTRACT: note_on channel=8 note=63 velocity=85 time=0
EXTRACT: note_on channel=8 note=70 velocity=107 time=0
EXTRACT: note_on channel=8 note=67 velocity=107 time=0
EXTRACT: note_on channel=1 note=36 velocity=0 time=0.00458715
EXTRACT: note_on channel=9 note=38 velocity=127 time=0
EXTRACT: note_on channel=9 note=42 velocity=42 time=0
EXTRACT: note_on channel=9 note=38 velocity=0 time=0.045871499999999996
EXTRACT: note_on channel=9 note=42 velocity=0 time=0
EXTRACT: note_on channel=9 note=69 velocity=78 time=0.2293575
EXTRACT: note_on channel=9 note=42 velocity=42 time=0
EXTRACT: note_on channel=9 note=69 velocity=0 time=0.045871499999999996
EXTRACT: note_on channel=9 note=42 velocity=0 time=0
EXTRACT: note_on channel=9 note=69 velocity=77 time=0.09174299999999999
EXTRACT: note_on channel=9 note=69 velocity=0 time=0.045871499999999996
EXTRACT: note_on channel=8 note=63 velocity=0 time=0.0825687
EXTRACT: note_on channel=8 note=70 velocity=0 time=0
EXTRACT: note_on channel=8 note=67 velocity=0 time=0
EXTRACT: note_on channel=8 note=60 velocity=69 time=0.00458715
EXTRACT: note_on channel=8 note=68 velocity=74 time=0
EXTRACT: note_on channel=8 note=65 velocity=90 time=0
EXTRACT: note_on channel=9 note=69 velocity=78 time=0.00458715
EXTRACT: note_on channel=9 note=42 velocity=42 time=0
EXTRACT: note_on channel=9 note=69 velocity=0 time=0.045871499999999996
EXTRACT: note_on channel=9 note=42 velocity=0 time=0
EXTRACT: note_on channel=9 note=42 velocity=42 time=0.2293575
EXTRACT: note_on channel=9 note=36 velocity=98 time=0
EXTRACT: note_on channel=9 note=42 velocity=0 time=0.045871499999999996
EXTRACT: note_on channel=9 note=36 velocity=0 time=0
EXTRACT: note_on channel=8 note=60 velocity=0 time=0.2201832
EXTRACT: note_on channel=8 note=68 velocity=0 time=0
EXTRACT: note_on channel=8 note=65 velocity=0 time=0
EXTRACT: note_on channel=8 note=58 velocity=86 time=0.00458715
EXTRACT: note_on channel=8 note=67 velocity=85 time=0
EXTRACT: note_on channel=8 note=63 velocity=88 time=0
EXTRACT: note_on channel=9 note=38 velocity=127 time=0.00458715
EXTRACT: note_on channel=9 note=42 velocity=42 time=0
EXTRACT: note_on channel=9 note=38 velocity=0 time=0.045871499999999996
EXTRACT: note_on channel=9 note=42 velocity=0 time=0
EXTRACT: note_on channel=9 note=69 velocity=76 time=0.2293575
EXTRACT: note_on channel=9 note=61 velocity=44 time=0
EXTRACT: note_on channel=9 note=42 velocity=42 time=0
EXTRACT: note_on channel=9 note=69 velocity=0 time=0.045871499999999996
EXTRACT: note_on channel=9 note=61 velocity=0 time=0
EXTRACT: note_on channel=9 note=42 velocity=0 time=0
EXTRACT: note_on channel=9 note=61 velocity=44 time=0.09174299999999999
EXTRACT: note_on channel=9 note=61 velocity=0 time=0.045871499999999996
EXTRACT: note_on channel=3 note=55 velocity=0 time=0.07798155
EXTRACT: note_on channel=3 note=60 velocity=0 time=0
EXTRACT: note_on channel=3 note=63 velocity=0 time=0
EXTRACT: note_on channel=3 note=65 velocity=71 time=0
EXTRACT: note_on channel=3 note=56 velocity=76 time=0
EXTRACT: note_on channel=3 note=58 velocity=76 time=0
EXTRACT: note_on channel=3 note=61 velocity=73 time=0
EXTRACT: note_on channel=8 note=58 velocity=0 time=0.00458715
EXTRACT: note_on channel=8 note=67 velocity=0 time=0
EXTRACT: note_on channel=8 note=63 velocity=0 time=0
EXTRACT: note_on channel=0 note=34 velocity=83 time=0.00458715
EXTRACT: note_on channel=4 note=55 velocity=0 time=0
EXTRACT: note_on channel=4 note=63 velocity=0 time=0
EXTRACT: note_on channel=4 note=58 velocity=73 time=0
EXTRACT: note_on channel=4 note=65 velocity=100 time=0
EXTRACT: note_on channel=8 note=67 velocity=102 time=0
EXTRACT: note_on channel=1 note=34 velocity=98 time=0.00458715
EXTRACT: note_on channel=9 note=61 velocity=44 time=0
EXTRACT: note_on channel=9 note=42 velocity=42 time=0
EXTRACT: note_on channel=9 note=36 velocity=98 time=0
EXTRACT: note_on channel=2 note=55 velocity=0 time=0.00458715
EXTRACT: note_on channel=2 note=60 velocity=0 time=0
EXTRACT: note_on channel=2 note=63 velocity=0 time=0
EXTRACT: note_on channel=2 note=65 velocity=72 time=0
EXTRACT: note_on channel=2 note=56 velocity=92 time=0
EXTRACT: note_on channel=2 note=58 velocity=82 time=0
EXTRACT: note_on channel=2 note=61 velocity=74 time=0
EXTRACT: note_on channel=9 note=61 velocity=0 time=0.04128435
EXTRACT: note_on channel=9 note=42 velocity=0 time=0
EXTRACT: note_on channel=9 note=36 velocity=0 time=0
EXTRACT: note_on channel=9 note=61 velocity=44 time=0.09174299999999999
EXTRACT: note_on channel=9 note=61 velocity=0 time=0.045871499999999996
EXTRACT: note_on channel=0 note=34 velocity=0 time=0.08715584999999999
EXTRACT: note_on channel=1 note=34 velocity=0 time=0.00458715
EXTRACT: note_on channel=9 note=61 velocity=44 time=0
EXTRACT: note_on channel=9 note=42 velocity=42 time=0
EXTRACT: note_on channel=9 note=61 velocity=0 time=0.045871499999999996
EXTRACT: note_on channel=9 note=42 velocity=0 time=0
EXTRACT: note_on channel=0 note=34 velocity=95 time=0.08715584999999999
EXTRACT: note_on channel=1 note=34 velocity=96 time=0.00458715
EXTRACT: note_on channel=9 note=36 velocity=98 time=0
EXTRACT: note_on channel=9 note=36 velocity=0 time=0.045871499999999996
EXTRACT: note_on channel=0 note=34 velocity=0 time=0.08715584999999999
EXTRACT: note_on channel=1 note=34 velocity=0 time=0.00458715
EXTRACT: note_on channel=9 note=38 velocity=127 time=0
EXTRACT: note_on channel=9 note=42 velocity=42 time=0
EXTRACT: note_on channel=9 note=38 velocity=0 time=0.045871499999999996
EXTRACT: note_on channel=9 note=42 velocity=0 time=0
EXTRACT: note_on channel=8 note=67 velocity=0 time=0.2201832
EXTRACT: note_on channel=0 note=34 velocity=83 time=0.00458715
EXTRACT: note_on channel=8 note=67 velocity=114 time=0
EXTRACT: note_on channel=1 note=34 velocity=109 time=0.00458715
EXTRACT: note_on channel=9 note=69 velocity=76 time=0
EXTRACT: note_on channel=9 note=42 velocity=42 time=0
EXTRACT: note_on channel=9 note=69 velocity=0 time=0.045871499999999996
EXTRACT: note_on channel=9 note=42 velocity=0 time=0
EXTRACT: note_on channel=0 note=34 velocity=0 time=0.08715584999999999
EXTRACT: note_on channel=1 note=34 velocity=0 time=0.00458715
EXTRACT: note_on channel=9 note=36 velocity=92 time=0
EXTRACT: note_on channel=9 note=69 velocity=76 time=0
EXTRACT: note_on channel=9 note=36 velocity=0 time=0.045871499999999996
EXTRACT: note_on channel=9 note=69 velocity=0 time=0
EXTRACT: note_on channel=3 note=65 velocity=0 time=0.07798155
EXTRACT: note_on channel=3 note=56 velocity=0 time=0
EXTRACT: note_on channel=3 note=58 velocity=0 time=0
EXTRACT: note_on channel=3 note=61 velocity=0 time=0
EXTRACT: note_on channel=3 note=61 velocity=80 time=0
EXTRACT: note_on channel=3 note=55 velocity=66 time=0
EXTRACT: note_on channel=3 note=58 velocity=70 time=0
EXTRACT: note_on channel=3 note=63 velocity=80 time=0
EXTRACT: note_on channel=8 note=67 velocity=0 time=0.00458715
EXTRACT: note_on channel=0 note=39 velocity=84 time=0.00458715
EXTRACT: note_on channel=4 note=58 velocity=0 time=0
EXTRACT: note_on channel=4 note=65 velocity=0 time=0
EXTRACT: note_on channel=4 note=55 velocity=96 time=0
EXTRACT: note_on channel=4 note=63 velocity=103 time=0
EXTRACT: note_on channel=8 note=65 velocity=114 time=0
EXTRACT: note_on channel=1 note=39 velocity=108 time=0.00458715
EXTRACT: note_on channel=9 note=36 velocity=98 time=0
EXTRACT: note_on channel=9 note=69 velocity=81 time=0
EXTRACT: note_on channel=9 note=42 velocity=42 time=0
EXTRACT: note_on channel=2 note=65 velocity=0 time=0.00458715
EXTRACT: note_on channel=2 note=56 velocity=0 time=0
EXTRACT: note_on channel=2 note=58 velocity=0 time=0
EXTRACT: note_on channel=2 note=61 velocity=0 time=0
EXTRACT: note_on channel=2 note=61 velocity=80 time=0
EXTRACT: note_on channel=2 note=55 velocity=88 time=0
EXTRACT: note_on channel=2 note=58 velocity=84 time=0
EXTRACT: note_on channel=2 note=63 velocity=91 time=0
EXTRACT: note_on channel=9 note=36 velocity=0 time=0.04128435
EXTRACT: note_on channel=9 note=69 velocity=0 time=0
EXTRACT: note_on channel=9 note=42 velocity=0 time=0
EXTRACT: note_on channel=8 note=65 velocity=0 time=0.2201832
EXTRACT: note_on channel=0 note=39 velocity=0 time=0.00458715
EXTRACT: note_on channel=8 note=63 velocity=98 time=0
EXTRACT: note_on channel=1 note=39 velocity=0 time=0.00458715
EXTRACT: note_on channel=9 note=36 velocity=92 time=0
EXTRACT: note_on channel=9 note=42 velocity=42 time=0
EXTRACT: note_on channel=9 note=36 velocity=0 time=0.045871499999999996
EXTRACT: note_on channel=9 note=42 velocity=0 time=0
EXTRACT: note_on channel=0 note=39 velocity=99 time=0.08715584999999999
EXTRACT: note_on channel=1 note=39 velocity=101 time=0.00458715
EXTRACT: note_on channel=9 note=36 velocity=92 time=0
EXTRACT: note_on channel=9 note=36 velocity=0 time=0.045871499999999996
EXTRACT: note_on channel=8 note=63 velocity=0 time=0.0825687
EXTRACT: note_on channel=0 note=39 velocity=0 time=0.00458715
EXTRACT: note_on channel=8 note=63 velocity=113 time=0
EXTRACT: note_on channel=1 note=39 velocity=0 time=0.00458715
EXTRACT: note_on channel=9 note=38 velocity=127 time=0
EXTRACT: note_on channel=9 note=42 velocity=42 time=0
EXTRACT: note_on channel=9 note=38 velocity=0 time=0.045871499999999996
EXTRACT: note_on channel=9 note=42 velocity=0 time=0
EXTRACT: note_on channel=9 note=61 velocity=44 time=0.2293575
EXTRACT: note_on channel=9 note=36 velocity=92 time=0
EXTRACT: note_on channel=9 note=42 velocity=42 time=0
EXTRACT: note_on channel=9 note=61 velocity=0 time=0.045871499999999996
EXTRACT: note_on channel=9 note=36 velocity=0 time=0
EXTRACT: note_on channel=9 note=42 velocity=0 time=0
EXTRACT: note_on channel=9 note=61 velocity=44 time=0.09174299999999999
EXTRACT: note_on channel=9 note=36 velocity=92 time=0
EXTRACT: note_on channel=9 note=61 velocity=0 time=0.045871499999999996
EXTRACT: note_on channel=9 note=36 velocity=0 time=0
EXTRACT: note_on channel=3 note=61 velocity=0 time=0.07798155
EXTRACT: note_on channel=3 note=55 velocity=0 time=0
EXTRACT: note_on channel=3 note=58 velocity=0 time=0
EXTRACT: note_on channel=3 note=63 velocity=0 time=0
EXTRACT: note_on channel=3 note=44 velocity=32 time=0
EXTRACT: note_on channel=3 note=55 velocity=74 time=0
EXTRACT: note_on channel=3 note=63 velocity=70 time=0
EXTRACT: note_on channel=3 note=60 velocity=58 time=0
EXTRACT: note_on channel=8 note=63 velocity=0 time=0.00458715
EXTRACT: note_on channel=0 note=32 velocity=86 time=0.00458715
EXTRACT: note_on channel=4 note=55 velocity=0 time=0
EXTRACT: note_on channel=4 note=63 velocity=0 time=0
EXTRACT: note_on channel=4 note=55 velocity=106 time=0
EXTRACT: note_on channel=4 note=63 velocity=111 time=0
EXTRACT: note_on channel=8 note=67 velocity=106 time=0
EXTRACT: note_on channel=1 note=32 velocity=92 time=0.00458715
EXTRACT: note_on channel=9 note=61 velocity=44 time=0
EXTRACT: note_on channel=9 note=57 velocity=90 time=0
EXTRACT: note_on channel=9 note=36 velocity=98 time=0
EXTRACT: note_on channel=2 note=61 velocity=0 time=0.00458715
EXTRACT: note_on channel=2 note=55 velocity=0 time=0
EXTRACT: note_on channel=2 note=58 velocity=0 time=0
EXTRACT: note_on channel=2 note=63 velocity=0 time=0
EXTRACT: note_on channel=2 note=44 velocity=63 time=0
EXTRACT: note_on channel=2 note=55 velocity=76 time=0
EXTRACT: note_on channel=2 note=63 velocity=91 time=0
EXTRACT: note_on channel=2 note=60 velocity=78 time=0
EXTRACT: note_on channel=9 note=61 velocity=0 time=0.04128435
EXTRACT: note_on channel=9 note=57 velocity=0 time=0
EXTRACT: note_on channel=9 note=36 velocity=0 time=0
EXTRACT: note_on channel=0 note=32 velocity=0 time=0.22477035
EXTRACT: note_on channel=1 note=32 velocity=0 time=0.00458715
EXTRACT: note_on channel=9 note=42 velocity=42 time=0
EXTRACT: note_on channel=9 note=42 velocity=0 time=0.045871499999999996
EXTRACT: note_on channel=0 note=32 velocity=98 time=0.08715584999999999
EXTRACT: note_on channel=1 note=32 velocity=114 time=0.00458715
EXTRACT: note_on channel=9 note=61 velocity=44 time=0
EXTRACT: note_on channel=9 note=36 velocity=98 time=0
EXTRACT: note_on channel=9 note=61 velocity=0 time=0.045871499999999996
EXTRACT: note_on channel=9 note=36 velocity=0 time=0
EXTRACT: note_on channel=0 note=32 velocity=0 time=0.08715584999999999
EXTRACT: note_on channel=1 note=32 velocity=0 time=0.00458715
EXTRACT: note_on channel=9 note=38 velocity=127 time=0
EXTRACT: note_on channel=9 note=42 velocity=42 time=0
EXTRACT: note_on channel=9 note=38 velocity=0 time=0.045871499999999996
EXTRACT: note_on channel=9 note=42 velocity=0 time=0
EXTRACT: note_on channel=8 note=67 velocity=0 time=0.2201832
EXTRACT: note_on channel=8 note=67 velocity=111 time=0.00458715
EXTRACT: note_on channel=9 note=69 velocity=79 time=0.00458715
EXTRACT: note_on channel=9 note=42 velocity=42 time=0
EXTRACT: note_on channel=9 note=69 velocity=0 time=0.045871499999999996
EXTRACT: note_on channel=9 note=42 velocity=0 time=0
EXTRACT: note_on channel=9 note=69 velocity=80 time=0.09174299999999999
EXTRACT: note_on channel=9 note=69 velocity=0 time=0.045871499999999996
EXTRACT: note_on channel=8 note=67 velocity=0 time=0.0825687
EXTRACT: note_on channel=8 note=65 velocity=114 time=0.00458715
EXTRACT: note_on channel=9 note=69 velocity=74 time=0.00458715
EXTRACT: note_on channel=9 note=42 velocity=42 time=0
EXTRACT: note_on channel=9 note=69 velocity=0 time=0.045871499999999996
EXTRACT: note_on channel=9 note=42 velocity=0 time=0
EXTRACT: note_on channel=8 note=65 velocity=0 time=0.2201832
EXTRACT: note_on channel=8 note=63 velocity=117 time=0.00458715
EXTRACT: note_on channel=9 note=42 velocity=42 time=0.00458715
EXTRACT: note_on channel=9 note=36 velocity=98 time=0
EXTRACT: note_on channel=9 note=42 velocity=0 time=0.045871499999999996
EXTRACT: note_on channel=9 note=36 velocity=0 time=0
EXTRACT: note_on channel=8 note=63 velocity=0 time=0.2201832
EXTRACT: note_on channel=8 note=63 velocity=108 time=0.00458715
EXTRACT: note_on channel=9 note=38 velocity=127 time=0.00458715
EXTRACT: note_on channel=9 note=42 velocity=42 time=0
EXTRACT: note_on channel=9 note=38 velocity=0 time=0.045871499999999996
EXTRACT: note_on channel=9 note=42 velocity=0 time=0
EXTRACT: note_on channel=9 note=69 velocity=76 time=0.2293575
EXTRACT: note_on channel=9 note=61 velocity=44 time=0
EXTRACT: note_on channel=9 note=42 velocity=42 time=0
EXTRACT: note_on channel=9 note=69 velocity=0 time=0.045871499999999996
EXTRACT: note_on channel=9 note=61 velocity=0 time=0
EXTRACT: note_on channel=9 note=42 velocity=0 time=0
EXTRACT: note_on channel=9 note=61 velocity=44 time=0.09174299999999999
EXTRACT: note_on channel=9 note=61 velocity=0 time=0.045871499999999996
EXTRACT: note_on channel=3 note=44 velocity=0 time=0.07798155
EXTRACT: note_on channel=3 note=55 velocity=0 time=0
EXTRACT: note_on channel=3 note=63 velocity=0 time=0
EXTRACT: note_on channel=3 note=60 velocity=0 time=0
EXTRACT: note_on channel=3 note=55 velocity=58 time=0
EXTRACT: note_on channel=3 note=63 velocity=60 time=0
EXTRACT: note_on channel=3 note=59 velocity=74 time=0
EXTRACT: note_on channel=8 note=63 velocity=0 time=0.00458715
EXTRACT: note_on channel=0 note=31 velocity=88 time=0.00458715
EXTRACT: note_on channel=8 note=67 velocity=107 time=0
EXTRACT: note_on channel=1 note=31 velocity=114 time=0.00458715
EXTRACT: note_on channel=9 note=61 velocity=44 time=0
EXTRACT: note_on channel=9 note=42 velocity=42 time=0
EXTRACT: note_on channel=9 note=36 velocity=98 time=0
EXTRACT: note_on channel=2 note=44 velocity=0 time=0.00458715
EXTRACT: note_on channel=2 note=55 velocity=0 time=0
EXTRACT: note_on channel=2 note=63 velocity=0 time=0
EXTRACT: note_on channel=2 note=60 velocity=0 time=0
EXTRACT: note_on channel=2 note=55 velocity=76 time=0
EXTRACT: note_on channel=2 note=63 velocity=92 time=0
EXTRACT: note_on channel=2 note=59 velocity=87 time=0
EXTRACT: note_on channel=9 note=61 velocity=0 time=0.04128435
EXTRACT: note_on channel=9 note=42 velocity=0 time=0
EXTRACT: note_on channel=9 note=36 velocity=0 time=0
EXTRACT: note_on channel=9 note=61 velocity=44 time=0.09174299999999999
EXTRACT: note_on channel=9 note=61 velocity=0 time=0.045871499999999996
EXTRACT: note_on channel=0 note=31 velocity=0 time=0.08715584999999999
EXTRACT: note_on channel=1 note=31 velocity=0 time=0.00458715
EXTRACT: note_on channel=9 note=61 velocity=44 time=0
EXTRACT: note_on channel=9 note=42 velocity=42 time=0
EXTRACT: note_on channel=9 note=61 velocity=0 time=0.045871499999999996
EXTRACT: note_on channel=9 note=42 velocity=0 time=0
EXTRACT: note_on channel=0 note=31 velocity=98 time=0.08715584999999999
EXTRACT: note_on channel=1 note=31 velocity=109 time=0.00458715
EXTRACT: note_on channel=9 note=36 velocity=98 time=0
EXTRACT: note_on channel=9 note=36 velocity=0 time=0.045871499999999996
EXTRACT: note_on channel=0 note=31 velocity=0 time=0.08715584999999999
EXTRACT: note_on channel=1 note=31 velocity=0 time=0.00458715
EXTRACT: note_on channel=9 note=38 velocity=127 time=0
EXTRACT: note_on channel=9 note=42 velocity=42 time=0
EXTRACT: note_on channel=9 note=38 velocity=0 time=0.045871499999999996
EXTRACT: note_on channel=9 note=42 velocity=0 time=0
EXTRACT: note_on channel=8 note=67 velocity=0 time=0.2201832
EXTRACT: note_on channel=8 note=67 velocity=102 time=0.00458715
EXTRACT: note_on channel=9 note=69 velocity=82 time=0.00458715
EXTRACT: note_on channel=9 note=42 velocity=42 time=0
EXTRACT: note_on channel=9 note=69 velocity=0 time=0.045871499999999996
EXTRACT: note_on channel=9 note=42 velocity=0 time=0
EXTRACT: note_on channel=9 note=69 velocity=82 time=0.09174299999999999
EXTRACT: note_on channel=9 note=69 velocity=0 time=0.045871499999999996
EXTRACT: note_on channel=8 note=67 velocity=0 time=0.0825687
EXTRACT: note_on channel=8 note=65 velocity=87 time=0.00458715
EXTRACT: note_on channel=9 note=69 velocity=76 time=0.00458715
EXTRACT: note_on channel=9 note=42 velocity=42 time=0
EXTRACT: note_on channel=9 note=69 velocity=0 time=0.045871499999999996
EXTRACT: note_on channel=9 note=42 velocity=0 time=0
EXTRACT: note_on channel=8 note=65 velocity=0 time=0.2201832
EXTRACT: note_on channel=0 note=34 velocity=92 time=0.00458715
EXTRACT: note_on channel=8 note=63 velocity=94 time=0
EXTRACT: note_on channel=1 note=34 velocity=94 time=0.00458715
EXTRACT: note_on channel=9 note=42 velocity=42 time=0
EXTRACT: note_on channel=9 note=36 velocity=98 time=0
EXTRACT: note_on channel=9 note=42 velocity=0 time=0.045871499999999996
EXTRACT: note_on channel=9 note=36 velocity=0 time=0
EXTRACT: note_on channel=0 note=34 velocity=0 time=0.08715584999999999
EXTRACT: note_on channel=1 note=34 velocity=0 time=0.00458715
EXTRACT: note_on channel=8 note=63 velocity=0 time=0.1284402
EXTRACT: note_on channel=8 note=63 velocity=88 time=0.00458715
EXTRACT: note_on channel=9 note=38 velocity=127 time=0.00458715
EXTRACT: note_on channel=9 note=42 velocity=42 time=0
EXTRACT: note_on channel=9 note=38 velocity=0 time=0.045871499999999996
EXTRACT: note_on channel=9 note=42 velocity=0 time=0
EXTRACT: note_on channel=0 note=34 velocity=102 time=0.08715584999999999
EXTRACT: note_on channel=1 note=34 velocity=114 time=0.00458715
EXTRACT: note_on channel=0 note=34 velocity=0 time=0.13302735
EXTRACT: note_on channel=1 note=34 velocity=0 time=0.00458715
EXTRACT: note_on channel=9 note=61 velocity=44 time=0
EXTRACT: note_on channel=9 note=36 velocity=92 time=0
EXTRACT: note_on channel=9 note=42 velocity=42 time=0
EXTRACT: note_on channel=9 note=61 velocity=0 time=0.045871499999999996
EXTRACT: note_on channel=9 note=36 velocity=0 time=0
EXTRACT: note_on channel=9 note=42 velocity=0 time=0
EXTRACT: note_on channel=9 note=61 velocity=44 time=0.09174299999999999
EXTRACT: note_on channel=9 note=36 velocity=92 time=0
EXTRACT: note_on channel=9 note=61 velocity=0 time=0.045871499999999996
EXTRACT: note_on channel=9 note=36 velocity=0 time=0
EXTRACT: note_on channel=3 note=55 velocity=0 time=0.07798155
EXTRACT: note_on channel=3 note=63 velocity=0 time=0
EXTRACT: note_on channel=3 note=59 velocity=0 time=0
EXTRACT: note_on channel=3 note=55 velocity=69 time=0
EXTRACT: note_on channel=3 note=60 velocity=65 time=0
EXTRACT: note_on channel=3 note=63 velocity=64 time=0
EXTRACT: note_on channel=8 note=63 velocity=0 time=0.00458715
EXTRACT: note_on channel=0 note=36 velocity=101 time=0.00458715
EXTRACT: note_on channel=8 note=63 velocity=94 time=0
EXTRACT: note_on channel=8 note=72 velocity=111 time=0
EXTRACT: note_on channel=8 note=68 velocity=92 time=0
EXTRACT: note_on channel=1 note=36 velocity=100 time=0.00458715
EXTRACT: note_on channel=9 note=61 velocity=44 time=0
EXTRACT: note_on channel=9 note=42 velocity=42 time=0
EXTRACT: note_on channel=9 note=36 velocity=98 time=0
EXTRACT: note_on channel=2 note=55 velocity=0 time=0.00458715
EXTRACT: note_on channel=2 note=63 velocity=0 time=0
EXTRACT: note_on channel=2 note=59 velocity=0 time=0
EXTRACT: note_on channel=2 note=55 velocity=92 time=0
EXTRACT: note_on channel=2 note=60 velocity=73 time=0
EXTRACT: note_on channel=2 note=63 velocity=87 time=0
EXTRACT: note_on channel=9 note=61 velocity=0 time=0.04128435
EXTRACT: note_on channel=9 note=42 velocity=0 time=0
EXTRACT: note_on channel=9 note=36 velocity=0 time=0
EXTRACT: note_on channel=0 note=36 velocity=0 time=0.22477035
EXTRACT: note_on channel=1 note=36 velocity=0 time=0.00458715
EXTRACT: note_on channel=9 note=42 velocity=42 time=0
EXTRACT: note_on channel=9 note=42 velocity=0 time=0.045871499999999996
EXTRACT: note_on channel=0 note=36 velocity=92 time=0.08715584999999999
EXTRACT: note_on channel=1 note=36 velocity=105 time=0.00458715
EXTRACT: note_on channel=9 note=61 velocity=44 time=0
EXTRACT: note_on channel=9 note=36 velocity=98 time=0
EXTRACT: note_on channel=9 note=61 velocity=0 time=0.045871499999999996
EXTRACT: note_on channel=9 note=36 velocity=0 time=0
EXTRACT: note_on channel=8 note=63 velocity=0 time=0.0825687
EXTRACT: note_on channel=8 note=72 velocity=0 time=0
EXTRACT: note_on channel=8 note=68 velocity=0 time=0
EXTRACT: note_on channel=0 note=36 velocity=0 time=0.00458715
EXTRACT: note_on channel=8 note=63 velocity=111 time=0
EXTRACT: note_on channel=8 note=70 velocity=81 time=0
EXTRACT: note_on channel=8 note=67 velocity=112 time=0
EXTRACT: note_on channel=1 note=36 velocity=0 time=0.00458715
EXTRACT: note_on channel=9 note=38 velocity=127 time=0
EXTRACT: note_on channel=9 note=42 velocity=42 time=0
EXTRACT: note_on channel=9 note=38 velocity=0 time=0.045871499999999996
EXTRACT: note_on channel=9 note=42 velocity=0 time=0
EXTRACT: note_on channel=9 note=69 velocity=82 time=0.2293575
EXTRACT: note_on channel=9 note=42 velocity=42 time=0
EXTRACT: note_on channel=9 note=69 velocity=0 time=0.045871499999999996
EXTRACT: note_on channel=9 note=42 velocity=0 time=0
EXTRACT: note_on channel=9 note=69 velocity=75 time=0.09174299999999999
EXTRACT: note_on channel=9 note=69 velocity=0 time=0.045871499999999996
EXTRACT: note_on channel=8 note=63 velocity=0 time=0.0825687
EXTRACT: note_on channel=8 note=70 velocity=0 time=0
EXTRACT: note_on channel=8 note=67 velocity=0 time=0
EXTRACT: note_on channel=8 note=60 velocity=81 time=0.00458715
EXTRACT: note_on channel=8 note=68 velocity=105 time=0
EXTRACT: note_on channel=8 note=65 velocity=88 time=0
EXTRACT: note_on channel=9 note=69 velocity=79 time=0.00458715
EXTRACT: note_on channel=9 note=42 velocity=42 time=0
EXTRACT: note_on channel=9 note=69 velocity=0 time=0.045871499999999996
EXTRACT: note_on channel=9 note=42 velocity=0 time=0
EXTRACT: note_on channel=9 note=42 velocity=42 time=0.2293575
EXTRACT: note_on channel=9 note=36 velocity=98 time=0
EXTRACT: note_on channel=9 note=42 velocity=0 time=0.045871499999999996
EXTRACT: note_on channel=9 note=36 velocity=0 time=0
EXTRACT: note_on channel=8 note=60 velocity=0 time=0.2201832
EXTRACT: note_on channel=8 note=68 velocity=0 time=0
EXTRACT: note_on channel=8 note=65 velocity=0 time=0
EXTRACT: note_on channel=8 note=58 velocity=69 time=0.00458715
EXTRACT: note_on channel=8 note=67 velocity=108 time=0
EXTRACT: note_on channel=8 note=63 velocity=95 time=0
EXTRACT: note_on channel=9 note=38 velocity=127 time=0.00458715
EXTRACT: note_on channel=9 note=42 velocity=42 time=0
EXTRACT: note_on channel=9 note=38 velocity=0 time=0.045871499999999996
EXTRACT: note_on channel=9 note=42 velocity=0 time=0
EXTRACT: note_on channel=9 note=69 velocity=82 time=0.2293575
EXTRACT: note_on channel=9 note=61 velocity=44 time=0
EXTRACT: note_on channel=9 note=42 velocity=42 time=0
EXTRACT: note_on channel=9 note=69 velocity=0 time=0.045871499999999996
EXTRACT: note_on channel=9 note=61 velocity=0 time=0
EXTRACT: note_on channel=9 note=42 velocity=0 time=0
EXTRACT: note_on channel=9 note=61 velocity=44 time=0.09174299999999999
EXTRACT: note_on channel=9 note=61 velocity=0 time=0.045871499999999996
EXTRACT: note_on channel=3 note=55 velocity=0 time=0.07798155
EXTRACT: note_on channel=3 note=60 velocity=0 time=0
EXTRACT: note_on channel=3 note=63 velocity=0 time=0
EXTRACT: note_on channel=3 note=65 velocity=81 time=0
EXTRACT: note_on channel=3 note=56 velocity=75 time=0
EXTRACT: note_on channel=3 note=58 velocity=57 time=0
EXTRACT: note_on channel=3 note=61 velocity=58 time=0
EXTRACT: note_on channel=8 note=58 velocity=0 time=0.00458715
EXTRACT: note_on channel=8 note=67 velocity=0 time=0
EXTRACT: note_on channel=8 note=63 velocity=0 time=0
EXTRACT: note_on channel=0 note=34 velocity=97 time=0.00458715
EXTRACT: note_on channel=4 note=55 velocity=0 time=0
EXTRACT: note_on channel=4 note=63 velocity=0 time=0
EXTRACT: note_on channel=4 note=58 velocity=105 time=0
EXTRACT: note_on channel=4 note=65 velocity=88 time=0
EXTRACT: note_on channel=8 note=67 velocity=114 time=0
EXTRACT: note_on channel=1 note=34 velocity=95 time=0.00458715
EXTRACT: note_on channel=9 note=61 velocity=44 time=0
EXTRACT: note_on channel=9 note=42 velocity=42 time=0
EXTRACT: note_on channel=9 note=36 velocity=98 time=0
EXTRACT: note_on channel=2 note=55 velocity=0 time=0.00458715
EXTRACT: note_on channel=2 note=60 velocity=0 time=0
EXTRACT: note_on channel=2 note=63 velocity=0 time=0
EXTRACT: note_on channel=2 note=65 velocity=90 time=0
EXTRACT: note_on channel=2 note=56 velocity=88 time=0
EXTRACT: note_on channel=2 note=58 velocity=89 time=0
EXTRACT: note_on channel=2 note=61 velocity=77 time=0
EXTRACT: note_on channel=9 note=61 velocity=0 time=0.04128435
EXTRACT: note_on channel=9 note=42 velocity=0 time=0
EXTRACT: note_on channel=9 note=36 velocity=0 time=0
EXTRACT: note_on channel=9 note=61 velocity=44 time=0.09174299999999999
EXTRACT: note_on channel=9 note=61 velocity=0 time=0.045871499999999996
EXTRACT: note_on channel=0 note=34 velocity=0 time=0.08715584999999999
EXTRACT: note_on channel=1 note=34 velocity=0 time=0.00458715
EXTRACT: note_on channel=9 note=61 velocity=44 time=0
EXTRACT: note_on channel=9 note=42 velocity=42 time=0
EXTRACT: note_on channel=9 note=61 velocity=0 time=0.045871499999999996
EXTRACT: note_on channel=9 note=42 velocity=0 time=0
EXTRACT: note_on channel=0 note=34 velocity=107 time=0.08715584999999999
EXTRACT: note_on channel=1 note=34 velocity=98 time=0.00458715
EXTRACT: note_on channel=9 note=36 velocity=98 time=0
EXTRACT: note_on channel=9 note=36 velocity=0 time=0.045871499999999996
EXTRACT: note_on channel=0 note=34 velocity=0 time=0.08715584999999999
EXTRACT: note_on channel=1 note=34 velocity=0 time=0.00458715
EXTRACT: note_on channel=9 note=38 velocity=127 time=0
EXTRACT: note_on channel=9 note=42 velocity=42 time=0
EXTRACT: note_on channel=9 note=38 velocity=0 time=0.045871499999999996
EXTRACT: note_on channel=9 note=42 velocity=0 time=0
EXTRACT: note_on channel=8 note=67 velocity=0 time=0.2201832
EXTRACT: note_on channel=0 note=34 velocity=104 time=0.00458715
EXTRACT: note_on channel=8 note=67 velocity=86 time=0
EXTRACT: note_on channel=1 note=34 velocity=114 time=0.00458715
EXTRACT: note_on channel=9 note=69 velocity=80 time=0
EXTRACT: note_on channel=9 note=42 velocity=42 time=0
EXTRACT: note_on channel=9 note=69 velocity=0 time=0.045871499999999996
EXTRACT: note_on channel=9 note=42 velocity=0 time=0
EXTRACT: note_on channel=0 note=34 velocity=0 time=0.08715584999999999
EXTRACT: note_on channel=1 note=34 velocity=0 time=0.00458715
EXTRACT: note_on channel=9 note=69 velocity=82 time=0
EXTRACT: note_on channel=9 note=69 velocity=0 time=0.045871499999999996
EXTRACT: note_on channel=3 note=65 velocity=0 time=0.07798155
EXTRACT: note_on channel=3 note=56 velocity=0 time=0
EXTRACT: note_on channel=3 note=58 velocity=0 time=0
EXTRACT: note_on channel=3 note=61 velocity=0 time=0
EXTRACT: note_on channel=3 note=61 velocity=76 time=0
EXTRACT: note_on channel=3 note=55 velocity=58 time=0
EXTRACT: note_on channel=3 note=58 velocity=79 time=0
EXTRACT: note_on channel=3 note=63 velocity=64 time=0
EXTRACT: note_on channel=8 note=67 velocity=0 time=0.00458715
EXTRACT: note_on channel=0 note=39 velocity=106 time=0.00458715
EXTRACT: note_on channel=4 note=58 velocity=0 time=0
EXTRACT: note_on channel=4 note=65 velocity=0 time=0
EXTRACT: note_on channel=4 note=55 velocity=96 time=0
EXTRACT: note_on channel=4 note=63 velocity=101 time=0
EXTRACT: note_on channel=6 note=32 velocity=95 time=0
EXTRACT: note_on channel=8 note=65 velocity=110 time=0
EXTRACT: note_on channel=1 note=39 velocity=102 time=0.00458715
EXTRACT: note_on channel=9 note=29 velocity=45 time=0
EXTRACT: note_on channel=9 note=36 velocity=92 time=0
EXTRACT: note_on channel=2 note=65 velocity=0 time=0.00458715
EXTRACT: note_on channel=2 note=56 velocity=0 time=0
EXTRACT: note_on channel=2 note=58 velocity=0 time=0
EXTRACT: note_on channel=2 note=61 velocity=0 time=0
EXTRACT: note_on channel=2 note=61 velocity=71 time=0
EXTRACT: note_on channel=2 note=55 velocity=75 time=0
EXTRACT: note_on channel=2 note=58 velocity=72 time=0
EXTRACT: note_on channel=2 note=63 velocity=92 time=0
EXTRACT: note_on channel=9 note=29 velocity=0 time=0.04128435
EXTRACT: note_on channel=9 note=36 velocity=0 time=0
EXTRACT: note_on channel=6 note=32 velocity=0 time=0.0860090625
EXTRACT: note_on channel=6 note=32 velocity=87 time=0.0011467875
EXTRACT: note_on channel=9 note=29 velocity=31 time=0.00458715
EXTRACT: note_on channel=9 note=41 velocity=70 time=0
EXTRACT: note_on channel=9 note=29 velocity=0 time=0.045871499999999996
EXTRACT: note_on channel=9 note=41 velocity=0 time=0
EXTRACT: note_on channel=8 note=65 velocity=0 time=0.0825687
EXTRACT: note_on channel=6 note=32 velocity=0 time=0.0034403625
EXTRACT: note_on channel=0 note=39 velocity=0 time=0.0011467875
EXTRACT: note_on channel=6 note=32 velocity=88 time=0
EXTRACT: note_on channel=8 note=63 velocity=112 time=0
EXTRACT: note_on channel=1 note=39 velocity=0 time=0.00458715
EXTRACT: note_on channel=9 note=29 velocity=45 time=0
EXTRACT: note_on channel=9 note=36 velocity=92 time=0
EXTRACT: note_on channel=9 note=29 velocity=0 time=0.045871499999999996
EXTRACT: note_on channel=9 note=36 velocity=0 time=0
EXTRACT: note_on channel=6 note=32 velocity=0 time=0.0860090625
EXTRACT: note_on channel=0 note=39 velocity=98 time=0.0011467875
EXTRACT: note_on channel=6 note=32 velocity=97 time=0
EXTRACT: note_on channel=1 note=39 velocity=105 time=0.00458715
EXTRACT: note_on channel=9 note=29 velocity=31 time=0
EXTRACT: note_on channel=9 note=41 velocity=70 time=0
EXTRACT: note_on channel=9 note=29 velocity=0 time=0.045871499999999996
EXTRACT: note_on channel=9 note=41 velocity=0 time=0
EXTRACT: note_on channel=8 note=63 velocity=0 time=0.0825687
EXTRACT: note_on channel=6 note=32 velocity=0 time=0.0034403625
EXTRACT: note_on channel=0 note=39 velocity=0 time=0.0011467875
EXTRACT: note_on channel=6 note=32 velocity=107 time=0
EXTRACT: note_on channel=8 note=63 velocity=94 time=0
EXTRACT: note_on channel=1 note=39 velocity=0 time=0.00458715
EXTRACT: note_on channel=9 note=29 velocity=45 time=0
EXTRACT: note_on channel=9 note=38 velocity=127 time=0
EXTRACT: note_on channel=9 note=36 velocity=92 time=0
EXTRACT: note_on channel=9 note=29 velocity=0 time=0.045871499999999996
EXTRACT: note_on channel=9 note=38 velocity=0 time=0
EXTRACT: note_on channel=9 note=36 velocity=0 time=0
EXTRACT: note_on channel=6 note=32 velocity=0 time=0.0860090625
EXTRACT: note_on channel=6 note=32 velocity=76 time=0.0011467875
EXTRACT: note_on channel=9 note=29 velocity=31 time=0.00458715
EXTRACT: note_on channel=9 note=41 velocity=70 time=0
EXTRACT: note_on channel=9 note=29 velocity=0 time=0.045871499999999996
EXTRACT: note_on channel=9 note=41 velocity=0 time=0
EXTRACT: note_on channel=6 note=32 velocity=0 time=0.0860090625
EXTRACT: note_on channel=6 note=32 velocity=99 time=0.0011467875
EXTRACT: note_on channel=9 note=61 velocity=44 time=0.00458715
EXTRACT: note_on channel=9 note=29 velocity=45 time=0
EXTRACT: note_on channel=9 note=36 velocity=92 time=0
EXTRACT: note_on channel=9 note=61 velocity=0 time=0.045871499999999996
EXTRACT: note_on channel=9 note=29 velocity=0 time=0
EXTRACT: note_on channel=9 note=36 velocity=0 time=0
EXTRACT: note_on channel=6 note=32 velocity=0 time=0.0860090625
EXTRACT: note_on channel=6 note=32 velocity=70 time=0.0011467875
EXTRACT: note_on channel=9 note=61 velocity=44 time=0.00458715
EXTRACT: note_on channel=9 note=29 velocity=31 time=0
EXTRACT: note_on channel=9 note=41 velocity=70 time=0
EXTRACT: note_on channel=9 note=61 velocity=0 time=0.045871499999999996
EXTRACT: note_on channel=9 note=29 velocity=0 time=0
EXTRACT: note_on channel=9 note=41 velocity=0 time=0
EXTRACT: note_on channel=3 note=61 velocity=0 time=0.07798155
EXTRACT: note_on channel=3 note=55 velocity=0 time=0
EXTRACT: note_on channel=3 note=58 velocity=0 time=0
EXTRACT: note_on channel=3 note=63 velocity=0 time=0
EXTRACT: note_on channel=8 note=63 velocity=0 time=0.00458715
EXTRACT: note_on channel=4 note=55 velocity=0 time=0.00458715
EXTRACT: note_on channel=4 note=63 velocity=0 time=0
EXTRACT: note_on channel=6 note=32 velocity=0 time=0
EXTRACT: note_on channel=8 note=65 velocity=92 time=0
EXTRACT: note_on channel=9 note=61 velocity=44 time=0.00458715
EXTRACT: note_on channel=9 note=57 velocity=95 time=0
EXTRACT: note_on channel=9 note=36 velocity=98 time=0
EXTRACT: note_on channel=2 note=61 velocity=0 time=0.00458715
EXTRACT: note_on channel=2 note=55 velocity=0 time=0
EXTRACT: note_on channel=2 note=58 velocity=0 time=0
EXTRACT: note_on channel=2 note=63 velocity=0 time=0
EXTRACT: note_on channel=9 note=61 velocity=0 time=0.04128435
EXTRACT: note_on channel=9 note=57 velocity=0 time=0
EXTRACT: note_on channel=9 note=36 velocity=0 time=0
EXTRACT: note_on channel=9 note=39 velocity=72 time=0.2110089
EXTRACT: note_on channel=8 note=65 velocity=0 time=0.0091743
EXTRACT: note_on channel=8 note=65 velocity=92 time=0.00458715
EXTRACT: note_on channel=9 note=42 velocity=42 time=0.00458715
EXTRACT: note_on channel=9 note=39 velocity=0 time=0.0275229
EXTRACT: note_on channel=9 note=42 velocity=0 time=0.0183486
EXTRACT: note_on channel=9 note=61 velocity=44 time=0.09174299999999999
EXTRACT: note_on channel=9 note=36 velocity=98 time=0
EXTRACT: note_on channel=9 note=61 velocity=0 time=0.045871499999999996
EXTRACT: note_on channel=9 note=36 velocity=0 time=0
EXTRACT: note_on channel=8 note=65 velocity=0 time=0.0825687
EXTRACT: note_on channel=8 note=65 velocity=94 time=0.00458715
EXTRACT: note_on channel=9 note=38 velocity=127 time=0.00458715
EXTRACT: note_on channel=9 note=42 velocity=42 time=0
EXTRACT: note_on channel=9 note=38 velocity=0 time=0.045871499999999996
EXTRACT: note_on channel=9 note=42 velocity=0 time=0
EXTRACT: note_on channel=9 note=39 velocity=59 time=0.0733944
EXTRACT: note_on channel=9 note=39 velocity=0 time=0.045871499999999996
EXTRACT: note_on channel=8 note=65 velocity=0 time=0.1009173
EXTRACT: note_on channel=8 note=65 velocity=114 time=0.00458715
EXTRACT: note_on channel=9 note=69 velocity=74 time=0.00458715
EXTRACT: note_on channel=9 note=42 velocity=42 time=0
EXTRACT: note_on channel=9 note=69 velocity=0 time=0.045871499999999996
EXTRACT: note_on channel=9 note=42 velocity=0 time=0
EXTRACT: note_on channel=9 note=69 velocity=78 time=0.09174299999999999
EXTRACT: note_on channel=9 note=69 velocity=0 time=0.045871499999999996
EXTRACT: note_on channel=9 note=39 velocity=55 time=0.0733944
EXTRACT: note_on channel=8 note=65 velocity=0 time=0.0091743
EXTRACT: note_on channel=8 note=67 velocity=93 time=0.00458715
EXTRACT: note_on channel=9 note=69 velocity=78 time=0.00458715
EXTRACT: note_on channel=9 note=42 velocity=42 time=0
EXTRACT: note_on channel=9 note=39 velocity=0 time=0.0275229
EXTRACT: note_on channel=9 note=69 velocity=0 time=0.0183486
EXTRACT: note_on channel=9 note=42 velocity=0 time=0
EXTRACT: note_on channel=9 note=42 velocity=42 time=0.2293575
EXTRACT: note_on channel=9 note=36 velocity=98 time=0
EXTRACT: note_on channel=9 note=42 velocity=0 time=0.045871499999999996
EXTRACT: note_on channel=9 note=36 velocity=0 time=0
EXTRACT: note_on channel=9 note=39 velocity=70 time=0.0733944
EXTRACT: note_on channel=9 note=39 velocity=0 time=0.045871499999999996
EXTRACT: note_on channel=8 note=67 velocity=0 time=0.1009173
EXTRACT: note_on channel=8 note=58 velocity=112 time=0.00458715
EXTRACT: note_on channel=9 note=38 velocity=127 time=0.00458715
EXTRACT: note_on channel=9 note=42 velocity=42 time=0
EXTRACT: note_on channel=9 note=38 velocity=0 time=0.045871499999999996
EXTRACT: note_on channel=9 note=42 velocity=0 time=0
EXTRACT: note_on channel=8 note=58 velocity=0 time=0.2201832
EXTRACT: note_on channel=8 note=58 velocity=103 time=0.00458715
EXTRACT: note_on channel=9 note=69 velocity=75 time=0.00458715
EXTRACT: note_on channel=9 note=61 velocity=44 time=0
EXTRACT: note_on channel=9 note=42 velocity=42 time=0
EXTRACT: note_on channel=9 note=69 velocity=0 time=0.045871499999999996
EXTRACT: note_on channel=9 note=61 velocity=0 time=0
EXTRACT: note_on channel=9 note=42 velocity=0 time=0
EXTRACT: note_on channel=9 note=61 velocity=44 time=0.09174299999999999
EXTRACT: note_on channel=9 note=61 velocity=0 time=0.045871499999999996
EXTRACT: note_on channel=8 note=58 velocity=0 time=0.0825687
EXTRACT: note_on channel=8 note=65 velocity=89 time=0.00458715
EXTRACT: note_on channel=9 note=61 velocity=44 time=0.00458715
EXTRACT: note_on channel=9 note=42 velocity=42 time=0
EXTRACT: note_on channel=9 note=36 velocity=98 time=0
EXTRACT: note_on channel=9 note=61 velocity=0 time=0.045871499999999996
EXTRACT: note_on channel=9 note=42 velocity=0 time=0
EXTRACT: note_on channel=9 note=36 velocity=0 time=0
EXTRACT: note_on channel=9 note=61 velocity=44 time=0.09174299999999999
EXTRACT: note_on channel=9 note=61 velocity=0 time=0.045871499999999996
EXTRACT: note_on channel=9 note=39 velocity=56 time=0.0733944
EXTRACT: note_on channel=8 note=65 velocity=0 time=0.0091743
EXTRACT: note_on channel=8 note=65 velocity=103 time=0.00458715
EXTRACT: note_on channel=9 note=61 velocity=44 time=0.00458715
EXTRACT: note_on channel=9 note=42 velocity=42 time=0
EXTRACT: note_on channel=9 note=39 velocity=0 time=0.0275229
EXTRACT: note_on channel=9 note=61 velocity=0 time=0.0183486
EXTRACT: note_on channel=9 note=42 velocity=0 time=0
EXTRACT: note_on channel=9 note=36 velocity=98 time=0.09174299999999999
EXTRACT: note_on channel=9 note=36 velocity=0 time=0.045871499999999996
EXTRACT: note_on channel=8 note=65 velocity=0 time=0.0825687
EXTRACT: note_on channel=8 note=65 velocity=102 time=0.00458715
EXTRACT: note_on channel=9 note=38 velocity=127 time=0.00458715
EXTRACT: note_on channel=9 note=42 velocity=42 time=0
EXTRACT: note_on channel=9 note=38 velocity=0 time=0.045871499999999996
EXTRACT: note_on channel=9 note=42 velocity=0 time=0
EXTRACT: note_on channel=9 note=39 velocity=61 time=0.0733944
EXTRACT: note_on channel=9 note=39 velocity=0 time=0.045871499999999996
EXTRACT: note_on channel=8 note=65 velocity=0 time=0.1009173
EXTRACT: note_on channel=8 note=65 velocity=104 time=0.00458715
EXTRACT: note_on channel=9 note=69 velocity=75 time=0.00458715
EXTRACT: note_on channel=9 note=42 velocity=42 time=0
EXTRACT: note_on channel=9 note=69 velocity=0 time=0.045871499999999996
EXTRACT: note_on channel=9 note=42 velocity=0 time=0
EXTRACT: note_on channel=9 note=69 velocity=75 time=0.09174299999999999
EXTRACT: note_on channel=9 note=69 velocity=0 time=0.045871499999999996
EXTRACT: note_on channel=9 note=39 velocity=65 time=0.0733944
EXTRACT: note_on channel=8 note=65 velocity=0 time=0.0091743
EXTRACT: note_on channel=8 note=67 velocity=99 time=0.00458715
EXTRACT: note_on channel=9 note=69 velocity=74 time=0.00458715
EXTRACT: note_on channel=9 note=42 velocity=42 time=0
EXTRACT: note_on channel=9 note=39 velocity=0 time=0.0275229
EXTRACT: note_on channel=9 note=69 velocity=0 time=0.0183486
EXTRACT: note_on channel=9 note=42 velocity=0 time=0
EXTRACT: note_on channel=9 note=42 velocity=42 time=0.2293575
EXTRACT: note_on channel=9 note=36 velocity=98 time=0
EXTRACT: note_on channel=9 note=42 velocity=0 time=0.045871499999999996
EXTRACT: note_on channel=9 note=36 velocity=0 time=0
EXTRACT: note_on channel=9 note=39 velocity=52 time=0.0733944
EXTRACT: note_on channel=9 note=39 velocity=0 time=0.045871499999999996
EXTRACT: note_on channel=8 note=67 velocity=0 time=0.1009173
EXTRACT: note_on channel=8 note=68 velocity=107 time=0.00458715
EXTRACT: note_on channel=9 note=38 velocity=127 time=0.00458715
EXTRACT: note_on channel=9 note=42 velocity=42 time=0
EXTRACT: note_on channel=9 note=38 velocity=0 time=0.045871499999999996
EXTRACT: note_on channel=9 note=42 velocity=0 time=0
EXTRACT: note_on channel=8 note=68 velocity=0 time=0.2201832
EXTRACT: note_on channel=8 note=67 velocity=100 time=0.00458715
EXTRACT: note_on channel=9 note=61 velocity=44 time=0.00458715
EXTRACT: note_on channel=9 note=36 velocity=92 time=0
EXTRACT: note_on channel=9 note=42 velocity=42 time=0
EXTRACT: note_on channel=9 note=61 velocity=0 time=0.045871499999999996
EXTRACT: note_on channel=9 note=36 velocity=0 time=0
EXTRACT: note_on channel=9 note=42 velocity=0 time=0
EXTRACT: note_on channel=9 note=61 velocity=44 time=0.09174299999999999
EXTRACT: note_on channel=9 note=36 velocity=92 time=0
EXTRACT: note_on channel=9 note=61 velocity=0 time=0.045871499999999996
EXTRACT: note_on channel=9 note=36 velocity=0 time=0
EXTRACT: note_on channel=9 note=61 velocity=44 time=0.09174299999999999
EXTRACT: note_on channel=9 note=42 velocity=42 time=0
EXTRACT: note_on channel=9 note=36 velocity=98 time=0
EXTRACT: note_on channel=9 note=61 velocity=0 time=0.045871499999999996
EXTRACT: note_on channel=9 note=42 velocity=0 time=0
EXTRACT: note_on channel=9 note=36 velocity=0 time=0
EXTRACT: note_on channel=9 note=39 velocity=67 time=0.2110089
EXTRACT: note_on channel=9 note=42 velocity=42 time=0.0183486
EXTRACT: note_on channel=9 note=39 velocity=0 time=0.0275229
EXTRACT: note_on channel=9 note=42 velocity=0 time=0.0183486
EXTRACT: note_on channel=9 note=61 velocity=44 time=0.09174299999999999
EXTRACT: note_on channel=9 note=36 velocity=98 time=0
EXTRACT: note_on channel=9 note=61 velocity=0 time=0.045871499999999996
EXTRACT: note_on channel=9 note=36 velocity=0 time=0
EXTRACT: note_on channel=9 note=38 velocity=127 time=0.09174299999999999
EXTRACT: note_on channel=9 note=42 velocity=42 time=0
EXTRACT: note_on channel=9 note=38 velocity=0 time=0.045871499999999996
EXTRACT: note_on channel=9 note=42 velocity=0 time=0
EXTRACT: note_on channel=9 note=39 velocity=58 time=0.0733944
EXTRACT: note_on channel=9 note=39 velocity=0 time=0.045871499999999996
EXTRACT: note_on channel=8 note=67 velocity=0 time=0.10550445
EXTRACT: note_on channel=9 note=69 velocity=82 time=0.00458715
EXTRACT: note_on channel=9 note=42 velocity=42 time=0
EXTRACT: note_on channel=9 note=69 velocity=0 time=0.045871499999999996
EXTRACT: note_on channel=9 note=42 velocity=0 time=0
EXTRACT: note_on channel=9 note=69 velocity=79 time=0.09174299999999999
EXTRACT: note_on channel=9 note=69 velocity=0 time=0.045871499999999996
EXTRACT: note_on channel=9 note=39 velocity=59 time=0.0733944
EXTRACT: note_on channel=9 note=69 velocity=78 time=0.0183486
EXTRACT: note_on channel=9 note=42 velocity=42 time=0
EXTRACT: note_on channel=9 note=39 velocity=0 time=0.0275229
EXTRACT: note_on channel=9 note=69 velocity=0 time=0.0183486
EXTRACT: note_on channel=9 note=42 velocity=0 time=0
EXTRACT: note_on channel=9 note=42 velocity=42 time=0.2293575
EXTRACT: note_on channel=9 note=36 velocity=98 time=0
EXTRACT: note_on channel=9 note=42 velocity=0 time=0.045871499999999996
EXTRACT: note_on channel=9 note=36 velocity=0 time=0
EXTRACT: note_on channel=9 note=39 velocity=70 time=0.0733944
EXTRACT: note_on channel=9 note=39 velocity=0 time=0.045871499999999996
EXTRACT: note_on channel=9 note=38 velocity=127 time=0.1100916
EXTRACT: note_on channel=9 note=42 velocity=42 time=0
EXTRACT: note_on channel=9 note=38 velocity=0 time=0.045871499999999996
EXTRACT: note_on channel=9 note=42 velocity=0 time=0
EXTRACT: note_on channel=9 note=69 velocity=80 time=0.2293575
EXTRACT: note_on channel=9 note=61 velocity=44 time=0
EXTRACT: note_on channel=9 note=42 velocity=42 time=0
EXTRACT: note_on channel=9 note=69 velocity=0 time=0.045871499999999996
EXTRACT: note_on channel=9 note=61 velocity=0 time=0
EXTRACT: note_on channel=9 note=42 velocity=0 time=0
EXTRACT: note_on channel=9 note=61 velocity=44 time=0.09174299999999999
EXTRACT: note_on channel=9 note=61 velocity=0 time=0.045871499999999996
EXTRACT: note_on channel=9 note=39 velocity=53 time=0.0733944
EXTRACT: note_on channel=9 note=61 velocity=44 time=0.0183486
EXTRACT: note_on channel=9 note=42 velocity=42 time=0
EXTRACT: note_on channel=9 note=36 velocity=98 time=0
EXTRACT: note_on channel=9 note=39 velocity=0 time=0.0275229
EXTRACT: note_on channel=9 note=61 velocity=0 time=0.0183486
EXTRACT: note_on channel=9 note=42 velocity=0 time=0
EXTRACT: note_on channel=9 note=36 velocity=0 time=0
EXTRACT: note_on channel=9 note=39 velocity=54 time=0.0733944
EXTRACT: note_on channel=9 note=61 velocity=44 time=0.0183486
EXTRACT: note_on channel=9 note=39 velocity=0 time=0.0275229
EXTRACT: note_on channel=9 note=61 velocity=0 time=0.0183486
EXTRACT: note_on channel=9 note=61 velocity=44 time=0.09174299999999999
EXTRACT: note_on channel=9 note=42 velocity=42 time=0
EXTRACT: note_on channel=9 note=61 velocity=0 time=0.045871499999999996
EXTRACT: note_on channel=9 note=42 velocity=0 time=0
EXTRACT: note_on channel=9 note=36 velocity=98 time=0.09174299999999999
EXTRACT: note_on channel=9 note=36 velocity=0 time=0.045871499999999996
EXTRACT: note_on channel=9 note=39 velocity=51 time=0.0733944
EXTRACT: note_on channel=9 note=38 velocity=127 time=0.0183486
EXTRACT: note_on channel=9 note=42 velocity=42 time=0
EXTRACT: note_on channel=9 note=39 velocity=0 time=0.0275229
EXTRACT: note_on channel=9 note=38 velocity=0 time=0.0183486
EXTRACT: note_on channel=9 note=42 velocity=0 time=0
EXTRACT: note_on channel=9 note=39 velocity=56 time=0.0733944
EXTRACT: note_on channel=9 note=39 velocity=0 time=0.045871499999999996
EXTRACT: note_on channel=9 note=69 velocity=78 time=0.1100916
EXTRACT: note_on channel=9 note=42 velocity=42 time=0
EXTRACT: note_on channel=9 note=69 velocity=0 time=0.045871499999999996
EXTRACT: note_on channel=9 note=42 velocity=0 time=0
EXTRACT: note_on channel=9 note=69 velocity=76 time=0.09174299999999999
EXTRACT: note_on channel=9 note=69 velocity=0 time=0.045871499999999996
EXTRACT: note_on channel=9 note=39 velocity=64 time=0.0733944
EXTRACT: note_on channel=6 note=32 velocity=100 time=0.01376145
EXTRACT: note_on channel=9 note=29 velocity=45 time=0.00458715
EXTRACT: note_on channel=9 note=36 velocity=92 time=0
EXTRACT: note_on channel=9 note=39 velocity=0 time=0.0275229
EXTRACT: note_on channel=9 note=29 velocity=0 time=0.0183486
EXTRACT: note_on channel=9 note=36 velocity=0 time=0
EXTRACT: note_on channel=9 note=39 velocity=69 time=0.0733944
EXTRACT: note_on channel=6 note=32 velocity=0 time=0.0126146625
EXTRACT: note_on channel=6 note=32 velocity=97 time=0.0011467875
EXTRACT: note_on channel=9 note=29 velocity=31 time=0.00458715
EXTRACT: note_on channel=9 note=41 velocity=70 time=0
EXTRACT: note_on channel=9 note=39 velocity=0 time=0.0275229
EXTRACT: note_on channel=9 note=29 velocity=0 time=0.0183486
EXTRACT: note_on channel=9 note=41 velocity=0 time=0
EXTRACT: note_on channel=6 note=32 velocity=0 time=0.0860090625
EXTRACT: note_on channel=6 note=32 velocity=95 time=0.0011467875
EXTRACT: note_on channel=9 note=29 velocity=45 time=0.00458715
EXTRACT: note_on channel=9 note=36 velocity=92 time=0
EXTRACT: note_on channel=9 note=29 velocity=0 time=0.045871499999999996
EXTRACT: note_on channel=9 note=36 velocity=0 time=0
EXTRACT: note_on channel=6 note=32 velocity=0 time=0.0860090625
EXTRACT: note_on channel=6 note=32 velocity=74 time=0.0011467875
EXTRACT: note_on channel=9 note=29 velocity=31 time=0.00458715
EXTRACT: note_on channel=9 note=41 velocity=70 time=0
EXTRACT: note_on channel=9 note=29 velocity=0 time=0.045871499999999996
EXTRACT: note_on channel=9 note=41 velocity=0 time=0
EXTRACT: note_on channel=9 note=39 velocity=73 time=0.0733944
EXTRACT: note_on channel=6 note=32 velocity=0 time=0.0126146625
EXTRACT: note_on channel=6 note=32 velocity=105 time=0.0011467875
EXTRACT: note_on channel=9 note=29 velocity=45 time=0.00458715
EXTRACT: note_on channel=9 note=38 velocity=127 time=0
EXTRACT: note_on channel=9 note=36 velocity=92 time=0
EXTRACT: note_on channel=9 note=39 velocity=0 time=0.0275229
EXTRACT: note_on channel=9 note=29 velocity=0 time=0.0183486
EXTRACT: note_on channel=9 note=38 velocity=0 time=0
EXTRACT: note_on channel=9 note=36 velocity=0 time=0
EXTRACT: note_on channel=9 note=39 velocity=43 time=0.0733944
EXTRACT: note_on channel=6 note=32 velocity=0 time=0.0126146625
EXTRACT: note_on channel=6 note=32 velocity=80 time=0.0011467875
EXTRACT: note_on channel=9 note=29 velocity=31 time=0.00458715
EXTRACT: note_on channel=9 note=41 velocity=70 time=0
EXTRACT: note_on channel=9 note=39 velocity=0 time=0.0275229
EXTRACT: note_on channel=9 note=29 velocity=0 time=0.0183486
EXTRACT: note_on channel=9 note=41 velocity=0 time=0
EXTRACT: note_on channel=9 note=39 velocity=73 time=0.0733944
EXTRACT: note_on channel=6 note=32 velocity=0 time=0.0126146625
EXTRACT: note_on channel=6 note=32 velocity=88 time=0.0011467875
EXTRACT: note_on channel=9 note=61 velocity=44 time=0.00458715
EXTRACT: note_on channel=9 note=29 velocity=45 time=0
EXTRACT: note_on channel=9 note=36 velocity=92 time=0
EXTRACT: note_on channel=9 note=39 velocity=0 time=0.0275229
EXTRACT: note_on channel=9 note=61 velocity=0 time=0.0183486
EXTRACT: note_on channel=9 note=29 velocity=0 time=0
EXTRACT: note_on channel=9 note=36 velocity=0 time=0
EXTRACT: note_on channel=9 note=39 velocity=41 time=0.0733944
EXTRACT: note_on channel=6 note=32 velocity=0 time=0.0126146625
EXTRACT: note_on channel=6 note=32 velocity=68 time=0.0011467875
EXTRACT: note_on channel=9 note=61 velocity=44 time=0.00458715
EXTRACT: note_on channel=9 note=29 velocity=31 time=0
EXTRACT: note_on channel=9 note=41 velocity=70 time=0
EXTRACT: note_on channel=9 note=39 velocity=0 time=0.0275229
EXTRACT: note_on channel=9 note=61 velocity=0 time=0.0183486
EXTRACT: note_on channel=9 note=29 velocity=0 time=0
EXTRACT: note_on channel=9 note=41 velocity=0 time=0
EXTRACT: note_on channel=6 note=32 velocity=0 time=0.08715584999999999
EXTRACT: note_on channel=8 note=65 velocity=115 time=0
EXTRACT: note_on channel=9 note=61 velocity=44 time=0.00458715
EXTRACT: note_on channel=9 note=42 velocity=42 time=0
EXTRACT: note_on channel=9 note=36 velocity=98 time=0
EXTRACT: note_on channel=9 note=61 velocity=0 time=0.045871499999999996
EXTRACT: note_on channel=9 note=42 velocity=0 time=0
EXTRACT: note_on channel=9 note=36 velocity=0 time=0
EXTRACT: note_on channel=9 note=39 velocity=61 time=0.2110089
EXTRACT: note_on channel=8 note=65 velocity=0 time=0.0091743
EXTRACT: note_on channel=8 note=65 velocity=108 time=0.00458715
EXTRACT: note_on channel=9 note=42 velocity=42 time=0.00458715
EXTRACT: note_on channel=9 note=39 velocity=0 time=0.0275229
EXTRACT: note_on channel=9 note=42 velocity=0 time=0.0183486
EXTRACT: note_on channel=9 note=61 velocity=44 time=0.09174299999999999
EXTRACT: note_on channel=9 note=36 velocity=98 time=0
EXTRACT: note_on channel=9 note=61 velocity=0 time=0.045871499999999996
EXTRACT: note_on channel=9 note=36 velocity=0 time=0
EXTRACT: note_on channel=8 note=65 velocity=0 time=0.0825687
EXTRACT: note_on channel=8 note=65 velocity=93 time=0.00458715
EXTRACT: note_on channel=9 note=38 velocity=127 time=0.00458715
EXTRACT: note_on channel=9 note=42 velocity=42 time=0
EXTRACT: note_on channel=9 note=38 velocity=0 time=0.045871499999999996
EXTRACT: note_on channel=9 note=42 velocity=0 time=0
EXTRACT: note_on channel=9 note=39 velocity=51 time=0.0733944
EXTRACT: note_on channel=9 note=39 velocity=0 time=0.045871499999999996
EXTRACT: note_on channel=8 note=65 velocity=0 time=0.1009173
EXTRACT: note_on channel=8 note=65 velocity=103 time=0.00458715
EXTRACT: note_on channel=9 note=69 velocity=75 time=0.00458715
EXTRACT: note_on channel=9 note=42 velocity=42 time=0
EXTRACT: note_on channel=9 note=69 velocity=0 time=0.045871499999999996
EXTRACT: note_on channel=9 note=42 velocity=0 time=0
EXTRACT: note_on channel=9 note=69 velocity=79 time=0.09174299999999999
EXTRACT: note_on channel=9 note=69 velocity=0 time=0.045871499999999996
EXTRACT: note_on channel=9 note=39 velocity=53 time=0.0733944
EXTRACT: note_on channel=8 note=65 velocity=0 time=0.0091743
EXTRACT: note_on channel=8 note=67 velocity=102 time=0.00458715
EXTRACT: note_on channel=9 note=69 velocity=76 time=0.00458715
EXTRACT: note_on channel=9 note=42 velocity=42 time=0
EXTRACT: note_on channel=9 note=39 velocity=0 time=0.0275229
EXTRACT: note_on channel=9 note=69 velocity=0 time=0.0183486
EXTRACT: note_on channel=9 note=42 velocity=0 time=0
EXTRACT: note_on channel=9 note=42 velocity=42 time=0.2293575
EXTRACT: note_on channel=9 note=36 velocity=98 time=0
EXTRACT: note_on channel=9 note=42 velocity=0 time=0.045871499999999996
EXTRACT: note_on channel=9 note=36 velocity=0 time=0
EXTRACT: note_on channel=9 note=39 velocity=65 time=0.0733944
EXTRACT: note_on channel=9 note=39 velocity=0 time=0.045871499999999996
EXTRACT: note_on channel=8 note=67 velocity=0 time=0.1009173
EXTRACT: note_on channel=8 note=58 velocity=100 time=0.00458715
EXTRACT: note_on channel=9 note=38 velocity=127 time=0.00458715
EXTRACT: note_on channel=9 note=42 velocity=42 time=0
EXTRACT: note_on channel=9 note=38 velocity=0 time=0.045871499999999996
EXTRACT: note_on channel=9 note=42 velocity=0 time=0
EXTRACT: note_on channel=8 note=58 velocity=0 time=0.2201832
EXTRACT: note_on channel=8 note=58 velocity=100 time=0.00458715
EXTRACT: note_on channel=9 note=69 velocity=82 time=0.00458715
EXTRACT: note_on channel=9 note=61 velocity=44 time=0
EXTRACT: note_on channel=9 note=42 velocity=42 time=0
EXTRACT: note_on channel=9 note=69 velocity=0 time=0.045871499999999996
EXTRACT: note_on channel=9 note=61 velocity=0 time=0
EXTRACT: note_on channel=9 note=42 velocity=0 time=0
EXTRACT: note_on channel=9 note=61 velocity=44 time=0.09174299999999999
EXTRACT: note_on channel=9 note=61 velocity=0 time=0.045871499999999996
EXTRACT: note_on channel=8 note=58 velocity=0 time=0.0825687
EXTRACT: note_on channel=8 note=65 velocity=108 time=0.00458715
EXTRACT: note_on channel=9 note=61 velocity=44 time=0.00458715
EXTRACT: note_on channel=9 note=42 velocity=42 time=0
EXTRACT: note_on channel=9 note=36 velocity=98 time=0
EXTRACT: note_on channel=9 note=61 velocity=0 time=0.045871499999999996
EXTRACT: note_on channel=9 note=42 velocity=0 time=0
EXTRACT: note_on channel=9 note=36 velocity=0 time=0
EXTRACT: note_on channel=9 note=61 velocity=44 time=0.09174299999999999
EXTRACT: note_on channel=9 note=61 velocity=0 time=0.045871499999999996
EXTRACT: note_on channel=9 note=39 velocity=58 time=0.0733944
EXTRACT: note_on channel=8 note=65 velocity=0 time=0.0091743
EXTRACT: note_on channel=8 note=65 velocity=113 time=0.00458715
EXTRACT: note_on channel=9 note=61 velocity=44 time=0.00458715
EXTRACT: note_on channel=9 note=42 velocity=42 time=0
EXTRACT: note_on channel=9 note=39 velocity=0 time=0.0275229
EXTRACT: note_on channel=9 note=61 velocity=0 time=0.0183486
EXTRACT: note_on channel=9 note=42 velocity=0 time=0
EXTRACT: note_on channel=9 note=36 velocity=98 time=0.09174299999999999
EXTRACT: note_on channel=9 note=36 velocity=0 time=0.045871499999999996
EXTRACT: note_on channel=8 note=65 velocity=0 time=0.0825687
EXTRACT: note_on channel=8 note=65 velocity=107 time=0.00458715
EXTRACT: note_on channel=9 note=38 velocity=127 time=0.00458715
EXTRACT: note_on channel=9 note=42 velocity=42 time=0
EXTRACT: note_on channel=9 note=38 velocity=0 time=0.045871499999999996
EXTRACT: note_on channel=9 note=42 velocity=0 time=0
EXTRACT: note_on channel=9 note=39 velocity=71 time=0.0733944
EXTRACT: note_on channel=9 note=39 velocity=0 time=0.045871499999999996
EXTRACT: note_on channel=8 note=65 velocity=0 time=0.1009173
EXTRACT: note_on channel=8 note=65 velocity=111 time=0.00458715
EXTRACT: note_on channel=9 note=69 velocity=82 time=0.00458715
EXTRACT: note_on channel=9 note=42 velocity=42 time=0
EXTRACT: note_on channel=9 note=69 velocity=0 time=0.045871499999999996
EXTRACT: note_on channel=9 note=42 velocity=0 time=0
EXTRACT: note_on channel=9 note=69 velocity=75 time=0.09174299999999999
EXTRACT: note_on channel=9 note=69 velocity=0 time=0.045871499999999996
EXTRACT: note_on channel=9 note=39 velocity=70 time=0.0733944
EXTRACT: note_on channel=8 note=65 velocity=0 time=0.0091743
EXTRACT: note_on channel=8 note=67 velocity=91 time=0.00458715
EXTRACT: note_on channel=9 note=69 velocity=78 time=0.00458715
EXTRACT: note_on channel=9 note=42 velocity=42 time=0
EXTRACT: note_on channel=9 note=39 velocity=0 time=0.0275229
EXTRACT: note_on channel=9 note=69 velocity=0 time=0.0183486
EXTRACT: note_on channel=9 note=42 velocity=0 time=0
EXTRACT: note_on channel=9 note=42 velocity=42 time=0.2293575
EXTRACT: note_on channel=9 note=36 velocity=98 time=0
EXTRACT: note_on channel=9 note=42 velocity=0 time=0.045871499999999996
EXTRACT: note_on channel=9 note=36 velocity=0 time=0
EXTRACT: note_on channel=9 note=39 velocity=57 time=0.0733944
EXTRACT: note_on channel=9 note=39 velocity=0 time=0.045871499999999996
EXTRACT: note_on channel=8 note=67 velocity=0 time=0.1009173
EXTRACT: note_on channel=8 note=68 velocity=94 time=0.00458715
EXTRACT: note_on channel=9 note=38 velocity=127 time=0.00458715
EXTRACT: note_on channel=9 note=42 velocity=42 time=0
EXTRACT: note_on channel=9 note=38 velocity=0 time=0.045871499999999996
EXTRACT: note_on channel=9 note=42 velocity=0 time=0
EXTRACT: note_on channel=8 note=68 velocity=0 time=0.2201832
EXTRACT: note_on channel=8 note=67 velocity=111 time=0.00458715
EXTRACT: note_on channel=9 note=61 velocity=44 time=0.00458715
EXTRACT: note_on channel=9 note=36 velocity=92 time=0
EXTRACT: note_on channel=9 note=42 velocity=42 time=0
EXTRACT: note_on channel=9 note=61 velocity=0 time=0.045871499999999996
EXTRACT: note_on channel=9 note=36 velocity=0 time=0
EXTRACT: note_on channel=9 note=42 velocity=0 time=0
EXTRACT: note_on channel=9 note=61 velocity=44 time=0.09174299999999999
EXTRACT: note_on channel=9 note=36 velocity=92 time=0
EXTRACT: note_on channel=9 note=61 velocity=0 time=0.045871499999999996
EXTRACT: note_on channel=9 note=36 velocity=0 time=0
EXTRACT: note_on channel=8 note=67 velocity=0 time=0.91284285
EXTRACT: control_change channel=7 control=64 value=127 time=1.376145
EXTRACT: note_on channel=8 note=68 velocity=98 time=0
EXTRACT: note_on channel=8 note=68 velocity=0 time=0.54587085
EXTRACT: note_on channel=8 note=67 velocity=95 time=0.00458715
EXTRACT: note_on channel=9 note=29 velocity=51 time=0.27981615
EXTRACT: note_on channel=9 note=36 velocity=98 time=0
EXTRACT: note_on channel=9 note=29 velocity=0 time=0.045871499999999996
EXTRACT: note_on channel=9 note=36 velocity=0 time=0
EXTRACT: note_on channel=8 note=67 velocity=0 time=0.2201832
EXTRACT: note_on channel=8 note=65 velocity=116 time=0.00458715
EXTRACT: note_on channel=7 note=31 velocity=61 time=0.20642175
EXTRACT: note_on channel=7 note=33 velocity=58 time=0.0733944
EXTRACT: note_on channel=9 note=27 velocity=80 time=0
EXTRACT: note_on channel=9 note=29 velocity=51 time=0
EXTRACT: note_on channel=9 note=36 velocity=92 time=0
EXTRACT: note_on channel=7 note=31 velocity=0 time=0.022935749999999998
EXTRACT: note_on channel=9 note=27 velocity=0 time=0.022935749999999998
EXTRACT: note_on channel=9 note=29 velocity=0 time=0
EXTRACT: note_on channel=9 note=36 velocity=0 time=0
EXTRACT: note_on channel=7 note=35 velocity=74 time=0.03211005
EXTRACT: note_on channel=7 note=33 velocity=0 time=0.00458715
EXTRACT: note_on channel=7 note=36 velocity=79 time=0.05045865
EXTRACT: note_on channel=9 note=27 velocity=80 time=0.00458715
EXTRACT: note_on channel=9 note=41 velocity=80 time=0
EXTRACT: note_on channel=7 note=35 velocity=0 time=0.00458715
EXTRACT: note_on channel=7 note=36 velocity=0 time=0.0366972
EXTRACT: note_on channel=9 note=27 velocity=0 time=0.00458715
EXTRACT: note_on channel=9 note=41 velocity=0 time=0
EXTRACT: note_on channel=7 note=38 velocity=79 time=0.01376145
EXTRACT: note_on channel=7 note=38 velocity=0 time=0.04128435
EXTRACT: note_on channel=7 note=40 velocity=79 time=0.01376145
EXTRACT: note_on channel=8 note=65 velocity=0 time=0.01376145
EXTRACT: note_on channel=8 note=63 velocity=102 time=0.00458715
EXTRACT: note_on channel=8 note=67 velocity=102 time=0
EXTRACT: note_on channel=9 note=27 velocity=100 time=0.00458715
EXTRACT: note_on channel=9 note=36 velocity=92 time=0
EXTRACT: note_on channel=7 note=40 velocity=0 time=0.0275229
EXTRACT: note_on channel=7 note=41 velocity=79 time=0.0091743
EXTRACT: note_on channel=9 note=27 velocity=0 time=0.0091743
EXTRACT: note_on channel=9 note=36 velocity=0 time=0
EXTRACT: note_on channel=7 note=43 velocity=79 time=0.05045865
EXTRACT: note_on channel=7 note=41 velocity=0 time=0.00458715
EXTRACT: note_on channel=7 note=45 velocity=74 time=0.0550458
EXTRACT: note_on channel=7 note=43 velocity=0 time=0.0091743
EXTRACT: note_on channel=7 note=47 velocity=79 time=0.045871499999999996
EXTRACT: note_on channel=7 note=45 velocity=0 time=0.01376145
EXTRACT: note_on channel=7 note=48 velocity=58 time=0.045871499999999996
EXTRACT: note_on channel=7 note=47 velocity=0 time=0.00458715
EXTRACT: note_on channel=9 note=27 velocity=80 time=0
EXTRACT: note_on channel=9 note=36 velocity=92 time=0
EXTRACT: note_on channel=9 note=27 velocity=0 time=0.045871499999999996
EXTRACT: note_on channel=9 note=36 velocity=0 time=0
EXTRACT: note_on channel=7 note=50 velocity=58 time=0.0091743
EXTRACT: note_on channel=7 note=48 velocity=0 time=0.00458715
EXTRACT: note_on channel=7 note=52 velocity=58 time=0.0550458
EXTRACT: note_on channel=7 note=50 velocity=0 time=0.0091743
EXTRACT: note_on channel=9 note=36 velocity=92 time=0.01376145
EXTRACT: note_on channel=7 note=53 velocity=62 time=0.0366972
EXTRACT: note_on channel=7 note=52 velocity=0 time=0.0091743
EXTRACT: note_on channel=9 note=36 velocity=0 time=0
EXTRACT: note_on channel=7 note=55 velocity=62 time=0.0550458
EXTRACT: note_on channel=7 note=53 velocity=0 time=0.00458715
EXTRACT: note_on channel=3 note=44 velocity=44 time=0.0183486
EXTRACT: note_on channel=3 note=55 velocity=54 time=0
EXTRACT: note_on channel=3 note=63 velocity=53 time=0
EXTRACT: note_on channel=3 note=60 velocity=62 time=0
EXTRACT: note_on channel=8 note=63 velocity=0 time=0.00458715
EXTRACT: note_on channel=8 note=67 velocity=0 time=0
EXTRACT: note_on channel=0 note=32 velocity=102 time=0.00458715
EXTRACT: note_on channel=4 note=91 velocity=105 time=0
EXTRACT: note_on channel=4 note=79 velocity=105 time=0
EXTRACT: note_on channel=4 note=55 velocity=105 time=0
EXTRACT: note_on channel=4 note=63 velocity=110 time=0
EXTRACT: control_change channel=7 control=64 value=0 time=0
EXTRACT: note_on channel=8 note=67 velocity=102 time=0
EXTRACT: note_on channel=1 note=32 velocity=109 time=0.00458715
EXTRACT: note_on channel=9 note=61 velocity=44 time=0
EXTRACT: note_on channel=9 note=57 velocity=100 time=0
EXTRACT: note_on channel=9 note=36 velocity=98 time=0
EXTRACT: note_on channel=2 note=44 velocity=28 time=0.00458715
EXTRACT: note_on channel=2 note=55 velocity=82 time=0
EXTRACT: note_on channel=2 note=63 velocity=78 time=0
EXTRACT: note_on channel=2 note=60 velocity=60 time=0
EXTRACT: note_on channel=7 note=55 velocity=0 time=0.022935749999999998
EXTRACT: note_on channel=9 note=61 velocity=0 time=0.0183486
EXTRACT: note_on channel=9 note=57 velocity=0 time=0
EXTRACT: note_on channel=9 note=36 velocity=0 time=0
EXTRACT: note_on channel=9 note=39 velocity=65 time=0.2110089
EXTRACT: note_on channel=0 note=32 velocity=0 time=0.01376145
EXTRACT: note_on channel=1 note=32 velocity=0 time=0.00458715
EXTRACT: note_on channel=9 note=42 velocity=42 time=0
EXTRACT: note_on channel=9 note=39 velocity=0 time=0.0275229
EXTRACT: note_on channel=9 note=42 velocity=0 time=0.0183486
EXTRACT: note_on channel=0 note=32 velocity=94 time=0.08715584999999999
EXTRACT: note_on channel=1 note=32 velocity=108 time=0.00458715
EXTRACT: note_on channel=9 note=61 velocity=44 time=0
EXTRACT: note_on channel=9 note=36 velocity=98 time=0
EXTRACT: note_on channel=9 note=61 velocity=0 time=0.045871499999999996
EXTRACT: note_on channel=9 note=36 velocity=0 time=0
EXTRACT: note_on channel=0 note=32 velocity=0 time=0.08715584999999999
EXTRACT: note_on channel=1 note=32 velocity=0 time=0.00458715
EXTRACT: note_on channel=9 note=38 velocity=127 time=0
EXTRACT: note_on channel=9 note=42 velocity=42 time=0
EXTRACT: note_on channel=9 note=38 velocity=0 time=0.045871499999999996
EXTRACT: note_on channel=9 note=42 velocity=0 time=0
EXTRACT: note_on channel=9 note=39 velocity=57 time=0.0733944
EXTRACT: note_on channel=9 note=39 velocity=0 time=0.045871499999999996
EXTRACT: note_on channel=8 note=67 velocity=0 time=0.1009173
EXTRACT: note_on channel=8 note=67 velocity=101 time=0.00458715
EXTRACT: note_on channel=9 note=69 velocity=78 time=0.00458715
EXTRACT: note_on channel=9 note=42 velocity=42 time=0
EXTRACT: note_on channel=9 note=69 velocity=0 time=0.045871499999999996
EXTRACT: note_on channel=9 note=42 velocity=0 time=0
EXTRACT: note_on channel=9 note=69 velocity=78 time=0.09174299999999999
EXTRACT: note_on channel=9 note=69 velocity=0 time=0.045871499999999996
EXTRACT: note_on channel=9 note=39 velocity=61 time=0.0733944
EXTRACT: note_on channel=8 note=67 velocity=0 time=0.0091743
EXTRACT: note_on channel=8 note=65 velocity=90 time=0.00458715
EXTRACT: note_on channel=9 note=69 velocity=77 time=0.00458715
EXTRACT: note_on channel=9 note=42 velocity=42 time=0
EXTRACT: note_on channel=9 note=39 velocity=0 time=0.0275229
EXTRACT: note_on channel=9 note=69 velocity=0 time=0.0183486
EXTRACT: note_on channel=9 note=42 velocity=0 time=0
EXTRACT: note_on channel=8 note=65 velocity=0 time=0.2201832
EXTRACT: note_on channel=8 note=63 velocity=90 time=0.00458715
EXTRACT: note_on channel=9 note=42 velocity=42 time=0.00458715
EXTRACT: note_on channel=9 note=36 velocity=98 time=0
EXTRACT: note_on channel=9 note=42 velocity=0 time=0.045871499999999996
EXTRACT: note_on channel=9 note=36 velocity=0 time=0
EXTRACT: note_on channel=9 note=39 velocity=70 time=0.0733944
EXTRACT: note_on channel=9 note=39 velocity=0 time=0.045871499999999996
EXTRACT: note_on channel=8 note=63 velocity=0 time=0.1009173
EXTRACT: note_on channel=8 note=63 velocity=114 time=0.00458715
EXTRACT: note_on channel=9 note=38 velocity=127 time=0.00458715
EXTRACT: note_on channel=9 note=42 velocity=42 time=0
EXTRACT: note_on channel=9 note=38 velocity=0 time=0.045871499999999996
EXTRACT: note_on channel=9 note=42 velocity=0 time=0
EXTRACT: note_on channel=9 note=69 velocity=80 time=0.2293575
EXTRACT: note_on channel=9 note=61 velocity=44 time=0
EXTRACT: note_on channel=9 note=42 velocity=42 time=0
EXTRACT: note_on channel=9 note=69 velocity=0 time=0.045871499999999996
EXTRACT: note_on channel=9 note=61 velocity=0 time=0
EXTRACT: note_on channel=9 note=42 velocity=0 time=0
EXTRACT: note_on channel=9 note=61 velocity=44 time=0.09174299999999999
EXTRACT: note_on channel=9 note=61 velocity=0 time=0.045871499999999996
EXTRACT: note_on channel=3 note=44 velocity=0 time=0.07798155
EXTRACT: note_on channel=3 note=55 velocity=0 time=0
EXTRACT: note_on channel=3 note=63 velocity=0 time=0
EXTRACT: note_on channel=3 note=60 velocity=0 time=0
EXTRACT: note_on channel=3 note=55 velocity=81 time=0
EXTRACT: note_on channel=3 note=63 velocity=62 time=0
EXTRACT: note_on channel=3 note=59 velocity=82 time=0
EXTRACT: note_on channel=8 note=63 velocity=0 time=0.00458715
EXTRACT: note_on channel=0 note=31 velocity=88 time=0.00458715
EXTRACT: note_on channel=8 note=67 velocity=101 time=0
EXTRACT: note_on channel=1 note=31 velocity=93 time=0.00458715
EXTRACT: note_on channel=9 note=61 velocity=44 time=0
EXTRACT: note_on channel=9 note=42 velocity=42 time=0
EXTRACT: note_on channel=9 note=36 velocity=98 time=0
EXTRACT: note_on channel=2 note=44 velocity=0 time=0.00458715
EXTRACT: note_on channel=2 note=55 velocity=0 time=0
EXTRACT: note_on channel=2 note=63 velocity=0 time=0
EXTRACT: note_on channel=2 note=60 velocity=0 time=0
EXTRACT: note_on channel=2 note=55 velocity=91 time=0
EXTRACT: note_on channel=2 note=63 velocity=70 time=0
EXTRACT: note_on channel=2 note=59 velocity=80 time=0
EXTRACT: note_on channel=9 note=61 velocity=0 time=0.04128435
EXTRACT: note_on channel=9 note=42 velocity=0 time=0
EXTRACT: note_on channel=9 note=36 velocity=0 time=0
EXTRACT: note_on channel=9 note=61 velocity=44 time=0.09174299999999999
EXTRACT: note_on channel=9 note=61 velocity=0 time=0.045871499999999996
EXTRACT: note_on channel=9 note=39 velocity=68 time=0.0733944
EXTRACT: note_on channel=0 note=31 velocity=0 time=0.01376145
EXTRACT: note_on channel=9 note=64 velocity=50 time=0
EXTRACT: note_on channel=1 note=31 velocity=0 time=0.00458715
EXTRACT: note_on channel=9 note=61 velocity=44 time=0
EXTRACT: note_on channel=9 note=42 velocity=42 time=0
EXTRACT: note_on channel=9 note=39 velocity=0 time=0.0275229
EXTRACT: note_on channel=9 note=64 velocity=0 time=0.01376145
EXTRACT: note_on channel=9 note=61 velocity=0 time=0.00458715
EXTRACT: note_on channel=9 note=42 velocity=0 time=0
EXTRACT: note_on channel=0 note=31 velocity=105 time=0.08715584999999999
EXTRACT: note_on channel=9 note=63 velocity=50 time=0
EXTRACT: note_on channel=1 note=31 velocity=95 time=0.00458715
EXTRACT: note_on channel=9 note=36 velocity=98 time=0
EXTRACT: note_on channel=9 note=63 velocity=0 time=0.04128435
EXTRACT: note_on channel=9 note=36 velocity=0 time=0.00458715
EXTRACT: note_on channel=0 note=31 velocity=0 time=0.08715584999999999
EXTRACT: note_on channel=9 note=64 velocity=50 time=0
EXTRACT: note_on channel=1 note=31 velocity=0 time=0.00458715
EXTRACT: note_on channel=9 note=38 velocity=127 time=0
EXTRACT: note_on channel=9 note=42 velocity=42 time=0
EXTRACT: note_on channel=9 note=64 velocity=0 time=0.04128435
EXTRACT: note_on channel=9 note=38 velocity=0 time=0.00458715
EXTRACT: note_on channel=9 note=42 velocity=0 time=0
EXTRACT: note_on channel=9 note=39 velocity=56 time=0.0733944
EXTRACT: note_on channel=9 note=64 velocity=50 time=0.01376145
EXTRACT: note_on channel=9 note=39 velocity=0 time=0.03211005
EXTRACT: note_on channel=9 note=64 velocity=0 time=0.01376145
EXTRACT: note_on channel=8 note=67 velocity=0 time=0.08715584999999999
EXTRACT: note_on channel=8 note=67 velocity=109 time=0.00458715
EXTRACT: note_on channel=9 note=63 velocity=50 time=0
EXTRACT: note_on channel=9 note=69 velocity=82 time=0.00458715
EXTRACT: note_on channel=9 note=42 velocity=42 time=0
EXTRACT: note_on channel=9 note=63 velocity=0 time=0.04128435
EXTRACT: note_on channel=9 note=69 velocity=0 time=0.00458715
EXTRACT: note_on channel=9 note=42 velocity=0 time=0
EXTRACT: note_on channel=9 note=69 velocity=76 time=0.09174299999999999
EXTRACT: note_on channel=9 note=69 velocity=0 time=0.045871499999999996
EXTRACT: note_on channel=9 note=39 velocity=52 time=0.0733944
EXTRACT: note_on channel=8 note=67 velocity=0 time=0.0091743
EXTRACT: note_on channel=8 note=65 velocity=106 time=0.00458715
EXTRACT: note_on channel=9 note=69 velocity=78 time=0.00458715
EXTRACT: note_on channel=9 note=42 velocity=42 time=0
EXTRACT: note_on channel=9 note=39 velocity=0 time=0.0275229
EXTRACT: note_on channel=9 note=69 velocity=0 time=0.0183486
EXTRACT: note_on channel=9 note=42 velocity=0 time=0
EXTRACT: note_on channel=9 note=64 velocity=50 time=0.08715584999999999
EXTRACT: note_on channel=9 note=64 velocity=0 time=0.045871499999999996
EXTRACT: note_on channel=8 note=65 velocity=0 time=0.08715584999999999
EXTRACT: note_on channel=8 note=63 velocity=94 time=0.00458715
EXTRACT: note_on channel=9 note=48 velocity=50 time=0
EXTRACT: note_on channel=9 note=42 velocity=42 time=0.00458715
EXTRACT: note_on channel=9 note=36 velocity=98 time=0
EXTRACT: note_on channel=9 note=48 velocity=0 time=0.04128435
EXTRACT: note_on channel=9 note=42 velocity=0 time=0.00458715
EXTRACT: note_on channel=9 note=36 velocity=0 time=0
EXTRACT: note_on channel=9 note=39 velocity=61 time=0.0733944
EXTRACT: note_on channel=9 note=64 velocity=50 time=0.01376145
EXTRACT: note_on channel=9 note=39 velocity=0 time=0.03211005
EXTRACT: note_on channel=9 note=64 velocity=0 time=0.01376145
EXTRACT: note_on channel=8 note=63 velocity=0 time=0.08715584999999999
EXTRACT: note_on channel=8 note=63 velocity=87 time=0.00458715
EXTRACT: note_on channel=9 note=63 velocity=50 time=0
EXTRACT: note_on channel=9 note=38 velocity=127 time=0.00458715
EXTRACT: note_on channel=9 note=42 velocity=42 time=0
EXTRACT: note_on channel=9 note=63 velocity=0 time=0.04128435
EXTRACT: note_on channel=9 note=38 velocity=0 time=0.00458715
EXTRACT: note_on channel=9 note=42 velocity=0 time=0
EXTRACT: note_on channel=9 note=61 velocity=44 time=0.2293575
EXTRACT: note_on channel=9 note=36 velocity=92 time=0
EXTRACT: note_on channel=9 note=42 velocity=42 time=0
EXTRACT: note_on channel=9 note=61 velocity=0 time=0.045871499999999996
EXTRACT: note_on channel=9 note=36 velocity=0 time=0
EXTRACT: note_on channel=9 note=42 velocity=0 time=0
EXTRACT: note_on channel=9 note=61 velocity=44 time=0.09174299999999999
EXTRACT: note_on channel=9 note=36 velocity=92 time=0
EXTRACT: note_on channel=9 note=61 velocity=0 time=0.045871499999999996
EXTRACT: note_on channel=9 note=36 velocity=0 time=0
EXTRACT: note_on channel=3 note=55 velocity=0 time=0.07798155
EXTRACT: note_on channel=3 note=63 velocity=0 time=0
EXTRACT: note_on channel=3 note=59 velocity=0 time=0
EXTRACT: note_on channel=3 note=55 velocity=68 time=0
EXTRACT: note_on channel=3 note=60 velocity=76 time=0
EXTRACT: note_on channel=3 note=63 velocity=67 time=0
EXTRACT: note_on channel=8 note=63 velocity=0 time=0.00458715
EXTRACT: note_on channel=0 note=36 velocity=89 time=0.00458715
EXTRACT: note_on channel=4 note=91 velocity=0 time=0
EXTRACT: note_on channel=4 note=79 velocity=0 time=0
EXTRACT: note_on channel=8 note=63 velocity=94 time=0
EXTRACT: note_on channel=8 note=72 velocity=90 time=0
EXTRACT: note_on channel=8 note=68 velocity=100 time=0
EXTRACT: note_on channel=1 note=36 velocity=107 time=0.00458715
EXTRACT: note_on channel=9 note=61 velocity=44 time=0
EXTRACT: note_on channel=9 note=42 velocity=42 time=0
EXTRACT: note_on channel=9 note=36 velocity=98 time=0
EXTRACT: note_on channel=2 note=55 velocity=0 time=0.00458715
EXTRACT: note_on channel=2 note=63 velocity=0 time=0
EXTRACT: note_on channel=2 note=59 velocity=0 time=0
EXTRACT: note_on channel=2 note=55 velocity=71 time=0
EXTRACT: note_on channel=2 note=60 velocity=86 time=0
EXTRACT: note_on channel=2 note=63 velocity=84 time=0
EXTRACT: note_on channel=9 note=61 velocity=0 time=0.04128435
EXTRACT: note_on channel=9 note=42 velocity=0 time=0
EXTRACT: note_on channel=9 note=36 velocity=0 time=0
EXTRACT: note_on channel=9 note=39 velocity=51 time=0.2110089
EXTRACT: note_on channel=0 note=36 velocity=0 time=0.01376145
EXTRACT: note_on channel=1 note=36 velocity=0 time=0.00458715
EXTRACT: note_on channel=9 note=42 velocity=42 time=0
EXTRACT: note_on channel=9 note=39 velocity=0 time=0.0275229
EXTRACT: note_on channel=9 note=42 velocity=0 time=0.0183486
EXTRACT: note_on channel=0 note=36 velocity=106 time=0.08715584999999999
EXTRACT: note_on channel=1 note=36 velocity=111 time=0.00458715
EXTRACT: note_on channel=9 note=61 velocity=44 time=0
EXTRACT: note_on channel=9 note=36 velocity=98 time=0
EXTRACT: note_on channel=9 note=61 velocity=0 time=0.045871499999999996
EXTRACT: note_on channel=9 note=36 velocity=0 time=0
EXTRACT: note_on channel=8 note=63 velocity=0 time=0.0825687
EXTRACT: note_on channel=8 note=72 velocity=0 time=0
EXTRACT: note_on channel=8 note=68 velocity=0 time=0
EXTRACT: note_on channel=0 note=36 velocity=0 time=0.00458715
EXTRACT: note_on channel=8 note=63 velocity=82 time=0
EXTRACT: note_on channel=8 note=70 velocity=81 time=0
EXTRACT: note_on channel=8 note=67 velocity=108 time=0
EXTRACT: note_on channel=1 note=36 velocity=0 time=0.00458715
EXTRACT: note_on channel=9 note=38 velocity=127 time=0
EXTRACT: note_on channel=9 note=42 velocity=42 time=0
EXTRACT: note_on channel=9 note=38 velocity=0 time=0.045871499999999996
EXTRACT: note_on channel=9 note=42 velocity=0 time=0
EXTRACT: note_on channel=9 note=39 velocity=59 time=0.0733944
EXTRACT: note_on channel=9 note=39 velocity=0 time=0.045871499999999996
EXTRACT: note_on channel=9 note=69 velocity=75 time=0.1100916
EXTRACT: note_on channel=9 note=42 velocity=42 time=0
EXTRACT: note_on channel=9 note=69 velocity=0 time=0.045871499999999996
EXTRACT: note_on channel=9 note=42 velocity=0 time=0
EXTRACT: note_on channel=9 note=69 velocity=76 time=0.09174299999999999
EXTRACT: note_on channel=9 note=69 velocity=0 time=0.045871499999999996
EXTRACT: note_on channel=9 note=39 velocity=57 time=0.0733944
EXTRACT: note_on channel=8 note=63 velocity=0 time=0.0091743
EXTRACT: note_on channel=8 note=70 velocity=0 time=0
EXTRACT: note_on channel=8 note=67 velocity=0 time=0
EXTRACT: note_on channel=8 note=60 velocity=75 time=0.00458715
EXTRACT: note_on channel=8 note=68 velocity=103 time=0
EXTRACT: note_on channel=8 note=65 velocity=94 time=0
EXTRACT: note_on channel=9 note=69 velocity=82 time=0.00458715
EXTRACT: note_on channel=9 note=42 velocity=42 time=0
EXTRACT: note_on channel=9 note=39 velocity=0 time=0.0275229
EXTRACT: note_on channel=9 note=69 velocity=0 time=0.0183486
EXTRACT: note_on channel=9 note=42 velocity=0 time=0
EXTRACT: note_on channel=9 note=42 velocity=42 time=0.2293575
EXTRACT: note_on channel=9 note=36 velocity=98 time=0
EXTRACT: note_on channel=9 note=42 velocity=0 time=0.045871499999999996
EXTRACT: note_on channel=9 note=36 velocity=0 time=0
EXTRACT: note_on channel=9 note=39 velocity=68 time=0.0733944
EXTRACT: note_on channel=9 note=39 velocity=0 time=0.045871499999999996
EXTRACT: note_on channel=8 note=60 velocity=0 time=0.1009173
EXTRACT: note_on channel=8 note=68 velocity=0 time=0
EXTRACT: note_on channel=8 note=65 velocity=0 time=0
EXTRACT: note_on channel=8 note=58 velocity=76 time=0.00458715
EXTRACT: note_on channel=8 note=67 velocity=81 time=0
EXTRACT: note_on channel=8 note=63 velocity=108 time=0
EXTRACT: note_on channel=9 note=38 velocity=127 time=0.00458715
EXTRACT: note_on channel=9 note=42 velocity=42 time=0
EXTRACT: note_on channel=9 note=38 velocity=0 time=0.045871499999999996
EXTRACT: note_on channel=9 note=42 velocity=0 time=0
EXTRACT: note_on channel=9 note=69 velocity=78 time=0.2293575
EXTRACT: note_on channel=9 note=61 velocity=44 time=0
EXTRACT: note_on channel=9 note=42 velocity=42 time=0
EXTRACT: note_on channel=9 note=69 velocity=0 time=0.045871499999999996
EXTRACT: note_on channel=9 note=61 velocity=0 time=0
EXTRACT: note_on channel=9 note=42 velocity=0 time=0
EXTRACT: note_on channel=9 note=61 velocity=44 time=0.09174299999999999
EXTRACT: note_on channel=9 note=61 velocity=0 time=0.045871499999999996
EXTRACT: note_on channel=9 note=39 velocity=63 time=0.0733944
EXTRACT: note_on channel=3 note=55 velocity=0 time=0.00458715
EXTRACT: note_on channel=3 note=60 velocity=0 time=0
EXTRACT: note_on channel=3 note=63 velocity=0 time=0
EXTRACT: note_on channel=3 note=65 velocity=58 time=0
EXTRACT: note_on channel=3 note=56 velocity=56 time=0
EXTRACT: note_on channel=3 note=58 velocity=68 time=0
EXTRACT: note_on channel=3 note=61 velocity=71 time=0
EXTRACT: note_on channel=8 note=58 velocity=0 time=0.00458715
EXTRACT: note_on channel=8 note=67 velocity=0 time=0
EXTRACT: note_on channel=8 note=63 velocity=0 time=0
EXTRACT: note_on channel=0 note=34 velocity=107 time=0.00458715
EXTRACT: note_on channel=4 note=55 velocity=0 time=0
EXTRACT: note_on channel=4 note=63 velocity=0 time=0
EXTRACT: note_on channel=4 note=58 velocity=78 time=0
EXTRACT: note_on channel=4 note=65 velocity=77 time=0
EXTRACT: note_on channel=8 note=67 velocity=100 time=0
EXTRACT: note_on channel=1 note=34 velocity=110 time=0.00458715
EXTRACT: note_on channel=9 note=61 velocity=44 time=0
EXTRACT: note_on channel=9 note=42 velocity=42 time=0
EXTRACT: note_on channel=9 note=36 velocity=98 time=0
EXTRACT: note_on channel=2 note=55 velocity=0 time=0.00458715
EXTRACT: note_on channel=2 note=60 velocity=0 time=0
EXTRACT: note_on channel=2 note=63 velocity=0 time=0
EXTRACT: note_on channel=2 note=65 velocity=71 time=0
EXTRACT: note_on channel=2 note=56 velocity=77 time=0
EXTRACT: note_on channel=2 note=58 velocity=76 time=0
EXTRACT: note_on channel=2 note=61 velocity=84 time=0
EXTRACT: note_on channel=9 note=39 velocity=0 time=0.022935749999999998
EXTRACT: note_on channel=9 note=61 velocity=0 time=0.0183486
EXTRACT: note_on channel=9 note=42 velocity=0 time=0
EXTRACT: note_on channel=9 note=36 velocity=0 time=0
EXTRACT: note_on channel=9 note=39 velocity=58 time=0.0733944
EXTRACT: note_on channel=9 note=61 velocity=44 time=0.0183486
EXTRACT: note_on channel=9 note=39 velocity=0 time=0.0275229
EXTRACT: note_on channel=9 note=61 velocity=0 time=0.0183486
EXTRACT: note_on channel=0 note=34 velocity=0 time=0.08715584999999999
EXTRACT: note_on channel=9 note=64 velocity=50 time=0
EXTRACT: note_on channel=1 note=34 velocity=0 time=0.00458715
EXTRACT: note_on channel=9 note=61 velocity=44 time=0
EXTRACT: note_on channel=9 note=42 velocity=42 time=0
EXTRACT: note_on channel=9 note=64 velocity=0 time=0.04128435
EXTRACT: note_on channel=9 note=61 velocity=0 time=0.00458715
EXTRACT: note_on channel=9 note=42 velocity=0 time=0
EXTRACT: note_on channel=0 note=34 velocity=91 time=0.08715584999999999
EXTRACT: note_on channel=9 note=63 velocity=50 time=0
EXTRACT: note_on channel=1 note=34 velocity=99 time=0.00458715
EXTRACT: note_on channel=9 note=36 velocity=98 time=0
EXTRACT: note_on channel=9 note=63 velocity=0 time=0.04128435
EXTRACT: note_on channel=9 note=36 velocity=0 time=0.00458715
EXTRACT: note_on channel=9 note=39 velocity=55 time=0.0733944
EXTRACT: note_on channel=0 note=34 velocity=0 time=0.01376145
EXTRACT: note_on channel=9 note=64 velocity=50 time=0
EXTRACT: note_on channel=1 note=34 velocity=0 time=0.00458715
EXTRACT: note_on channel=9 note=38 velocity=127 time=0
EXTRACT: note_on channel=9 note=42 velocity=42 time=0
EXTRACT: note_on channel=9 note=39 velocity=0 time=0.0275229
EXTRACT: note_on channel=9 note=64 velocity=0 time=0.01376145
EXTRACT: note_on channel=9 note=38 velocity=0 time=0.00458715
EXTRACT: note_on channel=9 note=42 velocity=0 time=0
EXTRACT: note_on channel=9 note=39 velocity=68 time=0.0733944
EXTRACT: note_on channel=9 note=64 velocity=50 time=0.01376145
EXTRACT: note_on channel=9 note=39 velocity=0 time=0.03211005
EXTRACT: note_on channel=9 note=64 velocity=0 time=0.01376145
EXTRACT: note_on channel=8 note=67 velocity=0 time=0.08715584999999999
EXTRACT: note_on channel=0 note=34 velocity=95 time=0.00458715
EXTRACT: note_on channel=8 note=67 velocity=113 time=0
EXTRACT: note_on channel=9 note=63 velocity=50 time=0
EXTRACT: note_on channel=1 note=34 velocity=95 time=0.00458715
EXTRACT: note_on channel=9 note=69 velocity=78 time=0
EXTRACT: note_on channel=9 note=42 velocity=42 time=0
EXTRACT: note_on channel=9 note=63 velocity=0 time=0.04128435
EXTRACT: note_on channel=9 note=69 velocity=0 time=0.00458715
EXTRACT: note_on channel=9 note=42 velocity=0 time=0
EXTRACT: note_on channel=0 note=34 velocity=0 time=0.08715584999999999
EXTRACT: note_on channel=1 note=34 velocity=0 time=0.00458715
EXTRACT: note_on channel=9 note=36 velocity=92 time=0
EXTRACT: note_on channel=9 note=69 velocity=79 time=0
EXTRACT: note_on channel=9 note=36 velocity=0 time=0.045871499999999996
EXTRACT: note_on channel=9 note=69 velocity=0 time=0
EXTRACT: note_on channel=9 note=39 velocity=68 time=0.0733944
EXTRACT: note_on channel=3 note=65 velocity=0 time=0.00458715
EXTRACT: note_on channel=3 note=56 velocity=0 time=0
EXTRACT: note_on channel=3 note=58 velocity=0 time=0
EXTRACT: note_on channel=3 note=61 velocity=0 time=0
EXTRACT: note_on channel=3 note=61 velocity=62 time=0
EXTRACT: note_on channel=3 note=55 velocity=82 time=0
EXTRACT: note_on channel=3 note=58 velocity=54 time=0
EXTRACT: note_on channel=3 note=63 velocity=78 time=0
EXTRACT: note_on channel=8 note=67 velocity=0 time=0.00458715
EXTRACT: note_on channel=0 note=39 velocity=101 time=0.00458715
EXTRACT: note_on channel=4 note=58 velocity=0 time=0
EXTRACT: note_on channel=4 note=65 velocity=0 time=0
EXTRACT: note_on channel=4 note=55 velocity=110 time=0
EXTRACT: note_on channel=4 note=63 velocity=99 time=0
EXTRACT: note_on channel=8 note=65 velocity=91 time=0
EXTRACT: note_on channel=1 note=39 velocity=109 time=0.00458715
EXTRACT: note_on channel=9 note=36 velocity=98 time=0
EXTRACT: note_on channel=9 note=69 velocity=76 time=0
EXTRACT: note_on channel=9 note=42 velocity=42 time=0
EXTRACT: note_on channel=2 note=65 velocity=0 time=0.00458715
EXTRACT: note_on channel=2 note=56 velocity=0 time=0
EXTRACT: note_on channel=2 note=58 velocity=0 time=0
EXTRACT: note_on channel=2 note=61 velocity=0 time=0
EXTRACT: note_on channel=2 note=61 velocity=69 time=0
EXTRACT: note_on channel=2 note=55 velocity=77 time=0
EXTRACT: note_on channel=2 note=58 velocity=75 time=0
EXTRACT: note_on channel=2 note=63 velocity=71 time=0
EXTRACT: note_on channel=9 note=39 velocity=0 time=0.022935749999999998
EXTRACT: note_on channel=9 note=36 velocity=0 time=0.0183486
EXTRACT: note_on channel=9 note=69 velocity=0 time=0
EXTRACT: note_on channel=9 note=42 velocity=0 time=0
EXTRACT: note_on channel=9 note=39 velocity=67 time=0.0733944
EXTRACT: note_on channel=9 note=64 velocity=50 time=0.01376145
EXTRACT: note_on channel=9 note=39 velocity=0 time=0.03211005
EXTRACT: note_on channel=9 note=64 velocity=0 time=0.01376145
EXTRACT: note_on channel=8 note=65 velocity=0 time=0.08715584999999999
EXTRACT: note_on channel=0 note=39 velocity=0 time=0.00458715
EXTRACT: note_on channel=8 note=63 velocity=106 time=0
EXTRACT: note_on channel=9 note=48 velocity=50 time=0
EXTRACT: note_on channel=1 note=39 velocity=0 time=0.00458715
EXTRACT: note_on channel=9 note=36 velocity=92 time=0
EXTRACT: note_on channel=9 note=42 velocity=42 time=0
EXTRACT: note_on channel=9 note=48 velocity=0 time=0.04128435
EXTRACT: note_on channel=9 note=36 velocity=0 time=0.00458715
EXTRACT: note_on channel=9 note=42 velocity=0 time=0
EXTRACT: note_on channel=0 note=39 velocity=88 time=0.08715584999999999
EXTRACT: note_on channel=9 note=64 velocity=50 time=0
EXTRACT: note_on channel=1 note=39 velocity=102 time=0.00458715
EXTRACT: note_on channel=9 note=36 velocity=92 time=0
EXTRACT: note_on channel=9 note=64 velocity=0 time=0.04128435
EXTRACT: note_on channel=9 note=36 velocity=0 time=0.00458715
EXTRACT: note_on channel=9 note=39 velocity=72 time=0.0733944
EXTRACT: note_on channel=8 note=63 velocity=0 time=0.0091743
EXTRACT: note_on channel=0 note=39 velocity=0 time=0.00458715
EXTRACT: note_on channel=8 note=63 velocity=102 time=0
EXTRACT: note_on channel=9 note=63 velocity=50 time=0
EXTRACT: note_on channel=1 note=39 velocity=0 time=0.00458715
EXTRACT: note_on channel=9 note=38 velocity=127 time=0
EXTRACT: note_on channel=9 note=42 velocity=42 time=0
EXTRACT: note_on channel=9 note=39 velocity=0 time=0.0275229
EXTRACT: note_on channel=9 note=63 velocity=0 time=0.01376145
EXTRACT: note_on channel=9 note=38 velocity=0 time=0.00458715
EXTRACT: note_on channel=9 note=42 velocity=0 time=0
EXTRACT: note_on channel=9 note=39 velocity=27 time=0.0733944
EXTRACT: note_on channel=9 note=39 velocity=0 time=0.045871499999999996
EXTRACT: note_on channel=9 note=39 velocity=73 time=0.09174299999999999
EXTRACT: note_on channel=9 note=61 velocity=44 time=0.0183486
EXTRACT: note_on channel=9 note=36 velocity=92 time=0
EXTRACT: note_on channel=9 note=42 velocity=42 time=0
EXTRACT: note_on channel=9 note=39 velocity=0 time=0.0275229
EXTRACT: note_on channel=9 note=61 velocity=0 time=0.0183486
EXTRACT: note_on channel=9 note=36 velocity=0 time=0
EXTRACT: note_on channel=9 note=42 velocity=0 time=0
EXTRACT: note_on channel=9 note=39 velocity=50 time=0.0733944
EXTRACT: note_on channel=9 note=61 velocity=44 time=0.0183486
EXTRACT: note_on channel=9 note=36 velocity=92 time=0
EXTRACT: note_on channel=9 note=39 velocity=0 time=0.0275229
EXTRACT: note_on channel=9 note=61 velocity=0 time=0.0183486
EXTRACT: note_on channel=9 note=36 velocity=0 time=0
EXTRACT: note_on channel=3 note=61 velocity=0 time=0.07798155
EXTRACT: note_on channel=3 note=55 velocity=0 time=0
EXTRACT: note_on channel=3 note=58 velocity=0 time=0
EXTRACT: note_on channel=3 note=63 velocity=0 time=0
EXTRACT: note_on channel=3 note=44 velocity=35 time=0
EXTRACT: note_on channel=3 note=55 velocity=76 time=0
EXTRACT: note_on channel=3 note=63 velocity=58 time=0
EXTRACT: note_on channel=3 note=60 velocity=54 time=0
EXTRACT: note_on channel=8 note=63 velocity=0 time=0.00458715
EXTRACT: note_on channel=0 note=32 velocity=84 time=0.00458715
EXTRACT: note_on channel=4 note=55 velocity=0 time=0
EXTRACT: note_on channel=4 note=63 velocity=0 time=0
EXTRACT: note_on channel=4 note=79 velocity=111 time=0
EXTRACT: note_on channel=4 note=91 velocity=111 time=0
EXTRACT: note_on channel=4 note=55 velocity=111 time=0
EXTRACT: note_on channel=4 note=63 velocity=103 time=0
EXTRACT: note_on channel=8 note=67 velocity=112 time=0
EXTRACT: note_on channel=1 note=32 velocity=105 time=0.00458715
EXTRACT: note_on channel=9 note=61 velocity=44 time=0
EXTRACT: note_on channel=9 note=42 velocity=42 time=0
EXTRACT: note_on channel=9 note=36 velocity=98 time=0
EXTRACT: note_on channel=2 note=61 velocity=0 time=0.00458715
EXTRACT: note_on channel=2 note=55 velocity=0 time=0
EXTRACT: note_on channel=2 note=58 velocity=0 time=0
EXTRACT: note_on channel=2 note=63 velocity=0 time=0
EXTRACT: note_on channel=2 note=44 velocity=49 time=0
EXTRACT: note_on channel=2 note=55 velocity=80 time=0
EXTRACT: note_on channel=2 note=63 velocity=63 time=0
EXTRACT: note_on channel=2 note=60 velocity=69 time=0
EXTRACT: note_on channel=9 note=61 velocity=0 time=0.04128435
EXTRACT: note_on channel=9 note=42 velocity=0 time=0
EXTRACT: note_on channel=9 note=36 velocity=0 time=0
EXTRACT: note_on channel=9 note=39 velocity=60 time=0.2110089
EXTRACT: note_on channel=0 note=32 velocity=0 time=0.01376145
EXTRACT: note_on channel=1 note=32 velocity=0 time=0.00458715
EXTRACT: note_on channel=9 note=42 velocity=42 time=0
EXTRACT: note_on channel=9 note=39 velocity=0 time=0.0275229
EXTRACT: note_on channel=9 note=42 velocity=0 time=0.0183486
EXTRACT: note_on channel=0 note=32 velocity=86 time=0.08715584999999999
EXTRACT: note_on channel=1 note=32 velocity=95 time=0.00458715
EXTRACT: note_on channel=9 note=61 velocity=44 time=0
EXTRACT: note_on channel=9 note=36 velocity=98 time=0
EXTRACT: note_on channel=9 note=61 velocity=0 time=0.045871499999999996
EXTRACT: note_on channel=9 note=36 velocity=0 time=0
EXTRACT: note_on channel=0 note=32 velocity=0 time=0.08715584999999999
EXTRACT: note_on channel=1 note=32 velocity=0 time=0.00458715
EXTRACT: note_on channel=9 note=38 velocity=127 time=0
EXTRACT: note_on channel=9 note=42 velocity=42 time=0
EXTRACT: note_on channel=9 note=38 velocity=0 time=0.045871499999999996
EXTRACT: note_on channel=9 note=42 velocity=0 time=0
EXTRACT: note_on channel=9 note=39 velocity=58 time=0.0733944
EXTRACT: note_on channel=9 note=39 velocity=0 time=0.045871499999999996
EXTRACT: note_on channel=8 note=67 velocity=0 time=0.1009173
EXTRACT: note_on channel=8 note=67 velocity=104 time=0.00458715
EXTRACT: note_on channel=9 note=69 velocity=77 time=0.00458715
EXTRACT: note_on channel=9 note=42 velocity=42 time=0
EXTRACT: note_on channel=9 note=69 velocity=0 time=0.045871499999999996
EXTRACT: note_on channel=9 note=42 velocity=0 time=0
EXTRACT: note_on channel=9 note=69 velocity=79 time=0.09174299999999999
EXTRACT: note_on channel=9 note=69 velocity=0 time=0.045871499999999996
EXTRACT: note_on channel=9 note=39 velocity=59 time=0.0733944
EXTRACT: note_on channel=8 note=67 velocity=0 time=0.0091743
EXTRACT: note_on channel=8 note=65 velocity=97 time=0.00458715
EXTRACT: note_on channel=9 note=69 velocity=78 time=0.00458715
EXTRACT: note_on channel=9 note=42 velocity=42 time=0
EXTRACT: note_on channel=9 note=39 velocity=0 time=0.0275229
EXTRACT: note_on channel=9 note=69 velocity=0 time=0.0183486
EXTRACT: note_on channel=9 note=42 velocity=0 time=0
EXTRACT: note_on channel=8 note=65 velocity=0 time=0.2201832
EXTRACT: note_on channel=8 note=63 velocity=91 time=0.00458715
EXTRACT: note_on channel=9 note=42 velocity=42 time=0.00458715
EXTRACT: note_on channel=9 note=36 velocity=98 time=0
EXTRACT: note_on channel=9 note=42 velocity=0 time=0.045871499999999996
EXTRACT: note_on channel=9 note=36 velocity=0 time=0
EXTRACT: note_on channel=9 note=39 velocity=66 time=0.0733944
EXTRACT: note_on channel=9 note=39 velocity=0 time=0.045871499999999996
EXTRACT: note_on channel=8 note=63 velocity=0 time=0.1009173
EXTRACT: note_on channel=8 note=63 velocity=95 time=0.00458715
EXTRACT: note_on channel=9 note=38 velocity=127 time=0.00458715
EXTRACT: note_on channel=9 note=42 velocity=42 time=0
EXTRACT: note_on channel=9 note=38 velocity=0 time=0.045871499999999996
EXTRACT: note_on channel=9 note=42 velocity=0 time=0
EXTRACT: note_on channel=9 note=69 velocity=81 time=0.2293575
EXTRACT: note_on channel=9 note=61 velocity=44 time=0
EXTRACT: note_on channel=9 note=42 velocity=42 time=0
EXTRACT: note_on channel=9 note=69 velocity=0 time=0.045871499999999996
EXTRACT: note_on channel=9 note=61 velocity=0 time=0
EXTRACT: note_on channel=9 note=42 velocity=0 time=0
EXTRACT: note_on channel=9 note=61 velocity=44 time=0.09174299999999999
EXTRACT: note_on channel=9 note=61 velocity=0 time=0.045871499999999996
EXTRACT: note_on channel=3 note=44 velocity=0 time=0.07798155
EXTRACT: note_on channel=3 note=55 velocity=0 time=0
EXTRACT: note_on channel=3 note=63 velocity=0 time=0
EXTRACT: note_on channel=3 note=60 velocity=0 time=0
EXTRACT: note_on channel=3 note=55 velocity=75 time=0
EXTRACT: note_on channel=3 note=63 velocity=74 time=0
EXTRACT: note_on channel=3 note=59 velocity=51 time=0
EXTRACT: note_on channel=8 note=63 velocity=0 time=0.00458715
EXTRACT: note_on channel=0 note=31 velocity=103 time=0.00458715
EXTRACT: note_on channel=8 note=67 velocity=108 time=0
EXTRACT: note_on channel=1 note=31 velocity=100 time=0.00458715
EXTRACT: note_on channel=9 note=61 velocity=44 time=0
EXTRACT: note_on channel=9 note=42 velocity=42 time=0
EXTRACT: note_on channel=9 note=36 velocity=98 time=0
EXTRACT: note_on channel=2 note=44 velocity=0 time=0.00458715
EXTRACT: note_on channel=2 note=55 velocity=0 time=0
EXTRACT: note_on channel=2 note=63 velocity=0 time=0
EXTRACT: note_on channel=2 note=60 velocity=0 time=0
EXTRACT: note_on channel=2 note=55 velocity=76 time=0
EXTRACT: note_on channel=2 note=63 velocity=64 time=0
EXTRACT: note_on channel=2 note=59 velocity=92 time=0
EXTRACT: note_on channel=9 note=61 velocity=0 time=0.04128435
EXTRACT: note_on channel=9 note=42 velocity=0 time=0
EXTRACT: note_on channel=9 note=36 velocity=0 time=0
EXTRACT: note_on channel=9 note=61 velocity=44 time=0.09174299999999999
EXTRACT: note_on channel=9 note=61 velocity=0 time=0.045871499999999996
EXTRACT: note_on channel=9 note=39 velocity=52 time=0.0733944
EXTRACT: note_on channel=0 note=31 velocity=0 time=0.01376145
EXTRACT: note_on channel=9 note=64 velocity=50 time=0
EXTRACT: note_on channel=1 note=31 velocity=0 time=0.00458715
EXTRACT: note_on channel=9 note=61 velocity=44 time=0
EXTRACT: note_on channel=9 note=42 velocity=42 time=0
EXTRACT: note_on channel=9 note=39 velocity=0 time=0.0275229
EXTRACT: note_on channel=9 note=64 velocity=0 time=0.01376145
EXTRACT: note_on channel=9 note=61 velocity=0 time=0.00458715
EXTRACT: note_on channel=9 note=42 velocity=0 time=0
EXTRACT: note_on channel=0 note=31 velocity=85 time=0.08715584999999999
EXTRACT: note_on channel=9 note=63 velocity=50 time=0
EXTRACT: note_on channel=1 note=31 velocity=108 time=0.00458715
EXTRACT: note_on channel=9 note=36 velocity=98 time=0
EXTRACT: note_on channel=9 note=63 velocity=0 time=0.04128435
EXTRACT: note_on channel=9 note=36 velocity=0 time=0.00458715
EXTRACT: note_on channel=0 note=31 velocity=0 time=0.08715584999999999
EXTRACT: note_on channel=9 note=64 velocity=50 time=0
EXTRACT: note_on channel=1 note=31 velocity=0 time=0.00458715
EXTRACT: note_on channel=9 note=38 velocity=127 time=0
EXTRACT: note_on channel=9 note=42 velocity=42 time=0
EXTRACT: note_on channel=9 note=64 velocity=0 time=0.04128435
EXTRACT: note_on channel=9 note=38 velocity=0 time=0.00458715
EXTRACT: note_on channel=9 note=42 velocity=0 time=0
EXTRACT: note_on channel=9 note=39 velocity=61 time=0.0733944
EXTRACT: note_on channel=9 note=64 velocity=50 time=0.01376145
EXTRACT: note_on channel=9 note=39 velocity=0 time=0.03211005
EXTRACT: note_on channel=9 note=64 velocity=0 time=0.01376145
EXTRACT: note_on channel=8 note=67 velocity=0 time=0.08715584999999999
EXTRACT: note_on channel=8 note=67 velocity=102 time=0.00458715
EXTRACT: note_on channel=9 note=63 velocity=50 time=0
EXTRACT: note_on channel=9 note=69 velocity=82 time=0.00458715
EXTRACT: note_on channel=9 note=42 velocity=42 time=0
EXTRACT: note_on channel=9 note=63 velocity=0 time=0.04128435
EXTRACT: note_on channel=9 note=69 velocity=0 time=0.00458715
EXTRACT: note_on channel=9 note=42 velocity=0 time=0
EXTRACT: note_on channel=9 note=69 velocity=74 time=0.09174299999999999
EXTRACT: note_on channel=9 note=69 velocity=0 time=0.045871499999999996
EXTRACT: note_on channel=9 note=39 velocity=68 time=0.0733944
EXTRACT: note_on channel=8 note=67 velocity=0 time=0.0091743
EXTRACT: note_on channel=8 note=65 velocity=112 time=0.00458715
EXTRACT: note_on channel=9 note=69 velocity=76 time=0.00458715
EXTRACT: note_on channel=9 note=42 velocity=42 time=0
EXTRACT: note_on channel=9 note=39 velocity=0 time=0.0275229
EXTRACT: note_on channel=9 note=69 velocity=0 time=0.0183486
EXTRACT: note_on channel=9 note=42 velocity=0 time=0
EXTRACT: note_on channel=9 note=64 velocity=50 time=0.08715584999999999
EXTRACT: note_on channel=9 note=64 velocity=0 time=0.045871499999999996
EXTRACT: note_on channel=8 note=65 velocity=0 time=0.08715584999999999
EXTRACT: note_on channel=0 note=34 velocity=98 time=0.00458715
EXTRACT: note_on channel=8 note=63 velocity=89 time=0
EXTRACT: note_on channel=9 note=48 velocity=50 time=0
EXTRACT: note_on channel=1 note=34 velocity=113 time=0.00458715
EXTRACT: note_on channel=9 note=42 velocity=42 time=0
EXTRACT: note_on channel=9 note=36 velocity=98 time=0
EXTRACT: note_on channel=9 note=48 velocity=0 time=0.04128435
EXTRACT: note_on channel=9 note=42 velocity=0 time=0.00458715
EXTRACT: note_on channel=9 note=36 velocity=0 time=0
EXTRACT: note_on channel=9 note=39 velocity=72 time=0.0733944
EXTRACT: note_on channel=0 note=34 velocity=0 time=0.01376145
EXTRACT: note_on channel=9 note=64 velocity=50 time=0
EXTRACT: note_on channel=1 note=34 velocity=0 time=0.00458715
EXTRACT: note_on channel=9 note=39 velocity=0 time=0.0275229
EXTRACT: note_on channel=9 note=64 velocity=0 time=0.01376145
EXTRACT: note_on channel=8 note=63 velocity=0 time=0.08715584999999999
EXTRACT: note_on channel=8 note=63 velocity=91 time=0.00458715
EXTRACT: note_on channel=9 note=63 velocity=50 time=0
EXTRACT: note_on channel=9 note=38 velocity=127 time=0.00458715
EXTRACT: note_on channel=9 note=42 velocity=42 time=0
EXTRACT: note_on channel=9 note=63 velocity=0 time=0.04128435
EXTRACT: note_on channel=9 note=38 velocity=0 time=0.00458715
EXTRACT: note_on channel=9 note=42 velocity=0 time=0
EXTRACT: note_on channel=0 note=34 velocity=86 time=0.08715584999999999
EXTRACT: note_on channel=1 note=34 velocity=110 time=0.00458715
EXTRACT: note_on channel=0 note=34 velocity=0 time=0.13302735
EXTRACT: note_on channel=1 note=34 velocity=0 time=0.00458715
EXTRACT: note_on channel=9 note=61 velocity=44 time=0
EXTRACT: note_on channel=9 note=36 velocity=92 time=0
EXTRACT: note_on channel=9 note=42 velocity=42 time=0
EXTRACT: note_on channel=9 note=61 velocity=0 time=0.045871499999999996
EXTRACT: note_on channel=9 note=36 velocity=0 time=0
EXTRACT: note_on channel=9 note=42 velocity=0 time=0
EXTRACT: note_on channel=9 note=61 velocity=44 time=0.09174299999999999
EXTRACT: note_on channel=9 note=36 velocity=92 time=0
EXTRACT: note_on channel=9 note=61 velocity=0 time=0.045871499999999996
EXTRACT: note_on channel=9 note=36 velocity=0 time=0
EXTRACT: note_on channel=3 note=55 velocity=0 time=0.07798155
EXTRACT: note_on channel=3 note=63 velocity=0 time=0
EXTRACT: note_on channel=3 note=59 velocity=0 time=0
EXTRACT: note_on channel=3 note=55 velocity=52 time=0
EXTRACT: note_on channel=3 note=60 velocity=76 time=0
EXTRACT: note_on channel=3 note=63 velocity=67 time=0
EXTRACT: note_on channel=8 note=63 velocity=0 time=0.00458715
EXTRACT: note_on channel=0 note=36 velocity=86 time=0.00458715
EXTRACT: note_on channel=4 note=79 velocity=0 time=0
EXTRACT: note_on channel=4 note=91 velocity=0 time=0
EXTRACT: note_on channel=8 note=63 velocity=81 time=0
EXTRACT: note_on channel=8 note=72 velocity=74 time=0
EXTRACT: note_on channel=8 note=68 velocity=105 time=0
EXTRACT: note_on channel=1 note=36 velocity=105 time=0.00458715
EXTRACT: note_on channel=9 note=61 velocity=44 time=0
EXTRACT: note_on channel=9 note=42 velocity=42 time=0
EXTRACT: note_on channel=9 note=36 velocity=98 time=0
EXTRACT: note_on channel=2 note=55 velocity=0 time=0.00458715
EXTRACT: note_on channel=2 note=63 velocity=0 time=0
EXTRACT: note_on channel=2 note=59 velocity=0 time=0
EXTRACT: note_on channel=2 note=55 velocity=61 time=0
EXTRACT: note_on channel=2 note=60 velocity=84 time=0
EXTRACT: note_on channel=2 note=63 velocity=64 time=0
EXTRACT: note_on channel=9 note=61 velocity=0 time=0.04128435
EXTRACT: note_on channel=9 note=42 velocity=0 time=0
EXTRACT: note_on channel=9 note=36 velocity=0 time=0
EXTRACT: note_on channel=9 note=39 velocity=53 time=0.2110089
EXTRACT: note_on channel=0 note=36 velocity=0 time=0.01376145
EXTRACT: note_on channel=1 note=36 velocity=0 time=0.00458715
EXTRACT: note_on channel=9 note=42 velocity=42 time=0
EXTRACT: note_on channel=9 note=39 velocity=0 time=0.0275229
EXTRACT: note_on channel=9 note=42 velocity=0 time=0.0183486
EXTRACT: note_on channel=0 note=36 velocity=106 time=0.08715584999999999
EXTRACT: note_on channel=1 note=36 velocity=107 time=0.00458715
EXTRACT: note_on channel=9 note=61 velocity=44 time=0
EXTRACT: note_on channel=9 note=36 velocity=98 time=0
EXTRACT: note_on channel=9 note=61 velocity=0 time=0.045871499999999996
EXTRACT: note_on channel=9 note=36 velocity=0 time=0
EXTRACT: note_on channel=8 note=63 velocity=0 time=0.0825687
EXTRACT: note_on channel=8 note=72 velocity=0 time=0
EXTRACT: note_on channel=8 note=68 velocity=0 time=0
EXTRACT: note_on channel=0 note=36 velocity=0 time=0.00458715
EXTRACT: note_on channel=8 note=63 velocity=100 time=0
EXTRACT: note_on channel=8 note=70 velocity=98 time=0
EXTRACT: note_on channel=8 note=67 velocity=89 time=0
EXTRACT: note_on channel=1 note=36 velocity=0 time=0.00458715
EXTRACT: note_on channel=9 note=38 velocity=127 time=0
EXTRACT: note_on channel=9 note=42 velocity=42 time=0
EXTRACT: note_on channel=9 note=38 velocity=0 time=0.045871499999999996
EXTRACT: note_on channel=9 note=42 velocity=0 time=0
EXTRACT: note_on channel=9 note=39 velocity=70 time=0.0733944
EXTRACT: note_on channel=9 note=39 velocity=0 time=0.045871499999999996
EXTRACT: note_on channel=9 note=69 velocity=77 time=0.1100916
EXTRACT: note_on channel=9 note=42 velocity=42 time=0
EXTRACT: note_on channel=9 note=69 velocity=0 time=0.045871499999999996
EXTRACT: note_on channel=9 note=42 velocity=0 time=0
EXTRACT: note_on channel=9 note=69 velocity=80 time=0.09174299999999999
EXTRACT: note_on channel=9 note=69 velocity=0 time=0.045871499999999996
EXTRACT: note_on channel=9 note=39 velocity=59 time=0.0733944
EXTRACT: note_on channel=8 note=63 velocity=0 time=0.0091743
EXTRACT: note_on channel=8 note=70 velocity=0 time=0
EXTRACT: note_on channel=8 note=67 velocity=0 time=0
EXTRACT: note_on channel=8 note=60 velocity=108 time=0.00458715
EXTRACT: note_on channel=8 note=68 velocity=104 time=0
EXTRACT: note_on channel=8 note=65 velocity=103 time=0
EXTRACT: note_on channel=9 note=69 velocity=82 time=0.00458715
EXTRACT: note_on channel=9 note=42 velocity=42 time=0
EXTRACT: note_on channel=9 note=39 velocity=0 time=0.0275229
EXTRACT: note_on channel=9 note=69 velocity=0 time=0.0183486
EXTRACT: note_on channel=9 note=42 velocity=0 time=0
EXTRACT: note_on channel=9 note=42 velocity=42 time=0.2293575
EXTRACT: note_on channel=9 note=36 velocity=98 time=0
EXTRACT: note_on channel=9 note=42 velocity=0 time=0.045871499999999996
EXTRACT: note_on channel=9 note=36 velocity=0 time=0
EXTRACT: note_on channel=9 note=39 velocity=51 time=0.0733944
EXTRACT: note_on channel=9 note=39 velocity=0 time=0.045871499999999996
EXTRACT: note_on channel=8 note=60 velocity=0 time=0.1009173
EXTRACT: note_on channel=8 note=68 velocity=0 time=0
EXTRACT: note_on channel=8 note=65 velocity=0 time=0
EXTRACT: note_on channel=8 note=58 velocity=110 time=0.00458715
EXTRACT: note_on channel=8 note=67 velocity=102 time=0
EXTRACT: note_on channel=8 note=63 velocity=100 time=0
EXTRACT: note_on channel=9 note=38 velocity=127 time=0.00458715
EXTRACT: note_on channel=9 note=42 velocity=42 time=0
EXTRACT: note_on channel=9 note=38 velocity=0 time=0.045871499999999996
EXTRACT: note_on channel=9 note=42 velocity=0 time=0
EXTRACT: note_on channel=9 note=69 velocity=74 time=0.2293575
EXTRACT: note_on channel=9 note=61 velocity=44 time=0
EXTRACT: note_on channel=9 note=42 velocity=42 time=0
EXTRACT: note_on channel=9 note=69 velocity=0 time=0.045871499999999996
EXTRACT: note_on channel=9 note=61 velocity=0 time=0
EXTRACT: note_on channel=9 note=42 velocity=0 time=0
EXTRACT: note_on channel=9 note=61 velocity=44 time=0.09174299999999999
EXTRACT: note_on channel=9 note=61 velocity=0 time=0.045871499999999996
EXTRACT: note_on channel=9 note=39 velocity=57 time=0.0733944
EXTRACT: note_on channel=3 note=55 velocity=0 time=0.00458715
EXTRACT: note_on channel=3 note=60 velocity=0 time=0
EXTRACT: note_on channel=3 note=63 velocity=0 time=0
EXTRACT: note_on channel=3 note=65 velocity=50 time=0
EXTRACT: note_on channel=3 note=56 velocity=71 time=0
EXTRACT: note_on channel=3 note=58 velocity=55 time=0
EXTRACT: note_on channel=3 note=61 velocity=61 time=0
EXTRACT: note_on channel=8 note=58 velocity=0 time=0.00458715
EXTRACT: note_on channel=8 note=67 velocity=0 time=0
EXTRACT: note_on channel=8 note=63 velocity=0 time=0
EXTRACT: note_on channel=0 note=34 velocity=101 time=0.00458715
EXTRACT: note_on channel=4 note=55 velocity=0 time=0
EXTRACT: note_on channel=4 note=63 velocity=0 time=0
EXTRACT: note_on channel=4 note=58 velocity=75 time=0
EXTRACT: note_on channel=4 note=65 velocity=64 time=0
EXTRACT: note_on channel=8 note=67 velocity=108 time=0
EXTRACT: note_on channel=1 note=34 velocity=104 time=0.00458715
EXTRACT: note_on channel=9 note=61 velocity=44 time=0
EXTRACT: note_on channel=9 note=42 velocity=42 time=0
EXTRACT: note_on channel=9 note=36 velocity=98 time=0
EXTRACT: note_on channel=2 note=55 velocity=0 time=0.00458715
EXTRACT: note_on channel=2 note=60 velocity=0 time=0
EXTRACT: note_on channel=2 note=63 velocity=0 time=0
EXTRACT: note_on channel=2 note=65 velocity=67 time=0
EXTRACT: note_on channel=2 note=56 velocity=69 time=0
EXTRACT: note_on channel=2 note=58 velocity=89 time=0
EXTRACT: note_on channel=2 note=61 velocity=62 time=0
EXTRACT: note_on channel=9 note=39 velocity=0 time=0.022935749999999998
EXTRACT: note_on channel=9 note=61 velocity=0 time=0.0183486
EXTRACT: note_on channel=9 note=42 velocity=0 time=0
EXTRACT: note_on channel=9 note=36 velocity=0 time=0
EXTRACT: note_on channel=9 note=39 velocity=64 time=0.0733944
EXTRACT: note_on channel=9 note=61 velocity=44 time=0.0183486
EXTRACT: note_on channel=9 note=39 velocity=0 time=0.0275229
EXTRACT: note_on channel=9 note=61 velocity=0 time=0.0183486
EXTRACT: note_on channel=0 note=34 velocity=0 time=0.08715584999999999
EXTRACT: note_on channel=9 note=64 velocity=50 time=0
EXTRACT: note_on channel=1 note=34 velocity=0 time=0.00458715
EXTRACT: note_on channel=9 note=61 velocity=44 time=0
EXTRACT: note_on channel=9 note=42 velocity=42 time=0
EXTRACT: note_on channel=9 note=64 velocity=0 time=0.04128435
EXTRACT: note_on channel=9 note=61 velocity=0 time=0.00458715
EXTRACT: note_on channel=9 note=42 velocity=0 time=0
EXTRACT: note_on channel=0 note=34 velocity=92 time=0.08715584999999999
EXTRACT: note_on channel=9 note=63 velocity=50 time=0
EXTRACT: note_on channel=1 note=34 velocity=95 time=0.00458715
EXTRACT: note_on channel=9 note=36 velocity=98 time=0
EXTRACT: note_on channel=9 note=63 velocity=0 time=0.04128435
EXTRACT: note_on channel=9 note=36 velocity=0 time=0.00458715
EXTRACT: note_on channel=9 note=39 velocity=61 time=0.0733944
EXTRACT: note_on channel=0 note=34 velocity=0 time=0.01376145
EXTRACT: note_on channel=9 note=64 velocity=50 time=0
EXTRACT: note_on channel=1 note=34 velocity=0 time=0.00458715
EXTRACT: note_on channel=9 note=38 velocity=127 time=0
EXTRACT: note_on channel=9 note=42 velocity=42 time=0
EXTRACT: note_on channel=9 note=39 velocity=0 time=0.0275229
EXTRACT: note_on channel=9 note=64 velocity=0 time=0.01376145
EXTRACT: note_on channel=9 note=38 velocity=0 time=0.00458715
EXTRACT: note_on channel=9 note=42 velocity=0 time=0
EXTRACT: note_on channel=9 note=39 velocity=59 time=0.0733944
EXTRACT: note_on channel=9 note=64 velocity=50 time=0.01376145
EXTRACT: note_on channel=9 note=39 velocity=0 time=0.03211005
EXTRACT: note_on channel=9 note=64 velocity=0 time=0.01376145
EXTRACT: note_on channel=8 note=67 velocity=0 time=0.08715584999999999
EXTRACT: note_on channel=0 note=34 velocity=99 time=0.00458715
EXTRACT: note_on channel=8 note=67 velocity=108 time=0
EXTRACT: note_on channel=9 note=63 velocity=50 time=0
EXTRACT: note_on channel=1 note=34 velocity=97 time=0.00458715
EXTRACT: note_on channel=9 note=69 velocity=76 time=0
EXTRACT: note_on channel=9 note=42 velocity=42 time=0
EXTRACT: note_on channel=9 note=63 velocity=0 time=0.04128435
EXTRACT: note_on channel=9 note=69 velocity=0 time=0.00458715
EXTRACT: note_on channel=9 note=42 velocity=0 time=0
EXTRACT: note_on channel=0 note=34 velocity=0 time=0.08715584999999999
EXTRACT: note_on channel=1 note=34 velocity=0 time=0.00458715
EXTRACT: note_on channel=9 note=69 velocity=76 time=0
EXTRACT: note_on channel=9 note=69 velocity=0 time=0.045871499999999996
EXTRACT: note_on channel=9 note=39 velocity=52 time=0.0733944
EXTRACT: note_on channel=3 note=65 velocity=0 time=0.00458715
EXTRACT: note_on channel=3 note=56 velocity=0 time=0
EXTRACT: note_on channel=3 note=58 velocity=0 time=0
EXTRACT: note_on channel=3 note=61 velocity=0 time=0
EXTRACT: note_on channel=3 note=61 velocity=73 time=0
EXTRACT: note_on channel=3 note=55 velocity=57 time=0
EXTRACT: note_on channel=3 note=58 velocity=67 time=0
EXTRACT: note_on channel=3 note=63 velocity=73 time=0
EXTRACT: note_on channel=8 note=67 velocity=0 time=0.00458715
EXTRACT: note_on channel=0 note=39 velocity=102 time=0.00458715
EXTRACT: note_on channel=4 note=58 velocity=0 time=0
EXTRACT: note_on channel=4 note=65 velocity=0 time=0
EXTRACT: note_on channel=4 note=55 velocity=91 time=0
EXTRACT: note_on channel=4 note=63 velocity=80 time=0
EXTRACT: note_on channel=6 note=32 velocity=107 time=0
EXTRACT: note_on channel=8 note=65 velocity=93 time=0
EXTRACT: note_on channel=1 note=39 velocity=93 time=0.00458715
EXTRACT: note_on channel=9 note=29 velocity=45 time=0
EXTRACT: note_on channel=9 note=36 velocity=92 time=0
EXTRACT: note_on channel=2 note=65 velocity=0 time=0.00458715
EXTRACT: note_on channel=2 note=56 velocity=0 time=0
EXTRACT: note_on channel=2 note=58 velocity=0 time=0
EXTRACT: note_on channel=2 note=61 velocity=0 time=0
EXTRACT: note_on channel=2 note=61 velocity=92 time=0
EXTRACT: note_on channel=2 note=55 velocity=70 time=0
EXTRACT: note_on channel=2 note=58 velocity=82 time=0
EXTRACT: note_on channel=2 note=63 velocity=88 time=0
EXTRACT: note_on channel=9 note=39 velocity=0 time=0.022935749999999998
EXTRACT: note_on channel=9 note=29 velocity=0 time=0.0183486
EXTRACT: note_on channel=9 note=36 velocity=0 time=0
EXTRACT: note_on channel=9 note=39 velocity=68 time=0.0733944
EXTRACT: note_on channel=6 note=32 velocity=0 time=0.0126146625
EXTRACT: note_on channel=6 note=32 velocity=90 time=0.0011467875
EXTRACT: note_on channel=9 note=64 velocity=50 time=0
EXTRACT: note_on channel=9 note=29 velocity=31 time=0.00458715
EXTRACT: note_on channel=9 note=41 velocity=70 time=0
EXTRACT: note_on channel=9 note=39 velocity=0 time=0.0275229
EXTRACT: note_on channel=9 note=64 velocity=0 time=0.01376145
EXTRACT: note_on channel=9 note=29 velocity=0 time=0.00458715
EXTRACT: note_on channel=9 note=41 velocity=0 time=0
EXTRACT: note_on channel=8 note=65 velocity=0 time=0.0825687
EXTRACT: note_on channel=6 note=32 velocity=0 time=0.0034403625
EXTRACT: note_on channel=0 note=39 velocity=0 time=0.0011467875
EXTRACT: note_on channel=6 note=32 velocity=101 time=0
EXTRACT: note_on channel=8 note=63 velocity=112 time=0
EXTRACT: note_on channel=9 note=48 velocity=50 time=0
EXTRACT: note_on channel=1 note=39 velocity=0 time=0.00458715
EXTRACT: note_on channel=9 note=29 velocity=45 time=0
EXTRACT: note_on channel=9 note=36 velocity=92 time=0
EXTRACT: note_on channel=9 note=48 velocity=0 time=0.04128435
EXTRACT: note_on channel=9 note=29 velocity=0 time=0.00458715
EXTRACT: note_on channel=9 note=36 velocity=0 time=0
EXTRACT: note_on channel=6 note=32 velocity=0 time=0.0860090625
EXTRACT: note_on channel=0 note=39 velocity=92 time=0.0011467875
EXTRACT: note_on channel=6 note=32 velocity=80 time=0
EXTRACT: note_on channel=9 note=64 velocity=50 time=0
EXTRACT: note_on channel=1 note=39 velocity=109 time=0.00458715
EXTRACT: note_on channel=9 note=29 velocity=31 time=0
EXTRACT: note_on channel=9 note=41 velocity=70 time=0
EXTRACT: note_on channel=9 note=64 velocity=0 time=0.04128435
EXTRACT: note_on channel=9 note=29 velocity=0 time=0.00458715
EXTRACT: note_on channel=9 note=41 velocity=0 time=0
EXTRACT: note_on channel=9 note=39 velocity=65 time=0.0733944
EXTRACT: note_on channel=8 note=63 velocity=0 time=0.0091743
EXTRACT: note_on channel=6 note=32 velocity=0 time=0.0034403625
EXTRACT: note_on channel=0 note=39 velocity=0 time=0.0011467875
EXTRACT: note_on channel=6 note=32 velocity=106 time=0
EXTRACT: note_on channel=8 note=63 velocity=110 time=0
EXTRACT: note_on channel=9 note=63 velocity=50 time=0
EXTRACT: note_on channel=1 note=39 velocity=0 time=0.00458715
EXTRACT: note_on channel=9 note=29 velocity=45 time=0
EXTRACT: note_on channel=9 note=38 velocity=127 time=0
EXTRACT: note_on channel=9 note=36 velocity=92 time=0
EXTRACT: note_on channel=9 note=39 velocity=0 time=0.0275229
EXTRACT: note_on channel=9 note=63 velocity=0 time=0.01376145
EXTRACT: note_on channel=9 note=29 velocity=0 time=0.00458715
EXTRACT: note_on channel=9 note=38 velocity=0 time=0
EXTRACT: note_on channel=9 note=36 velocity=0 time=0
EXTRACT: note_on channel=9 note=39 velocity=32 time=0.0733944
EXTRACT: note_on channel=6 note=32 velocity=0 time=0.0126146625
EXTRACT: note_on channel=6 note=32 velocity=91 time=0.0011467875
EXTRACT: note_on channel=9 note=29 velocity=31 time=0.00458715
EXTRACT: note_on channel=9 note=41 velocity=70 time=0
EXTRACT: note_on channel=9 note=39 velocity=0 time=0.0275229
EXTRACT: note_on channel=9 note=29 velocity=0 time=0.0183486
EXTRACT: note_on channel=9 note=41 velocity=0 time=0
EXTRACT: note_on channel=9 note=39 velocity=59 time=0.0733944
EXTRACT: note_on channel=6 note=32 velocity=0 time=0.0126146625
EXTRACT: note_on channel=6 note=32 velocity=104 time=0.0011467875
EXTRACT: note_on channel=9 note=61 velocity=44 time=0.00458715
EXTRACT: note_on channel=9 note=29 velocity=45 time=0
EXTRACT: note_on channel=9 note=36 velocity=92 time=0
EXTRACT: note_on channel=9 note=39 velocity=0 time=0.0275229
EXTRACT: note_on channel=9 note=61 velocity=0 time=0.0183486
EXTRACT: note_on channel=9 note=29 velocity=0 time=0
EXTRACT: note_on channel=9 note=36 velocity=0 time=0
EXTRACT: note_on channel=9 note=39 velocity=39 time=0.0733944
EXTRACT: note_on channel=6 note=32 velocity=0 time=0.0126146625
EXTRACT: note_on channel=6 note=32 velocity=92 time=0.0011467875
EXTRACT: note_on channel=9 note=61 velocity=44 time=0.00458715
EXTRACT: note_on channel=9 note=29 velocity=31 time=0
EXTRACT: note_on channel=9 note=41 velocity=70 time=0
EXTRACT: note_on channel=9 note=39 velocity=0 time=0.0275229
EXTRACT: note_on channel=9 note=61 velocity=0 time=0.0183486
EXTRACT: note_on channel=9 note=29 velocity=0 time=0
EXTRACT: note_on channel=9 note=41 velocity=0 time=0
EXTRACT: note_on channel=3 note=61 velocity=0 time=0.07798155
EXTRACT: note_on channel=3 note=55 velocity=0 time=0
EXTRACT: note_on channel=3 note=58 velocity=0 time=0
EXTRACT: note_on channel=3 note=63 velocity=0 time=0
EXTRACT: note_on channel=3 note=44 velocity=26 time=0
EXTRACT: note_on channel=3 note=55 velocity=70 time=0
EXTRACT: note_on channel=3 note=63 velocity=79 time=0
EXTRACT: note_on channel=3 note=60 velocity=79 time=0
EXTRACT: note_on channel=8 note=63 velocity=0 time=0.00458715
EXTRACT: note_on channel=0 note=32 velocity=92 time=0.00458715
EXTRACT: note_on channel=4 note=55 velocity=0 time=0
EXTRACT: note_on channel=4 note=63 velocity=0 time=0
EXTRACT: note_on channel=4 note=91 velocity=106 time=0
EXTRACT: note_on channel=4 note=79 velocity=106 time=0
EXTRACT: note_on channel=4 note=55 velocity=106 time=0
EXTRACT: note_on channel=4 note=63 velocity=93 time=0
EXTRACT: note_on channel=6 note=32 velocity=0 time=0
EXTRACT: note_on channel=8 note=67 velocity=91 time=0
EXTRACT: note_on channel=1 note=32 velocity=111 time=0.00458715
EXTRACT: note_on channel=9 note=61 velocity=44 time=0
EXTRACT: note_on channel=9 note=57 velocity=100 time=0
EXTRACT: note_on channel=9 note=36 velocity=98 time=0
EXTRACT: note_on channel=2 note=61 velocity=0 time=0.00458715
EXTRACT: note_on channel=2 note=55 velocity=0 time=0
EXTRACT: note_on channel=2 note=58 velocity=0 time=0
EXTRACT: note_on channel=2 note=63 velocity=0 time=0
EXTRACT: note_on channel=2 note=44 velocity=61 time=0
EXTRACT: note_on channel=2 note=55 velocity=82 time=0
EXTRACT: note_on channel=2 note=63 velocity=67 time=0
EXTRACT: note_on channel=2 note=60 velocity=61 time=0
EXTRACT: note_on channel=9 note=61 velocity=0 time=0.04128435
EXTRACT: note_on channel=9 note=57 velocity=0 time=0
EXTRACT: note_on channel=9 note=36 velocity=0 time=0
EXTRACT: note_on channel=9 note=39 velocity=56 time=0.2110089
EXTRACT: note_on channel=0 note=32 velocity=0 time=0.01376145
EXTRACT: note_on channel=1 note=32 velocity=0 time=0.00458715
EXTRACT: note_on channel=9 note=42 velocity=42 time=0
EXTRACT: note_on channel=9 note=39 velocity=0 time=0.0275229
EXTRACT: note_on channel=9 note=42 velocity=0 time=0.0183486
EXTRACT: note_on channel=0 note=32 velocity=97 time=0.08715584999999999
EXTRACT: note_on channel=1 note=32 velocity=104 time=0.00458715
EXTRACT: note_on channel=9 note=61 velocity=44 time=0
EXTRACT: note_on channel=9 note=36 velocity=98 time=0
EXTRACT: note_on channel=9 note=61 velocity=0 time=0.045871499999999996
EXTRACT: note_on channel=9 note=36 velocity=0 time=0
EXTRACT: note_on channel=0 note=32 velocity=0 time=0.08715584999999999
EXTRACT: note_on channel=1 note=32 velocity=0 time=0.00458715
EXTRACT: note_on channel=9 note=38 velocity=127 time=0
EXTRACT: note_on channel=9 note=42 velocity=42 time=0
EXTRACT: note_on channel=9 note=38 velocity=0 time=0.045871499999999996
EXTRACT: note_on channel=9 note=42 velocity=0 time=0
EXTRACT: note_on channel=9 note=39 velocity=56 time=0.0733944
EXTRACT: note_on channel=9 note=39 velocity=0 time=0.045871499999999996
EXTRACT: note_on channel=8 note=67 velocity=0 time=0.1009173
EXTRACT: note_on channel=8 note=67 velocity=90 time=0.00458715
EXTRACT: note_on channel=9 note=69 velocity=82 time=0.00458715
EXTRACT: note_on channel=9 note=42 velocity=42 time=0
EXTRACT: note_on channel=9 note=69 velocity=0 time=0.045871499999999996
EXTRACT: note_on channel=9 note=42 velocity=0 time=0
EXTRACT: note_on channel=9 note=69 velocity=81 time=0.09174299999999999
EXTRACT: note_on channel=9 note=69 velocity=0 time=0.045871499999999996
EXTRACT: note_on channel=9 note=39 velocity=60 time=0.0733944
EXTRACT: note_on channel=8 note=67 velocity=0 time=0.0091743
EXTRACT: note_on channel=8 note=65 velocity=93 time=0.00458715
EXTRACT: note_on channel=9 note=69 velocity=78 time=0.00458715
EXTRACT: note_on channel=9 note=42 velocity=42 time=0
EXTRACT: note_on channel=9 note=39 velocity=0 time=0.0275229
EXTRACT: note_on channel=9 note=69 velocity=0 time=0.0183486
EXTRACT: note_on channel=9 note=42 velocity=0 time=0
EXTRACT: note_on channel=8 note=65 velocity=0 time=0.2201832
EXTRACT: note_on channel=8 note=63 velocity=110 time=0.00458715
EXTRACT: note_on channel=9 note=42 velocity=42 time=0.00458715
EXTRACT: note_on channel=9 note=36 velocity=98 time=0
EXTRACT: note_on channel=9 note=42 velocity=0 time=0.045871499999999996
EXTRACT: note_on channel=9 note=36 velocity=0 time=0
EXTRACT: note_on channel=9 note=39 velocity=55 time=0.0733944
EXTRACT: note_on channel=9 note=39 velocity=0 time=0.045871499999999996
EXTRACT: note_on channel=8 note=63 velocity=0 time=0.1009173
EXTRACT: note_on channel=8 note=63 velocity=85 time=0.00458715
EXTRACT: note_on channel=9 note=38 velocity=127 time=0.00458715
EXTRACT: note_on channel=9 note=42 velocity=42 time=0
EXTRACT: note_on channel=9 note=38 velocity=0 time=0.045871499999999996
EXTRACT: note_on channel=9 note=42 velocity=0 time=0
EXTRACT: note_on channel=9 note=69 velocity=81 time=0.2293575
EXTRACT: note_on channel=9 note=61 velocity=44 time=0
EXTRACT: note_on channel=9 note=42 velocity=42 time=0
EXTRACT: note_on channel=9 note=69 velocity=0 time=0.045871499999999996
EXTRACT: note_on channel=9 note=61 velocity=0 time=0
EXTRACT: note_on channel=9 note=42 velocity=0 time=0
EXTRACT: note_on channel=9 note=61 velocity=44 time=0.09174299999999999
EXTRACT: note_on channel=9 note=61 velocity=0 time=0.045871499999999996
EXTRACT: note_on channel=3 note=44 velocity=0 time=0.07798155
EXTRACT: note_on channel=3 note=55 velocity=0 time=0
EXTRACT: note_on channel=3 note=63 velocity=0 time=0
EXTRACT: note_on channel=3 note=60 velocity=0 time=0
EXTRACT: note_on channel=3 note=55 velocity=67 time=0
EXTRACT: note_on channel=3 note=63 velocity=68 time=0
EXTRACT: note_on channel=3 note=59 velocity=66 time=0
EXTRACT: note_on channel=8 note=63 velocity=0 time=0.00458715
EXTRACT: note_on channel=0 note=31 velocity=105 time=0.00458715
EXTRACT: note_on channel=8 note=67 velocity=85 time=0
EXTRACT: note_on channel=1 note=31 velocity=112 time=0.00458715
EXTRACT: note_on channel=9 note=61 velocity=44 time=0
EXTRACT: note_on channel=9 note=42 velocity=42 time=0
EXTRACT: note_on channel=9 note=36 velocity=98 time=0
EXTRACT: note_on channel=2 note=44 velocity=0 time=0.00458715
EXTRACT: note_on channel=2 note=55 velocity=0 time=0
EXTRACT: note_on channel=2 note=63 velocity=0 time=0
EXTRACT: note_on channel=2 note=60 velocity=0 time=0
EXTRACT: note_on channel=2 note=55 velocity=72 time=0
EXTRACT: note_on channel=2 note=63 velocity=92 time=0
EXTRACT: note_on channel=2 note=59 velocity=84 time=0
EXTRACT: note_on channel=9 note=61 velocity=0 time=0.04128435
EXTRACT: note_on channel=9 note=42 velocity=0 time=0
EXTRACT: note_on channel=9 note=36 velocity=0 time=0
EXTRACT: note_on channel=9 note=61 velocity=44 time=0.09174299999999999
EXTRACT: note_on channel=9 note=61 velocity=0 time=0.045871499999999996
EXTRACT: note_on channel=9 note=39 velocity=58 time=0.0733944
EXTRACT: note_on channel=0 note=31 velocity=0 time=0.01376145
EXTRACT: note_on channel=9 note=64 velocity=50 time=0
EXTRACT: note_on channel=1 note=31 velocity=0 time=0.00458715
EXTRACT: note_on channel=9 note=61 velocity=44 time=0
EXTRACT: note_on channel=9 note=42 velocity=42 time=0
EXTRACT: note_on channel=9 note=39 velocity=0 time=0.0275229
EXTRACT: note_on channel=9 note=64 velocity=0 time=0.01376145
EXTRACT: note_on channel=9 note=61 velocity=0 time=0.00458715
EXTRACT: note_on channel=9 note=42 velocity=0 time=0
EXTRACT: note_on channel=0 note=31 velocity=82 time=0.08715584999999999
EXTRACT: note_on channel=9 note=63 velocity=50 time=0
EXTRACT: note_on channel=1 note=31 velocity=104 time=0.00458715
EXTRACT: note_on channel=9 note=36 velocity=98 time=0
EXTRACT: note_on channel=9 note=63 velocity=0 time=0.04128435
EXTRACT: note_on channel=9 note=36 velocity=0 time=0.00458715
EXTRACT: note_on channel=0 note=31 velocity=0 time=0.08715584999999999
EXTRACT: note_on channel=9 note=64 velocity=50 time=0
EXTRACT: note_on channel=1 note=31 velocity=0 time=0.00458715
EXTRACT: note_on channel=9 note=38 velocity=127 time=0
EXTRACT: note_on channel=9 note=42 velocity=42 time=0
EXTRACT: note_on channel=9 note=64 velocity=0 time=0.04128435
EXTRACT: note_on channel=9 note=38 velocity=0 time=0.00458715
EXTRACT: note_on channel=9 note=42 velocity=0 time=0
EXTRACT: note_on channel=9 note=39 velocity=72 time=0.0733944
EXTRACT: note_on channel=9 note=64 velocity=50 time=0.01376145
EXTRACT: note_on channel=9 note=39 velocity=0 time=0.03211005
EXTRACT: note_on channel=9 note=64 velocity=0 time=0.01376145
EXTRACT: note_on channel=8 note=67 velocity=0 time=0.08715584999999999
EXTRACT: note_on channel=8 note=67 velocity=96 time=0.00458715
EXTRACT: note_on channel=9 note=63 velocity=50 time=0
EXTRACT: note_on channel=9 note=69 velocity=79 time=0.00458715
EXTRACT: note_on channel=9 note=42 velocity=42 time=0
EXTRACT: note_on channel=9 note=63 velocity=0 time=0.04128435
EXTRACT: note_on channel=9 note=69 velocity=0 time=0.00458715
EXTRACT: note_on channel=9 note=42 velocity=0 time=0
EXTRACT: note_on channel=9 note=69 velocity=77 time=0.09174299999999999
EXTRACT: note_on channel=9 note=69 velocity=0 time=0.045871499999999996
EXTRACT: note_on channel=9 note=39 velocity=67 time=0.0733944
EXTRACT: note_on channel=8 note=67 velocity=0 time=0.0091743
EXTRACT: note_on channel=8 note=65 velocity=86 time=0.00458715
EXTRACT: note_on channel=9 note=69 velocity=79 time=0.00458715
EXTRACT: note_on channel=9 note=42 velocity=42 time=0
EXTRACT: note_on channel=9 note=39 velocity=0 time=0.0275229
EXTRACT: note_on channel=9 note=69 velocity=0 time=0.0183486
EXTRACT: note_on channel=9 note=42 velocity=0 time=0
EXTRACT: note_on channel=9 note=64 velocity=50 time=0.08715584999999999
EXTRACT: note_on channel=9 note=64 velocity=0 time=0.045871499999999996
EXTRACT: note_on channel=8 note=65 velocity=0 time=0.08715584999999999
EXTRACT: note_on channel=8 note=63 velocity=96 time=0.00458715
EXTRACT: note_on channel=9 note=48 velocity=50 time=0
EXTRACT: note_on channel=9 note=42 velocity=42 time=0.00458715
EXTRACT: note_on channel=9 note=36 velocity=98 time=0
EXTRACT: note_on channel=9 note=48 velocity=0 time=0.04128435
EXTRACT: note_on channel=9 note=42 velocity=0 time=0.00458715
EXTRACT: note_on channel=9 note=36 velocity=0 time=0
EXTRACT: note_on channel=9 note=39 velocity=61 time=0.0733944
EXTRACT: note_on channel=9 note=64 velocity=50 time=0.01376145
EXTRACT: note_on channel=9 note=39 velocity=0 time=0.03211005
EXTRACT: note_on channel=9 note=64 velocity=0 time=0.01376145
EXTRACT: note_on channel=8 note=63 velocity=0 time=0.08715584999999999
EXTRACT: note_on channel=8 note=63 velocity=95 time=0.00458715
EXTRACT: note_on channel=9 note=63 velocity=50 time=0
EXTRACT: note_on channel=9 note=38 velocity=127 time=0.00458715
EXTRACT: note_on channel=9 note=42 velocity=42 time=0
EXTRACT: note_on channel=9 note=63 velocity=0 time=0.04128435
EXTRACT: note_on channel=9 note=38 velocity=0 time=0.00458715
EXTRACT: note_on channel=9 note=42 velocity=0 time=0
EXTRACT: note_on channel=9 note=61 velocity=44 time=0.2293575
EXTRACT: note_on channel=9 note=36 velocity=92 time=0
EXTRACT: note_on channel=9 note=42 velocity=42 time=0
EXTRACT: note_on channel=9 note=61 velocity=0 time=0.045871499999999996
EXTRACT: note_on channel=9 note=36 velocity=0 time=0
EXTRACT: note_on channel=9 note=42 velocity=0 time=0
EXTRACT: note_on channel=9 note=61 velocity=44 time=0.09174299999999999
EXTRACT: note_on channel=9 note=36 velocity=92 time=0
EXTRACT: note_on channel=9 note=61 velocity=0 time=0.045871499999999996
EXTRACT: note_on channel=9 note=36 velocity=0 time=0
EXTRACT: note_on channel=3 note=55 velocity=0 time=0.07798155
EXTRACT: note_on channel=3 note=63 velocity=0 time=0
EXTRACT: note_on channel=3 note=59 velocity=0 time=0
EXTRACT: note_on channel=3 note=55 velocity=82 time=0
EXTRACT: note_on channel=3 note=60 velocity=59 time=0
EXTRACT: note_on channel=3 note=63 velocity=54 time=0
EXTRACT: note_on channel=8 note=63 velocity=0 time=0.00458715
EXTRACT: note_on channel=0 note=36 velocity=83 time=0.00458715
EXTRACT: note_on channel=4 note=91 velocity=0 time=0
EXTRACT: note_on channel=4 note=79 velocity=0 time=0
EXTRACT: note_on channel=8 note=63 velocity=97 time=0
EXTRACT: note_on channel=8 note=72 velocity=91 time=0
EXTRACT: note_on channel=8 note=68 velocity=86 time=0
EXTRACT: note_on channel=1 note=36 velocity=92 time=0.00458715
EXTRACT: note_on channel=9 note=61 velocity=44 time=0
EXTRACT: note_on channel=9 note=42 velocity=42 time=0
EXTRACT: note_on channel=9 note=36 velocity=98 time=0
EXTRACT: note_on channel=2 note=55 velocity=0 time=0.00458715
EXTRACT: note_on channel=2 note=63 velocity=0 time=0
EXTRACT: note_on channel=2 note=59 velocity=0 time=0
EXTRACT: note_on channel=2 note=55 velocity=60 time=0
EXTRACT: note_on channel=2 note=60 velocity=85 time=0
EXTRACT: note_on channel=2 note=63 velocity=61 time=0
EXTRACT: note_on channel=9 note=61 velocity=0 time=0.04128435
EXTRACT: note_on channel=9 note=42 velocity=0 time=0
EXTRACT: note_on channel=9 note=36 velocity=0 time=0
EXTRACT: note_on channel=9 note=39 velocity=56 time=0.2110089
EXTRACT: note_on channel=0 note=36 velocity=0 time=0.01376145
EXTRACT: note_on channel=1 note=36 velocity=0 time=0.00458715
EXTRACT: note_on channel=9 note=42 velocity=42 time=0
EXTRACT: note_on channel=9 note=39 velocity=0 time=0.0275229
EXTRACT: note_on channel=9 note=42 velocity=0 time=0.0183486
EXTRACT: note_on channel=0 note=36 velocity=102 time=0.08715584999999999
EXTRACT: note_on channel=1 note=36 velocity=98 time=0.00458715
EXTRACT: note_on channel=9 note=61 velocity=44 time=0
EXTRACT: note_on channel=9 note=36 velocity=98 time=0
EXTRACT: note_on channel=9 note=61 velocity=0 time=0.045871499999999996
EXTRACT: note_on channel=9 note=36 velocity=0 time=0
EXTRACT: note_on channel=8 note=63 velocity=0 time=0.0825687
EXTRACT: note_on channel=8 note=72 velocity=0 time=0
EXTRACT: note_on channel=8 note=68 velocity=0 time=0
EXTRACT: note_on channel=0 note=36 velocity=0 time=0.00458715
EXTRACT: note_on channel=8 note=63 velocity=97 time=0
EXTRACT: note_on channel=8 note=70 velocity=87 time=0
EXTRACT: note_on channel=8 note=67 velocity=112 time=0
EXTRACT: note_on channel=1 note=36 velocity=0 time=0.00458715
EXTRACT: note_on channel=9 note=38 velocity=127 time=0
EXTRACT: note_on channel=9 note=42 velocity=42 time=0
EXTRACT: note_on channel=9 note=38 velocity=0 time=0.045871499999999996
EXTRACT: note_on channel=9 note=42 velocity=0 time=0
EXTRACT: note_on channel=9 note=39 velocity=65 time=0.0733944
EXTRACT: note_on channel=9 note=39 velocity=0 time=0.045871499999999996
EXTRACT: note_on channel=9 note=69 velocity=82 time=0.1100916
EXTRACT: note_on channel=9 note=42 velocity=42 time=0
EXTRACT: note_on channel=9 note=69 velocity=0 time=0.045871499999999996
EXTRACT: note_on channel=9 note=42 velocity=0 time=0
EXTRACT: note_on channel=9 note=69 velocity=75 time=0.09174299999999999
EXTRACT: note_on channel=9 note=69 velocity=0 time=0.045871499999999996
EXTRACT: note_on channel=9 note=39 velocity=64 time=0.0733944
EXTRACT: note_on channel=8 note=63 velocity=0 time=0.0091743
EXTRACT: note_on channel=8 note=70 velocity=0 time=0
EXTRACT: note_on channel=8 note=67 velocity=0 time=0
EXTRACT: note_on channel=8 note=60 velocity=72 time=0.00458715
EXTRACT: note_on channel=8 note=68 velocity=100 time=0
EXTRACT: note_on channel=8 note=65 velocity=108 time=0
EXTRACT: note_on channel=9 note=69 velocity=79 time=0.00458715
EXTRACT: note_on channel=9 note=42 velocity=42 time=0
EXTRACT: note_on channel=9 note=39 velocity=0 time=0.0275229
EXTRACT: note_on channel=9 note=69 velocity=0 time=0.0183486
EXTRACT: note_on channel=9 note=42 velocity=0 time=0
EXTRACT: note_on channel=9 note=42 velocity=42 time=0.2293575
EXTRACT: note_on channel=9 note=36 velocity=98 time=0
EXTRACT: note_on channel=9 note=42 velocity=0 time=0.045871499999999996
EXTRACT: note_on channel=9 note=36 velocity=0 time=0
EXTRACT: note_on channel=9 note=39 velocity=64 time=0.0733944
EXTRACT: note_on channel=9 note=39 velocity=0 time=0.045871499999999996
EXTRACT: note_on channel=8 note=60 velocity=0 time=0.1009173
EXTRACT: note_on channel=8 note=68 velocity=0 time=0
EXTRACT: note_on channel=8 note=65 velocity=0 time=0
EXTRACT: note_on channel=8 note=58 velocity=70 time=0.00458715
EXTRACT: note_on channel=8 note=67 velocity=107 time=0
EXTRACT: note_on channel=8 note=63 velocity=106 time=0
EXTRACT: note_on channel=9 note=38 velocity=127 time=0.00458715
EXTRACT: note_on channel=9 note=42 velocity=42 time=0
EXTRACT: note_on channel=9 note=38 velocity=0 time=0.045871499999999996
EXTRACT: note_on channel=9 note=42 velocity=0 time=0
EXTRACT: note_on channel=9 note=69 velocity=80 time=0.2293575
EXTRACT: note_on channel=9 note=61 velocity=44 time=0
EXTRACT: note_on channel=9 note=42 velocity=42 time=0
EXTRACT: note_on channel=9 note=69 velocity=0 time=0.045871499999999996
EXTRACT: note_on channel=9 note=61 velocity=0 time=0
EXTRACT: note_on channel=9 note=42 velocity=0 time=0
EXTRACT: note_on channel=9 note=61 velocity=44 time=0.09174299999999999
EXTRACT: note_on channel=9 note=61 velocity=0 time=0.045871499999999996
EXTRACT: note_on channel=9 note=39 velocity=59 time=0.0733944
EXTRACT: note_on channel=3 note=55 velocity=0 time=0.00458715
EXTRACT: note_on channel=3 note=60 velocity=0 time=0
EXTRACT: note_on channel=3 note=63 velocity=0 time=0
EXTRACT: note_on channel=3 note=65 velocity=79 time=0
EXTRACT: note_on channel=3 note=56 velocity=61 time=0
EXTRACT: note_on channel=3 note=58 velocity=70 time=0
EXTRACT: note_on channel=3 note=61 velocity=51 time=0
EXTRACT: note_on channel=8 note=58 velocity=0 time=0.00458715
EXTRACT: note_on channel=8 note=67 velocity=0 time=0
EXTRACT: note_on channel=8 note=63 velocity=0 time=0
EXTRACT: note_on channel=0 note=34 velocity=101 time=0.00458715
EXTRACT: note_on channel=4 note=55 velocity=0 time=0
EXTRACT: note_on channel=4 note=63 velocity=0 time=0
EXTRACT: note_on channel=4 note=58 velocity=108 time=0
EXTRACT: note_on channel=4 note=65 velocity=80 time=0
EXTRACT: note_on channel=8 note=67 velocity=106 time=0
EXTRACT: note_on channel=1 note=34 velocity=95 time=0.00458715
EXTRACT: note_on channel=9 note=61 velocity=44 time=0
EXTRACT: note_on channel=9 note=42 velocity=42 time=0
EXTRACT: note_on channel=9 note=36 velocity=98 time=0
EXTRACT: note_on channel=2 note=55 velocity=0 time=0.00458715
EXTRACT: note_on channel=2 note=60 velocity=0 time=0
EXTRACT: note_on channel=2 note=63 velocity=0 time=0
EXTRACT: note_on channel=2 note=65 velocity=89 time=0
EXTRACT: note_on channel=2 note=56 velocity=75 time=0
EXTRACT: note_on channel=2 note=58 velocity=84 time=0
EXTRACT: note_on channel=2 note=61 velocity=74 time=0
EXTRACT: note_on channel=9 note=39 velocity=0 time=0.022935749999999998
EXTRACT: note_on channel=9 note=61 velocity=0 time=0.0183486
EXTRACT: note_on channel=9 note=42 velocity=0 time=0
EXTRACT: note_on channel=9 note=36 velocity=0 time=0
EXTRACT: note_on channel=9 note=39 velocity=71 time=0.0733944
EXTRACT: note_on channel=9 note=61 velocity=44 time=0.0183486
EXTRACT: note_on channel=9 note=39 velocity=0 time=0.0275229
EXTRACT: note_on channel=9 note=61 velocity=0 time=0.0183486
EXTRACT: note_on channel=0 note=34 velocity=0 time=0.08715584999999999
EXTRACT: note_on channel=9 note=64 velocity=50 time=0
EXTRACT: note_on channel=1 note=34 velocity=0 time=0.00458715
EXTRACT: note_on channel=9 note=61 velocity=44 time=0
EXTRACT: note_on channel=9 note=42 velocity=42 time=0
EXTRACT: note_on channel=9 note=64 velocity=0 time=0.04128435
EXTRACT: note_on channel=9 note=61 velocity=0 time=0.00458715
EXTRACT: note_on channel=9 note=42 velocity=0 time=0
EXTRACT: note_on channel=0 note=34 velocity=98 time=0.08715584999999999
EXTRACT: note_on channel=9 note=63 velocity=50 time=0
EXTRACT: note_on channel=1 note=34 velocity=98 time=0.00458715
EXTRACT: note_on channel=9 note=36 velocity=98 time=0
EXTRACT: note_on channel=9 note=63 velocity=0 time=0.04128435
EXTRACT: note_on channel=9 note=36 velocity=0 time=0.00458715
EXTRACT: note_on channel=9 note=39 velocity=53 time=0.0733944
EXTRACT: note_on channel=0 note=34 velocity=0 time=0.01376145
EXTRACT: note_on channel=9 note=64 velocity=50 time=0
EXTRACT: note_on channel=1 note=34 velocity=0 time=0.00458715
EXTRACT: note_on channel=9 note=38 velocity=127 time=0
EXTRACT: note_on channel=9 note=42 velocity=42 time=0
EXTRACT: note_on channel=9 note=39 velocity=0 time=0.0275229
EXTRACT: note_on channel=9 note=64 velocity=0 time=0.01376145
EXTRACT: note_on channel=9 note=38 velocity=0 time=0.00458715
EXTRACT: note_on channel=9 note=42 velocity=0 time=0
EXTRACT: note_on channel=9 note=39 velocity=74 time=0.0733944
EXTRACT: note_on channel=9 note=64 velocity=50 time=0.01376145
EXTRACT: note_on channel=9 note=39 velocity=0 time=0.03211005
EXTRACT: note_on channel=9 note=64 velocity=0 time=0.01376145
EXTRACT: note_on channel=8 note=67 velocity=0 time=0.08715584999999999
EXTRACT: note_on channel=0 note=34 velocity=101 time=0.00458715
EXTRACT: note_on channel=8 note=67 velocity=107 time=0
EXTRACT: note_on channel=9 note=63 velocity=50 time=0
EXTRACT: note_on channel=1 note=34 velocity=99 time=0.00458715
EXTRACT: note_on channel=9 note=69 velocity=81 time=0
EXTRACT: note_on channel=9 note=42 velocity=42 time=0
EXTRACT: note_on channel=9 note=63 velocity=0 time=0.04128435
EXTRACT: note_on channel=9 note=69 velocity=0 time=0.00458715
EXTRACT: note_on channel=9 note=42 velocity=0 time=0
EXTRACT: note_on channel=0 note=34 velocity=0 time=0.08715584999999999
EXTRACT: note_on channel=1 note=34 velocity=0 time=0.00458715
EXTRACT: note_on channel=9 note=36 velocity=92 time=0
EXTRACT: note_on channel=9 note=69 velocity=76 time=0
EXTRACT: note_on channel=9 note=36 velocity=0 time=0.045871499999999996
EXTRACT: note_on channel=9 note=69 velocity=0 time=0
EXTRACT: note_on channel=9 note=39 velocity=74 time=0.0733944
EXTRACT: note_on channel=3 note=65 velocity=0 time=0.00458715
EXTRACT: note_on channel=3 note=56 velocity=0 time=0
EXTRACT: note_on channel=3 note=58 velocity=0 time=0
EXTRACT: note_on channel=3 note=61 velocity=0 time=0
EXTRACT: note_on channel=3 note=61 velocity=60 time=0
EXTRACT: note_on channel=3 note=55 velocity=72 time=0
EXTRACT: note_on channel=3 note=58 velocity=57 time=0
EXTRACT: note_on channel=3 note=63 velocity=62 time=0
EXTRACT: note_on channel=8 note=67 velocity=0 time=0.00458715
EXTRACT: note_on channel=0 note=39 velocity=89 time=0.00458715
EXTRACT: note_on channel=4 note=58 velocity=0 time=0
EXTRACT: note_on channel=4 note=65 velocity=0 time=0
EXTRACT: note_on channel=4 note=55 velocity=105 time=0
EXTRACT: note_on channel=4 note=63 velocity=83 time=0
EXTRACT: note_on channel=8 note=65 velocity=97 time=0
EXTRACT: note_on channel=1 note=39 velocity=102 time=0.00458715
EXTRACT: note_on channel=9 note=36 velocity=98 time=0
EXTRACT: note_on channel=9 note=69 velocity=78 time=0
EXTRACT: note_on channel=9 note=42 velocity=42 time=0
EXTRACT: note_on channel=2 note=65 velocity=0 time=0.00458715
EXTRACT: note_on channel=2 note=56 velocity=0 time=0
EXTRACT: note_on channel=2 note=58 velocity=0 time=0
EXTRACT: note_on channel=2 note=61 velocity=0 time=0
EXTRACT: note_on channel=2 note=61 velocity=92 time=0
EXTRACT: note_on channel=2 note=55 velocity=72 time=0
EXTRACT: note_on channel=2 note=58 velocity=78 time=0
EXTRACT: note_on channel=2 note=63 velocity=61 time=0
EXTRACT: note_on channel=9 note=39 velocity=0 time=0.022935749999999998
EXTRACT: note_on channel=9 note=36 velocity=0 time=0.0183486
EXTRACT: note_on channel=9 note=69 velocity=0 time=0
EXTRACT: note_on channel=9 note=42 velocity=0 time=0
EXTRACT: note_on channel=9 note=39 velocity=73 time=0.0733944
EXTRACT: note_on channel=9 note=64 velocity=50 time=0.01376145
EXTRACT: note_on channel=9 note=39 velocity=0 time=0.03211005
EXTRACT: note_on channel=9 note=64 velocity=0 time=0.01376145
EXTRACT: note_on channel=8 note=65 velocity=0 time=0.08715584999999999
EXTRACT: note_on channel=0 note=39 velocity=0 time=0.00458715
EXTRACT: note_on channel=8 note=63 velocity=94 time=0
EXTRACT: note_on channel=9 note=48 velocity=50 time=0
EXTRACT: note_on channel=1 note=39 velocity=0 time=0.00458715
EXTRACT: note_on channel=9 note=36 velocity=92 time=0
EXTRACT: note_on channel=9 note=42 velocity=42 time=0
EXTRACT: note_on channel=9 note=48 velocity=0 time=0.04128435
EXTRACT: note_on channel=9 note=36 velocity=0 time=0.00458715
EXTRACT: note_on channel=9 note=42 velocity=0 time=0
EXTRACT: note_on channel=0 note=39 velocity=91 time=0.08715584999999999
EXTRACT: note_on channel=9 note=64 velocity=50 time=0
EXTRACT: note_on channel=1 note=39 velocity=110 time=0.00458715
EXTRACT: note_on channel=9 note=36 velocity=92 time=0
EXTRACT: note_on channel=9 note=64 velocity=0 time=0.04128435
EXTRACT: note_on channel=9 note=36 velocity=0 time=0.00458715
EXTRACT: note_on channel=9 note=39 velocity=72 time=0.0733944
EXTRACT: note_on channel=8 note=63 velocity=0 time=0.0091743
EXTRACT: note_on channel=0 note=39 velocity=0 time=0.00458715
EXTRACT: note_on channel=8 note=63 velocity=92 time=0
EXTRACT: note_on channel=9 note=63 velocity=50 time=0
EXTRACT: note_on channel=1 note=39 velocity=0 time=0.00458715
EXTRACT: note_on channel=9 note=38 velocity=127 time=0
EXTRACT: note_on channel=9 note=42 velocity=42 time=0
EXTRACT: note_on channel=9 note=39 velocity=0 time=0.0275229
EXTRACT: note_on channel=9 note=63 velocity=0 time=0.01376145
EXTRACT: note_on channel=9 note=38 velocity=0 time=0.00458715
EXTRACT: note_on channel=9 note=42 velocity=0 time=0
EXTRACT: note_on channel=9 note=39 velocity=45 time=0.0733944
EXTRACT: note_on channel=9 note=39 velocity=0 time=0.045871499999999996
EXTRACT: note_on channel=9 note=39 velocity=69 time=0.09174299999999999
EXTRACT: note_on channel=9 note=61 velocity=44 time=0.0183486
EXTRACT: note_on channel=9 note=36 velocity=92 time=0
EXTRACT: note_on channel=9 note=42 velocity=42 time=0
EXTRACT: note_on channel=9 note=39 velocity=0 time=0.0275229
EXTRACT: note_on channel=9 note=61 velocity=0 time=0.0183486
EXTRACT: note_on channel=9 note=36 velocity=0 time=0
EXTRACT: note_on channel=9 note=42 velocity=0 time=0
EXTRACT: note_on channel=9 note=39 velocity=34 time=0.0733944
EXTRACT: note_on channel=9 note=61 velocity=44 time=0.0183486
EXTRACT: note_on channel=9 note=36 velocity=92 time=0
EXTRACT: note_on channel=9 note=39 velocity=0 time=0.0275229
EXTRACT: note_on channel=9 note=61 velocity=0 time=0.0183486
EXTRACT: note_on channel=9 note=36 velocity=0 time=0
EXTRACT: note_on channel=3 note=61 velocity=0 time=0.07798155
EXTRACT: note_on channel=3 note=55 velocity=0 time=0
EXTRACT: note_on channel=3 note=58 velocity=0 time=0
EXTRACT: note_on channel=3 note=63 velocity=0 time=0
EXTRACT: note_on channel=3 note=44 velocity=42 time=0
EXTRACT: note_on channel=3 note=55 velocity=60 time=0
EXTRACT: note_on channel=3 note=63 velocity=62 time=0
EXTRACT: note_on channel=3 note=60 velocity=52 time=0
EXTRACT: note_on channel=8 note=63 velocity=0 time=0.00458715
EXTRACT: note_on channel=0 note=32 velocity=87 time=0.00458715
EXTRACT: note_on channel=4 note=55 velocity=0 time=0
EXTRACT: note_on channel=4 note=63 velocity=0 time=0
EXTRACT: note_on channel=4 note=79 velocity=105 time=0
EXTRACT: note_on channel=4 note=91 velocity=105 time=0
EXTRACT: note_on channel=4 note=55 velocity=105 time=0
EXTRACT: note_on channel=4 note=63 velocity=86 time=0
EXTRACT: note_on channel=8 note=67 velocity=104 time=0
EXTRACT: note_on channel=1 note=32 velocity=103 time=0.00458715
EXTRACT: note_on channel=9 note=61 velocity=44 time=0
EXTRACT: note_on channel=9 note=42 velocity=42 time=0
EXTRACT: note_on channel=9 note=36 velocity=98 time=0
EXTRACT: note_on channel=2 note=61 velocity=0 time=0.00458715
EXTRACT: note_on channel=2 note=55 velocity=0 time=0
EXTRACT: note_on channel=2 note=58 velocity=0 time=0
EXTRACT: note_on channel=2 note=63 velocity=0 time=0
EXTRACT: note_on channel=2 note=44 velocity=64 time=0
EXTRACT: note_on channel=2 note=55 velocity=74 time=0
EXTRACT: note_on channel=2 note=63 velocity=61 time=0
EXTRACT: note_on channel=2 note=60 velocity=80 time=0
EXTRACT: note_on channel=9 note=61 velocity=0 time=0.04128435
EXTRACT: note_on channel=9 note=42 velocity=0 time=0
EXTRACT: note_on channel=9 note=36 velocity=0 time=0
EXTRACT: note_on channel=9 note=39 velocity=68 time=0.2110089
EXTRACT: note_on channel=0 note=32 velocity=0 time=0.01376145
EXTRACT: note_on channel=1 note=32 velocity=0 time=0.00458715
EXTRACT: note_on channel=9 note=42 velocity=42 time=0
EXTRACT: note_on channel=9 note=39 velocity=0 time=0.0275229
EXTRACT: note_on channel=9 note=42 velocity=0 time=0.0183486
EXTRACT: note_on channel=0 note=32 velocity=93 time=0.08715584999999999
EXTRACT: note_on channel=1 note=32 velocity=110 time=0.00458715
EXTRACT: note_on channel=9 note=61 velocity=44 time=0
EXTRACT: note_on channel=9 note=36 velocity=98 time=0
EXTRACT: note_on channel=9 note=61 velocity=0 time=0.045871499999999996
EXTRACT: note_on channel=9 note=36 velocity=0 time=0
EXTRACT: note_on channel=0 note=32 velocity=0 time=0.08715584999999999
EXTRACT: note_on channel=1 note=32 velocity=0 time=0.00458715
EXTRACT: note_on channel=9 note=38 velocity=127 time=0
EXTRACT: note_on channel=9 note=42 velocity=42 time=0
EXTRACT: note_on channel=9 note=38 velocity=0 time=0.045871499999999996
EXTRACT: note_on channel=9 note=42 velocity=0 time=0
EXTRACT: note_on channel=9 note=39 velocity=51 time=0.0733944
EXTRACT: note_on channel=9 note=39 velocity=0 time=0.045871499999999996
EXTRACT: note_on channel=8 note=67 velocity=0 time=0.1009173
EXTRACT: note_on channel=8 note=67 velocity=105 time=0.00458715
EXTRACT: note_on channel=9 note=69 velocity=78 time=0.00458715
EXTRACT: note_on channel=9 note=42 velocity=42 time=0
EXTRACT: note_on channel=9 note=69 velocity=0 time=0.045871499999999996
EXTRACT: note_on channel=9 note=42 velocity=0 time=0
EXTRACT: note_on channel=9 note=69 velocity=76 time=0.09174299999999999
EXTRACT: note_on channel=9 note=69 velocity=0 time=0.045871499999999996
EXTRACT: note_on channel=9 note=39 velocity=72 time=0.0733944
EXTRACT: note_on channel=8 note=67 velocity=0 time=0.0091743
EXTRACT: note_on channel=8 note=65 velocity=90 time=0.00458715
EXTRACT: note_on channel=9 note=69 velocity=74 time=0.00458715
EXTRACT: note_on channel=9 note=42 velocity=42 time=0
EXTRACT: note_on channel=9 note=39 velocity=0 time=0.0275229
EXTRACT: note_on channel=9 note=69 velocity=0 time=0.0183486
EXTRACT: note_on channel=9 note=42 velocity=0 time=0
EXTRACT: note_on channel=8 note=65 velocity=0 time=0.2201832
EXTRACT: note_on channel=8 note=63 velocity=93 time=0.00458715
EXTRACT: note_on channel=9 note=42 velocity=42 time=0.00458715
EXTRACT: note_on channel=9 note=36 velocity=98 time=0
EXTRACT: note_on channel=9 note=42 velocity=0 time=0.045871499999999996
EXTRACT: note_on channel=9 note=36 velocity=0 time=0
EXTRACT: note_on channel=9 note=39 velocity=74 time=0.0733944
EXTRACT: note_on channel=9 note=39 velocity=0 time=0.045871499999999996
EXTRACT: note_on channel=8 note=63 velocity=0 time=0.1009173
EXTRACT: note_on channel=8 note=63 velocity=98 time=0.00458715
EXTRACT: note_on channel=9 note=38 velocity=127 time=0.00458715
EXTRACT: note_on channel=9 note=42 velocity=42 time=0
EXTRACT: note_on channel=9 note=38 velocity=0 time=0.045871499999999996
EXTRACT: note_on channel=9 note=42 velocity=0 time=0
EXTRACT: note_on channel=9 note=69 velocity=75 time=0.2293575
EXTRACT: note_on channel=9 note=61 velocity=44 time=0
EXTRACT: note_on channel=9 note=42 velocity=42 time=0
EXTRACT: note_on channel=9 note=69 velocity=0 time=0.045871499999999996
EXTRACT: note_on channel=9 note=61 velocity=0 time=0
EXTRACT: note_on channel=9 note=42 velocity=0 time=0
EXTRACT: note_on channel=9 note=61 velocity=44 time=0.09174299999999999
EXTRACT: note_on channel=9 note=61 velocity=0 time=0.045871499999999996
EXTRACT: note_on channel=3 note=44 velocity=0 time=0.07798155
EXTRACT: note_on channel=3 note=55 velocity=0 time=0
EXTRACT: note_on channel=3 note=63 velocity=0 time=0
EXTRACT: note_on channel=3 note=60 velocity=0 time=0
EXTRACT: note_on channel=3 note=55 velocity=62 time=0
EXTRACT: note_on channel=3 note=63 velocity=76 time=0
EXTRACT: note_on channel=3 note=59 velocity=71 time=0
EXTRACT: note_on channel=8 note=63 velocity=0 time=0.00458715
EXTRACT: note_on channel=0 note=31 velocity=98 time=0.00458715
EXTRACT: note_on channel=8 note=67 velocity=110 time=0
EXTRACT: note_on channel=1 note=31 velocity=103 time=0.00458715
EXTRACT: note_on channel=9 note=61 velocity=44 time=0
EXTRACT: note_on channel=9 note=42 velocity=42 time=0
EXTRACT: note_on channel=9 note=36 velocity=98 time=0
EXTRACT: note_on channel=2 note=44 velocity=0 time=0.00458715
EXTRACT: note_on channel=2 note=55 velocity=0 time=0
EXTRACT: note_on channel=2 note=63 velocity=0 time=0
EXTRACT: note_on channel=2 note=60 velocity=0 time=0
EXTRACT: note_on channel=2 note=55 velocity=71 time=0
EXTRACT: note_on channel=2 note=63 velocity=75 time=0
EXTRACT: note_on channel=2 note=59 velocity=70 time=0
EXTRACT: note_on channel=9 note=61 velocity=0 time=0.04128435
EXTRACT: note_on channel=9 note=42 velocity=0 time=0
EXTRACT: note_on channel=9 note=36 velocity=0 time=0
EXTRACT: note_on channel=9 note=61 velocity=44 time=0.09174299999999999
EXTRACT: note_on channel=9 note=61 velocity=0 time=0.045871499999999996
EXTRACT: note_on channel=9 note=39 velocity=55 time=0.0733944
EXTRACT: note_on channel=0 note=31 velocity=0 time=0.01376145
EXTRACT: note_on channel=9 note=64 velocity=50 time=0
EXTRACT: note_on channel=1 note=31 velocity=0 time=0.00458715
EXTRACT: note_on channel=9 note=61 velocity=44 time=0
EXTRACT: note_on channel=9 note=42 velocity=42 time=0
EXTRACT: note_on channel=9 note=39 velocity=0 time=0.0275229
EXTRACT: note_on channel=9 note=64 velocity=0 time=0.01376145
EXTRACT: note_on channel=9 note=61 velocity=0 time=0.00458715
EXTRACT: note_on channel=9 note=42 velocity=0 time=0
EXTRACT: note_on channel=0 note=31 velocity=95 time=0.08715584999999999
EXTRACT: note_on channel=9 note=63 velocity=50 time=0
EXTRACT: note_on channel=1 note=31 velocity=93 time=0.00458715
EXTRACT: note_on channel=9 note=36 velocity=98 time=0
EXTRACT: note_on channel=9 note=63 velocity=0 time=0.04128435
EXTRACT: note_on channel=9 note=36 velocity=0 time=0.00458715
EXTRACT: note_on channel=0 note=31 velocity=0 time=0.08715584999999999
EXTRACT: note_on channel=9 note=64 velocity=50 time=0
EXTRACT: note_on channel=1 note=31 velocity=0 time=0.00458715
EXTRACT: note_on channel=9 note=38 velocity=127 time=0
EXTRACT: note_on channel=9 note=42 velocity=42 time=0
EXTRACT: note_on channel=9 note=64 velocity=0 time=0.04128435
EXTRACT: note_on channel=9 note=38 velocity=0 time=0.00458715
EXTRACT: note_on channel=9 note=42 velocity=0 time=0
EXTRACT: note_on channel=9 note=39 velocity=74 time=0.0733944
EXTRACT: note_on channel=9 note=64 velocity=50 time=0.01376145
EXTRACT: note_on channel=9 note=39 velocity=0 time=0.03211005
EXTRACT: note_on channel=9 note=64 velocity=0 time=0.01376145
EXTRACT: note_on channel=8 note=67 velocity=0 time=0.08715584999999999
EXTRACT: note_on channel=8 note=67 velocity=116 time=0.00458715
EXTRACT: note_on channel=9 note=63 velocity=50 time=0
EXTRACT: note_on channel=9 note=69 velocity=74 time=0.00458715
EXTRACT: note_on channel=9 note=42 velocity=42 time=0
EXTRACT: note_on channel=9 note=63 velocity=0 time=0.04128435
EXTRACT: note_on channel=9 note=69 velocity=0 time=0.00458715
EXTRACT: note_on channel=9 note=42 velocity=0 time=0
EXTRACT: note_on channel=9 note=69 velocity=76 time=0.09174299999999999
EXTRACT: note_on channel=9 note=69 velocity=0 time=0.045871499999999996
EXTRACT: note_on channel=9 note=39 velocity=67 time=0.0733944
EXTRACT: note_on channel=8 note=67 velocity=0 time=0.0091743
EXTRACT: note_on channel=8 note=65 velocity=96 time=0.00458715
EXTRACT: note_on channel=9 note=69 velocity=77 time=0.00458715
EXTRACT: note_on channel=9 note=42 velocity=42 time=0
EXTRACT: note_on channel=9 note=39 velocity=0 time=0.0275229
EXTRACT: note_on channel=9 note=69 velocity=0 time=0.0183486
EXTRACT: note_on channel=9 note=42 velocity=0 time=0
EXTRACT: note_on channel=9 note=64 velocity=50 time=0.08715584999999999
EXTRACT: note_on channel=9 note=64 velocity=0 time=0.045871499999999996
EXTRACT: note_on channel=8 note=65 velocity=0 time=0.08715584999999999
EXTRACT: note_on channel=0 note=34 velocity=89 time=0.00458715
EXTRACT: note_on channel=8 note=63 velocity=86 time=0
EXTRACT: note_on channel=9 note=48 velocity=50 time=0
EXTRACT: note_on channel=1 note=34 velocity=93 time=0.00458715
EXTRACT: note_on channel=9 note=42 velocity=42 time=0
EXTRACT: note_on channel=9 note=36 velocity=98 time=0
EXTRACT: note_on channel=9 note=48 velocity=0 time=0.04128435
EXTRACT: note_on channel=9 note=42 velocity=0 time=0.00458715
EXTRACT: note_on channel=9 note=36 velocity=0 time=0
EXTRACT: note_on channel=9 note=39 velocity=69 time=0.0733944
EXTRACT: note_on channel=0 note=34 velocity=0 time=0.01376145
EXTRACT: note_on channel=9 note=64 velocity=50 time=0
EXTRACT: note_on channel=1 note=34 velocity=0 time=0.00458715
EXTRACT: note_on channel=9 note=39 velocity=0 time=0.0275229
EXTRACT: note_on channel=9 note=64 velocity=0 time=0.01376145
EXTRACT: note_on channel=8 note=63 velocity=0 time=0.08715584999999999
EXTRACT: note_on channel=8 note=63 velocity=112 time=0.00458715
EXTRACT: note_on channel=9 note=63 velocity=50 time=0
EXTRACT: note_on channel=9 note=38 velocity=127 time=0.00458715
EXTRACT: note_on channel=9 note=42 velocity=42 time=0
EXTRACT: note_on channel=9 note=63 velocity=0 time=0.04128435
EXTRACT: note_on channel=9 note=38 velocity=0 time=0.00458715
EXTRACT: note_on channel=9 note=42 velocity=0 time=0
EXTRACT: note_on channel=0 note=34 velocity=88 time=0.08715584999999999
EXTRACT: note_on channel=1 note=34 velocity=110 time=0.00458715
EXTRACT: note_on channel=0 note=34 velocity=0 time=0.13302735
EXTRACT: note_on channel=1 note=34 velocity=0 time=0.00458715
EXTRACT: note_on channel=9 note=61 velocity=44 time=0
EXTRACT: note_on channel=9 note=36 velocity=92 time=0
EXTRACT: note_on channel=9 note=42 velocity=42 time=0
EXTRACT: note_on channel=9 note=61 velocity=0 time=0.045871499999999996
EXTRACT: note_on channel=9 note=36 velocity=0 time=0
EXTRACT: note_on channel=9 note=42 velocity=0 time=0
EXTRACT: note_on channel=9 note=61 velocity=44 time=0.09174299999999999
EXTRACT: note_on channel=9 note=36 velocity=92 time=0
EXTRACT: note_on channel=9 note=61 velocity=0 time=0.045871499999999996
EXTRACT: note_on channel=9 note=36 velocity=0 time=0
EXTRACT: note_on channel=3 note=55 velocity=0 time=0.07798155
EXTRACT: note_on channel=3 note=63 velocity=0 time=0
EXTRACT: note_on channel=3 note=59 velocity=0 time=0
EXTRACT: note_on channel=3 note=55 velocity=58 time=0
EXTRACT: note_on channel=3 note=60 velocity=82 time=0
EXTRACT: note_on channel=3 note=63 velocity=77 time=0
EXTRACT: note_on channel=8 note=63 velocity=0 time=0.00458715
EXTRACT: note_on channel=0 note=36 velocity=92 time=0.00458715
EXTRACT: note_on channel=4 note=79 velocity=0 time=0
EXTRACT: note_on channel=4 note=91 velocity=0 time=0
EXTRACT: note_on channel=8 note=63 velocity=76 time=0
EXTRACT: note_on channel=8 note=72 velocity=71 time=0
EXTRACT: note_on channel=8 note=68 velocity=116 time=0
EXTRACT: note_on channel=1 note=36 velocity=113 time=0.00458715
EXTRACT: note_on channel=9 note=61 velocity=44 time=0
EXTRACT: note_on channel=9 note=42 velocity=42 time=0
EXTRACT: note_on channel=9 note=36 velocity=98 time=0
EXTRACT: note_on channel=2 note=55 velocity=0 time=0.00458715
EXTRACT: note_on channel=2 note=63 velocity=0 time=0
EXTRACT: note_on channel=2 note=59 velocity=0 time=0
EXTRACT: note_on channel=2 note=55 velocity=63 time=0
EXTRACT: note_on channel=2 note=60 velocity=82 time=0
EXTRACT: note_on channel=2 note=63 velocity=76 time=0
EXTRACT: note_on channel=9 note=61 velocity=0 time=0.04128435
EXTRACT: note_on channel=9 note=42 velocity=0 time=0
EXTRACT: note_on channel=9 note=36 velocity=0 time=0
EXTRACT: note_on channel=9 note=39 velocity=67 time=0.2110089
EXTRACT: note_on channel=0 note=36 velocity=0 time=0.01376145
EXTRACT: note_on channel=1 note=36 velocity=0 time=0.00458715
EXTRACT: note_on channel=9 note=42 velocity=42 time=0
EXTRACT: note_on channel=9 note=39 velocity=0 time=0.0275229
EXTRACT: note_on channel=9 note=42 velocity=0 time=0.0183486
EXTRACT: note_on channel=0 note=36 velocity=100 time=0.08715584999999999
EXTRACT: note_on channel=1 note=36 velocity=98 time=0.00458715
EXTRACT: note_on channel=9 note=61 velocity=44 time=0
EXTRACT: note_on channel=9 note=36 velocity=98 time=0
EXTRACT: note_on channel=9 note=61 velocity=0 time=0.045871499999999996
EXTRACT: note_on channel=9 note=36 velocity=0 time=0
EXTRACT: note_on channel=8 note=63 velocity=0 time=0.0825687
EXTRACT: note_on channel=8 note=72 velocity=0 time=0
EXTRACT: note_on channel=8 note=68 velocity=0 time=0
EXTRACT: note_on channel=0 note=36 velocity=0 time=0.00458715
EXTRACT: note_on channel=8 note=63 velocity=70 time=0
EXTRACT: note_on channel=8 note=70 velocity=65 time=0
EXTRACT: note_on channel=8 note=67 velocity=96 time=0
EXTRACT: note_on channel=1 note=36 velocity=0 time=0.00458715
EXTRACT: note_on channel=9 note=38 velocity=127 time=0
EXTRACT: note_on channel=9 note=42 velocity=42 time=0
EXTRACT: note_on channel=9 note=38 velocity=0 time=0.045871499999999996
EXTRACT: note_on channel=9 note=42 velocity=0 time=0
EXTRACT: note_on channel=9 note=39 velocity=73 time=0.0733944
EXTRACT: note_on channel=9 note=39 velocity=0 time=0.045871499999999996
EXTRACT: note_on channel=9 note=69 velocity=75 time=0.1100916
EXTRACT: note_on channel=9 note=42 velocity=42 time=0
EXTRACT: note_on channel=9 note=69 velocity=0 time=0.045871499999999996
EXTRACT: note_on channel=9 note=42 velocity=0 time=0
EXTRACT: note_on channel=9 note=69 velocity=82 time=0.09174299999999999
EXTRACT: note_on channel=9 note=69 velocity=0 time=0.045871499999999996
EXTRACT: note_on channel=9 note=39 velocity=73 time=0.0733944
EXTRACT: note_on channel=8 note=63 velocity=0 time=0.0091743
EXTRACT: note_on channel=8 note=70 velocity=0 time=0
EXTRACT: note_on channel=8 note=67 velocity=0 time=0
EXTRACT: note_on channel=8 note=60 velocity=109 time=0.00458715
EXTRACT: note_on channel=8 note=68 velocity=107 time=0
EXTRACT: note_on channel=8 note=65 velocity=96 time=0
EXTRACT: note_on channel=9 note=69 velocity=77 time=0.00458715
EXTRACT: note_on channel=9 note=42 velocity=42 time=0
EXTRACT: note_on channel=9 note=39 velocity=0 time=0.0275229
EXTRACT: note_on channel=9 note=69 velocity=0 time=0.0183486
EXTRACT: note_on channel=9 note=42 velocity=0 time=0
EXTRACT: note_on channel=9 note=42 velocity=42 time=0.2293575
EXTRACT: note_on channel=9 note=36 velocity=98 time=0
EXTRACT: note_on channel=9 note=42 velocity=0 time=0.045871499999999996
EXTRACT: note_on channel=9 note=36 velocity=0 time=0
EXTRACT: note_on channel=9 note=39 velocity=65 time=0.0733944
EXTRACT: note_on channel=9 note=39 velocity=0 time=0.045871499999999996
EXTRACT: note_on channel=8 note=60 velocity=0 time=0.1009173
EXTRACT: note_on channel=8 note=68 velocity=0 time=0
EXTRACT: note_on channel=8 note=65 velocity=0 time=0
EXTRACT: note_on channel=8 note=58 velocity=101 time=0.00458715
EXTRACT: note_on channel=8 note=67 velocity=97 time=0
EXTRACT: note_on channel=8 note=63 velocity=106 time=0
EXTRACT: note_on channel=9 note=38 velocity=127 time=0.00458715
EXTRACT: note_on channel=9 note=42 velocity=42 time=0
EXTRACT: note_on channel=9 note=38 velocity=0 time=0.045871499999999996
EXTRACT: note_on channel=9 note=42 velocity=0 time=0
EXTRACT: note_on channel=9 note=69 velocity=77 time=0.2293575
EXTRACT: note_on channel=9 note=61 velocity=44 time=0
EXTRACT: note_on channel=9 note=42 velocity=42 time=0
EXTRACT: note_on channel=9 note=69 velocity=0 time=0.045871499999999996
EXTRACT: note_on channel=9 note=61 velocity=0 time=0
EXTRACT: note_on channel=9 note=42 velocity=0 time=0
EXTRACT: note_on channel=9 note=61 velocity=44 time=0.09174299999999999
EXTRACT: note_on channel=9 note=61 velocity=0 time=0.045871499999999996
EXTRACT: note_on channel=9 note=39 velocity=69 time=0.0733944
EXTRACT: note_on channel=3 note=55 velocity=0 time=0.00458715
EXTRACT: note_on channel=3 note=60 velocity=0 time=0
EXTRACT: note_on channel=3 note=63 velocity=0 time=0
EXTRACT: note_on channel=3 note=65 velocity=53 time=0
EXTRACT: note_on channel=3 note=56 velocity=75 time=0
EXTRACT: note_on channel=3 note=58 velocity=67 time=0
EXTRACT: note_on channel=3 note=61 velocity=81 time=0
EXTRACT: note_on channel=8 note=58 velocity=0 time=0.00458715
EXTRACT: note_on channel=8 note=67 velocity=0 time=0
EXTRACT: note_on channel=8 note=63 velocity=0 time=0
EXTRACT: note_on channel=0 note=34 velocity=103 time=0.00458715
EXTRACT: note_on channel=4 note=55 velocity=0 time=0
EXTRACT: note_on channel=4 note=63 velocity=0 time=0
EXTRACT: note_on channel=4 note=58 velocity=97 time=0
EXTRACT: note_on channel=4 note=65 velocity=92 time=0
EXTRACT: note_on channel=8 note=67 velocity=105 time=0
EXTRACT: note_on channel=1 note=34 velocity=101 time=0.00458715
EXTRACT: note_on channel=9 note=61 velocity=44 time=0
EXTRACT: note_on channel=9 note=42 velocity=42 time=0
EXTRACT: note_on channel=9 note=36 velocity=98 time=0
EXTRACT: note_on channel=2 note=55 velocity=0 time=0.00458715
EXTRACT: note_on channel=2 note=60 velocity=0 time=0
EXTRACT: note_on channel=2 note=63 velocity=0 time=0
EXTRACT: note_on channel=2 note=65 velocity=60 time=0
EXTRACT: note_on channel=2 note=56 velocity=65 time=0
EXTRACT: note_on channel=2 note=58 velocity=64 time=0
EXTRACT: note_on channel=2 note=61 velocity=73 time=0
EXTRACT: note_on channel=9 note=39 velocity=0 time=0.022935749999999998
EXTRACT: note_on channel=9 note=61 velocity=0 time=0.0183486
EXTRACT: note_on channel=9 note=42 velocity=0 time=0
EXTRACT: note_on channel=9 note=36 velocity=0 time=0
EXTRACT: note_on channel=9 note=39 velocity=59 time=0.0733944
EXTRACT: note_on channel=9 note=61 velocity=44 time=0.0183486
EXTRACT: note_on channel=9 note=39 velocity=0 time=0.0275229
EXTRACT: note_on channel=9 note=61 velocity=0 time=0.0183486
EXTRACT: note_on channel=0 note=34 velocity=0 time=0.08715584999999999
EXTRACT: note_on channel=9 note=64 velocity=50 time=0
EXTRACT: note_on channel=1 note=34 velocity=0 time=0.00458715
EXTRACT: note_on channel=9 note=61 velocity=44 time=0
EXTRACT: note_on channel=9 note=42 velocity=42 time=0
EXTRACT: note_on channel=9 note=64 velocity=0 time=0.04128435
EXTRACT: note_on channel=9 note=61 velocity=0 time=0.00458715
EXTRACT: note_on channel=9 note=42 velocity=0 time=0
EXTRACT: note_on channel=0 note=34 velocity=105 time=0.08715584999999999
EXTRACT: note_on channel=9 note=63 velocity=50 time=0
EXTRACT: note_on channel=1 note=34 velocity=95 time=0.00458715
EXTRACT: note_on channel=9 note=36 velocity=98 time=0
EXTRACT: note_on channel=9 note=63 velocity=0 time=0.04128435
EXTRACT: note_on channel=9 note=36 velocity=0 time=0.00458715
EXTRACT: note_on channel=9 note=39 velocity=59 time=0.0733944
EXTRACT: note_on channel=0 note=34 velocity=0 time=0.01376145
EXTRACT: note_on channel=9 note=64 velocity=50 time=0
EXTRACT: note_on channel=1 note=34 velocity=0 time=0.00458715
EXTRACT: note_on channel=9 note=38 velocity=127 time=0
EXTRACT: note_on channel=9 note=42 velocity=42 time=0
EXTRACT: note_on channel=9 note=39 velocity=0 time=0.0275229
EXTRACT: note_on channel=9 note=64 velocity=0 time=0.01376145
EXTRACT: note_on channel=9 note=38 velocity=0 time=0.00458715
EXTRACT: note_on channel=9 note=42 velocity=0 time=0
EXTRACT: note_on channel=9 note=39 velocity=56 time=0.0733944
EXTRACT: note_on channel=9 note=64 velocity=50 time=0.01376145
EXTRACT: note_on channel=9 note=39 velocity=0 time=0.03211005
EXTRACT: note_on channel=9 note=64 velocity=0 time=0.01376145
EXTRACT: note_on channel=8 note=67 velocity=0 time=0.08715584999999999
EXTRACT: note_on channel=0 note=34 velocity=98 time=0.00458715
EXTRACT: note_on channel=8 note=67 velocity=87 time=0
EXTRACT: note_on channel=9 note=63 velocity=50 time=0
EXTRACT: note_on channel=1 note=34 velocity=107 time=0.00458715
EXTRACT: note_on channel=9 note=69 velocity=76 time=0
EXTRACT: note_on channel=9 note=42 velocity=42 time=0
EXTRACT: note_on channel=9 note=63 velocity=0 time=0.04128435
EXTRACT: note_on channel=9 note=69 velocity=0 time=0.00458715
EXTRACT: note_on channel=9 note=42 velocity=0 time=0
EXTRACT: note_on channel=0 note=34 velocity=0 time=0.08715584999999999
EXTRACT: note_on channel=1 note=34 velocity=0 time=0.00458715
EXTRACT: note_on channel=9 note=69 velocity=80 time=0
EXTRACT: note_on channel=9 note=69 velocity=0 time=0.045871499999999996
EXTRACT: note_on channel=9 note=39 velocity=59 time=0.0733944
EXTRACT: note_on channel=3 note=65 velocity=0 time=0.00458715
EXTRACT: note_on channel=3 note=56 velocity=0 time=0
EXTRACT: note_on channel=3 note=58 velocity=0 time=0
EXTRACT: note_on channel=3 note=61 velocity=0 time=0
EXTRACT: note_on channel=3 note=61 velocity=78 time=0
EXTRACT: note_on channel=3 note=55 velocity=66 time=0
EXTRACT: note_on channel=3 note=58 velocity=77 time=0
EXTRACT: note_on channel=3 note=63 velocity=80 time=0
EXTRACT: note_on channel=8 note=67 velocity=0 time=0.00458715
EXTRACT: note_on channel=0 note=39 velocity=88 time=0.00458715
EXTRACT: note_on channel=4 note=58 velocity=0 time=0
EXTRACT: note_on channel=4 note=65 velocity=0 time=0
EXTRACT: note_on channel=4 note=55 velocity=96 time=0
EXTRACT: note_on channel=4 note=63 velocity=106 time=0
EXTRACT: note_on channel=6 note=32 velocity=90 time=0
EXTRACT: note_on channel=8 note=65 velocity=93 time=0
EXTRACT: note_on channel=1 note=39 velocity=100 time=0.00458715
EXTRACT: note_on channel=9 note=29 velocity=45 time=0
EXTRACT: note_on channel=9 note=36 velocity=92 time=0
EXTRACT: note_on channel=2 note=65 velocity=0 time=0.00458715
EXTRACT: note_on channel=2 note=56 velocity=0 time=0
EXTRACT: note_on channel=2 note=58 velocity=0 time=0
EXTRACT: note_on channel=2 note=61 velocity=0 time=0
EXTRACT: note_on channel=2 note=61 velocity=87 time=0
EXTRACT: note_on channel=2 note=55 velocity=75 time=0
EXTRACT: note_on channel=2 note=58 velocity=78 time=0
EXTRACT: note_on channel=2 note=63 velocity=66 time=0
EXTRACT: note_on channel=9 note=39 velocity=0 time=0.022935749999999998
EXTRACT: note_on channel=9 note=29 velocity=0 time=0.0183486
EXTRACT: note_on channel=9 note=36 velocity=0 time=0
EXTRACT: note_on channel=9 note=39 velocity=70 time=0.0733944
EXTRACT: note_on channel=6 note=32 velocity=0 time=0.0126146625
EXTRACT: note_on channel=6 note=32 velocity=76 time=0.0011467875
EXTRACT: note_on channel=9 note=64 velocity=50 time=0
EXTRACT: note_on channel=9 note=29 velocity=31 time=0.00458715
EXTRACT: note_on channel=9 note=41 velocity=70 time=0
EXTRACT: note_on channel=9 note=39 velocity=0 time=0.0275229
EXTRACT: note_on channel=9 note=64 velocity=0 time=0.01376145
EXTRACT: note_on channel=9 note=29 velocity=0 time=0.00458715
EXTRACT: note_on channel=9 note=41 velocity=0 time=0
EXTRACT: note_on channel=8 note=65 velocity=0 time=0.0825687
EXTRACT: note_on channel=6 note=32 velocity=0 time=0.0034403625
EXTRACT: note_on channel=0 note=39 velocity=0 time=0.0011467875
EXTRACT: note_on channel=6 note=32 velocity=91 time=0
EXTRACT: note_on channel=8 note=63 velocity=106 time=0
EXTRACT: note_on channel=9 note=48 velocity=50 time=0
EXTRACT: note_on channel=1 note=39 velocity=0 time=0.00458715
EXTRACT: note_on channel=9 note=29 velocity=45 time=0
EXTRACT: note_on channel=9 note=36 velocity=92 time=0
EXTRACT: note_on channel=9 note=48 velocity=0 time=0.04128435
EXTRACT: note_on channel=9 note=29 velocity=0 time=0.00458715
EXTRACT: note_on channel=9 note=36 velocity=0 time=0
EXTRACT: note_on channel=6 note=32 velocity=0 time=0.0860090625
EXTRACT: note_on channel=0 note=39 velocity=99 time=0.0011467875
EXTRACT: note_on channel=6 note=32 velocity=97 time=0
EXTRACT: note_on channel=9 note=64 velocity=50 time=0
EXTRACT: note_on channel=1 note=39 velocity=110 time=0.00458715
EXTRACT: note_on channel=9 note=29 velocity=31 time=0
EXTRACT: note_on channel=9 note=41 velocity=70 time=0
EXTRACT: note_on channel=9 note=64 velocity=0 time=0.04128435
EXTRACT: note_on channel=9 note=29 velocity=0 time=0.00458715
EXTRACT: note_on channel=9 note=41 velocity=0 time=0
EXTRACT: note_on channel=9 note=39 velocity=68 time=0.0733944
EXTRACT: note_on channel=8 note=63 velocity=0 time=0.0091743
EXTRACT: note_on channel=6 note=32 velocity=0 time=0.0034403625
EXTRACT: note_on channel=0 note=39 velocity=0 time=0.0011467875
EXTRACT: note_on channel=6 note=32 velocity=94 time=0
EXTRACT: note_on channel=8 note=63 velocity=117 time=0
EXTRACT: note_on channel=9 note=63 velocity=50 time=0
EXTRACT: note_on channel=1 note=39 velocity=0 time=0.00458715
EXTRACT: note_on channel=9 note=29 velocity=45 time=0
EXTRACT: note_on channel=9 note=38 velocity=127 time=0
EXTRACT: note_on channel=9 note=36 velocity=92 time=0
EXTRACT: note_on channel=9 note=39 velocity=0 time=0.0275229
EXTRACT: note_on channel=9 note=63 velocity=0 time=0.01376145
EXTRACT: note_on channel=9 note=29 velocity=0 time=0.00458715
EXTRACT: note_on channel=9 note=38 velocity=0 time=0
EXTRACT: note_on channel=9 note=36 velocity=0 time=0
EXTRACT: note_on channel=9 note=39 velocity=37 time=0.0733944
EXTRACT: note_on channel=6 note=32 velocity=0 time=0.0126146625
EXTRACT: note_on channel=6 note=32 velocity=83 time=0.0011467875
EXTRACT: note_on channel=9 note=29 velocity=31 time=0.00458715
EXTRACT: note_on channel=9 note=41 velocity=70 time=0
EXTRACT: note_on channel=9 note=39 velocity=0 time=0.0275229
EXTRACT: note_on channel=9 note=29 velocity=0 time=0.0183486
EXTRACT: note_on channel=9 note=41 velocity=0 time=0
EXTRACT: note_on channel=9 note=39 velocity=74 time=0.0733944
EXTRACT: note_on channel=6 note=32 velocity=0 time=0.0126146625
EXTRACT: note_on channel=6 note=32 velocity=106 time=0.0011467875
EXTRACT: note_on channel=9 note=61 velocity=44 time=0.00458715
EXTRACT: note_on channel=9 note=29 velocity=45 time=0
EXTRACT: note_on channel=9 note=36 velocity=92 time=0
EXTRACT: note_on channel=9 note=39 velocity=0 time=0.0275229
EXTRACT: note_on channel=9 note=61 velocity=0 time=0.0183486
EXTRACT: note_on channel=9 note=29 velocity=0 time=0
EXTRACT: note_on channel=9 note=36 velocity=0 time=0
EXTRACT: note_on channel=9 note=39 velocity=35 time=0.0733944
EXTRACT: note_on channel=6 note=32 velocity=0 time=0.0126146625
EXTRACT: note_on channel=6 note=32 velocity=60 time=0.0011467875
EXTRACT: note_on channel=9 note=61 velocity=44 time=0.00458715
EXTRACT: note_on channel=9 note=29 velocity=31 time=0
EXTRACT: note_on channel=9 note=41 velocity=70 time=0
EXTRACT: note_on channel=9 note=39 velocity=0 time=0.0275229
EXTRACT: note_on channel=9 note=61 velocity=0 time=0.0183486
EXTRACT: note_on channel=9 note=29 velocity=0 time=0
EXTRACT: note_on channel=9 note=41 velocity=0 time=0
EXTRACT: note_on channel=3 note=61 velocity=0 time=0.07798155
EXTRACT: note_on channel=3 note=55 velocity=0 time=0
EXTRACT: note_on channel=3 note=58 velocity=0 time=0
EXTRACT: note_on channel=3 note=63 velocity=0 time=0
EXTRACT: note_on channel=3 note=44 velocity=44 time=0
EXTRACT: note_on channel=3 note=55 velocity=57 time=0
EXTRACT: note_on channel=3 note=63 velocity=54 time=0
EXTRACT: note_on channel=3 note=60 velocity=52 time=0
EXTRACT: note_on channel=8 note=63 velocity=0 time=0.00458715
EXTRACT: note_on channel=0 note=32 velocity=89 time=0.00458715
EXTRACT: note_on channel=4 note=55 velocity=0 time=0
EXTRACT: note_on channel=4 note=63 velocity=0 time=0
EXTRACT: note_on channel=4 note=55 velocity=87 time=0
EXTRACT: note_on channel=4 note=63 velocity=112 time=0
EXTRACT: note_on channel=6 note=32 velocity=0 time=0
EXTRACT: note_on channel=8 note=67 velocity=103 time=0
EXTRACT: note_on channel=1 note=32 velocity=94 time=0.00458715
EXTRACT: note_on channel=9 note=61 velocity=44 time=0
EXTRACT: note_on channel=9 note=57 velocity=100 time=0
EXTRACT: note_on channel=9 note=36 velocity=98 time=0
EXTRACT: note_on channel=2 note=61 velocity=0 time=0.00458715
EXTRACT: note_on channel=2 note=55 velocity=0 time=0
EXTRACT: note_on channel=2 note=58 velocity=0 time=0
EXTRACT: note_on channel=2 note=63 velocity=0 time=0
EXTRACT: note_on channel=2 note=44 velocity=30 time=0
EXTRACT: note_on channel=2 note=55 velocity=79 time=0
EXTRACT: note_on channel=2 note=63 velocity=69 time=0
EXTRACT: note_on channel=2 note=60 velocity=78 time=0
EXTRACT: note_on channel=9 note=61 velocity=0 time=0.04128435
EXTRACT: note_on channel=9 note=57 velocity=0 time=0
EXTRACT: note_on channel=9 note=36 velocity=0 time=0
EXTRACT: note_on channel=9 note=39 velocity=66 time=0.2110089
EXTRACT: note_on channel=0 note=32 velocity=0 time=0.01376145
EXTRACT: note_on channel=1 note=32 velocity=0 time=0.00458715
EXTRACT: note_on channel=9 note=42 velocity=42 time=0
EXTRACT: note_on channel=9 note=39 velocity=0 time=0.0275229
EXTRACT: note_on channel=9 note=42 velocity=0 time=0.0183486
EXTRACT: note_on channel=0 note=32 velocity=90 time=0.08715584999999999
EXTRACT: note_on channel=1 note=32 velocity=110 time=0.00458715
EXTRACT: note_on channel=9 note=61 velocity=44 time=0
EXTRACT: note_on channel=9 note=36 velocity=98 time=0
EXTRACT: note_on channel=9 note=61 velocity=0 time=0.045871499999999996
EXTRACT: note_on channel=9 note=36 velocity=0 time=0
EXTRACT: note_on channel=0 note=32 velocity=0 time=0.08715584999999999
EXTRACT: note_on channel=1 note=32 velocity=0 time=0.00458715
EXTRACT: note_on channel=9 note=38 velocity=127 time=0
EXTRACT: note_on channel=9 note=42 velocity=42 time=0
EXTRACT: note_on channel=9 note=38 velocity=0 time=0.045871499999999996
EXTRACT: note_on channel=9 note=42 velocity=0 time=0
EXTRACT: note_on channel=9 note=39 velocity=59 time=0.0733944
EXTRACT: note_on channel=9 note=39 velocity=0 time=0.045871499999999996
EXTRACT: note_on channel=8 note=67 velocity=0 time=0.1009173
EXTRACT: note_on channel=8 note=67 velocity=88 time=0.00458715
EXTRACT: note_on channel=9 note=69 velocity=78 time=0.00458715
EXTRACT: note_on channel=9 note=42 velocity=42 time=0
EXTRACT: note_on channel=9 note=69 velocity=0 time=0.045871499999999996
EXTRACT: note_on channel=9 note=42 velocity=0 time=0
EXTRACT: note_on channel=9 note=69 velocity=76 time=0.09174299999999999
EXTRACT: note_on channel=9 note=69 velocity=0 time=0.045871499999999996
EXTRACT: note_on channel=9 note=39 velocity=72 time=0.0733944
EXTRACT: note_on channel=8 note=67 velocity=0 time=0.0091743
EXTRACT: note_on channel=8 note=65 velocity=115 time=0.00458715
EXTRACT: note_on channel=9 note=69 velocity=76 time=0.00458715
EXTRACT: note_on channel=9 note=42 velocity=42 time=0
EXTRACT: note_on channel=9 note=39 velocity=0 time=0.0275229
EXTRACT: note_on channel=9 note=69 velocity=0 time=0.0183486
EXTRACT: note_on channel=9 note=42 velocity=0 time=0
EXTRACT: note_on channel=8 note=65 velocity=0 time=0.2201832
EXTRACT: note_on channel=8 note=63 velocity=103 time=0.00458715
EXTRACT: note_on channel=9 note=42 velocity=42 time=0.00458715
EXTRACT: note_on channel=9 note=36 velocity=98 time=0
EXTRACT: note_on channel=9 note=42 velocity=0 time=0.045871499999999996
EXTRACT: note_on channel=9 note=36 velocity=0 time=0
EXTRACT: note_on channel=9 note=39 velocity=69 time=0.0733944
EXTRACT: note_on channel=9 note=39 velocity=0 time=0.045871499999999996
EXTRACT: note_on channel=8 note=63 velocity=0 time=0.1009173
EXTRACT: note_on channel=8 note=63 velocity=93 time=0.00458715
EXTRACT: note_on channel=9 note=38 velocity=127 time=0.00458715
EXTRACT: note_on channel=9 note=42 velocity=42 time=0
EXTRACT: note_on channel=9 note=38 velocity=0 time=0.045871499999999996
EXTRACT: note_on channel=9 note=42 velocity=0 time=0
EXTRACT: note_on channel=9 note=69 velocity=79 time=0.2293575
EXTRACT: note_on channel=9 note=61 velocity=44 time=0
EXTRACT: note_on channel=9 note=42 velocity=42 time=0
EXTRACT: note_on channel=9 note=69 velocity=0 time=0.045871499999999996
EXTRACT: note_on channel=9 note=61 velocity=0 time=0
EXTRACT: note_on channel=9 note=42 velocity=0 time=0
EXTRACT: note_on channel=9 note=61 velocity=44 time=0.09174299999999999
EXTRACT: note_on channel=9 note=61 velocity=0 time=0.045871499999999996
EXTRACT: note_on channel=3 note=44 velocity=0 time=0.07798155
EXTRACT: note_on channel=3 note=55 velocity=0 time=0
EXTRACT: note_on channel=3 note=63 velocity=0 time=0
EXTRACT: note_on channel=3 note=60 velocity=0 time=0
EXTRACT: note_on channel=3 note=55 velocity=60 time=0
EXTRACT: note_on channel=3 note=63 velocity=81 time=0
EXTRACT: note_on channel=3 note=59 velocity=54 time=0
EXTRACT: note_on channel=8 note=63 velocity=0 time=0.00458715
EXTRACT: note_on channel=0 note=31 velocity=96 time=0.00458715
EXTRACT: note_on channel=8 note=67 velocity=102 time=0
EXTRACT: note_on channel=1 note=31 velocity=103 time=0.00458715
EXTRACT: note_on channel=9 note=61 velocity=44 time=0
EXTRACT: note_on channel=9 note=42 velocity=42 time=0
EXTRACT: note_on channel=9 note=36 velocity=98 time=0
EXTRACT: note_on channel=2 note=44 velocity=0 time=0.00458715
EXTRACT: note_on channel=2 note=55 velocity=0 time=0
EXTRACT: note_on channel=2 note=63 velocity=0 time=0
EXTRACT: note_on channel=2 note=60 velocity=0 time=0
EXTRACT: note_on channel=2 note=55 velocity=63 time=0
EXTRACT: note_on channel=2 note=63 velocity=74 time=0
EXTRACT: note_on channel=2 note=59 velocity=60 time=0
EXTRACT: note_on channel=9 note=61 velocity=0 time=0.04128435
EXTRACT: note_on channel=9 note=42 velocity=0 time=0
EXTRACT: note_on channel=9 note=36 velocity=0 time=0
EXTRACT: note_on channel=9 note=61 velocity=44 time=0.09174299999999999
EXTRACT: note_on channel=9 note=61 velocity=0 time=0.045871499999999996
EXTRACT: note_on channel=9 note=39 velocity=73 time=0.0733944
EXTRACT: note_on channel=0 note=31 velocity=0 time=0.01376145
EXTRACT: note_on channel=9 note=64 velocity=50 time=0
EXTRACT: note_on channel=1 note=31 velocity=0 time=0.00458715
EXTRACT: note_on channel=9 note=61 velocity=44 time=0
EXTRACT: note_on channel=9 note=42 velocity=42 time=0
EXTRACT: note_on channel=9 note=39 velocity=0 time=0.0275229
EXTRACT: note_on channel=9 note=64 velocity=0 time=0.01376145
EXTRACT: note_on channel=9 note=61 velocity=0 time=0.00458715
EXTRACT: note_on channel=9 note=42 velocity=0 time=0
EXTRACT: note_on channel=0 note=31 velocity=94 time=0.08715584999999999
EXTRACT: note_on channel=9 note=63 velocity=50 time=0
EXTRACT: note_on channel=1 note=31 velocity=100 time=0.00458715
EXTRACT: note_on channel=9 note=36 velocity=98 time=0
EXTRACT: note_on channel=9 note=63 velocity=0 time=0.04128435
EXTRACT: note_on channel=9 note=36 velocity=0 time=0.00458715
EXTRACT: note_on channel=0 note=31 velocity=0 time=0.08715584999999999
EXTRACT: note_on channel=9 note=64 velocity=50 time=0
EXTRACT: note_on channel=1 note=31 velocity=0 time=0.00458715
EXTRACT: note_on channel=9 note=38 velocity=127 time=0
EXTRACT: note_on channel=9 note=42 velocity=42 time=0
EXTRACT: note_on channel=9 note=64 velocity=0 time=0.04128435
EXTRACT: note_on channel=9 note=38 velocity=0 time=0.00458715
EXTRACT: note_on channel=9 note=42 velocity=0 time=0
EXTRACT: note_on channel=9 note=39 velocity=64 time=0.0733944
EXTRACT: note_on channel=9 note=64 velocity=50 time=0.01376145
EXTRACT: note_on channel=9 note=39 velocity=0 time=0.03211005
EXTRACT: note_on channel=9 note=64 velocity=0 time=0.01376145
EXTRACT: note_on channel=8 note=67 velocity=0 time=0.08715584999999999
EXTRACT: note_on channel=8 note=67 velocity=91 time=0.00458715
EXTRACT: note_on channel=9 note=63 velocity=50 time=0
EXTRACT: note_on channel=9 note=69 velocity=78 time=0.00458715
EXTRACT: note_on channel=9 note=42 velocity=42 time=0
EXTRACT: note_on channel=9 note=63 velocity=0 time=0.04128435
EXTRACT: note_on channel=9 note=69 velocity=0 time=0.00458715
EXTRACT: note_on channel=9 note=42 velocity=0 time=0
EXTRACT: note_on channel=9 note=69 velocity=74 time=0.09174299999999999
EXTRACT: note_on channel=9 note=69 velocity=0 time=0.045871499999999996
EXTRACT: note_on channel=9 note=39 velocity=65 time=0.0733944
EXTRACT: note_on channel=8 note=67 velocity=0 time=0.0091743
EXTRACT: note_on channel=8 note=65 velocity=98 time=0.00458715
EXTRACT: note_on channel=9 note=69 velocity=74 time=0.00458715
EXTRACT: note_on channel=9 note=42 velocity=42 time=0
EXTRACT: note_on channel=9 note=39 velocity=0 time=0.0275229
EXTRACT: note_on channel=9 note=69 velocity=0 time=0.0183486
EXTRACT: note_on channel=9 note=42 velocity=0 time=0
EXTRACT: note_on channel=9 note=64 velocity=50 time=0.08715584999999999
EXTRACT: note_on channel=9 note=64 velocity=0 time=0.045871499999999996
EXTRACT: note_on channel=8 note=65 velocity=0 time=0.08715584999999999
EXTRACT: note_on channel=8 note=63 velocity=109 time=0.00458715
EXTRACT: note_on channel=9 note=48 velocity=50 time=0
EXTRACT: note_on channel=9 note=42 velocity=42 time=0.00458715
EXTRACT: note_on channel=9 note=36 velocity=98 time=0
EXTRACT: note_on channel=9 note=48 velocity=0 time=0.04128435
EXTRACT: note_on channel=9 note=42 velocity=0 time=0.00458715
EXTRACT: note_on channel=9 note=36 velocity=0 time=0
EXTRACT: note_on channel=9 note=39 velocity=68 time=0.0733944
EXTRACT: note_on channel=9 note=64 velocity=50 time=0.01376145
EXTRACT: note_on channel=9 note=39 velocity=0 time=0.03211005
EXTRACT: note_on channel=9 note=64 velocity=0 time=0.01376145
EXTRACT: note_on channel=8 note=63 velocity=0 time=0.08715584999999999
EXTRACT: note_on channel=8 note=63 velocity=108 time=0.00458715
EXTRACT: note_on channel=9 note=63 velocity=50 time=0
EXTRACT: note_on channel=9 note=38 velocity=127 time=0.00458715
EXTRACT: note_on channel=9 note=42 velocity=42 time=0
EXTRACT: note_on channel=9 note=63 velocity=0 time=0.04128435
EXTRACT: note_on channel=9 note=38 velocity=0 time=0.00458715
EXTRACT: note_on channel=9 note=42 velocity=0 time=0
EXTRACT: note_on channel=9 note=61 velocity=44 time=0.2293575
EXTRACT: note_on channel=9 note=36 velocity=92 time=0
EXTRACT: note_on channel=9 note=42 velocity=42 time=0
EXTRACT: note_on channel=9 note=61 velocity=0 time=0.045871499999999996
EXTRACT: note_on channel=9 note=36 velocity=0 time=0
EXTRACT: note_on channel=9 note=42 velocity=0 time=0
EXTRACT: note_on channel=9 note=61 velocity=44 time=0.09174299999999999
EXTRACT: note_on channel=9 note=36 velocity=92 time=0
EXTRACT: note_on channel=9 note=61 velocity=0 time=0.045871499999999996
EXTRACT: note_on channel=9 note=36 velocity=0 time=0
EXTRACT: note_on channel=3 note=55 velocity=0 time=0.07798155
EXTRACT: note_on channel=3 note=63 velocity=0 time=0
EXTRACT: note_on channel=3 note=59 velocity=0 time=0
EXTRACT: note_on channel=3 note=55 velocity=78 time=0
EXTRACT: note_on channel=3 note=60 velocity=65 time=0
EXTRACT: note_on channel=3 note=63 velocity=60 time=0
EXTRACT: note_on channel=8 note=63 velocity=0 time=0.00458715
EXTRACT: note_on channel=0 note=36 velocity=93 time=0.00458715
EXTRACT: note_on channel=8 note=63 velocity=105 time=0
EXTRACT: note_on channel=8 note=72 velocity=100 time=0
EXTRACT: note_on channel=8 note=68 velocity=106 time=0
EXTRACT: note_on channel=1 note=36 velocity=109 time=0.00458715
EXTRACT: note_on channel=9 note=61 velocity=44 time=0
EXTRACT: note_on channel=9 note=42 velocity=42 time=0
EXTRACT: note_on channel=9 note=36 velocity=98 time=0
EXTRACT: note_on channel=2 note=55 velocity=0 time=0.00458715
EXTRACT: note_on channel=2 note=63 velocity=0 time=0
EXTRACT: note_on channel=2 note=59 velocity=0 time=0
EXTRACT: note_on channel=2 note=55 velocity=69 time=0
EXTRACT: note_on channel=2 note=60 velocity=64 time=0
EXTRACT: note_on channel=2 note=63 velocity=72 time=0
EXTRACT: note_on channel=9 note=61 velocity=0 time=0.04128435
EXTRACT: note_on channel=9 note=42 velocity=0 time=0
EXTRACT: note_on channel=9 note=36 velocity=0 time=0
EXTRACT: note_on channel=9 note=39 velocity=54 time=0.2110089
EXTRACT: note_on channel=0 note=36 velocity=0 time=0.01376145
EXTRACT: note_on channel=1 note=36 velocity=0 time=0.00458715
EXTRACT: note_on channel=9 note=42 velocity=42 time=0
EXTRACT: note_on channel=9 note=39 velocity=0 time=0.0275229
EXTRACT: note_on channel=9 note=42 velocity=0 time=0.0183486
EXTRACT: note_on channel=0 note=36 velocity=82 time=0.08715584999999999
EXTRACT: note_on channel=1 note=36 velocity=107 time=0.00458715
EXTRACT: note_on channel=9 note=61 velocity=44 time=0
EXTRACT: note_on channel=9 note=36 velocity=98 time=0
EXTRACT: note_on channel=9 note=61 velocity=0 time=0.045871499999999996
EXTRACT: note_on channel=9 note=36 velocity=0 time=0
EXTRACT: note_on channel=8 note=63 velocity=0 time=0.0825687
EXTRACT: note_on channel=8 note=72 velocity=0 time=0
EXTRACT: note_on channel=8 note=68 velocity=0 time=0
EXTRACT: note_on channel=0 note=36 velocity=0 time=0.00458715
EXTRACT: note_on channel=8 note=63 velocity=97 time=0
EXTRACT: note_on channel=8 note=70 velocity=108 time=0
EXTRACT: note_on channel=8 note=67 velocity=90 time=0
EXTRACT: note_on channel=1 note=36 velocity=0 time=0.00458715
EXTRACT: note_on channel=9 note=38 velocity=127 time=0
EXTRACT: note_on channel=9 note=42 velocity=42 time=0
EXTRACT: note_on channel=9 note=38 velocity=0 time=0.045871499999999996
EXTRACT: note_on channel=9 note=42 velocity=0 time=0
EXTRACT: note_on channel=9 note=39 velocity=69 time=0.0733944
EXTRACT: note_on channel=9 note=39 velocity=0 time=0.045871499999999996
EXTRACT: note_on channel=9 note=69 velocity=77 time=0.1100916
EXTRACT: note_on channel=9 note=42 velocity=42 time=0
EXTRACT: note_on channel=9 note=69 velocity=0 time=0.045871499999999996
EXTRACT: note_on channel=9 note=42 velocity=0 time=0
EXTRACT: note_on channel=9 note=69 velocity=76 time=0.09174299999999999
EXTRACT: note_on channel=9 note=69 velocity=0 time=0.045871499999999996
EXTRACT: note_on channel=9 note=39 velocity=53 time=0.0733944
EXTRACT: note_on channel=8 note=63 velocity=0 time=0.0091743
EXTRACT: note_on channel=8 note=70 velocity=0 time=0
EXTRACT: note_on channel=8 note=67 velocity=0 time=0
EXTRACT: note_on channel=8 note=60 velocity=75 time=0.00458715
EXTRACT: note_on channel=8 note=68 velocity=105 time=0
EXTRACT: note_on channel=8 note=65 velocity=115 time=0
EXTRACT: note_on channel=9 note=69 velocity=82 time=0.00458715
EXTRACT: note_on channel=9 note=42 velocity=42 time=0
EXTRACT: note_on channel=9 note=39 velocity=0 time=0.0275229
EXTRACT: note_on channel=9 note=69 velocity=0 time=0.0183486
EXTRACT: note_on channel=9 note=42 velocity=0 time=0
EXTRACT: note_on channel=9 note=42 velocity=42 time=0.2293575
EXTRACT: note_on channel=9 note=36 velocity=98 time=0
EXTRACT: note_on channel=9 note=42 velocity=0 time=0.045871499999999996
EXTRACT: note_on channel=9 note=36 velocity=0 time=0
EXTRACT: note_on channel=9 note=39 velocity=57 time=0.0733944
EXTRACT: note_on channel=9 note=39 velocity=0 time=0.045871499999999996
EXTRACT: note_on channel=8 note=60 velocity=0 time=0.1009173
EXTRACT: note_on channel=8 note=68 velocity=0 time=0
EXTRACT: note_on channel=8 note=65 velocity=0 time=0
EXTRACT: note_on channel=8 note=58 velocity=66 time=0.00458715
EXTRACT: note_on channel=8 note=67 velocity=105 time=0
EXTRACT: note_on channel=8 note=63 velocity=112 time=0
EXTRACT: note_on channel=9 note=38 velocity=127 time=0.00458715
EXTRACT: note_on channel=9 note=42 velocity=42 time=0
EXTRACT: note_on channel=9 note=38 velocity=0 time=0.045871499999999996
EXTRACT: note_on channel=9 note=42 velocity=0 time=0
EXTRACT: note_on channel=9 note=69 velocity=76 time=0.2293575
EXTRACT: note_on channel=9 note=61 velocity=44 time=0
EXTRACT: note_on channel=9 note=42 velocity=42 time=0
EXTRACT: note_on channel=9 note=69 velocity=0 time=0.045871499999999996
EXTRACT: note_on channel=9 note=61 velocity=0 time=0
EXTRACT: note_on channel=9 note=42 velocity=0 time=0
EXTRACT: note_on channel=9 note=61 velocity=44 time=0.09174299999999999
EXTRACT: note_on channel=9 note=61 velocity=0 time=0.045871499999999996
EXTRACT: note_on channel=9 note=39 velocity=51 time=0.0733944
EXTRACT: note_on channel=3 note=55 velocity=0 time=0.00458715
EXTRACT: note_on channel=3 note=60 velocity=0 time=0
EXTRACT: note_on channel=3 note=63 velocity=0 time=0
EXTRACT: note_on channel=3 note=65 velocity=78 time=0
EXTRACT: note_on channel=3 note=56 velocity=75 time=0
EXTRACT: note_on channel=3 note=58 velocity=59 time=0
EXTRACT: note_on channel=3 note=61 velocity=58 time=0
EXTRACT: note_on channel=8 note=58 velocity=0 time=0.00458715
EXTRACT: note_on channel=8 note=67 velocity=0 time=0
EXTRACT: note_on channel=8 note=63 velocity=0 time=0
EXTRACT: note_on channel=0 note=34 velocity=99 time=0.00458715
EXTRACT: note_on channel=4 note=55 velocity=0 time=0
EXTRACT: note_on channel=4 note=63 velocity=0 time=0
EXTRACT: note_on channel=4 note=58 velocity=95 time=0
EXTRACT: note_on channel=4 note=65 velocity=76 time=0
EXTRACT: note_on channel=8 note=67 velocity=88 time=0
EXTRACT: note_on channel=1 note=34 velocity=99 time=0.00458715
EXTRACT: note_on channel=9 note=61 velocity=44 time=0
EXTRACT: note_on channel=9 note=42 velocity=42 time=0
EXTRACT: note_on channel=9 note=36 velocity=98 time=0
EXTRACT: note_on channel=2 note=55 velocity=0 time=0.00458715
EXTRACT: note_on channel=2 note=60 velocity=0 time=0
EXTRACT: note_on channel=2 note=63 velocity=0 time=0
EXTRACT: note_on channel=2 note=65 velocity=88 time=0
EXTRACT: note_on channel=2 note=56 velocity=64 time=0
EXTRACT: note_on channel=2 note=58 velocity=88 time=0
EXTRACT: note_on channel=2 note=61 velocity=66 time=0
EXTRACT: note_on channel=9 note=39 velocity=0 time=0.022935749999999998
EXTRACT: note_on channel=9 note=61 velocity=0 time=0.0183486
EXTRACT: note_on channel=9 note=42 velocity=0 time=0
EXTRACT: note_on channel=9 note=36 velocity=0 time=0
EXTRACT: note_on channel=9 note=39 velocity=63 time=0.0733944
EXTRACT: note_on channel=9 note=61 velocity=44 time=0.0183486
EXTRACT: note_on channel=9 note=39 velocity=0 time=0.0275229
EXTRACT: note_on channel=9 note=61 velocity=0 time=0.0183486
EXTRACT: note_on channel=0 note=34 velocity=0 time=0.08715584999999999
EXTRACT: note_on channel=9 note=64 velocity=50 time=0
EXTRACT: note_on channel=1 note=34 velocity=0 time=0.00458715
EXTRACT: note_on channel=9 note=61 velocity=44 time=0
EXTRACT: note_on channel=9 note=42 velocity=42 time=0
EXTRACT: note_on channel=9 note=64 velocity=0 time=0.04128435
EXTRACT: note_on channel=9 note=61 velocity=0 time=0.00458715
EXTRACT: note_on channel=9 note=42 velocity=0 time=0
EXTRACT: note_on channel=0 note=34 velocity=96 time=0.08715584999999999
EXTRACT: note_on channel=9 note=63 velocity=50 time=0
EXTRACT: note_on channel=1 note=34 velocity=110 time=0.00458715
EXTRACT: note_on channel=9 note=36 velocity=98 time=0
EXTRACT: note_on channel=9 note=63 velocity=0 time=0.04128435
EXTRACT: note_on channel=9 note=36 velocity=0 time=0.00458715
EXTRACT: note_on channel=9 note=39 velocity=51 time=0.0733944
EXTRACT: note_on channel=0 note=34 velocity=0 time=0.01376145
EXTRACT: note_on channel=9 note=64 velocity=50 time=0
EXTRACT: note_on channel=1 note=34 velocity=0 time=0.00458715
EXTRACT: note_on channel=9 note=38 velocity=127 time=0
EXTRACT: note_on channel=9 note=42 velocity=42 time=0
EXTRACT: note_on channel=9 note=39 velocity=0 time=0.0275229
EXTRACT: note_on channel=9 note=64 velocity=0 time=0.01376145
EXTRACT: note_on channel=9 note=38 velocity=0 time=0.00458715
EXTRACT: note_on channel=9 note=42 velocity=0 time=0
EXTRACT: note_on channel=9 note=39 velocity=55 time=0.0733944
EXTRACT: note_on channel=9 note=64 velocity=50 time=0.01376145
EXTRACT: note_on channel=9 note=39 velocity=0 time=0.03211005
EXTRACT: note_on channel=9 note=64 velocity=0 time=0.01376145
EXTRACT: note_on channel=8 note=67 velocity=0 time=0.08715584999999999
EXTRACT: note_on channel=0 note=34 velocity=106 time=0.00458715
EXTRACT: note_on channel=8 note=67 velocity=85 time=0
EXTRACT: note_on channel=9 note=63 velocity=50 time=0
EXTRACT: note_on channel=1 note=34 velocity=113 time=0.00458715
EXTRACT: note_on channel=9 note=69 velocity=82 time=0
EXTRACT: note_on channel=9 note=42 velocity=42 time=0
EXTRACT: note_on channel=9 note=63 velocity=0 time=0.04128435
EXTRACT: note_on channel=9 note=69 velocity=0 time=0.00458715
EXTRACT: note_on channel=9 note=42 velocity=0 time=0
EXTRACT: note_on channel=0 note=34 velocity=0 time=0.08715584999999999
EXTRACT: note_on channel=1 note=34 velocity=0 time=0.00458715
EXTRACT: note_on channel=9 note=36 velocity=92 time=0
EXTRACT: note_on channel=9 note=69 velocity=75 time=0
EXTRACT: note_on channel=9 note=36 velocity=0 time=0.045871499999999996
EXTRACT: note_on channel=9 note=69 velocity=0 time=0
EXTRACT: note_on channel=9 note=39 velocity=73 time=0.0733944
EXTRACT: note_on channel=3 note=65 velocity=0 time=0.00458715
EXTRACT: note_on channel=3 note=56 velocity=0 time=0
EXTRACT: note_on channel=3 note=58 velocity=0 time=0
EXTRACT: note_on channel=3 note=61 velocity=0 time=0
EXTRACT: note_on channel=3 note=61 velocity=52 time=0
EXTRACT: note_on channel=3 note=55 velocity=64 time=0
EXTRACT: note_on channel=3 note=58 velocity=75 time=0
EXTRACT: note_on channel=3 note=63 velocity=77 time=0
EXTRACT: note_on channel=8 note=67 velocity=0 time=0.00458715
EXTRACT: note_on channel=0 note=39 velocity=82 time=0.00458715
EXTRACT: note_on channel=4 note=58 velocity=0 time=0
EXTRACT: note_on channel=4 note=65 velocity=0 time=0
EXTRACT: note_on channel=4 note=55 velocity=94 time=0
EXTRACT: note_on channel=4 note=63 velocity=93 time=0
EXTRACT: note_on channel=8 note=65 velocity=110 time=0
EXTRACT: note_on channel=1 note=39 velocity=105 time=0.00458715
EXTRACT: note_on channel=9 note=36 velocity=98 time=0
EXTRACT: note_on channel=9 note=69 velocity=82 time=0
EXTRACT: note_on channel=9 note=42 velocity=42 time=0
EXTRACT: note_on channel=2 note=65 velocity=0 time=0.00458715
EXTRACT: note_on channel=2 note=56 velocity=0 time=0
EXTRACT: note_on channel=2 note=58 velocity=0 time=0
EXTRACT: note_on channel=2 note=61 velocity=0 time=0
EXTRACT: note_on channel=2 note=61 velocity=82 time=0
EXTRACT: note_on channel=2 note=55 velocity=61 time=0
EXTRACT: note_on channel=2 note=58 velocity=90 time=0
EXTRACT: note_on channel=2 note=63 velocity=84 time=0
EXTRACT: note_on channel=9 note=39 velocity=0 time=0.022935749999999998
EXTRACT: note_on channel=9 note=36 velocity=0 time=0.0183486
EXTRACT: note_on channel=9 note=69 velocity=0 time=0
EXTRACT: note_on channel=9 note=42 velocity=0 time=0
EXTRACT: note_on channel=9 note=39 velocity=63 time=0.0733944
EXTRACT: note_on channel=9 note=64 velocity=50 time=0.01376145
EXTRACT: note_on channel=9 note=39 velocity=0 time=0.03211005
EXTRACT: note_on channel=9 note=64 velocity=0 time=0.01376145
EXTRACT: note_on channel=8 note=65 velocity=0 time=0.08715584999999999
EXTRACT: note_on channel=0 note=39 velocity=0 time=0.00458715
EXTRACT: note_on channel=8 note=63 velocity=114 time=0
EXTRACT: note_on channel=9 note=48 velocity=50 time=0
EXTRACT: note_on channel=1 note=39 velocity=0 time=0.00458715
EXTRACT: note_on channel=9 note=36 velocity=92 time=0
EXTRACT: note_on channel=9 note=42 velocity=42 time=0
EXTRACT: note_on channel=9 note=48 velocity=0 time=0.04128435
EXTRACT: note_on channel=9 note=36 velocity=0 time=0.00458715
EXTRACT: note_on channel=9 note=42 velocity=0 time=0
EXTRACT: note_on channel=0 note=39 velocity=102 time=0.08715584999999999
EXTRACT: note_on channel=9 note=64 velocity=50 time=0
EXTRACT: note_on channel=1 note=39 velocity=110 time=0.00458715
EXTRACT: note_on channel=9 note=36 velocity=92 time=0
EXTRACT: note_on channel=9 note=64 velocity=0 time=0.04128435
EXTRACT: note_on channel=9 note=36 velocity=0 time=0.00458715
EXTRACT: note_on channel=9 note=39 velocity=58 time=0.0733944
EXTRACT: note_on channel=8 note=63 velocity=0 time=0.0091743
EXTRACT: note_on channel=0 note=39 velocity=0 time=0.00458715
EXTRACT: note_on channel=8 note=63 velocity=98 time=0
EXTRACT: note_on channel=9 note=63 velocity=50 time=0
EXTRACT: note_on channel=1 note=39 velocity=0 time=0.00458715
EXTRACT: note_on channel=9 note=38 velocity=127 time=0
EXTRACT: note_on channel=9 note=42 velocity=42 time=0
EXTRACT: note_on channel=9 note=39 velocity=0 time=0.0275229
EXTRACT: note_on channel=9 note=63 velocity=0 time=0.01376145
EXTRACT: note_on channel=9 note=38 velocity=0 time=0.00458715
EXTRACT: note_on channel=9 note=42 velocity=0 time=0
EXTRACT: note_on channel=9 note=39 velocity=40 time=0.0733944
EXTRACT: note_on channel=9 note=39 velocity=0 time=0.045871499999999996
EXTRACT: note_on channel=9 note=39 velocity=58 time=0.09174299999999999
EXTRACT: note_on channel=9 note=61 velocity=44 time=0.0183486
EXTRACT: note_on channel=9 note=36 velocity=92 time=0
EXTRACT: note_on channel=9 note=42 velocity=42 time=0
EXTRACT: note_on channel=9 note=39 velocity=0 time=0.0275229
EXTRACT: note_on channel=9 note=61 velocity=0 time=0.0183486
EXTRACT: note_on channel=9 note=36 velocity=0 time=0
EXTRACT: note_on channel=9 note=42 velocity=0 time=0
EXTRACT: note_on channel=9 note=39 velocity=55 time=0.0733944
EXTRACT: note_on channel=9 note=61 velocity=44 time=0.0183486
EXTRACT: note_on channel=9 note=36 velocity=92 time=0
EXTRACT: note_on channel=9 note=39 velocity=0 time=0.0275229
EXTRACT: note_on channel=9 note=61 velocity=0 time=0.0183486
EXTRACT: note_on channel=9 note=36 velocity=0 time=0
EXTRACT: note_on channel=3 note=61 velocity=0 time=0.07798155
EXTRACT: note_on channel=3 note=55 velocity=0 time=0
EXTRACT: note_on channel=3 note=58 velocity=0 time=0
EXTRACT: note_on channel=3 note=63 velocity=0 time=0
EXTRACT: note_on channel=3 note=44 velocity=46 time=0
EXTRACT: note_on channel=3 note=55 velocity=78 time=0
EXTRACT: note_on channel=3 note=63 velocity=60 time=0
EXTRACT: note_on channel=3 note=60 velocity=73 time=0
EXTRACT: note_on channel=8 note=63 velocity=0 time=0.00458715
EXTRACT: note_on channel=0 note=32 velocity=82 time=0.00458715
EXTRACT: note_on channel=4 note=55 velocity=0 time=0
EXTRACT: note_on channel=4 note=63 velocity=0 time=0
EXTRACT: note_on channel=4 note=91 velocity=105 time=0
EXTRACT: note_on channel=4 note=79 velocity=105 time=0
EXTRACT: note_on channel=4 note=55 velocity=105 time=0
EXTRACT: note_on channel=4 note=63 velocity=93 time=0
EXTRACT: note_on channel=8 note=67 velocity=86 time=0
EXTRACT: note_on channel=1 note=32 velocity=108 time=0.00458715
EXTRACT: note_on channel=9 note=61 velocity=44 time=0
EXTRACT: note_on channel=9 note=42 velocity=42 time=0
EXTRACT: note_on channel=9 note=36 velocity=98 time=0
EXTRACT: note_on channel=2 note=61 velocity=0 time=0.00458715
EXTRACT: note_on channel=2 note=55 velocity=0 time=0
EXTRACT: note_on channel=2 note=58 velocity=0 time=0
EXTRACT: note_on channel=2 note=63 velocity=0 time=0
EXTRACT: note_on channel=2 note=44 velocity=45 time=0
EXTRACT: note_on channel=2 note=55 velocity=72 time=0
EXTRACT: note_on channel=2 note=63 velocity=66 time=0
EXTRACT: note_on channel=2 note=60 velocity=77 time=0
EXTRACT: note_on channel=9 note=61 velocity=0 time=0.04128435
EXTRACT: note_on channel=9 note=42 velocity=0 time=0
EXTRACT: note_on channel=9 note=36 velocity=0 time=0
EXTRACT: note_on channel=9 note=39 velocity=62 time=0.2110089
EXTRACT: note_on channel=0 note=32 velocity=0 time=0.01376145
EXTRACT: note_on channel=1 note=32 velocity=0 time=0.00458715
EXTRACT: note_on channel=9 note=42 velocity=42 time=0
EXTRACT: note_on channel=9 note=39 velocity=0 time=0.0275229
EXTRACT: note_on channel=9 note=42 velocity=0 time=0.0183486
EXTRACT: note_on channel=0 note=32 velocity=106 time=0.08715584999999999
EXTRACT: note_on channel=1 note=32 velocity=112 time=0.00458715
EXTRACT: note_on channel=9 note=61 velocity=44 time=0
EXTRACT: note_on channel=9 note=36 velocity=98 time=0
EXTRACT: note_on channel=9 note=61 velocity=0 time=0.045871499999999996
EXTRACT: note_on channel=9 note=36 velocity=0 time=0
EXTRACT: note_on channel=0 note=32 velocity=0 time=0.08715584999999999
EXTRACT: note_on channel=1 note=32 velocity=0 time=0.00458715
EXTRACT: note_on channel=9 note=38 velocity=127 time=0
EXTRACT: note_on channel=9 note=42 velocity=42 time=0
EXTRACT: note_on channel=9 note=38 velocity=0 time=0.045871499999999996
EXTRACT: note_on channel=9 note=42 velocity=0 time=0
EXTRACT: note_on channel=9 note=39 velocity=52 time=0.0733944
EXTRACT: note_on channel=9 note=39 velocity=0 time=0.045871499999999996
EXTRACT: note_on channel=8 note=67 velocity=0 time=0.1009173
EXTRACT: note_on channel=8 note=67 velocity=113 time=0.00458715
EXTRACT: note_on channel=9 note=69 velocity=74 time=0.00458715
EXTRACT: note_on channel=9 note=42 velocity=42 time=0
EXTRACT: note_on channel=9 note=69 velocity=0 time=0.045871499999999996
EXTRACT: note_on channel=9 note=42 velocity=0 time=0
EXTRACT: note_on channel=9 note=69 velocity=75 time=0.09174299999999999
EXTRACT: note_on channel=9 note=69 velocity=0 time=0.045871499999999996
EXTRACT: note_on channel=9 note=39 velocity=55 time=0.0733944
EXTRACT: note_on channel=8 note=67 velocity=0 time=0.0091743
EXTRACT: note_on channel=8 note=65 velocity=91 time=0.00458715
EXTRACT: note_on channel=9 note=69 velocity=82 time=0.00458715
EXTRACT: note_on channel=9 note=42 velocity=42 time=0
EXTRACT: note_on channel=9 note=39 velocity=0 time=0.0275229
EXTRACT: note_on channel=9 note=69 velocity=0 time=0.0183486
EXTRACT: note_on channel=9 note=42 velocity=0 time=0
EXTRACT: note_on channel=8 note=65 velocity=0 time=0.2201832
EXTRACT: note_on channel=8 note=63 velocity=112 time=0.00458715
EXTRACT: note_on channel=9 note=42 velocity=42 time=0.00458715
EXTRACT: note_on channel=9 note=36 velocity=98 time=0
EXTRACT: note_on channel=9 note=42 velocity=0 time=0.045871499999999996
EXTRACT: note_on channel=9 note=36 velocity=0 time=0
EXTRACT: note_on channel=9 note=39 velocity=52 time=0.0733944
EXTRACT: note_on channel=9 note=39 velocity=0 time=0.045871499999999996
EXTRACT: note_on channel=8 note=63 velocity=0 time=0.1009173
EXTRACT: note_on channel=8 note=63 velocity=105 time=0.00458715
EXTRACT: note_on channel=9 note=38 velocity=127 time=0.00458715
EXTRACT: note_on channel=9 note=42 velocity=42 time=0
EXTRACT: note_on channel=9 note=38 velocity=0 time=0.045871499999999996
EXTRACT: note_on channel=9 note=42 velocity=0 time=0
EXTRACT: note_on channel=9 note=69 velocity=82 time=0.2293575
EXTRACT: note_on channel=9 note=61 velocity=44 time=0
EXTRACT: note_on channel=9 note=42 velocity=42 time=0
EXTRACT: note_on channel=9 note=69 velocity=0 time=0.045871499999999996
EXTRACT: note_on channel=9 note=61 velocity=0 time=0
EXTRACT: note_on channel=9 note=42 velocity=0 time=0
EXTRACT: note_on channel=9 note=61 velocity=44 time=0.09174299999999999
EXTRACT: note_on channel=9 note=61 velocity=0 time=0.045871499999999996
EXTRACT: note_on channel=3 note=44 velocity=0 time=0.07798155
EXTRACT: note_on channel=3 note=55 velocity=0 time=0
EXTRACT: note_on channel=3 note=63 velocity=0 time=0
EXTRACT: note_on channel=3 note=60 velocity=0 time=0
EXTRACT: note_on channel=3 note=55 velocity=74 time=0
EXTRACT: note_on channel=3 note=63 velocity=78 time=0
EXTRACT: note_on channel=3 note=59 velocity=52 time=0
EXTRACT: note_on channel=8 note=63 velocity=0 time=0.00458715
EXTRACT: note_on channel=0 note=31 velocity=106 time=0.00458715
EXTRACT: note_on channel=8 note=67 velocity=87 time=0
EXTRACT: note_on channel=1 note=31 velocity=94 time=0.00458715
EXTRACT: note_on channel=9 note=61 velocity=44 time=0
EXTRACT: note_on channel=9 note=42 velocity=42 time=0
EXTRACT: note_on channel=9 note=36 velocity=98 time=0
EXTRACT: note_on channel=2 note=44 velocity=0 time=0.00458715
EXTRACT: note_on channel=2 note=55 velocity=0 time=0
EXTRACT: note_on channel=2 note=63 velocity=0 time=0
EXTRACT: note_on channel=2 note=60 velocity=0 time=0
EXTRACT: note_on channel=2 note=55 velocity=66 time=0
EXTRACT: note_on channel=2 note=63 velocity=67 time=0
EXTRACT: note_on channel=2 note=59 velocity=73 time=0
EXTRACT: note_on channel=9 note=61 velocity=0 time=0.04128435
EXTRACT: note_on channel=9 note=42 velocity=0 time=0
EXTRACT: note_on channel=9 note=36 velocity=0 time=0
EXTRACT: note_on channel=9 note=61 velocity=44 time=0.09174299999999999
EXTRACT: note_on channel=9 note=61 velocity=0 time=0.045871499999999996
EXTRACT: note_on channel=9 note=39 velocity=56 time=0.0733944
EXTRACT: note_on channel=0 note=31 velocity=0 time=0.01376145
EXTRACT: note_on channel=9 note=64 velocity=50 time=0
EXTRACT: note_on channel=1 note=31 velocity=0 time=0.00458715
EXTRACT: note_on channel=9 note=61 velocity=44 time=0
EXTRACT: note_on channel=9 note=42 velocity=42 time=0
EXTRACT: note_on channel=9 note=39 velocity=0 time=0.0275229
EXTRACT: note_on channel=9 note=64 velocity=0 time=0.01376145
EXTRACT: note_on channel=9 note=61 velocity=0 time=0.00458715
EXTRACT: note_on channel=9 note=42 velocity=0 time=0
EXTRACT: note_on channel=0 note=31 velocity=100 time=0.08715584999999999
EXTRACT: note_on channel=9 note=63 velocity=50 time=0
EXTRACT: note_on channel=1 note=31 velocity=99 time=0.00458715
EXTRACT: note_on channel=9 note=36 velocity=98 time=0
EXTRACT: note_on channel=9 note=63 velocity=0 time=0.04128435
EXTRACT: note_on channel=9 note=36 velocity=0 time=0.00458715
EXTRACT: note_on channel=0 note=31 velocity=0 time=0.08715584999999999
EXTRACT: note_on channel=9 note=64 velocity=50 time=0
EXTRACT: note_on channel=1 note=31 velocity=0 time=0.00458715
EXTRACT: note_on channel=9 note=38 velocity=127 time=0
EXTRACT: note_on channel=9 note=42 velocity=42 time=0
EXTRACT: note_on channel=9 note=64 velocity=0 time=0.04128435
EXTRACT: note_on channel=9 note=38 velocity=0 time=0.00458715
EXTRACT: note_on channel=9 note=42 velocity=0 time=0
EXTRACT: note_on channel=9 note=39 velocity=70 time=0.0733944
EXTRACT: note_on channel=9 note=64 velocity=50 time=0.01376145
EXTRACT: note_on channel=9 note=39 velocity=0 time=0.03211005
EXTRACT: note_on channel=9 note=64 velocity=0 time=0.01376145
EXTRACT: note_on channel=8 note=67 velocity=0 time=0.08715584999999999
EXTRACT: note_on channel=8 note=67 velocity=95 time=0.00458715
EXTRACT: note_on channel=9 note=63 velocity=50 time=0
EXTRACT: note_on channel=9 note=69 velocity=76 time=0.00458715
EXTRACT: note_on channel=9 note=42 velocity=42 time=0
EXTRACT: note_on channel=9 note=63 velocity=0 time=0.04128435
EXTRACT: note_on channel=9 note=69 velocity=0 time=0.00458715
EXTRACT: note_on channel=9 note=42 velocity=0 time=0
EXTRACT: note_on channel=9 note=69 velocity=81 time=0.09174299999999999
EXTRACT: note_on channel=9 note=69 velocity=0 time=0.045871499999999996
EXTRACT: note_on channel=9 note=39 velocity=52 time=0.0733944
EXTRACT: note_on channel=8 note=67 velocity=0 time=0.0091743
EXTRACT: note_on channel=8 note=65 velocity=110 time=0.00458715
EXTRACT: note_on channel=9 note=69 velocity=82 time=0.00458715
EXTRACT: note_on channel=9 note=42 velocity=42 time=0
EXTRACT: note_on channel=9 note=39 velocity=0 time=0.0275229
EXTRACT: note_on channel=9 note=69 velocity=0 time=0.0183486
EXTRACT: note_on channel=9 note=42 velocity=0 time=0
EXTRACT: note_on channel=9 note=64 velocity=50 time=0.08715584999999999
EXTRACT: note_on channel=9 note=64 velocity=0 time=0.045871499999999996
EXTRACT: note_on channel=8 note=65 velocity=0 time=0.08715584999999999
EXTRACT: note_on channel=0 note=34 velocity=96 time=0.00458715
EXTRACT: note_on channel=8 note=63 velocity=87 time=0
EXTRACT: note_on channel=9 note=48 velocity=50 time=0
EXTRACT: note_on channel=1 note=34 velocity=95 time=0.00458715
EXTRACT: note_on channel=9 note=42 velocity=42 time=0
EXTRACT: note_on channel=9 note=36 velocity=98 time=0
EXTRACT: note_on channel=9 note=48 velocity=0 time=0.04128435
EXTRACT: note_on channel=9 note=42 velocity=0 time=0.00458715
EXTRACT: note_on channel=9 note=36 velocity=0 time=0
EXTRACT: note_on channel=9 note=39 velocity=59 time=0.0733944
EXTRACT: note_on channel=0 note=34 velocity=0 time=0.01376145
EXTRACT: note_on channel=9 note=64 velocity=50 time=0
EXTRACT: note_on channel=1 note=34 velocity=0 time=0.00458715
EXTRACT: note_on channel=9 note=39 velocity=0 time=0.0275229
EXTRACT: note_on channel=9 note=64 velocity=0 time=0.01376145
EXTRACT: note_on channel=8 note=63 velocity=0 time=0.08715584999999999
EXTRACT: note_on channel=8 note=63 velocity=93 time=0.00458715
EXTRACT: note_on channel=9 note=63 velocity=50 time=0
EXTRACT: note_on channel=9 note=38 velocity=127 time=0.00458715
EXTRACT: note_on channel=9 note=42 velocity=42 time=0
EXTRACT: note_on channel=9 note=63 velocity=0 time=0.04128435
EXTRACT: note_on channel=9 note=38 velocity=0 time=0.00458715
EXTRACT: note_on channel=9 note=42 velocity=0 time=0
EXTRACT: note_on channel=0 note=34 velocity=95 time=0.08715584999999999
EXTRACT: note_on channel=1 note=34 velocity=113 time=0.00458715
EXTRACT: note_on channel=0 note=34 velocity=0 time=0.13302735
EXTRACT: note_on channel=1 note=34 velocity=0 time=0.00458715
EXTRACT: note_on channel=9 note=61 velocity=44 time=0
EXTRACT: note_on channel=9 note=36 velocity=92 time=0
EXTRACT: note_on channel=9 note=42 velocity=42 time=0
EXTRACT: note_on channel=9 note=61 velocity=0 time=0.045871499999999996
EXTRACT: note_on channel=9 note=36 velocity=0 time=0
EXTRACT: note_on channel=9 note=42 velocity=0 time=0
EXTRACT: note_on channel=9 note=61 velocity=44 time=0.09174299999999999
EXTRACT: note_on channel=9 note=36 velocity=92 time=0
EXTRACT: note_on channel=9 note=61 velocity=0 time=0.045871499999999996
EXTRACT: note_on channel=9 note=36 velocity=0 time=0
EXTRACT: note_on channel=3 note=55 velocity=0 time=0.07798155
EXTRACT: note_on channel=3 note=63 velocity=0 time=0
EXTRACT: note_on channel=3 note=59 velocity=0 time=0
EXTRACT: note_on channel=3 note=55 velocity=73 time=0
EXTRACT: note_on channel=3 note=60 velocity=61 time=0
EXTRACT: note_on channel=3 note=63 velocity=61 time=0
EXTRACT: note_on channel=8 note=63 velocity=0 time=0.00458715
EXTRACT: note_on channel=0 note=36 velocity=102 time=0.00458715
EXTRACT: note_on channel=4 note=91 velocity=0 time=0
EXTRACT: note_on channel=4 note=79 velocity=0 time=0
EXTRACT: note_on channel=8 note=63 velocity=79 time=0
EXTRACT: note_on channel=8 note=72 velocity=91 time=0
EXTRACT: note_on channel=8 note=68 velocity=103 time=0
EXTRACT: note_on channel=1 note=36 velocity=94 time=0.00458715
EXTRACT: note_on channel=9 note=61 velocity=44 time=0
EXTRACT: note_on channel=9 note=42 velocity=42 time=0
EXTRACT: note_on channel=9 note=36 velocity=98 time=0
EXTRACT: note_on channel=2 note=55 velocity=0 time=0.00458715
EXTRACT: note_on channel=2 note=63 velocity=0 time=0
EXTRACT: note_on channel=2 note=59 velocity=0 time=0
EXTRACT: note_on channel=2 note=55 velocity=64 time=0
EXTRACT: note_on channel=2 note=60 velocity=65 time=0
EXTRACT: note_on channel=2 note=63 velocity=86 time=0
EXTRACT: note_on channel=9 note=61 velocity=0 time=0.04128435
EXTRACT: note_on channel=9 note=42 velocity=0 time=0
EXTRACT: note_on channel=9 note=36 velocity=0 time=0
EXTRACT: note_on channel=9 note=39 velocity=66 time=0.2110089
EXTRACT: note_on channel=0 note=36 velocity=0 time=0.01376145
EXTRACT: note_on channel=1 note=36 velocity=0 time=0.00458715
EXTRACT: note_on channel=9 note=42 velocity=42 time=0
EXTRACT: note_on channel=9 note=39 velocity=0 time=0.0275229
EXTRACT: note_on channel=9 note=42 velocity=0 time=0.0183486
EXTRACT: note_on channel=0 note=36 velocity=91 time=0.08715584999999999
EXTRACT: note_on channel=1 note=36 velocity=105 time=0.00458715
EXTRACT: note_on channel=9 note=61 velocity=44 time=0
EXTRACT: note_on channel=9 note=36 velocity=98 time=0
EXTRACT: note_on channel=9 note=61 velocity=0 time=0.045871499999999996
EXTRACT: note_on channel=9 note=36 velocity=0 time=0
EXTRACT: note_on channel=8 note=63 velocity=0 time=0.0825687
EXTRACT: note_on channel=8 note=72 velocity=0 time=0
EXTRACT: note_on channel=8 note=68 velocity=0 time=0
EXTRACT: note_on channel=0 note=36 velocity=0 time=0.00458715
EXTRACT: note_on channel=8 note=63 velocity=71 time=0
EXTRACT: note_on channel=8 note=70 velocity=85 time=0
EXTRACT: note_on channel=8 note=67 velocity=100 time=0
EXTRACT: note_on channel=1 note=36 velocity=0 time=0.00458715
EXTRACT: note_on channel=9 note=38 velocity=127 time=0
EXTRACT: note_on channel=9 note=42 velocity=42 time=0
EXTRACT: note_on channel=9 note=38 velocity=0 time=0.045871499999999996
EXTRACT: note_on channel=9 note=42 velocity=0 time=0
EXTRACT: note_on channel=9 note=39 velocity=51 time=0.0733944
EXTRACT: note_on channel=9 note=39 velocity=0 time=0.045871499999999996
EXTRACT: note_on channel=9 note=69 velocity=80 time=0.1100916
EXTRACT: note_on channel=9 note=42 velocity=42 time=0
EXTRACT: note_on channel=9 note=69 velocity=0 time=0.045871499999999996
EXTRACT: note_on channel=9 note=42 velocity=0 time=0
EXTRACT: note_on channel=9 note=69 velocity=75 time=0.09174299999999999
EXTRACT: note_on channel=9 note=69 velocity=0 time=0.045871499999999996
EXTRACT: note_on channel=9 note=39 velocity=69 time=0.0733944
EXTRACT: note_on channel=8 note=63 velocity=0 time=0.0091743
EXTRACT: note_on channel=8 note=70 velocity=0 time=0
EXTRACT: note_on channel=8 note=67 velocity=0 time=0
EXTRACT: note_on channel=8 note=60 velocity=103 time=0.00458715
EXTRACT: note_on channel=8 note=68 velocity=104 time=0
EXTRACT: note_on channel=8 note=65 velocity=85 time=0
EXTRACT: note_on channel=9 note=69 velocity=80 time=0.00458715
EXTRACT: note_on channel=9 note=42 velocity=42 time=0
EXTRACT: note_on channel=9 note=39 velocity=0 time=0.0275229
EXTRACT: note_on channel=9 note=69 velocity=0 time=0.0183486
EXTRACT: note_on channel=9 note=42 velocity=0 time=0
EXTRACT: note_on channel=9 note=42 velocity=42 time=0.2293575
EXTRACT: note_on channel=9 note=36 velocity=98 time=0
EXTRACT: note_on channel=9 note=42 velocity=0 time=0.045871499999999996
EXTRACT: note_on channel=9 note=36 velocity=0 time=0
EXTRACT: note_on channel=9 note=39 velocity=56 time=0.0733944
EXTRACT: note_on channel=9 note=39 velocity=0 time=0.045871499999999996
EXTRACT: note_on channel=8 note=60 velocity=0 time=0.1009173
EXTRACT: note_on channel=8 note=68 velocity=0 time=0
EXTRACT: note_on channel=8 note=65 velocity=0 time=0
EXTRACT: note_on channel=8 note=58 velocity=78 time=0.00458715
EXTRACT: note_on channel=8 note=67 velocity=71 time=0
EXTRACT: note_on channel=8 note=63 velocity=85 time=0
EXTRACT: note_on channel=9 note=38 velocity=127 time=0.00458715
EXTRACT: note_on channel=9 note=42 velocity=42 time=0
EXTRACT: note_on channel=9 note=38 velocity=0 time=0.045871499999999996
EXTRACT: note_on channel=9 note=42 velocity=0 time=0
EXTRACT: note_on channel=9 note=69 velocity=78 time=0.2293575
EXTRACT: note_on channel=9 note=61 velocity=44 time=0
EXTRACT: note_on channel=9 note=42 velocity=42 time=0
EXTRACT: note_on channel=9 note=69 velocity=0 time=0.045871499999999996
EXTRACT: note_on channel=9 note=61 velocity=0 time=0
EXTRACT: note_on channel=9 note=42 velocity=0 time=0
EXTRACT: note_on channel=9 note=61 velocity=44 time=0.09174299999999999
EXTRACT: note_on channel=9 note=61 velocity=0 time=0.045871499999999996
EXTRACT: note_on channel=9 note=39 velocity=59 time=0.0733944
EXTRACT: note_on channel=3 note=55 velocity=0 time=0.00458715
EXTRACT: note_on channel=3 note=60 velocity=0 time=0
EXTRACT: note_on channel=3 note=63 velocity=0 time=0
EXTRACT: note_on channel=3 note=65 velocity=51 time=0
EXTRACT: note_on channel=3 note=56 velocity=74 time=0
EXTRACT: note_on channel=3 note=58 velocity=69 time=0
EXTRACT: note_on channel=3 note=61 velocity=70 time=0
EXTRACT: note_on channel=8 note=58 velocity=0 time=0.00458715
EXTRACT: note_on channel=8 note=67 velocity=0 time=0
EXTRACT: note_on channel=8 note=63 velocity=0 time=0
EXTRACT: note_on channel=0 note=34 velocity=93 time=0.00458715
EXTRACT: note_on channel=4 note=55 velocity=0 time=0
EXTRACT: note_on channel=4 note=63 velocity=0 time=0
EXTRACT: note_on channel=4 note=58 velocity=99 time=0
EXTRACT: note_on channel=4 note=65 velocity=87 time=0
EXTRACT: note_on channel=8 note=67 velocity=94 time=0
EXTRACT: note_on channel=1 note=34 velocity=114 time=0.00458715
EXTRACT: note_on channel=9 note=61 velocity=44 time=0
EXTRACT: note_on channel=9 note=42 velocity=42 time=0
EXTRACT: note_on channel=9 note=36 velocity=98 time=0
EXTRACT: note_on channel=2 note=55 velocity=0 time=0.00458715
EXTRACT: note_on channel=2 note=60 velocity=0 time=0
EXTRACT: note_on channel=2 note=63 velocity=0 time=0
EXTRACT: note_on channel=2 note=65 velocity=65 time=0
EXTRACT: note_on channel=2 note=56 velocity=71 time=0
EXTRACT: note_on channel=2 note=58 velocity=76 time=0
EXTRACT: note_on channel=2 note=61 velocity=85 time=0
EXTRACT: note_on channel=9 note=39 velocity=0 time=0.022935749999999998
EXTRACT: note_on channel=9 note=61 velocity=0 time=0.0183486
EXTRACT: note_on channel=9 note=42 velocity=0 time=0
EXTRACT: note_on channel=9 note=36 velocity=0 time=0
EXTRACT: note_on channel=9 note=39 velocity=61 time=0.0733944
EXTRACT: note_on channel=9 note=61 velocity=44 time=0.0183486
EXTRACT: note_on channel=9 note=39 velocity=0 time=0.0275229
EXTRACT: note_on channel=9 note=61 velocity=0 time=0.0183486
EXTRACT: note_on channel=0 note=34 velocity=0 time=0.08715584999999999
EXTRACT: note_on channel=9 note=64 velocity=50 time=0
EXTRACT: note_on channel=1 note=34 velocity=0 time=0.00458715
EXTRACT: note_on channel=9 note=61 velocity=44 time=0
EXTRACT: note_on channel=9 note=42 velocity=42 time=0
EXTRACT: note_on channel=9 note=64 velocity=0 time=0.04128435
EXTRACT: note_on channel=9 note=61 velocity=0 time=0.00458715
EXTRACT: note_on channel=9 note=42 velocity=0 time=0
EXTRACT: note_on channel=0 note=34 velocity=100 time=0.08715584999999999
EXTRACT: note_on channel=9 note=63 velocity=50 time=0
EXTRACT: note_on channel=1 note=34 velocity=98 time=0.00458715
EXTRACT: note_on channel=9 note=36 velocity=98 time=0
EXTRACT: note_on channel=9 note=63 velocity=0 time=0.04128435
EXTRACT: note_on channel=9 note=36 velocity=0 time=0.00458715
EXTRACT: note_on channel=9 note=39 velocity=62 time=0.0733944
EXTRACT: note_on channel=0 note=34 velocity=0 time=0.01376145
EXTRACT: note_on channel=9 note=64 velocity=50 time=0
EXTRACT: note_on channel=1 note=34 velocity=0 time=0.00458715
EXTRACT: note_on channel=9 note=38 velocity=127 time=0
EXTRACT: note_on channel=9 note=42 velocity=42 time=0
EXTRACT: note_on channel=9 note=39 velocity=0 time=0.0275229
EXTRACT: note_on channel=9 note=64 velocity=0 time=0.01376145
EXTRACT: note_on channel=9 note=38 velocity=0 time=0.00458715
EXTRACT: note_on channel=9 note=42 velocity=0 time=0
EXTRACT: note_on channel=9 note=39 velocity=65 time=0.0733944
EXTRACT: note_on channel=9 note=64 velocity=50 time=0.01376145
EXTRACT: note_on channel=9 note=39 velocity=0 time=0.03211005
EXTRACT: note_on channel=9 note=64 velocity=0 time=0.01376145
EXTRACT: note_on channel=8 note=67 velocity=0 time=0.08715584999999999
EXTRACT: note_on channel=0 note=34 velocity=93 time=0.00458715
EXTRACT: note_on channel=8 note=67 velocity=95 time=0
EXTRACT: note_on channel=9 note=63 velocity=50 time=0
EXTRACT: note_on channel=1 note=34 velocity=103 time=0.00458715
EXTRACT: note_on channel=9 note=69 velocity=75 time=0
EXTRACT: note_on channel=9 note=42 velocity=42 time=0
EXTRACT: note_on channel=9 note=63 velocity=0 time=0.04128435
EXTRACT: note_on channel=9 note=69 velocity=0 time=0.00458715
EXTRACT: note_on channel=9 note=42 velocity=0 time=0
EXTRACT: note_on channel=0 note=34 velocity=0 time=0.08715584999999999
EXTRACT: note_on channel=1 note=34 velocity=0 time=0.00458715
EXTRACT: note_on channel=9 note=69 velocity=77 time=0
EXTRACT: note_on channel=9 note=69 velocity=0 time=0.045871499999999996
EXTRACT: note_on channel=9 note=39 velocity=61 time=0.0733944
EXTRACT: note_on channel=3 note=65 velocity=0 time=0.00458715
EXTRACT: note_on channel=3 note=56 velocity=0 time=0
EXTRACT: note_on channel=3 note=58 velocity=0 time=0
EXTRACT: note_on channel=3 note=61 velocity=0 time=0
EXTRACT: note_on channel=3 note=61 velocity=75 time=0
EXTRACT: note_on channel=3 note=55 velocity=74 time=0
EXTRACT: note_on channel=3 note=58 velocity=76 time=0
EXTRACT: note_on channel=3 note=63 velocity=63 time=0
EXTRACT: note_on channel=8 note=67 velocity=0 time=0.00458715
EXTRACT: note_on channel=0 note=39 velocity=106 time=0.00458715
EXTRACT: note_on channel=4 note=58 velocity=0 time=0
EXTRACT: note_on channel=4 note=65 velocity=0 time=0
EXTRACT: note_on channel=4 note=55 velocity=106 time=0
EXTRACT: note_on channel=4 note=63 velocity=103 time=0
EXTRACT: note_on channel=8 note=65 velocity=96 time=0
EXTRACT: note_on channel=1 note=39 velocity=104 time=0.00458715
EXTRACT: note_on channel=9 note=29 velocity=45 time=0
EXTRACT: note_on channel=9 note=36 velocity=92 time=0
EXTRACT: note_on channel=2 note=65 velocity=0 time=0.00458715
EXTRACT: note_on channel=2 note=56 velocity=0 time=0
EXTRACT: note_on channel=2 note=58 velocity=0 time=0
EXTRACT: note_on channel=2 note=61 velocity=0 time=0
EXTRACT: note_on channel=2 note=61 velocity=78 time=0
EXTRACT: note_on channel=2 note=55 velocity=88 time=0
EXTRACT: note_on channel=2 note=58 velocity=78 time=0
EXTRACT: note_on channel=2 note=63 velocity=63 time=0
EXTRACT: note_on channel=9 note=39 velocity=0 time=0.022935749999999998
EXTRACT: note_on channel=9 note=29 velocity=0 time=0.0183486
EXTRACT: note_on channel=9 note=36 velocity=0 time=0
EXTRACT: note_on channel=9 note=39 velocity=72 time=0.0733944
EXTRACT: note_on channel=9 note=64 velocity=50 time=0.01376145
EXTRACT: note_on channel=9 note=29 velocity=31 time=0.00458715
EXTRACT: note_on channel=9 note=41 velocity=70 time=0
EXTRACT: note_on channel=9 note=39 velocity=0 time=0.0275229
EXTRACT: note_on channel=9 note=64 velocity=0 time=0.01376145
EXTRACT: note_on channel=9 note=29 velocity=0 time=0.00458715
EXTRACT: note_on channel=9 note=41 velocity=0 time=0
EXTRACT: note_on channel=8 note=65 velocity=0 time=0.0825687
EXTRACT: note_on channel=0 note=39 velocity=0 time=0.00458715
EXTRACT: note_on channel=8 note=63 velocity=114 time=0
EXTRACT: note_on channel=9 note=48 velocity=50 time=0
EXTRACT: note_on channel=1 note=39 velocity=0 time=0.00458715
EXTRACT: note_on channel=9 note=38 velocity=100 time=0
EXTRACT: note_on channel=9 note=29 velocity=45 time=0
EXTRACT: note_on channel=9 note=36 velocity=92 time=0
EXTRACT: note_on channel=9 note=48 velocity=0 time=0.04128435
EXTRACT: note_on channel=9 note=38 velocity=0 time=0.00458715
EXTRACT: note_on channel=9 note=29 velocity=0 time=0
EXTRACT: note_on channel=9 note=36 velocity=0 time=0
EXTRACT: note_on channel=0 note=39 velocity=94 time=0.08715584999999999
EXTRACT: note_on channel=9 note=64 velocity=50 time=0
EXTRACT: note_on channel=1 note=39 velocity=98 time=0.00458715
EXTRACT: note_on channel=9 note=29 velocity=31 time=0
EXTRACT: note_on channel=9 note=41 velocity=70 time=0
EXTRACT: note_on channel=9 note=64 velocity=0 time=0.04128435
EXTRACT: note_on channel=9 note=29 velocity=0 time=0.00458715
EXTRACT: note_on channel=9 note=41 velocity=0 time=0
EXTRACT: note_on channel=9 note=39 velocity=63 time=0.0733944
EXTRACT: note_on channel=8 note=63 velocity=0 time=0.0091743
EXTRACT: note_on channel=0 note=39 velocity=0 time=0.00458715
EXTRACT: note_on channel=8 note=63 velocity=96 time=0
EXTRACT: note_on channel=9 note=63 velocity=50 time=0
EXTRACT: note_on channel=1 note=39 velocity=0 time=0.00458715
EXTRACT: note_on channel=9 note=29 velocity=45 time=0
EXTRACT: note_on channel=9 note=38 velocity=127 time=0
EXTRACT: note_on channel=9 note=36 velocity=92 time=0
EXTRACT: note_on channel=9 note=39 velocity=0 time=0.0275229
EXTRACT: note_on channel=9 note=63 velocity=0 time=0.01376145
EXTRACT: note_on channel=9 note=29 velocity=0 time=0.00458715
EXTRACT: note_on channel=9 note=38 velocity=0 time=0
EXTRACT: note_on channel=9 note=36 velocity=0 time=0
EXTRACT: note_on channel=9 note=39 velocity=32 time=0.0733944
EXTRACT: note_on channel=9 note=29 velocity=31 time=0.0183486
EXTRACT: note_on channel=9 note=41 velocity=70 time=0
EXTRACT: note_on channel=9 note=39 velocity=0 time=0.0275229
EXTRACT: note_on channel=9 note=29 velocity=0 time=0.0183486
EXTRACT: note_on channel=9 note=41 velocity=0 time=0
EXTRACT: note_on channel=9 note=39 velocity=53 time=0.0733944
EXTRACT: note_on channel=9 note=38 velocity=127 time=0.0183486
EXTRACT: note_on channel=9 note=61 velocity=44 time=0
EXTRACT: note_on channel=9 note=29 velocity=45 time=0
EXTRACT: note_on channel=9 note=36 velocity=92 time=0
EXTRACT: note_on channel=9 note=39 velocity=0 time=0.0275229
EXTRACT: note_on channel=9 note=38 velocity=0 time=0.0183486
EXTRACT: note_on channel=9 note=61 velocity=0 time=0
EXTRACT: note_on channel=9 note=29 velocity=0 time=0
EXTRACT: note_on channel=9 note=36 velocity=0 time=0
EXTRACT: note_on channel=9 note=39 velocity=51 time=0.0733944
EXTRACT: note_on channel=9 note=38 velocity=127 time=0.0183486
EXTRACT: note_on channel=9 note=61 velocity=44 time=0
EXTRACT: note_on channel=9 note=29 velocity=31 time=0
EXTRACT: note_on channel=9 note=41 velocity=70 time=0
EXTRACT: note_on channel=9 note=39 velocity=0 time=0.0275229
EXTRACT: note_on channel=9 note=38 velocity=0 time=0.0183486
EXTRACT: note_on channel=9 note=61 velocity=0 time=0
EXTRACT: note_on channel=9 note=29 velocity=0 time=0
EXTRACT: note_on channel=9 note=41 velocity=0 time=0
EXTRACT: note_on channel=3 note=61 velocity=0 time=0.07798155
EXTRACT: note_on channel=3 note=55 velocity=0 time=0
EXTRACT: note_on channel=3 note=58 velocity=0 time=0
EXTRACT: note_on channel=3 note=63 velocity=0 time=0
EXTRACT: note_on channel=0 note=32 velocity=94 time=0.0091743
EXTRACT: note_on channel=1 note=32 velocity=98 time=0
EXTRACT: note_on channel=2 note=55 velocity=63 time=0
EXTRACT: note_on channel=2 note=60 velocity=63 time=0
EXTRACT: note_on channel=2 note=63 velocity=63 time=0
EXTRACT: note_on channel=3 note=55 velocity=63 time=0
EXTRACT: note_on channel=3 note=60 velocity=63 time=0
EXTRACT: note_on channel=3 note=63 velocity=63 time=0
EXTRACT: note_on channel=4 note=55 velocity=0 time=0
EXTRACT: note_on channel=4 note=63 velocity=0 time=0
EXTRACT: note_on channel=4 note=60 velocity=103 time=0
EXTRACT: note_on channel=4 note=63 velocity=103 time=0
EXTRACT: note_on channel=8 note=63 velocity=0 time=0
EXTRACT: note_on channel=8 note=67 velocity=116 time=0
EXTRACT: note_on channel=9 note=57 velocity=100 time=0
EXTRACT: note_on channel=9 note=36 velocity=105 time=0
EXTRACT: note_on channel=2 note=61 velocity=0 time=0.0091743
EXTRACT: note_on channel=2 note=55 velocity=0 time=0
EXTRACT: note_on channel=2 note=58 velocity=0 time=0
EXTRACT: note_on channel=2 note=63 velocity=0 time=0
EXTRACT: note_on channel=9 note=57 velocity=0 time=0.0366972
EXTRACT: note_on channel=9 note=36 velocity=0 time=0
EXTRACT: note_on channel=0 note=32 velocity=0 time=0.5045864999999999
EXTRACT: note_on channel=1 note=32 velocity=0 time=0
EXTRACT: note_on channel=2 note=55 velocity=0 time=0
EXTRACT: note_on channel=2 note=60 velocity=0 time=0
EXTRACT: note_on channel=2 note=63 velocity=0 time=0
EXTRACT: note_on channel=3 note=55 velocity=0 time=0
EXTRACT: note_on channel=3 note=60 velocity=0 time=0
EXTRACT: note_on channel=3 note=63 velocity=0 time=0
EXTRACT: note_on channel=4 note=60 velocity=0 time=0
EXTRACT: note_on channel=4 note=63 velocity=0 time=0
EXTRACT: note_on channel=8 note=67 velocity=0 time=0
