EXTRACT: sysex data=() time=0
EXTRACT: control_change channel=1 control=0 value=0 time=0
EXTRACT: control_change channel=1 control=7 value=109 time=0
EXTRACT: control_change channel=1 control=10 value=64 time=0
EXTRACT: control_change channel=1 control=91 value=84 time=0
EXTRACT: control_change channel=1 control=93 value=0 time=0
EXTRACT: control_change channel=1 control=32 value=0 time=0
EXTRACT: control_change channel=2 control=0 value=0 time=0
EXTRACT: control_change channel=2 control=7 value=110 time=0
EXTRACT: control_change channel=2 control=10 value=64 time=0
EXTRACT: control_change channel=2 control=91 value=84 time=0
EXTRACT: control_change channel=2 control=93 value=0 time=0
EXTRACT: control_change channel=2 control=32 value=0 time=0
EXTRACT: control_change channel=3 control=0 value=0 time=0
EXTRACT: control_change channel=3 control=7 value=109 time=0
EXTRACT: control_change channel=3 control=10 value=64 time=0
EXTRACT: control_change channel=3 control=91 value=84 time=0
EXTRACT: control_change channel=3 control=93 value=0 time=0
EXTRACT: control_change channel=3 control=32 value=0 time=0
EXTRACT: control_change channel=4 control=0 value=0 time=0
EXTRACT: control_change channel=4 control=7 value=100 time=0
EXTRACT: control_change channel=4 control=10 value=64 time=0
EXTRACT: control_change channel=4 control=91 value=84 time=0
EXTRACT: control_change channel=4 control=93 value=16 time=0
EXTRACT: control_change channel=4 control=32 value=0 time=0
EXTRACT: control_change channel=5 control=0 value=0 time=0
EXTRACT: control_change channel=5 control=7 value=65 time=0
EXTRACT: control_change channel=5 control=10 value=64 time=0
EXTRACT: control_change channel=5 control=91 value=124 time=0
EXTRACT: control_change channel=5 control=93 value=0 time=0
EXTRACT: control_change channel=5 control=32 value=0 time=0
EXTRACT: control_change channel=6 control=0 value=0 time=0
EXTRACT: control_change channel=6 control=7 value=85 time=0
EXTRACT: control_change channel=6 control=10 value=64 time=0
EXTRACT: control_change channel=6 control=91 value=84 time=0
EXTRACT: control_change channel=6 control=93 value=0 time=0
EXTRACT: control_change channel=6 control=32 value=0 time=0
EXTRACT: control_change channel=7 control=0 value=0 time=0
EXTRACT: control_change channel=7 control=7 value=60 time=0
EXTRACT: control_change channel=7 control=10 value=64 time=0
EXTRACT: control_change channel=7 control=91 value=84 time=0
EXTRACT: control_change channel=7 control=93 value=114 time=0
EXTRACT: control_change channel=7 control=32 value=0 time=0
EXTRACT: control_change channel=8 control=0 value=0 time=0
EXTRACT: control_change channel=8 control=7 value=110 time=0
EXTRACT: control_change channel=8 control=10 value=64 time=0
EXTRACT: control_change channel=8 control=91 value=84 time=0
EXTRACT: control_change channel=8 control=93 value=0 time=0
EXTRACT: control_change channel=8 control=32 value=0 time=0
EXTRACT: control_change channel=9 control=0 value=0 time=0
EXTRACT: control_change channel=9 control=7 value=100 time=0
EXTRACT: control_change channel=9 control=10 value=64 time=0
EXTRACT: control_change channel=9 control=91 value=74 time=0
EXTRACT: control_change channel=9 control=93 value=0 time=0
EXTRACT: control_change channel=9 control=32 value=0 time=0
EXTRACT: control_change channel=10 control=0 value=0 time=0
EXTRACT: control_change channel=10 control=7 value=100 time=0
EXTRACT: control_change channel=10 control=10 value=64 time=0
EXTRACT: control_change channel=10 control=91 value=84 time=0
EXTRACT: control_change channel=10 control=93 value=0 time=0
EXTRACT: control_change channel=10 control=32 value=0 time=0
EXTRACT: control_change channel=11 control=0 value=0 time=0
EXTRACT: control_change channel=11 control=7 value=70 time=0
EXTRACT: control_change channel=11 control=10 value=64 time=0
EXTRACT: control_change channel=11 control=91 value=114 time=0
EXTRACT: control_change channel=11 control=93 value=114 time=0
EXTRACT: control_change channel=11 control=32 value=0 time=0
EXTRACT: control_change channel=12 control=0 value=0 time=0
EXTRACT: control_change channel=12 control=7 value=60 time=0
EXTRACT: control_change channel=12 control=10 value=64 time=0
EXTRACT: control_change channel=12 control=91 value=114 time=0
EXTRACT: control_change channel=12 control=93 value=114 time=0
EXTRACT: control_change channel=12 control=32 value=0 time=0
EXTRACT: program_change channel=1 program=43 time=0.0015625
EXTRACT: program_change channel=2 program=0 time=0
EXTRACT: program_change channel=3 program=82 time=0
EXTRACT: program_change channel=4 program=53 time=0
EXTRACT: program_change channel=5 program=54 time=0
EXTRACT: program_change channel=6 program=42 time=0
EXTRACT: program_change channel=7 program=91 time=0
EXTRACT: program_change channel=8 program=49 time=0
EXTRACT: program_change channel=9 program=0 time=0
EXTRACT: program_change channel=10 program=116 time=0
EXTRACT: program_change channel=11 program=50 time=0
EXTRACT: program_change channel=12 program=81 time=0
EXTRACT: control_change channel=2 control=0 value=0 time=0.7484375000000001
EXTRACT: control_change channel=2 control=11 value=127 time=0.0234375
EXTRACT: control_change channel=2 control=10 value=64 time=0
EXTRACT: control_change channel=1 control=0 value=0 time=0.015625
EXTRACT: control_change channel=1 control=11 value=127 time=0.0234375
EXTRACT: control_change channel=1 control=10 value=64 time=0
EXTRACT: control_change channel=1 control=77 value=32 time=0.015625
EXTRACT: control_change channel=3 control=0 value=0 time=0.0390625
EXTRACT: control_change channel=3 control=11 value=127 time=0.0234375
EXTRACT: control_change channel=3 control=10 value=64 time=0
EXTRACT: control_change channel=4 control=0 value=0 time=0.015625
EXTRACT: control_change channel=4 control=11 value=127 time=0.0234375
EXTRACT: control_change channel=4 control=10 value=69 time=0
EXTRACT: control_change channel=5 control=0 value=0 time=0.015625
EXTRACT: control_change channel=5 control=11 value=127 time=0.0234375
EXTRACT: control_change channel=5 control=10 value=34 time=0
EXTRACT: control_change channel=6 control=0 value=0 time=0.015625
EXTRACT: control_change channel=6 control=11 value=127 time=0.0234375
EXTRACT: control_change channel=6 control=10 value=74 time=0
EXTRACT: control_change channel=7 control=0 value=0 time=0.015625
EXTRACT: control_change channel=7 control=11 value=127 time=0.0234375
EXTRACT: control_change channel=7 control=10 value=64 time=0
EXTRACT: control_change channel=7 control=73 value=84 time=0.015625
EXTRACT: control_change channel=7 control=72 value=74 time=0
EXTRACT: control_change channel=8 control=0 value=0 time=0
EXTRACT: control_change channel=8 control=11 value=127 time=0.0234375
EXTRACT: control_change channel=8 control=10 value=64 time=0
EXTRACT: control_change channel=9 control=0 value=0 time=0.015625
EXTRACT: control_change channel=9 control=11 value=127 time=0.0234375
EXTRACT: control_change channel=9 control=10 value=64 time=0
EXTRACT: control_change channel=10 control=0 value=8 time=0.015625
EXTRACT: control_change channel=10 control=11 value=127 time=0.0234375
EXTRACT: control_change channel=10 control=10 value=64 time=0
EXTRACT: control_change channel=11 control=0 value=8 time=0.015625
EXTRACT: control_change channel=11 control=11 value=127 time=0.0234375
EXTRACT: control_change channel=11 control=10 value=64 time=0
EXTRACT: control_change channel=11 control=73 value=0 time=0.015625
EXTRACT: control_change channel=11 control=72 value=0 time=0
EXTRACT: control_change channel=12 control=0 value=0 time=0
EXTRACT: control_change channel=12 control=11 value=127 time=0.0234375
EXTRACT: control_change channel=12 control=10 value=64 time=0
EXTRACT: control_change channel=9 control=99 value=28 time=0.31562500000000004
EXTRACT: control_change channel=9 control=98 value=35 time=0.0015625
EXTRACT: control_change channel=9 control=6 value=58 time=0.0015625
EXTRACT: control_change channel=9 control=38 value=0 time=0.0015625
EXTRACT: note_on channel=9 note=42 velocity=75 time=1.4375
EXTRACT: note_on channel=9 note=42 velocity=0 time=0.028125
EXTRACT: note_on channel=9 note=42 velocity=75 time=0.721875
EXTRACT: note_on channel=9 note=42 velocity=0 time=0.028125
EXTRACT: note_on channel=9 note=42 velocity=75 time=0.721875
EXTRACT: note_on channel=9 note=42 velocity=0 time=0.028125
EXTRACT: note_on channel=9 note=42 velocity=75 time=0.721875
EXTRACT: note_on channel=9 note=42 velocity=0 time=0.028125
EXTRACT: note_on channel=7 note=73 velocity=59 time=0.7171875000000001
EXTRACT: note_on channel=7 note=57 velocity=59 time=0.0015625
EXTRACT: note_on channel=9 note=35 velocity=115 time=0.003125
EXTRACT: note_on channel=9 note=36 velocity=115 time=0
EXTRACT: note_on channel=2 note=45 velocity=89 time=0.004687500000000001
EXTRACT: note_on channel=9 note=36 velocity=0 time=0.0234375
EXTRACT: note_on channel=9 note=35 velocity=0 time=0
EXTRACT: note_on channel=2 note=64 velocity=73 time=0.16718750000000002
EXTRACT: note_on channel=2 note=69 velocity=83 time=0.1875
EXTRACT: note_on channel=2 note=64 velocity=0 time=0.1484375
EXTRACT: note_on channel=2 note=64 velocity=74 time=0.034375
EXTRACT: note_on channel=9 note=39 velocity=113 time=0.18281250000000002
EXTRACT: note_on channel=2 note=73 velocity=91 time=0.00625
EXTRACT: note_on channel=7 note=57 velocity=61 time=0.0015625
EXTRACT: note_on channel=7 note=73 velocity=61 time=0.0015625
EXTRACT: note_on channel=9 note=39 velocity=0 time=0.018750000000000003
EXTRACT: note_on channel=2 note=64 velocity=0 time=0.1296875
EXTRACT: note_on channel=2 note=64 velocity=73 time=0.021875000000000002
EXTRACT: note_on channel=2 note=69 velocity=0 time=0.16562500000000002
EXTRACT: note_on channel=2 note=69 velocity=79 time=0.035937500000000004
EXTRACT: note_on channel=2 note=64 velocity=0 time=0.15156250000000002
EXTRACT: note_on channel=2 note=64 velocity=88 time=0.025
EXTRACT: note_on channel=2 note=73 velocity=0 time=0.1625
EXTRACT: note_on channel=2 note=73 velocity=95 time=0.026562500000000003
EXTRACT: note_on channel=9 note=36 velocity=115 time=0.004687500000000001
EXTRACT: note_on channel=9 note=36 velocity=0 time=0.028125
EXTRACT: note_on channel=2 note=64 velocity=0 time=0.12812500000000002
EXTRACT: note_on channel=2 note=64 velocity=77 time=0.026562500000000003
EXTRACT: note_on channel=2 note=69 velocity=0 time=0.1609375
EXTRACT: note_on channel=2 note=69 velocity=82 time=0.034375
EXTRACT: note_on channel=2 note=64 velocity=0 time=0.153125
EXTRACT: note_on channel=2 note=64 velocity=86 time=0.029687500000000002
EXTRACT: note_on channel=2 note=73 velocity=0 time=0.15781250000000002
EXTRACT: note_on channel=2 note=73 velocity=95 time=0.035937500000000004
EXTRACT: note_on channel=9 note=39 velocity=113 time=0.00625
EXTRACT: note_on channel=9 note=39 velocity=0 time=0.028125
EXTRACT: note_on channel=2 note=64 velocity=0 time=0.1171875
EXTRACT: note_on channel=2 note=64 velocity=81 time=0.029687500000000002
EXTRACT: note_on channel=9 note=35 velocity=115 time=0.0015625
EXTRACT: note_on channel=9 note=36 velocity=115 time=0
EXTRACT: note_on channel=9 note=36 velocity=0 time=0.028125
EXTRACT: note_on channel=9 note=35 velocity=0 time=0
EXTRACT: note_on channel=2 note=71 velocity=105 time=0.1609375
EXTRACT: note_on channel=2 note=73 velocity=0 time=0.1546875
EXTRACT: note_on channel=2 note=73 velocity=104 time=0.026562500000000003
EXTRACT: note_on channel=2 note=73 velocity=0 time=0.1609375
EXTRACT: note_on channel=2 note=71 velocity=0 time=0
EXTRACT: note_on channel=2 note=69 velocity=0 time=0
EXTRACT: note_on channel=2 note=45 velocity=0 time=0
EXTRACT: note_on channel=2 note=64 velocity=0 time=0
EXTRACT: note_on channel=7 note=73 velocity=0 time=0
EXTRACT: note_on channel=7 note=73 velocity=0 time=0
EXTRACT: note_on channel=7 note=57 velocity=0 time=0
EXTRACT: note_on channel=7 note=57 velocity=0 time=0
EXTRACT: note_on channel=2 note=47 velocity=91 time=0.021875000000000002
EXTRACT: note_on channel=7 note=74 velocity=62 time=0.0078125
EXTRACT: note_on channel=9 note=35 velocity=115 time=0.0015625
EXTRACT: note_on channel=9 note=36 velocity=115 time=0
EXTRACT: note_on channel=7 note=59 velocity=59 time=0.003125
EXTRACT: note_on channel=2 note=74 velocity=93 time=0.003125
EXTRACT: note_on channel=2 note=59 velocity=92 time=0.0015625
EXTRACT: note_on channel=9 note=36 velocity=0 time=0.0203125
EXTRACT: note_on channel=9 note=35 velocity=0 time=0
EXTRACT: note_on channel=2 note=66 velocity=74 time=0.16875
EXTRACT: note_on channel=2 note=71 velocity=77 time=0.17500000000000002
EXTRACT: note_on channel=2 note=66 velocity=0 time=0.15937500000000002
EXTRACT: note_on channel=2 note=66 velocity=78 time=0.021875000000000002
EXTRACT: note_on channel=9 note=35 velocity=115 time=0.009375000000000001
EXTRACT: note_on channel=9 note=36 velocity=115 time=0
EXTRACT: note_on channel=9 note=36 velocity=0 time=0.028125
EXTRACT: note_on channel=9 note=35 velocity=0 time=0
EXTRACT: note_on channel=2 note=74 velocity=0 time=0.12812500000000002
EXTRACT: note_on channel=2 note=74 velocity=93 time=0.026562500000000003
EXTRACT: note_on channel=9 note=39 velocity=115 time=0
EXTRACT: note_on channel=9 note=39 velocity=0 time=0.028125
EXTRACT: note_on channel=2 note=66 velocity=0 time=0.1328125
EXTRACT: note_on channel=2 note=66 velocity=75 time=0.043750000000000004
EXTRACT: note_on channel=2 note=71 velocity=0 time=0.14375000000000002
EXTRACT: note_on channel=2 note=71 velocity=85 time=0.043750000000000004
EXTRACT: note_on channel=2 note=66 velocity=0 time=0.14375000000000002
EXTRACT: note_on channel=2 note=66 velocity=90 time=0.026562500000000003
EXTRACT: note_on channel=2 note=74 velocity=0 time=0.1609375
EXTRACT: note_on channel=2 note=74 velocity=90 time=0.0234375
EXTRACT: note_on channel=9 note=36 velocity=115 time=0.0078125
EXTRACT: note_on channel=9 note=36 velocity=0 time=0.028125
EXTRACT: note_on channel=2 note=66 velocity=0 time=0.12812500000000002
EXTRACT: note_on channel=2 note=66 velocity=81 time=0.025
EXTRACT: note_on channel=2 note=73 velocity=84 time=0.1859375
EXTRACT: note_on channel=2 note=66 velocity=0 time=0.1640625
EXTRACT: note_on channel=2 note=66 velocity=86 time=0.025
EXTRACT: note_on channel=9 note=35 velocity=115 time=0.00625
EXTRACT: note_on channel=9 note=36 velocity=115 time=0
EXTRACT: note_on channel=9 note=36 velocity=0 time=0.028125
EXTRACT: note_on channel=9 note=35 velocity=0 time=0
EXTRACT: note_on channel=2 note=71 velocity=0 time=0.12812500000000002
EXTRACT: note_on channel=2 note=71 velocity=96 time=0.035937500000000004
EXTRACT: note_on channel=9 note=39 velocity=114 time=0.0078125
EXTRACT: note_on channel=9 note=39 velocity=0 time=0.028125
EXTRACT: note_on channel=2 note=73 velocity=0 time=0.021875000000000002
EXTRACT: note_on channel=2 note=73 velocity=79 time=0.018750000000000003
EXTRACT: note_on channel=2 note=73 velocity=0 time=0.07500000000000001
EXTRACT: note_on channel=2 note=71 velocity=0 time=0
EXTRACT: note_on channel=9 note=35 velocity=115 time=0.03125
EXTRACT: note_on channel=9 note=36 velocity=115 time=0
EXTRACT: note_on channel=2 note=71 velocity=82 time=0.009375000000000001
EXTRACT: note_on channel=9 note=36 velocity=0 time=0.018750000000000003
EXTRACT: note_on channel=9 note=35 velocity=0 time=0
EXTRACT: note_on channel=2 note=71 velocity=0 time=0.034375
EXTRACT: note_on channel=2 note=71 velocity=88 time=0.035937500000000004
EXTRACT: note_on channel=2 note=71 velocity=0 time=0.0578125
EXTRACT: note_on channel=2 note=69 velocity=104 time=0.018750000000000003
EXTRACT: note_on channel=9 note=36 velocity=115 time=0.0125
EXTRACT: note_on channel=9 note=36 velocity=0 time=0.028125
EXTRACT: note_on channel=2 note=68 velocity=103 time=0.15625
EXTRACT: note_on channel=9 note=36 velocity=115 time=0.003125
EXTRACT: note_on channel=9 note=36 velocity=0 time=0.028125
EXTRACT: note_on channel=2 note=68 velocity=0 time=0.12812500000000002
EXTRACT: note_on channel=2 note=66 velocity=0 time=0
EXTRACT: note_on channel=2 note=59 velocity=0 time=0
EXTRACT: note_on channel=2 note=47 velocity=0 time=0
EXTRACT: note_on channel=2 note=69 velocity=0 time=0
EXTRACT: note_on channel=2 note=74 velocity=0 time=0
EXTRACT: note_on channel=7 note=59 velocity=0 time=0
EXTRACT: note_on channel=7 note=74 velocity=0 time=0
EXTRACT: note_on channel=2 note=42 velocity=84 time=0.028125
EXTRACT: note_on channel=2 note=69 velocity=83 time=0
EXTRACT: note_on channel=9 note=35 velocity=115 time=0.003125
EXTRACT: note_on channel=9 note=36 velocity=115 time=0
EXTRACT: note_on channel=7 note=54 velocity=59 time=0.0015625
EXTRACT: note_on channel=2 note=54 velocity=74 time=0.00625
EXTRACT: note_on channel=7 note=69 velocity=61 time=0.003125
EXTRACT: note_on channel=9 note=36 velocity=0 time=0.0171875
EXTRACT: note_on channel=9 note=35 velocity=0 time=0
EXTRACT: note_on channel=2 note=61 velocity=75 time=0.15781250000000002
EXTRACT: note_on channel=2 note=66 velocity=81 time=0.1875
EXTRACT: note_on channel=2 note=61 velocity=0 time=0.15781250000000002
EXTRACT: note_on channel=2 note=61 velocity=74 time=0.025
EXTRACT: note_on channel=2 note=69 velocity=0 time=0.1625
EXTRACT: note_on channel=2 note=69 velocity=90 time=0.034375
EXTRACT: note_on channel=9 note=39 velocity=117 time=0
EXTRACT: note_on channel=9 note=39 velocity=0 time=0.028125
EXTRACT: note_on channel=2 note=61 velocity=0 time=0.125
EXTRACT: note_on channel=2 note=61 velocity=74 time=0.035937500000000004
EXTRACT: note_on channel=2 note=66 velocity=0 time=0.15156250000000002
EXTRACT: note_on channel=2 note=66 velocity=82 time=0.034375
EXTRACT: note_on channel=2 note=61 velocity=0 time=0.153125
EXTRACT: note_on channel=2 note=61 velocity=88 time=0.029687500000000002
EXTRACT: note_on channel=2 note=69 velocity=0 time=0.15781250000000002
EXTRACT: note_on channel=2 note=69 velocity=93 time=0.018750000000000003
EXTRACT: note_on channel=9 note=36 velocity=115 time=0.0125
EXTRACT: note_on channel=9 note=36 velocity=0 time=0.028125
EXTRACT: note_on channel=2 note=61 velocity=0 time=0.12812500000000002
EXTRACT: note_on channel=2 note=61 velocity=80 time=0.0328125
EXTRACT: note_on channel=2 note=66 velocity=0 time=0.1546875
EXTRACT: note_on channel=9 note=35 velocity=115 time=0.03125
EXTRACT: note_on channel=9 note=36 velocity=115 time=0
EXTRACT: note_on channel=2 note=66 velocity=82 time=0.00625
EXTRACT: note_on channel=9 note=36 velocity=0 time=0.021875000000000002
EXTRACT: note_on channel=9 note=35 velocity=0 time=0
EXTRACT: note_on channel=2 note=61 velocity=0 time=0.12812500000000002
EXTRACT: note_on channel=2 note=61 velocity=84 time=0.0421875
EXTRACT: note_on channel=2 note=69 velocity=0 time=0.1453125
EXTRACT: note_on channel=2 note=69 velocity=95 time=0.025
EXTRACT: note_on channel=9 note=39 velocity=113 time=0.010937500000000001
EXTRACT: note_on channel=9 note=39 velocity=0 time=0.028125
EXTRACT: note_on channel=2 note=71 velocity=101 time=0.146875
EXTRACT: note_on channel=9 note=35 velocity=115 time=0.0078125
EXTRACT: note_on channel=9 note=36 velocity=115 time=0
EXTRACT: note_on channel=9 note=36 velocity=0 time=0.028125
EXTRACT: note_on channel=9 note=35 velocity=0 time=0
EXTRACT: note_on channel=2 note=69 velocity=0 time=0.12812500000000002
EXTRACT: note_on channel=2 note=69 velocity=107 time=0.034375
EXTRACT: note_on channel=2 note=68 velocity=104 time=0.19062500000000002
EXTRACT: note_on channel=2 note=68 velocity=0 time=0.15000000000000002
EXTRACT: note_on channel=2 note=54 velocity=0 time=0
EXTRACT: note_on channel=2 note=71 velocity=0 time=0
EXTRACT: note_on channel=2 note=61 velocity=0 time=0
EXTRACT: note_on channel=2 note=42 velocity=0 time=0
EXTRACT: note_on channel=2 note=69 velocity=0 time=0
EXTRACT: note_on channel=2 note=66 velocity=0 time=0
EXTRACT: note_on channel=7 note=69 velocity=0 time=0
EXTRACT: note_on channel=7 note=54 velocity=0 time=0
EXTRACT: note_on channel=7 note=69 velocity=59 time=0.025
EXTRACT: note_on channel=2 note=38 velocity=71 time=0.003125
EXTRACT: note_on channel=9 note=35 velocity=115 time=0.003125
EXTRACT: note_on channel=9 note=36 velocity=115 time=0
EXTRACT: note_on channel=2 note=50 velocity=75 time=0.003125
EXTRACT: note_on channel=2 note=66 velocity=75 time=0
EXTRACT: note_on channel=1 note=38 velocity=77 time=0.0015625
EXTRACT: note_on channel=7 note=50 velocity=60 time=0.0015625
EXTRACT: note_on channel=9 note=36 velocity=0 time=0.021875000000000002
EXTRACT: note_on channel=9 note=35 velocity=0 time=0
EXTRACT: note_on channel=2 note=66 velocity=0 time=0.31562500000000004
EXTRACT: note_on channel=2 note=66 velocity=75 time=0.034375
EXTRACT: note_on channel=2 note=62 velocity=79 time=0.1796875
EXTRACT: note_on channel=9 note=35 velocity=115 time=0.004687500000000001
EXTRACT: note_on channel=9 note=36 velocity=115 time=0
EXTRACT: note_on channel=9 note=36 velocity=0 time=0.028125
EXTRACT: note_on channel=9 note=35 velocity=0 time=0
EXTRACT: note_on channel=2 note=66 velocity=0 time=0.12812500000000002
EXTRACT: note_on channel=2 note=66 velocity=90 time=0.034375
EXTRACT: note_on channel=9 note=39 velocity=116 time=0
EXTRACT: note_on channel=9 note=39 velocity=0 time=0.028125
EXTRACT: note_on channel=2 note=62 velocity=0 time=0.125
EXTRACT: note_on channel=2 note=62 velocity=75 time=0.0421875
EXTRACT: note_on channel=2 note=66 velocity=0 time=0.1453125
EXTRACT: note_on channel=2 note=66 velocity=84 time=0.028125
EXTRACT: note_on channel=2 note=62 velocity=0 time=0.15937500000000002
EXTRACT: note_on channel=2 note=62 velocity=87 time=0.0328125
EXTRACT: note_on channel=2 note=69 velocity=93 time=0.1796875
EXTRACT: note_on channel=6 note=52 velocity=86 time=0.0015625
EXTRACT: note_on channel=9 note=36 velocity=115 time=0.004687500000000001
EXTRACT: note_on channel=9 note=36 velocity=0 time=0.028125
EXTRACT: note_on channel=2 note=62 velocity=0 time=0.12812500000000002
EXTRACT: note_on channel=2 note=62 velocity=79 time=0.0328125
EXTRACT: note_on channel=2 note=66 velocity=0 time=0.1546875
EXTRACT: note_on channel=6 note=52 velocity=0 time=0
EXTRACT: note_on channel=2 note=66 velocity=85 time=0.021875000000000002
EXTRACT: note_on channel=6 note=54 velocity=86 time=0.003125
EXTRACT: note_on channel=2 note=62 velocity=0 time=0.1625
EXTRACT: note_on channel=9 note=36 velocity=115 time=0.03125
EXTRACT: note_on channel=2 note=62 velocity=87 time=0.0078125
EXTRACT: note_on channel=9 note=36 velocity=0 time=0.0203125
EXTRACT: note_on channel=2 note=69 velocity=0 time=0.12812500000000002
EXTRACT: note_on channel=6 note=54 velocity=0 time=0
EXTRACT: note_on channel=9 note=39 velocity=114 time=0.021875000000000002
EXTRACT: note_on channel=6 note=57 velocity=86 time=0.009375000000000001
EXTRACT: note_on channel=2 note=69 velocity=117 time=0.003125
EXTRACT: note_on channel=9 note=39 velocity=0 time=0.015625
EXTRACT: note_on channel=2 note=68 velocity=99 time=0.16562500000000002
EXTRACT: note_on channel=9 note=35 velocity=115 time=0.003125
EXTRACT: note_on channel=9 note=36 velocity=115 time=0
EXTRACT: note_on channel=9 note=36 velocity=0 time=0.028125
EXTRACT: note_on channel=9 note=35 velocity=0 time=0
EXTRACT: note_on channel=2 note=66 velocity=0 time=0.12812500000000002
EXTRACT: note_on channel=6 note=57 velocity=0 time=0
EXTRACT: note_on channel=2 note=66 velocity=106 time=0.025
EXTRACT: note_on channel=9 note=35 velocity=115 time=0.00625
EXTRACT: note_on channel=9 note=36 velocity=115 time=0
EXTRACT: note_on channel=6 note=59 velocity=83 time=0.004687500000000001
EXTRACT: note_on channel=9 note=36 velocity=0 time=0.0234375
EXTRACT: note_on channel=9 note=35 velocity=0 time=0
EXTRACT: note_on channel=2 note=66 velocity=0 time=0.12812500000000002
EXTRACT: note_on channel=2 note=64 velocity=102 time=0.028125
EXTRACT: note_on channel=9 note=36 velocity=115 time=0.003125
EXTRACT: note_on channel=9 note=36 velocity=0 time=0.028125
EXTRACT: note_on channel=1 note=38 velocity=0 time=0.1203125
EXTRACT: note_on channel=2 note=64 velocity=0 time=0.0078125
EXTRACT: note_on channel=2 note=50 velocity=0 time=0
EXTRACT: note_on channel=2 note=62 velocity=0 time=0
EXTRACT: note_on channel=2 note=38 velocity=0 time=0
EXTRACT: note_on channel=2 note=68 velocity=0 time=0
EXTRACT: note_on channel=2 note=69 velocity=0 time=0
EXTRACT: note_on channel=6 note=59 velocity=0 time=0
EXTRACT: note_on channel=7 note=50 velocity=0 time=0
EXTRACT: note_on channel=7 note=69 velocity=0 time=0
EXTRACT: note_on channel=2 note=64 velocity=93 time=0.018750000000000003
EXTRACT: note_on channel=7 note=57 velocity=58 time=0.00625
EXTRACT: note_on channel=2 note=57 velocity=93 time=0.0015625
EXTRACT: note_on channel=6 note=57 velocity=74 time=0
EXTRACT: note_on channel=2 note=45 velocity=92 time=0.0015625
EXTRACT: note_on channel=7 note=73 velocity=60 time=0
EXTRACT: note_on channel=9 note=35 velocity=115 time=0.003125
EXTRACT: note_on channel=9 note=36 velocity=115 time=0
EXTRACT: note_on channel=1 note=33 velocity=77 time=0.003125
EXTRACT: note_on channel=2 note=61 velocity=89 time=0.0078125
EXTRACT: note_on channel=9 note=36 velocity=0 time=0.0171875
EXTRACT: note_on channel=9 note=35 velocity=0 time=0
EXTRACT: note_on channel=9 note=39 velocity=113 time=0.71875
EXTRACT: note_on channel=9 note=39 velocity=0 time=0.028125
EXTRACT: note_on channel=3 note=64 velocity=85 time=0.5484375
EXTRACT: note_on channel=3 note=64 velocity=0 time=0.153125
EXTRACT: note_on channel=9 note=36 velocity=115 time=0.0234375
EXTRACT: note_on channel=3 note=73 velocity=89 time=0.003125
EXTRACT: note_on channel=9 note=36 velocity=0 time=0.025
EXTRACT: note_on channel=3 note=73 velocity=0 time=0.05
EXTRACT: note_on channel=3 note=73 velocity=74 time=0.109375
EXTRACT: note_on channel=3 note=73 velocity=0 time=0.078125
EXTRACT: note_on channel=3 note=73 velocity=79 time=0.11406250000000001
EXTRACT: note_on channel=3 note=73 velocity=0 time=0.34687500000000004
EXTRACT: note_on channel=9 note=39 velocity=113 time=0.0171875
EXTRACT: note_on channel=3 note=73 velocity=86 time=0.0015625
EXTRACT: note_on channel=9 note=39 velocity=0 time=0.026562500000000003
EXTRACT: note_on channel=9 note=35 velocity=115 time=0.16562500000000002
EXTRACT: note_on channel=9 note=36 velocity=115 time=0
EXTRACT: note_on channel=9 note=36 velocity=0 time=0.028125
EXTRACT: note_on channel=9 note=35 velocity=0 time=0
EXTRACT: note_on channel=3 note=73 velocity=0 time=0.13593750000000002
EXTRACT: note_on channel=3 note=71 velocity=76 time=0.029687500000000002
EXTRACT: note_on channel=3 note=71 velocity=0 time=0.07187500000000001
EXTRACT: note_on channel=3 note=74 velocity=81 time=0.1046875
EXTRACT: note_on channel=1 note=33 velocity=0 time=0.153125
EXTRACT: note_on channel=2 note=61 velocity=0 time=0.0078125
EXTRACT: note_on channel=2 note=64 velocity=0 time=0
EXTRACT: note_on channel=2 note=57 velocity=0 time=0
EXTRACT: note_on channel=2 note=45 velocity=0 time=0
EXTRACT: note_on channel=6 note=57 velocity=0 time=0
EXTRACT: note_on channel=7 note=73 velocity=0 time=0
EXTRACT: note_on channel=7 note=57 velocity=0 time=0
EXTRACT: note_on channel=2 note=59 velocity=91 time=0.026562500000000003
EXTRACT: note_on channel=6 note=59 velocity=77 time=0
EXTRACT: note_on channel=2 note=50 velocity=91 time=0.0015625
EXTRACT: note_on channel=1 note=35 velocity=76 time=0.0015625
EXTRACT: note_on channel=9 note=35 velocity=115 time=0.0015625
EXTRACT: note_on channel=9 note=36 velocity=115 time=0
EXTRACT: note_on channel=2 note=54 velocity=89 time=0.003125
EXTRACT: note_on channel=7 note=59 velocity=61 time=0.003125
EXTRACT: note_on channel=7 note=74 velocity=59 time=0.004687500000000001
EXTRACT: note_on channel=2 note=47 velocity=91 time=0.0015625
EXTRACT: note_on channel=9 note=36 velocity=0 time=0.015625
EXTRACT: note_on channel=9 note=35 velocity=0 time=0
EXTRACT: note_on channel=9 note=35 velocity=115 time=0.534375
EXTRACT: note_on channel=9 note=36 velocity=115 time=0
EXTRACT: note_on channel=9 note=36 velocity=0 time=0.028125
EXTRACT: note_on channel=9 note=35 velocity=0 time=0
EXTRACT: note_on channel=3 note=74 velocity=0 time=0.13593750000000002
EXTRACT: note_on channel=9 note=39 velocity=117 time=0.025
EXTRACT: note_on channel=7 note=76 velocity=61 time=0.004687500000000001
EXTRACT: note_on channel=9 note=39 velocity=0 time=0.0234375
EXTRACT: note_on channel=3 note=66 velocity=86 time=0.5375
EXTRACT: note_on channel=3 note=66 velocity=0 time=0.0734375
EXTRACT: note_on channel=9 note=36 velocity=115 time=0.109375
EXTRACT: note_on channel=3 note=71 velocity=86 time=0.003125
EXTRACT: note_on channel=9 note=36 velocity=0 time=0.025
EXTRACT: note_on channel=3 note=71 velocity=0 time=0.05
EXTRACT: note_on channel=3 note=71 velocity=73 time=0.1203125
EXTRACT: note_on channel=3 note=71 velocity=0 time=0.0671875
EXTRACT: note_on channel=3 note=71 velocity=81 time=0.115625
EXTRACT: note_on channel=2 note=54 velocity=0 time=0.15000000000000002
EXTRACT: note_on channel=2 note=54 velocity=81 time=0.028125
EXTRACT: note_on channel=9 note=35 velocity=115 time=0.003125
EXTRACT: note_on channel=9 note=36 velocity=115 time=0
EXTRACT: note_on channel=9 note=36 velocity=0 time=0.028125
EXTRACT: note_on channel=9 note=35 velocity=0 time=0
EXTRACT: note_on channel=7 note=76 velocity=0 time=0.12812500000000002
EXTRACT: note_on channel=3 note=71 velocity=0 time=0.0078125
EXTRACT: note_on channel=2 note=62 velocity=92 time=0.0140625
EXTRACT: note_on channel=9 note=39 velocity=113 time=0.0015625
EXTRACT: note_on channel=3 note=71 velocity=92 time=0.010937500000000001
EXTRACT: note_on channel=9 note=39 velocity=0 time=0.0171875
EXTRACT: note_on channel=3 note=71 velocity=0 time=0.14375000000000002
EXTRACT: note_on channel=3 note=73 velocity=75 time=0.0125
EXTRACT: note_on channel=2 note=61 velocity=75 time=0.00625
EXTRACT: note_on channel=9 note=35 velocity=115 time=0.004687500000000001
EXTRACT: note_on channel=9 note=36 velocity=115 time=0
EXTRACT: note_on channel=9 note=36 velocity=0 time=0.028125
EXTRACT: note_on channel=9 note=35 velocity=0 time=0
EXTRACT: note_on channel=3 note=73 velocity=0 time=0.05
EXTRACT: note_on channel=2 note=59 velocity=0 time=0.078125
EXTRACT: note_on channel=9 note=36 velocity=115 time=0.03125
EXTRACT: note_on channel=2 note=59 velocity=75 time=0.004687500000000001
EXTRACT: note_on channel=3 note=69 velocity=79 time=0
EXTRACT: note_on channel=9 note=36 velocity=0 time=0.0234375
EXTRACT: note_on channel=3 note=69 velocity=0 time=0.05
EXTRACT: note_on channel=9 note=36 velocity=115 time=0.109375
EXTRACT: note_on channel=3 note=69 velocity=75 time=0.003125
EXTRACT: note_on channel=9 note=36 velocity=0 time=0.025
EXTRACT: note_on channel=1 note=35 velocity=0 time=0.1203125
EXTRACT: note_on channel=2 note=59 velocity=0 time=0.0078125
EXTRACT: note_on channel=2 note=61 velocity=0 time=0
EXTRACT: note_on channel=2 note=54 velocity=0 time=0
EXTRACT: note_on channel=2 note=47 velocity=0 time=0
EXTRACT: note_on channel=2 note=50 velocity=0 time=0
EXTRACT: note_on channel=2 note=62 velocity=0 time=0
EXTRACT: note_on channel=6 note=59 velocity=0 time=0
EXTRACT: note_on channel=7 note=74 velocity=0 time=0
EXTRACT: note_on channel=7 note=59 velocity=0 time=0
EXTRACT: note_on channel=7 note=66 velocity=58 time=0.018750000000000003
EXTRACT: note_on channel=6 note=54 velocity=75 time=0.0015625
EXTRACT: note_on channel=2 note=49 velocity=90 time=0.009375000000000001
EXTRACT: note_on channel=9 note=35 velocity=115 time=0.0015625
EXTRACT: note_on channel=9 note=36 velocity=115 time=0
EXTRACT: note_on channel=2 note=57 velocity=93 time=0.004687500000000001
EXTRACT: note_on channel=1 note=42 velocity=76 time=0.0015625
EXTRACT: note_on channel=2 note=42 velocity=90 time=0
EXTRACT: note_on channel=2 note=54 velocity=89 time=0
EXTRACT: note_on channel=7 note=69 velocity=60 time=0.00625
EXTRACT: note_on channel=9 note=36 velocity=0 time=0.015625
EXTRACT: note_on channel=9 note=35 velocity=0 time=0
EXTRACT: note_on channel=3 note=69 velocity=0 time=0.13593750000000002
EXTRACT: note_on channel=3 note=68 velocity=72 time=0.03125
EXTRACT: note_on channel=3 note=68 velocity=0 time=0.15625
EXTRACT: note_on channel=3 note=66 velocity=78 time=0.010937500000000001
EXTRACT: note_on channel=9 note=39 velocity=113 time=0.3875
EXTRACT: note_on channel=9 note=39 velocity=0 time=0.028125
EXTRACT: note_on channel=3 note=66 velocity=0 time=0.32343750000000004
EXTRACT: note_on channel=3 note=64 velocity=84 time=0.19843750000000002
EXTRACT: note_on channel=3 note=64 velocity=0 time=0.1765625
EXTRACT: note_on channel=3 note=69 velocity=87 time=0.0171875
EXTRACT: note_on channel=9 note=36 velocity=115 time=0.00625
EXTRACT: note_on channel=9 note=36 velocity=0 time=0.028125
EXTRACT: note_on channel=3 note=69 velocity=0 time=0.13593750000000002
EXTRACT: note_on channel=3 note=69 velocity=73 time=0.0328125
EXTRACT: note_on channel=3 note=69 velocity=0 time=0.06875
EXTRACT: note_on channel=9 note=35 velocity=115 time=0.109375
EXTRACT: note_on channel=9 note=36 velocity=115 time=0
EXTRACT: note_on channel=3 note=69 velocity=80 time=0.010937500000000001
EXTRACT: note_on channel=9 note=36 velocity=0 time=0.0171875
EXTRACT: note_on channel=9 note=35 velocity=0 time=0
EXTRACT: note_on channel=3 note=69 velocity=0 time=0.13593750000000002
EXTRACT: note_on channel=3 note=69 velocity=79 time=0.0203125
EXTRACT: note_on channel=3 note=69 velocity=0 time=0.08125
EXTRACT: note_on channel=3 note=69 velocity=86 time=0.1078125
EXTRACT: note_on channel=9 note=39 velocity=115 time=0.0015625
EXTRACT: note_on channel=9 note=39 velocity=0 time=0.028125
EXTRACT: note_on channel=3 note=69 velocity=0 time=0.13593750000000002
EXTRACT: note_on channel=3 note=69 velocity=74 time=0.0171875
EXTRACT: note_on channel=9 note=35 velocity=115 time=0.00625
EXTRACT: note_on channel=9 note=36 velocity=115 time=0
EXTRACT: note_on channel=9 note=36 velocity=0 time=0.028125
EXTRACT: note_on channel=9 note=35 velocity=0 time=0
EXTRACT: note_on channel=3 note=69 velocity=0 time=0.05
EXTRACT: note_on channel=3 note=69 velocity=78 time=0.1203125
EXTRACT: note_on channel=3 note=69 velocity=0 time=0.0671875
EXTRACT: note_on channel=2 note=49 velocity=0 time=0.078125
EXTRACT: note_on channel=3 note=71 velocity=81 time=0.026562500000000003
EXTRACT: note_on channel=2 note=49 velocity=81 time=0.015625
EXTRACT: note_on channel=1 note=42 velocity=0 time=0.1375
EXTRACT: note_on channel=2 note=49 velocity=0 time=0.0078125
EXTRACT: note_on channel=2 note=54 velocity=0 time=0
EXTRACT: note_on channel=2 note=42 velocity=0 time=0
EXTRACT: note_on channel=2 note=57 velocity=0 time=0
EXTRACT: note_on channel=6 note=54 velocity=0 time=0
EXTRACT: note_on channel=7 note=69 velocity=0 time=0
EXTRACT: note_on channel=7 note=66 velocity=0 time=0
EXTRACT: note_on channel=3 note=71 velocity=0 time=0.0078125
EXTRACT: note_on channel=2 note=54 velocity=89 time=0.010937500000000001
EXTRACT: note_on channel=2 note=57 velocity=90 time=0.00625
EXTRACT: note_on channel=7 note=66 velocity=61 time=0
EXTRACT: note_on channel=1 note=38 velocity=77 time=0.003125
EXTRACT: note_on channel=2 note=38 velocity=90 time=0
EXTRACT: note_on channel=3 note=69 velocity=90 time=0
EXTRACT: note_on channel=6 note=54 velocity=76 time=0.003125
EXTRACT: note_on channel=7 note=69 velocity=59 time=0
EXTRACT: note_on channel=9 note=35 velocity=115 time=0
EXTRACT: note_on channel=9 note=36 velocity=115 time=0
EXTRACT: note_on channel=2 note=50 velocity=93 time=0.00625
EXTRACT: note_on channel=9 note=36 velocity=0 time=0.021875000000000002
EXTRACT: note_on channel=9 note=35 velocity=0 time=0
EXTRACT: note_on channel=9 note=35 velocity=115 time=0.534375
EXTRACT: note_on channel=9 note=36 velocity=115 time=0
EXTRACT: note_on channel=9 note=36 velocity=0 time=0.028125
EXTRACT: note_on channel=9 note=35 velocity=0 time=0
EXTRACT: note_on channel=9 note=39 velocity=116 time=0.15937500000000002
EXTRACT: note_on channel=9 note=39 velocity=0 time=0.028125
EXTRACT: note_on channel=3 note=69 velocity=0 time=0.32343750000000004
EXTRACT: note_on channel=3 note=64 velocity=86 time=0.2234375
EXTRACT: note_on channel=7 note=69 velocity=0 time=0.14375000000000002
EXTRACT: note_on channel=7 note=66 velocity=0 time=0
EXTRACT: note_on channel=3 note=64 velocity=0 time=0.0078125
EXTRACT: note_on channel=9 note=36 velocity=115 time=0.0234375
EXTRACT: note_on channel=3 note=69 velocity=84 time=0.0078125
EXTRACT: note_on channel=9 note=36 velocity=0 time=0.0203125
EXTRACT: note_on channel=3 note=69 velocity=0 time=0.13593750000000002
EXTRACT: note_on channel=3 note=69 velocity=73 time=0.025
EXTRACT: note_on channel=3 note=69 velocity=0 time=0.0765625
EXTRACT: note_on channel=3 note=69 velocity=81 time=0.11875000000000001
EXTRACT: note_on channel=3 note=69 velocity=0 time=0.1546875
EXTRACT: note_on channel=9 note=36 velocity=115 time=0.0234375
EXTRACT: note_on channel=3 note=69 velocity=81 time=0.0125
EXTRACT: note_on channel=9 note=36 velocity=0 time=0.015625
EXTRACT: note_on channel=3 note=69 velocity=0 time=0.05
EXTRACT: note_on channel=9 note=39 velocity=113 time=0.1125
EXTRACT: note_on channel=3 note=69 velocity=93 time=0.0015625
EXTRACT: note_on channel=9 note=39 velocity=0 time=0.026562500000000003
EXTRACT: note_on channel=3 note=69 velocity=0 time=0.1328125
EXTRACT: note_on channel=9 note=35 velocity=115 time=0.0234375
EXTRACT: note_on channel=9 note=36 velocity=115 time=0
EXTRACT: note_on channel=9 note=36 velocity=0 time=0.028125
EXTRACT: note_on channel=9 note=35 velocity=0 time=0
EXTRACT: note_on channel=9 note=35 velocity=115 time=0.15937500000000002
EXTRACT: note_on channel=9 note=36 velocity=115 time=0
EXTRACT: note_on channel=3 note=62 velocity=76 time=0.0015625
EXTRACT: note_on channel=9 note=36 velocity=0 time=0.026562500000000003
EXTRACT: note_on channel=9 note=35 velocity=0 time=0
EXTRACT: note_on channel=3 note=62 velocity=0 time=0.13593750000000002
EXTRACT: note_on channel=3 note=61 velocity=76 time=0.021875000000000002
EXTRACT: note_on channel=9 note=36 velocity=115 time=0.0015625
EXTRACT: note_on channel=9 note=36 velocity=0 time=0.028125
EXTRACT: note_on channel=1 note=38 velocity=0 time=0.1203125
EXTRACT: note_on channel=2 note=50 velocity=0 time=0.0078125
EXTRACT: note_on channel=2 note=54 velocity=0 time=0
EXTRACT: note_on channel=2 note=57 velocity=0 time=0
EXTRACT: note_on channel=2 note=38 velocity=0 time=0
EXTRACT: note_on channel=6 note=54 velocity=0 time=0
EXTRACT: note_on channel=5 note=50 velocity=77 time=0.3984375
EXTRACT: note_on channel=5 note=50 velocity=0 time=0.1640625
EXTRACT: note_on channel=5 note=49 velocity=77 time=0.028125
EXTRACT: note_on channel=3 note=61 velocity=0 time=0.16718750000000002
EXTRACT: note_on channel=7 note=57 velocity=62 time=0.010937500000000001
EXTRACT: note_on channel=7 note=73 velocity=60 time=0
EXTRACT: note_on channel=1 note=33 velocity=74 time=0.003125
EXTRACT: note_on channel=2 note=57 velocity=86 time=0.004687500000000001
EXTRACT: note_on channel=2 note=45 velocity=88 time=0.0015625
EXTRACT: note_on channel=6 note=57 velocity=74 time=0.0015625
EXTRACT: note_on channel=9 note=39 velocity=115 time=0.004687500000000001
EXTRACT: note_on channel=9 note=39 velocity=0 time=0.028125
EXTRACT: note_on channel=3 note=64 velocity=83 time=0.53125
EXTRACT: note_on channel=3 note=64 velocity=0 time=0.078125
EXTRACT: note_on channel=5 note=49 velocity=0 time=0.078125
EXTRACT: note_on channel=3 note=73 velocity=86 time=0.018750000000000003
EXTRACT: note_on channel=9 note=36 velocity=115 time=0.0125
EXTRACT: note_on channel=9 note=36 velocity=0 time=0.028125
EXTRACT: note_on channel=3 note=73 velocity=0 time=0.13593750000000002
EXTRACT: note_on channel=3 note=73 velocity=75 time=0.0203125
EXTRACT: note_on channel=3 note=73 velocity=0 time=0.08125
EXTRACT: note_on channel=3 note=73 velocity=76 time=0.1015625
EXTRACT: note_on channel=9 note=35 velocity=115 time=0.0078125
EXTRACT: note_on channel=9 note=36 velocity=115 time=0
EXTRACT: note_on channel=9 note=36 velocity=0 time=0.028125
EXTRACT: note_on channel=9 note=35 velocity=0 time=0
EXTRACT: note_on channel=3 note=73 velocity=0 time=0.13593750000000002
EXTRACT: note_on channel=3 note=73 velocity=81 time=0.0203125
EXTRACT: note_on channel=3 note=73 velocity=0 time=0.08125
EXTRACT: note_on channel=3 note=73 velocity=88 time=0.09843750000000001
EXTRACT: note_on channel=9 note=39 velocity=113 time=0.009375000000000001
EXTRACT: note_on channel=2 note=52 velocity=87 time=0.00625
EXTRACT: note_on channel=9 note=39 velocity=0 time=0.021875000000000002
EXTRACT: note_on channel=2 note=57 velocity=0 time=0.1296875
EXTRACT: note_on channel=2 note=57 velocity=57 time=0.021875000000000002
EXTRACT: note_on channel=9 note=35 velocity=115 time=0.009375000000000001
EXTRACT: note_on channel=9 note=36 velocity=115 time=0
EXTRACT: note_on channel=9 note=36 velocity=0 time=0.028125
EXTRACT: note_on channel=9 note=35 velocity=0 time=0
EXTRACT: note_on channel=2 note=52 velocity=0 time=0.12812500000000002
EXTRACT: note_on channel=3 note=73 velocity=0 time=0.0078125
EXTRACT: note_on channel=3 note=71 velocity=79 time=0.0125
EXTRACT: note_on channel=2 note=52 velocity=78 time=0.0078125
EXTRACT: note_on channel=3 note=71 velocity=0 time=0.08125
EXTRACT: note_on channel=2 note=59 velocity=81 time=0.1
EXTRACT: note_on channel=3 note=74 velocity=80 time=0.0140625
EXTRACT: note_on channel=1 note=33 velocity=0 time=0.14375000000000002
EXTRACT: note_on channel=2 note=52 velocity=0 time=0.0078125
EXTRACT: note_on channel=2 note=45 velocity=0 time=0
EXTRACT: note_on channel=2 note=57 velocity=0 time=0
EXTRACT: note_on channel=6 note=57 velocity=0 time=0
EXTRACT: note_on channel=7 note=73 velocity=0 time=0
EXTRACT: note_on channel=7 note=57 velocity=0 time=0
EXTRACT: note_on channel=7 note=78 velocity=60 time=0.018750000000000003
EXTRACT: note_on channel=6 note=59 velocity=76 time=0.0015625
EXTRACT: note_on channel=2 note=47 velocity=91 time=0.0015625
EXTRACT: note_on channel=2 note=62 velocity=92 time=0.004687500000000001
EXTRACT: note_on channel=2 note=54 velocity=91 time=0.003125
EXTRACT: note_on channel=7 note=74 velocity=61 time=0
EXTRACT: note_on channel=9 note=35 velocity=115 time=0.0015625
EXTRACT: note_on channel=9 note=36 velocity=115 time=0
EXTRACT: note_on channel=1 note=35 velocity=77 time=0.003125
EXTRACT: note_on channel=7 note=59 velocity=61 time=0.0015625
EXTRACT: note_on channel=9 note=36 velocity=0 time=0.0234375
EXTRACT: note_on channel=9 note=35 velocity=0 time=0
EXTRACT: note_on channel=3 note=74 velocity=0 time=0.13593750000000002
EXTRACT: note_on channel=3 note=73 velocity=74 time=0.035937500000000004
EXTRACT: note_on channel=3 note=73 velocity=0 time=0.15156250000000002
EXTRACT: note_on channel=3 note=71 velocity=79 time=0.034375
EXTRACT: note_on channel=3 note=71 velocity=0 time=0.153125
EXTRACT: note_on channel=9 note=35 velocity=115 time=0.0234375
EXTRACT: note_on channel=9 note=36 velocity=115 time=0
EXTRACT: note_on channel=3 note=69 velocity=74 time=0.009375000000000001
EXTRACT: note_on channel=9 note=36 velocity=0 time=0.018750000000000003
EXTRACT: note_on channel=9 note=35 velocity=0 time=0
EXTRACT: note_on channel=9 note=39 velocity=116 time=0.1625
EXTRACT: note_on channel=9 note=39 velocity=0 time=0.028125
EXTRACT: note_on channel=3 note=69 velocity=0 time=0.1328125
EXTRACT: note_on channel=3 note=71 velocity=78 time=0.209375
EXTRACT: note_on channel=3 note=71 velocity=0 time=0.16562500000000002
EXTRACT: note_on channel=3 note=69 velocity=83 time=0.028125
EXTRACT: note_on channel=3 note=69 velocity=0 time=0.0734375
EXTRACT: note_on channel=9 note=36 velocity=115 time=0.109375
EXTRACT: note_on channel=3 note=71 velocity=87 time=0.010937500000000001
EXTRACT: note_on channel=9 note=36 velocity=0 time=0.0171875
EXTRACT: note_on channel=3 note=71 velocity=0 time=0.13593750000000002
EXTRACT: note_on channel=3 note=69 velocity=76 time=0.035937500000000004
EXTRACT: note_on channel=3 note=69 velocity=0 time=0.065625
EXTRACT: note_on channel=3 note=71 velocity=79 time=0.1125
EXTRACT: note_on channel=2 note=47 velocity=0 time=0.153125
EXTRACT: note_on channel=3 note=71 velocity=0 time=0.0078125
EXTRACT: note_on channel=9 note=36 velocity=115 time=0.0234375
EXTRACT: note_on channel=3 note=69 velocity=80 time=0.004687500000000001
EXTRACT: note_on channel=2 note=47 velocity=79 time=0.0078125
EXTRACT: note_on channel=9 note=36 velocity=0 time=0.015625
EXTRACT: note_on channel=3 note=69 velocity=0 time=0.05
EXTRACT: note_on channel=2 note=59 velocity=0 time=0.078125
EXTRACT: note_on channel=2 note=54 velocity=0 time=0
EXTRACT: note_on channel=2 note=62 velocity=0 time=0
EXTRACT: note_on channel=3 note=73 velocity=91 time=0.0203125
EXTRACT: note_on channel=9 note=39 velocity=115 time=0.0015625
EXTRACT: note_on channel=2 note=54 velocity=89 time=0.010937500000000001
EXTRACT: note_on channel=2 note=59 velocity=89 time=0.00625
EXTRACT: note_on channel=2 note=62 velocity=92 time=0.003125
EXTRACT: note_on channel=9 note=39 velocity=0 time=0.0078125
EXTRACT: note_on channel=9 note=35 velocity=115 time=0.16875
EXTRACT: note_on channel=9 note=36 velocity=115 time=0
EXTRACT: note_on channel=9 note=36 velocity=0 time=0.028125
EXTRACT: note_on channel=9 note=35 velocity=0 time=0
EXTRACT: note_on channel=2 note=59 velocity=0 time=0.12812500000000002
EXTRACT: note_on channel=3 note=73 velocity=0 time=0.0078125
EXTRACT: note_on channel=9 note=35 velocity=115 time=0.0234375
EXTRACT: note_on channel=9 note=36 velocity=115 time=0
EXTRACT: note_on channel=3 note=69 velocity=75 time=0.004687500000000001
EXTRACT: note_on channel=2 note=59 velocity=77 time=0.0078125
EXTRACT: note_on channel=9 note=36 velocity=0 time=0.015625
EXTRACT: note_on channel=9 note=35 velocity=0 time=0
EXTRACT: note_on channel=3 note=69 velocity=0 time=0.05
EXTRACT: note_on channel=2 note=61 velocity=74 time=0.1078125
EXTRACT: note_on channel=3 note=69 velocity=78 time=0.0078125
EXTRACT: note_on channel=1 note=35 velocity=0 time=0.1421875
EXTRACT: note_on channel=2 note=61 velocity=0 time=0.0078125
EXTRACT: note_on channel=2 note=47 velocity=0 time=0
EXTRACT: note_on channel=2 note=62 velocity=0 time=0
EXTRACT: note_on channel=2 note=54 velocity=0 time=0
EXTRACT: note_on channel=2 note=59 velocity=0 time=0
EXTRACT: note_on channel=6 note=59 velocity=0 time=0
EXTRACT: note_on channel=7 note=59 velocity=0 time=0
EXTRACT: note_on channel=7 note=74 velocity=0 time=0
EXTRACT: note_on channel=7 note=78 velocity=0 time=0
EXTRACT: note_on channel=2 note=54 velocity=93 time=0.0234375
EXTRACT: note_on channel=1 note=42 velocity=75 time=0.0015625
EXTRACT: note_on channel=2 note=42 velocity=89 time=0.004687500000000001
EXTRACT: note_on channel=9 note=35 velocity=115 time=0.0015625
EXTRACT: note_on channel=9 note=36 velocity=115 time=0
EXTRACT: note_on channel=9 note=36 velocity=0 time=0.028125
EXTRACT: note_on channel=9 note=35 velocity=0 time=0
EXTRACT: note_on channel=3 note=69 velocity=0 time=0.13593750000000002
EXTRACT: note_on channel=3 note=68 velocity=73 time=0.0203125
EXTRACT: note_on channel=3 note=68 velocity=0 time=0.16718750000000002
EXTRACT: note_on channel=3 note=66 velocity=82 time=0.0203125
EXTRACT: note_on channel=5 note=57 velocity=78 time=0.1921875
EXTRACT: note_on channel=2 note=54 velocity=0 time=0.1546875
EXTRACT: note_on channel=2 note=54 velocity=90 time=0.028125
EXTRACT: note_on channel=7 note=54 velocity=58 time=0
EXTRACT: note_on channel=6 note=57 velocity=73 time=0.0015625
EXTRACT: note_on channel=7 note=66 velocity=62 time=0.0015625
EXTRACT: note_on channel=7 note=69 velocity=61 time=0.003125
EXTRACT: note_on channel=9 note=39 velocity=117 time=0
EXTRACT: note_on channel=2 note=57 velocity=87 time=0.00625
EXTRACT: note_on channel=9 note=39 velocity=0 time=0.021875000000000002
EXTRACT: note_on channel=5 note=57 velocity=0 time=0.125
EXTRACT: note_on channel=5 note=56 velocity=72 time=0.028125
EXTRACT: note_on channel=5 note=56 velocity=0 time=0.15937500000000002
EXTRACT: note_on channel=3 note=66 velocity=0 time=0.0078125
EXTRACT: note_on channel=5 note=54 velocity=84 time=0.0203125
EXTRACT: note_on channel=3 note=69 velocity=86 time=0.375
EXTRACT: note_on channel=9 note=36 velocity=115 time=0.003125
EXTRACT: note_on channel=9 note=36 velocity=0 time=0.028125
EXTRACT: note_on channel=3 note=69 velocity=0 time=0.13593750000000002
EXTRACT: note_on channel=3 note=69 velocity=72 time=0.0125
EXTRACT: note_on channel=9 note=29 velocity=48 time=0.010937500000000001
EXTRACT: note_on channel=9 note=29 velocity=0 time=0.028125
EXTRACT: note_on channel=3 note=69 velocity=0 time=0.05
EXTRACT: note_on channel=5 note=54 velocity=0 time=0.078125
EXTRACT: note_on channel=3 note=69 velocity=78 time=0.0203125
EXTRACT: note_on channel=9 note=35 velocity=115 time=0.010937500000000001
EXTRACT: note_on channel=9 note=30 velocity=48 time=0
EXTRACT: note_on channel=9 note=36 velocity=115 time=0
EXTRACT: note_on channel=9 note=36 velocity=0 time=0.028125
EXTRACT: note_on channel=9 note=30 velocity=0 time=0
EXTRACT: note_on channel=9 note=35 velocity=0 time=0
EXTRACT: note_on channel=3 note=69 velocity=0 time=0.13593750000000002
EXTRACT: note_on channel=3 note=69 velocity=81 time=0.035937500000000004
EXTRACT: note_on channel=3 note=69 velocity=0 time=0.065625
EXTRACT: note_on channel=3 note=69 velocity=86 time=0.109375
EXTRACT: note_on channel=9 note=39 velocity=117 time=0.003125
EXTRACT: note_on channel=9 note=39 velocity=0 time=0.028125
EXTRACT: note_on channel=3 note=69 velocity=0 time=0.1328125
EXTRACT: note_on channel=9 note=35 velocity=115 time=0.0234375
EXTRACT: note_on channel=9 note=36 velocity=115 time=0
EXTRACT: note_on channel=3 note=69 velocity=74 time=0.00625
EXTRACT: note_on channel=9 note=36 velocity=0 time=0.021875000000000002
EXTRACT: note_on channel=9 note=35 velocity=0 time=0
EXTRACT: note_on channel=3 note=69 velocity=0 time=0.05
EXTRACT: note_on channel=3 note=69 velocity=80 time=0.115625
EXTRACT: note_on channel=3 note=69 velocity=0 time=0.07187500000000001
EXTRACT: note_on channel=3 note=69 velocity=78 time=0.1015625
EXTRACT: note_on channel=3 note=69 velocity=0 time=0.0859375
EXTRACT: note_on channel=3 note=71 velocity=89 time=0.051562500000000004
EXTRACT: note_on channel=1 note=42 velocity=0 time=0.018750000000000003
EXTRACT: note_on channel=2 note=57 velocity=0 time=0.0078125
EXTRACT: note_on channel=2 note=54 velocity=0 time=0
EXTRACT: note_on channel=2 note=42 velocity=0 time=0
EXTRACT: note_on channel=6 note=57 velocity=0 time=0
EXTRACT: note_on channel=7 note=69 velocity=0 time=0
EXTRACT: note_on channel=7 note=66 velocity=0 time=0
EXTRACT: note_on channel=7 note=54 velocity=0 time=0
EXTRACT: note_on channel=3 note=71 velocity=0 time=0.015625
EXTRACT: note_on channel=6 note=54 velocity=76 time=0.003125
EXTRACT: note_on channel=2 note=38 velocity=91 time=0.009375000000000001
EXTRACT: note_on channel=2 note=50 velocity=91 time=0
EXTRACT: note_on channel=7 note=50 velocity=62 time=0.0015625
EXTRACT: note_on channel=9 note=35 velocity=115 time=0.0015625
EXTRACT: note_on channel=9 note=36 velocity=115 time=0
EXTRACT: note_on channel=2 note=54 velocity=92 time=0.0015625
EXTRACT: note_on channel=2 note=57 velocity=91 time=0.0015625
EXTRACT: note_on channel=7 note=69 velocity=60 time=0.0015625
EXTRACT: note_on channel=1 note=38 velocity=77 time=0.0015625
EXTRACT: note_on channel=3 note=69 velocity=93 time=0.0015625
EXTRACT: note_on channel=7 note=66 velocity=62 time=0
EXTRACT: note_on channel=9 note=36 velocity=0 time=0.0203125
EXTRACT: note_on channel=9 note=35 velocity=0 time=0
EXTRACT: note_on channel=3 note=69 velocity=0 time=0.13593750000000002
EXTRACT: note_on channel=3 note=69 velocity=70 time=0.0234375
EXTRACT: note_on channel=3 note=69 velocity=0 time=0.109375
EXTRACT: note_on channel=3 note=76 velocity=78 time=0.09062500000000001
EXTRACT: note_on channel=3 note=76 velocity=0 time=0.15156250000000002
EXTRACT: note_on channel=9 note=35 velocity=115 time=0.0234375
EXTRACT: note_on channel=9 note=36 velocity=115 time=0
EXTRACT: note_on channel=3 note=73 velocity=75 time=0.009375000000000001
EXTRACT: note_on channel=9 note=36 velocity=0 time=0.018750000000000003
EXTRACT: note_on channel=9 note=35 velocity=0 time=0
EXTRACT: note_on channel=3 note=73 velocity=0 time=0.13593750000000002
EXTRACT: note_on channel=9 note=39 velocity=115 time=0.0203125
EXTRACT: note_on channel=9 note=39 velocity=0 time=0.028125
EXTRACT: note_on channel=3 note=64 velocity=86 time=0.5390625
EXTRACT: note_on channel=3 note=64 velocity=0 time=0.1625
EXTRACT: note_on channel=3 note=69 velocity=86 time=0.0203125
EXTRACT: note_on channel=9 note=36 velocity=115 time=0.003125
EXTRACT: note_on channel=9 note=36 velocity=0 time=0.028125
EXTRACT: note_on channel=3 note=69 velocity=0 time=0.13593750000000002
EXTRACT: note_on channel=3 note=69 velocity=76 time=0.034375
EXTRACT: note_on channel=3 note=69 velocity=0 time=0.0671875
EXTRACT: note_on channel=3 note=69 velocity=79 time=0.109375
EXTRACT: note_on channel=9 note=35 velocity=115 time=0
EXTRACT: note_on channel=9 note=36 velocity=115 time=0
EXTRACT: note_on channel=9 note=36 velocity=0 time=0.028125
EXTRACT: note_on channel=9 note=35 velocity=0 time=0
EXTRACT: note_on channel=3 note=69 velocity=0 time=0.13593750000000002
EXTRACT: note_on channel=9 note=39 velocity=115 time=0.2015625
EXTRACT: note_on channel=3 note=69 velocity=92 time=0.0125
EXTRACT: note_on channel=9 note=39 velocity=0 time=0.015625
EXTRACT: note_on channel=9 note=35 velocity=115 time=0.16875
EXTRACT: note_on channel=9 note=36 velocity=115 time=0
EXTRACT: note_on channel=9 note=36 velocity=0 time=0.028125
EXTRACT: note_on channel=9 note=35 velocity=0 time=0
EXTRACT: note_on channel=3 note=69 velocity=0 time=0.0734375
EXTRACT: note_on channel=9 note=36 velocity=115 time=0.0859375
EXTRACT: note_on channel=3 note=71 velocity=77 time=0.004687500000000001
EXTRACT: note_on channel=9 note=36 velocity=0 time=0.0234375
EXTRACT: note_on channel=3 note=71 velocity=0 time=0.13593750000000002
EXTRACT: note_on channel=3 note=69 velocity=77 time=0.028125
EXTRACT: note_on channel=1 note=38 velocity=0 time=0.14375000000000002
EXTRACT: note_on channel=2 note=57 velocity=0 time=0.0078125
EXTRACT: note_on channel=2 note=38 velocity=0 time=0
EXTRACT: note_on channel=2 note=50 velocity=0 time=0
EXTRACT: note_on channel=2 note=54 velocity=0 time=0
EXTRACT: note_on channel=6 note=54 velocity=0 time=0
EXTRACT: note_on channel=7 note=66 velocity=0 time=0
EXTRACT: note_on channel=7 note=69 velocity=0 time=0
EXTRACT: note_on channel=7 note=50 velocity=0 time=0
EXTRACT: note_on channel=12 note=81 velocity=61 time=0.021875000000000002
EXTRACT: control_change channel=12 control=10 value=51 time=0.0015625
EXTRACT: note_on channel=7 note=73 velocity=59 time=0.0015625
EXTRACT: note_on channel=8 note=61 velocity=58 time=0.0015625
EXTRACT: note_on channel=7 note=57 velocity=61 time=0.0015625
EXTRACT: note_on channel=2 note=57 velocity=91 time=0.0015625
EXTRACT: note_on channel=7 note=69 velocity=61 time=0
EXTRACT: note_on channel=9 note=35 velocity=115 time=0.0015625
EXTRACT: note_on channel=9 note=36 velocity=115 time=0
EXTRACT: note_on channel=8 note=45 velocity=60 time=0.0015625
EXTRACT: note_on channel=2 note=45 velocity=93 time=0.0015625
EXTRACT: note_on channel=1 note=33 velocity=73 time=0.0015625
EXTRACT: note_on channel=6 note=57 velocity=76 time=0
EXTRACT: note_on channel=8 note=52 velocity=58 time=0
EXTRACT: note_on channel=2 note=61 velocity=89 time=0.0015625
EXTRACT: note_on channel=2 note=52 velocity=92 time=0.00625
EXTRACT: note_on channel=8 note=57 velocity=59 time=0
EXTRACT: note_on channel=9 note=36 velocity=0 time=0.015625
EXTRACT: note_on channel=9 note=35 velocity=0 time=0
EXTRACT: control_change channel=12 control=10 value=55 time=0.003125
EXTRACT: note_on channel=12 note=81 velocity=0 time=0.015625
EXTRACT: note_on channel=2 note=52 velocity=0 time=0.109375
EXTRACT: note_on channel=12 note=81 velocity=57 time=0.026562500000000003
EXTRACT: control_change channel=12 control=10 value=71 time=0.004687500000000001
EXTRACT: note_on channel=2 note=52 velocity=74 time=0.009375000000000001
EXTRACT: control_change channel=12 control=10 value=75 time=0.029687500000000002
EXTRACT: note_on channel=12 note=81 velocity=0 time=0.0078125
EXTRACT: note_on channel=2 note=57 velocity=0 time=0.109375
EXTRACT: note_on channel=2 note=57 velocity=79 time=0.018750000000000003
EXTRACT: note_on channel=5 note=59 velocity=75 time=0
EXTRACT: note_on channel=12 note=81 velocity=53 time=0.0171875
EXTRACT: control_change channel=12 control=10 value=91 time=0.003125
EXTRACT: note_on channel=12 note=81 velocity=0 time=0.0390625
EXTRACT: control_change channel=12 control=10 value=95 time=0
EXTRACT: note_on channel=5 note=59 velocity=0 time=0.109375
EXTRACT: note_on channel=5 note=57 velocity=75 time=0.029687500000000002
EXTRACT: note_on channel=2 note=59 velocity=76 time=0.0078125
EXTRACT: note_on channel=12 note=81 velocity=52 time=0.003125
EXTRACT: control_change channel=12 control=10 value=111 time=0.00625
EXTRACT: note_on channel=12 note=81 velocity=0 time=0.03125
EXTRACT: control_change channel=12 control=10 value=115 time=0.0078125
EXTRACT: note_on channel=2 note=61 velocity=0 time=0.1015625
EXTRACT: note_on channel=3 note=69 velocity=0 time=0.0078125
EXTRACT: note_on channel=9 note=39 velocity=117 time=0.0171875
EXTRACT: note_on channel=2 note=61 velocity=88 time=0.00625
EXTRACT: note_on channel=12 note=81 velocity=50 time=0.004687500000000001
EXTRACT: note_on channel=9 note=39 velocity=0 time=0.0171875
EXTRACT: control_change channel=12 control=10 value=117 time=0.0015625
EXTRACT: note_on channel=12 note=81 velocity=0 time=0.0234375
EXTRACT: note_on channel=2 note=52 velocity=0 time=0.109375
EXTRACT: note_on channel=2 note=52 velocity=72 time=0.0234375
EXTRACT: note_on channel=12 note=81 velocity=50 time=0.003125
EXTRACT: control_change channel=12 control=10 value=97 time=0.035937500000000004
EXTRACT: note_on channel=12 note=81 velocity=0 time=0.015625
EXTRACT: note_on channel=2 note=57 velocity=0 time=0.109375
EXTRACT: note_on channel=12 note=81 velocity=46 time=0.026562500000000003
EXTRACT: control_change channel=12 control=10 value=81 time=0.004687500000000001
EXTRACT: note_on channel=2 note=57 velocity=79 time=0.004687500000000001
EXTRACT: control_change channel=12 control=10 value=77 time=0.034375
EXTRACT: note_on channel=12 note=81 velocity=0 time=0.0078125
EXTRACT: note_on channel=2 note=59 velocity=0 time=0.109375
EXTRACT: note_on channel=3 note=69 velocity=86 time=0.0234375
EXTRACT: note_on channel=12 note=81 velocity=41 time=0.004687500000000001
EXTRACT: control_change channel=12 control=10 value=61 time=0.010937500000000001
EXTRACT: note_on channel=2 note=59 velocity=86 time=0.004687500000000001
EXTRACT: note_on channel=12 note=81 velocity=0 time=0.034375
EXTRACT: control_change channel=12 control=10 value=57 time=0
EXTRACT: note_on channel=2 note=61 velocity=0 time=0.109375
EXTRACT: note_on channel=5 note=57 velocity=0 time=0
EXTRACT: note_on channel=3 note=69 velocity=0 time=0.0078125
EXTRACT: note_on channel=2 note=61 velocity=90 time=0.010937500000000001
EXTRACT: note_on channel=3 note=76 velocity=87 time=0.003125
EXTRACT: note_on channel=9 note=36 velocity=115 time=0.009375000000000001
EXTRACT: note_on channel=12 note=81 velocity=38 time=0.003125
EXTRACT: control_change channel=12 control=10 value=41 time=0.0125
EXTRACT: note_on channel=9 note=36 velocity=0 time=0.0125
EXTRACT: note_on channel=12 note=81 velocity=0 time=0.018750000000000003
EXTRACT: control_change channel=12 control=10 value=37 time=0.0078125
EXTRACT: note_on channel=3 note=76 velocity=0 time=0.0234375
EXTRACT: note_on channel=3 note=76 velocity=72 time=0.10625000000000001
EXTRACT: note_on channel=12 note=81 velocity=40 time=0.00625
EXTRACT: control_change channel=12 control=10 value=21 time=0.0203125
EXTRACT: note_on channel=12 note=81 velocity=0 time=0.0234375
EXTRACT: note_on channel=3 note=76 velocity=0 time=0.03125
EXTRACT: note_on channel=2 note=57 velocity=0 time=0.078125
EXTRACT: note_on channel=3 note=76 velocity=79 time=0.021875000000000002
EXTRACT: note_on channel=12 note=81 velocity=34 time=0.009375000000000001
EXTRACT: note_on channel=2 note=57 velocity=78 time=0.0078125
EXTRACT: control_change channel=12 control=10 value=27 time=0.0234375
EXTRACT: note_on channel=12 note=81 velocity=0 time=0.015625
EXTRACT: note_on channel=2 note=59 velocity=0 time=0.109375
EXTRACT: note_on channel=3 note=76 velocity=0 time=0.0078125
EXTRACT: note_on channel=12 note=81 velocity=40 time=0.0203125
EXTRACT: control_change channel=12 control=10 value=43 time=0.003125
EXTRACT: note_on channel=2 note=59 velocity=81 time=0.003125
EXTRACT: note_on channel=3 note=76 velocity=81 time=0.0078125
EXTRACT: control_change channel=12 control=10 value=47 time=0.028125
EXTRACT: note_on channel=12 note=81 velocity=0 time=0.0078125
EXTRACT: note_on channel=3 note=76 velocity=0 time=0.03125
EXTRACT: note_on channel=3 note=76 velocity=84 time=0.05625
EXTRACT: note_on channel=2 note=61 velocity=0 time=0.021875000000000002
EXTRACT: note_on channel=3 note=76 velocity=0 time=0.015625
EXTRACT: note_on channel=2 note=61 velocity=87 time=0.010937500000000001
EXTRACT: note_on channel=12 note=81 velocity=47 time=0.0078125
EXTRACT: control_change channel=12 control=10 value=63 time=0.004687500000000001
EXTRACT: note_on channel=3 note=78 velocity=84 time=0.0015625
EXTRACT: note_on channel=9 note=39 velocity=116 time=0.0015625
EXTRACT: note_on channel=9 note=39 velocity=0 time=0.028125
EXTRACT: note_on channel=12 note=81 velocity=0 time=0.0078125
EXTRACT: control_change channel=12 control=10 value=67 time=0
EXTRACT: note_on channel=2 note=59 velocity=0 time=0.109375
EXTRACT: note_on channel=12 note=81 velocity=55 time=0.026562500000000003
EXTRACT: note_on channel=9 note=35 velocity=115 time=0.004687500000000001
EXTRACT: note_on channel=9 note=36 velocity=115 time=0
EXTRACT: note_on channel=2 note=59 velocity=75 time=0.0078125
EXTRACT: control_change channel=12 control=10 value=83 time=0.0078125
EXTRACT: note_on channel=9 note=36 velocity=0 time=0.0125
EXTRACT: note_on channel=9 note=35 velocity=0 time=0
EXTRACT: note_on channel=12 note=81 velocity=0 time=0.018750000000000003
EXTRACT: control_change channel=12 control=10 value=87 time=0.0078125
EXTRACT: note_on channel=2 note=57 velocity=0 time=0.1015625
EXTRACT: note_on channel=2 note=45 velocity=0 time=0
EXTRACT: note_on channel=3 note=78 velocity=0 time=0.0078125
EXTRACT: note_on channel=2 note=57 velocity=77 time=0.0140625
EXTRACT: note_on channel=2 note=45 velocity=77 time=0.010937500000000001
EXTRACT: note_on channel=3 note=78 velocity=77 time=0.003125
EXTRACT: note_on channel=12 note=81 velocity=64 time=0
EXTRACT: control_change channel=12 control=10 value=103 time=0.018750000000000003
EXTRACT: note_on channel=12 note=81 velocity=0 time=0.0234375
EXTRACT: note_on channel=12 note=81 velocity=71 time=0.13593750000000002
EXTRACT: note_on channel=2 note=56 velocity=78 time=0.015625
EXTRACT: control_change channel=12 control=10 value=123 time=0.0203125
EXTRACT: control_change channel=12 control=10 value=121 time=0.0390625
EXTRACT: control_change channel=12 control=10 value=117 time=0.0390625
EXTRACT: note_on channel=1 note=33 velocity=0 time=0.0390625
EXTRACT: control_change channel=12 control=10 value=113 time=0
EXTRACT: note_on channel=2 note=56 velocity=0 time=0.0078125
EXTRACT: note_on channel=2 note=61 velocity=0 time=0
EXTRACT: note_on channel=2 note=52 velocity=0 time=0
EXTRACT: note_on channel=2 note=59 velocity=0 time=0
EXTRACT: note_on channel=2 note=45 velocity=0 time=0
EXTRACT: note_on channel=2 note=57 velocity=0 time=0
EXTRACT: note_on channel=6 note=57 velocity=0 time=0
EXTRACT: note_on channel=7 note=69 velocity=0 time=0
EXTRACT: note_on channel=7 note=57 velocity=0 time=0
EXTRACT: note_on channel=7 note=73 velocity=0 time=0
EXTRACT: note_on channel=8 note=57 velocity=0 time=0
EXTRACT: note_on channel=8 note=61 velocity=0 time=0
EXTRACT: note_on channel=8 note=45 velocity=0 time=0
EXTRACT: note_on channel=8 note=52 velocity=0 time=0
EXTRACT: note_on channel=12 note=81 velocity=0 time=0.015625
EXTRACT: note_on channel=1 note=35 velocity=77 time=0.003125
EXTRACT: note_on channel=2 note=59 velocity=89 time=0.003125
EXTRACT: note_on channel=2 note=54 velocity=89 time=0.0015625
EXTRACT: note_on channel=6 note=59 velocity=76 time=0
EXTRACT: note_on channel=7 note=59 velocity=60 time=0
EXTRACT: note_on channel=7 note=74 velocity=58 time=0
EXTRACT: note_on channel=8 note=50 velocity=59 time=0.0015625
EXTRACT: note_on channel=8 note=59 velocity=61 time=0.00625
EXTRACT: note_on channel=9 note=35 velocity=115 time=0
EXTRACT: note_on channel=9 note=36 velocity=115 time=0
EXTRACT: note_on channel=2 note=47 velocity=93 time=0.003125
EXTRACT: note_on channel=7 note=78 velocity=62 time=0
EXTRACT: note_on channel=12 note=83 velocity=68 time=0.0015625
EXTRACT: note_on channel=8 note=54 velocity=58 time=0.0015625
EXTRACT: note_on channel=8 note=47 velocity=62 time=0
EXTRACT: note_on channel=2 note=62 velocity=92 time=0.0015625
EXTRACT: note_on channel=9 note=36 velocity=0 time=0.0203125
EXTRACT: note_on channel=9 note=35 velocity=0 time=0
EXTRACT: control_change channel=12 control=10 value=105 time=0.010937500000000001
EXTRACT: note_on channel=12 note=83 velocity=0 time=0.0078125
EXTRACT: note_on channel=2 note=54 velocity=0 time=0.109375
EXTRACT: note_on channel=3 note=78 velocity=0 time=0.0078125
EXTRACT: note_on channel=12 note=83 velocity=51 time=0.0125
EXTRACT: note_on channel=2 note=54 velocity=55 time=0.009375000000000001
EXTRACT: note_on channel=3 note=76 velocity=72 time=0.0078125
EXTRACT: control_change channel=12 control=10 value=89 time=0.0015625
EXTRACT: note_on channel=12 note=83 velocity=0 time=0.0390625
EXTRACT: control_change channel=12 control=10 value=85 time=0
EXTRACT: note_on channel=2 note=59 velocity=0 time=0.109375
EXTRACT: note_on channel=2 note=59 velocity=77 time=0.0203125
EXTRACT: note_on channel=12 note=83 velocity=48 time=0.0140625
EXTRACT: control_change channel=12 control=10 value=69 time=0.0125
EXTRACT: note_on channel=12 note=83 velocity=0 time=0.03125
EXTRACT: control_change channel=12 control=10 value=65 time=0.0078125
EXTRACT: note_on channel=9 note=35 velocity=115 time=0.1328125
EXTRACT: note_on channel=9 note=36 velocity=115 time=0
EXTRACT: note_on channel=12 note=83 velocity=45 time=0.003125
EXTRACT: note_on channel=2 note=61 velocity=76 time=0.0015625
EXTRACT: control_change channel=12 control=10 value=49 time=0.018750000000000003
EXTRACT: note_on channel=9 note=36 velocity=0 time=0.004687500000000001
EXTRACT: note_on channel=9 note=35 velocity=0 time=0
EXTRACT: note_on channel=12 note=83 velocity=0 time=0.018750000000000003
EXTRACT: note_on channel=2 note=62 velocity=0 time=0.109375
EXTRACT: note_on channel=3 note=76 velocity=0 time=0.0078125
EXTRACT: note_on channel=2 note=62 velocity=86 time=0.015625
EXTRACT: note_on channel=9 note=39 velocity=117 time=0.0125
EXTRACT: note_on channel=12 note=83 velocity=45 time=0.004687500000000001
EXTRACT: control_change channel=12 control=10 value=29 time=0.021875000000000002
EXTRACT: note_on channel=9 note=39 velocity=0 time=0.0015625
EXTRACT: note_on channel=12 note=83 velocity=0 time=0.0140625
EXTRACT: note_on channel=2 note=59 velocity=0 time=0.109375
EXTRACT: note_on channel=2 note=59 velocity=73 time=0.0203125
EXTRACT: note_on channel=12 note=83 velocity=44 time=0.021875000000000002
EXTRACT: control_change channel=12 control=10 value=19 time=0.028125
EXTRACT: note_on channel=12 note=83 velocity=0 time=0.0078125
EXTRACT: note_on channel=2 note=54 velocity=0 time=0.109375
EXTRACT: note_on channel=3 note=73 velocity=80 time=0.026562500000000003
EXTRACT: note_on channel=12 note=83 velocity=42 time=0.009375000000000001
EXTRACT: control_change channel=12 control=10 value=35 time=0.003125
EXTRACT: note_on channel=2 note=54 velocity=64 time=0.0015625
EXTRACT: note_on channel=12 note=83 velocity=0 time=0.037500000000000006
EXTRACT: control_change channel=12 control=10 value=39 time=0
EXTRACT: note_on channel=2 note=61 velocity=0 time=0.109375
EXTRACT: note_on channel=3 note=73 velocity=0 time=0.0078125
EXTRACT: note_on channel=3 note=73 velocity=87 time=0.028125
EXTRACT: note_on channel=2 note=61 velocity=87 time=0.004687500000000001
EXTRACT: note_on channel=12 note=83 velocity=38 time=0.003125
EXTRACT: control_change channel=12 control=10 value=55 time=0.003125
EXTRACT: note_on channel=12 note=83 velocity=0 time=0.03125
EXTRACT: control_change channel=12 control=10 value=59 time=0.0078125
EXTRACT: note_on channel=3 note=73 velocity=0 time=0.0234375
EXTRACT: note_on channel=2 note=62 velocity=0 time=0.078125
EXTRACT: note_on channel=3 note=76 velocity=87 time=0.026562500000000003
EXTRACT: note_on channel=9 note=36 velocity=115 time=0.004687500000000001
EXTRACT: note_on channel=12 note=83 velocity=39 time=0
EXTRACT: note_on channel=2 note=62 velocity=85 time=0.00625
EXTRACT: control_change channel=12 control=10 value=75 time=0.0171875
EXTRACT: note_on channel=9 note=36 velocity=0 time=0.004687500000000001
EXTRACT: note_on channel=12 note=83 velocity=0 time=0.018750000000000003
EXTRACT: note_on channel=2 note=59 velocity=0 time=0.109375
EXTRACT: note_on channel=3 note=76 velocity=0 time=0.0078125
EXTRACT: note_on channel=2 note=59 velocity=72 time=0.010937500000000001
EXTRACT: note_on channel=12 note=83 velocity=33 time=0
EXTRACT: control_change channel=12 control=10 value=91 time=0.004687500000000001
EXTRACT: note_on channel=3 note=76 velocity=73 time=0.018750000000000003
EXTRACT: control_change channel=12 control=10 value=95 time=0.0203125
EXTRACT: note_on channel=12 note=83 velocity=0 time=0.015625
EXTRACT: note_on channel=3 note=76 velocity=0 time=0.03125
EXTRACT: note_on channel=2 note=54 velocity=0 time=0.078125
EXTRACT: note_on channel=3 note=76 velocity=79 time=0.0203125
EXTRACT: note_on channel=2 note=54 velocity=62 time=0.015625
EXTRACT: note_on channel=12 note=83 velocity=72 time=0
EXTRACT: control_change channel=12 control=10 value=115 time=0.034375
EXTRACT: note_on channel=12 note=83 velocity=0 time=0.0078125
EXTRACT: note_on channel=2 note=61 velocity=0 time=0.109375
EXTRACT: note_on channel=3 note=76 velocity=0 time=0.0078125
EXTRACT: note_on channel=3 note=76 velocity=79 time=0.0203125
EXTRACT: note_on channel=12 note=83 velocity=70 time=0
EXTRACT: note_on channel=9 note=35 velocity=115 time=0.003125
EXTRACT: note_on channel=9 note=36 velocity=115 time=0
EXTRACT: control_change channel=12 control=10 value=117 time=0.0078125
EXTRACT: note_on channel=2 note=61 velocity=80 time=0.004687500000000001
EXTRACT: note_on channel=9 note=36 velocity=0 time=0.015625
EXTRACT: note_on channel=9 note=35 velocity=0 time=0
EXTRACT: note_on channel=12 note=83 velocity=0 time=0.018750000000000003
EXTRACT: control_change channel=12 control=10 value=113 time=0
EXTRACT: note_on channel=3 note=76 velocity=0 time=0.03125
EXTRACT: note_on channel=2 note=62 velocity=0 time=0.078125
EXTRACT: note_on channel=12 note=83 velocity=68 time=0.026562500000000003
EXTRACT: note_on channel=9 note=39 velocity=116 time=0.004687500000000001
EXTRACT: note_on channel=2 note=62 velocity=89 time=0.003125
EXTRACT: note_on channel=3 note=81 velocity=89 time=0.0078125
EXTRACT: control_change channel=12 control=10 value=97 time=0.004687500000000001
EXTRACT: note_on channel=9 note=39 velocity=0 time=0.0125
EXTRACT: note_on channel=12 note=83 velocity=0 time=0.018750000000000003
EXTRACT: control_change channel=12 control=10 value=93 time=0.0078125
EXTRACT: note_on channel=2 note=61 velocity=0 time=0.1015625
EXTRACT: note_on channel=2 note=61 velocity=74 time=0.018750000000000003
EXTRACT: note_on channel=9 note=36 velocity=115 time=0.0125
EXTRACT: note_on channel=12 note=83 velocity=69 time=0
EXTRACT: control_change channel=12 control=10 value=77 time=0.0234375
EXTRACT: note_on channel=9 note=36 velocity=0 time=0.004687500000000001
EXTRACT: note_on channel=12 note=83 velocity=0 time=0.018750000000000003
EXTRACT: note_on channel=2 note=59 velocity=0 time=0.109375
EXTRACT: note_on channel=3 note=81 velocity=0 time=0.0078125
EXTRACT: note_on channel=2 note=59 velocity=75 time=0.021875000000000002
EXTRACT: note_on channel=9 note=36 velocity=115 time=0.0015625
EXTRACT: note_on channel=3 note=81 velocity=77 time=0.0078125
EXTRACT: note_on channel=12 note=83 velocity=71 time=0
EXTRACT: note_on channel=9 note=36 velocity=0 time=0.0203125
EXTRACT: control_change channel=12 control=10 value=57 time=0.003125
EXTRACT: note_on channel=12 note=83 velocity=0 time=0.015625
EXTRACT: note_on channel=2 note=57 velocity=75 time=0.1375
EXTRACT: note_on channel=9 note=36 velocity=115 time=0.003125
EXTRACT: note_on channel=12 note=83 velocity=70 time=0.003125
EXTRACT: note_on channel=9 note=36 velocity=0 time=0.025
EXTRACT: control_change channel=12 control=10 value=37 time=0.010937500000000001
EXTRACT: control_change channel=12 control=10 value=33 time=0.0390625
EXTRACT: control_change channel=12 control=10 value=29 time=0.0390625
EXTRACT: note_on channel=1 note=35 velocity=0 time=0.03125
EXTRACT: note_on channel=2 note=57 velocity=0 time=0.0078125
EXTRACT: note_on channel=2 note=47 velocity=0 time=0
EXTRACT: note_on channel=2 note=61 velocity=0 time=0
EXTRACT: note_on channel=2 note=54 velocity=0 time=0
EXTRACT: note_on channel=2 note=59 velocity=0 time=0
EXTRACT: note_on channel=2 note=62 velocity=0 time=0
EXTRACT: note_on channel=6 note=59 velocity=0 time=0
EXTRACT: note_on channel=7 note=78 velocity=0 time=0
EXTRACT: note_on channel=7 note=74 velocity=0 time=0
EXTRACT: note_on channel=7 note=59 velocity=0 time=0
EXTRACT: note_on channel=8 note=47 velocity=0 time=0
EXTRACT: note_on channel=8 note=50 velocity=0 time=0
EXTRACT: note_on channel=8 note=59 velocity=0 time=0
EXTRACT: note_on channel=8 note=54 velocity=0 time=0
EXTRACT: control_change channel=12 control=10 value=25 time=0
EXTRACT: note_on channel=12 note=83 velocity=0 time=0.015625
EXTRACT: note_on channel=2 note=49 velocity=92 time=0.003125
EXTRACT: note_on channel=1 note=42 velocity=73 time=0.003125
EXTRACT: note_on channel=7 note=66 velocity=59 time=0
EXTRACT: note_on channel=8 note=57 velocity=58 time=0.003125
EXTRACT: note_on channel=8 note=49 velocity=58 time=0.0015625
EXTRACT: note_on channel=8 note=54 velocity=62 time=0.0015625
EXTRACT: note_on channel=2 note=54 velocity=91 time=0.0015625
EXTRACT: note_on channel=8 note=42 velocity=58 time=0
EXTRACT: note_on channel=6 note=54 velocity=75 time=0.0015625
EXTRACT: note_on channel=9 note=35 velocity=115 time=0
EXTRACT: note_on channel=9 note=36 velocity=115 time=0
EXTRACT: note_on channel=2 note=42 velocity=93 time=0.0015625
EXTRACT: note_on channel=2 note=57 velocity=91 time=0.0015625
EXTRACT: note_on channel=12 note=81 velocity=50 time=0
EXTRACT: note_on channel=7 note=78 velocity=61 time=0.0015625
EXTRACT: control_change channel=12 control=10 value=21 time=0.003125
EXTRACT: note_on channel=7 note=69 velocity=60 time=0.004687500000000001
EXTRACT: note_on channel=9 note=36 velocity=0 time=0.015625
EXTRACT: note_on channel=9 note=35 velocity=0 time=0
EXTRACT: note_on channel=12 note=81 velocity=0 time=0.018750000000000003
EXTRACT: control_change channel=12 control=10 value=17 time=0
EXTRACT: note_on channel=2 note=49 velocity=0 time=0.109375
EXTRACT: note_on channel=3 note=81 velocity=0 time=0.0078125
EXTRACT: note_on channel=12 note=81 velocity=48 time=0.0125
EXTRACT: note_on channel=2 note=49 velocity=74 time=0.0125
EXTRACT: note_on channel=3 note=80 velocity=75 time=0.003125
EXTRACT: control_change channel=12 control=10 value=27 time=0.010937500000000001
EXTRACT: note_on channel=12 note=81 velocity=0 time=0.03125
EXTRACT: control_change channel=12 control=10 value=31 time=0.0078125
EXTRACT: note_on channel=2 note=54 velocity=0 time=0.1015625
EXTRACT: note_on channel=3 note=80 velocity=0 time=0.0078125
EXTRACT: note_on channel=3 note=78 velocity=78 time=0.0203125
EXTRACT: note_on channel=5 note=69 velocity=77 time=0
EXTRACT: note_on channel=2 note=54 velocity=81 time=0.00625
EXTRACT: note_on channel=12 note=81 velocity=46 time=0.0015625
EXTRACT: control_change channel=12 control=10 value=47 time=0.018750000000000003
EXTRACT: note_on channel=12 note=81 velocity=0 time=0.0234375
EXTRACT: note_on channel=12 note=81 velocity=46 time=0.1328125
EXTRACT: control_change channel=12 control=10 value=63 time=0
EXTRACT: note_on channel=2 note=56 velocity=76 time=0.0078125
EXTRACT: control_change channel=12 control=10 value=67 time=0.03125
EXTRACT: note_on channel=12 note=81 velocity=0 time=0.015625
EXTRACT: note_on channel=2 note=57 velocity=0 time=0.109375
EXTRACT: note_on channel=9 note=39 velocity=114 time=0.018750000000000003
EXTRACT: note_on channel=12 note=81 velocity=48 time=0.018750000000000003
EXTRACT: note_on channel=2 note=57 velocity=86 time=0.004687500000000001
EXTRACT: note_on channel=9 note=39 velocity=0 time=0.004687500000000001
EXTRACT: control_change channel=12 control=10 value=87 time=0.0234375
EXTRACT: note_on channel=12 note=81 velocity=0 time=0.0078125
EXTRACT: note_on channel=2 note=49 velocity=0 time=0.109375
EXTRACT: note_on channel=5 note=69 velocity=0 time=0
EXTRACT: note_on channel=2 note=49 velocity=53 time=0.029687500000000002
EXTRACT: note_on channel=12 note=81 velocity=47 time=0
EXTRACT: note_on channel=5 note=68 velocity=76 time=0.0015625
EXTRACT: control_change channel=12 control=10 value=103 time=0.0078125
EXTRACT: note_on channel=12 note=81 velocity=0 time=0.0390625
EXTRACT: control_change channel=12 control=10 value=107 time=0
EXTRACT: note_on channel=2 note=54 velocity=0 time=0.109375
EXTRACT: note_on channel=5 note=68 velocity=0 time=0
EXTRACT: note_on channel=3 note=78 velocity=0 time=0.0078125
EXTRACT: note_on channel=2 note=54 velocity=80 time=0.021875000000000002
EXTRACT: note_on channel=3 note=73 velocity=77 time=0.004687500000000001
EXTRACT: note_on channel=5 note=66 velocity=76 time=0
EXTRACT: note_on channel=12 note=81 velocity=44 time=0.004687500000000001
EXTRACT: control_change channel=12 control=10 value=123 time=0.0078125
EXTRACT: note_on channel=12 note=81 velocity=0 time=0.03125
EXTRACT: control_change channel=12 control=10 value=121 time=0.0078125
EXTRACT: note_on channel=2 note=56 velocity=0 time=0.1015625
EXTRACT: note_on channel=3 note=73 velocity=0 time=0.0078125
EXTRACT: note_on channel=2 note=56 velocity=86 time=0.018750000000000003
EXTRACT: note_on channel=3 note=74 velocity=83 time=0.004687500000000001
EXTRACT: note_on channel=12 note=81 velocity=41 time=0.0078125
EXTRACT: control_change channel=12 control=10 value=105 time=0.015625
EXTRACT: note_on channel=12 note=81 velocity=0 time=0.0234375
EXTRACT: note_on channel=2 note=57 velocity=0 time=0.109375
EXTRACT: note_on channel=3 note=74 velocity=0 time=0.0078125
EXTRACT: note_on channel=9 note=36 velocity=115 time=0.0234375
EXTRACT: note_on channel=12 note=81 velocity=41 time=0
EXTRACT: note_on channel=3 note=76 velocity=86 time=0.0015625
EXTRACT: note_on channel=2 note=57 velocity=87 time=0.010937500000000001
EXTRACT: note_on channel=9 note=36 velocity=0 time=0.015625
EXTRACT: control_change channel=12 control=10 value=85 time=0.003125
EXTRACT: note_on channel=12 note=81 velocity=0 time=0.015625
EXTRACT: note_on channel=12 note=81 velocity=40 time=0.1453125
EXTRACT: control_change channel=12 control=10 value=65 time=0.034375
EXTRACT: note_on channel=12 note=81 velocity=0 time=0.0078125
EXTRACT: note_on channel=2 note=49 velocity=0 time=0.109375
EXTRACT: note_on channel=5 note=66 velocity=0 time=0
EXTRACT: note_on channel=3 note=76 velocity=0 time=0.0078125
EXTRACT: note_on channel=12 note=81 velocity=39 time=0.0171875
EXTRACT: note_on channel=2 note=49 velocity=78 time=0.00625
EXTRACT: note_on channel=9 note=35 velocity=115 time=0
EXTRACT: note_on channel=9 note=36 velocity=115 time=0
EXTRACT: note_on channel=3 note=76 velocity=79 time=0.004687500000000001
EXTRACT: control_change channel=12 control=10 value=49 time=0.003125
EXTRACT: note_on channel=9 note=36 velocity=0 time=0.0203125
EXTRACT: note_on channel=9 note=35 velocity=0 time=0
EXTRACT: note_on channel=12 note=81 velocity=0 time=0.018750000000000003
EXTRACT: control_change channel=12 control=10 value=45 time=0
EXTRACT: note_on channel=2 note=54 velocity=0 time=0.109375
EXTRACT: note_on channel=3 note=76 velocity=0 time=0.0078125
EXTRACT: note_on channel=3 note=73 velocity=79 time=0.010937500000000001
EXTRACT: note_on channel=12 note=81 velocity=41 time=0.010937500000000001
EXTRACT: note_on channel=2 note=54 velocity=81 time=0.0015625
EXTRACT: control_change channel=12 control=10 value=29 time=0.015625
EXTRACT: note_on channel=12 note=81 velocity=0 time=0.03125
EXTRACT: control_change channel=12 control=10 value=25 time=0.0078125
EXTRACT: note_on channel=3 note=73 velocity=0 time=0.0234375
EXTRACT: note_on channel=2 note=57 velocity=0 time=0.078125
EXTRACT: note_on channel=9 note=39 velocity=117 time=0.025
EXTRACT: note_on channel=3 note=71 velocity=85 time=0.0015625
EXTRACT: note_on channel=2 note=57 velocity=84 time=0.004687500000000001
EXTRACT: note_on channel=12 note=81 velocity=40 time=0.00625
EXTRACT: note_on channel=9 note=39 velocity=0 time=0.015625
EXTRACT: control_change channel=12 control=10 value=19 time=0.0015625
EXTRACT: note_on channel=12 note=81 velocity=0 time=0.0234375
EXTRACT: note_on channel=2 note=49 velocity=0 time=0.109375
EXTRACT: note_on channel=12 note=81 velocity=37 time=0.0234375
EXTRACT: control_change channel=12 control=10 value=35 time=0
EXTRACT: note_on channel=9 note=35 velocity=115 time=0.0078125
EXTRACT: note_on channel=9 note=36 velocity=115 time=0
EXTRACT: note_on channel=2 note=49 velocity=72 time=0.0078125
EXTRACT: note_on channel=9 note=36 velocity=0 time=0.0203125
EXTRACT: note_on channel=9 note=35 velocity=0 time=0
EXTRACT: control_change channel=12 control=10 value=39 time=0.003125
EXTRACT: note_on channel=12 note=81 velocity=0 time=0.015625
EXTRACT: note_on channel=2 note=56 velocity=0 time=0.109375
EXTRACT: note_on channel=3 note=71 velocity=0 time=0.0078125
EXTRACT: note_on channel=2 note=56 velocity=80 time=0.021875000000000002
EXTRACT: note_on channel=3 note=69 velocity=77 time=0.004687500000000001
EXTRACT: note_on channel=12 note=81 velocity=36 time=0.00625
EXTRACT: control_change channel=12 control=10 value=59 time=0.029687500000000002
EXTRACT: note_on channel=12 note=81 velocity=0 time=0.0078125
EXTRACT: note_on channel=2 note=59 velocity=78 time=0.13125
EXTRACT: control_change channel=12 control=10 value=75 time=0.0171875
EXTRACT: note_on channel=12 note=81 velocity=37 time=0.003125
EXTRACT: control_change channel=12 control=10 value=79 time=0.035937500000000004
EXTRACT: control_change channel=12 control=10 value=83 time=0.0390625
EXTRACT: control_change channel=12 control=10 value=87 time=0.0390625
EXTRACT: note_on channel=1 note=42 velocity=0 time=0.0234375
EXTRACT: note_on channel=2 note=59 velocity=0 time=0.0078125
EXTRACT: note_on channel=2 note=42 velocity=0 time=0
EXTRACT: note_on channel=2 note=49 velocity=0 time=0
EXTRACT: note_on channel=2 note=54 velocity=0 time=0
EXTRACT: note_on channel=2 note=56 velocity=0 time=0
EXTRACT: note_on channel=2 note=57 velocity=0 time=0
EXTRACT: note_on channel=6 note=54 velocity=0 time=0
EXTRACT: note_on channel=7 note=69 velocity=0 time=0
EXTRACT: note_on channel=7 note=78 velocity=0 time=0
EXTRACT: note_on channel=7 note=66 velocity=0 time=0
EXTRACT: note_on channel=8 note=42 velocity=0 time=0
EXTRACT: note_on channel=8 note=57 velocity=0 time=0
EXTRACT: note_on channel=8 note=49 velocity=0 time=0
EXTRACT: note_on channel=8 note=54 velocity=0 time=0
EXTRACT: note_on channel=3 note=69 velocity=0 time=0.0078125
EXTRACT: control_change channel=12 control=10 value=91 time=0
EXTRACT: note_on channel=12 note=81 velocity=0 time=0.0078125
EXTRACT: note_on channel=1 note=38 velocity=73 time=0.0125
EXTRACT: note_on channel=3 note=68 velocity=92 time=0
EXTRACT: note_on channel=8 note=50 velocity=60 time=0
EXTRACT: note_on channel=2 note=54 velocity=93 time=0.0015625
EXTRACT: note_on channel=7 note=66 velocity=60 time=0.0015625
EXTRACT: note_on channel=8 note=38 velocity=58 time=0
EXTRACT: note_on channel=9 note=35 velocity=115 time=0
EXTRACT: note_on channel=9 note=36 velocity=115 time=0
EXTRACT: note_on channel=8 note=54 velocity=61 time=0.0015625
EXTRACT: note_on channel=8 note=57 velocity=58 time=0
EXTRACT: note_on channel=2 note=38 velocity=89 time=0.0015625
EXTRACT: note_on channel=6 note=54 velocity=73 time=0.0015625
EXTRACT: note_on channel=2 note=50 velocity=89 time=0.0015625
EXTRACT: note_on channel=2 note=57 velocity=92 time=0.003125
EXTRACT: note_on channel=7 note=69 velocity=61 time=0
EXTRACT: note_on channel=9 note=36 velocity=0 time=0.018750000000000003
EXTRACT: note_on channel=9 note=35 velocity=0 time=0
EXTRACT: note_on channel=3 note=68 velocity=0 time=0.13593750000000002
EXTRACT: note_on channel=3 note=66 velocity=70 time=0.03125
EXTRACT: note_on channel=2 note=50 velocity=0 time=0.1484375
EXTRACT: note_on channel=2 note=50 velocity=75 time=0.018750000000000003
EXTRACT: note_on channel=2 note=54 velocity=0 time=0.16875
EXTRACT: note_on channel=2 note=54 velocity=77 time=0.029687500000000002
EXTRACT: note_on channel=9 note=35 velocity=115 time=0.0015625
EXTRACT: note_on channel=9 note=36 velocity=115 time=0
EXTRACT: note_on channel=9 note=36 velocity=0 time=0.028125
EXTRACT: note_on channel=9 note=35 velocity=0 time=0
EXTRACT: note_on channel=2 note=57 velocity=0 time=0.12812500000000002
EXTRACT: note_on channel=3 note=66 velocity=0 time=0.0078125
EXTRACT: note_on channel=2 note=57 velocity=87 time=0.010937500000000001
EXTRACT: note_on channel=9 note=39 velocity=114 time=0.0015625
EXTRACT: note_on channel=9 note=39 velocity=0 time=0.028125
EXTRACT: note_on channel=2 note=54 velocity=0 time=0.1390625
EXTRACT: note_on channel=2 note=54 velocity=70 time=0.029687500000000002
EXTRACT: note_on channel=2 note=50 velocity=0 time=0.15781250000000002
EXTRACT: note_on channel=2 note=50 velocity=79 time=0.025
EXTRACT: note_on channel=3 note=73 velocity=80 time=0.009375000000000001
EXTRACT: note_on channel=2 note=54 velocity=0 time=0.153125
EXTRACT: note_on channel=3 note=73 velocity=0 time=0.0078125
EXTRACT: note_on channel=2 note=54 velocity=84 time=0.021875000000000002
EXTRACT: note_on channel=3 note=74 velocity=85 time=0.004687500000000001
EXTRACT: note_on channel=2 note=57 velocity=0 time=0.153125
EXTRACT: note_on channel=7 note=69 velocity=0 time=0
EXTRACT: note_on channel=7 note=66 velocity=0 time=0
EXTRACT: note_on channel=3 note=74 velocity=0 time=0.0078125
EXTRACT: note_on channel=9 note=36 velocity=115 time=0.0234375
EXTRACT: note_on channel=3 note=76 velocity=85 time=0.00625
EXTRACT: note_on channel=2 note=57 velocity=88 time=0.0015625
EXTRACT: note_on channel=9 note=36 velocity=0 time=0.0203125
EXTRACT: note_on channel=3 note=76 velocity=0 time=0.13593750000000002
EXTRACT: note_on channel=3 note=76 velocity=76 time=0.0203125
EXTRACT: note_on channel=3 note=76 velocity=0 time=0.08125
EXTRACT: note_on channel=3 note=76 velocity=78 time=0.11875000000000001
EXTRACT: note_on channel=3 note=76 velocity=0 time=0.1546875
EXTRACT: note_on channel=3 note=76 velocity=77 time=0.0125
EXTRACT: note_on channel=9 note=36 velocity=115 time=0.010937500000000001
EXTRACT: note_on channel=9 note=36 velocity=0 time=0.028125
EXTRACT: note_on channel=3 note=76 velocity=0 time=0.05
EXTRACT: note_on channel=1 note=38 velocity=0 time=0.0703125
EXTRACT: note_on channel=6 note=54 velocity=0 time=0.0078125
EXTRACT: note_on channel=8 note=57 velocity=0 time=0
EXTRACT: note_on channel=8 note=50 velocity=0 time=0
EXTRACT: note_on channel=8 note=38 velocity=0 time=0
EXTRACT: note_on channel=8 note=54 velocity=0 time=0
EXTRACT: note_on channel=9 note=39 velocity=116 time=0.021875000000000002
EXTRACT: note_on channel=3 note=76 velocity=90 time=0.018750000000000003
EXTRACT: note_on channel=9 note=39 velocity=0 time=0.009375000000000001
EXTRACT: note_on channel=3 note=76 velocity=0 time=0.1453125
EXTRACT: note_on channel=9 note=35 velocity=115 time=0.0234375
EXTRACT: note_on channel=9 note=36 velocity=115 time=0
EXTRACT: note_on channel=9 note=36 velocity=0 time=0.028125
EXTRACT: note_on channel=9 note=35 velocity=0 time=0
EXTRACT: note_on channel=9 note=35 velocity=115 time=0.15937500000000002
EXTRACT: note_on channel=9 note=36 velocity=115 time=0
EXTRACT: note_on channel=3 note=80 velocity=76 time=0.004687500000000001
EXTRACT: note_on channel=9 note=36 velocity=0 time=0.0234375
EXTRACT: note_on channel=9 note=35 velocity=0 time=0
EXTRACT: note_on channel=3 note=80 velocity=0 time=0.13593750000000002
EXTRACT: note_on channel=3 note=81 velocity=75 time=0.0125
EXTRACT: note_on channel=9 note=36 velocity=115 time=0.010937500000000001
EXTRACT: note_on channel=9 note=36 velocity=0 time=0.028125
EXTRACT: note_on channel=2 note=57 velocity=0 time=0.12812500000000002
EXTRACT: note_on channel=2 note=54 velocity=0 time=0
EXTRACT: note_on channel=2 note=38 velocity=0 time=0
EXTRACT: note_on channel=2 note=50 velocity=0 time=0
EXTRACT: note_on channel=11 note=81 velocity=87 time=0.021875000000000002
EXTRACT: note_on channel=8 note=57 velocity=60 time=0.0015625
EXTRACT: note_on channel=2 note=61 velocity=89 time=0.003125
EXTRACT: note_on channel=7 note=69 velocity=60 time=0
EXTRACT: note_on channel=11 note=69 velocity=83 time=0
EXTRACT: note_on channel=1 note=33 velocity=73 time=0.0015625
EXTRACT: note_on channel=2 note=64 velocity=91 time=0
EXTRACT: note_on channel=7 note=57 velocity=62 time=0
EXTRACT: note_on channel=12 note=69 velocity=72 time=0
EXTRACT: note_on channel=8 note=52 velocity=58 time=0.003125
EXTRACT: note_on channel=9 note=35 velocity=115 time=0
EXTRACT: note_on channel=9 note=36 velocity=115 time=0
EXTRACT: note_on channel=10 note=60 velocity=115 time=0
EXTRACT: note_on channel=2 note=45 velocity=91 time=0.003125
EXTRACT: note_on channel=7 note=73 velocity=61 time=0
EXTRACT: note_on channel=8 note=61 velocity=60 time=0.0015625
EXTRACT: note_on channel=8 note=45 velocity=61 time=0
EXTRACT: note_on channel=6 note=57 velocity=73 time=0.003125
EXTRACT: note_on channel=2 note=57 velocity=92 time=0.003125
EXTRACT: control_change channel=12 control=10 value=65 time=0.0125
EXTRACT: note_on channel=9 note=36 velocity=0 time=0.004687500000000001
EXTRACT: note_on channel=9 note=35 velocity=0 time=0
EXTRACT: note_on channel=10 note=60 velocity=0 time=0
EXTRACT: control_change channel=12 control=10 value=61 time=0.034375
EXTRACT: control_change channel=12 control=10 value=57 time=0.0390625
EXTRACT: note_on channel=12 note=69 velocity=0 time=0.03125
EXTRACT: note_on channel=11 note=69 velocity=0 time=0.0078125
EXTRACT: note_on channel=11 note=81 velocity=0 time=0
EXTRACT: control_change channel=12 control=10 value=53 time=0
EXTRACT: note_on channel=3 note=81 velocity=0 time=0.0234375
EXTRACT: note_on channel=3 note=83 velocity=74 time=0.0328125
EXTRACT: note_on channel=3 note=83 velocity=0 time=0.1546875
EXTRACT: note_on channel=3 note=85 velocity=79 time=0.010937500000000001
EXTRACT: note_on channel=5 note=68 velocity=78 time=0.003125
EXTRACT: note_on channel=11 note=81 velocity=84 time=0.004687500000000001
EXTRACT: note_on channel=12 note=69 velocity=68 time=0
EXTRACT: control_change channel=12 control=10 value=29 time=0.004687500000000001
EXTRACT: note_on channel=11 note=69 velocity=84 time=0.0078125
EXTRACT: control_change channel=12 control=10 value=25 time=0.03125
EXTRACT: control_change channel=12 control=10 value=21 time=0.0390625
EXTRACT: control_change channel=12 control=10 value=17 time=0.0390625
EXTRACT: note_on channel=12 note=69 velocity=0 time=0.015625
EXTRACT: note_on channel=11 note=69 velocity=0 time=0.0078125
EXTRACT: note_on channel=11 note=81 velocity=0 time=0
EXTRACT: note_on channel=5 note=68 velocity=0 time=0.015625
EXTRACT: note_on channel=5 note=69 velocity=76 time=0.034375
EXTRACT: note_on channel=12 note=71 velocity=70 time=0.0015625
EXTRACT: note_on channel=11 note=83 velocity=85 time=0.0015625
EXTRACT: control_change channel=12 control=10 value=19 time=0.0015625
EXTRACT: note_on channel=11 note=71 velocity=87 time=0.004687500000000001
EXTRACT: control_change channel=12 control=10 value=23 time=0.034375
EXTRACT: control_change channel=12 control=10 value=27 time=0.0390625
EXTRACT: control_change channel=12 control=10 value=31 time=0.0390625
EXTRACT: note_on channel=12 note=71 velocity=0 time=0.0078125
EXTRACT: note_on channel=11 note=71 velocity=0 time=0.0078125
EXTRACT: note_on channel=11 note=83 velocity=0 time=0
EXTRACT: note_on channel=3 note=85 velocity=0 time=0.0234375
EXTRACT: note_on channel=11 note=73 velocity=84 time=0.010937500000000001
EXTRACT: note_on channel=12 note=73 velocity=70 time=0.010937500000000001
EXTRACT: note_on channel=11 note=85 velocity=86 time=0.004687500000000001
EXTRACT: note_on channel=9 note=39 velocity=113 time=0.00625
EXTRACT: control_change channel=12 control=10 value=39 time=0.00625
EXTRACT: note_on channel=9 note=39 velocity=0 time=0.021875000000000002
EXTRACT: control_change channel=12 control=10 value=43 time=0.0171875
EXTRACT: control_change channel=12 control=10 value=47 time=0.0390625
EXTRACT: note_on channel=12 note=73 velocity=0 time=0.0390625
EXTRACT: control_change channel=12 control=10 value=51 time=0
EXTRACT: note_on channel=11 note=85 velocity=0 time=0.0078125
EXTRACT: note_on channel=11 note=73 velocity=0 time=0
EXTRACT: note_on channel=5 note=69 velocity=0 time=0.015625
EXTRACT: note_on channel=5 note=71 velocity=76 time=0.0390625
EXTRACT: note_on channel=5 note=71 velocity=0 time=0.1484375
EXTRACT: note_on channel=11 note=85 velocity=84 time=0.021875000000000002
EXTRACT: note_on channel=12 note=73 velocity=70 time=0
EXTRACT: control_change channel=12 control=10 value=75 time=0.0015625
EXTRACT: note_on channel=5 note=73 velocity=80 time=0.003125
EXTRACT: note_on channel=11 note=73 velocity=85 time=0.0078125
EXTRACT: control_change channel=12 control=10 value=79 time=0.028125
EXTRACT: control_change channel=12 control=10 value=83 time=0.0390625
EXTRACT: control_change channel=12 control=10 value=87 time=0.0390625
EXTRACT: note_on channel=12 note=73 velocity=0 time=0.0234375
EXTRACT: note_on channel=11 note=73 velocity=0 time=0.0078125
EXTRACT: note_on channel=11 note=85 velocity=0 time=0
EXTRACT: note_on channel=5 note=73 velocity=0 time=0.203125
EXTRACT: note_on channel=11 note=73 velocity=85 time=0.0203125
EXTRACT: note_on channel=3 note=81 velocity=86 time=0.00625
EXTRACT: note_on channel=9 note=35 velocity=115 time=0.004687500000000001
EXTRACT: note_on channel=9 note=36 velocity=115 time=0
EXTRACT: note_on channel=4 note=57 velocity=88 time=0.003125
EXTRACT: note_on channel=12 note=73 velocity=71 time=0.0015625
EXTRACT: control_change channel=12 control=10 value=115 time=0.003125
EXTRACT: note_on channel=11 note=85 velocity=86 time=0.004687500000000001
EXTRACT: note_on channel=9 note=36 velocity=0 time=0.015625
EXTRACT: note_on channel=9 note=35 velocity=0 time=0
EXTRACT: control_change channel=12 control=10 value=119 time=0.018750000000000003
EXTRACT: control_change channel=12 control=10 value=123 time=0.0390625
EXTRACT: control_change channel=12 control=10 value=121 time=0.0390625
EXTRACT: note_on channel=12 note=73 velocity=0 time=0.0078125
EXTRACT: note_on channel=11 note=85 velocity=0 time=0.0078125
EXTRACT: note_on channel=11 note=73 velocity=0 time=0
EXTRACT: note_on channel=4 note=57 velocity=0 time=0.015625
EXTRACT: note_on channel=3 note=81 velocity=0 time=0.0078125
EXTRACT: note_on channel=4 note=57 velocity=75 time=0.0125
EXTRACT: note_on channel=3 note=81 velocity=74 time=0.0171875
EXTRACT: note_on channel=3 note=81 velocity=0 time=0.07187500000000001
EXTRACT: note_on channel=4 note=57 velocity=0 time=0.078125
EXTRACT: note_on channel=12 note=73 velocity=72 time=0.025
EXTRACT: note_on channel=11 note=73 velocity=85 time=0.0140625
EXTRACT: note_on channel=3 note=81 velocity=77 time=0.0015625
EXTRACT: note_on channel=4 note=57 velocity=78 time=0
EXTRACT: note_on channel=11 note=85 velocity=83 time=0
EXTRACT: control_change channel=12 control=10 value=93 time=0.0140625
EXTRACT: control_change channel=12 control=10 value=89 time=0.0390625
EXTRACT: note_on channel=3 note=81 velocity=0 time=0.015625
EXTRACT: control_change channel=12 control=10 value=85 time=0.0234375
EXTRACT: note_on channel=12 note=73 velocity=0 time=0.03125
EXTRACT: note_on channel=11 note=85 velocity=0 time=0.0078125
EXTRACT: note_on channel=11 note=73 velocity=0 time=0
EXTRACT: control_change channel=12 control=10 value=81 time=0
EXTRACT: note_on channel=4 note=57 velocity=0 time=0.015625
EXTRACT: note_on channel=3 note=81 velocity=79 time=0.021875000000000002
EXTRACT: note_on channel=4 note=57 velocity=79 time=0.004687500000000001
EXTRACT: note_on channel=3 note=81 velocity=0 time=0.08281250000000001
EXTRACT: note_on channel=4 note=57 velocity=0 time=0.078125
EXTRACT: note_on channel=3 note=81 velocity=84 time=0.018750000000000003
EXTRACT: note_on channel=12 note=73 velocity=72 time=0.00625
EXTRACT: note_on channel=9 note=39 velocity=114 time=0.0015625
EXTRACT: note_on channel=11 note=73 velocity=85 time=0.0015625
EXTRACT: control_change channel=12 control=10 value=57 time=0.003125
EXTRACT: note_on channel=11 note=85 velocity=86 time=0.010937500000000001
EXTRACT: note_on channel=4 note=57 velocity=86 time=0.0015625
EXTRACT: note_on channel=9 note=39 velocity=0 time=0.010937500000000001
EXTRACT: control_change channel=12 control=10 value=53 time=0.015625
EXTRACT: control_change channel=12 control=10 value=49 time=0.0390625
EXTRACT: control_change channel=12 control=10 value=45 time=0.0390625
EXTRACT: note_on channel=12 note=73 velocity=0 time=0.015625
EXTRACT: note_on channel=11 note=85 velocity=0 time=0.0078125
EXTRACT: note_on channel=11 note=73 velocity=0 time=0
EXTRACT: note_on channel=2 note=57 velocity=0 time=0.015625
EXTRACT: note_on channel=2 note=45 velocity=0 time=0
EXTRACT: note_on channel=4 note=57 velocity=0 time=0
EXTRACT: note_on channel=3 note=81 velocity=0 time=0.0078125
EXTRACT: note_on channel=9 note=35 velocity=115 time=0.0234375
EXTRACT: note_on channel=9 note=36 velocity=115 time=0
EXTRACT: note_on channel=2 note=57 velocity=72 time=0.003125
EXTRACT: note_on channel=2 note=45 velocity=72 time=0.0078125
EXTRACT: note_on channel=9 note=36 velocity=0 time=0.0171875
EXTRACT: note_on channel=9 note=35 velocity=0 time=0
EXTRACT: note_on channel=3 note=81 velocity=80 time=0.1484375
EXTRACT: note_on channel=11 note=71 velocity=84 time=0.0078125
EXTRACT: note_on channel=12 note=71 velocity=70 time=0.003125
EXTRACT: note_on channel=11 note=83 velocity=83 time=0.0015625
EXTRACT: note_on channel=4 note=57 velocity=77 time=0.010937500000000001
EXTRACT: control_change channel=12 control=10 value=17 time=0.003125
EXTRACT: control_change channel=12 control=10 value=15 time=0.0390625
EXTRACT: control_change channel=12 control=10 value=19 time=0.0390625
EXTRACT: note_on channel=12 note=71 velocity=0 time=0.0390625
EXTRACT: control_change channel=12 control=10 value=23 time=0
EXTRACT: note_on channel=11 note=83 velocity=0 time=0.0078125
EXTRACT: note_on channel=11 note=71 velocity=0 time=0
EXTRACT: note_on channel=4 note=57 velocity=0 time=0.015625
EXTRACT: note_on channel=3 note=81 velocity=0 time=0.0078125
EXTRACT: note_on channel=12 note=73 velocity=69 time=0.010937500000000001
EXTRACT: note_on channel=3 note=83 velocity=81 time=0.00625
EXTRACT: note_on channel=11 note=85 velocity=87 time=0.003125
EXTRACT: note_on channel=11 note=73 velocity=83 time=0.003125
EXTRACT: note_on channel=4 note=59 velocity=81 time=0.0015625
EXTRACT: control_change channel=12 control=10 value=31 time=0.021875000000000002
EXTRACT: control_change channel=12 control=10 value=35 time=0.0390625
EXTRACT: control_change channel=12 control=10 value=39 time=0.0390625
EXTRACT: note_on channel=12 note=73 velocity=0 time=0.03125
EXTRACT: note_on channel=11 note=73 velocity=0 time=0.0078125
EXTRACT: note_on channel=11 note=85 velocity=0 time=0
EXTRACT: control_change channel=12 control=10 value=43 time=0
EXTRACT: note_on channel=1 note=33 velocity=0 time=0.0078125
EXTRACT: note_on channel=2 note=45 velocity=0 time=0.0078125
EXTRACT: note_on channel=2 note=61 velocity=0 time=0
EXTRACT: note_on channel=2 note=64 velocity=0 time=0
EXTRACT: note_on channel=2 note=57 velocity=0 time=0
EXTRACT: note_on channel=6 note=57 velocity=0 time=0
EXTRACT: note_on channel=7 note=73 velocity=0 time=0
EXTRACT: note_on channel=7 note=57 velocity=0 time=0
EXTRACT: note_on channel=7 note=69 velocity=0 time=0
EXTRACT: note_on channel=8 note=45 velocity=0 time=0
EXTRACT: note_on channel=8 note=57 velocity=0 time=0
EXTRACT: note_on channel=8 note=52 velocity=0 time=0
EXTRACT: note_on channel=8 note=61 velocity=0 time=0
EXTRACT: note_on channel=2 note=54 velocity=91 time=0.018750000000000003
EXTRACT: note_on channel=12 note=71 velocity=69 time=0.004687500000000001
EXTRACT: control_change channel=12 control=10 value=47 time=0
EXTRACT: note_on channel=2 note=47 velocity=91 time=0.0015625
EXTRACT: note_on channel=8 note=50 velocity=60 time=0
EXTRACT: note_on channel=8 note=59 velocity=60 time=0
EXTRACT: note_on channel=2 note=62 velocity=90 time=0.003125
EXTRACT: note_on channel=2 note=59 velocity=93 time=0
EXTRACT: note_on channel=9 note=35 velocity=115 time=0.003125
EXTRACT: note_on channel=9 note=36 velocity=115 time=0
EXTRACT: note_on channel=11 note=83 velocity=87 time=0
EXTRACT: note_on channel=7 note=59 velocity=62 time=0.0015625
EXTRACT: note_on channel=7 note=74 velocity=58 time=0.0015625
EXTRACT: note_on channel=8 note=54 velocity=62 time=0.0015625
EXTRACT: note_on channel=7 note=71 velocity=62 time=0.003125
EXTRACT: note_on channel=8 note=47 velocity=62 time=0
EXTRACT: note_on channel=1 note=35 velocity=75 time=0.003125
EXTRACT: note_on channel=6 note=59 velocity=73 time=0
EXTRACT: note_on channel=11 note=71 velocity=86 time=0.0015625
EXTRACT: note_on channel=9 note=36 velocity=0 time=0.015625
EXTRACT: note_on channel=9 note=35 velocity=0 time=0
EXTRACT: control_change channel=12 control=10 value=51 time=0.003125
EXTRACT: control_change channel=12 control=10 value=55 time=0.0390625
EXTRACT: control_change channel=12 control=10 value=59 time=0.0390625
EXTRACT: note_on channel=12 note=71 velocity=0 time=0.0234375
EXTRACT: note_on channel=11 note=71 velocity=0 time=0.0078125
EXTRACT: note_on channel=11 note=83 velocity=0 time=0
EXTRACT: note_on channel=12 note=71 velocity=71 time=0.23125
EXTRACT: note_on channel=11 note=71 velocity=85 time=0.00625
EXTRACT: note_on channel=5 note=69 velocity=78 time=0.0015625
EXTRACT: control_change channel=12 control=10 value=87 time=0.003125
EXTRACT: note_on channel=11 note=83 velocity=83 time=0.0015625
EXTRACT: control_change channel=12 control=10 value=91 time=0.037500000000000006
EXTRACT: control_change channel=12 control=10 value=95 time=0.0390625
EXTRACT: control_change channel=12 control=10 value=99 time=0.0390625
EXTRACT: note_on channel=12 note=71 velocity=0 time=0.0078125
EXTRACT: note_on channel=11 note=83 velocity=0 time=0.0078125
EXTRACT: note_on channel=11 note=71 velocity=0 time=0
EXTRACT: note_on channel=5 note=69 velocity=0 time=0.015625
EXTRACT: note_on channel=5 note=71 velocity=81 time=0.03125
EXTRACT: note_on channel=9 note=35 velocity=115 time=0
EXTRACT: note_on channel=9 note=36 velocity=115 time=0
EXTRACT: note_on channel=11 note=73 velocity=83 time=0.004687500000000001
EXTRACT: note_on channel=11 note=85 velocity=86 time=0.004687500000000001
EXTRACT: note_on channel=12 note=73 velocity=68 time=0.003125
EXTRACT: control_change channel=12 control=10 value=107 time=0.003125
EXTRACT: note_on channel=9 note=36 velocity=0 time=0.0125
EXTRACT: note_on channel=9 note=35 velocity=0 time=0
EXTRACT: control_change channel=12 control=10 value=111 time=0.026562500000000003
EXTRACT: control_change channel=12 control=10 value=115 time=0.0390625
EXTRACT: note_on channel=12 note=73 velocity=0 time=0.0390625
EXTRACT: control_change channel=12 control=10 value=119 time=0
EXTRACT: note_on channel=11 note=85 velocity=0 time=0.0078125
EXTRACT: note_on channel=11 note=73 velocity=0 time=0
EXTRACT: note_on channel=4 note=59 velocity=0 time=0.015625
EXTRACT: note_on channel=3 note=83 velocity=0 time=0.0078125
EXTRACT: note_on channel=12 note=74 velocity=69 time=0.0234375
EXTRACT: note_on channel=9 note=39 velocity=115 time=0.004687500000000001
EXTRACT: note_on channel=11 note=74 velocity=83 time=0
EXTRACT: note_on channel=11 note=86 velocity=86 time=0.003125
EXTRACT: control_change channel=12 control=10 value=121 time=0.015625
EXTRACT: note_on channel=9 note=39 velocity=0 time=0.009375000000000001
EXTRACT: control_change channel=12 control=10 value=117 time=0.029687500000000002
EXTRACT: control_change channel=12 control=10 value=113 time=0.0390625
EXTRACT: note_on channel=12 note=74 velocity=0 time=0.03125
EXTRACT: note_on channel=11 note=86 velocity=0 time=0.0078125
EXTRACT: note_on channel=11 note=74 velocity=0 time=0
EXTRACT: control_change channel=12 control=10 value=109 time=0
EXTRACT: note_on channel=2 note=62 velocity=0 time=0.203125
EXTRACT: note_on channel=11 note=86 velocity=84 time=0.0203125
EXTRACT: note_on channel=4 note=57 velocity=79 time=0.0015625
EXTRACT: note_on channel=11 note=74 velocity=87 time=0.003125
EXTRACT: note_on channel=12 note=74 velocity=70 time=0.0125
EXTRACT: note_on channel=3 note=81 velocity=80 time=0.003125
EXTRACT: note_on channel=2 note=62 velocity=79 time=0.0015625
EXTRACT: control_change channel=12 control=10 value=81 time=0.028125
EXTRACT: control_change channel=12 control=10 value=77 time=0.0390625
EXTRACT: control_change channel=12 control=10 value=73 time=0.0390625
EXTRACT: note_on channel=12 note=74 velocity=0 time=0.015625
EXTRACT: note_on channel=11 note=74 velocity=0 time=0.0078125
EXTRACT: note_on channel=11 note=86 velocity=0 time=0
EXTRACT: note_on channel=4 note=57 velocity=0 time=0.015625
EXTRACT: note_on channel=3 note=81 velocity=0 time=0.0078125
EXTRACT: note_on channel=3 note=81 velocity=85 time=0.026562500000000003
EXTRACT: note_on channel=4 note=57 velocity=86 time=0
EXTRACT: note_on channel=3 note=81 velocity=0 time=0.07500000000000001
EXTRACT: note_on channel=2 note=62 velocity=0 time=0.078125
EXTRACT: note_on channel=2 note=59 velocity=0 time=0
EXTRACT: note_on channel=2 note=47 velocity=0 time=0
EXTRACT: note_on channel=4 note=57 velocity=0 time=0
EXTRACT: note_on channel=5 note=71 velocity=0 time=0
EXTRACT: note_on channel=11 note=86 velocity=87 time=0.026562500000000003
EXTRACT: note_on channel=2 note=59 velocity=87 time=0.004687500000000001
EXTRACT: note_on channel=9 note=36 velocity=115 time=0
EXTRACT: note_on channel=3 note=83 velocity=87 time=0.0015625
EXTRACT: note_on channel=12 note=74 velocity=70 time=0.0015625
EXTRACT: note_on channel=4 note=59 velocity=88 time=0.0015625
EXTRACT: note_on channel=11 note=74 velocity=84 time=0
EXTRACT: note_on channel=2 note=47 velocity=88 time=0.003125
EXTRACT: note_on channel=2 note=62 velocity=85 time=0.004687500000000001
EXTRACT: control_change channel=12 control=10 value=45 time=0.003125
EXTRACT: note_on channel=9 note=36 velocity=0 time=0.0125
EXTRACT: control_change channel=12 control=10 value=41 time=0.026562500000000003
EXTRACT: control_change channel=12 control=10 value=37 time=0.0390625
EXTRACT: note_on channel=12 note=74 velocity=0 time=0.0390625
EXTRACT: control_change channel=12 control=10 value=33 time=0
EXTRACT: note_on channel=11 note=74 velocity=0 time=0.0078125
EXTRACT: note_on channel=11 note=86 velocity=0 time=0
EXTRACT: note_on channel=4 note=59 velocity=0 time=0.015625
EXTRACT: note_on channel=3 note=83 velocity=0 time=0.0078125
EXTRACT: note_on channel=3 note=83 velocity=72 time=0.018750000000000003
EXTRACT: note_on channel=4 note=59 velocity=74 time=0.00625
EXTRACT: note_on channel=3 note=83 velocity=0 time=0.0765625
EXTRACT: note_on channel=2 note=54 velocity=0 time=0.078125
EXTRACT: note_on channel=4 note=59 velocity=0 time=0
EXTRACT: note_on channel=4 note=59 velocity=81 time=0.0203125
EXTRACT: control_change channel=12 control=10 value=19 time=0.003125
EXTRACT: note_on channel=3 note=83 velocity=80 time=0.003125
EXTRACT: note_on channel=12 note=74 velocity=71 time=0
EXTRACT: note_on channel=11 note=86 velocity=84 time=0.0015625
EXTRACT: note_on channel=11 note=74 velocity=84 time=0.0078125
EXTRACT: note_on channel=2 note=54 velocity=78 time=0.00625
EXTRACT: control_change channel=12 control=10 value=23 time=0.0203125
EXTRACT: control_change channel=12 control=10 value=27 time=0.0390625
EXTRACT: control_change channel=12 control=10 value=31 time=0.0390625
EXTRACT: note_on channel=12 note=74 velocity=0 time=0.0234375
EXTRACT: note_on channel=11 note=74 velocity=0 time=0.0078125
EXTRACT: note_on channel=11 note=86 velocity=0 time=0
EXTRACT: note_on channel=9 note=36 velocity=115 time=0.046875
EXTRACT: note_on channel=9 note=36 velocity=0 time=0.028125
EXTRACT: note_on channel=2 note=54 velocity=0 time=0.12812500000000002
EXTRACT: note_on channel=2 note=62 velocity=0 time=0
EXTRACT: note_on channel=2 note=59 velocity=0 time=0
EXTRACT: note_on channel=4 note=59 velocity=0 time=0
EXTRACT: note_on channel=3 note=83 velocity=0 time=0.0078125
EXTRACT: note_on channel=11 note=86 velocity=87 time=0.010937500000000001
EXTRACT: note_on channel=2 note=54 velocity=90 time=0.0015625
EXTRACT: note_on channel=2 note=59 velocity=89 time=0.003125
EXTRACT: note_on channel=3 note=85 velocity=91 time=0
EXTRACT: note_on channel=4 note=61 velocity=89 time=0
EXTRACT: note_on channel=11 note=74 velocity=84 time=0.0078125
EXTRACT: note_on channel=9 note=39 velocity=117 time=0.004687500000000001
EXTRACT: note_on channel=2 note=62 velocity=91 time=0.0015625
EXTRACT: control_change channel=12 control=10 value=59 time=0.0015625
EXTRACT: note_on channel=12 note=74 velocity=69 time=0.0015625
EXTRACT: note_on channel=9 note=39 velocity=0 time=0.0234375
EXTRACT: control_change channel=12 control=10 value=63 time=0.0140625
EXTRACT: control_change channel=12 control=10 value=67 time=0.0390625
EXTRACT: control_change channel=12 control=10 value=71 time=0.0390625
EXTRACT: note_on channel=12 note=74 velocity=0 time=0.0078125
EXTRACT: note_on channel=11 note=74 velocity=0 time=0.0078125
EXTRACT: note_on channel=11 note=86 velocity=0 time=0
EXTRACT: note_on channel=12 note=74 velocity=72 time=0.043750000000000004
EXTRACT: note_on channel=9 note=35 velocity=115 time=0.003125
EXTRACT: note_on channel=9 note=36 velocity=115 time=0
EXTRACT: note_on channel=10 note=60 velocity=60 time=0
EXTRACT: note_on channel=11 note=86 velocity=87 time=0.004687500000000001
EXTRACT: note_on channel=11 note=74 velocity=83 time=0.0015625
EXTRACT: control_change channel=12 control=10 value=79 time=0.009375000000000001
EXTRACT: note_on channel=9 note=36 velocity=0 time=0.0125
EXTRACT: note_on channel=9 note=35 velocity=0 time=0
EXTRACT: note_on channel=10 note=60 velocity=0 time=0
EXTRACT: control_change channel=12 control=10 value=83 time=0.026562500000000003
EXTRACT: control_change channel=12 control=10 value=87 time=0.0390625
EXTRACT: note_on channel=12 note=74 velocity=0 time=0.0390625
EXTRACT: control_change channel=12 control=10 value=91 time=0
EXTRACT: note_on channel=11 note=74 velocity=0 time=0.0078125
EXTRACT: note_on channel=11 note=86 velocity=0 time=0
EXTRACT: note_on channel=2 note=62 velocity=0 time=0.015625
EXTRACT: note_on channel=2 note=59 velocity=0 time=0
EXTRACT: note_on channel=2 note=54 velocity=0 time=0
EXTRACT: note_on channel=4 note=61 velocity=0 time=0
EXTRACT: note_on channel=3 note=85 velocity=0 time=0.0078125
EXTRACT: note_on channel=2 note=62 velocity=75 time=0.0171875
EXTRACT: note_on channel=2 note=59 velocity=79 time=0
EXTRACT: note_on channel=2 note=54 velocity=77 time=0.00625
EXTRACT: note_on channel=9 note=35 velocity=115 time=0
EXTRACT: note_on channel=9 note=36 velocity=115 time=0
EXTRACT: note_on channel=10 note=60 velocity=78 time=0
EXTRACT: note_on channel=3 note=81 velocity=79 time=0.0015625
EXTRACT: note_on channel=11 note=73 velocity=83 time=0.0015625
EXTRACT: note_on channel=12 note=73 velocity=72 time=0
EXTRACT: note_on channel=11 note=85 velocity=86 time=0.0015625
EXTRACT: note_on channel=4 note=57 velocity=77 time=0.004687500000000001
EXTRACT: control_change channel=12 control=10 value=99 time=0.0140625
EXTRACT: note_on channel=9 note=36 velocity=0 time=0.004687500000000001
EXTRACT: note_on channel=9 note=35 velocity=0 time=0
EXTRACT: note_on channel=10 note=60 velocity=0 time=0
EXTRACT: control_change channel=12 control=10 value=103 time=0.034375
EXTRACT: note_on channel=3 note=81 velocity=0 time=0.015625
EXTRACT: control_change channel=12 control=10 value=107 time=0.0234375
EXTRACT: note_on channel=12 note=73 velocity=0 time=0.03125
EXTRACT: note_on channel=11 note=85 velocity=0 time=0.0078125
EXTRACT: note_on channel=11 note=73 velocity=0 time=0
EXTRACT: control_change channel=12 control=10 value=111 time=0
EXTRACT: note_on channel=4 note=57 velocity=0 time=0.015625
EXTRACT: note_on channel=9 note=35 velocity=115 time=0.03125
EXTRACT: note_on channel=9 note=36 velocity=115 time=0
EXTRACT: note_on channel=10 note=60 velocity=96 time=0
EXTRACT: note_on channel=4 note=57 velocity=74 time=0.004687500000000001
EXTRACT: note_on channel=11 note=74 velocity=84 time=0
EXTRACT: note_on channel=12 note=74 velocity=72 time=0
EXTRACT: note_on channel=3 note=81 velocity=77 time=0.004687500000000001
EXTRACT: note_on channel=11 note=86 velocity=83 time=0.0015625
EXTRACT: note_on channel=9 note=36 velocity=0 time=0.0171875
EXTRACT: note_on channel=9 note=35 velocity=0 time=0
EXTRACT: note_on channel=10 note=60 velocity=0 time=0
EXTRACT: control_change channel=12 control=10 value=119 time=0.003125
EXTRACT: control_change channel=12 control=10 value=123 time=0.0390625
EXTRACT: control_change channel=12 control=10 value=121 time=0.0390625
EXTRACT: note_on channel=12 note=74 velocity=0 time=0.0234375
EXTRACT: note_on channel=11 note=86 velocity=0 time=0.0078125
EXTRACT: note_on channel=11 note=74 velocity=0 time=0
EXTRACT: note_on channel=1 note=35 velocity=0 time=0.0078125
EXTRACT: note_on channel=2 note=54 velocity=0 time=0.0078125
EXTRACT: note_on channel=2 note=47 velocity=0 time=0
EXTRACT: note_on channel=2 note=62 velocity=0 time=0
EXTRACT: note_on channel=2 note=59 velocity=0 time=0
EXTRACT: note_on channel=6 note=59 velocity=0 time=0
EXTRACT: note_on channel=7 note=71 velocity=0 time=0
EXTRACT: note_on channel=7 note=74 velocity=0 time=0
EXTRACT: note_on channel=7 note=59 velocity=0 time=0
EXTRACT: note_on channel=8 note=47 velocity=0 time=0
EXTRACT: note_on channel=8 note=50 velocity=0 time=0
EXTRACT: note_on channel=8 note=59 velocity=0 time=0
EXTRACT: note_on channel=8 note=54 velocity=0 time=0
EXTRACT: note_on channel=7 note=66 velocity=60 time=0.0203125
EXTRACT: note_on channel=8 note=42 velocity=62 time=0
EXTRACT: note_on channel=2 note=57 velocity=89 time=0.0015625
EXTRACT: note_on channel=2 note=42 velocity=89 time=0.0015625
EXTRACT: note_on channel=7 note=69 velocity=60 time=0.0015625
EXTRACT: note_on channel=2 note=54 velocity=93 time=0.0015625
EXTRACT: note_on channel=5 note=73 velocity=89 time=0
EXTRACT: note_on channel=8 note=57 velocity=61 time=0.0015625
EXTRACT: note_on channel=9 note=35 velocity=115 time=0.003125
EXTRACT: note_on channel=9 note=36 velocity=115 time=0
EXTRACT: note_on channel=10 note=60 velocity=115 time=0
EXTRACT: note_on channel=11 note=69 velocity=83 time=0
EXTRACT: note_on channel=12 note=69 velocity=68 time=0
EXTRACT: control_change channel=12 control=10 value=113 time=0
EXTRACT: note_on channel=7 note=54 velocity=62 time=0.003125
EXTRACT: note_on channel=8 note=49 velocity=61 time=0
EXTRACT: note_on channel=6 note=54 velocity=76 time=0.0015625
EXTRACT: note_on channel=2 note=61 velocity=90 time=0.003125
EXTRACT: note_on channel=8 note=54 velocity=62 time=0
EXTRACT: note_on channel=1 note=42 velocity=76 time=0.0015625
EXTRACT: note_on channel=11 note=81 velocity=84 time=0
EXTRACT: note_on channel=9 note=36 velocity=0 time=0.018750000000000003
EXTRACT: note_on channel=9 note=35 velocity=0 time=0
EXTRACT: note_on channel=10 note=60 velocity=0 time=0
EXTRACT: control_change channel=12 control=10 value=109 time=0.010937500000000001
EXTRACT: control_change channel=12 control=10 value=105 time=0.0390625
EXTRACT: control_change channel=12 control=10 value=101 time=0.0390625
EXTRACT: note_on channel=12 note=69 velocity=0 time=0.015625
EXTRACT: note_on channel=11 note=81 velocity=0 time=0.0078125
EXTRACT: note_on channel=11 note=69 velocity=0 time=0
EXTRACT: note_on channel=4 note=57 velocity=0 time=0.015625
EXTRACT: note_on channel=3 note=81 velocity=0 time=0.0078125
EXTRACT: note_on channel=4 note=54 velocity=75 time=0.026562500000000003
EXTRACT: note_on channel=3 note=78 velocity=75 time=0.00625
EXTRACT: note_on channel=5 note=73 velocity=0 time=0.146875
EXTRACT: note_on channel=11 note=66 velocity=83 time=0.018750000000000003
EXTRACT: note_on channel=11 note=78 velocity=83 time=0.009375000000000001
EXTRACT: note_on channel=5 note=69 velocity=79 time=0.00625
EXTRACT: note_on channel=12 note=66 velocity=70 time=0.004687500000000001
EXTRACT: control_change channel=12 control=10 value=73 time=0.0078125
EXTRACT: control_change channel=12 control=10 value=69 time=0.0390625
EXTRACT: control_change channel=12 control=10 value=65 time=0.0390625
EXTRACT: note_on channel=12 note=66 velocity=0 time=0.0390625
EXTRACT: control_change channel=12 control=10 value=61 time=0
EXTRACT: note_on channel=11 note=78 velocity=0 time=0.0078125
EXTRACT: note_on channel=11 note=66 velocity=0 time=0
EXTRACT: note_on channel=5 note=69 velocity=0 time=0.015625
EXTRACT: note_on channel=11 note=68 velocity=83 time=0.03125
EXTRACT: note_on channel=5 note=69 velocity=78 time=0.00625
EXTRACT: note_on channel=11 note=80 velocity=87 time=0
EXTRACT: note_on channel=12 note=68 velocity=72 time=0.0015625
EXTRACT: control_change channel=12 control=10 value=53 time=0.015625
EXTRACT: control_change channel=12 control=10 value=49 time=0.0390625
EXTRACT: control_change channel=12 control=10 value=45 time=0.0390625
EXTRACT: note_on channel=12 note=68 velocity=0 time=0.03125
EXTRACT: note_on channel=11 note=80 velocity=0 time=0.0078125
EXTRACT: note_on channel=11 note=68 velocity=0 time=0
EXTRACT: control_change channel=12 control=10 value=41 time=0
EXTRACT: note_on channel=2 note=54 velocity=0 time=0.015625
EXTRACT: note_on channel=9 note=39 velocity=115 time=0.026562500000000003
EXTRACT: note_on channel=11 note=81 velocity=86 time=0.0015625
EXTRACT: note_on channel=2 note=54 velocity=87 time=0.003125
EXTRACT: note_on channel=11 note=69 velocity=83 time=0.003125
EXTRACT: note_on channel=12 note=69 velocity=71 time=0.0015625
EXTRACT: note_on channel=9 note=39 velocity=0 time=0.018750000000000003
EXTRACT: control_change channel=12 control=10 value=33 time=0.0078125
EXTRACT: control_change channel=12 control=10 value=29 time=0.0390625
EXTRACT: control_change channel=12 control=10 value=25 time=0.0390625
EXTRACT: note_on channel=12 note=69 velocity=0 time=0.0234375
EXTRACT: note_on channel=11 note=69 velocity=0 time=0.0078125
EXTRACT: note_on channel=11 note=81 velocity=0 time=0
EXTRACT: note_on channel=5 note=69 velocity=0 time=0.015625
EXTRACT: note_on channel=5 note=66 velocity=77 time=0.0421875
EXTRACT: note_on channel=2 note=57 velocity=0 time=0.1453125
EXTRACT: note_on channel=4 note=54 velocity=0 time=0
EXTRACT: note_on channel=3 note=78 velocity=0 time=0.0078125
EXTRACT: note_on channel=11 note=69 velocity=87 time=0.018750000000000003
EXTRACT: note_on channel=2 note=57 velocity=80 time=0.0078125
EXTRACT: note_on channel=11 note=81 velocity=87 time=0.0015625
EXTRACT: control_change channel=12 control=10 value=31 time=0.003125
EXTRACT: note_on channel=12 note=69 velocity=69 time=0.004687500000000001
EXTRACT: control_change channel=12 control=10 value=35 time=0.034375
EXTRACT: control_change channel=12 control=10 value=39 time=0.0390625
EXTRACT: control_change channel=12 control=10 value=43 time=0.0390625
EXTRACT: note_on channel=12 note=69 velocity=0 time=0.0078125
EXTRACT: note_on channel=11 note=81 velocity=0 time=0.0078125
EXTRACT: note_on channel=11 note=69 velocity=0 time=0
EXTRACT: note_on channel=11 note=69 velocity=83 time=0.23125
EXTRACT: note_on channel=12 note=69 velocity=72 time=0
EXTRACT: note_on channel=3 note=81 velocity=88 time=0.0015625
EXTRACT: note_on channel=9 note=36 velocity=115 time=0.0015625
EXTRACT: note_on channel=4 note=57 velocity=88 time=0.004687500000000001
EXTRACT: note_on channel=11 note=81 velocity=85 time=0
EXTRACT: control_change channel=12 control=10 value=71 time=0.018750000000000003
EXTRACT: note_on channel=9 note=36 velocity=0 time=0.004687500000000001
EXTRACT: control_change channel=12 control=10 value=75 time=0.034375
EXTRACT: control_change channel=12 control=10 value=79 time=0.0390625
EXTRACT: note_on channel=12 note=69 velocity=0 time=0.03125
EXTRACT: note_on channel=11 note=81 velocity=0 time=0.0078125
EXTRACT: note_on channel=11 note=69 velocity=0 time=0
EXTRACT: control_change channel=12 control=10 value=83 time=0
EXTRACT: note_on channel=4 note=57 velocity=0 time=0.015625
EXTRACT: note_on channel=3 note=81 velocity=0 time=0.0078125
EXTRACT: note_on channel=3 note=81 velocity=74 time=0.018750000000000003
EXTRACT: note_on channel=4 note=57 velocity=76 time=0.015625
EXTRACT: note_on channel=3 note=81 velocity=0 time=0.0671875
EXTRACT: note_on channel=2 note=54 velocity=0 time=0.078125
EXTRACT: note_on channel=4 note=57 velocity=0 time=0
EXTRACT: note_on channel=5 note=66 velocity=0 time=0
EXTRACT: note_on channel=11 note=81 velocity=85 time=0.026562500000000003
EXTRACT: note_on channel=9 note=35 velocity=115 time=0.004687500000000001
EXTRACT: note_on channel=9 note=36 velocity=115 time=0
EXTRACT: note_on channel=11 note=69 velocity=87 time=0
EXTRACT: note_on channel=12 note=69 velocity=69 time=0
EXTRACT: control_change channel=12 control=10 value=107 time=0
EXTRACT: note_on channel=3 note=81 velocity=80 time=0.003125
EXTRACT: note_on channel=2 note=54 velocity=78 time=0.0078125
EXTRACT: note_on channel=4 note=57 velocity=79 time=0
EXTRACT: note_on channel=9 note=36 velocity=0 time=0.0171875
EXTRACT: note_on channel=9 note=35 velocity=0 time=0
EXTRACT: control_change channel=12 control=10 value=111 time=0.010937500000000001
EXTRACT: note_on channel=3 note=81 velocity=0 time=0.0390625
EXTRACT: control_change channel=12 control=10 value=115 time=0
EXTRACT: control_change channel=12 control=10 value=119 time=0.0390625
EXTRACT: note_on channel=12 note=69 velocity=0 time=0.015625
EXTRACT: note_on channel=11 note=69 velocity=0 time=0.0078125
EXTRACT: note_on channel=11 note=81 velocity=0 time=0
EXTRACT: note_on channel=4 note=57 velocity=0 time=0.015625
EXTRACT: note_on channel=4 note=57 velocity=81 time=0.028125
EXTRACT: note_on channel=3 note=81 velocity=77 time=0.009375000000000001
EXTRACT: note_on channel=3 note=81 velocity=0 time=0.07187500000000001
EXTRACT: note_on channel=2 note=57 velocity=0 time=0.078125
EXTRACT: note_on channel=4 note=57 velocity=0 time=0
EXTRACT: note_on channel=11 note=69 velocity=84 time=0.0234375
EXTRACT: note_on channel=9 note=39 velocity=116 time=0.004687500000000001
EXTRACT: note_on channel=2 note=57 velocity=87 time=0.0015625
EXTRACT: note_on channel=4 note=57 velocity=88 time=0
EXTRACT: note_on channel=11 note=81 velocity=84 time=0.0015625
EXTRACT: note_on channel=12 note=69 velocity=71 time=0.003125
EXTRACT: note_on channel=3 note=81 velocity=87 time=0.0078125
EXTRACT: control_change channel=12 control=10 value=101 time=0.004687500000000001
EXTRACT: note_on channel=9 note=39 velocity=0 time=0.009375000000000001
EXTRACT: control_change channel=12 control=10 value=97 time=0.029687500000000002
EXTRACT: control_change channel=12 control=10 value=93 time=0.0390625
EXTRACT: note_on channel=12 note=69 velocity=0 time=0.0390625
EXTRACT: control_change channel=12 control=10 value=89 time=0
EXTRACT: note_on channel=11 note=81 velocity=0 time=0.0078125
EXTRACT: note_on channel=11 note=69 velocity=0 time=0
EXTRACT: note_on channel=9 note=35 velocity=115 time=0.046875
EXTRACT: note_on channel=9 note=36 velocity=115 time=0
EXTRACT: note_on channel=9 note=36 velocity=0 time=0.028125
EXTRACT: note_on channel=9 note=35 velocity=0 time=0
EXTRACT: note_on channel=4 note=57 velocity=0 time=0.12812500000000002
EXTRACT: note_on channel=3 note=81 velocity=0 time=0.0078125
EXTRACT: note_on channel=2 note=64 velocity=77 time=0.015625
EXTRACT: note_on channel=3 note=81 velocity=78 time=0.004687500000000001
EXTRACT: note_on channel=11 note=69 velocity=86 time=0
EXTRACT: note_on channel=11 note=81 velocity=83 time=0.004687500000000001
EXTRACT: note_on channel=12 note=69 velocity=72 time=0
EXTRACT: note_on channel=4 note=57 velocity=79 time=0.009375000000000001
EXTRACT: control_change channel=12 control=10 value=61 time=0.0203125
EXTRACT: control_change channel=12 control=10 value=57 time=0.0390625
EXTRACT: note_on channel=3 note=81 velocity=0 time=0.0078125
EXTRACT: control_change channel=12 control=10 value=53 time=0.03125
EXTRACT: note_on channel=12 note=69 velocity=0 time=0.0234375
EXTRACT: note_on channel=11 note=81 velocity=0 time=0.0078125
EXTRACT: note_on channel=11 note=69 velocity=0 time=0
EXTRACT: note_on channel=4 note=57 velocity=0 time=0.015625
EXTRACT: note_on channel=11 note=69 velocity=85 time=0.0203125
EXTRACT: note_on channel=11 note=81 velocity=83 time=0.0015625
EXTRACT: note_on channel=4 note=57 velocity=81 time=0.004687500000000001
EXTRACT: note_on channel=12 note=69 velocity=69 time=0.003125
EXTRACT: control_change channel=12 control=10 value=45 time=0.0015625
EXTRACT: note_on channel=3 note=81 velocity=78 time=0.0125
EXTRACT: control_change channel=12 control=10 value=41 time=0.026562500000000003
EXTRACT: control_change channel=12 control=10 value=37 time=0.0390625
EXTRACT: control_change channel=12 control=10 value=33 time=0.0390625
EXTRACT: note_on channel=12 note=69 velocity=0 time=0.015625
EXTRACT: note_on channel=11 note=81 velocity=0 time=0.0078125
EXTRACT: note_on channel=11 note=69 velocity=0 time=0
EXTRACT: note_on channel=1 note=42 velocity=0 time=0.0078125
EXTRACT: note_on channel=2 note=64 velocity=0 time=0.0078125
EXTRACT: note_on channel=2 note=61 velocity=0 time=0
EXTRACT: note_on channel=2 note=54 velocity=0 time=0
EXTRACT: note_on channel=2 note=42 velocity=0 time=0
EXTRACT: note_on channel=2 note=57 velocity=0 time=0
EXTRACT: note_on channel=6 note=54 velocity=0 time=0
EXTRACT: note_on channel=7 note=54 velocity=0 time=0
EXTRACT: note_on channel=7 note=69 velocity=0 time=0
EXTRACT: note_on channel=7 note=66 velocity=0 time=0
EXTRACT: note_on channel=8 note=54 velocity=0 time=0
EXTRACT: note_on channel=8 note=42 velocity=0 time=0
EXTRACT: note_on channel=8 note=57 velocity=0 time=0
EXTRACT: note_on channel=8 note=49 velocity=0 time=0
EXTRACT: note_on channel=2 note=57 velocity=91 time=0.021875000000000002
EXTRACT: note_on channel=8 note=57 velocity=61 time=0
EXTRACT: note_on channel=7 note=62 velocity=60 time=0.0015625
EXTRACT: note_on channel=1 note=38 velocity=76 time=0.0015625
EXTRACT: note_on channel=2 note=54 velocity=90 time=0
EXTRACT: note_on channel=8 note=38 velocity=59 time=0
EXTRACT: note_on channel=7 note=50 velocity=62 time=0.0015625
EXTRACT: note_on channel=8 note=50 velocity=62 time=0
EXTRACT: note_on channel=8 note=54 velocity=59 time=0
EXTRACT: note_on channel=11 note=81 velocity=86 time=0.0015625
EXTRACT: note_on channel=9 note=35 velocity=115 time=0.003125
EXTRACT: note_on channel=9 note=36 velocity=115 time=0
EXTRACT: note_on channel=10 note=60 velocity=115 time=0
EXTRACT: note_on channel=11 note=69 velocity=86 time=0.004687500000000001
EXTRACT: note_on channel=6 note=54 velocity=77 time=0.0015625
EXTRACT: note_on channel=2 note=62 velocity=92 time=0.0015625
EXTRACT: control_change channel=12 control=10 value=25 time=0
EXTRACT: note_on channel=7 note=66 velocity=62 time=0.0015625
EXTRACT: note_on channel=12 note=69 velocity=69 time=0
EXTRACT: note_on channel=2 note=38 velocity=91 time=0.003125
EXTRACT: note_on channel=9 note=36 velocity=0 time=0.015625
EXTRACT: note_on channel=9 note=35 velocity=0 time=0
EXTRACT: note_on channel=10 note=60 velocity=0 time=0
EXTRACT: control_change channel=12 control=10 value=21 time=0.018750000000000003
EXTRACT: control_change channel=12 control=10 value=17 time=0.0390625
EXTRACT: control_change channel=12 control=10 value=15 time=0.0390625
EXTRACT: note_on channel=12 note=69 velocity=0 time=0.0078125
EXTRACT: note_on channel=11 note=69 velocity=0 time=0.0078125
EXTRACT: note_on channel=11 note=81 velocity=0 time=0
EXTRACT: note_on channel=4 note=57 velocity=0 time=0.015625
EXTRACT: note_on channel=3 note=81 velocity=0 time=0.0078125
EXTRACT: note_on channel=4 note=64 velocity=71 time=0.0203125
EXTRACT: note_on channel=3 note=76 velocity=73 time=0.0125
EXTRACT: note_on channel=2 note=57 velocity=0 time=0.146875
EXTRACT: note_on channel=4 note=64 velocity=0 time=0
EXTRACT: note_on channel=3 note=76 velocity=0 time=0.0078125
EXTRACT: note_on channel=3 note=74 velocity=75 time=0.0140625
EXTRACT: note_on channel=12 note=66 velocity=68 time=0
EXTRACT: note_on channel=2 note=59 velocity=59 time=0.015625
EXTRACT: note_on channel=4 note=62 velocity=78 time=0.0015625
EXTRACT: note_on channel=11 note=78 velocity=84 time=0
EXTRACT: note_on channel=5 note=69 velocity=76 time=0.0015625
EXTRACT: note_on channel=11 note=66 velocity=85 time=0.003125
EXTRACT: control_change channel=12 control=10 value=43 time=0.010937500000000001
EXTRACT: control_change channel=12 control=10 value=47 time=0.0390625
EXTRACT: control_change channel=12 control=10 value=51 time=0.0390625
EXTRACT: note_on channel=12 note=66 velocity=0 time=0.03125
EXTRACT: note_on channel=11 note=66 velocity=0 time=0.0078125
EXTRACT: note_on channel=11 note=78 velocity=0 time=0
EXTRACT: control_change channel=12 control=10 value=55 time=0
EXTRACT: note_on channel=4 note=62 velocity=0 time=0.015625
EXTRACT: note_on channel=5 note=69 velocity=0 time=0
EXTRACT: note_on channel=3 note=74 velocity=0 time=0.0078125
EXTRACT: note_on channel=3 note=73 velocity=77 time=0.010937500000000001
EXTRACT: note_on channel=11 note=68 velocity=85 time=0
EXTRACT: note_on channel=4 note=61 velocity=77 time=0.004687500000000001
EXTRACT: note_on channel=9 note=35 velocity=115 time=0.0078125
EXTRACT: note_on channel=9 note=36 velocity=115 time=0
EXTRACT: note_on channel=5 note=69 velocity=76 time=0.009375000000000001
EXTRACT: note_on channel=11 note=80 velocity=87 time=0.0015625
EXTRACT: note_on channel=12 note=68 velocity=71 time=0.0015625
EXTRACT: note_on channel=9 note=36 velocity=0 time=0.015625
EXTRACT: note_on channel=9 note=35 velocity=0 time=0
EXTRACT: control_change channel=12 control=10 value=63 time=0.003125
EXTRACT: control_change channel=12 control=10 value=67 time=0.0390625
EXTRACT: control_change channel=12 control=10 value=71 time=0.0390625
EXTRACT: note_on channel=12 note=68 velocity=0 time=0.0234375
EXTRACT: note_on channel=11 note=80 velocity=0 time=0.0078125
EXTRACT: note_on channel=11 note=68 velocity=0 time=0
EXTRACT: note_on channel=12 note=69 velocity=70 time=0.0421875
EXTRACT: control_change channel=12 control=10 value=79 time=0.004687500000000001
EXTRACT: note_on channel=9 note=39 velocity=115 time=0.004687500000000001
EXTRACT: note_on channel=11 note=81 velocity=84 time=0.004687500000000001
EXTRACT: note_on channel=11 note=69 velocity=83 time=0
EXTRACT: note_on channel=9 note=39 velocity=0 time=0.0234375
EXTRACT: control_change channel=12 control=10 value=83 time=0.00625
EXTRACT: control_change channel=12 control=10 value=87 time=0.0390625
EXTRACT: control_change channel=12 control=10 value=91 time=0.0390625
EXTRACT: note_on channel=12 note=69 velocity=0 time=0.015625
EXTRACT: note_on channel=11 note=69 velocity=0 time=0.0078125
EXTRACT: note_on channel=11 note=81 velocity=0 time=0
EXTRACT: note_on channel=5 note=69 velocity=0 time=0.015625
EXTRACT: note_on channel=5 note=64 velocity=75 time=0.037500000000000006
EXTRACT: note_on channel=2 note=59 velocity=0 time=0.15000000000000002
EXTRACT: note_on channel=5 note=64 velocity=0 time=0
EXTRACT: note_on channel=5 note=62 velocity=76 time=0.026562500000000003
EXTRACT: note_on channel=11 note=69 velocity=85 time=0.0078125
EXTRACT: note_on channel=11 note=81 velocity=86 time=0.00625
EXTRACT: note_on channel=12 note=69 velocity=72 time=0
EXTRACT: note_on channel=2 note=57 velocity=60 time=0.0015625
EXTRACT: control_change channel=12 control=10 value=119 time=0.004687500000000001
EXTRACT: control_change channel=12 control=10 value=123 time=0.0390625
EXTRACT: control_change channel=12 control=10 value=121 time=0.0390625
EXTRACT: note_on channel=12 note=69 velocity=0 time=0.0390625
EXTRACT: control_change channel=12 control=10 value=117 time=0
EXTRACT: note_on channel=11 note=81 velocity=0 time=0.0078125
EXTRACT: note_on channel=11 note=69 velocity=0 time=0
EXTRACT: note_on channel=4 note=61 velocity=0 time=0.015625
EXTRACT: note_on channel=5 note=62 velocity=0 time=0
EXTRACT: note_on channel=3 note=73 velocity=0 time=0.0078125
EXTRACT: note_on channel=3 note=76 velocity=85 time=0.0234375
EXTRACT: note_on channel=4 note=52 velocity=85 time=0.00625
EXTRACT: note_on channel=5 note=61 velocity=75 time=0.00625
EXTRACT: note_on channel=2 note=54 velocity=0 time=0.14375000000000002
EXTRACT: note_on channel=4 note=52 velocity=0 time=0
EXTRACT: note_on channel=3 note=76 velocity=0 time=0.0078125
EXTRACT: note_on channel=11 note=69 velocity=83 time=0.010937500000000001
EXTRACT: note_on channel=3 note=81 velocity=85 time=0.0078125
EXTRACT: note_on channel=4 note=57 velocity=88 time=0.0015625
EXTRACT: note_on channel=12 note=69 velocity=70 time=0
EXTRACT: note_on channel=9 note=36 velocity=115 time=0.003125
EXTRACT: note_on channel=11 note=81 velocity=84 time=0.004687500000000001
EXTRACT: note_on channel=2 note=54 velocity=87 time=0.00625
EXTRACT: note_on channel=9 note=36 velocity=0 time=0.0171875
EXTRACT: control_change channel=12 control=10 value=89 time=0.003125
EXTRACT: control_change channel=12 control=10 value=85 time=0.0390625
EXTRACT: control_change channel=12 control=10 value=81 time=0.0390625
EXTRACT: note_on channel=12 note=69 velocity=0 time=0.0234375
EXTRACT: note_on channel=11 note=81 velocity=0 time=0.0078125
EXTRACT: note_on channel=11 note=69 velocity=0 time=0
EXTRACT: note_on channel=4 note=57 velocity=0 time=0.015625
EXTRACT: note_on channel=3 note=81 velocity=0 time=0.0078125
EXTRACT: note_on channel=4 note=57 velocity=76 time=0.010937500000000001
EXTRACT: note_on channel=3 note=81 velocity=74 time=0.0015625
EXTRACT: note_on channel=3 note=81 velocity=0 time=0.0890625
EXTRACT: note_on channel=4 note=57 velocity=0 time=0.078125
EXTRACT: note_on channel=3 note=81 velocity=77 time=0.026562500000000003
EXTRACT: note_on channel=4 note=57 velocity=79 time=0.0015625
EXTRACT: note_on channel=12 note=69 velocity=70 time=0
EXTRACT: control_change channel=12 control=10 value=53 time=0.010937500000000001
EXTRACT: note_on channel=11 note=69 velocity=87 time=0.0015625
EXTRACT: note_on channel=11 note=81 velocity=86 time=0
EXTRACT: control_change channel=12 control=10 value=49 time=0.037500000000000006
EXTRACT: control_change channel=12 control=10 value=45 time=0.0390625
EXTRACT: control_change channel=12 control=10 value=41 time=0.0390625
EXTRACT: note_on channel=12 note=69 velocity=0 time=0.0078125
EXTRACT: note_on channel=11 note=81 velocity=0 time=0.0078125
EXTRACT: note_on channel=11 note=69 velocity=0 time=0
EXTRACT: note_on channel=4 note=57 velocity=0 time=0.015625
EXTRACT: note_on channel=5 note=61 velocity=0 time=0
EXTRACT: note_on channel=3 note=81 velocity=0 time=0.0078125
EXTRACT: note_on channel=9 note=36 velocity=115 time=0.0234375
EXTRACT: note_on channel=9 note=36 velocity=0 time=0.028125
EXTRACT: note_on channel=9 note=39 velocity=116 time=0.1484375
EXTRACT: note_on channel=3 note=81 velocity=93 time=0.003125
EXTRACT: note_on channel=11 note=69 velocity=87 time=0
EXTRACT: note_on channel=2 note=50 velocity=91 time=0.0015625
EXTRACT: note_on channel=11 note=81 velocity=84 time=0.004687500000000001
EXTRACT: note_on channel=4 note=57 velocity=90 time=0.004687500000000001
EXTRACT: note_on channel=12 note=69 velocity=72 time=0.004687500000000001
EXTRACT: note_on channel=9 note=39 velocity=0 time=0.009375000000000001
EXTRACT: control_change channel=12 control=10 value=15 time=0.00625
EXTRACT: control_change channel=12 control=10 value=19 time=0.0390625
EXTRACT: control_change channel=12 control=10 value=23 time=0.0390625
EXTRACT: note_on channel=12 note=69 velocity=0 time=0.03125
EXTRACT: note_on channel=11 note=81 velocity=0 time=0.0078125
EXTRACT: note_on channel=11 note=69 velocity=0 time=0
EXTRACT: control_change channel=12 control=10 value=27 time=0
EXTRACT: control_change channel=12 control=10 value=31 time=0.0390625
EXTRACT: note_on channel=12 note=71 velocity=70 time=0.0015625
EXTRACT: note_on channel=9 note=35 velocity=115 time=0.00625
EXTRACT: note_on channel=9 note=36 velocity=115 time=0
EXTRACT: note_on channel=11 note=83 velocity=84 time=0.003125
EXTRACT: note_on channel=11 note=71 velocity=84 time=0.0015625
EXTRACT: note_on channel=9 note=36 velocity=0 time=0.0234375
EXTRACT: note_on channel=9 note=35 velocity=0 time=0
EXTRACT: control_change channel=12 control=10 value=35 time=0.003125
EXTRACT: control_change channel=12 control=10 value=39 time=0.0390625
EXTRACT: control_change channel=12 control=10 value=43 time=0.0390625
EXTRACT: note_on channel=12 note=71 velocity=0 time=0.0234375
EXTRACT: note_on channel=11 note=71 velocity=0 time=0.0078125
EXTRACT: note_on channel=11 note=83 velocity=0 time=0
EXTRACT: note_on channel=2 note=38 velocity=0 time=0.015625
EXTRACT: note_on channel=4 note=57 velocity=0 time=0
EXTRACT: note_on channel=3 note=81 velocity=0 time=0.0078125
EXTRACT: note_on channel=11 note=85 velocity=86 time=0.015625
EXTRACT: note_on channel=2 note=38 velocity=76 time=0.004687500000000001
EXTRACT: note_on channel=4 note=56 velocity=79 time=0.003125
EXTRACT: note_on channel=9 note=35 velocity=115 time=0
EXTRACT: note_on channel=9 note=36 velocity=115 time=0
EXTRACT: note_on channel=12 note=73 velocity=68 time=0.00625
EXTRACT: note_on channel=11 note=73 velocity=86 time=0.0015625
EXTRACT: note_on channel=3 note=80 velocity=75 time=0.003125
EXTRACT: note_on channel=9 note=36 velocity=0 time=0.0171875
EXTRACT: note_on channel=9 note=35 velocity=0 time=0
EXTRACT: control_change channel=12 control=10 value=55 time=0.010937500000000001
EXTRACT: control_change channel=12 control=10 value=59 time=0.0390625
EXTRACT: control_change channel=12 control=10 value=63 time=0.0390625
EXTRACT: note_on channel=12 note=73 velocity=0 time=0.015625
EXTRACT: note_on channel=11 note=73 velocity=0 time=0.0078125
EXTRACT: note_on channel=11 note=85 velocity=0 time=0
EXTRACT: note_on channel=4 note=56 velocity=0 time=0.015625
EXTRACT: note_on channel=3 note=80 velocity=0 time=0.0078125
EXTRACT: note_on channel=4 note=57 velocity=78 time=0.010937500000000001
EXTRACT: note_on channel=11 note=83 velocity=84 time=0
EXTRACT: note_on channel=3 note=81 velocity=78 time=0.0078125
EXTRACT: note_on channel=12 note=71 velocity=72 time=0
EXTRACT: note_on channel=9 note=35 velocity=115 time=0.004687500000000001
EXTRACT: note_on channel=9 note=36 velocity=115 time=0
EXTRACT: note_on channel=11 note=71 velocity=86 time=0.003125
EXTRACT: control_change channel=12 control=10 value=71 time=0.004687500000000001
EXTRACT: note_on channel=9 note=36 velocity=0 time=0.0203125
EXTRACT: note_on channel=9 note=35 velocity=0 time=0
EXTRACT: control_change channel=12 control=10 value=75 time=0.018750000000000003
EXTRACT: control_change channel=12 control=10 value=79 time=0.0390625
EXTRACT: control_change channel=12 control=10 value=83 time=0.0390625
EXTRACT: note_on channel=12 note=71 velocity=0 time=0.0078125
EXTRACT: note_on channel=11 note=71 velocity=0 time=0.0078125
EXTRACT: note_on channel=11 note=83 velocity=0 time=0
EXTRACT: note_on channel=1 note=38 velocity=0 time=0.0078125
EXTRACT: note_on channel=2 note=38 velocity=0 time=0.0078125
EXTRACT: note_on channel=2 note=50 velocity=0 time=0
EXTRACT: note_on channel=2 note=57 velocity=0 time=0
EXTRACT: note_on channel=2 note=62 velocity=0 time=0
EXTRACT: note_on channel=2 note=54 velocity=0 time=0
EXTRACT: note_on channel=6 note=54 velocity=0 time=0
EXTRACT: note_on channel=7 note=66 velocity=0 time=0
EXTRACT: note_on channel=7 note=50 velocity=0 time=0
EXTRACT: note_on channel=7 note=62 velocity=0 time=0
EXTRACT: note_on channel=8 note=54 velocity=0 time=0
EXTRACT: note_on channel=8 note=57 velocity=0 time=0
EXTRACT: note_on channel=8 note=38 velocity=0 time=0
EXTRACT: note_on channel=8 note=50 velocity=0 time=0
EXTRACT: note_on channel=2 note=57 velocity=93 time=0.018750000000000003
EXTRACT: note_on channel=8 note=52 velocity=59 time=0.003125
EXTRACT: note_on channel=6 note=57 velocity=75 time=0.004687500000000001
EXTRACT: note_on channel=2 note=45 velocity=89 time=0.0015625
EXTRACT: note_on channel=7 note=57 velocity=59 time=0
EXTRACT: note_on channel=1 note=33 velocity=77 time=0.0015625
EXTRACT: note_on channel=2 note=52 velocity=89 time=0.0015625
EXTRACT: note_on channel=9 note=35 velocity=115 time=0
EXTRACT: note_on channel=9 note=36 velocity=115 time=0
EXTRACT: note_on channel=10 note=60 velocity=115 time=0
EXTRACT: note_on channel=11 note=69 velocity=84 time=0
EXTRACT: note_on channel=7 note=73 velocity=59 time=0.003125
EXTRACT: note_on channel=8 note=57 velocity=62 time=0
EXTRACT: note_on channel=2 note=61 velocity=93 time=0.0015625
EXTRACT: note_on channel=12 note=69 velocity=68 time=0
EXTRACT: note_on channel=7 note=69 velocity=62 time=0.0015625
EXTRACT: note_on channel=8 note=45 velocity=60 time=0.003125
EXTRACT: note_on channel=11 note=81 velocity=83 time=0
EXTRACT: note_on channel=8 note=61 velocity=58 time=0.003125
EXTRACT: control_change channel=12 control=10 value=91 time=0.003125
EXTRACT: note_on channel=9 note=36 velocity=0 time=0.0125
EXTRACT: note_on channel=9 note=35 velocity=0 time=0
EXTRACT: note_on channel=10 note=60 velocity=0 time=0
EXTRACT: control_change channel=12 control=10 value=95 time=0.026562500000000003
EXTRACT: control_change channel=12 control=10 value=99 time=0.0390625
EXTRACT: note_on channel=12 note=69 velocity=0 time=0.0390625
EXTRACT: control_change channel=12 control=10 value=103 time=0
EXTRACT: note_on channel=11 note=81 velocity=0 time=0.0078125
EXTRACT: note_on channel=11 note=69 velocity=0 time=0
EXTRACT: note_on channel=11 note=69 velocity=86 time=0.22968750000000002
EXTRACT: note_on channel=5 note=68 velocity=76 time=0.0015625
EXTRACT: note_on channel=11 note=81 velocity=84 time=0.004687500000000001
EXTRACT: note_on channel=12 note=69 velocity=69 time=0.0078125
EXTRACT: control_change channel=12 control=10 value=117 time=0.021875000000000002
EXTRACT: control_change channel=12 control=10 value=113 time=0.0390625
EXTRACT: control_change channel=12 control=10 value=109 time=0.0390625
EXTRACT: note_on channel=12 note=69 velocity=0 time=0.0234375
EXTRACT: note_on channel=11 note=81 velocity=0 time=0.0078125
EXTRACT: note_on channel=11 note=69 velocity=0 time=0
EXTRACT: note_on channel=2 note=52 velocity=0 time=0.015625
EXTRACT: note_on channel=5 note=68 velocity=0 time=0
EXTRACT: note_on channel=5 note=69 velocity=80 time=0.021875000000000002
EXTRACT: note_on channel=11 note=71 velocity=83 time=0
EXTRACT: note_on channel=12 note=71 velocity=68 time=0
EXTRACT: note_on channel=11 note=83 velocity=86 time=0.0015625
EXTRACT: control_change channel=12 control=10 value=101 time=0.0078125
EXTRACT: note_on channel=2 note=52 velocity=76 time=0.010937500000000001
EXTRACT: control_change channel=12 control=10 value=97 time=0.028125
EXTRACT: control_change channel=12 control=10 value=93 time=0.0390625
EXTRACT: control_change channel=12 control=10 value=89 time=0.0390625
EXTRACT: note_on channel=12 note=71 velocity=0 time=0.015625
EXTRACT: note_on channel=11 note=83 velocity=0 time=0.0078125
EXTRACT: note_on channel=11 note=71 velocity=0 time=0
EXTRACT: note_on channel=2 note=61 velocity=0 time=0.015625
EXTRACT: note_on channel=2 note=57 velocity=0 time=0
EXTRACT: note_on channel=12 note=73 velocity=68 time=0.028125
EXTRACT: note_on channel=9 note=39 velocity=115 time=0.0015625
EXTRACT: note_on channel=11 note=73 velocity=83 time=0.004687500000000001
EXTRACT: note_on channel=2 note=57 velocity=88 time=0.0015625
EXTRACT: note_on channel=11 note=85 velocity=84 time=0
EXTRACT: control_change channel=12 control=10 value=81 time=0.003125
EXTRACT: note_on channel=2 note=61 velocity=86 time=0.004687500000000001
EXTRACT: note_on channel=9 note=39 velocity=0 time=0.0140625
EXTRACT: control_change channel=12 control=10 value=77 time=0.0203125
EXTRACT: control_change channel=12 control=10 value=73 time=0.0390625
EXTRACT: control_change channel=12 control=10 value=69 time=0.0390625
EXTRACT: note_on channel=12 note=73 velocity=0 time=0.0078125
EXTRACT: note_on channel=11 note=85 velocity=0 time=0.0078125
EXTRACT: note_on channel=11 note=73 velocity=0 time=0
EXTRACT: note_on channel=4 note=57 velocity=0 time=0.015625
EXTRACT: note_on channel=3 note=81 velocity=0 time=0.0078125
EXTRACT: note_on channel=2 note=52 velocity=0 time=0.1796875
EXTRACT: note_on channel=12 note=73 velocity=69 time=0.018750000000000003
EXTRACT: note_on channel=11 note=85 velocity=83 time=0.0125
EXTRACT: note_on channel=2 note=52 velocity=79 time=0.004687500000000001
EXTRACT: note_on channel=11 note=73 velocity=83 time=0.00625
EXTRACT: control_change channel=12 control=10 value=41 time=0.0125
EXTRACT: control_change channel=12 control=10 value=37 time=0.0390625
EXTRACT: control_change channel=12 control=10 value=33 time=0.0390625
EXTRACT: note_on channel=12 note=73 velocity=0 time=0.03125
EXTRACT: note_on channel=11 note=73 velocity=0 time=0.0078125
EXTRACT: note_on channel=11 note=85 velocity=0 time=0
EXTRACT: control_change channel=12 control=10 value=29 time=0
EXTRACT: note_on channel=3 note=76 velocity=83 time=0.037500000000000006
EXTRACT: note_on channel=4 note=52 velocity=85 time=0
EXTRACT: note_on channel=2 note=61 velocity=0 time=0.16562500000000002
EXTRACT: note_on channel=2 note=57 velocity=0 time=0
EXTRACT: note_on channel=4 note=52 velocity=0 time=0
EXTRACT: note_on channel=3 note=76 velocity=0 time=0.0078125
EXTRACT: note_on channel=11 note=73 velocity=86 time=0.0171875
EXTRACT: note_on channel=9 note=36 velocity=115 time=0.00625
EXTRACT: control_change channel=12 control=10 value=23 time=0
EXTRACT: note_on channel=11 note=85 velocity=86 time=0.003125
EXTRACT: note_on channel=12 note=73 velocity=69 time=0
EXTRACT: note_on channel=2 note=57 velocity=86 time=0.0015625
EXTRACT: note_on channel=3 note=81 velocity=88 time=0
EXTRACT: note_on channel=4 note=57 velocity=86 time=0
EXTRACT: note_on channel=2 note=61 velocity=89 time=0.0015625
EXTRACT: note_on channel=9 note=36 velocity=0 time=0.021875000000000002
EXTRACT: control_change channel=12 control=10 value=27 time=0.010937500000000001
EXTRACT: control_change channel=12 control=10 value=31 time=0.0390625
EXTRACT: control_change channel=12 control=10 value=35 time=0.0390625
EXTRACT: note_on channel=12 note=73 velocity=0 time=0.015625
EXTRACT: note_on channel=11 note=85 velocity=0 time=0.0078125
EXTRACT: note_on channel=11 note=73 velocity=0 time=0
EXTRACT: note_on channel=4 note=57 velocity=0 time=0.015625
EXTRACT: note_on channel=5 note=69 velocity=0 time=0
EXTRACT: note_on channel=3 note=81 velocity=0 time=0.0078125
EXTRACT: note_on channel=3 note=81 velocity=76 time=0.028125
EXTRACT: note_on channel=4 note=57 velocity=74 time=0
EXTRACT: note_on channel=3 note=81 velocity=0 time=0.0734375
EXTRACT: note_on channel=4 note=57 velocity=0 time=0.078125
EXTRACT: note_on channel=9 note=35 velocity=115 time=0.03125
EXTRACT: note_on channel=9 note=36 velocity=115 time=0
EXTRACT: note_on channel=12 note=73 velocity=71 time=0
EXTRACT: note_on channel=11 note=73 velocity=86 time=0.003125
EXTRACT: note_on channel=11 note=85 velocity=83 time=0.0015625
EXTRACT: note_on channel=3 note=81 velocity=76 time=0.003125
EXTRACT: note_on channel=4 note=57 velocity=79 time=0
EXTRACT: control_change channel=12 control=10 value=63 time=0.0078125
EXTRACT: note_on channel=9 note=36 velocity=0 time=0.0125
EXTRACT: note_on channel=9 note=35 velocity=0 time=0
EXTRACT: control_change channel=12 control=10 value=67 time=0.026562500000000003
EXTRACT: note_on channel=3 note=81 velocity=0 time=0.0234375
EXTRACT: control_change channel=12 control=10 value=71 time=0.015625
EXTRACT: note_on channel=12 note=73 velocity=0 time=0.0390625
EXTRACT: control_change channel=12 control=10 value=75 time=0
EXTRACT: note_on channel=11 note=85 velocity=0 time=0.0078125
EXTRACT: note_on channel=11 note=73 velocity=0 time=0
EXTRACT: note_on channel=4 note=57 velocity=0 time=0.015625
EXTRACT: note_on channel=3 note=81 velocity=77 time=0.0234375
EXTRACT: note_on channel=4 note=57 velocity=78 time=0.003125
EXTRACT: note_on channel=3 note=81 velocity=0 time=0.08281250000000001
EXTRACT: note_on channel=2 note=52 velocity=0 time=0.078125
EXTRACT: note_on channel=4 note=57 velocity=0 time=0
EXTRACT: note_on channel=4 note=57 velocity=87 time=0.0203125
EXTRACT: note_on channel=12 note=73 velocity=70 time=0
EXTRACT: control_change channel=12 control=10 value=99 time=0.003125
EXTRACT: note_on channel=2 note=52 velocity=84 time=0.00625
EXTRACT: note_on channel=9 note=39 velocity=116 time=0.0015625
EXTRACT: note_on channel=3 note=81 velocity=87 time=0.009375000000000001
EXTRACT: note_on channel=11 note=73 velocity=85 time=0.0015625
EXTRACT: note_on channel=11 note=85 velocity=83 time=0.0015625
EXTRACT: note_on channel=9 note=39 velocity=0 time=0.015625
EXTRACT: control_change channel=12 control=10 value=103 time=0.003125
EXTRACT: control_change channel=12 control=10 value=107 time=0.0390625
EXTRACT: control_change channel=12 control=10 value=111 time=0.0390625
EXTRACT: note_on channel=12 note=73 velocity=0 time=0.0234375
EXTRACT: note_on channel=11 note=85 velocity=0 time=0.0078125
EXTRACT: note_on channel=11 note=73 velocity=0 time=0
EXTRACT: note_on channel=9 note=35 velocity=115 time=0.046875
EXTRACT: note_on channel=9 note=36 velocity=115 time=0
EXTRACT: note_on channel=9 note=36 velocity=0 time=0.028125
EXTRACT: note_on channel=9 note=35 velocity=0 time=0
EXTRACT: note_on channel=2 note=57 velocity=0 time=0.12812500000000002
EXTRACT: note_on channel=4 note=57 velocity=0 time=0
EXTRACT: note_on channel=3 note=81 velocity=0 time=0.0078125
EXTRACT: note_on channel=2 note=57 velocity=80 time=0.0140625
EXTRACT: note_on channel=11 note=71 velocity=86 time=0.00625
EXTRACT: note_on channel=3 note=81 velocity=77 time=0.00625
EXTRACT: note_on channel=12 note=71 velocity=72 time=0
EXTRACT: note_on channel=4 note=57 velocity=80 time=0.004687500000000001
EXTRACT: control_change channel=12 control=10 value=109 time=0
EXTRACT: note_on channel=11 note=83 velocity=86 time=0.0015625
EXTRACT: control_change channel=12 control=10 value=105 time=0.037500000000000006
EXTRACT: note_on channel=3 note=81 velocity=0 time=0.03125
EXTRACT: control_change channel=12 control=10 value=101 time=0.0078125
EXTRACT: control_change channel=12 control=10 value=97 time=0.0390625
EXTRACT: note_on channel=12 note=71 velocity=0 time=0.0078125
EXTRACT: note_on channel=11 note=83 velocity=0 time=0.0078125
EXTRACT: note_on channel=11 note=71 velocity=0 time=0
EXTRACT: note_on channel=4 note=57 velocity=0 time=0.015625
EXTRACT: note_on channel=11 note=73 velocity=84 time=0.0328125
EXTRACT: note_on channel=12 note=73 velocity=69 time=0.003125
EXTRACT: note_on channel=3 note=83 velocity=78 time=0.0015625
EXTRACT: note_on channel=4 note=59 velocity=79 time=0.0015625
EXTRACT: note_on channel=11 note=85 velocity=83 time=0.004687500000000001
EXTRACT: control_change channel=12 control=10 value=89 time=0.003125
EXTRACT: control_change channel=12 control=10 value=85 time=0.0390625
EXTRACT: control_change channel=12 control=10 value=81 time=0.0390625
EXTRACT: note_on channel=12 note=73 velocity=0 time=0.0390625
EXTRACT: control_change channel=12 control=10 value=77 time=0
EXTRACT: note_on channel=11 note=85 velocity=0 time=0.0078125
EXTRACT: note_on channel=11 note=73 velocity=0 time=0
EXTRACT: note_on channel=1 note=33 velocity=0 time=0.0078125
EXTRACT: note_on channel=2 note=57 velocity=0 time=0.0078125
EXTRACT: note_on channel=2 note=52 velocity=0 time=0
EXTRACT: note_on channel=2 note=45 velocity=0 time=0
EXTRACT: note_on channel=2 note=61 velocity=0 time=0
EXTRACT: note_on channel=6 note=57 velocity=0 time=0
EXTRACT: note_on channel=7 note=69 velocity=0 time=0
EXTRACT: note_on channel=7 note=73 velocity=0 time=0
EXTRACT: note_on channel=7 note=57 velocity=0 time=0
EXTRACT: note_on channel=8 note=61 velocity=0 time=0
EXTRACT: note_on channel=8 note=52 velocity=0 time=0
EXTRACT: note_on channel=8 note=57 velocity=0 time=0
EXTRACT: note_on channel=8 note=45 velocity=0 time=0
EXTRACT: note_on channel=2 note=47 velocity=90 time=0.0203125
EXTRACT: note_on channel=7 note=74 velocity=58 time=0
EXTRACT: note_on channel=8 note=50 velocity=61 time=0.0015625
EXTRACT: note_on channel=8 note=47 velocity=60 time=0.003125
EXTRACT: note_on channel=6 note=59 velocity=73 time=0.0015625
EXTRACT: note_on channel=2 note=54 velocity=93 time=0.0015625
EXTRACT: note_on channel=11 note=71 velocity=83 time=0
EXTRACT: note_on channel=9 note=35 velocity=115 time=0.003125
EXTRACT: note_on channel=9 note=36 velocity=115 time=0
EXTRACT: note_on channel=12 note=71 velocity=70 time=0
EXTRACT: note_on channel=7 note=71 velocity=60 time=0.003125
EXTRACT: note_on channel=8 note=54 velocity=61 time=0
EXTRACT: note_on channel=7 note=59 velocity=62 time=0.0015625
EXTRACT: note_on channel=11 note=83 velocity=84 time=0
EXTRACT: note_on channel=1 note=35 velocity=77 time=0.003125
EXTRACT: note_on channel=8 note=59 velocity=60 time=0.0015625
EXTRACT: note_on channel=2 note=59 velocity=90 time=0.003125
EXTRACT: note_on channel=2 note=62 velocity=90 time=0
EXTRACT: control_change channel=12 control=10 value=69 time=0.010937500000000001
EXTRACT: note_on channel=9 note=36 velocity=0 time=0.004687500000000001
EXTRACT: note_on channel=9 note=35 velocity=0 time=0
EXTRACT: control_change channel=12 control=10 value=65 time=0.034375
EXTRACT: control_change channel=12 control=10 value=61 time=0.0390625
EXTRACT: note_on channel=12 note=71 velocity=0 time=0.03125
EXTRACT: note_on channel=11 note=83 velocity=0 time=0.0078125
EXTRACT: note_on channel=11 note=71 velocity=0 time=0
EXTRACT: control_change channel=12 control=10 value=57 time=0
EXTRACT: note_on channel=12 note=71 velocity=72 time=0.0421875
EXTRACT: control_change channel=12 control=10 value=49 time=0.035937500000000004
EXTRACT: control_change channel=12 control=10 value=45 time=0.0390625
EXTRACT: control_change channel=12 control=10 value=41 time=0.0390625
EXTRACT: note_on channel=12 note=71 velocity=0 time=0.0234375
EXTRACT: note_on channel=12 note=71 velocity=69 time=0.0421875
EXTRACT: note_on channel=11 note=71 velocity=85 time=0.00625
EXTRACT: note_on channel=11 note=83 velocity=84 time=0.003125
EXTRACT: control_change channel=12 control=10 value=33 time=0.003125
EXTRACT: note_on channel=5 note=69 velocity=78 time=0.0015625
EXTRACT: control_change channel=12 control=10 value=29 time=0.037500000000000006
EXTRACT: control_change channel=12 control=10 value=25 time=0.0390625
EXTRACT: control_change channel=12 control=10 value=21 time=0.0390625
EXTRACT: note_on channel=12 note=71 velocity=0 time=0.015625
EXTRACT: note_on channel=11 note=83 velocity=0 time=0.0078125
EXTRACT: note_on channel=11 note=71 velocity=0 time=0
EXTRACT: note_on channel=2 note=54 velocity=0 time=0.015625
EXTRACT: note_on channel=5 note=69 velocity=0 time=0
EXTRACT: note_on channel=2 note=54 velocity=75 time=0.026562500000000003
EXTRACT: note_on channel=12 note=73 velocity=69 time=0.0015625
EXTRACT: note_on channel=11 note=73 velocity=85 time=0.0015625
EXTRACT: note_on channel=9 note=35 velocity=115 time=0.0015625
EXTRACT: note_on channel=9 note=36 velocity=115 time=0
EXTRACT: note_on channel=5 note=71 velocity=77 time=0.003125
EXTRACT: control_change channel=12 control=10 value=15 time=0.004687500000000001
EXTRACT: note_on channel=11 note=85 velocity=86 time=0.004687500000000001
EXTRACT: note_on channel=9 note=36 velocity=0 time=0.015625
EXTRACT: note_on channel=9 note=35 velocity=0 time=0
EXTRACT: control_change channel=12 control=10 value=19 time=0.018750000000000003
EXTRACT: control_change channel=12 control=10 value=23 time=0.0390625
EXTRACT: control_change channel=12 control=10 value=27 time=0.0390625
EXTRACT: note_on channel=12 note=73 velocity=0 time=0.0078125
EXTRACT: note_on channel=11 note=85 velocity=0 time=0.0078125
EXTRACT: note_on channel=11 note=73 velocity=0 time=0
EXTRACT: note_on channel=2 note=62 velocity=0 time=0.015625
EXTRACT: note_on channel=2 note=59 velocity=0 time=0
EXTRACT: note_on channel=4 note=59 velocity=0 time=0
EXTRACT: note_on channel=3 note=83 velocity=0 time=0.0078125
EXTRACT: note_on channel=2 note=59 velocity=90 time=0.018750000000000003
EXTRACT: note_on channel=12 note=74 velocity=71 time=0.0015625
EXTRACT: note_on channel=2 note=62 velocity=87 time=0.003125
EXTRACT: note_on channel=9 note=39 velocity=115 time=0.0015625
EXTRACT: note_on channel=11 note=74 velocity=85 time=0.0015625
EXTRACT: note_on channel=11 note=86 velocity=87 time=0.003125
EXTRACT: control_change channel=12 control=10 value=35 time=0.009375000000000001
EXTRACT: note_on channel=9 note=39 velocity=0 time=0.0140625
EXTRACT: control_change channel=12 control=10 value=39 time=0.025
EXTRACT: control_change channel=12 control=10 value=43 time=0.0390625
EXTRACT: note_on channel=12 note=74 velocity=0 time=0.0390625
EXTRACT: control_change channel=12 control=10 value=47 time=0
EXTRACT: note_on channel=11 note=86 velocity=0 time=0.0078125
EXTRACT: note_on channel=11 note=74 velocity=0 time=0
EXTRACT: note_on channel=12 note=74 velocity=71 time=0.0421875
EXTRACT: control_change channel=12 control=10 value=55 time=0.028125
EXTRACT: control_change channel=12 control=10 value=59 time=0.0390625
EXTRACT: control_change channel=12 control=10 value=63 time=0.0390625
EXTRACT: note_on channel=12 note=74 velocity=0 time=0.03125
EXTRACT: control_change channel=12 control=10 value=67 time=0.0078125
EXTRACT: note_on channel=2 note=62 velocity=0 time=0.015625
EXTRACT: note_on channel=2 note=59 velocity=0 time=0
EXTRACT: note_on channel=12 note=74 velocity=70 time=0.018750000000000003
EXTRACT: control_change channel=12 control=10 value=71 time=0.004687500000000001
EXTRACT: note_on channel=2 note=62 velocity=78 time=0.010937500000000001
EXTRACT: note_on channel=11 note=74 velocity=83 time=0
EXTRACT: note_on channel=11 note=86 velocity=86 time=0
EXTRACT: note_on channel=2 note=59 velocity=82 time=0.0015625
EXTRACT: control_change channel=12 control=10 value=75 time=0.026562500000000003
EXTRACT: control_change channel=12 control=10 value=79 time=0.0390625
EXTRACT: control_change channel=12 control=10 value=83 time=0.0390625
EXTRACT: note_on channel=12 note=74 velocity=0 time=0.0234375
EXTRACT: note_on channel=11 note=86 velocity=0 time=0.0078125
EXTRACT: note_on channel=11 note=74 velocity=0 time=0
EXTRACT: note_on channel=3 note=81 velocity=87 time=0.035937500000000004
EXTRACT: note_on channel=4 note=57 velocity=85 time=0.0015625
EXTRACT: note_on channel=3 note=81 velocity=0 time=0.08750000000000001
EXTRACT: note_on channel=2 note=59 velocity=0 time=0.078125
EXTRACT: note_on channel=2 note=54 velocity=0 time=0
EXTRACT: note_on channel=2 note=47 velocity=0 time=0
EXTRACT: note_on channel=2 note=62 velocity=0 time=0
EXTRACT: note_on channel=4 note=57 velocity=0 time=0
EXTRACT: note_on channel=5 note=71 velocity=0 time=0
EXTRACT: note_on channel=11 note=86 velocity=84 time=0.025
EXTRACT: note_on channel=2 note=62 velocity=85 time=0.003125
EXTRACT: note_on channel=9 note=36 velocity=115 time=0.003125
EXTRACT: note_on channel=11 note=74 velocity=87 time=0.003125
EXTRACT: note_on channel=12 note=74 velocity=70 time=0
EXTRACT: note_on channel=2 note=54 velocity=87 time=0.0015625
EXTRACT: note_on channel=2 note=59 velocity=84 time=0
EXTRACT: note_on channel=3 note=83 velocity=88 time=0
EXTRACT: note_on channel=4 note=59 velocity=88 time=0.003125
EXTRACT: control_change channel=12 control=10 value=111 time=0
EXTRACT: note_on channel=2 note=47 velocity=84 time=0.003125
EXTRACT: note_on channel=9 note=36 velocity=0 time=0.0171875
EXTRACT: control_change channel=12 control=10 value=115 time=0.018750000000000003
EXTRACT: control_change channel=12 control=10 value=119 time=0.0390625
EXTRACT: control_change channel=12 control=10 value=123 time=0.0390625
EXTRACT: note_on channel=12 note=74 velocity=0 time=0.0078125
EXTRACT: note_on channel=11 note=74 velocity=0 time=0.0078125
EXTRACT: note_on channel=11 note=86 velocity=0 time=0
EXTRACT: note_on channel=4 note=59 velocity=0 time=0.015625
EXTRACT: note_on channel=3 note=83 velocity=0 time=0.0078125
EXTRACT: note_on channel=4 note=57 velocity=75 time=0.018750000000000003
EXTRACT: note_on channel=3 note=81 velocity=75 time=0.0078125
EXTRACT: note_on channel=12 note=74 velocity=72 time=0.0078125
EXTRACT: control_change channel=12 control=10 value=117 time=0.004687500000000001
EXTRACT: control_change channel=12 control=10 value=113 time=0.0390625
EXTRACT: note_on channel=3 note=81 velocity=0 time=0.0234375
EXTRACT: control_change channel=12 control=10 value=109 time=0.015625
EXTRACT: note_on channel=12 note=74 velocity=0 time=0.0390625
EXTRACT: control_change channel=12 control=10 value=105 time=0
EXTRACT: note_on channel=4 note=57 velocity=0 time=0.0234375
EXTRACT: note_on channel=3 note=83 velocity=77 time=0.0203125
EXTRACT: note_on channel=4 note=59 velocity=80 time=0.0015625
EXTRACT: note_on channel=12 note=74 velocity=68 time=0.0015625
EXTRACT: note_on channel=11 note=86 velocity=84 time=0.003125
EXTRACT: note_on channel=11 note=74 velocity=83 time=0.0078125
EXTRACT: control_change channel=12 control=10 value=97 time=0.0203125
EXTRACT: control_change channel=12 control=10 value=93 time=0.0390625
EXTRACT: control_change channel=12 control=10 value=89 time=0.0390625
EXTRACT: note_on channel=12 note=74 velocity=0 time=0.03125
EXTRACT: note_on channel=11 note=74 velocity=0 time=0.0078125
EXTRACT: note_on channel=11 note=86 velocity=0 time=0
EXTRACT: control_change channel=12 control=10 value=85 time=0
EXTRACT: note_on channel=4 note=59 velocity=0 time=0.015625
EXTRACT: note_on channel=3 note=83 velocity=0 time=0.0078125
EXTRACT: note_on channel=3 note=81 velocity=80 time=0.0171875
EXTRACT: note_on channel=12 note=74 velocity=68 time=0.003125
EXTRACT: note_on channel=9 note=36 velocity=115 time=0.003125
EXTRACT: note_on channel=4 note=57 velocity=77 time=0.003125
EXTRACT: note_on channel=9 note=36 velocity=0 time=0.025
EXTRACT: control_change channel=12 control=10 value=77 time=0.003125
EXTRACT: control_change channel=12 control=10 value=73 time=0.0390625
EXTRACT: note_on channel=3 note=81 velocity=0 time=0.0078125
EXTRACT: control_change channel=12 control=10 value=69 time=0.03125
EXTRACT: note_on channel=12 note=74 velocity=0 time=0.0234375
EXTRACT: note_on channel=4 note=57 velocity=0 time=0.0234375
EXTRACT: note_on channel=9 note=39 velocity=113 time=0.026562500000000003
EXTRACT: note_on channel=11 note=86 velocity=83 time=0.0015625
EXTRACT: note_on channel=3 note=85 velocity=91 time=0.0015625
EXTRACT: note_on channel=11 note=74 velocity=87 time=0.004687500000000001
EXTRACT: note_on channel=4 note=61 velocity=92 time=0.00625
EXTRACT: note_on channel=9 note=39 velocity=0 time=0.0140625
EXTRACT: note_on channel=11 note=74 velocity=0 time=0.1171875
EXTRACT: note_on channel=11 note=86 velocity=0 time=0
EXTRACT: note_on channel=4 note=61 velocity=0 time=0.015625
EXTRACT: note_on channel=3 note=85 velocity=0 time=0.0078125
EXTRACT: note_on channel=3 note=83 velocity=73 time=0.021875000000000002
EXTRACT: note_on channel=9 note=35 velocity=115 time=0.0015625
EXTRACT: note_on channel=9 note=36 velocity=115 time=0
EXTRACT: note_on channel=10 note=60 velocity=115 time=0
EXTRACT: note_on channel=4 note=59 velocity=71 time=0.004687500000000001
EXTRACT: note_on channel=9 note=36 velocity=0 time=0.0234375
EXTRACT: note_on channel=9 note=35 velocity=0 time=0
EXTRACT: note_on channel=10 note=60 velocity=0 time=0
EXTRACT: note_on channel=2 note=62 velocity=0 time=0.12812500000000002
EXTRACT: note_on channel=4 note=59 velocity=0 time=0
EXTRACT: note_on channel=3 note=83 velocity=0 time=0.0078125
EXTRACT: note_on channel=4 note=57 velocity=75 time=0.0140625
EXTRACT: note_on channel=9 note=35 velocity=115 time=0.009375000000000001
EXTRACT: note_on channel=9 note=36 velocity=115 time=0
EXTRACT: note_on channel=10 note=60 velocity=115 time=0
EXTRACT: note_on channel=2 note=62 velocity=75 time=0.004687500000000001
EXTRACT: note_on channel=3 note=81 velocity=79 time=0
EXTRACT: note_on channel=11 note=85 velocity=86 time=0.0015625
EXTRACT: note_on channel=11 note=73 velocity=85 time=0.0015625
EXTRACT: note_on channel=12 note=73 velocity=69 time=0.0015625
EXTRACT: control_change channel=12 control=10 value=21 time=0.00625
EXTRACT: note_on channel=9 note=36 velocity=0 time=0.0125
EXTRACT: note_on channel=9 note=35 velocity=0 time=0
EXTRACT: note_on channel=10 note=60 velocity=0 time=0
EXTRACT: control_change channel=12 control=10 value=17 time=0.026562500000000003
EXTRACT: note_on channel=3 note=81 velocity=0 time=0.0234375
EXTRACT: control_change channel=12 control=10 value=15 time=0.015625
EXTRACT: note_on channel=12 note=73 velocity=0 time=0.0390625
EXTRACT: control_change channel=12 control=10 value=19 time=0
EXTRACT: note_on channel=11 note=73 velocity=0 time=0.0078125
EXTRACT: note_on channel=11 note=85 velocity=0 time=0
EXTRACT: note_on channel=4 note=57 velocity=0 time=0.015625
EXTRACT: note_on channel=11 note=85 velocity=85 time=0.021875000000000002
EXTRACT: note_on channel=4 note=57 velocity=77 time=0.004687500000000001
EXTRACT: note_on channel=11 note=73 velocity=87 time=0.003125
EXTRACT: note_on channel=12 note=73 velocity=72 time=0.004687500000000001
EXTRACT: note_on channel=3 note=81 velocity=76 time=0.003125
EXTRACT: control_change channel=12 control=10 value=27 time=0.0171875
EXTRACT: control_change channel=12 control=10 value=31 time=0.0390625
EXTRACT: control_change channel=12 control=10 value=35 time=0.0390625
EXTRACT: note_on channel=12 note=73 velocity=0 time=0.03125
EXTRACT: note_on channel=11 note=73 velocity=0 time=0.0078125
EXTRACT: note_on channel=11 note=85 velocity=0 time=0
EXTRACT: control_change channel=12 control=10 value=39 time=0
EXTRACT: note_on channel=1 note=35 velocity=0 time=0.0078125
EXTRACT: note_on channel=2 note=62 velocity=0 time=0.0078125
EXTRACT: note_on channel=2 note=47 velocity=0 time=0
EXTRACT: note_on channel=2 note=59 velocity=0 time=0
EXTRACT: note_on channel=2 note=54 velocity=0 time=0
EXTRACT: note_on channel=6 note=59 velocity=0 time=0
EXTRACT: note_on channel=7 note=59 velocity=0 time=0
EXTRACT: note_on channel=7 note=71 velocity=0 time=0
EXTRACT: note_on channel=7 note=74 velocity=0 time=0
EXTRACT: note_on channel=8 note=59 velocity=0 time=0
EXTRACT: note_on channel=8 note=50 velocity=0 time=0
EXTRACT: note_on channel=8 note=47 velocity=0 time=0
EXTRACT: note_on channel=8 note=54 velocity=0 time=0
EXTRACT: note_on channel=2 note=54 velocity=89 time=0.018750000000000003
EXTRACT: note_on channel=1 note=42 velocity=74 time=0.004687500000000001
EXTRACT: note_on channel=2 note=57 velocity=89 time=0
EXTRACT: note_on channel=8 note=57 velocity=58 time=0
EXTRACT: note_on channel=8 note=49 velocity=61 time=0.003125
EXTRACT: note_on channel=8 note=54 velocity=60 time=0
EXTRACT: note_on channel=12 note=69 velocity=70 time=0
EXTRACT: note_on channel=7 note=66 velocity=59 time=0.0015625
EXTRACT: note_on channel=8 note=42 velocity=60 time=0
EXTRACT: note_on channel=11 note=69 velocity=85 time=0
EXTRACT: note_on channel=9 note=35 velocity=115 time=0.003125
EXTRACT: note_on channel=9 note=36 velocity=115 time=0
EXTRACT: note_on channel=10 note=60 velocity=115 time=0
EXTRACT: note_on channel=2 note=61 velocity=89 time=0.003125
EXTRACT: note_on channel=11 note=81 velocity=86 time=0
EXTRACT: note_on channel=2 note=42 velocity=90 time=0.0015625
EXTRACT: note_on channel=7 note=54 velocity=59 time=0.004687500000000001
EXTRACT: note_on channel=7 note=69 velocity=59 time=0
EXTRACT: note_on channel=6 note=54 velocity=76 time=0.0015625
EXTRACT: note_on channel=9 note=36 velocity=0 time=0.0171875
EXTRACT: note_on channel=9 note=35 velocity=0 time=0
EXTRACT: note_on channel=10 note=60 velocity=0 time=0
EXTRACT: control_change channel=12 control=10 value=47 time=0.003125
EXTRACT: control_change channel=12 control=10 value=51 time=0.0390625
EXTRACT: control_change channel=12 control=10 value=55 time=0.0390625
EXTRACT: note_on channel=12 note=69 velocity=0 time=0.0234375
EXTRACT: note_on channel=11 note=81 velocity=0 time=0.0078125
EXTRACT: note_on channel=11 note=69 velocity=0 time=0
EXTRACT: note_on channel=4 note=57 velocity=0 time=0.015625
EXTRACT: note_on channel=3 note=81 velocity=0 time=0.0078125
EXTRACT: note_on channel=4 note=56 velocity=75 time=0.028125
EXTRACT: note_on channel=3 note=80 velocity=73 time=0.0078125
EXTRACT: note_on channel=4 note=56 velocity=0 time=0.14375000000000002
EXTRACT: note_on channel=3 note=80 velocity=0 time=0.0078125
EXTRACT: note_on channel=5 note=69 velocity=81 time=0.015625
EXTRACT: note_on channel=3 note=78 velocity=82 time=0.0078125
EXTRACT: note_on channel=11 note=66 velocity=85 time=0.003125
EXTRACT: note_on channel=11 note=78 velocity=86 time=0.0015625
EXTRACT: note_on channel=12 note=66 velocity=72 time=0
EXTRACT: control_change channel=12 control=10 value=83 time=0.003125
EXTRACT: note_on channel=4 note=54 velocity=78 time=0.004687500000000001
EXTRACT: control_change channel=12 control=10 value=87 time=0.034375
EXTRACT: control_change channel=12 control=10 value=91 time=0.0390625
EXTRACT: control_change channel=12 control=10 value=95 time=0.0390625
EXTRACT: note_on channel=12 note=66 velocity=0 time=0.0078125
EXTRACT: note_on channel=11 note=78 velocity=0 time=0.0078125
EXTRACT: note_on channel=11 note=66 velocity=0 time=0
EXTRACT: note_on channel=5 note=69 velocity=0 time=0.015625
EXTRACT: note_on channel=11 note=80 velocity=84 time=0.021875000000000002
EXTRACT: note_on channel=5 note=69 velocity=76 time=0.00625
EXTRACT: note_on channel=11 note=68 velocity=83 time=0
EXTRACT: note_on channel=12 note=68 velocity=68 time=0.015625
EXTRACT: control_change channel=12 control=10 value=103 time=0.003125
EXTRACT: control_change channel=12 control=10 value=107 time=0.0390625
EXTRACT: control_change channel=12 control=10 value=111 time=0.0390625
EXTRACT: note_on channel=12 note=68 velocity=0 time=0.0390625
EXTRACT: control_change channel=12 control=10 value=115 time=0
EXTRACT: note_on channel=11 note=68 velocity=0 time=0.0078125
EXTRACT: note_on channel=11 note=80 velocity=0 time=0
EXTRACT: note_on channel=2 note=57 velocity=0 time=0.015625
EXTRACT: note_on channel=11 note=69 velocity=87 time=0.018750000000000003
EXTRACT: note_on channel=11 note=81 velocity=86 time=0.0140625
EXTRACT: note_on channel=2 note=57 velocity=73 time=0.0015625
EXTRACT: note_on channel=12 note=69 velocity=70 time=0
EXTRACT: note_on channel=9 note=39 velocity=115 time=0.003125
EXTRACT: control_change channel=12 control=10 value=123 time=0.0171875
EXTRACT: note_on channel=9 note=39 velocity=0 time=0.010937500000000001
EXTRACT: control_change channel=12 control=10 value=121 time=0.028125
EXTRACT: control_change channel=12 control=10 value=117 time=0.0390625
EXTRACT: note_on channel=12 note=69 velocity=0 time=0.03125
EXTRACT: note_on channel=11 note=81 velocity=0 time=0.0078125
EXTRACT: note_on channel=11 note=69 velocity=0 time=0
EXTRACT: control_change channel=12 control=10 value=113 time=0
EXTRACT: note_on channel=5 note=69 velocity=0 time=0.015625
EXTRACT: note_on channel=5 note=68 velocity=73 time=0.026562500000000003
EXTRACT: note_on channel=2 note=57 velocity=0 time=0.1609375
EXTRACT: note_on channel=5 note=68 velocity=0 time=0
EXTRACT: note_on channel=11 note=81 velocity=87 time=0.0234375
EXTRACT: note_on channel=12 note=69 velocity=72 time=0
EXTRACT: note_on channel=5 note=66 velocity=80 time=0.0015625
EXTRACT: note_on channel=11 note=69 velocity=86 time=0.004687500000000001
EXTRACT: control_change channel=12 control=10 value=89 time=0.0015625
EXTRACT: note_on channel=2 note=57 velocity=76 time=0.0078125
EXTRACT: control_change channel=12 control=10 value=85 time=0.03125
EXTRACT: control_change channel=12 control=10 value=81 time=0.0390625
EXTRACT: control_change channel=12 control=10 value=77 time=0.0390625
EXTRACT: note_on channel=12 note=69 velocity=0 time=0.015625
EXTRACT: note_on channel=11 note=69 velocity=0 time=0.0078125
EXTRACT: note_on channel=11 note=81 velocity=0 time=0
EXTRACT: note_on channel=4 note=54 velocity=0 time=0.015625
EXTRACT: note_on channel=3 note=78 velocity=0 time=0.0078125
EXTRACT: note_on channel=2 note=54 velocity=0 time=0.1796875
EXTRACT: note_on channel=3 note=81 velocity=90 time=0.0234375
EXTRACT: note_on channel=4 note=57 velocity=90 time=0.004687500000000001
EXTRACT: note_on channel=9 note=36 velocity=115 time=0.003125
EXTRACT: note_on channel=12 note=69 velocity=68 time=0.0015625
EXTRACT: note_on channel=2 note=54 velocity=89 time=0.0015625
EXTRACT: note_on channel=11 note=69 velocity=85 time=0.0015625
EXTRACT: note_on channel=11 note=81 velocity=86 time=0.0015625
EXTRACT: control_change channel=12 control=10 value=49 time=0.009375000000000001
EXTRACT: note_on channel=9 note=36 velocity=0 time=0.0125
EXTRACT: control_change channel=12 control=10 value=45 time=0.026562500000000003
EXTRACT: control_change channel=12 control=10 value=41 time=0.0390625
EXTRACT: note_on channel=12 note=69 velocity=0 time=0.0390625
EXTRACT: control_change channel=12 control=10 value=37 time=0
EXTRACT: note_on channel=11 note=81 velocity=0 time=0.0078125
EXTRACT: note_on channel=11 note=69 velocity=0 time=0
EXTRACT: note_on channel=4 note=57 velocity=0 time=0.015625
EXTRACT: note_on channel=3 note=81 velocity=0 time=0.0078125
EXTRACT: note_on channel=12 note=69 velocity=68 time=0.026562500000000003
EXTRACT: note_on channel=3 note=81 velocity=76 time=0.0015625
EXTRACT: note_on channel=4 note=57 velocity=76 time=0.003125
EXTRACT: control_change channel=12 control=10 value=29 time=0.015625
EXTRACT: control_change channel=12 control=10 value=25 time=0.0390625
EXTRACT: note_on channel=3 note=81 velocity=0 time=0.015625
EXTRACT: control_change channel=12 control=10 value=21 time=0.0234375
EXTRACT: note_on channel=12 note=69 velocity=0 time=0.03125
EXTRACT: control_change channel=12 control=10 value=17 time=0.0078125
EXTRACT: note_on channel=4 note=57 velocity=0 time=0.015625
EXTRACT: note_on channel=3 note=81 velocity=78 time=0.018750000000000003
EXTRACT: note_on channel=9 note=35 velocity=115 time=0.0125
EXTRACT: note_on channel=9 note=36 velocity=115 time=0
EXTRACT: note_on channel=11 note=81 velocity=86 time=0.003125
EXTRACT: note_on channel=4 note=57 velocity=80 time=0.0015625
EXTRACT: note_on channel=11 note=69 velocity=83 time=0
EXTRACT: note_on channel=12 note=69 velocity=69 time=0.004687500000000001
EXTRACT: note_on channel=9 note=36 velocity=0 time=0.018750000000000003
EXTRACT: note_on channel=9 note=35 velocity=0 time=0
EXTRACT: control_change channel=12 control=10 value=19 time=0.003125
EXTRACT: control_change channel=12 control=10 value=23 time=0.0390625
EXTRACT: note_on channel=3 note=81 velocity=0 time=0.0078125
EXTRACT: control_change channel=12 control=10 value=27 time=0.03125
EXTRACT: note_on channel=12 note=69 velocity=0 time=0.0234375
EXTRACT: note_on channel=11 note=69 velocity=0 time=0.0078125
EXTRACT: note_on channel=11 note=81 velocity=0 time=0
EXTRACT: note_on channel=4 note=57 velocity=0 time=0.015625
EXTRACT: note_on channel=5 note=66 velocity=0 time=0
EXTRACT: note_on channel=3 note=81 velocity=80 time=0.026562500000000003
EXTRACT: note_on channel=4 note=57 velocity=81 time=0.0078125
EXTRACT: note_on channel=12 note=69 velocity=68 time=0.004687500000000001
EXTRACT: control_change channel=12 control=10 value=39 time=0.03125
EXTRACT: note_on channel=3 note=81 velocity=0 time=0.0390625
EXTRACT: control_change channel=12 control=10 value=43 time=0
EXTRACT: control_change channel=12 control=10 value=47 time=0.0390625
EXTRACT: note_on channel=12 note=69 velocity=0 time=0.015625
EXTRACT: note_on channel=2 note=57 velocity=0 time=0.0234375
EXTRACT: note_on channel=4 note=57 velocity=0 time=0
EXTRACT: note_on channel=11 note=69 velocity=86 time=0.025
EXTRACT: note_on channel=2 note=57 velocity=88 time=0.0015625
EXTRACT: note_on channel=3 note=81 velocity=84 time=0.004687500000000001
EXTRACT: note_on channel=9 note=39 velocity=115 time=0.004687500000000001
EXTRACT: note_on channel=11 note=81 velocity=87 time=0
EXTRACT: note_on channel=12 note=69 velocity=71 time=0.003125
EXTRACT: control_change channel=12 control=10 value=55 time=0
EXTRACT: note_on channel=4 note=57 velocity=87 time=0.0015625
EXTRACT: note_on channel=9 note=39 velocity=0 time=0.0234375
EXTRACT: control_change channel=12 control=10 value=59 time=0.0140625
EXTRACT: control_change channel=12 control=10 value=63 time=0.0390625
EXTRACT: control_change channel=12 control=10 value=67 time=0.0390625
EXTRACT: note_on channel=12 note=69 velocity=0 time=0.0078125
EXTRACT: note_on channel=11 note=81 velocity=0 time=0.0078125
EXTRACT: note_on channel=11 note=69 velocity=0 time=0
EXTRACT: note_on channel=9 note=35 velocity=115 time=0.046875
EXTRACT: note_on channel=9 note=36 velocity=115 time=0
EXTRACT: note_on channel=9 note=36 velocity=0 time=0.028125
EXTRACT: note_on channel=9 note=35 velocity=0 time=0
EXTRACT: note_on channel=4 note=57 velocity=0 time=0.12812500000000002
EXTRACT: note_on channel=3 note=81 velocity=0 time=0.0078125
EXTRACT: note_on channel=11 note=69 velocity=86 time=0.0171875
EXTRACT: note_on channel=4 note=57 velocity=78 time=0.0015625
EXTRACT: note_on channel=11 note=81 velocity=84 time=0.0078125
EXTRACT: note_on channel=2 note=64 velocity=80 time=0.0015625
EXTRACT: note_on channel=3 note=81 velocity=80 time=0.0015625
EXTRACT: note_on channel=12 note=69 velocity=71 time=0.0015625
EXTRACT: control_change channel=12 control=10 value=95 time=0.015625
EXTRACT: control_change channel=12 control=10 value=99 time=0.0390625
EXTRACT: note_on channel=3 note=81 velocity=0 time=0.015625
EXTRACT: control_change channel=12 control=10 value=103 time=0.0234375
EXTRACT: note_on channel=12 note=69 velocity=0 time=0.03125
EXTRACT: note_on channel=11 note=81 velocity=0 time=0.0078125
EXTRACT: note_on channel=11 note=69 velocity=0 time=0
EXTRACT: control_change channel=12 control=10 value=107 time=0
EXTRACT: note_on channel=4 note=57 velocity=0 time=0.015625
EXTRACT: note_on channel=3 note=81 velocity=80 time=0.021875000000000002
EXTRACT: note_on channel=4 note=57 velocity=78 time=0
EXTRACT: control_change channel=12 control=10 value=111 time=0.0015625
EXTRACT: note_on channel=12 note=69 velocity=71 time=0.0015625
EXTRACT: note_on channel=11 note=81 velocity=86 time=0.0015625
EXTRACT: note_on channel=11 note=69 velocity=86 time=0.0015625
EXTRACT: control_change channel=12 control=10 value=115 time=0.034375
EXTRACT: control_change channel=12 control=10 value=119 time=0.0390625
EXTRACT: control_change channel=12 control=10 value=123 time=0.0390625
EXTRACT: note_on channel=12 note=69 velocity=0 time=0.0234375
EXTRACT: note_on channel=11 note=69 velocity=0 time=0.0078125
EXTRACT: note_on channel=11 note=81 velocity=0 time=0
EXTRACT: note_on channel=1 note=42 velocity=0 time=0.0078125
EXTRACT: note_on channel=2 note=64 velocity=0 time=0.0078125
EXTRACT: note_on channel=2 note=42 velocity=0 time=0
EXTRACT: note_on channel=2 note=54 velocity=0 time=0
EXTRACT: note_on channel=2 note=61 velocity=0 time=0
EXTRACT: note_on channel=2 note=57 velocity=0 time=0
EXTRACT: note_on channel=6 note=54 velocity=0 time=0
EXTRACT: note_on channel=7 note=69 velocity=0 time=0
EXTRACT: note_on channel=7 note=54 velocity=0 time=0
EXTRACT: note_on channel=7 note=66 velocity=0 time=0
EXTRACT: note_on channel=8 note=42 velocity=0 time=0
EXTRACT: note_on channel=8 note=57 velocity=0 time=0
EXTRACT: note_on channel=8 note=49 velocity=0 time=0
EXTRACT: note_on channel=8 note=54 velocity=0 time=0
EXTRACT: note_on channel=1 note=38 velocity=74 time=0.0203125
EXTRACT: note_on channel=7 note=62 velocity=62 time=0.0015625
EXTRACT: note_on channel=7 note=50 velocity=59 time=0.0015625
EXTRACT: note_on channel=11 note=69 velocity=87 time=0.0015625
EXTRACT: note_on channel=2 note=38 velocity=91 time=0.0015625
EXTRACT: note_on channel=6 note=54 velocity=75 time=0
EXTRACT: note_on channel=7 note=66 velocity=62 time=0
EXTRACT: note_on channel=8 note=54 velocity=61 time=0
EXTRACT: note_on channel=8 note=57 velocity=58 time=0.0015625
EXTRACT: note_on channel=2 note=57 velocity=91 time=0.0015625
EXTRACT: note_on channel=12 note=69 velocity=68 time=0
EXTRACT: note_on channel=9 note=35 velocity=115 time=0.0015625
EXTRACT: note_on channel=9 note=36 velocity=115 time=0
EXTRACT: note_on channel=10 note=60 velocity=115 time=0
EXTRACT: control_change channel=12 control=10 value=117 time=0
EXTRACT: note_on channel=8 note=50 velocity=60 time=0.003125
EXTRACT: note_on channel=2 note=54 velocity=93 time=0.0015625
EXTRACT: note_on channel=2 note=62 velocity=89 time=0
EXTRACT: note_on channel=11 note=81 velocity=83 time=0
EXTRACT: note_on channel=8 note=38 velocity=60 time=0.0078125
EXTRACT: note_on channel=9 note=36 velocity=0 time=0.015625
EXTRACT: note_on channel=9 note=35 velocity=0 time=0
EXTRACT: note_on channel=10 note=60 velocity=0 time=0
EXTRACT: control_change channel=12 control=10 value=113 time=0.010937500000000001
EXTRACT: control_change channel=12 control=10 value=109 time=0.0390625
EXTRACT: control_change channel=12 control=10 value=105 time=0.0390625
EXTRACT: note_on channel=12 note=69 velocity=0 time=0.015625
EXTRACT: note_on channel=11 note=81 velocity=0 time=0.0078125
EXTRACT: note_on channel=11 note=69 velocity=0 time=0
EXTRACT: note_on channel=4 note=57 velocity=0 time=0.015625
EXTRACT: note_on channel=3 note=81 velocity=0 time=0.0078125
EXTRACT: note_on channel=4 note=64 velocity=74 time=0.010937500000000001
EXTRACT: note_on channel=3 note=76 velocity=71 time=0.015625
EXTRACT: note_on channel=4 note=64 velocity=0 time=0.153125
EXTRACT: note_on channel=3 note=76 velocity=0 time=0.0078125
EXTRACT: note_on channel=12 note=66 velocity=71 time=0.0140625
EXTRACT: note_on channel=3 note=74 velocity=76 time=0.004687500000000001
EXTRACT: note_on channel=2 note=59 velocity=58 time=0.004687500000000001
EXTRACT: note_on channel=11 note=66 velocity=84 time=0
EXTRACT: note_on channel=4 note=62 velocity=76 time=0.003125
EXTRACT: note_on channel=11 note=78 velocity=85 time=0
EXTRACT: control_change channel=12 control=10 value=77 time=0.0125
EXTRACT: control_change channel=12 control=10 value=73 time=0.0390625
EXTRACT: control_change channel=12 control=10 value=69 time=0.0390625
EXTRACT: note_on channel=12 note=66 velocity=0 time=0.0390625
EXTRACT: control_change channel=12 control=10 value=65 time=0
EXTRACT: note_on channel=11 note=78 velocity=0 time=0.0078125
EXTRACT: note_on channel=11 note=66 velocity=0 time=0
EXTRACT: note_on channel=4 note=62 velocity=0 time=0.015625
EXTRACT: note_on channel=3 note=74 velocity=0 time=0.0078125
EXTRACT: note_on channel=4 note=61 velocity=75 time=0.0140625
EXTRACT: note_on channel=11 note=68 velocity=87 time=0.003125
EXTRACT: note_on channel=9 note=35 velocity=115 time=0.00625
EXTRACT: note_on channel=9 note=36 velocity=115 time=0
EXTRACT: note_on channel=11 note=80 velocity=83 time=0.003125
EXTRACT: note_on channel=12 note=68 velocity=69 time=0
EXTRACT: note_on channel=3 note=73 velocity=75 time=0.00625
EXTRACT: control_change channel=12 control=10 value=57 time=0.0140625
EXTRACT: note_on channel=9 note=36 velocity=0 time=0.004687500000000001
EXTRACT: note_on channel=9 note=35 velocity=0 time=0
EXTRACT: control_change channel=12 control=10 value=53 time=0.034375
EXTRACT: control_change channel=12 control=10 value=49 time=0.0390625
EXTRACT: note_on channel=12 note=68 velocity=0 time=0.03125
EXTRACT: note_on channel=11 note=80 velocity=0 time=0.0078125
EXTRACT: note_on channel=11 note=68 velocity=0 time=0
EXTRACT: control_change channel=12 control=10 value=45 time=0
EXTRACT: note_on channel=2 note=57 velocity=0 time=0.015625
EXTRACT: note_on channel=2 note=57 velocity=70 time=0.0234375
EXTRACT: note_on channel=11 note=69 velocity=83 time=0.003125
EXTRACT: note_on channel=12 note=69 velocity=69 time=0
EXTRACT: note_on channel=9 note=39 velocity=116 time=0.004687500000000001
EXTRACT: note_on channel=11 note=81 velocity=86 time=0.00625
EXTRACT: note_on channel=9 note=39 velocity=0 time=0.021875000000000002
EXTRACT: control_change channel=12 control=10 value=37 time=0.003125
EXTRACT: control_change channel=12 control=10 value=33 time=0.0390625
EXTRACT: control_change channel=12 control=10 value=29 time=0.0390625
EXTRACT: note_on channel=12 note=69 velocity=0 time=0.0234375
EXTRACT: note_on channel=11 note=81 velocity=0 time=0.0078125
EXTRACT: note_on channel=11 note=69 velocity=0 time=0
EXTRACT: note_on channel=2 note=57 velocity=0 time=0.203125
EXTRACT: note_on channel=2 note=57 velocity=81 time=0.0234375
EXTRACT: note_on channel=11 note=81 velocity=87 time=0.010937500000000001
EXTRACT: note_on channel=12 note=69 velocity=70 time=0
EXTRACT: note_on channel=11 note=69 velocity=84 time=0.0015625
EXTRACT: control_change channel=12 control=10 value=27 time=0.003125
EXTRACT: control_change channel=12 control=10 value=31 time=0.0390625
EXTRACT: control_change channel=12 control=10 value=35 time=0.0390625
EXTRACT: control_change channel=12 control=10 value=39 time=0.0390625
EXTRACT: note_on channel=12 note=69 velocity=0 time=0.0078125
EXTRACT: note_on channel=11 note=69 velocity=0 time=0.0078125
EXTRACT: note_on channel=11 note=81 velocity=0 time=0
EXTRACT: note_on channel=2 note=54 velocity=0 time=0.203125
EXTRACT: note_on channel=4 note=61 velocity=0 time=0
EXTRACT: note_on channel=7 note=66 velocity=0 time=0
EXTRACT: note_on channel=7 note=50 velocity=0 time=0
EXTRACT: note_on channel=7 note=62 velocity=0 time=0
EXTRACT: note_on channel=3 note=73 velocity=0 time=0.0078125
EXTRACT: note_on channel=4 note=57 velocity=84 time=0.0171875
EXTRACT: note_on channel=11 note=69 velocity=84 time=0.0015625
EXTRACT: note_on channel=2 note=54 velocity=84 time=0.0015625
EXTRACT: note_on channel=3 note=81 velocity=88 time=0
EXTRACT: note_on channel=9 note=36 velocity=115 time=0.003125
EXTRACT: note_on channel=12 note=69 velocity=72 time=0.00625
EXTRACT: note_on channel=11 note=81 velocity=84 time=0.004687500000000001
EXTRACT: control_change channel=12 control=10 value=67 time=0.0125
EXTRACT: note_on channel=9 note=36 velocity=0 time=0.004687500000000001
EXTRACT: control_change channel=12 control=10 value=71 time=0.034375
EXTRACT: control_change channel=12 control=10 value=75 time=0.0390625
EXTRACT: note_on channel=12 note=69 velocity=0 time=0.03125
EXTRACT: note_on channel=11 note=81 velocity=0 time=0.0078125
EXTRACT: note_on channel=11 note=69 velocity=0 time=0
EXTRACT: control_change channel=12 control=10 value=79 time=0
EXTRACT: note_on channel=4 note=57 velocity=0 time=0.015625
EXTRACT: note_on channel=3 note=81 velocity=0 time=0.0078125
EXTRACT: note_on channel=4 note=57 velocity=76 time=0.015625
EXTRACT: note_on channel=12 note=69 velocity=72 time=0.004687500000000001
EXTRACT: note_on channel=3 note=81 velocity=73 time=0.00625
EXTRACT: control_change channel=12 control=10 value=87 time=0.028125
EXTRACT: control_change channel=12 control=10 value=91 time=0.0390625
EXTRACT: control_change channel=12 control=10 value=95 time=0.0390625
EXTRACT: note_on channel=12 note=69 velocity=0 time=0.0234375
EXTRACT: note_on channel=2 note=57 velocity=0 time=0.0234375
EXTRACT: note_on channel=4 note=57 velocity=0 time=0
EXTRACT: note_on channel=3 note=81 velocity=0 time=0.0078125
EXTRACT: note_on channel=2 note=57 velocity=79 time=0.010937500000000001
EXTRACT: note_on channel=3 note=81 velocity=77 time=0
EXTRACT: note_on channel=11 note=69 velocity=84 time=0.0015625
EXTRACT: note_on channel=11 note=81 velocity=87 time=0.0015625
EXTRACT: note_on channel=4 note=57 velocity=79 time=0.0078125
EXTRACT: note_on channel=9 note=35 velocity=115 time=0.0015625
EXTRACT: note_on channel=9 note=36 velocity=115 time=0
EXTRACT: note_on channel=12 note=69 velocity=72 time=0.003125
EXTRACT: note_on channel=9 note=36 velocity=0 time=0.025
EXTRACT: note_on channel=9 note=35 velocity=0 time=0
EXTRACT: control_change channel=12 control=10 value=107 time=0.010937500000000001
EXTRACT: control_change channel=12 control=10 value=111 time=0.0390625
EXTRACT: control_change channel=12 control=10 value=115 time=0.0390625
EXTRACT: note_on channel=12 note=69 velocity=0 time=0.015625
EXTRACT: note_on channel=11 note=81 velocity=0 time=0.0078125
EXTRACT: note_on channel=11 note=69 velocity=0 time=0
EXTRACT: note_on channel=4 note=57 velocity=0 time=0.015625
EXTRACT: note_on channel=3 note=81 velocity=0 time=0.0078125
EXTRACT: note_on channel=1 note=38 velocity=0 time=0.171875
EXTRACT: note_on channel=2 note=57 velocity=0 time=0.0078125
EXTRACT: note_on channel=2 note=54 velocity=0 time=0
EXTRACT: note_on channel=2 note=38 velocity=0 time=0
EXTRACT: note_on channel=2 note=62 velocity=0 time=0
EXTRACT: note_on channel=2 note=59 velocity=0 time=0
EXTRACT: note_on channel=6 note=54 velocity=0 time=0
EXTRACT: note_on channel=8 note=38 velocity=0 time=0
EXTRACT: note_on channel=8 note=54 velocity=0 time=0
EXTRACT: note_on channel=8 note=57 velocity=0 time=0
EXTRACT: note_on channel=8 note=50 velocity=0 time=0
EXTRACT: note_on channel=4 note=57 velocity=93 time=0.028125
EXTRACT: note_on channel=9 note=39 velocity=113 time=0.003125
EXTRACT: note_on channel=3 note=81 velocity=89 time=0.010937500000000001
EXTRACT: note_on channel=9 note=39 velocity=0 time=0.0171875
EXTRACT: note_on channel=9 note=35 velocity=115 time=0.15937500000000002
EXTRACT: note_on channel=9 note=36 velocity=115 time=0
EXTRACT: note_on channel=12 note=69 velocity=69 time=0.00625
EXTRACT: note_on channel=4 note=69 velocity=74 time=0.00625
EXTRACT: control_change channel=12 control=10 value=85 time=0.010937500000000001
EXTRACT: note_on channel=9 note=36 velocity=0 time=0.004687500000000001
EXTRACT: note_on channel=9 note=35 velocity=0 time=0
EXTRACT: control_change channel=12 control=10 value=81 time=0.034375
EXTRACT: control_change channel=12 control=10 value=77 time=0.0390625
EXTRACT: note_on channel=12 note=69 velocity=0 time=0.03125
EXTRACT: control_change channel=12 control=10 value=73 time=0.0078125
EXTRACT: note_on channel=4 note=69 velocity=0 time=0.015625
EXTRACT: note_on channel=4 note=57 velocity=0 time=0
EXTRACT: note_on channel=3 note=81 velocity=0 time=0.0078125
EXTRACT: note_on channel=4 note=69 velocity=75 time=0.018750000000000003
EXTRACT: note_on channel=3 note=80 velocity=77 time=0.009375000000000001
EXTRACT: note_on channel=4 note=56 velocity=75 time=0.004687500000000001
EXTRACT: note_on channel=12 note=69 velocity=70 time=0.0015625
EXTRACT: control_change channel=12 control=10 value=65 time=0.0203125
EXTRACT: control_change channel=12 control=10 value=61 time=0.0390625
EXTRACT: control_change channel=12 control=10 value=57 time=0.0390625
EXTRACT: note_on channel=12 note=69 velocity=0 time=0.0234375
EXTRACT: note_on channel=4 note=56 velocity=0 time=0.0234375
EXTRACT: note_on channel=4 note=69 velocity=0 time=0
EXTRACT: note_on channel=3 note=80 velocity=0 time=0.0078125
EXTRACT: note_on channel=3 note=81 velocity=77 time=0.0125
EXTRACT: note_on channel=4 note=71 velocity=78 time=0.0015625
EXTRACT: note_on channel=4 note=57 velocity=76 time=0.010937500000000001
EXTRACT: note_on channel=4 note=71 velocity=0 time=0.1546875
EXTRACT: note_on channel=11 note=81 velocity=83 time=0.0203125
EXTRACT: note_on channel=2 note=45 velocity=89 time=0.0015625
EXTRACT: note_on channel=4 note=73 velocity=91 time=0.0015625
EXTRACT: note_on channel=1 note=33 velocity=75 time=0.0015625
EXTRACT: note_on channel=8 note=61 velocity=60 time=0.0015625
EXTRACT: note_on channel=12 note=69 velocity=71 time=0
EXTRACT: note_on channel=7 note=73 velocity=59 time=0.003125
EXTRACT: note_on channel=2 note=52 velocity=92 time=0.0015625
EXTRACT: note_on channel=6 note=57 velocity=77 time=0
EXTRACT: note_on channel=7 note=57 velocity=58 time=0
EXTRACT: note_on channel=9 note=35 velocity=115 time=0
EXTRACT: note_on channel=9 note=36 velocity=115 time=0
EXTRACT: note_on channel=8 note=52 velocity=61 time=0.0015625
EXTRACT: note_on channel=11 note=69 velocity=83 time=0.0015625
EXTRACT: note_on channel=8 note=57 velocity=58 time=0.003125
EXTRACT: note_on channel=2 note=57 velocity=91 time=0.0015625
EXTRACT: note_on channel=7 note=69 velocity=62 time=0
EXTRACT: control_change channel=12 control=10 value=29 time=0
EXTRACT: note_on channel=2 note=61 velocity=92 time=0.003125
EXTRACT: note_on channel=8 note=45 velocity=58 time=0.0015625
EXTRACT: note_on channel=9 note=36 velocity=0 time=0.015625
EXTRACT: note_on channel=9 note=35 velocity=0 time=0
EXTRACT: control_change channel=12 control=10 value=25 time=0.018750000000000003
EXTRACT: control_change channel=12 control=10 value=21 time=0.0390625
EXTRACT: control_change channel=12 control=10 value=17 time=0.0390625
EXTRACT: note_on channel=12 note=69 velocity=0 time=0.0078125
EXTRACT: note_on channel=11 note=69 velocity=0 time=0.0078125
EXTRACT: note_on channel=11 note=81 velocity=0 time=0
EXTRACT: note_on channel=4 note=73 velocity=0 time=0.015625
EXTRACT: note_on channel=4 note=71 velocity=72 time=0.0203125
EXTRACT: note_on channel=2 note=52 velocity=0 time=0.16718750000000002
EXTRACT: note_on channel=4 note=71 velocity=0 time=0
EXTRACT: note_on channel=4 note=71 velocity=80 time=0.034375
EXTRACT: note_on channel=11 note=81 velocity=83 time=0
EXTRACT: note_on channel=11 note=69 velocity=86 time=0
EXTRACT: note_on channel=2 note=52 velocity=79 time=0.0078125
EXTRACT: note_on channel=12 note=69 velocity=68 time=0
EXTRACT: control_change channel=12 control=10 value=39 time=0.0125
EXTRACT: control_change channel=12 control=10 value=43 time=0.0390625
EXTRACT: control_change channel=12 control=10 value=47 time=0.0390625
EXTRACT: note_on channel=12 note=69 velocity=0 time=0.03125
EXTRACT: note_on channel=11 note=69 velocity=0 time=0.0078125
EXTRACT: note_on channel=11 note=81 velocity=0 time=0
EXTRACT: control_change channel=12 control=10 value=51 time=0
EXTRACT: note_on channel=12 note=71 velocity=68 time=0.037500000000000006
EXTRACT: control_change channel=12 control=10 value=55 time=0.0015625
EXTRACT: note_on channel=11 note=71 velocity=85 time=0.004687500000000001
EXTRACT: note_on channel=11 note=83 velocity=83 time=0.0078125
EXTRACT: control_change channel=12 control=10 value=59 time=0.026562500000000003
EXTRACT: control_change channel=12 control=10 value=63 time=0.0390625
EXTRACT: control_change channel=12 control=10 value=67 time=0.0390625
EXTRACT: note_on channel=12 note=71 velocity=0 time=0.0234375
EXTRACT: note_on channel=11 note=83 velocity=0 time=0.0078125
EXTRACT: note_on channel=11 note=71 velocity=0 time=0
EXTRACT: note_on channel=2 note=61 velocity=0 time=0.015625
EXTRACT: note_on channel=2 note=57 velocity=0 time=0
EXTRACT: note_on channel=4 note=71 velocity=0 time=0
EXTRACT: note_on channel=2 note=57 velocity=88 time=0.018750000000000003
EXTRACT: note_on channel=12 note=73 velocity=70 time=0.003125
EXTRACT: note_on channel=9 note=39 velocity=115 time=0.003125
EXTRACT: note_on channel=4 note=73 velocity=90 time=0.0015625
EXTRACT: control_change channel=12 control=10 value=75 time=0.004687500000000001
EXTRACT: note_on channel=11 note=73 velocity=86 time=0.003125
EXTRACT: note_on channel=11 note=85 velocity=86 time=0
EXTRACT: note_on channel=2 note=61 velocity=90 time=0.00625
EXTRACT: note_on channel=9 note=39 velocity=0 time=0.0125
EXTRACT: control_change channel=12 control=10 value=79 time=0.0171875
EXTRACT: control_change channel=12 control=10 value=83 time=0.0390625
EXTRACT: control_change channel=12 control=10 value=87 time=0.0390625
EXTRACT: note_on channel=12 note=73 velocity=0 time=0.015625
EXTRACT: note_on channel=11 note=85 velocity=0 time=0.0078125
EXTRACT: note_on channel=11 note=73 velocity=0 time=0
EXTRACT: note_on channel=4 note=73 velocity=0 time=0.015625
EXTRACT: note_on channel=4 note=71 velocity=70 time=0.03125
EXTRACT: note_on channel=2 note=52 velocity=0 time=0.15625
EXTRACT: note_on channel=4 note=71 velocity=0 time=0
EXTRACT: note_on channel=4 note=57 velocity=0 time=0
EXTRACT: note_on channel=3 note=81 velocity=0 time=0.0078125
EXTRACT: note_on channel=12 note=73 velocity=68 time=0.0140625
EXTRACT: note_on channel=11 note=85 velocity=83 time=0.00625
EXTRACT: note_on channel=11 note=73 velocity=85 time=0.0015625
EXTRACT: note_on channel=2 note=52 velocity=77 time=0.009375000000000001
EXTRACT: note_on channel=4 note=71 velocity=79 time=0.003125
EXTRACT: control_change channel=12 control=10 value=115 time=0.004687500000000001
EXTRACT: control_change channel=12 control=10 value=119 time=0.0390625
EXTRACT: control_change channel=12 control=10 value=123 time=0.0390625
EXTRACT: note_on channel=12 note=73 velocity=0 time=0.0390625
EXTRACT: control_change channel=12 control=10 value=121 time=0
EXTRACT: note_on channel=11 note=73 velocity=0 time=0.0078125
EXTRACT: note_on channel=11 note=85 velocity=0 time=0
EXTRACT: note_on channel=2 note=57 velocity=0 time=0.203125
EXTRACT: note_on channel=4 note=71 velocity=0 time=0
EXTRACT: control_change channel=12 control=10 value=97 time=0.0234375
EXTRACT: note_on channel=11 note=73 velocity=87 time=0.003125
EXTRACT: note_on channel=11 note=85 velocity=84 time=0.0015625
EXTRACT: note_on channel=12 note=73 velocity=70 time=0
EXTRACT: note_on channel=9 note=36 velocity=115 time=0.003125
EXTRACT: note_on channel=3 note=85 velocity=89 time=0.004687500000000001
EXTRACT: note_on channel=2 note=57 velocity=86 time=0.0078125
EXTRACT: note_on channel=9 note=36 velocity=0 time=0.015625
EXTRACT: control_change channel=12 control=10 value=93 time=0.003125
EXTRACT: control_change channel=12 control=10 value=89 time=0.0390625
EXTRACT: control_change channel=12 control=10 value=85 time=0.0390625
EXTRACT: note_on channel=12 note=73 velocity=0 time=0.0234375
EXTRACT: note_on channel=11 note=85 velocity=0 time=0.0078125
EXTRACT: note_on channel=11 note=73 velocity=0 time=0
EXTRACT: note_on channel=3 note=85 velocity=0 time=0.2109375
EXTRACT: note_on channel=3 note=83 velocity=76 time=0.0140625
EXTRACT: note_on channel=11 note=73 velocity=83 time=0.00625
EXTRACT: note_on channel=12 note=73 velocity=72 time=0.0078125
EXTRACT: note_on channel=11 note=85 velocity=86 time=0.0015625
EXTRACT: control_change channel=12 control=10 value=57 time=0.0015625
EXTRACT: control_change channel=12 control=10 value=53 time=0.0390625
EXTRACT: control_change channel=12 control=10 value=49 time=0.0390625
EXTRACT: control_change channel=12 control=10 value=45 time=0.0390625
EXTRACT: note_on channel=12 note=73 velocity=0 time=0.0078125
EXTRACT: note_on channel=11 note=85 velocity=0 time=0.0078125
EXTRACT: note_on channel=11 note=73 velocity=0 time=0
EXTRACT: note_on channel=2 note=52 velocity=0 time=0.203125
EXTRACT: note_on channel=12 note=73 velocity=69 time=0.026562500000000003
EXTRACT: note_on channel=2 note=52 velocity=86 time=0.0015625
EXTRACT: note_on channel=9 note=39 velocity=116 time=0.00625
EXTRACT: note_on channel=11 note=85 velocity=84 time=0
EXTRACT: note_on channel=11 note=73 velocity=87 time=0.004687500000000001
EXTRACT: control_change channel=12 control=10 value=17 time=0.015625
EXTRACT: note_on channel=9 note=39 velocity=0 time=0.0078125
EXTRACT: control_change channel=12 control=10 value=15 time=0.03125
EXTRACT: control_change channel=12 control=10 value=19 time=0.0390625
EXTRACT: note_on channel=12 note=73 velocity=0 time=0.03125
EXTRACT: note_on channel=11 note=73 velocity=0 time=0.0078125
EXTRACT: note_on channel=11 note=85 velocity=0 time=0
EXTRACT: control_change channel=12 control=10 value=23 time=0
EXTRACT: note_on channel=12 note=71 velocity=68 time=0.034375
EXTRACT: control_change channel=12 control=10 value=27 time=0.004687500000000001
EXTRACT: note_on channel=9 note=35 velocity=115 time=0.0078125
EXTRACT: note_on channel=9 note=36 velocity=115 time=0
EXTRACT: note_on channel=11 note=83 velocity=87 time=0.0015625
EXTRACT: note_on channel=11 note=71 velocity=87 time=0
EXTRACT: note_on channel=4 note=69 velocity=72 time=0.009375000000000001
EXTRACT: note_on channel=9 note=36 velocity=0 time=0.0171875
EXTRACT: note_on channel=9 note=35 velocity=0 time=0
EXTRACT: control_change channel=12 control=10 value=31 time=0.003125
EXTRACT: control_change channel=12 control=10 value=35 time=0.0390625
EXTRACT: control_change channel=12 control=10 value=39 time=0.0390625
EXTRACT: note_on channel=11 note=71 velocity=0 time=0.0234375
EXTRACT: note_on channel=11 note=83 velocity=0 time=0
EXTRACT: note_on channel=12 note=71 velocity=0 time=0
EXTRACT: note_on channel=2 note=57 velocity=0 time=0.0234375
EXTRACT: note_on channel=4 note=69 velocity=0 time=0
EXTRACT: note_on channel=3 note=83 velocity=0 time=0.0078125
EXTRACT: note_on channel=12 note=71 velocity=70 time=0.0125
EXTRACT: note_on channel=4 note=69 velocity=80 time=0.010937500000000001
EXTRACT: note_on channel=9 note=35 velocity=115 time=0
EXTRACT: note_on channel=9 note=36 velocity=115 time=0
EXTRACT: control_change channel=12 control=10 value=47 time=0
EXTRACT: note_on channel=11 note=83 velocity=86 time=0.003125
EXTRACT: note_on channel=11 note=71 velocity=87 time=0.0078125
EXTRACT: note_on channel=2 note=57 velocity=79 time=0.0015625
EXTRACT: note_on channel=9 note=36 velocity=0 time=0.015625
EXTRACT: note_on channel=9 note=35 velocity=0 time=0
EXTRACT: control_change channel=12 control=10 value=51 time=0.010937500000000001
EXTRACT: control_change channel=12 control=10 value=55 time=0.0390625
EXTRACT: control_change channel=12 control=10 value=59 time=0.0390625
EXTRACT: note_on channel=12 note=71 velocity=0 time=0.015625
EXTRACT: note_on channel=11 note=71 velocity=0 time=0.0078125
EXTRACT: note_on channel=11 note=83 velocity=0 time=0
EXTRACT: note_on channel=4 note=69 velocity=0 time=0.015625
EXTRACT: note_on channel=12 note=73 velocity=71 time=0.0234375
EXTRACT: note_on channel=11 note=85 velocity=87 time=0.0078125
EXTRACT: note_on channel=4 note=71 velocity=78 time=0.004687500000000001
EXTRACT: note_on channel=11 note=73 velocity=87 time=0.003125
EXTRACT: control_change channel=12 control=10 value=67 time=0
EXTRACT: control_change channel=12 control=10 value=71 time=0.0390625
EXTRACT: control_change channel=12 control=10 value=75 time=0.0390625
EXTRACT: control_change channel=12 control=10 value=79 time=0.0390625
EXTRACT: note_on channel=12 note=73 velocity=0 time=0.0078125
EXTRACT: note_on channel=11 note=73 velocity=0 time=0.0078125
EXTRACT: note_on channel=11 note=85 velocity=0 time=0
EXTRACT: note_on channel=1 note=33 velocity=0 time=0.0078125
EXTRACT: note_on channel=2 note=57 velocity=0 time=0.0078125
EXTRACT: note_on channel=2 note=52 velocity=0 time=0
EXTRACT: note_on channel=2 note=45 velocity=0 time=0
EXTRACT: note_on channel=2 note=61 velocity=0 time=0
EXTRACT: note_on channel=4 note=71 velocity=0 time=0
EXTRACT: note_on channel=6 note=57 velocity=0 time=0
EXTRACT: note_on channel=7 note=69 velocity=0 time=0
EXTRACT: note_on channel=7 note=57 velocity=0 time=0
EXTRACT: note_on channel=7 note=73 velocity=0 time=0
EXTRACT: note_on channel=8 note=45 velocity=0 time=0
EXTRACT: note_on channel=8 note=61 velocity=0 time=0
EXTRACT: note_on channel=8 note=52 velocity=0 time=0
EXTRACT: note_on channel=8 note=57 velocity=0 time=0
EXTRACT: note_on channel=1 note=35 velocity=77 time=0.0203125
EXTRACT: note_on channel=7 note=59 velocity=62 time=0
EXTRACT: note_on channel=8 note=47 velocity=61 time=0.0015625
EXTRACT: note_on channel=8 note=54 velocity=60 time=0.003125
EXTRACT: note_on channel=11 note=71 velocity=85 time=0
EXTRACT: note_on channel=2 note=47 velocity=89 time=0.003125
EXTRACT: note_on channel=2 note=54 velocity=90 time=0
EXTRACT: note_on channel=3 note=85 velocity=91 time=0.0015625
EXTRACT: note_on channel=6 note=59 velocity=74 time=0
EXTRACT: note_on channel=9 note=35 velocity=115 time=0.0015625
EXTRACT: note_on channel=9 note=36 velocity=115 time=0
EXTRACT: note_on channel=7 note=74 velocity=58 time=0.003125
EXTRACT: note_on channel=11 note=83 velocity=84 time=0
EXTRACT: note_on channel=2 note=62 velocity=92 time=0.003125
EXTRACT: note_on channel=8 note=50 velocity=58 time=0
EXTRACT: note_on channel=8 note=59 velocity=62 time=0.004687500000000001
EXTRACT: note_on channel=2 note=59 velocity=93 time=0.0015625
EXTRACT: note_on channel=7 note=78 velocity=58 time=0
EXTRACT: note_on channel=12 note=71 velocity=72 time=0
EXTRACT: control_change channel=12 control=10 value=87 time=0.003125
EXTRACT: note_on channel=9 note=36 velocity=0 time=0.0125
EXTRACT: note_on channel=9 note=35 velocity=0 time=0
EXTRACT: control_change channel=12 control=10 value=91 time=0.026562500000000003
EXTRACT: control_change channel=12 control=10 value=95 time=0.0390625
EXTRACT: note_on channel=12 note=71 velocity=0 time=0.0390625
EXTRACT: control_change channel=12 control=10 value=99 time=0
EXTRACT: note_on channel=11 note=83 velocity=0 time=0.0078125
EXTRACT: note_on channel=11 note=71 velocity=0 time=0
EXTRACT: note_on channel=2 note=54 velocity=0 time=0.203125
EXTRACT: note_on channel=3 note=85 velocity=0 time=0.0078125
EXTRACT: note_on channel=11 note=83 velocity=85 time=0.010937500000000001
EXTRACT: note_on channel=3 note=83 velocity=79 time=0.0078125
EXTRACT: note_on channel=11 note=71 velocity=83 time=0
EXTRACT: note_on channel=12 note=71 velocity=69 time=0.0015625
EXTRACT: note_on channel=2 note=54 velocity=76 time=0.0015625
EXTRACT: control_change channel=12 control=10 value=121 time=0.0328125
EXTRACT: control_change channel=12 control=10 value=117 time=0.0390625
EXTRACT: control_change channel=12 control=10 value=113 time=0.0390625
EXTRACT: note_on channel=12 note=71 velocity=0 time=0.0234375
EXTRACT: note_on channel=11 note=71 velocity=0 time=0.0078125
EXTRACT: note_on channel=11 note=83 velocity=0 time=0
EXTRACT: note_on channel=11 note=73 velocity=86 time=0.040625
EXTRACT: note_on channel=9 note=35 velocity=115 time=0.00625
EXTRACT: note_on channel=9 note=36 velocity=115 time=0
EXTRACT: note_on channel=11 note=85 velocity=83 time=0
EXTRACT: note_on channel=12 note=73 velocity=70 time=0.00625
EXTRACT: note_on channel=9 note=36 velocity=0 time=0.021875000000000002
EXTRACT: note_on channel=9 note=35 velocity=0 time=0
EXTRACT: control_change channel=12 control=10 value=101 time=0.010937500000000001
EXTRACT: control_change channel=12 control=10 value=97 time=0.0390625
EXTRACT: control_change channel=12 control=10 value=93 time=0.0390625
EXTRACT: note_on channel=12 note=73 velocity=0 time=0.015625
EXTRACT: note_on channel=11 note=85 velocity=0 time=0.0078125
EXTRACT: note_on channel=11 note=73 velocity=0 time=0
EXTRACT: note_on channel=2 note=59 velocity=0 time=0.015625
EXTRACT: note_on channel=4 note=73 velocity=90 time=0.018750000000000003
EXTRACT: note_on channel=2 note=59 velocity=90 time=0.0015625
EXTRACT: note_on channel=11 note=86 velocity=83 time=0
EXTRACT: note_on channel=12 note=74 velocity=72 time=0.0140625
EXTRACT: control_change channel=12 control=10 value=85 time=0.004687500000000001
EXTRACT: note_on channel=9 note=39 velocity=113 time=0.003125
EXTRACT: note_on channel=11 note=74 velocity=86 time=0
EXTRACT: note_on channel=9 note=39 velocity=0 time=0.028125
EXTRACT: control_change channel=12 control=10 value=81 time=0.0078125
EXTRACT: control_change channel=12 control=10 value=77 time=0.0390625
EXTRACT: control_change channel=12 control=10 value=73 time=0.0390625
EXTRACT: note_on channel=12 note=74 velocity=0 time=0.0078125
EXTRACT: note_on channel=11 note=74 velocity=0 time=0.0078125
EXTRACT: note_on channel=11 note=86 velocity=0 time=0
EXTRACT: note_on channel=4 note=73 velocity=0 time=0.015625
EXTRACT: note_on channel=4 note=71 velocity=70 time=0.035937500000000004
EXTRACT: note_on channel=2 note=62 velocity=0 time=0.15156250000000002
EXTRACT: note_on channel=4 note=71 velocity=0 time=0
EXTRACT: note_on channel=3 note=83 velocity=0 time=0.0078125
EXTRACT: note_on channel=11 note=86 velocity=83 time=0.018750000000000003
EXTRACT: note_on channel=12 note=74 velocity=70 time=0.003125
EXTRACT: note_on channel=11 note=74 velocity=83 time=0.004687500000000001
EXTRACT: note_on channel=2 note=62 velocity=79 time=0.0015625
EXTRACT: note_on channel=4 note=71 velocity=80 time=0.00625
EXTRACT: control_change channel=12 control=10 value=45 time=0.0125
EXTRACT: control_change channel=12 control=10 value=41 time=0.0390625
EXTRACT: control_change channel=12 control=10 value=37 time=0.0390625
EXTRACT: note_on channel=12 note=74 velocity=0 time=0.03125
EXTRACT: note_on channel=11 note=74 velocity=0 time=0.0078125
EXTRACT: note_on channel=11 note=86 velocity=0 time=0
EXTRACT: control_change channel=12 control=10 value=33 time=0
EXTRACT: note_on channel=2 note=62 velocity=0 time=0.203125
EXTRACT: note_on channel=2 note=54 velocity=0 time=0
EXTRACT: note_on channel=4 note=71 velocity=0 time=0
EXTRACT: note_on channel=3 note=86 velocity=88 time=0.018750000000000003
EXTRACT: note_on channel=11 note=74 velocity=86 time=0.0078125
EXTRACT: note_on channel=12 note=74 velocity=69 time=0.003125
EXTRACT: note_on channel=9 note=36 velocity=115 time=0.0015625
EXTRACT: note_on channel=11 note=86 velocity=87 time=0
EXTRACT: control_change channel=12 control=10 value=19 time=0
EXTRACT: note_on channel=2 note=62 velocity=85 time=0.00625
EXTRACT: note_on channel=2 note=54 velocity=87 time=0
EXTRACT: note_on channel=9 note=36 velocity=0 time=0.021875000000000002
EXTRACT: control_change channel=12 control=10 value=23 time=0.010937500000000001
EXTRACT: control_change channel=12 control=10 value=27 time=0.0390625
EXTRACT: control_change channel=12 control=10 value=31 time=0.0390625
EXTRACT: note_on channel=12 note=74 velocity=0 time=0.015625
EXTRACT: note_on channel=11 note=86 velocity=0 time=0.0078125
EXTRACT: note_on channel=11 note=74 velocity=0 time=0
EXTRACT: control_change channel=12 control=10 value=39 time=0.0546875
EXTRACT: note_on channel=12 note=74 velocity=71 time=0.003125
EXTRACT: control_change channel=12 control=10 value=43 time=0.035937500000000004
EXTRACT: control_change channel=12 control=10 value=47 time=0.0390625
EXTRACT: control_change channel=12 control=10 value=51 time=0.0390625
EXTRACT: note_on channel=12 note=74 velocity=0 time=0.0078125
EXTRACT: note_on channel=3 note=86 velocity=0 time=0.03125
EXTRACT: note_on channel=2 note=57 velocity=80 time=0.018750000000000003
EXTRACT: note_on channel=11 note=74 velocity=85 time=0
EXTRACT: note_on channel=12 note=74 velocity=72 time=0.003125
EXTRACT: note_on channel=11 note=86 velocity=84 time=0.004687500000000001
EXTRACT: note_on channel=3 note=85 velocity=78 time=0.00625
EXTRACT: control_change channel=12 control=10 value=59 time=0.00625
EXTRACT: control_change channel=12 control=10 value=63 time=0.0390625
EXTRACT: control_change channel=12 control=10 value=67 time=0.0390625
EXTRACT: note_on channel=12 note=74 velocity=0 time=0.0390625
EXTRACT: control_change channel=12 control=10 value=71 time=0
EXTRACT: note_on channel=11 note=86 velocity=0 time=0.0078125
EXTRACT: note_on channel=11 note=74 velocity=0 time=0
EXTRACT: note_on channel=12 note=74 velocity=68 time=0.045312500000000006
EXTRACT: note_on channel=9 note=35 velocity=115 time=0.0015625
EXTRACT: note_on channel=9 note=36 velocity=115 time=0
EXTRACT: control_change channel=12 control=10 value=79 time=0.0234375
EXTRACT: note_on channel=9 note=36 velocity=0 time=0.004687500000000001
EXTRACT: note_on channel=9 note=35 velocity=0 time=0
EXTRACT: control_change channel=12 control=10 value=83 time=0.034375
EXTRACT: control_change channel=12 control=10 value=87 time=0.0390625
EXTRACT: note_on channel=12 note=74 velocity=0 time=0.03125
EXTRACT: control_change channel=12 control=10 value=91 time=0.0078125
EXTRACT: note_on channel=2 note=59 velocity=0 time=0.015625
EXTRACT: note_on channel=3 note=85 velocity=0 time=0.0078125
EXTRACT: note_on channel=2 note=59 velocity=90 time=0.0171875
EXTRACT: note_on channel=11 note=86 velocity=86 time=0.009375000000000001
EXTRACT: note_on channel=11 note=74 velocity=83 time=0.0015625
EXTRACT: note_on channel=3 note=83 velocity=91 time=0.003125
EXTRACT: note_on channel=9 note=39 velocity=113 time=0
EXTRACT: note_on channel=12 note=74 velocity=72 time=0.003125
EXTRACT: control_change channel=12 control=10 value=99 time=0.0203125
EXTRACT: note_on channel=9 note=39 velocity=0 time=0.004687500000000001
EXTRACT: control_change channel=12 control=10 value=103 time=0.034375
EXTRACT: control_change channel=12 control=10 value=107 time=0.0390625
EXTRACT: note_on channel=12 note=74 velocity=0 time=0.0234375
EXTRACT: note_on channel=11 note=74 velocity=0 time=0.0078125
EXTRACT: note_on channel=11 note=86 velocity=0 time=0
EXTRACT: note_on channel=4 note=73 velocity=73 time=0.046875
EXTRACT: note_on channel=9 note=35 velocity=115 time=0
EXTRACT: note_on channel=9 note=36 velocity=115 time=0
EXTRACT: note_on channel=10 note=60 velocity=60 time=0
EXTRACT: note_on channel=4 note=66 velocity=75 time=0.003125
EXTRACT: note_on channel=4 note=69 velocity=74 time=0.0015625
EXTRACT: note_on channel=11 note=74 velocity=83 time=0
EXTRACT: note_on channel=11 note=86 velocity=85 time=0.003125
EXTRACT: note_on channel=12 note=74 velocity=71 time=0.003125
EXTRACT: note_on channel=9 note=36 velocity=0 time=0.0171875
EXTRACT: note_on channel=9 note=35 velocity=0 time=0
EXTRACT: note_on channel=10 note=60 velocity=0 time=0
EXTRACT: control_change channel=12 control=10 value=119 time=0.010937500000000001
EXTRACT: control_change channel=12 control=10 value=123 time=0.0390625
EXTRACT: control_change channel=12 control=10 value=121 time=0.0390625
EXTRACT: note_on channel=12 note=74 velocity=0 time=0.015625
EXTRACT: note_on channel=11 note=86 velocity=0 time=0.0078125
EXTRACT: note_on channel=11 note=74 velocity=0 time=0
EXTRACT: note_on channel=2 note=57 velocity=0 time=0.015625
EXTRACT: note_on channel=4 note=69 velocity=0 time=0
EXTRACT: note_on channel=4 note=66 velocity=0 time=0
EXTRACT: note_on channel=4 note=73 velocity=0 time=0
EXTRACT: note_on channel=3 note=83 velocity=0 time=0.0078125
EXTRACT: note_on channel=12 note=73 velocity=72 time=0.010937500000000001
EXTRACT: note_on channel=3 note=81 velocity=75 time=0.003125
EXTRACT: note_on channel=4 note=69 velocity=78 time=0
EXTRACT: note_on channel=4 note=73 velocity=78 time=0.003125
EXTRACT: note_on channel=11 note=73 velocity=85 time=0
EXTRACT: note_on channel=4 note=66 velocity=75 time=0.004687500000000001
EXTRACT: note_on channel=9 note=35 velocity=115 time=0.0015625
EXTRACT: note_on channel=9 note=36 velocity=115 time=0
EXTRACT: note_on channel=10 note=60 velocity=78 time=0
EXTRACT: note_on channel=11 note=85 velocity=84 time=0.003125
EXTRACT: note_on channel=2 note=57 velocity=78 time=0.003125
EXTRACT: control_change channel=12 control=10 value=113 time=0.0015625
EXTRACT: note_on channel=9 note=36 velocity=0 time=0.0203125
EXTRACT: note_on channel=9 note=35 velocity=0 time=0
EXTRACT: note_on channel=10 note=60 velocity=0 time=0
EXTRACT: control_change channel=12 control=10 value=109 time=0.018750000000000003
EXTRACT: control_change channel=12 control=10 value=105 time=0.0390625
EXTRACT: control_change channel=12 control=10 value=101 time=0.0390625
EXTRACT: note_on channel=12 note=73 velocity=0 time=0.0078125
EXTRACT: note_on channel=11 note=85 velocity=0 time=0.0078125
EXTRACT: note_on channel=11 note=73 velocity=0 time=0
EXTRACT: note_on channel=4 note=66 velocity=0 time=0.015625
EXTRACT: note_on channel=4 note=73 velocity=0 time=0
EXTRACT: note_on channel=4 note=69 velocity=0 time=0
EXTRACT: note_on channel=3 note=81 velocity=0 time=0.0078125
EXTRACT: note_on channel=11 note=86 velocity=86 time=0.0140625
EXTRACT: note_on channel=4 note=66 velocity=74 time=0.003125
EXTRACT: note_on channel=11 note=74 velocity=84 time=0.003125
EXTRACT: note_on channel=12 note=74 velocity=68 time=0
EXTRACT: note_on channel=4 note=69 velocity=77 time=0.003125
EXTRACT: note_on channel=9 note=35 velocity=115 time=0
EXTRACT: note_on channel=9 note=36 velocity=115 time=0
EXTRACT: note_on channel=10 note=60 velocity=96 time=0
EXTRACT: note_on channel=3 note=83 velocity=74 time=0.0015625
EXTRACT: note_on channel=4 note=73 velocity=77 time=0.003125
EXTRACT: control_change channel=12 control=10 value=93 time=0.010937500000000001
EXTRACT: note_on channel=9 note=36 velocity=0 time=0.0125
EXTRACT: note_on channel=9 note=35 velocity=0 time=0
EXTRACT: note_on channel=10 note=60 velocity=0 time=0
EXTRACT: control_change channel=12 control=10 value=89 time=0.026562500000000003
EXTRACT: control_change channel=12 control=10 value=85 time=0.0390625
EXTRACT: note_on channel=12 note=74 velocity=0 time=0.0390625
EXTRACT: control_change channel=12 control=10 value=81 time=0
EXTRACT: note_on channel=11 note=74 velocity=0 time=0.0078125
EXTRACT: note_on channel=11 note=86 velocity=0 time=0
EXTRACT: note_on channel=1 note=35 velocity=0 time=0.0078125
EXTRACT: note_on channel=2 note=57 velocity=0 time=0.0078125
EXTRACT: note_on channel=2 note=59 velocity=0 time=0
EXTRACT: note_on channel=2 note=47 velocity=0 time=0
EXTRACT: note_on channel=2 note=62 velocity=0 time=0
EXTRACT: note_on channel=2 note=54 velocity=0 time=0
EXTRACT: note_on channel=4 note=73 velocity=0 time=0
EXTRACT: note_on channel=4 note=69 velocity=0 time=0
EXTRACT: note_on channel=4 note=66 velocity=0 time=0
EXTRACT: note_on channel=6 note=59 velocity=0 time=0
EXTRACT: note_on channel=7 note=78 velocity=0 time=0
EXTRACT: note_on channel=7 note=74 velocity=0 time=0
EXTRACT: note_on channel=7 note=59 velocity=0 time=0
EXTRACT: note_on channel=8 note=59 velocity=0 time=0
EXTRACT: note_on channel=8 note=47 velocity=0 time=0
EXTRACT: note_on channel=8 note=54 velocity=0 time=0
EXTRACT: note_on channel=8 note=50 velocity=0 time=0
EXTRACT: note_on channel=3 note=83 velocity=0 time=0.0078125
EXTRACT: note_on channel=8 note=49 velocity=58 time=0.010937500000000001
EXTRACT: note_on channel=1 note=42 velocity=74 time=0.00625
EXTRACT: note_on channel=3 note=85 velocity=93 time=0.0015625
EXTRACT: note_on channel=8 note=57 velocity=58 time=0
EXTRACT: note_on channel=11 note=69 velocity=83 time=0
EXTRACT: note_on channel=6 note=54 velocity=77 time=0.0015625
EXTRACT: note_on channel=7 note=69 velocity=58 time=0
EXTRACT: note_on channel=12 note=69 velocity=72 time=0
EXTRACT: note_on channel=7 note=66 velocity=61 time=0.0015625
EXTRACT: note_on channel=2 note=42 velocity=90 time=0.0015625
EXTRACT: note_on channel=8 note=54 velocity=62 time=0
EXTRACT: note_on channel=9 note=35 velocity=115 time=0
EXTRACT: note_on channel=9 note=36 velocity=115 time=0
EXTRACT: note_on channel=10 note=60 velocity=115 time=0
EXTRACT: note_on channel=2 note=57 velocity=92 time=0.0015625
EXTRACT: note_on channel=7 note=54 velocity=60 time=0
EXTRACT: note_on channel=8 note=42 velocity=62 time=0.0015625
EXTRACT: note_on channel=2 note=61 velocity=90 time=0.0015625
EXTRACT: note_on channel=11 note=81 velocity=87 time=0.003125
EXTRACT: note_on channel=2 note=54 velocity=89 time=0.004687500000000001
EXTRACT: control_change channel=12 control=10 value=73 time=0.010937500000000001
EXTRACT: note_on channel=9 note=36 velocity=0 time=0.004687500000000001
EXTRACT: note_on channel=9 note=35 velocity=0 time=0
EXTRACT: note_on channel=10 note=60 velocity=0 time=0
EXTRACT: control_change channel=12 control=10 value=69 time=0.034375
EXTRACT: control_change channel=12 control=10 value=65 time=0.0390625
EXTRACT: note_on channel=12 note=69 velocity=0 time=0.03125
EXTRACT: note_on channel=11 note=81 velocity=0 time=0.0078125
EXTRACT: note_on channel=11 note=69 velocity=0 time=0
EXTRACT: control_change channel=12 control=10 value=61 time=0
EXTRACT: note_on channel=2 note=54 velocity=0 time=0.203125
EXTRACT: note_on channel=3 note=85 velocity=0 time=0.0078125
EXTRACT: note_on channel=2 note=54 velocity=81 time=0.0171875
EXTRACT: note_on channel=11 note=78 velocity=86 time=0.003125
EXTRACT: note_on channel=3 note=83 velocity=82 time=0.0015625
EXTRACT: note_on channel=12 note=66 velocity=69 time=0.0015625
EXTRACT: control_change channel=12 control=10 value=37 time=0
EXTRACT: note_on channel=11 note=66 velocity=86 time=0.009375000000000001
EXTRACT: control_change channel=12 control=10 value=33 time=0.029687500000000002
EXTRACT: control_change channel=12 control=10 value=29 time=0.0390625
EXTRACT: control_change channel=12 control=10 value=25 time=0.0390625
EXTRACT: note_on channel=12 note=66 velocity=0 time=0.015625
EXTRACT: note_on channel=11 note=66 velocity=0 time=0.0078125
EXTRACT: note_on channel=11 note=78 velocity=0 time=0
EXTRACT: note_on channel=11 note=80 velocity=86 time=0.035937500000000004
EXTRACT: note_on channel=12 note=68 velocity=68 time=0.0015625
EXTRACT: note_on channel=11 note=68 velocity=86 time=0.0140625
EXTRACT: control_change channel=12 control=10 value=17 time=0.003125
EXTRACT: control_change channel=12 control=10 value=15 time=0.0390625
EXTRACT: control_change channel=12 control=10 value=19 time=0.0390625
EXTRACT: control_change channel=12 control=10 value=23 time=0.0390625
EXTRACT: note_on channel=12 note=68 velocity=0 time=0.0078125
EXTRACT: note_on channel=11 note=68 velocity=0 time=0.0078125
EXTRACT: note_on channel=11 note=80 velocity=0 time=0
EXTRACT: note_on channel=2 note=61 velocity=0 time=0.015625
EXTRACT: note_on channel=2 note=57 velocity=0 time=0
EXTRACT: note_on channel=2 note=61 velocity=86 time=0.021875000000000002
EXTRACT: note_on channel=11 note=81 velocity=85 time=0.0015625
EXTRACT: note_on channel=9 note=39 velocity=116 time=0.003125
EXTRACT: note_on channel=4 note=73 velocity=90 time=0.0015625
EXTRACT: note_on channel=4 note=66 velocity=86 time=0.003125
EXTRACT: note_on channel=2 note=57 velocity=86 time=0.004687500000000001
EXTRACT: note_on channel=12 note=69 velocity=71 time=0
EXTRACT: note_on channel=4 note=69 velocity=87 time=0.0015625
EXTRACT: note_on channel=11 note=69 velocity=85 time=0.00625
EXTRACT: control_change channel=12 control=10 value=31 time=0.003125
EXTRACT: note_on channel=9 note=39 velocity=0 time=0.0078125
EXTRACT: control_change channel=12 control=10 value=35 time=0.03125
EXTRACT: control_change channel=12 control=10 value=39 time=0.0390625
EXTRACT: note_on channel=12 note=69 velocity=0 time=0.0390625
EXTRACT: control_change channel=12 control=10 value=43 time=0
EXTRACT: note_on channel=11 note=69 velocity=0 time=0.0078125
EXTRACT: note_on channel=11 note=81 velocity=0 time=0
EXTRACT: note_on channel=4 note=73 velocity=0 time=0.015625
EXTRACT: note_on channel=4 note=71 velocity=70 time=0.029687500000000002
EXTRACT: note_on channel=4 note=71 velocity=0 time=0.15781250000000002
EXTRACT: note_on channel=4 note=69 velocity=0 time=0
EXTRACT: note_on channel=4 note=66 velocity=0 time=0
EXTRACT: note_on channel=3 note=83 velocity=0 time=0.0078125
EXTRACT: note_on channel=4 note=69 velocity=80 time=0.010937500000000001
EXTRACT: note_on channel=4 note=71 velocity=77 time=0
EXTRACT: note_on channel=4 note=66 velocity=78 time=0.003125
EXTRACT: control_change channel=12 control=10 value=67 time=0.0015625
EXTRACT: note_on channel=12 note=69 velocity=72 time=0.003125
EXTRACT: note_on channel=11 note=69 velocity=84 time=0.009375000000000001
EXTRACT: note_on channel=11 note=81 velocity=85 time=0.0015625
EXTRACT: control_change channel=12 control=10 value=71 time=0.025
EXTRACT: control_change channel=12 control=10 value=75 time=0.0390625
EXTRACT: control_change channel=12 control=10 value=79 time=0.0390625
EXTRACT: note_on channel=12 note=69 velocity=0 time=0.0234375
EXTRACT: note_on channel=11 note=81 velocity=0 time=0.0078125
EXTRACT: note_on channel=11 note=69 velocity=0 time=0
EXTRACT: note_on channel=2 note=54 velocity=0 time=0.203125
EXTRACT: note_on channel=4 note=66 velocity=0 time=0
EXTRACT: note_on channel=4 note=71 velocity=0 time=0
EXTRACT: note_on channel=4 note=69 velocity=0 time=0
EXTRACT: note_on channel=12 note=69 velocity=71 time=0.025
EXTRACT: note_on channel=9 note=36 velocity=115 time=0.00625
EXTRACT: note_on channel=11 note=69 velocity=86 time=0
EXTRACT: note_on channel=11 note=81 velocity=86 time=0.003125
EXTRACT: note_on channel=3 note=85 velocity=88 time=0.0015625
EXTRACT: control_change channel=12 control=10 value=107 time=0.003125
EXTRACT: note_on channel=2 note=54 velocity=87 time=0.003125
EXTRACT: note_on channel=9 note=36 velocity=0 time=0.0171875
EXTRACT: control_change channel=12 control=10 value=111 time=0.018750000000000003
EXTRACT: control_change channel=12 control=10 value=115 time=0.0390625
EXTRACT: control_change channel=12 control=10 value=119 time=0.0390625
EXTRACT: note_on channel=12 note=69 velocity=0 time=0.0078125
EXTRACT: note_on channel=11 note=81 velocity=0 time=0.0078125
EXTRACT: note_on channel=11 note=69 velocity=0 time=0
EXTRACT: note_on channel=12 note=69 velocity=70 time=0.037500000000000006
EXTRACT: control_change channel=12 control=10 value=121 time=0.025
EXTRACT: control_change channel=12 control=10 value=117 time=0.0390625
EXTRACT: control_change channel=12 control=10 value=113 time=0.0390625
EXTRACT: note_on channel=12 note=69 velocity=0 time=0.0390625
EXTRACT: control_change channel=12 control=10 value=109 time=0
EXTRACT: note_on channel=2 note=57 velocity=0 time=0.0234375
EXTRACT: note_on channel=3 note=85 velocity=0 time=0.0078125
EXTRACT: note_on channel=11 note=69 velocity=87 time=0.0171875
EXTRACT: note_on channel=9 note=35 velocity=115 time=0.00625
EXTRACT: note_on channel=9 note=36 velocity=115 time=0
EXTRACT: note_on channel=2 note=57 velocity=76 time=0.003125
EXTRACT: note_on channel=3 note=83 velocity=77 time=0.004687500000000001
EXTRACT: note_on channel=12 note=69 velocity=69 time=0.003125
EXTRACT: note_on channel=11 note=81 velocity=86 time=0.0015625
EXTRACT: control_change channel=12 control=10 value=101 time=0.010937500000000001
EXTRACT: note_on channel=9 note=36 velocity=0 time=0.004687500000000001
EXTRACT: note_on channel=9 note=35 velocity=0 time=0
EXTRACT: control_change channel=12 control=10 value=97 time=0.034375
EXTRACT: control_change channel=12 control=10 value=93 time=0.0390625
EXTRACT: note_on channel=12 note=69 velocity=0 time=0.03125
EXTRACT: note_on channel=11 note=81 velocity=0 time=0.0078125
EXTRACT: note_on channel=11 note=69 velocity=0 time=0
EXTRACT: control_change channel=12 control=10 value=89 time=0
EXTRACT: note_on channel=3 note=83 velocity=0 time=0.0234375
EXTRACT: note_on channel=12 note=69 velocity=71 time=0.028125
EXTRACT: note_on channel=3 note=81 velocity=77 time=0.0015625
EXTRACT: control_change channel=12 control=10 value=81 time=0.025
EXTRACT: control_change channel=12 control=10 value=77 time=0.0390625
EXTRACT: control_change channel=12 control=10 value=73 time=0.0390625
EXTRACT: note_on channel=12 note=69 velocity=0 time=0.0234375
EXTRACT: note_on channel=3 note=81 velocity=0 time=0.03125
EXTRACT: note_on channel=9 note=39 velocity=115 time=0.0125
EXTRACT: note_on channel=3 note=78 velocity=86 time=0.00625
EXTRACT: control_change channel=12 control=10 value=65 time=0.004687500000000001
EXTRACT: note_on channel=12 note=69 velocity=71 time=0.004687500000000001
EXTRACT: note_on channel=11 note=69 velocity=86 time=0.0015625
EXTRACT: note_on channel=11 note=81 velocity=85 time=0.003125
EXTRACT: note_on channel=9 note=39 velocity=0 time=0.0078125
EXTRACT: control_change channel=12 control=10 value=61 time=0.021875000000000002
EXTRACT: control_change channel=12 control=10 value=57 time=0.0390625
EXTRACT: control_change channel=12 control=10 value=53 time=0.0390625
EXTRACT: note_on channel=12 note=69 velocity=0 time=0.015625
EXTRACT: note_on channel=11 note=81 velocity=0 time=0.0078125
EXTRACT: note_on channel=11 note=69 velocity=0 time=0
EXTRACT: note_on channel=3 note=78 velocity=0 time=0.0234375
EXTRACT: note_on channel=4 note=64 velocity=76 time=0.021875000000000002
EXTRACT: note_on channel=4 note=61 velocity=73 time=0
EXTRACT: note_on channel=9 note=35 velocity=115 time=0.0015625
EXTRACT: note_on channel=9 note=36 velocity=115 time=0
EXTRACT: note_on channel=4 note=66 velocity=72 time=0.010937500000000001
EXTRACT: note_on channel=9 note=36 velocity=0 time=0.0171875
EXTRACT: note_on channel=9 note=35 velocity=0 time=0
EXTRACT: note_on channel=4 note=66 velocity=0 time=0.12812500000000002
EXTRACT: note_on channel=4 note=61 velocity=0 time=0
EXTRACT: note_on channel=4 note=64 velocity=0 time=0
EXTRACT: note_on channel=12 note=69 velocity=70 time=0.026562500000000003
EXTRACT: note_on channel=4 note=69 velocity=80 time=0.0015625
EXTRACT: note_on channel=11 note=81 velocity=85 time=0.00625
EXTRACT: note_on channel=4 note=68 velocity=78 time=0.003125
EXTRACT: note_on channel=4 note=64 velocity=76 time=0.0015625
EXTRACT: note_on channel=11 note=69 velocity=85 time=0
EXTRACT: control_change channel=12 control=10 value=25 time=0.0078125
EXTRACT: control_change channel=12 control=10 value=21 time=0.0390625
EXTRACT: control_change channel=12 control=10 value=17 time=0.0390625
EXTRACT: note_on channel=12 note=69 velocity=0 time=0.0390625
EXTRACT: control_change channel=12 control=10 value=15 time=0
EXTRACT: note_on channel=11 note=69 velocity=0 time=0.0078125
EXTRACT: note_on channel=11 note=81 velocity=0 time=0
EXTRACT: note_on channel=4 note=64 velocity=0 time=0.015625
EXTRACT: note_on channel=4 note=68 velocity=0 time=0
EXTRACT: note_on channel=4 note=69 velocity=0 time=0
EXTRACT: note_on channel=12 note=69 velocity=68 time=0.0203125
EXTRACT: note_on channel=4 note=69 velocity=78 time=0.003125
EXTRACT: note_on channel=11 note=69 velocity=87 time=0
EXTRACT: note_on channel=11 note=81 velocity=84 time=0.0015625
EXTRACT: note_on channel=4 note=71 velocity=78 time=0.010937500000000001
EXTRACT: note_on channel=4 note=64 velocity=78 time=0.004687500000000001
EXTRACT: control_change channel=12 control=10 value=23 time=0.0140625
EXTRACT: control_change channel=12 control=10 value=27 time=0.0390625
EXTRACT: control_change channel=12 control=10 value=31 time=0.0390625
EXTRACT: note_on channel=12 note=69 velocity=0 time=0.03125
EXTRACT: note_on channel=11 note=81 velocity=0 time=0.0078125
EXTRACT: note_on channel=11 note=69 velocity=0 time=0
EXTRACT: control_change channel=12 control=10 value=35 time=0
EXTRACT: note_on channel=1 note=42 velocity=0 time=0.0078125
EXTRACT: note_on channel=2 note=57 velocity=0 time=0.0078125
EXTRACT: note_on channel=2 note=54 velocity=0 time=0
EXTRACT: note_on channel=2 note=61 velocity=0 time=0
EXTRACT: note_on channel=2 note=42 velocity=0 time=0
EXTRACT: note_on channel=4 note=64 velocity=0 time=0
EXTRACT: note_on channel=4 note=71 velocity=0 time=0
EXTRACT: note_on channel=4 note=69 velocity=0 time=0
EXTRACT: note_on channel=6 note=54 velocity=0 time=0
EXTRACT: note_on channel=7 note=54 velocity=0 time=0
EXTRACT: note_on channel=7 note=66 velocity=0 time=0
EXTRACT: note_on channel=7 note=69 velocity=0 time=0
EXTRACT: note_on channel=8 note=42 velocity=0 time=0
EXTRACT: note_on channel=8 note=49 velocity=0 time=0
EXTRACT: note_on channel=8 note=57 velocity=0 time=0
EXTRACT: note_on channel=8 note=54 velocity=0 time=0
EXTRACT: note_on channel=7 note=50 velocity=61 time=0.0203125
EXTRACT: note_on channel=11 note=81 velocity=86 time=0
EXTRACT: note_on channel=12 note=69 velocity=68 time=0.0015625
EXTRACT: control_change channel=12 control=10 value=39 time=0.0015625
EXTRACT: note_on channel=7 note=66 velocity=59 time=0.0015625
EXTRACT: note_on channel=1 note=38 velocity=73 time=0.0015625
EXTRACT: note_on channel=6 note=54 velocity=77 time=0
EXTRACT: note_on channel=7 note=69 velocity=58 time=0
EXTRACT: note_on channel=2 note=54 velocity=92 time=0.0015625
EXTRACT: note_on channel=8 note=38 velocity=61 time=0
EXTRACT: note_on channel=2 note=57 velocity=92 time=0.0015625
EXTRACT: note_on channel=2 note=50 velocity=92 time=0
EXTRACT: note_on channel=9 note=35 velocity=115 time=0.0015625
EXTRACT: note_on channel=9 note=36 velocity=115 time=0
EXTRACT: note_on channel=3 note=85 velocity=90 time=0.0015625
EXTRACT: note_on channel=8 note=50 velocity=59 time=0
EXTRACT: note_on channel=8 note=57 velocity=61 time=0.0015625
EXTRACT: note_on channel=8 note=54 velocity=61 time=0
EXTRACT: note_on channel=2 note=38 velocity=89 time=0.004687500000000001
EXTRACT: note_on channel=11 note=69 velocity=86 time=0
EXTRACT: note_on channel=9 note=36 velocity=0 time=0.0203125
EXTRACT: note_on channel=9 note=35 velocity=0 time=0
EXTRACT: control_change channel=12 control=10 value=43 time=0.003125
EXTRACT: control_change channel=12 control=10 value=47 time=0.0390625
EXTRACT: control_change channel=12 control=10 value=51 time=0.0390625
EXTRACT: note_on channel=12 note=69 velocity=0 time=0.0234375
EXTRACT: note_on channel=11 note=69 velocity=0 time=0.0078125
EXTRACT: note_on channel=11 note=81 velocity=0 time=0
EXTRACT: note_on channel=2 note=54 velocity=0 time=0.203125
EXTRACT: note_on channel=3 note=85 velocity=0 time=0.0078125
EXTRACT: note_on channel=12 note=66 velocity=71 time=0.0140625
EXTRACT: note_on channel=11 note=78 velocity=86 time=0.003125
EXTRACT: note_on channel=11 note=66 velocity=85 time=0.004687500000000001
EXTRACT: note_on channel=2 note=54 velocity=75 time=0.003125
EXTRACT: control_change channel=12 control=10 value=79 time=0.00625
EXTRACT: note_on channel=3 note=83 velocity=75 time=0.0015625
EXTRACT: control_change channel=12 control=10 value=83 time=0.037500000000000006
EXTRACT: control_change channel=12 control=10 value=87 time=0.0390625
EXTRACT: control_change channel=12 control=10 value=91 time=0.0390625
EXTRACT: note_on channel=12 note=66 velocity=0 time=0.0078125
EXTRACT: note_on channel=11 note=66 velocity=0 time=0.0078125
EXTRACT: note_on channel=11 note=78 velocity=0 time=0
EXTRACT: note_on channel=11 note=80 velocity=87 time=0.0390625
EXTRACT: note_on channel=11 note=68 velocity=85 time=0.003125
EXTRACT: note_on channel=12 note=68 velocity=72 time=0
EXTRACT: note_on channel=9 note=35 velocity=115 time=0.004687500000000001
EXTRACT: note_on channel=9 note=36 velocity=115 time=0
EXTRACT: control_change channel=12 control=10 value=99 time=0.015625
EXTRACT: note_on channel=9 note=36 velocity=0 time=0.0125
EXTRACT: note_on channel=9 note=35 velocity=0 time=0
EXTRACT: control_change channel=12 control=10 value=103 time=0.026562500000000003
EXTRACT: control_change channel=12 control=10 value=107 time=0.0390625
EXTRACT: note_on channel=12 note=68 velocity=0 time=0.0390625
EXTRACT: control_change channel=12 control=10 value=111 time=0
EXTRACT: note_on channel=11 note=68 velocity=0 time=0.0078125
EXTRACT: note_on channel=11 note=80 velocity=0 time=0
EXTRACT: note_on channel=2 note=57 velocity=0 time=0.015625
EXTRACT: note_on channel=11 note=69 velocity=86 time=0.0203125
EXTRACT: note_on channel=4 note=57 velocity=89 time=0.0078125
EXTRACT: note_on channel=12 note=69 velocity=72 time=0.004687500000000001
EXTRACT: note_on channel=2 note=59 velocity=86 time=0.0015625
EXTRACT: note_on channel=9 note=39 velocity=117 time=0
EXTRACT: note_on channel=4 note=66 velocity=89 time=0.0015625
EXTRACT: note_on channel=11 note=81 velocity=83 time=0
EXTRACT: note_on channel=4 note=73 velocity=88 time=0.004687500000000001
EXTRACT: control_change channel=12 control=10 value=119 time=0.0140625
EXTRACT: note_on channel=9 note=39 velocity=0 time=0.0078125
EXTRACT: control_change channel=12 control=10 value=123 time=0.03125
EXTRACT: control_change channel=12 control=10 value=121 time=0.0390625
EXTRACT: note_on channel=12 note=69 velocity=0 time=0.03125
EXTRACT: note_on channel=11 note=81 velocity=0 time=0.0078125
EXTRACT: note_on channel=11 note=69 velocity=0 time=0
EXTRACT: control_change channel=12 control=10 value=117 time=0
EXTRACT: note_on channel=4 note=73 velocity=0 time=0.015625
EXTRACT: note_on channel=4 note=66 velocity=0 time=0
EXTRACT: note_on channel=4 note=57 velocity=0 time=0
EXTRACT: note_on channel=4 note=71 velocity=70 time=0.025
EXTRACT: note_on channel=4 note=66 velocity=74 time=0.010937500000000001
EXTRACT: note_on channel=4 note=57 velocity=72 time=0.003125
EXTRACT: note_on channel=2 note=59 velocity=0 time=0.1484375
EXTRACT: note_on channel=4 note=57 velocity=0 time=0
EXTRACT: note_on channel=4 note=66 velocity=0 time=0
EXTRACT: note_on channel=4 note=71 velocity=0 time=0
EXTRACT: note_on channel=3 note=83 velocity=0 time=0.0078125
EXTRACT: note_on channel=11 note=69 velocity=84 time=0.015625
EXTRACT: note_on channel=4 note=57 velocity=78 time=0.004687500000000001
EXTRACT: note_on channel=12 note=69 velocity=68 time=0.003125
EXTRACT: control_change channel=12 control=10 value=93 time=0
EXTRACT: note_on channel=11 note=81 velocity=86 time=0.0015625
EXTRACT: note_on channel=2 note=57 velocity=80 time=0.003125
EXTRACT: note_on channel=4 note=66 velocity=79 time=0
EXTRACT: note_on channel=4 note=71 velocity=80 time=0.004687500000000001
EXTRACT: control_change channel=12 control=10 value=89 time=0.029687500000000002
EXTRACT: control_change channel=12 control=10 value=85 time=0.0390625
EXTRACT: control_change channel=12 control=10 value=81 time=0.0390625
EXTRACT: note_on channel=12 note=69 velocity=0 time=0.015625
EXTRACT: note_on channel=11 note=81 velocity=0 time=0.0078125
EXTRACT: note_on channel=11 note=69 velocity=0 time=0
EXTRACT: note_on channel=12 note=69 velocity=70 time=0.0390625
EXTRACT: control_change channel=12 control=10 value=73 time=0.015625
EXTRACT: control_change channel=12 control=10 value=69 time=0.0390625
EXTRACT: control_change channel=12 control=10 value=65 time=0.0390625
EXTRACT: control_change channel=12 control=10 value=61 time=0.0390625
EXTRACT: note_on channel=12 note=69 velocity=0 time=0.0078125
EXTRACT: note_on channel=2 note=54 velocity=0 time=0.0234375
EXTRACT: note_on channel=2 note=50 velocity=0 time=0
EXTRACT: note_on channel=4 note=71 velocity=0 time=0
EXTRACT: note_on channel=4 note=66 velocity=0 time=0
EXTRACT: note_on channel=4 note=57 velocity=0 time=0
EXTRACT: note_on channel=11 note=81 velocity=85 time=0.0203125
EXTRACT: note_on channel=3 note=83 velocity=86 time=0.0015625
EXTRACT: note_on channel=12 note=69 velocity=69 time=0
EXTRACT: note_on channel=11 note=69 velocity=86 time=0.004687500000000001
EXTRACT: note_on channel=2 note=54 velocity=87 time=0.003125
EXTRACT: note_on channel=9 note=36 velocity=115 time=0.0015625
EXTRACT: note_on channel=2 note=50 velocity=87 time=0.009375000000000001
EXTRACT: control_change channel=12 control=10 value=53 time=0.00625
EXTRACT: note_on channel=9 note=36 velocity=0 time=0.0125
EXTRACT: control_change channel=12 control=10 value=49 time=0.026562500000000003
EXTRACT: control_change channel=12 control=10 value=45 time=0.0390625
EXTRACT: note_on channel=12 note=69 velocity=0 time=0.0390625
EXTRACT: control_change channel=12 control=10 value=41 time=0
EXTRACT: note_on channel=11 note=69 velocity=0 time=0.0078125
EXTRACT: note_on channel=11 note=81 velocity=0 time=0
EXTRACT: note_on channel=3 note=83 velocity=0 time=0.2109375
EXTRACT: control_change channel=12 control=10 value=17 time=0.015625
EXTRACT: note_on channel=12 note=69 velocity=69 time=0.0015625
EXTRACT: note_on channel=3 note=81 velocity=79 time=0.003125
EXTRACT: note_on channel=11 note=81 velocity=87 time=0
EXTRACT: note_on channel=11 note=69 velocity=85 time=0.0078125
EXTRACT: control_change channel=12 control=10 value=15 time=0.026562500000000003
EXTRACT: control_change channel=12 control=10 value=19 time=0.0390625
EXTRACT: control_change channel=12 control=10 value=23 time=0.0390625
EXTRACT: note_on channel=12 note=69 velocity=0 time=0.0234375
EXTRACT: note_on channel=11 note=69 velocity=0 time=0.0078125
EXTRACT: note_on channel=11 note=81 velocity=0 time=0
EXTRACT: note_on channel=12 note=69 velocity=68 time=0.037500000000000006
EXTRACT: note_on channel=9 note=36 velocity=115 time=0.009375000000000001
EXTRACT: control_change channel=12 control=10 value=31 time=0
EXTRACT: note_on channel=9 note=36 velocity=0 time=0.028125
EXTRACT: control_change channel=12 control=10 value=35 time=0.010937500000000001
EXTRACT: control_change channel=12 control=10 value=39 time=0.0390625
EXTRACT: control_change channel=12 control=10 value=43 time=0.0390625
EXTRACT: note_on channel=12 note=69 velocity=0 time=0.015625
EXTRACT: note_on channel=2 note=50 velocity=0 time=0.0234375
EXTRACT: note_on channel=2 note=57 velocity=0 time=0
EXTRACT: note_on channel=11 note=81 velocity=84 time=0.028125
EXTRACT: note_on channel=11 note=69 velocity=83 time=0.0015625
EXTRACT: note_on channel=2 note=57 velocity=90 time=0.0015625
EXTRACT: note_on channel=9 note=39 velocity=113 time=0.0078125
EXTRACT: note_on channel=12 note=69 velocity=70 time=0
EXTRACT: control_change channel=12 control=10 value=51 time=0
EXTRACT: note_on channel=2 note=50 velocity=89 time=0.004687500000000001
EXTRACT: note_on channel=9 note=39 velocity=0 time=0.0234375
EXTRACT: control_change channel=12 control=10 value=55 time=0.010937500000000001
EXTRACT: control_change channel=12 control=10 value=59 time=0.0390625
EXTRACT: control_change channel=12 control=10 value=63 time=0.0390625
EXTRACT: note_on channel=12 note=69 velocity=0 time=0.0078125
EXTRACT: note_on channel=11 note=69 velocity=0 time=0.0078125
EXTRACT: note_on channel=11 note=81 velocity=0 time=0
EXTRACT: note_on channel=9 note=35 velocity=115 time=0.046875
EXTRACT: note_on channel=9 note=36 velocity=115 time=0
EXTRACT: note_on channel=12 note=69 velocity=69 time=0
EXTRACT: control_change channel=12 control=10 value=71 time=0.015625
EXTRACT: note_on channel=9 note=36 velocity=0 time=0.0125
EXTRACT: note_on channel=9 note=35 velocity=0 time=0
EXTRACT: control_change channel=12 control=10 value=75 time=0.026562500000000003
EXTRACT: control_change channel=12 control=10 value=79 time=0.0390625
EXTRACT: note_on channel=12 note=69 velocity=0 time=0.0390625
EXTRACT: control_change channel=12 control=10 value=83 time=0
EXTRACT: note_on channel=2 note=59 velocity=75 time=0.0484375
EXTRACT: note_on channel=5 note=69 velocity=81 time=0.0015625
EXTRACT: note_on channel=9 note=35 velocity=115 time=0.004687500000000001
EXTRACT: note_on channel=9 note=36 velocity=115 time=0
EXTRACT: note_on channel=11 note=69 velocity=87 time=0
EXTRACT: note_on channel=12 note=69 velocity=72 time=0.009375000000000001
EXTRACT: note_on channel=11 note=81 velocity=87 time=0.0015625
EXTRACT: control_change channel=12 control=10 value=91 time=0.0125
EXTRACT: note_on channel=9 note=36 velocity=0 time=0.004687500000000001
EXTRACT: note_on channel=9 note=35 velocity=0 time=0
EXTRACT: control_change channel=12 control=10 value=95 time=0.034375
EXTRACT: control_change channel=12 control=10 value=99 time=0.0390625
EXTRACT: note_on channel=12 note=69 velocity=0 time=0.03125
EXTRACT: note_on channel=11 note=81 velocity=0 time=0.0078125
EXTRACT: note_on channel=11 note=69 velocity=0 time=0
EXTRACT: control_change channel=12 control=10 value=103 time=0
EXTRACT: note_on channel=9 note=36 velocity=115 time=0.046875
EXTRACT: note_on channel=12 note=69 velocity=68 time=0.003125
EXTRACT: note_on channel=9 note=36 velocity=0 time=0.025
EXTRACT: control_change channel=12 control=10 value=111 time=0.003125
EXTRACT: control_change channel=12 control=10 value=115 time=0.0390625
EXTRACT: control_change channel=12 control=10 value=119 time=0.0390625
EXTRACT: note_on channel=12 note=69 velocity=0 time=0.0234375
EXTRACT: note_on channel=1 note=38 velocity=0 time=0.015625
EXTRACT: note_on channel=2 note=59 velocity=0 time=0.0078125
EXTRACT: note_on channel=2 note=57 velocity=0 time=0
EXTRACT: note_on channel=2 note=38 velocity=0 time=0
EXTRACT: note_on channel=2 note=54 velocity=0 time=0
EXTRACT: note_on channel=2 note=50 velocity=0 time=0
EXTRACT: note_on channel=6 note=54 velocity=0 time=0
EXTRACT: note_on channel=7 note=69 velocity=0 time=0
EXTRACT: note_on channel=7 note=66 velocity=0 time=0
EXTRACT: note_on channel=7 note=50 velocity=0 time=0
EXTRACT: note_on channel=8 note=54 velocity=0 time=0
EXTRACT: note_on channel=8 note=38 velocity=0 time=0
EXTRACT: note_on channel=8 note=50 velocity=0 time=0
EXTRACT: note_on channel=8 note=57 velocity=0 time=0
EXTRACT: note_on channel=7 note=73 velocity=60 time=0.03125
EXTRACT: note_on channel=9 note=36 velocity=115 time=0
EXTRACT: note_on channel=6 note=57 velocity=76 time=0.004687500000000001
EXTRACT: note_on channel=2 note=57 velocity=90 time=0.0015625
EXTRACT: note_on channel=7 note=57 velocity=59 time=0
EXTRACT: note_on channel=1 note=45 velocity=73 time=0.00625
EXTRACT: note_on channel=9 note=36 velocity=0 time=0.015625
EXTRACT: note_on channel=3 note=81 velocity=0 time=0.13593750000000002
EXTRACT: note_on channel=3 note=88 velocity=74 time=0.021875000000000002
EXTRACT: note_on channel=3 note=88 velocity=0 time=0.16562500000000002
EXTRACT: note_on channel=3 note=85 velocity=80 time=0.028125
EXTRACT: note_on channel=3 note=85 velocity=0 time=0.34687500000000004
EXTRACT: note_on channel=5 note=69 velocity=0 time=0.1796875
EXTRACT: note_on channel=5 note=76 velocity=75 time=0.021875000000000002
EXTRACT: note_on channel=5 note=76 velocity=0 time=0.16562500000000002
EXTRACT: note_on channel=5 note=73 velocity=78 time=0.034375
EXTRACT: note_on channel=5 note=73 velocity=0 time=0.340625
EXTRACT: note_on channel=3 note=85 velocity=88 time=0.028125
EXTRACT: note_on channel=3 note=85 velocity=0 time=0.08125
EXTRACT: note_on channel=3 note=85 velocity=73 time=0.1125
EXTRACT: note_on channel=3 note=85 velocity=0 time=0.1609375
EXTRACT: note_on channel=3 note=85 velocity=76 time=0.0140625
EXTRACT: note_on channel=3 note=85 velocity=0 time=0.08750000000000001
EXTRACT: note_on channel=3 note=85 velocity=78 time=0.10625000000000001
EXTRACT: note_on channel=3 note=85 velocity=0 time=0.16718750000000002
EXTRACT: note_on channel=3 note=85 velocity=84 time=0.034375
EXTRACT: note_on channel=3 note=85 velocity=0 time=0.340625
EXTRACT: note_on channel=3 note=83 velocity=78 time=0.0171875
EXTRACT: note_on channel=3 note=83 velocity=0 time=0.084375
EXTRACT: note_on channel=3 note=86 velocity=81 time=0.1015625
EXTRACT: note_on channel=1 note=45 velocity=0 time=0.15625
EXTRACT: note_on channel=2 note=57 velocity=0 time=0.0078125
EXTRACT: note_on channel=6 note=57 velocity=0 time=0
EXTRACT: note_on channel=7 note=57 velocity=0 time=0
EXTRACT: note_on channel=7 note=73 velocity=0 time=0
EXTRACT: note_on channel=7 note=59 velocity=62 time=0.026562500000000003
EXTRACT: note_on channel=7 note=74 velocity=61 time=0.004687500000000001
EXTRACT: note_on channel=1 note=47 velocity=76 time=0.0078125
EXTRACT: note_on channel=6 note=59 velocity=73 time=0.003125
EXTRACT: note_on channel=3 note=86 velocity=0 time=0.7156250000000001
EXTRACT: note_on channel=3 note=83 velocity=75 time=0.971875
EXTRACT: note_on channel=3 note=83 velocity=0 time=0.153125
EXTRACT: note_on channel=3 note=83 velocity=79 time=0.026562500000000003
EXTRACT: note_on channel=3 note=83 velocity=0 time=0.07500000000000001
EXTRACT: note_on channel=3 note=83 velocity=77 time=0.10625000000000001
EXTRACT: note_on channel=3 note=83 velocity=0 time=0.16718750000000002
EXTRACT: note_on channel=3 note=83 velocity=90 time=0.0125
EXTRACT: note_on channel=3 note=83 velocity=0 time=0.0890625
EXTRACT: note_on channel=3 note=83 velocity=71 time=0.10625000000000001
EXTRACT: note_on channel=3 note=83 velocity=0 time=0.16718750000000002
EXTRACT: note_on channel=3 note=85 velocity=79 time=0.0140625
EXTRACT: note_on channel=3 note=85 velocity=0 time=0.08750000000000001
EXTRACT: note_on channel=3 note=81 velocity=78 time=0.1046875
EXTRACT: note_on channel=3 note=81 velocity=0 time=0.08281250000000001
EXTRACT: note_on channel=1 note=47 velocity=0 time=0.0703125
EXTRACT: note_on channel=6 note=59 velocity=0 time=0.0078125
EXTRACT: note_on channel=7 note=74 velocity=0 time=0
EXTRACT: note_on channel=7 note=59 velocity=0 time=0
EXTRACT: note_on channel=7 note=66 velocity=58 time=0.0203125
EXTRACT: note_on channel=1 note=42 velocity=73 time=0.00625
EXTRACT: note_on channel=6 note=54 velocity=75 time=0
EXTRACT: note_on channel=3 note=81 velocity=89 time=0.004687500000000001
EXTRACT: note_on channel=9 note=35 velocity=115 time=0
EXTRACT: note_on channel=9 note=36 velocity=115 time=0
EXTRACT: note_on channel=7 note=69 velocity=58 time=0.004687500000000001
EXTRACT: note_on channel=9 note=36 velocity=0 time=0.0234375
EXTRACT: note_on channel=9 note=35 velocity=0 time=0
EXTRACT: note_on channel=3 note=81 velocity=0 time=0.08125
EXTRACT: note_on channel=3 note=80 velocity=75 time=0.010937500000000001
EXTRACT: note_on channel=3 note=80 velocity=0 time=0.11406250000000001
EXTRACT: note_on channel=3 note=78 velocity=75 time=0.0203125
EXTRACT: note_on channel=3 note=78 velocity=0 time=0.1046875
EXTRACT: note_on channel=3 note=76 velocity=78 time=0.0125
EXTRACT: note_on channel=3 note=76 velocity=0 time=0.1125
EXTRACT: note_on channel=3 note=73 velocity=76 time=0.021875000000000002
EXTRACT: note_on channel=3 note=73 velocity=0 time=0.10312500000000001
EXTRACT: note_on channel=3 note=71 velocity=77 time=0.00625
EXTRACT: note_on channel=3 note=71 velocity=0 time=0.11875000000000001
EXTRACT: note_on channel=3 note=69 velocity=89 time=0.018750000000000003
EXTRACT: note_on channel=9 note=39 velocity=117 time=0
EXTRACT: note_on channel=9 note=39 velocity=0 time=0.028125
EXTRACT: note_on channel=3 note=69 velocity=0 time=0.5078125
EXTRACT: note_on channel=3 note=81 velocity=88 time=0.2109375
EXTRACT: note_on channel=9 note=36 velocity=115 time=0
EXTRACT: note_on channel=9 note=36 velocity=0 time=0.028125
EXTRACT: note_on channel=3 note=81 velocity=0 time=0.13593750000000002
EXTRACT: note_on channel=3 note=81 velocity=74 time=0.026562500000000003
EXTRACT: note_on channel=3 note=81 velocity=0 time=0.07500000000000001
EXTRACT: note_on channel=3 note=81 velocity=77 time=0.1
EXTRACT: note_on channel=9 note=35 velocity=115 time=0.009375000000000001
EXTRACT: note_on channel=9 note=36 velocity=115 time=0
EXTRACT: note_on channel=9 note=36 velocity=0 time=0.028125
EXTRACT: note_on channel=9 note=35 velocity=0 time=0
EXTRACT: note_on channel=3 note=81 velocity=0 time=0.13593750000000002
EXTRACT: note_on channel=3 note=81 velocity=79 time=0.0171875
EXTRACT: note_on channel=3 note=81 velocity=0 time=0.084375
EXTRACT: note_on channel=9 note=39 velocity=113 time=0.10312500000000001
EXTRACT: note_on channel=3 note=81 velocity=85 time=0.009375000000000001
EXTRACT: note_on channel=9 note=39 velocity=0 time=0.018750000000000003
EXTRACT: note_on channel=3 note=81 velocity=0 time=0.1421875
EXTRACT: note_on channel=3 note=81 velocity=75 time=0.0171875
EXTRACT: note_on channel=9 note=35 velocity=115 time=0.00625
EXTRACT: note_on channel=9 note=36 velocity=115 time=0
EXTRACT: note_on channel=9 note=36 velocity=0 time=0.028125
EXTRACT: note_on channel=9 note=35 velocity=0 time=0
EXTRACT: note_on channel=3 note=81 velocity=0 time=0.05
EXTRACT: note_on channel=3 note=81 velocity=80 time=0.12187500000000001
EXTRACT: note_on channel=3 note=81 velocity=0 time=0.065625
EXTRACT: note_on channel=3 note=83 velocity=79 time=0.11406250000000001
EXTRACT: note_on channel=1 note=42 velocity=0 time=0.14375000000000002
EXTRACT: note_on channel=6 note=54 velocity=0 time=0.0078125
EXTRACT: note_on channel=7 note=69 velocity=0 time=0
EXTRACT: note_on channel=7 note=66 velocity=0 time=0
EXTRACT: note_on channel=3 note=83 velocity=0 time=0.0078125
EXTRACT: note_on channel=6 note=54 velocity=73 time=0.018750000000000003
EXTRACT: note_on channel=7 note=69 velocity=59 time=0.004687500000000001
EXTRACT: note_on channel=9 note=35 velocity=115 time=0
EXTRACT: note_on channel=9 note=36 velocity=115 time=0
EXTRACT: note_on channel=7 note=66 velocity=62 time=0.0015625
EXTRACT: note_on channel=3 note=81 velocity=93 time=0.003125
EXTRACT: note_on channel=1 note=38 velocity=75 time=0.0078125
EXTRACT: note_on channel=9 note=36 velocity=0 time=0.015625
EXTRACT: note_on channel=9 note=35 velocity=0 time=0
EXTRACT: note_on channel=9 note=35 velocity=115 time=0.534375
EXTRACT: note_on channel=9 note=36 velocity=115 time=0
EXTRACT: note_on channel=9 note=36 velocity=0 time=0.028125
EXTRACT: note_on channel=9 note=35 velocity=0 time=0
EXTRACT: note_on channel=3 note=81 velocity=0 time=0.13593750000000002
EXTRACT: note_on channel=9 note=39 velocity=117 time=0.018750000000000003
EXTRACT: note_on channel=9 note=39 velocity=0 time=0.028125
EXTRACT: note_on channel=3 note=76 velocity=70 time=0.16562500000000002
EXTRACT: note_on channel=3 note=76 velocity=0 time=0.0765625
EXTRACT: note_on channel=3 note=76 velocity=81 time=0.09843750000000001
EXTRACT: note_on channel=3 note=76 velocity=0 time=0.17500000000000002
EXTRACT: note_on channel=3 note=76 velocity=85 time=0.028125
EXTRACT: note_on channel=3 note=76 velocity=0 time=0.0734375
EXTRACT: note_on channel=7 note=66 velocity=0 time=0.078125
EXTRACT: note_on channel=7 note=69 velocity=0 time=0
EXTRACT: note_on channel=3 note=81 velocity=88 time=0.028125
EXTRACT: note_on channel=9 note=36 velocity=115 time=0.003125
EXTRACT: note_on channel=9 note=36 velocity=0 time=0.028125
EXTRACT: note_on channel=3 note=81 velocity=0 time=0.13593750000000002
EXTRACT: note_on channel=3 note=81 velocity=79 time=0.21406250000000002
EXTRACT: note_on channel=3 note=81 velocity=0 time=0.1609375
EXTRACT: note_on channel=9 note=36 velocity=115 time=0.0234375
EXTRACT: note_on channel=9 note=36 velocity=0 time=0.028125
EXTRACT: note_on channel=1 note=38 velocity=0 time=0.1203125
EXTRACT: note_on channel=6 note=54 velocity=0 time=0.0078125
EXTRACT: note_on channel=9 note=39 velocity=113 time=0.026562500000000003
EXTRACT: note_on channel=3 note=81 velocity=93 time=0.00625
EXTRACT: note_on channel=9 note=39 velocity=0 time=0.021875000000000002
EXTRACT: note_on channel=3 note=81 velocity=0 time=0.140625
EXTRACT: note_on channel=9 note=35 velocity=115 time=0.0234375
EXTRACT: note_on channel=9 note=36 velocity=115 time=0
EXTRACT: note_on channel=9 note=36 velocity=0 time=0.028125
EXTRACT: note_on channel=9 note=35 velocity=0 time=0
EXTRACT: note_on channel=3 note=74 velocity=78 time=0.15625
EXTRACT: note_on channel=9 note=35 velocity=115 time=0.003125
EXTRACT: note_on channel=9 note=36 velocity=115 time=0
EXTRACT: note_on channel=9 note=36 velocity=0 time=0.028125
EXTRACT: note_on channel=9 note=35 velocity=0 time=0
EXTRACT: note_on channel=3 note=74 velocity=0 time=0.13593750000000002
EXTRACT: note_on channel=3 note=73 velocity=76 time=0.0203125
EXTRACT: note_on channel=9 note=36 velocity=115 time=0.003125
EXTRACT: note_on channel=9 note=36 velocity=0 time=0.028125
EXTRACT: note_on channel=2 note=52 velocity=91 time=0.15000000000000002
EXTRACT: note_on channel=6 note=57 velocity=76 time=0.0015625
EXTRACT: control_change channel=12 control=10 value=35 time=0
EXTRACT: note_on channel=2 note=45 velocity=90 time=0.003125
EXTRACT: note_on channel=12 note=81 velocity=61 time=0.0015625
EXTRACT: note_on channel=1 note=45 velocity=75 time=0.0015625
EXTRACT: note_on channel=9 note=35 velocity=115 time=0.0015625
EXTRACT: note_on channel=9 note=36 velocity=115 time=0
EXTRACT: note_on channel=2 note=61 velocity=91 time=0.0015625
EXTRACT: note_on channel=2 note=57 velocity=92 time=0.0078125
EXTRACT: note_on channel=9 note=36 velocity=0 time=0.018750000000000003
EXTRACT: note_on channel=9 note=35 velocity=0 time=0
EXTRACT: control_change channel=12 control=10 value=39 time=0.003125
EXTRACT: note_on channel=12 note=81 velocity=0 time=0.015625
EXTRACT: control_change channel=12 control=10 value=55 time=0.140625
EXTRACT: note_on channel=12 note=81 velocity=56 time=0.004687500000000001
EXTRACT: control_change channel=12 control=10 value=59 time=0.034375
EXTRACT: note_on channel=12 note=81 velocity=0 time=0.0078125
EXTRACT: note_on channel=12 note=81 velocity=55 time=0.14375000000000002
EXTRACT: control_change channel=12 control=10 value=75 time=0.004687500000000001
EXTRACT: note_on channel=12 note=81 velocity=0 time=0.0390625
EXTRACT: control_change channel=12 control=10 value=79 time=0
EXTRACT: note_on channel=12 note=81 velocity=51 time=0.15156250000000002
EXTRACT: control_change channel=12 control=10 value=95 time=0.004687500000000001
EXTRACT: note_on channel=12 note=81 velocity=0 time=0.03125
EXTRACT: control_change channel=12 control=10 value=99 time=0.0078125
EXTRACT: note_on channel=3 note=73 velocity=0 time=0.109375
EXTRACT: note_on channel=9 note=39 velocity=116 time=0.025
EXTRACT: note_on channel=7 note=57 velocity=58 time=0.0015625
EXTRACT: note_on channel=7 note=73 velocity=58 time=0
EXTRACT: note_on channel=12 note=81 velocity=52 time=0.0015625
EXTRACT: control_change channel=12 control=10 value=115 time=0.018750000000000003
EXTRACT: note_on channel=9 note=39 velocity=0 time=0.00625
EXTRACT: note_on channel=12 note=81 velocity=0 time=0.0171875
EXTRACT: note_on channel=12 note=81 velocity=46 time=0.1453125
EXTRACT: control_change channel=12 control=10 value=113 time=0.026562500000000003
EXTRACT: note_on channel=12 note=81 velocity=0 time=0.015625
EXTRACT: note_on channel=12 note=81 velocity=47 time=0.13593750000000002
EXTRACT: control_change channel=12 control=10 value=97 time=0.004687500000000001
EXTRACT: control_change channel=12 control=10 value=93 time=0.0390625
EXTRACT: note_on channel=12 note=81 velocity=0 time=0.0078125
EXTRACT: note_on channel=12 note=81 velocity=45 time=0.13593750000000002
EXTRACT: note_on channel=3 note=76 velocity=87 time=0.010937500000000001
EXTRACT: control_change channel=12 control=10 value=77 time=0.0015625
EXTRACT: note_on channel=12 note=81 velocity=0 time=0.0390625
EXTRACT: control_change channel=12 control=10 value=73 time=0
EXTRACT: note_on channel=3 note=76 velocity=0 time=0.03125
EXTRACT: note_on channel=12 note=81 velocity=41 time=0.10625000000000001
EXTRACT: note_on channel=9 note=36 velocity=115 time=0.003125
EXTRACT: note_on channel=3 note=85 velocity=87 time=0.003125
EXTRACT: control_change channel=12 control=10 value=57 time=0.0125
EXTRACT: note_on channel=9 note=36 velocity=0 time=0.0125
EXTRACT: note_on channel=12 note=81 velocity=0 time=0.018750000000000003
EXTRACT: control_change channel=12 control=10 value=53 time=0.0078125
EXTRACT: note_on channel=12 note=81 velocity=39 time=0.1296875
EXTRACT: control_change channel=12 control=10 value=37 time=0.026562500000000003
EXTRACT: note_on channel=12 note=81 velocity=0 time=0.0234375
EXTRACT: note_on channel=3 note=85 velocity=0 time=0.1171875
EXTRACT: note_on channel=3 note=85 velocity=76 time=0.0203125
EXTRACT: note_on channel=9 note=35 velocity=115 time=0.003125
EXTRACT: note_on channel=9 note=36 velocity=115 time=0
EXTRACT: note_on channel=12 note=81 velocity=34 time=0
EXTRACT: note_on channel=9 note=36 velocity=0 time=0.028125
EXTRACT: note_on channel=9 note=35 velocity=0 time=0
EXTRACT: control_change channel=12 control=10 value=17 time=0.003125
EXTRACT: note_on channel=12 note=81 velocity=0 time=0.015625
EXTRACT: note_on channel=3 note=85 velocity=0 time=0.1171875
EXTRACT: note_on channel=3 note=85 velocity=81 time=0.015625
EXTRACT: note_on channel=12 note=81 velocity=43 time=0.004687500000000001
EXTRACT: control_change channel=12 control=10 value=27 time=0.003125
EXTRACT: control_change channel=12 control=10 value=31 time=0.0390625
EXTRACT: note_on channel=12 note=81 velocity=0 time=0.0078125
EXTRACT: note_on channel=3 note=85 velocity=0 time=0.03125
EXTRACT: note_on channel=2 note=52 velocity=0 time=0.078125
EXTRACT: note_on channel=2 note=52 velocity=86 time=0.028125
EXTRACT: note_on channel=12 note=81 velocity=51 time=0.0015625
EXTRACT: note_on channel=9 note=39 velocity=114 time=0.003125
EXTRACT: control_change channel=12 control=10 value=47 time=0.00625
EXTRACT: note_on channel=3 note=85 velocity=86 time=0.004687500000000001
EXTRACT: note_on channel=9 note=39 velocity=0 time=0.0171875
EXTRACT: note_on channel=12 note=81 velocity=0 time=0.0171875
EXTRACT: control_change channel=12 control=10 value=51 time=0
EXTRACT: note_on channel=9 note=35 velocity=115 time=0.140625
EXTRACT: note_on channel=9 note=36 velocity=115 time=0
EXTRACT: note_on channel=12 note=81 velocity=57 time=0.003125
EXTRACT: control_change channel=12 control=10 value=67 time=0.0125
EXTRACT: note_on channel=9 note=36 velocity=0 time=0.0125
EXTRACT: note_on channel=9 note=35 velocity=0 time=0
EXTRACT: note_on channel=12 note=81 velocity=0 time=0.018750000000000003
EXTRACT: control_change channel=12 control=10 value=71 time=0.0078125
EXTRACT: note_on channel=2 note=52 velocity=0 time=0.1015625
EXTRACT: note_on channel=3 note=85 velocity=0 time=0.0078125
EXTRACT: note_on channel=3 note=83 velocity=77 time=0.015625
EXTRACT: note_on channel=12 note=81 velocity=65 time=0.0015625
EXTRACT: note_on channel=2 note=52 velocity=80 time=0.015625
EXTRACT: control_change channel=12 control=10 value=87 time=0.0140625
EXTRACT: note_on channel=12 note=81 velocity=0 time=0.0234375
EXTRACT: note_on channel=3 note=83 velocity=0 time=0.03125
EXTRACT: note_on channel=12 note=81 velocity=68 time=0.11406250000000001
EXTRACT: note_on channel=2 note=59 velocity=81 time=0.00625
EXTRACT: note_on channel=3 note=83 velocity=82 time=0.0015625
EXTRACT: control_change channel=12 control=10 value=107 time=0.018750000000000003
EXTRACT: control_change channel=12 control=10 value=111 time=0.0390625
EXTRACT: control_change channel=12 control=10 value=115 time=0.0390625
EXTRACT: note_on channel=1 note=45 velocity=0 time=0.0390625
EXTRACT: control_change channel=12 control=10 value=119 time=0
EXTRACT: note_on channel=2 note=52 velocity=0 time=0.0078125
EXTRACT: note_on channel=2 note=57 velocity=0 time=0
EXTRACT: note_on channel=2 note=45 velocity=0 time=0
EXTRACT: note_on channel=2 note=61 velocity=0 time=0
EXTRACT: note_on channel=6 note=57 velocity=0 time=0
EXTRACT: note_on channel=7 note=73 velocity=0 time=0
EXTRACT: note_on channel=7 note=57 velocity=0 time=0
EXTRACT: note_on channel=12 note=81 velocity=0 time=0.015625
EXTRACT: note_on channel=6 note=59 velocity=76 time=0.004687500000000001
EXTRACT: note_on channel=1 note=47 velocity=76 time=0.003125
EXTRACT: note_on channel=2 note=62 velocity=90 time=0
EXTRACT: note_on channel=2 note=47 velocity=89 time=0.0078125
EXTRACT: note_on channel=2 note=54 velocity=93 time=0
EXTRACT: note_on channel=9 note=35 velocity=115 time=0
EXTRACT: note_on channel=9 note=36 velocity=115 time=0
EXTRACT: note_on channel=7 note=59 velocity=59 time=0.0015625
EXTRACT: note_on channel=7 note=74 velocity=61 time=0.003125
EXTRACT: note_on channel=12 note=83 velocity=69 time=0.00625
EXTRACT: note_on channel=9 note=36 velocity=0 time=0.0171875
EXTRACT: note_on channel=9 note=35 velocity=0 time=0
EXTRACT: control_change channel=12 control=10 value=121 time=0.010937500000000001
EXTRACT: note_on channel=12 note=83 velocity=0 time=0.0078125
EXTRACT: note_on channel=3 note=83 velocity=0 time=0.1171875
EXTRACT: note_on channel=12 note=83 velocity=52 time=0.015625
EXTRACT: note_on channel=3 note=81 velocity=70 time=0.010937500000000001
EXTRACT: control_change channel=12 control=10 value=105 time=0.004687500000000001
EXTRACT: note_on channel=12 note=83 velocity=0 time=0.0390625
EXTRACT: control_change channel=12 control=10 value=101 time=0
EXTRACT: note_on channel=12 note=83 velocity=51 time=0.140625
EXTRACT: control_change channel=12 control=10 value=85 time=0.015625
EXTRACT: note_on channel=12 note=83 velocity=0 time=0.03125
EXTRACT: control_change channel=12 control=10 value=81 time=0.0078125
EXTRACT: note_on channel=9 note=35 velocity=115 time=0.1328125
EXTRACT: note_on channel=9 note=36 velocity=115 time=0
EXTRACT: note_on channel=12 note=83 velocity=47 time=0.010937500000000001
EXTRACT: control_change channel=12 control=10 value=65 time=0.0125
EXTRACT: note_on channel=9 note=36 velocity=0 time=0.004687500000000001
EXTRACT: note_on channel=9 note=35 velocity=0 time=0
EXTRACT: note_on channel=12 note=83 velocity=0 time=0.018750000000000003
EXTRACT: note_on channel=9 note=39 velocity=116 time=0.14375000000000002
EXTRACT: note_on channel=7 note=76 velocity=61 time=0.0015625
EXTRACT: note_on channel=12 note=83 velocity=43 time=0
EXTRACT: note_on channel=9 note=39 velocity=0 time=0.026562500000000003
EXTRACT: control_change channel=12 control=10 value=45 time=0
EXTRACT: note_on channel=12 note=83 velocity=0 time=0.015625
EXTRACT: note_on channel=12 note=83 velocity=43 time=0.1296875
EXTRACT: control_change channel=12 control=10 value=29 time=0.010937500000000001
EXTRACT: control_change channel=12 control=10 value=25 time=0.0390625
EXTRACT: note_on channel=12 note=83 velocity=0 time=0.0078125
EXTRACT: note_on channel=3 note=81 velocity=0 time=0.1171875
EXTRACT: note_on channel=12 note=83 velocity=41 time=0.0203125
EXTRACT: control_change channel=12 control=10 value=19 time=0.010937500000000001
EXTRACT: note_on channel=12 note=83 velocity=0 time=0.0390625
EXTRACT: control_change channel=12 control=10 value=23 time=0
EXTRACT: note_on channel=12 note=83 velocity=37 time=0.1453125
EXTRACT: note_on channel=3 note=76 velocity=87 time=0.0078125
EXTRACT: control_change channel=12 control=10 value=39 time=0.003125
EXTRACT: note_on channel=12 note=83 velocity=0 time=0.03125
EXTRACT: control_change channel=12 control=10 value=43 time=0.0078125
EXTRACT: note_on channel=3 note=76 velocity=0 time=0.0234375
EXTRACT: note_on channel=12 note=83 velocity=35 time=0.10312500000000001
EXTRACT: note_on channel=3 note=83 velocity=85 time=0.003125
EXTRACT: note_on channel=9 note=36 velocity=115 time=0.003125
EXTRACT: control_change channel=12 control=10 value=59 time=0.0234375
EXTRACT: note_on channel=9 note=36 velocity=0 time=0.004687500000000001
EXTRACT: note_on channel=12 note=83 velocity=0 time=0.018750000000000003
EXTRACT: note_on channel=3 note=83 velocity=0 time=0.1171875
EXTRACT: note_on channel=12 note=83 velocity=36 time=0.018750000000000003
EXTRACT: note_on channel=3 note=85 velocity=74 time=0.0015625
EXTRACT: control_change channel=12 control=10 value=79 time=0.034375
EXTRACT: note_on channel=12 note=83 velocity=0 time=0.015625
EXTRACT: note_on channel=3 note=85 velocity=0 time=0.03125
EXTRACT: note_on channel=12 note=83 velocity=69 time=0.1046875
EXTRACT: control_change channel=12 control=10 value=95 time=0.004687500000000001
EXTRACT: note_on channel=3 note=85 velocity=78 time=0.00625
EXTRACT: control_change channel=12 control=10 value=99 time=0.0328125
EXTRACT: note_on channel=12 note=83 velocity=0 time=0.0078125
EXTRACT: note_on channel=3 note=85 velocity=0 time=0.1171875
EXTRACT: note_on channel=9 note=36 velocity=115 time=0.0234375
EXTRACT: note_on channel=3 note=85 velocity=77 time=0.003125
EXTRACT: note_on channel=12 note=83 velocity=72 time=0.0015625
EXTRACT: control_change channel=12 control=10 value=115 time=0.003125
EXTRACT: note_on channel=9 note=36 velocity=0 time=0.0203125
EXTRACT: note_on channel=12 note=83 velocity=0 time=0.018750000000000003
EXTRACT: control_change channel=12 control=10 value=119 time=0
EXTRACT: note_on channel=3 note=85 velocity=0 time=0.03125
EXTRACT: note_on channel=2 note=54 velocity=0 time=0.078125
EXTRACT: note_on channel=2 note=62 velocity=0 time=0
EXTRACT: note_on channel=7 note=76 velocity=0 time=0
EXTRACT: note_on channel=2 note=54 velocity=90 time=0.026562500000000003
EXTRACT: note_on channel=2 note=62 velocity=89 time=0
EXTRACT: note_on channel=3 note=85 velocity=92 time=0.003125
EXTRACT: note_on channel=9 note=39 velocity=116 time=0.003125
EXTRACT: note_on channel=12 note=83 velocity=69 time=0.0015625
EXTRACT: control_change channel=12 control=10 value=113 time=0.0125
EXTRACT: note_on channel=9 note=39 velocity=0 time=0.0140625
EXTRACT: note_on channel=12 note=83 velocity=0 time=0.0171875
EXTRACT: control_change channel=12 control=10 value=109 time=0.0078125
EXTRACT: note_on channel=12 note=83 velocity=68 time=0.12812500000000002
EXTRACT: note_on channel=9 note=35 velocity=115 time=0.004687500000000001
EXTRACT: note_on channel=9 note=36 velocity=115 time=0
EXTRACT: note_on channel=2 note=61 velocity=71 time=0.0015625
EXTRACT: control_change channel=12 control=10 value=93 time=0.021875000000000002
EXTRACT: note_on channel=9 note=36 velocity=0 time=0.004687500000000001
EXTRACT: note_on channel=9 note=35 velocity=0 time=0
EXTRACT: note_on channel=12 note=83 velocity=0 time=0.018750000000000003
EXTRACT: note_on channel=2 note=59 velocity=0 time=0.109375
EXTRACT: note_on channel=3 note=85 velocity=0 time=0.0078125
EXTRACT: note_on channel=9 note=35 velocity=115 time=0.0234375
EXTRACT: note_on channel=9 note=36 velocity=115 time=0
EXTRACT: note_on channel=12 note=83 velocity=69 time=0.003125
EXTRACT: note_on channel=3 note=83 velocity=79 time=0.004687500000000001
EXTRACT: note_on channel=2 note=59 velocity=79 time=0.0015625
EXTRACT: note_on channel=9 note=36 velocity=0 time=0.018750000000000003
EXTRACT: note_on channel=9 note=35 velocity=0 time=0
EXTRACT: control_change channel=12 control=10 value=73 time=0.003125
EXTRACT: note_on channel=12 note=83 velocity=0 time=0.015625
EXTRACT: note_on channel=2 note=61 velocity=0 time=0.109375
EXTRACT: note_on channel=3 note=83 velocity=0 time=0.0078125
EXTRACT: note_on channel=12 note=83 velocity=68 time=0.0203125
EXTRACT: control_change channel=12 control=10 value=57 time=0.003125
EXTRACT: note_on channel=2 note=61 velocity=76 time=0.003125
EXTRACT: control_change channel=12 control=10 value=53 time=0.035937500000000004
EXTRACT: control_change channel=12 control=10 value=49 time=0.0390625
EXTRACT: control_change channel=12 control=10 value=45 time=0.0390625
EXTRACT: note_on channel=1 note=47 velocity=0 time=0.03125
EXTRACT: note_on channel=2 note=61 velocity=0 time=0.0078125
EXTRACT: note_on channel=2 note=59 velocity=0 time=0
EXTRACT: note_on channel=2 note=47 velocity=0 time=0
EXTRACT: note_on channel=2 note=54 velocity=0 time=0
EXTRACT: note_on channel=2 note=62 velocity=0 time=0
EXTRACT: note_on channel=6 note=59 velocity=0 time=0
EXTRACT: note_on channel=7 note=74 velocity=0 time=0
EXTRACT: note_on channel=7 note=59 velocity=0 time=0
EXTRACT: control_change channel=12 control=10 value=41 time=0
EXTRACT: note_on channel=12 note=83 velocity=0 time=0.015625
EXTRACT: note_on channel=1 note=42 velocity=75 time=0.009375000000000001
EXTRACT: note_on channel=12 note=81 velocity=50 time=0.0015625
EXTRACT: note_on channel=2 note=57 velocity=91 time=0.0015625
EXTRACT: note_on channel=9 note=35 velocity=115 time=0.003125
EXTRACT: note_on channel=9 note=36 velocity=115 time=0
EXTRACT: note_on channel=2 note=54 velocity=93 time=0.003125
EXTRACT: control_change channel=12 control=10 value=37 time=0.004687500000000001
EXTRACT: note_on channel=2 note=42 velocity=92 time=0.0015625
EXTRACT: note_on channel=3 note=83 velocity=90 time=0.0015625
EXTRACT: note_on channel=6 note=54 velocity=74 time=0.0015625
EXTRACT: note_on channel=9 note=36 velocity=0 time=0.015625
EXTRACT: note_on channel=9 note=35 velocity=0 time=0
EXTRACT: note_on channel=12 note=81 velocity=0 time=0.018750000000000003
EXTRACT: control_change channel=12 control=10 value=33 time=0
EXTRACT: note_on channel=12 note=81 velocity=49 time=0.153125
EXTRACT: control_change channel=12 control=10 value=17 time=0.003125
EXTRACT: note_on channel=12 note=81 velocity=0 time=0.03125
EXTRACT: control_change channel=12 control=10 value=15 time=0.0078125
EXTRACT: note_on channel=12 note=81 velocity=46 time=0.1375
EXTRACT: control_change channel=12 control=10 value=31 time=0.018750000000000003
EXTRACT: note_on channel=12 note=81 velocity=0 time=0.0234375
EXTRACT: note_on channel=3 note=83 velocity=0 time=0.1171875
EXTRACT: note_on channel=3 note=81 velocity=76 time=0.018750000000000003
EXTRACT: note_on channel=12 note=81 velocity=45 time=0.0078125
EXTRACT: control_change channel=12 control=10 value=51 time=0.028125
EXTRACT: note_on channel=12 note=81 velocity=0 time=0.015625
EXTRACT: note_on channel=2 note=54 velocity=0 time=0.109375
EXTRACT: note_on channel=2 note=57 velocity=0 time=0
EXTRACT: note_on channel=6 note=54 velocity=0 time=0
EXTRACT: note_on channel=3 note=81 velocity=0 time=0.0078125
EXTRACT: note_on channel=7 note=66 velocity=61 time=0.0140625
EXTRACT: note_on channel=3 note=78 velocity=87 time=0.003125
EXTRACT: note_on channel=2 note=57 velocity=88 time=0.0015625
EXTRACT: note_on channel=9 note=39 velocity=113 time=0
EXTRACT: note_on channel=2 note=54 velocity=89 time=0.003125
EXTRACT: note_on channel=12 note=78 velocity=45 time=0.0015625
EXTRACT: control_change channel=12 control=10 value=67 time=0
EXTRACT: note_on channel=7 note=69 velocity=59 time=0.004687500000000001
EXTRACT: note_on channel=6 note=57 velocity=77 time=0.0015625
EXTRACT: note_on channel=7 note=54 velocity=58 time=0.003125
EXTRACT: note_on channel=9 note=39 velocity=0 time=0.0140625
EXTRACT: control_change channel=12 control=10 value=71 time=0.015625
EXTRACT: note_on channel=12 note=78 velocity=0 time=0.0078125
EXTRACT: note_on channel=12 note=78 velocity=43 time=0.14375000000000002
EXTRACT: control_change channel=12 control=10 value=87 time=0.004687500000000001
EXTRACT: note_on channel=12 note=78 velocity=0 time=0.0390625
EXTRACT: control_change channel=12 control=10 value=91 time=0
EXTRACT: note_on channel=3 note=78 velocity=0 time=0.1171875
EXTRACT: note_on channel=12 note=78 velocity=44 time=0.018750000000000003
EXTRACT: control_change channel=12 control=10 value=107 time=0.0203125
EXTRACT: note_on channel=12 note=78 velocity=0 time=0.03125
EXTRACT: control_change channel=12 control=10 value=111 time=0.0078125
EXTRACT: note_on channel=12 note=78 velocity=42 time=0.1375
EXTRACT: control_change channel=12 control=10 value=121 time=0.018750000000000003
EXTRACT: note_on channel=12 note=78 velocity=0 time=0.0234375
EXTRACT: note_on channel=3 note=81 velocity=86 time=0.140625
EXTRACT: note_on channel=9 note=36 velocity=115 time=0
EXTRACT: note_on channel=12 note=78 velocity=43 time=0.004687500000000001
EXTRACT: note_on channel=9 note=36 velocity=0 time=0.0234375
EXTRACT: control_change channel=12 control=10 value=101 time=0.003125
EXTRACT: note_on channel=12 note=78 velocity=0 time=0.015625
EXTRACT: note_on channel=3 note=81 velocity=0 time=0.1171875
EXTRACT: note_on channel=12 note=78 velocity=40 time=0.0125
EXTRACT: note_on channel=3 note=81 velocity=76 time=0.004687500000000001
EXTRACT: control_change channel=12 control=10 value=85 time=0.00625
EXTRACT: control_change channel=12 control=10 value=81 time=0.0390625
EXTRACT: note_on channel=12 note=78 velocity=0 time=0.0078125
EXTRACT: note_on channel=3 note=81 velocity=0 time=0.03125
EXTRACT: note_on channel=3 note=81 velocity=77 time=0.10625000000000001
EXTRACT: note_on channel=12 note=78 velocity=42 time=0
EXTRACT: note_on channel=9 note=35 velocity=115 time=0.003125
EXTRACT: note_on channel=9 note=36 velocity=115 time=0
EXTRACT: control_change channel=12 control=10 value=65 time=0.0078125
EXTRACT: note_on channel=9 note=36 velocity=0 time=0.0203125
EXTRACT: note_on channel=9 note=35 velocity=0 time=0
EXTRACT: note_on channel=12 note=78 velocity=0 time=0.018750000000000003
EXTRACT: control_change channel=12 control=10 value=61 time=0
EXTRACT: note_on channel=3 note=81 velocity=0 time=0.1171875
EXTRACT: note_on channel=12 note=78 velocity=38 time=0.026562500000000003
EXTRACT: control_change channel=12 control=10 value=45 time=0.0125
EXTRACT: note_on channel=12 note=78 velocity=0 time=0.03125
EXTRACT: control_change channel=12 control=10 value=41 time=0.0078125
EXTRACT: note_on channel=3 note=81 velocity=84 time=0.1234375
EXTRACT: note_on channel=9 note=39 velocity=117 time=0.0015625
EXTRACT: note_on channel=12 note=78 velocity=37 time=0.0171875
EXTRACT: note_on channel=9 note=39 velocity=0 time=0.010937500000000001
EXTRACT: control_change channel=12 control=10 value=25 time=0.003125
EXTRACT: note_on channel=12 note=78 velocity=0 time=0.0234375
EXTRACT: note_on channel=9 note=35 velocity=115 time=0.140625
EXTRACT: note_on channel=9 note=36 velocity=115 time=0
EXTRACT: note_on channel=12 note=78 velocity=39 time=0.009375000000000001
EXTRACT: note_on channel=9 note=36 velocity=0 time=0.018750000000000003
EXTRACT: note_on channel=9 note=35 velocity=0 time=0
EXTRACT: control_change channel=12 control=10 value=23 time=0.003125
EXTRACT: note_on channel=12 note=78 velocity=0 time=0.015625
EXTRACT: note_on channel=3 note=81 velocity=0 time=0.1171875
EXTRACT: note_on channel=3 note=81 velocity=80 time=0.018750000000000003
EXTRACT: note_on channel=12 note=78 velocity=36 time=0.010937500000000001
EXTRACT: control_change channel=12 control=10 value=43 time=0.0328125
EXTRACT: note_on channel=12 note=78 velocity=0 time=0.0078125
EXTRACT: note_on channel=3 note=81 velocity=0 time=0.03125
EXTRACT: note_on channel=3 note=83 velocity=78 time=0.10312500000000001
EXTRACT: note_on channel=12 note=78 velocity=34 time=0.010937500000000001
EXTRACT: control_change channel=12 control=10 value=59 time=0.003125
EXTRACT: control_change channel=12 control=10 value=63 time=0.0390625
EXTRACT: control_change channel=12 control=10 value=67 time=0.0390625
EXTRACT: control_change channel=12 control=10 value=71 time=0.0390625
EXTRACT: note_on channel=1 note=42 velocity=0 time=0.0234375
EXTRACT: note_on channel=2 note=54 velocity=0 time=0.0078125
EXTRACT: note_on channel=2 note=57 velocity=0 time=0
EXTRACT: note_on channel=2 note=42 velocity=0 time=0
EXTRACT: note_on channel=6 note=57 velocity=0 time=0
EXTRACT: note_on channel=7 note=54 velocity=0 time=0
EXTRACT: note_on channel=7 note=69 velocity=0 time=0
EXTRACT: note_on channel=7 note=66 velocity=0 time=0
EXTRACT: note_on channel=3 note=83 velocity=0 time=0.0078125
EXTRACT: control_change channel=12 control=10 value=75 time=0
EXTRACT: note_on channel=12 note=78 velocity=0 time=0.0078125
EXTRACT: note_on channel=2 note=50 velocity=92 time=0.010937500000000001
EXTRACT: note_on channel=2 note=57 velocity=90 time=0.0015625
EXTRACT: note_on channel=2 note=54 velocity=89 time=0
EXTRACT: note_on channel=12 note=78 velocity=48 time=0
EXTRACT: note_on channel=9 note=35 velocity=115 time=0.003125
EXTRACT: note_on channel=9 note=36 velocity=115 time=0
EXTRACT: note_on channel=6 note=57 velocity=77 time=0.0015625
EXTRACT: note_on channel=3 note=81 velocity=92 time=0.0015625
EXTRACT: note_on channel=7 note=69 velocity=61 time=0
EXTRACT: note_on channel=7 note=66 velocity=58 time=0.0015625
EXTRACT: note_on channel=2 note=38 velocity=91 time=0.003125
EXTRACT: note_on channel=7 note=50 velocity=60 time=0.0015625
EXTRACT: note_on channel=1 note=38 velocity=77 time=0.003125
EXTRACT: control_change channel=12 control=10 value=79 time=0.003125
EXTRACT: note_on channel=9 note=36 velocity=0 time=0.0125
EXTRACT: note_on channel=9 note=35 velocity=0 time=0
EXTRACT: note_on channel=12 note=78 velocity=0 time=0.018750000000000003
EXTRACT: control_change channel=12 control=10 value=83 time=0.0078125
EXTRACT: note_on channel=12 note=78 velocity=48 time=0.1296875
EXTRACT: control_change channel=12 control=10 value=99 time=0.026562500000000003
EXTRACT: note_on channel=12 note=78 velocity=0 time=0.0234375
EXTRACT: note_on channel=12 note=78 velocity=46 time=0.140625
EXTRACT: control_change channel=12 control=10 value=119 time=0.03125
EXTRACT: note_on channel=12 note=78 velocity=0 time=0.015625
EXTRACT: note_on channel=3 note=81 velocity=0 time=0.1171875
EXTRACT: note_on channel=12 note=78 velocity=46 time=0.0171875
EXTRACT: note_on channel=3 note=78 velocity=77 time=0.0015625
EXTRACT: note_on channel=9 note=35 velocity=115 time=0.004687500000000001
EXTRACT: note_on channel=9 note=36 velocity=115 time=0
EXTRACT: control_change channel=12 control=10 value=113 time=0
EXTRACT: note_on channel=9 note=36 velocity=0 time=0.028125
EXTRACT: note_on channel=9 note=35 velocity=0 time=0
EXTRACT: control_change channel=12 control=10 value=109 time=0.010937500000000001
EXTRACT: note_on channel=12 note=78 velocity=0 time=0.0078125
EXTRACT: note_on channel=3 note=78 velocity=0 time=0.03125
EXTRACT: note_on channel=12 note=78 velocity=44 time=0.1078125
EXTRACT: note_on channel=9 note=39 velocity=115 time=0.00625
EXTRACT: control_change channel=12 control=10 value=93 time=0.003125
EXTRACT: note_on channel=9 note=39 velocity=0 time=0.025
EXTRACT: note_on channel=12 note=78 velocity=0 time=0.0140625
EXTRACT: control_change channel=12 control=10 value=89 time=0
EXTRACT: note_on channel=12 note=78 velocity=47 time=0.153125
EXTRACT: control_change channel=12 control=10 value=73 time=0.003125
EXTRACT: note_on channel=12 note=78 velocity=0 time=0.03125
EXTRACT: control_change channel=12 control=10 value=69 time=0.0078125
EXTRACT: note_on channel=12 note=78 velocity=45 time=0.1328125
EXTRACT: control_change channel=12 control=10 value=53 time=0.0234375
EXTRACT: note_on channel=12 note=78 velocity=0 time=0.0234375
EXTRACT: note_on channel=3 note=76 velocity=84 time=0.134375
EXTRACT: note_on channel=12 note=78 velocity=44 time=0.0171875
EXTRACT: control_change channel=12 control=10 value=33 time=0.0203125
EXTRACT: note_on channel=12 note=78 velocity=0 time=0.015625
EXTRACT: note_on channel=3 note=76 velocity=0 time=0.1171875
EXTRACT: note_on channel=9 note=36 velocity=115 time=0.0234375
EXTRACT: note_on channel=12 note=78 velocity=42 time=0.00625
EXTRACT: note_on channel=3 note=81 velocity=85 time=0.003125
EXTRACT: note_on channel=9 note=36 velocity=0 time=0.018750000000000003
EXTRACT: control_change channel=12 control=10 value=15 time=0.010937500000000001
EXTRACT: note_on channel=12 note=78 velocity=0 time=0.0078125
EXTRACT: note_on channel=3 note=81 velocity=0 time=0.1171875
EXTRACT: note_on channel=3 note=81 velocity=76 time=0.018750000000000003
EXTRACT: note_on channel=12 note=78 velocity=42 time=0.009375000000000001
EXTRACT: control_change channel=12 control=10 value=31 time=0.003125
EXTRACT: note_on channel=12 note=78 velocity=0 time=0.0390625
EXTRACT: control_change channel=12 control=10 value=35 time=0
EXTRACT: note_on channel=3 note=81 velocity=0 time=0.03125
EXTRACT: note_on channel=3 note=81 velocity=80 time=0.109375
EXTRACT: note_on channel=9 note=35 velocity=115 time=0
EXTRACT: note_on channel=9 note=36 velocity=115 time=0
EXTRACT: note_on channel=12 note=78 velocity=41 time=0.0078125
EXTRACT: control_change channel=12 control=10 value=51 time=0.0078125
EXTRACT: note_on channel=9 note=36 velocity=0 time=0.0125
EXTRACT: note_on channel=9 note=35 velocity=0 time=0
EXTRACT: note_on channel=12 note=78 velocity=0 time=0.018750000000000003
EXTRACT: control_change channel=12 control=10 value=55 time=0.0078125
EXTRACT: note_on channel=3 note=81 velocity=0 time=0.109375
EXTRACT: note_on channel=12 note=78 velocity=39 time=0.025
EXTRACT: control_change channel=12 control=10 value=71 time=0.021875000000000002
EXTRACT: note_on channel=12 note=78 velocity=0 time=0.0234375
EXTRACT: note_on channel=2 note=50 velocity=0 time=0.109375
EXTRACT: note_on channel=9 note=39 velocity=115 time=0.0234375
EXTRACT: note_on channel=2 note=50 velocity=92 time=0.003125
EXTRACT: note_on channel=12 note=78 velocity=37 time=0.010937500000000001
EXTRACT: note_on channel=3 note=81 velocity=89 time=0.004687500000000001
EXTRACT: note_on channel=9 note=39 velocity=0 time=0.009375000000000001
EXTRACT: control_change channel=12 control=10 value=91 time=0.010937500000000001
EXTRACT: note_on channel=12 note=78 velocity=0 time=0.015625
EXTRACT: note_on channel=12 note=78 velocity=35 time=0.12812500000000002
EXTRACT: note_on channel=9 note=35 velocity=115 time=0.0125
EXTRACT: note_on channel=9 note=36 velocity=115 time=0
EXTRACT: control_change channel=12 control=10 value=107 time=0
EXTRACT: note_on channel=9 note=36 velocity=0 time=0.028125
EXTRACT: note_on channel=9 note=35 velocity=0 time=0
EXTRACT: control_change channel=12 control=10 value=111 time=0.010937500000000001
EXTRACT: note_on channel=12 note=78 velocity=0 time=0.0078125
EXTRACT: note_on channel=3 note=81 velocity=0 time=0.0546875
EXTRACT: note_on channel=2 note=57 velocity=0 time=0.0546875
EXTRACT: note_on channel=2 note=57 velocity=79 time=0.021875000000000002
EXTRACT: note_on channel=9 note=35 velocity=115 time=0.009375000000000001
EXTRACT: note_on channel=9 note=36 velocity=115 time=0
EXTRACT: note_on channel=12 note=78 velocity=34 time=0.0015625
EXTRACT: control_change channel=12 control=10 value=121 time=0.00625
EXTRACT: note_on channel=3 note=74 velocity=78 time=0.0015625
EXTRACT: note_on channel=9 note=36 velocity=0 time=0.018750000000000003
EXTRACT: note_on channel=9 note=35 velocity=0 time=0
EXTRACT: note_on channel=12 note=78 velocity=0 time=0.018750000000000003
EXTRACT: control_change channel=12 control=10 value=117 time=0
EXTRACT: note_on channel=3 note=74 velocity=0 time=0.1171875
EXTRACT: note_on channel=3 note=73 velocity=78 time=0.021875000000000002
EXTRACT: note_on channel=12 note=78 velocity=34 time=0.0015625
EXTRACT: control_change channel=12 control=10 value=101 time=0.015625
EXTRACT: control_change channel=12 control=10 value=97 time=0.0390625
EXTRACT: control_change channel=12 control=10 value=93 time=0.0390625
EXTRACT: control_change channel=12 control=10 value=89 time=0.0390625
EXTRACT: note_on channel=1 note=38 velocity=0 time=0.015625
EXTRACT: note_on channel=2 note=57 velocity=0 time=0.0078125
EXTRACT: note_on channel=2 note=50 velocity=0 time=0
EXTRACT: note_on channel=2 note=54 velocity=0 time=0
EXTRACT: note_on channel=2 note=38 velocity=0 time=0
EXTRACT: note_on channel=6 note=57 velocity=0 time=0
EXTRACT: note_on channel=7 note=50 velocity=0 time=0
EXTRACT: note_on channel=7 note=66 velocity=0 time=0
EXTRACT: note_on channel=7 note=69 velocity=0 time=0
EXTRACT: note_on channel=12 note=78 velocity=0 time=0.015625
EXTRACT: control_change channel=12 control=10 value=85 time=0
EXTRACT: note_on channel=2 note=52 velocity=93 time=0.003125
EXTRACT: note_on channel=1 note=33 velocity=77 time=0.0015625
EXTRACT: note_on channel=2 note=45 velocity=92 time=0.0078125
EXTRACT: note_on channel=9 note=35 velocity=115 time=0.003125
EXTRACT: note_on channel=9 note=36 velocity=115 time=0
EXTRACT: note_on channel=2 note=57 velocity=91 time=0.003125
EXTRACT: note_on channel=12 note=73 velocity=58 time=0.0015625
EXTRACT: note_on channel=2 note=61 velocity=92 time=0.004687500000000001
EXTRACT: note_on channel=6 note=57 velocity=77 time=0.0015625
EXTRACT: note_on channel=7 note=57 velocity=61 time=0.0015625
EXTRACT: control_change channel=12 control=10 value=81 time=0.010937500000000001
EXTRACT: note_on channel=9 note=36 velocity=0 time=0.004687500000000001
EXTRACT: note_on channel=9 note=35 velocity=0 time=0
EXTRACT: note_on channel=12 note=73 velocity=0 time=0.018750000000000003
EXTRACT: note_on channel=3 note=73 velocity=0 time=0.1171875
EXTRACT: note_on channel=12 note=73 velocity=58 time=0.010937500000000001
EXTRACT: control_change channel=12 control=10 value=65 time=0.004687500000000001
EXTRACT: note_on channel=3 note=73 velocity=76 time=0.010937500000000001
EXTRACT: control_change channel=12 control=10 value=61 time=0.028125
EXTRACT: note_on channel=12 note=73 velocity=0 time=0.015625
EXTRACT: note_on channel=3 note=73 velocity=0 time=0.03125
EXTRACT: note_on channel=2 note=57 velocity=0 time=0.078125
EXTRACT: note_on channel=12 note=69 velocity=56 time=0.018750000000000003
EXTRACT: note_on channel=3 note=73 velocity=78 time=0.010937500000000001
EXTRACT: control_change channel=12 control=10 value=45 time=0.0015625
EXTRACT: note_on channel=2 note=57 velocity=78 time=0.003125
EXTRACT: control_change channel=12 control=10 value=41 time=0.035937500000000004
EXTRACT: note_on channel=12 note=69 velocity=0 time=0.0078125
EXTRACT: control_change channel=12 control=10 value=25 time=0.1484375
EXTRACT: note_on channel=2 note=59 velocity=76 time=0.0015625
EXTRACT: note_on channel=12 note=71 velocity=54 time=0.0015625
EXTRACT: note_on channel=12 note=71 velocity=0 time=0.035937500000000004
EXTRACT: control_change channel=12 control=10 value=21 time=0
EXTRACT: note_on channel=2 note=61 velocity=0 time=0.109375
EXTRACT: note_on channel=12 note=73 velocity=50 time=0.021875000000000002
EXTRACT: note_on channel=2 note=61 velocity=90 time=0.0125
EXTRACT: note_on channel=9 note=39 velocity=117 time=0
EXTRACT: control_change channel=12 control=10 value=23 time=0.0125
EXTRACT: note_on channel=9 note=39 velocity=0 time=0.015625
EXTRACT: note_on channel=12 note=73 velocity=0 time=0.015625
EXTRACT: control_change channel=12 control=10 value=27 time=0.0078125
EXTRACT: note_on channel=2 note=52 velocity=0 time=0.1015625
EXTRACT: note_on channel=3 note=73 velocity=0 time=0.0078125
EXTRACT: note_on channel=2 note=52 velocity=56 time=0.010937500000000001
EXTRACT: note_on channel=12 note=73 velocity=50 time=0.0203125
EXTRACT: control_change channel=12 control=10 value=43 time=0.015625
EXTRACT: note_on channel=12 note=73 velocity=0 time=0.0234375
EXTRACT: note_on channel=2 note=57 velocity=0 time=0.109375
EXTRACT: note_on channel=2 note=57 velocity=79 time=0.018750000000000003
EXTRACT: control_change channel=12 control=10 value=59 time=0.004687500000000001
EXTRACT: note_on channel=12 note=73 velocity=44 time=0.004687500000000001
EXTRACT: control_change channel=12 control=10 value=63 time=0.034375
EXTRACT: note_on channel=12 note=73 velocity=0 time=0.015625
EXTRACT: note_on channel=2 note=59 velocity=0 time=0.109375
EXTRACT: note_on channel=3 note=73 velocity=86 time=0.0234375
EXTRACT: note_on channel=12 note=73 velocity=41 time=0.0015625
EXTRACT: control_change channel=12 control=10 value=79 time=0.00625
EXTRACT: note_on channel=2 note=59 velocity=84 time=0.010937500000000001
EXTRACT: control_change channel=12 control=10 value=83 time=0.028125
EXTRACT: note_on channel=12 note=73 velocity=0 time=0.0078125
EXTRACT: note_on channel=2 note=61 velocity=0 time=0.109375
EXTRACT: note_on channel=3 note=73 velocity=0 time=0.0078125
EXTRACT: note_on channel=2 note=61 velocity=89 time=0.0171875
EXTRACT: note_on channel=12 note=81 velocity=40 time=0.003125
EXTRACT: note_on channel=9 note=36 velocity=115 time=0.003125
EXTRACT: note_on channel=3 note=76 velocity=89 time=0.003125
EXTRACT: control_change channel=12 control=10 value=99 time=0.004687500000000001
EXTRACT: note_on channel=9 note=36 velocity=0 time=0.0203125
EXTRACT: note_on channel=12 note=81 velocity=0 time=0.018750000000000003
EXTRACT: control_change channel=12 control=10 value=103 time=0
EXTRACT: note_on channel=3 note=76 velocity=0 time=0.03125
EXTRACT: note_on channel=2 note=59 velocity=0 time=0.078125
EXTRACT: note_on channel=12 note=81 velocity=38 time=0.029687500000000002
EXTRACT: note_on channel=2 note=59 velocity=75 time=0.003125
EXTRACT: note_on channel=3 note=76 velocity=75 time=0.00625
EXTRACT: control_change channel=12 control=10 value=119 time=0.0078125
EXTRACT: note_on channel=12 note=81 velocity=0 time=0.03125
EXTRACT: control_change channel=12 control=10 value=123 time=0.0078125
EXTRACT: note_on channel=3 note=76 velocity=0 time=0.0234375
EXTRACT: note_on channel=2 note=57 velocity=0 time=0.078125
EXTRACT: note_on channel=3 note=76 velocity=78 time=0.026562500000000003
EXTRACT: note_on channel=12 note=81 velocity=37 time=0.004687500000000001
EXTRACT: note_on channel=2 note=57 velocity=76 time=0.0125
EXTRACT: control_change channel=12 control=10 value=109 time=0.010937500000000001
EXTRACT: note_on channel=12 note=81 velocity=0 time=0.0234375
EXTRACT: note_on channel=2 note=59 velocity=0 time=0.109375
EXTRACT: note_on channel=3 note=76 velocity=0 time=0.0078125
EXTRACT: note_on channel=2 note=59 velocity=81 time=0.015625
EXTRACT: note_on channel=12 note=81 velocity=41 time=0.009375000000000001
EXTRACT: note_on channel=3 note=76 velocity=81 time=0.003125
EXTRACT: control_change channel=12 control=10 value=89 time=0.026562500000000003
EXTRACT: note_on channel=12 note=81 velocity=0 time=0.015625
EXTRACT: note_on channel=3 note=76 velocity=0 time=0.03125
EXTRACT: note_on channel=3 note=76 velocity=84 time=0.05625
EXTRACT: note_on channel=2 note=61 velocity=0 time=0.021875000000000002
EXTRACT: note_on channel=2 note=45 velocity=0 time=0
EXTRACT: note_on channel=2 note=52 velocity=0 time=0
EXTRACT: note_on channel=3 note=76 velocity=0 time=0.015625
EXTRACT: note_on channel=12 note=81 velocity=51 time=0.010937500000000001
EXTRACT: note_on channel=9 note=39 velocity=115 time=0.0015625
EXTRACT: control_change channel=12 control=10 value=73 time=0.003125
EXTRACT: note_on channel=2 note=45 velocity=85 time=0.0015625
EXTRACT: note_on channel=3 note=78 velocity=86 time=0.0015625
EXTRACT: note_on channel=2 note=61 velocity=84 time=0.004687500000000001
EXTRACT: note_on channel=2 note=52 velocity=86 time=0.0015625
EXTRACT: note_on channel=9 note=39 velocity=0 time=0.015625
EXTRACT: control_change channel=12 control=10 value=69 time=0.0140625
EXTRACT: note_on channel=12 note=81 velocity=0 time=0.0078125
EXTRACT: note_on channel=2 note=59 velocity=0 time=0.109375
EXTRACT: note_on channel=2 note=59 velocity=76 time=0.0203125
EXTRACT: note_on channel=12 note=81 velocity=57 time=0.0015625
EXTRACT: note_on channel=9 note=35 velocity=115 time=0.009375000000000001
EXTRACT: note_on channel=9 note=36 velocity=115 time=0
EXTRACT: control_change channel=12 control=10 value=53 time=0.0078125
EXTRACT: note_on channel=9 note=36 velocity=0 time=0.0203125
EXTRACT: note_on channel=9 note=35 velocity=0 time=0
EXTRACT: note_on channel=12 note=81 velocity=0 time=0.018750000000000003
EXTRACT: control_change channel=12 control=10 value=49 time=0
EXTRACT: note_on channel=2 note=57 velocity=0 time=0.109375
EXTRACT: note_on channel=3 note=78 velocity=0 time=0.0078125
EXTRACT: note_on channel=3 note=78 velocity=78 time=0.0125
EXTRACT: note_on channel=12 note=81 velocity=64 time=0.015625
EXTRACT: note_on channel=2 note=57 velocity=79 time=0.0078125
EXTRACT: control_change channel=12 control=10 value=33 time=0.003125
EXTRACT: note_on channel=12 note=81 velocity=0 time=0.03125
EXTRACT: control_change channel=12 control=10 value=29 time=0.0078125
EXTRACT: note_on channel=12 note=81 velocity=72 time=0.1265625
EXTRACT: note_on channel=2 note=56 velocity=78 time=0.0015625
EXTRACT: control_change channel=12 control=10 value=15 time=0.028125
EXTRACT: control_change channel=12 control=10 value=19 time=0.0390625
EXTRACT: control_change channel=12 control=10 value=23 time=0.0390625
EXTRACT: control_change channel=12 control=10 value=27 time=0.0390625
EXTRACT: note_on channel=1 note=33 velocity=0 time=0.0078125
EXTRACT: note_on channel=2 note=56 velocity=0 time=0.0078125
EXTRACT: note_on channel=2 note=45 velocity=0 time=0
EXTRACT: note_on channel=2 note=59 velocity=0 time=0
EXTRACT: note_on channel=2 note=61 velocity=0 time=0
EXTRACT: note_on channel=2 note=57 velocity=0 time=0
EXTRACT: note_on channel=2 note=52 velocity=0 time=0
EXTRACT: note_on channel=6 note=57 velocity=0 time=0
EXTRACT: note_on channel=7 note=57 velocity=0 time=0
EXTRACT: note_on channel=12 note=81 velocity=0 time=0.015625
EXTRACT: control_change channel=12 control=10 value=31 time=0.0078125
EXTRACT: note_on channel=9 note=35 velocity=115 time=0.0078125
EXTRACT: note_on channel=9 note=36 velocity=115 time=0
EXTRACT: note_on channel=1 note=35 velocity=75 time=0.0015625
EXTRACT: note_on channel=2 note=62 velocity=90 time=0
EXTRACT: note_on channel=2 note=54 velocity=93 time=0
EXTRACT: note_on channel=12 note=83 velocity=70 time=0
EXTRACT: note_on channel=6 note=59 velocity=76 time=0.004687500000000001
EXTRACT: note_on channel=7 note=59 velocity=59 time=0.0015625
EXTRACT: note_on channel=2 note=59 velocity=90 time=0.003125
EXTRACT: note_on channel=2 note=47 velocity=90 time=0.0015625
EXTRACT: note_on channel=9 note=36 velocity=0 time=0.015625
EXTRACT: note_on channel=9 note=35 velocity=0 time=0
EXTRACT: control_change channel=12 control=10 value=35 time=0.003125
EXTRACT: note_on channel=12 note=83 velocity=0 time=0.015625
EXTRACT: note_on channel=3 note=78 velocity=0 time=0.1171875
EXTRACT: note_on channel=3 note=76 velocity=73 time=0.026562500000000003
EXTRACT: note_on channel=12 note=83 velocity=51 time=0.004687500000000001
EXTRACT: control_change channel=12 control=10 value=55 time=0.03125
EXTRACT: note_on channel=12 note=83 velocity=0 time=0.0078125
EXTRACT: note_on channel=2 note=59 velocity=0 time=0.109375
EXTRACT: note_on channel=2 note=59 velocity=76 time=0.018750000000000003
EXTRACT: note_on channel=12 note=83 velocity=47 time=0.003125
EXTRACT: control_change channel=12 control=10 value=71 time=0.0171875
EXTRACT: note_on channel=12 note=83 velocity=0 time=0.0390625
EXTRACT: control_change channel=12 control=10 value=75 time=0
EXTRACT: note_on channel=12 note=83 velocity=45 time=0.13125
EXTRACT: note_on channel=2 note=61 velocity=78 time=0.00625
EXTRACT: note_on channel=9 note=35 velocity=115 time=0.003125
EXTRACT: note_on channel=9 note=36 velocity=115 time=0
EXTRACT: control_change channel=12 control=10 value=91 time=0.015625
EXTRACT: note_on channel=9 note=36 velocity=0 time=0.0125
EXTRACT: note_on channel=9 note=35 velocity=0 time=0
EXTRACT: note_on channel=12 note=83 velocity=0 time=0.018750000000000003
EXTRACT: control_change channel=12 control=10 value=95 time=0.0078125
EXTRACT: note_on channel=2 note=62 velocity=0 time=0.1015625
EXTRACT: note_on channel=3 note=76 velocity=0 time=0.0078125
EXTRACT: note_on channel=12 note=83 velocity=44 time=0.015625
EXTRACT: note_on channel=9 note=39 velocity=115 time=0.0078125
EXTRACT: note_on channel=2 note=62 velocity=86 time=0.0125
EXTRACT: control_change channel=12 control=10 value=111 time=0.010937500000000001
EXTRACT: note_on channel=9 note=39 velocity=0 time=0.004687500000000001
EXTRACT: note_on channel=12 note=83 velocity=0 time=0.018750000000000003
EXTRACT: note_on channel=2 note=61 velocity=0 time=0.109375
EXTRACT: note_on channel=2 note=61 velocity=70 time=0.018750000000000003
EXTRACT: note_on channel=12 note=83 velocity=41 time=0.0140625
EXTRACT: control_change channel=12 control=10 value=117 time=0.029687500000000002
EXTRACT: note_on channel=12 note=83 velocity=0 time=0.015625
EXTRACT: note_on channel=2 note=59 velocity=0 time=0.109375
EXTRACT: note_on channel=2 note=59 velocity=78 time=0.028125
EXTRACT: note_on channel=3 note=73 velocity=78 time=0.004687500000000001
EXTRACT: note_on channel=12 note=83 velocity=39 time=0.009375000000000001
EXTRACT: control_change channel=12 control=10 value=97 time=0.028125
EXTRACT: note_on channel=12 note=83 velocity=0 time=0.0078125
EXTRACT: note_on channel=2 note=61 velocity=0 time=0.109375
EXTRACT: note_on channel=3 note=73 velocity=0 time=0.0078125
EXTRACT: note_on channel=2 note=61 velocity=86 time=0.026562500000000003
EXTRACT: note_on channel=3 note=74 velocity=85 time=0
EXTRACT: control_change channel=12 control=10 value=81 time=0.004687500000000001
EXTRACT: note_on channel=12 note=83 velocity=40 time=0.004687500000000001
EXTRACT: note_on channel=12 note=83 velocity=0 time=0.034375
EXTRACT: control_change channel=12 control=10 value=77 time=0
EXTRACT: note_on channel=3 note=74 velocity=0 time=0.03125
EXTRACT: note_on channel=2 note=62 velocity=0 time=0.078125
EXTRACT: note_on channel=3 note=76 velocity=84 time=0.0203125
EXTRACT: note_on channel=9 note=36 velocity=115 time=0.010937500000000001
EXTRACT: note_on channel=2 note=62 velocity=86 time=0.0015625
EXTRACT: note_on channel=12 note=83 velocity=36 time=0.003125
EXTRACT: control_change channel=12 control=10 value=61 time=0.010937500000000001
EXTRACT: note_on channel=9 note=36 velocity=0 time=0.0125
EXTRACT: note_on channel=12 note=83 velocity=0 time=0.018750000000000003
EXTRACT: control_change channel=12 control=10 value=57 time=0.0078125
EXTRACT: note_on channel=2 note=61 velocity=0 time=0.1015625
EXTRACT: note_on channel=3 note=76 velocity=0 time=0.0078125
EXTRACT: note_on channel=3 note=76 velocity=73 time=0.0234375
EXTRACT: note_on channel=2 note=61 velocity=72 time=0.003125
EXTRACT: note_on channel=12 note=83 velocity=35 time=0
EXTRACT: control_change channel=12 control=10 value=41 time=0.0203125
EXTRACT: note_on channel=12 note=83 velocity=0 time=0.0234375
EXTRACT: note_on channel=3 note=76 velocity=0 time=0.03125
EXTRACT: note_on channel=2 note=59 velocity=0 time=0.078125
EXTRACT: note_on channel=12 note=83 velocity=71 time=0.021875000000000002
EXTRACT: control_change channel=12 control=10 value=25 time=0.0015625
EXTRACT: note_on channel=3 note=76 velocity=80 time=0.004687500000000001
EXTRACT: note_on channel=2 note=59 velocity=62 time=0.0078125
EXTRACT: control_change channel=12 control=10 value=21 time=0.026562500000000003
EXTRACT: note_on channel=12 note=83 velocity=0 time=0.015625
EXTRACT: note_on channel=2 note=61 velocity=0 time=0.109375
EXTRACT: note_on channel=3 note=76 velocity=0 time=0.0078125
EXTRACT: note_on channel=12 note=83 velocity=69 time=0.0203125
EXTRACT: note_on channel=9 note=35 velocity=115 time=0.003125
EXTRACT: note_on channel=9 note=36 velocity=115 time=0
EXTRACT: control_change channel=12 control=10 value=23 time=0
EXTRACT: note_on channel=2 note=61 velocity=80 time=0.00625
EXTRACT: note_on channel=3 note=76 velocity=80 time=0.0015625
EXTRACT: note_on channel=9 note=36 velocity=0 time=0.0203125
EXTRACT: note_on channel=9 note=35 velocity=0 time=0
EXTRACT: control_change channel=12 control=10 value=27 time=0.010937500000000001
EXTRACT: note_on channel=12 note=83 velocity=0 time=0.0078125
EXTRACT: note_on channel=3 note=76 velocity=0 time=0.03125
EXTRACT: note_on channel=2 note=62 velocity=0 time=0.078125
EXTRACT: note_on channel=9 note=39 velocity=117 time=0.021875000000000002
EXTRACT: note_on channel=2 note=62 velocity=91 time=0.004687500000000001
EXTRACT: note_on channel=12 note=83 velocity=69 time=0.0125
EXTRACT: control_change channel=12 control=10 value=43 time=0
EXTRACT: note_on channel=3 note=81 velocity=92 time=0.003125
EXTRACT: note_on channel=9 note=39 velocity=0 time=0.0078125
EXTRACT: note_on channel=12 note=83 velocity=0 time=0.028125
EXTRACT: control_change channel=12 control=10 value=47 time=0
EXTRACT: note_on channel=2 note=61 velocity=0 time=0.109375
EXTRACT: note_on channel=9 note=35 velocity=115 time=0.03125
EXTRACT: note_on channel=9 note=36 velocity=115 time=0
EXTRACT: note_on channel=2 note=61 velocity=71 time=0.0015625
EXTRACT: note_on channel=12 note=83 velocity=70 time=0.0078125
EXTRACT: control_change channel=12 control=10 value=63 time=0.00625
EXTRACT: note_on channel=9 note=36 velocity=0 time=0.0125
EXTRACT: note_on channel=9 note=35 velocity=0 time=0
EXTRACT: note_on channel=12 note=83 velocity=0 time=0.018750000000000003
EXTRACT: control_change channel=12 control=10 value=67 time=0.0078125
EXTRACT: note_on channel=2 note=59 velocity=0 time=0.1015625
EXTRACT: note_on channel=3 note=81 velocity=0 time=0.0078125
EXTRACT: note_on channel=12 note=83 velocity=70 time=0.018750000000000003
EXTRACT: note_on channel=9 note=36 velocity=115 time=0.004687500000000001
EXTRACT: note_on channel=2 note=59 velocity=76 time=0.0015625
EXTRACT: note_on channel=3 note=81 velocity=79 time=0.003125
EXTRACT: control_change channel=12 control=10 value=83 time=0.018750000000000003
EXTRACT: note_on channel=9 note=36 velocity=0 time=0.004687500000000001
EXTRACT: note_on channel=12 note=83 velocity=0 time=0.018750000000000003
EXTRACT: note_on channel=3 note=81 velocity=0 time=0.1171875
EXTRACT: note_on channel=3 note=83 velocity=76 time=0.015625
EXTRACT: note_on channel=2 note=57 velocity=78 time=0.003125
EXTRACT: note_on channel=9 note=36 velocity=115 time=0.004687500000000001
EXTRACT: note_on channel=12 note=83 velocity=70 time=0.009375000000000001
EXTRACT: note_on channel=9 note=36 velocity=0 time=0.018750000000000003
EXTRACT: control_change channel=12 control=10 value=103 time=0.003125
EXTRACT: control_change channel=12 control=10 value=107 time=0.0390625
EXTRACT: control_change channel=12 control=10 value=111 time=0.0390625
EXTRACT: note_on channel=1 note=35 velocity=0 time=0.0390625
EXTRACT: control_change channel=12 control=10 value=115 time=0
EXTRACT: note_on channel=2 note=57 velocity=0 time=0.0078125
EXTRACT: note_on channel=2 note=54 velocity=0 time=0
EXTRACT: note_on channel=2 note=61 velocity=0 time=0
EXTRACT: note_on channel=2 note=47 velocity=0 time=0
EXTRACT: note_on channel=2 note=59 velocity=0 time=0
EXTRACT: note_on channel=2 note=62 velocity=0 time=0
EXTRACT: note_on channel=6 note=59 velocity=0 time=0
EXTRACT: note_on channel=7 note=59 velocity=0 time=0
EXTRACT: note_on channel=3 note=83 velocity=0 time=0.0078125
EXTRACT: note_on channel=12 note=83 velocity=0 time=0.0078125
EXTRACT: note_on channel=12 note=81 velocity=50 time=0.010937500000000001
EXTRACT: note_on channel=3 note=85 velocity=91 time=0.0015625
EXTRACT: note_on channel=6 note=54 velocity=76 time=0
EXTRACT: note_on channel=2 note=42 velocity=89 time=0.003125
EXTRACT: note_on channel=9 note=35 velocity=115 time=0
EXTRACT: note_on channel=9 note=36 velocity=115 time=0
EXTRACT: control_change channel=12 control=10 value=119 time=0
EXTRACT: note_on channel=7 note=54 velocity=62 time=0.004687500000000001
EXTRACT: note_on channel=1 note=42 velocity=76 time=0.00625
EXTRACT: note_on channel=9 note=36 velocity=0 time=0.0171875
EXTRACT: note_on channel=9 note=35 velocity=0 time=0
EXTRACT: control_change channel=12 control=10 value=123 time=0.010937500000000001
EXTRACT: note_on channel=12 note=81 velocity=0 time=0.0078125
EXTRACT: note_on channel=3 note=85 velocity=0 time=0.1171875
EXTRACT: note_on channel=12 note=81 velocity=48 time=0.0125
EXTRACT: note_on channel=3 note=83 velocity=76 time=0.0125
EXTRACT: control_change channel=12 control=10 value=109 time=0.00625
EXTRACT: note_on channel=2 note=49 velocity=58 time=0.004687500000000001
EXTRACT: note_on channel=12 note=81 velocity=0 time=0.034375
EXTRACT: control_change channel=12 control=10 value=105 time=0
EXTRACT: note_on channel=3 note=83 velocity=0 time=0.1171875
EXTRACT: note_on channel=3 note=81 velocity=79 time=0.0203125
EXTRACT: note_on channel=5 note=69 velocity=78 time=0
EXTRACT: note_on channel=12 note=81 velocity=49 time=0.0078125
EXTRACT: note_on channel=2 note=54 velocity=82 time=0.0078125
EXTRACT: control_change channel=12 control=10 value=89 time=0.003125
EXTRACT: note_on channel=12 note=81 velocity=0 time=0.03125
EXTRACT: control_change channel=12 control=10 value=85 time=0.0078125
EXTRACT: note_on channel=5 note=69 velocity=0 time=0.1015625
EXTRACT: note_on channel=3 note=81 velocity=0 time=0.0078125
EXTRACT: note_on channel=12 note=81 velocity=47 time=0.0171875
EXTRACT: note_on channel=3 note=78 velocity=75 time=0.0015625
EXTRACT: note_on channel=5 note=71 velocity=77 time=0
EXTRACT: note_on channel=2 note=56 velocity=74 time=0.009375000000000001
EXTRACT: control_change channel=12 control=10 value=69 time=0.018750000000000003
EXTRACT: note_on channel=12 note=81 velocity=0 time=0.0234375
EXTRACT: note_on channel=5 note=71 velocity=0 time=0.109375
EXTRACT: note_on channel=9 note=39 velocity=115 time=0.026562500000000003
EXTRACT: note_on channel=5 note=73 velocity=92 time=0.0078125
EXTRACT: note_on channel=2 note=57 velocity=89 time=0.003125
EXTRACT: note_on channel=12 note=78 velocity=44 time=0
EXTRACT: note_on channel=9 note=39 velocity=0 time=0.0171875
EXTRACT: control_change channel=12 control=10 value=49 time=0.0078125
EXTRACT: note_on channel=12 note=78 velocity=0 time=0.015625
EXTRACT: note_on channel=5 note=73 velocity=0 time=0.109375
EXTRACT: control_change channel=12 control=10 value=33 time=0.03125
EXTRACT: note_on channel=12 note=78 velocity=45 time=0.0015625
EXTRACT: note_on channel=5 note=71 velocity=75 time=0.0015625
EXTRACT: control_change channel=12 control=10 value=29 time=0.035937500000000004
EXTRACT: note_on channel=12 note=78 velocity=0 time=0.0078125
EXTRACT: note_on channel=2 note=49 velocity=0 time=0.109375
EXTRACT: note_on channel=5 note=71 velocity=0 time=0
EXTRACT: note_on channel=3 note=78 velocity=0 time=0.0078125
EXTRACT: note_on channel=12 note=78 velocity=42 time=0.0203125
EXTRACT: note_on channel=5 note=69 velocity=79 time=0.00625
EXTRACT: control_change channel=12 control=10 value=15 time=0.004687500000000001
EXTRACT: note_on channel=2 note=49 velocity=80 time=0.003125
EXTRACT: note_on channel=12 note=78 velocity=0 time=0.035937500000000004
EXTRACT: control_change channel=12 control=10 value=19 time=0
EXTRACT: note_on channel=2 note=54 velocity=0 time=0.109375
EXTRACT: note_on channel=5 note=69 velocity=0 time=0
EXTRACT: note_on channel=5 note=66 velocity=74 time=0.026562500000000003
EXTRACT: note_on channel=3 note=73 velocity=87 time=0.00625
EXTRACT: note_on channel=2 note=54 velocity=87 time=0.0015625
EXTRACT: note_on channel=12 note=78 velocity=41 time=0.003125
EXTRACT: control_change channel=12 control=10 value=35 time=0.009375000000000001
EXTRACT: note_on channel=12 note=78 velocity=0 time=0.03125
EXTRACT: control_change channel=12 control=10 value=39 time=0.0078125
EXTRACT: note_on channel=2 note=57 velocity=0 time=0.1015625
EXTRACT: note_on channel=3 note=73 velocity=0 time=0.0078125
EXTRACT: note_on channel=12 note=78 velocity=44 time=0.018750000000000003
EXTRACT: note_on channel=2 note=57 velocity=90 time=0.003125
EXTRACT: note_on channel=9 note=36 velocity=115 time=0.0015625
EXTRACT: note_on channel=3 note=76 velocity=86 time=0.0078125
EXTRACT: control_change channel=12 control=10 value=55 time=0.015625
EXTRACT: note_on channel=9 note=36 velocity=0 time=0.004687500000000001
EXTRACT: note_on channel=12 note=78 velocity=0 time=0.018750000000000003
EXTRACT: control_change channel=12 control=10 value=71 time=0.1328125
EXTRACT: note_on channel=12 note=78 velocity=43 time=0.003125
EXTRACT: control_change channel=12 control=10 value=75 time=0.035937500000000004
EXTRACT: note_on channel=12 note=78 velocity=0 time=0.015625
EXTRACT: note_on channel=2 note=49 velocity=0 time=0.109375
EXTRACT: note_on channel=5 note=66 velocity=0 time=0
EXTRACT: note_on channel=3 note=76 velocity=0 time=0.0078125
EXTRACT: note_on channel=2 note=49 velocity=78 time=0.0125
EXTRACT: note_on channel=9 note=35 velocity=115 time=0.010937500000000001
EXTRACT: note_on channel=9 note=36 velocity=115 time=0
EXTRACT: note_on channel=12 note=78 velocity=40 time=0.003125
EXTRACT: note_on channel=3 note=76 velocity=78 time=0.00625
EXTRACT: note_on channel=9 note=36 velocity=0 time=0.018750000000000003
EXTRACT: note_on channel=9 note=35 velocity=0 time=0
EXTRACT: control_change channel=12 control=10 value=95 time=0.010937500000000001
EXTRACT: note_on channel=12 note=78 velocity=0 time=0.0078125
EXTRACT: note_on channel=2 note=54 velocity=0 time=0.109375
EXTRACT: note_on channel=3 note=76 velocity=0 time=0.0078125
EXTRACT: note_on channel=2 note=54 velocity=78 time=0.026562500000000003
EXTRACT: note_on channel=12 note=78 velocity=40 time=0.0015625
EXTRACT: control_change channel=12 control=10 value=111 time=0.003125
EXTRACT: note_on channel=3 note=76 velocity=80 time=0.004687500000000001
EXTRACT: note_on channel=12 note=78 velocity=0 time=0.034375
EXTRACT: control_change channel=12 control=10 value=115 time=0
EXTRACT: note_on channel=3 note=76 velocity=0 time=0.03125
EXTRACT: note_on channel=2 note=57 velocity=0 time=0.078125
EXTRACT: note_on channel=2 note=57 velocity=86 time=0.0203125
EXTRACT: note_on channel=9 note=39 velocity=117 time=0.003125
EXTRACT: note_on channel=3 note=81 velocity=88 time=0.003125
EXTRACT: note_on channel=12 note=78 velocity=38 time=0.015625
EXTRACT: control_change channel=12 control=10 value=117 time=0.004687500000000001
EXTRACT: note_on channel=9 note=39 velocity=0 time=0.004687500000000001
EXTRACT: note_on channel=12 note=78 velocity=0 time=0.026562500000000003
EXTRACT: control_change channel=12 control=10 value=113 time=0.0078125
EXTRACT: note_on channel=2 note=56 velocity=0 time=0.1015625
EXTRACT: note_on channel=2 note=56 velocity=72 time=0.026562500000000003
EXTRACT: note_on channel=12 note=78 velocity=38 time=0.0015625
EXTRACT: note_on channel=9 note=35 velocity=115 time=0.003125
EXTRACT: note_on channel=9 note=36 velocity=115 time=0
EXTRACT: control_change channel=12 control=10 value=97 time=0.0234375
EXTRACT: note_on channel=9 note=36 velocity=0 time=0.004687500000000001
EXTRACT: note_on channel=9 note=35 velocity=0 time=0
EXTRACT: note_on channel=12 note=78 velocity=0 time=0.018750000000000003
EXTRACT: note_on channel=2 note=54 velocity=0 time=0.109375
EXTRACT: note_on channel=3 note=81 velocity=0 time=0.0078125
EXTRACT: note_on channel=2 note=54 velocity=79 time=0.0125
EXTRACT: note_on channel=3 note=81 velocity=77 time=0.004687500000000001
EXTRACT: note_on channel=12 note=78 velocity=38 time=0.004687500000000001
EXTRACT: control_change channel=12 control=10 value=77 time=0.0328125
EXTRACT: note_on channel=12 note=78 velocity=0 time=0.015625
EXTRACT: control_change channel=12 control=10 value=61 time=0.140625
EXTRACT: note_on channel=12 note=78 velocity=35 time=0.0015625
EXTRACT: control_change channel=12 control=10 value=57 time=0.037500000000000006
EXTRACT: control_change channel=12 control=10 value=53 time=0.0390625
EXTRACT: control_change channel=12 control=10 value=49 time=0.0390625
EXTRACT: note_on channel=1 note=42 velocity=0 time=0.03125
EXTRACT: note_on channel=2 note=54 velocity=0 time=0.0078125
EXTRACT: note_on channel=2 note=56 velocity=0 time=0
EXTRACT: note_on channel=2 note=42 velocity=0 time=0
EXTRACT: note_on channel=2 note=49 velocity=0 time=0
EXTRACT: note_on channel=2 note=57 velocity=0 time=0
EXTRACT: note_on channel=6 note=54 velocity=0 time=0
EXTRACT: note_on channel=7 note=54 velocity=0 time=0
EXTRACT: control_change channel=12 control=10 value=45 time=0
EXTRACT: note_on channel=3 note=81 velocity=0 time=0.0078125
EXTRACT: note_on channel=12 note=78 velocity=0 time=0.0078125
EXTRACT: note_on channel=6 note=54 velocity=76 time=0.003125
EXTRACT: note_on channel=7 note=50 velocity=58 time=0.0015625
EXTRACT: note_on channel=2 note=54 velocity=89 time=0.004687500000000001
EXTRACT: note_on channel=3 note=74 velocity=89 time=0.0015625
EXTRACT: note_on channel=9 note=35 velocity=115 time=0.004687500000000001
EXTRACT: note_on channel=9 note=36 velocity=115 time=0
EXTRACT: note_on channel=2 note=57 velocity=89 time=0.0015625
EXTRACT: note_on channel=12 note=78 velocity=52 time=0
EXTRACT: note_on channel=2 note=38 velocity=89 time=0.0015625
EXTRACT: note_on channel=1 note=38 velocity=74 time=0.004687500000000001
EXTRACT: control_change channel=12 control=10 value=41 time=0
EXTRACT: note_on channel=2 note=50 velocity=92 time=0.004687500000000001
EXTRACT: note_on channel=9 note=36 velocity=0 time=0.015625
EXTRACT: note_on channel=9 note=35 velocity=0 time=0
EXTRACT: note_on channel=12 note=78 velocity=0 time=0.018750000000000003
EXTRACT: control_change channel=12 control=10 value=37 time=0
EXTRACT: note_on channel=12 note=78 velocity=47 time=0.1328125
EXTRACT: control_change channel=12 control=10 value=21 time=0.0234375
EXTRACT: note_on channel=12 note=78 velocity=0 time=0.03125
EXTRACT: control_change channel=12 control=10 value=17 time=0.0078125
EXTRACT: note_on channel=2 note=50 velocity=0 time=0.1015625
EXTRACT: note_on channel=3 note=74 velocity=0 time=0.0078125
EXTRACT: note_on channel=12 note=78 velocity=47 time=0.0203125
EXTRACT: note_on channel=2 note=50 velocity=75 time=0.0140625
EXTRACT: note_on channel=3 note=73 velocity=75 time=0.0015625
EXTRACT: control_change channel=12 control=10 value=27 time=0.010937500000000001
EXTRACT: note_on channel=12 note=78 velocity=0 time=0.0234375
EXTRACT: note_on channel=3 note=73 velocity=0 time=0.1171875
EXTRACT: note_on channel=2 note=52 velocity=77 time=0.018750000000000003
EXTRACT: note_on channel=9 note=35 velocity=115 time=0.004687500000000001
EXTRACT: note_on channel=9 note=36 velocity=115 time=0
EXTRACT: note_on channel=12 note=78 velocity=49 time=0.004687500000000001
EXTRACT: note_on channel=3 note=71 velocity=78 time=0.003125
EXTRACT: note_on channel=9 note=36 velocity=0 time=0.0203125
EXTRACT: note_on channel=9 note=35 velocity=0 time=0
EXTRACT: control_change channel=12 control=10 value=47 time=0.003125
EXTRACT: note_on channel=12 note=78 velocity=0 time=0.015625
EXTRACT: note_on channel=2 note=54 velocity=0 time=0.109375
EXTRACT: control_change channel=12 control=10 value=63 time=0.03125
EXTRACT: note_on channel=2 note=54 velocity=90 time=0.003125
EXTRACT: note_on channel=9 note=39 velocity=116 time=0.0015625
EXTRACT: note_on channel=12 note=78 velocity=46 time=0
EXTRACT: note_on channel=9 note=39 velocity=0 time=0.028125
EXTRACT: control_change channel=12 control=10 value=67 time=0.00625
EXTRACT: note_on channel=12 note=78 velocity=0 time=0.0078125
EXTRACT: note_on channel=12 note=78 velocity=43 time=0.1296875
EXTRACT: control_change channel=12 control=10 value=83 time=0.018750000000000003
EXTRACT: note_on channel=12 note=78 velocity=0 time=0.0390625
EXTRACT: control_change channel=12 control=10 value=87 time=0
EXTRACT: note_on channel=3 note=71 velocity=0 time=0.1171875
EXTRACT: note_on channel=12 note=78 velocity=44 time=0.028125
EXTRACT: control_change channel=12 control=10 value=103 time=0.010937500000000001
EXTRACT: note_on channel=12 note=78 velocity=0 time=0.03125
EXTRACT: control_change channel=12 control=10 value=107 time=0.0078125
EXTRACT: note_on channel=2 note=54 velocity=0 time=0.1015625
EXTRACT: note_on channel=2 note=54 velocity=67 time=0.018750000000000003
EXTRACT: note_on channel=12 note=78 velocity=45 time=0.0015625
EXTRACT: note_on channel=3 note=73 velocity=87 time=0.00625
EXTRACT: control_change channel=12 control=10 value=123 time=0.028125
EXTRACT: note_on channel=12 note=78 velocity=0 time=0.0234375
EXTRACT: note_on channel=2 note=57 velocity=0 time=0.109375
EXTRACT: note_on channel=7 note=50 velocity=0 time=0
EXTRACT: note_on channel=3 note=73 velocity=0 time=0.0078125
EXTRACT: note_on channel=3 note=76 velocity=88 time=0.0140625
EXTRACT: note_on channel=9 note=36 velocity=115 time=0.009375000000000001
EXTRACT: note_on channel=12 note=78 velocity=43 time=0.0015625
EXTRACT: note_on channel=2 note=57 velocity=85 time=0.003125
EXTRACT: note_on channel=9 note=36 velocity=0 time=0.0234375
EXTRACT: control_change channel=12 control=10 value=105 time=0.003125
EXTRACT: note_on channel=12 note=78 velocity=0 time=0.015625
EXTRACT: note_on channel=3 note=76 velocity=0 time=0.1171875
EXTRACT: note_on channel=3 note=76 velocity=73 time=0.0125
EXTRACT: note_on channel=12 note=78 velocity=40 time=0
EXTRACT: control_change channel=12 control=10 value=89 time=0.010937500000000001
EXTRACT: control_change channel=12 control=10 value=85 time=0.0390625
EXTRACT: note_on channel=12 note=78 velocity=0 time=0.0078125
EXTRACT: note_on channel=3 note=76 velocity=0 time=0.03125
EXTRACT: note_on channel=12 note=78 velocity=39 time=0.10625000000000001
EXTRACT: note_on channel=3 note=76 velocity=80 time=0.003125
EXTRACT: control_change channel=12 control=10 value=69 time=0.0078125
EXTRACT: note_on channel=12 note=78 velocity=0 time=0.0390625
EXTRACT: control_change channel=12 control=10 value=65 time=0
EXTRACT: note_on channel=3 note=76 velocity=0 time=0.1171875
EXTRACT: note_on channel=9 note=36 velocity=115 time=0.0234375
EXTRACT: note_on channel=3 note=76 velocity=79 time=0.0015625
EXTRACT: note_on channel=12 note=78 velocity=40 time=0.004687500000000001
EXTRACT: control_change channel=12 control=10 value=49 time=0.009375000000000001
EXTRACT: note_on channel=9 note=36 velocity=0 time=0.0125
EXTRACT: note_on channel=12 note=78 velocity=0 time=0.018750000000000003
EXTRACT: control_change channel=12 control=10 value=45 time=0.0078125
EXTRACT: note_on channel=3 note=76 velocity=0 time=0.0234375
EXTRACT: note_on channel=1 note=38 velocity=0 time=0.0703125
EXTRACT: note_on channel=6 note=54 velocity=0 time=0.0078125
EXTRACT: note_on channel=3 note=76 velocity=91 time=0.018750000000000003
EXTRACT: note_on channel=12 note=78 velocity=36 time=0.018750000000000003
EXTRACT: note_on channel=2 note=62 velocity=75 time=0.003125
EXTRACT: note_on channel=9 note=39 velocity=113 time=0
EXTRACT: control_change channel=12 control=10 value=29 time=0.0140625
EXTRACT: note_on channel=9 note=39 velocity=0 time=0.0140625
EXTRACT: note_on channel=12 note=78 velocity=0 time=0.009375000000000001
EXTRACT: control_change channel=12 control=10 value=15 time=0.1328125
EXTRACT: note_on channel=12 note=78 velocity=39 time=0.003125
EXTRACT: note_on channel=9 note=35 velocity=115 time=0.004687500000000001
EXTRACT: note_on channel=9 note=36 velocity=115 time=0
EXTRACT: note_on channel=9 note=36 velocity=0 time=0.028125
EXTRACT: note_on channel=9 note=35 velocity=0 time=0
EXTRACT: control_change channel=12 control=10 value=19 time=0.003125
EXTRACT: note_on channel=12 note=78 velocity=0 time=0.015625
EXTRACT: note_on channel=2 note=62 velocity=0 time=0.109375
EXTRACT: note_on channel=3 note=76 velocity=0 time=0.0078125
EXTRACT: note_on channel=9 note=35 velocity=115 time=0.0234375
EXTRACT: note_on channel=9 note=36 velocity=115 time=0
EXTRACT: note_on channel=12 note=78 velocity=34 time=0.003125
EXTRACT: note_on channel=3 note=80 velocity=77 time=0.003125
EXTRACT: note_on channel=2 note=62 velocity=75 time=0.004687500000000001
EXTRACT: note_on channel=9 note=36 velocity=0 time=0.0171875
EXTRACT: note_on channel=9 note=35 velocity=0 time=0
EXTRACT: control_change channel=12 control=10 value=39 time=0.010937500000000001
EXTRACT: note_on channel=12 note=78 velocity=0 time=0.0078125
EXTRACT: note_on channel=3 note=80 velocity=0 time=0.1171875
EXTRACT: note_on channel=3 note=81 velocity=77 time=0.0234375
EXTRACT: note_on channel=9 note=36 velocity=115 time=0
EXTRACT: note_on channel=2 note=61 velocity=74 time=0.003125
EXTRACT: note_on channel=12 note=78 velocity=36 time=0
EXTRACT: control_change channel=12 control=10 value=55 time=0.004687500000000001
EXTRACT: note_on channel=9 note=36 velocity=0 time=0.0203125
EXTRACT: control_change channel=12 control=10 value=59 time=0.018750000000000003
EXTRACT: control_change channel=12 control=10 value=63 time=0.0390625
EXTRACT: control_change channel=12 control=10 value=67 time=0.0390625
EXTRACT: note_on channel=2 note=61 velocity=0 time=0.03125
EXTRACT: note_on channel=2 note=38 velocity=0 time=0
EXTRACT: note_on channel=2 note=57 velocity=0 time=0
EXTRACT: note_on channel=2 note=54 velocity=0 time=0
EXTRACT: note_on channel=2 note=50 velocity=0 time=0
EXTRACT: note_on channel=2 note=62 velocity=0 time=0
EXTRACT: note_on channel=2 note=52 velocity=0 time=0
EXTRACT: control_change channel=12 control=10 value=71 time=0.0078125
EXTRACT: note_on channel=12 note=78 velocity=0 time=0.0078125
EXTRACT: note_on channel=7 note=57 velocity=60 time=0.003125
EXTRACT: note_on channel=2 note=57 velocity=91 time=0.003125
EXTRACT: note_on channel=7 note=73 velocity=58 time=0
EXTRACT: note_on channel=8 note=52 velocity=62 time=0
EXTRACT: note_on channel=8 note=57 velocity=60 time=0.004687500000000001
EXTRACT: note_on channel=11 note=81 velocity=86 time=0
EXTRACT: note_on channel=1 note=33 velocity=76 time=0.0015625
EXTRACT: note_on channel=8 note=61 velocity=58 time=0
EXTRACT: note_on channel=2 note=64 velocity=90 time=0.003125
EXTRACT: note_on channel=9 note=35 velocity=115 time=0
EXTRACT: note_on channel=9 note=36 velocity=115 time=0
EXTRACT: note_on channel=10 note=60 velocity=115 time=0
EXTRACT: note_on channel=7 note=69 velocity=62 time=0.003125
EXTRACT: note_on channel=2 note=45 velocity=91 time=0.0015625
EXTRACT: note_on channel=6 note=57 velocity=75 time=0
EXTRACT: note_on channel=8 note=45 velocity=60 time=0
EXTRACT: note_on channel=11 note=69 velocity=86 time=0.004687500000000001
EXTRACT: note_on channel=2 note=61 velocity=90 time=0.0015625
EXTRACT: note_on channel=12 note=69 velocity=70 time=0
EXTRACT: control_change channel=12 control=10 value=75 time=0.004687500000000001
EXTRACT: note_on channel=9 note=36 velocity=0 time=0.0125
EXTRACT: note_on channel=9 note=35 velocity=0 time=0
EXTRACT: note_on channel=10 note=60 velocity=0 time=0
EXTRACT: control_change channel=12 control=10 value=79 time=0.026562500000000003
EXTRACT: control_change channel=12 control=10 value=83 time=0.0390625
EXTRACT: note_on channel=12 note=69 velocity=0 time=0.0390625
EXTRACT: control_change channel=12 control=10 value=87 time=0
EXTRACT: note_on channel=11 note=69 velocity=0 time=0.0078125
EXTRACT: note_on channel=11 note=81 velocity=0 time=0
EXTRACT: note_on channel=3 note=81 velocity=0 time=0.0234375
EXTRACT: note_on channel=3 note=83 velocity=76 time=0.03125
EXTRACT: note_on channel=3 note=83 velocity=0 time=0.15625
EXTRACT: note_on channel=3 note=85 velocity=80 time=0.015625
EXTRACT: note_on channel=11 note=81 velocity=84 time=0
EXTRACT: note_on channel=5 note=68 velocity=77 time=0.0015625
EXTRACT: note_on channel=11 note=69 velocity=87 time=0.004687500000000001
EXTRACT: note_on channel=12 note=69 velocity=68 time=0.010937500000000001
EXTRACT: control_change channel=12 control=10 value=115 time=0.021875000000000002
EXTRACT: control_change channel=12 control=10 value=119 time=0.0390625
EXTRACT: control_change channel=12 control=10 value=123 time=0.0390625
EXTRACT: note_on channel=12 note=69 velocity=0 time=0.0234375
EXTRACT: note_on channel=11 note=69 velocity=0 time=0.0078125
EXTRACT: note_on channel=11 note=81 velocity=0 time=0
EXTRACT: note_on channel=5 note=68 velocity=0 time=0.015625
EXTRACT: note_on channel=5 note=69 velocity=75 time=0.025
EXTRACT: note_on channel=11 note=83 velocity=85 time=0
EXTRACT: note_on channel=12 note=71 velocity=69 time=0.0140625
EXTRACT: note_on channel=11 note=71 velocity=87 time=0.0015625
EXTRACT: control_change channel=12 control=10 value=113 time=0.029687500000000002
EXTRACT: control_change channel=12 control=10 value=109 time=0.0390625
EXTRACT: control_change channel=12 control=10 value=105 time=0.0390625
EXTRACT: note_on channel=12 note=71 velocity=0 time=0.015625
EXTRACT: note_on channel=11 note=71 velocity=0 time=0.0078125
EXTRACT: note_on channel=11 note=83 velocity=0 time=0
EXTRACT: note_on channel=3 note=85 velocity=0 time=0.0234375
EXTRACT: note_on channel=9 note=39 velocity=117 time=0.0234375
EXTRACT: note_on channel=12 note=73 velocity=72 time=0.003125
EXTRACT: note_on channel=11 note=73 velocity=83 time=0.0015625
EXTRACT: control_change channel=12 control=10 value=97 time=0.003125
EXTRACT: note_on channel=11 note=85 velocity=87 time=0.0015625
EXTRACT: note_on channel=9 note=39 velocity=0 time=0.018750000000000003
EXTRACT: control_change channel=12 control=10 value=93 time=0.018750000000000003
EXTRACT: control_change channel=12 control=10 value=89 time=0.0390625
EXTRACT: control_change channel=12 control=10 value=85 time=0.0390625
EXTRACT: note_on channel=12 note=73 velocity=0 time=0.0078125
EXTRACT: note_on channel=11 note=85 velocity=0 time=0.0078125
EXTRACT: note_on channel=11 note=73 velocity=0 time=0
EXTRACT: note_on channel=5 note=69 velocity=0 time=0.015625
EXTRACT: note_on channel=5 note=71 velocity=75 time=0.034375
EXTRACT: note_on channel=5 note=71 velocity=0 time=0.153125
EXTRACT: note_on channel=11 note=85 velocity=83 time=0.018750000000000003
EXTRACT: note_on channel=11 note=73 velocity=87 time=0.009375000000000001
EXTRACT: note_on channel=5 note=73 velocity=79 time=0.0015625
EXTRACT: note_on channel=12 note=73 velocity=69 time=0.00625
EXTRACT: control_change channel=12 control=10 value=57 time=0.018750000000000003
EXTRACT: control_change channel=12 control=10 value=53 time=0.0390625
EXTRACT: control_change channel=12 control=10 value=49 time=0.0390625
EXTRACT: note_on channel=12 note=73 velocity=0 time=0.03125
EXTRACT: note_on channel=11 note=73 velocity=0 time=0.0078125
EXTRACT: note_on channel=11 note=85 velocity=0 time=0
EXTRACT: control_change channel=12 control=10 value=45 time=0
EXTRACT: note_on channel=5 note=73 velocity=0 time=0.203125
EXTRACT: note_on channel=12 note=73 velocity=71 time=0.026562500000000003
EXTRACT: note_on channel=11 note=85 velocity=83 time=0.003125
EXTRACT: note_on channel=9 note=36 velocity=115 time=0.0015625
EXTRACT: control_change channel=12 control=10 value=21 time=0
EXTRACT: note_on channel=11 note=73 velocity=83 time=0.003125
EXTRACT: note_on channel=3 note=81 velocity=86 time=0.003125
EXTRACT: note_on channel=4 note=57 velocity=86 time=0.003125
EXTRACT: note_on channel=9 note=36 velocity=0 time=0.018750000000000003
EXTRACT: control_change channel=12 control=10 value=17 time=0.010937500000000001
EXTRACT: control_change channel=12 control=10 value=15 time=0.0390625
EXTRACT: control_change channel=12 control=10 value=19 time=0.0390625
EXTRACT: note_on channel=12 note=73 velocity=0 time=0.015625
EXTRACT: note_on channel=11 note=73 velocity=0 time=0.0078125
EXTRACT: note_on channel=11 note=85 velocity=0 time=0
EXTRACT: note_on channel=4 note=57 velocity=0 time=0.015625
EXTRACT: note_on channel=3 note=81 velocity=0 time=0.0078125
EXTRACT: note_on channel=3 note=81 velocity=76 time=0.015625
EXTRACT: note_on channel=4 note=57 velocity=76 time=0.004687500000000001
EXTRACT: note_on channel=3 note=81 velocity=0 time=0.08125
EXTRACT: note_on channel=4 note=57 velocity=0 time=0.078125
EXTRACT: note_on channel=3 note=81 velocity=78 time=0.021875000000000002
EXTRACT: note_on channel=4 note=57 velocity=76 time=0.0015625
EXTRACT: note_on channel=12 note=73 velocity=71 time=0.003125
EXTRACT: note_on channel=11 note=73 velocity=85 time=0.0140625
EXTRACT: note_on channel=11 note=85 velocity=86 time=0.0015625
EXTRACT: control_change channel=12 control=10 value=47 time=0.004687500000000001
EXTRACT: control_change channel=12 control=10 value=51 time=0.0390625
EXTRACT: note_on channel=3 note=81 velocity=0 time=0.0234375
EXTRACT: control_change channel=12 control=10 value=55 time=0.015625
EXTRACT: note_on channel=12 note=73 velocity=0 time=0.0390625
EXTRACT: control_change channel=12 control=10 value=59 time=0
EXTRACT: note_on channel=11 note=85 velocity=0 time=0.0078125
EXTRACT: note_on channel=11 note=73 velocity=0 time=0
EXTRACT: note_on channel=4 note=57 velocity=0 time=0.015625
EXTRACT: note_on channel=4 note=57 velocity=79 time=0.028125
EXTRACT: note_on channel=3 note=81 velocity=80 time=0.0125
EXTRACT: note_on channel=3 note=81 velocity=0 time=0.06875
EXTRACT: note_on channel=4 note=57 velocity=0 time=0.078125
EXTRACT: note_on channel=3 note=81 velocity=88 time=0.021875000000000002
EXTRACT: note_on channel=11 note=85 velocity=86 time=0.0015625
EXTRACT: note_on channel=11 note=73 velocity=87 time=0.0125
EXTRACT: note_on channel=12 note=73 velocity=69 time=0.003125
EXTRACT: note_on channel=4 note=57 velocity=86 time=0.0015625
EXTRACT: note_on channel=9 note=39 velocity=115 time=0.0015625
EXTRACT: control_change channel=12 control=10 value=87 time=0.0203125
EXTRACT: note_on channel=9 note=39 velocity=0 time=0.0078125
EXTRACT: control_change channel=12 control=10 value=91 time=0.03125
EXTRACT: control_change channel=12 control=10 value=95 time=0.0390625
EXTRACT: note_on channel=12 note=73 velocity=0 time=0.0234375
EXTRACT: note_on channel=11 note=73 velocity=0 time=0.0078125
EXTRACT: note_on channel=11 note=85 velocity=0 time=0
EXTRACT: note_on channel=2 note=45 velocity=0 time=0.015625
EXTRACT: note_on channel=2 note=57 velocity=0 time=0
EXTRACT: note_on channel=4 note=57 velocity=0 time=0
EXTRACT: note_on channel=3 note=81 velocity=0 time=0.0078125
EXTRACT: note_on channel=2 note=45 velocity=75 time=0.0140625
EXTRACT: note_on channel=11 note=83 velocity=84 time=0.003125
EXTRACT: note_on channel=9 note=35 velocity=115 time=0.00625
EXTRACT: note_on channel=9 note=36 velocity=115 time=0
EXTRACT: note_on channel=2 note=57 velocity=76 time=0.009375000000000001
EXTRACT: note_on channel=12 note=71 velocity=70 time=0.0015625
EXTRACT: note_on channel=11 note=71 velocity=87 time=0.0015625
EXTRACT: note_on channel=9 note=36 velocity=0 time=0.015625
EXTRACT: note_on channel=9 note=35 velocity=0 time=0
EXTRACT: control_change channel=12 control=10 value=107 time=0.010937500000000001
EXTRACT: control_change channel=12 control=10 value=111 time=0.0390625
EXTRACT: control_change channel=12 control=10 value=115 time=0.0390625
EXTRACT: note_on channel=12 note=71 velocity=0 time=0.015625
EXTRACT: note_on channel=11 note=71 velocity=0 time=0.0078125
EXTRACT: note_on channel=11 note=83 velocity=0 time=0
EXTRACT: note_on channel=11 note=81 velocity=85 time=0.0390625
EXTRACT: note_on channel=11 note=69 velocity=84 time=0.0015625
EXTRACT: note_on channel=12 note=69 velocity=69 time=0.003125
EXTRACT: note_on channel=3 note=81 velocity=78 time=0.00625
EXTRACT: control_change channel=12 control=10 value=123 time=0.004687500000000001
EXTRACT: note_on channel=4 note=57 velocity=76 time=0.0015625
EXTRACT: control_change channel=12 control=10 value=121 time=0.037500000000000006
EXTRACT: control_change channel=12 control=10 value=117 time=0.0390625
EXTRACT: control_change channel=12 control=10 value=113 time=0.0390625
EXTRACT: note_on channel=12 note=69 velocity=0 time=0.0078125
EXTRACT: note_on channel=11 note=69 velocity=0 time=0.0078125
EXTRACT: note_on channel=11 note=81 velocity=0 time=0
EXTRACT: note_on channel=4 note=57 velocity=0 time=0.015625
EXTRACT: note_on channel=3 note=81 velocity=0 time=0.0078125
EXTRACT: note_on channel=11 note=69 velocity=87 time=0.0171875
EXTRACT: note_on channel=3 note=83 velocity=82 time=0.0015625
EXTRACT: note_on channel=11 note=81 velocity=84 time=0.0015625
EXTRACT: note_on channel=12 note=69 velocity=72 time=0.004687500000000001
EXTRACT: note_on channel=4 note=59 velocity=82 time=0.0015625
EXTRACT: control_change channel=12 control=10 value=105 time=0.0125
EXTRACT: control_change channel=12 control=10 value=101 time=0.0390625
EXTRACT: control_change channel=12 control=10 value=97 time=0.0390625
EXTRACT: note_on channel=12 note=69 velocity=0 time=0.0390625
EXTRACT: control_change channel=12 control=10 value=93 time=0
EXTRACT: note_on channel=11 note=81 velocity=0 time=0.0078125
EXTRACT: note_on channel=11 note=69 velocity=0 time=0
EXTRACT: note_on channel=1 note=33 velocity=0 time=0.0078125
EXTRACT: note_on channel=2 note=57 velocity=0 time=0.0078125
EXTRACT: note_on channel=2 note=61 velocity=0 time=0
EXTRACT: note_on channel=2 note=64 velocity=0 time=0
EXTRACT: note_on channel=2 note=45 velocity=0 time=0
EXTRACT: note_on channel=6 note=57 velocity=0 time=0
EXTRACT: note_on channel=7 note=69 velocity=0 time=0
EXTRACT: note_on channel=7 note=73 velocity=0 time=0
EXTRACT: note_on channel=7 note=57 velocity=0 time=0
EXTRACT: note_on channel=8 note=45 velocity=0 time=0
EXTRACT: note_on channel=8 note=52 velocity=0 time=0
EXTRACT: note_on channel=8 note=57 velocity=0 time=0
EXTRACT: note_on channel=8 note=61 velocity=0 time=0
EXTRACT: note_on channel=1 note=35 velocity=75 time=0.0203125
EXTRACT: note_on channel=11 note=83 velocity=83 time=0.003125
EXTRACT: note_on channel=8 note=50 velocity=62 time=0.003125
EXTRACT: note_on channel=2 note=62 velocity=92 time=0.003125
EXTRACT: note_on channel=9 note=35 velocity=115 time=0.0015625
EXTRACT: note_on channel=9 note=36 velocity=115 time=0
EXTRACT: note_on channel=8 note=54 velocity=60 time=0.0015625
EXTRACT: note_on channel=8 note=59 velocity=60 time=0
EXTRACT: note_on channel=7 note=74 velocity=60 time=0.0015625
EXTRACT: note_on channel=2 note=47 velocity=89 time=0.0015625
EXTRACT: note_on channel=7 note=71 velocity=59 time=0
EXTRACT: note_on channel=8 note=47 velocity=62 time=0.0015625
EXTRACT: note_on channel=2 note=54 velocity=92 time=0.003125
EXTRACT: note_on channel=11 note=71 velocity=83 time=0
EXTRACT: note_on channel=12 note=71 velocity=72 time=0
EXTRACT: note_on channel=2 note=59 velocity=92 time=0.003125
EXTRACT: note_on channel=6 note=59 velocity=76 time=0
EXTRACT: note_on channel=7 note=59 velocity=61 time=0
EXTRACT: control_change channel=12 control=10 value=85 time=0.010937500000000001
EXTRACT: note_on channel=9 note=36 velocity=0 time=0.004687500000000001
EXTRACT: note_on channel=9 note=35 velocity=0 time=0
EXTRACT: control_change channel=12 control=10 value=81 time=0.034375
EXTRACT: control_change channel=12 control=10 value=77 time=0.0390625
EXTRACT: note_on channel=12 note=71 velocity=0 time=0.03125
EXTRACT: note_on channel=11 note=71 velocity=0 time=0.0078125
EXTRACT: note_on channel=11 note=83 velocity=0 time=0
EXTRACT: control_change channel=12 control=10 value=73 time=0
EXTRACT: note_on channel=11 note=83 velocity=83 time=0.23593750000000002
EXTRACT: note_on channel=12 note=71 velocity=70 time=0.0015625
EXTRACT: note_on channel=5 note=69 velocity=80 time=0.00625
EXTRACT: note_on channel=11 note=71 velocity=86 time=0.0015625
EXTRACT: control_change channel=12 control=10 value=45 time=0.028125
EXTRACT: control_change channel=12 control=10 value=41 time=0.0390625
EXTRACT: control_change channel=12 control=10 value=37 time=0.0390625
EXTRACT: note_on channel=12 note=71 velocity=0 time=0.015625
EXTRACT: note_on channel=11 note=71 velocity=0 time=0.0078125
EXTRACT: note_on channel=11 note=83 velocity=0 time=0
EXTRACT: note_on channel=5 note=69 velocity=0 time=0.015625
EXTRACT: note_on channel=5 note=71 velocity=83 time=0.025
EXTRACT: note_on channel=9 note=35 velocity=115 time=0.00625
EXTRACT: note_on channel=9 note=36 velocity=115 time=0
EXTRACT: note_on channel=11 note=73 velocity=85 time=0.0015625
EXTRACT: note_on channel=12 note=73 velocity=70 time=0.003125
EXTRACT: note_on channel=11 note=85 velocity=85 time=0.003125
EXTRACT: control_change channel=12 control=10 value=29 time=0
EXTRACT: note_on channel=9 note=36 velocity=0 time=0.0203125
EXTRACT: note_on channel=9 note=35 velocity=0 time=0
EXTRACT: control_change channel=12 control=10 value=25 time=0.018750000000000003
EXTRACT: control_change channel=12 control=10 value=21 time=0.0390625
EXTRACT: control_change channel=12 control=10 value=17 time=0.0390625
EXTRACT: note_on channel=12 note=73 velocity=0 time=0.0078125
EXTRACT: note_on channel=11 note=85 velocity=0 time=0.0078125
EXTRACT: note_on channel=11 note=73 velocity=0 time=0
EXTRACT: note_on channel=4 note=59 velocity=0 time=0.015625
EXTRACT: note_on channel=3 note=83 velocity=0 time=0.0078125
EXTRACT: note_on channel=11 note=86 velocity=86 time=0.010937500000000001
EXTRACT: note_on channel=11 note=74 velocity=85 time=0.00625
EXTRACT: note_on channel=9 note=39 velocity=113 time=0.0125
EXTRACT: note_on channel=12 note=74 velocity=72 time=0.0015625
EXTRACT: control_change channel=12 control=10 value=19 time=0.0078125
EXTRACT: note_on channel=9 note=39 velocity=0 time=0.018750000000000003
EXTRACT: control_change channel=12 control=10 value=23 time=0.0203125
EXTRACT: control_change channel=12 control=10 value=27 time=0.0390625
EXTRACT: note_on channel=12 note=74 velocity=0 time=0.0390625
EXTRACT: control_change channel=12 control=10 value=31 time=0
EXTRACT: note_on channel=11 note=74 velocity=0 time=0.0078125
EXTRACT: note_on channel=11 note=86 velocity=0 time=0
EXTRACT: note_on channel=2 note=62 velocity=0 time=0.203125
EXTRACT: note_on channel=11 note=86 velocity=87 time=0.021875000000000002
EXTRACT: note_on channel=2 note=62 velocity=81 time=0.003125
EXTRACT: note_on channel=3 note=81 velocity=80 time=0.009375000000000001
EXTRACT: note_on channel=12 note=74 velocity=70 time=0
EXTRACT: note_on channel=4 note=57 velocity=80 time=0.004687500000000001
EXTRACT: note_on channel=11 note=74 velocity=87 time=0.0015625
EXTRACT: control_change channel=12 control=10 value=59 time=0.021875000000000002
EXTRACT: control_change channel=12 control=10 value=63 time=0.0390625
EXTRACT: control_change channel=12 control=10 value=67 time=0.0390625
EXTRACT: note_on channel=12 note=74 velocity=0 time=0.0234375
EXTRACT: note_on channel=11 note=74 velocity=0 time=0.0078125
EXTRACT: note_on channel=11 note=86 velocity=0 time=0
EXTRACT: note_on channel=4 note=57 velocity=0 time=0.015625
EXTRACT: note_on channel=3 note=81 velocity=0 time=0.0078125
EXTRACT: note_on channel=4 note=57 velocity=86 time=0.018750000000000003
EXTRACT: note_on channel=3 note=81 velocity=87 time=0.0078125
EXTRACT: note_on channel=3 note=81 velocity=0 time=0.07500000000000001
EXTRACT: note_on channel=2 note=62 velocity=0 time=0.078125
EXTRACT: note_on channel=2 note=59 velocity=0 time=0
EXTRACT: note_on channel=2 note=47 velocity=0 time=0
EXTRACT: note_on channel=4 note=57 velocity=0 time=0
EXTRACT: note_on channel=5 note=71 velocity=0 time=0
EXTRACT: note_on channel=4 note=59 velocity=87 time=0.018750000000000003
EXTRACT: note_on channel=2 note=47 velocity=86 time=0.00625
EXTRACT: note_on channel=11 note=86 velocity=85 time=0.003125
EXTRACT: note_on channel=3 note=83 velocity=84 time=0.003125
EXTRACT: note_on channel=9 note=36 velocity=115 time=0
EXTRACT: note_on channel=12 note=74 velocity=68 time=0
EXTRACT: note_on channel=2 note=62 velocity=85 time=0.0015625
EXTRACT: note_on channel=11 note=74 velocity=86 time=0.004687500000000001
EXTRACT: control_change channel=12 control=10 value=95 time=0.0015625
EXTRACT: note_on channel=2 note=59 velocity=86 time=0.0015625
EXTRACT: note_on channel=9 note=36 velocity=0 time=0.018750000000000003
EXTRACT: control_change channel=12 control=10 value=99 time=0.018750000000000003
EXTRACT: control_change channel=12 control=10 value=103 time=0.0390625
EXTRACT: control_change channel=12 control=10 value=107 time=0.0390625
EXTRACT: note_on channel=12 note=74 velocity=0 time=0.0078125
EXTRACT: note_on channel=11 note=74 velocity=0 time=0.0078125
EXTRACT: note_on channel=11 note=86 velocity=0 time=0
EXTRACT: note_on channel=4 note=59 velocity=0 time=0.015625
EXTRACT: note_on channel=3 note=83 velocity=0 time=0.0078125
EXTRACT: note_on channel=3 note=83 velocity=75 time=0.0234375
EXTRACT: note_on channel=4 note=59 velocity=75 time=0.009375000000000001
EXTRACT: note_on channel=3 note=83 velocity=0 time=0.06875
EXTRACT: note_on channel=2 note=54 velocity=0 time=0.078125
EXTRACT: note_on channel=4 note=59 velocity=0 time=0
EXTRACT: note_on channel=11 note=86 velocity=86 time=0.026562500000000003
EXTRACT: note_on channel=4 note=59 velocity=79 time=0.00625
EXTRACT: note_on channel=11 note=74 velocity=84 time=0.003125
EXTRACT: note_on channel=2 note=54 velocity=79 time=0.004687500000000001
EXTRACT: note_on channel=3 note=83 velocity=80 time=0.0015625
EXTRACT: note_on channel=12 note=74 velocity=70 time=0
EXTRACT: control_change channel=12 control=10 value=113 time=0.0125
EXTRACT: control_change channel=12 control=10 value=109 time=0.0390625
EXTRACT: control_change channel=12 control=10 value=105 time=0.0390625
EXTRACT: note_on channel=12 note=74 velocity=0 time=0.03125
EXTRACT: note_on channel=11 note=74 velocity=0 time=0.0078125
EXTRACT: note_on channel=11 note=86 velocity=0 time=0
EXTRACT: control_change channel=12 control=10 value=101 time=0
EXTRACT: note_on channel=9 note=35 velocity=115 time=0.046875
EXTRACT: note_on channel=9 note=36 velocity=115 time=0
EXTRACT: note_on channel=9 note=36 velocity=0 time=0.028125
EXTRACT: note_on channel=9 note=35 velocity=0 time=0
EXTRACT: note_on channel=2 note=54 velocity=0 time=0.12812500000000002
EXTRACT: note_on channel=2 note=59 velocity=0 time=0
EXTRACT: note_on channel=2 note=62 velocity=0 time=0
EXTRACT: note_on channel=4 note=59 velocity=0 time=0
EXTRACT: note_on channel=3 note=83 velocity=0 time=0.0078125
EXTRACT: note_on channel=3 note=85 velocity=91 time=0.0125
EXTRACT: note_on channel=9 note=39 velocity=115 time=0.003125
EXTRACT: note_on channel=4 note=61 velocity=92 time=0.003125
EXTRACT: note_on channel=2 note=62 velocity=92 time=0.0015625
EXTRACT: note_on channel=11 note=74 velocity=85 time=0
EXTRACT: note_on channel=12 note=74 velocity=69 time=0.0015625
EXTRACT: control_change channel=12 control=10 value=77 time=0.0015625
EXTRACT: note_on channel=2 note=54 velocity=92 time=0.003125
EXTRACT: note_on channel=2 note=59 velocity=92 time=0
EXTRACT: note_on channel=11 note=86 velocity=85 time=0.009375000000000001
EXTRACT: note_on channel=9 note=39 velocity=0 time=0.0078125
EXTRACT: control_change channel=12 control=10 value=73 time=0.018750000000000003
EXTRACT: control_change channel=12 control=10 value=69 time=0.0390625
EXTRACT: control_change channel=12 control=10 value=65 time=0.0390625
EXTRACT: note_on channel=12 note=74 velocity=0 time=0.015625
EXTRACT: note_on channel=11 note=86 velocity=0 time=0.0078125
EXTRACT: note_on channel=11 note=74 velocity=0 time=0
EXTRACT: note_on channel=11 note=85 velocity=86 time=0.037500000000000006
EXTRACT: note_on channel=11 note=73 velocity=86 time=0.00625
EXTRACT: note_on channel=9 note=35 velocity=115 time=0.003125
EXTRACT: note_on channel=9 note=36 velocity=115 time=0
EXTRACT: note_on channel=10 note=60 velocity=60 time=0
EXTRACT: note_on channel=12 note=73 velocity=70 time=0.003125
EXTRACT: control_change channel=12 control=10 value=57 time=0.004687500000000001
EXTRACT: note_on channel=9 note=36 velocity=0 time=0.0203125
EXTRACT: note_on channel=9 note=35 velocity=0 time=0
EXTRACT: note_on channel=10 note=60 velocity=0 time=0
EXTRACT: control_change channel=12 control=10 value=53 time=0.018750000000000003
EXTRACT: control_change channel=12 control=10 value=49 time=0.0390625
EXTRACT: control_change channel=12 control=10 value=45 time=0.0390625
EXTRACT: note_on channel=12 note=73 velocity=0 time=0.0078125
EXTRACT: note_on channel=11 note=73 velocity=0 time=0.0078125
EXTRACT: note_on channel=11 note=85 velocity=0 time=0
EXTRACT: note_on channel=2 note=59 velocity=0 time=0.015625
EXTRACT: note_on channel=2 note=54 velocity=0 time=0
EXTRACT: note_on channel=2 note=62 velocity=0 time=0
EXTRACT: note_on channel=4 note=61 velocity=0 time=0
EXTRACT: note_on channel=3 note=85 velocity=0 time=0.0078125
EXTRACT: note_on channel=11 note=86 velocity=86 time=0.0125
EXTRACT: note_on channel=2 note=54 velocity=79 time=0.004687500000000001
EXTRACT: note_on channel=3 note=81 velocity=79 time=0.0015625
EXTRACT: note_on channel=9 note=35 velocity=115 time=0.004687500000000001
EXTRACT: note_on channel=9 note=36 velocity=115 time=0
EXTRACT: note_on channel=10 note=60 velocity=78 time=0
EXTRACT: note_on channel=2 note=59 velocity=77 time=0.004687500000000001
EXTRACT: note_on channel=11 note=74 velocity=87 time=0
EXTRACT: note_on channel=4 note=57 velocity=76 time=0.003125
EXTRACT: note_on channel=2 note=62 velocity=78 time=0.0015625
EXTRACT: note_on channel=12 note=74 velocity=72 time=0.003125
EXTRACT: control_change channel=12 control=10 value=37 time=0.003125
EXTRACT: note_on channel=9 note=36 velocity=0 time=0.0125
EXTRACT: note_on channel=9 note=35 velocity=0 time=0
EXTRACT: note_on channel=10 note=60 velocity=0 time=0
EXTRACT: control_change channel=12 control=10 value=33 time=0.026562500000000003
EXTRACT: note_on channel=3 note=81 velocity=0 time=0.0234375
EXTRACT: control_change channel=12 control=10 value=29 time=0.015625
EXTRACT: note_on channel=12 note=74 velocity=0 time=0.0390625
EXTRACT: control_change channel=12 control=10 value=25 time=0
EXTRACT: note_on channel=11 note=74 velocity=0 time=0.0078125
EXTRACT: note_on channel=11 note=86 velocity=0 time=0
EXTRACT: note_on channel=4 note=57 velocity=0 time=0.015625
EXTRACT: note_on channel=9 note=35 velocity=115 time=0.03125
EXTRACT: note_on channel=9 note=36 velocity=115 time=0
EXTRACT: note_on channel=10 note=60 velocity=96 time=0
EXTRACT: note_on channel=12 note=73 velocity=69 time=0.0015625
EXTRACT: note_on channel=4 note=57 velocity=77 time=0.0015625
EXTRACT: note_on channel=3 note=81 velocity=76 time=0.0015625
EXTRACT: note_on channel=11 note=73 velocity=84 time=0
EXTRACT: note_on channel=11 note=85 velocity=83 time=0
EXTRACT: control_change channel=12 control=10 value=17 time=0.018750000000000003
EXTRACT: note_on channel=9 note=36 velocity=0 time=0.004687500000000001
EXTRACT: note_on channel=9 note=35 velocity=0 time=0
EXTRACT: note_on channel=10 note=60 velocity=0 time=0
EXTRACT: control_change channel=12 control=10 value=15 time=0.034375
EXTRACT: control_change channel=12 control=10 value=19 time=0.0390625
EXTRACT: note_on channel=12 note=73 velocity=0 time=0.03125
EXTRACT: note_on channel=11 note=85 velocity=0 time=0.0078125
EXTRACT: note_on channel=11 note=73 velocity=0 time=0
EXTRACT: control_change channel=12 control=10 value=23 time=0
EXTRACT: note_on channel=1 note=35 velocity=0 time=0.0078125
EXTRACT: note_on channel=2 note=62 velocity=0 time=0.0078125
EXTRACT: note_on channel=2 note=47 velocity=0 time=0
EXTRACT: note_on channel=2 note=54 velocity=0 time=0
EXTRACT: note_on channel=2 note=59 velocity=0 time=0
EXTRACT: note_on channel=6 note=59 velocity=0 time=0
EXTRACT: note_on channel=7 note=59 velocity=0 time=0
EXTRACT: note_on channel=7 note=71 velocity=0 time=0
EXTRACT: note_on channel=7 note=74 velocity=0 time=0
EXTRACT: note_on channel=8 note=47 velocity=0 time=0
EXTRACT: note_on channel=8 note=50 velocity=0 time=0
EXTRACT: note_on channel=8 note=54 velocity=0 time=0
EXTRACT: note_on channel=8 note=59 velocity=0 time=0
EXTRACT: note_on channel=6 note=54 velocity=77 time=0.0203125
EXTRACT: note_on channel=12 note=69 velocity=71 time=0
EXTRACT: note_on channel=2 note=61 velocity=90 time=0.003125
EXTRACT: control_change channel=12 control=10 value=27 time=0
EXTRACT: note_on channel=2 note=57 velocity=93 time=0.0015625
EXTRACT: note_on channel=7 note=66 velocity=59 time=0
EXTRACT: note_on channel=8 note=42 velocity=60 time=0.003125
EXTRACT: note_on channel=8 note=49 velocity=62 time=0
EXTRACT: note_on channel=11 note=81 velocity=86 time=0
EXTRACT: note_on channel=9 note=35 velocity=115 time=0.003125
EXTRACT: note_on channel=9 note=36 velocity=115 time=0
EXTRACT: note_on channel=10 note=60 velocity=115 time=0
EXTRACT: note_on channel=2 note=42 velocity=91 time=0.0015625
EXTRACT: note_on channel=7 note=69 velocity=58 time=0
EXTRACT: note_on channel=1 note=42 velocity=75 time=0.0015625
EXTRACT: note_on channel=2 note=54 velocity=91 time=0
EXTRACT: note_on channel=8 note=54 velocity=61 time=0
EXTRACT: note_on channel=7 note=54 velocity=60 time=0.00625
EXTRACT: note_on channel=11 note=69 velocity=83 time=0.0015625
EXTRACT: note_on channel=5 note=73 velocity=90 time=0.0015625
EXTRACT: note_on channel=8 note=57 velocity=58 time=0
EXTRACT: note_on channel=9 note=36 velocity=0 time=0.015625
EXTRACT: note_on channel=9 note=35 velocity=0 time=0
EXTRACT: note_on channel=10 note=60 velocity=0 time=0
EXTRACT: control_change channel=12 control=10 value=31 time=0.003125
EXTRACT: control_change channel=12 control=10 value=35 time=0.0390625
EXTRACT: control_change channel=12 control=10 value=39 time=0.0390625
EXTRACT: note_on channel=12 note=69 velocity=0 time=0.0234375
EXTRACT: note_on channel=11 note=69 velocity=0 time=0.0078125
EXTRACT: note_on channel=11 note=81 velocity=0 time=0
EXTRACT: note_on channel=4 note=57 velocity=0 time=0.015625
EXTRACT: note_on channel=3 note=81 velocity=0 time=0.0078125
EXTRACT: note_on channel=4 note=54 velocity=73 time=0.0171875
EXTRACT: note_on channel=3 note=78 velocity=74 time=0.009375000000000001
EXTRACT: note_on channel=5 note=73 velocity=0 time=0.153125
EXTRACT: note_on channel=12 note=66 velocity=71 time=0.0203125
EXTRACT: note_on channel=11 note=66 velocity=86 time=0.003125
EXTRACT: note_on channel=11 note=78 velocity=83 time=0.0015625
EXTRACT: note_on channel=5 note=69 velocity=81 time=0.003125
EXTRACT: control_change channel=12 control=10 value=67 time=0.010937500000000001
EXTRACT: control_change channel=12 control=10 value=71 time=0.0390625
EXTRACT: control_change channel=12 control=10 value=75 time=0.0390625
EXTRACT: control_change channel=12 control=10 value=79 time=0.0390625
EXTRACT: note_on channel=12 note=66 velocity=0 time=0.0078125
EXTRACT: note_on channel=11 note=78 velocity=0 time=0.0078125
EXTRACT: note_on channel=11 note=66 velocity=0 time=0
EXTRACT: note_on channel=5 note=69 velocity=0 time=0.015625
EXTRACT: note_on channel=5 note=69 velocity=77 time=0.029687500000000002
EXTRACT: note_on channel=11 note=80 velocity=86 time=0.003125
EXTRACT: note_on channel=12 note=68 velocity=69 time=0
EXTRACT: note_on channel=11 note=68 velocity=84 time=0.0015625
EXTRACT: control_change channel=12 control=10 value=87 time=0.0125
EXTRACT: control_change channel=12 control=10 value=91 time=0.0390625
EXTRACT: control_change channel=12 control=10 value=95 time=0.0390625
EXTRACT: note_on channel=12 note=68 velocity=0 time=0.0390625
EXTRACT: control_change channel=12 control=10 value=99 time=0
EXTRACT: note_on channel=11 note=68 velocity=0 time=0.0078125
EXTRACT: note_on channel=11 note=80 velocity=0 time=0
EXTRACT: note_on channel=2 note=54 velocity=0 time=0.015625
EXTRACT: note_on channel=9 note=39 velocity=115 time=0.0203125
EXTRACT: note_on channel=12 note=69 velocity=68 time=0.003125
EXTRACT: note_on channel=11 note=81 velocity=84 time=0.0078125
EXTRACT: note_on channel=11 note=69 velocity=87 time=0.003125
EXTRACT: note_on channel=2 note=54 velocity=89 time=0.004687500000000001
EXTRACT: note_on channel=9 note=39 velocity=0 time=0.009375000000000001
EXTRACT: control_change channel=12 control=10 value=107 time=0.00625
EXTRACT: control_change channel=12 control=10 value=111 time=0.0390625
EXTRACT: control_change channel=12 control=10 value=115 time=0.0390625
EXTRACT: note_on channel=12 note=69 velocity=0 time=0.03125
EXTRACT: note_on channel=11 note=69 velocity=0 time=0.0078125
EXTRACT: note_on channel=11 note=81 velocity=0 time=0
EXTRACT: control_change channel=12 control=10 value=119 time=0
EXTRACT: note_on channel=5 note=69 velocity=0 time=0.015625
EXTRACT: note_on channel=5 note=66 velocity=77 time=0.0234375
EXTRACT: note_on channel=2 note=57 velocity=0 time=0.1640625
EXTRACT: note_on channel=4 note=54 velocity=0 time=0
EXTRACT: note_on channel=3 note=78 velocity=0 time=0.0078125
EXTRACT: note_on channel=11 note=69 velocity=83 time=0.0125
EXTRACT: note_on channel=11 note=81 velocity=87 time=0.003125
EXTRACT: note_on channel=12 note=69 velocity=69 time=0
EXTRACT: note_on channel=2 note=57 velocity=79 time=0.0015625
EXTRACT: control_change channel=12 control=10 value=105 time=0.00625
EXTRACT: control_change channel=12 control=10 value=101 time=0.0390625
EXTRACT: control_change channel=12 control=10 value=97 time=0.0390625
EXTRACT: control_change channel=12 control=10 value=93 time=0.0390625
EXTRACT: note_on channel=12 note=69 velocity=0 time=0.015625
EXTRACT: note_on channel=11 note=81 velocity=0 time=0.0078125
EXTRACT: note_on channel=11 note=69 velocity=0 time=0
EXTRACT: note_on channel=3 note=81 velocity=87 time=0.22968750000000002
EXTRACT: note_on channel=4 note=57 velocity=88 time=0
EXTRACT: note_on channel=11 note=81 velocity=84 time=0
EXTRACT: note_on channel=9 note=36 velocity=115 time=0.004687500000000001
EXTRACT: note_on channel=12 note=69 velocity=69 time=0.0015625
EXTRACT: note_on channel=11 note=69 velocity=83 time=0.010937500000000001
EXTRACT: control_change channel=12 control=10 value=65 time=0.003125
EXTRACT: note_on channel=9 note=36 velocity=0 time=0.0125
EXTRACT: control_change channel=12 control=10 value=61 time=0.026562500000000003
EXTRACT: control_change channel=12 control=10 value=57 time=0.0390625
EXTRACT: note_on channel=12 note=69 velocity=0 time=0.0390625
EXTRACT: control_change channel=12 control=10 value=53 time=0
EXTRACT: note_on channel=11 note=69 velocity=0 time=0.0078125
EXTRACT: note_on channel=11 note=81 velocity=0 time=0
EXTRACT: note_on channel=4 note=57 velocity=0 time=0.015625
EXTRACT: note_on channel=3 note=81 velocity=0 time=0.0078125
EXTRACT: note_on channel=4 note=57 velocity=72 time=0.028125
EXTRACT: note_on channel=3 note=81 velocity=73 time=0.0015625
EXTRACT: note_on channel=3 note=81 velocity=0 time=0.07187500000000001
EXTRACT: note_on channel=2 note=54 velocity=0 time=0.078125
EXTRACT: note_on channel=4 note=57 velocity=0 time=0
EXTRACT: note_on channel=5 note=66 velocity=0 time=0
EXTRACT: note_on channel=2 note=54 velocity=79 time=0.0203125
EXTRACT: note_on channel=11 note=81 velocity=87 time=0.0015625
EXTRACT: note_on channel=11 note=69 velocity=87 time=0.003125
EXTRACT: note_on channel=3 note=81 velocity=79 time=0.004687500000000001
EXTRACT: note_on channel=9 note=35 velocity=115 time=0.0015625
EXTRACT: note_on channel=9 note=36 velocity=115 time=0
EXTRACT: note_on channel=4 note=57 velocity=78 time=0.0015625
EXTRACT: note_on channel=12 note=69 velocity=72 time=0.00625
EXTRACT: note_on channel=9 note=36 velocity=0 time=0.0203125
EXTRACT: note_on channel=9 note=35 velocity=0 time=0
EXTRACT: control_change channel=12 control=10 value=25 time=0.003125
EXTRACT: control_change channel=12 control=10 value=21 time=0.0390625
EXTRACT: note_on channel=3 note=81 velocity=0 time=0.0078125
EXTRACT: control_change channel=12 control=10 value=17 time=0.03125
EXTRACT: note_on channel=12 note=69 velocity=0 time=0.0234375
EXTRACT: note_on channel=11 note=69 velocity=0 time=0.0078125
EXTRACT: note_on channel=11 note=81 velocity=0 time=0
EXTRACT: note_on channel=4 note=57 velocity=0 time=0.015625
EXTRACT: note_on channel=4 note=57 velocity=79 time=0.0328125
EXTRACT: note_on channel=3 note=81 velocity=79 time=0.010937500000000001
EXTRACT: note_on channel=3 note=81 velocity=0 time=0.065625
EXTRACT: note_on channel=2 note=57 velocity=0 time=0.078125
EXTRACT: note_on channel=4 note=57 velocity=0 time=0
EXTRACT: note_on channel=11 note=81 velocity=87 time=0.026562500000000003
EXTRACT: note_on channel=11 note=69 velocity=84 time=0
EXTRACT: note_on channel=4 note=57 velocity=86 time=0.0015625
EXTRACT: note_on channel=12 note=69 velocity=70 time=0
EXTRACT: note_on channel=2 note=57 velocity=86 time=0.00625
EXTRACT: note_on channel=3 note=81 velocity=86 time=0
EXTRACT: note_on channel=9 note=39 velocity=117 time=0
EXTRACT: control_change channel=12 control=10 value=39 time=0.004687500000000001
EXTRACT: note_on channel=9 note=39 velocity=0 time=0.0234375
EXTRACT: control_change channel=12 control=10 value=43 time=0.015625
EXTRACT: control_change channel=12 control=10 value=47 time=0.0390625
EXTRACT: control_change channel=12 control=10 value=51 time=0.0390625
EXTRACT: note_on channel=12 note=69 velocity=0 time=0.0078125
EXTRACT: note_on channel=11 note=69 velocity=0 time=0.0078125
EXTRACT: note_on channel=11 note=81 velocity=0 time=0
EXTRACT: note_on channel=9 note=35 velocity=115 time=0.046875
EXTRACT: note_on channel=9 note=36 velocity=115 time=0
EXTRACT: note_on channel=9 note=36 velocity=0 time=0.028125
EXTRACT: note_on channel=9 note=35 velocity=0 time=0
EXTRACT: note_on channel=4 note=57 velocity=0 time=0.12812500000000002
EXTRACT: note_on channel=3 note=81 velocity=0 time=0.0078125
EXTRACT: note_on channel=3 note=81 velocity=78 time=0.0125
EXTRACT: note_on channel=2 note=64 velocity=78 time=0.004687500000000001
EXTRACT: note_on channel=4 note=57 velocity=79 time=0.003125
EXTRACT: note_on channel=12 note=69 velocity=71 time=0
EXTRACT: note_on channel=11 note=81 velocity=87 time=0.0140625
EXTRACT: note_on channel=11 note=69 velocity=84 time=0.0015625
EXTRACT: control_change channel=12 control=10 value=79 time=0.010937500000000001
EXTRACT: control_change channel=12 control=10 value=83 time=0.0390625
EXTRACT: note_on channel=3 note=81 velocity=0 time=0.015625
EXTRACT: control_change channel=12 control=10 value=87 time=0.0234375
EXTRACT: note_on channel=12 note=69 velocity=0 time=0.03125
EXTRACT: note_on channel=11 note=69 velocity=0 time=0.0078125
EXTRACT: note_on channel=11 note=81 velocity=0 time=0
EXTRACT: control_change channel=12 control=10 value=91 time=0
EXTRACT: note_on channel=4 note=57 velocity=0 time=0.015625
EXTRACT: note_on channel=3 note=81 velocity=82 time=0.018750000000000003
EXTRACT: note_on channel=11 note=81 velocity=83 time=0.0015625
EXTRACT: control_change channel=12 control=10 value=95 time=0.003125
EXTRACT: note_on channel=12 note=69 velocity=69 time=0.0015625
EXTRACT: note_on channel=11 note=69 velocity=87 time=0.0015625
EXTRACT: note_on channel=4 note=57 velocity=81 time=0.0015625
EXTRACT: control_change channel=12 control=10 value=99 time=0.034375
EXTRACT: control_change channel=12 control=10 value=103 time=0.0390625
EXTRACT: control_change channel=12 control=10 value=107 time=0.0390625
EXTRACT: note_on channel=12 note=69 velocity=0 time=0.0234375
EXTRACT: note_on channel=11 note=69 velocity=0 time=0.0078125
EXTRACT: note_on channel=11 note=81 velocity=0 time=0
EXTRACT: note_on channel=1 note=42 velocity=0 time=0.0078125
EXTRACT: note_on channel=2 note=64 velocity=0 time=0.0078125
EXTRACT: note_on channel=2 note=61 velocity=0 time=0
EXTRACT: note_on channel=2 note=54 velocity=0 time=0
EXTRACT: note_on channel=2 note=42 velocity=0 time=0
EXTRACT: note_on channel=2 note=57 velocity=0 time=0
EXTRACT: note_on channel=6 note=54 velocity=0 time=0
EXTRACT: note_on channel=7 note=54 velocity=0 time=0
EXTRACT: note_on channel=7 note=69 velocity=0 time=0
EXTRACT: note_on channel=7 note=66 velocity=0 time=0
EXTRACT: note_on channel=8 note=57 velocity=0 time=0
EXTRACT: note_on channel=8 note=42 velocity=0 time=0
EXTRACT: note_on channel=8 note=49 velocity=0 time=0
EXTRACT: note_on channel=8 note=54 velocity=0 time=0
EXTRACT: note_on channel=11 note=69 velocity=85 time=0.018750000000000003
EXTRACT: note_on channel=12 note=69 velocity=68 time=0
EXTRACT: note_on channel=1 note=38 velocity=76 time=0.0015625
EXTRACT: note_on channel=2 note=62 velocity=90 time=0
EXTRACT: note_on channel=7 note=50 velocity=59 time=0.0015625
EXTRACT: note_on channel=2 note=38 velocity=93 time=0.004687500000000001
EXTRACT: note_on channel=8 note=57 velocity=60 time=0
EXTRACT: note_on channel=2 note=54 velocity=92 time=0.0015625
EXTRACT: note_on channel=11 note=81 velocity=83 time=0
EXTRACT: note_on channel=2 note=57 velocity=89 time=0.003125
EXTRACT: note_on channel=9 note=35 velocity=115 time=0
EXTRACT: note_on channel=9 note=36 velocity=115 time=0
EXTRACT: note_on channel=10 note=60 velocity=115 time=0
EXTRACT: control_change channel=12 control=10 value=115 time=0
EXTRACT: note_on channel=6 note=54 velocity=74 time=0.003125
EXTRACT: note_on channel=8 note=38 velocity=62 time=0
EXTRACT: note_on channel=8 note=50 velocity=60 time=0
EXTRACT: note_on channel=7 note=62 velocity=62 time=0.0015625
EXTRACT: note_on channel=8 note=54 velocity=58 time=0.004687500000000001
EXTRACT: note_on channel=7 note=66 velocity=62 time=0.0015625
EXTRACT: note_on channel=9 note=36 velocity=0 time=0.0171875
EXTRACT: note_on channel=9 note=35 velocity=0 time=0
EXTRACT: note_on channel=10 note=60 velocity=0 time=0
EXTRACT: control_change channel=12 control=10 value=119 time=0.010937500000000001
EXTRACT: control_change channel=12 control=10 value=123 time=0.0390625
EXTRACT: control_change channel=12 control=10 value=121 time=0.0390625
EXTRACT: note_on channel=12 note=69 velocity=0 time=0.015625
EXTRACT: note_on channel=11 note=81 velocity=0 time=0.0078125
EXTRACT: note_on channel=11 note=69 velocity=0 time=0
EXTRACT: note_on channel=4 note=57 velocity=0 time=0.015625
EXTRACT: note_on channel=3 note=81 velocity=0 time=0.0078125
EXTRACT: note_on channel=4 note=64 velocity=74 time=0.0203125
EXTRACT: note_on channel=3 note=76 velocity=73 time=0.010937500000000001
EXTRACT: note_on channel=2 note=57 velocity=0 time=0.1484375
EXTRACT: note_on channel=4 note=64 velocity=0 time=0
EXTRACT: note_on channel=3 note=76 velocity=0 time=0.0078125
EXTRACT: note_on channel=12 note=66 velocity=68 time=0.0140625
EXTRACT: note_on channel=11 note=66 velocity=87 time=0.004687500000000001
EXTRACT: note_on channel=2 note=59 velocity=60 time=0.003125
EXTRACT: note_on channel=11 note=78 velocity=85 time=0.004687500000000001
EXTRACT: note_on channel=3 note=74 velocity=75 time=0.004687500000000001
EXTRACT: note_on channel=4 note=62 velocity=78 time=0.003125
EXTRACT: control_change channel=12 control=10 value=93 time=0.004687500000000001
EXTRACT: control_change channel=12 control=10 value=89 time=0.0390625
EXTRACT: control_change channel=12 control=10 value=85 time=0.0390625
EXTRACT: note_on channel=12 note=66 velocity=0 time=0.0390625
EXTRACT: control_change channel=12 control=10 value=81 time=0
EXTRACT: note_on channel=11 note=78 velocity=0 time=0.0078125
EXTRACT: note_on channel=11 note=66 velocity=0 time=0
EXTRACT: note_on channel=4 note=62 velocity=0 time=0.015625
EXTRACT: note_on channel=3 note=74 velocity=0 time=0.0078125
EXTRACT: note_on channel=12 note=68 velocity=70 time=0.0140625
EXTRACT: note_on channel=4 note=61 velocity=74 time=0.004687500000000001
EXTRACT: note_on channel=3 note=73 velocity=74 time=0.0015625
EXTRACT: note_on channel=9 note=35 velocity=115 time=0.003125
EXTRACT: note_on channel=9 note=36 velocity=115 time=0
EXTRACT: note_on channel=11 note=80 velocity=87 time=0.004687500000000001
EXTRACT: note_on channel=11 note=68 velocity=85 time=0.00625
EXTRACT: control_change channel=12 control=10 value=73 time=0.0125
EXTRACT: note_on channel=9 note=36 velocity=0 time=0.004687500000000001
EXTRACT: note_on channel=9 note=35 velocity=0 time=0
EXTRACT: control_change channel=12 control=10 value=69 time=0.034375
EXTRACT: control_change channel=12 control=10 value=65 time=0.0390625
EXTRACT: note_on channel=12 note=68 velocity=0 time=0.03125
EXTRACT: note_on channel=11 note=68 velocity=0 time=0.0078125
EXTRACT: note_on channel=11 note=80 velocity=0 time=0
EXTRACT: control_change channel=12 control=10 value=61 time=0
EXTRACT: note_on channel=9 note=39 velocity=116 time=0.043750000000000004
EXTRACT: note_on channel=11 note=69 velocity=83 time=0.003125
EXTRACT: note_on channel=11 note=81 velocity=87 time=0.009375000000000001
EXTRACT: note_on channel=12 note=69 velocity=71 time=0.0015625
EXTRACT: note_on channel=9 note=39 velocity=0 time=0.0140625
EXTRACT: control_change channel=12 control=10 value=53 time=0.00625
EXTRACT: control_change channel=12 control=10 value=49 time=0.0390625
EXTRACT: control_change channel=12 control=10 value=45 time=0.0390625
EXTRACT: note_on channel=12 note=69 velocity=0 time=0.0234375
EXTRACT: note_on channel=11 note=81 velocity=0 time=0.0078125
EXTRACT: note_on channel=11 note=69 velocity=0 time=0
EXTRACT: note_on channel=2 note=59 velocity=0 time=0.203125
EXTRACT: note_on channel=11 note=69 velocity=84 time=0.018750000000000003
EXTRACT: note_on channel=2 note=57 velocity=62 time=0.003125
EXTRACT: note_on channel=12 note=69 velocity=70 time=0.009375000000000001
EXTRACT: control_change channel=12 control=10 value=17 time=0.0078125
EXTRACT: note_on channel=11 note=81 velocity=87 time=0.004687500000000001
EXTRACT: control_change channel=12 control=10 value=15 time=0.034375
EXTRACT: control_change channel=12 control=10 value=19 time=0.0390625
EXTRACT: control_change channel=12 control=10 value=23 time=0.0390625
EXTRACT: note_on channel=12 note=69 velocity=0 time=0.0078125
EXTRACT: note_on channel=11 note=81 velocity=0 time=0.0078125
EXTRACT: note_on channel=11 note=69 velocity=0 time=0
EXTRACT: note_on channel=4 note=61 velocity=0 time=0.015625
EXTRACT: note_on channel=3 note=73 velocity=0 time=0.0078125
EXTRACT: note_on channel=4 note=52 velocity=84 time=0.010937500000000001
EXTRACT: note_on channel=3 note=76 velocity=85 time=0.00625
EXTRACT: note_on channel=2 note=54 velocity=0 time=0.1625
EXTRACT: note_on channel=4 note=52 velocity=0 time=0
EXTRACT: note_on channel=3 note=76 velocity=0 time=0.0078125
EXTRACT: note_on channel=11 note=69 velocity=86 time=0.0140625
EXTRACT: note_on channel=4 note=57 velocity=88 time=0.003125
EXTRACT: note_on channel=2 note=54 velocity=87 time=0.003125
EXTRACT: note_on channel=9 note=36 velocity=115 time=0.003125
EXTRACT: note_on channel=3 note=81 velocity=86 time=0.003125
EXTRACT: note_on channel=11 note=81 velocity=86 time=0
EXTRACT: note_on channel=12 note=69 velocity=68 time=0.00625
EXTRACT: control_change channel=12 control=10 value=51 time=0.0140625
EXTRACT: note_on channel=9 note=36 velocity=0 time=0.004687500000000001
EXTRACT: control_change channel=12 control=10 value=55 time=0.034375
EXTRACT: control_change channel=12 control=10 value=59 time=0.0390625
EXTRACT: note_on channel=12 note=69 velocity=0 time=0.03125
EXTRACT: note_on channel=11 note=81 velocity=0 time=0.0078125
EXTRACT: note_on channel=11 note=69 velocity=0 time=0
EXTRACT: control_change channel=12 control=10 value=63 time=0
EXTRACT: note_on channel=4 note=57 velocity=0 time=0.015625
EXTRACT: note_on channel=3 note=81 velocity=0 time=0.0078125
EXTRACT: note_on channel=3 note=81 velocity=76 time=0.026562500000000003
EXTRACT: note_on channel=4 note=57 velocity=72 time=0.00625
EXTRACT: note_on channel=3 note=81 velocity=0 time=0.06875
EXTRACT: note_on channel=4 note=57 velocity=0 time=0.078125
EXTRACT: note_on channel=12 note=69 velocity=68 time=0.026562500000000003
EXTRACT: note_on channel=3 note=81 velocity=77 time=0.0015625
EXTRACT: control_change channel=12 control=10 value=87 time=0.003125
EXTRACT: note_on channel=4 note=57 velocity=79 time=0.004687500000000001
EXTRACT: note_on channel=11 note=69 velocity=86 time=0.004687500000000001
EXTRACT: note_on channel=11 note=81 velocity=83 time=0.003125
EXTRACT: control_change channel=12 control=10 value=91 time=0.026562500000000003
EXTRACT: control_change channel=12 control=10 value=95 time=0.0390625
EXTRACT: control_change channel=12 control=10 value=99 time=0.0390625
EXTRACT: note_on channel=12 note=69 velocity=0 time=0.015625
EXTRACT: note_on channel=11 note=81 velocity=0 time=0.0078125
EXTRACT: note_on channel=11 note=69 velocity=0 time=0
EXTRACT: note_on channel=4 note=57 velocity=0 time=0.015625
EXTRACT: note_on channel=3 note=81 velocity=0 time=0.0078125
EXTRACT: note_on channel=9 note=36 velocity=115 time=0.0234375
EXTRACT: note_on channel=9 note=36 velocity=0 time=0.028125
EXTRACT: note_on channel=4 note=57 velocity=90 time=0.15000000000000002
EXTRACT: note_on channel=3 note=81 velocity=90 time=0.0015625
EXTRACT: note_on channel=9 note=39 velocity=117 time=0
EXTRACT: note_on channel=11 note=81 velocity=84 time=0.003125
EXTRACT: note_on channel=2 note=50 velocity=91 time=0.003125
EXTRACT: note_on channel=11 note=69 velocity=87 time=0.004687500000000001
EXTRACT: note_on channel=12 note=69 velocity=72 time=0
EXTRACT: control_change channel=12 control=10 value=121 time=0.0125
EXTRACT: note_on channel=9 note=39 velocity=0 time=0.004687500000000001
EXTRACT: control_change channel=12 control=10 value=117 time=0.034375
EXTRACT: control_change channel=12 control=10 value=113 time=0.0390625
EXTRACT: note_on channel=12 note=69 velocity=0 time=0.0390625
EXTRACT: control_change channel=12 control=10 value=109 time=0
EXTRACT: note_on channel=11 note=69 velocity=0 time=0.0078125
EXTRACT: note_on channel=11 note=81 velocity=0 time=0
EXTRACT: note_on channel=11 note=83 velocity=85 time=0.043750000000000004
EXTRACT: note_on channel=9 note=35 velocity=115 time=0.003125
EXTRACT: note_on channel=9 note=36 velocity=115 time=0
EXTRACT: note_on channel=11 note=71 velocity=83 time=0.003125
EXTRACT: note_on channel=12 note=71 velocity=72 time=0
EXTRACT: control_change channel=12 control=10 value=101 time=0.0203125
EXTRACT: note_on channel=9 note=36 velocity=0 time=0.004687500000000001
EXTRACT: note_on channel=9 note=35 velocity=0 time=0
EXTRACT: control_change channel=12 control=10 value=97 time=0.034375
EXTRACT: control_change channel=12 control=10 value=93 time=0.0390625
EXTRACT: note_on channel=12 note=71 velocity=0 time=0.03125
EXTRACT: note_on channel=11 note=71 velocity=0 time=0.0078125
EXTRACT: note_on channel=11 note=83 velocity=0 time=0
EXTRACT: control_change channel=12 control=10 value=89 time=0
EXTRACT: note_on channel=2 note=38 velocity=0 time=0.015625
EXTRACT: note_on channel=4 note=57 velocity=0 time=0
EXTRACT: note_on channel=3 note=81 velocity=0 time=0.0078125
EXTRACT: control_change channel=12 control=10 value=85 time=0.015625
EXTRACT: note_on channel=12 note=73 velocity=70 time=0.0015625
EXTRACT: note_on channel=4 note=56 velocity=76 time=0.0015625
EXTRACT: note_on channel=9 note=35 velocity=115 time=0.004687500000000001
EXTRACT: note_on channel=9 note=36 velocity=115 time=0
EXTRACT: note_on channel=11 note=73 velocity=84 time=0.003125
EXTRACT: note_on channel=2 note=38 velocity=79 time=0.0015625
EXTRACT: note_on channel=3 note=80 velocity=76 time=0
EXTRACT: note_on channel=11 note=85 velocity=83 time=0.003125
EXTRACT: note_on channel=9 note=36 velocity=0 time=0.0203125
EXTRACT: note_on channel=9 note=35 velocity=0 time=0
EXTRACT: control_change channel=12 control=10 value=81 time=0.003125
EXTRACT: control_change channel=12 control=10 value=77 time=0.0390625
EXTRACT: control_change channel=12 control=10 value=73 time=0.0390625
EXTRACT: note_on channel=12 note=73 velocity=0 time=0.0234375
EXTRACT: note_on channel=11 note=85 velocity=0 time=0.0078125
EXTRACT: note_on channel=11 note=73 velocity=0 time=0
EXTRACT: note_on channel=4 note=56 velocity=0 time=0.015625
EXTRACT: note_on channel=3 note=80 velocity=0 time=0.0078125
EXTRACT: note_on channel=11 note=83 velocity=85 time=0.0203125
EXTRACT: note_on channel=3 note=81 velocity=74 time=0.0015625
EXTRACT: note_on channel=9 note=36 velocity=115 time=0.0015625
EXTRACT: note_on channel=4 note=57 velocity=74 time=0.00625
EXTRACT: note_on channel=11 note=71 velocity=86 time=0.0015625
EXTRACT: note_on channel=12 note=71 velocity=70 time=0.0015625
EXTRACT: note_on channel=9 note=36 velocity=0 time=0.018750000000000003
EXTRACT: control_change channel=12 control=10 value=61 time=0.010937500000000001
EXTRACT: control_change channel=12 control=10 value=57 time=0.0390625
EXTRACT: control_change channel=12 control=10 value=53 time=0.0390625
EXTRACT: note_on channel=12 note=71 velocity=0 time=0.015625
EXTRACT: note_on channel=11 note=71 velocity=0 time=0.0078125
EXTRACT: note_on channel=11 note=83 velocity=0 time=0
EXTRACT: note_on channel=1 note=38 velocity=0 time=0.0078125
EXTRACT: note_on channel=2 note=38 velocity=0 time=0.0078125
EXTRACT: note_on channel=2 note=50 velocity=0 time=0
EXTRACT: note_on channel=2 note=57 velocity=0 time=0
EXTRACT: note_on channel=2 note=62 velocity=0 time=0
EXTRACT: note_on channel=2 note=54 velocity=0 time=0
EXTRACT: note_on channel=6 note=54 velocity=0 time=0
EXTRACT: note_on channel=7 note=66 velocity=0 time=0
EXTRACT: note_on channel=7 note=62 velocity=0 time=0
EXTRACT: note_on channel=7 note=50 velocity=0 time=0
EXTRACT: note_on channel=8 note=54 velocity=0 time=0
EXTRACT: note_on channel=8 note=57 velocity=0 time=0
EXTRACT: note_on channel=8 note=38 velocity=0 time=0
EXTRACT: note_on channel=8 note=50 velocity=0 time=0
EXTRACT: note_on channel=2 note=52 velocity=90 time=0.021875000000000002
EXTRACT: note_on channel=8 note=45 velocity=61 time=0
EXTRACT: note_on channel=11 note=69 velocity=84 time=0
EXTRACT: note_on channel=8 note=61 velocity=60 time=0.003125
EXTRACT: note_on channel=8 note=57 velocity=62 time=0
EXTRACT: note_on channel=8 note=52 velocity=62 time=0.0015625
EXTRACT: note_on channel=11 note=81 velocity=86 time=0.0015625
EXTRACT: note_on channel=2 note=45 velocity=89 time=0.003125
EXTRACT: note_on channel=2 note=61 velocity=93 time=0
EXTRACT: note_on channel=7 note=73 velocity=59 time=0
EXTRACT: note_on channel=9 note=36 velocity=115 time=0
EXTRACT: note_on channel=10 note=60 velocity=115 time=0
EXTRACT: note_on channel=6 note=57 velocity=75 time=0.0015625
EXTRACT: note_on channel=12 note=69 velocity=68 time=0
EXTRACT: note_on channel=1 note=33 velocity=76 time=0.003125
EXTRACT: control_change channel=12 control=10 value=45 time=0.003125
EXTRACT: note_on channel=2 note=57 velocity=93 time=0.0015625
EXTRACT: note_on channel=7 note=57 velocity=60 time=0.0015625
EXTRACT: note_on channel=7 note=69 velocity=58 time=0.0015625
EXTRACT: note_on channel=9 note=36 velocity=0 time=0.015625
EXTRACT: note_on channel=10 note=60 velocity=0 time=0
EXTRACT: control_change channel=12 control=10 value=41 time=0.018750000000000003
EXTRACT: control_change channel=12 control=10 value=37 time=0.0390625
EXTRACT: control_change channel=12 control=10 value=33 time=0.0390625
EXTRACT: note_on channel=12 note=69 velocity=0 time=0.0078125
EXTRACT: note_on channel=11 note=81 velocity=0 time=0.0078125
EXTRACT: note_on channel=11 note=69 velocity=0 time=0
EXTRACT: note_on channel=12 note=69 velocity=68 time=0.2234375
EXTRACT: note_on channel=11 note=69 velocity=87 time=0.0015625
EXTRACT: note_on channel=11 note=81 velocity=85 time=0.0140625
EXTRACT: note_on channel=5 note=68 velocity=73 time=0.0015625
EXTRACT: control_change channel=12 control=10 value=23 time=0.0171875
EXTRACT: control_change channel=12 control=10 value=27 time=0.0390625
EXTRACT: control_change channel=12 control=10 value=31 time=0.0390625
EXTRACT: note_on channel=12 note=69 velocity=0 time=0.03125
EXTRACT: note_on channel=11 note=81 velocity=0 time=0.0078125
EXTRACT: note_on channel=11 note=69 velocity=0 time=0
EXTRACT: control_change channel=12 control=10 value=35 time=0
EXTRACT: note_on channel=2 note=52 velocity=0 time=0.015625
EXTRACT: note_on channel=5 note=68 velocity=0 time=0
EXTRACT: note_on channel=5 note=69 velocity=79 time=0.021875000000000002
EXTRACT: note_on channel=2 note=52 velocity=76 time=0.010937500000000001
EXTRACT: note_on channel=11 note=71 velocity=87 time=0
EXTRACT: note_on channel=11 note=83 velocity=85 time=0.00625
EXTRACT: note_on channel=12 note=71 velocity=68 time=0.0015625
EXTRACT: control_change channel=12 control=10 value=43 time=0.021875000000000002
EXTRACT: control_change channel=12 control=10 value=47 time=0.0390625
EXTRACT: control_change channel=12 control=10 value=51 time=0.0390625
EXTRACT: note_on channel=12 note=71 velocity=0 time=0.0234375
EXTRACT: note_on channel=11 note=83 velocity=0 time=0.0078125
EXTRACT: note_on channel=11 note=71 velocity=0 time=0
EXTRACT: note_on channel=2 note=57 velocity=0 time=0.015625
EXTRACT: note_on channel=2 note=61 velocity=0 time=0
EXTRACT: note_on channel=2 note=61 velocity=90 time=0.026562500000000003
EXTRACT: note_on channel=11 note=85 velocity=84 time=0.00625
EXTRACT: note_on channel=11 note=73 velocity=84 time=0.0015625
EXTRACT: note_on channel=2 note=57 velocity=89 time=0.003125
EXTRACT: note_on channel=9 note=39 velocity=113 time=0
EXTRACT: note_on channel=12 note=73 velocity=69 time=0
EXTRACT: note_on channel=9 note=39 velocity=0 time=0.028125
EXTRACT: control_change channel=12 control=10 value=63 time=0.004687500000000001
EXTRACT: control_change channel=12 control=10 value=67 time=0.0390625
EXTRACT: control_change channel=12 control=10 value=71 time=0.0390625
EXTRACT: note_on channel=12 note=73 velocity=0 time=0.015625
EXTRACT: note_on channel=11 note=73 velocity=0 time=0.0078125
EXTRACT: note_on channel=11 note=85 velocity=0 time=0
EXTRACT: note_on channel=4 note=57 velocity=0 time=0.015625
EXTRACT: note_on channel=3 note=81 velocity=0 time=0.0078125
EXTRACT: note_on channel=2 note=52 velocity=0 time=0.1796875
EXTRACT: note_on channel=11 note=73 velocity=84 time=0.025
EXTRACT: note_on channel=2 note=52 velocity=77 time=0.003125
EXTRACT: note_on channel=12 note=73 velocity=72 time=0.004687500000000001
EXTRACT: note_on channel=11 note=85 velocity=83 time=0.0015625
EXTRACT: control_change channel=12 control=10 value=99 time=0.0125
EXTRACT: control_change channel=12 control=10 value=103 time=0.0390625
EXTRACT: control_change channel=12 control=10 value=107 time=0.0390625
EXTRACT: note_on channel=12 note=73 velocity=0 time=0.0390625
EXTRACT: control_change channel=12 control=10 value=111 time=0
EXTRACT: note_on channel=11 note=85 velocity=0 time=0.0078125
EXTRACT: note_on channel=11 note=73 velocity=0 time=0
EXTRACT: note_on channel=3 note=76 velocity=86 time=0.0484375
EXTRACT: note_on channel=4 note=52 velocity=85 time=0.00625
EXTRACT: note_on channel=2 note=57 velocity=0 time=0.1484375
EXTRACT: note_on channel=2 note=61 velocity=0 time=0
EXTRACT: note_on channel=4 note=52 velocity=0 time=0
EXTRACT: note_on channel=3 note=76 velocity=0 time=0.0078125
EXTRACT: note_on channel=2 note=61 velocity=88 time=0.015625
EXTRACT: note_on channel=9 note=36 velocity=115 time=0.0078125
EXTRACT: note_on channel=4 note=57 velocity=90 time=0.0015625
EXTRACT: note_on channel=2 note=57 velocity=90 time=0.003125
EXTRACT: note_on channel=11 note=73 velocity=84 time=0
EXTRACT: note_on channel=12 note=73 velocity=70 time=0
EXTRACT: note_on channel=3 note=81 velocity=88 time=0.003125
EXTRACT: note_on channel=11 note=85 velocity=84 time=0
EXTRACT: note_on channel=9 note=36 velocity=0 time=0.0203125
EXTRACT: control_change channel=12 control=10 value=109 time=0.003125
EXTRACT: control_change channel=12 control=10 value=105 time=0.0390625
EXTRACT: control_change channel=12 control=10 value=101 time=0.0390625
EXTRACT: note_on channel=12 note=73 velocity=0 time=0.0234375
EXTRACT: note_on channel=11 note=85 velocity=0 time=0.0078125
EXTRACT: note_on channel=11 note=73 velocity=0 time=0
EXTRACT: note_on channel=4 note=57 velocity=0 time=0.015625
EXTRACT: note_on channel=5 note=69 velocity=0 time=0
EXTRACT: note_on channel=3 note=81 velocity=0 time=0.0078125
EXTRACT: note_on channel=4 note=57 velocity=73 time=0.021875000000000002
EXTRACT: note_on channel=3 note=81 velocity=75 time=0.0140625
EXTRACT: note_on channel=3 note=81 velocity=0 time=0.065625
EXTRACT: note_on channel=4 note=57 velocity=0 time=0.078125
EXTRACT: note_on channel=4 note=57 velocity=78 time=0.025
EXTRACT: note_on channel=12 note=73 velocity=72 time=0.0015625
EXTRACT: note_on channel=9 note=35 velocity=115 time=0.004687500000000001
EXTRACT: note_on channel=9 note=36 velocity=115 time=0
EXTRACT: note_on channel=11 note=85 velocity=87 time=0.0015625
EXTRACT: note_on channel=3 note=81 velocity=76 time=0.003125
EXTRACT: control_change channel=12 control=10 value=73 time=0.003125
EXTRACT: note_on channel=11 note=73 velocity=83 time=0.0015625
EXTRACT: note_on channel=9 note=36 velocity=0 time=0.018750000000000003
EXTRACT: note_on channel=9 note=35 velocity=0 time=0
EXTRACT: control_change channel=12 control=10 value=69 time=0.018750000000000003
EXTRACT: note_on channel=3 note=81 velocity=0 time=0.03125
EXTRACT: control_change channel=12 control=10 value=65 time=0.0078125
EXTRACT: control_change channel=12 control=10 value=61 time=0.0390625
EXTRACT: note_on channel=12 note=73 velocity=0 time=0.0078125
EXTRACT: note_on channel=11 note=73 velocity=0 time=0.0078125
EXTRACT: note_on channel=11 note=85 velocity=0 time=0
EXTRACT: note_on channel=4 note=57 velocity=0 time=0.015625
EXTRACT: note_on channel=3 note=81 velocity=80 time=0.0203125
EXTRACT: note_on channel=4 note=57 velocity=81 time=0.015625
EXTRACT: note_on channel=3 note=81 velocity=0 time=0.0734375
EXTRACT: note_on channel=2 note=52 velocity=0 time=0.078125
EXTRACT: note_on channel=4 note=57 velocity=0 time=0
EXTRACT: note_on channel=4 note=57 velocity=86 time=0.0203125
EXTRACT: note_on channel=3 note=81 velocity=86 time=0.004687500000000001
EXTRACT: note_on channel=11 note=85 velocity=84 time=0.003125
EXTRACT: note_on channel=11 note=73 velocity=85 time=0.0015625
EXTRACT: note_on channel=12 note=73 velocity=68 time=0.004687500000000001
EXTRACT: note_on channel=9 note=39 velocity=114 time=0.003125
EXTRACT: note_on channel=2 note=52 velocity=88 time=0.00625
EXTRACT: control_change channel=12 control=10 value=33 time=0.010937500000000001
EXTRACT: note_on channel=9 note=39 velocity=0 time=0.010937500000000001
EXTRACT: control_change channel=12 control=10 value=29 time=0.028125
EXTRACT: control_change channel=12 control=10 value=25 time=0.0390625
EXTRACT: note_on channel=12 note=73 velocity=0 time=0.03125
EXTRACT: note_on channel=11 note=73 velocity=0 time=0.0078125
EXTRACT: note_on channel=11 note=85 velocity=0 time=0
EXTRACT: control_change channel=12 control=10 value=21 time=0
EXTRACT: note_on channel=9 note=35 velocity=115 time=0.046875
EXTRACT: note_on channel=9 note=36 velocity=115 time=0
EXTRACT: note_on channel=9 note=36 velocity=0 time=0.028125
EXTRACT: note_on channel=9 note=35 velocity=0 time=0
EXTRACT: note_on channel=2 note=57 velocity=0 time=0.12812500000000002
EXTRACT: note_on channel=4 note=57 velocity=0 time=0
EXTRACT: note_on channel=3 note=81 velocity=0 time=0.0078125
EXTRACT: note_on channel=11 note=83 velocity=87 time=0.010937500000000001
EXTRACT: note_on channel=11 note=71 velocity=85 time=0.004687500000000001
EXTRACT: note_on channel=4 note=57 velocity=76 time=0.009375000000000001
EXTRACT: note_on channel=2 note=57 velocity=76 time=0.0015625
EXTRACT: note_on channel=3 note=81 velocity=77 time=0
EXTRACT: note_on channel=12 note=71 velocity=68 time=0.00625
EXTRACT: control_change channel=12 control=10 value=35 time=0.029687500000000002
EXTRACT: note_on channel=3 note=81 velocity=0 time=0.0390625
EXTRACT: control_change channel=12 control=10 value=39 time=0
EXTRACT: control_change channel=12 control=10 value=43 time=0.0390625
EXTRACT: note_on channel=12 note=71 velocity=0 time=0.015625
EXTRACT: note_on channel=11 note=71 velocity=0 time=0.0078125
EXTRACT: note_on channel=11 note=83 velocity=0 time=0
EXTRACT: note_on channel=4 note=57 velocity=0 time=0.015625
EXTRACT: note_on channel=11 note=73 velocity=84 time=0.0203125
EXTRACT: note_on channel=4 note=59 velocity=82 time=0.003125
EXTRACT: note_on channel=3 note=83 velocity=79 time=0.004687500000000001
EXTRACT: note_on channel=12 note=73 velocity=68 time=0.0015625
EXTRACT: note_on channel=11 note=85 velocity=86 time=0.0015625
EXTRACT: control_change channel=12 control=10 value=51 time=0.0078125
EXTRACT: control_change channel=12 control=10 value=55 time=0.0390625
EXTRACT: control_change channel=12 control=10 value=59 time=0.0390625
EXTRACT: control_change channel=12 control=10 value=63 time=0.0390625
EXTRACT: note_on channel=12 note=73 velocity=0 time=0.0078125
EXTRACT: note_on channel=11 note=85 velocity=0 time=0.0078125
EXTRACT: note_on channel=11 note=73 velocity=0 time=0
EXTRACT: note_on channel=1 note=33 velocity=0 time=0.0078125
EXTRACT: note_on channel=2 note=57 velocity=0 time=0.0078125
EXTRACT: note_on channel=2 note=52 velocity=0 time=0
EXTRACT: note_on channel=2 note=61 velocity=0 time=0
EXTRACT: note_on channel=2 note=45 velocity=0 time=0
EXTRACT: note_on channel=6 note=57 velocity=0 time=0
EXTRACT: note_on channel=7 note=69 velocity=0 time=0
EXTRACT: note_on channel=7 note=57 velocity=0 time=0
EXTRACT: note_on channel=7 note=73 velocity=0 time=0
EXTRACT: note_on channel=8 note=52 velocity=0 time=0
EXTRACT: note_on channel=8 note=45 velocity=0 time=0
EXTRACT: note_on channel=8 note=61 velocity=0 time=0
EXTRACT: note_on channel=8 note=57 velocity=0 time=0
EXTRACT: note_on channel=2 note=54 velocity=89 time=0.0234375
EXTRACT: note_on channel=2 note=47 velocity=93 time=0.0015625
EXTRACT: note_on channel=6 note=59 velocity=76 time=0.0015625
EXTRACT: note_on channel=7 note=59 velocity=59 time=0
EXTRACT: note_on channel=8 note=59 velocity=59 time=0.003125
EXTRACT: note_on channel=11 note=83 velocity=86 time=0
EXTRACT: note_on channel=2 note=62 velocity=89 time=0.0015625
EXTRACT: note_on channel=9 note=35 velocity=115 time=0
EXTRACT: note_on channel=9 note=36 velocity=115 time=0
EXTRACT: note_on channel=11 note=71 velocity=87 time=0.0015625
EXTRACT: note_on channel=7 note=74 velocity=62 time=0.0015625
EXTRACT: note_on channel=12 note=71 velocity=72 time=0
EXTRACT: note_on channel=2 note=59 velocity=89 time=0.0015625
EXTRACT: note_on channel=8 note=54 velocity=59 time=0
EXTRACT: note_on channel=7 note=71 velocity=59 time=0.0015625
EXTRACT: note_on channel=1 note=35 velocity=77 time=0.0015625
EXTRACT: note_on channel=8 note=50 velocity=58 time=0
EXTRACT: note_on channel=8 note=47 velocity=58 time=0.0015625
EXTRACT: control_change channel=12 control=10 value=71 time=0.00625
EXTRACT: note_on channel=9 note=36 velocity=0 time=0.0125
EXTRACT: note_on channel=9 note=35 velocity=0 time=0
EXTRACT: control_change channel=12 control=10 value=75 time=0.026562500000000003
EXTRACT: control_change channel=12 control=10 value=79 time=0.0390625
EXTRACT: note_on channel=12 note=71 velocity=0 time=0.0390625
EXTRACT: control_change channel=12 control=10 value=83 time=0
EXTRACT: note_on channel=11 note=71 velocity=0 time=0.0078125
EXTRACT: note_on channel=11 note=83 velocity=0 time=0
EXTRACT: note_on channel=12 note=71 velocity=69 time=0.0421875
EXTRACT: control_change channel=12 control=10 value=91 time=0.028125
EXTRACT: control_change channel=12 control=10 value=95 time=0.0390625
EXTRACT: control_change channel=12 control=10 value=99 time=0.0390625
EXTRACT: note_on channel=12 note=71 velocity=0 time=0.03125
EXTRACT: control_change channel=12 control=10 value=103 time=0.0078125
EXTRACT: note_on channel=5 note=69 velocity=78 time=0.0421875
EXTRACT: note_on channel=12 note=71 velocity=68 time=0
EXTRACT: note_on channel=11 note=71 velocity=83 time=0.0015625
EXTRACT: note_on channel=11 note=83 velocity=87 time=0.0078125
EXTRACT: control_change channel=12 control=10 value=111 time=0.026562500000000003
EXTRACT: control_change channel=12 control=10 value=115 time=0.0390625
EXTRACT: control_change channel=12 control=10 value=119 time=0.0390625
EXTRACT: note_on channel=12 note=71 velocity=0 time=0.0234375
EXTRACT: note_on channel=11 note=83 velocity=0 time=0.0078125
EXTRACT: note_on channel=11 note=71 velocity=0 time=0
EXTRACT: note_on channel=2 note=54 velocity=0 time=0.015625
EXTRACT: note_on channel=5 note=69 velocity=0 time=0
EXTRACT: note_on channel=11 note=73 velocity=83 time=0.0234375
EXTRACT: note_on channel=11 note=85 velocity=86 time=0.003125
EXTRACT: note_on channel=9 note=35 velocity=115 time=0.004687500000000001
EXTRACT: note_on channel=9 note=36 velocity=115 time=0
EXTRACT: note_on channel=12 note=71 velocity=68 time=0.009375000000000001
EXTRACT: note_on channel=2 note=54 velocity=76 time=0.0015625
EXTRACT: note_on channel=5 note=71 velocity=80 time=0
EXTRACT: note_on channel=9 note=36 velocity=0 time=0.0171875
EXTRACT: note_on channel=9 note=35 velocity=0 time=0
EXTRACT: control_change channel=12 control=10 value=117 time=0.010937500000000001
EXTRACT: control_change channel=12 control=10 value=113 time=0.0390625
EXTRACT: control_change channel=12 control=10 value=109 time=0.0390625
EXTRACT: note_on channel=12 note=71 velocity=0 time=0.015625
EXTRACT: note_on channel=11 note=85 velocity=0 time=0.0078125
EXTRACT: note_on channel=11 note=73 velocity=0 time=0
EXTRACT: note_on channel=2 note=59 velocity=0 time=0.015625
EXTRACT: note_on channel=2 note=62 velocity=0 time=0
EXTRACT: note_on channel=4 note=59 velocity=0 time=0
EXTRACT: note_on channel=3 note=83 velocity=0 time=0.0078125
EXTRACT: note_on channel=2 note=59 velocity=89 time=0.015625
EXTRACT: note_on channel=11 note=86 velocity=86 time=0
EXTRACT: note_on channel=12 note=71 velocity=72 time=0
EXTRACT: note_on channel=11 note=74 velocity=87 time=0.0078125
EXTRACT: note_on channel=9 note=39 velocity=114 time=0.0015625
EXTRACT: note_on channel=2 note=62 velocity=89 time=0.004687500000000001
EXTRACT: control_change channel=12 control=10 value=101 time=0.0015625
EXTRACT: note_on channel=9 note=39 velocity=0 time=0.021875000000000002
EXTRACT: control_change channel=12 control=10 value=97 time=0.0171875
EXTRACT: control_change channel=12 control=10 value=93 time=0.0390625
EXTRACT: control_change channel=12 control=10 value=89 time=0.0390625
EXTRACT: note_on channel=12 note=71 velocity=0 time=0.0078125
EXTRACT: note_on channel=11 note=74 velocity=0 time=0.0078125
EXTRACT: note_on channel=11 note=86 velocity=0 time=0
EXTRACT: note_on channel=12 note=71 velocity=72 time=0.0421875
EXTRACT: control_change channel=12 control=10 value=81 time=0.0203125
EXTRACT: control_change channel=12 control=10 value=77 time=0.0390625
EXTRACT: control_change channel=12 control=10 value=73 time=0.0390625
EXTRACT: note_on channel=12 note=71 velocity=0 time=0.0390625
EXTRACT: control_change channel=12 control=10 value=69 time=0
EXTRACT: note_on channel=2 note=62 velocity=0 time=0.0234375
EXTRACT: note_on channel=2 note=59 velocity=0 time=0
EXTRACT: note_on channel=11 note=86 velocity=86 time=0.0203125
EXTRACT: note_on channel=12 note=71 velocity=71 time=0.003125
EXTRACT: note_on channel=2 note=59 velocity=82 time=0.010937500000000001
EXTRACT: note_on channel=11 note=74 velocity=86 time=0.0015625
EXTRACT: note_on channel=2 note=62 velocity=82 time=0.00625
EXTRACT: control_change channel=12 control=10 value=61 time=0.0125
EXTRACT: control_change channel=12 control=10 value=57 time=0.0390625
EXTRACT: control_change channel=12 control=10 value=53 time=0.0390625
EXTRACT: note_on channel=12 note=71 velocity=0 time=0.03125
EXTRACT: note_on channel=11 note=74 velocity=0 time=0.0078125
EXTRACT: note_on channel=11 note=86 velocity=0 time=0
EXTRACT: control_change channel=12 control=10 value=49 time=0
EXTRACT: note_on channel=4 note=57 velocity=86 time=0.0421875
EXTRACT: note_on channel=3 note=81 velocity=86 time=0.004687500000000001
EXTRACT: note_on channel=3 note=81 velocity=0 time=0.078125
EXTRACT: note_on channel=2 note=62 velocity=0 time=0.078125
EXTRACT: note_on channel=2 note=54 velocity=0 time=0
EXTRACT: note_on channel=2 note=47 velocity=0 time=0
EXTRACT: note_on channel=2 note=59 velocity=0 time=0
EXTRACT: note_on channel=4 note=57 velocity=0 time=0
EXTRACT: note_on channel=5 note=71 velocity=0 time=0
EXTRACT: note_on channel=2 note=62 velocity=86 time=0.018750000000000003
EXTRACT: note_on channel=2 note=47 velocity=85 time=0.009375000000000001
EXTRACT: note_on channel=2 note=54 velocity=85 time=0
EXTRACT: note_on channel=2 note=59 velocity=88 time=0
EXTRACT: note_on channel=9 note=36 velocity=115 time=0.003125
EXTRACT: note_on channel=3 note=83 velocity=88 time=0.004687500000000001
EXTRACT: note_on channel=4 note=59 velocity=84 time=0
EXTRACT: note_on channel=11 note=74 velocity=85 time=0
EXTRACT: note_on channel=12 note=71 velocity=72 time=0
EXTRACT: note_on channel=11 note=86 velocity=84 time=0.0015625
EXTRACT: note_on channel=9 note=36 velocity=0 time=0.021875000000000002
EXTRACT: control_change channel=12 control=10 value=21 time=0.010937500000000001
EXTRACT: control_change channel=12 control=10 value=17 time=0.0390625
EXTRACT: control_change channel=12 control=10 value=15 time=0.0390625
EXTRACT: note_on channel=12 note=71 velocity=0 time=0.015625
EXTRACT: note_on channel=11 note=86 velocity=0 time=0.0078125
EXTRACT: note_on channel=11 note=74 velocity=0 time=0
EXTRACT: note_on channel=4 note=59 velocity=0 time=0.015625
EXTRACT: note_on channel=3 note=83 velocity=0 time=0.0078125
EXTRACT: note_on channel=3 note=81 velocity=74 time=0.010937500000000001
EXTRACT: note_on channel=4 note=57 velocity=72 time=0.003125
EXTRACT: note_on channel=12 note=71 velocity=68 time=0.0015625
EXTRACT: control_change channel=12 control=10 value=23 time=0.015625
EXTRACT: control_change channel=12 control=10 value=27 time=0.0390625
EXTRACT: note_on channel=3 note=81 velocity=0 time=0.03125
EXTRACT: control_change channel=12 control=10 value=31 time=0.0078125
EXTRACT: control_change channel=12 control=10 value=35 time=0.0390625
EXTRACT: note_on channel=12 note=71 velocity=0 time=0.0078125
EXTRACT: note_on channel=4 note=57 velocity=0 time=0.0234375
EXTRACT: note_on channel=11 note=74 velocity=86 time=0.026562500000000003
EXTRACT: note_on channel=3 note=83 velocity=81 time=0.009375000000000001
EXTRACT: note_on channel=12 note=71 velocity=69 time=0
EXTRACT: note_on channel=4 note=59 velocity=78 time=0.004687500000000001
EXTRACT: note_on channel=11 note=86 velocity=84 time=0
EXTRACT: control_change channel=12 control=10 value=43 time=0.00625
EXTRACT: control_change channel=12 control=10 value=47 time=0.0390625
EXTRACT: control_change channel=12 control=10 value=51 time=0.0390625
EXTRACT: note_on channel=12 note=71 velocity=0 time=0.0390625
EXTRACT: control_change channel=12 control=10 value=55 time=0
EXTRACT: note_on channel=11 note=86 velocity=0 time=0.0078125
EXTRACT: note_on channel=11 note=74 velocity=0 time=0
EXTRACT: note_on channel=4 note=59 velocity=0 time=0.015625
EXTRACT: note_on channel=3 note=83 velocity=0 time=0.0078125
EXTRACT: note_on channel=4 note=57 velocity=79 time=0.015625
EXTRACT: note_on channel=3 note=81 velocity=80 time=0.003125
EXTRACT: note_on channel=9 note=36 velocity=115 time=0.004687500000000001
EXTRACT: note_on channel=12 note=71 velocity=71 time=0.004687500000000001
EXTRACT: control_change channel=12 control=10 value=63 time=0.018750000000000003
EXTRACT: note_on channel=9 note=36 velocity=0 time=0.004687500000000001
EXTRACT: control_change channel=12 control=10 value=67 time=0.034375
EXTRACT: note_on channel=3 note=81 velocity=0 time=0.015625
EXTRACT: control_change channel=12 control=10 value=71 time=0.0234375
EXTRACT: note_on channel=12 note=71 velocity=0 time=0.03125
EXTRACT: control_change channel=12 control=10 value=75 time=0.0078125
EXTRACT: note_on channel=4 note=57 velocity=0 time=0.015625
EXTRACT: note_on channel=11 note=74 velocity=84 time=0.018750000000000003
EXTRACT: note_on channel=3 note=85 velocity=90 time=0.0078125
EXTRACT: note_on channel=4 note=61 velocity=93 time=0.0015625
EXTRACT: note_on channel=11 note=86 velocity=85 time=0.009375000000000001
EXTRACT: note_on channel=9 note=39 velocity=113 time=0.003125
EXTRACT: note_on channel=9 note=39 velocity=0 time=0.028125
EXTRACT: note_on channel=11 note=86 velocity=0 time=0.10312500000000001
EXTRACT: note_on channel=11 note=74 velocity=0 time=0
EXTRACT: note_on channel=4 note=61 velocity=0 time=0.015625
EXTRACT: note_on channel=3 note=85 velocity=0 time=0.0078125
EXTRACT: note_on channel=3 note=83 velocity=74 time=0.0125
EXTRACT: note_on channel=9 note=35 velocity=115 time=0.010937500000000001
EXTRACT: note_on channel=9 note=36 velocity=115 time=0
EXTRACT: note_on channel=10 note=60 velocity=115 time=0
EXTRACT: note_on channel=4 note=59 velocity=75 time=0.010937500000000001
EXTRACT: note_on channel=9 note=36 velocity=0 time=0.0171875
EXTRACT: note_on channel=9 note=35 velocity=0 time=0
EXTRACT: note_on channel=10 note=60 velocity=0 time=0
EXTRACT: note_on channel=2 note=62 velocity=0 time=0.12812500000000002
EXTRACT: note_on channel=4 note=59 velocity=0 time=0
EXTRACT: note_on channel=3 note=83 velocity=0 time=0.0078125
EXTRACT: note_on channel=2 note=62 velocity=76 time=0.0203125
EXTRACT: note_on channel=11 note=74 velocity=85 time=0.0015625
EXTRACT: note_on channel=9 note=35 velocity=115 time=0.0015625
EXTRACT: note_on channel=9 note=36 velocity=115 time=0
EXTRACT: note_on channel=10 note=60 velocity=115 time=0
EXTRACT: note_on channel=11 note=86 velocity=85 time=0.0015625
EXTRACT: note_on channel=4 note=57 velocity=75 time=0.003125
EXTRACT: note_on channel=3 note=81 velocity=76 time=0.003125
EXTRACT: control_change channel=12 control=10 value=119 time=0
EXTRACT: note_on channel=12 note=74 velocity=70 time=0.003125
EXTRACT: note_on channel=9 note=36 velocity=0 time=0.0171875
EXTRACT: note_on channel=9 note=35 velocity=0 time=0
EXTRACT: note_on channel=10 note=60 velocity=0 time=0
EXTRACT: control_change channel=12 control=10 value=123 time=0.018750000000000003
EXTRACT: note_on channel=3 note=81 velocity=0 time=0.03125
EXTRACT: control_change channel=12 control=10 value=121 time=0.0078125
EXTRACT: control_change channel=12 control=10 value=117 time=0.0390625
EXTRACT: note_on channel=12 note=74 velocity=0 time=0.0078125
EXTRACT: note_on channel=11 note=86 velocity=0 time=0.0078125
EXTRACT: note_on channel=11 note=74 velocity=0 time=0
EXTRACT: note_on channel=4 note=57 velocity=0 time=0.015625
EXTRACT: note_on channel=11 note=73 velocity=83 time=0.026562500000000003
EXTRACT: note_on channel=3 note=81 velocity=78 time=0.0015625
EXTRACT: note_on channel=12 note=73 velocity=71 time=0
EXTRACT: note_on channel=4 note=57 velocity=78 time=0.00625
EXTRACT: note_on channel=11 note=85 velocity=85 time=0.004687500000000001
EXTRACT: control_change channel=12 control=10 value=109 time=0.0078125
EXTRACT: control_change channel=12 control=10 value=105 time=0.0390625
EXTRACT: control_change channel=12 control=10 value=101 time=0.0390625
EXTRACT: note_on channel=12 note=73 velocity=0 time=0.0390625
EXTRACT: control_change channel=12 control=10 value=97 time=0
EXTRACT: note_on channel=11 note=85 velocity=0 time=0.0078125
EXTRACT: note_on channel=11 note=73 velocity=0 time=0
EXTRACT: note_on channel=1 note=35 velocity=0 time=0.0078125
EXTRACT: note_on channel=2 note=62 velocity=0 time=0.0078125
EXTRACT: note_on channel=2 note=59 velocity=0 time=0
EXTRACT: note_on channel=2 note=54 velocity=0 time=0
EXTRACT: note_on channel=2 note=47 velocity=0 time=0
EXTRACT: note_on channel=6 note=59 velocity=0 time=0
EXTRACT: note_on channel=7 note=71 velocity=0 time=0
EXTRACT: note_on channel=7 note=74 velocity=0 time=0
EXTRACT: note_on channel=7 note=59 velocity=0 time=0
EXTRACT: note_on channel=8 note=47 velocity=0 time=0
EXTRACT: note_on channel=8 note=59 velocity=0 time=0
EXTRACT: note_on channel=8 note=54 velocity=0 time=0
EXTRACT: note_on channel=8 note=50 velocity=0 time=0
EXTRACT: note_on channel=2 note=42 velocity=89 time=0.018750000000000003
EXTRACT: note_on channel=7 note=66 velocity=60 time=0
EXTRACT: note_on channel=8 note=54 velocity=59 time=0
EXTRACT: note_on channel=1 note=42 velocity=76 time=0.003125
EXTRACT: note_on channel=8 note=57 velocity=58 time=0
EXTRACT: note_on channel=2 note=61 velocity=89 time=0.004687500000000001
EXTRACT: note_on channel=12 note=69 velocity=69 time=0
EXTRACT: note_on channel=11 note=69 velocity=84 time=0.003125
EXTRACT: note_on channel=9 note=35 velocity=115 time=0.0015625
EXTRACT: note_on channel=9 note=36 velocity=115 time=0
EXTRACT: note_on channel=10 note=60 velocity=115 time=0
EXTRACT: note_on channel=2 note=54 velocity=89 time=0.003125
EXTRACT: note_on channel=6 note=54 velocity=74 time=0
EXTRACT: note_on channel=7 note=69 velocity=60 time=0
EXTRACT: note_on channel=11 note=81 velocity=85 time=0.0015625
EXTRACT: note_on channel=2 note=57 velocity=92 time=0.0015625
EXTRACT: note_on channel=7 note=54 velocity=62 time=0
EXTRACT: note_on channel=8 note=49 velocity=61 time=0.00625
EXTRACT: note_on channel=8 note=42 velocity=62 time=0
EXTRACT: control_change channel=12 control=10 value=89 time=0.010937500000000001
EXTRACT: note_on channel=9 note=36 velocity=0 time=0.004687500000000001
EXTRACT: note_on channel=9 note=35 velocity=0 time=0
EXTRACT: note_on channel=10 note=60 velocity=0 time=0
EXTRACT: control_change channel=12 control=10 value=85 time=0.034375
EXTRACT: control_change channel=12 control=10 value=81 time=0.0390625
EXTRACT: note_on channel=12 note=69 velocity=0 time=0.03125
EXTRACT: note_on channel=11 note=81 velocity=0 time=0.0078125
EXTRACT: note_on channel=11 note=69 velocity=0 time=0
EXTRACT: control_change channel=12 control=10 value=77 time=0
EXTRACT: note_on channel=4 note=57 velocity=0 time=0.015625
EXTRACT: note_on channel=3 note=81 velocity=0 time=0.0078125
EXTRACT: note_on channel=3 note=80 velocity=72 time=0.0125
EXTRACT: note_on channel=4 note=56 velocity=74 time=0.00625
EXTRACT: note_on channel=4 note=56 velocity=0 time=0.1609375
EXTRACT: note_on channel=3 note=80 velocity=0 time=0.0078125
EXTRACT: note_on channel=12 note=66 velocity=71 time=0.0125
EXTRACT: control_change channel=12 control=10 value=53 time=0.010937500000000001
EXTRACT: note_on channel=4 note=54 velocity=81 time=0.003125
EXTRACT: note_on channel=5 note=68 velocity=77 time=0.0015625
EXTRACT: note_on channel=11 note=78 velocity=87 time=0
EXTRACT: note_on channel=3 note=78 velocity=81 time=0.00625
EXTRACT: note_on channel=11 note=66 velocity=83 time=0.0015625
EXTRACT: control_change channel=12 control=10 value=49 time=0.026562500000000003
EXTRACT: control_change channel=12 control=10 value=45 time=0.0390625
EXTRACT: control_change channel=12 control=10 value=41 time=0.0390625
EXTRACT: note_on channel=12 note=66 velocity=0 time=0.015625
EXTRACT: note_on channel=11 note=66 velocity=0 time=0.0078125
EXTRACT: note_on channel=11 note=78 velocity=0 time=0
EXTRACT: note_on channel=5 note=68 velocity=0 time=0.015625
EXTRACT: note_on channel=11 note=68 velocity=86 time=0.0203125
EXTRACT: note_on channel=5 note=69 velocity=74 time=0.00625
EXTRACT: note_on channel=11 note=80 velocity=86 time=0.004687500000000001
EXTRACT: note_on channel=12 note=68 velocity=70 time=0.004687500000000001
EXTRACT: control_change channel=12 control=10 value=33 time=0.003125
EXTRACT: control_change channel=12 control=10 value=29 time=0.0390625
EXTRACT: control_change channel=12 control=10 value=25 time=0.0390625
EXTRACT: control_change channel=12 control=10 value=21 time=0.0390625
EXTRACT: note_on channel=12 note=68 velocity=0 time=0.0078125
EXTRACT: note_on channel=11 note=80 velocity=0 time=0.0078125
EXTRACT: note_on channel=11 note=68 velocity=0 time=0
EXTRACT: note_on channel=2 note=57 velocity=0 time=0.015625
EXTRACT: note_on channel=11 note=69 velocity=84 time=0.0234375
EXTRACT: note_on channel=11 note=81 velocity=85 time=0.004687500000000001
EXTRACT: note_on channel=9 note=39 velocity=117 time=0.009375000000000001
EXTRACT: note_on channel=2 note=57 velocity=71 time=0.003125
EXTRACT: note_on channel=12 note=69 velocity=69 time=0.003125
EXTRACT: control_change channel=12 control=10 value=15 time=0.003125
EXTRACT: note_on channel=9 note=39 velocity=0 time=0.018750000000000003
EXTRACT: control_change channel=12 control=10 value=19 time=0.0203125
EXTRACT: control_change channel=12 control=10 value=23 time=0.0390625
EXTRACT: note_on channel=12 note=69 velocity=0 time=0.0390625
EXTRACT: control_change channel=12 control=10 value=27 time=0
EXTRACT: note_on channel=11 note=81 velocity=0 time=0.0078125
EXTRACT: note_on channel=11 note=69 velocity=0 time=0
EXTRACT: note_on channel=5 note=69 velocity=0 time=0.015625
EXTRACT: note_on channel=5 note=68 velocity=71 time=0.03125
EXTRACT: note_on channel=2 note=57 velocity=0 time=0.15625
EXTRACT: note_on channel=5 note=68 velocity=0 time=0
EXTRACT: note_on channel=2 note=57 velocity=78 time=0.03125
EXTRACT: note_on channel=5 note=66 velocity=80 time=0.0015625
EXTRACT: note_on channel=11 note=81 velocity=87 time=0
EXTRACT: note_on channel=12 note=69 velocity=70 time=0.004687500000000001
EXTRACT: note_on channel=11 note=69 velocity=87 time=0.00625
EXTRACT: control_change channel=12 control=10 value=55 time=0.018750000000000003
EXTRACT: control_change channel=12 control=10 value=59 time=0.0390625
EXTRACT: control_change channel=12 control=10 value=63 time=0.0390625
EXTRACT: note_on channel=12 note=69 velocity=0 time=0.0234375
EXTRACT: note_on channel=11 note=69 velocity=0 time=0.0078125
EXTRACT: note_on channel=11 note=81 velocity=0 time=0
EXTRACT: note_on channel=4 note=54 velocity=0 time=0.015625
EXTRACT: note_on channel=3 note=78 velocity=0 time=0.0078125
EXTRACT: note_on channel=2 note=54 velocity=0 time=0.1796875
EXTRACT: note_on channel=11 note=81 velocity=85 time=0.018750000000000003
EXTRACT: note_on channel=4 note=57 velocity=90 time=0.003125
EXTRACT: note_on channel=2 note=54 velocity=89 time=0.0015625
EXTRACT: note_on channel=12 note=69 velocity=70 time=0
EXTRACT: note_on channel=11 note=69 velocity=85 time=0.003125
EXTRACT: note_on channel=3 note=81 velocity=88 time=0.003125
EXTRACT: note_on channel=9 note=36 velocity=115 time=0.0015625
EXTRACT: control_change channel=12 control=10 value=91 time=0.0078125
EXTRACT: note_on channel=9 note=36 velocity=0 time=0.0203125
EXTRACT: control_change channel=12 control=10 value=95 time=0.018750000000000003
EXTRACT: control_change channel=12 control=10 value=99 time=0.0390625
EXTRACT: control_change channel=12 control=10 value=103 time=0.0390625
EXTRACT: note_on channel=12 note=69 velocity=0 time=0.0078125
EXTRACT: note_on channel=11 note=69 velocity=0 time=0.0078125
EXTRACT: note_on channel=11 note=81 velocity=0 time=0
EXTRACT: note_on channel=4 note=57 velocity=0 time=0.015625
EXTRACT: note_on channel=3 note=81 velocity=0 time=0.0078125
EXTRACT: note_on channel=4 note=57 velocity=76 time=0.018750000000000003
EXTRACT: note_on channel=12 note=69 velocity=70 time=0.0125
EXTRACT: note_on channel=3 note=81 velocity=73 time=0.0015625
EXTRACT: control_change channel=12 control=10 value=111 time=0.00625
EXTRACT: control_change channel=12 control=10 value=115 time=0.0390625
EXTRACT: note_on channel=3 note=81 velocity=0 time=0.0234375
EXTRACT: control_change channel=12 control=10 value=119 time=0.015625
EXTRACT: note_on channel=12 note=69 velocity=0 time=0.0390625
EXTRACT: control_change channel=12 control=10 value=123 time=0
EXTRACT: note_on channel=4 note=57 velocity=0 time=0.0234375
EXTRACT: note_on channel=11 note=81 velocity=87 time=0.0203125
EXTRACT: note_on channel=11 note=69 velocity=85 time=0.0015625
EXTRACT: note_on channel=9 note=35 velocity=115 time=0.009375000000000001
EXTRACT: note_on channel=9 note=36 velocity=115 time=0
EXTRACT: note_on channel=4 note=57 velocity=76 time=0.003125
EXTRACT: note_on channel=3 note=81 velocity=79 time=0.003125
EXTRACT: note_on channel=12 note=69 velocity=71 time=0.0015625
EXTRACT: control_change channel=12 control=10 value=117 time=0.015625
EXTRACT: note_on channel=9 note=36 velocity=0 time=0.004687500000000001
EXTRACT: note_on channel=9 note=35 velocity=0 time=0
EXTRACT: control_change channel=12 control=10 value=113 time=0.034375
EXTRACT: note_on channel=3 note=81 velocity=0 time=0.015625
EXTRACT: control_change channel=12 control=10 value=109 time=0.0234375
EXTRACT: note_on channel=12 note=69 velocity=0 time=0.03125
EXTRACT: note_on channel=11 note=69 velocity=0 time=0.0078125
EXTRACT: note_on channel=11 note=81 velocity=0 time=0
EXTRACT: control_change channel=12 control=10 value=105 time=0
EXTRACT: note_on channel=4 note=57 velocity=0 time=0.015625
EXTRACT: note_on channel=5 note=66 velocity=0 time=0
EXTRACT: note_on channel=4 note=57 velocity=81 time=0.025
EXTRACT: note_on channel=12 note=69 velocity=68 time=0.009375000000000001
EXTRACT: note_on channel=3 note=81 velocity=81 time=0.009375000000000001
EXTRACT: control_change channel=12 control=10 value=97 time=0.018750000000000003
EXTRACT: control_change channel=12 control=10 value=93 time=0.0390625
EXTRACT: note_on channel=3 note=81 velocity=0 time=0.0078125
EXTRACT: control_change channel=12 control=10 value=89 time=0.03125
EXTRACT: note_on channel=12 note=69 velocity=0 time=0.0234375
EXTRACT: note_on channel=2 note=57 velocity=0 time=0.0234375
EXTRACT: note_on channel=4 note=57 velocity=0 time=0
EXTRACT: note_on channel=11 note=69 velocity=85 time=0.018750000000000003
EXTRACT: note_on channel=2 note=57 velocity=86 time=0.0015625
EXTRACT: note_on channel=3 note=81 velocity=87 time=0.004687500000000001
EXTRACT: note_on channel=4 note=57 velocity=86 time=0.00625
EXTRACT: control_change channel=12 control=10 value=81 time=0
EXTRACT: note_on channel=12 note=69 velocity=70 time=0.003125
EXTRACT: note_on channel=9 note=39 velocity=116 time=0.003125
EXTRACT: note_on channel=11 note=81 velocity=86 time=0.00625
EXTRACT: note_on channel=9 note=39 velocity=0 time=0.021875000000000002
EXTRACT: control_change channel=12 control=10 value=77 time=0.004687500000000001
EXTRACT: control_change channel=12 control=10 value=73 time=0.0390625
EXTRACT: control_change channel=12 control=10 value=69 time=0.0390625
EXTRACT: note_on channel=12 note=69 velocity=0 time=0.015625
EXTRACT: note_on channel=11 note=81 velocity=0 time=0.0078125
EXTRACT: note_on channel=11 note=69 velocity=0 time=0
EXTRACT: note_on channel=9 note=35 velocity=115 time=0.046875
EXTRACT: note_on channel=9 note=36 velocity=115 time=0
EXTRACT: note_on channel=9 note=36 velocity=0 time=0.028125
EXTRACT: note_on channel=9 note=35 velocity=0 time=0
EXTRACT: note_on channel=4 note=57 velocity=0 time=0.12812500000000002
EXTRACT: note_on channel=3 note=81 velocity=0 time=0.0078125
EXTRACT: note_on channel=11 note=81 velocity=87 time=0.0203125
EXTRACT: note_on channel=4 note=57 velocity=77 time=0.0015625
EXTRACT: note_on channel=11 note=69 velocity=84 time=0.0015625
EXTRACT: note_on channel=2 note=64 velocity=80 time=0.003125
EXTRACT: note_on channel=12 note=69 velocity=71 time=0
EXTRACT: note_on channel=3 note=81 velocity=77 time=0.00625
EXTRACT: control_change channel=12 control=10 value=41 time=0.00625
EXTRACT: control_change channel=12 control=10 value=37 time=0.0390625
EXTRACT: note_on channel=3 note=81 velocity=0 time=0.0234375
EXTRACT: control_change channel=12 control=10 value=33 time=0.015625
EXTRACT: note_on channel=12 note=69 velocity=0 time=0.0390625
EXTRACT: control_change channel=12 control=10 value=29 time=0
EXTRACT: note_on channel=11 note=69 velocity=0 time=0.0078125
EXTRACT: note_on channel=11 note=81 velocity=0 time=0
EXTRACT: note_on channel=4 note=57 velocity=0 time=0.015625
EXTRACT: note_on channel=4 note=57 velocity=82 time=0.0203125
EXTRACT: note_on channel=11 note=81 velocity=87 time=0.004687500000000001
EXTRACT: note_on channel=12 note=69 velocity=72 time=0.009375000000000001
EXTRACT: note_on channel=3 note=81 velocity=80 time=0.0015625
EXTRACT: note_on channel=11 note=69 velocity=84 time=0.0015625
EXTRACT: control_change channel=12 control=10 value=21 time=0.0171875
EXTRACT: control_change channel=12 control=10 value=17 time=0.0390625
EXTRACT: control_change channel=12 control=10 value=15 time=0.0390625
EXTRACT: note_on channel=12 note=69 velocity=0 time=0.03125
EXTRACT: note_on channel=11 note=69 velocity=0 time=0.0078125
EXTRACT: note_on channel=11 note=81 velocity=0 time=0
EXTRACT: control_change channel=12 control=10 value=19 time=0
EXTRACT: note_on channel=1 note=42 velocity=0 time=0.0078125
EXTRACT: note_on channel=2 note=64 velocity=0 time=0.0078125
EXTRACT: note_on channel=2 note=42 velocity=0 time=0
EXTRACT: note_on channel=2 note=54 velocity=0 time=0
EXTRACT: note_on channel=2 note=61 velocity=0 time=0
EXTRACT: note_on channel=2 note=57 velocity=0 time=0
EXTRACT: note_on channel=6 note=54 velocity=0 time=0
EXTRACT: note_on channel=7 note=54 velocity=0 time=0
EXTRACT: note_on channel=7 note=69 velocity=0 time=0
EXTRACT: note_on channel=7 note=66 velocity=0 time=0
EXTRACT: note_on channel=8 note=42 velocity=0 time=0
EXTRACT: note_on channel=8 note=54 velocity=0 time=0
EXTRACT: note_on channel=8 note=57 velocity=0 time=0
EXTRACT: note_on channel=8 note=49 velocity=0 time=0
EXTRACT: note_on channel=2 note=62 velocity=93 time=0.0203125
EXTRACT: note_on channel=8 note=54 velocity=60 time=0.0015625
EXTRACT: note_on channel=8 note=50 velocity=59 time=0.004687500000000001
EXTRACT: note_on channel=11 note=69 velocity=87 time=0
EXTRACT: note_on channel=7 note=62 velocity=58 time=0.0015625
EXTRACT: note_on channel=2 note=38 velocity=91 time=0.0015625
EXTRACT: note_on channel=11 note=81 velocity=83 time=0
EXTRACT: note_on channel=9 note=35 velocity=115 time=0.0015625
EXTRACT: note_on channel=9 note=36 velocity=115 time=0
EXTRACT: note_on channel=10 note=60 velocity=115 time=0
EXTRACT: note_on channel=7 note=50 velocity=62 time=0.0015625
EXTRACT: note_on channel=2 note=57 velocity=90 time=0.0015625
EXTRACT: note_on channel=8 note=57 velocity=58 time=0
EXTRACT: note_on channel=12 note=69 velocity=70 time=0
EXTRACT: note_on channel=1 note=38 velocity=74 time=0.0015625
EXTRACT: note_on channel=6 note=54 velocity=74 time=0
EXTRACT: note_on channel=2 note=54 velocity=92 time=0.0015625
EXTRACT: note_on channel=7 note=66 velocity=62 time=0.003125
EXTRACT: note_on channel=8 note=38 velocity=62 time=0.003125
EXTRACT: note_on channel=9 note=36 velocity=0 time=0.015625
EXTRACT: note_on channel=9 note=35 velocity=0 time=0
EXTRACT: note_on channel=10 note=60 velocity=0 time=0
EXTRACT: control_change channel=12 control=10 value=27 time=0.003125
EXTRACT: control_change channel=12 control=10 value=31 time=0.0390625
EXTRACT: control_change channel=12 control=10 value=35 time=0.0390625
EXTRACT: note_on channel=12 note=69 velocity=0 time=0.0234375
EXTRACT: note_on channel=11 note=81 velocity=0 time=0.0078125
EXTRACT: note_on channel=11 note=69 velocity=0 time=0
EXTRACT: note_on channel=4 note=57 velocity=0 time=0.015625
EXTRACT: note_on channel=3 note=81 velocity=0 time=0.0078125
EXTRACT: note_on channel=4 note=64 velocity=73 time=0.0171875
EXTRACT: note_on channel=3 note=76 velocity=72 time=0.010937500000000001
EXTRACT: note_on channel=4 note=64 velocity=0 time=0.15156250000000002
EXTRACT: note_on channel=3 note=76 velocity=0 time=0.0078125
EXTRACT: note_on channel=12 note=66 velocity=71 time=0.018750000000000003
EXTRACT: note_on channel=2 note=59 velocity=60 time=0.0015625
EXTRACT: note_on channel=3 note=74 velocity=78 time=0.004687500000000001
EXTRACT: note_on channel=4 note=62 velocity=77 time=0
EXTRACT: note_on channel=11 note=78 velocity=83 time=0
EXTRACT: note_on channel=11 note=66 velocity=83 time=0.0015625
EXTRACT: control_change channel=12 control=10 value=63 time=0.004687500000000001
EXTRACT: control_change channel=12 control=10 value=67 time=0.0390625
EXTRACT: control_change channel=12 control=10 value=71 time=0.0390625
EXTRACT: control_change channel=12 control=10 value=75 time=0.0390625
EXTRACT: note_on channel=12 note=66 velocity=0 time=0.0078125
EXTRACT: note_on channel=11 note=66 velocity=0 time=0.0078125
EXTRACT: note_on channel=11 note=78 velocity=0 time=0
EXTRACT: note_on channel=4 note=62 velocity=0 time=0.015625
EXTRACT: note_on channel=3 note=74 velocity=0 time=0.0078125
EXTRACT: note_on channel=11 note=80 velocity=84 time=0.010937500000000001
EXTRACT: note_on channel=4 note=61 velocity=76 time=0.0015625
EXTRACT: note_on channel=11 note=68 velocity=83 time=0.004687500000000001
EXTRACT: note_on channel=9 note=35 velocity=115 time=0.00625
EXTRACT: note_on channel=9 note=36 velocity=115 time=0
EXTRACT: note_on channel=3 note=73 velocity=74 time=0.003125
EXTRACT: note_on channel=12 note=68 velocity=69 time=0.009375000000000001
EXTRACT: control_change channel=12 control=10 value=83 time=0.003125
EXTRACT: note_on channel=9 note=36 velocity=0 time=0.0125
EXTRACT: note_on channel=9 note=35 velocity=0 time=0
EXTRACT: control_change channel=12 control=10 value=87 time=0.026562500000000003
EXTRACT: control_change channel=12 control=10 value=91 time=0.0390625
EXTRACT: note_on channel=12 note=68 velocity=0 time=0.0390625
EXTRACT: control_change channel=12 control=10 value=95 time=0
EXTRACT: note_on channel=11 note=68 velocity=0 time=0.0078125
EXTRACT: note_on channel=11 note=80 velocity=0 time=0
EXTRACT: note_on channel=2 note=57 velocity=0 time=0.015625
EXTRACT: note_on channel=9 note=39 velocity=114 time=0.0234375
EXTRACT: note_on channel=12 note=69 velocity=68 time=0
EXTRACT: note_on channel=2 note=57 velocity=71 time=0.003125
EXTRACT: note_on channel=11 note=69 velocity=83 time=0
EXTRACT: note_on channel=11 note=81 velocity=85 time=0.010937500000000001
EXTRACT: note_on channel=9 note=39 velocity=0 time=0.0140625
EXTRACT: control_change channel=12 control=10 value=103 time=0.003125
EXTRACT: control_change channel=12 control=10 value=107 time=0.0390625
EXTRACT: control_change channel=12 control=10 value=111 time=0.0390625
EXTRACT: note_on channel=12 note=69 velocity=0 time=0.03125
EXTRACT: note_on channel=11 note=81 velocity=0 time=0.0078125
EXTRACT: note_on channel=11 note=69 velocity=0 time=0
EXTRACT: control_change channel=12 control=10 value=115 time=0
EXTRACT: note_on channel=2 note=57 velocity=0 time=0.203125
EXTRACT: note_on channel=12 note=69 velocity=69 time=0.021875000000000002
EXTRACT: note_on channel=11 note=69 velocity=84 time=0.003125
EXTRACT: control_change channel=12 control=10 value=109 time=0.00625
EXTRACT: note_on channel=2 note=57 velocity=80 time=0.003125
EXTRACT: note_on channel=11 note=81 velocity=85 time=0.0015625
EXTRACT: control_change channel=12 control=10 value=105 time=0.034375
EXTRACT: control_change channel=12 control=10 value=101 time=0.0390625
EXTRACT: control_change channel=12 control=10 value=97 time=0.0390625
EXTRACT: note_on channel=12 note=69 velocity=0 time=0.015625
EXTRACT: note_on channel=11 note=81 velocity=0 time=0.0078125
EXTRACT: note_on channel=11 note=69 velocity=0 time=0
EXTRACT: note_on channel=2 note=54 velocity=0 time=0.203125
EXTRACT: note_on channel=4 note=61 velocity=0 time=0
EXTRACT: note_on channel=7 note=66 velocity=0 time=0
EXTRACT: note_on channel=7 note=50 velocity=0 time=0
EXTRACT: note_on channel=7 note=62 velocity=0 time=0
EXTRACT: note_on channel=3 note=73 velocity=0 time=0.0078125
EXTRACT: note_on channel=2 note=54 velocity=87 time=0.0125
EXTRACT: note_on channel=11 note=69 velocity=86 time=0.00625
EXTRACT: note_on channel=9 note=36 velocity=115 time=0.004687500000000001
EXTRACT: note_on channel=11 note=81 velocity=85 time=0.004687500000000001
EXTRACT: note_on channel=3 note=81 velocity=85 time=0.004687500000000001
EXTRACT: note_on channel=12 note=69 velocity=69 time=0.0015625
EXTRACT: note_on channel=4 note=57 velocity=84 time=0.0015625
EXTRACT: control_change channel=12 control=10 value=69 time=0.003125
EXTRACT: note_on channel=9 note=36 velocity=0 time=0.0125
EXTRACT: control_change channel=12 control=10 value=65 time=0.026562500000000003
EXTRACT: control_change channel=12 control=10 value=61 time=0.0390625
EXTRACT: note_on channel=12 note=69 velocity=0 time=0.0390625
EXTRACT: control_change channel=12 control=10 value=57 time=0
EXTRACT: note_on channel=11 note=81 velocity=0 time=0.0078125
EXTRACT: note_on channel=11 note=69 velocity=0 time=0
EXTRACT: note_on channel=4 note=57 velocity=0 time=0.015625
EXTRACT: note_on channel=3 note=81 velocity=0 time=0.0078125
EXTRACT: note_on channel=3 note=81 velocity=75 time=0.0171875
EXTRACT: note_on channel=4 note=57 velocity=73 time=0.010937500000000001
EXTRACT: note_on channel=12 note=69 velocity=72 time=0
EXTRACT: control_change channel=12 control=10 value=49 time=0.018750000000000003
EXTRACT: control_change channel=12 control=10 value=45 time=0.0390625
EXTRACT: control_change channel=12 control=10 value=41 time=0.0390625
EXTRACT: note_on channel=12 note=69 velocity=0 time=0.03125
EXTRACT: control_change channel=12 control=10 value=37 time=0.0078125
EXTRACT: note_on channel=2 note=57 velocity=0 time=0.015625
EXTRACT: note_on channel=4 note=57 velocity=0 time=0
EXTRACT: note_on channel=3 note=81 velocity=0 time=0.0078125
EXTRACT: note_on channel=2 note=57 velocity=80 time=0.018750000000000003
EXTRACT: note_on channel=3 note=81 velocity=79 time=0
EXTRACT: note_on channel=11 note=81 velocity=87 time=0.003125
EXTRACT: note_on channel=9 note=35 velocity=115 time=0.0015625
EXTRACT: note_on channel=9 note=36 velocity=115 time=0
EXTRACT: note_on channel=11 note=69 velocity=85 time=0.0015625
EXTRACT: note_on channel=4 note=57 velocity=80 time=0.003125
EXTRACT: note_on channel=12 note=69 velocity=70 time=0
EXTRACT: note_on channel=9 note=36 velocity=0 time=0.0234375
EXTRACT: note_on channel=9 note=35 velocity=0 time=0
EXTRACT: control_change channel=12 control=10 value=29 time=0.003125
EXTRACT: control_change channel=12 control=10 value=25 time=0.0390625
EXTRACT: control_change channel=12 control=10 value=21 time=0.0390625
EXTRACT: note_on channel=12 note=69 velocity=0 time=0.0234375
EXTRACT: note_on channel=11 note=69 velocity=0 time=0.0078125
EXTRACT: note_on channel=11 note=81 velocity=0 time=0
EXTRACT: note_on channel=4 note=57 velocity=0 time=0.015625
EXTRACT: note_on channel=3 note=81 velocity=0 time=0.0078125
EXTRACT: note_on channel=1 note=38 velocity=0 time=0.171875
EXTRACT: note_on channel=2 note=57 velocity=0 time=0.0078125
EXTRACT: note_on channel=2 note=54 velocity=0 time=0
EXTRACT: note_on channel=2 note=62 velocity=0 time=0
EXTRACT: note_on channel=2 note=38 velocity=0 time=0
EXTRACT: note_on channel=2 note=59 velocity=0 time=0
EXTRACT: note_on channel=6 note=54 velocity=0 time=0
EXTRACT: note_on channel=8 note=38 velocity=0 time=0
EXTRACT: note_on channel=8 note=54 velocity=0 time=0
EXTRACT: note_on channel=8 note=50 velocity=0 time=0
EXTRACT: note_on channel=8 note=57 velocity=0 time=0
EXTRACT: note_on channel=4 note=57 velocity=93 time=0.026562500000000003
EXTRACT: note_on channel=9 note=39 velocity=113 time=0
EXTRACT: note_on channel=3 note=81 velocity=90 time=0.0015625
EXTRACT: note_on channel=9 note=39 velocity=0 time=0.026562500000000003
EXTRACT: note_on channel=12 note=69 velocity=72 time=0.15781250000000002
EXTRACT: note_on channel=9 note=35 velocity=115 time=0.00625
EXTRACT: note_on channel=9 note=36 velocity=115 time=0
EXTRACT: note_on channel=4 note=69 velocity=72 time=0.004687500000000001
EXTRACT: control_change channel=12 control=10 value=55 time=0.010937500000000001
EXTRACT: note_on channel=9 note=36 velocity=0 time=0.0125
EXTRACT: note_on channel=9 note=35 velocity=0 time=0
EXTRACT: control_change channel=12 control=10 value=59 time=0.026562500000000003
EXTRACT: control_change channel=12 control=10 value=63 time=0.0390625
EXTRACT: note_on channel=12 note=69 velocity=0 time=0.0390625
EXTRACT: control_change channel=12 control=10 value=67 time=0
EXTRACT: note_on channel=4 note=69 velocity=0 time=0.0234375
EXTRACT: note_on channel=4 note=57 velocity=0 time=0
EXTRACT: note_on channel=3 note=81 velocity=0 time=0.0078125
EXTRACT: note_on channel=3 note=80 velocity=76 time=0.018750000000000003
EXTRACT: note_on channel=4 note=69 velocity=76 time=0.004687500000000001
EXTRACT: note_on channel=9 note=36 velocity=115 time=0
EXTRACT: note_on channel=12 note=69 velocity=71 time=0.0078125
EXTRACT: note_on channel=4 note=56 velocity=79 time=0.003125
EXTRACT: control_change channel=12 control=10 value=75 time=0.0125
EXTRACT: note_on channel=9 note=36 velocity=0 time=0.004687500000000001
EXTRACT: control_change channel=12 control=10 value=79 time=0.034375
EXTRACT: control_change channel=12 control=10 value=83 time=0.0390625
EXTRACT: note_on channel=12 note=69 velocity=0 time=0.03125
EXTRACT: control_change channel=12 control=10 value=87 time=0.0078125
EXTRACT: note_on channel=4 note=56 velocity=0 time=0.015625
EXTRACT: note_on channel=4 note=69 velocity=0 time=0
EXTRACT: note_on channel=3 note=80 velocity=0 time=0.0078125
EXTRACT: note_on channel=4 note=71 velocity=78 time=0.0234375
EXTRACT: note_on channel=4 note=57 velocity=74 time=0.004687500000000001
EXTRACT: note_on channel=3 note=81 velocity=74 time=0.0078125
EXTRACT: note_on channel=4 note=71 velocity=0 time=0.14375000000000002
EXTRACT: note_on channel=6 note=57 velocity=73 time=0.018750000000000003
EXTRACT: note_on channel=12 note=69 velocity=71 time=0
EXTRACT: note_on channel=8 note=45 velocity=60 time=0.003125
EXTRACT: note_on channel=4 note=73 velocity=91 time=0.0015625
EXTRACT: note_on channel=8 note=57 velocity=61 time=0
EXTRACT: note_on channel=8 note=52 velocity=60 time=0
EXTRACT: note_on channel=2 note=61 velocity=90 time=0.003125
EXTRACT: note_on channel=1 note=33 velocity=73 time=0.0015625
EXTRACT: note_on channel=2 note=57 velocity=92 time=0
EXTRACT: note_on channel=7 note=73 velocity=60 time=0
EXTRACT: note_on channel=7 note=57 velocity=60 time=0.003125
EXTRACT: note_on channel=9 note=35 velocity=115 time=0
EXTRACT: note_on channel=9 note=36 velocity=115 time=0
EXTRACT: note_on channel=10 note=60 velocity=115 time=0
EXTRACT: control_change channel=12 control=10 value=111 time=0
EXTRACT: note_on channel=2 note=64 velocity=89 time=0.003125
EXTRACT: note_on channel=2 note=45 velocity=93 time=0
EXTRACT: note_on channel=11 note=69 velocity=87 time=0
EXTRACT: note_on channel=7 note=69 velocity=60 time=0.004687500000000001
EXTRACT: note_on channel=8 note=61 velocity=61 time=0.003125
EXTRACT: note_on channel=11 note=81 velocity=87 time=0.0015625
EXTRACT: note_on channel=9 note=36 velocity=0 time=0.015625
EXTRACT: note_on channel=9 note=35 velocity=0 time=0
EXTRACT: note_on channel=10 note=60 velocity=0 time=0
EXTRACT: control_change channel=12 control=10 value=115 time=0.010937500000000001
EXTRACT: control_change channel=12 control=10 value=119 time=0.0390625
EXTRACT: control_change channel=12 control=10 value=123 time=0.0390625
EXTRACT: note_on channel=12 note=69 velocity=0 time=0.015625
EXTRACT: note_on channel=11 note=81 velocity=0 time=0.0078125
EXTRACT: note_on channel=11 note=69 velocity=0 time=0
EXTRACT: note_on channel=4 note=73 velocity=0 time=0.015625
EXTRACT: note_on channel=4 note=71 velocity=74 time=0.018750000000000003
EXTRACT: note_on channel=4 note=71 velocity=0 time=0.16875
EXTRACT: note_on channel=4 note=71 velocity=78 time=0.0234375
EXTRACT: note_on channel=11 note=69 velocity=87 time=0.0015625
EXTRACT: note_on channel=11 note=81 velocity=87 time=0.003125
EXTRACT: note_on channel=12 note=69 velocity=69 time=0.0140625
EXTRACT: control_change channel=12 control=10 value=97 time=0.004687500000000001
EXTRACT: control_change channel=12 control=10 value=93 time=0.0390625
EXTRACT: control_change channel=12 control=10 value=89 time=0.0390625
EXTRACT: note_on channel=12 note=69 velocity=0 time=0.0390625
EXTRACT: control_change channel=12 control=10 value=85 time=0
EXTRACT: note_on channel=11 note=81 velocity=0 time=0.0078125
EXTRACT: note_on channel=11 note=69 velocity=0 time=0
EXTRACT: note_on channel=12 note=71 velocity=72 time=0.0421875
EXTRACT: note_on channel=11 note=71 velocity=87 time=0.0140625
EXTRACT: note_on channel=11 note=83 velocity=83 time=0
EXTRACT: control_change channel=12 control=10 value=77 time=0.0140625
EXTRACT: control_change channel=12 control=10 value=73 time=0.0390625
EXTRACT: control_change channel=12 control=10 value=69 time=0.0390625
EXTRACT: note_on channel=12 note=71 velocity=0 time=0.03125
EXTRACT: note_on channel=11 note=83 velocity=0 time=0.0078125
EXTRACT: note_on channel=11 note=71 velocity=0 time=0
EXTRACT: control_change channel=12 control=10 value=65 time=0
EXTRACT: note_on channel=4 note=71 velocity=0 time=0.015625
EXTRACT: note_on channel=12 note=73 velocity=69 time=0.018750000000000003
EXTRACT: note_on channel=11 note=85 velocity=85 time=0.003125
EXTRACT: control_change channel=12 control=10 value=61 time=0.0015625
EXTRACT: note_on channel=4 note=73 velocity=86 time=0.003125
EXTRACT: note_on channel=11 note=73 velocity=83 time=0
EXTRACT: note_on channel=9 note=39 velocity=117 time=0.015625
EXTRACT: control_change channel=12 control=10 value=57 time=0.0203125
EXTRACT: note_on channel=9 note=39 velocity=0 time=0.0078125
EXTRACT: control_change channel=12 control=10 value=53 time=0.03125
EXTRACT: control_change channel=12 control=10 value=49 time=0.0390625
EXTRACT: note_on channel=12 note=73 velocity=0 time=0.0234375
EXTRACT: note_on channel=11 note=73 velocity=0 time=0.0078125
EXTRACT: note_on channel=11 note=85 velocity=0 time=0
EXTRACT: note_on channel=4 note=73 velocity=0 time=0.015625
EXTRACT: note_on channel=4 note=71 velocity=71 time=0.0234375
EXTRACT: note_on channel=4 note=71 velocity=0 time=0.1640625
EXTRACT: note_on channel=4 note=57 velocity=0 time=0
EXTRACT: note_on channel=3 note=81 velocity=0 time=0.0078125
EXTRACT: note_on channel=12 note=73 velocity=69 time=0.010937500000000001
EXTRACT: note_on channel=11 note=85 velocity=83 time=0.003125
EXTRACT: note_on channel=4 note=71 velocity=79 time=0.0015625
EXTRACT: note_on channel=11 note=73 velocity=85 time=0.0140625
EXTRACT: control_change channel=12 control=10 value=21 time=0.0015625
EXTRACT: control_change channel=12 control=10 value=17 time=0.0390625
EXTRACT: control_change channel=12 control=10 value=15 time=0.0390625
EXTRACT: control_change channel=12 control=10 value=19 time=0.0390625
EXTRACT: note_on channel=12 note=73 velocity=0 time=0.0078125
EXTRACT: note_on channel=11 note=73 velocity=0 time=0.0078125
EXTRACT: note_on channel=11 note=85 velocity=0 time=0
EXTRACT: note_on channel=4 note=71 velocity=0 time=0.203125
EXTRACT: note_on channel=9 note=36 velocity=115 time=0.03125
EXTRACT: note_on channel=3 note=85 velocity=88 time=0.003125
EXTRACT: note_on channel=11 note=85 velocity=86 time=0.004687500000000001
EXTRACT: note_on channel=11 note=73 velocity=84 time=0.0015625
EXTRACT: note_on channel=12 note=73 velocity=70 time=0.0015625
EXTRACT: control_change channel=12 control=10 value=47 time=0.0125
EXTRACT: note_on channel=9 note=36 velocity=0 time=0.004687500000000001
EXTRACT: control_change channel=12 control=10 value=51 time=0.034375
EXTRACT: control_change channel=12 control=10 value=55 time=0.0390625
EXTRACT: note_on channel=12 note=73 velocity=0 time=0.03125
EXTRACT: note_on channel=11 note=73 velocity=0 time=0.0078125
EXTRACT: note_on channel=11 note=85 velocity=0 time=0
EXTRACT: control_change channel=12 control=10 value=59 time=0
EXTRACT: note_on channel=3 note=85 velocity=0 time=0.2109375
EXTRACT: note_on channel=11 note=73 velocity=86 time=0.0140625
EXTRACT: note_on channel=3 note=83 velocity=76 time=0.004687500000000001
EXTRACT: note_on channel=11 note=85 velocity=86 time=0.0078125
EXTRACT: note_on channel=12 note=73 velocity=70 time=0
EXTRACT: control_change channel=12 control=10 value=87 time=0.035937500000000004
EXTRACT: control_change channel=12 control=10 value=91 time=0.0390625
EXTRACT: control_change channel=12 control=10 value=95 time=0.0390625
EXTRACT: note_on channel=12 note=73 velocity=0 time=0.015625
EXTRACT: note_on channel=11 note=85 velocity=0 time=0.0078125
EXTRACT: note_on channel=11 note=73 velocity=0 time=0
EXTRACT: note_on channel=9 note=39 velocity=114 time=0.2265625
EXTRACT: note_on channel=11 note=85 velocity=87 time=0.003125
EXTRACT: note_on channel=12 note=73 velocity=69 time=0
EXTRACT: note_on channel=11 note=73 velocity=85 time=0.0015625
EXTRACT: control_change channel=12 control=10 value=123 time=0.018750000000000003
EXTRACT: note_on channel=9 note=39 velocity=0 time=0.004687500000000001
EXTRACT: control_change channel=12 control=10 value=121 time=0.034375
EXTRACT: control_change channel=12 control=10 value=117 time=0.0390625
EXTRACT: note_on channel=12 note=73 velocity=0 time=0.0390625
EXTRACT: control_change channel=12 control=10 value=113 time=0
EXTRACT: note_on channel=11 note=73 velocity=0 time=0.0078125
EXTRACT: note_on channel=11 note=85 velocity=0 time=0
EXTRACT: note_on channel=2 note=45 velocity=0 time=0.015625
EXTRACT: note_on channel=2 note=57 velocity=0 time=0
EXTRACT: note_on channel=11 note=71 velocity=83 time=0.0234375
EXTRACT: note_on channel=2 note=57 velocity=75 time=0.003125
EXTRACT: note_on channel=9 note=35 velocity=115 time=0.004687500000000001
EXTRACT: note_on channel=9 note=36 velocity=115 time=0
EXTRACT: note_on channel=4 note=69 velocity=75 time=0.003125
EXTRACT: note_on channel=2 note=45 velocity=72 time=0.003125
EXTRACT: note_on channel=12 note=71 velocity=70 time=0.003125
EXTRACT: note_on channel=11 note=83 velocity=84 time=0.003125
EXTRACT: control_change channel=12 control=10 value=105 time=0.010937500000000001
EXTRACT: note_on channel=9 note=36 velocity=0 time=0.004687500000000001
EXTRACT: note_on channel=9 note=35 velocity=0 time=0
EXTRACT: control_change channel=12 control=10 value=101 time=0.034375
EXTRACT: control_change channel=12 control=10 value=97 time=0.0390625
EXTRACT: note_on channel=12 note=71 velocity=0 time=0.03125
EXTRACT: note_on channel=11 note=83 velocity=0 time=0.0078125
EXTRACT: note_on channel=11 note=71 velocity=0 time=0
EXTRACT: control_change channel=12 control=10 value=93 time=0
EXTRACT: note_on channel=4 note=69 velocity=0 time=0.015625
EXTRACT: note_on channel=3 note=83 velocity=0 time=0.0078125
EXTRACT: note_on channel=11 note=69 velocity=85 time=0.0140625
EXTRACT: note_on channel=11 note=81 velocity=84 time=0.004687500000000001
EXTRACT: note_on channel=9 note=35 velocity=115 time=0.004687500000000001
EXTRACT: note_on channel=9 note=36 velocity=115 time=0
EXTRACT: note_on channel=12 note=69 velocity=68 time=0.004687500000000001
EXTRACT: note_on channel=4 note=69 velocity=78 time=0.00625
EXTRACT: note_on channel=9 note=36 velocity=0 time=0.0171875
EXTRACT: note_on channel=9 note=35 velocity=0 time=0
EXTRACT: control_change channel=12 control=10 value=85 time=0.003125
EXTRACT: control_change channel=12 control=10 value=81 time=0.0390625
EXTRACT: control_change channel=12 control=10 value=77 time=0.0390625
EXTRACT: note_on channel=12 note=69 velocity=0 time=0.0234375
EXTRACT: note_on channel=11 note=81 velocity=0 time=0.0078125
EXTRACT: note_on channel=11 note=69 velocity=0 time=0
EXTRACT: note_on channel=4 note=69 velocity=0 time=0.015625
EXTRACT: note_on channel=11 note=69 velocity=86 time=0.0234375
EXTRACT: note_on channel=11 note=81 velocity=83 time=0.004687500000000001
EXTRACT: control_change channel=12 control=10 value=69 time=0.003125
EXTRACT: note_on channel=4 note=71 velocity=78 time=0.0015625
EXTRACT: note_on channel=12 note=69 velocity=72 time=0
EXTRACT: control_change channel=12 control=10 value=65 time=0.037500000000000006
EXTRACT: control_change channel=12 control=10 value=61 time=0.0390625
EXTRACT: control_change channel=12 control=10 value=57 time=0.0390625
EXTRACT: note_on channel=12 note=69 velocity=0 time=0.015625
EXTRACT: note_on channel=11 note=81 velocity=0 time=0.0078125
EXTRACT: note_on channel=11 note=69 velocity=0 time=0
EXTRACT: note_on channel=1 note=33 velocity=0 time=0.0078125
EXTRACT: note_on channel=2 note=45 velocity=0 time=0.0078125
EXTRACT: note_on channel=2 note=61 velocity=0 time=0
EXTRACT: note_on channel=2 note=64 velocity=0 time=0
EXTRACT: note_on channel=2 note=57 velocity=0 time=0
EXTRACT: note_on channel=4 note=71 velocity=0 time=0
EXTRACT: note_on channel=6 note=57 velocity=0 time=0
EXTRACT: note_on channel=7 note=69 velocity=0 time=0
EXTRACT: note_on channel=7 note=57 velocity=0 time=0
EXTRACT: note_on channel=7 note=73 velocity=0 time=0
EXTRACT: note_on channel=8 note=61 velocity=0 time=0
EXTRACT: note_on channel=8 note=45 velocity=0 time=0
EXTRACT: note_on channel=8 note=57 velocity=0 time=0
EXTRACT: note_on channel=8 note=52 velocity=0 time=0
EXTRACT: note_on channel=8 note=47 velocity=60 time=0.0203125
EXTRACT: note_on channel=2 note=47 velocity=89 time=0.0015625
EXTRACT: note_on channel=7 note=74 velocity=62 time=0
EXTRACT: note_on channel=8 note=59 velocity=61 time=0
EXTRACT: note_on channel=2 note=54 velocity=92 time=0.0015625
EXTRACT: note_on channel=7 note=59 velocity=62 time=0
EXTRACT: note_on channel=6 note=59 velocity=77 time=0.0015625
EXTRACT: note_on channel=12 note=71 velocity=69 time=0
EXTRACT: note_on channel=2 note=59 velocity=92 time=0.003125
EXTRACT: note_on channel=7 note=71 velocity=61 time=0
EXTRACT: note_on channel=8 note=54 velocity=60 time=0
EXTRACT: note_on channel=3 note=85 velocity=92 time=0.0015625
EXTRACT: note_on channel=9 note=35 velocity=115 time=0.0015625
EXTRACT: note_on channel=9 note=36 velocity=115 time=0
EXTRACT: note_on channel=1 note=35 velocity=73 time=0.003125
EXTRACT: note_on channel=8 note=50 velocity=60 time=0
EXTRACT: note_on channel=2 note=62 velocity=90 time=0.0015625
EXTRACT: control_change channel=12 control=10 value=49 time=0.003125
EXTRACT: note_on channel=11 note=71 velocity=83 time=0.0015625
EXTRACT: note_on channel=11 note=83 velocity=84 time=0.0015625
EXTRACT: note_on channel=9 note=36 velocity=0 time=0.0171875
EXTRACT: note_on channel=9 note=35 velocity=0 time=0
EXTRACT: control_change channel=12 control=10 value=45 time=0.018750000000000003
EXTRACT: control_change channel=12 control=10 value=41 time=0.0390625
EXTRACT: control_change channel=12 control=10 value=37 time=0.0390625
EXTRACT: note_on channel=12 note=71 velocity=0 time=0.0078125
EXTRACT: note_on channel=11 note=83 velocity=0 time=0.0078125
EXTRACT: note_on channel=11 note=71 velocity=0 time=0
EXTRACT: note_on channel=3 note=85 velocity=0 time=0.2109375
EXTRACT: note_on channel=11 note=71 velocity=83 time=0.010937500000000001
EXTRACT: note_on channel=3 note=83 velocity=78 time=0.003125
EXTRACT: note_on channel=12 note=71 velocity=70 time=0.0140625
EXTRACT: note_on channel=11 note=83 velocity=83 time=0.0078125
EXTRACT: control_change channel=12 control=10 value=19 time=0.010937500000000001
EXTRACT: control_change channel=12 control=10 value=23 time=0.0390625
EXTRACT: control_change channel=12 control=10 value=27 time=0.0390625
EXTRACT: note_on channel=12 note=71 velocity=0 time=0.03125
EXTRACT: note_on channel=11 note=83 velocity=0 time=0.0078125
EXTRACT: note_on channel=11 note=71 velocity=0 time=0
EXTRACT: control_change channel=12 control=10 value=31 time=0
EXTRACT: note_on channel=11 note=85 velocity=84 time=0.045312500000000006
EXTRACT: note_on channel=11 note=73 velocity=84 time=0
EXTRACT: note_on channel=9 note=35 velocity=115 time=0.0015625
EXTRACT: note_on channel=9 note=36 velocity=115 time=0
EXTRACT: note_on channel=12 note=73 velocity=70 time=0.009375000000000001
EXTRACT: note_on channel=9 note=36 velocity=0 time=0.018750000000000003
EXTRACT: note_on channel=9 note=35 velocity=0 time=0
EXTRACT: control_change channel=12 control=10 value=39 time=0.003125
EXTRACT: control_change channel=12 control=10 value=43 time=0.0390625
EXTRACT: control_change channel=12 control=10 value=47 time=0.0390625
EXTRACT: note_on channel=12 note=73 velocity=0 time=0.0234375
EXTRACT: note_on channel=11 note=73 velocity=0 time=0.0078125
EXTRACT: note_on channel=11 note=85 velocity=0 time=0
EXTRACT: note_on channel=9 note=39 velocity=115 time=0.035937500000000004
EXTRACT: control_change channel=12 control=10 value=55 time=0.010937500000000001
EXTRACT: note_on channel=12 note=74 velocity=70 time=0.0015625
EXTRACT: note_on channel=11 note=74 velocity=87 time=0.0015625
EXTRACT: note_on channel=4 note=73 velocity=86 time=0.0015625
EXTRACT: note_on channel=11 note=86 velocity=86 time=0.0078125
EXTRACT: note_on channel=9 note=39 velocity=0 time=0.004687500000000001
EXTRACT: control_change channel=12 control=10 value=59 time=0.021875000000000002
EXTRACT: control_change channel=12 control=10 value=63 time=0.0390625
EXTRACT: control_change channel=12 control=10 value=67 time=0.0390625
EXTRACT: note_on channel=12 note=74 velocity=0 time=0.015625
EXTRACT: note_on channel=11 note=86 velocity=0 time=0.0078125
EXTRACT: note_on channel=11 note=74 velocity=0 time=0
EXTRACT: note_on channel=4 note=73 velocity=0 time=0.015625
EXTRACT: note_on channel=12 note=74 velocity=69 time=0.021875000000000002
EXTRACT: note_on channel=4 note=71 velocity=72 time=0.0140625
EXTRACT: control_change channel=12 control=10 value=75 time=0.003125
EXTRACT: control_change channel=12 control=10 value=79 time=0.0390625
EXTRACT: control_change channel=12 control=10 value=83 time=0.0390625
EXTRACT: control_change channel=12 control=10 value=87 time=0.0390625
EXTRACT: note_on channel=12 note=74 velocity=0 time=0.0078125
EXTRACT: note_on channel=2 note=62 velocity=0 time=0.0234375
EXTRACT: note_on channel=4 note=71 velocity=0 time=0
EXTRACT: note_on channel=3 note=83 velocity=0 time=0.0078125
EXTRACT: note_on channel=12 note=74 velocity=68 time=0.0171875
EXTRACT: note_on channel=11 note=74 velocity=83 time=0.0015625
EXTRACT: note_on channel=4 note=71 velocity=82 time=0.003125
EXTRACT: note_on channel=2 note=62 velocity=82 time=0.0015625
EXTRACT: note_on channel=11 note=86 velocity=85 time=0.00625
EXTRACT: control_change channel=12 control=10 value=95 time=0.009375000000000001
EXTRACT: control_change channel=12 control=10 value=99 time=0.0390625
EXTRACT: control_change channel=12 control=10 value=103 time=0.0390625
EXTRACT: note_on channel=12 note=74 velocity=0 time=0.0390625
EXTRACT: control_change channel=12 control=10 value=107 time=0
EXTRACT: note_on channel=11 note=86 velocity=0 time=0.0078125
EXTRACT: note_on channel=11 note=74 velocity=0 time=0
EXTRACT: note_on channel=12 note=74 velocity=69 time=0.0390625
EXTRACT: control_change channel=12 control=10 value=115 time=0.03125
EXTRACT: control_change channel=12 control=10 value=119 time=0.0390625
EXTRACT: control_change channel=12 control=10 value=123 time=0.0390625
EXTRACT: note_on channel=12 note=74 velocity=0 time=0.03125
EXTRACT: control_change channel=12 control=10 value=121 time=0.0078125
EXTRACT: note_on channel=2 note=62 velocity=0 time=0.015625
EXTRACT: note_on channel=2 note=59 velocity=0 time=0
EXTRACT: note_on channel=2 note=47 velocity=0 time=0
EXTRACT: note_on channel=4 note=71 velocity=0 time=0
EXTRACT: note_on channel=11 note=86 velocity=87 time=0.018750000000000003
EXTRACT: note_on channel=2 note=62 velocity=84 time=0.0015625
EXTRACT: note_on channel=2 note=59 velocity=88 time=0.003125
EXTRACT: note_on channel=2 note=47 velocity=85 time=0.003125
EXTRACT: note_on channel=3 note=86 velocity=85 time=0.0015625
EXTRACT: note_on channel=9 note=36 velocity=115 time=0.003125
EXTRACT: note_on channel=12 note=74 velocity=71 time=0.009375000000000001
EXTRACT: note_on channel=11 note=74 velocity=87 time=0.0015625
EXTRACT: note_on channel=9 note=36 velocity=0 time=0.0171875
EXTRACT: control_change channel=12 control=10 value=113 time=0.003125
EXTRACT: control_change channel=12 control=10 value=109 time=0.0390625
EXTRACT: control_change channel=12 control=10 value=105 time=0.0390625
EXTRACT: note_on channel=12 note=74 velocity=0 time=0.0234375
EXTRACT: note_on channel=11 note=74 velocity=0 time=0.0078125
EXTRACT: note_on channel=11 note=86 velocity=0 time=0
EXTRACT: note_on channel=2 note=54 velocity=0 time=0.203125
EXTRACT: note_on channel=3 note=86 velocity=0 time=0.0078125
EXTRACT: note_on channel=11 note=74 velocity=84 time=0.021875000000000002
EXTRACT: note_on channel=11 note=86 velocity=86 time=0.0015625
EXTRACT: note_on channel=12 note=74 velocity=71 time=0.003125
EXTRACT: note_on channel=3 note=85 velocity=81 time=0.004687500000000001
EXTRACT: control_change channel=12 control=10 value=77 time=0
EXTRACT: note_on channel=2 note=54 velocity=77 time=0.003125
EXTRACT: control_change channel=12 control=10 value=73 time=0.035937500000000004
EXTRACT: control_change channel=12 control=10 value=69 time=0.0390625
EXTRACT: control_change channel=12 control=10 value=65 time=0.0390625
EXTRACT: note_on channel=12 note=74 velocity=0 time=0.0078125
EXTRACT: note_on channel=11 note=86 velocity=0 time=0.0078125
EXTRACT: note_on channel=11 note=74 velocity=0 time=0
EXTRACT: note_on channel=9 note=35 velocity=115 time=0.046875
EXTRACT: note_on channel=9 note=36 velocity=115 time=0
EXTRACT: note_on channel=9 note=36 velocity=0 time=0.028125
EXTRACT: note_on channel=9 note=35 velocity=0 time=0
EXTRACT: note_on channel=2 note=54 velocity=0 time=0.12812500000000002
EXTRACT: note_on channel=2 note=62 velocity=0 time=0
EXTRACT: note_on channel=2 note=59 velocity=0 time=0
EXTRACT: note_on channel=3 note=85 velocity=0 time=0.0078125
EXTRACT: note_on channel=2 note=59 velocity=93 time=0.010937500000000001
EXTRACT: note_on channel=3 note=83 velocity=92 time=0.0015625
EXTRACT: note_on channel=2 note=62 velocity=93 time=0.003125
EXTRACT: note_on channel=12 note=74 velocity=72 time=0.004687500000000001
EXTRACT: note_on channel=2 note=54 velocity=90 time=0.0015625
EXTRACT: note_on channel=9 note=39 velocity=113 time=0.003125
EXTRACT: note_on channel=11 note=74 velocity=84 time=0.0015625
EXTRACT: note_on channel=11 note=86 velocity=87 time=0.003125
EXTRACT: control_change channel=12 control=10 value=37 time=0.0171875
EXTRACT: note_on channel=9 note=39 velocity=0 time=0.00625
EXTRACT: control_change channel=12 control=10 value=33 time=0.0328125
EXTRACT: control_change channel=12 control=10 value=29 time=0.0390625
EXTRACT: note_on channel=12 note=74 velocity=0 time=0.03125
EXTRACT: note_on channel=11 note=86 velocity=0 time=0.0078125
EXTRACT: note_on channel=11 note=74 velocity=0 time=0
EXTRACT: control_change channel=12 control=10 value=25 time=0
EXTRACT: note_on channel=11 note=73 velocity=83 time=0.035937500000000004
EXTRACT: note_on channel=4 note=69 velocity=74 time=0.003125
EXTRACT: note_on channel=11 note=85 velocity=85 time=0.003125
EXTRACT: note_on channel=4 note=66 velocity=74 time=0.004687500000000001
EXTRACT: note_on channel=9 note=35 velocity=115 time=0
EXTRACT: note_on channel=9 note=36 velocity=115 time=0
EXTRACT: note_on channel=10 note=60 velocity=60 time=0
EXTRACT: note_on channel=12 note=73 velocity=71 time=0
EXTRACT: note_on channel=4 note=73 velocity=72 time=0.003125
EXTRACT: note_on channel=9 note=36 velocity=0 time=0.025
EXTRACT: note_on channel=9 note=35 velocity=0 time=0
EXTRACT: note_on channel=10 note=60 velocity=0 time=0
EXTRACT: control_change channel=12 control=10 value=17 time=0.003125
EXTRACT: control_change channel=12 control=10 value=15 time=0.0390625
EXTRACT: control_change channel=12 control=10 value=19 time=0.0390625
EXTRACT: note_on channel=12 note=73 velocity=0 time=0.0234375
EXTRACT: note_on channel=11 note=85 velocity=0 time=0.0078125
EXTRACT: note_on channel=11 note=73 velocity=0 time=0
EXTRACT: note_on channel=2 note=54 velocity=0 time=0.015625
EXTRACT: note_on channel=2 note=62 velocity=0 time=0
EXTRACT: note_on channel=2 note=59 velocity=0 time=0
EXTRACT: note_on channel=4 note=73 velocity=0 time=0
EXTRACT: note_on channel=4 note=66 velocity=0 time=0
EXTRACT: note_on channel=4 note=69 velocity=0 time=0
EXTRACT: note_on channel=3 note=83 velocity=0 time=0.0078125
EXTRACT: note_on channel=2 note=54 velocity=79 time=0.010937500000000001
EXTRACT: note_on channel=11 note=86 velocity=84 time=0.004687500000000001
EXTRACT: note_on channel=2 note=62 velocity=76 time=0.003125
EXTRACT: note_on channel=11 note=74 velocity=86 time=0
EXTRACT: note_on channel=12 note=74 velocity=72 time=0.0015625
EXTRACT: note_on channel=9 note=35 velocity=115 time=0.003125
EXTRACT: note_on channel=9 note=36 velocity=115 time=0
EXTRACT: note_on channel=10 note=60 velocity=78 time=0
EXTRACT: control_change channel=12 control=10 value=27 time=0
EXTRACT: note_on channel=4 note=66 velocity=77 time=0.0015625
EXTRACT: note_on channel=3 note=81 velocity=76 time=0.0015625
EXTRACT: note_on channel=4 note=69 velocity=77 time=0
EXTRACT: note_on channel=2 note=59 velocity=76 time=0.004687500000000001
EXTRACT: note_on channel=4 note=73 velocity=76 time=0.0015625
EXTRACT: note_on channel=9 note=36 velocity=0 time=0.018750000000000003
EXTRACT: note_on channel=9 note=35 velocity=0 time=0
EXTRACT: note_on channel=10 note=60 velocity=0 time=0
EXTRACT: control_change channel=12 control=10 value=31 time=0.010937500000000001
EXTRACT: control_change channel=12 control=10 value=35 time=0.0390625
EXTRACT: control_change channel=12 control=10 value=39 time=0.0390625
EXTRACT: note_on channel=12 note=74 velocity=0 time=0.015625
EXTRACT: note_on channel=11 note=74 velocity=0 time=0.0078125
EXTRACT: note_on channel=11 note=86 velocity=0 time=0
EXTRACT: note_on channel=4 note=73 velocity=0 time=0.015625
EXTRACT: note_on channel=4 note=69 velocity=0 time=0
EXTRACT: note_on channel=4 note=66 velocity=0 time=0
EXTRACT: note_on channel=3 note=81 velocity=0 time=0.0078125
EXTRACT: note_on channel=3 note=83 velocity=78 time=0.0171875
EXTRACT: note_on channel=4 note=73 velocity=74 time=0.0015625
EXTRACT: note_on channel=4 note=69 velocity=75 time=0.0015625
EXTRACT: note_on channel=9 note=35 velocity=115 time=0.003125
EXTRACT: note_on channel=9 note=36 velocity=115 time=0
EXTRACT: note_on channel=10 note=60 velocity=96 time=0
EXTRACT: note_on channel=12 note=73 velocity=68 time=0.004687500000000001
EXTRACT: control_change channel=12 control=10 value=47 time=0.003125
EXTRACT: note_on channel=11 note=73 velocity=85 time=0.003125
EXTRACT: note_on channel=11 note=85 velocity=87 time=0
EXTRACT: note_on channel=4 note=66 velocity=78 time=0.0015625
EXTRACT: note_on channel=9 note=36 velocity=0 time=0.015625
EXTRACT: note_on channel=9 note=35 velocity=0 time=0
EXTRACT: note_on channel=10 note=60 velocity=0 time=0
EXTRACT: control_change channel=12 control=10 value=51 time=0.018750000000000003
EXTRACT: control_change channel=12 control=10 value=55 time=0.0390625
EXTRACT: control_change channel=12 control=10 value=59 time=0.0390625
EXTRACT: note_on channel=12 note=73 velocity=0 time=0.0078125
EXTRACT: note_on channel=11 note=85 velocity=0 time=0.0078125
EXTRACT: note_on channel=11 note=73 velocity=0 time=0
EXTRACT: note_on channel=1 note=35 velocity=0 time=0.0078125
EXTRACT: note_on channel=2 note=59 velocity=0 time=0.0078125
EXTRACT: note_on channel=2 note=47 velocity=0 time=0
EXTRACT: note_on channel=2 note=54 velocity=0 time=0
EXTRACT: note_on channel=2 note=62 velocity=0 time=0
EXTRACT: note_on channel=4 note=66 velocity=0 time=0
EXTRACT: note_on channel=4 note=69 velocity=0 time=0
EXTRACT: note_on channel=4 note=73 velocity=0 time=0
EXTRACT: note_on channel=6 note=59 velocity=0 time=0
EXTRACT: note_on channel=7 note=71 velocity=0 time=0
EXTRACT: note_on channel=7 note=59 velocity=0 time=0
EXTRACT: note_on channel=7 note=74 velocity=0 time=0
EXTRACT: note_on channel=8 note=50 velocity=0 time=0
EXTRACT: note_on channel=8 note=47 velocity=0 time=0
EXTRACT: note_on channel=8 note=59 velocity=0 time=0
EXTRACT: note_on channel=8 note=54 velocity=0 time=0
EXTRACT: note_on channel=3 note=83 velocity=0 time=0.0078125
EXTRACT: note_on channel=11 note=81 velocity=85 time=0.0140625
EXTRACT: note_on channel=1 note=42 velocity=76 time=0.0015625
EXTRACT: note_on channel=6 note=54 velocity=74 time=0
EXTRACT: note_on channel=3 note=85 velocity=91 time=0.003125
EXTRACT: note_on channel=7 note=69 velocity=59 time=0
EXTRACT: note_on channel=2 note=57 velocity=89 time=0.0015625
EXTRACT: note_on channel=2 note=61 velocity=89 time=0
EXTRACT: note_on channel=7 note=66 velocity=59 time=0
EXTRACT: note_on channel=7 note=54 velocity=60 time=0
EXTRACT: note_on channel=8 note=49 velocity=58 time=0
EXTRACT: note_on channel=11 note=69 velocity=87 time=0
EXTRACT: note_on channel=1 note=42 velocity=76 time=0.003125
EXTRACT: note_on channel=2 note=54 velocity=93 time=0
EXTRACT: note_on channel=2 note=57 velocity=92 time=0
EXTRACT: note_on channel=9 note=35 velocity=115 time=0
EXTRACT: note_on channel=9 note=36 velocity=115 time=0
EXTRACT: note_on channel=10 note=60 velocity=115 time=0
EXTRACT: note_on channel=11 note=81 velocity=83 time=0.0015625
EXTRACT: note_on channel=12 note=69 velocity=72 time=0.0015625
EXTRACT: note_on channel=6 note=54 velocity=76 time=0.0015625
EXTRACT: note_on channel=7 note=66 velocity=58 time=0
EXTRACT: note_on channel=7 note=69 velocity=60 time=0
EXTRACT: note_on channel=8 note=42 velocity=58 time=0
EXTRACT: note_on channel=2 note=61 velocity=93 time=0.0015625
EXTRACT: note_on channel=7 note=54 velocity=62 time=0
EXTRACT: note_on channel=8 note=49 velocity=60 time=0
EXTRACT: note_on channel=8 note=57 velocity=61 time=0.0015625
EXTRACT: control_change channel=12 control=10 value=53 time=0
EXTRACT: note_on channel=11 note=69 velocity=85 time=0.004687500000000001
EXTRACT: note_on channel=9 note=36 velocity=0 time=0.015625
EXTRACT: note_on channel=9 note=35 velocity=0 time=0
EXTRACT: note_on channel=10 note=60 velocity=0 time=0
EXTRACT: control_change channel=12 control=10 value=49 time=0.018750000000000003
EXTRACT: control_change channel=12 control=10 value=45 time=0.0390625
EXTRACT: control_change channel=12 control=10 value=41 time=0.0390625
EXTRACT: note_on channel=12 note=69 velocity=0 time=0.0078125
EXTRACT: note_on channel=11 note=69 velocity=0 time=0.0078125
EXTRACT: note_on channel=11 note=81 velocity=0 time=0
EXTRACT: note_on channel=11 note=69 velocity=0 time=0
EXTRACT: note_on channel=11 note=81 velocity=0 time=0
EXTRACT: note_on channel=3 note=85 velocity=0 time=0.2109375
EXTRACT: note_on channel=11 note=66 velocity=86 time=0.010937500000000001
EXTRACT: note_on channel=11 note=78 velocity=85 time=0.009375000000000001
EXTRACT: note_on channel=12 note=66 velocity=70 time=0.0015625
EXTRACT: note_on channel=3 note=83 velocity=79 time=0.009375000000000001
EXTRACT: control_change channel=12 control=10 value=15 time=0.015625
EXTRACT: control_change channel=12 control=10 value=19 time=0.0390625
EXTRACT: control_change channel=12 control=10 value=23 time=0.0390625
EXTRACT: note_on channel=12 note=66 velocity=0 time=0.03125
EXTRACT: note_on channel=11 note=78 velocity=0 time=0.0078125
EXTRACT: note_on channel=11 note=66 velocity=0 time=0
EXTRACT: control_change channel=12 control=10 value=27 time=0
EXTRACT: note_on channel=11 note=80 velocity=83 time=0.035937500000000004
EXTRACT: note_on channel=12 note=68 velocity=69 time=0.00625
EXTRACT: note_on channel=11 note=68 velocity=86 time=0.0171875
EXTRACT: control_change channel=12 control=10 value=35 time=0.018750000000000003
EXTRACT: control_change channel=12 control=10 value=39 time=0.0390625
EXTRACT: control_change channel=12 control=10 value=43 time=0.0390625
EXTRACT: note_on channel=12 note=68 velocity=0 time=0.0234375
EXTRACT: note_on channel=11 note=68 velocity=0 time=0.0078125
EXTRACT: note_on channel=11 note=80 velocity=0 time=0
EXTRACT: note_on channel=2 note=57 velocity=0 time=0.015625
EXTRACT: note_on channel=11 note=81 velocity=84 time=0.018750000000000003
EXTRACT: note_on channel=2 note=57 velocity=69 time=0.0078125
EXTRACT: note_on channel=4 note=66 velocity=86 time=0
EXTRACT: note_on channel=4 note=69 velocity=88 time=0.0015625
EXTRACT: note_on channel=4 note=73 velocity=86 time=0.003125
EXTRACT: control_change channel=12 control=10 value=51 time=0
EXTRACT: note_on channel=11 note=69 velocity=84 time=0.003125
EXTRACT: note_on channel=12 note=69 velocity=70 time=0
EXTRACT: note_on channel=9 note=39 velocity=116 time=0.0015625
EXTRACT: note_on channel=9 note=39 velocity=0 time=0.028125
EXTRACT: control_change channel=12 control=10 value=55 time=0.00625
EXTRACT: control_change channel=12 control=10 value=59 time=0.0390625
EXTRACT: control_change channel=12 control=10 value=63 time=0.0390625
EXTRACT: note_on channel=12 note=69 velocity=0 time=0.015625
EXTRACT: note_on channel=11 note=69 velocity=0 time=0.0078125
EXTRACT: note_on channel=11 note=81 velocity=0 time=0
EXTRACT: note_on channel=4 note=73 velocity=0 time=0.015625
EXTRACT: note_on channel=4 note=71 velocity=74 time=0.03125
EXTRACT: note_on channel=2 note=57 velocity=0 time=0.15625
EXTRACT: note_on channel=2 note=57 velocity=0 time=0
EXTRACT: note_on channel=4 note=71 velocity=0 time=0
EXTRACT: note_on channel=4 note=69 velocity=0 time=0
EXTRACT: note_on channel=4 note=66 velocity=0 time=0
EXTRACT: note_on channel=3 note=83 velocity=0 time=0.0078125
EXTRACT: note_on channel=2 note=57 velocity=76 time=0.0125
EXTRACT: note_on channel=4 note=66 velocity=80 time=0
EXTRACT: note_on channel=11 note=69 velocity=87 time=0.003125
EXTRACT: note_on channel=12 note=69 velocity=68 time=0.0015625
EXTRACT: note_on channel=4 note=69 velocity=76 time=0.0078125
EXTRACT: note_on channel=11 note=81 velocity=83 time=0.0015625
EXTRACT: note_on channel=4 note=71 velocity=79 time=0.003125
EXTRACT: control_change channel=12 control=10 value=91 time=0.009375000000000001
EXTRACT: control_change channel=12 control=10 value=95 time=0.0390625
EXTRACT: control_change channel=12 control=10 value=99 time=0.0390625
EXTRACT: note_on channel=12 note=69 velocity=0 time=0.0390625
EXTRACT: control_change channel=12 control=10 value=103 time=0
EXTRACT: note_on channel=11 note=81 velocity=0 time=0.0078125
EXTRACT: note_on channel=11 note=69 velocity=0 time=0
EXTRACT: note_on channel=2 note=54 velocity=0 time=0.203125
EXTRACT: note_on channel=4 note=71 velocity=0 time=0
EXTRACT: note_on channel=4 note=69 velocity=0 time=0
EXTRACT: note_on channel=4 note=66 velocity=0 time=0
EXTRACT: note_on channel=12 note=69 velocity=71 time=0.018750000000000003
EXTRACT: control_change channel=12 control=10 value=121 time=0.004687500000000001
EXTRACT: note_on channel=9 note=36 velocity=115 time=0.0078125
EXTRACT: note_on channel=11 note=81 velocity=85 time=0
EXTRACT: note_on channel=2 note=54 velocity=89 time=0.004687500000000001
EXTRACT: note_on channel=3 note=85 velocity=89 time=0
EXTRACT: note_on channel=11 note=69 velocity=85 time=0.003125
EXTRACT: note_on channel=9 note=36 velocity=0 time=0.0203125
EXTRACT: control_change channel=12 control=10 value=117 time=0.003125
EXTRACT: control_change channel=12 control=10 value=113 time=0.0390625
EXTRACT: control_change channel=12 control=10 value=109 time=0.0390625
EXTRACT: note_on channel=12 note=69 velocity=0 time=0.0234375
EXTRACT: note_on channel=11 note=69 velocity=0 time=0.0078125
EXTRACT: note_on channel=11 note=81 velocity=0 time=0
EXTRACT: note_on channel=12 note=69 velocity=68 time=0.034375
EXTRACT: control_change channel=12 control=10 value=101 time=0.0125
EXTRACT: control_change channel=12 control=10 value=97 time=0.0390625
EXTRACT: control_change channel=12 control=10 value=93 time=0.0390625
EXTRACT: control_change channel=12 control=10 value=89 time=0.0390625
EXTRACT: note_on channel=12 note=69 velocity=0 time=0.015625
EXTRACT: note_on channel=3 note=85 velocity=0 time=0.03125
EXTRACT: note_on channel=12 note=69 velocity=69 time=0.0125
EXTRACT: note_on channel=3 note=83 velocity=80 time=0.004687500000000001
EXTRACT: note_on channel=11 note=69 velocity=85 time=0.003125
EXTRACT: note_on channel=9 note=35 velocity=115 time=0.003125
EXTRACT: note_on channel=9 note=36 velocity=115 time=0
EXTRACT: note_on channel=11 note=81 velocity=85 time=0.003125
EXTRACT: control_change channel=12 control=10 value=81 time=0.004687500000000001
EXTRACT: note_on channel=9 note=36 velocity=0 time=0.0203125
EXTRACT: note_on channel=9 note=35 velocity=0 time=0
EXTRACT: control_change channel=12 control=10 value=77 time=0.018750000000000003
EXTRACT: control_change channel=12 control=10 value=73 time=0.0390625
EXTRACT: control_change channel=12 control=10 value=69 time=0.0390625
EXTRACT: note_on channel=12 note=69 velocity=0 time=0.0078125
EXTRACT: note_on channel=11 note=81 velocity=0 time=0.0078125
EXTRACT: note_on channel=11 note=69 velocity=0 time=0
EXTRACT: note_on channel=3 note=83 velocity=0 time=0.0234375
EXTRACT: note_on channel=3 note=81 velocity=80 time=0.0234375
EXTRACT: note_on channel=12 note=69 velocity=68 time=0.0125
EXTRACT: control_change channel=12 control=10 value=61 time=0.003125
EXTRACT: control_change channel=12 control=10 value=57 time=0.0390625
EXTRACT: control_change channel=12 control=10 value=53 time=0.0390625
EXTRACT: note_on channel=12 note=69 velocity=0 time=0.0390625
EXTRACT: control_change channel=12 control=10 value=49 time=0
EXTRACT: note_on channel=2 note=57 velocity=0 time=0.0234375
EXTRACT: note_on channel=3 note=81 velocity=0 time=0.0078125
EXTRACT: note_on channel=11 note=69 velocity=87 time=0.018750000000000003
EXTRACT: note_on channel=11 note=81 velocity=84 time=0.004687500000000001
EXTRACT: note_on channel=2 note=57 velocity=88 time=0.0015625
EXTRACT: note_on channel=9 note=39 velocity=113 time=0
EXTRACT: note_on channel=3 note=78 velocity=84 time=0.0078125
EXTRACT: note_on channel=12 note=69 velocity=69 time=0.0015625
EXTRACT: control_change channel=12 control=10 value=41 time=0.0125
EXTRACT: note_on channel=9 note=39 velocity=0 time=0.00625
EXTRACT: control_change channel=12 control=10 value=37 time=0.0328125
EXTRACT: control_change channel=12 control=10 value=33 time=0.0390625
EXTRACT: note_on channel=12 note=69 velocity=0 time=0.03125
EXTRACT: note_on channel=11 note=81 velocity=0 time=0.0078125
EXTRACT: note_on channel=11 note=69 velocity=0 time=0
EXTRACT: control_change channel=12 control=10 value=29 time=0
EXTRACT: note_on channel=3 note=78 velocity=0 time=0.0234375
EXTRACT: note_on channel=4 note=66 velocity=76 time=0.0171875
EXTRACT: note_on channel=4 note=64 velocity=76 time=0.0015625
EXTRACT: note_on channel=9 note=35 velocity=115 time=0.004687500000000001
EXTRACT: note_on channel=9 note=36 velocity=115 time=0
EXTRACT: note_on channel=4 note=61 velocity=75 time=0.003125
EXTRACT: note_on channel=9 note=36 velocity=0 time=0.025
EXTRACT: note_on channel=9 note=35 velocity=0 time=0
EXTRACT: note_on channel=4 note=61 velocity=0 time=0.12812500000000002
EXTRACT: note_on channel=4 note=64 velocity=0 time=0
EXTRACT: note_on channel=4 note=66 velocity=0 time=0
EXTRACT: note_on channel=2 note=64 velocity=79 time=0.018750000000000003
EXTRACT: note_on channel=11 note=81 velocity=86 time=0.00625
EXTRACT: note_on channel=12 note=69 velocity=70 time=0
EXTRACT: note_on channel=4 note=68 velocity=77 time=0.0015625
EXTRACT: note_on channel=11 note=69 velocity=85 time=0
EXTRACT: control_change channel=12 control=10 value=23 time=0.004687500000000001
EXTRACT: note_on channel=4 note=69 velocity=79 time=0.003125
EXTRACT: note_on channel=4 note=64 velocity=78 time=0.003125
EXTRACT: control_change channel=12 control=10 value=27 time=0.0328125
EXTRACT: control_change channel=12 control=10 value=31 time=0.0390625
EXTRACT: control_change channel=12 control=10 value=35 time=0.0390625
EXTRACT: note_on channel=12 note=69 velocity=0 time=0.015625
EXTRACT: note_on channel=11 note=69 velocity=0 time=0.0078125
EXTRACT: note_on channel=11 note=81 velocity=0 time=0
EXTRACT: note_on channel=4 note=64 velocity=0 time=0.015625
EXTRACT: note_on channel=4 note=69 velocity=0 time=0
EXTRACT: note_on channel=4 note=68 velocity=0 time=0
EXTRACT: note_on channel=4 note=69 velocity=80 time=0.021875000000000002
EXTRACT: note_on channel=11 note=81 velocity=83 time=0.003125
EXTRACT: note_on channel=11 note=69 velocity=83 time=0.003125
EXTRACT: note_on channel=12 note=69 velocity=69 time=0.00625
EXTRACT: note_on channel=4 note=64 velocity=82 time=0.0015625
EXTRACT: note_on channel=4 note=71 velocity=78 time=0
EXTRACT: control_change channel=12 control=10 value=43 time=0.003125
EXTRACT: control_change channel=12 control=10 value=47 time=0.0390625
EXTRACT: control_change channel=12 control=10 value=51 time=0.0390625
EXTRACT: control_change channel=12 control=10 value=55 time=0.0390625
EXTRACT: note_on channel=12 note=69 velocity=0 time=0.0078125
EXTRACT: note_on channel=11 note=69 velocity=0 time=0.0078125
EXTRACT: note_on channel=11 note=81 velocity=0 time=0
EXTRACT: note_on channel=1 note=42 velocity=0 time=0.0078125
EXTRACT: note_on channel=1 note=42 velocity=0 time=0
EXTRACT: note_on channel=2 note=64 velocity=0 time=0.0078125
EXTRACT: note_on channel=2 note=61 velocity=0 time=0
EXTRACT: note_on channel=2 note=54 velocity=0 time=0
EXTRACT: note_on channel=2 note=61 velocity=0 time=0
EXTRACT: note_on channel=2 note=57 velocity=0 time=0
EXTRACT: note_on channel=4 note=71 velocity=0 time=0
EXTRACT: note_on channel=4 note=64 velocity=0 time=0
EXTRACT: note_on channel=4 note=69 velocity=0 time=0
EXTRACT: note_on channel=6 note=54 velocity=0 time=0
EXTRACT: note_on channel=6 note=54 velocity=0 time=0
EXTRACT: note_on channel=7 note=54 velocity=0 time=0
EXTRACT: note_on channel=7 note=66 velocity=0 time=0
EXTRACT: note_on channel=7 note=54 velocity=0 time=0
EXTRACT: note_on channel=7 note=69 velocity=0 time=0
EXTRACT: note_on channel=7 note=69 velocity=0 time=0
EXTRACT: note_on channel=7 note=66 velocity=0 time=0
EXTRACT: note_on channel=8 note=57 velocity=0 time=0
EXTRACT: note_on channel=8 note=49 velocity=0 time=0
EXTRACT: note_on channel=8 note=42 velocity=0 time=0
EXTRACT: note_on channel=8 note=49 velocity=0 time=0
EXTRACT: note_on channel=8 note=50 velocity=60 time=0.021875000000000002
EXTRACT: note_on channel=2 note=62 velocity=92 time=0.003125
EXTRACT: note_on channel=7 note=50 velocity=61 time=0.0015625
EXTRACT: note_on channel=11 note=69 velocity=84 time=0
EXTRACT: note_on channel=1 note=38 velocity=77 time=0.0015625
EXTRACT: note_on channel=11 note=81 velocity=85 time=0
EXTRACT: note_on channel=12 note=69 velocity=72 time=0
EXTRACT: note_on channel=8 note=38 velocity=60 time=0.0015625
EXTRACT: note_on channel=8 note=54 velocity=61 time=0
EXTRACT: note_on channel=9 note=35 velocity=115 time=0.0015625
EXTRACT: note_on channel=9 note=36 velocity=115 time=0
EXTRACT: note_on channel=8 note=57 velocity=61 time=0.003125
EXTRACT: note_on channel=2 note=54 velocity=91 time=0.0015625
EXTRACT: note_on channel=6 note=54 velocity=77 time=0
EXTRACT: note_on channel=2 note=38 velocity=92 time=0.0015625
EXTRACT: note_on channel=2 note=57 velocity=90 time=0
EXTRACT: note_on channel=7 note=66 velocity=62 time=0.004687500000000001
EXTRACT: note_on channel=3 note=85 velocity=89 time=0.0015625
EXTRACT: note_on channel=7 note=62 velocity=59 time=0
EXTRACT: control_change channel=12 control=10 value=63 time=0.003125
EXTRACT: note_on channel=9 note=36 velocity=0 time=0.0125
EXTRACT: note_on channel=9 note=35 velocity=0 time=0
EXTRACT: control_change channel=12 control=10 value=67 time=0.026562500000000003
EXTRACT: control_change channel=12 control=10 value=71 time=0.0390625
EXTRACT: note_on channel=12 note=69 velocity=0 time=0.0390625
EXTRACT: control_change channel=12 control=10 value=75 time=0
EXTRACT: note_on channel=11 note=81 velocity=0 time=0.0078125
EXTRACT: note_on channel=11 note=69 velocity=0 time=0
EXTRACT: note_on channel=3 note=85 velocity=0 time=0.2109375
EXTRACT: note_on channel=11 note=66 velocity=86 time=0.018750000000000003
EXTRACT: note_on channel=2 note=59 velocity=60 time=0.003125
EXTRACT: note_on channel=12 note=66 velocity=71 time=0.010937500000000001
EXTRACT: note_on channel=3 note=83 velocity=78 time=0.003125
EXTRACT: note_on channel=11 note=78 velocity=84 time=0
EXTRACT: control_change channel=12 control=10 value=103 time=0.018750000000000003
EXTRACT: control_change channel=12 control=10 value=107 time=0.0390625
EXTRACT: control_change channel=12 control=10 value=111 time=0.0390625
EXTRACT: note_on channel=12 note=66 velocity=0 time=0.0234375
EXTRACT: note_on channel=11 note=78 velocity=0 time=0.0078125
EXTRACT: note_on channel=11 note=66 velocity=0 time=0
EXTRACT: note_on channel=11 note=68 velocity=84 time=0.034375
EXTRACT: note_on channel=12 note=68 velocity=68 time=0.00625
EXTRACT: note_on channel=9 note=35 velocity=115 time=0.00625
EXTRACT: note_on channel=9 note=36 velocity=115 time=0
EXTRACT: control_change channel=12 control=10 value=119 time=0
EXTRACT: note_on channel=11 note=80 velocity=85 time=0.00625
EXTRACT: note_on channel=9 note=36 velocity=0 time=0.021875000000000002
EXTRACT: note_on channel=9 note=35 velocity=0 time=0
EXTRACT: control_change channel=12 control=10 value=123 time=0.010937500000000001
EXTRACT: control_change channel=12 control=10 value=121 time=0.0390625
EXTRACT: control_change channel=12 control=10 value=117 time=0.0390625
EXTRACT: note_on channel=12 note=68 velocity=0 time=0.015625
EXTRACT: note_on channel=11 note=80 velocity=0 time=0.0078125
EXTRACT: note_on channel=11 note=68 velocity=0 time=0
EXTRACT: note_on channel=2 note=57 velocity=0 time=0.015625
EXTRACT: note_on channel=11 note=81 velocity=85 time=0.021875000000000002
EXTRACT: note_on channel=4 note=66 velocity=88 time=0.00625
EXTRACT: note_on channel=4 note=73 velocity=89 time=0
EXTRACT: note_on channel=11 note=69 velocity=83 time=0
EXTRACT: note_on channel=2 note=57 velocity=70 time=0.00625
EXTRACT: control_change channel=12 control=10 value=109 time=0.004687500000000001
EXTRACT: note_on channel=4 note=57 velocity=88 time=0.0015625
EXTRACT: note_on channel=12 note=69 velocity=72 time=0
EXTRACT: note_on channel=9 note=39 velocity=113 time=0.003125
EXTRACT: note_on channel=9 note=39 velocity=0 time=0.028125
EXTRACT: control_change channel=12 control=10 value=105 time=0.00625
EXTRACT: control_change channel=12 control=10 value=101 time=0.0390625
EXTRACT: control_change channel=12 control=10 value=97 time=0.0390625
EXTRACT: note_on channel=12 note=69 velocity=0 time=0.0078125
EXTRACT: note_on channel=11 note=69 velocity=0 time=0.0078125
EXTRACT: note_on channel=11 note=81 velocity=0 time=0
EXTRACT: note_on channel=4 note=57 velocity=0 time=0.015625
EXTRACT: note_on channel=4 note=73 velocity=0 time=0
EXTRACT: note_on channel=4 note=66 velocity=0 time=0
EXTRACT: note_on channel=4 note=57 velocity=72 time=0.018750000000000003
EXTRACT: note_on channel=4 note=71 velocity=74 time=0.009375000000000001
EXTRACT: note_on channel=4 note=66 velocity=71 time=0.00625
EXTRACT: note_on channel=2 note=57 velocity=0 time=0.153125
EXTRACT: note_on channel=4 note=66 velocity=0 time=0
EXTRACT: note_on channel=4 note=71 velocity=0 time=0
EXTRACT: note_on channel=4 note=57 velocity=0 time=0
EXTRACT: note_on channel=3 note=83 velocity=0 time=0.0078125
EXTRACT: note_on channel=4 note=57 velocity=79 time=0.0140625
EXTRACT: note_on channel=4 note=71 velocity=80 time=0.003125
EXTRACT: note_on channel=11 note=69 velocity=86 time=0.0015625
EXTRACT: note_on channel=12 note=69 velocity=69 time=0.004687500000000001
EXTRACT: note_on channel=4 note=66 velocity=82 time=0.004687500000000001
EXTRACT: note_on channel=11 note=81 velocity=87 time=0
EXTRACT: note_on channel=2 note=57 velocity=80 time=0.003125
EXTRACT: control_change channel=12 control=10 value=69 time=0.015625
EXTRACT: control_change channel=12 control=10 value=65 time=0.0390625
EXTRACT: control_change channel=12 control=10 value=61 time=0.0390625
EXTRACT: note_on channel=12 note=69 velocity=0 time=0.03125
EXTRACT: note_on channel=11 note=81 velocity=0 time=0.0078125
EXTRACT: note_on channel=11 note=69 velocity=0 time=0
EXTRACT: control_change channel=12 control=10 value=57 time=0
EXTRACT: note_on channel=2 note=54 velocity=0 time=0.203125
EXTRACT: note_on channel=4 note=66 velocity=0 time=0
EXTRACT: note_on channel=4 note=71 velocity=0 time=0
EXTRACT: note_on channel=4 note=57 velocity=0 time=0
EXTRACT: note_on channel=2 note=54 velocity=85 time=0.018750000000000003
EXTRACT: note_on channel=11 note=69 velocity=84 time=0.004687500000000001
EXTRACT: note_on channel=9 note=36 velocity=115 time=0.0078125
EXTRACT: note_on channel=11 note=81 velocity=87 time=0
EXTRACT: note_on channel=12 note=69 velocity=71 time=0.00625
EXTRACT: note_on channel=3 note=83 velocity=87 time=0.003125
EXTRACT: note_on channel=9 note=36 velocity=0 time=0.018750000000000003
EXTRACT: control_change channel=12 control=10 value=29 time=0.010937500000000001
EXTRACT: control_change channel=12 control=10 value=25 time=0.0390625
EXTRACT: control_change channel=12 control=10 value=21 time=0.0390625
EXTRACT: note_on channel=12 note=69 velocity=0 time=0.015625
EXTRACT: note_on channel=11 note=81 velocity=0 time=0.0078125
EXTRACT: note_on channel=11 note=69 velocity=0 time=0
EXTRACT: note_on channel=12 note=69 velocity=68 time=0.0546875
EXTRACT: control_change channel=12 control=10 value=15 time=0
EXTRACT: control_change channel=12 control=10 value=19 time=0.0390625
EXTRACT: control_change channel=12 control=10 value=23 time=0.0390625
EXTRACT: control_change channel=12 control=10 value=27 time=0.0390625
EXTRACT: note_on channel=12 note=69 velocity=0 time=0.0078125
EXTRACT: note_on channel=2 note=57 velocity=0 time=0.0234375
EXTRACT: note_on channel=3 note=83 velocity=0 time=0.0078125
EXTRACT: note_on channel=3 note=81 velocity=80 time=0.015625
EXTRACT: note_on channel=11 note=69 velocity=85 time=0.004687500000000001
EXTRACT: note_on channel=12 note=69 velocity=70 time=0
EXTRACT: note_on channel=2 note=57 velocity=79 time=0.003125
EXTRACT: note_on channel=9 note=35 velocity=115 time=0
EXTRACT: note_on channel=9 note=36 velocity=115 time=0
EXTRACT: note_on channel=11 note=81 velocity=85 time=0.0125
EXTRACT: control_change channel=12 control=10 value=35 time=0.003125
EXTRACT: note_on channel=9 note=36 velocity=0 time=0.0125
EXTRACT: note_on channel=9 note=35 velocity=0 time=0
EXTRACT: control_change channel=12 control=10 value=39 time=0.026562500000000003
EXTRACT: control_change channel=12 control=10 value=43 time=0.0390625
EXTRACT: note_on channel=12 note=69 velocity=0 time=0.0390625
EXTRACT: control_change channel=12 control=10 value=47 time=0
EXTRACT: note_on channel=11 note=81 velocity=0 time=0.0078125
EXTRACT: note_on channel=11 note=69 velocity=0 time=0
EXTRACT: note_on channel=2 note=57 velocity=0 time=0.203125
EXTRACT: note_on channel=2 note=54 velocity=0 time=0
EXTRACT: note_on channel=2 note=62 velocity=0 time=0
EXTRACT: note_on channel=2 note=38 velocity=0 time=0
EXTRACT: note_on channel=2 note=59 velocity=0 time=0
EXTRACT: note_on channel=11 note=69 velocity=87 time=0.0328125
EXTRACT: note_on channel=9 note=39 velocity=115 time=0.0015625
EXTRACT: note_on channel=11 note=81 velocity=85 time=0.00625
EXTRACT: note_on channel=12 note=69 velocity=69 time=0
EXTRACT: note_on channel=9 note=39 velocity=0 time=0.021875000000000002
EXTRACT: control_change channel=12 control=10 value=75 time=0
EXTRACT: control_change channel=12 control=10 value=79 time=0.0390625
EXTRACT: control_change channel=12 control=10 value=83 time=0.0390625
EXTRACT: note_on channel=12 note=69 velocity=0 time=0.0234375
EXTRACT: note_on channel=11 note=81 velocity=0 time=0.0078125
EXTRACT: note_on channel=11 note=69 velocity=0 time=0
EXTRACT: note_on channel=9 note=35 velocity=115 time=0.046875
EXTRACT: note_on channel=9 note=36 velocity=115 time=0
EXTRACT: note_on channel=12 note=69 velocity=68 time=0
EXTRACT: control_change channel=12 control=10 value=91 time=0
EXTRACT: note_on channel=9 note=36 velocity=0 time=0.028125
EXTRACT: note_on channel=9 note=35 velocity=0 time=0
EXTRACT: control_change channel=12 control=10 value=95 time=0.010937500000000001
EXTRACT: control_change channel=12 control=10 value=99 time=0.0390625
EXTRACT: control_change channel=12 control=10 value=103 time=0.0390625
EXTRACT: note_on channel=12 note=69 velocity=0 time=0.015625
EXTRACT: note_on channel=11 note=69 velocity=86 time=0.0421875
EXTRACT: note_on channel=5 note=69 velocity=79 time=0.003125
EXTRACT: note_on channel=12 note=69 velocity=71 time=0.0171875
EXTRACT: control_change channel=12 control=10 value=111 time=0
EXTRACT: note_on channel=11 note=81 velocity=83 time=0.0015625
EXTRACT: control_change channel=12 control=10 value=115 time=0.037500000000000006
EXTRACT: control_change channel=12 control=10 value=119 time=0.0390625
EXTRACT: control_change channel=12 control=10 value=123 time=0.0390625
EXTRACT: note_on channel=12 note=69 velocity=0 time=0.0078125
EXTRACT: note_on channel=11 note=81 velocity=0 time=0.0078125
EXTRACT: note_on channel=11 note=69 velocity=0 time=0
EXTRACT: note_on channel=12 note=69 velocity=72 time=0.037500000000000006
EXTRACT: control_change channel=12 control=10 value=117 time=0.025
EXTRACT: control_change channel=12 control=10 value=113 time=0.0390625
EXTRACT: control_change channel=12 control=10 value=109 time=0.0390625
EXTRACT: note_on channel=12 note=69 velocity=0 time=0.0390625
EXTRACT: control_change channel=12 control=10 value=105 time=0
EXTRACT: note_on channel=1 note=38 velocity=0 time=0.015625
EXTRACT: note_on channel=6 note=54 velocity=0 time=0.0078125
EXTRACT: note_on channel=7 note=62 velocity=0 time=0
EXTRACT: note_on channel=7 note=66 velocity=0 time=0
EXTRACT: note_on channel=7 note=50 velocity=0 time=0
EXTRACT: note_on channel=8 note=57 velocity=0 time=0
EXTRACT: note_on channel=8 note=50 velocity=0 time=0
EXTRACT: note_on channel=8 note=38 velocity=0 time=0
EXTRACT: note_on channel=8 note=54 velocity=0 time=0
EXTRACT: note_on channel=2 note=45 velocity=89 time=0.0203125
EXTRACT: note_on channel=2 note=57 velocity=91 time=0.0078125
EXTRACT: note_on channel=9 note=36 velocity=115 time=0.003125
EXTRACT: note_on channel=2 note=73 velocity=91 time=0.0125
EXTRACT: note_on channel=9 note=36 velocity=0 time=0.015625
EXTRACT: note_on channel=3 note=81 velocity=0 time=0.13593750000000002
EXTRACT: note_on channel=2 note=64 velocity=74 time=0.028125
EXTRACT: note_on channel=3 note=88 velocity=74 time=0
EXTRACT: note_on channel=3 note=88 velocity=0 time=0.15937500000000002
EXTRACT: note_on channel=2 note=69 velocity=80 time=0.0203125
EXTRACT: note_on channel=3 note=85 velocity=78 time=0
EXTRACT: note_on channel=2 note=64 velocity=0 time=0.15937500000000002
EXTRACT: note_on channel=2 note=64 velocity=74 time=0.0421875
EXTRACT: note_on channel=2 note=73 velocity=0 time=0.1453125
EXTRACT: note_on channel=9 note=39 velocity=113 time=0.026562500000000003
EXTRACT: note_on channel=2 note=73 velocity=92 time=0.0015625
EXTRACT: note_on channel=9 note=39 velocity=0 time=0.026562500000000003
EXTRACT: note_on channel=2 note=64 velocity=0 time=0.1328125
EXTRACT: note_on channel=5 note=69 velocity=0 time=0
EXTRACT: note_on channel=3 note=85 velocity=0 time=0.0078125
EXTRACT: note_on channel=2 note=64 velocity=75 time=0.0171875
EXTRACT: note_on channel=5 note=76 velocity=72 time=0.0078125
EXTRACT: note_on channel=2 note=69 velocity=0 time=0.1546875
EXTRACT: note_on channel=5 note=76 velocity=0 time=0
EXTRACT: note_on channel=2 note=69 velocity=82 time=0.026562500000000003
EXTRACT: note_on channel=5 note=73 velocity=76 time=0.0171875
EXTRACT: note_on channel=2 note=64 velocity=0 time=0.14375000000000002
EXTRACT: note_on channel=2 note=64 velocity=90 time=0.0203125
EXTRACT: note_on channel=2 note=73 velocity=0 time=0.16718750000000002
EXTRACT: note_on channel=2 note=73 velocity=92 time=0.021875000000000002
EXTRACT: note_on channel=9 note=36 velocity=115 time=0.009375000000000001
EXTRACT: note_on channel=9 note=36 velocity=0 time=0.028125
EXTRACT: note_on channel=2 note=64 velocity=0 time=0.12812500000000002
EXTRACT: note_on channel=5 note=73 velocity=0 time=0
EXTRACT: note_on channel=2 note=64 velocity=81 time=0.0421875
EXTRACT: note_on channel=2 note=69 velocity=0 time=0.1453125
EXTRACT: note_on channel=2 note=69 velocity=86 time=0.03125
EXTRACT: note_on channel=2 note=64 velocity=0 time=0.15625
EXTRACT: note_on channel=2 note=64 velocity=86 time=0.026562500000000003
EXTRACT: note_on channel=2 note=73 velocity=0 time=0.1609375
EXTRACT: note_on channel=2 note=73 velocity=94 time=0.025
EXTRACT: note_on channel=9 note=39 velocity=113 time=0.0078125
EXTRACT: note_on channel=9 note=39 velocity=0 time=0.028125
EXTRACT: note_on channel=2 note=64 velocity=0 time=0.1265625
EXTRACT: note_on channel=2 note=64 velocity=83 time=0.026562500000000003
EXTRACT: note_on channel=9 note=35 velocity=115 time=0.004687500000000001
EXTRACT: note_on channel=9 note=36 velocity=115 time=0
EXTRACT: note_on channel=9 note=36 velocity=0 time=0.028125
EXTRACT: note_on channel=9 note=35 velocity=0 time=0
EXTRACT: note_on channel=2 note=71 velocity=107 time=0.1484375
EXTRACT: note_on channel=2 note=73 velocity=0 time=0.16718750000000002
EXTRACT: note_on channel=2 note=73 velocity=107 time=0.037500000000000006
EXTRACT: note_on channel=2 note=73 velocity=0 time=0.15000000000000002
EXTRACT: note_on channel=2 note=71 velocity=0 time=0
EXTRACT: note_on channel=2 note=69 velocity=0 time=0
EXTRACT: note_on channel=2 note=45 velocity=0 time=0
EXTRACT: note_on channel=2 note=57 velocity=0 time=0
EXTRACT: note_on channel=2 note=64 velocity=0 time=0
EXTRACT: note_on channel=2 note=74 velocity=93 time=0.021875000000000002
EXTRACT: note_on channel=2 note=59 velocity=91 time=0.003125
EXTRACT: note_on channel=2 note=47 velocity=90 time=0.003125
EXTRACT: note_on channel=9 note=35 velocity=115 time=0.003125
EXTRACT: note_on channel=9 note=36 velocity=115 time=0
EXTRACT: note_on channel=9 note=36 velocity=0 time=0.028125
EXTRACT: note_on channel=9 note=35 velocity=0 time=0
EXTRACT: note_on channel=2 note=66 velocity=71 time=0.1625
EXTRACT: note_on channel=2 note=71 velocity=79 time=0.1765625
EXTRACT: note_on channel=2 note=66 velocity=0 time=0.1640625
EXTRACT: note_on channel=9 note=35 velocity=115 time=0.03125
EXTRACT: note_on channel=9 note=36 velocity=115 time=0
EXTRACT: note_on channel=2 note=66 velocity=76 time=0.0015625
EXTRACT: note_on channel=9 note=36 velocity=0 time=0.026562500000000003
EXTRACT: note_on channel=9 note=35 velocity=0 time=0
EXTRACT: note_on channel=2 note=74 velocity=0 time=0.12812500000000002
EXTRACT: note_on channel=9 note=39 velocity=117 time=0.018750000000000003
EXTRACT: note_on channel=2 note=74 velocity=93 time=0.015625
EXTRACT: note_on channel=9 note=39 velocity=0 time=0.0125
EXTRACT: note_on channel=2 note=66 velocity=0 time=0.140625
EXTRACT: note_on channel=2 note=66 velocity=72 time=0.0390625
EXTRACT: note_on channel=2 note=71 velocity=0 time=0.1484375
EXTRACT: note_on channel=2 note=71 velocity=81 time=0.03125
EXTRACT: note_on channel=2 note=66 velocity=0 time=0.15625
EXTRACT: note_on channel=2 note=66 velocity=88 time=0.0203125
EXTRACT: note_on channel=2 note=74 velocity=0 time=0.16718750000000002
EXTRACT: note_on channel=2 note=74 velocity=89 time=0.018750000000000003
EXTRACT: note_on channel=3 note=83 velocity=88 time=0.0125
EXTRACT: note_on channel=9 note=36 velocity=115 time=0
EXTRACT: note_on channel=9 note=36 velocity=0 time=0.028125
EXTRACT: note_on channel=2 note=66 velocity=0 time=0.12812500000000002
EXTRACT: note_on channel=2 note=66 velocity=79 time=0.0421875
EXTRACT: note_on channel=3 note=83 velocity=0 time=0.153125
EXTRACT: note_on channel=2 note=73 velocity=83 time=0.010937500000000001
EXTRACT: note_on channel=3 note=81 velocity=81 time=0.0140625
EXTRACT: note_on channel=2 note=66 velocity=0 time=0.1546875
EXTRACT: note_on channel=2 note=66 velocity=84 time=0.026562500000000003
EXTRACT: note_on channel=9 note=35 velocity=115 time=0.004687500000000001
EXTRACT: note_on channel=9 note=36 velocity=115 time=0
EXTRACT: note_on channel=9 note=36 velocity=0 time=0.028125
EXTRACT: note_on channel=9 note=35 velocity=0 time=0
EXTRACT: note_on channel=2 note=71 velocity=0 time=0.12812500000000002
EXTRACT: note_on channel=9 note=39 velocity=117 time=0.028125
EXTRACT: note_on channel=2 note=71 velocity=98 time=0.0078125
EXTRACT: note_on channel=9 note=39 velocity=0 time=0.0203125
EXTRACT: note_on channel=2 note=73 velocity=0 time=0.037500000000000006
EXTRACT: note_on channel=2 note=73 velocity=80 time=0.035937500000000004
EXTRACT: note_on channel=2 note=73 velocity=0 time=0.0578125
EXTRACT: note_on channel=2 note=71 velocity=0 time=0
EXTRACT: note_on channel=2 note=71 velocity=83 time=0.026562500000000003
EXTRACT: note_on channel=9 note=35 velocity=115 time=0.004687500000000001
EXTRACT: note_on channel=9 note=36 velocity=115 time=0
EXTRACT: note_on channel=9 note=36 velocity=0 time=0.028125
EXTRACT: note_on channel=9 note=35 velocity=0 time=0
EXTRACT: note_on channel=2 note=71 velocity=0 time=0.034375
EXTRACT: note_on channel=2 note=71 velocity=86 time=0.035937500000000004
EXTRACT: note_on channel=2 note=71 velocity=0 time=0.0578125
EXTRACT: note_on channel=2 note=69 velocity=106 time=0.03125
EXTRACT: note_on channel=9 note=36 velocity=115 time=0
EXTRACT: note_on channel=9 note=36 velocity=0 time=0.028125
EXTRACT: note_on channel=9 note=36 velocity=115 time=0.15937500000000002
EXTRACT: note_on channel=2 note=68 velocity=104 time=0.0125
EXTRACT: note_on channel=9 note=36 velocity=0 time=0.015625
EXTRACT: note_on channel=2 note=68 velocity=0 time=0.12812500000000002
EXTRACT: note_on channel=2 note=66 velocity=0 time=0
EXTRACT: note_on channel=2 note=47 velocity=0 time=0
EXTRACT: note_on channel=2 note=59 velocity=0 time=0
EXTRACT: note_on channel=2 note=69 velocity=0 time=0
EXTRACT: note_on channel=2 note=74 velocity=0 time=0
EXTRACT: note_on channel=2 note=42 velocity=85 time=0.025
EXTRACT: note_on channel=2 note=69 velocity=85 time=0.0015625
EXTRACT: note_on channel=9 note=35 velocity=115 time=0.004687500000000001
EXTRACT: note_on channel=9 note=36 velocity=115 time=0
EXTRACT: note_on channel=2 note=54 velocity=76 time=0.004687500000000001
EXTRACT: note_on channel=9 note=36 velocity=0 time=0.0234375
EXTRACT: note_on channel=9 note=35 velocity=0 time=0
EXTRACT: note_on channel=3 note=81 velocity=0 time=0.13593750000000002
EXTRACT: note_on channel=2 note=61 velocity=53 time=0.026562500000000003
EXTRACT: note_on channel=3 note=88 velocity=74 time=0
EXTRACT: note_on channel=2 note=66 velocity=79 time=0.1875
EXTRACT: note_on channel=2 note=61 velocity=0 time=0.153125
EXTRACT: note_on channel=3 note=88 velocity=0 time=0.0078125
EXTRACT: note_on channel=2 note=61 velocity=76 time=0.0140625
EXTRACT: note_on channel=3 note=90 velocity=76 time=0.018750000000000003
EXTRACT: note_on channel=2 note=69 velocity=0 time=0.146875
EXTRACT: note_on channel=2 note=69 velocity=88 time=0.025
EXTRACT: note_on channel=9 note=39 velocity=114 time=0.018750000000000003
EXTRACT: note_on channel=9 note=39 velocity=0 time=0.028125
EXTRACT: note_on channel=2 note=61 velocity=0 time=0.115625
EXTRACT: note_on channel=2 note=61 velocity=74 time=0.0421875
EXTRACT: note_on channel=2 note=66 velocity=0 time=0.1453125
EXTRACT: note_on channel=2 note=66 velocity=79 time=0.021875000000000002
EXTRACT: note_on channel=2 note=61 velocity=0 time=0.16562500000000002
EXTRACT: note_on channel=3 note=90 velocity=0 time=0.0078125
EXTRACT: note_on channel=3 note=85 velocity=85 time=0.0140625
EXTRACT: note_on channel=2 note=61 velocity=89 time=0.015625
EXTRACT: note_on channel=2 note=69 velocity=0 time=0.15000000000000002
EXTRACT: note_on channel=9 note=36 velocity=115 time=0.03125
EXTRACT: note_on channel=2 note=69 velocity=94 time=0.009375000000000001
EXTRACT: note_on channel=9 note=36 velocity=0 time=0.018750000000000003
EXTRACT: note_on channel=2 note=61 velocity=0 time=0.12812500000000002
EXTRACT: note_on channel=3 note=85 velocity=0 time=0.0078125
EXTRACT: note_on channel=2 note=61 velocity=80 time=0.0140625
EXTRACT: note_on channel=2 note=66 velocity=0 time=0.16562500000000002
EXTRACT: note_on channel=9 note=35 velocity=115 time=0.03125
EXTRACT: note_on channel=9 note=36 velocity=115 time=0
EXTRACT: note_on channel=2 note=66 velocity=85 time=0.004687500000000001
EXTRACT: note_on channel=9 note=36 velocity=0 time=0.0234375
EXTRACT: note_on channel=9 note=35 velocity=0 time=0
EXTRACT: note_on channel=2 note=61 velocity=0 time=0.12812500000000002
EXTRACT: note_on channel=2 note=61 velocity=88 time=0.021875000000000002
EXTRACT: note_on channel=2 note=69 velocity=0 time=0.16562500000000002
EXTRACT: note_on channel=2 note=69 velocity=94 time=0.021875000000000002
EXTRACT: note_on channel=9 note=39 velocity=115 time=0.00625
EXTRACT: note_on channel=9 note=39 velocity=0 time=0.028125
EXTRACT: note_on channel=2 note=71 velocity=99 time=0.1546875
EXTRACT: note_on channel=9 note=35 velocity=115 time=0.0078125
EXTRACT: note_on channel=9 note=36 velocity=115 time=0
EXTRACT: note_on channel=9 note=36 velocity=0 time=0.028125
EXTRACT: note_on channel=9 note=35 velocity=0 time=0
EXTRACT: note_on channel=2 note=69 velocity=0 time=0.12812500000000002
EXTRACT: note_on channel=2 note=69 velocity=104 time=0.034375
EXTRACT: note_on channel=2 note=68 velocity=106 time=0.18125000000000002
EXTRACT: note_on channel=2 note=68 velocity=0 time=0.15937500000000002
EXTRACT: note_on channel=2 note=54 velocity=0 time=0
EXTRACT: note_on channel=2 note=71 velocity=0 time=0
EXTRACT: note_on channel=2 note=61 velocity=0 time=0
EXTRACT: note_on channel=2 note=42 velocity=0 time=0
EXTRACT: note_on channel=2 note=69 velocity=0 time=0
EXTRACT: note_on channel=2 note=66 velocity=0 time=0
EXTRACT: note_on channel=2 note=38 velocity=74 time=0.018750000000000003
EXTRACT: note_on channel=2 note=50 velocity=72 time=0.003125
EXTRACT: note_on channel=9 note=35 velocity=115 time=0.009375000000000001
EXTRACT: note_on channel=9 note=36 velocity=115 time=0
EXTRACT: note_on channel=2 note=66 velocity=71 time=0.0015625
EXTRACT: note_on channel=9 note=36 velocity=0 time=0.026562500000000003
EXTRACT: note_on channel=9 note=35 velocity=0 time=0
EXTRACT: note_on channel=2 note=66 velocity=0 time=0.31562500000000004
EXTRACT: note_on channel=2 note=66 velocity=76 time=0.043750000000000004
EXTRACT: note_on channel=9 note=35 velocity=115 time=0.17500000000000002
EXTRACT: note_on channel=9 note=36 velocity=115 time=0
EXTRACT: note_on channel=2 note=62 velocity=76 time=0.009375000000000001
EXTRACT: note_on channel=9 note=36 velocity=0 time=0.018750000000000003
EXTRACT: note_on channel=9 note=35 velocity=0 time=0
EXTRACT: note_on channel=2 note=66 velocity=0 time=0.12812500000000002
EXTRACT: note_on channel=2 note=66 velocity=89 time=0.025
EXTRACT: note_on channel=9 note=39 velocity=116 time=0.0015625
EXTRACT: note_on channel=9 note=39 velocity=0 time=0.028125
EXTRACT: note_on channel=2 note=62 velocity=0 time=0.1328125
EXTRACT: note_on channel=2 note=62 velocity=72 time=0.037500000000000006
EXTRACT: note_on channel=2 note=66 velocity=0 time=0.15000000000000002
EXTRACT: note_on channel=2 note=66 velocity=82 time=0.035937500000000004
EXTRACT: note_on channel=2 note=62 velocity=0 time=0.15156250000000002
EXTRACT: note_on channel=2 note=62 velocity=88 time=0.028125
EXTRACT: note_on channel=6 note=52 velocity=85 time=0.178125
EXTRACT: note_on channel=3 note=83 velocity=84 time=0.009375000000000001
EXTRACT: note_on channel=9 note=36 velocity=115 time=0.003125
EXTRACT: note_on channel=2 note=69 velocity=92 time=0.010937500000000001
EXTRACT: note_on channel=9 note=36 velocity=0 time=0.0171875
EXTRACT: note_on channel=2 note=62 velocity=0 time=0.12812500000000002
EXTRACT: note_on channel=2 note=62 velocity=81 time=0.0390625
EXTRACT: note_on channel=2 note=66 velocity=0 time=0.1484375
EXTRACT: note_on channel=6 note=52 velocity=0 time=0
EXTRACT: note_on channel=3 note=83 velocity=0 time=0.0078125
EXTRACT: note_on channel=2 note=66 velocity=83 time=0.0125
EXTRACT: note_on channel=3 note=81 velocity=80 time=0.0140625
EXTRACT: note_on channel=6 note=54 velocity=87 time=0
EXTRACT: note_on channel=2 note=62 velocity=0 time=0.153125
EXTRACT: note_on channel=9 note=36 velocity=115 time=0.03125
EXTRACT: note_on channel=2 note=62 velocity=85 time=0.00625
EXTRACT: note_on channel=9 note=36 velocity=0 time=0.021875000000000002
EXTRACT: note_on channel=2 note=69 velocity=0 time=0.12812500000000002
EXTRACT: note_on channel=6 note=54 velocity=0 time=0
EXTRACT: note_on channel=2 note=69 velocity=119 time=0.0234375
EXTRACT: note_on channel=9 note=39 velocity=115 time=0.00625
EXTRACT: note_on channel=6 note=57 velocity=84 time=0.00625
EXTRACT: note_on channel=9 note=39 velocity=0 time=0.021875000000000002
EXTRACT: note_on channel=9 note=35 velocity=115 time=0.1609375
EXTRACT: note_on channel=9 note=36 velocity=115 time=0
EXTRACT: note_on channel=2 note=68 velocity=101 time=0.010937500000000001
EXTRACT: note_on channel=9 note=36 velocity=0 time=0.0171875
EXTRACT: note_on channel=9 note=35 velocity=0 time=0
EXTRACT: note_on channel=2 note=66 velocity=0 time=0.12812500000000002
EXTRACT: note_on channel=6 note=57 velocity=0 time=0
EXTRACT: note_on channel=2 note=66 velocity=103 time=0.028125
EXTRACT: note_on channel=9 note=35 velocity=115 time=0.003125
EXTRACT: note_on channel=9 note=36 velocity=115 time=0
EXTRACT: note_on channel=6 note=59 velocity=86 time=0.0015625
EXTRACT: note_on channel=5 note=69 velocity=82 time=0.003125
EXTRACT: note_on channel=9 note=36 velocity=0 time=0.0234375
EXTRACT: note_on channel=9 note=35 velocity=0 time=0
EXTRACT: note_on channel=2 note=66 velocity=0 time=0.12812500000000002
EXTRACT: note_on channel=2 note=64 velocity=103 time=0.028125
EXTRACT: note_on channel=9 note=36 velocity=115 time=0.003125
EXTRACT: note_on channel=9 note=36 velocity=0 time=0.028125
EXTRACT: note_on channel=2 note=64 velocity=0 time=0.12812500000000002
EXTRACT: note_on channel=2 note=50 velocity=0 time=0
EXTRACT: note_on channel=2 note=62 velocity=0 time=0
EXTRACT: note_on channel=2 note=38 velocity=0 time=0
EXTRACT: note_on channel=2 note=68 velocity=0 time=0
EXTRACT: note_on channel=2 note=69 velocity=0 time=0
EXTRACT: note_on channel=6 note=59 velocity=0 time=0
EXTRACT: note_on channel=2 note=73 velocity=91 time=0.026562500000000003
EXTRACT: note_on channel=8 note=73 velocity=77 time=0
EXTRACT: note_on channel=9 note=35 velocity=115 time=0.004687500000000001
EXTRACT: note_on channel=9 note=36 velocity=115 time=0
EXTRACT: note_on channel=10 note=60 velocity=115 time=0
EXTRACT: note_on channel=11 note=85 velocity=87 time=0
EXTRACT: note_on channel=11 note=73 velocity=84 time=0
EXTRACT: note_on channel=2 note=61 velocity=89 time=0.0015625
EXTRACT: note_on channel=2 note=57 velocity=89 time=0.0015625
EXTRACT: note_on channel=8 note=57 velocity=62 time=0
EXTRACT: note_on channel=12 note=73 velocity=70 time=0
EXTRACT: note_on channel=6 note=57 velocity=77 time=0.0015625
EXTRACT: note_on channel=2 note=45 velocity=93 time=0.0078125
EXTRACT: control_change channel=12 control=10 value=55 time=0.003125
EXTRACT: note_on channel=9 note=36 velocity=0 time=0.0125
EXTRACT: note_on channel=9 note=35 velocity=0 time=0
EXTRACT: note_on channel=10 note=60 velocity=0 time=0
EXTRACT: control_change channel=12 control=10 value=59 time=0.026562500000000003
EXTRACT: control_change channel=12 control=10 value=63 time=0.0390625
EXTRACT: note_on channel=12 note=73 velocity=0 time=0.0390625
EXTRACT: control_change channel=12 control=10 value=67 time=0
EXTRACT: note_on channel=11 note=73 velocity=0 time=0.0078125
EXTRACT: note_on channel=11 note=85 velocity=0 time=0
EXTRACT: note_on channel=3 note=81 velocity=0 time=0.0234375
EXTRACT: note_on channel=2 note=57 velocity=0 time=0.1796875
EXTRACT: note_on channel=12 note=69 velocity=69 time=0.026562500000000003
EXTRACT: note_on channel=11 note=81 velocity=83 time=0.003125
EXTRACT: note_on channel=2 note=57 velocity=79 time=0.003125
EXTRACT: note_on channel=11 note=69 velocity=83 time=0
EXTRACT: control_change channel=12 control=10 value=95 time=0.029687500000000002
EXTRACT: control_change channel=12 control=10 value=99 time=0.0390625
EXTRACT: control_change channel=12 control=10 value=103 time=0.0390625
EXTRACT: note_on channel=12 note=69 velocity=0 time=0.0234375
EXTRACT: note_on channel=11 note=69 velocity=0 time=0.0078125
EXTRACT: note_on channel=11 note=81 velocity=0 time=0
EXTRACT: note_on channel=11 note=83 velocity=84 time=0.034375
EXTRACT: note_on channel=11 note=71 velocity=87 time=0.003125
EXTRACT: note_on channel=2 note=59 velocity=78 time=0.0078125
EXTRACT: note_on channel=12 note=71 velocity=72 time=0.010937500000000001
EXTRACT: control_change channel=12 control=10 value=115 time=0.029687500000000002
EXTRACT: control_change channel=12 control=10 value=119 time=0.0390625
EXTRACT: control_change channel=12 control=10 value=123 time=0.0390625
EXTRACT: note_on channel=12 note=71 velocity=0 time=0.015625
EXTRACT: note_on channel=11 note=71 velocity=0 time=0.0078125
EXTRACT: note_on channel=11 note=83 velocity=0 time=0
EXTRACT: note_on channel=2 note=73 velocity=0 time=0.015625
EXTRACT: note_on channel=2 note=61 velocity=0 time=0
EXTRACT: note_on channel=11 note=73 velocity=84 time=0.018750000000000003
EXTRACT: note_on channel=11 note=85 velocity=84 time=0.004687500000000001
EXTRACT: note_on channel=2 note=61 velocity=88 time=0.009375000000000001
EXTRACT: note_on channel=9 note=39 velocity=115 time=0
EXTRACT: control_change channel=12 control=10 value=117 time=0.00625
EXTRACT: note_on channel=12 note=73 velocity=72 time=0.0015625
EXTRACT: note_on channel=9 note=39 velocity=0 time=0.0203125
EXTRACT: control_change channel=12 control=10 value=113 time=0.0171875
EXTRACT: control_change channel=12 control=10 value=109 time=0.0390625
EXTRACT: control_change channel=12 control=10 value=105 time=0.0390625
EXTRACT: note_on channel=12 note=73 velocity=0 time=0.0078125
EXTRACT: note_on channel=11 note=85 velocity=0 time=0.0078125
EXTRACT: note_on channel=11 note=73 velocity=0 time=0
EXTRACT: note_on channel=5 note=69 velocity=0 time=0.015625
EXTRACT: note_on channel=2 note=52 velocity=56 time=0.0421875
EXTRACT: note_on channel=2 note=57 velocity=0 time=0.1453125
EXTRACT: note_on channel=2 note=57 velocity=82 time=0.0203125
EXTRACT: note_on channel=12 note=73 velocity=71 time=0.00625
EXTRACT: note_on channel=11 note=73 velocity=83 time=0.003125
EXTRACT: note_on channel=11 note=85 velocity=83 time=0.003125
EXTRACT: control_change channel=12 control=10 value=77 time=0.021875000000000002
EXTRACT: control_change channel=12 control=10 value=73 time=0.0390625
EXTRACT: control_change channel=12 control=10 value=69 time=0.0390625
EXTRACT: note_on channel=12 note=73 velocity=0 time=0.03125
EXTRACT: note_on channel=11 note=85 velocity=0 time=0.0078125
EXTRACT: note_on channel=11 note=73 velocity=0 time=0
EXTRACT: control_change channel=12 control=10 value=65 time=0
EXTRACT: note_on channel=2 note=59 velocity=0 time=0.015625
EXTRACT: note_on channel=2 note=59 velocity=83 time=0.03125
EXTRACT: note_on channel=2 note=61 velocity=0 time=0.15625
EXTRACT: note_on channel=3 note=81 velocity=86 time=0.028125
EXTRACT: note_on channel=2 note=61 velocity=84 time=0.0015625
EXTRACT: note_on channel=9 note=36 velocity=115 time=0.0015625
EXTRACT: note_on channel=12 note=73 velocity=70 time=0.003125
EXTRACT: note_on channel=4 note=57 velocity=84 time=0.0015625
EXTRACT: note_on channel=11 note=73 velocity=87 time=0.003125
EXTRACT: note_on channel=11 note=85 velocity=85 time=0.0015625
EXTRACT: note_on channel=4 note=64 velocity=87 time=0.0015625
EXTRACT: note_on channel=9 note=36 velocity=0 time=0.0171875
EXTRACT: control_change channel=12 control=10 value=37 time=0.010937500000000001
EXTRACT: control_change channel=12 control=10 value=33 time=0.0390625
EXTRACT: control_change channel=12 control=10 value=29 time=0.0390625
EXTRACT: note_on channel=12 note=73 velocity=0 time=0.015625
EXTRACT: note_on channel=11 note=85 velocity=0 time=0.0078125
EXTRACT: note_on channel=11 note=73 velocity=0 time=0
EXTRACT: note_on channel=2 note=59 velocity=0 time=0.015625
EXTRACT: note_on channel=4 note=64 velocity=0 time=0
EXTRACT: note_on channel=4 note=57 velocity=0 time=0
EXTRACT: note_on channel=3 note=81 velocity=0 time=0.0078125
EXTRACT: note_on channel=3 note=81 velocity=74 time=0.018750000000000003
EXTRACT: note_on channel=2 note=59 velocity=74 time=0.0078125
EXTRACT: note_on channel=4 note=57 velocity=73 time=0.003125
EXTRACT: note_on channel=4 note=64 velocity=73 time=0.00625
EXTRACT: note_on channel=3 note=81 velocity=0 time=0.065625
EXTRACT: note_on channel=2 note=57 velocity=0 time=0.078125
EXTRACT: note_on channel=4 note=64 velocity=0 time=0
EXTRACT: note_on channel=4 note=57 velocity=0 time=0
EXTRACT: note_on channel=4 note=64 velocity=78 time=0.018750000000000003
EXTRACT: note_on channel=2 note=57 velocity=80 time=0.00625
EXTRACT: note_on channel=11 note=73 velocity=83 time=0.00625
EXTRACT: note_on channel=11 note=85 velocity=85 time=0.003125
EXTRACT: note_on channel=4 note=57 velocity=80 time=0.0015625
EXTRACT: note_on channel=12 note=73 velocity=69 time=0
EXTRACT: note_on channel=3 note=81 velocity=81 time=0.0078125
EXTRACT: control_change channel=12 control=10 value=27 time=0.003125
EXTRACT: control_change channel=12 control=10 value=31 time=0.0390625
EXTRACT: note_on channel=3 note=81 velocity=0 time=0.0234375
EXTRACT: control_change channel=12 control=10 value=35 time=0.015625
EXTRACT: note_on channel=12 note=73 velocity=0 time=0.0390625
EXTRACT: control_change channel=12 control=10 value=39 time=0
EXTRACT: note_on channel=11 note=85 velocity=0 time=0.0078125
EXTRACT: note_on channel=11 note=73 velocity=0 time=0
EXTRACT: note_on channel=2 note=59 velocity=0 time=0.015625
EXTRACT: note_on channel=4 note=57 velocity=0 time=0
EXTRACT: note_on channel=4 note=64 velocity=0 time=0
EXTRACT: note_on channel=4 note=64 velocity=80 time=0.018750000000000003
EXTRACT: note_on channel=3 note=81 velocity=78 time=0.0015625
EXTRACT: note_on channel=4 note=57 velocity=79 time=0.00625
EXTRACT: note_on channel=2 note=59 velocity=79 time=0.0078125
EXTRACT: note_on channel=3 note=81 velocity=0 time=0.07500000000000001
EXTRACT: note_on channel=2 note=61 velocity=0 time=0.078125
EXTRACT: note_on channel=2 note=45 velocity=0 time=0
EXTRACT: note_on channel=2 note=52 velocity=0 time=0
EXTRACT: note_on channel=4 note=57 velocity=0 time=0
EXTRACT: note_on channel=4 note=64 velocity=0 time=0
EXTRACT: note_on channel=8 note=73 velocity=0 time=0
EXTRACT: note_on channel=4 note=64 velocity=89 time=0.018750000000000003
EXTRACT: note_on channel=9 note=39 velocity=115 time=0
EXTRACT: note_on channel=2 note=52 velocity=89 time=0.003125
EXTRACT: note_on channel=2 note=61 velocity=90 time=0
EXTRACT: note_on channel=11 note=73 velocity=84 time=0.003125
EXTRACT: note_on channel=4 note=57 velocity=89 time=0.003125
EXTRACT: note_on channel=12 note=73 velocity=70 time=0.0015625
EXTRACT: note_on channel=2 note=45 velocity=92 time=0.004687500000000001
EXTRACT: note_on channel=3 note=81 velocity=91 time=0.0078125
EXTRACT: note_on channel=11 note=85 velocity=84 time=0
EXTRACT: note_on channel=9 note=39 velocity=0 time=0.004687500000000001
EXTRACT: control_change channel=12 control=10 value=67 time=0.015625
EXTRACT: control_change channel=12 control=10 value=71 time=0.0390625
EXTRACT: control_change channel=12 control=10 value=75 time=0.0390625
EXTRACT: note_on channel=12 note=73 velocity=0 time=0.0234375
EXTRACT: note_on channel=11 note=85 velocity=0 time=0.0078125
EXTRACT: note_on channel=11 note=73 velocity=0 time=0
EXTRACT: note_on channel=2 note=59 velocity=0 time=0.015625
EXTRACT: note_on channel=4 note=57 velocity=0 time=0
EXTRACT: note_on channel=4 note=64 velocity=0 time=0
EXTRACT: note_on channel=3 note=81 velocity=0 time=0.0078125
EXTRACT: note_on channel=12 note=71 velocity=68 time=0.018750000000000003
EXTRACT: note_on channel=9 note=35 velocity=115 time=0.004687500000000001
EXTRACT: note_on channel=9 note=36 velocity=115 time=0
EXTRACT: control_change channel=12 control=10 value=83 time=0
EXTRACT: note_on channel=11 note=71 velocity=87 time=0.009375000000000001
EXTRACT: note_on channel=11 note=83 velocity=86 time=0.0015625
EXTRACT: note_on channel=2 note=59 velocity=72 time=0.0015625
EXTRACT: note_on channel=9 note=36 velocity=0 time=0.015625
EXTRACT: note_on channel=9 note=35 velocity=0 time=0
EXTRACT: control_change channel=12 control=10 value=87 time=0.010937500000000001
EXTRACT: control_change channel=12 control=10 value=91 time=0.0390625
EXTRACT: control_change channel=12 control=10 value=95 time=0.0390625
EXTRACT: note_on channel=12 note=71 velocity=0 time=0.015625
EXTRACT: note_on channel=11 note=83 velocity=0 time=0.0078125
EXTRACT: note_on channel=11 note=71 velocity=0 time=0
EXTRACT: note_on channel=2 note=57 velocity=0 time=0.015625
EXTRACT: note_on channel=4 note=57 velocity=75 time=0.0234375
EXTRACT: note_on channel=11 note=69 velocity=83 time=0.003125
EXTRACT: note_on channel=2 note=57 velocity=79 time=0.0015625
EXTRACT: note_on channel=12 note=69 velocity=70 time=0
EXTRACT: note_on channel=3 note=81 velocity=75 time=0.0078125
EXTRACT: note_on channel=11 note=81 velocity=84 time=0
EXTRACT: note_on channel=4 note=64 velocity=76 time=0.003125
EXTRACT: control_change channel=12 control=10 value=103 time=0
EXTRACT: control_change channel=12 control=10 value=107 time=0.0390625
EXTRACT: control_change channel=12 control=10 value=111 time=0.0390625
EXTRACT: control_change channel=12 control=10 value=115 time=0.0390625
EXTRACT: note_on channel=12 note=69 velocity=0 time=0.0078125
EXTRACT: note_on channel=11 note=81 velocity=0 time=0.0078125
EXTRACT: note_on channel=11 note=69 velocity=0 time=0
EXTRACT: note_on channel=4 note=64 velocity=0 time=0.015625
EXTRACT: note_on channel=4 note=57 velocity=0 time=0
EXTRACT: note_on channel=3 note=81 velocity=0 time=0.0078125
EXTRACT: note_on channel=3 note=83 velocity=77 time=0.010937500000000001
EXTRACT: note_on channel=11 note=81 velocity=86 time=0
EXTRACT: note_on channel=12 note=69 velocity=72 time=0
EXTRACT: note_on channel=4 note=59 velocity=76 time=0.0015625
EXTRACT: note_on channel=11 note=69 velocity=87 time=0.00625
EXTRACT: note_on channel=2 note=56 velocity=74 time=0.003125
EXTRACT: note_on channel=4 note=66 velocity=77 time=0.00625
EXTRACT: control_change channel=12 control=10 value=123 time=0.010937500000000001
EXTRACT: control_change channel=12 control=10 value=121 time=0.0390625
EXTRACT: control_change channel=12 control=10 value=117 time=0.0390625
EXTRACT: note_on channel=12 note=69 velocity=0 time=0.0390625
EXTRACT: control_change channel=12 control=10 value=113 time=0
EXTRACT: note_on channel=11 note=69 velocity=0 time=0.0078125
EXTRACT: note_on channel=11 note=81 velocity=0 time=0
EXTRACT: note_on channel=2 note=56 velocity=0 time=0.015625
EXTRACT: note_on channel=2 note=52 velocity=0 time=0
EXTRACT: note_on channel=2 note=59 velocity=0 time=0
EXTRACT: note_on channel=2 note=61 velocity=0 time=0
EXTRACT: note_on channel=2 note=57 velocity=0 time=0
EXTRACT: note_on channel=2 note=45 velocity=0 time=0
EXTRACT: note_on channel=6 note=57 velocity=0 time=0
EXTRACT: note_on channel=8 note=57 velocity=0 time=0
EXTRACT: note_on channel=6 note=59 velocity=76 time=0.0203125
EXTRACT: note_on channel=1 note=35 velocity=73 time=0.0015625
EXTRACT: note_on channel=8 note=59 velocity=58 time=0.003125
EXTRACT: note_on channel=2 note=59 velocity=91 time=0.004687500000000001
EXTRACT: note_on channel=7 note=71 velocity=62 time=0
EXTRACT: note_on channel=9 note=35 velocity=115 time=0.0015625
EXTRACT: note_on channel=9 note=36 velocity=115 time=0
EXTRACT: note_on channel=11 note=83 velocity=87 time=0
EXTRACT: note_on channel=8 note=47 velocity=62 time=0.003125
EXTRACT: note_on channel=11 note=71 velocity=83 time=0
EXTRACT: note_on channel=2 note=54 velocity=91 time=0.0015625
EXTRACT: note_on channel=7 note=59 velocity=59 time=0
EXTRACT: note_on channel=8 note=50 velocity=61 time=0
EXTRACT: note_on channel=2 note=62 velocity=91 time=0.003125
EXTRACT: note_on channel=12 note=71 velocity=69 time=0
EXTRACT: note_on channel=2 note=47 velocity=91 time=0.0015625
EXTRACT: note_on channel=8 note=54 velocity=59 time=0.0015625
EXTRACT: note_on channel=7 note=74 velocity=59 time=0.0015625
EXTRACT: control_change channel=12 control=10 value=105 time=0.010937500000000001
EXTRACT: note_on channel=9 note=36 velocity=0 time=0.004687500000000001
EXTRACT: note_on channel=9 note=35 velocity=0 time=0
EXTRACT: control_change channel=12 control=10 value=101 time=0.034375
EXTRACT: control_change channel=12 control=10 value=97 time=0.0390625
EXTRACT: note_on channel=12 note=71 velocity=0 time=0.03125
EXTRACT: note_on channel=11 note=71 velocity=0 time=0.0078125
EXTRACT: note_on channel=11 note=83 velocity=0 time=0
EXTRACT: control_change channel=12 control=10 value=93 time=0
EXTRACT: note_on channel=2 note=59 velocity=0 time=0.203125
EXTRACT: note_on channel=12 note=71 velocity=69 time=0.0203125
EXTRACT: note_on channel=11 note=71 velocity=83 time=0.004687500000000001
EXTRACT: note_on channel=2 note=59 velocity=79 time=0.00625
EXTRACT: note_on channel=11 note=83 velocity=84 time=0
EXTRACT: control_change channel=12 control=10 value=69 time=0
EXTRACT: note_on channel=5 note=69 velocity=74 time=0.009375000000000001
EXTRACT: control_change channel=12 control=10 value=65 time=0.029687500000000002
EXTRACT: control_change channel=12 control=10 value=61 time=0.0390625
EXTRACT: control_change channel=12 control=10 value=57 time=0.0390625
EXTRACT: note_on channel=12 note=71 velocity=0 time=0.015625
EXTRACT: note_on channel=11 note=83 velocity=0 time=0.0078125
EXTRACT: note_on channel=11 note=71 velocity=0 time=0
EXTRACT: note_on channel=5 note=69 velocity=0 time=0.015625
EXTRACT: note_on channel=9 note=35 velocity=115 time=0.03125
EXTRACT: note_on channel=9 note=36 velocity=115 time=0
EXTRACT: note_on channel=11 note=85 velocity=85 time=0.0015625
EXTRACT: note_on channel=2 note=61 velocity=77 time=0.0015625
EXTRACT: note_on channel=5 note=71 velocity=79 time=0
EXTRACT: control_change channel=12 control=10 value=49 time=0.004687500000000001
EXTRACT: note_on channel=12 note=73 velocity=70 time=0.0015625
EXTRACT: note_on channel=11 note=73 velocity=83 time=0.003125
EXTRACT: note_on channel=9 note=36 velocity=0 time=0.015625
EXTRACT: note_on channel=9 note=35 velocity=0 time=0
EXTRACT: control_change channel=12 control=10 value=45 time=0.018750000000000003
EXTRACT: control_change channel=12 control=10 value=41 time=0.0390625
EXTRACT: control_change channel=12 control=10 value=37 time=0.0390625
EXTRACT: note_on channel=12 note=73 velocity=0 time=0.0078125
EXTRACT: note_on channel=11 note=73 velocity=0 time=0.0078125
EXTRACT: note_on channel=11 note=85 velocity=0 time=0
EXTRACT: note_on channel=2 note=62 velocity=0 time=0.015625
EXTRACT: note_on channel=4 note=66 velocity=0 time=0
EXTRACT: note_on channel=4 note=59 velocity=0 time=0
EXTRACT: note_on channel=3 note=83 velocity=0 time=0.0078125
EXTRACT: note_on channel=12 note=74 velocity=72 time=0.0125
EXTRACT: note_on channel=11 note=86 velocity=83 time=0.004687500000000001
EXTRACT: note_on channel=2 note=62 velocity=88 time=0.00625
EXTRACT: note_on channel=11 note=74 velocity=87 time=0
EXTRACT: note_on channel=9 note=39 velocity=116 time=0.0015625
EXTRACT: control_change channel=12 control=10 value=29 time=0.0140625
EXTRACT: note_on channel=9 note=39 velocity=0 time=0.0140625
EXTRACT: control_change channel=12 control=10 value=25 time=0.025
EXTRACT: control_change channel=12 control=10 value=21 time=0.0390625
EXTRACT: note_on channel=12 note=74 velocity=0 time=0.0390625
EXTRACT: control_change channel=12 control=10 value=17 time=0
EXTRACT: note_on channel=11 note=74 velocity=0 time=0.0078125
EXTRACT: note_on channel=11 note=86 velocity=0 time=0
EXTRACT: note_on channel=2 note=61 velocity=0 time=0.015625
EXTRACT: note_on channel=2 note=61 velocity=73 time=0.028125
EXTRACT: note_on channel=2 note=59 velocity=0 time=0.15937500000000002
EXTRACT: note_on channel=4 note=64 velocity=77 time=0.018750000000000003
EXTRACT: note_on channel=2 note=59 velocity=76 time=0.0015625
EXTRACT: note_on channel=12 note=74 velocity=69 time=0.0015625
EXTRACT: control_change channel=12 control=10 value=35 time=0.0015625
EXTRACT: note_on channel=11 note=74 velocity=86 time=0.004687500000000001
EXTRACT: note_on channel=11 note=86 velocity=83 time=0.003125
EXTRACT: note_on channel=3 note=81 velocity=79 time=0.0015625
EXTRACT: note_on channel=4 note=57 velocity=79 time=0.003125
EXTRACT: control_change channel=12 control=10 value=39 time=0.026562500000000003
EXTRACT: control_change channel=12 control=10 value=43 time=0.0390625
EXTRACT: control_change channel=12 control=10 value=47 time=0.0390625
EXTRACT: note_on channel=12 note=74 velocity=0 time=0.0234375
EXTRACT: note_on channel=11 note=86 velocity=0 time=0.0078125
EXTRACT: note_on channel=11 note=74 velocity=0 time=0
EXTRACT: note_on channel=2 note=61 velocity=0 time=0.015625
EXTRACT: note_on channel=4 note=57 velocity=0 time=0
EXTRACT: note_on channel=4 note=64 velocity=0 time=0
EXTRACT: note_on channel=3 note=81 velocity=0 time=0.0078125
EXTRACT: note_on channel=4 note=57 velocity=87 time=0.015625
EXTRACT: note_on channel=2 note=61 velocity=83 time=0.0015625
EXTRACT: note_on channel=4 note=64 velocity=83 time=0.003125
EXTRACT: note_on channel=3 note=81 velocity=87 time=0.0015625
EXTRACT: note_on channel=3 note=81 velocity=0 time=0.07968750000000001
EXTRACT: note_on channel=2 note=62 velocity=0 time=0.078125
EXTRACT: note_on channel=4 note=64 velocity=0 time=0
EXTRACT: note_on channel=4 note=57 velocity=0 time=0
EXTRACT: note_on channel=5 note=71 velocity=0 time=0
EXTRACT: note_on channel=12 note=74 velocity=72 time=0.0234375
EXTRACT: note_on channel=3 note=83 velocity=87 time=0.003125
EXTRACT: note_on channel=11 note=86 velocity=86 time=0.003125
EXTRACT: note_on channel=9 note=36 velocity=115 time=0.0015625
EXTRACT: note_on channel=2 note=62 velocity=88 time=0.003125
EXTRACT: note_on channel=4 note=59 velocity=88 time=0.0015625
EXTRACT: note_on channel=11 note=74 velocity=87 time=0.0015625
EXTRACT: control_change channel=12 control=10 value=75 time=0.0015625
EXTRACT: note_on channel=4 note=66 velocity=88 time=0.004687500000000001
EXTRACT: note_on channel=9 note=36 velocity=0 time=0.015625
EXTRACT: control_change channel=12 control=10 value=79 time=0.018750000000000003
EXTRACT: control_change channel=12 control=10 value=83 time=0.0390625
EXTRACT: control_change channel=12 control=10 value=87 time=0.0390625
EXTRACT: note_on channel=12 note=74 velocity=0 time=0.0078125
EXTRACT: note_on channel=11 note=74 velocity=0 time=0.0078125
EXTRACT: note_on channel=11 note=86 velocity=0 time=0
EXTRACT: note_on channel=2 note=61 velocity=0 time=0.015625
EXTRACT: note_on channel=4 note=66 velocity=0 time=0
EXTRACT: note_on channel=4 note=59 velocity=0 time=0
EXTRACT: note_on channel=3 note=83 velocity=0 time=0.0078125
EXTRACT: note_on channel=2 note=61 velocity=73 time=0.015625
EXTRACT: note_on channel=12 note=76 velocity=72 time=0.0015625
EXTRACT: note_on channel=3 note=83 velocity=72 time=0.0015625
EXTRACT: note_on channel=4 note=66 velocity=76 time=0
EXTRACT: note_on channel=4 note=59 velocity=74 time=0.0015625
EXTRACT: control_change channel=12 control=10 value=95 time=0.018750000000000003
EXTRACT: control_change channel=12 control=10 value=99 time=0.0390625
EXTRACT: note_on channel=3 note=83 velocity=0 time=0.0234375
EXTRACT: control_change channel=12 control=10 value=103 time=0.015625
EXTRACT: note_on channel=12 note=76 velocity=0 time=0.0390625
EXTRACT: control_change channel=12 control=10 value=107 time=0
EXTRACT: note_on channel=2 note=59 velocity=0 time=0.0234375
EXTRACT: note_on channel=4 note=59 velocity=0 time=0
EXTRACT: note_on channel=4 note=66 velocity=0 time=0
EXTRACT: note_on channel=4 note=66 velocity=80 time=0.0203125
EXTRACT: note_on channel=11 note=86 velocity=87 time=0
EXTRACT: note_on channel=2 note=59 velocity=61 time=0.0015625
EXTRACT: note_on channel=4 note=59 velocity=78 time=0.009375000000000001
EXTRACT: note_on channel=12 note=74 velocity=72 time=0.0015625
EXTRACT: note_on channel=3 note=83 velocity=76 time=0.0015625
EXTRACT: note_on channel=11 note=74 velocity=84 time=0.0015625
EXTRACT: control_change channel=12 control=10 value=115 time=0.018750000000000003
EXTRACT: control_change channel=12 control=10 value=119 time=0.0390625
EXTRACT: control_change channel=12 control=10 value=123 time=0.0390625
EXTRACT: note_on channel=12 note=74 velocity=0 time=0.03125
EXTRACT: note_on channel=11 note=74 velocity=0 time=0.0078125
EXTRACT: note_on channel=11 note=86 velocity=0 time=0
EXTRACT: control_change channel=12 control=10 value=121 time=0
EXTRACT: note_on channel=2 note=61 velocity=0 time=0.015625
EXTRACT: note_on channel=9 note=35 velocity=115 time=0.03125
EXTRACT: note_on channel=9 note=36 velocity=115 time=0
EXTRACT: note_on channel=2 note=61 velocity=78 time=0.004687500000000001
EXTRACT: note_on channel=9 note=36 velocity=0 time=0.0234375
EXTRACT: note_on channel=9 note=35 velocity=0 time=0
EXTRACT: note_on channel=2 note=62 velocity=0 time=0.12812500000000002
EXTRACT: note_on channel=4 note=59 velocity=0 time=0
EXTRACT: note_on channel=4 note=66 velocity=0 time=0
EXTRACT: note_on channel=3 note=83 velocity=0 time=0.0078125
EXTRACT: note_on channel=11 note=86 velocity=84 time=0.010937500000000001
EXTRACT: note_on channel=4 note=61 velocity=87 time=0.0078125
EXTRACT: note_on channel=3 note=85 velocity=88 time=0.004687500000000001
EXTRACT: note_on channel=11 note=74 velocity=87 time=0.003125
EXTRACT: note_on channel=4 note=68 velocity=87 time=0.004687500000000001
EXTRACT: note_on channel=9 note=39 velocity=116 time=0
EXTRACT: note_on channel=2 note=62 velocity=86 time=0.004687500000000001
EXTRACT: note_on channel=12 note=74 velocity=69 time=0
EXTRACT: note_on channel=9 note=39 velocity=0 time=0.0234375
EXTRACT: control_change channel=12 control=10 value=93 time=0.003125
EXTRACT: control_change channel=12 control=10 value=89 time=0.0390625
EXTRACT: control_change channel=12 control=10 value=85 time=0.0390625
EXTRACT: note_on channel=12 note=74 velocity=0 time=0.015625
EXTRACT: note_on channel=11 note=74 velocity=0 time=0.0078125
EXTRACT: note_on channel=11 note=86 velocity=0 time=0
EXTRACT: note_on channel=2 note=61 velocity=0 time=0.015625
EXTRACT: note_on channel=11 note=73 velocity=83 time=0.018750000000000003
EXTRACT: note_on channel=11 note=85 velocity=84 time=0.004687500000000001
EXTRACT: note_on channel=2 note=61 velocity=73 time=0.0015625
EXTRACT: note_on channel=9 note=35 velocity=115 time=0.00625
EXTRACT: note_on channel=9 note=36 velocity=115 time=0
EXTRACT: note_on channel=10 note=60 velocity=60 time=0
EXTRACT: control_change channel=12 control=10 value=77 time=0.0078125
EXTRACT: note_on channel=12 note=73 velocity=70 time=0.003125
EXTRACT: note_on channel=9 note=36 velocity=0 time=0.0171875
EXTRACT: note_on channel=9 note=35 velocity=0 time=0
EXTRACT: note_on channel=10 note=60 velocity=0 time=0
EXTRACT: control_change channel=12 control=10 value=73 time=0.018750000000000003
EXTRACT: control_change channel=12 control=10 value=69 time=0.0390625
EXTRACT: control_change channel=12 control=10 value=65 time=0.0390625
EXTRACT: note_on channel=12 note=73 velocity=0 time=0.0078125
EXTRACT: note_on channel=11 note=85 velocity=0 time=0.0078125
EXTRACT: note_on channel=11 note=73 velocity=0 time=0
EXTRACT: note_on channel=2 note=59 velocity=0 time=0.015625
EXTRACT: note_on channel=4 note=68 velocity=0 time=0
EXTRACT: note_on channel=4 note=61 velocity=0 time=0
EXTRACT: note_on channel=3 note=85 velocity=0 time=0.0078125
EXTRACT: note_on channel=2 note=59 velocity=78 time=0.010937500000000001
EXTRACT: note_on channel=4 note=64 velocity=80 time=0.0015625
EXTRACT: note_on channel=11 note=86 velocity=86 time=0.004687500000000001
EXTRACT: note_on channel=9 note=35 velocity=115 time=0.00625
EXTRACT: note_on channel=9 note=36 velocity=115 time=0
EXTRACT: note_on channel=10 note=60 velocity=78 time=0
EXTRACT: note_on channel=11 note=74 velocity=87 time=0.003125
EXTRACT: note_on channel=12 note=74 velocity=68 time=0
EXTRACT: note_on channel=3 note=81 velocity=80 time=0.00625
EXTRACT: note_on channel=4 note=57 velocity=77 time=0.003125
EXTRACT: control_change channel=12 control=10 value=57 time=0.003125
EXTRACT: note_on channel=9 note=36 velocity=0 time=0.0125
EXTRACT: note_on channel=9 note=35 velocity=0 time=0
EXTRACT: note_on channel=10 note=60 velocity=0 time=0
EXTRACT: control_change channel=12 control=10 value=53 time=0.026562500000000003
EXTRACT: note_on channel=3 note=81 velocity=0 time=0.0234375
EXTRACT: control_change channel=12 control=10 value=49 time=0.015625
EXTRACT: note_on channel=12 note=74 velocity=0 time=0.0390625
EXTRACT: control_change channel=12 control=10 value=45 time=0
EXTRACT: note_on channel=11 note=74 velocity=0 time=0.0078125
EXTRACT: note_on channel=11 note=86 velocity=0 time=0
EXTRACT: note_on channel=4 note=57 velocity=0 time=0.015625
EXTRACT: note_on channel=4 note=64 velocity=0 time=0
EXTRACT: note_on channel=4 note=57 velocity=82 time=0.0203125
EXTRACT: note_on channel=12 note=73 velocity=71 time=0.003125
EXTRACT: note_on channel=4 note=64 velocity=79 time=0.004687500000000001
EXTRACT: note_on channel=9 note=35 velocity=115 time=0.003125
EXTRACT: note_on channel=9 note=36 velocity=115 time=0
EXTRACT: note_on channel=10 note=60 velocity=96 time=0
EXTRACT: note_on channel=2 note=57 velocity=78 time=0.0015625
EXTRACT: note_on channel=11 note=73 velocity=86 time=0.0015625
EXTRACT: note_on channel=11 note=85 velocity=87 time=0
EXTRACT: note_on channel=3 note=81 velocity=79 time=0.00625
EXTRACT: control_change channel=12 control=10 value=37 time=0.0140625
EXTRACT: note_on channel=9 note=36 velocity=0 time=0.004687500000000001
EXTRACT: note_on channel=9 note=35 velocity=0 time=0
EXTRACT: note_on channel=10 note=60 velocity=0 time=0
EXTRACT: control_change channel=12 control=10 value=33 time=0.034375
EXTRACT: control_change channel=12 control=10 value=29 time=0.0390625
EXTRACT: note_on channel=12 note=73 velocity=0 time=0.03125
EXTRACT: note_on channel=11 note=85 velocity=0 time=0.0078125
EXTRACT: note_on channel=11 note=73 velocity=0 time=0
EXTRACT: control_change channel=12 control=10 value=25 time=0
EXTRACT: note_on channel=1 note=35 velocity=0 time=0.0078125
EXTRACT: note_on channel=2 note=57 velocity=0 time=0.0078125
EXTRACT: note_on channel=2 note=54 velocity=0 time=0
EXTRACT: note_on channel=2 note=61 velocity=0 time=0
EXTRACT: note_on channel=2 note=47 velocity=0 time=0
EXTRACT: note_on channel=2 note=59 velocity=0 time=0
EXTRACT: note_on channel=2 note=62 velocity=0 time=0
EXTRACT: note_on channel=6 note=59 velocity=0 time=0
EXTRACT: note_on channel=7 note=74 velocity=0 time=0
EXTRACT: note_on channel=7 note=59 velocity=0 time=0
EXTRACT: note_on channel=7 note=71 velocity=0 time=0
EXTRACT: note_on channel=8 note=54 velocity=0 time=0
EXTRACT: note_on channel=8 note=59 velocity=0 time=0
EXTRACT: note_on channel=8 note=47 velocity=0 time=0
EXTRACT: note_on channel=8 note=50 velocity=0 time=0
EXTRACT: note_on channel=7 note=54 velocity=58 time=0.0203125
EXTRACT: control_change channel=12 control=10 value=21 time=0.003125
EXTRACT: note_on channel=12 note=69 velocity=71 time=0.0015625
EXTRACT: note_on channel=2 note=42 velocity=92 time=0.0015625
EXTRACT: note_on channel=8 note=57 velocity=58 time=0
EXTRACT: note_on channel=11 note=69 velocity=87 time=0
EXTRACT: note_on channel=11 note=81 velocity=83 time=0
EXTRACT: note_on channel=8 note=54 velocity=61 time=0.0015625
EXTRACT: note_on channel=9 note=35 velocity=115 time=0.003125
EXTRACT: note_on channel=9 note=36 velocity=115 time=0
EXTRACT: note_on channel=10 note=60 velocity=115 time=0
EXTRACT: note_on channel=6 note=54 velocity=76 time=0.003125
EXTRACT: note_on channel=7 note=69 velocity=60 time=0.0015625
EXTRACT: note_on channel=8 note=42 velocity=61 time=0.0015625
EXTRACT: note_on channel=8 note=49 velocity=58 time=0.0015625
EXTRACT: note_on channel=1 note=42 velocity=73 time=0.0015625
EXTRACT: note_on channel=7 note=66 velocity=61 time=0.003125
EXTRACT: note_on channel=9 note=36 velocity=0 time=0.015625
EXTRACT: note_on channel=9 note=35 velocity=0 time=0
EXTRACT: note_on channel=10 note=60 velocity=0 time=0
EXTRACT: control_change channel=12 control=10 value=17 time=0.003125
EXTRACT: control_change channel=12 control=10 value=15 time=0.0390625
EXTRACT: control_change channel=12 control=10 value=19 time=0.0390625
EXTRACT: note_on channel=12 note=69 velocity=0 time=0.0234375
EXTRACT: note_on channel=11 note=81 velocity=0 time=0.0078125
EXTRACT: note_on channel=11 note=69 velocity=0 time=0
EXTRACT: note_on channel=4 note=64 velocity=0 time=0.015625
EXTRACT: note_on channel=4 note=57 velocity=0 time=0
EXTRACT: note_on channel=3 note=81 velocity=0 time=0.0078125
EXTRACT: note_on channel=4 note=61 velocity=74 time=0.018750000000000003
EXTRACT: note_on channel=2 note=49 velocity=57 time=0.00625
EXTRACT: note_on channel=4 note=54 velocity=72 time=0.0015625
EXTRACT: note_on channel=3 note=78 velocity=72 time=0.0015625
EXTRACT: note_on channel=11 note=78 velocity=87 time=0.171875
EXTRACT: note_on channel=11 note=66 velocity=87 time=0.0078125
EXTRACT: note_on channel=2 note=54 velocity=79 time=0.003125
EXTRACT: note_on channel=12 note=66 velocity=68 time=0.004687500000000001
EXTRACT: control_change channel=12 control=10 value=47 time=0.003125
EXTRACT: control_change channel=12 control=10 value=51 time=0.0390625
EXTRACT: control_change channel=12 control=10 value=55 time=0.0390625
EXTRACT: control_change channel=12 control=10 value=59 time=0.0390625
EXTRACT: note_on channel=12 note=66 velocity=0 time=0.0078125
EXTRACT: note_on channel=11 note=66 velocity=0 time=0.0078125
EXTRACT: note_on channel=11 note=78 velocity=0 time=0
EXTRACT: note_on channel=2 note=56 velocity=75 time=0.043750000000000004
EXTRACT: note_on channel=11 note=68 velocity=87 time=0.00625
EXTRACT: note_on channel=12 note=68 velocity=68 time=0.0015625
EXTRACT: note_on channel=11 note=80 velocity=84 time=0.0078125
EXTRACT: control_change channel=12 control=10 value=67 time=0.003125
EXTRACT: control_change channel=12 control=10 value=71 time=0.0390625
EXTRACT: control_change channel=12 control=10 value=75 time=0.0390625
EXTRACT: note_on channel=12 note=68 velocity=0 time=0.0390625
EXTRACT: control_change channel=12 control=10 value=79 time=0
EXTRACT: note_on channel=11 note=80 velocity=0 time=0.0078125
EXTRACT: note_on channel=11 note=68 velocity=0 time=0
EXTRACT: note_on channel=2 note=57 velocity=88 time=0.034375
EXTRACT: note_on channel=9 note=39 velocity=117 time=0.0015625
EXTRACT: note_on channel=11 note=69 velocity=87 time=0.0078125
EXTRACT: note_on channel=12 note=69 velocity=72 time=0.00625
EXTRACT: note_on channel=11 note=81 velocity=85 time=0.009375000000000001
EXTRACT: note_on channel=9 note=39 velocity=0 time=0.004687500000000001
EXTRACT: control_change channel=12 control=10 value=87 time=0.00625
EXTRACT: control_change channel=12 control=10 value=91 time=0.0390625
EXTRACT: control_change channel=12 control=10 value=95 time=0.0390625
EXTRACT: note_on channel=12 note=69 velocity=0 time=0.03125
EXTRACT: note_on channel=11 note=81 velocity=0 time=0.0078125
EXTRACT: note_on channel=11 note=69 velocity=0 time=0
EXTRACT: control_change channel=12 control=10 value=99 time=0
EXTRACT: note_on channel=2 note=49 velocity=0 time=0.203125
EXTRACT: note_on channel=4 note=54 velocity=0 time=0
EXTRACT: note_on channel=4 note=61 velocity=0 time=0
EXTRACT: note_on channel=3 note=78 velocity=0 time=0.0078125
EXTRACT: note_on channel=12 note=69 velocity=68 time=0.0203125
EXTRACT: note_on channel=11 note=81 velocity=84 time=0.0015625
EXTRACT: control_change channel=12 control=10 value=123 time=0.0015625
EXTRACT: note_on channel=2 note=49 velocity=80 time=0.009375000000000001
EXTRACT: note_on channel=11 note=69 velocity=85 time=0
EXTRACT: control_change channel=12 control=10 value=121 time=0.029687500000000002
EXTRACT: control_change channel=12 control=10 value=117 time=0.0390625
EXTRACT: control_change channel=12 control=10 value=113 time=0.0390625
EXTRACT: note_on channel=12 note=69 velocity=0 time=0.015625
EXTRACT: note_on channel=11 note=69 velocity=0 time=0.0078125
EXTRACT: note_on channel=11 note=81 velocity=0 time=0
EXTRACT: note_on channel=2 note=54 velocity=0 time=0.015625
EXTRACT: note_on channel=2 note=54 velocity=87 time=0.0328125
EXTRACT: note_on channel=2 note=57 velocity=0 time=0.1546875
EXTRACT: note_on channel=9 note=36 velocity=115 time=0.03125
EXTRACT: note_on channel=12 note=69 velocity=72 time=0
EXTRACT: note_on channel=4 note=57 velocity=85 time=0.0015625
EXTRACT: note_on channel=3 note=81 velocity=84 time=0.0015625
EXTRACT: note_on channel=4 note=64 velocity=87 time=0
EXTRACT: note_on channel=11 note=81 velocity=85 time=0.003125
EXTRACT: note_on channel=2 note=57 velocity=86 time=0.003125
EXTRACT: note_on channel=11 note=69 velocity=86 time=0
EXTRACT: control_change channel=12 control=10 value=85 time=0.00625
EXTRACT: note_on channel=9 note=36 velocity=0 time=0.0125
EXTRACT: control_change channel=12 control=10 value=81 time=0.026562500000000003
EXTRACT: control_change channel=12 control=10 value=77 time=0.0390625
EXTRACT: note_on channel=12 note=69 velocity=0 time=0.0390625
EXTRACT: control_change channel=12 control=10 value=73 time=0
EXTRACT: note_on channel=11 note=69 velocity=0 time=0.0078125
EXTRACT: note_on channel=11 note=81 velocity=0 time=0
EXTRACT: note_on channel=4 note=64 velocity=0 time=0.015625
EXTRACT: note_on channel=4 note=57 velocity=0 time=0
EXTRACT: note_on channel=3 note=81 velocity=0 time=0.0078125
EXTRACT: note_on channel=4 note=64 velocity=73 time=0.010937500000000001
EXTRACT: note_on channel=3 note=81 velocity=75 time=0.009375000000000001
EXTRACT: note_on channel=4 note=57 velocity=72 time=0.003125
EXTRACT: note_on channel=3 note=81 velocity=0 time=0.078125
EXTRACT: note_on channel=2 note=49 velocity=0 time=0.078125
EXTRACT: note_on channel=4 note=57 velocity=0 time=0
EXTRACT: note_on channel=4 note=64 velocity=0 time=0
EXTRACT: note_on channel=12 note=69 velocity=72 time=0.018750000000000003
EXTRACT: note_on channel=2 note=49 velocity=80 time=0.0015625
EXTRACT: note_on channel=11 note=81 velocity=84 time=0.003125
EXTRACT: control_change channel=12 control=10 value=49 time=0
EXTRACT: note_on channel=11 note=69 velocity=85 time=0.003125
EXTRACT: note_on channel=4 note=57 velocity=77 time=0.0015625
EXTRACT: note_on channel=9 note=35 velocity=115 time=0.003125
EXTRACT: note_on channel=9 note=36 velocity=115 time=0
EXTRACT: note_on channel=3 note=81 velocity=77 time=0.003125
EXTRACT: note_on channel=4 note=64 velocity=78 time=0.009375000000000001
EXTRACT: note_on channel=9 note=36 velocity=0 time=0.015625
EXTRACT: note_on channel=9 note=35 velocity=0 time=0
EXTRACT: control_change channel=12 control=10 value=45 time=0.003125
EXTRACT: control_change channel=12 control=10 value=41 time=0.0390625
EXTRACT: note_on channel=3 note=81 velocity=0 time=0.0078125
EXTRACT: control_change channel=12 control=10 value=37 time=0.03125
EXTRACT: note_on channel=12 note=69 velocity=0 time=0.0234375
EXTRACT: note_on channel=11 note=69 velocity=0 time=0.0078125
EXTRACT: note_on channel=11 note=81 velocity=0 time=0
EXTRACT: note_on channel=2 note=54 velocity=0 time=0.015625
EXTRACT: note_on channel=4 note=64 velocity=0 time=0
EXTRACT: note_on channel=4 note=57 velocity=0 time=0
EXTRACT: note_on channel=3 note=81 velocity=80 time=0.021875000000000002
EXTRACT: note_on channel=4 note=57 velocity=77 time=0.003125
EXTRACT: note_on channel=4 note=64 velocity=79 time=0.0078125
EXTRACT: note_on channel=2 note=54 velocity=77 time=0.003125
EXTRACT: note_on channel=3 note=81 velocity=0 time=0.0734375
EXTRACT: note_on channel=2 note=57 velocity=0 time=0.078125
EXTRACT: note_on channel=4 note=64 velocity=0 time=0
EXTRACT: note_on channel=4 note=57 velocity=0 time=0
EXTRACT: note_on channel=4 note=57 velocity=93 time=0.0203125
EXTRACT: note_on channel=12 note=69 velocity=69 time=0.004687500000000001
EXTRACT: note_on channel=2 note=57 velocity=93 time=0.003125
EXTRACT: note_on channel=4 note=64 velocity=93 time=0
EXTRACT: note_on channel=11 note=69 velocity=84 time=0
EXTRACT: control_change channel=12 control=10 value=19 time=0.010937500000000001
EXTRACT: note_on channel=9 note=39 velocity=115 time=0.0015625
EXTRACT: note_on channel=3 note=81 velocity=90 time=0.0015625
EXTRACT: note_on channel=11 note=81 velocity=87 time=0.0015625
EXTRACT: note_on channel=9 note=39 velocity=0 time=0.025
EXTRACT: control_change channel=12 control=10 value=23 time=0.009375000000000001
EXTRACT: control_change channel=12 control=10 value=27 time=0.0390625
EXTRACT: control_change channel=12 control=10 value=31 time=0.0390625
EXTRACT: note_on channel=12 note=69 velocity=0 time=0.0078125
EXTRACT: note_on channel=11 note=81 velocity=0 time=0.0078125
EXTRACT: note_on channel=11 note=69 velocity=0 time=0
EXTRACT: note_on channel=2 note=56 velocity=0 time=0.015625
EXTRACT: note_on channel=9 note=35 velocity=115 time=0.03125
EXTRACT: note_on channel=9 note=36 velocity=115 time=0
EXTRACT: note_on channel=2 note=56 velocity=72 time=0.004687500000000001
EXTRACT: note_on channel=9 note=36 velocity=0 time=0.0234375
EXTRACT: note_on channel=9 note=35 velocity=0 time=0
EXTRACT: note_on channel=2 note=54 velocity=0 time=0.12812500000000002
EXTRACT: note_on channel=4 note=64 velocity=0 time=0
EXTRACT: note_on channel=4 note=57 velocity=0 time=0
EXTRACT: note_on channel=3 note=81 velocity=0 time=0.0078125
EXTRACT: note_on channel=11 note=69 velocity=84 time=0.010937500000000001
EXTRACT: note_on channel=2 note=54 velocity=75 time=0.0078125
EXTRACT: note_on channel=4 note=64 velocity=78 time=0
EXTRACT: note_on channel=4 note=57 velocity=78 time=0.0015625
EXTRACT: note_on channel=12 note=69 velocity=71 time=0.0015625
EXTRACT: note_on channel=3 note=81 velocity=75 time=0.0125
EXTRACT: note_on channel=11 note=81 velocity=83 time=0
EXTRACT: control_change channel=12 control=10 value=59 time=0.0125
EXTRACT: control_change channel=12 control=10 value=63 time=0.0390625
EXTRACT: note_on channel=3 note=81 velocity=0 time=0.015625
EXTRACT: control_change channel=12 control=10 value=67 time=0.0234375
EXTRACT: note_on channel=12 note=69 velocity=0 time=0.03125
EXTRACT: note_on channel=11 note=81 velocity=0 time=0.0078125
EXTRACT: note_on channel=11 note=69 velocity=0 time=0
EXTRACT: control_change channel=12 control=10 value=71 time=0
EXTRACT: note_on channel=4 note=57 velocity=0 time=0.015625
EXTRACT: note_on channel=4 note=64 velocity=0 time=0
EXTRACT: note_on channel=3 note=81 velocity=74 time=0.026562500000000003
EXTRACT: note_on channel=12 note=69 velocity=72 time=0.0015625
EXTRACT: note_on channel=4 note=64 velocity=78 time=0.0015625
EXTRACT: note_on channel=11 note=69 velocity=84 time=0.0015625
EXTRACT: note_on channel=11 note=81 velocity=83 time=0.00625
EXTRACT: note_on channel=4 note=57 velocity=78 time=0.00625
EXTRACT: control_change channel=12 control=10 value=79 time=0.018750000000000003
EXTRACT: control_change channel=12 control=10 value=83 time=0.0390625
EXTRACT: control_change channel=12 control=10 value=87 time=0.0390625
EXTRACT: note_on channel=12 note=69 velocity=0 time=0.0234375
EXTRACT: note_on channel=11 note=81 velocity=0 time=0.0078125
EXTRACT: note_on channel=11 note=69 velocity=0 time=0
EXTRACT: note_on channel=1 note=42 velocity=0 time=0.0078125
EXTRACT: note_on channel=2 note=54 velocity=0 time=0.0078125
EXTRACT: note_on channel=2 note=56 velocity=0 time=0
EXTRACT: note_on channel=2 note=42 velocity=0 time=0
EXTRACT: note_on channel=2 note=49 velocity=0 time=0
EXTRACT: note_on channel=2 note=57 velocity=0 time=0
EXTRACT: note_on channel=6 note=54 velocity=0 time=0
EXTRACT: note_on channel=7 note=66 velocity=0 time=0
EXTRACT: note_on channel=7 note=69 velocity=0 time=0
EXTRACT: note_on channel=7 note=54 velocity=0 time=0
EXTRACT: note_on channel=8 note=49 velocity=0 time=0
EXTRACT: note_on channel=8 note=57 velocity=0 time=0
EXTRACT: note_on channel=8 note=54 velocity=0 time=0
EXTRACT: note_on channel=8 note=42 velocity=0 time=0
EXTRACT: note_on channel=2 note=57 velocity=90 time=0.018750000000000003
EXTRACT: note_on channel=2 note=54 velocity=90 time=0.0015625
EXTRACT: note_on channel=2 note=50 velocity=93 time=0.0015625
EXTRACT: note_on channel=7 note=62 velocity=60 time=0
EXTRACT: note_on channel=8 note=54 velocity=61 time=0
EXTRACT: note_on channel=8 note=38 velocity=59 time=0.004687500000000001
EXTRACT: note_on channel=11 note=69 velocity=83 time=0
EXTRACT: note_on channel=12 note=69 velocity=71 time=0
EXTRACT: note_on channel=8 note=50 velocity=62 time=0.0015625
EXTRACT: note_on channel=1 note=38 velocity=74 time=0.0015625
EXTRACT: note_on channel=8 note=57 velocity=60 time=0
EXTRACT: note_on channel=9 note=35 velocity=115 time=0.0015625
EXTRACT: note_on channel=9 note=36 velocity=115 time=0
EXTRACT: note_on channel=10 note=60 velocity=115 time=0
EXTRACT: control_change channel=12 control=10 value=95 time=0
EXTRACT: note_on channel=2 note=38 velocity=89 time=0.0015625
EXTRACT: note_on channel=7 note=66 velocity=60 time=0.003125
EXTRACT: note_on channel=7 note=50 velocity=62 time=0.003125
EXTRACT: note_on channel=11 note=81 velocity=86 time=0
EXTRACT: note_on channel=6 note=54 velocity=76 time=0.003125
EXTRACT: note_on channel=9 note=36 velocity=0 time=0.0171875
EXTRACT: note_on channel=9 note=35 velocity=0 time=0
EXTRACT: note_on channel=10 note=60 velocity=0 time=0
EXTRACT: control_change channel=12 control=10 value=99 time=0.010937500000000001
EXTRACT: control_change channel=12 control=10 value=103 time=0.0390625
EXTRACT: control_change channel=12 control=10 value=107 time=0.0390625
EXTRACT: note_on channel=12 note=69 velocity=0 time=0.015625
EXTRACT: note_on channel=11 note=81 velocity=0 time=0.0078125
EXTRACT: note_on channel=11 note=69 velocity=0 time=0
EXTRACT: note_on channel=4 note=57 velocity=0 time=0.015625
EXTRACT: note_on channel=4 note=64 velocity=0 time=0
EXTRACT: note_on channel=3 note=81 velocity=0 time=0.0078125
EXTRACT: note_on channel=4 note=57 velocity=74 time=0.021875000000000002
EXTRACT: note_on channel=4 note=64 velocity=72 time=0.009375000000000001
EXTRACT: note_on channel=3 note=76 velocity=74 time=0.0015625
EXTRACT: note_on channel=2 note=50 velocity=0 time=0.146875
EXTRACT: note_on channel=4 note=64 velocity=0 time=0
EXTRACT: note_on channel=4 note=57 velocity=0 time=0
EXTRACT: note_on channel=3 note=76 velocity=0 time=0.0078125
EXTRACT: note_on channel=3 note=74 velocity=80 time=0.015625
EXTRACT: note_on channel=4 note=62 velocity=80 time=0.0015625
EXTRACT: note_on channel=4 note=57 velocity=79 time=0.0015625
EXTRACT: note_on channel=2 note=50 velocity=79 time=0.0015625
EXTRACT: note_on channel=11 note=66 velocity=86 time=0.003125
EXTRACT: note_on channel=12 note=66 velocity=71 time=0.004687500000000001
EXTRACT: note_on channel=11 note=78 velocity=86 time=0.00625
EXTRACT: control_change channel=12 control=10 value=113 time=0.004687500000000001
EXTRACT: control_change channel=12 control=10 value=109 time=0.0390625
EXTRACT: control_change channel=12 control=10 value=105 time=0.0390625
EXTRACT: note_on channel=12 note=66 velocity=0 time=0.0390625
EXTRACT: control_change channel=12 control=10 value=101 time=0
EXTRACT: note_on channel=11 note=78 velocity=0 time=0.0078125
EXTRACT: note_on channel=11 note=66 velocity=0 time=0
EXTRACT: note_on channel=4 note=57 velocity=0 time=0.015625
EXTRACT: note_on channel=4 note=62 velocity=0 time=0
EXTRACT: note_on channel=3 note=74 velocity=0 time=0.0078125
EXTRACT: note_on channel=11 note=68 velocity=83 time=0.010937500000000001
EXTRACT: note_on channel=4 note=62 velocity=76 time=0.003125
EXTRACT: note_on channel=4 note=57 velocity=76 time=0.0078125
EXTRACT: note_on channel=9 note=35 velocity=115 time=0.0015625
EXTRACT: note_on channel=9 note=36 velocity=115 time=0
EXTRACT: note_on channel=2 note=52 velocity=73 time=0.004687500000000001
EXTRACT: note_on channel=11 note=80 velocity=87 time=0.0015625
EXTRACT: note_on channel=3 note=73 velocity=74 time=0.004687500000000001
EXTRACT: note_on channel=12 note=68 velocity=69 time=0
EXTRACT: control_change channel=12 control=10 value=93 time=0.0125
EXTRACT: note_on channel=9 note=36 velocity=0 time=0.004687500000000001
EXTRACT: note_on channel=9 note=35 velocity=0 time=0
EXTRACT: control_change channel=12 control=10 value=89 time=0.034375
EXTRACT: control_change channel=12 control=10 value=85 time=0.0390625
EXTRACT: note_on channel=12 note=68 velocity=0 time=0.03125
EXTRACT: note_on channel=11 note=80 velocity=0 time=0.0078125
EXTRACT: note_on channel=11 note=68 velocity=0 time=0
EXTRACT: control_change channel=12 control=10 value=81 time=0
EXTRACT: note_on channel=2 note=54 velocity=0 time=0.015625
EXTRACT: note_on channel=12 note=69 velocity=72 time=0.0234375
EXTRACT: control_change channel=12 control=10 value=77 time=0
EXTRACT: note_on channel=2 note=54 velocity=86 time=0.003125
EXTRACT: note_on channel=9 note=39 velocity=117 time=0.0078125
EXTRACT: note_on channel=11 note=69 velocity=83 time=0.003125
EXTRACT: note_on channel=11 note=81 velocity=83 time=0.003125
EXTRACT: note_on channel=9 note=39 velocity=0 time=0.021875000000000002
EXTRACT: control_change channel=12 control=10 value=73 time=0
EXTRACT: control_change channel=12 control=10 value=69 time=0.0390625
EXTRACT: control_change channel=12 control=10 value=65 time=0.0390625
EXTRACT: note_on channel=12 note=69 velocity=0 time=0.0234375
EXTRACT: note_on channel=11 note=81 velocity=0 time=0.0078125
EXTRACT: note_on channel=11 note=69 velocity=0 time=0
EXTRACT: note_on channel=11 note=69 velocity=83 time=0.22187500000000002
EXTRACT: note_on channel=12 note=69 velocity=72 time=0.009375000000000001
EXTRACT: note_on channel=11 note=81 velocity=83 time=0.00625
EXTRACT: control_change channel=12 control=10 value=37 time=0.004687500000000001
EXTRACT: control_change channel=12 control=10 value=33 time=0.0390625
EXTRACT: control_change channel=12 control=10 value=29 time=0.0390625
EXTRACT: control_change channel=12 control=10 value=25 time=0.0390625
EXTRACT: note_on channel=12 note=69 velocity=0 time=0.0078125
EXTRACT: note_on channel=11 note=81 velocity=0 time=0.0078125
EXTRACT: note_on channel=11 note=69 velocity=0 time=0
EXTRACT: note_on channel=2 note=54 velocity=0 time=0.015625
EXTRACT: note_on channel=4 note=57 velocity=0 time=0
EXTRACT: note_on channel=4 note=62 velocity=0 time=0
EXTRACT: note_on channel=3 note=73 velocity=0 time=0.0078125
EXTRACT: note_on channel=4 note=52 velocity=84 time=0.0125
EXTRACT: note_on channel=3 note=76 velocity=86 time=0.018750000000000003
EXTRACT: note_on channel=2 note=54 velocity=70 time=0.0015625
EXTRACT: note_on channel=2 note=57 velocity=0 time=0.146875
EXTRACT: note_on channel=4 note=52 velocity=0 time=0
EXTRACT: note_on channel=3 note=76 velocity=0 time=0.0078125
EXTRACT: note_on channel=11 note=81 velocity=84 time=0.0203125
EXTRACT: note_on channel=12 note=69 velocity=70 time=0
EXTRACT: note_on channel=4 note=57 velocity=88 time=0.003125
EXTRACT: note_on channel=9 note=36 velocity=115 time=0
EXTRACT: note_on channel=11 note=69 velocity=85 time=0.0015625
EXTRACT: note_on channel=2 note=57 velocity=88 time=0.00625
EXTRACT: note_on channel=3 note=81 velocity=90 time=0.0015625
EXTRACT: control_change channel=12 control=10 value=31 time=0.0140625
EXTRACT: note_on channel=9 note=36 velocity=0 time=0.004687500000000001
EXTRACT: control_change channel=12 control=10 value=35 time=0.034375
EXTRACT: control_change channel=12 control=10 value=39 time=0.0390625
EXTRACT: note_on channel=12 note=69 velocity=0 time=0.03125
EXTRACT: note_on channel=11 note=69 velocity=0 time=0.0078125
EXTRACT: note_on channel=11 note=81 velocity=0 time=0
EXTRACT: control_change channel=12 control=10 value=43 time=0
EXTRACT: note_on channel=4 note=57 velocity=0 time=0.015625
EXTRACT: note_on channel=3 note=81 velocity=0 time=0.0078125
EXTRACT: note_on channel=3 note=81 velocity=72 time=0.010937500000000001
EXTRACT: note_on channel=4 note=57 velocity=74 time=0.010937500000000001
EXTRACT: note_on channel=3 note=81 velocity=0 time=0.07968750000000001
EXTRACT: note_on channel=4 note=57 velocity=0 time=0.078125
EXTRACT: note_on channel=11 note=76 velocity=85 time=0.0234375
EXTRACT: note_on channel=11 note=64 velocity=84 time=0.0015625
EXTRACT: note_on channel=4 note=57 velocity=79 time=0.003125
EXTRACT: control_change channel=12 control=10 value=67 time=0.003125
EXTRACT: note_on channel=3 note=81 velocity=78 time=0.004687500000000001
EXTRACT: note_on channel=12 note=64 velocity=71 time=0
EXTRACT: control_change channel=12 control=10 value=71 time=0.034375
EXTRACT: control_change channel=12 control=10 value=75 time=0.0390625
EXTRACT: control_change channel=12 control=10 value=79 time=0.0390625
EXTRACT: note_on channel=12 note=64 velocity=0 time=0.015625
EXTRACT: note_on channel=11 note=64 velocity=0 time=0.0078125
EXTRACT: note_on channel=11 note=76 velocity=0 time=0
EXTRACT: note_on channel=4 note=57 velocity=0 time=0.015625
EXTRACT: note_on channel=3 note=81 velocity=0 time=0.0078125
EXTRACT: note_on channel=9 note=35 velocity=115 time=0.0234375
EXTRACT: note_on channel=9 note=36 velocity=115 time=0
EXTRACT: note_on channel=9 note=36 velocity=0 time=0.028125
EXTRACT: note_on channel=9 note=35 velocity=0 time=0
EXTRACT: note_on channel=9 note=39 velocity=116 time=0.1484375
EXTRACT: note_on channel=2 note=62 velocity=67 time=0.0078125
EXTRACT: note_on channel=3 note=81 velocity=87 time=0
EXTRACT: note_on channel=11 note=69 velocity=85 time=0
EXTRACT: note_on channel=4 note=57 velocity=85 time=0.0125
EXTRACT: note_on channel=12 note=69 velocity=71 time=0
EXTRACT: note_on channel=11 note=81 velocity=84 time=0.003125
EXTRACT: control_change channel=12 control=10 value=107 time=0.003125
EXTRACT: note_on channel=9 note=39 velocity=0 time=0.0015625
EXTRACT: control_change channel=12 control=10 value=111 time=0.037500000000000006
EXTRACT: control_change channel=12 control=10 value=115 time=0.0390625
EXTRACT: note_on channel=12 note=69 velocity=0 time=0.0390625
EXTRACT: control_change channel=12 control=10 value=119 time=0
EXTRACT: note_on channel=11 note=81 velocity=0 time=0.0078125
EXTRACT: note_on channel=11 note=69 velocity=0 time=0
EXTRACT: note_on channel=11 note=83 velocity=83 time=0.040625
EXTRACT: note_on channel=9 note=35 velocity=115 time=0.00625
EXTRACT: note_on channel=9 note=36 velocity=115 time=0
EXTRACT: note_on channel=12 note=71 velocity=72 time=0.0015625
EXTRACT: note_on channel=11 note=71 velocity=87 time=0.003125
EXTRACT: control_change channel=12 control=10 value=121 time=0.018750000000000003
EXTRACT: note_on channel=9 note=36 velocity=0 time=0.004687500000000001
EXTRACT: note_on channel=9 note=35 velocity=0 time=0
EXTRACT: control_change channel=12 control=10 value=117 time=0.034375
EXTRACT: control_change channel=12 control=10 value=113 time=0.0390625
EXTRACT: note_on channel=12 note=71 velocity=0 time=0.03125
EXTRACT: note_on channel=11 note=71 velocity=0 time=0.0078125
EXTRACT: note_on channel=11 note=83 velocity=0 time=0
EXTRACT: control_change channel=12 control=10 value=109 time=0
EXTRACT: note_on channel=2 note=62 velocity=0 time=0.015625
EXTRACT: note_on channel=4 note=57 velocity=0 time=0
EXTRACT: note_on channel=3 note=81 velocity=0 time=0.0078125
EXTRACT: note_on channel=3 note=80 velocity=78 time=0.0140625
EXTRACT: note_on channel=11 note=85 velocity=84 time=0.004687500000000001
EXTRACT: note_on channel=11 note=73 velocity=86 time=0.003125
EXTRACT: note_on channel=9 note=35 velocity=115 time=0.0015625
EXTRACT: note_on channel=9 note=36 velocity=115 time=0
EXTRACT: note_on channel=4 note=56 velocity=76 time=0.003125
EXTRACT: note_on channel=2 note=62 velocity=78 time=0.0015625
EXTRACT: note_on channel=12 note=73 velocity=72 time=0.00625
EXTRACT: note_on channel=9 note=36 velocity=0 time=0.0171875
EXTRACT: note_on channel=9 note=35 velocity=0 time=0
EXTRACT: control_change channel=12 control=10 value=101 time=0.003125
EXTRACT: control_change channel=12 control=10 value=97 time=0.0390625
EXTRACT: control_change channel=12 control=10 value=93 time=0.0390625
EXTRACT: note_on channel=12 note=73 velocity=0 time=0.0234375
EXTRACT: note_on channel=11 note=73 velocity=0 time=0.0078125
EXTRACT: note_on channel=11 note=85 velocity=0 time=0
EXTRACT: note_on channel=4 note=56 velocity=0 time=0.015625
EXTRACT: note_on channel=3 note=80 velocity=0 time=0.0078125
EXTRACT: note_on channel=11 note=71 velocity=85 time=0.018750000000000003
EXTRACT: note_on channel=3 note=81 velocity=79 time=0.0015625
EXTRACT: note_on channel=12 note=71 velocity=72 time=0
EXTRACT: note_on channel=9 note=36 velocity=115 time=0.003125
EXTRACT: control_change channel=12 control=10 value=85 time=0
EXTRACT: note_on channel=11 note=83 velocity=85 time=0.0078125
EXTRACT: note_on channel=2 note=61 velocity=79 time=0.0015625
EXTRACT: note_on channel=4 note=57 velocity=78 time=0
EXTRACT: note_on channel=9 note=36 velocity=0 time=0.018750000000000003
EXTRACT: control_change channel=12 control=10 value=81 time=0.010937500000000001
EXTRACT: control_change channel=12 control=10 value=77 time=0.0390625
EXTRACT: control_change channel=12 control=10 value=73 time=0.0390625
EXTRACT: note_on channel=12 note=71 velocity=0 time=0.015625
EXTRACT: note_on channel=11 note=83 velocity=0 time=0.0078125
EXTRACT: note_on channel=11 note=71 velocity=0 time=0
EXTRACT: note_on channel=1 note=38 velocity=0 time=0.0078125
EXTRACT: note_on channel=2 note=61 velocity=0 time=0.0078125
EXTRACT: note_on channel=2 note=38 velocity=0 time=0
EXTRACT: note_on channel=2 note=57 velocity=0 time=0
EXTRACT: note_on channel=2 note=54 velocity=0 time=0
EXTRACT: note_on channel=2 note=50 velocity=0 time=0
EXTRACT: note_on channel=2 note=62 velocity=0 time=0
EXTRACT: note_on channel=2 note=52 velocity=0 time=0
EXTRACT: note_on channel=6 note=54 velocity=0 time=0
EXTRACT: note_on channel=7 note=50 velocity=0 time=0
EXTRACT: note_on channel=7 note=66 velocity=0 time=0
EXTRACT: note_on channel=7 note=62 velocity=0 time=0
EXTRACT: note_on channel=8 note=57 velocity=0 time=0
EXTRACT: note_on channel=8 note=54 velocity=0 time=0
EXTRACT: note_on channel=8 note=38 velocity=0 time=0
EXTRACT: note_on channel=8 note=50 velocity=0 time=0
EXTRACT: note_on channel=7 note=69 velocity=60 time=0.018750000000000003
EXTRACT: note_on channel=2 note=61 velocity=89 time=0.0015625
EXTRACT: note_on channel=2 note=45 velocity=90 time=0.0015625
EXTRACT: note_on channel=1 note=33 velocity=77 time=0.003125
EXTRACT: note_on channel=8 note=45 velocity=61 time=0.0015625
EXTRACT: note_on channel=8 note=52 velocity=60 time=0.0015625
EXTRACT: note_on channel=11 note=73 velocity=87 time=0.0015625
EXTRACT: note_on channel=9 note=36 velocity=115 time=0.0015625
EXTRACT: note_on channel=10 note=60 velocity=115 time=0
EXTRACT: note_on channel=2 note=57 velocity=92 time=0.003125
EXTRACT: note_on channel=11 note=85 velocity=83 time=0
EXTRACT: note_on channel=12 note=73 velocity=68 time=0
EXTRACT: note_on channel=7 note=57 velocity=62 time=0.0015625
EXTRACT: note_on channel=7 note=73 velocity=58 time=0
EXTRACT: note_on channel=8 note=57 velocity=61 time=0
EXTRACT: note_on channel=6 note=57 velocity=73 time=0.003125
EXTRACT: control_change channel=12 control=10 value=65 time=0
EXTRACT: note_on channel=2 note=52 velocity=93 time=0.004687500000000001
EXTRACT: note_on channel=8 note=61 velocity=60 time=0
EXTRACT: note_on channel=9 note=36 velocity=0 time=0.015625
EXTRACT: note_on channel=10 note=60 velocity=0 time=0
EXTRACT: control_change channel=12 control=10 value=61 time=0.018750000000000003
EXTRACT: control_change channel=12 control=10 value=57 time=0.0390625
EXTRACT: control_change channel=12 control=10 value=53 time=0.0390625
EXTRACT: note_on channel=12 note=73 velocity=0 time=0.0078125
EXTRACT: note_on channel=11 note=85 velocity=0 time=0.0078125
EXTRACT: note_on channel=11 note=73 velocity=0 time=0
EXTRACT: note_on channel=2 note=57 velocity=0 time=0.203125
EXTRACT: note_on channel=5 note=68 velocity=77 time=0.028125
EXTRACT: note_on channel=2 note=57 velocity=76 time=0.00625
EXTRACT: note_on channel=11 note=69 velocity=85 time=0
EXTRACT: note_on channel=11 note=81 velocity=87 time=0.0015625
EXTRACT: note_on channel=12 note=69 velocity=72 time=0.0078125
EXTRACT: control_change channel=12 control=10 value=25 time=0.010937500000000001
EXTRACT: control_change channel=12 control=10 value=21 time=0.0390625
EXTRACT: control_change channel=12 control=10 value=17 time=0.0390625
EXTRACT: note_on channel=12 note=69 velocity=0 time=0.03125
EXTRACT: note_on channel=11 note=81 velocity=0 time=0.0078125
EXTRACT: note_on channel=11 note=69 velocity=0 time=0
EXTRACT: control_change channel=12 control=10 value=15 time=0
EXTRACT: note_on channel=5 note=68 velocity=0 time=0.015625
EXTRACT: note_on channel=12 note=71 velocity=71 time=0.026562500000000003
EXTRACT: note_on channel=5 note=69 velocity=77 time=0.004687500000000001
EXTRACT: note_on channel=11 note=83 velocity=87 time=0.0015625
EXTRACT: note_on channel=2 note=59 velocity=78 time=0.0015625
EXTRACT: note_on channel=11 note=71 velocity=84 time=0.0015625
EXTRACT: control_change channel=12 control=10 value=23 time=0.026562500000000003
EXTRACT: control_change channel=12 control=10 value=27 time=0.0390625
EXTRACT: control_change channel=12 control=10 value=31 time=0.0390625
EXTRACT: note_on channel=12 note=71 velocity=0 time=0.0234375
EXTRACT: note_on channel=11 note=71 velocity=0 time=0.0078125
EXTRACT: note_on channel=11 note=83 velocity=0 time=0
EXTRACT: note_on channel=2 note=61 velocity=0 time=0.015625
EXTRACT: note_on channel=2 note=61 velocity=89 time=0.0203125
EXTRACT: note_on channel=11 note=85 velocity=85 time=0.004687500000000001
EXTRACT: note_on channel=11 note=73 velocity=86 time=0.0015625
EXTRACT: note_on channel=12 note=73 velocity=70 time=0
EXTRACT: control_change channel=12 control=10 value=39 time=0.004687500000000001
EXTRACT: note_on channel=9 note=39 velocity=116 time=0.004687500000000001
EXTRACT: note_on channel=9 note=39 velocity=0 time=0.028125
EXTRACT: control_change channel=12 control=10 value=43 time=0.00625
EXTRACT: control_change channel=12 control=10 value=47 time=0.0390625
EXTRACT: control_change channel=12 control=10 value=51 time=0.0390625
EXTRACT: note_on channel=12 note=73 velocity=0 time=0.015625
EXTRACT: note_on channel=11 note=73 velocity=0 time=0.0078125
EXTRACT: note_on channel=11 note=85 velocity=0 time=0
EXTRACT: note_on channel=2 note=52 velocity=0 time=0.015625
EXTRACT: note_on channel=4 note=57 velocity=0 time=0
EXTRACT: note_on channel=3 note=81 velocity=0 time=0.0078125
EXTRACT: note_on channel=2 note=52 velocity=57 time=0.025
EXTRACT: note_on channel=2 note=57 velocity=0 time=0.1546875
EXTRACT: note_on channel=11 note=85 velocity=84 time=0.03125
EXTRACT: note_on channel=2 note=57 velocity=78 time=0.003125
EXTRACT: note_on channel=12 note=73 velocity=71 time=0
EXTRACT: note_on channel=11 note=73 velocity=86 time=0.0015625
EXTRACT: control_change channel=12 control=10 value=79 time=0.010937500000000001
EXTRACT: control_change channel=12 control=10 value=83 time=0.0390625
EXTRACT: control_change channel=12 control=10 value=87 time=0.0390625
EXTRACT: note_on channel=12 note=73 velocity=0 time=0.0390625
EXTRACT: control_change channel=12 control=10 value=91 time=0
EXTRACT: note_on channel=11 note=73 velocity=0 time=0.0078125
EXTRACT: note_on channel=11 note=85 velocity=0 time=0
EXTRACT: note_on channel=2 note=59 velocity=0 time=0.015625
EXTRACT: note_on channel=2 note=59 velocity=83 time=0.025
EXTRACT: note_on channel=4 note=52 velocity=83 time=0.0125
EXTRACT: note_on channel=3 note=76 velocity=86 time=0.004687500000000001
EXTRACT: note_on channel=2 note=61 velocity=0 time=0.1453125
EXTRACT: note_on channel=4 note=52 velocity=0 time=0
EXTRACT: note_on channel=3 note=76 velocity=0 time=0.0078125
EXTRACT: note_on channel=4 note=69 velocity=85 time=0.0125
EXTRACT: note_on channel=2 note=61 velocity=85 time=0.00625
EXTRACT: note_on channel=9 note=36 velocity=115 time=0.004687500000000001
EXTRACT: note_on channel=11 note=85 velocity=85 time=0.0015625
EXTRACT: note_on channel=12 note=73 velocity=69 time=0.0015625
EXTRACT: note_on channel=4 note=73 velocity=88 time=0.0015625
EXTRACT: note_on channel=4 note=64 velocity=88 time=0.0015625
EXTRACT: note_on channel=11 note=73 velocity=87 time=0.0015625
EXTRACT: note_on channel=3 note=81 velocity=85 time=0.0015625
EXTRACT: note_on channel=9 note=36 velocity=0 time=0.018750000000000003
EXTRACT: control_change channel=12 control=10 value=119 time=0.003125
EXTRACT: control_change channel=12 control=10 value=123 time=0.0390625
EXTRACT: control_change channel=12 control=10 value=121 time=0.0390625
EXTRACT: note_on channel=12 note=73 velocity=0 time=0.0234375
EXTRACT: note_on channel=11 note=73 velocity=0 time=0.0078125
EXTRACT: note_on channel=11 note=85 velocity=0 time=0
EXTRACT: note_on channel=2 note=59 velocity=0 time=0.015625
EXTRACT: note_on channel=4 note=64 velocity=0 time=0
EXTRACT: note_on channel=4 note=73 velocity=0 time=0
EXTRACT: note_on channel=4 note=69 velocity=0 time=0
EXTRACT: note_on channel=5 note=69 velocity=0 time=0
EXTRACT: note_on channel=3 note=81 velocity=0 time=0.0078125
EXTRACT: note_on channel=4 note=64 velocity=73 time=0.015625
EXTRACT: note_on channel=4 note=73 velocity=74 time=0.003125
EXTRACT: note_on channel=2 note=59 velocity=74 time=0.0015625
EXTRACT: note_on channel=3 note=81 velocity=75 time=0.009375000000000001
EXTRACT: note_on channel=4 note=69 velocity=75 time=0.0015625
EXTRACT: note_on channel=3 note=81 velocity=0 time=0.0703125
EXTRACT: note_on channel=2 note=57 velocity=0 time=0.078125
EXTRACT: note_on channel=4 note=69 velocity=0 time=0
EXTRACT: note_on channel=4 note=73 velocity=0 time=0
EXTRACT: note_on channel=4 note=64 velocity=0 time=0
EXTRACT: note_on channel=4 note=64 velocity=81 time=0.0234375
EXTRACT: note_on channel=11 note=85 velocity=84 time=0.004687500000000001
EXTRACT: note_on channel=12 note=73 velocity=72 time=0.0015625
EXTRACT: note_on channel=9 note=35 velocity=115 time=0.0015625
EXTRACT: note_on channel=9 note=36 velocity=115 time=0
EXTRACT: note_on channel=11 note=73 velocity=85 time=0
EXTRACT: note_on channel=4 note=69 velocity=80 time=0.0015625
EXTRACT: note_on channel=4 note=73 velocity=79 time=0.0015625
EXTRACT: note_on channel=2 note=57 velocity=77 time=0.0015625
EXTRACT: note_on channel=3 note=81 velocity=80 time=0
EXTRACT: control_change channel=12 control=10 value=93 time=0.003125
EXTRACT: note_on channel=9 note=36 velocity=0 time=0.0203125
EXTRACT: note_on channel=9 note=35 velocity=0 time=0
EXTRACT: control_change channel=12 control=10 value=89 time=0.018750000000000003
EXTRACT: note_on channel=3 note=81 velocity=0 time=0.03125
EXTRACT: control_change channel=12 control=10 value=85 time=0.0078125
EXTRACT: control_change channel=12 control=10 value=81 time=0.0390625
EXTRACT: note_on channel=12 note=73 velocity=0 time=0.0078125
EXTRACT: note_on channel=11 note=73 velocity=0 time=0.0078125
EXTRACT: note_on channel=11 note=85 velocity=0 time=0
EXTRACT: note_on channel=2 note=59 velocity=0 time=0.015625
EXTRACT: note_on channel=4 note=73 velocity=0 time=0
EXTRACT: note_on channel=4 note=69 velocity=0 time=0
EXTRACT: note_on channel=4 note=64 velocity=0 time=0
EXTRACT: note_on channel=4 note=69 velocity=80 time=0.018750000000000003
EXTRACT: note_on channel=2 note=59 velocity=77 time=0.003125
EXTRACT: note_on channel=3 note=81 velocity=80 time=0.010937500000000001
EXTRACT: note_on channel=4 note=64 velocity=81 time=0.003125
EXTRACT: note_on channel=4 note=73 velocity=77 time=0.0015625
EXTRACT: note_on channel=3 note=81 velocity=0 time=0.07187500000000001
EXTRACT: note_on channel=2 note=61 velocity=0 time=0.078125
EXTRACT: note_on channel=2 note=52 velocity=0 time=0
EXTRACT: note_on channel=2 note=45 velocity=0 time=0
EXTRACT: note_on channel=4 note=73 velocity=0 time=0
EXTRACT: note_on channel=4 note=64 velocity=0 time=0
EXTRACT: note_on channel=4 note=69 velocity=0 time=0
EXTRACT: note_on channel=11 note=73 velocity=87 time=0.0203125
EXTRACT: note_on channel=2 note=52 velocity=92 time=0.0015625
EXTRACT: note_on channel=4 note=73 velocity=90 time=0
EXTRACT: note_on channel=2 note=45 velocity=93 time=0.00625
EXTRACT: note_on channel=3 note=81 velocity=90 time=0
EXTRACT: note_on channel=9 note=39 velocity=114 time=0.0015625
EXTRACT: note_on channel=2 note=61 velocity=89 time=0.004687500000000001
EXTRACT: note_on channel=11 note=85 velocity=85 time=0
EXTRACT: note_on channel=4 note=64 velocity=93 time=0.0078125
EXTRACT: note_on channel=4 note=69 velocity=91 time=0.0015625
EXTRACT: note_on channel=12 note=73 velocity=70 time=0
EXTRACT: control_change channel=12 control=10 value=53 time=0.010937500000000001
EXTRACT: note_on channel=9 note=39 velocity=0 time=0.003125
EXTRACT: control_change channel=12 control=10 value=49 time=0.035937500000000004
EXTRACT: control_change channel=12 control=10 value=45 time=0.0390625
EXTRACT: note_on channel=12 note=73 velocity=0 time=0.03125
EXTRACT: note_on channel=11 note=85 velocity=0 time=0.0078125
EXTRACT: note_on channel=11 note=73 velocity=0 time=0
EXTRACT: control_change channel=12 control=10 value=41 time=0
EXTRACT: note_on channel=2 note=59 velocity=0 time=0.015625
EXTRACT: note_on channel=9 note=35 velocity=115 time=0.03125
EXTRACT: note_on channel=9 note=36 velocity=115 time=0
EXTRACT: note_on channel=2 note=59 velocity=74 time=0.004687500000000001
EXTRACT: note_on channel=9 note=36 velocity=0 time=0.0234375
EXTRACT: note_on channel=9 note=35 velocity=0 time=0
EXTRACT: note_on channel=2 note=57 velocity=0 time=0.12812500000000002
EXTRACT: note_on channel=4 note=69 velocity=0 time=0
EXTRACT: note_on channel=4 note=64 velocity=0 time=0
EXTRACT: note_on channel=4 note=73 velocity=0 time=0
EXTRACT: note_on channel=3 note=81 velocity=0 time=0.0078125
EXTRACT: note_on channel=4 note=64 velocity=79 time=0.010937500000000001
EXTRACT: note_on channel=11 note=71 velocity=83 time=0.004687500000000001
EXTRACT: note_on channel=11 note=83 velocity=83 time=0.0015625
EXTRACT: note_on channel=3 note=81 velocity=79 time=0.0015625
EXTRACT: note_on channel=4 note=69 velocity=77 time=0.004687500000000001
EXTRACT: note_on channel=4 note=73 velocity=79 time=0.009375000000000001
EXTRACT: note_on channel=2 note=57 velocity=79 time=0.003125
EXTRACT: note_on channel=12 note=71 velocity=72 time=0
EXTRACT: control_change channel=12 control=10 value=15 time=0.026562500000000003
EXTRACT: note_on channel=3 note=81 velocity=0 time=0.0390625
EXTRACT: control_change channel=12 control=10 value=19 time=0
EXTRACT: control_change channel=12 control=10 value=23 time=0.0390625
EXTRACT: note_on channel=12 note=71 velocity=0 time=0.015625
EXTRACT: note_on channel=11 note=83 velocity=0 time=0.0078125
EXTRACT: note_on channel=11 note=71 velocity=0 time=0
EXTRACT: note_on channel=4 note=73 velocity=0 time=0.015625
EXTRACT: note_on channel=4 note=69 velocity=0 time=0
EXTRACT: note_on channel=4 note=64 velocity=0 time=0
EXTRACT: note_on channel=4 note=74 velocity=76 time=0.025
EXTRACT: note_on channel=12 note=73 velocity=72 time=0.0015625
EXTRACT: note_on channel=11 note=85 velocity=86 time=0.003125
EXTRACT: note_on channel=2 note=56 velocity=75 time=0.003125
EXTRACT: note_on channel=3 note=83 velocity=76 time=0.0015625
EXTRACT: note_on channel=11 note=73 velocity=84 time=0
EXTRACT: note_on channel=4 note=71 velocity=75 time=0.0015625
EXTRACT: note_on channel=4 note=66 velocity=77 time=0.0015625
EXTRACT: control_change channel=12 control=10 value=31 time=0.0015625
EXTRACT: control_change channel=12 control=10 value=35 time=0.0390625
EXTRACT: control_change channel=12 control=10 value=39 time=0.0390625
EXTRACT: control_change channel=12 control=10 value=43 time=0.0390625
EXTRACT: note_on channel=12 note=73 velocity=0 time=0.0078125
EXTRACT: note_on channel=11 note=73 velocity=0 time=0.0078125
EXTRACT: note_on channel=11 note=85 velocity=0 time=0
EXTRACT: note_on channel=1 note=33 velocity=0 time=0.0078125
EXTRACT: note_on channel=2 note=56 velocity=0 time=0.0078125
EXTRACT: note_on channel=2 note=52 velocity=0 time=0
EXTRACT: note_on channel=2 note=59 velocity=0 time=0
EXTRACT: note_on channel=2 note=45 velocity=0 time=0
EXTRACT: note_on channel=2 note=57 velocity=0 time=0
EXTRACT: note_on channel=2 note=61 velocity=0 time=0
EXTRACT: note_on channel=6 note=57 velocity=0 time=0
EXTRACT: note_on channel=7 note=73 velocity=0 time=0
EXTRACT: note_on channel=7 note=57 velocity=0 time=0
EXTRACT: note_on channel=7 note=69 velocity=0 time=0
EXTRACT: note_on channel=8 note=61 velocity=0 time=0
EXTRACT: note_on channel=8 note=45 velocity=0 time=0
EXTRACT: note_on channel=8 note=52 velocity=0 time=0
EXTRACT: note_on channel=8 note=57 velocity=0 time=0
EXTRACT: note_on channel=12 note=71 velocity=68 time=0.018750000000000003
EXTRACT: note_on channel=2 note=47 velocity=93 time=0.0015625
EXTRACT: note_on channel=7 note=71 velocity=62 time=0.0015625
EXTRACT: note_on channel=2 note=62 velocity=90 time=0.003125
EXTRACT: note_on channel=2 note=59 velocity=90 time=0.0015625
EXTRACT: note_on channel=1 note=35 velocity=77 time=0.0015625
EXTRACT: note_on channel=8 note=59 velocity=62 time=0
EXTRACT: note_on channel=9 note=35 velocity=115 time=0.003125
EXTRACT: note_on channel=9 note=36 velocity=115 time=0
EXTRACT: note_on channel=11 note=71 velocity=83 time=0
EXTRACT: note_on channel=2 note=54 velocity=93 time=0.003125
EXTRACT: note_on channel=6 note=59 velocity=77 time=0
EXTRACT: note_on channel=8 note=50 velocity=61 time=0.0015625
EXTRACT: note_on channel=8 note=54 velocity=58 time=0
EXTRACT: note_on channel=7 note=74 velocity=59 time=0.0015625
EXTRACT: note_on channel=7 note=59 velocity=58 time=0.0015625
EXTRACT: note_on channel=8 note=47 velocity=58 time=0.0015625
EXTRACT: note_on channel=11 note=83 velocity=87 time=0.0015625
EXTRACT: control_change channel=12 control=10 value=51 time=0.004687500000000001
EXTRACT: note_on channel=9 note=36 velocity=0 time=0.0125
EXTRACT: note_on channel=9 note=35 velocity=0 time=0
EXTRACT: control_change channel=12 control=10 value=55 time=0.026562500000000003
EXTRACT: control_change channel=12 control=10 value=59 time=0.0390625
EXTRACT: note_on channel=12 note=71 velocity=0 time=0.0390625
EXTRACT: control_change channel=12 control=10 value=63 time=0
EXTRACT: note_on channel=11 note=83 velocity=0 time=0.0078125
EXTRACT: note_on channel=11 note=71 velocity=0 time=0
EXTRACT: note_on channel=2 note=59 velocity=0 time=0.203125
EXTRACT: note_on channel=2 note=59 velocity=78 time=0.0203125
EXTRACT: note_on channel=11 note=71 velocity=84 time=0.0015625
EXTRACT: note_on channel=12 note=71 velocity=68 time=0.0015625
EXTRACT: control_change channel=12 control=10 value=87 time=0
EXTRACT: note_on channel=5 note=69 velocity=79 time=0.0125
EXTRACT: note_on channel=11 note=83 velocity=84 time=0.0078125
EXTRACT: control_change channel=12 control=10 value=91 time=0.018750000000000003
EXTRACT: control_change channel=12 control=10 value=95 time=0.0390625
EXTRACT: control_change channel=12 control=10 value=99 time=0.0390625
EXTRACT: note_on channel=12 note=71 velocity=0 time=0.0234375
EXTRACT: note_on channel=11 note=83 velocity=0 time=0.0078125
EXTRACT: note_on channel=11 note=71 velocity=0 time=0
EXTRACT: note_on channel=5 note=69 velocity=0 time=0.015625
EXTRACT: note_on channel=5 note=71 velocity=74 time=0.025
EXTRACT: note_on channel=2 note=61 velocity=77 time=0.003125
EXTRACT: note_on channel=11 note=73 velocity=86 time=0
EXTRACT: note_on channel=9 note=35 velocity=115 time=0.003125
EXTRACT: note_on channel=9 note=36 velocity=115 time=0
EXTRACT: control_change channel=12 control=10 value=107 time=0
EXTRACT: note_on channel=11 note=85 velocity=87 time=0.004687500000000001
EXTRACT: note_on channel=12 note=73 velocity=72 time=0
EXTRACT: note_on channel=9 note=36 velocity=0 time=0.0234375
EXTRACT: note_on channel=9 note=35 velocity=0 time=0
EXTRACT: control_change channel=12 control=10 value=111 time=0.010937500000000001
EXTRACT: control_change channel=12 control=10 value=115 time=0.0390625
EXTRACT: control_change channel=12 control=10 value=119 time=0.0390625
EXTRACT: note_on channel=12 note=73 velocity=0 time=0.015625
EXTRACT: note_on channel=11 note=85 velocity=0 time=0.0078125
EXTRACT: note_on channel=11 note=73 velocity=0 time=0
EXTRACT: note_on channel=2 note=62 velocity=0 time=0.015625
EXTRACT: note_on channel=4 note=66 velocity=0 time=0
EXTRACT: note_on channel=4 note=71 velocity=0 time=0
EXTRACT: note_on channel=4 note=74 velocity=0 time=0
EXTRACT: note_on channel=3 note=83 velocity=0 time=0.0078125
EXTRACT: note_on channel=9 note=39 velocity=114 time=0.0125
EXTRACT: note_on channel=11 note=74 velocity=84 time=0.003125
EXTRACT: note_on channel=2 note=62 velocity=89 time=0.004687500000000001
EXTRACT: note_on channel=12 note=74 velocity=71 time=0.004687500000000001
EXTRACT: control_change channel=12 control=10 value=121 time=0.00625
EXTRACT: note_on channel=11 note=86 velocity=84 time=0.0015625
EXTRACT: note_on channel=9 note=39 velocity=0 time=0.0078125
EXTRACT: control_change channel=12 control=10 value=117 time=0.029687500000000002
EXTRACT: control_change channel=12 control=10 value=113 time=0.0390625
EXTRACT: control_change channel=12 control=10 value=109 time=0.0390625
EXTRACT: note_on channel=12 note=74 velocity=0 time=0.0078125
EXTRACT: note_on channel=11 note=86 velocity=0 time=0.0078125
EXTRACT: note_on channel=11 note=74 velocity=0 time=0
EXTRACT: note_on channel=2 note=61 velocity=0 time=0.015625
EXTRACT: note_on channel=2 note=61 velocity=73 time=0.037500000000000006
EXTRACT: note_on channel=2 note=59 velocity=0 time=0.15000000000000002
EXTRACT: note_on channel=11 note=86 velocity=85 time=0.0203125
EXTRACT: note_on channel=12 note=74 velocity=68 time=0.003125
EXTRACT: note_on channel=11 note=74 velocity=83 time=0.004687500000000001
EXTRACT: note_on channel=2 note=59 velocity=80 time=0.015625
EXTRACT: control_change channel=12 control=10 value=81 time=0.010937500000000001
EXTRACT: control_change channel=12 control=10 value=77 time=0.0390625
EXTRACT: control_change channel=12 control=10 value=73 time=0.0390625
EXTRACT: note_on channel=12 note=74 velocity=0 time=0.03125
EXTRACT: note_on channel=11 note=74 velocity=0 time=0.0078125
EXTRACT: note_on channel=11 note=86 velocity=0 time=0
EXTRACT: control_change channel=12 control=10 value=69 time=0
EXTRACT: note_on channel=2 note=61 velocity=0 time=0.015625
EXTRACT: note_on channel=2 note=61 velocity=87 time=0.021875000000000002
EXTRACT: note_on channel=4 note=69 velocity=86 time=0.0078125
EXTRACT: note_on channel=4 note=73 velocity=83 time=0.004687500000000001
EXTRACT: note_on channel=4 note=64 velocity=87 time=0.00625
EXTRACT: note_on channel=3 note=81 velocity=85 time=0.0015625
EXTRACT: note_on channel=3 note=81 velocity=0 time=0.0671875
EXTRACT: note_on channel=2 note=62 velocity=0 time=0.078125
EXTRACT: note_on channel=4 note=64 velocity=0 time=0
EXTRACT: note_on channel=4 note=73 velocity=0 time=0
EXTRACT: note_on channel=4 note=69 velocity=0 time=0
EXTRACT: note_on channel=5 note=71 velocity=0 time=0
EXTRACT: note_on channel=3 note=83 velocity=87 time=0.0234375
EXTRACT: note_on channel=11 note=74 velocity=87 time=0.003125
EXTRACT: note_on channel=2 note=62 velocity=86 time=0.0015625
EXTRACT: note_on channel=9 note=36 velocity=115 time=0.003125
EXTRACT: note_on channel=11 note=86 velocity=84 time=0.003125
EXTRACT: note_on channel=4 note=71 velocity=90 time=0.0015625
EXTRACT: note_on channel=4 note=74 velocity=87 time=0.0015625
EXTRACT: note_on channel=4 note=66 velocity=90 time=0.004687500000000001
EXTRACT: note_on channel=12 note=74 velocity=71 time=0.0015625
EXTRACT: note_on channel=9 note=36 velocity=0 time=0.015625
EXTRACT: control_change channel=12 control=10 value=41 time=0.010937500000000001
EXTRACT: control_change channel=12 control=10 value=37 time=0.0390625
EXTRACT: control_change channel=12 control=10 value=33 time=0.0390625
EXTRACT: note_on channel=12 note=74 velocity=0 time=0.015625
EXTRACT: note_on channel=11 note=86 velocity=0 time=0.0078125
EXTRACT: note_on channel=11 note=74 velocity=0 time=0
EXTRACT: note_on channel=2 note=61 velocity=0 time=0.015625
EXTRACT: note_on channel=4 note=66 velocity=0 time=0
EXTRACT: note_on channel=4 note=74 velocity=0 time=0
EXTRACT: note_on channel=4 note=71 velocity=0 time=0
EXTRACT: note_on channel=3 note=83 velocity=0 time=0.0078125
EXTRACT: note_on channel=4 note=73 velocity=73 time=0.0125
EXTRACT: note_on channel=2 note=61 velocity=76 time=0.003125
EXTRACT: note_on channel=11 note=88 velocity=87 time=0.0078125
EXTRACT: note_on channel=11 note=76 velocity=87 time=0
EXTRACT: note_on channel=4 note=69 velocity=76 time=0.004687500000000001
EXTRACT: note_on channel=12 note=74 velocity=70 time=0
EXTRACT: note_on channel=3 note=81 velocity=72 time=0.003125
EXTRACT: note_on channel=4 note=64 velocity=75 time=0
EXTRACT: control_change channel=12 control=10 value=25 time=0
EXTRACT: control_change channel=12 control=10 value=21 time=0.0390625
EXTRACT: note_on channel=3 note=81 velocity=0 time=0.03125
EXTRACT: control_change channel=12 control=10 value=17 time=0.0078125
EXTRACT: control_change channel=12 control=10 value=15 time=0.0390625
EXTRACT: note_on channel=12 note=74 velocity=0 time=0.0078125
EXTRACT: note_on channel=11 note=76 velocity=0 time=0.0078125
EXTRACT: note_on channel=11 note=88 velocity=0 time=0
EXTRACT: note_on channel=2 note=59 velocity=0 time=0.015625
EXTRACT: note_on channel=4 note=64 velocity=0 time=0
EXTRACT: note_on channel=4 note=69 velocity=0 time=0
EXTRACT: note_on channel=4 note=73 velocity=0 time=0
EXTRACT: note_on channel=4 note=71 velocity=76 time=0.018750000000000003
EXTRACT: note_on channel=11 note=74 velocity=87 time=0
EXTRACT: note_on channel=4 note=66 velocity=80 time=0.00625
EXTRACT: note_on channel=11 note=86 velocity=84 time=0.0015625
EXTRACT: note_on channel=2 note=59 velocity=62 time=0.0078125
EXTRACT: note_on channel=4 note=74 velocity=79 time=0.004687500000000001
EXTRACT: note_on channel=3 note=83 velocity=77 time=0.003125
EXTRACT: note_on channel=12 note=74 velocity=69 time=0
EXTRACT: control_change channel=12 control=10 value=23 time=0.004687500000000001
EXTRACT: control_change channel=12 control=10 value=27 time=0.0390625
EXTRACT: control_change channel=12 control=10 value=31 time=0.0390625
EXTRACT: note_on channel=12 note=74 velocity=0 time=0.0390625
EXTRACT: control_change channel=12 control=10 value=35 time=0
EXTRACT: note_on channel=11 note=86 velocity=0 time=0.0078125
EXTRACT: note_on channel=11 note=74 velocity=0 time=0
EXTRACT: note_on channel=2 note=61 velocity=0 time=0.015625
EXTRACT: note_on channel=4 note=74 velocity=0 time=0
EXTRACT: note_on channel=4 note=66 velocity=0 time=0
EXTRACT: note_on channel=4 note=71 velocity=0 time=0
EXTRACT: note_on channel=3 note=83 velocity=0 time=0.0078125
EXTRACT: note_on channel=4 note=69 velocity=81 time=0.010937500000000001
EXTRACT: note_on channel=12 note=74 velocity=69 time=0.0015625
EXTRACT: note_on channel=2 note=61 velocity=81 time=0.00625
EXTRACT: note_on channel=3 note=81 velocity=79 time=0.0015625
EXTRACT: note_on channel=4 note=64 velocity=79 time=0
EXTRACT: note_on channel=4 note=73 velocity=81 time=0
EXTRACT: note_on channel=9 note=35 velocity=115 time=0.003125
EXTRACT: note_on channel=9 note=36 velocity=115 time=0
EXTRACT: control_change channel=12 control=10 value=43 time=0.0234375
EXTRACT: note_on channel=9 note=36 velocity=0 time=0.004687500000000001
EXTRACT: note_on channel=9 note=35 velocity=0 time=0
EXTRACT: control_change channel=12 control=10 value=47 time=0.034375
EXTRACT: note_on channel=3 note=81 velocity=0 time=0.015625
EXTRACT: control_change channel=12 control=10 value=51 time=0.0234375
EXTRACT: note_on channel=12 note=74 velocity=0 time=0.03125
EXTRACT: control_change channel=12 control=10 value=55 time=0.0078125
EXTRACT: note_on channel=2 note=62 velocity=0 time=0.015625
EXTRACT: note_on channel=4 note=73 velocity=0 time=0
EXTRACT: note_on channel=4 note=64 velocity=0 time=0
EXTRACT: note_on channel=4 note=69 velocity=0 time=0
EXTRACT: note_on channel=11 note=86 velocity=84 time=0.025
EXTRACT: note_on channel=4 note=76 velocity=86 time=0.0015625
EXTRACT: note_on channel=11 note=74 velocity=86 time=0.0015625
EXTRACT: note_on channel=9 note=39 velocity=113 time=0.00625
EXTRACT: note_on channel=4 note=73 velocity=86 time=0.0015625
EXTRACT: note_on channel=2 note=62 velocity=85 time=0.0015625
EXTRACT: note_on channel=12 note=74 velocity=71 time=0.003125
EXTRACT: note_on channel=3 note=85 velocity=85 time=0.0015625
EXTRACT: note_on channel=4 note=68 velocity=84 time=0
EXTRACT: note_on channel=9 note=39 velocity=0 time=0.0203125
EXTRACT: control_change channel=12 control=10 value=63 time=0
EXTRACT: control_change channel=12 control=10 value=67 time=0.0390625
EXTRACT: control_change channel=12 control=10 value=71 time=0.0390625
EXTRACT: note_on channel=12 note=74 velocity=0 time=0.0234375
EXTRACT: note_on channel=11 note=74 velocity=0 time=0.0078125
EXTRACT: note_on channel=11 note=86 velocity=0 time=0
EXTRACT: note_on channel=2 note=61 velocity=0 time=0.015625
EXTRACT: note_on channel=4 note=68 velocity=0 time=0
EXTRACT: note_on channel=4 note=73 velocity=0 time=0
EXTRACT: note_on channel=4 note=76 velocity=0 time=0
EXTRACT: note_on channel=3 note=85 velocity=0 time=0.0078125
EXTRACT: note_on channel=4 note=71 velocity=72 time=0.0203125
EXTRACT: note_on channel=9 note=35 velocity=115 time=0.003125
EXTRACT: note_on channel=9 note=36 velocity=115 time=0
EXTRACT: note_on channel=10 note=60 velocity=115 time=0
EXTRACT: note_on channel=2 note=61 velocity=76 time=0.0015625
EXTRACT: note_on channel=4 note=66 velocity=76 time=0.003125
EXTRACT: note_on channel=4 note=74 velocity=72 time=0
EXTRACT: note_on channel=3 note=83 velocity=72 time=0.004687500000000001
EXTRACT: note_on channel=9 note=36 velocity=0 time=0.018750000000000003
EXTRACT: note_on channel=9 note=35 velocity=0 time=0
EXTRACT: note_on channel=10 note=60 velocity=0 time=0
EXTRACT: note_on channel=2 note=59 velocity=0 time=0.12812500000000002
EXTRACT: note_on channel=4 note=74 velocity=0 time=0
EXTRACT: note_on channel=4 note=66 velocity=0 time=0
EXTRACT: note_on channel=4 note=71 velocity=0 time=0
EXTRACT: note_on channel=3 note=83 velocity=0 time=0.0078125
EXTRACT: note_on channel=3 note=81 velocity=79 time=0.015625
EXTRACT: note_on channel=4 note=64 velocity=77 time=0.0015625
EXTRACT: note_on channel=11 note=74 velocity=84 time=0.0015625
EXTRACT: note_on channel=11 note=86 velocity=87 time=0.0015625
EXTRACT: note_on channel=9 note=35 velocity=115 time=0.003125
EXTRACT: note_on channel=9 note=36 velocity=115 time=0
EXTRACT: note_on channel=10 note=60 velocity=115 time=0
EXTRACT: note_on channel=4 note=69 velocity=79 time=0.004687500000000001
EXTRACT: note_on channel=2 note=59 velocity=78 time=0.003125
EXTRACT: note_on channel=12 note=74 velocity=68 time=0
EXTRACT: control_change channel=12 control=10 value=99 time=0
EXTRACT: note_on channel=4 note=73 velocity=79 time=0.004687500000000001
EXTRACT: note_on channel=9 note=36 velocity=0 time=0.015625
EXTRACT: note_on channel=9 note=35 velocity=0 time=0
EXTRACT: note_on channel=10 note=60 velocity=0 time=0
EXTRACT: control_change channel=12 control=10 value=103 time=0.018750000000000003
EXTRACT: note_on channel=3 note=81 velocity=0 time=0.03125
EXTRACT: control_change channel=12 control=10 value=107 time=0.0078125
EXTRACT: control_change channel=12 control=10 value=111 time=0.0390625
EXTRACT: note_on channel=12 note=74 velocity=0 time=0.0078125
EXTRACT: note_on channel=11 note=86 velocity=0 time=0.0078125
EXTRACT: note_on channel=11 note=74 velocity=0 time=0
EXTRACT: note_on channel=4 note=73 velocity=0 time=0.015625
EXTRACT: note_on channel=4 note=69 velocity=0 time=0
EXTRACT: note_on channel=4 note=64 velocity=0 time=0
EXTRACT: note_on channel=4 note=73 velocity=81 time=0.018750000000000003
EXTRACT: note_on channel=11 note=85 velocity=85 time=0.0078125
EXTRACT: note_on channel=2 note=57 velocity=79 time=0.003125
EXTRACT: note_on channel=4 note=69 velocity=81 time=0.0015625
EXTRACT: note_on channel=12 note=73 velocity=69 time=0.0015625
EXTRACT: note_on channel=11 note=73 velocity=84 time=0.0015625
EXTRACT: note_on channel=4 note=64 velocity=78 time=0.0015625
EXTRACT: note_on channel=3 note=81 velocity=78 time=0.004687500000000001
EXTRACT: control_change channel=12 control=10 value=119 time=0.00625
EXTRACT: control_change channel=12 control=10 value=123 time=0.0390625
EXTRACT: control_change channel=12 control=10 value=121 time=0.0390625
EXTRACT: note_on channel=12 note=73 velocity=0 time=0.0390625
EXTRACT: control_change channel=12 control=10 value=117 time=0
EXTRACT: note_on channel=11 note=73 velocity=0 time=0.0078125
EXTRACT: note_on channel=11 note=85 velocity=0 time=0
EXTRACT: note_on channel=1 note=35 velocity=0 time=0.0078125
EXTRACT: note_on channel=2 note=57 velocity=0 time=0.0078125
EXTRACT: note_on channel=2 note=47 velocity=0 time=0
EXTRACT: note_on channel=2 note=61 velocity=0 time=0
EXTRACT: note_on channel=2 note=54 velocity=0 time=0
EXTRACT: note_on channel=2 note=59 velocity=0 time=0
EXTRACT: note_on channel=2 note=62 velocity=0 time=0
EXTRACT: note_on channel=6 note=59 velocity=0 time=0
EXTRACT: note_on channel=7 note=59 velocity=0 time=0
EXTRACT: note_on channel=7 note=74 velocity=0 time=0
EXTRACT: note_on channel=7 note=71 velocity=0 time=0
EXTRACT: note_on channel=8 note=47 velocity=0 time=0
EXTRACT: note_on channel=8 note=59 velocity=0 time=0
EXTRACT: note_on channel=8 note=50 velocity=0 time=0
EXTRACT: note_on channel=8 note=54 velocity=0 time=0
EXTRACT: note_on channel=1 note=42 velocity=77 time=0.018750000000000003
EXTRACT: note_on channel=12 note=69 velocity=69 time=0
EXTRACT: note_on channel=7 note=66 velocity=58 time=0.0015625
EXTRACT: note_on channel=7 note=54 velocity=58 time=0.003125
EXTRACT: note_on channel=7 note=69 velocity=59 time=0.004687500000000001
EXTRACT: note_on channel=8 note=57 velocity=58 time=0
EXTRACT: note_on channel=8 note=49 velocity=60 time=0.003125
EXTRACT: note_on channel=8 note=54 velocity=62 time=0
EXTRACT: note_on channel=9 note=35 velocity=115 time=0
EXTRACT: note_on channel=9 note=36 velocity=115 time=0
EXTRACT: note_on channel=10 note=60 velocity=115 time=0
EXTRACT: note_on channel=6 note=54 velocity=77 time=0.0015625
EXTRACT: note_on channel=11 note=69 velocity=83 time=0
EXTRACT: note_on channel=8 note=42 velocity=59 time=0.003125
EXTRACT: note_on channel=11 note=81 velocity=85 time=0
EXTRACT: note_on channel=2 note=42 velocity=91 time=0.00625
EXTRACT: control_change channel=12 control=10 value=109 time=0.0125
EXTRACT: note_on channel=9 note=36 velocity=0 time=0.004687500000000001
EXTRACT: note_on channel=9 note=35 velocity=0 time=0
EXTRACT: note_on channel=10 note=60 velocity=0 time=0
EXTRACT: control_change channel=12 control=10 value=105 time=0.034375
EXTRACT: control_change channel=12 control=10 value=101 time=0.0390625
EXTRACT: note_on channel=12 note=69 velocity=0 time=0.03125
EXTRACT: note_on channel=11 note=81 velocity=0 time=0.0078125
EXTRACT: note_on channel=11 note=69 velocity=0 time=0
EXTRACT: control_change channel=12 control=10 value=97 time=0
EXTRACT: note_on channel=4 note=64 velocity=0 time=0.015625
EXTRACT: note_on channel=4 note=69 velocity=0 time=0
EXTRACT: note_on channel=4 note=73 velocity=0 time=0
EXTRACT: note_on channel=3 note=81 velocity=0 time=0.0078125
EXTRACT: note_on channel=3 note=80 velocity=73 time=0.0171875
EXTRACT: note_on channel=4 note=71 velocity=74 time=0.003125
EXTRACT: note_on channel=4 note=68 velocity=74 time=0.003125
EXTRACT: note_on channel=4 note=62 velocity=72 time=0.003125
EXTRACT: note_on channel=2 note=49 velocity=56 time=0.004687500000000001
EXTRACT: note_on channel=4 note=62 velocity=0 time=0.1484375
EXTRACT: note_on channel=4 note=68 velocity=0 time=0
EXTRACT: note_on channel=4 note=71 velocity=0 time=0
EXTRACT: note_on channel=3 note=80 velocity=0 time=0.0078125
EXTRACT: note_on channel=11 note=66 velocity=83 time=0.010937500000000001
EXTRACT: note_on channel=11 note=78 velocity=83 time=0.0015625
EXTRACT: note_on channel=4 note=66 velocity=77 time=0.004687500000000001
EXTRACT: note_on channel=12 note=66 velocity=71 time=0
EXTRACT: note_on channel=4 note=61 velocity=79 time=0.004687500000000001
EXTRACT: control_change channel=12 control=10 value=73 time=0.0015625
EXTRACT: note_on channel=5 note=69 velocity=78 time=0.0015625
EXTRACT: note_on channel=3 note=78 velocity=76 time=0.0015625
EXTRACT: note_on channel=4 note=69 velocity=75 time=0.003125
EXTRACT: note_on channel=2 note=54 velocity=77 time=0.00625
EXTRACT: control_change channel=12 control=10 value=69 time=0.026562500000000003
EXTRACT: control_change channel=12 control=10 value=65 time=0.0390625
EXTRACT: control_change channel=12 control=10 value=61 time=0.0390625
EXTRACT: note_on channel=12 note=66 velocity=0 time=0.015625
EXTRACT: note_on channel=11 note=78 velocity=0 time=0.0078125
EXTRACT: note_on channel=11 note=66 velocity=0 time=0
EXTRACT: note_on channel=5 note=69 velocity=0 time=0.015625
EXTRACT: note_on channel=5 note=69 velocity=80 time=0.0234375
EXTRACT: note_on channel=2 note=56 velocity=76 time=0.003125
EXTRACT: note_on channel=11 note=80 velocity=85 time=0
EXTRACT: note_on channel=11 note=68 velocity=86 time=0.010937500000000001
EXTRACT: control_change channel=12 control=10 value=53 time=0.0015625
EXTRACT: note_on channel=12 note=68 velocity=72 time=0.003125
EXTRACT: control_change channel=12 control=10 value=49 time=0.035937500000000004
EXTRACT: control_change channel=12 control=10 value=45 time=0.0390625
EXTRACT: control_change channel=12 control=10 value=41 time=0.0390625
EXTRACT: note_on channel=12 note=68 velocity=0 time=0.0078125
EXTRACT: note_on channel=11 note=68 velocity=0 time=0.0078125
EXTRACT: note_on channel=11 note=80 velocity=0 time=0
EXTRACT: note_on channel=2 note=57 velocity=87 time=0.035937500000000004
EXTRACT: note_on channel=11 note=69 velocity=86 time=0.004687500000000001
EXTRACT: note_on channel=12 note=69 velocity=71 time=0.0015625
EXTRACT: note_on channel=11 note=81 velocity=86 time=0.0078125
EXTRACT: note_on channel=9 note=39 velocity=117 time=0.003125
EXTRACT: control_change channel=12 control=10 value=33 time=0.009375000000000001
EXTRACT: note_on channel=9 note=39 velocity=0 time=0.018750000000000003
EXTRACT: control_change channel=12 control=10 value=29 time=0.0203125
EXTRACT: control_change channel=12 control=10 value=25 time=0.0390625
EXTRACT: note_on channel=12 note=69 velocity=0 time=0.0390625
EXTRACT: control_change channel=12 control=10 value=21 time=0
EXTRACT: note_on channel=11 note=81 velocity=0 time=0.0078125
EXTRACT: note_on channel=11 note=69 velocity=0 time=0
EXTRACT: note_on channel=5 note=69 velocity=0 time=0.015625
EXTRACT: note_on channel=5 note=68 velocity=73 time=0.028125
EXTRACT: note_on channel=2 note=49 velocity=0 time=0.15937500000000002
EXTRACT: note_on channel=5 note=68 velocity=0 time=0
EXTRACT: note_on channel=11 note=81 velocity=87 time=0.03125
EXTRACT: note_on channel=12 note=69 velocity=69 time=0.0015625
EXTRACT: note_on channel=11 note=69 velocity=87 time=0.0015625
EXTRACT: note_on channel=2 note=49 velocity=82 time=0.0015625
EXTRACT: note_on channel=5 note=66 velocity=77 time=0.00625
EXTRACT: control_change channel=12 control=10 value=35 time=0.0203125
EXTRACT: control_change channel=12 control=10 value=39 time=0.0390625
EXTRACT: control_change channel=12 control=10 value=43 time=0.0390625
EXTRACT: note_on channel=12 note=69 velocity=0 time=0.0234375
EXTRACT: note_on channel=11 note=69 velocity=0 time=0.0078125
EXTRACT: note_on channel=11 note=81 velocity=0 time=0
EXTRACT: note_on channel=2 note=54 velocity=0 time=0.015625
EXTRACT: note_on channel=4 note=69 velocity=0 time=0
EXTRACT: note_on channel=4 note=61 velocity=0 time=0
EXTRACT: note_on channel=4 note=66 velocity=0 time=0
EXTRACT: note_on channel=3 note=78 velocity=0 time=0.0078125
EXTRACT: note_on channel=2 note=54 velocity=84 time=0.0171875
EXTRACT: note_on channel=2 note=57 velocity=0 time=0.1625
EXTRACT: note_on channel=3 note=81 velocity=88 time=0.018750000000000003
EXTRACT: note_on channel=4 note=64 velocity=84 time=0.0078125
EXTRACT: note_on channel=2 note=57 velocity=85 time=0.0015625
EXTRACT: note_on channel=4 note=69 velocity=88 time=0.0015625
EXTRACT: note_on channel=11 note=81 velocity=86 time=0
EXTRACT: note_on channel=9 note=36 velocity=115 time=0.0015625
EXTRACT: note_on channel=12 note=69 velocity=68 time=0
EXTRACT: note_on channel=11 note=69 velocity=87 time=0.003125
EXTRACT: control_change channel=12 control=10 value=71 time=0.004687500000000001
EXTRACT: note_on channel=4 note=73 velocity=88 time=0.003125
EXTRACT: note_on channel=9 note=36 velocity=0 time=0.0171875
EXTRACT: control_change channel=12 control=10 value=75 time=0.018750000000000003
EXTRACT: control_change channel=12 control=10 value=79 time=0.0390625
EXTRACT: control_change channel=12 control=10 value=83 time=0.0390625
EXTRACT: note_on channel=12 note=69 velocity=0 time=0.0078125
EXTRACT: note_on channel=11 note=69 velocity=0 time=0.0078125
EXTRACT: note_on channel=11 note=81 velocity=0 time=0
EXTRACT: note_on channel=4 note=73 velocity=0 time=0.015625
EXTRACT: note_on channel=4 note=69 velocity=0 time=0
EXTRACT: note_on channel=4 note=64 velocity=0 time=0
EXTRACT: note_on channel=3 note=81 velocity=0 time=0.0078125
EXTRACT: note_on channel=3 note=81 velocity=75 time=0.018750000000000003
EXTRACT: note_on channel=4 note=64 velocity=75 time=0.0015625
EXTRACT: note_on channel=4 note=69 velocity=75 time=0.00625
EXTRACT: note_on channel=4 note=73 velocity=76 time=0.003125
EXTRACT: note_on channel=12 note=69 velocity=69 time=0.00625
EXTRACT: control_change channel=12 control=10 value=91 time=0.003125
EXTRACT: control_change channel=12 control=10 value=95 time=0.0390625
EXTRACT: note_on channel=3 note=81 velocity=0 time=0.0234375
EXTRACT: control_change channel=12 control=10 value=99 time=0.015625
EXTRACT: note_on channel=12 note=69 velocity=0 time=0.0390625
EXTRACT: control_change channel=12 control=10 value=103 time=0
EXTRACT: note_on channel=2 note=49 velocity=0 time=0.0234375
EXTRACT: note_on channel=4 note=73 velocity=0 time=0
EXTRACT: note_on channel=4 note=69 velocity=0 time=0
EXTRACT: note_on channel=4 note=64 velocity=0 time=0
EXTRACT: note_on channel=11 note=81 velocity=87 time=0.025
EXTRACT: note_on channel=3 note=81 velocity=81 time=0.0015625
EXTRACT: note_on channel=4 note=73 velocity=78 time=0
EXTRACT: note_on channel=9 note=35 velocity=115 time=0.004687500000000001
EXTRACT: note_on channel=9 note=36 velocity=115 time=0
EXTRACT: note_on channel=4 note=64 velocity=80 time=0.0015625
EXTRACT: note_on channel=11 note=69 velocity=84 time=0.00625
EXTRACT: note_on channel=2 note=49 velocity=77 time=0.004687500000000001
EXTRACT: note_on channel=4 note=69 velocity=77 time=0
EXTRACT: note_on channel=12 note=69 velocity=72 time=0
EXTRACT: control_change channel=12 control=10 value=111 time=0.010937500000000001
EXTRACT: note_on channel=9 note=36 velocity=0 time=0.004687500000000001
EXTRACT: note_on channel=9 note=35 velocity=0 time=0
EXTRACT: control_change channel=12 control=10 value=115 time=0.034375
EXTRACT: note_on channel=3 note=81 velocity=0 time=0.015625
EXTRACT: control_change channel=12 control=10 value=119 time=0.0234375
EXTRACT: note_on channel=12 note=69 velocity=0 time=0.03125
EXTRACT: note_on channel=11 note=69 velocity=0 time=0.0078125
EXTRACT: note_on channel=11 note=81 velocity=0 time=0
EXTRACT: control_change channel=12 control=10 value=123 time=0
EXTRACT: note_on channel=2 note=54 velocity=0 time=0.015625
EXTRACT: note_on channel=4 note=69 velocity=0 time=0
EXTRACT: note_on channel=4 note=64 velocity=0 time=0
EXTRACT: note_on channel=4 note=73 velocity=0 time=0
EXTRACT: note_on channel=5 note=66 velocity=0 time=0
EXTRACT: control_change channel=12 control=10 value=121 time=0.0234375
EXTRACT: note_on channel=3 note=81 velocity=77 time=0.004687500000000001
EXTRACT: note_on channel=4 note=64 velocity=77 time=0
EXTRACT: note_on channel=12 note=69 velocity=71 time=0
EXTRACT: note_on channel=4 note=69 velocity=77 time=0.00625
EXTRACT: note_on channel=2 note=54 velocity=78 time=0.0015625
EXTRACT: note_on channel=4 note=73 velocity=80 time=0.003125
EXTRACT: control_change channel=12 control=10 value=117 time=0.0234375
EXTRACT: control_change channel=12 control=10 value=113 time=0.0390625
EXTRACT: note_on channel=3 note=81 velocity=0 time=0.0078125
EXTRACT: control_change channel=12 control=10 value=109 time=0.03125
EXTRACT: note_on channel=12 note=69 velocity=0 time=0.0234375
EXTRACT: note_on channel=2 note=57 velocity=0 time=0.0234375
EXTRACT: note_on channel=4 note=73 velocity=0 time=0
EXTRACT: note_on channel=4 note=69 velocity=0 time=0
EXTRACT: note_on channel=4 note=64 velocity=0 time=0
EXTRACT: note_on channel=9 note=39 velocity=113 time=0.018750000000000003
EXTRACT: note_on channel=3 note=81 velocity=92 time=0.0078125
EXTRACT: note_on channel=4 note=73 velocity=90 time=0
EXTRACT: note_on channel=11 note=81 velocity=86 time=0.0015625
EXTRACT: note_on channel=4 note=69 velocity=93 time=0.00625
EXTRACT: note_on channel=11 note=69 velocity=84 time=0.0015625
EXTRACT: note_on channel=2 note=57 velocity=89 time=0.0015625
EXTRACT: note_on channel=12 note=69 velocity=68 time=0
EXTRACT: note_on channel=4 note=64 velocity=91 time=0.0015625
EXTRACT: note_on channel=9 note=39 velocity=0 time=0.0078125
EXTRACT: control_change channel=12 control=10 value=97 time=0.0234375
EXTRACT: control_change channel=12 control=10 value=93 time=0.0390625
EXTRACT: control_change channel=12 control=10 value=89 time=0.0390625
EXTRACT: note_on channel=12 note=69 velocity=0 time=0.015625
EXTRACT: note_on channel=11 note=69 velocity=0 time=0.0078125
EXTRACT: note_on channel=11 note=81 velocity=0 time=0
EXTRACT: note_on channel=2 note=56 velocity=0 time=0.015625
EXTRACT: note_on channel=9 note=35 velocity=115 time=0.03125
EXTRACT: note_on channel=9 note=36 velocity=115 time=0
EXTRACT: note_on channel=2 note=56 velocity=74 time=0.010937500000000001
EXTRACT: note_on channel=9 note=36 velocity=0 time=0.0171875
EXTRACT: note_on channel=9 note=35 velocity=0 time=0
EXTRACT: note_on channel=2 note=54 velocity=0 time=0.12812500000000002
EXTRACT: note_on channel=4 note=64 velocity=0 time=0
EXTRACT: note_on channel=4 note=69 velocity=0 time=0
EXTRACT: note_on channel=4 note=73 velocity=0 time=0
EXTRACT: note_on channel=3 note=81 velocity=0 time=0.0078125
EXTRACT: note_on channel=11 note=69 velocity=86 time=0.010937500000000001
EXTRACT: note_on channel=3 note=81 velocity=76 time=0.0078125
EXTRACT: note_on channel=4 note=69 velocity=77 time=0
EXTRACT: note_on channel=11 note=81 velocity=85 time=0
EXTRACT: note_on channel=12 note=69 velocity=72 time=0
EXTRACT: note_on channel=2 note=54 velocity=75 time=0.003125
EXTRACT: note_on channel=4 note=73 velocity=76 time=0
EXTRACT: note_on channel=4 note=64 velocity=78 time=0.003125
EXTRACT: control_change channel=12 control=10 value=61 time=0.0140625
EXTRACT: control_change channel=12 control=10 value=57 time=0.0390625
EXTRACT: note_on channel=3 note=81 velocity=0 time=0.0234375
EXTRACT: control_change channel=12 control=10 value=53 time=0.015625
EXTRACT: note_on channel=12 note=69 velocity=0 time=0.0390625
EXTRACT: control_change channel=12 control=10 value=49 time=0
EXTRACT: note_on channel=11 note=81 velocity=0 time=0.0078125
EXTRACT: note_on channel=11 note=69 velocity=0 time=0
EXTRACT: note_on channel=4 note=64 velocity=0 time=0.015625
EXTRACT: note_on channel=4 note=73 velocity=0 time=0
EXTRACT: note_on channel=4 note=69 velocity=0 time=0
EXTRACT: note_on channel=4 note=73 velocity=78 time=0.021875000000000002
EXTRACT: note_on channel=4 note=69 velocity=78 time=0.0015625
EXTRACT: note_on channel=11 note=81 velocity=85 time=0.0015625
EXTRACT: note_on channel=3 note=81 velocity=76 time=0.0015625
EXTRACT: note_on channel=4 note=64 velocity=78 time=0.003125
EXTRACT: note_on channel=12 note=69 velocity=71 time=0.0078125
EXTRACT: note_on channel=11 note=69 velocity=83 time=0.004687500000000001
EXTRACT: control_change channel=12 control=10 value=41 time=0.0125
EXTRACT: control_change channel=12 control=10 value=37 time=0.0390625
EXTRACT: control_change channel=12 control=10 value=33 time=0.0390625
EXTRACT: note_on channel=12 note=69 velocity=0 time=0.03125
EXTRACT: note_on channel=11 note=69 velocity=0 time=0.0078125
EXTRACT: note_on channel=11 note=81 velocity=0 time=0
EXTRACT: control_change channel=12 control=10 value=29 time=0
EXTRACT: note_on channel=1 note=42 velocity=0 time=0.0078125
EXTRACT: note_on channel=2 note=54 velocity=0 time=0.0078125
EXTRACT: note_on channel=2 note=56 velocity=0 time=0
EXTRACT: note_on channel=2 note=42 velocity=0 time=0
EXTRACT: note_on channel=2 note=49 velocity=0 time=0
EXTRACT: note_on channel=2 note=57 velocity=0 time=0
EXTRACT: note_on channel=6 note=54 velocity=0 time=0
EXTRACT: note_on channel=7 note=69 velocity=0 time=0
EXTRACT: note_on channel=7 note=54 velocity=0 time=0
EXTRACT: note_on channel=7 note=66 velocity=0 time=0
EXTRACT: note_on channel=8 note=42 velocity=0 time=0
EXTRACT: note_on channel=8 note=57 velocity=0 time=0
EXTRACT: note_on channel=8 note=49 velocity=0 time=0
EXTRACT: note_on channel=8 note=54 velocity=0 time=0
EXTRACT: note_on channel=7 note=62 velocity=60 time=0.018750000000000003
EXTRACT: note_on channel=1 note=38 velocity=74 time=0.0015625
EXTRACT: note_on channel=2 note=54 velocity=89 time=0.003125
EXTRACT: note_on channel=8 note=54 velocity=58 time=0.0015625
EXTRACT: note_on channel=8 note=50 velocity=62 time=0.0015625
EXTRACT: note_on channel=11 note=69 velocity=84 time=0
EXTRACT: note_on channel=2 note=38 velocity=92 time=0.003125
EXTRACT: note_on channel=7 note=50 velocity=61 time=0
EXTRACT: note_on channel=9 note=35 velocity=115 time=0.0015625
EXTRACT: note_on channel=9 note=36 velocity=115 time=0
EXTRACT: note_on channel=10 note=60 velocity=115 time=0
EXTRACT: note_on channel=11 note=81 velocity=83 time=0.0015625
EXTRACT: note_on channel=8 note=57 velocity=58 time=0.0015625
EXTRACT: note_on channel=7 note=66 velocity=59 time=0.0015625
EXTRACT: note_on channel=8 note=38 velocity=58 time=0
EXTRACT: note_on channel=12 note=69 velocity=69 time=0.003125
EXTRACT: note_on channel=2 note=50 velocity=92 time=0.003125
EXTRACT: note_on channel=2 note=57 velocity=93 time=0
EXTRACT: note_on channel=6 note=54 velocity=73 time=0
EXTRACT: note_on channel=9 note=36 velocity=0 time=0.0171875
EXTRACT: note_on channel=9 note=35 velocity=0 time=0
EXTRACT: note_on channel=10 note=60 velocity=0 time=0
EXTRACT: control_change channel=12 control=10 value=21 time=0.003125
EXTRACT: control_change channel=12 control=10 value=17 time=0.0390625
EXTRACT: control_change channel=12 control=10 value=15 time=0.0390625
EXTRACT: note_on channel=12 note=69 velocity=0 time=0.0234375
EXTRACT: note_on channel=11 note=81 velocity=0 time=0.0078125
EXTRACT: note_on channel=11 note=69 velocity=0 time=0
EXTRACT: note_on channel=4 note=64 velocity=0 time=0.015625
EXTRACT: note_on channel=4 note=69 velocity=0 time=0
EXTRACT: note_on channel=4 note=73 velocity=0 time=0
EXTRACT: note_on channel=3 note=81 velocity=0 time=0.0078125
EXTRACT: note_on channel=4 note=69 velocity=72 time=0.015625
EXTRACT: note_on channel=3 note=76 velocity=76 time=0.010937500000000001
EXTRACT: note_on channel=4 note=64 velocity=72 time=0.009375000000000001
EXTRACT: note_on channel=2 note=50 velocity=0 time=0.14375000000000002
EXTRACT: note_on channel=4 note=64 velocity=0 time=0
EXTRACT: note_on channel=4 note=69 velocity=0 time=0
EXTRACT: note_on channel=3 note=76 velocity=0 time=0.0078125
EXTRACT: note_on channel=4 note=62 velocity=82 time=0.0125
EXTRACT: note_on channel=12 note=66 velocity=71 time=0.0015625
EXTRACT: note_on channel=4 note=66 velocity=82 time=0.0015625
EXTRACT: note_on channel=3 note=74 velocity=80 time=0.009375000000000001
EXTRACT: note_on channel=11 note=66 velocity=84 time=0.003125
EXTRACT: note_on channel=11 note=78 velocity=86 time=0
EXTRACT: note_on channel=2 note=50 velocity=78 time=0.003125
EXTRACT: control_change channel=12 control=10 value=43 time=0
EXTRACT: control_change channel=12 control=10 value=47 time=0.0390625
EXTRACT: control_change channel=12 control=10 value=51 time=0.0390625
EXTRACT: control_change channel=12 control=10 value=55 time=0.0390625
EXTRACT: note_on channel=12 note=66 velocity=0 time=0.0078125
EXTRACT: note_on channel=11 note=78 velocity=0 time=0.0078125
EXTRACT: note_on channel=11 note=66 velocity=0 time=0
EXTRACT: note_on channel=4 note=66 velocity=0 time=0.015625
EXTRACT: note_on channel=4 note=62 velocity=0 time=0
EXTRACT: note_on channel=3 note=74 velocity=0 time=0.0078125
EXTRACT: note_on channel=4 note=64 velocity=74 time=0.010937500000000001
EXTRACT: note_on channel=12 note=68 velocity=70 time=0.0015625
EXTRACT: note_on channel=11 note=80 velocity=86 time=0.004687500000000001
EXTRACT: note_on channel=9 note=35 velocity=115 time=0.00625
EXTRACT: note_on channel=9 note=36 velocity=115 time=0
EXTRACT: note_on channel=3 note=73 velocity=74 time=0.003125
EXTRACT: note_on channel=4 note=61 velocity=74 time=0
EXTRACT: note_on channel=11 note=68 velocity=84 time=0.00625
EXTRACT: note_on channel=2 note=52 velocity=73 time=0.003125
EXTRACT: control_change channel=12 control=10 value=63 time=0.003125
EXTRACT: note_on channel=9 note=36 velocity=0 time=0.0125
EXTRACT: note_on channel=9 note=35 velocity=0 time=0
EXTRACT: control_change channel=12 control=10 value=67 time=0.026562500000000003
EXTRACT: control_change channel=12 control=10 value=71 time=0.0390625
EXTRACT: note_on channel=12 note=68 velocity=0 time=0.0390625
EXTRACT: control_change channel=12 control=10 value=75 time=0
EXTRACT: note_on channel=11 note=68 velocity=0 time=0.0078125
EXTRACT: note_on channel=11 note=80 velocity=0 time=0
EXTRACT: note_on channel=2 note=54 velocity=0 time=0.015625
EXTRACT: note_on channel=2 note=54 velocity=86 time=0.0234375
EXTRACT: note_on channel=11 note=81 velocity=84 time=0
EXTRACT: note_on channel=9 note=39 velocity=113 time=0.0015625
EXTRACT: note_on channel=12 note=69 velocity=69 time=0.00625
EXTRACT: note_on channel=11 note=69 velocity=83 time=0.0015625
EXTRACT: note_on channel=9 note=39 velocity=0 time=0.0203125
EXTRACT: control_change channel=12 control=10 value=83 time=0.0015625
EXTRACT: control_change channel=12 control=10 value=87 time=0.0390625
EXTRACT: control_change channel=12 control=10 value=91 time=0.0390625
EXTRACT: note_on channel=12 note=69 velocity=0 time=0.03125
EXTRACT: note_on channel=11 note=69 velocity=0 time=0.0078125
EXTRACT: note_on channel=11 note=81 velocity=0 time=0
EXTRACT: control_change channel=12 control=10 value=95 time=0
EXTRACT: note_on channel=12 note=69 velocity=72 time=0.22968750000000002
EXTRACT: note_on channel=11 note=81 velocity=84 time=0.0015625
EXTRACT: control_change channel=12 control=10 value=119 time=0.003125
EXTRACT: note_on channel=11 note=69 velocity=84 time=0.00625
EXTRACT: control_change channel=12 control=10 value=123 time=0.0328125
EXTRACT: control_change channel=12 control=10 value=121 time=0.0390625
EXTRACT: control_change channel=12 control=10 value=117 time=0.0390625
EXTRACT: note_on channel=12 note=69 velocity=0 time=0.015625
EXTRACT: note_on channel=11 note=69 velocity=0 time=0.0078125
EXTRACT: note_on channel=11 note=81 velocity=0 time=0
EXTRACT: note_on channel=2 note=54 velocity=0 time=0.015625
EXTRACT: note_on channel=2 note=54 velocity=66 time=0.028125
EXTRACT: note_on channel=2 note=57 velocity=0 time=0.15937500000000002
EXTRACT: note_on channel=4 note=61 velocity=0 time=0
EXTRACT: note_on channel=4 note=64 velocity=0 time=0
EXTRACT: note_on channel=7 note=66 velocity=0 time=0
EXTRACT: note_on channel=7 note=50 velocity=0 time=0
EXTRACT: note_on channel=7 note=62 velocity=0 time=0
EXTRACT: note_on channel=3 note=73 velocity=0 time=0.0078125
EXTRACT: note_on channel=11 note=69 velocity=85 time=0.015625
EXTRACT: note_on channel=9 note=36 velocity=115 time=0.0078125
EXTRACT: note_on channel=4 note=57 velocity=87 time=0.0015625
EXTRACT: note_on channel=3 note=81 velocity=86 time=0.0015625
EXTRACT: note_on channel=2 note=57 velocity=88 time=0.0015625
EXTRACT: note_on channel=12 note=69 velocity=68 time=0.0015625
EXTRACT: note_on channel=11 note=81 velocity=86 time=0.00625
EXTRACT: control_change channel=12 control=10 value=89 time=0.003125
EXTRACT: note_on channel=9 note=36 velocity=0 time=0.0125
EXTRACT: control_change channel=12 control=10 value=85 time=0.026562500000000003
EXTRACT: control_change channel=12 control=10 value=81 time=0.0390625
EXTRACT: note_on channel=12 note=69 velocity=0 time=0.0390625
EXTRACT: control_change channel=12 control=10 value=77 time=0
EXTRACT: note_on channel=11 note=81 velocity=0 time=0.0078125
EXTRACT: note_on channel=11 note=69 velocity=0 time=0
EXTRACT: note_on channel=4 note=57 velocity=0 time=0.015625
EXTRACT: note_on channel=3 note=81 velocity=0 time=0.0078125
EXTRACT: note_on channel=4 note=57 velocity=74 time=0.03125
EXTRACT: note_on channel=3 note=81 velocity=73 time=0.003125
EXTRACT: note_on channel=4 note=57 velocity=0 time=0.1453125
EXTRACT: note_on channel=3 note=81 velocity=0 time=0.0078125
EXTRACT: note_on channel=3 note=81 velocity=80 time=0.010937500000000001
EXTRACT: note_on channel=12 note=69 velocity=69 time=0.003125
EXTRACT: note_on channel=4 note=57 velocity=78 time=0.0015625
EXTRACT: control_change channel=12 control=10 value=53 time=0
EXTRACT: note_on channel=11 note=81 velocity=86 time=0.003125
EXTRACT: note_on channel=9 note=35 velocity=115 time=0.004687500000000001
EXTRACT: note_on channel=9 note=36 velocity=115 time=0
EXTRACT: note_on channel=11 note=69 velocity=86 time=0.0015625
EXTRACT: note_on channel=9 note=36 velocity=0 time=0.026562500000000003
EXTRACT: note_on channel=9 note=35 velocity=0 time=0
EXTRACT: control_change channel=12 control=10 value=49 time=0.003125
EXTRACT: control_change channel=12 control=10 value=45 time=0.0390625
EXTRACT: control_change channel=12 control=10 value=41 time=0.0390625
EXTRACT: note_on channel=12 note=69 velocity=0 time=0.0234375
EXTRACT: note_on channel=11 note=69 velocity=0 time=0.0078125
EXTRACT: note_on channel=11 note=81 velocity=0 time=0
EXTRACT: note_on channel=4 note=57 velocity=0 time=0.015625
EXTRACT: note_on channel=3 note=81 velocity=0 time=0.0078125
EXTRACT: note_on channel=12 note=69 velocity=68 time=0.015625
EXTRACT: control_change channel=12 control=10 value=33 time=0.0078125
EXTRACT: control_change channel=12 control=10 value=29 time=0.0390625
EXTRACT: control_change channel=12 control=10 value=25 time=0.0390625
EXTRACT: control_change channel=12 control=10 value=21 time=0.0390625
EXTRACT: note_on channel=12 note=69 velocity=0 time=0.015625
EXTRACT: note_on channel=1 note=38 velocity=0 time=0.015625
EXTRACT: note_on channel=2 note=57 velocity=0 time=0.0078125
EXTRACT: note_on channel=2 note=54 velocity=0 time=0
EXTRACT: note_on channel=2 note=50 velocity=0 time=0
EXTRACT: note_on channel=2 note=38 velocity=0 time=0
EXTRACT: note_on channel=2 note=52 velocity=0 time=0
EXTRACT: note_on channel=6 note=54 velocity=0 time=0
EXTRACT: note_on channel=8 note=38 velocity=0 time=0
EXTRACT: note_on channel=8 note=54 velocity=0 time=0
EXTRACT: note_on channel=8 note=50 velocity=0 time=0
EXTRACT: note_on channel=8 note=57 velocity=0 time=0
EXTRACT: note_on channel=4 note=57 velocity=84 time=0.018750000000000003
EXTRACT: note_on channel=12 note=69 velocity=71 time=0.0140625
EXTRACT: note_on channel=3 note=81 velocity=86 time=0.00625
EXTRACT: note_on channel=9 note=39 velocity=116 time=0
EXTRACT: control_change channel=12 control=10 value=15 time=0
EXTRACT: note_on channel=9 note=39 velocity=0 time=0.028125
EXTRACT: control_change channel=12 control=10 value=19 time=0.010937500000000001
EXTRACT: control_change channel=12 control=10 value=23 time=0.0390625
EXTRACT: control_change channel=12 control=10 value=27 time=0.0390625
EXTRACT: note_on channel=12 note=69 velocity=0 time=0.0078125
EXTRACT: note_on channel=4 note=69 velocity=73 time=0.046875
EXTRACT: note_on channel=9 note=35 velocity=115 time=0.0078125
EXTRACT: note_on channel=9 note=36 velocity=115 time=0
EXTRACT: note_on channel=12 note=69 velocity=68 time=0.010937500000000001
EXTRACT: control_change channel=12 control=10 value=35 time=0.004687500000000001
EXTRACT: note_on channel=9 note=36 velocity=0 time=0.0125
EXTRACT: note_on channel=9 note=35 velocity=0 time=0
EXTRACT: control_change channel=12 control=10 value=39 time=0.026562500000000003
EXTRACT: control_change channel=12 control=10 value=43 time=0.0390625
EXTRACT: note_on channel=12 note=69 velocity=0 time=0.0390625
EXTRACT: control_change channel=12 control=10 value=47 time=0
EXTRACT: note_on channel=4 note=69 velocity=0 time=0.0234375
EXTRACT: note_on channel=4 note=57 velocity=0 time=0
EXTRACT: note_on channel=3 note=81 velocity=0 time=0.0078125
EXTRACT: note_on channel=12 note=69 velocity=70 time=0.0140625
EXTRACT: note_on channel=4 note=56 velocity=76 time=0.004687500000000001
EXTRACT: note_on channel=3 note=80 velocity=79 time=0.0015625
EXTRACT: note_on channel=4 note=69 velocity=80 time=0.0078125
EXTRACT: control_change channel=12 control=10 value=55 time=0.018750000000000003
EXTRACT: control_change channel=12 control=10 value=59 time=0.0390625
EXTRACT: control_change channel=12 control=10 value=63 time=0.0390625
EXTRACT: note_on channel=12 note=69 velocity=0 time=0.03125
EXTRACT: control_change channel=12 control=10 value=67 time=0.0078125
EXTRACT: note_on channel=4 note=69 velocity=0 time=0.015625
EXTRACT: note_on channel=4 note=56 velocity=0 time=0
EXTRACT: note_on channel=3 note=80 velocity=0 time=0.0078125
EXTRACT: note_on channel=4 note=57 velocity=81 time=0.0140625
EXTRACT: note_on channel=3 note=81 velocity=81 time=0.004687500000000001
EXTRACT: note_on channel=4 note=71 velocity=81 time=0.0015625
EXTRACT: note_on channel=4 note=71 velocity=0 time=0.15937500000000002
EXTRACT: note_on channel=2 note=61 velocity=91 time=0.018750000000000003
EXTRACT: note_on channel=2 note=57 velocity=90 time=0.0015625
EXTRACT: note_on channel=6 note=57 velocity=75 time=0.003125
EXTRACT: note_on channel=2 note=45 velocity=90 time=0.003125
EXTRACT: note_on channel=8 note=57 velocity=58 time=0.0015625
EXTRACT: note_on channel=7 note=73 velocity=60 time=0.0015625
EXTRACT: note_on channel=8 note=52 velocity=62 time=0
EXTRACT: note_on channel=9 note=35 velocity=115 time=0.0015625
EXTRACT: note_on channel=9 note=36 velocity=115 time=0
EXTRACT: note_on channel=10 note=60 velocity=115 time=0
EXTRACT: note_on channel=11 note=81 velocity=86 time=0.0015625
EXTRACT: note_on channel=7 note=57 velocity=59 time=0.0015625
EXTRACT: note_on channel=8 note=61 velocity=58 time=0
EXTRACT: note_on channel=11 note=69 velocity=83 time=0
EXTRACT: note_on channel=4 note=73 velocity=93 time=0.0015625
EXTRACT: note_on channel=7 note=69 velocity=62 time=0
EXTRACT: note_on channel=8 note=45 velocity=61 time=0
EXTRACT: note_on channel=12 note=69 velocity=68 time=0
EXTRACT: note_on channel=2 note=64 velocity=90 time=0.00625
EXTRACT: note_on channel=1 note=33 velocity=74 time=0.0015625
EXTRACT: note_on channel=9 note=36 velocity=0 time=0.015625
EXTRACT: note_on channel=9 note=35 velocity=0 time=0
EXTRACT: note_on channel=10 note=60 velocity=0 time=0
EXTRACT: control_change channel=12 control=10 value=95 time=0.010937500000000001
EXTRACT: control_change channel=12 control=10 value=99 time=0.0390625
EXTRACT: control_change channel=12 control=10 value=103 time=0.0390625
EXTRACT: note_on channel=12 note=69 velocity=0 time=0.015625
EXTRACT: note_on channel=11 note=69 velocity=0 time=0.0078125
EXTRACT: note_on channel=11 note=81 velocity=0 time=0
EXTRACT: note_on channel=4 note=73 velocity=0 time=0.015625
EXTRACT: note_on channel=4 note=71 velocity=73 time=0.026562500000000003
EXTRACT: note_on channel=4 note=71 velocity=0 time=0.1609375
EXTRACT: note_on channel=4 note=71 velocity=79 time=0.0234375
EXTRACT: note_on channel=11 note=81 velocity=87 time=0.003125
EXTRACT: note_on channel=11 note=69 velocity=84 time=0.00625
EXTRACT: note_on channel=12 note=69 velocity=69 time=0.009375000000000001
EXTRACT: control_change channel=12 control=10 value=117 time=0.004687500000000001
EXTRACT: control_change channel=12 control=10 value=113 time=0.0390625
EXTRACT: control_change channel=12 control=10 value=109 time=0.0390625
EXTRACT: note_on channel=12 note=69 velocity=0 time=0.0390625
EXTRACT: control_change channel=12 control=10 value=105 time=0
EXTRACT: note_on channel=11 note=69 velocity=0 time=0.0078125
EXTRACT: note_on channel=11 note=81 velocity=0 time=0
EXTRACT: note_on channel=11 note=71 velocity=85 time=0.035937500000000004
EXTRACT: note_on channel=11 note=83 velocity=86 time=0.0140625
EXTRACT: note_on channel=12 note=71 velocity=72 time=0.009375000000000001
EXTRACT: control_change channel=12 control=10 value=97 time=0.010937500000000001
EXTRACT: control_change channel=12 control=10 value=93 time=0.0390625
EXTRACT: control_change channel=12 control=10 value=89 time=0.0390625
EXTRACT: note_on channel=12 note=71 velocity=0 time=0.03125
EXTRACT: note_on channel=11 note=83 velocity=0 time=0.0078125
EXTRACT: note_on channel=11 note=71 velocity=0 time=0
EXTRACT: control_change channel=12 control=10 value=85 time=0
EXTRACT: note_on channel=4 note=71 velocity=0 time=0.015625
EXTRACT: note_on channel=11 note=73 velocity=86 time=0.018750000000000003
EXTRACT: note_on channel=12 note=73 velocity=68 time=0
EXTRACT: control_change channel=12 control=10 value=81 time=0.004687500000000001
EXTRACT: note_on channel=11 note=85 velocity=84 time=0.0078125
EXTRACT: note_on channel=9 note=39 velocity=115 time=0.003125
EXTRACT: note_on channel=4 note=73 velocity=88 time=0.0015625
EXTRACT: note_on channel=9 note=39 velocity=0 time=0.026562500000000003
EXTRACT: control_change channel=12 control=10 value=77 time=0
EXTRACT: control_change channel=12 control=10 value=73 time=0.0390625
EXTRACT: control_change channel=12 control=10 value=69 time=0.0390625
EXTRACT: note_on channel=12 note=73 velocity=0 time=0.0234375
EXTRACT: note_on channel=11 note=85 velocity=0 time=0.0078125
EXTRACT: note_on channel=11 note=73 velocity=0 time=0
EXTRACT: note_on channel=4 note=73 velocity=0 time=0.015625
EXTRACT: note_on channel=4 note=71 velocity=73 time=0.0203125
EXTRACT: note_on channel=4 note=71 velocity=0 time=0.16718750000000002
EXTRACT: note_on channel=4 note=57 velocity=0 time=0
EXTRACT: note_on channel=3 note=81 velocity=0 time=0.0078125
EXTRACT: note_on channel=12 note=73 velocity=71 time=0.010937500000000001
EXTRACT: note_on channel=11 note=85 velocity=86 time=0.0078125
EXTRACT: note_on channel=4 note=71 velocity=81 time=0.004687500000000001
EXTRACT: note_on channel=11 note=73 velocity=83 time=0.004687500000000001
EXTRACT: control_change channel=12 control=10 value=41 time=0.003125
EXTRACT: control_change channel=12 control=10 value=37 time=0.0390625
EXTRACT: control_change channel=12 control=10 value=33 time=0.0390625
EXTRACT: control_change channel=12 control=10 value=29 time=0.0390625
EXTRACT: note_on channel=12 note=73 velocity=0 time=0.0078125
EXTRACT: note_on channel=11 note=73 velocity=0 time=0.0078125
EXTRACT: note_on channel=11 note=85 velocity=0 time=0
EXTRACT: note_on channel=4 note=71 velocity=0 time=0.203125
EXTRACT: note_on channel=3 note=85 velocity=88 time=0.021875000000000002
EXTRACT: note_on channel=11 note=85 velocity=86 time=0.00625
EXTRACT: note_on channel=9 note=36 velocity=115 time=0.003125
EXTRACT: note_on channel=12 note=73 velocity=68 time=0.003125
EXTRACT: note_on channel=11 note=73 velocity=86 time=0.00625
EXTRACT: control_change channel=12 control=10 value=27 time=0.0140625
EXTRACT: note_on channel=9 note=36 velocity=0 time=0.004687500000000001
EXTRACT: control_change channel=12 control=10 value=31 time=0.034375
EXTRACT: control_change channel=12 control=10 value=35 time=0.0390625
EXTRACT: note_on channel=12 note=73 velocity=0 time=0.03125
EXTRACT: note_on channel=11 note=73 velocity=0 time=0.0078125
EXTRACT: note_on channel=11 note=85 velocity=0 time=0
EXTRACT: control_change channel=12 control=10 value=39 time=0
EXTRACT: note_on channel=3 note=85 velocity=0 time=0.2109375
EXTRACT: note_on channel=12 note=73 velocity=72 time=0.0203125
EXTRACT: control_change channel=12 control=10 value=63 time=0.003125
EXTRACT: note_on channel=11 note=73 velocity=85 time=0.003125
EXTRACT: note_on channel=11 note=85 velocity=83 time=0.0015625
EXTRACT: note_on channel=3 note=83 velocity=77 time=0.003125
EXTRACT: control_change channel=12 control=10 value=67 time=0.03125
EXTRACT: control_change channel=12 control=10 value=71 time=0.0390625
EXTRACT: control_change channel=12 control=10 value=75 time=0.0390625
EXTRACT: note_on channel=12 note=73 velocity=0 time=0.015625
EXTRACT: note_on channel=11 note=85 velocity=0 time=0.0078125
EXTRACT: note_on channel=11 note=73 velocity=0 time=0
EXTRACT: note_on channel=12 note=73 velocity=69 time=0.22968750000000002
EXTRACT: note_on channel=9 note=39 velocity=115 time=0.0015625
EXTRACT: note_on channel=11 note=73 velocity=83 time=0.010937500000000001
EXTRACT: note_on channel=11 note=85 velocity=83 time=0.003125
EXTRACT: control_change channel=12 control=10 value=103 time=0.004687500000000001
EXTRACT: note_on channel=9 note=39 velocity=0 time=0.009375000000000001
EXTRACT: control_change channel=12 control=10 value=107 time=0.029687500000000002
EXTRACT: control_change channel=12 control=10 value=111 time=0.0390625
EXTRACT: note_on channel=12 note=73 velocity=0 time=0.0390625
EXTRACT: control_change channel=12 control=10 value=115 time=0
EXTRACT: note_on channel=11 note=85 velocity=0 time=0.0078125
EXTRACT: note_on channel=11 note=73 velocity=0 time=0
EXTRACT: note_on channel=2 note=45 velocity=0 time=0.015625
EXTRACT: note_on channel=2 note=57 velocity=0 time=0
EXTRACT: note_on channel=2 note=45 velocity=73 time=0.026562500000000003
EXTRACT: note_on channel=9 note=35 velocity=115 time=0.004687500000000001
EXTRACT: note_on channel=9 note=36 velocity=115 time=0
EXTRACT: note_on channel=4 note=69 velocity=71 time=0.004687500000000001
EXTRACT: note_on channel=2 note=57 velocity=75 time=0.0015625
EXTRACT: note_on channel=11 note=83 velocity=87 time=0
EXTRACT: note_on channel=12 note=71 velocity=71 time=0.003125
EXTRACT: note_on channel=11 note=71 velocity=86 time=0.003125
EXTRACT: control_change channel=12 control=10 value=123 time=0.010937500000000001
EXTRACT: note_on channel=9 note=36 velocity=0 time=0.004687500000000001
EXTRACT: note_on channel=9 note=35 velocity=0 time=0
EXTRACT: control_change channel=12 control=10 value=121 time=0.034375
EXTRACT: control_change channel=12 control=10 value=117 time=0.0390625
EXTRACT: note_on channel=12 note=71 velocity=0 time=0.03125
EXTRACT: note_on channel=11 note=71 velocity=0 time=0.0078125
EXTRACT: note_on channel=11 note=83 velocity=0 time=0
EXTRACT: control_change channel=12 control=10 value=113 time=0
EXTRACT: note_on channel=4 note=69 velocity=0 time=0.015625
EXTRACT: note_on channel=3 note=83 velocity=0 time=0.0078125
EXTRACT: note_on channel=11 note=69 velocity=85 time=0.018750000000000003
EXTRACT: note_on channel=11 note=81 velocity=83 time=0
EXTRACT: note_on channel=9 note=35 velocity=115 time=0.004687500000000001
EXTRACT: note_on channel=9 note=36 velocity=115 time=0
EXTRACT: note_on channel=12 note=69 velocity=69 time=0
EXTRACT: note_on channel=4 note=69 velocity=79 time=0.004687500000000001
EXTRACT: note_on channel=9 note=36 velocity=0 time=0.0234375
EXTRACT: note_on channel=9 note=35 velocity=0 time=0
EXTRACT: control_change channel=12 control=10 value=105 time=0.003125
EXTRACT: control_change channel=12 control=10 value=101 time=0.0390625
EXTRACT: control_change channel=12 control=10 value=97 time=0.0390625
EXTRACT: note_on channel=12 note=69 velocity=0 time=0.0234375
EXTRACT: note_on channel=11 note=81 velocity=0 time=0.0078125
EXTRACT: note_on channel=11 note=69 velocity=0 time=0
EXTRACT: note_on channel=4 note=69 velocity=0 time=0.015625
EXTRACT: note_on channel=11 note=81 velocity=85 time=0.026562500000000003
EXTRACT: note_on channel=12 note=69 velocity=70 time=0
EXTRACT: control_change channel=12 control=10 value=89 time=0.004687500000000001
EXTRACT: note_on channel=4 note=71 velocity=75 time=0.00625
EXTRACT: note_on channel=11 note=69 velocity=86 time=0
EXTRACT: control_change channel=12 control=10 value=85 time=0.0328125
EXTRACT: control_change channel=12 control=10 value=81 time=0.0390625
EXTRACT: control_change channel=12 control=10 value=77 time=0.0390625
EXTRACT: note_on channel=12 note=69 velocity=0 time=0.015625
EXTRACT: note_on channel=11 note=69 velocity=0 time=0.0078125
EXTRACT: note_on channel=11 note=81 velocity=0 time=0
EXTRACT: note_on channel=1 note=33 velocity=0 time=0.0078125
EXTRACT: note_on channel=2 note=57 velocity=0 time=0.0078125
EXTRACT: note_on channel=2 note=64 velocity=0 time=0
EXTRACT: note_on channel=2 note=61 velocity=0 time=0
EXTRACT: note_on channel=2 note=45 velocity=0 time=0
EXTRACT: note_on channel=4 note=71 velocity=0 time=0
EXTRACT: note_on channel=6 note=57 velocity=0 time=0
EXTRACT: note_on channel=7 note=69 velocity=0 time=0
EXTRACT: note_on channel=7 note=57 velocity=0 time=0
EXTRACT: note_on channel=7 note=73 velocity=0 time=0
EXTRACT: note_on channel=8 note=45 velocity=0 time=0
EXTRACT: note_on channel=8 note=57 velocity=0 time=0
EXTRACT: note_on channel=8 note=52 velocity=0 time=0
EXTRACT: note_on channel=8 note=61 velocity=0 time=0
EXTRACT: note_on channel=2 note=47 velocity=89 time=0.0203125
EXTRACT: note_on channel=8 note=54 velocity=59 time=0.0015625
EXTRACT: note_on channel=7 note=59 velocity=59 time=0.003125
EXTRACT: note_on channel=12 note=71 velocity=69 time=0
EXTRACT: note_on channel=11 note=83 velocity=87 time=0.0015625
EXTRACT: note_on channel=8 note=50 velocity=59 time=0.0015625
EXTRACT: note_on channel=8 note=47 velocity=61 time=0
EXTRACT: note_on channel=2 note=54 velocity=92 time=0.0015625
EXTRACT: note_on channel=3 note=85 velocity=93 time=0
EXTRACT: note_on channel=6 note=59 velocity=73 time=0
EXTRACT: note_on channel=7 note=71 velocity=62 time=0
EXTRACT: note_on channel=7 note=74 velocity=59 time=0
EXTRACT: note_on channel=11 note=71 velocity=84 time=0
EXTRACT: note_on channel=8 note=59 velocity=58 time=0.0015625
EXTRACT: note_on channel=9 note=35 velocity=115 time=0
EXTRACT: note_on channel=9 note=36 velocity=115 time=0
EXTRACT: note_on channel=2 note=62 velocity=90 time=0.003125
EXTRACT: note_on channel=1 note=35 velocity=77 time=0.0015625
EXTRACT: control_change channel=12 control=10 value=69 time=0.003125
EXTRACT: note_on channel=2 note=59 velocity=91 time=0.003125
EXTRACT: note_on channel=9 note=36 velocity=0 time=0.0171875
EXTRACT: note_on channel=9 note=35 velocity=0 time=0
EXTRACT: control_change channel=12 control=10 value=65 time=0.018750000000000003
EXTRACT: control_change channel=12 control=10 value=61 time=0.0390625
EXTRACT: control_change channel=12 control=10 value=57 time=0.0390625
EXTRACT: note_on channel=12 note=71 velocity=0 time=0.0078125
EXTRACT: note_on channel=11 note=71 velocity=0 time=0.0078125
EXTRACT: note_on channel=11 note=83 velocity=0 time=0
EXTRACT: note_on channel=12 note=71 velocity=70 time=0.0484375
EXTRACT: control_change channel=12 control=10 value=49 time=0.0140625
EXTRACT: control_change channel=12 control=10 value=45 time=0.0390625
EXTRACT: control_change channel=12 control=10 value=41 time=0.0390625
EXTRACT: note_on channel=12 note=71 velocity=0 time=0.0390625
EXTRACT: control_change channel=12 control=10 value=37 time=0
EXTRACT: note_on channel=3 note=85 velocity=0 time=0.03125
EXTRACT: note_on channel=11 note=83 velocity=87 time=0.0140625
EXTRACT: note_on channel=3 note=83 velocity=82 time=0.009375000000000001
EXTRACT: note_on channel=12 note=71 velocity=68 time=0
EXTRACT: note_on channel=11 note=71 velocity=87 time=0.004687500000000001
EXTRACT: control_change channel=12 control=10 value=29 time=0.018750000000000003
EXTRACT: control_change channel=12 control=10 value=25 time=0.0390625
EXTRACT: control_change channel=12 control=10 value=21 time=0.0390625
EXTRACT: note_on channel=12 note=71 velocity=0 time=0.03125
EXTRACT: note_on channel=11 note=71 velocity=0 time=0.0078125
EXTRACT: note_on channel=11 note=83 velocity=0 time=0
EXTRACT: control_change channel=12 control=10 value=17 time=0
EXTRACT: note_on channel=12 note=73 velocity=68 time=0.045312500000000006
EXTRACT: note_on channel=9 note=35 velocity=115 time=0.0015625
EXTRACT: note_on channel=9 note=36 velocity=115 time=0
EXTRACT: note_on channel=11 note=85 velocity=86 time=0
EXTRACT: note_on channel=11 note=73 velocity=83 time=0.0125
EXTRACT: note_on channel=9 note=36 velocity=0 time=0.015625
EXTRACT: note_on channel=9 note=35 velocity=0 time=0
EXTRACT: control_change channel=12 control=10 value=19 time=0.003125
EXTRACT: control_change channel=12 control=10 value=23 time=0.0390625
EXTRACT: control_change channel=12 control=10 value=27 time=0.0390625
EXTRACT: note_on channel=12 note=73 velocity=0 time=0.0234375
EXTRACT: note_on channel=11 note=73 velocity=0 time=0.0078125
EXTRACT: note_on channel=11 note=85 velocity=0 time=0
EXTRACT: note_on channel=9 note=39 velocity=115 time=0.0421875
EXTRACT: note_on channel=11 note=86 velocity=85 time=0.00625
EXTRACT: note_on channel=11 note=74 velocity=83 time=0.0015625
EXTRACT: note_on channel=12 note=74 velocity=68 time=0.0015625
EXTRACT: note_on channel=4 note=73 velocity=86 time=0.0078125
EXTRACT: note_on channel=9 note=39 velocity=0 time=0.010937500000000001
EXTRACT: control_change channel=12 control=10 value=39 time=0.015625
EXTRACT: control_change channel=12 control=10 value=43 time=0.0390625
EXTRACT: control_change channel=12 control=10 value=47 time=0.0390625
EXTRACT: note_on channel=12 note=74 velocity=0 time=0.015625
EXTRACT: note_on channel=11 note=74 velocity=0 time=0.0078125
EXTRACT: note_on channel=11 note=86 velocity=0 time=0
EXTRACT: note_on channel=4 note=73 velocity=0 time=0.015625
EXTRACT: note_on channel=12 note=74 velocity=69 time=0.026562500000000003
EXTRACT: note_on channel=4 note=71 velocity=72 time=0.0125
EXTRACT: control_change channel=12 control=10 value=55 time=0
EXTRACT: control_change channel=12 control=10 value=59 time=0.0390625
EXTRACT: control_change channel=12 control=10 value=63 time=0.0390625
EXTRACT: control_change channel=12 control=10 value=67 time=0.0390625
EXTRACT: note_on channel=12 note=74 velocity=0 time=0.0078125
EXTRACT: note_on channel=2 note=62 velocity=0 time=0.0234375
EXTRACT: note_on channel=4 note=71 velocity=0 time=0
EXTRACT: note_on channel=3 note=83 velocity=0 time=0.0078125
EXTRACT: note_on channel=2 note=62 velocity=78 time=0.0171875
EXTRACT: note_on channel=11 note=86 velocity=86 time=0
EXTRACT: note_on channel=4 note=71 velocity=77 time=0.003125
EXTRACT: note_on channel=11 note=74 velocity=86 time=0
EXTRACT: note_on channel=12 note=74 velocity=68 time=0.010937500000000001
EXTRACT: control_change channel=12 control=10 value=75 time=0.0078125
EXTRACT: control_change channel=12 control=10 value=79 time=0.0390625
EXTRACT: control_change channel=12 control=10 value=83 time=0.0390625
EXTRACT: note_on channel=12 note=74 velocity=0 time=0.0390625
EXTRACT: control_change channel=12 control=10 value=87 time=0
EXTRACT: note_on channel=11 note=74 velocity=0 time=0.0078125
EXTRACT: note_on channel=11 note=86 velocity=0 time=0
EXTRACT: note_on channel=12 note=74 velocity=71 time=0.0484375
EXTRACT: control_change channel=12 control=10 value=95 time=0.021875000000000002
EXTRACT: control_change channel=12 control=10 value=99 time=0.0390625
EXTRACT: control_change channel=12 control=10 value=103 time=0.0390625
EXTRACT: note_on channel=12 note=74 velocity=0 time=0.03125
EXTRACT: control_change channel=12 control=10 value=107 time=0.0078125
EXTRACT: note_on channel=2 note=62 velocity=0 time=0.015625
EXTRACT: note_on channel=2 note=59 velocity=0 time=0
EXTRACT: note_on channel=2 note=47 velocity=0 time=0
EXTRACT: note_on channel=4 note=71 velocity=0 time=0
EXTRACT: note_on channel=2 note=47 velocity=90 time=0.029687500000000002
EXTRACT: note_on channel=9 note=36 velocity=115 time=0.0015625
EXTRACT: note_on channel=2 note=59 velocity=86 time=0.0015625
EXTRACT: note_on channel=12 note=74 velocity=72 time=0.0015625
EXTRACT: note_on channel=11 note=74 velocity=87 time=0.0015625
EXTRACT: note_on channel=3 note=86 velocity=90 time=0.0015625
EXTRACT: note_on channel=2 note=62 velocity=90 time=0.0015625
EXTRACT: note_on channel=11 note=86 velocity=84 time=0.0015625
EXTRACT: note_on channel=9 note=36 velocity=0 time=0.018750000000000003
EXTRACT: control_change channel=12 control=10 value=115 time=0.003125
EXTRACT: control_change channel=12 control=10 value=119 time=0.0390625
EXTRACT: control_change channel=12 control=10 value=123 time=0.0390625
EXTRACT: note_on channel=12 note=74 velocity=0 time=0.0234375
EXTRACT: note_on channel=11 note=86 velocity=0 time=0.0078125
EXTRACT: note_on channel=11 note=74 velocity=0 time=0
EXTRACT: note_on channel=2 note=54 velocity=0 time=0.203125
EXTRACT: note_on channel=3 note=86 velocity=0 time=0.0078125
EXTRACT: note_on channel=12 note=74 velocity=72 time=0.018750000000000003
EXTRACT: note_on channel=3 note=85 velocity=80 time=0.0015625
EXTRACT: note_on channel=11 note=74 velocity=87 time=0.0015625
EXTRACT: note_on channel=2 note=54 velocity=78 time=0.00625
EXTRACT: control_change channel=12 control=10 value=97 time=0.003125
EXTRACT: note_on channel=11 note=86 velocity=87 time=0.003125
EXTRACT: control_change channel=12 control=10 value=93 time=0.035937500000000004
EXTRACT: control_change channel=12 control=10 value=89 time=0.0390625
EXTRACT: control_change channel=12 control=10 value=85 time=0.0390625
EXTRACT: note_on channel=12 note=74 velocity=0 time=0.0078125
EXTRACT: note_on channel=11 note=86 velocity=0 time=0.0078125
EXTRACT: note_on channel=11 note=74 velocity=0 time=0
EXTRACT: note_on channel=9 note=35 velocity=115 time=0.046875
EXTRACT: note_on channel=9 note=36 velocity=115 time=0
EXTRACT: note_on channel=9 note=36 velocity=0 time=0.028125
EXTRACT: note_on channel=9 note=35 velocity=0 time=0
EXTRACT: note_on channel=2 note=54 velocity=0 time=0.12812500000000002
EXTRACT: note_on channel=2 note=62 velocity=0 time=0
EXTRACT: note_on channel=2 note=59 velocity=0 time=0
EXTRACT: note_on channel=3 note=85 velocity=0 time=0.0078125
EXTRACT: note_on channel=2 note=59 velocity=87 time=0.0171875
EXTRACT: note_on channel=2 note=54 velocity=88 time=0.0015625
EXTRACT: note_on channel=9 note=39 velocity=113 time=0
EXTRACT: note_on channel=11 note=86 velocity=86 time=0
EXTRACT: note_on channel=12 note=74 velocity=72 time=0.0125
EXTRACT: note_on channel=3 note=83 velocity=85 time=0.0015625
EXTRACT: note_on channel=11 note=74 velocity=86 time=0.0015625
EXTRACT: note_on channel=2 note=62 velocity=85 time=0.0015625
EXTRACT: note_on channel=9 note=39 velocity=0 time=0.010937500000000001
EXTRACT: control_change channel=12 control=10 value=57 time=0
EXTRACT: control_change channel=12 control=10 value=53 time=0.0390625
EXTRACT: control_change channel=12 control=10 value=49 time=0.0390625
EXTRACT: note_on channel=12 note=74 velocity=0 time=0.03125
EXTRACT: note_on channel=11 note=74 velocity=0 time=0.0078125
EXTRACT: note_on channel=11 note=86 velocity=0 time=0
EXTRACT: control_change channel=12 control=10 value=45 time=0
EXTRACT: note_on channel=4 note=69 velocity=74 time=0.0390625
EXTRACT: note_on channel=11 note=85 velocity=86 time=0
EXTRACT: note_on channel=12 note=73 velocity=69 time=0
EXTRACT: control_change channel=12 control=10 value=41 time=0
EXTRACT: note_on channel=4 note=66 velocity=76 time=0.0015625
EXTRACT: note_on channel=11 note=73 velocity=85 time=0.004687500000000001
EXTRACT: note_on channel=9 note=35 velocity=115 time=0.0015625
EXTRACT: note_on channel=9 note=36 velocity=115 time=0
EXTRACT: note_on channel=10 note=60 velocity=60 time=0
EXTRACT: note_on channel=4 note=73 velocity=74 time=0.003125
EXTRACT: note_on channel=9 note=36 velocity=0 time=0.025
EXTRACT: note_on channel=9 note=35 velocity=0 time=0
EXTRACT: note_on channel=10 note=60 velocity=0 time=0
EXTRACT: control_change channel=12 control=10 value=37 time=0.003125
EXTRACT: control_change channel=12 control=10 value=33 time=0.0390625
EXTRACT: control_change channel=12 control=10 value=29 time=0.0390625
EXTRACT: note_on channel=12 note=73 velocity=0 time=0.0234375
EXTRACT: note_on channel=11 note=73 velocity=0 time=0.0078125
EXTRACT: note_on channel=11 note=85 velocity=0 time=0
EXTRACT: note_on channel=2 note=62 velocity=0 time=0.015625
EXTRACT: note_on channel=2 note=54 velocity=0 time=0
EXTRACT: note_on channel=2 note=59 velocity=0 time=0
EXTRACT: note_on channel=4 note=73 velocity=0 time=0
EXTRACT: note_on channel=4 note=66 velocity=0 time=0
EXTRACT: note_on channel=4 note=69 velocity=0 time=0
EXTRACT: note_on channel=3 note=83 velocity=0 time=0.0078125
EXTRACT: note_on channel=11 note=86 velocity=87 time=0.010937500000000001
EXTRACT: note_on channel=2 note=54 velocity=78 time=0.003125
EXTRACT: note_on channel=3 note=81 velocity=77 time=0.0015625
EXTRACT: note_on channel=4 note=66 velocity=77 time=0.0015625
EXTRACT: note_on channel=2 note=59 velocity=79 time=0.003125
EXTRACT: note_on channel=9 note=35 velocity=115 time=0.003125
EXTRACT: note_on channel=9 note=36 velocity=115 time=0
EXTRACT: note_on channel=10 note=60 velocity=78 time=0
EXTRACT: note_on channel=2 note=62 velocity=77 time=0.0015625
EXTRACT: note_on channel=4 note=69 velocity=77 time=0.003125
EXTRACT: note_on channel=4 note=73 velocity=78 time=0.0015625
EXTRACT: note_on channel=12 note=74 velocity=68 time=0
EXTRACT: note_on channel=11 note=74 velocity=86 time=0.003125
EXTRACT: note_on channel=9 note=36 velocity=0 time=0.018750000000000003
EXTRACT: note_on channel=9 note=35 velocity=0 time=0
EXTRACT: note_on channel=10 note=60 velocity=0 time=0
EXTRACT: control_change channel=12 control=10 value=17 time=0.010937500000000001
EXTRACT: control_change channel=12 control=10 value=15 time=0.0390625
EXTRACT: control_change channel=12 control=10 value=19 time=0.0390625
EXTRACT: note_on channel=12 note=74 velocity=0 time=0.015625
EXTRACT: note_on channel=11 note=74 velocity=0 time=0.0078125
EXTRACT: note_on channel=11 note=86 velocity=0 time=0
EXTRACT: note_on channel=4 note=73 velocity=0 time=0.015625
EXTRACT: note_on channel=4 note=69 velocity=0 time=0
EXTRACT: note_on channel=4 note=66 velocity=0 time=0
EXTRACT: note_on channel=3 note=81 velocity=0 time=0.0078125
EXTRACT: note_on channel=3 note=83 velocity=79 time=0.0203125
EXTRACT: note_on channel=11 note=73 velocity=84 time=0
EXTRACT: note_on channel=9 note=35 velocity=115 time=0.003125
EXTRACT: note_on channel=9 note=36 velocity=115 time=0
EXTRACT: note_on channel=10 note=60 velocity=96 time=0
EXTRACT: note_on channel=11 note=85 velocity=85 time=0.003125
EXTRACT: note_on channel=12 note=73 velocity=71 time=0
EXTRACT: note_on channel=4 note=73 velocity=81 time=0.0015625
EXTRACT: note_on channel=4 note=69 velocity=78 time=0
EXTRACT: control_change channel=12 control=10 value=27 time=0.003125
EXTRACT: note_on channel=4 note=66 velocity=79 time=0.0015625
EXTRACT: note_on channel=9 note=36 velocity=0 time=0.018750000000000003
EXTRACT: note_on channel=9 note=35 velocity=0 time=0
EXTRACT: note_on channel=10 note=60 velocity=0 time=0
EXTRACT: control_change channel=12 control=10 value=31 time=0.018750000000000003
EXTRACT: control_change channel=12 control=10 value=35 time=0.0390625
EXTRACT: control_change channel=12 control=10 value=39 time=0.0390625
EXTRACT: note_on channel=12 note=73 velocity=0 time=0.0078125
EXTRACT: note_on channel=11 note=85 velocity=0 time=0.0078125
EXTRACT: note_on channel=11 note=73 velocity=0 time=0
EXTRACT: note_on channel=1 note=35 velocity=0 time=0.0078125
EXTRACT: note_on channel=2 note=62 velocity=0 time=0.0078125
EXTRACT: note_on channel=2 note=47 velocity=0 time=0
EXTRACT: note_on channel=2 note=54 velocity=0 time=0
EXTRACT: note_on channel=2 note=59 velocity=0 time=0
EXTRACT: note_on channel=4 note=66 velocity=0 time=0
EXTRACT: note_on channel=4 note=69 velocity=0 time=0
EXTRACT: note_on channel=4 note=73 velocity=0 time=0
EXTRACT: note_on channel=6 note=59 velocity=0 time=0
EXTRACT: note_on channel=7 note=74 velocity=0 time=0
EXTRACT: note_on channel=7 note=71 velocity=0 time=0
EXTRACT: note_on channel=7 note=59 velocity=0 time=0
EXTRACT: note_on channel=8 note=59 velocity=0 time=0
EXTRACT: note_on channel=8 note=54 velocity=0 time=0
EXTRACT: note_on channel=8 note=50 velocity=0 time=0
EXTRACT: note_on channel=8 note=47 velocity=0 time=0
EXTRACT: note_on channel=3 note=83 velocity=0 time=0.0078125
EXTRACT: note_on channel=7 note=69 velocity=60 time=0.010937500000000001
EXTRACT: note_on channel=12 note=69 velocity=72 time=0
EXTRACT: note_on channel=2 note=54 velocity=91 time=0.0078125
EXTRACT: note_on channel=2 note=61 velocity=90 time=0.0015625
EXTRACT: note_on channel=7 note=54 velocity=61 time=0.0015625
EXTRACT: note_on channel=11 note=81 velocity=84 time=0
EXTRACT: note_on channel=3 note=85 velocity=93 time=0.0015625
EXTRACT: note_on channel=8 note=54 velocity=60 time=0
EXTRACT: note_on channel=9 note=35 velocity=115 time=0
EXTRACT: note_on channel=9 note=36 velocity=115 time=0
EXTRACT: note_on channel=10 note=60 velocity=115 time=0
EXTRACT: note_on channel=1 note=42 velocity=77 time=0.0015625
EXTRACT: note_on channel=2 note=57 velocity=91 time=0
EXTRACT: note_on channel=8 note=42 velocity=59 time=0
EXTRACT: note_on channel=8 note=49 velocity=62 time=0.0015625
EXTRACT: note_on channel=7 note=66 velocity=61 time=0.0015625
EXTRACT: note_on channel=11 note=69 velocity=86 time=0
EXTRACT: note_on channel=2 note=42 velocity=93 time=0.003125
EXTRACT: note_on channel=8 note=57 velocity=61 time=0.0015625
EXTRACT: note_on channel=6 note=54 velocity=77 time=0.0015625
EXTRACT: control_change channel=12 control=10 value=47 time=0.004687500000000001
EXTRACT: note_on channel=9 note=36 velocity=0 time=0.0125
EXTRACT: note_on channel=9 note=35 velocity=0 time=0
EXTRACT: note_on channel=10 note=60 velocity=0 time=0
EXTRACT: control_change channel=12 control=10 value=51 time=0.026562500000000003
EXTRACT: control_change channel=12 control=10 value=55 time=0.0390625
EXTRACT: note_on channel=12 note=69 velocity=0 time=0.0390625
EXTRACT: control_change channel=12 control=10 value=59 time=0
EXTRACT: note_on channel=11 note=69 velocity=0 time=0.0078125
EXTRACT: note_on channel=11 note=81 velocity=0 time=0
EXTRACT: note_on channel=3 note=85 velocity=0 time=0.2109375
EXTRACT: note_on channel=11 note=66 velocity=83 time=0.0125
EXTRACT: note_on channel=3 note=83 velocity=79 time=0.0125
EXTRACT: note_on channel=11 note=78 velocity=84 time=0.0015625
EXTRACT: note_on channel=12 note=66 velocity=72 time=0.0015625
EXTRACT: control_change channel=12 control=10 value=87 time=0.026562500000000003
EXTRACT: control_change channel=12 control=10 value=91 time=0.0390625
EXTRACT: control_change channel=12 control=10 value=95 time=0.0390625
EXTRACT: note_on channel=12 note=66 velocity=0 time=0.0234375
EXTRACT: note_on channel=11 note=78 velocity=0 time=0.0078125
EXTRACT: note_on channel=11 note=66 velocity=0 time=0
EXTRACT: note_on channel=11 note=68 velocity=87 time=0.037500000000000006
EXTRACT: note_on channel=11 note=80 velocity=84 time=0.0015625
EXTRACT: control_change channel=12 control=10 value=103 time=0.0078125
EXTRACT: note_on channel=12 note=68 velocity=68 time=0.004687500000000001
EXTRACT: control_change channel=12 control=10 value=107 time=0.034375
EXTRACT: control_change channel=12 control=10 value=111 time=0.0390625
EXTRACT: control_change channel=12 control=10 value=115 time=0.0390625
EXTRACT: note_on channel=12 note=68 velocity=0 time=0.015625
EXTRACT: note_on channel=11 note=80 velocity=0 time=0.0078125
EXTRACT: note_on channel=11 note=68 velocity=0 time=0
EXTRACT: note_on channel=2 note=54 velocity=0 time=0.015625
EXTRACT: note_on channel=9 note=39 velocity=116 time=0.0203125
EXTRACT: note_on channel=4 note=69 velocity=88 time=0.0015625
EXTRACT: note_on channel=4 note=73 velocity=88 time=0.004687500000000001
EXTRACT: note_on channel=4 note=66 velocity=88 time=0.0015625
EXTRACT: note_on channel=2 note=54 velocity=88 time=0.003125
EXTRACT: note_on channel=11 note=81 velocity=84 time=0
EXTRACT: note_on channel=12 note=69 velocity=68 time=0
EXTRACT: note_on channel=11 note=69 velocity=85 time=0.004687500000000001
EXTRACT: control_change channel=12 control=10 value=123 time=0.003125
EXTRACT: note_on channel=9 note=39 velocity=0 time=0.009375000000000001
EXTRACT: control_change channel=12 control=10 value=121 time=0.029687500000000002
EXTRACT: control_change channel=12 control=10 value=117 time=0.0390625
EXTRACT: control_change channel=12 control=10 value=113 time=0.0390625
EXTRACT: note_on channel=12 note=69 velocity=0 time=0.0078125
EXTRACT: note_on channel=11 note=69 velocity=0 time=0.0078125
EXTRACT: note_on channel=11 note=81 velocity=0 time=0
EXTRACT: note_on channel=4 note=73 velocity=0 time=0.015625
EXTRACT: note_on channel=4 note=71 velocity=70 time=0.037500000000000006
EXTRACT: note_on channel=2 note=57 velocity=0 time=0.15000000000000002
EXTRACT: note_on channel=4 note=71 velocity=0 time=0
EXTRACT: note_on channel=4 note=66 velocity=0 time=0
EXTRACT: note_on channel=4 note=69 velocity=0 time=0
EXTRACT: note_on channel=3 note=83 velocity=0 time=0.0078125
EXTRACT: note_on channel=12 note=69 velocity=68 time=0.010937500000000001
EXTRACT: note_on channel=2 note=57 velocity=82 time=0.0015625
EXTRACT: note_on channel=4 note=69 velocity=80 time=0.0015625
EXTRACT: note_on channel=11 note=81 velocity=84 time=0.004687500000000001
EXTRACT: note_on channel=4 note=66 velocity=78 time=0.003125
EXTRACT: note_on channel=4 note=71 velocity=80 time=0.004687500000000001
EXTRACT: note_on channel=11 note=69 velocity=86 time=0.00625
EXTRACT: control_change channel=12 control=10 value=85 time=0.0140625
EXTRACT: control_change channel=12 control=10 value=81 time=0.0390625
EXTRACT: control_change channel=12 control=10 value=77 time=0.0390625
EXTRACT: note_on channel=12 note=69 velocity=0 time=0.03125
EXTRACT: note_on channel=11 note=69 velocity=0 time=0.0078125
EXTRACT: note_on channel=11 note=81 velocity=0 time=0
EXTRACT: control_change channel=12 control=10 value=73 time=0
EXTRACT: note_on channel=4 note=71 velocity=0 time=0.203125
EXTRACT: note_on channel=4 note=66 velocity=0 time=0
EXTRACT: note_on channel=4 note=69 velocity=0 time=0
EXTRACT: note_on channel=3 note=85 velocity=87 time=0.0203125
EXTRACT: note_on channel=11 note=81 velocity=85 time=0.0015625
EXTRACT: note_on channel=11 note=69 velocity=87 time=0.0078125
EXTRACT: note_on channel=9 note=36 velocity=115 time=0.0015625
EXTRACT: note_on channel=12 note=69 velocity=69 time=0.009375000000000001
EXTRACT: note_on channel=9 note=36 velocity=0 time=0.018750000000000003
EXTRACT: control_change channel=12 control=10 value=45 time=0.010937500000000001
EXTRACT: control_change channel=12 control=10 value=41 time=0.0390625
EXTRACT: control_change channel=12 control=10 value=37 time=0.0390625
EXTRACT: note_on channel=12 note=69 velocity=0 time=0.015625
EXTRACT: note_on channel=11 note=69 velocity=0 time=0.0078125
EXTRACT: note_on channel=11 note=81 velocity=0 time=0
EXTRACT: note_on channel=2 note=54 velocity=0 time=0.203125
EXTRACT: note_on channel=3 note=85 velocity=0 time=0.0078125
EXTRACT: note_on channel=2 note=54 velocity=77 time=0.015625
EXTRACT: note_on channel=3 note=83 velocity=78 time=0.003125
EXTRACT: note_on channel=9 note=35 velocity=115 time=0.004687500000000001
EXTRACT: note_on channel=9 note=36 velocity=115 time=0
EXTRACT: note_on channel=11 note=69 velocity=87 time=0.004687500000000001
EXTRACT: note_on channel=11 note=81 velocity=84 time=0.004687500000000001
EXTRACT: note_on channel=12 note=69 velocity=68 time=0
EXTRACT: control_change channel=12 control=10 value=19 time=0.00625
EXTRACT: note_on channel=9 note=36 velocity=0 time=0.0125
EXTRACT: note_on channel=9 note=35 velocity=0 time=0
EXTRACT: control_change channel=12 control=10 value=23 time=0.026562500000000003
EXTRACT: control_change channel=12 control=10 value=27 time=0.0390625
EXTRACT: note_on channel=12 note=69 velocity=0 time=0.0390625
EXTRACT: control_change channel=12 control=10 value=31 time=0
EXTRACT: note_on channel=11 note=81 velocity=0 time=0.0078125
EXTRACT: note_on channel=11 note=69 velocity=0 time=0
EXTRACT: note_on channel=3 note=83 velocity=0 time=0.0234375
EXTRACT: note_on channel=3 note=81 velocity=81 time=0.010937500000000001
EXTRACT: note_on channel=2 note=57 velocity=0 time=0.16875
EXTRACT: note_on channel=3 note=81 velocity=0 time=0.0078125
EXTRACT: note_on channel=12 note=69 velocity=69 time=0.0140625
EXTRACT: control_change channel=12 control=10 value=55 time=0.0015625
EXTRACT: note_on channel=2 note=57 velocity=89 time=0.0015625
EXTRACT: note_on channel=11 note=81 velocity=86 time=0.010937500000000001
EXTRACT: note_on channel=9 note=39 velocity=117 time=0.00625
EXTRACT: note_on channel=3 note=78 velocity=90 time=0.0015625
EXTRACT: note_on channel=11 note=69 velocity=87 time=0
EXTRACT: control_change channel=12 control=10 value=59 time=0.018750000000000003
EXTRACT: note_on channel=9 note=39 velocity=0 time=0.0078125
EXTRACT: control_change channel=12 control=10 value=63 time=0.03125
EXTRACT: control_change channel=12 control=10 value=67 time=0.0390625
EXTRACT: note_on channel=12 note=69 velocity=0 time=0.0234375
EXTRACT: note_on channel=11 note=69 velocity=0 time=0.0078125
EXTRACT: note_on channel=11 note=81 velocity=0 time=0
EXTRACT: note_on channel=3 note=78 velocity=0 time=0.0234375
EXTRACT: note_on channel=4 note=61 velocity=71 time=0.010937500000000001
EXTRACT: note_on channel=4 note=66 velocity=75 time=0.0125
EXTRACT: note_on channel=4 note=64 velocity=73 time=0
EXTRACT: note_on channel=9 note=35 velocity=115 time=0
EXTRACT: note_on channel=9 note=36 velocity=115 time=0
EXTRACT: control_change channel=12 control=10 value=75 time=0
EXTRACT: note_on channel=12 note=69 velocity=69 time=0.0015625
EXTRACT: note_on channel=9 note=36 velocity=0 time=0.026562500000000003
EXTRACT: note_on channel=9 note=35 velocity=0 time=0
EXTRACT: control_change channel=12 control=10 value=79 time=0.010937500000000001
EXTRACT: control_change channel=12 control=10 value=83 time=0.0390625
EXTRACT: control_change channel=12 control=10 value=87 time=0.0390625
EXTRACT: note_on channel=12 note=69 velocity=0 time=0.015625
EXTRACT: note_on channel=4 note=64 velocity=0 time=0.0234375
EXTRACT: note_on channel=4 note=66 velocity=0 time=0
EXTRACT: note_on channel=4 note=61 velocity=0 time=0
EXTRACT: note_on channel=4 note=68 velocity=75 time=0.021875000000000002
EXTRACT: note_on channel=11 note=69 velocity=84 time=0
EXTRACT: note_on channel=2 note=64 velocity=76 time=0.00625
EXTRACT: note_on channel=4 note=69 velocity=78 time=0
EXTRACT: note_on channel=4 note=64 velocity=77 time=0.009375000000000001
EXTRACT: note_on channel=12 note=69 velocity=69 time=0
EXTRACT: control_change channel=12 control=10 value=95 time=0.0015625
EXTRACT: note_on channel=11 note=81 velocity=85 time=0.003125
EXTRACT: control_change channel=12 control=10 value=99 time=0.035937500000000004
EXTRACT: control_change channel=12 control=10 value=103 time=0.0390625
EXTRACT: control_change channel=12 control=10 value=107 time=0.0390625
EXTRACT: note_on channel=12 note=69 velocity=0 time=0.0078125
EXTRACT: note_on channel=11 note=81 velocity=0 time=0.0078125
EXTRACT: note_on channel=11 note=69 velocity=0 time=0
EXTRACT: note_on channel=4 note=64 velocity=0 time=0.015625
EXTRACT: note_on channel=4 note=69 velocity=0 time=0
EXTRACT: note_on channel=4 note=68 velocity=0 time=0
EXTRACT: note_on channel=11 note=81 velocity=85 time=0.026562500000000003
EXTRACT: note_on channel=4 note=71 velocity=76 time=0.0015625
EXTRACT: note_on channel=11 note=69 velocity=85 time=0
EXTRACT: note_on channel=12 note=69 velocity=68 time=0
EXTRACT: note_on channel=4 note=64 velocity=75 time=0.0078125
EXTRACT: note_on channel=4 note=69 velocity=74 time=0
EXTRACT: control_change channel=12 control=10 value=115 time=0.010937500000000001
EXTRACT: control_change channel=12 control=10 value=119 time=0.0390625
EXTRACT: control_change channel=12 control=10 value=123 time=0.0390625
EXTRACT: note_on channel=12 note=69 velocity=0 time=0.0390625
EXTRACT: control_change channel=12 control=10 value=121 time=0
EXTRACT: note_on channel=11 note=69 velocity=0 time=0.0078125
EXTRACT: note_on channel=11 note=81 velocity=0 time=0
EXTRACT: note_on channel=1 note=42 velocity=0 time=0.0078125
EXTRACT: note_on channel=2 note=64 velocity=0 time=0.0078125
EXTRACT: note_on channel=2 note=42 velocity=0 time=0
EXTRACT: note_on channel=2 note=54 velocity=0 time=0
EXTRACT: note_on channel=2 note=61 velocity=0 time=0
EXTRACT: note_on channel=2 note=57 velocity=0 time=0
EXTRACT: note_on channel=4 note=69 velocity=0 time=0
EXTRACT: note_on channel=4 note=64 velocity=0 time=0
EXTRACT: note_on channel=4 note=71 velocity=0 time=0
EXTRACT: note_on channel=6 note=54 velocity=0 time=0
EXTRACT: note_on channel=7 note=66 velocity=0 time=0
EXTRACT: note_on channel=7 note=54 velocity=0 time=0
EXTRACT: note_on channel=7 note=69 velocity=0 time=0
EXTRACT: note_on channel=8 note=57 velocity=0 time=0
EXTRACT: note_on channel=8 note=54 velocity=0 time=0
EXTRACT: note_on channel=8 note=42 velocity=0 time=0
EXTRACT: note_on channel=8 note=49 velocity=0 time=0
EXTRACT: note_on channel=1 note=38 velocity=73 time=0.018750000000000003
EXTRACT: note_on channel=7 note=62 velocity=58 time=0
EXTRACT: note_on channel=8 note=50 velocity=60 time=0.0015625
EXTRACT: note_on channel=11 note=69 velocity=86 time=0
EXTRACT: note_on channel=3 note=85 velocity=93 time=0.003125
EXTRACT: note_on channel=2 note=38 velocity=92 time=0.004687500000000001
EXTRACT: note_on channel=2 note=54 velocity=89 time=0.0015625
EXTRACT: note_on channel=12 note=69 velocity=69 time=0
EXTRACT: note_on channel=6 note=54 velocity=77 time=0.0015625
EXTRACT: note_on channel=7 note=50 velocity=60 time=0
EXTRACT: note_on channel=9 note=35 velocity=115 time=0
EXTRACT: note_on channel=9 note=36 velocity=115 time=0
EXTRACT: note_on channel=10 note=60 velocity=115 time=0
EXTRACT: note_on channel=8 note=38 velocity=58 time=0.0015625
EXTRACT: note_on channel=2 note=62 velocity=90 time=0.0015625
EXTRACT: note_on channel=8 note=57 velocity=58 time=0
EXTRACT: note_on channel=8 note=54 velocity=58 time=0.0015625
EXTRACT: note_on channel=11 note=81 velocity=87 time=0
EXTRACT: note_on channel=2 note=57 velocity=93 time=0.0078125
EXTRACT: note_on channel=7 note=66 velocity=62 time=0
EXTRACT: control_change channel=12 control=10 value=113 time=0.010937500000000001
EXTRACT: note_on channel=9 note=36 velocity=0 time=0.004687500000000001
EXTRACT: note_on channel=9 note=35 velocity=0 time=0
EXTRACT: note_on channel=10 note=60 velocity=0 time=0
EXTRACT: control_change channel=12 control=10 value=109 time=0.034375
EXTRACT: control_change channel=12 control=10 value=105 time=0.0390625
EXTRACT: note_on channel=12 note=69 velocity=0 time=0.03125
EXTRACT: note_on channel=11 note=81 velocity=0 time=0.0078125
EXTRACT: note_on channel=11 note=69 velocity=0 time=0
EXTRACT: control_change channel=12 control=10 value=101 time=0
EXTRACT: note_on channel=2 note=57 velocity=0 time=0.203125
EXTRACT: note_on channel=3 note=85 velocity=0 time=0.0078125
EXTRACT: note_on channel=11 note=66 velocity=83 time=0.010937500000000001
EXTRACT: note_on channel=2 note=59 velocity=61 time=0.0015625
EXTRACT: note_on channel=11 note=78 velocity=85 time=0.010937500000000001
EXTRACT: note_on channel=3 note=83 velocity=82 time=0.0015625
EXTRACT: note_on channel=12 note=66 velocity=71 time=0.009375000000000001
EXTRACT: control_change channel=12 control=10 value=73 time=0.028125
EXTRACT: control_change channel=12 control=10 value=69 time=0.0390625
EXTRACT: control_change channel=12 control=10 value=65 time=0.0390625
EXTRACT: note_on channel=12 note=66 velocity=0 time=0.015625
EXTRACT: note_on channel=11 note=78 velocity=0 time=0.0078125
EXTRACT: note_on channel=11 note=66 velocity=0 time=0
EXTRACT: note_on channel=12 note=68 velocity=72 time=0.043750000000000004
EXTRACT: note_on channel=9 note=35 velocity=115 time=0.003125
EXTRACT: note_on channel=9 note=36 velocity=115 time=0
EXTRACT: note_on channel=11 note=68 velocity=83 time=0.003125
EXTRACT: note_on channel=11 note=80 velocity=83 time=0.0015625
EXTRACT: control_change channel=12 control=10 value=57 time=0.003125
EXTRACT: note_on channel=9 note=36 velocity=0 time=0.0203125
EXTRACT: note_on channel=9 note=35 velocity=0 time=0
EXTRACT: control_change channel=12 control=10 value=53 time=0.018750000000000003
EXTRACT: control_change channel=12 control=10 value=49 time=0.0390625
EXTRACT: control_change channel=12 control=10 value=45 time=0.0390625
EXTRACT: note_on channel=12 note=68 velocity=0 time=0.0078125
EXTRACT: note_on channel=11 note=80 velocity=0 time=0.0078125
EXTRACT: note_on channel=11 note=68 velocity=0 time=0
EXTRACT: note_on channel=11 note=81 velocity=86 time=0.0390625
EXTRACT: note_on channel=4 note=73 velocity=86 time=0.003125
EXTRACT: note_on channel=12 note=69 velocity=70 time=0.004687500000000001
EXTRACT: note_on channel=4 note=57 velocity=86 time=0.003125
EXTRACT: note_on channel=11 note=69 velocity=83 time=0.004687500000000001
EXTRACT: note_on channel=4 note=66 velocity=88 time=0.0015625
EXTRACT: note_on channel=9 note=39 velocity=117 time=0.003125
EXTRACT: control_change channel=12 control=10 value=37 time=0.003125
EXTRACT: note_on channel=9 note=39 velocity=0 time=0.025
EXTRACT: control_change channel=12 control=10 value=33 time=0.0140625
EXTRACT: control_change channel=12 control=10 value=29 time=0.0390625
EXTRACT: note_on channel=12 note=69 velocity=0 time=0.0390625
EXTRACT: control_change channel=12 control=10 value=25 time=0
EXTRACT: note_on channel=11 note=69 velocity=0 time=0.0078125
EXTRACT: note_on channel=11 note=81 velocity=0 time=0
EXTRACT: note_on channel=4 note=66 velocity=0 time=0.015625
EXTRACT: note_on channel=4 note=57 velocity=0 time=0
EXTRACT: note_on channel=4 note=73 velocity=0 time=0
EXTRACT: note_on channel=4 note=66 velocity=72 time=0.035937500000000004
EXTRACT: note_on channel=4 note=57 velocity=74 time=0.003125
EXTRACT: note_on channel=4 note=71 velocity=73 time=0.0015625
EXTRACT: note_on channel=2 note=59 velocity=0 time=0.146875
EXTRACT: note_on channel=4 note=71 velocity=0 time=0
EXTRACT: note_on channel=4 note=57 velocity=0 time=0
EXTRACT: note_on channel=4 note=66 velocity=0 time=0
EXTRACT: note_on channel=3 note=83 velocity=0 time=0.0078125
EXTRACT: note_on channel=11 note=81 velocity=86 time=0.0140625
EXTRACT: control_change channel=12 control=10 value=27 time=0.0015625
EXTRACT: note_on channel=4 note=71 velocity=79 time=0.0015625
EXTRACT: note_on channel=12 note=69 velocity=70 time=0.0015625
EXTRACT: note_on channel=2 note=57 velocity=61 time=0.0015625
EXTRACT: note_on channel=4 note=66 velocity=77 time=0.0078125
EXTRACT: note_on channel=11 note=69 velocity=87 time=0
EXTRACT: note_on channel=4 note=57 velocity=76 time=0.00625
EXTRACT: control_change channel=12 control=10 value=31 time=0.0203125
EXTRACT: control_change channel=12 control=10 value=35 time=0.0390625
EXTRACT: control_change channel=12 control=10 value=39 time=0.0390625
EXTRACT: note_on channel=12 note=69 velocity=0 time=0.0234375
EXTRACT: note_on channel=11 note=69 velocity=0 time=0.0078125
EXTRACT: note_on channel=11 note=81 velocity=0 time=0
EXTRACT: note_on channel=2 note=54 velocity=0 time=0.203125
EXTRACT: note_on channel=4 note=57 velocity=0 time=0
EXTRACT: note_on channel=4 note=66 velocity=0 time=0
EXTRACT: note_on channel=4 note=71 velocity=0 time=0
EXTRACT: note_on channel=3 note=83 velocity=87 time=0.03125
EXTRACT: note_on channel=9 note=36 velocity=115 time=0
EXTRACT: note_on channel=2 note=54 velocity=90 time=0.004687500000000001
EXTRACT: note_on channel=11 note=69 velocity=86 time=0
EXTRACT: control_change channel=12 control=10 value=67 time=0.003125
EXTRACT: note_on channel=11 note=81 velocity=86 time=0.004687500000000001
EXTRACT: note_on channel=12 note=69 velocity=68 time=0
EXTRACT: note_on channel=9 note=36 velocity=0 time=0.015625
EXTRACT: control_change channel=12 control=10 value=71 time=0.018750000000000003
EXTRACT: control_change channel=12 control=10 value=75 time=0.0390625
EXTRACT: control_change channel=12 control=10 value=79 time=0.0390625
EXTRACT: note_on channel=12 note=69 velocity=0 time=0.0078125
EXTRACT: note_on channel=11 note=81 velocity=0 time=0.0078125
EXTRACT: note_on channel=11 note=69 velocity=0 time=0
EXTRACT: note_on channel=12 note=69 velocity=71 time=0.046875
EXTRACT: control_change channel=12 control=10 value=87 time=0.015625
EXTRACT: control_change channel=12 control=10 value=91 time=0.0390625
EXTRACT: control_change channel=12 control=10 value=95 time=0.0390625
EXTRACT: note_on channel=12 note=69 velocity=0 time=0.0390625
EXTRACT: control_change channel=12 control=10 value=99 time=0
EXTRACT: note_on channel=3 note=83 velocity=0 time=0.03125
EXTRACT: note_on channel=3 note=81 velocity=77 time=0.018750000000000003
EXTRACT: note_on channel=11 note=81 velocity=87 time=0.0015625
EXTRACT: note_on channel=12 note=69 velocity=68 time=0.00625
EXTRACT: note_on channel=11 note=69 velocity=83 time=0.009375000000000001
EXTRACT: control_change channel=12 control=10 value=107 time=0.010937500000000001
EXTRACT: control_change channel=12 control=10 value=111 time=0.0390625
EXTRACT: control_change channel=12 control=10 value=115 time=0.0390625
EXTRACT: note_on channel=12 note=69 velocity=0 time=0.03125
EXTRACT: note_on channel=11 note=69 velocity=0 time=0.0078125
EXTRACT: note_on channel=11 note=81 velocity=0 time=0
EXTRACT: control_change channel=12 control=10 value=119 time=0
EXTRACT: note_on channel=9 note=35 velocity=115 time=0.046875
EXTRACT: note_on channel=9 note=36 velocity=115 time=0
EXTRACT: note_on channel=12 note=69 velocity=69 time=0.0015625
EXTRACT: note_on channel=9 note=36 velocity=0 time=0.026562500000000003
EXTRACT: note_on channel=9 note=35 velocity=0 time=0
EXTRACT: control_change channel=12 control=10 value=121 time=0.003125
EXTRACT: control_change channel=12 control=10 value=117 time=0.0390625
EXTRACT: control_change channel=12 control=10 value=113 time=0.0390625
EXTRACT: note_on channel=12 note=69 velocity=0 time=0.0234375
EXTRACT: note_on channel=2 note=50 velocity=85 time=0.0484375
EXTRACT: note_on channel=12 note=69 velocity=69 time=0.0015625
EXTRACT: control_change channel=12 control=10 value=105 time=0.004687500000000001
EXTRACT: note_on channel=9 note=39 velocity=114 time=0.004687500000000001
EXTRACT: note_on channel=11 note=81 velocity=87 time=0
EXTRACT: note_on channel=11 note=69 velocity=83 time=0.003125
EXTRACT: note_on channel=9 note=39 velocity=0 time=0.025
EXTRACT: control_change channel=12 control=10 value=101 time=0.00625
EXTRACT: control_change channel=12 control=10 value=97 time=0.0390625
EXTRACT: control_change channel=12 control=10 value=93 time=0.0390625
EXTRACT: note_on channel=12 note=69 velocity=0 time=0.015625
EXTRACT: note_on channel=11 note=69 velocity=0 time=0.0078125
EXTRACT: note_on channel=11 note=81 velocity=0 time=0
EXTRACT: note_on channel=11 note=71 velocity=85 time=0.043750000000000004
EXTRACT: note_on channel=12 note=71 velocity=70 time=0
EXTRACT: note_on channel=11 note=83 velocity=83 time=0.0015625
EXTRACT: note_on channel=9 note=35 velocity=115 time=0.0015625
EXTRACT: note_on channel=9 note=36 velocity=115 time=0
EXTRACT: note_on channel=4 note=69 velocity=76 time=0.004687500000000001
EXTRACT: control_change channel=12 control=10 value=85 time=0.003125
EXTRACT: note_on channel=9 note=36 velocity=0 time=0.0203125
EXTRACT: note_on channel=9 note=35 velocity=0 time=0
EXTRACT: control_change channel=12 control=10 value=81 time=0.018750000000000003
EXTRACT: control_change channel=12 control=10 value=77 time=0.0390625
EXTRACT: control_change channel=12 control=10 value=73 time=0.0390625
EXTRACT: note_on channel=12 note=71 velocity=0 time=0.0078125
EXTRACT: note_on channel=11 note=83 velocity=0 time=0.0078125
EXTRACT: note_on channel=11 note=71 velocity=0 time=0
EXTRACT: note_on channel=2 note=38 velocity=0 time=0.015625
EXTRACT: note_on channel=4 note=69 velocity=0 time=0
EXTRACT: note_on channel=12 note=73 velocity=69 time=0.021875000000000002
EXTRACT: note_on channel=4 note=69 velocity=80 time=0.009375000000000001
EXTRACT: note_on channel=9 note=35 velocity=115 time=0
EXTRACT: note_on channel=9 note=36 velocity=115 time=0
EXTRACT: note_on channel=11 note=85 velocity=87 time=0.004687500000000001
EXTRACT: note_on channel=2 note=38 velocity=77 time=0.0015625
EXTRACT: note_on channel=11 note=73 velocity=87 time=0
EXTRACT: control_change channel=12 control=10 value=65 time=0.009375000000000001
EXTRACT: note_on channel=9 note=36 velocity=0 time=0.0125
EXTRACT: note_on channel=9 note=35 velocity=0 time=0
EXTRACT: control_change channel=12 control=10 value=61 time=0.026562500000000003
EXTRACT: control_change channel=12 control=10 value=57 time=0.0390625
EXTRACT: note_on channel=12 note=73 velocity=0 time=0.0390625
EXTRACT: control_change channel=12 control=10 value=53 time=0
EXTRACT: note_on channel=11 note=73 velocity=0 time=0.0078125
EXTRACT: note_on channel=11 note=85 velocity=0 time=0
EXTRACT: note_on channel=4 note=69 velocity=0 time=0.015625
EXTRACT: note_on channel=11 note=71 velocity=86 time=0.0234375
EXTRACT: note_on channel=4 note=71 velocity=79 time=0.0078125
EXTRACT: note_on channel=9 note=36 velocity=115 time=0
EXTRACT: note_on channel=11 note=83 velocity=87 time=0.004687500000000001
EXTRACT: note_on channel=12 note=71 velocity=70 time=0.004687500000000001
EXTRACT: control_change channel=12 control=10 value=45 time=0.0140625
EXTRACT: note_on channel=9 note=36 velocity=0 time=0.004687500000000001
EXTRACT: control_change channel=12 control=10 value=41 time=0.034375
EXTRACT: control_change channel=12 control=10 value=37 time=0.0390625
EXTRACT: note_on channel=12 note=71 velocity=0 time=0.03125
EXTRACT: note_on channel=11 note=83 velocity=0 time=0.0078125
EXTRACT: note_on channel=11 note=71 velocity=0 time=0
EXTRACT: control_change channel=12 control=10 value=33 time=0
EXTRACT: note_on channel=1 note=38 velocity=0 time=0.0078125
EXTRACT: note_on channel=2 note=38 velocity=0 time=0.0078125
EXTRACT: note_on channel=2 note=50 velocity=0 time=0
EXTRACT: note_on channel=2 note=57 velocity=0 time=0
EXTRACT: note_on channel=2 note=62 velocity=0 time=0
EXTRACT: note_on channel=2 note=54 velocity=0 time=0
EXTRACT: note_on channel=4 note=71 velocity=0 time=0
EXTRACT: note_on channel=6 note=54 velocity=0 time=0
EXTRACT: note_on channel=7 note=66 velocity=0 time=0
EXTRACT: note_on channel=7 note=50 velocity=0 time=0
EXTRACT: note_on channel=7 note=62 velocity=0 time=0
EXTRACT: note_on channel=8 note=54 velocity=0 time=0
EXTRACT: note_on channel=8 note=50 velocity=0 time=0
EXTRACT: note_on channel=8 note=38 velocity=0 time=0
EXTRACT: note_on channel=8 note=57 velocity=0 time=0
EXTRACT: note_on channel=8 note=61 velocity=60 time=0.018750000000000003
EXTRACT: note_on channel=12 note=69 velocity=70 time=0
EXTRACT: control_change channel=12 control=10 value=29 time=0.004687500000000001
EXTRACT: note_on channel=8 note=57 velocity=62 time=0.0015625
EXTRACT: note_on channel=2 note=45 velocity=91 time=0.0015625
EXTRACT: note_on channel=2 note=52 velocity=89 time=0
EXTRACT: note_on channel=6 note=57 velocity=77 time=0
EXTRACT: note_on channel=2 note=57 velocity=93 time=0.0015625
EXTRACT: note_on channel=8 note=52 velocity=60 time=0
EXTRACT: note_on channel=8 note=45 velocity=59 time=0
EXTRACT: note_on channel=7 note=57 velocity=58 time=0.003125
EXTRACT: note_on channel=9 note=35 velocity=115 time=0
EXTRACT: note_on channel=9 note=36 velocity=115 time=0
EXTRACT: note_on channel=10 note=60 velocity=115 time=0
EXTRACT: note_on channel=1 note=33 velocity=73 time=0.0015625
EXTRACT: note_on channel=7 note=73 velocity=62 time=0
EXTRACT: note_on channel=11 note=69 velocity=87 time=0.0015625
EXTRACT: note_on channel=2 note=61 velocity=90 time=0.0015625
EXTRACT: note_on channel=11 note=81 velocity=87 time=0
EXTRACT: note_on channel=7 note=69 velocity=59 time=0.0078125
EXTRACT: note_on channel=9 note=36 velocity=0 time=0.015625
EXTRACT: note_on channel=9 note=35 velocity=0 time=0
EXTRACT: note_on channel=10 note=60 velocity=0 time=0
EXTRACT: control_change channel=12 control=10 value=25 time=0.003125
EXTRACT: control_change channel=12 control=10 value=21 time=0.0390625
EXTRACT: control_change channel=12 control=10 value=17 time=0.0390625
EXTRACT: note_on channel=12 note=69 velocity=0 time=0.0234375
EXTRACT: note_on channel=11 note=81 velocity=0 time=0.0078125
EXTRACT: note_on channel=11 note=69 velocity=0 time=0
EXTRACT: note_on channel=3 note=81 velocity=0 time=0.0234375
EXTRACT: note_on channel=3 note=88 velocity=72 time=0.035937500000000004
EXTRACT: note_on channel=3 note=88 velocity=0 time=0.15156250000000002
EXTRACT: note_on channel=11 note=81 velocity=84 time=0.0125
EXTRACT: note_on channel=11 note=69 velocity=84 time=0.004687500000000001
EXTRACT: note_on channel=12 note=69 velocity=70 time=0.003125
EXTRACT: note_on channel=3 note=85 velocity=78 time=0.00625
EXTRACT: control_change channel=12 control=10 value=39 time=0.004687500000000001
EXTRACT: control_change channel=12 control=10 value=43 time=0.0390625
EXTRACT: control_change channel=12 control=10 value=47 time=0.0390625
EXTRACT: control_change channel=12 control=10 value=51 time=0.0390625
EXTRACT: note_on channel=12 note=69 velocity=0 time=0.0078125
EXTRACT: note_on channel=11 note=69 velocity=0 time=0.0078125
EXTRACT: note_on channel=11 note=81 velocity=0 time=0
EXTRACT: note_on channel=2 note=52 velocity=0 time=0.015625
EXTRACT: note_on channel=2 note=52 velocity=78 time=0.018750000000000003
EXTRACT: note_on channel=11 note=71 velocity=84 time=0.004687500000000001
EXTRACT: note_on channel=11 note=83 velocity=87 time=0.0171875
EXTRACT: note_on channel=12 note=71 velocity=69 time=0.003125
EXTRACT: control_change channel=12 control=10 value=59 time=0.003125
EXTRACT: control_change channel=12 control=10 value=63 time=0.0390625
EXTRACT: control_change channel=12 control=10 value=67 time=0.0390625
EXTRACT: note_on channel=12 note=71 velocity=0 time=0.0390625
EXTRACT: control_change channel=12 control=10 value=71 time=0
EXTRACT: note_on channel=11 note=83 velocity=0 time=0.0078125
EXTRACT: note_on channel=11 note=71 velocity=0 time=0
EXTRACT: note_on channel=2 note=61 velocity=0 time=0.015625
EXTRACT: note_on channel=2 note=57 velocity=0 time=0
EXTRACT: note_on channel=12 note=73 velocity=69 time=0.018750000000000003
EXTRACT: note_on channel=2 note=61 velocity=87 time=0.003125
EXTRACT: note_on channel=9 note=39 velocity=113 time=0.0015625
EXTRACT: note_on channel=11 note=73 velocity=87 time=0.010937500000000001
EXTRACT: note_on channel=2 note=57 velocity=87 time=0.0015625
EXTRACT: note_on channel=4 note=73 velocity=86 time=0
EXTRACT: note_on channel=11 note=85 velocity=84 time=0.00625
EXTRACT: note_on channel=9 note=39 velocity=0 time=0.009375000000000001
EXTRACT: control_change channel=12 control=10 value=79 time=0.003125
EXTRACT: control_change channel=12 control=10 value=83 time=0.0390625
EXTRACT: control_change channel=12 control=10 value=87 time=0.0390625
EXTRACT: note_on channel=12 note=73 velocity=0 time=0.03125
EXTRACT: note_on channel=11 note=85 velocity=0 time=0.0078125
EXTRACT: note_on channel=11 note=73 velocity=0 time=0
EXTRACT: control_change channel=12 control=10 value=91 time=0
EXTRACT: note_on channel=4 note=73 velocity=0 time=0.015625
EXTRACT: note_on channel=3 note=85 velocity=0 time=0.0078125
EXTRACT: note_on channel=4 note=71 velocity=71 time=0.010937500000000001
EXTRACT: note_on channel=2 note=52 velocity=0 time=0.16875
EXTRACT: note_on channel=4 note=71 velocity=0 time=0
EXTRACT: note_on channel=2 note=52 velocity=81 time=0.018750000000000003
EXTRACT: note_on channel=4 note=71 velocity=80 time=0.0125
EXTRACT: note_on channel=11 note=85 velocity=86 time=0
EXTRACT: note_on channel=11 note=73 velocity=84 time=0
EXTRACT: note_on channel=12 note=73 velocity=69 time=0.010937500000000001
EXTRACT: control_change channel=12 control=10 value=119 time=0.028125
EXTRACT: control_change channel=12 control=10 value=123 time=0.0390625
EXTRACT: control_change channel=12 control=10 value=121 time=0.0390625
EXTRACT: note_on channel=12 note=73 velocity=0 time=0.015625
EXTRACT: note_on channel=11 note=73 velocity=0 time=0.0078125
EXTRACT: note_on channel=11 note=85 velocity=0 time=0
EXTRACT: note_on channel=2 note=57 velocity=0 time=0.203125
EXTRACT: note_on channel=2 note=61 velocity=0 time=0
EXTRACT: note_on channel=4 note=71 velocity=0 time=0
EXTRACT: note_on channel=3 note=85 velocity=86 time=0.0203125
EXTRACT: note_on channel=2 note=61 velocity=88 time=0.009375000000000001
EXTRACT: note_on channel=2 note=57 velocity=85 time=0.0015625
EXTRACT: note_on channel=9 note=36 velocity=115 time=0
EXTRACT: note_on channel=12 note=73 velocity=68 time=0.003125
EXTRACT: note_on channel=11 note=73 velocity=86 time=0.0015625
EXTRACT: note_on channel=11 note=85 velocity=86 time=0.004687500000000001
EXTRACT: control_change channel=12 control=10 value=93 time=0.00625
EXTRACT: note_on channel=9 note=36 velocity=0 time=0.0125
EXTRACT: control_change channel=12 control=10 value=89 time=0.026562500000000003
EXTRACT: control_change channel=12 control=10 value=85 time=0.0390625
EXTRACT: note_on channel=12 note=73 velocity=0 time=0.0390625
EXTRACT: control_change channel=12 control=10 value=81 time=0
EXTRACT: note_on channel=11 note=85 velocity=0 time=0.0078125
EXTRACT: note_on channel=11 note=73 velocity=0 time=0
EXTRACT: note_on channel=3 note=85 velocity=0 time=0.2109375
EXTRACT: note_on channel=12 note=73 velocity=69 time=0.0203125
EXTRACT: note_on channel=9 note=35 velocity=115 time=0.003125
EXTRACT: note_on channel=9 note=36 velocity=115 time=0
EXTRACT: note_on channel=11 note=73 velocity=84 time=0.004687500000000001
EXTRACT: note_on channel=11 note=85 velocity=87 time=0
EXTRACT: note_on channel=3 note=83 velocity=77 time=0.00625
EXTRACT: note_on channel=9 note=36 velocity=0 time=0.0171875
EXTRACT: note_on channel=9 note=35 velocity=0 time=0
EXTRACT: control_change channel=12 control=10 value=53 time=0.003125
EXTRACT: control_change channel=12 control=10 value=49 time=0.0390625
EXTRACT: control_change channel=12 control=10 value=45 time=0.0390625
EXTRACT: note_on channel=12 note=73 velocity=0 time=0.0234375
EXTRACT: note_on channel=11 note=85 velocity=0 time=0.0078125
EXTRACT: note_on channel=11 note=73 velocity=0 time=0
EXTRACT: note_on channel=2 note=52 velocity=0 time=0.203125
EXTRACT: note_on channel=9 note=39 velocity=116 time=0.028125
EXTRACT: note_on channel=11 note=85 velocity=84 time=0
EXTRACT: note_on channel=11 note=73 velocity=86 time=0.009375000000000001
EXTRACT: note_on channel=12 note=73 velocity=68 time=0
EXTRACT: control_change channel=12 control=10 value=17 time=0.0015625
EXTRACT: note_on channel=2 note=52 velocity=90 time=0.004687500000000001
EXTRACT: note_on channel=9 note=39 velocity=0 time=0.0125
EXTRACT: control_change channel=12 control=10 value=15 time=0.021875000000000002
EXTRACT: control_change channel=12 control=10 value=19 time=0.0390625
EXTRACT: control_change channel=12 control=10 value=23 time=0.0390625
EXTRACT: note_on channel=12 note=73 velocity=0 time=0.0078125
EXTRACT: note_on channel=11 note=73 velocity=0 time=0.0078125
EXTRACT: note_on channel=11 note=85 velocity=0 time=0
EXTRACT: note_on channel=4 note=69 velocity=71 time=0.035937500000000004
EXTRACT: note_on channel=9 note=35 velocity=115 time=0.010937500000000001
EXTRACT: note_on channel=9 note=36 velocity=115 time=0
EXTRACT: note_on channel=12 note=73 velocity=70 time=0.00625
EXTRACT: control_change channel=12 control=10 value=31 time=0.009375000000000001
EXTRACT: note_on channel=9 note=36 velocity=0 time=0.0125
EXTRACT: note_on channel=9 note=35 velocity=0 time=0
EXTRACT: control_change channel=12 control=10 value=35 time=0.026562500000000003
EXTRACT: control_change channel=12 control=10 value=39 time=0.0390625
EXTRACT: note_on channel=12 note=73 velocity=0 time=0.0390625
EXTRACT: control_change channel=12 control=10 value=43 time=0
EXTRACT: note_on channel=2 note=57 velocity=0 time=0.0234375
EXTRACT: note_on channel=4 note=69 velocity=0 time=0
EXTRACT: note_on channel=3 note=83 velocity=0 time=0.0078125
EXTRACT: note_on channel=11 note=83 velocity=84 time=0.018750000000000003
EXTRACT: note_on channel=2 note=57 velocity=77 time=0.004687500000000001
EXTRACT: note_on channel=9 note=35 velocity=115 time=0
EXTRACT: note_on channel=9 note=36 velocity=115 time=0
EXTRACT: note_on channel=11 note=71 velocity=85 time=0.004687500000000001
EXTRACT: note_on channel=4 note=69 velocity=78 time=0.003125
EXTRACT: note_on channel=12 note=71 velocity=72 time=0
EXTRACT: control_change channel=12 control=10 value=51 time=0.015625
EXTRACT: note_on channel=9 note=36 velocity=0 time=0.004687500000000001
EXTRACT: note_on channel=9 note=35 velocity=0 time=0
EXTRACT: control_change channel=12 control=10 value=55 time=0.034375
EXTRACT: control_change channel=12 control=10 value=59 time=0.0390625
EXTRACT: note_on channel=12 note=71 velocity=0 time=0.03125
EXTRACT: note_on channel=11 note=71 velocity=0 time=0.0078125
EXTRACT: note_on channel=11 note=83 velocity=0 time=0
EXTRACT: control_change channel=12 control=10 value=63 time=0
EXTRACT: note_on channel=4 note=69 velocity=0 time=0.015625
EXTRACT: note_on channel=11 note=85 velocity=85 time=0.0234375
EXTRACT: note_on channel=11 note=73 velocity=83 time=0.0015625
EXTRACT: note_on channel=12 note=73 velocity=69 time=0.00625
EXTRACT: note_on channel=4 note=71 velocity=78 time=0.0125
EXTRACT: control_change channel=12 control=10 value=71 time=0.018750000000000003
EXTRACT: control_change channel=12 control=10 value=75 time=0.0390625
EXTRACT: control_change channel=12 control=10 value=79 time=0.0390625
EXTRACT: note_on channel=12 note=73 velocity=0 time=0.0234375
EXTRACT: note_on channel=11 note=73 velocity=0 time=0.0078125
EXTRACT: note_on channel=11 note=85 velocity=0 time=0
EXTRACT: note_on channel=1 note=33 velocity=0 time=0.0078125
EXTRACT: note_on channel=2 note=57 velocity=0 time=0.0078125
EXTRACT: note_on channel=2 note=52 velocity=0 time=0
EXTRACT: note_on channel=2 note=61 velocity=0 time=0
EXTRACT: note_on channel=2 note=45 velocity=0 time=0
EXTRACT: note_on channel=4 note=71 velocity=0 time=0
EXTRACT: note_on channel=6 note=57 velocity=0 time=0
EXTRACT: note_on channel=7 note=69 velocity=0 time=0
EXTRACT: note_on channel=7 note=73 velocity=0 time=0
EXTRACT: note_on channel=7 note=57 velocity=0 time=0
EXTRACT: note_on channel=8 note=45 velocity=0 time=0
EXTRACT: note_on channel=8 note=61 velocity=0 time=0
EXTRACT: note_on channel=8 note=57 velocity=0 time=0
EXTRACT: note_on channel=8 note=52 velocity=0 time=0
EXTRACT: note_on channel=1 note=35 velocity=75 time=0.0203125
EXTRACT: note_on channel=6 note=59 velocity=76 time=0.0015625
EXTRACT: note_on channel=2 note=62 velocity=89 time=0.003125
EXTRACT: note_on channel=2 note=59 velocity=89 time=0
EXTRACT: note_on channel=12 note=71 velocity=70 time=0.0015625
EXTRACT: note_on channel=7 note=59 velocity=62 time=0.003125
EXTRACT: note_on channel=2 note=54 velocity=89 time=0.0015625
EXTRACT: note_on channel=9 note=35 velocity=115 time=0
EXTRACT: note_on channel=9 note=36 velocity=115 time=0
EXTRACT: control_change channel=12 control=10 value=87 time=0
EXTRACT: note_on channel=7 note=71 velocity=60 time=0.004687500000000001
EXTRACT: note_on channel=8 note=59 velocity=61 time=0
EXTRACT: note_on channel=8 note=50 velocity=59 time=0
EXTRACT: note_on channel=11 note=83 velocity=84 time=0
EXTRACT: note_on channel=3 note=85 velocity=91 time=0.0015625
EXTRACT: note_on channel=8 note=54 velocity=62 time=0.0015625
EXTRACT: note_on channel=7 note=74 velocity=58 time=0.0015625
EXTRACT: note_on channel=11 note=71 velocity=86 time=0.0015625
EXTRACT: note_on channel=2 note=47 velocity=91 time=0.0015625
EXTRACT: note_on channel=8 note=47 velocity=59 time=0
EXTRACT: note_on channel=9 note=36 velocity=0 time=0.015625
EXTRACT: note_on channel=9 note=35 velocity=0 time=0
EXTRACT: control_change channel=12 control=10 value=91 time=0.010937500000000001
EXTRACT: control_change channel=12 control=10 value=95 time=0.0390625
EXTRACT: control_change channel=12 control=10 value=99 time=0.0390625
EXTRACT: note_on channel=12 note=71 velocity=0 time=0.015625
EXTRACT: note_on channel=11 note=71 velocity=0 time=0.0078125
EXTRACT: note_on channel=11 note=83 velocity=0 time=0
EXTRACT: note_on channel=3 note=85 velocity=0 time=0.2109375
EXTRACT: note_on channel=11 note=71 velocity=83 time=0.015625
EXTRACT: note_on channel=3 note=83 velocity=81 time=0.0078125
EXTRACT: note_on channel=12 note=71 velocity=71 time=0.003125
EXTRACT: note_on channel=11 note=83 velocity=86 time=0.003125
EXTRACT: control_change channel=12 control=10 value=121 time=0.009375000000000001
EXTRACT: control_change channel=12 control=10 value=117 time=0.0390625
EXTRACT: control_change channel=12 control=10 value=113 time=0.0390625
EXTRACT: note_on channel=12 note=71 velocity=0 time=0.0390625
EXTRACT: control_change channel=12 control=10 value=109 time=0
EXTRACT: note_on channel=11 note=83 velocity=0 time=0.0078125
EXTRACT: note_on channel=11 note=71 velocity=0 time=0
EXTRACT: note_on channel=2 note=54 velocity=0 time=0.015625
EXTRACT: note_on channel=12 note=73 velocity=71 time=0.018750000000000003
EXTRACT: note_on channel=11 note=85 velocity=86 time=0.004687500000000001
EXTRACT: note_on channel=9 note=35 velocity=115 time=0.0078125
EXTRACT: note_on channel=9 note=36 velocity=115 time=0
EXTRACT: note_on channel=2 note=54 velocity=76 time=0.0078125
EXTRACT: note_on channel=11 note=73 velocity=85 time=0.0015625
EXTRACT: control_change channel=12 control=10 value=101 time=0.0140625
EXTRACT: note_on channel=9 note=36 velocity=0 time=0.004687500000000001
EXTRACT: note_on channel=9 note=35 velocity=0 time=0
EXTRACT: control_change channel=12 control=10 value=97 time=0.034375
EXTRACT: control_change channel=12 control=10 value=93 time=0.0390625
EXTRACT: note_on channel=12 note=73 velocity=0 time=0.03125
EXTRACT: note_on channel=11 note=73 velocity=0 time=0.0078125
EXTRACT: note_on channel=11 note=85 velocity=0 time=0
EXTRACT: control_change channel=12 control=10 value=89 time=0
EXTRACT: note_on channel=2 note=62 velocity=0 time=0.015625
EXTRACT: note_on channel=2 note=59 velocity=0 time=0
EXTRACT: note_on channel=11 note=86 velocity=87 time=0.025
EXTRACT: note_on channel=2 note=62 velocity=88 time=0.0015625
EXTRACT: note_on channel=12 note=74 velocity=69 time=0.0015625
EXTRACT: note_on channel=2 note=59 velocity=89 time=0.004687500000000001
EXTRACT: note_on channel=11 note=74 velocity=84 time=0.003125
EXTRACT: note_on channel=4 note=73 velocity=90 time=0.0015625
EXTRACT: note_on channel=9 note=39 velocity=116 time=0.0015625
EXTRACT: control_change channel=12 control=10 value=81 time=0.0234375
EXTRACT: note_on channel=9 note=39 velocity=0 time=0.004687500000000001
EXTRACT: control_change channel=12 control=10 value=77 time=0.034375
EXTRACT: control_change channel=12 control=10 value=73 time=0.0390625
EXTRACT: note_on channel=12 note=74 velocity=0 time=0.0234375
EXTRACT: note_on channel=11 note=74 velocity=0 time=0.0078125
EXTRACT: note_on channel=11 note=86 velocity=0 time=0
EXTRACT: note_on channel=4 note=73 velocity=0 time=0.015625
EXTRACT: note_on channel=4 note=71 velocity=73 time=0.034375
EXTRACT: note_on channel=2 note=59 velocity=0 time=0.153125
EXTRACT: note_on channel=2 note=62 velocity=0 time=0
EXTRACT: note_on channel=4 note=71 velocity=0 time=0
EXTRACT: note_on channel=3 note=83 velocity=0 time=0.0078125
EXTRACT: note_on channel=11 note=74 velocity=85 time=0.0125
EXTRACT: note_on channel=11 note=86 velocity=85 time=0.003125
EXTRACT: note_on channel=2 note=59 velocity=79 time=0.003125
EXTRACT: note_on channel=4 note=71 velocity=77 time=0
EXTRACT: note_on channel=2 note=62 velocity=80 time=0.003125
EXTRACT: note_on channel=12 note=74 velocity=72 time=0.009375000000000001
EXTRACT: control_change channel=12 control=10 value=45 time=0
EXTRACT: control_change channel=12 control=10 value=41 time=0.0390625
EXTRACT: control_change channel=12 control=10 value=37 time=0.0390625
EXTRACT: control_change channel=12 control=10 value=33 time=0.0390625
EXTRACT: note_on channel=12 note=74 velocity=0 time=0.0078125
EXTRACT: note_on channel=11 note=86 velocity=0 time=0.0078125
EXTRACT: note_on channel=11 note=74 velocity=0 time=0
EXTRACT: note_on channel=2 note=62 velocity=0 time=0.203125
EXTRACT: note_on channel=2 note=54 velocity=0 time=0
EXTRACT: note_on channel=2 note=47 velocity=0 time=0
EXTRACT: note_on channel=2 note=59 velocity=0 time=0
EXTRACT: note_on channel=4 note=71 velocity=0 time=0
EXTRACT: note_on channel=2 note=47 velocity=90 time=0.026562500000000003
EXTRACT: note_on channel=12 note=74 velocity=68 time=0
EXTRACT: note_on channel=11 note=86 velocity=86 time=0.0015625
EXTRACT: note_on channel=2 note=62 velocity=89 time=0.0015625
EXTRACT: note_on channel=9 note=36 velocity=115 time=0.0015625
EXTRACT: note_on channel=2 note=54 velocity=90 time=0.003125
EXTRACT: note_on channel=3 note=86 velocity=86 time=0.0015625
EXTRACT: note_on channel=11 note=74 velocity=86 time=0
EXTRACT: note_on channel=2 note=59 velocity=87 time=0.003125
EXTRACT: control_change channel=12 control=10 value=23 time=0.015625
EXTRACT: note_on channel=9 note=36 velocity=0 time=0.004687500000000001
EXTRACT: control_change channel=12 control=10 value=27 time=0.034375
EXTRACT: control_change channel=12 control=10 value=31 time=0.0390625
EXTRACT: note_on channel=12 note=74 velocity=0 time=0.03125
EXTRACT: note_on channel=11 note=74 velocity=0 time=0.0078125
EXTRACT: note_on channel=11 note=86 velocity=0 time=0
EXTRACT: control_change channel=12 control=10 value=35 time=0
EXTRACT: note_on channel=12 note=74 velocity=69 time=0.043750000000000004
EXTRACT: control_change channel=12 control=10 value=43 time=0.034375
EXTRACT: control_change channel=12 control=10 value=47 time=0.0390625
EXTRACT: control_change channel=12 control=10 value=51 time=0.0390625
EXTRACT: note_on channel=12 note=74 velocity=0 time=0.0234375
EXTRACT: note_on channel=3 note=86 velocity=0 time=0.03125
EXTRACT: note_on channel=11 note=74 velocity=83 time=0.015625
EXTRACT: note_on channel=3 note=85 velocity=78 time=0.004687500000000001
EXTRACT: control_change channel=12 control=10 value=59 time=0.003125
EXTRACT: note_on channel=11 note=86 velocity=87 time=0.003125
EXTRACT: note_on channel=12 note=74 velocity=70 time=0.0015625
EXTRACT: control_change channel=12 control=10 value=63 time=0.034375
EXTRACT: control_change channel=12 control=10 value=67 time=0.0390625
EXTRACT: control_change channel=12 control=10 value=71 time=0.0390625
EXTRACT: note_on channel=12 note=74 velocity=0 time=0.015625
EXTRACT: note_on channel=11 note=86 velocity=0 time=0.0078125
EXTRACT: note_on channel=11 note=74 velocity=0 time=0
EXTRACT: note_on channel=9 note=35 velocity=115 time=0.046875
EXTRACT: note_on channel=9 note=36 velocity=115 time=0
EXTRACT: note_on channel=12 note=74 velocity=69 time=0
EXTRACT: control_change channel=12 control=10 value=79 time=0.0078125
EXTRACT: note_on channel=9 note=36 velocity=0 time=0.0203125
EXTRACT: note_on channel=9 note=35 velocity=0 time=0
EXTRACT: control_change channel=12 control=10 value=83 time=0.018750000000000003
EXTRACT: control_change channel=12 control=10 value=87 time=0.0390625
EXTRACT: control_change channel=12 control=10 value=91 time=0.0390625
EXTRACT: note_on channel=12 note=74 velocity=0 time=0.0078125
EXTRACT: note_on channel=3 note=85 velocity=0 time=0.03125
EXTRACT: note_on channel=12 note=74 velocity=69 time=0.010937500000000001
EXTRACT: note_on channel=3 note=83 velocity=87 time=0.004687500000000001
EXTRACT: note_on channel=11 note=74 velocity=87 time=0.010937500000000001
EXTRACT: note_on channel=9 note=39 velocity=113 time=0.00625
EXTRACT: note_on channel=11 note=86 velocity=86 time=0.0015625
EXTRACT: control_change channel=12 control=10 value=99 time=0.004687500000000001
EXTRACT: note_on channel=9 note=39 velocity=0 time=0.021875000000000002
EXTRACT: control_change channel=12 control=10 value=103 time=0.0171875
EXTRACT: control_change channel=12 control=10 value=107 time=0.0390625
EXTRACT: note_on channel=12 note=74 velocity=0 time=0.0390625
EXTRACT: control_change channel=12 control=10 value=111 time=0
EXTRACT: note_on channel=11 note=86 velocity=0 time=0.0078125
EXTRACT: note_on channel=11 note=74 velocity=0 time=0
EXTRACT: note_on channel=4 note=66 velocity=76 time=0.0421875
EXTRACT: note_on channel=4 note=69 velocity=74 time=0.003125
EXTRACT: note_on channel=9 note=35 velocity=115 time=0.0015625
EXTRACT: note_on channel=9 note=36 velocity=115 time=0
EXTRACT: note_on channel=10 note=60 velocity=115 time=0
EXTRACT: note_on channel=4 note=73 velocity=76 time=0.003125
EXTRACT: note_on channel=12 note=74 velocity=70 time=0.004687500000000001
EXTRACT: control_change channel=12 control=10 value=119 time=0.015625
EXTRACT: note_on channel=9 note=36 velocity=0 time=0.004687500000000001
EXTRACT: note_on channel=9 note=35 velocity=0 time=0
EXTRACT: note_on channel=10 note=60 velocity=0 time=0
EXTRACT: control_change channel=12 control=10 value=123 time=0.034375
EXTRACT: control_change channel=12 control=10 value=121 time=0.0390625
EXTRACT: note_on channel=12 note=74 velocity=0 time=0.03125
EXTRACT: control_change channel=12 control=10 value=117 time=0.0078125
EXTRACT: note_on channel=2 note=62 velocity=0 time=0.015625
EXTRACT: note_on channel=4 note=73 velocity=0 time=0
EXTRACT: note_on channel=4 note=69 velocity=0 time=0
EXTRACT: note_on channel=4 note=66 velocity=0 time=0
EXTRACT: note_on channel=3 note=83 velocity=0 time=0.0078125
EXTRACT: note_on channel=2 note=62 velocity=80 time=0.010937500000000001
EXTRACT: note_on channel=4 note=69 velocity=78 time=0
EXTRACT: note_on channel=3 note=81 velocity=78 time=0.0078125
EXTRACT: note_on channel=4 note=66 velocity=80 time=0.0015625
EXTRACT: note_on channel=11 note=74 velocity=87 time=0
EXTRACT: note_on channel=12 note=74 velocity=72 time=0
EXTRACT: note_on channel=9 note=35 velocity=115 time=0.003125
EXTRACT: note_on channel=9 note=36 velocity=115 time=0
EXTRACT: note_on channel=10 note=60 velocity=115 time=0
EXTRACT: note_on channel=11 note=86 velocity=85 time=0.003125
EXTRACT: note_on channel=4 note=73 velocity=76 time=0.003125
EXTRACT: note_on channel=9 note=36 velocity=0 time=0.021875000000000002
EXTRACT: note_on channel=9 note=35 velocity=0 time=0
EXTRACT: note_on channel=10 note=60 velocity=0 time=0
EXTRACT: control_change channel=12 control=10 value=109 time=0.003125
EXTRACT: control_change channel=12 control=10 value=105 time=0.0390625
EXTRACT: control_change channel=12 control=10 value=101 time=0.0390625
EXTRACT: note_on channel=12 note=74 velocity=0 time=0.0234375
EXTRACT: note_on channel=11 note=86 velocity=0 time=0.0078125
EXTRACT: note_on channel=11 note=74 velocity=0 time=0
EXTRACT: note_on channel=4 note=73 velocity=0 time=0.015625
EXTRACT: note_on channel=4 note=66 velocity=0 time=0
EXTRACT: note_on channel=4 note=69 velocity=0 time=0
EXTRACT: note_on channel=3 note=81 velocity=0 time=0.0078125
EXTRACT: note_on channel=11 note=85 velocity=86 time=0.0171875
EXTRACT: note_on channel=4 note=66 velocity=81 time=0.003125
EXTRACT: note_on channel=11 note=73 velocity=86 time=0.0015625
EXTRACT: note_on channel=4 note=73 velocity=82 time=0.0015625
EXTRACT: note_on channel=3 note=83 velocity=78 time=0.009375000000000001
EXTRACT: note_on channel=4 note=69 velocity=79 time=0.003125
EXTRACT: note_on channel=12 note=73 velocity=72 time=0
EXTRACT: control_change channel=12 control=10 value=89 time=0.026562500000000003
EXTRACT: control_change channel=12 control=10 value=85 time=0.0390625
EXTRACT: control_change channel=12 control=10 value=81 time=0.0390625
EXTRACT: note_on channel=12 note=73 velocity=0 time=0.015625
EXTRACT: note_on channel=11 note=73 velocity=0 time=0.0078125
EXTRACT: note_on channel=11 note=85 velocity=0 time=0
EXTRACT: note_on channel=1 note=35 velocity=0 time=0.0078125
EXTRACT: note_on channel=2 note=62 velocity=0 time=0.0078125
EXTRACT: note_on channel=2 note=59 velocity=0 time=0
EXTRACT: note_on channel=2 note=54 velocity=0 time=0
EXTRACT: note_on channel=2 note=47 velocity=0 time=0
EXTRACT: note_on channel=4 note=69 velocity=0 time=0
EXTRACT: note_on channel=4 note=73 velocity=0 time=0
EXTRACT: note_on channel=4 note=66 velocity=0 time=0
EXTRACT: note_on channel=6 note=59 velocity=0 time=0
EXTRACT: note_on channel=7 note=74 velocity=0 time=0
EXTRACT: note_on channel=7 note=71 velocity=0 time=0
EXTRACT: note_on channel=7 note=59 velocity=0 time=0
EXTRACT: note_on channel=8 note=47 velocity=0 time=0
EXTRACT: note_on channel=8 note=59 velocity=0 time=0
EXTRACT: note_on channel=8 note=50 velocity=0 time=0
EXTRACT: note_on channel=8 note=54 velocity=0 time=0
EXTRACT: note_on channel=3 note=83 velocity=0 time=0.0078125
EXTRACT: note_on channel=2 note=61 velocity=91 time=0.0125
EXTRACT: note_on channel=2 note=57 velocity=92 time=0.0015625
EXTRACT: note_on channel=8 note=57 velocity=58 time=0.0015625
EXTRACT: note_on channel=8 note=49 velocity=59 time=0
EXTRACT: note_on channel=11 note=81 velocity=84 time=0.0015625
EXTRACT: note_on channel=1 note=42 velocity=77 time=0.0015625
EXTRACT: note_on channel=2 note=42 velocity=92 time=0.0015625
EXTRACT: note_on channel=7 note=66 velocity=62 time=0
EXTRACT: note_on channel=9 note=35 velocity=115 time=0.003125
EXTRACT: note_on channel=9 note=36 velocity=115 time=0
EXTRACT: note_on channel=10 note=60 velocity=115 time=0
EXTRACT: note_on channel=7 note=69 velocity=58 time=0.004687500000000001
EXTRACT: note_on channel=2 note=54 velocity=90 time=0.0015625
EXTRACT: note_on channel=3 note=85 velocity=89 time=0
EXTRACT: control_change channel=12 control=10 value=73 time=0.0015625
EXTRACT: note_on channel=6 note=54 velocity=77 time=0.0015625
EXTRACT: note_on channel=8 note=42 velocity=59 time=0
EXTRACT: note_on channel=11 note=69 velocity=87 time=0
EXTRACT: note_on channel=7 note=54 velocity=60 time=0.0015625
EXTRACT: note_on channel=8 note=54 velocity=60 time=0
EXTRACT: note_on channel=12 note=69 velocity=69 time=0.0015625
EXTRACT: note_on channel=9 note=36 velocity=0 time=0.015625
EXTRACT: note_on channel=9 note=35 velocity=0 time=0
EXTRACT: note_on channel=10 note=60 velocity=0 time=0
EXTRACT: control_change channel=12 control=10 value=69 time=0.018750000000000003
EXTRACT: control_change channel=12 control=10 value=65 time=0.0390625
EXTRACT: control_change channel=12 control=10 value=61 time=0.0390625
EXTRACT: note_on channel=12 note=69 velocity=0 time=0.0078125
EXTRACT: note_on channel=11 note=69 velocity=0 time=0.0078125
EXTRACT: note_on channel=11 note=81 velocity=0 time=0
EXTRACT: note_on channel=3 note=85 velocity=0 time=0.2109375
EXTRACT: note_on channel=11 note=66 velocity=85 time=0.015625
EXTRACT: note_on channel=11 note=78 velocity=83 time=0.0015625
EXTRACT: note_on channel=3 note=83 velocity=76 time=0.0078125
EXTRACT: note_on channel=12 note=66 velocity=71 time=0.003125
EXTRACT: control_change channel=12 control=10 value=33 time=0.018750000000000003
EXTRACT: control_change channel=12 control=10 value=29 time=0.0390625
EXTRACT: control_change channel=12 control=10 value=25 time=0.0390625
EXTRACT: note_on channel=12 note=66 velocity=0 time=0.03125
EXTRACT: note_on channel=11 note=78 velocity=0 time=0.0078125
EXTRACT: note_on channel=11 note=66 velocity=0 time=0
EXTRACT: control_change channel=12 control=10 value=21 time=0
EXTRACT: note_on channel=11 note=80 velocity=84 time=0.037500000000000006
EXTRACT: note_on channel=12 note=68 velocity=69 time=0.0125
EXTRACT: note_on channel=11 note=68 velocity=86 time=0.0078125
EXTRACT: control_change channel=12 control=10 value=15 time=0.0203125
EXTRACT: control_change channel=12 control=10 value=19 time=0.0390625
EXTRACT: control_change channel=12 control=10 value=23 time=0.0390625
EXTRACT: note_on channel=12 note=68 velocity=0 time=0.0234375
EXTRACT: note_on channel=11 note=68 velocity=0 time=0.0078125
EXTRACT: note_on channel=11 note=80 velocity=0 time=0
EXTRACT: note_on channel=2 note=57 velocity=0 time=0.015625
EXTRACT: note_on channel=4 note=73 velocity=88 time=0.018750000000000003
EXTRACT: note_on channel=9 note=39 velocity=116 time=0
EXTRACT: note_on channel=12 note=69 velocity=70 time=0.00625
EXTRACT: note_on channel=4 note=69 velocity=86 time=0.003125
EXTRACT: note_on channel=4 note=66 velocity=87 time=0.0015625
EXTRACT: note_on channel=11 note=69 velocity=85 time=0
EXTRACT: control_change channel=12 control=10 value=31 time=0.0015625
EXTRACT: note_on channel=2 note=57 velocity=69 time=0.004687500000000001
EXTRACT: note_on channel=11 note=81 velocity=85 time=0.0078125
EXTRACT: note_on channel=9 note=39 velocity=0 time=0.003125
EXTRACT: control_change channel=12 control=10 value=35 time=0.0234375
EXTRACT: control_change channel=12 control=10 value=39 time=0.0390625
EXTRACT: control_change channel=12 control=10 value=43 time=0.0390625
EXTRACT: note_on channel=12 note=69 velocity=0 time=0.015625
EXTRACT: note_on channel=11 note=81 velocity=0 time=0.0078125
EXTRACT: note_on channel=11 note=69 velocity=0 time=0
EXTRACT: note_on channel=4 note=73 velocity=0 time=0.015625
EXTRACT: note_on channel=4 note=71 velocity=71 time=0.0234375
EXTRACT: note_on channel=2 note=57 velocity=0 time=0.1640625
EXTRACT: note_on channel=4 note=71 velocity=0 time=0
EXTRACT: note_on channel=4 note=66 velocity=0 time=0
EXTRACT: note_on channel=4 note=69 velocity=0 time=0
EXTRACT: note_on channel=3 note=83 velocity=0 time=0.0078125
EXTRACT: note_on channel=12 note=69 velocity=70 time=0.0140625
EXTRACT: note_on channel=11 note=81 velocity=85 time=0.004687500000000001
EXTRACT: note_on channel=2 note=57 velocity=80 time=0.0015625
EXTRACT: note_on channel=4 note=69 velocity=82 time=0.0015625
EXTRACT: note_on channel=4 note=71 velocity=79 time=0.0078125
EXTRACT: note_on channel=4 note=66 velocity=78 time=0.003125
EXTRACT: note_on channel=11 note=69 velocity=86 time=0.003125
EXTRACT: control_change channel=12 control=10 value=71 time=0.003125
EXTRACT: control_change channel=12 control=10 value=75 time=0.0390625
EXTRACT: control_change channel=12 control=10 value=79 time=0.0390625
EXTRACT: note_on channel=12 note=69 velocity=0 time=0.0390625
EXTRACT: control_change channel=12 control=10 value=83 time=0
EXTRACT: note_on channel=11 note=69 velocity=0 time=0.0078125
EXTRACT: note_on channel=11 note=81 velocity=0 time=0
EXTRACT: note_on channel=2 note=54 velocity=0 time=0.203125
EXTRACT: note_on channel=4 note=66 velocity=0 time=0
EXTRACT: note_on channel=4 note=71 velocity=0 time=0
EXTRACT: note_on channel=4 note=69 velocity=0 time=0
EXTRACT: note_on channel=11 note=69 velocity=87 time=0.026562500000000003
EXTRACT: note_on channel=3 note=85 velocity=86 time=0.0015625
EXTRACT: note_on channel=11 note=81 velocity=86 time=0.0015625
EXTRACT: note_on channel=9 note=36 velocity=115 time=0.0015625
EXTRACT: note_on channel=2 note=54 velocity=84 time=0.003125
EXTRACT: note_on channel=12 note=69 velocity=69 time=0.0078125
EXTRACT: note_on channel=9 note=36 velocity=0 time=0.0171875
EXTRACT: control_change channel=12 control=10 value=111 time=0.003125
EXTRACT: control_change channel=12 control=10 value=115 time=0.0390625
EXTRACT: control_change channel=12 control=10 value=119 time=0.0390625
EXTRACT: note_on channel=12 note=69 velocity=0 time=0.0234375
EXTRACT: note_on channel=11 note=81 velocity=0 time=0.0078125
EXTRACT: note_on channel=11 note=69 velocity=0 time=0
EXTRACT: note_on channel=12 note=69 velocity=68 time=0.05
EXTRACT: control_change channel=12 control=10 value=117 time=0.035937500000000004
EXTRACT: control_change channel=12 control=10 value=113 time=0.0390625
EXTRACT: control_change channel=12 control=10 value=109 time=0.0390625
EXTRACT: note_on channel=12 note=69 velocity=0 time=0.015625
EXTRACT: note_on channel=3 note=85 velocity=0 time=0.03125
EXTRACT: note_on channel=9 note=36 velocity=115 time=0.0234375
EXTRACT: note_on channel=11 note=81 velocity=87 time=0
EXTRACT: control_change channel=12 control=10 value=101 time=0.0078125
EXTRACT: note_on channel=11 note=69 velocity=87 time=0.003125
EXTRACT: note_on channel=3 note=83 velocity=77 time=0.0015625
EXTRACT: note_on channel=12 note=69 velocity=71 time=0
EXTRACT: note_on channel=9 note=36 velocity=0 time=0.015625
EXTRACT: control_change channel=12 control=10 value=97 time=0.018750000000000003
EXTRACT: control_change channel=12 control=10 value=93 time=0.0390625
EXTRACT: control_change channel=12 control=10 value=89 time=0.0390625
EXTRACT: note_on channel=12 note=69 velocity=0 time=0.0078125
EXTRACT: note_on channel=11 note=69 velocity=0 time=0.0078125
EXTRACT: note_on channel=11 note=81 velocity=0 time=0
EXTRACT: note_on channel=3 note=83 velocity=0 time=0.0234375
EXTRACT: note_on channel=12 note=69 velocity=68 time=0.0203125
EXTRACT: note_on channel=3 note=81 velocity=80 time=0.0078125
EXTRACT: control_change channel=12 control=10 value=81 time=0.010937500000000001
EXTRACT: control_change channel=12 control=10 value=77 time=0.0390625
EXTRACT: control_change channel=12 control=10 value=73 time=0.0390625
EXTRACT: note_on channel=12 note=69 velocity=0 time=0.0390625
EXTRACT: control_change channel=12 control=10 value=69 time=0
EXTRACT: note_on channel=2 note=57 velocity=0 time=0.0234375
EXTRACT: note_on channel=3 note=81 velocity=0 time=0.0078125
EXTRACT: note_on channel=2 note=57 velocity=90 time=0.0125
EXTRACT: note_on channel=9 note=39 velocity=113 time=0.010937500000000001
EXTRACT: note_on channel=12 note=69 velocity=70 time=0.003125
EXTRACT: note_on channel=11 note=81 velocity=83 time=0.0015625
EXTRACT: note_on channel=11 note=69 velocity=87 time=0.003125
EXTRACT: note_on channel=3 note=78 velocity=93 time=0.0015625
EXTRACT: control_change channel=12 control=10 value=61 time=0.0140625
EXTRACT: note_on channel=9 note=39 velocity=0 time=0.004687500000000001
EXTRACT: control_change channel=12 control=10 value=57 time=0.034375
EXTRACT: control_change channel=12 control=10 value=53 time=0.0390625
EXTRACT: note_on channel=12 note=69 velocity=0 time=0.03125
EXTRACT: note_on channel=11 note=69 velocity=0 time=0.0078125
EXTRACT: note_on channel=11 note=81 velocity=0 time=0
EXTRACT: control_change channel=12 control=10 value=49 time=0
EXTRACT: note_on channel=3 note=78 velocity=0 time=0.0234375
EXTRACT: note_on channel=4 note=66 velocity=74 time=0.0203125
EXTRACT: note_on channel=4 note=64 velocity=72 time=0
EXTRACT: note_on channel=9 note=35 velocity=115 time=0.003125
EXTRACT: note_on channel=9 note=36 velocity=115 time=0
EXTRACT: note_on channel=12 note=69 velocity=69 time=0.004687500000000001
EXTRACT: note_on channel=4 note=61 velocity=75 time=0.00625
EXTRACT: note_on channel=9 note=36 velocity=0 time=0.0171875
EXTRACT: note_on channel=9 note=35 velocity=0 time=0
EXTRACT: control_change channel=12 control=10 value=41 time=0.003125
EXTRACT: control_change channel=12 control=10 value=37 time=0.0390625
EXTRACT: control_change channel=12 control=10 value=33 time=0.0390625
EXTRACT: note_on channel=12 note=69 velocity=0 time=0.0234375
EXTRACT: note_on channel=4 note=61 velocity=0 time=0.0234375
EXTRACT: note_on channel=4 note=64 velocity=0 time=0
EXTRACT: note_on channel=4 note=66 velocity=0 time=0
EXTRACT: note_on channel=4 note=69 velocity=78 time=0.018750000000000003
EXTRACT: note_on channel=11 note=81 velocity=85 time=0
EXTRACT: note_on channel=11 note=69 velocity=85 time=0.0078125
EXTRACT: note_on channel=4 note=68 velocity=78 time=0.003125
EXTRACT: note_on channel=2 note=64 velocity=76 time=0.003125
EXTRACT: note_on channel=4 note=64 velocity=77 time=0.0015625
EXTRACT: note_on channel=12 note=69 velocity=68 time=0
EXTRACT: control_change channel=12 control=10 value=21 time=0.035937500000000004
EXTRACT: control_change channel=12 control=10 value=17 time=0.0390625
EXTRACT: control_change channel=12 control=10 value=15 time=0.0390625
EXTRACT: note_on channel=12 note=69 velocity=0 time=0.015625
EXTRACT: note_on channel=11 note=69 velocity=0 time=0.0078125
EXTRACT: note_on channel=11 note=81 velocity=0 time=0
EXTRACT: note_on channel=4 note=64 velocity=0 time=0.015625
EXTRACT: note_on channel=4 note=68 velocity=0 time=0
EXTRACT: note_on channel=4 note=69 velocity=0 time=0
EXTRACT: note_on channel=4 note=71 velocity=77 time=0.0203125
EXTRACT: note_on channel=4 note=69 velocity=74 time=0.00625
EXTRACT: note_on channel=11 note=69 velocity=87 time=0.0015625
EXTRACT: note_on channel=12 note=69 velocity=69 time=0.0078125
EXTRACT: note_on channel=11 note=81 velocity=87 time=0.0015625
EXTRACT: control_change channel=12 control=10 value=23 time=0.0015625
EXTRACT: note_on channel=4 note=64 velocity=74 time=0.0015625
EXTRACT: control_change channel=12 control=10 value=27 time=0.037500000000000006
EXTRACT: control_change channel=12 control=10 value=31 time=0.0390625
EXTRACT: control_change channel=12 control=10 value=35 time=0.0390625
EXTRACT: note_on channel=12 note=69 velocity=0 time=0.0078125
EXTRACT: note_on channel=11 note=81 velocity=0 time=0.0078125
EXTRACT: note_on channel=11 note=69 velocity=0 time=0
EXTRACT: note_on channel=1 note=42 velocity=0 time=0.0078125
EXTRACT: note_on channel=2 note=64 velocity=0 time=0.0078125
EXTRACT: note_on channel=2 note=61 velocity=0 time=0
EXTRACT: note_on channel=2 note=54 velocity=0 time=0
EXTRACT: note_on channel=2 note=42 velocity=0 time=0
EXTRACT: note_on channel=2 note=57 velocity=0 time=0
EXTRACT: note_on channel=4 note=64 velocity=0 time=0
EXTRACT: note_on channel=4 note=69 velocity=0 time=0
EXTRACT: note_on channel=4 note=71 velocity=0 time=0
EXTRACT: note_on channel=6 note=54 velocity=0 time=0
EXTRACT: note_on channel=7 note=54 velocity=0 time=0
EXTRACT: note_on channel=7 note=69 velocity=0 time=0
EXTRACT: note_on channel=7 note=66 velocity=0 time=0
EXTRACT: note_on channel=8 note=54 velocity=0 time=0
EXTRACT: note_on channel=8 note=57 velocity=0 time=0
EXTRACT: note_on channel=8 note=49 velocity=0 time=0
EXTRACT: note_on channel=8 note=42 velocity=0 time=0
EXTRACT: note_on channel=8 note=50 velocity=58 time=0.021875000000000002
EXTRACT: note_on channel=2 note=57 velocity=90 time=0.003125
EXTRACT: note_on channel=2 note=38 velocity=92 time=0.0015625
EXTRACT: note_on channel=8 note=57 velocity=58 time=0
EXTRACT: note_on channel=8 note=54 velocity=62 time=0
EXTRACT: note_on channel=11 note=81 velocity=85 time=0
EXTRACT: note_on channel=8 note=38 velocity=60 time=0.0015625
EXTRACT: note_on channel=7 note=66 velocity=58 time=0.0015625
EXTRACT: note_on channel=9 note=35 velocity=115 time=0.0015625
EXTRACT: note_on channel=9 note=36 velocity=115 time=0
EXTRACT: note_on channel=10 note=60 velocity=115 time=0
EXTRACT: note_on channel=12 note=69 velocity=70 time=0
EXTRACT: note_on channel=11 note=69 velocity=84 time=0.0015625
EXTRACT: note_on channel=3 note=85 velocity=92 time=0.0015625
EXTRACT: note_on channel=7 note=62 velocity=58 time=0.0015625
EXTRACT: note_on channel=7 note=50 velocity=59 time=0.003125
EXTRACT: note_on channel=2 note=62 velocity=92 time=0.003125
EXTRACT: note_on channel=1 note=38 velocity=75 time=0.0015625
EXTRACT: note_on channel=2 note=54 velocity=90 time=0
EXTRACT: note_on channel=6 note=54 velocity=77 time=0
EXTRACT: control_change channel=12 control=10 value=43 time=0.003125
EXTRACT: note_on channel=9 note=36 velocity=0 time=0.0125
EXTRACT: note_on channel=9 note=35 velocity=0 time=0
EXTRACT: note_on channel=10 note=60 velocity=0 time=0
EXTRACT: control_change channel=12 control=10 value=47 time=0.026562500000000003
EXTRACT: control_change channel=12 control=10 value=51 time=0.0390625
EXTRACT: note_on channel=12 note=69 velocity=0 time=0.0390625
EXTRACT: control_change channel=12 control=10 value=55 time=0
EXTRACT: note_on channel=11 note=69 velocity=0 time=0.0078125
EXTRACT: note_on channel=11 note=81 velocity=0 time=0
EXTRACT: note_on channel=2 note=57 velocity=0 time=0.203125
EXTRACT: note_on channel=3 note=85 velocity=0 time=0.0078125
EXTRACT: note_on channel=2 note=59 velocity=60 time=0.025
EXTRACT: note_on channel=12 note=66 velocity=68 time=0
EXTRACT: note_on channel=11 note=66 velocity=87 time=0.0015625
EXTRACT: note_on channel=3 note=83 velocity=80 time=0.00625
EXTRACT: note_on channel=11 note=78 velocity=84 time=0.0015625
EXTRACT: control_change channel=12 control=10 value=83 time=0.0203125
EXTRACT: control_change channel=12 control=10 value=87 time=0.0390625
EXTRACT: control_change channel=12 control=10 value=91 time=0.0390625
EXTRACT: note_on channel=12 note=66 velocity=0 time=0.0234375
EXTRACT: note_on channel=11 note=78 velocity=0 time=0.0078125
EXTRACT: note_on channel=11 note=66 velocity=0 time=0
EXTRACT: note_on channel=11 note=68 velocity=87 time=0.043750000000000004
EXTRACT: note_on channel=9 note=35 velocity=115 time=0.003125
EXTRACT: note_on channel=9 note=36 velocity=115 time=0
EXTRACT: note_on channel=11 note=80 velocity=85 time=0.003125
EXTRACT: note_on channel=12 note=68 velocity=69 time=0.0078125
EXTRACT: note_on channel=9 note=36 velocity=0 time=0.0171875
EXTRACT: note_on channel=9 note=35 velocity=0 time=0
EXTRACT: control_change channel=12 control=10 value=103 time=0.010937500000000001
EXTRACT: control_change channel=12 control=10 value=107 time=0.0390625
EXTRACT: control_change channel=12 control=10 value=111 time=0.0390625
EXTRACT: note_on channel=12 note=68 velocity=0 time=0.015625
EXTRACT: note_on channel=11 note=80 velocity=0 time=0.0078125
EXTRACT: note_on channel=11 note=68 velocity=0 time=0
EXTRACT: note_on channel=2 note=59 velocity=0 time=0.015625
EXTRACT: note_on channel=4 note=73 velocity=89 time=0.0203125
EXTRACT: note_on channel=11 note=81 velocity=83 time=0.0015625
EXTRACT: note_on channel=9 note=39 velocity=114 time=0.0015625
EXTRACT: note_on channel=11 note=69 velocity=84 time=0.010937500000000001
EXTRACT: note_on channel=12 note=69 velocity=71 time=0
EXTRACT: note_on channel=4 note=66 velocity=88 time=0.0015625
EXTRACT: note_on channel=2 note=57 velocity=70 time=0.003125
EXTRACT: control_change channel=12 control=10 value=119 time=0
EXTRACT: note_on channel=4 note=57 velocity=88 time=0.003125
EXTRACT: note_on channel=9 note=39 velocity=0 time=0.009375000000000001
EXTRACT: control_change channel=12 control=10 value=123 time=0.026562500000000003
EXTRACT: control_change channel=12 control=10 value=121 time=0.0390625
EXTRACT: control_change channel=12 control=10 value=117 time=0.0390625
EXTRACT: note_on channel=12 note=69 velocity=0 time=0.0078125
EXTRACT: note_on channel=11 note=69 velocity=0 time=0.0078125
EXTRACT: note_on channel=11 note=81 velocity=0 time=0
EXTRACT: note_on channel=4 note=57 velocity=0 time=0.015625
EXTRACT: note_on channel=4 note=66 velocity=0 time=0
EXTRACT: note_on channel=4 note=73 velocity=0 time=0
EXTRACT: note_on channel=4 note=71 velocity=74 time=0.018750000000000003
EXTRACT: note_on channel=4 note=66 velocity=72 time=0.009375000000000001
EXTRACT: note_on channel=12 note=69 velocity=71 time=0.004687500000000001
EXTRACT: note_on channel=4 note=57 velocity=71 time=0.010937500000000001
EXTRACT: control_change channel=12 control=10 value=109 time=0.003125
EXTRACT: control_change channel=12 control=10 value=105 time=0.0390625
EXTRACT: control_change channel=12 control=10 value=101 time=0.0390625
EXTRACT: note_on channel=12 note=69 velocity=0 time=0.0390625
EXTRACT: control_change channel=12 control=10 value=97 time=0
EXTRACT: note_on channel=2 note=57 velocity=0 time=0.0234375
EXTRACT: note_on channel=4 note=57 velocity=0 time=0
EXTRACT: note_on channel=4 note=66 velocity=0 time=0
EXTRACT: note_on channel=4 note=71 velocity=0 time=0
EXTRACT: note_on channel=3 note=83 velocity=0 time=0.0078125
EXTRACT: note_on channel=11 note=69 velocity=84 time=0.0171875
EXTRACT: note_on channel=2 note=57 velocity=77 time=0.0015625
EXTRACT: note_on channel=12 note=69 velocity=72 time=0.004687500000000001
EXTRACT: note_on channel=4 note=71 velocity=80 time=0.003125
EXTRACT: note_on channel=4 note=66 velocity=78 time=0.003125
EXTRACT: note_on channel=11 note=81 velocity=84 time=0
EXTRACT: note_on channel=4 note=57 velocity=76 time=0.00625
EXTRACT: control_change channel=12 control=10 value=89 time=0.010937500000000001
EXTRACT: control_change channel=12 control=10 value=85 time=0.0390625
EXTRACT: control_change channel=12 control=10 value=81 time=0.0390625
EXTRACT: note_on channel=12 note=69 velocity=0 time=0.03125
EXTRACT: note_on channel=11 note=81 velocity=0 time=0.0078125
EXTRACT: note_on channel=11 note=69 velocity=0 time=0
EXTRACT: control_change channel=12 control=10 value=77 time=0
EXTRACT: note_on channel=12 note=69 velocity=71 time=0.059375000000000004
EXTRACT: control_change channel=12 control=10 value=69 time=0.018750000000000003
EXTRACT: control_change channel=12 control=10 value=65 time=0.0390625
EXTRACT: control_change channel=12 control=10 value=61 time=0.0390625
EXTRACT: note_on channel=12 note=69 velocity=0 time=0.0234375
EXTRACT: note_on channel=2 note=54 velocity=0 time=0.0234375
EXTRACT: note_on channel=4 note=57 velocity=0 time=0
EXTRACT: note_on channel=4 note=66 velocity=0 time=0
EXTRACT: note_on channel=4 note=71 velocity=0 time=0
EXTRACT: note_on channel=7 note=50 velocity=0 time=0
EXTRACT: note_on channel=7 note=62 velocity=0 time=0
EXTRACT: note_on channel=7 note=66 velocity=0 time=0
EXTRACT: note_on channel=11 note=69 velocity=84 time=0.021875000000000002
EXTRACT: note_on channel=11 note=81 velocity=87 time=0.0015625
EXTRACT: note_on channel=12 note=69 velocity=69 time=0
EXTRACT: note_on channel=3 note=83 velocity=88 time=0.003125
EXTRACT: note_on channel=9 note=36 velocity=115 time=0.004687500000000001
EXTRACT: control_change channel=12 control=10 value=53 time=0
EXTRACT: note_on channel=2 note=54 velocity=89 time=0.004687500000000001
EXTRACT: note_on channel=9 note=36 velocity=0 time=0.0234375
EXTRACT: control_change channel=12 control=10 value=49 time=0.010937500000000001
EXTRACT: control_change channel=12 control=10 value=45 time=0.0390625
EXTRACT: control_change channel=12 control=10 value=41 time=0.0390625
EXTRACT: note_on channel=12 note=69 velocity=0 time=0.015625
EXTRACT: note_on channel=11 note=81 velocity=0 time=0.0078125
EXTRACT: note_on channel=11 note=69 velocity=0 time=0
EXTRACT: note_on channel=12 note=69 velocity=70 time=0.05
EXTRACT: control_change channel=12 control=10 value=33 time=0.004687500000000001
EXTRACT: control_change channel=12 control=10 value=29 time=0.0390625
EXTRACT: control_change channel=12 control=10 value=25 time=0.0390625
EXTRACT: control_change channel=12 control=10 value=21 time=0.0390625
EXTRACT: note_on channel=12 note=69 velocity=0 time=0.0078125
EXTRACT: note_on channel=2 note=57 velocity=0 time=0.0234375
EXTRACT: note_on channel=3 note=83 velocity=0 time=0.0078125
EXTRACT: note_on channel=11 note=69 velocity=87 time=0.0125
EXTRACT: note_on channel=2 note=57 velocity=78 time=0.0078125
EXTRACT: note_on channel=12 note=69 velocity=70 time=0
EXTRACT: note_on channel=9 note=35 velocity=115 time=0.003125
EXTRACT: note_on channel=9 note=36 velocity=115 time=0
EXTRACT: note_on channel=3 note=81 velocity=76 time=0.00625
EXTRACT: note_on channel=11 note=81 velocity=87 time=0.00625
EXTRACT: control_change channel=12 control=10 value=15 time=0.003125
EXTRACT: note_on channel=9 note=36 velocity=0 time=0.0125
EXTRACT: note_on channel=9 note=35 velocity=0 time=0
EXTRACT: control_change channel=12 control=10 value=19 time=0.026562500000000003
EXTRACT: control_change channel=12 control=10 value=23 time=0.0390625
EXTRACT: note_on channel=12 note=69 velocity=0 time=0.0390625
EXTRACT: control_change channel=12 control=10 value=27 time=0
EXTRACT: note_on channel=11 note=81 velocity=0 time=0.0078125
EXTRACT: note_on channel=11 note=69 velocity=0 time=0
EXTRACT: note_on channel=12 note=69 velocity=68 time=0.0390625
EXTRACT: control_change channel=12 control=10 value=35 time=0.03125
EXTRACT: control_change channel=12 control=10 value=39 time=0.0390625
EXTRACT: control_change channel=12 control=10 value=43 time=0.0390625
EXTRACT: note_on channel=12 note=69 velocity=0 time=0.03125
EXTRACT: control_change channel=12 control=10 value=47 time=0.0078125
EXTRACT: control_change channel=12 control=10 value=51 time=0.0390625
EXTRACT: note_on channel=12 note=69 velocity=72 time=0.0015625
EXTRACT: note_on channel=9 note=39 velocity=117 time=0.003125
EXTRACT: note_on channel=11 note=69 velocity=83 time=0.003125
EXTRACT: note_on channel=11 note=81 velocity=84 time=0.004687500000000001
EXTRACT: note_on channel=9 note=39 velocity=0 time=0.0203125
EXTRACT: control_change channel=12 control=10 value=55 time=0.00625
EXTRACT: control_change channel=12 control=10 value=59 time=0.0390625
EXTRACT: control_change channel=12 control=10 value=63 time=0.0390625
EXTRACT: note_on channel=12 note=69 velocity=0 time=0.0234375
EXTRACT: note_on channel=11 note=81 velocity=0 time=0.0078125
EXTRACT: note_on channel=11 note=69 velocity=0 time=0
EXTRACT: note_on channel=11 note=81 velocity=87 time=0.0390625
EXTRACT: note_on channel=9 note=35 velocity=115 time=0.0078125
EXTRACT: note_on channel=9 note=36 velocity=115 time=0
EXTRACT: note_on channel=12 note=69 velocity=70 time=0.004687500000000001
EXTRACT: note_on channel=11 note=69 velocity=83 time=0.004687500000000001
EXTRACT: note_on channel=9 note=36 velocity=0 time=0.018750000000000003
EXTRACT: note_on channel=9 note=35 velocity=0 time=0
EXTRACT: control_change channel=12 control=10 value=75 time=0.010937500000000001
EXTRACT: control_change channel=12 control=10 value=79 time=0.0390625
EXTRACT: control_change channel=12 control=10 value=83 time=0.0390625
EXTRACT: note_on channel=12 note=69 velocity=0 time=0.015625
EXTRACT: note_on channel=11 note=69 velocity=0 time=0.0078125
EXTRACT: note_on channel=11 note=81 velocity=0 time=0
EXTRACT: note_on channel=5 note=69 velocity=76 time=0.035937500000000004
EXTRACT: note_on channel=12 note=69 velocity=69 time=0.004687500000000001
EXTRACT: note_on channel=11 note=81 velocity=86 time=0.0078125
EXTRACT: control_change channel=12 control=10 value=91 time=0.00625
EXTRACT: note_on channel=11 note=69 velocity=83 time=0.0015625
EXTRACT: control_change channel=12 control=10 value=95 time=0.037500000000000006
EXTRACT: control_change channel=12 control=10 value=99 time=0.0390625
EXTRACT: control_change channel=12 control=10 value=103 time=0.0390625
EXTRACT: note_on channel=12 note=69 velocity=0 time=0.0078125
EXTRACT: note_on channel=11 note=69 velocity=0 time=0.0078125
EXTRACT: note_on channel=11 note=81 velocity=0 time=0
EXTRACT: note_on channel=11 note=81 velocity=83 time=0.0390625
EXTRACT: note_on channel=12 note=69 velocity=71 time=0.010937500000000001
EXTRACT: note_on channel=11 note=69 velocity=85 time=0.0015625
EXTRACT: control_change channel=12 control=10 value=111 time=0.010937500000000001
EXTRACT: control_change channel=12 control=10 value=115 time=0.0390625
EXTRACT: control_change channel=12 control=10 value=119 time=0.0390625
EXTRACT: note_on channel=12 note=69 velocity=0 time=0.0390625
EXTRACT: control_change channel=12 control=10 value=123 time=0
EXTRACT: note_on channel=11 note=69 velocity=0 time=0.0078125
EXTRACT: note_on channel=11 note=81 velocity=0 time=0
EXTRACT: note_on channel=1 note=38 velocity=0 time=0.0078125
EXTRACT: note_on channel=2 note=57 velocity=0 time=0.0078125
EXTRACT: note_on channel=2 note=54 velocity=0 time=0
EXTRACT: note_on channel=2 note=62 velocity=0 time=0
EXTRACT: note_on channel=2 note=38 velocity=0 time=0
EXTRACT: note_on channel=6 note=54 velocity=0 time=0
EXTRACT: note_on channel=8 note=38 velocity=0 time=0
EXTRACT: note_on channel=8 note=50 velocity=0 time=0
EXTRACT: note_on channel=8 note=57 velocity=0 time=0
EXTRACT: note_on channel=8 note=54 velocity=0 time=0
EXTRACT: note_on channel=9 note=35 velocity=115 time=0.03125
EXTRACT: note_on channel=9 note=36 velocity=115 time=0
EXTRACT: note_on channel=9 note=36 velocity=0 time=0.028125
EXTRACT: note_on channel=9 note=35 velocity=0 time=0
EXTRACT: note_on channel=3 note=81 velocity=0 time=0.13593750000000002
EXTRACT: note_on channel=3 note=88 velocity=73 time=0.029687500000000002
EXTRACT: control_change channel=12 control=10 value=64 time=0.11875000000000001
EXTRACT: note_on channel=3 note=88 velocity=0 time=0.0390625
EXTRACT: note_on channel=3 note=85 velocity=79 time=0.025
EXTRACT: note_on channel=9 note=35 velocity=115 time=0.1859375
EXTRACT: note_on channel=9 note=36 velocity=115 time=0
EXTRACT: note_on channel=9 note=36 velocity=0 time=0.028125
EXTRACT: note_on channel=9 note=35 velocity=0 time=0
EXTRACT: note_on channel=9 note=39 velocity=116 time=0.15000000000000002
EXTRACT: note_on channel=9 note=39 velocity=0 time=0.028125
EXTRACT: note_on channel=5 note=69 velocity=0 time=0.1375
EXTRACT: note_on channel=3 note=85 velocity=0 time=0.0078125
EXTRACT: note_on channel=5 note=76 velocity=73 time=0.035937500000000004
EXTRACT: note_on channel=5 note=76 velocity=0 time=0.14375000000000002
EXTRACT: note_on channel=5 note=73 velocity=80 time=0.029687500000000002
EXTRACT: note_on channel=9 note=36 velocity=115 time=0.3765625
EXTRACT: note_on channel=9 note=36 velocity=0 time=0.028125
EXTRACT: note_on channel=5 note=73 velocity=0 time=0.12812500000000002
EXTRACT: note_on channel=5 note=76 velocity=41 time=0.026562500000000003
EXTRACT: note_on channel=5 note=76 velocity=0 time=0.1609375
EXTRACT: note_on channel=5 note=73 velocity=45 time=0.028125
EXTRACT: note_on channel=9 note=35 velocity=115 time=0.19062500000000002
EXTRACT: note_on channel=9 note=36 velocity=115 time=0
EXTRACT: note_on channel=9 note=36 velocity=0 time=0.028125
EXTRACT: note_on channel=9 note=35 velocity=0 time=0
EXTRACT: note_on channel=9 note=39 velocity=115 time=0.1609375
EXTRACT: note_on channel=9 note=39 velocity=0 time=0.028125
EXTRACT: note_on channel=5 note=73 velocity=0 time=0.1265625
EXTRACT: note_on channel=9 note=35 velocity=115 time=0.03125
EXTRACT: note_on channel=9 note=36 velocity=115 time=0
EXTRACT: note_on channel=9 note=36 velocity=0 time=0.028125
EXTRACT: note_on channel=9 note=35 velocity=0 time=0
EXTRACT: note_on channel=9 note=36 velocity=115 time=0.15937500000000002
EXTRACT: note_on channel=9 note=36 velocity=0 time=0.028125
EXTRACT: note_on channel=9 note=36 velocity=115 time=0.15937500000000002
EXTRACT: note_on channel=9 note=36 velocity=0 time=0.028125
EXTRACT: note_on channel=9 note=35 velocity=115 time=0.15937500000000002
EXTRACT: note_on channel=9 note=36 velocity=115 time=0
EXTRACT: note_on channel=10 note=60 velocity=78 time=0
EXTRACT: note_on channel=9 note=36 velocity=0 time=0.028125
EXTRACT: note_on channel=9 note=35 velocity=0 time=0
EXTRACT: note_on channel=10 note=60 velocity=0 time=0
