EXTRACT: control_change channel=0 control=101 value=0 time=0
EXTRACT: control_change channel=0 control=100 value=0 time=0
EXTRACT: control_change channel=0 control=6 value=12 time=0
EXTRACT: control_change channel=0 control=38 value=0 time=0
EXTRACT: control_change channel=1 control=101 value=0 time=0
EXTRACT: control_change channel=1 control=100 value=0 time=0
EXTRACT: control_change channel=1 control=6 value=12 time=0
EXTRACT: control_change channel=1 control=38 value=0 time=0
EXTRACT: control_change channel=2 control=101 value=0 time=0
EXTRACT: control_change channel=2 control=100 value=0 time=0
EXTRACT: control_change channel=2 control=6 value=12 time=0
EXTRACT: control_change channel=2 control=38 value=0 time=0
EXTRACT: control_change channel=3 control=101 value=0 time=0
EXTRACT: control_change channel=3 control=100 value=0 time=0
EXTRACT: control_change channel=3 control=6 value=12 time=0
EXTRACT: control_change channel=3 control=38 value=0 time=0
EXTRACT: control_change channel=4 control=101 value=0 time=0
EXTRACT: control_change channel=4 control=100 value=0 time=0
EXTRACT: control_change channel=4 control=6 value=12 time=0
EXTRACT: control_change channel=4 control=38 value=0 time=0
EXTRACT: control_change channel=5 control=101 value=0 time=0
EXTRACT: control_change channel=5 control=100 value=0 time=0
EXTRACT: control_change channel=5 control=6 value=12 time=0
EXTRACT: control_change channel=5 control=38 value=0 time=0
EXTRACT: control_change channel=6 control=101 value=0 time=0
EXTRACT: control_change channel=6 control=100 value=0 time=0
EXTRACT: control_change channel=6 control=6 value=12 time=0
EXTRACT: control_change channel=6 control=38 value=0 time=0
EXTRACT: control_change channel=7 control=101 value=0 time=0
EXTRACT: control_change channel=7 control=100 value=0 time=0
EXTRACT: control_change channel=7 control=6 value=12 time=0
EXTRACT: control_change channel=7 control=38 value=0 time=0
EXTRACT: control_change channel=8 control=101 value=0 time=0
EXTRACT: control_change channel=8 control=100 value=0 time=0
EXTRACT: control_change channel=8 control=6 value=12 time=0
EXTRACT: control_change channel=8 control=38 value=0 time=0
EXTRACT: control_change channel=9 control=101 value=0 time=0
EXTRACT: control_change channel=9 control=100 value=0 time=0
EXTRACT: control_change channel=9 control=6 value=12 time=0
EXTRACT: control_change channel=9 control=38 value=0 time=0
EXTRACT: control_change channel=10 control=101 value=0 time=0
EXTRACT: control_change channel=10 control=100 value=0 time=0
EXTRACT: control_change channel=10 control=6 value=12 time=0
EXTRACT: control_change channel=10 control=38 value=0 time=0
EXTRACT: control_change channel=11 control=101 value=0 time=0
EXTRACT: control_change channel=11 control=100 value=0 time=0
EXTRACT: control_change channel=11 control=6 value=12 time=0
EXTRACT: control_change channel=11 control=38 value=0 time=0
EXTRACT: control_change channel=12 control=101 value=0 time=0
EXTRACT: control_change channel=12 control=100 value=0 time=0
EXTRACT: control_change channel=12 control=6 value=12 time=0
EXTRACT: control_change channel=12 control=38 value=0 time=0
EXTRACT: control_change channel=13 control=101 value=0 time=0
EXTRACT: control_change channel=13 control=100 value=0 time=0
EXTRACT: control_change channel=13 control=6 value=12 time=0
EXTRACT: control_change channel=13 control=38 value=0 time=0
EXTRACT: control_change channel=14 control=101 value=0 time=0
EXTRACT: control_change channel=14 control=100 value=0 time=0
EXTRACT: control_change channel=14 control=6 value=12 time=0
EXTRACT: control_change channel=14 control=38 value=0 time=0
EXTRACT: control_change channel=15 control=101 value=0 time=0
EXTRACT: control_change channel=15 control=100 value=0 time=0
EXTRACT: control_change channel=15 control=6 value=12 time=0
EXTRACT: control_change channel=15 control=38 value=0 time=0
EXTRACT: pitchwheel channel=0 pitch=0 time=0
EXTRACT: control_change channel=0 control=7 value=103 time=0
EXTRACT: control_change channel=0 control=10 value=63 time=0
EXTRACT: control_change channel=0 control=93 value=0 time=0
EXTRACT: control_change channel=0 control=91 value=0 time=0
EXTRACT: control_change channel=0 control=95 value=0 time=0
EXTRACT: control_change channel=0 control=92 value=0 time=0
EXTRACT: control_change channel=0 control=11 value=127 time=0
EXTRACT: program_change channel=0 program=29 time=0
EXTRACT: control_change channel=1 control=7 value=103 time=0
EXTRACT: control_change channel=1 control=10 value=63 time=0
EXTRACT: control_change channel=1 control=93 value=0 time=0
EXTRACT: control_change channel=1 control=91 value=0 time=0
EXTRACT: control_change channel=1 control=95 value=0 time=0
EXTRACT: control_change channel=1 control=92 value=0 time=0
EXTRACT: control_change channel=1 control=11 value=127 time=0
EXTRACT: program_change channel=1 program=29 time=0
EXTRACT: pitchwheel channel=2 pitch=0 time=0
EXTRACT: control_change channel=2 control=7 value=103 time=0
EXTRACT: control_change channel=2 control=10 value=63 time=0
EXTRACT: control_change channel=2 control=93 value=0 time=0
EXTRACT: control_change channel=2 control=91 value=0 time=0
EXTRACT: control_change channel=2 control=95 value=0 time=0
EXTRACT: control_change channel=2 control=92 value=0 time=0
EXTRACT: control_change channel=2 control=11 value=127 time=0
EXTRACT: program_change channel=2 program=27 time=0
EXTRACT: control_change channel=7 control=7 value=103 time=0
EXTRACT: control_change channel=7 control=10 value=63 time=0
EXTRACT: control_change channel=7 control=93 value=0 time=0
EXTRACT: control_change channel=7 control=91 value=0 time=0
EXTRACT: control_change channel=7 control=95 value=0 time=0
EXTRACT: control_change channel=7 control=92 value=0 time=0
EXTRACT: control_change channel=7 control=11 value=127 time=0
EXTRACT: program_change channel=7 program=27 time=0
EXTRACT: pitchwheel channel=8 pitch=0 time=0
EXTRACT: control_change channel=8 control=7 value=103 time=0
EXTRACT: control_change channel=8 control=10 value=63 time=0
EXTRACT: control_change channel=8 control=93 value=0 time=0
EXTRACT: control_change channel=8 control=91 value=0 time=0
EXTRACT: control_change channel=8 control=95 value=0 time=0
EXTRACT: control_change channel=8 control=92 value=0 time=0
EXTRACT: control_change channel=8 control=11 value=127 time=0
EXTRACT: program_change channel=8 program=33 time=0
EXTRACT: control_change channel=10 control=7 value=103 time=0
EXTRACT: control_change channel=10 control=10 value=63 time=0
EXTRACT: control_change channel=10 control=93 value=0 time=0
EXTRACT: control_change channel=10 control=91 value=0 time=0
EXTRACT: control_change channel=10 control=95 value=0 time=0
EXTRACT: control_change channel=10 control=92 value=0 time=0
EXTRACT: control_change channel=10 control=11 value=127 time=0
EXTRACT: program_change channel=10 program=33 time=0
EXTRACT: pitchwheel channel=3 pitch=0 time=0
EXTRACT: control_change channel=3 control=7 value=79 time=0
EXTRACT: control_change channel=3 control=10 value=63 time=0
EXTRACT: control_change channel=3 control=93 value=0 time=0
EXTRACT: control_change channel=3 control=91 value=0 time=0
EXTRACT: control_change channel=3 control=95 value=0 time=0
EXTRACT: control_change channel=3 control=92 value=0 time=0
EXTRACT: control_change channel=3 control=11 value=127 time=0
EXTRACT: program_change channel=3 program=64 time=0
EXTRACT: pitchwheel channel=4 pitch=0 time=0
EXTRACT: control_change channel=4 control=7 value=103 time=0
EXTRACT: control_change channel=4 control=10 value=63 time=0
EXTRACT: control_change channel=4 control=93 value=0 time=0
EXTRACT: control_change channel=4 control=91 value=0 time=0
EXTRACT: control_change channel=4 control=95 value=0 time=0
EXTRACT: control_change channel=4 control=92 value=0 time=0
EXTRACT: control_change channel=4 control=11 value=127 time=0
EXTRACT: program_change channel=4 program=0 time=0
EXTRACT: pitchwheel channel=5 pitch=0 time=0
EXTRACT: control_change channel=5 control=7 value=103 time=0
EXTRACT: control_change channel=5 control=10 value=63 time=0
EXTRACT: control_change channel=5 control=93 value=0 time=0
EXTRACT: control_change channel=5 control=91 value=0 time=0
EXTRACT: control_change channel=5 control=95 value=0 time=0
EXTRACT: control_change channel=5 control=92 value=0 time=0
EXTRACT: control_change channel=5 control=11 value=127 time=0
EXTRACT: program_change channel=5 program=5 time=0
EXTRACT: pitchwheel channel=6 pitch=0 time=0
EXTRACT: control_change channel=6 control=7 value=103 time=0
EXTRACT: control_change channel=6 control=10 value=63 time=0
EXTRACT: control_change channel=6 control=93 value=0 time=0
EXTRACT: control_change channel=6 control=91 value=0 time=0
EXTRACT: control_change channel=6 control=95 value=0 time=0
EXTRACT: control_change channel=6 control=92 value=0 time=0
EXTRACT: control_change channel=6 control=11 value=127 time=0
EXTRACT: program_change channel=6 program=48 time=0
EXTRACT: pitchwheel channel=9 pitch=0 time=0
EXTRACT: control_change channel=9 control=7 value=103 time=0
EXTRACT: control_change channel=9 control=10 value=63 time=0
EXTRACT: control_change channel=9 control=93 value=0 time=0
EXTRACT: control_change channel=9 control=91 value=0 time=0
EXTRACT: control_change channel=9 control=95 value=0 time=0
EXTRACT: control_change channel=9 control=92 value=0 time=0
EXTRACT: control_change channel=9 control=11 value=127 time=0
EXTRACT: program_change channel=9 program=0 time=0
EXTRACT: note_on channel=9 note=31 velocity=95 time=0
EXTRACT: note_off channel=9 note=31 velocity=95 time=0.535714
EXTRACT: note_on channel=9 note=31 velocity=95 time=0
EXTRACT: note_off channel=9 note=31 velocity=95 time=0.535714
EXTRACT: note_on channel=9 note=31 velocity=95 time=0
EXTRACT: note_off channel=9 note=31 velocity=95 time=0.535714
EXTRACT: note_on channel=9 note=31 velocity=95 time=0
EXTRACT: note_on channel=0 note=47 velocity=95 time=0.535714
EXTRACT: note_on channel=8 note=35 velocity=127 time=0
EXTRACT: note_on channel=4 note=47 velocity=95 time=0
EXTRACT: note_off channel=9 note=31 velocity=95 time=0
EXTRACT: note_on channel=9 note=44 velocity=127 time=0
EXTRACT: note_on channel=9 note=49 velocity=127 time=0
EXTRACT: note_on channel=9 note=54 velocity=127 time=0
EXTRACT: note_on channel=9 note=35 velocity=127 time=0
EXTRACT: note_off channel=9 note=44 velocity=127 time=0.1339285
EXTRACT: note_off channel=9 note=49 velocity=127 time=0
EXTRACT: note_off channel=9 note=54 velocity=127 time=0
EXTRACT: note_off channel=9 note=35 velocity=127 time=0
EXTRACT: note_on channel=9 note=54 velocity=127 time=0
EXTRACT: note_off channel=0 note=47 velocity=95 time=0.1339285
EXTRACT: note_off channel=8 note=35 velocity=127 time=0
EXTRACT: note_off channel=4 note=47 velocity=95 time=0
EXTRACT: note_off channel=9 note=54 velocity=127 time=0
EXTRACT: note_on channel=9 note=54 velocity=127 time=0
EXTRACT: note_off channel=9 note=54 velocity=127 time=0.1339285
EXTRACT: note_on channel=9 note=54 velocity=127 time=0
EXTRACT: note_off channel=9 note=54 velocity=127 time=0.1339285
EXTRACT: note_on channel=9 note=38 velocity=127 time=0
EXTRACT: note_on channel=9 note=39 velocity=95 time=0
EXTRACT: note_on channel=9 note=44 velocity=127 time=0
EXTRACT: note_on channel=9 note=54 velocity=127 time=0
EXTRACT: note_off channel=9 note=38 velocity=127 time=0.1339285
EXTRACT: note_off channel=9 note=39 velocity=95 time=0
EXTRACT: note_off channel=9 note=44 velocity=127 time=0
EXTRACT: note_off channel=9 note=54 velocity=127 time=0
EXTRACT: note_on channel=9 note=54 velocity=127 time=0
EXTRACT: note_on channel=0 note=47 velocity=95 time=0.1339285
EXTRACT: note_on channel=8 note=35 velocity=127 time=0
EXTRACT: note_on channel=4 note=47 velocity=95 time=0
EXTRACT: note_off channel=9 note=54 velocity=127 time=0
EXTRACT: note_on channel=9 note=54 velocity=127 time=0
EXTRACT: note_off channel=9 note=54 velocity=127 time=0.1339285
EXTRACT: note_on channel=9 note=54 velocity=127 time=0
EXTRACT: note_off channel=0 note=47 velocity=95 time=0.1339285
EXTRACT: note_on channel=0 note=50 velocity=95 time=0
EXTRACT: note_off channel=8 note=35 velocity=127 time=0
EXTRACT: note_on channel=8 note=38 velocity=127 time=0
EXTRACT: note_off channel=4 note=47 velocity=95 time=0
EXTRACT: note_on channel=4 note=50 velocity=95 time=0
EXTRACT: note_off channel=9 note=54 velocity=127 time=0
EXTRACT: note_on channel=9 note=44 velocity=127 time=0
EXTRACT: note_on channel=9 note=54 velocity=127 time=0
EXTRACT: note_on channel=9 note=35 velocity=127 time=0
EXTRACT: note_off channel=9 note=44 velocity=127 time=0.1339285
EXTRACT: note_off channel=9 note=54 velocity=127 time=0
EXTRACT: note_off channel=9 note=35 velocity=127 time=0
EXTRACT: note_on channel=9 note=54 velocity=127 time=0
EXTRACT: note_off channel=0 note=50 velocity=95 time=0.1339285
EXTRACT: note_off channel=8 note=38 velocity=127 time=0
EXTRACT: note_off channel=4 note=50 velocity=95 time=0
EXTRACT: note_off channel=9 note=54 velocity=127 time=0
EXTRACT: note_on channel=9 note=54 velocity=127 time=0
EXTRACT: note_off channel=9 note=54 velocity=127 time=0.1339285
EXTRACT: note_on channel=9 note=54 velocity=127 time=0
EXTRACT: note_off channel=9 note=54 velocity=127 time=0.1339285
EXTRACT: note_on channel=9 note=38 velocity=127 time=0
EXTRACT: note_on channel=9 note=39 velocity=95 time=0
EXTRACT: note_on channel=9 note=44 velocity=127 time=0
EXTRACT: note_on channel=9 note=54 velocity=127 time=0
EXTRACT: note_off channel=9 note=38 velocity=127 time=0.1339285
EXTRACT: note_off channel=9 note=39 velocity=95 time=0
EXTRACT: note_off channel=9 note=44 velocity=127 time=0
EXTRACT: note_off channel=9 note=54 velocity=127 time=0
EXTRACT: note_on channel=9 note=54 velocity=127 time=0
EXTRACT: note_on channel=0 note=50 velocity=95 time=0.1339285
EXTRACT: note_on channel=8 note=38 velocity=127 time=0
EXTRACT: note_on channel=4 note=50 velocity=95 time=0
EXTRACT: note_off channel=9 note=54 velocity=127 time=0
EXTRACT: note_on channel=9 note=54 velocity=127 time=0
EXTRACT: note_off channel=9 note=54 velocity=127 time=0.1339285
EXTRACT: note_on channel=9 note=44 velocity=127 time=0
EXTRACT: note_on channel=9 note=54 velocity=127 time=0
EXTRACT: note_off channel=0 note=50 velocity=95 time=0.1339285
EXTRACT: note_on channel=0 note=52 velocity=95 time=0
EXTRACT: note_off channel=8 note=38 velocity=127 time=0
EXTRACT: note_on channel=8 note=40 velocity=127 time=0
EXTRACT: note_off channel=4 note=50 velocity=95 time=0
EXTRACT: note_on channel=4 note=52 velocity=95 time=0
EXTRACT: note_off channel=9 note=44 velocity=127 time=0
EXTRACT: note_off channel=9 note=54 velocity=127 time=0
EXTRACT: note_on channel=9 note=54 velocity=127 time=0
EXTRACT: note_on channel=9 note=44 velocity=127 time=0
EXTRACT: note_on channel=9 note=35 velocity=127 time=0
EXTRACT: note_off channel=9 note=54 velocity=127 time=0.1339285
EXTRACT: note_off channel=9 note=44 velocity=127 time=0
EXTRACT: note_off channel=9 note=35 velocity=127 time=0
EXTRACT: note_on channel=9 note=54 velocity=127 time=0
EXTRACT: note_off channel=0 note=52 velocity=95 time=0.1339285
EXTRACT: note_off channel=8 note=40 velocity=127 time=0
EXTRACT: note_off channel=4 note=52 velocity=95 time=0
EXTRACT: note_off channel=9 note=54 velocity=127 time=0
EXTRACT: note_on channel=9 note=54 velocity=127 time=0
EXTRACT: note_off channel=9 note=54 velocity=127 time=0.1339285
EXTRACT: note_on channel=9 note=54 velocity=127 time=0
EXTRACT: note_off channel=9 note=54 velocity=127 time=0.1339285
EXTRACT: note_on channel=9 note=38 velocity=127 time=0
EXTRACT: note_on channel=9 note=39 velocity=95 time=0
EXTRACT: note_on channel=9 note=44 velocity=127 time=0
EXTRACT: note_on channel=9 note=54 velocity=127 time=0
EXTRACT: note_off channel=9 note=38 velocity=127 time=0.1339285
EXTRACT: note_off channel=9 note=39 velocity=95 time=0
EXTRACT: note_off channel=9 note=44 velocity=127 time=0
EXTRACT: note_off channel=9 note=54 velocity=127 time=0
EXTRACT: note_on channel=9 note=54 velocity=127 time=0
EXTRACT: note_on channel=0 note=52 velocity=95 time=0.1339285
EXTRACT: note_on channel=8 note=40 velocity=127 time=0
EXTRACT: note_on channel=4 note=52 velocity=95 time=0
EXTRACT: note_off channel=9 note=54 velocity=127 time=0
EXTRACT: note_on channel=9 note=54 velocity=127 time=0
EXTRACT: note_off channel=9 note=54 velocity=127 time=0.1339285
EXTRACT: note_on channel=9 note=54 velocity=127 time=0
EXTRACT: note_off channel=0 note=52 velocity=95 time=0.1339285
EXTRACT: note_on channel=0 note=45 velocity=95 time=0
EXTRACT: note_off channel=8 note=40 velocity=127 time=0
EXTRACT: note_on channel=8 note=33 velocity=127 time=0
EXTRACT: note_off channel=4 note=52 velocity=95 time=0
EXTRACT: note_on channel=4 note=45 velocity=95 time=0
EXTRACT: note_off channel=9 note=54 velocity=127 time=0
EXTRACT: note_on channel=9 note=44 velocity=127 time=0
EXTRACT: note_on channel=9 note=54 velocity=127 time=0
EXTRACT: note_on channel=9 note=35 velocity=127 time=0
EXTRACT: note_off channel=9 note=44 velocity=127 time=0.1339285
EXTRACT: note_off channel=9 note=54 velocity=127 time=0
EXTRACT: note_off channel=9 note=35 velocity=127 time=0
EXTRACT: note_on channel=9 note=54 velocity=127 time=0
EXTRACT: note_off channel=0 note=45 velocity=95 time=0.1339285
EXTRACT: note_off channel=8 note=33 velocity=127 time=0
EXTRACT: note_off channel=4 note=45 velocity=95 time=0
EXTRACT: note_off channel=9 note=54 velocity=127 time=0
EXTRACT: note_on channel=9 note=54 velocity=127 time=0
EXTRACT: note_on channel=9 note=44 velocity=127 time=0
EXTRACT: note_on channel=0 note=45 velocity=95 time=0.1339285
EXTRACT: note_on channel=8 note=33 velocity=127 time=0
EXTRACT: note_on channel=4 note=45 velocity=95 time=0
EXTRACT: note_off channel=9 note=54 velocity=127 time=0
EXTRACT: note_off channel=9 note=44 velocity=127 time=0
EXTRACT: note_on channel=9 note=54 velocity=127 time=0
EXTRACT: note_off channel=9 note=54 velocity=127 time=0.1339285
EXTRACT: note_on channel=9 note=38 velocity=127 time=0
EXTRACT: note_on channel=9 note=39 velocity=95 time=0
EXTRACT: note_on channel=9 note=54 velocity=127 time=0
EXTRACT: note_off channel=0 note=45 velocity=95 time=0.1339285
EXTRACT: note_off channel=8 note=33 velocity=127 time=0
EXTRACT: note_off channel=4 note=45 velocity=95 time=0
EXTRACT: note_off channel=9 note=38 velocity=127 time=0
EXTRACT: note_off channel=9 note=39 velocity=95 time=0
EXTRACT: note_off channel=9 note=54 velocity=127 time=0
EXTRACT: note_on channel=9 note=54 velocity=127 time=0
EXTRACT: note_on channel=0 note=46 velocity=95 time=0.1339285
EXTRACT: note_on channel=8 note=34 velocity=127 time=0
EXTRACT: note_on channel=4 note=46 velocity=95 time=0
EXTRACT: note_off channel=9 note=54 velocity=127 time=0
EXTRACT: note_on channel=9 note=54 velocity=127 time=0
EXTRACT: note_off channel=9 note=54 velocity=127 time=0.1339285
EXTRACT: note_on channel=9 note=44 velocity=127 time=0
EXTRACT: note_on channel=9 note=54 velocity=127 time=0
EXTRACT: note_off channel=0 note=46 velocity=95 time=0.1339285
EXTRACT: note_on channel=0 note=47 velocity=95 time=0
EXTRACT: note_off channel=8 note=34 velocity=127 time=0
EXTRACT: note_on channel=8 note=35 velocity=127 time=0
EXTRACT: note_off channel=4 note=46 velocity=95 time=0
EXTRACT: note_on channel=4 note=47 velocity=95 time=0
EXTRACT: note_off channel=9 note=44 velocity=127 time=0
EXTRACT: note_off channel=9 note=54 velocity=127 time=0
EXTRACT: note_on channel=9 note=44 velocity=127 time=0
EXTRACT: note_on channel=9 note=49 velocity=127 time=0
EXTRACT: note_on channel=9 note=54 velocity=127 time=0
EXTRACT: note_on channel=9 note=35 velocity=127 time=0
EXTRACT: note_off channel=9 note=44 velocity=127 time=0.1339285
EXTRACT: note_off channel=9 note=49 velocity=127 time=0
EXTRACT: note_off channel=9 note=54 velocity=127 time=0
EXTRACT: note_off channel=9 note=35 velocity=127 time=0
EXTRACT: note_on channel=9 note=54 velocity=127 time=0
EXTRACT: note_off channel=0 note=47 velocity=95 time=0.1339285
EXTRACT: note_off channel=8 note=35 velocity=127 time=0
EXTRACT: note_off channel=4 note=47 velocity=95 time=0
EXTRACT: note_off channel=9 note=54 velocity=127 time=0
EXTRACT: note_on channel=9 note=54 velocity=127 time=0
EXTRACT: note_off channel=9 note=54 velocity=127 time=0.1339285
EXTRACT: note_on channel=9 note=54 velocity=127 time=0
EXTRACT: note_off channel=9 note=54 velocity=127 time=0.1339285
EXTRACT: note_on channel=9 note=38 velocity=127 time=0
EXTRACT: note_on channel=9 note=39 velocity=95 time=0
EXTRACT: note_on channel=9 note=44 velocity=127 time=0
EXTRACT: note_on channel=9 note=54 velocity=127 time=0
EXTRACT: note_off channel=9 note=38 velocity=127 time=0.1339285
EXTRACT: note_off channel=9 note=39 velocity=95 time=0
EXTRACT: note_off channel=9 note=44 velocity=127 time=0
EXTRACT: note_off channel=9 note=54 velocity=127 time=0
EXTRACT: note_on channel=9 note=54 velocity=127 time=0
EXTRACT: note_on channel=0 note=47 velocity=95 time=0.1339285
EXTRACT: note_on channel=8 note=35 velocity=127 time=0
EXTRACT: note_on channel=4 note=47 velocity=95 time=0
EXTRACT: note_off channel=9 note=54 velocity=127 time=0
EXTRACT: note_on channel=9 note=54 velocity=127 time=0
EXTRACT: note_off channel=9 note=54 velocity=127 time=0.1339285
EXTRACT: note_on channel=9 note=54 velocity=127 time=0
EXTRACT: note_off channel=0 note=47 velocity=95 time=0.1339285
EXTRACT: note_on channel=0 note=50 velocity=95 time=0
EXTRACT: note_off channel=8 note=35 velocity=127 time=0
EXTRACT: note_on channel=8 note=38 velocity=127 time=0
EXTRACT: note_off channel=4 note=47 velocity=95 time=0
EXTRACT: note_on channel=4 note=50 velocity=95 time=0
EXTRACT: note_off channel=9 note=54 velocity=127 time=0
EXTRACT: note_on channel=9 note=44 velocity=127 time=0
EXTRACT: note_on channel=9 note=54 velocity=127 time=0
EXTRACT: note_on channel=9 note=35 velocity=127 time=0
EXTRACT: note_off channel=9 note=44 velocity=127 time=0.1339285
EXTRACT: note_off channel=9 note=54 velocity=127 time=0
EXTRACT: note_off channel=9 note=35 velocity=127 time=0
EXTRACT: note_on channel=9 note=54 velocity=127 time=0
EXTRACT: note_off channel=0 note=50 velocity=95 time=0.1339285
EXTRACT: note_off channel=8 note=38 velocity=127 time=0
EXTRACT: note_off channel=4 note=50 velocity=95 time=0
EXTRACT: note_off channel=9 note=54 velocity=127 time=0
EXTRACT: note_on channel=9 note=54 velocity=127 time=0
EXTRACT: note_off channel=9 note=54 velocity=127 time=0.1339285
EXTRACT: note_on channel=9 note=54 velocity=127 time=0
EXTRACT: note_off channel=9 note=54 velocity=127 time=0.1339285
EXTRACT: note_on channel=9 note=38 velocity=127 time=0
EXTRACT: note_on channel=9 note=39 velocity=95 time=0
EXTRACT: note_on channel=9 note=44 velocity=127 time=0
EXTRACT: note_on channel=9 note=54 velocity=127 time=0
EXTRACT: note_off channel=9 note=38 velocity=127 time=0.1339285
EXTRACT: note_off channel=9 note=39 velocity=95 time=0
EXTRACT: note_off channel=9 note=44 velocity=127 time=0
EXTRACT: note_off channel=9 note=54 velocity=127 time=0
EXTRACT: note_on channel=9 note=54 velocity=127 time=0
EXTRACT: note_on channel=0 note=50 velocity=95 time=0.1339285
EXTRACT: note_on channel=8 note=38 velocity=127 time=0
EXTRACT: note_on channel=4 note=50 velocity=95 time=0
EXTRACT: note_off channel=9 note=54 velocity=127 time=0
EXTRACT: note_on channel=9 note=54 velocity=127 time=0
EXTRACT: note_off channel=9 note=54 velocity=127 time=0.1339285
EXTRACT: note_on channel=9 note=44 velocity=127 time=0
EXTRACT: note_on channel=9 note=54 velocity=127 time=0
EXTRACT: note_off channel=0 note=50 velocity=95 time=0.1339285
EXTRACT: note_on channel=0 note=52 velocity=95 time=0
EXTRACT: note_off channel=8 note=38 velocity=127 time=0
EXTRACT: note_on channel=8 note=40 velocity=127 time=0
EXTRACT: note_off channel=4 note=50 velocity=95 time=0
EXTRACT: note_on channel=4 note=52 velocity=95 time=0
EXTRACT: note_off channel=9 note=44 velocity=127 time=0
EXTRACT: note_off channel=9 note=54 velocity=127 time=0
EXTRACT: note_on channel=9 note=44 velocity=127 time=0
EXTRACT: note_on channel=9 note=54 velocity=127 time=0
EXTRACT: note_on channel=9 note=35 velocity=127 time=0
EXTRACT: note_off channel=9 note=44 velocity=127 time=0.1339285
EXTRACT: note_off channel=9 note=54 velocity=127 time=0
EXTRACT: note_off channel=9 note=35 velocity=127 time=0
EXTRACT: note_on channel=9 note=54 velocity=127 time=0
EXTRACT: note_off channel=0 note=52 velocity=95 time=0.1339285
EXTRACT: note_off channel=8 note=40 velocity=127 time=0
EXTRACT: note_off channel=4 note=52 velocity=95 time=0
EXTRACT: note_off channel=9 note=54 velocity=127 time=0
EXTRACT: note_on channel=9 note=54 velocity=127 time=0
EXTRACT: note_off channel=9 note=54 velocity=127 time=0.1339285
EXTRACT: note_on channel=9 note=54 velocity=127 time=0
EXTRACT: note_off channel=9 note=54 velocity=127 time=0.1339285
EXTRACT: note_on channel=9 note=38 velocity=127 time=0
EXTRACT: note_on channel=9 note=39 velocity=95 time=0
EXTRACT: note_on channel=9 note=44 velocity=127 time=0
EXTRACT: note_on channel=9 note=54 velocity=127 time=0
EXTRACT: note_off channel=9 note=38 velocity=127 time=0.1339285
EXTRACT: note_off channel=9 note=39 velocity=95 time=0
EXTRACT: note_off channel=9 note=44 velocity=127 time=0
EXTRACT: note_off channel=9 note=54 velocity=127 time=0
EXTRACT: note_on channel=9 note=54 velocity=127 time=0
EXTRACT: note_on channel=0 note=52 velocity=95 time=0.1339285
EXTRACT: note_on channel=8 note=40 velocity=127 time=0
EXTRACT: note_on channel=4 note=52 velocity=95 time=0
EXTRACT: note_off channel=9 note=54 velocity=127 time=0
EXTRACT: note_on channel=9 note=54 velocity=127 time=0
EXTRACT: note_off channel=9 note=54 velocity=127 time=0.1339285
EXTRACT: note_on channel=9 note=54 velocity=127 time=0
EXTRACT: note_off channel=0 note=52 velocity=95 time=0.1339285
EXTRACT: note_on channel=0 note=45 velocity=95 time=0
EXTRACT: note_off channel=8 note=40 velocity=127 time=0
EXTRACT: note_on channel=8 note=33 velocity=127 time=0
EXTRACT: note_off channel=4 note=52 velocity=95 time=0
EXTRACT: note_on channel=4 note=45 velocity=95 time=0
EXTRACT: note_off channel=9 note=54 velocity=127 time=0
EXTRACT: note_on channel=9 note=44 velocity=127 time=0
EXTRACT: note_on channel=9 note=54 velocity=127 time=0
EXTRACT: note_on channel=9 note=35 velocity=127 time=0
EXTRACT: note_off channel=9 note=44 velocity=127 time=0.1339285
EXTRACT: note_off channel=9 note=54 velocity=127 time=0
EXTRACT: note_off channel=9 note=35 velocity=127 time=0
EXTRACT: note_on channel=9 note=54 velocity=127 time=0
EXTRACT: note_off channel=0 note=45 velocity=95 time=0.1339285
EXTRACT: note_off channel=8 note=33 velocity=127 time=0
EXTRACT: note_off channel=4 note=45 velocity=95 time=0
EXTRACT: note_off channel=9 note=54 velocity=127 time=0
EXTRACT: note_on channel=9 note=54 velocity=127 time=0
EXTRACT: note_on channel=9 note=44 velocity=127 time=0
EXTRACT: note_on channel=0 note=45 velocity=95 time=0.1339285
EXTRACT: note_on channel=8 note=33 velocity=127 time=0
EXTRACT: note_on channel=4 note=45 velocity=95 time=0
EXTRACT: note_off channel=9 note=54 velocity=127 time=0
EXTRACT: note_off channel=9 note=44 velocity=127 time=0
EXTRACT: note_on channel=9 note=54 velocity=127 time=0
EXTRACT: note_off channel=9 note=54 velocity=127 time=0.1339285
EXTRACT: note_on channel=9 note=38 velocity=127 time=0
EXTRACT: note_on channel=9 note=39 velocity=95 time=0
EXTRACT: note_on channel=9 note=54 velocity=127 time=0
EXTRACT: note_off channel=0 note=45 velocity=95 time=0.1339285
EXTRACT: note_off channel=8 note=33 velocity=127 time=0
EXTRACT: note_off channel=4 note=45 velocity=95 time=0
EXTRACT: note_off channel=9 note=38 velocity=127 time=0
EXTRACT: note_off channel=9 note=39 velocity=95 time=0
EXTRACT: note_off channel=9 note=54 velocity=127 time=0
EXTRACT: note_on channel=9 note=54 velocity=127 time=0
EXTRACT: note_on channel=0 note=46 velocity=95 time=0.1339285
EXTRACT: note_on channel=8 note=34 velocity=127 time=0
EXTRACT: note_on channel=4 note=46 velocity=95 time=0
EXTRACT: note_off channel=9 note=54 velocity=127 time=0
EXTRACT: note_on channel=9 note=54 velocity=127 time=0
EXTRACT: note_off channel=9 note=54 velocity=127 time=0.1339285
EXTRACT: note_on channel=9 note=44 velocity=127 time=0
EXTRACT: note_on channel=9 note=54 velocity=127 time=0
EXTRACT: note_off channel=0 note=46 velocity=95 time=0.1339285
EXTRACT: note_on channel=0 note=47 velocity=95 time=0
EXTRACT: note_off channel=8 note=34 velocity=127 time=0
EXTRACT: note_on channel=8 note=35 velocity=127 time=0
EXTRACT: note_off channel=4 note=46 velocity=95 time=0
EXTRACT: note_on channel=4 note=47 velocity=95 time=0
EXTRACT: note_off channel=9 note=44 velocity=127 time=0
EXTRACT: note_off channel=9 note=54 velocity=127 time=0
EXTRACT: note_on channel=9 note=44 velocity=127 time=0
EXTRACT: note_on channel=9 note=49 velocity=127 time=0
EXTRACT: note_on channel=9 note=54 velocity=127 time=0
EXTRACT: note_on channel=9 note=35 velocity=127 time=0
EXTRACT: note_off channel=9 note=44 velocity=127 time=0.1339285
EXTRACT: note_off channel=9 note=49 velocity=127 time=0
EXTRACT: note_off channel=9 note=54 velocity=127 time=0
EXTRACT: note_off channel=9 note=35 velocity=127 time=0
EXTRACT: note_on channel=9 note=54 velocity=127 time=0
EXTRACT: note_off channel=0 note=47 velocity=95 time=0.1339285
EXTRACT: note_off channel=8 note=35 velocity=127 time=0
EXTRACT: note_off channel=4 note=47 velocity=95 time=0
EXTRACT: note_off channel=9 note=54 velocity=127 time=0
EXTRACT: note_on channel=9 note=54 velocity=127 time=0
EXTRACT: note_off channel=9 note=54 velocity=127 time=0.1339285
EXTRACT: note_on channel=9 note=54 velocity=127 time=0
EXTRACT: note_off channel=9 note=54 velocity=127 time=0.1339285
EXTRACT: note_on channel=9 note=38 velocity=127 time=0
EXTRACT: note_on channel=9 note=39 velocity=95 time=0
EXTRACT: note_on channel=9 note=44 velocity=127 time=0
EXTRACT: note_on channel=9 note=54 velocity=127 time=0
EXTRACT: note_off channel=9 note=38 velocity=127 time=0.1339285
EXTRACT: note_off channel=9 note=39 velocity=95 time=0
EXTRACT: note_off channel=9 note=44 velocity=127 time=0
EXTRACT: note_off channel=9 note=54 velocity=127 time=0
EXTRACT: note_on channel=9 note=54 velocity=127 time=0
EXTRACT: note_on channel=0 note=47 velocity=95 time=0.1339285
EXTRACT: note_on channel=8 note=35 velocity=127 time=0
EXTRACT: note_on channel=4 note=47 velocity=95 time=0
EXTRACT: note_off channel=9 note=54 velocity=127 time=0
EXTRACT: note_on channel=9 note=54 velocity=127 time=0
EXTRACT: note_off channel=9 note=54 velocity=127 time=0.1339285
EXTRACT: note_on channel=9 note=54 velocity=127 time=0
EXTRACT: note_off channel=0 note=47 velocity=95 time=0.1339285
EXTRACT: note_on channel=0 note=50 velocity=95 time=0
EXTRACT: note_off channel=8 note=35 velocity=127 time=0
EXTRACT: note_on channel=8 note=38 velocity=127 time=0
EXTRACT: note_off channel=4 note=47 velocity=95 time=0
EXTRACT: note_on channel=4 note=50 velocity=95 time=0
EXTRACT: note_off channel=9 note=54 velocity=127 time=0
EXTRACT: note_on channel=9 note=44 velocity=127 time=0
EXTRACT: note_on channel=9 note=54 velocity=127 time=0
EXTRACT: note_on channel=9 note=35 velocity=127 time=0
EXTRACT: note_off channel=9 note=44 velocity=127 time=0.1339285
EXTRACT: note_off channel=9 note=54 velocity=127 time=0
EXTRACT: note_off channel=9 note=35 velocity=127 time=0
EXTRACT: note_on channel=9 note=54 velocity=127 time=0
EXTRACT: note_off channel=0 note=50 velocity=95 time=0.1339285
EXTRACT: note_off channel=8 note=38 velocity=127 time=0
EXTRACT: note_off channel=4 note=50 velocity=95 time=0
EXTRACT: note_off channel=9 note=54 velocity=127 time=0
EXTRACT: note_on channel=9 note=54 velocity=127 time=0
EXTRACT: note_off channel=9 note=54 velocity=127 time=0.1339285
EXTRACT: note_on channel=9 note=54 velocity=127 time=0
EXTRACT: note_off channel=9 note=54 velocity=127 time=0.1339285
EXTRACT: note_on channel=9 note=38 velocity=127 time=0
EXTRACT: note_on channel=9 note=39 velocity=95 time=0
EXTRACT: note_on channel=9 note=44 velocity=127 time=0
EXTRACT: note_on channel=9 note=54 velocity=127 time=0
EXTRACT: note_off channel=9 note=38 velocity=127 time=0.1339285
EXTRACT: note_off channel=9 note=39 velocity=95 time=0
EXTRACT: note_off channel=9 note=44 velocity=127 time=0
EXTRACT: note_off channel=9 note=54 velocity=127 time=0
EXTRACT: note_on channel=9 note=54 velocity=127 time=0
EXTRACT: note_on channel=0 note=50 velocity=95 time=0.1339285
EXTRACT: note_on channel=8 note=38 velocity=127 time=0
EXTRACT: note_on channel=4 note=50 velocity=95 time=0
EXTRACT: note_off channel=9 note=54 velocity=127 time=0
EXTRACT: note_on channel=9 note=54 velocity=127 time=0
EXTRACT: note_off channel=9 note=54 velocity=127 time=0.1339285
EXTRACT: note_on channel=9 note=44 velocity=127 time=0
EXTRACT: note_on channel=9 note=54 velocity=127 time=0
EXTRACT: note_off channel=0 note=50 velocity=95 time=0.1339285
EXTRACT: note_on channel=0 note=52 velocity=95 time=0
EXTRACT: note_off channel=8 note=38 velocity=127 time=0
EXTRACT: note_on channel=8 note=40 velocity=127 time=0
EXTRACT: note_off channel=4 note=50 velocity=95 time=0
EXTRACT: note_on channel=4 note=52 velocity=95 time=0
EXTRACT: note_off channel=9 note=44 velocity=127 time=0
EXTRACT: note_off channel=9 note=54 velocity=127 time=0
EXTRACT: note_on channel=9 note=44 velocity=127 time=0
EXTRACT: note_on channel=9 note=35 velocity=127 time=0
EXTRACT: note_off channel=0 note=52 velocity=95 time=0.267857
EXTRACT: note_off channel=8 note=40 velocity=127 time=0
EXTRACT: note_off channel=4 note=52 velocity=95 time=0
EXTRACT: note_off channel=9 note=44 velocity=127 time=0
EXTRACT: note_off channel=9 note=35 velocity=127 time=0
EXTRACT: note_on channel=0 note=52 velocity=95 time=0.535714
EXTRACT: note_on channel=8 note=40 velocity=127 time=0
EXTRACT: note_on channel=4 note=52 velocity=95 time=0
EXTRACT: note_off channel=0 note=52 velocity=95 time=0.267857
EXTRACT: note_on channel=0 note=45 velocity=95 time=0
EXTRACT: note_off channel=8 note=40 velocity=127 time=0
EXTRACT: note_on channel=8 note=33 velocity=127 time=0
EXTRACT: note_off channel=4 note=52 velocity=95 time=0
EXTRACT: note_on channel=4 note=45 velocity=95 time=0
EXTRACT: note_off channel=0 note=45 velocity=95 time=0.267857
EXTRACT: note_off channel=8 note=33 velocity=127 time=0
EXTRACT: note_off channel=4 note=45 velocity=95 time=0
EXTRACT: note_on channel=0 note=45 velocity=95 time=0.1339285
EXTRACT: note_on channel=8 note=33 velocity=127 time=0
EXTRACT: note_on channel=4 note=45 velocity=95 time=0
EXTRACT: note_on channel=9 note=38 velocity=127 time=0.1339285
EXTRACT: note_on channel=9 note=39 velocity=95 time=0
EXTRACT: note_off channel=0 note=45 velocity=95 time=0.1339285
EXTRACT: note_off channel=8 note=33 velocity=127 time=0
EXTRACT: note_off channel=4 note=45 velocity=95 time=0
EXTRACT: note_on channel=0 note=46 velocity=95 time=0.1339285
EXTRACT: note_on channel=8 note=34 velocity=127 time=0
EXTRACT: note_on channel=4 note=46 velocity=95 time=0
EXTRACT: note_off channel=9 note=38 velocity=127 time=0
EXTRACT: note_off channel=9 note=39 velocity=95 time=0
EXTRACT: note_on channel=9 note=44 velocity=127 time=0.1339285
EXTRACT: note_off channel=0 note=46 velocity=95 time=0.1339285
EXTRACT: note_on channel=0 note=54 velocity=95 time=0
EXTRACT: note_on channel=0 note=49 velocity=95 time=0
EXTRACT: note_on channel=0 note=42 velocity=95 time=0
EXTRACT: note_off channel=8 note=34 velocity=127 time=0
EXTRACT: note_on channel=8 note=30 velocity=127 time=0
EXTRACT: note_off channel=4 note=46 velocity=95 time=0
EXTRACT: note_on channel=4 note=70 velocity=95 time=0
EXTRACT: note_on channel=4 note=66 velocity=95 time=0
EXTRACT: note_on channel=4 note=61 velocity=95 time=0
EXTRACT: note_on channel=4 note=58 velocity=95 time=0
EXTRACT: note_on channel=5 note=70 velocity=95 time=0
EXTRACT: note_on channel=5 note=66 velocity=95 time=0
EXTRACT: note_on channel=5 note=61 velocity=95 time=0
EXTRACT: note_on channel=5 note=58 velocity=95 time=0
EXTRACT: note_off channel=9 note=44 velocity=127 time=0
EXTRACT: note_on channel=9 note=44 velocity=127 time=0
EXTRACT: note_on channel=9 note=35 velocity=127 time=0
EXTRACT: note_off channel=8 note=30 velocity=127 time=0.267857
EXTRACT: note_on channel=3 note=75 velocity=127 time=0
EXTRACT: note_off channel=9 note=44 velocity=127 time=0
EXTRACT: note_off channel=9 note=35 velocity=127 time=0
EXTRACT: note_off channel=3 note=75 velocity=127 time=0.1339285
EXTRACT: note_on channel=3 note=75 velocity=127 time=0
EXTRACT: note_off channel=3 note=75 velocity=127 time=0.1339285
EXTRACT: note_on channel=3 note=78 velocity=127 time=0
EXTRACT: note_on channel=9 note=38 velocity=127 time=0
EXTRACT: note_on channel=9 note=39 velocity=95 time=0
EXTRACT: note_off channel=0 note=54 velocity=95 time=0.267857
EXTRACT: note_off channel=0 note=49 velocity=95 time=0
EXTRACT: note_off channel=0 note=42 velocity=95 time=0
EXTRACT: note_on channel=0 note=59 velocity=95 time=0
EXTRACT: note_on channel=0 note=54 velocity=95 time=0
EXTRACT: note_on channel=0 note=47 velocity=95 time=0
EXTRACT: note_on channel=8 note=30 velocity=127 time=0
EXTRACT: note_off channel=3 note=78 velocity=127 time=0
EXTRACT: note_on channel=3 note=78 velocity=127 time=0
EXTRACT: note_off channel=4 note=70 velocity=95 time=0
EXTRACT: note_off channel=4 note=66 velocity=95 time=0
EXTRACT: note_off channel=4 note=61 velocity=95 time=0
EXTRACT: note_off channel=4 note=58 velocity=95 time=0
EXTRACT: note_on channel=4 note=71 velocity=95 time=0
EXTRACT: note_on channel=4 note=66 velocity=95 time=0
EXTRACT: note_on channel=4 note=63 velocity=95 time=0
EXTRACT: note_on channel=4 note=59 velocity=95 time=0
EXTRACT: note_off channel=5 note=70 velocity=95 time=0
EXTRACT: note_off channel=5 note=66 velocity=95 time=0
EXTRACT: note_off channel=5 note=61 velocity=95 time=0
EXTRACT: note_off channel=5 note=58 velocity=95 time=0
EXTRACT: note_on channel=5 note=71 velocity=95 time=0
EXTRACT: note_on channel=5 note=66 velocity=95 time=0
EXTRACT: note_on channel=5 note=63 velocity=95 time=0
EXTRACT: note_on channel=5 note=59 velocity=95 time=0
EXTRACT: note_off channel=9 note=38 velocity=127 time=0
EXTRACT: note_off channel=9 note=39 velocity=95 time=0
EXTRACT: note_off channel=8 note=30 velocity=127 time=0.267857
EXTRACT: note_on channel=8 note=32 velocity=127 time=0
EXTRACT: note_off channel=3 note=78 velocity=127 time=0
EXTRACT: note_on channel=3 note=80 velocity=127 time=0
EXTRACT: note_on channel=9 note=35 velocity=127 time=0
EXTRACT: note_off channel=8 note=32 velocity=127 time=0.267857
EXTRACT: note_off channel=3 note=80 velocity=127 time=0
EXTRACT: note_on channel=3 note=80 velocity=127 time=0
EXTRACT: note_off channel=9 note=35 velocity=127 time=0
EXTRACT: note_on channel=2 note=78 velocity=127 time=0.267857
EXTRACT: note_on channel=2 note=75 velocity=127 time=0
EXTRACT: note_on channel=2 note=70 velocity=95 time=0
EXTRACT: note_off channel=3 note=80 velocity=127 time=0
EXTRACT: note_on channel=9 note=38 velocity=127 time=0
EXTRACT: note_on channel=9 note=39 velocity=95 time=0
EXTRACT: note_off channel=2 note=78 velocity=127 time=0.267857
EXTRACT: note_off channel=2 note=75 velocity=127 time=0
EXTRACT: note_off channel=2 note=70 velocity=95 time=0
EXTRACT: note_on channel=8 note=32 velocity=127 time=0
EXTRACT: note_off channel=9 note=38 velocity=127 time=0
EXTRACT: note_off channel=9 note=39 velocity=95 time=0
EXTRACT: note_on channel=9 note=44 velocity=127 time=0
EXTRACT: note_off channel=9 note=44 velocity=127 time=0.1339285
EXTRACT: note_on channel=9 note=44 velocity=127 time=0
EXTRACT: note_off channel=0 note=59 velocity=95 time=0.1339285
EXTRACT: note_off channel=0 note=54 velocity=95 time=0
EXTRACT: note_off channel=0 note=47 velocity=95 time=0
EXTRACT: note_on channel=0 note=52 velocity=95 time=0
EXTRACT: note_on channel=0 note=47 velocity=95 time=0
EXTRACT: note_on channel=0 note=40 velocity=95 time=0
EXTRACT: note_off channel=8 note=32 velocity=127 time=0
EXTRACT: note_on channel=8 note=27 velocity=127 time=0
EXTRACT: note_off channel=4 note=71 velocity=95 time=0
EXTRACT: note_off channel=4 note=66 velocity=95 time=0
EXTRACT: note_off channel=4 note=63 velocity=95 time=0
EXTRACT: note_off channel=4 note=59 velocity=95 time=0
EXTRACT: note_on channel=4 note=68 velocity=95 time=0
EXTRACT: note_on channel=4 note=64 velocity=95 time=0
EXTRACT: note_on channel=4 note=59 velocity=95 time=0
EXTRACT: note_on channel=4 note=56 velocity=95 time=0
EXTRACT: note_off channel=5 note=71 velocity=95 time=0
EXTRACT: note_off channel=5 note=66 velocity=95 time=0
EXTRACT: note_off channel=5 note=63 velocity=95 time=0
EXTRACT: note_off channel=5 note=59 velocity=95 time=0
EXTRACT: note_on channel=5 note=68 velocity=95 time=0
EXTRACT: note_on channel=5 note=64 velocity=95 time=0
EXTRACT: note_on channel=5 note=59 velocity=95 time=0
EXTRACT: note_on channel=5 note=56 velocity=95 time=0
EXTRACT: note_off channel=9 note=44 velocity=127 time=0
EXTRACT: note_on channel=9 note=44 velocity=127 time=0
EXTRACT: note_on channel=9 note=35 velocity=127 time=0
EXTRACT: note_off channel=8 note=27 velocity=127 time=0.267857
EXTRACT: note_on channel=3 note=75 velocity=127 time=0
EXTRACT: note_off channel=9 note=44 velocity=127 time=0
EXTRACT: note_off channel=9 note=35 velocity=127 time=0
EXTRACT: note_on channel=9 note=44 velocity=127 time=0
EXTRACT: note_off channel=9 note=44 velocity=127 time=0.1339285
EXTRACT: note_off channel=3 note=75 velocity=127 time=0.1339285
EXTRACT: note_on channel=3 note=78 velocity=127 time=0
EXTRACT: note_on channel=9 note=38 velocity=127 time=0
EXTRACT: note_on channel=9 note=39 velocity=95 time=0
EXTRACT: note_off channel=0 note=52 velocity=95 time=0.267857
EXTRACT: note_off channel=0 note=47 velocity=95 time=0
EXTRACT: note_off channel=0 note=40 velocity=95 time=0
EXTRACT: note_on channel=0 note=59 velocity=95 time=0
EXTRACT: note_on channel=0 note=54 velocity=95 time=0
EXTRACT: note_on channel=0 note=47 velocity=95 time=0
EXTRACT: note_on channel=8 note=27 velocity=127 time=0
EXTRACT: note_off channel=3 note=78 velocity=127 time=0
EXTRACT: note_on channel=3 note=80 velocity=127 time=0
EXTRACT: note_off channel=4 note=68 velocity=95 time=0
EXTRACT: note_off channel=4 note=64 velocity=95 time=0
EXTRACT: note_off channel=4 note=59 velocity=95 time=0
EXTRACT: note_off channel=4 note=56 velocity=95 time=0
EXTRACT: note_on channel=4 note=71 velocity=95 time=0
EXTRACT: note_on channel=4 note=66 velocity=95 time=0
EXTRACT: note_on channel=4 note=63 velocity=95 time=0
EXTRACT: note_on channel=4 note=59 velocity=95 time=0
EXTRACT: note_off channel=5 note=68 velocity=95 time=0
EXTRACT: note_off channel=5 note=64 velocity=95 time=0
EXTRACT: note_off channel=5 note=59 velocity=95 time=0
EXTRACT: note_off channel=5 note=56 velocity=95 time=0
EXTRACT: note_on channel=5 note=71 velocity=95 time=0
EXTRACT: note_on channel=5 note=66 velocity=95 time=0
EXTRACT: note_on channel=5 note=63 velocity=95 time=0
EXTRACT: note_on channel=5 note=59 velocity=95 time=0
EXTRACT: note_off channel=9 note=38 velocity=127 time=0
EXTRACT: note_off channel=9 note=39 velocity=95 time=0
EXTRACT: note_on channel=9 note=44 velocity=127 time=0
EXTRACT: note_off channel=9 note=44 velocity=127 time=0.1339285
EXTRACT: note_off channel=8 note=27 velocity=127 time=0.1339285
EXTRACT: note_on channel=8 note=35 velocity=127 time=0
EXTRACT: note_off channel=3 note=80 velocity=127 time=0
EXTRACT: note_on channel=3 note=75 velocity=127 time=0
EXTRACT: note_on channel=9 note=44 velocity=127 time=0
EXTRACT: note_on channel=9 note=35 velocity=127 time=0
EXTRACT: note_off channel=8 note=35 velocity=127 time=0.1339285
EXTRACT: note_on channel=8 note=30 velocity=127 time=0
EXTRACT: note_off channel=9 note=44 velocity=127 time=0.1339285
EXTRACT: note_off channel=9 note=35 velocity=127 time=0
EXTRACT: note_on channel=9 note=44 velocity=127 time=0
EXTRACT: note_off channel=8 note=30 velocity=127 time=0.1339285
EXTRACT: note_on channel=8 note=35 velocity=127 time=0
EXTRACT: note_off channel=9 note=44 velocity=127 time=0
EXTRACT: note_on channel=2 note=78 velocity=127 time=0.1339285
EXTRACT: note_on channel=2 note=75 velocity=127 time=0
EXTRACT: note_on channel=2 note=70 velocity=95 time=0
EXTRACT: note_off channel=8 note=35 velocity=127 time=0
EXTRACT: note_on channel=8 note=30 velocity=127 time=0
EXTRACT: note_off channel=3 note=75 velocity=127 time=0
EXTRACT: note_on channel=9 note=38 velocity=127 time=0
EXTRACT: note_on channel=9 note=39 velocity=95 time=0
EXTRACT: note_off channel=2 note=78 velocity=127 time=0.267857
EXTRACT: note_off channel=2 note=75 velocity=127 time=0
EXTRACT: note_off channel=2 note=70 velocity=95 time=0
EXTRACT: note_off channel=8 note=30 velocity=127 time=0
EXTRACT: note_on channel=8 note=35 velocity=127 time=0
EXTRACT: note_off channel=9 note=38 velocity=127 time=0
EXTRACT: note_off channel=9 note=39 velocity=95 time=0
EXTRACT: note_on channel=9 note=44 velocity=127 time=0
EXTRACT: note_off channel=9 note=44 velocity=127 time=0.1339285
EXTRACT: note_on channel=9 note=44 velocity=127 time=0
EXTRACT: note_off channel=0 note=59 velocity=95 time=0.1339285
EXTRACT: note_off channel=0 note=54 velocity=95 time=0
EXTRACT: note_off channel=0 note=47 velocity=95 time=0
EXTRACT: note_on channel=0 note=54 velocity=95 time=0
EXTRACT: note_on channel=0 note=49 velocity=95 time=0
EXTRACT: note_on channel=0 note=42 velocity=95 time=0
EXTRACT: note_off channel=8 note=35 velocity=127 time=0
EXTRACT: note_on channel=8 note=30 velocity=127 time=0
EXTRACT: note_off channel=4 note=71 velocity=95 time=0
EXTRACT: note_off channel=4 note=66 velocity=95 time=0
EXTRACT: note_off channel=4 note=63 velocity=95 time=0
EXTRACT: note_off channel=4 note=59 velocity=95 time=0
EXTRACT: note_on channel=4 note=70 velocity=95 time=0
EXTRACT: note_on channel=4 note=66 velocity=95 time=0
EXTRACT: note_on channel=4 note=61 velocity=95 time=0
EXTRACT: note_on channel=4 note=58 velocity=95 time=0
EXTRACT: note_off channel=5 note=71 velocity=95 time=0
EXTRACT: note_off channel=5 note=66 velocity=95 time=0
EXTRACT: note_off channel=5 note=63 velocity=95 time=0
EXTRACT: note_off channel=5 note=59 velocity=95 time=0
EXTRACT: note_on channel=5 note=70 velocity=95 time=0
EXTRACT: note_on channel=5 note=66 velocity=95 time=0
EXTRACT: note_on channel=5 note=61 velocity=95 time=0
EXTRACT: note_on channel=5 note=58 velocity=95 time=0
EXTRACT: note_off channel=9 note=44 velocity=127 time=0
EXTRACT: note_on channel=9 note=44 velocity=127 time=0
EXTRACT: note_on channel=9 note=35 velocity=127 time=0
EXTRACT: note_off channel=8 note=30 velocity=127 time=0.267857
EXTRACT: note_on channel=3 note=78 velocity=127 time=0
EXTRACT: note_off channel=9 note=44 velocity=127 time=0
EXTRACT: note_off channel=9 note=35 velocity=127 time=0
EXTRACT: note_on channel=9 note=44 velocity=127 time=0
EXTRACT: note_off channel=3 note=78 velocity=127 time=0.1339285
EXTRACT: note_on channel=3 note=78 velocity=127 time=0
EXTRACT: note_off channel=9 note=44 velocity=127 time=0
EXTRACT: note_off channel=3 note=78 velocity=127 time=0.1339285
EXTRACT: note_on channel=3 note=78 velocity=127 time=0
EXTRACT: note_on channel=9 note=38 velocity=127 time=0
EXTRACT: note_on channel=9 note=39 velocity=95 time=0
EXTRACT: note_off channel=0 note=54 velocity=95 time=0.267857
EXTRACT: note_off channel=0 note=49 velocity=95 time=0
EXTRACT: note_off channel=0 note=42 velocity=95 time=0
EXTRACT: note_on channel=0 note=59 velocity=95 time=0
EXTRACT: note_on channel=0 note=54 velocity=95 time=0
EXTRACT: note_on channel=0 note=47 velocity=95 time=0
EXTRACT: note_on channel=8 note=30 velocity=127 time=0
EXTRACT: note_off channel=3 note=78 velocity=127 time=0
EXTRACT: note_on channel=3 note=78 velocity=127 time=0
EXTRACT: note_off channel=4 note=70 velocity=95 time=0
EXTRACT: note_off channel=4 note=66 velocity=95 time=0
EXTRACT: note_off channel=4 note=61 velocity=95 time=0
EXTRACT: note_off channel=4 note=58 velocity=95 time=0
EXTRACT: note_on channel=4 note=71 velocity=95 time=0
EXTRACT: note_on channel=4 note=66 velocity=95 time=0
EXTRACT: note_on channel=4 note=63 velocity=95 time=0
EXTRACT: note_on channel=4 note=59 velocity=95 time=0
EXTRACT: note_off channel=5 note=70 velocity=95 time=0
EXTRACT: note_off channel=5 note=66 velocity=95 time=0
EXTRACT: note_off channel=5 note=61 velocity=95 time=0
EXTRACT: note_off channel=5 note=58 velocity=95 time=0
EXTRACT: note_on channel=5 note=71 velocity=95 time=0
EXTRACT: note_on channel=5 note=66 velocity=95 time=0
EXTRACT: note_on channel=5 note=63 velocity=95 time=0
EXTRACT: note_on channel=5 note=59 velocity=95 time=0
EXTRACT: note_off channel=9 note=38 velocity=127 time=0
EXTRACT: note_off channel=9 note=39 velocity=95 time=0
EXTRACT: note_on channel=9 note=44 velocity=127 time=0
EXTRACT: note_off channel=9 note=44 velocity=127 time=0.1339285
EXTRACT: note_off channel=8 note=30 velocity=127 time=0.1339285
EXTRACT: note_on channel=8 note=32 velocity=127 time=0
EXTRACT: note_off channel=3 note=78 velocity=127 time=0
EXTRACT: note_on channel=3 note=80 velocity=127 time=0
EXTRACT: note_on channel=9 note=44 velocity=127 time=0
EXTRACT: note_on channel=9 note=35 velocity=127 time=0
EXTRACT: note_off channel=8 note=32 velocity=127 time=0.267857
EXTRACT: note_off channel=3 note=80 velocity=127 time=0
EXTRACT: note_on channel=3 note=78 velocity=127 time=0
EXTRACT: note_off channel=9 note=44 velocity=127 time=0
EXTRACT: note_off channel=9 note=35 velocity=127 time=0
EXTRACT: note_on channel=9 note=44 velocity=127 time=0
EXTRACT: note_off channel=9 note=44 velocity=127 time=0.1339285
EXTRACT: note_on channel=2 note=78 velocity=127 time=0.1339285
EXTRACT: note_on channel=2 note=75 velocity=127 time=0
EXTRACT: note_on channel=2 note=70 velocity=95 time=0
EXTRACT: note_off channel=3 note=78 velocity=127 time=0
EXTRACT: note_on channel=3 note=78 velocity=127 time=0
EXTRACT: note_on channel=9 note=38 velocity=127 time=0
EXTRACT: note_on channel=9 note=39 velocity=95 time=0
EXTRACT: note_off channel=2 note=78 velocity=127 time=0.267857
EXTRACT: note_off channel=2 note=75 velocity=127 time=0
EXTRACT: note_off channel=2 note=70 velocity=95 time=0
EXTRACT: note_on channel=8 note=32 velocity=127 time=0
EXTRACT: note_off channel=9 note=38 velocity=127 time=0
EXTRACT: note_off channel=9 note=39 velocity=95 time=0
EXTRACT: note_on channel=9 note=44 velocity=127 time=0
EXTRACT: note_off channel=9 note=44 velocity=127 time=0.1339285
EXTRACT: note_on channel=9 note=44 velocity=127 time=0
EXTRACT: note_off channel=0 note=59 velocity=95 time=0.1339285
EXTRACT: note_off channel=0 note=54 velocity=95 time=0
EXTRACT: note_off channel=0 note=47 velocity=95 time=0
EXTRACT: note_on channel=0 note=52 velocity=95 time=0
EXTRACT: note_on channel=0 note=47 velocity=95 time=0
EXTRACT: note_on channel=0 note=40 velocity=95 time=0
EXTRACT: note_off channel=8 note=32 velocity=127 time=0
EXTRACT: note_on channel=8 note=27 velocity=127 time=0
EXTRACT: note_off channel=3 note=78 velocity=127 time=0
EXTRACT: note_off channel=4 note=71 velocity=95 time=0
EXTRACT: note_off channel=4 note=66 velocity=95 time=0
EXTRACT: note_off channel=4 note=63 velocity=95 time=0
EXTRACT: note_off channel=4 note=59 velocity=95 time=0
EXTRACT: note_on channel=4 note=68 velocity=95 time=0
EXTRACT: note_on channel=4 note=64 velocity=95 time=0
EXTRACT: note_on channel=4 note=59 velocity=95 time=0
EXTRACT: note_on channel=4 note=56 velocity=95 time=0
EXTRACT: note_off channel=5 note=71 velocity=95 time=0
EXTRACT: note_off channel=5 note=66 velocity=95 time=0
EXTRACT: note_off channel=5 note=63 velocity=95 time=0
EXTRACT: note_off channel=5 note=59 velocity=95 time=0
EXTRACT: note_on channel=5 note=68 velocity=95 time=0
EXTRACT: note_on channel=5 note=64 velocity=95 time=0
EXTRACT: note_on channel=5 note=59 velocity=95 time=0
EXTRACT: note_on channel=5 note=56 velocity=95 time=0
EXTRACT: note_off channel=9 note=44 velocity=127 time=0
EXTRACT: note_on channel=9 note=44 velocity=127 time=0
EXTRACT: note_on channel=9 note=35 velocity=127 time=0
EXTRACT: note_off channel=8 note=27 velocity=127 time=0.267857
EXTRACT: note_on channel=3 note=78 velocity=127 time=0
EXTRACT: note_off channel=9 note=44 velocity=127 time=0
EXTRACT: note_off channel=9 note=35 velocity=127 time=0
EXTRACT: note_on channel=9 note=44 velocity=127 time=0
EXTRACT: note_off channel=3 note=78 velocity=127 time=0.1339285
EXTRACT: note_on channel=3 note=78 velocity=127 time=0
EXTRACT: note_off channel=9 note=44 velocity=127 time=0
EXTRACT: note_off channel=3 note=78 velocity=127 time=0.1339285
EXTRACT: note_on channel=3 note=78 velocity=127 time=0
EXTRACT: note_on channel=9 note=38 velocity=127 time=0
EXTRACT: note_on channel=9 note=39 velocity=95 time=0
EXTRACT: note_off channel=0 note=52 velocity=95 time=0.267857
EXTRACT: note_off channel=0 note=47 velocity=95 time=0
EXTRACT: note_off channel=0 note=40 velocity=95 time=0
EXTRACT: note_on channel=0 note=59 velocity=95 time=0
EXTRACT: note_on channel=0 note=54 velocity=95 time=0
EXTRACT: note_on channel=0 note=47 velocity=95 time=0
EXTRACT: note_on channel=8 note=27 velocity=127 time=0
EXTRACT: note_off channel=3 note=78 velocity=127 time=0
EXTRACT: note_on channel=3 note=78 velocity=127 time=0
EXTRACT: note_off channel=4 note=68 velocity=95 time=0
EXTRACT: note_off channel=4 note=64 velocity=95 time=0
EXTRACT: note_off channel=4 note=59 velocity=95 time=0
EXTRACT: note_off channel=4 note=56 velocity=95 time=0
EXTRACT: note_on channel=4 note=71 velocity=95 time=0
EXTRACT: note_on channel=4 note=66 velocity=95 time=0
EXTRACT: note_on channel=4 note=63 velocity=95 time=0
EXTRACT: note_on channel=4 note=59 velocity=95 time=0
EXTRACT: note_off channel=5 note=68 velocity=95 time=0
EXTRACT: note_off channel=5 note=64 velocity=95 time=0
EXTRACT: note_off channel=5 note=59 velocity=95 time=0
EXTRACT: note_off channel=5 note=56 velocity=95 time=0
EXTRACT: note_on channel=5 note=71 velocity=95 time=0
EXTRACT: note_on channel=5 note=66 velocity=95 time=0
EXTRACT: note_on channel=5 note=63 velocity=95 time=0
EXTRACT: note_on channel=5 note=59 velocity=95 time=0
EXTRACT: note_off channel=9 note=38 velocity=127 time=0
EXTRACT: note_off channel=9 note=39 velocity=95 time=0
EXTRACT: note_on channel=9 note=44 velocity=127 time=0
EXTRACT: note_off channel=9 note=44 velocity=127 time=0.1339285
EXTRACT: note_off channel=8 note=27 velocity=127 time=0.1339285
EXTRACT: note_on channel=8 note=35 velocity=127 time=0
EXTRACT: note_off channel=3 note=78 velocity=127 time=0
EXTRACT: note_on channel=3 note=75 velocity=127 time=0
EXTRACT: note_on channel=9 note=44 velocity=127 time=0
EXTRACT: note_on channel=9 note=35 velocity=127 time=0
EXTRACT: note_off channel=8 note=35 velocity=127 time=0.1339285
EXTRACT: note_on channel=8 note=30 velocity=127 time=0
EXTRACT: note_off channel=3 note=75 velocity=127 time=0.1339285
EXTRACT: note_on channel=3 note=73 velocity=127 time=0
EXTRACT: note_off channel=9 note=44 velocity=127 time=0
EXTRACT: note_off channel=9 note=35 velocity=127 time=0
EXTRACT: note_on channel=9 note=44 velocity=127 time=0
EXTRACT: note_off channel=8 note=30 velocity=127 time=0.1339285
EXTRACT: note_on channel=8 note=35 velocity=127 time=0
EXTRACT: note_off channel=9 note=44 velocity=127 time=0
EXTRACT: note_on channel=2 note=78 velocity=127 time=0.1339285
EXTRACT: note_on channel=2 note=75 velocity=127 time=0
EXTRACT: note_on channel=2 note=70 velocity=95 time=0
EXTRACT: note_off channel=8 note=35 velocity=127 time=0
EXTRACT: note_on channel=8 note=30 velocity=127 time=0
EXTRACT: note_off channel=3 note=73 velocity=127 time=0
EXTRACT: note_on channel=9 note=38 velocity=127 time=0
EXTRACT: note_on channel=9 note=39 velocity=95 time=0
EXTRACT: note_off channel=2 note=78 velocity=127 time=0.267857
EXTRACT: note_off channel=2 note=75 velocity=127 time=0
EXTRACT: note_off channel=2 note=70 velocity=95 time=0
EXTRACT: note_off channel=8 note=30 velocity=127 time=0
EXTRACT: note_on channel=8 note=35 velocity=127 time=0
EXTRACT: note_off channel=9 note=38 velocity=127 time=0
EXTRACT: note_off channel=9 note=39 velocity=95 time=0
EXTRACT: note_on channel=9 note=44 velocity=127 time=0
EXTRACT: note_off channel=9 note=44 velocity=127 time=0.1339285
EXTRACT: note_on channel=9 note=44 velocity=127 time=0
EXTRACT: note_off channel=0 note=59 velocity=95 time=0.1339285
EXTRACT: note_off channel=0 note=54 velocity=95 time=0
EXTRACT: note_off channel=0 note=47 velocity=95 time=0
EXTRACT: note_on channel=0 note=54 velocity=95 time=0
EXTRACT: note_on channel=0 note=49 velocity=95 time=0
EXTRACT: note_on channel=0 note=42 velocity=95 time=0
EXTRACT: note_off channel=8 note=35 velocity=127 time=0
EXTRACT: note_on channel=8 note=30 velocity=127 time=0
EXTRACT: note_off channel=4 note=71 velocity=95 time=0
EXTRACT: note_off channel=4 note=66 velocity=95 time=0
EXTRACT: note_off channel=4 note=63 velocity=95 time=0
EXTRACT: note_off channel=4 note=59 velocity=95 time=0
EXTRACT: note_on channel=4 note=70 velocity=95 time=0
EXTRACT: note_on channel=4 note=66 velocity=95 time=0
EXTRACT: note_on channel=4 note=61 velocity=95 time=0
EXTRACT: note_on channel=4 note=58 velocity=95 time=0
EXTRACT: note_off channel=5 note=71 velocity=95 time=0
EXTRACT: note_off channel=5 note=66 velocity=95 time=0
EXTRACT: note_off channel=5 note=63 velocity=95 time=0
EXTRACT: note_off channel=5 note=59 velocity=95 time=0
EXTRACT: note_on channel=5 note=70 velocity=95 time=0
EXTRACT: note_on channel=5 note=66 velocity=95 time=0
EXTRACT: note_on channel=5 note=61 velocity=95 time=0
EXTRACT: note_on channel=5 note=58 velocity=95 time=0
EXTRACT: note_off channel=9 note=44 velocity=127 time=0
EXTRACT: note_on channel=9 note=44 velocity=127 time=0
EXTRACT: note_on channel=9 note=35 velocity=127 time=0
EXTRACT: note_off channel=8 note=30 velocity=127 time=0.267857
EXTRACT: note_on channel=3 note=75 velocity=127 time=0
EXTRACT: note_off channel=9 note=44 velocity=127 time=0
EXTRACT: note_off channel=9 note=35 velocity=127 time=0
EXTRACT: note_on channel=9 note=44 velocity=127 time=0
EXTRACT: note_off channel=9 note=44 velocity=127 time=0.1339285
EXTRACT: note_off channel=3 note=75 velocity=127 time=0.1339285
EXTRACT: note_on channel=3 note=78 velocity=127 time=0
EXTRACT: note_on channel=9 note=38 velocity=127 time=0
EXTRACT: note_on channel=9 note=39 velocity=95 time=0
EXTRACT: note_off channel=0 note=54 velocity=95 time=0.267857
EXTRACT: note_off channel=0 note=49 velocity=95 time=0
EXTRACT: note_off channel=0 note=42 velocity=95 time=0
EXTRACT: note_on channel=0 note=59 velocity=95 time=0
EXTRACT: note_on channel=0 note=54 velocity=95 time=0
EXTRACT: note_on channel=0 note=47 velocity=95 time=0
EXTRACT: note_on channel=8 note=30 velocity=127 time=0
EXTRACT: note_off channel=3 note=78 velocity=127 time=0
EXTRACT: note_on channel=3 note=78 velocity=127 time=0
EXTRACT: note_off channel=4 note=70 velocity=95 time=0
EXTRACT: note_off channel=4 note=66 velocity=95 time=0
EXTRACT: note_off channel=4 note=61 velocity=95 time=0
EXTRACT: note_off channel=4 note=58 velocity=95 time=0
EXTRACT: note_on channel=4 note=71 velocity=95 time=0
EXTRACT: note_on channel=4 note=66 velocity=95 time=0
EXTRACT: note_on channel=4 note=63 velocity=95 time=0
EXTRACT: note_on channel=4 note=59 velocity=95 time=0
EXTRACT: note_off channel=5 note=70 velocity=95 time=0
EXTRACT: note_off channel=5 note=66 velocity=95 time=0
EXTRACT: note_off channel=5 note=61 velocity=95 time=0
EXTRACT: note_off channel=5 note=58 velocity=95 time=0
EXTRACT: note_on channel=5 note=71 velocity=95 time=0
EXTRACT: note_on channel=5 note=66 velocity=95 time=0
EXTRACT: note_on channel=5 note=63 velocity=95 time=0
EXTRACT: note_on channel=5 note=59 velocity=95 time=0
EXTRACT: note_off channel=9 note=38 velocity=127 time=0
EXTRACT: note_off channel=9 note=39 velocity=95 time=0
EXTRACT: note_on channel=9 note=44 velocity=127 time=0
EXTRACT: note_off channel=9 note=44 velocity=127 time=0.1339285
EXTRACT: note_off channel=8 note=30 velocity=127 time=0.1339285
EXTRACT: note_on channel=8 note=32 velocity=127 time=0
EXTRACT: note_off channel=3 note=78 velocity=127 time=0
EXTRACT: note_on channel=3 note=80 velocity=127 time=0
EXTRACT: note_on channel=9 note=44 velocity=127 time=0
EXTRACT: note_on channel=9 note=35 velocity=127 time=0
EXTRACT: note_off channel=8 note=32 velocity=127 time=0.267857
EXTRACT: note_off channel=3 note=80 velocity=127 time=0
EXTRACT: note_on channel=3 note=83 velocity=127 time=0
EXTRACT: note_off channel=9 note=44 velocity=127 time=0
EXTRACT: note_off channel=9 note=35 velocity=127 time=0
EXTRACT: note_on channel=9 note=44 velocity=127 time=0
EXTRACT: note_off channel=9 note=44 velocity=127 time=0.1339285
EXTRACT: note_on channel=2 note=78 velocity=127 time=0.1339285
EXTRACT: note_on channel=2 note=75 velocity=127 time=0
EXTRACT: note_on channel=2 note=70 velocity=95 time=0
EXTRACT: note_on channel=9 note=38 velocity=127 time=0
EXTRACT: note_on channel=9 note=39 velocity=95 time=0
EXTRACT: note_off channel=2 note=78 velocity=127 time=0.267857
EXTRACT: note_off channel=2 note=75 velocity=127 time=0
EXTRACT: note_off channel=2 note=70 velocity=95 time=0
EXTRACT: note_on channel=8 note=32 velocity=127 time=0
EXTRACT: note_off channel=3 note=83 velocity=127 time=0
EXTRACT: note_off channel=9 note=38 velocity=127 time=0
EXTRACT: note_off channel=9 note=39 velocity=95 time=0
EXTRACT: note_on channel=9 note=44 velocity=127 time=0
EXTRACT: note_off channel=9 note=44 velocity=127 time=0.1339285
EXTRACT: note_on channel=9 note=44 velocity=127 time=0
EXTRACT: note_off channel=0 note=59 velocity=95 time=0.1339285
EXTRACT: note_off channel=0 note=54 velocity=95 time=0
EXTRACT: note_off channel=0 note=47 velocity=95 time=0
EXTRACT: note_on channel=0 note=52 velocity=95 time=0
EXTRACT: note_on channel=0 note=47 velocity=95 time=0
EXTRACT: note_on channel=0 note=40 velocity=95 time=0
EXTRACT: note_off channel=8 note=32 velocity=127 time=0
EXTRACT: note_on channel=8 note=27 velocity=127 time=0
EXTRACT: note_off channel=4 note=71 velocity=95 time=0
EXTRACT: note_off channel=4 note=66 velocity=95 time=0
EXTRACT: note_off channel=4 note=63 velocity=95 time=0
EXTRACT: note_off channel=4 note=59 velocity=95 time=0
EXTRACT: note_on channel=4 note=68 velocity=95 time=0
EXTRACT: note_on channel=4 note=64 velocity=95 time=0
EXTRACT: note_on channel=4 note=59 velocity=95 time=0
EXTRACT: note_on channel=4 note=56 velocity=95 time=0
EXTRACT: note_off channel=5 note=71 velocity=95 time=0
EXTRACT: note_off channel=5 note=66 velocity=95 time=0
EXTRACT: note_off channel=5 note=63 velocity=95 time=0
EXTRACT: note_off channel=5 note=59 velocity=95 time=0
EXTRACT: note_on channel=5 note=68 velocity=95 time=0
EXTRACT: note_on channel=5 note=64 velocity=95 time=0
EXTRACT: note_on channel=5 note=59 velocity=95 time=0
EXTRACT: note_on channel=5 note=56 velocity=95 time=0
EXTRACT: note_off channel=9 note=44 velocity=127 time=0
EXTRACT: note_on channel=9 note=44 velocity=127 time=0
EXTRACT: note_on channel=9 note=35 velocity=127 time=0
EXTRACT: note_off channel=8 note=27 velocity=127 time=0.267857
EXTRACT: note_on channel=3 note=75 velocity=127 time=0
EXTRACT: note_off channel=9 note=44 velocity=127 time=0
EXTRACT: note_off channel=9 note=35 velocity=127 time=0
EXTRACT: note_on channel=9 note=44 velocity=127 time=0
EXTRACT: note_off channel=9 note=44 velocity=127 time=0.1339285
EXTRACT: note_off channel=3 note=75 velocity=127 time=0.1339285
EXTRACT: note_on channel=3 note=78 velocity=127 time=0
EXTRACT: note_on channel=9 note=38 velocity=127 time=0
EXTRACT: note_on channel=9 note=39 velocity=95 time=0
EXTRACT: note_off channel=0 note=52 velocity=95 time=0.267857
EXTRACT: note_off channel=0 note=47 velocity=95 time=0
EXTRACT: note_off channel=0 note=40 velocity=95 time=0
EXTRACT: note_on channel=0 note=59 velocity=95 time=0
EXTRACT: note_on channel=0 note=54 velocity=95 time=0
EXTRACT: note_on channel=0 note=47 velocity=95 time=0
EXTRACT: note_on channel=8 note=27 velocity=127 time=0
EXTRACT: note_off channel=3 note=78 velocity=127 time=0
EXTRACT: note_on channel=3 note=80 velocity=127 time=0
EXTRACT: note_off channel=4 note=68 velocity=95 time=0
EXTRACT: note_off channel=4 note=64 velocity=95 time=0
EXTRACT: note_off channel=4 note=59 velocity=95 time=0
EXTRACT: note_off channel=4 note=56 velocity=95 time=0
EXTRACT: note_on channel=4 note=71 velocity=95 time=0
EXTRACT: note_on channel=4 note=66 velocity=95 time=0
EXTRACT: note_on channel=4 note=63 velocity=95 time=0
EXTRACT: note_on channel=4 note=59 velocity=95 time=0
EXTRACT: note_off channel=5 note=68 velocity=95 time=0
EXTRACT: note_off channel=5 note=64 velocity=95 time=0
EXTRACT: note_off channel=5 note=59 velocity=95 time=0
EXTRACT: note_off channel=5 note=56 velocity=95 time=0
EXTRACT: note_on channel=5 note=71 velocity=95 time=0
EXTRACT: note_on channel=5 note=66 velocity=95 time=0
EXTRACT: note_on channel=5 note=63 velocity=95 time=0
EXTRACT: note_on channel=5 note=59 velocity=95 time=0
EXTRACT: note_off channel=9 note=38 velocity=127 time=0
EXTRACT: note_off channel=9 note=39 velocity=95 time=0
EXTRACT: note_on channel=9 note=44 velocity=127 time=0
EXTRACT: note_off channel=9 note=44 velocity=127 time=0.1339285
EXTRACT: note_off channel=8 note=27 velocity=127 time=0.1339285
EXTRACT: note_on channel=8 note=35 velocity=127 time=0
EXTRACT: note_off channel=3 note=80 velocity=127 time=0
EXTRACT: note_on channel=3 note=80 velocity=127 time=0
EXTRACT: note_on channel=9 note=44 velocity=127 time=0
EXTRACT: note_on channel=9 note=35 velocity=127 time=0
EXTRACT: note_off channel=8 note=35 velocity=127 time=0.1339285
EXTRACT: note_on channel=8 note=30 velocity=127 time=0
EXTRACT: note_off channel=9 note=44 velocity=127 time=0.1339285
EXTRACT: note_off channel=9 note=35 velocity=127 time=0
EXTRACT: note_on channel=9 note=44 velocity=127 time=0
EXTRACT: note_off channel=8 note=30 velocity=127 time=0.1339285
EXTRACT: note_on channel=8 note=35 velocity=127 time=0
EXTRACT: note_off channel=9 note=44 velocity=127 time=0
EXTRACT: note_on channel=2 note=78 velocity=127 time=0.1339285
EXTRACT: note_on channel=2 note=75 velocity=127 time=0
EXTRACT: note_on channel=2 note=70 velocity=95 time=0
EXTRACT: note_off channel=8 note=35 velocity=127 time=0
EXTRACT: note_on channel=8 note=30 velocity=127 time=0
EXTRACT: note_off channel=3 note=80 velocity=127 time=0
EXTRACT: note_on channel=9 note=38 velocity=127 time=0
EXTRACT: note_on channel=9 note=39 velocity=95 time=0
EXTRACT: note_off channel=2 note=78 velocity=127 time=0.267857
EXTRACT: note_off channel=2 note=75 velocity=127 time=0
EXTRACT: note_off channel=2 note=70 velocity=95 time=0
EXTRACT: note_off channel=8 note=30 velocity=127 time=0
EXTRACT: note_on channel=8 note=35 velocity=127 time=0
EXTRACT: note_off channel=9 note=38 velocity=127 time=0
EXTRACT: note_off channel=9 note=39 velocity=95 time=0
EXTRACT: note_on channel=9 note=44 velocity=127 time=0
EXTRACT: note_off channel=9 note=44 velocity=127 time=0.1339285
EXTRACT: note_on channel=9 note=44 velocity=127 time=0
EXTRACT: note_off channel=0 note=59 velocity=95 time=0.1339285
EXTRACT: note_off channel=0 note=54 velocity=95 time=0
EXTRACT: note_off channel=0 note=47 velocity=95 time=0
EXTRACT: note_on channel=0 note=54 velocity=95 time=0
EXTRACT: note_on channel=0 note=49 velocity=95 time=0
EXTRACT: note_on channel=0 note=42 velocity=95 time=0
EXTRACT: note_off channel=8 note=35 velocity=127 time=0
EXTRACT: note_on channel=8 note=30 velocity=127 time=0
EXTRACT: note_on channel=3 note=78 velocity=127 time=0
EXTRACT: note_off channel=4 note=71 velocity=95 time=0
EXTRACT: note_off channel=4 note=66 velocity=95 time=0
EXTRACT: note_off channel=4 note=63 velocity=95 time=0
EXTRACT: note_off channel=4 note=59 velocity=95 time=0
EXTRACT: note_on channel=4 note=70 velocity=95 time=0
EXTRACT: note_on channel=4 note=66 velocity=95 time=0
EXTRACT: note_on channel=4 note=61 velocity=95 time=0
EXTRACT: note_on channel=4 note=58 velocity=95 time=0
EXTRACT: note_off channel=5 note=71 velocity=95 time=0
EXTRACT: note_off channel=5 note=66 velocity=95 time=0
EXTRACT: note_off channel=5 note=63 velocity=95 time=0
EXTRACT: note_off channel=5 note=59 velocity=95 time=0
EXTRACT: note_on channel=5 note=70 velocity=95 time=0
EXTRACT: note_on channel=5 note=66 velocity=95 time=0
EXTRACT: note_on channel=5 note=61 velocity=95 time=0
EXTRACT: note_on channel=5 note=58 velocity=95 time=0
EXTRACT: note_off channel=9 note=44 velocity=127 time=0
EXTRACT: note_on channel=9 note=44 velocity=127 time=0
EXTRACT: note_on channel=9 note=35 velocity=127 time=0
EXTRACT: note_off channel=8 note=30 velocity=127 time=0.267857
EXTRACT: note_off channel=3 note=78 velocity=127 time=0
EXTRACT: note_on channel=3 note=78 velocity=127 time=0
EXTRACT: note_off channel=9 note=44 velocity=127 time=0
EXTRACT: note_off channel=9 note=35 velocity=127 time=0
EXTRACT: note_on channel=9 note=44 velocity=127 time=0
EXTRACT: note_off channel=9 note=44 velocity=127 time=0.1339285
EXTRACT: note_off channel=3 note=78 velocity=127 time=0.1339285
EXTRACT: note_on channel=3 note=78 velocity=127 time=0
EXTRACT: note_on channel=9 note=38 velocity=127 time=0
EXTRACT: note_on channel=9 note=39 velocity=95 time=0
EXTRACT: note_off channel=0 note=54 velocity=95 time=0.267857
EXTRACT: note_off channel=0 note=49 velocity=95 time=0
EXTRACT: note_off channel=0 note=42 velocity=95 time=0
EXTRACT: note_on channel=0 note=59 velocity=95 time=0
EXTRACT: note_on channel=0 note=54 velocity=95 time=0
EXTRACT: note_on channel=0 note=47 velocity=95 time=0
EXTRACT: note_on channel=8 note=30 velocity=127 time=0
EXTRACT: note_off channel=3 note=78 velocity=127 time=0
EXTRACT: note_on channel=3 note=75 velocity=127 time=0
EXTRACT: note_off channel=4 note=70 velocity=95 time=0
EXTRACT: note_off channel=4 note=66 velocity=95 time=0
EXTRACT: note_off channel=4 note=61 velocity=95 time=0
EXTRACT: note_off channel=4 note=58 velocity=95 time=0
EXTRACT: note_on channel=4 note=71 velocity=95 time=0
EXTRACT: note_on channel=4 note=66 velocity=95 time=0
EXTRACT: note_on channel=4 note=63 velocity=95 time=0
EXTRACT: note_on channel=4 note=59 velocity=95 time=0
EXTRACT: note_off channel=5 note=70 velocity=95 time=0
EXTRACT: note_off channel=5 note=66 velocity=95 time=0
EXTRACT: note_off channel=5 note=61 velocity=95 time=0
EXTRACT: note_off channel=5 note=58 velocity=95 time=0
EXTRACT: note_on channel=5 note=71 velocity=95 time=0
EXTRACT: note_on channel=5 note=66 velocity=95 time=0
EXTRACT: note_on channel=5 note=63 velocity=95 time=0
EXTRACT: note_on channel=5 note=59 velocity=95 time=0
EXTRACT: note_off channel=9 note=38 velocity=127 time=0
EXTRACT: note_off channel=9 note=39 velocity=95 time=0
EXTRACT: note_on channel=9 note=44 velocity=127 time=0
EXTRACT: note_off channel=3 note=75 velocity=127 time=0.1339285
EXTRACT: note_on channel=3 note=80 velocity=127 time=0
EXTRACT: note_off channel=9 note=44 velocity=127 time=0
EXTRACT: note_off channel=8 note=30 velocity=127 time=0.1339285
EXTRACT: note_on channel=8 note=32 velocity=127 time=0
EXTRACT: note_on channel=9 note=44 velocity=127 time=0
EXTRACT: note_on channel=9 note=35 velocity=127 time=0
EXTRACT: note_off channel=8 note=32 velocity=127 time=0.267857
EXTRACT: note_off channel=3 note=80 velocity=127 time=0
EXTRACT: note_on channel=3 note=78 velocity=127 time=0
EXTRACT: note_off channel=9 note=44 velocity=127 time=0
EXTRACT: note_off channel=9 note=35 velocity=127 time=0
EXTRACT: note_on channel=9 note=44 velocity=127 time=0
EXTRACT: note_off channel=9 note=44 velocity=127 time=0.1339285
EXTRACT: note_on channel=2 note=78 velocity=127 time=0.1339285
EXTRACT: note_on channel=2 note=75 velocity=127 time=0
EXTRACT: note_on channel=2 note=70 velocity=95 time=0
EXTRACT: note_off channel=3 note=78 velocity=127 time=0
EXTRACT: note_on channel=3 note=76 velocity=127 time=0
EXTRACT: note_on channel=9 note=38 velocity=127 time=0
EXTRACT: note_on channel=9 note=39 velocity=95 time=0
EXTRACT: note_off channel=2 note=78 velocity=127 time=0.267857
EXTRACT: note_off channel=2 note=75 velocity=127 time=0
EXTRACT: note_off channel=2 note=70 velocity=95 time=0
EXTRACT: note_on channel=8 note=32 velocity=127 time=0
EXTRACT: note_off channel=3 note=76 velocity=127 time=0
EXTRACT: note_on channel=3 note=75 velocity=127 time=0
EXTRACT: note_off channel=9 note=38 velocity=127 time=0
EXTRACT: note_off channel=9 note=39 velocity=95 time=0
EXTRACT: note_on channel=9 note=44 velocity=127 time=0
EXTRACT: note_off channel=9 note=44 velocity=127 time=0.1339285
EXTRACT: note_on channel=9 note=44 velocity=127 time=0
EXTRACT: note_off channel=0 note=59 velocity=95 time=0.1339285
EXTRACT: note_off channel=0 note=54 velocity=95 time=0
EXTRACT: note_off channel=0 note=47 velocity=95 time=0
EXTRACT: note_on channel=0 note=52 velocity=95 time=0
EXTRACT: note_on channel=0 note=47 velocity=95 time=0
EXTRACT: note_on channel=0 note=40 velocity=95 time=0
EXTRACT: note_off channel=8 note=32 velocity=127 time=0
EXTRACT: note_on channel=8 note=27 velocity=127 time=0
EXTRACT: note_off channel=3 note=75 velocity=127 time=0
EXTRACT: note_on channel=3 note=73 velocity=127 time=0
EXTRACT: note_off channel=4 note=71 velocity=95 time=0
EXTRACT: note_off channel=4 note=66 velocity=95 time=0
EXTRACT: note_off channel=4 note=63 velocity=95 time=0
EXTRACT: note_off channel=4 note=59 velocity=95 time=0
EXTRACT: note_on channel=4 note=68 velocity=95 time=0
EXTRACT: note_on channel=4 note=64 velocity=95 time=0
EXTRACT: note_on channel=4 note=59 velocity=95 time=0
EXTRACT: note_on channel=4 note=56 velocity=95 time=0
EXTRACT: note_off channel=5 note=71 velocity=95 time=0
EXTRACT: note_off channel=5 note=66 velocity=95 time=0
EXTRACT: note_off channel=5 note=63 velocity=95 time=0
EXTRACT: note_off channel=5 note=59 velocity=95 time=0
EXTRACT: note_on channel=5 note=68 velocity=95 time=0
EXTRACT: note_on channel=5 note=64 velocity=95 time=0
EXTRACT: note_on channel=5 note=59 velocity=95 time=0
EXTRACT: note_on channel=5 note=56 velocity=95 time=0
EXTRACT: note_off channel=9 note=44 velocity=127 time=0
EXTRACT: note_on channel=9 note=44 velocity=127 time=0
EXTRACT: note_on channel=9 note=35 velocity=127 time=0
EXTRACT: note_off channel=8 note=27 velocity=127 time=0.267857
EXTRACT: note_off channel=9 note=44 velocity=127 time=0
EXTRACT: note_off channel=9 note=35 velocity=127 time=0
EXTRACT: note_on channel=9 note=44 velocity=127 time=0
EXTRACT: note_off channel=3 note=73 velocity=127 time=0.1339285
EXTRACT: note_on channel=3 note=78 velocity=127 time=0
EXTRACT: note_off channel=9 note=44 velocity=127 time=0
EXTRACT: note_on channel=9 note=38 velocity=127 time=0.1339285
EXTRACT: note_on channel=9 note=39 velocity=95 time=0
EXTRACT: note_off channel=0 note=52 velocity=95 time=0.267857
EXTRACT: note_off channel=0 note=47 velocity=95 time=0
EXTRACT: note_off channel=0 note=40 velocity=95 time=0
EXTRACT: note_on channel=0 note=59 velocity=95 time=0
EXTRACT: note_on channel=0 note=54 velocity=95 time=0
EXTRACT: note_on channel=0 note=47 velocity=95 time=0
EXTRACT: note_on channel=8 note=27 velocity=127 time=0
EXTRACT: note_off channel=3 note=78 velocity=127 time=0
EXTRACT: note_on channel=3 note=75 velocity=127 time=0
EXTRACT: note_off channel=4 note=68 velocity=95 time=0
EXTRACT: note_off channel=4 note=64 velocity=95 time=0
EXTRACT: note_off channel=4 note=59 velocity=95 time=0
EXTRACT: note_off channel=4 note=56 velocity=95 time=0
EXTRACT: note_on channel=4 note=71 velocity=95 time=0
EXTRACT: note_on channel=4 note=66 velocity=95 time=0
EXTRACT: note_on channel=4 note=63 velocity=95 time=0
EXTRACT: note_on channel=4 note=59 velocity=95 time=0
EXTRACT: note_off channel=5 note=68 velocity=95 time=0
EXTRACT: note_off channel=5 note=64 velocity=95 time=0
EXTRACT: note_off channel=5 note=59 velocity=95 time=0
EXTRACT: note_off channel=5 note=56 velocity=95 time=0
EXTRACT: note_on channel=5 note=71 velocity=95 time=0
EXTRACT: note_on channel=5 note=66 velocity=95 time=0
EXTRACT: note_on channel=5 note=63 velocity=95 time=0
EXTRACT: note_on channel=5 note=59 velocity=95 time=0
EXTRACT: note_off channel=9 note=38 velocity=127 time=0
EXTRACT: note_off channel=9 note=39 velocity=95 time=0
EXTRACT: note_on channel=9 note=44 velocity=127 time=0
EXTRACT: note_off channel=9 note=44 velocity=127 time=0.1339285
EXTRACT: note_off channel=8 note=27 velocity=127 time=0.1339285
EXTRACT: note_on channel=8 note=35 velocity=127 time=0
EXTRACT: note_on channel=9 note=44 velocity=127 time=0
EXTRACT: note_on channel=9 note=35 velocity=127 time=0
EXTRACT: note_off channel=8 note=35 velocity=127 time=0.1339285
EXTRACT: note_on channel=8 note=30 velocity=127 time=0
EXTRACT: note_off channel=3 note=75 velocity=127 time=0.1339285
EXTRACT: note_off channel=9 note=44 velocity=127 time=0
EXTRACT: note_off channel=9 note=35 velocity=127 time=0
EXTRACT: note_on channel=9 note=44 velocity=127 time=0
EXTRACT: note_off channel=8 note=30 velocity=127 time=0.1339285
EXTRACT: note_on channel=8 note=35 velocity=127 time=0
EXTRACT: note_off channel=9 note=44 velocity=127 time=0
EXTRACT: note_on channel=2 note=78 velocity=127 time=0.1339285
EXTRACT: note_on channel=2 note=75 velocity=127 time=0
EXTRACT: note_on channel=2 note=70 velocity=95 time=0
EXTRACT: note_off channel=8 note=35 velocity=127 time=0
EXTRACT: note_on channel=8 note=30 velocity=127 time=0
EXTRACT: note_on channel=9 note=38 velocity=127 time=0
EXTRACT: note_on channel=9 note=39 velocity=95 time=0
EXTRACT: note_off channel=2 note=78 velocity=127 time=0.267857
EXTRACT: note_off channel=2 note=75 velocity=127 time=0
EXTRACT: note_off channel=2 note=70 velocity=95 time=0
EXTRACT: note_off channel=8 note=30 velocity=127 time=0
EXTRACT: note_on channel=8 note=35 velocity=127 time=0
EXTRACT: note_off channel=9 note=38 velocity=127 time=0
EXTRACT: note_off channel=9 note=39 velocity=95 time=0
EXTRACT: note_on channel=9 note=44 velocity=127 time=0
EXTRACT: note_off channel=9 note=44 velocity=127 time=0.1339285
EXTRACT: note_on channel=9 note=44 velocity=127 time=0
EXTRACT: note_off channel=0 note=59 velocity=95 time=0.1339285
EXTRACT: note_off channel=0 note=54 velocity=95 time=0
EXTRACT: note_off channel=0 note=47 velocity=95 time=0
EXTRACT: note_on channel=0 note=47 velocity=95 time=0
EXTRACT: note_off channel=8 note=35 velocity=127 time=0
EXTRACT: note_on channel=8 note=35 velocity=127 time=0
EXTRACT: note_off channel=4 note=71 velocity=95 time=0
EXTRACT: note_off channel=4 note=66 velocity=95 time=0
EXTRACT: note_off channel=4 note=63 velocity=95 time=0
EXTRACT: note_off channel=4 note=59 velocity=95 time=0
EXTRACT: note_on channel=4 note=47 velocity=95 time=0
EXTRACT: note_off channel=5 note=71 velocity=95 time=0
EXTRACT: note_off channel=5 note=66 velocity=95 time=0
EXTRACT: note_off channel=5 note=63 velocity=95 time=0
EXTRACT: note_off channel=5 note=59 velocity=95 time=0
EXTRACT: note_off channel=9 note=44 velocity=127 time=0
EXTRACT: note_on channel=9 note=44 velocity=127 time=0
EXTRACT: note_on channel=9 note=54 velocity=127 time=0
EXTRACT: note_on channel=9 note=35 velocity=127 time=0
EXTRACT: note_off channel=9 note=44 velocity=127 time=0.1339285
EXTRACT: note_off channel=9 note=54 velocity=127 time=0
EXTRACT: note_off channel=9 note=35 velocity=127 time=0
EXTRACT: note_on channel=9 note=54 velocity=127 time=0
EXTRACT: note_off channel=0 note=47 velocity=95 time=0.1339285
EXTRACT: note_off channel=8 note=35 velocity=127 time=0
EXTRACT: note_off channel=4 note=47 velocity=95 time=0
EXTRACT: note_off channel=9 note=54 velocity=127 time=0
EXTRACT: note_on channel=9 note=44 velocity=127 time=0
EXTRACT: note_on channel=9 note=54 velocity=127 time=0
EXTRACT: note_off channel=9 note=44 velocity=127 time=0.1339285
EXTRACT: note_off channel=9 note=54 velocity=127 time=0
EXTRACT: note_on channel=9 note=54 velocity=127 time=0
EXTRACT: note_off channel=9 note=54 velocity=127 time=0.1339285
EXTRACT: note_on channel=9 note=38 velocity=127 time=0
EXTRACT: note_on channel=9 note=39 velocity=95 time=0
EXTRACT: note_on channel=9 note=54 velocity=127 time=0
EXTRACT: note_off channel=9 note=38 velocity=127 time=0.1339285
EXTRACT: note_off channel=9 note=39 velocity=95 time=0
EXTRACT: note_off channel=9 note=54 velocity=127 time=0
EXTRACT: note_on channel=9 note=54 velocity=127 time=0
EXTRACT: note_on channel=0 note=47 velocity=95 time=0.1339285
EXTRACT: note_on channel=8 note=35 velocity=127 time=0
EXTRACT: note_on channel=4 note=47 velocity=95 time=0
EXTRACT: note_off channel=9 note=54 velocity=127 time=0
EXTRACT: note_on channel=9 note=44 velocity=127 time=0
EXTRACT: note_on channel=9 note=54 velocity=127 time=0
EXTRACT: note_off channel=9 note=44 velocity=127 time=0.1339285
EXTRACT: note_off channel=9 note=54 velocity=127 time=0
EXTRACT: note_on channel=9 note=54 velocity=127 time=0
EXTRACT: note_off channel=0 note=47 velocity=95 time=0.1339285
EXTRACT: note_on channel=0 note=50 velocity=95 time=0
EXTRACT: note_off channel=8 note=35 velocity=127 time=0
EXTRACT: note_on channel=8 note=38 velocity=127 time=0
EXTRACT: note_off channel=4 note=47 velocity=95 time=0
EXTRACT: note_on channel=4 note=50 velocity=95 time=0
EXTRACT: note_off channel=9 note=54 velocity=127 time=0
EXTRACT: note_on channel=9 note=44 velocity=127 time=0
EXTRACT: note_on channel=9 note=54 velocity=127 time=0
EXTRACT: note_on channel=9 note=35 velocity=127 time=0
EXTRACT: note_off channel=9 note=44 velocity=127 time=0.1339285
EXTRACT: note_off channel=9 note=54 velocity=127 time=0
EXTRACT: note_off channel=9 note=35 velocity=127 time=0
EXTRACT: note_on channel=9 note=54 velocity=127 time=0
EXTRACT: note_off channel=0 note=50 velocity=95 time=0.1339285
EXTRACT: note_off channel=8 note=38 velocity=127 time=0
EXTRACT: note_off channel=4 note=50 velocity=95 time=0
EXTRACT: note_off channel=9 note=54 velocity=127 time=0
EXTRACT: note_on channel=9 note=44 velocity=127 time=0
EXTRACT: note_on channel=9 note=54 velocity=127 time=0
EXTRACT: note_off channel=9 note=44 velocity=127 time=0.1339285
EXTRACT: note_off channel=9 note=54 velocity=127 time=0
EXTRACT: note_on channel=9 note=54 velocity=127 time=0
EXTRACT: note_off channel=9 note=54 velocity=127 time=0.1339285
EXTRACT: note_on channel=9 note=38 velocity=127 time=0
EXTRACT: note_on channel=9 note=39 velocity=95 time=0
EXTRACT: note_on channel=9 note=54 velocity=127 time=0
EXTRACT: note_off channel=9 note=38 velocity=127 time=0.1339285
EXTRACT: note_off channel=9 note=39 velocity=95 time=0
EXTRACT: note_off channel=9 note=54 velocity=127 time=0
EXTRACT: note_on channel=9 note=54 velocity=127 time=0
EXTRACT: note_on channel=0 note=50 velocity=95 time=0.1339285
EXTRACT: note_on channel=8 note=38 velocity=127 time=0
EXTRACT: note_on channel=4 note=50 velocity=95 time=0
EXTRACT: note_off channel=9 note=54 velocity=127 time=0
EXTRACT: note_on channel=9 note=44 velocity=127 time=0
EXTRACT: note_on channel=9 note=54 velocity=127 time=0
EXTRACT: note_off channel=9 note=44 velocity=127 time=0.1339285
EXTRACT: note_off channel=9 note=54 velocity=127 time=0
EXTRACT: note_on channel=9 note=44 velocity=127 time=0
EXTRACT: note_on channel=9 note=54 velocity=127 time=0
EXTRACT: note_off channel=0 note=50 velocity=95 time=0.1339285
EXTRACT: note_on channel=0 note=52 velocity=95 time=0
EXTRACT: note_off channel=8 note=38 velocity=127 time=0
EXTRACT: note_on channel=8 note=40 velocity=127 time=0
EXTRACT: note_off channel=4 note=50 velocity=95 time=0
EXTRACT: note_on channel=4 note=52 velocity=95 time=0
EXTRACT: note_off channel=9 note=44 velocity=127 time=0
EXTRACT: note_off channel=9 note=54 velocity=127 time=0
EXTRACT: note_on channel=9 note=44 velocity=127 time=0
EXTRACT: note_on channel=9 note=54 velocity=127 time=0
EXTRACT: note_on channel=9 note=35 velocity=127 time=0
EXTRACT: note_off channel=9 note=44 velocity=127 time=0.1339285
EXTRACT: note_off channel=9 note=54 velocity=127 time=0
EXTRACT: note_off channel=9 note=35 velocity=127 time=0
EXTRACT: note_on channel=9 note=54 velocity=127 time=0
EXTRACT: note_off channel=0 note=52 velocity=95 time=0.1339285
EXTRACT: note_off channel=8 note=40 velocity=127 time=0
EXTRACT: note_off channel=4 note=52 velocity=95 time=0
EXTRACT: note_off channel=9 note=54 velocity=127 time=0
EXTRACT: note_on channel=9 note=44 velocity=127 time=0
EXTRACT: note_on channel=9 note=54 velocity=127 time=0
EXTRACT: note_off channel=9 note=44 velocity=127 time=0.1339285
EXTRACT: note_off channel=9 note=54 velocity=127 time=0
EXTRACT: note_on channel=9 note=54 velocity=127 time=0
EXTRACT: note_off channel=9 note=54 velocity=127 time=0.1339285
EXTRACT: note_on channel=9 note=38 velocity=127 time=0
EXTRACT: note_on channel=9 note=39 velocity=95 time=0
EXTRACT: note_on channel=9 note=54 velocity=127 time=0
EXTRACT: note_off channel=9 note=38 velocity=127 time=0.1339285
EXTRACT: note_off channel=9 note=39 velocity=95 time=0
EXTRACT: note_off channel=9 note=54 velocity=127 time=0
EXTRACT: note_on channel=9 note=54 velocity=127 time=0
EXTRACT: note_on channel=0 note=52 velocity=95 time=0.1339285
EXTRACT: note_on channel=8 note=40 velocity=127 time=0
EXTRACT: note_on channel=4 note=52 velocity=95 time=0
EXTRACT: note_off channel=9 note=54 velocity=127 time=0
EXTRACT: note_on channel=9 note=44 velocity=127 time=0
EXTRACT: note_on channel=9 note=54 velocity=127 time=0
EXTRACT: note_off channel=9 note=44 velocity=127 time=0.1339285
EXTRACT: note_off channel=9 note=54 velocity=127 time=0
EXTRACT: note_on channel=9 note=54 velocity=127 time=0
EXTRACT: note_off channel=0 note=52 velocity=95 time=0.1339285
EXTRACT: note_on channel=0 note=45 velocity=95 time=0
EXTRACT: note_off channel=8 note=40 velocity=127 time=0
EXTRACT: note_on channel=8 note=33 velocity=127 time=0
EXTRACT: note_off channel=4 note=52 velocity=95 time=0
EXTRACT: note_on channel=4 note=45 velocity=95 time=0
EXTRACT: note_off channel=9 note=54 velocity=127 time=0
EXTRACT: note_on channel=9 note=44 velocity=127 time=0
EXTRACT: note_on channel=9 note=54 velocity=127 time=0
EXTRACT: note_on channel=9 note=35 velocity=127 time=0
EXTRACT: note_off channel=9 note=44 velocity=127 time=0.1339285
EXTRACT: note_off channel=9 note=54 velocity=127 time=0
EXTRACT: note_off channel=9 note=35 velocity=127 time=0
EXTRACT: note_on channel=9 note=54 velocity=127 time=0
EXTRACT: note_off channel=0 note=45 velocity=95 time=0.1339285
EXTRACT: note_off channel=8 note=33 velocity=127 time=0
EXTRACT: note_off channel=4 note=45 velocity=95 time=0
EXTRACT: note_off channel=9 note=54 velocity=127 time=0
EXTRACT: note_on channel=9 note=44 velocity=127 time=0
EXTRACT: note_on channel=9 note=54 velocity=127 time=0
EXTRACT: note_on channel=0 note=45 velocity=95 time=0.1339285
EXTRACT: note_on channel=8 note=33 velocity=127 time=0
EXTRACT: note_on channel=4 note=45 velocity=95 time=0
EXTRACT: note_off channel=9 note=44 velocity=127 time=0
EXTRACT: note_off channel=9 note=54 velocity=127 time=0
EXTRACT: note_on channel=9 note=54 velocity=127 time=0
EXTRACT: note_off channel=9 note=54 velocity=127 time=0.1339285
EXTRACT: note_on channel=9 note=38 velocity=127 time=0
EXTRACT: note_on channel=9 note=39 velocity=95 time=0
EXTRACT: note_on channel=9 note=54 velocity=127 time=0
EXTRACT: note_off channel=0 note=45 velocity=95 time=0.1339285
EXTRACT: note_off channel=8 note=33 velocity=127 time=0
EXTRACT: note_off channel=4 note=45 velocity=95 time=0
EXTRACT: note_off channel=9 note=38 velocity=127 time=0
EXTRACT: note_off channel=9 note=39 velocity=95 time=0
EXTRACT: note_off channel=9 note=54 velocity=127 time=0
EXTRACT: note_on channel=9 note=54 velocity=127 time=0
EXTRACT: note_on channel=0 note=46 velocity=95 time=0.1339285
EXTRACT: note_on channel=8 note=34 velocity=127 time=0
EXTRACT: note_on channel=4 note=46 velocity=95 time=0
EXTRACT: note_off channel=9 note=54 velocity=127 time=0
EXTRACT: note_on channel=9 note=44 velocity=127 time=0
EXTRACT: note_on channel=9 note=54 velocity=127 time=0
EXTRACT: note_off channel=9 note=44 velocity=127 time=0.1339285
EXTRACT: note_off channel=9 note=54 velocity=127 time=0
EXTRACT: note_on channel=9 note=44 velocity=127 time=0
EXTRACT: note_on channel=9 note=54 velocity=127 time=0
EXTRACT: note_off channel=0 note=46 velocity=95 time=0.1339285
EXTRACT: note_on channel=0 note=47 velocity=95 time=0
EXTRACT: note_off channel=8 note=34 velocity=127 time=0
EXTRACT: note_on channel=8 note=35 velocity=127 time=0
EXTRACT: note_off channel=4 note=46 velocity=95 time=0
EXTRACT: note_on channel=4 note=47 velocity=95 time=0
EXTRACT: note_off channel=9 note=44 velocity=127 time=0
EXTRACT: note_off channel=9 note=54 velocity=127 time=0
EXTRACT: note_on channel=9 note=44 velocity=127 time=0
EXTRACT: note_on channel=9 note=54 velocity=127 time=0
EXTRACT: note_on channel=9 note=35 velocity=127 time=0
EXTRACT: note_off channel=9 note=44 velocity=127 time=0.1339285
EXTRACT: note_off channel=9 note=54 velocity=127 time=0
EXTRACT: note_off channel=9 note=35 velocity=127 time=0
EXTRACT: note_on channel=9 note=54 velocity=127 time=0
EXTRACT: note_off channel=0 note=47 velocity=95 time=0.1339285
EXTRACT: note_off channel=8 note=35 velocity=127 time=0
EXTRACT: note_off channel=4 note=47 velocity=95 time=0
EXTRACT: note_off channel=9 note=54 velocity=127 time=0
EXTRACT: note_on channel=9 note=44 velocity=127 time=0
EXTRACT: note_on channel=9 note=54 velocity=127 time=0
EXTRACT: note_off channel=9 note=44 velocity=127 time=0.1339285
EXTRACT: note_off channel=9 note=54 velocity=127 time=0
EXTRACT: note_on channel=9 note=54 velocity=127 time=0
EXTRACT: note_off channel=9 note=54 velocity=127 time=0.1339285
EXTRACT: note_on channel=9 note=38 velocity=127 time=0
EXTRACT: note_on channel=9 note=39 velocity=95 time=0
EXTRACT: note_on channel=9 note=54 velocity=127 time=0
EXTRACT: note_off channel=9 note=38 velocity=127 time=0.1339285
EXTRACT: note_off channel=9 note=39 velocity=95 time=0
EXTRACT: note_off channel=9 note=54 velocity=127 time=0
EXTRACT: note_on channel=9 note=54 velocity=127 time=0
EXTRACT: note_on channel=0 note=47 velocity=95 time=0.1339285
EXTRACT: note_on channel=8 note=35 velocity=127 time=0
EXTRACT: note_on channel=4 note=47 velocity=95 time=0
EXTRACT: note_off channel=9 note=54 velocity=127 time=0
EXTRACT: note_on channel=9 note=44 velocity=127 time=0
EXTRACT: note_on channel=9 note=54 velocity=127 time=0
EXTRACT: note_off channel=9 note=44 velocity=127 time=0.1339285
EXTRACT: note_off channel=9 note=54 velocity=127 time=0
EXTRACT: note_on channel=9 note=54 velocity=127 time=0
EXTRACT: note_off channel=0 note=47 velocity=95 time=0.1339285
EXTRACT: note_on channel=0 note=50 velocity=95 time=0
EXTRACT: note_off channel=8 note=35 velocity=127 time=0
EXTRACT: note_on channel=8 note=38 velocity=127 time=0
EXTRACT: note_off channel=4 note=47 velocity=95 time=0
EXTRACT: note_on channel=4 note=50 velocity=95 time=0
EXTRACT: note_off channel=9 note=54 velocity=127 time=0
EXTRACT: note_on channel=9 note=44 velocity=127 time=0
EXTRACT: note_on channel=9 note=54 velocity=127 time=0
EXTRACT: note_on channel=9 note=35 velocity=127 time=0
EXTRACT: note_off channel=9 note=44 velocity=127 time=0.1339285
EXTRACT: note_off channel=9 note=54 velocity=127 time=0
EXTRACT: note_off channel=9 note=35 velocity=127 time=0
EXTRACT: note_on channel=9 note=54 velocity=127 time=0
EXTRACT: note_off channel=0 note=50 velocity=95 time=0.1339285
EXTRACT: note_off channel=8 note=38 velocity=127 time=0
EXTRACT: note_off channel=4 note=50 velocity=95 time=0
EXTRACT: note_off channel=9 note=54 velocity=127 time=0
EXTRACT: note_on channel=9 note=44 velocity=127 time=0
EXTRACT: note_on channel=9 note=54 velocity=127 time=0
EXTRACT: note_off channel=9 note=44 velocity=127 time=0.1339285
EXTRACT: note_off channel=9 note=54 velocity=127 time=0
EXTRACT: note_on channel=9 note=54 velocity=127 time=0
EXTRACT: note_off channel=9 note=54 velocity=127 time=0.1339285
EXTRACT: note_on channel=9 note=38 velocity=127 time=0
EXTRACT: note_on channel=9 note=39 velocity=95 time=0
EXTRACT: note_on channel=9 note=54 velocity=127 time=0
EXTRACT: note_off channel=9 note=38 velocity=127 time=0.1339285
EXTRACT: note_off channel=9 note=39 velocity=95 time=0
EXTRACT: note_off channel=9 note=54 velocity=127 time=0
EXTRACT: note_on channel=9 note=54 velocity=127 time=0
EXTRACT: note_on channel=0 note=50 velocity=95 time=0.1339285
EXTRACT: note_on channel=8 note=38 velocity=127 time=0
EXTRACT: note_on channel=4 note=50 velocity=95 time=0
EXTRACT: note_off channel=9 note=54 velocity=127 time=0
EXTRACT: note_on channel=9 note=44 velocity=127 time=0
EXTRACT: note_on channel=9 note=54 velocity=127 time=0
EXTRACT: note_off channel=9 note=44 velocity=127 time=0.1339285
EXTRACT: note_off channel=9 note=54 velocity=127 time=0
EXTRACT: note_on channel=9 note=44 velocity=127 time=0
EXTRACT: note_on channel=9 note=54 velocity=127 time=0
EXTRACT: note_off channel=0 note=50 velocity=95 time=0.1339285
EXTRACT: note_on channel=0 note=52 velocity=95 time=0
EXTRACT: note_off channel=8 note=38 velocity=127 time=0
EXTRACT: note_on channel=8 note=40 velocity=127 time=0
EXTRACT: note_off channel=4 note=50 velocity=95 time=0
EXTRACT: note_on channel=4 note=52 velocity=95 time=0
EXTRACT: note_off channel=9 note=44 velocity=127 time=0
EXTRACT: note_off channel=9 note=54 velocity=127 time=0
EXTRACT: note_on channel=9 note=44 velocity=127 time=0
EXTRACT: note_on channel=9 note=54 velocity=127 time=0
EXTRACT: note_on channel=9 note=35 velocity=127 time=0
EXTRACT: note_off channel=9 note=44 velocity=127 time=0.1339285
EXTRACT: note_off channel=9 note=54 velocity=127 time=0
EXTRACT: note_off channel=9 note=35 velocity=127 time=0
EXTRACT: note_on channel=9 note=54 velocity=127 time=0
EXTRACT: note_off channel=0 note=52 velocity=95 time=0.1339285
EXTRACT: note_off channel=8 note=40 velocity=127 time=0
EXTRACT: note_off channel=4 note=52 velocity=95 time=0
EXTRACT: note_off channel=9 note=54 velocity=127 time=0
EXTRACT: note_on channel=9 note=44 velocity=127 time=0
EXTRACT: note_on channel=9 note=54 velocity=127 time=0
EXTRACT: note_off channel=9 note=44 velocity=127 time=0.1339285
EXTRACT: note_off channel=9 note=54 velocity=127 time=0
EXTRACT: note_on channel=9 note=54 velocity=127 time=0
EXTRACT: note_off channel=9 note=54 velocity=127 time=0.1339285
EXTRACT: note_on channel=9 note=38 velocity=127 time=0
EXTRACT: note_on channel=9 note=39 velocity=95 time=0
EXTRACT: note_on channel=9 note=54 velocity=127 time=0
EXTRACT: note_off channel=9 note=38 velocity=127 time=0.1339285
EXTRACT: note_off channel=9 note=39 velocity=95 time=0
EXTRACT: note_off channel=9 note=54 velocity=127 time=0
EXTRACT: note_on channel=9 note=54 velocity=127 time=0
EXTRACT: note_on channel=0 note=52 velocity=95 time=0.1339285
EXTRACT: note_on channel=8 note=40 velocity=127 time=0
EXTRACT: note_on channel=4 note=52 velocity=95 time=0
EXTRACT: note_off channel=9 note=54 velocity=127 time=0
EXTRACT: note_on channel=9 note=44 velocity=127 time=0
EXTRACT: note_on channel=9 note=54 velocity=127 time=0
EXTRACT: note_off channel=9 note=44 velocity=127 time=0.1339285
EXTRACT: note_off channel=9 note=54 velocity=127 time=0
EXTRACT: note_on channel=9 note=54 velocity=127 time=0
EXTRACT: note_off channel=0 note=52 velocity=95 time=0.1339285
EXTRACT: note_on channel=0 note=45 velocity=95 time=0
EXTRACT: note_off channel=8 note=40 velocity=127 time=0
EXTRACT: note_on channel=8 note=33 velocity=127 time=0
EXTRACT: note_off channel=4 note=52 velocity=95 time=0
EXTRACT: note_on channel=4 note=45 velocity=95 time=0
EXTRACT: note_off channel=9 note=54 velocity=127 time=0
EXTRACT: note_on channel=9 note=44 velocity=127 time=0
EXTRACT: note_on channel=9 note=54 velocity=127 time=0
EXTRACT: note_on channel=9 note=35 velocity=127 time=0
EXTRACT: note_off channel=9 note=44 velocity=127 time=0.1339285
EXTRACT: note_off channel=9 note=54 velocity=127 time=0
EXTRACT: note_off channel=9 note=35 velocity=127 time=0
EXTRACT: note_on channel=9 note=54 velocity=127 time=0
EXTRACT: note_off channel=0 note=45 velocity=95 time=0.1339285
EXTRACT: note_off channel=8 note=33 velocity=127 time=0
EXTRACT: note_off channel=4 note=45 velocity=95 time=0
EXTRACT: note_off channel=9 note=54 velocity=127 time=0
EXTRACT: note_on channel=9 note=44 velocity=127 time=0
EXTRACT: note_on channel=9 note=54 velocity=127 time=0
EXTRACT: note_on channel=0 note=45 velocity=95 time=0.1339285
EXTRACT: note_on channel=8 note=33 velocity=127 time=0
EXTRACT: note_on channel=4 note=45 velocity=95 time=0
EXTRACT: note_off channel=9 note=44 velocity=127 time=0
EXTRACT: note_off channel=9 note=54 velocity=127 time=0
EXTRACT: note_on channel=9 note=54 velocity=127 time=0
EXTRACT: note_off channel=9 note=54 velocity=127 time=0.1339285
EXTRACT: note_on channel=9 note=38 velocity=127 time=0
EXTRACT: note_on channel=9 note=39 velocity=95 time=0
EXTRACT: note_on channel=9 note=54 velocity=127 time=0
EXTRACT: note_off channel=0 note=45 velocity=95 time=0.1339285
EXTRACT: note_off channel=8 note=33 velocity=127 time=0
EXTRACT: note_off channel=4 note=45 velocity=95 time=0
EXTRACT: note_off channel=9 note=38 velocity=127 time=0
EXTRACT: note_off channel=9 note=39 velocity=95 time=0
EXTRACT: note_off channel=9 note=54 velocity=127 time=0
EXTRACT: note_on channel=9 note=54 velocity=127 time=0
EXTRACT: note_on channel=0 note=46 velocity=95 time=0.1339285
EXTRACT: note_on channel=8 note=34 velocity=127 time=0
EXTRACT: note_on channel=4 note=46 velocity=95 time=0
EXTRACT: note_off channel=9 note=54 velocity=127 time=0
EXTRACT: note_on channel=9 note=44 velocity=127 time=0
EXTRACT: note_on channel=9 note=54 velocity=127 time=0
EXTRACT: note_off channel=9 note=44 velocity=127 time=0.1339285
EXTRACT: note_off channel=9 note=54 velocity=127 time=0
EXTRACT: note_on channel=9 note=44 velocity=127 time=0
EXTRACT: note_on channel=9 note=54 velocity=127 time=0
EXTRACT: note_off channel=0 note=46 velocity=95 time=0.1339285
EXTRACT: note_on channel=0 note=54 velocity=95 time=0
EXTRACT: note_on channel=0 note=49 velocity=95 time=0
EXTRACT: note_on channel=0 note=42 velocity=95 time=0
EXTRACT: note_off channel=8 note=34 velocity=127 time=0
EXTRACT: note_on channel=8 note=30 velocity=127 time=0
EXTRACT: note_on channel=3 note=78 velocity=127 time=0
EXTRACT: note_on channel=3 note=73 velocity=127 time=0
EXTRACT: note_off channel=4 note=46 velocity=95 time=0
EXTRACT: note_on channel=4 note=70 velocity=95 time=0
EXTRACT: note_on channel=4 note=66 velocity=95 time=0
EXTRACT: note_on channel=4 note=61 velocity=95 time=0
EXTRACT: note_on channel=4 note=58 velocity=95 time=0
EXTRACT: note_on channel=5 note=70 velocity=95 time=0
EXTRACT: note_on channel=5 note=66 velocity=95 time=0
EXTRACT: note_on channel=5 note=61 velocity=95 time=0
EXTRACT: note_on channel=5 note=58 velocity=95 time=0
EXTRACT: note_on channel=6 note=78 velocity=95 time=0
EXTRACT: note_off channel=9 note=44 velocity=127 time=0
EXTRACT: note_off channel=9 note=54 velocity=127 time=0
EXTRACT: note_on channel=9 note=44 velocity=127 time=0
EXTRACT: note_on channel=9 note=54 velocity=127 time=0
EXTRACT: note_on channel=9 note=35 velocity=127 time=0
EXTRACT: note_off channel=3 note=78 velocity=127 time=0.1339285
EXTRACT: note_off channel=3 note=73 velocity=127 time=0
EXTRACT: note_on channel=3 note=78 velocity=127 time=0
EXTRACT: note_on channel=3 note=73 velocity=127 time=0
EXTRACT: note_off channel=9 note=44 velocity=127 time=0
EXTRACT: note_off channel=9 note=54 velocity=127 time=0
EXTRACT: note_off channel=9 note=35 velocity=127 time=0
EXTRACT: note_on channel=9 note=54 velocity=127 time=0
EXTRACT: note_off channel=6 note=78 velocity=95 time=0.06696425
EXTRACT: note_off channel=8 note=30 velocity=127 time=0.06696425
EXTRACT: note_off channel=3 note=78 velocity=127 time=0
EXTRACT: note_off channel=3 note=73 velocity=127 time=0
EXTRACT: note_on channel=3 note=78 velocity=127 time=0
EXTRACT: note_on channel=3 note=73 velocity=127 time=0
EXTRACT: note_off channel=9 note=54 velocity=127 time=0
EXTRACT: note_on channel=9 note=44 velocity=127 time=0
EXTRACT: note_on channel=9 note=81 velocity=127 time=0
EXTRACT: note_on channel=9 note=54 velocity=127 time=0
EXTRACT: note_off channel=3 note=78 velocity=127 time=0.1339285
EXTRACT: note_off channel=3 note=73 velocity=127 time=0
EXTRACT: note_on channel=3 note=78 velocity=127 time=0
EXTRACT: note_on channel=3 note=73 velocity=127 time=0
EXTRACT: note_off channel=9 note=44 velocity=127 time=0
EXTRACT: note_off channel=9 note=81 velocity=127 time=0
EXTRACT: note_off channel=9 note=54 velocity=127 time=0
EXTRACT: note_on channel=9 note=54 velocity=127 time=0
EXTRACT: note_off channel=3 note=78 velocity=127 time=0.1339285
EXTRACT: note_off channel=3 note=73 velocity=127 time=0
EXTRACT: note_on channel=3 note=78 velocity=127 time=0
EXTRACT: note_on channel=3 note=73 velocity=127 time=0
EXTRACT: note_on channel=6 note=78 velocity=95 time=0
EXTRACT: note_off channel=9 note=54 velocity=127 time=0
EXTRACT: note_on channel=9 note=38 velocity=127 time=0
EXTRACT: note_on channel=9 note=39 velocity=95 time=0
EXTRACT: note_on channel=9 note=54 velocity=127 time=0
EXTRACT: note_off channel=9 note=38 velocity=127 time=0.1339285
EXTRACT: note_off channel=9 note=39 velocity=95 time=0
EXTRACT: note_off channel=9 note=54 velocity=127 time=0
EXTRACT: note_on channel=9 note=54 velocity=127 time=0
EXTRACT: note_off channel=6 note=78 velocity=95 time=0.06696425
EXTRACT: note_off channel=0 note=54 velocity=95 time=0.06696425
EXTRACT: note_off channel=0 note=49 velocity=95 time=0
EXTRACT: note_off channel=0 note=42 velocity=95 time=0
EXTRACT: note_on channel=0 note=59 velocity=95 time=0
EXTRACT: note_on channel=0 note=54 velocity=95 time=0
EXTRACT: note_on channel=0 note=47 velocity=95 time=0
EXTRACT: note_on channel=8 note=30 velocity=127 time=0
EXTRACT: note_off channel=3 note=78 velocity=127 time=0
EXTRACT: note_off channel=3 note=73 velocity=127 time=0
EXTRACT: note_on channel=3 note=80 velocity=127 time=0
EXTRACT: note_on channel=3 note=75 velocity=127 time=0
EXTRACT: note_off channel=4 note=70 velocity=95 time=0
EXTRACT: note_off channel=4 note=66 velocity=95 time=0
EXTRACT: note_off channel=4 note=61 velocity=95 time=0
EXTRACT: note_off channel=4 note=58 velocity=95 time=0
EXTRACT: note_on channel=4 note=71 velocity=95 time=0
EXTRACT: note_on channel=4 note=66 velocity=95 time=0
EXTRACT: note_on channel=4 note=63 velocity=95 time=0
EXTRACT: note_on channel=4 note=59 velocity=95 time=0
EXTRACT: note_off channel=5 note=70 velocity=95 time=0
EXTRACT: note_off channel=5 note=66 velocity=95 time=0
EXTRACT: note_off channel=5 note=61 velocity=95 time=0
EXTRACT: note_off channel=5 note=58 velocity=95 time=0
EXTRACT: note_on channel=5 note=71 velocity=95 time=0
EXTRACT: note_on channel=5 note=66 velocity=95 time=0
EXTRACT: note_on channel=5 note=63 velocity=95 time=0
EXTRACT: note_on channel=5 note=59 velocity=95 time=0
EXTRACT: note_off channel=9 note=54 velocity=127 time=0
EXTRACT: note_on channel=9 note=44 velocity=127 time=0
EXTRACT: note_on channel=9 note=81 velocity=127 time=0
EXTRACT: note_on channel=9 note=54 velocity=127 time=0
EXTRACT: note_off channel=9 note=44 velocity=127 time=0.1339285
EXTRACT: note_off channel=9 note=81 velocity=127 time=0
EXTRACT: note_off channel=9 note=54 velocity=127 time=0
EXTRACT: note_on channel=9 note=54 velocity=127 time=0
EXTRACT: note_off channel=8 note=30 velocity=127 time=0.1339285
EXTRACT: note_on channel=8 note=32 velocity=127 time=0
EXTRACT: note_off channel=3 note=80 velocity=127 time=0
EXTRACT: note_off channel=3 note=75 velocity=127 time=0
EXTRACT: note_on channel=3 note=78 velocity=127 time=0
EXTRACT: note_on channel=3 note=75 velocity=127 time=0
EXTRACT: note_on channel=6 note=78 velocity=95 time=0
EXTRACT: note_off channel=9 note=54 velocity=127 time=0
EXTRACT: note_on channel=9 note=44 velocity=127 time=0
EXTRACT: note_on channel=9 note=54 velocity=127 time=0
EXTRACT: note_on channel=9 note=35 velocity=127 time=0
EXTRACT: note_off channel=9 note=44 velocity=127 time=0.1339285
EXTRACT: note_off channel=9 note=54 velocity=127 time=0
EXTRACT: note_off channel=9 note=35 velocity=127 time=0
EXTRACT: note_on channel=9 note=54 velocity=127 time=0
EXTRACT: note_off channel=6 note=78 velocity=95 time=0.06696425
EXTRACT: note_off channel=8 note=32 velocity=127 time=0.06696425
EXTRACT: note_off channel=3 note=78 velocity=127 time=0
EXTRACT: note_off channel=3 note=75 velocity=127 time=0
EXTRACT: note_on channel=3 note=75 velocity=127 time=0
EXTRACT: note_off channel=9 note=54 velocity=127 time=0
EXTRACT: note_on channel=9 note=44 velocity=127 time=0
EXTRACT: note_on channel=9 note=81 velocity=127 time=0
EXTRACT: note_on channel=9 note=54 velocity=127 time=0
EXTRACT: note_off channel=9 note=44 velocity=127 time=0.1339285
EXTRACT: note_off channel=9 note=81 velocity=127 time=0
EXTRACT: note_off channel=9 note=54 velocity=127 time=0
EXTRACT: note_on channel=9 note=54 velocity=127 time=0
EXTRACT: note_on channel=2 note=78 velocity=127 time=0.1339285
EXTRACT: note_on channel=2 note=75 velocity=127 time=0
EXTRACT: note_on channel=2 note=70 velocity=95 time=0
EXTRACT: note_off channel=3 note=75 velocity=127 time=0
EXTRACT: note_on channel=6 note=78 velocity=95 time=0
EXTRACT: note_off channel=9 note=54 velocity=127 time=0
EXTRACT: note_on channel=9 note=38 velocity=127 time=0
EXTRACT: note_on channel=9 note=39 velocity=95 time=0
EXTRACT: note_on channel=9 note=54 velocity=127 time=0
EXTRACT: note_off channel=9 note=38 velocity=127 time=0.1339285
EXTRACT: note_off channel=9 note=39 velocity=95 time=0
EXTRACT: note_off channel=9 note=54 velocity=127 time=0
EXTRACT: note_on channel=9 note=54 velocity=127 time=0
EXTRACT: note_off channel=6 note=78 velocity=95 time=0.06696425
EXTRACT: note_off channel=2 note=78 velocity=127 time=0.06696425
EXTRACT: note_off channel=2 note=75 velocity=127 time=0
EXTRACT: note_off channel=2 note=70 velocity=95 time=0
EXTRACT: note_on channel=8 note=32 velocity=127 time=0
EXTRACT: note_off channel=9 note=54 velocity=127 time=0
EXTRACT: note_on channel=9 note=44 velocity=127 time=0
EXTRACT: note_on channel=9 note=81 velocity=127 time=0
EXTRACT: note_on channel=9 note=54 velocity=127 time=0
EXTRACT: note_on channel=3 note=71 velocity=127 time=0.1339285
EXTRACT: note_off channel=9 note=44 velocity=127 time=0
EXTRACT: note_off channel=9 note=81 velocity=127 time=0
EXTRACT: note_off channel=9 note=54 velocity=127 time=0
EXTRACT: note_on channel=9 note=44 velocity=127 time=0
EXTRACT: note_on channel=9 note=54 velocity=127 time=0
EXTRACT: note_off channel=0 note=59 velocity=95 time=0.1339285
EXTRACT: note_off channel=0 note=54 velocity=95 time=0
EXTRACT: note_off channel=0 note=47 velocity=95 time=0
EXTRACT: note_on channel=0 note=52 velocity=95 time=0
EXTRACT: note_on channel=0 note=47 velocity=95 time=0
EXTRACT: note_on channel=0 note=40 velocity=95 time=0
EXTRACT: note_off channel=8 note=32 velocity=127 time=0
EXTRACT: note_on channel=8 note=27 velocity=127 time=0
EXTRACT: note_off channel=3 note=71 velocity=127 time=0
EXTRACT: note_on channel=3 note=73 velocity=127 time=0
EXTRACT: note_off channel=4 note=71 velocity=95 time=0
EXTRACT: note_off channel=4 note=66 velocity=95 time=0
EXTRACT: note_off channel=4 note=63 velocity=95 time=0
EXTRACT: note_off channel=4 note=59 velocity=95 time=0
EXTRACT: note_on channel=4 note=68 velocity=95 time=0
EXTRACT: note_on channel=4 note=64 velocity=95 time=0
EXTRACT: note_on channel=4 note=59 velocity=95 time=0
EXTRACT: note_on channel=4 note=56 velocity=95 time=0
EXTRACT: note_off channel=5 note=71 velocity=95 time=0
EXTRACT: note_off channel=5 note=66 velocity=95 time=0
EXTRACT: note_off channel=5 note=63 velocity=95 time=0
EXTRACT: note_off channel=5 note=59 velocity=95 time=0
EXTRACT: note_on channel=5 note=68 velocity=95 time=0
EXTRACT: note_on channel=5 note=64 velocity=95 time=0
EXTRACT: note_on channel=5 note=59 velocity=95 time=0
EXTRACT: note_on channel=5 note=56 velocity=95 time=0
EXTRACT: note_on channel=6 note=78 velocity=95 time=0
EXTRACT: note_off channel=9 note=44 velocity=127 time=0
EXTRACT: note_off channel=9 note=54 velocity=127 time=0
EXTRACT: note_on channel=9 note=44 velocity=127 time=0
EXTRACT: note_on channel=9 note=54 velocity=127 time=0
EXTRACT: note_on channel=9 note=35 velocity=127 time=0
EXTRACT: note_off channel=3 note=73 velocity=127 time=0.1339285
EXTRACT: note_on channel=3 note=71 velocity=127 time=0
EXTRACT: note_off channel=9 note=44 velocity=127 time=0
EXTRACT: note_off channel=9 note=54 velocity=127 time=0
EXTRACT: note_off channel=9 note=35 velocity=127 time=0
EXTRACT: note_on channel=9 note=54 velocity=127 time=0
EXTRACT: note_off channel=6 note=78 velocity=95 time=0.06696425
EXTRACT: note_off channel=8 note=27 velocity=127 time=0.06696425
EXTRACT: note_off channel=3 note=71 velocity=127 time=0
EXTRACT: note_on channel=3 note=73 velocity=127 time=0
EXTRACT: note_off channel=9 note=54 velocity=127 time=0
EXTRACT: note_on channel=9 note=44 velocity=127 time=0
EXTRACT: note_on channel=9 note=81 velocity=127 time=0
EXTRACT: note_on channel=9 note=54 velocity=127 time=0
EXTRACT: note_off channel=9 note=44 velocity=127 time=0.1339285
EXTRACT: note_off channel=9 note=81 velocity=127 time=0
EXTRACT: note_off channel=9 note=54 velocity=127 time=0
EXTRACT: note_on channel=9 note=54 velocity=127 time=0
EXTRACT: note_off channel=3 note=73 velocity=127 time=0.1339285
EXTRACT: note_on channel=3 note=73 velocity=127 time=0
EXTRACT: note_on channel=6 note=78 velocity=95 time=0
EXTRACT: note_off channel=9 note=54 velocity=127 time=0
EXTRACT: note_on channel=9 note=38 velocity=127 time=0
EXTRACT: note_on channel=9 note=39 velocity=95 time=0
EXTRACT: note_on channel=9 note=54 velocity=127 time=0
EXTRACT: note_off channel=9 note=38 velocity=127 time=0.1339285
EXTRACT: note_off channel=9 note=39 velocity=95 time=0
EXTRACT: note_off channel=9 note=54 velocity=127 time=0
EXTRACT: note_on channel=9 note=54 velocity=127 time=0
EXTRACT: note_off channel=6 note=78 velocity=95 time=0.06696425
EXTRACT: note_off channel=0 note=52 velocity=95 time=0.06696425
EXTRACT: note_off channel=0 note=47 velocity=95 time=0
EXTRACT: note_off channel=0 note=40 velocity=95 time=0
EXTRACT: note_on channel=0 note=59 velocity=95 time=0
EXTRACT: note_on channel=0 note=54 velocity=95 time=0
EXTRACT: note_on channel=0 note=47 velocity=95 time=0
EXTRACT: note_on channel=8 note=27 velocity=127 time=0
EXTRACT: note_off channel=3 note=73 velocity=127 time=0
EXTRACT: note_on channel=3 note=71 velocity=127 time=0
EXTRACT: note_off channel=4 note=68 velocity=95 time=0
EXTRACT: note_off channel=4 note=64 velocity=95 time=0
EXTRACT: note_off channel=4 note=59 velocity=95 time=0
EXTRACT: note_off channel=4 note=56 velocity=95 time=0
EXTRACT: note_on channel=4 note=71 velocity=95 time=0
EXTRACT: note_on channel=4 note=66 velocity=95 time=0
EXTRACT: note_on channel=4 note=63 velocity=95 time=0
EXTRACT: note_on channel=4 note=59 velocity=95 time=0
EXTRACT: note_off channel=5 note=68 velocity=95 time=0
EXTRACT: note_off channel=5 note=64 velocity=95 time=0
EXTRACT: note_off channel=5 note=59 velocity=95 time=0
EXTRACT: note_off channel=5 note=56 velocity=95 time=0
EXTRACT: note_on channel=5 note=71 velocity=95 time=0
EXTRACT: note_on channel=5 note=66 velocity=95 time=0
EXTRACT: note_on channel=5 note=63 velocity=95 time=0
EXTRACT: note_on channel=5 note=59 velocity=95 time=0
EXTRACT: note_off channel=9 note=54 velocity=127 time=0
EXTRACT: note_on channel=9 note=44 velocity=127 time=0
EXTRACT: note_on channel=9 note=81 velocity=127 time=0
EXTRACT: note_on channel=9 note=54 velocity=127 time=0
EXTRACT: note_off channel=9 note=44 velocity=127 time=0.1339285
EXTRACT: note_off channel=9 note=81 velocity=127 time=0
EXTRACT: note_off channel=9 note=54 velocity=127 time=0
EXTRACT: note_on channel=9 note=54 velocity=127 time=0
EXTRACT: note_off channel=8 note=27 velocity=127 time=0.1339285
EXTRACT: note_on channel=8 note=35 velocity=127 time=0
EXTRACT: note_off channel=3 note=71 velocity=127 time=0
EXTRACT: note_on channel=3 note=83 velocity=127 time=0
EXTRACT: note_on channel=3 note=75 velocity=127 time=0
EXTRACT: note_on channel=6 note=78 velocity=95 time=0
EXTRACT: note_off channel=9 note=54 velocity=127 time=0
EXTRACT: note_on channel=9 note=44 velocity=127 time=0
EXTRACT: note_on channel=9 note=54 velocity=127 time=0
EXTRACT: note_on channel=9 note=35 velocity=127 time=0
EXTRACT: note_off channel=8 note=35 velocity=127 time=0.1339285
EXTRACT: note_on channel=8 note=30 velocity=127 time=0
EXTRACT: note_off channel=3 note=83 velocity=127 time=0
EXTRACT: note_off channel=3 note=75 velocity=127 time=0
EXTRACT: note_on channel=3 note=83 velocity=127 time=0
EXTRACT: note_off channel=9 note=44 velocity=127 time=0
EXTRACT: note_off channel=9 note=54 velocity=127 time=0
EXTRACT: note_off channel=9 note=35 velocity=127 time=0
EXTRACT: note_on channel=9 note=54 velocity=127 time=0
EXTRACT: note_off channel=6 note=78 velocity=95 time=0.06696425
EXTRACT: note_off channel=3 note=83 velocity=127 time=0.06696425
EXTRACT: note_on channel=3 note=83 velocity=127 time=0
EXTRACT: note_off channel=9 note=54 velocity=127 time=0
EXTRACT: note_on channel=9 note=44 velocity=127 time=0
EXTRACT: note_on channel=9 note=81 velocity=127 time=0
EXTRACT: note_on channel=9 note=54 velocity=127 time=0
EXTRACT: note_off channel=8 note=30 velocity=127 time=0.1339285
EXTRACT: note_on channel=8 note=35 velocity=127 time=0
EXTRACT: note_off channel=9 note=44 velocity=127 time=0
EXTRACT: note_off channel=9 note=81 velocity=127 time=0
EXTRACT: note_off channel=9 note=54 velocity=127 time=0
EXTRACT: note_on channel=9 note=54 velocity=127 time=0
EXTRACT: note_on channel=2 note=78 velocity=127 time=0.1339285
EXTRACT: note_on channel=2 note=75 velocity=127 time=0
EXTRACT: note_on channel=2 note=70 velocity=95 time=0
EXTRACT: note_off channel=8 note=35 velocity=127 time=0
EXTRACT: note_on channel=8 note=30 velocity=127 time=0
EXTRACT: note_off channel=3 note=83 velocity=127 time=0
EXTRACT: note_on channel=3 note=83 velocity=127 time=0
EXTRACT: note_on channel=6 note=78 velocity=95 time=0
EXTRACT: note_off channel=9 note=54 velocity=127 time=0
EXTRACT: note_on channel=9 note=38 velocity=127 time=0
EXTRACT: note_on channel=9 note=39 velocity=95 time=0
EXTRACT: note_on channel=9 note=54 velocity=127 time=0
EXTRACT: note_off channel=9 note=38 velocity=127 time=0.1339285
EXTRACT: note_off channel=9 note=39 velocity=95 time=0
EXTRACT: note_off channel=9 note=54 velocity=127 time=0
EXTRACT: note_on channel=9 note=54 velocity=127 time=0
EXTRACT: note_off channel=6 note=78 velocity=95 time=0.06696425
EXTRACT: note_off channel=2 note=78 velocity=127 time=0.06696425
EXTRACT: note_off channel=2 note=75 velocity=127 time=0
EXTRACT: note_off channel=2 note=70 velocity=95 time=0
EXTRACT: note_off channel=8 note=30 velocity=127 time=0
EXTRACT: note_on channel=8 note=35 velocity=127 time=0
EXTRACT: note_off channel=3 note=83 velocity=127 time=0
EXTRACT: note_on channel=3 note=83 velocity=127 time=0
EXTRACT: note_off channel=9 note=54 velocity=127 time=0
EXTRACT: note_on channel=9 note=44 velocity=127 time=0
EXTRACT: note_on channel=9 note=81 velocity=127 time=0
EXTRACT: note_on channel=9 note=54 velocity=127 time=0
EXTRACT: note_off channel=9 note=44 velocity=127 time=0.1339285
EXTRACT: note_off channel=9 note=81 velocity=127 time=0
EXTRACT: note_off channel=9 note=54 velocity=127 time=0
EXTRACT: note_on channel=9 note=44 velocity=127 time=0
EXTRACT: note_on channel=9 note=54 velocity=127 time=0
EXTRACT: note_off channel=0 note=59 velocity=95 time=0.1339285
EXTRACT: note_off channel=0 note=54 velocity=95 time=0
EXTRACT: note_off channel=0 note=47 velocity=95 time=0
EXTRACT: note_on channel=0 note=54 velocity=95 time=0
EXTRACT: note_on channel=0 note=49 velocity=95 time=0
EXTRACT: note_on channel=0 note=42 velocity=95 time=0
EXTRACT: note_off channel=8 note=35 velocity=127 time=0
EXTRACT: note_on channel=8 note=30 velocity=127 time=0
EXTRACT: note_off channel=3 note=83 velocity=127 time=0
EXTRACT: note_on channel=3 note=82 velocity=127 time=0
EXTRACT: note_on channel=3 note=78 velocity=127 time=0
EXTRACT: note_on channel=3 note=73 velocity=127 time=0
EXTRACT: note_off channel=4 note=71 velocity=95 time=0
EXTRACT: note_off channel=4 note=66 velocity=95 time=0
EXTRACT: note_off channel=4 note=63 velocity=95 time=0
EXTRACT: note_off channel=4 note=59 velocity=95 time=0
EXTRACT: note_on channel=4 note=70 velocity=95 time=0
EXTRACT: note_on channel=4 note=66 velocity=95 time=0
EXTRACT: note_on channel=4 note=61 velocity=95 time=0
EXTRACT: note_on channel=4 note=58 velocity=95 time=0
EXTRACT: note_off channel=5 note=71 velocity=95 time=0
EXTRACT: note_off channel=5 note=66 velocity=95 time=0
EXTRACT: note_off channel=5 note=63 velocity=95 time=0
EXTRACT: note_off channel=5 note=59 velocity=95 time=0
EXTRACT: note_on channel=5 note=70 velocity=95 time=0
EXTRACT: note_on channel=5 note=66 velocity=95 time=0
EXTRACT: note_on channel=5 note=61 velocity=95 time=0
EXTRACT: note_on channel=5 note=58 velocity=95 time=0
EXTRACT: note_on channel=6 note=78 velocity=95 time=0
EXTRACT: note_off channel=9 note=44 velocity=127 time=0
EXTRACT: note_off channel=9 note=54 velocity=127 time=0
EXTRACT: note_on channel=9 note=44 velocity=127 time=0
EXTRACT: note_on channel=9 note=54 velocity=127 time=0
EXTRACT: note_on channel=9 note=35 velocity=127 time=0
EXTRACT: note_off channel=9 note=44 velocity=127 time=0.1339285
EXTRACT: note_off channel=9 note=54 velocity=127 time=0
EXTRACT: note_off channel=9 note=35 velocity=127 time=0
EXTRACT: note_on channel=9 note=54 velocity=127 time=0
EXTRACT: note_off channel=6 note=78 velocity=95 time=0.06696425
EXTRACT: note_off channel=8 note=30 velocity=127 time=0.06696425
EXTRACT: note_off channel=3 note=82 velocity=127 time=0
EXTRACT: note_off channel=3 note=78 velocity=127 time=0
EXTRACT: note_off channel=3 note=73 velocity=127 time=0
EXTRACT: note_on channel=3 note=80 velocity=127 time=0
EXTRACT: note_on channel=3 note=78 velocity=127 time=0
EXTRACT: note_on channel=3 note=73 velocity=127 time=0
EXTRACT: note_off channel=9 note=54 velocity=127 time=0
EXTRACT: note_on channel=9 note=44 velocity=127 time=0
EXTRACT: note_on channel=9 note=81 velocity=127 time=0
EXTRACT: note_on channel=9 note=54 velocity=127 time=0
EXTRACT: note_off channel=9 note=44 velocity=127 time=0.1339285
EXTRACT: note_off channel=9 note=81 velocity=127 time=0
EXTRACT: note_off channel=9 note=54 velocity=127 time=0
EXTRACT: note_on channel=9 note=54 velocity=127 time=0
EXTRACT: note_off channel=3 note=80 velocity=127 time=0.1339285
EXTRACT: note_off channel=3 note=78 velocity=127 time=0
EXTRACT: note_off channel=3 note=73 velocity=127 time=0
EXTRACT: note_on channel=3 note=78 velocity=127 time=0
EXTRACT: note_on channel=3 note=78 velocity=127 time=0
EXTRACT: note_on channel=3 note=73 velocity=127 time=0
EXTRACT: note_on channel=6 note=78 velocity=95 time=0
EXTRACT: note_off channel=9 note=54 velocity=127 time=0
EXTRACT: note_on channel=9 note=38 velocity=127 time=0
EXTRACT: note_on channel=9 note=39 velocity=95 time=0
EXTRACT: note_on channel=9 note=54 velocity=127 time=0
EXTRACT: note_off channel=9 note=38 velocity=127 time=0.1339285
EXTRACT: note_off channel=9 note=39 velocity=95 time=0
EXTRACT: note_off channel=9 note=54 velocity=127 time=0
EXTRACT: note_on channel=9 note=54 velocity=127 time=0
EXTRACT: note_off channel=6 note=78 velocity=95 time=0.06696425
EXTRACT: note_off channel=0 note=54 velocity=95 time=0.06696425
EXTRACT: note_off channel=0 note=49 velocity=95 time=0
EXTRACT: note_off channel=0 note=42 velocity=95 time=0
EXTRACT: note_on channel=0 note=59 velocity=95 time=0
EXTRACT: note_on channel=0 note=54 velocity=95 time=0
EXTRACT: note_on channel=0 note=47 velocity=95 time=0
EXTRACT: note_on channel=8 note=30 velocity=127 time=0
EXTRACT: note_off channel=3 note=78 velocity=127 time=0
EXTRACT: note_off channel=3 note=78 velocity=127 time=0
EXTRACT: note_off channel=3 note=73 velocity=127 time=0
EXTRACT: note_on channel=3 note=80 velocity=127 time=0
EXTRACT: note_on channel=3 note=75 velocity=127 time=0
EXTRACT: note_off channel=4 note=70 velocity=95 time=0
EXTRACT: note_off channel=4 note=66 velocity=95 time=0
EXTRACT: note_off channel=4 note=61 velocity=95 time=0
EXTRACT: note_off channel=4 note=58 velocity=95 time=0
EXTRACT: note_on channel=4 note=71 velocity=95 time=0
EXTRACT: note_on channel=4 note=66 velocity=95 time=0
EXTRACT: note_on channel=4 note=63 velocity=95 time=0
EXTRACT: note_on channel=4 note=59 velocity=95 time=0
EXTRACT: note_off channel=5 note=70 velocity=95 time=0
EXTRACT: note_off channel=5 note=66 velocity=95 time=0
EXTRACT: note_off channel=5 note=61 velocity=95 time=0
EXTRACT: note_off channel=5 note=58 velocity=95 time=0
EXTRACT: note_on channel=5 note=71 velocity=95 time=0
EXTRACT: note_on channel=5 note=66 velocity=95 time=0
EXTRACT: note_on channel=5 note=63 velocity=95 time=0
EXTRACT: note_on channel=5 note=59 velocity=95 time=0
EXTRACT: note_off channel=9 note=54 velocity=127 time=0
EXTRACT: note_on channel=9 note=44 velocity=127 time=0
EXTRACT: note_on channel=9 note=81 velocity=127 time=0
EXTRACT: note_on channel=9 note=54 velocity=127 time=0
EXTRACT: note_off channel=9 note=44 velocity=127 time=0.1339285
EXTRACT: note_off channel=9 note=81 velocity=127 time=0
EXTRACT: note_off channel=9 note=54 velocity=127 time=0
EXTRACT: note_on channel=9 note=54 velocity=127 time=0
EXTRACT: note_off channel=8 note=30 velocity=127 time=0.1339285
EXTRACT: note_on channel=8 note=32 velocity=127 time=0
EXTRACT: note_off channel=3 note=80 velocity=127 time=0
EXTRACT: note_off channel=3 note=75 velocity=127 time=0
EXTRACT: note_on channel=3 note=78 velocity=127 time=0
EXTRACT: note_on channel=3 note=75 velocity=127 time=0
EXTRACT: note_on channel=6 note=78 velocity=95 time=0
EXTRACT: note_off channel=9 note=54 velocity=127 time=0
EXTRACT: note_on channel=9 note=44 velocity=127 time=0
EXTRACT: note_on channel=9 note=54 velocity=127 time=0
EXTRACT: note_on channel=9 note=35 velocity=127 time=0
EXTRACT: note_off channel=9 note=44 velocity=127 time=0.1339285
EXTRACT: note_off channel=9 note=54 velocity=127 time=0
EXTRACT: note_off channel=9 note=35 velocity=127 time=0
EXTRACT: note_on channel=9 note=54 velocity=127 time=0
EXTRACT: note_off channel=6 note=78 velocity=95 time=0.06696425
EXTRACT: note_off channel=8 note=32 velocity=127 time=0.06696425
EXTRACT: note_off channel=3 note=78 velocity=127 time=0
EXTRACT: note_off channel=3 note=75 velocity=127 time=0
EXTRACT: note_on channel=3 note=75 velocity=127 time=0
EXTRACT: note_off channel=9 note=54 velocity=127 time=0
EXTRACT: note_on channel=9 note=44 velocity=127 time=0
EXTRACT: note_on channel=9 note=81 velocity=127 time=0
EXTRACT: note_on channel=9 note=54 velocity=127 time=0
EXTRACT: note_off channel=9 note=44 velocity=127 time=0.1339285
EXTRACT: note_off channel=9 note=81 velocity=127 time=0
EXTRACT: note_off channel=9 note=54 velocity=127 time=0
EXTRACT: note_on channel=9 note=54 velocity=127 time=0
EXTRACT: note_on channel=2 note=78 velocity=127 time=0.1339285
EXTRACT: note_on channel=2 note=75 velocity=127 time=0
EXTRACT: note_on channel=2 note=70 velocity=95 time=0
EXTRACT: note_off channel=3 note=75 velocity=127 time=0
EXTRACT: note_on channel=6 note=78 velocity=95 time=0
EXTRACT: note_off channel=9 note=54 velocity=127 time=0
EXTRACT: note_on channel=9 note=38 velocity=127 time=0
EXTRACT: note_on channel=9 note=39 velocity=95 time=0
EXTRACT: note_on channel=9 note=54 velocity=127 time=0
EXTRACT: note_off channel=9 note=38 velocity=127 time=0.1339285
EXTRACT: note_off channel=9 note=39 velocity=95 time=0
EXTRACT: note_off channel=9 note=54 velocity=127 time=0
EXTRACT: note_on channel=9 note=54 velocity=127 time=0
EXTRACT: note_off channel=6 note=78 velocity=95 time=0.06696425
EXTRACT: note_off channel=2 note=78 velocity=127 time=0.06696425
EXTRACT: note_off channel=2 note=75 velocity=127 time=0
EXTRACT: note_off channel=2 note=70 velocity=95 time=0
EXTRACT: note_on channel=8 note=32 velocity=127 time=0
EXTRACT: note_off channel=9 note=54 velocity=127 time=0
EXTRACT: note_on channel=9 note=44 velocity=127 time=0
EXTRACT: note_on channel=9 note=81 velocity=127 time=0
EXTRACT: note_on channel=9 note=54 velocity=127 time=0
EXTRACT: note_on channel=3 note=83 velocity=127 time=0.1339285
EXTRACT: note_on channel=3 note=75 velocity=127 time=0
EXTRACT: note_off channel=9 note=44 velocity=127 time=0
EXTRACT: note_off channel=9 note=81 velocity=127 time=0
EXTRACT: note_off channel=9 note=54 velocity=127 time=0
EXTRACT: note_on channel=9 note=44 velocity=127 time=0
EXTRACT: note_on channel=9 note=54 velocity=127 time=0
EXTRACT: note_off channel=0 note=59 velocity=95 time=0.1339285
EXTRACT: note_off channel=0 note=54 velocity=95 time=0
EXTRACT: note_off channel=0 note=47 velocity=95 time=0
EXTRACT: note_on channel=0 note=52 velocity=95 time=0
EXTRACT: note_on channel=0 note=47 velocity=95 time=0
EXTRACT: note_on channel=0 note=40 velocity=95 time=0
EXTRACT: note_off channel=8 note=32 velocity=127 time=0
EXTRACT: note_on channel=8 note=27 velocity=127 time=0
EXTRACT: note_off channel=4 note=71 velocity=95 time=0
EXTRACT: note_off channel=4 note=66 velocity=95 time=0
EXTRACT: note_off channel=4 note=63 velocity=95 time=0
EXTRACT: note_off channel=4 note=59 velocity=95 time=0
EXTRACT: note_on channel=4 note=68 velocity=95 time=0
EXTRACT: note_on channel=4 note=64 velocity=95 time=0
EXTRACT: note_on channel=4 note=59 velocity=95 time=0
EXTRACT: note_on channel=4 note=56 velocity=95 time=0
EXTRACT: note_off channel=5 note=71 velocity=95 time=0
EXTRACT: note_off channel=5 note=66 velocity=95 time=0
EXTRACT: note_off channel=5 note=63 velocity=95 time=0
EXTRACT: note_off channel=5 note=59 velocity=95 time=0
EXTRACT: note_on channel=5 note=68 velocity=95 time=0
EXTRACT: note_on channel=5 note=64 velocity=95 time=0
EXTRACT: note_on channel=5 note=59 velocity=95 time=0
EXTRACT: note_on channel=5 note=56 velocity=95 time=0
EXTRACT: note_on channel=6 note=78 velocity=95 time=0
EXTRACT: note_off channel=9 note=44 velocity=127 time=0
EXTRACT: note_off channel=9 note=54 velocity=127 time=0
EXTRACT: note_on channel=9 note=44 velocity=127 time=0
EXTRACT: note_on channel=9 note=54 velocity=127 time=0
EXTRACT: note_on channel=9 note=35 velocity=127 time=0
EXTRACT: note_off channel=9 note=44 velocity=127 time=0.1339285
EXTRACT: note_off channel=9 note=54 velocity=127 time=0
EXTRACT: note_off channel=9 note=35 velocity=127 time=0
EXTRACT: note_on channel=9 note=54 velocity=127 time=0
EXTRACT: note_off channel=6 note=78 velocity=95 time=0.06696425
EXTRACT: note_off channel=8 note=27 velocity=127 time=0.06696425
EXTRACT: note_off channel=3 note=83 velocity=127 time=0
EXTRACT: note_off channel=3 note=75 velocity=127 time=0
EXTRACT: note_on channel=3 note=83 velocity=127 time=0
EXTRACT: note_on channel=3 note=75 velocity=127 time=0
EXTRACT: note_off channel=9 note=54 velocity=127 time=0
EXTRACT: note_on channel=9 note=44 velocity=127 time=0
EXTRACT: note_on channel=9 note=81 velocity=127 time=0
EXTRACT: note_on channel=9 note=54 velocity=127 time=0
EXTRACT: note_off channel=9 note=44 velocity=127 time=0.1339285
EXTRACT: note_off channel=9 note=81 velocity=127 time=0
EXTRACT: note_off channel=9 note=54 velocity=127 time=0
EXTRACT: note_on channel=9 note=54 velocity=127 time=0
EXTRACT: note_off channel=3 note=83 velocity=127 time=0.1339285
EXTRACT: note_off channel=3 note=75 velocity=127 time=0
EXTRACT: note_on channel=3 note=82 velocity=127 time=0
EXTRACT: note_on channel=3 note=73 velocity=127 time=0
EXTRACT: note_on channel=6 note=78 velocity=95 time=0
EXTRACT: note_off channel=9 note=54 velocity=127 time=0
EXTRACT: note_on channel=9 note=38 velocity=127 time=0
EXTRACT: note_on channel=9 note=39 velocity=95 time=0
EXTRACT: note_on channel=9 note=54 velocity=127 time=0
EXTRACT: note_off channel=9 note=38 velocity=127 time=0.1339285
EXTRACT: note_off channel=9 note=39 velocity=95 time=0
EXTRACT: note_off channel=9 note=54 velocity=127 time=0
EXTRACT: note_on channel=9 note=54 velocity=127 time=0
EXTRACT: note_off channel=6 note=78 velocity=95 time=0.06696425
EXTRACT: note_off channel=0 note=52 velocity=95 time=0.06696425
EXTRACT: note_off channel=0 note=47 velocity=95 time=0
EXTRACT: note_off channel=0 note=40 velocity=95 time=0
EXTRACT: note_on channel=0 note=59 velocity=95 time=0
EXTRACT: note_on channel=0 note=54 velocity=95 time=0
EXTRACT: note_on channel=0 note=47 velocity=95 time=0
EXTRACT: note_on channel=8 note=27 velocity=127 time=0
EXTRACT: note_off channel=3 note=82 velocity=127 time=0
EXTRACT: note_off channel=3 note=73 velocity=127 time=0
EXTRACT: note_on channel=3 note=78 velocity=127 time=0
EXTRACT: note_on channel=3 note=71 velocity=127 time=0
EXTRACT: note_off channel=4 note=68 velocity=95 time=0
EXTRACT: note_off channel=4 note=64 velocity=95 time=0
EXTRACT: note_off channel=4 note=59 velocity=95 time=0
EXTRACT: note_off channel=4 note=56 velocity=95 time=0
EXTRACT: note_on channel=4 note=71 velocity=95 time=0
EXTRACT: note_on channel=4 note=66 velocity=95 time=0
EXTRACT: note_on channel=4 note=63 velocity=95 time=0
EXTRACT: note_on channel=4 note=59 velocity=95 time=0
EXTRACT: note_off channel=5 note=68 velocity=95 time=0
EXTRACT: note_off channel=5 note=64 velocity=95 time=0
EXTRACT: note_off channel=5 note=59 velocity=95 time=0
EXTRACT: note_off channel=5 note=56 velocity=95 time=0
EXTRACT: note_on channel=5 note=71 velocity=95 time=0
EXTRACT: note_on channel=5 note=66 velocity=95 time=0
EXTRACT: note_on channel=5 note=63 velocity=95 time=0
EXTRACT: note_on channel=5 note=59 velocity=95 time=0
EXTRACT: note_off channel=9 note=54 velocity=127 time=0
EXTRACT: note_on channel=9 note=44 velocity=127 time=0
EXTRACT: note_on channel=9 note=81 velocity=127 time=0
EXTRACT: note_on channel=9 note=54 velocity=127 time=0
EXTRACT: note_off channel=9 note=44 velocity=127 time=0.1339285
EXTRACT: note_off channel=9 note=81 velocity=127 time=0
EXTRACT: note_off channel=9 note=54 velocity=127 time=0
EXTRACT: note_on channel=9 note=54 velocity=127 time=0
EXTRACT: note_off channel=8 note=27 velocity=127 time=0.1339285
EXTRACT: note_on channel=8 note=35 velocity=127 time=0
EXTRACT: note_off channel=3 note=78 velocity=127 time=0
EXTRACT: note_off channel=3 note=71 velocity=127 time=0
EXTRACT: note_on channel=3 note=80 velocity=127 time=0
EXTRACT: note_on channel=3 note=71 velocity=127 time=0
EXTRACT: note_on channel=6 note=78 velocity=95 time=0
EXTRACT: note_off channel=9 note=54 velocity=127 time=0
EXTRACT: note_on channel=9 note=44 velocity=127 time=0
EXTRACT: note_on channel=9 note=54 velocity=127 time=0
EXTRACT: note_on channel=9 note=35 velocity=127 time=0
EXTRACT: note_off channel=8 note=35 velocity=127 time=0.1339285
EXTRACT: note_on channel=8 note=30 velocity=127 time=0
EXTRACT: note_off channel=9 note=44 velocity=127 time=0
EXTRACT: note_off channel=9 note=54 velocity=127 time=0
EXTRACT: note_off channel=9 note=35 velocity=127 time=0
EXTRACT: note_on channel=9 note=54 velocity=127 time=0
EXTRACT: note_off channel=6 note=78 velocity=95 time=0.06696425
EXTRACT: note_off channel=3 note=80 velocity=127 time=0.06696425
EXTRACT: note_off channel=3 note=71 velocity=127 time=0
EXTRACT: note_on channel=3 note=82 velocity=127 time=0
EXTRACT: note_off channel=9 note=54 velocity=127 time=0
EXTRACT: note_on channel=9 note=44 velocity=127 time=0
EXTRACT: note_on channel=9 note=81 velocity=127 time=0
EXTRACT: note_on channel=9 note=54 velocity=127 time=0
EXTRACT: note_off channel=8 note=30 velocity=127 time=0.1339285
EXTRACT: note_on channel=8 note=35 velocity=127 time=0
EXTRACT: note_off channel=3 note=82 velocity=127 time=0
EXTRACT: note_on channel=3 note=80 velocity=127 time=0
EXTRACT: note_off channel=9 note=44 velocity=127 time=0
EXTRACT: note_off channel=9 note=81 velocity=127 time=0
EXTRACT: note_off channel=9 note=54 velocity=127 time=0
EXTRACT: note_on channel=9 note=54 velocity=127 time=0
EXTRACT: note_on channel=2 note=78 velocity=127 time=0.1339285
EXTRACT: note_on channel=2 note=75 velocity=127 time=0
EXTRACT: note_on channel=2 note=70 velocity=95 time=0
EXTRACT: note_off channel=8 note=35 velocity=127 time=0
EXTRACT: note_on channel=8 note=30 velocity=127 time=0
EXTRACT: note_off channel=3 note=80 velocity=127 time=0
EXTRACT: note_on channel=3 note=78 velocity=127 time=0
EXTRACT: note_on channel=6 note=78 velocity=95 time=0
EXTRACT: note_off channel=9 note=54 velocity=127 time=0
EXTRACT: note_on channel=9 note=38 velocity=127 time=0
EXTRACT: note_on channel=9 note=39 velocity=95 time=0
EXTRACT: note_on channel=9 note=54 velocity=127 time=0
EXTRACT: note_off channel=9 note=38 velocity=127 time=0.1339285
EXTRACT: note_off channel=9 note=39 velocity=95 time=0
EXTRACT: note_off channel=9 note=54 velocity=127 time=0
EXTRACT: note_on channel=9 note=54 velocity=127 time=0
EXTRACT: note_off channel=6 note=78 velocity=95 time=0.06696425
EXTRACT: note_off channel=2 note=78 velocity=127 time=0.06696425
EXTRACT: note_off channel=2 note=75 velocity=127 time=0
EXTRACT: note_off channel=2 note=70 velocity=95 time=0
EXTRACT: note_off channel=8 note=30 velocity=127 time=0
EXTRACT: note_on channel=8 note=35 velocity=127 time=0
EXTRACT: note_off channel=3 note=78 velocity=127 time=0
EXTRACT: note_off channel=9 note=54 velocity=127 time=0
EXTRACT: note_on channel=9 note=44 velocity=127 time=0
EXTRACT: note_on channel=9 note=81 velocity=127 time=0
EXTRACT: note_on channel=9 note=54 velocity=127 time=0
EXTRACT: note_off channel=9 note=44 velocity=127 time=0.1339285
EXTRACT: note_off channel=9 note=81 velocity=127 time=0
EXTRACT: note_off channel=9 note=54 velocity=127 time=0
EXTRACT: note_on channel=9 note=44 velocity=127 time=0
EXTRACT: note_on channel=9 note=54 velocity=127 time=0
EXTRACT: note_off channel=0 note=59 velocity=95 time=0.1339285
EXTRACT: note_off channel=0 note=54 velocity=95 time=0
EXTRACT: note_off channel=0 note=47 velocity=95 time=0
EXTRACT: note_on channel=0 note=54 velocity=95 time=0
EXTRACT: note_on channel=0 note=49 velocity=95 time=0
EXTRACT: note_on channel=0 note=42 velocity=95 time=0
EXTRACT: note_off channel=8 note=35 velocity=127 time=0
EXTRACT: note_on channel=8 note=30 velocity=127 time=0
EXTRACT: note_on channel=3 note=78 velocity=127 time=0
EXTRACT: note_on channel=3 note=73 velocity=127 time=0
EXTRACT: note_off channel=4 note=71 velocity=95 time=0
EXTRACT: note_off channel=4 note=66 velocity=95 time=0
EXTRACT: note_off channel=4 note=63 velocity=95 time=0
EXTRACT: note_off channel=4 note=59 velocity=95 time=0
EXTRACT: note_on channel=4 note=70 velocity=95 time=0
EXTRACT: note_on channel=4 note=66 velocity=95 time=0
EXTRACT: note_on channel=4 note=61 velocity=95 time=0
EXTRACT: note_on channel=4 note=58 velocity=95 time=0
EXTRACT: note_off channel=5 note=71 velocity=95 time=0
EXTRACT: note_off channel=5 note=66 velocity=95 time=0
EXTRACT: note_off channel=5 note=63 velocity=95 time=0
EXTRACT: note_off channel=5 note=59 velocity=95 time=0
EXTRACT: note_on channel=5 note=70 velocity=95 time=0
EXTRACT: note_on channel=5 note=66 velocity=95 time=0
EXTRACT: note_on channel=5 note=61 velocity=95 time=0
EXTRACT: note_on channel=5 note=58 velocity=95 time=0
EXTRACT: note_on channel=6 note=78 velocity=95 time=0
EXTRACT: note_off channel=9 note=44 velocity=127 time=0
EXTRACT: note_off channel=9 note=54 velocity=127 time=0
EXTRACT: note_on channel=9 note=44 velocity=127 time=0
EXTRACT: note_on channel=9 note=54 velocity=127 time=0
EXTRACT: note_on channel=9 note=35 velocity=127 time=0
EXTRACT: note_off channel=3 note=78 velocity=127 time=0.1339285
EXTRACT: note_off channel=3 note=73 velocity=127 time=0
EXTRACT: note_on channel=3 note=78 velocity=127 time=0
EXTRACT: note_on channel=3 note=73 velocity=127 time=0
EXTRACT: note_off channel=9 note=44 velocity=127 time=0
EXTRACT: note_off channel=9 note=54 velocity=127 time=0
EXTRACT: note_off channel=9 note=35 velocity=127 time=0
EXTRACT: note_on channel=9 note=54 velocity=127 time=0
EXTRACT: note_off channel=6 note=78 velocity=95 time=0.06696425
EXTRACT: note_off channel=8 note=30 velocity=127 time=0.06696425
EXTRACT: note_off channel=3 note=78 velocity=127 time=0
EXTRACT: note_off channel=3 note=73 velocity=127 time=0
EXTRACT: note_on channel=3 note=78 velocity=127 time=0
EXTRACT: note_on channel=3 note=73 velocity=127 time=0
EXTRACT: note_off channel=9 note=54 velocity=127 time=0
EXTRACT: note_on channel=9 note=44 velocity=127 time=0
EXTRACT: note_on channel=9 note=81 velocity=127 time=0
EXTRACT: note_on channel=9 note=54 velocity=127 time=0
EXTRACT: note_off channel=3 note=78 velocity=127 time=0.1339285
EXTRACT: note_off channel=3 note=73 velocity=127 time=0
EXTRACT: note_on channel=3 note=78 velocity=127 time=0
EXTRACT: note_on channel=3 note=73 velocity=127 time=0
EXTRACT: note_off channel=9 note=44 velocity=127 time=0
EXTRACT: note_off channel=9 note=81 velocity=127 time=0
EXTRACT: note_off channel=9 note=54 velocity=127 time=0
EXTRACT: note_on channel=9 note=54 velocity=127 time=0
EXTRACT: note_off channel=3 note=78 velocity=127 time=0.1339285
EXTRACT: note_off channel=3 note=73 velocity=127 time=0
EXTRACT: note_on channel=3 note=78 velocity=127 time=0
EXTRACT: note_on channel=3 note=73 velocity=127 time=0
EXTRACT: note_on channel=6 note=78 velocity=95 time=0
EXTRACT: note_off channel=9 note=54 velocity=127 time=0
EXTRACT: note_on channel=9 note=38 velocity=127 time=0
EXTRACT: note_on channel=9 note=39 velocity=95 time=0
EXTRACT: note_on channel=9 note=54 velocity=127 time=0
EXTRACT: note_off channel=9 note=38 velocity=127 time=0.1339285
EXTRACT: note_off channel=9 note=39 velocity=95 time=0
EXTRACT: note_off channel=9 note=54 velocity=127 time=0
EXTRACT: note_on channel=9 note=54 velocity=127 time=0
EXTRACT: note_off channel=6 note=78 velocity=95 time=0.06696425
EXTRACT: note_off channel=0 note=54 velocity=95 time=0.06696425
EXTRACT: note_off channel=0 note=49 velocity=95 time=0
EXTRACT: note_off channel=0 note=42 velocity=95 time=0
EXTRACT: note_on channel=0 note=59 velocity=95 time=0
EXTRACT: note_on channel=0 note=54 velocity=95 time=0
EXTRACT: note_on channel=0 note=47 velocity=95 time=0
EXTRACT: note_on channel=8 note=30 velocity=127 time=0
EXTRACT: note_off channel=3 note=78 velocity=127 time=0
EXTRACT: note_off channel=3 note=73 velocity=127 time=0
EXTRACT: note_on channel=3 note=80 velocity=127 time=0
EXTRACT: note_on channel=3 note=75 velocity=127 time=0
EXTRACT: note_off channel=4 note=70 velocity=95 time=0
EXTRACT: note_off channel=4 note=66 velocity=95 time=0
EXTRACT: note_off channel=4 note=61 velocity=95 time=0
EXTRACT: note_off channel=4 note=58 velocity=95 time=0
EXTRACT: note_on channel=4 note=71 velocity=95 time=0
EXTRACT: note_on channel=4 note=66 velocity=95 time=0
EXTRACT: note_on channel=4 note=63 velocity=95 time=0
EXTRACT: note_on channel=4 note=59 velocity=95 time=0
EXTRACT: note_off channel=5 note=70 velocity=95 time=0
EXTRACT: note_off channel=5 note=66 velocity=95 time=0
EXTRACT: note_off channel=5 note=61 velocity=95 time=0
EXTRACT: note_off channel=5 note=58 velocity=95 time=0
EXTRACT: note_on channel=5 note=71 velocity=95 time=0
EXTRACT: note_on channel=5 note=66 velocity=95 time=0
EXTRACT: note_on channel=5 note=63 velocity=95 time=0
EXTRACT: note_on channel=5 note=59 velocity=95 time=0
EXTRACT: note_off channel=9 note=54 velocity=127 time=0
EXTRACT: note_on channel=9 note=44 velocity=127 time=0
EXTRACT: note_on channel=9 note=81 velocity=127 time=0
EXTRACT: note_on channel=9 note=54 velocity=127 time=0
EXTRACT: note_off channel=9 note=44 velocity=127 time=0.1339285
EXTRACT: note_off channel=9 note=81 velocity=127 time=0
EXTRACT: note_off channel=9 note=54 velocity=127 time=0
EXTRACT: note_on channel=9 note=54 velocity=127 time=0
EXTRACT: note_off channel=8 note=30 velocity=127 time=0.1339285
EXTRACT: note_on channel=8 note=32 velocity=127 time=0
EXTRACT: note_off channel=3 note=80 velocity=127 time=0
EXTRACT: note_off channel=3 note=75 velocity=127 time=0
EXTRACT: note_on channel=3 note=78 velocity=127 time=0
EXTRACT: note_on channel=3 note=75 velocity=127 time=0
EXTRACT: note_on channel=6 note=78 velocity=95 time=0
EXTRACT: note_off channel=9 note=54 velocity=127 time=0
EXTRACT: note_on channel=9 note=44 velocity=127 time=0
EXTRACT: note_on channel=9 note=54 velocity=127 time=0
EXTRACT: note_on channel=9 note=35 velocity=127 time=0
EXTRACT: note_off channel=9 note=44 velocity=127 time=0.1339285
EXTRACT: note_off channel=9 note=54 velocity=127 time=0
EXTRACT: note_off channel=9 note=35 velocity=127 time=0
EXTRACT: note_on channel=9 note=54 velocity=127 time=0
EXTRACT: note_off channel=6 note=78 velocity=95 time=0.06696425
EXTRACT: note_off channel=8 note=32 velocity=127 time=0.06696425
EXTRACT: note_off channel=3 note=78 velocity=127 time=0
EXTRACT: note_off channel=3 note=75 velocity=127 time=0
EXTRACT: note_on channel=3 note=75 velocity=127 time=0
EXTRACT: note_off channel=9 note=54 velocity=127 time=0
EXTRACT: note_on channel=9 note=44 velocity=127 time=0
EXTRACT: note_on channel=9 note=81 velocity=127 time=0
EXTRACT: note_on channel=9 note=54 velocity=127 time=0
EXTRACT: note_off channel=9 note=44 velocity=127 time=0.1339285
EXTRACT: note_off channel=9 note=81 velocity=127 time=0
EXTRACT: note_off channel=9 note=54 velocity=127 time=0
EXTRACT: note_on channel=9 note=54 velocity=127 time=0
EXTRACT: note_on channel=2 note=78 velocity=127 time=0.1339285
EXTRACT: note_on channel=2 note=75 velocity=127 time=0
EXTRACT: note_on channel=2 note=70 velocity=95 time=0
EXTRACT: note_off channel=3 note=75 velocity=127 time=0
EXTRACT: note_on channel=6 note=78 velocity=95 time=0
EXTRACT: note_off channel=9 note=54 velocity=127 time=0
EXTRACT: note_on channel=9 note=38 velocity=127 time=0
EXTRACT: note_on channel=9 note=39 velocity=95 time=0
EXTRACT: note_on channel=9 note=54 velocity=127 time=0
EXTRACT: note_off channel=9 note=38 velocity=127 time=0.1339285
EXTRACT: note_off channel=9 note=39 velocity=95 time=0
EXTRACT: note_off channel=9 note=54 velocity=127 time=0
EXTRACT: note_on channel=9 note=54 velocity=127 time=0
EXTRACT: note_off channel=6 note=78 velocity=95 time=0.06696425
EXTRACT: note_off channel=2 note=78 velocity=127 time=0.06696425
EXTRACT: note_off channel=2 note=75 velocity=127 time=0
EXTRACT: note_off channel=2 note=70 velocity=95 time=0
EXTRACT: note_on channel=8 note=32 velocity=127 time=0
EXTRACT: note_off channel=9 note=54 velocity=127 time=0
EXTRACT: note_on channel=9 note=44 velocity=127 time=0
EXTRACT: note_on channel=9 note=81 velocity=127 time=0
EXTRACT: note_on channel=9 note=54 velocity=127 time=0
EXTRACT: note_off channel=9 note=44 velocity=127 time=0.1339285
EXTRACT: note_off channel=9 note=81 velocity=127 time=0
EXTRACT: note_off channel=9 note=54 velocity=127 time=0
EXTRACT: note_on channel=9 note=44 velocity=127 time=0
EXTRACT: note_on channel=9 note=54 velocity=127 time=0
EXTRACT: note_off channel=0 note=59 velocity=95 time=0.1339285
EXTRACT: note_off channel=0 note=54 velocity=95 time=0
EXTRACT: note_off channel=0 note=47 velocity=95 time=0
EXTRACT: note_on channel=0 note=52 velocity=95 time=0
EXTRACT: note_on channel=0 note=47 velocity=95 time=0
EXTRACT: note_on channel=0 note=40 velocity=95 time=0
EXTRACT: note_off channel=8 note=32 velocity=127 time=0
EXTRACT: note_on channel=8 note=27 velocity=127 time=0
EXTRACT: note_on channel=3 note=73 velocity=127 time=0
EXTRACT: note_off channel=4 note=71 velocity=95 time=0
EXTRACT: note_off channel=4 note=66 velocity=95 time=0
EXTRACT: note_off channel=4 note=63 velocity=95 time=0
EXTRACT: note_off channel=4 note=59 velocity=95 time=0
EXTRACT: note_on channel=4 note=68 velocity=95 time=0
EXTRACT: note_on channel=4 note=64 velocity=95 time=0
EXTRACT: note_on channel=4 note=59 velocity=95 time=0
EXTRACT: note_on channel=4 note=56 velocity=95 time=0
EXTRACT: note_off channel=5 note=71 velocity=95 time=0
EXTRACT: note_off channel=5 note=66 velocity=95 time=0
EXTRACT: note_off channel=5 note=63 velocity=95 time=0
EXTRACT: note_off channel=5 note=59 velocity=95 time=0
EXTRACT: note_on channel=5 note=68 velocity=95 time=0
EXTRACT: note_on channel=5 note=64 velocity=95 time=0
EXTRACT: note_on channel=5 note=59 velocity=95 time=0
EXTRACT: note_on channel=5 note=56 velocity=95 time=0
EXTRACT: note_on channel=6 note=78 velocity=95 time=0
EXTRACT: note_off channel=9 note=44 velocity=127 time=0
EXTRACT: note_off channel=9 note=54 velocity=127 time=0
EXTRACT: note_on channel=9 note=44 velocity=127 time=0
EXTRACT: note_on channel=9 note=54 velocity=127 time=0
EXTRACT: note_on channel=9 note=35 velocity=127 time=0
EXTRACT: note_off channel=9 note=44 velocity=127 time=0.1339285
EXTRACT: note_off channel=9 note=54 velocity=127 time=0
EXTRACT: note_off channel=9 note=35 velocity=127 time=0
EXTRACT: note_on channel=9 note=54 velocity=127 time=0
EXTRACT: note_off channel=6 note=78 velocity=95 time=0.06696425
EXTRACT: note_off channel=8 note=27 velocity=127 time=0.06696425
EXTRACT: note_off channel=3 note=73 velocity=127 time=0
EXTRACT: note_on channel=3 note=71 velocity=127 time=0
EXTRACT: note_off channel=9 note=54 velocity=127 time=0
EXTRACT: note_on channel=9 note=44 velocity=127 time=0
EXTRACT: note_on channel=9 note=81 velocity=127 time=0
EXTRACT: note_on channel=9 note=54 velocity=127 time=0
EXTRACT: note_off channel=9 note=44 velocity=127 time=0.1339285
EXTRACT: note_off channel=9 note=81 velocity=127 time=0
EXTRACT: note_off channel=9 note=54 velocity=127 time=0
EXTRACT: note_on channel=9 note=54 velocity=127 time=0
EXTRACT: note_off channel=3 note=71 velocity=127 time=0.1339285
EXTRACT: note_on channel=3 note=73 velocity=127 time=0
EXTRACT: note_on channel=6 note=78 velocity=95 time=0
EXTRACT: note_off channel=9 note=54 velocity=127 time=0
EXTRACT: note_on channel=9 note=38 velocity=127 time=0
EXTRACT: note_on channel=9 note=39 velocity=95 time=0
EXTRACT: note_on channel=9 note=54 velocity=127 time=0
EXTRACT: note_off channel=9 note=38 velocity=127 time=0.1339285
EXTRACT: note_off channel=9 note=39 velocity=95 time=0
EXTRACT: note_off channel=9 note=54 velocity=127 time=0
EXTRACT: note_on channel=9 note=54 velocity=127 time=0
EXTRACT: note_off channel=6 note=78 velocity=95 time=0.06696425
EXTRACT: note_off channel=0 note=52 velocity=95 time=0.06696425
EXTRACT: note_off channel=0 note=47 velocity=95 time=0
EXTRACT: note_off channel=0 note=40 velocity=95 time=0
EXTRACT: note_on channel=0 note=59 velocity=95 time=0
EXTRACT: note_on channel=0 note=54 velocity=95 time=0
EXTRACT: note_on channel=0 note=47 velocity=95 time=0
EXTRACT: note_on channel=8 note=27 velocity=127 time=0
EXTRACT: note_off channel=3 note=73 velocity=127 time=0
EXTRACT: note_on channel=3 note=71 velocity=127 time=0
EXTRACT: note_off channel=4 note=68 velocity=95 time=0
EXTRACT: note_off channel=4 note=64 velocity=95 time=0
EXTRACT: note_off channel=4 note=59 velocity=95 time=0
EXTRACT: note_off channel=4 note=56 velocity=95 time=0
EXTRACT: note_on channel=4 note=71 velocity=95 time=0
EXTRACT: note_on channel=4 note=66 velocity=95 time=0
EXTRACT: note_on channel=4 note=63 velocity=95 time=0
EXTRACT: note_on channel=4 note=59 velocity=95 time=0
EXTRACT: note_off channel=5 note=68 velocity=95 time=0
EXTRACT: note_off channel=5 note=64 velocity=95 time=0
EXTRACT: note_off channel=5 note=59 velocity=95 time=0
EXTRACT: note_off channel=5 note=56 velocity=95 time=0
EXTRACT: note_on channel=5 note=71 velocity=95 time=0
EXTRACT: note_on channel=5 note=66 velocity=95 time=0
EXTRACT: note_on channel=5 note=63 velocity=95 time=0
EXTRACT: note_on channel=5 note=59 velocity=95 time=0
EXTRACT: note_off channel=9 note=54 velocity=127 time=0
EXTRACT: note_on channel=9 note=44 velocity=127 time=0
EXTRACT: note_on channel=9 note=81 velocity=127 time=0
EXTRACT: note_on channel=9 note=54 velocity=127 time=0
EXTRACT: note_off channel=9 note=44 velocity=127 time=0.1339285
EXTRACT: note_off channel=9 note=81 velocity=127 time=0
EXTRACT: note_off channel=9 note=54 velocity=127 time=0
EXTRACT: note_on channel=9 note=54 velocity=127 time=0
EXTRACT: note_off channel=8 note=27 velocity=127 time=0.1339285
EXTRACT: note_on channel=8 note=35 velocity=127 time=0
EXTRACT: note_off channel=3 note=71 velocity=127 time=0
EXTRACT: note_on channel=3 note=75 velocity=127 time=0
EXTRACT: note_on channel=6 note=78 velocity=95 time=0
EXTRACT: note_off channel=9 note=54 velocity=127 time=0
EXTRACT: note_on channel=9 note=44 velocity=127 time=0
EXTRACT: note_on channel=9 note=54 velocity=127 time=0
EXTRACT: note_on channel=9 note=35 velocity=127 time=0
EXTRACT: note_off channel=8 note=35 velocity=127 time=0.1339285
EXTRACT: note_on channel=8 note=30 velocity=127 time=0
EXTRACT: note_off channel=9 note=44 velocity=127 time=0
EXTRACT: note_off channel=9 note=54 velocity=127 time=0
EXTRACT: note_off channel=9 note=35 velocity=127 time=0
EXTRACT: note_on channel=9 note=54 velocity=127 time=0
EXTRACT: note_off channel=6 note=78 velocity=95 time=0.06696425
EXTRACT: note_off channel=9 note=54 velocity=127 time=0.06696425
EXTRACT: note_on channel=9 note=44 velocity=127 time=0
EXTRACT: note_on channel=9 note=81 velocity=127 time=0
EXTRACT: note_on channel=9 note=54 velocity=127 time=0
EXTRACT: note_off channel=8 note=30 velocity=127 time=0.1339285
EXTRACT: note_on channel=8 note=35 velocity=127 time=0
EXTRACT: note_off channel=9 note=44 velocity=127 time=0
EXTRACT: note_off channel=9 note=81 velocity=127 time=0
EXTRACT: note_off channel=9 note=54 velocity=127 time=0
EXTRACT: note_on channel=9 note=54 velocity=127 time=0
EXTRACT: note_on channel=2 note=78 velocity=127 time=0.1339285
EXTRACT: note_on channel=2 note=75 velocity=127 time=0
EXTRACT: note_on channel=2 note=70 velocity=95 time=0
EXTRACT: note_off channel=8 note=35 velocity=127 time=0
EXTRACT: note_on channel=8 note=30 velocity=127 time=0
EXTRACT: note_off channel=3 note=75 velocity=127 time=0
EXTRACT: note_on channel=6 note=78 velocity=95 time=0
EXTRACT: note_off channel=9 note=54 velocity=127 time=0
EXTRACT: note_on channel=9 note=38 velocity=127 time=0
EXTRACT: note_on channel=9 note=39 velocity=95 time=0
EXTRACT: note_on channel=9 note=54 velocity=127 time=0
EXTRACT: note_off channel=9 note=38 velocity=127 time=0.1339285
EXTRACT: note_off channel=9 note=39 velocity=95 time=0
EXTRACT: note_off channel=9 note=54 velocity=127 time=0
EXTRACT: note_on channel=9 note=54 velocity=127 time=0
EXTRACT: note_off channel=6 note=78 velocity=95 time=0.06696425
EXTRACT: note_off channel=2 note=78 velocity=127 time=0.06696425
EXTRACT: note_off channel=2 note=75 velocity=127 time=0
EXTRACT: note_off channel=2 note=70 velocity=95 time=0
EXTRACT: note_off channel=8 note=30 velocity=127 time=0
EXTRACT: note_on channel=8 note=35 velocity=127 time=0
EXTRACT: note_off channel=9 note=54 velocity=127 time=0
EXTRACT: note_on channel=9 note=44 velocity=127 time=0
EXTRACT: note_on channel=9 note=81 velocity=127 time=0
EXTRACT: note_on channel=9 note=54 velocity=127 time=0
EXTRACT: note_off channel=9 note=44 velocity=127 time=0.1339285
EXTRACT: note_off channel=9 note=81 velocity=127 time=0
EXTRACT: note_off channel=9 note=54 velocity=127 time=0
EXTRACT: note_on channel=9 note=44 velocity=127 time=0
EXTRACT: note_on channel=9 note=54 velocity=127 time=0
EXTRACT: note_off channel=0 note=59 velocity=95 time=0.1339285
EXTRACT: note_off channel=0 note=54 velocity=95 time=0
EXTRACT: note_off channel=0 note=47 velocity=95 time=0
EXTRACT: note_on channel=0 note=54 velocity=95 time=0
EXTRACT: note_on channel=0 note=49 velocity=95 time=0
EXTRACT: note_on channel=0 note=42 velocity=95 time=0
EXTRACT: note_off channel=8 note=35 velocity=127 time=0
EXTRACT: note_on channel=8 note=30 velocity=127 time=0
EXTRACT: note_on channel=3 note=78 velocity=127 time=0
EXTRACT: note_on channel=3 note=73 velocity=127 time=0
EXTRACT: note_off channel=4 note=71 velocity=95 time=0
EXTRACT: note_off channel=4 note=66 velocity=95 time=0
EXTRACT: note_off channel=4 note=63 velocity=95 time=0
EXTRACT: note_off channel=4 note=59 velocity=95 time=0
EXTRACT: note_on channel=4 note=70 velocity=95 time=0
EXTRACT: note_on channel=4 note=66 velocity=95 time=0
EXTRACT: note_on channel=4 note=61 velocity=95 time=0
EXTRACT: note_on channel=4 note=58 velocity=95 time=0
EXTRACT: note_off channel=5 note=71 velocity=95 time=0
EXTRACT: note_off channel=5 note=66 velocity=95 time=0
EXTRACT: note_off channel=5 note=63 velocity=95 time=0
EXTRACT: note_off channel=5 note=59 velocity=95 time=0
EXTRACT: note_on channel=5 note=70 velocity=95 time=0
EXTRACT: note_on channel=5 note=66 velocity=95 time=0
EXTRACT: note_on channel=5 note=61 velocity=95 time=0
EXTRACT: note_on channel=5 note=58 velocity=95 time=0
EXTRACT: note_on channel=6 note=78 velocity=95 time=0
EXTRACT: note_off channel=9 note=44 velocity=127 time=0
EXTRACT: note_off channel=9 note=54 velocity=127 time=0
EXTRACT: note_on channel=9 note=44 velocity=127 time=0
EXTRACT: note_on channel=9 note=54 velocity=127 time=0
EXTRACT: note_on channel=9 note=35 velocity=127 time=0
EXTRACT: note_off channel=9 note=44 velocity=127 time=0.1339285
EXTRACT: note_off channel=9 note=54 velocity=127 time=0
EXTRACT: note_off channel=9 note=35 velocity=127 time=0
EXTRACT: note_on channel=9 note=54 velocity=127 time=0
EXTRACT: note_off channel=6 note=78 velocity=95 time=0.06696425
EXTRACT: note_off channel=8 note=30 velocity=127 time=0.06696425
EXTRACT: note_off channel=3 note=78 velocity=127 time=0
EXTRACT: note_off channel=3 note=73 velocity=127 time=0
EXTRACT: note_on channel=3 note=78 velocity=127 time=0
EXTRACT: note_on channel=3 note=73 velocity=127 time=0
EXTRACT: note_off channel=9 note=54 velocity=127 time=0
EXTRACT: note_on channel=9 note=44 velocity=127 time=0
EXTRACT: note_on channel=9 note=81 velocity=127 time=0
EXTRACT: note_on channel=9 note=54 velocity=127 time=0
EXTRACT: note_off channel=9 note=44 velocity=127 time=0.1339285
EXTRACT: note_off channel=9 note=81 velocity=127 time=0
EXTRACT: note_off channel=9 note=54 velocity=127 time=0
EXTRACT: note_on channel=9 note=54 velocity=127 time=0
EXTRACT: note_off channel=3 note=78 velocity=127 time=0.1339285
EXTRACT: note_off channel=3 note=73 velocity=127 time=0
EXTRACT: note_on channel=3 note=78 velocity=127 time=0
EXTRACT: note_on channel=3 note=73 velocity=127 time=0
EXTRACT: note_on channel=6 note=78 velocity=95 time=0
EXTRACT: note_off channel=9 note=54 velocity=127 time=0
EXTRACT: note_on channel=9 note=38 velocity=127 time=0
EXTRACT: note_on channel=9 note=39 velocity=95 time=0
EXTRACT: note_on channel=9 note=54 velocity=127 time=0
EXTRACT: note_off channel=9 note=38 velocity=127 time=0.1339285
EXTRACT: note_off channel=9 note=39 velocity=95 time=0
EXTRACT: note_off channel=9 note=54 velocity=127 time=0
EXTRACT: note_on channel=9 note=54 velocity=127 time=0
EXTRACT: note_off channel=6 note=78 velocity=95 time=0.06696425
EXTRACT: note_off channel=0 note=54 velocity=95 time=0.06696425
EXTRACT: note_off channel=0 note=49 velocity=95 time=0
EXTRACT: note_off channel=0 note=42 velocity=95 time=0
EXTRACT: note_on channel=0 note=59 velocity=95 time=0
EXTRACT: note_on channel=0 note=54 velocity=95 time=0
EXTRACT: note_on channel=0 note=47 velocity=95 time=0
EXTRACT: note_on channel=8 note=30 velocity=127 time=0
EXTRACT: note_off channel=3 note=78 velocity=127 time=0
EXTRACT: note_off channel=3 note=73 velocity=127 time=0
EXTRACT: note_on channel=3 note=80 velocity=127 time=0
EXTRACT: note_on channel=3 note=75 velocity=127 time=0
EXTRACT: note_off channel=4 note=70 velocity=95 time=0
EXTRACT: note_off channel=4 note=66 velocity=95 time=0
EXTRACT: note_off channel=4 note=61 velocity=95 time=0
EXTRACT: note_off channel=4 note=58 velocity=95 time=0
EXTRACT: note_on channel=4 note=71 velocity=95 time=0
EXTRACT: note_on channel=4 note=66 velocity=95 time=0
EXTRACT: note_on channel=4 note=63 velocity=95 time=0
EXTRACT: note_on channel=4 note=59 velocity=95 time=0
EXTRACT: note_off channel=5 note=70 velocity=95 time=0
EXTRACT: note_off channel=5 note=66 velocity=95 time=0
EXTRACT: note_off channel=5 note=61 velocity=95 time=0
EXTRACT: note_off channel=5 note=58 velocity=95 time=0
EXTRACT: note_on channel=5 note=71 velocity=95 time=0
EXTRACT: note_on channel=5 note=66 velocity=95 time=0
EXTRACT: note_on channel=5 note=63 velocity=95 time=0
EXTRACT: note_on channel=5 note=59 velocity=95 time=0
EXTRACT: note_off channel=9 note=54 velocity=127 time=0
EXTRACT: note_on channel=9 note=44 velocity=127 time=0
EXTRACT: note_on channel=9 note=81 velocity=127 time=0
EXTRACT: note_on channel=9 note=54 velocity=127 time=0
EXTRACT: note_off channel=9 note=44 velocity=127 time=0.1339285
EXTRACT: note_off channel=9 note=81 velocity=127 time=0
EXTRACT: note_off channel=9 note=54 velocity=127 time=0
EXTRACT: note_on channel=9 note=54 velocity=127 time=0
EXTRACT: note_off channel=8 note=30 velocity=127 time=0.1339285
EXTRACT: note_on channel=8 note=32 velocity=127 time=0
EXTRACT: note_off channel=3 note=80 velocity=127 time=0
EXTRACT: note_off channel=3 note=75 velocity=127 time=0
EXTRACT: note_on channel=3 note=78 velocity=127 time=0
EXTRACT: note_on channel=3 note=75 velocity=127 time=0
EXTRACT: note_on channel=6 note=78 velocity=95 time=0
EXTRACT: note_off channel=9 note=54 velocity=127 time=0
EXTRACT: note_on channel=9 note=44 velocity=127 time=0
EXTRACT: note_on channel=9 note=54 velocity=127 time=0
EXTRACT: note_on channel=9 note=35 velocity=127 time=0
EXTRACT: note_off channel=9 note=44 velocity=127 time=0.1339285
EXTRACT: note_off channel=9 note=54 velocity=127 time=0
EXTRACT: note_off channel=9 note=35 velocity=127 time=0
EXTRACT: note_on channel=9 note=54 velocity=127 time=0
EXTRACT: note_off channel=6 note=78 velocity=95 time=0.06696425
EXTRACT: note_off channel=8 note=32 velocity=127 time=0.06696425
EXTRACT: note_off channel=3 note=78 velocity=127 time=0
EXTRACT: note_off channel=3 note=75 velocity=127 time=0
EXTRACT: note_on channel=3 note=75 velocity=127 time=0
EXTRACT: note_off channel=9 note=54 velocity=127 time=0
EXTRACT: note_on channel=9 note=44 velocity=127 time=0
EXTRACT: note_on channel=9 note=81 velocity=127 time=0
EXTRACT: note_on channel=9 note=54 velocity=127 time=0
EXTRACT: note_off channel=9 note=44 velocity=127 time=0.1339285
EXTRACT: note_off channel=9 note=81 velocity=127 time=0
EXTRACT: note_off channel=9 note=54 velocity=127 time=0
EXTRACT: note_on channel=9 note=54 velocity=127 time=0
EXTRACT: note_on channel=2 note=78 velocity=127 time=0.1339285
EXTRACT: note_on channel=2 note=75 velocity=127 time=0
EXTRACT: note_on channel=2 note=70 velocity=95 time=0
EXTRACT: note_off channel=3 note=75 velocity=127 time=0
EXTRACT: note_on channel=3 note=75 velocity=127 time=0
EXTRACT: note_on channel=6 note=78 velocity=95 time=0
EXTRACT: note_off channel=9 note=54 velocity=127 time=0
EXTRACT: note_on channel=9 note=38 velocity=127 time=0
EXTRACT: note_on channel=9 note=39 velocity=95 time=0
EXTRACT: note_on channel=9 note=54 velocity=127 time=0
EXTRACT: note_off channel=9 note=38 velocity=127 time=0.1339285
EXTRACT: note_off channel=9 note=39 velocity=95 time=0
EXTRACT: note_off channel=9 note=54 velocity=127 time=0
EXTRACT: note_on channel=9 note=54 velocity=127 time=0
EXTRACT: note_off channel=6 note=78 velocity=95 time=0.06696425
EXTRACT: note_off channel=2 note=78 velocity=127 time=0.06696425
EXTRACT: note_off channel=2 note=75 velocity=127 time=0
EXTRACT: note_off channel=2 note=70 velocity=95 time=0
EXTRACT: note_on channel=8 note=32 velocity=127 time=0
EXTRACT: note_off channel=3 note=75 velocity=127 time=0
EXTRACT: note_on channel=3 note=83 velocity=127 time=0
EXTRACT: note_on channel=3 note=75 velocity=127 time=0
EXTRACT: note_off channel=9 note=54 velocity=127 time=0
EXTRACT: note_on channel=9 note=44 velocity=127 time=0
EXTRACT: note_on channel=9 note=81 velocity=127 time=0
EXTRACT: note_on channel=9 note=54 velocity=127 time=0
EXTRACT: note_off channel=9 note=44 velocity=127 time=0.1339285
EXTRACT: note_off channel=9 note=81 velocity=127 time=0
EXTRACT: note_off channel=9 note=54 velocity=127 time=0
EXTRACT: note_on channel=9 note=44 velocity=127 time=0
EXTRACT: note_on channel=9 note=54 velocity=127 time=0
EXTRACT: note_off channel=0 note=59 velocity=95 time=0.1339285
EXTRACT: note_off channel=0 note=54 velocity=95 time=0
EXTRACT: note_off channel=0 note=47 velocity=95 time=0
EXTRACT: note_on channel=0 note=52 velocity=95 time=0
EXTRACT: note_on channel=0 note=47 velocity=95 time=0
EXTRACT: note_on channel=0 note=40 velocity=95 time=0
EXTRACT: note_off channel=8 note=32 velocity=127 time=0
EXTRACT: note_on channel=8 note=27 velocity=127 time=0
EXTRACT: note_off channel=4 note=71 velocity=95 time=0
EXTRACT: note_off channel=4 note=66 velocity=95 time=0
EXTRACT: note_off channel=4 note=63 velocity=95 time=0
EXTRACT: note_off channel=4 note=59 velocity=95 time=0
EXTRACT: note_on channel=4 note=68 velocity=95 time=0
EXTRACT: note_on channel=4 note=64 velocity=95 time=0
EXTRACT: note_on channel=4 note=59 velocity=95 time=0
EXTRACT: note_on channel=4 note=56 velocity=95 time=0
EXTRACT: note_off channel=5 note=71 velocity=95 time=0
EXTRACT: note_off channel=5 note=66 velocity=95 time=0
EXTRACT: note_off channel=5 note=63 velocity=95 time=0
EXTRACT: note_off channel=5 note=59 velocity=95 time=0
EXTRACT: note_on channel=5 note=68 velocity=95 time=0
EXTRACT: note_on channel=5 note=64 velocity=95 time=0
EXTRACT: note_on channel=5 note=59 velocity=95 time=0
EXTRACT: note_on channel=5 note=56 velocity=95 time=0
EXTRACT: note_on channel=6 note=78 velocity=95 time=0
EXTRACT: note_off channel=9 note=44 velocity=127 time=0
EXTRACT: note_off channel=9 note=54 velocity=127 time=0
EXTRACT: note_on channel=9 note=44 velocity=127 time=0
EXTRACT: note_on channel=9 note=54 velocity=127 time=0
EXTRACT: note_on channel=9 note=35 velocity=127 time=0
EXTRACT: note_off channel=3 note=83 velocity=127 time=0.1339285
EXTRACT: note_off channel=3 note=75 velocity=127 time=0
EXTRACT: note_on channel=3 note=83 velocity=127 time=0
EXTRACT: note_on channel=3 note=75 velocity=127 time=0
EXTRACT: note_off channel=9 note=44 velocity=127 time=0
EXTRACT: note_off channel=9 note=54 velocity=127 time=0
EXTRACT: note_off channel=9 note=35 velocity=127 time=0
EXTRACT: note_on channel=9 note=54 velocity=127 time=0
EXTRACT: note_off channel=6 note=78 velocity=95 time=0.06696425
EXTRACT: note_off channel=8 note=27 velocity=127 time=0.06696425
EXTRACT: note_off channel=9 note=54 velocity=127 time=0
EXTRACT: note_on channel=9 note=44 velocity=127 time=0
EXTRACT: note_on channel=9 note=81 velocity=127 time=0
EXTRACT: note_on channel=9 note=54 velocity=127 time=0
EXTRACT: note_off channel=9 note=44 velocity=127 time=0.1339285
EXTRACT: note_off channel=9 note=81 velocity=127 time=0
EXTRACT: note_off channel=9 note=54 velocity=127 time=0
EXTRACT: note_on channel=9 note=54 velocity=127 time=0
EXTRACT: note_off channel=3 note=83 velocity=127 time=0.1339285
EXTRACT: note_off channel=3 note=75 velocity=127 time=0
EXTRACT: note_on channel=3 note=85 velocity=127 time=0
EXTRACT: note_on channel=3 note=73 velocity=127 time=0
EXTRACT: note_on channel=6 note=78 velocity=95 time=0
EXTRACT: note_off channel=9 note=54 velocity=127 time=0
EXTRACT: note_on channel=9 note=38 velocity=127 time=0
EXTRACT: note_on channel=9 note=39 velocity=95 time=0
EXTRACT: note_on channel=9 note=54 velocity=127 time=0
EXTRACT: note_off channel=9 note=38 velocity=127 time=0.1339285
EXTRACT: note_off channel=9 note=39 velocity=95 time=0
EXTRACT: note_off channel=9 note=54 velocity=127 time=0
EXTRACT: note_on channel=9 note=54 velocity=127 time=0
EXTRACT: note_off channel=6 note=78 velocity=95 time=0.06696425
EXTRACT: note_off channel=0 note=52 velocity=95 time=0.06696425
EXTRACT: note_off channel=0 note=47 velocity=95 time=0
EXTRACT: note_off channel=0 note=40 velocity=95 time=0
EXTRACT: note_on channel=0 note=59 velocity=95 time=0
EXTRACT: note_on channel=0 note=54 velocity=95 time=0
EXTRACT: note_on channel=0 note=47 velocity=95 time=0
EXTRACT: note_on channel=8 note=27 velocity=127 time=0
EXTRACT: note_off channel=3 note=85 velocity=127 time=0
EXTRACT: note_off channel=3 note=73 velocity=127 time=0
EXTRACT: note_on channel=3 note=78 velocity=127 time=0
EXTRACT: note_on channel=3 note=71 velocity=127 time=0
EXTRACT: note_off channel=4 note=68 velocity=95 time=0
EXTRACT: note_off channel=4 note=64 velocity=95 time=0
EXTRACT: note_off channel=4 note=59 velocity=95 time=0
EXTRACT: note_off channel=4 note=56 velocity=95 time=0
EXTRACT: note_on channel=4 note=71 velocity=95 time=0
EXTRACT: note_on channel=4 note=66 velocity=95 time=0
EXTRACT: note_on channel=4 note=63 velocity=95 time=0
EXTRACT: note_on channel=4 note=59 velocity=95 time=0
EXTRACT: note_off channel=5 note=68 velocity=95 time=0
EXTRACT: note_off channel=5 note=64 velocity=95 time=0
EXTRACT: note_off channel=5 note=59 velocity=95 time=0
EXTRACT: note_off channel=5 note=56 velocity=95 time=0
EXTRACT: note_on channel=5 note=71 velocity=95 time=0
EXTRACT: note_on channel=5 note=66 velocity=95 time=0
EXTRACT: note_on channel=5 note=63 velocity=95 time=0
EXTRACT: note_on channel=5 note=59 velocity=95 time=0
EXTRACT: note_off channel=9 note=54 velocity=127 time=0
EXTRACT: note_on channel=9 note=44 velocity=127 time=0
EXTRACT: note_on channel=9 note=81 velocity=127 time=0
EXTRACT: note_on channel=9 note=54 velocity=127 time=0
EXTRACT: note_off channel=9 note=44 velocity=127 time=0.1339285
EXTRACT: note_off channel=9 note=81 velocity=127 time=0
EXTRACT: note_off channel=9 note=54 velocity=127 time=0
EXTRACT: note_on channel=9 note=54 velocity=127 time=0
EXTRACT: note_off channel=8 note=27 velocity=127 time=0.1339285
EXTRACT: note_on channel=8 note=35 velocity=127 time=0
EXTRACT: note_off channel=3 note=78 velocity=127 time=0
EXTRACT: note_off channel=3 note=71 velocity=127 time=0
EXTRACT: note_on channel=3 note=80 velocity=127 time=0
EXTRACT: note_on channel=3 note=71 velocity=127 time=0
EXTRACT: note_on channel=6 note=78 velocity=95 time=0
EXTRACT: note_off channel=9 note=54 velocity=127 time=0
EXTRACT: note_on channel=9 note=44 velocity=127 time=0
EXTRACT: note_on channel=9 note=54 velocity=127 time=0
EXTRACT: note_on channel=9 note=35 velocity=127 time=0
EXTRACT: note_off channel=8 note=35 velocity=127 time=0.1339285
EXTRACT: note_on channel=8 note=30 velocity=127 time=0
EXTRACT: note_off channel=9 note=44 velocity=127 time=0
EXTRACT: note_off channel=9 note=54 velocity=127 time=0
EXTRACT: note_off channel=9 note=35 velocity=127 time=0
EXTRACT: note_on channel=9 note=54 velocity=127 time=0
EXTRACT: note_off channel=6 note=78 velocity=95 time=0.06696425
EXTRACT: note_off channel=3 note=80 velocity=127 time=0.06696425
EXTRACT: note_off channel=3 note=71 velocity=127 time=0
EXTRACT: note_on channel=3 note=82 velocity=127 time=0
EXTRACT: note_off channel=9 note=54 velocity=127 time=0
EXTRACT: note_on channel=9 note=44 velocity=127 time=0
EXTRACT: note_on channel=9 note=81 velocity=127 time=0
EXTRACT: note_on channel=9 note=54 velocity=127 time=0
EXTRACT: note_off channel=8 note=30 velocity=127 time=0.1339285
EXTRACT: note_on channel=8 note=35 velocity=127 time=0
EXTRACT: note_off channel=3 note=82 velocity=127 time=0
EXTRACT: note_on channel=3 note=80 velocity=127 time=0
EXTRACT: note_off channel=9 note=44 velocity=127 time=0
EXTRACT: note_off channel=9 note=81 velocity=127 time=0
EXTRACT: note_off channel=9 note=54 velocity=127 time=0
EXTRACT: note_on channel=9 note=54 velocity=127 time=0
EXTRACT: note_on channel=2 note=78 velocity=127 time=0.1339285
EXTRACT: note_on channel=2 note=75 velocity=127 time=0
EXTRACT: note_on channel=2 note=70 velocity=95 time=0
EXTRACT: note_off channel=8 note=35 velocity=127 time=0
EXTRACT: note_on channel=8 note=30 velocity=127 time=0
EXTRACT: note_off channel=3 note=80 velocity=127 time=0
EXTRACT: note_on channel=3 note=78 velocity=127 time=0
EXTRACT: note_on channel=6 note=78 velocity=95 time=0
EXTRACT: note_off channel=9 note=54 velocity=127 time=0
EXTRACT: note_on channel=9 note=38 velocity=127 time=0
EXTRACT: note_on channel=9 note=39 velocity=95 time=0
EXTRACT: note_on channel=9 note=54 velocity=127 time=0
EXTRACT: note_off channel=9 note=38 velocity=127 time=0.1339285
EXTRACT: note_off channel=9 note=39 velocity=95 time=0
EXTRACT: note_off channel=9 note=54 velocity=127 time=0
EXTRACT: note_on channel=9 note=54 velocity=127 time=0
EXTRACT: note_off channel=6 note=78 velocity=95 time=0.06696425
EXTRACT: note_off channel=2 note=78 velocity=127 time=0.06696425
EXTRACT: note_off channel=2 note=75 velocity=127 time=0
EXTRACT: note_off channel=2 note=70 velocity=95 time=0
EXTRACT: note_off channel=8 note=30 velocity=127 time=0
EXTRACT: note_on channel=8 note=35 velocity=127 time=0
EXTRACT: note_off channel=3 note=78 velocity=127 time=0
EXTRACT: note_off channel=9 note=54 velocity=127 time=0
EXTRACT: note_on channel=9 note=44 velocity=127 time=0
EXTRACT: note_on channel=9 note=81 velocity=127 time=0
EXTRACT: note_on channel=9 note=54 velocity=127 time=0
EXTRACT: note_off channel=9 note=44 velocity=127 time=0.1339285
EXTRACT: note_off channel=9 note=81 velocity=127 time=0
EXTRACT: note_off channel=9 note=54 velocity=127 time=0
EXTRACT: note_on channel=9 note=44 velocity=127 time=0
EXTRACT: note_on channel=9 note=54 velocity=127 time=0
EXTRACT: note_off channel=0 note=59 velocity=95 time=0.1339285
EXTRACT: note_off channel=0 note=54 velocity=95 time=0
EXTRACT: note_off channel=0 note=47 velocity=95 time=0
EXTRACT: note_off channel=8 note=35 velocity=127 time=0
EXTRACT: note_off channel=4 note=71 velocity=95 time=0
EXTRACT: note_off channel=4 note=66 velocity=95 time=0
EXTRACT: note_off channel=4 note=63 velocity=95 time=0
EXTRACT: note_off channel=4 note=59 velocity=95 time=0
EXTRACT: note_off channel=5 note=71 velocity=95 time=0
EXTRACT: note_off channel=5 note=66 velocity=95 time=0
EXTRACT: note_off channel=5 note=63 velocity=95 time=0
EXTRACT: note_off channel=5 note=59 velocity=95 time=0
EXTRACT: note_off channel=9 note=44 velocity=127 time=0
EXTRACT: note_off channel=9 note=54 velocity=127 time=0
EXTRACT: note_on channel=9 note=35 velocity=127 time=0
EXTRACT: note_on channel=3 note=75 velocity=127 time=0.1339285
EXTRACT: note_off channel=3 note=75 velocity=127 time=0.1339285
EXTRACT: note_on channel=3 note=75 velocity=127 time=0
EXTRACT: note_off channel=9 note=35 velocity=127 time=0
EXTRACT: note_off channel=3 note=75 velocity=127 time=0.1339285
EXTRACT: note_on channel=3 note=75 velocity=127 time=0
EXTRACT: note_off channel=3 note=75 velocity=127 time=0.1339285
EXTRACT: note_on channel=3 note=78 velocity=127 time=0
EXTRACT: note_on channel=9 note=38 velocity=127 time=0
EXTRACT: note_on channel=9 note=39 velocity=95 time=0
EXTRACT: note_off channel=3 note=78 velocity=127 time=0.1339285
EXTRACT: note_on channel=3 note=78 velocity=127 time=0
EXTRACT: note_off channel=3 note=78 velocity=127 time=0.1339285
EXTRACT: note_on channel=3 note=80 velocity=127 time=0
EXTRACT: note_off channel=9 note=38 velocity=127 time=0
EXTRACT: note_off channel=9 note=39 velocity=95 time=0
EXTRACT: note_off channel=3 note=80 velocity=127 time=0.267857
EXTRACT: note_on channel=3 note=80 velocity=127 time=0
EXTRACT: note_on channel=9 note=35 velocity=127 time=0
EXTRACT: note_off channel=3 note=80 velocity=127 time=0.267857
EXTRACT: note_off channel=9 note=35 velocity=127 time=0
EXTRACT: note_on channel=2 note=78 velocity=127 time=0.267857
EXTRACT: note_on channel=2 note=75 velocity=127 time=0
EXTRACT: note_on channel=2 note=70 velocity=95 time=0
EXTRACT: note_on channel=3 note=78 velocity=127 time=0
EXTRACT: note_on channel=3 note=75 velocity=127 time=0
EXTRACT: note_on channel=9 note=38 velocity=127 time=0
EXTRACT: note_on channel=9 note=39 velocity=95 time=0
EXTRACT: note_off channel=2 note=78 velocity=127 time=0.267857
EXTRACT: note_off channel=2 note=75 velocity=127 time=0
EXTRACT: note_off channel=2 note=70 velocity=95 time=0
EXTRACT: note_off channel=3 note=78 velocity=127 time=0
EXTRACT: note_off channel=3 note=75 velocity=127 time=0
EXTRACT: note_on channel=3 note=80 velocity=127 time=0
EXTRACT: note_on channel=3 note=76 velocity=127 time=0
EXTRACT: note_off channel=9 note=38 velocity=127 time=0
EXTRACT: note_off channel=9 note=39 velocity=95 time=0
EXTRACT: note_on channel=9 note=44 velocity=127 time=0
EXTRACT: note_off channel=9 note=44 velocity=127 time=0.1339285
EXTRACT: note_on channel=9 note=44 velocity=127 time=0
EXTRACT: note_on channel=0 note=52 velocity=95 time=0.1339285
EXTRACT: note_on channel=0 note=47 velocity=95 time=0
EXTRACT: note_on channel=0 note=40 velocity=95 time=0
EXTRACT: note_on channel=8 note=27 velocity=127 time=0
EXTRACT: note_off channel=3 note=80 velocity=127 time=0
EXTRACT: note_off channel=3 note=76 velocity=127 time=0
EXTRACT: note_on channel=3 note=83 velocity=127 time=0
EXTRACT: note_on channel=3 note=78 velocity=127 time=0
EXTRACT: note_on channel=4 note=68 velocity=95 time=0
EXTRACT: note_on channel=4 note=64 velocity=95 time=0
EXTRACT: note_on channel=4 note=59 velocity=95 time=0
EXTRACT: note_on channel=4 note=56 velocity=95 time=0
EXTRACT: note_on channel=5 note=68 velocity=95 time=0
EXTRACT: note_on channel=5 note=64 velocity=95 time=0
EXTRACT: note_on channel=5 note=59 velocity=95 time=0
EXTRACT: note_on channel=5 note=56 velocity=95 time=0
EXTRACT: note_off channel=9 note=44 velocity=127 time=0
EXTRACT: note_on channel=9 note=44 velocity=127 time=0
EXTRACT: note_on channel=9 note=35 velocity=127 time=0
EXTRACT: note_off channel=8 note=27 velocity=127 time=0.267857
EXTRACT: note_off channel=3 note=83 velocity=127 time=0
EXTRACT: note_off channel=3 note=78 velocity=127 time=0
EXTRACT: note_on channel=3 note=78 velocity=127 time=0
EXTRACT: note_on channel=3 note=75 velocity=127 time=0
EXTRACT: note_off channel=9 note=44 velocity=127 time=0
EXTRACT: note_off channel=9 note=35 velocity=127 time=0
EXTRACT: note_on channel=9 note=44 velocity=127 time=0
EXTRACT: note_off channel=9 note=44 velocity=127 time=0.1339285
EXTRACT: note_off channel=3 note=78 velocity=127 time=0.1339285
EXTRACT: note_off channel=3 note=75 velocity=127 time=0
EXTRACT: note_on channel=3 note=76 velocity=127 time=0
EXTRACT: note_on channel=3 note=73 velocity=127 time=0
EXTRACT: note_on channel=9 note=38 velocity=127 time=0
EXTRACT: note_on channel=9 note=39 velocity=95 time=0
EXTRACT: note_off channel=0 note=52 velocity=95 time=0.267857
EXTRACT: note_off channel=0 note=47 velocity=95 time=0
EXTRACT: note_off channel=0 note=40 velocity=95 time=0
EXTRACT: note_on channel=0 note=59 velocity=95 time=0
EXTRACT: note_on channel=0 note=54 velocity=95 time=0
EXTRACT: note_on channel=0 note=47 velocity=95 time=0
EXTRACT: note_on channel=8 note=27 velocity=127 time=0
EXTRACT: note_off channel=3 note=76 velocity=127 time=0
EXTRACT: note_off channel=3 note=73 velocity=127 time=0
EXTRACT: note_on channel=3 note=78 velocity=127 time=0
EXTRACT: note_on channel=3 note=75 velocity=127 time=0
EXTRACT: note_off channel=4 note=68 velocity=95 time=0
EXTRACT: note_off channel=4 note=64 velocity=95 time=0
EXTRACT: note_off channel=4 note=59 velocity=95 time=0
EXTRACT: note_off channel=4 note=56 velocity=95 time=0
EXTRACT: note_on channel=4 note=71 velocity=95 time=0
EXTRACT: note_on channel=4 note=66 velocity=95 time=0
EXTRACT: note_on channel=4 note=63 velocity=95 time=0
EXTRACT: note_on channel=4 note=59 velocity=95 time=0
EXTRACT: note_off channel=5 note=68 velocity=95 time=0
EXTRACT: note_off channel=5 note=64 velocity=95 time=0
EXTRACT: note_off channel=5 note=59 velocity=95 time=0
EXTRACT: note_off channel=5 note=56 velocity=95 time=0
EXTRACT: note_on channel=5 note=71 velocity=95 time=0
EXTRACT: note_on channel=5 note=66 velocity=95 time=0
EXTRACT: note_on channel=5 note=63 velocity=95 time=0
EXTRACT: note_on channel=5 note=59 velocity=95 time=0
EXTRACT: note_off channel=9 note=38 velocity=127 time=0
EXTRACT: note_off channel=9 note=39 velocity=95 time=0
EXTRACT: note_on channel=9 note=44 velocity=127 time=0
EXTRACT: note_off channel=9 note=44 velocity=127 time=0.1339285
EXTRACT: note_off channel=8 note=27 velocity=127 time=0.1339285
EXTRACT: note_on channel=8 note=35 velocity=127 time=0
EXTRACT: note_on channel=9 note=44 velocity=127 time=0
EXTRACT: note_on channel=9 note=35 velocity=127 time=0
EXTRACT: note_off channel=8 note=35 velocity=127 time=0.1339285
EXTRACT: note_on channel=8 note=30 velocity=127 time=0
EXTRACT: note_off channel=9 note=44 velocity=127 time=0.1339285
EXTRACT: note_off channel=9 note=35 velocity=127 time=0
EXTRACT: note_on channel=9 note=44 velocity=127 time=0
EXTRACT: note_off channel=8 note=30 velocity=127 time=0.1339285
EXTRACT: note_on channel=8 note=35 velocity=127 time=0
EXTRACT: note_off channel=9 note=44 velocity=127 time=0
EXTRACT: note_off channel=3 note=78 velocity=127 time=0.06696425
EXTRACT: note_off channel=3 note=75 velocity=127 time=0
EXTRACT: note_on channel=2 note=78 velocity=127 time=0.06696425
EXTRACT: note_on channel=2 note=75 velocity=127 time=0
EXTRACT: note_on channel=2 note=70 velocity=95 time=0
EXTRACT: note_off channel=8 note=35 velocity=127 time=0
EXTRACT: note_on channel=8 note=30 velocity=127 time=0
EXTRACT: note_on channel=9 note=38 velocity=127 time=0
EXTRACT: note_on channel=9 note=39 velocity=95 time=0
EXTRACT: note_off channel=2 note=78 velocity=127 time=0.267857
EXTRACT: note_off channel=2 note=75 velocity=127 time=0
EXTRACT: note_off channel=2 note=70 velocity=95 time=0
EXTRACT: note_off channel=8 note=30 velocity=127 time=0
EXTRACT: note_on channel=8 note=35 velocity=127 time=0
EXTRACT: note_off channel=9 note=38 velocity=127 time=0
EXTRACT: note_off channel=9 note=39 velocity=95 time=0
EXTRACT: note_on channel=9 note=44 velocity=127 time=0
EXTRACT: note_off channel=9 note=44 velocity=127 time=0.1339285
EXTRACT: note_on channel=9 note=44 velocity=127 time=0
EXTRACT: note_off channel=0 note=59 velocity=95 time=0.1339285
EXTRACT: note_off channel=0 note=54 velocity=95 time=0
EXTRACT: note_off channel=0 note=47 velocity=95 time=0
EXTRACT: note_on channel=0 note=54 velocity=95 time=0
EXTRACT: note_on channel=0 note=49 velocity=95 time=0
EXTRACT: note_on channel=0 note=42 velocity=95 time=0
EXTRACT: note_off channel=8 note=35 velocity=127 time=0
EXTRACT: note_on channel=8 note=30 velocity=127 time=0
EXTRACT: note_off channel=4 note=71 velocity=95 time=0
EXTRACT: note_off channel=4 note=66 velocity=95 time=0
EXTRACT: note_off channel=4 note=63 velocity=95 time=0
EXTRACT: note_off channel=4 note=59 velocity=95 time=0
EXTRACT: note_on channel=4 note=70 velocity=95 time=0
EXTRACT: note_on channel=4 note=66 velocity=95 time=0
EXTRACT: note_on channel=4 note=61 velocity=95 time=0
EXTRACT: note_on channel=4 note=58 velocity=95 time=0
EXTRACT: note_off channel=5 note=71 velocity=95 time=0
EXTRACT: note_off channel=5 note=66 velocity=95 time=0
EXTRACT: note_off channel=5 note=63 velocity=95 time=0
EXTRACT: note_off channel=5 note=59 velocity=95 time=0
EXTRACT: note_on channel=5 note=70 velocity=95 time=0
EXTRACT: note_on channel=5 note=66 velocity=95 time=0
EXTRACT: note_on channel=5 note=61 velocity=95 time=0
EXTRACT: note_on channel=5 note=58 velocity=95 time=0
EXTRACT: note_off channel=9 note=44 velocity=127 time=0
EXTRACT: note_on channel=9 note=44 velocity=127 time=0
EXTRACT: note_on channel=9 note=35 velocity=127 time=0
EXTRACT: note_off channel=8 note=30 velocity=127 time=0.267857
EXTRACT: note_on channel=3 note=78 velocity=127 time=0
EXTRACT: note_off channel=9 note=44 velocity=127 time=0
EXTRACT: note_off channel=9 note=35 velocity=127 time=0
EXTRACT: note_on channel=9 note=44 velocity=127 time=0
EXTRACT: note_off channel=9 note=44 velocity=127 time=0.1339285
EXTRACT: note_off channel=3 note=78 velocity=127 time=0.1339285
EXTRACT: note_on channel=3 note=78 velocity=127 time=0
EXTRACT: note_on channel=9 note=38 velocity=127 time=0
EXTRACT: note_on channel=9 note=39 velocity=95 time=0
EXTRACT: note_off channel=0 note=54 velocity=95 time=0.267857
EXTRACT: note_off channel=0 note=49 velocity=95 time=0
EXTRACT: note_off channel=0 note=42 velocity=95 time=0
EXTRACT: note_on channel=0 note=59 velocity=95 time=0
EXTRACT: note_on channel=0 note=54 velocity=95 time=0
EXTRACT: note_on channel=0 note=47 velocity=95 time=0
EXTRACT: note_on channel=8 note=30 velocity=127 time=0
EXTRACT: note_off channel=3 note=78 velocity=127 time=0
EXTRACT: note_on channel=3 note=78 velocity=127 time=0
EXTRACT: note_off channel=4 note=70 velocity=95 time=0
EXTRACT: note_off channel=4 note=66 velocity=95 time=0
EXTRACT: note_off channel=4 note=61 velocity=95 time=0
EXTRACT: note_off channel=4 note=58 velocity=95 time=0
EXTRACT: note_on channel=4 note=71 velocity=95 time=0
EXTRACT: note_on channel=4 note=66 velocity=95 time=0
EXTRACT: note_on channel=4 note=63 velocity=95 time=0
EXTRACT: note_on channel=4 note=59 velocity=95 time=0
EXTRACT: note_off channel=5 note=70 velocity=95 time=0
EXTRACT: note_off channel=5 note=66 velocity=95 time=0
EXTRACT: note_off channel=5 note=61 velocity=95 time=0
EXTRACT: note_off channel=5 note=58 velocity=95 time=0
EXTRACT: note_on channel=5 note=71 velocity=95 time=0
EXTRACT: note_on channel=5 note=66 velocity=95 time=0
EXTRACT: note_on channel=5 note=63 velocity=95 time=0
EXTRACT: note_on channel=5 note=59 velocity=95 time=0
EXTRACT: note_off channel=9 note=38 velocity=127 time=0
EXTRACT: note_off channel=9 note=39 velocity=95 time=0
EXTRACT: note_on channel=9 note=44 velocity=127 time=0
EXTRACT: note_off channel=9 note=44 velocity=127 time=0.1339285
EXTRACT: note_off channel=8 note=30 velocity=127 time=0.1339285
EXTRACT: note_on channel=8 note=32 velocity=127 time=0
EXTRACT: note_off channel=3 note=78 velocity=127 time=0
EXTRACT: note_on channel=3 note=80 velocity=127 time=0
EXTRACT: note_on channel=9 note=44 velocity=127 time=0
EXTRACT: note_on channel=9 note=35 velocity=127 time=0
EXTRACT: note_off channel=8 note=32 velocity=127 time=0.267857
EXTRACT: note_off channel=3 note=80 velocity=127 time=0
EXTRACT: note_on channel=3 note=78 velocity=127 time=0
EXTRACT: note_off channel=9 note=44 velocity=127 time=0
EXTRACT: note_off channel=9 note=35 velocity=127 time=0
EXTRACT: note_on channel=9 note=44 velocity=127 time=0
EXTRACT: note_off channel=9 note=44 velocity=127 time=0.1339285
EXTRACT: note_on channel=2 note=78 velocity=127 time=0.1339285
EXTRACT: note_on channel=2 note=75 velocity=127 time=0
EXTRACT: note_on channel=2 note=70 velocity=95 time=0
EXTRACT: note_off channel=3 note=78 velocity=127 time=0
EXTRACT: note_on channel=3 note=78 velocity=127 time=0
EXTRACT: note_on channel=9 note=38 velocity=127 time=0
EXTRACT: note_on channel=9 note=39 velocity=95 time=0
EXTRACT: note_off channel=2 note=78 velocity=127 time=0.267857
EXTRACT: note_off channel=2 note=75 velocity=127 time=0
EXTRACT: note_off channel=2 note=70 velocity=95 time=0
EXTRACT: note_on channel=8 note=32 velocity=127 time=0
EXTRACT: note_off channel=3 note=78 velocity=127 time=0
EXTRACT: note_on channel=3 note=78 velocity=127 time=0
EXTRACT: note_off channel=9 note=38 velocity=127 time=0
EXTRACT: note_off channel=9 note=39 velocity=95 time=0
EXTRACT: note_on channel=9 note=44 velocity=127 time=0
EXTRACT: note_off channel=9 note=44 velocity=127 time=0.1339285
EXTRACT: note_on channel=9 note=44 velocity=127 time=0
EXTRACT: note_off channel=0 note=59 velocity=95 time=0.1339285
EXTRACT: note_off channel=0 note=54 velocity=95 time=0
EXTRACT: note_off channel=0 note=47 velocity=95 time=0
EXTRACT: note_on channel=0 note=52 velocity=95 time=0
EXTRACT: note_on channel=0 note=47 velocity=95 time=0
EXTRACT: note_on channel=0 note=40 velocity=95 time=0
EXTRACT: note_off channel=8 note=32 velocity=127 time=0
EXTRACT: note_on channel=8 note=27 velocity=127 time=0
EXTRACT: note_off channel=3 note=78 velocity=127 time=0
EXTRACT: note_off channel=4 note=71 velocity=95 time=0
EXTRACT: note_off channel=4 note=66 velocity=95 time=0
EXTRACT: note_off channel=4 note=63 velocity=95 time=0
EXTRACT: note_off channel=4 note=59 velocity=95 time=0
EXTRACT: note_on channel=4 note=68 velocity=95 time=0
EXTRACT: note_on channel=4 note=64 velocity=95 time=0
EXTRACT: note_on channel=4 note=59 velocity=95 time=0
EXTRACT: note_on channel=4 note=56 velocity=95 time=0
EXTRACT: note_off channel=5 note=71 velocity=95 time=0
EXTRACT: note_off channel=5 note=66 velocity=95 time=0
EXTRACT: note_off channel=5 note=63 velocity=95 time=0
EXTRACT: note_off channel=5 note=59 velocity=95 time=0
EXTRACT: note_on channel=5 note=68 velocity=95 time=0
EXTRACT: note_on channel=5 note=64 velocity=95 time=0
EXTRACT: note_on channel=5 note=59 velocity=95 time=0
EXTRACT: note_on channel=5 note=56 velocity=95 time=0
EXTRACT: note_off channel=9 note=44 velocity=127 time=0
EXTRACT: note_on channel=9 note=44 velocity=127 time=0
EXTRACT: note_on channel=9 note=35 velocity=127 time=0
EXTRACT: note_off channel=8 note=27 velocity=127 time=0.267857
EXTRACT: note_on channel=3 note=78 velocity=127 time=0
EXTRACT: note_off channel=9 note=44 velocity=127 time=0
EXTRACT: note_off channel=9 note=35 velocity=127 time=0
EXTRACT: note_on channel=9 note=44 velocity=127 time=0
EXTRACT: note_off channel=9 note=44 velocity=127 time=0.1339285
EXTRACT: note_off channel=3 note=78 velocity=127 time=0.1339285
EXTRACT: note_on channel=3 note=78 velocity=127 time=0
EXTRACT: note_on channel=9 note=38 velocity=127 time=0
EXTRACT: note_on channel=9 note=39 velocity=95 time=0
EXTRACT: note_off channel=0 note=52 velocity=95 time=0.267857
EXTRACT: note_off channel=0 note=47 velocity=95 time=0
EXTRACT: note_off channel=0 note=40 velocity=95 time=0
EXTRACT: note_on channel=0 note=59 velocity=95 time=0
EXTRACT: note_on channel=0 note=54 velocity=95 time=0
EXTRACT: note_on channel=0 note=47 velocity=95 time=0
EXTRACT: note_on channel=8 note=27 velocity=127 time=0
EXTRACT: note_off channel=3 note=78 velocity=127 time=0
EXTRACT: note_on channel=3 note=80 velocity=127 time=0
EXTRACT: note_off channel=4 note=68 velocity=95 time=0
EXTRACT: note_off channel=4 note=64 velocity=95 time=0
EXTRACT: note_off channel=4 note=59 velocity=95 time=0
EXTRACT: note_off channel=4 note=56 velocity=95 time=0
EXTRACT: note_on channel=4 note=71 velocity=95 time=0
EXTRACT: note_on channel=4 note=66 velocity=95 time=0
EXTRACT: note_on channel=4 note=63 velocity=95 time=0
EXTRACT: note_on channel=4 note=59 velocity=95 time=0
EXTRACT: note_off channel=5 note=68 velocity=95 time=0
EXTRACT: note_off channel=5 note=64 velocity=95 time=0
EXTRACT: note_off channel=5 note=59 velocity=95 time=0
EXTRACT: note_off channel=5 note=56 velocity=95 time=0
EXTRACT: note_on channel=5 note=71 velocity=95 time=0
EXTRACT: note_on channel=5 note=66 velocity=95 time=0
EXTRACT: note_on channel=5 note=63 velocity=95 time=0
EXTRACT: note_on channel=5 note=59 velocity=95 time=0
EXTRACT: note_off channel=9 note=38 velocity=127 time=0
EXTRACT: note_off channel=9 note=39 velocity=95 time=0
EXTRACT: note_on channel=9 note=44 velocity=127 time=0
EXTRACT: note_off channel=9 note=44 velocity=127 time=0.1339285
EXTRACT: note_off channel=8 note=27 velocity=127 time=0.1339285
EXTRACT: note_on channel=8 note=35 velocity=127 time=0
EXTRACT: note_off channel=3 note=80 velocity=127 time=0
EXTRACT: note_on channel=3 note=75 velocity=127 time=0
EXTRACT: note_on channel=9 note=44 velocity=127 time=0
EXTRACT: note_on channel=9 note=35 velocity=127 time=0
EXTRACT: note_off channel=8 note=35 velocity=127 time=0.1339285
EXTRACT: note_on channel=8 note=30 velocity=127 time=0
EXTRACT: note_off channel=3 note=75 velocity=127 time=0.1339285
EXTRACT: note_on channel=3 note=83 velocity=127 time=0
EXTRACT: note_on channel=3 note=78 velocity=127 time=0
EXTRACT: note_off channel=9 note=44 velocity=127 time=0
EXTRACT: note_off channel=9 note=35 velocity=127 time=0
EXTRACT: note_on channel=9 note=44 velocity=127 time=0
EXTRACT: note_off channel=8 note=30 velocity=127 time=0.1339285
EXTRACT: note_on channel=8 note=35 velocity=127 time=0
EXTRACT: note_off channel=9 note=44 velocity=127 time=0
EXTRACT: note_on channel=2 note=78 velocity=127 time=0.1339285
EXTRACT: note_on channel=2 note=75 velocity=127 time=0
EXTRACT: note_on channel=2 note=70 velocity=95 time=0
EXTRACT: note_off channel=8 note=35 velocity=127 time=0
EXTRACT: note_on channel=8 note=30 velocity=127 time=0
EXTRACT: note_off channel=3 note=83 velocity=127 time=0
EXTRACT: note_off channel=3 note=78 velocity=127 time=0
EXTRACT: note_on channel=3 note=83 velocity=127 time=0
EXTRACT: note_on channel=3 note=78 velocity=127 time=0
EXTRACT: note_on channel=9 note=38 velocity=127 time=0
EXTRACT: note_on channel=9 note=39 velocity=95 time=0
EXTRACT: note_off channel=2 note=78 velocity=127 time=0.267857
EXTRACT: note_off channel=2 note=75 velocity=127 time=0
EXTRACT: note_off channel=2 note=70 velocity=95 time=0
EXTRACT: note_off channel=8 note=30 velocity=127 time=0
EXTRACT: note_on channel=8 note=35 velocity=127 time=0
EXTRACT: note_off channel=3 note=83 velocity=127 time=0
EXTRACT: note_off channel=3 note=78 velocity=127 time=0
EXTRACT: note_on channel=3 note=83 velocity=127 time=0
EXTRACT: note_on channel=3 note=78 velocity=127 time=0
EXTRACT: note_off channel=9 note=38 velocity=127 time=0
EXTRACT: note_off channel=9 note=39 velocity=95 time=0
EXTRACT: note_on channel=9 note=44 velocity=127 time=0
EXTRACT: note_off channel=9 note=44 velocity=127 time=0.1339285
EXTRACT: note_on channel=9 note=44 velocity=127 time=0
EXTRACT: note_off channel=0 note=59 velocity=95 time=0.1339285
EXTRACT: note_off channel=0 note=54 velocity=95 time=0
EXTRACT: note_off channel=0 note=47 velocity=95 time=0
EXTRACT: note_on channel=0 note=54 velocity=95 time=0
EXTRACT: note_on channel=0 note=49 velocity=95 time=0
EXTRACT: note_on channel=0 note=42 velocity=95 time=0
EXTRACT: note_off channel=8 note=35 velocity=127 time=0
EXTRACT: note_on channel=8 note=30 velocity=127 time=0
EXTRACT: note_off channel=3 note=83 velocity=127 time=0
EXTRACT: note_off channel=3 note=78 velocity=127 time=0
EXTRACT: note_on channel=3 note=80 velocity=127 time=0
EXTRACT: note_on channel=3 note=75 velocity=127 time=0
EXTRACT: note_off channel=4 note=71 velocity=95 time=0
EXTRACT: note_off channel=4 note=66 velocity=95 time=0
EXTRACT: note_off channel=4 note=63 velocity=95 time=0
EXTRACT: note_off channel=4 note=59 velocity=95 time=0
EXTRACT: note_on channel=4 note=70 velocity=95 time=0
EXTRACT: note_on channel=4 note=66 velocity=95 time=0
EXTRACT: note_on channel=4 note=61 velocity=95 time=0
EXTRACT: note_on channel=4 note=58 velocity=95 time=0
EXTRACT: note_off channel=5 note=71 velocity=95 time=0
EXTRACT: note_off channel=5 note=66 velocity=95 time=0
EXTRACT: note_off channel=5 note=63 velocity=95 time=0
EXTRACT: note_off channel=5 note=59 velocity=95 time=0
EXTRACT: note_on channel=5 note=70 velocity=95 time=0
EXTRACT: note_on channel=5 note=66 velocity=95 time=0
EXTRACT: note_on channel=5 note=61 velocity=95 time=0
EXTRACT: note_on channel=5 note=58 velocity=95 time=0
EXTRACT: note_off channel=9 note=44 velocity=127 time=0
EXTRACT: note_on channel=9 note=44 velocity=127 time=0
EXTRACT: note_on channel=9 note=35 velocity=127 time=0
EXTRACT: note_off channel=8 note=30 velocity=127 time=0.267857
EXTRACT: note_off channel=3 note=80 velocity=127 time=0
EXTRACT: note_off channel=3 note=75 velocity=127 time=0
EXTRACT: note_on channel=3 note=78 velocity=127 time=0
EXTRACT: note_on channel=3 note=75 velocity=127 time=0
EXTRACT: note_on channel=3 note=73 velocity=127 time=0
EXTRACT: note_off channel=9 note=44 velocity=127 time=0
EXTRACT: note_off channel=9 note=35 velocity=127 time=0
EXTRACT: note_on channel=9 note=44 velocity=127 time=0
EXTRACT: note_off channel=9 note=44 velocity=127 time=0.1339285
EXTRACT: note_off channel=3 note=78 velocity=127 time=0.1339285
EXTRACT: note_off channel=3 note=75 velocity=127 time=0
EXTRACT: note_off channel=3 note=73 velocity=127 time=0
EXTRACT: note_on channel=3 note=78 velocity=127 time=0
EXTRACT: note_on channel=9 note=38 velocity=127 time=0
EXTRACT: note_on channel=9 note=39 velocity=95 time=0
EXTRACT: note_off channel=0 note=54 velocity=95 time=0.267857
EXTRACT: note_off channel=0 note=49 velocity=95 time=0
EXTRACT: note_off channel=0 note=42 velocity=95 time=0
EXTRACT: note_on channel=0 note=59 velocity=95 time=0
EXTRACT: note_on channel=0 note=54 velocity=95 time=0
EXTRACT: note_on channel=0 note=47 velocity=95 time=0
EXTRACT: note_on channel=8 note=30 velocity=127 time=0
EXTRACT: note_off channel=3 note=78 velocity=127 time=0
EXTRACT: note_on channel=3 note=78 velocity=127 time=0
EXTRACT: note_off channel=4 note=70 velocity=95 time=0
EXTRACT: note_off channel=4 note=66 velocity=95 time=0
EXTRACT: note_off channel=4 note=61 velocity=95 time=0
EXTRACT: note_off channel=4 note=58 velocity=95 time=0
EXTRACT: note_on channel=4 note=71 velocity=95 time=0
EXTRACT: note_on channel=4 note=66 velocity=95 time=0
EXTRACT: note_on channel=4 note=63 velocity=95 time=0
EXTRACT: note_on channel=4 note=59 velocity=95 time=0
EXTRACT: note_off channel=5 note=70 velocity=95 time=0
EXTRACT: note_off channel=5 note=66 velocity=95 time=0
EXTRACT: note_off channel=5 note=61 velocity=95 time=0
EXTRACT: note_off channel=5 note=58 velocity=95 time=0
EXTRACT: note_on channel=5 note=71 velocity=95 time=0
EXTRACT: note_on channel=5 note=66 velocity=95 time=0
EXTRACT: note_on channel=5 note=63 velocity=95 time=0
EXTRACT: note_on channel=5 note=59 velocity=95 time=0
EXTRACT: note_off channel=9 note=38 velocity=127 time=0
EXTRACT: note_off channel=9 note=39 velocity=95 time=0
EXTRACT: note_on channel=9 note=44 velocity=127 time=0
EXTRACT: note_off channel=9 note=44 velocity=127 time=0.1339285
EXTRACT: note_off channel=8 note=30 velocity=127 time=0.1339285
EXTRACT: note_on channel=8 note=32 velocity=127 time=0
EXTRACT: note_off channel=3 note=78 velocity=127 time=0
EXTRACT: note_on channel=3 note=80 velocity=127 time=0
EXTRACT: note_on channel=9 note=44 velocity=127 time=0
EXTRACT: note_on channel=9 note=35 velocity=127 time=0
EXTRACT: note_off channel=8 note=32 velocity=127 time=0.267857
EXTRACT: note_off channel=3 note=80 velocity=127 time=0
EXTRACT: note_on channel=3 note=83 velocity=127 time=0
EXTRACT: note_off channel=9 note=44 velocity=127 time=0
EXTRACT: note_off channel=9 note=35 velocity=127 time=0
EXTRACT: note_on channel=9 note=44 velocity=127 time=0
EXTRACT: note_off channel=9 note=44 velocity=127 time=0.1339285
EXTRACT: note_on channel=2 note=78 velocity=127 time=0.1339285
EXTRACT: note_on channel=2 note=75 velocity=127 time=0
EXTRACT: note_on channel=2 note=70 velocity=95 time=0
EXTRACT: note_on channel=9 note=38 velocity=127 time=0
EXTRACT: note_on channel=9 note=39 velocity=95 time=0
EXTRACT: note_off channel=2 note=78 velocity=127 time=0.267857
EXTRACT: note_off channel=2 note=75 velocity=127 time=0
EXTRACT: note_off channel=2 note=70 velocity=95 time=0
EXTRACT: note_on channel=8 note=32 velocity=127 time=0
EXTRACT: note_off channel=3 note=83 velocity=127 time=0
EXTRACT: note_off channel=9 note=38 velocity=127 time=0
EXTRACT: note_off channel=9 note=39 velocity=95 time=0
EXTRACT: note_on channel=9 note=44 velocity=127 time=0
EXTRACT: note_off channel=9 note=44 velocity=127 time=0.1339285
EXTRACT: note_on channel=9 note=44 velocity=127 time=0
EXTRACT: note_off channel=0 note=59 velocity=95 time=0.1339285
EXTRACT: note_off channel=0 note=54 velocity=95 time=0
EXTRACT: note_off channel=0 note=47 velocity=95 time=0
EXTRACT: note_on channel=0 note=52 velocity=95 time=0
EXTRACT: note_on channel=0 note=47 velocity=95 time=0
EXTRACT: note_on channel=0 note=40 velocity=95 time=0
EXTRACT: note_off channel=8 note=32 velocity=127 time=0
EXTRACT: note_on channel=8 note=27 velocity=127 time=0
EXTRACT: note_off channel=4 note=71 velocity=95 time=0
EXTRACT: note_off channel=4 note=66 velocity=95 time=0
EXTRACT: note_off channel=4 note=63 velocity=95 time=0
EXTRACT: note_off channel=4 note=59 velocity=95 time=0
EXTRACT: note_on channel=4 note=68 velocity=95 time=0
EXTRACT: note_on channel=4 note=64 velocity=95 time=0
EXTRACT: note_on channel=4 note=59 velocity=95 time=0
EXTRACT: note_on channel=4 note=56 velocity=95 time=0
EXTRACT: note_off channel=5 note=71 velocity=95 time=0
EXTRACT: note_off channel=5 note=66 velocity=95 time=0
EXTRACT: note_off channel=5 note=63 velocity=95 time=0
EXTRACT: note_off channel=5 note=59 velocity=95 time=0
EXTRACT: note_on channel=5 note=68 velocity=95 time=0
EXTRACT: note_on channel=5 note=64 velocity=95 time=0
EXTRACT: note_on channel=5 note=59 velocity=95 time=0
EXTRACT: note_on channel=5 note=56 velocity=95 time=0
EXTRACT: note_off channel=9 note=44 velocity=127 time=0
EXTRACT: note_on channel=9 note=44 velocity=127 time=0
EXTRACT: note_on channel=9 note=35 velocity=127 time=0
EXTRACT: note_on channel=3 note=75 velocity=127 time=0.1339285
EXTRACT: note_off channel=8 note=27 velocity=127 time=0.1339285
EXTRACT: note_off channel=3 note=75 velocity=127 time=0
EXTRACT: note_on channel=3 note=75 velocity=127 time=0
EXTRACT: note_off channel=9 note=44 velocity=127 time=0
EXTRACT: note_off channel=9 note=35 velocity=127 time=0
EXTRACT: note_on channel=9 note=44 velocity=127 time=0
EXTRACT: note_off channel=9 note=44 velocity=127 time=0.1339285
EXTRACT: note_off channel=3 note=75 velocity=127 time=0.1339285
EXTRACT: note_on channel=3 note=78 velocity=127 time=0
EXTRACT: note_on channel=9 note=38 velocity=127 time=0
EXTRACT: note_on channel=9 note=39 velocity=95 time=0
EXTRACT: note_off channel=0 note=52 velocity=95 time=0.267857
EXTRACT: note_off channel=0 note=47 velocity=95 time=0
EXTRACT: note_off channel=0 note=40 velocity=95 time=0
EXTRACT: note_on channel=0 note=59 velocity=95 time=0
EXTRACT: note_on channel=0 note=54 velocity=95 time=0
EXTRACT: note_on channel=0 note=47 velocity=95 time=0
EXTRACT: note_on channel=8 note=27 velocity=127 time=0
EXTRACT: note_off channel=3 note=78 velocity=127 time=0
EXTRACT: note_on channel=3 note=80 velocity=127 time=0
EXTRACT: note_off channel=4 note=68 velocity=95 time=0
EXTRACT: note_off channel=4 note=64 velocity=95 time=0
EXTRACT: note_off channel=4 note=59 velocity=95 time=0
EXTRACT: note_off channel=4 note=56 velocity=95 time=0
EXTRACT: note_on channel=4 note=71 velocity=95 time=0
EXTRACT: note_on channel=4 note=66 velocity=95 time=0
EXTRACT: note_on channel=4 note=63 velocity=95 time=0
EXTRACT: note_on channel=4 note=59 velocity=95 time=0
EXTRACT: note_off channel=5 note=68 velocity=95 time=0
EXTRACT: note_off channel=5 note=64 velocity=95 time=0
EXTRACT: note_off channel=5 note=59 velocity=95 time=0
EXTRACT: note_off channel=5 note=56 velocity=95 time=0
EXTRACT: note_on channel=5 note=71 velocity=95 time=0
EXTRACT: note_on channel=5 note=66 velocity=95 time=0
EXTRACT: note_on channel=5 note=63 velocity=95 time=0
EXTRACT: note_on channel=5 note=59 velocity=95 time=0
EXTRACT: note_off channel=9 note=38 velocity=127 time=0
EXTRACT: note_off channel=9 note=39 velocity=95 time=0
EXTRACT: note_on channel=9 note=44 velocity=127 time=0
EXTRACT: note_off channel=9 note=44 velocity=127 time=0.1339285
EXTRACT: note_off channel=8 note=27 velocity=127 time=0.1339285
EXTRACT: note_on channel=8 note=35 velocity=127 time=0
EXTRACT: note_off channel=3 note=80 velocity=127 time=0
EXTRACT: note_on channel=3 note=80 velocity=127 time=0
EXTRACT: note_on channel=9 note=44 velocity=127 time=0
EXTRACT: note_on channel=9 note=35 velocity=127 time=0
EXTRACT: note_off channel=8 note=35 velocity=127 time=0.1339285
EXTRACT: note_on channel=8 note=30 velocity=127 time=0
EXTRACT: note_off channel=9 note=44 velocity=127 time=0.1339285
EXTRACT: note_off channel=9 note=35 velocity=127 time=0
EXTRACT: note_on channel=9 note=44 velocity=127 time=0
EXTRACT: note_off channel=8 note=30 velocity=127 time=0.1339285
EXTRACT: note_on channel=8 note=35 velocity=127 time=0
EXTRACT: note_off channel=9 note=44 velocity=127 time=0
EXTRACT: note_on channel=2 note=78 velocity=127 time=0.1339285
EXTRACT: note_on channel=2 note=75 velocity=127 time=0
EXTRACT: note_on channel=2 note=70 velocity=95 time=0
EXTRACT: note_off channel=8 note=35 velocity=127 time=0
EXTRACT: note_on channel=8 note=30 velocity=127 time=0
EXTRACT: note_on channel=9 note=38 velocity=127 time=0
EXTRACT: note_on channel=9 note=39 velocity=95 time=0
EXTRACT: note_off channel=3 note=80 velocity=127 time=0.20089275
EXTRACT: note_off channel=2 note=78 velocity=127 time=0.06696425
EXTRACT: note_off channel=2 note=75 velocity=127 time=0
EXTRACT: note_off channel=2 note=70 velocity=95 time=0
EXTRACT: note_off channel=8 note=30 velocity=127 time=0
EXTRACT: note_on channel=8 note=35 velocity=127 time=0
EXTRACT: note_off channel=9 note=38 velocity=127 time=0
EXTRACT: note_off channel=9 note=39 velocity=95 time=0
EXTRACT: note_on channel=9 note=44 velocity=127 time=0
EXTRACT: note_off channel=9 note=44 velocity=127 time=0.1339285
EXTRACT: note_on channel=9 note=44 velocity=127 time=0
EXTRACT: note_off channel=0 note=59 velocity=95 time=0.1339285
EXTRACT: note_off channel=0 note=54 velocity=95 time=0
EXTRACT: note_off channel=0 note=47 velocity=95 time=0
EXTRACT: note_on channel=0 note=54 velocity=95 time=0
EXTRACT: note_on channel=0 note=49 velocity=95 time=0
EXTRACT: note_on channel=0 note=42 velocity=95 time=0
EXTRACT: note_off channel=8 note=35 velocity=127 time=0
EXTRACT: note_on channel=8 note=30 velocity=127 time=0
EXTRACT: note_on channel=3 note=78 velocity=127 time=0
EXTRACT: note_off channel=4 note=71 velocity=95 time=0
EXTRACT: note_off channel=4 note=66 velocity=95 time=0
EXTRACT: note_off channel=4 note=63 velocity=95 time=0
EXTRACT: note_off channel=4 note=59 velocity=95 time=0
EXTRACT: note_on channel=4 note=70 velocity=95 time=0
EXTRACT: note_on channel=4 note=66 velocity=95 time=0
EXTRACT: note_on channel=4 note=61 velocity=95 time=0
EXTRACT: note_on channel=4 note=58 velocity=95 time=0
EXTRACT: note_off channel=5 note=71 velocity=95 time=0
EXTRACT: note_off channel=5 note=66 velocity=95 time=0
EXTRACT: note_off channel=5 note=63 velocity=95 time=0
EXTRACT: note_off channel=5 note=59 velocity=95 time=0
EXTRACT: note_on channel=5 note=70 velocity=95 time=0
EXTRACT: note_on channel=5 note=66 velocity=95 time=0
EXTRACT: note_on channel=5 note=61 velocity=95 time=0
EXTRACT: note_on channel=5 note=58 velocity=95 time=0
EXTRACT: note_off channel=9 note=44 velocity=127 time=0
EXTRACT: note_on channel=9 note=44 velocity=127 time=0
EXTRACT: note_on channel=9 note=35 velocity=127 time=0
EXTRACT: note_off channel=8 note=30 velocity=127 time=0.267857
EXTRACT: note_off channel=3 note=78 velocity=127 time=0
EXTRACT: note_on channel=3 note=78 velocity=127 time=0
EXTRACT: note_off channel=9 note=44 velocity=127 time=0
EXTRACT: note_off channel=9 note=35 velocity=127 time=0
EXTRACT: note_on channel=9 note=44 velocity=127 time=0
EXTRACT: note_off channel=9 note=44 velocity=127 time=0.1339285
EXTRACT: note_off channel=3 note=78 velocity=127 time=0.1339285
EXTRACT: note_on channel=3 note=78 velocity=127 time=0
EXTRACT: note_on channel=9 note=38 velocity=127 time=0
EXTRACT: note_on channel=9 note=39 velocity=95 time=0
EXTRACT: note_off channel=0 note=54 velocity=95 time=0.267857
EXTRACT: note_off channel=0 note=49 velocity=95 time=0
EXTRACT: note_off channel=0 note=42 velocity=95 time=0
EXTRACT: note_on channel=0 note=59 velocity=95 time=0
EXTRACT: note_on channel=0 note=54 velocity=95 time=0
EXTRACT: note_on channel=0 note=47 velocity=95 time=0
EXTRACT: note_on channel=8 note=30 velocity=127 time=0
EXTRACT: note_off channel=3 note=78 velocity=127 time=0
EXTRACT: note_on channel=3 note=78 velocity=127 time=0
EXTRACT: note_off channel=4 note=70 velocity=95 time=0
EXTRACT: note_off channel=4 note=66 velocity=95 time=0
EXTRACT: note_off channel=4 note=61 velocity=95 time=0
EXTRACT: note_off channel=4 note=58 velocity=95 time=0
EXTRACT: note_on channel=4 note=71 velocity=95 time=0
EXTRACT: note_on channel=4 note=66 velocity=95 time=0
EXTRACT: note_on channel=4 note=63 velocity=95 time=0
EXTRACT: note_on channel=4 note=59 velocity=95 time=0
EXTRACT: note_off channel=5 note=70 velocity=95 time=0
EXTRACT: note_off channel=5 note=66 velocity=95 time=0
EXTRACT: note_off channel=5 note=61 velocity=95 time=0
EXTRACT: note_off channel=5 note=58 velocity=95 time=0
EXTRACT: note_on channel=5 note=71 velocity=95 time=0
EXTRACT: note_on channel=5 note=66 velocity=95 time=0
EXTRACT: note_on channel=5 note=63 velocity=95 time=0
EXTRACT: note_on channel=5 note=59 velocity=95 time=0
EXTRACT: note_off channel=9 note=38 velocity=127 time=0
EXTRACT: note_off channel=9 note=39 velocity=95 time=0
EXTRACT: note_on channel=9 note=44 velocity=127 time=0
EXTRACT: note_off channel=9 note=44 velocity=127 time=0.1339285
EXTRACT: note_off channel=8 note=30 velocity=127 time=0.1339285
EXTRACT: note_on channel=8 note=32 velocity=127 time=0
EXTRACT: note_off channel=3 note=78 velocity=127 time=0
EXTRACT: note_on channel=3 note=80 velocity=127 time=0
EXTRACT: note_on channel=9 note=44 velocity=127 time=0
EXTRACT: note_on channel=9 note=35 velocity=127 time=0
EXTRACT: note_off channel=8 note=32 velocity=127 time=0.267857
EXTRACT: note_off channel=3 note=80 velocity=127 time=0
EXTRACT: note_on channel=3 note=78 velocity=127 time=0
EXTRACT: note_off channel=9 note=44 velocity=127 time=0
EXTRACT: note_off channel=9 note=35 velocity=127 time=0
EXTRACT: note_on channel=9 note=44 velocity=127 time=0
EXTRACT: note_off channel=9 note=44 velocity=127 time=0.1339285
EXTRACT: note_on channel=2 note=78 velocity=127 time=0.1339285
EXTRACT: note_on channel=2 note=75 velocity=127 time=0
EXTRACT: note_on channel=2 note=70 velocity=95 time=0
EXTRACT: note_off channel=3 note=78 velocity=127 time=0
EXTRACT: note_on channel=3 note=76 velocity=127 time=0
EXTRACT: note_on channel=9 note=38 velocity=127 time=0
EXTRACT: note_on channel=9 note=39 velocity=95 time=0
EXTRACT: note_off channel=2 note=78 velocity=127 time=0.267857
EXTRACT: note_off channel=2 note=75 velocity=127 time=0
EXTRACT: note_off channel=2 note=70 velocity=95 time=0
EXTRACT: note_on channel=8 note=32 velocity=127 time=0
EXTRACT: note_off channel=3 note=76 velocity=127 time=0
EXTRACT: note_on channel=3 note=75 velocity=127 time=0
EXTRACT: note_off channel=9 note=38 velocity=127 time=0
EXTRACT: note_off channel=9 note=39 velocity=95 time=0
EXTRACT: note_on channel=9 note=44 velocity=127 time=0
EXTRACT: note_off channel=9 note=44 velocity=127 time=0.1339285
EXTRACT: note_on channel=9 note=44 velocity=127 time=0
EXTRACT: note_off channel=0 note=59 velocity=95 time=0.1339285
EXTRACT: note_off channel=0 note=54 velocity=95 time=0
EXTRACT: note_off channel=0 note=47 velocity=95 time=0
EXTRACT: note_on channel=0 note=52 velocity=95 time=0
EXTRACT: note_on channel=0 note=47 velocity=95 time=0
EXTRACT: note_on channel=0 note=40 velocity=95 time=0
EXTRACT: note_off channel=8 note=32 velocity=127 time=0
EXTRACT: note_on channel=8 note=27 velocity=127 time=0
EXTRACT: note_off channel=3 note=75 velocity=127 time=0
EXTRACT: note_on channel=3 note=73 velocity=127 time=0
EXTRACT: note_off channel=4 note=71 velocity=95 time=0
EXTRACT: note_off channel=4 note=66 velocity=95 time=0
EXTRACT: note_off channel=4 note=63 velocity=95 time=0
EXTRACT: note_off channel=4 note=59 velocity=95 time=0
EXTRACT: note_on channel=4 note=68 velocity=95 time=0
EXTRACT: note_on channel=4 note=64 velocity=95 time=0
EXTRACT: note_on channel=4 note=59 velocity=95 time=0
EXTRACT: note_on channel=4 note=56 velocity=95 time=0
EXTRACT: note_off channel=5 note=71 velocity=95 time=0
EXTRACT: note_off channel=5 note=66 velocity=95 time=0
EXTRACT: note_off channel=5 note=63 velocity=95 time=0
EXTRACT: note_off channel=5 note=59 velocity=95 time=0
EXTRACT: note_on channel=5 note=68 velocity=95 time=0
EXTRACT: note_on channel=5 note=64 velocity=95 time=0
EXTRACT: note_on channel=5 note=59 velocity=95 time=0
EXTRACT: note_on channel=5 note=56 velocity=95 time=0
EXTRACT: note_off channel=9 note=44 velocity=127 time=0
EXTRACT: note_on channel=9 note=44 velocity=127 time=0
EXTRACT: note_on channel=9 note=35 velocity=127 time=0
EXTRACT: note_off channel=8 note=27 velocity=127 time=0.267857
EXTRACT: note_off channel=9 note=44 velocity=127 time=0
EXTRACT: note_off channel=9 note=35 velocity=127 time=0
EXTRACT: note_on channel=9 note=44 velocity=127 time=0
EXTRACT: note_off channel=3 note=73 velocity=127 time=0.1339285
EXTRACT: note_on channel=3 note=78 velocity=127 time=0
EXTRACT: note_off channel=9 note=44 velocity=127 time=0
EXTRACT: note_on channel=9 note=38 velocity=127 time=0.1339285
EXTRACT: note_on channel=9 note=39 velocity=95 time=0
EXTRACT: note_off channel=0 note=52 velocity=95 time=0.267857
EXTRACT: note_off channel=0 note=47 velocity=95 time=0
EXTRACT: note_off channel=0 note=40 velocity=95 time=0
EXTRACT: note_on channel=0 note=59 velocity=95 time=0
EXTRACT: note_on channel=0 note=54 velocity=95 time=0
EXTRACT: note_on channel=0 note=47 velocity=95 time=0
EXTRACT: note_on channel=8 note=27 velocity=127 time=0
EXTRACT: note_off channel=3 note=78 velocity=127 time=0
EXTRACT: note_on channel=3 note=75 velocity=127 time=0
EXTRACT: note_off channel=4 note=68 velocity=95 time=0
EXTRACT: note_off channel=4 note=64 velocity=95 time=0
EXTRACT: note_off channel=4 note=59 velocity=95 time=0
EXTRACT: note_off channel=4 note=56 velocity=95 time=0
EXTRACT: note_on channel=4 note=71 velocity=95 time=0
EXTRACT: note_on channel=4 note=66 velocity=95 time=0
EXTRACT: note_on channel=4 note=63 velocity=95 time=0
EXTRACT: note_on channel=4 note=59 velocity=95 time=0
EXTRACT: note_off channel=5 note=68 velocity=95 time=0
EXTRACT: note_off channel=5 note=64 velocity=95 time=0
EXTRACT: note_off channel=5 note=59 velocity=95 time=0
EXTRACT: note_off channel=5 note=56 velocity=95 time=0
EXTRACT: note_on channel=5 note=71 velocity=95 time=0
EXTRACT: note_on channel=5 note=66 velocity=95 time=0
EXTRACT: note_on channel=5 note=63 velocity=95 time=0
EXTRACT: note_on channel=5 note=59 velocity=95 time=0
EXTRACT: note_off channel=9 note=38 velocity=127 time=0
EXTRACT: note_off channel=9 note=39 velocity=95 time=0
EXTRACT: note_on channel=9 note=44 velocity=127 time=0
EXTRACT: note_off channel=9 note=44 velocity=127 time=0.1339285
EXTRACT: note_off channel=8 note=27 velocity=127 time=0.1339285
EXTRACT: note_on channel=8 note=35 velocity=127 time=0
EXTRACT: note_on channel=9 note=44 velocity=127 time=0
EXTRACT: note_on channel=9 note=35 velocity=127 time=0
EXTRACT: note_off channel=8 note=35 velocity=127 time=0.1339285
EXTRACT: note_on channel=8 note=30 velocity=127 time=0
EXTRACT: note_off channel=3 note=75 velocity=127 time=0.1339285
EXTRACT: note_off channel=9 note=44 velocity=127 time=0
EXTRACT: note_off channel=9 note=35 velocity=127 time=0
EXTRACT: note_on channel=9 note=44 velocity=127 time=0
EXTRACT: note_off channel=8 note=30 velocity=127 time=0.1339285
EXTRACT: note_on channel=8 note=35 velocity=127 time=0
EXTRACT: note_off channel=9 note=44 velocity=127 time=0
EXTRACT: note_on channel=2 note=78 velocity=127 time=0.1339285
EXTRACT: note_on channel=2 note=75 velocity=127 time=0
EXTRACT: note_on channel=2 note=70 velocity=95 time=0
EXTRACT: note_off channel=8 note=35 velocity=127 time=0
EXTRACT: note_on channel=8 note=30 velocity=127 time=0
EXTRACT: note_on channel=9 note=38 velocity=127 time=0
EXTRACT: note_on channel=9 note=39 velocity=95 time=0
EXTRACT: note_off channel=2 note=78 velocity=127 time=0.267857
EXTRACT: note_off channel=2 note=75 velocity=127 time=0
EXTRACT: note_off channel=2 note=70 velocity=95 time=0
EXTRACT: note_off channel=8 note=30 velocity=127 time=0
EXTRACT: note_on channel=8 note=35 velocity=127 time=0
EXTRACT: note_off channel=9 note=38 velocity=127 time=0
EXTRACT: note_off channel=9 note=39 velocity=95 time=0
EXTRACT: note_on channel=9 note=44 velocity=127 time=0
EXTRACT: note_off channel=9 note=44 velocity=127 time=0.1339285
EXTRACT: note_on channel=9 note=44 velocity=127 time=0
EXTRACT: note_off channel=0 note=59 velocity=95 time=0.1339285
EXTRACT: note_off channel=0 note=54 velocity=95 time=0
EXTRACT: note_off channel=0 note=47 velocity=95 time=0
EXTRACT: note_on channel=0 note=47 velocity=95 time=0
EXTRACT: note_off channel=8 note=35 velocity=127 time=0
EXTRACT: note_on channel=8 note=35 velocity=127 time=0
EXTRACT: note_off channel=4 note=71 velocity=95 time=0
EXTRACT: note_off channel=4 note=66 velocity=95 time=0
EXTRACT: note_off channel=4 note=63 velocity=95 time=0
EXTRACT: note_off channel=4 note=59 velocity=95 time=0
EXTRACT: note_on channel=4 note=47 velocity=95 time=0
EXTRACT: note_off channel=5 note=71 velocity=95 time=0
EXTRACT: note_off channel=5 note=66 velocity=95 time=0
EXTRACT: note_off channel=5 note=63 velocity=95 time=0
EXTRACT: note_off channel=5 note=59 velocity=95 time=0
EXTRACT: note_off channel=9 note=44 velocity=127 time=0
EXTRACT: note_on channel=9 note=44 velocity=127 time=0
EXTRACT: note_on channel=9 note=54 velocity=127 time=0
EXTRACT: note_on channel=9 note=35 velocity=127 time=0
EXTRACT: note_off channel=9 note=44 velocity=127 time=0.1339285
EXTRACT: note_off channel=9 note=54 velocity=127 time=0
EXTRACT: note_off channel=9 note=35 velocity=127 time=0
EXTRACT: note_on channel=9 note=54 velocity=127 time=0
EXTRACT: note_off channel=0 note=47 velocity=95 time=0.1339285
EXTRACT: note_off channel=8 note=35 velocity=127 time=0
EXTRACT: note_off channel=4 note=47 velocity=95 time=0
EXTRACT: note_off channel=9 note=54 velocity=127 time=0
EXTRACT: note_on channel=9 note=44 velocity=127 time=0
EXTRACT: note_on channel=9 note=54 velocity=127 time=0
EXTRACT: note_off channel=9 note=44 velocity=127 time=0.1339285
EXTRACT: note_off channel=9 note=54 velocity=127 time=0
EXTRACT: note_on channel=9 note=54 velocity=127 time=0
EXTRACT: note_off channel=9 note=54 velocity=127 time=0.1339285
EXTRACT: note_on channel=9 note=38 velocity=127 time=0
EXTRACT: note_on channel=9 note=39 velocity=95 time=0
EXTRACT: note_on channel=9 note=54 velocity=127 time=0
EXTRACT: note_off channel=9 note=38 velocity=127 time=0.1339285
EXTRACT: note_off channel=9 note=39 velocity=95 time=0
EXTRACT: note_off channel=9 note=54 velocity=127 time=0
EXTRACT: note_on channel=9 note=54 velocity=127 time=0
EXTRACT: note_on channel=0 note=47 velocity=95 time=0.1339285
EXTRACT: note_on channel=8 note=35 velocity=127 time=0
EXTRACT: note_on channel=4 note=47 velocity=95 time=0
EXTRACT: note_off channel=9 note=54 velocity=127 time=0
EXTRACT: note_on channel=9 note=44 velocity=127 time=0
EXTRACT: note_on channel=9 note=54 velocity=127 time=0
EXTRACT: note_off channel=9 note=44 velocity=127 time=0.1339285
EXTRACT: note_off channel=9 note=54 velocity=127 time=0
EXTRACT: note_on channel=9 note=54 velocity=127 time=0
EXTRACT: note_off channel=0 note=47 velocity=95 time=0.1339285
EXTRACT: note_on channel=0 note=50 velocity=95 time=0
EXTRACT: note_off channel=8 note=35 velocity=127 time=0
EXTRACT: note_on channel=8 note=38 velocity=127 time=0
EXTRACT: note_off channel=4 note=47 velocity=95 time=0
EXTRACT: note_on channel=4 note=50 velocity=95 time=0
EXTRACT: note_off channel=9 note=54 velocity=127 time=0
EXTRACT: note_on channel=9 note=44 velocity=127 time=0
EXTRACT: note_on channel=9 note=54 velocity=127 time=0
EXTRACT: note_on channel=9 note=35 velocity=127 time=0
EXTRACT: note_off channel=9 note=44 velocity=127 time=0.1339285
EXTRACT: note_off channel=9 note=54 velocity=127 time=0
EXTRACT: note_off channel=9 note=35 velocity=127 time=0
EXTRACT: note_on channel=9 note=54 velocity=127 time=0
EXTRACT: note_off channel=0 note=50 velocity=95 time=0.1339285
EXTRACT: note_off channel=8 note=38 velocity=127 time=0
EXTRACT: note_off channel=4 note=50 velocity=95 time=0
EXTRACT: note_off channel=9 note=54 velocity=127 time=0
EXTRACT: note_on channel=9 note=44 velocity=127 time=0
EXTRACT: note_on channel=9 note=54 velocity=127 time=0
EXTRACT: note_off channel=9 note=44 velocity=127 time=0.1339285
EXTRACT: note_off channel=9 note=54 velocity=127 time=0
EXTRACT: note_on channel=9 note=54 velocity=127 time=0
EXTRACT: note_off channel=9 note=54 velocity=127 time=0.1339285
EXTRACT: note_on channel=9 note=38 velocity=127 time=0
EXTRACT: note_on channel=9 note=39 velocity=95 time=0
EXTRACT: note_on channel=9 note=54 velocity=127 time=0
EXTRACT: note_off channel=9 note=38 velocity=127 time=0.1339285
EXTRACT: note_off channel=9 note=39 velocity=95 time=0
EXTRACT: note_off channel=9 note=54 velocity=127 time=0
EXTRACT: note_on channel=9 note=54 velocity=127 time=0
EXTRACT: note_on channel=0 note=50 velocity=95 time=0.1339285
EXTRACT: note_on channel=8 note=38 velocity=127 time=0
EXTRACT: note_on channel=4 note=50 velocity=95 time=0
EXTRACT: note_off channel=9 note=54 velocity=127 time=0
EXTRACT: note_on channel=9 note=44 velocity=127 time=0
EXTRACT: note_on channel=9 note=54 velocity=127 time=0
EXTRACT: note_off channel=9 note=44 velocity=127 time=0.1339285
EXTRACT: note_off channel=9 note=54 velocity=127 time=0
EXTRACT: note_on channel=9 note=44 velocity=127 time=0
EXTRACT: note_on channel=9 note=54 velocity=127 time=0
EXTRACT: note_off channel=0 note=50 velocity=95 time=0.1339285
EXTRACT: note_on channel=0 note=52 velocity=95 time=0
EXTRACT: note_off channel=8 note=38 velocity=127 time=0
EXTRACT: note_on channel=8 note=40 velocity=127 time=0
EXTRACT: note_off channel=4 note=50 velocity=95 time=0
EXTRACT: note_on channel=4 note=52 velocity=95 time=0
EXTRACT: note_off channel=9 note=44 velocity=127 time=0
EXTRACT: note_off channel=9 note=54 velocity=127 time=0
EXTRACT: note_on channel=9 note=44 velocity=127 time=0
EXTRACT: note_on channel=9 note=54 velocity=127 time=0
EXTRACT: note_on channel=9 note=35 velocity=127 time=0
EXTRACT: note_off channel=9 note=44 velocity=127 time=0.1339285
EXTRACT: note_off channel=9 note=54 velocity=127 time=0
EXTRACT: note_off channel=9 note=35 velocity=127 time=0
EXTRACT: note_on channel=9 note=54 velocity=127 time=0
EXTRACT: note_off channel=0 note=52 velocity=95 time=0.1339285
EXTRACT: note_off channel=8 note=40 velocity=127 time=0
EXTRACT: note_off channel=4 note=52 velocity=95 time=0
EXTRACT: note_off channel=9 note=54 velocity=127 time=0
EXTRACT: note_on channel=9 note=44 velocity=127 time=0
EXTRACT: note_on channel=9 note=54 velocity=127 time=0
EXTRACT: note_off channel=9 note=44 velocity=127 time=0.1339285
EXTRACT: note_off channel=9 note=54 velocity=127 time=0
EXTRACT: note_on channel=9 note=54 velocity=127 time=0
EXTRACT: note_off channel=9 note=54 velocity=127 time=0.1339285
EXTRACT: note_on channel=9 note=38 velocity=127 time=0
EXTRACT: note_on channel=9 note=39 velocity=95 time=0
EXTRACT: note_on channel=9 note=54 velocity=127 time=0
EXTRACT: note_off channel=9 note=38 velocity=127 time=0.1339285
EXTRACT: note_off channel=9 note=39 velocity=95 time=0
EXTRACT: note_off channel=9 note=54 velocity=127 time=0
EXTRACT: note_on channel=9 note=54 velocity=127 time=0
EXTRACT: note_on channel=0 note=52 velocity=95 time=0.1339285
EXTRACT: note_on channel=8 note=40 velocity=127 time=0
EXTRACT: note_on channel=4 note=52 velocity=95 time=0
EXTRACT: note_off channel=9 note=54 velocity=127 time=0
EXTRACT: note_on channel=9 note=44 velocity=127 time=0
EXTRACT: note_on channel=9 note=54 velocity=127 time=0
EXTRACT: note_off channel=9 note=44 velocity=127 time=0.1339285
EXTRACT: note_off channel=9 note=54 velocity=127 time=0
EXTRACT: note_on channel=9 note=54 velocity=127 time=0
EXTRACT: note_off channel=0 note=52 velocity=95 time=0.1339285
EXTRACT: note_on channel=0 note=45 velocity=95 time=0
EXTRACT: note_off channel=8 note=40 velocity=127 time=0
EXTRACT: note_on channel=8 note=33 velocity=127 time=0
EXTRACT: note_off channel=4 note=52 velocity=95 time=0
EXTRACT: note_on channel=4 note=45 velocity=95 time=0
EXTRACT: note_off channel=9 note=54 velocity=127 time=0
EXTRACT: note_on channel=9 note=44 velocity=127 time=0
EXTRACT: note_on channel=9 note=54 velocity=127 time=0
EXTRACT: note_on channel=9 note=35 velocity=127 time=0
EXTRACT: note_off channel=9 note=44 velocity=127 time=0.1339285
EXTRACT: note_off channel=9 note=54 velocity=127 time=0
EXTRACT: note_off channel=9 note=35 velocity=127 time=0
EXTRACT: note_on channel=9 note=54 velocity=127 time=0
EXTRACT: note_off channel=0 note=45 velocity=95 time=0.1339285
EXTRACT: note_off channel=8 note=33 velocity=127 time=0
EXTRACT: note_off channel=4 note=45 velocity=95 time=0
EXTRACT: note_off channel=9 note=54 velocity=127 time=0
EXTRACT: note_on channel=9 note=44 velocity=127 time=0
EXTRACT: note_on channel=9 note=54 velocity=127 time=0
EXTRACT: note_on channel=0 note=45 velocity=95 time=0.1339285
EXTRACT: note_on channel=8 note=33 velocity=127 time=0
EXTRACT: note_on channel=4 note=45 velocity=95 time=0
EXTRACT: note_off channel=9 note=44 velocity=127 time=0
EXTRACT: note_off channel=9 note=54 velocity=127 time=0
EXTRACT: note_on channel=9 note=54 velocity=127 time=0
EXTRACT: note_off channel=9 note=54 velocity=127 time=0.1339285
EXTRACT: note_on channel=9 note=38 velocity=127 time=0
EXTRACT: note_on channel=9 note=39 velocity=95 time=0
EXTRACT: note_on channel=9 note=54 velocity=127 time=0
EXTRACT: note_off channel=0 note=45 velocity=95 time=0.1339285
EXTRACT: note_off channel=8 note=33 velocity=127 time=0
EXTRACT: note_off channel=4 note=45 velocity=95 time=0
EXTRACT: note_off channel=9 note=38 velocity=127 time=0
EXTRACT: note_off channel=9 note=39 velocity=95 time=0
EXTRACT: note_off channel=9 note=54 velocity=127 time=0
EXTRACT: note_on channel=9 note=54 velocity=127 time=0
EXTRACT: note_on channel=0 note=46 velocity=95 time=0.1339285
EXTRACT: note_on channel=8 note=34 velocity=127 time=0
EXTRACT: note_on channel=4 note=46 velocity=95 time=0
EXTRACT: note_off channel=9 note=54 velocity=127 time=0
EXTRACT: note_on channel=9 note=44 velocity=127 time=0
EXTRACT: note_on channel=9 note=54 velocity=127 time=0
EXTRACT: note_off channel=9 note=44 velocity=127 time=0.1339285
EXTRACT: note_off channel=9 note=54 velocity=127 time=0
EXTRACT: note_on channel=9 note=44 velocity=127 time=0
EXTRACT: note_on channel=9 note=54 velocity=127 time=0
EXTRACT: note_off channel=0 note=46 velocity=95 time=0.1339285
EXTRACT: note_on channel=0 note=47 velocity=95 time=0
EXTRACT: note_off channel=8 note=34 velocity=127 time=0
EXTRACT: note_on channel=8 note=35 velocity=127 time=0
EXTRACT: note_off channel=4 note=46 velocity=95 time=0
EXTRACT: note_on channel=4 note=47 velocity=95 time=0
EXTRACT: note_off channel=9 note=44 velocity=127 time=0
EXTRACT: note_off channel=9 note=54 velocity=127 time=0
EXTRACT: note_on channel=9 note=44 velocity=127 time=0
EXTRACT: note_on channel=9 note=54 velocity=127 time=0
EXTRACT: note_on channel=9 note=35 velocity=127 time=0
EXTRACT: note_off channel=9 note=44 velocity=127 time=0.1339285
EXTRACT: note_off channel=9 note=54 velocity=127 time=0
EXTRACT: note_off channel=9 note=35 velocity=127 time=0
EXTRACT: note_on channel=9 note=54 velocity=127 time=0
EXTRACT: note_off channel=0 note=47 velocity=95 time=0.1339285
EXTRACT: note_off channel=8 note=35 velocity=127 time=0
EXTRACT: note_off channel=4 note=47 velocity=95 time=0
EXTRACT: note_off channel=9 note=54 velocity=127 time=0
EXTRACT: note_on channel=9 note=44 velocity=127 time=0
EXTRACT: note_on channel=9 note=54 velocity=127 time=0
EXTRACT: note_off channel=9 note=44 velocity=127 time=0.1339285
EXTRACT: note_off channel=9 note=54 velocity=127 time=0
EXTRACT: note_on channel=9 note=54 velocity=127 time=0
EXTRACT: note_off channel=9 note=54 velocity=127 time=0.1339285
EXTRACT: note_on channel=9 note=38 velocity=127 time=0
EXTRACT: note_on channel=9 note=39 velocity=95 time=0
EXTRACT: note_on channel=9 note=54 velocity=127 time=0
EXTRACT: note_off channel=9 note=38 velocity=127 time=0.1339285
EXTRACT: note_off channel=9 note=39 velocity=95 time=0
EXTRACT: note_off channel=9 note=54 velocity=127 time=0
EXTRACT: note_on channel=9 note=54 velocity=127 time=0
EXTRACT: note_on channel=0 note=47 velocity=95 time=0.1339285
EXTRACT: note_on channel=8 note=35 velocity=127 time=0
EXTRACT: note_on channel=4 note=47 velocity=95 time=0
EXTRACT: note_off channel=9 note=54 velocity=127 time=0
EXTRACT: note_on channel=9 note=44 velocity=127 time=0
EXTRACT: note_on channel=9 note=54 velocity=127 time=0
EXTRACT: note_off channel=9 note=44 velocity=127 time=0.1339285
EXTRACT: note_off channel=9 note=54 velocity=127 time=0
EXTRACT: note_on channel=9 note=54 velocity=127 time=0
EXTRACT: note_off channel=0 note=47 velocity=95 time=0.1339285
EXTRACT: note_on channel=0 note=50 velocity=95 time=0
EXTRACT: note_off channel=8 note=35 velocity=127 time=0
EXTRACT: note_on channel=8 note=38 velocity=127 time=0
EXTRACT: note_off channel=4 note=47 velocity=95 time=0
EXTRACT: note_on channel=4 note=50 velocity=95 time=0
EXTRACT: note_off channel=9 note=54 velocity=127 time=0
EXTRACT: note_on channel=9 note=44 velocity=127 time=0
EXTRACT: note_on channel=9 note=54 velocity=127 time=0
EXTRACT: note_on channel=9 note=35 velocity=127 time=0
EXTRACT: note_off channel=9 note=44 velocity=127 time=0.1339285
EXTRACT: note_off channel=9 note=54 velocity=127 time=0
EXTRACT: note_off channel=9 note=35 velocity=127 time=0
EXTRACT: note_on channel=9 note=54 velocity=127 time=0
EXTRACT: note_off channel=0 note=50 velocity=95 time=0.1339285
EXTRACT: note_off channel=8 note=38 velocity=127 time=0
EXTRACT: note_off channel=4 note=50 velocity=95 time=0
EXTRACT: note_off channel=9 note=54 velocity=127 time=0
EXTRACT: note_on channel=9 note=44 velocity=127 time=0
EXTRACT: note_on channel=9 note=54 velocity=127 time=0
EXTRACT: note_off channel=9 note=44 velocity=127 time=0.1339285
EXTRACT: note_off channel=9 note=54 velocity=127 time=0
EXTRACT: note_on channel=9 note=54 velocity=127 time=0
EXTRACT: note_off channel=9 note=54 velocity=127 time=0.1339285
EXTRACT: note_on channel=9 note=38 velocity=127 time=0
EXTRACT: note_on channel=9 note=39 velocity=95 time=0
EXTRACT: note_on channel=9 note=54 velocity=127 time=0
EXTRACT: note_off channel=9 note=38 velocity=127 time=0.1339285
EXTRACT: note_off channel=9 note=39 velocity=95 time=0
EXTRACT: note_off channel=9 note=54 velocity=127 time=0
EXTRACT: note_on channel=9 note=54 velocity=127 time=0
EXTRACT: note_on channel=0 note=50 velocity=95 time=0.1339285
EXTRACT: note_on channel=8 note=38 velocity=127 time=0
EXTRACT: note_on channel=4 note=50 velocity=95 time=0
EXTRACT: note_off channel=9 note=54 velocity=127 time=0
EXTRACT: note_on channel=9 note=44 velocity=127 time=0
EXTRACT: note_on channel=9 note=54 velocity=127 time=0
EXTRACT: note_off channel=9 note=44 velocity=127 time=0.1339285
EXTRACT: note_off channel=9 note=54 velocity=127 time=0
EXTRACT: note_on channel=9 note=44 velocity=127 time=0
EXTRACT: note_on channel=9 note=54 velocity=127 time=0
EXTRACT: note_off channel=0 note=50 velocity=95 time=0.1339285
EXTRACT: note_on channel=0 note=52 velocity=95 time=0
EXTRACT: note_off channel=8 note=38 velocity=127 time=0
EXTRACT: note_on channel=8 note=40 velocity=127 time=0
EXTRACT: note_off channel=4 note=50 velocity=95 time=0
EXTRACT: note_on channel=4 note=52 velocity=95 time=0
EXTRACT: note_off channel=9 note=44 velocity=127 time=0
EXTRACT: note_off channel=9 note=54 velocity=127 time=0
EXTRACT: note_on channel=9 note=44 velocity=127 time=0
EXTRACT: note_on channel=9 note=54 velocity=127 time=0
EXTRACT: note_on channel=9 note=35 velocity=127 time=0
EXTRACT: note_off channel=9 note=44 velocity=127 time=0.1339285
EXTRACT: note_off channel=9 note=54 velocity=127 time=0
EXTRACT: note_off channel=9 note=35 velocity=127 time=0
EXTRACT: note_on channel=9 note=54 velocity=127 time=0
EXTRACT: note_off channel=0 note=52 velocity=95 time=0.1339285
EXTRACT: note_off channel=8 note=40 velocity=127 time=0
EXTRACT: note_off channel=4 note=52 velocity=95 time=0
EXTRACT: note_off channel=9 note=54 velocity=127 time=0
EXTRACT: note_on channel=9 note=44 velocity=127 time=0
EXTRACT: note_on channel=9 note=54 velocity=127 time=0
EXTRACT: note_off channel=9 note=44 velocity=127 time=0.1339285
EXTRACT: note_off channel=9 note=54 velocity=127 time=0
EXTRACT: note_on channel=9 note=54 velocity=127 time=0
EXTRACT: note_off channel=9 note=54 velocity=127 time=0.1339285
EXTRACT: note_on channel=9 note=38 velocity=127 time=0
EXTRACT: note_on channel=9 note=39 velocity=95 time=0
EXTRACT: note_on channel=9 note=54 velocity=127 time=0
EXTRACT: note_off channel=9 note=38 velocity=127 time=0.1339285
EXTRACT: note_off channel=9 note=39 velocity=95 time=0
EXTRACT: note_off channel=9 note=54 velocity=127 time=0
EXTRACT: note_on channel=9 note=54 velocity=127 time=0
EXTRACT: note_on channel=0 note=52 velocity=95 time=0.1339285
EXTRACT: note_on channel=8 note=40 velocity=127 time=0
EXTRACT: note_on channel=4 note=52 velocity=95 time=0
EXTRACT: note_off channel=9 note=54 velocity=127 time=0
EXTRACT: note_on channel=9 note=44 velocity=127 time=0
EXTRACT: note_on channel=9 note=54 velocity=127 time=0
EXTRACT: note_off channel=9 note=44 velocity=127 time=0.1339285
EXTRACT: note_off channel=9 note=54 velocity=127 time=0
EXTRACT: note_on channel=9 note=54 velocity=127 time=0
EXTRACT: note_off channel=0 note=52 velocity=95 time=0.1339285
EXTRACT: note_on channel=0 note=45 velocity=95 time=0
EXTRACT: note_off channel=8 note=40 velocity=127 time=0
EXTRACT: note_on channel=8 note=33 velocity=127 time=0
EXTRACT: note_off channel=4 note=52 velocity=95 time=0
EXTRACT: note_on channel=4 note=45 velocity=95 time=0
EXTRACT: note_off channel=9 note=54 velocity=127 time=0
EXTRACT: note_on channel=9 note=44 velocity=127 time=0
EXTRACT: note_on channel=9 note=54 velocity=127 time=0
EXTRACT: note_on channel=9 note=35 velocity=127 time=0
EXTRACT: note_off channel=9 note=44 velocity=127 time=0.1339285
EXTRACT: note_off channel=9 note=54 velocity=127 time=0
EXTRACT: note_off channel=9 note=35 velocity=127 time=0
EXTRACT: note_on channel=9 note=54 velocity=127 time=0
EXTRACT: note_off channel=0 note=45 velocity=95 time=0.1339285
EXTRACT: note_off channel=8 note=33 velocity=127 time=0
EXTRACT: note_off channel=4 note=45 velocity=95 time=0
EXTRACT: note_off channel=9 note=54 velocity=127 time=0
EXTRACT: note_on channel=9 note=44 velocity=127 time=0
EXTRACT: note_on channel=9 note=54 velocity=127 time=0
EXTRACT: note_on channel=0 note=45 velocity=95 time=0.1339285
EXTRACT: note_on channel=8 note=33 velocity=127 time=0
EXTRACT: note_on channel=4 note=45 velocity=95 time=0
EXTRACT: note_off channel=9 note=44 velocity=127 time=0
EXTRACT: note_off channel=9 note=54 velocity=127 time=0
EXTRACT: note_on channel=9 note=54 velocity=127 time=0
EXTRACT: note_off channel=9 note=54 velocity=127 time=0.1339285
EXTRACT: note_on channel=9 note=38 velocity=127 time=0
EXTRACT: note_on channel=9 note=39 velocity=95 time=0
EXTRACT: note_on channel=9 note=54 velocity=127 time=0
EXTRACT: note_off channel=0 note=45 velocity=95 time=0.1339285
EXTRACT: note_off channel=8 note=33 velocity=127 time=0
EXTRACT: note_off channel=4 note=45 velocity=95 time=0
EXTRACT: note_off channel=9 note=38 velocity=127 time=0
EXTRACT: note_off channel=9 note=39 velocity=95 time=0
EXTRACT: note_off channel=9 note=54 velocity=127 time=0
EXTRACT: note_on channel=9 note=54 velocity=127 time=0
EXTRACT: note_on channel=0 note=46 velocity=95 time=0.1339285
EXTRACT: note_on channel=8 note=34 velocity=127 time=0
EXTRACT: note_on channel=4 note=46 velocity=95 time=0
EXTRACT: note_off channel=9 note=54 velocity=127 time=0
EXTRACT: note_on channel=9 note=44 velocity=127 time=0
EXTRACT: note_on channel=9 note=54 velocity=127 time=0
EXTRACT: note_off channel=9 note=44 velocity=127 time=0.1339285
EXTRACT: note_off channel=9 note=54 velocity=127 time=0
EXTRACT: note_on channel=9 note=44 velocity=127 time=0
EXTRACT: note_on channel=9 note=54 velocity=127 time=0
EXTRACT: note_off channel=0 note=46 velocity=95 time=0.1339285
EXTRACT: note_off channel=8 note=34 velocity=127 time=0
EXTRACT: note_on channel=3 note=78 velocity=127 time=0
EXTRACT: note_on channel=3 note=73 velocity=127 time=0
EXTRACT: note_off channel=4 note=46 velocity=95 time=0
EXTRACT: note_off channel=9 note=44 velocity=127 time=0
EXTRACT: note_off channel=9 note=54 velocity=127 time=0
EXTRACT: note_off channel=3 note=78 velocity=127 time=0.1339285
EXTRACT: note_off channel=3 note=73 velocity=127 time=0
EXTRACT: note_on channel=3 note=78 velocity=127 time=0
EXTRACT: note_on channel=3 note=73 velocity=127 time=0
EXTRACT: note_off channel=3 note=78 velocity=127 time=0.1339285
EXTRACT: note_off channel=3 note=73 velocity=127 time=0
EXTRACT: note_on channel=3 note=78 velocity=127 time=0
EXTRACT: note_on channel=3 note=73 velocity=127 time=0
EXTRACT: note_off channel=3 note=78 velocity=127 time=0.1339285
EXTRACT: note_off channel=3 note=73 velocity=127 time=0
EXTRACT: note_on channel=3 note=78 velocity=127 time=0
EXTRACT: note_on channel=3 note=73 velocity=127 time=0
EXTRACT: note_off channel=3 note=78 velocity=127 time=0.1339285
EXTRACT: note_off channel=3 note=73 velocity=127 time=0
EXTRACT: note_on channel=3 note=78 velocity=127 time=0
EXTRACT: note_on channel=3 note=73 velocity=127 time=0
EXTRACT: note_off channel=3 note=78 velocity=127 time=0.267857
EXTRACT: note_off channel=3 note=73 velocity=127 time=0
EXTRACT: note_on channel=3 note=80 velocity=127 time=0
EXTRACT: note_on channel=3 note=75 velocity=127 time=0
EXTRACT: note_off channel=3 note=80 velocity=127 time=0.267857
EXTRACT: note_off channel=3 note=75 velocity=127 time=0
EXTRACT: note_on channel=3 note=78 velocity=127 time=0
EXTRACT: note_on channel=3 note=75 velocity=127 time=0
EXTRACT: note_off channel=3 note=78 velocity=127 time=0.267857
EXTRACT: note_off channel=3 note=75 velocity=127 time=0
EXTRACT: note_on channel=3 note=75 velocity=127 time=0
EXTRACT: note_on channel=9 note=35 velocity=127 time=0
EXTRACT: note_on channel=2 note=78 velocity=127 time=0.267857
EXTRACT: note_on channel=2 note=75 velocity=127 time=0
EXTRACT: note_on channel=2 note=70 velocity=95 time=0
EXTRACT: note_off channel=3 note=75 velocity=127 time=0
EXTRACT: note_off channel=9 note=35 velocity=127 time=0
EXTRACT: note_on channel=9 note=38 velocity=127 time=0
EXTRACT: note_on channel=9 note=39 velocity=95 time=0
EXTRACT: note_off channel=2 note=78 velocity=127 time=0.267857
EXTRACT: note_off channel=2 note=75 velocity=127 time=0
EXTRACT: note_off channel=2 note=70 velocity=95 time=0
EXTRACT: note_off channel=9 note=38 velocity=127 time=0
EXTRACT: note_off channel=9 note=39 velocity=95 time=0
EXTRACT: note_on channel=3 note=71 velocity=127 time=0.1339285
EXTRACT: note_on channel=0 note=52 velocity=95 time=0.1339285
EXTRACT: note_on channel=0 note=47 velocity=95 time=0
EXTRACT: note_on channel=0 note=40 velocity=95 time=0
EXTRACT: note_on channel=8 note=27 velocity=127 time=0
EXTRACT: note_off channel=3 note=71 velocity=127 time=0
EXTRACT: note_on channel=3 note=73 velocity=127 time=0
EXTRACT: note_on channel=4 note=68 velocity=95 time=0
EXTRACT: note_on channel=4 note=64 velocity=95 time=0
EXTRACT: note_on channel=4 note=59 velocity=95 time=0
EXTRACT: note_on channel=4 note=56 velocity=95 time=0
EXTRACT: note_on channel=5 note=68 velocity=95 time=0
EXTRACT: note_on channel=5 note=64 velocity=95 time=0
EXTRACT: note_on channel=5 note=59 velocity=95 time=0
EXTRACT: note_on channel=5 note=56 velocity=95 time=0
EXTRACT: note_on channel=9 note=44 velocity=127 time=0
EXTRACT: note_on channel=9 note=54 velocity=127 time=0
EXTRACT: note_on channel=9 note=35 velocity=127 time=0
EXTRACT: note_off channel=3 note=73 velocity=127 time=0.1339285
EXTRACT: note_on channel=3 note=71 velocity=127 time=0
EXTRACT: note_off channel=9 note=44 velocity=127 time=0
EXTRACT: note_off channel=9 note=54 velocity=127 time=0
EXTRACT: note_off channel=9 note=35 velocity=127 time=0
EXTRACT: note_on channel=9 note=54 velocity=127 time=0
EXTRACT: note_off channel=8 note=27 velocity=127 time=0.1339285
EXTRACT: note_off channel=3 note=71 velocity=127 time=0
EXTRACT: note_on channel=3 note=73 velocity=127 time=0
EXTRACT: note_off channel=9 note=54 velocity=127 time=0
EXTRACT: note_on channel=9 note=44 velocity=127 time=0
EXTRACT: note_on channel=9 note=81 velocity=127 time=0
EXTRACT: note_on channel=9 note=54 velocity=127 time=0
EXTRACT: note_off channel=9 note=44 velocity=127 time=0.1339285
EXTRACT: note_off channel=9 note=81 velocity=127 time=0
EXTRACT: note_off channel=9 note=54 velocity=127 time=0
EXTRACT: note_on channel=9 note=54 velocity=127 time=0
EXTRACT: note_off channel=3 note=73 velocity=127 time=0.1339285
EXTRACT: note_on channel=3 note=73 velocity=127 time=0
EXTRACT: note_off channel=9 note=54 velocity=127 time=0
EXTRACT: note_on channel=9 note=38 velocity=127 time=0
EXTRACT: note_on channel=9 note=39 velocity=95 time=0
EXTRACT: note_on channel=9 note=54 velocity=127 time=0
EXTRACT: note_off channel=9 note=38 velocity=127 time=0.1339285
EXTRACT: note_off channel=9 note=39 velocity=95 time=0
EXTRACT: note_off channel=9 note=54 velocity=127 time=0
EXTRACT: note_on channel=9 note=54 velocity=127 time=0
EXTRACT: note_off channel=0 note=52 velocity=95 time=0.1339285
EXTRACT: note_off channel=0 note=47 velocity=95 time=0
EXTRACT: note_off channel=0 note=40 velocity=95 time=0
EXTRACT: note_on channel=0 note=59 velocity=95 time=0
EXTRACT: note_on channel=0 note=54 velocity=95 time=0
EXTRACT: note_on channel=0 note=47 velocity=95 time=0
EXTRACT: note_on channel=8 note=27 velocity=127 time=0
EXTRACT: note_off channel=3 note=73 velocity=127 time=0
EXTRACT: note_on channel=3 note=71 velocity=127 time=0
EXTRACT: note_off channel=4 note=68 velocity=95 time=0
EXTRACT: note_off channel=4 note=64 velocity=95 time=0
EXTRACT: note_off channel=4 note=59 velocity=95 time=0
EXTRACT: note_off channel=4 note=56 velocity=95 time=0
EXTRACT: note_on channel=4 note=71 velocity=95 time=0
EXTRACT: note_on channel=4 note=66 velocity=95 time=0
EXTRACT: note_on channel=4 note=63 velocity=95 time=0
EXTRACT: note_on channel=4 note=59 velocity=95 time=0
EXTRACT: note_off channel=5 note=68 velocity=95 time=0
EXTRACT: note_off channel=5 note=64 velocity=95 time=0
EXTRACT: note_off channel=5 note=59 velocity=95 time=0
EXTRACT: note_off channel=5 note=56 velocity=95 time=0
EXTRACT: note_on channel=5 note=71 velocity=95 time=0
EXTRACT: note_on channel=5 note=66 velocity=95 time=0
EXTRACT: note_on channel=5 note=63 velocity=95 time=0
EXTRACT: note_on channel=5 note=59 velocity=95 time=0
EXTRACT: note_off channel=9 note=54 velocity=127 time=0
EXTRACT: note_on channel=9 note=44 velocity=127 time=0
EXTRACT: note_on channel=9 note=81 velocity=127 time=0
EXTRACT: note_on channel=9 note=54 velocity=127 time=0
EXTRACT: note_off channel=9 note=44 velocity=127 time=0.1339285
EXTRACT: note_off channel=9 note=81 velocity=127 time=0
EXTRACT: note_off channel=9 note=54 velocity=127 time=0
EXTRACT: note_on channel=9 note=54 velocity=127 time=0
EXTRACT: note_off channel=8 note=27 velocity=127 time=0.1339285
EXTRACT: note_on channel=8 note=35 velocity=127 time=0
EXTRACT: note_off channel=3 note=71 velocity=127 time=0
EXTRACT: note_on channel=3 note=83 velocity=127 time=0
EXTRACT: note_on channel=3 note=75 velocity=127 time=0
EXTRACT: note_off channel=9 note=54 velocity=127 time=0
EXTRACT: note_on channel=9 note=44 velocity=127 time=0
EXTRACT: note_on channel=9 note=54 velocity=127 time=0
EXTRACT: note_on channel=9 note=35 velocity=127 time=0
EXTRACT: note_off channel=8 note=35 velocity=127 time=0.1339285
EXTRACT: note_on channel=8 note=30 velocity=127 time=0
EXTRACT: note_off channel=3 note=83 velocity=127 time=0
EXTRACT: note_off channel=3 note=75 velocity=127 time=0
EXTRACT: note_on channel=3 note=83 velocity=127 time=0
EXTRACT: note_off channel=9 note=44 velocity=127 time=0
EXTRACT: note_off channel=9 note=54 velocity=127 time=0
EXTRACT: note_off channel=9 note=35 velocity=127 time=0
EXTRACT: note_on channel=9 note=54 velocity=127 time=0
EXTRACT: note_off channel=3 note=83 velocity=127 time=0.1339285
EXTRACT: note_on channel=3 note=83 velocity=127 time=0
EXTRACT: note_off channel=9 note=54 velocity=127 time=0
EXTRACT: note_on channel=9 note=44 velocity=127 time=0
EXTRACT: note_on channel=9 note=81 velocity=127 time=0
EXTRACT: note_on channel=9 note=54 velocity=127 time=0
EXTRACT: note_off channel=8 note=30 velocity=127 time=0.1339285
EXTRACT: note_on channel=8 note=35 velocity=127 time=0
EXTRACT: note_off channel=9 note=44 velocity=127 time=0
EXTRACT: note_off channel=9 note=81 velocity=127 time=0
EXTRACT: note_off channel=9 note=54 velocity=127 time=0
EXTRACT: note_on channel=9 note=54 velocity=127 time=0
EXTRACT: note_on channel=2 note=78 velocity=127 time=0.1339285
EXTRACT: note_on channel=2 note=75 velocity=127 time=0
EXTRACT: note_on channel=2 note=70 velocity=95 time=0
EXTRACT: note_off channel=8 note=35 velocity=127 time=0
EXTRACT: note_on channel=8 note=30 velocity=127 time=0
EXTRACT: note_off channel=3 note=83 velocity=127 time=0
EXTRACT: note_on channel=3 note=83 velocity=127 time=0
EXTRACT: note_off channel=9 note=54 velocity=127 time=0
EXTRACT: note_on channel=9 note=38 velocity=127 time=0
EXTRACT: note_on channel=9 note=39 velocity=95 time=0
EXTRACT: note_on channel=9 note=54 velocity=127 time=0
EXTRACT: note_off channel=9 note=38 velocity=127 time=0.1339285
EXTRACT: note_off channel=9 note=39 velocity=95 time=0
EXTRACT: note_off channel=9 note=54 velocity=127 time=0
EXTRACT: note_on channel=9 note=54 velocity=127 time=0
EXTRACT: note_off channel=2 note=78 velocity=127 time=0.1339285
EXTRACT: note_off channel=2 note=75 velocity=127 time=0
EXTRACT: note_off channel=2 note=70 velocity=95 time=0
EXTRACT: note_off channel=8 note=30 velocity=127 time=0
EXTRACT: note_on channel=8 note=35 velocity=127 time=0
EXTRACT: note_off channel=3 note=83 velocity=127 time=0
EXTRACT: note_on channel=3 note=83 velocity=127 time=0
EXTRACT: note_off channel=9 note=54 velocity=127 time=0
EXTRACT: note_on channel=9 note=44 velocity=127 time=0
EXTRACT: note_on channel=9 note=81 velocity=127 time=0
EXTRACT: note_on channel=9 note=54 velocity=127 time=0
EXTRACT: note_off channel=9 note=44 velocity=127 time=0.1339285
EXTRACT: note_off channel=9 note=81 velocity=127 time=0
EXTRACT: note_off channel=9 note=54 velocity=127 time=0
EXTRACT: note_on channel=9 note=44 velocity=127 time=0
EXTRACT: note_on channel=9 note=54 velocity=127 time=0
EXTRACT: note_off channel=0 note=59 velocity=95 time=0.1339285
EXTRACT: note_off channel=0 note=54 velocity=95 time=0
EXTRACT: note_off channel=0 note=47 velocity=95 time=0
EXTRACT: note_on channel=0 note=54 velocity=95 time=0
EXTRACT: note_on channel=0 note=49 velocity=95 time=0
EXTRACT: note_on channel=0 note=42 velocity=95 time=0
EXTRACT: note_off channel=8 note=35 velocity=127 time=0
EXTRACT: note_on channel=8 note=30 velocity=127 time=0
EXTRACT: note_off channel=3 note=83 velocity=127 time=0
EXTRACT: note_on channel=3 note=82 velocity=127 time=0
EXTRACT: note_on channel=3 note=78 velocity=127 time=0
EXTRACT: note_on channel=3 note=73 velocity=127 time=0
EXTRACT: note_off channel=4 note=71 velocity=95 time=0
EXTRACT: note_off channel=4 note=66 velocity=95 time=0
EXTRACT: note_off channel=4 note=63 velocity=95 time=0
EXTRACT: note_off channel=4 note=59 velocity=95 time=0
EXTRACT: note_on channel=4 note=70 velocity=95 time=0
EXTRACT: note_on channel=4 note=66 velocity=95 time=0
EXTRACT: note_on channel=4 note=61 velocity=95 time=0
EXTRACT: note_on channel=4 note=58 velocity=95 time=0
EXTRACT: note_off channel=5 note=71 velocity=95 time=0
EXTRACT: note_off channel=5 note=66 velocity=95 time=0
EXTRACT: note_off channel=5 note=63 velocity=95 time=0
EXTRACT: note_off channel=5 note=59 velocity=95 time=0
EXTRACT: note_on channel=5 note=70 velocity=95 time=0
EXTRACT: note_on channel=5 note=66 velocity=95 time=0
EXTRACT: note_on channel=5 note=61 velocity=95 time=0
EXTRACT: note_on channel=5 note=58 velocity=95 time=0
EXTRACT: note_off channel=9 note=44 velocity=127 time=0
EXTRACT: note_off channel=9 note=54 velocity=127 time=0
EXTRACT: note_on channel=9 note=44 velocity=127 time=0
EXTRACT: note_on channel=9 note=54 velocity=127 time=0
EXTRACT: note_on channel=9 note=35 velocity=127 time=0
EXTRACT: note_off channel=9 note=44 velocity=127 time=0.1339285
EXTRACT: note_off channel=9 note=54 velocity=127 time=0
EXTRACT: note_off channel=9 note=35 velocity=127 time=0
EXTRACT: note_on channel=9 note=54 velocity=127 time=0
EXTRACT: note_off channel=8 note=30 velocity=127 time=0.1339285
EXTRACT: note_off channel=3 note=82 velocity=127 time=0
EXTRACT: note_off channel=3 note=78 velocity=127 time=0
EXTRACT: note_off channel=3 note=73 velocity=127 time=0
EXTRACT: note_on channel=3 note=80 velocity=127 time=0
EXTRACT: note_on channel=3 note=78 velocity=127 time=0
EXTRACT: note_on channel=3 note=73 velocity=127 time=0
EXTRACT: note_off channel=9 note=54 velocity=127 time=0
EXTRACT: note_on channel=9 note=44 velocity=127 time=0
EXTRACT: note_on channel=9 note=81 velocity=127 time=0
EXTRACT: note_on channel=9 note=54 velocity=127 time=0
EXTRACT: note_off channel=9 note=44 velocity=127 time=0.1339285
EXTRACT: note_off channel=9 note=81 velocity=127 time=0
EXTRACT: note_off channel=9 note=54 velocity=127 time=0
EXTRACT: note_on channel=9 note=54 velocity=127 time=0
EXTRACT: note_off channel=3 note=80 velocity=127 time=0.1339285
EXTRACT: note_off channel=3 note=78 velocity=127 time=0
EXTRACT: note_off channel=3 note=73 velocity=127 time=0
EXTRACT: note_on channel=3 note=78 velocity=127 time=0
EXTRACT: note_on channel=3 note=78 velocity=127 time=0
EXTRACT: note_on channel=3 note=73 velocity=127 time=0
EXTRACT: note_off channel=9 note=54 velocity=127 time=0
EXTRACT: note_on channel=9 note=38 velocity=127 time=0
EXTRACT: note_on channel=9 note=39 velocity=95 time=0
EXTRACT: note_on channel=9 note=54 velocity=127 time=0
EXTRACT: note_off channel=9 note=38 velocity=127 time=0.1339285
EXTRACT: note_off channel=9 note=39 velocity=95 time=0
EXTRACT: note_off channel=9 note=54 velocity=127 time=0
EXTRACT: note_on channel=9 note=54 velocity=127 time=0
EXTRACT: note_off channel=0 note=54 velocity=95 time=0.1339285
EXTRACT: note_off channel=0 note=49 velocity=95 time=0
EXTRACT: note_off channel=0 note=42 velocity=95 time=0
EXTRACT: note_on channel=0 note=59 velocity=95 time=0
EXTRACT: note_on channel=0 note=54 velocity=95 time=0
EXTRACT: note_on channel=0 note=47 velocity=95 time=0
EXTRACT: note_on channel=8 note=30 velocity=127 time=0
EXTRACT: note_off channel=3 note=78 velocity=127 time=0
EXTRACT: note_off channel=3 note=78 velocity=127 time=0
EXTRACT: note_off channel=3 note=73 velocity=127 time=0
EXTRACT: note_on channel=3 note=80 velocity=127 time=0
EXTRACT: note_on channel=3 note=75 velocity=127 time=0
EXTRACT: note_off channel=4 note=70 velocity=95 time=0
EXTRACT: note_off channel=4 note=66 velocity=95 time=0
EXTRACT: note_off channel=4 note=61 velocity=95 time=0
EXTRACT: note_off channel=4 note=58 velocity=95 time=0
EXTRACT: note_on channel=4 note=71 velocity=95 time=0
EXTRACT: note_on channel=4 note=66 velocity=95 time=0
EXTRACT: note_on channel=4 note=63 velocity=95 time=0
EXTRACT: note_on channel=4 note=59 velocity=95 time=0
EXTRACT: note_off channel=5 note=70 velocity=95 time=0
EXTRACT: note_off channel=5 note=66 velocity=95 time=0
EXTRACT: note_off channel=5 note=61 velocity=95 time=0
EXTRACT: note_off channel=5 note=58 velocity=95 time=0
EXTRACT: note_on channel=5 note=71 velocity=95 time=0
EXTRACT: note_on channel=5 note=66 velocity=95 time=0
EXTRACT: note_on channel=5 note=63 velocity=95 time=0
EXTRACT: note_on channel=5 note=59 velocity=95 time=0
EXTRACT: note_off channel=9 note=54 velocity=127 time=0
EXTRACT: note_on channel=9 note=44 velocity=127 time=0
EXTRACT: note_on channel=9 note=81 velocity=127 time=0
EXTRACT: note_on channel=9 note=54 velocity=127 time=0
EXTRACT: note_off channel=9 note=44 velocity=127 time=0.1339285
EXTRACT: note_off channel=9 note=81 velocity=127 time=0
EXTRACT: note_off channel=9 note=54 velocity=127 time=0
EXTRACT: note_on channel=9 note=54 velocity=127 time=0
EXTRACT: note_off channel=8 note=30 velocity=127 time=0.1339285
EXTRACT: note_on channel=8 note=32 velocity=127 time=0
EXTRACT: note_off channel=3 note=80 velocity=127 time=0
EXTRACT: note_off channel=3 note=75 velocity=127 time=0
EXTRACT: note_on channel=3 note=78 velocity=127 time=0
EXTRACT: note_on channel=3 note=75 velocity=127 time=0
EXTRACT: note_off channel=9 note=54 velocity=127 time=0
EXTRACT: note_on channel=9 note=44 velocity=127 time=0
EXTRACT: note_on channel=9 note=54 velocity=127 time=0
EXTRACT: note_on channel=9 note=35 velocity=127 time=0
EXTRACT: note_off channel=9 note=44 velocity=127 time=0.1339285
EXTRACT: note_off channel=9 note=54 velocity=127 time=0
EXTRACT: note_off channel=9 note=35 velocity=127 time=0
EXTRACT: note_on channel=9 note=54 velocity=127 time=0
EXTRACT: note_off channel=8 note=32 velocity=127 time=0.1339285
EXTRACT: note_off channel=3 note=78 velocity=127 time=0
EXTRACT: note_off channel=3 note=75 velocity=127 time=0
EXTRACT: note_on channel=3 note=75 velocity=127 time=0
EXTRACT: note_off channel=9 note=54 velocity=127 time=0
EXTRACT: note_on channel=9 note=44 velocity=127 time=0
EXTRACT: note_on channel=9 note=81 velocity=127 time=0
EXTRACT: note_on channel=9 note=54 velocity=127 time=0
EXTRACT: note_off channel=9 note=44 velocity=127 time=0.1339285
EXTRACT: note_off channel=9 note=81 velocity=127 time=0
EXTRACT: note_off channel=9 note=54 velocity=127 time=0
EXTRACT: note_on channel=9 note=54 velocity=127 time=0
EXTRACT: note_on channel=2 note=78 velocity=127 time=0.1339285
EXTRACT: note_on channel=2 note=75 velocity=127 time=0
EXTRACT: note_on channel=2 note=70 velocity=95 time=0
EXTRACT: note_off channel=3 note=75 velocity=127 time=0
EXTRACT: note_off channel=9 note=54 velocity=127 time=0
EXTRACT: note_on channel=9 note=38 velocity=127 time=0
EXTRACT: note_on channel=9 note=39 velocity=95 time=0
EXTRACT: note_on channel=9 note=54 velocity=127 time=0
EXTRACT: note_off channel=9 note=38 velocity=127 time=0.1339285
EXTRACT: note_off channel=9 note=39 velocity=95 time=0
EXTRACT: note_off channel=9 note=54 velocity=127 time=0
EXTRACT: note_on channel=9 note=54 velocity=127 time=0
EXTRACT: note_off channel=2 note=78 velocity=127 time=0.1339285
EXTRACT: note_off channel=2 note=75 velocity=127 time=0
EXTRACT: note_off channel=2 note=70 velocity=95 time=0
EXTRACT: note_on channel=8 note=32 velocity=127 time=0
EXTRACT: note_off channel=9 note=54 velocity=127 time=0
EXTRACT: note_on channel=9 note=44 velocity=127 time=0
EXTRACT: note_on channel=9 note=81 velocity=127 time=0
EXTRACT: note_on channel=9 note=54 velocity=127 time=0
EXTRACT: note_on channel=3 note=83 velocity=127 time=0.1339285
EXTRACT: note_on channel=3 note=75 velocity=127 time=0
EXTRACT: note_off channel=9 note=44 velocity=127 time=0
EXTRACT: note_off channel=9 note=81 velocity=127 time=0
EXTRACT: note_off channel=9 note=54 velocity=127 time=0
EXTRACT: note_on channel=9 note=44 velocity=127 time=0
EXTRACT: note_on channel=9 note=54 velocity=127 time=0
EXTRACT: note_off channel=0 note=59 velocity=95 time=0.1339285
EXTRACT: note_off channel=0 note=54 velocity=95 time=0
EXTRACT: note_off channel=0 note=47 velocity=95 time=0
EXTRACT: note_on channel=0 note=52 velocity=95 time=0
EXTRACT: note_on channel=0 note=47 velocity=95 time=0
EXTRACT: note_on channel=0 note=40 velocity=95 time=0
EXTRACT: note_off channel=8 note=32 velocity=127 time=0
EXTRACT: note_on channel=8 note=27 velocity=127 time=0
EXTRACT: note_off channel=4 note=71 velocity=95 time=0
EXTRACT: note_off channel=4 note=66 velocity=95 time=0
EXTRACT: note_off channel=4 note=63 velocity=95 time=0
EXTRACT: note_off channel=4 note=59 velocity=95 time=0
EXTRACT: note_on channel=4 note=68 velocity=95 time=0
EXTRACT: note_on channel=4 note=64 velocity=95 time=0
EXTRACT: note_on channel=4 note=59 velocity=95 time=0
EXTRACT: note_on channel=4 note=56 velocity=95 time=0
EXTRACT: note_off channel=5 note=71 velocity=95 time=0
EXTRACT: note_off channel=5 note=66 velocity=95 time=0
EXTRACT: note_off channel=5 note=63 velocity=95 time=0
EXTRACT: note_off channel=5 note=59 velocity=95 time=0
EXTRACT: note_on channel=5 note=68 velocity=95 time=0
EXTRACT: note_on channel=5 note=64 velocity=95 time=0
EXTRACT: note_on channel=5 note=59 velocity=95 time=0
EXTRACT: note_on channel=5 note=56 velocity=95 time=0
EXTRACT: note_off channel=9 note=44 velocity=127 time=0
EXTRACT: note_off channel=9 note=54 velocity=127 time=0
EXTRACT: note_on channel=9 note=44 velocity=127 time=0
EXTRACT: note_on channel=9 note=54 velocity=127 time=0
EXTRACT: note_on channel=9 note=35 velocity=127 time=0
EXTRACT: note_off channel=9 note=44 velocity=127 time=0.1339285
EXTRACT: note_off channel=9 note=54 velocity=127 time=0
EXTRACT: note_off channel=9 note=35 velocity=127 time=0
EXTRACT: note_on channel=9 note=54 velocity=127 time=0
EXTRACT: note_off channel=8 note=27 velocity=127 time=0.1339285
EXTRACT: note_off channel=3 note=83 velocity=127 time=0
EXTRACT: note_off channel=3 note=75 velocity=127 time=0
EXTRACT: note_on channel=3 note=83 velocity=127 time=0
EXTRACT: note_on channel=3 note=75 velocity=127 time=0
EXTRACT: note_off channel=9 note=54 velocity=127 time=0
EXTRACT: note_on channel=9 note=44 velocity=127 time=0
EXTRACT: note_on channel=9 note=81 velocity=127 time=0
EXTRACT: note_on channel=9 note=54 velocity=127 time=0
EXTRACT: note_off channel=9 note=44 velocity=127 time=0.1339285
EXTRACT: note_off channel=9 note=81 velocity=127 time=0
EXTRACT: note_off channel=9 note=54 velocity=127 time=0
EXTRACT: note_on channel=9 note=54 velocity=127 time=0
EXTRACT: note_off channel=3 note=83 velocity=127 time=0.1339285
EXTRACT: note_off channel=3 note=75 velocity=127 time=0
EXTRACT: note_on channel=3 note=82 velocity=127 time=0
EXTRACT: note_on channel=3 note=73 velocity=127 time=0
EXTRACT: note_off channel=9 note=54 velocity=127 time=0
EXTRACT: note_on channel=9 note=38 velocity=127 time=0
EXTRACT: note_on channel=9 note=39 velocity=95 time=0
EXTRACT: note_on channel=9 note=54 velocity=127 time=0
EXTRACT: note_off channel=9 note=38 velocity=127 time=0.1339285
EXTRACT: note_off channel=9 note=39 velocity=95 time=0
EXTRACT: note_off channel=9 note=54 velocity=127 time=0
EXTRACT: note_on channel=9 note=54 velocity=127 time=0
EXTRACT: note_off channel=0 note=52 velocity=95 time=0.1339285
EXTRACT: note_off channel=0 note=47 velocity=95 time=0
EXTRACT: note_off channel=0 note=40 velocity=95 time=0
EXTRACT: note_on channel=0 note=59 velocity=95 time=0
EXTRACT: note_on channel=0 note=54 velocity=95 time=0
EXTRACT: note_on channel=0 note=47 velocity=95 time=0
EXTRACT: note_on channel=8 note=27 velocity=127 time=0
EXTRACT: note_off channel=3 note=82 velocity=127 time=0
EXTRACT: note_off channel=3 note=73 velocity=127 time=0
EXTRACT: note_on channel=3 note=78 velocity=127 time=0
EXTRACT: note_on channel=3 note=71 velocity=127 time=0
EXTRACT: note_off channel=4 note=68 velocity=95 time=0
EXTRACT: note_off channel=4 note=64 velocity=95 time=0
EXTRACT: note_off channel=4 note=59 velocity=95 time=0
EXTRACT: note_off channel=4 note=56 velocity=95 time=0
EXTRACT: note_on channel=4 note=71 velocity=95 time=0
EXTRACT: note_on channel=4 note=66 velocity=95 time=0
EXTRACT: note_on channel=4 note=63 velocity=95 time=0
EXTRACT: note_on channel=4 note=59 velocity=95 time=0
EXTRACT: note_off channel=5 note=68 velocity=95 time=0
EXTRACT: note_off channel=5 note=64 velocity=95 time=0
EXTRACT: note_off channel=5 note=59 velocity=95 time=0
EXTRACT: note_off channel=5 note=56 velocity=95 time=0
EXTRACT: note_on channel=5 note=71 velocity=95 time=0
EXTRACT: note_on channel=5 note=66 velocity=95 time=0
EXTRACT: note_on channel=5 note=63 velocity=95 time=0
EXTRACT: note_on channel=5 note=59 velocity=95 time=0
EXTRACT: note_off channel=9 note=54 velocity=127 time=0
EXTRACT: note_on channel=9 note=44 velocity=127 time=0
EXTRACT: note_on channel=9 note=81 velocity=127 time=0
EXTRACT: note_on channel=9 note=54 velocity=127 time=0
EXTRACT: note_off channel=9 note=44 velocity=127 time=0.1339285
EXTRACT: note_off channel=9 note=81 velocity=127 time=0
EXTRACT: note_off channel=9 note=54 velocity=127 time=0
EXTRACT: note_on channel=9 note=54 velocity=127 time=0
EXTRACT: note_off channel=8 note=27 velocity=127 time=0.1339285
EXTRACT: note_on channel=8 note=35 velocity=127 time=0
EXTRACT: note_off channel=3 note=78 velocity=127 time=0
EXTRACT: note_off channel=3 note=71 velocity=127 time=0
EXTRACT: note_on channel=3 note=80 velocity=127 time=0
EXTRACT: note_on channel=3 note=71 velocity=127 time=0
EXTRACT: note_off channel=9 note=54 velocity=127 time=0
EXTRACT: note_on channel=9 note=44 velocity=127 time=0
EXTRACT: note_on channel=9 note=54 velocity=127 time=0
EXTRACT: note_on channel=9 note=35 velocity=127 time=0
EXTRACT: note_off channel=8 note=35 velocity=127 time=0.1339285
EXTRACT: note_on channel=8 note=30 velocity=127 time=0
EXTRACT: note_off channel=9 note=44 velocity=127 time=0
EXTRACT: note_off channel=9 note=54 velocity=127 time=0
EXTRACT: note_off channel=9 note=35 velocity=127 time=0
EXTRACT: note_on channel=9 note=54 velocity=127 time=0
EXTRACT: note_off channel=3 note=80 velocity=127 time=0.1339285
EXTRACT: note_off channel=3 note=71 velocity=127 time=0
EXTRACT: note_on channel=3 note=82 velocity=127 time=0
EXTRACT: note_off channel=9 note=54 velocity=127 time=0
EXTRACT: note_on channel=9 note=44 velocity=127 time=0
EXTRACT: note_on channel=9 note=81 velocity=127 time=0
EXTRACT: note_on channel=9 note=54 velocity=127 time=0
EXTRACT: note_off channel=8 note=30 velocity=127 time=0.1339285
EXTRACT: note_on channel=8 note=35 velocity=127 time=0
EXTRACT: note_off channel=3 note=82 velocity=127 time=0
EXTRACT: note_on channel=3 note=80 velocity=127 time=0
EXTRACT: note_off channel=9 note=44 velocity=127 time=0
EXTRACT: note_off channel=9 note=81 velocity=127 time=0
EXTRACT: note_off channel=9 note=54 velocity=127 time=0
EXTRACT: note_on channel=9 note=54 velocity=127 time=0
EXTRACT: note_on channel=2 note=78 velocity=127 time=0.1339285
EXTRACT: note_on channel=2 note=75 velocity=127 time=0
EXTRACT: note_on channel=2 note=70 velocity=95 time=0
EXTRACT: note_off channel=8 note=35 velocity=127 time=0
EXTRACT: note_on channel=8 note=30 velocity=127 time=0
EXTRACT: note_off channel=3 note=80 velocity=127 time=0
EXTRACT: note_on channel=3 note=78 velocity=127 time=0
EXTRACT: note_off channel=9 note=54 velocity=127 time=0
EXTRACT: note_on channel=9 note=38 velocity=127 time=0
EXTRACT: note_on channel=9 note=39 velocity=95 time=0
EXTRACT: note_on channel=9 note=54 velocity=127 time=0
EXTRACT: note_off channel=9 note=38 velocity=127 time=0.1339285
EXTRACT: note_off channel=9 note=39 velocity=95 time=0
EXTRACT: note_off channel=9 note=54 velocity=127 time=0
EXTRACT: note_on channel=9 note=54 velocity=127 time=0
EXTRACT: note_off channel=2 note=78 velocity=127 time=0.1339285
EXTRACT: note_off channel=2 note=75 velocity=127 time=0
EXTRACT: note_off channel=2 note=70 velocity=95 time=0
EXTRACT: note_off channel=8 note=30 velocity=127 time=0
EXTRACT: note_on channel=8 note=35 velocity=127 time=0
EXTRACT: note_off channel=3 note=78 velocity=127 time=0
EXTRACT: note_off channel=9 note=54 velocity=127 time=0
EXTRACT: note_on channel=9 note=44 velocity=127 time=0
EXTRACT: note_on channel=9 note=81 velocity=127 time=0
EXTRACT: note_on channel=9 note=54 velocity=127 time=0
EXTRACT: note_off channel=9 note=44 velocity=127 time=0.1339285
EXTRACT: note_off channel=9 note=81 velocity=127 time=0
EXTRACT: note_off channel=9 note=54 velocity=127 time=0
EXTRACT: note_on channel=9 note=44 velocity=127 time=0
EXTRACT: note_on channel=9 note=54 velocity=127 time=0
EXTRACT: note_off channel=0 note=59 velocity=95 time=0.1339285
EXTRACT: note_off channel=0 note=54 velocity=95 time=0
EXTRACT: note_off channel=0 note=47 velocity=95 time=0
EXTRACT: note_on channel=0 note=54 velocity=95 time=0
EXTRACT: note_on channel=0 note=49 velocity=95 time=0
EXTRACT: note_on channel=0 note=42 velocity=95 time=0
EXTRACT: note_off channel=8 note=35 velocity=127 time=0
EXTRACT: note_on channel=8 note=30 velocity=127 time=0
EXTRACT: note_on channel=3 note=78 velocity=127 time=0
EXTRACT: note_on channel=3 note=73 velocity=127 time=0
EXTRACT: note_off channel=4 note=71 velocity=95 time=0
EXTRACT: note_off channel=4 note=66 velocity=95 time=0
EXTRACT: note_off channel=4 note=63 velocity=95 time=0
EXTRACT: note_off channel=4 note=59 velocity=95 time=0
EXTRACT: note_on channel=4 note=70 velocity=95 time=0
EXTRACT: note_on channel=4 note=66 velocity=95 time=0
EXTRACT: note_on channel=4 note=61 velocity=95 time=0
EXTRACT: note_on channel=4 note=58 velocity=95 time=0
EXTRACT: note_off channel=5 note=71 velocity=95 time=0
EXTRACT: note_off channel=5 note=66 velocity=95 time=0
EXTRACT: note_off channel=5 note=63 velocity=95 time=0
EXTRACT: note_off channel=5 note=59 velocity=95 time=0
EXTRACT: note_on channel=5 note=70 velocity=95 time=0
EXTRACT: note_on channel=5 note=66 velocity=95 time=0
EXTRACT: note_on channel=5 note=61 velocity=95 time=0
EXTRACT: note_on channel=5 note=58 velocity=95 time=0
EXTRACT: note_on channel=6 note=78 velocity=95 time=0
EXTRACT: note_off channel=9 note=44 velocity=127 time=0
EXTRACT: note_off channel=9 note=54 velocity=127 time=0
EXTRACT: note_on channel=9 note=44 velocity=127 time=0
EXTRACT: note_on channel=9 note=54 velocity=127 time=0
EXTRACT: note_on channel=9 note=35 velocity=127 time=0
EXTRACT: note_off channel=3 note=78 velocity=127 time=0.1339285
EXTRACT: note_off channel=3 note=73 velocity=127 time=0
EXTRACT: note_on channel=3 note=78 velocity=127 time=0
EXTRACT: note_on channel=3 note=73 velocity=127 time=0
EXTRACT: note_off channel=9 note=44 velocity=127 time=0
EXTRACT: note_off channel=9 note=54 velocity=127 time=0
EXTRACT: note_off channel=9 note=35 velocity=127 time=0
EXTRACT: note_on channel=9 note=54 velocity=127 time=0
EXTRACT: note_off channel=6 note=78 velocity=95 time=0.06696425
EXTRACT: note_off channel=8 note=30 velocity=127 time=0.06696425
EXTRACT: note_off channel=3 note=78 velocity=127 time=0
EXTRACT: note_off channel=3 note=73 velocity=127 time=0
EXTRACT: note_on channel=3 note=78 velocity=127 time=0
EXTRACT: note_on channel=3 note=73 velocity=127 time=0
EXTRACT: note_off channel=9 note=54 velocity=127 time=0
EXTRACT: note_on channel=9 note=44 velocity=127 time=0
EXTRACT: note_on channel=9 note=81 velocity=127 time=0
EXTRACT: note_on channel=9 note=54 velocity=127 time=0
EXTRACT: note_off channel=3 note=78 velocity=127 time=0.1339285
EXTRACT: note_off channel=3 note=73 velocity=127 time=0
EXTRACT: note_on channel=3 note=78 velocity=127 time=0
EXTRACT: note_on channel=3 note=73 velocity=127 time=0
EXTRACT: note_off channel=9 note=44 velocity=127 time=0
EXTRACT: note_off channel=9 note=81 velocity=127 time=0
EXTRACT: note_off channel=9 note=54 velocity=127 time=0
EXTRACT: note_on channel=9 note=54 velocity=127 time=0
EXTRACT: note_off channel=3 note=78 velocity=127 time=0.1339285
EXTRACT: note_off channel=3 note=73 velocity=127 time=0
EXTRACT: note_on channel=3 note=78 velocity=127 time=0
EXTRACT: note_on channel=3 note=73 velocity=127 time=0
EXTRACT: note_on channel=6 note=78 velocity=95 time=0
EXTRACT: note_off channel=9 note=54 velocity=127 time=0
EXTRACT: note_on channel=9 note=38 velocity=127 time=0
EXTRACT: note_on channel=9 note=39 velocity=95 time=0
EXTRACT: note_on channel=9 note=54 velocity=127 time=0
EXTRACT: note_off channel=9 note=38 velocity=127 time=0.1339285
EXTRACT: note_off channel=9 note=39 velocity=95 time=0
EXTRACT: note_off channel=9 note=54 velocity=127 time=0
EXTRACT: note_on channel=9 note=54 velocity=127 time=0
EXTRACT: note_off channel=6 note=78 velocity=95 time=0.06696425
EXTRACT: note_off channel=0 note=54 velocity=95 time=0.06696425
EXTRACT: note_off channel=0 note=49 velocity=95 time=0
EXTRACT: note_off channel=0 note=42 velocity=95 time=0
EXTRACT: note_on channel=0 note=59 velocity=95 time=0
EXTRACT: note_on channel=0 note=54 velocity=95 time=0
EXTRACT: note_on channel=0 note=47 velocity=95 time=0
EXTRACT: note_on channel=8 note=30 velocity=127 time=0
EXTRACT: note_off channel=3 note=78 velocity=127 time=0
EXTRACT: note_off channel=3 note=73 velocity=127 time=0
EXTRACT: note_on channel=3 note=80 velocity=127 time=0
EXTRACT: note_on channel=3 note=75 velocity=127 time=0
EXTRACT: note_off channel=4 note=70 velocity=95 time=0
EXTRACT: note_off channel=4 note=66 velocity=95 time=0
EXTRACT: note_off channel=4 note=61 velocity=95 time=0
EXTRACT: note_off channel=4 note=58 velocity=95 time=0
EXTRACT: note_on channel=4 note=71 velocity=95 time=0
EXTRACT: note_on channel=4 note=66 velocity=95 time=0
EXTRACT: note_on channel=4 note=63 velocity=95 time=0
EXTRACT: note_on channel=4 note=59 velocity=95 time=0
EXTRACT: note_off channel=5 note=70 velocity=95 time=0
EXTRACT: note_off channel=5 note=66 velocity=95 time=0
EXTRACT: note_off channel=5 note=61 velocity=95 time=0
EXTRACT: note_off channel=5 note=58 velocity=95 time=0
EXTRACT: note_on channel=5 note=71 velocity=95 time=0
EXTRACT: note_on channel=5 note=66 velocity=95 time=0
EXTRACT: note_on channel=5 note=63 velocity=95 time=0
EXTRACT: note_on channel=5 note=59 velocity=95 time=0
EXTRACT: note_off channel=9 note=54 velocity=127 time=0
EXTRACT: note_on channel=9 note=44 velocity=127 time=0
EXTRACT: note_on channel=9 note=81 velocity=127 time=0
EXTRACT: note_on channel=9 note=54 velocity=127 time=0
EXTRACT: note_off channel=9 note=44 velocity=127 time=0.1339285
EXTRACT: note_off channel=9 note=81 velocity=127 time=0
EXTRACT: note_off channel=9 note=54 velocity=127 time=0
EXTRACT: note_on channel=9 note=54 velocity=127 time=0
EXTRACT: note_off channel=8 note=30 velocity=127 time=0.1339285
EXTRACT: note_on channel=8 note=32 velocity=127 time=0
EXTRACT: note_off channel=3 note=80 velocity=127 time=0
EXTRACT: note_off channel=3 note=75 velocity=127 time=0
EXTRACT: note_on channel=3 note=78 velocity=127 time=0
EXTRACT: note_on channel=3 note=75 velocity=127 time=0
EXTRACT: note_on channel=6 note=78 velocity=95 time=0
EXTRACT: note_off channel=9 note=54 velocity=127 time=0
EXTRACT: note_on channel=9 note=44 velocity=127 time=0
EXTRACT: note_on channel=9 note=54 velocity=127 time=0
EXTRACT: note_on channel=9 note=35 velocity=127 time=0
EXTRACT: note_off channel=9 note=44 velocity=127 time=0.1339285
EXTRACT: note_off channel=9 note=54 velocity=127 time=0
EXTRACT: note_off channel=9 note=35 velocity=127 time=0
EXTRACT: note_on channel=9 note=54 velocity=127 time=0
EXTRACT: note_off channel=6 note=78 velocity=95 time=0.06696425
EXTRACT: note_off channel=8 note=32 velocity=127 time=0.06696425
EXTRACT: note_off channel=3 note=78 velocity=127 time=0
EXTRACT: note_off channel=3 note=75 velocity=127 time=0
EXTRACT: note_on channel=3 note=75 velocity=127 time=0
EXTRACT: note_off channel=9 note=54 velocity=127 time=0
EXTRACT: note_on channel=9 note=44 velocity=127 time=0
EXTRACT: note_on channel=9 note=81 velocity=127 time=0
EXTRACT: note_on channel=9 note=54 velocity=127 time=0
EXTRACT: note_off channel=9 note=44 velocity=127 time=0.1339285
EXTRACT: note_off channel=9 note=81 velocity=127 time=0
EXTRACT: note_off channel=9 note=54 velocity=127 time=0
EXTRACT: note_on channel=9 note=54 velocity=127 time=0
EXTRACT: note_on channel=2 note=78 velocity=127 time=0.1339285
EXTRACT: note_on channel=2 note=75 velocity=127 time=0
EXTRACT: note_on channel=2 note=70 velocity=95 time=0
EXTRACT: note_off channel=3 note=75 velocity=127 time=0
EXTRACT: note_on channel=6 note=78 velocity=95 time=0
EXTRACT: note_off channel=9 note=54 velocity=127 time=0
EXTRACT: note_on channel=9 note=38 velocity=127 time=0
EXTRACT: note_on channel=9 note=39 velocity=95 time=0
EXTRACT: note_on channel=9 note=54 velocity=127 time=0
EXTRACT: note_off channel=9 note=38 velocity=127 time=0.1339285
EXTRACT: note_off channel=9 note=39 velocity=95 time=0
EXTRACT: note_off channel=9 note=54 velocity=127 time=0
EXTRACT: note_on channel=9 note=54 velocity=127 time=0
EXTRACT: note_off channel=6 note=78 velocity=95 time=0.06696425
EXTRACT: note_off channel=2 note=78 velocity=127 time=0.06696425
EXTRACT: note_off channel=2 note=75 velocity=127 time=0
EXTRACT: note_off channel=2 note=70 velocity=95 time=0
EXTRACT: note_on channel=8 note=32 velocity=127 time=0
EXTRACT: note_off channel=9 note=54 velocity=127 time=0
EXTRACT: note_on channel=9 note=44 velocity=127 time=0
EXTRACT: note_on channel=9 note=81 velocity=127 time=0
EXTRACT: note_on channel=9 note=54 velocity=127 time=0
EXTRACT: note_off channel=9 note=44 velocity=127 time=0.1339285
EXTRACT: note_off channel=9 note=81 velocity=127 time=0
EXTRACT: note_off channel=9 note=54 velocity=127 time=0
EXTRACT: note_on channel=9 note=44 velocity=127 time=0
EXTRACT: note_on channel=9 note=54 velocity=127 time=0
EXTRACT: note_off channel=0 note=59 velocity=95 time=0.1339285
EXTRACT: note_off channel=0 note=54 velocity=95 time=0
EXTRACT: note_off channel=0 note=47 velocity=95 time=0
EXTRACT: note_on channel=0 note=52 velocity=95 time=0
EXTRACT: note_on channel=0 note=47 velocity=95 time=0
EXTRACT: note_on channel=0 note=40 velocity=95 time=0
EXTRACT: note_off channel=8 note=32 velocity=127 time=0
EXTRACT: note_on channel=8 note=27 velocity=127 time=0
EXTRACT: note_on channel=3 note=73 velocity=127 time=0
EXTRACT: note_off channel=4 note=71 velocity=95 time=0
EXTRACT: note_off channel=4 note=66 velocity=95 time=0
EXTRACT: note_off channel=4 note=63 velocity=95 time=0
EXTRACT: note_off channel=4 note=59 velocity=95 time=0
EXTRACT: note_on channel=4 note=68 velocity=95 time=0
EXTRACT: note_on channel=4 note=64 velocity=95 time=0
EXTRACT: note_on channel=4 note=59 velocity=95 time=0
EXTRACT: note_on channel=4 note=56 velocity=95 time=0
EXTRACT: note_off channel=5 note=71 velocity=95 time=0
EXTRACT: note_off channel=5 note=66 velocity=95 time=0
EXTRACT: note_off channel=5 note=63 velocity=95 time=0
EXTRACT: note_off channel=5 note=59 velocity=95 time=0
EXTRACT: note_on channel=5 note=68 velocity=95 time=0
EXTRACT: note_on channel=5 note=64 velocity=95 time=0
EXTRACT: note_on channel=5 note=59 velocity=95 time=0
EXTRACT: note_on channel=5 note=56 velocity=95 time=0
EXTRACT: note_on channel=6 note=78 velocity=95 time=0
EXTRACT: note_off channel=9 note=44 velocity=127 time=0
EXTRACT: note_off channel=9 note=54 velocity=127 time=0
EXTRACT: note_on channel=9 note=44 velocity=127 time=0
EXTRACT: note_on channel=9 note=54 velocity=127 time=0
EXTRACT: note_on channel=9 note=35 velocity=127 time=0
EXTRACT: note_off channel=9 note=44 velocity=127 time=0.1339285
EXTRACT: note_off channel=9 note=54 velocity=127 time=0
EXTRACT: note_off channel=9 note=35 velocity=127 time=0
EXTRACT: note_on channel=9 note=54 velocity=127 time=0
EXTRACT: note_off channel=6 note=78 velocity=95 time=0.06696425
EXTRACT: note_off channel=8 note=27 velocity=127 time=0.06696425
EXTRACT: note_off channel=3 note=73 velocity=127 time=0
EXTRACT: note_on channel=3 note=71 velocity=127 time=0
EXTRACT: note_off channel=9 note=54 velocity=127 time=0
EXTRACT: note_on channel=9 note=44 velocity=127 time=0
EXTRACT: note_on channel=9 note=81 velocity=127 time=0
EXTRACT: note_on channel=9 note=54 velocity=127 time=0
EXTRACT: note_off channel=9 note=44 velocity=127 time=0.1339285
EXTRACT: note_off channel=9 note=81 velocity=127 time=0
EXTRACT: note_off channel=9 note=54 velocity=127 time=0
EXTRACT: note_on channel=9 note=54 velocity=127 time=0
EXTRACT: note_off channel=3 note=71 velocity=127 time=0.1339285
EXTRACT: note_on channel=3 note=73 velocity=127 time=0
EXTRACT: note_on channel=6 note=78 velocity=95 time=0
EXTRACT: note_off channel=9 note=54 velocity=127 time=0
EXTRACT: note_on channel=9 note=38 velocity=127 time=0
EXTRACT: note_on channel=9 note=39 velocity=95 time=0
EXTRACT: note_on channel=9 note=54 velocity=127 time=0
EXTRACT: note_off channel=9 note=38 velocity=127 time=0.1339285
EXTRACT: note_off channel=9 note=39 velocity=95 time=0
EXTRACT: note_off channel=9 note=54 velocity=127 time=0
EXTRACT: note_on channel=9 note=54 velocity=127 time=0
EXTRACT: note_off channel=6 note=78 velocity=95 time=0.06696425
EXTRACT: note_off channel=0 note=52 velocity=95 time=0.06696425
EXTRACT: note_off channel=0 note=47 velocity=95 time=0
EXTRACT: note_off channel=0 note=40 velocity=95 time=0
EXTRACT: note_on channel=0 note=59 velocity=95 time=0
EXTRACT: note_on channel=0 note=54 velocity=95 time=0
EXTRACT: note_on channel=0 note=47 velocity=95 time=0
EXTRACT: note_on channel=8 note=27 velocity=127 time=0
EXTRACT: note_off channel=3 note=73 velocity=127 time=0
EXTRACT: note_on channel=3 note=71 velocity=127 time=0
EXTRACT: note_off channel=4 note=68 velocity=95 time=0
EXTRACT: note_off channel=4 note=64 velocity=95 time=0
EXTRACT: note_off channel=4 note=59 velocity=95 time=0
EXTRACT: note_off channel=4 note=56 velocity=95 time=0
EXTRACT: note_on channel=4 note=71 velocity=95 time=0
EXTRACT: note_on channel=4 note=66 velocity=95 time=0
EXTRACT: note_on channel=4 note=63 velocity=95 time=0
EXTRACT: note_on channel=4 note=59 velocity=95 time=0
EXTRACT: note_off channel=5 note=68 velocity=95 time=0
EXTRACT: note_off channel=5 note=64 velocity=95 time=0
EXTRACT: note_off channel=5 note=59 velocity=95 time=0
EXTRACT: note_off channel=5 note=56 velocity=95 time=0
EXTRACT: note_on channel=5 note=71 velocity=95 time=0
EXTRACT: note_on channel=5 note=66 velocity=95 time=0
EXTRACT: note_on channel=5 note=63 velocity=95 time=0
EXTRACT: note_on channel=5 note=59 velocity=95 time=0
EXTRACT: note_off channel=9 note=54 velocity=127 time=0
EXTRACT: note_on channel=9 note=44 velocity=127 time=0
EXTRACT: note_on channel=9 note=81 velocity=127 time=0
EXTRACT: note_on channel=9 note=54 velocity=127 time=0
EXTRACT: note_off channel=9 note=44 velocity=127 time=0.1339285
EXTRACT: note_off channel=9 note=81 velocity=127 time=0
EXTRACT: note_off channel=9 note=54 velocity=127 time=0
EXTRACT: note_on channel=9 note=54 velocity=127 time=0
EXTRACT: note_off channel=8 note=27 velocity=127 time=0.1339285
EXTRACT: note_on channel=8 note=35 velocity=127 time=0
EXTRACT: note_off channel=3 note=71 velocity=127 time=0
EXTRACT: note_on channel=3 note=75 velocity=127 time=0
EXTRACT: note_on channel=6 note=78 velocity=95 time=0
EXTRACT: note_off channel=9 note=54 velocity=127 time=0
EXTRACT: note_on channel=9 note=44 velocity=127 time=0
EXTRACT: note_on channel=9 note=54 velocity=127 time=0
EXTRACT: note_on channel=9 note=35 velocity=127 time=0
EXTRACT: note_off channel=8 note=35 velocity=127 time=0.1339285
EXTRACT: note_on channel=8 note=30 velocity=127 time=0
EXTRACT: note_off channel=9 note=44 velocity=127 time=0
EXTRACT: note_off channel=9 note=54 velocity=127 time=0
EXTRACT: note_off channel=9 note=35 velocity=127 time=0
EXTRACT: note_on channel=9 note=54 velocity=127 time=0
EXTRACT: note_off channel=6 note=78 velocity=95 time=0.06696425
EXTRACT: note_off channel=3 note=75 velocity=127 time=0.06696425
EXTRACT: note_on channel=3 note=83 velocity=127 time=0
EXTRACT: note_off channel=9 note=54 velocity=127 time=0
EXTRACT: note_on channel=9 note=44 velocity=127 time=0
EXTRACT: note_on channel=9 note=81 velocity=127 time=0
EXTRACT: note_on channel=9 note=54 velocity=127 time=0
EXTRACT: note_off channel=8 note=30 velocity=127 time=0.1339285
EXTRACT: note_on channel=8 note=35 velocity=127 time=0
EXTRACT: note_off channel=9 note=44 velocity=127 time=0
EXTRACT: note_off channel=9 note=81 velocity=127 time=0
EXTRACT: note_off channel=9 note=54 velocity=127 time=0
EXTRACT: note_on channel=9 note=54 velocity=127 time=0
EXTRACT: note_on channel=2 note=78 velocity=127 time=0.1339285
EXTRACT: note_on channel=2 note=75 velocity=127 time=0
EXTRACT: note_on channel=2 note=70 velocity=95 time=0
EXTRACT: note_off channel=8 note=35 velocity=127 time=0
EXTRACT: note_on channel=8 note=30 velocity=127 time=0
EXTRACT: note_off channel=3 note=83 velocity=127 time=0
EXTRACT: note_on channel=3 note=83 velocity=127 time=0
EXTRACT: note_on channel=6 note=78 velocity=95 time=0
EXTRACT: note_off channel=9 note=54 velocity=127 time=0
EXTRACT: note_on channel=9 note=38 velocity=127 time=0
EXTRACT: note_on channel=9 note=39 velocity=95 time=0
EXTRACT: note_on channel=9 note=54 velocity=127 time=0
EXTRACT: note_off channel=9 note=38 velocity=127 time=0.1339285
EXTRACT: note_off channel=9 note=39 velocity=95 time=0
EXTRACT: note_off channel=9 note=54 velocity=127 time=0
EXTRACT: note_on channel=9 note=54 velocity=127 time=0
EXTRACT: note_off channel=6 note=78 velocity=95 time=0.06696425
EXTRACT: note_off channel=2 note=78 velocity=127 time=0.06696425
EXTRACT: note_off channel=2 note=75 velocity=127 time=0
EXTRACT: note_off channel=2 note=70 velocity=95 time=0
EXTRACT: note_off channel=8 note=30 velocity=127 time=0
EXTRACT: note_on channel=8 note=35 velocity=127 time=0
EXTRACT: note_off channel=3 note=83 velocity=127 time=0
EXTRACT: note_on channel=3 note=83 velocity=127 time=0
EXTRACT: note_off channel=9 note=54 velocity=127 time=0
EXTRACT: note_on channel=9 note=44 velocity=127 time=0
EXTRACT: note_on channel=9 note=81 velocity=127 time=0
EXTRACT: note_on channel=9 note=54 velocity=127 time=0
EXTRACT: note_off channel=9 note=44 velocity=127 time=0.1339285
EXTRACT: note_off channel=9 note=81 velocity=127 time=0
EXTRACT: note_off channel=9 note=54 velocity=127 time=0
EXTRACT: note_on channel=9 note=44 velocity=127 time=0
EXTRACT: note_on channel=9 note=54 velocity=127 time=0
EXTRACT: note_off channel=0 note=59 velocity=95 time=0.1339285
EXTRACT: note_off channel=0 note=54 velocity=95 time=0
EXTRACT: note_off channel=0 note=47 velocity=95 time=0
EXTRACT: note_on channel=0 note=54 velocity=95 time=0
EXTRACT: note_on channel=0 note=49 velocity=95 time=0
EXTRACT: note_on channel=0 note=42 velocity=95 time=0
EXTRACT: note_off channel=8 note=35 velocity=127 time=0
EXTRACT: note_on channel=8 note=30 velocity=127 time=0
EXTRACT: note_off channel=3 note=83 velocity=127 time=0
EXTRACT: note_on channel=3 note=81 velocity=127 time=0
EXTRACT: note_on channel=3 note=78 velocity=127 time=0
EXTRACT: note_on channel=3 note=73 velocity=127 time=0
EXTRACT: note_off channel=4 note=71 velocity=95 time=0
EXTRACT: note_off channel=4 note=66 velocity=95 time=0
EXTRACT: note_off channel=4 note=63 velocity=95 time=0
EXTRACT: note_off channel=4 note=59 velocity=95 time=0
EXTRACT: note_on channel=4 note=70 velocity=95 time=0
EXTRACT: note_on channel=4 note=66 velocity=95 time=0
EXTRACT: note_on channel=4 note=61 velocity=95 time=0
EXTRACT: note_on channel=4 note=58 velocity=95 time=0
EXTRACT: note_off channel=5 note=71 velocity=95 time=0
EXTRACT: note_off channel=5 note=66 velocity=95 time=0
EXTRACT: note_off channel=5 note=63 velocity=95 time=0
EXTRACT: note_off channel=5 note=59 velocity=95 time=0
EXTRACT: note_on channel=5 note=70 velocity=95 time=0
EXTRACT: note_on channel=5 note=66 velocity=95 time=0
EXTRACT: note_on channel=5 note=61 velocity=95 time=0
EXTRACT: note_on channel=5 note=58 velocity=95 time=0
EXTRACT: note_on channel=6 note=78 velocity=95 time=0
EXTRACT: note_off channel=9 note=44 velocity=127 time=0
EXTRACT: note_off channel=9 note=54 velocity=127 time=0
EXTRACT: note_on channel=9 note=44 velocity=127 time=0
EXTRACT: note_on channel=9 note=54 velocity=127 time=0
EXTRACT: note_on channel=9 note=35 velocity=127 time=0
EXTRACT: note_off channel=9 note=44 velocity=127 time=0.1339285
EXTRACT: note_off channel=9 note=54 velocity=127 time=0
EXTRACT: note_off channel=9 note=35 velocity=127 time=0
EXTRACT: note_on channel=9 note=54 velocity=127 time=0
EXTRACT: note_off channel=6 note=78 velocity=95 time=0.06696425
EXTRACT: note_off channel=8 note=30 velocity=127 time=0.06696425
EXTRACT: note_off channel=3 note=81 velocity=127 time=0
EXTRACT: note_off channel=3 note=78 velocity=127 time=0
EXTRACT: note_off channel=3 note=73 velocity=127 time=0
EXTRACT: note_on channel=3 note=80 velocity=127 time=0
EXTRACT: note_on channel=3 note=78 velocity=127 time=0
EXTRACT: note_on channel=3 note=73 velocity=127 time=0
EXTRACT: note_off channel=9 note=54 velocity=127 time=0
EXTRACT: note_on channel=9 note=44 velocity=127 time=0
EXTRACT: note_on channel=9 note=81 velocity=127 time=0
EXTRACT: note_on channel=9 note=54 velocity=127 time=0
EXTRACT: note_off channel=9 note=44 velocity=127 time=0.1339285
EXTRACT: note_off channel=9 note=81 velocity=127 time=0
EXTRACT: note_off channel=9 note=54 velocity=127 time=0
EXTRACT: note_on channel=9 note=54 velocity=127 time=0
EXTRACT: note_off channel=3 note=80 velocity=127 time=0.1339285
EXTRACT: note_off channel=3 note=78 velocity=127 time=0
EXTRACT: note_off channel=3 note=73 velocity=127 time=0
EXTRACT: note_on channel=3 note=78 velocity=127 time=0
EXTRACT: note_on channel=3 note=78 velocity=127 time=0
EXTRACT: note_on channel=3 note=73 velocity=127 time=0
EXTRACT: note_on channel=6 note=78 velocity=95 time=0
EXTRACT: note_off channel=9 note=54 velocity=127 time=0
EXTRACT: note_on channel=9 note=38 velocity=127 time=0
EXTRACT: note_on channel=9 note=39 velocity=95 time=0
EXTRACT: note_on channel=9 note=54 velocity=127 time=0
EXTRACT: note_off channel=9 note=38 velocity=127 time=0.1339285
EXTRACT: note_off channel=9 note=39 velocity=95 time=0
EXTRACT: note_off channel=9 note=54 velocity=127 time=0
EXTRACT: note_on channel=9 note=54 velocity=127 time=0
EXTRACT: note_off channel=6 note=78 velocity=95 time=0.06696425
EXTRACT: note_off channel=0 note=54 velocity=95 time=0.06696425
EXTRACT: note_off channel=0 note=49 velocity=95 time=0
EXTRACT: note_off channel=0 note=42 velocity=95 time=0
EXTRACT: note_on channel=0 note=59 velocity=95 time=0
EXTRACT: note_on channel=0 note=54 velocity=95 time=0
EXTRACT: note_on channel=0 note=47 velocity=95 time=0
EXTRACT: note_on channel=8 note=30 velocity=127 time=0
EXTRACT: note_off channel=3 note=78 velocity=127 time=0
EXTRACT: note_off channel=3 note=78 velocity=127 time=0
EXTRACT: note_off channel=3 note=73 velocity=127 time=0
EXTRACT: note_on channel=3 note=80 velocity=127 time=0
EXTRACT: note_on channel=3 note=75 velocity=127 time=0
EXTRACT: note_off channel=4 note=70 velocity=95 time=0
EXTRACT: note_off channel=4 note=66 velocity=95 time=0
EXTRACT: note_off channel=4 note=61 velocity=95 time=0
EXTRACT: note_off channel=4 note=58 velocity=95 time=0
EXTRACT: note_on channel=4 note=71 velocity=95 time=0
EXTRACT: note_on channel=4 note=66 velocity=95 time=0
EXTRACT: note_on channel=4 note=63 velocity=95 time=0
EXTRACT: note_on channel=4 note=59 velocity=95 time=0
EXTRACT: note_off channel=5 note=70 velocity=95 time=0
EXTRACT: note_off channel=5 note=66 velocity=95 time=0
EXTRACT: note_off channel=5 note=61 velocity=95 time=0
EXTRACT: note_off channel=5 note=58 velocity=95 time=0
EXTRACT: note_on channel=5 note=71 velocity=95 time=0
EXTRACT: note_on channel=5 note=66 velocity=95 time=0
EXTRACT: note_on channel=5 note=63 velocity=95 time=0
EXTRACT: note_on channel=5 note=59 velocity=95 time=0
EXTRACT: note_off channel=9 note=54 velocity=127 time=0
EXTRACT: note_on channel=9 note=44 velocity=127 time=0
EXTRACT: note_on channel=9 note=81 velocity=127 time=0
EXTRACT: note_on channel=9 note=54 velocity=127 time=0
EXTRACT: note_off channel=9 note=44 velocity=127 time=0.1339285
EXTRACT: note_off channel=9 note=81 velocity=127 time=0
EXTRACT: note_off channel=9 note=54 velocity=127 time=0
EXTRACT: note_on channel=9 note=54 velocity=127 time=0
EXTRACT: note_off channel=8 note=30 velocity=127 time=0.1339285
EXTRACT: note_on channel=8 note=32 velocity=127 time=0
EXTRACT: note_off channel=3 note=80 velocity=127 time=0
EXTRACT: note_off channel=3 note=75 velocity=127 time=0
EXTRACT: note_on channel=3 note=80 velocity=127 time=0
EXTRACT: note_on channel=3 note=78 velocity=127 time=0
EXTRACT: note_on channel=3 note=75 velocity=127 time=0
EXTRACT: note_on channel=6 note=78 velocity=95 time=0
EXTRACT: note_off channel=9 note=54 velocity=127 time=0
EXTRACT: note_on channel=9 note=44 velocity=127 time=0
EXTRACT: note_on channel=9 note=54 velocity=127 time=0
EXTRACT: note_on channel=9 note=35 velocity=127 time=0
EXTRACT: note_off channel=9 note=44 velocity=127 time=0.1339285
EXTRACT: note_off channel=9 note=54 velocity=127 time=0
EXTRACT: note_off channel=9 note=35 velocity=127 time=0
EXTRACT: note_on channel=9 note=54 velocity=127 time=0
EXTRACT: note_off channel=6 note=78 velocity=95 time=0.06696425
EXTRACT: note_off channel=8 note=32 velocity=127 time=0.06696425
EXTRACT: note_off channel=3 note=80 velocity=127 time=0
EXTRACT: note_off channel=3 note=78 velocity=127 time=0
EXTRACT: note_off channel=3 note=75 velocity=127 time=0
EXTRACT: note_on channel=3 note=82 velocity=127 time=0
EXTRACT: note_on channel=3 note=75 velocity=127 time=0
EXTRACT: note_off channel=9 note=54 velocity=127 time=0
EXTRACT: note_on channel=9 note=44 velocity=127 time=0
EXTRACT: note_on channel=9 note=81 velocity=127 time=0
EXTRACT: note_on channel=9 note=54 velocity=127 time=0
EXTRACT: note_off channel=3 note=82 velocity=127 time=0.1339285
EXTRACT: note_off channel=3 note=75 velocity=127 time=0
EXTRACT: note_on channel=3 note=80 velocity=127 time=0
EXTRACT: note_off channel=9 note=44 velocity=127 time=0
EXTRACT: note_off channel=9 note=81 velocity=127 time=0
EXTRACT: note_off channel=9 note=54 velocity=127 time=0
EXTRACT: note_on channel=9 note=54 velocity=127 time=0
EXTRACT: note_on channel=2 note=78 velocity=127 time=0.1339285
EXTRACT: note_on channel=2 note=75 velocity=127 time=0
EXTRACT: note_on channel=2 note=70 velocity=95 time=0
EXTRACT: note_off channel=3 note=80 velocity=127 time=0
EXTRACT: note_on channel=3 note=78 velocity=127 time=0
EXTRACT: note_on channel=3 note=75 velocity=127 time=0
EXTRACT: note_on channel=6 note=78 velocity=95 time=0
EXTRACT: note_off channel=9 note=54 velocity=127 time=0
EXTRACT: note_on channel=9 note=38 velocity=127 time=0
EXTRACT: note_on channel=9 note=39 velocity=95 time=0
EXTRACT: note_on channel=9 note=54 velocity=127 time=0
EXTRACT: note_off channel=9 note=38 velocity=127 time=0.1339285
EXTRACT: note_off channel=9 note=39 velocity=95 time=0
EXTRACT: note_off channel=9 note=54 velocity=127 time=0
EXTRACT: note_on channel=9 note=54 velocity=127 time=0
EXTRACT: note_off channel=6 note=78 velocity=95 time=0.06696425
EXTRACT: note_off channel=2 note=78 velocity=127 time=0.06696425
EXTRACT: note_off channel=2 note=75 velocity=127 time=0
EXTRACT: note_off channel=2 note=70 velocity=95 time=0
EXTRACT: note_on channel=8 note=32 velocity=127 time=0
EXTRACT: note_off channel=3 note=78 velocity=127 time=0
EXTRACT: note_off channel=3 note=75 velocity=127 time=0
EXTRACT: note_on channel=3 note=83 velocity=127 time=0
EXTRACT: note_on channel=3 note=75 velocity=127 time=0
EXTRACT: note_off channel=9 note=54 velocity=127 time=0
EXTRACT: note_on channel=9 note=44 velocity=127 time=0
EXTRACT: note_on channel=9 note=81 velocity=127 time=0
EXTRACT: note_on channel=9 note=54 velocity=127 time=0
EXTRACT: note_off channel=9 note=44 velocity=127 time=0.1339285
EXTRACT: note_off channel=9 note=81 velocity=127 time=0
EXTRACT: note_off channel=9 note=54 velocity=127 time=0
EXTRACT: note_on channel=9 note=44 velocity=127 time=0
EXTRACT: note_on channel=9 note=54 velocity=127 time=0
EXTRACT: note_off channel=0 note=59 velocity=95 time=0.1339285
EXTRACT: note_off channel=0 note=54 velocity=95 time=0
EXTRACT: note_off channel=0 note=47 velocity=95 time=0
EXTRACT: note_on channel=0 note=52 velocity=95 time=0
EXTRACT: note_on channel=0 note=47 velocity=95 time=0
EXTRACT: note_on channel=0 note=40 velocity=95 time=0
EXTRACT: note_off channel=8 note=32 velocity=127 time=0
EXTRACT: note_on channel=8 note=27 velocity=127 time=0
EXTRACT: note_off channel=4 note=71 velocity=95 time=0
EXTRACT: note_off channel=4 note=66 velocity=95 time=0
EXTRACT: note_off channel=4 note=63 velocity=95 time=0
EXTRACT: note_off channel=4 note=59 velocity=95 time=0
EXTRACT: note_on channel=4 note=68 velocity=95 time=0
EXTRACT: note_on channel=4 note=64 velocity=95 time=0
EXTRACT: note_on channel=4 note=59 velocity=95 time=0
EXTRACT: note_on channel=4 note=56 velocity=95 time=0
EXTRACT: note_off channel=5 note=71 velocity=95 time=0
EXTRACT: note_off channel=5 note=66 velocity=95 time=0
EXTRACT: note_off channel=5 note=63 velocity=95 time=0
EXTRACT: note_off channel=5 note=59 velocity=95 time=0
EXTRACT: note_on channel=5 note=68 velocity=95 time=0
EXTRACT: note_on channel=5 note=64 velocity=95 time=0
EXTRACT: note_on channel=5 note=59 velocity=95 time=0
EXTRACT: note_on channel=5 note=56 velocity=95 time=0
EXTRACT: note_on channel=6 note=78 velocity=95 time=0
EXTRACT: note_off channel=9 note=44 velocity=127 time=0
EXTRACT: note_off channel=9 note=54 velocity=127 time=0
EXTRACT: note_on channel=9 note=44 velocity=127 time=0
EXTRACT: note_on channel=9 note=54 velocity=127 time=0
EXTRACT: note_on channel=9 note=35 velocity=127 time=0
EXTRACT: note_off channel=3 note=83 velocity=127 time=0.1339285
EXTRACT: note_off channel=3 note=75 velocity=127 time=0
EXTRACT: note_on channel=3 note=83 velocity=127 time=0
EXTRACT: note_on channel=3 note=75 velocity=127 time=0
EXTRACT: note_off channel=9 note=44 velocity=127 time=0
EXTRACT: note_off channel=9 note=54 velocity=127 time=0
EXTRACT: note_off channel=9 note=35 velocity=127 time=0
EXTRACT: note_on channel=9 note=54 velocity=127 time=0
EXTRACT: note_off channel=6 note=78 velocity=95 time=0.06696425
EXTRACT: note_off channel=8 note=27 velocity=127 time=0.06696425
EXTRACT: note_off channel=9 note=54 velocity=127 time=0
EXTRACT: note_on channel=9 note=44 velocity=127 time=0
EXTRACT: note_on channel=9 note=81 velocity=127 time=0
EXTRACT: note_on channel=9 note=54 velocity=127 time=0
EXTRACT: note_off channel=9 note=44 velocity=127 time=0.1339285
EXTRACT: note_off channel=9 note=81 velocity=127 time=0
EXTRACT: note_off channel=9 note=54 velocity=127 time=0
EXTRACT: note_on channel=9 note=54 velocity=127 time=0
EXTRACT: note_off channel=3 note=83 velocity=127 time=0.1339285
EXTRACT: note_off channel=3 note=75 velocity=127 time=0
EXTRACT: note_on channel=3 note=85 velocity=127 time=0
EXTRACT: note_on channel=3 note=73 velocity=127 time=0
EXTRACT: note_on channel=6 note=78 velocity=95 time=0
EXTRACT: note_off channel=9 note=54 velocity=127 time=0
EXTRACT: note_on channel=9 note=38 velocity=127 time=0
EXTRACT: note_on channel=9 note=39 velocity=95 time=0
EXTRACT: note_on channel=9 note=54 velocity=127 time=0
EXTRACT: note_off channel=9 note=38 velocity=127 time=0.1339285
EXTRACT: note_off channel=9 note=39 velocity=95 time=0
EXTRACT: note_off channel=9 note=54 velocity=127 time=0
EXTRACT: note_on channel=9 note=54 velocity=127 time=0
EXTRACT: note_off channel=6 note=78 velocity=95 time=0.06696425
EXTRACT: note_off channel=0 note=52 velocity=95 time=0.06696425
EXTRACT: note_off channel=0 note=47 velocity=95 time=0
EXTRACT: note_off channel=0 note=40 velocity=95 time=0
EXTRACT: note_on channel=0 note=59 velocity=95 time=0
EXTRACT: note_on channel=0 note=54 velocity=95 time=0
EXTRACT: note_on channel=0 note=47 velocity=95 time=0
EXTRACT: note_on channel=8 note=27 velocity=127 time=0
EXTRACT: note_off channel=3 note=85 velocity=127 time=0
EXTRACT: note_off channel=3 note=73 velocity=127 time=0
EXTRACT: note_on channel=3 note=78 velocity=127 time=0
EXTRACT: note_on channel=3 note=71 velocity=127 time=0
EXTRACT: note_off channel=4 note=68 velocity=95 time=0
EXTRACT: note_off channel=4 note=64 velocity=95 time=0
EXTRACT: note_off channel=4 note=59 velocity=95 time=0
EXTRACT: note_off channel=4 note=56 velocity=95 time=0
EXTRACT: note_on channel=4 note=71 velocity=95 time=0
EXTRACT: note_on channel=4 note=66 velocity=95 time=0
EXTRACT: note_on channel=4 note=63 velocity=95 time=0
EXTRACT: note_on channel=4 note=59 velocity=95 time=0
EXTRACT: note_off channel=5 note=68 velocity=95 time=0
EXTRACT: note_off channel=5 note=64 velocity=95 time=0
EXTRACT: note_off channel=5 note=59 velocity=95 time=0
EXTRACT: note_off channel=5 note=56 velocity=95 time=0
EXTRACT: note_on channel=5 note=71 velocity=95 time=0
EXTRACT: note_on channel=5 note=66 velocity=95 time=0
EXTRACT: note_on channel=5 note=63 velocity=95 time=0
EXTRACT: note_on channel=5 note=59 velocity=95 time=0
EXTRACT: note_off channel=9 note=54 velocity=127 time=0
EXTRACT: note_on channel=9 note=44 velocity=127 time=0
EXTRACT: note_on channel=9 note=81 velocity=127 time=0
EXTRACT: note_on channel=9 note=54 velocity=127 time=0
EXTRACT: note_off channel=9 note=44 velocity=127 time=0.1339285
EXTRACT: note_off channel=9 note=81 velocity=127 time=0
EXTRACT: note_off channel=9 note=54 velocity=127 time=0
EXTRACT: note_on channel=9 note=54 velocity=127 time=0
EXTRACT: note_off channel=8 note=27 velocity=127 time=0.1339285
EXTRACT: note_on channel=8 note=35 velocity=127 time=0
EXTRACT: note_off channel=3 note=78 velocity=127 time=0
EXTRACT: note_off channel=3 note=71 velocity=127 time=0
EXTRACT: note_on channel=3 note=80 velocity=127 time=0
EXTRACT: note_on channel=3 note=71 velocity=127 time=0
EXTRACT: note_on channel=6 note=78 velocity=95 time=0
EXTRACT: note_off channel=9 note=54 velocity=127 time=0
EXTRACT: note_on channel=9 note=44 velocity=127 time=0
EXTRACT: note_on channel=9 note=54 velocity=127 time=0
EXTRACT: note_on channel=9 note=35 velocity=127 time=0
EXTRACT: note_off channel=8 note=35 velocity=127 time=0.1339285
EXTRACT: note_on channel=8 note=30 velocity=127 time=0
EXTRACT: note_off channel=9 note=44 velocity=127 time=0
EXTRACT: note_off channel=9 note=54 velocity=127 time=0
EXTRACT: note_off channel=9 note=35 velocity=127 time=0
EXTRACT: note_on channel=9 note=54 velocity=127 time=0
EXTRACT: note_off channel=6 note=78 velocity=95 time=0.06696425
EXTRACT: note_off channel=3 note=80 velocity=127 time=0.06696425
EXTRACT: note_off channel=3 note=71 velocity=127 time=0
EXTRACT: note_on channel=3 note=82 velocity=127 time=0
EXTRACT: note_off channel=9 note=54 velocity=127 time=0
EXTRACT: note_on channel=9 note=44 velocity=127 time=0
EXTRACT: note_on channel=9 note=81 velocity=127 time=0
EXTRACT: note_on channel=9 note=54 velocity=127 time=0
EXTRACT: note_off channel=8 note=30 velocity=127 time=0.1339285
EXTRACT: note_on channel=8 note=35 velocity=127 time=0
EXTRACT: note_off channel=3 note=82 velocity=127 time=0
EXTRACT: note_on channel=3 note=80 velocity=127 time=0
EXTRACT: note_off channel=9 note=44 velocity=127 time=0
EXTRACT: note_off channel=9 note=81 velocity=127 time=0
EXTRACT: note_off channel=9 note=54 velocity=127 time=0
EXTRACT: note_on channel=9 note=54 velocity=127 time=0
EXTRACT: note_on channel=2 note=78 velocity=127 time=0.1339285
EXTRACT: note_on channel=2 note=75 velocity=127 time=0
EXTRACT: note_on channel=2 note=70 velocity=95 time=0
EXTRACT: note_off channel=8 note=35 velocity=127 time=0
EXTRACT: note_on channel=8 note=30 velocity=127 time=0
EXTRACT: note_off channel=3 note=80 velocity=127 time=0
EXTRACT: note_on channel=3 note=78 velocity=127 time=0
EXTRACT: note_on channel=6 note=78 velocity=95 time=0
EXTRACT: note_off channel=9 note=54 velocity=127 time=0
EXTRACT: note_on channel=9 note=38 velocity=127 time=0
EXTRACT: note_on channel=9 note=39 velocity=95 time=0
EXTRACT: note_on channel=9 note=54 velocity=127 time=0
EXTRACT: note_off channel=9 note=38 velocity=127 time=0.1339285
EXTRACT: note_off channel=9 note=39 velocity=95 time=0
EXTRACT: note_off channel=9 note=54 velocity=127 time=0
EXTRACT: note_on channel=9 note=54 velocity=127 time=0
EXTRACT: note_off channel=6 note=78 velocity=95 time=0.06696425
EXTRACT: note_off channel=2 note=78 velocity=127 time=0.06696425
EXTRACT: note_off channel=2 note=75 velocity=127 time=0
EXTRACT: note_off channel=2 note=70 velocity=95 time=0
EXTRACT: note_off channel=8 note=30 velocity=127 time=0
EXTRACT: note_on channel=8 note=35 velocity=127 time=0
EXTRACT: note_off channel=3 note=78 velocity=127 time=0
EXTRACT: note_off channel=9 note=54 velocity=127 time=0
EXTRACT: note_on channel=9 note=44 velocity=127 time=0
EXTRACT: note_on channel=9 note=81 velocity=127 time=0
EXTRACT: note_on channel=9 note=54 velocity=127 time=0
EXTRACT: note_off channel=9 note=44 velocity=127 time=0.1339285
EXTRACT: note_off channel=9 note=81 velocity=127 time=0
EXTRACT: note_off channel=9 note=54 velocity=127 time=0
EXTRACT: note_on channel=9 note=44 velocity=127 time=0
EXTRACT: note_on channel=9 note=54 velocity=127 time=0
EXTRACT: note_off channel=0 note=59 velocity=95 time=0.1339285
EXTRACT: note_off channel=0 note=54 velocity=95 time=0
EXTRACT: note_off channel=0 note=47 velocity=95 time=0
EXTRACT: note_on channel=0 note=47 velocity=95 time=0
EXTRACT: note_off channel=8 note=35 velocity=127 time=0
EXTRACT: note_on channel=8 note=35 velocity=127 time=0
EXTRACT: note_off channel=4 note=71 velocity=95 time=0
EXTRACT: note_off channel=4 note=66 velocity=95 time=0
EXTRACT: note_off channel=4 note=63 velocity=95 time=0
EXTRACT: note_off channel=4 note=59 velocity=95 time=0
EXTRACT: note_on channel=4 note=47 velocity=95 time=0
EXTRACT: note_off channel=5 note=71 velocity=95 time=0
EXTRACT: note_off channel=5 note=66 velocity=95 time=0
EXTRACT: note_off channel=5 note=63 velocity=95 time=0
EXTRACT: note_off channel=5 note=59 velocity=95 time=0
EXTRACT: note_off channel=9 note=44 velocity=127 time=0
EXTRACT: note_off channel=9 note=54 velocity=127 time=0
EXTRACT: note_on channel=9 note=44 velocity=127 time=0
EXTRACT: note_on channel=9 note=54 velocity=127 time=0
EXTRACT: note_on channel=9 note=35 velocity=127 time=0
EXTRACT: note_off channel=9 note=44 velocity=127 time=0.1339285
EXTRACT: note_off channel=9 note=54 velocity=127 time=0
EXTRACT: note_off channel=9 note=35 velocity=127 time=0
EXTRACT: note_on channel=9 note=54 velocity=127 time=0
EXTRACT: note_off channel=0 note=47 velocity=95 time=0.1339285
EXTRACT: note_off channel=8 note=35 velocity=127 time=0
EXTRACT: note_off channel=4 note=47 velocity=95 time=0
EXTRACT: note_off channel=9 note=54 velocity=127 time=0
EXTRACT: note_on channel=9 note=44 velocity=127 time=0
EXTRACT: note_on channel=9 note=54 velocity=127 time=0
EXTRACT: note_off channel=9 note=44 velocity=127 time=0.1339285
EXTRACT: note_off channel=9 note=54 velocity=127 time=0
EXTRACT: note_on channel=9 note=54 velocity=127 time=0
EXTRACT: note_off channel=9 note=54 velocity=127 time=0.1339285
EXTRACT: note_on channel=9 note=38 velocity=127 time=0
EXTRACT: note_on channel=9 note=39 velocity=95 time=0
EXTRACT: note_on channel=9 note=54 velocity=127 time=0
EXTRACT: note_off channel=9 note=38 velocity=127 time=0.1339285
EXTRACT: note_off channel=9 note=39 velocity=95 time=0
EXTRACT: note_off channel=9 note=54 velocity=127 time=0
EXTRACT: note_on channel=9 note=54 velocity=127 time=0
EXTRACT: note_on channel=0 note=47 velocity=95 time=0.1339285
EXTRACT: note_on channel=8 note=35 velocity=127 time=0
EXTRACT: note_on channel=4 note=47 velocity=95 time=0
EXTRACT: note_off channel=9 note=54 velocity=127 time=0
EXTRACT: note_on channel=9 note=44 velocity=127 time=0
EXTRACT: note_on channel=9 note=54 velocity=127 time=0
EXTRACT: note_off channel=9 note=44 velocity=127 time=0.1339285
EXTRACT: note_off channel=9 note=54 velocity=127 time=0
EXTRACT: note_on channel=9 note=54 velocity=127 time=0
EXTRACT: note_off channel=0 note=47 velocity=95 time=0.1339285
EXTRACT: note_on channel=0 note=50 velocity=95 time=0
EXTRACT: note_off channel=8 note=35 velocity=127 time=0
EXTRACT: note_on channel=8 note=38 velocity=127 time=0
EXTRACT: note_off channel=4 note=47 velocity=95 time=0
EXTRACT: note_on channel=4 note=50 velocity=95 time=0
EXTRACT: note_off channel=9 note=54 velocity=127 time=0
EXTRACT: note_on channel=9 note=44 velocity=127 time=0
EXTRACT: note_on channel=9 note=54 velocity=127 time=0
EXTRACT: note_on channel=9 note=35 velocity=127 time=0
EXTRACT: note_off channel=9 note=44 velocity=127 time=0.1339285
EXTRACT: note_off channel=9 note=54 velocity=127 time=0
EXTRACT: note_off channel=9 note=35 velocity=127 time=0
EXTRACT: note_on channel=9 note=54 velocity=127 time=0
EXTRACT: note_off channel=0 note=50 velocity=95 time=0.1339285
EXTRACT: note_off channel=8 note=38 velocity=127 time=0
EXTRACT: note_off channel=4 note=50 velocity=95 time=0
EXTRACT: note_off channel=9 note=54 velocity=127 time=0
EXTRACT: note_on channel=9 note=44 velocity=127 time=0
EXTRACT: note_on channel=9 note=54 velocity=127 time=0
EXTRACT: note_off channel=9 note=44 velocity=127 time=0.1339285
EXTRACT: note_off channel=9 note=54 velocity=127 time=0
EXTRACT: note_on channel=9 note=54 velocity=127 time=0
EXTRACT: note_on channel=2 note=78 velocity=127 time=0.1339285
EXTRACT: note_on channel=2 note=75 velocity=127 time=0
EXTRACT: note_on channel=2 note=70 velocity=95 time=0
EXTRACT: note_off channel=9 note=54 velocity=127 time=0
EXTRACT: note_on channel=9 note=38 velocity=127 time=0
EXTRACT: note_on channel=9 note=39 velocity=95 time=0
EXTRACT: note_on channel=9 note=54 velocity=127 time=0
EXTRACT: note_off channel=9 note=38 velocity=127 time=0.1339285
EXTRACT: note_off channel=9 note=39 velocity=95 time=0
EXTRACT: note_off channel=9 note=54 velocity=127 time=0
EXTRACT: note_on channel=9 note=54 velocity=127 time=0
EXTRACT: note_on channel=0 note=50 velocity=95 time=0.1339285
EXTRACT: note_off channel=2 note=78 velocity=127 time=0
EXTRACT: note_off channel=2 note=75 velocity=127 time=0
EXTRACT: note_off channel=2 note=70 velocity=95 time=0
EXTRACT: note_on channel=8 note=38 velocity=127 time=0
EXTRACT: note_on channel=4 note=50 velocity=95 time=0
EXTRACT: note_off channel=9 note=54 velocity=127 time=0
EXTRACT: note_on channel=9 note=44 velocity=127 time=0
EXTRACT: note_on channel=9 note=54 velocity=127 time=0
EXTRACT: note_off channel=9 note=44 velocity=127 time=0.1339285
EXTRACT: note_off channel=9 note=54 velocity=127 time=0
EXTRACT: note_on channel=9 note=44 velocity=127 time=0
EXTRACT: note_on channel=9 note=54 velocity=127 time=0
EXTRACT: note_off channel=0 note=50 velocity=95 time=0.1339285
EXTRACT: note_on channel=0 note=52 velocity=95 time=0
EXTRACT: note_off channel=8 note=38 velocity=127 time=0
EXTRACT: note_on channel=8 note=40 velocity=127 time=0
EXTRACT: note_off channel=4 note=50 velocity=95 time=0
EXTRACT: note_on channel=4 note=52 velocity=95 time=0
EXTRACT: note_off channel=9 note=44 velocity=127 time=0
EXTRACT: note_off channel=9 note=54 velocity=127 time=0
EXTRACT: note_on channel=9 note=44 velocity=127 time=0
EXTRACT: note_on channel=9 note=54 velocity=127 time=0
EXTRACT: note_on channel=9 note=35 velocity=127 time=0
EXTRACT: note_off channel=9 note=44 velocity=127 time=0.1339285
EXTRACT: note_off channel=9 note=54 velocity=127 time=0
EXTRACT: note_off channel=9 note=35 velocity=127 time=0
EXTRACT: note_on channel=9 note=54 velocity=127 time=0
EXTRACT: note_off channel=0 note=52 velocity=95 time=0.1339285
EXTRACT: note_off channel=8 note=40 velocity=127 time=0
EXTRACT: note_off channel=4 note=52 velocity=95 time=0
EXTRACT: note_off channel=9 note=54 velocity=127 time=0
EXTRACT: note_on channel=9 note=44 velocity=127 time=0
EXTRACT: note_on channel=9 note=54 velocity=127 time=0
EXTRACT: note_off channel=9 note=44 velocity=127 time=0.1339285
EXTRACT: note_off channel=9 note=54 velocity=127 time=0
EXTRACT: note_on channel=9 note=54 velocity=127 time=0
EXTRACT: note_off channel=9 note=54 velocity=127 time=0.1339285
EXTRACT: note_on channel=9 note=38 velocity=127 time=0
EXTRACT: note_on channel=9 note=39 velocity=95 time=0
EXTRACT: note_on channel=9 note=54 velocity=127 time=0
EXTRACT: note_off channel=9 note=38 velocity=127 time=0.1339285
EXTRACT: note_off channel=9 note=39 velocity=95 time=0
EXTRACT: note_off channel=9 note=54 velocity=127 time=0
EXTRACT: note_on channel=9 note=54 velocity=127 time=0
EXTRACT: note_on channel=0 note=52 velocity=95 time=0.1339285
EXTRACT: note_on channel=8 note=40 velocity=127 time=0
EXTRACT: note_on channel=4 note=52 velocity=95 time=0
EXTRACT: note_off channel=9 note=54 velocity=127 time=0
EXTRACT: note_on channel=9 note=44 velocity=127 time=0
EXTRACT: note_on channel=9 note=54 velocity=127 time=0
EXTRACT: note_off channel=9 note=44 velocity=127 time=0.1339285
EXTRACT: note_off channel=9 note=54 velocity=127 time=0
EXTRACT: note_on channel=9 note=54 velocity=127 time=0
EXTRACT: note_off channel=0 note=52 velocity=95 time=0.1339285
EXTRACT: note_on channel=0 note=45 velocity=95 time=0
EXTRACT: note_off channel=8 note=40 velocity=127 time=0
EXTRACT: note_on channel=8 note=33 velocity=127 time=0
EXTRACT: note_off channel=4 note=52 velocity=95 time=0
EXTRACT: note_on channel=4 note=45 velocity=95 time=0
EXTRACT: note_off channel=9 note=54 velocity=127 time=0
EXTRACT: note_on channel=9 note=44 velocity=127 time=0
EXTRACT: note_on channel=9 note=54 velocity=127 time=0
EXTRACT: note_on channel=9 note=35 velocity=127 time=0
EXTRACT: note_off channel=9 note=44 velocity=127 time=0.1339285
EXTRACT: note_off channel=9 note=54 velocity=127 time=0
EXTRACT: note_off channel=9 note=35 velocity=127 time=0
EXTRACT: note_on channel=9 note=54 velocity=127 time=0
EXTRACT: note_off channel=0 note=45 velocity=95 time=0.1339285
EXTRACT: note_off channel=8 note=33 velocity=127 time=0
EXTRACT: note_off channel=4 note=45 velocity=95 time=0
EXTRACT: note_off channel=9 note=54 velocity=127 time=0
EXTRACT: note_on channel=9 note=44 velocity=127 time=0
EXTRACT: note_on channel=9 note=54 velocity=127 time=0
EXTRACT: note_on channel=0 note=45 velocity=95 time=0.1339285
EXTRACT: note_on channel=8 note=33 velocity=127 time=0
EXTRACT: note_on channel=4 note=45 velocity=95 time=0
EXTRACT: note_off channel=9 note=44 velocity=127 time=0
EXTRACT: note_off channel=9 note=54 velocity=127 time=0
EXTRACT: note_on channel=9 note=54 velocity=127 time=0
EXTRACT: note_off channel=9 note=54 velocity=127 time=0.1339285
EXTRACT: note_on channel=9 note=38 velocity=127 time=0
EXTRACT: note_on channel=9 note=39 velocity=95 time=0
EXTRACT: note_on channel=9 note=54 velocity=127 time=0
EXTRACT: note_off channel=0 note=45 velocity=95 time=0.1339285
EXTRACT: note_off channel=8 note=33 velocity=127 time=0
EXTRACT: note_off channel=4 note=45 velocity=95 time=0
EXTRACT: note_off channel=9 note=38 velocity=127 time=0
EXTRACT: note_off channel=9 note=39 velocity=95 time=0
EXTRACT: note_off channel=9 note=54 velocity=127 time=0
EXTRACT: note_on channel=9 note=54 velocity=127 time=0
EXTRACT: note_on channel=0 note=46 velocity=95 time=0.1339285
EXTRACT: note_on channel=8 note=34 velocity=127 time=0
EXTRACT: note_on channel=4 note=46 velocity=95 time=0
EXTRACT: note_off channel=9 note=54 velocity=127 time=0
EXTRACT: note_on channel=9 note=44 velocity=127 time=0
EXTRACT: note_on channel=9 note=54 velocity=127 time=0
EXTRACT: note_off channel=9 note=44 velocity=127 time=0.1339285
EXTRACT: note_off channel=9 note=54 velocity=127 time=0
EXTRACT: note_on channel=9 note=44 velocity=127 time=0
EXTRACT: note_on channel=9 note=54 velocity=127 time=0
EXTRACT: note_off channel=0 note=46 velocity=95 time=0.1339285
EXTRACT: note_on channel=0 note=47 velocity=95 time=0
EXTRACT: note_off channel=8 note=34 velocity=127 time=0
EXTRACT: note_on channel=8 note=35 velocity=127 time=0
EXTRACT: note_off channel=4 note=46 velocity=95 time=0
EXTRACT: note_on channel=4 note=47 velocity=95 time=0
EXTRACT: note_off channel=9 note=44 velocity=127 time=0
EXTRACT: note_off channel=9 note=54 velocity=127 time=0
EXTRACT: note_on channel=9 note=44 velocity=127 time=0
EXTRACT: note_on channel=9 note=54 velocity=127 time=0
EXTRACT: note_on channel=9 note=35 velocity=127 time=0
EXTRACT: note_off channel=9 note=44 velocity=127 time=0.1339285
EXTRACT: note_off channel=9 note=54 velocity=127 time=0
EXTRACT: note_off channel=9 note=35 velocity=127 time=0
EXTRACT: note_on channel=9 note=54 velocity=127 time=0
EXTRACT: note_off channel=0 note=47 velocity=95 time=0.1339285
EXTRACT: note_off channel=8 note=35 velocity=127 time=0
EXTRACT: note_off channel=4 note=47 velocity=95 time=0
EXTRACT: note_off channel=9 note=54 velocity=127 time=0
EXTRACT: note_on channel=9 note=44 velocity=127 time=0
EXTRACT: note_on channel=9 note=54 velocity=127 time=0
EXTRACT: note_off channel=9 note=44 velocity=127 time=0.1339285
EXTRACT: note_off channel=9 note=54 velocity=127 time=0
EXTRACT: note_on channel=9 note=54 velocity=127 time=0
EXTRACT: note_off channel=9 note=54 velocity=127 time=0.1339285
EXTRACT: note_on channel=9 note=38 velocity=127 time=0
EXTRACT: note_on channel=9 note=39 velocity=95 time=0
EXTRACT: note_on channel=9 note=54 velocity=127 time=0
EXTRACT: note_off channel=9 note=38 velocity=127 time=0.1339285
EXTRACT: note_off channel=9 note=39 velocity=95 time=0
EXTRACT: note_off channel=9 note=54 velocity=127 time=0
EXTRACT: note_on channel=9 note=54 velocity=127 time=0
EXTRACT: note_on channel=0 note=47 velocity=95 time=0.1339285
EXTRACT: note_on channel=8 note=35 velocity=127 time=0
EXTRACT: note_on channel=4 note=47 velocity=95 time=0
EXTRACT: note_off channel=9 note=54 velocity=127 time=0
EXTRACT: note_on channel=9 note=44 velocity=127 time=0
EXTRACT: note_on channel=9 note=54 velocity=127 time=0
EXTRACT: note_off channel=9 note=44 velocity=127 time=0.1339285
EXTRACT: note_off channel=9 note=54 velocity=127 time=0
EXTRACT: note_on channel=9 note=54 velocity=127 time=0
EXTRACT: note_off channel=0 note=47 velocity=95 time=0.1339285
EXTRACT: note_on channel=0 note=50 velocity=95 time=0
EXTRACT: note_off channel=8 note=35 velocity=127 time=0
EXTRACT: note_on channel=8 note=38 velocity=127 time=0
EXTRACT: note_off channel=4 note=47 velocity=95 time=0
EXTRACT: note_on channel=4 note=50 velocity=95 time=0
EXTRACT: note_off channel=9 note=54 velocity=127 time=0
EXTRACT: note_on channel=9 note=44 velocity=127 time=0
EXTRACT: note_on channel=9 note=54 velocity=127 time=0
EXTRACT: note_on channel=9 note=35 velocity=127 time=0
EXTRACT: note_off channel=9 note=44 velocity=127 time=0.1339285
EXTRACT: note_off channel=9 note=54 velocity=127 time=0
EXTRACT: note_off channel=9 note=35 velocity=127 time=0
EXTRACT: note_on channel=9 note=54 velocity=127 time=0
EXTRACT: note_off channel=0 note=50 velocity=95 time=0.1339285
EXTRACT: note_off channel=8 note=38 velocity=127 time=0
EXTRACT: note_off channel=4 note=50 velocity=95 time=0
EXTRACT: note_off channel=9 note=54 velocity=127 time=0
EXTRACT: note_on channel=9 note=44 velocity=127 time=0
EXTRACT: note_on channel=9 note=54 velocity=127 time=0
EXTRACT: note_off channel=9 note=44 velocity=127 time=0.1339285
EXTRACT: note_off channel=9 note=54 velocity=127 time=0
EXTRACT: note_on channel=9 note=54 velocity=127 time=0
EXTRACT: note_on channel=2 note=78 velocity=127 time=0.1339285
EXTRACT: note_on channel=2 note=75 velocity=127 time=0
EXTRACT: note_on channel=2 note=70 velocity=95 time=0
EXTRACT: note_off channel=9 note=54 velocity=127 time=0
EXTRACT: note_on channel=9 note=38 velocity=127 time=0
EXTRACT: note_on channel=9 note=39 velocity=95 time=0
EXTRACT: note_on channel=9 note=54 velocity=127 time=0
EXTRACT: note_off channel=9 note=38 velocity=127 time=0.1339285
EXTRACT: note_off channel=9 note=39 velocity=95 time=0
EXTRACT: note_off channel=9 note=54 velocity=127 time=0
EXTRACT: note_on channel=9 note=54 velocity=127 time=0
EXTRACT: note_on channel=0 note=50 velocity=95 time=0.1339285
EXTRACT: note_off channel=2 note=78 velocity=127 time=0
EXTRACT: note_off channel=2 note=75 velocity=127 time=0
EXTRACT: note_off channel=2 note=70 velocity=95 time=0
EXTRACT: note_on channel=8 note=38 velocity=127 time=0
EXTRACT: note_on channel=4 note=50 velocity=95 time=0
EXTRACT: note_off channel=9 note=54 velocity=127 time=0
EXTRACT: note_on channel=9 note=44 velocity=127 time=0
EXTRACT: note_on channel=9 note=54 velocity=127 time=0
EXTRACT: note_off channel=9 note=44 velocity=127 time=0.1339285
EXTRACT: note_off channel=9 note=54 velocity=127 time=0
EXTRACT: note_on channel=9 note=44 velocity=127 time=0
EXTRACT: note_on channel=9 note=54 velocity=127 time=0
EXTRACT: note_off channel=0 note=50 velocity=95 time=0.1339285
EXTRACT: note_on channel=0 note=52 velocity=95 time=0
EXTRACT: note_off channel=8 note=38 velocity=127 time=0
EXTRACT: note_on channel=8 note=40 velocity=127 time=0
EXTRACT: note_off channel=4 note=50 velocity=95 time=0
EXTRACT: note_on channel=4 note=52 velocity=95 time=0
EXTRACT: note_off channel=9 note=44 velocity=127 time=0
EXTRACT: note_off channel=9 note=54 velocity=127 time=0
EXTRACT: note_on channel=9 note=44 velocity=127 time=0
EXTRACT: note_on channel=9 note=54 velocity=127 time=0
EXTRACT: note_on channel=9 note=35 velocity=127 time=0
EXTRACT: note_off channel=9 note=44 velocity=127 time=0.1339285
EXTRACT: note_off channel=9 note=54 velocity=127 time=0
EXTRACT: note_off channel=9 note=35 velocity=127 time=0
EXTRACT: note_on channel=9 note=54 velocity=127 time=0
EXTRACT: note_off channel=0 note=52 velocity=95 time=0.1339285
EXTRACT: note_off channel=8 note=40 velocity=127 time=0
EXTRACT: note_off channel=4 note=52 velocity=95 time=0
EXTRACT: note_off channel=9 note=54 velocity=127 time=0
EXTRACT: note_on channel=9 note=44 velocity=127 time=0
EXTRACT: note_on channel=9 note=54 velocity=127 time=0
EXTRACT: note_off channel=9 note=44 velocity=127 time=0.1339285
EXTRACT: note_off channel=9 note=54 velocity=127 time=0
EXTRACT: note_on channel=9 note=54 velocity=127 time=0
EXTRACT: note_off channel=9 note=54 velocity=127 time=0.1339285
EXTRACT: note_on channel=9 note=38 velocity=127 time=0
EXTRACT: note_on channel=9 note=39 velocity=95 time=0
EXTRACT: note_on channel=9 note=54 velocity=127 time=0
EXTRACT: note_off channel=9 note=38 velocity=127 time=0.1339285
EXTRACT: note_off channel=9 note=39 velocity=95 time=0
EXTRACT: note_off channel=9 note=54 velocity=127 time=0
EXTRACT: note_on channel=9 note=54 velocity=127 time=0
EXTRACT: note_on channel=0 note=52 velocity=95 time=0.1339285
EXTRACT: note_on channel=8 note=40 velocity=127 time=0
EXTRACT: note_on channel=4 note=52 velocity=95 time=0
EXTRACT: note_off channel=9 note=54 velocity=127 time=0
EXTRACT: note_on channel=9 note=44 velocity=127 time=0
EXTRACT: note_on channel=9 note=54 velocity=127 time=0
EXTRACT: note_off channel=9 note=44 velocity=127 time=0.1339285
EXTRACT: note_off channel=9 note=54 velocity=127 time=0
EXTRACT: note_on channel=9 note=54 velocity=127 time=0
EXTRACT: note_off channel=0 note=52 velocity=95 time=0.1339285
EXTRACT: note_on channel=0 note=45 velocity=95 time=0
EXTRACT: note_off channel=8 note=40 velocity=127 time=0
EXTRACT: note_on channel=8 note=33 velocity=127 time=0
EXTRACT: note_off channel=4 note=52 velocity=95 time=0
EXTRACT: note_on channel=4 note=45 velocity=95 time=0
EXTRACT: note_off channel=9 note=54 velocity=127 time=0
EXTRACT: note_on channel=9 note=44 velocity=127 time=0
EXTRACT: note_on channel=9 note=54 velocity=127 time=0
EXTRACT: note_on channel=9 note=35 velocity=127 time=0
EXTRACT: note_off channel=9 note=44 velocity=127 time=0.1339285
EXTRACT: note_off channel=9 note=54 velocity=127 time=0
EXTRACT: note_off channel=9 note=35 velocity=127 time=0
EXTRACT: note_on channel=9 note=54 velocity=127 time=0
EXTRACT: note_off channel=0 note=45 velocity=95 time=0.1339285
EXTRACT: note_off channel=8 note=33 velocity=127 time=0
EXTRACT: note_off channel=4 note=45 velocity=95 time=0
EXTRACT: note_off channel=9 note=54 velocity=127 time=0
EXTRACT: note_on channel=9 note=44 velocity=127 time=0
EXTRACT: note_on channel=9 note=54 velocity=127 time=0
EXTRACT: note_on channel=0 note=45 velocity=95 time=0.1339285
EXTRACT: note_on channel=8 note=33 velocity=127 time=0
EXTRACT: note_on channel=4 note=45 velocity=95 time=0
EXTRACT: note_off channel=9 note=44 velocity=127 time=0
EXTRACT: note_off channel=9 note=54 velocity=127 time=0
EXTRACT: note_on channel=9 note=54 velocity=127 time=0
EXTRACT: note_off channel=9 note=54 velocity=127 time=0.1339285
EXTRACT: note_on channel=9 note=38 velocity=127 time=0
EXTRACT: note_on channel=9 note=39 velocity=95 time=0
EXTRACT: note_on channel=9 note=54 velocity=127 time=0
EXTRACT: note_off channel=0 note=45 velocity=95 time=0.1339285
EXTRACT: note_off channel=8 note=33 velocity=127 time=0
EXTRACT: note_off channel=4 note=45 velocity=95 time=0
EXTRACT: note_off channel=9 note=38 velocity=127 time=0
EXTRACT: note_off channel=9 note=39 velocity=95 time=0
EXTRACT: note_off channel=9 note=54 velocity=127 time=0
EXTRACT: note_on channel=9 note=54 velocity=127 time=0
EXTRACT: note_on channel=0 note=46 velocity=95 time=0.1339285
EXTRACT: note_on channel=8 note=34 velocity=127 time=0
EXTRACT: note_on channel=4 note=46 velocity=95 time=0
EXTRACT: note_off channel=9 note=54 velocity=127 time=0
EXTRACT: note_on channel=9 note=44 velocity=127 time=0
EXTRACT: note_on channel=9 note=54 velocity=127 time=0
EXTRACT: note_off channel=9 note=44 velocity=127 time=0.1339285
EXTRACT: note_off channel=9 note=54 velocity=127 time=0
EXTRACT: note_on channel=9 note=44 velocity=127 time=0
EXTRACT: note_on channel=9 note=54 velocity=127 time=0
EXTRACT: note_off channel=0 note=46 velocity=95 time=0.1339285
EXTRACT: note_on channel=0 note=47 velocity=95 time=0
EXTRACT: note_off channel=8 note=34 velocity=127 time=0
EXTRACT: note_on channel=8 note=35 velocity=127 time=0
EXTRACT: note_off channel=4 note=46 velocity=95 time=0
EXTRACT: note_on channel=4 note=47 velocity=95 time=0
EXTRACT: note_off channel=9 note=44 velocity=127 time=0
EXTRACT: note_off channel=9 note=54 velocity=127 time=0
EXTRACT: note_on channel=9 note=44 velocity=127 time=0
EXTRACT: note_on channel=9 note=54 velocity=127 time=0
EXTRACT: note_on channel=9 note=35 velocity=127 time=0
EXTRACT: note_off channel=9 note=44 velocity=127 time=0.1339285
EXTRACT: note_off channel=9 note=54 velocity=127 time=0
EXTRACT: note_off channel=9 note=35 velocity=127 time=0
EXTRACT: note_on channel=9 note=54 velocity=127 time=0
EXTRACT: note_off channel=0 note=47 velocity=95 time=0.1339285
EXTRACT: note_off channel=8 note=35 velocity=127 time=0
EXTRACT: note_off channel=4 note=47 velocity=95 time=0
EXTRACT: note_off channel=9 note=54 velocity=127 time=0
EXTRACT: note_on channel=9 note=44 velocity=127 time=0
EXTRACT: note_on channel=9 note=54 velocity=127 time=0
EXTRACT: note_off channel=9 note=44 velocity=127 time=0.1339285
EXTRACT: note_off channel=9 note=54 velocity=127 time=0
EXTRACT: note_on channel=9 note=54 velocity=127 time=0
EXTRACT: note_off channel=9 note=54 velocity=127 time=0.1339285
EXTRACT: note_on channel=9 note=38 velocity=127 time=0
EXTRACT: note_on channel=9 note=39 velocity=95 time=0
EXTRACT: note_on channel=9 note=54 velocity=127 time=0
EXTRACT: note_off channel=9 note=38 velocity=127 time=0.1339285
EXTRACT: note_off channel=9 note=39 velocity=95 time=0
EXTRACT: note_off channel=9 note=54 velocity=127 time=0
EXTRACT: note_on channel=9 note=54 velocity=127 time=0
EXTRACT: note_on channel=0 note=47 velocity=95 time=0.1339285
EXTRACT: note_on channel=8 note=35 velocity=127 time=0
EXTRACT: note_on channel=4 note=47 velocity=95 time=0
EXTRACT: note_off channel=9 note=54 velocity=127 time=0
EXTRACT: note_on channel=9 note=44 velocity=127 time=0
EXTRACT: note_on channel=9 note=54 velocity=127 time=0
EXTRACT: note_off channel=9 note=44 velocity=127 time=0.1339285
EXTRACT: note_off channel=9 note=54 velocity=127 time=0
EXTRACT: note_on channel=9 note=54 velocity=127 time=0
EXTRACT: note_off channel=0 note=47 velocity=95 time=0.1339285
EXTRACT: note_on channel=0 note=50 velocity=95 time=0
EXTRACT: note_off channel=8 note=35 velocity=127 time=0
EXTRACT: note_on channel=8 note=38 velocity=127 time=0
EXTRACT: note_off channel=4 note=47 velocity=95 time=0
EXTRACT: note_on channel=4 note=50 velocity=95 time=0
EXTRACT: note_off channel=9 note=54 velocity=127 time=0
EXTRACT: note_on channel=9 note=44 velocity=127 time=0
EXTRACT: note_on channel=9 note=54 velocity=127 time=0
EXTRACT: note_on channel=9 note=35 velocity=127 time=0
EXTRACT: note_off channel=9 note=44 velocity=127 time=0.1339285
EXTRACT: note_off channel=9 note=54 velocity=127 time=0
EXTRACT: note_off channel=9 note=35 velocity=127 time=0
EXTRACT: note_on channel=9 note=54 velocity=127 time=0
EXTRACT: note_off channel=0 note=50 velocity=95 time=0.1339285
EXTRACT: note_off channel=8 note=38 velocity=127 time=0
EXTRACT: note_off channel=4 note=50 velocity=95 time=0
EXTRACT: note_off channel=9 note=54 velocity=127 time=0
EXTRACT: note_on channel=9 note=44 velocity=127 time=0
EXTRACT: note_on channel=9 note=54 velocity=127 time=0
EXTRACT: note_off channel=9 note=44 velocity=127 time=0.1339285
EXTRACT: note_off channel=9 note=54 velocity=127 time=0
EXTRACT: note_on channel=9 note=54 velocity=127 time=0
EXTRACT: note_on channel=2 note=78 velocity=127 time=0.1339285
EXTRACT: note_on channel=2 note=75 velocity=127 time=0
EXTRACT: note_on channel=2 note=70 velocity=95 time=0
EXTRACT: note_off channel=9 note=54 velocity=127 time=0
EXTRACT: note_on channel=9 note=38 velocity=127 time=0
EXTRACT: note_on channel=9 note=39 velocity=95 time=0
EXTRACT: note_on channel=9 note=54 velocity=127 time=0
EXTRACT: note_off channel=9 note=38 velocity=127 time=0.1339285
EXTRACT: note_off channel=9 note=39 velocity=95 time=0
EXTRACT: note_off channel=9 note=54 velocity=127 time=0
EXTRACT: note_on channel=9 note=54 velocity=127 time=0
EXTRACT: note_on channel=0 note=50 velocity=95 time=0.1339285
EXTRACT: note_off channel=2 note=78 velocity=127 time=0
EXTRACT: note_off channel=2 note=75 velocity=127 time=0
EXTRACT: note_off channel=2 note=70 velocity=95 time=0
EXTRACT: note_on channel=8 note=38 velocity=127 time=0
EXTRACT: note_on channel=4 note=50 velocity=95 time=0
EXTRACT: note_off channel=9 note=54 velocity=127 time=0
EXTRACT: note_on channel=9 note=44 velocity=127 time=0
EXTRACT: note_on channel=9 note=54 velocity=127 time=0
EXTRACT: note_off channel=9 note=44 velocity=127 time=0.1339285
EXTRACT: note_off channel=9 note=54 velocity=127 time=0
EXTRACT: note_on channel=9 note=44 velocity=127 time=0
EXTRACT: note_on channel=9 note=54 velocity=127 time=0
EXTRACT: note_off channel=0 note=50 velocity=95 time=0.1339285
EXTRACT: note_on channel=0 note=52 velocity=95 time=0
EXTRACT: note_off channel=8 note=38 velocity=127 time=0
EXTRACT: note_on channel=8 note=40 velocity=127 time=0
EXTRACT: note_off channel=4 note=50 velocity=95 time=0
EXTRACT: note_on channel=4 note=52 velocity=95 time=0
EXTRACT: note_off channel=9 note=44 velocity=127 time=0
EXTRACT: note_off channel=9 note=54 velocity=127 time=0
EXTRACT: note_on channel=9 note=44 velocity=127 time=0
EXTRACT: note_on channel=9 note=54 velocity=127 time=0
EXTRACT: note_on channel=9 note=35 velocity=127 time=0
EXTRACT: note_off channel=9 note=44 velocity=127 time=0.1339285
EXTRACT: note_off channel=9 note=54 velocity=127 time=0
EXTRACT: note_off channel=9 note=35 velocity=127 time=0
EXTRACT: note_on channel=9 note=54 velocity=127 time=0
EXTRACT: note_off channel=0 note=52 velocity=95 time=0.1339285
EXTRACT: note_off channel=8 note=40 velocity=127 time=0
EXTRACT: note_off channel=4 note=52 velocity=95 time=0
EXTRACT: note_off channel=9 note=54 velocity=127 time=0
EXTRACT: note_on channel=9 note=44 velocity=127 time=0
EXTRACT: note_on channel=9 note=54 velocity=127 time=0
EXTRACT: note_off channel=9 note=44 velocity=127 time=0.1339285
EXTRACT: note_off channel=9 note=54 velocity=127 time=0
EXTRACT: note_on channel=9 note=54 velocity=127 time=0
EXTRACT: note_off channel=9 note=54 velocity=127 time=0.1339285
EXTRACT: note_on channel=9 note=38 velocity=127 time=0
EXTRACT: note_on channel=9 note=39 velocity=95 time=0
EXTRACT: note_on channel=9 note=54 velocity=127 time=0
EXTRACT: note_off channel=9 note=38 velocity=127 time=0.1339285
EXTRACT: note_off channel=9 note=39 velocity=95 time=0
EXTRACT: note_off channel=9 note=54 velocity=127 time=0
EXTRACT: note_on channel=9 note=54 velocity=127 time=0
EXTRACT: note_on channel=0 note=52 velocity=95 time=0.1339285
EXTRACT: note_on channel=8 note=40 velocity=127 time=0
EXTRACT: note_on channel=4 note=52 velocity=95 time=0
EXTRACT: note_off channel=9 note=54 velocity=127 time=0
EXTRACT: note_on channel=9 note=44 velocity=127 time=0
EXTRACT: note_on channel=9 note=54 velocity=127 time=0
EXTRACT: note_off channel=9 note=44 velocity=127 time=0.1339285
EXTRACT: note_off channel=9 note=54 velocity=127 time=0
EXTRACT: note_on channel=9 note=54 velocity=127 time=0
EXTRACT: note_off channel=0 note=52 velocity=95 time=0.1339285
EXTRACT: note_on channel=0 note=45 velocity=95 time=0
EXTRACT: note_off channel=8 note=40 velocity=127 time=0
EXTRACT: note_on channel=8 note=33 velocity=127 time=0
EXTRACT: note_off channel=4 note=52 velocity=95 time=0
EXTRACT: note_on channel=4 note=45 velocity=95 time=0
EXTRACT: note_off channel=9 note=54 velocity=127 time=0
EXTRACT: note_on channel=9 note=44 velocity=127 time=0
EXTRACT: note_on channel=9 note=54 velocity=127 time=0
EXTRACT: note_on channel=9 note=35 velocity=127 time=0
EXTRACT: note_off channel=9 note=44 velocity=127 time=0.1339285
EXTRACT: note_off channel=9 note=54 velocity=127 time=0
EXTRACT: note_off channel=9 note=35 velocity=127 time=0
EXTRACT: note_on channel=9 note=54 velocity=127 time=0
EXTRACT: note_off channel=0 note=45 velocity=95 time=0.1339285
EXTRACT: note_off channel=8 note=33 velocity=127 time=0
EXTRACT: note_off channel=4 note=45 velocity=95 time=0
EXTRACT: note_off channel=9 note=54 velocity=127 time=0
EXTRACT: note_on channel=9 note=44 velocity=127 time=0
EXTRACT: note_on channel=9 note=54 velocity=127 time=0
EXTRACT: note_on channel=0 note=45 velocity=95 time=0.1339285
EXTRACT: note_on channel=8 note=33 velocity=127 time=0
EXTRACT: note_on channel=4 note=45 velocity=95 time=0
EXTRACT: note_off channel=9 note=44 velocity=127 time=0
EXTRACT: note_off channel=9 note=54 velocity=127 time=0
EXTRACT: note_on channel=9 note=54 velocity=127 time=0
EXTRACT: note_off channel=9 note=54 velocity=127 time=0.1339285
EXTRACT: note_on channel=9 note=38 velocity=127 time=0
EXTRACT: note_on channel=9 note=39 velocity=95 time=0
EXTRACT: note_on channel=9 note=54 velocity=127 time=0
EXTRACT: note_off channel=0 note=45 velocity=95 time=0.1339285
EXTRACT: note_off channel=8 note=33 velocity=127 time=0
EXTRACT: note_off channel=4 note=45 velocity=95 time=0
EXTRACT: note_off channel=9 note=38 velocity=127 time=0
EXTRACT: note_off channel=9 note=39 velocity=95 time=0
EXTRACT: note_off channel=9 note=54 velocity=127 time=0
EXTRACT: note_on channel=9 note=54 velocity=127 time=0
EXTRACT: note_on channel=0 note=46 velocity=95 time=0.1339285
EXTRACT: note_on channel=8 note=34 velocity=127 time=0
EXTRACT: note_on channel=4 note=46 velocity=95 time=0
EXTRACT: note_off channel=9 note=54 velocity=127 time=0
EXTRACT: note_on channel=9 note=44 velocity=127 time=0
EXTRACT: note_on channel=9 note=54 velocity=127 time=0
EXTRACT: note_off channel=9 note=44 velocity=127 time=0.1339285
EXTRACT: note_off channel=9 note=54 velocity=127 time=0
EXTRACT: note_on channel=9 note=44 velocity=127 time=0
EXTRACT: note_on channel=9 note=54 velocity=127 time=0
EXTRACT: note_off channel=0 note=46 velocity=95 time=0.1339285
EXTRACT: note_on channel=0 note=47 velocity=95 time=0
EXTRACT: note_off channel=8 note=34 velocity=127 time=0
EXTRACT: note_on channel=8 note=35 velocity=127 time=0
EXTRACT: note_on channel=3 note=78 velocity=127 time=0
EXTRACT: note_off channel=4 note=46 velocity=95 time=0
EXTRACT: note_on channel=4 note=47 velocity=95 time=0
EXTRACT: note_off channel=9 note=44 velocity=127 time=0
EXTRACT: note_off channel=9 note=54 velocity=127 time=0
EXTRACT: note_on channel=9 note=44 velocity=127 time=0
EXTRACT: note_on channel=9 note=54 velocity=127 time=0
EXTRACT: note_on channel=9 note=35 velocity=127 time=0
EXTRACT: note_off channel=3 note=78 velocity=127 time=0.1339285
EXTRACT: note_on channel=3 note=78 velocity=127 time=0
EXTRACT: note_off channel=9 note=44 velocity=127 time=0
EXTRACT: note_off channel=9 note=54 velocity=127 time=0
EXTRACT: note_off channel=9 note=35 velocity=127 time=0
EXTRACT: note_on channel=9 note=54 velocity=127 time=0
EXTRACT: note_off channel=0 note=47 velocity=95 time=0.1339285
EXTRACT: note_off channel=8 note=35 velocity=127 time=0
EXTRACT: note_off channel=3 note=78 velocity=127 time=0
EXTRACT: note_on channel=3 note=78 velocity=127 time=0
EXTRACT: note_off channel=4 note=47 velocity=95 time=0
EXTRACT: note_off channel=9 note=54 velocity=127 time=0
EXTRACT: note_on channel=9 note=44 velocity=127 time=0
EXTRACT: note_on channel=9 note=54 velocity=127 time=0
EXTRACT: note_off channel=3 note=78 velocity=127 time=0.1339285
EXTRACT: note_on channel=3 note=78 velocity=127 time=0
EXTRACT: note_off channel=9 note=44 velocity=127 time=0
EXTRACT: note_off channel=9 note=54 velocity=127 time=0
EXTRACT: note_on channel=9 note=54 velocity=127 time=0
EXTRACT: note_off channel=3 note=78 velocity=127 time=0.1339285
EXTRACT: note_on channel=3 note=78 velocity=127 time=0
EXTRACT: note_off channel=9 note=54 velocity=127 time=0
EXTRACT: note_on channel=9 note=38 velocity=127 time=0
EXTRACT: note_on channel=9 note=39 velocity=95 time=0
EXTRACT: note_on channel=9 note=54 velocity=127 time=0
EXTRACT: note_off channel=9 note=38 velocity=127 time=0.1339285
EXTRACT: note_off channel=9 note=39 velocity=95 time=0
EXTRACT: note_off channel=9 note=54 velocity=127 time=0
EXTRACT: note_on channel=9 note=54 velocity=127 time=0
EXTRACT: note_on channel=0 note=47 velocity=95 time=0.1339285
EXTRACT: note_on channel=8 note=35 velocity=127 time=0
EXTRACT: note_off channel=3 note=78 velocity=127 time=0
EXTRACT: note_on channel=3 note=78 velocity=127 time=0
EXTRACT: note_on channel=4 note=47 velocity=95 time=0
EXTRACT: note_off channel=9 note=54 velocity=127 time=0
EXTRACT: note_on channel=9 note=44 velocity=127 time=0
EXTRACT: note_on channel=9 note=54 velocity=127 time=0
EXTRACT: note_off channel=3 note=78 velocity=127 time=0.1339285
EXTRACT: note_on channel=3 note=76 velocity=127 time=0
EXTRACT: note_off channel=9 note=44 velocity=127 time=0
EXTRACT: note_off channel=9 note=54 velocity=127 time=0
EXTRACT: note_on channel=9 note=54 velocity=127 time=0
EXTRACT: note_off channel=0 note=47 velocity=95 time=0.1339285
EXTRACT: note_on channel=0 note=50 velocity=95 time=0
EXTRACT: note_off channel=8 note=35 velocity=127 time=0
EXTRACT: note_on channel=8 note=38 velocity=127 time=0
EXTRACT: note_off channel=4 note=47 velocity=95 time=0
EXTRACT: note_on channel=4 note=50 velocity=95 time=0
EXTRACT: note_off channel=9 note=54 velocity=127 time=0
EXTRACT: note_on channel=9 note=44 velocity=127 time=0
EXTRACT: note_on channel=9 note=54 velocity=127 time=0
EXTRACT: note_on channel=9 note=35 velocity=127 time=0
EXTRACT: note_off channel=3 note=76 velocity=127 time=0.1339285
EXTRACT: note_on channel=3 note=78 velocity=127 time=0
EXTRACT: note_off channel=9 note=44 velocity=127 time=0
EXTRACT: note_off channel=9 note=54 velocity=127 time=0
EXTRACT: note_off channel=9 note=35 velocity=127 time=0
EXTRACT: note_on channel=9 note=54 velocity=127 time=0
EXTRACT: note_off channel=0 note=50 velocity=95 time=0.1339285
EXTRACT: note_off channel=8 note=38 velocity=127 time=0
EXTRACT: note_off channel=3 note=78 velocity=127 time=0
EXTRACT: note_on channel=3 note=76 velocity=127 time=0
EXTRACT: note_off channel=4 note=50 velocity=95 time=0
EXTRACT: note_off channel=9 note=54 velocity=127 time=0
EXTRACT: note_on channel=9 note=44 velocity=127 time=0
EXTRACT: note_on channel=9 note=54 velocity=127 time=0
EXTRACT: note_off channel=3 note=76 velocity=127 time=0.1339285
EXTRACT: note_on channel=3 note=75 velocity=127 time=0
EXTRACT: note_off channel=9 note=44 velocity=127 time=0
EXTRACT: note_off channel=9 note=54 velocity=127 time=0
EXTRACT: note_on channel=9 note=54 velocity=127 time=0
EXTRACT: note_on channel=2 note=78 velocity=127 time=0.1339285
EXTRACT: note_on channel=2 note=75 velocity=127 time=0
EXTRACT: note_on channel=2 note=70 velocity=95 time=0
EXTRACT: note_off channel=3 note=75 velocity=127 time=0
EXTRACT: note_on channel=3 note=73 velocity=127 time=0
EXTRACT: note_off channel=9 note=54 velocity=127 time=0
EXTRACT: note_on channel=9 note=38 velocity=127 time=0
EXTRACT: note_on channel=9 note=39 velocity=95 time=0
EXTRACT: note_on channel=9 note=54 velocity=127 time=0
EXTRACT: note_off channel=9 note=38 velocity=127 time=0.1339285
EXTRACT: note_off channel=9 note=39 velocity=95 time=0
EXTRACT: note_off channel=9 note=54 velocity=127 time=0
EXTRACT: note_on channel=9 note=54 velocity=127 time=0
EXTRACT: note_on channel=0 note=50 velocity=95 time=0.1339285
EXTRACT: note_off channel=2 note=78 velocity=127 time=0
EXTRACT: note_off channel=2 note=75 velocity=127 time=0
EXTRACT: note_off channel=2 note=70 velocity=95 time=0
EXTRACT: note_on channel=8 note=38 velocity=127 time=0
EXTRACT: note_off channel=3 note=73 velocity=127 time=0
EXTRACT: note_on channel=4 note=50 velocity=95 time=0
EXTRACT: note_off channel=9 note=54 velocity=127 time=0
EXTRACT: note_on channel=9 note=44 velocity=127 time=0
EXTRACT: note_on channel=9 note=54 velocity=127 time=0
EXTRACT: note_off channel=9 note=44 velocity=127 time=0.1339285
EXTRACT: note_off channel=9 note=54 velocity=127 time=0
EXTRACT: note_on channel=9 note=44 velocity=127 time=0
EXTRACT: note_on channel=9 note=54 velocity=127 time=0
EXTRACT: note_off channel=0 note=50 velocity=95 time=0.1339285
EXTRACT: note_on channel=0 note=52 velocity=95 time=0
EXTRACT: note_off channel=8 note=38 velocity=127 time=0
EXTRACT: note_on channel=8 note=40 velocity=127 time=0
EXTRACT: note_on channel=3 note=82 velocity=127 time=0
EXTRACT: note_on channel=3 note=78 velocity=127 time=0
EXTRACT: note_on channel=3 note=70 velocity=127 time=0
EXTRACT: note_off channel=4 note=50 velocity=95 time=0
EXTRACT: note_on channel=4 note=52 velocity=95 time=0
EXTRACT: note_off channel=9 note=44 velocity=127 time=0
EXTRACT: note_off channel=9 note=54 velocity=127 time=0
EXTRACT: note_on channel=9 note=44 velocity=127 time=0
EXTRACT: note_on channel=9 note=35 velocity=127 time=0
EXTRACT: note_off channel=3 note=82 velocity=127 time=0.1339285
EXTRACT: note_off channel=3 note=78 velocity=127 time=0
EXTRACT: note_off channel=3 note=70 velocity=127 time=0
EXTRACT: note_on channel=3 note=82 velocity=127 time=0
EXTRACT: note_on channel=3 note=78 velocity=127 time=0
EXTRACT: note_on channel=3 note=70 velocity=127 time=0
EXTRACT: note_off channel=0 note=52 velocity=95 time=0.1339285
EXTRACT: note_off channel=8 note=40 velocity=127 time=0
EXTRACT: note_off channel=3 note=82 velocity=127 time=0
EXTRACT: note_off channel=3 note=78 velocity=127 time=0
EXTRACT: note_off channel=3 note=70 velocity=127 time=0
EXTRACT: note_on channel=3 note=82 velocity=127 time=0
EXTRACT: note_on channel=3 note=78 velocity=127 time=0
EXTRACT: note_on channel=3 note=70 velocity=127 time=0
EXTRACT: note_off channel=4 note=52 velocity=95 time=0
EXTRACT: note_off channel=9 note=44 velocity=127 time=0
EXTRACT: note_off channel=9 note=35 velocity=127 time=0
EXTRACT: note_off channel=3 note=82 velocity=127 time=0.1339285
EXTRACT: note_off channel=3 note=78 velocity=127 time=0
EXTRACT: note_off channel=3 note=70 velocity=127 time=0
EXTRACT: note_on channel=3 note=82 velocity=127 time=0
EXTRACT: note_on channel=3 note=78 velocity=127 time=0
EXTRACT: note_on channel=3 note=70 velocity=127 time=0
EXTRACT: note_off channel=3 note=82 velocity=127 time=0.1339285
EXTRACT: note_off channel=3 note=78 velocity=127 time=0
EXTRACT: note_off channel=3 note=70 velocity=127 time=0
EXTRACT: note_on channel=3 note=82 velocity=127 time=0
EXTRACT: note_on channel=3 note=78 velocity=127 time=0
EXTRACT: note_on channel=3 note=70 velocity=127 time=0
EXTRACT: note_off channel=3 note=82 velocity=127 time=0.267857
EXTRACT: note_off channel=3 note=78 velocity=127 time=0
EXTRACT: note_off channel=3 note=70 velocity=127 time=0
EXTRACT: note_on channel=3 note=82 velocity=127 time=0
EXTRACT: note_on channel=3 note=78 velocity=127 time=0
EXTRACT: note_on channel=3 note=70 velocity=127 time=0
EXTRACT: note_off channel=3 note=82 velocity=127 time=0.1339285
EXTRACT: note_off channel=3 note=78 velocity=127 time=0
EXTRACT: note_off channel=3 note=70 velocity=127 time=0
EXTRACT: note_on channel=3 note=80 velocity=127 time=0
EXTRACT: note_on channel=3 note=76 velocity=127 time=0
EXTRACT: note_on channel=3 note=68 velocity=127 time=0
EXTRACT: note_off channel=3 note=80 velocity=127 time=0.267857
EXTRACT: note_off channel=3 note=76 velocity=127 time=0
EXTRACT: note_off channel=3 note=68 velocity=127 time=0
EXTRACT: note_on channel=3 note=82 velocity=127 time=0
EXTRACT: note_on channel=3 note=78 velocity=127 time=0
EXTRACT: note_on channel=3 note=70 velocity=127 time=0
EXTRACT: note_off channel=3 note=82 velocity=127 time=0.1339285
EXTRACT: note_off channel=3 note=78 velocity=127 time=0
EXTRACT: note_off channel=3 note=70 velocity=127 time=0
EXTRACT: note_on channel=3 note=80 velocity=127 time=0
EXTRACT: note_on channel=3 note=76 velocity=127 time=0
EXTRACT: note_on channel=3 note=68 velocity=127 time=0
EXTRACT: note_off channel=3 note=80 velocity=127 time=0.1339285
EXTRACT: note_off channel=3 note=76 velocity=127 time=0
EXTRACT: note_off channel=3 note=68 velocity=127 time=0
EXTRACT: note_on channel=3 note=78 velocity=127 time=0
EXTRACT: note_on channel=3 note=75 velocity=127 time=0
EXTRACT: note_on channel=3 note=66 velocity=127 time=0
EXTRACT: note_off channel=3 note=78 velocity=127 time=0.1339285
EXTRACT: note_off channel=3 note=75 velocity=127 time=0
EXTRACT: note_off channel=3 note=66 velocity=127 time=0
EXTRACT: note_on channel=3 note=78 velocity=127 time=0
EXTRACT: note_on channel=3 note=73 velocity=127 time=0
EXTRACT: note_on channel=3 note=66 velocity=127 time=0
EXTRACT: note_on channel=9 note=38 velocity=127 time=0
EXTRACT: note_on channel=9 note=39 velocity=95 time=0
EXTRACT: note_off channel=3 note=78 velocity=127 time=0.267857
EXTRACT: note_off channel=3 note=73 velocity=127 time=0
EXTRACT: note_off channel=3 note=66 velocity=127 time=0
EXTRACT: note_off channel=9 note=38 velocity=127 time=0
EXTRACT: note_off channel=9 note=39 velocity=95 time=0
EXTRACT: note_on channel=9 note=44 velocity=127 time=0
EXTRACT: note_off channel=9 note=44 velocity=127 time=0.1339285
EXTRACT: note_on channel=9 note=44 velocity=127 time=0
EXTRACT: note_on channel=0 note=54 velocity=95 time=0.1339285
EXTRACT: note_on channel=0 note=49 velocity=95 time=0
EXTRACT: note_on channel=0 note=42 velocity=95 time=0
EXTRACT: note_on channel=8 note=30 velocity=127 time=0
EXTRACT: note_on channel=3 note=78 velocity=127 time=0
EXTRACT: note_on channel=3 note=73 velocity=127 time=0
EXTRACT: note_on channel=4 note=70 velocity=95 time=0
EXTRACT: note_on channel=4 note=66 velocity=95 time=0
EXTRACT: note_on channel=4 note=61 velocity=95 time=0
EXTRACT: note_on channel=4 note=58 velocity=95 time=0
EXTRACT: note_on channel=5 note=70 velocity=95 time=0
EXTRACT: note_on channel=5 note=66 velocity=95 time=0
EXTRACT: note_on channel=5 note=61 velocity=95 time=0
EXTRACT: note_on channel=5 note=58 velocity=95 time=0
EXTRACT: note_on channel=6 note=78 velocity=95 time=0
EXTRACT: note_off channel=9 note=44 velocity=127 time=0
EXTRACT: note_on channel=9 note=44 velocity=127 time=0
EXTRACT: note_on channel=9 note=54 velocity=127 time=0
EXTRACT: note_on channel=9 note=35 velocity=127 time=0
EXTRACT: note_off channel=3 note=78 velocity=127 time=0.1339285
EXTRACT: note_off channel=3 note=73 velocity=127 time=0
EXTRACT: note_on channel=3 note=78 velocity=127 time=0
EXTRACT: note_on channel=3 note=73 velocity=127 time=0
EXTRACT: note_off channel=9 note=44 velocity=127 time=0
EXTRACT: note_off channel=9 note=54 velocity=127 time=0
EXTRACT: note_off channel=9 note=35 velocity=127 time=0
EXTRACT: note_on channel=9 note=54 velocity=127 time=0
EXTRACT: note_off channel=6 note=78 velocity=95 time=0.06696425
EXTRACT: note_off channel=8 note=30 velocity=127 time=0.06696425
EXTRACT: note_off channel=3 note=78 velocity=127 time=0
EXTRACT: note_off channel=3 note=73 velocity=127 time=0
EXTRACT: note_on channel=3 note=78 velocity=127 time=0
EXTRACT: note_on channel=3 note=73 velocity=127 time=0
EXTRACT: note_off channel=9 note=54 velocity=127 time=0
EXTRACT: note_on channel=9 note=44 velocity=127 time=0
EXTRACT: note_on channel=9 note=81 velocity=127 time=0
EXTRACT: note_on channel=9 note=54 velocity=127 time=0
EXTRACT: note_off channel=3 note=78 velocity=127 time=0.1339285
EXTRACT: note_off channel=3 note=73 velocity=127 time=0
EXTRACT: note_on channel=3 note=78 velocity=127 time=0
EXTRACT: note_on channel=3 note=73 velocity=127 time=0
EXTRACT: note_off channel=9 note=44 velocity=127 time=0
EXTRACT: note_off channel=9 note=81 velocity=127 time=0
EXTRACT: note_off channel=9 note=54 velocity=127 time=0
EXTRACT: note_on channel=9 note=54 velocity=127 time=0
EXTRACT: note_off channel=3 note=78 velocity=127 time=0.1339285
EXTRACT: note_off channel=3 note=73 velocity=127 time=0
EXTRACT: note_on channel=3 note=78 velocity=127 time=0
EXTRACT: note_on channel=3 note=73 velocity=127 time=0
EXTRACT: note_on channel=6 note=78 velocity=95 time=0
EXTRACT: note_off channel=9 note=54 velocity=127 time=0
EXTRACT: note_on channel=9 note=38 velocity=127 time=0
EXTRACT: note_on channel=9 note=39 velocity=95 time=0
EXTRACT: note_on channel=9 note=54 velocity=127 time=0
EXTRACT: note_off channel=9 note=38 velocity=127 time=0.1339285
EXTRACT: note_off channel=9 note=39 velocity=95 time=0
EXTRACT: note_off channel=9 note=54 velocity=127 time=0
EXTRACT: note_on channel=9 note=54 velocity=127 time=0
EXTRACT: note_off channel=6 note=78 velocity=95 time=0.06696425
EXTRACT: note_off channel=0 note=54 velocity=95 time=0.06696425
EXTRACT: note_off channel=0 note=49 velocity=95 time=0
EXTRACT: note_off channel=0 note=42 velocity=95 time=0
EXTRACT: note_on channel=0 note=59 velocity=95 time=0
EXTRACT: note_on channel=0 note=54 velocity=95 time=0
EXTRACT: note_on channel=0 note=47 velocity=95 time=0
EXTRACT: note_on channel=8 note=30 velocity=127 time=0
EXTRACT: note_off channel=3 note=78 velocity=127 time=0
EXTRACT: note_off channel=3 note=73 velocity=127 time=0
EXTRACT: note_on channel=3 note=80 velocity=127 time=0
EXTRACT: note_on channel=3 note=75 velocity=127 time=0
EXTRACT: note_off channel=4 note=70 velocity=95 time=0
EXTRACT: note_off channel=4 note=66 velocity=95 time=0
EXTRACT: note_off channel=4 note=61 velocity=95 time=0
EXTRACT: note_off channel=4 note=58 velocity=95 time=0
EXTRACT: note_on channel=4 note=71 velocity=95 time=0
EXTRACT: note_on channel=4 note=66 velocity=95 time=0
EXTRACT: note_on channel=4 note=63 velocity=95 time=0
EXTRACT: note_on channel=4 note=59 velocity=95 time=0
EXTRACT: note_off channel=5 note=70 velocity=95 time=0
EXTRACT: note_off channel=5 note=66 velocity=95 time=0
EXTRACT: note_off channel=5 note=61 velocity=95 time=0
EXTRACT: note_off channel=5 note=58 velocity=95 time=0
EXTRACT: note_on channel=5 note=71 velocity=95 time=0
EXTRACT: note_on channel=5 note=66 velocity=95 time=0
EXTRACT: note_on channel=5 note=63 velocity=95 time=0
EXTRACT: note_on channel=5 note=59 velocity=95 time=0
EXTRACT: note_off channel=9 note=54 velocity=127 time=0
EXTRACT: note_on channel=9 note=44 velocity=127 time=0
EXTRACT: note_on channel=9 note=81 velocity=127 time=0
EXTRACT: note_on channel=9 note=54 velocity=127 time=0
EXTRACT: note_off channel=9 note=44 velocity=127 time=0.1339285
EXTRACT: note_off channel=9 note=81 velocity=127 time=0
EXTRACT: note_off channel=9 note=54 velocity=127 time=0
EXTRACT: note_on channel=9 note=54 velocity=127 time=0
EXTRACT: note_off channel=8 note=30 velocity=127 time=0.1339285
EXTRACT: note_on channel=8 note=32 velocity=127 time=0
EXTRACT: note_off channel=3 note=80 velocity=127 time=0
EXTRACT: note_off channel=3 note=75 velocity=127 time=0
EXTRACT: note_on channel=3 note=78 velocity=127 time=0
EXTRACT: note_on channel=3 note=75 velocity=127 time=0
EXTRACT: note_on channel=6 note=78 velocity=95 time=0
EXTRACT: note_off channel=9 note=54 velocity=127 time=0
EXTRACT: note_on channel=9 note=44 velocity=127 time=0
EXTRACT: note_on channel=9 note=54 velocity=127 time=0
EXTRACT: note_on channel=9 note=35 velocity=127 time=0
EXTRACT: note_off channel=9 note=44 velocity=127 time=0.1339285
EXTRACT: note_off channel=9 note=54 velocity=127 time=0
EXTRACT: note_off channel=9 note=35 velocity=127 time=0
EXTRACT: note_on channel=9 note=54 velocity=127 time=0
EXTRACT: note_off channel=6 note=78 velocity=95 time=0.06696425
EXTRACT: note_off channel=8 note=32 velocity=127 time=0.06696425
EXTRACT: note_off channel=3 note=78 velocity=127 time=0
EXTRACT: note_off channel=3 note=75 velocity=127 time=0
EXTRACT: note_on channel=3 note=75 velocity=127 time=0
EXTRACT: note_off channel=9 note=54 velocity=127 time=0
EXTRACT: note_on channel=9 note=44 velocity=127 time=0
EXTRACT: note_on channel=9 note=81 velocity=127 time=0
EXTRACT: note_on channel=9 note=54 velocity=127 time=0
EXTRACT: note_off channel=9 note=44 velocity=127 time=0.1339285
EXTRACT: note_off channel=9 note=81 velocity=127 time=0
EXTRACT: note_off channel=9 note=54 velocity=127 time=0
EXTRACT: note_on channel=9 note=54 velocity=127 time=0
EXTRACT: note_on channel=2 note=78 velocity=127 time=0.1339285
EXTRACT: note_on channel=2 note=75 velocity=127 time=0
EXTRACT: note_on channel=2 note=70 velocity=95 time=0
EXTRACT: note_off channel=3 note=75 velocity=127 time=0
EXTRACT: note_on channel=6 note=78 velocity=95 time=0
EXTRACT: note_off channel=9 note=54 velocity=127 time=0
EXTRACT: note_on channel=9 note=38 velocity=127 time=0
EXTRACT: note_on channel=9 note=39 velocity=95 time=0
EXTRACT: note_on channel=9 note=54 velocity=127 time=0
EXTRACT: note_off channel=9 note=38 velocity=127 time=0.1339285
EXTRACT: note_off channel=9 note=39 velocity=95 time=0
EXTRACT: note_off channel=9 note=54 velocity=127 time=0
EXTRACT: note_on channel=9 note=54 velocity=127 time=0
EXTRACT: note_off channel=6 note=78 velocity=95 time=0.06696425
EXTRACT: note_off channel=2 note=78 velocity=127 time=0.06696425
EXTRACT: note_off channel=2 note=75 velocity=127 time=0
EXTRACT: note_off channel=2 note=70 velocity=95 time=0
EXTRACT: note_on channel=8 note=32 velocity=127 time=0
EXTRACT: note_off channel=9 note=54 velocity=127 time=0
EXTRACT: note_on channel=9 note=44 velocity=127 time=0
EXTRACT: note_on channel=9 note=81 velocity=127 time=0
EXTRACT: note_on channel=9 note=54 velocity=127 time=0
EXTRACT: note_on channel=3 note=71 velocity=127 time=0.1339285
EXTRACT: note_off channel=9 note=44 velocity=127 time=0
EXTRACT: note_off channel=9 note=81 velocity=127 time=0
EXTRACT: note_off channel=9 note=54 velocity=127 time=0
EXTRACT: note_on channel=9 note=44 velocity=127 time=0
EXTRACT: note_on channel=9 note=54 velocity=127 time=0
EXTRACT: note_off channel=0 note=59 velocity=95 time=0.1339285
EXTRACT: note_off channel=0 note=54 velocity=95 time=0
EXTRACT: note_off channel=0 note=47 velocity=95 time=0
EXTRACT: note_on channel=0 note=52 velocity=95 time=0
EXTRACT: note_on channel=0 note=47 velocity=95 time=0
EXTRACT: note_on channel=0 note=40 velocity=95 time=0
EXTRACT: note_off channel=8 note=32 velocity=127 time=0
EXTRACT: note_on channel=8 note=27 velocity=127 time=0
EXTRACT: note_off channel=3 note=71 velocity=127 time=0
EXTRACT: note_on channel=3 note=73 velocity=127 time=0
EXTRACT: note_off channel=4 note=71 velocity=95 time=0
EXTRACT: note_off channel=4 note=66 velocity=95 time=0
EXTRACT: note_off channel=4 note=63 velocity=95 time=0
EXTRACT: note_off channel=4 note=59 velocity=95 time=0
EXTRACT: note_on channel=4 note=68 velocity=95 time=0
EXTRACT: note_on channel=4 note=64 velocity=95 time=0
EXTRACT: note_on channel=4 note=59 velocity=95 time=0
EXTRACT: note_on channel=4 note=56 velocity=95 time=0
EXTRACT: note_off channel=5 note=71 velocity=95 time=0
EXTRACT: note_off channel=5 note=66 velocity=95 time=0
EXTRACT: note_off channel=5 note=63 velocity=95 time=0
EXTRACT: note_off channel=5 note=59 velocity=95 time=0
EXTRACT: note_on channel=5 note=68 velocity=95 time=0
EXTRACT: note_on channel=5 note=64 velocity=95 time=0
EXTRACT: note_on channel=5 note=59 velocity=95 time=0
EXTRACT: note_on channel=5 note=56 velocity=95 time=0
EXTRACT: note_on channel=6 note=78 velocity=95 time=0
EXTRACT: note_off channel=9 note=44 velocity=127 time=0
EXTRACT: note_off channel=9 note=54 velocity=127 time=0
EXTRACT: note_on channel=9 note=44 velocity=127 time=0
EXTRACT: note_on channel=9 note=54 velocity=127 time=0
EXTRACT: note_on channel=9 note=35 velocity=127 time=0
EXTRACT: note_off channel=3 note=73 velocity=127 time=0.1339285
EXTRACT: note_on channel=3 note=71 velocity=127 time=0
EXTRACT: note_off channel=9 note=44 velocity=127 time=0
EXTRACT: note_off channel=9 note=54 velocity=127 time=0
EXTRACT: note_off channel=9 note=35 velocity=127 time=0
EXTRACT: note_on channel=9 note=54 velocity=127 time=0
EXTRACT: note_off channel=6 note=78 velocity=95 time=0.06696425
EXTRACT: note_off channel=8 note=27 velocity=127 time=0.06696425
EXTRACT: note_off channel=3 note=71 velocity=127 time=0
EXTRACT: note_on channel=3 note=73 velocity=127 time=0
EXTRACT: note_off channel=9 note=54 velocity=127 time=0
EXTRACT: note_on channel=9 note=44 velocity=127 time=0
EXTRACT: note_on channel=9 note=81 velocity=127 time=0
EXTRACT: note_on channel=9 note=54 velocity=127 time=0
EXTRACT: note_off channel=9 note=44 velocity=127 time=0.1339285
EXTRACT: note_off channel=9 note=81 velocity=127 time=0
EXTRACT: note_off channel=9 note=54 velocity=127 time=0
EXTRACT: note_on channel=9 note=54 velocity=127 time=0
EXTRACT: note_off channel=3 note=73 velocity=127 time=0.1339285
EXTRACT: note_on channel=3 note=73 velocity=127 time=0
EXTRACT: note_on channel=6 note=78 velocity=95 time=0
EXTRACT: note_off channel=9 note=54 velocity=127 time=0
EXTRACT: note_on channel=9 note=38 velocity=127 time=0
EXTRACT: note_on channel=9 note=39 velocity=95 time=0
EXTRACT: note_on channel=9 note=54 velocity=127 time=0
EXTRACT: note_off channel=9 note=38 velocity=127 time=0.1339285
EXTRACT: note_off channel=9 note=39 velocity=95 time=0
EXTRACT: note_off channel=9 note=54 velocity=127 time=0
EXTRACT: note_on channel=9 note=54 velocity=127 time=0
EXTRACT: note_off channel=6 note=78 velocity=95 time=0.06696425
EXTRACT: note_off channel=0 note=52 velocity=95 time=0.06696425
EXTRACT: note_off channel=0 note=47 velocity=95 time=0
EXTRACT: note_off channel=0 note=40 velocity=95 time=0
EXTRACT: note_on channel=0 note=59 velocity=95 time=0
EXTRACT: note_on channel=0 note=54 velocity=95 time=0
EXTRACT: note_on channel=0 note=47 velocity=95 time=0
EXTRACT: note_on channel=8 note=27 velocity=127 time=0
EXTRACT: note_off channel=3 note=73 velocity=127 time=0
EXTRACT: note_on channel=3 note=71 velocity=127 time=0
EXTRACT: note_off channel=4 note=68 velocity=95 time=0
EXTRACT: note_off channel=4 note=64 velocity=95 time=0
EXTRACT: note_off channel=4 note=59 velocity=95 time=0
EXTRACT: note_off channel=4 note=56 velocity=95 time=0
EXTRACT: note_on channel=4 note=71 velocity=95 time=0
EXTRACT: note_on channel=4 note=66 velocity=95 time=0
EXTRACT: note_on channel=4 note=63 velocity=95 time=0
EXTRACT: note_on channel=4 note=59 velocity=95 time=0
EXTRACT: note_off channel=5 note=68 velocity=95 time=0
EXTRACT: note_off channel=5 note=64 velocity=95 time=0
EXTRACT: note_off channel=5 note=59 velocity=95 time=0
EXTRACT: note_off channel=5 note=56 velocity=95 time=0
EXTRACT: note_on channel=5 note=71 velocity=95 time=0
EXTRACT: note_on channel=5 note=66 velocity=95 time=0
EXTRACT: note_on channel=5 note=63 velocity=95 time=0
EXTRACT: note_on channel=5 note=59 velocity=95 time=0
EXTRACT: note_off channel=9 note=54 velocity=127 time=0
EXTRACT: note_on channel=9 note=44 velocity=127 time=0
EXTRACT: note_on channel=9 note=81 velocity=127 time=0
EXTRACT: note_on channel=9 note=54 velocity=127 time=0
EXTRACT: note_off channel=9 note=44 velocity=127 time=0.1339285
EXTRACT: note_off channel=9 note=81 velocity=127 time=0
EXTRACT: note_off channel=9 note=54 velocity=127 time=0
EXTRACT: note_on channel=9 note=54 velocity=127 time=0
EXTRACT: note_off channel=8 note=27 velocity=127 time=0.1339285
EXTRACT: note_on channel=8 note=35 velocity=127 time=0
EXTRACT: note_off channel=3 note=71 velocity=127 time=0
EXTRACT: note_on channel=3 note=83 velocity=127 time=0
EXTRACT: note_on channel=3 note=75 velocity=127 time=0
EXTRACT: note_on channel=6 note=78 velocity=95 time=0
EXTRACT: note_off channel=9 note=54 velocity=127 time=0
EXTRACT: note_on channel=9 note=44 velocity=127 time=0
EXTRACT: note_on channel=9 note=54 velocity=127 time=0
EXTRACT: note_on channel=9 note=35 velocity=127 time=0
EXTRACT: note_off channel=8 note=35 velocity=127 time=0.1339285
EXTRACT: note_on channel=8 note=30 velocity=127 time=0
EXTRACT: note_off channel=3 note=83 velocity=127 time=0
EXTRACT: note_off channel=3 note=75 velocity=127 time=0
EXTRACT: note_on channel=3 note=83 velocity=127 time=0
EXTRACT: note_off channel=9 note=44 velocity=127 time=0
EXTRACT: note_off channel=9 note=54 velocity=127 time=0
EXTRACT: note_off channel=9 note=35 velocity=127 time=0
EXTRACT: note_on channel=9 note=54 velocity=127 time=0
EXTRACT: note_off channel=6 note=78 velocity=95 time=0.06696425
EXTRACT: note_off channel=3 note=83 velocity=127 time=0.06696425
EXTRACT: note_on channel=3 note=83 velocity=127 time=0
EXTRACT: note_off channel=9 note=54 velocity=127 time=0
EXTRACT: note_on channel=9 note=44 velocity=127 time=0
EXTRACT: note_on channel=9 note=81 velocity=127 time=0
EXTRACT: note_on channel=9 note=54 velocity=127 time=0
EXTRACT: note_off channel=8 note=30 velocity=127 time=0.1339285
EXTRACT: note_on channel=8 note=35 velocity=127 time=0
EXTRACT: note_off channel=9 note=44 velocity=127 time=0
EXTRACT: note_off channel=9 note=81 velocity=127 time=0
EXTRACT: note_off channel=9 note=54 velocity=127 time=0
EXTRACT: note_on channel=9 note=54 velocity=127 time=0
EXTRACT: note_on channel=2 note=78 velocity=127 time=0.1339285
EXTRACT: note_on channel=2 note=75 velocity=127 time=0
EXTRACT: note_on channel=2 note=70 velocity=95 time=0
EXTRACT: note_off channel=8 note=35 velocity=127 time=0
EXTRACT: note_on channel=8 note=30 velocity=127 time=0
EXTRACT: note_off channel=3 note=83 velocity=127 time=0
EXTRACT: note_on channel=3 note=83 velocity=127 time=0
EXTRACT: note_on channel=6 note=78 velocity=95 time=0
EXTRACT: note_off channel=9 note=54 velocity=127 time=0
EXTRACT: note_on channel=9 note=38 velocity=127 time=0
EXTRACT: note_on channel=9 note=39 velocity=95 time=0
EXTRACT: note_on channel=9 note=54 velocity=127 time=0
EXTRACT: note_off channel=9 note=38 velocity=127 time=0.1339285
EXTRACT: note_off channel=9 note=39 velocity=95 time=0
EXTRACT: note_off channel=9 note=54 velocity=127 time=0
EXTRACT: note_on channel=9 note=54 velocity=127 time=0
EXTRACT: note_off channel=6 note=78 velocity=95 time=0.06696425
EXTRACT: note_off channel=2 note=78 velocity=127 time=0.06696425
EXTRACT: note_off channel=2 note=75 velocity=127 time=0
EXTRACT: note_off channel=2 note=70 velocity=95 time=0
EXTRACT: note_off channel=8 note=30 velocity=127 time=0
EXTRACT: note_on channel=8 note=35 velocity=127 time=0
EXTRACT: note_off channel=3 note=83 velocity=127 time=0
EXTRACT: note_on channel=3 note=83 velocity=127 time=0
EXTRACT: note_off channel=9 note=54 velocity=127 time=0
EXTRACT: note_on channel=9 note=44 velocity=127 time=0
EXTRACT: note_on channel=9 note=81 velocity=127 time=0
EXTRACT: note_on channel=9 note=54 velocity=127 time=0
EXTRACT: note_off channel=9 note=44 velocity=127 time=0.1339285
EXTRACT: note_off channel=9 note=81 velocity=127 time=0
EXTRACT: note_off channel=9 note=54 velocity=127 time=0
EXTRACT: note_on channel=9 note=44 velocity=127 time=0
EXTRACT: note_on channel=9 note=54 velocity=127 time=0
EXTRACT: note_off channel=0 note=59 velocity=95 time=0.1339285
EXTRACT: note_off channel=0 note=54 velocity=95 time=0
EXTRACT: note_off channel=0 note=47 velocity=95 time=0
EXTRACT: note_on channel=0 note=54 velocity=95 time=0
EXTRACT: note_on channel=0 note=49 velocity=95 time=0
EXTRACT: note_on channel=0 note=42 velocity=95 time=0
EXTRACT: note_off channel=8 note=35 velocity=127 time=0
EXTRACT: note_on channel=8 note=30 velocity=127 time=0
EXTRACT: note_off channel=3 note=83 velocity=127 time=0
EXTRACT: note_on channel=3 note=82 velocity=127 time=0
EXTRACT: note_on channel=3 note=78 velocity=127 time=0
EXTRACT: note_on channel=3 note=73 velocity=127 time=0
EXTRACT: note_off channel=4 note=71 velocity=95 time=0
EXTRACT: note_off channel=4 note=66 velocity=95 time=0
EXTRACT: note_off channel=4 note=63 velocity=95 time=0
EXTRACT: note_off channel=4 note=59 velocity=95 time=0
EXTRACT: note_on channel=4 note=70 velocity=95 time=0
EXTRACT: note_on channel=4 note=66 velocity=95 time=0
EXTRACT: note_on channel=4 note=61 velocity=95 time=0
EXTRACT: note_on channel=4 note=58 velocity=95 time=0
EXTRACT: note_off channel=5 note=71 velocity=95 time=0
EXTRACT: note_off channel=5 note=66 velocity=95 time=0
EXTRACT: note_off channel=5 note=63 velocity=95 time=0
EXTRACT: note_off channel=5 note=59 velocity=95 time=0
EXTRACT: note_on channel=5 note=70 velocity=95 time=0
EXTRACT: note_on channel=5 note=66 velocity=95 time=0
EXTRACT: note_on channel=5 note=61 velocity=95 time=0
EXTRACT: note_on channel=5 note=58 velocity=95 time=0
EXTRACT: note_on channel=6 note=78 velocity=95 time=0
EXTRACT: note_off channel=9 note=44 velocity=127 time=0
EXTRACT: note_off channel=9 note=54 velocity=127 time=0
EXTRACT: note_on channel=9 note=44 velocity=127 time=0
EXTRACT: note_on channel=9 note=54 velocity=127 time=0
EXTRACT: note_on channel=9 note=35 velocity=127 time=0
EXTRACT: note_off channel=9 note=44 velocity=127 time=0.1339285
EXTRACT: note_off channel=9 note=54 velocity=127 time=0
EXTRACT: note_off channel=9 note=35 velocity=127 time=0
EXTRACT: note_on channel=9 note=54 velocity=127 time=0
EXTRACT: note_off channel=6 note=78 velocity=95 time=0.06696425
EXTRACT: note_off channel=8 note=30 velocity=127 time=0.06696425
EXTRACT: note_off channel=3 note=82 velocity=127 time=0
EXTRACT: note_off channel=3 note=78 velocity=127 time=0
EXTRACT: note_off channel=3 note=73 velocity=127 time=0
EXTRACT: note_on channel=3 note=80 velocity=127 time=0
EXTRACT: note_on channel=3 note=78 velocity=127 time=0
EXTRACT: note_on channel=3 note=73 velocity=127 time=0
EXTRACT: note_off channel=9 note=54 velocity=127 time=0
EXTRACT: note_on channel=9 note=44 velocity=127 time=0
EXTRACT: note_on channel=9 note=81 velocity=127 time=0
EXTRACT: note_on channel=9 note=54 velocity=127 time=0
EXTRACT: note_off channel=9 note=44 velocity=127 time=0.1339285
EXTRACT: note_off channel=9 note=81 velocity=127 time=0
EXTRACT: note_off channel=9 note=54 velocity=127 time=0
EXTRACT: note_on channel=9 note=54 velocity=127 time=0
EXTRACT: note_off channel=3 note=80 velocity=127 time=0.1339285
EXTRACT: note_off channel=3 note=78 velocity=127 time=0
EXTRACT: note_off channel=3 note=73 velocity=127 time=0
EXTRACT: note_on channel=3 note=78 velocity=127 time=0
EXTRACT: note_on channel=3 note=78 velocity=127 time=0
EXTRACT: note_on channel=3 note=73 velocity=127 time=0
EXTRACT: note_on channel=6 note=78 velocity=95 time=0
EXTRACT: note_off channel=9 note=54 velocity=127 time=0
EXTRACT: note_on channel=9 note=38 velocity=127 time=0
EXTRACT: note_on channel=9 note=39 velocity=95 time=0
EXTRACT: note_on channel=9 note=54 velocity=127 time=0
EXTRACT: note_off channel=9 note=38 velocity=127 time=0.1339285
EXTRACT: note_off channel=9 note=39 velocity=95 time=0
EXTRACT: note_off channel=9 note=54 velocity=127 time=0
EXTRACT: note_on channel=9 note=54 velocity=127 time=0
EXTRACT: note_off channel=6 note=78 velocity=95 time=0.06696425
EXTRACT: note_off channel=0 note=54 velocity=95 time=0.06696425
EXTRACT: note_off channel=0 note=49 velocity=95 time=0
EXTRACT: note_off channel=0 note=42 velocity=95 time=0
EXTRACT: note_on channel=0 note=59 velocity=95 time=0
EXTRACT: note_on channel=0 note=54 velocity=95 time=0
EXTRACT: note_on channel=0 note=47 velocity=95 time=0
EXTRACT: note_on channel=8 note=30 velocity=127 time=0
EXTRACT: note_off channel=3 note=78 velocity=127 time=0
EXTRACT: note_off channel=3 note=78 velocity=127 time=0
EXTRACT: note_off channel=3 note=73 velocity=127 time=0
EXTRACT: note_on channel=3 note=80 velocity=127 time=0
EXTRACT: note_on channel=3 note=75 velocity=127 time=0
EXTRACT: note_off channel=4 note=70 velocity=95 time=0
EXTRACT: note_off channel=4 note=66 velocity=95 time=0
EXTRACT: note_off channel=4 note=61 velocity=95 time=0
EXTRACT: note_off channel=4 note=58 velocity=95 time=0
EXTRACT: note_on channel=4 note=71 velocity=95 time=0
EXTRACT: note_on channel=4 note=66 velocity=95 time=0
EXTRACT: note_on channel=4 note=63 velocity=95 time=0
EXTRACT: note_on channel=4 note=59 velocity=95 time=0
EXTRACT: note_off channel=5 note=70 velocity=95 time=0
EXTRACT: note_off channel=5 note=66 velocity=95 time=0
EXTRACT: note_off channel=5 note=61 velocity=95 time=0
EXTRACT: note_off channel=5 note=58 velocity=95 time=0
EXTRACT: note_on channel=5 note=71 velocity=95 time=0
EXTRACT: note_on channel=5 note=66 velocity=95 time=0
EXTRACT: note_on channel=5 note=63 velocity=95 time=0
EXTRACT: note_on channel=5 note=59 velocity=95 time=0
EXTRACT: note_off channel=9 note=54 velocity=127 time=0
EXTRACT: note_on channel=9 note=44 velocity=127 time=0
EXTRACT: note_on channel=9 note=81 velocity=127 time=0
EXTRACT: note_on channel=9 note=54 velocity=127 time=0
EXTRACT: note_off channel=9 note=44 velocity=127 time=0.1339285
EXTRACT: note_off channel=9 note=81 velocity=127 time=0
EXTRACT: note_off channel=9 note=54 velocity=127 time=0
EXTRACT: note_on channel=9 note=54 velocity=127 time=0
EXTRACT: note_off channel=8 note=30 velocity=127 time=0.1339285
EXTRACT: note_on channel=8 note=32 velocity=127 time=0
EXTRACT: note_off channel=3 note=80 velocity=127 time=0
EXTRACT: note_off channel=3 note=75 velocity=127 time=0
EXTRACT: note_on channel=3 note=78 velocity=127 time=0
EXTRACT: note_on channel=3 note=75 velocity=127 time=0
EXTRACT: note_on channel=6 note=78 velocity=95 time=0
EXTRACT: note_off channel=9 note=54 velocity=127 time=0
EXTRACT: note_on channel=9 note=44 velocity=127 time=0
EXTRACT: note_on channel=9 note=54 velocity=127 time=0
EXTRACT: note_on channel=9 note=35 velocity=127 time=0
EXTRACT: note_off channel=9 note=44 velocity=127 time=0.1339285
EXTRACT: note_off channel=9 note=54 velocity=127 time=0
EXTRACT: note_off channel=9 note=35 velocity=127 time=0
EXTRACT: note_on channel=9 note=54 velocity=127 time=0
EXTRACT: note_off channel=6 note=78 velocity=95 time=0.06696425
EXTRACT: note_off channel=8 note=32 velocity=127 time=0.06696425
EXTRACT: note_off channel=3 note=78 velocity=127 time=0
EXTRACT: note_off channel=3 note=75 velocity=127 time=0
EXTRACT: note_on channel=3 note=75 velocity=127 time=0
EXTRACT: note_off channel=9 note=54 velocity=127 time=0
EXTRACT: note_on channel=9 note=44 velocity=127 time=0
EXTRACT: note_on channel=9 note=81 velocity=127 time=0
EXTRACT: note_on channel=9 note=54 velocity=127 time=0
EXTRACT: note_off channel=9 note=44 velocity=127 time=0.1339285
EXTRACT: note_off channel=9 note=81 velocity=127 time=0
EXTRACT: note_off channel=9 note=54 velocity=127 time=0
EXTRACT: note_on channel=9 note=54 velocity=127 time=0
EXTRACT: note_on channel=2 note=78 velocity=127 time=0.1339285
EXTRACT: note_on channel=2 note=75 velocity=127 time=0
EXTRACT: note_on channel=2 note=70 velocity=95 time=0
EXTRACT: note_off channel=3 note=75 velocity=127 time=0
EXTRACT: note_on channel=6 note=78 velocity=95 time=0
EXTRACT: note_off channel=9 note=54 velocity=127 time=0
EXTRACT: note_on channel=9 note=38 velocity=127 time=0
EXTRACT: note_on channel=9 note=39 velocity=95 time=0
EXTRACT: note_on channel=9 note=54 velocity=127 time=0
EXTRACT: note_off channel=9 note=38 velocity=127 time=0.1339285
EXTRACT: note_off channel=9 note=39 velocity=95 time=0
EXTRACT: note_off channel=9 note=54 velocity=127 time=0
EXTRACT: note_on channel=9 note=54 velocity=127 time=0
EXTRACT: note_off channel=6 note=78 velocity=95 time=0.06696425
EXTRACT: note_off channel=2 note=78 velocity=127 time=0.06696425
EXTRACT: note_off channel=2 note=75 velocity=127 time=0
EXTRACT: note_off channel=2 note=70 velocity=95 time=0
EXTRACT: note_on channel=8 note=32 velocity=127 time=0
EXTRACT: note_off channel=9 note=54 velocity=127 time=0
EXTRACT: note_on channel=9 note=44 velocity=127 time=0
EXTRACT: note_on channel=9 note=81 velocity=127 time=0
EXTRACT: note_on channel=9 note=54 velocity=127 time=0
EXTRACT: note_on channel=3 note=83 velocity=127 time=0.1339285
EXTRACT: note_on channel=3 note=75 velocity=127 time=0
EXTRACT: note_off channel=9 note=44 velocity=127 time=0
EXTRACT: note_off channel=9 note=81 velocity=127 time=0
EXTRACT: note_off channel=9 note=54 velocity=127 time=0
EXTRACT: note_on channel=9 note=44 velocity=127 time=0
EXTRACT: note_on channel=9 note=54 velocity=127 time=0
EXTRACT: note_off channel=0 note=59 velocity=95 time=0.1339285
EXTRACT: note_off channel=0 note=54 velocity=95 time=0
EXTRACT: note_off channel=0 note=47 velocity=95 time=0
EXTRACT: note_on channel=0 note=52 velocity=95 time=0
EXTRACT: note_on channel=0 note=47 velocity=95 time=0
EXTRACT: note_on channel=0 note=40 velocity=95 time=0
EXTRACT: note_off channel=8 note=32 velocity=127 time=0
EXTRACT: note_on channel=8 note=27 velocity=127 time=0
EXTRACT: note_off channel=4 note=71 velocity=95 time=0
EXTRACT: note_off channel=4 note=66 velocity=95 time=0
EXTRACT: note_off channel=4 note=63 velocity=95 time=0
EXTRACT: note_off channel=4 note=59 velocity=95 time=0
EXTRACT: note_on channel=4 note=68 velocity=95 time=0
EXTRACT: note_on channel=4 note=64 velocity=95 time=0
EXTRACT: note_on channel=4 note=59 velocity=95 time=0
EXTRACT: note_on channel=4 note=56 velocity=95 time=0
EXTRACT: note_off channel=5 note=71 velocity=95 time=0
EXTRACT: note_off channel=5 note=66 velocity=95 time=0
EXTRACT: note_off channel=5 note=63 velocity=95 time=0
EXTRACT: note_off channel=5 note=59 velocity=95 time=0
EXTRACT: note_on channel=5 note=68 velocity=95 time=0
EXTRACT: note_on channel=5 note=64 velocity=95 time=0
EXTRACT: note_on channel=5 note=59 velocity=95 time=0
EXTRACT: note_on channel=5 note=56 velocity=95 time=0
EXTRACT: note_on channel=6 note=78 velocity=95 time=0
EXTRACT: note_off channel=9 note=44 velocity=127 time=0
EXTRACT: note_off channel=9 note=54 velocity=127 time=0
EXTRACT: note_on channel=9 note=44 velocity=127 time=0
EXTRACT: note_on channel=9 note=54 velocity=127 time=0
EXTRACT: note_on channel=9 note=35 velocity=127 time=0
EXTRACT: note_off channel=9 note=44 velocity=127 time=0.1339285
EXTRACT: note_off channel=9 note=54 velocity=127 time=0
EXTRACT: note_off channel=9 note=35 velocity=127 time=0
EXTRACT: note_on channel=9 note=54 velocity=127 time=0
EXTRACT: note_off channel=6 note=78 velocity=95 time=0.06696425
EXTRACT: note_off channel=8 note=27 velocity=127 time=0.06696425
EXTRACT: note_off channel=3 note=83 velocity=127 time=0
EXTRACT: note_off channel=3 note=75 velocity=127 time=0
EXTRACT: note_on channel=3 note=83 velocity=127 time=0
EXTRACT: note_on channel=3 note=75 velocity=127 time=0
EXTRACT: note_off channel=9 note=54 velocity=127 time=0
EXTRACT: note_on channel=9 note=44 velocity=127 time=0
EXTRACT: note_on channel=9 note=81 velocity=127 time=0
EXTRACT: note_on channel=9 note=54 velocity=127 time=0
EXTRACT: note_off channel=9 note=44 velocity=127 time=0.1339285
EXTRACT: note_off channel=9 note=81 velocity=127 time=0
EXTRACT: note_off channel=9 note=54 velocity=127 time=0
EXTRACT: note_on channel=9 note=54 velocity=127 time=0
EXTRACT: note_off channel=3 note=83 velocity=127 time=0.1339285
EXTRACT: note_off channel=3 note=75 velocity=127 time=0
EXTRACT: note_on channel=3 note=82 velocity=127 time=0
EXTRACT: note_on channel=3 note=73 velocity=127 time=0
EXTRACT: note_on channel=6 note=78 velocity=95 time=0
EXTRACT: note_off channel=9 note=54 velocity=127 time=0
EXTRACT: note_on channel=9 note=38 velocity=127 time=0
EXTRACT: note_on channel=9 note=39 velocity=95 time=0
EXTRACT: note_on channel=9 note=54 velocity=127 time=0
EXTRACT: note_off channel=9 note=38 velocity=127 time=0.1339285
EXTRACT: note_off channel=9 note=39 velocity=95 time=0
EXTRACT: note_off channel=9 note=54 velocity=127 time=0
EXTRACT: note_on channel=9 note=54 velocity=127 time=0
EXTRACT: note_off channel=6 note=78 velocity=95 time=0.06696425
EXTRACT: note_off channel=0 note=52 velocity=95 time=0.06696425
EXTRACT: note_off channel=0 note=47 velocity=95 time=0
EXTRACT: note_off channel=0 note=40 velocity=95 time=0
EXTRACT: note_on channel=0 note=59 velocity=95 time=0
EXTRACT: note_on channel=0 note=54 velocity=95 time=0
EXTRACT: note_on channel=0 note=47 velocity=95 time=0
EXTRACT: note_on channel=8 note=27 velocity=127 time=0
EXTRACT: note_off channel=3 note=82 velocity=127 time=0
EXTRACT: note_off channel=3 note=73 velocity=127 time=0
EXTRACT: note_on channel=3 note=78 velocity=127 time=0
EXTRACT: note_on channel=3 note=71 velocity=127 time=0
EXTRACT: note_off channel=4 note=68 velocity=95 time=0
EXTRACT: note_off channel=4 note=64 velocity=95 time=0
EXTRACT: note_off channel=4 note=59 velocity=95 time=0
EXTRACT: note_off channel=4 note=56 velocity=95 time=0
EXTRACT: note_on channel=4 note=71 velocity=95 time=0
EXTRACT: note_on channel=4 note=66 velocity=95 time=0
EXTRACT: note_on channel=4 note=63 velocity=95 time=0
EXTRACT: note_on channel=4 note=59 velocity=95 time=0
EXTRACT: note_off channel=5 note=68 velocity=95 time=0
EXTRACT: note_off channel=5 note=64 velocity=95 time=0
EXTRACT: note_off channel=5 note=59 velocity=95 time=0
EXTRACT: note_off channel=5 note=56 velocity=95 time=0
EXTRACT: note_on channel=5 note=71 velocity=95 time=0
EXTRACT: note_on channel=5 note=66 velocity=95 time=0
EXTRACT: note_on channel=5 note=63 velocity=95 time=0
EXTRACT: note_on channel=5 note=59 velocity=95 time=0
EXTRACT: note_off channel=9 note=54 velocity=127 time=0
EXTRACT: note_on channel=9 note=44 velocity=127 time=0
EXTRACT: note_on channel=9 note=81 velocity=127 time=0
EXTRACT: note_on channel=9 note=54 velocity=127 time=0
EXTRACT: note_off channel=9 note=44 velocity=127 time=0.1339285
EXTRACT: note_off channel=9 note=81 velocity=127 time=0
EXTRACT: note_off channel=9 note=54 velocity=127 time=0
EXTRACT: note_on channel=9 note=54 velocity=127 time=0
EXTRACT: note_off channel=8 note=27 velocity=127 time=0.1339285
EXTRACT: note_on channel=8 note=35 velocity=127 time=0
EXTRACT: note_off channel=3 note=78 velocity=127 time=0
EXTRACT: note_off channel=3 note=71 velocity=127 time=0
EXTRACT: note_on channel=3 note=80 velocity=127 time=0
EXTRACT: note_on channel=3 note=71 velocity=127 time=0
EXTRACT: note_on channel=6 note=78 velocity=95 time=0
EXTRACT: note_off channel=9 note=54 velocity=127 time=0
EXTRACT: note_on channel=9 note=44 velocity=127 time=0
EXTRACT: note_on channel=9 note=54 velocity=127 time=0
EXTRACT: note_on channel=9 note=35 velocity=127 time=0
EXTRACT: note_off channel=8 note=35 velocity=127 time=0.1339285
EXTRACT: note_on channel=8 note=30 velocity=127 time=0
EXTRACT: note_off channel=9 note=44 velocity=127 time=0
EXTRACT: note_off channel=9 note=54 velocity=127 time=0
EXTRACT: note_off channel=9 note=35 velocity=127 time=0
EXTRACT: note_on channel=9 note=54 velocity=127 time=0
EXTRACT: note_off channel=6 note=78 velocity=95 time=0.06696425
EXTRACT: note_off channel=3 note=80 velocity=127 time=0.06696425
EXTRACT: note_off channel=3 note=71 velocity=127 time=0
EXTRACT: note_on channel=3 note=82 velocity=127 time=0
EXTRACT: note_off channel=9 note=54 velocity=127 time=0
EXTRACT: note_on channel=9 note=44 velocity=127 time=0
EXTRACT: note_on channel=9 note=81 velocity=127 time=0
EXTRACT: note_on channel=9 note=54 velocity=127 time=0
EXTRACT: note_off channel=8 note=30 velocity=127 time=0.1339285
EXTRACT: note_on channel=8 note=35 velocity=127 time=0
EXTRACT: note_off channel=3 note=82 velocity=127 time=0
EXTRACT: note_on channel=3 note=80 velocity=127 time=0
EXTRACT: note_off channel=9 note=44 velocity=127 time=0
EXTRACT: note_off channel=9 note=81 velocity=127 time=0
EXTRACT: note_off channel=9 note=54 velocity=127 time=0
EXTRACT: note_on channel=9 note=54 velocity=127 time=0
EXTRACT: note_on channel=2 note=78 velocity=127 time=0.1339285
EXTRACT: note_on channel=2 note=75 velocity=127 time=0
EXTRACT: note_on channel=2 note=70 velocity=95 time=0
EXTRACT: note_off channel=8 note=35 velocity=127 time=0
EXTRACT: note_on channel=8 note=30 velocity=127 time=0
EXTRACT: note_off channel=3 note=80 velocity=127 time=0
EXTRACT: note_on channel=3 note=78 velocity=127 time=0
EXTRACT: note_on channel=6 note=78 velocity=95 time=0
EXTRACT: note_off channel=9 note=54 velocity=127 time=0
EXTRACT: note_on channel=9 note=38 velocity=127 time=0
EXTRACT: note_on channel=9 note=39 velocity=95 time=0
EXTRACT: note_on channel=9 note=54 velocity=127 time=0
EXTRACT: note_off channel=9 note=38 velocity=127 time=0.1339285
EXTRACT: note_off channel=9 note=39 velocity=95 time=0
EXTRACT: note_off channel=9 note=54 velocity=127 time=0
EXTRACT: note_on channel=9 note=54 velocity=127 time=0
EXTRACT: note_off channel=6 note=78 velocity=95 time=0.06696425
EXTRACT: note_off channel=2 note=78 velocity=127 time=0.06696425
EXTRACT: note_off channel=2 note=75 velocity=127 time=0
EXTRACT: note_off channel=2 note=70 velocity=95 time=0
EXTRACT: note_off channel=8 note=30 velocity=127 time=0
EXTRACT: note_on channel=8 note=35 velocity=127 time=0
EXTRACT: note_off channel=3 note=78 velocity=127 time=0
EXTRACT: note_off channel=9 note=54 velocity=127 time=0
EXTRACT: note_on channel=9 note=44 velocity=127 time=0
EXTRACT: note_on channel=9 note=81 velocity=127 time=0
EXTRACT: note_on channel=9 note=54 velocity=127 time=0
EXTRACT: note_off channel=9 note=44 velocity=127 time=0.1339285
EXTRACT: note_off channel=9 note=81 velocity=127 time=0
EXTRACT: note_off channel=9 note=54 velocity=127 time=0
EXTRACT: note_on channel=9 note=44 velocity=127 time=0
EXTRACT: note_on channel=9 note=54 velocity=127 time=0
EXTRACT: note_off channel=0 note=59 velocity=95 time=0.1339285
EXTRACT: note_off channel=0 note=54 velocity=95 time=0
EXTRACT: note_off channel=0 note=47 velocity=95 time=0
EXTRACT: note_on channel=0 note=54 velocity=95 time=0
EXTRACT: note_on channel=0 note=49 velocity=95 time=0
EXTRACT: note_on channel=0 note=42 velocity=95 time=0
EXTRACT: note_off channel=8 note=35 velocity=127 time=0
EXTRACT: note_on channel=8 note=30 velocity=127 time=0
EXTRACT: note_on channel=3 note=78 velocity=127 time=0
EXTRACT: note_on channel=3 note=73 velocity=127 time=0
EXTRACT: note_off channel=4 note=71 velocity=95 time=0
EXTRACT: note_off channel=4 note=66 velocity=95 time=0
EXTRACT: note_off channel=4 note=63 velocity=95 time=0
EXTRACT: note_off channel=4 note=59 velocity=95 time=0
EXTRACT: note_on channel=4 note=70 velocity=95 time=0
EXTRACT: note_on channel=4 note=66 velocity=95 time=0
EXTRACT: note_on channel=4 note=61 velocity=95 time=0
EXTRACT: note_on channel=4 note=58 velocity=95 time=0
EXTRACT: note_off channel=5 note=71 velocity=95 time=0
EXTRACT: note_off channel=5 note=66 velocity=95 time=0
EXTRACT: note_off channel=5 note=63 velocity=95 time=0
EXTRACT: note_off channel=5 note=59 velocity=95 time=0
EXTRACT: note_on channel=5 note=70 velocity=95 time=0
EXTRACT: note_on channel=5 note=66 velocity=95 time=0
EXTRACT: note_on channel=5 note=61 velocity=95 time=0
EXTRACT: note_on channel=5 note=58 velocity=95 time=0
EXTRACT: note_on channel=6 note=78 velocity=95 time=0
EXTRACT: note_off channel=9 note=44 velocity=127 time=0
EXTRACT: note_off channel=9 note=54 velocity=127 time=0
EXTRACT: note_on channel=9 note=44 velocity=127 time=0
EXTRACT: note_on channel=9 note=54 velocity=127 time=0
EXTRACT: note_on channel=9 note=35 velocity=127 time=0
EXTRACT: note_off channel=3 note=78 velocity=127 time=0.1339285
EXTRACT: note_off channel=3 note=73 velocity=127 time=0
EXTRACT: note_on channel=3 note=78 velocity=127 time=0
EXTRACT: note_on channel=3 note=73 velocity=127 time=0
EXTRACT: note_off channel=9 note=44 velocity=127 time=0
EXTRACT: note_off channel=9 note=54 velocity=127 time=0
EXTRACT: note_off channel=9 note=35 velocity=127 time=0
EXTRACT: note_on channel=9 note=54 velocity=127 time=0
EXTRACT: note_off channel=6 note=78 velocity=95 time=0.06696425
EXTRACT: note_off channel=8 note=30 velocity=127 time=0.06696425
EXTRACT: note_off channel=3 note=78 velocity=127 time=0
EXTRACT: note_off channel=3 note=73 velocity=127 time=0
EXTRACT: note_on channel=3 note=78 velocity=127 time=0
EXTRACT: note_on channel=3 note=73 velocity=127 time=0
EXTRACT: note_off channel=9 note=54 velocity=127 time=0
EXTRACT: note_on channel=9 note=44 velocity=127 time=0
EXTRACT: note_on channel=9 note=81 velocity=127 time=0
EXTRACT: note_on channel=9 note=54 velocity=127 time=0
EXTRACT: note_off channel=3 note=78 velocity=127 time=0.1339285
EXTRACT: note_off channel=3 note=73 velocity=127 time=0
EXTRACT: note_on channel=3 note=78 velocity=127 time=0
EXTRACT: note_on channel=3 note=73 velocity=127 time=0
EXTRACT: note_off channel=9 note=44 velocity=127 time=0
EXTRACT: note_off channel=9 note=81 velocity=127 time=0
EXTRACT: note_off channel=9 note=54 velocity=127 time=0
EXTRACT: note_on channel=9 note=54 velocity=127 time=0
EXTRACT: note_off channel=3 note=78 velocity=127 time=0.1339285
EXTRACT: note_off channel=3 note=73 velocity=127 time=0
EXTRACT: note_on channel=3 note=78 velocity=127 time=0
EXTRACT: note_on channel=3 note=73 velocity=127 time=0
EXTRACT: note_on channel=6 note=78 velocity=95 time=0
EXTRACT: note_off channel=9 note=54 velocity=127 time=0
EXTRACT: note_on channel=9 note=38 velocity=127 time=0
EXTRACT: note_on channel=9 note=39 velocity=95 time=0
EXTRACT: note_on channel=9 note=54 velocity=127 time=0
EXTRACT: note_off channel=9 note=38 velocity=127 time=0.1339285
EXTRACT: note_off channel=9 note=39 velocity=95 time=0
EXTRACT: note_off channel=9 note=54 velocity=127 time=0
EXTRACT: note_on channel=9 note=54 velocity=127 time=0
EXTRACT: note_off channel=6 note=78 velocity=95 time=0.06696425
EXTRACT: note_off channel=0 note=54 velocity=95 time=0.06696425
EXTRACT: note_off channel=0 note=49 velocity=95 time=0
EXTRACT: note_off channel=0 note=42 velocity=95 time=0
EXTRACT: note_on channel=0 note=59 velocity=95 time=0
EXTRACT: note_on channel=0 note=54 velocity=95 time=0
EXTRACT: note_on channel=0 note=47 velocity=95 time=0
EXTRACT: note_on channel=8 note=30 velocity=127 time=0
EXTRACT: note_off channel=3 note=78 velocity=127 time=0
EXTRACT: note_off channel=3 note=73 velocity=127 time=0
EXTRACT: note_on channel=3 note=80 velocity=127 time=0
EXTRACT: note_on channel=3 note=75 velocity=127 time=0
EXTRACT: note_off channel=4 note=70 velocity=95 time=0
EXTRACT: note_off channel=4 note=66 velocity=95 time=0
EXTRACT: note_off channel=4 note=61 velocity=95 time=0
EXTRACT: note_off channel=4 note=58 velocity=95 time=0
EXTRACT: note_on channel=4 note=71 velocity=95 time=0
EXTRACT: note_on channel=4 note=66 velocity=95 time=0
EXTRACT: note_on channel=4 note=63 velocity=95 time=0
EXTRACT: note_on channel=4 note=59 velocity=95 time=0
EXTRACT: note_off channel=5 note=70 velocity=95 time=0
EXTRACT: note_off channel=5 note=66 velocity=95 time=0
EXTRACT: note_off channel=5 note=61 velocity=95 time=0
EXTRACT: note_off channel=5 note=58 velocity=95 time=0
EXTRACT: note_on channel=5 note=71 velocity=95 time=0
EXTRACT: note_on channel=5 note=66 velocity=95 time=0
EXTRACT: note_on channel=5 note=63 velocity=95 time=0
EXTRACT: note_on channel=5 note=59 velocity=95 time=0
EXTRACT: note_off channel=9 note=54 velocity=127 time=0
EXTRACT: note_on channel=9 note=44 velocity=127 time=0
EXTRACT: note_on channel=9 note=81 velocity=127 time=0
EXTRACT: note_on channel=9 note=54 velocity=127 time=0
EXTRACT: note_off channel=9 note=44 velocity=127 time=0.1339285
EXTRACT: note_off channel=9 note=81 velocity=127 time=0
EXTRACT: note_off channel=9 note=54 velocity=127 time=0
EXTRACT: note_on channel=9 note=54 velocity=127 time=0
EXTRACT: note_off channel=8 note=30 velocity=127 time=0.1339285
EXTRACT: note_on channel=8 note=32 velocity=127 time=0
EXTRACT: note_off channel=3 note=80 velocity=127 time=0
EXTRACT: note_off channel=3 note=75 velocity=127 time=0
EXTRACT: note_on channel=3 note=78 velocity=127 time=0
EXTRACT: note_on channel=3 note=75 velocity=127 time=0
EXTRACT: note_on channel=6 note=78 velocity=95 time=0
EXTRACT: note_off channel=9 note=54 velocity=127 time=0
EXTRACT: note_on channel=9 note=44 velocity=127 time=0
EXTRACT: note_on channel=9 note=54 velocity=127 time=0
EXTRACT: note_on channel=9 note=35 velocity=127 time=0
EXTRACT: note_off channel=9 note=44 velocity=127 time=0.1339285
EXTRACT: note_off channel=9 note=54 velocity=127 time=0
EXTRACT: note_off channel=9 note=35 velocity=127 time=0
EXTRACT: note_on channel=9 note=54 velocity=127 time=0
EXTRACT: note_off channel=6 note=78 velocity=95 time=0.06696425
EXTRACT: note_off channel=8 note=32 velocity=127 time=0.06696425
EXTRACT: note_off channel=3 note=78 velocity=127 time=0
EXTRACT: note_off channel=3 note=75 velocity=127 time=0
EXTRACT: note_on channel=3 note=75 velocity=127 time=0
EXTRACT: note_off channel=9 note=54 velocity=127 time=0
EXTRACT: note_on channel=9 note=44 velocity=127 time=0
EXTRACT: note_on channel=9 note=81 velocity=127 time=0
EXTRACT: note_on channel=9 note=54 velocity=127 time=0
EXTRACT: note_off channel=9 note=44 velocity=127 time=0.1339285
EXTRACT: note_off channel=9 note=81 velocity=127 time=0
EXTRACT: note_off channel=9 note=54 velocity=127 time=0
EXTRACT: note_on channel=9 note=54 velocity=127 time=0
EXTRACT: note_on channel=2 note=78 velocity=127 time=0.1339285
EXTRACT: note_on channel=2 note=75 velocity=127 time=0
EXTRACT: note_on channel=2 note=70 velocity=95 time=0
EXTRACT: note_off channel=3 note=75 velocity=127 time=0
EXTRACT: note_on channel=6 note=78 velocity=95 time=0
EXTRACT: note_off channel=9 note=54 velocity=127 time=0
EXTRACT: note_on channel=9 note=38 velocity=127 time=0
EXTRACT: note_on channel=9 note=39 velocity=95 time=0
EXTRACT: note_on channel=9 note=54 velocity=127 time=0
EXTRACT: note_off channel=9 note=38 velocity=127 time=0.1339285
EXTRACT: note_off channel=9 note=39 velocity=95 time=0
EXTRACT: note_off channel=9 note=54 velocity=127 time=0
EXTRACT: note_on channel=9 note=54 velocity=127 time=0
EXTRACT: note_off channel=6 note=78 velocity=95 time=0.06696425
EXTRACT: note_off channel=2 note=78 velocity=127 time=0.06696425
EXTRACT: note_off channel=2 note=75 velocity=127 time=0
EXTRACT: note_off channel=2 note=70 velocity=95 time=0
EXTRACT: note_on channel=8 note=32 velocity=127 time=0
EXTRACT: note_off channel=9 note=54 velocity=127 time=0
EXTRACT: note_on channel=9 note=44 velocity=127 time=0
EXTRACT: note_on channel=9 note=81 velocity=127 time=0
EXTRACT: note_on channel=9 note=54 velocity=127 time=0
EXTRACT: note_off channel=9 note=44 velocity=127 time=0.1339285
EXTRACT: note_off channel=9 note=81 velocity=127 time=0
EXTRACT: note_off channel=9 note=54 velocity=127 time=0
EXTRACT: note_on channel=9 note=44 velocity=127 time=0
EXTRACT: note_on channel=9 note=54 velocity=127 time=0
EXTRACT: note_off channel=0 note=59 velocity=95 time=0.1339285
EXTRACT: note_off channel=0 note=54 velocity=95 time=0
EXTRACT: note_off channel=0 note=47 velocity=95 time=0
EXTRACT: note_on channel=0 note=52 velocity=95 time=0
EXTRACT: note_on channel=0 note=47 velocity=95 time=0
EXTRACT: note_on channel=0 note=40 velocity=95 time=0
EXTRACT: note_off channel=8 note=32 velocity=127 time=0
EXTRACT: note_on channel=8 note=27 velocity=127 time=0
EXTRACT: note_on channel=3 note=73 velocity=127 time=0
EXTRACT: note_off channel=4 note=71 velocity=95 time=0
EXTRACT: note_off channel=4 note=66 velocity=95 time=0
EXTRACT: note_off channel=4 note=63 velocity=95 time=0
EXTRACT: note_off channel=4 note=59 velocity=95 time=0
EXTRACT: note_on channel=4 note=68 velocity=95 time=0
EXTRACT: note_on channel=4 note=64 velocity=95 time=0
EXTRACT: note_on channel=4 note=59 velocity=95 time=0
EXTRACT: note_on channel=4 note=56 velocity=95 time=0
EXTRACT: note_off channel=5 note=71 velocity=95 time=0
EXTRACT: note_off channel=5 note=66 velocity=95 time=0
EXTRACT: note_off channel=5 note=63 velocity=95 time=0
EXTRACT: note_off channel=5 note=59 velocity=95 time=0
EXTRACT: note_on channel=5 note=68 velocity=95 time=0
EXTRACT: note_on channel=5 note=64 velocity=95 time=0
EXTRACT: note_on channel=5 note=59 velocity=95 time=0
EXTRACT: note_on channel=5 note=56 velocity=95 time=0
EXTRACT: note_on channel=6 note=78 velocity=95 time=0
EXTRACT: note_off channel=9 note=44 velocity=127 time=0
EXTRACT: note_off channel=9 note=54 velocity=127 time=0
EXTRACT: note_on channel=9 note=44 velocity=127 time=0
EXTRACT: note_on channel=9 note=54 velocity=127 time=0
EXTRACT: note_on channel=9 note=35 velocity=127 time=0
EXTRACT: note_off channel=9 note=44 velocity=127 time=0.1339285
EXTRACT: note_off channel=9 note=54 velocity=127 time=0
EXTRACT: note_off channel=9 note=35 velocity=127 time=0
EXTRACT: note_on channel=9 note=54 velocity=127 time=0
EXTRACT: note_off channel=6 note=78 velocity=95 time=0.06696425
EXTRACT: note_off channel=8 note=27 velocity=127 time=0.06696425
EXTRACT: note_off channel=3 note=73 velocity=127 time=0
EXTRACT: note_on channel=3 note=71 velocity=127 time=0
EXTRACT: note_off channel=9 note=54 velocity=127 time=0
EXTRACT: note_on channel=9 note=44 velocity=127 time=0
EXTRACT: note_on channel=9 note=81 velocity=127 time=0
EXTRACT: note_on channel=9 note=54 velocity=127 time=0
EXTRACT: note_off channel=9 note=44 velocity=127 time=0.1339285
EXTRACT: note_off channel=9 note=81 velocity=127 time=0
EXTRACT: note_off channel=9 note=54 velocity=127 time=0
EXTRACT: note_on channel=9 note=54 velocity=127 time=0
EXTRACT: note_off channel=3 note=71 velocity=127 time=0.1339285
EXTRACT: note_on channel=3 note=73 velocity=127 time=0
EXTRACT: note_on channel=6 note=78 velocity=95 time=0
EXTRACT: note_off channel=9 note=54 velocity=127 time=0
EXTRACT: note_on channel=9 note=38 velocity=127 time=0
EXTRACT: note_on channel=9 note=39 velocity=95 time=0
EXTRACT: note_on channel=9 note=54 velocity=127 time=0
EXTRACT: note_off channel=9 note=38 velocity=127 time=0.1339285
EXTRACT: note_off channel=9 note=39 velocity=95 time=0
EXTRACT: note_off channel=9 note=54 velocity=127 time=0
EXTRACT: note_on channel=9 note=54 velocity=127 time=0
EXTRACT: note_off channel=6 note=78 velocity=95 time=0.06696425
EXTRACT: note_off channel=0 note=52 velocity=95 time=0.06696425
EXTRACT: note_off channel=0 note=47 velocity=95 time=0
EXTRACT: note_off channel=0 note=40 velocity=95 time=0
EXTRACT: note_on channel=0 note=59 velocity=95 time=0
EXTRACT: note_on channel=0 note=54 velocity=95 time=0
EXTRACT: note_on channel=0 note=47 velocity=95 time=0
EXTRACT: note_on channel=8 note=27 velocity=127 time=0
EXTRACT: note_off channel=3 note=73 velocity=127 time=0
EXTRACT: note_on channel=3 note=71 velocity=127 time=0
EXTRACT: note_off channel=4 note=68 velocity=95 time=0
EXTRACT: note_off channel=4 note=64 velocity=95 time=0
EXTRACT: note_off channel=4 note=59 velocity=95 time=0
EXTRACT: note_off channel=4 note=56 velocity=95 time=0
EXTRACT: note_on channel=4 note=71 velocity=95 time=0
EXTRACT: note_on channel=4 note=66 velocity=95 time=0
EXTRACT: note_on channel=4 note=63 velocity=95 time=0
EXTRACT: note_on channel=4 note=59 velocity=95 time=0
EXTRACT: note_off channel=5 note=68 velocity=95 time=0
EXTRACT: note_off channel=5 note=64 velocity=95 time=0
EXTRACT: note_off channel=5 note=59 velocity=95 time=0
EXTRACT: note_off channel=5 note=56 velocity=95 time=0
EXTRACT: note_on channel=5 note=71 velocity=95 time=0
EXTRACT: note_on channel=5 note=66 velocity=95 time=0
EXTRACT: note_on channel=5 note=63 velocity=95 time=0
EXTRACT: note_on channel=5 note=59 velocity=95 time=0
EXTRACT: note_off channel=9 note=54 velocity=127 time=0
EXTRACT: note_on channel=9 note=44 velocity=127 time=0
EXTRACT: note_on channel=9 note=81 velocity=127 time=0
EXTRACT: note_on channel=9 note=54 velocity=127 time=0
EXTRACT: note_off channel=9 note=44 velocity=127 time=0.1339285
EXTRACT: note_off channel=9 note=81 velocity=127 time=0
EXTRACT: note_off channel=9 note=54 velocity=127 time=0
EXTRACT: note_on channel=9 note=54 velocity=127 time=0
EXTRACT: note_off channel=8 note=27 velocity=127 time=0.1339285
EXTRACT: note_on channel=8 note=35 velocity=127 time=0
EXTRACT: note_off channel=3 note=71 velocity=127 time=0
EXTRACT: note_on channel=3 note=75 velocity=127 time=0
EXTRACT: note_on channel=6 note=78 velocity=95 time=0
EXTRACT: note_off channel=9 note=54 velocity=127 time=0
EXTRACT: note_on channel=9 note=44 velocity=127 time=0
EXTRACT: note_on channel=9 note=54 velocity=127 time=0
EXTRACT: note_on channel=9 note=35 velocity=127 time=0
EXTRACT: note_off channel=8 note=35 velocity=127 time=0.1339285
EXTRACT: note_on channel=8 note=30 velocity=127 time=0
EXTRACT: note_off channel=9 note=44 velocity=127 time=0
EXTRACT: note_off channel=9 note=54 velocity=127 time=0
EXTRACT: note_off channel=9 note=35 velocity=127 time=0
EXTRACT: note_on channel=9 note=54 velocity=127 time=0
EXTRACT: note_off channel=6 note=78 velocity=95 time=0.06696425
EXTRACT: note_off channel=3 note=75 velocity=127 time=0.06696425
EXTRACT: note_on channel=3 note=83 velocity=127 time=0
EXTRACT: note_off channel=9 note=54 velocity=127 time=0
EXTRACT: note_on channel=9 note=44 velocity=127 time=0
EXTRACT: note_on channel=9 note=81 velocity=127 time=0
EXTRACT: note_on channel=9 note=54 velocity=127 time=0
EXTRACT: note_off channel=8 note=30 velocity=127 time=0.1339285
EXTRACT: note_on channel=8 note=35 velocity=127 time=0
EXTRACT: note_off channel=9 note=44 velocity=127 time=0
EXTRACT: note_off channel=9 note=81 velocity=127 time=0
EXTRACT: note_off channel=9 note=54 velocity=127 time=0
EXTRACT: note_on channel=9 note=54 velocity=127 time=0
EXTRACT: note_on channel=2 note=78 velocity=127 time=0.1339285
EXTRACT: note_on channel=2 note=75 velocity=127 time=0
EXTRACT: note_on channel=2 note=70 velocity=95 time=0
EXTRACT: note_off channel=8 note=35 velocity=127 time=0
EXTRACT: note_on channel=8 note=30 velocity=127 time=0
EXTRACT: note_off channel=3 note=83 velocity=127 time=0
EXTRACT: note_on channel=3 note=83 velocity=127 time=0
EXTRACT: note_on channel=6 note=78 velocity=95 time=0
EXTRACT: note_off channel=9 note=54 velocity=127 time=0
EXTRACT: note_on channel=9 note=38 velocity=127 time=0
EXTRACT: note_on channel=9 note=39 velocity=95 time=0
EXTRACT: note_on channel=9 note=54 velocity=127 time=0
EXTRACT: note_off channel=9 note=38 velocity=127 time=0.1339285
EXTRACT: note_off channel=9 note=39 velocity=95 time=0
EXTRACT: note_off channel=9 note=54 velocity=127 time=0
EXTRACT: note_on channel=9 note=54 velocity=127 time=0
EXTRACT: note_off channel=6 note=78 velocity=95 time=0.06696425
EXTRACT: note_off channel=2 note=78 velocity=127 time=0.06696425
EXTRACT: note_off channel=2 note=75 velocity=127 time=0
EXTRACT: note_off channel=2 note=70 velocity=95 time=0
EXTRACT: note_off channel=8 note=30 velocity=127 time=0
EXTRACT: note_on channel=8 note=35 velocity=127 time=0
EXTRACT: note_off channel=3 note=83 velocity=127 time=0
EXTRACT: note_on channel=3 note=83 velocity=127 time=0
EXTRACT: note_off channel=9 note=54 velocity=127 time=0
EXTRACT: note_on channel=9 note=44 velocity=127 time=0
EXTRACT: note_on channel=9 note=81 velocity=127 time=0
EXTRACT: note_on channel=9 note=54 velocity=127 time=0
EXTRACT: note_off channel=9 note=44 velocity=127 time=0.1339285
EXTRACT: note_off channel=9 note=81 velocity=127 time=0
EXTRACT: note_off channel=9 note=54 velocity=127 time=0
EXTRACT: note_on channel=9 note=44 velocity=127 time=0
EXTRACT: note_on channel=9 note=54 velocity=127 time=0
EXTRACT: note_off channel=0 note=59 velocity=95 time=0.1339285
EXTRACT: note_off channel=0 note=54 velocity=95 time=0
EXTRACT: note_off channel=0 note=47 velocity=95 time=0
EXTRACT: note_on channel=0 note=54 velocity=95 time=0
EXTRACT: note_on channel=0 note=49 velocity=95 time=0
EXTRACT: note_on channel=0 note=42 velocity=95 time=0
EXTRACT: note_off channel=8 note=35 velocity=127 time=0
EXTRACT: note_on channel=8 note=30 velocity=127 time=0
EXTRACT: note_off channel=3 note=83 velocity=127 time=0
EXTRACT: note_on channel=3 note=81 velocity=127 time=0
EXTRACT: note_on channel=3 note=78 velocity=127 time=0
EXTRACT: note_on channel=3 note=73 velocity=127 time=0
EXTRACT: note_off channel=4 note=71 velocity=95 time=0
EXTRACT: note_off channel=4 note=66 velocity=95 time=0
EXTRACT: note_off channel=4 note=63 velocity=95 time=0
EXTRACT: note_off channel=4 note=59 velocity=95 time=0
EXTRACT: note_on channel=4 note=70 velocity=95 time=0
EXTRACT: note_on channel=4 note=66 velocity=95 time=0
EXTRACT: note_on channel=4 note=61 velocity=95 time=0
EXTRACT: note_on channel=4 note=58 velocity=95 time=0
EXTRACT: note_off channel=5 note=71 velocity=95 time=0
EXTRACT: note_off channel=5 note=66 velocity=95 time=0
EXTRACT: note_off channel=5 note=63 velocity=95 time=0
EXTRACT: note_off channel=5 note=59 velocity=95 time=0
EXTRACT: note_on channel=5 note=70 velocity=95 time=0
EXTRACT: note_on channel=5 note=66 velocity=95 time=0
EXTRACT: note_on channel=5 note=61 velocity=95 time=0
EXTRACT: note_on channel=5 note=58 velocity=95 time=0
EXTRACT: note_on channel=6 note=78 velocity=95 time=0
EXTRACT: note_off channel=9 note=44 velocity=127 time=0
EXTRACT: note_off channel=9 note=54 velocity=127 time=0
EXTRACT: note_on channel=9 note=44 velocity=127 time=0
EXTRACT: note_on channel=9 note=54 velocity=127 time=0
EXTRACT: note_on channel=9 note=35 velocity=127 time=0
EXTRACT: note_off channel=9 note=44 velocity=127 time=0.1339285
EXTRACT: note_off channel=9 note=54 velocity=127 time=0
EXTRACT: note_off channel=9 note=35 velocity=127 time=0
EXTRACT: note_on channel=9 note=54 velocity=127 time=0
EXTRACT: note_off channel=6 note=78 velocity=95 time=0.06696425
EXTRACT: note_off channel=8 note=30 velocity=127 time=0.06696425
EXTRACT: note_off channel=3 note=81 velocity=127 time=0
EXTRACT: note_off channel=3 note=78 velocity=127 time=0
EXTRACT: note_off channel=3 note=73 velocity=127 time=0
EXTRACT: note_on channel=3 note=80 velocity=127 time=0
EXTRACT: note_on channel=3 note=78 velocity=127 time=0
EXTRACT: note_on channel=3 note=73 velocity=127 time=0
EXTRACT: note_off channel=9 note=54 velocity=127 time=0
EXTRACT: note_on channel=9 note=44 velocity=127 time=0
EXTRACT: note_on channel=9 note=81 velocity=127 time=0
EXTRACT: note_on channel=9 note=54 velocity=127 time=0
EXTRACT: note_off channel=9 note=44 velocity=127 time=0.1339285
EXTRACT: note_off channel=9 note=81 velocity=127 time=0
EXTRACT: note_off channel=9 note=54 velocity=127 time=0
EXTRACT: note_on channel=9 note=54 velocity=127 time=0
EXTRACT: note_off channel=3 note=80 velocity=127 time=0.1339285
EXTRACT: note_off channel=3 note=78 velocity=127 time=0
EXTRACT: note_off channel=3 note=73 velocity=127 time=0
EXTRACT: note_on channel=3 note=78 velocity=127 time=0
EXTRACT: note_on channel=3 note=78 velocity=127 time=0
EXTRACT: note_on channel=3 note=73 velocity=127 time=0
EXTRACT: note_on channel=6 note=78 velocity=95 time=0
EXTRACT: note_off channel=9 note=54 velocity=127 time=0
EXTRACT: note_on channel=9 note=38 velocity=127 time=0
EXTRACT: note_on channel=9 note=39 velocity=95 time=0
EXTRACT: note_on channel=9 note=54 velocity=127 time=0
EXTRACT: note_off channel=9 note=38 velocity=127 time=0.1339285
EXTRACT: note_off channel=9 note=39 velocity=95 time=0
EXTRACT: note_off channel=9 note=54 velocity=127 time=0
EXTRACT: note_on channel=9 note=54 velocity=127 time=0
EXTRACT: note_off channel=6 note=78 velocity=95 time=0.06696425
EXTRACT: note_off channel=0 note=54 velocity=95 time=0.06696425
EXTRACT: note_off channel=0 note=49 velocity=95 time=0
EXTRACT: note_off channel=0 note=42 velocity=95 time=0
EXTRACT: note_on channel=0 note=59 velocity=95 time=0
EXTRACT: note_on channel=0 note=54 velocity=95 time=0
EXTRACT: note_on channel=0 note=47 velocity=95 time=0
EXTRACT: note_on channel=8 note=30 velocity=127 time=0
EXTRACT: note_off channel=3 note=78 velocity=127 time=0
EXTRACT: note_off channel=3 note=78 velocity=127 time=0
EXTRACT: note_off channel=3 note=73 velocity=127 time=0
EXTRACT: note_on channel=3 note=80 velocity=127 time=0
EXTRACT: note_on channel=3 note=75 velocity=127 time=0
EXTRACT: note_off channel=4 note=70 velocity=95 time=0
EXTRACT: note_off channel=4 note=66 velocity=95 time=0
EXTRACT: note_off channel=4 note=61 velocity=95 time=0
EXTRACT: note_off channel=4 note=58 velocity=95 time=0
EXTRACT: note_on channel=4 note=71 velocity=95 time=0
EXTRACT: note_on channel=4 note=66 velocity=95 time=0
EXTRACT: note_on channel=4 note=63 velocity=95 time=0
EXTRACT: note_on channel=4 note=59 velocity=95 time=0
EXTRACT: note_off channel=5 note=70 velocity=95 time=0
EXTRACT: note_off channel=5 note=66 velocity=95 time=0
EXTRACT: note_off channel=5 note=61 velocity=95 time=0
EXTRACT: note_off channel=5 note=58 velocity=95 time=0
EXTRACT: note_on channel=5 note=71 velocity=95 time=0
EXTRACT: note_on channel=5 note=66 velocity=95 time=0
EXTRACT: note_on channel=5 note=63 velocity=95 time=0
EXTRACT: note_on channel=5 note=59 velocity=95 time=0
EXTRACT: note_off channel=9 note=54 velocity=127 time=0
EXTRACT: note_on channel=9 note=44 velocity=127 time=0
EXTRACT: note_on channel=9 note=81 velocity=127 time=0
EXTRACT: note_on channel=9 note=54 velocity=127 time=0
EXTRACT: note_off channel=9 note=44 velocity=127 time=0.1339285
EXTRACT: note_off channel=9 note=81 velocity=127 time=0
EXTRACT: note_off channel=9 note=54 velocity=127 time=0
EXTRACT: note_on channel=9 note=54 velocity=127 time=0
EXTRACT: note_off channel=8 note=30 velocity=127 time=0.1339285
EXTRACT: note_on channel=8 note=32 velocity=127 time=0
EXTRACT: note_off channel=3 note=80 velocity=127 time=0
EXTRACT: note_off channel=3 note=75 velocity=127 time=0
EXTRACT: note_on channel=3 note=80 velocity=127 time=0
EXTRACT: note_on channel=3 note=78 velocity=127 time=0
EXTRACT: note_on channel=3 note=75 velocity=127 time=0
EXTRACT: note_on channel=6 note=78 velocity=95 time=0
EXTRACT: note_off channel=9 note=54 velocity=127 time=0
EXTRACT: note_on channel=9 note=44 velocity=127 time=0
EXTRACT: note_on channel=9 note=54 velocity=127 time=0
EXTRACT: note_on channel=9 note=35 velocity=127 time=0
EXTRACT: note_off channel=9 note=44 velocity=127 time=0.1339285
EXTRACT: note_off channel=9 note=54 velocity=127 time=0
EXTRACT: note_off channel=9 note=35 velocity=127 time=0
EXTRACT: note_on channel=9 note=54 velocity=127 time=0
EXTRACT: note_off channel=6 note=78 velocity=95 time=0.06696425
EXTRACT: note_off channel=8 note=32 velocity=127 time=0.06696425
EXTRACT: note_off channel=3 note=80 velocity=127 time=0
EXTRACT: note_off channel=3 note=78 velocity=127 time=0
EXTRACT: note_off channel=3 note=75 velocity=127 time=0
EXTRACT: note_on channel=3 note=82 velocity=127 time=0
EXTRACT: note_on channel=3 note=75 velocity=127 time=0
EXTRACT: note_off channel=9 note=54 velocity=127 time=0
EXTRACT: note_on channel=9 note=44 velocity=127 time=0
EXTRACT: note_on channel=9 note=81 velocity=127 time=0
EXTRACT: note_on channel=9 note=54 velocity=127 time=0
EXTRACT: note_off channel=3 note=82 velocity=127 time=0.1339285
EXTRACT: note_off channel=3 note=75 velocity=127 time=0
EXTRACT: note_on channel=3 note=80 velocity=127 time=0
EXTRACT: note_off channel=9 note=44 velocity=127 time=0
EXTRACT: note_off channel=9 note=81 velocity=127 time=0
EXTRACT: note_off channel=9 note=54 velocity=127 time=0
EXTRACT: note_on channel=9 note=54 velocity=127 time=0
EXTRACT: note_on channel=2 note=78 velocity=127 time=0.1339285
EXTRACT: note_on channel=2 note=75 velocity=127 time=0
EXTRACT: note_on channel=2 note=70 velocity=95 time=0
EXTRACT: note_off channel=3 note=80 velocity=127 time=0
EXTRACT: note_on channel=3 note=78 velocity=127 time=0
EXTRACT: note_on channel=3 note=75 velocity=127 time=0
EXTRACT: note_on channel=6 note=78 velocity=95 time=0
EXTRACT: note_off channel=9 note=54 velocity=127 time=0
EXTRACT: note_on channel=9 note=38 velocity=127 time=0
EXTRACT: note_on channel=9 note=39 velocity=95 time=0
EXTRACT: note_on channel=9 note=54 velocity=127 time=0
EXTRACT: note_off channel=9 note=38 velocity=127 time=0.1339285
EXTRACT: note_off channel=9 note=39 velocity=95 time=0
EXTRACT: note_off channel=9 note=54 velocity=127 time=0
EXTRACT: note_on channel=9 note=54 velocity=127 time=0
EXTRACT: note_off channel=6 note=78 velocity=95 time=0.06696425
EXTRACT: note_off channel=2 note=78 velocity=127 time=0.06696425
EXTRACT: note_off channel=2 note=75 velocity=127 time=0
EXTRACT: note_off channel=2 note=70 velocity=95 time=0
EXTRACT: note_on channel=8 note=32 velocity=127 time=0
EXTRACT: note_off channel=3 note=78 velocity=127 time=0
EXTRACT: note_off channel=3 note=75 velocity=127 time=0
EXTRACT: note_on channel=3 note=83 velocity=127 time=0
EXTRACT: note_on channel=3 note=75 velocity=127 time=0
EXTRACT: note_off channel=9 note=54 velocity=127 time=0
EXTRACT: note_on channel=9 note=44 velocity=127 time=0
EXTRACT: note_on channel=9 note=81 velocity=127 time=0
EXTRACT: note_on channel=9 note=54 velocity=127 time=0
EXTRACT: note_off channel=9 note=44 velocity=127 time=0.1339285
EXTRACT: note_off channel=9 note=81 velocity=127 time=0
EXTRACT: note_off channel=9 note=54 velocity=127 time=0
EXTRACT: note_on channel=9 note=44 velocity=127 time=0
EXTRACT: note_on channel=9 note=54 velocity=127 time=0
EXTRACT: note_off channel=0 note=59 velocity=95 time=0.1339285
EXTRACT: note_off channel=0 note=54 velocity=95 time=0
EXTRACT: note_off channel=0 note=47 velocity=95 time=0
EXTRACT: note_on channel=0 note=52 velocity=95 time=0
EXTRACT: note_on channel=0 note=47 velocity=95 time=0
EXTRACT: note_on channel=0 note=40 velocity=95 time=0
EXTRACT: note_off channel=8 note=32 velocity=127 time=0
EXTRACT: note_on channel=8 note=27 velocity=127 time=0
EXTRACT: note_off channel=4 note=71 velocity=95 time=0
EXTRACT: note_off channel=4 note=66 velocity=95 time=0
EXTRACT: note_off channel=4 note=63 velocity=95 time=0
EXTRACT: note_off channel=4 note=59 velocity=95 time=0
EXTRACT: note_on channel=4 note=68 velocity=95 time=0
EXTRACT: note_on channel=4 note=64 velocity=95 time=0
EXTRACT: note_on channel=4 note=59 velocity=95 time=0
EXTRACT: note_on channel=4 note=56 velocity=95 time=0
EXTRACT: note_off channel=5 note=71 velocity=95 time=0
EXTRACT: note_off channel=5 note=66 velocity=95 time=0
EXTRACT: note_off channel=5 note=63 velocity=95 time=0
EXTRACT: note_off channel=5 note=59 velocity=95 time=0
EXTRACT: note_on channel=5 note=68 velocity=95 time=0
EXTRACT: note_on channel=5 note=64 velocity=95 time=0
EXTRACT: note_on channel=5 note=59 velocity=95 time=0
EXTRACT: note_on channel=5 note=56 velocity=95 time=0
EXTRACT: note_on channel=6 note=78 velocity=95 time=0
EXTRACT: note_off channel=9 note=44 velocity=127 time=0
EXTRACT: note_off channel=9 note=54 velocity=127 time=0
EXTRACT: note_on channel=9 note=44 velocity=127 time=0
EXTRACT: note_on channel=9 note=54 velocity=127 time=0
EXTRACT: note_on channel=9 note=35 velocity=127 time=0
EXTRACT: note_off channel=3 note=83 velocity=127 time=0.1339285
EXTRACT: note_off channel=3 note=75 velocity=127 time=0
EXTRACT: note_on channel=3 note=83 velocity=127 time=0
EXTRACT: note_on channel=3 note=75 velocity=127 time=0
EXTRACT: note_off channel=9 note=44 velocity=127 time=0
EXTRACT: note_off channel=9 note=54 velocity=127 time=0
EXTRACT: note_off channel=9 note=35 velocity=127 time=0
EXTRACT: note_on channel=9 note=54 velocity=127 time=0
EXTRACT: note_off channel=6 note=78 velocity=95 time=0.06696425
EXTRACT: note_off channel=8 note=27 velocity=127 time=0.06696425
EXTRACT: note_off channel=9 note=54 velocity=127 time=0
EXTRACT: note_on channel=9 note=44 velocity=127 time=0
EXTRACT: note_on channel=9 note=81 velocity=127 time=0
EXTRACT: note_on channel=9 note=54 velocity=127 time=0
EXTRACT: note_off channel=9 note=44 velocity=127 time=0.1339285
EXTRACT: note_off channel=9 note=81 velocity=127 time=0
EXTRACT: note_off channel=9 note=54 velocity=127 time=0
EXTRACT: note_on channel=9 note=54 velocity=127 time=0
EXTRACT: note_off channel=3 note=83 velocity=127 time=0.1339285
EXTRACT: note_off channel=3 note=75 velocity=127 time=0
EXTRACT: note_on channel=3 note=85 velocity=127 time=0
EXTRACT: note_on channel=3 note=73 velocity=127 time=0
EXTRACT: note_on channel=6 note=78 velocity=95 time=0
EXTRACT: note_off channel=9 note=54 velocity=127 time=0
EXTRACT: note_on channel=9 note=38 velocity=127 time=0
EXTRACT: note_on channel=9 note=39 velocity=95 time=0
EXTRACT: note_on channel=9 note=54 velocity=127 time=0
EXTRACT: note_off channel=9 note=38 velocity=127 time=0.1339285
EXTRACT: note_off channel=9 note=39 velocity=95 time=0
EXTRACT: note_off channel=9 note=54 velocity=127 time=0
EXTRACT: note_on channel=9 note=54 velocity=127 time=0
EXTRACT: note_off channel=6 note=78 velocity=95 time=0.06696425
EXTRACT: note_off channel=0 note=52 velocity=95 time=0.06696425
EXTRACT: note_off channel=0 note=47 velocity=95 time=0
EXTRACT: note_off channel=0 note=40 velocity=95 time=0
EXTRACT: note_on channel=0 note=59 velocity=95 time=0
EXTRACT: note_on channel=0 note=54 velocity=95 time=0
EXTRACT: note_on channel=0 note=47 velocity=95 time=0
EXTRACT: note_on channel=8 note=27 velocity=127 time=0
EXTRACT: note_off channel=3 note=85 velocity=127 time=0
EXTRACT: note_off channel=3 note=73 velocity=127 time=0
EXTRACT: note_on channel=3 note=78 velocity=127 time=0
EXTRACT: note_on channel=3 note=71 velocity=127 time=0
EXTRACT: note_off channel=4 note=68 velocity=95 time=0
EXTRACT: note_off channel=4 note=64 velocity=95 time=0
EXTRACT: note_off channel=4 note=59 velocity=95 time=0
EXTRACT: note_off channel=4 note=56 velocity=95 time=0
EXTRACT: note_on channel=4 note=71 velocity=95 time=0
EXTRACT: note_on channel=4 note=66 velocity=95 time=0
EXTRACT: note_on channel=4 note=63 velocity=95 time=0
EXTRACT: note_on channel=4 note=59 velocity=95 time=0
EXTRACT: note_off channel=5 note=68 velocity=95 time=0
EXTRACT: note_off channel=5 note=64 velocity=95 time=0
EXTRACT: note_off channel=5 note=59 velocity=95 time=0
EXTRACT: note_off channel=5 note=56 velocity=95 time=0
EXTRACT: note_on channel=5 note=71 velocity=95 time=0
EXTRACT: note_on channel=5 note=66 velocity=95 time=0
EXTRACT: note_on channel=5 note=63 velocity=95 time=0
EXTRACT: note_on channel=5 note=59 velocity=95 time=0
EXTRACT: note_off channel=9 note=54 velocity=127 time=0
EXTRACT: note_on channel=9 note=44 velocity=127 time=0
EXTRACT: note_on channel=9 note=81 velocity=127 time=0
EXTRACT: note_on channel=9 note=54 velocity=127 time=0
EXTRACT: note_off channel=9 note=44 velocity=127 time=0.1339285
EXTRACT: note_off channel=9 note=81 velocity=127 time=0
EXTRACT: note_off channel=9 note=54 velocity=127 time=0
EXTRACT: note_on channel=9 note=54 velocity=127 time=0
EXTRACT: note_off channel=8 note=27 velocity=127 time=0.1339285
EXTRACT: note_on channel=8 note=35 velocity=127 time=0
EXTRACT: note_off channel=3 note=78 velocity=127 time=0
EXTRACT: note_off channel=3 note=71 velocity=127 time=0
EXTRACT: note_on channel=3 note=80 velocity=127 time=0
EXTRACT: note_on channel=3 note=71 velocity=127 time=0
EXTRACT: note_on channel=6 note=78 velocity=95 time=0
EXTRACT: note_off channel=9 note=54 velocity=127 time=0
EXTRACT: note_on channel=9 note=44 velocity=127 time=0
EXTRACT: note_on channel=9 note=54 velocity=127 time=0
EXTRACT: note_on channel=9 note=35 velocity=127 time=0
EXTRACT: note_off channel=8 note=35 velocity=127 time=0.1339285
EXTRACT: note_on channel=8 note=30 velocity=127 time=0
EXTRACT: note_off channel=9 note=44 velocity=127 time=0
EXTRACT: note_off channel=9 note=54 velocity=127 time=0
EXTRACT: note_off channel=9 note=35 velocity=127 time=0
EXTRACT: note_on channel=9 note=54 velocity=127 time=0
EXTRACT: note_off channel=6 note=78 velocity=95 time=0.06696425
EXTRACT: note_off channel=3 note=80 velocity=127 time=0.06696425
EXTRACT: note_off channel=3 note=71 velocity=127 time=0
EXTRACT: note_on channel=3 note=82 velocity=127 time=0
EXTRACT: note_off channel=9 note=54 velocity=127 time=0
EXTRACT: note_on channel=9 note=44 velocity=127 time=0
EXTRACT: note_on channel=9 note=81 velocity=127 time=0
EXTRACT: note_on channel=9 note=54 velocity=127 time=0
EXTRACT: note_off channel=8 note=30 velocity=127 time=0.1339285
EXTRACT: note_on channel=8 note=35 velocity=127 time=0
EXTRACT: note_off channel=3 note=82 velocity=127 time=0
EXTRACT: note_on channel=3 note=80 velocity=127 time=0
EXTRACT: note_off channel=9 note=44 velocity=127 time=0
EXTRACT: note_off channel=9 note=81 velocity=127 time=0
EXTRACT: note_off channel=9 note=54 velocity=127 time=0
EXTRACT: note_on channel=9 note=54 velocity=127 time=0
EXTRACT: note_on channel=2 note=78 velocity=127 time=0.1339285
EXTRACT: note_on channel=2 note=75 velocity=127 time=0
EXTRACT: note_on channel=2 note=70 velocity=95 time=0
EXTRACT: note_off channel=8 note=35 velocity=127 time=0
EXTRACT: note_on channel=8 note=30 velocity=127 time=0
EXTRACT: note_off channel=3 note=80 velocity=127 time=0
EXTRACT: note_on channel=3 note=78 velocity=127 time=0
EXTRACT: note_on channel=6 note=78 velocity=95 time=0
EXTRACT: note_off channel=9 note=54 velocity=127 time=0
EXTRACT: note_on channel=9 note=38 velocity=127 time=0
EXTRACT: note_on channel=9 note=39 velocity=95 time=0
EXTRACT: note_on channel=9 note=54 velocity=127 time=0
EXTRACT: note_off channel=9 note=38 velocity=127 time=0.1339285
EXTRACT: note_off channel=9 note=39 velocity=95 time=0
EXTRACT: note_off channel=9 note=54 velocity=127 time=0
EXTRACT: note_on channel=9 note=54 velocity=127 time=0
EXTRACT: note_off channel=6 note=78 velocity=95 time=0.06696425
EXTRACT: note_off channel=2 note=78 velocity=127 time=0.06696425
EXTRACT: note_off channel=2 note=75 velocity=127 time=0
EXTRACT: note_off channel=2 note=70 velocity=95 time=0
EXTRACT: note_off channel=8 note=30 velocity=127 time=0
EXTRACT: note_on channel=8 note=35 velocity=127 time=0
EXTRACT: note_off channel=3 note=78 velocity=127 time=0
EXTRACT: note_off channel=9 note=54 velocity=127 time=0
EXTRACT: note_on channel=9 note=44 velocity=127 time=0
EXTRACT: note_on channel=9 note=81 velocity=127 time=0
EXTRACT: note_on channel=9 note=54 velocity=127 time=0
EXTRACT: note_off channel=9 note=44 velocity=127 time=0.1339285
EXTRACT: note_off channel=9 note=81 velocity=127 time=0
EXTRACT: note_off channel=9 note=54 velocity=127 time=0
EXTRACT: note_on channel=9 note=44 velocity=127 time=0
EXTRACT: note_on channel=9 note=54 velocity=127 time=0
EXTRACT: note_off channel=0 note=59 velocity=95 time=0.1339285
EXTRACT: note_off channel=0 note=54 velocity=95 time=0
EXTRACT: note_off channel=0 note=47 velocity=95 time=0
EXTRACT: note_on channel=0 note=54 velocity=95 time=0
EXTRACT: note_on channel=0 note=49 velocity=95 time=0
EXTRACT: note_on channel=0 note=42 velocity=95 time=0
EXTRACT: note_off channel=8 note=35 velocity=127 time=0
EXTRACT: note_on channel=8 note=30 velocity=127 time=0
EXTRACT: note_on channel=3 note=78 velocity=127 time=0
EXTRACT: note_on channel=3 note=73 velocity=127 time=0
EXTRACT: note_off channel=4 note=71 velocity=95 time=0
EXTRACT: note_off channel=4 note=66 velocity=95 time=0
EXTRACT: note_off channel=4 note=63 velocity=95 time=0
EXTRACT: note_off channel=4 note=59 velocity=95 time=0
EXTRACT: note_on channel=4 note=70 velocity=95 time=0
EXTRACT: note_on channel=4 note=66 velocity=95 time=0
EXTRACT: note_on channel=4 note=61 velocity=95 time=0
EXTRACT: note_on channel=4 note=58 velocity=95 time=0
EXTRACT: note_off channel=5 note=71 velocity=95 time=0
EXTRACT: note_off channel=5 note=66 velocity=95 time=0
EXTRACT: note_off channel=5 note=63 velocity=95 time=0
EXTRACT: note_off channel=5 note=59 velocity=95 time=0
EXTRACT: note_on channel=5 note=70 velocity=95 time=0
EXTRACT: note_on channel=5 note=66 velocity=95 time=0
EXTRACT: note_on channel=5 note=61 velocity=95 time=0
EXTRACT: note_on channel=5 note=58 velocity=95 time=0
EXTRACT: note_on channel=6 note=78 velocity=95 time=0
EXTRACT: note_off channel=9 note=44 velocity=127 time=0
EXTRACT: note_off channel=9 note=54 velocity=127 time=0
EXTRACT: note_on channel=9 note=44 velocity=127 time=0
EXTRACT: note_on channel=9 note=54 velocity=127 time=0
EXTRACT: note_on channel=9 note=35 velocity=127 time=0
EXTRACT: note_off channel=3 note=78 velocity=127 time=0.1339285
EXTRACT: note_off channel=3 note=73 velocity=127 time=0
EXTRACT: note_on channel=3 note=78 velocity=127 time=0
EXTRACT: note_on channel=3 note=73 velocity=127 time=0
EXTRACT: note_off channel=9 note=44 velocity=127 time=0
EXTRACT: note_off channel=9 note=54 velocity=127 time=0
EXTRACT: note_off channel=9 note=35 velocity=127 time=0
EXTRACT: note_on channel=9 note=54 velocity=127 time=0
EXTRACT: note_off channel=6 note=78 velocity=95 time=0.06696425
EXTRACT: note_off channel=8 note=30 velocity=127 time=0.06696425
EXTRACT: note_off channel=3 note=78 velocity=127 time=0
EXTRACT: note_off channel=3 note=73 velocity=127 time=0
EXTRACT: note_on channel=3 note=78 velocity=127 time=0
EXTRACT: note_on channel=3 note=73 velocity=127 time=0
EXTRACT: note_off channel=9 note=54 velocity=127 time=0
EXTRACT: note_on channel=9 note=44 velocity=127 time=0
EXTRACT: note_on channel=9 note=81 velocity=127 time=0
EXTRACT: note_on channel=9 note=54 velocity=127 time=0
EXTRACT: note_off channel=3 note=78 velocity=127 time=0.1339285
EXTRACT: note_off channel=3 note=73 velocity=127 time=0
EXTRACT: note_on channel=3 note=78 velocity=127 time=0
EXTRACT: note_on channel=3 note=73 velocity=127 time=0
EXTRACT: note_off channel=9 note=44 velocity=127 time=0
EXTRACT: note_off channel=9 note=81 velocity=127 time=0
EXTRACT: note_off channel=9 note=54 velocity=127 time=0
EXTRACT: note_on channel=9 note=54 velocity=127 time=0
EXTRACT: note_off channel=3 note=78 velocity=127 time=0.1339285
EXTRACT: note_off channel=3 note=73 velocity=127 time=0
EXTRACT: note_on channel=3 note=78 velocity=127 time=0
EXTRACT: note_on channel=3 note=73 velocity=127 time=0
EXTRACT: note_on channel=6 note=78 velocity=95 time=0
EXTRACT: note_off channel=9 note=54 velocity=127 time=0
EXTRACT: note_on channel=9 note=38 velocity=127 time=0
EXTRACT: note_on channel=9 note=39 velocity=95 time=0
EXTRACT: note_on channel=9 note=54 velocity=127 time=0
EXTRACT: note_off channel=9 note=38 velocity=127 time=0.1339285
EXTRACT: note_off channel=9 note=39 velocity=95 time=0
EXTRACT: note_off channel=9 note=54 velocity=127 time=0
EXTRACT: note_on channel=9 note=54 velocity=127 time=0
EXTRACT: note_off channel=6 note=78 velocity=95 time=0.06696425
EXTRACT: note_off channel=0 note=54 velocity=95 time=0.06696425
EXTRACT: note_off channel=0 note=49 velocity=95 time=0
EXTRACT: note_off channel=0 note=42 velocity=95 time=0
EXTRACT: note_on channel=0 note=59 velocity=95 time=0
EXTRACT: note_on channel=0 note=54 velocity=95 time=0
EXTRACT: note_on channel=0 note=47 velocity=95 time=0
EXTRACT: note_on channel=8 note=30 velocity=127 time=0
EXTRACT: note_off channel=3 note=78 velocity=127 time=0
EXTRACT: note_off channel=3 note=73 velocity=127 time=0
EXTRACT: note_on channel=3 note=80 velocity=127 time=0
EXTRACT: note_on channel=3 note=75 velocity=127 time=0
EXTRACT: note_off channel=4 note=70 velocity=95 time=0
EXTRACT: note_off channel=4 note=66 velocity=95 time=0
EXTRACT: note_off channel=4 note=61 velocity=95 time=0
EXTRACT: note_off channel=4 note=58 velocity=95 time=0
EXTRACT: note_on channel=4 note=71 velocity=95 time=0
EXTRACT: note_on channel=4 note=66 velocity=95 time=0
EXTRACT: note_on channel=4 note=63 velocity=95 time=0
EXTRACT: note_on channel=4 note=59 velocity=95 time=0
EXTRACT: note_off channel=5 note=70 velocity=95 time=0
EXTRACT: note_off channel=5 note=66 velocity=95 time=0
EXTRACT: note_off channel=5 note=61 velocity=95 time=0
EXTRACT: note_off channel=5 note=58 velocity=95 time=0
EXTRACT: note_on channel=5 note=71 velocity=95 time=0
EXTRACT: note_on channel=5 note=66 velocity=95 time=0
EXTRACT: note_on channel=5 note=63 velocity=95 time=0
EXTRACT: note_on channel=5 note=59 velocity=95 time=0
EXTRACT: note_off channel=9 note=54 velocity=127 time=0
EXTRACT: note_on channel=9 note=44 velocity=127 time=0
EXTRACT: note_on channel=9 note=81 velocity=127 time=0
EXTRACT: note_on channel=9 note=54 velocity=127 time=0
EXTRACT: note_off channel=9 note=44 velocity=127 time=0.1339285
EXTRACT: note_off channel=9 note=81 velocity=127 time=0
EXTRACT: note_off channel=9 note=54 velocity=127 time=0
EXTRACT: note_on channel=9 note=54 velocity=127 time=0
EXTRACT: note_off channel=8 note=30 velocity=127 time=0.1339285
EXTRACT: note_on channel=8 note=32 velocity=127 time=0
EXTRACT: note_off channel=3 note=80 velocity=127 time=0
EXTRACT: note_off channel=3 note=75 velocity=127 time=0
EXTRACT: note_on channel=3 note=78 velocity=127 time=0
EXTRACT: note_on channel=3 note=75 velocity=127 time=0
EXTRACT: note_on channel=6 note=78 velocity=95 time=0
EXTRACT: note_off channel=9 note=54 velocity=127 time=0
EXTRACT: note_on channel=9 note=44 velocity=127 time=0
EXTRACT: note_on channel=9 note=54 velocity=127 time=0
EXTRACT: note_on channel=9 note=35 velocity=127 time=0
EXTRACT: note_off channel=9 note=44 velocity=127 time=0.1339285
EXTRACT: note_off channel=9 note=54 velocity=127 time=0
EXTRACT: note_off channel=9 note=35 velocity=127 time=0
EXTRACT: note_on channel=9 note=54 velocity=127 time=0
EXTRACT: note_off channel=6 note=78 velocity=95 time=0.06696425
EXTRACT: note_off channel=8 note=32 velocity=127 time=0.06696425
EXTRACT: note_off channel=3 note=78 velocity=127 time=0
EXTRACT: note_off channel=3 note=75 velocity=127 time=0
EXTRACT: note_on channel=3 note=75 velocity=127 time=0
EXTRACT: note_off channel=9 note=54 velocity=127 time=0
EXTRACT: note_on channel=9 note=44 velocity=127 time=0
EXTRACT: note_on channel=9 note=81 velocity=127 time=0
EXTRACT: note_on channel=9 note=54 velocity=127 time=0
EXTRACT: note_off channel=9 note=44 velocity=127 time=0.1339285
EXTRACT: note_off channel=9 note=81 velocity=127 time=0
EXTRACT: note_off channel=9 note=54 velocity=127 time=0
EXTRACT: note_on channel=9 note=54 velocity=127 time=0
EXTRACT: note_on channel=2 note=78 velocity=127 time=0.1339285
EXTRACT: note_on channel=2 note=75 velocity=127 time=0
EXTRACT: note_on channel=2 note=70 velocity=95 time=0
EXTRACT: note_off channel=3 note=75 velocity=127 time=0
EXTRACT: note_on channel=6 note=78 velocity=95 time=0
EXTRACT: note_off channel=9 note=54 velocity=127 time=0
EXTRACT: note_on channel=9 note=38 velocity=127 time=0
EXTRACT: note_on channel=9 note=39 velocity=95 time=0
EXTRACT: note_on channel=9 note=54 velocity=127 time=0
EXTRACT: note_off channel=9 note=38 velocity=127 time=0.1339285
EXTRACT: note_off channel=9 note=39 velocity=95 time=0
EXTRACT: note_off channel=9 note=54 velocity=127 time=0
EXTRACT: note_on channel=9 note=54 velocity=127 time=0
EXTRACT: note_off channel=6 note=78 velocity=95 time=0.06696425
EXTRACT: note_off channel=2 note=78 velocity=127 time=0.06696425
EXTRACT: note_off channel=2 note=75 velocity=127 time=0
EXTRACT: note_off channel=2 note=70 velocity=95 time=0
EXTRACT: note_on channel=8 note=32 velocity=127 time=0
EXTRACT: note_off channel=9 note=54 velocity=127 time=0
EXTRACT: note_on channel=9 note=44 velocity=127 time=0
EXTRACT: note_on channel=9 note=81 velocity=127 time=0
EXTRACT: note_on channel=9 note=54 velocity=127 time=0
EXTRACT: note_off channel=9 note=44 velocity=127 time=0.1339285
EXTRACT: note_off channel=9 note=81 velocity=127 time=0
EXTRACT: note_off channel=9 note=54 velocity=127 time=0
EXTRACT: note_on channel=9 note=44 velocity=127 time=0
EXTRACT: note_on channel=9 note=54 velocity=127 time=0
EXTRACT: note_off channel=0 note=59 velocity=95 time=0.1339285
EXTRACT: note_off channel=0 note=54 velocity=95 time=0
EXTRACT: note_off channel=0 note=47 velocity=95 time=0
EXTRACT: note_on channel=0 note=52 velocity=95 time=0
EXTRACT: note_on channel=0 note=47 velocity=95 time=0
EXTRACT: note_on channel=0 note=40 velocity=95 time=0
EXTRACT: note_off channel=8 note=32 velocity=127 time=0
EXTRACT: note_on channel=8 note=27 velocity=127 time=0
EXTRACT: note_off channel=4 note=71 velocity=95 time=0
EXTRACT: note_off channel=4 note=66 velocity=95 time=0
EXTRACT: note_off channel=4 note=63 velocity=95 time=0
EXTRACT: note_off channel=4 note=59 velocity=95 time=0
EXTRACT: note_on channel=4 note=68 velocity=95 time=0
EXTRACT: note_on channel=4 note=64 velocity=95 time=0
EXTRACT: note_on channel=4 note=59 velocity=95 time=0
EXTRACT: note_on channel=4 note=56 velocity=95 time=0
EXTRACT: note_off channel=5 note=71 velocity=95 time=0
EXTRACT: note_off channel=5 note=66 velocity=95 time=0
EXTRACT: note_off channel=5 note=63 velocity=95 time=0
EXTRACT: note_off channel=5 note=59 velocity=95 time=0
EXTRACT: note_on channel=5 note=68 velocity=95 time=0
EXTRACT: note_on channel=5 note=64 velocity=95 time=0
EXTRACT: note_on channel=5 note=59 velocity=95 time=0
EXTRACT: note_on channel=5 note=56 velocity=95 time=0
EXTRACT: note_on channel=6 note=78 velocity=95 time=0
EXTRACT: note_off channel=9 note=44 velocity=127 time=0
EXTRACT: note_off channel=9 note=54 velocity=127 time=0
EXTRACT: note_on channel=9 note=44 velocity=127 time=0
EXTRACT: note_on channel=9 note=54 velocity=127 time=0
EXTRACT: note_on channel=9 note=35 velocity=127 time=0
EXTRACT: note_off channel=9 note=44 velocity=127 time=0.1339285
EXTRACT: note_off channel=9 note=54 velocity=127 time=0
EXTRACT: note_off channel=9 note=35 velocity=127 time=0
EXTRACT: note_on channel=9 note=54 velocity=127 time=0
EXTRACT: note_off channel=6 note=78 velocity=95 time=0.06696425
EXTRACT: note_off channel=8 note=27 velocity=127 time=0.06696425
EXTRACT: note_off channel=9 note=54 velocity=127 time=0
EXTRACT: note_on channel=9 note=44 velocity=127 time=0
EXTRACT: note_on channel=9 note=81 velocity=127 time=0
EXTRACT: note_on channel=9 note=54 velocity=127 time=0
EXTRACT: note_off channel=9 note=44 velocity=127 time=0.1339285
EXTRACT: note_off channel=9 note=81 velocity=127 time=0
EXTRACT: note_off channel=9 note=54 velocity=127 time=0
EXTRACT: note_on channel=9 note=54 velocity=127 time=0
EXTRACT: note_on channel=6 note=78 velocity=95 time=0.1339285
EXTRACT: note_off channel=9 note=54 velocity=127 time=0
EXTRACT: note_on channel=9 note=38 velocity=127 time=0
EXTRACT: note_on channel=9 note=39 velocity=95 time=0
EXTRACT: note_on channel=9 note=54 velocity=127 time=0
EXTRACT: note_off channel=9 note=38 velocity=127 time=0.1339285
EXTRACT: note_off channel=9 note=39 velocity=95 time=0
EXTRACT: note_off channel=9 note=54 velocity=127 time=0
EXTRACT: note_on channel=9 note=54 velocity=127 time=0
EXTRACT: note_off channel=6 note=78 velocity=95 time=0.06696425
EXTRACT: note_off channel=0 note=52 velocity=95 time=0.06696425
EXTRACT: note_off channel=0 note=47 velocity=95 time=0
EXTRACT: note_off channel=0 note=40 velocity=95 time=0
EXTRACT: note_on channel=0 note=59 velocity=95 time=0
EXTRACT: note_on channel=0 note=54 velocity=95 time=0
EXTRACT: note_on channel=0 note=47 velocity=95 time=0
EXTRACT: note_on channel=8 note=27 velocity=127 time=0
EXTRACT: note_off channel=4 note=68 velocity=95 time=0
EXTRACT: note_off channel=4 note=64 velocity=95 time=0
EXTRACT: note_off channel=4 note=59 velocity=95 time=0
EXTRACT: note_off channel=4 note=56 velocity=95 time=0
EXTRACT: note_on channel=4 note=71 velocity=95 time=0
EXTRACT: note_on channel=4 note=66 velocity=95 time=0
EXTRACT: note_on channel=4 note=63 velocity=95 time=0
EXTRACT: note_on channel=4 note=59 velocity=95 time=0
EXTRACT: note_off channel=5 note=68 velocity=95 time=0
EXTRACT: note_off channel=5 note=64 velocity=95 time=0
EXTRACT: note_off channel=5 note=59 velocity=95 time=0
EXTRACT: note_off channel=5 note=56 velocity=95 time=0
EXTRACT: note_on channel=5 note=71 velocity=95 time=0
EXTRACT: note_on channel=5 note=66 velocity=95 time=0
EXTRACT: note_on channel=5 note=63 velocity=95 time=0
EXTRACT: note_on channel=5 note=59 velocity=95 time=0
EXTRACT: note_off channel=9 note=54 velocity=127 time=0
EXTRACT: note_on channel=9 note=44 velocity=127 time=0
EXTRACT: note_on channel=9 note=81 velocity=127 time=0
EXTRACT: note_on channel=9 note=54 velocity=127 time=0
EXTRACT: note_off channel=9 note=44 velocity=127 time=0.1339285
EXTRACT: note_off channel=9 note=81 velocity=127 time=0
EXTRACT: note_off channel=9 note=54 velocity=127 time=0
EXTRACT: note_on channel=9 note=54 velocity=127 time=0
EXTRACT: note_off channel=8 note=27 velocity=127 time=0.1339285
EXTRACT: note_on channel=8 note=35 velocity=127 time=0
EXTRACT: note_on channel=6 note=78 velocity=95 time=0
EXTRACT: note_off channel=9 note=54 velocity=127 time=0
EXTRACT: note_on channel=9 note=44 velocity=127 time=0
EXTRACT: note_on channel=9 note=54 velocity=127 time=0
EXTRACT: note_on channel=9 note=35 velocity=127 time=0
EXTRACT: note_off channel=8 note=35 velocity=127 time=0.1339285
EXTRACT: note_on channel=8 note=30 velocity=127 time=0
EXTRACT: note_off channel=9 note=44 velocity=127 time=0
EXTRACT: note_off channel=9 note=54 velocity=127 time=0
EXTRACT: note_off channel=9 note=35 velocity=127 time=0
EXTRACT: note_on channel=9 note=54 velocity=127 time=0
EXTRACT: note_off channel=6 note=78 velocity=95 time=0.06696425
EXTRACT: note_off channel=9 note=54 velocity=127 time=0.06696425
EXTRACT: note_on channel=9 note=44 velocity=127 time=0
EXTRACT: note_on channel=9 note=81 velocity=127 time=0
EXTRACT: note_on channel=9 note=54 velocity=127 time=0
EXTRACT: note_off channel=8 note=30 velocity=127 time=0.1339285
EXTRACT: note_on channel=8 note=35 velocity=127 time=0
EXTRACT: note_off channel=9 note=44 velocity=127 time=0
EXTRACT: note_off channel=9 note=81 velocity=127 time=0
EXTRACT: note_off channel=9 note=54 velocity=127 time=0
EXTRACT: note_on channel=9 note=54 velocity=127 time=0
EXTRACT: note_on channel=2 note=78 velocity=127 time=0.1339285
EXTRACT: note_on channel=2 note=75 velocity=127 time=0
EXTRACT: note_on channel=2 note=70 velocity=95 time=0
EXTRACT: note_off channel=8 note=35 velocity=127 time=0
EXTRACT: note_on channel=8 note=30 velocity=127 time=0
EXTRACT: note_on channel=6 note=78 velocity=95 time=0
EXTRACT: note_off channel=9 note=54 velocity=127 time=0
EXTRACT: note_on channel=9 note=38 velocity=127 time=0
EXTRACT: note_on channel=9 note=39 velocity=95 time=0
EXTRACT: note_on channel=9 note=54 velocity=127 time=0
EXTRACT: note_off channel=9 note=38 velocity=127 time=0.1339285
EXTRACT: note_off channel=9 note=39 velocity=95 time=0
EXTRACT: note_off channel=9 note=54 velocity=127 time=0
EXTRACT: note_on channel=9 note=54 velocity=127 time=0
EXTRACT: note_off channel=6 note=78 velocity=95 time=0.06696425
EXTRACT: note_off channel=2 note=78 velocity=127 time=0.06696425
EXTRACT: note_off channel=2 note=75 velocity=127 time=0
EXTRACT: note_off channel=2 note=70 velocity=95 time=0
EXTRACT: note_off channel=8 note=30 velocity=127 time=0
EXTRACT: note_on channel=8 note=35 velocity=127 time=0
EXTRACT: note_off channel=9 note=54 velocity=127 time=0
EXTRACT: note_on channel=9 note=44 velocity=127 time=0
EXTRACT: note_on channel=9 note=81 velocity=127 time=0
EXTRACT: note_on channel=9 note=54 velocity=127 time=0
EXTRACT: note_off channel=9 note=44 velocity=127 time=0.1339285
EXTRACT: note_off channel=9 note=81 velocity=127 time=0
EXTRACT: note_off channel=9 note=54 velocity=127 time=0
EXTRACT: note_on channel=9 note=44 velocity=127 time=0
EXTRACT: note_on channel=9 note=54 velocity=127 time=0
EXTRACT: note_off channel=0 note=59 velocity=95 time=0.1339285
EXTRACT: note_off channel=0 note=54 velocity=95 time=0
EXTRACT: note_off channel=0 note=47 velocity=95 time=0
EXTRACT: note_on channel=0 note=54 velocity=95 time=0
EXTRACT: note_on channel=0 note=49 velocity=95 time=0
EXTRACT: note_on channel=0 note=42 velocity=95 time=0
EXTRACT: note_off channel=8 note=35 velocity=127 time=0
EXTRACT: note_on channel=8 note=30 velocity=127 time=0
EXTRACT: note_on channel=3 note=78 velocity=127 time=0
EXTRACT: note_on channel=3 note=73 velocity=127 time=0
EXTRACT: note_off channel=4 note=71 velocity=95 time=0
EXTRACT: note_off channel=4 note=66 velocity=95 time=0
EXTRACT: note_off channel=4 note=63 velocity=95 time=0
EXTRACT: note_off channel=4 note=59 velocity=95 time=0
EXTRACT: note_on channel=4 note=70 velocity=95 time=0
EXTRACT: note_on channel=4 note=66 velocity=95 time=0
EXTRACT: note_on channel=4 note=61 velocity=95 time=0
EXTRACT: note_on channel=4 note=58 velocity=95 time=0
EXTRACT: note_off channel=5 note=71 velocity=95 time=0
EXTRACT: note_off channel=5 note=66 velocity=95 time=0
EXTRACT: note_off channel=5 note=63 velocity=95 time=0
EXTRACT: note_off channel=5 note=59 velocity=95 time=0
EXTRACT: note_on channel=5 note=70 velocity=95 time=0
EXTRACT: note_on channel=5 note=66 velocity=95 time=0
EXTRACT: note_on channel=5 note=61 velocity=95 time=0
EXTRACT: note_on channel=5 note=58 velocity=95 time=0
EXTRACT: note_on channel=6 note=78 velocity=95 time=0
EXTRACT: note_off channel=9 note=44 velocity=127 time=0
EXTRACT: note_off channel=9 note=54 velocity=127 time=0
EXTRACT: note_on channel=9 note=44 velocity=127 time=0
EXTRACT: note_on channel=9 note=54 velocity=127 time=0
EXTRACT: note_on channel=9 note=35 velocity=127 time=0
EXTRACT: note_off channel=9 note=44 velocity=127 time=0.1339285
EXTRACT: note_off channel=9 note=54 velocity=127 time=0
EXTRACT: note_off channel=9 note=35 velocity=127 time=0
EXTRACT: note_on channel=9 note=54 velocity=127 time=0
EXTRACT: note_off channel=6 note=78 velocity=95 time=0.06696425
EXTRACT: note_off channel=8 note=30 velocity=127 time=0.06696425
EXTRACT: note_off channel=3 note=78 velocity=127 time=0
EXTRACT: note_off channel=3 note=73 velocity=127 time=0
EXTRACT: note_on channel=3 note=78 velocity=127 time=0
EXTRACT: note_on channel=3 note=73 velocity=127 time=0
EXTRACT: note_off channel=9 note=54 velocity=127 time=0
EXTRACT: note_on channel=9 note=44 velocity=127 time=0
EXTRACT: note_on channel=9 note=81 velocity=127 time=0
EXTRACT: note_on channel=9 note=54 velocity=127 time=0
EXTRACT: note_off channel=9 note=44 velocity=127 time=0.1339285
EXTRACT: note_off channel=9 note=81 velocity=127 time=0
EXTRACT: note_off channel=9 note=54 velocity=127 time=0
EXTRACT: note_on channel=9 note=54 velocity=127 time=0
EXTRACT: note_off channel=3 note=78 velocity=127 time=0.1339285
EXTRACT: note_off channel=3 note=73 velocity=127 time=0
EXTRACT: note_on channel=3 note=78 velocity=127 time=0
EXTRACT: note_on channel=3 note=78 velocity=127 time=0
EXTRACT: note_on channel=3 note=73 velocity=127 time=0
EXTRACT: note_on channel=6 note=78 velocity=95 time=0
EXTRACT: note_off channel=9 note=54 velocity=127 time=0
EXTRACT: note_on channel=9 note=38 velocity=127 time=0
EXTRACT: note_on channel=9 note=39 velocity=95 time=0
EXTRACT: note_on channel=9 note=54 velocity=127 time=0
EXTRACT: note_off channel=9 note=38 velocity=127 time=0.1339285
EXTRACT: note_off channel=9 note=39 velocity=95 time=0
EXTRACT: note_off channel=9 note=54 velocity=127 time=0
EXTRACT: note_on channel=9 note=54 velocity=127 time=0
EXTRACT: note_off channel=6 note=78 velocity=95 time=0.06696425
EXTRACT: note_off channel=0 note=54 velocity=95 time=0.06696425
EXTRACT: note_off channel=0 note=49 velocity=95 time=0
EXTRACT: note_off channel=0 note=42 velocity=95 time=0
EXTRACT: note_on channel=0 note=59 velocity=95 time=0
EXTRACT: note_on channel=0 note=54 velocity=95 time=0
EXTRACT: note_on channel=0 note=47 velocity=95 time=0
EXTRACT: note_on channel=8 note=30 velocity=127 time=0
EXTRACT: note_off channel=3 note=78 velocity=127 time=0
EXTRACT: note_off channel=3 note=78 velocity=127 time=0
EXTRACT: note_off channel=3 note=73 velocity=127 time=0
EXTRACT: note_on channel=3 note=75 velocity=127 time=0
EXTRACT: note_off channel=4 note=70 velocity=95 time=0
EXTRACT: note_off channel=4 note=66 velocity=95 time=0
EXTRACT: note_off channel=4 note=61 velocity=95 time=0
EXTRACT: note_off channel=4 note=58 velocity=95 time=0
EXTRACT: note_on channel=4 note=71 velocity=95 time=0
EXTRACT: note_on channel=4 note=66 velocity=95 time=0
EXTRACT: note_on channel=4 note=63 velocity=95 time=0
EXTRACT: note_on channel=4 note=59 velocity=95 time=0
EXTRACT: note_off channel=5 note=70 velocity=95 time=0
EXTRACT: note_off channel=5 note=66 velocity=95 time=0
EXTRACT: note_off channel=5 note=61 velocity=95 time=0
EXTRACT: note_off channel=5 note=58 velocity=95 time=0
EXTRACT: note_on channel=5 note=71 velocity=95 time=0
EXTRACT: note_on channel=5 note=66 velocity=95 time=0
EXTRACT: note_on channel=5 note=63 velocity=95 time=0
EXTRACT: note_on channel=5 note=59 velocity=95 time=0
EXTRACT: note_off channel=9 note=54 velocity=127 time=0
EXTRACT: note_on channel=9 note=44 velocity=127 time=0
EXTRACT: note_on channel=9 note=81 velocity=127 time=0
EXTRACT: note_on channel=9 note=54 velocity=127 time=0
EXTRACT: note_off channel=9 note=44 velocity=127 time=0.1339285
EXTRACT: note_off channel=9 note=81 velocity=127 time=0
EXTRACT: note_off channel=9 note=54 velocity=127 time=0
EXTRACT: note_on channel=9 note=54 velocity=127 time=0
EXTRACT: note_off channel=8 note=30 velocity=127 time=0.1339285
EXTRACT: note_on channel=8 note=32 velocity=127 time=0
EXTRACT: note_off channel=3 note=75 velocity=127 time=0
EXTRACT: note_on channel=3 note=78 velocity=127 time=0
EXTRACT: note_on channel=3 note=75 velocity=127 time=0
EXTRACT: note_on channel=6 note=78 velocity=95 time=0
EXTRACT: note_off channel=9 note=54 velocity=127 time=0
EXTRACT: note_on channel=9 note=44 velocity=127 time=0
EXTRACT: note_on channel=9 note=54 velocity=127 time=0
EXTRACT: note_on channel=9 note=35 velocity=127 time=0
EXTRACT: note_off channel=9 note=44 velocity=127 time=0.1339285
EXTRACT: note_off channel=9 note=54 velocity=127 time=0
EXTRACT: note_off channel=9 note=35 velocity=127 time=0
EXTRACT: note_on channel=9 note=54 velocity=127 time=0
EXTRACT: note_off channel=6 note=78 velocity=95 time=0.06696425
EXTRACT: note_off channel=8 note=32 velocity=127 time=0.06696425
EXTRACT: note_off channel=3 note=78 velocity=127 time=0
EXTRACT: note_off channel=3 note=75 velocity=127 time=0
EXTRACT: note_on channel=3 note=75 velocity=127 time=0
EXTRACT: note_off channel=9 note=54 velocity=127 time=0
EXTRACT: note_on channel=9 note=44 velocity=127 time=0
EXTRACT: note_on channel=9 note=81 velocity=127 time=0
EXTRACT: note_on channel=9 note=54 velocity=127 time=0
EXTRACT: note_off channel=9 note=44 velocity=127 time=0.1339285
EXTRACT: note_off channel=9 note=81 velocity=127 time=0
EXTRACT: note_off channel=9 note=54 velocity=127 time=0
EXTRACT: note_on channel=9 note=54 velocity=127 time=0
EXTRACT: note_on channel=2 note=78 velocity=127 time=0.1339285
EXTRACT: note_on channel=2 note=75 velocity=127 time=0
EXTRACT: note_on channel=2 note=70 velocity=95 time=0
EXTRACT: note_off channel=3 note=75 velocity=127 time=0
EXTRACT: note_on channel=6 note=78 velocity=95 time=0
EXTRACT: note_off channel=9 note=54 velocity=127 time=0
EXTRACT: note_on channel=9 note=38 velocity=127 time=0
EXTRACT: note_on channel=9 note=39 velocity=95 time=0
EXTRACT: note_on channel=9 note=54 velocity=127 time=0
EXTRACT: note_off channel=9 note=38 velocity=127 time=0.1339285
EXTRACT: note_off channel=9 note=39 velocity=95 time=0
EXTRACT: note_off channel=9 note=54 velocity=127 time=0
EXTRACT: note_on channel=9 note=54 velocity=127 time=0
EXTRACT: note_off channel=6 note=78 velocity=95 time=0.06696425
EXTRACT: note_off channel=2 note=78 velocity=127 time=0.06696425
EXTRACT: note_off channel=2 note=75 velocity=127 time=0
EXTRACT: note_off channel=2 note=70 velocity=95 time=0
EXTRACT: note_on channel=8 note=32 velocity=127 time=0
EXTRACT: note_off channel=9 note=54 velocity=127 time=0
EXTRACT: note_on channel=9 note=44 velocity=127 time=0
EXTRACT: note_on channel=9 note=81 velocity=127 time=0
EXTRACT: note_on channel=9 note=54 velocity=127 time=0
EXTRACT: note_off channel=9 note=44 velocity=127 time=0.1339285
EXTRACT: note_off channel=9 note=81 velocity=127 time=0
EXTRACT: note_off channel=9 note=54 velocity=127 time=0
EXTRACT: note_on channel=9 note=44 velocity=127 time=0
EXTRACT: note_on channel=9 note=54 velocity=127 time=0
EXTRACT: note_off channel=0 note=59 velocity=95 time=0.1339285
EXTRACT: note_off channel=0 note=54 velocity=95 time=0
EXTRACT: note_off channel=0 note=47 velocity=95 time=0
EXTRACT: note_on channel=0 note=52 velocity=95 time=0
EXTRACT: note_on channel=0 note=47 velocity=95 time=0
EXTRACT: note_on channel=0 note=40 velocity=95 time=0
EXTRACT: note_off channel=8 note=32 velocity=127 time=0
EXTRACT: note_on channel=8 note=27 velocity=127 time=0
EXTRACT: note_on channel=3 note=78 velocity=127 time=0
EXTRACT: note_off channel=4 note=71 velocity=95 time=0
EXTRACT: note_off channel=4 note=66 velocity=95 time=0
EXTRACT: note_off channel=4 note=63 velocity=95 time=0
EXTRACT: note_off channel=4 note=59 velocity=95 time=0
EXTRACT: note_on channel=4 note=68 velocity=95 time=0
EXTRACT: note_on channel=4 note=64 velocity=95 time=0
EXTRACT: note_on channel=4 note=59 velocity=95 time=0
EXTRACT: note_on channel=4 note=56 velocity=95 time=0
EXTRACT: note_off channel=5 note=71 velocity=95 time=0
EXTRACT: note_off channel=5 note=66 velocity=95 time=0
EXTRACT: note_off channel=5 note=63 velocity=95 time=0
EXTRACT: note_off channel=5 note=59 velocity=95 time=0
EXTRACT: note_on channel=5 note=68 velocity=95 time=0
EXTRACT: note_on channel=5 note=64 velocity=95 time=0
EXTRACT: note_on channel=5 note=59 velocity=95 time=0
EXTRACT: note_on channel=5 note=56 velocity=95 time=0
EXTRACT: note_on channel=6 note=78 velocity=95 time=0
EXTRACT: note_off channel=9 note=44 velocity=127 time=0
EXTRACT: note_off channel=9 note=54 velocity=127 time=0
EXTRACT: note_on channel=9 note=44 velocity=127 time=0
EXTRACT: note_on channel=9 note=54 velocity=127 time=0
EXTRACT: note_on channel=9 note=35 velocity=127 time=0
EXTRACT: note_off channel=3 note=78 velocity=127 time=0.1339285
EXTRACT: note_on channel=3 note=78 velocity=127 time=0
EXTRACT: note_off channel=9 note=44 velocity=127 time=0
EXTRACT: note_off channel=9 note=54 velocity=127 time=0
EXTRACT: note_off channel=9 note=35 velocity=127 time=0
EXTRACT: note_on channel=9 note=54 velocity=127 time=0
EXTRACT: note_off channel=6 note=78 velocity=95 time=0.06696425
EXTRACT: note_off channel=8 note=27 velocity=127 time=0.06696425
EXTRACT: note_off channel=3 note=78 velocity=127 time=0
EXTRACT: note_on channel=3 note=78 velocity=127 time=0
EXTRACT: note_off channel=9 note=54 velocity=127 time=0
EXTRACT: note_on channel=9 note=44 velocity=127 time=0
EXTRACT: note_on channel=9 note=81 velocity=127 time=0
EXTRACT: note_on channel=9 note=54 velocity=127 time=0
EXTRACT: note_off channel=3 note=78 velocity=127 time=0.1339285
EXTRACT: note_on channel=3 note=78 velocity=127 time=0
EXTRACT: note_off channel=9 note=44 velocity=127 time=0
EXTRACT: note_off channel=9 note=81 velocity=127 time=0
EXTRACT: note_off channel=9 note=54 velocity=127 time=0
EXTRACT: note_on channel=9 note=54 velocity=127 time=0
EXTRACT: note_off channel=3 note=78 velocity=127 time=0.1339285
EXTRACT: note_on channel=3 note=78 velocity=127 time=0
EXTRACT: note_on channel=6 note=78 velocity=95 time=0
EXTRACT: note_off channel=9 note=54 velocity=127 time=0
EXTRACT: note_on channel=9 note=38 velocity=127 time=0
EXTRACT: note_on channel=9 note=39 velocity=95 time=0
EXTRACT: note_on channel=9 note=54 velocity=127 time=0
EXTRACT: note_off channel=9 note=38 velocity=127 time=0.1339285
EXTRACT: note_off channel=9 note=39 velocity=95 time=0
EXTRACT: note_off channel=9 note=54 velocity=127 time=0
EXTRACT: note_on channel=9 note=54 velocity=127 time=0
EXTRACT: note_off channel=6 note=78 velocity=95 time=0.06696425
EXTRACT: note_off channel=0 note=52 velocity=95 time=0.06696425
EXTRACT: note_off channel=0 note=47 velocity=95 time=0
EXTRACT: note_off channel=0 note=40 velocity=95 time=0
EXTRACT: note_on channel=0 note=59 velocity=95 time=0
EXTRACT: note_on channel=0 note=54 velocity=95 time=0
EXTRACT: note_on channel=0 note=47 velocity=95 time=0
EXTRACT: note_on channel=8 note=27 velocity=127 time=0
EXTRACT: note_off channel=3 note=78 velocity=127 time=0
EXTRACT: note_on channel=3 note=78 velocity=127 time=0
EXTRACT: note_off channel=4 note=68 velocity=95 time=0
EXTRACT: note_off channel=4 note=64 velocity=95 time=0
EXTRACT: note_off channel=4 note=59 velocity=95 time=0
EXTRACT: note_off channel=4 note=56 velocity=95 time=0
EXTRACT: note_on channel=4 note=71 velocity=95 time=0
EXTRACT: note_on channel=4 note=66 velocity=95 time=0
EXTRACT: note_on channel=4 note=63 velocity=95 time=0
EXTRACT: note_on channel=4 note=59 velocity=95 time=0
EXTRACT: note_off channel=5 note=68 velocity=95 time=0
EXTRACT: note_off channel=5 note=64 velocity=95 time=0
EXTRACT: note_off channel=5 note=59 velocity=95 time=0
EXTRACT: note_off channel=5 note=56 velocity=95 time=0
EXTRACT: note_on channel=5 note=71 velocity=95 time=0
EXTRACT: note_on channel=5 note=66 velocity=95 time=0
EXTRACT: note_on channel=5 note=63 velocity=95 time=0
EXTRACT: note_on channel=5 note=59 velocity=95 time=0
EXTRACT: note_off channel=9 note=54 velocity=127 time=0
EXTRACT: note_on channel=9 note=44 velocity=127 time=0
EXTRACT: note_on channel=9 note=81 velocity=127 time=0
EXTRACT: note_on channel=9 note=54 velocity=127 time=0
EXTRACT: note_off channel=3 note=78 velocity=127 time=0.1339285
EXTRACT: note_on channel=3 note=76 velocity=127 time=0
EXTRACT: note_off channel=9 note=44 velocity=127 time=0
EXTRACT: note_off channel=9 note=81 velocity=127 time=0
EXTRACT: note_off channel=9 note=54 velocity=127 time=0
EXTRACT: note_on channel=9 note=54 velocity=127 time=0
EXTRACT: note_off channel=8 note=27 velocity=127 time=0.1339285
EXTRACT: note_on channel=8 note=35 velocity=127 time=0
EXTRACT: note_on channel=6 note=78 velocity=95 time=0
EXTRACT: note_off channel=9 note=54 velocity=127 time=0
EXTRACT: note_on channel=9 note=44 velocity=127 time=0
EXTRACT: note_on channel=9 note=54 velocity=127 time=0
EXTRACT: note_on channel=9 note=35 velocity=127 time=0
EXTRACT: note_off channel=8 note=35 velocity=127 time=0.1339285
EXTRACT: note_on channel=8 note=30 velocity=127 time=0
EXTRACT: note_off channel=3 note=76 velocity=127 time=0
EXTRACT: note_on channel=3 note=78 velocity=127 time=0
EXTRACT: note_off channel=9 note=44 velocity=127 time=0
EXTRACT: note_off channel=9 note=54 velocity=127 time=0
EXTRACT: note_off channel=9 note=35 velocity=127 time=0
EXTRACT: note_on channel=9 note=54 velocity=127 time=0
EXTRACT: note_off channel=6 note=78 velocity=95 time=0.06696425
EXTRACT: note_off channel=3 note=78 velocity=127 time=0.06696425
EXTRACT: note_on channel=3 note=76 velocity=127 time=0
EXTRACT: note_off channel=9 note=54 velocity=127 time=0
EXTRACT: note_on channel=9 note=44 velocity=127 time=0
EXTRACT: note_on channel=9 note=81 velocity=127 time=0
EXTRACT: note_on channel=9 note=54 velocity=127 time=0
EXTRACT: note_off channel=8 note=30 velocity=127 time=0.1339285
EXTRACT: note_on channel=8 note=35 velocity=127 time=0
EXTRACT: note_off channel=3 note=76 velocity=127 time=0
EXTRACT: note_on channel=3 note=75 velocity=127 time=0
EXTRACT: note_off channel=9 note=44 velocity=127 time=0
EXTRACT: note_off channel=9 note=81 velocity=127 time=0
EXTRACT: note_off channel=9 note=54 velocity=127 time=0
EXTRACT: note_on channel=9 note=54 velocity=127 time=0
EXTRACT: note_on channel=2 note=78 velocity=127 time=0.1339285
EXTRACT: note_on channel=2 note=75 velocity=127 time=0
EXTRACT: note_on channel=2 note=70 velocity=95 time=0
EXTRACT: note_off channel=8 note=35 velocity=127 time=0
EXTRACT: note_on channel=8 note=30 velocity=127 time=0
EXTRACT: note_off channel=3 note=75 velocity=127 time=0
EXTRACT: note_on channel=3 note=73 velocity=127 time=0
EXTRACT: note_on channel=6 note=78 velocity=95 time=0
EXTRACT: note_off channel=9 note=54 velocity=127 time=0
EXTRACT: note_on channel=9 note=38 velocity=127 time=0
EXTRACT: note_on channel=9 note=39 velocity=95 time=0
EXTRACT: note_on channel=9 note=54 velocity=127 time=0
EXTRACT: note_off channel=9 note=38 velocity=127 time=0.1339285
EXTRACT: note_off channel=9 note=39 velocity=95 time=0
EXTRACT: note_off channel=9 note=54 velocity=127 time=0
EXTRACT: note_on channel=9 note=54 velocity=127 time=0
EXTRACT: note_off channel=6 note=78 velocity=95 time=0.06696425
EXTRACT: note_off channel=2 note=78 velocity=127 time=0.06696425
EXTRACT: note_off channel=2 note=75 velocity=127 time=0
EXTRACT: note_off channel=2 note=70 velocity=95 time=0
EXTRACT: note_off channel=8 note=30 velocity=127 time=0
EXTRACT: note_on channel=8 note=35 velocity=127 time=0
EXTRACT: note_off channel=3 note=73 velocity=127 time=0
EXTRACT: note_off channel=9 note=54 velocity=127 time=0
EXTRACT: note_on channel=9 note=44 velocity=127 time=0
EXTRACT: note_on channel=9 note=81 velocity=127 time=0
EXTRACT: note_on channel=9 note=54 velocity=127 time=0
EXTRACT: note_off channel=9 note=44 velocity=127 time=0.1339285
EXTRACT: note_off channel=9 note=81 velocity=127 time=0
EXTRACT: note_off channel=9 note=54 velocity=127 time=0
EXTRACT: note_on channel=9 note=44 velocity=127 time=0
EXTRACT: note_on channel=9 note=54 velocity=127 time=0
EXTRACT: note_off channel=0 note=59 velocity=95 time=0.1339285
EXTRACT: note_off channel=0 note=54 velocity=95 time=0
EXTRACT: note_off channel=0 note=47 velocity=95 time=0
EXTRACT: note_on channel=0 note=54 velocity=95 time=0
EXTRACT: note_on channel=0 note=49 velocity=95 time=0
EXTRACT: note_on channel=0 note=42 velocity=95 time=0
EXTRACT: note_off channel=8 note=35 velocity=127 time=0
EXTRACT: note_on channel=8 note=30 velocity=127 time=0
EXTRACT: note_on channel=3 note=82 velocity=127 time=0
EXTRACT: note_on channel=3 note=78 velocity=127 time=0
EXTRACT: note_on channel=3 note=70 velocity=127 time=0
EXTRACT: note_off channel=4 note=71 velocity=95 time=0
EXTRACT: note_off channel=4 note=66 velocity=95 time=0
EXTRACT: note_off channel=4 note=63 velocity=95 time=0
EXTRACT: note_off channel=4 note=59 velocity=95 time=0
EXTRACT: note_on channel=4 note=70 velocity=95 time=0
EXTRACT: note_on channel=4 note=66 velocity=95 time=0
EXTRACT: note_on channel=4 note=61 velocity=95 time=0
EXTRACT: note_on channel=4 note=58 velocity=95 time=0
EXTRACT: note_off channel=5 note=71 velocity=95 time=0
EXTRACT: note_off channel=5 note=66 velocity=95 time=0
EXTRACT: note_off channel=5 note=63 velocity=95 time=0
EXTRACT: note_off channel=5 note=59 velocity=95 time=0
EXTRACT: note_on channel=5 note=70 velocity=95 time=0
EXTRACT: note_on channel=5 note=66 velocity=95 time=0
EXTRACT: note_on channel=5 note=61 velocity=95 time=0
EXTRACT: note_on channel=5 note=58 velocity=95 time=0
EXTRACT: note_on channel=6 note=78 velocity=95 time=0
EXTRACT: note_off channel=9 note=44 velocity=127 time=0
EXTRACT: note_off channel=9 note=54 velocity=127 time=0
EXTRACT: note_on channel=9 note=44 velocity=127 time=0
EXTRACT: note_on channel=9 note=54 velocity=127 time=0
EXTRACT: note_on channel=9 note=35 velocity=127 time=0
EXTRACT: note_off channel=3 note=82 velocity=127 time=0.1339285
EXTRACT: note_off channel=3 note=78 velocity=127 time=0
EXTRACT: note_off channel=3 note=70 velocity=127 time=0
EXTRACT: note_on channel=3 note=82 velocity=127 time=0
EXTRACT: note_on channel=3 note=78 velocity=127 time=0
EXTRACT: note_on channel=3 note=70 velocity=127 time=0
EXTRACT: note_off channel=9 note=44 velocity=127 time=0
EXTRACT: note_off channel=9 note=54 velocity=127 time=0
EXTRACT: note_off channel=9 note=35 velocity=127 time=0
EXTRACT: note_on channel=9 note=54 velocity=127 time=0
EXTRACT: note_off channel=6 note=78 velocity=95 time=0.06696425
EXTRACT: note_off channel=8 note=30 velocity=127 time=0.06696425
EXTRACT: note_off channel=3 note=82 velocity=127 time=0
EXTRACT: note_off channel=3 note=78 velocity=127 time=0
EXTRACT: note_off channel=3 note=70 velocity=127 time=0
EXTRACT: note_on channel=3 note=82 velocity=127 time=0
EXTRACT: note_on channel=3 note=78 velocity=127 time=0
EXTRACT: note_on channel=3 note=70 velocity=127 time=0
EXTRACT: note_off channel=9 note=54 velocity=127 time=0
EXTRACT: note_on channel=9 note=44 velocity=127 time=0
EXTRACT: note_on channel=9 note=81 velocity=127 time=0
EXTRACT: note_on channel=9 note=54 velocity=127 time=0
EXTRACT: note_off channel=3 note=82 velocity=127 time=0.1339285
EXTRACT: note_off channel=3 note=78 velocity=127 time=0
EXTRACT: note_off channel=3 note=70 velocity=127 time=0
EXTRACT: note_on channel=3 note=82 velocity=127 time=0
EXTRACT: note_on channel=3 note=78 velocity=127 time=0
EXTRACT: note_on channel=3 note=70 velocity=127 time=0
EXTRACT: note_off channel=9 note=44 velocity=127 time=0
EXTRACT: note_off channel=9 note=81 velocity=127 time=0
EXTRACT: note_off channel=9 note=54 velocity=127 time=0
EXTRACT: note_on channel=9 note=54 velocity=127 time=0
EXTRACT: note_off channel=3 note=82 velocity=127 time=0.1339285
EXTRACT: note_off channel=3 note=78 velocity=127 time=0
EXTRACT: note_off channel=3 note=70 velocity=127 time=0
EXTRACT: note_on channel=3 note=82 velocity=127 time=0
EXTRACT: note_on channel=3 note=78 velocity=127 time=0
EXTRACT: note_on channel=3 note=70 velocity=127 time=0
EXTRACT: note_on channel=6 note=78 velocity=95 time=0
EXTRACT: note_off channel=9 note=54 velocity=127 time=0
EXTRACT: note_on channel=9 note=38 velocity=127 time=0
EXTRACT: note_on channel=9 note=39 velocity=95 time=0
EXTRACT: note_on channel=9 note=54 velocity=127 time=0
EXTRACT: note_off channel=9 note=38 velocity=127 time=0.1339285
EXTRACT: note_off channel=9 note=39 velocity=95 time=0
EXTRACT: note_off channel=9 note=54 velocity=127 time=0
EXTRACT: note_on channel=9 note=54 velocity=127 time=0
EXTRACT: note_off channel=6 note=78 velocity=95 time=0.06696425
EXTRACT: note_off channel=0 note=54 velocity=95 time=0.06696425
EXTRACT: note_off channel=0 note=49 velocity=95 time=0
EXTRACT: note_off channel=0 note=42 velocity=95 time=0
EXTRACT: note_on channel=0 note=59 velocity=95 time=0
EXTRACT: note_on channel=0 note=54 velocity=95 time=0
EXTRACT: note_on channel=0 note=47 velocity=95 time=0
EXTRACT: note_on channel=8 note=30 velocity=127 time=0
EXTRACT: note_off channel=3 note=82 velocity=127 time=0
EXTRACT: note_off channel=3 note=78 velocity=127 time=0
EXTRACT: note_off channel=3 note=70 velocity=127 time=0
EXTRACT: note_on channel=3 note=82 velocity=127 time=0
EXTRACT: note_on channel=3 note=78 velocity=127 time=0
EXTRACT: note_on channel=3 note=70 velocity=127 time=0
EXTRACT: note_off channel=4 note=70 velocity=95 time=0
EXTRACT: note_off channel=4 note=66 velocity=95 time=0
EXTRACT: note_off channel=4 note=61 velocity=95 time=0
EXTRACT: note_off channel=4 note=58 velocity=95 time=0
EXTRACT: note_on channel=4 note=71 velocity=95 time=0
EXTRACT: note_on channel=4 note=66 velocity=95 time=0
EXTRACT: note_on channel=4 note=63 velocity=95 time=0
EXTRACT: note_on channel=4 note=59 velocity=95 time=0
EXTRACT: note_off channel=5 note=70 velocity=95 time=0
EXTRACT: note_off channel=5 note=66 velocity=95 time=0
EXTRACT: note_off channel=5 note=61 velocity=95 time=0
EXTRACT: note_off channel=5 note=58 velocity=95 time=0
EXTRACT: note_on channel=5 note=71 velocity=95 time=0
EXTRACT: note_on channel=5 note=66 velocity=95 time=0
EXTRACT: note_on channel=5 note=63 velocity=95 time=0
EXTRACT: note_on channel=5 note=59 velocity=95 time=0
EXTRACT: note_off channel=9 note=54 velocity=127 time=0
EXTRACT: note_on channel=9 note=44 velocity=127 time=0
EXTRACT: note_on channel=9 note=81 velocity=127 time=0
EXTRACT: note_on channel=9 note=54 velocity=127 time=0
EXTRACT: note_off channel=3 note=82 velocity=127 time=0.1339285
EXTRACT: note_off channel=3 note=78 velocity=127 time=0
EXTRACT: note_off channel=3 note=70 velocity=127 time=0
EXTRACT: note_on channel=3 note=80 velocity=127 time=0
EXTRACT: note_on channel=3 note=76 velocity=127 time=0
EXTRACT: note_on channel=3 note=68 velocity=127 time=0
EXTRACT: note_off channel=9 note=44 velocity=127 time=0
EXTRACT: note_off channel=9 note=81 velocity=127 time=0
EXTRACT: note_off channel=9 note=54 velocity=127 time=0
EXTRACT: note_on channel=9 note=54 velocity=127 time=0
EXTRACT: note_off channel=8 note=30 velocity=127 time=0.1339285
EXTRACT: note_on channel=8 note=32 velocity=127 time=0
EXTRACT: note_on channel=6 note=78 velocity=95 time=0
EXTRACT: note_off channel=9 note=54 velocity=127 time=0
EXTRACT: note_on channel=9 note=44 velocity=127 time=0
EXTRACT: note_on channel=9 note=54 velocity=127 time=0
EXTRACT: note_on channel=9 note=35 velocity=127 time=0
EXTRACT: note_off channel=3 note=80 velocity=127 time=0.1339285
EXTRACT: note_off channel=3 note=76 velocity=127 time=0
EXTRACT: note_off channel=3 note=68 velocity=127 time=0
EXTRACT: note_on channel=3 note=82 velocity=127 time=0
EXTRACT: note_on channel=3 note=78 velocity=127 time=0
EXTRACT: note_on channel=3 note=70 velocity=127 time=0
EXTRACT: note_off channel=9 note=44 velocity=127 time=0
EXTRACT: note_off channel=9 note=54 velocity=127 time=0
EXTRACT: note_off channel=9 note=35 velocity=127 time=0
EXTRACT: note_on channel=9 note=54 velocity=127 time=0
EXTRACT: note_off channel=6 note=78 velocity=95 time=0.06696425
EXTRACT: note_off channel=8 note=32 velocity=127 time=0.06696425
EXTRACT: note_off channel=3 note=82 velocity=127 time=0
EXTRACT: note_off channel=3 note=78 velocity=127 time=0
EXTRACT: note_off channel=3 note=70 velocity=127 time=0
EXTRACT: note_on channel=3 note=80 velocity=127 time=0
EXTRACT: note_on channel=3 note=76 velocity=127 time=0
EXTRACT: note_on channel=3 note=68 velocity=127 time=0
EXTRACT: note_off channel=9 note=54 velocity=127 time=0
EXTRACT: note_on channel=9 note=44 velocity=127 time=0
EXTRACT: note_on channel=9 note=81 velocity=127 time=0
EXTRACT: note_on channel=9 note=54 velocity=127 time=0
EXTRACT: note_off channel=3 note=80 velocity=127 time=0.1339285
EXTRACT: note_off channel=3 note=76 velocity=127 time=0
EXTRACT: note_off channel=3 note=68 velocity=127 time=0
EXTRACT: note_on channel=3 note=78 velocity=127 time=0
EXTRACT: note_on channel=3 note=75 velocity=127 time=0
EXTRACT: note_on channel=3 note=66 velocity=127 time=0
EXTRACT: note_off channel=9 note=44 velocity=127 time=0
EXTRACT: note_off channel=9 note=81 velocity=127 time=0
EXTRACT: note_off channel=9 note=54 velocity=127 time=0
EXTRACT: note_on channel=9 note=54 velocity=127 time=0
EXTRACT: note_on channel=2 note=78 velocity=127 time=0.1339285
EXTRACT: note_on channel=2 note=75 velocity=127 time=0
EXTRACT: note_on channel=2 note=70 velocity=95 time=0
EXTRACT: note_off channel=3 note=78 velocity=127 time=0
EXTRACT: note_off channel=3 note=75 velocity=127 time=0
EXTRACT: note_off channel=3 note=66 velocity=127 time=0
EXTRACT: note_on channel=3 note=78 velocity=127 time=0
EXTRACT: note_on channel=3 note=73 velocity=127 time=0
EXTRACT: note_on channel=3 note=66 velocity=127 time=0
EXTRACT: note_on channel=6 note=78 velocity=95 time=0
EXTRACT: note_off channel=9 note=54 velocity=127 time=0
EXTRACT: note_on channel=9 note=38 velocity=127 time=0
EXTRACT: note_on channel=9 note=39 velocity=95 time=0
EXTRACT: note_on channel=9 note=54 velocity=127 time=0
EXTRACT: note_off channel=9 note=38 velocity=127 time=0.1339285
EXTRACT: note_off channel=9 note=39 velocity=95 time=0
EXTRACT: note_off channel=9 note=54 velocity=127 time=0
EXTRACT: note_on channel=9 note=54 velocity=127 time=0
EXTRACT: note_off channel=6 note=78 velocity=95 time=0.06696425
EXTRACT: note_off channel=2 note=78 velocity=127 time=0.06696425
EXTRACT: note_off channel=2 note=75 velocity=127 time=0
EXTRACT: note_off channel=2 note=70 velocity=95 time=0
EXTRACT: note_on channel=8 note=32 velocity=127 time=0
EXTRACT: note_off channel=3 note=78 velocity=127 time=0
EXTRACT: note_off channel=3 note=73 velocity=127 time=0
EXTRACT: note_off channel=3 note=66 velocity=127 time=0
EXTRACT: note_off channel=9 note=54 velocity=127 time=0
EXTRACT: note_on channel=9 note=44 velocity=127 time=0
EXTRACT: note_on channel=9 note=81 velocity=127 time=0
EXTRACT: note_on channel=9 note=54 velocity=127 time=0
EXTRACT: note_off channel=9 note=44 velocity=127 time=0.1339285
EXTRACT: note_off channel=9 note=81 velocity=127 time=0
EXTRACT: note_off channel=9 note=54 velocity=127 time=0
EXTRACT: note_on channel=9 note=44 velocity=127 time=0
EXTRACT: note_on channel=9 note=54 velocity=127 time=0
EXTRACT: note_off channel=0 note=59 velocity=95 time=0.1339285
EXTRACT: note_off channel=0 note=54 velocity=95 time=0
EXTRACT: note_off channel=0 note=47 velocity=95 time=0
EXTRACT: note_on channel=0 note=52 velocity=95 time=0
EXTRACT: note_on channel=0 note=47 velocity=95 time=0
EXTRACT: note_on channel=0 note=40 velocity=95 time=0
EXTRACT: note_off channel=8 note=32 velocity=127 time=0
EXTRACT: note_on channel=8 note=27 velocity=127 time=0
EXTRACT: note_off channel=4 note=71 velocity=95 time=0
EXTRACT: note_off channel=4 note=66 velocity=95 time=0
EXTRACT: note_off channel=4 note=63 velocity=95 time=0
EXTRACT: note_off channel=4 note=59 velocity=95 time=0
EXTRACT: note_on channel=4 note=68 velocity=95 time=0
EXTRACT: note_on channel=4 note=64 velocity=95 time=0
EXTRACT: note_on channel=4 note=59 velocity=95 time=0
EXTRACT: note_on channel=4 note=56 velocity=95 time=0
EXTRACT: note_off channel=5 note=71 velocity=95 time=0
EXTRACT: note_off channel=5 note=66 velocity=95 time=0
EXTRACT: note_off channel=5 note=63 velocity=95 time=0
EXTRACT: note_off channel=5 note=59 velocity=95 time=0
EXTRACT: note_on channel=5 note=68 velocity=95 time=0
EXTRACT: note_on channel=5 note=64 velocity=95 time=0
EXTRACT: note_on channel=5 note=59 velocity=95 time=0
EXTRACT: note_on channel=5 note=56 velocity=95 time=0
EXTRACT: note_on channel=6 note=78 velocity=95 time=0
EXTRACT: note_off channel=9 note=44 velocity=127 time=0
EXTRACT: note_off channel=9 note=54 velocity=127 time=0
EXTRACT: note_on channel=9 note=44 velocity=127 time=0
EXTRACT: note_on channel=9 note=54 velocity=127 time=0
EXTRACT: note_on channel=9 note=35 velocity=127 time=0
EXTRACT: note_off channel=9 note=44 velocity=127 time=0.1339285
EXTRACT: note_off channel=9 note=54 velocity=127 time=0
EXTRACT: note_off channel=9 note=35 velocity=127 time=0
EXTRACT: note_on channel=9 note=54 velocity=127 time=0
EXTRACT: note_off channel=6 note=78 velocity=95 time=0.06696425
EXTRACT: note_off channel=8 note=27 velocity=127 time=0.06696425
EXTRACT: note_off channel=9 note=54 velocity=127 time=0
EXTRACT: note_on channel=9 note=44 velocity=127 time=0
EXTRACT: note_on channel=9 note=81 velocity=127 time=0
EXTRACT: note_on channel=9 note=54 velocity=127 time=0
EXTRACT: note_off channel=9 note=44 velocity=127 time=0.1339285
EXTRACT: note_off channel=9 note=81 velocity=127 time=0
EXTRACT: note_off channel=9 note=54 velocity=127 time=0
EXTRACT: note_on channel=9 note=54 velocity=127 time=0
EXTRACT: note_on channel=6 note=78 velocity=95 time=0.1339285
EXTRACT: note_off channel=9 note=54 velocity=127 time=0
EXTRACT: note_on channel=9 note=38 velocity=127 time=0
EXTRACT: note_on channel=9 note=39 velocity=95 time=0
EXTRACT: note_on channel=9 note=54 velocity=127 time=0
EXTRACT: note_off channel=9 note=38 velocity=127 time=0.1339285
EXTRACT: note_off channel=9 note=39 velocity=95 time=0
EXTRACT: note_off channel=9 note=54 velocity=127 time=0
EXTRACT: note_on channel=9 note=54 velocity=127 time=0
EXTRACT: note_off channel=6 note=78 velocity=95 time=0.06696425
EXTRACT: note_off channel=0 note=52 velocity=95 time=0.06696425
EXTRACT: note_off channel=0 note=47 velocity=95 time=0
EXTRACT: note_off channel=0 note=40 velocity=95 time=0
EXTRACT: note_on channel=0 note=59 velocity=95 time=0
EXTRACT: note_on channel=0 note=54 velocity=95 time=0
EXTRACT: note_on channel=0 note=47 velocity=95 time=0
EXTRACT: note_on channel=8 note=27 velocity=127 time=0
EXTRACT: note_off channel=4 note=68 velocity=95 time=0
EXTRACT: note_off channel=4 note=64 velocity=95 time=0
EXTRACT: note_off channel=4 note=59 velocity=95 time=0
EXTRACT: note_off channel=4 note=56 velocity=95 time=0
EXTRACT: note_on channel=4 note=71 velocity=95 time=0
EXTRACT: note_on channel=4 note=66 velocity=95 time=0
EXTRACT: note_on channel=4 note=63 velocity=95 time=0
EXTRACT: note_on channel=4 note=59 velocity=95 time=0
EXTRACT: note_off channel=5 note=68 velocity=95 time=0
EXTRACT: note_off channel=5 note=64 velocity=95 time=0
EXTRACT: note_off channel=5 note=59 velocity=95 time=0
EXTRACT: note_off channel=5 note=56 velocity=95 time=0
EXTRACT: note_on channel=5 note=71 velocity=95 time=0
EXTRACT: note_on channel=5 note=66 velocity=95 time=0
EXTRACT: note_on channel=5 note=63 velocity=95 time=0
EXTRACT: note_on channel=5 note=59 velocity=95 time=0
EXTRACT: note_off channel=9 note=54 velocity=127 time=0
EXTRACT: note_on channel=9 note=44 velocity=127 time=0
EXTRACT: note_on channel=9 note=81 velocity=127 time=0
EXTRACT: note_on channel=9 note=54 velocity=127 time=0
EXTRACT: note_off channel=9 note=44 velocity=127 time=0.1339285
EXTRACT: note_off channel=9 note=81 velocity=127 time=0
EXTRACT: note_off channel=9 note=54 velocity=127 time=0
EXTRACT: note_on channel=9 note=54 velocity=127 time=0
EXTRACT: note_off channel=8 note=27 velocity=127 time=0.1339285
EXTRACT: note_on channel=8 note=35 velocity=127 time=0
EXTRACT: note_on channel=6 note=78 velocity=95 time=0
EXTRACT: note_off channel=9 note=54 velocity=127 time=0
EXTRACT: note_on channel=9 note=44 velocity=127 time=0
EXTRACT: note_on channel=9 note=54 velocity=127 time=0
EXTRACT: note_on channel=9 note=35 velocity=127 time=0
EXTRACT: note_off channel=8 note=35 velocity=127 time=0.1339285
EXTRACT: note_on channel=8 note=30 velocity=127 time=0
EXTRACT: note_off channel=9 note=44 velocity=127 time=0
EXTRACT: note_off channel=9 note=54 velocity=127 time=0
EXTRACT: note_off channel=9 note=35 velocity=127 time=0
EXTRACT: note_on channel=9 note=54 velocity=127 time=0
EXTRACT: note_off channel=6 note=78 velocity=95 time=0.06696425
EXTRACT: note_off channel=9 note=54 velocity=127 time=0.06696425
EXTRACT: note_on channel=9 note=44 velocity=127 time=0
EXTRACT: note_on channel=9 note=81 velocity=127 time=0
EXTRACT: note_on channel=9 note=54 velocity=127 time=0
EXTRACT: note_off channel=8 note=30 velocity=127 time=0.1339285
EXTRACT: note_on channel=8 note=35 velocity=127 time=0
EXTRACT: note_off channel=9 note=44 velocity=127 time=0
EXTRACT: note_off channel=9 note=81 velocity=127 time=0
EXTRACT: note_off channel=9 note=54 velocity=127 time=0
EXTRACT: note_on channel=9 note=54 velocity=127 time=0
EXTRACT: note_on channel=2 note=78 velocity=127 time=0.1339285
EXTRACT: note_on channel=2 note=75 velocity=127 time=0
EXTRACT: note_on channel=2 note=70 velocity=95 time=0
EXTRACT: note_off channel=8 note=35 velocity=127 time=0
EXTRACT: note_on channel=8 note=30 velocity=127 time=0
EXTRACT: note_on channel=6 note=78 velocity=95 time=0
EXTRACT: note_off channel=9 note=54 velocity=127 time=0
EXTRACT: note_on channel=9 note=38 velocity=127 time=0
EXTRACT: note_on channel=9 note=39 velocity=95 time=0
EXTRACT: note_on channel=9 note=54 velocity=127 time=0
EXTRACT: note_off channel=9 note=38 velocity=127 time=0.1339285
EXTRACT: note_off channel=9 note=39 velocity=95 time=0
EXTRACT: note_off channel=9 note=54 velocity=127 time=0
EXTRACT: note_on channel=9 note=54 velocity=127 time=0
EXTRACT: note_off channel=6 note=78 velocity=95 time=0.06696425
EXTRACT: note_off channel=2 note=78 velocity=127 time=0.06696425
EXTRACT: note_off channel=2 note=75 velocity=127 time=0
EXTRACT: note_off channel=2 note=70 velocity=95 time=0
EXTRACT: note_off channel=8 note=30 velocity=127 time=0
EXTRACT: note_on channel=8 note=35 velocity=127 time=0
EXTRACT: note_off channel=9 note=54 velocity=127 time=0
EXTRACT: note_on channel=9 note=44 velocity=127 time=0
EXTRACT: note_on channel=9 note=81 velocity=127 time=0
EXTRACT: note_on channel=9 note=54 velocity=127 time=0
EXTRACT: note_off channel=9 note=44 velocity=127 time=0.1339285
EXTRACT: note_off channel=9 note=81 velocity=127 time=0
EXTRACT: note_off channel=9 note=54 velocity=127 time=0
EXTRACT: note_on channel=9 note=44 velocity=127 time=0
EXTRACT: note_on channel=9 note=54 velocity=127 time=0
EXTRACT: note_off channel=0 note=59 velocity=95 time=0.1339285
EXTRACT: note_off channel=0 note=54 velocity=95 time=0
EXTRACT: note_off channel=0 note=47 velocity=95 time=0
EXTRACT: note_on channel=0 note=54 velocity=95 time=0
EXTRACT: note_on channel=0 note=49 velocity=95 time=0
EXTRACT: note_on channel=0 note=42 velocity=95 time=0
EXTRACT: note_off channel=8 note=35 velocity=127 time=0
EXTRACT: note_on channel=8 note=30 velocity=127 time=0
EXTRACT: note_on channel=3 note=78 velocity=127 time=0
EXTRACT: note_off channel=4 note=71 velocity=95 time=0
EXTRACT: note_off channel=4 note=66 velocity=95 time=0
EXTRACT: note_off channel=4 note=63 velocity=95 time=0
EXTRACT: note_off channel=4 note=59 velocity=95 time=0
EXTRACT: note_on channel=4 note=70 velocity=95 time=0
EXTRACT: note_on channel=4 note=66 velocity=95 time=0
EXTRACT: note_on channel=4 note=61 velocity=95 time=0
EXTRACT: note_on channel=4 note=58 velocity=95 time=0
EXTRACT: note_off channel=5 note=71 velocity=95 time=0
EXTRACT: note_off channel=5 note=66 velocity=95 time=0
EXTRACT: note_off channel=5 note=63 velocity=95 time=0
EXTRACT: note_off channel=5 note=59 velocity=95 time=0
EXTRACT: note_on channel=5 note=70 velocity=95 time=0
EXTRACT: note_on channel=5 note=66 velocity=95 time=0
EXTRACT: note_on channel=5 note=61 velocity=95 time=0
EXTRACT: note_on channel=5 note=58 velocity=95 time=0
EXTRACT: note_on channel=6 note=78 velocity=95 time=0
EXTRACT: note_off channel=9 note=44 velocity=127 time=0
EXTRACT: note_off channel=9 note=54 velocity=127 time=0
EXTRACT: note_on channel=9 note=44 velocity=127 time=0
EXTRACT: note_on channel=9 note=54 velocity=127 time=0
EXTRACT: note_on channel=9 note=35 velocity=127 time=0
EXTRACT: note_off channel=3 note=78 velocity=127 time=0.1339285
EXTRACT: note_on channel=3 note=78 velocity=127 time=0
EXTRACT: note_off channel=9 note=44 velocity=127 time=0
EXTRACT: note_off channel=9 note=54 velocity=127 time=0
EXTRACT: note_off channel=9 note=35 velocity=127 time=0
EXTRACT: note_on channel=9 note=54 velocity=127 time=0
EXTRACT: note_off channel=6 note=78 velocity=95 time=0.06696425
EXTRACT: note_off channel=8 note=30 velocity=127 time=0.06696425
EXTRACT: note_off channel=3 note=78 velocity=127 time=0
EXTRACT: note_on channel=3 note=78 velocity=127 time=0
EXTRACT: note_off channel=9 note=54 velocity=127 time=0
EXTRACT: note_on channel=9 note=44 velocity=127 time=0
EXTRACT: note_on channel=9 note=81 velocity=127 time=0
EXTRACT: note_on channel=9 note=54 velocity=127 time=0
EXTRACT: note_off channel=3 note=78 velocity=127 time=0.1339285
EXTRACT: note_on channel=3 note=78 velocity=127 time=0
EXTRACT: note_off channel=9 note=44 velocity=127 time=0
EXTRACT: note_off channel=9 note=81 velocity=127 time=0
EXTRACT: note_off channel=9 note=54 velocity=127 time=0
EXTRACT: note_on channel=9 note=54 velocity=127 time=0
EXTRACT: note_off channel=3 note=78 velocity=127 time=0.1339285
EXTRACT: note_on channel=3 note=78 velocity=127 time=0
EXTRACT: note_on channel=6 note=78 velocity=95 time=0
EXTRACT: note_off channel=9 note=54 velocity=127 time=0
EXTRACT: note_on channel=9 note=38 velocity=127 time=0
EXTRACT: note_on channel=9 note=39 velocity=95 time=0
EXTRACT: note_on channel=9 note=54 velocity=127 time=0
EXTRACT: note_off channel=9 note=38 velocity=127 time=0.1339285
EXTRACT: note_off channel=9 note=39 velocity=95 time=0
EXTRACT: note_off channel=9 note=54 velocity=127 time=0
EXTRACT: note_on channel=9 note=54 velocity=127 time=0
EXTRACT: note_off channel=6 note=78 velocity=95 time=0.06696425
EXTRACT: note_off channel=0 note=54 velocity=95 time=0.06696425
EXTRACT: note_off channel=0 note=49 velocity=95 time=0
EXTRACT: note_off channel=0 note=42 velocity=95 time=0
EXTRACT: note_on channel=0 note=59 velocity=95 time=0
EXTRACT: note_on channel=0 note=54 velocity=95 time=0
EXTRACT: note_on channel=0 note=47 velocity=95 time=0
EXTRACT: note_on channel=8 note=30 velocity=127 time=0
EXTRACT: note_off channel=3 note=78 velocity=127 time=0
EXTRACT: note_on channel=3 note=78 velocity=127 time=0
EXTRACT: note_off channel=4 note=70 velocity=95 time=0
EXTRACT: note_off channel=4 note=66 velocity=95 time=0
EXTRACT: note_off channel=4 note=61 velocity=95 time=0
EXTRACT: note_off channel=4 note=58 velocity=95 time=0
EXTRACT: note_on channel=4 note=71 velocity=95 time=0
EXTRACT: note_on channel=4 note=66 velocity=95 time=0
EXTRACT: note_on channel=4 note=63 velocity=95 time=0
EXTRACT: note_on channel=4 note=59 velocity=95 time=0
EXTRACT: note_off channel=5 note=70 velocity=95 time=0
EXTRACT: note_off channel=5 note=66 velocity=95 time=0
EXTRACT: note_off channel=5 note=61 velocity=95 time=0
EXTRACT: note_off channel=5 note=58 velocity=95 time=0
EXTRACT: note_on channel=5 note=71 velocity=95 time=0
EXTRACT: note_on channel=5 note=66 velocity=95 time=0
EXTRACT: note_on channel=5 note=63 velocity=95 time=0
EXTRACT: note_on channel=5 note=59 velocity=95 time=0
EXTRACT: note_off channel=9 note=54 velocity=127 time=0
EXTRACT: note_on channel=9 note=44 velocity=127 time=0
EXTRACT: note_on channel=9 note=81 velocity=127 time=0
EXTRACT: note_on channel=9 note=54 velocity=127 time=0
EXTRACT: note_off channel=3 note=78 velocity=127 time=0.1339285
EXTRACT: note_on channel=3 note=76 velocity=127 time=0
EXTRACT: note_off channel=9 note=44 velocity=127 time=0
EXTRACT: note_off channel=9 note=81 velocity=127 time=0
EXTRACT: note_off channel=9 note=54 velocity=127 time=0
EXTRACT: note_on channel=9 note=54 velocity=127 time=0
EXTRACT: note_off channel=8 note=30 velocity=127 time=0.1339285
EXTRACT: note_on channel=8 note=32 velocity=127 time=0
EXTRACT: note_on channel=6 note=78 velocity=95 time=0
EXTRACT: note_off channel=9 note=54 velocity=127 time=0
EXTRACT: note_on channel=9 note=44 velocity=127 time=0
EXTRACT: note_on channel=9 note=54 velocity=127 time=0
EXTRACT: note_on channel=9 note=35 velocity=127 time=0
EXTRACT: note_off channel=3 note=76 velocity=127 time=0.1339285
EXTRACT: note_on channel=3 note=78 velocity=127 time=0
EXTRACT: note_off channel=9 note=44 velocity=127 time=0
EXTRACT: note_off channel=9 note=54 velocity=127 time=0
EXTRACT: note_off channel=9 note=35 velocity=127 time=0
EXTRACT: note_on channel=9 note=54 velocity=127 time=0
EXTRACT: note_off channel=6 note=78 velocity=95 time=0.06696425
EXTRACT: note_off channel=8 note=32 velocity=127 time=0.06696425
EXTRACT: note_off channel=3 note=78 velocity=127 time=0
EXTRACT: note_on channel=3 note=76 velocity=127 time=0
EXTRACT: note_off channel=9 note=54 velocity=127 time=0
EXTRACT: note_on channel=9 note=44 velocity=127 time=0
EXTRACT: note_on channel=9 note=81 velocity=127 time=0
EXTRACT: note_on channel=9 note=54 velocity=127 time=0
EXTRACT: note_off channel=3 note=76 velocity=127 time=0.1339285
EXTRACT: note_on channel=3 note=75 velocity=127 time=0
EXTRACT: note_off channel=9 note=44 velocity=127 time=0
EXTRACT: note_off channel=9 note=81 velocity=127 time=0
EXTRACT: note_off channel=9 note=54 velocity=127 time=0
EXTRACT: note_on channel=9 note=54 velocity=127 time=0
EXTRACT: note_on channel=2 note=78 velocity=127 time=0.1339285
EXTRACT: note_on channel=2 note=75 velocity=127 time=0
EXTRACT: note_on channel=2 note=70 velocity=95 time=0
EXTRACT: note_off channel=3 note=75 velocity=127 time=0
EXTRACT: note_on channel=3 note=73 velocity=127 time=0
EXTRACT: note_on channel=6 note=78 velocity=95 time=0
EXTRACT: note_off channel=9 note=54 velocity=127 time=0
EXTRACT: note_on channel=9 note=38 velocity=127 time=0
EXTRACT: note_on channel=9 note=39 velocity=95 time=0
EXTRACT: note_on channel=9 note=54 velocity=127 time=0
EXTRACT: note_off channel=9 note=38 velocity=127 time=0.1339285
EXTRACT: note_off channel=9 note=39 velocity=95 time=0
EXTRACT: note_off channel=9 note=54 velocity=127 time=0
EXTRACT: note_on channel=9 note=54 velocity=127 time=0
EXTRACT: note_off channel=6 note=78 velocity=95 time=0.06696425
EXTRACT: note_off channel=2 note=78 velocity=127 time=0.06696425
EXTRACT: note_off channel=2 note=75 velocity=127 time=0
EXTRACT: note_off channel=2 note=70 velocity=95 time=0
EXTRACT: note_on channel=8 note=32 velocity=127 time=0
EXTRACT: note_off channel=3 note=73 velocity=127 time=0
EXTRACT: note_off channel=9 note=54 velocity=127 time=0
EXTRACT: note_on channel=9 note=44 velocity=127 time=0
EXTRACT: note_on channel=9 note=81 velocity=127 time=0
EXTRACT: note_on channel=9 note=54 velocity=127 time=0
EXTRACT: note_off channel=9 note=44 velocity=127 time=0.1339285
EXTRACT: note_off channel=9 note=81 velocity=127 time=0
EXTRACT: note_off channel=9 note=54 velocity=127 time=0
EXTRACT: note_on channel=9 note=44 velocity=127 time=0
EXTRACT: note_on channel=9 note=54 velocity=127 time=0
EXTRACT: note_off channel=0 note=59 velocity=95 time=0.1339285
EXTRACT: note_off channel=0 note=54 velocity=95 time=0
EXTRACT: note_off channel=0 note=47 velocity=95 time=0
EXTRACT: note_on channel=0 note=52 velocity=95 time=0
EXTRACT: note_on channel=0 note=47 velocity=95 time=0
EXTRACT: note_on channel=0 note=40 velocity=95 time=0
EXTRACT: note_off channel=8 note=32 velocity=127 time=0
EXTRACT: note_on channel=8 note=27 velocity=127 time=0
EXTRACT: note_off channel=4 note=71 velocity=95 time=0
EXTRACT: note_off channel=4 note=66 velocity=95 time=0
EXTRACT: note_off channel=4 note=63 velocity=95 time=0
EXTRACT: note_off channel=4 note=59 velocity=95 time=0
EXTRACT: note_on channel=4 note=68 velocity=95 time=0
EXTRACT: note_on channel=4 note=64 velocity=95 time=0
EXTRACT: note_on channel=4 note=59 velocity=95 time=0
EXTRACT: note_on channel=4 note=56 velocity=95 time=0
EXTRACT: note_off channel=5 note=71 velocity=95 time=0
EXTRACT: note_off channel=5 note=66 velocity=95 time=0
EXTRACT: note_off channel=5 note=63 velocity=95 time=0
EXTRACT: note_off channel=5 note=59 velocity=95 time=0
EXTRACT: note_on channel=5 note=68 velocity=95 time=0
EXTRACT: note_on channel=5 note=64 velocity=95 time=0
EXTRACT: note_on channel=5 note=59 velocity=95 time=0
EXTRACT: note_on channel=5 note=56 velocity=95 time=0
EXTRACT: note_on channel=6 note=78 velocity=95 time=0
EXTRACT: note_off channel=9 note=44 velocity=127 time=0
EXTRACT: note_off channel=9 note=54 velocity=127 time=0
EXTRACT: note_on channel=9 note=44 velocity=127 time=0
EXTRACT: note_on channel=9 note=54 velocity=127 time=0
EXTRACT: note_on channel=9 note=35 velocity=127 time=0
EXTRACT: note_off channel=9 note=44 velocity=127 time=0.1339285
EXTRACT: note_off channel=9 note=54 velocity=127 time=0
EXTRACT: note_off channel=9 note=35 velocity=127 time=0
EXTRACT: note_on channel=9 note=54 velocity=127 time=0
EXTRACT: note_off channel=6 note=78 velocity=95 time=0.06696425
EXTRACT: note_off channel=8 note=27 velocity=127 time=0.06696425
EXTRACT: note_off channel=9 note=54 velocity=127 time=0
EXTRACT: note_on channel=9 note=44 velocity=127 time=0
EXTRACT: note_on channel=9 note=81 velocity=127 time=0
EXTRACT: note_on channel=9 note=54 velocity=127 time=0
EXTRACT: note_off channel=9 note=44 velocity=127 time=0.1339285
EXTRACT: note_off channel=9 note=81 velocity=127 time=0
EXTRACT: note_off channel=9 note=54 velocity=127 time=0
EXTRACT: note_on channel=9 note=54 velocity=127 time=0
EXTRACT: note_on channel=6 note=78 velocity=95 time=0.1339285
EXTRACT: note_off channel=9 note=54 velocity=127 time=0
EXTRACT: note_on channel=9 note=38 velocity=127 time=0
EXTRACT: note_on channel=9 note=39 velocity=95 time=0
EXTRACT: note_on channel=9 note=54 velocity=127 time=0
EXTRACT: note_off channel=9 note=38 velocity=127 time=0.1339285
EXTRACT: note_off channel=9 note=39 velocity=95 time=0
EXTRACT: note_off channel=9 note=54 velocity=127 time=0
EXTRACT: note_on channel=9 note=54 velocity=127 time=0
EXTRACT: note_off channel=6 note=78 velocity=95 time=0.06696425
EXTRACT: note_off channel=0 note=52 velocity=95 time=0.06696425
EXTRACT: note_off channel=0 note=47 velocity=95 time=0
EXTRACT: note_off channel=0 note=40 velocity=95 time=0
EXTRACT: note_on channel=0 note=59 velocity=95 time=0
EXTRACT: note_on channel=0 note=54 velocity=95 time=0
EXTRACT: note_on channel=0 note=47 velocity=95 time=0
EXTRACT: note_on channel=8 note=27 velocity=127 time=0
EXTRACT: note_off channel=4 note=68 velocity=95 time=0
EXTRACT: note_off channel=4 note=64 velocity=95 time=0
EXTRACT: note_off channel=4 note=59 velocity=95 time=0
EXTRACT: note_off channel=4 note=56 velocity=95 time=0
EXTRACT: note_on channel=4 note=71 velocity=95 time=0
EXTRACT: note_on channel=4 note=66 velocity=95 time=0
EXTRACT: note_on channel=4 note=63 velocity=95 time=0
EXTRACT: note_on channel=4 note=59 velocity=95 time=0
EXTRACT: note_off channel=5 note=68 velocity=95 time=0
EXTRACT: note_off channel=5 note=64 velocity=95 time=0
EXTRACT: note_off channel=5 note=59 velocity=95 time=0
EXTRACT: note_off channel=5 note=56 velocity=95 time=0
EXTRACT: note_on channel=5 note=71 velocity=95 time=0
EXTRACT: note_on channel=5 note=66 velocity=95 time=0
EXTRACT: note_on channel=5 note=63 velocity=95 time=0
EXTRACT: note_on channel=5 note=59 velocity=95 time=0
EXTRACT: note_off channel=9 note=54 velocity=127 time=0
EXTRACT: note_on channel=9 note=44 velocity=127 time=0
EXTRACT: note_on channel=9 note=81 velocity=127 time=0
EXTRACT: note_on channel=9 note=54 velocity=127 time=0
EXTRACT: note_off channel=9 note=44 velocity=127 time=0.1339285
EXTRACT: note_off channel=9 note=81 velocity=127 time=0
EXTRACT: note_off channel=9 note=54 velocity=127 time=0
EXTRACT: note_on channel=9 note=54 velocity=127 time=0
EXTRACT: note_off channel=8 note=27 velocity=127 time=0.1339285
EXTRACT: note_on channel=8 note=35 velocity=127 time=0
EXTRACT: note_on channel=6 note=78 velocity=95 time=0
EXTRACT: note_off channel=9 note=54 velocity=127 time=0
EXTRACT: note_on channel=9 note=44 velocity=127 time=0
EXTRACT: note_on channel=9 note=54 velocity=127 time=0
EXTRACT: note_on channel=9 note=35 velocity=127 time=0
EXTRACT: note_off channel=8 note=35 velocity=127 time=0.1339285
EXTRACT: note_on channel=8 note=30 velocity=127 time=0
EXTRACT: note_off channel=9 note=44 velocity=127 time=0
EXTRACT: note_off channel=9 note=54 velocity=127 time=0
EXTRACT: note_off channel=9 note=35 velocity=127 time=0
EXTRACT: note_on channel=9 note=54 velocity=127 time=0
EXTRACT: note_off channel=6 note=78 velocity=95 time=0.06696425
EXTRACT: note_off channel=9 note=54 velocity=127 time=0.06696425
EXTRACT: note_on channel=9 note=44 velocity=127 time=0
EXTRACT: note_on channel=9 note=81 velocity=127 time=0
EXTRACT: note_on channel=9 note=54 velocity=127 time=0
EXTRACT: note_off channel=8 note=30 velocity=127 time=0.1339285
EXTRACT: note_on channel=8 note=35 velocity=127 time=0
EXTRACT: note_off channel=9 note=44 velocity=127 time=0
EXTRACT: note_off channel=9 note=81 velocity=127 time=0
EXTRACT: note_off channel=9 note=54 velocity=127 time=0
EXTRACT: note_on channel=9 note=54 velocity=127 time=0
EXTRACT: note_on channel=2 note=78 velocity=127 time=0.1339285
EXTRACT: note_on channel=2 note=75 velocity=127 time=0
EXTRACT: note_on channel=2 note=70 velocity=95 time=0
EXTRACT: note_off channel=8 note=35 velocity=127 time=0
EXTRACT: note_on channel=8 note=30 velocity=127 time=0
EXTRACT: note_on channel=6 note=78 velocity=95 time=0
EXTRACT: note_off channel=9 note=54 velocity=127 time=0
EXTRACT: note_on channel=9 note=38 velocity=127 time=0
EXTRACT: note_on channel=9 note=39 velocity=95 time=0
EXTRACT: note_on channel=9 note=54 velocity=127 time=0
EXTRACT: note_off channel=9 note=38 velocity=127 time=0.1339285
EXTRACT: note_off channel=9 note=39 velocity=95 time=0
EXTRACT: note_off channel=9 note=54 velocity=127 time=0
EXTRACT: note_on channel=9 note=54 velocity=127 time=0
EXTRACT: note_off channel=6 note=78 velocity=95 time=0.06696425
EXTRACT: note_off channel=2 note=78 velocity=127 time=0.06696425
EXTRACT: note_off channel=2 note=75 velocity=127 time=0
EXTRACT: note_off channel=2 note=70 velocity=95 time=0
EXTRACT: note_off channel=8 note=30 velocity=127 time=0
EXTRACT: note_on channel=8 note=35 velocity=127 time=0
EXTRACT: note_off channel=9 note=54 velocity=127 time=0
EXTRACT: note_on channel=9 note=44 velocity=127 time=0
EXTRACT: note_on channel=9 note=81 velocity=127 time=0
EXTRACT: note_on channel=9 note=54 velocity=127 time=0
EXTRACT: note_off channel=9 note=44 velocity=127 time=0.1339285
EXTRACT: note_off channel=9 note=81 velocity=127 time=0
EXTRACT: note_off channel=9 note=54 velocity=127 time=0
EXTRACT: note_on channel=9 note=44 velocity=127 time=0
EXTRACT: note_on channel=9 note=54 velocity=127 time=0
EXTRACT: note_off channel=0 note=59 velocity=95 time=0.1339285
EXTRACT: note_off channel=0 note=54 velocity=95 time=0
EXTRACT: note_off channel=0 note=47 velocity=95 time=0
EXTRACT: note_on channel=0 note=47 velocity=95 time=0
EXTRACT: note_off channel=8 note=35 velocity=127 time=0
EXTRACT: note_on channel=8 note=35 velocity=127 time=0
EXTRACT: note_off channel=4 note=71 velocity=95 time=0
EXTRACT: note_off channel=4 note=66 velocity=95 time=0
EXTRACT: note_off channel=4 note=63 velocity=95 time=0
EXTRACT: note_off channel=4 note=59 velocity=95 time=0
EXTRACT: note_on channel=4 note=47 velocity=95 time=0
EXTRACT: note_off channel=5 note=71 velocity=95 time=0
EXTRACT: note_off channel=5 note=66 velocity=95 time=0
EXTRACT: note_off channel=5 note=63 velocity=95 time=0
EXTRACT: note_off channel=5 note=59 velocity=95 time=0
EXTRACT: note_off channel=9 note=44 velocity=127 time=0
EXTRACT: note_off channel=9 note=54 velocity=127 time=0
EXTRACT: note_on channel=9 note=54 velocity=127 time=0
EXTRACT: note_on channel=9 note=44 velocity=127 time=0
EXTRACT: note_on channel=9 note=35 velocity=127 time=0
EXTRACT: note_off channel=9 note=54 velocity=127 time=0.1339285
EXTRACT: note_off channel=9 note=44 velocity=127 time=0
EXTRACT: note_off channel=9 note=35 velocity=127 time=0
EXTRACT: note_on channel=9 note=54 velocity=127 time=0
EXTRACT: note_off channel=0 note=47 velocity=95 time=0.1339285
EXTRACT: note_off channel=8 note=35 velocity=127 time=0
EXTRACT: note_off channel=4 note=47 velocity=95 time=0
EXTRACT: note_off channel=9 note=54 velocity=127 time=0
EXTRACT: note_on channel=9 note=54 velocity=127 time=0
EXTRACT: note_off channel=9 note=54 velocity=127 time=0.1339285
EXTRACT: note_on channel=9 note=54 velocity=127 time=0
EXTRACT: note_off channel=9 note=54 velocity=127 time=0.1339285
EXTRACT: note_on channel=9 note=38 velocity=127 time=0
EXTRACT: note_on channel=9 note=39 velocity=95 time=0
EXTRACT: note_on channel=9 note=44 velocity=127 time=0
EXTRACT: note_on channel=9 note=54 velocity=127 time=0
EXTRACT: note_off channel=9 note=38 velocity=127 time=0.1339285
EXTRACT: note_off channel=9 note=39 velocity=95 time=0
EXTRACT: note_off channel=9 note=44 velocity=127 time=0
EXTRACT: note_off channel=9 note=54 velocity=127 time=0
EXTRACT: note_on channel=9 note=54 velocity=127 time=0
EXTRACT: note_on channel=0 note=47 velocity=95 time=0.1339285
EXTRACT: note_on channel=8 note=35 velocity=127 time=0
EXTRACT: note_on channel=4 note=47 velocity=95 time=0
EXTRACT: note_off channel=9 note=54 velocity=127 time=0
EXTRACT: note_on channel=9 note=54 velocity=127 time=0
EXTRACT: note_off channel=9 note=54 velocity=127 time=0.1339285
EXTRACT: note_on channel=9 note=54 velocity=127 time=0
EXTRACT: note_off channel=0 note=47 velocity=95 time=0.1339285
EXTRACT: note_on channel=0 note=50 velocity=95 time=0
EXTRACT: note_off channel=8 note=35 velocity=127 time=0
EXTRACT: note_on channel=8 note=38 velocity=127 time=0
EXTRACT: note_off channel=4 note=47 velocity=95 time=0
EXTRACT: note_on channel=4 note=50 velocity=95 time=0
EXTRACT: note_off channel=9 note=54 velocity=127 time=0
EXTRACT: note_on channel=9 note=44 velocity=127 time=0
EXTRACT: note_on channel=9 note=54 velocity=127 time=0
EXTRACT: note_on channel=9 note=35 velocity=127 time=0
EXTRACT: note_off channel=9 note=44 velocity=127 time=0.1339285
EXTRACT: note_off channel=9 note=54 velocity=127 time=0
EXTRACT: note_off channel=9 note=35 velocity=127 time=0
EXTRACT: note_on channel=9 note=54 velocity=127 time=0
EXTRACT: note_off channel=0 note=50 velocity=95 time=0.1339285
EXTRACT: note_off channel=8 note=38 velocity=127 time=0
EXTRACT: note_off channel=4 note=50 velocity=95 time=0
EXTRACT: note_off channel=9 note=54 velocity=127 time=0
EXTRACT: note_on channel=9 note=54 velocity=127 time=0
EXTRACT: note_on channel=9 note=44 velocity=127 time=0
EXTRACT: note_off channel=9 note=54 velocity=127 time=0.1339285
EXTRACT: note_off channel=9 note=44 velocity=127 time=0
EXTRACT: note_on channel=9 note=54 velocity=127 time=0
EXTRACT: note_on channel=2 note=78 velocity=127 time=0.1339285
EXTRACT: note_on channel=2 note=75 velocity=127 time=0
EXTRACT: note_on channel=2 note=70 velocity=95 time=0
EXTRACT: note_off channel=9 note=54 velocity=127 time=0
EXTRACT: note_on channel=9 note=38 velocity=127 time=0
EXTRACT: note_on channel=9 note=39 velocity=95 time=0
EXTRACT: note_on channel=9 note=54 velocity=127 time=0
EXTRACT: note_off channel=9 note=38 velocity=127 time=0.1339285
EXTRACT: note_off channel=9 note=39 velocity=95 time=0
EXTRACT: note_off channel=9 note=54 velocity=127 time=0
EXTRACT: note_on channel=9 note=54 velocity=127 time=0
EXTRACT: note_on channel=0 note=50 velocity=95 time=0.1339285
EXTRACT: note_off channel=2 note=78 velocity=127 time=0
EXTRACT: note_off channel=2 note=75 velocity=127 time=0
EXTRACT: note_off channel=2 note=70 velocity=95 time=0
EXTRACT: note_on channel=8 note=38 velocity=127 time=0
EXTRACT: note_on channel=4 note=50 velocity=95 time=0
EXTRACT: note_off channel=9 note=54 velocity=127 time=0
EXTRACT: note_on channel=9 note=54 velocity=127 time=0
EXTRACT: note_off channel=9 note=54 velocity=127 time=0.1339285
EXTRACT: note_on channel=9 note=44 velocity=127 time=0
EXTRACT: note_on channel=9 note=54 velocity=127 time=0
EXTRACT: note_off channel=0 note=50 velocity=95 time=0.1339285
EXTRACT: note_on channel=0 note=52 velocity=95 time=0
EXTRACT: note_off channel=8 note=38 velocity=127 time=0
EXTRACT: note_on channel=8 note=40 velocity=127 time=0
EXTRACT: note_off channel=4 note=50 velocity=95 time=0
EXTRACT: note_on channel=4 note=52 velocity=95 time=0
EXTRACT: note_off channel=9 note=44 velocity=127 time=0
EXTRACT: note_off channel=9 note=54 velocity=127 time=0
EXTRACT: note_on channel=9 note=54 velocity=127 time=0
EXTRACT: note_on channel=9 note=44 velocity=127 time=0
EXTRACT: note_on channel=9 note=35 velocity=127 time=0
EXTRACT: note_off channel=9 note=54 velocity=127 time=0.1339285
EXTRACT: note_off channel=9 note=44 velocity=127 time=0
EXTRACT: note_off channel=9 note=35 velocity=127 time=0
EXTRACT: note_on channel=9 note=54 velocity=127 time=0
EXTRACT: note_off channel=0 note=52 velocity=95 time=0.1339285
EXTRACT: note_off channel=8 note=40 velocity=127 time=0
EXTRACT: note_off channel=4 note=52 velocity=95 time=0
EXTRACT: note_off channel=9 note=54 velocity=127 time=0
EXTRACT: note_on channel=9 note=54 velocity=127 time=0
EXTRACT: note_off channel=9 note=54 velocity=127 time=0.1339285
EXTRACT: note_on channel=9 note=54 velocity=127 time=0
EXTRACT: note_off channel=9 note=54 velocity=127 time=0.1339285
EXTRACT: note_on channel=9 note=38 velocity=127 time=0
EXTRACT: note_on channel=9 note=39 velocity=95 time=0
EXTRACT: note_on channel=9 note=44 velocity=127 time=0
EXTRACT: note_on channel=9 note=54 velocity=127 time=0
EXTRACT: note_off channel=9 note=38 velocity=127 time=0.1339285
EXTRACT: note_off channel=9 note=39 velocity=95 time=0
EXTRACT: note_off channel=9 note=44 velocity=127 time=0
EXTRACT: note_off channel=9 note=54 velocity=127 time=0
EXTRACT: note_on channel=9 note=54 velocity=127 time=0
EXTRACT: note_on channel=0 note=52 velocity=95 time=0.1339285
EXTRACT: note_on channel=8 note=40 velocity=127 time=0
EXTRACT: note_on channel=4 note=52 velocity=95 time=0
EXTRACT: note_off channel=9 note=54 velocity=127 time=0
EXTRACT: note_on channel=9 note=54 velocity=127 time=0
EXTRACT: note_off channel=9 note=54 velocity=127 time=0.1339285
EXTRACT: note_on channel=9 note=54 velocity=127 time=0
EXTRACT: note_off channel=0 note=52 velocity=95 time=0.1339285
EXTRACT: note_on channel=0 note=45 velocity=95 time=0
EXTRACT: note_off channel=8 note=40 velocity=127 time=0
EXTRACT: note_on channel=8 note=33 velocity=127 time=0
EXTRACT: note_off channel=4 note=52 velocity=95 time=0
EXTRACT: note_on channel=4 note=45 velocity=95 time=0
EXTRACT: note_off channel=9 note=54 velocity=127 time=0
EXTRACT: note_on channel=9 note=44 velocity=127 time=0
EXTRACT: note_on channel=9 note=54 velocity=127 time=0
EXTRACT: note_on channel=9 note=35 velocity=127 time=0
EXTRACT: note_off channel=9 note=44 velocity=127 time=0.1339285
EXTRACT: note_off channel=9 note=54 velocity=127 time=0
EXTRACT: note_off channel=9 note=35 velocity=127 time=0
EXTRACT: note_on channel=9 note=54 velocity=127 time=0
EXTRACT: note_off channel=0 note=45 velocity=95 time=0.1339285
EXTRACT: note_off channel=8 note=33 velocity=127 time=0
EXTRACT: note_off channel=4 note=45 velocity=95 time=0
EXTRACT: note_off channel=9 note=54 velocity=127 time=0
EXTRACT: note_on channel=9 note=54 velocity=127 time=0
EXTRACT: note_on channel=9 note=44 velocity=127 time=0
EXTRACT: note_on channel=0 note=45 velocity=95 time=0.1339285
EXTRACT: note_on channel=8 note=33 velocity=127 time=0
EXTRACT: note_on channel=4 note=45 velocity=95 time=0
EXTRACT: note_off channel=9 note=54 velocity=127 time=0
EXTRACT: note_off channel=9 note=44 velocity=127 time=0
EXTRACT: note_on channel=9 note=54 velocity=127 time=0
EXTRACT: note_on channel=2 note=78 velocity=127 time=0.1339285
EXTRACT: note_on channel=2 note=75 velocity=127 time=0
EXTRACT: note_on channel=2 note=70 velocity=95 time=0
EXTRACT: note_off channel=9 note=54 velocity=127 time=0
EXTRACT: note_on channel=9 note=38 velocity=127 time=0
EXTRACT: note_on channel=9 note=39 velocity=95 time=0
EXTRACT: note_on channel=9 note=54 velocity=127 time=0
EXTRACT: note_off channel=0 note=45 velocity=95 time=0.1339285
EXTRACT: note_off channel=8 note=33 velocity=127 time=0
EXTRACT: note_off channel=4 note=45 velocity=95 time=0
EXTRACT: note_off channel=9 note=38 velocity=127 time=0
EXTRACT: note_off channel=9 note=39 velocity=95 time=0
EXTRACT: note_off channel=9 note=54 velocity=127 time=0
EXTRACT: note_on channel=9 note=54 velocity=127 time=0
EXTRACT: note_on channel=0 note=46 velocity=95 time=0.1339285
EXTRACT: note_off channel=2 note=78 velocity=127 time=0
EXTRACT: note_off channel=2 note=75 velocity=127 time=0
EXTRACT: note_off channel=2 note=70 velocity=95 time=0
EXTRACT: note_on channel=8 note=34 velocity=127 time=0
EXTRACT: note_on channel=4 note=46 velocity=95 time=0
EXTRACT: note_off channel=9 note=54 velocity=127 time=0
EXTRACT: note_on channel=9 note=54 velocity=127 time=0
EXTRACT: note_off channel=9 note=54 velocity=127 time=0.1339285
EXTRACT: note_on channel=9 note=44 velocity=127 time=0
EXTRACT: note_on channel=9 note=54 velocity=127 time=0
EXTRACT: note_off channel=0 note=46 velocity=95 time=0.1339285
EXTRACT: note_on channel=0 note=47 velocity=95 time=0
EXTRACT: note_off channel=8 note=34 velocity=127 time=0
EXTRACT: note_on channel=8 note=35 velocity=127 time=0
EXTRACT: note_off channel=4 note=46 velocity=95 time=0
EXTRACT: note_on channel=4 note=47 velocity=95 time=0
EXTRACT: note_off channel=9 note=44 velocity=127 time=0
EXTRACT: note_off channel=9 note=54 velocity=127 time=0
EXTRACT: note_on channel=9 note=54 velocity=127 time=0
EXTRACT: note_on channel=9 note=44 velocity=127 time=0
EXTRACT: note_on channel=9 note=35 velocity=127 time=0
EXTRACT: note_off channel=9 note=54 velocity=127 time=0.1339285
EXTRACT: note_off channel=9 note=44 velocity=127 time=0
EXTRACT: note_off channel=9 note=35 velocity=127 time=0
EXTRACT: note_on channel=9 note=54 velocity=127 time=0
EXTRACT: note_off channel=0 note=47 velocity=95 time=0.1339285
EXTRACT: note_off channel=8 note=35 velocity=127 time=0
EXTRACT: note_off channel=4 note=47 velocity=95 time=0
EXTRACT: note_off channel=9 note=54 velocity=127 time=0
EXTRACT: note_on channel=9 note=54 velocity=127 time=0
EXTRACT: note_off channel=9 note=54 velocity=127 time=0.1339285
EXTRACT: note_on channel=9 note=54 velocity=127 time=0
EXTRACT: note_off channel=9 note=54 velocity=127 time=0.1339285
EXTRACT: note_on channel=9 note=38 velocity=127 time=0
EXTRACT: note_on channel=9 note=39 velocity=95 time=0
EXTRACT: note_on channel=9 note=44 velocity=127 time=0
EXTRACT: note_on channel=9 note=54 velocity=127 time=0
EXTRACT: note_off channel=9 note=38 velocity=127 time=0.1339285
EXTRACT: note_off channel=9 note=39 velocity=95 time=0
EXTRACT: note_off channel=9 note=44 velocity=127 time=0
EXTRACT: note_off channel=9 note=54 velocity=127 time=0
EXTRACT: note_on channel=9 note=54 velocity=127 time=0
EXTRACT: note_on channel=0 note=47 velocity=95 time=0.1339285
EXTRACT: note_on channel=8 note=35 velocity=127 time=0
EXTRACT: note_on channel=4 note=47 velocity=95 time=0
EXTRACT: note_off channel=9 note=54 velocity=127 time=0
EXTRACT: note_on channel=9 note=54 velocity=127 time=0
EXTRACT: note_off channel=9 note=54 velocity=127 time=0.1339285
EXTRACT: note_on channel=9 note=54 velocity=127 time=0
EXTRACT: note_off channel=0 note=47 velocity=95 time=0.1339285
EXTRACT: note_on channel=0 note=50 velocity=95 time=0
EXTRACT: note_off channel=8 note=35 velocity=127 time=0
EXTRACT: note_on channel=8 note=38 velocity=127 time=0
EXTRACT: note_off channel=4 note=47 velocity=95 time=0
EXTRACT: note_on channel=4 note=50 velocity=95 time=0
EXTRACT: note_off channel=9 note=54 velocity=127 time=0
EXTRACT: note_on channel=9 note=44 velocity=127 time=0
EXTRACT: note_on channel=9 note=54 velocity=127 time=0
EXTRACT: note_on channel=9 note=35 velocity=127 time=0
EXTRACT: note_off channel=9 note=44 velocity=127 time=0.1339285
EXTRACT: note_off channel=9 note=54 velocity=127 time=0
EXTRACT: note_off channel=9 note=35 velocity=127 time=0
EXTRACT: note_on channel=9 note=54 velocity=127 time=0
EXTRACT: note_off channel=0 note=50 velocity=95 time=0.1339285
EXTRACT: note_off channel=8 note=38 velocity=127 time=0
EXTRACT: note_off channel=4 note=50 velocity=95 time=0
EXTRACT: note_off channel=9 note=54 velocity=127 time=0
EXTRACT: note_on channel=9 note=54 velocity=127 time=0
EXTRACT: note_on channel=9 note=44 velocity=127 time=0
EXTRACT: note_off channel=9 note=54 velocity=127 time=0.1339285
EXTRACT: note_off channel=9 note=44 velocity=127 time=0
EXTRACT: note_on channel=9 note=54 velocity=127 time=0
EXTRACT: note_on channel=2 note=78 velocity=127 time=0.1339285
EXTRACT: note_on channel=2 note=75 velocity=127 time=0
EXTRACT: note_on channel=2 note=70 velocity=95 time=0
EXTRACT: note_off channel=9 note=54 velocity=127 time=0
EXTRACT: note_on channel=9 note=38 velocity=127 time=0
EXTRACT: note_on channel=9 note=39 velocity=95 time=0
EXTRACT: note_on channel=9 note=54 velocity=127 time=0
EXTRACT: note_off channel=9 note=38 velocity=127 time=0.1339285
EXTRACT: note_off channel=9 note=39 velocity=95 time=0
EXTRACT: note_off channel=9 note=54 velocity=127 time=0
EXTRACT: note_on channel=9 note=54 velocity=127 time=0
EXTRACT: note_on channel=0 note=50 velocity=95 time=0.1339285
EXTRACT: note_off channel=2 note=78 velocity=127 time=0
EXTRACT: note_off channel=2 note=75 velocity=127 time=0
EXTRACT: note_off channel=2 note=70 velocity=95 time=0
EXTRACT: note_on channel=8 note=38 velocity=127 time=0
EXTRACT: note_on channel=4 note=50 velocity=95 time=0
EXTRACT: note_off channel=9 note=54 velocity=127 time=0
EXTRACT: note_on channel=9 note=54 velocity=127 time=0
EXTRACT: note_off channel=9 note=54 velocity=127 time=0.1339285
EXTRACT: note_on channel=9 note=44 velocity=127 time=0
EXTRACT: note_on channel=9 note=54 velocity=127 time=0
EXTRACT: note_off channel=0 note=50 velocity=95 time=0.1339285
EXTRACT: note_on channel=0 note=52 velocity=95 time=0
EXTRACT: note_off channel=8 note=38 velocity=127 time=0
EXTRACT: note_on channel=8 note=40 velocity=127 time=0
EXTRACT: note_off channel=4 note=50 velocity=95 time=0
EXTRACT: note_on channel=4 note=52 velocity=95 time=0
EXTRACT: note_off channel=9 note=44 velocity=127 time=0
EXTRACT: note_off channel=9 note=54 velocity=127 time=0
EXTRACT: note_on channel=9 note=54 velocity=127 time=0
EXTRACT: note_on channel=9 note=44 velocity=127 time=0
EXTRACT: note_on channel=9 note=35 velocity=127 time=0
EXTRACT: note_off channel=9 note=54 velocity=127 time=0.1339285
EXTRACT: note_off channel=9 note=44 velocity=127 time=0
EXTRACT: note_off channel=9 note=35 velocity=127 time=0
EXTRACT: note_on channel=9 note=54 velocity=127 time=0
EXTRACT: note_off channel=0 note=52 velocity=95 time=0.1339285
EXTRACT: note_off channel=8 note=40 velocity=127 time=0
EXTRACT: note_off channel=4 note=52 velocity=95 time=0
EXTRACT: note_off channel=9 note=54 velocity=127 time=0
EXTRACT: note_on channel=9 note=54 velocity=127 time=0
EXTRACT: note_off channel=9 note=54 velocity=127 time=0.1339285
EXTRACT: note_on channel=9 note=54 velocity=127 time=0
EXTRACT: note_off channel=9 note=54 velocity=127 time=0.1339285
EXTRACT: note_on channel=9 note=38 velocity=127 time=0
EXTRACT: note_on channel=9 note=39 velocity=95 time=0
EXTRACT: note_on channel=9 note=44 velocity=127 time=0
EXTRACT: note_on channel=9 note=54 velocity=127 time=0
EXTRACT: note_off channel=9 note=38 velocity=127 time=0.1339285
EXTRACT: note_off channel=9 note=39 velocity=95 time=0
EXTRACT: note_off channel=9 note=44 velocity=127 time=0
EXTRACT: note_off channel=9 note=54 velocity=127 time=0
EXTRACT: note_on channel=9 note=54 velocity=127 time=0
EXTRACT: note_on channel=0 note=52 velocity=95 time=0.1339285
EXTRACT: note_on channel=8 note=40 velocity=127 time=0
EXTRACT: note_on channel=4 note=52 velocity=95 time=0
EXTRACT: note_off channel=9 note=54 velocity=127 time=0
EXTRACT: note_on channel=9 note=54 velocity=127 time=0
EXTRACT: note_off channel=9 note=54 velocity=127 time=0.1339285
EXTRACT: note_on channel=9 note=54 velocity=127 time=0
EXTRACT: note_off channel=0 note=52 velocity=95 time=0.1339285
EXTRACT: note_on channel=0 note=45 velocity=95 time=0
EXTRACT: note_off channel=8 note=40 velocity=127 time=0
EXTRACT: note_on channel=8 note=33 velocity=127 time=0
EXTRACT: note_off channel=4 note=52 velocity=95 time=0
EXTRACT: note_on channel=4 note=45 velocity=95 time=0
EXTRACT: note_off channel=9 note=54 velocity=127 time=0
EXTRACT: note_on channel=9 note=44 velocity=127 time=0
EXTRACT: note_on channel=9 note=54 velocity=127 time=0
EXTRACT: note_on channel=9 note=35 velocity=127 time=0
EXTRACT: note_off channel=9 note=44 velocity=127 time=0.1339285
EXTRACT: note_off channel=9 note=54 velocity=127 time=0
EXTRACT: note_off channel=9 note=35 velocity=127 time=0
EXTRACT: note_on channel=9 note=54 velocity=127 time=0
EXTRACT: note_off channel=0 note=45 velocity=95 time=0.1339285
EXTRACT: note_off channel=8 note=33 velocity=127 time=0
EXTRACT: note_off channel=4 note=45 velocity=95 time=0
EXTRACT: note_off channel=9 note=54 velocity=127 time=0
EXTRACT: note_on channel=9 note=54 velocity=127 time=0
EXTRACT: note_on channel=9 note=44 velocity=127 time=0
EXTRACT: note_on channel=0 note=45 velocity=95 time=0.1339285
EXTRACT: note_on channel=8 note=33 velocity=127 time=0
EXTRACT: note_on channel=4 note=45 velocity=95 time=0
EXTRACT: note_off channel=9 note=54 velocity=127 time=0
EXTRACT: note_off channel=9 note=44 velocity=127 time=0
EXTRACT: note_on channel=9 note=54 velocity=127 time=0
EXTRACT: note_on channel=2 note=78 velocity=127 time=0.1339285
EXTRACT: note_on channel=2 note=75 velocity=127 time=0
EXTRACT: note_on channel=2 note=70 velocity=95 time=0
EXTRACT: note_off channel=9 note=54 velocity=127 time=0
EXTRACT: note_on channel=9 note=38 velocity=127 time=0
EXTRACT: note_on channel=9 note=39 velocity=95 time=0
EXTRACT: note_on channel=9 note=54 velocity=127 time=0
EXTRACT: note_off channel=0 note=45 velocity=95 time=0.1339285
EXTRACT: note_off channel=8 note=33 velocity=127 time=0
EXTRACT: note_off channel=4 note=45 velocity=95 time=0
EXTRACT: note_off channel=9 note=38 velocity=127 time=0
EXTRACT: note_off channel=9 note=39 velocity=95 time=0
EXTRACT: note_off channel=9 note=54 velocity=127 time=0
EXTRACT: note_on channel=9 note=54 velocity=127 time=0
EXTRACT: note_on channel=0 note=46 velocity=95 time=0.1339285
EXTRACT: note_off channel=2 note=78 velocity=127 time=0
EXTRACT: note_off channel=2 note=75 velocity=127 time=0
EXTRACT: note_off channel=2 note=70 velocity=95 time=0
EXTRACT: note_on channel=8 note=34 velocity=127 time=0
EXTRACT: note_on channel=4 note=46 velocity=95 time=0
EXTRACT: note_off channel=9 note=54 velocity=127 time=0
EXTRACT: note_on channel=9 note=54 velocity=127 time=0
EXTRACT: note_off channel=9 note=54 velocity=127 time=0.1339285
EXTRACT: note_on channel=9 note=44 velocity=127 time=0
EXTRACT: note_on channel=9 note=54 velocity=127 time=0
EXTRACT: note_off channel=0 note=46 velocity=95 time=0.1339285
EXTRACT: note_off channel=8 note=34 velocity=127 time=0
EXTRACT: note_on channel=3 note=78 velocity=127 time=0
EXTRACT: note_on channel=3 note=73 velocity=127 time=0
EXTRACT: note_off channel=4 note=46 velocity=95 time=0
EXTRACT: note_off channel=9 note=44 velocity=127 time=0
EXTRACT: note_off channel=9 note=54 velocity=127 time=0
EXTRACT: note_on channel=9 note=44 velocity=127 time=0
EXTRACT: note_on channel=9 note=49 velocity=127 time=0
EXTRACT: note_off channel=3 note=78 velocity=127 time=0.1339285
EXTRACT: note_off channel=3 note=73 velocity=127 time=0
EXTRACT: note_on channel=3 note=78 velocity=127 time=0
EXTRACT: note_on channel=3 note=73 velocity=127 time=0
EXTRACT: note_off channel=3 note=78 velocity=127 time=0.1339285
EXTRACT: note_off channel=3 note=73 velocity=127 time=0
EXTRACT: note_on channel=3 note=78 velocity=127 time=0
EXTRACT: note_on channel=3 note=73 velocity=127 time=0
EXTRACT: note_off channel=9 note=44 velocity=127 time=0
EXTRACT: note_off channel=9 note=49 velocity=127 time=0
EXTRACT: note_off channel=3 note=78 velocity=127 time=0.1339285
EXTRACT: note_off channel=3 note=73 velocity=127 time=0
EXTRACT: note_on channel=3 note=78 velocity=127 time=0
EXTRACT: note_on channel=3 note=73 velocity=127 time=0
EXTRACT: note_off channel=3 note=78 velocity=127 time=0.1339285
EXTRACT: note_off channel=3 note=73 velocity=127 time=0
EXTRACT: note_on channel=3 note=78 velocity=127 time=0
EXTRACT: note_on channel=3 note=73 velocity=127 time=0
EXTRACT: note_off channel=3 note=78 velocity=127 time=0.267857
EXTRACT: note_off channel=3 note=73 velocity=127 time=0
EXTRACT: note_on channel=3 note=80 velocity=127 time=0
EXTRACT: note_on channel=3 note=75 velocity=127 time=0
EXTRACT: note_off channel=3 note=80 velocity=127 time=0.267857
EXTRACT: note_off channel=3 note=75 velocity=127 time=0
EXTRACT: note_on channel=3 note=78 velocity=127 time=0
EXTRACT: note_on channel=3 note=75 velocity=127 time=0
EXTRACT: note_off channel=3 note=78 velocity=127 time=0.267857
EXTRACT: note_off channel=3 note=75 velocity=127 time=0
EXTRACT: note_on channel=3 note=75 velocity=127 time=0
EXTRACT: note_off channel=3 note=75 velocity=127 time=0.267857
EXTRACT: note_on channel=3 note=78 velocity=95 time=0
EXTRACT: note_on channel=3 note=75 velocity=95 time=0
EXTRACT: note_off channel=3 note=78 velocity=95 time=0.267857
EXTRACT: note_off channel=3 note=75 velocity=95 time=0
EXTRACT: note_on channel=3 note=75 velocity=95 time=0
EXTRACT: note_off channel=3 note=75 velocity=95 time=0.267857
EXTRACT: note_on channel=3 note=78 velocity=63 time=0
EXTRACT: note_on channel=3 note=75 velocity=63 time=0
EXTRACT: note_off channel=3 note=78 velocity=63 time=0.267857
EXTRACT: note_off channel=3 note=75 velocity=63 time=0
EXTRACT: note_on channel=3 note=75 velocity=63 time=0
EXTRACT: note_off channel=3 note=75 velocity=63 time=0.267857
EXTRACT: note_on channel=3 note=78 velocity=47 time=0
EXTRACT: note_on channel=3 note=75 velocity=47 time=0
EXTRACT: note_off channel=3 note=78 velocity=47 time=0.267857
EXTRACT: note_off channel=3 note=75 velocity=47 time=0
EXTRACT: note_on channel=3 note=75 velocity=47 time=0
EXTRACT: note_off channel=3 note=75 velocity=47 time=0.267857
EXTRACT: note_on channel=3 note=78 velocity=31 time=0
EXTRACT: note_on channel=3 note=75 velocity=31 time=0
EXTRACT: note_off channel=3 note=78 velocity=31 time=0.267857
EXTRACT: note_off channel=3 note=75 velocity=31 time=0
EXTRACT: note_on channel=3 note=75 velocity=31 time=0
EXTRACT: note_off channel=3 note=75 velocity=31 time=0.267857
EXTRACT: note_on channel=3 note=78 velocity=15 time=0
EXTRACT: note_on channel=3 note=75 velocity=15 time=0
EXTRACT: note_off channel=3 note=78 velocity=15 time=0.267857
EXTRACT: note_off channel=3 note=75 velocity=15 time=0
EXTRACT: note_on channel=3 note=75 velocity=15 time=0
EXTRACT: note_off channel=3 note=75 velocity=15 time=0.267857
EXTRACT: note_on channel=3 note=78 velocity=15 time=0
EXTRACT: note_on channel=3 note=75 velocity=15 time=0
EXTRACT: note_off channel=3 note=78 velocity=15 time=0.267857
EXTRACT: note_off channel=3 note=75 velocity=15 time=0
EXTRACT: note_on channel=3 note=75 velocity=15 time=0
EXTRACT: note_off channel=3 note=75 velocity=15 time=0.267857
