EXTRACT: sysex data=(65,16,66,18,64,0,127,0,65) time=0
EXTRACT: control_change channel=0 control=0 value=0 time=0
EXTRACT: program_change channel=0 program=38 time=0
EXTRACT: control_change channel=0 control=7 value=85 time=0
EXTRACT: note_on channel=0 note=54 velocity=100 time=0
EXTRACT: program_change channel=9 program=0 time=0
EXTRACT: control_change channel=9 control=7 value=100 time=0
EXTRACT: control_change channel=1 control=0 value=0 time=0
EXTRACT: program_change channel=1 program=102 time=0
EXTRACT: control_change channel=1 control=7 value=80 time=0
EXTRACT: control_change channel=1 control=10 value=0 time=0
EXTRACT: control_change channel=2 control=0 value=1 time=0
EXTRACT: program_change channel=2 program=38 time=0
EXTRACT: control_change channel=2 control=7 value=100 time=0
EXTRACT: program_change channel=3 program=33 time=0
EXTRACT: control_change channel=3 control=7 value=80 time=0
EXTRACT: program_change channel=4 program=81 time=0
EXTRACT: control_change channel=4 control=7 value=90 time=0
EXTRACT: control_change channel=4 control=10 value=24 time=0
EXTRACT: program_change channel=5 program=29 time=0
EXTRACT: control_change channel=5 control=7 value=100 time=0
EXTRACT: program_change channel=6 program=11 time=0
EXTRACT: control_change channel=6 control=7 value=100 time=0
EXTRACT: program_change channel=6 program=11 time=0
EXTRACT: control_change channel=6 control=7 value=100 time=0
EXTRACT: program_change channel=7 program=66 time=0
EXTRACT: control_change channel=7 control=7 value=75 time=0
EXTRACT: program_change channel=8 program=80 time=0
EXTRACT: control_change channel=8 control=7 value=75 time=0
EXTRACT: program_change channel=10 program=86 time=0
EXTRACT: control_change channel=10 control=7 value=100 time=0
EXTRACT: program_change channel=11 program=26 time=0
EXTRACT: control_change channel=11 control=7 value=70 time=0
EXTRACT: program_change channel=12 program=120 time=0
EXTRACT: control_change channel=12 control=7 value=40 time=0
EXTRACT: note_off channel=0 note=54 velocity=0 time=0.07142849999999999
EXTRACT: note_on channel=0 note=54 velocity=100 time=0.07142849999999999
EXTRACT: note_off channel=0 note=54 velocity=0 time=0.07142849999999999
EXTRACT: note_on channel=0 note=54 velocity=100 time=0.07142849999999999
EXTRACT: note_off channel=0 note=54 velocity=0 time=0.07142849999999999
EXTRACT: note_on channel=0 note=56 velocity=100 time=0.07142849999999999
EXTRACT: note_off channel=0 note=56 velocity=0 time=0.18749981249999997
EXTRACT: note_on channel=0 note=56 velocity=100 time=0.0982141875
EXTRACT: note_off channel=0 note=56 velocity=0 time=0.18749981249999997
EXTRACT: note_on channel=0 note=56 velocity=100 time=0.0982141875
EXTRACT: note_off channel=0 note=56 velocity=0 time=0.11011893749999999
EXTRACT: note_on channel=0 note=54 velocity=100 time=0.0327380625
EXTRACT: note_off channel=0 note=54 velocity=0 time=0.24107118749999998
EXTRACT: note_on channel=0 note=56 velocity=100 time=0.18749981249999997
EXTRACT: note_off channel=0 note=56 velocity=0 time=0.14285699999999998
EXTRACT: note_on channel=0 note=56 velocity=100 time=0.14285699999999998
EXTRACT: note_off channel=0 note=56 velocity=0 time=0.14285699999999998
EXTRACT: note_on channel=0 note=56 velocity=100 time=0.14285699999999998
EXTRACT: note_off channel=0 note=56 velocity=0 time=0.1279760625
EXTRACT: note_on channel=0 note=54 velocity=100 time=0.014880937499999998
EXTRACT: note_off channel=0 note=54 velocity=0 time=0.07142849999999999
EXTRACT: note_on channel=0 note=54 velocity=100 time=0.07142849999999999
EXTRACT: note_off channel=0 note=54 velocity=0 time=0.07142849999999999
EXTRACT: note_on channel=0 note=54 velocity=100 time=0.07142849999999999
EXTRACT: note_off channel=0 note=54 velocity=0 time=0.07142849999999999
EXTRACT: note_on channel=0 note=56 velocity=100 time=0.07142849999999999
EXTRACT: note_off channel=0 note=56 velocity=0 time=0.18749981249999997
EXTRACT: note_on channel=0 note=56 velocity=100 time=0.0982141875
EXTRACT: note_off channel=0 note=56 velocity=0 time=0.18749981249999997
EXTRACT: note_on channel=0 note=56 velocity=100 time=0.0982141875
EXTRACT: note_off channel=0 note=56 velocity=0 time=0.11011893749999999
EXTRACT: note_on channel=0 note=54 velocity=100 time=0.0327380625
EXTRACT: note_off channel=0 note=54 velocity=0 time=0.24107118749999998
EXTRACT: note_on channel=0 note=56 velocity=100 time=0.18749981249999997
EXTRACT: note_off channel=0 note=56 velocity=0 time=0.14285699999999998
EXTRACT: note_on channel=0 note=56 velocity=100 time=0.14285699999999998
EXTRACT: note_off channel=0 note=56 velocity=0 time=0.14285699999999998
EXTRACT: note_on channel=0 note=56 velocity=100 time=0.14285699999999998
EXTRACT: note_off channel=0 note=56 velocity=0 time=0.1279760625
EXTRACT: note_on channel=0 note=54 velocity=100 time=0.014880937499999998
EXTRACT: note_off channel=0 note=54 velocity=0 time=0.07142849999999999
EXTRACT: note_on channel=0 note=54 velocity=100 time=0.07142849999999999
EXTRACT: note_off channel=0 note=54 velocity=0 time=0.07142849999999999
EXTRACT: note_on channel=0 note=54 velocity=100 time=0.07142849999999999
EXTRACT: note_off channel=0 note=54 velocity=0 time=0.07142849999999999
EXTRACT: note_on channel=0 note=56 velocity=100 time=0.07142849999999999
EXTRACT: note_off channel=0 note=56 velocity=0 time=0.18749981249999997
EXTRACT: note_on channel=0 note=56 velocity=100 time=0.0982141875
EXTRACT: note_off channel=0 note=56 velocity=0 time=0.18749981249999997
EXTRACT: note_on channel=0 note=56 velocity=100 time=0.0982141875
EXTRACT: note_off channel=0 note=56 velocity=0 time=0.11011893749999999
EXTRACT: note_on channel=0 note=54 velocity=100 time=0.0327380625
EXTRACT: note_off channel=0 note=54 velocity=0 time=0.24107118749999998
EXTRACT: note_on channel=0 note=56 velocity=100 time=0.18749981249999997
EXTRACT: note_off channel=0 note=56 velocity=0 time=0.14285699999999998
EXTRACT: note_on channel=0 note=56 velocity=100 time=0.14285699999999998
EXTRACT: note_off channel=0 note=56 velocity=0 time=0.14285699999999998
EXTRACT: note_on channel=0 note=56 velocity=100 time=0.14285699999999998
EXTRACT: note_off channel=0 note=56 velocity=0 time=0.1279760625
EXTRACT: note_on channel=0 note=54 velocity=100 time=0.014880937499999998
EXTRACT: note_off channel=0 note=54 velocity=0 time=0.07142849999999999
EXTRACT: note_on channel=0 note=54 velocity=100 time=0.07142849999999999
EXTRACT: note_off channel=0 note=54 velocity=0 time=0.07142849999999999
EXTRACT: note_on channel=0 note=54 velocity=100 time=0.07142849999999999
EXTRACT: note_off channel=0 note=54 velocity=0 time=0.07142849999999999
EXTRACT: note_on channel=0 note=56 velocity=100 time=0.07142849999999999
EXTRACT: note_off channel=0 note=56 velocity=0 time=0.18749981249999997
EXTRACT: note_on channel=0 note=56 velocity=100 time=0.0982141875
EXTRACT: note_off channel=0 note=56 velocity=0 time=0.18749981249999997
EXTRACT: note_on channel=0 note=56 velocity=100 time=0.0982141875
EXTRACT: note_off channel=0 note=56 velocity=0 time=0.11011893749999999
EXTRACT: note_on channel=0 note=54 velocity=100 time=0.0327380625
EXTRACT: note_off channel=0 note=54 velocity=0 time=0.24107118749999998
EXTRACT: note_on channel=9 note=35 velocity=100 time=0.0446428125
EXTRACT: note_on channel=9 note=36 velocity=100 time=0
EXTRACT: note_off channel=9 note=35 velocity=0 time=0.1279760625
EXTRACT: note_off channel=9 note=36 velocity=0 time=0
EXTRACT: note_on channel=0 note=56 velocity=100 time=0.014880937499999998
EXTRACT: note_off channel=0 note=56 velocity=0 time=0.14285699999999998
EXTRACT: note_on channel=9 note=38 velocity=100 time=0
EXTRACT: note_off channel=9 note=38 velocity=0 time=0.1279760625
EXTRACT: note_on channel=0 note=56 velocity=100 time=0.014880937499999998
EXTRACT: note_off channel=0 note=56 velocity=0 time=0.14285699999999998
EXTRACT: note_on channel=0 note=56 velocity=100 time=0.14285699999999998
EXTRACT: note_off channel=0 note=56 velocity=0 time=0.1279760625
EXTRACT: note_on channel=0 note=54 velocity=100 time=0.014880937499999998
EXTRACT: note_on channel=9 note=35 velocity=100 time=0
EXTRACT: note_on channel=9 note=36 velocity=100 time=0
EXTRACT: note_on channel=2 note=32 velocity=100 time=0
EXTRACT: note_off channel=0 note=54 velocity=0 time=0.07142849999999999
EXTRACT: note_off channel=9 note=35 velocity=0 time=0.056547562499999995
EXTRACT: note_off channel=9 note=36 velocity=0 time=0
EXTRACT: note_on channel=0 note=54 velocity=100 time=0.014880937499999998
EXTRACT: note_off channel=0 note=54 velocity=0 time=0.07142849999999999
EXTRACT: note_on channel=0 note=54 velocity=100 time=0.07142849999999999
EXTRACT: note_on channel=9 note=42 velocity=100 time=0
EXTRACT: note_on channel=1 note=68 velocity=100 time=0
EXTRACT: note_off channel=0 note=54 velocity=0 time=0.07142849999999999
EXTRACT: note_off channel=9 note=42 velocity=0 time=0.056547562499999995
EXTRACT: note_on channel=0 note=56 velocity=100 time=0.014880937499999998
EXTRACT: note_off channel=2 note=32 velocity=0 time=0.038690437499999994
EXTRACT: note_on channel=9 note=38 velocity=100 time=0.10416656249999999
EXTRACT: note_off channel=1 note=68 velocity=0 time=0.0208333125
EXTRACT: note_off channel=0 note=56 velocity=0 time=0.023809499999999997
EXTRACT: note_off channel=9 note=38 velocity=0 time=0.08333325
EXTRACT: note_on channel=0 note=56 velocity=100 time=0.014880937499999998
EXTRACT: note_on channel=9 note=42 velocity=100 time=0.14285699999999998
EXTRACT: control_change channel=1 control=10 value=127 time=0
EXTRACT: note_on channel=1 note=68 velocity=100 time=0
EXTRACT: note_off channel=0 note=56 velocity=0 time=0.0446428125
EXTRACT: note_off channel=9 note=42 velocity=0 time=0.08333325
EXTRACT: note_on channel=0 note=56 velocity=100 time=0.014880937499999998
EXTRACT: note_on channel=2 note=31 velocity=100 time=0.07142849999999999
EXTRACT: note_off channel=0 note=56 velocity=0 time=0.038690437499999994
EXTRACT: note_on channel=0 note=54 velocity=100 time=0.0327380625
EXTRACT: note_on channel=9 note=35 velocity=100 time=0
EXTRACT: note_on channel=9 note=36 velocity=100 time=0
EXTRACT: note_off channel=2 note=31 velocity=0 time=0
EXTRACT: note_on channel=2 note=32 velocity=100 time=0
EXTRACT: note_off channel=9 note=35 velocity=0 time=0.1279760625
EXTRACT: note_off channel=9 note=36 velocity=0 time=0
EXTRACT: note_off channel=1 note=68 velocity=0 time=0.008928562499999999
EXTRACT: note_off channel=0 note=54 velocity=0 time=0.10416656249999999
EXTRACT: note_on channel=9 note=42 velocity=100 time=0.0446428125
EXTRACT: note_off channel=9 note=42 velocity=0 time=0.1279760625
EXTRACT: note_off channel=2 note=32 velocity=0 time=0.011904749999999999
EXTRACT: note_on channel=0 note=56 velocity=100 time=0.0029761874999999997
EXTRACT: note_off channel=0 note=56 velocity=0 time=0.14285699999999998
EXTRACT: note_on channel=9 note=38 velocity=100 time=0
EXTRACT: note_on channel=3 note=56 velocity=100 time=0
EXTRACT: note_off channel=9 note=38 velocity=0 time=0.1279760625
EXTRACT: note_off channel=3 note=56 velocity=0 time=0.008928562499999999
EXTRACT: note_on channel=0 note=56 velocity=100 time=0.005952374999999999
EXTRACT: note_on channel=3 note=54 velocity=100 time=0
EXTRACT: note_off channel=0 note=56 velocity=0 time=0.14285699999999998
EXTRACT: note_on channel=9 note=42 velocity=100 time=0
EXTRACT: note_on channel=9 note=49 velocity=60 time=0
EXTRACT: note_off channel=3 note=54 velocity=0 time=0
EXTRACT: note_on channel=3 note=56 velocity=100 time=0
EXTRACT: note_off channel=9 note=42 velocity=0 time=0.1279760625
EXTRACT: note_off channel=9 note=49 velocity=0 time=0
EXTRACT: note_on channel=0 note=56 velocity=100 time=0.014880937499999998
EXTRACT: note_off channel=3 note=56 velocity=0 time=0
EXTRACT: note_on channel=3 note=56 velocity=100 time=0
EXTRACT: note_off channel=0 note=56 velocity=0 time=0.1279760625
EXTRACT: note_on channel=0 note=54 velocity=100 time=0.014880937499999998
EXTRACT: note_on channel=9 note=35 velocity=100 time=0
EXTRACT: note_on channel=9 note=36 velocity=100 time=0
EXTRACT: note_on channel=2 note=32 velocity=100 time=0
EXTRACT: note_off channel=0 note=54 velocity=0 time=0.07142849999999999
EXTRACT: note_off channel=9 note=35 velocity=0 time=0.056547562499999995
EXTRACT: note_off channel=9 note=36 velocity=0 time=0
EXTRACT: note_on channel=0 note=54 velocity=100 time=0.014880937499999998
EXTRACT: note_off channel=0 note=54 velocity=0 time=0.07142849999999999
EXTRACT: note_off channel=3 note=56 velocity=0 time=0.017857124999999998
EXTRACT: note_on channel=0 note=54 velocity=100 time=0.05357137499999999
EXTRACT: note_on channel=9 note=42 velocity=100 time=0
EXTRACT: note_off channel=0 note=54 velocity=0 time=0.07142849999999999
EXTRACT: note_off channel=9 note=42 velocity=0 time=0.056547562499999995
EXTRACT: note_on channel=0 note=56 velocity=100 time=0.014880937499999998
EXTRACT: note_off channel=2 note=32 velocity=0 time=0.038690437499999994
EXTRACT: note_on channel=9 note=38 velocity=100 time=0.10416656249999999
EXTRACT: note_off channel=0 note=56 velocity=0 time=0.0446428125
EXTRACT: note_off channel=9 note=38 velocity=0 time=0.08333325
EXTRACT: note_on channel=0 note=56 velocity=100 time=0.014880937499999998
EXTRACT: note_on channel=9 note=42 velocity=100 time=0.14285699999999998
EXTRACT: note_off channel=0 note=56 velocity=0 time=0.0446428125
EXTRACT: note_off channel=9 note=42 velocity=0 time=0.08333325
EXTRACT: note_on channel=0 note=56 velocity=100 time=0.014880937499999998
EXTRACT: note_on channel=2 note=31 velocity=100 time=0.07142849999999999
EXTRACT: note_off channel=0 note=56 velocity=0 time=0.038690437499999994
EXTRACT: note_on channel=0 note=54 velocity=100 time=0.0327380625
EXTRACT: note_on channel=9 note=35 velocity=100 time=0
EXTRACT: note_on channel=9 note=36 velocity=100 time=0
EXTRACT: note_off channel=2 note=31 velocity=0 time=0
EXTRACT: note_on channel=2 note=32 velocity=100 time=0
EXTRACT: note_off channel=9 note=35 velocity=0 time=0.1279760625
EXTRACT: note_off channel=9 note=36 velocity=0 time=0
EXTRACT: note_off channel=0 note=54 velocity=0 time=0.11309512499999999
EXTRACT: note_on channel=9 note=42 velocity=100 time=0.0446428125
EXTRACT: note_off channel=9 note=42 velocity=0 time=0.1279760625
EXTRACT: note_off channel=2 note=32 velocity=0 time=0.011904749999999999
EXTRACT: note_on channel=0 note=56 velocity=100 time=0.0029761874999999997
EXTRACT: note_off channel=0 note=56 velocity=0 time=0.14285699999999998
EXTRACT: note_on channel=9 note=38 velocity=100 time=0
EXTRACT: note_on channel=3 note=56 velocity=100 time=0
EXTRACT: note_off channel=9 note=38 velocity=0 time=0.1279760625
EXTRACT: note_off channel=3 note=56 velocity=0 time=0.008928562499999999
EXTRACT: note_on channel=0 note=56 velocity=100 time=0.005952374999999999
EXTRACT: note_on channel=3 note=54 velocity=100 time=0
EXTRACT: note_off channel=0 note=56 velocity=0 time=0.14285699999999998
EXTRACT: note_on channel=9 note=35 velocity=100 time=0
EXTRACT: note_on channel=9 note=36 velocity=100 time=0
EXTRACT: note_on channel=9 note=42 velocity=100 time=0
EXTRACT: note_on channel=9 note=49 velocity=60 time=0
EXTRACT: note_off channel=3 note=54 velocity=0 time=0
EXTRACT: note_on channel=3 note=56 velocity=100 time=0
EXTRACT: note_off channel=9 note=35 velocity=0 time=0.1279760625
EXTRACT: note_off channel=9 note=36 velocity=0 time=0
EXTRACT: note_off channel=9 note=42 velocity=0 time=0
EXTRACT: note_off channel=9 note=49 velocity=0 time=0
EXTRACT: note_on channel=0 note=56 velocity=100 time=0.014880937499999998
EXTRACT: note_off channel=3 note=56 velocity=0 time=0
EXTRACT: note_on channel=3 note=56 velocity=100 time=0
EXTRACT: note_off channel=0 note=56 velocity=0 time=0.1279760625
EXTRACT: note_on channel=0 note=54 velocity=100 time=0.014880937499999998
EXTRACT: note_on channel=9 note=35 velocity=100 time=0
EXTRACT: note_on channel=9 note=36 velocity=100 time=0
EXTRACT: note_on channel=2 note=32 velocity=100 time=0
EXTRACT: note_off channel=0 note=54 velocity=0 time=0.07142849999999999
EXTRACT: note_off channel=9 note=35 velocity=0 time=0.056547562499999995
EXTRACT: note_off channel=9 note=36 velocity=0 time=0
EXTRACT: note_on channel=0 note=54 velocity=100 time=0.014880937499999998
EXTRACT: note_off channel=0 note=54 velocity=0 time=0.07142849999999999
EXTRACT: note_off channel=3 note=56 velocity=0 time=0.017857124999999998
EXTRACT: note_on channel=0 note=54 velocity=100 time=0.05357137499999999
EXTRACT: note_on channel=9 note=42 velocity=100 time=0
EXTRACT: control_change channel=1 control=10 value=0 time=0
EXTRACT: note_on channel=1 note=68 velocity=100 time=0
EXTRACT: note_off channel=0 note=54 velocity=0 time=0.07142849999999999
EXTRACT: note_off channel=9 note=42 velocity=0 time=0.056547562499999995
EXTRACT: note_on channel=0 note=56 velocity=100 time=0.014880937499999998
EXTRACT: note_off channel=2 note=32 velocity=0 time=0.038690437499999994
EXTRACT: note_on channel=9 note=38 velocity=100 time=0.10416656249999999
EXTRACT: note_off channel=1 note=68 velocity=0 time=0.0208333125
EXTRACT: note_off channel=0 note=56 velocity=0 time=0.023809499999999997
EXTRACT: note_off channel=9 note=38 velocity=0 time=0.08333325
EXTRACT: note_on channel=0 note=56 velocity=100 time=0.014880937499999998
EXTRACT: note_on channel=9 note=42 velocity=100 time=0.14285699999999998
EXTRACT: control_change channel=1 control=10 value=127 time=0
EXTRACT: note_on channel=1 note=68 velocity=100 time=0
EXTRACT: note_off channel=0 note=56 velocity=0 time=0.0446428125
EXTRACT: note_off channel=9 note=42 velocity=0 time=0.08333325
EXTRACT: note_on channel=0 note=56 velocity=100 time=0.014880937499999998
EXTRACT: note_on channel=2 note=31 velocity=100 time=0.07142849999999999
EXTRACT: note_off channel=0 note=56 velocity=0 time=0.038690437499999994
EXTRACT: note_on channel=0 note=54 velocity=100 time=0.0327380625
EXTRACT: note_on channel=9 note=35 velocity=100 time=0
EXTRACT: note_on channel=9 note=36 velocity=100 time=0
EXTRACT: note_off channel=2 note=31 velocity=0 time=0
EXTRACT: note_on channel=2 note=32 velocity=100 time=0
EXTRACT: note_off channel=9 note=35 velocity=0 time=0.1279760625
EXTRACT: note_off channel=9 note=36 velocity=0 time=0
EXTRACT: note_off channel=1 note=68 velocity=0 time=0.008928562499999999
EXTRACT: note_off channel=0 note=54 velocity=0 time=0.10416656249999999
EXTRACT: note_on channel=9 note=42 velocity=100 time=0.0446428125
EXTRACT: note_off channel=9 note=42 velocity=0 time=0.1279760625
EXTRACT: note_off channel=2 note=32 velocity=0 time=0.011904749999999999
EXTRACT: note_on channel=0 note=56 velocity=100 time=0.0029761874999999997
EXTRACT: note_off channel=0 note=56 velocity=0 time=0.14285699999999998
EXTRACT: note_on channel=9 note=38 velocity=100 time=0
EXTRACT: note_on channel=3 note=56 velocity=100 time=0
EXTRACT: note_off channel=9 note=38 velocity=0 time=0.1279760625
EXTRACT: note_off channel=3 note=56 velocity=0 time=0.008928562499999999
EXTRACT: note_on channel=0 note=56 velocity=100 time=0.005952374999999999
EXTRACT: note_on channel=3 note=54 velocity=100 time=0
EXTRACT: note_off channel=0 note=56 velocity=0 time=0.14285699999999998
EXTRACT: note_on channel=9 note=42 velocity=100 time=0
EXTRACT: note_on channel=9 note=49 velocity=60 time=0
EXTRACT: note_off channel=3 note=54 velocity=0 time=0
EXTRACT: note_on channel=3 note=56 velocity=100 time=0
EXTRACT: note_off channel=9 note=42 velocity=0 time=0.1279760625
EXTRACT: note_off channel=9 note=49 velocity=0 time=0
EXTRACT: note_on channel=0 note=56 velocity=100 time=0.014880937499999998
EXTRACT: note_off channel=3 note=56 velocity=0 time=0
EXTRACT: note_on channel=3 note=56 velocity=100 time=0
EXTRACT: note_off channel=0 note=56 velocity=0 time=0.1279760625
EXTRACT: note_on channel=0 note=54 velocity=100 time=0.014880937499999998
EXTRACT: note_on channel=9 note=35 velocity=100 time=0
EXTRACT: note_on channel=9 note=36 velocity=100 time=0
EXTRACT: note_on channel=2 note=32 velocity=100 time=0
EXTRACT: note_off channel=0 note=54 velocity=0 time=0.07142849999999999
EXTRACT: note_off channel=9 note=35 velocity=0 time=0.056547562499999995
EXTRACT: note_off channel=9 note=36 velocity=0 time=0
EXTRACT: note_on channel=0 note=54 velocity=100 time=0.014880937499999998
EXTRACT: note_off channel=0 note=54 velocity=0 time=0.07142849999999999
EXTRACT: note_off channel=3 note=56 velocity=0 time=0.017857124999999998
EXTRACT: note_on channel=0 note=54 velocity=100 time=0.05357137499999999
EXTRACT: note_on channel=9 note=42 velocity=100 time=0
EXTRACT: note_off channel=2 note=32 velocity=0 time=0
EXTRACT: note_on channel=2 note=32 velocity=80 time=0
EXTRACT: note_off channel=0 note=54 velocity=0 time=0.07142849999999999
EXTRACT: note_off channel=9 note=42 velocity=0 time=0.056547562499999995
EXTRACT: note_on channel=0 note=56 velocity=100 time=0.014880937499999998
EXTRACT: note_on channel=9 note=38 velocity=100 time=0.14285699999999998
EXTRACT: note_off channel=2 note=32 velocity=0 time=0
EXTRACT: note_on channel=2 note=30 velocity=100 time=0
EXTRACT: note_off channel=0 note=56 velocity=0 time=0.0446428125
EXTRACT: note_off channel=9 note=38 velocity=0 time=0.08333325
EXTRACT: note_on channel=0 note=56 velocity=100 time=0.014880937499999998
EXTRACT: note_on channel=9 note=35 velocity=100 time=0.14285699999999998
EXTRACT: note_on channel=9 note=36 velocity=100 time=0
EXTRACT: note_on channel=9 note=42 velocity=100 time=0
EXTRACT: note_off channel=2 note=30 velocity=0 time=0
EXTRACT: note_on channel=2 note=30 velocity=80 time=0
EXTRACT: note_off channel=0 note=56 velocity=0 time=0.0446428125
EXTRACT: note_off channel=9 note=35 velocity=0 time=0.08333325
EXTRACT: note_off channel=9 note=36 velocity=0 time=0
EXTRACT: note_off channel=9 note=42 velocity=0 time=0
EXTRACT: note_on channel=0 note=56 velocity=100 time=0.014880937499999998
EXTRACT: note_off channel=0 note=56 velocity=0 time=0.11011893749999999
EXTRACT: note_on channel=0 note=54 velocity=100 time=0.0327380625
EXTRACT: note_on channel=9 note=35 velocity=100 time=0
EXTRACT: note_on channel=9 note=36 velocity=100 time=0
EXTRACT: note_off channel=2 note=30 velocity=0 time=0
EXTRACT: note_on channel=2 note=29 velocity=100 time=0
EXTRACT: note_off channel=9 note=35 velocity=0 time=0.1279760625
EXTRACT: note_off channel=9 note=36 velocity=0 time=0
EXTRACT: note_off channel=0 note=54 velocity=0 time=0.11309512499999999
EXTRACT: note_on channel=9 note=38 velocity=100 time=0.0446428125
EXTRACT: note_on channel=9 note=42 velocity=100 time=0
EXTRACT: note_off channel=2 note=29 velocity=0 time=0
EXTRACT: note_on channel=2 note=29 velocity=80 time=0
EXTRACT: note_off channel=9 note=38 velocity=0 time=0.1279760625
EXTRACT: note_off channel=9 note=42 velocity=0 time=0
EXTRACT: note_on channel=0 note=56 velocity=100 time=0.014880937499999998
EXTRACT: note_off channel=0 note=56 velocity=0 time=0.14285699999999998
EXTRACT: note_on channel=9 note=38 velocity=100 time=0
EXTRACT: note_off channel=2 note=29 velocity=0 time=0
EXTRACT: note_on channel=2 note=27 velocity=100 time=0
EXTRACT: note_on channel=3 note=56 velocity=100 time=0
EXTRACT: note_off channel=9 note=38 velocity=0 time=0.1279760625
EXTRACT: note_off channel=3 note=56 velocity=0 time=0.008928562499999999
EXTRACT: note_on channel=0 note=56 velocity=100 time=0.005952374999999999
EXTRACT: note_on channel=3 note=54 velocity=100 time=0
EXTRACT: note_off channel=0 note=56 velocity=0 time=0.14285699999999998
EXTRACT: note_on channel=9 note=42 velocity=100 time=0
EXTRACT: note_on channel=9 note=49 velocity=60 time=0
EXTRACT: note_off channel=2 note=27 velocity=0 time=0
EXTRACT: note_on channel=2 note=27 velocity=80 time=0
EXTRACT: note_off channel=3 note=54 velocity=0 time=0
EXTRACT: note_on channel=3 note=56 velocity=100 time=0
EXTRACT: note_off channel=9 note=42 velocity=0 time=0.1279760625
EXTRACT: note_off channel=9 note=49 velocity=0 time=0
EXTRACT: note_on channel=0 note=56 velocity=100 time=0.014880937499999998
EXTRACT: note_off channel=3 note=56 velocity=0 time=0
EXTRACT: note_on channel=3 note=56 velocity=100 time=0
EXTRACT: note_off channel=0 note=56 velocity=0 time=0.1279760625
EXTRACT: note_on channel=0 note=54 velocity=100 time=0.014880937499999998
EXTRACT: note_on channel=9 note=35 velocity=100 time=0
EXTRACT: note_on channel=9 note=36 velocity=100 time=0
EXTRACT: note_off channel=2 note=27 velocity=0 time=0
EXTRACT: note_on channel=2 note=32 velocity=100 time=0
EXTRACT: note_off channel=0 note=54 velocity=0 time=0.07142849999999999
EXTRACT: note_off channel=9 note=35 velocity=0 time=0.056547562499999995
EXTRACT: note_off channel=9 note=36 velocity=0 time=0
EXTRACT: note_on channel=0 note=54 velocity=100 time=0.014880937499999998
EXTRACT: note_off channel=0 note=54 velocity=0 time=0.07142849999999999
EXTRACT: note_off channel=3 note=56 velocity=0 time=0.017857124999999998
EXTRACT: note_on channel=0 note=54 velocity=100 time=0.05357137499999999
EXTRACT: note_on channel=9 note=42 velocity=100 time=0
EXTRACT: control_change channel=1 control=10 value=0 time=0
EXTRACT: note_on channel=1 note=68 velocity=100 time=0
EXTRACT: note_on channel=4 note=66 velocity=100 time=0
EXTRACT: note_off channel=0 note=54 velocity=0 time=0.07142849999999999
EXTRACT: note_off channel=4 note=66 velocity=0 time=0.023809499999999997
EXTRACT: note_off channel=9 note=42 velocity=0 time=0.0327380625
EXTRACT: note_on channel=0 note=56 velocity=100 time=0.014880937499999998
EXTRACT: note_off channel=2 note=32 velocity=0 time=0.038690437499999994
EXTRACT: note_on channel=9 note=38 velocity=100 time=0.10416656249999999
EXTRACT: control_change channel=4 control=10 value=104 time=0
EXTRACT: note_on channel=4 note=68 velocity=100 time=0
EXTRACT: note_off channel=1 note=68 velocity=0 time=0.0208333125
EXTRACT: note_off channel=0 note=56 velocity=0 time=0.023809499999999997
EXTRACT: note_off channel=4 note=68 velocity=0 time=0.0744046875
EXTRACT: note_off channel=9 note=38 velocity=0 time=0.008928562499999999
EXTRACT: note_on channel=0 note=56 velocity=100 time=0.014880937499999998
EXTRACT: note_on channel=9 note=42 velocity=100 time=0.14285699999999998
EXTRACT: control_change channel=1 control=10 value=127 time=0
EXTRACT: note_on channel=1 note=68 velocity=100 time=0
EXTRACT: note_off channel=0 note=56 velocity=0 time=0.0446428125
EXTRACT: note_off channel=9 note=42 velocity=0 time=0.08333325
EXTRACT: note_on channel=0 note=56 velocity=100 time=0.014880937499999998
EXTRACT: control_change channel=4 control=10 value=33 time=0
EXTRACT: note_on channel=4 note=63 velocity=100 time=0
EXTRACT: note_on channel=2 note=31 velocity=100 time=0.07142849999999999
EXTRACT: note_off channel=0 note=56 velocity=0 time=0.038690437499999994
EXTRACT: note_off channel=4 note=63 velocity=0 time=0.008928562499999999
EXTRACT: note_on channel=0 note=54 velocity=100 time=0.023809499999999997
EXTRACT: note_on channel=9 note=35 velocity=100 time=0
EXTRACT: note_on channel=9 note=36 velocity=100 time=0
EXTRACT: note_off channel=2 note=31 velocity=0 time=0
EXTRACT: note_on channel=2 note=32 velocity=100 time=0
EXTRACT: note_off channel=9 note=35 velocity=0 time=0.1279760625
EXTRACT: note_off channel=9 note=36 velocity=0 time=0
EXTRACT: note_off channel=1 note=68 velocity=0 time=0.008928562499999999
EXTRACT: note_off channel=0 note=54 velocity=0 time=0.10416656249999999
EXTRACT: note_on channel=9 note=42 velocity=100 time=0.0446428125
EXTRACT: control_change channel=4 control=10 value=95 time=0
EXTRACT: note_on channel=4 note=66 velocity=100 time=0
EXTRACT: note_off channel=4 note=66 velocity=0 time=0.09523799999999999
EXTRACT: note_off channel=9 note=42 velocity=0 time=0.0327380625
EXTRACT: note_off channel=2 note=32 velocity=0 time=0.011904749999999999
EXTRACT: note_on channel=0 note=56 velocity=100 time=0.0029761874999999997
EXTRACT: note_off channel=0 note=56 velocity=0 time=0.14285699999999998
EXTRACT: note_on channel=9 note=38 velocity=100 time=0
EXTRACT: note_on channel=3 note=56 velocity=100 time=0
EXTRACT: control_change channel=4 control=10 value=33 time=0
EXTRACT: note_on channel=4 note=68 velocity=100 time=0
EXTRACT: note_off channel=9 note=38 velocity=0 time=0.1279760625
EXTRACT: note_off channel=3 note=56 velocity=0 time=0.008928562499999999
EXTRACT: note_on channel=0 note=56 velocity=100 time=0.005952374999999999
EXTRACT: note_on channel=3 note=54 velocity=100 time=0
EXTRACT: note_off channel=4 note=68 velocity=0 time=0
EXTRACT: control_change channel=4 control=10 value=95 time=0
EXTRACT: note_on channel=4 note=71 velocity=100 time=0
EXTRACT: note_off channel=0 note=56 velocity=0 time=0.14285699999999998
EXTRACT: note_on channel=9 note=42 velocity=100 time=0
EXTRACT: note_on channel=9 note=49 velocity=60 time=0
EXTRACT: note_off channel=3 note=54 velocity=0 time=0
EXTRACT: note_on channel=3 note=56 velocity=100 time=0
EXTRACT: note_off channel=4 note=71 velocity=0 time=0.0208333125
EXTRACT: note_off channel=9 note=42 velocity=0 time=0.10714274999999998
EXTRACT: note_off channel=9 note=49 velocity=0 time=0
EXTRACT: note_on channel=0 note=56 velocity=100 time=0.014880937499999998
EXTRACT: note_off channel=3 note=56 velocity=0 time=0
EXTRACT: note_on channel=3 note=56 velocity=100 time=0
EXTRACT: note_off channel=0 note=56 velocity=0 time=0.1279760625
EXTRACT: note_on channel=0 note=54 velocity=100 time=0.014880937499999998
EXTRACT: note_on channel=9 note=35 velocity=100 time=0
EXTRACT: note_on channel=9 note=36 velocity=100 time=0
EXTRACT: note_on channel=2 note=32 velocity=100 time=0
EXTRACT: control_change channel=4 control=10 value=24 time=0
EXTRACT: note_off channel=0 note=54 velocity=0 time=0.07142849999999999
EXTRACT: note_off channel=9 note=35 velocity=0 time=0.056547562499999995
EXTRACT: note_off channel=9 note=36 velocity=0 time=0
EXTRACT: note_on channel=0 note=54 velocity=100 time=0.014880937499999998
EXTRACT: note_off channel=0 note=54 velocity=0 time=0.07142849999999999
EXTRACT: note_off channel=3 note=56 velocity=0 time=0.017857124999999998
EXTRACT: note_on channel=0 note=54 velocity=100 time=0.05357137499999999
EXTRACT: note_on channel=9 note=42 velocity=100 time=0
EXTRACT: control_change channel=4 control=10 value=104 time=0
EXTRACT: note_on channel=4 note=66 velocity=100 time=0
EXTRACT: note_off channel=0 note=54 velocity=0 time=0.07142849999999999
EXTRACT: note_off channel=4 note=66 velocity=0 time=0.023809499999999997
EXTRACT: note_off channel=9 note=42 velocity=0 time=0.0327380625
EXTRACT: note_on channel=0 note=56 velocity=100 time=0.014880937499999998
EXTRACT: note_off channel=2 note=32 velocity=0 time=0.038690437499999994
EXTRACT: note_on channel=9 note=38 velocity=100 time=0.10416656249999999
EXTRACT: note_on channel=4 note=68 velocity=100 time=0
EXTRACT: note_off channel=0 note=56 velocity=0 time=0.0446428125
EXTRACT: note_off channel=4 note=68 velocity=0 time=0.0744046875
EXTRACT: note_off channel=9 note=38 velocity=0 time=0.008928562499999999
EXTRACT: note_on channel=0 note=56 velocity=100 time=0.014880937499999998
EXTRACT: control_change channel=4 control=10 value=33 time=0
EXTRACT: note_on channel=9 note=42 velocity=100 time=0.14285699999999998
EXTRACT: note_off channel=0 note=56 velocity=0 time=0.0446428125
EXTRACT: note_off channel=9 note=42 velocity=0 time=0.08333325
EXTRACT: note_on channel=0 note=56 velocity=100 time=0.014880937499999998
EXTRACT: note_on channel=4 note=63 velocity=100 time=0
EXTRACT: note_on channel=2 note=31 velocity=100 time=0.07142849999999999
EXTRACT: note_off channel=0 note=56 velocity=0 time=0.038690437499999994
EXTRACT: note_off channel=4 note=63 velocity=0 time=0.008928562499999999
EXTRACT: note_on channel=0 note=54 velocity=100 time=0.023809499999999997
EXTRACT: note_on channel=9 note=35 velocity=100 time=0
EXTRACT: note_on channel=9 note=36 velocity=100 time=0
EXTRACT: note_off channel=2 note=31 velocity=0 time=0
EXTRACT: note_on channel=2 note=32 velocity=100 time=0
EXTRACT: control_change channel=4 control=10 value=95 time=0
EXTRACT: note_off channel=9 note=35 velocity=0 time=0.1279760625
EXTRACT: note_off channel=9 note=36 velocity=0 time=0
EXTRACT: note_off channel=0 note=54 velocity=0 time=0.11309512499999999
EXTRACT: note_on channel=9 note=42 velocity=100 time=0.0446428125
EXTRACT: control_change channel=4 control=10 value=33 time=0
EXTRACT: note_on channel=4 note=66 velocity=100 time=0
EXTRACT: note_off channel=4 note=66 velocity=0 time=0.09523799999999999
EXTRACT: note_off channel=9 note=42 velocity=0 time=0.0327380625
EXTRACT: note_off channel=2 note=32 velocity=0 time=0.011904749999999999
EXTRACT: note_on channel=0 note=56 velocity=100 time=0.0029761874999999997
EXTRACT: control_change channel=4 control=10 value=95 time=0
EXTRACT: note_off channel=0 note=56 velocity=0 time=0.14285699999999998
EXTRACT: note_on channel=9 note=38 velocity=100 time=0
EXTRACT: note_on channel=3 note=56 velocity=100 time=0
EXTRACT: note_on channel=4 note=68 velocity=100 time=0
EXTRACT: note_off channel=9 note=38 velocity=0 time=0.1279760625
EXTRACT: note_off channel=3 note=56 velocity=0 time=0.008928562499999999
EXTRACT: note_on channel=0 note=56 velocity=100 time=0.005952374999999999
EXTRACT: note_on channel=3 note=54 velocity=100 time=0
EXTRACT: note_off channel=4 note=68 velocity=0 time=0
EXTRACT: note_on channel=4 note=71 velocity=100 time=0
EXTRACT: note_off channel=0 note=56 velocity=0 time=0.14285699999999998
EXTRACT: note_on channel=9 note=35 velocity=100 time=0
EXTRACT: note_on channel=9 note=36 velocity=100 time=0
EXTRACT: note_on channel=9 note=42 velocity=100 time=0
EXTRACT: note_on channel=9 note=49 velocity=60 time=0
EXTRACT: note_off channel=3 note=54 velocity=0 time=0
EXTRACT: note_on channel=3 note=56 velocity=100 time=0
EXTRACT: note_off channel=4 note=71 velocity=0 time=0.0208333125
EXTRACT: note_off channel=9 note=35 velocity=0 time=0.10714274999999998
EXTRACT: note_off channel=9 note=36 velocity=0 time=0
EXTRACT: note_off channel=9 note=42 velocity=0 time=0
EXTRACT: note_off channel=9 note=49 velocity=0 time=0
EXTRACT: note_on channel=0 note=56 velocity=100 time=0.014880937499999998
EXTRACT: note_off channel=3 note=56 velocity=0 time=0
EXTRACT: note_on channel=3 note=56 velocity=100 time=0
EXTRACT: note_off channel=0 note=56 velocity=0 time=0.1279760625
EXTRACT: note_on channel=0 note=54 velocity=100 time=0.014880937499999998
EXTRACT: note_on channel=9 note=35 velocity=100 time=0
EXTRACT: note_on channel=9 note=36 velocity=100 time=0
EXTRACT: note_on channel=2 note=32 velocity=100 time=0
EXTRACT: control_change channel=4 control=10 value=24 time=0
EXTRACT: note_off channel=0 note=54 velocity=0 time=0.07142849999999999
EXTRACT: note_off channel=9 note=35 velocity=0 time=0.056547562499999995
EXTRACT: note_off channel=9 note=36 velocity=0 time=0
EXTRACT: note_on channel=0 note=54 velocity=100 time=0.014880937499999998
EXTRACT: note_off channel=0 note=54 velocity=0 time=0.07142849999999999
EXTRACT: note_off channel=3 note=56 velocity=0 time=0.017857124999999998
EXTRACT: note_on channel=0 note=54 velocity=100 time=0.05357137499999999
EXTRACT: note_on channel=9 note=42 velocity=100 time=0
EXTRACT: control_change channel=1 control=10 value=0 time=0
EXTRACT: note_on channel=1 note=68 velocity=100 time=0
EXTRACT: control_change channel=4 control=10 value=104 time=0
EXTRACT: note_on channel=4 note=66 velocity=100 time=0
EXTRACT: note_off channel=0 note=54 velocity=0 time=0.07142849999999999
EXTRACT: note_off channel=4 note=66 velocity=0 time=0.023809499999999997
EXTRACT: note_off channel=9 note=42 velocity=0 time=0.0327380625
EXTRACT: note_on channel=0 note=56 velocity=100 time=0.014880937499999998
EXTRACT: note_off channel=2 note=32 velocity=0 time=0.038690437499999994
EXTRACT: note_on channel=9 note=38 velocity=100 time=0.10416656249999999
EXTRACT: note_on channel=4 note=68 velocity=100 time=0
EXTRACT: note_off channel=1 note=68 velocity=0 time=0.0208333125
EXTRACT: note_off channel=0 note=56 velocity=0 time=0.023809499999999997
EXTRACT: note_off channel=4 note=68 velocity=0 time=0.0744046875
EXTRACT: note_off channel=9 note=38 velocity=0 time=0.008928562499999999
EXTRACT: note_on channel=0 note=56 velocity=100 time=0.014880937499999998
EXTRACT: control_change channel=4 control=10 value=33 time=0
EXTRACT: note_on channel=9 note=42 velocity=100 time=0.14285699999999998
EXTRACT: control_change channel=1 control=10 value=127 time=0
EXTRACT: note_on channel=1 note=68 velocity=100 time=0
EXTRACT: note_off channel=0 note=56 velocity=0 time=0.0446428125
EXTRACT: note_off channel=9 note=42 velocity=0 time=0.08333325
EXTRACT: note_on channel=0 note=56 velocity=100 time=0.014880937499999998
EXTRACT: note_on channel=4 note=63 velocity=100 time=0
EXTRACT: note_on channel=2 note=31 velocity=100 time=0.07142849999999999
EXTRACT: note_off channel=0 note=56 velocity=0 time=0.038690437499999994
EXTRACT: note_off channel=4 note=63 velocity=0 time=0.008928562499999999
EXTRACT: note_on channel=0 note=54 velocity=100 time=0.023809499999999997
EXTRACT: note_on channel=9 note=35 velocity=100 time=0
EXTRACT: note_on channel=9 note=36 velocity=100 time=0
EXTRACT: note_off channel=2 note=31 velocity=0 time=0
EXTRACT: note_on channel=2 note=32 velocity=100 time=0
EXTRACT: control_change channel=4 control=10 value=95 time=0
EXTRACT: note_off channel=9 note=35 velocity=0 time=0.1279760625
EXTRACT: note_off channel=9 note=36 velocity=0 time=0
EXTRACT: note_off channel=1 note=68 velocity=0 time=0.008928562499999999
EXTRACT: note_off channel=0 note=54 velocity=0 time=0.10416656249999999
EXTRACT: note_on channel=9 note=42 velocity=100 time=0.0446428125
EXTRACT: control_change channel=4 control=10 value=33 time=0
EXTRACT: note_on channel=4 note=66 velocity=100 time=0
EXTRACT: note_off channel=4 note=66 velocity=0 time=0.09523799999999999
EXTRACT: note_off channel=9 note=42 velocity=0 time=0.0327380625
EXTRACT: note_off channel=2 note=32 velocity=0 time=0.011904749999999999
EXTRACT: note_on channel=0 note=56 velocity=100 time=0.0029761874999999997
EXTRACT: control_change channel=4 control=10 value=95 time=0
EXTRACT: note_off channel=0 note=56 velocity=0 time=0.14285699999999998
EXTRACT: note_on channel=9 note=38 velocity=100 time=0
EXTRACT: note_on channel=3 note=56 velocity=100 time=0
EXTRACT: note_on channel=4 note=68 velocity=100 time=0
EXTRACT: note_off channel=9 note=38 velocity=0 time=0.1279760625
EXTRACT: note_off channel=3 note=56 velocity=0 time=0.008928562499999999
EXTRACT: note_on channel=0 note=56 velocity=100 time=0.005952374999999999
EXTRACT: note_on channel=3 note=54 velocity=100 time=0
EXTRACT: note_off channel=4 note=68 velocity=0 time=0
EXTRACT: note_on channel=4 note=71 velocity=100 time=0
EXTRACT: note_off channel=0 note=56 velocity=0 time=0.14285699999999998
EXTRACT: note_on channel=9 note=42 velocity=100 time=0
EXTRACT: note_on channel=9 note=49 velocity=60 time=0
EXTRACT: note_off channel=3 note=54 velocity=0 time=0
EXTRACT: note_on channel=3 note=56 velocity=100 time=0
EXTRACT: note_off channel=4 note=71 velocity=0 time=0.0208333125
EXTRACT: note_off channel=9 note=42 velocity=0 time=0.10714274999999998
EXTRACT: note_off channel=9 note=49 velocity=0 time=0
EXTRACT: note_on channel=0 note=56 velocity=100 time=0.014880937499999998
EXTRACT: note_off channel=3 note=56 velocity=0 time=0
EXTRACT: note_on channel=3 note=56 velocity=100 time=0
EXTRACT: note_off channel=0 note=56 velocity=0 time=0.1279760625
EXTRACT: note_on channel=0 note=54 velocity=100 time=0.014880937499999998
EXTRACT: note_on channel=5 note=56 velocity=100 time=0
EXTRACT: note_off channel=0 note=54 velocity=0 time=0.07142849999999999
EXTRACT: note_off channel=5 note=56 velocity=0 time=0.065476125
EXTRACT: note_on channel=0 note=54 velocity=100 time=0.005952374999999999
EXTRACT: note_on channel=5 note=54 velocity=100 time=0
EXTRACT: note_off channel=0 note=54 velocity=0 time=0.07142849999999999
EXTRACT: note_off channel=3 note=56 velocity=0 time=0.017857124999999998
EXTRACT: note_on channel=0 note=54 velocity=100 time=0.05357137499999999
EXTRACT: note_off channel=5 note=54 velocity=0 time=0
EXTRACT: note_on channel=5 note=56 velocity=100 time=0
EXTRACT: note_off channel=0 note=54 velocity=0 time=0.07142849999999999
EXTRACT: note_on channel=0 note=56 velocity=100 time=0.07142849999999999
EXTRACT: note_off channel=5 note=56 velocity=0 time=0
EXTRACT: note_on channel=5 note=54 velocity=100 time=0
EXTRACT: note_off channel=5 note=54 velocity=0 time=0.14285699999999998
EXTRACT: note_on channel=5 note=56 velocity=100 time=0
EXTRACT: note_off channel=0 note=56 velocity=0 time=0.0446428125
EXTRACT: note_off channel=5 note=56 velocity=0 time=0.09226181249999998
EXTRACT: note_on channel=0 note=56 velocity=100 time=0.005952374999999999
EXTRACT: note_on channel=5 note=54 velocity=100 time=0
EXTRACT: note_off channel=5 note=54 velocity=0 time=0.14285699999999998
EXTRACT: note_on channel=5 note=56 velocity=100 time=0
EXTRACT: note_off channel=0 note=56 velocity=0 time=0.0446428125
EXTRACT: note_on channel=0 note=56 velocity=100 time=0.0982141875
EXTRACT: note_off channel=5 note=56 velocity=0 time=0
EXTRACT: note_on channel=5 note=54 velocity=100 time=0
EXTRACT: note_off channel=0 note=56 velocity=0 time=0.11011893749999999
EXTRACT: note_on channel=0 note=54 velocity=100 time=0.0327380625
EXTRACT: note_off channel=5 note=54 velocity=0 time=0
EXTRACT: note_on channel=5 note=56 velocity=100 time=0
EXTRACT: note_off channel=5 note=56 velocity=0 time=0.13690462499999997
EXTRACT: note_on channel=5 note=54 velocity=100 time=0.005952374999999999
EXTRACT: note_off channel=0 note=54 velocity=0 time=0.0982141875
EXTRACT: note_on channel=9 note=35 velocity=100 time=0.0446428125
EXTRACT: note_on channel=9 note=36 velocity=100 time=0
EXTRACT: note_off channel=5 note=54 velocity=0 time=0
EXTRACT: note_on channel=5 note=56 velocity=100 time=0
EXTRACT: note_off channel=9 note=35 velocity=0 time=0.1279760625
EXTRACT: note_off channel=9 note=36 velocity=0 time=0
EXTRACT: note_on channel=0 note=56 velocity=100 time=0.014880937499999998
EXTRACT: note_off channel=5 note=56 velocity=0 time=0
EXTRACT: note_on channel=5 note=54 velocity=100 time=0
EXTRACT: note_off channel=0 note=56 velocity=0 time=0.14285699999999998
EXTRACT: note_on channel=9 note=38 velocity=100 time=0
EXTRACT: note_off channel=5 note=54 velocity=0 time=0
EXTRACT: note_on channel=5 note=56 velocity=100 time=0
EXTRACT: note_off channel=9 note=38 velocity=0 time=0.1279760625
EXTRACT: note_off channel=5 note=56 velocity=0 time=0.008928562499999999
EXTRACT: note_on channel=0 note=56 velocity=100 time=0.005952374999999999
EXTRACT: note_on channel=5 note=54 velocity=100 time=0
EXTRACT: note_off channel=0 note=56 velocity=0 time=0.14285699999999998
EXTRACT: note_off channel=5 note=54 velocity=0 time=0
EXTRACT: note_on channel=5 note=56 velocity=100 time=0
EXTRACT: note_on channel=0 note=56 velocity=100 time=0.14285699999999998
EXTRACT: note_off channel=5 note=56 velocity=0 time=0
EXTRACT: note_on channel=5 note=54 velocity=100 time=0
EXTRACT: note_off channel=0 note=56 velocity=0 time=0.1279760625
EXTRACT: note_on channel=0 note=54 velocity=100 time=0.014880937499999998
EXTRACT: note_on channel=9 note=35 velocity=100 time=0
EXTRACT: note_on channel=9 note=36 velocity=100 time=0
EXTRACT: note_on channel=2 note=32 velocity=100 time=0
EXTRACT: note_off channel=5 note=54 velocity=0 time=0
EXTRACT: note_on channel=5 note=60 velocity=60 time=0
EXTRACT: note_off channel=0 note=54 velocity=0 time=0.07142849999999999
EXTRACT: note_off channel=9 note=35 velocity=0 time=0.056547562499999995
EXTRACT: note_off channel=9 note=36 velocity=0 time=0
EXTRACT: note_on channel=0 note=54 velocity=100 time=0.014880937499999998
EXTRACT: note_off channel=0 note=54 velocity=0 time=0.07142849999999999
EXTRACT: note_on channel=0 note=54 velocity=100 time=0.07142849999999999
EXTRACT: note_on channel=9 note=42 velocity=100 time=0
EXTRACT: note_on channel=6 note=63 velocity=100 time=0
EXTRACT: note_off channel=0 note=54 velocity=0 time=0.07142849999999999
EXTRACT: note_off channel=9 note=42 velocity=0 time=0.056547562499999995
EXTRACT: note_off channel=6 note=63 velocity=0 time=0.008928562499999999
EXTRACT: note_on channel=0 note=56 velocity=100 time=0.005952374999999999
EXTRACT: note_on channel=6 note=63 velocity=100 time=0
EXTRACT: note_off channel=2 note=32 velocity=0 time=0.038690437499999994
EXTRACT: note_off channel=5 note=60 velocity=0 time=0.035714249999999996
EXTRACT: note_on channel=9 note=38 velocity=100 time=0.06845231249999999
EXTRACT: note_off channel=6 note=63 velocity=0 time=0
EXTRACT: note_on channel=6 note=63 velocity=100 time=0
EXTRACT: note_off channel=0 note=56 velocity=0 time=0.0446428125
EXTRACT: note_off channel=9 note=38 velocity=0 time=0.08333325
EXTRACT: note_on channel=0 note=56 velocity=100 time=0.014880937499999998
EXTRACT: note_off channel=6 note=63 velocity=0 time=0.11607131249999998
EXTRACT: note_on channel=9 note=42 velocity=100 time=0.026785687499999995
EXTRACT: note_on channel=6 note=63 velocity=100 time=0.014880937499999998
EXTRACT: note_off channel=0 note=56 velocity=0 time=0.029761874999999997
EXTRACT: note_off channel=9 note=42 velocity=0 time=0.08333325
EXTRACT: note_off channel=6 note=63 velocity=0 time=0.005952374999999999
EXTRACT: note_on channel=0 note=56 velocity=100 time=0.008928562499999999
EXTRACT: note_on channel=2 note=31 velocity=100 time=0.07142849999999999
EXTRACT: note_off channel=0 note=56 velocity=0 time=0.038690437499999994
EXTRACT: note_on channel=0 note=54 velocity=100 time=0.0327380625
EXTRACT: note_on channel=9 note=35 velocity=100 time=0
EXTRACT: note_on channel=9 note=36 velocity=100 time=0
EXTRACT: note_off channel=2 note=31 velocity=0 time=0
EXTRACT: note_on channel=2 note=32 velocity=100 time=0
EXTRACT: note_on channel=6 note=63 velocity=100 time=0.008928562499999999
EXTRACT: note_off channel=9 note=35 velocity=0 time=0.11904749999999999
EXTRACT: note_off channel=9 note=36 velocity=0 time=0
EXTRACT: note_off channel=6 note=63 velocity=0 time=0.023809499999999997
EXTRACT: note_off channel=0 note=54 velocity=0 time=0.089285625
EXTRACT: note_on channel=9 note=42 velocity=100 time=0.0446428125
EXTRACT: note_on channel=6 note=61 velocity=100 time=0
EXTRACT: note_off channel=6 note=61 velocity=0 time=0.09523799999999999
EXTRACT: note_off channel=9 note=42 velocity=0 time=0.0327380625
EXTRACT: note_off channel=2 note=32 velocity=0 time=0.011904749999999999
EXTRACT: note_on channel=0 note=56 velocity=100 time=0.0029761874999999997
EXTRACT: note_off channel=0 note=56 velocity=0 time=0.14285699999999998
EXTRACT: note_on channel=9 note=38 velocity=100 time=0
EXTRACT: note_on channel=3 note=56 velocity=100 time=0
EXTRACT: note_on channel=6 note=61 velocity=100 time=0
EXTRACT: note_off channel=9 note=38 velocity=0 time=0.1279760625
EXTRACT: note_off channel=3 note=56 velocity=0 time=0.008928562499999999
EXTRACT: note_on channel=0 note=56 velocity=100 time=0.005952374999999999
EXTRACT: note_on channel=3 note=54 velocity=100 time=0
EXTRACT: note_off channel=0 note=56 velocity=0 time=0.14285699999999998
EXTRACT: note_on channel=9 note=42 velocity=100 time=0
EXTRACT: note_on channel=9 note=49 velocity=60 time=0
EXTRACT: note_off channel=3 note=54 velocity=0 time=0
EXTRACT: note_on channel=3 note=56 velocity=100 time=0
EXTRACT: note_off channel=6 note=61 velocity=0 time=0
EXTRACT: note_on channel=6 note=56 velocity=100 time=0
EXTRACT: note_off channel=9 note=42 velocity=0 time=0.1279760625
EXTRACT: note_off channel=9 note=49 velocity=0 time=0
EXTRACT: note_on channel=0 note=56 velocity=100 time=0.014880937499999998
EXTRACT: note_off channel=3 note=56 velocity=0 time=0
EXTRACT: note_on channel=3 note=56 velocity=100 time=0
EXTRACT: note_off channel=6 note=56 velocity=0 time=0
EXTRACT: note_off channel=0 note=56 velocity=0 time=0.1279760625
EXTRACT: note_on channel=0 note=54 velocity=100 time=0.014880937499999998
EXTRACT: note_on channel=9 note=35 velocity=100 time=0
EXTRACT: note_on channel=9 note=36 velocity=100 time=0
EXTRACT: note_on channel=2 note=32 velocity=100 time=0
EXTRACT: note_on channel=6 note=56 velocity=100 time=0
EXTRACT: note_off channel=0 note=54 velocity=0 time=0.07142849999999999
EXTRACT: note_off channel=9 note=35 velocity=0 time=0.056547562499999995
EXTRACT: note_off channel=9 note=36 velocity=0 time=0
EXTRACT: note_off channel=6 note=56 velocity=0 time=0.008928562499999999
EXTRACT: note_on channel=0 note=54 velocity=100 time=0.005952374999999999
EXTRACT: note_off channel=0 note=54 velocity=0 time=0.07142849999999999
EXTRACT: note_off channel=3 note=56 velocity=0 time=0.017857124999999998
EXTRACT: note_on channel=0 note=54 velocity=100 time=0.05357137499999999
EXTRACT: note_on channel=9 note=42 velocity=100 time=0
EXTRACT: note_on channel=6 note=56 velocity=100 time=0
EXTRACT: note_off channel=0 note=54 velocity=0 time=0.07142849999999999
EXTRACT: note_off channel=9 note=42 velocity=0 time=0.056547562499999995
EXTRACT: note_on channel=0 note=56 velocity=100 time=0.014880937499999998
EXTRACT: note_off channel=6 note=56 velocity=0 time=0
EXTRACT: note_on channel=6 note=56 velocity=100 time=0
EXTRACT: note_off channel=2 note=32 velocity=0 time=0.038690437499999994
EXTRACT: note_on channel=9 note=38 velocity=100 time=0.10416656249999999
EXTRACT: note_off channel=6 note=56 velocity=0 time=0
EXTRACT: note_on channel=6 note=58 velocity=100 time=0
EXTRACT: note_off channel=0 note=56 velocity=0 time=0.0446428125
EXTRACT: note_off channel=6 note=58 velocity=0 time=0.0744046875
EXTRACT: note_off channel=9 note=38 velocity=0 time=0.008928562499999999
EXTRACT: note_on channel=0 note=56 velocity=100 time=0.014880937499999998
EXTRACT: note_on channel=9 note=42 velocity=100 time=0.14285699999999998
EXTRACT: note_on channel=6 note=61 velocity=100 time=0
EXTRACT: note_off channel=0 note=56 velocity=0 time=0.0446428125
EXTRACT: note_off channel=9 note=42 velocity=0 time=0.08333325
EXTRACT: note_off channel=6 note=61 velocity=0 time=0.008928562499999999
EXTRACT: note_on channel=0 note=56 velocity=100 time=0.005952374999999999
EXTRACT: note_on channel=6 note=63 velocity=100 time=0
EXTRACT: note_on channel=2 note=31 velocity=100 time=0.07142849999999999
EXTRACT: note_off channel=0 note=56 velocity=0 time=0.038690437499999994
EXTRACT: note_on channel=0 note=54 velocity=100 time=0.0327380625
EXTRACT: note_on channel=9 note=35 velocity=100 time=0
EXTRACT: note_on channel=9 note=36 velocity=100 time=0
EXTRACT: note_off channel=2 note=31 velocity=0 time=0
EXTRACT: note_on channel=2 note=32 velocity=100 time=0
EXTRACT: note_off channel=6 note=63 velocity=0 time=0
EXTRACT: note_on channel=6 note=63 velocity=100 time=0
EXTRACT: note_off channel=9 note=35 velocity=0 time=0.1279760625
EXTRACT: note_off channel=9 note=36 velocity=0 time=0
EXTRACT: note_off channel=0 note=54 velocity=0 time=0.11309512499999999
EXTRACT: note_off channel=6 note=63 velocity=0 time=0.017857124999999998
EXTRACT: note_on channel=9 note=42 velocity=100 time=0.026785687499999995
EXTRACT: note_on channel=6 note=66 velocity=100 time=0
EXTRACT: note_off channel=6 note=66 velocity=0 time=0.11904749999999999
EXTRACT: note_off channel=9 note=42 velocity=0 time=0.008928562499999999
EXTRACT: note_off channel=2 note=32 velocity=0 time=0.011904749999999999
EXTRACT: note_on channel=0 note=56 velocity=100 time=0.0029761874999999997
EXTRACT: note_off channel=0 note=56 velocity=0 time=0.14285699999999998
EXTRACT: note_on channel=9 note=38 velocity=100 time=0
EXTRACT: note_on channel=3 note=56 velocity=100 time=0
EXTRACT: note_on channel=6 note=63 velocity=100 time=0
EXTRACT: note_off channel=9 note=38 velocity=0 time=0.1279760625
EXTRACT: note_off channel=3 note=56 velocity=0 time=0.008928562499999999
EXTRACT: note_on channel=0 note=56 velocity=100 time=0.005952374999999999
EXTRACT: note_on channel=3 note=54 velocity=100 time=0
EXTRACT: note_off channel=0 note=56 velocity=0 time=0.14285699999999998
EXTRACT: note_on channel=9 note=35 velocity=100 time=0
EXTRACT: note_on channel=9 note=36 velocity=100 time=0
EXTRACT: note_on channel=9 note=42 velocity=100 time=0
EXTRACT: note_on channel=9 note=49 velocity=60 time=0
EXTRACT: note_off channel=3 note=54 velocity=0 time=0
EXTRACT: note_on channel=3 note=56 velocity=100 time=0
EXTRACT: note_off channel=6 note=63 velocity=0 time=0
EXTRACT: note_on channel=6 note=56 velocity=100 time=0
EXTRACT: note_off channel=9 note=35 velocity=0 time=0.1279760625
EXTRACT: note_off channel=9 note=36 velocity=0 time=0
EXTRACT: note_off channel=9 note=42 velocity=0 time=0
EXTRACT: note_off channel=9 note=49 velocity=0 time=0
EXTRACT: note_on channel=0 note=56 velocity=100 time=0.014880937499999998
EXTRACT: note_off channel=3 note=56 velocity=0 time=0
EXTRACT: note_on channel=3 note=56 velocity=100 time=0
EXTRACT: note_off channel=6 note=56 velocity=0 time=0
EXTRACT: note_off channel=0 note=56 velocity=0 time=0.1279760625
EXTRACT: note_on channel=0 note=54 velocity=100 time=0.014880937499999998
EXTRACT: note_on channel=9 note=35 velocity=100 time=0
EXTRACT: note_on channel=9 note=36 velocity=100 time=0
EXTRACT: note_on channel=2 note=32 velocity=100 time=0
EXTRACT: note_on channel=6 note=56 velocity=100 time=0
EXTRACT: note_off channel=0 note=54 velocity=0 time=0.07142849999999999
EXTRACT: note_off channel=9 note=35 velocity=0 time=0.056547562499999995
EXTRACT: note_off channel=9 note=36 velocity=0 time=0
EXTRACT: note_off channel=6 note=56 velocity=0 time=0.008928562499999999
EXTRACT: note_on channel=0 note=54 velocity=100 time=0.005952374999999999
EXTRACT: note_off channel=0 note=54 velocity=0 time=0.07142849999999999
EXTRACT: note_off channel=3 note=56 velocity=0 time=0.017857124999999998
EXTRACT: note_on channel=0 note=54 velocity=100 time=0.05357137499999999
EXTRACT: note_on channel=9 note=42 velocity=100 time=0
EXTRACT: note_on channel=6 note=56 velocity=100 time=0
EXTRACT: note_off channel=0 note=54 velocity=0 time=0.07142849999999999
EXTRACT: note_off channel=9 note=42 velocity=0 time=0.056547562499999995
EXTRACT: note_on channel=0 note=56 velocity=100 time=0.014880937499999998
EXTRACT: note_off channel=6 note=56 velocity=0 time=0
EXTRACT: note_on channel=6 note=56 velocity=100 time=0
EXTRACT: note_off channel=2 note=32 velocity=0 time=0.038690437499999994
EXTRACT: note_on channel=9 note=38 velocity=100 time=0.10416656249999999
EXTRACT: note_off channel=6 note=56 velocity=0 time=0
EXTRACT: note_on channel=6 note=58 velocity=100 time=0
EXTRACT: note_off channel=0 note=56 velocity=0 time=0.0446428125
EXTRACT: note_off channel=6 note=58 velocity=0 time=0.0744046875
EXTRACT: note_off channel=9 note=38 velocity=0 time=0.008928562499999999
EXTRACT: note_on channel=0 note=56 velocity=100 time=0.014880937499999998
EXTRACT: note_on channel=9 note=42 velocity=100 time=0.14285699999999998
EXTRACT: note_on channel=6 note=61 velocity=100 time=0
EXTRACT: note_off channel=0 note=56 velocity=0 time=0.0446428125
EXTRACT: note_off channel=9 note=42 velocity=0 time=0.08333325
EXTRACT: note_off channel=6 note=61 velocity=0 time=0.008928562499999999
EXTRACT: note_on channel=0 note=56 velocity=100 time=0.005952374999999999
EXTRACT: note_on channel=6 note=63 velocity=100 time=0
EXTRACT: note_on channel=2 note=31 velocity=100 time=0.07142849999999999
EXTRACT: note_off channel=0 note=56 velocity=0 time=0.038690437499999994
EXTRACT: note_on channel=0 note=54 velocity=100 time=0.0327380625
EXTRACT: note_on channel=9 note=35 velocity=100 time=0
EXTRACT: note_on channel=9 note=36 velocity=100 time=0
EXTRACT: note_off channel=2 note=31 velocity=0 time=0
EXTRACT: note_on channel=2 note=32 velocity=100 time=0
EXTRACT: note_off channel=6 note=63 velocity=0 time=0
EXTRACT: note_on channel=6 note=63 velocity=100 time=0
EXTRACT: note_off channel=9 note=35 velocity=0 time=0.1279760625
EXTRACT: note_off channel=9 note=36 velocity=0 time=0
EXTRACT: note_off channel=0 note=54 velocity=0 time=0.11309512499999999
EXTRACT: note_off channel=6 note=63 velocity=0 time=0.017857124999999998
EXTRACT: note_on channel=9 note=42 velocity=100 time=0.026785687499999995
EXTRACT: note_on channel=6 note=66 velocity=100 time=0
EXTRACT: note_off channel=6 note=66 velocity=0 time=0.11904749999999999
EXTRACT: note_off channel=9 note=42 velocity=0 time=0.008928562499999999
EXTRACT: note_off channel=2 note=32 velocity=0 time=0.011904749999999999
EXTRACT: note_on channel=0 note=56 velocity=100 time=0.0029761874999999997
EXTRACT: note_off channel=0 note=56 velocity=0 time=0.14285699999999998
EXTRACT: note_on channel=9 note=38 velocity=100 time=0
EXTRACT: note_on channel=3 note=56 velocity=100 time=0
EXTRACT: note_on channel=6 note=63 velocity=100 time=0
EXTRACT: note_off channel=9 note=38 velocity=0 time=0.1279760625
EXTRACT: note_off channel=3 note=56 velocity=0 time=0.008928562499999999
EXTRACT: note_on channel=0 note=56 velocity=100 time=0.005952374999999999
EXTRACT: note_on channel=3 note=54 velocity=100 time=0
EXTRACT: note_off channel=0 note=56 velocity=0 time=0.14285699999999998
EXTRACT: note_on channel=9 note=42 velocity=100 time=0
EXTRACT: note_on channel=9 note=49 velocity=60 time=0
EXTRACT: note_off channel=3 note=54 velocity=0 time=0
EXTRACT: note_on channel=3 note=56 velocity=100 time=0
EXTRACT: note_off channel=6 note=63 velocity=0 time=0.06845231249999999
EXTRACT: note_off channel=9 note=42 velocity=0 time=0.05952374999999999
EXTRACT: note_off channel=9 note=49 velocity=0 time=0
EXTRACT: note_on channel=0 note=56 velocity=100 time=0.014880937499999998
EXTRACT: note_off channel=3 note=56 velocity=0 time=0
EXTRACT: note_on channel=3 note=56 velocity=100 time=0
EXTRACT: note_off channel=0 note=56 velocity=0 time=0.1279760625
EXTRACT: note_on channel=0 note=54 velocity=100 time=0.014880937499999998
EXTRACT: note_on channel=9 note=35 velocity=100 time=0
EXTRACT: note_on channel=9 note=36 velocity=100 time=0
EXTRACT: note_on channel=2 note=32 velocity=100 time=0
EXTRACT: note_on channel=6 note=56 velocity=100 time=0
EXTRACT: note_off channel=0 note=54 velocity=0 time=0.07142849999999999
EXTRACT: note_off channel=9 note=35 velocity=0 time=0.056547562499999995
EXTRACT: note_off channel=9 note=36 velocity=0 time=0
EXTRACT: note_off channel=6 note=56 velocity=0 time=0.008928562499999999
EXTRACT: note_on channel=0 note=54 velocity=100 time=0.005952374999999999
EXTRACT: note_off channel=0 note=54 velocity=0 time=0.07142849999999999
EXTRACT: note_off channel=3 note=56 velocity=0 time=0.017857124999999998
EXTRACT: note_on channel=0 note=54 velocity=100 time=0.05357137499999999
EXTRACT: note_on channel=9 note=42 velocity=100 time=0
EXTRACT: note_off channel=2 note=32 velocity=0 time=0
EXTRACT: note_on channel=2 note=32 velocity=80 time=0
EXTRACT: note_on channel=6 note=56 velocity=100 time=0
EXTRACT: note_off channel=0 note=54 velocity=0 time=0.07142849999999999
EXTRACT: note_off channel=9 note=42 velocity=0 time=0.056547562499999995
EXTRACT: note_on channel=0 note=56 velocity=100 time=0.014880937499999998
EXTRACT: note_off channel=6 note=56 velocity=0 time=0.11607131249999998
EXTRACT: note_on channel=9 note=38 velocity=100 time=0.026785687499999995
EXTRACT: note_off channel=2 note=32 velocity=0 time=0
EXTRACT: note_on channel=2 note=30 velocity=100 time=0
EXTRACT: note_on channel=6 note=58 velocity=100 time=0
EXTRACT: note_off channel=0 note=56 velocity=0 time=0.0446428125
EXTRACT: note_off channel=6 note=58 velocity=0 time=0.0744046875
EXTRACT: note_off channel=9 note=38 velocity=0 time=0.008928562499999999
EXTRACT: note_on channel=0 note=56 velocity=100 time=0.014880937499999998
EXTRACT: note_on channel=9 note=35 velocity=100 time=0.14285699999999998
EXTRACT: note_on channel=9 note=36 velocity=100 time=0
EXTRACT: note_on channel=9 note=42 velocity=100 time=0
EXTRACT: note_off channel=2 note=30 velocity=0 time=0
EXTRACT: note_on channel=2 note=30 velocity=80 time=0
EXTRACT: note_on channel=6 note=61 velocity=100 time=0
EXTRACT: note_off channel=0 note=56 velocity=0 time=0.0446428125
EXTRACT: note_off channel=9 note=35 velocity=0 time=0.08333325
EXTRACT: note_off channel=9 note=36 velocity=0 time=0
EXTRACT: note_off channel=9 note=42 velocity=0 time=0
EXTRACT: note_off channel=6 note=61 velocity=0 time=0.008928562499999999
EXTRACT: note_on channel=0 note=56 velocity=100 time=0.005952374999999999
EXTRACT: note_off channel=0 note=56 velocity=0 time=0.11011893749999999
EXTRACT: note_on channel=0 note=54 velocity=100 time=0.0327380625
EXTRACT: note_on channel=9 note=35 velocity=100 time=0
EXTRACT: note_on channel=9 note=36 velocity=100 time=0
EXTRACT: note_off channel=2 note=30 velocity=0 time=0
EXTRACT: note_on channel=2 note=29 velocity=100 time=0
EXTRACT: note_on channel=6 note=63 velocity=100 time=0
EXTRACT: note_off channel=9 note=35 velocity=0 time=0.1279760625
EXTRACT: note_off channel=9 note=36 velocity=0 time=0
EXTRACT: note_off channel=0 note=54 velocity=0 time=0.11309512499999999
EXTRACT: note_off channel=6 note=63 velocity=0 time=0.017857124999999998
EXTRACT: note_on channel=9 note=38 velocity=100 time=0.026785687499999995
EXTRACT: note_on channel=9 note=42 velocity=100 time=0
EXTRACT: note_off channel=2 note=29 velocity=0 time=0
EXTRACT: note_on channel=2 note=29 velocity=80 time=0
EXTRACT: note_on channel=6 note=66 velocity=100 time=0
EXTRACT: note_off channel=6 note=66 velocity=0 time=0.11904749999999999
EXTRACT: note_off channel=9 note=38 velocity=0 time=0.008928562499999999
EXTRACT: note_off channel=9 note=42 velocity=0 time=0
EXTRACT: note_on channel=0 note=56 velocity=100 time=0.014880937499999998
EXTRACT: note_off channel=0 note=56 velocity=0 time=0.14285699999999998
EXTRACT: note_on channel=9 note=38 velocity=100 time=0
EXTRACT: note_off channel=2 note=29 velocity=0 time=0
EXTRACT: note_on channel=2 note=27 velocity=100 time=0
EXTRACT: note_on channel=3 note=56 velocity=100 time=0
EXTRACT: note_on channel=6 note=63 velocity=100 time=0
EXTRACT: note_off channel=9 note=38 velocity=0 time=0.1279760625
EXTRACT: note_off channel=3 note=56 velocity=0 time=0.008928562499999999
EXTRACT: note_on channel=0 note=56 velocity=100 time=0.005952374999999999
EXTRACT: note_on channel=3 note=54 velocity=100 time=0
EXTRACT: note_off channel=0 note=56 velocity=0 time=0.14285699999999998
EXTRACT: note_on channel=9 note=42 velocity=100 time=0
EXTRACT: note_on channel=9 note=49 velocity=60 time=0
EXTRACT: note_off channel=2 note=27 velocity=0 time=0
EXTRACT: note_on channel=2 note=27 velocity=80 time=0
EXTRACT: note_off channel=3 note=54 velocity=0 time=0
EXTRACT: note_on channel=3 note=56 velocity=100 time=0
EXTRACT: note_off channel=6 note=63 velocity=0 time=0.06845231249999999
EXTRACT: note_off channel=9 note=42 velocity=0 time=0.05952374999999999
EXTRACT: note_off channel=9 note=49 velocity=0 time=0
EXTRACT: note_on channel=0 note=56 velocity=100 time=0.014880937499999998
EXTRACT: note_off channel=3 note=56 velocity=0 time=0
EXTRACT: note_on channel=3 note=56 velocity=100 time=0
EXTRACT: note_off channel=0 note=56 velocity=0 time=0.1279760625
EXTRACT: note_on channel=0 note=54 velocity=100 time=0.014880937499999998
EXTRACT: note_on channel=9 note=35 velocity=100 time=0
EXTRACT: note_on channel=9 note=36 velocity=100 time=0
EXTRACT: note_on channel=2 note=32 velocity=100 time=0
EXTRACT: note_off channel=0 note=54 velocity=0 time=0.07142849999999999
EXTRACT: note_off channel=9 note=35 velocity=0 time=0.056547562499999995
EXTRACT: note_off channel=9 note=36 velocity=0 time=0
EXTRACT: note_on channel=0 note=54 velocity=100 time=0.014880937499999998
EXTRACT: note_off channel=2 note=27 velocity=0 time=0.038690437499999994
EXTRACT: note_off channel=0 note=54 velocity=0 time=0.0327380625
EXTRACT: note_off channel=3 note=56 velocity=0 time=0.017857124999999998
EXTRACT: note_on channel=0 note=54 velocity=100 time=0.05357137499999999
EXTRACT: note_on channel=9 note=42 velocity=100 time=0
EXTRACT: note_on channel=6 note=68 velocity=100 time=0
EXTRACT: note_off channel=0 note=54 velocity=0 time=0.07142849999999999
EXTRACT: note_off channel=9 note=42 velocity=0 time=0.056547562499999995
EXTRACT: note_off channel=6 note=68 velocity=0 time=0.008928562499999999
EXTRACT: note_on channel=0 note=56 velocity=100 time=0.005952374999999999
EXTRACT: note_off channel=2 note=32 velocity=0 time=0.038690437499999994
EXTRACT: note_on channel=9 note=38 velocity=100 time=0.10416656249999999
EXTRACT: note_on channel=6 note=66 velocity=100 time=0
EXTRACT: note_off channel=0 note=56 velocity=0 time=0.0446428125
EXTRACT: note_off channel=9 note=38 velocity=0 time=0.08333325
EXTRACT: note_on channel=0 note=56 velocity=100 time=0.014880937499999998
EXTRACT: note_off channel=6 note=66 velocity=0 time=0.11607131249999998
EXTRACT: note_on channel=9 note=42 velocity=100 time=0.026785687499999995
EXTRACT: note_on channel=6 note=64 velocity=100 time=0
EXTRACT: note_off channel=0 note=56 velocity=0 time=0.0446428125
EXTRACT: note_off channel=6 note=64 velocity=0 time=0.0744046875
EXTRACT: note_off channel=9 note=42 velocity=0 time=0.008928562499999999
EXTRACT: note_on channel=0 note=56 velocity=100 time=0.014880937499999998
EXTRACT: note_on channel=2 note=31 velocity=100 time=0.07142849999999999
EXTRACT: note_off channel=0 note=56 velocity=0 time=0.038690437499999994
EXTRACT: note_on channel=0 note=54 velocity=100 time=0.0327380625
EXTRACT: note_on channel=9 note=35 velocity=100 time=0
EXTRACT: note_on channel=9 note=36 velocity=100 time=0
EXTRACT: note_off channel=2 note=31 velocity=0 time=0
EXTRACT: note_on channel=2 note=32 velocity=100 time=0
EXTRACT: note_on channel=6 note=63 velocity=100 time=0
EXTRACT: note_off channel=9 note=35 velocity=0 time=0.1279760625
EXTRACT: note_off channel=9 note=36 velocity=0 time=0
EXTRACT: note_off channel=6 note=63 velocity=0 time=0.008928562499999999
EXTRACT: note_off channel=0 note=54 velocity=0 time=0.10416656249999999
EXTRACT: note_on channel=9 note=42 velocity=100 time=0.0446428125
EXTRACT: note_on channel=6 note=61 velocity=100 time=0
EXTRACT: note_off channel=9 note=42 velocity=0 time=0.1279760625
EXTRACT: note_off channel=2 note=32 velocity=0 time=0.011904749999999999
EXTRACT: note_on channel=0 note=56 velocity=100 time=0.0029761874999999997
EXTRACT: note_off channel=6 note=61 velocity=0 time=0.11607131249999998
EXTRACT: note_off channel=0 note=56 velocity=0 time=0.026785687499999995
EXTRACT: note_on channel=9 note=38 velocity=100 time=0
EXTRACT: note_on channel=3 note=56 velocity=100 time=0
EXTRACT: note_on channel=6 note=61 velocity=100 time=0
EXTRACT: note_off channel=9 note=38 velocity=0 time=0.1279760625
EXTRACT: note_off channel=3 note=56 velocity=0 time=0.008928562499999999
EXTRACT: note_on channel=0 note=56 velocity=100 time=0.005952374999999999
EXTRACT: note_on channel=3 note=54 velocity=100 time=0
EXTRACT: note_off channel=0 note=56 velocity=0 time=0.14285699999999998
EXTRACT: note_on channel=9 note=42 velocity=100 time=0
EXTRACT: note_on channel=9 note=49 velocity=60 time=0
EXTRACT: note_off channel=3 note=54 velocity=0 time=0
EXTRACT: note_on channel=3 note=56 velocity=100 time=0
EXTRACT: note_off channel=6 note=61 velocity=0 time=0
EXTRACT: note_on channel=6 note=56 velocity=100 time=0
EXTRACT: note_off channel=9 note=42 velocity=0 time=0.1279760625
EXTRACT: note_off channel=9 note=49 velocity=0 time=0
EXTRACT: note_off channel=6 note=56 velocity=0 time=0.008928562499999999
EXTRACT: note_on channel=0 note=56 velocity=100 time=0.005952374999999999
EXTRACT: note_off channel=3 note=56 velocity=0 time=0
EXTRACT: note_on channel=3 note=56 velocity=100 time=0
EXTRACT: note_off channel=0 note=56 velocity=0 time=0.1279760625
EXTRACT: note_on channel=0 note=54 velocity=100 time=0.014880937499999998
EXTRACT: note_on channel=9 note=35 velocity=100 time=0
EXTRACT: note_on channel=9 note=36 velocity=100 time=0
EXTRACT: note_on channel=2 note=32 velocity=100 time=0
EXTRACT: note_on channel=6 note=56 velocity=100 time=0
EXTRACT: note_off channel=0 note=54 velocity=0 time=0.07142849999999999
EXTRACT: note_off channel=9 note=35 velocity=0 time=0.056547562499999995
EXTRACT: note_off channel=9 note=36 velocity=0 time=0
EXTRACT: note_off channel=6 note=56 velocity=0 time=0.008928562499999999
EXTRACT: note_on channel=0 note=54 velocity=100 time=0.005952374999999999
EXTRACT: note_off channel=0 note=54 velocity=0 time=0.07142849999999999
EXTRACT: note_off channel=3 note=56 velocity=0 time=0.017857124999999998
EXTRACT: note_on channel=0 note=54 velocity=100 time=0.05357137499999999
EXTRACT: note_on channel=9 note=42 velocity=100 time=0
EXTRACT: note_on channel=6 note=56 velocity=100 time=0
EXTRACT: note_off channel=0 note=54 velocity=0 time=0.07142849999999999
EXTRACT: note_off channel=9 note=42 velocity=0 time=0.056547562499999995
EXTRACT: note_on channel=0 note=56 velocity=100 time=0.014880937499999998
EXTRACT: note_off channel=2 note=32 velocity=0 time=0.038690437499999994
EXTRACT: note_off channel=6 note=56 velocity=0 time=0.07738087499999999
EXTRACT: note_on channel=9 note=38 velocity=100 time=0.026785687499999995
EXTRACT: note_on channel=6 note=58 velocity=100 time=0
EXTRACT: note_off channel=0 note=56 velocity=0 time=0.0446428125
EXTRACT: note_off channel=6 note=58 velocity=0 time=0.0744046875
EXTRACT: note_off channel=9 note=38 velocity=0 time=0.008928562499999999
EXTRACT: note_on channel=0 note=56 velocity=100 time=0.014880937499999998
EXTRACT: note_on channel=9 note=42 velocity=100 time=0.14285699999999998
EXTRACT: note_on channel=6 note=61 velocity=100 time=0
EXTRACT: note_off channel=0 note=56 velocity=0 time=0.0446428125
EXTRACT: note_off channel=9 note=42 velocity=0 time=0.08333325
EXTRACT: note_off channel=6 note=61 velocity=0 time=0.008928562499999999
EXTRACT: note_on channel=0 note=56 velocity=100 time=0.005952374999999999
EXTRACT: note_on channel=2 note=31 velocity=100 time=0.07142849999999999
EXTRACT: note_off channel=0 note=56 velocity=0 time=0.038690437499999994
EXTRACT: note_on channel=0 note=54 velocity=100 time=0.0327380625
EXTRACT: note_on channel=9 note=35 velocity=100 time=0
EXTRACT: note_on channel=9 note=36 velocity=100 time=0
EXTRACT: note_off channel=2 note=31 velocity=0 time=0
EXTRACT: note_on channel=2 note=32 velocity=100 time=0
EXTRACT: note_on channel=6 note=63 velocity=100 time=0
EXTRACT: note_off channel=9 note=35 velocity=0 time=0.1279760625
EXTRACT: note_off channel=9 note=36 velocity=0 time=0
EXTRACT: note_off channel=0 note=54 velocity=0 time=0.11309512499999999
EXTRACT: note_off channel=6 note=63 velocity=0 time=0.017857124999999998
EXTRACT: note_on channel=9 note=42 velocity=100 time=0.026785687499999995
EXTRACT: note_on channel=6 note=66 velocity=100 time=0
EXTRACT: note_off channel=6 note=66 velocity=0 time=0.11904749999999999
EXTRACT: note_off channel=9 note=42 velocity=0 time=0.008928562499999999
EXTRACT: note_off channel=2 note=32 velocity=0 time=0.011904749999999999
EXTRACT: note_on channel=0 note=56 velocity=100 time=0.0029761874999999997
EXTRACT: note_off channel=0 note=56 velocity=0 time=0.14285699999999998
EXTRACT: note_on channel=9 note=38 velocity=100 time=0
EXTRACT: note_on channel=3 note=56 velocity=100 time=0
EXTRACT: note_on channel=6 note=63 velocity=100 time=0
EXTRACT: note_off channel=9 note=38 velocity=0 time=0.1279760625
EXTRACT: note_off channel=3 note=56 velocity=0 time=0.008928562499999999
EXTRACT: note_on channel=0 note=56 velocity=100 time=0.005952374999999999
EXTRACT: note_on channel=3 note=54 velocity=100 time=0
EXTRACT: note_off channel=0 note=56 velocity=0 time=0.14285699999999998
EXTRACT: note_on channel=9 note=35 velocity=100 time=0
EXTRACT: note_on channel=9 note=36 velocity=100 time=0
EXTRACT: note_on channel=9 note=42 velocity=100 time=0
EXTRACT: note_on channel=9 note=49 velocity=60 time=0
EXTRACT: note_off channel=3 note=54 velocity=0 time=0
EXTRACT: note_on channel=3 note=56 velocity=100 time=0
EXTRACT: note_off channel=6 note=63 velocity=0 time=0
EXTRACT: note_on channel=6 note=56 velocity=100 time=0
EXTRACT: note_off channel=9 note=35 velocity=0 time=0.1279760625
EXTRACT: note_off channel=9 note=36 velocity=0 time=0
EXTRACT: note_off channel=9 note=42 velocity=0 time=0
EXTRACT: note_off channel=9 note=49 velocity=0 time=0
EXTRACT: note_off channel=6 note=56 velocity=0 time=0.008928562499999999
EXTRACT: note_on channel=0 note=56 velocity=100 time=0.005952374999999999
EXTRACT: note_off channel=3 note=56 velocity=0 time=0
EXTRACT: note_on channel=3 note=56 velocity=100 time=0
EXTRACT: note_off channel=0 note=56 velocity=0 time=0.1279760625
EXTRACT: note_on channel=0 note=54 velocity=100 time=0.014880937499999998
EXTRACT: note_on channel=9 note=35 velocity=100 time=0
EXTRACT: note_on channel=9 note=36 velocity=100 time=0
EXTRACT: note_on channel=2 note=32 velocity=100 time=0
EXTRACT: note_on channel=6 note=56 velocity=100 time=0
EXTRACT: note_off channel=0 note=54 velocity=0 time=0.07142849999999999
EXTRACT: note_off channel=9 note=35 velocity=0 time=0.056547562499999995
EXTRACT: note_off channel=9 note=36 velocity=0 time=0
EXTRACT: note_off channel=6 note=56 velocity=0 time=0.008928562499999999
EXTRACT: note_on channel=0 note=54 velocity=100 time=0.005952374999999999
EXTRACT: note_off channel=0 note=54 velocity=0 time=0.07142849999999999
EXTRACT: note_off channel=3 note=56 velocity=0 time=0.017857124999999998
EXTRACT: note_on channel=0 note=54 velocity=100 time=0.05357137499999999
EXTRACT: note_on channel=9 note=42 velocity=100 time=0
EXTRACT: note_on channel=6 note=56 velocity=100 time=0
EXTRACT: note_off channel=0 note=54 velocity=0 time=0.07142849999999999
EXTRACT: note_off channel=9 note=42 velocity=0 time=0.056547562499999995
EXTRACT: note_on channel=0 note=56 velocity=100 time=0.014880937499999998
EXTRACT: note_off channel=2 note=32 velocity=0 time=0.038690437499999994
EXTRACT: note_off channel=6 note=56 velocity=0 time=0.07738087499999999
EXTRACT: note_on channel=9 note=38 velocity=100 time=0.026785687499999995
EXTRACT: note_on channel=6 note=58 velocity=100 time=0
EXTRACT: note_off channel=0 note=56 velocity=0 time=0.0446428125
EXTRACT: note_off channel=6 note=58 velocity=0 time=0.0744046875
EXTRACT: note_off channel=9 note=38 velocity=0 time=0.008928562499999999
EXTRACT: note_on channel=0 note=56 velocity=100 time=0.014880937499999998
EXTRACT: note_on channel=9 note=42 velocity=100 time=0.14285699999999998
EXTRACT: note_on channel=6 note=61 velocity=100 time=0
EXTRACT: note_off channel=0 note=56 velocity=0 time=0.0446428125
EXTRACT: note_off channel=9 note=42 velocity=0 time=0.08333325
EXTRACT: note_off channel=6 note=61 velocity=0 time=0.008928562499999999
EXTRACT: note_on channel=0 note=56 velocity=100 time=0.005952374999999999
EXTRACT: note_on channel=2 note=31 velocity=100 time=0.07142849999999999
EXTRACT: note_off channel=0 note=56 velocity=0 time=0.038690437499999994
EXTRACT: note_on channel=0 note=54 velocity=100 time=0.0327380625
EXTRACT: note_on channel=9 note=35 velocity=100 time=0
EXTRACT: note_on channel=9 note=36 velocity=100 time=0
EXTRACT: note_off channel=2 note=31 velocity=0 time=0
EXTRACT: note_on channel=2 note=32 velocity=100 time=0
EXTRACT: note_on channel=6 note=63 velocity=100 time=0
EXTRACT: note_off channel=9 note=35 velocity=0 time=0.1279760625
EXTRACT: note_off channel=9 note=36 velocity=0 time=0
EXTRACT: note_off channel=0 note=54 velocity=0 time=0.11309512499999999
EXTRACT: note_off channel=6 note=63 velocity=0 time=0.017857124999999998
EXTRACT: note_on channel=9 note=42 velocity=100 time=0.026785687499999995
EXTRACT: note_on channel=6 note=66 velocity=100 time=0
EXTRACT: note_off channel=6 note=66 velocity=0 time=0.11904749999999999
EXTRACT: note_off channel=9 note=42 velocity=0 time=0.008928562499999999
EXTRACT: note_off channel=2 note=32 velocity=0 time=0.011904749999999999
EXTRACT: note_on channel=0 note=56 velocity=100 time=0.0029761874999999997
EXTRACT: note_off channel=0 note=56 velocity=0 time=0.14285699999999998
EXTRACT: note_on channel=9 note=38 velocity=100 time=0
EXTRACT: note_on channel=3 note=56 velocity=100 time=0
EXTRACT: note_on channel=6 note=63 velocity=100 time=0
EXTRACT: note_off channel=9 note=38 velocity=0 time=0.1279760625
EXTRACT: note_off channel=3 note=56 velocity=0 time=0.008928562499999999
EXTRACT: note_on channel=0 note=56 velocity=100 time=0.005952374999999999
EXTRACT: note_on channel=3 note=54 velocity=100 time=0
EXTRACT: note_off channel=0 note=56 velocity=0 time=0.14285699999999998
EXTRACT: note_on channel=9 note=42 velocity=100 time=0
EXTRACT: note_on channel=9 note=49 velocity=60 time=0
EXTRACT: note_off channel=3 note=54 velocity=0 time=0
EXTRACT: note_on channel=3 note=56 velocity=100 time=0
EXTRACT: note_off channel=6 note=63 velocity=0 time=0
EXTRACT: note_on channel=6 note=63 velocity=100 time=0
EXTRACT: note_off channel=9 note=42 velocity=0 time=0.1279760625
EXTRACT: note_off channel=9 note=49 velocity=0 time=0
EXTRACT: note_off channel=6 note=63 velocity=0 time=0.008928562499999999
EXTRACT: note_on channel=0 note=56 velocity=100 time=0.005952374999999999
EXTRACT: note_off channel=3 note=56 velocity=0 time=0
EXTRACT: note_on channel=3 note=56 velocity=100 time=0
EXTRACT: note_off channel=0 note=56 velocity=0 time=0.1279760625
EXTRACT: note_on channel=0 note=54 velocity=100 time=0.014880937499999998
EXTRACT: note_on channel=5 note=56 velocity=100 time=0
EXTRACT: note_on channel=6 note=63 velocity=100 time=0
EXTRACT: note_off channel=0 note=54 velocity=0 time=0.07142849999999999
EXTRACT: note_off channel=5 note=56 velocity=0 time=0.065476125
EXTRACT: note_on channel=0 note=54 velocity=100 time=0.005952374999999999
EXTRACT: note_on channel=5 note=54 velocity=100 time=0
EXTRACT: note_off channel=0 note=54 velocity=0 time=0.07142849999999999
EXTRACT: note_off channel=3 note=56 velocity=0 time=0.017857124999999998
EXTRACT: note_off channel=6 note=63 velocity=0 time=0.026785687499999995
EXTRACT: note_on channel=0 note=54 velocity=100 time=0.026785687499999995
EXTRACT: note_off channel=5 note=54 velocity=0 time=0
EXTRACT: note_on channel=5 note=56 velocity=100 time=0
EXTRACT: note_on channel=6 note=66 velocity=100 time=0
EXTRACT: note_off channel=0 note=54 velocity=0 time=0.07142849999999999
EXTRACT: note_off channel=6 note=66 velocity=0 time=0.047618999999999995
EXTRACT: note_on channel=0 note=56 velocity=100 time=0.023809499999999997
EXTRACT: note_off channel=5 note=56 velocity=0 time=0
EXTRACT: note_on channel=5 note=54 velocity=100 time=0
EXTRACT: note_off channel=5 note=54 velocity=0 time=0.14285699999999998
EXTRACT: note_on channel=5 note=56 velocity=100 time=0
EXTRACT: note_on channel=6 note=63 velocity=100 time=0
EXTRACT: note_off channel=0 note=56 velocity=0 time=0.0446428125
EXTRACT: note_off channel=5 note=56 velocity=0 time=0.09226181249999998
EXTRACT: note_off channel=6 note=63 velocity=0 time=0
EXTRACT: note_on channel=0 note=56 velocity=100 time=0.005952374999999999
EXTRACT: note_on channel=5 note=54 velocity=100 time=0
EXTRACT: note_off channel=5 note=54 velocity=0 time=0.14285699999999998
EXTRACT: note_on channel=5 note=56 velocity=100 time=0
EXTRACT: note_on channel=6 note=66 velocity=100 time=0
EXTRACT: note_off channel=0 note=56 velocity=0 time=0.0446428125
EXTRACT: note_on channel=0 note=56 velocity=100 time=0.0982141875
EXTRACT: note_off channel=5 note=56 velocity=0 time=0
EXTRACT: note_on channel=5 note=54 velocity=100 time=0
EXTRACT: note_off channel=0 note=56 velocity=0 time=0.11011893749999999
EXTRACT: note_off channel=6 note=66 velocity=0 time=0.005952374999999999
EXTRACT: note_on channel=0 note=54 velocity=100 time=0.026785687499999995
EXTRACT: note_off channel=5 note=54 velocity=0 time=0
EXTRACT: note_on channel=5 note=56 velocity=100 time=0
EXTRACT: note_on channel=6 note=68 velocity=100 time=0
EXTRACT: note_off channel=5 note=56 velocity=0 time=0.13690462499999997
EXTRACT: note_on channel=5 note=54 velocity=100 time=0.005952374999999999
EXTRACT: note_off channel=0 note=54 velocity=0 time=0.0982141875
EXTRACT: note_on channel=9 note=35 velocity=100 time=0.0446428125
EXTRACT: note_on channel=9 note=36 velocity=100 time=0
EXTRACT: note_off channel=5 note=54 velocity=0 time=0
EXTRACT: note_on channel=5 note=56 velocity=100 time=0
EXTRACT: note_off channel=6 note=68 velocity=0 time=0
EXTRACT: note_on channel=6 note=66 velocity=100 time=0
EXTRACT: note_off channel=9 note=35 velocity=0 time=0.1279760625
EXTRACT: note_off channel=9 note=36 velocity=0 time=0
EXTRACT: note_on channel=0 note=56 velocity=100 time=0.014880937499999998
EXTRACT: note_off channel=5 note=56 velocity=0 time=0
EXTRACT: note_on channel=5 note=54 velocity=100 time=0
EXTRACT: note_off channel=6 note=66 velocity=0 time=0
EXTRACT: note_on channel=6 note=64 velocity=100 time=0
EXTRACT: note_off channel=0 note=56 velocity=0 time=0.14285699999999998
EXTRACT: note_on channel=9 note=38 velocity=100 time=0
EXTRACT: note_on channel=3 note=56 velocity=100 time=0
EXTRACT: note_off channel=5 note=54 velocity=0 time=0
EXTRACT: note_on channel=5 note=56 velocity=100 time=0
EXTRACT: note_off channel=6 note=64 velocity=0 time=0
EXTRACT: note_on channel=6 note=63 velocity=100 time=0
EXTRACT: note_off channel=9 note=38 velocity=0 time=0.1279760625
EXTRACT: note_off channel=3 note=56 velocity=0 time=0.008928562499999999
EXTRACT: note_off channel=5 note=56 velocity=0 time=0
EXTRACT: note_on channel=0 note=56 velocity=100 time=0.005952374999999999
EXTRACT: note_on channel=3 note=54 velocity=100 time=0
EXTRACT: note_on channel=5 note=54 velocity=100 time=0
EXTRACT: note_off channel=0 note=56 velocity=0 time=0.14285699999999998
EXTRACT: note_off channel=3 note=54 velocity=0 time=0
EXTRACT: note_on channel=3 note=56 velocity=100 time=0
EXTRACT: note_off channel=5 note=54 velocity=0 time=0
EXTRACT: note_on channel=5 note=56 velocity=100 time=0
EXTRACT: note_off channel=6 note=63 velocity=0 time=0
EXTRACT: note_on channel=6 note=61 velocity=100 time=0
EXTRACT: note_on channel=0 note=56 velocity=100 time=0.14285699999999998
EXTRACT: note_off channel=3 note=56 velocity=0 time=0
EXTRACT: note_on channel=3 note=56 velocity=100 time=0
EXTRACT: note_off channel=5 note=56 velocity=0 time=0
EXTRACT: note_on channel=5 note=54 velocity=100 time=0
EXTRACT: note_off channel=0 note=56 velocity=0 time=0.1279760625
EXTRACT: note_on channel=0 note=54 velocity=100 time=0.014880937499999998
EXTRACT: note_on channel=9 note=35 velocity=100 time=0
EXTRACT: note_on channel=9 note=36 velocity=100 time=0
EXTRACT: control_change channel=1 control=10 value=0 time=0
EXTRACT: note_on channel=2 note=32 velocity=100 time=0
EXTRACT: note_off channel=5 note=54 velocity=0 time=0
EXTRACT: note_on channel=5 note=60 velocity=60 time=0
EXTRACT: note_on channel=6 note=63 velocity=100 time=0.005952374999999999
EXTRACT: note_off channel=6 note=61 velocity=0 time=0.06249993749999999
EXTRACT: note_off channel=0 note=54 velocity=0 time=0.0029761874999999997
EXTRACT: note_off channel=9 note=35 velocity=0 time=0.056547562499999995
EXTRACT: note_off channel=9 note=36 velocity=0 time=0
EXTRACT: note_on channel=0 note=54 velocity=100 time=0.014880937499999998
EXTRACT: note_off channel=0 note=54 velocity=0 time=0.07142849999999999
EXTRACT: note_off channel=3 note=56 velocity=0 time=0.017857124999999998
EXTRACT: note_on channel=0 note=54 velocity=100 time=0.05357137499999999
EXTRACT: note_on channel=9 note=42 velocity=100 time=0
EXTRACT: note_on channel=1 note=68 velocity=100 time=0
EXTRACT: note_on channel=4 note=66 velocity=100 time=0
EXTRACT: note_off channel=0 note=54 velocity=0 time=0.07142849999999999
EXTRACT: note_off channel=4 note=66 velocity=0 time=0.023809499999999997
EXTRACT: note_off channel=9 note=42 velocity=0 time=0.0327380625
EXTRACT: note_on channel=0 note=56 velocity=100 time=0.014880937499999998
EXTRACT: note_off channel=2 note=32 velocity=0 time=0.038690437499999994
EXTRACT: note_off channel=5 note=60 velocity=0 time=0.035714249999999996
EXTRACT: note_off channel=6 note=63 velocity=0 time=0.06249993749999999
EXTRACT: note_on channel=9 note=38 velocity=100 time=0.005952374999999999
EXTRACT: control_change channel=4 control=10 value=104 time=0
EXTRACT: note_on channel=4 note=68 velocity=100 time=0
EXTRACT: note_off channel=1 note=68 velocity=0 time=0.0208333125
EXTRACT: note_off channel=0 note=56 velocity=0 time=0.023809499999999997
EXTRACT: note_off channel=4 note=68 velocity=0 time=0.0744046875
EXTRACT: note_off channel=9 note=38 velocity=0 time=0.008928562499999999
EXTRACT: note_on channel=0 note=56 velocity=100 time=0.014880937499999998
EXTRACT: note_on channel=9 note=42 velocity=100 time=0.14285699999999998
EXTRACT: control_change channel=1 control=10 value=127 time=0
EXTRACT: note_on channel=1 note=68 velocity=100 time=0
EXTRACT: note_off channel=0 note=56 velocity=0 time=0.0446428125
EXTRACT: note_off channel=9 note=42 velocity=0 time=0.08333325
EXTRACT: note_on channel=0 note=56 velocity=100 time=0.014880937499999998
EXTRACT: control_change channel=4 control=10 value=33 time=0
EXTRACT: note_on channel=4 note=63 velocity=100 time=0
EXTRACT: note_on channel=6 note=63 velocity=100 time=0
EXTRACT: note_on channel=11 note=68 velocity=100 time=0
EXTRACT: note_on channel=2 note=31 velocity=100 time=0.07142849999999999
EXTRACT: note_off channel=0 note=56 velocity=0 time=0.038690437499999994
EXTRACT: note_off channel=4 note=63 velocity=0 time=0.008928562499999999
EXTRACT: note_on channel=0 note=54 velocity=100 time=0.023809499999999997
EXTRACT: note_on channel=9 note=35 velocity=100 time=0
EXTRACT: note_on channel=9 note=36 velocity=100 time=0
EXTRACT: note_off channel=2 note=31 velocity=0 time=0
EXTRACT: note_on channel=2 note=32 velocity=100 time=0
EXTRACT: note_on channel=11 note=66 velocity=100 time=0
EXTRACT: note_off channel=11 note=68 velocity=0 time=0.0446428125
EXTRACT: note_off channel=9 note=35 velocity=0 time=0.08333325
EXTRACT: note_off channel=9 note=36 velocity=0 time=0
EXTRACT: note_off channel=1 note=68 velocity=0 time=0.008928562499999999
EXTRACT: note_off channel=0 note=54 velocity=0 time=0.10416656249999999
EXTRACT: note_on channel=9 note=42 velocity=100 time=0.0446428125
EXTRACT: control_change channel=4 control=10 value=95 time=0
EXTRACT: note_on channel=4 note=66 velocity=100 time=0
EXTRACT: note_off channel=6 note=63 velocity=0 time=0
EXTRACT: note_on channel=6 note=61 velocity=100 time=0
EXTRACT: note_off channel=4 note=66 velocity=0 time=0.09523799999999999
EXTRACT: note_off channel=9 note=42 velocity=0 time=0.0327380625
EXTRACT: note_off channel=2 note=32 velocity=0 time=0.011904749999999999
EXTRACT: note_on channel=0 note=56 velocity=100 time=0.0029761874999999997
EXTRACT: note_off channel=0 note=56 velocity=0 time=0.14285699999999998
EXTRACT: note_on channel=9 note=38 velocity=100 time=0
EXTRACT: note_on channel=3 note=56 velocity=100 time=0
EXTRACT: control_change channel=4 control=10 value=33 time=0
EXTRACT: note_on channel=4 note=68 velocity=100 time=0
EXTRACT: note_off channel=6 note=61 velocity=0 time=0
EXTRACT: note_on channel=6 note=59 velocity=100 time=0
EXTRACT: note_off channel=9 note=38 velocity=0 time=0.1279760625
EXTRACT: note_off channel=3 note=56 velocity=0 time=0.008928562499999999
EXTRACT: note_on channel=0 note=56 velocity=100 time=0.005952374999999999
EXTRACT: note_on channel=3 note=54 velocity=100 time=0
EXTRACT: note_off channel=4 note=68 velocity=0 time=0
EXTRACT: control_change channel=4 control=10 value=95 time=0
EXTRACT: note_on channel=4 note=71 velocity=100 time=0
EXTRACT: note_off channel=0 note=56 velocity=0 time=0.14285699999999998
EXTRACT: note_on channel=9 note=42 velocity=100 time=0
EXTRACT: note_on channel=9 note=49 velocity=60 time=0
EXTRACT: note_off channel=3 note=54 velocity=0 time=0
EXTRACT: note_on channel=3 note=56 velocity=100 time=0
EXTRACT: note_off channel=6 note=59 velocity=0 time=0
EXTRACT: note_on channel=6 note=61 velocity=100 time=0
EXTRACT: note_off channel=4 note=71 velocity=0 time=0.0208333125
EXTRACT: note_off channel=9 note=42 velocity=0 time=0.10714274999999998
EXTRACT: note_off channel=9 note=49 velocity=0 time=0
EXTRACT: note_on channel=0 note=56 velocity=100 time=0.014880937499999998
EXTRACT: note_off channel=3 note=56 velocity=0 time=0
EXTRACT: note_on channel=3 note=56 velocity=100 time=0
EXTRACT: note_off channel=11 note=66 velocity=0 time=0.10119037499999999
EXTRACT: note_off channel=0 note=56 velocity=0 time=0.026785687499999995
EXTRACT: note_off channel=6 note=61 velocity=0 time=0.0029761874999999997
EXTRACT: note_on channel=6 note=63 velocity=100 time=0
EXTRACT: note_on channel=0 note=54 velocity=100 time=0.011904749999999999
EXTRACT: note_on channel=9 note=35 velocity=100 time=0
EXTRACT: note_on channel=9 note=36 velocity=100 time=0
EXTRACT: note_on channel=2 note=32 velocity=100 time=0
EXTRACT: control_change channel=4 control=10 value=24 time=0
EXTRACT: note_off channel=0 note=54 velocity=0 time=0.07142849999999999
EXTRACT: note_off channel=9 note=35 velocity=0 time=0.056547562499999995
EXTRACT: note_off channel=9 note=36 velocity=0 time=0
EXTRACT: note_on channel=0 note=54 velocity=100 time=0.014880937499999998
EXTRACT: note_off channel=0 note=54 velocity=0 time=0.07142849999999999
EXTRACT: note_off channel=3 note=56 velocity=0 time=0.017857124999999998
EXTRACT: note_on channel=0 note=54 velocity=100 time=0.05357137499999999
EXTRACT: note_on channel=9 note=42 velocity=100 time=0
EXTRACT: control_change channel=4 control=10 value=104 time=0
EXTRACT: note_on channel=4 note=66 velocity=100 time=0
EXTRACT: note_off channel=0 note=54 velocity=0 time=0.07142849999999999
EXTRACT: note_off channel=4 note=66 velocity=0 time=0.023809499999999997
EXTRACT: note_off channel=9 note=42 velocity=0 time=0.0327380625
EXTRACT: note_on channel=0 note=56 velocity=100 time=0.014880937499999998
EXTRACT: note_off channel=2 note=32 velocity=0 time=0.038690437499999994
EXTRACT: note_off channel=6 note=63 velocity=0 time=0.08035706249999999
EXTRACT: note_on channel=9 note=38 velocity=100 time=0.023809499999999997
EXTRACT: note_on channel=4 note=68 velocity=100 time=0
EXTRACT: note_off channel=0 note=56 velocity=0 time=0.0446428125
EXTRACT: note_off channel=4 note=68 velocity=0 time=0.0744046875
EXTRACT: note_off channel=9 note=38 velocity=0 time=0.008928562499999999
EXTRACT: note_on channel=0 note=56 velocity=100 time=0.014880937499999998
EXTRACT: control_change channel=4 control=10 value=33 time=0
EXTRACT: note_on channel=9 note=42 velocity=100 time=0.14285699999999998
EXTRACT: note_on channel=11 note=66 velocity=68 time=0
EXTRACT: note_off channel=0 note=56 velocity=0 time=0.0446428125
EXTRACT: note_off channel=11 note=66 velocity=0 time=0.026785687499999995
EXTRACT: note_off channel=9 note=42 velocity=0 time=0.056547562499999995
EXTRACT: note_on channel=0 note=56 velocity=100 time=0.014880937499999998
EXTRACT: note_on channel=4 note=63 velocity=100 time=0
EXTRACT: note_on channel=6 note=63 velocity=100 time=0
EXTRACT: note_on channel=11 note=63 velocity=68 time=0
EXTRACT: note_on channel=2 note=31 velocity=100 time=0.07142849999999999
EXTRACT: note_off channel=11 note=63 velocity=0 time=0
EXTRACT: note_off channel=0 note=56 velocity=0 time=0.038690437499999994
EXTRACT: note_off channel=4 note=63 velocity=0 time=0.008928562499999999
EXTRACT: note_on channel=0 note=54 velocity=100 time=0.023809499999999997
EXTRACT: note_on channel=9 note=35 velocity=100 time=0
EXTRACT: note_on channel=9 note=36 velocity=100 time=0
EXTRACT: note_off channel=2 note=31 velocity=0 time=0
EXTRACT: note_on channel=2 note=32 velocity=100 time=0
EXTRACT: control_change channel=4 control=10 value=95 time=0
EXTRACT: note_on channel=11 note=66 velocity=68 time=0
EXTRACT: note_off channel=11 note=66 velocity=0 time=0.07142849999999999
EXTRACT: note_off channel=9 note=35 velocity=0 time=0.056547562499999995
EXTRACT: note_off channel=9 note=36 velocity=0 time=0
EXTRACT: note_on channel=11 note=63 velocity=68 time=0.014880937499999998
EXTRACT: note_off channel=11 note=63 velocity=0 time=0.07142849999999999
EXTRACT: note_off channel=0 note=54 velocity=0 time=0.026785687499999995
EXTRACT: note_on channel=9 note=42 velocity=100 time=0.0446428125
EXTRACT: control_change channel=4 control=10 value=33 time=0
EXTRACT: note_on channel=4 note=66 velocity=100 time=0
EXTRACT: note_off channel=6 note=63 velocity=0 time=0
EXTRACT: note_on channel=6 note=61 velocity=100 time=0
EXTRACT: note_on channel=11 note=66 velocity=68 time=0
EXTRACT: note_off channel=11 note=66 velocity=0 time=0.07142849999999999
EXTRACT: note_off channel=4 note=66 velocity=0 time=0.023809499999999997
EXTRACT: note_off channel=9 note=42 velocity=0 time=0.0327380625
EXTRACT: note_off channel=2 note=32 velocity=0 time=0.011904749999999999
EXTRACT: note_on channel=0 note=56 velocity=100 time=0.0029761874999999997
EXTRACT: control_change channel=4 control=10 value=95 time=0
EXTRACT: note_on channel=11 note=63 velocity=89 time=0
EXTRACT: note_off channel=11 note=63 velocity=0 time=0.07142849999999999
EXTRACT: note_off channel=0 note=56 velocity=0 time=0.07142849999999999
EXTRACT: note_on channel=9 note=38 velocity=100 time=0
EXTRACT: note_on channel=3 note=56 velocity=100 time=0
EXTRACT: note_on channel=4 note=68 velocity=100 time=0
EXTRACT: note_off channel=6 note=61 velocity=0 time=0
EXTRACT: note_on channel=6 note=59 velocity=100 time=0
EXTRACT: note_on channel=11 note=66 velocity=100 time=0
EXTRACT: note_off channel=11 note=66 velocity=0 time=0.07142849999999999
EXTRACT: note_off channel=9 note=38 velocity=0 time=0.056547562499999995
EXTRACT: note_off channel=3 note=56 velocity=0 time=0.008928562499999999
EXTRACT: note_on channel=0 note=56 velocity=100 time=0.005952374999999999
EXTRACT: note_on channel=3 note=54 velocity=100 time=0
EXTRACT: note_off channel=4 note=68 velocity=0 time=0
EXTRACT: note_on channel=4 note=71 velocity=100 time=0
EXTRACT: note_on channel=11 note=68 velocity=100 time=0
EXTRACT: note_off channel=0 note=56 velocity=0 time=0.14285699999999998
EXTRACT: note_on channel=9 note=35 velocity=100 time=0
EXTRACT: note_on channel=9 note=36 velocity=100 time=0
EXTRACT: note_on channel=9 note=42 velocity=100 time=0
EXTRACT: note_on channel=9 note=49 velocity=60 time=0
EXTRACT: note_off channel=3 note=54 velocity=0 time=0
EXTRACT: note_on channel=3 note=56 velocity=100 time=0
EXTRACT: note_off channel=6 note=59 velocity=0 time=0
EXTRACT: note_on channel=6 note=61 velocity=100 time=0
EXTRACT: note_off channel=4 note=71 velocity=0 time=0.0208333125
EXTRACT: note_off channel=9 note=35 velocity=0 time=0.10714274999999998
EXTRACT: note_off channel=9 note=36 velocity=0 time=0
EXTRACT: note_off channel=9 note=42 velocity=0 time=0
EXTRACT: note_off channel=9 note=49 velocity=0 time=0
EXTRACT: note_on channel=0 note=56 velocity=100 time=0.014880937499999998
EXTRACT: note_off channel=3 note=56 velocity=0 time=0
EXTRACT: note_on channel=3 note=56 velocity=100 time=0
EXTRACT: note_off channel=0 note=56 velocity=0 time=0.1279760625
EXTRACT: note_off channel=6 note=61 velocity=0 time=0.0029761874999999997
EXTRACT: note_on channel=6 note=63 velocity=100 time=0
EXTRACT: note_on channel=0 note=54 velocity=100 time=0.011904749999999999
EXTRACT: note_on channel=9 note=35 velocity=100 time=0
EXTRACT: note_on channel=9 note=36 velocity=100 time=0
EXTRACT: note_on channel=2 note=32 velocity=100 time=0
EXTRACT: control_change channel=4 control=10 value=24 time=0
EXTRACT: note_off channel=0 note=54 velocity=0 time=0.07142849999999999
EXTRACT: note_off channel=9 note=35 velocity=0 time=0.056547562499999995
EXTRACT: note_off channel=9 note=36 velocity=0 time=0
EXTRACT: note_on channel=0 note=54 velocity=100 time=0.014880937499999998
EXTRACT: note_off channel=0 note=54 velocity=0 time=0.07142849999999999
EXTRACT: note_off channel=3 note=56 velocity=0 time=0.017857124999999998
EXTRACT: note_on channel=0 note=54 velocity=100 time=0.05357137499999999
EXTRACT: note_on channel=9 note=42 velocity=100 time=0
EXTRACT: control_change channel=1 control=10 value=0 time=0
EXTRACT: note_on channel=1 note=68 velocity=100 time=0
EXTRACT: control_change channel=4 control=10 value=104 time=0
EXTRACT: note_on channel=4 note=66 velocity=100 time=0
EXTRACT: note_off channel=6 note=63 velocity=0 time=0
EXTRACT: note_on channel=6 note=61 velocity=100 time=0
EXTRACT: note_off channel=0 note=54 velocity=0 time=0.07142849999999999
EXTRACT: note_off channel=4 note=66 velocity=0 time=0.023809499999999997
EXTRACT: note_off channel=9 note=42 velocity=0 time=0.0327380625
EXTRACT: note_on channel=0 note=56 velocity=100 time=0.014880937499999998
EXTRACT: note_off channel=2 note=32 velocity=0 time=0.038690437499999994
EXTRACT: note_on channel=9 note=38 velocity=100 time=0.10416656249999999
EXTRACT: note_on channel=4 note=68 velocity=100 time=0
EXTRACT: note_off channel=1 note=68 velocity=0 time=0.0208333125
EXTRACT: note_off channel=0 note=56 velocity=0 time=0.023809499999999997
EXTRACT: note_off channel=11 note=68 velocity=0 time=0.056547562499999995
EXTRACT: note_off channel=4 note=68 velocity=0 time=0.017857124999999998
EXTRACT: note_off channel=9 note=38 velocity=0 time=0.008928562499999999
EXTRACT: note_on channel=0 note=56 velocity=100 time=0.014880937499999998
EXTRACT: control_change channel=4 control=10 value=33 time=0
EXTRACT: note_off channel=6 note=61 velocity=0 time=0
EXTRACT: note_on channel=6 note=59 velocity=100 time=0
EXTRACT: note_on channel=9 note=42 velocity=100 time=0.14285699999999998
EXTRACT: control_change channel=1 control=10 value=127 time=0
EXTRACT: note_on channel=1 note=68 velocity=100 time=0
EXTRACT: note_off channel=6 note=59 velocity=0 time=0
EXTRACT: note_on channel=6 note=56 velocity=100 time=0
EXTRACT: note_off channel=0 note=56 velocity=0 time=0.0446428125
EXTRACT: note_off channel=9 note=42 velocity=0 time=0.08333325
EXTRACT: note_on channel=0 note=56 velocity=100 time=0.014880937499999998
EXTRACT: note_on channel=4 note=63 velocity=100 time=0
EXTRACT: note_on channel=11 note=68 velocity=100 time=0
EXTRACT: note_on channel=2 note=31 velocity=100 time=0.07142849999999999
EXTRACT: note_off channel=0 note=56 velocity=0 time=0.038690437499999994
EXTRACT: note_off channel=4 note=63 velocity=0 time=0.008928562499999999
EXTRACT: note_on channel=0 note=54 velocity=100 time=0.023809499999999997
EXTRACT: note_on channel=9 note=35 velocity=100 time=0
EXTRACT: note_on channel=9 note=36 velocity=100 time=0
EXTRACT: note_off channel=2 note=31 velocity=0 time=0
EXTRACT: note_on channel=2 note=32 velocity=100 time=0
EXTRACT: control_change channel=4 control=10 value=95 time=0
EXTRACT: note_on channel=11 note=66 velocity=100 time=0
EXTRACT: note_off channel=11 note=68 velocity=0 time=0.0446428125
EXTRACT: note_off channel=9 note=35 velocity=0 time=0.08333325
EXTRACT: note_off channel=9 note=36 velocity=0 time=0
EXTRACT: note_off channel=1 note=68 velocity=0 time=0.008928562499999999
EXTRACT: note_off channel=0 note=54 velocity=0 time=0.10416656249999999
EXTRACT: note_off channel=6 note=56 velocity=0 time=0.0327380625
EXTRACT: note_on channel=9 note=42 velocity=100 time=0.011904749999999999
EXTRACT: control_change channel=4 control=10 value=33 time=0
EXTRACT: note_on channel=4 note=66 velocity=100 time=0
EXTRACT: note_off channel=4 note=66 velocity=0 time=0.09523799999999999
EXTRACT: note_off channel=9 note=42 velocity=0 time=0.0327380625
EXTRACT: note_off channel=2 note=32 velocity=0 time=0.011904749999999999
EXTRACT: note_on channel=0 note=56 velocity=100 time=0.0029761874999999997
EXTRACT: control_change channel=4 control=10 value=95 time=0
EXTRACT: note_off channel=0 note=56 velocity=0 time=0.14285699999999998
EXTRACT: note_on channel=9 note=38 velocity=100 time=0
EXTRACT: note_on channel=3 note=56 velocity=100 time=0
EXTRACT: note_on channel=4 note=68 velocity=100 time=0
EXTRACT: note_off channel=9 note=38 velocity=0 time=0.1279760625
EXTRACT: note_off channel=3 note=56 velocity=0 time=0.008928562499999999
EXTRACT: note_on channel=0 note=56 velocity=100 time=0.005952374999999999
EXTRACT: note_on channel=3 note=54 velocity=100 time=0
EXTRACT: note_off channel=4 note=68 velocity=0 time=0
EXTRACT: note_on channel=4 note=71 velocity=100 time=0
EXTRACT: note_off channel=0 note=56 velocity=0 time=0.14285699999999998
EXTRACT: note_on channel=9 note=42 velocity=100 time=0
EXTRACT: note_on channel=9 note=49 velocity=60 time=0
EXTRACT: note_off channel=3 note=54 velocity=0 time=0
EXTRACT: note_on channel=3 note=56 velocity=100 time=0
EXTRACT: note_on channel=6 note=56 velocity=100 time=0
EXTRACT: note_off channel=4 note=71 velocity=0 time=0.0208333125
EXTRACT: note_off channel=9 note=42 velocity=0 time=0.10714274999999998
EXTRACT: note_off channel=9 note=49 velocity=0 time=0
EXTRACT: note_on channel=0 note=56 velocity=100 time=0.014880937499999998
EXTRACT: note_off channel=3 note=56 velocity=0 time=0
EXTRACT: note_on channel=3 note=56 velocity=100 time=0
EXTRACT: note_off channel=11 note=66 velocity=0 time=0.10119037499999999
EXTRACT: note_off channel=0 note=56 velocity=0 time=0.026785687499999995
EXTRACT: note_on channel=0 note=54 velocity=100 time=0.014880937499999998
EXTRACT: note_on channel=9 note=35 velocity=100 time=0
EXTRACT: note_on channel=9 note=36 velocity=100 time=0
EXTRACT: note_on channel=2 note=32 velocity=100 time=0
EXTRACT: note_off channel=6 note=56 velocity=0 time=0
EXTRACT: note_on channel=6 note=61 velocity=100 time=0
EXTRACT: note_on channel=12 note=68 velocity=100 time=0
EXTRACT: note_off channel=0 note=54 velocity=0 time=0.07142849999999999
EXTRACT: note_off channel=9 note=35 velocity=0 time=0.056547562499999995
EXTRACT: note_off channel=9 note=36 velocity=0 time=0
EXTRACT: note_on channel=0 note=54 velocity=100 time=0.014880937499999998
EXTRACT: note_off channel=12 note=68 velocity=0 time=0
EXTRACT: note_on channel=12 note=68 velocity=100 time=0
EXTRACT: note_off channel=0 note=54 velocity=0 time=0.07142849999999999
EXTRACT: note_off channel=3 note=56 velocity=0 time=0.017857124999999998
EXTRACT: note_on channel=0 note=54 velocity=100 time=0.05357137499999999
EXTRACT: note_on channel=9 note=42 velocity=100 time=0
EXTRACT: note_off channel=2 note=32 velocity=0 time=0
EXTRACT: note_on channel=2 note=32 velocity=80 time=0
EXTRACT: note_on channel=4 note=66 velocity=100 time=0
EXTRACT: note_off channel=6 note=61 velocity=0 time=0
EXTRACT: note_on channel=6 note=56 velocity=100 time=0
EXTRACT: note_off channel=12 note=68 velocity=0 time=0
EXTRACT: note_on channel=12 note=66 velocity=100 time=0
EXTRACT: note_off channel=0 note=54 velocity=0 time=0.07142849999999999
EXTRACT: note_off channel=4 note=66 velocity=0 time=0.023809499999999997
EXTRACT: note_off channel=9 note=42 velocity=0 time=0.0327380625
EXTRACT: note_off channel=12 note=66 velocity=0 time=0.008928562499999999
EXTRACT: note_on channel=0 note=56 velocity=100 time=0.005952374999999999
EXTRACT: note_off channel=6 note=56 velocity=0 time=0
EXTRACT: note_on channel=6 note=56 velocity=100 time=0
EXTRACT: note_on channel=12 note=63 velocity=100 time=0
EXTRACT: note_on channel=9 note=38 velocity=100 time=0.14285699999999998
EXTRACT: note_off channel=2 note=32 velocity=0 time=0
EXTRACT: note_on channel=2 note=30 velocity=100 time=0
EXTRACT: control_change channel=4 control=10 value=104 time=0
EXTRACT: note_on channel=4 note=68 velocity=100 time=0
EXTRACT: note_off channel=12 note=63 velocity=0 time=0
EXTRACT: note_on channel=12 note=63 velocity=100 time=0
EXTRACT: note_off channel=0 note=56 velocity=0 time=0.0446428125
EXTRACT: note_off channel=4 note=68 velocity=0 time=0.0744046875
EXTRACT: note_off channel=9 note=38 velocity=0 time=0.008928562499999999
EXTRACT: note_on channel=0 note=56 velocity=100 time=0.014880937499999998
EXTRACT: note_off channel=12 note=63 velocity=0 time=0
EXTRACT: note_on channel=12 note=61 velocity=100 time=0
EXTRACT: note_off channel=12 note=61 velocity=0 time=0.11904749999999999
EXTRACT: note_on channel=9 note=35 velocity=100 time=0.023809499999999997
EXTRACT: note_on channel=9 note=36 velocity=100 time=0
EXTRACT: note_on channel=9 note=42 velocity=100 time=0
EXTRACT: note_off channel=2 note=30 velocity=0 time=0
EXTRACT: note_on channel=2 note=30 velocity=80 time=0
EXTRACT: note_off channel=6 note=56 velocity=0 time=0
EXTRACT: note_on channel=6 note=61 velocity=100 time=0
EXTRACT: note_on channel=11 note=66 velocity=68 time=0
EXTRACT: note_on channel=12 note=61 velocity=100 time=0
EXTRACT: note_off channel=0 note=56 velocity=0 time=0.0446428125
EXTRACT: note_off channel=11 note=66 velocity=0 time=0.026785687499999995
EXTRACT: note_off channel=12 note=61 velocity=0 time=0.047618999999999995
EXTRACT: note_off channel=9 note=35 velocity=0 time=0.008928562499999999
EXTRACT: note_off channel=9 note=36 velocity=0 time=0
EXTRACT: note_off channel=9 note=42 velocity=0 time=0
EXTRACT: note_on channel=0 note=56 velocity=100 time=0.014880937499999998
EXTRACT: control_change channel=4 control=10 value=33 time=0
EXTRACT: note_on channel=4 note=63 velocity=100 time=0
EXTRACT: note_on channel=11 note=63 velocity=68 time=0
EXTRACT: note_on channel=12 note=58 velocity=100 time=0
EXTRACT: note_off channel=11 note=63 velocity=0 time=0.07142849999999999
EXTRACT: note_off channel=0 note=56 velocity=0 time=0.038690437499999994
EXTRACT: note_off channel=4 note=63 velocity=0 time=0.008928562499999999
EXTRACT: note_on channel=0 note=54 velocity=100 time=0.023809499999999997
EXTRACT: note_on channel=9 note=35 velocity=100 time=0
EXTRACT: note_on channel=9 note=36 velocity=100 time=0
EXTRACT: note_off channel=2 note=30 velocity=0 time=0
EXTRACT: note_on channel=2 note=29 velocity=100 time=0
EXTRACT: note_off channel=6 note=61 velocity=0 time=0
EXTRACT: note_on channel=6 note=56 velocity=100 time=0
EXTRACT: note_on channel=11 note=66 velocity=68 time=0
EXTRACT: note_off channel=12 note=58 velocity=0 time=0
EXTRACT: note_on channel=12 note=56 velocity=100 time=0
EXTRACT: note_off channel=11 note=66 velocity=0 time=0.07142849999999999
EXTRACT: note_off channel=9 note=35 velocity=0 time=0.056547562499999995
EXTRACT: note_off channel=9 note=36 velocity=0 time=0
EXTRACT: note_off channel=6 note=56 velocity=0 time=0.014880937499999998
EXTRACT: note_on channel=6 note=54 velocity=100 time=0
EXTRACT: note_on channel=11 note=63 velocity=68 time=0
EXTRACT: note_off channel=11 note=63 velocity=0 time=0.07142849999999999
EXTRACT: note_off channel=0 note=54 velocity=0 time=0.026785687499999995
EXTRACT: note_off channel=12 note=56 velocity=0 time=0.014880937499999998
EXTRACT: note_on channel=9 note=38 velocity=100 time=0.029761874999999997
EXTRACT: note_on channel=9 note=42 velocity=100 time=0
EXTRACT: note_off channel=2 note=29 velocity=0 time=0
EXTRACT: note_on channel=2 note=29 velocity=80 time=0
EXTRACT: control_change channel=4 control=10 value=95 time=0
EXTRACT: note_on channel=4 note=66 velocity=100 time=0
EXTRACT: note_on channel=11 note=66 velocity=68 time=0
EXTRACT: note_off channel=11 note=66 velocity=0 time=0.07142849999999999
EXTRACT: note_off channel=4 note=66 velocity=0 time=0.023809499999999997
EXTRACT: note_off channel=9 note=38 velocity=0 time=0.0327380625
EXTRACT: note_off channel=9 note=42 velocity=0 time=0
EXTRACT: note_on channel=0 note=56 velocity=100 time=0.014880937499999998
EXTRACT: note_on channel=11 note=63 velocity=89 time=0
EXTRACT: note_off channel=11 note=63 velocity=0 time=0.07142849999999999
EXTRACT: note_off channel=0 note=56 velocity=0 time=0.07142849999999999
EXTRACT: note_on channel=9 note=38 velocity=100 time=0
EXTRACT: note_off channel=2 note=29 velocity=0 time=0
EXTRACT: note_on channel=2 note=27 velocity=100 time=0
EXTRACT: note_on channel=3 note=56 velocity=100 time=0
EXTRACT: control_change channel=4 control=10 value=33 time=0
EXTRACT: note_on channel=4 note=68 velocity=100 time=0
EXTRACT: note_on channel=11 note=66 velocity=100 time=0
EXTRACT: note_off channel=11 note=66 velocity=0 time=0.07142849999999999
EXTRACT: note_off channel=9 note=38 velocity=0 time=0.056547562499999995
EXTRACT: note_off channel=6 note=54 velocity=0 time=0.0029761874999999997
EXTRACT: note_off channel=3 note=56 velocity=0 time=0.005952374999999999
EXTRACT: note_on channel=0 note=56 velocity=100 time=0.005952374999999999
EXTRACT: note_on channel=3 note=54 velocity=100 time=0
EXTRACT: note_off channel=4 note=68 velocity=0 time=0
EXTRACT: control_change channel=4 control=10 value=95 time=0
EXTRACT: note_on channel=4 note=71 velocity=100 time=0
EXTRACT: note_on channel=11 note=68 velocity=100 time=0
EXTRACT: note_off channel=0 note=56 velocity=0 time=0.14285699999999998
EXTRACT: note_on channel=9 note=42 velocity=100 time=0
EXTRACT: note_on channel=9 note=49 velocity=60 time=0
EXTRACT: note_off channel=2 note=27 velocity=0 time=0
EXTRACT: note_on channel=2 note=27 velocity=80 time=0
EXTRACT: note_off channel=3 note=54 velocity=0 time=0
EXTRACT: note_on channel=3 note=56 velocity=100 time=0
EXTRACT: note_off channel=4 note=71 velocity=0 time=0.0208333125
EXTRACT: note_off channel=9 note=42 velocity=0 time=0.10714274999999998
EXTRACT: note_off channel=9 note=49 velocity=0 time=0
EXTRACT: note_on channel=0 note=56 velocity=100 time=0.014880937499999998
EXTRACT: note_off channel=3 note=56 velocity=0 time=0
EXTRACT: note_on channel=3 note=56 velocity=100 time=0
EXTRACT: note_off channel=0 note=56 velocity=0 time=0.1279760625
EXTRACT: note_on channel=0 note=54 velocity=100 time=0.014880937499999998
EXTRACT: note_on channel=9 note=35 velocity=100 time=0
EXTRACT: note_on channel=9 note=36 velocity=100 time=0
EXTRACT: note_on channel=2 note=32 velocity=100 time=0
EXTRACT: control_change channel=4 control=10 value=24 time=0
EXTRACT: note_on channel=6 note=63 velocity=100 time=0.005952374999999999
EXTRACT: note_off channel=0 note=54 velocity=0 time=0.065476125
EXTRACT: note_off channel=9 note=35 velocity=0 time=0.056547562499999995
EXTRACT: note_off channel=9 note=36 velocity=0 time=0
EXTRACT: note_on channel=0 note=54 velocity=100 time=0.014880937499999998
EXTRACT: note_off channel=2 note=27 velocity=0 time=0.038690437499999994
EXTRACT: note_off channel=0 note=54 velocity=0 time=0.0327380625
EXTRACT: note_off channel=3 note=56 velocity=0 time=0.017857124999999998
EXTRACT: note_on channel=0 note=54 velocity=100 time=0.05357137499999999
EXTRACT: note_on channel=9 note=42 velocity=100 time=0
EXTRACT: control_change channel=1 control=10 value=0 time=0
EXTRACT: note_on channel=1 note=68 velocity=100 time=0
EXTRACT: control_change channel=4 control=10 value=104 time=0
EXTRACT: note_on channel=4 note=66 velocity=100 time=0
EXTRACT: note_off channel=0 note=54 velocity=0 time=0.07142849999999999
EXTRACT: note_off channel=4 note=66 velocity=0 time=0.023809499999999997
EXTRACT: note_off channel=9 note=42 velocity=0 time=0.0327380625
EXTRACT: note_on channel=0 note=56 velocity=100 time=0.014880937499999998
EXTRACT: note_off channel=2 note=32 velocity=0 time=0.038690437499999994
EXTRACT: note_off channel=6 note=63 velocity=0 time=0.0982141875
EXTRACT: note_on channel=9 note=38 velocity=100 time=0.005952374999999999
EXTRACT: note_on channel=4 note=68 velocity=100 time=0
EXTRACT: note_off channel=1 note=68 velocity=0 time=0.0208333125
EXTRACT: note_off channel=0 note=56 velocity=0 time=0.023809499999999997
EXTRACT: note_off channel=11 note=68 velocity=0 time=0.056547562499999995
EXTRACT: note_off channel=4 note=68 velocity=0 time=0.017857124999999998
EXTRACT: note_off channel=9 note=38 velocity=0 time=0.008928562499999999
EXTRACT: note_on channel=0 note=56 velocity=100 time=0.014880937499999998
EXTRACT: control_change channel=4 control=10 value=33 time=0
EXTRACT: note_on channel=9 note=42 velocity=100 time=0.14285699999999998
EXTRACT: control_change channel=1 control=10 value=127 time=0
EXTRACT: note_on channel=1 note=68 velocity=100 time=0
EXTRACT: note_off channel=0 note=56 velocity=0 time=0.0446428125
EXTRACT: note_off channel=9 note=42 velocity=0 time=0.08333325
EXTRACT: note_on channel=0 note=56 velocity=100 time=0.014880937499999998
EXTRACT: note_on channel=4 note=63 velocity=100 time=0
EXTRACT: note_on channel=6 note=63 velocity=100 time=0
EXTRACT: note_on channel=11 note=68 velocity=100 time=0
EXTRACT: note_on channel=2 note=31 velocity=100 time=0.07142849999999999
EXTRACT: note_off channel=0 note=56 velocity=0 time=0.038690437499999994
EXTRACT: note_off channel=4 note=63 velocity=0 time=0.008928562499999999
EXTRACT: note_on channel=0 note=54 velocity=100 time=0.023809499999999997
EXTRACT: note_on channel=9 note=35 velocity=100 time=0
EXTRACT: note_on channel=9 note=36 velocity=100 time=0
EXTRACT: note_off channel=2 note=31 velocity=0 time=0
EXTRACT: note_on channel=2 note=32 velocity=100 time=0
EXTRACT: control_change channel=4 control=10 value=95 time=0
EXTRACT: note_on channel=11 note=66 velocity=100 time=0
EXTRACT: note_off channel=11 note=68 velocity=0 time=0.0446428125
EXTRACT: note_off channel=9 note=35 velocity=0 time=0.08333325
EXTRACT: note_off channel=9 note=36 velocity=0 time=0
EXTRACT: note_off channel=1 note=68 velocity=0 time=0.008928562499999999
EXTRACT: note_off channel=6 note=63 velocity=0 time=0.005952374999999999
EXTRACT: note_on channel=6 note=63 velocity=100 time=0
EXTRACT: note_off channel=0 note=54 velocity=0 time=0.0982141875
EXTRACT: note_on channel=9 note=42 velocity=100 time=0.0446428125
EXTRACT: control_change channel=4 control=10 value=33 time=0
EXTRACT: note_on channel=4 note=66 velocity=100 time=0
EXTRACT: note_off channel=6 note=63 velocity=0 time=0
EXTRACT: note_on channel=6 note=61 velocity=100 time=0
EXTRACT: note_off channel=4 note=66 velocity=0 time=0.09523799999999999
EXTRACT: note_off channel=9 note=42 velocity=0 time=0.0327380625
EXTRACT: note_off channel=2 note=32 velocity=0 time=0.011904749999999999
EXTRACT: note_on channel=0 note=56 velocity=100 time=0.0029761874999999997
EXTRACT: control_change channel=4 control=10 value=95 time=0
EXTRACT: note_off channel=6 note=61 velocity=0 time=0
EXTRACT: note_on channel=6 note=61 velocity=100 time=0
EXTRACT: note_off channel=0 note=56 velocity=0 time=0.14285699999999998
EXTRACT: note_on channel=9 note=38 velocity=100 time=0
EXTRACT: note_on channel=3 note=56 velocity=100 time=0
EXTRACT: note_on channel=4 note=68 velocity=100 time=0
EXTRACT: note_off channel=6 note=61 velocity=0 time=0
EXTRACT: note_on channel=6 note=59 velocity=100 time=0
EXTRACT: note_off channel=9 note=38 velocity=0 time=0.1279760625
EXTRACT: note_off channel=3 note=56 velocity=0 time=0.008928562499999999
EXTRACT: note_on channel=0 note=56 velocity=100 time=0.005952374999999999
EXTRACT: note_on channel=3 note=54 velocity=100 time=0
EXTRACT: note_off channel=4 note=68 velocity=0 time=0
EXTRACT: note_on channel=4 note=71 velocity=100 time=0
EXTRACT: note_off channel=0 note=56 velocity=0 time=0.14285699999999998
EXTRACT: note_on channel=9 note=42 velocity=100 time=0
EXTRACT: note_on channel=9 note=49 velocity=60 time=0
EXTRACT: note_off channel=3 note=54 velocity=0 time=0
EXTRACT: note_on channel=3 note=56 velocity=100 time=0
EXTRACT: note_off channel=6 note=59 velocity=0 time=0
EXTRACT: note_on channel=6 note=61 velocity=100 time=0
EXTRACT: note_off channel=4 note=71 velocity=0 time=0.0208333125
EXTRACT: note_off channel=9 note=42 velocity=0 time=0.10714274999999998
EXTRACT: note_off channel=9 note=49 velocity=0 time=0
EXTRACT: note_on channel=0 note=56 velocity=100 time=0.014880937499999998
EXTRACT: note_off channel=3 note=56 velocity=0 time=0
EXTRACT: note_on channel=3 note=56 velocity=100 time=0
EXTRACT: note_off channel=11 note=66 velocity=0 time=0.10119037499999999
EXTRACT: note_off channel=0 note=56 velocity=0 time=0.026785687499999995
EXTRACT: note_off channel=6 note=61 velocity=0 time=0.0029761874999999997
EXTRACT: note_on channel=6 note=63 velocity=100 time=0
EXTRACT: note_on channel=0 note=54 velocity=100 time=0.011904749999999999
EXTRACT: note_on channel=9 note=35 velocity=100 time=0
EXTRACT: note_on channel=9 note=36 velocity=100 time=0
EXTRACT: note_on channel=2 note=32 velocity=100 time=0
EXTRACT: control_change channel=4 control=10 value=24 time=0
EXTRACT: note_off channel=0 note=54 velocity=0 time=0.07142849999999999
EXTRACT: note_off channel=9 note=35 velocity=0 time=0.056547562499999995
EXTRACT: note_off channel=9 note=36 velocity=0 time=0
EXTRACT: note_on channel=0 note=54 velocity=100 time=0.014880937499999998
EXTRACT: note_off channel=0 note=54 velocity=0 time=0.07142849999999999
EXTRACT: note_off channel=3 note=56 velocity=0 time=0.017857124999999998
EXTRACT: note_on channel=0 note=54 velocity=100 time=0.05357137499999999
EXTRACT: note_on channel=9 note=42 velocity=100 time=0
EXTRACT: control_change channel=4 control=10 value=104 time=0
EXTRACT: note_on channel=4 note=66 velocity=100 time=0
EXTRACT: note_off channel=0 note=54 velocity=0 time=0.07142849999999999
EXTRACT: note_off channel=4 note=66 velocity=0 time=0.023809499999999997
EXTRACT: note_off channel=9 note=42 velocity=0 time=0.0327380625
EXTRACT: note_on channel=0 note=56 velocity=100 time=0.014880937499999998
EXTRACT: note_off channel=2 note=32 velocity=0 time=0.038690437499999994
EXTRACT: note_off channel=6 note=63 velocity=0 time=0.08035706249999999
EXTRACT: note_on channel=9 note=38 velocity=100 time=0.023809499999999997
EXTRACT: note_on channel=4 note=68 velocity=100 time=0
EXTRACT: note_off channel=0 note=56 velocity=0 time=0.0446428125
EXTRACT: note_off channel=4 note=68 velocity=0 time=0.0744046875
EXTRACT: note_off channel=9 note=38 velocity=0 time=0.008928562499999999
EXTRACT: note_on channel=0 note=56 velocity=100 time=0.014880937499999998
EXTRACT: control_change channel=4 control=10 value=33 time=0
EXTRACT: note_on channel=9 note=42 velocity=100 time=0.14285699999999998
EXTRACT: note_on channel=6 note=63 velocity=100 time=0
EXTRACT: note_on channel=11 note=66 velocity=68 time=0
EXTRACT: note_off channel=0 note=56 velocity=0 time=0.0446428125
EXTRACT: note_off channel=11 note=66 velocity=0 time=0.026785687499999995
EXTRACT: note_off channel=9 note=42 velocity=0 time=0.056547562499999995
EXTRACT: note_on channel=0 note=56 velocity=100 time=0.014880937499999998
EXTRACT: note_on channel=4 note=63 velocity=100 time=0
EXTRACT: note_off channel=6 note=63 velocity=0 time=0
EXTRACT: note_on channel=6 note=63 velocity=100 time=0
EXTRACT: note_on channel=11 note=63 velocity=68 time=0
EXTRACT: note_on channel=2 note=31 velocity=100 time=0.07142849999999999
EXTRACT: note_off channel=11 note=63 velocity=0 time=0
EXTRACT: note_off channel=0 note=56 velocity=0 time=0.038690437499999994
EXTRACT: note_off channel=4 note=63 velocity=0 time=0.008928562499999999
EXTRACT: note_on channel=0 note=54 velocity=100 time=0.023809499999999997
EXTRACT: note_on channel=9 note=35 velocity=100 time=0
EXTRACT: note_on channel=9 note=36 velocity=100 time=0
EXTRACT: note_off channel=2 note=31 velocity=0 time=0
EXTRACT: note_on channel=2 note=32 velocity=100 time=0
EXTRACT: control_change channel=4 control=10 value=95 time=0
EXTRACT: note_on channel=11 note=66 velocity=68 time=0
EXTRACT: note_off channel=11 note=66 velocity=0 time=0.07142849999999999
EXTRACT: note_off channel=9 note=35 velocity=0 time=0.056547562499999995
EXTRACT: note_off channel=9 note=36 velocity=0 time=0
EXTRACT: note_off channel=6 note=63 velocity=0 time=0.014880937499999998
EXTRACT: note_on channel=6 note=63 velocity=100 time=0
EXTRACT: note_on channel=11 note=63 velocity=68 time=0
EXTRACT: note_off channel=11 note=63 velocity=0 time=0.07142849999999999
EXTRACT: note_off channel=0 note=54 velocity=0 time=0.026785687499999995
EXTRACT: note_on channel=9 note=42 velocity=100 time=0.0446428125
EXTRACT: control_change channel=4 control=10 value=33 time=0
EXTRACT: note_on channel=4 note=66 velocity=100 time=0
EXTRACT: note_off channel=6 note=63 velocity=0 time=0
EXTRACT: note_on channel=6 note=61 velocity=100 time=0
EXTRACT: note_on channel=11 note=66 velocity=68 time=0
EXTRACT: note_off channel=11 note=66 velocity=0 time=0.07142849999999999
EXTRACT: note_off channel=4 note=66 velocity=0 time=0.023809499999999997
EXTRACT: note_off channel=9 note=42 velocity=0 time=0.0327380625
EXTRACT: note_off channel=2 note=32 velocity=0 time=0.011904749999999999
EXTRACT: note_on channel=0 note=56 velocity=100 time=0.0029761874999999997
EXTRACT: control_change channel=4 control=10 value=95 time=0
EXTRACT: note_on channel=11 note=63 velocity=89 time=0
EXTRACT: note_off channel=11 note=63 velocity=0 time=0.07142849999999999
EXTRACT: note_off channel=0 note=56 velocity=0 time=0.07142849999999999
EXTRACT: note_on channel=9 note=38 velocity=100 time=0
EXTRACT: note_on channel=3 note=56 velocity=100 time=0
EXTRACT: note_on channel=4 note=68 velocity=100 time=0
EXTRACT: note_off channel=6 note=61 velocity=0 time=0
EXTRACT: note_on channel=6 note=59 velocity=100 time=0
EXTRACT: note_on channel=11 note=66 velocity=100 time=0
EXTRACT: note_off channel=11 note=66 velocity=0 time=0.07142849999999999
EXTRACT: note_off channel=9 note=38 velocity=0 time=0.056547562499999995
EXTRACT: note_off channel=3 note=56 velocity=0 time=0.008928562499999999
EXTRACT: note_on channel=0 note=56 velocity=100 time=0.005952374999999999
EXTRACT: note_on channel=3 note=54 velocity=100 time=0
EXTRACT: note_off channel=4 note=68 velocity=0 time=0
EXTRACT: note_on channel=4 note=71 velocity=100 time=0
EXTRACT: note_on channel=11 note=68 velocity=100 time=0
EXTRACT: note_off channel=0 note=56 velocity=0 time=0.14285699999999998
EXTRACT: note_on channel=9 note=35 velocity=100 time=0
EXTRACT: note_on channel=9 note=36 velocity=100 time=0
EXTRACT: note_on channel=9 note=42 velocity=100 time=0
EXTRACT: note_on channel=9 note=49 velocity=60 time=0
EXTRACT: note_off channel=3 note=54 velocity=0 time=0
EXTRACT: note_on channel=3 note=56 velocity=100 time=0
EXTRACT: note_off channel=6 note=59 velocity=0 time=0
EXTRACT: note_on channel=6 note=61 velocity=100 time=0
EXTRACT: note_off channel=4 note=71 velocity=0 time=0.0208333125
EXTRACT: note_off channel=9 note=35 velocity=0 time=0.10714274999999998
EXTRACT: note_off channel=9 note=36 velocity=0 time=0
EXTRACT: note_off channel=9 note=42 velocity=0 time=0
EXTRACT: note_off channel=9 note=49 velocity=0 time=0
EXTRACT: note_on channel=0 note=56 velocity=100 time=0.014880937499999998
EXTRACT: note_off channel=3 note=56 velocity=0 time=0
EXTRACT: note_on channel=3 note=56 velocity=100 time=0
EXTRACT: note_off channel=0 note=56 velocity=0 time=0.1279760625
EXTRACT: note_off channel=6 note=61 velocity=0 time=0.0029761874999999997
EXTRACT: note_on channel=6 note=63 velocity=100 time=0
EXTRACT: note_on channel=0 note=54 velocity=100 time=0.011904749999999999
EXTRACT: note_on channel=9 note=35 velocity=100 time=0
EXTRACT: note_on channel=9 note=36 velocity=100 time=0
EXTRACT: note_on channel=2 note=32 velocity=100 time=0
EXTRACT: note_off channel=0 note=54 velocity=0 time=0.07142849999999999
EXTRACT: note_off channel=9 note=35 velocity=0 time=0.056547562499999995
EXTRACT: note_off channel=9 note=36 velocity=0 time=0
EXTRACT: note_on channel=0 note=54 velocity=100 time=0.014880937499999998
EXTRACT: note_off channel=0 note=54 velocity=0 time=0.07142849999999999
EXTRACT: note_off channel=3 note=56 velocity=0 time=0.017857124999999998
EXTRACT: note_on channel=0 note=54 velocity=100 time=0.05357137499999999
EXTRACT: note_on channel=9 note=42 velocity=100 time=0
EXTRACT: control_change channel=1 control=10 value=0 time=0
EXTRACT: note_on channel=1 note=68 velocity=100 time=0
EXTRACT: note_on channel=4 note=66 velocity=100 time=0
EXTRACT: note_off channel=6 note=63 velocity=0 time=0
EXTRACT: note_on channel=6 note=61 velocity=100 time=0
EXTRACT: note_off channel=0 note=54 velocity=0 time=0.07142849999999999
EXTRACT: note_off channel=4 note=66 velocity=0 time=0.023809499999999997
EXTRACT: note_off channel=9 note=42 velocity=0 time=0.0327380625
EXTRACT: note_on channel=0 note=56 velocity=100 time=0.014880937499999998
EXTRACT: note_off channel=2 note=32 velocity=0 time=0.038690437499999994
EXTRACT: note_on channel=9 note=38 velocity=100 time=0.10416656249999999
EXTRACT: control_change channel=4 control=10 value=104 time=0
EXTRACT: note_on channel=4 note=68 velocity=100 time=0
EXTRACT: note_off channel=1 note=68 velocity=0 time=0.0208333125
EXTRACT: note_off channel=0 note=56 velocity=0 time=0.023809499999999997
EXTRACT: note_off channel=11 note=68 velocity=0 time=0.056547562499999995
EXTRACT: note_off channel=4 note=68 velocity=0 time=0.017857124999999998
EXTRACT: note_off channel=9 note=38 velocity=0 time=0.008928562499999999
EXTRACT: note_on channel=0 note=56 velocity=100 time=0.014880937499999998
EXTRACT: note_off channel=6 note=61 velocity=0 time=0
EXTRACT: note_on channel=6 note=59 velocity=100 time=0
EXTRACT: note_on channel=9 note=42 velocity=100 time=0.14285699999999998
EXTRACT: control_change channel=1 control=10 value=127 time=0
EXTRACT: note_on channel=1 note=68 velocity=100 time=0
EXTRACT: note_off channel=6 note=59 velocity=0 time=0
EXTRACT: note_on channel=6 note=56 velocity=100 time=0
EXTRACT: note_off channel=0 note=56 velocity=0 time=0.0446428125
EXTRACT: note_off channel=9 note=42 velocity=0 time=0.08333325
EXTRACT: note_on channel=0 note=56 velocity=100 time=0.014880937499999998
EXTRACT: control_change channel=4 control=10 value=33 time=0
EXTRACT: note_on channel=4 note=63 velocity=100 time=0
EXTRACT: note_on channel=11 note=68 velocity=100 time=0
EXTRACT: note_on channel=2 note=31 velocity=100 time=0.07142849999999999
EXTRACT: note_off channel=0 note=56 velocity=0 time=0.038690437499999994
EXTRACT: note_off channel=4 note=63 velocity=0 time=0.008928562499999999
EXTRACT: note_on channel=0 note=54 velocity=100 time=0.023809499999999997
EXTRACT: note_on channel=9 note=35 velocity=100 time=0
EXTRACT: note_on channel=9 note=36 velocity=100 time=0
EXTRACT: note_off channel=2 note=31 velocity=0 time=0
EXTRACT: note_on channel=2 note=32 velocity=100 time=0
EXTRACT: note_on channel=11 note=66 velocity=100 time=0
EXTRACT: note_off channel=11 note=68 velocity=0 time=0.0446428125
EXTRACT: note_off channel=9 note=35 velocity=0 time=0.08333325
EXTRACT: note_off channel=9 note=36 velocity=0 time=0
EXTRACT: note_off channel=1 note=68 velocity=0 time=0.008928562499999999
EXTRACT: note_off channel=0 note=54 velocity=0 time=0.10416656249999999
EXTRACT: note_off channel=6 note=56 velocity=0 time=0.0327380625
EXTRACT: note_on channel=9 note=42 velocity=100 time=0.011904749999999999
EXTRACT: control_change channel=4 control=10 value=95 time=0
EXTRACT: note_on channel=4 note=66 velocity=100 time=0
EXTRACT: note_off channel=4 note=66 velocity=0 time=0.09523799999999999
EXTRACT: note_off channel=9 note=42 velocity=0 time=0.0327380625
EXTRACT: note_off channel=2 note=32 velocity=0 time=0.011904749999999999
EXTRACT: note_on channel=0 note=56 velocity=100 time=0.0029761874999999997
EXTRACT: note_off channel=0 note=56 velocity=0 time=0.14285699999999998
EXTRACT: note_on channel=9 note=38 velocity=100 time=0
EXTRACT: note_on channel=3 note=56 velocity=100 time=0
EXTRACT: control_change channel=4 control=10 value=33 time=0
EXTRACT: note_on channel=4 note=68 velocity=100 time=0
EXTRACT: note_off channel=9 note=38 velocity=0 time=0.1279760625
EXTRACT: note_off channel=3 note=56 velocity=0 time=0.008928562499999999
EXTRACT: note_on channel=0 note=56 velocity=100 time=0.005952374999999999
EXTRACT: note_on channel=3 note=54 velocity=100 time=0
EXTRACT: note_off channel=4 note=68 velocity=0 time=0
EXTRACT: control_change channel=4 control=10 value=95 time=0
EXTRACT: note_on channel=4 note=71 velocity=100 time=0
EXTRACT: note_off channel=0 note=56 velocity=0 time=0.14285699999999998
EXTRACT: note_on channel=9 note=42 velocity=100 time=0
EXTRACT: note_on channel=9 note=49 velocity=60 time=0
EXTRACT: note_off channel=3 note=54 velocity=0 time=0
EXTRACT: note_on channel=3 note=56 velocity=100 time=0
EXTRACT: note_on channel=6 note=56 velocity=100 time=0
EXTRACT: note_off channel=4 note=71 velocity=0 time=0.0208333125
EXTRACT: note_off channel=9 note=42 velocity=0 time=0.10714274999999998
EXTRACT: note_off channel=9 note=49 velocity=0 time=0
EXTRACT: note_on channel=0 note=56 velocity=100 time=0.014880937499999998
EXTRACT: note_off channel=3 note=56 velocity=0 time=0
EXTRACT: note_on channel=3 note=56 velocity=100 time=0
EXTRACT: note_off channel=11 note=66 velocity=0 time=0.10119037499999999
EXTRACT: note_off channel=0 note=56 velocity=0 time=0.026785687499999995
EXTRACT: note_off channel=6 note=56 velocity=0 time=0.014880937499999998
EXTRACT: note_on channel=6 note=61 velocity=100 time=0
EXTRACT: note_on channel=12 note=68 velocity=100 time=0
EXTRACT: note_off channel=12 note=68 velocity=0 time=0.14285699999999998
EXTRACT: note_on channel=12 note=68 velocity=100 time=0
EXTRACT: note_off channel=3 note=56 velocity=0 time=0.089285625
EXTRACT: note_off channel=6 note=61 velocity=0 time=0.05357137499999999
EXTRACT: note_on channel=6 note=56 velocity=100 time=0
EXTRACT: note_off channel=12 note=68 velocity=0 time=0
EXTRACT: note_on channel=12 note=66 velocity=100 time=0
EXTRACT: note_off channel=12 note=66 velocity=0 time=0.13690462499999997
EXTRACT: note_off channel=6 note=56 velocity=0 time=0.005952374999999999
EXTRACT: note_on channel=6 note=56 velocity=100 time=0
EXTRACT: note_on channel=12 note=63 velocity=100 time=0
EXTRACT: note_off channel=12 note=63 velocity=0 time=0.14285699999999998
EXTRACT: note_on channel=12 note=63 velocity=100 time=0
EXTRACT: note_off channel=6 note=56 velocity=0 time=0.14285699999999998
EXTRACT: note_on channel=6 note=56 velocity=100 time=0
EXTRACT: note_off channel=12 note=63 velocity=0 time=0
EXTRACT: note_on channel=12 note=61 velocity=100 time=0
EXTRACT: note_off channel=12 note=61 velocity=0 time=0.11904749999999999
EXTRACT: note_off channel=6 note=56 velocity=0 time=0.023809499999999997
EXTRACT: note_on channel=6 note=61 velocity=100 time=0
EXTRACT: note_on channel=11 note=66 velocity=68 time=0
EXTRACT: note_on channel=12 note=61 velocity=100 time=0
EXTRACT: note_off channel=11 note=66 velocity=0 time=0.07142849999999999
EXTRACT: note_off channel=12 note=61 velocity=0 time=0.047618999999999995
EXTRACT: note_on channel=11 note=63 velocity=68 time=0.023809499999999997
EXTRACT: note_on channel=12 note=58 velocity=100 time=0
EXTRACT: note_off channel=11 note=63 velocity=0 time=0.07142849999999999
EXTRACT: note_off channel=6 note=61 velocity=0 time=0.07142849999999999
EXTRACT: note_on channel=6 note=56 velocity=100 time=0
EXTRACT: note_on channel=11 note=66 velocity=68 time=0
EXTRACT: note_off channel=12 note=58 velocity=0 time=0
EXTRACT: note_on channel=12 note=56 velocity=100 time=0
EXTRACT: note_off channel=11 note=66 velocity=0 time=0.07142849999999999
EXTRACT: note_on channel=11 note=63 velocity=68 time=0.07142849999999999
EXTRACT: note_off channel=11 note=63 velocity=0 time=0.07142849999999999
EXTRACT: note_off channel=12 note=56 velocity=0 time=0.041666625
EXTRACT: note_on channel=9 note=35 velocity=100 time=0.029761874999999997
EXTRACT: note_on channel=9 note=36 velocity=100 time=0
EXTRACT: note_on channel=11 note=66 velocity=68 time=0
EXTRACT: note_off channel=11 note=66 velocity=0 time=0.07142849999999999
EXTRACT: note_off channel=9 note=35 velocity=0 time=0.056547562499999995
EXTRACT: note_off channel=9 note=36 velocity=0 time=0
EXTRACT: note_on channel=11 note=63 velocity=89 time=0.014880937499999998
EXTRACT: note_off channel=11 note=63 velocity=0 time=0.07142849999999999
EXTRACT: note_on channel=9 note=38 velocity=100 time=0.07142849999999999
EXTRACT: note_on channel=11 note=66 velocity=100 time=0
EXTRACT: note_off channel=11 note=66 velocity=0 time=0.07142849999999999
EXTRACT: note_off channel=9 note=38 velocity=0 time=0.056547562499999995
EXTRACT: note_on channel=11 note=68 velocity=100 time=0.014880937499999998
EXTRACT: note_off channel=6 note=56 velocity=0 time=0.41666624999999996
EXTRACT: note_on channel=0 note=54 velocity=100 time=0.011904749999999999
EXTRACT: note_on channel=9 note=35 velocity=100 time=0
EXTRACT: note_on channel=9 note=36 velocity=100 time=0
EXTRACT: note_on channel=2 note=32 velocity=100 time=0
EXTRACT: note_on channel=7 note=68 velocity=100 time=0
EXTRACT: note_on channel=8 note=68 velocity=100 time=0
EXTRACT: note_off channel=0 note=54 velocity=0 time=0.07142849999999999
EXTRACT: note_off channel=9 note=35 velocity=0 time=0.056547562499999995
EXTRACT: note_off channel=9 note=36 velocity=0 time=0
EXTRACT: note_on channel=0 note=54 velocity=100 time=0.014880937499999998
EXTRACT: note_off channel=0 note=54 velocity=0 time=0.07142849999999999
EXTRACT: note_on channel=0 note=54 velocity=100 time=0.07142849999999999
EXTRACT: note_on channel=9 note=42 velocity=100 time=0
EXTRACT: note_on channel=4 note=66 velocity=100 time=0
EXTRACT: note_on channel=6 note=68 velocity=100 time=0
EXTRACT: note_off channel=0 note=54 velocity=0 time=0.07142849999999999
EXTRACT: note_off channel=4 note=66 velocity=0 time=0.023809499999999997
EXTRACT: note_off channel=9 note=42 velocity=0 time=0.0327380625
EXTRACT: note_on channel=0 note=56 velocity=100 time=0.014880937499999998
EXTRACT: note_off channel=2 note=32 velocity=0 time=0.038690437499999994
EXTRACT: note_on channel=9 note=38 velocity=100 time=0.10416656249999999
EXTRACT: control_change channel=4 control=10 value=104 time=0
EXTRACT: note_on channel=4 note=68 velocity=100 time=0
EXTRACT: note_off channel=6 note=68 velocity=0 time=0
EXTRACT: note_on channel=6 note=68 velocity=100 time=0
EXTRACT: note_off channel=7 note=68 velocity=0 time=0
EXTRACT: note_on channel=7 note=70 velocity=100 time=0
EXTRACT: note_off channel=8 note=68 velocity=0 time=0
EXTRACT: note_on channel=8 note=70 velocity=100 time=0
EXTRACT: note_off channel=0 note=56 velocity=0 time=0.0446428125
EXTRACT: note_off channel=11 note=68 velocity=0 time=0.056547562499999995
EXTRACT: note_off channel=4 note=68 velocity=0 time=0.017857124999999998
EXTRACT: note_off channel=9 note=38 velocity=0 time=0.008928562499999999
EXTRACT: note_on channel=0 note=56 velocity=100 time=0.014880937499999998
EXTRACT: note_on channel=9 note=42 velocity=100 time=0.14285699999999998
EXTRACT: note_off channel=6 note=68 velocity=0 time=0
EXTRACT: note_on channel=6 note=68 velocity=100 time=0
EXTRACT: note_off channel=0 note=56 velocity=0 time=0.0446428125
EXTRACT: note_off channel=9 note=42 velocity=0 time=0.08333325
EXTRACT: note_on channel=0 note=56 velocity=100 time=0.014880937499999998
EXTRACT: control_change channel=4 control=10 value=33 time=0
EXTRACT: note_on channel=4 note=63 velocity=100 time=0
EXTRACT: note_on channel=11 note=68 velocity=100 time=0
EXTRACT: note_on channel=2 note=31 velocity=100 time=0.07142849999999999
EXTRACT: note_off channel=0 note=56 velocity=0 time=0.038690437499999994
EXTRACT: note_off channel=4 note=63 velocity=0 time=0.008928562499999999
EXTRACT: note_on channel=0 note=54 velocity=100 time=0.023809499999999997
EXTRACT: note_on channel=9 note=35 velocity=100 time=0
EXTRACT: note_on channel=9 note=36 velocity=100 time=0
EXTRACT: note_off channel=2 note=31 velocity=0 time=0
EXTRACT: note_on channel=2 note=32 velocity=100 time=0
EXTRACT: note_off channel=6 note=68 velocity=0 time=0
EXTRACT: note_on channel=6 note=66 velocity=100 time=0
EXTRACT: note_off channel=7 note=70 velocity=0 time=0
EXTRACT: note_on channel=7 note=71 velocity=100 time=0
EXTRACT: note_off channel=8 note=70 velocity=0 time=0
EXTRACT: note_on channel=8 note=71 velocity=100 time=0
EXTRACT: note_on channel=11 note=66 velocity=100 time=0
EXTRACT: note_off channel=11 note=68 velocity=0 time=0.0446428125
EXTRACT: note_off channel=9 note=35 velocity=0 time=0.08333325
EXTRACT: note_off channel=9 note=36 velocity=0 time=0
EXTRACT: note_off channel=6 note=66 velocity=0 time=0.014880937499999998
EXTRACT: note_on channel=6 note=68 velocity=100 time=0
EXTRACT: note_off channel=0 note=54 velocity=0 time=0.0982141875
EXTRACT: note_on channel=9 note=42 velocity=100 time=0.0446428125
EXTRACT: control_change channel=4 control=10 value=95 time=0
EXTRACT: note_on channel=4 note=66 velocity=100 time=0
EXTRACT: note_off channel=4 note=66 velocity=0 time=0.09523799999999999
EXTRACT: note_off channel=9 note=42 velocity=0 time=0.0327380625
EXTRACT: note_off channel=2 note=32 velocity=0 time=0.011904749999999999
EXTRACT: note_on channel=0 note=56 velocity=100 time=0.0029761874999999997
EXTRACT: note_off channel=6 note=68 velocity=0 time=0
EXTRACT: note_on channel=6 note=68 velocity=100 time=0
EXTRACT: note_off channel=0 note=56 velocity=0 time=0.14285699999999998
EXTRACT: note_on channel=9 note=38 velocity=100 time=0
EXTRACT: note_on channel=3 note=56 velocity=100 time=0
EXTRACT: control_change channel=4 control=10 value=33 time=0
EXTRACT: note_on channel=4 note=68 velocity=100 time=0
EXTRACT: note_off channel=7 note=71 velocity=0 time=0
EXTRACT: note_on channel=7 note=73 velocity=100 time=0
EXTRACT: note_off channel=8 note=71 velocity=0 time=0
EXTRACT: note_on channel=8 note=73 velocity=100 time=0
EXTRACT: note_off channel=9 note=38 velocity=0 time=0.1279760625
EXTRACT: note_off channel=3 note=56 velocity=0 time=0.008928562499999999
EXTRACT: note_on channel=0 note=56 velocity=100 time=0.005952374999999999
EXTRACT: note_on channel=3 note=54 velocity=100 time=0
EXTRACT: note_off channel=4 note=68 velocity=0 time=0
EXTRACT: control_change channel=4 control=10 value=95 time=0
EXTRACT: note_on channel=4 note=71 velocity=100 time=0
EXTRACT: note_off channel=0 note=56 velocity=0 time=0.14285699999999998
EXTRACT: note_on channel=9 note=42 velocity=100 time=0
EXTRACT: note_on channel=9 note=49 velocity=60 time=0
EXTRACT: note_off channel=3 note=54 velocity=0 time=0
EXTRACT: note_on channel=3 note=56 velocity=100 time=0
EXTRACT: note_off channel=6 note=68 velocity=0 time=0
EXTRACT: note_on channel=6 note=68 velocity=100 time=0
EXTRACT: note_off channel=4 note=71 velocity=0 time=0.0208333125
EXTRACT: note_off channel=9 note=42 velocity=0 time=0.10714274999999998
EXTRACT: note_off channel=9 note=49 velocity=0 time=0
EXTRACT: note_on channel=0 note=56 velocity=100 time=0.014880937499999998
EXTRACT: note_off channel=3 note=56 velocity=0 time=0
EXTRACT: note_on channel=3 note=56 velocity=100 time=0
EXTRACT: note_off channel=6 note=68 velocity=0 time=0
EXTRACT: note_on channel=6 note=68 velocity=100 time=0
EXTRACT: note_off channel=11 note=66 velocity=0 time=0.10119037499999999
EXTRACT: note_off channel=0 note=56 velocity=0 time=0.026785687499999995
EXTRACT: note_on channel=0 note=54 velocity=100 time=0.014880937499999998
EXTRACT: note_on channel=9 note=35 velocity=100 time=0
EXTRACT: note_on channel=9 note=36 velocity=100 time=0
EXTRACT: note_on channel=2 note=32 velocity=100 time=0
EXTRACT: control_change channel=4 control=10 value=24 time=0
EXTRACT: note_off channel=6 note=68 velocity=0 time=0
EXTRACT: note_on channel=6 note=71 velocity=100 time=0
EXTRACT: note_off channel=7 note=73 velocity=0 time=0
EXTRACT: note_on channel=7 note=75 velocity=100 time=0
EXTRACT: note_off channel=8 note=73 velocity=0 time=0
EXTRACT: note_on channel=8 note=75 velocity=100 time=0
EXTRACT: note_off channel=0 note=54 velocity=0 time=0.07142849999999999
EXTRACT: note_off channel=9 note=35 velocity=0 time=0.056547562499999995
EXTRACT: note_off channel=9 note=36 velocity=0 time=0
EXTRACT: note_on channel=0 note=54 velocity=100 time=0.014880937499999998
EXTRACT: note_off channel=6 note=71 velocity=0 time=0
EXTRACT: note_on channel=6 note=71 velocity=100 time=0
EXTRACT: note_off channel=0 note=54 velocity=0 time=0.07142849999999999
EXTRACT: note_off channel=3 note=56 velocity=0 time=0.017857124999999998
EXTRACT: note_on channel=0 note=54 velocity=100 time=0.05357137499999999
EXTRACT: note_on channel=9 note=42 velocity=100 time=0
EXTRACT: control_change channel=4 control=10 value=104 time=0
EXTRACT: note_on channel=4 note=66 velocity=100 time=0
EXTRACT: note_off channel=6 note=71 velocity=0 time=0
EXTRACT: note_on channel=6 note=68 velocity=100 time=0
EXTRACT: note_off channel=0 note=54 velocity=0 time=0.07142849999999999
EXTRACT: note_off channel=4 note=66 velocity=0 time=0.023809499999999997
EXTRACT: note_off channel=9 note=42 velocity=0 time=0.0327380625
EXTRACT: note_on channel=0 note=56 velocity=100 time=0.014880937499999998
EXTRACT: note_off channel=2 note=32 velocity=0 time=0.038690437499999994
EXTRACT: note_on channel=9 note=38 velocity=100 time=0.10416656249999999
EXTRACT: note_on channel=4 note=68 velocity=100 time=0
EXTRACT: note_off channel=6 note=68 velocity=0 time=0
EXTRACT: note_on channel=6 note=71 velocity=100 time=0
EXTRACT: note_off channel=7 note=75 velocity=0 time=0
EXTRACT: note_on channel=7 note=73 velocity=100 time=0
EXTRACT: note_off channel=8 note=75 velocity=0 time=0
EXTRACT: note_on channel=8 note=73 velocity=100 time=0
EXTRACT: note_off channel=0 note=56 velocity=0 time=0.0446428125
EXTRACT: note_off channel=4 note=68 velocity=0 time=0.0744046875
EXTRACT: note_off channel=9 note=38 velocity=0 time=0.008928562499999999
EXTRACT: note_on channel=0 note=56 velocity=100 time=0.014880937499999998
EXTRACT: control_change channel=4 control=10 value=33 time=0
EXTRACT: note_on channel=9 note=42 velocity=100 time=0.14285699999999998
EXTRACT: note_off channel=6 note=71 velocity=0 time=0
EXTRACT: note_on channel=6 note=68 velocity=100 time=0
EXTRACT: note_on channel=11 note=66 velocity=68 time=0
EXTRACT: note_off channel=0 note=56 velocity=0 time=0.0446428125
EXTRACT: note_off channel=11 note=66 velocity=0 time=0.026785687499999995
EXTRACT: note_off channel=9 note=42 velocity=0 time=0.056547562499999995
EXTRACT: note_on channel=0 note=56 velocity=100 time=0.014880937499999998
EXTRACT: note_on channel=4 note=63 velocity=100 time=0
EXTRACT: note_on channel=11 note=63 velocity=68 time=0
EXTRACT: note_on channel=2 note=31 velocity=100 time=0.07142849999999999
EXTRACT: note_off channel=11 note=63 velocity=0 time=0
EXTRACT: note_off channel=0 note=56 velocity=0 time=0.038690437499999994
EXTRACT: note_off channel=4 note=63 velocity=0 time=0.008928562499999999
EXTRACT: note_on channel=0 note=54 velocity=100 time=0.023809499999999997
EXTRACT: note_on channel=9 note=35 velocity=100 time=0
EXTRACT: note_on channel=9 note=36 velocity=100 time=0
EXTRACT: note_off channel=2 note=31 velocity=0 time=0
EXTRACT: note_on channel=2 note=32 velocity=100 time=0
EXTRACT: control_change channel=4 control=10 value=95 time=0
EXTRACT: note_off channel=6 note=68 velocity=0 time=0
EXTRACT: note_on channel=6 note=66 velocity=100 time=0
EXTRACT: note_off channel=7 note=73 velocity=0 time=0
EXTRACT: note_on channel=7 note=71 velocity=100 time=0
EXTRACT: note_off channel=8 note=73 velocity=0 time=0
EXTRACT: note_on channel=8 note=71 velocity=100 time=0
EXTRACT: note_on channel=11 note=66 velocity=68 time=0
EXTRACT: note_off channel=11 note=66 velocity=0 time=0.07142849999999999
EXTRACT: note_off channel=9 note=35 velocity=0 time=0.056547562499999995
EXTRACT: note_off channel=9 note=36 velocity=0 time=0
EXTRACT: note_off channel=6 note=66 velocity=0 time=0.014880937499999998
EXTRACT: note_on channel=6 note=68 velocity=100 time=0
EXTRACT: note_on channel=11 note=63 velocity=68 time=0
EXTRACT: note_off channel=11 note=63 velocity=0 time=0.07142849999999999
EXTRACT: note_off channel=0 note=54 velocity=0 time=0.026785687499999995
EXTRACT: note_on channel=9 note=42 velocity=100 time=0.0446428125
EXTRACT: control_change channel=4 control=10 value=33 time=0
EXTRACT: note_on channel=4 note=66 velocity=100 time=0
EXTRACT: note_on channel=11 note=66 velocity=68 time=0
EXTRACT: note_off channel=11 note=66 velocity=0 time=0.07142849999999999
EXTRACT: note_off channel=4 note=66 velocity=0 time=0.023809499999999997
EXTRACT: note_off channel=9 note=42 velocity=0 time=0.0327380625
EXTRACT: note_off channel=2 note=32 velocity=0 time=0.011904749999999999
EXTRACT: note_on channel=0 note=56 velocity=100 time=0.0029761874999999997
EXTRACT: control_change channel=4 control=10 value=95 time=0
EXTRACT: note_off channel=6 note=68 velocity=0 time=0
EXTRACT: note_on channel=6 note=68 velocity=100 time=0
EXTRACT: note_on channel=11 note=63 velocity=89 time=0
EXTRACT: note_off channel=11 note=63 velocity=0 time=0.07142849999999999
EXTRACT: note_off channel=0 note=56 velocity=0 time=0.07142849999999999
EXTRACT: note_on channel=9 note=38 velocity=100 time=0
EXTRACT: note_on channel=3 note=56 velocity=100 time=0
EXTRACT: note_on channel=4 note=68 velocity=100 time=0
EXTRACT: note_off channel=7 note=71 velocity=0 time=0
EXTRACT: note_on channel=7 note=70 velocity=100 time=0
EXTRACT: note_off channel=8 note=71 velocity=0 time=0
EXTRACT: note_on channel=8 note=70 velocity=100 time=0
EXTRACT: note_on channel=11 note=66 velocity=100 time=0
EXTRACT: note_off channel=11 note=66 velocity=0 time=0.07142849999999999
EXTRACT: note_off channel=9 note=38 velocity=0 time=0.056547562499999995
EXTRACT: note_off channel=3 note=56 velocity=0 time=0.008928562499999999
EXTRACT: note_on channel=0 note=56 velocity=100 time=0.005952374999999999
EXTRACT: note_on channel=3 note=54 velocity=100 time=0
EXTRACT: note_off channel=4 note=68 velocity=0 time=0
EXTRACT: note_on channel=4 note=71 velocity=100 time=0
EXTRACT: note_on channel=11 note=68 velocity=100 time=0
EXTRACT: note_off channel=0 note=56 velocity=0 time=0.14285699999999998
EXTRACT: note_on channel=9 note=35 velocity=100 time=0
EXTRACT: note_on channel=9 note=36 velocity=100 time=0
EXTRACT: note_on channel=9 note=42 velocity=100 time=0
EXTRACT: note_on channel=9 note=49 velocity=60 time=0
EXTRACT: note_off channel=3 note=54 velocity=0 time=0
EXTRACT: note_on channel=3 note=56 velocity=100 time=0
EXTRACT: note_off channel=6 note=68 velocity=0 time=0
EXTRACT: note_on channel=6 note=66 velocity=100 time=0
EXTRACT: note_off channel=4 note=71 velocity=0 time=0.0208333125
EXTRACT: note_off channel=9 note=35 velocity=0 time=0.10714274999999998
EXTRACT: note_off channel=9 note=36 velocity=0 time=0
EXTRACT: note_off channel=9 note=42 velocity=0 time=0
EXTRACT: note_off channel=9 note=49 velocity=0 time=0
EXTRACT: note_on channel=0 note=56 velocity=100 time=0.014880937499999998
EXTRACT: note_off channel=3 note=56 velocity=0 time=0
EXTRACT: note_on channel=3 note=56 velocity=100 time=0
EXTRACT: note_off channel=0 note=56 velocity=0 time=0.1279760625
EXTRACT: note_on channel=0 note=54 velocity=100 time=0.014880937499999998
EXTRACT: note_on channel=9 note=35 velocity=100 time=0
EXTRACT: note_on channel=9 note=36 velocity=100 time=0
EXTRACT: note_on channel=2 note=32 velocity=100 time=0
EXTRACT: control_change channel=4 control=10 value=24 time=0
EXTRACT: note_off channel=6 note=66 velocity=0 time=0
EXTRACT: note_on channel=6 note=71 velocity=100 time=0
EXTRACT: note_off channel=7 note=70 velocity=0 time=0
EXTRACT: note_on channel=7 note=68 velocity=100 time=0
EXTRACT: note_off channel=8 note=70 velocity=0 time=0
EXTRACT: note_on channel=8 note=68 velocity=100 time=0
EXTRACT: note_off channel=0 note=54 velocity=0 time=0.07142849999999999
EXTRACT: note_off channel=9 note=35 velocity=0 time=0.056547562499999995
EXTRACT: note_off channel=9 note=36 velocity=0 time=0
EXTRACT: note_on channel=0 note=54 velocity=100 time=0.014880937499999998
EXTRACT: note_off channel=0 note=54 velocity=0 time=0.07142849999999999
EXTRACT: note_off channel=3 note=56 velocity=0 time=0.017857124999999998
EXTRACT: note_on channel=0 note=54 velocity=100 time=0.05357137499999999
EXTRACT: note_on channel=9 note=42 velocity=100 time=0
EXTRACT: control_change channel=4 control=10 value=104 time=0
EXTRACT: note_on channel=4 note=66 velocity=100 time=0
EXTRACT: note_off channel=6 note=71 velocity=0 time=0
EXTRACT: note_on channel=6 note=68 velocity=100 time=0
EXTRACT: note_off channel=0 note=54 velocity=0 time=0.07142849999999999
EXTRACT: note_off channel=4 note=66 velocity=0 time=0.023809499999999997
EXTRACT: note_off channel=9 note=42 velocity=0 time=0.0327380625
EXTRACT: note_on channel=0 note=56 velocity=100 time=0.014880937499999998
EXTRACT: note_off channel=2 note=32 velocity=0 time=0.038690437499999994
EXTRACT: note_on channel=9 note=38 velocity=100 time=0.10416656249999999
EXTRACT: note_on channel=4 note=68 velocity=100 time=0
EXTRACT: note_off channel=6 note=68 velocity=0 time=0
EXTRACT: note_on channel=6 note=71 velocity=75 time=0
EXTRACT: note_off channel=0 note=56 velocity=0 time=0.0446428125
EXTRACT: note_off channel=11 note=68 velocity=0 time=0.056547562499999995
EXTRACT: note_off channel=4 note=68 velocity=0 time=0.017857124999999998
EXTRACT: note_off channel=9 note=38 velocity=0 time=0.008928562499999999
EXTRACT: note_on channel=0 note=56 velocity=100 time=0.014880937499999998
EXTRACT: control_change channel=4 control=10 value=33 time=0
EXTRACT: note_on channel=9 note=42 velocity=100 time=0.14285699999999998
EXTRACT: note_off channel=6 note=71 velocity=0 time=0
EXTRACT: note_on channel=6 note=68 velocity=75 time=0
EXTRACT: note_off channel=0 note=56 velocity=0 time=0.0446428125
EXTRACT: note_off channel=9 note=42 velocity=0 time=0.08333325
EXTRACT: note_on channel=0 note=56 velocity=100 time=0.014880937499999998
EXTRACT: note_on channel=4 note=63 velocity=100 time=0
EXTRACT: note_on channel=11 note=68 velocity=100 time=0
EXTRACT: note_on channel=2 note=31 velocity=100 time=0.07142849999999999
EXTRACT: note_off channel=0 note=56 velocity=0 time=0.038690437499999994
EXTRACT: note_off channel=4 note=63 velocity=0 time=0.008928562499999999
EXTRACT: note_on channel=0 note=54 velocity=100 time=0.023809499999999997
EXTRACT: note_on channel=9 note=35 velocity=100 time=0
EXTRACT: note_on channel=9 note=36 velocity=100 time=0
EXTRACT: note_off channel=2 note=31 velocity=0 time=0
EXTRACT: note_on channel=2 note=32 velocity=100 time=0
EXTRACT: control_change channel=4 control=10 value=95 time=0
EXTRACT: note_off channel=6 note=68 velocity=0 time=0
EXTRACT: note_on channel=6 note=71 velocity=100 time=0
EXTRACT: note_on channel=11 note=66 velocity=100 time=0
EXTRACT: note_off channel=11 note=68 velocity=0 time=0.0446428125
EXTRACT: note_off channel=9 note=35 velocity=0 time=0.08333325
EXTRACT: note_off channel=9 note=36 velocity=0 time=0
EXTRACT: note_off channel=0 note=54 velocity=0 time=0.11309512499999999
EXTRACT: note_on channel=9 note=42 velocity=100 time=0.0446428125
EXTRACT: control_change channel=4 control=10 value=33 time=0
EXTRACT: note_on channel=4 note=66 velocity=100 time=0
EXTRACT: note_off channel=6 note=71 velocity=0 time=0
EXTRACT: note_on channel=6 note=68 velocity=100 time=0
EXTRACT: note_off channel=4 note=66 velocity=0 time=0.09523799999999999
EXTRACT: note_off channel=9 note=42 velocity=0 time=0.0327380625
EXTRACT: note_off channel=2 note=32 velocity=0 time=0.011904749999999999
EXTRACT: note_on channel=0 note=56 velocity=100 time=0.0029761874999999997
EXTRACT: control_change channel=4 control=10 value=95 time=0
EXTRACT: note_off channel=0 note=56 velocity=0 time=0.14285699999999998
EXTRACT: note_on channel=9 note=38 velocity=100 time=0
EXTRACT: note_on channel=3 note=56 velocity=100 time=0
EXTRACT: note_on channel=4 note=68 velocity=100 time=0
EXTRACT: note_on channel=6 note=63 velocity=52 time=0
EXTRACT: note_off channel=6 note=68 velocity=0 time=0
EXTRACT: note_on channel=6 note=73 velocity=75 time=0
EXTRACT: note_off channel=9 note=38 velocity=0 time=0.1279760625
EXTRACT: note_off channel=3 note=56 velocity=0 time=0.008928562499999999
EXTRACT: note_on channel=0 note=56 velocity=100 time=0.005952374999999999
EXTRACT: note_on channel=3 note=54 velocity=100 time=0
EXTRACT: note_off channel=4 note=68 velocity=0 time=0
EXTRACT: note_on channel=4 note=71 velocity=100 time=0
EXTRACT: note_off channel=0 note=56 velocity=0 time=0.14285699999999998
EXTRACT: note_on channel=9 note=42 velocity=100 time=0
EXTRACT: note_on channel=9 note=49 velocity=60 time=0
EXTRACT: note_off channel=3 note=54 velocity=0 time=0
EXTRACT: note_on channel=3 note=56 velocity=100 time=0
EXTRACT: note_off channel=6 note=73 velocity=0 time=0
EXTRACT: note_on channel=6 note=68 velocity=100 time=0
EXTRACT: note_off channel=4 note=71 velocity=0 time=0.0208333125
EXTRACT: note_off channel=9 note=42 velocity=0 time=0.10714274999999998
EXTRACT: note_off channel=9 note=49 velocity=0 time=0
EXTRACT: note_on channel=0 note=56 velocity=100 time=0.014880937499999998
EXTRACT: note_off channel=3 note=56 velocity=0 time=0
EXTRACT: note_on channel=3 note=56 velocity=100 time=0
EXTRACT: note_off channel=11 note=66 velocity=0 time=0.10119037499999999
EXTRACT: note_off channel=0 note=56 velocity=0 time=0.026785687499999995
EXTRACT: note_off channel=6 note=63 velocity=0 time=0.0029761874999999997
EXTRACT: note_on channel=0 note=54 velocity=100 time=0.011904749999999999
EXTRACT: note_on channel=9 note=35 velocity=100 time=0
EXTRACT: note_on channel=9 note=36 velocity=100 time=0
EXTRACT: note_on channel=2 note=32 velocity=100 time=0
EXTRACT: note_on channel=6 note=63 velocity=79 time=0
EXTRACT: note_off channel=6 note=68 velocity=0 time=0
EXTRACT: note_on channel=6 note=73 velocity=100 time=0
EXTRACT: note_off channel=0 note=54 velocity=0 time=0.07142849999999999
EXTRACT: note_off channel=9 note=35 velocity=0 time=0.056547562499999995
EXTRACT: note_off channel=9 note=36 velocity=0 time=0
EXTRACT: note_on channel=0 note=54 velocity=100 time=0.014880937499999998
EXTRACT: note_off channel=0 note=54 velocity=0 time=0.07142849999999999
EXTRACT: note_off channel=3 note=56 velocity=0 time=0.017857124999999998
EXTRACT: note_on channel=0 note=54 velocity=100 time=0.05357137499999999
EXTRACT: note_on channel=9 note=42 velocity=100 time=0
EXTRACT: note_off channel=2 note=32 velocity=0 time=0
EXTRACT: note_on channel=2 note=32 velocity=80 time=0
EXTRACT: note_on channel=4 note=66 velocity=100 time=0
EXTRACT: note_off channel=6 note=73 velocity=0 time=0
EXTRACT: note_on channel=6 note=73 velocity=100 time=0
EXTRACT: note_off channel=0 note=54 velocity=0 time=0.07142849999999999
EXTRACT: note_off channel=4 note=66 velocity=0 time=0.023809499999999997
EXTRACT: note_off channel=9 note=42 velocity=0 time=0.0327380625
EXTRACT: note_on channel=0 note=56 velocity=100 time=0.014880937499999998
EXTRACT: note_off channel=6 note=63 velocity=0 time=0.13095225
EXTRACT: note_on channel=6 note=63 velocity=97 time=0.005952374999999999
EXTRACT: note_on channel=9 note=35 velocity=100 time=0.005952374999999999
EXTRACT: note_on channel=9 note=36 velocity=100 time=0
EXTRACT: note_off channel=2 note=32 velocity=0 time=0
EXTRACT: note_on channel=2 note=30 velocity=100 time=0
EXTRACT: control_change channel=4 control=10 value=104 time=0
EXTRACT: note_on channel=4 note=68 velocity=100 time=0
EXTRACT: note_off channel=6 note=73 velocity=0 time=0
EXTRACT: note_on channel=6 note=73 velocity=100 time=0
EXTRACT: note_off channel=0 note=56 velocity=0 time=0.0446428125
EXTRACT: note_off channel=4 note=68 velocity=0 time=0.0744046875
EXTRACT: note_off channel=9 note=35 velocity=0 time=0.008928562499999999
EXTRACT: note_off channel=9 note=36 velocity=0 time=0
EXTRACT: note_on channel=0 note=56 velocity=100 time=0.014880937499999998
EXTRACT: note_on channel=9 note=42 velocity=100 time=0.14285699999999998
EXTRACT: note_off channel=2 note=30 velocity=0 time=0
EXTRACT: note_on channel=2 note=30 velocity=80 time=0
EXTRACT: note_off channel=6 note=73 velocity=0 time=0
EXTRACT: note_on channel=6 note=73 velocity=100 time=0
EXTRACT: note_on channel=11 note=66 velocity=68 time=0
EXTRACT: note_off channel=0 note=56 velocity=0 time=0.0446428125
EXTRACT: note_off channel=11 note=66 velocity=0 time=0.026785687499999995
EXTRACT: note_off channel=9 note=42 velocity=0 time=0.056547562499999995
EXTRACT: note_on channel=0 note=56 velocity=100 time=0.014880937499999998
EXTRACT: control_change channel=4 control=10 value=33 time=0
EXTRACT: note_on channel=4 note=63 velocity=100 time=0
EXTRACT: note_on channel=11 note=63 velocity=68 time=0
EXTRACT: note_off channel=11 note=63 velocity=0 time=0.07142849999999999
EXTRACT: note_off channel=0 note=56 velocity=0 time=0.038690437499999994
EXTRACT: note_off channel=4 note=63 velocity=0 time=0.008928562499999999
EXTRACT: note_off channel=6 note=63 velocity=0 time=0.005952374999999999
EXTRACT: note_on channel=6 note=63 velocity=108 time=0.011904749999999999
EXTRACT: note_on channel=0 note=54 velocity=100 time=0.005952374999999999
EXTRACT: note_on channel=9 note=35 velocity=100 time=0
EXTRACT: note_on channel=9 note=36 velocity=100 time=0
EXTRACT: note_off channel=2 note=30 velocity=0 time=0
EXTRACT: note_on channel=2 note=29 velocity=100 time=0
EXTRACT: note_off channel=6 note=73 velocity=0 time=0
EXTRACT: note_on channel=6 note=71 velocity=100 time=0
EXTRACT: note_on channel=11 note=66 velocity=68 time=0
EXTRACT: note_off channel=11 note=66 velocity=0 time=0.07142849999999999
EXTRACT: note_off channel=9 note=35 velocity=0 time=0.056547562499999995
EXTRACT: note_off channel=9 note=36 velocity=0 time=0
EXTRACT: note_on channel=11 note=63 velocity=68 time=0.014880937499999998
EXTRACT: note_off channel=11 note=63 velocity=0 time=0.07142849999999999
EXTRACT: note_off channel=0 note=54 velocity=0 time=0.026785687499999995
EXTRACT: note_on channel=9 note=38 velocity=100 time=0.0446428125
EXTRACT: note_on channel=9 note=42 velocity=100 time=0
EXTRACT: note_off channel=2 note=29 velocity=0 time=0
EXTRACT: note_on channel=2 note=29 velocity=80 time=0
EXTRACT: control_change channel=4 control=10 value=95 time=0
EXTRACT: note_on channel=4 note=66 velocity=100 time=0
EXTRACT: note_on channel=11 note=66 velocity=68 time=0
EXTRACT: note_off channel=11 note=66 velocity=0 time=0.07142849999999999
EXTRACT: note_off channel=4 note=66 velocity=0 time=0.023809499999999997
EXTRACT: note_off channel=9 note=38 velocity=0 time=0.0327380625
EXTRACT: note_off channel=9 note=42 velocity=0 time=0
EXTRACT: note_on channel=0 note=56 velocity=100 time=0.014880937499999998
EXTRACT: note_on channel=9 note=35 velocity=100 time=0
EXTRACT: note_on channel=9 note=36 velocity=100 time=0
EXTRACT: note_on channel=11 note=63 velocity=89 time=0
EXTRACT: note_off channel=11 note=63 velocity=0 time=0.07142849999999999
EXTRACT: note_off channel=6 note=63 velocity=0 time=0.05357137499999999
EXTRACT: note_off channel=9 note=35 velocity=0 time=0.0029761874999999997
EXTRACT: note_off channel=9 note=36 velocity=0 time=0
EXTRACT: note_on channel=6 note=63 velocity=119 time=0.008928562499999999
EXTRACT: note_off channel=0 note=56 velocity=0 time=0.005952374999999999
EXTRACT: note_on channel=9 note=35 velocity=100 time=0
EXTRACT: note_on channel=9 note=36 velocity=100 time=0
EXTRACT: note_off channel=2 note=29 velocity=0 time=0
EXTRACT: note_on channel=2 note=27 velocity=100 time=0
EXTRACT: note_on channel=3 note=56 velocity=100 time=0
EXTRACT: control_change channel=4 control=10 value=33 time=0
EXTRACT: note_on channel=4 note=68 velocity=100 time=0
EXTRACT: note_on channel=11 note=66 velocity=100 time=0
EXTRACT: note_off channel=11 note=66 velocity=0 time=0.07142849999999999
EXTRACT: note_off channel=9 note=35 velocity=0 time=0.056547562499999995
EXTRACT: note_off channel=9 note=36 velocity=0 time=0
EXTRACT: note_off channel=3 note=56 velocity=0 time=0.008928562499999999
EXTRACT: note_on channel=0 note=56 velocity=100 time=0.005952374999999999
EXTRACT: note_on channel=3 note=54 velocity=100 time=0
EXTRACT: note_off channel=4 note=68 velocity=0 time=0
EXTRACT: control_change channel=4 control=10 value=95 time=0
EXTRACT: note_on channel=4 note=71 velocity=100 time=0
EXTRACT: note_on channel=11 note=68 velocity=100 time=0
EXTRACT: note_off channel=6 note=71 velocity=0 time=0.13095225
EXTRACT: note_off channel=0 note=56 velocity=0 time=0.011904749999999999
EXTRACT: note_on channel=9 note=38 velocity=100 time=0
EXTRACT: note_on channel=9 note=42 velocity=100 time=0
EXTRACT: note_on channel=9 note=49 velocity=60 time=0
EXTRACT: note_off channel=2 note=27 velocity=0 time=0
EXTRACT: note_on channel=2 note=27 velocity=80 time=0
EXTRACT: note_off channel=3 note=54 velocity=0 time=0
EXTRACT: note_on channel=3 note=56 velocity=100 time=0
EXTRACT: note_off channel=4 note=71 velocity=0 time=0.0208333125
EXTRACT: note_off channel=9 note=38 velocity=0 time=0.10714274999999998
EXTRACT: note_off channel=9 note=42 velocity=0 time=0
EXTRACT: note_off channel=9 note=49 velocity=0 time=0
EXTRACT: note_on channel=0 note=56 velocity=100 time=0.014880937499999998
EXTRACT: note_off channel=3 note=56 velocity=0 time=0
EXTRACT: note_on channel=3 note=56 velocity=100 time=0
EXTRACT: note_off channel=6 note=63 velocity=0 time=0.12499987499999998
EXTRACT: note_off channel=0 note=56 velocity=0 time=0.0029761874999999997
EXTRACT: note_on channel=0 note=54 velocity=100 time=0.014880937499999998
EXTRACT: note_on channel=9 note=35 velocity=100 time=0
EXTRACT: note_on channel=9 note=36 velocity=100 time=0
EXTRACT: control_change channel=1 control=10 value=0 time=0
EXTRACT: note_on channel=2 note=32 velocity=100 time=0
EXTRACT: note_off channel=0 note=54 velocity=0 time=0.07142849999999999
EXTRACT: note_off channel=7 note=68 velocity=0 time=0.011904749999999999
EXTRACT: note_off channel=8 note=68 velocity=0 time=0
EXTRACT: note_off channel=9 note=35 velocity=0 time=0.0446428125
EXTRACT: note_off channel=9 note=36 velocity=0 time=0
EXTRACT: note_on channel=0 note=54 velocity=100 time=0.014880937499999998
EXTRACT: note_off channel=2 note=27 velocity=0 time=0.038690437499999994
EXTRACT: note_off channel=0 note=54 velocity=0 time=0.0327380625
EXTRACT: note_off channel=3 note=56 velocity=0 time=0.017857124999999998
EXTRACT: note_on channel=0 note=54 velocity=100 time=0.05357137499999999
EXTRACT: note_on channel=9 note=42 velocity=100 time=0
EXTRACT: note_on channel=1 note=68 velocity=100 time=0
EXTRACT: note_on channel=6 note=63 velocity=100 time=0
EXTRACT: note_off channel=0 note=54 velocity=0 time=0.07142849999999999
EXTRACT: note_off channel=9 note=42 velocity=0 time=0.056547562499999995
EXTRACT: note_off channel=6 note=63 velocity=0 time=0.008928562499999999
EXTRACT: note_on channel=0 note=56 velocity=100 time=0.005952374999999999
EXTRACT: note_on channel=6 note=63 velocity=100 time=0
EXTRACT: note_off channel=2 note=32 velocity=0 time=0.038690437499999994
EXTRACT: note_on channel=9 note=38 velocity=100 time=0.10416656249999999
EXTRACT: note_off channel=6 note=63 velocity=0 time=0
EXTRACT: note_on channel=6 note=63 velocity=100 time=0
EXTRACT: note_off channel=1 note=68 velocity=0 time=0.0208333125
EXTRACT: note_off channel=0 note=56 velocity=0 time=0.023809499999999997
EXTRACT: note_off channel=11 note=68 velocity=0 time=0.056547562499999995
EXTRACT: note_off channel=9 note=38 velocity=0 time=0.026785687499999995
EXTRACT: note_on channel=0 note=56 velocity=100 time=0.014880937499999998
EXTRACT: note_off channel=6 note=63 velocity=0 time=0.11607131249999998
EXTRACT: note_on channel=9 note=42 velocity=100 time=0.026785687499999995
EXTRACT: control_change channel=1 control=10 value=127 time=0
EXTRACT: note_on channel=1 note=68 velocity=100 time=0
EXTRACT: note_on channel=6 note=63 velocity=100 time=0.014880937499999998
EXTRACT: note_off channel=0 note=56 velocity=0 time=0.029761874999999997
EXTRACT: note_off channel=9 note=42 velocity=0 time=0.08333325
EXTRACT: note_off channel=6 note=63 velocity=0 time=0.005952374999999999
EXTRACT: note_on channel=0 note=56 velocity=100 time=0.008928562499999999
EXTRACT: note_on channel=2 note=31 velocity=100 time=0.07142849999999999
EXTRACT: note_off channel=0 note=56 velocity=0 time=0.038690437499999994
EXTRACT: note_on channel=0 note=54 velocity=100 time=0.0327380625
EXTRACT: note_on channel=9 note=35 velocity=100 time=0
EXTRACT: note_on channel=9 note=36 velocity=100 time=0
EXTRACT: note_off channel=2 note=31 velocity=0 time=0
EXTRACT: note_on channel=2 note=32 velocity=100 time=0
EXTRACT: note_on channel=6 note=63 velocity=100 time=0.008928562499999999
EXTRACT: note_off channel=9 note=35 velocity=0 time=0.11904749999999999
EXTRACT: note_off channel=9 note=36 velocity=0 time=0
EXTRACT: note_off channel=1 note=68 velocity=0 time=0.008928562499999999
EXTRACT: note_off channel=6 note=63 velocity=0 time=0.014880937499999998
EXTRACT: note_off channel=0 note=54 velocity=0 time=0.089285625
EXTRACT: note_on channel=9 note=42 velocity=100 time=0.0446428125
EXTRACT: note_on channel=6 note=61 velocity=100 time=0
EXTRACT: note_off channel=6 note=61 velocity=0 time=0.09523799999999999
EXTRACT: note_off channel=9 note=42 velocity=0 time=0.0327380625
EXTRACT: note_off channel=2 note=32 velocity=0 time=0.011904749999999999
EXTRACT: note_on channel=0 note=56 velocity=100 time=0.0029761874999999997
EXTRACT: note_off channel=0 note=56 velocity=0 time=0.14285699999999998
EXTRACT: note_on channel=9 note=38 velocity=100 time=0
EXTRACT: note_on channel=3 note=56 velocity=100 time=0
EXTRACT: note_on channel=6 note=61 velocity=100 time=0
EXTRACT: note_off channel=9 note=38 velocity=0 time=0.1279760625
EXTRACT: note_off channel=3 note=56 velocity=0 time=0.008928562499999999
EXTRACT: note_on channel=0 note=56 velocity=100 time=0.005952374999999999
EXTRACT: note_on channel=3 note=54 velocity=100 time=0
EXTRACT: note_off channel=0 note=56 velocity=0 time=0.14285699999999998
EXTRACT: note_on channel=9 note=42 velocity=100 time=0
EXTRACT: note_on channel=9 note=49 velocity=60 time=0
EXTRACT: note_off channel=3 note=54 velocity=0 time=0
EXTRACT: note_on channel=3 note=56 velocity=100 time=0
EXTRACT: note_off channel=6 note=61 velocity=0 time=0
EXTRACT: note_on channel=6 note=56 velocity=100 time=0
EXTRACT: note_off channel=9 note=42 velocity=0 time=0.1279760625
EXTRACT: note_off channel=9 note=49 velocity=0 time=0
EXTRACT: note_on channel=0 note=56 velocity=100 time=0.014880937499999998
EXTRACT: note_off channel=3 note=56 velocity=0 time=0
EXTRACT: note_on channel=3 note=56 velocity=100 time=0
EXTRACT: note_off channel=6 note=56 velocity=0 time=0
EXTRACT: note_off channel=0 note=56 velocity=0 time=0.1279760625
EXTRACT: note_on channel=0 note=54 velocity=100 time=0.014880937499999998
EXTRACT: note_on channel=9 note=35 velocity=100 time=0
EXTRACT: note_on channel=9 note=36 velocity=100 time=0
EXTRACT: note_on channel=2 note=32 velocity=100 time=0
EXTRACT: note_on channel=6 note=56 velocity=100 time=0
EXTRACT: note_off channel=0 note=54 velocity=0 time=0.07142849999999999
EXTRACT: note_off channel=9 note=35 velocity=0 time=0.056547562499999995
EXTRACT: note_off channel=9 note=36 velocity=0 time=0
EXTRACT: note_off channel=6 note=56 velocity=0 time=0.008928562499999999
EXTRACT: note_on channel=0 note=54 velocity=100 time=0.005952374999999999
EXTRACT: note_off channel=0 note=54 velocity=0 time=0.07142849999999999
EXTRACT: note_off channel=3 note=56 velocity=0 time=0.017857124999999998
EXTRACT: note_on channel=0 note=54 velocity=100 time=0.05357137499999999
EXTRACT: note_on channel=9 note=42 velocity=100 time=0
EXTRACT: note_on channel=6 note=56 velocity=100 time=0
EXTRACT: note_off channel=0 note=54 velocity=0 time=0.07142849999999999
EXTRACT: note_off channel=9 note=42 velocity=0 time=0.056547562499999995
EXTRACT: note_on channel=0 note=56 velocity=100 time=0.014880937499999998
EXTRACT: note_off channel=6 note=56 velocity=0 time=0
EXTRACT: note_on channel=6 note=56 velocity=100 time=0
EXTRACT: note_off channel=2 note=32 velocity=0 time=0.038690437499999994
EXTRACT: note_on channel=9 note=38 velocity=100 time=0.10416656249999999
EXTRACT: note_off channel=6 note=56 velocity=0 time=0
EXTRACT: note_on channel=6 note=58 velocity=100 time=0
EXTRACT: note_off channel=0 note=56 velocity=0 time=0.0446428125
EXTRACT: note_off channel=6 note=58 velocity=0 time=0.0744046875
EXTRACT: note_off channel=9 note=38 velocity=0 time=0.008928562499999999
EXTRACT: note_on channel=0 note=56 velocity=100 time=0.014880937499999998
EXTRACT: note_on channel=9 note=42 velocity=100 time=0.14285699999999998
EXTRACT: note_on channel=6 note=61 velocity=100 time=0
EXTRACT: note_off channel=0 note=56 velocity=0 time=0.0446428125
EXTRACT: note_off channel=9 note=42 velocity=0 time=0.08333325
EXTRACT: note_off channel=6 note=61 velocity=0 time=0.008928562499999999
EXTRACT: note_on channel=0 note=56 velocity=100 time=0.005952374999999999
EXTRACT: note_on channel=6 note=63 velocity=100 time=0
EXTRACT: note_on channel=2 note=31 velocity=100 time=0.07142849999999999
EXTRACT: note_off channel=0 note=56 velocity=0 time=0.038690437499999994
EXTRACT: note_on channel=0 note=54 velocity=100 time=0.0327380625
EXTRACT: note_on channel=9 note=35 velocity=100 time=0
EXTRACT: note_on channel=9 note=36 velocity=100 time=0
EXTRACT: note_off channel=2 note=31 velocity=0 time=0
EXTRACT: note_on channel=2 note=32 velocity=100 time=0
EXTRACT: note_off channel=6 note=63 velocity=0 time=0
EXTRACT: note_on channel=6 note=63 velocity=100 time=0
EXTRACT: note_off channel=9 note=35 velocity=0 time=0.1279760625
EXTRACT: note_off channel=9 note=36 velocity=0 time=0
EXTRACT: note_off channel=0 note=54 velocity=0 time=0.11309512499999999
EXTRACT: note_off channel=6 note=63 velocity=0 time=0.017857124999999998
EXTRACT: note_on channel=9 note=42 velocity=100 time=0.026785687499999995
EXTRACT: note_on channel=6 note=66 velocity=100 time=0
EXTRACT: note_off channel=6 note=66 velocity=0 time=0.11904749999999999
EXTRACT: note_off channel=9 note=42 velocity=0 time=0.008928562499999999
EXTRACT: note_off channel=2 note=32 velocity=0 time=0.011904749999999999
EXTRACT: note_on channel=0 note=56 velocity=100 time=0.0029761874999999997
EXTRACT: note_off channel=0 note=56 velocity=0 time=0.14285699999999998
EXTRACT: note_on channel=9 note=38 velocity=100 time=0
EXTRACT: note_on channel=3 note=56 velocity=100 time=0
EXTRACT: note_on channel=6 note=63 velocity=100 time=0
EXTRACT: note_off channel=9 note=38 velocity=0 time=0.1279760625
EXTRACT: note_off channel=3 note=56 velocity=0 time=0.008928562499999999
EXTRACT: note_on channel=0 note=56 velocity=100 time=0.005952374999999999
EXTRACT: note_on channel=3 note=54 velocity=100 time=0
EXTRACT: note_off channel=0 note=56 velocity=0 time=0.14285699999999998
EXTRACT: note_on channel=9 note=35 velocity=100 time=0
EXTRACT: note_on channel=9 note=36 velocity=100 time=0
EXTRACT: note_on channel=9 note=42 velocity=100 time=0
EXTRACT: note_on channel=9 note=49 velocity=60 time=0
EXTRACT: note_off channel=3 note=54 velocity=0 time=0
EXTRACT: note_on channel=3 note=56 velocity=100 time=0
EXTRACT: note_off channel=6 note=63 velocity=0 time=0
EXTRACT: note_on channel=6 note=56 velocity=100 time=0
EXTRACT: note_off channel=9 note=35 velocity=0 time=0.1279760625
EXTRACT: note_off channel=9 note=36 velocity=0 time=0
EXTRACT: note_off channel=9 note=42 velocity=0 time=0
EXTRACT: note_off channel=9 note=49 velocity=0 time=0
EXTRACT: note_on channel=0 note=56 velocity=100 time=0.014880937499999998
EXTRACT: note_off channel=3 note=56 velocity=0 time=0
EXTRACT: note_on channel=3 note=56 velocity=100 time=0
EXTRACT: note_off channel=6 note=56 velocity=0 time=0
EXTRACT: note_off channel=0 note=56 velocity=0 time=0.1279760625
EXTRACT: note_on channel=0 note=54 velocity=100 time=0.014880937499999998
EXTRACT: note_on channel=9 note=35 velocity=100 time=0
EXTRACT: note_on channel=9 note=36 velocity=100 time=0
EXTRACT: note_on channel=2 note=32 velocity=100 time=0
EXTRACT: note_on channel=6 note=56 velocity=100 time=0
EXTRACT: note_off channel=0 note=54 velocity=0 time=0.07142849999999999
EXTRACT: note_off channel=9 note=35 velocity=0 time=0.056547562499999995
EXTRACT: note_off channel=9 note=36 velocity=0 time=0
EXTRACT: note_off channel=6 note=56 velocity=0 time=0.008928562499999999
EXTRACT: note_on channel=0 note=54 velocity=100 time=0.005952374999999999
EXTRACT: note_off channel=0 note=54 velocity=0 time=0.07142849999999999
EXTRACT: note_off channel=3 note=56 velocity=0 time=0.017857124999999998
EXTRACT: note_on channel=0 note=54 velocity=100 time=0.05357137499999999
EXTRACT: note_on channel=9 note=42 velocity=100 time=0
EXTRACT: control_change channel=1 control=10 value=0 time=0
EXTRACT: note_on channel=1 note=68 velocity=100 time=0
EXTRACT: note_on channel=6 note=56 velocity=100 time=0
EXTRACT: note_off channel=0 note=54 velocity=0 time=0.07142849999999999
EXTRACT: note_off channel=9 note=42 velocity=0 time=0.056547562499999995
EXTRACT: note_on channel=0 note=56 velocity=100 time=0.014880937499999998
EXTRACT: note_off channel=6 note=56 velocity=0 time=0
EXTRACT: note_on channel=6 note=56 velocity=100 time=0
EXTRACT: note_off channel=2 note=32 velocity=0 time=0.038690437499999994
EXTRACT: note_on channel=9 note=38 velocity=100 time=0.10416656249999999
EXTRACT: note_off channel=6 note=56 velocity=0 time=0
EXTRACT: note_on channel=6 note=58 velocity=100 time=0
EXTRACT: note_off channel=1 note=68 velocity=0 time=0.0208333125
EXTRACT: note_off channel=0 note=56 velocity=0 time=0.023809499999999997
EXTRACT: note_off channel=6 note=58 velocity=0 time=0.0744046875
EXTRACT: note_off channel=9 note=38 velocity=0 time=0.008928562499999999
EXTRACT: note_on channel=0 note=56 velocity=100 time=0.014880937499999998
EXTRACT: note_on channel=9 note=42 velocity=100 time=0.14285699999999998
EXTRACT: control_change channel=1 control=10 value=127 time=0
EXTRACT: note_on channel=1 note=68 velocity=100 time=0
EXTRACT: note_on channel=6 note=61 velocity=100 time=0
EXTRACT: note_off channel=0 note=56 velocity=0 time=0.0446428125
EXTRACT: note_off channel=9 note=42 velocity=0 time=0.08333325
EXTRACT: note_off channel=6 note=61 velocity=0 time=0.008928562499999999
EXTRACT: note_on channel=0 note=56 velocity=100 time=0.005952374999999999
EXTRACT: note_on channel=6 note=63 velocity=100 time=0
EXTRACT: note_on channel=2 note=31 velocity=100 time=0.07142849999999999
EXTRACT: note_off channel=0 note=56 velocity=0 time=0.038690437499999994
EXTRACT: note_on channel=0 note=54 velocity=100 time=0.0327380625
EXTRACT: note_on channel=9 note=35 velocity=100 time=0
EXTRACT: note_on channel=9 note=36 velocity=100 time=0
EXTRACT: note_off channel=2 note=31 velocity=0 time=0
EXTRACT: note_on channel=2 note=32 velocity=100 time=0
EXTRACT: note_off channel=6 note=63 velocity=0 time=0
EXTRACT: note_on channel=6 note=63 velocity=100 time=0
EXTRACT: note_off channel=9 note=35 velocity=0 time=0.1279760625
EXTRACT: note_off channel=9 note=36 velocity=0 time=0
EXTRACT: note_off channel=1 note=68 velocity=0 time=0.008928562499999999
EXTRACT: note_off channel=0 note=54 velocity=0 time=0.10416656249999999
EXTRACT: note_off channel=6 note=63 velocity=0 time=0.017857124999999998
EXTRACT: note_on channel=9 note=42 velocity=100 time=0.026785687499999995
EXTRACT: note_on channel=6 note=66 velocity=100 time=0
EXTRACT: note_off channel=6 note=66 velocity=0 time=0.11904749999999999
EXTRACT: note_off channel=9 note=42 velocity=0 time=0.008928562499999999
EXTRACT: note_off channel=2 note=32 velocity=0 time=0.011904749999999999
EXTRACT: note_on channel=0 note=56 velocity=100 time=0.0029761874999999997
EXTRACT: note_off channel=0 note=56 velocity=0 time=0.14285699999999998
EXTRACT: note_on channel=9 note=38 velocity=100 time=0
EXTRACT: note_on channel=3 note=56 velocity=100 time=0
EXTRACT: note_on channel=6 note=63 velocity=100 time=0
EXTRACT: note_off channel=9 note=38 velocity=0 time=0.1279760625
EXTRACT: note_off channel=3 note=56 velocity=0 time=0.008928562499999999
EXTRACT: note_on channel=0 note=56 velocity=100 time=0.005952374999999999
EXTRACT: note_on channel=3 note=54 velocity=100 time=0
EXTRACT: note_off channel=0 note=56 velocity=0 time=0.14285699999999998
EXTRACT: note_on channel=9 note=42 velocity=100 time=0
EXTRACT: note_on channel=9 note=49 velocity=60 time=0
EXTRACT: note_off channel=3 note=54 velocity=0 time=0
EXTRACT: note_on channel=3 note=56 velocity=100 time=0
EXTRACT: note_off channel=6 note=63 velocity=0 time=0.06845231249999999
EXTRACT: note_off channel=9 note=42 velocity=0 time=0.05952374999999999
EXTRACT: note_off channel=9 note=49 velocity=0 time=0
EXTRACT: note_on channel=0 note=56 velocity=100 time=0.014880937499999998
EXTRACT: note_off channel=3 note=56 velocity=0 time=0
EXTRACT: note_on channel=3 note=56 velocity=100 time=0
EXTRACT: note_off channel=0 note=56 velocity=0 time=0.1279760625
EXTRACT: note_on channel=0 note=54 velocity=100 time=0.014880937499999998
EXTRACT: note_on channel=9 note=35 velocity=100 time=0
EXTRACT: note_on channel=9 note=36 velocity=100 time=0
EXTRACT: note_on channel=2 note=32 velocity=100 time=0
EXTRACT: note_on channel=6 note=58 velocity=100 time=0
EXTRACT: note_off channel=0 note=54 velocity=0 time=0.07142849999999999
EXTRACT: note_off channel=9 note=35 velocity=0 time=0.056547562499999995
EXTRACT: note_off channel=9 note=36 velocity=0 time=0
EXTRACT: note_off channel=6 note=58 velocity=0 time=0.008928562499999999
EXTRACT: note_on channel=0 note=54 velocity=100 time=0.005952374999999999
EXTRACT: note_off channel=0 note=54 velocity=0 time=0.07142849999999999
EXTRACT: note_off channel=3 note=56 velocity=0 time=0.017857124999999998
EXTRACT: note_on channel=0 note=54 velocity=100 time=0.05357137499999999
EXTRACT: note_on channel=9 note=42 velocity=100 time=0
EXTRACT: note_off channel=2 note=32 velocity=0 time=0
EXTRACT: note_on channel=2 note=32 velocity=80 time=0
EXTRACT: note_on channel=6 note=56 velocity=100 time=0
EXTRACT: note_off channel=0 note=54 velocity=0 time=0.07142849999999999
EXTRACT: note_off channel=9 note=42 velocity=0 time=0.056547562499999995
EXTRACT: note_on channel=0 note=56 velocity=100 time=0.014880937499999998
EXTRACT: note_off channel=6 note=56 velocity=0 time=0.11607131249999998
EXTRACT: note_on channel=9 note=38 velocity=100 time=0.026785687499999995
EXTRACT: note_off channel=2 note=32 velocity=0 time=0
EXTRACT: note_on channel=2 note=30 velocity=100 time=0
EXTRACT: note_on channel=6 note=58 velocity=100 time=0
EXTRACT: note_off channel=0 note=56 velocity=0 time=0.0446428125
EXTRACT: note_off channel=6 note=58 velocity=0 time=0.0744046875
EXTRACT: note_off channel=9 note=38 velocity=0 time=0.008928562499999999
EXTRACT: note_on channel=0 note=56 velocity=100 time=0.014880937499999998
EXTRACT: note_on channel=9 note=35 velocity=100 time=0.14285699999999998
EXTRACT: note_on channel=9 note=36 velocity=100 time=0
EXTRACT: note_on channel=9 note=42 velocity=100 time=0
EXTRACT: note_off channel=2 note=30 velocity=0 time=0
EXTRACT: note_on channel=2 note=30 velocity=80 time=0
EXTRACT: note_on channel=6 note=61 velocity=100 time=0
EXTRACT: note_off channel=0 note=56 velocity=0 time=0.0446428125
EXTRACT: note_off channel=9 note=35 velocity=0 time=0.08333325
EXTRACT: note_off channel=9 note=36 velocity=0 time=0
EXTRACT: note_off channel=9 note=42 velocity=0 time=0
EXTRACT: note_off channel=6 note=61 velocity=0 time=0.008928562499999999
EXTRACT: note_on channel=0 note=56 velocity=100 time=0.005952374999999999
EXTRACT: note_on channel=6 note=63 velocity=100 time=0
EXTRACT: note_off channel=0 note=56 velocity=0 time=0.11011893749999999
EXTRACT: note_off channel=6 note=63 velocity=0 time=0.008928562499999999
EXTRACT: note_on channel=0 note=54 velocity=100 time=0.023809499999999997
EXTRACT: note_on channel=9 note=35 velocity=100 time=0
EXTRACT: note_on channel=9 note=36 velocity=100 time=0
EXTRACT: note_off channel=2 note=30 velocity=0 time=0
EXTRACT: note_on channel=2 note=29 velocity=100 time=0
EXTRACT: note_on channel=6 note=63 velocity=100 time=0
EXTRACT: note_off channel=9 note=35 velocity=0 time=0.1279760625
EXTRACT: note_off channel=9 note=36 velocity=0 time=0
EXTRACT: note_off channel=0 note=54 velocity=0 time=0.11309512499999999
EXTRACT: note_off channel=6 note=63 velocity=0 time=0.017857124999999998
EXTRACT: note_on channel=9 note=38 velocity=100 time=0.026785687499999995
EXTRACT: note_on channel=9 note=42 velocity=100 time=0
EXTRACT: note_off channel=2 note=29 velocity=0 time=0
EXTRACT: note_on channel=2 note=29 velocity=80 time=0
EXTRACT: note_on channel=6 note=66 velocity=100 time=0
EXTRACT: note_off channel=6 note=66 velocity=0 time=0.11904749999999999
EXTRACT: note_off channel=9 note=38 velocity=0 time=0.008928562499999999
EXTRACT: note_off channel=9 note=42 velocity=0 time=0
EXTRACT: note_on channel=0 note=56 velocity=100 time=0.014880937499999998
EXTRACT: note_off channel=0 note=56 velocity=0 time=0.14285699999999998
EXTRACT: note_on channel=9 note=38 velocity=100 time=0
EXTRACT: note_off channel=2 note=29 velocity=0 time=0
EXTRACT: note_on channel=2 note=27 velocity=100 time=0
EXTRACT: note_on channel=3 note=56 velocity=100 time=0
EXTRACT: note_on channel=6 note=63 velocity=100 time=0
EXTRACT: note_off channel=9 note=38 velocity=0 time=0.1279760625
EXTRACT: note_off channel=3 note=56 velocity=0 time=0.008928562499999999
EXTRACT: note_on channel=0 note=56 velocity=100 time=0.005952374999999999
EXTRACT: note_on channel=3 note=54 velocity=100 time=0
EXTRACT: note_off channel=0 note=56 velocity=0 time=0.14285699999999998
EXTRACT: note_on channel=9 note=42 velocity=100 time=0
EXTRACT: note_on channel=9 note=49 velocity=60 time=0
EXTRACT: note_off channel=2 note=27 velocity=0 time=0
EXTRACT: note_on channel=2 note=27 velocity=80 time=0
EXTRACT: note_off channel=3 note=54 velocity=0 time=0
EXTRACT: note_on channel=3 note=56 velocity=100 time=0
EXTRACT: note_off channel=6 note=63 velocity=0 time=0.06845231249999999
EXTRACT: note_off channel=9 note=42 velocity=0 time=0.05952374999999999
EXTRACT: note_off channel=9 note=49 velocity=0 time=0
EXTRACT: note_on channel=0 note=56 velocity=100 time=0.014880937499999998
EXTRACT: note_off channel=3 note=56 velocity=0 time=0
EXTRACT: note_on channel=3 note=56 velocity=100 time=0
EXTRACT: note_off channel=0 note=56 velocity=0 time=0.1279760625
EXTRACT: note_on channel=0 note=54 velocity=100 time=0.014880937499999998
EXTRACT: note_on channel=9 note=35 velocity=100 time=0
EXTRACT: note_on channel=9 note=36 velocity=100 time=0
EXTRACT: note_on channel=2 note=32 velocity=100 time=0
EXTRACT: note_off channel=0 note=54 velocity=0 time=0.07142849999999999
EXTRACT: note_off channel=9 note=35 velocity=0 time=0.056547562499999995
EXTRACT: note_off channel=9 note=36 velocity=0 time=0
EXTRACT: note_on channel=0 note=54 velocity=100 time=0.014880937499999998
EXTRACT: note_off channel=2 note=27 velocity=0 time=0.038690437499999994
EXTRACT: note_off channel=0 note=54 velocity=0 time=0.0327380625
EXTRACT: note_off channel=3 note=56 velocity=0 time=0.017857124999999998
EXTRACT: note_on channel=0 note=54 velocity=100 time=0.05357137499999999
EXTRACT: note_on channel=9 note=42 velocity=100 time=0
EXTRACT: control_change channel=1 control=10 value=0 time=0
EXTRACT: note_on channel=1 note=68 velocity=100 time=0
EXTRACT: note_on channel=6 note=68 velocity=100 time=0
EXTRACT: note_off channel=0 note=54 velocity=0 time=0.07142849999999999
EXTRACT: note_off channel=9 note=42 velocity=0 time=0.056547562499999995
EXTRACT: note_off channel=6 note=68 velocity=0 time=0.008928562499999999
EXTRACT: note_on channel=0 note=56 velocity=100 time=0.005952374999999999
EXTRACT: note_on channel=6 note=68 velocity=100 time=0
EXTRACT: note_off channel=2 note=32 velocity=0 time=0.038690437499999994
EXTRACT: note_on channel=9 note=38 velocity=100 time=0.10416656249999999
EXTRACT: note_on channel=6 note=68 velocity=100 time=0
EXTRACT: note_off channel=1 note=68 velocity=0 time=0.0208333125
EXTRACT: note_off channel=0 note=56 velocity=0 time=0.023809499999999997
EXTRACT: note_off channel=6 note=68 velocity=0 time=0.07142849999999999
EXTRACT: note_off channel=6 note=68 velocity=0 time=0.0029761874999999997
EXTRACT: note_off channel=9 note=38 velocity=0 time=0.008928562499999999
EXTRACT: note_on channel=0 note=56 velocity=100 time=0.014880937499999998
EXTRACT: note_on channel=9 note=42 velocity=100 time=0.14285699999999998
EXTRACT: control_change channel=1 control=10 value=127 time=0
EXTRACT: note_on channel=1 note=68 velocity=100 time=0
EXTRACT: note_on channel=6 note=68 velocity=100 time=0
EXTRACT: note_off channel=0 note=56 velocity=0 time=0.0446428125
EXTRACT: note_off channel=9 note=42 velocity=0 time=0.08333325
EXTRACT: note_on channel=0 note=56 velocity=100 time=0.014880937499999998
EXTRACT: note_on channel=2 note=31 velocity=100 time=0.07142849999999999
EXTRACT: note_off channel=0 note=56 velocity=0 time=0.038690437499999994
EXTRACT: note_off channel=6 note=68 velocity=0 time=0.005952374999999999
EXTRACT: note_on channel=0 note=54 velocity=100 time=0.026785687499999995
EXTRACT: note_on channel=9 note=35 velocity=100 time=0
EXTRACT: note_on channel=9 note=36 velocity=100 time=0
EXTRACT: note_off channel=2 note=31 velocity=0 time=0
EXTRACT: note_on channel=2 note=32 velocity=100 time=0
EXTRACT: note_on channel=6 note=68 velocity=100 time=0
EXTRACT: note_off channel=9 note=35 velocity=0 time=0.1279760625
EXTRACT: note_off channel=9 note=36 velocity=0 time=0
EXTRACT: note_off channel=1 note=68 velocity=0 time=0.008928562499999999
EXTRACT: note_off channel=0 note=54 velocity=0 time=0.10416656249999999
EXTRACT: note_off channel=6 note=68 velocity=0 time=0.017857124999999998
EXTRACT: note_on channel=9 note=42 velocity=100 time=0.026785687499999995
EXTRACT: note_on channel=6 note=68 velocity=100 time=0
EXTRACT: note_off channel=9 note=42 velocity=0 time=0.1279760625
EXTRACT: note_off channel=2 note=32 velocity=0 time=0.011904749999999999
EXTRACT: note_on channel=0 note=56 velocity=100 time=0.0029761874999999997
EXTRACT: note_off channel=6 note=68 velocity=0 time=0.11607131249999998
EXTRACT: note_on channel=6 note=68 velocity=100 time=0.0208333125
EXTRACT: note_off channel=0 note=56 velocity=0 time=0.005952374999999999
EXTRACT: note_on channel=9 note=38 velocity=100 time=0
EXTRACT: note_on channel=3 note=56 velocity=100 time=0
EXTRACT: note_off channel=9 note=38 velocity=0 time=0.1279760625
EXTRACT: note_off channel=3 note=56 velocity=0 time=0.008928562499999999
EXTRACT: note_on channel=0 note=56 velocity=100 time=0.005952374999999999
EXTRACT: note_on channel=3 note=54 velocity=100 time=0
EXTRACT: note_off channel=6 note=68 velocity=0 time=0.11011893749999999
EXTRACT: note_off channel=0 note=56 velocity=0 time=0.0327380625
EXTRACT: note_on channel=9 note=42 velocity=100 time=0
EXTRACT: note_on channel=9 note=49 velocity=60 time=0
EXTRACT: note_off channel=3 note=54 velocity=0 time=0
EXTRACT: note_on channel=3 note=56 velocity=100 time=0
EXTRACT: note_off channel=9 note=42 velocity=0 time=0.1279760625
EXTRACT: note_off channel=9 note=49 velocity=0 time=0
EXTRACT: note_on channel=0 note=56 velocity=100 time=0.014880937499999998
EXTRACT: note_off channel=3 note=56 velocity=0 time=0
EXTRACT: note_on channel=3 note=56 velocity=100 time=0
EXTRACT: note_on channel=6 note=68 velocity=100 time=0
EXTRACT: note_off channel=0 note=56 velocity=0 time=0.1279760625
EXTRACT: note_off channel=6 note=68 velocity=0 time=0.008928562499999999
EXTRACT: note_on channel=0 note=54 velocity=100 time=0.005952374999999999
EXTRACT: note_on channel=9 note=35 velocity=100 time=0
EXTRACT: note_on channel=9 note=36 velocity=100 time=0
EXTRACT: note_on channel=2 note=32 velocity=100 time=0
EXTRACT: note_on channel=6 note=68 velocity=100 time=0
EXTRACT: note_off channel=0 note=54 velocity=0 time=0.07142849999999999
EXTRACT: note_off channel=9 note=35 velocity=0 time=0.056547562499999995
EXTRACT: note_off channel=9 note=36 velocity=0 time=0
EXTRACT: note_off channel=6 note=68 velocity=0 time=0.008928562499999999
EXTRACT: note_on channel=0 note=54 velocity=100 time=0.005952374999999999
EXTRACT: note_off channel=0 note=54 velocity=0 time=0.07142849999999999
EXTRACT: note_off channel=3 note=56 velocity=0 time=0.017857124999999998
EXTRACT: note_on channel=0 note=54 velocity=100 time=0.05357137499999999
EXTRACT: note_on channel=9 note=42 velocity=100 time=0
EXTRACT: note_on channel=6 note=66 velocity=100 time=0
EXTRACT: note_off channel=0 note=54 velocity=0 time=0.07142849999999999
EXTRACT: note_off channel=9 note=42 velocity=0 time=0.056547562499999995
EXTRACT: note_off channel=6 note=66 velocity=0 time=0.008928562499999999
EXTRACT: note_on channel=0 note=56 velocity=100 time=0.005952374999999999
EXTRACT: note_off channel=2 note=32 velocity=0 time=0.038690437499999994
EXTRACT: note_on channel=9 note=38 velocity=100 time=0.10416656249999999
EXTRACT: note_on channel=6 note=64 velocity=100 time=0
EXTRACT: note_off channel=0 note=56 velocity=0 time=0.0446428125
EXTRACT: note_off channel=6 note=64 velocity=0 time=0.0744046875
EXTRACT: note_off channel=9 note=38 velocity=0 time=0.008928562499999999
EXTRACT: note_on channel=0 note=56 velocity=100 time=0.014880937499999998
EXTRACT: note_on channel=9 note=42 velocity=100 time=0.14285699999999998
EXTRACT: note_on channel=6 note=66 velocity=100 time=0
EXTRACT: note_off channel=0 note=56 velocity=0 time=0.0446428125
EXTRACT: note_off channel=9 note=42 velocity=0 time=0.08333325
EXTRACT: note_off channel=6 note=66 velocity=0 time=0.008928562499999999
EXTRACT: note_on channel=0 note=56 velocity=100 time=0.005952374999999999
EXTRACT: note_on channel=2 note=31 velocity=100 time=0.07142849999999999
EXTRACT: note_off channel=0 note=56 velocity=0 time=0.038690437499999994
EXTRACT: note_on channel=0 note=54 velocity=100 time=0.0327380625
EXTRACT: note_on channel=9 note=35 velocity=100 time=0
EXTRACT: note_on channel=9 note=36 velocity=100 time=0
EXTRACT: note_off channel=2 note=31 velocity=0 time=0
EXTRACT: note_on channel=2 note=32 velocity=100 time=0
EXTRACT: note_on channel=6 note=63 velocity=100 time=0
EXTRACT: note_off channel=9 note=35 velocity=0 time=0.1279760625
EXTRACT: note_off channel=9 note=36 velocity=0 time=0
EXTRACT: note_off channel=0 note=54 velocity=0 time=0.11309512499999999
EXTRACT: note_off channel=6 note=63 velocity=0 time=0.017857124999999998
EXTRACT: note_on channel=9 note=42 velocity=100 time=0.026785687499999995
EXTRACT: note_on channel=6 note=61 velocity=100 time=0
EXTRACT: note_off channel=6 note=61 velocity=0 time=0.11904749999999999
EXTRACT: note_off channel=9 note=42 velocity=0 time=0.008928562499999999
EXTRACT: note_off channel=2 note=32 velocity=0 time=0.011904749999999999
EXTRACT: note_on channel=0 note=56 velocity=100 time=0.0029761874999999997
EXTRACT: note_off channel=0 note=56 velocity=0 time=0.14285699999999998
EXTRACT: note_on channel=9 note=38 velocity=100 time=0
EXTRACT: note_on channel=3 note=56 velocity=100 time=0
EXTRACT: note_on channel=6 note=61 velocity=100 time=0
EXTRACT: note_off channel=9 note=38 velocity=0 time=0.1279760625
EXTRACT: note_off channel=3 note=56 velocity=0 time=0.008928562499999999
EXTRACT: note_on channel=0 note=56 velocity=100 time=0.005952374999999999
EXTRACT: note_on channel=3 note=54 velocity=100 time=0
EXTRACT: note_off channel=0 note=56 velocity=0 time=0.14285699999999998
EXTRACT: note_on channel=9 note=35 velocity=100 time=0
EXTRACT: note_on channel=9 note=36 velocity=100 time=0
EXTRACT: note_on channel=9 note=42 velocity=100 time=0
EXTRACT: note_on channel=9 note=49 velocity=60 time=0
EXTRACT: note_off channel=3 note=54 velocity=0 time=0
EXTRACT: note_on channel=3 note=56 velocity=100 time=0
EXTRACT: note_off channel=6 note=61 velocity=0 time=0
EXTRACT: note_on channel=6 note=56 velocity=100 time=0
EXTRACT: note_off channel=9 note=35 velocity=0 time=0.1279760625
EXTRACT: note_off channel=9 note=36 velocity=0 time=0
EXTRACT: note_off channel=9 note=42 velocity=0 time=0
EXTRACT: note_off channel=9 note=49 velocity=0 time=0
EXTRACT: note_off channel=6 note=56 velocity=0 time=0.008928562499999999
EXTRACT: note_on channel=0 note=56 velocity=100 time=0.005952374999999999
EXTRACT: note_off channel=3 note=56 velocity=0 time=0
EXTRACT: note_on channel=3 note=56 velocity=100 time=0
EXTRACT: note_off channel=0 note=56 velocity=0 time=0.1279760625
EXTRACT: note_on channel=0 note=54 velocity=100 time=0.014880937499999998
EXTRACT: note_on channel=9 note=35 velocity=100 time=0
EXTRACT: note_on channel=9 note=36 velocity=100 time=0
EXTRACT: note_on channel=2 note=32 velocity=100 time=0
EXTRACT: note_on channel=6 note=56 velocity=100 time=0
EXTRACT: note_off channel=0 note=54 velocity=0 time=0.07142849999999999
EXTRACT: note_off channel=9 note=35 velocity=0 time=0.056547562499999995
EXTRACT: note_off channel=9 note=36 velocity=0 time=0
EXTRACT: note_off channel=6 note=56 velocity=0 time=0.008928562499999999
EXTRACT: note_on channel=0 note=54 velocity=100 time=0.005952374999999999
EXTRACT: note_off channel=0 note=54 velocity=0 time=0.07142849999999999
EXTRACT: note_off channel=3 note=56 velocity=0 time=0.017857124999999998
EXTRACT: note_on channel=0 note=54 velocity=100 time=0.05357137499999999
EXTRACT: note_on channel=9 note=42 velocity=100 time=0
EXTRACT: control_change channel=1 control=10 value=0 time=0
EXTRACT: note_on channel=1 note=68 velocity=100 time=0
EXTRACT: note_on channel=6 note=56 velocity=100 time=0
EXTRACT: note_off channel=0 note=54 velocity=0 time=0.07142849999999999
EXTRACT: note_off channel=9 note=42 velocity=0 time=0.056547562499999995
EXTRACT: note_on channel=0 note=56 velocity=100 time=0.014880937499999998
EXTRACT: note_off channel=2 note=32 velocity=0 time=0.038690437499999994
EXTRACT: note_off channel=6 note=56 velocity=0 time=0.07738087499999999
EXTRACT: note_on channel=9 note=38 velocity=100 time=0.026785687499999995
EXTRACT: note_on channel=6 note=58 velocity=100 time=0
EXTRACT: note_off channel=1 note=68 velocity=0 time=0.0208333125
EXTRACT: note_off channel=0 note=56 velocity=0 time=0.023809499999999997
EXTRACT: note_off channel=6 note=58 velocity=0 time=0.0744046875
EXTRACT: note_off channel=9 note=38 velocity=0 time=0.008928562499999999
EXTRACT: note_on channel=0 note=56 velocity=100 time=0.014880937499999998
EXTRACT: note_on channel=9 note=42 velocity=100 time=0.14285699999999998
EXTRACT: control_change channel=1 control=10 value=127 time=0
EXTRACT: note_on channel=1 note=68 velocity=100 time=0
EXTRACT: note_on channel=6 note=61 velocity=100 time=0
EXTRACT: note_off channel=0 note=56 velocity=0 time=0.0446428125
EXTRACT: note_off channel=9 note=42 velocity=0 time=0.08333325
EXTRACT: note_off channel=6 note=61 velocity=0 time=0.008928562499999999
EXTRACT: note_on channel=0 note=56 velocity=100 time=0.005952374999999999
EXTRACT: note_on channel=2 note=31 velocity=100 time=0.07142849999999999
EXTRACT: note_off channel=0 note=56 velocity=0 time=0.038690437499999994
EXTRACT: note_on channel=0 note=54 velocity=100 time=0.0327380625
EXTRACT: note_on channel=9 note=35 velocity=100 time=0
EXTRACT: note_on channel=9 note=36 velocity=100 time=0
EXTRACT: note_off channel=2 note=31 velocity=0 time=0
EXTRACT: note_on channel=2 note=32 velocity=100 time=0
EXTRACT: note_on channel=6 note=63 velocity=100 time=0
EXTRACT: note_off channel=9 note=35 velocity=0 time=0.1279760625
EXTRACT: note_off channel=9 note=36 velocity=0 time=0
EXTRACT: note_off channel=1 note=68 velocity=0 time=0.008928562499999999
EXTRACT: note_off channel=0 note=54 velocity=0 time=0.10416656249999999
EXTRACT: note_off channel=6 note=63 velocity=0 time=0.017857124999999998
EXTRACT: note_on channel=9 note=42 velocity=100 time=0.026785687499999995
EXTRACT: note_on channel=6 note=66 velocity=100 time=0
EXTRACT: note_off channel=6 note=66 velocity=0 time=0.11904749999999999
EXTRACT: note_off channel=9 note=42 velocity=0 time=0.008928562499999999
EXTRACT: note_off channel=2 note=32 velocity=0 time=0.011904749999999999
EXTRACT: note_on channel=0 note=56 velocity=100 time=0.0029761874999999997
EXTRACT: note_off channel=0 note=56 velocity=0 time=0.14285699999999998
EXTRACT: note_on channel=9 note=38 velocity=100 time=0
EXTRACT: note_on channel=3 note=56 velocity=100 time=0
EXTRACT: note_on channel=6 note=63 velocity=100 time=0
EXTRACT: note_off channel=9 note=38 velocity=0 time=0.1279760625
EXTRACT: note_off channel=3 note=56 velocity=0 time=0.008928562499999999
EXTRACT: note_on channel=0 note=56 velocity=100 time=0.005952374999999999
EXTRACT: note_on channel=3 note=54 velocity=100 time=0
EXTRACT: note_off channel=0 note=56 velocity=0 time=0.14285699999999998
EXTRACT: note_on channel=9 note=42 velocity=100 time=0
EXTRACT: note_on channel=9 note=49 velocity=60 time=0
EXTRACT: note_off channel=3 note=54 velocity=0 time=0
EXTRACT: note_on channel=3 note=56 velocity=100 time=0
EXTRACT: note_off channel=6 note=63 velocity=0 time=0
EXTRACT: note_off channel=9 note=42 velocity=0 time=0.1279760625
EXTRACT: note_off channel=9 note=49 velocity=0 time=0
EXTRACT: note_on channel=0 note=56 velocity=100 time=0.014880937499999998
EXTRACT: note_off channel=3 note=56 velocity=0 time=0
EXTRACT: note_on channel=3 note=56 velocity=100 time=0
EXTRACT: note_off channel=0 note=56 velocity=0 time=0.1279760625
EXTRACT: note_on channel=0 note=54 velocity=100 time=0.014880937499999998
EXTRACT: note_on channel=5 note=56 velocity=100 time=0
EXTRACT: note_on channel=6 note=63 velocity=100 time=0
EXTRACT: note_off channel=0 note=54 velocity=0 time=0.07142849999999999
EXTRACT: note_off channel=5 note=56 velocity=0 time=0.065476125
EXTRACT: note_off channel=6 note=63 velocity=0 time=0
EXTRACT: note_on channel=0 note=54 velocity=100 time=0.005952374999999999
EXTRACT: note_on channel=5 note=54 velocity=100 time=0
EXTRACT: note_off channel=0 note=54 velocity=0 time=0.07142849999999999
EXTRACT: note_off channel=3 note=56 velocity=0 time=0.017857124999999998
EXTRACT: note_on channel=0 note=54 velocity=100 time=0.05357137499999999
EXTRACT: note_off channel=5 note=54 velocity=0 time=0
EXTRACT: note_on channel=5 note=56 velocity=100 time=0
EXTRACT: note_on channel=6 note=66 velocity=100 time=0
EXTRACT: note_off channel=0 note=54 velocity=0 time=0.07142849999999999
EXTRACT: note_on channel=0 note=56 velocity=100 time=0.07142849999999999
EXTRACT: note_off channel=5 note=56 velocity=0 time=0
EXTRACT: note_on channel=5 note=54 velocity=100 time=0
EXTRACT: note_off channel=6 note=66 velocity=0 time=0.11607131249999998
EXTRACT: note_off channel=5 note=54 velocity=0 time=0.026785687499999995
EXTRACT: note_on channel=5 note=56 velocity=100 time=0
EXTRACT: note_on channel=6 note=63 velocity=100 time=0
EXTRACT: note_off channel=0 note=56 velocity=0 time=0.0446428125
EXTRACT: note_off channel=6 note=63 velocity=0 time=0.0744046875
EXTRACT: note_off channel=5 note=56 velocity=0 time=0.017857124999999998
EXTRACT: note_on channel=0 note=56 velocity=100 time=0.005952374999999999
EXTRACT: note_on channel=5 note=54 velocity=100 time=0
EXTRACT: note_off channel=5 note=54 velocity=0 time=0.14285699999999998
EXTRACT: note_on channel=5 note=56 velocity=100 time=0
EXTRACT: note_on channel=6 note=66 velocity=100 time=0
EXTRACT: note_off channel=0 note=56 velocity=0 time=0.0446428125
EXTRACT: note_off channel=6 note=66 velocity=0 time=0.09226181249999998
EXTRACT: note_on channel=0 note=56 velocity=100 time=0.005952374999999999
EXTRACT: note_off channel=5 note=56 velocity=0 time=0
EXTRACT: note_on channel=5 note=54 velocity=100 time=0
EXTRACT: note_off channel=0 note=56 velocity=0 time=0.11011893749999999
EXTRACT: note_on channel=0 note=54 velocity=100 time=0.0327380625
EXTRACT: note_off channel=5 note=54 velocity=0 time=0
EXTRACT: note_on channel=5 note=56 velocity=100 time=0
EXTRACT: note_on channel=6 note=63 velocity=100 time=0
EXTRACT: note_off channel=5 note=56 velocity=0 time=0.13690462499999997
EXTRACT: note_on channel=5 note=54 velocity=100 time=0.005952374999999999
EXTRACT: note_off channel=0 note=54 velocity=0 time=0.0982141875
EXTRACT: note_off channel=6 note=63 velocity=0 time=0.017857124999999998
EXTRACT: note_on channel=9 note=35 velocity=100 time=0.026785687499999995
EXTRACT: note_on channel=9 note=36 velocity=100 time=0
EXTRACT: note_off channel=5 note=54 velocity=0 time=0
EXTRACT: note_on channel=5 note=56 velocity=100 time=0
EXTRACT: note_on channel=6 note=66 velocity=100 time=0
EXTRACT: note_off channel=9 note=35 velocity=0 time=0.1279760625
EXTRACT: note_off channel=9 note=36 velocity=0 time=0
EXTRACT: note_on channel=0 note=56 velocity=100 time=0.014880937499999998
EXTRACT: note_off channel=5 note=56 velocity=0 time=0
EXTRACT: note_on channel=5 note=54 velocity=100 time=0
EXTRACT: note_off channel=0 note=56 velocity=0 time=0.14285699999999998
EXTRACT: note_on channel=9 note=38 velocity=100 time=0
EXTRACT: note_on channel=3 note=56 velocity=100 time=0
EXTRACT: note_off channel=5 note=54 velocity=0 time=0
EXTRACT: note_on channel=5 note=56 velocity=100 time=0
EXTRACT: note_off channel=6 note=66 velocity=0 time=0
EXTRACT: note_on channel=6 note=75 velocity=100 time=0
EXTRACT: note_off channel=9 note=38 velocity=0 time=0.1279760625
EXTRACT: note_off channel=3 note=56 velocity=0 time=0.008928562499999999
EXTRACT: note_off channel=5 note=56 velocity=0 time=0
EXTRACT: note_on channel=0 note=56 velocity=100 time=0.005952374999999999
EXTRACT: note_on channel=3 note=54 velocity=100 time=0
EXTRACT: note_on channel=5 note=54 velocity=100 time=0
EXTRACT: note_off channel=6 note=75 velocity=0 time=0
EXTRACT: note_off channel=0 note=56 velocity=0 time=0.14285699999999998
EXTRACT: note_off channel=3 note=54 velocity=0 time=0
EXTRACT: note_on channel=3 note=56 velocity=100 time=0
EXTRACT: note_off channel=5 note=54 velocity=0 time=0
EXTRACT: note_on channel=5 note=56 velocity=100 time=0
EXTRACT: note_on channel=6 note=68 velocity=100 time=0
EXTRACT: note_on channel=0 note=56 velocity=100 time=0.14285699999999998
EXTRACT: note_off channel=3 note=56 velocity=0 time=0
EXTRACT: note_on channel=3 note=56 velocity=100 time=0
EXTRACT: note_off channel=5 note=56 velocity=0 time=0
EXTRACT: note_on channel=5 note=54 velocity=100 time=0
EXTRACT: note_off channel=6 note=68 velocity=0 time=0
EXTRACT: note_off channel=0 note=56 velocity=0 time=0.1279760625
EXTRACT: note_on channel=0 note=54 velocity=100 time=0.014880937499999998
EXTRACT: note_on channel=9 note=35 velocity=100 time=0
EXTRACT: note_on channel=9 note=36 velocity=100 time=0
EXTRACT: control_change channel=1 control=10 value=0 time=0
EXTRACT: note_on channel=2 note=32 velocity=100 time=0
EXTRACT: note_off channel=5 note=54 velocity=0 time=0
EXTRACT: note_on channel=5 note=60 velocity=60 time=0
EXTRACT: note_on channel=6 note=63 velocity=100 time=0.005952374999999999
EXTRACT: note_off channel=0 note=54 velocity=0 time=0.065476125
EXTRACT: note_off channel=9 note=35 velocity=0 time=0.056547562499999995
EXTRACT: note_off channel=9 note=36 velocity=0 time=0
EXTRACT: note_on channel=0 note=54 velocity=100 time=0.014880937499999998
EXTRACT: note_on channel=6 note=64 velocity=100 time=0
EXTRACT: note_off channel=0 note=54 velocity=0 time=0.07142849999999999
EXTRACT: note_off channel=3 note=56 velocity=0 time=0.017857124999999998
EXTRACT: note_on channel=0 note=54 velocity=100 time=0.05357137499999999
EXTRACT: note_on channel=9 note=42 velocity=100 time=0
EXTRACT: note_on channel=1 note=68 velocity=100 time=0
EXTRACT: note_on channel=4 note=66 velocity=100 time=0
EXTRACT: note_on channel=6 note=63 velocity=100 time=0
EXTRACT: note_off channel=0 note=54 velocity=0 time=0.07142849999999999
EXTRACT: note_off channel=4 note=66 velocity=0 time=0.023809499999999997
EXTRACT: note_off channel=9 note=42 velocity=0 time=0.0327380625
EXTRACT: note_on channel=0 note=56 velocity=100 time=0.014880937499999998
EXTRACT: note_off channel=6 note=64 velocity=0 time=0
EXTRACT: note_off channel=2 note=32 velocity=0 time=0.038690437499999994
EXTRACT: note_off channel=5 note=60 velocity=0 time=0.035714249999999996
EXTRACT: note_off channel=6 note=63 velocity=0 time=0.06249993749999999
EXTRACT: note_on channel=9 note=38 velocity=100 time=0.005952374999999999
EXTRACT: control_change channel=4 control=10 value=104 time=0
EXTRACT: note_on channel=4 note=68 velocity=100 time=0
EXTRACT: note_off channel=1 note=68 velocity=0 time=0.0208333125
EXTRACT: note_off channel=0 note=56 velocity=0 time=0.023809499999999997
EXTRACT: note_off channel=6 note=63 velocity=0 time=0.023809499999999997
EXTRACT: note_off channel=4 note=68 velocity=0 time=0.05059518749999999
EXTRACT: note_off channel=9 note=38 velocity=0 time=0.008928562499999999
EXTRACT: note_on channel=0 note=56 velocity=100 time=0.014880937499999998
EXTRACT: note_on channel=9 note=42 velocity=100 time=0.14285699999999998
EXTRACT: control_change channel=1 control=10 value=127 time=0
EXTRACT: note_on channel=1 note=68 velocity=100 time=0
EXTRACT: note_off channel=0 note=56 velocity=0 time=0.0446428125
EXTRACT: note_off channel=9 note=42 velocity=0 time=0.08333325
EXTRACT: note_on channel=0 note=56 velocity=100 time=0.014880937499999998
EXTRACT: control_change channel=4 control=10 value=33 time=0
EXTRACT: note_on channel=4 note=63 velocity=100 time=0
EXTRACT: note_on channel=6 note=63 velocity=100 time=0
EXTRACT: note_on channel=11 note=68 velocity=100 time=0
EXTRACT: note_on channel=2 note=31 velocity=100 time=0.07142849999999999
EXTRACT: note_off channel=0 note=56 velocity=0 time=0.038690437499999994
EXTRACT: note_off channel=4 note=63 velocity=0 time=0.008928562499999999
EXTRACT: note_on channel=0 note=54 velocity=100 time=0.023809499999999997
EXTRACT: note_on channel=9 note=35 velocity=100 time=0
EXTRACT: note_on channel=9 note=36 velocity=100 time=0
EXTRACT: note_off channel=2 note=31 velocity=0 time=0
EXTRACT: note_on channel=2 note=32 velocity=100 time=0
EXTRACT: note_on channel=11 note=66 velocity=100 time=0
EXTRACT: note_off channel=11 note=68 velocity=0 time=0.0446428125
EXTRACT: note_off channel=9 note=35 velocity=0 time=0.08333325
EXTRACT: note_off channel=9 note=36 velocity=0 time=0
EXTRACT: note_off channel=1 note=68 velocity=0 time=0.008928562499999999
EXTRACT: note_off channel=0 note=54 velocity=0 time=0.10416656249999999
EXTRACT: note_on channel=9 note=42 velocity=100 time=0.0446428125
EXTRACT: control_change channel=4 control=10 value=95 time=0
EXTRACT: note_on channel=4 note=66 velocity=100 time=0
EXTRACT: note_off channel=6 note=63 velocity=0 time=0
EXTRACT: note_on channel=6 note=61 velocity=100 time=0
EXTRACT: note_off channel=4 note=66 velocity=0 time=0.09523799999999999
EXTRACT: note_off channel=9 note=42 velocity=0 time=0.0327380625
EXTRACT: note_off channel=2 note=32 velocity=0 time=0.011904749999999999
EXTRACT: note_on channel=0 note=56 velocity=100 time=0.0029761874999999997
EXTRACT: note_off channel=0 note=56 velocity=0 time=0.14285699999999998
EXTRACT: note_on channel=9 note=38 velocity=100 time=0
EXTRACT: note_on channel=3 note=56 velocity=100 time=0
EXTRACT: control_change channel=4 control=10 value=33 time=0
EXTRACT: note_on channel=4 note=68 velocity=100 time=0
EXTRACT: note_off channel=6 note=61 velocity=0 time=0
EXTRACT: note_on channel=6 note=59 velocity=100 time=0
EXTRACT: note_off channel=9 note=38 velocity=0 time=0.1279760625
EXTRACT: note_off channel=3 note=56 velocity=0 time=0.008928562499999999
EXTRACT: note_on channel=0 note=56 velocity=100 time=0.005952374999999999
EXTRACT: note_on channel=3 note=54 velocity=100 time=0
EXTRACT: note_off channel=4 note=68 velocity=0 time=0
EXTRACT: control_change channel=4 control=10 value=95 time=0
EXTRACT: note_on channel=4 note=71 velocity=100 time=0
EXTRACT: note_off channel=0 note=56 velocity=0 time=0.14285699999999998
EXTRACT: note_on channel=9 note=42 velocity=100 time=0
EXTRACT: note_on channel=9 note=49 velocity=60 time=0
EXTRACT: note_off channel=3 note=54 velocity=0 time=0
EXTRACT: note_on channel=3 note=56 velocity=100 time=0
EXTRACT: note_off channel=6 note=59 velocity=0 time=0
EXTRACT: note_on channel=6 note=61 velocity=100 time=0
EXTRACT: note_off channel=4 note=71 velocity=0 time=0.0208333125
EXTRACT: note_off channel=9 note=42 velocity=0 time=0.10714274999999998
EXTRACT: note_off channel=9 note=49 velocity=0 time=0
EXTRACT: note_on channel=0 note=56 velocity=100 time=0.014880937499999998
EXTRACT: note_off channel=3 note=56 velocity=0 time=0
EXTRACT: note_on channel=3 note=56 velocity=100 time=0
EXTRACT: note_off channel=11 note=66 velocity=0 time=0.10119037499999999
EXTRACT: note_off channel=0 note=56 velocity=0 time=0.026785687499999995
EXTRACT: note_off channel=6 note=61 velocity=0 time=0.0029761874999999997
EXTRACT: note_on channel=6 note=63 velocity=100 time=0
EXTRACT: note_on channel=0 note=54 velocity=100 time=0.011904749999999999
EXTRACT: note_on channel=9 note=35 velocity=100 time=0
EXTRACT: note_on channel=9 note=36 velocity=100 time=0
EXTRACT: note_on channel=2 note=32 velocity=100 time=0
EXTRACT: control_change channel=4 control=10 value=24 time=0
EXTRACT: note_off channel=0 note=54 velocity=0 time=0.07142849999999999
EXTRACT: note_off channel=9 note=35 velocity=0 time=0.056547562499999995
EXTRACT: note_off channel=9 note=36 velocity=0 time=0
EXTRACT: note_on channel=0 note=54 velocity=100 time=0.014880937499999998
EXTRACT: note_off channel=0 note=54 velocity=0 time=0.07142849999999999
EXTRACT: note_off channel=3 note=56 velocity=0 time=0.017857124999999998
EXTRACT: note_on channel=0 note=54 velocity=100 time=0.05357137499999999
EXTRACT: note_on channel=9 note=42 velocity=100 time=0
EXTRACT: control_change channel=4 control=10 value=104 time=0
EXTRACT: note_on channel=4 note=66 velocity=100 time=0
EXTRACT: note_off channel=0 note=54 velocity=0 time=0.07142849999999999
EXTRACT: note_off channel=4 note=66 velocity=0 time=0.023809499999999997
EXTRACT: note_off channel=9 note=42 velocity=0 time=0.0327380625
EXTRACT: note_on channel=0 note=56 velocity=100 time=0.014880937499999998
EXTRACT: note_off channel=2 note=32 velocity=0 time=0.038690437499999994
EXTRACT: note_off channel=6 note=63 velocity=0 time=0.08035706249999999
EXTRACT: note_on channel=9 note=38 velocity=100 time=0.023809499999999997
EXTRACT: note_on channel=4 note=68 velocity=100 time=0
EXTRACT: note_off channel=0 note=56 velocity=0 time=0.0446428125
EXTRACT: note_off channel=4 note=68 velocity=0 time=0.0744046875
EXTRACT: note_off channel=9 note=38 velocity=0 time=0.008928562499999999
EXTRACT: note_on channel=0 note=56 velocity=100 time=0.014880937499999998
EXTRACT: control_change channel=4 control=10 value=33 time=0
EXTRACT: note_on channel=9 note=42 velocity=100 time=0.14285699999999998
EXTRACT: note_on channel=11 note=66 velocity=68 time=0
EXTRACT: note_off channel=0 note=56 velocity=0 time=0.0446428125
EXTRACT: note_off channel=11 note=66 velocity=0 time=0.026785687499999995
EXTRACT: note_off channel=9 note=42 velocity=0 time=0.056547562499999995
EXTRACT: note_on channel=0 note=56 velocity=100 time=0.014880937499999998
EXTRACT: note_on channel=4 note=63 velocity=100 time=0
EXTRACT: note_on channel=6 note=63 velocity=100 time=0
EXTRACT: note_on channel=11 note=63 velocity=68 time=0
EXTRACT: note_on channel=2 note=31 velocity=100 time=0.07142849999999999
EXTRACT: note_off channel=11 note=63 velocity=0 time=0
EXTRACT: note_off channel=0 note=56 velocity=0 time=0.038690437499999994
EXTRACT: note_off channel=4 note=63 velocity=0 time=0.008928562499999999
EXTRACT: note_on channel=0 note=54 velocity=100 time=0.023809499999999997
EXTRACT: note_on channel=9 note=35 velocity=100 time=0
EXTRACT: note_on channel=9 note=36 velocity=100 time=0
EXTRACT: note_off channel=2 note=31 velocity=0 time=0
EXTRACT: note_on channel=2 note=32 velocity=100 time=0
EXTRACT: control_change channel=4 control=10 value=95 time=0
EXTRACT: note_on channel=11 note=66 velocity=68 time=0
EXTRACT: note_off channel=11 note=66 velocity=0 time=0.07142849999999999
EXTRACT: note_off channel=9 note=35 velocity=0 time=0.056547562499999995
EXTRACT: note_off channel=9 note=36 velocity=0 time=0
EXTRACT: note_on channel=11 note=63 velocity=68 time=0.014880937499999998
EXTRACT: note_off channel=11 note=63 velocity=0 time=0.07142849999999999
EXTRACT: note_off channel=0 note=54 velocity=0 time=0.026785687499999995
EXTRACT: note_on channel=9 note=42 velocity=100 time=0.0446428125
EXTRACT: control_change channel=4 control=10 value=33 time=0
EXTRACT: note_on channel=4 note=66 velocity=100 time=0
EXTRACT: note_off channel=6 note=63 velocity=0 time=0
EXTRACT: note_on channel=6 note=61 velocity=100 time=0
EXTRACT: note_on channel=11 note=66 velocity=68 time=0
EXTRACT: note_off channel=11 note=66 velocity=0 time=0.07142849999999999
EXTRACT: note_off channel=4 note=66 velocity=0 time=0.023809499999999997
EXTRACT: note_off channel=9 note=42 velocity=0 time=0.0327380625
EXTRACT: note_off channel=2 note=32 velocity=0 time=0.011904749999999999
EXTRACT: note_on channel=0 note=56 velocity=100 time=0.0029761874999999997
EXTRACT: control_change channel=4 control=10 value=95 time=0
EXTRACT: note_on channel=11 note=63 velocity=89 time=0
EXTRACT: note_off channel=11 note=63 velocity=0 time=0.07142849999999999
EXTRACT: note_off channel=0 note=56 velocity=0 time=0.07142849999999999
EXTRACT: note_on channel=9 note=38 velocity=100 time=0
EXTRACT: note_on channel=3 note=56 velocity=100 time=0
EXTRACT: note_on channel=4 note=68 velocity=100 time=0
EXTRACT: note_off channel=6 note=61 velocity=0 time=0
EXTRACT: note_on channel=6 note=59 velocity=100 time=0
EXTRACT: note_on channel=11 note=66 velocity=100 time=0
EXTRACT: note_off channel=11 note=66 velocity=0 time=0.07142849999999999
EXTRACT: note_off channel=9 note=38 velocity=0 time=0.056547562499999995
EXTRACT: note_off channel=3 note=56 velocity=0 time=0.008928562499999999
EXTRACT: note_on channel=0 note=56 velocity=100 time=0.005952374999999999
EXTRACT: note_on channel=3 note=54 velocity=100 time=0
EXTRACT: note_off channel=4 note=68 velocity=0 time=0
EXTRACT: note_on channel=4 note=71 velocity=100 time=0
EXTRACT: note_on channel=11 note=68 velocity=100 time=0
EXTRACT: note_off channel=0 note=56 velocity=0 time=0.14285699999999998
EXTRACT: note_on channel=9 note=35 velocity=100 time=0
EXTRACT: note_on channel=9 note=36 velocity=100 time=0
EXTRACT: note_on channel=9 note=42 velocity=100 time=0
EXTRACT: note_on channel=9 note=49 velocity=60 time=0
EXTRACT: note_off channel=3 note=54 velocity=0 time=0
EXTRACT: note_on channel=3 note=56 velocity=100 time=0
EXTRACT: note_off channel=6 note=59 velocity=0 time=0
EXTRACT: note_on channel=6 note=61 velocity=100 time=0
EXTRACT: note_off channel=4 note=71 velocity=0 time=0.0208333125
EXTRACT: note_off channel=9 note=35 velocity=0 time=0.10714274999999998
EXTRACT: note_off channel=9 note=36 velocity=0 time=0
EXTRACT: note_off channel=9 note=42 velocity=0 time=0
EXTRACT: note_off channel=9 note=49 velocity=0 time=0
EXTRACT: note_on channel=0 note=56 velocity=100 time=0.014880937499999998
EXTRACT: note_off channel=3 note=56 velocity=0 time=0
EXTRACT: note_on channel=3 note=56 velocity=100 time=0
EXTRACT: note_off channel=0 note=56 velocity=0 time=0.1279760625
EXTRACT: note_off channel=6 note=61 velocity=0 time=0.0029761874999999997
EXTRACT: note_on channel=6 note=63 velocity=100 time=0
EXTRACT: note_on channel=0 note=54 velocity=100 time=0.011904749999999999
EXTRACT: note_on channel=9 note=35 velocity=100 time=0
EXTRACT: note_on channel=9 note=36 velocity=100 time=0
EXTRACT: note_on channel=2 note=32 velocity=100 time=0
EXTRACT: control_change channel=4 control=10 value=24 time=0
EXTRACT: note_off channel=0 note=54 velocity=0 time=0.07142849999999999
EXTRACT: note_off channel=9 note=35 velocity=0 time=0.056547562499999995
EXTRACT: note_off channel=9 note=36 velocity=0 time=0
EXTRACT: note_on channel=0 note=54 velocity=100 time=0.014880937499999998
EXTRACT: note_off channel=0 note=54 velocity=0 time=0.07142849999999999
EXTRACT: note_off channel=3 note=56 velocity=0 time=0.017857124999999998
EXTRACT: note_on channel=0 note=54 velocity=100 time=0.05357137499999999
EXTRACT: note_on channel=9 note=42 velocity=100 time=0
EXTRACT: control_change channel=1 control=10 value=0 time=0
EXTRACT: note_on channel=1 note=68 velocity=100 time=0
EXTRACT: control_change channel=4 control=10 value=104 time=0
EXTRACT: note_on channel=4 note=66 velocity=100 time=0
EXTRACT: note_off channel=6 note=63 velocity=0 time=0
EXTRACT: note_on channel=6 note=61 velocity=100 time=0
EXTRACT: note_off channel=0 note=54 velocity=0 time=0.07142849999999999
EXTRACT: note_off channel=4 note=66 velocity=0 time=0.023809499999999997
EXTRACT: note_off channel=9 note=42 velocity=0 time=0.0327380625
EXTRACT: note_on channel=0 note=56 velocity=100 time=0.014880937499999998
EXTRACT: note_off channel=2 note=32 velocity=0 time=0.038690437499999994
EXTRACT: note_on channel=9 note=38 velocity=100 time=0.10416656249999999
EXTRACT: note_on channel=4 note=68 velocity=100 time=0
EXTRACT: note_off channel=1 note=68 velocity=0 time=0.0208333125
EXTRACT: note_off channel=0 note=56 velocity=0 time=0.023809499999999997
EXTRACT: note_off channel=11 note=68 velocity=0 time=0.056547562499999995
EXTRACT: note_off channel=4 note=68 velocity=0 time=0.017857124999999998
EXTRACT: note_off channel=9 note=38 velocity=0 time=0.008928562499999999
EXTRACT: note_on channel=0 note=56 velocity=100 time=0.014880937499999998
EXTRACT: control_change channel=4 control=10 value=33 time=0
EXTRACT: note_off channel=6 note=61 velocity=0 time=0
EXTRACT: note_on channel=6 note=59 velocity=100 time=0
EXTRACT: note_on channel=9 note=42 velocity=100 time=0.14285699999999998
EXTRACT: control_change channel=1 control=10 value=127 time=0
EXTRACT: note_on channel=1 note=68 velocity=100 time=0
EXTRACT: note_off channel=6 note=59 velocity=0 time=0
EXTRACT: note_on channel=6 note=56 velocity=100 time=0
EXTRACT: note_off channel=0 note=56 velocity=0 time=0.0446428125
EXTRACT: note_off channel=9 note=42 velocity=0 time=0.08333325
EXTRACT: note_on channel=0 note=56 velocity=100 time=0.014880937499999998
EXTRACT: note_on channel=4 note=63 velocity=100 time=0
EXTRACT: note_on channel=11 note=68 velocity=100 time=0
EXTRACT: note_on channel=2 note=31 velocity=100 time=0.07142849999999999
EXTRACT: note_off channel=0 note=56 velocity=0 time=0.038690437499999994
EXTRACT: note_off channel=4 note=63 velocity=0 time=0.008928562499999999
EXTRACT: note_on channel=0 note=54 velocity=100 time=0.023809499999999997
EXTRACT: note_on channel=9 note=35 velocity=100 time=0
EXTRACT: note_on channel=9 note=36 velocity=100 time=0
EXTRACT: note_off channel=2 note=31 velocity=0 time=0
EXTRACT: note_on channel=2 note=32 velocity=100 time=0
EXTRACT: control_change channel=4 control=10 value=95 time=0
EXTRACT: note_on channel=11 note=66 velocity=100 time=0
EXTRACT: note_off channel=11 note=68 velocity=0 time=0.0446428125
EXTRACT: note_off channel=9 note=35 velocity=0 time=0.08333325
EXTRACT: note_off channel=9 note=36 velocity=0 time=0
EXTRACT: note_off channel=1 note=68 velocity=0 time=0.008928562499999999
EXTRACT: note_off channel=0 note=54 velocity=0 time=0.10416656249999999
EXTRACT: note_off channel=6 note=56 velocity=0 time=0.0327380625
EXTRACT: note_on channel=9 note=42 velocity=100 time=0.011904749999999999
EXTRACT: control_change channel=4 control=10 value=33 time=0
EXTRACT: note_on channel=4 note=66 velocity=100 time=0
EXTRACT: note_off channel=4 note=66 velocity=0 time=0.09523799999999999
EXTRACT: note_off channel=9 note=42 velocity=0 time=0.0327380625
EXTRACT: note_off channel=2 note=32 velocity=0 time=0.011904749999999999
EXTRACT: note_on channel=0 note=56 velocity=100 time=0.0029761874999999997
EXTRACT: control_change channel=4 control=10 value=95 time=0
EXTRACT: note_off channel=0 note=56 velocity=0 time=0.14285699999999998
EXTRACT: note_on channel=9 note=38 velocity=100 time=0
EXTRACT: note_on channel=3 note=56 velocity=100 time=0
EXTRACT: note_on channel=4 note=68 velocity=100 time=0
EXTRACT: note_off channel=9 note=38 velocity=0 time=0.1279760625
EXTRACT: note_off channel=3 note=56 velocity=0 time=0.008928562499999999
EXTRACT: note_on channel=0 note=56 velocity=100 time=0.005952374999999999
EXTRACT: note_on channel=3 note=54 velocity=100 time=0
EXTRACT: note_off channel=4 note=68 velocity=0 time=0
EXTRACT: note_on channel=4 note=71 velocity=100 time=0
EXTRACT: note_off channel=0 note=56 velocity=0 time=0.14285699999999998
EXTRACT: note_on channel=9 note=42 velocity=100 time=0
EXTRACT: note_on channel=9 note=49 velocity=60 time=0
EXTRACT: note_off channel=3 note=54 velocity=0 time=0
EXTRACT: note_on channel=3 note=56 velocity=100 time=0
EXTRACT: note_on channel=6 note=56 velocity=100 time=0
EXTRACT: note_off channel=4 note=71 velocity=0 time=0.0208333125
EXTRACT: note_off channel=9 note=42 velocity=0 time=0.10714274999999998
EXTRACT: note_off channel=9 note=49 velocity=0 time=0
EXTRACT: note_on channel=0 note=56 velocity=100 time=0.014880937499999998
EXTRACT: note_off channel=3 note=56 velocity=0 time=0
EXTRACT: note_on channel=3 note=56 velocity=100 time=0
EXTRACT: note_off channel=11 note=66 velocity=0 time=0.10119037499999999
EXTRACT: note_off channel=0 note=56 velocity=0 time=0.026785687499999995
EXTRACT: note_on channel=0 note=54 velocity=100 time=0.014880937499999998
EXTRACT: note_on channel=9 note=35 velocity=100 time=0
EXTRACT: note_on channel=9 note=36 velocity=100 time=0
EXTRACT: note_on channel=2 note=32 velocity=100 time=0
EXTRACT: note_off channel=6 note=56 velocity=0 time=0
EXTRACT: note_on channel=6 note=61 velocity=100 time=0
EXTRACT: note_on channel=12 note=68 velocity=100 time=0
EXTRACT: note_off channel=0 note=54 velocity=0 time=0.07142849999999999
EXTRACT: note_off channel=9 note=35 velocity=0 time=0.056547562499999995
EXTRACT: note_off channel=9 note=36 velocity=0 time=0
EXTRACT: note_on channel=0 note=54 velocity=100 time=0.014880937499999998
EXTRACT: note_off channel=12 note=68 velocity=0 time=0
EXTRACT: note_on channel=12 note=68 velocity=100 time=0
EXTRACT: note_off channel=0 note=54 velocity=0 time=0.07142849999999999
EXTRACT: note_off channel=3 note=56 velocity=0 time=0.017857124999999998
EXTRACT: note_on channel=0 note=54 velocity=100 time=0.05357137499999999
EXTRACT: note_on channel=9 note=42 velocity=100 time=0
EXTRACT: note_off channel=2 note=32 velocity=0 time=0
EXTRACT: note_on channel=2 note=32 velocity=80 time=0
EXTRACT: note_on channel=4 note=66 velocity=100 time=0
EXTRACT: note_off channel=6 note=61 velocity=0 time=0
EXTRACT: note_on channel=6 note=56 velocity=100 time=0
EXTRACT: note_off channel=12 note=68 velocity=0 time=0
EXTRACT: note_on channel=12 note=66 velocity=100 time=0
EXTRACT: note_off channel=0 note=54 velocity=0 time=0.07142849999999999
EXTRACT: note_off channel=4 note=66 velocity=0 time=0.023809499999999997
EXTRACT: note_off channel=9 note=42 velocity=0 time=0.0327380625
EXTRACT: note_off channel=12 note=66 velocity=0 time=0.008928562499999999
EXTRACT: note_on channel=0 note=56 velocity=100 time=0.005952374999999999
EXTRACT: note_off channel=6 note=56 velocity=0 time=0
EXTRACT: note_on channel=6 note=56 velocity=100 time=0
EXTRACT: note_on channel=12 note=63 velocity=100 time=0
EXTRACT: note_on channel=9 note=38 velocity=100 time=0.14285699999999998
EXTRACT: note_off channel=2 note=32 velocity=0 time=0
EXTRACT: note_on channel=2 note=30 velocity=100 time=0
EXTRACT: control_change channel=4 control=10 value=104 time=0
EXTRACT: note_on channel=4 note=68 velocity=100 time=0
EXTRACT: note_off channel=12 note=63 velocity=0 time=0
EXTRACT: note_on channel=12 note=63 velocity=100 time=0
EXTRACT: note_off channel=0 note=56 velocity=0 time=0.0446428125
EXTRACT: note_off channel=4 note=68 velocity=0 time=0.0744046875
EXTRACT: note_off channel=9 note=38 velocity=0 time=0.008928562499999999
EXTRACT: note_on channel=0 note=56 velocity=100 time=0.014880937499999998
EXTRACT: note_off channel=12 note=63 velocity=0 time=0
EXTRACT: note_on channel=12 note=61 velocity=100 time=0
EXTRACT: note_off channel=12 note=61 velocity=0 time=0.11904749999999999
EXTRACT: note_on channel=9 note=35 velocity=100 time=0.023809499999999997
EXTRACT: note_on channel=9 note=36 velocity=100 time=0
EXTRACT: note_on channel=9 note=42 velocity=100 time=0
EXTRACT: note_off channel=2 note=30 velocity=0 time=0
EXTRACT: note_on channel=2 note=30 velocity=80 time=0
EXTRACT: note_off channel=6 note=56 velocity=0 time=0
EXTRACT: note_on channel=6 note=61 velocity=100 time=0
EXTRACT: note_on channel=11 note=66 velocity=68 time=0
EXTRACT: note_on channel=12 note=61 velocity=100 time=0
EXTRACT: note_off channel=0 note=56 velocity=0 time=0.0446428125
EXTRACT: note_off channel=11 note=66 velocity=0 time=0.026785687499999995
EXTRACT: note_off channel=12 note=61 velocity=0 time=0.047618999999999995
EXTRACT: note_off channel=9 note=35 velocity=0 time=0.008928562499999999
EXTRACT: note_off channel=9 note=36 velocity=0 time=0
EXTRACT: note_off channel=9 note=42 velocity=0 time=0
EXTRACT: note_on channel=0 note=56 velocity=100 time=0.014880937499999998
EXTRACT: control_change channel=4 control=10 value=33 time=0
EXTRACT: note_on channel=4 note=63 velocity=100 time=0
EXTRACT: note_on channel=11 note=63 velocity=68 time=0
EXTRACT: note_on channel=12 note=58 velocity=100 time=0
EXTRACT: note_off channel=11 note=63 velocity=0 time=0.07142849999999999
EXTRACT: note_off channel=0 note=56 velocity=0 time=0.038690437499999994
EXTRACT: note_off channel=4 note=63 velocity=0 time=0.008928562499999999
EXTRACT: note_on channel=0 note=54 velocity=100 time=0.023809499999999997
EXTRACT: note_on channel=9 note=35 velocity=100 time=0
EXTRACT: note_on channel=9 note=36 velocity=100 time=0
EXTRACT: note_off channel=2 note=30 velocity=0 time=0
EXTRACT: note_on channel=2 note=29 velocity=100 time=0
EXTRACT: note_off channel=6 note=61 velocity=0 time=0
EXTRACT: note_on channel=6 note=56 velocity=100 time=0
EXTRACT: note_on channel=11 note=66 velocity=68 time=0
EXTRACT: note_off channel=12 note=58 velocity=0 time=0
EXTRACT: note_on channel=12 note=56 velocity=100 time=0
EXTRACT: note_off channel=11 note=66 velocity=0 time=0.07142849999999999
EXTRACT: note_off channel=9 note=35 velocity=0 time=0.056547562499999995
EXTRACT: note_off channel=9 note=36 velocity=0 time=0
EXTRACT: note_off channel=6 note=56 velocity=0 time=0.014880937499999998
EXTRACT: note_on channel=6 note=54 velocity=100 time=0
EXTRACT: note_on channel=11 note=63 velocity=68 time=0
EXTRACT: note_off channel=11 note=63 velocity=0 time=0.07142849999999999
EXTRACT: note_off channel=0 note=54 velocity=0 time=0.026785687499999995
EXTRACT: note_off channel=12 note=56 velocity=0 time=0.014880937499999998
EXTRACT: note_on channel=9 note=38 velocity=100 time=0.029761874999999997
EXTRACT: note_on channel=9 note=42 velocity=100 time=0
EXTRACT: note_off channel=2 note=29 velocity=0 time=0
EXTRACT: note_on channel=2 note=29 velocity=80 time=0
EXTRACT: control_change channel=4 control=10 value=95 time=0
EXTRACT: note_on channel=4 note=66 velocity=100 time=0
EXTRACT: note_on channel=11 note=66 velocity=68 time=0
EXTRACT: note_off channel=11 note=66 velocity=0 time=0.07142849999999999
EXTRACT: note_off channel=4 note=66 velocity=0 time=0.023809499999999997
EXTRACT: note_off channel=9 note=38 velocity=0 time=0.0327380625
EXTRACT: note_off channel=9 note=42 velocity=0 time=0
EXTRACT: note_on channel=0 note=56 velocity=100 time=0.014880937499999998
EXTRACT: note_on channel=11 note=63 velocity=89 time=0
EXTRACT: note_off channel=11 note=63 velocity=0 time=0.07142849999999999
EXTRACT: note_off channel=0 note=56 velocity=0 time=0.07142849999999999
EXTRACT: note_on channel=9 note=38 velocity=100 time=0
EXTRACT: note_off channel=2 note=29 velocity=0 time=0
EXTRACT: note_on channel=2 note=27 velocity=100 time=0
EXTRACT: note_on channel=3 note=56 velocity=100 time=0
EXTRACT: control_change channel=4 control=10 value=33 time=0
EXTRACT: note_on channel=4 note=68 velocity=100 time=0
EXTRACT: note_on channel=11 note=66 velocity=100 time=0
EXTRACT: note_off channel=11 note=66 velocity=0 time=0.07142849999999999
EXTRACT: note_off channel=9 note=38 velocity=0 time=0.056547562499999995
EXTRACT: note_off channel=6 note=54 velocity=0 time=0.0029761874999999997
EXTRACT: note_off channel=3 note=56 velocity=0 time=0.005952374999999999
EXTRACT: note_on channel=0 note=56 velocity=100 time=0.005952374999999999
EXTRACT: note_on channel=3 note=54 velocity=100 time=0
EXTRACT: note_off channel=4 note=68 velocity=0 time=0
EXTRACT: control_change channel=4 control=10 value=95 time=0
EXTRACT: note_on channel=4 note=71 velocity=100 time=0
EXTRACT: note_on channel=11 note=68 velocity=100 time=0
EXTRACT: note_off channel=0 note=56 velocity=0 time=0.14285699999999998
EXTRACT: note_on channel=9 note=42 velocity=100 time=0
EXTRACT: note_on channel=9 note=49 velocity=60 time=0
EXTRACT: note_off channel=2 note=27 velocity=0 time=0
EXTRACT: note_on channel=2 note=27 velocity=80 time=0
EXTRACT: note_off channel=3 note=54 velocity=0 time=0
EXTRACT: note_on channel=3 note=56 velocity=100 time=0
EXTRACT: note_off channel=4 note=71 velocity=0 time=0.0208333125
EXTRACT: note_off channel=9 note=42 velocity=0 time=0.10714274999999998
EXTRACT: note_off channel=9 note=49 velocity=0 time=0
EXTRACT: note_on channel=0 note=56 velocity=100 time=0.014880937499999998
EXTRACT: note_off channel=3 note=56 velocity=0 time=0
EXTRACT: note_on channel=3 note=56 velocity=100 time=0
EXTRACT: note_off channel=0 note=56 velocity=0 time=0.1279760625
EXTRACT: note_on channel=0 note=54 velocity=100 time=0.014880937499999998
EXTRACT: note_on channel=9 note=35 velocity=100 time=0
EXTRACT: note_on channel=9 note=36 velocity=100 time=0
EXTRACT: note_on channel=2 note=32 velocity=100 time=0
EXTRACT: control_change channel=4 control=10 value=24 time=0
EXTRACT: note_on channel=6 note=63 velocity=100 time=0.005952374999999999
EXTRACT: note_off channel=0 note=54 velocity=0 time=0.065476125
EXTRACT: note_off channel=9 note=35 velocity=0 time=0.056547562499999995
EXTRACT: note_off channel=9 note=36 velocity=0 time=0
EXTRACT: note_on channel=0 note=54 velocity=100 time=0.014880937499999998
EXTRACT: note_off channel=2 note=27 velocity=0 time=0.038690437499999994
EXTRACT: note_off channel=0 note=54 velocity=0 time=0.0327380625
EXTRACT: note_off channel=3 note=56 velocity=0 time=0.017857124999999998
EXTRACT: note_on channel=0 note=54 velocity=100 time=0.05357137499999999
EXTRACT: note_on channel=9 note=42 velocity=100 time=0
EXTRACT: control_change channel=1 control=10 value=0 time=0
EXTRACT: note_on channel=1 note=68 velocity=100 time=0
EXTRACT: control_change channel=4 control=10 value=104 time=0
EXTRACT: note_on channel=4 note=66 velocity=100 time=0
EXTRACT: note_off channel=0 note=54 velocity=0 time=0.07142849999999999
EXTRACT: note_off channel=4 note=66 velocity=0 time=0.023809499999999997
EXTRACT: note_off channel=9 note=42 velocity=0 time=0.0327380625
EXTRACT: note_on channel=0 note=56 velocity=100 time=0.014880937499999998
EXTRACT: note_off channel=2 note=32 velocity=0 time=0.038690437499999994
EXTRACT: note_off channel=6 note=63 velocity=0 time=0.0982141875
EXTRACT: note_on channel=9 note=38 velocity=100 time=0.005952374999999999
EXTRACT: note_on channel=4 note=68 velocity=100 time=0
EXTRACT: note_off channel=1 note=68 velocity=0 time=0.0208333125
EXTRACT: note_off channel=0 note=56 velocity=0 time=0.023809499999999997
EXTRACT: note_off channel=11 note=68 velocity=0 time=0.056547562499999995
EXTRACT: note_off channel=4 note=68 velocity=0 time=0.017857124999999998
EXTRACT: note_off channel=9 note=38 velocity=0 time=0.008928562499999999
EXTRACT: note_on channel=0 note=56 velocity=100 time=0.014880937499999998
EXTRACT: control_change channel=4 control=10 value=33 time=0
EXTRACT: note_on channel=9 note=42 velocity=100 time=0.14285699999999998
EXTRACT: control_change channel=1 control=10 value=127 time=0
EXTRACT: note_on channel=1 note=68 velocity=100 time=0
EXTRACT: note_off channel=0 note=56 velocity=0 time=0.0446428125
EXTRACT: note_off channel=9 note=42 velocity=0 time=0.08333325
EXTRACT: note_on channel=0 note=56 velocity=100 time=0.014880937499999998
EXTRACT: note_on channel=4 note=63 velocity=100 time=0
EXTRACT: note_on channel=6 note=63 velocity=100 time=0
EXTRACT: note_on channel=11 note=68 velocity=100 time=0
EXTRACT: note_on channel=2 note=31 velocity=100 time=0.07142849999999999
EXTRACT: note_off channel=0 note=56 velocity=0 time=0.038690437499999994
EXTRACT: note_off channel=4 note=63 velocity=0 time=0.008928562499999999
EXTRACT: note_on channel=0 note=54 velocity=100 time=0.023809499999999997
EXTRACT: note_on channel=9 note=35 velocity=100 time=0
EXTRACT: note_on channel=9 note=36 velocity=100 time=0
EXTRACT: note_off channel=2 note=31 velocity=0 time=0
EXTRACT: note_on channel=2 note=32 velocity=100 time=0
EXTRACT: control_change channel=4 control=10 value=95 time=0
EXTRACT: note_on channel=11 note=66 velocity=100 time=0
EXTRACT: note_off channel=11 note=68 velocity=0 time=0.0446428125
EXTRACT: note_off channel=9 note=35 velocity=0 time=0.08333325
EXTRACT: note_off channel=9 note=36 velocity=0 time=0
EXTRACT: note_off channel=1 note=68 velocity=0 time=0.008928562499999999
EXTRACT: note_off channel=6 note=63 velocity=0 time=0.005952374999999999
EXTRACT: note_on channel=6 note=63 velocity=100 time=0
EXTRACT: note_off channel=0 note=54 velocity=0 time=0.0982141875
EXTRACT: note_on channel=9 note=42 velocity=100 time=0.0446428125
EXTRACT: control_change channel=4 control=10 value=33 time=0
EXTRACT: note_on channel=4 note=66 velocity=100 time=0
EXTRACT: note_off channel=6 note=63 velocity=0 time=0
EXTRACT: note_on channel=6 note=61 velocity=100 time=0
EXTRACT: note_off channel=4 note=66 velocity=0 time=0.09523799999999999
EXTRACT: note_off channel=9 note=42 velocity=0 time=0.0327380625
EXTRACT: note_off channel=2 note=32 velocity=0 time=0.011904749999999999
EXTRACT: note_on channel=0 note=56 velocity=100 time=0.0029761874999999997
EXTRACT: control_change channel=4 control=10 value=95 time=0
EXTRACT: note_off channel=6 note=61 velocity=0 time=0
EXTRACT: note_on channel=6 note=61 velocity=100 time=0
EXTRACT: note_off channel=0 note=56 velocity=0 time=0.14285699999999998
EXTRACT: note_on channel=9 note=38 velocity=100 time=0
EXTRACT: note_on channel=3 note=56 velocity=100 time=0
EXTRACT: note_on channel=4 note=68 velocity=100 time=0
EXTRACT: note_off channel=6 note=61 velocity=0 time=0
EXTRACT: note_on channel=6 note=59 velocity=100 time=0
EXTRACT: note_off channel=9 note=38 velocity=0 time=0.1279760625
EXTRACT: note_off channel=3 note=56 velocity=0 time=0.008928562499999999
EXTRACT: note_on channel=0 note=56 velocity=100 time=0.005952374999999999
EXTRACT: note_on channel=3 note=54 velocity=100 time=0
EXTRACT: note_off channel=4 note=68 velocity=0 time=0
EXTRACT: note_on channel=4 note=71 velocity=100 time=0
EXTRACT: note_off channel=0 note=56 velocity=0 time=0.14285699999999998
EXTRACT: note_on channel=9 note=42 velocity=100 time=0
EXTRACT: note_on channel=9 note=49 velocity=60 time=0
EXTRACT: note_off channel=3 note=54 velocity=0 time=0
EXTRACT: note_on channel=3 note=56 velocity=100 time=0
EXTRACT: note_off channel=6 note=59 velocity=0 time=0
EXTRACT: note_on channel=6 note=61 velocity=100 time=0
EXTRACT: note_off channel=4 note=71 velocity=0 time=0.0208333125
EXTRACT: note_off channel=9 note=42 velocity=0 time=0.10714274999999998
EXTRACT: note_off channel=9 note=49 velocity=0 time=0
EXTRACT: note_on channel=0 note=56 velocity=100 time=0.014880937499999998
EXTRACT: note_off channel=3 note=56 velocity=0 time=0
EXTRACT: note_on channel=3 note=56 velocity=100 time=0
EXTRACT: note_off channel=11 note=66 velocity=0 time=0.10119037499999999
EXTRACT: note_off channel=0 note=56 velocity=0 time=0.026785687499999995
EXTRACT: note_off channel=6 note=61 velocity=0 time=0.0029761874999999997
EXTRACT: note_on channel=6 note=63 velocity=100 time=0
EXTRACT: note_on channel=0 note=54 velocity=100 time=0.011904749999999999
EXTRACT: note_on channel=9 note=35 velocity=100 time=0
EXTRACT: note_on channel=9 note=36 velocity=100 time=0
EXTRACT: note_on channel=2 note=32 velocity=100 time=0
EXTRACT: control_change channel=4 control=10 value=24 time=0
EXTRACT: note_off channel=0 note=54 velocity=0 time=0.07142849999999999
EXTRACT: note_off channel=9 note=35 velocity=0 time=0.056547562499999995
EXTRACT: note_off channel=9 note=36 velocity=0 time=0
EXTRACT: note_on channel=0 note=54 velocity=100 time=0.014880937499999998
EXTRACT: note_off channel=0 note=54 velocity=0 time=0.07142849999999999
EXTRACT: note_off channel=3 note=56 velocity=0 time=0.017857124999999998
EXTRACT: note_on channel=0 note=54 velocity=100 time=0.05357137499999999
EXTRACT: note_on channel=9 note=42 velocity=100 time=0
EXTRACT: control_change channel=4 control=10 value=104 time=0
EXTRACT: note_on channel=4 note=66 velocity=100 time=0
EXTRACT: note_off channel=0 note=54 velocity=0 time=0.07142849999999999
EXTRACT: note_off channel=4 note=66 velocity=0 time=0.023809499999999997
EXTRACT: note_off channel=9 note=42 velocity=0 time=0.0327380625
EXTRACT: note_on channel=0 note=56 velocity=100 time=0.014880937499999998
EXTRACT: note_off channel=2 note=32 velocity=0 time=0.038690437499999994
EXTRACT: note_off channel=6 note=63 velocity=0 time=0.08035706249999999
EXTRACT: note_on channel=9 note=38 velocity=100 time=0.023809499999999997
EXTRACT: note_on channel=4 note=68 velocity=100 time=0
EXTRACT: note_off channel=0 note=56 velocity=0 time=0.0446428125
EXTRACT: note_off channel=4 note=68 velocity=0 time=0.0744046875
EXTRACT: note_off channel=9 note=38 velocity=0 time=0.008928562499999999
EXTRACT: note_on channel=0 note=56 velocity=100 time=0.014880937499999998
EXTRACT: control_change channel=4 control=10 value=33 time=0
EXTRACT: note_on channel=9 note=42 velocity=100 time=0.14285699999999998
EXTRACT: note_on channel=6 note=63 velocity=100 time=0
EXTRACT: note_on channel=11 note=66 velocity=68 time=0
EXTRACT: note_off channel=0 note=56 velocity=0 time=0.0446428125
EXTRACT: note_off channel=11 note=66 velocity=0 time=0.026785687499999995
EXTRACT: note_off channel=9 note=42 velocity=0 time=0.056547562499999995
EXTRACT: note_on channel=0 note=56 velocity=100 time=0.014880937499999998
EXTRACT: note_on channel=4 note=63 velocity=100 time=0
EXTRACT: note_off channel=6 note=63 velocity=0 time=0
EXTRACT: note_on channel=6 note=63 velocity=100 time=0
EXTRACT: note_on channel=11 note=63 velocity=68 time=0
EXTRACT: note_on channel=2 note=31 velocity=100 time=0.07142849999999999
EXTRACT: note_off channel=11 note=63 velocity=0 time=0
EXTRACT: note_off channel=0 note=56 velocity=0 time=0.038690437499999994
EXTRACT: note_off channel=4 note=63 velocity=0 time=0.008928562499999999
EXTRACT: note_on channel=0 note=54 velocity=100 time=0.023809499999999997
EXTRACT: note_on channel=9 note=35 velocity=100 time=0
EXTRACT: note_on channel=9 note=36 velocity=100 time=0
EXTRACT: note_off channel=2 note=31 velocity=0 time=0
EXTRACT: note_on channel=2 note=32 velocity=100 time=0
EXTRACT: control_change channel=4 control=10 value=95 time=0
EXTRACT: note_on channel=11 note=66 velocity=68 time=0
EXTRACT: note_off channel=11 note=66 velocity=0 time=0.07142849999999999
EXTRACT: note_off channel=9 note=35 velocity=0 time=0.056547562499999995
EXTRACT: note_off channel=9 note=36 velocity=0 time=0
EXTRACT: note_off channel=6 note=63 velocity=0 time=0.014880937499999998
EXTRACT: note_on channel=6 note=63 velocity=100 time=0
EXTRACT: note_on channel=11 note=63 velocity=68 time=0
EXTRACT: note_off channel=11 note=63 velocity=0 time=0.07142849999999999
EXTRACT: note_off channel=0 note=54 velocity=0 time=0.026785687499999995
EXTRACT: note_on channel=9 note=42 velocity=100 time=0.0446428125
EXTRACT: control_change channel=4 control=10 value=33 time=0
EXTRACT: note_on channel=4 note=66 velocity=100 time=0
EXTRACT: note_off channel=6 note=63 velocity=0 time=0
EXTRACT: note_on channel=6 note=61 velocity=100 time=0
EXTRACT: note_on channel=11 note=66 velocity=68 time=0
EXTRACT: note_off channel=11 note=66 velocity=0 time=0.07142849999999999
EXTRACT: note_off channel=4 note=66 velocity=0 time=0.023809499999999997
EXTRACT: note_off channel=9 note=42 velocity=0 time=0.0327380625
EXTRACT: note_off channel=2 note=32 velocity=0 time=0.011904749999999999
EXTRACT: note_on channel=0 note=56 velocity=100 time=0.0029761874999999997
EXTRACT: control_change channel=4 control=10 value=95 time=0
EXTRACT: note_on channel=11 note=63 velocity=89 time=0
EXTRACT: note_off channel=11 note=63 velocity=0 time=0.07142849999999999
EXTRACT: note_off channel=0 note=56 velocity=0 time=0.07142849999999999
EXTRACT: note_on channel=9 note=38 velocity=100 time=0
EXTRACT: note_on channel=3 note=56 velocity=100 time=0
EXTRACT: note_on channel=4 note=68 velocity=100 time=0
EXTRACT: note_off channel=6 note=61 velocity=0 time=0
EXTRACT: note_on channel=6 note=59 velocity=100 time=0
EXTRACT: note_on channel=11 note=66 velocity=100 time=0
EXTRACT: note_off channel=11 note=66 velocity=0 time=0.07142849999999999
EXTRACT: note_off channel=9 note=38 velocity=0 time=0.056547562499999995
EXTRACT: note_off channel=3 note=56 velocity=0 time=0.008928562499999999
EXTRACT: note_on channel=0 note=56 velocity=100 time=0.005952374999999999
EXTRACT: note_on channel=3 note=54 velocity=100 time=0
EXTRACT: note_off channel=4 note=68 velocity=0 time=0
EXTRACT: note_on channel=4 note=71 velocity=100 time=0
EXTRACT: note_on channel=11 note=68 velocity=100 time=0
EXTRACT: note_off channel=0 note=56 velocity=0 time=0.14285699999999998
EXTRACT: note_on channel=9 note=35 velocity=100 time=0
EXTRACT: note_on channel=9 note=36 velocity=100 time=0
EXTRACT: note_on channel=9 note=42 velocity=100 time=0
EXTRACT: note_on channel=9 note=49 velocity=60 time=0
EXTRACT: note_off channel=3 note=54 velocity=0 time=0
EXTRACT: note_on channel=3 note=56 velocity=100 time=0
EXTRACT: note_off channel=6 note=59 velocity=0 time=0
EXTRACT: note_on channel=6 note=61 velocity=100 time=0
EXTRACT: note_off channel=4 note=71 velocity=0 time=0.0208333125
EXTRACT: note_off channel=9 note=35 velocity=0 time=0.10714274999999998
EXTRACT: note_off channel=9 note=36 velocity=0 time=0
EXTRACT: note_off channel=9 note=42 velocity=0 time=0
EXTRACT: note_off channel=9 note=49 velocity=0 time=0
EXTRACT: note_on channel=0 note=56 velocity=100 time=0.014880937499999998
EXTRACT: note_off channel=3 note=56 velocity=0 time=0
EXTRACT: note_on channel=3 note=56 velocity=100 time=0
EXTRACT: note_off channel=0 note=56 velocity=0 time=0.1279760625
EXTRACT: note_off channel=6 note=61 velocity=0 time=0.0029761874999999997
EXTRACT: note_on channel=6 note=63 velocity=100 time=0
EXTRACT: note_on channel=0 note=54 velocity=100 time=0.011904749999999999
EXTRACT: note_on channel=9 note=35 velocity=100 time=0
EXTRACT: note_on channel=9 note=36 velocity=100 time=0
EXTRACT: note_on channel=2 note=32 velocity=100 time=0
EXTRACT: note_off channel=0 note=54 velocity=0 time=0.07142849999999999
EXTRACT: note_off channel=9 note=35 velocity=0 time=0.056547562499999995
EXTRACT: note_off channel=9 note=36 velocity=0 time=0
EXTRACT: note_on channel=0 note=54 velocity=100 time=0.014880937499999998
EXTRACT: note_off channel=0 note=54 velocity=0 time=0.07142849999999999
EXTRACT: note_off channel=3 note=56 velocity=0 time=0.017857124999999998
EXTRACT: note_on channel=0 note=54 velocity=100 time=0.05357137499999999
EXTRACT: note_on channel=9 note=42 velocity=100 time=0
EXTRACT: control_change channel=1 control=10 value=0 time=0
EXTRACT: note_on channel=1 note=68 velocity=100 time=0
EXTRACT: note_on channel=4 note=66 velocity=100 time=0
EXTRACT: note_off channel=6 note=63 velocity=0 time=0
EXTRACT: note_on channel=6 note=61 velocity=100 time=0
EXTRACT: note_on channel=6 note=68 velocity=100 time=0
EXTRACT: note_off channel=0 note=54 velocity=0 time=0.07142849999999999
EXTRACT: note_off channel=4 note=66 velocity=0 time=0.023809499999999997
EXTRACT: note_off channel=9 note=42 velocity=0 time=0.0327380625
EXTRACT: note_on channel=0 note=56 velocity=100 time=0.014880937499999998
EXTRACT: note_off channel=2 note=32 velocity=0 time=0.038690437499999994
EXTRACT: note_on channel=9 note=38 velocity=100 time=0.10416656249999999
EXTRACT: control_change channel=4 control=10 value=104 time=0
EXTRACT: note_on channel=4 note=68 velocity=100 time=0
EXTRACT: note_off channel=6 note=68 velocity=0 time=0
EXTRACT: note_on channel=6 note=68 velocity=100 time=0
EXTRACT: note_off channel=1 note=68 velocity=0 time=0.0208333125
EXTRACT: note_off channel=0 note=56 velocity=0 time=0.023809499999999997
EXTRACT: note_off channel=11 note=68 velocity=0 time=0.056547562499999995
EXTRACT: note_off channel=4 note=68 velocity=0 time=0.017857124999999998
EXTRACT: note_off channel=9 note=38 velocity=0 time=0.008928562499999999
EXTRACT: note_on channel=0 note=56 velocity=100 time=0.014880937499999998
EXTRACT: note_off channel=6 note=61 velocity=0 time=0
EXTRACT: note_on channel=6 note=59 velocity=100 time=0
EXTRACT: note_on channel=9 note=42 velocity=100 time=0.14285699999999998
EXTRACT: control_change channel=1 control=10 value=127 time=0
EXTRACT: note_on channel=1 note=68 velocity=100 time=0
EXTRACT: note_off channel=6 note=68 velocity=0 time=0
EXTRACT: note_off channel=6 note=59 velocity=0 time=0
EXTRACT: note_on channel=6 note=56 velocity=100 time=0
EXTRACT: note_on channel=6 note=68 velocity=100 time=0
EXTRACT: note_off channel=0 note=56 velocity=0 time=0.0446428125
EXTRACT: note_off channel=9 note=42 velocity=0 time=0.08333325
EXTRACT: note_on channel=0 note=56 velocity=100 time=0.014880937499999998
EXTRACT: control_change channel=4 control=10 value=33 time=0
EXTRACT: note_on channel=4 note=63 velocity=100 time=0
EXTRACT: note_on channel=11 note=68 velocity=100 time=0
EXTRACT: note_on channel=2 note=31 velocity=100 time=0.07142849999999999
EXTRACT: note_off channel=0 note=56 velocity=0 time=0.038690437499999994
EXTRACT: note_off channel=4 note=63 velocity=0 time=0.008928562499999999
EXTRACT: note_on channel=0 note=54 velocity=100 time=0.023809499999999997
EXTRACT: note_on channel=9 note=35 velocity=100 time=0
EXTRACT: note_on channel=9 note=36 velocity=100 time=0
EXTRACT: note_off channel=2 note=31 velocity=0 time=0
EXTRACT: note_on channel=2 note=32 velocity=100 time=0
EXTRACT: note_off channel=6 note=68 velocity=0 time=0
EXTRACT: note_on channel=6 note=66 velocity=100 time=0
EXTRACT: note_on channel=11 note=66 velocity=100 time=0
EXTRACT: note_off channel=11 note=68 velocity=0 time=0.0446428125
EXTRACT: note_off channel=9 note=35 velocity=0 time=0.08333325
EXTRACT: note_off channel=9 note=36 velocity=0 time=0
EXTRACT: note_off channel=1 note=68 velocity=0 time=0.008928562499999999
EXTRACT: note_off channel=6 note=66 velocity=0 time=0.005952374999999999
EXTRACT: note_on channel=6 note=68 velocity=100 time=0
EXTRACT: note_off channel=0 note=54 velocity=0 time=0.0982141875
EXTRACT: note_off channel=6 note=56 velocity=0 time=0.0327380625
EXTRACT: note_on channel=9 note=42 velocity=100 time=0.011904749999999999
EXTRACT: control_change channel=4 control=10 value=95 time=0
EXTRACT: note_on channel=4 note=66 velocity=100 time=0
EXTRACT: note_off channel=4 note=66 velocity=0 time=0.09523799999999999
EXTRACT: note_off channel=9 note=42 velocity=0 time=0.0327380625
EXTRACT: note_off channel=2 note=32 velocity=0 time=0.011904749999999999
EXTRACT: note_on channel=0 note=56 velocity=100 time=0.0029761874999999997
EXTRACT: note_off channel=6 note=68 velocity=0 time=0
EXTRACT: note_on channel=6 note=68 velocity=100 time=0
EXTRACT: note_off channel=0 note=56 velocity=0 time=0.14285699999999998
EXTRACT: note_on channel=9 note=38 velocity=100 time=0
EXTRACT: note_on channel=3 note=56 velocity=100 time=0
EXTRACT: control_change channel=4 control=10 value=33 time=0
EXTRACT: note_on channel=4 note=68 velocity=100 time=0
EXTRACT: note_off channel=9 note=38 velocity=0 time=0.1279760625
EXTRACT: note_off channel=3 note=56 velocity=0 time=0.008928562499999999
EXTRACT: note_on channel=0 note=56 velocity=100 time=0.005952374999999999
EXTRACT: note_on channel=3 note=54 velocity=100 time=0
EXTRACT: note_off channel=4 note=68 velocity=0 time=0
EXTRACT: control_change channel=4 control=10 value=95 time=0
EXTRACT: note_on channel=4 note=71 velocity=100 time=0
EXTRACT: note_off channel=0 note=56 velocity=0 time=0.14285699999999998
EXTRACT: note_on channel=9 note=42 velocity=100 time=0
EXTRACT: note_on channel=9 note=49 velocity=60 time=0
EXTRACT: note_off channel=3 note=54 velocity=0 time=0
EXTRACT: note_on channel=3 note=56 velocity=100 time=0
EXTRACT: note_off channel=6 note=68 velocity=0 time=0
EXTRACT: note_on channel=6 note=56 velocity=100 time=0
EXTRACT: note_on channel=6 note=68 velocity=100 time=0
EXTRACT: note_off channel=4 note=71 velocity=0 time=0.0208333125
EXTRACT: note_off channel=9 note=42 velocity=0 time=0.10714274999999998
EXTRACT: note_off channel=9 note=49 velocity=0 time=0
EXTRACT: note_on channel=0 note=56 velocity=100 time=0.014880937499999998
EXTRACT: note_off channel=3 note=56 velocity=0 time=0
EXTRACT: note_on channel=3 note=56 velocity=100 time=0
EXTRACT: note_off channel=6 note=68 velocity=0 time=0
EXTRACT: note_on channel=6 note=68 velocity=100 time=0
EXTRACT: note_off channel=11 note=66 velocity=0 time=0.10119037499999999
EXTRACT: note_off channel=0 note=56 velocity=0 time=0.026785687499999995
EXTRACT: note_on channel=5 note=56 velocity=100 time=0.014880937499999998
EXTRACT: note_off channel=6 note=56 velocity=0 time=0
EXTRACT: note_off channel=6 note=68 velocity=0 time=0
EXTRACT: note_on channel=6 note=71 velocity=100 time=0
EXTRACT: note_on channel=12 note=68 velocity=100 time=0
EXTRACT: note_off channel=5 note=56 velocity=0 time=0.13690462499999997
EXTRACT: note_on channel=5 note=54 velocity=100 time=0.005952374999999999
EXTRACT: note_off channel=6 note=71 velocity=0 time=0
EXTRACT: note_on channel=6 note=71 velocity=100 time=0
EXTRACT: note_off channel=12 note=68 velocity=0 time=0
EXTRACT: note_on channel=12 note=68 velocity=100 time=0
EXTRACT: note_off channel=3 note=56 velocity=0 time=0.089285625
EXTRACT: note_off channel=5 note=54 velocity=0 time=0.05357137499999999
EXTRACT: note_on channel=5 note=56 velocity=100 time=0
EXTRACT: note_off channel=6 note=71 velocity=0 time=0
EXTRACT: note_on channel=6 note=68 velocity=100 time=0
EXTRACT: note_off channel=12 note=68 velocity=0 time=0
EXTRACT: note_on channel=12 note=66 velocity=100 time=0
EXTRACT: note_off channel=12 note=66 velocity=0 time=0.13690462499999997
EXTRACT: note_off channel=5 note=56 velocity=0 time=0.005952374999999999
EXTRACT: note_on channel=5 note=54 velocity=100 time=0
EXTRACT: note_on channel=12 note=63 velocity=100 time=0
EXTRACT: note_off channel=5 note=54 velocity=0 time=0.14285699999999998
EXTRACT: note_on channel=5 note=56 velocity=100 time=0
EXTRACT: note_off channel=6 note=68 velocity=0 time=0
EXTRACT: note_on channel=6 note=71 velocity=100 time=0
EXTRACT: note_off channel=12 note=63 velocity=0 time=0
EXTRACT: note_on channel=12 note=63 velocity=100 time=0
EXTRACT: note_off channel=5 note=56 velocity=0 time=0.13690462499999997
EXTRACT: note_on channel=5 note=54 velocity=100 time=0.005952374999999999
EXTRACT: note_off channel=12 note=63 velocity=0 time=0
EXTRACT: note_on channel=12 note=61 velocity=100 time=0
EXTRACT: note_off channel=12 note=61 velocity=0 time=0.11904749999999999
EXTRACT: note_off channel=5 note=54 velocity=0 time=0.023809499999999997
EXTRACT: note_on channel=5 note=56 velocity=100 time=0
EXTRACT: note_off channel=6 note=71 velocity=0 time=0
EXTRACT: note_on channel=6 note=68 velocity=100 time=0
EXTRACT: note_on channel=11 note=66 velocity=68 time=0
EXTRACT: note_on channel=12 note=61 velocity=100 time=0
EXTRACT: note_off channel=11 note=66 velocity=0 time=0.07142849999999999
EXTRACT: note_off channel=12 note=61 velocity=0 time=0.047618999999999995
EXTRACT: note_off channel=5 note=56 velocity=0 time=0.023809499999999997
EXTRACT: note_on channel=5 note=54 velocity=100 time=0
EXTRACT: note_on channel=11 note=63 velocity=68 time=0
EXTRACT: note_on channel=12 note=58 velocity=100 time=0
EXTRACT: note_off channel=11 note=63 velocity=0 time=0.07142849999999999
EXTRACT: note_off channel=5 note=54 velocity=0 time=0.07142849999999999
EXTRACT: note_on channel=5 note=56 velocity=100 time=0
EXTRACT: note_off channel=6 note=68 velocity=0 time=0
EXTRACT: note_on channel=6 note=66 velocity=100 time=0
EXTRACT: note_on channel=11 note=66 velocity=68 time=0
EXTRACT: note_off channel=12 note=58 velocity=0 time=0
EXTRACT: note_on channel=12 note=56 velocity=100 time=0
EXTRACT: note_off channel=11 note=66 velocity=0 time=0.07142849999999999
EXTRACT: note_off channel=5 note=56 velocity=0 time=0.065476125
EXTRACT: note_on channel=5 note=54 velocity=100 time=0.005952374999999999
EXTRACT: note_off channel=6 note=66 velocity=0 time=0
EXTRACT: note_on channel=6 note=68 velocity=100 time=0
EXTRACT: note_on channel=11 note=63 velocity=68 time=0
EXTRACT: note_off channel=11 note=63 velocity=0 time=0.07142849999999999
EXTRACT: note_off channel=12 note=56 velocity=0 time=0.041666625
EXTRACT: note_on channel=9 note=35 velocity=100 time=0.029761874999999997
EXTRACT: note_on channel=9 note=36 velocity=100 time=0
EXTRACT: note_off channel=5 note=54 velocity=0 time=0
EXTRACT: note_on channel=5 note=56 velocity=100 time=0
EXTRACT: note_on channel=11 note=66 velocity=68 time=0
EXTRACT: note_off channel=11 note=66 velocity=0 time=0.07142849999999999
EXTRACT: note_off channel=9 note=35 velocity=0 time=0.056547562499999995
EXTRACT: note_off channel=9 note=36 velocity=0 time=0
EXTRACT: note_off channel=5 note=56 velocity=0 time=0.014880937499999998
EXTRACT: note_on channel=5 note=54 velocity=100 time=0
EXTRACT: note_off channel=6 note=68 velocity=0 time=0
EXTRACT: note_on channel=6 note=68 velocity=100 time=0
EXTRACT: note_on channel=11 note=63 velocity=89 time=0
EXTRACT: note_off channel=11 note=63 velocity=0 time=0.07142849999999999
EXTRACT: note_on channel=9 note=38 velocity=100 time=0.07142849999999999
EXTRACT: note_off channel=5 note=54 velocity=0 time=0
EXTRACT: note_on channel=5 note=56 velocity=100 time=0
EXTRACT: note_on channel=11 note=66 velocity=100 time=0
EXTRACT: note_off channel=11 note=66 velocity=0 time=0.07142849999999999
EXTRACT: note_off channel=9 note=38 velocity=0 time=0.056547562499999995
EXTRACT: note_off channel=5 note=56 velocity=0 time=0.008928562499999999
EXTRACT: note_on channel=5 note=54 velocity=100 time=0.005952374999999999
EXTRACT: note_on channel=11 note=68 velocity=100 time=0
EXTRACT: note_off channel=5 note=54 velocity=0 time=0.14285699999999998
EXTRACT: note_on channel=5 note=56 velocity=100 time=0
EXTRACT: note_off channel=6 note=68 velocity=0 time=0
EXTRACT: note_off channel=5 note=56 velocity=0 time=0.14285699999999998
EXTRACT: note_on channel=5 note=54 velocity=58 time=0
EXTRACT: note_on channel=0 note=54 velocity=100 time=0.14285699999999998
EXTRACT: note_on channel=9 note=35 velocity=100 time=0
EXTRACT: note_on channel=9 note=36 velocity=100 time=0
EXTRACT: control_change channel=1 control=10 value=0 time=0
EXTRACT: note_on channel=2 note=32 velocity=100 time=0
EXTRACT: note_off channel=5 note=54 velocity=0 time=0
EXTRACT: note_on channel=10 note=68 velocity=100 time=0
EXTRACT: note_on channel=6 note=63 velocity=100 time=0.005952374999999999
EXTRACT: note_off channel=0 note=54 velocity=0 time=0.065476125
EXTRACT: note_off channel=9 note=35 velocity=0 time=0.056547562499999995
EXTRACT: note_off channel=9 note=36 velocity=0 time=0
EXTRACT: note_on channel=0 note=54 velocity=100 time=0.014880937499999998
EXTRACT: note_off channel=0 note=54 velocity=0 time=0.07142849999999999
EXTRACT: note_on channel=0 note=54 velocity=100 time=0.07142849999999999
EXTRACT: note_on channel=9 note=42 velocity=100 time=0
EXTRACT: note_on channel=1 note=68 velocity=100 time=0
EXTRACT: note_on channel=4 note=66 velocity=100 time=0
EXTRACT: note_off channel=0 note=54 velocity=0 time=0.07142849999999999
EXTRACT: note_off channel=4 note=66 velocity=0 time=0.023809499999999997
EXTRACT: note_off channel=9 note=42 velocity=0 time=0.0327380625
EXTRACT: note_on channel=0 note=56 velocity=100 time=0.014880937499999998
EXTRACT: note_off channel=2 note=32 velocity=0 time=0.038690437499999994
EXTRACT: note_off channel=6 note=63 velocity=0 time=0.0982141875
EXTRACT: note_on channel=9 note=38 velocity=100 time=0.005952374999999999
EXTRACT: control_change channel=4 control=10 value=104 time=0
EXTRACT: note_on channel=4 note=68 velocity=100 time=0
EXTRACT: note_off channel=1 note=68 velocity=0 time=0.0208333125
EXTRACT: note_off channel=0 note=56 velocity=0 time=0.023809499999999997
EXTRACT: note_off channel=11 note=68 velocity=0 time=0.056547562499999995
EXTRACT: note_off channel=4 note=68 velocity=0 time=0.017857124999999998
EXTRACT: note_off channel=9 note=38 velocity=0 time=0.008928562499999999
EXTRACT: note_on channel=0 note=56 velocity=100 time=0.014880937499999998
EXTRACT: note_on channel=9 note=42 velocity=100 time=0.14285699999999998
EXTRACT: control_change channel=1 control=10 value=127 time=0
EXTRACT: note_on channel=1 note=68 velocity=100 time=0
EXTRACT: note_off channel=0 note=56 velocity=0 time=0.0446428125
EXTRACT: note_off channel=9 note=42 velocity=0 time=0.08333325
EXTRACT: note_on channel=0 note=56 velocity=100 time=0.014880937499999998
EXTRACT: control_change channel=4 control=10 value=33 time=0
EXTRACT: note_on channel=4 note=63 velocity=100 time=0
EXTRACT: note_on channel=6 note=63 velocity=100 time=0
EXTRACT: note_on channel=11 note=68 velocity=100 time=0
EXTRACT: note_on channel=2 note=31 velocity=100 time=0.07142849999999999
EXTRACT: note_off channel=0 note=56 velocity=0 time=0.038690437499999994
EXTRACT: note_off channel=4 note=63 velocity=0 time=0.008928562499999999
EXTRACT: note_on channel=0 note=54 velocity=100 time=0.023809499999999997
EXTRACT: note_on channel=9 note=35 velocity=100 time=0
EXTRACT: note_on channel=9 note=36 velocity=100 time=0
EXTRACT: note_off channel=2 note=31 velocity=0 time=0
EXTRACT: note_on channel=2 note=32 velocity=100 time=0
EXTRACT: note_on channel=11 note=66 velocity=100 time=0
EXTRACT: note_off channel=11 note=68 velocity=0 time=0.0446428125
EXTRACT: note_off channel=9 note=35 velocity=0 time=0.08333325
EXTRACT: note_off channel=9 note=36 velocity=0 time=0
EXTRACT: note_off channel=1 note=68 velocity=0 time=0.008928562499999999
EXTRACT: note_off channel=0 note=54 velocity=0 time=0.10416656249999999
EXTRACT: note_on channel=9 note=42 velocity=100 time=0.0446428125
EXTRACT: control_change channel=4 control=10 value=95 time=0
EXTRACT: note_on channel=4 note=66 velocity=100 time=0
EXTRACT: note_off channel=6 note=63 velocity=0 time=0
EXTRACT: note_on channel=6 note=61 velocity=100 time=0
EXTRACT: note_off channel=4 note=66 velocity=0 time=0.09523799999999999
EXTRACT: note_off channel=9 note=42 velocity=0 time=0.0327380625
EXTRACT: note_off channel=2 note=32 velocity=0 time=0.011904749999999999
EXTRACT: note_on channel=0 note=56 velocity=100 time=0.0029761874999999997
EXTRACT: note_off channel=0 note=56 velocity=0 time=0.14285699999999998
EXTRACT: note_on channel=9 note=38 velocity=100 time=0
EXTRACT: note_on channel=3 note=56 velocity=100 time=0
EXTRACT: control_change channel=4 control=10 value=33 time=0
EXTRACT: note_on channel=4 note=68 velocity=100 time=0
EXTRACT: note_off channel=6 note=61 velocity=0 time=0
EXTRACT: note_on channel=6 note=59 velocity=100 time=0
EXTRACT: note_off channel=9 note=38 velocity=0 time=0.1279760625
EXTRACT: note_off channel=3 note=56 velocity=0 time=0.008928562499999999
EXTRACT: note_on channel=0 note=56 velocity=100 time=0.005952374999999999
EXTRACT: note_on channel=3 note=54 velocity=100 time=0
EXTRACT: note_off channel=4 note=68 velocity=0 time=0
EXTRACT: control_change channel=4 control=10 value=95 time=0
EXTRACT: note_on channel=4 note=71 velocity=100 time=0
EXTRACT: note_off channel=0 note=56 velocity=0 time=0.14285699999999998
EXTRACT: note_on channel=9 note=42 velocity=100 time=0
EXTRACT: note_on channel=9 note=49 velocity=60 time=0
EXTRACT: note_off channel=3 note=54 velocity=0 time=0
EXTRACT: note_on channel=3 note=56 velocity=100 time=0
EXTRACT: note_off channel=6 note=59 velocity=0 time=0
EXTRACT: note_on channel=6 note=61 velocity=100 time=0
EXTRACT: note_off channel=4 note=71 velocity=0 time=0.0208333125
EXTRACT: note_off channel=9 note=42 velocity=0 time=0.10714274999999998
EXTRACT: note_off channel=9 note=49 velocity=0 time=0
EXTRACT: note_on channel=0 note=56 velocity=100 time=0.014880937499999998
EXTRACT: note_off channel=3 note=56 velocity=0 time=0
EXTRACT: note_on channel=3 note=56 velocity=100 time=0
EXTRACT: note_off channel=11 note=66 velocity=0 time=0.10119037499999999
EXTRACT: note_off channel=10 note=68 velocity=0 time=0.014880937499999998
EXTRACT: note_off channel=0 note=56 velocity=0 time=0.011904749999999999
EXTRACT: note_off channel=6 note=61 velocity=0 time=0.0029761874999999997
EXTRACT: note_on channel=6 note=63 velocity=100 time=0
EXTRACT: note_on channel=0 note=54 velocity=100 time=0.011904749999999999
EXTRACT: note_on channel=9 note=35 velocity=100 time=0
EXTRACT: note_on channel=9 note=36 velocity=100 time=0
EXTRACT: note_on channel=2 note=32 velocity=100 time=0
EXTRACT: control_change channel=4 control=10 value=24 time=0
EXTRACT: note_on channel=10 note=66 velocity=100 time=0
EXTRACT: note_off channel=0 note=54 velocity=0 time=0.07142849999999999
EXTRACT: note_off channel=9 note=35 velocity=0 time=0.056547562499999995
EXTRACT: note_off channel=9 note=36 velocity=0 time=0
EXTRACT: note_on channel=0 note=54 velocity=100 time=0.014880937499999998
EXTRACT: note_off channel=0 note=54 velocity=0 time=0.07142849999999999
EXTRACT: note_off channel=3 note=56 velocity=0 time=0.017857124999999998
EXTRACT: note_on channel=0 note=54 velocity=100 time=0.05357137499999999
EXTRACT: note_on channel=9 note=42 velocity=100 time=0
EXTRACT: control_change channel=4 control=10 value=104 time=0
EXTRACT: note_on channel=4 note=66 velocity=100 time=0
EXTRACT: note_off channel=0 note=54 velocity=0 time=0.07142849999999999
EXTRACT: note_off channel=4 note=66 velocity=0 time=0.023809499999999997
EXTRACT: note_off channel=9 note=42 velocity=0 time=0.0327380625
EXTRACT: note_on channel=0 note=56 velocity=100 time=0.014880937499999998
EXTRACT: note_off channel=2 note=32 velocity=0 time=0.038690437499999994
EXTRACT: note_off channel=6 note=63 velocity=0 time=0.08035706249999999
EXTRACT: note_on channel=9 note=38 velocity=100 time=0.023809499999999997
EXTRACT: note_on channel=4 note=68 velocity=100 time=0
EXTRACT: note_off channel=0 note=56 velocity=0 time=0.0446428125
EXTRACT: note_off channel=4 note=68 velocity=0 time=0.0744046875
EXTRACT: note_off channel=9 note=38 velocity=0 time=0.008928562499999999
EXTRACT: note_on channel=0 note=56 velocity=100 time=0.014880937499999998
EXTRACT: control_change channel=4 control=10 value=33 time=0
EXTRACT: note_on channel=9 note=42 velocity=100 time=0.14285699999999998
EXTRACT: note_on channel=11 note=66 velocity=68 time=0
EXTRACT: note_off channel=0 note=56 velocity=0 time=0.0446428125
EXTRACT: note_off channel=11 note=66 velocity=0 time=0.026785687499999995
EXTRACT: note_off channel=9 note=42 velocity=0 time=0.056547562499999995
EXTRACT: note_on channel=0 note=56 velocity=100 time=0.014880937499999998
EXTRACT: note_on channel=4 note=63 velocity=100 time=0
EXTRACT: note_on channel=6 note=63 velocity=100 time=0
EXTRACT: note_on channel=11 note=63 velocity=68 time=0
EXTRACT: note_on channel=2 note=31 velocity=100 time=0.07142849999999999
EXTRACT: note_off channel=11 note=63 velocity=0 time=0
EXTRACT: note_off channel=0 note=56 velocity=0 time=0.038690437499999994
EXTRACT: note_off channel=4 note=63 velocity=0 time=0.008928562499999999
EXTRACT: note_on channel=0 note=54 velocity=100 time=0.023809499999999997
EXTRACT: note_on channel=9 note=35 velocity=100 time=0
EXTRACT: note_on channel=9 note=36 velocity=100 time=0
EXTRACT: note_off channel=2 note=31 velocity=0 time=0
EXTRACT: note_on channel=2 note=32 velocity=100 time=0
EXTRACT: control_change channel=4 control=10 value=95 time=0
EXTRACT: note_on channel=11 note=66 velocity=68 time=0
EXTRACT: note_off channel=11 note=66 velocity=0 time=0.07142849999999999
EXTRACT: note_off channel=9 note=35 velocity=0 time=0.056547562499999995
EXTRACT: note_off channel=9 note=36 velocity=0 time=0
EXTRACT: note_on channel=11 note=63 velocity=68 time=0.014880937499999998
EXTRACT: note_off channel=11 note=63 velocity=0 time=0.07142849999999999
EXTRACT: note_off channel=0 note=54 velocity=0 time=0.026785687499999995
EXTRACT: note_on channel=9 note=42 velocity=100 time=0.0446428125
EXTRACT: control_change channel=4 control=10 value=33 time=0
EXTRACT: note_on channel=4 note=66 velocity=100 time=0
EXTRACT: note_off channel=6 note=63 velocity=0 time=0
EXTRACT: note_on channel=6 note=61 velocity=100 time=0
EXTRACT: note_on channel=11 note=66 velocity=68 time=0
EXTRACT: note_off channel=11 note=66 velocity=0 time=0.07142849999999999
EXTRACT: note_off channel=4 note=66 velocity=0 time=0.023809499999999997
EXTRACT: note_off channel=9 note=42 velocity=0 time=0.0327380625
EXTRACT: note_off channel=2 note=32 velocity=0 time=0.011904749999999999
EXTRACT: note_on channel=0 note=56 velocity=100 time=0.0029761874999999997
EXTRACT: control_change channel=4 control=10 value=95 time=0
EXTRACT: note_on channel=11 note=63 velocity=89 time=0
EXTRACT: note_off channel=11 note=63 velocity=0 time=0.07142849999999999
EXTRACT: note_off channel=0 note=56 velocity=0 time=0.07142849999999999
EXTRACT: note_on channel=9 note=38 velocity=100 time=0
EXTRACT: note_on channel=3 note=56 velocity=100 time=0
EXTRACT: note_on channel=4 note=68 velocity=100 time=0
EXTRACT: note_off channel=6 note=61 velocity=0 time=0
EXTRACT: note_on channel=6 note=59 velocity=100 time=0
EXTRACT: note_on channel=11 note=66 velocity=100 time=0
EXTRACT: note_off channel=11 note=66 velocity=0 time=0.07142849999999999
EXTRACT: note_off channel=9 note=38 velocity=0 time=0.056547562499999995
EXTRACT: note_off channel=3 note=56 velocity=0 time=0.008928562499999999
EXTRACT: note_on channel=0 note=56 velocity=100 time=0.005952374999999999
EXTRACT: note_on channel=3 note=54 velocity=100 time=0
EXTRACT: note_off channel=4 note=68 velocity=0 time=0
EXTRACT: note_on channel=4 note=71 velocity=100 time=0
EXTRACT: note_on channel=11 note=68 velocity=100 time=0
EXTRACT: note_off channel=0 note=56 velocity=0 time=0.14285699999999998
EXTRACT: note_on channel=9 note=35 velocity=100 time=0
EXTRACT: note_on channel=9 note=36 velocity=100 time=0
EXTRACT: note_on channel=9 note=42 velocity=100 time=0
EXTRACT: note_on channel=9 note=49 velocity=60 time=0
EXTRACT: note_off channel=3 note=54 velocity=0 time=0
EXTRACT: note_on channel=3 note=56 velocity=100 time=0
EXTRACT: note_off channel=6 note=59 velocity=0 time=0
EXTRACT: note_on channel=6 note=61 velocity=100 time=0
EXTRACT: note_off channel=4 note=71 velocity=0 time=0.0208333125
EXTRACT: note_off channel=9 note=35 velocity=0 time=0.10714274999999998
EXTRACT: note_off channel=9 note=36 velocity=0 time=0
EXTRACT: note_off channel=9 note=42 velocity=0 time=0
EXTRACT: note_off channel=9 note=49 velocity=0 time=0
EXTRACT: note_on channel=0 note=56 velocity=100 time=0.014880937499999998
EXTRACT: note_off channel=3 note=56 velocity=0 time=0
EXTRACT: note_on channel=3 note=56 velocity=100 time=0
EXTRACT: note_off channel=0 note=56 velocity=0 time=0.1279760625
EXTRACT: note_off channel=6 note=61 velocity=0 time=0.0029761874999999997
EXTRACT: note_on channel=6 note=63 velocity=100 time=0
EXTRACT: note_on channel=0 note=54 velocity=100 time=0.011904749999999999
EXTRACT: note_on channel=9 note=35 velocity=100 time=0
EXTRACT: note_on channel=9 note=36 velocity=100 time=0
EXTRACT: note_on channel=2 note=32 velocity=100 time=0
EXTRACT: control_change channel=4 control=10 value=24 time=0
EXTRACT: note_on channel=10 note=68 velocity=100 time=0
EXTRACT: note_off channel=10 note=66 velocity=0 time=0.038690437499999994
EXTRACT: note_off channel=0 note=54 velocity=0 time=0.0327380625
EXTRACT: note_off channel=9 note=35 velocity=0 time=0.056547562499999995
EXTRACT: note_off channel=9 note=36 velocity=0 time=0
EXTRACT: note_on channel=0 note=54 velocity=100 time=0.014880937499999998
EXTRACT: note_off channel=0 note=54 velocity=0 time=0.07142849999999999
EXTRACT: note_off channel=3 note=56 velocity=0 time=0.017857124999999998
EXTRACT: note_on channel=0 note=54 velocity=100 time=0.05357137499999999
EXTRACT: note_on channel=9 note=42 velocity=100 time=0
EXTRACT: control_change channel=1 control=10 value=0 time=0
EXTRACT: note_on channel=1 note=68 velocity=100 time=0
EXTRACT: control_change channel=4 control=10 value=104 time=0
EXTRACT: note_on channel=4 note=66 velocity=100 time=0
EXTRACT: note_off channel=6 note=63 velocity=0 time=0
EXTRACT: note_on channel=6 note=61 velocity=100 time=0
EXTRACT: note_off channel=0 note=54 velocity=0 time=0.07142849999999999
EXTRACT: note_off channel=4 note=66 velocity=0 time=0.023809499999999997
EXTRACT: note_off channel=9 note=42 velocity=0 time=0.0327380625
EXTRACT: note_on channel=0 note=56 velocity=100 time=0.014880937499999998
EXTRACT: note_off channel=2 note=32 velocity=0 time=0.038690437499999994
EXTRACT: note_on channel=9 note=38 velocity=100 time=0.10416656249999999
EXTRACT: note_on channel=4 note=68 velocity=100 time=0
EXTRACT: note_off channel=1 note=68 velocity=0 time=0.0208333125
EXTRACT: note_off channel=0 note=56 velocity=0 time=0.023809499999999997
EXTRACT: note_off channel=11 note=68 velocity=0 time=0.056547562499999995
EXTRACT: note_off channel=4 note=68 velocity=0 time=0.017857124999999998
EXTRACT: note_off channel=9 note=38 velocity=0 time=0.008928562499999999
EXTRACT: note_on channel=0 note=56 velocity=100 time=0.014880937499999998
EXTRACT: control_change channel=4 control=10 value=33 time=0
EXTRACT: note_off channel=6 note=61 velocity=0 time=0
EXTRACT: note_on channel=6 note=59 velocity=100 time=0
EXTRACT: note_on channel=9 note=42 velocity=100 time=0.14285699999999998
EXTRACT: control_change channel=1 control=10 value=127 time=0
EXTRACT: note_on channel=1 note=68 velocity=100 time=0
EXTRACT: note_off channel=6 note=59 velocity=0 time=0
EXTRACT: note_on channel=6 note=56 velocity=100 time=0
EXTRACT: note_off channel=0 note=56 velocity=0 time=0.0446428125
EXTRACT: note_off channel=9 note=42 velocity=0 time=0.08333325
EXTRACT: note_on channel=0 note=56 velocity=100 time=0.014880937499999998
EXTRACT: note_on channel=4 note=63 velocity=100 time=0
EXTRACT: note_on channel=11 note=68 velocity=100 time=0
EXTRACT: note_on channel=2 note=31 velocity=100 time=0.07142849999999999
EXTRACT: note_off channel=0 note=56 velocity=0 time=0.038690437499999994
EXTRACT: note_off channel=4 note=63 velocity=0 time=0.008928562499999999
EXTRACT: note_on channel=0 note=54 velocity=100 time=0.023809499999999997
EXTRACT: note_on channel=9 note=35 velocity=100 time=0
EXTRACT: note_on channel=9 note=36 velocity=100 time=0
EXTRACT: note_off channel=2 note=31 velocity=0 time=0
EXTRACT: note_on channel=2 note=32 velocity=100 time=0
EXTRACT: control_change channel=4 control=10 value=95 time=0
EXTRACT: note_on channel=11 note=66 velocity=100 time=0
EXTRACT: note_off channel=11 note=68 velocity=0 time=0.0446428125
EXTRACT: note_off channel=9 note=35 velocity=0 time=0.08333325
EXTRACT: note_off channel=9 note=36 velocity=0 time=0
EXTRACT: note_off channel=1 note=68 velocity=0 time=0.008928562499999999
EXTRACT: note_off channel=0 note=54 velocity=0 time=0.10416656249999999
EXTRACT: note_off channel=6 note=56 velocity=0 time=0.0327380625
EXTRACT: note_on channel=9 note=42 velocity=100 time=0.011904749999999999
EXTRACT: control_change channel=4 control=10 value=33 time=0
EXTRACT: note_on channel=4 note=66 velocity=100 time=0
EXTRACT: note_off channel=4 note=66 velocity=0 time=0.09523799999999999
EXTRACT: note_off channel=9 note=42 velocity=0 time=0.0327380625
EXTRACT: note_off channel=2 note=32 velocity=0 time=0.011904749999999999
EXTRACT: note_on channel=0 note=56 velocity=100 time=0.0029761874999999997
EXTRACT: control_change channel=4 control=10 value=95 time=0
EXTRACT: note_off channel=0 note=56 velocity=0 time=0.14285699999999998
EXTRACT: note_on channel=9 note=38 velocity=100 time=0
EXTRACT: note_on channel=3 note=56 velocity=100 time=0
EXTRACT: note_on channel=4 note=68 velocity=100 time=0
EXTRACT: note_off channel=9 note=38 velocity=0 time=0.1279760625
EXTRACT: note_off channel=3 note=56 velocity=0 time=0.008928562499999999
EXTRACT: note_on channel=0 note=56 velocity=100 time=0.005952374999999999
EXTRACT: note_on channel=3 note=54 velocity=100 time=0
EXTRACT: note_off channel=4 note=68 velocity=0 time=0
EXTRACT: note_on channel=4 note=71 velocity=100 time=0
EXTRACT: note_off channel=0 note=56 velocity=0 time=0.14285699999999998
EXTRACT: note_on channel=9 note=42 velocity=100 time=0
EXTRACT: note_on channel=9 note=49 velocity=60 time=0
EXTRACT: note_off channel=3 note=54 velocity=0 time=0
EXTRACT: note_on channel=3 note=56 velocity=100 time=0
EXTRACT: note_on channel=6 note=56 velocity=100 time=0
EXTRACT: note_off channel=4 note=71 velocity=0 time=0.0208333125
EXTRACT: note_off channel=9 note=42 velocity=0 time=0.10714274999999998
EXTRACT: note_off channel=9 note=49 velocity=0 time=0
EXTRACT: note_on channel=0 note=56 velocity=100 time=0.014880937499999998
EXTRACT: note_off channel=3 note=56 velocity=0 time=0
EXTRACT: note_on channel=3 note=56 velocity=100 time=0
EXTRACT: note_off channel=11 note=66 velocity=0 time=0.10119037499999999
EXTRACT: note_off channel=10 note=68 velocity=0 time=0.005952374999999999
EXTRACT: note_off channel=0 note=56 velocity=0 time=0.0208333125
EXTRACT: note_on channel=0 note=54 velocity=100 time=0.014880937499999998
EXTRACT: note_on channel=9 note=35 velocity=100 time=0
EXTRACT: note_on channel=9 note=36 velocity=100 time=0
EXTRACT: note_on channel=2 note=32 velocity=100 time=0
EXTRACT: note_off channel=6 note=56 velocity=0 time=0
EXTRACT: note_on channel=6 note=61 velocity=100 time=0
EXTRACT: note_on channel=10 note=66 velocity=100 time=0
EXTRACT: note_on channel=12 note=68 velocity=100 time=0
EXTRACT: note_off channel=0 note=54 velocity=0 time=0.07142849999999999
EXTRACT: note_off channel=9 note=35 velocity=0 time=0.056547562499999995
EXTRACT: note_off channel=9 note=36 velocity=0 time=0
EXTRACT: note_on channel=0 note=54 velocity=100 time=0.014880937499999998
EXTRACT: note_off channel=12 note=68 velocity=0 time=0
EXTRACT: note_on channel=12 note=68 velocity=100 time=0
EXTRACT: note_off channel=0 note=54 velocity=0 time=0.07142849999999999
EXTRACT: note_off channel=3 note=56 velocity=0 time=0.017857124999999998
EXTRACT: note_on channel=0 note=54 velocity=100 time=0.05357137499999999
EXTRACT: note_on channel=9 note=42 velocity=100 time=0
EXTRACT: note_off channel=2 note=32 velocity=0 time=0
EXTRACT: note_on channel=2 note=32 velocity=80 time=0
EXTRACT: note_on channel=4 note=66 velocity=100 time=0
EXTRACT: note_off channel=6 note=61 velocity=0 time=0
EXTRACT: note_on channel=6 note=56 velocity=100 time=0
EXTRACT: note_off channel=12 note=68 velocity=0 time=0
EXTRACT: note_on channel=12 note=66 velocity=100 time=0
EXTRACT: note_off channel=0 note=54 velocity=0 time=0.07142849999999999
EXTRACT: note_off channel=4 note=66 velocity=0 time=0.023809499999999997
EXTRACT: note_off channel=9 note=42 velocity=0 time=0.0327380625
EXTRACT: note_off channel=12 note=66 velocity=0 time=0.008928562499999999
EXTRACT: note_on channel=0 note=56 velocity=100 time=0.005952374999999999
EXTRACT: note_off channel=6 note=56 velocity=0 time=0
EXTRACT: note_on channel=6 note=56 velocity=100 time=0
EXTRACT: note_on channel=12 note=63 velocity=100 time=0
EXTRACT: note_on channel=9 note=38 velocity=100 time=0.14285699999999998
EXTRACT: note_off channel=2 note=32 velocity=0 time=0
EXTRACT: note_on channel=2 note=30 velocity=100 time=0
EXTRACT: control_change channel=4 control=10 value=104 time=0
EXTRACT: note_on channel=4 note=68 velocity=100 time=0
EXTRACT: note_off channel=12 note=63 velocity=0 time=0
EXTRACT: note_on channel=12 note=63 velocity=100 time=0
EXTRACT: note_off channel=0 note=56 velocity=0 time=0.0446428125
EXTRACT: note_off channel=4 note=68 velocity=0 time=0.0744046875
EXTRACT: note_off channel=9 note=38 velocity=0 time=0.008928562499999999
EXTRACT: note_on channel=0 note=56 velocity=100 time=0.014880937499999998
EXTRACT: note_off channel=12 note=63 velocity=0 time=0
EXTRACT: note_on channel=12 note=61 velocity=100 time=0
EXTRACT: note_off channel=12 note=61 velocity=0 time=0.11904749999999999
EXTRACT: note_on channel=9 note=35 velocity=100 time=0.023809499999999997
EXTRACT: note_on channel=9 note=36 velocity=100 time=0
EXTRACT: note_on channel=9 note=42 velocity=100 time=0
EXTRACT: note_off channel=2 note=30 velocity=0 time=0
EXTRACT: note_on channel=2 note=30 velocity=80 time=0
EXTRACT: note_off channel=6 note=56 velocity=0 time=0
EXTRACT: note_on channel=6 note=61 velocity=100 time=0
EXTRACT: note_on channel=11 note=66 velocity=68 time=0
EXTRACT: note_on channel=12 note=61 velocity=100 time=0
EXTRACT: note_off channel=0 note=56 velocity=0 time=0.0446428125
EXTRACT: note_off channel=11 note=66 velocity=0 time=0.026785687499999995
EXTRACT: note_off channel=12 note=61 velocity=0 time=0.047618999999999995
EXTRACT: note_off channel=9 note=35 velocity=0 time=0.008928562499999999
EXTRACT: note_off channel=9 note=36 velocity=0 time=0
EXTRACT: note_off channel=9 note=42 velocity=0 time=0
EXTRACT: note_on channel=0 note=56 velocity=100 time=0.014880937499999998
EXTRACT: control_change channel=4 control=10 value=33 time=0
EXTRACT: note_on channel=4 note=63 velocity=100 time=0
EXTRACT: note_on channel=11 note=63 velocity=68 time=0
EXTRACT: note_on channel=12 note=58 velocity=100 time=0
EXTRACT: note_off channel=11 note=63 velocity=0 time=0.07142849999999999
EXTRACT: note_off channel=0 note=56 velocity=0 time=0.038690437499999994
EXTRACT: note_off channel=4 note=63 velocity=0 time=0.008928562499999999
EXTRACT: note_on channel=0 note=54 velocity=100 time=0.023809499999999997
EXTRACT: note_on channel=9 note=35 velocity=100 time=0
EXTRACT: note_on channel=9 note=36 velocity=100 time=0
EXTRACT: note_off channel=2 note=30 velocity=0 time=0
EXTRACT: note_on channel=2 note=29 velocity=100 time=0
EXTRACT: note_off channel=6 note=61 velocity=0 time=0
EXTRACT: note_on channel=6 note=56 velocity=100 time=0
EXTRACT: note_on channel=11 note=66 velocity=68 time=0
EXTRACT: note_off channel=12 note=58 velocity=0 time=0
EXTRACT: note_on channel=12 note=56 velocity=100 time=0
EXTRACT: note_off channel=11 note=66 velocity=0 time=0.07142849999999999
EXTRACT: note_off channel=9 note=35 velocity=0 time=0.056547562499999995
EXTRACT: note_off channel=9 note=36 velocity=0 time=0
EXTRACT: note_off channel=6 note=56 velocity=0 time=0.014880937499999998
EXTRACT: note_on channel=6 note=54 velocity=100 time=0
EXTRACT: note_on channel=11 note=63 velocity=68 time=0
EXTRACT: note_off channel=11 note=63 velocity=0 time=0.07142849999999999
EXTRACT: note_off channel=0 note=54 velocity=0 time=0.026785687499999995
EXTRACT: note_off channel=12 note=56 velocity=0 time=0.014880937499999998
EXTRACT: note_on channel=9 note=38 velocity=100 time=0.029761874999999997
EXTRACT: note_on channel=9 note=42 velocity=100 time=0
EXTRACT: note_off channel=2 note=29 velocity=0 time=0
EXTRACT: note_on channel=2 note=29 velocity=80 time=0
EXTRACT: control_change channel=4 control=10 value=95 time=0
EXTRACT: note_on channel=4 note=66 velocity=100 time=0
EXTRACT: note_on channel=11 note=66 velocity=68 time=0
EXTRACT: note_off channel=11 note=66 velocity=0 time=0.07142849999999999
EXTRACT: note_off channel=4 note=66 velocity=0 time=0.023809499999999997
EXTRACT: note_off channel=9 note=38 velocity=0 time=0.0327380625
EXTRACT: note_off channel=9 note=42 velocity=0 time=0
EXTRACT: note_on channel=0 note=56 velocity=100 time=0.014880937499999998
EXTRACT: note_on channel=11 note=63 velocity=89 time=0
EXTRACT: note_off channel=11 note=63 velocity=0 time=0.07142849999999999
EXTRACT: note_off channel=0 note=56 velocity=0 time=0.07142849999999999
EXTRACT: note_on channel=9 note=38 velocity=100 time=0
EXTRACT: note_off channel=2 note=29 velocity=0 time=0
EXTRACT: note_on channel=2 note=27 velocity=100 time=0
EXTRACT: note_on channel=3 note=56 velocity=100 time=0
EXTRACT: control_change channel=4 control=10 value=33 time=0
EXTRACT: note_on channel=4 note=68 velocity=100 time=0
EXTRACT: note_on channel=11 note=66 velocity=100 time=0
EXTRACT: note_off channel=11 note=66 velocity=0 time=0.07142849999999999
EXTRACT: note_off channel=9 note=38 velocity=0 time=0.056547562499999995
EXTRACT: note_off channel=6 note=54 velocity=0 time=0.0029761874999999997
EXTRACT: note_off channel=3 note=56 velocity=0 time=0.005952374999999999
EXTRACT: note_on channel=0 note=56 velocity=100 time=0.005952374999999999
EXTRACT: note_on channel=3 note=54 velocity=100 time=0
EXTRACT: note_off channel=4 note=68 velocity=0 time=0
EXTRACT: control_change channel=4 control=10 value=95 time=0
EXTRACT: note_on channel=4 note=71 velocity=100 time=0
EXTRACT: note_on channel=11 note=68 velocity=100 time=0
EXTRACT: note_off channel=0 note=56 velocity=0 time=0.14285699999999998
EXTRACT: note_on channel=9 note=42 velocity=100 time=0
EXTRACT: note_on channel=9 note=49 velocity=60 time=0
EXTRACT: note_off channel=2 note=27 velocity=0 time=0
EXTRACT: note_on channel=2 note=27 velocity=80 time=0
EXTRACT: note_off channel=3 note=54 velocity=0 time=0
EXTRACT: note_on channel=3 note=56 velocity=100 time=0
EXTRACT: note_off channel=4 note=71 velocity=0 time=0.0208333125
EXTRACT: note_off channel=9 note=42 velocity=0 time=0.10714274999999998
EXTRACT: note_off channel=9 note=49 velocity=0 time=0
EXTRACT: note_on channel=0 note=56 velocity=100 time=0.014880937499999998
EXTRACT: note_off channel=3 note=56 velocity=0 time=0
EXTRACT: note_on channel=3 note=56 velocity=100 time=0
EXTRACT: note_off channel=0 note=56 velocity=0 time=0.1279760625
EXTRACT: note_on channel=0 note=54 velocity=100 time=0.014880937499999998
EXTRACT: note_on channel=9 note=35 velocity=100 time=0
EXTRACT: note_on channel=9 note=36 velocity=100 time=0
EXTRACT: note_on channel=2 note=32 velocity=100 time=0
EXTRACT: control_change channel=4 control=10 value=24 time=0
EXTRACT: note_on channel=10 note=68 velocity=100 time=0
EXTRACT: note_on channel=6 note=63 velocity=100 time=0.005952374999999999
EXTRACT: note_off channel=10 note=66 velocity=0 time=0.014880937499999998
EXTRACT: note_off channel=0 note=54 velocity=0 time=0.05059518749999999
EXTRACT: note_off channel=9 note=35 velocity=0 time=0.056547562499999995
EXTRACT: note_off channel=9 note=36 velocity=0 time=0
EXTRACT: note_on channel=0 note=54 velocity=100 time=0.014880937499999998
EXTRACT: note_off channel=2 note=27 velocity=0 time=0.038690437499999994
EXTRACT: note_off channel=0 note=54 velocity=0 time=0.0327380625
EXTRACT: note_off channel=3 note=56 velocity=0 time=0.017857124999999998
EXTRACT: note_on channel=0 note=54 velocity=100 time=0.05357137499999999
EXTRACT: note_on channel=9 note=42 velocity=100 time=0
EXTRACT: control_change channel=1 control=10 value=0 time=0
EXTRACT: note_on channel=1 note=68 velocity=100 time=0
EXTRACT: control_change channel=4 control=10 value=104 time=0
EXTRACT: note_on channel=4 note=66 velocity=100 time=0
EXTRACT: note_off channel=0 note=54 velocity=0 time=0.07142849999999999
EXTRACT: note_off channel=4 note=66 velocity=0 time=0.023809499999999997
EXTRACT: note_off channel=9 note=42 velocity=0 time=0.0327380625
EXTRACT: note_on channel=0 note=56 velocity=100 time=0.014880937499999998
EXTRACT: note_off channel=2 note=32 velocity=0 time=0.038690437499999994
EXTRACT: note_off channel=6 note=63 velocity=0 time=0.0982141875
EXTRACT: note_on channel=9 note=38 velocity=100 time=0.005952374999999999
EXTRACT: note_on channel=4 note=68 velocity=100 time=0
EXTRACT: note_off channel=1 note=68 velocity=0 time=0.0208333125
EXTRACT: note_off channel=0 note=56 velocity=0 time=0.023809499999999997
EXTRACT: note_off channel=11 note=68 velocity=0 time=0.056547562499999995
EXTRACT: note_off channel=4 note=68 velocity=0 time=0.017857124999999998
EXTRACT: note_off channel=9 note=38 velocity=0 time=0.008928562499999999
EXTRACT: note_on channel=0 note=56 velocity=100 time=0.014880937499999998
EXTRACT: control_change channel=4 control=10 value=33 time=0
EXTRACT: note_on channel=9 note=42 velocity=100 time=0.14285699999999998
EXTRACT: control_change channel=1 control=10 value=127 time=0
EXTRACT: note_on channel=1 note=68 velocity=100 time=0
EXTRACT: note_off channel=0 note=56 velocity=0 time=0.0446428125
EXTRACT: note_off channel=9 note=42 velocity=0 time=0.08333325
EXTRACT: note_on channel=0 note=56 velocity=100 time=0.014880937499999998
EXTRACT: note_on channel=4 note=63 velocity=100 time=0
EXTRACT: note_on channel=6 note=63 velocity=100 time=0
EXTRACT: note_on channel=11 note=68 velocity=100 time=0
EXTRACT: note_on channel=2 note=31 velocity=100 time=0.07142849999999999
EXTRACT: note_off channel=0 note=56 velocity=0 time=0.038690437499999994
EXTRACT: note_off channel=4 note=63 velocity=0 time=0.008928562499999999
EXTRACT: note_on channel=0 note=54 velocity=100 time=0.023809499999999997
EXTRACT: note_on channel=9 note=35 velocity=100 time=0
EXTRACT: note_on channel=9 note=36 velocity=100 time=0
EXTRACT: note_off channel=2 note=31 velocity=0 time=0
EXTRACT: note_on channel=2 note=32 velocity=100 time=0
EXTRACT: control_change channel=4 control=10 value=95 time=0
EXTRACT: note_on channel=11 note=66 velocity=100 time=0
EXTRACT: note_off channel=11 note=68 velocity=0 time=0.0446428125
EXTRACT: note_off channel=9 note=35 velocity=0 time=0.08333325
EXTRACT: note_off channel=9 note=36 velocity=0 time=0
EXTRACT: note_off channel=1 note=68 velocity=0 time=0.008928562499999999
EXTRACT: note_off channel=6 note=63 velocity=0 time=0.005952374999999999
EXTRACT: note_on channel=6 note=63 velocity=100 time=0
EXTRACT: note_off channel=0 note=54 velocity=0 time=0.0982141875
EXTRACT: note_on channel=9 note=42 velocity=100 time=0.0446428125
EXTRACT: control_change channel=4 control=10 value=33 time=0
EXTRACT: note_on channel=4 note=66 velocity=100 time=0
EXTRACT: note_off channel=6 note=63 velocity=0 time=0
EXTRACT: note_on channel=6 note=61 velocity=100 time=0
EXTRACT: note_off channel=4 note=66 velocity=0 time=0.09523799999999999
EXTRACT: note_off channel=9 note=42 velocity=0 time=0.0327380625
EXTRACT: note_off channel=2 note=32 velocity=0 time=0.011904749999999999
EXTRACT: note_on channel=0 note=56 velocity=100 time=0.0029761874999999997
EXTRACT: control_change channel=4 control=10 value=95 time=0
EXTRACT: note_off channel=6 note=61 velocity=0 time=0
EXTRACT: note_on channel=6 note=61 velocity=100 time=0
EXTRACT: note_off channel=0 note=56 velocity=0 time=0.14285699999999998
EXTRACT: note_on channel=9 note=38 velocity=100 time=0
EXTRACT: note_on channel=3 note=56 velocity=100 time=0
EXTRACT: note_on channel=4 note=68 velocity=100 time=0
EXTRACT: note_off channel=6 note=61 velocity=0 time=0
EXTRACT: note_on channel=6 note=59 velocity=100 time=0
EXTRACT: note_off channel=9 note=38 velocity=0 time=0.1279760625
EXTRACT: note_off channel=3 note=56 velocity=0 time=0.008928562499999999
EXTRACT: note_on channel=0 note=56 velocity=100 time=0.005952374999999999
EXTRACT: note_on channel=3 note=54 velocity=100 time=0
EXTRACT: note_off channel=4 note=68 velocity=0 time=0
EXTRACT: note_on channel=4 note=71 velocity=100 time=0
EXTRACT: note_off channel=0 note=56 velocity=0 time=0.14285699999999998
EXTRACT: note_on channel=9 note=42 velocity=100 time=0
EXTRACT: note_on channel=9 note=49 velocity=60 time=0
EXTRACT: note_off channel=3 note=54 velocity=0 time=0
EXTRACT: note_on channel=3 note=56 velocity=100 time=0
EXTRACT: note_off channel=6 note=59 velocity=0 time=0
EXTRACT: note_on channel=6 note=61 velocity=100 time=0
EXTRACT: note_off channel=4 note=71 velocity=0 time=0.0208333125
EXTRACT: note_off channel=9 note=42 velocity=0 time=0.10714274999999998
EXTRACT: note_off channel=9 note=49 velocity=0 time=0
EXTRACT: note_on channel=0 note=56 velocity=100 time=0.014880937499999998
EXTRACT: note_off channel=3 note=56 velocity=0 time=0
EXTRACT: note_on channel=3 note=56 velocity=100 time=0
EXTRACT: note_off channel=11 note=66 velocity=0 time=0.10119037499999999
EXTRACT: note_off channel=10 note=68 velocity=0 time=0.014880937499999998
EXTRACT: note_off channel=0 note=56 velocity=0 time=0.011904749999999999
EXTRACT: note_off channel=6 note=61 velocity=0 time=0.0029761874999999997
EXTRACT: note_on channel=6 note=63 velocity=100 time=0
EXTRACT: note_on channel=0 note=54 velocity=100 time=0.011904749999999999
EXTRACT: note_on channel=9 note=35 velocity=100 time=0
EXTRACT: note_on channel=9 note=36 velocity=100 time=0
EXTRACT: note_on channel=2 note=32 velocity=100 time=0
EXTRACT: control_change channel=4 control=10 value=24 time=0
EXTRACT: note_on channel=10 note=66 velocity=100 time=0
EXTRACT: note_off channel=0 note=54 velocity=0 time=0.07142849999999999
EXTRACT: note_off channel=9 note=35 velocity=0 time=0.056547562499999995
EXTRACT: note_off channel=9 note=36 velocity=0 time=0
EXTRACT: note_on channel=0 note=54 velocity=100 time=0.014880937499999998
EXTRACT: note_off channel=0 note=54 velocity=0 time=0.07142849999999999
EXTRACT: note_off channel=3 note=56 velocity=0 time=0.017857124999999998
EXTRACT: note_on channel=0 note=54 velocity=100 time=0.05357137499999999
EXTRACT: note_on channel=9 note=42 velocity=100 time=0
EXTRACT: control_change channel=4 control=10 value=104 time=0
EXTRACT: note_on channel=4 note=66 velocity=100 time=0
EXTRACT: note_off channel=0 note=54 velocity=0 time=0.07142849999999999
EXTRACT: note_off channel=4 note=66 velocity=0 time=0.023809499999999997
EXTRACT: note_off channel=9 note=42 velocity=0 time=0.0327380625
EXTRACT: note_on channel=0 note=56 velocity=100 time=0.014880937499999998
EXTRACT: note_off channel=2 note=32 velocity=0 time=0.038690437499999994
EXTRACT: note_off channel=6 note=63 velocity=0 time=0.08035706249999999
EXTRACT: note_on channel=9 note=38 velocity=100 time=0.023809499999999997
EXTRACT: note_on channel=4 note=68 velocity=100 time=0
EXTRACT: note_off channel=0 note=56 velocity=0 time=0.0446428125
EXTRACT: note_off channel=4 note=68 velocity=0 time=0.0744046875
EXTRACT: note_off channel=9 note=38 velocity=0 time=0.008928562499999999
EXTRACT: note_on channel=0 note=56 velocity=100 time=0.014880937499999998
EXTRACT: control_change channel=4 control=10 value=33 time=0
EXTRACT: note_on channel=9 note=42 velocity=100 time=0.14285699999999998
EXTRACT: note_on channel=6 note=63 velocity=100 time=0
EXTRACT: note_on channel=11 note=66 velocity=68 time=0
EXTRACT: note_off channel=0 note=56 velocity=0 time=0.0446428125
EXTRACT: note_off channel=11 note=66 velocity=0 time=0.026785687499999995
EXTRACT: note_off channel=9 note=42 velocity=0 time=0.056547562499999995
EXTRACT: note_on channel=0 note=56 velocity=100 time=0.014880937499999998
EXTRACT: note_on channel=4 note=63 velocity=100 time=0
EXTRACT: note_off channel=6 note=63 velocity=0 time=0
EXTRACT: note_on channel=6 note=63 velocity=100 time=0
EXTRACT: note_on channel=11 note=63 velocity=68 time=0
EXTRACT: note_on channel=2 note=31 velocity=100 time=0.07142849999999999
EXTRACT: note_off channel=11 note=63 velocity=0 time=0
EXTRACT: note_off channel=0 note=56 velocity=0 time=0.038690437499999994
EXTRACT: note_off channel=4 note=63 velocity=0 time=0.008928562499999999
EXTRACT: note_on channel=0 note=54 velocity=100 time=0.023809499999999997
EXTRACT: note_on channel=9 note=35 velocity=100 time=0
EXTRACT: note_on channel=9 note=36 velocity=100 time=0
EXTRACT: note_off channel=2 note=31 velocity=0 time=0
EXTRACT: note_on channel=2 note=32 velocity=100 time=0
EXTRACT: control_change channel=4 control=10 value=95 time=0
EXTRACT: note_on channel=11 note=66 velocity=68 time=0
EXTRACT: note_off channel=11 note=66 velocity=0 time=0.07142849999999999
EXTRACT: note_off channel=9 note=35 velocity=0 time=0.056547562499999995
EXTRACT: note_off channel=9 note=36 velocity=0 time=0
EXTRACT: note_off channel=6 note=63 velocity=0 time=0.014880937499999998
EXTRACT: note_on channel=6 note=63 velocity=100 time=0
EXTRACT: note_on channel=11 note=63 velocity=68 time=0
EXTRACT: note_off channel=11 note=63 velocity=0 time=0.07142849999999999
EXTRACT: note_off channel=0 note=54 velocity=0 time=0.026785687499999995
EXTRACT: note_on channel=9 note=42 velocity=100 time=0.0446428125
EXTRACT: control_change channel=4 control=10 value=33 time=0
EXTRACT: note_on channel=4 note=66 velocity=100 time=0
EXTRACT: note_off channel=6 note=63 velocity=0 time=0
EXTRACT: note_on channel=6 note=61 velocity=100 time=0
EXTRACT: note_on channel=11 note=66 velocity=68 time=0
EXTRACT: note_off channel=11 note=66 velocity=0 time=0.07142849999999999
EXTRACT: note_off channel=4 note=66 velocity=0 time=0.023809499999999997
EXTRACT: note_off channel=9 note=42 velocity=0 time=0.0327380625
EXTRACT: note_off channel=2 note=32 velocity=0 time=0.011904749999999999
EXTRACT: note_on channel=0 note=56 velocity=100 time=0.0029761874999999997
EXTRACT: control_change channel=4 control=10 value=95 time=0
EXTRACT: note_on channel=11 note=63 velocity=89 time=0
EXTRACT: note_off channel=11 note=63 velocity=0 time=0.07142849999999999
EXTRACT: note_off channel=0 note=56 velocity=0 time=0.07142849999999999
EXTRACT: note_on channel=9 note=38 velocity=100 time=0
EXTRACT: note_on channel=3 note=56 velocity=100 time=0
EXTRACT: note_on channel=4 note=68 velocity=100 time=0
EXTRACT: note_off channel=6 note=61 velocity=0 time=0
EXTRACT: note_on channel=6 note=59 velocity=100 time=0
EXTRACT: note_on channel=11 note=66 velocity=100 time=0
EXTRACT: note_off channel=11 note=66 velocity=0 time=0.07142849999999999
EXTRACT: note_off channel=9 note=38 velocity=0 time=0.056547562499999995
EXTRACT: note_off channel=3 note=56 velocity=0 time=0.008928562499999999
EXTRACT: note_on channel=0 note=56 velocity=100 time=0.005952374999999999
EXTRACT: note_on channel=3 note=54 velocity=100 time=0
EXTRACT: note_off channel=4 note=68 velocity=0 time=0
EXTRACT: note_on channel=4 note=71 velocity=100 time=0
EXTRACT: note_on channel=11 note=68 velocity=100 time=0
EXTRACT: note_off channel=0 note=56 velocity=0 time=0.14285699999999998
EXTRACT: note_on channel=9 note=35 velocity=100 time=0
EXTRACT: note_on channel=9 note=36 velocity=100 time=0
EXTRACT: note_on channel=9 note=42 velocity=100 time=0
EXTRACT: note_on channel=9 note=49 velocity=60 time=0
EXTRACT: note_off channel=3 note=54 velocity=0 time=0
EXTRACT: note_on channel=3 note=56 velocity=100 time=0
EXTRACT: note_off channel=6 note=59 velocity=0 time=0
EXTRACT: note_on channel=6 note=61 velocity=100 time=0
EXTRACT: note_off channel=4 note=71 velocity=0 time=0.0208333125
EXTRACT: note_off channel=9 note=35 velocity=0 time=0.10714274999999998
EXTRACT: note_off channel=9 note=36 velocity=0 time=0
EXTRACT: note_off channel=9 note=42 velocity=0 time=0
EXTRACT: note_off channel=9 note=49 velocity=0 time=0
EXTRACT: note_on channel=0 note=56 velocity=100 time=0.014880937499999998
EXTRACT: note_off channel=3 note=56 velocity=0 time=0
EXTRACT: note_on channel=3 note=56 velocity=100 time=0
EXTRACT: note_off channel=0 note=56 velocity=0 time=0.1279760625
EXTRACT: note_off channel=6 note=61 velocity=0 time=0.0029761874999999997
EXTRACT: note_on channel=6 note=63 velocity=100 time=0
EXTRACT: note_on channel=0 note=54 velocity=100 time=0.011904749999999999
EXTRACT: note_on channel=9 note=35 velocity=100 time=0
EXTRACT: note_on channel=9 note=36 velocity=100 time=0
EXTRACT: note_on channel=2 note=32 velocity=100 time=0
EXTRACT: note_on channel=10 note=68 velocity=100 time=0
EXTRACT: note_off channel=10 note=66 velocity=0 time=0.038690437499999994
EXTRACT: note_off channel=0 note=54 velocity=0 time=0.0327380625
EXTRACT: note_off channel=9 note=35 velocity=0 time=0.056547562499999995
EXTRACT: note_off channel=9 note=36 velocity=0 time=0
EXTRACT: note_on channel=0 note=54 velocity=100 time=0.014880937499999998
EXTRACT: note_off channel=0 note=54 velocity=0 time=0.07142849999999999
EXTRACT: note_off channel=3 note=56 velocity=0 time=0.017857124999999998
EXTRACT: note_on channel=0 note=54 velocity=100 time=0.05357137499999999
EXTRACT: note_on channel=9 note=42 velocity=100 time=0
EXTRACT: control_change channel=1 control=10 value=0 time=0
EXTRACT: note_on channel=1 note=68 velocity=100 time=0
EXTRACT: note_on channel=4 note=66 velocity=100 time=0
EXTRACT: note_off channel=6 note=63 velocity=0 time=0
EXTRACT: note_on channel=6 note=61 velocity=100 time=0
EXTRACT: note_on channel=6 note=68 velocity=100 time=0
EXTRACT: note_off channel=0 note=54 velocity=0 time=0.07142849999999999
EXTRACT: note_off channel=4 note=66 velocity=0 time=0.023809499999999997
EXTRACT: note_off channel=9 note=42 velocity=0 time=0.0327380625
EXTRACT: note_on channel=0 note=56 velocity=100 time=0.014880937499999998
EXTRACT: note_off channel=2 note=32 velocity=0 time=0.038690437499999994
EXTRACT: note_on channel=9 note=38 velocity=100 time=0.10416656249999999
EXTRACT: control_change channel=4 control=10 value=104 time=0
EXTRACT: note_on channel=4 note=68 velocity=100 time=0
EXTRACT: note_off channel=6 note=68 velocity=0 time=0
EXTRACT: note_on channel=6 note=68 velocity=100 time=0
EXTRACT: note_off channel=1 note=68 velocity=0 time=0.0208333125
EXTRACT: note_off channel=0 note=56 velocity=0 time=0.023809499999999997
EXTRACT: note_off channel=11 note=68 velocity=0 time=0.056547562499999995
EXTRACT: note_off channel=4 note=68 velocity=0 time=0.017857124999999998
EXTRACT: note_off channel=9 note=38 velocity=0 time=0.008928562499999999
EXTRACT: note_on channel=0 note=56 velocity=100 time=0.014880937499999998
EXTRACT: note_off channel=6 note=61 velocity=0 time=0
EXTRACT: note_on channel=6 note=59 velocity=100 time=0
EXTRACT: note_on channel=9 note=42 velocity=100 time=0.14285699999999998
EXTRACT: control_change channel=1 control=10 value=127 time=0
EXTRACT: note_on channel=1 note=68 velocity=100 time=0
EXTRACT: note_off channel=6 note=68 velocity=0 time=0
EXTRACT: note_off channel=6 note=59 velocity=0 time=0
EXTRACT: note_on channel=6 note=56 velocity=100 time=0
EXTRACT: note_on channel=6 note=68 velocity=100 time=0
EXTRACT: note_off channel=0 note=56 velocity=0 time=0.0446428125
EXTRACT: note_off channel=9 note=42 velocity=0 time=0.08333325
EXTRACT: note_on channel=0 note=56 velocity=100 time=0.014880937499999998
EXTRACT: control_change channel=4 control=10 value=33 time=0
EXTRACT: note_on channel=4 note=63 velocity=100 time=0
EXTRACT: note_on channel=11 note=68 velocity=100 time=0
EXTRACT: note_on channel=2 note=31 velocity=100 time=0.07142849999999999
EXTRACT: note_off channel=0 note=56 velocity=0 time=0.038690437499999994
EXTRACT: note_off channel=4 note=63 velocity=0 time=0.008928562499999999
EXTRACT: note_on channel=0 note=54 velocity=100 time=0.023809499999999997
EXTRACT: note_on channel=9 note=35 velocity=100 time=0
EXTRACT: note_on channel=9 note=36 velocity=100 time=0
EXTRACT: note_off channel=2 note=31 velocity=0 time=0
EXTRACT: note_on channel=2 note=32 velocity=100 time=0
EXTRACT: note_off channel=6 note=68 velocity=0 time=0
EXTRACT: note_on channel=6 note=66 velocity=100 time=0
EXTRACT: note_on channel=11 note=66 velocity=100 time=0
EXTRACT: note_off channel=11 note=68 velocity=0 time=0.0446428125
EXTRACT: note_off channel=9 note=35 velocity=0 time=0.08333325
EXTRACT: note_off channel=9 note=36 velocity=0 time=0
EXTRACT: note_off channel=1 note=68 velocity=0 time=0.008928562499999999
EXTRACT: note_off channel=6 note=66 velocity=0 time=0.005952374999999999
EXTRACT: note_on channel=6 note=68 velocity=100 time=0
EXTRACT: note_off channel=0 note=54 velocity=0 time=0.0982141875
EXTRACT: note_off channel=6 note=56 velocity=0 time=0.0327380625
EXTRACT: note_on channel=9 note=42 velocity=100 time=0.011904749999999999
EXTRACT: control_change channel=4 control=10 value=95 time=0
EXTRACT: note_on channel=4 note=66 velocity=100 time=0
EXTRACT: note_off channel=4 note=66 velocity=0 time=0.09523799999999999
EXTRACT: note_off channel=9 note=42 velocity=0 time=0.0327380625
EXTRACT: note_off channel=2 note=32 velocity=0 time=0.011904749999999999
EXTRACT: note_on channel=0 note=56 velocity=100 time=0.0029761874999999997
EXTRACT: note_off channel=6 note=68 velocity=0 time=0
EXTRACT: note_on channel=6 note=68 velocity=100 time=0
EXTRACT: note_off channel=0 note=56 velocity=0 time=0.14285699999999998
EXTRACT: note_on channel=9 note=38 velocity=100 time=0
EXTRACT: note_on channel=3 note=56 velocity=100 time=0
EXTRACT: control_change channel=4 control=10 value=33 time=0
EXTRACT: note_on channel=4 note=68 velocity=100 time=0
EXTRACT: note_off channel=9 note=38 velocity=0 time=0.1279760625
EXTRACT: note_off channel=3 note=56 velocity=0 time=0.008928562499999999
EXTRACT: note_on channel=0 note=56 velocity=100 time=0.005952374999999999
EXTRACT: note_on channel=3 note=54 velocity=100 time=0
EXTRACT: note_off channel=4 note=68 velocity=0 time=0
EXTRACT: control_change channel=4 control=10 value=95 time=0
EXTRACT: note_on channel=4 note=71 velocity=100 time=0
EXTRACT: note_off channel=0 note=56 velocity=0 time=0.14285699999999998
EXTRACT: note_on channel=9 note=42 velocity=100 time=0
EXTRACT: note_on channel=9 note=49 velocity=60 time=0
EXTRACT: note_off channel=3 note=54 velocity=0 time=0
EXTRACT: note_on channel=3 note=56 velocity=100 time=0
EXTRACT: note_off channel=6 note=68 velocity=0 time=0
EXTRACT: note_on channel=6 note=56 velocity=100 time=0
EXTRACT: note_on channel=6 note=68 velocity=100 time=0
EXTRACT: note_off channel=4 note=71 velocity=0 time=0.0208333125
EXTRACT: note_off channel=9 note=42 velocity=0 time=0.10714274999999998
EXTRACT: note_off channel=9 note=49 velocity=0 time=0
EXTRACT: note_on channel=0 note=56 velocity=100 time=0.014880937499999998
EXTRACT: note_off channel=3 note=56 velocity=0 time=0
EXTRACT: note_on channel=3 note=56 velocity=100 time=0
EXTRACT: note_off channel=6 note=68 velocity=0 time=0
EXTRACT: note_on channel=6 note=68 velocity=100 time=0
EXTRACT: note_off channel=11 note=66 velocity=0 time=0.10119037499999999
EXTRACT: note_off channel=10 note=68 velocity=0 time=0.005952374999999999
EXTRACT: note_off channel=0 note=56 velocity=0 time=0.0208333125
EXTRACT: note_on channel=0 note=54 velocity=100 time=0.014880937499999998
EXTRACT: note_on channel=9 note=35 velocity=100 time=0
EXTRACT: note_on channel=9 note=36 velocity=100 time=0
EXTRACT: note_on channel=2 note=32 velocity=100 time=0
EXTRACT: note_off channel=6 note=56 velocity=0 time=0
EXTRACT: note_off channel=6 note=68 velocity=0 time=0
EXTRACT: note_on channel=6 note=71 velocity=100 time=0
EXTRACT: note_on channel=10 note=66 velocity=100 time=0
EXTRACT: note_on channel=12 note=68 velocity=100 time=0
EXTRACT: note_off channel=0 note=54 velocity=0 time=0.07142849999999999
EXTRACT: note_off channel=9 note=35 velocity=0 time=0.056547562499999995
EXTRACT: note_off channel=9 note=36 velocity=0 time=0
EXTRACT: note_on channel=0 note=54 velocity=100 time=0.014880937499999998
EXTRACT: note_off channel=6 note=71 velocity=0 time=0
EXTRACT: note_on channel=6 note=71 velocity=100 time=0
EXTRACT: note_off channel=12 note=68 velocity=0 time=0
EXTRACT: note_on channel=12 note=68 velocity=100 time=0
EXTRACT: note_off channel=0 note=54 velocity=0 time=0.07142849999999999
EXTRACT: note_off channel=3 note=56 velocity=0 time=0.017857124999999998
EXTRACT: note_on channel=0 note=54 velocity=100 time=0.05357137499999999
EXTRACT: note_on channel=9 note=42 velocity=100 time=0
EXTRACT: note_off channel=2 note=32 velocity=0 time=0
EXTRACT: note_on channel=2 note=32 velocity=80 time=0
EXTRACT: note_off channel=6 note=71 velocity=0 time=0
EXTRACT: note_on channel=6 note=68 velocity=100 time=0
EXTRACT: note_off channel=12 note=68 velocity=0 time=0
EXTRACT: note_on channel=12 note=66 velocity=100 time=0
EXTRACT: note_off channel=0 note=54 velocity=0 time=0.07142849999999999
EXTRACT: note_off channel=9 note=42 velocity=0 time=0.056547562499999995
EXTRACT: note_off channel=12 note=66 velocity=0 time=0.008928562499999999
EXTRACT: note_on channel=0 note=56 velocity=100 time=0.005952374999999999
EXTRACT: note_on channel=12 note=63 velocity=100 time=0
EXTRACT: note_on channel=9 note=35 velocity=100 time=0.14285699999999998
EXTRACT: note_on channel=9 note=36 velocity=100 time=0
EXTRACT: note_off channel=2 note=32 velocity=0 time=0
EXTRACT: note_on channel=2 note=30 velocity=100 time=0
EXTRACT: note_off channel=6 note=68 velocity=0 time=0
EXTRACT: note_on channel=6 note=71 velocity=100 time=0
EXTRACT: note_off channel=12 note=63 velocity=0 time=0
EXTRACT: note_on channel=12 note=63 velocity=100 time=0
EXTRACT: note_off channel=0 note=56 velocity=0 time=0.0446428125
EXTRACT: note_off channel=9 note=35 velocity=0 time=0.08333325
EXTRACT: note_off channel=9 note=36 velocity=0 time=0
EXTRACT: note_on channel=0 note=56 velocity=100 time=0.014880937499999998
EXTRACT: note_off channel=12 note=63 velocity=0 time=0
EXTRACT: note_on channel=12 note=61 velocity=100 time=0
EXTRACT: note_off channel=12 note=61 velocity=0 time=0.11904749999999999
EXTRACT: note_on channel=9 note=42 velocity=100 time=0.023809499999999997
EXTRACT: note_off channel=2 note=30 velocity=0 time=0
EXTRACT: note_on channel=2 note=30 velocity=80 time=0
EXTRACT: note_off channel=6 note=71 velocity=0 time=0
EXTRACT: note_on channel=6 note=68 velocity=100 time=0
EXTRACT: note_on channel=11 note=66 velocity=68 time=0
EXTRACT: note_on channel=12 note=61 velocity=100 time=0
EXTRACT: note_off channel=0 note=56 velocity=0 time=0.0446428125
EXTRACT: note_off channel=11 note=66 velocity=0 time=0.026785687499999995
EXTRACT: note_off channel=12 note=61 velocity=0 time=0.047618999999999995
EXTRACT: note_off channel=9 note=42 velocity=0 time=0.008928562499999999
EXTRACT: note_on channel=0 note=56 velocity=100 time=0.014880937499999998
EXTRACT: note_on channel=11 note=63 velocity=68 time=0
EXTRACT: note_on channel=12 note=58 velocity=100 time=0
EXTRACT: note_off channel=11 note=63 velocity=0 time=0.07142849999999999
EXTRACT: note_off channel=0 note=56 velocity=0 time=0.038690437499999994
EXTRACT: note_on channel=0 note=54 velocity=100 time=0.0327380625
EXTRACT: note_on channel=9 note=35 velocity=100 time=0
EXTRACT: note_on channel=9 note=36 velocity=100 time=0
EXTRACT: note_off channel=2 note=30 velocity=0 time=0
EXTRACT: note_on channel=2 note=29 velocity=100 time=0
EXTRACT: note_off channel=6 note=68 velocity=0 time=0
EXTRACT: note_on channel=6 note=66 velocity=100 time=0
EXTRACT: note_on channel=11 note=66 velocity=68 time=0
EXTRACT: note_off channel=12 note=58 velocity=0 time=0
EXTRACT: note_on channel=12 note=56 velocity=100 time=0
EXTRACT: note_off channel=11 note=66 velocity=0 time=0.07142849999999999
EXTRACT: note_off channel=9 note=35 velocity=0 time=0.056547562499999995
EXTRACT: note_off channel=9 note=36 velocity=0 time=0
EXTRACT: note_off channel=6 note=66 velocity=0 time=0.014880937499999998
EXTRACT: note_on channel=6 note=68 velocity=100 time=0
EXTRACT: note_on channel=11 note=63 velocity=68 time=0
EXTRACT: note_off channel=11 note=63 velocity=0 time=0.07142849999999999
EXTRACT: note_off channel=0 note=54 velocity=0 time=0.026785687499999995
EXTRACT: note_off channel=12 note=56 velocity=0 time=0.014880937499999998
EXTRACT: note_on channel=9 note=38 velocity=100 time=0.029761874999999997
EXTRACT: note_on channel=9 note=42 velocity=100 time=0
EXTRACT: note_off channel=2 note=29 velocity=0 time=0
EXTRACT: note_on channel=2 note=29 velocity=80 time=0
EXTRACT: note_on channel=11 note=66 velocity=68 time=0
EXTRACT: note_off channel=11 note=66 velocity=0 time=0.07142849999999999
EXTRACT: note_off channel=9 note=38 velocity=0 time=0.056547562499999995
EXTRACT: note_off channel=9 note=42 velocity=0 time=0
EXTRACT: note_on channel=0 note=56 velocity=100 time=0.014880937499999998
EXTRACT: note_on channel=9 note=35 velocity=100 time=0
EXTRACT: note_on channel=9 note=36 velocity=100 time=0
EXTRACT: note_off channel=6 note=68 velocity=0 time=0
EXTRACT: note_on channel=6 note=68 velocity=100 time=0
EXTRACT: note_on channel=11 note=63 velocity=89 time=0
EXTRACT: note_off channel=11 note=63 velocity=0 time=0.07142849999999999
EXTRACT: note_off channel=9 note=35 velocity=0 time=0.056547562499999995
EXTRACT: note_off channel=9 note=36 velocity=0 time=0
EXTRACT: note_off channel=0 note=56 velocity=0 time=0.014880937499999998
EXTRACT: note_on channel=9 note=35 velocity=100 time=0
EXTRACT: note_on channel=9 note=36 velocity=100 time=0
EXTRACT: note_off channel=2 note=29 velocity=0 time=0
EXTRACT: note_on channel=2 note=27 velocity=100 time=0
EXTRACT: note_on channel=11 note=66 velocity=100 time=0
EXTRACT: note_off channel=11 note=66 velocity=0 time=0.07142849999999999
EXTRACT: note_off channel=9 note=35 velocity=0 time=0.056547562499999995
EXTRACT: note_off channel=9 note=36 velocity=0 time=0
EXTRACT: note_on channel=0 note=56 velocity=100 time=0.014880937499999998
EXTRACT: note_on channel=11 note=68 velocity=100 time=0
EXTRACT: note_off channel=0 note=56 velocity=0 time=0.14285699999999998
EXTRACT: note_on channel=9 note=38 velocity=100 time=0
EXTRACT: note_on channel=9 note=42 velocity=100 time=0
EXTRACT: note_on channel=9 note=49 velocity=60 time=0
EXTRACT: note_off channel=2 note=27 velocity=0 time=0
EXTRACT: note_on channel=2 note=27 velocity=80 time=0
EXTRACT: note_off channel=6 note=68 velocity=0 time=0
EXTRACT: note_off channel=9 note=38 velocity=0 time=0.1279760625
EXTRACT: note_off channel=9 note=42 velocity=0 time=0
EXTRACT: note_off channel=9 note=49 velocity=0 time=0
EXTRACT: note_on channel=0 note=56 velocity=100 time=0.014880937499999998
EXTRACT: note_off channel=0 note=56 velocity=0 time=0.1279760625
EXTRACT: note_on channel=2 note=32 velocity=100 time=0.014880937499999998
EXTRACT: control_change channel=4 control=10 value=64 time=0
EXTRACT: note_on channel=4 note=30 velocity=42 time=0
EXTRACT: note_off channel=10 note=66 velocity=0 time=0.0208333125
EXTRACT: note_off channel=4 note=30 velocity=0 time=0.05059518749999999
EXTRACT: note_on channel=4 note=30 velocity=55 time=0.07142849999999999
EXTRACT: note_off channel=2 note=27 velocity=0 time=0.038690437499999994
EXTRACT: note_off channel=4 note=30 velocity=0 time=0.0327380625
EXTRACT: note_on channel=4 note=30 velocity=58 time=0.07142849999999999
EXTRACT: note_off channel=4 note=30 velocity=0 time=0.07142849999999999
EXTRACT: note_on channel=4 note=32 velocity=60 time=0.07142849999999999
EXTRACT: note_off channel=2 note=32 velocity=0 time=0.038690437499999994
EXTRACT: note_on channel=9 note=35 velocity=55 time=0.10416656249999999
EXTRACT: note_off channel=4 note=32 velocity=0 time=0.0446428125
EXTRACT: note_off channel=11 note=68 velocity=0 time=0.056547562499999995
EXTRACT: note_off channel=9 note=35 velocity=0 time=0.026785687499999995
EXTRACT: note_on channel=4 note=32 velocity=60 time=0.014880937499999998
EXTRACT: note_off channel=4 note=32 velocity=0 time=0.18749981249999997
EXTRACT: note_on channel=4 note=32 velocity=60 time=0.0982141875
EXTRACT: note_on channel=2 note=31 velocity=100 time=0.07142849999999999
EXTRACT: note_off channel=4 note=32 velocity=0 time=0.038690437499999994
EXTRACT: note_off channel=2 note=31 velocity=0 time=0.0327380625
EXTRACT: note_on channel=2 note=32 velocity=100 time=0
EXTRACT: note_on channel=4 note=30 velocity=60 time=0
EXTRACT: note_off channel=4 note=30 velocity=0 time=0.24107118749999998
EXTRACT: note_off channel=2 note=32 velocity=0 time=0.18452362499999997
EXTRACT: note_on channel=4 note=32 velocity=63 time=0.0029761874999999997
EXTRACT: note_on channel=9 note=35 velocity=52 time=0.14285699999999998
EXTRACT: note_off channel=4 note=32 velocity=0 time=0
EXTRACT: note_off channel=9 note=35 velocity=0 time=0.1279760625
EXTRACT: note_on channel=4 note=32 velocity=63 time=0.014880937499999998
EXTRACT: note_off channel=4 note=32 velocity=0 time=0.14285699999999998
EXTRACT: note_on channel=4 note=32 velocity=63 time=0.14285699999999998
EXTRACT: note_off channel=4 note=32 velocity=0 time=0.1279760625
EXTRACT: note_on channel=2 note=32 velocity=100 time=0.014880937499999998
EXTRACT: note_on channel=4 note=30 velocity=60 time=0
EXTRACT: note_off channel=4 note=30 velocity=0 time=0.07142849999999999
EXTRACT: note_on channel=4 note=30 velocity=58 time=0.07142849999999999
EXTRACT: note_off channel=4 note=30 velocity=0 time=0.07142849999999999
EXTRACT: note_on channel=4 note=30 velocity=58 time=0.07142849999999999
EXTRACT: note_off channel=4 note=30 velocity=0 time=0.07142849999999999
EXTRACT: note_on channel=4 note=32 velocity=58 time=0.07142849999999999
EXTRACT: note_off channel=2 note=32 velocity=0 time=0.038690437499999994
EXTRACT: note_on channel=9 note=35 velocity=50 time=0.10416656249999999
EXTRACT: note_off channel=4 note=32 velocity=0 time=0.0446428125
EXTRACT: note_off channel=9 note=35 velocity=0 time=0.08333325
EXTRACT: note_on channel=4 note=32 velocity=58 time=0.014880937499999998
EXTRACT: note_off channel=4 note=32 velocity=0 time=0.18749981249999997
EXTRACT: note_on channel=4 note=32 velocity=58 time=0.0982141875
EXTRACT: note_on channel=2 note=31 velocity=100 time=0.07142849999999999
EXTRACT: note_off channel=4 note=32 velocity=0 time=0.038690437499999994
EXTRACT: note_off channel=2 note=31 velocity=0 time=0.0327380625
EXTRACT: note_on channel=2 note=32 velocity=100 time=0
EXTRACT: note_on channel=4 note=30 velocity=58 time=0
EXTRACT: note_off channel=4 note=30 velocity=0 time=0.24107118749999998
EXTRACT: note_off channel=2 note=32 velocity=0 time=0.18452362499999997
EXTRACT: note_on channel=4 note=32 velocity=63 time=0.0029761874999999997
EXTRACT: note_on channel=9 note=35 velocity=50 time=0.14285699999999998
EXTRACT: note_off channel=4 note=32 velocity=0 time=0
EXTRACT: note_off channel=9 note=35 velocity=0 time=0.1279760625
EXTRACT: note_on channel=4 note=32 velocity=63 time=0.014880937499999998
EXTRACT: note_off channel=4 note=32 velocity=0 time=0.14285699999999998
EXTRACT: note_on channel=4 note=32 velocity=63 time=0.14285699999999998
EXTRACT: note_off channel=4 note=32 velocity=0 time=0.1279760625
EXTRACT: note_on channel=0 note=54 velocity=29 time=0.014880937499999998
EXTRACT: note_on channel=2 note=32 velocity=100 time=0
EXTRACT: note_on channel=4 note=30 velocity=63 time=0
EXTRACT: note_off channel=0 note=54 velocity=0 time=0.07142849999999999
EXTRACT: note_off channel=4 note=30 velocity=0 time=0
EXTRACT: note_on channel=0 note=54 velocity=31 time=0.07142849999999999
EXTRACT: note_on channel=4 note=30 velocity=63 time=0
EXTRACT: note_off channel=0 note=54 velocity=0 time=0.07142849999999999
EXTRACT: note_off channel=4 note=30 velocity=0 time=0
EXTRACT: note_on channel=0 note=54 velocity=34 time=0.07142849999999999
EXTRACT: note_on channel=4 note=30 velocity=63 time=0
EXTRACT: note_off channel=0 note=54 velocity=0 time=0.07142849999999999
EXTRACT: note_off channel=4 note=30 velocity=0 time=0
EXTRACT: note_on channel=0 note=56 velocity=44 time=0.07142849999999999
EXTRACT: note_on channel=4 note=32 velocity=68 time=0
EXTRACT: note_off channel=2 note=32 velocity=0 time=0.038690437499999994
EXTRACT: note_on channel=9 note=35 velocity=50 time=0.10416656249999999
EXTRACT: note_off channel=0 note=56 velocity=0 time=0.0446428125
EXTRACT: note_off channel=4 note=32 velocity=0 time=0
EXTRACT: note_off channel=9 note=35 velocity=0 time=0.08333325
EXTRACT: note_on channel=0 note=56 velocity=47 time=0.014880937499999998
EXTRACT: note_on channel=4 note=32 velocity=76 time=0
EXTRACT: note_off channel=0 note=56 velocity=0 time=0.18749981249999997
EXTRACT: note_off channel=4 note=32 velocity=0 time=0
EXTRACT: note_on channel=0 note=56 velocity=47 time=0.0982141875
EXTRACT: note_on channel=4 note=32 velocity=79 time=0
EXTRACT: note_on channel=2 note=31 velocity=100 time=0.07142849999999999
EXTRACT: note_off channel=0 note=56 velocity=0 time=0.038690437499999994
EXTRACT: note_off channel=4 note=32 velocity=0 time=0
EXTRACT: note_on channel=0 note=54 velocity=50 time=0.0327380625
EXTRACT: note_off channel=2 note=31 velocity=0 time=0
EXTRACT: note_on channel=2 note=32 velocity=100 time=0
EXTRACT: note_on channel=4 note=30 velocity=84 time=0
EXTRACT: note_off channel=0 note=54 velocity=0 time=0.24107118749999998
EXTRACT: note_off channel=4 note=30 velocity=0 time=0
EXTRACT: note_off channel=2 note=32 velocity=0 time=0.18452362499999997
EXTRACT: note_on channel=0 note=56 velocity=58 time=0.0029761874999999997
EXTRACT: note_on channel=4 note=32 velocity=95 time=0
EXTRACT: note_off channel=0 note=56 velocity=0 time=0.14285699999999998
EXTRACT: note_on channel=9 note=35 velocity=52 time=0
EXTRACT: note_off channel=4 note=32 velocity=0 time=0
EXTRACT: note_off channel=9 note=35 velocity=0 time=0.1279760625
EXTRACT: note_on channel=0 note=56 velocity=60 time=0.014880937499999998
EXTRACT: note_on channel=4 note=32 velocity=100 time=0
EXTRACT: note_off channel=0 note=56 velocity=0 time=0.14285699999999998
EXTRACT: note_off channel=4 note=32 velocity=0 time=0
EXTRACT: note_on channel=0 note=56 velocity=66 time=0.14285699999999998
EXTRACT: note_on channel=4 note=32 velocity=100 time=0
EXTRACT: note_off channel=0 note=56 velocity=0 time=0.1279760625
EXTRACT: note_off channel=4 note=32 velocity=0 time=0
EXTRACT: note_on channel=0 note=54 velocity=68 time=0.014880937499999998
EXTRACT: note_off channel=0 note=54 velocity=0 time=0.07142849999999999
EXTRACT: note_on channel=0 note=54 velocity=68 time=0.07142849999999999
EXTRACT: note_off channel=0 note=54 velocity=0 time=0.07142849999999999
EXTRACT: note_on channel=0 note=54 velocity=71 time=0.07142849999999999
EXTRACT: note_off channel=0 note=54 velocity=0 time=0.07142849999999999
EXTRACT: note_on channel=0 note=56 velocity=74 time=0.07142849999999999
EXTRACT: note_off channel=0 note=56 velocity=0 time=0.18749981249999997
EXTRACT: note_on channel=0 note=56 velocity=76 time=0.0982141875
EXTRACT: note_off channel=0 note=56 velocity=0 time=0.18749981249999997
EXTRACT: note_on channel=0 note=56 velocity=76 time=0.0982141875
EXTRACT: note_off channel=0 note=56 velocity=0 time=0.11011893749999999
EXTRACT: note_on channel=0 note=54 velocity=76 time=0.0327380625
EXTRACT: note_off channel=0 note=54 velocity=0 time=0.24107118749999998
EXTRACT: note_on channel=9 note=35 velocity=100 time=0.0446428125
EXTRACT: note_on channel=9 note=36 velocity=100 time=0
EXTRACT: note_off channel=9 note=35 velocity=0 time=0.1279760625
EXTRACT: note_off channel=9 note=36 velocity=0 time=0
EXTRACT: note_on channel=0 note=56 velocity=76 time=0.014880937499999998
EXTRACT: note_off channel=0 note=56 velocity=0 time=0.14285699999999998
EXTRACT: note_on channel=9 note=38 velocity=100 time=0
EXTRACT: note_on channel=6 note=73 velocity=100 time=0
EXTRACT: note_off channel=9 note=38 velocity=0 time=0.1279760625
EXTRACT: note_on channel=0 note=56 velocity=95 time=0.014880937499999998
EXTRACT: note_off channel=0 note=56 velocity=0 time=0.14285699999999998
EXTRACT: note_on channel=0 note=56 velocity=97 time=0.14285699999999998
EXTRACT: note_off channel=6 note=73 velocity=0 time=0
EXTRACT: note_off channel=0 note=56 velocity=0 time=0.1279760625
EXTRACT: note_on channel=0 note=54 velocity=100 time=0.014880937499999998
EXTRACT: note_on channel=9 note=35 velocity=100 time=0
EXTRACT: note_on channel=9 note=36 velocity=100 time=0
EXTRACT: note_on channel=2 note=32 velocity=100 time=0
EXTRACT: note_off channel=0 note=54 velocity=0 time=0.07142849999999999
EXTRACT: note_off channel=9 note=35 velocity=0 time=0.056547562499999995
EXTRACT: note_off channel=9 note=36 velocity=0 time=0
EXTRACT: note_on channel=0 note=54 velocity=100 time=0.014880937499999998
EXTRACT: note_off channel=0 note=54 velocity=0 time=0.07142849999999999
EXTRACT: note_on channel=0 note=54 velocity=100 time=0.07142849999999999
EXTRACT: note_on channel=9 note=42 velocity=100 time=0
EXTRACT: note_off channel=0 note=54 velocity=0 time=0.07142849999999999
EXTRACT: note_off channel=9 note=42 velocity=0 time=0.056547562499999995
EXTRACT: note_on channel=0 note=56 velocity=100 time=0.014880937499999998
EXTRACT: note_off channel=2 note=32 velocity=0 time=0.038690437499999994
EXTRACT: note_on channel=9 note=38 velocity=100 time=0.10416656249999999
EXTRACT: note_off channel=0 note=56 velocity=0 time=0.0446428125
EXTRACT: note_off channel=9 note=38 velocity=0 time=0.08333325
EXTRACT: note_on channel=0 note=56 velocity=100 time=0.014880937499999998
EXTRACT: note_on channel=9 note=42 velocity=100 time=0.14285699999999998
EXTRACT: note_off channel=0 note=56 velocity=0 time=0.0446428125
EXTRACT: note_off channel=9 note=42 velocity=0 time=0.08333325
EXTRACT: note_on channel=0 note=56 velocity=100 time=0.014880937499999998
EXTRACT: note_on channel=11 note=68 velocity=100 time=0
EXTRACT: note_on channel=2 note=31 velocity=100 time=0.07142849999999999
EXTRACT: note_off channel=0 note=56 velocity=0 time=0.038690437499999994
EXTRACT: note_on channel=0 note=54 velocity=100 time=0.0327380625
EXTRACT: note_on channel=9 note=35 velocity=100 time=0
EXTRACT: note_on channel=9 note=36 velocity=100 time=0
EXTRACT: note_off channel=2 note=31 velocity=0 time=0
EXTRACT: note_on channel=2 note=32 velocity=100 time=0
EXTRACT: note_on channel=11 note=66 velocity=100 time=0
EXTRACT: note_off channel=11 note=68 velocity=0 time=0.0446428125
EXTRACT: note_off channel=9 note=35 velocity=0 time=0.08333325
EXTRACT: note_off channel=9 note=36 velocity=0 time=0
EXTRACT: note_off channel=0 note=54 velocity=0 time=0.11309512499999999
EXTRACT: note_on channel=9 note=42 velocity=100 time=0.0446428125
EXTRACT: note_off channel=9 note=42 velocity=0 time=0.1279760625
EXTRACT: note_off channel=2 note=32 velocity=0 time=0.011904749999999999
EXTRACT: note_on channel=0 note=56 velocity=100 time=0.0029761874999999997
EXTRACT: note_off channel=0 note=56 velocity=0 time=0.14285699999999998
EXTRACT: note_on channel=9 note=38 velocity=100 time=0
EXTRACT: note_on channel=3 note=56 velocity=100 time=0
EXTRACT: note_off channel=9 note=38 velocity=0 time=0.1279760625
EXTRACT: note_off channel=3 note=56 velocity=0 time=0.008928562499999999
EXTRACT: note_on channel=0 note=56 velocity=100 time=0.005952374999999999
EXTRACT: note_on channel=3 note=54 velocity=100 time=0
EXTRACT: note_off channel=0 note=56 velocity=0 time=0.14285699999999998
EXTRACT: note_on channel=9 note=42 velocity=100 time=0
EXTRACT: note_on channel=9 note=49 velocity=60 time=0
EXTRACT: note_off channel=3 note=54 velocity=0 time=0
EXTRACT: note_on channel=3 note=56 velocity=100 time=0
EXTRACT: note_off channel=9 note=42 velocity=0 time=0.1279760625
EXTRACT: note_off channel=9 note=49 velocity=0 time=0
EXTRACT: note_on channel=0 note=56 velocity=100 time=0.014880937499999998
EXTRACT: note_off channel=3 note=56 velocity=0 time=0
EXTRACT: note_on channel=3 note=56 velocity=100 time=0
EXTRACT: note_off channel=11 note=66 velocity=0 time=0.10119037499999999
EXTRACT: note_off channel=0 note=56 velocity=0 time=0.026785687499999995
EXTRACT: note_on channel=0 note=54 velocity=100 time=0.014880937499999998
EXTRACT: note_on channel=9 note=35 velocity=100 time=0
EXTRACT: note_on channel=9 note=36 velocity=100 time=0
EXTRACT: note_on channel=2 note=32 velocity=100 time=0
EXTRACT: note_off channel=0 note=54 velocity=0 time=0.07142849999999999
EXTRACT: note_off channel=9 note=35 velocity=0 time=0.056547562499999995
EXTRACT: note_off channel=9 note=36 velocity=0 time=0
EXTRACT: note_on channel=0 note=54 velocity=100 time=0.014880937499999998
EXTRACT: note_off channel=0 note=54 velocity=0 time=0.07142849999999999
EXTRACT: note_off channel=3 note=56 velocity=0 time=0.017857124999999998
EXTRACT: note_on channel=0 note=54 velocity=100 time=0.05357137499999999
EXTRACT: note_on channel=9 note=42 velocity=100 time=0
EXTRACT: note_off channel=0 note=54 velocity=0 time=0.07142849999999999
EXTRACT: note_off channel=9 note=42 velocity=0 time=0.056547562499999995
EXTRACT: note_on channel=0 note=56 velocity=100 time=0.014880937499999998
EXTRACT: note_off channel=2 note=32 velocity=0 time=0.038690437499999994
EXTRACT: note_on channel=9 note=38 velocity=100 time=0.10416656249999999
EXTRACT: note_off channel=0 note=56 velocity=0 time=0.0446428125
EXTRACT: note_off channel=9 note=38 velocity=0 time=0.08333325
EXTRACT: note_on channel=0 note=56 velocity=100 time=0.014880937499999998
EXTRACT: note_on channel=9 note=42 velocity=100 time=0.14285699999999998
EXTRACT: note_on channel=5 note=66 velocity=34 time=0
EXTRACT: note_on channel=11 note=66 velocity=68 time=0
EXTRACT: note_off channel=0 note=56 velocity=0 time=0.0446428125
EXTRACT: note_off channel=5 note=66 velocity=0 time=0.026785687499999995
EXTRACT: note_off channel=11 note=66 velocity=0 time=0
EXTRACT: note_off channel=9 note=42 velocity=0 time=0.056547562499999995
EXTRACT: note_on channel=0 note=56 velocity=100 time=0.014880937499999998
EXTRACT: note_on channel=5 note=63 velocity=34 time=0
EXTRACT: note_on channel=11 note=63 velocity=68 time=0
EXTRACT: note_off channel=5 note=63 velocity=0 time=0.07142849999999999
EXTRACT: note_off channel=11 note=63 velocity=0 time=0
EXTRACT: note_off channel=0 note=56 velocity=0 time=0.038690437499999994
EXTRACT: note_on channel=0 note=54 velocity=100 time=0.0327380625
EXTRACT: note_on channel=9 note=35 velocity=100 time=0
EXTRACT: note_on channel=9 note=36 velocity=100 time=0
EXTRACT: note_on channel=2 note=32 velocity=100 time=0
EXTRACT: note_on channel=5 note=66 velocity=34 time=0
EXTRACT: note_on channel=11 note=66 velocity=68 time=0
EXTRACT: note_off channel=5 note=66 velocity=0 time=0.07142849999999999
EXTRACT: note_off channel=11 note=66 velocity=0 time=0
EXTRACT: note_off channel=9 note=35 velocity=0 time=0.056547562499999995
EXTRACT: note_off channel=9 note=36 velocity=0 time=0
EXTRACT: note_off channel=2 note=32 velocity=0 time=0.014880937499999998
EXTRACT: note_on channel=5 note=63 velocity=34 time=0
EXTRACT: note_on channel=11 note=63 velocity=68 time=0
EXTRACT: note_off channel=5 note=63 velocity=0 time=0.07142849999999999
EXTRACT: note_off channel=11 note=63 velocity=0 time=0
EXTRACT: note_off channel=0 note=54 velocity=0 time=0.026785687499999995
EXTRACT: note_on channel=9 note=35 velocity=100 time=0.0446428125
EXTRACT: note_on channel=9 note=36 velocity=100 time=0
EXTRACT: note_on channel=2 note=32 velocity=76 time=0
EXTRACT: note_on channel=5 note=66 velocity=34 time=0
EXTRACT: note_on channel=11 note=66 velocity=68 time=0
EXTRACT: note_off channel=5 note=66 velocity=0 time=0.07142849999999999
EXTRACT: note_off channel=11 note=66 velocity=0 time=0
EXTRACT: note_off channel=9 note=35 velocity=0 time=0.056547562499999995
EXTRACT: note_off channel=9 note=36 velocity=0 time=0
EXTRACT: note_on channel=0 note=56 velocity=100 time=0.014880937499999998
EXTRACT: note_off channel=2 note=32 velocity=0 time=0
EXTRACT: note_on channel=2 note=32 velocity=100 time=0
EXTRACT: note_on channel=5 note=63 velocity=34 time=0
EXTRACT: note_on channel=11 note=63 velocity=89 time=0
EXTRACT: note_off channel=5 note=63 velocity=0 time=0.07142849999999999
EXTRACT: note_off channel=11 note=63 velocity=0 time=0
EXTRACT: note_off channel=0 note=56 velocity=0 time=0.07142849999999999
EXTRACT: note_on channel=9 note=35 velocity=100 time=0
EXTRACT: note_on channel=9 note=36 velocity=100 time=0
EXTRACT: note_on channel=3 note=56 velocity=100 time=0
EXTRACT: note_on channel=5 note=66 velocity=50 time=0
EXTRACT: note_on channel=11 note=66 velocity=100 time=0
EXTRACT: note_off channel=5 note=66 velocity=0 time=0.07142849999999999
EXTRACT: note_off channel=11 note=66 velocity=0 time=0
EXTRACT: note_off channel=9 note=35 velocity=0 time=0.056547562499999995
EXTRACT: note_off channel=9 note=36 velocity=0 time=0
EXTRACT: note_off channel=3 note=56 velocity=0 time=0.008928562499999999
EXTRACT: note_on channel=0 note=56 velocity=100 time=0.005952374999999999
EXTRACT: note_off channel=2 note=32 velocity=0 time=0
EXTRACT: note_on channel=2 note=32 velocity=76 time=0
EXTRACT: note_on channel=3 note=54 velocity=100 time=0
EXTRACT: note_on channel=5 note=68 velocity=50 time=0
EXTRACT: note_on channel=11 note=68 velocity=100 time=0
EXTRACT: note_off channel=0 note=56 velocity=0 time=0.14285699999999998
EXTRACT: note_on channel=9 note=35 velocity=100 time=0
EXTRACT: note_on channel=9 note=36 velocity=100 time=0
EXTRACT: note_off channel=2 note=32 velocity=0 time=0
EXTRACT: note_on channel=2 note=32 velocity=100 time=0
EXTRACT: note_off channel=3 note=54 velocity=0 time=0
EXTRACT: note_on channel=3 note=56 velocity=100 time=0
EXTRACT: note_off channel=9 note=35 velocity=0 time=0.1279760625
EXTRACT: note_off channel=9 note=36 velocity=0 time=0
EXTRACT: note_on channel=0 note=56 velocity=100 time=0.014880937499999998
EXTRACT: note_off channel=3 note=56 velocity=0 time=0
EXTRACT: note_on channel=3 note=56 velocity=100 time=0
EXTRACT: note_off channel=0 note=56 velocity=0 time=0.1279760625
EXTRACT: note_on channel=0 note=54 velocity=100 time=0.014880937499999998
EXTRACT: note_on channel=9 note=35 velocity=100 time=0
EXTRACT: note_on channel=9 note=36 velocity=100 time=0
EXTRACT: note_off channel=2 note=32 velocity=0 time=0
EXTRACT: note_on channel=2 note=32 velocity=100 time=0
EXTRACT: note_off channel=0 note=54 velocity=0 time=0.07142849999999999
EXTRACT: note_off channel=9 note=35 velocity=0 time=0.056547562499999995
EXTRACT: note_off channel=9 note=36 velocity=0 time=0
EXTRACT: note_on channel=0 note=54 velocity=100 time=0.014880937499999998
EXTRACT: note_off channel=0 note=54 velocity=0 time=0.07142849999999999
EXTRACT: note_off channel=3 note=56 velocity=0 time=0.017857124999999998
EXTRACT: note_on channel=0 note=54 velocity=100 time=0.05357137499999999
EXTRACT: note_on channel=9 note=42 velocity=100 time=0
EXTRACT: note_off channel=0 note=54 velocity=0 time=0.07142849999999999
EXTRACT: note_off channel=9 note=42 velocity=0 time=0.056547562499999995
EXTRACT: note_on channel=0 note=56 velocity=100 time=0.014880937499999998
EXTRACT: note_off channel=2 note=32 velocity=0 time=0
EXTRACT: note_on channel=9 note=38 velocity=100 time=0.14285699999999998
EXTRACT: note_off channel=0 note=56 velocity=0 time=0.0446428125
EXTRACT: note_off channel=5 note=68 velocity=0 time=0.056547562499999995
EXTRACT: note_off channel=11 note=68 velocity=0 time=0
EXTRACT: note_off channel=9 note=38 velocity=0 time=0.026785687499999995
EXTRACT: note_on channel=0 note=56 velocity=100 time=0.014880937499999998
EXTRACT: note_on channel=9 note=42 velocity=100 time=0.14285699999999998
EXTRACT: note_off channel=0 note=56 velocity=0 time=0.0446428125
EXTRACT: note_off channel=9 note=42 velocity=0 time=0.08333325
EXTRACT: note_on channel=0 note=56 velocity=100 time=0.014880937499999998
EXTRACT: note_on channel=11 note=68 velocity=100 time=0
EXTRACT: note_on channel=2 note=31 velocity=100 time=0.07142849999999999
EXTRACT: note_off channel=0 note=56 velocity=0 time=0.038690437499999994
EXTRACT: note_on channel=0 note=54 velocity=100 time=0.0327380625
EXTRACT: note_on channel=9 note=35 velocity=100 time=0
EXTRACT: note_on channel=9 note=36 velocity=100 time=0
EXTRACT: note_off channel=2 note=31 velocity=0 time=0
EXTRACT: note_on channel=2 note=32 velocity=100 time=0
EXTRACT: note_on channel=11 note=66 velocity=100 time=0
EXTRACT: note_off channel=11 note=68 velocity=0 time=0.0446428125
EXTRACT: note_off channel=9 note=35 velocity=0 time=0.08333325
EXTRACT: note_off channel=9 note=36 velocity=0 time=0
EXTRACT: note_off channel=0 note=54 velocity=0 time=0.11309512499999999
EXTRACT: note_on channel=9 note=42 velocity=100 time=0.0446428125
EXTRACT: note_off channel=9 note=42 velocity=0 time=0.1279760625
EXTRACT: note_off channel=2 note=32 velocity=0 time=0.011904749999999999
EXTRACT: note_on channel=0 note=56 velocity=100 time=0.0029761874999999997
EXTRACT: note_off channel=0 note=56 velocity=0 time=0.14285699999999998
EXTRACT: note_on channel=9 note=38 velocity=100 time=0
EXTRACT: note_on channel=3 note=56 velocity=100 time=0
EXTRACT: note_off channel=9 note=38 velocity=0 time=0.1279760625
EXTRACT: note_off channel=3 note=56 velocity=0 time=0.008928562499999999
EXTRACT: note_on channel=0 note=56 velocity=100 time=0.005952374999999999
EXTRACT: note_on channel=3 note=54 velocity=100 time=0
EXTRACT: note_off channel=0 note=56 velocity=0 time=0.14285699999999998
EXTRACT: note_on channel=9 note=42 velocity=100 time=0
EXTRACT: note_on channel=9 note=49 velocity=60 time=0
EXTRACT: note_off channel=3 note=54 velocity=0 time=0
EXTRACT: note_on channel=3 note=56 velocity=100 time=0
EXTRACT: note_off channel=9 note=42 velocity=0 time=0.1279760625
EXTRACT: note_off channel=9 note=49 velocity=0 time=0
EXTRACT: note_on channel=0 note=56 velocity=100 time=0.014880937499999998
EXTRACT: note_off channel=3 note=56 velocity=0 time=0
EXTRACT: note_on channel=3 note=56 velocity=100 time=0
EXTRACT: note_off channel=11 note=66 velocity=0 time=0.10119037499999999
EXTRACT: note_off channel=0 note=56 velocity=0 time=0.026785687499999995
EXTRACT: note_on channel=0 note=54 velocity=100 time=0.014880937499999998
EXTRACT: note_on channel=9 note=35 velocity=100 time=0
EXTRACT: note_on channel=9 note=36 velocity=100 time=0
EXTRACT: note_on channel=2 note=32 velocity=100 time=0
EXTRACT: note_off channel=0 note=54 velocity=0 time=0.07142849999999999
EXTRACT: note_off channel=9 note=35 velocity=0 time=0.056547562499999995
EXTRACT: note_off channel=9 note=36 velocity=0 time=0
EXTRACT: note_on channel=0 note=54 velocity=100 time=0.014880937499999998
EXTRACT: note_off channel=0 note=54 velocity=0 time=0.07142849999999999
EXTRACT: note_off channel=3 note=56 velocity=0 time=0.017857124999999998
EXTRACT: note_on channel=0 note=54 velocity=100 time=0.05357137499999999
EXTRACT: note_on channel=9 note=42 velocity=100 time=0
EXTRACT: note_off channel=0 note=54 velocity=0 time=0.07142849999999999
EXTRACT: note_off channel=9 note=42 velocity=0 time=0.056547562499999995
EXTRACT: note_on channel=0 note=56 velocity=100 time=0.014880937499999998
EXTRACT: note_off channel=2 note=32 velocity=0 time=0.038690437499999994
EXTRACT: note_on channel=9 note=38 velocity=100 time=0.10416656249999999
EXTRACT: note_off channel=0 note=56 velocity=0 time=0.0446428125
EXTRACT: note_off channel=9 note=38 velocity=0 time=0.08333325
EXTRACT: note_on channel=0 note=56 velocity=100 time=0.014880937499999998
EXTRACT: note_on channel=9 note=42 velocity=100 time=0.14285699999999998
EXTRACT: note_on channel=5 note=66 velocity=34 time=0
EXTRACT: note_on channel=11 note=66 velocity=68 time=0
EXTRACT: note_off channel=0 note=56 velocity=0 time=0.0446428125
EXTRACT: note_off channel=5 note=66 velocity=0 time=0.026785687499999995
EXTRACT: note_off channel=11 note=66 velocity=0 time=0
EXTRACT: note_off channel=9 note=42 velocity=0 time=0.056547562499999995
EXTRACT: note_on channel=0 note=56 velocity=100 time=0.014880937499999998
EXTRACT: note_on channel=5 note=63 velocity=34 time=0
EXTRACT: note_on channel=11 note=63 velocity=68 time=0
EXTRACT: note_off channel=5 note=63 velocity=0 time=0.07142849999999999
EXTRACT: note_off channel=11 note=63 velocity=0 time=0
EXTRACT: note_off channel=0 note=56 velocity=0 time=0.038690437499999994
EXTRACT: note_on channel=0 note=54 velocity=100 time=0.0327380625
EXTRACT: note_on channel=9 note=35 velocity=100 time=0
EXTRACT: note_on channel=9 note=36 velocity=100 time=0
EXTRACT: note_on channel=5 note=66 velocity=34 time=0
EXTRACT: note_on channel=11 note=66 velocity=68 time=0
EXTRACT: note_off channel=5 note=66 velocity=0 time=0.07142849999999999
EXTRACT: note_off channel=11 note=66 velocity=0 time=0
EXTRACT: note_off channel=9 note=35 velocity=0 time=0.056547562499999995
EXTRACT: note_off channel=9 note=36 velocity=0 time=0
EXTRACT: note_on channel=5 note=63 velocity=34 time=0.014880937499999998
EXTRACT: note_on channel=11 note=63 velocity=68 time=0
EXTRACT: note_off channel=5 note=63 velocity=0 time=0.07142849999999999
EXTRACT: note_off channel=11 note=63 velocity=0 time=0
EXTRACT: note_off channel=0 note=54 velocity=0 time=0.026785687499999995
EXTRACT: note_on channel=9 note=42 velocity=100 time=0.0446428125
EXTRACT: note_on channel=5 note=66 velocity=34 time=0
EXTRACT: note_on channel=11 note=66 velocity=68 time=0
EXTRACT: note_off channel=5 note=66 velocity=0 time=0.07142849999999999
EXTRACT: note_off channel=11 note=66 velocity=0 time=0
EXTRACT: note_off channel=9 note=42 velocity=0 time=0.056547562499999995
EXTRACT: note_on channel=0 note=56 velocity=100 time=0.014880937499999998
EXTRACT: note_on channel=5 note=63 velocity=34 time=0
EXTRACT: note_on channel=11 note=63 velocity=89 time=0
EXTRACT: note_off channel=5 note=63 velocity=0 time=0.07142849999999999
EXTRACT: note_off channel=11 note=63 velocity=0 time=0
EXTRACT: note_off channel=0 note=56 velocity=0 time=0.07142849999999999
EXTRACT: note_on channel=3 note=56 velocity=100 time=0
EXTRACT: note_on channel=5 note=66 velocity=50 time=0
EXTRACT: note_on channel=11 note=66 velocity=100 time=0
EXTRACT: note_off channel=5 note=66 velocity=0 time=0.07142849999999999
EXTRACT: note_off channel=11 note=66 velocity=0 time=0
EXTRACT: note_off channel=3 note=56 velocity=0 time=0.065476125
EXTRACT: note_on channel=0 note=56 velocity=100 time=0.005952374999999999
EXTRACT: note_on channel=3 note=54 velocity=100 time=0
EXTRACT: note_on channel=5 note=68 velocity=50 time=0
EXTRACT: note_on channel=11 note=68 velocity=100 time=0
EXTRACT: note_off channel=0 note=56 velocity=0 time=0.14285699999999998
EXTRACT: note_on channel=9 note=42 velocity=100 time=0
EXTRACT: note_on channel=9 note=49 velocity=60 time=0
EXTRACT: note_off channel=3 note=54 velocity=0 time=0
EXTRACT: note_on channel=3 note=56 velocity=100 time=0
EXTRACT: note_off channel=9 note=42 velocity=0 time=0.1279760625
EXTRACT: note_off channel=9 note=49 velocity=0 time=0
EXTRACT: note_on channel=0 note=56 velocity=100 time=0.014880937499999998
EXTRACT: note_off channel=3 note=56 velocity=0 time=0
EXTRACT: note_on channel=3 note=56 velocity=100 time=0
EXTRACT: note_off channel=0 note=56 velocity=0 time=0.1279760625
EXTRACT: note_on channel=0 note=54 velocity=100 time=0.014880937499999998
EXTRACT: note_on channel=9 note=35 velocity=100 time=0
EXTRACT: note_on channel=9 note=36 velocity=100 time=0
EXTRACT: note_on channel=2 note=32 velocity=100 time=0
EXTRACT: note_off channel=0 note=54 velocity=0 time=0.07142849999999999
EXTRACT: note_off channel=9 note=35 velocity=0 time=0.056547562499999995
EXTRACT: note_off channel=9 note=36 velocity=0 time=0
EXTRACT: note_on channel=0 note=54 velocity=100 time=0.014880937499999998
EXTRACT: note_off channel=0 note=54 velocity=0 time=0.07142849999999999
EXTRACT: note_off channel=3 note=56 velocity=0 time=0.017857124999999998
EXTRACT: note_on channel=0 note=54 velocity=100 time=0.05357137499999999
EXTRACT: note_on channel=9 note=42 velocity=100 time=0
EXTRACT: control_change channel=1 control=10 value=0 time=0
EXTRACT: note_on channel=1 note=68 velocity=100 time=0
EXTRACT: note_off channel=0 note=54 velocity=0 time=0.07142849999999999
EXTRACT: note_off channel=9 note=42 velocity=0 time=0.056547562499999995
EXTRACT: note_on channel=0 note=56 velocity=100 time=0.014880937499999998
EXTRACT: note_off channel=2 note=32 velocity=0 time=0.038690437499999994
EXTRACT: note_on channel=9 note=38 velocity=100 time=0.10416656249999999
EXTRACT: note_off channel=1 note=68 velocity=0 time=0.0208333125
EXTRACT: note_off channel=0 note=56 velocity=0 time=0.023809499999999997
EXTRACT: note_off channel=5 note=68 velocity=0 time=0.056547562499999995
EXTRACT: note_off channel=11 note=68 velocity=0 time=0
EXTRACT: note_off channel=9 note=38 velocity=0 time=0.026785687499999995
EXTRACT: note_on channel=0 note=56 velocity=100 time=0.014880937499999998
EXTRACT: note_on channel=9 note=42 velocity=100 time=0.14285699999999998
EXTRACT: control_change channel=1 control=10 value=127 time=0
EXTRACT: note_on channel=1 note=68 velocity=100 time=0
EXTRACT: note_off channel=0 note=56 velocity=0 time=0.0446428125
EXTRACT: note_off channel=9 note=42 velocity=0 time=0.08333325
EXTRACT: note_on channel=0 note=56 velocity=100 time=0.014880937499999998
EXTRACT: note_on channel=11 note=68 velocity=100 time=0
EXTRACT: note_on channel=2 note=31 velocity=100 time=0.07142849999999999
EXTRACT: note_off channel=0 note=56 velocity=0 time=0.038690437499999994
EXTRACT: note_on channel=0 note=54 velocity=100 time=0.0327380625
EXTRACT: note_on channel=9 note=35 velocity=100 time=0
EXTRACT: note_on channel=9 note=36 velocity=100 time=0
EXTRACT: note_off channel=2 note=31 velocity=0 time=0
EXTRACT: note_on channel=2 note=32 velocity=100 time=0
EXTRACT: note_on channel=11 note=66 velocity=100 time=0
EXTRACT: note_off channel=11 note=68 velocity=0 time=0.0446428125
EXTRACT: note_off channel=9 note=35 velocity=0 time=0.08333325
EXTRACT: note_off channel=9 note=36 velocity=0 time=0
EXTRACT: note_off channel=1 note=68 velocity=0 time=0.008928562499999999
EXTRACT: note_off channel=0 note=54 velocity=0 time=0.10416656249999999
EXTRACT: note_on channel=9 note=42 velocity=100 time=0.0446428125
EXTRACT: note_off channel=9 note=42 velocity=0 time=0.1279760625
EXTRACT: note_off channel=2 note=32 velocity=0 time=0.011904749999999999
EXTRACT: note_on channel=0 note=56 velocity=100 time=0.0029761874999999997
EXTRACT: note_off channel=0 note=56 velocity=0 time=0.14285699999999998
EXTRACT: note_on channel=9 note=38 velocity=100 time=0
EXTRACT: note_off channel=9 note=38 velocity=0 time=0.1279760625
EXTRACT: note_on channel=0 note=56 velocity=100 time=0.014880937499999998
EXTRACT: note_off channel=0 note=56 velocity=0 time=0.14285699999999998
EXTRACT: note_on channel=9 note=42 velocity=100 time=0
EXTRACT: note_on channel=9 note=49 velocity=60 time=0
EXTRACT: note_off channel=9 note=42 velocity=0 time=0.1279760625
EXTRACT: note_off channel=9 note=49 velocity=0 time=0
EXTRACT: note_on channel=0 note=56 velocity=100 time=0.014880937499999998
EXTRACT: note_off channel=11 note=66 velocity=0 time=0.10119037499999999
EXTRACT: note_off channel=0 note=56 velocity=0 time=0.026785687499999995
EXTRACT: note_on channel=5 note=66 velocity=34 time=0.8720229374999999
EXTRACT: note_on channel=11 note=66 velocity=68 time=0
EXTRACT: note_off channel=5 note=66 velocity=0 time=0.07142849999999999
EXTRACT: note_off channel=11 note=66 velocity=0 time=0
EXTRACT: note_on channel=5 note=63 velocity=34 time=0.07142849999999999
EXTRACT: note_on channel=11 note=63 velocity=68 time=0
EXTRACT: note_off channel=5 note=63 velocity=0 time=0.07142849999999999
EXTRACT: note_off channel=11 note=63 velocity=0 time=0
EXTRACT: note_on channel=5 note=66 velocity=34 time=0.07142849999999999
EXTRACT: note_on channel=11 note=66 velocity=68 time=0
EXTRACT: note_off channel=5 note=66 velocity=0 time=0.07142849999999999
EXTRACT: note_off channel=11 note=66 velocity=0 time=0
EXTRACT: note_on channel=5 note=63 velocity=34 time=0.07142849999999999
EXTRACT: note_on channel=11 note=63 velocity=68 time=0
EXTRACT: note_off channel=5 note=63 velocity=0 time=0.07142849999999999
EXTRACT: note_off channel=11 note=63 velocity=0 time=0
EXTRACT: note_on channel=5 note=66 velocity=34 time=0.07142849999999999
EXTRACT: note_on channel=11 note=66 velocity=68 time=0
EXTRACT: note_off channel=5 note=66 velocity=0 time=0.07142849999999999
EXTRACT: note_off channel=11 note=66 velocity=0 time=0
EXTRACT: note_on channel=5 note=63 velocity=34 time=0.07142849999999999
EXTRACT: note_on channel=11 note=63 velocity=89 time=0
EXTRACT: note_off channel=5 note=63 velocity=0 time=0.07142849999999999
EXTRACT: note_off channel=11 note=63 velocity=0 time=0
EXTRACT: note_on channel=5 note=66 velocity=50 time=0.07142849999999999
EXTRACT: note_on channel=11 note=66 velocity=100 time=0
EXTRACT: note_off channel=5 note=66 velocity=0 time=0.07142849999999999
EXTRACT: note_off channel=11 note=66 velocity=0 time=0
EXTRACT: note_on channel=5 note=68 velocity=50 time=0.07142849999999999
EXTRACT: note_on channel=11 note=68 velocity=100 time=0
EXTRACT: note_on channel=0 note=54 velocity=100 time=0.4285709999999999
EXTRACT: note_on channel=9 note=35 velocity=100 time=0
EXTRACT: note_on channel=9 note=36 velocity=100 time=0
EXTRACT: note_on channel=2 note=32 velocity=100 time=0
EXTRACT: note_off channel=0 note=54 velocity=0 time=0.07142849999999999
EXTRACT: note_off channel=9 note=35 velocity=0 time=0.056547562499999995
EXTRACT: note_off channel=9 note=36 velocity=0 time=0
EXTRACT: note_on channel=0 note=54 velocity=100 time=0.014880937499999998
EXTRACT: note_off channel=0 note=54 velocity=0 time=0.07142849999999999
EXTRACT: note_on channel=0 note=54 velocity=100 time=0.07142849999999999
EXTRACT: note_on channel=9 note=42 velocity=100 time=0
EXTRACT: control_change channel=1 control=10 value=0 time=0
EXTRACT: note_on channel=1 note=68 velocity=100 time=0
EXTRACT: note_off channel=0 note=54 velocity=0 time=0.07142849999999999
EXTRACT: note_off channel=9 note=42 velocity=0 time=0.056547562499999995
EXTRACT: note_on channel=0 note=56 velocity=100 time=0.014880937499999998
EXTRACT: note_off channel=2 note=32 velocity=0 time=0.038690437499999994
EXTRACT: note_on channel=9 note=38 velocity=100 time=0.10416656249999999
EXTRACT: note_off channel=1 note=68 velocity=0 time=0.0208333125
EXTRACT: note_off channel=0 note=56 velocity=0 time=0.023809499999999997
EXTRACT: note_off channel=5 note=68 velocity=0 time=0.056547562499999995
EXTRACT: note_off channel=11 note=68 velocity=0 time=0
EXTRACT: note_off channel=9 note=38 velocity=0 time=0.026785687499999995
EXTRACT: note_on channel=0 note=56 velocity=100 time=0.014880937499999998
EXTRACT: note_on channel=9 note=42 velocity=100 time=0.14285699999999998
EXTRACT: control_change channel=1 control=10 value=127 time=0
EXTRACT: note_on channel=1 note=68 velocity=100 time=0
EXTRACT: note_off channel=0 note=56 velocity=0 time=0.0446428125
EXTRACT: note_off channel=9 note=42 velocity=0 time=0.08333325
EXTRACT: note_on channel=0 note=56 velocity=100 time=0.014880937499999998
EXTRACT: note_on channel=11 note=68 velocity=100 time=0
EXTRACT: note_on channel=2 note=31 velocity=100 time=0.07142849999999999
EXTRACT: note_off channel=0 note=56 velocity=0 time=0.038690437499999994
EXTRACT: note_on channel=0 note=54 velocity=100 time=0.0327380625
EXTRACT: note_on channel=9 note=35 velocity=100 time=0
EXTRACT: note_on channel=9 note=36 velocity=100 time=0
EXTRACT: note_off channel=2 note=31 velocity=0 time=0
EXTRACT: note_on channel=2 note=32 velocity=100 time=0
EXTRACT: note_on channel=11 note=66 velocity=100 time=0
EXTRACT: note_off channel=11 note=68 velocity=0 time=0.0446428125
EXTRACT: note_off channel=9 note=35 velocity=0 time=0.08333325
EXTRACT: note_off channel=9 note=36 velocity=0 time=0
EXTRACT: note_off channel=1 note=68 velocity=0 time=0.008928562499999999
EXTRACT: note_off channel=0 note=54 velocity=0 time=0.10416656249999999
EXTRACT: note_on channel=9 note=42 velocity=100 time=0.0446428125
EXTRACT: note_off channel=9 note=42 velocity=0 time=0.1279760625
EXTRACT: note_off channel=2 note=32 velocity=0 time=0.011904749999999999
EXTRACT: note_on channel=0 note=56 velocity=100 time=0.0029761874999999997
EXTRACT: note_off channel=0 note=56 velocity=0 time=0.14285699999999998
EXTRACT: note_on channel=9 note=38 velocity=100 time=0
EXTRACT: note_on channel=3 note=56 velocity=100 time=0
EXTRACT: note_on channel=6 note=63 velocity=52 time=0
EXTRACT: note_off channel=9 note=38 velocity=0 time=0.1279760625
EXTRACT: note_off channel=3 note=56 velocity=0 time=0.008928562499999999
EXTRACT: note_on channel=0 note=56 velocity=100 time=0.005952374999999999
EXTRACT: note_on channel=3 note=54 velocity=100 time=0
EXTRACT: note_off channel=0 note=56 velocity=0 time=0.14285699999999998
EXTRACT: note_on channel=9 note=42 velocity=100 time=0
EXTRACT: note_on channel=9 note=49 velocity=60 time=0
EXTRACT: note_off channel=3 note=54 velocity=0 time=0
EXTRACT: note_on channel=3 note=56 velocity=100 time=0
EXTRACT: note_off channel=9 note=42 velocity=0 time=0.1279760625
EXTRACT: note_off channel=9 note=49 velocity=0 time=0
EXTRACT: note_on channel=0 note=56 velocity=100 time=0.014880937499999998
EXTRACT: note_off channel=3 note=56 velocity=0 time=0
EXTRACT: note_on channel=3 note=56 velocity=100 time=0
EXTRACT: note_off channel=11 note=66 velocity=0 time=0.10119037499999999
EXTRACT: note_off channel=0 note=56 velocity=0 time=0.026785687499999995
EXTRACT: note_off channel=6 note=63 velocity=0 time=0.0029761874999999997
EXTRACT: note_on channel=0 note=54 velocity=100 time=0.011904749999999999
EXTRACT: note_on channel=9 note=35 velocity=100 time=0
EXTRACT: note_on channel=9 note=36 velocity=100 time=0
EXTRACT: note_on channel=2 note=32 velocity=100 time=0
EXTRACT: note_on channel=6 note=63 velocity=79 time=0
EXTRACT: note_off channel=0 note=54 velocity=0 time=0.07142849999999999
EXTRACT: note_off channel=9 note=35 velocity=0 time=0.056547562499999995
EXTRACT: note_off channel=9 note=36 velocity=0 time=0
EXTRACT: note_on channel=0 note=54 velocity=100 time=0.014880937499999998
EXTRACT: note_off channel=0 note=54 velocity=0 time=0.07142849999999999
EXTRACT: note_off channel=3 note=56 velocity=0 time=0.017857124999999998
EXTRACT: note_on channel=0 note=54 velocity=100 time=0.05357137499999999
EXTRACT: note_on channel=9 note=42 velocity=100 time=0
EXTRACT: note_off channel=0 note=54 velocity=0 time=0.07142849999999999
EXTRACT: note_off channel=9 note=42 velocity=0 time=0.056547562499999995
EXTRACT: note_on channel=0 note=56 velocity=100 time=0.014880937499999998
EXTRACT: note_off channel=2 note=32 velocity=0 time=0.038690437499999994
EXTRACT: note_off channel=6 note=63 velocity=0 time=0.09226181249999998
EXTRACT: note_on channel=6 note=63 velocity=97 time=0.005952374999999999
EXTRACT: note_on channel=9 note=35 velocity=100 time=0.005952374999999999
EXTRACT: note_on channel=9 note=36 velocity=100 time=0
EXTRACT: note_off channel=0 note=56 velocity=0 time=0.0446428125
EXTRACT: note_off channel=9 note=35 velocity=0 time=0.08333325
EXTRACT: note_off channel=9 note=36 velocity=0 time=0
EXTRACT: note_on channel=0 note=56 velocity=100 time=0.014880937499999998
EXTRACT: note_on channel=9 note=42 velocity=100 time=0.14285699999999998
EXTRACT: note_off channel=0 note=56 velocity=0 time=0.0446428125
EXTRACT: note_off channel=9 note=42 velocity=0 time=0.08333325
EXTRACT: note_on channel=0 note=56 velocity=100 time=0.014880937499999998
EXTRACT: note_on channel=2 note=31 velocity=100 time=0.07142849999999999
EXTRACT: note_off channel=0 note=56 velocity=0 time=0.038690437499999994
EXTRACT: note_off channel=6 note=63 velocity=0 time=0.014880937499999998
EXTRACT: note_on channel=6 note=63 velocity=108 time=0.011904749999999999
EXTRACT: note_on channel=0 note=54 velocity=100 time=0.005952374999999999
EXTRACT: note_on channel=9 note=35 velocity=100 time=0
EXTRACT: note_on channel=9 note=36 velocity=100 time=0
EXTRACT: note_off channel=2 note=31 velocity=0 time=0
EXTRACT: note_on channel=2 note=32 velocity=100 time=0
EXTRACT: note_off channel=9 note=35 velocity=0 time=0.1279760625
EXTRACT: note_off channel=9 note=36 velocity=0 time=0
EXTRACT: note_off channel=0 note=54 velocity=0 time=0.11309512499999999
EXTRACT: note_on channel=9 note=38 velocity=100 time=0.0446428125
EXTRACT: note_on channel=9 note=42 velocity=100 time=0
EXTRACT: note_off channel=9 note=38 velocity=0 time=0.1279760625
EXTRACT: note_off channel=9 note=42 velocity=0 time=0
EXTRACT: note_off channel=2 note=32 velocity=0 time=0.011904749999999999
EXTRACT: note_on channel=0 note=56 velocity=100 time=0.0029761874999999997
EXTRACT: note_on channel=9 note=35 velocity=100 time=0
EXTRACT: note_on channel=9 note=36 velocity=100 time=0
EXTRACT: note_off channel=6 note=63 velocity=0 time=0.12499987499999998
EXTRACT: note_off channel=9 note=35 velocity=0 time=0.0029761874999999997
EXTRACT: note_off channel=9 note=36 velocity=0 time=0
EXTRACT: note_on channel=6 note=63 velocity=119 time=0.008928562499999999
EXTRACT: note_off channel=0 note=56 velocity=0 time=0.005952374999999999
EXTRACT: note_on channel=9 note=35 velocity=100 time=0
EXTRACT: note_on channel=9 note=36 velocity=100 time=0
EXTRACT: note_off channel=9 note=35 velocity=0 time=0.1279760625
EXTRACT: note_off channel=9 note=36 velocity=0 time=0
EXTRACT: note_on channel=0 note=56 velocity=100 time=0.014880937499999998
EXTRACT: note_off channel=0 note=56 velocity=0 time=0.14285699999999998
EXTRACT: note_on channel=9 note=38 velocity=100 time=0
EXTRACT: note_on channel=9 note=42 velocity=100 time=0
EXTRACT: note_on channel=9 note=49 velocity=60 time=0
EXTRACT: note_off channel=9 note=38 velocity=0 time=0.1279760625
EXTRACT: note_off channel=9 note=42 velocity=0 time=0
EXTRACT: note_off channel=9 note=49 velocity=0 time=0
EXTRACT: note_on channel=0 note=56 velocity=100 time=0.014880937499999998
EXTRACT: note_off channel=6 note=63 velocity=0 time=0.12499987499999998
EXTRACT: note_off channel=0 note=56 velocity=0 time=0.0029761874999999997
EXTRACT: note_on channel=9 note=49 velocity=60 time=0.014880937499999998
EXTRACT: note_on channel=10 note=68 velocity=100 time=0
EXTRACT: note_on channel=6 note=63 velocity=100 time=0.005952374999999999
EXTRACT: note_off channel=9 note=49 velocity=0 time=0.12202368749999999
EXTRACT: note_off channel=6 note=63 velocity=0 time=0.43749956249999994
EXTRACT: note_on channel=6 note=63 velocity=100 time=0.43452337499999993
EXTRACT: note_off channel=10 note=68 velocity=0 time=0.14285699999999998
EXTRACT: note_on channel=10 note=70 velocity=100 time=0
EXTRACT: note_off channel=6 note=63 velocity=0 time=0.28571399999999997
EXTRACT: note_on channel=6 note=61 velocity=100 time=0
EXTRACT: note_off channel=6 note=61 velocity=0 time=0.28571399999999997
EXTRACT: note_on channel=6 note=59 velocity=100 time=0
EXTRACT: note_off channel=6 note=59 velocity=0 time=0.28571399999999997
EXTRACT: note_on channel=6 note=61 velocity=100 time=0
EXTRACT: note_off channel=6 note=61 velocity=0 time=0.27380924999999995
EXTRACT: note_on channel=6 note=63 velocity=100 time=0
EXTRACT: note_off channel=10 note=70 velocity=0 time=0.011904749999999999
EXTRACT: note_on channel=10 note=71 velocity=100 time=0
EXTRACT: note_off channel=6 note=63 velocity=0 time=0.5476184999999999
EXTRACT: note_on channel=6 note=63 velocity=100 time=0.45238049999999996
EXTRACT: note_off channel=10 note=71 velocity=0 time=0.14285699999999998
EXTRACT: note_on channel=10 note=73 velocity=100 time=0
EXTRACT: note_off channel=6 note=63 velocity=0 time=0.28571399999999997
EXTRACT: note_on channel=6 note=61 velocity=100 time=0
EXTRACT: note_off channel=6 note=61 velocity=0 time=0.28571399999999997
EXTRACT: note_on channel=6 note=59 velocity=100 time=0
EXTRACT: note_off channel=6 note=59 velocity=0 time=0.28571399999999997
EXTRACT: note_on channel=6 note=61 velocity=100 time=0
EXTRACT: note_off channel=6 note=61 velocity=0 time=0.27380924999999995
EXTRACT: note_on channel=6 note=63 velocity=100 time=0
EXTRACT: note_off channel=10 note=73 velocity=0 time=0.011904749999999999
EXTRACT: note_on channel=10 note=68 velocity=100 time=0
EXTRACT: note_off channel=6 note=63 velocity=0 time=0.28571399999999997
EXTRACT: note_on channel=6 note=61 velocity=100 time=0
EXTRACT: note_on channel=6 note=68 velocity=100 time=0
EXTRACT: note_off channel=6 note=68 velocity=0 time=0.28571399999999997
EXTRACT: note_on channel=6 note=68 velocity=100 time=0
EXTRACT: note_off channel=6 note=61 velocity=0 time=0.14285699999999998
EXTRACT: note_on channel=6 note=59 velocity=100 time=0
EXTRACT: note_off channel=6 note=68 velocity=0 time=0.14285699999999998
EXTRACT: note_off channel=6 note=59 velocity=0 time=0
EXTRACT: note_on channel=6 note=56 velocity=100 time=0
EXTRACT: note_on channel=6 note=68 velocity=100 time=0
EXTRACT: note_off channel=6 note=68 velocity=0 time=0.28571399999999997
EXTRACT: note_on channel=6 note=66 velocity=100 time=0
EXTRACT: note_off channel=10 note=68 velocity=0 time=0
EXTRACT: note_on channel=10 note=70 velocity=100 time=0
EXTRACT: note_off channel=6 note=66 velocity=0 time=0.14285699999999998
EXTRACT: note_on channel=6 note=68 velocity=100 time=0
EXTRACT: note_off channel=6 note=56 velocity=0 time=0.13095225
EXTRACT: note_off channel=6 note=68 velocity=0 time=0.15476174999999998
EXTRACT: note_on channel=6 note=68 velocity=100 time=0
EXTRACT: note_on channel=6 note=66 velocity=100 time=0.4285709999999999
EXTRACT: note_off channel=6 note=68 velocity=0 time=0
EXTRACT: note_on channel=6 note=56 velocity=100 time=0
EXTRACT: note_on channel=6 note=68 velocity=100 time=0.28571399999999997
EXTRACT: note_off channel=6 note=56 velocity=0 time=0
EXTRACT: note_on channel=6 note=61 velocity=100 time=0
EXTRACT: note_off channel=10 note=70 velocity=0 time=0
EXTRACT: note_on channel=10 note=71 velocity=100 time=0
EXTRACT: note_off channel=6 note=66 velocity=0 time=0.017857124999999998
EXTRACT: note_on channel=6 note=66 velocity=100 time=0.267856875
EXTRACT: note_off channel=6 note=61 velocity=0 time=0
EXTRACT: note_on channel=6 note=56 velocity=100 time=0
EXTRACT: note_off channel=6 note=68 velocity=0 time=0.0208333125
EXTRACT: note_off channel=6 note=56 velocity=0 time=0.12202368749999999
EXTRACT: note_on channel=6 note=56 velocity=100 time=0
EXTRACT: note_off channel=6 note=66 velocity=0 time=0.13988081249999998
EXTRACT: note_on channel=6 note=68 velocity=100 time=0.0029761874999999997
EXTRACT: note_off channel=6 note=68 velocity=0 time=0.2619045
EXTRACT: note_on channel=6 note=66 velocity=100 time=0.023809499999999997
EXTRACT: note_off channel=6 note=56 velocity=0 time=0
EXTRACT: note_on channel=6 note=61 velocity=100 time=0
EXTRACT: note_on channel=6 note=68 velocity=100 time=0.28571399999999997
EXTRACT: note_off channel=6 note=61 velocity=0 time=0
EXTRACT: note_on channel=6 note=56 velocity=100 time=0
EXTRACT: note_off channel=10 note=71 velocity=0 time=0
EXTRACT: note_on channel=10 note=73 velocity=100 time=0
EXTRACT: note_off channel=6 note=66 velocity=0 time=0.017857124999999998
EXTRACT: note_off channel=6 note=56 velocity=0 time=0.12499987499999998
EXTRACT: note_on channel=6 note=54 velocity=100 time=0
EXTRACT: note_on channel=6 note=66 velocity=100 time=0.14285699999999998
EXTRACT: note_off channel=6 note=68 velocity=0 time=0.0208333125
EXTRACT: note_on channel=6 note=73 velocity=100 time=0.2648806875
EXTRACT: note_off channel=6 note=66 velocity=0 time=0.017857124999999998
EXTRACT: note_off channel=6 note=54 velocity=0 time=0.11309512499999999
EXTRACT: note_off channel=6 note=73 velocity=0 time=0.29761875
EXTRACT: note_on channel=2 note=32 velocity=100 time=0.14285699999999998
EXTRACT: control_change channel=4 control=10 value=64 time=0
EXTRACT: note_on channel=4 note=30 velocity=42 time=0
EXTRACT: note_on channel=10 note=68 velocity=100 time=0
EXTRACT: note_on channel=6 note=63 velocity=100 time=0.005952374999999999
EXTRACT: note_off channel=4 note=30 velocity=0 time=0.065476125
EXTRACT: note_on channel=4 note=30 velocity=55 time=0.07142849999999999
EXTRACT: note_off channel=4 note=30 velocity=0 time=0.07142849999999999
EXTRACT: note_on channel=4 note=30 velocity=58 time=0.07142849999999999
EXTRACT: note_off channel=4 note=30 velocity=0 time=0.07142849999999999
EXTRACT: note_on channel=4 note=32 velocity=60 time=0.07142849999999999
EXTRACT: note_off channel=2 note=32 velocity=0 time=0.038690437499999994
EXTRACT: note_off channel=6 note=63 velocity=0 time=0.0982141875
EXTRACT: note_on channel=9 note=35 velocity=55 time=0.005952374999999999
EXTRACT: note_off channel=4 note=32 velocity=0 time=0.0446428125
EXTRACT: note_off channel=9 note=35 velocity=0 time=0.08333325
EXTRACT: note_on channel=4 note=32 velocity=60 time=0.014880937499999998
EXTRACT: note_off channel=4 note=32 velocity=0 time=0.18749981249999997
EXTRACT: note_on channel=4 note=32 velocity=60 time=0.0982141875
EXTRACT: note_on channel=6 note=63 velocity=100 time=0
EXTRACT: note_on channel=2 note=31 velocity=100 time=0.07142849999999999
EXTRACT: note_off channel=4 note=32 velocity=0 time=0.038690437499999994
EXTRACT: note_off channel=2 note=31 velocity=0 time=0.0327380625
EXTRACT: note_on channel=2 note=32 velocity=100 time=0
EXTRACT: note_on channel=4 note=30 velocity=60 time=0
EXTRACT: note_off channel=10 note=68 velocity=0 time=0
EXTRACT: note_on channel=10 note=70 velocity=100 time=0
EXTRACT: note_off channel=10 note=73 velocity=0 time=0.0208333125
EXTRACT: note_off channel=6 note=63 velocity=0 time=0.12202368749999999
EXTRACT: note_on channel=6 note=63 velocity=100 time=0
EXTRACT: note_off channel=4 note=30 velocity=0 time=0.0982141875
EXTRACT: note_off channel=6 note=63 velocity=0 time=0.0446428125
EXTRACT: note_on channel=6 note=61 velocity=100 time=0
EXTRACT: note_off channel=2 note=32 velocity=0 time=0.13988081249999998
EXTRACT: note_on channel=4 note=32 velocity=63 time=0.0029761874999999997
EXTRACT: note_off channel=6 note=61 velocity=0 time=0
EXTRACT: note_on channel=6 note=61 velocity=100 time=0
EXTRACT: note_on channel=9 note=35 velocity=52 time=0.14285699999999998
EXTRACT: note_off channel=4 note=32 velocity=0 time=0
EXTRACT: note_off channel=6 note=61 velocity=0 time=0
EXTRACT: note_on channel=6 note=59 velocity=100 time=0
EXTRACT: note_off channel=9 note=35 velocity=0 time=0.1279760625
EXTRACT: note_on channel=4 note=32 velocity=63 time=0.014880937499999998
EXTRACT: note_off channel=4 note=32 velocity=0 time=0.14285699999999998
EXTRACT: note_off channel=6 note=59 velocity=0 time=0
EXTRACT: note_on channel=6 note=61 velocity=100 time=0
EXTRACT: note_on channel=4 note=32 velocity=63 time=0.14285699999999998
EXTRACT: note_off channel=4 note=32 velocity=0 time=0.1279760625
EXTRACT: note_off channel=6 note=61 velocity=0 time=0.0029761874999999997
EXTRACT: note_on channel=6 note=63 velocity=100 time=0
EXTRACT: note_on channel=2 note=32 velocity=100 time=0.011904749999999999
EXTRACT: note_on channel=4 note=30 velocity=60 time=0
EXTRACT: note_off channel=10 note=70 velocity=0 time=0
EXTRACT: note_on channel=10 note=71 velocity=100 time=0
EXTRACT: note_off channel=4 note=30 velocity=0 time=0.07142849999999999
EXTRACT: note_on channel=4 note=30 velocity=58 time=0.07142849999999999
EXTRACT: note_off channel=4 note=30 velocity=0 time=0.07142849999999999
EXTRACT: note_on channel=4 note=30 velocity=58 time=0.07142849999999999
EXTRACT: note_off channel=4 note=30 velocity=0 time=0.07142849999999999
EXTRACT: note_on channel=4 note=32 velocity=58 time=0.07142849999999999
EXTRACT: note_off channel=2 note=32 velocity=0 time=0.038690437499999994
EXTRACT: note_off channel=6 note=63 velocity=0 time=0.08035706249999999
EXTRACT: note_on channel=9 note=35 velocity=50 time=0.023809499999999997
EXTRACT: note_off channel=4 note=32 velocity=0 time=0.0446428125
EXTRACT: note_off channel=9 note=35 velocity=0 time=0.08333325
EXTRACT: note_on channel=4 note=32 velocity=58 time=0.014880937499999998
EXTRACT: note_on channel=6 note=63 velocity=100 time=0.14285699999999998
EXTRACT: note_off channel=4 note=32 velocity=0 time=0.0446428125
EXTRACT: note_on channel=4 note=32 velocity=58 time=0.0982141875
EXTRACT: note_off channel=6 note=63 velocity=0 time=0
EXTRACT: note_on channel=6 note=63 velocity=100 time=0
EXTRACT: note_on channel=2 note=31 velocity=100 time=0.07142849999999999
EXTRACT: note_off channel=4 note=32 velocity=0 time=0.038690437499999994
EXTRACT: note_off channel=2 note=31 velocity=0 time=0.0327380625
EXTRACT: note_on channel=2 note=32 velocity=100 time=0
EXTRACT: note_on channel=4 note=30 velocity=58 time=0
EXTRACT: note_off channel=10 note=71 velocity=0 time=0
EXTRACT: note_on channel=10 note=73 velocity=100 time=0
EXTRACT: note_off channel=6 note=63 velocity=0 time=0.14285699999999998
EXTRACT: note_on channel=6 note=63 velocity=100 time=0
EXTRACT: note_off channel=4 note=30 velocity=0 time=0.0982141875
EXTRACT: note_off channel=6 note=63 velocity=0 time=0.0446428125
EXTRACT: note_on channel=6 note=61 velocity=100 time=0
EXTRACT: note_off channel=2 note=32 velocity=0 time=0.13988081249999998
EXTRACT: note_on channel=4 note=32 velocity=63 time=0.0029761874999999997
EXTRACT: note_on channel=9 note=35 velocity=50 time=0.14285699999999998
EXTRACT: note_off channel=4 note=32 velocity=0 time=0
EXTRACT: note_off channel=6 note=61 velocity=0 time=0
EXTRACT: note_on channel=6 note=59 velocity=100 time=0
EXTRACT: note_off channel=9 note=35 velocity=0 time=0.1279760625
EXTRACT: note_on channel=4 note=32 velocity=63 time=0.014880937499999998
EXTRACT: note_off channel=4 note=32 velocity=0 time=0.14285699999999998
EXTRACT: note_off channel=6 note=59 velocity=0 time=0
EXTRACT: note_on channel=6 note=61 velocity=100 time=0
EXTRACT: note_on channel=4 note=32 velocity=63 time=0.14285699999999998
EXTRACT: note_off channel=4 note=32 velocity=0 time=0.1279760625
EXTRACT: note_off channel=6 note=61 velocity=0 time=0.0029761874999999997
EXTRACT: note_on channel=6 note=63 velocity=100 time=0
EXTRACT: note_on channel=9 note=35 velocity=50 time=0.011904749999999999
EXTRACT: note_on channel=2 note=32 velocity=100 time=0
EXTRACT: note_on channel=4 note=30 velocity=63 time=0
EXTRACT: note_off channel=10 note=73 velocity=0 time=0
EXTRACT: note_on channel=10 note=68 velocity=100 time=0
EXTRACT: note_off channel=4 note=30 velocity=0 time=0.07142849999999999
EXTRACT: note_off channel=9 note=35 velocity=0 time=0.056547562499999995
EXTRACT: note_on channel=4 note=30 velocity=63 time=0.014880937499999998
EXTRACT: note_off channel=4 note=30 velocity=0 time=0.07142849999999999
EXTRACT: note_on channel=9 note=35 velocity=50 time=0.07142849999999999
EXTRACT: note_off channel=2 note=32 velocity=0 time=0
EXTRACT: note_on channel=2 note=32 velocity=100 time=0
EXTRACT: note_on channel=4 note=30 velocity=63 time=0
EXTRACT: note_off channel=6 note=63 velocity=0 time=0
EXTRACT: note_on channel=6 note=61 velocity=100 time=0
EXTRACT: note_on channel=6 note=68 velocity=100 time=0
EXTRACT: note_off channel=4 note=30 velocity=0 time=0.07142849999999999
EXTRACT: note_on channel=9 note=30 velocity=63 time=0.011904749999999999
EXTRACT: note_on channel=9 note=30 velocity=63 time=0
EXTRACT: note_off channel=9 note=35 velocity=0 time=0.0446428125
EXTRACT: note_on channel=4 note=32 velocity=68 time=0.014880937499999998
EXTRACT: note_off channel=9 note=30 velocity=0 time=0.011904749999999999
EXTRACT: note_off channel=9 note=30 velocity=0 time=0
EXTRACT: note_on channel=9 note=30 velocity=63 time=0.07142849999999999
EXTRACT: note_on channel=9 note=30 velocity=63 time=0
EXTRACT: note_on channel=9 note=35 velocity=50 time=0.05952374999999999
EXTRACT: note_off channel=2 note=32 velocity=0 time=0
EXTRACT: note_on channel=2 note=32 velocity=100 time=0
EXTRACT: note_off channel=6 note=68 velocity=0 time=0
EXTRACT: note_on channel=6 note=68 velocity=100 time=0
EXTRACT: note_off channel=9 note=30 velocity=0 time=0.011904749999999999
EXTRACT: note_off channel=9 note=30 velocity=0 time=0
EXTRACT: note_off channel=4 note=32 velocity=0 time=0.0327380625
EXTRACT: note_on channel=9 note=30 velocity=63 time=0.038690437499999994
EXTRACT: note_on channel=9 note=30 velocity=63 time=0
EXTRACT: note_off channel=9 note=35 velocity=0 time=0.0446428125
EXTRACT: note_on channel=4 note=32 velocity=76 time=0.014880937499999998
EXTRACT: note_off channel=6 note=61 velocity=0 time=0
EXTRACT: note_on channel=6 note=59 velocity=100 time=0
EXTRACT: note_off channel=9 note=30 velocity=0 time=0.011904749999999999
EXTRACT: note_off channel=9 note=30 velocity=0 time=0
EXTRACT: note_on channel=9 note=32 velocity=68 time=0.07142849999999999
EXTRACT: note_on channel=9 note=32 velocity=68 time=0
EXTRACT: note_on channel=9 note=35 velocity=50 time=0.05952374999999999
EXTRACT: note_off channel=2 note=32 velocity=0 time=0
EXTRACT: note_on channel=2 note=32 velocity=100 time=0
EXTRACT: note_off channel=6 note=68 velocity=0 time=0
EXTRACT: note_off channel=6 note=59 velocity=0 time=0
EXTRACT: note_on channel=6 note=56 velocity=100 time=0
EXTRACT: note_on channel=6 note=68 velocity=100 time=0
EXTRACT: note_off channel=4 note=32 velocity=0 time=0.0446428125
EXTRACT: note_off channel=9 note=32 velocity=0 time=0.08333325
EXTRACT: note_off channel=9 note=32 velocity=0 time=0
EXTRACT: note_off channel=9 note=35 velocity=0 time=0
EXTRACT: note_on channel=4 note=32 velocity=79 time=0.014880937499999998
EXTRACT: note_on channel=9 note=32 velocity=76 time=0.08333325
EXTRACT: note_on channel=9 note=32 velocity=76 time=0
EXTRACT: note_off channel=4 note=32 velocity=0 time=0.026785687499999995
EXTRACT: note_on channel=9 note=35 velocity=52 time=0.0327380625
EXTRACT: note_off channel=2 note=32 velocity=0 time=0
EXTRACT: note_on channel=2 note=32 velocity=100 time=0
EXTRACT: note_on channel=4 note=30 velocity=84 time=0
EXTRACT: note_off channel=6 note=68 velocity=0 time=0
EXTRACT: note_on channel=6 note=66 velocity=100 time=0
EXTRACT: note_off channel=10 note=68 velocity=0 time=0
EXTRACT: note_on channel=10 note=70 velocity=100 time=0
EXTRACT: note_off channel=9 note=32 velocity=0 time=0.1279760625
EXTRACT: note_off channel=9 note=32 velocity=0 time=0
EXTRACT: note_off channel=9 note=35 velocity=0 time=0
EXTRACT: note_off channel=6 note=66 velocity=0 time=0.014880937499999998
EXTRACT: note_on channel=6 note=68 velocity=100 time=0
EXTRACT: note_on channel=9 note=32 velocity=79 time=0.08333325
EXTRACT: note_on channel=9 note=32 velocity=79 time=0
EXTRACT: note_off channel=4 note=30 velocity=0 time=0.014880937499999998
EXTRACT: note_off channel=6 note=56 velocity=0 time=0.0327380625
EXTRACT: note_on channel=9 note=35 velocity=52 time=0.011904749999999999
EXTRACT: note_off channel=2 note=32 velocity=0 time=0
EXTRACT: note_on channel=2 note=32 velocity=100 time=0
EXTRACT: note_off channel=9 note=32 velocity=0 time=0.05059518749999999
EXTRACT: note_off channel=9 note=32 velocity=0 time=0
EXTRACT: note_on channel=9 note=30 velocity=84 time=0.0327380625
EXTRACT: note_on channel=9 note=30 velocity=84 time=0
EXTRACT: note_off channel=9 note=35 velocity=0 time=0.0446428125
EXTRACT: note_on channel=4 note=32 velocity=95 time=0.014880937499999998
EXTRACT: note_off channel=6 note=68 velocity=0 time=0
EXTRACT: note_on channel=6 note=68 velocity=100 time=0
EXTRACT: note_on channel=9 note=35 velocity=52 time=0.14285699999999998
EXTRACT: note_off channel=2 note=32 velocity=0 time=0
EXTRACT: note_on channel=2 note=32 velocity=100 time=0
EXTRACT: note_off channel=4 note=32 velocity=0 time=0
EXTRACT: note_on channel=6 note=63 velocity=52 time=0
EXTRACT: note_off channel=9 note=30 velocity=0 time=0.038690437499999994
EXTRACT: note_off channel=9 note=30 velocity=0 time=0
EXTRACT: note_off channel=9 note=35 velocity=0 time=0.089285625
EXTRACT: note_on channel=4 note=32 velocity=100 time=0.014880937499999998
EXTRACT: note_on channel=9 note=32 velocity=95 time=0.08333325
EXTRACT: note_on channel=9 note=32 velocity=95 time=0
EXTRACT: note_on channel=9 note=35 velocity=52 time=0.05952374999999999
EXTRACT: note_off channel=2 note=32 velocity=0 time=0
EXTRACT: note_on channel=2 note=32 velocity=100 time=0
EXTRACT: note_off channel=4 note=32 velocity=0 time=0
EXTRACT: note_off channel=6 note=68 velocity=0 time=0
EXTRACT: note_on channel=6 note=56 velocity=100 time=0
EXTRACT: note_on channel=6 note=68 velocity=100 time=0
EXTRACT: note_off channel=9 note=32 velocity=0 time=0.08333325
EXTRACT: note_off channel=9 note=32 velocity=0 time=0
EXTRACT: note_off channel=9 note=35 velocity=0 time=0.0446428125
EXTRACT: note_on channel=4 note=32 velocity=100 time=0.014880937499999998
EXTRACT: note_off channel=6 note=68 velocity=0 time=0
EXTRACT: note_on channel=6 note=68 velocity=100 time=0
EXTRACT: note_on channel=9 note=32 velocity=100 time=0.08333325
EXTRACT: note_on channel=9 note=32 velocity=100 time=0
EXTRACT: note_off channel=4 note=32 velocity=0 time=0.0446428125
EXTRACT: note_off channel=6 note=63 velocity=0 time=0.0029761874999999997
EXTRACT: note_on channel=9 note=35 velocity=55 time=0.011904749999999999
EXTRACT: note_off channel=2 note=32 velocity=0 time=0
EXTRACT: note_on channel=2 note=32 velocity=100 time=0
EXTRACT: control_change channel=4 control=10 value=64 time=0
EXTRACT: note_on channel=4 note=30 velocity=111 time=0
EXTRACT: note_on channel=4 note=42 velocity=63 time=0
EXTRACT: note_on channel=5 note=56 velocity=100 time=0
EXTRACT: note_on channel=6 note=63 velocity=79 time=0
EXTRACT: note_off channel=6 note=56 velocity=0 time=0
EXTRACT: note_off channel=6 note=68 velocity=0 time=0
EXTRACT: note_on channel=6 note=71 velocity=100 time=0
EXTRACT: note_off channel=10 note=70 velocity=0 time=0
EXTRACT: note_on channel=10 note=71 velocity=100 time=0
EXTRACT: note_off channel=4 note=30 velocity=0 time=0.07142849999999999
EXTRACT: note_off channel=4 note=42 velocity=0 time=0
EXTRACT: note_off channel=9 note=32 velocity=0 time=0.011904749999999999
EXTRACT: note_off channel=9 note=32 velocity=0 time=0
EXTRACT: note_off channel=9 note=35 velocity=0 time=0.0446428125
EXTRACT: note_off channel=5 note=56 velocity=0 time=0.008928562499999999
EXTRACT: note_on channel=4 note=30 velocity=111 time=0.005952374999999999
EXTRACT: note_on channel=4 note=42 velocity=63 time=0
EXTRACT: note_on channel=5 note=54 velocity=100 time=0
EXTRACT: note_off channel=6 note=71 velocity=0 time=0
EXTRACT: note_on channel=6 note=71 velocity=100 time=0
EXTRACT: note_off channel=4 note=30 velocity=0 time=0.07142849999999999
EXTRACT: note_off channel=4 note=42 velocity=0 time=0
EXTRACT: note_on channel=9 note=32 velocity=100 time=0.011904749999999999
EXTRACT: note_on channel=9 note=32 velocity=100 time=0
EXTRACT: note_on channel=9 note=35 velocity=55 time=0.05952374999999999
EXTRACT: note_off channel=2 note=32 velocity=0 time=0
EXTRACT: note_on channel=2 note=32 velocity=100 time=0
EXTRACT: note_on channel=4 note=30 velocity=113 time=0
EXTRACT: note_on channel=4 note=42 velocity=63 time=0
EXTRACT: note_off channel=5 note=54 velocity=0 time=0
EXTRACT: note_on channel=5 note=56 velocity=100 time=0
EXTRACT: note_off channel=6 note=71 velocity=0 time=0
EXTRACT: note_on channel=6 note=68 velocity=100 time=0
EXTRACT: note_off channel=9 note=32 velocity=0 time=0.06845231249999999
EXTRACT: note_off channel=9 note=32 velocity=0 time=0
EXTRACT: note_off channel=4 note=30 velocity=0 time=0.0029761874999999997
EXTRACT: note_off channel=4 note=42 velocity=0 time=0
EXTRACT: note_off channel=9 note=35 velocity=0 time=0.056547562499999995
EXTRACT: note_on channel=4 note=32 velocity=113 time=0.014880937499999998
EXTRACT: note_on channel=4 note=44 velocity=68 time=0
EXTRACT: note_off channel=5 note=56 velocity=0 time=0
EXTRACT: note_on channel=5 note=54 velocity=100 time=0
EXTRACT: note_off channel=6 note=63 velocity=0 time=0.13095225
EXTRACT: note_on channel=6 note=63 velocity=97 time=0.005952374999999999
EXTRACT: note_on channel=9 note=35 velocity=55 time=0.005952374999999999
EXTRACT: note_off channel=2 note=32 velocity=0 time=0
EXTRACT: note_on channel=2 note=32 velocity=100 time=0
EXTRACT: note_off channel=5 note=54 velocity=0 time=0
EXTRACT: note_on channel=5 note=56 velocity=100 time=0
EXTRACT: note_off channel=6 note=68 velocity=0 time=0
EXTRACT: note_on channel=6 note=71 velocity=100 time=0
EXTRACT: note_off channel=4 note=32 velocity=0 time=0.0446428125
EXTRACT: note_off channel=4 note=44 velocity=0 time=0
EXTRACT: note_off channel=9 note=35 velocity=0 time=0.08333325
EXTRACT: note_off channel=5 note=56 velocity=0 time=0.008928562499999999
EXTRACT: note_on channel=4 note=32 velocity=113 time=0.005952374999999999
EXTRACT: note_on channel=4 note=44 velocity=76 time=0
EXTRACT: note_on channel=5 note=54 velocity=100 time=0
EXTRACT: note_on channel=9 note=35 velocity=55 time=0.14285699999999998
EXTRACT: note_off channel=2 note=32 velocity=0 time=0
EXTRACT: note_on channel=2 note=32 velocity=100 time=0
EXTRACT: note_off channel=5 note=54 velocity=0 time=0
EXTRACT: note_on channel=5 note=56 velocity=100 time=0
EXTRACT: note_off channel=6 note=71 velocity=0 time=0
EXTRACT: note_on channel=6 note=68 velocity=100 time=0
EXTRACT: note_off channel=4 note=32 velocity=0 time=0.0446428125
EXTRACT: note_off channel=4 note=44 velocity=0 time=0
EXTRACT: note_off channel=9 note=35 velocity=0 time=0.08333325
EXTRACT: note_on channel=4 note=32 velocity=116 time=0.014880937499999998
EXTRACT: note_on channel=4 note=44 velocity=79 time=0
EXTRACT: note_off channel=5 note=56 velocity=0 time=0
EXTRACT: note_on channel=5 note=54 velocity=100 time=0
EXTRACT: note_off channel=4 note=32 velocity=0 time=0.11011893749999999
EXTRACT: note_off channel=4 note=44 velocity=0 time=0
EXTRACT: note_off channel=6 note=63 velocity=0 time=0.014880937499999998
EXTRACT: note_on channel=6 note=63 velocity=108 time=0.011904749999999999
EXTRACT: note_on channel=9 note=35 velocity=52 time=0.005952374999999999
EXTRACT: note_off channel=2 note=32 velocity=0 time=0
EXTRACT: note_on channel=2 note=32 velocity=100 time=0
EXTRACT: note_on channel=4 note=30 velocity=116 time=0
EXTRACT: note_on channel=4 note=42 velocity=84 time=0
EXTRACT: note_off channel=5 note=54 velocity=0 time=0
EXTRACT: note_on channel=5 note=56 velocity=100 time=0
EXTRACT: note_off channel=6 note=68 velocity=0 time=0
EXTRACT: note_on channel=6 note=66 velocity=100 time=0
EXTRACT: note_off channel=10 note=71 velocity=0 time=0
EXTRACT: note_on channel=10 note=73 velocity=100 time=0
EXTRACT: note_off channel=9 note=35 velocity=0 time=0.1279760625
EXTRACT: note_off channel=5 note=56 velocity=0 time=0.008928562499999999
EXTRACT: note_on channel=5 note=54 velocity=100 time=0.005952374999999999
EXTRACT: note_off channel=6 note=66 velocity=0 time=0
EXTRACT: note_on channel=6 note=68 velocity=100 time=0
EXTRACT: note_off channel=4 note=30 velocity=0 time=0.0982141875
EXTRACT: note_off channel=4 note=42 velocity=0 time=0
EXTRACT: note_on channel=9 note=35 velocity=52 time=0.0446428125
EXTRACT: note_off channel=2 note=32 velocity=0 time=0
EXTRACT: note_on channel=2 note=32 velocity=100 time=0
EXTRACT: note_off channel=5 note=54 velocity=0 time=0
EXTRACT: note_on channel=5 note=56 velocity=100 time=0
EXTRACT: note_off channel=9 note=35 velocity=0 time=0.1279760625
EXTRACT: note_on channel=4 note=32 velocity=116 time=0.014880937499999998
EXTRACT: note_on channel=4 note=44 velocity=95 time=0
EXTRACT: note_off channel=5 note=56 velocity=0 time=0
EXTRACT: note_on channel=5 note=54 velocity=100 time=0
EXTRACT: note_off channel=6 note=68 velocity=0 time=0
EXTRACT: note_on channel=6 note=68 velocity=100 time=0
EXTRACT: note_off channel=6 note=63 velocity=0 time=0.12499987499999998
EXTRACT: note_on channel=6 note=63 velocity=119 time=0.011904749999999999
EXTRACT: note_on channel=9 note=35 velocity=52 time=0.005952374999999999
EXTRACT: note_off channel=2 note=32 velocity=0 time=0
EXTRACT: note_on channel=2 note=32 velocity=100 time=0
EXTRACT: note_off channel=4 note=32 velocity=0 time=0
EXTRACT: note_off channel=4 note=44 velocity=0 time=0
EXTRACT: note_off channel=5 note=54 velocity=0 time=0
EXTRACT: note_on channel=5 note=56 velocity=100 time=0
EXTRACT: note_off channel=9 note=35 velocity=0 time=0.1279760625
EXTRACT: note_off channel=5 note=56 velocity=0 time=0.008928562499999999
EXTRACT: note_on channel=4 note=32 velocity=113 time=0.005952374999999999
EXTRACT: note_on channel=4 note=44 velocity=100 time=0
EXTRACT: note_on channel=5 note=54 velocity=100 time=0
EXTRACT: note_on channel=9 note=35 velocity=52 time=0.14285699999999998
EXTRACT: note_off channel=2 note=32 velocity=0 time=0
EXTRACT: note_on channel=2 note=32 velocity=100 time=0
EXTRACT: note_off channel=4 note=32 velocity=0 time=0
EXTRACT: note_off channel=4 note=44 velocity=0 time=0
EXTRACT: note_off channel=5 note=54 velocity=0 time=0
EXTRACT: note_on channel=5 note=56 velocity=100 time=0
EXTRACT: note_off channel=6 note=68 velocity=0 time=0
EXTRACT: note_off channel=9 note=35 velocity=0 time=0.1279760625
EXTRACT: note_on channel=4 note=32 velocity=113 time=0.014880937499999998
EXTRACT: note_on channel=4 note=44 velocity=100 time=0
EXTRACT: note_off channel=5 note=56 velocity=0 time=0
EXTRACT: note_on channel=5 note=54 velocity=100 time=0
EXTRACT: note_off channel=6 note=63 velocity=0 time=0.12499987499999998
EXTRACT: note_off channel=4 note=32 velocity=0 time=0.0029761874999999997
EXTRACT: note_off channel=4 note=44 velocity=0 time=0
EXTRACT: note_on channel=0 note=54 velocity=100 time=0.014880937499999998
EXTRACT: note_on channel=9 note=35 velocity=100 time=0
EXTRACT: note_on channel=9 note=36 velocity=100 time=0
EXTRACT: note_on channel=9 note=49 velocity=60 time=0
EXTRACT: control_change channel=1 control=10 value=0 time=0
EXTRACT: note_off channel=2 note=32 velocity=0 time=0
EXTRACT: note_on channel=2 note=32 velocity=100 time=0
EXTRACT: note_off channel=5 note=54 velocity=0 time=0
EXTRACT: note_on channel=5 note=60 velocity=60 time=0
EXTRACT: note_on channel=6 note=63 velocity=100 time=0.005952374999999999
EXTRACT: note_off channel=0 note=54 velocity=0 time=0.065476125
EXTRACT: note_off channel=9 note=35 velocity=0 time=0.056547562499999995
EXTRACT: note_off channel=9 note=36 velocity=0 time=0
EXTRACT: note_off channel=9 note=49 velocity=0 time=0
EXTRACT: note_on channel=0 note=54 velocity=100 time=0.014880937499999998
EXTRACT: note_off channel=0 note=54 velocity=0 time=0.07142849999999999
EXTRACT: note_on channel=0 note=54 velocity=100 time=0.07142849999999999
EXTRACT: note_on channel=9 note=42 velocity=100 time=0
EXTRACT: note_on channel=1 note=68 velocity=100 time=0
EXTRACT: note_on channel=4 note=66 velocity=100 time=0
EXTRACT: note_off channel=0 note=54 velocity=0 time=0.07142849999999999
EXTRACT: note_off channel=4 note=66 velocity=0 time=0.023809499999999997
EXTRACT: note_off channel=9 note=42 velocity=0 time=0.0327380625
EXTRACT: note_on channel=0 note=56 velocity=100 time=0.014880937499999998
EXTRACT: note_off channel=2 note=32 velocity=0 time=0.038690437499999994
EXTRACT: note_off channel=5 note=60 velocity=0 time=0.035714249999999996
EXTRACT: note_off channel=6 note=63 velocity=0 time=0.06249993749999999
EXTRACT: note_on channel=9 note=38 velocity=100 time=0.005952374999999999
EXTRACT: control_change channel=4 control=10 value=104 time=0
EXTRACT: note_on channel=4 note=68 velocity=100 time=0
EXTRACT: note_off channel=1 note=68 velocity=0 time=0.0208333125
EXTRACT: note_off channel=0 note=56 velocity=0 time=0.023809499999999997
EXTRACT: note_off channel=4 note=68 velocity=0 time=0.0744046875
EXTRACT: note_off channel=9 note=38 velocity=0 time=0.008928562499999999
EXTRACT: note_on channel=0 note=56 velocity=100 time=0.014880937499999998
EXTRACT: note_on channel=9 note=42 velocity=100 time=0.14285699999999998
EXTRACT: control_change channel=1 control=10 value=127 time=0
EXTRACT: note_on channel=1 note=68 velocity=100 time=0
EXTRACT: note_off channel=0 note=56 velocity=0 time=0.0446428125
EXTRACT: note_off channel=9 note=42 velocity=0 time=0.08333325
EXTRACT: note_on channel=0 note=56 velocity=100 time=0.014880937499999998
EXTRACT: control_change channel=4 control=10 value=33 time=0
EXTRACT: note_on channel=4 note=63 velocity=100 time=0
EXTRACT: note_on channel=6 note=63 velocity=100 time=0
EXTRACT: note_on channel=11 note=68 velocity=100 time=0
EXTRACT: note_on channel=2 note=31 velocity=100 time=0.07142849999999999
EXTRACT: note_off channel=0 note=56 velocity=0 time=0.038690437499999994
EXTRACT: note_off channel=4 note=63 velocity=0 time=0.008928562499999999
EXTRACT: note_on channel=0 note=54 velocity=100 time=0.023809499999999997
EXTRACT: note_on channel=9 note=35 velocity=100 time=0
EXTRACT: note_on channel=9 note=36 velocity=100 time=0
EXTRACT: note_off channel=2 note=31 velocity=0 time=0
EXTRACT: note_on channel=2 note=32 velocity=100 time=0
EXTRACT: note_on channel=11 note=66 velocity=100 time=0
EXTRACT: note_off channel=10 note=73 velocity=0 time=0.0208333125
EXTRACT: note_off channel=11 note=68 velocity=0 time=0.023809499999999997
EXTRACT: note_off channel=9 note=35 velocity=0 time=0.08333325
EXTRACT: note_off channel=9 note=36 velocity=0 time=0
EXTRACT: note_off channel=1 note=68 velocity=0 time=0.008928562499999999
EXTRACT: note_off channel=0 note=54 velocity=0 time=0.10416656249999999
EXTRACT: note_on channel=9 note=42 velocity=100 time=0.0446428125
EXTRACT: control_change channel=4 control=10 value=95 time=0
EXTRACT: note_on channel=4 note=66 velocity=100 time=0
EXTRACT: note_off channel=6 note=63 velocity=0 time=0
EXTRACT: note_on channel=6 note=61 velocity=100 time=0
EXTRACT: note_off channel=4 note=66 velocity=0 time=0.09523799999999999
EXTRACT: note_off channel=9 note=42 velocity=0 time=0.0327380625
EXTRACT: note_off channel=2 note=32 velocity=0 time=0.011904749999999999
EXTRACT: note_on channel=0 note=56 velocity=100 time=0.0029761874999999997
EXTRACT: note_off channel=0 note=56 velocity=0 time=0.14285699999999998
EXTRACT: note_on channel=9 note=38 velocity=100 time=0
EXTRACT: note_on channel=3 note=56 velocity=100 time=0
EXTRACT: control_change channel=4 control=10 value=33 time=0
EXTRACT: note_on channel=4 note=68 velocity=100 time=0
EXTRACT: note_off channel=6 note=61 velocity=0 time=0
EXTRACT: note_on channel=6 note=59 velocity=100 time=0
EXTRACT: note_off channel=9 note=38 velocity=0 time=0.1279760625
EXTRACT: note_off channel=3 note=56 velocity=0 time=0.008928562499999999
EXTRACT: note_on channel=0 note=56 velocity=100 time=0.005952374999999999
EXTRACT: note_on channel=3 note=54 velocity=100 time=0
EXTRACT: note_off channel=4 note=68 velocity=0 time=0
EXTRACT: control_change channel=4 control=10 value=95 time=0
EXTRACT: note_on channel=4 note=71 velocity=100 time=0
EXTRACT: note_off channel=0 note=56 velocity=0 time=0.14285699999999998
EXTRACT: note_on channel=9 note=42 velocity=100 time=0
EXTRACT: note_on channel=9 note=49 velocity=60 time=0
EXTRACT: note_off channel=3 note=54 velocity=0 time=0
EXTRACT: note_on channel=3 note=56 velocity=100 time=0
EXTRACT: note_off channel=6 note=59 velocity=0 time=0
EXTRACT: note_on channel=6 note=61 velocity=100 time=0
EXTRACT: note_off channel=4 note=71 velocity=0 time=0.0208333125
EXTRACT: note_off channel=9 note=42 velocity=0 time=0.10714274999999998
EXTRACT: note_off channel=9 note=49 velocity=0 time=0
EXTRACT: note_on channel=0 note=56 velocity=100 time=0.014880937499999998
EXTRACT: note_off channel=3 note=56 velocity=0 time=0
EXTRACT: note_on channel=3 note=56 velocity=100 time=0
EXTRACT: note_off channel=11 note=66 velocity=0 time=0.10119037499999999
EXTRACT: note_off channel=0 note=56 velocity=0 time=0.026785687499999995
EXTRACT: note_off channel=6 note=61 velocity=0 time=0.0029761874999999997
EXTRACT: note_on channel=6 note=63 velocity=100 time=0
EXTRACT: note_on channel=0 note=54 velocity=100 time=0.011904749999999999
EXTRACT: note_on channel=9 note=35 velocity=100 time=0
EXTRACT: note_on channel=9 note=36 velocity=100 time=0
EXTRACT: note_on channel=2 note=32 velocity=100 time=0
EXTRACT: control_change channel=4 control=10 value=24 time=0
EXTRACT: note_off channel=0 note=54 velocity=0 time=0.07142849999999999
EXTRACT: note_off channel=9 note=35 velocity=0 time=0.056547562499999995
EXTRACT: note_off channel=9 note=36 velocity=0 time=0
EXTRACT: note_on channel=0 note=54 velocity=100 time=0.014880937499999998
EXTRACT: note_off channel=0 note=54 velocity=0 time=0.07142849999999999
EXTRACT: note_off channel=3 note=56 velocity=0 time=0.017857124999999998
EXTRACT: note_on channel=0 note=54 velocity=100 time=0.05357137499999999
EXTRACT: note_on channel=9 note=42 velocity=100 time=0
EXTRACT: control_change channel=4 control=10 value=104 time=0
EXTRACT: note_on channel=4 note=66 velocity=100 time=0
EXTRACT: note_off channel=0 note=54 velocity=0 time=0.07142849999999999
EXTRACT: note_off channel=4 note=66 velocity=0 time=0.023809499999999997
EXTRACT: note_off channel=9 note=42 velocity=0 time=0.0327380625
EXTRACT: note_on channel=0 note=56 velocity=100 time=0.014880937499999998
EXTRACT: note_off channel=2 note=32 velocity=0 time=0.038690437499999994
EXTRACT: note_off channel=6 note=63 velocity=0 time=0.08035706249999999
EXTRACT: note_on channel=9 note=38 velocity=100 time=0.023809499999999997
EXTRACT: note_on channel=4 note=68 velocity=100 time=0
EXTRACT: note_off channel=0 note=56 velocity=0 time=0.0446428125
EXTRACT: note_off channel=4 note=68 velocity=0 time=0.0744046875
EXTRACT: note_off channel=9 note=38 velocity=0 time=0.008928562499999999
EXTRACT: note_on channel=0 note=56 velocity=100 time=0.014880937499999998
EXTRACT: control_change channel=4 control=10 value=33 time=0
EXTRACT: note_on channel=9 note=42 velocity=100 time=0.14285699999999998
EXTRACT: note_on channel=11 note=66 velocity=68 time=0
EXTRACT: note_off channel=0 note=56 velocity=0 time=0.0446428125
EXTRACT: note_off channel=11 note=66 velocity=0 time=0.026785687499999995
EXTRACT: note_off channel=9 note=42 velocity=0 time=0.056547562499999995
EXTRACT: note_on channel=0 note=56 velocity=100 time=0.014880937499999998
EXTRACT: note_on channel=4 note=63 velocity=100 time=0
EXTRACT: note_on channel=6 note=63 velocity=100 time=0
EXTRACT: note_on channel=11 note=63 velocity=68 time=0
EXTRACT: note_on channel=2 note=31 velocity=100 time=0.07142849999999999
EXTRACT: note_off channel=11 note=63 velocity=0 time=0
EXTRACT: note_off channel=0 note=56 velocity=0 time=0.038690437499999994
EXTRACT: note_off channel=4 note=63 velocity=0 time=0.008928562499999999
EXTRACT: note_on channel=0 note=54 velocity=100 time=0.023809499999999997
EXTRACT: note_on channel=9 note=35 velocity=100 time=0
EXTRACT: note_on channel=9 note=36 velocity=100 time=0
EXTRACT: note_off channel=2 note=31 velocity=0 time=0
EXTRACT: note_on channel=2 note=32 velocity=100 time=0
EXTRACT: control_change channel=4 control=10 value=95 time=0
EXTRACT: note_on channel=11 note=66 velocity=68 time=0
EXTRACT: note_off channel=11 note=66 velocity=0 time=0.07142849999999999
EXTRACT: note_off channel=9 note=35 velocity=0 time=0.056547562499999995
EXTRACT: note_off channel=9 note=36 velocity=0 time=0
EXTRACT: note_on channel=11 note=63 velocity=68 time=0.014880937499999998
EXTRACT: note_off channel=11 note=63 velocity=0 time=0.07142849999999999
EXTRACT: note_off channel=0 note=54 velocity=0 time=0.026785687499999995
EXTRACT: note_on channel=9 note=42 velocity=100 time=0.0446428125
EXTRACT: control_change channel=4 control=10 value=33 time=0
EXTRACT: note_on channel=4 note=66 velocity=100 time=0
EXTRACT: note_off channel=6 note=63 velocity=0 time=0
EXTRACT: note_on channel=6 note=61 velocity=100 time=0
EXTRACT: note_on channel=11 note=66 velocity=68 time=0
EXTRACT: note_off channel=11 note=66 velocity=0 time=0.07142849999999999
EXTRACT: note_off channel=4 note=66 velocity=0 time=0.023809499999999997
EXTRACT: note_off channel=9 note=42 velocity=0 time=0.0327380625
EXTRACT: note_off channel=2 note=32 velocity=0 time=0.011904749999999999
EXTRACT: note_on channel=0 note=56 velocity=100 time=0.0029761874999999997
EXTRACT: control_change channel=4 control=10 value=95 time=0
EXTRACT: note_on channel=11 note=63 velocity=89 time=0
EXTRACT: note_off channel=11 note=63 velocity=0 time=0.07142849999999999
EXTRACT: note_off channel=0 note=56 velocity=0 time=0.07142849999999999
EXTRACT: note_on channel=9 note=38 velocity=100 time=0
EXTRACT: note_on channel=3 note=56 velocity=100 time=0
EXTRACT: note_on channel=4 note=68 velocity=100 time=0
EXTRACT: note_off channel=6 note=61 velocity=0 time=0
EXTRACT: note_on channel=6 note=59 velocity=100 time=0
EXTRACT: note_on channel=11 note=66 velocity=100 time=0
EXTRACT: note_off channel=11 note=66 velocity=0 time=0.07142849999999999
EXTRACT: note_off channel=9 note=38 velocity=0 time=0.056547562499999995
EXTRACT: note_off channel=3 note=56 velocity=0 time=0.008928562499999999
EXTRACT: note_on channel=0 note=56 velocity=100 time=0.005952374999999999
EXTRACT: note_on channel=3 note=54 velocity=100 time=0
EXTRACT: note_off channel=4 note=68 velocity=0 time=0
EXTRACT: note_on channel=4 note=71 velocity=100 time=0
EXTRACT: note_on channel=11 note=68 velocity=100 time=0
EXTRACT: note_off channel=0 note=56 velocity=0 time=0.14285699999999998
EXTRACT: note_on channel=9 note=35 velocity=100 time=0
EXTRACT: note_on channel=9 note=36 velocity=100 time=0
EXTRACT: note_on channel=9 note=42 velocity=100 time=0
EXTRACT: note_on channel=9 note=49 velocity=60 time=0
EXTRACT: note_off channel=3 note=54 velocity=0 time=0
EXTRACT: note_on channel=3 note=56 velocity=100 time=0
EXTRACT: note_off channel=6 note=59 velocity=0 time=0
EXTRACT: note_on channel=6 note=61 velocity=100 time=0
EXTRACT: note_off channel=4 note=71 velocity=0 time=0.0208333125
EXTRACT: note_off channel=9 note=35 velocity=0 time=0.10714274999999998
EXTRACT: note_off channel=9 note=36 velocity=0 time=0
EXTRACT: note_off channel=9 note=42 velocity=0 time=0
EXTRACT: note_off channel=9 note=49 velocity=0 time=0
EXTRACT: note_on channel=0 note=56 velocity=100 time=0.014880937499999998
EXTRACT: note_off channel=3 note=56 velocity=0 time=0
EXTRACT: note_on channel=3 note=56 velocity=100 time=0
EXTRACT: note_off channel=0 note=56 velocity=0 time=0.1279760625
EXTRACT: note_off channel=6 note=61 velocity=0 time=0.0029761874999999997
EXTRACT: note_on channel=6 note=63 velocity=100 time=0
EXTRACT: note_on channel=0 note=54 velocity=100 time=0.011904749999999999
EXTRACT: note_on channel=9 note=35 velocity=100 time=0
EXTRACT: note_on channel=9 note=36 velocity=100 time=0
EXTRACT: note_on channel=2 note=32 velocity=100 time=0
EXTRACT: control_change channel=4 control=10 value=24 time=0
EXTRACT: note_off channel=0 note=54 velocity=0 time=0.07142849999999999
EXTRACT: note_off channel=9 note=35 velocity=0 time=0.056547562499999995
EXTRACT: note_off channel=9 note=36 velocity=0 time=0
EXTRACT: note_on channel=0 note=54 velocity=100 time=0.014880937499999998
EXTRACT: note_off channel=0 note=54 velocity=0 time=0.07142849999999999
EXTRACT: note_off channel=3 note=56 velocity=0 time=0.017857124999999998
EXTRACT: note_on channel=0 note=54 velocity=100 time=0.05357137499999999
EXTRACT: note_on channel=9 note=42 velocity=100 time=0
EXTRACT: control_change channel=1 control=10 value=0 time=0
EXTRACT: note_on channel=1 note=68 velocity=100 time=0
EXTRACT: control_change channel=4 control=10 value=104 time=0
EXTRACT: note_on channel=4 note=66 velocity=100 time=0
EXTRACT: note_off channel=6 note=63 velocity=0 time=0
EXTRACT: note_on channel=6 note=61 velocity=100 time=0
EXTRACT: note_off channel=0 note=54 velocity=0 time=0.07142849999999999
EXTRACT: note_off channel=4 note=66 velocity=0 time=0.023809499999999997
EXTRACT: note_off channel=9 note=42 velocity=0 time=0.0327380625
EXTRACT: note_on channel=0 note=56 velocity=100 time=0.014880937499999998
EXTRACT: note_off channel=2 note=32 velocity=0 time=0.038690437499999994
EXTRACT: note_on channel=9 note=38 velocity=100 time=0.10416656249999999
EXTRACT: note_on channel=4 note=68 velocity=100 time=0
EXTRACT: note_off channel=1 note=68 velocity=0 time=0.0208333125
EXTRACT: note_off channel=0 note=56 velocity=0 time=0.023809499999999997
EXTRACT: note_off channel=11 note=68 velocity=0 time=0.056547562499999995
EXTRACT: note_off channel=4 note=68 velocity=0 time=0.017857124999999998
EXTRACT: note_off channel=9 note=38 velocity=0 time=0.008928562499999999
EXTRACT: note_on channel=0 note=56 velocity=100 time=0.014880937499999998
EXTRACT: control_change channel=4 control=10 value=33 time=0
EXTRACT: note_off channel=6 note=61 velocity=0 time=0
EXTRACT: note_on channel=6 note=59 velocity=100 time=0
EXTRACT: note_on channel=9 note=42 velocity=100 time=0.14285699999999998
EXTRACT: control_change channel=1 control=10 value=127 time=0
EXTRACT: note_on channel=1 note=68 velocity=100 time=0
EXTRACT: note_off channel=6 note=59 velocity=0 time=0
EXTRACT: note_on channel=6 note=56 velocity=100 time=0
EXTRACT: note_off channel=0 note=56 velocity=0 time=0.0446428125
EXTRACT: note_off channel=9 note=42 velocity=0 time=0.08333325
EXTRACT: note_on channel=0 note=56 velocity=100 time=0.014880937499999998
EXTRACT: note_on channel=4 note=63 velocity=100 time=0
EXTRACT: note_on channel=11 note=68 velocity=100 time=0
EXTRACT: note_on channel=2 note=31 velocity=100 time=0.07142849999999999
EXTRACT: note_off channel=0 note=56 velocity=0 time=0.038690437499999994
EXTRACT: note_off channel=4 note=63 velocity=0 time=0.008928562499999999
EXTRACT: note_on channel=0 note=54 velocity=100 time=0.023809499999999997
EXTRACT: note_on channel=9 note=35 velocity=100 time=0
EXTRACT: note_on channel=9 note=36 velocity=100 time=0
EXTRACT: note_off channel=2 note=31 velocity=0 time=0
EXTRACT: note_on channel=2 note=32 velocity=100 time=0
EXTRACT: control_change channel=4 control=10 value=95 time=0
EXTRACT: note_on channel=11 note=66 velocity=100 time=0
EXTRACT: note_off channel=11 note=68 velocity=0 time=0.0446428125
EXTRACT: note_off channel=9 note=35 velocity=0 time=0.08333325
EXTRACT: note_off channel=9 note=36 velocity=0 time=0
EXTRACT: note_off channel=1 note=68 velocity=0 time=0.008928562499999999
EXTRACT: note_off channel=0 note=54 velocity=0 time=0.10416656249999999
EXTRACT: note_off channel=6 note=56 velocity=0 time=0.0327380625
EXTRACT: note_on channel=9 note=42 velocity=100 time=0.011904749999999999
EXTRACT: control_change channel=4 control=10 value=33 time=0
EXTRACT: note_on channel=4 note=66 velocity=100 time=0
EXTRACT: note_off channel=4 note=66 velocity=0 time=0.09523799999999999
EXTRACT: note_off channel=9 note=42 velocity=0 time=0.0327380625
EXTRACT: note_off channel=2 note=32 velocity=0 time=0.011904749999999999
EXTRACT: note_on channel=0 note=56 velocity=100 time=0.0029761874999999997
EXTRACT: control_change channel=4 control=10 value=95 time=0
EXTRACT: note_off channel=0 note=56 velocity=0 time=0.14285699999999998
EXTRACT: note_on channel=9 note=38 velocity=100 time=0
EXTRACT: note_on channel=3 note=56 velocity=100 time=0
EXTRACT: note_on channel=4 note=68 velocity=100 time=0
EXTRACT: note_off channel=9 note=38 velocity=0 time=0.1279760625
EXTRACT: note_off channel=3 note=56 velocity=0 time=0.008928562499999999
EXTRACT: note_on channel=0 note=56 velocity=100 time=0.005952374999999999
EXTRACT: note_on channel=3 note=54 velocity=100 time=0
EXTRACT: note_off channel=4 note=68 velocity=0 time=0
EXTRACT: note_on channel=4 note=71 velocity=100 time=0
EXTRACT: note_off channel=0 note=56 velocity=0 time=0.14285699999999998
EXTRACT: note_on channel=9 note=42 velocity=100 time=0
EXTRACT: note_on channel=9 note=49 velocity=60 time=0
EXTRACT: note_off channel=3 note=54 velocity=0 time=0
EXTRACT: note_on channel=3 note=56 velocity=100 time=0
EXTRACT: note_on channel=6 note=56 velocity=100 time=0
EXTRACT: note_off channel=4 note=71 velocity=0 time=0.0208333125
EXTRACT: note_off channel=9 note=42 velocity=0 time=0.10714274999999998
EXTRACT: note_off channel=9 note=49 velocity=0 time=0
EXTRACT: note_on channel=0 note=56 velocity=100 time=0.014880937499999998
EXTRACT: note_off channel=3 note=56 velocity=0 time=0
EXTRACT: note_on channel=3 note=56 velocity=100 time=0
EXTRACT: note_off channel=11 note=66 velocity=0 time=0.10119037499999999
EXTRACT: note_off channel=0 note=56 velocity=0 time=0.026785687499999995
EXTRACT: note_on channel=0 note=54 velocity=100 time=0.014880937499999998
EXTRACT: note_on channel=9 note=35 velocity=100 time=0
EXTRACT: note_on channel=9 note=36 velocity=100 time=0
EXTRACT: note_on channel=2 note=32 velocity=100 time=0
EXTRACT: note_off channel=6 note=56 velocity=0 time=0
EXTRACT: note_on channel=6 note=61 velocity=100 time=0
EXTRACT: note_on channel=12 note=68 velocity=100 time=0
EXTRACT: note_off channel=0 note=54 velocity=0 time=0.07142849999999999
EXTRACT: note_off channel=9 note=35 velocity=0 time=0.056547562499999995
EXTRACT: note_off channel=9 note=36 velocity=0 time=0
EXTRACT: note_on channel=0 note=54 velocity=100 time=0.014880937499999998
EXTRACT: note_off channel=12 note=68 velocity=0 time=0
EXTRACT: note_on channel=12 note=68 velocity=100 time=0
EXTRACT: note_off channel=0 note=54 velocity=0 time=0.07142849999999999
EXTRACT: note_off channel=3 note=56 velocity=0 time=0.017857124999999998
EXTRACT: note_on channel=0 note=54 velocity=100 time=0.05357137499999999
EXTRACT: note_on channel=9 note=42 velocity=100 time=0
EXTRACT: note_off channel=2 note=32 velocity=0 time=0
EXTRACT: note_on channel=2 note=32 velocity=80 time=0
EXTRACT: note_on channel=4 note=66 velocity=100 time=0
EXTRACT: note_off channel=6 note=61 velocity=0 time=0
EXTRACT: note_on channel=6 note=56 velocity=100 time=0
EXTRACT: note_off channel=12 note=68 velocity=0 time=0
EXTRACT: note_on channel=12 note=66 velocity=100 time=0
EXTRACT: note_off channel=0 note=54 velocity=0 time=0.07142849999999999
EXTRACT: note_off channel=4 note=66 velocity=0 time=0.023809499999999997
EXTRACT: note_off channel=9 note=42 velocity=0 time=0.0327380625
EXTRACT: note_off channel=12 note=66 velocity=0 time=0.008928562499999999
EXTRACT: note_on channel=0 note=56 velocity=100 time=0.005952374999999999
EXTRACT: note_off channel=6 note=56 velocity=0 time=0
EXTRACT: note_on channel=6 note=56 velocity=100 time=0
EXTRACT: note_on channel=12 note=63 velocity=100 time=0
EXTRACT: note_on channel=9 note=38 velocity=100 time=0.14285699999999998
EXTRACT: note_off channel=2 note=32 velocity=0 time=0
EXTRACT: note_on channel=2 note=30 velocity=100 time=0
EXTRACT: control_change channel=4 control=10 value=104 time=0
EXTRACT: note_on channel=4 note=68 velocity=100 time=0
EXTRACT: note_off channel=12 note=63 velocity=0 time=0
EXTRACT: note_on channel=12 note=63 velocity=100 time=0
EXTRACT: note_off channel=0 note=56 velocity=0 time=0.0446428125
EXTRACT: note_off channel=4 note=68 velocity=0 time=0.0744046875
EXTRACT: note_off channel=9 note=38 velocity=0 time=0.008928562499999999
EXTRACT: note_on channel=0 note=56 velocity=100 time=0.014880937499999998
EXTRACT: note_off channel=12 note=63 velocity=0 time=0
EXTRACT: note_on channel=12 note=61 velocity=100 time=0
EXTRACT: note_off channel=12 note=61 velocity=0 time=0.11904749999999999
EXTRACT: note_on channel=9 note=35 velocity=100 time=0.023809499999999997
EXTRACT: note_on channel=9 note=36 velocity=100 time=0
EXTRACT: note_on channel=9 note=42 velocity=100 time=0
EXTRACT: note_off channel=2 note=30 velocity=0 time=0
EXTRACT: note_on channel=2 note=30 velocity=80 time=0
EXTRACT: note_off channel=6 note=56 velocity=0 time=0
EXTRACT: note_on channel=6 note=61 velocity=100 time=0
EXTRACT: note_on channel=11 note=66 velocity=68 time=0
EXTRACT: note_on channel=12 note=61 velocity=100 time=0
EXTRACT: note_off channel=0 note=56 velocity=0 time=0.0446428125
EXTRACT: note_off channel=11 note=66 velocity=0 time=0.026785687499999995
EXTRACT: note_off channel=12 note=61 velocity=0 time=0.047618999999999995
EXTRACT: note_off channel=9 note=35 velocity=0 time=0.008928562499999999
EXTRACT: note_off channel=9 note=36 velocity=0 time=0
EXTRACT: note_off channel=9 note=42 velocity=0 time=0
EXTRACT: note_on channel=0 note=56 velocity=100 time=0.014880937499999998
EXTRACT: control_change channel=4 control=10 value=33 time=0
EXTRACT: note_on channel=4 note=63 velocity=100 time=0
EXTRACT: note_on channel=11 note=63 velocity=68 time=0
EXTRACT: note_on channel=12 note=58 velocity=100 time=0
EXTRACT: note_off channel=11 note=63 velocity=0 time=0.07142849999999999
EXTRACT: note_off channel=0 note=56 velocity=0 time=0.038690437499999994
EXTRACT: note_off channel=4 note=63 velocity=0 time=0.008928562499999999
EXTRACT: note_on channel=0 note=54 velocity=100 time=0.023809499999999997
EXTRACT: note_on channel=9 note=35 velocity=100 time=0
EXTRACT: note_on channel=9 note=36 velocity=100 time=0
EXTRACT: note_off channel=2 note=30 velocity=0 time=0
EXTRACT: note_on channel=2 note=29 velocity=100 time=0
EXTRACT: note_off channel=6 note=61 velocity=0 time=0
EXTRACT: note_on channel=6 note=56 velocity=100 time=0
EXTRACT: note_on channel=11 note=66 velocity=68 time=0
EXTRACT: note_off channel=12 note=58 velocity=0 time=0
EXTRACT: note_on channel=12 note=56 velocity=100 time=0
EXTRACT: note_off channel=11 note=66 velocity=0 time=0.07142849999999999
EXTRACT: note_off channel=9 note=35 velocity=0 time=0.056547562499999995
EXTRACT: note_off channel=9 note=36 velocity=0 time=0
EXTRACT: note_off channel=6 note=56 velocity=0 time=0.014880937499999998
EXTRACT: note_on channel=6 note=54 velocity=100 time=0
EXTRACT: note_on channel=11 note=63 velocity=68 time=0
EXTRACT: note_off channel=11 note=63 velocity=0 time=0.07142849999999999
EXTRACT: note_off channel=0 note=54 velocity=0 time=0.026785687499999995
EXTRACT: note_off channel=12 note=56 velocity=0 time=0.014880937499999998
EXTRACT: note_on channel=9 note=38 velocity=100 time=0.029761874999999997
EXTRACT: note_on channel=9 note=42 velocity=100 time=0
EXTRACT: note_off channel=2 note=29 velocity=0 time=0
EXTRACT: note_on channel=2 note=29 velocity=80 time=0
EXTRACT: control_change channel=4 control=10 value=95 time=0
EXTRACT: note_on channel=4 note=66 velocity=100 time=0
EXTRACT: note_on channel=11 note=66 velocity=68 time=0
EXTRACT: note_off channel=11 note=66 velocity=0 time=0.07142849999999999
EXTRACT: note_off channel=4 note=66 velocity=0 time=0.023809499999999997
EXTRACT: note_off channel=9 note=38 velocity=0 time=0.0327380625
EXTRACT: note_off channel=9 note=42 velocity=0 time=0
EXTRACT: note_on channel=0 note=56 velocity=100 time=0.014880937499999998
EXTRACT: note_on channel=11 note=63 velocity=89 time=0
EXTRACT: note_off channel=11 note=63 velocity=0 time=0.07142849999999999
EXTRACT: note_off channel=0 note=56 velocity=0 time=0.07142849999999999
EXTRACT: note_on channel=9 note=38 velocity=100 time=0
EXTRACT: note_off channel=2 note=29 velocity=0 time=0
EXTRACT: note_on channel=2 note=27 velocity=100 time=0
EXTRACT: note_on channel=3 note=56 velocity=100 time=0
EXTRACT: control_change channel=4 control=10 value=33 time=0
EXTRACT: note_on channel=4 note=68 velocity=100 time=0
EXTRACT: note_on channel=11 note=66 velocity=100 time=0
EXTRACT: note_off channel=11 note=66 velocity=0 time=0.07142849999999999
EXTRACT: note_off channel=9 note=38 velocity=0 time=0.056547562499999995
EXTRACT: note_off channel=6 note=54 velocity=0 time=0.0029761874999999997
EXTRACT: note_off channel=3 note=56 velocity=0 time=0.005952374999999999
EXTRACT: note_on channel=0 note=56 velocity=100 time=0.005952374999999999
EXTRACT: note_on channel=3 note=54 velocity=100 time=0
EXTRACT: note_off channel=4 note=68 velocity=0 time=0
EXTRACT: control_change channel=4 control=10 value=95 time=0
EXTRACT: note_on channel=4 note=71 velocity=100 time=0
EXTRACT: note_on channel=11 note=68 velocity=100 time=0
EXTRACT: note_off channel=0 note=56 velocity=0 time=0.14285699999999998
EXTRACT: note_on channel=9 note=42 velocity=100 time=0
EXTRACT: note_on channel=9 note=49 velocity=60 time=0
EXTRACT: note_off channel=2 note=27 velocity=0 time=0
EXTRACT: note_on channel=2 note=27 velocity=80 time=0
EXTRACT: note_off channel=3 note=54 velocity=0 time=0
EXTRACT: note_on channel=3 note=56 velocity=100 time=0
EXTRACT: note_off channel=4 note=71 velocity=0 time=0.0208333125
EXTRACT: note_off channel=9 note=42 velocity=0 time=0.10714274999999998
EXTRACT: note_off channel=9 note=49 velocity=0 time=0
EXTRACT: note_on channel=0 note=56 velocity=100 time=0.014880937499999998
EXTRACT: note_off channel=3 note=56 velocity=0 time=0
EXTRACT: note_on channel=3 note=56 velocity=100 time=0
EXTRACT: note_off channel=0 note=56 velocity=0 time=0.1279760625
EXTRACT: note_on channel=0 note=54 velocity=100 time=0.014880937499999998
EXTRACT: note_on channel=9 note=35 velocity=100 time=0
EXTRACT: note_on channel=9 note=36 velocity=100 time=0
EXTRACT: note_on channel=2 note=32 velocity=100 time=0
EXTRACT: control_change channel=4 control=10 value=24 time=0
EXTRACT: note_on channel=7 note=68 velocity=100 time=0
EXTRACT: note_on channel=8 note=68 velocity=100 time=0
EXTRACT: note_on channel=6 note=63 velocity=100 time=0.005952374999999999
EXTRACT: note_off channel=0 note=54 velocity=0 time=0.065476125
EXTRACT: note_off channel=9 note=35 velocity=0 time=0.056547562499999995
EXTRACT: note_off channel=9 note=36 velocity=0 time=0
EXTRACT: note_on channel=0 note=54 velocity=100 time=0.014880937499999998
EXTRACT: note_off channel=2 note=27 velocity=0 time=0.038690437499999994
EXTRACT: note_off channel=0 note=54 velocity=0 time=0.0327380625
EXTRACT: note_off channel=3 note=56 velocity=0 time=0.017857124999999998
EXTRACT: note_on channel=0 note=54 velocity=100 time=0.05357137499999999
EXTRACT: note_on channel=9 note=42 velocity=100 time=0
EXTRACT: control_change channel=1 control=10 value=0 time=0
EXTRACT: note_on channel=1 note=68 velocity=100 time=0
EXTRACT: control_change channel=4 control=10 value=104 time=0
EXTRACT: note_on channel=4 note=66 velocity=100 time=0
EXTRACT: note_off channel=0 note=54 velocity=0 time=0.07142849999999999
EXTRACT: note_off channel=4 note=66 velocity=0 time=0.023809499999999997
EXTRACT: note_off channel=9 note=42 velocity=0 time=0.0327380625
EXTRACT: note_on channel=0 note=56 velocity=100 time=0.014880937499999998
EXTRACT: note_off channel=2 note=32 velocity=0 time=0.038690437499999994
EXTRACT: note_off channel=6 note=63 velocity=0 time=0.0982141875
EXTRACT: note_on channel=9 note=38 velocity=100 time=0.005952374999999999
EXTRACT: note_on channel=4 note=68 velocity=100 time=0
EXTRACT: note_off channel=7 note=68 velocity=0 time=0
EXTRACT: note_on channel=7 note=70 velocity=100 time=0
EXTRACT: note_off channel=8 note=68 velocity=0 time=0
EXTRACT: note_on channel=8 note=70 velocity=100 time=0
EXTRACT: note_off channel=1 note=68 velocity=0 time=0.0208333125
EXTRACT: note_off channel=0 note=56 velocity=0 time=0.023809499999999997
EXTRACT: note_off channel=11 note=68 velocity=0 time=0.056547562499999995
EXTRACT: note_off channel=4 note=68 velocity=0 time=0.017857124999999998
EXTRACT: note_off channel=9 note=38 velocity=0 time=0.008928562499999999
EXTRACT: note_on channel=0 note=56 velocity=100 time=0.014880937499999998
EXTRACT: control_change channel=4 control=10 value=33 time=0
EXTRACT: note_on channel=9 note=42 velocity=100 time=0.14285699999999998
EXTRACT: control_change channel=1 control=10 value=127 time=0
EXTRACT: note_on channel=1 note=68 velocity=100 time=0
EXTRACT: note_off channel=0 note=56 velocity=0 time=0.0446428125
EXTRACT: note_off channel=9 note=42 velocity=0 time=0.08333325
EXTRACT: note_on channel=0 note=56 velocity=100 time=0.014880937499999998
EXTRACT: note_on channel=4 note=63 velocity=100 time=0
EXTRACT: note_on channel=6 note=63 velocity=100 time=0
EXTRACT: note_on channel=11 note=68 velocity=100 time=0
EXTRACT: note_on channel=2 note=31 velocity=100 time=0.07142849999999999
EXTRACT: note_off channel=0 note=56 velocity=0 time=0.038690437499999994
EXTRACT: note_off channel=4 note=63 velocity=0 time=0.008928562499999999
EXTRACT: note_on channel=0 note=54 velocity=100 time=0.023809499999999997
EXTRACT: note_on channel=9 note=35 velocity=100 time=0
EXTRACT: note_on channel=9 note=36 velocity=100 time=0
EXTRACT: note_off channel=2 note=31 velocity=0 time=0
EXTRACT: note_on channel=2 note=32 velocity=100 time=0
EXTRACT: control_change channel=4 control=10 value=95 time=0
EXTRACT: note_off channel=7 note=70 velocity=0 time=0
EXTRACT: note_on channel=7 note=71 velocity=100 time=0
EXTRACT: note_off channel=8 note=70 velocity=0 time=0
EXTRACT: note_on channel=8 note=71 velocity=100 time=0
EXTRACT: note_on channel=11 note=66 velocity=100 time=0
EXTRACT: note_off channel=11 note=68 velocity=0 time=0.0446428125
EXTRACT: note_off channel=9 note=35 velocity=0 time=0.08333325
EXTRACT: note_off channel=9 note=36 velocity=0 time=0
EXTRACT: note_off channel=1 note=68 velocity=0 time=0.008928562499999999
EXTRACT: note_off channel=6 note=63 velocity=0 time=0.005952374999999999
EXTRACT: note_on channel=6 note=63 velocity=100 time=0
EXTRACT: note_off channel=0 note=54 velocity=0 time=0.0982141875
EXTRACT: note_on channel=9 note=42 velocity=100 time=0.0446428125
EXTRACT: control_change channel=4 control=10 value=33 time=0
EXTRACT: note_on channel=4 note=66 velocity=100 time=0
EXTRACT: note_off channel=6 note=63 velocity=0 time=0
EXTRACT: note_on channel=6 note=61 velocity=100 time=0
EXTRACT: note_off channel=4 note=66 velocity=0 time=0.09523799999999999
EXTRACT: note_off channel=9 note=42 velocity=0 time=0.0327380625
EXTRACT: note_off channel=2 note=32 velocity=0 time=0.011904749999999999
EXTRACT: note_on channel=0 note=56 velocity=100 time=0.0029761874999999997
EXTRACT: control_change channel=4 control=10 value=95 time=0
EXTRACT: note_off channel=6 note=61 velocity=0 time=0
EXTRACT: note_on channel=6 note=61 velocity=100 time=0
EXTRACT: note_off channel=0 note=56 velocity=0 time=0.14285699999999998
EXTRACT: note_on channel=9 note=38 velocity=100 time=0
EXTRACT: note_on channel=3 note=56 velocity=100 time=0
EXTRACT: note_on channel=4 note=68 velocity=100 time=0
EXTRACT: note_off channel=6 note=61 velocity=0 time=0
EXTRACT: note_on channel=6 note=59 velocity=100 time=0
EXTRACT: note_off channel=7 note=71 velocity=0 time=0
EXTRACT: note_on channel=7 note=73 velocity=100 time=0
EXTRACT: note_off channel=8 note=71 velocity=0 time=0
EXTRACT: note_on channel=8 note=73 velocity=100 time=0
EXTRACT: note_off channel=9 note=38 velocity=0 time=0.1279760625
EXTRACT: note_off channel=3 note=56 velocity=0 time=0.008928562499999999
EXTRACT: note_on channel=0 note=56 velocity=100 time=0.005952374999999999
EXTRACT: note_on channel=3 note=54 velocity=100 time=0
EXTRACT: note_off channel=4 note=68 velocity=0 time=0
EXTRACT: note_on channel=4 note=71 velocity=100 time=0
EXTRACT: note_off channel=0 note=56 velocity=0 time=0.14285699999999998
EXTRACT: note_on channel=9 note=42 velocity=100 time=0
EXTRACT: note_on channel=9 note=49 velocity=60 time=0
EXTRACT: note_off channel=3 note=54 velocity=0 time=0
EXTRACT: note_on channel=3 note=56 velocity=100 time=0
EXTRACT: note_off channel=6 note=59 velocity=0 time=0
EXTRACT: note_on channel=6 note=61 velocity=100 time=0
EXTRACT: note_off channel=4 note=71 velocity=0 time=0.0208333125
EXTRACT: note_off channel=9 note=42 velocity=0 time=0.10714274999999998
EXTRACT: note_off channel=9 note=49 velocity=0 time=0
EXTRACT: note_on channel=0 note=56 velocity=100 time=0.014880937499999998
EXTRACT: note_off channel=3 note=56 velocity=0 time=0
EXTRACT: note_on channel=3 note=56 velocity=100 time=0
EXTRACT: note_off channel=11 note=66 velocity=0 time=0.10119037499999999
EXTRACT: note_off channel=0 note=56 velocity=0 time=0.026785687499999995
EXTRACT: note_off channel=6 note=61 velocity=0 time=0.0029761874999999997
EXTRACT: note_on channel=6 note=63 velocity=100 time=0
EXTRACT: note_on channel=0 note=54 velocity=100 time=0.011904749999999999
EXTRACT: note_on channel=9 note=35 velocity=100 time=0
EXTRACT: note_on channel=9 note=36 velocity=100 time=0
EXTRACT: note_on channel=2 note=32 velocity=100 time=0
EXTRACT: control_change channel=4 control=10 value=24 time=0
EXTRACT: note_off channel=7 note=73 velocity=0 time=0
EXTRACT: note_on channel=7 note=75 velocity=100 time=0
EXTRACT: note_off channel=8 note=73 velocity=0 time=0
EXTRACT: note_on channel=8 note=75 velocity=100 time=0
EXTRACT: note_off channel=0 note=54 velocity=0 time=0.07142849999999999
EXTRACT: note_off channel=9 note=35 velocity=0 time=0.056547562499999995
EXTRACT: note_off channel=9 note=36 velocity=0 time=0
EXTRACT: note_on channel=0 note=54 velocity=100 time=0.014880937499999998
EXTRACT: note_off channel=0 note=54 velocity=0 time=0.07142849999999999
EXTRACT: note_off channel=3 note=56 velocity=0 time=0.017857124999999998
EXTRACT: note_on channel=0 note=54 velocity=100 time=0.05357137499999999
EXTRACT: note_on channel=9 note=42 velocity=100 time=0
EXTRACT: control_change channel=4 control=10 value=104 time=0
EXTRACT: note_on channel=4 note=66 velocity=100 time=0
EXTRACT: note_off channel=0 note=54 velocity=0 time=0.07142849999999999
EXTRACT: note_off channel=4 note=66 velocity=0 time=0.023809499999999997
EXTRACT: note_off channel=9 note=42 velocity=0 time=0.0327380625
EXTRACT: note_on channel=0 note=56 velocity=100 time=0.014880937499999998
EXTRACT: note_off channel=2 note=32 velocity=0 time=0.038690437499999994
EXTRACT: note_off channel=6 note=63 velocity=0 time=0.08035706249999999
EXTRACT: note_on channel=9 note=38 velocity=100 time=0.023809499999999997
EXTRACT: note_on channel=4 note=68 velocity=100 time=0
EXTRACT: note_off channel=7 note=75 velocity=0 time=0
EXTRACT: note_on channel=7 note=73 velocity=100 time=0
EXTRACT: note_off channel=8 note=75 velocity=0 time=0
EXTRACT: note_on channel=8 note=73 velocity=100 time=0
EXTRACT: note_off channel=0 note=56 velocity=0 time=0.0446428125
EXTRACT: note_off channel=4 note=68 velocity=0 time=0.0744046875
EXTRACT: note_off channel=9 note=38 velocity=0 time=0.008928562499999999
EXTRACT: note_on channel=0 note=56 velocity=100 time=0.014880937499999998
EXTRACT: control_change channel=4 control=10 value=33 time=0
EXTRACT: note_on channel=9 note=42 velocity=100 time=0.14285699999999998
EXTRACT: note_on channel=6 note=63 velocity=100 time=0
EXTRACT: note_on channel=11 note=66 velocity=68 time=0
EXTRACT: note_off channel=0 note=56 velocity=0 time=0.0446428125
EXTRACT: note_off channel=11 note=66 velocity=0 time=0.026785687499999995
EXTRACT: note_off channel=9 note=42 velocity=0 time=0.056547562499999995
EXTRACT: note_on channel=0 note=56 velocity=100 time=0.014880937499999998
EXTRACT: note_on channel=4 note=63 velocity=100 time=0
EXTRACT: note_off channel=6 note=63 velocity=0 time=0
EXTRACT: note_on channel=6 note=63 velocity=100 time=0
EXTRACT: note_on channel=11 note=63 velocity=68 time=0
EXTRACT: note_on channel=2 note=31 velocity=100 time=0.07142849999999999
EXTRACT: note_off channel=11 note=63 velocity=0 time=0
EXTRACT: note_off channel=0 note=56 velocity=0 time=0.038690437499999994
EXTRACT: note_off channel=4 note=63 velocity=0 time=0.008928562499999999
EXTRACT: note_on channel=0 note=54 velocity=100 time=0.023809499999999997
EXTRACT: note_on channel=9 note=35 velocity=100 time=0
EXTRACT: note_on channel=9 note=36 velocity=100 time=0
EXTRACT: note_off channel=2 note=31 velocity=0 time=0
EXTRACT: note_on channel=2 note=32 velocity=100 time=0
EXTRACT: control_change channel=4 control=10 value=95 time=0
EXTRACT: note_off channel=7 note=73 velocity=0 time=0
EXTRACT: note_on channel=7 note=71 velocity=100 time=0
EXTRACT: note_off channel=8 note=73 velocity=0 time=0
EXTRACT: note_on channel=8 note=71 velocity=100 time=0
EXTRACT: note_on channel=11 note=66 velocity=68 time=0
EXTRACT: note_off channel=11 note=66 velocity=0 time=0.07142849999999999
EXTRACT: note_off channel=9 note=35 velocity=0 time=0.056547562499999995
EXTRACT: note_off channel=9 note=36 velocity=0 time=0
EXTRACT: note_off channel=6 note=63 velocity=0 time=0.014880937499999998
EXTRACT: note_on channel=6 note=63 velocity=100 time=0
EXTRACT: note_on channel=11 note=63 velocity=68 time=0
EXTRACT: note_off channel=11 note=63 velocity=0 time=0.07142849999999999
EXTRACT: note_off channel=0 note=54 velocity=0 time=0.026785687499999995
EXTRACT: note_on channel=9 note=42 velocity=100 time=0.0446428125
EXTRACT: control_change channel=4 control=10 value=33 time=0
EXTRACT: note_on channel=4 note=66 velocity=100 time=0
EXTRACT: note_off channel=6 note=63 velocity=0 time=0
EXTRACT: note_on channel=6 note=61 velocity=100 time=0
EXTRACT: note_on channel=11 note=66 velocity=68 time=0
EXTRACT: note_off channel=11 note=66 velocity=0 time=0.07142849999999999
EXTRACT: note_off channel=4 note=66 velocity=0 time=0.023809499999999997
EXTRACT: note_off channel=9 note=42 velocity=0 time=0.0327380625
EXTRACT: note_off channel=2 note=32 velocity=0 time=0.011904749999999999
EXTRACT: note_on channel=0 note=56 velocity=100 time=0.0029761874999999997
EXTRACT: control_change channel=4 control=10 value=95 time=0
EXTRACT: note_on channel=11 note=63 velocity=89 time=0
EXTRACT: note_off channel=11 note=63 velocity=0 time=0.07142849999999999
EXTRACT: note_off channel=0 note=56 velocity=0 time=0.07142849999999999
EXTRACT: note_on channel=9 note=38 velocity=100 time=0
EXTRACT: note_on channel=3 note=56 velocity=100 time=0
EXTRACT: note_on channel=4 note=68 velocity=100 time=0
EXTRACT: note_off channel=6 note=61 velocity=0 time=0
EXTRACT: note_on channel=6 note=59 velocity=100 time=0
EXTRACT: note_off channel=7 note=71 velocity=0 time=0
EXTRACT: note_on channel=7 note=70 velocity=100 time=0
EXTRACT: note_off channel=8 note=71 velocity=0 time=0
EXTRACT: note_on channel=8 note=70 velocity=100 time=0
EXTRACT: note_on channel=11 note=66 velocity=100 time=0
EXTRACT: note_off channel=11 note=66 velocity=0 time=0.07142849999999999
EXTRACT: note_off channel=9 note=38 velocity=0 time=0.056547562499999995
EXTRACT: note_off channel=3 note=56 velocity=0 time=0.008928562499999999
EXTRACT: note_on channel=0 note=56 velocity=100 time=0.005952374999999999
EXTRACT: note_on channel=3 note=54 velocity=100 time=0
EXTRACT: note_off channel=4 note=68 velocity=0 time=0
EXTRACT: note_on channel=4 note=71 velocity=100 time=0
EXTRACT: note_on channel=11 note=68 velocity=100 time=0
EXTRACT: note_off channel=0 note=56 velocity=0 time=0.14285699999999998
EXTRACT: note_on channel=9 note=35 velocity=100 time=0
EXTRACT: note_on channel=9 note=36 velocity=100 time=0
EXTRACT: note_on channel=9 note=42 velocity=100 time=0
EXTRACT: note_on channel=9 note=49 velocity=60 time=0
EXTRACT: note_off channel=3 note=54 velocity=0 time=0
EXTRACT: note_on channel=3 note=56 velocity=100 time=0
EXTRACT: note_off channel=6 note=59 velocity=0 time=0
EXTRACT: note_on channel=6 note=61 velocity=100 time=0
EXTRACT: note_off channel=4 note=71 velocity=0 time=0.0208333125
EXTRACT: note_off channel=9 note=35 velocity=0 time=0.10714274999999998
EXTRACT: note_off channel=9 note=36 velocity=0 time=0
EXTRACT: note_off channel=9 note=42 velocity=0 time=0
EXTRACT: note_off channel=9 note=49 velocity=0 time=0
EXTRACT: note_on channel=0 note=56 velocity=100 time=0.014880937499999998
EXTRACT: note_off channel=3 note=56 velocity=0 time=0
EXTRACT: note_on channel=3 note=56 velocity=100 time=0
EXTRACT: note_off channel=0 note=56 velocity=0 time=0.1279760625
EXTRACT: note_off channel=6 note=61 velocity=0 time=0.0029761874999999997
EXTRACT: note_on channel=6 note=63 velocity=100 time=0
EXTRACT: note_on channel=0 note=54 velocity=100 time=0.011904749999999999
EXTRACT: note_on channel=9 note=35 velocity=100 time=0
EXTRACT: note_on channel=9 note=36 velocity=100 time=0
EXTRACT: note_on channel=2 note=32 velocity=100 time=0
EXTRACT: note_off channel=7 note=70 velocity=0 time=0
EXTRACT: note_on channel=7 note=68 velocity=100 time=0
EXTRACT: note_off channel=8 note=70 velocity=0 time=0
EXTRACT: note_on channel=8 note=68 velocity=100 time=0
EXTRACT: note_off channel=0 note=54 velocity=0 time=0.07142849999999999
EXTRACT: note_off channel=9 note=35 velocity=0 time=0.056547562499999995
EXTRACT: note_off channel=9 note=36 velocity=0 time=0
EXTRACT: note_on channel=0 note=54 velocity=100 time=0.014880937499999998
EXTRACT: note_off channel=0 note=54 velocity=0 time=0.07142849999999999
EXTRACT: note_off channel=3 note=56 velocity=0 time=0.017857124999999998
EXTRACT: note_on channel=0 note=54 velocity=100 time=0.05357137499999999
EXTRACT: note_on channel=9 note=42 velocity=100 time=0
EXTRACT: control_change channel=1 control=10 value=0 time=0
EXTRACT: note_on channel=1 note=68 velocity=100 time=0
EXTRACT: note_on channel=4 note=66 velocity=100 time=0
EXTRACT: note_off channel=6 note=63 velocity=0 time=0
EXTRACT: note_on channel=6 note=61 velocity=100 time=0
EXTRACT: note_off channel=0 note=54 velocity=0 time=0.07142849999999999
EXTRACT: note_off channel=4 note=66 velocity=0 time=0.023809499999999997
EXTRACT: note_off channel=9 note=42 velocity=0 time=0.0327380625
EXTRACT: note_on channel=0 note=56 velocity=100 time=0.014880937499999998
EXTRACT: note_off channel=2 note=32 velocity=0 time=0.038690437499999994
EXTRACT: note_on channel=9 note=38 velocity=100 time=0.10416656249999999
EXTRACT: control_change channel=4 control=10 value=104 time=0
EXTRACT: note_on channel=4 note=68 velocity=100 time=0
EXTRACT: note_off channel=1 note=68 velocity=0 time=0.0208333125
EXTRACT: note_off channel=0 note=56 velocity=0 time=0.023809499999999997
EXTRACT: note_off channel=11 note=68 velocity=0 time=0.056547562499999995
EXTRACT: note_off channel=4 note=68 velocity=0 time=0.017857124999999998
EXTRACT: note_off channel=9 note=38 velocity=0 time=0.008928562499999999
EXTRACT: note_on channel=0 note=56 velocity=100 time=0.014880937499999998
EXTRACT: note_off channel=6 note=61 velocity=0 time=0
EXTRACT: note_on channel=6 note=59 velocity=100 time=0
EXTRACT: note_on channel=9 note=42 velocity=100 time=0.14285699999999998
EXTRACT: control_change channel=1 control=10 value=127 time=0
EXTRACT: note_on channel=1 note=68 velocity=100 time=0
EXTRACT: note_off channel=6 note=59 velocity=0 time=0
EXTRACT: note_on channel=6 note=56 velocity=100 time=0
EXTRACT: note_off channel=0 note=56 velocity=0 time=0.0446428125
EXTRACT: note_off channel=9 note=42 velocity=0 time=0.08333325
EXTRACT: note_on channel=0 note=56 velocity=100 time=0.014880937499999998
EXTRACT: control_change channel=4 control=10 value=33 time=0
EXTRACT: note_on channel=4 note=63 velocity=100 time=0
EXTRACT: note_on channel=11 note=68 velocity=100 time=0
EXTRACT: note_on channel=2 note=31 velocity=100 time=0.07142849999999999
EXTRACT: note_off channel=0 note=56 velocity=0 time=0.038690437499999994
EXTRACT: note_off channel=4 note=63 velocity=0 time=0.008928562499999999
EXTRACT: note_on channel=0 note=54 velocity=100 time=0.023809499999999997
EXTRACT: note_on channel=9 note=35 velocity=100 time=0
EXTRACT: note_on channel=9 note=36 velocity=100 time=0
EXTRACT: note_off channel=2 note=31 velocity=0 time=0
EXTRACT: note_on channel=2 note=32 velocity=100 time=0
EXTRACT: note_on channel=11 note=66 velocity=100 time=0
EXTRACT: note_off channel=11 note=68 velocity=0 time=0.0446428125
EXTRACT: note_off channel=9 note=35 velocity=0 time=0.08333325
EXTRACT: note_off channel=9 note=36 velocity=0 time=0
EXTRACT: note_off channel=1 note=68 velocity=0 time=0.008928562499999999
EXTRACT: note_off channel=0 note=54 velocity=0 time=0.10416656249999999
EXTRACT: note_off channel=6 note=56 velocity=0 time=0.0327380625
EXTRACT: note_on channel=9 note=42 velocity=100 time=0.011904749999999999
EXTRACT: control_change channel=4 control=10 value=95 time=0
EXTRACT: note_on channel=4 note=66 velocity=100 time=0
EXTRACT: note_off channel=4 note=66 velocity=0 time=0.09523799999999999
EXTRACT: note_off channel=9 note=42 velocity=0 time=0.0327380625
EXTRACT: note_off channel=2 note=32 velocity=0 time=0.011904749999999999
EXTRACT: note_on channel=0 note=56 velocity=100 time=0.0029761874999999997
EXTRACT: note_off channel=0 note=56 velocity=0 time=0.14285699999999998
EXTRACT: note_on channel=9 note=38 velocity=100 time=0
EXTRACT: note_on channel=3 note=56 velocity=100 time=0
EXTRACT: control_change channel=4 control=10 value=33 time=0
EXTRACT: note_on channel=4 note=68 velocity=100 time=0
EXTRACT: note_off channel=9 note=38 velocity=0 time=0.1279760625
EXTRACT: note_off channel=3 note=56 velocity=0 time=0.008928562499999999
EXTRACT: note_on channel=0 note=56 velocity=100 time=0.005952374999999999
EXTRACT: note_on channel=3 note=54 velocity=100 time=0
EXTRACT: note_off channel=4 note=68 velocity=0 time=0
EXTRACT: control_change channel=4 control=10 value=95 time=0
EXTRACT: note_on channel=4 note=71 velocity=100 time=0
EXTRACT: note_off channel=0 note=56 velocity=0 time=0.14285699999999998
EXTRACT: note_on channel=9 note=42 velocity=100 time=0
EXTRACT: note_on channel=9 note=49 velocity=60 time=0
EXTRACT: note_off channel=3 note=54 velocity=0 time=0
EXTRACT: note_on channel=3 note=56 velocity=100 time=0
EXTRACT: note_on channel=6 note=56 velocity=100 time=0
EXTRACT: note_off channel=4 note=71 velocity=0 time=0.0208333125
EXTRACT: note_off channel=9 note=42 velocity=0 time=0.10714274999999998
EXTRACT: note_off channel=9 note=49 velocity=0 time=0
EXTRACT: note_on channel=0 note=56 velocity=100 time=0.014880937499999998
EXTRACT: note_off channel=3 note=56 velocity=0 time=0
EXTRACT: note_on channel=3 note=56 velocity=100 time=0
EXTRACT: note_off channel=11 note=66 velocity=0 time=0.10119037499999999
EXTRACT: note_off channel=0 note=56 velocity=0 time=0.026785687499999995
EXTRACT: note_on channel=9 note=35 velocity=100 time=0.014880937499999998
EXTRACT: note_on channel=9 note=36 velocity=100 time=0
EXTRACT: note_on channel=2 note=32 velocity=100 time=0
EXTRACT: note_on channel=5 note=56 velocity=100 time=0
EXTRACT: note_off channel=6 note=56 velocity=0 time=0
EXTRACT: note_on channel=6 note=61 velocity=100 time=0
EXTRACT: note_off channel=9 note=35 velocity=0 time=0.1279760625
EXTRACT: note_off channel=9 note=36 velocity=0 time=0
EXTRACT: note_off channel=5 note=56 velocity=0 time=0.008928562499999999
EXTRACT: note_on channel=5 note=54 velocity=100 time=0.005952374999999999
EXTRACT: note_off channel=3 note=56 velocity=0 time=0.089285625
EXTRACT: note_on channel=9 note=42 velocity=100 time=0.05357137499999999
EXTRACT: note_off channel=2 note=32 velocity=0 time=0
EXTRACT: note_on channel=2 note=32 velocity=80 time=0
EXTRACT: note_off channel=5 note=54 velocity=0 time=0
EXTRACT: note_on channel=5 note=56 velocity=100 time=0
EXTRACT: note_off channel=6 note=61 velocity=0 time=0
EXTRACT: note_on channel=6 note=56 velocity=100 time=0
EXTRACT: note_off channel=9 note=42 velocity=0 time=0.1279760625
EXTRACT: note_off channel=5 note=56 velocity=0 time=0.014880937499999998
EXTRACT: note_on channel=5 note=54 velocity=100 time=0
EXTRACT: note_off channel=6 note=56 velocity=0 time=0
EXTRACT: note_on channel=6 note=56 velocity=100 time=0
EXTRACT: note_on channel=9 note=38 velocity=100 time=0.14285699999999998
EXTRACT: note_off channel=2 note=32 velocity=0 time=0
EXTRACT: note_on channel=2 note=30 velocity=100 time=0
EXTRACT: note_off channel=5 note=54 velocity=0 time=0
EXTRACT: note_on channel=5 note=56 velocity=100 time=0
EXTRACT: note_off channel=9 note=38 velocity=0 time=0.1279760625
EXTRACT: note_off channel=5 note=56 velocity=0 time=0.008928562499999999
EXTRACT: note_on channel=5 note=54 velocity=100 time=0.005952374999999999
EXTRACT: note_off channel=6 note=56 velocity=0 time=0
EXTRACT: note_on channel=6 note=56 velocity=100 time=0
EXTRACT: note_on channel=9 note=35 velocity=100 time=0.14285699999999998
EXTRACT: note_on channel=9 note=36 velocity=100 time=0
EXTRACT: note_on channel=9 note=42 velocity=100 time=0
EXTRACT: note_off channel=2 note=30 velocity=0 time=0
EXTRACT: note_on channel=2 note=30 velocity=80 time=0
EXTRACT: note_off channel=5 note=54 velocity=0 time=0
EXTRACT: note_on channel=5 note=56 velocity=100 time=0
EXTRACT: note_off channel=6 note=56 velocity=0 time=0
EXTRACT: note_on channel=6 note=61 velocity=100 time=0
EXTRACT: note_on channel=11 note=66 velocity=68 time=0
EXTRACT: note_off channel=11 note=66 velocity=0 time=0.07142849999999999
EXTRACT: note_off channel=9 note=35 velocity=0 time=0.056547562499999995
EXTRACT: note_off channel=9 note=36 velocity=0 time=0
EXTRACT: note_off channel=9 note=42 velocity=0 time=0
EXTRACT: note_off channel=5 note=56 velocity=0 time=0.014880937499999998
EXTRACT: note_on channel=5 note=54 velocity=100 time=0
EXTRACT: note_on channel=11 note=63 velocity=68 time=0
EXTRACT: note_off channel=11 note=63 velocity=0 time=0.07142849999999999
EXTRACT: note_on channel=9 note=35 velocity=100 time=0.07142849999999999
EXTRACT: note_on channel=9 note=36 velocity=100 time=0
EXTRACT: note_off channel=2 note=30 velocity=0 time=0
EXTRACT: note_on channel=2 note=29 velocity=100 time=0
EXTRACT: note_off channel=5 note=54 velocity=0 time=0
EXTRACT: note_on channel=5 note=56 velocity=100 time=0
EXTRACT: note_off channel=6 note=61 velocity=0 time=0
EXTRACT: note_on channel=6 note=56 velocity=100 time=0
EXTRACT: note_on channel=11 note=66 velocity=68 time=0
EXTRACT: note_off channel=11 note=66 velocity=0 time=0.07142849999999999
EXTRACT: note_off channel=9 note=35 velocity=0 time=0.056547562499999995
EXTRACT: note_off channel=9 note=36 velocity=0 time=0
EXTRACT: note_off channel=5 note=56 velocity=0 time=0.008928562499999999
EXTRACT: note_on channel=5 note=54 velocity=100 time=0.005952374999999999
EXTRACT: note_on channel=11 note=63 velocity=68 time=0
EXTRACT: note_off channel=11 note=63 velocity=0 time=0.07142849999999999
EXTRACT: note_on channel=9 note=38 velocity=100 time=0.07142849999999999
EXTRACT: note_on channel=9 note=42 velocity=100 time=0
EXTRACT: note_off channel=2 note=29 velocity=0 time=0
EXTRACT: note_on channel=2 note=29 velocity=80 time=0
EXTRACT: note_off channel=5 note=54 velocity=0 time=0
EXTRACT: note_on channel=5 note=56 velocity=100 time=0
EXTRACT: note_on channel=11 note=66 velocity=68 time=0
EXTRACT: note_off channel=11 note=66 velocity=0 time=0.07142849999999999
EXTRACT: note_off channel=9 note=38 velocity=0 time=0.056547562499999995
EXTRACT: note_off channel=9 note=42 velocity=0 time=0
EXTRACT: note_off channel=5 note=56 velocity=0 time=0.014880937499999998
EXTRACT: note_on channel=5 note=54 velocity=100 time=0
EXTRACT: note_on channel=11 note=63 velocity=89 time=0
EXTRACT: note_off channel=11 note=63 velocity=0 time=0.07142849999999999
EXTRACT: note_on channel=9 note=38 velocity=100 time=0.07142849999999999
EXTRACT: note_off channel=2 note=29 velocity=0 time=0
EXTRACT: note_on channel=2 note=27 velocity=100 time=0
EXTRACT: note_off channel=5 note=54 velocity=0 time=0
EXTRACT: note_on channel=5 note=56 velocity=100 time=0
EXTRACT: note_on channel=11 note=66 velocity=100 time=0
EXTRACT: note_off channel=11 note=66 velocity=0 time=0.07142849999999999
EXTRACT: note_off channel=9 note=38 velocity=0 time=0.056547562499999995
EXTRACT: note_off channel=5 note=56 velocity=0 time=0.008928562499999999
EXTRACT: note_on channel=5 note=54 velocity=100 time=0.005952374999999999
EXTRACT: note_on channel=11 note=68 velocity=100 time=0
EXTRACT: note_on channel=9 note=42 velocity=100 time=0.14285699999999998
EXTRACT: note_on channel=9 note=49 velocity=60 time=0
EXTRACT: note_off channel=2 note=27 velocity=0 time=0
EXTRACT: note_on channel=2 note=27 velocity=80 time=0
EXTRACT: note_off channel=5 note=54 velocity=0 time=0
EXTRACT: note_on channel=5 note=56 velocity=100 time=0
EXTRACT: note_off channel=9 note=42 velocity=0 time=0.1279760625
EXTRACT: note_off channel=9 note=49 velocity=0 time=0
EXTRACT: note_off channel=5 note=56 velocity=0 time=0.014880937499999998
EXTRACT: note_on channel=5 note=54 velocity=100 time=0
EXTRACT: note_off channel=6 note=56 velocity=0 time=0.13095225
EXTRACT: note_on channel=0 note=54 velocity=100 time=0.011904749999999999
EXTRACT: note_on channel=9 note=35 velocity=100 time=0
EXTRACT: note_on channel=9 note=36 velocity=100 time=0
EXTRACT: control_change channel=1 control=10 value=0 time=0
EXTRACT: note_on channel=2 note=32 velocity=100 time=0
EXTRACT: note_off channel=5 note=54 velocity=0 time=0
EXTRACT: note_on channel=5 note=60 velocity=60 time=0
EXTRACT: note_on channel=10 note=68 velocity=100 time=0
EXTRACT: note_on channel=6 note=63 velocity=100 time=0.005952374999999999
EXTRACT: note_off channel=0 note=54 velocity=0 time=0.065476125
EXTRACT: note_off channel=7 note=68 velocity=0 time=0.011904749999999999
EXTRACT: note_off channel=8 note=68 velocity=0 time=0
EXTRACT: note_off channel=9 note=35 velocity=0 time=0.0446428125
EXTRACT: note_off channel=9 note=36 velocity=0 time=0
EXTRACT: note_on channel=0 note=54 velocity=100 time=0.014880937499999998
EXTRACT: note_off channel=2 note=27 velocity=0 time=0.038690437499999994
EXTRACT: note_off channel=0 note=54 velocity=0 time=0.0327380625
EXTRACT: note_on channel=0 note=54 velocity=100 time=0.07142849999999999
EXTRACT: note_on channel=9 note=42 velocity=100 time=0
EXTRACT: note_on channel=1 note=68 velocity=100 time=0
EXTRACT: note_on channel=4 note=66 velocity=100 time=0
EXTRACT: note_off channel=0 note=54 velocity=0 time=0.07142849999999999
EXTRACT: note_off channel=4 note=66 velocity=0 time=0.023809499999999997
EXTRACT: note_off channel=9 note=42 velocity=0 time=0.0327380625
EXTRACT: note_on channel=0 note=56 velocity=100 time=0.014880937499999998
EXTRACT: note_off channel=2 note=32 velocity=0 time=0.038690437499999994
EXTRACT: note_off channel=5 note=60 velocity=0 time=0.035714249999999996
EXTRACT: note_off channel=6 note=63 velocity=0 time=0.06249993749999999
EXTRACT: note_on channel=9 note=38 velocity=100 time=0.005952374999999999
EXTRACT: control_change channel=4 control=10 value=104 time=0
EXTRACT: note_on channel=4 note=68 velocity=100 time=0
EXTRACT: note_off channel=1 note=68 velocity=0 time=0.0208333125
EXTRACT: note_off channel=0 note=56 velocity=0 time=0.023809499999999997
EXTRACT: note_off channel=11 note=68 velocity=0 time=0.056547562499999995
EXTRACT: note_off channel=4 note=68 velocity=0 time=0.017857124999999998
EXTRACT: note_off channel=9 note=38 velocity=0 time=0.008928562499999999
EXTRACT: note_on channel=0 note=56 velocity=100 time=0.014880937499999998
EXTRACT: note_on channel=9 note=42 velocity=100 time=0.14285699999999998
EXTRACT: control_change channel=1 control=10 value=127 time=0
EXTRACT: note_on channel=1 note=68 velocity=100 time=0
EXTRACT: note_off channel=0 note=56 velocity=0 time=0.0446428125
EXTRACT: note_off channel=9 note=42 velocity=0 time=0.08333325
EXTRACT: note_on channel=0 note=56 velocity=100 time=0.014880937499999998
EXTRACT: control_change channel=4 control=10 value=33 time=0
EXTRACT: note_on channel=4 note=63 velocity=100 time=0
EXTRACT: note_on channel=6 note=63 velocity=100 time=0
EXTRACT: note_on channel=11 note=68 velocity=100 time=0
EXTRACT: note_on channel=2 note=31 velocity=100 time=0.07142849999999999
EXTRACT: note_off channel=0 note=56 velocity=0 time=0.038690437499999994
EXTRACT: note_off channel=4 note=63 velocity=0 time=0.008928562499999999
EXTRACT: note_on channel=0 note=54 velocity=100 time=0.023809499999999997
EXTRACT: note_on channel=9 note=35 velocity=100 time=0
EXTRACT: note_on channel=9 note=36 velocity=100 time=0
EXTRACT: note_off channel=2 note=31 velocity=0 time=0
EXTRACT: note_on channel=2 note=32 velocity=100 time=0
EXTRACT: note_on channel=11 note=66 velocity=100 time=0
EXTRACT: note_off channel=11 note=68 velocity=0 time=0.0446428125
EXTRACT: note_off channel=9 note=35 velocity=0 time=0.08333325
EXTRACT: note_off channel=9 note=36 velocity=0 time=0
EXTRACT: note_off channel=1 note=68 velocity=0 time=0.008928562499999999
EXTRACT: note_off channel=0 note=54 velocity=0 time=0.10416656249999999
EXTRACT: note_on channel=9 note=42 velocity=100 time=0.0446428125
EXTRACT: control_change channel=4 control=10 value=95 time=0
EXTRACT: note_on channel=4 note=66 velocity=100 time=0
EXTRACT: note_off channel=6 note=63 velocity=0 time=0
EXTRACT: note_on channel=6 note=61 velocity=100 time=0
EXTRACT: note_off channel=4 note=66 velocity=0 time=0.09523799999999999
EXTRACT: note_off channel=9 note=42 velocity=0 time=0.0327380625
EXTRACT: note_off channel=2 note=32 velocity=0 time=0.011904749999999999
EXTRACT: note_on channel=0 note=56 velocity=100 time=0.0029761874999999997
EXTRACT: note_off channel=0 note=56 velocity=0 time=0.14285699999999998
EXTRACT: note_on channel=9 note=38 velocity=100 time=0
EXTRACT: note_on channel=3 note=56 velocity=100 time=0
EXTRACT: control_change channel=4 control=10 value=33 time=0
EXTRACT: note_on channel=4 note=68 velocity=100 time=0
EXTRACT: note_off channel=6 note=61 velocity=0 time=0
EXTRACT: note_on channel=6 note=59 velocity=100 time=0
EXTRACT: note_off channel=9 note=38 velocity=0 time=0.1279760625
EXTRACT: note_off channel=3 note=56 velocity=0 time=0.008928562499999999
EXTRACT: note_on channel=0 note=56 velocity=100 time=0.005952374999999999
EXTRACT: note_on channel=3 note=54 velocity=100 time=0
EXTRACT: note_off channel=4 note=68 velocity=0 time=0
EXTRACT: control_change channel=4 control=10 value=95 time=0
EXTRACT: note_on channel=4 note=71 velocity=100 time=0
EXTRACT: note_off channel=0 note=56 velocity=0 time=0.14285699999999998
EXTRACT: note_on channel=9 note=42 velocity=100 time=0
EXTRACT: note_on channel=9 note=49 velocity=60 time=0
EXTRACT: note_off channel=3 note=54 velocity=0 time=0
EXTRACT: note_on channel=3 note=56 velocity=100 time=0
EXTRACT: note_off channel=6 note=59 velocity=0 time=0
EXTRACT: note_on channel=6 note=61 velocity=100 time=0
EXTRACT: note_off channel=4 note=71 velocity=0 time=0.0208333125
EXTRACT: note_off channel=9 note=42 velocity=0 time=0.10714274999999998
EXTRACT: note_off channel=9 note=49 velocity=0 time=0
EXTRACT: note_on channel=0 note=56 velocity=100 time=0.014880937499999998
EXTRACT: note_off channel=3 note=56 velocity=0 time=0
EXTRACT: note_on channel=3 note=56 velocity=100 time=0
EXTRACT: note_off channel=11 note=66 velocity=0 time=0.10119037499999999
EXTRACT: note_off channel=10 note=68 velocity=0 time=0.014880937499999998
EXTRACT: note_off channel=0 note=56 velocity=0 time=0.011904749999999999
EXTRACT: note_off channel=6 note=61 velocity=0 time=0.0029761874999999997
EXTRACT: note_on channel=6 note=63 velocity=100 time=0
EXTRACT: note_on channel=0 note=54 velocity=100 time=0.011904749999999999
EXTRACT: note_on channel=9 note=35 velocity=100 time=0
EXTRACT: note_on channel=9 note=36 velocity=100 time=0
EXTRACT: note_on channel=2 note=32 velocity=100 time=0
EXTRACT: control_change channel=4 control=10 value=24 time=0
EXTRACT: note_on channel=10 note=66 velocity=100 time=0
EXTRACT: note_on channel=12 note=68 velocity=100 time=0
EXTRACT: note_off channel=0 note=54 velocity=0 time=0.07142849999999999
EXTRACT: note_off channel=9 note=35 velocity=0 time=0.056547562499999995
EXTRACT: note_off channel=9 note=36 velocity=0 time=0
EXTRACT: note_on channel=0 note=54 velocity=100 time=0.014880937499999998
EXTRACT: note_off channel=12 note=68 velocity=0 time=0
EXTRACT: note_on channel=12 note=68 velocity=100 time=0
EXTRACT: note_off channel=0 note=54 velocity=0 time=0.07142849999999999
EXTRACT: note_off channel=3 note=56 velocity=0 time=0.017857124999999998
EXTRACT: note_on channel=0 note=54 velocity=100 time=0.05357137499999999
EXTRACT: note_on channel=9 note=42 velocity=100 time=0
EXTRACT: control_change channel=4 control=10 value=104 time=0
EXTRACT: note_on channel=4 note=66 velocity=100 time=0
EXTRACT: note_off channel=12 note=68 velocity=0 time=0
EXTRACT: note_on channel=12 note=66 velocity=100 time=0
EXTRACT: note_off channel=0 note=54 velocity=0 time=0.07142849999999999
EXTRACT: note_off channel=4 note=66 velocity=0 time=0.023809499999999997
EXTRACT: note_off channel=9 note=42 velocity=0 time=0.0327380625
EXTRACT: note_off channel=12 note=66 velocity=0 time=0.008928562499999999
EXTRACT: note_on channel=0 note=56 velocity=100 time=0.005952374999999999
EXTRACT: note_on channel=12 note=63 velocity=100 time=0
EXTRACT: note_off channel=2 note=32 velocity=0 time=0.038690437499999994
EXTRACT: note_off channel=6 note=63 velocity=0 time=0.08035706249999999
EXTRACT: note_on channel=9 note=38 velocity=100 time=0.023809499999999997
EXTRACT: note_on channel=4 note=68 velocity=100 time=0
EXTRACT: note_off channel=12 note=63 velocity=0 time=0
EXTRACT: note_on channel=12 note=63 velocity=100 time=0
EXTRACT: note_off channel=0 note=56 velocity=0 time=0.0446428125
EXTRACT: note_off channel=4 note=68 velocity=0 time=0.0744046875
EXTRACT: note_off channel=9 note=38 velocity=0 time=0.008928562499999999
EXTRACT: note_on channel=0 note=56 velocity=100 time=0.014880937499999998
EXTRACT: control_change channel=4 control=10 value=33 time=0
EXTRACT: note_off channel=12 note=63 velocity=0 time=0
EXTRACT: note_on channel=12 note=61 velocity=100 time=0
EXTRACT: note_off channel=12 note=61 velocity=0 time=0.11904749999999999
EXTRACT: note_on channel=9 note=42 velocity=100 time=0.023809499999999997
EXTRACT: note_on channel=11 note=66 velocity=68 time=0
EXTRACT: note_on channel=12 note=61 velocity=100 time=0
EXTRACT: note_off channel=0 note=56 velocity=0 time=0.0446428125
EXTRACT: note_off channel=11 note=66 velocity=0 time=0.026785687499999995
EXTRACT: note_off channel=12 note=61 velocity=0 time=0.047618999999999995
EXTRACT: note_off channel=9 note=42 velocity=0 time=0.008928562499999999
EXTRACT: note_on channel=0 note=56 velocity=100 time=0.014880937499999998
EXTRACT: note_on channel=4 note=63 velocity=100 time=0
EXTRACT: note_on channel=6 note=63 velocity=100 time=0
EXTRACT: note_on channel=11 note=63 velocity=68 time=0
EXTRACT: note_on channel=12 note=58 velocity=100 time=0
EXTRACT: note_on channel=2 note=31 velocity=100 time=0.07142849999999999
EXTRACT: note_off channel=11 note=63 velocity=0 time=0
EXTRACT: note_off channel=0 note=56 velocity=0 time=0.038690437499999994
EXTRACT: note_off channel=4 note=63 velocity=0 time=0.008928562499999999
EXTRACT: note_on channel=0 note=54 velocity=100 time=0.023809499999999997
EXTRACT: note_on channel=9 note=35 velocity=100 time=0
EXTRACT: note_on channel=9 note=36 velocity=100 time=0
EXTRACT: note_off channel=2 note=31 velocity=0 time=0
EXTRACT: note_on channel=2 note=32 velocity=100 time=0
EXTRACT: control_change channel=4 control=10 value=95 time=0
EXTRACT: note_on channel=11 note=66 velocity=68 time=0
EXTRACT: note_off channel=12 note=58 velocity=0 time=0
EXTRACT: note_on channel=12 note=56 velocity=100 time=0
EXTRACT: note_off channel=11 note=66 velocity=0 time=0.07142849999999999
EXTRACT: note_off channel=9 note=35 velocity=0 time=0.056547562499999995
EXTRACT: note_off channel=9 note=36 velocity=0 time=0
EXTRACT: note_on channel=11 note=63 velocity=68 time=0.014880937499999998
EXTRACT: note_off channel=11 note=63 velocity=0 time=0.07142849999999999
EXTRACT: note_off channel=0 note=54 velocity=0 time=0.026785687499999995
EXTRACT: note_off channel=12 note=56 velocity=0 time=0.014880937499999998
EXTRACT: note_on channel=9 note=42 velocity=100 time=0.029761874999999997
EXTRACT: control_change channel=4 control=10 value=33 time=0
EXTRACT: note_on channel=4 note=66 velocity=100 time=0
EXTRACT: note_off channel=6 note=63 velocity=0 time=0
EXTRACT: note_on channel=6 note=61 velocity=100 time=0
EXTRACT: note_on channel=11 note=66 velocity=68 time=0
EXTRACT: note_off channel=11 note=66 velocity=0 time=0.07142849999999999
EXTRACT: note_off channel=4 note=66 velocity=0 time=0.023809499999999997
EXTRACT: note_off channel=9 note=42 velocity=0 time=0.0327380625
EXTRACT: note_off channel=2 note=32 velocity=0 time=0.011904749999999999
EXTRACT: note_on channel=0 note=56 velocity=100 time=0.0029761874999999997
EXTRACT: control_change channel=4 control=10 value=95 time=0
EXTRACT: note_on channel=11 note=63 velocity=89 time=0
EXTRACT: note_off channel=11 note=63 velocity=0 time=0.07142849999999999
EXTRACT: note_off channel=0 note=56 velocity=0 time=0.07142849999999999
EXTRACT: note_on channel=9 note=38 velocity=100 time=0
EXTRACT: note_on channel=3 note=56 velocity=100 time=0
EXTRACT: note_on channel=4 note=68 velocity=100 time=0
EXTRACT: note_off channel=6 note=61 velocity=0 time=0
EXTRACT: note_on channel=6 note=59 velocity=100 time=0
EXTRACT: note_on channel=11 note=66 velocity=100 time=0
EXTRACT: note_off channel=11 note=66 velocity=0 time=0.07142849999999999
EXTRACT: note_off channel=9 note=38 velocity=0 time=0.056547562499999995
EXTRACT: note_off channel=3 note=56 velocity=0 time=0.008928562499999999
EXTRACT: note_on channel=0 note=56 velocity=100 time=0.005952374999999999
EXTRACT: note_on channel=3 note=54 velocity=100 time=0
EXTRACT: note_off channel=4 note=68 velocity=0 time=0
EXTRACT: note_on channel=4 note=71 velocity=100 time=0
EXTRACT: note_on channel=11 note=68 velocity=100 time=0
EXTRACT: note_off channel=0 note=56 velocity=0 time=0.14285699999999998
EXTRACT: note_on channel=9 note=35 velocity=100 time=0
EXTRACT: note_on channel=9 note=36 velocity=100 time=0
EXTRACT: note_on channel=9 note=42 velocity=100 time=0
EXTRACT: note_on channel=9 note=49 velocity=60 time=0
EXTRACT: note_off channel=3 note=54 velocity=0 time=0
EXTRACT: note_on channel=3 note=56 velocity=100 time=0
EXTRACT: note_off channel=6 note=59 velocity=0 time=0
EXTRACT: note_on channel=6 note=61 velocity=100 time=0
EXTRACT: note_off channel=4 note=71 velocity=0 time=0.0208333125
EXTRACT: note_off channel=9 note=35 velocity=0 time=0.10714274999999998
EXTRACT: note_off channel=9 note=36 velocity=0 time=0
EXTRACT: note_off channel=9 note=42 velocity=0 time=0
EXTRACT: note_off channel=9 note=49 velocity=0 time=0
EXTRACT: note_on channel=0 note=56 velocity=100 time=0.014880937499999998
EXTRACT: note_off channel=3 note=56 velocity=0 time=0
EXTRACT: note_on channel=3 note=56 velocity=100 time=0
EXTRACT: note_off channel=0 note=56 velocity=0 time=0.1279760625
EXTRACT: note_off channel=6 note=61 velocity=0 time=0.0029761874999999997
EXTRACT: note_on channel=6 note=63 velocity=100 time=0
EXTRACT: note_on channel=0 note=54 velocity=100 time=0.011904749999999999
EXTRACT: note_on channel=9 note=35 velocity=100 time=0
EXTRACT: note_on channel=9 note=36 velocity=100 time=0
EXTRACT: note_on channel=2 note=32 velocity=100 time=0
EXTRACT: control_change channel=4 control=10 value=24 time=0
EXTRACT: note_on channel=10 note=68 velocity=100 time=0
EXTRACT: note_off channel=10 note=66 velocity=0 time=0.038690437499999994
EXTRACT: note_off channel=0 note=54 velocity=0 time=0.0327380625
EXTRACT: note_off channel=9 note=35 velocity=0 time=0.056547562499999995
EXTRACT: note_off channel=9 note=36 velocity=0 time=0
EXTRACT: note_on channel=0 note=54 velocity=100 time=0.014880937499999998
EXTRACT: note_off channel=0 note=54 velocity=0 time=0.07142849999999999
EXTRACT: note_off channel=3 note=56 velocity=0 time=0.017857124999999998
EXTRACT: note_on channel=0 note=54 velocity=100 time=0.05357137499999999
EXTRACT: note_on channel=9 note=42 velocity=100 time=0
EXTRACT: control_change channel=1 control=10 value=0 time=0
EXTRACT: note_on channel=1 note=68 velocity=100 time=0
EXTRACT: control_change channel=4 control=10 value=104 time=0
EXTRACT: note_on channel=4 note=66 velocity=100 time=0
EXTRACT: note_off channel=6 note=63 velocity=0 time=0
EXTRACT: note_on channel=6 note=61 velocity=100 time=0
EXTRACT: note_off channel=0 note=54 velocity=0 time=0.07142849999999999
EXTRACT: note_off channel=4 note=66 velocity=0 time=0.023809499999999997
EXTRACT: note_off channel=9 note=42 velocity=0 time=0.0327380625
EXTRACT: note_on channel=0 note=56 velocity=100 time=0.014880937499999998
EXTRACT: note_off channel=2 note=32 velocity=0 time=0.038690437499999994
EXTRACT: note_on channel=9 note=38 velocity=100 time=0.10416656249999999
EXTRACT: note_on channel=4 note=68 velocity=100 time=0
EXTRACT: note_off channel=1 note=68 velocity=0 time=0.0208333125
EXTRACT: note_off channel=0 note=56 velocity=0 time=0.023809499999999997
EXTRACT: note_off channel=11 note=68 velocity=0 time=0.056547562499999995
EXTRACT: note_off channel=4 note=68 velocity=0 time=0.017857124999999998
EXTRACT: note_off channel=9 note=38 velocity=0 time=0.008928562499999999
EXTRACT: note_on channel=0 note=56 velocity=100 time=0.014880937499999998
EXTRACT: control_change channel=4 control=10 value=33 time=0
EXTRACT: note_off channel=6 note=61 velocity=0 time=0
EXTRACT: note_on channel=6 note=59 velocity=100 time=0
EXTRACT: note_on channel=9 note=42 velocity=100 time=0.14285699999999998
EXTRACT: control_change channel=1 control=10 value=127 time=0
EXTRACT: note_on channel=1 note=68 velocity=100 time=0
EXTRACT: note_off channel=6 note=59 velocity=0 time=0
EXTRACT: note_on channel=6 note=56 velocity=100 time=0
EXTRACT: note_off channel=0 note=56 velocity=0 time=0.0446428125
EXTRACT: note_off channel=9 note=42 velocity=0 time=0.08333325
EXTRACT: note_on channel=0 note=56 velocity=100 time=0.014880937499999998
EXTRACT: note_on channel=4 note=63 velocity=100 time=0
EXTRACT: note_on channel=11 note=68 velocity=100 time=0
EXTRACT: note_on channel=2 note=31 velocity=100 time=0.07142849999999999
EXTRACT: note_off channel=0 note=56 velocity=0 time=0.038690437499999994
EXTRACT: note_off channel=4 note=63 velocity=0 time=0.008928562499999999
EXTRACT: note_on channel=0 note=54 velocity=100 time=0.023809499999999997
EXTRACT: note_on channel=9 note=35 velocity=100 time=0
EXTRACT: note_on channel=9 note=36 velocity=100 time=0
EXTRACT: note_off channel=2 note=31 velocity=0 time=0
EXTRACT: note_on channel=2 note=32 velocity=100 time=0
EXTRACT: control_change channel=4 control=10 value=95 time=0
EXTRACT: note_on channel=11 note=66 velocity=100 time=0
EXTRACT: note_off channel=11 note=68 velocity=0 time=0.0446428125
EXTRACT: note_off channel=9 note=35 velocity=0 time=0.08333325
EXTRACT: note_off channel=9 note=36 velocity=0 time=0
EXTRACT: note_off channel=1 note=68 velocity=0 time=0.008928562499999999
EXTRACT: note_off channel=0 note=54 velocity=0 time=0.10416656249999999
EXTRACT: note_off channel=6 note=56 velocity=0 time=0.0327380625
EXTRACT: note_on channel=9 note=42 velocity=100 time=0.011904749999999999
EXTRACT: control_change channel=4 control=10 value=33 time=0
EXTRACT: note_on channel=4 note=66 velocity=100 time=0
EXTRACT: note_off channel=4 note=66 velocity=0 time=0.09523799999999999
EXTRACT: note_off channel=9 note=42 velocity=0 time=0.0327380625
EXTRACT: note_off channel=2 note=32 velocity=0 time=0.011904749999999999
EXTRACT: note_on channel=0 note=56 velocity=100 time=0.0029761874999999997
EXTRACT: control_change channel=4 control=10 value=95 time=0
EXTRACT: note_off channel=0 note=56 velocity=0 time=0.14285699999999998
EXTRACT: note_on channel=9 note=38 velocity=100 time=0
EXTRACT: note_on channel=3 note=56 velocity=100 time=0
EXTRACT: note_on channel=4 note=68 velocity=100 time=0
EXTRACT: note_off channel=9 note=38 velocity=0 time=0.1279760625
EXTRACT: note_off channel=3 note=56 velocity=0 time=0.008928562499999999
EXTRACT: note_on channel=0 note=56 velocity=100 time=0.005952374999999999
EXTRACT: note_on channel=3 note=54 velocity=100 time=0
EXTRACT: note_off channel=4 note=68 velocity=0 time=0
EXTRACT: note_on channel=4 note=71 velocity=100 time=0
EXTRACT: note_off channel=0 note=56 velocity=0 time=0.14285699999999998
EXTRACT: note_on channel=9 note=42 velocity=100 time=0
EXTRACT: note_on channel=9 note=49 velocity=60 time=0
EXTRACT: note_off channel=3 note=54 velocity=0 time=0
EXTRACT: note_on channel=3 note=56 velocity=100 time=0
EXTRACT: note_on channel=6 note=56 velocity=100 time=0
EXTRACT: note_off channel=4 note=71 velocity=0 time=0.0208333125
EXTRACT: note_off channel=9 note=42 velocity=0 time=0.10714274999999998
EXTRACT: note_off channel=9 note=49 velocity=0 time=0
EXTRACT: note_on channel=0 note=56 velocity=100 time=0.014880937499999998
EXTRACT: note_off channel=3 note=56 velocity=0 time=0
EXTRACT: note_on channel=3 note=56 velocity=100 time=0
EXTRACT: note_off channel=11 note=66 velocity=0 time=0.10119037499999999
EXTRACT: note_off channel=10 note=68 velocity=0 time=0.005952374999999999
EXTRACT: note_off channel=0 note=56 velocity=0 time=0.0208333125
EXTRACT: note_on channel=0 note=54 velocity=100 time=0.014880937499999998
EXTRACT: note_on channel=9 note=35 velocity=100 time=0
EXTRACT: note_on channel=9 note=36 velocity=100 time=0
EXTRACT: note_on channel=2 note=32 velocity=100 time=0
EXTRACT: note_off channel=6 note=56 velocity=0 time=0
EXTRACT: note_on channel=6 note=61 velocity=100 time=0
EXTRACT: note_on channel=10 note=66 velocity=100 time=0
EXTRACT: note_off channel=0 note=54 velocity=0 time=0.07142849999999999
EXTRACT: note_off channel=9 note=35 velocity=0 time=0.056547562499999995
EXTRACT: note_off channel=9 note=36 velocity=0 time=0
EXTRACT: note_on channel=0 note=54 velocity=100 time=0.014880937499999998
EXTRACT: note_off channel=0 note=54 velocity=0 time=0.07142849999999999
EXTRACT: note_off channel=3 note=56 velocity=0 time=0.017857124999999998
EXTRACT: note_on channel=0 note=54 velocity=100 time=0.05357137499999999
EXTRACT: note_on channel=9 note=42 velocity=100 time=0
EXTRACT: note_off channel=2 note=32 velocity=0 time=0
EXTRACT: note_on channel=2 note=32 velocity=80 time=0
EXTRACT: note_on channel=4 note=66 velocity=100 time=0
EXTRACT: note_off channel=6 note=61 velocity=0 time=0
EXTRACT: note_on channel=6 note=56 velocity=100 time=0
EXTRACT: note_off channel=0 note=54 velocity=0 time=0.07142849999999999
EXTRACT: note_off channel=4 note=66 velocity=0 time=0.023809499999999997
EXTRACT: note_off channel=9 note=42 velocity=0 time=0.0327380625
EXTRACT: note_on channel=0 note=56 velocity=100 time=0.014880937499999998
EXTRACT: note_off channel=6 note=56 velocity=0 time=0
EXTRACT: note_on channel=6 note=56 velocity=100 time=0
EXTRACT: note_on channel=9 note=38 velocity=100 time=0.14285699999999998
EXTRACT: note_off channel=2 note=32 velocity=0 time=0
EXTRACT: note_on channel=2 note=30 velocity=100 time=0
EXTRACT: control_change channel=4 control=10 value=104 time=0
EXTRACT: note_on channel=4 note=68 velocity=100 time=0
EXTRACT: note_off channel=0 note=56 velocity=0 time=0.0446428125
EXTRACT: note_off channel=4 note=68 velocity=0 time=0.0744046875
EXTRACT: note_off channel=9 note=38 velocity=0 time=0.008928562499999999
EXTRACT: note_on channel=0 note=56 velocity=100 time=0.014880937499999998
EXTRACT: note_on channel=9 note=35 velocity=100 time=0.14285699999999998
EXTRACT: note_on channel=9 note=36 velocity=100 time=0
EXTRACT: note_on channel=9 note=42 velocity=100 time=0
EXTRACT: note_off channel=2 note=30 velocity=0 time=0
EXTRACT: note_on channel=2 note=30 velocity=80 time=0
EXTRACT: note_off channel=6 note=56 velocity=0 time=0
EXTRACT: note_on channel=6 note=61 velocity=100 time=0
EXTRACT: note_on channel=11 note=66 velocity=68 time=0
EXTRACT: note_off channel=0 note=56 velocity=0 time=0.0446428125
EXTRACT: note_off channel=11 note=66 velocity=0 time=0.026785687499999995
EXTRACT: note_off channel=9 note=35 velocity=0 time=0.056547562499999995
EXTRACT: note_off channel=9 note=36 velocity=0 time=0
EXTRACT: note_off channel=9 note=42 velocity=0 time=0
EXTRACT: note_on channel=0 note=56 velocity=100 time=0.014880937499999998
EXTRACT: control_change channel=4 control=10 value=33 time=0
EXTRACT: note_on channel=4 note=63 velocity=100 time=0
EXTRACT: note_on channel=11 note=63 velocity=68 time=0
EXTRACT: note_off channel=11 note=63 velocity=0 time=0.07142849999999999
EXTRACT: note_off channel=0 note=56 velocity=0 time=0.038690437499999994
EXTRACT: note_off channel=4 note=63 velocity=0 time=0.008928562499999999
EXTRACT: note_on channel=0 note=54 velocity=100 time=0.023809499999999997
EXTRACT: note_on channel=9 note=35 velocity=100 time=0
EXTRACT: note_on channel=9 note=36 velocity=100 time=0
EXTRACT: note_off channel=2 note=30 velocity=0 time=0
EXTRACT: note_on channel=2 note=29 velocity=100 time=0
EXTRACT: note_off channel=6 note=61 velocity=0 time=0
EXTRACT: note_on channel=6 note=56 velocity=100 time=0
EXTRACT: note_on channel=11 note=66 velocity=68 time=0
EXTRACT: note_off channel=11 note=66 velocity=0 time=0.07142849999999999
EXTRACT: note_off channel=9 note=35 velocity=0 time=0.056547562499999995
EXTRACT: note_off channel=9 note=36 velocity=0 time=0
EXTRACT: note_off channel=6 note=56 velocity=0 time=0.014880937499999998
EXTRACT: note_on channel=6 note=54 velocity=100 time=0
EXTRACT: note_on channel=11 note=63 velocity=68 time=0
EXTRACT: note_off channel=11 note=63 velocity=0 time=0.07142849999999999
EXTRACT: note_off channel=0 note=54 velocity=0 time=0.026785687499999995
EXTRACT: note_on channel=9 note=38 velocity=100 time=0.0446428125
EXTRACT: note_on channel=9 note=42 velocity=100 time=0
EXTRACT: note_off channel=2 note=29 velocity=0 time=0
EXTRACT: note_on channel=2 note=29 velocity=80 time=0
EXTRACT: control_change channel=4 control=10 value=95 time=0
EXTRACT: note_on channel=4 note=66 velocity=100 time=0
EXTRACT: note_on channel=11 note=66 velocity=68 time=0
EXTRACT: note_off channel=11 note=66 velocity=0 time=0.07142849999999999
EXTRACT: note_off channel=4 note=66 velocity=0 time=0.023809499999999997
EXTRACT: note_off channel=9 note=38 velocity=0 time=0.0327380625
EXTRACT: note_off channel=9 note=42 velocity=0 time=0
EXTRACT: note_on channel=0 note=56 velocity=100 time=0.014880937499999998
EXTRACT: note_on channel=11 note=63 velocity=89 time=0
EXTRACT: note_off channel=11 note=63 velocity=0 time=0.07142849999999999
EXTRACT: note_off channel=0 note=56 velocity=0 time=0.07142849999999999
EXTRACT: note_on channel=9 note=38 velocity=100 time=0
EXTRACT: note_off channel=2 note=29 velocity=0 time=0
EXTRACT: note_on channel=2 note=27 velocity=100 time=0
EXTRACT: note_on channel=3 note=56 velocity=100 time=0
EXTRACT: control_change channel=4 control=10 value=33 time=0
EXTRACT: note_on channel=4 note=68 velocity=100 time=0
EXTRACT: note_on channel=11 note=66 velocity=100 time=0
EXTRACT: note_off channel=11 note=66 velocity=0 time=0.07142849999999999
EXTRACT: note_off channel=9 note=38 velocity=0 time=0.056547562499999995
EXTRACT: note_off channel=6 note=54 velocity=0 time=0.0029761874999999997
EXTRACT: note_off channel=3 note=56 velocity=0 time=0.005952374999999999
EXTRACT: note_on channel=0 note=56 velocity=100 time=0.005952374999999999
EXTRACT: note_on channel=3 note=54 velocity=100 time=0
EXTRACT: note_off channel=4 note=68 velocity=0 time=0
EXTRACT: control_change channel=4 control=10 value=95 time=0
EXTRACT: note_on channel=4 note=71 velocity=100 time=0
EXTRACT: note_on channel=11 note=68 velocity=100 time=0
EXTRACT: note_off channel=0 note=56 velocity=0 time=0.14285699999999998
EXTRACT: note_on channel=9 note=42 velocity=100 time=0
EXTRACT: note_on channel=9 note=49 velocity=60 time=0
EXTRACT: note_off channel=2 note=27 velocity=0 time=0
EXTRACT: note_on channel=2 note=27 velocity=80 time=0
EXTRACT: note_off channel=3 note=54 velocity=0 time=0
EXTRACT: note_on channel=3 note=56 velocity=100 time=0
EXTRACT: note_off channel=4 note=71 velocity=0 time=0.0208333125
EXTRACT: note_off channel=9 note=42 velocity=0 time=0.10714274999999998
EXTRACT: note_off channel=9 note=49 velocity=0 time=0
EXTRACT: note_on channel=0 note=56 velocity=100 time=0.014880937499999998
EXTRACT: note_off channel=3 note=56 velocity=0 time=0
EXTRACT: note_on channel=3 note=56 velocity=100 time=0
EXTRACT: note_off channel=0 note=56 velocity=0 time=0.1279760625
EXTRACT: note_on channel=0 note=54 velocity=100 time=0.014880937499999998
EXTRACT: note_on channel=9 note=35 velocity=100 time=0
EXTRACT: note_on channel=9 note=36 velocity=100 time=0
EXTRACT: note_on channel=2 note=32 velocity=100 time=0
EXTRACT: control_change channel=4 control=10 value=24 time=0
EXTRACT: note_on channel=7 note=68 velocity=100 time=0
EXTRACT: note_on channel=8 note=68 velocity=100 time=0
EXTRACT: note_on channel=6 note=63 velocity=100 time=0.005952374999999999
EXTRACT: note_off channel=10 note=66 velocity=0 time=0.014880937499999998
EXTRACT: note_off channel=0 note=54 velocity=0 time=0.05059518749999999
EXTRACT: note_off channel=9 note=35 velocity=0 time=0.056547562499999995
EXTRACT: note_off channel=9 note=36 velocity=0 time=0
EXTRACT: note_on channel=0 note=54 velocity=100 time=0.014880937499999998
EXTRACT: note_off channel=2 note=27 velocity=0 time=0.038690437499999994
EXTRACT: note_off channel=0 note=54 velocity=0 time=0.0327380625
EXTRACT: note_off channel=3 note=56 velocity=0 time=0.017857124999999998
EXTRACT: note_on channel=0 note=54 velocity=100 time=0.05357137499999999
EXTRACT: note_on channel=9 note=42 velocity=100 time=0
EXTRACT: control_change channel=1 control=10 value=0 time=0
EXTRACT: note_on channel=1 note=68 velocity=100 time=0
EXTRACT: control_change channel=4 control=10 value=104 time=0
EXTRACT: note_on channel=4 note=66 velocity=100 time=0
EXTRACT: note_off channel=0 note=54 velocity=0 time=0.07142849999999999
EXTRACT: note_off channel=4 note=66 velocity=0 time=0.023809499999999997
EXTRACT: note_off channel=9 note=42 velocity=0 time=0.0327380625
EXTRACT: note_on channel=0 note=56 velocity=100 time=0.014880937499999998
EXTRACT: note_off channel=2 note=32 velocity=0 time=0.038690437499999994
EXTRACT: note_off channel=6 note=63 velocity=0 time=0.0982141875
EXTRACT: note_on channel=9 note=38 velocity=100 time=0.005952374999999999
EXTRACT: note_on channel=4 note=68 velocity=100 time=0
EXTRACT: note_off channel=7 note=68 velocity=0 time=0
EXTRACT: note_on channel=7 note=70 velocity=100 time=0
EXTRACT: note_off channel=8 note=68 velocity=0 time=0
EXTRACT: note_on channel=8 note=70 velocity=100 time=0
EXTRACT: note_off channel=1 note=68 velocity=0 time=0.0208333125
EXTRACT: note_off channel=0 note=56 velocity=0 time=0.023809499999999997
EXTRACT: note_off channel=11 note=68 velocity=0 time=0.056547562499999995
EXTRACT: note_off channel=4 note=68 velocity=0 time=0.017857124999999998
EXTRACT: note_off channel=9 note=38 velocity=0 time=0.008928562499999999
EXTRACT: note_on channel=0 note=56 velocity=100 time=0.014880937499999998
EXTRACT: control_change channel=4 control=10 value=33 time=0
EXTRACT: note_on channel=9 note=42 velocity=100 time=0.14285699999999998
EXTRACT: control_change channel=1 control=10 value=127 time=0
EXTRACT: note_on channel=1 note=68 velocity=100 time=0
EXTRACT: note_off channel=0 note=56 velocity=0 time=0.0446428125
EXTRACT: note_off channel=9 note=42 velocity=0 time=0.08333325
EXTRACT: note_on channel=0 note=56 velocity=100 time=0.014880937499999998
EXTRACT: note_on channel=4 note=63 velocity=100 time=0
EXTRACT: note_on channel=6 note=63 velocity=100 time=0
EXTRACT: note_on channel=11 note=68 velocity=100 time=0
EXTRACT: note_on channel=2 note=31 velocity=100 time=0.07142849999999999
EXTRACT: note_off channel=0 note=56 velocity=0 time=0.038690437499999994
EXTRACT: note_off channel=4 note=63 velocity=0 time=0.008928562499999999
EXTRACT: note_on channel=0 note=54 velocity=100 time=0.023809499999999997
EXTRACT: note_on channel=9 note=35 velocity=100 time=0
EXTRACT: note_on channel=9 note=36 velocity=100 time=0
EXTRACT: note_off channel=2 note=31 velocity=0 time=0
EXTRACT: note_on channel=2 note=32 velocity=100 time=0
EXTRACT: control_change channel=4 control=10 value=95 time=0
EXTRACT: note_off channel=7 note=70 velocity=0 time=0
EXTRACT: note_on channel=7 note=71 velocity=100 time=0
EXTRACT: note_off channel=8 note=70 velocity=0 time=0
EXTRACT: note_on channel=8 note=71 velocity=100 time=0
EXTRACT: note_on channel=11 note=66 velocity=100 time=0
EXTRACT: note_off channel=11 note=68 velocity=0 time=0.0446428125
EXTRACT: note_off channel=9 note=35 velocity=0 time=0.08333325
EXTRACT: note_off channel=9 note=36 velocity=0 time=0
EXTRACT: note_off channel=1 note=68 velocity=0 time=0.008928562499999999
EXTRACT: note_off channel=6 note=63 velocity=0 time=0.005952374999999999
EXTRACT: note_on channel=6 note=63 velocity=100 time=0
EXTRACT: note_off channel=0 note=54 velocity=0 time=0.0982141875
EXTRACT: note_on channel=9 note=42 velocity=100 time=0.0446428125
EXTRACT: control_change channel=4 control=10 value=33 time=0
EXTRACT: note_on channel=4 note=66 velocity=100 time=0
EXTRACT: note_off channel=6 note=63 velocity=0 time=0
EXTRACT: note_on channel=6 note=61 velocity=100 time=0
EXTRACT: note_off channel=4 note=66 velocity=0 time=0.09523799999999999
EXTRACT: note_off channel=9 note=42 velocity=0 time=0.0327380625
EXTRACT: note_off channel=2 note=32 velocity=0 time=0.011904749999999999
EXTRACT: note_on channel=0 note=56 velocity=100 time=0.0029761874999999997
EXTRACT: control_change channel=4 control=10 value=95 time=0
EXTRACT: note_off channel=6 note=61 velocity=0 time=0
EXTRACT: note_on channel=6 note=61 velocity=100 time=0
EXTRACT: note_off channel=0 note=56 velocity=0 time=0.14285699999999998
EXTRACT: note_on channel=9 note=38 velocity=100 time=0
EXTRACT: note_on channel=3 note=56 velocity=100 time=0
EXTRACT: note_on channel=4 note=68 velocity=100 time=0
EXTRACT: note_off channel=6 note=61 velocity=0 time=0
EXTRACT: note_on channel=6 note=59 velocity=100 time=0
EXTRACT: note_off channel=7 note=71 velocity=0 time=0
EXTRACT: note_on channel=7 note=73 velocity=100 time=0
EXTRACT: note_off channel=8 note=71 velocity=0 time=0
EXTRACT: note_on channel=8 note=73 velocity=100 time=0
EXTRACT: note_off channel=9 note=38 velocity=0 time=0.1279760625
EXTRACT: note_off channel=3 note=56 velocity=0 time=0.008928562499999999
EXTRACT: note_on channel=0 note=56 velocity=100 time=0.005952374999999999
EXTRACT: note_on channel=3 note=54 velocity=100 time=0
EXTRACT: note_off channel=4 note=68 velocity=0 time=0
EXTRACT: note_on channel=4 note=71 velocity=100 time=0
EXTRACT: note_off channel=0 note=56 velocity=0 time=0.14285699999999998
EXTRACT: note_on channel=9 note=42 velocity=100 time=0
EXTRACT: note_on channel=9 note=49 velocity=60 time=0
EXTRACT: note_off channel=3 note=54 velocity=0 time=0
EXTRACT: note_on channel=3 note=56 velocity=100 time=0
EXTRACT: note_off channel=6 note=59 velocity=0 time=0
EXTRACT: note_on channel=6 note=61 velocity=100 time=0
EXTRACT: note_off channel=4 note=71 velocity=0 time=0.0208333125
EXTRACT: note_off channel=9 note=42 velocity=0 time=0.10714274999999998
EXTRACT: note_off channel=9 note=49 velocity=0 time=0
EXTRACT: note_on channel=0 note=56 velocity=100 time=0.014880937499999998
EXTRACT: note_off channel=3 note=56 velocity=0 time=0
EXTRACT: note_on channel=3 note=56 velocity=100 time=0
EXTRACT: note_off channel=11 note=66 velocity=0 time=0.10119037499999999
EXTRACT: note_off channel=0 note=56 velocity=0 time=0.026785687499999995
EXTRACT: note_off channel=6 note=61 velocity=0 time=0.0029761874999999997
EXTRACT: note_on channel=6 note=63 velocity=100 time=0
EXTRACT: note_on channel=0 note=54 velocity=100 time=0.011904749999999999
EXTRACT: note_on channel=9 note=35 velocity=100 time=0
EXTRACT: note_on channel=9 note=36 velocity=100 time=0
EXTRACT: note_on channel=2 note=32 velocity=100 time=0
EXTRACT: control_change channel=4 control=10 value=24 time=0
EXTRACT: note_off channel=7 note=73 velocity=0 time=0
EXTRACT: note_on channel=7 note=75 velocity=100 time=0
EXTRACT: note_off channel=8 note=73 velocity=0 time=0
EXTRACT: note_on channel=8 note=75 velocity=100 time=0
EXTRACT: note_off channel=0 note=54 velocity=0 time=0.07142849999999999
EXTRACT: note_off channel=9 note=35 velocity=0 time=0.056547562499999995
EXTRACT: note_off channel=9 note=36 velocity=0 time=0
EXTRACT: note_on channel=0 note=54 velocity=100 time=0.014880937499999998
EXTRACT: note_off channel=0 note=54 velocity=0 time=0.07142849999999999
EXTRACT: note_off channel=3 note=56 velocity=0 time=0.017857124999999998
EXTRACT: note_on channel=0 note=54 velocity=100 time=0.05357137499999999
EXTRACT: note_on channel=9 note=42 velocity=100 time=0
EXTRACT: control_change channel=4 control=10 value=104 time=0
EXTRACT: note_on channel=4 note=66 velocity=100 time=0
EXTRACT: note_off channel=0 note=54 velocity=0 time=0.07142849999999999
EXTRACT: note_off channel=4 note=66 velocity=0 time=0.023809499999999997
EXTRACT: note_off channel=9 note=42 velocity=0 time=0.0327380625
EXTRACT: note_on channel=0 note=56 velocity=100 time=0.014880937499999998
EXTRACT: note_off channel=2 note=32 velocity=0 time=0.038690437499999994
EXTRACT: note_off channel=6 note=63 velocity=0 time=0.08035706249999999
EXTRACT: note_on channel=9 note=38 velocity=100 time=0.023809499999999997
EXTRACT: note_on channel=4 note=68 velocity=100 time=0
EXTRACT: note_off channel=7 note=75 velocity=0 time=0
EXTRACT: note_on channel=7 note=73 velocity=100 time=0
EXTRACT: note_off channel=8 note=75 velocity=0 time=0
EXTRACT: note_on channel=8 note=73 velocity=100 time=0
EXTRACT: note_off channel=0 note=56 velocity=0 time=0.0446428125
EXTRACT: note_off channel=4 note=68 velocity=0 time=0.0744046875
EXTRACT: note_off channel=9 note=38 velocity=0 time=0.008928562499999999
EXTRACT: note_on channel=0 note=56 velocity=100 time=0.014880937499999998
EXTRACT: control_change channel=4 control=10 value=33 time=0
EXTRACT: note_on channel=9 note=42 velocity=100 time=0.14285699999999998
EXTRACT: note_on channel=6 note=63 velocity=100 time=0
EXTRACT: note_on channel=11 note=66 velocity=68 time=0
EXTRACT: note_off channel=0 note=56 velocity=0 time=0.0446428125
EXTRACT: note_off channel=11 note=66 velocity=0 time=0.026785687499999995
EXTRACT: note_off channel=9 note=42 velocity=0 time=0.056547562499999995
EXTRACT: note_on channel=0 note=56 velocity=100 time=0.014880937499999998
EXTRACT: note_on channel=4 note=63 velocity=100 time=0
EXTRACT: note_off channel=6 note=63 velocity=0 time=0
EXTRACT: note_on channel=6 note=63 velocity=100 time=0
EXTRACT: note_on channel=11 note=63 velocity=68 time=0
EXTRACT: note_on channel=2 note=31 velocity=100 time=0.07142849999999999
EXTRACT: note_off channel=11 note=63 velocity=0 time=0
EXTRACT: note_off channel=0 note=56 velocity=0 time=0.038690437499999994
EXTRACT: note_off channel=4 note=63 velocity=0 time=0.008928562499999999
EXTRACT: note_on channel=0 note=54 velocity=100 time=0.023809499999999997
EXTRACT: note_on channel=9 note=35 velocity=100 time=0
EXTRACT: note_on channel=9 note=36 velocity=100 time=0
EXTRACT: note_off channel=2 note=31 velocity=0 time=0
EXTRACT: note_on channel=2 note=32 velocity=100 time=0
EXTRACT: control_change channel=4 control=10 value=95 time=0
EXTRACT: note_off channel=7 note=73 velocity=0 time=0
EXTRACT: note_on channel=7 note=71 velocity=100 time=0
EXTRACT: note_off channel=8 note=73 velocity=0 time=0
EXTRACT: note_on channel=8 note=71 velocity=100 time=0
EXTRACT: note_on channel=11 note=66 velocity=68 time=0
EXTRACT: note_off channel=11 note=66 velocity=0 time=0.07142849999999999
EXTRACT: note_off channel=9 note=35 velocity=0 time=0.056547562499999995
EXTRACT: note_off channel=9 note=36 velocity=0 time=0
EXTRACT: note_off channel=6 note=63 velocity=0 time=0.014880937499999998
EXTRACT: note_on channel=6 note=63 velocity=100 time=0
EXTRACT: note_on channel=11 note=63 velocity=68 time=0
EXTRACT: note_off channel=11 note=63 velocity=0 time=0.07142849999999999
EXTRACT: note_off channel=0 note=54 velocity=0 time=0.026785687499999995
EXTRACT: note_on channel=9 note=42 velocity=100 time=0.0446428125
EXTRACT: control_change channel=4 control=10 value=33 time=0
EXTRACT: note_on channel=4 note=66 velocity=100 time=0
EXTRACT: note_off channel=6 note=63 velocity=0 time=0
EXTRACT: note_on channel=6 note=61 velocity=100 time=0
EXTRACT: note_on channel=11 note=66 velocity=68 time=0
EXTRACT: note_off channel=11 note=66 velocity=0 time=0.07142849999999999
EXTRACT: note_off channel=4 note=66 velocity=0 time=0.023809499999999997
EXTRACT: note_off channel=9 note=42 velocity=0 time=0.0327380625
EXTRACT: note_off channel=2 note=32 velocity=0 time=0.011904749999999999
EXTRACT: note_on channel=0 note=56 velocity=100 time=0.0029761874999999997
EXTRACT: control_change channel=4 control=10 value=95 time=0
EXTRACT: note_on channel=11 note=63 velocity=89 time=0
EXTRACT: note_off channel=11 note=63 velocity=0 time=0.07142849999999999
EXTRACT: note_off channel=0 note=56 velocity=0 time=0.07142849999999999
EXTRACT: note_on channel=9 note=38 velocity=100 time=0
EXTRACT: note_on channel=3 note=56 velocity=100 time=0
EXTRACT: note_on channel=4 note=68 velocity=100 time=0
EXTRACT: note_off channel=6 note=61 velocity=0 time=0
EXTRACT: note_on channel=6 note=59 velocity=100 time=0
EXTRACT: note_off channel=7 note=71 velocity=0 time=0
EXTRACT: note_on channel=7 note=70 velocity=100 time=0
EXTRACT: note_off channel=8 note=71 velocity=0 time=0
EXTRACT: note_on channel=8 note=70 velocity=100 time=0
EXTRACT: note_on channel=11 note=66 velocity=100 time=0
EXTRACT: note_off channel=11 note=66 velocity=0 time=0.07142849999999999
EXTRACT: note_off channel=9 note=38 velocity=0 time=0.056547562499999995
EXTRACT: note_off channel=3 note=56 velocity=0 time=0.008928562499999999
EXTRACT: note_on channel=0 note=56 velocity=100 time=0.005952374999999999
EXTRACT: note_on channel=3 note=54 velocity=100 time=0
EXTRACT: note_off channel=4 note=68 velocity=0 time=0
EXTRACT: note_on channel=4 note=71 velocity=100 time=0
EXTRACT: note_on channel=11 note=68 velocity=100 time=0
EXTRACT: note_off channel=0 note=56 velocity=0 time=0.14285699999999998
EXTRACT: note_on channel=9 note=35 velocity=100 time=0
EXTRACT: note_on channel=9 note=36 velocity=100 time=0
EXTRACT: note_on channel=9 note=42 velocity=100 time=0
EXTRACT: note_on channel=9 note=49 velocity=60 time=0
EXTRACT: note_off channel=3 note=54 velocity=0 time=0
EXTRACT: note_on channel=3 note=56 velocity=100 time=0
EXTRACT: note_off channel=6 note=59 velocity=0 time=0
EXTRACT: note_on channel=6 note=61 velocity=100 time=0
EXTRACT: note_off channel=4 note=71 velocity=0 time=0.0208333125
EXTRACT: note_off channel=9 note=35 velocity=0 time=0.10714274999999998
EXTRACT: note_off channel=9 note=36 velocity=0 time=0
EXTRACT: note_off channel=9 note=42 velocity=0 time=0
EXTRACT: note_off channel=9 note=49 velocity=0 time=0
EXTRACT: note_on channel=0 note=56 velocity=100 time=0.014880937499999998
EXTRACT: note_off channel=3 note=56 velocity=0 time=0
EXTRACT: note_on channel=3 note=56 velocity=100 time=0
EXTRACT: note_off channel=0 note=56 velocity=0 time=0.1279760625
EXTRACT: note_off channel=6 note=61 velocity=0 time=0.0029761874999999997
EXTRACT: note_on channel=6 note=63 velocity=100 time=0
EXTRACT: note_on channel=0 note=54 velocity=100 time=0.011904749999999999
EXTRACT: note_on channel=9 note=35 velocity=100 time=0
EXTRACT: note_on channel=9 note=36 velocity=100 time=0
EXTRACT: note_on channel=2 note=32 velocity=100 time=0
EXTRACT: note_off channel=7 note=70 velocity=0 time=0
EXTRACT: note_on channel=7 note=68 velocity=100 time=0
EXTRACT: note_off channel=8 note=70 velocity=0 time=0
EXTRACT: note_on channel=8 note=68 velocity=100 time=0
EXTRACT: note_off channel=0 note=54 velocity=0 time=0.07142849999999999
EXTRACT: note_off channel=9 note=35 velocity=0 time=0.056547562499999995
EXTRACT: note_off channel=9 note=36 velocity=0 time=0
EXTRACT: note_on channel=0 note=54 velocity=100 time=0.014880937499999998
EXTRACT: note_off channel=0 note=54 velocity=0 time=0.07142849999999999
EXTRACT: note_off channel=3 note=56 velocity=0 time=0.017857124999999998
EXTRACT: note_on channel=0 note=54 velocity=100 time=0.05357137499999999
EXTRACT: note_on channel=9 note=42 velocity=100 time=0
EXTRACT: control_change channel=1 control=10 value=0 time=0
EXTRACT: note_on channel=1 note=68 velocity=100 time=0
EXTRACT: note_on channel=4 note=66 velocity=100 time=0
EXTRACT: note_off channel=6 note=63 velocity=0 time=0
EXTRACT: note_on channel=6 note=61 velocity=100 time=0
EXTRACT: note_off channel=0 note=54 velocity=0 time=0.07142849999999999
EXTRACT: note_off channel=4 note=66 velocity=0 time=0.023809499999999997
EXTRACT: note_off channel=9 note=42 velocity=0 time=0.0327380625
EXTRACT: note_on channel=0 note=56 velocity=100 time=0.014880937499999998
EXTRACT: note_off channel=2 note=32 velocity=0 time=0.038690437499999994
EXTRACT: note_on channel=9 note=38 velocity=100 time=0.10416656249999999
EXTRACT: control_change channel=4 control=10 value=104 time=0
EXTRACT: note_on channel=4 note=68 velocity=100 time=0
EXTRACT: note_off channel=1 note=68 velocity=0 time=0.0208333125
EXTRACT: note_off channel=0 note=56 velocity=0 time=0.023809499999999997
EXTRACT: note_off channel=11 note=68 velocity=0 time=0.056547562499999995
EXTRACT: note_off channel=4 note=68 velocity=0 time=0.017857124999999998
EXTRACT: note_off channel=9 note=38 velocity=0 time=0.008928562499999999
EXTRACT: note_on channel=0 note=56 velocity=100 time=0.014880937499999998
EXTRACT: note_off channel=6 note=61 velocity=0 time=0
EXTRACT: note_on channel=6 note=59 velocity=100 time=0
EXTRACT: note_on channel=9 note=42 velocity=100 time=0.14285699999999998
EXTRACT: control_change channel=1 control=10 value=127 time=0
EXTRACT: note_on channel=1 note=68 velocity=100 time=0
EXTRACT: note_off channel=6 note=59 velocity=0 time=0
EXTRACT: note_on channel=6 note=56 velocity=100 time=0
EXTRACT: note_off channel=0 note=56 velocity=0 time=0.0446428125
EXTRACT: note_off channel=9 note=42 velocity=0 time=0.08333325
EXTRACT: note_on channel=0 note=56 velocity=100 time=0.014880937499999998
EXTRACT: control_change channel=4 control=10 value=33 time=0
EXTRACT: note_on channel=4 note=63 velocity=100 time=0
EXTRACT: note_on channel=11 note=68 velocity=100 time=0
EXTRACT: note_on channel=2 note=31 velocity=100 time=0.07142849999999999
EXTRACT: note_off channel=0 note=56 velocity=0 time=0.038690437499999994
EXTRACT: note_off channel=4 note=63 velocity=0 time=0.008928562499999999
EXTRACT: note_on channel=0 note=54 velocity=100 time=0.023809499999999997
EXTRACT: note_on channel=9 note=35 velocity=100 time=0
EXTRACT: note_on channel=9 note=36 velocity=100 time=0
EXTRACT: note_off channel=2 note=31 velocity=0 time=0
EXTRACT: note_on channel=2 note=32 velocity=100 time=0
EXTRACT: note_on channel=11 note=66 velocity=100 time=0
EXTRACT: note_off channel=11 note=68 velocity=0 time=0.0446428125
EXTRACT: note_off channel=9 note=35 velocity=0 time=0.08333325
EXTRACT: note_off channel=9 note=36 velocity=0 time=0
EXTRACT: note_off channel=1 note=68 velocity=0 time=0.008928562499999999
EXTRACT: note_off channel=0 note=54 velocity=0 time=0.10416656249999999
EXTRACT: note_off channel=6 note=56 velocity=0 time=0.0327380625
EXTRACT: note_on channel=9 note=42 velocity=100 time=0.011904749999999999
EXTRACT: control_change channel=4 control=10 value=95 time=0
EXTRACT: note_on channel=4 note=66 velocity=100 time=0
EXTRACT: note_off channel=4 note=66 velocity=0 time=0.09523799999999999
EXTRACT: note_off channel=9 note=42 velocity=0 time=0.0327380625
EXTRACT: note_off channel=2 note=32 velocity=0 time=0.011904749999999999
EXTRACT: note_on channel=0 note=56 velocity=100 time=0.0029761874999999997
EXTRACT: note_off channel=0 note=56 velocity=0 time=0.14285699999999998
EXTRACT: note_on channel=9 note=38 velocity=100 time=0
EXTRACT: note_on channel=3 note=56 velocity=100 time=0
EXTRACT: control_change channel=4 control=10 value=33 time=0
EXTRACT: note_on channel=4 note=68 velocity=100 time=0
EXTRACT: note_off channel=9 note=38 velocity=0 time=0.1279760625
EXTRACT: note_off channel=3 note=56 velocity=0 time=0.008928562499999999
EXTRACT: note_on channel=0 note=56 velocity=100 time=0.005952374999999999
EXTRACT: note_on channel=3 note=54 velocity=100 time=0
EXTRACT: note_off channel=4 note=68 velocity=0 time=0
EXTRACT: control_change channel=4 control=10 value=95 time=0
EXTRACT: note_on channel=4 note=71 velocity=100 time=0
EXTRACT: note_off channel=0 note=56 velocity=0 time=0.14285699999999998
EXTRACT: note_on channel=9 note=42 velocity=100 time=0
EXTRACT: note_on channel=9 note=49 velocity=60 time=0
EXTRACT: note_off channel=3 note=54 velocity=0 time=0
EXTRACT: note_on channel=3 note=56 velocity=100 time=0
EXTRACT: note_on channel=6 note=56 velocity=100 time=0
EXTRACT: note_off channel=4 note=71 velocity=0 time=0.0208333125
EXTRACT: note_off channel=9 note=42 velocity=0 time=0.10714274999999998
EXTRACT: note_off channel=9 note=49 velocity=0 time=0
EXTRACT: note_on channel=0 note=56 velocity=100 time=0.014880937499999998
EXTRACT: note_off channel=3 note=56 velocity=0 time=0
EXTRACT: note_on channel=3 note=56 velocity=100 time=0
EXTRACT: note_off channel=11 note=66 velocity=0 time=0.10119037499999999
EXTRACT: note_off channel=0 note=56 velocity=0 time=0.026785687499999995
EXTRACT: note_off channel=6 note=56 velocity=0 time=0.014880937499999998
EXTRACT: note_on channel=6 note=61 velocity=100 time=0
EXTRACT: note_off channel=7 note=68 velocity=0 time=0
EXTRACT: note_off channel=8 note=68 velocity=0 time=0
EXTRACT: note_off channel=3 note=56 velocity=0 time=0.23214262499999996
EXTRACT: note_off channel=6 note=61 velocity=0 time=0.05357137499999999
EXTRACT: note_on channel=6 note=56 velocity=100 time=0
EXTRACT: note_off channel=6 note=56 velocity=0 time=0.14285699999999998
EXTRACT: note_on channel=6 note=56 velocity=100 time=0
EXTRACT: note_off channel=6 note=56 velocity=0 time=0.28571399999999997
EXTRACT: note_on channel=6 note=56 velocity=100 time=0
EXTRACT: note_off channel=6 note=56 velocity=0 time=0.14285699999999998
EXTRACT: note_on channel=6 note=61 velocity=100 time=0
EXTRACT: note_off channel=6 note=61 velocity=0 time=0.28571399999999997
EXTRACT: note_on channel=6 note=56 velocity=100 time=0
EXTRACT: note_off channel=6 note=56 velocity=0 time=1.1309512499999999
